<svg id="Layer_1" data-name="Layer 1" xmlns="http://www.w3.org/2000/svg" width="566.97" height="512" viewBox="0 0 566.97 512">
  <defs>
    <style>
      .cls-1, .cls-2, .cls-4 {
        fill: none;
        stroke: #fff;
        stroke-miterlimit: 10;
        stroke-width: 2px;
      }

      .cls-2 {
        stroke-dasharray: 11.64 11.64;
      }

      .cls-3 {
        fill: #fff;
      }

      .cls-4 {
        stroke-dasharray: 12 12;
      }
    </style>
  </defs>
  <g>
    <g>
      <path class="cls-1" d="M209,120s1.83-1.22,5.1-3.16"/>
      <path class="cls-2" d="M224.25,111.15c28.3-14.84,89.19-39.5,123.83.44"/>
      <path class="cls-1" d="M351.71,116.15q1.73,2.35,3.34,5"/>
      <polygon class="cls-3" points="344.71 123.29 361.58 133.91 362.35 113.98 344.71 123.29"/>
    </g>
    <g>
      <path class="cls-4" d="M288.15,259.19s108.09-14.61,107.9,69.92"/>
      <polygon class="cls-3" points="386.07 325.63 395.06 343.43 405.99 326.75 386.07 325.63"/>
    </g>
    <g>
      <path class="cls-4" d="M361.59,133.91s52.68,98.5-85.41,124.26"/>
      <polygon class="cls-3" points="277.38 247.76 262.01 260.46 280.69 267.43 277.38 247.76"/>
    </g>
    <g>
      <path class="cls-4" d="M394.71,349.55S365.36,442.55,291,418c0,0-58-17.94-113.7-126"/>
      <polygon class="cls-3" points="187.65 289.94 170.92 279.09 169.89 299 187.65 289.94"/>
    </g>
  </g>
</svg>
