<svg id="Layer_1" data-name="Layer 1" xmlns="http://www.w3.org/2000/svg" width="566.97" height="512" viewBox="0 0 566.97 512">
  <defs>
    <style>
      .cls-1 {
        fill: #8436ff;
      }
    </style>
  </defs>
  <path class="cls-1" d="M365.57,279.87H437.5c.12-14,.15-26.65,0-39.21H331.87c11.38-16.82,26.91-53.76,24.62-75-1.13-10.48-2.19-20.26-6.55-29.2s-12.53-18.88-24.48-29.87a137.62,137.62,0,0,0-38.6-25.41q-20.69-8.92-33.79-8.93-16.55,0-35.16,6.21c-12.41,4.13-35,15.48-50.2,23.29l13.79,29q4.81,8.26,10.34,8.27c13.33-6.89,35.49-19.38,48.82-26.74q21.36-9.64,37.23-9.65,18.62,0,30,11.37c7.59,7.58,11.45,26.68,13.1,39.9,1.92,15.37,1.92,43.21-17.58,64.1-5.46,7.92-15.63,13.79-22.06,13.79q-17.94,2.76-32.06,4.48A195.2,195.2,0,0,1,226.87,238q-11.73,0-11.72,11.73,0,4.83,13.1,19.3t17.93,14.48c3.67,0,51.07-12.61,62.71-7.56,56,24.28,48.72,81.61,20.51,109.7-10.82,10.94-27.84,17.29-54.27,15.48-23.38-1.6-39.91-8.29-58.07-25.08s-53.41-69.64-69.49-106l-18.21,10.12v1.12c20.29,43.8,55.72,102.54,79.24,124.8s49.51,33.61,77.56,33.61q41.35,0,67.22-22.8c28.82-27.45,42-67.15,26.64-111.32C378.34,300.74,372.5,288,365.57,279.87Z"/>
</svg>
