<svg id="Layer_1" data-name="Layer 1" xmlns="http://www.w3.org/2000/svg" width="566.97" height="512" viewBox="0 0 566.97 512">
  <defs>
    <style>
      .cls-1 {
        fill: #f4f2f2;
      }
    </style>
  </defs>
  <path class="cls-1" d="M546,74.32a5,5,0,0,0-3.54-1.46H355.63a5,5,0,0,0-1.5.23H270.87a5,5,0,0,0-3.54,1.47,5.05,5.05,0,0,0-1.46,3.54l.09,38.61a5,5,0,0,0,5,5h58.26v113H237.51c11-19.46,22.79-50.86,20.66-70.54-1.17-10.86-2.28-21.12-7-30.84-4.64-9.45-13.25-20-25.59-31.35a143.28,143.28,0,0,0-40-26.32c-14.57-6.28-26.27-9.34-35.76-9.34a117,117,0,0,0-36.74,6.46c-9.71,3.24-26.36,11-50.91,23.6A5,5,0,0,0,59.91,103l13.79,29c.06.13.12.25.19.37C78.05,139.42,83,143,88.56,143a5,5,0,0,0,2.3-.56c10.06-5.2,25.32-13.68,37.58-20.5l11.18-6.21c13.46-6,25.23-9.12,35-9.12,11.13,0,19.79,3.24,26.45,9.91,5.05,5,9.41,18.87,11.68,37,1.75,14,2,40.51-16.28,60.06a6.36,6.36,0,0,0-.46.57c-4.59,6.66-13.26,11.63-17.94,11.63a4.77,4.77,0,0,0-.76.06c-12,1.84-22.69,3.34-31.91,4.46a190.71,190.71,0,0,1-21.8,1.69c-10.62,0-16.72,6.09-16.72,16.72,0,3.51,1.75,8.68,14.39,22.65,12.81,14.17,18,16.13,21.64,16.13,1.36,0,3.58-.47,10.4-1.93,11.89-2.55,31.81-6.82,43.86-6.82,4.2,0,5.91.55,6.45.78,21.28,9.23,34.43,24.18,38,43.24,3.8,20.12-3.68,43-19.08,58.36-9.52,9.62-23.28,14.3-42.07,14.3-2.66,0-5.46-.1-8.31-.3-22.78-1.56-38.21-8.22-55-23.76S65.49,304.64,48.85,267.08a5,5,0,0,0-3-2.71,4.82,4.82,0,0,0-1.59-.26,5,5,0,0,0-2.43.63l-18.2,10.11a5,5,0,0,0-2.57,4.38v1.12a5.06,5.06,0,0,0,.47,2.09c20.39,44,56,103.32,80.33,126.33,24.52,23.21,51.77,35,81,35,28.71,0,52.44-8.09,70.53-24.05a.86.86,0,0,0,.14-.13C286.24,388.45,296.42,346,281.47,303A108.29,108.29,0,0,0,272,283.9h57.19V440.69a5,5,0,0,0,5,5h41.36a5,5,0,0,0,5-5v-319h54.16v319a5,5,0,0,0,5,5h41.37a5,5,0,0,0,5-5V121.47h56.36a5,5,0,0,0,5-5V77.86A5,5,0,0,0,546,74.32Zm-3.54,42.15H481.11V440.69H439.74V116.47h-2.92l.12.23H375.58v324H334.22V278.9H262.28c6.93,8.1,12.78,20.87,14.47,25.73C292.11,348.8,278.93,388.5,250.1,416q-25.84,22.8-67.22,22.8-42.06,0-77.56-33.61c-23.52-22.26-58.95-81-79.24-124.8v-1.12l18.2-10.11c16.08,36.31,51.34,89.18,69.5,106s34.69,23.48,58.07,25.08c26.42,1.81,43.45-4.53,54.27-15.47,28.21-28.1,35.45-85.43-20.52-109.71-11.64-5-59,7.56-62.7,7.56q-4.83,0-17.93-14.48t-13.1-19.3q0-11.73,11.72-11.72A195.78,195.78,0,0,0,146,235.29q14.12-1.71,32.06-4.48c6.43,0,16.59-5.87,22.06-13.79,19.5-20.89,19.5-48.73,17.58-64.09-1.65-13.23-5.52-32.32-13.1-39.91s-17.58-11.37-30-11.37q-15.87,0-37.23,9.65C124,118.66,101.88,131.15,88.56,138q-5.53,0-10.34-8.27l-13.79-29c15.16-7.81,37.79-19.16,50.2-23.29s24.13-6.21,35.16-6.21q13.1,0,33.78,8.93a137.71,137.71,0,0,1,38.61,25.42q17.92,16.47,24.48,29.87c4.36,8.93,5.41,18.72,6.55,29.19,2.29,21.22-13.24,58.15-24.63,75H334.22v-123H271l-.09-38.61h84.89l-.13-.23H542.47Z"/>
</svg>
