<svg id="Layer_1" data-name="Layer 1" xmlns="http://www.w3.org/2000/svg" width="566.97" height="512" viewBox="0 0 566.97 512">
  <defs>
    <style>
      .cls-1 {
        fill: #e84f4f;
      }
    </style>
  </defs>
  <path class="cls-1" d="M391.11,279.87c-21.2-29.9-33.73-38.62-33.7-39.21h0c11.39-16.82,26.92-53.76,24.62-75-1.13-10.48-2.18-20.26-6.55-29.2S363,117.61,351,106.62A137.67,137.67,0,0,0,312.4,81.21q-20.68-8.92-33.78-8.93-16.55,0-35.16,6.21c-12.41,4.13-35,15.48-50.2,23.29l13.78,29q4.82,8.26,10.35,8.27c13.32-6.89,35.48-19.38,48.82-26.74q21.36-9.64,37.23-9.65,18.62,0,30,11.37c7.58,7.58,11.45,26.68,13.1,39.9,1.92,15.37,1.92,43.21-17.58,64.1-5.47,7.92-15.63,13.79-22.06,13.79q-17.94,2.76-32.06,4.48A195.36,195.36,0,0,1,252.42,238q-11.73,0-11.72,11.73,0,4.83,13.1,19.3t17.93,14.48c3.67,0,51.06-12.61,62.7-7.56,56,24.28,48.73,81.61,20.52,109.7-10.82,10.94-27.85,17.29-54.27,15.48-23.38-1.6-39.92-8.29-58.07-25.08s-53.42-69.64-69.5-106l-18.2,10.12v1.12c20.29,43.8,55.72,102.54,79.24,124.8s49.52,33.61,77.56,33.61q41.37,0,67.22-22.8c28.83-27.45,42-67.15,26.65-111.32-1.69-4.86-7.54-17.63-14.47-25.73"/>
</svg>
