<svg id="Layer_1" data-name="Layer 1" xmlns="http://www.w3.org/2000/svg" width="566.97" height="512" viewBox="0 0 566.97 512">
  <defs>
    <style>
      .cls-1 {
        fill: #8d8e8d;
      }
    </style>
  </defs>
  <path class="cls-1" d="M542.47,116.47V77.86H355.63l.13.23H270.87L271,116.7h63.26v123H228.58c11.39-16.83,26.92-53.76,24.63-75-1.14-10.47-2.19-20.26-6.55-29.19s-12.53-18.89-24.48-29.87a137.71,137.71,0,0,0-38.61-25.42q-20.68-8.91-33.78-8.93-16.54,0-35.16,6.21c-12.41,4.13-35,15.48-50.2,23.29l13.79,29Q83,138,88.56,138c13.32-6.89,35.48-19.38,48.82-26.74q21.36-9.64,37.23-9.65,18.62,0,30,11.37c7.58,7.59,11.45,26.68,13.1,39.91,1.92,15.36,1.92,43.2-17.58,64.09-5.47,7.92-15.63,13.79-22.06,13.79q-17.94,2.76-32.06,4.48A195.78,195.78,0,0,1,123.59,237q-11.73,0-11.72,11.72,0,4.83,13.1,19.3t17.93,14.48c3.67,0,51.06-12.61,62.7-7.56,56,24.28,48.73,81.61,20.52,109.71-10.82,10.94-27.85,17.28-54.27,15.47-23.38-1.6-39.92-8.29-58.07-25.08s-53.42-69.64-69.5-105.95l-18.2,10.11v1.12c20.29,43.8,55.72,102.54,79.24,124.8q35.51,33.62,77.56,33.61,41.37,0,67.22-22.8c28.83-27.45,42-67.15,26.65-111.32-1.69-4.86-7.54-17.63-14.47-25.73h71.94V440.69h41.36v-324h61.36l-.12-.23h2.92V440.69h41.37V116.47Z"/>
</svg>
