<svg xmlns="http://www.w3.org/2000/svg" xmlns:xlink="http://www.w3.org/1999/xlink" width="3200" height="900" viewBox="0 0 3200 900">
  <defs>
    <style>
      .cls-1, .cls-19, .cls-68 {
        fill: none;
      }

      .cls-2 {
        isolation: isolate;
      }

      .cls-3 {
        clip-path: url(#clip-path);
      }

      .cls-4 {
        fill: url(#linear-gradient);
      }

      .cls-10, .cls-5 {
        opacity: 0.4;
      }

      .cls-10, .cls-6, .cls-9 {
        fill: #bff8f6;
      }

      .cls-7 {
        fill: #dff5f2;
      }

      .cls-8 {
        opacity: 0.6;
      }

      .cls-9 {
        opacity: 0.59;
      }

      .cls-11 {
        fill: #baf7ec;
      }

      .cls-12 {
        fill: url(#linear-gradient-2);
      }

      .cls-13, .cls-55, .cls-69 {
        fill: #5f8337;
      }

      .cls-14 {
        fill: #228417;
      }

      .cls-15 {
        fill: #197211;
      }

      .cls-16 {
        fill: url(#linear-gradient-3);
      }

      .cls-17 {
        fill: url(#linear-gradient-4);
      }

      .cls-18 {
        fill: url(#linear-gradient-5);
      }

      .cls-19 {
        stroke: #f4f2f2;
      }

      .cls-19, .cls-36, .cls-38, .cls-50, .cls-68 {
        stroke-miterlimit: 10;
      }

      .cls-19, .cls-36, .cls-38 {
        stroke-width: 0.5px;
      }

      .cls-20 {
        fill: #161b23;
      }

      .cls-20, .cls-21, .cls-52, .cls-62 {
        opacity: 0.3;
      }

      .cls-22 {
        fill: #62d739;
      }

      .cls-23 {
        fill: url(#linear-gradient-6);
      }

      .cls-24 {
        fill: url(#linear-gradient-7);
      }

      .cls-25 {
        fill: url(#linear-gradient-8);
      }

      .cls-26 {
        fill: url(#linear-gradient-9);
      }

      .cls-27 {
        fill: url(#linear-gradient-10);
      }

      .cls-28 {
        fill: url(#linear-gradient-11);
      }

      .cls-29 {
        fill: url(#linear-gradient-12);
      }

      .cls-30 {
        fill: url(#linear-gradient-13);
      }

      .cls-31 {
        fill: url(#linear-gradient-14);
      }

      .cls-32 {
        fill: url(#linear-gradient-15);
      }

      .cls-33 {
        fill: #8cccbc;
      }

      .cls-34 {
        fill: #74c38a;
      }

      .cls-35 {
        fill: url(#linear-gradient-16);
      }

      .cls-36 {
        opacity: 0.64;
        fill: url(#linear-gradient-17);
        stroke: url(#linear-gradient-18);
      }

      .cls-37 {
        fill: #42b236;
      }

      .cls-38 {
        fill: url(#linear-gradient-19);
        stroke: url(#linear-gradient-20);
      }

      .cls-39 {
        fill: url(#linear-gradient-21);
      }

      .cls-40 {
        fill: url(#linear-gradient-22);
      }

      .cls-41 {
        fill: #c28a73;
        opacity: 0.56;
      }

      .cls-42 {
        fill: #ce856b;
      }

      .cls-43 {
        fill: #3beaa2;
      }

      .cls-44 {
        fill: url(#linear-gradient-23);
      }

      .cls-45 {
        fill: url(#linear-gradient-24);
      }

      .cls-46 {
        fill: url(#linear-gradient-25);
      }

      .cls-47 {
        mix-blend-mode: screen;
        fill: url(#linear-gradient-26);
      }

      .cls-47, .cls-55 {
        opacity: 0.5;
      }

      .cls-48 {
        fill: #3ed63e;
      }

      .cls-49 {
        fill: url(#linear-gradient-27);
      }

      .cls-50 {
        stroke-width: 0.21px;
        fill: url(#linear-gradient-28);
        stroke: url(#Fading_Sky_2);
      }

      .cls-51 {
        fill: #875533;
      }

      .cls-53 {
        fill: #84e75a;
      }

      .cls-53, .cls-54, .cls-55, .cls-69 {
        mix-blend-mode: multiply;
      }

      .cls-54 {
        opacity: 0.31;
      }

      .cls-56 {
        fill: #1c8e16;
      }

      .cls-57 {
        fill: #2bb51c;
      }

      .cls-58 {
        fill: #3d8723;
      }

      .cls-59 {
        fill: #308c1f;
      }

      .cls-60 {
        fill: url(#linear-gradient-29);
      }

      .cls-61 {
        fill: url(#linear-gradient-30);
      }

      .cls-62 {
        fill: #050505;
      }

      .cls-63 {
        fill: #a5a0a4;
      }

      .cls-64 {
        fill: #999698;
      }

      .cls-65 {
        fill: #878286;
      }

      .cls-66 {
        fill: #6d696d;
      }

      .cls-67 {
        fill: #bcb7bb;
      }

      .cls-68 {
        stroke: #938c00;
      }

      .cls-69 {
        opacity: 0.18;
      }

      .cls-70 {
        fill: #347722;
      }

      .cls-71 {
        fill: #347f29;
      }

      .cls-72 {
        fill: #2c661e;
      }
    </style>
    <clipPath id="clip-path">
      <rect class="cls-1" width="3200" height="900"/>
    </clipPath>
    <linearGradient id="linear-gradient" x1="769.59" y1="3237.46" x2="3164.2" y2="-954.14" gradientUnits="userSpaceOnUse">
      <stop offset="0.2" stop-color="#c5f7fd"/>
      <stop offset="0.34" stop-color="#b3f0fd"/>
      <stop offset="0.66" stop-color="#8ee1fd"/>
      <stop offset="0.83" stop-color="#80dbfd"/>
    </linearGradient>
    <linearGradient id="linear-gradient-2" x1="738.85" y1="1078.74" x2="4541.49" y2="40.24" gradientUnits="userSpaceOnUse">
      <stop offset="0.01" stop-color="#7dce72"/>
      <stop offset="0.66" stop-color="#8edd80"/>
      <stop offset="1" stop-color="#90dd83"/>
    </linearGradient>
    <linearGradient id="linear-gradient-3" x1="1779.15" y1="2197.83" x2="1903.95" y2="1916.2" gradientTransform="translate(-863.36 -2609.25) scale(1.46 1.65)" gradientUnits="userSpaceOnUse">
      <stop offset="0" stop-color="#0a512e"/>
      <stop offset="0.54" stop-color="#0b532f"/>
      <stop offset="0.77" stop-color="#107053"/>
    </linearGradient>
    <linearGradient id="linear-gradient-4" x1="633.85" y1="2215.03" x2="784.47" y2="1875.1" xlink:href="#linear-gradient-3"/>
    <linearGradient id="linear-gradient-5" x1="1957.24" y1="2221.42" x2="2107.86" y2="1881.49" xlink:href="#linear-gradient-3"/>
    <linearGradient id="linear-gradient-6" x1="1264.13" y1="603.25" x2="1277.3" y2="369.04" gradientTransform="matrix(-1, 0, 0, 1, 4270.84, 0)" gradientUnits="userSpaceOnUse">
      <stop offset="0" stop-color="#aa826b"/>
      <stop offset="0" stop-color="#a87c68"/>
      <stop offset="0" stop-color="#a46d61"/>
      <stop offset="0.01" stop-color="#a2655d"/>
      <stop offset="0.01" stop-color="#a1625c"/>
      <stop offset="0.04" stop-color="#9b6661"/>
      <stop offset="0.16" stop-color="#847576"/>
      <stop offset="0.29" stop-color="#738085"/>
      <stop offset="0.43" stop-color="#69878e"/>
      <stop offset="0.61" stop-color="#668991"/>
    </linearGradient>
    <linearGradient id="linear-gradient-7" x1="1331.72" y1="431.99" x2="1398.46" y2="362.7" gradientTransform="matrix(-1, 0, 0, 1, 4270.84, 0)" gradientUnits="userSpaceOnUse">
      <stop offset="0" stop-color="#09a86f"/>
      <stop offset="0.14" stop-color="#1aa86e"/>
      <stop offset="0.16" stop-color="#1faa6f"/>
      <stop offset="0.29" stop-color="#45b779"/>
      <stop offset="0.42" stop-color="#63c180"/>
      <stop offset="0.54" stop-color="#79c886"/>
      <stop offset="0.67" stop-color="#86cd89"/>
      <stop offset="0.78" stop-color="#8ace8a"/>
    </linearGradient>
    <linearGradient id="linear-gradient-8" x1="2890.39" y1="385.59" x2="3120.02" y2="385.59" gradientTransform="matrix(1, 0, 0, 1, 0, 0)" xlink:href="#linear-gradient-7"/>
    <linearGradient id="linear-gradient-9" x1="1197.81" y1="463.87" x2="1351.77" y2="291.27" gradientTransform="matrix(-1, 0, 0, 1, 4270.84, 0)" gradientUnits="userSpaceOnUse">
      <stop offset="0" stop-color="#09a86f"/>
      <stop offset="0.11" stop-color="#1cb776"/>
      <stop offset="0.13" stop-color="#20ba78"/>
      <stop offset="0.25" stop-color="#3fc199"/>
      <stop offset="0.39" stop-color="#5bc8b6"/>
      <stop offset="0.53" stop-color="#6fcccc"/>
      <stop offset="0.66" stop-color="#7bcfd9"/>
      <stop offset="0.78" stop-color="#7fd0dd"/>
    </linearGradient>
    <linearGradient id="linear-gradient-10" x1="1135.42" y1="489.84" x2="1323.96" y2="254.71" xlink:href="#linear-gradient-9"/>
    <linearGradient id="linear-gradient-11" x1="1127.52" y1="500.67" x2="1199.28" y2="411.18" xlink:href="#linear-gradient-9"/>
    <linearGradient id="linear-gradient-12" x1="2826.71" y1="420.27" x2="2927.6" y2="420.27" gradientTransform="matrix(1, 0, 0, 1, 0, 0)" xlink:href="#linear-gradient-9"/>
    <linearGradient id="linear-gradient-13" x1="4405" y1="446.95" x2="4353.61" y2="342.79" gradientTransform="translate(-1512.03)" xlink:href="#linear-gradient-9"/>
    <linearGradient id="linear-gradient-14" x1="2859.67" y1="413.94" x2="3099.18" y2="413.94" gradientTransform="matrix(1, 0, 0, 1, 0, 0)" xlink:href="#linear-gradient-9"/>
    <linearGradient id="linear-gradient-15" x1="1224.24" y1="521.71" x2="1450.76" y2="210.96" xlink:href="#linear-gradient-9"/>
    <linearGradient id="linear-gradient-16" x1="-1145.47" y1="668.27" x2="4665.31" y2="798.65" gradientUnits="userSpaceOnUse">
      <stop offset="0.01" stop-color="#53aa4b"/>
      <stop offset="0.17" stop-color="#4faa47"/>
      <stop offset="0.33" stop-color="#43ac3c"/>
      <stop offset="0.41" stop-color="#3aad34"/>
      <stop offset="0.58" stop-color="#3eaf35"/>
    </linearGradient>
    <linearGradient id="linear-gradient-17" x1="23.91" y1="566.62" x2="1198.13" y2="566.62" gradientUnits="userSpaceOnUse">
      <stop offset="0" stop-color="#2db24b"/>
      <stop offset="0.2" stop-color="#2dae4a"/>
      <stop offset="0.4" stop-color="#2ca248"/>
      <stop offset="0.56" stop-color="#2c9245"/>
      <stop offset="1" stop-color="#67bc45"/>
    </linearGradient>
    <linearGradient id="linear-gradient-18" x1="193.01" y1="880.34" x2="1024" y2="311.23" gradientUnits="userSpaceOnUse">
      <stop offset="0" stop-color="#76ccd2"/>
      <stop offset="0" stop-color="#6fc4c0"/>
      <stop offset="0" stop-color="#5db193"/>
      <stop offset="0" stop-color="#40914a"/>
      <stop offset="0" stop-color="#3d8e42"/>
      <stop offset="0" stop-color="#348740"/>
      <stop offset="0" stop-color="#20793c"/>
      <stop offset="0" stop-color="#147039"/>
      <stop offset="0" stop-color="#106d38"/>
      <stop offset="0.01" stop-color="#106d3e"/>
      <stop offset="0.02" stop-color="#0f6d49"/>
      <stop offset="0.05" stop-color="#0e6d50"/>
      <stop offset="0.12" stop-color="#0e6d52"/>
      <stop offset="0.32" stop-color="#106e52"/>
      <stop offset="0.39" stop-color="#177250"/>
      <stop offset="0.45" stop-color="#23794d"/>
      <stop offset="0.49" stop-color="#348249"/>
      <stop offset="0.52" stop-color="#4a8f44"/>
      <stop offset="0.56" stop-color="#659e3e"/>
      <stop offset="0.59" stop-color="#85b036"/>
      <stop offset="0.61" stop-color="#aac52d"/>
      <stop offset="0.63" stop-color="#d3dc24"/>
      <stop offset="0.64" stop-color="#d6de23"/>
      <stop offset="0.81" stop-color="#d6de23"/>
      <stop offset="0.84" stop-color="#d6de23"/>
      <stop offset="0.86" stop-color="#d7df27"/>
      <stop offset="0.88" stop-color="#d9e134"/>
      <stop offset="0.9" stop-color="#dde44a"/>
      <stop offset="0.93" stop-color="#e3e869"/>
      <stop offset="0.95" stop-color="#eaee90"/>
      <stop offset="0.97" stop-color="#f3f5c0"/>
      <stop offset="1" stop-color="#fefef7"/>
      <stop offset="1" stop-color="#fff"/>
    </linearGradient>
    <linearGradient id="linear-gradient-19" x1="-19.91" y1="539.5" x2="1061.44" y2="539.5" gradientUnits="userSpaceOnUse">
      <stop offset="0.01" stop-color="#30b34a"/>
      <stop offset="0.14" stop-color="#34b44a"/>
      <stop offset="0.27" stop-color="#40b549"/>
      <stop offset="0.4" stop-color="#55b847"/>
      <stop offset="0.43" stop-color="#5ab947"/>
      <stop offset="1" stop-color="#67bc45"/>
    </linearGradient>
    <linearGradient id="linear-gradient-20" x1="122.97" y1="807.22" x2="870.05" y2="295.57" xlink:href="#linear-gradient-18"/>
    <linearGradient id="linear-gradient-21" x1="-2.78" y1="746.33" x2="4811.04" y2="746.33" gradientUnits="userSpaceOnUse">
      <stop offset="0.39" stop-color="#4ece54"/>
      <stop offset="0.48" stop-color="#54d153"/>
      <stop offset="0.6" stop-color="#66db50"/>
      <stop offset="0.73" stop-color="#82ea4b"/>
    </linearGradient>
    <linearGradient id="linear-gradient-22" x1="2743.67" y1="558.34" x2="2739.17" y2="328.01" gradientTransform="matrix(-1, 0, 0, 1, 2887.27, 0)" gradientUnits="userSpaceOnUse">
      <stop offset="0" stop-color="#907d61"/>
      <stop offset="0.36" stop-color="#6d6b4d"/>
      <stop offset="0.58" stop-color="#5e6345"/>
    </linearGradient>
    <linearGradient id="linear-gradient-23" x1="2818.58" y1="376.27" x2="2687.82" y2="66.45" gradientTransform="matrix(-1, 0, 0, 1, 2887.27, 0)" gradientUnits="userSpaceOnUse">
      <stop offset="0.26" stop-color="#55b093"/>
      <stop offset="0.39" stop-color="#61c489"/>
      <stop offset="0.56" stop-color="#6ddb7d"/>
      <stop offset="0.68" stop-color="#72e379"/>
    </linearGradient>
    <linearGradient id="linear-gradient-24" x1="2642.56" y1="380.6" x2="2602.28" y2="235.9" xlink:href="#linear-gradient-23"/>
    <linearGradient id="linear-gradient-25" x1="2808.82" y1="420.59" x2="2747.2" y2="208.52" gradientTransform="matrix(-1, 0, 0, 1, 2887.27, 0)" gradientUnits="userSpaceOnUse">
      <stop offset="0.07" stop-color="#39a57e"/>
      <stop offset="0.67" stop-color="#72e379"/>
    </linearGradient>
    <linearGradient id="linear-gradient-26" x1="377.55" y1="566.12" x2="377.55" y2="534.43" gradientUnits="userSpaceOnUse">
      <stop offset="0" stop-color="#09170a"/>
      <stop offset="0.58" stop-color="#2d550c"/>
      <stop offset="1" stop-color="#16623e"/>
    </linearGradient>
    <linearGradient id="linear-gradient-27" x1="1319.4" y1="535.24" x2="1326.56" y2="535.24" gradientUnits="userSpaceOnUse">
      <stop offset="0" stop-color="#a5573f"/>
      <stop offset="0.07" stop-color="#a1715b"/>
      <stop offset="0.13" stop-color="#9e8672"/>
      <stop offset="0.63" stop-color="#918d7a"/>
      <stop offset="0.98" stop-color="#777c65"/>
    </linearGradient>
    <linearGradient id="linear-gradient-28" x1="1257.43" y1="555.51" x2="1431.73" y2="337.23" gradientUnits="userSpaceOnUse">
      <stop offset="0" stop-color="#398f97"/>
      <stop offset="0.27" stop-color="#23a49e"/>
      <stop offset="0.51" stop-color="#15b2a2"/>
      <stop offset="0.59" stop-color="#15ada4"/>
      <stop offset="0.69" stop-color="#17a0a9"/>
      <stop offset="0.79" stop-color="#1989b2"/>
      <stop offset="0.86" stop-color="#1b75ba"/>
    </linearGradient>
    <linearGradient id="Fading_Sky_2" data-name="Fading Sky 2" x1="1289.84" y1="492.83" x2="1355.44" y2="447.91" gradientUnits="userSpaceOnUse">
      <stop offset="0" stop-color="#2483c5"/>
      <stop offset="1" stop-color="#2483c5" stop-opacity="0"/>
    </linearGradient>
    <linearGradient id="linear-gradient-29" x1="194.5" y1="103.01" x2="290.6" y2="61.39" gradientUnits="userSpaceOnUse">
      <stop offset="0.2" stop-color="#96e4fd"/>
      <stop offset="0.47" stop-color="#b8edfe"/>
      <stop offset="0.69" stop-color="#cff4ff"/>
      <stop offset="0.84" stop-color="#d7f6ff"/>
    </linearGradient>
    <linearGradient id="linear-gradient-30" x1="110.7" y1="118.77" x2="237.07" y2="67.9" gradientUnits="userSpaceOnUse">
      <stop offset="0.2" stop-color="#91e2fd"/>
      <stop offset="0.39" stop-color="#95e3fd"/>
      <stop offset="0.57" stop-color="#a0e6fd"/>
      <stop offset="0.74" stop-color="#b3ecfe"/>
      <stop offset="0.91" stop-color="#cdf3ff"/>
      <stop offset="0.96" stop-color="#d7f6ff"/>
    </linearGradient>
  </defs>
  <g class="cls-2">
    <g id="Layer_1" data-name="Layer 1">
      <g class="cls-3">
        <g>
          <rect class="cls-4" x="-38.77" y="-20.16" width="4815.49" height="916.03"/>
          <g class="cls-5">
            <path class="cls-6" d="M703.31,89.34S704.45,77,718.87,68.58s26.57-13,39.1-3.24,9.87,31.78,7.21,34.37c-5.16,5-16.27,11.66-45.93,5.19C701.41,101,703.31,89.34,703.31,89.34Z"/>
            <path class="cls-7" d="M637.13,80.83s4-18.58,31.88-29.46S715.09,35.14,730.67,53s7.8,47.87-3.18,51.61-56.69,6.76-84.25-5.27C643.24,99.37,633.4,93.83,637.13,80.83Z"/>
            <path class="cls-7" d="M913.17,152.42s2.2-20.73,30-34.91,51.17-21.81,75.3-5.45,19,53.45,13.89,57.81c-9.93,8.47-31.34,19.61-88.46,8.73C909.52,172.05,913.17,152.42,913.17,152.42Z"/>
          </g>
          <g class="cls-8">
            <path class="cls-7" d="M2634.58,176.09s1.14-12.32,15.56-20.75,26.57-13,39.1-3.24,9.87,31.78,7.21,34.37c-5.16,5-16.27,11.66-45.93,5.19C2632.68,187.77,2634.58,176.09,2634.58,176.09Z"/>
            <path class="cls-7" d="M2568.4,167.59s4-18.58,31.88-29.46,46.08-16.23,61.66,1.66,7.8,47.86-3.18,51.61-56.69,6.76-84.25-5.27C2574.51,186.13,2564.68,180.59,2568.4,167.59Z"/>
            <path class="cls-9" d="M2265.06,237.54s1.14-12.32,15.56-20.75,26.57-13,39.1-3.24,9.87,31.77,7.21,34.37c-5.16,5-16.27,11.65-45.93,5.18C2263.16,249.21,2265.06,237.54,2265.06,237.54Z"/>
            <path class="cls-9" d="M2198.88,229s4-18.58,31.88-29.47,46.08-16.22,61.66,1.66,7.8,47.87-3.18,51.62-56.69,6.76-84.25-5.28C2205,247.57,2195.15,242,2198.88,229Z"/>
            <path class="cls-10" d="M1594.24,107s1.14-12.32,15.56-20.75,26.57-13,39.1-3.25,9.87,31.78,7.21,34.38c-5.16,5-16.27,11.65-45.93,5.18C1592.34,118.65,1594.24,107,1594.24,107Z"/>
            <path class="cls-10" d="M1528.06,98.48s4-18.58,31.88-29.47,46.08-16.23,61.66,1.66,7.8,47.87-3.18,51.62-56.69,6.76-84.25-5.28C1534.17,117,1524.34,111.48,1528.06,98.48Z"/>
            <path class="cls-7" d="M3030.44,184.18s2.2-20.73,30-34.91,51.18-21.81,75.3-5.45,19,53.45,13.89,57.81c-9.93,8.47-31.33,19.61-88.46,8.73C3026.79,203.81,3030.44,184.18,3030.44,184.18Z"/>
          </g>
          <g>
            <path class="cls-11" d="M2009.36,410.39a7,7,0,0,1-3.36,7c-3.15-.93-2.1-1.85-2.1-1.85s5.08-4.52,3.59-5S2009.36,410.39,2009.36,410.39Z"/>
            <path class="cls-7" d="M1052.94,328.76s-42.31-12.75-67.84,0c-21.68,12.44.58,17.75,15.18,17.25,22.53-.18,50.13-1.55,50.13-1.55S1081,340.63,1052.94,328.76Z"/>
            <path class="cls-7" d="M-78.14,526.6q65.58-223.29,103.47-217,16.55,2.73,27.8,49.17C59,345.21,72.71,336,88.25,335.1c22.48-1.26,35.43,15.76,36,16.53,0-3,.24-22.49,16.8-34.95,16.4-12.34,42-12.65,62.07.26,5.43-22.92,25.41-40.15,49.13-42.95,28-3.3,56.19,14.14,64,41.5,26.19-24.9,65.74-27.84,89.84-10.63,25.9,18.5,22.25,51.95,22,53.88,18.55-20.88,48.83-29.54,76.29-21.92,25,6.95,44,26.4,49.13,50.35,15.28-12.4,36.47-13.63,50-4.3s13.94,25.26,14,27.41a50.05,50.05,0,0,1,28.11,4.93,43.8,43.8,0,0,1,21.65,25.05c-1.25-39.89,34.93-40.39,55.62-27.95-14.87-26.65,38.79-94.19,90.51-30.8,1.81-2.8,12.61-19,32.5-21.9,21.91-3.22,46.15,10.9,55.42,35.26,16.5-14,35-23.79,53-20.14,19,3.86,23,19.77,45.38,28.85,25.9,10.49,34.88-8,61.72,0,25.23,7.5,26.46,25.09,54,35.06,18,6.5,35,5.34,46.63,3.31l34.37,16.16A119.44,119.44,0,0,0,1208,493.17c17.55,34,43.37,42,42.5,51.06-1.13,11.64-45.78,22.87-221.46,24.27C772.09,550.35,515.11,538,258.16,540.76L-8,543.59Z"/>
            <path class="cls-7" d="M3708.21,556.07c3.77-22.68,8.18-67-10.37-101.23a98.73,98.73,0,0,0-7.34-11.51c-2.67-3.64-34.74-46.18-62.47-34.91-17.31,7-24,31.4-25.59,38-4.24-11.14-15.3-19.26-28.26-20.74-18.74-2.14-30.39,10.86-30.9,11.45.15-2.37.86-18.05-12.4-28.89s-34.52-12.26-51.94-2.92c-3.46-18.66-19.36-33.49-39.07-36.93-23.28-4.07-47.68,8.51-55.51,30.06-20.74-21.3-53.68-25.65-74.66-13.06-22.55,13.53-21.08,40.55-21,42.11-14.52-17.69-39.44-26.17-62.78-21.44-21.28,4.32-38,19-43.49,37.92-12.2-10.73-29.87-12.78-41.67-6s-12.86,19.56-13,21.28a43.57,43.57,0,0,0-23.74,2.54,35.46,35.46,0,0,0-19.31,19c2.94-31.94-27.31-34.16-45.21-25.22,13.71-20.64-28-77.52-74.26-29.28-1.38-2.34-9.65-15.86-26.15-19.21-18.18-3.69-39.13,6.42-48,25.49a91.08,91.08,0,0,0-43.4-18.83c-4-.58-42.75-5.72-58.88,13.61-4.57,5.48-6.25,11.53-7.48,16.25-9.8,37.61-5.85,90.16-3.57,113.25q1.89,19.49,3.79,39,294.26-17.24,588.62-26,136.29-4.08,272.59-6.35Z"/>
            <path class="cls-7" d="M3162.39,613.84c3-21.94,9.5-132.82-23.25-177.6a129,129,0,0,0-10.92-12.76c-3.94-4-51-50.8-87.93-35.88-23,9.31-30.12,37.85-31.8,45.61-6.68-12.55-22.39-21.12-40.17-21.93-25.71-1.16-40.53,14.62-41.18,15.34,0-2.75-.28-20.87-19.22-32.43-18.76-11.44-48-11.73-71,.24-6.21-21.26-29.08-37.25-56.21-39.84-32.05-3.07-64.28,13.12-73.21,38.5-30-23.1-75.21-25.83-102.77-9.86-29.63,17.16-25.45,48.19-25.17,50-21.21-19.37-55.86-27.41-87.27-20.33-28.64,6.44-50.29,24.49-56.2,46.71-17.48-11.51-41.72-12.64-57.24-4s-16,23.43-16,25.42c-4.75-.44-18.19-1.21-32.15,4.59-18,7.49-23.65,20.43-24.77,23.23,1.43-37-40-37.47-63.62-25.92,17-24.74-44.38-87.39-103.54-28.58A56.86,56.86,0,0,0,2101.61,434c-25.06-3-52.79,10.11-63.4,32.72a138.23,138.23,0,0,0-60.64-18.69c-5.53-.39-58.71-3.62-79.13,19.78-5.78,6.63-7.58,13.72-8.88,19.24-10.32,44-.7,104.31,4.26,130.76l-11.07,18.39c283.28-20.78,630.06-3.45,940.54-4.48,103-.34,175.22-.56,275.12,1.5C3125.16,628,3135.63,619.09,3162.39,613.84Z"/>
          </g>
          <path class="cls-12" d="M214.08,495.33q1283.61,82.6,2565.17,57.35c254.21-5,1743.37-2.8,1997.47-14.18-12.51,67.57,12.5,96.66,0,164.23L199.88,745.19Z"/>
          <path class="cls-13" d="M13.25,647c572.16,5.1,4590.58-1.11,4954,43.31S4520,890.8,4520,890.8L-235.44,859.74S-558.9,641.92,13.25,647Z"/>
          <g>
            <path class="cls-14" d="M1652,709.72c-13-15.38-16.4-34.57-8.69-46.83,8.18-13,26.11-13.8,35.54-14.22,21.46-.94,37.43,8.92,43.71,13.3,32.56-2.41,41.58,22.55,29,28.19,0,0,27.06-11,52.17,4.29,25.11-13.42,84.74,5.91,100,15.84l-232.33.54Z"/>
            <path class="cls-14" d="M1681.15,710.3c12.77-15.68,16.1-35.23,8.53-47.73-8-13.27-25.63-14.07-34.89-14.49-21.07-1-36.75,9.08-42.91,13.55-32-2.46-40.83,23-28.5,28.73,0,0-26.58-11.22-51.23,4.37-24.65-13.67-83.19,6-98.21,16.14l228.09.55Z"/>
          </g>
          <path class="cls-14" d="M267.15,642.06s22.33,3.13,10.78,15.35c62.36-13.47,98.54-1.26,95.46,15,63.89-2.82,81.6,26.31,57,32.89,0,0,53.12-12.84,102.38,5C582,694.68,699,717.24,729,728.83l-455.88.62Z"/>
          <path class="cls-14" d="M266.89,727.35c18.87-22.31,23.78-50.14,12.61-67.91-11.87-18.89-37.87-20-51.55-20.63-31.12-1.37-54.29,12.93-63.39,19.29-47.23-3.51-60.31,32.7-42.1,40.88,0,0-39.26-16-75.68,6.22-36.41-19.46-122.89,8.57-145.08,23l337,.78Z"/>
          <g>
            <path class="cls-15" d="M731.2,724.05s10.16-9,29.75-11.23-21-11.83-35.55,11.23C725.4,724.05,718.87,734.29,731.2,724.05Z"/>
            <path class="cls-15" d="M703.63,725.33s29.75-28.82,47.16-36.5-16.69-8.33-39.9,15.69C710.89,704.52,699.28,718.92,703.63,725.33Z"/>
            <path class="cls-15" d="M694.92,725.33s19.77-46.75,28.75-52.51-14.24-9-28.75,29.13C694.92,702,689.12,722.13,694.92,725.33Z"/>
            <path class="cls-15" d="M684.4,725.33S692,682.42,699.28,676,671.71,683.06,684.4,725.33Z"/>
            <path class="cls-15" d="M680.05,725.33s.36-35.75-15.24-41.25S673.88,707.4,680.05,725.33Z"/>
            <path class="cls-15" d="M675,725.33s-9.79-41-33.73-41.93S660.1,698.43,675,725.33Z"/>
            <path class="cls-15" d="M672.92,725.33S660.1,708.68,638.33,710,667.6,720.21,672.92,725.33Z"/>
          </g>
          <path class="cls-14" d="M158.93,851.88S169.78,771,213.2,761.22C213.2,761.22,197.62,822.48,158.93,851.88Z"/>
          <path class="cls-14" d="M331.13,890.78s19.16-49.21,61.27-68.24C392.4,822.54,396.69,892.19,331.13,890.78Z"/>
          <path class="cls-14" d="M176.12,869.11s-60.9-36.24-63-61.75S147.64,791.28,176.12,869.11Z"/>
          <path class="cls-16" d="M1620.84,900.12c1-1.68,9.09-14.51,23.68-15.58,10-.73,17.21,4.42,19.53,6.23.07-1,2-23.34,16.74-31.17,14.56-7.72,36.56,1.35,46,24.74-8.39-80.65,60.23-34.55,69.86-12.5,10.89-74.36,62.63-24.71,59.84,3.34,3.51-14.45,14.12-24.51,25.1-24.93,14.59-.56,29.39,15.92,27.89,37.4,13.49-11.27,20.83-11.68,25.11-9.35,7.87,4.29,12.61,21.82,12.61,21.82H1620.84Z"/>
          <path class="cls-17" d="M-77.47,901.13c1.25-1.94,11.14-16.77,29-18a36.75,36.75,0,0,1,23.92,7.2c.08-1.12,2.38-27,20.5-36,17.83-8.92,44.78,1.56,56.38,28.6-10.27-93.21,73.77-39.93,85.57-14.45,13.34-85.93,76.71-28.56,73.29,3.86,4.31-16.7,17.31-28.33,30.75-28.81,17.87-.65,36,18.4,34.17,43.22,16.52-13,25.51-13.5,30.75-10.8,9.64,5,15.44,25.21,15.44,25.21H-77.47Z"/>
          <path class="cls-18" d="M1854.9,911.7c1.25-1.94,11.13-16.77,29-18a36.65,36.65,0,0,1,23.91,7.21c.09-1.13,2.39-27,20.5-36,17.84-8.92,44.79,1.56,56.39,28.6-10.28-93.21,73.77-39.93,85.56-14.45,13.35-85.93,76.72-28.56,73.3,3.86,4.31-16.7,17.3-28.33,30.75-28.81,17.87-.65,36,18.4,34.16,43.22,16.52-13,25.52-13.5,30.75-10.8,9.64,5,15.45,25.21,15.45,25.21H1854.9Z"/>
          <g>
            <line class="cls-19" x1="1187.74" y1="541.13" x2="1291.37" y2="541.13"/>
            <line class="cls-19" x1="1186.74" y1="543.15" x2="1290.37" y2="543.15"/>
            <line class="cls-19" x1="1185.8" y1="545.17" x2="1289.37" y2="545.17"/>
            <line class="cls-19" x1="1185.74" y1="547.19" x2="1289.37" y2="547.19"/>
            <line class="cls-19" x1="1184.74" y1="549.21" x2="1288.37" y2="549.21"/>
            <line class="cls-19" x1="1183.74" y1="551.23" x2="1287.37" y2="551.23"/>
            <line class="cls-19" x1="1183.74" y1="553.25" x2="1287.37" y2="553.25"/>
            <line class="cls-19" x1="1182.74" y1="555.27" x2="1286.37" y2="555.27"/>
          </g>
          <ellipse class="cls-20" cx="297.3" cy="730.34" rx="39.5" ry="8.08"/>
          <line class="cls-1" x1="1122.67" y1="571.07" x2="1340.87" y2="561.61"/>
          <ellipse class="cls-21" cx="420.3" cy="773.77" rx="18.5" ry="5.05"/>
          <ellipse class="cls-21" cx="480.3" cy="676.81" rx="16.5" ry="4.04"/>
          <path class="cls-22" d="M1318.8,668.92s13,1.83,2,7.89l6-2h0s6.07-2.65,6-5.87S1318.8,668.92,1318.8,668.92Z"/>
          <g>
            <path class="cls-23" d="M3028.52,454.8s-14.44,9.36-14.17,23c.05,2.39-.14,9.69,4.74,12.88,3.4,2.23,7.51,1.34,8.13,1.2,7.66-1.76,12.23-11.15,16.7-20.34,3.66-7.52,5.34-13.39,9.68-14a4,4,0,0,1,3.25.65c3.23,3.07-2.35,15.7-8.62,24.63-4.92,7-9.19,10.2-8.08,14.45.86,3.31,4.38,5,4.71,5.15,2.82,1.29,6,.87,10.37-.86a50.84,50.84,0,0,0,16.84-11,234.72,234.72,0,0,0,25.18-31.31l3.77,3.75-7,11.78c.88-1.47,5-7.89,12.92-9.64a19.14,19.14,0,0,1,8.08,0,38.05,38.05,0,0,0-15.08,10.17c-5.45,6.19-5.71,11.05-11.31,19.81a67.52,67.52,0,0,1-12.93,15c-13,10.77-30.54,10.49-39.32,9.64-3.67.44-8.57,1.68-12.39,5.35-1.64,1.57-7.77,8.14-3.84,34.31,0,0,2.2,14.61,13.5,47.3h0l-60.33.28c-15.75,4-21.52,1.18-24-1.61-10.82-12.16,22.57-43.57,12.73-81.35-1.08-4.14-5.12-19.67-16.7-24.09-6.74-2.57-9.83,1-19.39,0-18.61-1.93-30.76-17.88-31.78-19.27-9.47-12.8-12.2-31.23-12.2-31.23l8,1.16c.37,3.23,2.61,20.27,15.48,26.86,1.52.78,8.56,4.37,12.87,1.45,6.06-4.12,2.34-18.08,1.66-19.39-2.59-5-8.64-14.54-8.64-14.54l20,2.5c-.94,12.07,3.33,22.68,11.48,27.12,1.09.59,7.31,4,12.25,1.45,6-3.06,8.52-14,3.86-26.61l7.35-2.67s4.5,42.33,11.24,46.68c11.67,7.53,20.32-18.11,17.29-44h8.65s-5.62,28.32,1.3,18.2c2.47-3.62,6.95-8,13.83-12.78"/>
            <path class="cls-24" d="M2951,394s-14.64-7.28-37.64-7.17-48.76,16.18-41.65,26.42,11.45,16.11,43.32,16S2983.18,413.52,2951,394Z"/>
            <path class="cls-25" d="M2956.74,341.77c-61.37,18.28-67.46,40.14-66.21,50.16,0,0-.13,17.14,63.23,34.45h0s37.15,14.17,105.78,6.74c20.82-2.26,55.18-11.21,59.93-31.23,3.5-14.73-10.8-29.73-16-35.15C3061.38,322.53,2977.39,337.59,2956.74,341.77Z"/>
            <path class="cls-26" d="M2958.67,342.18c-61.37,18.24-67.47,40-66.23,50,0,0-.13,17.08,63.21,34.3h0s37.15,14.09,105.78,6.66c20.82-2.26,55.18-11.19,59.94-31.13,3.5-14.67-10.78-29.6-15.95-35C3063.32,323,2979.32,338,2958.67,342.18Z"/>
            <path class="cls-27" d="M3157.57,448s3.2-13.61-11.51-25.44c-8.29-6.68-34-24.73-61.68-6.2-31.76,21.28-66.1,45.05-18,47.06S3152.55,466,3157.57,448Z"/>
            <path class="cls-28" d="M3157.57,449s3.2-13.62-11.51-25.45c-8.29-6.68-34-24.73-61.68-6.19-31.76,21.27-66.1,45-18,47.06S3152.55,466.93,3157.57,449Z"/>
            <path class="cls-29" d="M2839.11,444.52s16.22,4.36,88.49,4.9l-.12-57.51c-1.7-.54-14.08-3.35-45.46,6.28-38.11,11.7-71.51,36.69-46.84,45.18"/>
            <path class="cls-30" d="M2839.33,445.57s16.22,4.36,88.49,4.9L2927.7,393c-1.7-.54-14.09-3.35-45.46,6.28-38.12,11.7-71.52,36.69-46.84,45.18"/>
            <path class="cls-31" d="M3040.42,461.39c-6.84.95-8,.59-34.62.56-5.66,0-29.75,0-78.18-1.52-20.36-.64-51-5.26-59.4-9.08-2.78-1.28-8.34-4.34-8.54-12.72-.45-19.11,16.37-30.11,21.67-35.46,5-5,17.47-11,20.79-12.37,40.45-16.25,73.34-21.19,73.34-21.19,7.87-1.79,69.88-15,105.24,22,3.25,3.4,23.24,24.08,17.39,42C3091.37,454.29,3054.25,459.46,3040.42,461.39Z"/>
            <path class="cls-32" d="M3041.52,463.19c-6.84.95-8,.59-34.61.56-5.67,0-29.75,0-78.18-1.52-20.37-.64-51.05-5.26-59.4-9.08-2.79-1.28-8.35-4.34-8.55-12.72-.45-19.11,16.37-30.1,21.68-35.46,4.94-5,17.46-11,20.78-12.37,40.46-16.24,73.34-21.18,73.34-21.18,7.87-1.8,69.89-15.05,105.24,21.95,3.25,3.4,23.25,24.08,17.39,42C3092.47,456.1,3055.35,461.26,3041.52,463.19Z"/>
          </g>
          <path class="cls-33" d="M-36.54,492.73c-1.05-18.21,1.61-42.66,23.37-56.35,40.62-25.57,105.68,12.81,211.51,29.47,196.28,30.9,268.77-54.47,456.92-17.34,33.71,6.66,68.18,16.66,119.2,13,65.52-4.69,84.3-26.61,156.59-31.21,29.28-1.86,68.09-4.33,109.85,8.67,71.91,22.39,79.19,69.11,145.55,78.19,29.34,4,52.09-2.58,68.94-3.63C1341.9,508.15,1727,548,1770,567s118.64,58.7,118.64,58.7H41.71Q2.59,559.2-36.54,492.73Z"/>
          <path class="cls-34" d="M1525.93,589.81c-1-18.21,1.61-42.65,23.37-56.35,40.62-25.56,105.68,12.82,211.52,29.48,196.27,30.89,268.76-54.48,456.91-17.34,33.71,6.65,68.18,16.66,119.2,13,65.52-4.69,84.3-26.6,156.59-31.2,29.28-1.87,68.09-4.34,109.85,8.66,71.91,22.39,79.19,69.12,145.55,78.19,29.34,4,52.09-2.58,68.94-3.63,86.51-5.38,583.34-42.4,611-39.19,0,0,20,2.33,40.18,3.38l.22,0c.1,0-18.11,147.95-18.11,147.95H1604.18Q1565.06,656.3,1525.93,589.81Z"/>
          <path class="cls-35" d="M-891.13,636.52s885.77-277,1416.67-98.78c354.08,123.18,4171.78,61.45,4249.36,8.75v91.88L-440.52,683.2l-63.11.18c-24.26,3.35-74.8,6.9-130.85-16.4-18.61-7.74-115.47,50.64-154.52,39C-855,686.35-1501.27,1248.28-891.13,636.52Z"/>
          <path class="cls-36" d="M23.91,543.07s850.11-127,1158.52,0L1198.13,645,33.33,646.6Z"/>
          <path class="cls-37" d="M3819.59,602.22V802.08H1814.67V630.44l.2,0a31.71,31.71,0,0,1,5.79.86,7.69,7.69,0,0,1,4,2l.25,0a3,3,0,0,1,.65-3.12,9.49,9.49,0,0,1,4.93-2.35,36.94,36.94,0,0,1,10-.22l.12-.13a15.84,15.84,0,0,1-6.17-2.24c-.67-.46-1.16-1-1.12-1.52.11-1.09,2.43-1.95,5-2.25a45.25,45.25,0,0,1,7.81,0l.31-.4c-3.15-.66-5.18-2.16-4.77-3.61.25-.86,1.27-1.65,2.41-2.39a32.68,32.68,0,0,1,5.65-2.8l-.1-.09-10.06,1.95a49.7,49.7,0,0,1-9.71,1.2c-3.41,0-7.06-.84-7.8-2.2-.55-1,.59-2.07,2.36-2.79a32.32,32.32,0,0,1,6.35-1.6c6-1.09,12.13-2,18.42-2.7l-.2-.31a22.5,22.5,0,0,1-6.26-.42c-3.44-.67-6.62-1.91-6.87-3.47-.13-.78.5-1.56,1.39-2.26a21.17,21.17,0,0,1,9-3.41l.45-.32a45.41,45.41,0,0,1-9.71-1.52c-2.81-.85-5-2.15-5.19-3.59-.36-2.08,3.53-4,8.41-4.64a33.74,33.74,0,0,1,14.17,1.45c-.35-2.15,3.78-4,8.14-5.17a33.94,33.94,0,0,1,6.6-1.23,18.59,18.59,0,0,1,6.89.63c2.74.94,3.14,2.61,2.69,4.07a6.85,6.85,0,0,1-1.1,2.05l1,.23a25.4,25.4,0,0,1,7.39-2.83,22.25,22.25,0,0,1,9.72.08c1.65.47,2.8,1.23,3.1,2s-.22,1.65-1.4,2.29l.74.23,2.71-.81a25.48,25.48,0,0,1,6.22-1.24,10.91,10.91,0,0,1,4.55.66c-.57-3.1,2.28-6.3,7.72-8.47a20.82,20.82,0,0,1,8.64-1.55c3.92.18,6.76,1.75,7.41,3.35s-.41,3.22-1.52,4.77a7.34,7.34,0,0,1-1.36,1.53l.29.06,6.08-1.86a17.4,17.4,0,0,1,3.08-.73,19.18,19.18,0,0,1,8.61,1.29c3.17,1.16,6.1,2.59,6.65,4.33,2.31-2.2,8.62-3.55,14.34-3.07l.29-.15c-3.27-1.11-5.77-2.68-5.77-4.41s2.46-3.27,5.89-4.18a40.63,40.63,0,0,1,11.77-1H1985c-2-1.26-3.81-2.63-4.37-4.13s.25-3.14,2.85-4.2a21.53,21.53,0,0,1,5.88-1.24A35,35,0,0,1,2003,570.1c3.38,1.16,5.23,3.06,4.46,4.81a27.7,27.7,0,0,1,8.63-3.52,37.53,37.53,0,0,1,9.81-1.11c3.43.1,6.87.86,8.45,2.12s1.11,2.79.16,4.16a16.88,16.88,0,0,1-5.21,4.55l.35.1a39.1,39.1,0,0,1,4.73-1.27,18.21,18.21,0,0,1,5.52-.18,12.35,12.35,0,0,1,5.45,2.23,9.79,9.79,0,0,1,3.09,2.65,3.72,3.72,0,0,1,0,2.91,2.14,2.14,0,0,1-1,1.46,48.2,48.2,0,0,1,16.82-3.18l.13,0a4.51,4.51,0,0,1-2.11-2.54c-.16-1,.55-2,2.26-2.72a18.85,18.85,0,0,1,6.51-1c2.38,0,4.74.19,7.07.38a2.32,2.32,0,0,0,.79,0,.64.64,0,0,0,.4-.26,10.3,10.3,0,0,1,4.19-3.49c2.2-.94,6.2-1.34,8.55-.45a5.06,5.06,0,0,1,1.7,1.06,8.2,8.2,0,0,1,1.91,2.38,7.36,7.36,0,0,1,3.16-2.74,20.34,20.34,0,0,1,8.65-2c3.42-.08,7,.79,8,2.14a1.36,1.36,0,0,1,.2,1.21l.71-.08c5-.93,11.51,0,14,2a24.52,24.52,0,0,1,11.83-4.62c5.18-.69,11.67,0,14.22,2a6.05,6.05,0,0,1,.87-2.82c1.63-2.46,6.57-4.47,12.46-5.3a54.43,54.43,0,0,1,18.09.65c4.36.91,8.36,2.65,7.93,4.65a4.64,4.64,0,0,1-2,2.22,17.29,17.29,0,0,1-6.52,3l.05,0a35.52,35.52,0,0,1,9.22.08c2.89.48,5.22,1.68,5,3a2.37,2.37,0,0,1-.63,1.06,9,9,0,0,1-3.38,2.3,16.22,16.22,0,0,1-4.92,1.11l3.67.32a37.25,37.25,0,0,1,6.09.85c1.81.47,3.23,1.31,3,2.19-.1.46-.61.88-1.25,1.25-2.07,1.19-5.51,1.89-9,2.13a85.1,85.1,0,0,1-10.59-.09l0,.13a47.26,47.26,0,0,1,6.33,1.13c1.75.44,3.44,1,4,1.84s.12,1.45-.67,2.1c-2,1.61-6.19,2.54-10.2,3.28a38,38,0,0,1-6.44.77,39.9,39.9,0,0,1-7.46-.83l-.34.33a13.23,13.23,0,0,1,4.39,1.58,14.31,14.31,0,0,1,3,1.87c.67.64,1,1.37.52,2l1.47.2c1.25-2.08,6.69-3.58,11.87-3.29s9.38,2.36,9.19,4.51c1.57-.81,4.38-1,6.88-.94.49,0,1,0,1.45.07-7.45-3.37-10.39-8.18.18-11.5,14.88-4.66,29,1.17,33.17,7,3.35-2.43,11.86-3.8,18.27-2.64.6-2.94,8.5-4.63,15-3.74-5.67-3.45-10.84-8.69-3.89-12.51,5.47-3,17.11-2.33,23.07,0,7,2.74,8.33,7.06,9.27,10.81,3.33-2.41,9.67-4.29,16.71-4-4.66-2.92-5.31-6.54.54-9.28,6.18-2.9,17.07-3.89,22.67-.18,1.72-3.26,7.86-6,16.37-6.09,17.92,0,21.89,9.35,18.14,14.89,13.26-3.79,19.07,3.49,18.91,7.73,2.66-1.3,6.78-3.36,11.5-2.87-1.88-4.77-.4-9.51,12.43-11.33,13-1.86,19.09,3.31,16.17,7.9,8.68-3.63,22.35-4,27.33.55.73-.28,1.53-.56,2.39-.81,13.69-4,23.2,2.25,31.54,6.16-1.18-3.32,1.57-9.1,12.91-9.8s16,4.87,19.41,9a19.5,19.5,0,0,1,21.78.75,20.2,20.2,0,0,1,12.77-9.53c7.82-1.93,19.54-2.57,28.54-2.3-6.39-2.14-10.69-7.76-5.6-10.17s14.34-1.39,24.11,2.2c-1.83-4.23,1.3-11.94,17.34-11.56s15.5,11,11.48,15.51c.54-.16,13.47-3.94,24.46-.1-1.48-5-2.57-12.09,12.59-15.42s25.3,8.26,25.3,8.26c8.58-4.76,21.66-13.78,37.61-11.19s13.48,13.94,1.18,21.33c6.4-1,16.94.57,13.09,5.95,4.05-2.67,10.34-5.25,20-3.31,8.34,1.67,6.4,7.68,6.4,7.68,10.53-8.34,25.39-16.09,39.17-13.34,13.41,2.67,5.23,11.83-6.09,20.76.52-.11,12-2.57,17.71-.52s-.79,5.46-4.43,8-4.92,5.06,0,5.46c3.93.33,15.19-2.23,22.94-2.37-2.58-2.75-1.72-5.74,5.56-8,14.87-4.66,29,1.17,33.17,7,3.35-2.43,11.84-3.8,18.26-2.63.6-2.94,8.49-4.64,15-3.74-5.68-3.45-10.83-8.69-3.89-12.52,5.48-3,17.12-2.33,23.07,0,7,2.73,8.34,7,9.28,10.81,3.33-2.42,9.66-4.3,16.7-4-4.65-2.93-5.31-6.55.54-9.29,6.18-2.89,17.08-3.88,22.67-.18,1.73-3.26,7.87-6,16.36-6.09,17.93,0,21.89,9.35,18.16,14.89,13.26-3.79,19.07,3.5,18.9,7.73,2.66-1.3,6.79-3.36,11.5-2.87-1.78-4.53-.53-9,10.6-11-.71-2.66.43-5.4,3.88-7.79,3.22-2.23,9.08-3.9,15.58-3.44,7.32.52,11.68,3.93,12.84,6.7a26.78,26.78,0,0,1,8.73-2.48c-6.78-3.39,2.83-7.85,10.75-9.05-13.45-2.43-25.19-10-10.37-14.68s29,1.17,33.17,7c3.35-2.43,11.86-3.8,18.27-2.63.6-2.94,8.5-4.64,15-3.74-5.67-3.45-10.82-8.69-3.89-12.52,5.47-3,17.11-2.33,23.07,0,7,2.73,8.33,7,9.27,10.81,3.33-2.42,9.67-4.3,16.72-4-4.67-2.93-5.32-6.54.53-9.29,6.18-2.89,17.07-3.88,22.67-.18,1.72-3.26,7.86-6,16.37-6.09,17.92,0,21.89,9.35,18.14,14.89,13.26-3.79,19.07,3.5,18.91,7.73,2.66-1.3,6.78-3.36,11.5-2.87-1.88-4.77-.4-9.51,12.44-11.33,13-1.86,19.08,3.32,16.16,7.91,9.65-4,25.46-4.11,28.66,2.26,3,5.92-4.84,12.64-14.84,16.76a87.08,87.08,0,0,1,28.73,3.68c-.51-1.5-1.12-3.38,1.62-4.57,3.12-1.36,8.81-1.3,12.81-.87,6.3.68,9.52,2.51,11.54,4.84.7-.08,1.4-.14,2.08-.17a39.72,39.72,0,0,1,19.71-4.85c6,0,11.41.93,14.46,2.8a26.68,26.68,0,0,1,3-.34c11.34-.7,16,4.87,19.43,9.05a19.49,19.49,0,0,1,21.76.74,20.25,20.25,0,0,1,12.78-9.52c7.82-1.93,19.55-2.57,28.55-2.3-6.39-2.15-10.69-7.77-5.62-10.17s14.35-1.39,24.13,2.19c-1.83-4.22,1.3-11.93,17.33-11.56s15.51,11,11.49,15.52c.54-.16,13.47-3.94,24.44-.11-1.47-5-2.55-12.09,12.61-15.42s25.3,8.27,25.3,8.27c8.56-4.77,21.65-13.78,37.6-11.19s13.49,13.94,1.18,21.34c6.41-1,16.93.56,13.1,5.94,4-2.67,10.34-5.26,20-3.32,8.34,1.68,6.39,7.68,6.39,7.68,10.54-8.32,25.4-16.09,39.19-13.34,13.39,2.67,5.21,11.84-6.09,20.77.51-.11,12-2.57,17.7-.52s-.78,5.46-4.43,8-4.91,5.05,0,5.45,21.36-3.72,28-1.94c6,1.63,7.68,4.4,7.55,7.71a14.32,14.32,0,0,1,3.61-.6c1.46-.59,2.92-1.14,4.4-1.59a1.16,1.16,0,0,1,.05-.45c.38-1.18,2.71-2.21,5.55-2.45a23.31,23.31,0,0,1,4.5.11l.48-.41a15.68,15.68,0,0,1-3.21-.89c-1.56-.66-2.33-1.74-1.14-2.53C3812.6,601.72,3816.46,601.87,3819.59,602.22Z"/>
          <path class="cls-38" d="M-19.91,453.31s330,51.95,434.72,53.52,542.85,29.26,609.36,43,23.71,75.9,23.71,75.9H-.95Z"/>
          <polygon class="cls-39" points="-2.78 584.65 4811.04 626.15 4770.91 908 -2.78 908 -2.78 584.65"/>
          <g>
            <path class="cls-40" d="M39,543.3c-.19-.5,1.26-.93,2.59-2.84a22.05,22.05,0,0,0,2.73-4.39c1.17-4.59,4.76-10.11,6.25-12.16,4.75-6.51,7-16.27,10.71-32.47a243.41,243.41,0,0,0,4.69-27.83c.26-16.16-1.94-28.34-6.49-35.36a192.39,192.39,0,0,1-13-24s-26.69,1.22-29,0-8.77-7-7.63-22l-.38-3.61,6.86,1.94s2.11,13.43,10.9,14.47c10.48,1.46,22.46-5,20.7-14.47h7.62S53.25,408.19,64.77,414c8.59,2.29,13.67-1.33,13.28-17.49l-.39-16.15,13.67,0s-.78,17.17,0,18.21,6.84,11.66,13.28-10.2c5.47-15.41,2.35-8,2.35-8l7.42.17s-3.32,17-14.26,27.59c-7.23,10.2-7.42,27.28-2,33.31,5.86,6,15.82,9.37,23.43-26.44,5.08-23.73,6.45-34.46,6.45-34.46l10.55-.12s-4.3,28.34-3.52,33.33c1,5.62,1.37,22.91,24.41,15.62,55.27-15.95-8.3-39-.39-52.26,2.26-3.77,37.82,37.5,41.15,27.39,5.22-15.81,8.07-24.89,8.07-24.89l8.59-.23s.4,9.31-1.36,11.8c2.75.2,25.64-1.75,35.8-6.78,9.08-4.48,21-11,21.91-13.45,2.3-.09,9.31.1,11.61,0-1.79,4.59-4.75,6.42-6.93,8.1-8.42,6.5-26.36,15.08-57.1,19.37a62.41,62.41,0,0,0-7.28,1.08c0,.06-.12.95-.12.95s-1.21,23.3-28.75,34.54c-24.61,9.79-35.35,14.78-41.6,18.74s-10.55,8.12-9.57,21.65a112.92,112.92,0,0,1-1.76,32.38,109.86,109.86,0,0,1-13.48,34.87c-21.14.71-34.72.78-43.43.69-17.46-.17-27.4-1.08-32.63.21C42.19,543.59,39.23,544,39,543.3Z"/>
            <path class="cls-41" d="M62.75,484.4c5.41,2.32,15.08,6.49,20.13,11.66,18.7,19.1,6,44.21,4.53,46.94l-49.34.67a35,35,0,0,0,7.42-11C52.65,516.59,61.37,497.14,62.75,484.4Z"/>
            <path class="cls-42" d="M123.19,408.51s-9.15,36.1-16.31,35.84C114.29,448,128.14,438,123.19,408.51Z"/>
            <path class="cls-43" d="M260.45,300.06c-2.12-15.57-7.71-39.08-24.53-58.28C190.47,189.9,103.44,214,75.6,221.79c-68.73,19.13-113.28,65-135.1,91.68L-70.32,322A887.57,887.57,0,0,0,102.4,336.66a888,888,0,0,0,150.29-14.88Z"/>
            <path class="cls-44" d="M259.84,299.19c-2.1-15-7.63-37.62-24.28-56.11-45-49.93-131.09-26.69-158.64-19.24C8.91,242.26-35.17,286.4-56.76,312.1l-10.71,8.24a901.9,901.9,0,0,0,170.91,14.08A901.48,901.48,0,0,0,252.16,320.1Z"/>
            <path class="cls-43" d="M246.7,371c1.9,0,56.92-3.89,56.92-3.89s34.15-7.14,14.54-24.67a32.82,32.82,0,0,1-12.39-10.63c-3.91-5.74-2.86-8.55-5.36-13.84-7.89-16.74-34.36-22.43-34.35-22.43h0s-35.9-7.39-62.61,7.1c-3,1.62-4.44,2.49-5.58,4C185.52,323.05,223.94,371,223.94,371Z"/>
            <path class="cls-45" d="M219.16,373.06C221,373.06,323,371,323,371s18.49-2.81,8.17-20.1c-6-8.64-10.39-15.27-14.05-20.86-3.78-5.76-13.94-14.5-20.76-19.34-16.76-13.4-48.94-14.27-48.94-14.27h0s-34.67-7.41-60.46,7.13c-2.88,1.62-4.3,2.49-5.39,4-11.93,16.45,25.17,64.56,25.17,64.56Z"/>
            <path class="cls-43" d="M243.76,326.74s-31.31-26.23-64.14-36.52c-35.85-15.43-83.33-49.89-140.9-33.94C-5.72,271.19-39,291.76-58.74,329.82c-9.6,22.12-11.12,48.87,62.11,45.26l204,.33S287.19,369.43,243.76,326.74Z"/>
            <path class="cls-46" d="M246.75,332.4s-31.68-26.67-64.88-37.12c-36.28-15.69-84.3-50.72-142.54-34.51-45,15.16-78.67,36.07-98.6,74.77-9.7,22.48-11.24,49.67,62.84,46l206.4.33S290.68,375.8,246.75,332.4Z"/>
            <path class="cls-42" d="M9.46,381.56s-.93,15,5.94,21.07c2,2.11,3.67,2.05,6.12,2.11A14.3,14.3,0,0,1,13,394.43a81.51,81.51,0,0,1-1.87-12.87H9.46Z"/>
            <path class="cls-42" d="M77.6,381.63c.27,2.72.47,11,.36,12.81-.47,8.09-1,17.31-5.94,19.69a6.4,6.4,0,0,1-3.7.49l-1.86-.22c2.29,3,4.34,3.27,5,3.31,4.08.2,8.84-5.44,10-14.52a59.38,59.38,0,0,0,.82-13.05c-.19-3.63-.74-8.57-.74-8.57h0Z"/>
          </g>
          <path class="cls-47" d="M23.11,544.12c27.29.34,54.4,2,81.7,2.21,33.73.27,67.09-2.2,100.86-1.14,19.05.59,38.08,1.33,57.17,1.71,17.25.32,34.49.17,51.67,1,35.26,1.58,69.53,5.63,104.34,8.22,74.09,5.51,149.33,6.28,224.53,7.48,27.09.44,53.45.1,80.17-.77a145.46,145.46,0,0,1,14.83-1.29c8.4-.42,16.82-.61,25.23-.65-4.62-.1-8.63-.14-11.76-.14-28.47,0-90.11,2.41-123.31,1.2s-47.42,0-94.84-1.82-102.76-6.63-136-7.83-71.14-6-101.17-6.65-53.75,1.21-96.44-1.21S118,546.2,73.7,543.79c-30-1.63-62.12-3.27-82.21-4.15v4.94C2.05,544.05,12.86,544,23.11,544.12Z"/>
          <path class="cls-48" d="M3598,645.52c-145.51,6.38-497.44,33.67-644.19,35.33-192.3,2.16-368.77-26.7-561.43-25-197.55,1.8-391.31,42.42-588.59,38.55-170.82-3.34-143.34-104.25-314.1-107.54-175-3.37-347.29-14.93-522.35-18-126.36-2.18-248.83-5.35-374.32-9.89-103.5-3.75-202.64-13.47-305.42-17.19-97.67-3.53-199.54-9.62-298-10.23v340.1l4781.38,24.13,196.36-205.54c-123.53,6.4-568.07-39.9-688-29.74C4137.3,672.62,3744,639.14,3598,645.52Z"/>
          <g>
            <rect class="cls-49" x="1319.4" y="522.46" width="7.16" height="25.56"/>
            <path class="cls-50" d="M1300.76,483.06s-3-5,6.77-45.94,33.83-22,37.59,5.26a463,463,0,0,1,3.76,55.12c-5.26,36.74-49,26-48.55,5.77Z"/>
          </g>
          <g>
            <g>
              <path class="cls-51" d="M677.52,547.59l-1.17,0c-.67-5-1.57-10.15-1.57-10.15s-6.18-3.61-12,.57a20.42,20.42,0,0,1,2.47-.43,9.35,9.35,0,0,0-3.64,1.66,52.34,52.34,0,0,0,0,7.89l-9-.27.13-10.64-13.73,3-.75.09v.08l-.19,0,.19,0-.15,7L624.77,546l.38-7.45-13.62-.21,6.59.83L610.3,539l-.14,6.52-10.31-.32-.12-7.65-13.63-.22.41,7.46-5-.15.06-.43s0-.19.08-.49a5.61,5.61,0,0,0,0-1.63,4.54,4.54,0,0,0-2.18-3.72l-10.11-.16-.51,6-9.32-.29-.47-7.07-9.94,1s-1.39.61-1.87,5.71l-10.78-.33-.37-4.74-10.33-.17-.19,4.58-11.42-.35.3-6.4-13-.2-.13,6.21-13.62-.42.06-3.17-1.41-1.72-11.77-.19-.09,4.68-6.54-.2v5.39l6.43.16-.57,27.12,13.25-1.28.53-25.5,13.62.36-.58,28.17,12,.19,1.32-28,11.44.3L524.17,576l11.32,1.34v.17l1.67,0,.42-20.39-.7-8.78,10.25.26c0,2.55.28,5.7.75,9.59l2.3,18.76,10.5.17h0l1.06,0L559.86,549l8.57.22-2.36,28.05,10.53.17,4.17-27.9,6,.15,1.57,28.7,12-.57L599.92,550l10.14.26-.64,30.89,12.38-1.69,0-.38,1.26-.17,1.45-28.27,13.41.34-.64,30.62,13,.28,1.84-.54.36-30,9.33.24c.79,13,2.63,30.78,2.63,30.78L676.06,581a3.23,3.23,0,0,1,0,.34l1.84-1.07s-.32-21.25-1-28.28Z"/>
              <path class="cls-51" d="M1110.27,557.84l-1,0c-.68-6.08-1.77-13-1.77-13s-6.17-4-12,.64A18.56,18.56,0,0,1,1098,545a8.91,8.91,0,0,0-3.64,1.86,79,79,0,0,0,0,10.49l-9.12-.3.14-13.58-13.72,3.4-.75.1V547l-.19.05.19,0-.18,9.49-13.31-.44.46-10-13.62-.24,6.59.93-7.83-.14-.16,9-10.26-.34-.14-10.29-13.63-.24.5,10.1-5.33-.18.29-2.2s0-.21.08-.55a7.1,7.1,0,0,0,0-1.83,5.27,5.27,0,0,0-2.18-4.18l-10.12-.18-.64,8.53-9.08-.3-.58-9.7-9.93,1.11s-1.67.82-2,8.18l-10.54-.35-.51-7.11-10.32-.18-.26,6.93-11.43-.38.38-9-13-.24L934,552l-13.63-.45.1-5.41-1.41-1.93L907.33,544l-.13,7.12-15.08-.5c-.62-4.55-1.28-8.6-1.28-8.6s-6.17-3.88-12,.61a21.19,21.19,0,0,1,2.46-.46,9.06,9.06,0,0,0-3.63,1.79,61.75,61.75,0,0,0,0,8.49l-9-.29.12-11.45L855,544l-.75.09v.08l-.18.05.18,0-.14,7.52-13.26-.43.38-8L827.59,543l6.6.9-7.83-.14-.13,7-10.31-.33-.12-8.27L802.17,542l.41,8.08-5-.17.07-.5s0-.21.07-.53a5.9,5.9,0,0,0,0-1.76,5,5,0,0,0-2.18-4l-10.12-.17-.51,6.55-9.31-.3-.48-7.66-9.93,1.06s-1.41.67-1.87,6.21l-10.78-.35-.38-5.17-10.32-.17-.2,5-11.42-.36.31-7-13-.22-.13,6.76-13.63-.44.07-3.5-1.41-1.85-11.77-.2-.1,5.12-9.59-.31v5.8l9.48.26-.56,29.1,11.6-1.21h0l1.65-.18.52-27.35,13.63.37-.58,30.25,12,.2,1.31-30.1,11.44.32-1.19,30L751.55,585v.18l1.66,0,.43-21.93-.7-9.4,10.25.28c.06,2.74.28,6.1.75,10.27l2.3,20.18,11.56.2-1.87-30.3,8.57.23-2.36,30.14,10.53.18,4.17-30,6,.17,1.57,30.83,12-.61L816,555.63l10.14.27-.64,33.2,12.38-1.82,0-.4,1.25-.18,1.46-30.4,13.4.37-.63,32.92,13,.3,1.84-.58.36-32.25,9.33.26c.78,14,2.63,33.11,2.63,33.11l11.63-1.49c0,.15,0,.28,0,.37l1.84-1.16s-.33-22.86-1-30.42v0l.14-1,14,.39-.53,28.63,11.6-1.27h0l1.65-.18.49-26.81,13.63.38-.55,29.84,12,.21,1.24-29.7,11.45.32-1.13,29.59,11.32,1.51v.19l1.66,0,.43-22.89-.06-.85h0l-.51-7.26,10.17.29c.1,2.52.32,5.49.7,9l2.3,21.07,10.5.18h0l1.06,0-1.77-29.94,8.34.23-2.23,29.79,9.57.17h0l1,0,3.95-29.64,6.31.18,1.49,30.52,12-.64-.4-29.52,10.09.29-.61,33,12.38-1.9,0-.41,1.26-.2,1.37-30.09,13.45.37-.6,32.74,13,.31,1.84-.6.34-32,9.44.26c.83,14.41,2.54,32.95,2.54,32.95l11.63-1.56c0,.16,0,.29,0,.39l1.84-1.21s-.3-22.22-.94-30.87Z"/>
              <path class="cls-51" d="M1541.3,602.25s-.33-26.31-1-35c-.56-7.18-2.1-18-2.1-18s-6.17-4.47-12,.7a17.11,17.11,0,0,1,2.46-.53,8.85,8.85,0,0,0-3.64,2.06c-.34,2.94-.08,10.59.4,19.22l-9.57-.37.22-22.59-13.73,3.75-.75.1v.1l-.18.05.18,0-.3,18.06-13.5-.51.78-18.63-13.63-.27,6.6,1-7.83-.16-.29,17.49-10-.38-.23-18.91-13.63-.27.83,18.69-6.57-.25,1.2-9.92s0-.23.07-.6a9.06,9.06,0,0,0,0-2,6,6,0,0,0-2.18-4.6l-10.12-.2-1.15,16.89-8.17-.31-1-18.2-9.93,1.22s-2.61,1.43-1.9,16.5l-10.15-.38-1-15.32-10.32-.21-.52,15.08-11.45-.43.65-17.34-13-.25-.28,17.11-13.63-.51.23-13.35-1.41-2.14-11.77-.23-.26,15.22-8.38-.32c0-1-.1-1.83-.16-2.56-.57-7.19-2.11-18-2.11-18s-6.17-4.46-12,.71a17.87,17.87,0,0,1,2.46-.54,8.76,8.76,0,0,0-3.63,2.06c-.35,3-.09,10.6.39,19.22l-9.57-.36.22-22.6-13.72,3.75-.76.11v.1l-.18,0,.18,0-.3,18.07-13.49-.51.77-18.64-13.63-.27,6.6,1-7.83-.15-.29,17.49-10-.38-.23-18.91-13.63-.27.83,18.69-6.57-.25,1.2-9.93s0-.23.07-.6a7.8,7.8,0,0,0,0-2,6,6,0,0,0-2.18-4.6l-10.12-.2-1.15,16.9-8.17-.31-1-18.2-9.93,1.22s-2.61,1.43-1.9,16.5l-10.15-.39-1-15.32-10.32-.2-.52,15.08-11.45-.44.65-17.33-13-.26-.29,17.12-13.62-.52.22-13.35-1.41-2.13-11.77-.23-.25,15.21-14.35-.54v6.67l14.24.46-.41,24.19,11.6-1.39h0l1.65-.2.37-22.18,13.62.44-.43,25.5,9.81.19h0l2.17,0,1-25.33,11.47.36-.87,25.2,11.32,1.66v.21l1.66,0,.43-25.24-.1-1.47,10.17.32c.07.8.15,1.62.23,2.47l2.3,23.23,11.56.23-1.37-25.52,7.43.24L1218.37,592l9.58.19h0l1,0,3-25.19,7.55.24,1.16,26.12,12-.7-.31-25,9.87.31-.48,28.85,12.38-2.09v-.46l1.26-.21,1.07-25.63,13.64.43-.48,28.52,13,.35,1.84-.67.27-27.73,10,.32c.87,14.11,2.1,28.7,2.1,28.7l11.63-1.71c0,.17,0,.32,0,.42l1.84-1.33s-.18-14.73-.56-25.79l8,.25-.4,24.19,11.6-1.39h0l1.64-.2.37-22.17,13.63.43-.43,25.5,9.81.19h0l2.17,0,1-25.34,11.47.37-.87,25.19,11.32,1.67v.21l1.66,0,.42-25.23-.09-1.48,10.17.33c.07.8.14,1.61.23,2.47l2.29,23.22,11.57.23-1.37-25.51,7.43.23-1.73,25.37,9.57.18h0l1,0,3-25.19,7.55.24,1.16,26.13,12-.71-.31-25,9.87.32-.48,28.85,12.37-2.1,0-.46,1.26-.21,1.07-25.63,13.63.44-.48,28.52,13,.34,1.85-.66.27-27.74,9.94.32c.88,14.11,2.11,28.71,2.11,28.71l11.63-1.72c0,.17,0,.32,0,.43Z"/>
              <path class="cls-51" d="M42.38,538.42l-1,0c-.68-4.85-1.74-10.37-1.74-10.37s-6.09-3.23-11.83.51a22.43,22.43,0,0,1,2.43-.38,9.52,9.52,0,0,0-3.58,1.49,50.06,50.06,0,0,0,0,8.35l-9-.24.15-10.82L4.33,529.65l-.74.08v.07l-.18,0,.18,0-.17,7.56L-9.7,537l.45-8-13.43-.2,6.5.75-7.72-.11-.16,7.17-10.11-.27-.14-8.21L-47.75,528l.49,8-5.25-.13.29-1.76s0-.17.07-.44a4.51,4.51,0,0,0,0-1.46,4,4,0,0,0-2.14-3.33l-10-.15-.63,6.81-9-.24-.56-7.74-9.8.89s-1.65.65-2,6.52l-10.4-.28-.49-5.67-10.18-.15-.26,5.53-11.26-.3.37-7.17-12.83-.19-.16,7-13.43-.36.1-4.32-1.39-1.54-11.61-.17-.13,5.68-14.87-.39c-.6-3.63-1.25-6.86-1.25-6.86s-6.09-3.1-11.83.49a22.43,22.43,0,0,1,2.43-.38,10,10,0,0,0-3.59,1.43,40.78,40.78,0,0,0,0,6.78l-8.91-.23.13-9.14-13.54,2.6-.74.07v.07l-.18,0,.18,0-.14,6-13.08-.34.38-6.41-13.43-.19,6.5.72-7.72-.11-.13,5.61-10.17-.26-.11-6.6-13.44-.19.41,6.44-5-.13.07-.4s0-.16.08-.42a4.22,4.22,0,0,0,0-1.41,3.86,3.86,0,0,0-2.15-3.19l-10-.13-.51,5.23-9.18-.24-.47-6.11-9.79.84s-1.39.53-1.85,5l-10.62-.28-.37-4.12-10.18-.14-.2,4-11.25-.29.29-5.55-12.82-.18L-345,530l-13.43-.35.07-2.79-1.39-1.48-11.61-.16-.1,4.09-9.45-.25v4.63l9.35.21-.56,23.2,11.44-1h0L-359,556l.52-21.82,13.43.3-.57,24.12,11.81.17,1.29-24,11.28.25-1.17,23.91,11.16,1.16v.14l1.64,0,.42-17.49-.06-.66h0l-.62-6.84,10.1.22a70.45,70.45,0,0,0,.74,8.19l2.26,16.1,11.4.16-1.84-24.17,8.45.19-2.33,24,10.38.14,4.11-23.91,5.93.13,1.55,24.59,11.82-.49-.42-23.81,10,.22-.63,26.48,12.2-1.46,0-.31,1.24-.15,1.44-24.25,13.21.3-.62,26.25,12.78.24,1.82-.46.36-25.72,9.19.21c.78,11.16,2.6,26.4,2.6,26.4l11.47-1.18c0,.11,0,.22,0,.29l1.82-.92s-.32-18.23-1-24.27v0l.13-.76,13.81.32-.52,22.83,13.06-1.15.49-21.39,13.43.3-.54,23.8,9.67.14h0l2.14,0,1.22-23.69,11.29.26-1.11,23.6,11.16,1.2v.15l1.64,0,.42-18.26-.56-6.46,10,.22c.1,2,.31,4.39.69,7.2l2.26,16.8,10.36.15h1l-1.74-23.87,8.22.18-2.2,23.76,9.44.13h0l.94,0,3.89-23.64,6.23.14,1.47,24.35,11.82-.52-.39-23.54,9.94.23-.6,26.32,12.21-1.51v-.34l1.25-.15,1.36-24,13.26.3-.6,26.11,12.79.24,1.81-.48.34-25.55L27,542c.82,11.5,2.51,26.28,2.51,26.28L41,567.06c0,.12,0,.23,0,.3l1.82-1s-.3-17.72-.93-24.62Z"/>
              <path class="cls-51" d="M256.14,526.31s-6.08-3.56-11.82.56a21,21,0,0,1,2.43-.42,9.24,9.24,0,0,0-3.59,1.64c-.34,2.35-.08,8.45.39,15.33l-9.43-.29.22-18-13.54,3-.74.08v.08l-.18,0,.18,0-.3,14.41-13.3-.41.76-14.86-13.43-.22,6.5.82-7.72-.12-.29,14-9.9-.3-.22-15.09-13.44-.21.82,14.9-6.48-.19,1.18-7.92s0-.18.08-.48a5.55,5.55,0,0,0,0-1.62,4.47,4.47,0,0,0-2.15-3.66l-10-.16-1.14,13.47-8-.25-1-14.51-9.79,1s-2.57,1.14-1.87,13.16l-10-.31-1-12.22-10.18-.16-.52,12L97.44,539l.64-13.82-12.82-.21L85,538.57l-13.43-.41.22-10.65-1.39-1.7-11.6-.18-.25,12.13-14.15-.43v5.32l14,.37L58,562.31l11.44-1.11h0l1.62-.16.37-17.69,13.43.35L84.45,564l11.8.18,1-20.2,11.31.29-.86,20.1,11.16,1.32v.17l1.64,0,.42-20.13-.09-1.17,10,.26c.07.63.14,1.28.23,2l2.26,18.52,11.4.18-1.35-20.35,7.33.19L149,565.63l9.43.15h.95l3-20.09,7.45.19,1.14,20.84,11.82-.56-.3-19.95,9.73.25-.48,23,12.2-1.67,0-.37,1.24-.17,1.05-20.44,13.45.35-.47,22.75,12.78.27,1.82-.53.27-22.12,9.8.26c.87,11.25,2.08,22.89,2.08,22.89l11.46-1.37a3.23,3.23,0,0,1,0,.34l1.82-1.06s-.32-21-1-27.92C257.66,535,256.14,526.31,256.14,526.31Z"/>
            </g>
            <path class="cls-51" d="M1711.85,591.09s-1.64-25.34-2.66-33.7c-.85-6.9-2.71-17.28-2.71-17.28s-5.41-4-10,1.23a13.79,13.79,0,0,1,2-.63,7.28,7.28,0,0,0-3,2.15c-.13,2.86.48,10.22,1.33,18.51l-8,.09-1-21.79-11.32,4.25-.63.14v.09l-.15.06.15,0,.68,17.43-11.34.13-.32-18-11.45.37,5.59.69-6.58.21.67,16.88-8.45.1-1.17-18.22-11.45.37,1.67,18-5.53.07.49-9.62s0-.23,0-.59a8.76,8.76,0,0,0-.09-2,6.14,6.14,0,0,0-2.07-4.34l-8.49.28-.09,16.34-6.87.08-1.77-17.51-8.27,1.64s-2.11,1.49-.73,16l-8.54.1-1.61-14.73-8.68.28.35,14.56-9.63.12-.35-16.75-10.92.36.65,16.51-11.46.13-.51-12.88-1.29-2-9.88.32.57,14.68-12.06.14.35,6.43,12-.22.92,23.34,11-2.14-.84-21.4,11.45-.21,1,24.6,8.23-.26h0l1.83-.06-.52-24.47,9.65-.18.58,24.33,9.58,1.08v.21l1.4,0-1-24.34-.16-1.42,8.55-.15c.1.76.21,1.55.32,2.37l3.14,22.28,8.82-.29h0l.89,0-2.48-24.53,6.25-.11-.13,24.53,8-.26h0l.8,0,1.25-24.43,6.35-.11,2.32,25.13,10-1.23-1.56-24.1,8.3-.15,1.09,27.83,10.28-2.59v-.44l1-.26-.44-24.76,11.47-.21,1.08,27.52,10.9-.27,1.51-.73-1.22-26.74,8.36-.16c1.47,13.57,3.26,27.58,3.26,27.58l9.67-2.19c0,.17,0,.31,0,.41Z"/>
            <path class="cls-51" d="M467.34,573.84s-.32-21-1-27.92c-.56-5.73-2.08-14.38-2.08-14.38s-6.08-3.56-11.82.56a22.23,22.23,0,0,1,2.43-.43,9.23,9.23,0,0,0-3.59,1.65c-.34,2.34-.08,8.45.39,15.32l-9.44-.28.22-18-13.53,3-.74.09v.08l-.18,0,.18,0-.3,14.41-13.31-.41.77-14.87-13.44-.21,6.51.82-7.72-.12-.29,14-9.9-.31-.23-15.08-13.43-.21.81,14.9-6.47-.2,1.18-7.91a4.52,4.52,0,0,0,.07-.48,5.36,5.36,0,0,0,0-1.62,4.5,4.5,0,0,0-2.15-3.67l-10-.16-1.13,13.48-8.06-.25-1-14.52-9.8,1s-2.56,1.14-1.86,13.16l-10-.31-1-12.22-10.18-.16-.51,12-11.29-.34.65-13.83-12.83-.2-.28,13.65-13.43-.41.22-10.65L278.5,531l-11.6-.18L266.65,543l-14.15-.43v5.32l14,.36-.4,19.3,11.43-1.11h0l1.63-.16.36-17.69,13.43.35-.42,20.33,11.81.19.95-20.2,11.31.29-.86,20.09L326.94,571v.17l1.64,0L329,551l-.05-.75h0l0-.43,10,.26c.07.64.14,1.29.22,2l2.27,18.53,11.4.18-1.35-20.35,7.33.19-1.71,20.23,10.38.16,3-20.09,7.44.19L379.06,572l11.82-.57-.3-19.94,9.73.25-.47,23L412,573l0-.37,1.24-.17,1.05-20.44,13.44.35-.47,22.75,12.79.27,1.81-.53.27-22.12L452,553c.87,11.26,2.07,22.9,2.07,22.9l11.47-1.37c0,.14,0,.25,0,.34Z"/>
          </g>
          <g class="cls-52">
            <path class="cls-53" d="M2173.4,694.1c-8.13,1.66-16.36,3.32-24.7,4.92-33.35,6.43-68.61,11.74-107.46,15.48-79.83,7.69-168.28,7.77-245.5,17.46,46.78,2,94.63,1,141.53-.15,32.77-.83,65.55-1.38,98.29-2.18,25.42-.63,50.88-1.33,76.41-1.39,18.85,0,45.47-.4,61.66,2.75,12.94,2.53,8.38,6.49-.21,9.4-13.92,4.7-34.45,8.09-53.89,11-25.87,3.82-53.31,7-81.38,9.43-26.62,2.34-54.36,4.26-82.42,4.8-18.56.34-41,.36-56.56-2.8-.86-.19-1-.45-.3-.68,17.29-5.46,50.53-5.46,65.3-11.47-36.47-3.94-80-1.79-117.78-.81-47.53,1.21-95.38,2.83-143.14,3.22-101.59.87-201.4-6.72-303-6.2-52.83.27-105.63.94-158.47,1.12q-78.51.25-157-.3c-38.54-.33-77.36-.14-115.83-.87-33.82-.65-71.15-1.88-99.16-7.4-1.08-.22-1-.67.41-.79,3.15-.25,6.41-.52,9.7-.66,22.22-1,44.72-.28,67,0,25.23.29,50.59-.49,75.61-1.26,25.47-.77,50.94-1.69,76.5-2.2,12.25-.24,24.42-.32,36.61-.36q-32-.55-64.3-1.38c-90-2.37-180.13-.23-270.07-2.55-92.21-2.39-182.94-10.58-275.15-12.72-66.56-1.54-131.07-3.79-197.17-7-54.52-2.66-106.75-9.54-160.88-12.17-51.45-2.5-105.11-6.81-157-7.24v5.69q15.86.33,31.64.94c99.69,3.73,194.92,13,291.66,20,24.07,1.76,48.34,3.39,73,4.52,23.14,1.08,46.12,1.56,69.58,1.84,38,.49,79.86,1.07,113,6.61,1,.16,1.13.58,0,.74-19.51,2.61-41.48,3.55-63.08,3.9-41,.64-81.95-.6-122.92-.6-46.63,0-92.29,2.93-137.5,5.71-25.45,1.57-50.9,3.47-76.63,4.72-16.61.81-33.52,1.16-50.22,1.83-18,.74-37,1.62-53.12,4-4.34.61-8.62,1.31-12.32,2.19-3.22.78-3.49.79-.52,1.68a88.64,88.64,0,0,0,12.14,2.68c24.45,3.79,55.64,4.36,83.31,4.71,30.83.36,61.65.06,92.51,0,27.16-.06,54.14.68,81.3.92,33,.26,72.35.14,100.92,5.19.74.13,1,.36.56.58-7.46,3.68-19,4.24-33.56,4.6-13.26.32-26.39,1.34-39.54,1.94-11.31.5-22.71,1-34.12,1.33-25.78.84-51.65,1.41-77.55,2-52.79,1.13-104.71,3-157,5.24-30.37,1.29-60.8,2.49-91.42,3.24V931.77H4811l-19.71-215.66C4735.27,720,2228.24,688.2,2173.4,694.1Z"/>
          </g>
          <g class="cls-54">
            <path class="cls-13" d="M1614.53,682.26c-15.25,3.54-32,7.14-45,12.92-3,1.33-7.86,3.46-7.42,5.84.77,4.21,10.88,7.34,16.6,9.41,12.09,4.38,33.78,10.74,27.94,20.48-3,5-12.28,7.2-21.06,8.41-13.32,1.82-27.13,3.15-40.65,4.51-70.55,7-142.44,7.63-214,7.63H1219.76c-16.24,0-32.58.27-48.82,0-13.84-.22-27.91-1-40.57-4.23-.78-.2-.71-.87,0-1.07,39.51-11.76,87.51-12.79,131.54-13.63,14.5-.28,29-.46,43.49-.83,16.43-.42,32.76-1.42,49.14-2.23,18.43-.93,36.87-1.77,55.32-2.67,16.92-.85,33.89-2.09,50.88-2.56,13-.37,27.42-.39,39.26-3.65a41.27,41.27,0,0,0,9.07-3.44c3.08-1.75,2.19-2.58-1.91-3.26a87.71,87.71,0,0,0-17.86-.82c-12.73.53-25.21,2.09-37.88,2.81-18.55,1.07-37.17,1.54-55.79,1.54-37.32,0-74.58-1.38-111.87-1.5-33.79-.13-67.56.29-101.33.92-19.09,1-38.1,2.51-56.75,4.91-17.68,2.28-35,5.37-52.61,7.74-16.91,2.26-34,4.21-51.32,5.39-34.35,2.36-69.7,2-104.2.87-26.24-.83-52.43-2.42-78.14-5.32-74.24-2.35-148.62-6.54-222.72-2.49,29.27,5.52,60.53,7.44,91.29,8.63,29.2,1.15,58.62,2.16,87.9,2.6,28.73.43,57.54-.16,86.26,1,25.94,1,52.82,3.12,75.74,10.18.82.26.69.8,0,1.09-16.61,6.55-39.79,7.53-59.66,7.84-23.86.45-47.71-.56-71.49-1.43-30.34-1.1-60.86-.91-91.25-1.19-35.63-.31-71.24-.73-106.83-1.62-37.62-1-74.84-2.88-112.24-5.21-36.88-2.32-73.84-4.48-111-4.87s-74,0-111-.48c-15.62-.18-31.32-.12-46.93-.45-11.61-.25-23.92-1-33.18-5.16-.5-.22-.41-.65,0-.88,12.73-7.06,33.37-8.82,50.7-9.74,23.93-1.28,48-.82,72-.48,29,.4,57.93.17,86.89.34,18.9.09,37.8.15,56.72,0,14.3-.1,28.62-.55,42.92-.24,12.87.27,25.8.76,38.69.32,12-.41,24.74-1.42,34.6-5.33C556.5,716,514.45,713.33,472.41,712c-41.87-1.29-83.78-1.86-125.58-3.51-37.82-1.48-75.45-5.17-113.32-6-17.67-.42-35.54.63-53.18,1.09-21.4.5-43.25,1.08-64.58-.4-11.36-.79-28.84-2-33.94-8.62-.15-.18,0-.49.29-.62,22.18-9.59,54.8-10.49,81.89-12,37.88-2.11,75-6.7,112.9-9,16.39-1,32-2.15,47.13-5.88,12.11-3,23.3-6.41,36.28-8.26s28.86-2.94,39.31-7.84c1.7-.81,1.23-.73-.4-1.49-1.11-.48-2.22-1-3.41-1.39a55,55,0,0,0-6-1.85,98.77,98.77,0,0,0-14.43-2.3c-23-2-46.49.63-69.51,1.1-19.8.42-41.55-.3-56.27-8.35-.55-.32-.36-.77.23-1,12.1-4.66,27.58-6.45,42-7.72,16.17-1.43,32.49-2.08,48.76-3.08,15-.93,29.93-2.17,45-3,18-1.06,36.18-2.11,53.86-4.32,13-1.62,26.16-3.76,37.7-7.45,7.8-2.5,22.13-7.38,21.37-13.2a4.53,4.53,0,0,0-1.18-2.36c-44-4.81-87.78-10.86-132.06-13-47.6-2.24-93.73-5.52-141-10.2-39-3.86-76.33-13.88-115-17.71C72.41,550,34,543.72-3.06,543.09v8.28c7.56.33,15.09.8,22.63,1.37C90.85,558.18,159,571.65,228.12,581.9c17.21,2.56,34.57,4.94,52.18,6.58,16.56,1.57,33,2.27,49.76,2.69,27.15.7,57.11,1.54,80.77,9.62.68.23.8.84,0,1.07-13.95,3.81-29.66,5.18-45.11,5.68-29.31.93-58.6-.87-87.89-.87-33.35,0-66,4.26-98.33,8.32-18.2,2.28-36.4,5-54.79,6.87-11.88,1.17-24,1.69-35.92,2.67-12.83,1.07-26.44,2.35-38,5.77A56.63,56.63,0,0,0,42,633.49c-2.31,1.14-2.5,1.15-.38,2.46a39.4,39.4,0,0,0,8.68,3.89c17.48,5.52,39.79,6.36,59.58,6.86,22,.53,44.08.09,66.14,0,19.43-.08,38.72,1,58.14,1.35,23.58.37,51.73.2,72.16,7.55.53.2.72.53.4.85-5.33,5.36-13.58,6.17-24,6.7-9.47.46-18.86,2-28.26,2.82q-12.14,1.11-24.41,1.93c-18.43,1.24-36.93,2.06-55.45,2.89-37.75,1.66-74.87,4.38-112.3,7.63-21.71,1.88-43.47,3.63-65.37,4.72V893.67L4784.13,921l3.61-223.65c-11.47,2.31-1609.42-8.19-2533-13.1l-26-.14C1869.8,682.22,1619,681.23,1614.53,682.26Z"/>
          </g>
          <g>
            <path class="cls-55" d="M831.8,589.56c-1.78,0-4.14.05-6.5.18-4.57.19-8.69.73-9.75,1.84-.13.13-.09.25.16.36,4.46,2,13.44,1.48,19.53,1.2,2.22-.09,14.69-.29,14-2.13S835.37,589.48,831.8,589.56Z"/>
            <path class="cls-55" d="M905.71,582.38c-1.51-1.44-10.63-.84-13.58-.74-1.24,0-4.12,0-6.51.23l-2,.08c-1.28.06-5.38.8-3.19,1.52,2.42.79,6.44.76,9.41.8,3.21,0,6.4-.13,9.53-.38a27.42,27.42,0,0,0,5.56-.73C905.52,583,906,582.69,905.71,582.38Z"/>
            <path class="cls-55" d="M397.76,643.63c-1.76,0-4.13.06-6.48.18-4.56.18-8.68.73-9.75,1.84-.14.13-.09.26.15.37,4.46,2,13.45,1.47,19.54,1.19,2.21-.09,14.69-.3,14-2.12C414.43,643.12,401.33,643.55,397.76,643.63Z"/>
            <path class="cls-55" d="M472.15,649.35c-1.52-1.44-10.63-.84-13.59-.74-1.24,0-4.1,0-6.48.23-.68,0-1.35,0-2,.09-1.28.05-5.38.79-3.19,1.5,2.42.79,6.44.77,9.41.79,3.21,0,6.42-.11,9.54-.36a27,27,0,0,0,5.54-.73C472,649.94,472.47,649.67,472.15,649.35Z"/>
            <path class="cls-55" d="M871.79,654.58c-1.21,0-2.87,0-4.51.11-3.21.15-6.07.53-6.81,1.3-.09.08-.07.17.1.25,3.12,1.43,9.4,1,13.64.84,1.55-.07,10.28-.21,9.77-1.49S874.31,654.52,871.79,654.58Z"/>
            <path class="cls-55" d="M923.74,658.57c-1-1-7.41-.59-9.48-.52-.87,0-2.87,0-4.53.16l-1.39.07c-.9,0-3.77.54-2.24,1.05a26.45,26.45,0,0,0,6.59.55c2.23,0,4.46-.07,6.63-.26a20.14,20.14,0,0,0,3.9-.5C923.62,659,924,658.79,923.74,658.57Z"/>
          </g>
          <g>
            <path class="cls-55" d="M2872.4,695.89c-1.76,0-4.13.06-6.48.18-4.57.19-8.68.73-9.75,1.84-.14.13-.1.27.15.38,4.46,2,13.45,1.46,19.53,1.19,2.22-.09,14.7-.3,14-2.12C2889.06,695.38,2876,695.82,2872.4,695.89Z"/>
            <path class="cls-55" d="M2946.79,701.61c-1.52-1.43-10.64-.83-13.59-.74-1.24,0-4.1,0-6.49.23l-2,.1c-1.28,0-5.38.79-3.19,1.49,2.41.79,6.44.77,9.41.8,3.21,0,6.42-.11,9.53-.37a28,28,0,0,0,5.55-.72C2946.61,702.21,2947.11,701.93,2946.79,701.61Z"/>
          </g>
          <g>
            <path class="cls-55" d="M2729,627.36c-1.77,0-4.13.06-6.49.18-4.58.19-8.69.74-9.75,1.84-.13.14-.09.25.16.37,4.45,2,13.43,1.47,19.53,1.2,2.21-.09,14.69-.3,14-2.13S2732.56,627.29,2729,627.36Z"/>
            <path class="cls-55" d="M2802.89,620.18c-1.51-1.43-10.63-.84-13.57-.74-1.24,0-4.13,0-6.51.23l-2,.09c-1.27.06-5.38.8-3.19,1.51,2.43.79,6.45.77,9.41.8,3.21,0,6.4-.12,9.53-.38a28.38,28.38,0,0,0,5.57-.72C2802.71,620.77,2803.22,620.5,2802.89,620.18Z"/>
            <path class="cls-55" d="M2295,681.43c-1.77,0-4.13.06-6.48.18-4.57.19-8.68.73-9.75,1.84-.14.13-.1.27.14.38,4.46,2,13.46,1.46,19.54,1.19,2.22-.09,14.69-.3,14-2.12C2311.61,680.92,2298.52,681.36,2295,681.43Z"/>
            <path class="cls-55" d="M2369.34,687.15c-1.52-1.43-10.64-.83-13.6-.74-1.23.05-4.09,0-6.48.23l-2,.1c-1.28,0-5.38.79-3.2,1.49,2.42.79,6.45.77,9.42.8,3.21,0,6.41-.11,9.53-.37a28,28,0,0,0,5.55-.72C2369.15,687.75,2369.66,687.47,2369.34,687.15Z"/>
            <path class="cls-55" d="M2769,692.38c-1.22,0-2.87,0-4.51.12-3.21.15-6.07.52-6.81,1.29-.09.09-.07.18.09.26,3.13,1.43,9.4,1,13.64.84,1.56-.08,10.28-.22,9.78-1.5S2771.5,692.33,2769,692.38Z"/>
            <path class="cls-55" d="M2820.93,696.37c-1-1-7.41-.59-9.48-.52-.88,0-2.87,0-4.53.17-.48,0-.94,0-1.39.06-.91,0-3.77.55-2.25,1.06a27.06,27.06,0,0,0,6.6.55c2.23,0,4.45-.08,6.62-.26a20.73,20.73,0,0,0,3.9-.5C2820.81,696.79,2821.15,696.59,2820.93,696.37Z"/>
          </g>
          <path class="cls-56" d="M1816.2,599.14c-6.91-15-19.93-5.77-19.93-5.77-5.24-15.81-14.07-7.15-14.07-7.15-10.67-19.26-18.77-.55-18.77-.55s-2.54-14.07-10.64-19.08-15,2.95-15,2.95c-15.64-18.29-23.23,5.23-23.23,5.23-5.95-4.57-10-.32-10-.32-6.49,7-2.87,17.54-2.87,17.54-19.9,5.11-7.8,15.57-7.8,15.57l2.88,2,130.16,3,2.11-1.2c6-3.43,4.1-13.8-2.62-14.1A28.71,28.71,0,0,0,1816.2,599.14Z"/>
          <path class="cls-56" d="M461.26,571c-10.82-8.81-31.24-3.38-31.24-3.38-8.2-9.27-22-4.19-22-4.19-16.72-11.29-29.41-.33-29.41-.33s-4-8.24-16.68-11.17a41.21,41.21,0,0,0-23.45,1.72c-24.52-10.71-36.41,3.07-36.41,3.07-9.32-2.68-15.72-.19-15.72-.19-10.17,4.1-4.49,10.28-4.49,10.28-31.18,3-12.22,9.12-12.22,9.12l4.51,1.15,198-1,9.52-2C487,569.92,461.26,571,461.26,571Z"/>
          <path class="cls-56" d="M-15.37,490.55s14.8,3,7.14,14.72c41.34-12.92,65.32-1.2,63.28,14.42,42.36-2.7,54.09,25.24,37.76,31.55,0,0,35.22-12.32,67.88,4.81,32.66-15,110.23,6.61,130.13,17.72l-302.22.61Z"/>
          <path class="cls-56" d="M1705.76,551.84s-17.41,2-8.4,10c-48.65-8.74-76.87-.81-74.47,9.77-49.85-1.83-63.66,17.08-44.44,21.36,0,0-41.44-8.34-79.88,3.25-38.43-10.17-129.71,4.48-153.14,12l355.66.41Z"/>
          <g>
            <path class="cls-13" d="M1534.52,731.69s27.26-18.34,32.77-21.63c6.78-4-5.68-9.84-25.88,4.19C1541.41,714.25,1529,724.4,1534.52,731.69Z"/>
            <path class="cls-13" d="M1521.69,730.55s-5.49-17-35.66-16.51S1521.69,730.55,1521.69,730.55Z"/>
            <path class="cls-13" d="M1529.91,733s9.19-38.1,22.6-48.55c11.48-9-12.84-11.4-26.52,10S1529.91,733,1529.91,733Z"/>
          </g>
          <g>
            <path class="cls-37" d="M1115.34,708.62s26-4,25.28-14.9S1115.34,708.62,1115.34,708.62Z"/>
            <path class="cls-37" d="M1110.28,713s14.45-27.31,25.29-34.26-18.78-7.52-25.29,21.07Z"/>
            <path class="cls-37" d="M1109.2,709.36s7.29-21.25-19.87-22.35C1077.05,686.51,1109.2,709.36,1109.2,709.36Z"/>
          </g>
          <g>
            <path class="cls-57" d="M98.27,657.88s12.17-8.29,35.64-10.33-25.21-10.89-42.59,10.33C91.32,657.88,83.5,667.31,98.27,657.88Z"/>
            <path class="cls-57" d="M65.25,659.06s35.63-26.52,56.49-33.59-20-7.67-47.8,14.44C73.94,639.91,60,653.17,65.25,659.06Z"/>
            <path class="cls-57" d="M54.82,659.06s23.67-43,34.43-48.33-17-8.25-34.43,26.82C54.82,637.55,47.87,656.11,54.82,659.06Z"/>
            <path class="cls-57" d="M42.22,659.06S51.34,619.57,60,613.68,27,620.16,42.22,659.06Z"/>
            <path class="cls-57" d="M37,659.06s.44-32.9-18.25-38S29.62,642.56,37,659.06Z"/>
            <path class="cls-57" d="M30.92,659.06s-11.73-37.7-40.41-38.59S13.1,634.31,30.92,659.06Z"/>
            <path class="cls-57" d="M28.46,659.06S13.1,643.74-13,644.92,22.08,654.35,28.46,659.06Z"/>
          </g>
          <g>
            <path class="cls-13" d="M1342.62,672.41s8.64-5.89,25.32-7.34-17.91-7.74-30.26,7.34C1337.68,672.41,1332.12,679.11,1342.62,672.41Z"/>
            <path class="cls-13" d="M1319.15,673.25s25.32-18.85,40.14-23.87-14.2-5.45-34,10.26C1325.33,659.64,1315.45,669.06,1319.15,673.25Z"/>
            <path class="cls-13" d="M1311.74,673.25s16.82-30.57,24.47-34.34-12.12-5.86-24.47,19.05C1311.74,658,1306.8,671.15,1311.74,673.25Z"/>
            <path class="cls-13" d="M1302.79,673.25s6.48-28.06,12.66-32.25S1292,645.61,1302.79,673.25Z"/>
            <path class="cls-13" d="M1299.08,673.25s.31-23.38-13-27S1293.84,661.52,1299.08,673.25Z"/>
            <path class="cls-13" d="M1294.76,673.25s-8.34-26.79-28.71-27.42S1282.1,655.66,1294.76,673.25Z"/>
            <path class="cls-13" d="M1293,673.25s-10.91-10.89-29.43-10S1288.48,669.9,1293,673.25Z"/>
          </g>
          <g>
            <g>
              <path class="cls-58" d="M2487.75,684.6s8.64-5.89,25.31-7.34-17.9-7.74-30.25,7.34C2482.81,684.6,2477.25,691.3,2487.75,684.6Z"/>
              <path class="cls-58" d="M2464.28,685.44s25.32-18.85,40.14-23.87-14.2-5.45-34,10.26C2470.46,671.83,2460.58,681.25,2464.28,685.44Z"/>
              <path class="cls-58" d="M2456.87,685.44s16.82-30.57,24.47-34.34-12.12-5.87-24.47,19C2456.87,670.15,2451.93,683.34,2456.87,685.44Z"/>
              <path class="cls-58" d="M2447.92,685.44s6.48-28.06,12.66-32.25S2437.11,657.8,2447.92,685.44Z"/>
              <path class="cls-58" d="M2444.21,685.44s.31-23.38-13-27S2439,673.71,2444.21,685.44Z"/>
              <path class="cls-58" d="M2439.89,685.44s-8.34-26.79-28.71-27.43S2427.23,667.85,2439.89,685.44Z"/>
              <path class="cls-58" d="M2438.14,685.44s-10.91-10.89-29.43-10.06S2433.61,682.09,2438.14,685.44Z"/>
            </g>
            <g>
              <path class="cls-58" d="M2968.93,608.94s8.65-5.89,25.32-7.34-17.91-7.73-30.26,7.34C2964,608.94,2958.43,615.64,2968.93,608.94Z"/>
              <path class="cls-58" d="M2945.47,609.78s25.31-18.84,40.13-23.87-14.2-5.44-34,10.26C2951.64,596.17,2941.76,605.59,2945.47,609.78Z"/>
              <path class="cls-58" d="M2938.06,609.78s16.82-30.57,24.46-34.34-12.11-5.86-24.46,19.06C2938.06,594.5,2933.12,607.69,2938.06,609.78Z"/>
              <path class="cls-58" d="M2929.1,609.78s6.49-28.06,12.66-32.24S2918.3,582.14,2929.1,609.78Z"/>
              <path class="cls-58" d="M2925.4,609.78s.31-23.37-13-27S2920.15,598.06,2925.4,609.78Z"/>
              <path class="cls-58" d="M2921.07,609.78s-8.33-26.79-28.71-27.42S2908.41,592.19,2921.07,609.78Z"/>
              <path class="cls-58" d="M2919.32,609.78s-10.91-10.89-29.43-10S2914.8,606.43,2919.32,609.78Z"/>
            </g>
            <g>
              <path class="cls-58" d="M3032.24,687.31s8.64-5.89,25.32-7.34-17.91-7.74-30.26,7.34C3027.3,687.31,3021.74,694,3032.24,687.31Z"/>
              <path class="cls-58" d="M3008.77,688.15s25.32-18.85,40.14-23.87-14.2-5.45-34,10.26C3015,674.54,3005.07,684,3008.77,688.15Z"/>
              <path class="cls-58" d="M3001.36,688.15s16.82-30.57,24.47-34.34-12.12-5.86-24.47,19.05C3001.36,672.86,2996.42,686.05,3001.36,688.15Z"/>
              <path class="cls-58" d="M2992.41,688.15s6.48-28.06,12.66-32.25S2981.6,660.51,2992.41,688.15Z"/>
              <path class="cls-58" d="M2988.7,688.15s.31-23.38-13-27S2983.46,676.42,2988.7,688.15Z"/>
              <path class="cls-58" d="M2984.38,688.15s-8.33-26.79-28.71-27.42S2971.72,670.56,2984.38,688.15Z"/>
              <path class="cls-58" d="M2982.63,688.15s-10.91-10.89-29.43-10S2978.1,684.8,2982.63,688.15Z"/>
            </g>
            <g>
              <path class="cls-59" d="M1571.59,624.94s8.64-5.89,25.31-7.34-17.9-7.73-30.25,7.34C1566.65,624.94,1561.09,631.64,1571.59,624.94Z"/>
              <path class="cls-59" d="M1548.12,625.78s25.32-18.85,40.14-23.87-14.2-5.44-34,10.26C1554.3,612.17,1544.42,621.59,1548.12,625.78Z"/>
              <path class="cls-59" d="M1540.71,625.78s16.82-30.57,24.47-34.34-12.12-5.86-24.47,19C1540.71,610.49,1535.77,623.69,1540.71,625.78Z"/>
              <path class="cls-59" d="M1531.76,625.78s6.48-28.06,12.66-32.25S1521,598.14,1531.76,625.78Z"/>
              <path class="cls-59" d="M1528.05,625.78s.31-23.38-13-27S1522.8,614.05,1528.05,625.78Z"/>
              <path class="cls-59" d="M1523.73,625.78S1515.39,599,1495,598.36,1511.07,608.19,1523.73,625.78Z"/>
              <path class="cls-59" d="M1522,625.78s-10.91-10.89-29.43-10S1517.45,622.43,1522,625.78Z"/>
            </g>
            <g>
              <path class="cls-57" d="M675.75,652.17s7.27-5.58,21.28-7-15-7.32-25.43,7C671.6,652.17,666.93,658.52,675.75,652.17Z"/>
              <path class="cls-57" d="M656,653s21.28-17.85,33.74-22.61-11.94-5.16-28.55,9.72C661.22,640.07,652.91,649,656,653Z"/>
              <path class="cls-57" d="M649.8,653s14.14-29,20.56-32.53-10.18-5.55-20.56,18.05C649.8,638.48,645.65,651,649.8,653Z"/>
              <path class="cls-57" d="M642.27,653s5.45-26.58,10.64-30.54S633.19,626.78,642.27,653Z"/>
              <path class="cls-57" d="M639.16,653s.26-22.14-10.9-25.55S634.75,641.85,639.16,653Z"/>
              <path class="cls-57" d="M635.52,653s-9-9.07-26.13-9.67S624.88,636.3,635.52,653Z"/>
              <path class="cls-57" d="M634.05,653a32.62,32.62,0,0,0-24.74-9.52C593.74,644.23,630.25,649.79,634.05,653Z"/>
            </g>
            <path class="cls-57" d="M-21.24,566.67c168.06,4.94,303.8,7.74,393.19,9.35,306.6,5.52,324.67,1.67,495.18,8.57,111.4,4.51,223.07,6.91,334.28,12.86,20.4,1.09,90.46,5,183.5,3.69,11-.15,20-.34,25.66-.47l2.91,13.85L-2.29,589.82Z"/>
            <g>
              <path class="cls-57" d="M127.78,571.43s6.81-3.86,19.94-4.81-14.11-5.07-23.83,4.81C123.89,571.43,119.51,575.82,127.78,571.43Z"/>
              <path class="cls-57" d="M109.3,572s19.94-12.36,31.61-15.65-11.19-3.57-26.75,6.73C114.16,563.06,106.38,569.23,109.3,572Z"/>
              <path class="cls-57" d="M103.47,572s13.24-20,19.26-22.52-9.54-3.84-19.26,12.5C103.47,562,99.58,570.61,103.47,572Z"/>
              <path class="cls-57" d="M96.42,572s5.1-18.4,10-21.14S87.91,553.86,96.42,572Z"/>
              <path class="cls-57" d="M93.5,572s.24-15.33-10.21-17.69S89.37,564.29,93.5,572Z"/>
              <path class="cls-57" d="M90.09,572s-6.56-17.56-22.61-18S80.13,560.45,90.09,572Z"/>
              <path class="cls-57" d="M88.72,572s-8.59-7.14-23.18-6.59S85.15,569.78,88.72,572Z"/>
            </g>
          </g>
          <path class="cls-56" d="M1237.22,601.72c-12.36-10.5-35.88-4.27-35.88-4.27-9.34-11-25.29-5.15-25.29-5.15-19.12-13.46-33.8-.64-33.8-.64s-4.52-9.76-19.08-13.34a46.22,46.22,0,0,0-27,1.83c-28.08-12.87-41.88,3.28-41.88,3.28-10.68-3.24-18.06-.36-18.06-.36-11.73,4.74-5.25,12.09-5.25,12.09-35.87,3.25-14.13,10.66-14.13,10.66l5.17,1.39,227.57.54,11-2.3C1266.76,600.74,1237.22,601.72,1237.22,601.72Z"/>
          <ellipse class="cls-55" cx="591.59" cy="648.03" rx="27.62" ry="3.53"/>
          <ellipse class="cls-55" cx="915.96" cy="771.24" rx="27.62" ry="3.53"/>
          <ellipse class="cls-55" cx="1006.34" cy="744.99" rx="27.62" ry="3.53"/>
          <g>
            <path class="cls-60" d="M195.13,92.83s.86-6.93,11.68-11.67,19.94-7.29,29.34-1.82,7.4,17.87,5.41,19.33c-3.87,2.83-12.21,6.55-34.46,2.92C193.71,99.4,195.13,92.83,195.13,92.83Z"/>
            <path class="cls-61" d="M145.48,88.05s3-10.45,23.92-16.57,34.57-9.13,46.27.93,5.85,26.92-2.39,29-42.54,3.8-63.22-3C150.06,98.48,142.68,95.36,145.48,88.05Z"/>
            <path class="cls-7" d="M352.61,128.31s1.65-11.66,22.49-19.63,38.4-12.27,56.51-3.07,14.26,30.06,10.42,32.52c-7.45,4.76-23.51,11-66.38,4.9C349.87,139.35,352.61,128.31,352.61,128.31Z"/>
          </g>
          <ellipse class="cls-20" cx="461.3" cy="752.06" rx="19.5" ry="3.53"/>
          <path class="cls-56" d="M1415.72,602.45c-10.83-8.81-31.24-3.38-31.24-3.38-8.2-9.26-22-4.19-22-4.19-16.72-11.28-29.41-.32-29.41-.32s-4-8.24-16.68-11.18a41.24,41.24,0,0,0-23.45,1.73c-24.52-10.71-36.42,3.06-36.42,3.06-9.32-2.67-15.72-.18-15.72-.18-10.17,4.09-4.48,10.28-4.48,10.28-31.18,3-12.22,9.12-12.22,9.12l4.51,1.15,198-1.06,9.52-2C1441.41,601.43,1415.72,602.45,1415.72,602.45Z"/>
          <ellipse class="cls-20" cx="537.3" cy="772.25" rx="19.5" ry="3.53"/>
          <ellipse class="cls-20" cx="2148.7" cy="609.83" rx="11.5" ry="1.51"/>
          <g>
            <ellipse class="cls-62" cx="2049.97" cy="781.68" rx="64.95" ry="12.88"/>
            <g>
              <g>
                <path class="cls-63" d="M2079.73,764.58c2.38,1,3.85,2.66,5.59,4.4,9.89,9.88,24.6-2.58,33.64-8.28a17.15,17.15,0,0,0-5.55-6.37,87,87,0,0,0-20.95-3.84C2084,750.08,2080.89,758.13,2079.73,764.58Z"/>
                <path class="cls-63" d="M2040.31,755.29c-.9-5.45-3.25-11.37-8.76-15.57-4.11-3.13-9.15-4.23-14.51-4.34-9.28,3.43-21.64,10.64-28.77,16.25a8,8,0,0,0-2.75,3.78A211.83,211.83,0,0,0,2020,771a88,88,0,0,0,16.67,4.27A31,31,0,0,0,2040.31,755.29Z"/>
                <path class="cls-64" d="M2085.39,742.76c-19.63-5.73-40.51-10-62.09-9.17a35.37,35.37,0,0,0-6.26,1.79c5.36.11,10.4,1.21,14.51,4.34,5.51,4.2,7.86,10.12,8.76,15.57a31,31,0,0,1-3.64,20,48.81,48.81,0,0,0,5,.43c9.38.31,14.5-2.87,20.5-7.2,3.55-2.57,8.2-5,13.74-4.74a11.58,11.58,0,0,1,3.81.8c1.16-6.45,4.23-14.5,12.73-14.09a87,87,0,0,1,20.95,3.84C2106.29,749,2094.65,745.46,2085.39,742.76Z"/>
              </g>
              <path class="cls-65" d="M2048.47,775.24a30.56,30.56,0,0,1-6.79.48c-7.65-.25-15-2.4-21.68-4.7a211.83,211.83,0,0,1-34.48-15.61c-1,3.06-.06,6.54,1.16,9.56a40,40,0,0,0,6.52,11.52c7.59,8.79,21.77,9.83,35.54,10.93,4.14.33,12.25.86,21.9.91-.27-2.21-.59-4.42-.91-6.63C2049.43,779.69,2049.69,777.14,2048.47,775.24Z"/>
              <g>
                <path class="cls-64" d="M2061.84,774.27c.14-1.91.26-3.93.58-5.93l-.24.18c-4.38,3.15-8.29,5.69-13.71,6.72,1.22,1.9,1,4.45,1.26,6.46.32,2.21.64,4.42.91,6.63,3.68,0,7.58,0,11.56-.19l-.06-.18C2060.74,783.61,2061.53,778.66,2061.84,774.27Z"/>
                <path class="cls-66" d="M2119,760.7c-8,5-20.46,15.38-30.07,10.82-.6,1.21-1.19,2.42-1.79,3.62-1.83,3.69-3.39,7.55-5.37,11.25,7.31-1.12,14.19-2.8,19.76-5.31s16.09-7.07,17.72-12.47a1,1,0,0,0,.33-.48A10.75,10.75,0,0,0,2119,760.7Z"/>
              </g>
              <g>
                <path class="cls-65" d="M2071.73,778.38c.14-2,.78-4.21.62-6.25-.21-2.79-1.8-3.85-4-5.53l-.12,0c-.94.18-1.52-.36-1.44-.87a30.23,30.23,0,0,0-4.33,2.59c-.32,2-.44,4-.58,5.93-.31,4.39-1.1,9.34.3,13.69l.06.18c3-.12,6.06-.3,9.1-.55C2070.72,784.66,2071.55,781,2071.73,778.38Z"/>
                <path class="cls-65" d="M2085,770.77a21.31,21.31,0,0,1,1.87,4.91l.26-.54c.6-1.2,1.19-2.41,1.79-3.62a12.44,12.44,0,0,1-3.57-2.54c-2.51-2.5-4.44-4.93-9.4-5.2a17.78,17.78,0,0,0-6.72,1C2076.8,763.38,2082.09,765.36,2085,770.77Z"/>
                <path class="cls-65" d="M2086.84,775.68a21.31,21.31,0,0,0-1.87-4.91c-2.88-5.41-8.17-7.39-15.77-6a23.24,23.24,0,0,0-2.45,1c-.08.51.5,1,1.44.87l.12,0c2.24,1.68,3.83,2.74,4,5.53.16,2-.48,4.2-.62,6.25-.18,2.62-1,6.28-.43,9.21,3.51-.29,7-.68,10.43-1.2C2083.61,782.87,2085.12,779.2,2086.84,775.68Z"/>
              </g>
              <path class="cls-67" d="M2103.53,767.7c-2.05.93-4,2-6,2.89a11.75,11.75,0,0,1-5.29,1.29h-.13a.18.18,0,0,1-.1,0h-.09a4.61,4.61,0,0,1-1.11-.19h0l0,0a5.11,5.11,0,0,1-2.37-1.64c-.72-.84-2.67-4.68-6.16-6.49a5.56,5.56,0,0,0-2.12-.54,24.28,24.28,0,0,0-4.37.13,31.84,31.84,0,0,0-11.51,3.59c-.82.41-2.3,1.29-4.17,2.26H2060a40.27,40.27,0,0,1-9.65,3.89,44.16,44.16,0,0,1-12.77.74h0c-.75,0-1.4-.09-1.92-.13-4-.35-8.93-1.81-13.51-3.4H2022c-1.45-.5-2.85-1-4.22-1.53-6-2.19-10.41-4.9-12.19-5.44-3.17-1-12.66-3.51-16.94-6.39-2.31-1.57-1.17-4.28-1.13-4.43l0,0h0c-1.62,1.18-2.43,2.37-2.14,3.62.25,1.07,1.29,2.17,3.27,3.39,4.76,2.91,11,4.5,14.33,6.33,2,1.09,4.27,3.63,7.67,4.51a30.18,30.18,0,0,0,5.45.54h.05a31.72,31.72,0,0,1,3.58.24h0l.08,0a1.22,1.22,0,0,0,.17.07s0,0,0,0l.71.23a5.42,5.42,0,0,0,.78.11c.7.26,1.44.54,2.08.82l0,0,0,0a4.61,4.61,0,0,1,1.55,1c.41.51,2.56,5.31,3.65,7.29a12.51,12.51,0,0,0,.65,1.25c.52.86.07-5.19.07-6.2a18.7,18.7,0,0,0,2.16.5,34,34,0,0,0,12.32-.32h.07c.86-.17,1.72-.36,2.56-.56l.13.35c1,2.8,3.3,9,3.31,9,.69-3.78,1.2-6.79.39-8.49,2.26-2.09,6.15-3.53,8.37-4.67,1.09-.56,2.2-1.23,3.38-1.89l.72-.39a25,25,0,0,1,5.55-2.3,22.11,22.11,0,0,1,6.42-.67,12.7,12.7,0,0,1,9.33,4.65,5.79,5.79,0,0,1,.87,1.69c1.05,3.45-1.12,7.75-1.61,10.27v0h0c3.33-2.41,9.09-6.71,12.68-8.93a15.82,15.82,0,0,1,1.49-.82h0c4.9-2.56,13.06-5.27,16.8-9.35,0,0,0,0,0,0C2115.39,762.71,2105.81,766.5,2103.53,767.7Z"/>
              <path class="cls-66" d="M2040.13,788.09c-1-1.54-6.93-1.89-9.79-2.75-1.74-.52-2-1.87-3.8-2.3a46.54,46.54,0,0,0-8.13-.95c-2.56-.21-2.57-1.33-3.31-2.13-1.63-1.74-3.59-3.76-6.19-3.78-1,0-1.29.77-.73,1.22,1.34,1,3.7,4.16,1.58,4.15-1.06,0-3.59-1.37-4.52-1.54-2.51-.54-6.71-.88-11.27-4.86-.28-.24-.56-.5-.85-.78-1.42-1.36-2.48-4.39-4.71-5.44h0a.15.15,0,0,0,0,.09l0,.06a.14.14,0,0,0,0,.06c.31.63.6,1.19.89,1.73a27.46,27.46,0,0,0,2.93,4.86c.13.17.26.34.39.49a5.75,5.75,0,0,0,1.88,1.94,25.25,25.25,0,0,0,5.42,3.59,18.15,18.15,0,0,0,1.8.84l1.15.47,1.19.47a47.42,47.42,0,0,0,9.24,2.54c3.86.75,22.64,2,26.76,2Z"/>
              <path class="cls-67" d="M2048.16,733.78a111.32,111.32,0,0,0-17.8-.53c-5.29.27-12.58.17-16.76,2.51-2.62,1.49-6.52,3.62-9.65,5.75,0,0,0,0,0,0,5.94-1.3,7.54-2.67,11.2-3.64,1.86,0,3.75-1.33,5.71-1.25,3.84.13,7,3.21,9.46,4.93a23.63,23.63,0,0,1,10.26,15.92.42.42,0,0,1,0,.19c0,.17.05.36.08.52,2.07-3,1.44-7.42.52-10.7-.65-2.25-1.91-5.13.91-6.92,1.34-.86,4.65-1.35,6.45-1.59,11.4-1.55,31.38,4.77,36.83,3.78C2074.75,738.43,2060.42,735.14,2048.16,733.78Z"/>
            </g>
          </g>
          <g>
            <ellipse class="cls-62" cx="2879.83" cy="666.31" rx="43.45" ry="8.62"/>
            <g>
              <g>
                <path class="cls-63" d="M2899.74,654.87a11.47,11.47,0,0,1,3.74,3c6.61,6.61,16.46-1.73,22.5-5.54a11.39,11.39,0,0,0-3.71-4.26,57.85,57.85,0,0,0-14-2.57C2902.57,645.18,2900.52,650.56,2899.74,654.87Z"/>
                <path class="cls-63" d="M2873.37,648.66a15.89,15.89,0,0,0-5.86-10.41,16.08,16.08,0,0,0-9.71-2.91,83.09,83.09,0,0,0-19.25,10.88,5.29,5.29,0,0,0-1.83,2.52,141.43,141.43,0,0,0,23.06,10.44,58.59,58.59,0,0,0,11.15,2.86A20.77,20.77,0,0,0,2873.37,648.66Z"/>
                <path class="cls-64" d="M2903.53,640.28c-13.14-3.83-27.1-6.68-41.54-6.13a24,24,0,0,0-4.19,1.19,16.08,16.08,0,0,1,9.71,2.91,15.89,15.89,0,0,1,5.86,10.41,20.77,20.77,0,0,1-2.44,13.38c1.11.15,2.22.25,3.35.29,6.28.21,9.7-1.92,13.72-4.82a14.38,14.38,0,0,1,9.19-3.17,8.13,8.13,0,0,1,2.55.53c.78-4.31,2.83-9.69,8.52-9.42a57.85,57.85,0,0,1,14,2.57C2917.51,644.43,2909.72,642.09,2903.53,640.28Z"/>
              </g>
              <path class="cls-65" d="M2878.83,662a20.73,20.73,0,0,1-4.55.32,50.25,50.25,0,0,1-14.5-3.15,141.43,141.43,0,0,1-23.06-10.44c-.69,2,0,4.38.77,6.4a26.78,26.78,0,0,0,4.36,7.7c5.08,5.88,14.56,6.58,23.78,7.31,2.77.22,8.2.58,14.65.61-.18-1.48-.4-3-.61-4.43S2879.65,663.28,2878.83,662Z"/>
              <g>
                <path class="cls-64" d="M2887.78,661.36c.09-1.28.17-2.63.38-4l-.16.12c-2.93,2.11-5.54,3.81-9.17,4.5.82,1.27.64,3,.84,4.32s.43,2.95.61,4.43c2.46,0,5.07,0,7.74-.12a.5.5,0,0,1-.05-.13C2887,667.61,2887.57,664.3,2887.78,661.36Z"/>
                <path class="cls-66" d="M2926,652.28c-5.35,3.38-13.68,10.29-20.11,7.24l-1.2,2.42c-1.23,2.47-2.27,5-3.59,7.52a51.79,51.79,0,0,0,13.22-3.54c3.8-1.71,10.76-4.74,11.85-8.35a.62.62,0,0,0,.22-.32A7.16,7.16,0,0,0,2926,652.28Z"/>
              </g>
              <g>
                <path class="cls-65" d="M2894.39,664.11a29.9,29.9,0,0,0,.42-4.18c-.15-1.87-1.21-2.58-2.71-3.7H2892c-.63.12-1-.24-1-.58a19.84,19.84,0,0,0-2.9,1.73c-.21,1.34-.29,2.69-.38,4-.21,2.94-.75,6.25.19,9.15a.5.5,0,0,0,.05.13c2-.08,4.05-.2,6.08-.37C2893.71,668.31,2894.27,665.86,2894.39,664.11Z"/>
                <path class="cls-65" d="M2903.24,659a14.56,14.56,0,0,1,1.26,3.28l.17-.36,1.2-2.42a8.3,8.3,0,0,1-2.39-1.7c-1.68-1.68-3-3.3-6.29-3.48a11.79,11.79,0,0,0-4.49.65C2897.78,654.08,2901.32,655.4,2903.24,659Z"/>
                <path class="cls-65" d="M2904.5,662.3a14.56,14.56,0,0,0-1.26-3.28c-1.92-3.62-5.46-4.94-10.54-4a14.06,14.06,0,0,0-1.64.67c-.06.34.33.7,1,.58h.08c1.5,1.12,2.56,1.83,2.71,3.7a29.9,29.9,0,0,1-.42,4.18c-.12,1.75-.68,4.2-.29,6.16,2.35-.2,4.7-.46,7-.81C2902.34,667.11,2903.35,664.66,2904.5,662.3Z"/>
              </g>
              <path class="cls-67" d="M2915.66,657c-1.37.63-2.67,1.31-4,1.94a8,8,0,0,1-3.54.86h-.22a2.94,2.94,0,0,1-.73-.13h0a3.41,3.41,0,0,1-1.59-1.1c-.48-.56-1.79-3.13-4.12-4.34a3.85,3.85,0,0,0-1.42-.36,15.65,15.65,0,0,0-2.92.09,21.26,21.26,0,0,0-7.7,2.4c-.55.27-1.54.86-2.79,1.51h0a26.82,26.82,0,0,1-6.45,2.6,29.55,29.55,0,0,1-8.54.5h0c-.51,0-.94-.06-1.28-.09a40.7,40.7,0,0,1-9-2.27h0c-1-.34-1.91-.69-2.82-1-4-1.46-7-3.27-8.16-3.64-2.12-.65-8.47-2.35-11.33-4.27a2.46,2.46,0,0,1-.76-3s0,0,0,0h0c-1.08.79-1.63,1.59-1.43,2.43s.86,1.45,2.19,2.26c3.18,1.95,7.37,3,9.58,4.24,1.32.72,2.86,2.42,5.13,3a19.78,19.78,0,0,0,3.65.36h0a22.72,22.72,0,0,1,2.39.16h0a.06.06,0,0,0,.05,0l.11.05h0l.48.15a2.62,2.62,0,0,0,.52.07l1.39.55s0,0,0,0h0a3,3,0,0,1,1,.64c.27.34,1.71,3.55,2.44,4.87.13.28.26.55.43.84.35.58.05-3.47.05-4.15a12.67,12.67,0,0,0,1.45.34,22.84,22.84,0,0,0,8.24-.21h0v0h0c.57-.11,1.15-.23,1.7-.37a1.34,1.34,0,0,1,.09.24c.71,1.87,2.21,6,2.22,6,.46-2.52.8-4.54.26-5.67,1.51-1.4,4.11-2.37,5.6-3.13.73-.38,1.47-.83,2.26-1.26l.48-.27a16.9,16.9,0,0,1,3.72-1.53,14.14,14.14,0,0,1,4.29-.45,8.45,8.45,0,0,1,6.24,3.11,3.91,3.91,0,0,1,.59,1.12c.7,2.32-.76,5.19-1.08,6.88h0c2.23-1.61,6.08-4.48,8.48-6a9.35,9.35,0,0,1,1-.55h0c3.28-1.72,8.74-3.53,11.24-6.25v0C2923.6,653.62,2917.19,656.16,2915.66,657Z"/>
              <path class="cls-66" d="M2873.25,670.6c-.7-1-4.64-1.26-6.55-1.84-1.16-.35-1.37-1.25-2.55-1.53a31.35,31.35,0,0,0-5.43-.64c-1.72-.14-1.72-.89-2.22-1.43-1.08-1.16-2.4-2.51-4.14-2.52-.64,0-.86.51-.48.81.89.69,2.47,2.79,1,2.78-.71,0-2.4-.92-3-1a14.07,14.07,0,0,1-7.54-3.25c-.19-.16-.38-.34-.57-.52-1-.92-1.66-2.94-3.15-3.64h0a.33.33,0,0,0,0,.06l0,0a0,0,0,0,0,0,0c.21.43.4.8.59,1.17a18.73,18.73,0,0,0,2,3.25,4,4,0,0,0,.26.32,3.7,3.7,0,0,0,1.26,1.3,16.14,16.14,0,0,0,3.62,2.4,13,13,0,0,0,1.2.57l.77.31.8.31a31.61,31.61,0,0,0,6.18,1.7c2.58.5,15.15,1.35,17.9,1.38Z"/>
              <path class="cls-67" d="M2878.62,634.27a74,74,0,0,0-11.91-.35c-3.54.17-8.42.11-11.21,1.67-1.75,1-4.36,2.43-6.45,3.86h0c4-.88,5-1.79,7.49-2.44,1.25,0,2.51-.89,3.82-.84,2.57.09,4.67,2.15,6.33,3.3a15.84,15.84,0,0,1,6.86,10.66.23.23,0,0,1,0,.12l.06.35c1.38-2,1-5,.34-7.16-.43-1.5-1.27-3.43.62-4.63a13.92,13.92,0,0,1,4.3-1.06c7.63-1,21,3.19,24.65,2.52A100.43,100.43,0,0,0,2878.62,634.27Z"/>
            </g>
          </g>
          <g>
            <g>
              <ellipse class="cls-62" cx="177.01" cy="640.26" rx="64.95" ry="12.88"/>
              <g>
                <g>
                  <path class="cls-63" d="M206.77,623.16c2.38,1,3.85,2.67,5.59,4.41,9.89,9.87,24.6-2.58,33.64-8.28a17.25,17.25,0,0,0-5.55-6.38,87,87,0,0,0-20.95-3.83C211,608.67,207.93,616.72,206.77,623.16Z"/>
                  <path class="cls-63" d="M167.35,613.88c-.9-5.45-3.25-11.37-8.76-15.57-4.1-3.13-9.15-4.23-14.51-4.34-9.27,3.43-21.63,10.64-28.77,16.25a8,8,0,0,0-2.75,3.78A212.22,212.22,0,0,0,147,629.61a88.14,88.14,0,0,0,16.67,4.27A31,31,0,0,0,167.35,613.88Z"/>
                  <path class="cls-64" d="M212.43,601.35c-19.63-5.73-40.5-10-62.09-9.17a35.37,35.37,0,0,0-6.26,1.79c5.36.11,10.41,1.21,14.51,4.34,5.51,4.2,7.86,10.12,8.76,15.57a31,31,0,0,1-3.64,20c1.65.22,3.32.37,5,.43,9.38.31,14.5-2.87,20.5-7.21,3.55-2.56,8.2-5,13.74-4.73a11.8,11.8,0,0,1,3.81.79c1.16-6.44,4.23-14.49,12.73-14.08a87,87,0,0,1,20.95,3.83C233.33,607.56,221.69,604.05,212.43,601.35Z"/>
                </g>
                <path class="cls-65" d="M175.51,633.83a31.12,31.12,0,0,1-6.79.48c-7.65-.25-14.95-2.4-21.68-4.7A212.22,212.22,0,0,1,112.56,614c-1,3.06-.06,6.54,1.16,9.56a39.77,39.77,0,0,0,6.52,11.51c7.59,8.79,21.77,9.84,35.55,10.94,4.13.32,12.25.85,21.9.91-.28-2.21-.6-4.42-.92-6.63C176.47,638.28,176.73,635.73,175.51,633.83Z"/>
                <g>
                  <path class="cls-64" d="M188.89,632.85c.13-1.9.25-3.92.57-5.92l-.24.17c-4.37,3.16-8.28,5.7-13.71,6.73,1.22,1.9,1,4.45,1.26,6.46.32,2.21.64,4.42.92,6.63,3.67,0,7.57,0,11.56-.19a1.34,1.34,0,0,1-.07-.18C187.78,642.2,188.57,637.25,188.89,632.85Z"/>
                  <path class="cls-66" d="M246,619.29c-8,5.05-20.46,15.38-30.07,10.82l-1.79,3.62c-1.83,3.68-3.39,7.55-5.37,11.24,7.31-1.11,14.19-2.79,19.76-5.3s16.09-7.07,17.72-12.47a1,1,0,0,0,.33-.48A10.75,10.75,0,0,0,246,619.29Z"/>
                </g>
                <g>
                  <path class="cls-65" d="M198.77,637c.15-2.05.78-4.2.62-6.24-.21-2.79-1.8-3.85-4-5.53l-.12,0c-.94.18-1.52-.37-1.44-.87a30.79,30.79,0,0,0-4.33,2.59c-.32,2-.44,4-.57,5.92-.32,4.4-1.11,9.35.29,13.7a1.34,1.34,0,0,0,.07.18c3-.12,6.05-.3,9.09-.55C197.76,643.25,198.59,639.58,198.77,637Z"/>
                  <path class="cls-65" d="M212,629.36a21.31,21.31,0,0,1,1.87,4.91l.26-.54,1.79-3.62a12.78,12.78,0,0,1-3.57-2.54c-2.51-2.51-4.44-4.94-9.4-5.2a17.7,17.7,0,0,0-6.71,1C203.84,622,209.13,624,212,629.36Z"/>
                  <path class="cls-65" d="M213.88,634.27a21.31,21.31,0,0,0-1.87-4.91c-2.88-5.41-8.17-7.39-15.76-6a22.2,22.2,0,0,0-2.46,1c-.08.5.5,1,1.44.87l.12,0c2.24,1.68,3.83,2.74,4,5.53.16,2-.47,4.19-.62,6.24-.18,2.62-1,6.29-.43,9.22,3.52-.29,7-.69,10.43-1.21C210.66,641.46,212.16,637.79,213.88,634.27Z"/>
                </g>
                <path class="cls-67" d="M230.57,626.29c-2,.93-4,2-6,2.89a11.72,11.72,0,0,1-5.29,1.29.3.3,0,0,1-.13,0,.18.18,0,0,1-.1,0h-.09a4,4,0,0,1-1.1-.18h0l0,0a5.06,5.06,0,0,1-2.37-1.65c-.72-.84-2.67-4.67-6.16-6.48a5.56,5.56,0,0,0-2.12-.54,24.28,24.28,0,0,0-4.37.13,31.84,31.84,0,0,0-11.51,3.59c-.82.41-2.3,1.29-4.17,2.26H187a40.11,40.11,0,0,1-9.65,3.89,44.16,44.16,0,0,1-12.77.74h0c-.75,0-1.4-.09-1.92-.13-4.05-.35-8.93-1.81-13.51-3.4h0c-1.46-.5-2.86-1-4.22-1.53-6-2.19-10.42-4.9-12.2-5.44-3.17-1-12.66-3.51-16.94-6.39-2.31-1.57-1.17-4.28-1.13-4.43l0,0h0c-1.63,1.17-2.44,2.37-2.14,3.62.24,1.07,1.28,2.17,3.26,3.38,4.77,2.92,11,4.51,14.34,6.34,2,1.08,4.26,3.63,7.66,4.5a29.27,29.27,0,0,0,5.46.55h0a31.72,31.72,0,0,1,3.58.24h0a.16.16,0,0,0,.09,0l.16.07s0,0,0,0l.7.23a5.63,5.63,0,0,0,.78.11c.7.26,1.44.54,2.08.82a.06.06,0,0,0,.05,0v0a4.61,4.61,0,0,1,1.55.95c.41.51,2.56,5.31,3.65,7.29a12.51,12.51,0,0,0,.65,1.25c.52.86.07-5.19.07-6.2a18.39,18.39,0,0,0,2.17.5,34,34,0,0,0,12.32-.32h0v0h0c.85-.16,1.71-.35,2.55-.56l.13.36c1,2.8,3.3,9,3.31,9,.7-3.78,1.2-6.79.39-8.49,2.26-2.09,6.15-3.53,8.37-4.67,1.09-.56,2.2-1.23,3.39-1.89l.71-.39a25,25,0,0,1,5.55-2.3,22.11,22.11,0,0,1,6.42-.67,12.72,12.72,0,0,1,9.34,4.65,5.86,5.86,0,0,1,.87,1.68c1,3.46-1.13,7.76-1.61,10.28v0h0c3.34-2.41,9.1-6.71,12.68-8.93a14.86,14.86,0,0,1,1.5-.82h0c4.9-2.56,13.06-5.27,16.8-9.35,0,0,0,0,0,0C242.43,621.3,232.85,625.09,230.57,626.29Z"/>
                <path class="cls-66" d="M167.17,646.68c-1-1.54-6.93-1.89-9.78-2.75-1.74-.53-2.06-1.87-3.81-2.3a46.43,46.43,0,0,0-8.13-1c-2.56-.21-2.57-1.33-3.31-2.13-1.62-1.74-3.59-3.76-6.19-3.78-1,0-1.29.77-.72,1.22,1.34,1,3.69,4.16,1.57,4.14-1.06,0-3.59-1.36-4.51-1.53-2.52-.54-6.72-.88-11.28-4.86q-.42-.36-.84-.78c-1.43-1.37-2.49-4.39-4.72-5.44h0a.19.19,0,0,0,0,.09l0,.06a.09.09,0,0,0,0,.06c.3.63.59,1.19.88,1.73a26.86,26.86,0,0,0,2.94,4.86c.13.17.25.34.38.49a5.69,5.69,0,0,0,1.89,1.94,24.92,24.92,0,0,0,5.41,3.59,18.15,18.15,0,0,0,1.8.84l1.16.47,1.18.47a47.42,47.42,0,0,0,9.24,2.54c3.86.74,22.65,2,26.76,2.05Z"/>
                <path class="cls-67" d="M175.2,592.37a110.17,110.17,0,0,0-17.8-.53c-5.29.26-12.58.17-16.75,2.51-2.63,1.49-6.53,3.62-9.66,5.75,0,0,0,0,0,0,5.94-1.31,7.54-2.67,11.21-3.64,1.85,0,3.75-1.33,5.7-1.25,3.84.13,7,3.21,9.46,4.93a23.59,23.59,0,0,1,10.26,15.92.42.42,0,0,1,0,.19c0,.17.06.35.08.52,2.07-3,1.45-7.42.52-10.71-.65-2.24-1.91-5.12.91-6.91,1.34-.86,4.65-1.35,6.45-1.59,11.4-1.55,31.39,4.77,36.83,3.78C201.79,597,187.46,593.73,175.2,592.37Z"/>
              </g>
            </g>
            <path class="cls-68" d="M246.42,619.27a17.36,17.36,0,0,0-5.55-6.38c-7.13-5.36-18.76-8.86-28-11.56l-.06,0c-10.63-4.32-24.93-7.6-37.18-9a111.25,111.25,0,0,0-17.8-.52c-5.29.26-12.57.17-16.75,2.5-2.62,1.5-6.52,3.63-9.65,5.76h0a122.4,122.4,0,0,0-15.69,10.12c-.26.21-.7.64-.7.64l-.06,0c-1.62,1.18-2.43,2.38-2.14,3.63l0,0c-.75,2.92.15,6.17,1.3,9,.53,1.32,1.1,2.64,1.73,4h0l0,.09,0,.06h0s0,0,0,.05l.05.1.23.46.6,1.18a28,28,0,0,0,2.94,4.86c.13.17.26.34.39.49a5.66,5.66,0,0,0,1.88,1.94,25,25,0,0,0,5.42,3.59c.51.27,1,.5,1.53.71s.91.39,1.38.58l0,0,1.19.46a46.66,46.66,0,0,0,9.24,2.54c3.86.75,22.64,2,26.76,2.06l0,0h0c3.17.13,6.73.22,10.52.24s7.58,0,11.56-.18c3-.12,6.06-.3,9.1-.55,3.51-.3,7-.69,10.43-1.21,7.31-1.11,14.19-2.79,19.76-5.3s16.09-7.08,17.72-12.47a1.12,1.12,0,0,0,.33-.48A10.8,10.8,0,0,0,246.42,619.27Z"/>
          </g>
          <path class="cls-69" d="M2292.36,676.81s-254.82,30.68-179.63,45.48,212.09,19.31,279.61,22.9,244.95-3.7,235.3-4.93S2550.57,729,2499.43,733s-233.84,1.73-270.74-10.74-14.18-24.06,46.78-24.11,265.12,6.71,245,6.26-47.15-8.83-128.13-13.41S2292.36,676.81,2292.36,676.81Z"/>
          <path class="cls-69" d="M2669.39,709.88s195.65,14.83,285.14,20.94,139.1,5.27,139.1,5.27S2840.39,778.45,2669.39,709.88Z"/>
          <g>
            <path class="cls-70" d="M2100.47,687.11,2578,679.8s13.9-48-36.24-24-1.09.7-1.09.7,57-90.1-11.2-69.19c0,0-29.91,11.67-44.39,46,0,0-9.75-50-45-12.8,0,0,12.87-37.47-22.8-18.83,0,0,66.49-60.43-30.58-44.33-30.37,5-35.59,30.72-41.22,43.67,0,0-66.07-8-59,7.24,0,0-18.84-31.49-40.11-10,0,0,7.31-25.51-27.68-26.21,0,0-13-7.77-21.41,14.91,0,0-28.58-15.55-40.71,9.73,0,0-6,10.21,10.43,17.69,0,0-55.66-27.66-68.3,41.5C2098.66,655.91,2033.18,680.6,2100.47,687.11Z"/>
            <path class="cls-70" d="M2660.6,684.49,2948.89,681s8.24-33.24-22-16.74-.65.48-.65.48,34.1-62.35-7-48.06c0,0-18,8-26.65,31.78,0,0-6-34.72-27.23-9,0,0,7.65-26-13.82-13.14,0,0,27.93-58.62-15.72-47.66,0,0-12.36,2.51-24.6,25.86,0,0-18-43.57-37.76-6.53,0,0-4.54,13.66-.23,24.28,0,0-12.13-13.72-24.9,1.13,0,0,10.38-37.71-17.17-34.59,0,0-14.82-4.48-12.5,26.58,0,0-23.11-27.44-27.39.07,0,0-.72,13.63,9.2,18.87,0,0-33.7-19.38-41.1,28.58C2659.42,662.82,2620,679.75,2660.6,684.49Z"/>
            <path class="cls-71" d="M2369,687.89l477.84.76s27-96.21-22.51-53.81-11,6.09-11,6.09,26.95-89.59-35-69.48c0,0-12.39-32.85-25.87,29.49,0,0,2.56-68.94-41.44-33.94,0,0,26-63-7.54-52.63,0,0,22.8-74.92-38.46-89.37,0,0-40-5-46,25,0,0-38.26-39.71-65.84,13.7,0,0-30.16-4.7-32.16,16.3,0,0,4-40-33-36,0,0-34,1-27,45,0,0-28.5-22.86-39,28,0,0-3,4,0,23,0,0-77-25-55.73,90.76C2366.27,630.76,2301.45,674,2369,687.89Z"/>
            <path class="cls-72" d="M2668.6,693l184.64-3.24s5.45-16.52-14-8.19-.42.24-.42.24,22.16-31.08-4.23-23.79a33.15,33.15,0,0,0-17.23,15.89s-3.69-17.17-17.39-4.33c0,0,5-12.91-8.78-6.44,0,0,18.19-29.21-9.82-23.55,0,0-7.93,1.31-15.89,12.94,0,0-11.31-21.5-24.15-3,0,0-3,6.79-.28,12a11.84,11.84,0,0,0-16,.69s6.85-18.74-10.81-17.05c0,0-9.47-2.15-8.15,13.24,0,0-14.65-13.49-17.54.17,0,0-.53,6.76,5.8,9.31,0,0-21.48-9.44-26.47,14.38C2668,682.25,2642.59,690.84,2668.6,693Z"/>
            <path class="cls-72" d="M2253.6,692l184.64-3.24s5.45-16.52-14-8.19-.42.24-.42.24,22.16-31.08-4.23-23.79a33.15,33.15,0,0,0-17.23,15.89s-3.69-17.17-17.39-4.33c0,0,5-12.91-8.78-6.44,0,0,18.19-29.21-9.82-23.55,0,0-7.93,1.31-15.89,12.94,0,0-11.31-21.5-24.15-3,0,0-3,6.79-.28,12a11.84,11.84,0,0,0-16,.69s6.85-18.74-10.81-17.05c0,0-9.47-2.15-8.15,13.24,0,0-14.65-13.49-17.54.17,0,0-.53,6.76,5.8,9.31,0,0-21.48-9.44-26.47,14.38C2253,681.25,2227.59,689.84,2253.6,692Z"/>
          </g>
        </g>
      </g>
    </g>
  </g>
</svg>
