<svg id="Layer_1" data-name="Layer 1" xmlns="http://www.w3.org/2000/svg" width="512" height="528.35" viewBox="0 0 512 528.35">
  <defs>
    <style>
      .cls-1 {
        fill: none;
        stroke: #fff;
        stroke-miterlimit: 10;
        stroke-width: 2px;
        stroke-dasharray: 12 12;
      }

      .cls-2 {
        fill: #fff;
      }
    </style>
  </defs>
  <g>
    <g>
      <line class="cls-1" x1="302.71" y1="100.1" x2="303.15" y2="136.21"/>
      <polygon class="cls-2" points="293.14 133.41 303.32 150.56 313.08 133.17 293.14 133.41"/>
    </g>
    <g>
      <path class="cls-1" d="M304.3,156.11c-127.84-55.27-195.11,111.92-23,84.14"/>
      <polygon class="cls-2" points="280.16 250.51 295.39 237.64 276.63 230.88 280.16 250.51"/>
    </g>
    <g>
      <path class="cls-1" d="M292.9,237.64c88.89-9.32,23.56,177.75-95.28,112.13"/>
      <polygon class="cls-2" points="205.34 342.62 185.4 342.24 195.04 359.69 205.34 342.62"/>
    </g>
    <g>
      <path class="cls-1" d="M182.55,335.61c-24.09-26.77,66.78-75.68,127.89,79.2"/>
      <polygon class="cls-2" points="300.04 415.62 315.47 428.25 318.69 408.56 300.04 415.62"/>
    </g>
  </g>
</svg>
