<svg id="Layer_1" data-name="Layer 1" xmlns="http://www.w3.org/2000/svg" width="512" height="528.35" viewBox="0 0 512 528.35">
  <defs>
    <style>
      .cls-1 {
        fill: #dd35ef;
      }
    </style>
  </defs>
  <path class="cls-1" d="M382.14,110.81V78H129.86l.38,32.77h146v27.57c-25-3.9-66.13-6.51-91.56,11.66a64.41,64.41,0,0,0-26.4,45c-3.06,24.7,10.16,47.09,21.58,56.3.42.35.86.68,1.3,1a54.37,54.37,0,0,0,11.4,6.51,72.75,72.75,0,0,0,12.45,4,98,98,0,0,0,12.66,2c4,.36,8,.51,12,.48,1.5,0,3,0,4.49-.1a147.76,147.76,0,0,0,15.73-1.42,94.91,94.91,0,0,0,12.25-2.81,147.36,147.36,0,0,1,14.79-3.71c4.53-.81,9.76-1.6,14.32-.73,4.38.84,8.27,2,11.21,5.08,4.08,4.21,5.11,7.57,5.08,13.16,0,1.34,0,1.05-.16,3.37-.06,1.43-.16,1.66-.46,5.86-.15,2.12-.43,4.24-.74,6.35a83.74,83.74,0,0,1-5.89,21.21c-.55,1.25-1.13,2.49-1.75,3.71a74.4,74.4,0,0,1-7.48,11.84,53.76,53.76,0,0,1-8.23,9,39.87,39.87,0,0,1-7.51,4.6c-1.36.67-2.77,1.26-4.18,1.85-1.1.47-2.75,1.76-3.72.4h0l-.73-1q-2.9-4.06-6-8a142.43,142.43,0,0,0-12.54-14.17,86.21,86.21,0,0,0-13.57-11,61.59,61.59,0,0,0-15.06-7.08,57.57,57.57,0,0,0-16.87-2.49H201.6c-30.63.53-43.58,15.52-45.48,29.38-2.58,18.77,13.67,36.63,39.51,43.44,22.05,5.8,52.9,5.27,69.45,3.25,3.46,5.54,20.19,51.18,33.25,75h0l27-18C312.6,415.57,301.61,397.48,291,380c-1.93-3.16-3.82-6.28-5.71-9.37A86.34,86.34,0,0,0,302.75,361c.57-.4,1.13-.82,1.69-1.24a81.49,81.49,0,0,0,21.86-25.08,88,88,0,0,0,6.85-15.54,99,99,0,0,0,4-17.37A110.26,110.26,0,0,0,338.27,283a74.43,74.43,0,0,0-1.8-13.61,32.7,32.7,0,0,0-2.19-7.33,73.48,73.48,0,0,0-5.42-12.09,44.07,44.07,0,0,0-6-7.92c-3.1-3.15-3.8-3.7-8.24-6.46a64.21,64.21,0,0,0-10.73-4.94,59.85,59.85,0,0,0-13.64-3.6,41.92,41.92,0,0,0-10.53-.21c-1.31.09-4.65.55-5.95.77-5,.86-8.38,1.66-13.21,2.76A126.15,126.15,0,0,1,245,232.87c-1.56.15-3.12.27-4.69.34-5.41.28-10.83.15-16.23-.07a127.18,127.18,0,0,1-18.59-2c-5.29-1-11.19-2.43-15.37-5.82-2.54-2.06-10.19-9.2-8.94-27.48.81-11.94,8-20.42,11.76-23.11,19.82-14.2,78.21-6,93.61-2.07,0,0,9.52,3.49,17.05.89,6.44-2.22,5.69-10.5,5.69-10.5V110.81ZM204.59,342.17c-5.49-1.45-8.11-3.1-10-5.5-3.81-4.81-.25-32.65,50.47,10.85C237.23,346.69,230,348.3,204.59,342.17Z"/>
</svg>
