<svg id="Layer_1" data-name="Layer 1" xmlns="http://www.w3.org/2000/svg" width="512" height="528.35" viewBox="0 0 512 528.35">
  <defs>
    <style>
      .cls-1 {
        fill: #8436ff;
      }
    </style>
  </defs>
  <path class="cls-1" d="M285.18,94.43l0,27.57c-25-3.91-66.14-6.51-91.57,11.66a64.42,64.42,0,0,0-26.4,45c-3.05,24.7,10.17,47.09,21.58,56.3.43.34.86.68,1.3,1a54.37,54.37,0,0,0,11.4,6.51,71.68,71.68,0,0,0,12.46,4,97.85,97.85,0,0,0,12.65,2c4,.36,8,.5,12,.48,1.5,0,3,0,4.49-.1a150.85,150.85,0,0,0,15.74-1.42A96.09,96.09,0,0,0,271,244.55a152.45,152.45,0,0,1,14.8-3.71c4.53-.8,9.75-1.59,14.32-.72,4.37.83,8.27,2,11.21,5.08,4.07,4.21,5.11,7.57,5.08,13.15,0,1.35-.05,1-.16,3.38-.07,1.43-.16,1.65-.46,5.85-.15,2.13-.44,4.25-.75,6.36a83,83,0,0,1-5.89,21.21c-.54,1.25-1.12,2.48-1.74,3.7A73.32,73.32,0,0,1,300,310.69a53.38,53.38,0,0,1-8.23,9,39.28,39.28,0,0,1-7.5,4.6c-1.37.68-2.77,1.26-4.18,1.86-1.11.47-2.76,1.76-3.72.4h0l-.74-1q-2.89-4.08-6-8a142.39,142.39,0,0,0-12.54-14.18,86.07,86.07,0,0,0-13.56-10.95,61.48,61.48,0,0,0-15.07-7.08,57.46,57.46,0,0,0-16.86-2.49h-1.06c-30.64.52-43.59,15.52-45.48,29.37-2.58,18.78,13.67,36.64,39.5,43.45,22.06,5.8,52.9,5.26,69.45,3.25,3.47,5.53,20.19,51.17,33.26,75h0l27-18c-12.71-16.77-23.69-34.86-34.31-52.35-1.92-3.16-3.81-6.29-5.71-9.37a87.42,87.42,0,0,0,17.47-9.67c.56-.41,1.13-.82,1.68-1.24a81.49,81.49,0,0,0,21.86-25.08,87.3,87.3,0,0,0,6.85-15.54,99.18,99.18,0,0,0,4.05-17.38,109.13,109.13,0,0,0,1.07-18.77,73.68,73.68,0,0,0-1.8-13.61,32.08,32.08,0,0,0-2.18-7.32,73.94,73.94,0,0,0-5.42-12.09,44.66,44.66,0,0,0-6-7.93c-3.11-3.15-3.81-3.69-8.24-6.46a64.21,64.21,0,0,0-10.73-4.94,60,60,0,0,0-13.65-3.6,41.93,41.93,0,0,0-10.53-.2c-1.31.09-4.65.54-5.94.77-4.95.85-8.38,1.65-13.22,2.75A125.68,125.68,0,0,1,254,216.48c-1.56.16-3.13.27-4.69.35-5.41.27-10.83.14-16.24-.08a126,126,0,0,1-18.59-2c-5.28-1-11.19-2.43-15.36-5.81-2.54-2.06-10.2-9.2-9-27.49.82-11.93,8-20.42,11.77-23.11,19.82-14.19,78.2-6,93.61-2.06,0,0,9.51,3.49,17,.89,6.45-2.22,5.7-10.5,5.7-10.5l0-52.23M213.51,325.78c-5.5-1.44-8.12-3.1-10-5.5-3.8-4.81-.25-32.64,50.48,10.86C246.15,330.3,238.91,331.91,213.51,325.78Z"/>
</svg>
