<svg id="Layer_1" data-name="Layer 1" xmlns="http://www.w3.org/2000/svg" width="512" height="512" viewBox="0 0 512 512">
  <defs>
    <style>
      .cls-1 {
        fill: #dd35ef;
      }
    </style>
  </defs>
  <g>
    <path class="cls-1" d="M372.62,405.86l-185.78-127q-3.54-2.06-6.36-10.25a48,48,0,0,1-2.83-15.72V91.48H135.27V248q0,30.08,22,45.09L345.1,418.13C357.32,425.32,387.69,414.87,372.62,405.86Z"/>
    <path class="cls-1" d="M332.47,91.48v142.6c0,18.69-11.11,25.9-22.77,30.91-6.38,2.73-19.51,9.13-28.8,8.62-9.43-1.13-10.6-36.56-10.6-36.56,13.18,0,19.78-10.93,19.78-19.59v-126Z"/>
  </g>
</svg>
