<svg id="Layer_1" data-name="Layer 1" xmlns="http://www.w3.org/2000/svg" width="512" height="512" viewBox="0 0 512 512">
  <defs>
    <style>
      .cls-1 {
        fill: #fff;
      }
    </style>
  </defs>
  <path class="cls-1" d="M423.12,72.27a5,5,0,0,0-5-4.93H93.37a5,5,0,0,0-5,5l0,38.27a5,5,0,0,0,5,5h60.7V267.13c0,21.7,8.12,38.25,24.19,49.25l187.86,125c.08.06.16.1.24.15a26.26,26.26,0,0,0,13.25,3.09c9.23,0,23.28-3.77,25.6-12.15.57-2.07,1.11-7.35-6.08-11.72l-185.67-127-.32-.2c-.2-.11-2-1.3-4.14-7.56A43.4,43.4,0,0,1,206.5,272V115.61h103v121c0,6-4.59,14.59-14.78,14.59a5,5,0,0,0-3.6,1.52,5,5,0,0,0-1.4,3.64,160.91,160.91,0,0,0,1.83,18.5c1.52,9.32,4.54,21.83,13.17,22.87l.32,0c.44,0,.9,0,1.36,0,9.14,0,20.05-4.81,27.26-8l2.43-1.06c12.75-5.48,25.79-14,25.79-35.5V115.61h56.73a5,5,0,0,0,5-5.07Zm-66.21,38.34v142.6c0,18.69-11.11,25.9-22.76,30.91-6.38,2.73-19.51,9.13-28.81,8.62-9.42-1.13-10.59-36.56-10.59-36.56,13.18,0,19.78-10.93,19.78-19.59v-126h-113V272a48,48,0,0,0,2.83,15.72q2.8,8.19,6.36,10.25L396.47,425c15.07,9-15.3,19.47-27.53,12.27l-187.86-125q-22-15-22-45.08V110.61H93.42l0-38.27H418.12l.52,38.27Z"/>
</svg>
