<svg id="Layer_1" data-name="Layer 1" xmlns="http://www.w3.org/2000/svg" width="512" height="512" viewBox="0 0 512 512">
  <defs>
    <style>
      .cls-1 {
        fill: #8d8e8d;
      }
    </style>
  </defs>
  <path class="cls-1" d="M418.12,72.34H93.37l0,38.27h65.7V267.13q0,30.06,22,45.08L368.94,437.26c12.23,7.2,42.6-3.25,27.53-12.27L210.69,298q-3.56-2.06-6.36-10.25A48,48,0,0,1,201.5,272V110.61h113v126c0,8.66-6.6,19.59-19.78,19.59,0,0,1.17,35.43,10.59,36.56,9.3.51,22.43-5.89,28.81-8.62,11.65-5,22.76-12.22,22.76-30.91V110.61h61.72Z"/>
</svg>
