<svg id="Layer_1" data-name="Layer 1" xmlns="http://www.w3.org/2000/svg" viewBox="0 0 224.75 652.32"><defs><style>.cls-1{fill:#212121;opacity:0.3;}.cls-2{fill:#bf895c;}.cls-19,.cls-2{stroke:#a46938;}.cls-10,.cls-13,.cls-17,.cls-19,.cls-2,.cls-24,.cls-26,.cls-3,.cls-5,.cls-58,.cls-59,.cls-7,.cls-8,.cls-9{stroke-linecap:round;stroke-linejoin:round;stroke-width:2.35px;}.cls-15,.cls-3{fill:#f37e5b;}.cls-3{stroke:#984225;}.cls-4{fill:#f79e77;}.cls-5{fill:#c8ba7f;stroke:#785f3e;}.cls-6{fill:#b39761;}.cls-7{fill:#d86c27;stroke:#993120;}.cls-8{fill:#f58c6d;stroke:#d76c4f;}.cls-9{fill:#f8b5aa;stroke:#cb6052;}.cls-10{fill:#df6841;stroke:#a73924;}.cls-11{fill:#c84e2c;}.cls-12{fill:#e86b46;}.cls-13{fill:#222636;stroke:#0f1016;}.cls-14{fill:#211515;}.cls-16{fill:#dc6549;}.cls-17{fill:#e9ddab;stroke:#927951;}.cls-18{fill:#f6efd2;}.cls-19,.cls-57{fill:#dcad80;}.cls-20{fill:#fcc99e;}.cls-21{fill:#ffdfb4;}.cls-22{fill:#fbb345;}.cls-23{fill:#fde349;}.cls-24{fill:#e96b4e;stroke:#b2432f;}.cls-25{fill:#c5472d;}.cls-26,.cls-30{fill:#ed7154;}.cls-26{stroke:#a03b28;}.cls-27{fill:#f59475;}.cls-28{fill:#957464;opacity:0.5;}.cls-29{fill:#471f1d;}.cls-31{fill:#9e4229;}.cls-32{fill:#f9b496;}.cls-33{fill:#d25a3e;}.cls-34{fill:#f9c0bf;}.cls-35{fill:#fffbf7;}.cls-36{fill:#672c25;}.cls-37{fill:#965741;}.cls-38{fill:#040303;}.cls-39{fill:#190f0e;}.cls-40{fill:#ea7348;}.cls-41{fill:#da4e48;}.cls-42{fill:#eb685d;}.cls-43{fill:#f27873;}.cls-44{fill:#a4312a;}.cls-45{fill:#facabe;}.cls-46{fill:#721613;}.cls-47{fill:#f8eeec;}.cls-48{fill:#422622;}.cls-49{fill:#5e3834;}.cls-50{fill:#663e35;}.cls-51{fill:#7c5042;}.cls-52{fill:#cc503b;}.cls-53{fill:#ee9c32;}.cls-54{fill:#b14f26;}.cls-55{fill:#fbf5ad;}.cls-56{fill:#f8a985;}.cls-58{fill:#9a663a;}.cls-58,.cls-59{stroke:#5b2b1a;}.cls-59{fill:#834229;}.cls-60{fill:#aa5834;}.cls-61{fill:#d68d51;}</style></defs><ellipse class="cls-1" cx="112.38" cy="612.47" rx="103.74" ry="29.05"/><path class="cls-2" d="M31.64,309.17c1.67,3.27,23.79-3.52,24.47-9.16S27.71,301.5,31.64,309.17Z"/><path class="cls-3" d="M65.87,122c-17.86-.67-35.6,12.68-33,35.32.27,2.38-4.2,14.27-4.94,16.08-6.79,16.67,30.36,20.61,30.95,6.77.29-6.85,4.36-17.8,5.49-19.43"/><path class="cls-3" d="M31.16,164.41c-7.52,17.9-9.53,39.46-5.81,53.07,2.78,10.19,4.76,18.52,18,7.35,11.62-9.78,17.22-31,16-52.82"/><path class="cls-4" d="M50.23,193.38c-4.67,16.11-15.75,23.38-18.83,22.89-7.28-1.16-7.77-28.6-2.42-39.21s6.47-15.7,5.81-24.87,9.69-25.7,22.78-26.25,21.32,2.25,31.87,2.43,1.43,6-8.45,7.18S59.25,132,60,144.06,58.34,164.41,53.74,170C49.47,175.1,54.07,180.12,50.23,193.38Z"/><path class="cls-5" d="M103.74,464.21c-5.63,30.1,6.34,115,30.24,112.69,9-46.1.35-117.52.35-117.52"/><path class="cls-6" d="M105.71,522.25c4.55,13.43,14.28,47.3,32.44,44.28s-22.4-66.86-22.4-66.86"/><path class="cls-2" d="M52.35,337.57c-5.69,17.26-17.67,121-17.6,126.63,6.44,5.94,18.37,9.71,27,10.07S64.94,346,64.94,346"/><path class="cls-7" d="M133.71,98c-5.11-4.89-37.81-8.14-43.1-4.37s6.89,21.65,26.15,23.91S138.58,102.67,133.71,98Z"/><path class="cls-8" d="M82.68,579c-.34,3.78,2.59,12.91.92,16.77s-9,6.13-10.48,8.09-6.26,9-8.16,11.35-10,5-13.57,5.22-14.09-7.84-13.64-12,22.09-23.83,23.09-29.52S83.29,572.33,82.68,579Z"/><path class="cls-3" d="M165.8,124.08c13.26-.32,23.67,16.29,24.69,40,.1,2.5.24,6.82,1,8.73,6.73,17.55-26.83,21.42-27.74,10.29-.12-1.44-.93-6.82-2.05-8.55C152.91,161.06,141.81,124.65,165.8,124.08Z"/><path class="cls-3" d="M190.13,167.8c5.79,8.72,8.85,29.42,7.06,43.34-1.64,12.7-4.36,29-17.58,17.09-11.57-10.43-15.87-33.13-14.38-53.7"/><path class="cls-4" d="M168.05,127.42c5.49-1.53,16.12,6.58,17.8,20.37,1.57,12.88-1.59,16,2.91,25.2s11.86,23.84,6.45,42.78c-1.86,5.88-7.41,9.45-14.92-4.25S172.1,186,173.13,179c1.73-11.83-5.58-18.46-8.38-27.39S159.42,129.85,168.05,127.42Z"/><path class="cls-3" d="M197.3,207.79c1.54,3,3.7,12.37,2.67,21.59-.88,7.91-4.91,55.77-5.57,63.58-.57,6.63-12.82,5.75-12.76-.81S171.31,243,171.55,232.82a146.72,146.72,0,0,1,1.33-18.56"/><path class="cls-4" d="M191,203c8-.54,8.66,14.77,8.83,23.8s-6.51,61.1-5.91,66.4-6.47,5.22-6.85-.47-4.9-51.55-5.64-62.52S184,203.51,191,203Z"/><path class="cls-9" d="M192.67,340.33a1.85,1.85,0,0,1,1.56,1.19c.22.59-1.66,2.6-2.21,2.74s-1.45.25-1.24-.86A8,8,0,0,1,192.67,340.33Z"/><path class="cls-10" d="M190.09,316.52s-.61,4.62-2,6.74-4.19,3.25-7.08,3.75-3.59-.89-2.07-2.7,4.91-3.41,5.28-3.95.71-4.07,1.26-5.77"/><path class="cls-11" d="M187.34,315c.38,2.27-1.05,7.24-1.68,8.12a14.28,14.28,0,0,1-4.91,3.66c3.6-1,5.76-1.7,7-3.66s2.46-8,2.46-8"/><path class="cls-10" d="M188.83,315.5c-.42,1.8-1.37,8.44-1.74,9.81s-2.22,3.14-4.18,6-1.49,5.07-.19,5.35c2,.43,9.35-6.88,10.65-10.2l3.31-8.38"/><path class="cls-11" d="M188.3,316.52a4.06,4.06,0,0,1,2.34,2.7,32.76,32.76,0,0,1-1.42,8.79,41.34,41.34,0,0,1-4.87,8c2.89-1.82,6.78-7.13,7.2-8.87s1.58-10,1.58-10"/><path class="cls-10" d="M192.39,316.69c-.47,2-1.8,10.45-2.2,12s-2.81,3.48-4.89,6.76-1.18,5.83.15,6.11c2.05.45,9.28-8,10.69-11.79s4.25-10.31,4.25-10.31"/><path class="cls-11" d="M193.24,317.91c1.19.93,2.84,1.82,3,3.4s-2.34,7.1-3.29,8.92-3.91,8.1-6.44,10.27c3.63-2.12,10.27-10.64,11.06-13.64a58.08,58.08,0,0,0,1.16-8.39"/><path class="cls-3" d="M182.62,289.35c-1,3-3.18,6.34-3,10.11s4.18,10.58,4.77,13.09,2.64,4.06,8.42,5.27c7.58,1.6,8-3.57,7.87-9.22s-5.15-17.2-6-19.25"/><path class="cls-12" d="M184,296c1,4.12.7,9.3.78,12.23s.05,4.45.69,5.54,6.54,4.43,9.09,2.9,4.7-5.42-.24-9.62A91.27,91.27,0,0,1,184,296Z"/><path class="cls-3" d="M198.11,297.88c1,2.24,5.39,8.49,5.71,13.33a58.34,58.34,0,0,1-1.72,16.11c-1,3.17-7.88,15.06-10.22,16.37-1.6.1-3.16-2.25-1.8-5.07,1.44-3,5-9.15,5.55-10.54s2-12.21,2-12.21"/><path class="cls-3" d="M183.94,295c-.1,2.24,1.87,8.05,3.31,9.94s5.92,5.13,6.29,6.72-1.21,7-1.43,10.28,1,5.69,3.15,5.9,2.64-4.67,3.67-7.16,2.93-8,3-11.48a16.49,16.49,0,0,0-1.81-7"/><path class="cls-4" d="M192.94,287.89c1.12,3.88,8.32,17.12,8.64,20.53.41,4.41-2.62,9.71-3.47,12.7s-1.24,5.58-2.58,5.77-2.54-2.75-1.24-7.51,2.17-8.53.86-9.43-4.22-2-6-4.46-3.7-10.07-1.95-13.57S192.26,285.51,192.94,287.89Z"/><path class="cls-4" d="M203.09,311.65c.79,1.54-.22,12.69-1.4,15.52s-7.72,15.66-10.47,15.32c-1.21-1.46-.41-4.92,1.68-7.73,1.55-2.08,5.62-5.8,6.8-8.05S202.7,313.72,203.09,311.65Z"/><path class="cls-9" d="M194.71,322.22a4.47,4.47,0,0,0-.51,3.36,1.77,1.77,0,0,0,2.22.64c.55-.46,1.44-2.75,1.11-3.3S195.05,321.86,194.71,322.22Z"/><path class="cls-3" d="M149.73,577c2.83,5.27,25.82,25.14,40.63,30.06,6.81,6.5-11.42,11.53-22.79,8.43S152.46,605,144.18,604.73s-18,1.42-19.59-6.5,3.47-17,4.75-25.08a136.73,136.73,0,0,0,1.23-19.3"/><path class="cls-4" d="M146,574.39c4.1,3.06,8.25,10.21,20.3,19.26S187.38,606,188.81,607c4,3-12.08,8.09-23.25,2.8-7.88-3.73-15.9-11.7-22.53-11.77-11.07-.11-15.69-3.19-9.72-18.18C137.87,568.46,144.21,573.08,146,574.39Z"/><path class="cls-3" d="M60.84,579.75c2.31-5.77,1.56-58.92-.55-84.66s3.95-37.27,7.48-55.89,24.51-15.23,27.5-.41c3.47,17.2,8,37.09,2.84,55.52s-16.54,69.75-15.62,75.85,3,9.44-2.39,14.41"/><path class="cls-4" d="M69.82,447c-3.12,8.2-7.19,29.53-6.68,40.76.66,14.61,2.26,76.38.09,83.88s-1.08,13.74,5.67,15.18,10.2-6.92,7.3-12.75S88.32,503,91,490.24c1.85-8.84,3.67-30.07,0-45.35C83.06,456,73.72,454.33,69.82,447Z"/><path class="cls-3" d="M151.65,579.42c-1.76-6,1.37-57.61,5.77-83.06s1.78-32.87,1.67-51.81-24.3-22.24-28.66-7.77c-5.06,16.8-15.18,37.87-11.3,56.6s14.16,64.35,12.67,70.34"/><path class="cls-4" d="M135.16,447.37c-4.94,12-7,31.83-6,40.84,1.43,13,10.87,74.38,7.43,79.9s-.74,12.15,6,13.39,8.54-6.89,7.1-14.57,5.33-64,7.4-78.51c1.59-11.18,1.23-26.28-.25-39.69C149,460.17,140.78,453.74,135.16,447.37Z"/><path class="cls-3" d="M128.8,445.6a51.69,51.69,0,0,0-.46-10.06c-2.69-26.07-16-72.67-10.73-125.36,2.08-20.73,44.37-42.8,49.06-20.75,11.42,53.76,0,125.5-8.78,157.5"/><path class="cls-4" d="M144.33,455.29c-7.69-.61-7.86-11.24-6.86-18.32s-3.33-30.31-5.48-56.51c-2.44-29.82-2.44-54.56-2.44-54.56,10.43-3.2,28.41-15.16,37.2-22.82,2.92,12.13,1.94,74.94-2.78,104.09C158.86,438.65,154,456.07,144.33,455.29Z"/><path class="cls-3" d="M163.66,283.6c1.46-6.18-.3-24.26-4.91-32.68-7.21-13.15-69.26-15.64-77.59,2.74-4,8.76-6.65,27.13-4.83,33.28S115,312.77,127.88,313.5,161.81,291.52,163.66,283.6Z"/><path class="cls-3" d="M93.42,446.39a31.28,31.28,0,0,0,3.09-5.22c10.72-23.69,30.47-103.81,26-127.55-2.73-14.49-45-43-52.46-23.58-14.44,37.44-3,119.74-3.48,142.46a30.66,30.66,0,0,0,2.83,13"/><path class="cls-4" d="M77.93,452.87c-7.08-3-5.7-14.16-5.47-21.31S65.69,332.41,78.79,299c7.16-3.27,35.32,16,39.5,26.13,1.65,12.36-8.44,66.14-13.72,81.93-3.9,11.65-7.91,22.61-10.12,30.37C92.39,444.67,86.89,456.72,77.93,452.87Z"/><path class="cls-13" d="M123.5,323.37c-19.91-21.66-47.76-32.89-53.71-34.24.13-12.42,7.3-32.5,10.57-38.87,28.5,7.71,63.74,7.74,83.43,4.38,3.75,8.58,7.06,32.16,4.9,36.95C162.25,305.88,137.42,318.1,123.5,323.37Z"/><path class="cls-14" d="M89.6,73.69c.77,2.7,1.25,7.13,1.68,7.91s3,1.92,3,1.84,0-12.6-.09-12.83"/><path class="cls-3" d="M94.11,66.56C94.45,81.69,93.47,98,90,103.44s-18.15,16.89-37.38,21.68c19.11,32.33,111.56,27.46,110.2-1.05-6-2.57-25.32-8.26-27.91-12.91s-2.25-10.93-2.77-21.74S95.7,52.91,94.11,66.56Z"/><path class="cls-12" d="M96.41,66.88c.29,17.31-.86,32.08-3.55,36.61-5.55,9.32-20.58,17.43-25,19.42,9.27-2.41,37,4.89,41.68,3.43-5.18-9.68-9.15-32.06-7.71-32.69s18.37,15.23,21.93,14.41c3.79-.88,8.72-13,8.72-13C133.62,79.13,97.59,54.33,96.41,66.88Z"/><path class="cls-4" d="M109.36,104.23c-1.14.77,8.71,23.28,12.41,21.7s9.62-19.79,9.08-20.91-5.8,7.13-7.53,7.43S110.51,103.46,109.36,104.23Z"/><path class="cls-15" d="M57.82,132.07c-7.14,8.19-5.62,29.08,1.79,48.64C67,200.09,83.35,219.28,83,230.37c-1.55,3-4.14,16.61-1.85,23.22,3.34,9.61,39.22,16.23,53.84,14.15,13.95-2,26.65-5.63,28.48-13s2.35-18.76-2-32.8c2.09-12.29,8.22-39.9,7.32-49.55-.43-4.61,3.15-8.68,3.8-13.14,2.5-16.95-2.49-32.75-12.59-36.14"/><path class="cls-3" d="M171.93,159.22c-.66,4.46-3.56,9.89-3.13,14.5.9,9.64-5.23,35.9-7.32,48.19,4.37,14,3.89,25.3,2,32.8s-14.53,11-28.48,13c-14.62,2.08-50.5-4.54-53.84-14.15-2.29-6.61.3-20.18,1.85-23.22.32-11.09-16.76-32.31-24.1-51.69"/><path class="cls-4" d="M76.52,130.74c-6.83,4-7.11,27.93,1,35.32,7.1,6.46,24,8.05,31.81,8.31-11.32,4-29.19,1-33.25,4.88-5,4.81,7.48,28.92,11.55,37.45s5.2,10.53,2.24,14.82-6,16.29-.45,23.12c4.4,5.37,25.21,13.67,45.23,10.86s24.44-10.78,26.33-18.4,1.23-17.13-.89-21.55-.1-12,2.11-19.32c2.95-9.87,4.51-21.18,5.25-32-2.59.09-15.74,3.21-23.57-.16,6.74,0,21.5-4.38,25-10.13,4.45-7.31,4.29-32.77-3-36.27-6.11-2.93-31.52.7-35.28,2.7-5,2.66-3.57,11.47-5.23,11.49s-1.08-7.82-8-11.5C110.72,128.47,84.59,126,76.52,130.74Z"/><path class="cls-15" d="M93.88,164.53c-4.09-.68-5.88,3.66-1.36,4.68S100.22,165.58,93.88,164.53Z"/><path class="cls-15" d="M136.27,238.55c-2.77.23-2.31,4.14,0,5.23C139.59,242.39,140.56,238.21,136.27,238.55Z"/><path class="cls-15" d="M161.44,162.71c-3.66.53-4.93,5.16-.82,4.82S167.11,161.89,161.44,162.71Z"/><path class="cls-16" d="M136,239.64c-1.46.37-1.78,3.32.21,3S138,239.14,136,239.64Z"/><path class="cls-4" d="M75.79,583.82c-2,4.47-15.5,27.26-17.33,29.65s-6.67,5.35-9.44,6.2-9.54-8.11-9.56-11.88,21.8-23.67,22.94-27.66S77.52,579.91,75.79,583.82Z"/><path class="cls-17" d="M113.22,476.59c-.61,35.47,12.19,82.37,21.21,94.68s19,14.86,22.11,14c2.48-4.08,6.93-16.21,6.9-18.1s-2.67-4.55-2.67-4.55,8.14-16.14,7-20.38c-.55-2.14-3.59-4.44-3.59-4.44s9.35-17.21,10.36-78c.89-53.71,1-198.37-9.64-207.2-9.18,4.42-30.93,16.46-46.48,13C108.71,353.48,114.31,413.4,113.22,476.59Z"/><path class="cls-18" d="M132.85,491.18c13.09.14,34.29-1.83,38.58-4.11,0,9.67-2.71,37-6.55,42.08C152,528.55,137.48,504.83,132.85,491.18Z"/><path class="cls-18" d="M128,494.48c2.17,18.5,23.38,40,26.08,42.68s-1.91,16-1.91,16l7.92,6.82s7.36-13,6.77-17.94C155.86,532.38,138,520,128,494.48Z"/><path class="cls-18" d="M121.74,502.93c2.31,20.2,14.39,46.43,28.43,59.82.5,2.8-3.17,16.79-3,17.8s6.33,3.58,8.46,3,7.76-14.86,6.46-17.89S140.88,551.69,121.74,502.93Z"/><path class="cls-7" d="M72.58,260.37c12.33,19.67,72.9,27.81,96.79,7.76a31.85,31.85,0,0,0-.41-3.88c-20,18.81-72.95,16.83-95.42-6.53Z"/><path class="cls-19" d="M167,122c4.52,1.17,11.79,4.66,15.35,8.75s7.95,16.33,12.27,36.84,3.92,28.73,5.44,32.74,2.7,5.71,1.12,8.81.69,5.27,1.59,9.37-1.2,61.13-2.18,64.31-2.8,3.07-1.66,5.1,2.7,5.3.79,6.43c-5.11-2.74-18.15,7.1-23,4.74-1.06-.62-1.81-3.49-.68-6.2s.59-4.63-.22-5.3c-2.59-2.15-2.26-7.88-1-9.71s-4.22-36.66-5.44-46S165.91,167,165.91,167"/><path class="cls-20" d="M168.49,124.07c5.08,2,10,4.38,14,9.29s10.91,32.26,14.89,62.74c.08,2.73-4.15,7.83-3.82,8.66s4.62-2,6.32-1.29-2.66,6.31-8.18,10.46c-2.31,1-16.38,1.67-16.71-1-.46-3.68-3.07-35.08-1.55-41.86s6.14-17.31,3.2-20c-1.13-1-3.68,9.29-5,9.38S171.88,132.23,168.49,124.07Z"/><path class="cls-20" d="M175.64,223.55c-1.56,2.86,2.64,28.32,3.75,37.67s3.8,14.41,8.29,15.77-2.36.37-6.37,1.71-7.68,7.79-2.55,6.34,10.3-.09,10.76.76-6.92,3.38-9.91,5.92-1.69,6.35-.84,7,7.2-2.47,10.77-4.16,7.18-4.07,10.32-3.22c-.91-3.44-6.41-4.15-11.66-2,5.08-3.47,10.16-5.5,11.17-7s2.65-63,1.34-66.45S177.19,220.7,175.64,223.55Z"/><path class="cls-21" d="M171.84,126.8c1.9-.73,9.45,3.77,11.54,7.65,7.22,13.35,13.09,47.91,11,51.27s-11.84-26-13-26.5-4.23,11.31-5.24,10.48,4.9-18.09,2.53-21.22-4.19,6.18-5.92,5.17S169.93,127.53,171.84,126.8Z"/><path class="cls-21" d="M192.35,198.16c-3,0-3,11.66-1.75,11.83s7.71-3.73,7.1-4.49-5.18,2.4-5.35-.19S194.38,198.18,192.35,198.16Z"/><path class="cls-21" d="M180.45,222.69c-2.94,2.52-3.38,9-2.71,9.39s1.69-7,5.08-8.89,9.88-3.22,12-3,2.63,20.45,0,24.17-3.64,7.92.42,13.32.34,13.86,1.13,13.75,2.88-9.36,1.72-13.08.44-6.58,1.77-16.09-.84-25-2.73-25.31S183.27,220.27,180.45,222.69Z"/><path class="cls-21" d="M180.75,292.91c-2.79,3.74.86,5.15,4.51,2.85s9.36-6.25,8.2-6.41S183.63,289,180.75,292.91Z"/><path class="cls-17" d="M52.07,471.89c-3.38,31.86-1.42,52.54,2.81,62.33,0,0-4,4-4.2,5.79s4.2,17.9,4.2,17.9l-3.68,2.31s3.59,17,11.2,19.91c16.42,6.32,52.28-59.37,59.84-135.27C135.59,310.78,130.18,273.41,126,266c-20-.68-41-13.59-45.84-19-8.43,6.22-15.6,36.12-20.82,99.7S54.13,452.49,52.07,471.89Z"/><path class="cls-7" d="M108.26,452.47C96,548.42,76.51,583,61.25,579.56c4.37,3.52,18.91,3.14,21.34,2,17.84-7.95,33.8-41.27,41.47-123.08,9.64-102.82,10.3-179.65,10.3-179.65l-14.78-.12S119.29,365.82,108.26,452.47Z"/><path class="cls-22" d="M112,490.73a3.18,3.18,0,0,0,.3-.33l-.14.32a2.39,2.39,0,0,0,.49-.82,4.38,4.38,0,0,0,.22-2,2.26,2.26,0,0,0-.22-.79,1.06,1.06,0,0,0-.57-.59l-.11,0a.7.7,0,0,0-.62.22,1.9,1.9,0,0,0-.4.54,4.6,4.6,0,0,0-.43,1.23,4.17,4.17,0,0,0-.1,1.32,1.24,1.24,0,0,0,.56,1.08l.11,0h.23c0-.11-.21.94-.11.5h0a.5.5,0,0,0,0-.12.82.82,0,0,0,0-.14v0h0v-.32h0c0,.11,0,.23,0,.34h0v.05a.69.69,0,0,1,0,.18v0h0l.16-.74h0l-.11,0h-.06l0,0-.08,0a1,1,0,0,1-.35-.82,3,3,0,0,1,.1-.87,1.94,1.94,0,0,1,.3-.68c.13-.16.34-.31.55-.11a1,1,0,0,1,.15.88,1.4,1.4,0,0,1-.28.66.44.44,0,0,1-.2.13s0,0,.05.09a.62.62,0,0,1,0,.23.14.14,0,0,1,0,.07v0h-.3c-.06-.29.36,2.57.19,1.36h0c.11-2.35,0-.66,0-1.18h0l0,0,0,0s0,.05,0,.07a.21.21,0,0,0,.09.16h0c0,.38,0-.86,0,.86h0c-.2-1.38-.05-.38-.09-.69h.26l.08.05c.23.11.64-.08.91-.56a2.09,2.09,0,0,1-.19.2A1.62,1.62,0,0,1,112,490.73Z"/><path class="cls-22" d="M113,492.12a5.6,5.6,0,0,0,.66-.86,6.8,6.8,0,0,1-.38.7,6.64,6.64,0,0,0,1-1.87,12.71,12.71,0,0,0,.72-4.78,7.78,7.78,0,0,0-.39-2.16,3.6,3.6,0,0,0-.49-1,2.06,2.06,0,0,0-.84-.73,1.52,1.52,0,0,0-.28-.09,1.71,1.71,0,0,0-1.6.48,4.93,4.93,0,0,0-1,1.38,13.15,13.15,0,0,0-1.36,6.61,6.17,6.17,0,0,0,.37,1.65,2.22,2.22,0,0,0,1,1.24l.29.09.06,0h.2c.12,0,.18-.05.16-.09s-.07-.09-.17-.13l-.06,0-.1,0-.12-.06a1,1,0,0,1-.25-.12,2.15,2.15,0,0,1-.88-1.19,5.78,5.78,0,0,1-.28-1.48,10.75,10.75,0,0,1,.27-2.95,9.07,9.07,0,0,1,1-2.64,3.65,3.65,0,0,1,.87-1,1.2,1.2,0,0,1,1.26-.16,1.59,1.59,0,0,1,.57.46,2.46,2.46,0,0,1,.36.68,5.07,5.07,0,0,1,.26,1.49,8.9,8.9,0,0,1-.34,2.75c-.12.43-.29.79-.47,1.26a7.77,7.77,0,0,1-.85,1.76,3.13,3.13,0,0,1-.57.62l-.14.1-.07.05h-.13s0,0,0,0h0a1,1,0,0,0-.1.17c-.14.1-.14.2,0,.31a.63.63,0,0,0,.17.13l.06,0h.35a1.74,1.74,0,0,0,1-.42,4,4,0,0,0,1-1.26l-.11.17a3.1,3.1,0,0,1-.26.34,3.19,3.19,0,0,1-.28.32Z"/><path class="cls-22" d="M114.14,493.7a7.56,7.56,0,0,0,1.14-1.41,5.24,5.24,0,0,1-.32.57,5.85,5.85,0,0,1-.37.55,8.66,8.66,0,0,0,1.72-3.1,15.83,15.83,0,0,0,.71-3.89,13.77,13.77,0,0,0-.19-3.23,8.67,8.67,0,0,0-.88-2.57,4.55,4.55,0,0,0-.77-1.1,3,3,0,0,0-1.18-.83c-.12-.06-.25-.09-.37-.14a2.93,2.93,0,0,0-1.14,0,3.19,3.19,0,0,0-1,.38,5.58,5.58,0,0,0-1.48,1.34,12.4,12.4,0,0,0-2,4,16.77,16.77,0,0,0-.6,2.66,12.77,12.77,0,0,0-.11,3,7.13,7.13,0,0,0,.75,2.86,3.92,3.92,0,0,0,1.91,1.86,3.59,3.59,0,0,0,.48.14l.1,0h.23c.26,0,.4,0,.36-.07a1.27,1.27,0,0,0-.45-.16l-.08,0,0,0-.19-.08a2,2,0,0,1-.44-.18c-1.54-.78-2.18-2.71-2.26-4.55a15.34,15.34,0,0,1,.68-5.12,12.22,12.22,0,0,1,1.84-3.78,5.25,5.25,0,0,1,1.37-1.33,2.58,2.58,0,0,1,.44-.22l.24-.09.25-.06a1.06,1.06,0,0,1,.25,0H113l.27,0,.13,0,.12,0a2.75,2.75,0,0,1,1,.56,3.36,3.36,0,0,1,.65.86,6.22,6.22,0,0,1,.67,2,12.38,12.38,0,0,1-.15,4.45,17.94,17.94,0,0,1-.71,2.38,11.09,11.09,0,0,1-1.76,3.47,4.44,4.44,0,0,1-1.16,1,1.69,1.69,0,0,0-.27.13l-.12.06h0l-.06,0a2.28,2.28,0,0,0-.4.17c-.14.1-.14.21,0,.31a1.68,1.68,0,0,0,.44.13l.16,0c-.13,0-.06,0,0,0h.4a3.45,3.45,0,0,0,1.67-.64,5.88,5.88,0,0,0,1.73-2l-.18.27a4,4,0,0,1-.44.58,3.43,3.43,0,0,1-.48.51Z"/><path class="cls-22" d="M115.3,495.34a10,10,0,0,0,1.63-2l-.22.41-.26.39a6,6,0,0,1-.54.75,11.43,11.43,0,0,0,2.4-4.36,18.73,18.73,0,0,0,.79-5.35,12.94,12.94,0,0,0-.58-4,7.6,7.6,0,0,0-1.49-2.68,5.77,5.77,0,0,0-1.09-1c-.2-.15-.44-.28-.67-.42a6.48,6.48,0,0,0-.81-.31l-.44-.15a8.7,8.7,0,0,0-1.32-.11,5.11,5.11,0,0,0-1.17.19,6.17,6.17,0,0,0-1.87,1,10,10,0,0,0-3,4.32,17.78,17.78,0,0,0-1,3.59c0,.35-.13.67-.16,1l-.12,1.08a18.6,18.6,0,0,0,0,2.24,9.27,9.27,0,0,0,1.21,4.16,5.55,5.55,0,0,0,2.87,2.39,5.67,5.67,0,0,0,.67.18l.15,0-.08,0,.33,0c.4,0,.62,0,.56,0a3,3,0,0,0-.72-.2l-.08,0h0l-.28-.09a3.45,3.45,0,0,1-.63-.23,5.31,5.31,0,0,1-2.63-2.46,9.17,9.17,0,0,1-1-4,17.52,17.52,0,0,1,.32-4,19.05,19.05,0,0,1,1-3.33,12.21,12.21,0,0,1,1.33-2.43,8.37,8.37,0,0,1,1.5-1.61,5.45,5.45,0,0,1,1.76-1,2.83,2.83,0,0,1,.52-.13l.27,0h.3a6.49,6.49,0,0,1,1.22.13,7.3,7.3,0,0,1,1.16.54,4.74,4.74,0,0,1,.89.77,6.49,6.49,0,0,1,1.16,1.93,10.1,10.1,0,0,1,.58,2.42,16.24,16.24,0,0,1,0,2.88,21.21,21.21,0,0,1-.71,3.5,16.53,16.53,0,0,1-1.14,3c-.13.23-.24.46-.38.68l-.41.63-.45.56c-.14.18-.31.32-.46.48a6.3,6.3,0,0,1-1.86,1.2l-.4.14-.18.06h.14l-.12,0c-.29.07-.53.12-.69.17a.18.18,0,0,0,0,.32,3.37,3.37,0,0,0,.71.12H112l-.19,0h.54a5.17,5.17,0,0,0,2.35-.83,8,8,0,0,0,2.48-2.81l-.26.4a8.19,8.19,0,0,1-.61.82,3.46,3.46,0,0,1-.35.4l-.33.32Z"/><path class="cls-22" d="M100.43,526.4c-.62,4.63,7.66,4.74,8.84,3.72s5.92-19.45,9.2-33.84c-2.81,11.51-7.34,63-31.39,81.34,5.87-5.81,10.73-14.19,10-18.89,0,0-3.07-3-7.6,0-5.33,11-13.08,19.74-19.22,20.93,14.35-8.51,26.44-48.57,33.55-87.15C105.89,493.75,102.25,512.69,100.43,526.4Z"/><path class="cls-23" d="M97.65,548.9a2.93,2.93,0,0,0,.36-.28c-.06.09-.12.19-.2.29a2.19,2.19,0,0,0,.62-.72,4.68,4.68,0,0,0,.55-2,2.49,2.49,0,0,0-.1-.83,1,1,0,0,0-.46-.66l-.11-.05a.76.76,0,0,0-.65.12,2.38,2.38,0,0,0-.48.47,4.87,4.87,0,0,0-.63,1.14,4.75,4.75,0,0,0-.3,1.29,1.23,1.23,0,0,0,.38,1.16l.1,0h0l.1,0,0,0h0c0-.11-.35.9-.18.47h0a.49.49,0,0,0,0-.11.5.5,0,0,0,0-.14v0h0l.07-.31h0a0,0,0,0,0,0,0,3.4,3.4,0,0,1-.07.34h0a.09.09,0,0,1,0,.05.45.45,0,0,1,0,.17v0h0l.27-.7H97l-.1,0h0l0,0a.18.18,0,0,1-.07,0,1,1,0,0,1-.22-.87,3.15,3.15,0,0,1,.24-.84,1.86,1.86,0,0,1,.41-.63c.15-.13.38-.25.56,0a1.05,1.05,0,0,1,0,.9,1.35,1.35,0,0,1-.38.6.34.34,0,0,1-.22.1s0,0,0,.1a.53.53,0,0,1,0,.23l0,.06v0h0l-.28,0h0c0-.3,0,2.6,0,1.37h0a10.54,10.54,0,1,0,.24-1.15h0l0,0,0,0a.09.09,0,0,0,0,.07c0,.05,0,.11.06.17h0l-.18.84h0c0-1.39,0-.38,0-.69h0l.12,0H97l.07.06c.21.15.64,0,1-.4a1.51,1.51,0,0,1-.22.16A1.42,1.42,0,0,1,97.65,548.9Z"/><path class="cls-23" d="M98.4,550.43a6.21,6.21,0,0,0,.79-.75,4.85,4.85,0,0,1-.49.63,6.71,6.71,0,0,0,1.33-1.67A12.55,12.55,0,0,0,101.5,544a8,8,0,0,0,0-2.19,3.82,3.82,0,0,0-.33-1,1.93,1.93,0,0,0-.72-.86,1.08,1.08,0,0,0-.26-.14,1.72,1.72,0,0,0-1.66.22,5.39,5.39,0,0,0-1.23,1.2,12.32,12.32,0,0,0-1.61,3,11.83,11.83,0,0,0-.78,3.31,6,6,0,0,0,.09,1.69,2.25,2.25,0,0,0,.84,1.39,1.74,1.74,0,0,0,.27.14l.06,0,.1,0h.1c.11,0,.18,0,.17-.06s-.06-.11-.15-.16l-.06,0-.09,0-.11-.08a1.38,1.38,0,0,1-.23-.16,2.2,2.2,0,0,1-.68-1.31,5.46,5.46,0,0,1,0-1.51,10.62,10.62,0,0,1,.73-2.87,8.76,8.76,0,0,1,1.41-2.44,3.14,3.14,0,0,1,1-.85,1.19,1.19,0,0,1,1.27,0,1.66,1.66,0,0,1,.49.56,2.68,2.68,0,0,1,.25.72,5.1,5.1,0,0,1,0,1.51,9.17,9.17,0,0,1-.78,2.67A12.9,12.9,0,0,1,98.9,548a7.93,7.93,0,0,1-1.13,1.61,3.07,3.07,0,0,1-.66.52l-.16.07-.07,0h-.15l0,0-.12.14c-.15.08-.17.18-.07.31a.54.54,0,0,0,.15.16l0,0,.1,0h.05l.19.05a1.79,1.79,0,0,0,1.07-.25,4.36,4.36,0,0,0,1.2-1.08l-.14.14c-.08.09-.2.2-.31.3a3.3,3.3,0,0,1-.33.27Z"/><path class="cls-23" d="M99.26,552.17A7.33,7.33,0,0,0,100.6,551a4.07,4.07,0,0,1-.41.52,5.23,5.23,0,0,1-.45.49,8.88,8.88,0,0,0,2.2-2.79,16.12,16.12,0,0,0,1.32-3.73,13.46,13.46,0,0,0,.33-3.21,8.92,8.92,0,0,0-.45-2.69,5,5,0,0,0-.59-1.21,3.21,3.21,0,0,0-1-1,3.9,3.9,0,0,0-.35-.19,2.72,2.72,0,0,0-1.11-.22,3.16,3.16,0,0,0-1,.21,5.93,5.93,0,0,0-1.68,1.09,12.43,12.43,0,0,0-2.64,3.63,16.14,16.14,0,0,0-1,2.52,13.12,13.12,0,0,0-.59,2.93,7.53,7.53,0,0,0,.28,2.94,3.87,3.87,0,0,0,1.6,2.14c.15.09.31.15.45.22l.1,0h0l.21,0c.25.05.39,0,.37,0a1.52,1.52,0,0,0-.42-.23l-.08,0,0,0-.19-.1A3.85,3.85,0,0,1,95,552c-1.39-1-1.71-3-1.5-4.85A15.52,15.52,0,0,1,95,542.21a12.25,12.25,0,0,1,2.42-3.43A5.15,5.15,0,0,1,99,537.69a2,2,0,0,1,.47-.15l.25-.06h.25a.76.76,0,0,1,.26,0l.26,0,.25.08.13,0,.11.06a2.78,2.78,0,0,1,.85.71,3.46,3.46,0,0,1,.5,1,6.26,6.26,0,0,1,.34,2.11,12.63,12.63,0,0,1-.86,4.37,18.76,18.76,0,0,1-1.09,2.24,10.89,10.89,0,0,1-2.29,3.14,4.62,4.62,0,0,1-1.3.79l-.29.08-.13,0h-.07a2.27,2.27,0,0,0-.42.11c-.16.07-.17.18-.07.3a1.72,1.72,0,0,0,.41.2l.16,0c-.14,0-.07,0,0,0l.07,0,.32,0a3.38,3.38,0,0,0,1.75-.37,6,6,0,0,0,2-1.71l-.22.24a5.27,5.27,0,0,1-.53.5,3.79,3.79,0,0,1-.55.43Z"/><path class="cls-23" d="M100.14,554a9.6,9.6,0,0,0,1.92-1.7c-.09.12-.19.24-.28.37s-.21.23-.32.34a4.5,4.5,0,0,1-.66.65,11.19,11.19,0,0,0,3.07-3.91,18.43,18.43,0,0,0,1.64-5.16,12.7,12.7,0,0,0,.07-4.06,7.51,7.51,0,0,0-1-2.89,6.47,6.47,0,0,0-.91-1.15,7.73,7.73,0,0,0-.6-.52c-.24-.15-.48-.3-.75-.44l-.41-.22a10.56,10.56,0,0,0-1.29-.32,5.77,5.77,0,0,0-1.18,0,6,6,0,0,0-2,.66,10.07,10.07,0,0,0-3.69,3.77,17.55,17.55,0,0,0-1.6,3.39c-.1.33-.23.63-.32,1l-.29,1a17.56,17.56,0,0,0-.35,2.21,9.25,9.25,0,0,0,.52,4.3,5.59,5.59,0,0,0,2.45,2.82c.22.12.44.2.63.29l.14,0a.16.16,0,0,1-.07,0l.32.09c.39.09.61.1.56.05a3,3,0,0,0-.68-.31l-.08,0,0,0H95l0,0-.26-.13a4.27,4.27,0,0,1-.58-.33,5.4,5.4,0,0,1-2.21-2.85,9.23,9.23,0,0,1-.33-4.11,17,17,0,0,1,1-3.94,19,19,0,0,1,1.5-3.13,12.82,12.82,0,0,1,1.7-2.19,8.25,8.25,0,0,1,1.75-1.34,5.34,5.34,0,0,1,1.88-.66,4.71,4.71,0,0,1,.54,0h.28l.29,0a7.44,7.44,0,0,1,1.18.33,6,6,0,0,1,1.06.72,4.6,4.6,0,0,1,.76.9,6.27,6.27,0,0,1,.83,2.09,9.89,9.89,0,0,1,.18,2.48,14.26,14.26,0,0,1-.45,2.85,20.61,20.61,0,0,1-1.25,3.34,16.81,16.81,0,0,1-1.61,2.81c-.17.21-.32.43-.48.62l-.51.55-.53.48a4.69,4.69,0,0,1-.54.4,6.28,6.28,0,0,1-2,.89l-.42.07-.19,0h0l-.72.06c-.15.08-.17.18-.07.3a2.53,2.53,0,0,0,.69.24l.25,0h-.2l.09,0,.45.06a5.12,5.12,0,0,0,2.45-.45,7.79,7.79,0,0,0,2.9-2.37l-.32.35a7.13,7.13,0,0,1-.73.71,4.25,4.25,0,0,1-.41.35l-.38.26Z"/><path class="cls-22" d="M107.37,518.54a1.94,1.94,0,0,0,.32-.32,2.39,2.39,0,0,1-.16.32,2.49,2.49,0,0,0,.55-.78,4.58,4.58,0,0,0,.35-2,2.65,2.65,0,0,0-.17-.81,1.05,1.05,0,0,0-.53-.61l-.11,0a.75.75,0,0,0-.64.18,2.29,2.29,0,0,0-.43.51,4.87,4.87,0,0,0-.51,1.2,4.17,4.17,0,0,0-.18,1.32,1.23,1.23,0,0,0,.49,1.11.19.19,0,0,0,.1,0h.23c0-.1-.27.93-.14.5h0l0-.11a1.15,1.15,0,0,0,0-.14v0h0l0-.32h0l0,.34h0a.11.11,0,0,1,0,.05.67.67,0,0,1,0,.17v0h0l.2-.73h0l-.1,0h-.06l0,0-.07-.05a1,1,0,0,1-.3-.84,3.36,3.36,0,0,1,.15-.87,2.16,2.16,0,0,1,.35-.66c.14-.15.36-.28.56-.07a1.06,1.06,0,0,1,.09.89,1.47,1.47,0,0,1-.33.64.38.38,0,0,1-.21.12s0,0,.05.09a.65.65,0,0,1,0,.23.25.25,0,0,0,0,.07l0,0h-.3c0-.3.2,2.59.1,1.37h0c.26-2.33.07-.65.13-1.17h0l0,0,0,0,0,.08a.21.21,0,0,0,.08.16h0c0,.38.1-.85-.09.85h0c-.1-1.39,0-.39,0-.7h.26l.08.06c.22.12.64,0,1-.5a2,2,0,0,1-.21.18A1.46,1.46,0,0,1,107.37,518.54Z"/><path class="cls-22" d="M108.26,520a5.1,5.1,0,0,0,.71-.82,6.92,6.92,0,0,1-.42.68,6.87,6.87,0,0,0,1.16-1.8,12.49,12.49,0,0,0,1-4.72,7.52,7.52,0,0,0-.24-2.18,3.86,3.86,0,0,0-.42-1,1.94,1.94,0,0,0-.8-.78,1.31,1.31,0,0,0-.27-.12,1.71,1.71,0,0,0-1.63.38,5,5,0,0,0-1.11,1.31,11.83,11.83,0,0,0-1.32,3.13,12,12,0,0,0-.47,3.37,5.83,5.83,0,0,0,.26,1.67,2.25,2.25,0,0,0,1,1.31,2.12,2.12,0,0,0,.29.11l.06,0,.1,0h.1c.12,0,.18,0,.17-.07a.28.28,0,0,0-.17-.14l-.06,0-.1,0-.11-.06c-.08-.05-.16-.08-.24-.14a2.25,2.25,0,0,1-.81-1.25,5.73,5.73,0,0,1-.17-1.49,10.55,10.55,0,0,1,.45-2.93,9.12,9.12,0,0,1,1.17-2.57,3.33,3.33,0,0,1,.93-.94,1.17,1.17,0,0,1,1.26-.08,1.46,1.46,0,0,1,.55.5,2.93,2.93,0,0,1,.31.7,5.11,5.11,0,0,1,.16,1.5,9.2,9.2,0,0,1-.51,2.73c-.15.42-.35.76-.55,1.22a8.39,8.39,0,0,1-1,1.7,3,3,0,0,1-.61.58l-.15.1-.07,0h-.16a.91.91,0,0,0-.11.16c-.15.09-.15.19,0,.31a.46.46,0,0,0,.16.14l.06,0h.15l.2,0a1.71,1.71,0,0,0,1-.36,4.19,4.19,0,0,0,1.09-1.18l-.12.15a3.8,3.8,0,0,1-.28.33,2.62,2.62,0,0,1-.3.29Z"/><path class="cls-22" d="M109.28,521.64a7.49,7.49,0,0,0,1.22-1.34,6.65,6.65,0,0,1-.36.56,5.12,5.12,0,0,1-.4.52,8.65,8.65,0,0,0,1.92-3,15.52,15.52,0,0,0,1-3.84,13.46,13.46,0,0,0,0-3.23,9,9,0,0,0-.7-2.63,5.53,5.53,0,0,0-.7-1.15,3.18,3.18,0,0,0-1.13-.9,2.32,2.32,0,0,0-.36-.16,2.93,2.93,0,0,0-1.13-.12,3.38,3.38,0,0,0-1,.32,5.69,5.69,0,0,0-1.56,1.24,12.45,12.45,0,0,0-2.29,3.86,16.7,16.7,0,0,0-.77,2.61,13.66,13.66,0,0,0-.31,3,7.33,7.33,0,0,0,.57,2.91,3.84,3.84,0,0,0,1.79,2,3.78,3.78,0,0,0,.46.17l.11,0h0l.21,0c.26,0,.4,0,.37-.05a1.24,1.24,0,0,0-.44-.19l-.08,0h0l-.19-.09a2.74,2.74,0,0,1-.42-.21c-1.49-.89-2-2.85-2-4.69a15.48,15.48,0,0,1,1-5.07,12.17,12.17,0,0,1,2.08-3.65,5.26,5.26,0,0,1,1.46-1.24,2.53,2.53,0,0,1,.45-.19l.24-.08.26,0a.69.69,0,0,1,.25,0h.26l.26.06.13,0,.12,0a2.77,2.77,0,0,1,.92.62,3.78,3.78,0,0,1,.59.9,6.38,6.38,0,0,1,.53,2.07,12.44,12.44,0,0,1-.44,4.43,18.07,18.07,0,0,1-.86,2.33,11.12,11.12,0,0,1-2,3.35,4.37,4.37,0,0,1-1.23.91l-.27.11-.13.05h0l-.06,0a2.73,2.73,0,0,0-.41.14c-.14.09-.15.2,0,.31a1.56,1.56,0,0,0,.43.16l.16,0c-.13,0-.07,0,0,0h.07l.33,0a3.46,3.46,0,0,0,1.71-.53,6,6,0,0,0,1.86-1.9l-.2.26a5.53,5.53,0,0,1-.48.55,4.37,4.37,0,0,1-.51.48Z"/><path class="cls-22" d="M110.33,523.35a9.83,9.83,0,0,0,1.75-1.88c-.09.13-.17.27-.25.4s-.19.24-.28.37a6.94,6.94,0,0,1-.59.71,11.23,11.23,0,0,0,2.68-4.19,18.83,18.83,0,0,0,1.14-5.29,13,13,0,0,0-.32-4.05,7.58,7.58,0,0,0-1.31-2.77,6.37,6.37,0,0,0-1-1.06c-.2-.16-.42-.31-.65-.46a8,8,0,0,0-.78-.37l-.43-.18a10.76,10.76,0,0,0-1.32-.19,5.32,5.32,0,0,0-1.17.12,6,6,0,0,0-1.93.84,10,10,0,0,0-3.31,4.12,17.68,17.68,0,0,0-1.27,3.51c-.08.34-.17.66-.23,1l-.18,1.07a16.38,16.38,0,0,0-.15,2.23,9.26,9.26,0,0,0,.93,4.23,5.23,5.23,0,0,0,3.37,2.8l.14,0-.07,0,.33.06c.39.05.61,0,.56,0a3.1,3.1,0,0,0-.71-.24l-.08,0h0l-.27-.11a4.67,4.67,0,0,1-.62-.27,5.38,5.38,0,0,1-2.46-2.62,9.17,9.17,0,0,1-.72-4.07,16.86,16.86,0,0,1,.58-4,18.1,18.1,0,0,1,1.2-3.26,12.6,12.6,0,0,1,1.48-2.34,8.64,8.64,0,0,1,1.61-1.51,5.65,5.65,0,0,1,1.81-.84,4.51,4.51,0,0,1,.53-.09l.28,0h.3a6.47,6.47,0,0,1,1.2.22,6.71,6.71,0,0,1,1.13.61,4.66,4.66,0,0,1,.83.83,6,6,0,0,1,1,2,9.71,9.71,0,0,1,.43,2.45,15.16,15.16,0,0,1-.18,2.88,22.2,22.2,0,0,1-.93,3.45,16.75,16.75,0,0,1-1.34,3c-.14.22-.27.45-.42.66l-.45.6-.49.52a5.25,5.25,0,0,1-.49.46,6.19,6.19,0,0,1-1.93,1.07l-.41.11-.18.06h0s0,0,.07,0h.08l-.11,0L106,524c-.14.09-.15.19,0,.31a2.91,2.91,0,0,0,.71.16l.25,0-.19,0h.09l.45,0a5.13,5.13,0,0,0,2.4-.68,7.9,7.9,0,0,0,2.65-2.64l-.28.38a7,7,0,0,1-.66.78c-.13.13-.24.27-.37.38l-.36.29Z"/><path class="cls-22" d="M84.51,573.63a2.42,2.42,0,0,0,.4-.19,1.84,1.84,0,0,1-.25.23,2.39,2.39,0,0,0,.75-.53,4.13,4.13,0,0,0,.92-1.67,2,2,0,0,0,.07-.75.92.92,0,0,0-.33-.68L86,570a.8.8,0,0,0-.66,0,2.26,2.26,0,0,0-.56.34,4,4,0,0,0-.83.91,3.69,3.69,0,0,0-.56,1.1,1.06,1.06,0,0,0,.15,1.1l.1.05h0l.09,0,0,0h0c.06-.08-.52.74-.27.39h0l.06-.09.06-.12s0,0,0,0h0l.12-.26h0v0c0,.1-.09.2-.13.3h0l0,0a.75.75,0,0,1-.08.14v0h0l.4-.58h0l0,0-.1-.05,0,0h0l0,0-.06-.07a.86.86,0,0,1,0-.81,2.72,2.72,0,0,1,.4-.71,2,2,0,0,1,.52-.49c.18-.09.42-.15.55.08a.89.89,0,0,1-.16.81,1.54,1.54,0,0,1-.5.47.49.49,0,0,1-.23.05s0,0,0,.09a.53.53,0,0,1-.09.19.13.13,0,0,1,0,.06l0,0h0l-.27-.07h0l-.29,1.22h0c.93-2,.26-.55.46-1h0l-.05,0,0,.06a.16.16,0,0,0,0,.16h0l-.34.72h0c.29-1.24.09-.34.16-.62h0l.12,0,.06,0h0l0,0,.06.07c.18.16.62.13,1-.19a1.87,1.87,0,0,1-.25.11A1.23,1.23,0,0,1,84.51,573.63Z"/><path class="cls-22" d="M85,575.13a5.92,5.92,0,0,0,.91-.52,7.35,7.35,0,0,1-.6.47,6.49,6.49,0,0,0,1.63-1.26A11.14,11.14,0,0,0,89.23,570a6.52,6.52,0,0,0,.4-2,3.36,3.36,0,0,0-.12-1,1.84,1.84,0,0,0-.54-.9,1.37,1.37,0,0,0-.23-.17,1.88,1.88,0,0,0-1.67-.09,5.07,5.07,0,0,0-1.44.85,11.31,11.31,0,0,0-2.16,2.38,10.73,10.73,0,0,0-1.42,2.83,5,5,0,0,0-.23,1.52,1.94,1.94,0,0,0,.55,1.4,1.7,1.7,0,0,0,.23.17l.06,0,.1,0,.09,0c.11,0,.18,0,.18,0s0-.11-.12-.17l0,0-.08,0-.09-.08a1.19,1.19,0,0,1-.2-.19,1.85,1.85,0,0,1-.41-1.29,4.75,4.75,0,0,1,.26-1.35,9.17,9.17,0,0,1,1.28-2.44,8.33,8.33,0,0,1,1.86-1.93,3.44,3.44,0,0,1,1.16-.59,1.28,1.28,0,0,1,1.23.26,1.37,1.37,0,0,1,.38.59,2.26,2.26,0,0,1,.1.69,4.17,4.17,0,0,1-.28,1.35,8.05,8.05,0,0,1-1.28,2.25c-.26.32-.55.57-.88.92a7.27,7.27,0,0,1-1.41,1.23,3.57,3.57,0,0,1-.75.35l-.17,0-.08,0h0l-.12,0h0a.65.65,0,0,0-.15.1c-.16,0-.2.13-.12.26a.41.41,0,0,0,.11.17l0,.05.09,0,0,0,.18.08a2,2,0,0,0,1.1,0,4.4,4.4,0,0,0,1.38-.75l-.16.1-.37.21c-.13.08-.27.13-.36.18Z"/><path class="cls-22" d="M85.44,576.84A7.19,7.19,0,0,0,87,576a3.73,3.73,0,0,1-.5.39,6.33,6.33,0,0,1-.54.36,8.77,8.77,0,0,0,2.7-2.1,14.91,14.91,0,0,0,2-3.1,12.26,12.26,0,0,0,.94-2.82,7.19,7.19,0,0,0,.08-2.48,4.25,4.25,0,0,0-.33-1.18,2.91,2.91,0,0,0-.82-1.09,2.49,2.49,0,0,0-.31-.23,2.86,2.86,0,0,0-1-.4,3.42,3.42,0,0,0-1.06,0,6,6,0,0,0-1.85.68,12,12,0,0,0-3.3,2.76,14.56,14.56,0,0,0-1.49,2.08,11.49,11.49,0,0,0-1.15,2.51,6.27,6.27,0,0,0-.3,2.69,3.44,3.44,0,0,0,1.15,2.19,4,4,0,0,0,.39.27l.09.06h0l.2.08c.23.09.37.11.36.06a1.33,1.33,0,0,0-.37-.28l-.07,0,0,0-.15-.13a1.93,1.93,0,0,1-.35-.3c-1.17-1.16-1.09-3-.52-4.6a13.64,13.64,0,0,1,2.42-4.16,11.78,11.78,0,0,1,3-2.64,5.36,5.36,0,0,1,1.75-.7,3.87,3.87,0,0,1,.49-.05h.25l.25,0a1,1,0,0,1,.25.06,2.5,2.5,0,0,1,.25.09l.23.11.11.06.11.08a2.56,2.56,0,0,1,.69.78,3,3,0,0,1,.31.94,5.14,5.14,0,0,1-.09,1.95,10.69,10.69,0,0,1-1.69,3.75,17.38,17.38,0,0,1-1.5,1.81,10.76,10.76,0,0,1-2.86,2.4,4.67,4.67,0,0,1-1.43.47l-.3,0-.14,0h-.08l-.43,0c-.16,0-.2.13-.12.26a1.35,1.35,0,0,0,.36.25l.14.07c-.13,0-.06,0-.05,0l.07,0,.3.1a3.86,3.86,0,0,0,1.79,0,6.26,6.26,0,0,0,2.34-1.17l-.28.18a5.27,5.27,0,0,1-.61.35,4.16,4.16,0,0,1-.62.29Z"/><path class="cls-22" d="M86,578.61a10.33,10.33,0,0,0,2.22-1.18l-.36.28-.37.25a6.9,6.9,0,0,1-.77.47,11.06,11.06,0,0,0,3.77-3,16.63,16.63,0,0,0,2.61-4.32,10.53,10.53,0,0,0,.86-3.61,6.26,6.26,0,0,0-.46-2.77,4.88,4.88,0,0,0-.67-1.19,6.41,6.41,0,0,0-.48-.58,7,7,0,0,0-.65-.52l-.36-.27a8.81,8.81,0,0,0-1.2-.51,5.09,5.09,0,0,0-1.16-.21,6.58,6.58,0,0,0-2.09.23,10.24,10.24,0,0,0-4.36,2.72,16.72,16.72,0,0,0-2.22,2.74c-.17.28-.36.53-.52.83l-.48.88a15.28,15.28,0,0,0-.78,1.91,7.68,7.68,0,0,0-.32,3.94,5,5,0,0,0,1.85,3,6.71,6.71,0,0,0,.56.37l.13.07-.06,0,.29.13c.37.15.58.2.55.14a3.74,3.74,0,0,0-.62-.4l-.06,0,0,0h0l0,0h0l0,0-.23-.17a3.46,3.46,0,0,1-.51-.39,4.81,4.81,0,0,1-1.61-2.94,7.76,7.76,0,0,1,.48-3.74,15.1,15.1,0,0,1,1.72-3.35,17.17,17.17,0,0,1,2.09-2.53,11.85,11.85,0,0,1,2.09-1.65,8.08,8.08,0,0,1,2-.89,6,6,0,0,1,2-.26,5.06,5.06,0,0,1,.53.06l.28.05.28.07a6.73,6.73,0,0,1,1.09.51,5.62,5.62,0,0,1,.91.83,4.32,4.32,0,0,1,.56.94,5.32,5.32,0,0,1,.41,2,8,8,0,0,1-.31,2.25,12.41,12.41,0,0,1-1,2.46A18.3,18.3,0,0,1,89.66,574a14.92,14.92,0,0,1-2.13,2.22c-.2.16-.39.33-.59.47s-.41.27-.6.41l-.62.33a6.05,6.05,0,0,1-.6.26,6.9,6.9,0,0,1-2.16.44l-.42,0h-.22l.07,0,.12,0h-.16l-.71-.07c-.17,0-.2.13-.13.26a3.14,3.14,0,0,0,.63.33l.23.09-.18,0-.07,0h0l.05,0,.09,0,.42.14a5.85,5.85,0,0,0,2.5,0,8.11,8.11,0,0,0,3.3-1.61l-.38.26a5.59,5.59,0,0,1-.86.5,3.48,3.48,0,0,1-.47.24l-.42.17Z"/><path class="cls-18" d="M54.56,499.67c-1.15-2.15-.22,22,3.84,24.43S83,511,89.63,501.7c-17.47,27.75-35.89,36.09-37.33,38s8.58-.16,15.8-4.74c2.26.39,2.69,10.38,2.69,10.38S93.28,528.77,100.43,490A208.89,208.89,0,0,1,58,485.68c3.37,16.25,4.45,27.75,22.18,9.93C65.39,514.89,58.58,507.14,54.56,499.67Z"/><path class="cls-18" d="M53,560.36c15.35-7.9,29.79-19,38.82-35.81-1.68,17.28-16.25,43.79-23.69,47.81S51.06,562.81,53,560.36Z"/><path class="cls-24" d="M140,56.84c1.14-2,2.71-5.05,5.54-3.78s2.69,9.34.88,12.6-1.67,4.4-2.62,5.54-3.71,1.18-4.19-.54"/><path class="cls-25" d="M142.06,59.77c.38-2.21,2.3-4.05,3.16-3.85s1.16,3.62,1.16,3.62-.57-1.69-1.47-.9-2.77,3.33-1.5,4.41-.08,3.27-1,4.14C143.39,64.69,141.3,64.23,142.06,59.77Z"/><path class="cls-26" d="M84.18,48.6A30.05,30.05,0,0,0,116,76.79c16.56-1,27.66-16.12,26.67-32.69s-13.75-28.78-30.31-27.78S83,29.51,84.18,48.6Z"/><path class="cls-26" d="M137.41,28c5.18,6,6.07,15.23,5.37,24.58-.6,7.93.21,13.1-.12,15.52s-.67,12.57-3.21,17.2c-1.77,3.23-6.24,9.8-10.38,12.84-2.53,1.86-10.37,2.41-15,0-3-1.55-14.15-7.45-17.36-13.57-3-5.69-4-18.42-5.29-26.36"/><path class="cls-27" d="M133.37,32.47c8.62,4.88,8,18.93,8,25.84,0,4.85.78,7.57.67,9.69-.17,3.23-1.73,13.83-3.51,17.14s-7.23,9-10,11.67c-2,1.89-9.12,1.86-11.69.38-4.72-2.73-10.66-6.65-14.67-12.47-2.55-3.72-3.27-16.59-3.9-23.55-1.1-12.31,2.19-24.12,9.33-28C116.25,34.25,120.71,34.42,133.37,32.47Z"/><path class="cls-28" d="M118.69,87.88c1.57.49,6.39.92,9.15,0,.13.57-2,3.89-4.55,3.64S118.75,88.82,118.69,87.88Z"/><path class="cls-29" d="M116.09,49.32c1,.37,2.91,3.37,2.71,3.7s-2.94-1.31-3.56-1.43c-1.08-.22-10.3-.48-11.19-.48-1.13,0-5.23,1.63-5.25,1s3.42-3.73,5.9-3.71S115.09,49,116.09,49.32Z"/><path class="cls-29" d="M129.46,49.69c-.69.41-2.06,3.09-1.83,3.5s1.82-1.23,2.73-1.42,8.46-.89,9-.93c.82-.06,2.76,1.25,2.79.83s-1.71-3.61-3.51-3.48S130.15,49.28,129.46,49.69Z"/><path class="cls-30" d="M130.52,70.92c-1.13-.58-3.6.33-4.53,1.12a3,3,0,0,1-3.45.06,7.13,7.13,0,0,0-4.45-.94c-1,.27-1.69,1.15-1.23,1.35s4.72,1,5.69,1.76,1,2.45,1.74,2.21c.22-.07,1.32-1.88,1.87-2.45C126.94,73.2,132,72.67,130.52,70.92Z"/><path class="cls-31" d="M127.06,72.3c.1-.38,2.09-1.52,2.94-1.24s.13,1-.8,1S126.94,72.8,127.06,72.3Z"/><path class="cls-31" d="M121.25,72.53a3.29,3.29,0,0,0-2.68-1.14c-.91.08-1.12,1.21-.41,1.17S121.43,72.89,121.25,72.53Z"/><path class="cls-32" d="M126.27,67.84s1.85.73.9,2C125.29,72.51,124.32,66.89,126.27,67.84Z"/><path class="cls-33" d="M135.41,54.17c1.63.11,5.48,2.1,6.14,3.57-1.33,2.15-3,2.78-6.94,3.1s-5.4-.29-6.35-.07c-2.49.61-.9-.92-.08-2.59S133.05,54,135.41,54.17Z"/><path class="cls-34" d="M128,59.17c2.81-4.31,8.86-4.6,12.84-1.29-1,1.62-6.56,3.74-12.12,2C128.1,60.15,127.45,59.92,128,59.17Z"/><path class="cls-35" d="M129,59.65c1.58-3.24,8.24-4,10.82-1.38C138.33,59.45,132.43,61.3,129,59.65Z"/><path class="cls-36" d="M135.9,55.7c1.18,1.09.8,4.12-2.22,4.61s-4.54-2.45-3.44-3.86S135.35,55.21,135.9,55.7Z"/><path class="cls-37" d="M133.88,57.34a7.89,7.89,0,0,1,1.94,1.33c.18.35-.92,1.52-2.74,1.58a2.54,2.54,0,0,1-2.62-1.41c0-.33,1.7-1.26,1.7-1.26"/><path class="cls-38" d="M133.05,56a1.48,1.48,0,1,1,.46,2.91C131.33,59.34,130.64,56.33,133.05,56Z"/><path class="cls-35" d="M131.27,58.42c-.28-.36.78-1,.92-.37S131.73,59,131.27,58.42Z"/><path class="cls-31" d="M127.09,59.52c1-1.42,1.67-2.62,3.29-3.66s5-1.27,6.66-.89a15.32,15.32,0,0,1,4.87,2.26,9.28,9.28,0,0,0-5.82-3c-1.43-.2-4-.2-5.52.92A9.91,9.91,0,0,0,127.09,59.52Z"/><path class="cls-39" d="M140.85,57.88a13,13,0,0,0-3.71-2c-1.42-.27-5.38.12-6.82,1.08a18.72,18.72,0,0,0-2.61,2.48,18.68,18.68,0,0,1,2-3.44c1.15-1.07,5.17-1.75,7-1.25A7.38,7.38,0,0,1,140.85,57.88Z"/><path class="cls-40" d="M128.88,60.46c1.47-1.08,8.41-1.69,10.33-1.17C137.78,61.14,128.88,60.46,128.88,60.46Z"/><path class="cls-27" d="M137.82,59.82c-2-.34-7.46-.33-9.24,1.34s8.37,2.43,10,1.09S138.25,59.9,137.82,59.82Z"/><path class="cls-33" d="M108.49,54.5c-4.18.25-5.92,2.5-6.54,4.06a11.29,11.29,0,0,0,7.7,3.08c4.37-.06,5.74-1,6.9-1,2.66,0,.84-1.47-.19-3.11S112.83,54.24,108.49,54.5Z"/><path class="cls-34" d="M117,59.36c1,.09.62,1.15-.37.93s-3,.66-6.42.71a15,15,0,0,1-7.47-2.42s2.07-2.35,7.07-2.41A8.6,8.6,0,0,1,117,59.36Z"/><path class="cls-35" d="M116.29,59.65c-2.52-3.35-10.9-3.34-12.61-1.1C106,61.05,114.15,61,116.29,59.65Z"/><path class="cls-36" d="M112.15,56.43c1.07,1.22.38,4.23-2.71,4.38s-4.31-3-3.06-4.28S111.65,55.87,112.15,56.43Z"/><path class="cls-37" d="M110,57.84a8,8,0,0,1,1.81,1.56c.15.38-1.08,1.43-2.91,1.28A2.57,2.57,0,0,1,106.36,59c0-.34,1.83-1.07,1.83-1.07"/><path class="cls-38" d="M109.12,56.22a1.49,1.49,0,1,1,.16,3A1.51,1.51,0,1,1,109.12,56.22Z"/><path class="cls-35" d="M107.22,58.64c-.25-.41.88-.93,1-.28S107.62,59.29,107.22,58.64Z"/><path class="cls-31" d="M117.88,58.65a14.18,14.18,0,0,0-4.32-3.09,11.16,11.16,0,0,0-6.72-.28c-2.53.92-6.14,2.38-6.14,2.38,1.78-2.26,5.56-2.8,7-3.19a9.84,9.84,0,0,1,6,.65A11.36,11.36,0,0,1,117.88,58.65Z"/><path class="cls-39" d="M117,59.36a14.5,14.5,0,0,0-3.85-2.51,14,14,0,0,0-6.85-.2,16.53,16.53,0,0,0-3.76,1.91,31.28,31.28,0,0,1,3-2.72c1.79-1.15,5.8-1.31,7.75-.44S117,59.36,117,59.36Z"/><path class="cls-40" d="M104.67,60c1.74-.62,9.22-.23,10.57.72A18.22,18.22,0,0,1,104.67,60Z"/><path class="cls-27" d="M104.74,60.56c2-.56,9.05-.46,11,1s-10.38,2.72-12.2,1.58S104.33,60.68,104.74,60.56Z"/><path class="cls-30" d="M112.2,74.37c-1,.43-5.32,2.37-5.5,4.47s3.11,6.28,3.11,6.28-2.29-4.59-1.66-6.13S112.2,74.37,112.2,74.37Z"/><path class="cls-30" d="M132.87,73c1.09.32,5.09,2.31,5.49,4.38s-2,6.07-2,6.07,1.83-4.33,1-5.79S132.87,73,132.87,73Z"/><path class="cls-41" d="M133.6,79.41c-2.14-.34-6.53-1.48-7.62-1.45s-1.68.4-2.36.38a18.39,18.39,0,0,0-2.43-.36c-3.76.18-8.91,1.37-10.26,1.42,1.41.79,9.4.73,10.36,1a9.31,9.31,0,0,0,4.36.1C126.94,80.17,132.25,80.33,133.6,79.41Z"/><path class="cls-42" d="M133.37,80.77c-1.5,1-4.33,5.69-10.28,5.72s-10.48-5.41-12-6c2.77.67,7,2.4,12.05,2.47A28.69,28.69,0,0,0,133.37,80.77Z"/><path class="cls-43" d="M118.87,84.06c1.17-.61,3.44.4,3.19,1S117.61,84.71,118.87,84.06Z"/><path class="cls-44" d="M109.44,79.54c-.15-.18.38-.39,2-.13,1.42.24,8,.15,12.45.22a95.62,95.62,0,0,0,9.75-.22c1.53-.17,2-.25,2-.06,0,.43-1.74,1.15-3.32,2-2,1.06-3.84,2.61-8.57,2.75S110.28,80.49,109.44,79.54Z"/><path class="cls-45" d="M116.51,82.62a3.89,3.89,0,0,1-1.05-.94c3.21.85,10.23.94,13.86.26a4.45,4.45,0,0,1-.92.92C126.31,83.89,121.93,84.51,116.51,82.62Z"/><path class="cls-45" d="M113.88,80.14a2.84,2.84,0,0,0,1,1c3.16,1,11.68,1,15.2,0a1.35,1.35,0,0,0,.81-1.09C127.3,80.05,121.28,79.76,113.88,80.14Z"/><path class="cls-46" d="M113.37,79.86s-1.67-.19-2.33-.35-1.21-.26-1.2.06.35.35,1.16.63S114.75,82,114.75,82,112.16,80.43,113.37,79.86Z"/><path class="cls-46" d="M131.22,80c1.45-.19,2.84-.47,3.49-.59s.34.07-.08.43c-.87.75-1.65.83-4.27,2.16C131.58,81,131.22,80,131.22,80Z"/><path class="cls-47" d="M116.72,80.51a1.6,1.6,0,0,0,.66.84c1.81.71,9.54.48,10.85-.07a1.33,1.33,0,0,0,.39-.77Z"/><path class="cls-14" d="M103.26,31.38C98.79,34.08,94,45.12,94,47.92c-.06,8.31,1.89,18.28,1.71,19s-.77.21-1.18.15c-.87-.11-2.83-7-5.51-8.82a14.25,14.25,0,0,0-4-2.16s-3.37-9.3-3.38-18c0-8.13,7.2-15.16,10.58-15.24C94.68,22,104.84,30.42,103.26,31.38Z"/><path class="cls-14" d="M139.13,37.37c1.43,1.55,4,9.35,3.72,14.13s-.48,11.87-.19,12.81c1.1-1.93,2.14-11.59,2.14-11.59s3.55-13.29-1.4-23.82-16.7-16.27-27.82-15.16a11,11,0,0,1,7.86-1.28c-7.13-2-16.79-.57-20.45,4.34a9.86,9.86,0,0,1,5.47-5.27c-7.12,1-15.91,8.88-15,11.11S104,29.5,106.18,30.57c6,1.29,15.16,2.43,24,.32,5.16-1.23,7.82,1.22,7.82,1.22-3.24-1.4-5.28-.24-5.28-.24,3.05-.6,8,5.1,9.29,8.89A13.65,13.65,0,0,0,139.13,37.37Z"/><path class="cls-14" d="M93.07,22.83c-4.89-.8-9.5,4.44-10.4,5.43,3.94-2.1,6.85-3.85,9.66-3.31-7.13,1.64-10.41,5-11.74,9.34,1.81-4.23,11.8-8.07,11.8-8.07"/><path class="cls-14" d="M115.55,13.14c7.56-1.46,13.64.14,15.61,4.32,1-2.67-5.85-6-13.67-5.79"/><path class="cls-14" d="M94.25,23.67c-2.72-1.25-3.44-2.8-.35-6.93-1.87,2.61-1.56,6.38,1,6.3"/><path class="cls-48" d="M101.12,26.21A16.31,16.31,0,0,1,108,24.27s-5,1.29-5.23,4.59c5.45,4.52,18.42,3.18,29.25-2.05-6.38,2.27-16.46,3.9-22.78.53,9.32,1.71,19.3-2.3,22.7-8a41.17,41.17,0,0,1-14.38.67c5.14-.75,11.47-1.57,14.51-2.89-5-5.14-19.22-3.49-25.43.87A20.13,20.13,0,0,1,116.46,12c-10.33,0-15.27,1.33-15.82,9.54-1.19-2.08-1.42-6.88,4.28-10-8.8,3.38-10.43,8.41-8.25,12a11.21,11.21,0,0,1,1-4.38S97.47,20.69,99,24.1a11.86,11.86,0,0,1,6.77-3.32A8.05,8.05,0,0,0,101.12,26.21Z"/><path class="cls-48" d="M128.6,25.21c6.48-.57,13.45,5.79,14.29,8.16-.56-6.5-5.72-10.52-10.32-10.43,6.28-.68,10,2.41,11.72,5-2.48-5.24-8.82-7.74-10.39-7.31C132.57,22.94,128.6,25.21,128.6,25.21Z"/><path class="cls-48" d="M122.77,21.28c5.7-.11,11.12-4,13.37-5a27.28,27.28,0,0,1-8.28,5.7"/><path class="cls-48" d="M93.45,23.71c-2-1.3-5.92-.24-8.35,2.16A17.39,17.39,0,0,1,92.33,25a12.45,12.45,0,0,0-8.53,5.18,63.26,63.26,0,0,1,6.83-2.75c-7.28,3.75-9,10.21-8.57,14.62s3.17,12.17,4.15,13.3c-1-6.73-3.07-14.55,2.23-21.17-2.52,5.88-2.66,7.06-1.51,15-.18-8.42,3.31-13.45,14.37-18.45-1.94-1.73-8.14-.64-10.52,1.1a20.07,20.07,0,0,1,7.94-3c-1.49-1.75-6.29-1.86-6.29-1.86a8.76,8.76,0,0,1,3.62-1.24A6.42,6.42,0,0,0,93.45,23.71Z"/><path class="cls-48" d="M139.64,31.39c2.68,4.84,4.86,10.42,4.35,15.35C145.76,41.1,146,36.66,139.64,31.39Z"/><path class="cls-48" d="M92.79,39.86c-2.47.75-6.3,7.45-5.32,15,.68-5.43,5.89-9.75,5.89-9.75-1.43-.87-3.54,1.74-3.54,1.74A54.12,54.12,0,0,1,92.79,39.86Z"/><path class="cls-48" d="M91.09,51.08c-.88,3.85-1.62,7,2.06,12C91.79,55.44,91.09,51.08,91.09,51.08Z"/><path class="cls-49" d="M128.25,15.38c-10.71.57-14.74,4.16-14.74,4.16,3.67,1.14,6.5,1.78,12.79,1.3-8.39,4.38-17.77,2.4-20.63,2.25a14.68,14.68,0,0,1,4.11-5.28A33.46,33.46,0,0,0,101.37,22C108.54,13,123.76,13.28,128.25,15.38Z"/><path class="cls-48" d="M126.08,16.67a24.53,24.53,0,0,0,9.77-1.74c-2.9,2.77-9.37,3.58-9.37,3.58"/><path class="cls-49" d="M113,10.8c-3.86.25-10.18,2.51-11.19,9.33C106.51,14.83,109.11,11,113,10.8Z"/><path class="cls-49" d="M100.41,13c-3.73,3.9-2.77,8.27-.15,9.34C98.62,19.21,98.37,15.36,100.41,13Z"/><path class="cls-49" d="M94.71,24.07c-2.48-1.89-5.54-2.21-8.28.72C89.73,23.59,94.71,24.07,94.71,24.07Z"/><path class="cls-49" d="M94.45,25.18c-3.49-1.17-5.3.05-7.64,3A53.38,53.38,0,0,1,94.45,25.18Z"/><path class="cls-49" d="M95.14,27.8c-4.15-1.17-11,2.77-12.11,11,4.09-6.57,7-8.16,8.43-9-3.52,4.39-4,6.75-4.65,12.06,1.72-6,9.1-12.06,12.31-11.95-5.56.51-7.63,2.81-7.63,2.81A8.44,8.44,0,0,1,95.14,27.8Z"/><path class="cls-50" d="M102.34,26.67c4.24,4.56,26,.89,33.09-13.61C129.71,24.18,113.29,30.29,103.14,26,102,25.91,102.34,26.67,102.34,26.67Z"/><path class="cls-51" d="M100.9,25.89c-3-4.82,17.09-12,26.2-9.56-10-2.16-29.64,2.8-26.91,9.34C100.61,26.25,100.9,25.89,100.9,25.89Z"/><path class="cls-51" d="M99.79,27.79c.4-2.12-14.36-.54-19.35,8C84.46,30.51,92.8,26.56,99.79,27.79Z"/><path class="cls-51" d="M97.16,25.36c-.08-1.4-5.93-4.18-10.4-3.23C90.41,21.23,96.65,26,97.16,25.36Z"/><path class="cls-26" d="M92.3,63.45c-1.88-5.92-5.9-9.19-10-7.3-1.72,1.13-1,8.64.81,11.34s3.43,3.39,5.18,6.14,6,3.64,6.46-.26"/><path class="cls-52" d="M84.8,58.67c2.09.35,6.26,5.64,5.44,7.25s-1.14,1-1.26,2.28,2.07,2.74,2.07,2.74-3.63-2.06-3.6-3.56,1.92-3.29.39-4.84-3.16-.43-2.85.88S86.24,68,86.24,68s-2.9-4-3.17-6.39S84.28,58.58,84.8,58.67Z"/><path class="cls-19" d="M171.32,168.42s-2.83,33.45-.53,83,16.89,181.17,16.89,228.06c-24.8,10.89-116.31,8.4-141.23-.42.81-16.94,9-111.32,5.9-141.44,2-28.42,9.54-71.4,10.07-86.27s-.53-52.14-2.65-66c2.91-13.19-2-53.24-7.69-63.29,11.51-5.74,36-17.14,36-17.14,3.09,6.64,16.32,15.9,28.17,18,2.38.39,3.27,1,4.1,3.67s4.31,15.32,4.6,19.5c.53-6.76.23-17.19.34-20.1s1-3,3.41-4.23,6.94-10.23,6.94-10.23,17,5.8,31.5,10.51"/><path class="cls-7" d="M90.52,94.15c-1.85,1.85-4.6,11.51-4.6,11.51s1.17,13.17,30.61,17.52c.75-4.78-.19-12-7-13.34s-19.36-8.15-18.52-14"/><path class="cls-53" d="M89.74,97.81c.24,4.57,7.34,9.22,10.68,10.92s.75,7-.23,9.69c3.19,1.44,11.2,3.81,15.77,3.82.8-4.69-1-10.56-5.81-11.57S93.37,104.88,89.74,97.81Z"/><path class="cls-7" d="M133.6,100.57c.71,2.71.94,5.76-4.32,9.25-2.69,1.79-1.84,10.84-1.72,12.42,4.61-1.81,9.34-6,10.05-8.8,0,0-.93-8.92-2.34-12.87"/><path class="cls-20" d="M53.36,123.43c8-4.13,32.11-14.28,32.11-14.28,5.19,9.7,19.32,14,27.81,14.7,1.52,3.35,6.54,23.54,7.07,28.34,1.91,1.14,8.37.61,10.55-.12.59-5.25.15-27.58,0-29.16,3.72-2.71,7.61-6.41,8.2-8.9a274.56,274.56,0,0,1,27.8,9.42c3.85,14.53,2.66,47.54,1.55,58.82s-1.92,21.42-.63,21.2.42,35.17-.49,44.89-9.47,18.36-8.34,19.79,7.25-3.7,9.38-2.38,6.93,52.16,9.72,101.3,7.87,104.59,7,109.11C167.82,487,86.35,490,52.3,477.82c3.39-31.62,9.12-111.75,11.61-140.25s5.38-76.7,7.51-78.28,19.63,18.78,30.94,23.77-18.17-19.6-29.11-38.65c-2.44-9.15-3.58-36.76-1.66-41.68s5-.92,8.85-1.36-10.85-8.5-13.28-24.82C60.57,132.49,53.36,123.43,53.36,123.43Z"/><path class="cls-21" d="M114.29,124.07a186.31,186.31,0,0,1,7.36,27.38c1,.9,7.5.42,8.16-.69.45-7,.53-26.06.25-28.07-1.48.39-3.92,0-4,4.56s.17,14-1,20.38c-1.58-7.12-4-16.12-5-19.64S116.82,124.18,114.29,124.07Z"/><path class="cls-54" d="M128.65,124.33c-2.57,0-3,4.56,0,4.56S131.65,124.33,128.65,124.33Z"/><path class="cls-22" d="M128.91,124.33c-2,0-2.36,3.64,0,3.64A1.82,1.82,0,0,0,128.91,124.33Z"/><path class="cls-55" d="M129.14,124.42c-1.38,0-1.6,2.29,0,2.29A1.15,1.15,0,1,0,129.14,124.42Z"/><path class="cls-54" d="M128.65,134.6c-2.57,0-3,4.56,0,4.56S131.65,134.6,128.65,134.6Z"/><path class="cls-22" d="M128.91,134.6c-2,0-2.36,3.64,0,3.64A1.82,1.82,0,0,0,128.91,134.6Z"/><path class="cls-55" d="M129.14,134.68c-1.38,0-1.6,2.3,0,2.3A1.15,1.15,0,1,0,129.14,134.68Z"/><path class="cls-54" d="M128,144.84c-2.56,0-3,4.57,0,4.57S131,144.84,128,144.84Z"/><path class="cls-22" d="M128.24,144.84c-2.05,0-2.37,3.64,0,3.64A1.82,1.82,0,0,0,128.24,144.84Z"/><path class="cls-55" d="M128.46,144.93c-1.38,0-1.59,2.3,0,2.3A1.15,1.15,0,1,0,128.46,144.93Z"/><path class="cls-53" d="M135.15,102.72c-.41,3.38-1.45,5.29-4.21,7-1,1.09-.82,5.38-.64,10.48,3.34-2.29,6.26-4.72,6.91-6.68A106.69,106.69,0,0,0,135.15,102.72Z"/><path class="cls-23" d="M114.55,122.12c-.93-.19-1-1.16-1-1.74a2.29,2.29,0,0,0-.08-.6,2.85,2.85,0,0,0-.22.49c-.21.5-.59,1.45-1.54,1.24s-1-1.16-1-1.73a2.28,2.28,0,0,0-.1-.62.58.58,0,0,1-.43-.7.55.55,0,0,1,.64-.48c.88.19,1,1.13,1,1.69s.06.65.14.67.24-.37.31-.54c.19-.49.55-1.39,1.44-1.2s.94,1.14,1,1.7a1.72,1.72,0,0,0,.09.63l.07,0a4.08,4.08,0,0,0,.24-.53c.18-.5.26-1.44,1.16-1.24.3.06.35,1.25.06,1.21a3.59,3.59,0,0,0-.21.47C115.87,121.37,115.51,122.33,114.55,122.12Z"/><path class="cls-23" d="M108.63,120.8c-.91-.26-.9-1.23-.89-1.81a2.17,2.17,0,0,0,0-.6,2.54,2.54,0,0,0-.26.47c-.24.5-.67,1.41-1.61,1.15s-.91-1.22-.91-1.8a1.82,1.82,0,0,0-.06-.62.6.6,0,0,1-.39-.73.56.56,0,0,1,.68-.43c.86.24.87,1.18.87,1.75s0,.64.11.67.25-.35.33-.52c.23-.47.65-1.35,1.52-1.1s.87,1.19.86,1.75a2,2,0,0,0,0,.64l.08,0a2.65,2.65,0,0,0,.27-.52c.21-.48.62-1.37,1.5-1.12a.58.58,0,0,1,.38.73.57.57,0,0,1-.66.44,2.81,2.81,0,0,0-.23.46C110,120.13,109.58,121.07,108.63,120.8Z"/><path class="cls-23" d="M103,119.2c-.92-.25-.9-1.22-.89-1.8a2.11,2.11,0,0,0,0-.6,2.82,2.82,0,0,0-.26.47c-.23.49-.67,1.41-1.61,1.15s-.91-1.22-.91-1.8a2.17,2.17,0,0,0,0-.62.59.59,0,0,1-.39-.73.55.55,0,0,1,.67-.44c.87.25.87,1.19.88,1.75s0,.65.1.67.26-.35.34-.51c.22-.48.64-1.35,1.52-1.11s.86,1.2.85,1.76a2,2,0,0,0,0,.64l.07,0a2.42,2.42,0,0,0,.27-.52c.22-.48.62-1.37,1.51-1.12a.6.6,0,0,1,.38.73.57.57,0,0,1-.66.44,3.22,3.22,0,0,0-.24.46C104.36,118.54,103.94,119.47,103,119.2Z"/><path class="cls-22" d="M97.17,117c-.81-.51-.56-1.45-.41-2a2.2,2.2,0,0,0,.11-.59,2.68,2.68,0,0,0-.36.38c-.35.41-1,1.18-1.82.65s-.58-1.45-.44-2a2,2,0,0,0,.1-.61.64.64,0,0,1-.19-.83.52.52,0,0,1,.75-.22c.77.48.54,1.4.41,2s-.13.63-.06.68.33-.27.44-.41c.34-.39,1-1.12,1.73-.63s.53,1.41.39,2a1.94,1.94,0,0,0-.11.64l.06,0a2.5,2.5,0,0,0,.39-.43c.32-.4.93-1.15,1.71-.65a.61.61,0,0,1,.19.82.53.53,0,0,1-.74.23,3.34,3.34,0,0,0-.34.38C98.65,116.7,98,117.49,97.17,117Z"/><path class="cls-22" d="M92.12,113.43a1.75,1.75,0,0,1,0-2.07,1.9,1.9,0,0,0,.22-.55,3.35,3.35,0,0,0-.41.28c-.4.31-1.15.89-1.84.16a1.78,1.78,0,0,1,0-2.08,2.07,2.07,0,0,0,.21-.58.66.66,0,0,1,0-.85.49.49,0,0,1,.75,0,1.72,1.72,0,0,1,0,2c-.2.44-.24.59-.19.65s.37-.17.5-.28c.39-.3,1.11-.86,1.74-.17a1.69,1.69,0,0,1,0,2,2,2,0,0,0-.23.59l0,.06a2.14,2.14,0,0,0,.45-.32c.38-.31,1.09-.88,1.74-.19a.66.66,0,0,1,0,.85.5.5,0,0,1-.74,0,2.07,2.07,0,0,0-.39.28C93.55,113.57,92.81,114.18,92.12,113.43Z"/><path class="cls-22" d="M88.24,108.78a1.7,1.7,0,0,1,.2-2,1.93,1.93,0,0,0,.27-.5,1.79,1.79,0,0,0-.43.2c-.44.25-1.24.7-1.85-.13a1.73,1.73,0,0,1,.18-2.06,1.89,1.89,0,0,0,.27-.53.65.65,0,0,1,.06-.85.49.49,0,0,1,.75.09,1.69,1.69,0,0,1-.19,2c-.25.41-.31.55-.25.62s.37-.12.52-.2c.42-.23,1.19-.67,1.75.11a1.64,1.64,0,0,1-.2,2A1.78,1.78,0,0,0,89,108l0,.06a2,2,0,0,0,.48-.23c.41-.25,1.17-.71,1.74.08a.65.65,0,0,1-.06.84.49.49,0,0,1-.74-.08,2.86,2.86,0,0,0-.42.22C89.65,109.15,88.85,109.62,88.24,108.78Z"/><path class="cls-23" d="M136.87,114.49c-.7.61-1.32,0-1.69-.38a1.62,1.62,0,0,0-.41-.34,2.66,2.66,0,0,0,.16.51c.18.5.52,1.44-.19,2.06s-1.32,0-1.7-.36c-.12-.12-.35-.34-.43-.34a.45.45,0,0,1-.7-.14.67.67,0,0,1,.11-.83c.66-.57,1.27,0,1.64.36s.44.39.5.33a1.55,1.55,0,0,0-.15-.6c-.17-.48-.5-1.38.17-2s1.27,0,1.63.39c.13.12.36.35.45.35l.05,0a2.16,2.16,0,0,0-.18-.55c-.18-.48-.53-1.37.15-2a.44.44,0,0,1,.69.14.68.68,0,0,1-.1.82c0,.11.11.34.16.49C137.23,112.94,137.59,113.87,136.87,114.49Z"/><path class="cls-23" d="M132.49,118.41c-.71.57-1.31-.08-1.67-.46-.12-.13-.31-.34-.4-.36a3.32,3.32,0,0,0,.14.51c.17.51.48,1.46-.26,2.05s-1.31-.07-1.68-.44c-.12-.12-.34-.35-.42-.36-.23.18-.52-1-.29-1.15.68-.54,1,.23,1.36.6s.42.4.49.35a1.52,1.52,0,0,0-.13-.61c-.16-.49-.45-1.4.23-2s1.27.08,1.62.46c.13.13.35.38.43.38l.06-.05a2.56,2.56,0,0,0-.16-.55c-.17-.49-.49-1.4.21-2a.45.45,0,0,1,.69.17.69.69,0,0,1-.13.82,3.29,3.29,0,0,0,.15.49C132.91,116.87,133.24,117.82,132.49,118.41Z"/><path class="cls-23" d="M96.53,105.48a22.27,22.27,0,0,0,11.52,5.73c5.19,1.06,6.07,3.24,6.47,7.25.28.73,1.36,1.38,1.43-.7s-1.1-6-6.23-7.19A53.08,53.08,0,0,1,96.53,105.48Z"/><path class="cls-23" d="M135.07,103.26c-.72,2.73-2.53,5.36-3.33,5.89C135.33,109.2,135.21,105.6,135.07,103.26Z"/><path class="cls-21" d="M57.57,125.27c-1.29,3.44,7.59,30.06,15.69,45.48,23.35,44.46,8.89,37,2.48,32.72s-1.43,3.18,10.64,10.61,21.34,13.28,11.43-2.73c-5.4-8.72-9.81-11.11,8.43-13.48,18.47-2.41,52-7.31,56.67-15.94,5.21-9.57,5.36-50.9,3.27-55.92s-24.63-10.65-24.63-10.65-2.89,3.51-7.21,8c-3.29,3.39-2.09,30.11-2.09,30.11s-7.24,2.31-12.57.79c-2.35-11.57-3.32-25.77-10.75-27.53S90.4,122,84.78,114.35C70.52,117.59,57.57,125.27,57.57,125.27Z"/><path class="cls-21" d="M72.58,310.62c2.84-.66,17,44.76,24.87,47s56.85-51.36,60.68-45.37-60.84,88-60.32,100.76c.59,14.74,8.23,43,21.29,46.33s22.42-9.29,25.23-4.09-20.75,23.88-29.23,25.29S62.42,484.06,58,474.27,66.69,312,72.58,310.62Z"/><path class="cls-21" d="M134.36,278.82c-6.91-.05-18.31,10.92-27.67,10s-26.33-20.15-27.54-18.45,24,38.95,32.47,36.76S141.88,278.87,134.36,278.82Z"/><path class="cls-3" d="M24.3,211c-2.76,7.3-3.18,21.7-1.26,30.48,1.65,7.54,13.85,52.09,15.69,59.47,1.56,6.25,14.33,3.19,13.07-3.05s.53-48.23-.21-58.35C51.25,235,49.9,225.51,46,220.23"/><path class="cls-4" d="M29.26,214.12c-5,.91-6,14.37-5,21.45,1.51,11.12,14.45,60.1,15.37,64.45s8.86,3.82,8.8-.12-2.93-34.85-3.23-45.43S47,210.87,29.26,214.12Z"/><path class="cls-3" d="M51.37,295.4a16.39,16.39,0,0,0,1.17,3.82c1.64,3.23,3.78,7,4.55,9l-18.87,13s0,7.56,1.4,10.12,6.48,11,8.13,13.72.47,5.1-1.44,4.19a16,16,0,0,1-5.18-4.12c-1.23-1.7-6-7.48-6.81-10.4s-2-8.8-2.26-10.73-1-3.61.3-7.22a224.06,224.06,0,0,0,5.41-21.89"/><path class="cls-12" d="M36,318.42c.17-1.4-1.56-1.23-1.57.48s2.87,14.28,4.12,16.1,8,10.7,9.26,11-5-6.64-6.69-11.31S35.91,319,36,318.42Z"/><path class="cls-3" d="M50.87,294.89c.13,2.12,6.64,12.66,7.26,16.3s1.95,12.1,2.24,15.82-2.92,4.27-5.18,1.32-2.6-10.79-4-12.19-6.89,2.65-7.32,6.2,2.36,12.24,3.46,14.13,4,5.64,3.87,8.37-1.65,4.28-4.58.53-6.7-9.79-7.81-12.74-2.12-7.89-2.78-10-1-4.2-.42-5.83"/><path class="cls-4" d="M33.76,317.7c0-1.21,2.72-2.1,2.18.18s2.25,13,3.41,16.12,7.22,11.37,8.85,12.62,1.93-.88,1.09-2.58-5-7.4-5.9-10.17-3-12.71-2.07-15.45,6.61-11,8.53-10.26c.67.24,2.4,2.16,3.08,4.22,1.54,4.66,2.5,12.24,3.24,14.68,1.08,3.51,4.17,1.1,3.52-.91s-1.86-13.55-2.44-15.67S49.52,293.85,48.64,292s-8-2.91-9,1c-1.11,4.08-6.78,23.28-7.22,26.83s2.15,13,2.64,15.25,6.54,10.05,8.13,11.35,3,2.38,3.6,2.25.74-1.63-.17-2.32-8.19-9.6-9.1-11.87S33.85,320.21,33.76,317.7Z"/><path class="cls-56" d="M39.44,317.88c-.74,1.4-3.31,2.65-3.21.56s-2.12-2.4-2.42-1-.72,2.56-1.06,2.44-.28-1.2.67-4,6.12-20.65,7-23.45c.57-1.83,4.86-1.95,5.29.09S41.66,313.73,39.44,317.88Z"/><path class="cls-9" d="M56.15,325.22a5.15,5.15,0,0,0,1.06,3.5,2.29,2.29,0,0,0,2.61-.64c.28-.68,0-3.17-.54-3.52S56.3,324.74,56.15,325.22Z"/><path class="cls-9" d="M45.75,343.87a1.89,1.89,0,0,1,1.63-1.14c.64,0,2,2.38,2,2.95s-.18,1.47-1.2.94A8.15,8.15,0,0,1,45.75,343.87Z"/><path class="cls-9" d="M43.46,347.15a2.5,2.5,0,0,1,1.31-1.49c.61-.2,2.35,1.74,2.48,2.29s-.23,1.24-.71,1.21C45.38,349.08,43.7,347.46,43.46,347.15Z"/><path class="cls-12" d="M49.56,309.82c-2.06.14-5.82,6.86-6.23,8.29a46.45,46.45,0,0,0-.39,6.83,9.89,9.89,0,0,1,4.74-9.19c2.53-1.45,3.76-1.39,4.5,1.92a40.92,40.92,0,0,0,2.74,8.5C53.85,320.44,52,309.65,49.56,309.82Z"/><path class="cls-57" d="M50.08,352.57c-4,19.29-15.87,109.27-14.66,111.58a6.87,6.87,0,0,0,2.67,1.78S45.75,393.75,50.08,352.57Z"/><path class="cls-19" d="M55.68,120.24s-15.44,6-21.2,17.17-14.72,58.88-14.72,64,1.19,5.08-1,8.63-2.71,5.58-1,9.14.17,15.12.51,19.15,9.31,55.64,10.15,57.16,3.22,2.34,1.7,5.74-.28,6.82,1.55,8c.92-2.84,11.82-10.54,24.47-9.16.88-1.86,1.52-2.76.68-5.64a12.22,12.22,0,0,1-.38-7.56c.72-3.61-2.61-53.4-3.9-56.68-.6-1.52,1.52-3.55,1.94-4.74s-1.18-3.81-1.1-5.5,5.55-25,7.89-31.64c2-5.67,3.7-10.16,3.7-10.16"/><path class="cls-20" d="M51.89,124.07c-6.8,3.35-13.63,7.52-17.86,17.34S21,198.49,21.18,201.65s5.94,10.31,8.08,12.47-1.46,2.1-3.87.34-6.72-1.94-7.63-1.15,1.84,5.71,6.91,10.22,13.2,8.57,15.12,8.57,8.15-10.38,10.9-18.72S59,185.9,59,182.29,49.83,169.72,50.05,168s10.35,4,11.55,3.05S58.35,130.2,51.89,124.07Z"/><path class="cls-20" d="M39.93,289.78c-4.42,3.36-8.66,4.82-9.68,3.53s-8.8-41.35-9.81-47.78-.85-16.25,0-16.84S32,233,35.67,232.33s11.5-3.39,16.22-9.31c0,5.08-10.81,21.32-8.78,21.49s6.26-8.63,6.65-6.6,1.31,38.75.59,39.08-5.54,1.53-9.52,4.75c0,0,8-2.16,10.88-.45,1.5.9,4.1,9.58-.36,9.41s-13.83,3.31-7.68,3.72,11.14,2.24,10,2.95-15-.41-19.3,2.53,1.15-4,3.42-5.94C40.42,291.75,40.89,289.06,39.93,289.78Z"/><path class="cls-20" d="M30.31,302c-.9,1.48,1.38,4.36,2.05,4.36s4.38-4.36,10.46-6.08,12.41-2.46,12.82-3.2-11.84-2.88-17.19-.83S31.15,300.66,30.31,302Z"/><path class="cls-21" d="M25.4,200.18c-.76-7.07,5.83-49.71,9-58.09S48.35,127,51.89,127.54c5.56.79,7,20.19,5.55,27.74s-8.4,6-9,8.65,6,15.61,5.43,17-8.8-6.52-10.92-5.46c-4.17,2.07.41,40.32-2.11,41.72S26.24,208,25.4,200.18Z"/><path class="cls-21" d="M23.93,218.45c-2.93,1.36,13.12,11.17,15.22,10.66S46,223.53,44.37,223s-4.3,3.22-6.5,2.71S25.39,217.78,23.93,218.45Z"/><path class="cls-21" d="M47.83,228.61c-2-1.08-11.18,5.58-13.7,5.58s-8.7-2.95-8.74-1.81,10.15,5.9,11.48,8.08-1.35,16.43-.26,18,12.66-14.56,11.22-15.8S43.54,249,41.55,247s.24-9.46,1.33-10.81S49.19,229.33,47.83,228.61Z"/><path class="cls-21" d="M37.87,289.35c2.8-.79,7.61-1.41,2.5,2.95s-8.82,10.64-6.24,10.77,8.51-4.78,11.62-5.19-.42-1.93-4.2-2.46-1.83-2.2,4.52-4.89,4-6.73-6.38-3.5S34.5,290.29,37.87,289.35Z"/><path class="cls-58" d="M85.24,600c-1.46,1.07-8.12,3.71-10.9,8.8s-9.16,12.58-21.22,15.48c-7.67,1.85-19.88,2.34-22.93-.69-1.58-1.58,1.69-10.15,4.62-12.63s13,7.41,23.52,1.2,26.51-18.21,27.19-16.48S86.23,599.25,85.24,600Z"/><path class="cls-59" d="M50.35,590.81c-2.56,4.24-4.22,7.28-1.36,7.59s6.47-1.68,6.47-1.68-1.46,4.27.88,6.73c5,5.26,26.15-14,27.62-19.7,2,3.45,2.74,12.34,1.56,13.65s-9.53,4.47-12.23,9.43-9,12.28-20.71,15.12c-7.49,1.8-19.41,2.28-22.39-.68-1.55-1.54,2.32-13.48,8.82-19.85C43.16,597.34,50.35,590.81,50.35,590.81Z"/><path class="cls-60" d="M47,595c-.22,2.41-.65,6,7,3-2.15,7.14,4.16,9.29,10.83,5.09,4.5-2.83,14.88-11.4,17.92-15.58C78.7,595,67,603.91,61.24,610S34.55,619.34,33,616.92C32,615.23,34.94,603.22,47,595Z"/><path class="cls-61" d="M32.82,623.39c-2-.32-1,1.19,4.46,1.74s20.08-1.72,24.87-6.09C50.56,623.61,40.79,624.7,32.82,623.39Z"/><path class="cls-58" d="M195.23,609.17c1.52,1.36.93,4.62-5.42,7.62-7.35,3.47-16.84,5.58-30-.34s-16.52-5.92-24.38-6.8-11.62-2.07-12.46-4.57a10,10,0,0,1,0-3.8s10.91-4.06,24.79,3.63,18.18,10,29.1,7.87S195.23,609.17,195.23,609.17Z"/><path class="cls-59" d="M125.36,587.66c4.22,4.22,11.66,6.76,21.31,8s12.85,4,18.44,6.91,14.38.57,10.66-5.12c5.92,6.46,17.93,7.85,19.46,9.2s.93,4.62-5.42,7.62c-7.35,3.47-16.84,5.58-30-.34s-16.52-5.91-24.38-6.8S123.82,605,123,602.51,123,590.54,125.36,587.66Z"/><path class="cls-60" d="M131.16,593c5.3,6.65,14.32,5.07,23.12,9.92s13.55,7.73,18.72,8.8c7.39,1.53,22.23-.11,21.66-4.4-.27-1.12-11.78-2.54-17.48-7.67.84,3.61-6.19,7.31-14.5,2.43-8-4.68-11.33-4.91-18.33-5.81A47.61,47.61,0,0,1,131.16,593Z"/><path class="cls-61" d="M161.81,615.49c9,4.31,24.71,4,32.87-4.07C184.91,621.15,170.44,621.58,161.81,615.49Z"/></svg>