<svg id="Layer_1" data-name="Layer 1" xmlns="http://www.w3.org/2000/svg" width="512" height="512" viewBox="0 0 512 512">
  <defs>
    <style>
      .cls-1 {
        fill: #8436ff;
      }
    </style>
  </defs>
  <path class="cls-1" d="M329.35,222.86c11.19-16.65,26.07-52.39,23.83-73.19-1.11-10.3-2.16-19.94-6.45-28.72a116.93,116.93,0,0,0-12.08-28.27h-37.4a36.5,36.5,0,0,1,8.1,6.12c7.46,7.47,11.26,26.26,12.89,39.27,1.89,15.12,1.89,42.51-17.3,63.07-5.38,7.79-15.38,13.57-21.71,13.57q-17.64,2.72-31.55,4.41a192.37,192.37,0,0,1-22,1.69c-7.7,0-11.53,3.85-11.53,11.54q0,4.74,12.89,19t17.63,14.25c3.62,0,32.34-9.74,58.79-9.74,49.51,38.33,51.43,82,23.11,110.25-10.65,10.77-27.4,17-53.4,15.23-23-1.57-39.29-8.16-57.15-24.68s-52.56-68.53-68.38-104.26l-18.32,10.18c19.9,43.19,55.08,101.63,78.38,123.68s48.73,33.07,76.32,33.07q40.71,0,66.15-22.43c28.36-27,41.33-66.08,26.22-109.54-2.35-6.75-9.8-19.87-21.07-32A224.24,224.24,0,0,0,329.35,222.86Z"/>
</svg>
