<svg id="Layer_1" data-name="Layer 1" xmlns="http://www.w3.org/2000/svg" width="512" height="512" viewBox="0 0 512 512">
  <defs>
    <style>
      .cls-1 {
        fill: #8436ff;
      }
    </style>
  </defs>
  <path class="cls-1" d="M414.4,194q-22.48-24-42.71-24a85.71,85.71,0,0,0-37.46,8.24c-12.89,6.24-41.13,26.12-64.92,44.71l-.11-.11c11.19-16.65,26.07-52.39,23.83-73.19-1.11-10.3-2.16-19.94-6.45-28.72A116.93,116.93,0,0,0,274.5,92.68H237.1a36.5,36.5,0,0,1,8.1,6.12c7.46,7.46,11.26,26.26,12.89,39.27,1.89,15.11,1.89,42.51-17.3,63.07-5.38,7.79-15.38,13.57-21.71,13.57q-17.64,2.72-31.55,4.41a192.37,192.37,0,0,1-22,1.69c-7.7,0-11.53,3.85-11.53,11.53q0,4.75,12.89,19t17.63,14.25c3.62,0,32.34-9.74,58.79-9.74,49.51,38.33,51.43,82,23.11,110.25-10.65,10.77-27.4,17-53.4,15.23-23-1.58-39.29-8.16-57.15-24.68s-52.56-68.53-68.38-104.26L69.13,262.57C89,305.76,124.21,364.2,147.51,386.25s48.73,33.07,76.32,33.07q40.71,0,66.15-22.43c28.36-27,41.33-66.08,26.21-109.54-2.34-6.75-9.79-19.87-21.06-32,12.57-11.32,31.5-27.1,44-34q25.09-13.86,37.84-13.87A35.78,35.78,0,0,1,402,217.6Q412.89,227.71,412.9,245a131.07,131.07,0,0,1-11.64,53.26c-10,22.48-38.52,79.62-52,98.6l35.12,22.51c11.48-15,41-74.35,48-93.08s10.49-36.34,10.49-52.82Q442.87,224.73,414.4,194Z"/>
</svg>
