<svg id="Layer_1" data-name="Layer 1" xmlns="http://www.w3.org/2000/svg" width="512" height="512" viewBox="0 0 512 512">
  <defs>
    <style>
      .cls-1 {
        fill: #e7ff00;
      }
    </style>
  </defs>
  <path class="cls-1" d="M422,211.31c-15.9-17-31.5-25.55-46.36-25.55A90.93,90.93,0,0,0,336,194.5c-10.55,5.1-29.62,18.13-47.66,31.47,8.31-18.24,15.25-40.83,13.6-56.1-1.14-10.56-2.21-20.53-6.73-30a132,132,0,0,0-8.31-21.47h72a5,5,0,0,0,5-5L364,72a5,5,0,0,0-5-5H65.21a5,5,0,0,0-5,5l-.05,41.47a5,5,0,0,0,5,5H239.72a32,32,0,0,1,5.92,4.66c5,5,9.24,18.54,11.46,36.35,1.73,13.8,1.95,39.83-16,59a5,5,0,0,0-.46.57c-4.51,6.53-13,11.41-17.59,11.41a5,5,0,0,0-.77.06c-11.78,1.81-22.34,3.29-31.39,4.39a187.93,187.93,0,0,1-21.44,1.65c-10.51,0-16.53,6-16.53,16.54,0,3.47,1.72,8.58,14.18,22.35,12.63,14,17.72,15.89,21.35,15.89,1.52,0,3.52-.49,9.1-1.9,10.5-2.66,29.78-7.53,48-7.83,23.66,18.7,36.82,39.43,38.11,60,1,15.35-4.86,29.77-16.86,41.71-9.34,9.45-22.86,14-41.32,14-2.62,0-5.37-.09-8.18-.29-22.4-1.53-37.57-8.08-54.09-23.36S112.36,308.05,96,271.1a5,5,0,0,0-3-2.72,5.09,5.09,0,0,0-1.59-.26,5,5,0,0,0-2.43.63L70.67,278.93a5,5,0,0,0-2.11,6.46C88.63,329,123.85,387.71,148.05,410.61s51,34.44,79.75,34.44c28.27,0,51.64-8,69.46-23.68l.14-.13c32.19-30.65,42.21-72.49,27.49-114.8-2.39-6.88-9.13-18.73-18.73-30,12.79-11.28,28.85-24.23,39.33-30,15.91-8.79,27.83-13.24,35.42-13.24A30.65,30.65,0,0,1,402.6,242c6.24,5.82,9.27,13.57,9.27,23.69a127.39,127.39,0,0,1-11.21,51.24c-10.3,23.16-38.38,79.25-51.51,97.72a5,5,0,0,0,1.38,7.11l35.12,22.51a4.9,4.9,0,0,0,2.69.79,5,5,0,0,0,4-1.95c11.55-15.08,41.49-75,48.73-94.37s10.8-37.58,10.8-54.58C451.84,260.55,441.82,232.69,422,211.31ZM436.35,347c-7,18.73-36.52,78.09-48,93.07l-35.12-22.51c13.49-19,42-76.12,52-98.59a131.11,131.11,0,0,0,11.64-53.27q0-17.22-10.86-27.35a35.77,35.77,0,0,0-25.1-10.11q-12.75,0-37.84,13.86c-12.46,6.89-31.4,22.67-44,34,11.28,12.14,18.72,25.27,21.07,32,15.11,43.46,2.14,82.53-26.22,109.54q-25.44,22.44-66.15,22.43-41.38,0-76.32-33.07C128.18,384.93,93,326.49,73.1,283.3l18.32-10.18c15.82,35.73,50.51,87.76,68.39,104.27s34.13,23.1,57.14,24.67c26,1.78,42.75-4.46,53.4-15.23,28.32-28.2,26.41-71.92-23.11-110.25-26.45,0-55.17,9.74-58.78,9.74q-4.76,0-17.64-14.25t-12.89-19c0-7.68,3.84-11.54,11.53-11.54a192.52,192.52,0,0,0,22-1.69q13.89-1.68,31.55-4.41c6.32,0,16.33-5.78,21.7-13.57,19.19-20.55,19.19-48,17.3-63.07-1.62-13-5.42-31.8-12.89-39.26a36.32,36.32,0,0,0-8.1-6.13H65.16l0-41.46H359l0,41.46h-80.5a116.92,116.92,0,0,1,12.09,28.27c4.29,8.79,5.33,18.42,6.44,28.73,2.25,20.8-12.92,57-24.1,73.59,23.87-18.67,52.34-38.73,65.3-45a85.77,85.77,0,0,1,37.46-8.24q20.23,0,42.71,24,28.47,30.74,28.47,79.42Q446.84,318.89,436.35,347Z"/>
</svg>
