<svg xmlns="http://www.w3.org/2000/svg" xmlns:xlink="http://www.w3.org/1999/xlink" width="206.29" height="214.56" viewBox="0 0 206.29 214.56">
  <defs>
    <style>
      .cls-1 {
        isolation: isolate;
      }

      .cls-2 {
        fill: #ff0;
      }

      .cls-3 {
        fill: #cae1e5;
      }

      .cls-15, .cls-17, .cls-4 {
        mix-blend-mode: multiply;
      }

      .cls-4 {
        fill: url(#linear-gradient);
      }

      .cls-5 {
        fill: #b55e23;
      }

      .cls-6 {
        fill: url(#linear-gradient-2);
      }

      .cls-7 {
        fill: #db9556;
      }

      .cls-8 {
        fill: #ed8037;
      }

      .cls-9 {
        fill: url(#linear-gradient-3);
      }

      .cls-10 {
        fill: #d87430;
      }

      .cls-11 {
        fill: url(#linear-gradient-4);
      }

      .cls-12 {
        fill: url(#linear-gradient-5);
      }

      .cls-13 {
        fill: #aae8f9;
      }

      .cls-14 {
        fill: #cff6ff;
      }

      .cls-15 {
        fill: url(#linear-gradient-6);
      }

      .cls-16 {
        fill: url(#linear-gradient-7);
      }

      .cls-17 {
        fill: url(#linear-gradient-8);
      }

      .cls-18 {
        fill: #41c3d8;
      }

      .cls-19 {
        fill: #fff;
        opacity: 0.35;
        mix-blend-mode: lighten;
      }
    </style>
    <linearGradient id="linear-gradient" x1="100.6" y1="33.18" x2="104.72" y2="33.18" gradientUnits="userSpaceOnUse">
      <stop offset="0.01" stop-color="#aae8f9"/>
      <stop offset="0.35" stop-color="#ade9fa"/>
      <stop offset="0.65" stop-color="#b8edfb"/>
      <stop offset="0.93" stop-color="#caf4fe"/>
      <stop offset="1" stop-color="#cff6ff"/>
    </linearGradient>
    <linearGradient id="linear-gradient-2" x1="103.08" y1="58" x2="103.08" y2="33.98" gradientUnits="userSpaceOnUse">
      <stop offset="0" stop-color="#efb378"/>
      <stop offset="0.02" stop-color="#f0b376"/>
      <stop offset="0.31" stop-color="#f8b565"/>
      <stop offset="0.63" stop-color="#fdb75a"/>
      <stop offset="0.99" stop-color="#ffb757"/>
    </linearGradient>
    <linearGradient id="linear-gradient-3" x1="8.77" y1="118.98" x2="47.94" y2="118.98" gradientUnits="userSpaceOnUse">
      <stop offset="0" stop-color="#cff6ff"/>
      <stop offset="0.07" stop-color="#caf4fe"/>
      <stop offset="0.35" stop-color="#b8edfb"/>
      <stop offset="0.65" stop-color="#ade9fa"/>
      <stop offset="0.99" stop-color="#aae8f9"/>
    </linearGradient>
    <linearGradient id="linear-gradient-4" x1="119.32" y1="77.02" x2="119.32" y2="39.66" xlink:href="#linear-gradient"/>
    <linearGradient id="linear-gradient-5" x1="158.08" y1="118.99" x2="197.51" y2="118.99" xlink:href="#linear-gradient"/>
    <linearGradient id="linear-gradient-6" x1="104.04" y1="58.31" x2="122.74" y2="58.31" xlink:href="#linear-gradient"/>
    <linearGradient id="linear-gradient-7" x1="86.83" y1="77.02" x2="86.83" y2="39.64" xlink:href="#linear-gradient"/>
    <linearGradient id="linear-gradient-8" x1="92.35" y1="75.93" x2="92.35" y2="39.64" xlink:href="#linear-gradient"/>
  </defs>
  <g class="cls-1">
    <g id="Layer_1" data-name="Layer 1">
      <g>
        <path class="cls-2" d="M194.43,98.53a7.39,7.39,0,0,0-3.57-2.5c-17.06-20.49-27-31.09-32-34.25-8.28-5.22-14.95-9.8-18.5-12.29l.18-1.75A6,6,0,0,0,137.8,42l-11.86-7.45a5.91,5.91,0,0,0-3.19-.92H121c-5.66-4.52-8.57-5.43-10.62-5.59a12.15,12.15,0,0,0-3.82-6.44c-.25-.21-.52-.43-.72-.58a4,4,0,0,1-.63-.56c0-.57,0-1.31,0-2l4-1.18A7.16,7.16,0,0,0,116,24.6h.29a7.12,7.12,0,0,0,7.11-6.87c.36-8.82-5.14-14.54-14.36-14.93h-.2l-1.33,0c-5.41,0-9.62,1.46-12.49,4.35q-.24.24-.45.48c-3.84,4.27-3.68,9.71-3.59,13.26v.37a13.26,13.26,0,0,0,2.38,7.22c-2.32.71-5,2.35-8.44,5.18H83.4a5.91,5.91,0,0,0-3.19.92L68.35,42a6,6,0,0,0-2.77,5.72l.18,1.76C62.21,52,55.54,56.56,47.26,61.78c-5,3.17-14.87,13.71-31.83,34.08a7.36,7.36,0,0,0-3.28,2.32l-7.69,9.48A7.38,7.38,0,0,0,3.61,109,7.47,7.47,0,0,0,3,114a6,6,0,0,0,2.15,3.79l.2.19.17.14,27.61,22.71a7.34,7.34,0,0,0,10-.62l7.07-7.41.34,70.3a6,6,0,0,0,5.2,5.91c.51.07,12.48,1.69,16.72,2s13.38.55,27.14.73H100l1.95,0h2a4.63,4.63,0,0,0,.65,0l2.43,0c6.28-.11,17.56-.34,22.5-.69,5.3-.39,20.69-2.22,21.34-2.3a6,6,0,0,0,5.29-6l0-32.49,0-37.52,6.54,7.15a7.35,7.35,0,0,0,5.43,2.4,7.42,7.42,0,0,0,4.55-1.57l28.07-22.09a7.46,7.46,0,0,0,1.26-10.4Z"/>
        <g>
          <g>
            <path class="cls-3" d="M117.44,17.5a1.11,1.11,0,0,1-1.16,1.1,1.14,1.14,0,0,1-1.07-1.19c.2-5.16-2.85-6.11-6.24-6.29h-.24c-3.81-.17-6.46.48-7.88,1.93a4.39,4.39,0,0,0-.51.63c-1.22,1.8-1.15,4.45-1.08,7V21c.06,2.16,1.66,3.8,3,4.8a4.16,4.16,0,0,1,.39.32,6.12,6.12,0,0,1,2.06,4.57v8.36a1.12,1.12,0,1,1-2.24,0V30.71a3.77,3.77,0,0,0-1.52-3l-.36-.27A8.59,8.59,0,0,1,97,21.09v-.34c-.08-3.12-.18-6.65,2-9.13l.21-.22c1.89-1.93,5-2.78,9.45-2.6h.09C114.77,9.06,117.67,12,117.44,17.5Z"/>
            <path class="cls-4" d="M104.72,30.71v8.36a1.12,1.12,0,1,1-2.24,0V30.71a3.77,3.77,0,0,0-1.52-3l-.36-.27a21.31,21.31,0,0,0,2.06-1.28A6.12,6.12,0,0,1,104.72,30.71Z"/>
            <polygon class="cls-5" points="83.4 39.64 122.75 39.64 116.98 82.52 98.6 89.82 83.4 39.64"/>
            <path class="cls-6" d="M109.84,34a52.16,52.16,0,0,0-7,.22A50.17,50.17,0,0,0,96,34c-4,.22-14.49,10.8-14.49,10.8L88.79,58s4.45-5.88,13.89-5v.14s0-.11,0-.11l.18,0,.19,0v0c9.63-.89,14.17,5,14.17,5l7.38-13.18S113.87,34.24,109.84,34Z"/>
            <path class="cls-7" d="M117.23,56.54s-4.54-5.88-14.17-5v0h-.37v.12a.76.76,0,0,1,0-.15c-9.44-.88-13.89,5-13.89,5L82.06,44.31l-.52.51L88.79,58s4.45-5.88,13.89-5v.14s0-.11,0-.11l.18,0,.19,0v0c9.63-.89,14.17,5,14.17,5l7.38-13.18-.53-.51Z"/>
            <path class="cls-8" d="M103.94,78.79v127h-1.73l-2.6,0c-7.13-.1-21.12-.31-26.79-.72-4.11-.29-16.35-1.94-16.35-1.94l-.41-86a1.16,1.16,0,0,0-2.14-.58l-6.8,8-8,9.34S14.11,116,9,113.23l-.15-.08.06-.07c.21-.24.55-.62,1-1.16,1.64-2,4.72-5.73,8.53-10.32,10.36-12.5,26-31,32-34.74C62.52,59.25,71.1,53.07,72.1,52.35l.1-.07-.66-5.19L83.4,39.64c.14.42,2.67,6.82,6.09,14.37,3.3,7.33,7.44,15.75,11,20.88.54.77,1.07,1.46,1.58,2.07.23.28.46.53.69.77a4,4,0,0,0,.28.29A8.39,8.39,0,0,0,103.94,78.79Z"/>
            <path class="cls-9" d="M47.55,126.83l-8.83,9.25a1.35,1.35,0,0,1-1.83.12L9.29,113.5a2.05,2.05,0,0,1-.25-.27.75.75,0,0,1-.09-.15,1.44,1.44,0,0,1,0-1.38,1,1,0,0,1,.14-.22L16.81,102a1.33,1.33,0,0,1,1.66-.36,1.58,1.58,0,0,1,.24.15l16,12.84,12.38,9.91.29.22A1.46,1.46,0,0,1,47.55,126.83Z"/>
            <path class="cls-8" d="M197.26,113.15c-1.12.6-3.42,2.08-6.28,4-9.14,6.14-24,16.7-24,16.7l-8.23-9.64-6.54-7.65a1.16,1.16,0,0,0-2.14.58l0,53.13v32.49s-15.84,1.9-21.06,2.27c-4.7.34-15.8.57-22.17.68l-3,.06h-1.73v-127a8.8,8.8,0,0,0,.82-.73l0,0c.31-.32.63-.67,1-1.06,7.44-8.81,18.4-36.44,18.71-37.32l11.86,7.45L134,52.28l.1.07c1,.72,9.58,6.9,21.64,14.51,6,3.79,21.87,22.53,32.23,35C192.74,107.7,196.37,112.17,197.26,113.15Z"/>
            <path class="cls-10" d="M105.2,85.66s11-14,15.19-11.24,13.1,8.64,13.1,8.64l.56-30.71-12.82-4.83L109,70.53l-7.13,9Z"/>
            <path class="cls-11" d="M134.61,47.09l-.08.76-.48,4.5L131.43,77,117.07,65.47l-.14-.12L104,77c7.39-8.75,18.27-36.1,18.7-37.3C122.74,39.64,134.61,47.09,134.61,47.09Z"/>
            <path class="cls-12" d="M197,113.91l-4.62,3.63L168.91,136a1.34,1.34,0,0,1-1.83-.15l-8.63-9.44a1.45,1.45,0,0,1,.18-2.11l.14-.1,16.13-12.35L187.8,102l.12-.08a1.36,1.36,0,0,1,1.77.33l7.52,9.7A1.44,1.44,0,0,1,197,113.91Z"/>
            <path class="cls-13" d="M106.92,205.7l-3,.06a5.16,5.16,0,0,1-.86,0h-.87l-2.6,0c.37-16.49,2-94.94.06-122.85-.37-5.4-.87-8.9-1.55-9.71l2,1.19.41.52,2.27,2.84.2.26,0,.07c.32.54.62,1.08.91,1.63a22.1,22.1,0,0,1,2.8,8.87c0,.25,0,.51,0,.77Z"/>
            <path class="cls-10" d="M106.74,88.56l-2.8-2.25-4.27-3.42c-4.24-3.39-8.38-6.69-10.4-8.25C84.24,70.75,73.55,87,73.55,87s-1.47-34.13-1.45-34.6L89.49,54c3.3,7.33,7.44,15.75,11,20.88l2.27,2.84.2.26,0,.07c.32.54.62,1.08.91,1.63A22.1,22.1,0,0,1,106.74,88.56Z"/>
            <polygon class="cls-14" points="104.25 76.61 116.93 65.35 131.42 77.02 116.98 64.05 104.25 76.61"/>
            <path class="cls-15" d="M122.74,39.66c-.15.7-4.07,18.93-5.67,25.81l-.14-.12L104,77C111.43,68.21,122.31,40.86,122.74,39.66Z"/>
            <path class="cls-10" d="M158.63,124.3l-6.4-7.75a1.16,1.16,0,0,0-2.14.58l0,53.13C147.81,151,144,120,142.29,110.39c-2.51-14.25-8.17-29.16,1.26-16.2C148.5,101,158,124.81,158.63,124.3Z"/>
            <path class="cls-16" d="M102.11,77l-1.53-1.38-10.77-9.7-.59-.53L74.72,77,72.1,52.35l-.48-4.5-.08-.76,11.87-7.45c.29.85,10.48,26.54,17.88,36.29C101.56,76.3,101.84,76.64,102.11,77Z"/>
            <path class="cls-14" d="M74.73,77,89.22,65.35,102.11,77,89.17,64S77.37,73.6,74.73,77Z"/>
            <path class="cls-17" d="M101.29,75.93l-.71-.35-10.77-9.7-6.4-26.24C83.7,40.49,93.89,66.18,101.29,75.93Z"/>
            <ellipse class="cls-18" cx="103.73" cy="95.38" rx="2.1" ry="2.16"/>
            <ellipse class="cls-18" cx="103.73" cy="190.76" rx="2.1" ry="2.16"/>
            <ellipse class="cls-18" cx="103.63" cy="166.78" rx="2.1" ry="2.16"/>
            <ellipse class="cls-18" cx="103.63" cy="142.8" rx="2.1" ry="2.16"/>
            <ellipse class="cls-18" cx="103.63" cy="118.17" rx="2.1" ry="2.16"/>
            <path class="cls-18" d="M19.27,109.42a2.1,2.1,0,1,1-2.09-2.16A2.12,2.12,0,0,1,19.27,109.42Z"/>
            <path class="cls-19" d="M109,11.12l-8.63,2.55-1.27-2.05.21-.22c1.89-1.93,5-2.78,9.45-2.6Z"/>
            <ellipse class="cls-18" cx="189.13" cy="109.1" rx="2.1" ry="2.16"/>
          </g>
          <path class="cls-10" d="M52.5,117.67l9.16-15.81s-2.16,47.24-5,66.46l-.18-49.93S57.17,112.1,52.5,117.67Z"/>
        </g>
      </g>
    </g>
  </g>
</svg>
