<svg id="Layer_1" data-name="Layer 1" xmlns="http://www.w3.org/2000/svg" xmlns:xlink="http://www.w3.org/1999/xlink" width="355" height="357" viewBox="0 0 355 357">
  <defs>
    <style>
      .cls-1 {
        fill: none;
      }

      .cls-2 {
        fill: #ff0;
      }

      .cls-3 {
        clip-path: url(#clip-path);
      }

      .cls-4 {
        clip-path: url(#clip-path-2);
      }

      .cls-5 {
        clip-path: url(#clip-path-3);
      }

      .cls-6, .cls-9 {
        isolation: isolate;
      }

      .cls-6 {
        fill: url(#linear-gradient);
      }

      .cls-7 {
        fill: url(#linear-gradient-2);
      }

      .cls-8 {
        fill: url(#linear-gradient-3);
      }

      .cls-9 {
        fill: url(#linear-gradient-4);
      }

      .cls-10 {
        fill: #81bfe0;
      }

      .cls-11 {
        fill: #b3d6d8;
      }

      .cls-11, .cls-12, .cls-13, .cls-14, .cls-15, .cls-17, .cls-18, .cls-20, .cls-21, .cls-22, .cls-24, .cls-25, .cls-27, .cls-28, .cls-34, .cls-40, .cls-46, .cls-49 {
        fill-rule: evenodd;
      }

      .cls-12 {
        fill: url(#linear-gradient-5);
      }

      .cls-13 {
        fill: url(#linear-gradient-6);
      }

      .cls-14 {
        fill: url(#linear-gradient-7);
      }

      .cls-15 {
        fill: url(#linear-gradient-8);
      }

      .cls-16 {
        fill: #61a6bc;
      }

      .cls-17 {
        fill: url(#linear-gradient-9);
      }

      .cls-18 {
        fill: url(#linear-gradient-10);
      }

      .cls-19 {
        fill: url(#linear-gradient-11);
      }

      .cls-20 {
        fill: url(#linear-gradient-12);
      }

      .cls-21 {
        fill: url(#linear-gradient-13);
      }

      .cls-22 {
        fill: url(#linear-gradient-14);
      }

      .cls-23 {
        fill: url(#linear-gradient-15);
      }

      .cls-24 {
        fill: url(#linear-gradient-16);
      }

      .cls-25 {
        fill: #95cece;
      }

      .cls-26 {
        fill: url(#linear-gradient-17);
      }

      .cls-27 {
        fill: #6fa68c;
      }

      .cls-28 {
        fill: url(#linear-gradient-18);
      }

      .cls-29 {
        fill: #85a13d;
      }

      .cls-30 {
        fill: url(#linear-gradient-19);
      }

      .cls-31 {
        fill: #61833a;
      }

      .cls-32 {
        fill: #a2c83a;
      }

      .cls-33 {
        fill: #84a73e;
      }

      .cls-34 {
        fill: #6a808c;
      }

      .cls-35 {
        fill: url(#linear-gradient-20);
      }

      .cls-36 {
        fill: url(#linear-gradient-21);
      }

      .cls-37 {
        fill: url(#linear-gradient-22);
      }

      .cls-38 {
        fill: url(#linear-gradient-23);
      }

      .cls-39 {
        fill: url(#linear-gradient-24);
      }

      .cls-40 {
        fill: #5b5b5d;
      }

      .cls-41 {
        fill: url(#linear-gradient-25);
      }

      .cls-42 {
        fill: url(#linear-gradient-26);
      }

      .cls-43 {
        fill: url(#linear-gradient-27);
      }

      .cls-44 {
        fill: url(#linear-gradient-28);
      }

      .cls-45 {
        fill: url(#linear-gradient-29);
      }

      .cls-46 {
        fill: #535149;
      }

      .cls-47 {
        fill: url(#linear-gradient-30);
      }

      .cls-48 {
        fill: url(#linear-gradient-31);
      }

      .cls-49 {
        fill: #615e5e;
      }

      .cls-50 {
        fill: url(#linear-gradient-32);
      }

      .cls-51 {
        fill: url(#linear-gradient-33);
      }

      .cls-52 {
        fill: url(#linear-gradient-34);
      }
    </style>
    <clipPath id="clip-path">
      <rect class="cls-1" x="13.47" y="14.47" width="328.06" height="328.06" rx="26.14"/>
    </clipPath>
    <clipPath id="clip-path-2">
      <rect class="cls-1" x="4.74" y="4.64" width="341.79" height="341.79"/>
    </clipPath>
    <clipPath id="clip-path-3">
      <rect class="cls-1" x="-132.95" y="2.95" width="614.19" height="345.48"/>
    </clipPath>
    <linearGradient id="linear-gradient" x1="175.05" y1="214.71" x2="177.86" y2="-99.65" gradientUnits="userSpaceOnUse">
      <stop offset="0.2" stop-color="#faf6be"/>
      <stop offset="0.35" stop-color="#ddeace"/>
      <stop offset="0.62" stop-color="#b2d7e7"/>
      <stop offset="0.75" stop-color="#a1d0f0"/>
    </linearGradient>
    <linearGradient id="linear-gradient-2" x1="169.22" y1="69.15" x2="169.22" y2="163.48" gradientUnits="userSpaceOnUse">
      <stop offset="0.02" stop-color="#bee4f8"/>
      <stop offset="0.6" stop-color="#e9f5f8"/>
      <stop offset="0.97" stop-color="#f9faee"/>
    </linearGradient>
    <linearGradient id="linear-gradient-3" x1="167.99" y1="72.68" x2="167.99" y2="229.49" gradientUnits="userSpaceOnUse">
      <stop offset="0.01" stop-color="#a6badf"/>
      <stop offset="0.9" stop-color="#e3f3f7"/>
    </linearGradient>
    <linearGradient id="linear-gradient-4" x1="166.61" y1="193.42" x2="185.75" y2="383.9" gradientUnits="userSpaceOnUse">
      <stop offset="0.01" stop-color="#faf6be"/>
      <stop offset="0.04" stop-color="#f8f5c0"/>
      <stop offset="0.2" stop-color="#d9e8d1"/>
      <stop offset="0.38" stop-color="#c1dddf"/>
      <stop offset="0.57" stop-color="#afd6e8"/>
      <stop offset="0.77" stop-color="#a4d1ee"/>
      <stop offset="1" stop-color="#a1d0f0"/>
    </linearGradient>
    <linearGradient id="linear-gradient-5" x1="8644.68" y1="242.86" x2="8640.67" y2="225.34" gradientTransform="matrix(-1.08, 0, 0, 1, 9531.49, 0)" gradientUnits="userSpaceOnUse">
      <stop offset="0" stop-color="#fdfced"/>
      <stop offset="0.99" stop-color="#dbf0f8"/>
    </linearGradient>
    <linearGradient id="linear-gradient-6" x1="8701.88" y1="208.08" x2="8699.7" y2="198.55" gradientTransform="matrix(-1.08, 0, 0, 1, 9531.49, 0)" gradientUnits="userSpaceOnUse">
      <stop offset="0.02" stop-color="#fff"/>
      <stop offset="0.99" stop-color="#bbe4ef"/>
    </linearGradient>
    <linearGradient id="linear-gradient-7" x1="8728.95" y1="209.3" x2="8726.77" y2="199.77" xlink:href="#linear-gradient-6"/>
    <linearGradient id="linear-gradient-8" x1="8674.42" y1="230.44" x2="8672.17" y2="220.65" xlink:href="#linear-gradient-5"/>
    <linearGradient id="linear-gradient-9" x1="8702.61" y1="271.63" x2="8702.33" y2="290.24" gradientTransform="matrix(-1.08, 0, 0, 1, 9531.49, 0)" gradientUnits="userSpaceOnUse">
      <stop offset="0" stop-color="#e5f2e7"/>
      <stop offset="0.99" stop-color="#7dd1f5"/>
    </linearGradient>
    <linearGradient id="linear-gradient-10" x1="8713.53" y1="273.58" x2="8713.24" y2="292.86" gradientTransform="matrix(-1.08, 0, 0, 1, 9531.49, 0)" gradientUnits="userSpaceOnUse">
      <stop offset="0" stop-color="#e5f2e7"/>
      <stop offset="0.98" stop-color="#afd9f4"/>
    </linearGradient>
    <linearGradient id="linear-gradient-11" x1="8890.88" y1="248.31" x2="8890.84" y2="250.96" xlink:href="#linear-gradient-10"/>
    <linearGradient id="linear-gradient-12" x1="8848.56" y1="276.7" x2="8848.5" y2="280.86" xlink:href="#linear-gradient-10"/>
    <linearGradient id="linear-gradient-13" x1="8871.59" y1="285.67" x2="8871.54" y2="289.16" xlink:href="#linear-gradient-10"/>
    <linearGradient id="linear-gradient-14" x1="8821.2" y1="313.57" x2="8821.13" y2="318.35" xlink:href="#linear-gradient-10"/>
    <linearGradient id="linear-gradient-15" x1="8863.11" y1="321.74" x2="8863.03" y2="326.5" xlink:href="#linear-gradient-10"/>
    <linearGradient id="linear-gradient-16" x1="8813.04" y1="306.89" x2="8812.98" y2="311.09" xlink:href="#linear-gradient-10"/>
    <linearGradient id="linear-gradient-17" x1="7857.95" y1="-250.49" x2="7839.53" y2="-292" gradientTransform="matrix(-1.24, 0.04, 0.02, 1.22, 10002.84, 214.33)" gradientUnits="userSpaceOnUse">
      <stop offset="0" stop-color="#749cb5"/>
      <stop offset="0.96" stop-color="#73a6a2"/>
    </linearGradient>
    <linearGradient id="linear-gradient-18" x1="210.22" y1="203.27" x2="209.88" y2="176.89" gradientUnits="userSpaceOnUse">
      <stop offset="0.01" stop-color="#628f62"/>
      <stop offset="0.99" stop-color="#8ca17e"/>
    </linearGradient>
    <linearGradient id="linear-gradient-19" x1="225.56" y1="277.42" x2="262.63" y2="314.97" gradientUnits="userSpaceOnUse">
      <stop offset="0.01" stop-color="#80a242"/>
      <stop offset="0.98" stop-color="#61833a"/>
    </linearGradient>
    <linearGradient id="linear-gradient-20" x1="8679.93" y1="261.01" x2="8697.09" y2="285.05" gradientTransform="matrix(-1.08, 0, 0, 1, 9531.49, 0)" gradientUnits="userSpaceOnUse">
      <stop offset="0" stop-color="#526b31"/>
      <stop offset="0.99" stop-color="#495e2b"/>
    </linearGradient>
    <linearGradient id="linear-gradient-21" x1="8541.47" y1="310.08" x2="8484.63" y2="182.01" gradientTransform="matrix(-1.08, 0, 0, 1, 9531.49, 0)" gradientUnits="userSpaceOnUse">
      <stop offset="0.01" stop-color="#567033"/>
      <stop offset="0.78" stop-color="#84a13d"/>
      <stop offset="1" stop-color="#a0c13a"/>
    </linearGradient>
    <linearGradient id="linear-gradient-22" x1="8654.08" y1="272.86" x2="8653.06" y2="264.16" gradientTransform="matrix(-1.08, 0, 0, 1, 9531.49, 0)" gradientUnits="userSpaceOnUse">
      <stop offset="0.01" stop-color="#324c32"/>
      <stop offset="0.99" stop-color="#666d80"/>
    </linearGradient>
    <linearGradient id="linear-gradient-23" x1="8653.63" y1="273.07" x2="8652.72" y2="265.27" gradientTransform="matrix(-1.08, 0, 0, 1, 9531.49, 0)" gradientUnits="userSpaceOnUse">
      <stop offset="0.01" stop-color="#323f38"/>
      <stop offset="0.99" stop-color="#51565c"/>
    </linearGradient>
    <linearGradient id="linear-gradient-24" x1="8654.16" y1="274.59" x2="8653.57" y2="269.51" gradientTransform="matrix(-1.08, 0, 0, 1, 9531.49, 0)" gradientUnits="userSpaceOnUse">
      <stop offset="0.01" stop-color="#3d4938"/>
      <stop offset="0.99" stop-color="#434343"/>
    </linearGradient>
    <linearGradient id="linear-gradient-25" x1="8681.86" y1="280" x2="8680.04" y2="264.38" gradientTransform="matrix(-1.08, 0, 0, 1, 9531.49, 0)" gradientUnits="userSpaceOnUse">
      <stop offset="0.01" stop-color="#3d4938"/>
      <stop offset="0.98" stop-color="#382b23"/>
    </linearGradient>
    <linearGradient id="linear-gradient-26" x1="8626.37" y1="279.99" x2="8582.48" y2="181.09" gradientTransform="matrix(-1.08, 0, 0, 1, 9531.49, 0)" gradientUnits="userSpaceOnUse">
      <stop offset="0" stop-color="#465e2b"/>
      <stop offset="0.99" stop-color="#78923b"/>
    </linearGradient>
    <linearGradient id="linear-gradient-27" x1="8537.56" y1="319.41" x2="8493.66" y2="220.5" xlink:href="#linear-gradient-26"/>
    <linearGradient id="linear-gradient-28" x1="8358.47" y1="-234.95" x2="8384.74" y2="-198.16" gradientTransform="matrix(-1.19, 0.05, 0.05, 1.13, 10309.32, 142.69)" gradientUnits="userSpaceOnUse">
      <stop offset="0.02" stop-color="#365427"/>
      <stop offset="0.99" stop-color="#495e2b"/>
    </linearGradient>
    <linearGradient id="linear-gradient-29" x1="187.29" y1="192.12" x2="179.73" y2="158.76" gradientUnits="userSpaceOnUse">
      <stop offset="0.04" stop-color="#639179"/>
      <stop offset="0.98" stop-color="#99c182"/>
    </linearGradient>
    <linearGradient id="linear-gradient-30" x1="8562.19" y1="294.18" x2="8562.8" y2="274.2" gradientTransform="matrix(-1.08, 0, 0, 1, 9531.49, 0)" gradientUnits="userSpaceOnUse">
      <stop offset="0.01" stop-color="#3d4938"/>
      <stop offset="0.99" stop-color="#4c5854"/>
    </linearGradient>
    <linearGradient id="linear-gradient-31" x1="8536.11" y1="293.91" x2="8536.35" y2="286.1" xlink:href="#linear-gradient-30"/>
    <linearGradient id="linear-gradient-32" x1="8598.46" y1="306.02" x2="8599.17" y2="282.68" xlink:href="#linear-gradient-30"/>
    <linearGradient id="linear-gradient-33" x1="8593.66" y1="303.75" x2="8592.47" y2="293.49" xlink:href="#linear-gradient-24"/>
    <linearGradient id="linear-gradient-34" x1="8601.59" y1="312.08" x2="8600.74" y2="304.78" xlink:href="#linear-gradient-25"/>
  </defs>
  <g>
    <path class="cls-2" d="M39.62,8.47H315.38a32.15,32.15,0,0,1,32.15,32.15V316.38a32.15,32.15,0,0,1-32.15,32.15H39.62A32.15,32.15,0,0,1,7.47,316.38V40.62A32.14,32.14,0,0,1,39.62,8.47Z"/>
    <g class="cls-3">
      <g class="cls-4">
        <g class="cls-5">
          <g>
            <path class="cls-6" d="M492.13,133.17c.47-12.67,1.21-25.33,2.32-38V-14.5H-141.23V205H491.83C491.33,181.08,491.25,157.12,492.13,133.17Z"/>
            <path class="cls-7" d="M491.64,133.35c.58-15.88,1.58-31.75,3.21-47.55a98.05,98.05,0,0,0-17,4.18c-17.41,6.28-62.95,12.73-73.39,5.22-6.26-4.52-12.13-9.7-22.18-13.85-26.78,1.82-73,31.31-111.4,23.43S174.1,98.91,140.47,86C128.7,81.51,92.8,71.57,84,68.45a205.11,205.11,0,0,0-32.41-8.28S14.32,82.42,8,86s-105.83,18.63-153.8,10.39a71.89,71.89,0,0,1-10.57,3.54c.3,23.58.8,47.17,1.21,70.75,0,.86,0,1.72,0,2.58L491,186C490.87,168.44,491,150.89,491.64,133.35Z"/>
            <path class="cls-8" d="M492.11,133.17q.22-6.18.54-12.35c-17,3.61-21.17-.91-31.68-5.64-6.43-2.9-37.72,11.62-48.05,8.95-36.79-18-88.45-33-123.49-51.45-49.44,10.74-98.52,35.7-134.06,34.7-12.5-.35-46.59,16-57.47,15.5-17.22-.85-47.8,14.28-47.8,14.28S-2.32,113.58-32.07,115c-6.92.33-63.69,21.23-99.64,21.23-2.74,0-12.29-.77-25-1.91q.33,18.09.67,36.17.24,13.86.41,27.7l647.43,8.3C491.31,182.06,491.21,157.6,492.11,133.17Z"/>
            <path class="cls-9" d="M496,346.31c-.3-35-2-70-3.17-105-.47-13.57-.88-27.14-1.14-40.72H-143.67V307.24q1.6,27.3,2.85,54.63H496.1Q496.05,354.09,496,346.31Z"/>
            <path class="cls-10" d="M259.49,344.37c-4.09.8-4.75,1.73,0,0Z"/>
            <path class="cls-10" d="M234,320.49c24.71,0-26.87,9.56,12.86,9.56s-2.59,9.43,2.77,9.28,22.69.07,11.15,4.54l-1.33.5a49.15,49.15,0,0,1,25.31,2.26c21.26,7.6-7.11,1.41.56,7.6s10.17,0,17.84,6.18-8,5.76,2.37,8.43c4.45,1.15,5.35,2.16,4.13,2.92l20.49-.36c47.15-.92,94.28-2.33,141.42-3.66L234,307.65S209.32,320.49,234,320.49Z"/>
            <path class="cls-11" d="M147.2,210s-15.34,1.1.83,1.86-10.82,3.28,11.37,3.28-18-.06,3.78,1.92-9.5-.36,18.34,3.23-8.62,3.64,19.06,7.25-31.57,3,3.84,3-13.26-5,21.58-1-14.39-1.31,4.56,5.14-14.76,2.43,7.85,5.5-23.66.89-9.19,2.9-25.68-.22-16.4,1.59,4.77,4.89,4.77,4.89l-9.84,2s132.62-13.05,99.89-25.6S147.2,210,147.2,210Z"/>
            <path class="cls-12" d="M206.6,220.54s98.78,7.35,51.19,16.37-81.66,14.35-81.66,14.35,119.17-15.9,103.19-21-61.27-8.59-61.27-8.59Z"/>
            <path class="cls-13" d="M185.64,202.88s-38.51,4.31-49,6.44,1.09,3.23,13.08,4.37l46.14,4.43s-57-7.21-52.68-8.69,32.33-5.57,34.88-5.57,23.25-1.31,23.25-1.31l-15.62.33Z"/>
            <path class="cls-14" d="M156.51,204.1s-38.51,4.31-49,6.44,1.09,3.23,13.08,4.37l46.14,4.43s-57-7.21-52.68-8.69,32.34-5.57,34.88-5.57,23.25-1.31,23.25-1.31l-15.62.33Z"/>
            <path class="cls-15" d="M145.67,214.35S236.51,225,248.13,228.28s-21.8,10.66-30.88,12.3-13.81,2.29-13.81,2.29,49.42-9,36-13.6-46.14-8.2-55.95-9.35-37.79-5.57-37.79-5.57Z"/>
            <path class="cls-16" d="M155.57,291c-10.46,0,12.63,2.29,19.24,2.29s12.73,5.32,21.45,5.32-2.77,5,8.44,1.89,15.78.73,10.42.73c-7.14,0,0,2.52-2.37,4.43-3.36,2.72,45.49,11.1,34,12.52s33.24,9.84,44.19,9.84,18.55,7.8,18.55,7.8,31.87,2.35,27.84,2.72c-14,1.29-3.45,2.64-3.45,5.19,5.67,0,28.95,4.31,21.86,3.35s4.62,4.32,4.62,4.32l13.29,1.92s-.36,3.33,11.31,4.61c7.09.77,9,2.38,11.95,3.71-4.59,1.33,8.68,4.05,15.64,4.05,3.93,0,14,1.76,19.78,3.12q31.9-.9,63.79-1.79v-1.45c-46.55-11.68-99.88-24.92-107.07-26.36-12.75-2.55-108.91-26.61-112.45-27.89s-52.22-14.6-57.88-17.15C214,292.1,151.28,274.86,142.28,271c1.44,1.43,2.9,4.56-5.74,4.56-5.93,0,.32,4.06,2.8,2.05s1.49.39,2.43.56c4.89.87,7.19,2.47,2.24,3.2-6.46,1,7.07,2.07,1.14,3.66s-1.21,4.07-1.21,4.07S166,291,155.57,291Z"/>
            <path class="cls-17" d="M143.24,272.39s16.21,10.1,26.08,12.09S196.11,289,196.11,289,159.8,282.18,143,274.62,143.24,272.39,143.24,272.39Z"/>
            <path class="cls-18" d="M129.23,272.39s-16.13,1.35,14.78,9,42.86,10.14,42.86,10.14S94.49,275.64,129.23,272.39Z"/>
            <ellipse class="cls-19" cx="-36.86" cy="249.47" rx="78.97" ry="0.81"/>
            <path class="cls-20" d="M-118.58,278.52c0-.67,57-1.21,127.28-1.21S136,277.85,136,278.52,79,279.73,8.7,279.73-118.58,279.18-118.58,278.52Z"/>
            <path class="cls-21" d="M-111.74,287.19c0-.67,42.83-1.2,95.64-1.2s95.64.53,95.64,1.2S36.72,288.4-16.1,288.4-111.74,287.86-111.74,287.19Z"/>
            <path class="cls-22" d="M-115.55,315.66c0-.67,68.82-1.21,153.7-1.21s153.69.54,153.69,1.21S123,316.87,38.15,316.87-115.55,316.33-115.55,315.66Z"/>
            <ellipse class="cls-23" cx="-6.95" cy="323.82" rx="153.18" ry="1.21"/>
            <path class="cls-24" d="M-81.77,308.72c0-.67,57.62-1.21,128.69-1.21s128.69.54,128.69,1.21S118,309.93,46.92,309.93-81.77,309.39-81.77,308.72Z"/>
            <path class="cls-25" d="M-107.38,188.49c.13.2,2.91-.87,4.56-1.82,1-.57,1.07-1.35,1.35-1.08s2.54-.49,2.65-.18c.24.68-1.79,2.32-.62,2,1.71-.47-4.55,1.87-3.07,1.93a4.11,4.11,0,0,0,3.7-.07c-.29-.64.73-1.24,1.93-1.83,1,.3,1.65.78,1.84,1.45,0,0,1.6-2.42-.32-2.28s-1.12-3.08,0-2.71,1.67,1.25,1.75.5.63-1.7-.77-1.65a2.23,2.23,0,0,1-2-.84s.55-1.38,1.79-.79,3.87-1.15,3.87-1.15l1.41-.05s-2.87-.87-.19-1.63,4-1.78,3-.63-.62,1.7-.62,1.7,1.38-2.75,2.48-1.95,1,1.12,1,1.12l1.64-.58-.87-.9s1.06-1.47,2.16-1.1,1.78.07,1.32.7,1.19-.39,1.19-.39,3.94-1,2.47-1.52-3.06-1.63-.92-1.87,2.44-.23,2.44-.23l.59.46s3-4.32,3.62-3.32-.55,1.38.33,1.42a2.3,2.3,0,0,0,1.58-.7l1.72-1.33,1.09.8,1.46-2.21,2.54-1.41s1.17.47.18,1.63,0,.86,0,.86,1.3-2,2.32-1.31.86,1.33.86,1.33l3.12-1s-2.79-.76-1.38-1.24l2.61-.87s-.45.2.2.76a1.9,1.9,0,0,0,1.63.28l1.41-.47,1,.68s-3.57.72-2.09,1.21.65.58,2.43.21,1.45,1.36,2.3-.45,1-2,2.1-1.21-2,2.73.33,1.85.85-1.8,2.62-1.73,3-2,2.45-.66a7.37,7.37,0,0,1-1.22,2.12l2-.46.59.45s-2,.9-1.66,1.45.58.46.58.46,2.54-1.41,2.15-.24-2.12,2.08-2.12,2.08,2.64-2.17,3.14-1.39-.84.94-.48,1.93,1.4-.05,1.4-.05,2.88.44,1.93-.58a2.41,2.41,0,0,1-.84-1.76l1.2-.82s1.64-1,1.4-.05-.1,1.18-.1,1.18,1.83,1.06,1.64-.58a4.48,4.48,0,0,1,.19-2.37s2.18-1.1,2.09-.35a1.77,1.77,0,0,1-.69,1.16,2.87,2.87,0,0,1,2.38-.76c1.32.26.05,1,.05,1s.07.11,1.56-.26,3.82-2.55,3.28-1.17a4,4,0,0,1-1.37,1.9l1.62-.16.58.89-1.78.36s-2.31.45-1.72.91,1.84.18.72.68a9,9,0,0,1-2.82.53l-.32,1.29c.12,1.08-1.5,1.23-.63,1.7a3.13,3.13,0,0,1,1,.69l1.71-.47-.11,1.62s3.5-1.27,3.08-1.93.47-1.5.47-1.5,1.41-.05,2.22-.12,3.05-.64,2.18-1.54.33-1.72.33-1.72,4.86-2.29,3.35-1.05A2.79,2.79,0,0,0-13.29,172s5.92-3.77,4.71-2.09a22.76,22.76,0,0,0-1.61,2.43s1.85.18,1.94-.58,1.65-1.44,1.65-1.44l.27,1.31,2.06.08.7-1.16,1.54.6-1,1.58,2.47-1.09s1.32-.18.65.75-1,1.4-1,1.4,1.74-1,2.83-.54a.88.88,0,0,1,.54,1.33s3-.53,2.1-.93.43-2.79.43-2.79,1.84-.34,1.41.71A6.89,6.89,0,0,0,5.91,173a4.69,4.69,0,0,1,2.56-1.45c1.68-.35.47-1,.47-1S7,169.28,8,169.32a7.25,7.25,0,0,0,2.46-.61l.76.68,2-.57s1.89-.52.83-.69.73-1.82.73-1.82,2.4-1.22,2.22-.51a3.6,3.6,0,0,0,.05,1.56,2.66,2.66,0,0,1,2.06-1c1.51-.12,1.29.53,1.29.53l-1.17,1.38a4.59,4.59,0,0,0,2.21-.26c1-.44.92-1,.92-1s-.3-1.21.64-1.47,2,1.34,1.19,1.84a3.36,3.36,0,0,0-1.08,1s1-1.15,2-.39a6,6,0,0,1,1.12,1s1.65-.65,1.16-.91.89-1.58.89-1.58l1.68-.11a1.57,1.57,0,0,1,.19,1,1.65,1.65,0,0,1-.39.88,1.88,1.88,0,0,1,2.27-.92c1.57.48,1.77.79,1.77.79a5.8,5.8,0,0,0-1.32.67,1.28,1.28,0,0,1-.9.32s-2.35,1.27-1.25,1.26a20.74,20.74,0,0,1,2.12.08l-1.29,1.21-1.47.17s-.68-.8-1.39-.41-1.36.84-1.36.84a.68.68,0,0,0-.93-.22c-.58.33-2.15,1.35-.8,1.23a11.32,11.32,0,0,0,2.62-.62l.1,1.14s.6.45,2.41-.2,1.84.14,2.68-1,.73-1.82,1.59-2,.77.45.77.45l-1.59,1.49s1.75-1.48,2.06-1-.15,1.49-1.88,2-1.93.94-1.93.94,1.11-.25,1.26.23,0,0,1.59,0a21.5,21.5,0,0,0,2.62-.14s-1.4.31-.72-.86a4.09,4.09,0,0,1,1.66-1.61s1.28-.48.89.4a3.18,3.18,0,0,1-.59,1.05s1.7-1.31,2.3-.62a.69.69,0,0,1-.23,1.12s-1.68.59-1,.68,1.69-.59,1.56-.06S40.21,176,40.21,176s-1.87-.2-1.84.34.27.67.27.67,2.2-1.52,1.72-.29a3.62,3.62,0,0,1-1.14,1.69l2-.57s-1.26-.47.06-1.14a16.9,16.9,0,0,1,3-1.07s2.18-1.05,1.4-.3-1.67,1.6-1.67,1.6l.65.27-.76,1,.94,0s1.78-1.18,1.43-.24-2,1.65-1.5,1.85,1,.52,1,.52l-2.83.54-.82.21s.32.25.26,1.14-.51.94.35.8,2.9-2.16,3.1-1.62S44.6,183,44.6,183l.89.16s1.7-1.07,1.57-.3-1.34,1.38-1.34,1.38l.23.37a4.79,4.79,0,0,1,1.89-.52c.82,0,.47,1,1,1.23s1.84-.34,1.84-.34-1.23.31-.65-.27,1.54-1.31,1.54-1.31a7.17,7.17,0,0,1,0,.78,1.33,1.33,0,0,0,.15.72s1.54-1.07,1.6-.23a4.94,4.94,0,0,1,0,1l1.81-.65s-.82,0,.13-.77,2.17-2.3,2.45-1.87a1.09,1.09,0,0,1,.11.9l.23.37s1-1.7,2-1.59,0,1.49,0,1.49l2.06-.52s-1.16.68-1.3,1.21,2,.14,2,.14,1.94-1.18,1.94-.7a8.77,8.77,0,0,1-.11,1.07s-.49.22,0,.42,2.45.1,1.63.54-1.45.72-1.45.72l.23.85s-.23-.61.89-.08.52,1,.52,1-.18.47,1,.64,1.09.7,1.09.7l-.21.65a1.77,1.77,0,0,1,2-.64c1.33.36.34,1.27.34,1.27l.07.6,2.46-.62a2,2,0,0,0-1.29,1.21c-.22.88-.06.89-.06.89s.32.25-.87.62,1.12,2.56,1.12,2.56l4,3.13,8.78,2.28s-220.45.7-225.89,1.85,28.21-8.34,34.79-14.88l-1.16,0Z"/>
            <path class="cls-26" d="M131.57,178.93c3.28,2.66-3.65-2.72-.38-2a27.81,27.81,0,0,1,5,1.46,10.7,10.7,0,0,0-4.5-4.22c-3.11-1.52-2.91-2.62-2.91-2.62a6,6,0,0,1,4.56-.29,25.17,25.17,0,0,0,4.68,1.16s-1.44-2.45.6-3.32a7.51,7.51,0,0,1,3.52-.69l.65,2.62s4.25-.6,3.08-2.44a12.55,12.55,0,0,1-1.37-5s4.79.6,4.49,2.25,3,2.35,3,2.35l3.07-2.45,3.12,1.51s1.69-3.17-.19-3.12-5.29-4-5.29-4,.82-2.45,2.82-1.06,3.27.68,3.27.68-2.6-2.3-.51-3.45a15.22,15.22,0,0,0,3.49-2.67l2.23,2.25.44,1.75a1.9,1.9,0,0,1,2.82-1.07c2.06,1.11,1.24,3.55,1.24,3.55s.79-.18,4,.5,3.23,3,3.23,3l3.31.41s-3.16-1.24-1.34-3a35,35,0,0,1,3.13-2.73l2,3.37L184.3,164s6-.1,4.35-1.15a4.16,4.16,0,0,1-1.66-3.32l6.15,1.33,1.24,3.54,2.17-3.68,1-3.27s.1-.55-1.84-.23-5.22-2.34-5.22-2.34.67-1.62,4.3-.88,5.3-.19,5.3-.19-1.73-5,.12-4.79,0-2.25-3.12-1.52-4.85-2.29-4.85-2.29,4.38-3.41,6-2.08,2.91,2.63,2.91,2.63,2-2.86,4.65-2.82a2.07,2.07,0,0,1,2.17,2.53l3.12,1.52s1.19-.41,3.24-1.28a7.14,7.14,0,0,1,4.19-.33l1.88,4.19,5.85,3s.11-.56,1.51-2.07-1.69-1.06-1.34-3a10.38,10.38,0,0,1,1.38-3.5s3,.1,3.75,2.16a8.71,8.71,0,0,0,2.4,3.41s-.09-3.68,4.27-2.86,4.07,2.49,4.07,2.49l8.24.17.29,2.57s.95,1,3.36.14,5.89.73,5.89.73-3.82,2.35-2.12,3.41,6.8-2.26,10.24,1.56,3.3,4.65,3.3,4.65l3.35,1.13s7.27.46,6.5,2.63.66,2.63.66,2.63,4.48-4,6.68-3.7,13.52,2.25,12.11,3.77,2.72,3.72,2.72,3.72l8.4,1.33s8,3.81,4.77,4.84.78,4,4.19,3.89,14.85-1,14.34,1.79,15.34,6.7,15.34,6.7-174.24-1.6-180.6-1.81-50.88-6.75-50.88-6.75,9.23-6.35,12.51-3.67Z"/>
            <path class="cls-27" d="M10.56,200.5c3.16,1.9,2-3.85,4.87-3.55s1.2-1.11,1.2-1.11,1.74-.2-1.12-1.18-.67-1.35-.67-1.35-.53-1.66,1.71-1.15a23.83,23.83,0,0,0,4.18.56s-1.56-1.88.08-2.75a6.55,6.55,0,0,1,2.94-.85l.89,2.08s3.58-.84,2.34-2.24A10.39,10.39,0,0,1,25.17,185s4.19.1,4.14,1.47,2.85,1.67,2.85,1.67l2.33-2.24,2.87,1s1-2.72-.56-2.54-5.07-2.85-5.07-2.85a1.48,1.48,0,0,1,2.29-1.1c1.91,1,2.9.29,2.9.29S34.4,179,36,177.93a11.78,11.78,0,0,0,2.66-2.46l2.2,1.65.61,1.4a1.57,1.57,0,0,1,2.29-1.1,2.51,2.51,0,0,1,1.52,2.79,11.21,11.21,0,0,1,3.54.08c2.89.29,3.16,2.13,3.16,2.13l2.9.06s-2.88-.75-1.54-2.32a28,28,0,0,1,2.34-2.48l2.17,2.58,1.55,1.87s5.18-.57,3.59-1.29a3.57,3.57,0,0,1-1.85-2.57l5.46.58,1.52,2.79,1.4-3.18.41-2.74s0-.46-1.61,0-4.79-1.48-4.79-1.48.37-1.37,3.58-1.07,4.54-.59,4.54-.59-2.13-3.94-.52-3.9-.27-1.84-2.87-1-4.46-1.48-4.46-1.48,3.32-3.13,4.9-2.18,2.84,1.9,2.84,1.9,1.37-2.49,3.63-2.67a1.84,1.84,0,0,1,2.2,1.88l2.87,1s1-.43,2.62-1.31a6.55,6.55,0,0,1,3.57-.61l2.15,3.26,5.42,2s0-.46,1-1.81-1.59-.73-1.53-2.33a7.89,7.89,0,0,1,.74-3s2.58-.16,3.5,1.46a7.83,7.83,0,0,0,2.5,2.57s-.55-3,3.3-2.67,3.82,1.7,3.82,1.7l7.11-.53.58,2.07s.94.71,2.9-.17,5.16.12,5.16.12-3,2.23-1.39,2.95,5.56-2.4,9,.44,3.43,3.52,3.43,3.52l3,.64s6.31-.21,5.93,1.62.9,2.08.9,2.08,3.34-3.59,5.27-3.55,11.91.73,10.9,2.08,2.81,2.81,2.81,2.81l7.4.4s7.33,2.46,4.72,3.55,1.18,3.23,4.1,2.84,12.63-2,12.56.28,14.05,4.21,14.05,4.21-150,12.89-155.52,13.24-46.87.85-46.87.85,2.58-4.43,5.74-2.52Z"/>
            <path class="cls-28" d="M378.16,189.17c-1.64-1-2.92-2-6.59-1.15.64-2.48,47-11.61,47-10.24-1.57-1-144.27-.83-186,0-11.09.22-5,2.32-13.32,2-23.12-.83-38,3-51.18,3.43-17.9.56-33-1.76-51.78-.38S1.58,205,1.58,205l150-3.12,73.92,6c3.67.27,67.52-10,67.52-10l44.17-8.43s29.36.55,42.67-.28Z"/>
            <path class="cls-29" d="M297.2,235.87C378,229.72,441.85,226.05,492.27,224c-.6-20.16-1-40.32-.83-60.48-20.49,2.24-56.93,7.94-71.54,9.82-18.83,2.42-65.17,11.4-77.72,11.4-22.66,0-23.36,2.21-45.67,4.09-29.38,2.47-58.66,11.56-89.14,12.54-35.4,1.15-52.62,5.22-55,5.71s-2.7,1.86-2,1.17-1,1-1,1a77,77,0,0,0,11.8,2.87c6.28,1,26.16,3.88,31.39,3.88s52.3,6.78,61.71,6.78,38.71,4.84,50.22,5.81S297.2,235.87,297.2,235.87Z"/>
            <path class="cls-30" d="M155.76,208.05l2.2-.41A12.2,12.2,0,0,0,155.76,208.05Z"/>
            <path class="cls-31" d="M491.87,209.14c-11.49.54-25.11,1.26-25.11,1.26s-32.68,3.23-38.9,3.23-26.25,2.15-46.42,5.18-58.06,9.68-68.73,9.68c22.12-5.53,16.69-6.61,16.69-6.61s3.85-.37,19.49-3.31c28.76-5.41,39.78-7.4,14.25-6.81-11.86.28-31.14.55-38.25.69s-14.23.55-25.2.55-12.16,1-19.28.83-11.56,0,2.67-2.75,48.33-5.36,48.33-5.36a361,361,0,0,0-36.86,1.43c-21.44,1.86-33,.3-49,2.77-6,.93-9,.65-10.84.92-29,4.14-2.71-.74-4.48-1.23a26,26,0,0,0-5.35-.82c-10.38-.68-8.48,2.29-26.27.36a252.29,252.29,0,0,0-35.58-1s2.67.55,11.27.83,18.38,1.23,18.38,1.23-7.41.28-25.8-.68c-10.9-.58-12-1.15-11.09-1.52l-2.84.55c-2.07.42-.89.42-2.37.28s-1.78.82.59,1.37,2.08,1.1,5.64,1.38,10.37,1.37,18.67,1.23,13.64,2.2,19,2.75,18.09,1,25.8,1.51,18.38,1.93,21.64,1.93-1.48.55-5,.41,11.27,1.1,19,1.93,13.52,2.16,22.12,3c6.53.62,13.09,2.84,18.39,4.64,1.66.56,2.12,1.32,2.18,2,.1,1.22-.93,2.36.56,2.44,5.63.27,13.68-2.22,15.16-2.76a23.68,23.68,0,0,1,4.44-.83s18.39-.69,44.18-2.47c19.78-1.38,96-11.67,129.08-16.46C491.9,210.37,491.89,209.75,491.87,209.14Z"/>
            <path class="cls-32" d="M492.83,241.33q-.57-16.41-1-32.83c-4.95.14-9.29.22-9.29.22l-18.67,2s-135.74,17-141.12,17.62-14.36-.41-16.88.59-46,12.72-51,14.05-36.62,6.32-42,7.48-32.31,5.32-37,6.49-23.34,6.15-23.34,6.15-17.34,12.25,54.66,17.68c42.74,3.22,179.84-1.26,286.84-5.52Q493.43,258.28,492.83,241.33Z"/>
            <path class="cls-33" d="M492.83,241.33q-.33-9.36-.6-18.72c-28-.54-64.69-.32-71.39.24-10,.83-13.64.66-22.62,2.16s-23,5.65-36.26,6.15-15.44-.16-28.73.17-14-1.67-22.62-.5-23,4.32-27.29,5.49-47,11.14-55.3,12.3-57.9,9.2-61.13,9.87,34.56-3.07,49.28-5.56,70.21-17.51,86-18.51-30.61,9.78-28.81,9.78c50.46,0-24.07,10.4-57.2,14.23-11.49,1.33-26.57,3.16-26.57,3.16s39.5-2.49,58.17-3.49,42-1.16,46.32.33,33.31,2.55,43.36,2.72-14.55,6.38-15.71,3.77c-.57-1.29-27.89.13-26.93,3.43.24.83-38.55,2.58-22.48,2.06,20.67-.66,44.74.15,47.79,0,3.92-.12-30,1.74-54.44,3.83-39.46,3.38-90.4,14.23-83.2,13.7,22.62-1.66,151.83-11.43,143.93-10.6-5.09.53,56-3.92,105.46-8.35,27.28-2.45,50.36-5.88,58.28-6.12l3.46-.08Q493.2,252.08,492.83,241.33Z"/>
            <path class="cls-34" d="M237.69,198s-44.78.89-55.69.89c-7,0-21.31.83-41.13,1.25-6.6.15,40,3.06,34.51,3.38-3.74.21-70.43,1.35-73.16,1.35-24,0-100.77.13-100.77.13s78.46-4.43,87.91-6.11,88.29-1.35,101.37-1.35,91.36-7,91.36-7Z"/>
            <path class="cls-35" d="M147.63,265.16s-6.28.26-7.38,3.84c-.36,1.19-1.55,4.71,1.49,5.46s4.24,2.84,10.33,5.22,15.28,6.65,17.15,7.1,17.52-1.15,24.08-1.15,26-5.8,26-5.8c-7.85-2.61,3.27-3.28,3.27-3.71,0-1.63-6.15-6.8-12-6.8s-22-.57-31.16-2.5-26.62-3.22-26.62-3.22Z"/>
            <path class="cls-36" d="M168,285.69a157.78,157.78,0,0,0,15.56,4.1,39.92,39.92,0,0,1,10.68,3.56c1.54.89-.77-2-.77-2,1.15.78,2.31,1.55,3.47,2.32l3.08,1.43s-1.54-2.68-.38-1.78a33.49,33.49,0,0,0,3.47,2.14c1.15-.06-1.93.74-.77.69a27.26,27.26,0,0,1,4.58.2c.67.23-1.61.84-.87,1,1.8.31,3.25,0,3,.51-.38.89,3.64-1.3,3.64-1.3l-1.54,2.32a12.37,12.37,0,0,0,4.76-.31c-.26.33.44,1,.27,1.7,1.41.35.64-1.36,2.05-1,2.49.31,2.81,1.79,3.33,0,.44-.83-.93-1.67-1.93-2.5-.28-.16,1.3-.59,4.63,3.93l-.78,2.14,3.86-.36-1.16-1.78s2.7,2.67,3.09,4.1,3.08,2.86,3.08,2.86a22,22,0,0,1-.38-3c1-.12,2.38-2.61,2.31-2.67.26,2.44.51,4.88.77,7.32l3.08-4.11.39,4.28,3.47-2v2.32l4.62.89c-.25-.59-.51-1.19-.77-1.78V308l3.47,1.78c-.38.48-.77,1-1.16,1.43l3.48,1.61,1.54-1.43c.26,1.07,2.44,1.54,2.7,2.61,1,.24.12,1.08,1.15,1.31l2.7-.17a29,29,0,0,0,3.79,1.77c2.31.89,4.69,1.62,4.69,1.62a33.33,33.33,0,0,1,5.4,1.43c3.85,1.24-.39-2.68,3.08-.72,1.19.68,1,.78.64.74.63.17,1.74.49,3.6,1,8.87,2.68,9.25,2.32,12.34,3.21a17.47,17.47,0,0,1,5.39,2.14c2.7,1.43,3.48-1.07,6.17.72s4.63,1.43,5.78,2.32,0,0,3.86,1.43,2.7.53,5.4,1.78.77,0,3.47,1.07,3.85-.36,3.85-.36l-.39,2.68s2.32-2.68,2.32-1.78,2.31,2.14,2.31,2.14l1.93-2.68c.26,1.07.51,2.14.77,3.22,0,0,1.54-4.29,2.31-2.33a9.42,9.42,0,0,1,.77,3l.77,1.07s-.77-3.93,0-3,3.09,4.1,3.09,4.1a7.77,7.77,0,0,1,6.55-3.75c-3.35,1.85-2.73,2.78-1.54,3.57-.22,1.21,5.74-1.42,6.5-1.89-.85,1.27-4.19,3.68-4.19,3.68l8.1-1.79L355,341.9c.35,1,4.91-2.13,6.34-3.34a14.71,14.71,0,0,0-.94,5.13s3.93-5.3,3.55-4.23,2.23,4.05,2.23,4.05l.14-.1c.25,1,1.93,1.56,2.56,2.24,1.3-1.18,4.15-1.79,7.71-2.14l-2.31,2c2,5,2.82,4.07,3.47,2.32,0,0,4.24-3.75,4.24-2.14-4.05,2.68-1,5.69-.39,5.54l2.31-2.5c.78.77,1.55,1.55,2.32,2.32l1.93-.54,2.31,1.07,3.85-1.07.77,1.07,2.7,1.25s8.48.72,10.41,1.61-3.08,2.14,0,2.32,13.49,1.78,15.8,1.78,3.86,1.08,7.33,1.25a53.29,53.29,0,0,1,8.48,1.25c2.7.54,3.85.54,6.17.9s0,1.78,4.62,2.68,13.49,2.32,15.81,2.67a16.14,16.14,0,0,1,1.93.58l27.79-.77q0-10.37-.11-20.75c-.27-31-1.61-62-2.74-93-2.19.09-3.8-1-5.68-1.7-2.31-.89-1.87.72-1.87.72l-2.37-.19-3.47.36s-6,2-6,.6-2.92-3.94-2.92-3.94a13.52,13.52,0,0,0,1.53,3.58h0a7.44,7.44,0,0,0-3-1,46.28,46.28,0,0,1-4.63-.72l4.24,2c-.64.21.72,1.75.08,2s-3.29-.92-3.93-.71l-1.93-1.61-3.47-1.07s-.13.42,2.19,1.48,1.66,2.45,1.66,2.45a11.36,11.36,0,0,1-3.85,0c-2.31-.36-3.08-.39-3.08-.39s-7,.43-6.47,1c.12.12,3.37-.29,4.09-.16,3.1-.55,6.79,1.12,6.61,1.37-1.05.29-1.92,0-2.56.25s-.6,1-1.47,1.24c.57-1.06-1.56-3.43-5.21-.95-2.71.71-9.47.69-9.47.69.9.29,6.58.16,7.49.46,0,0,3.52-1.33,4.29-.26.24.33-4.59.68-4.63.93-.09.56,4.25.85,4.25.85l-4.63.72c-.15.71-5.69.38-6.5-.28s2.26,2.42,1.88,2.95-1.81.61-3.05.18c-.47-.16-.9-1.2-1.22-1.18-.84.06,0,1.86-.36,2.25s-1.73,2.11-2.78,1.64c-.53-.23-.46-2.87-1.07-2.9s-.89,4.08-1.34,4c-1.08-.28-1.53-3.68-1.53-3.68-.79.34-.71,3.51-1.51,3.84-.62.26-2.11-2.31-2.73-2.05-.51.59-1,1.19-1.54,1.78a6.47,6.47,0,0,1-3.47-.35c-2.31-.72-6.55-.36-9.64-.72a4.69,4.69,0,0,0-4.46,1.7,11.67,11.67,0,0,0-4.24.18c-1.92.53-5.39.71-5.39,1.6s-2.32,2.5-4.25,1.25-7.7-1.25-7.7-1.25-2.32-.53-2.32-1.43-1.54,1.79-1.54,1.79c-.64.65-1.28,1.31-1.93,2a1.28,1.28,0,0,0-2.31.18,8.27,8.27,0,0,1-3.49,2.55c.28-.29.07-.84-2.29-1.84-4.24-1.78-5-3-5-3v2l-2.7-.35s-7.51-1.51-10.6-.61-2.35.61-2.35.61.6-1.12-3.47-2.41c-2.7.89,2.93,2.23.23,2.58-3,.65-2.56-.92-4.63-2.67-1.15-.27,1,1.91.38,1.68a14.72,14.72,0,0,1-3.35-1.6,4.45,4.45,0,0,1-1.27-1.51s-.87.62,0,1.69c.35.41,3.06,1.07,3.06,1.52,0,1.61-2.32,2-2.32,2-.31-1.9.33-2.74-.2-2.12-.9,1.05-3.78,2.29-4.42,2.12,0,0,1.54-1.79-1.16-.9-.45.15-1.06,1.65-1.94,1.37-.61-.19-1.85-2.32-1.89-2.14-.17.71,1.9,4.22-1.54.79-.6-.6-1.17.75-1.43,1.34a12.23,12.23,0,0,0-3.22-.46c-.54,0,.09-2-.61-1.77-.35.09-1.25,2.67-1.77,3s-.38-1.8-.8-1.53a6.91,6.91,0,0,1-2.38,1.2,3,3,0,0,1-1-.19c-.33-.12-.47,1.26-.77,1.08s-.71-1.9-.95-2.07c-.51-.36-.6,1.94-1,1.91s-1.12-2.37-1.37-2a4,4,0,0,0-.5.95c-.08,0-1.2,1.14-2.14,1.23-.37,0-.89-.44-1.49-.86s-.6,1.82-1.21,1.95c-.18,0-1-2.11-1.21-1.68a5.61,5.61,0,0,1-.9,1.36,4.41,4.41,0,0,1-3,.58c-1.48,0-.75-1.16-1.22-.8-1.54,1.26-4.24-.17-4.24-.17-.42,0-1.45,1.44-2.44,1.07-.46-.16-.83-2.39-1.27-2.33-.63.09-1.2,1.8-1.58,1.86-1.2.19-.51,1.11-1.41,1.11-.28,0-.33-2.38-.82-.89A2,2,0,0,1,291,277c-.54,0-.88-.69-1.17-.77-.46-.14-.05-.88-.72-.88,0,0-.66.87-1.25.79-.36,0-.58-1.1-.94-1-1,.3-1.7,1.38-2.54,1.42-1.31.06-1.08-1-2.6-.69-.56.12-.93,1.14-1.18.37s.33,1.24-3,1.24c-.26,0-.13-.89-.46-.89-.4.28-1.2,1.66-1.67,1.44-.28-.14-.22-1.95-.52-1.85-.66.22-1.15,2.37-1.55,2-.18-.16-.13-2-.73-1.44a2.34,2.34,0,0,1-2.85.49c-.61,0-1.21,1.07-1.5,1-.49-.12-.46-1.43-.59-1.57s-.8,1.12-1.53,1.18-1.12-1.78-1.21-1.56c-.66,1.59-1.36,2.05-1.06,1.36a19.35,19.35,0,0,0,.1-2.13c-.44.13-1,2.49-1.41,2.62-.2.05-.32-2.13-.52-2.08-1.93,3.56-2.66,2.4-2.69,1.07a8.23,8.23,0,0,1-2.9,1.12c-.57,0-.7-.67-1.16-.79s.17,2.12-.51.87c-.18-.35-1.63-1.77-2-1.49-.11.08,0,1.46-.35,1.23s-1.35-2.07-1.55-1.89c-.4.37.07,1.5-.28,1.66-.71.3-1.1-.24-2-.14-.32,0-.52-2.22-.89-2.47s-.72,3.42-1.06,3.58-.88-1.8-1.2-1.85-1-1.13-1.11-1c-.6.59,1.18,2.41-.26,2.14-1.93-.35-1.28,1-1.28,1l-2.7.35c-1.12.59,4.68.44,1.75.93-5.4,1.79-14.08.68-18.33,2.29-1.59.6-3.25,1.72-3.44,1.22-.58-1.47-2.34-.39-5.63.4-1.1.26-2.1-.14-3.65.16-9.25.18-10-.36-12.33.36s-.77-.18-6.55-.18-6.54.13-7.7,1a28.63,28.63,0,0,0-7.22,0,32.2,32.2,0,0,1-6.78-.19S164.53,284.62,168,285.69Zm198.66,56.43a2.12,2.12,0,0,0-.31.56C366.29,342.52,366.31,342.35,366.66,342.12Z"/>
            <g>
              <path class="cls-37" d="M233.27,272.13c-1.55-1-5.09-6.37-9.74-7.5s-18.15,2-19.93,2.69.45,4.38,5.76,6.22a98.78,98.78,0,0,0,17.49,4c2.66.14,8-4.38,6.42-5.37Z"/>
              <path class="cls-38" d="M230,273.82c-2.21-.14-4.2-2.54-7.52-4.52s.88-3.54-1.78-4-14.83,1-16.38,2.27,3.54,5.09,8.86,6.22,11.29,3.12,13.06,3.4,4.21-1,5.09-1.7a17.23,17.23,0,0,0,2.3-2.85,5.22,5.22,0,0,1-3.63,1.15Z"/>
              <path class="cls-39" d="M220.77,272.57c-.88-.71-1-.3-5-2.29S204.49,268,204.49,268s8.86,5.8,11.07,6.65,9.74,3.26,11.29,3,5.24-3,5.24-3-3.27,1.44-5.93.86L224,274Z"/>
              <path class="cls-40" d="M227.88,281.17c-1.55,1.13-15.2.43-24.5,1.28s-14.17,2.12-16.6,1.14-4.43-5.24-5.76-6.37-9.52-2-14-2.26-10.18-1.14-11.29-2.83-5.54-6.51-4.65-7.36,5.31-.57,12-2.12,11.73-3.12,16.6-4A32.23,32.23,0,0,1,193.42,260c2,.86,8.86,4.54,10.85,5.1s3.1,5.23,3.1,5.23,14.61,3.82,17,4.25,5,5.51,3.46,6.64Z"/>
              <path class="cls-41" d="M200.06,271.28c-2.44.14-2.88-.15-6.2,1.69s-7.52,3.12-6.86,4.67,2.21,2.41,7.31,2.69,14.83-1.42,20.14-.42a53.24,53.24,0,0,0,10.19,1c1.33,0,3.32-1.56,3.32-1.56s1.33,2.12-3.77,2.69-21.65,2.86-24.53,3.14-14.78,2.23-16.55.53-11.15-3.6-12.35-4.49-14.62,1.91-12.32-1.71c-11.8-1.28-9.3-15.16-7.31-14.73A71,71,0,0,1,162,267.5c6,2,10.13.38,6.14.1,1.55-.29-9.3-3.4-6.2-2.83s12.4,3,16.39,5.37,5.53,1.56,8,1.28.22-4.1,6-4.95,12.17-1.14,9.29-.43a48.79,48.79,0,0,0-7.08,2.69,17.27,17.27,0,0,0,4,.57c2.66.14,6.87-3.4,6.87-3.4s2.7,3.93,2,4.38c-2.88,0-6.42,2-6.42,2S202.5,271.13,200.06,271.28Z"/>
            </g>
            <path class="cls-42" d="M234.76,307.37c.6.25.69.25.44.09C234.09,307.08,233.67,306.93,234.76,307.37Z"/>
            <path class="cls-43" d="M493.5,260c-3.76-.09-6.09-.46-4.79-1.54,4.3-3.56-20.15-.86-33.23-.86s-35.78,7.58-35.86,7.58a41.44,41.44,0,0,1-6.51,1.89,1.42,1.42,0,0,1-1.33-.41c-.22-.17-.21,1.44-.84,1.17-.38-.17-1.5-2.31-1.59-2.28-.92.28,1,2.58.15,2.8-.43.13-1.12-1.57-1.5-1.48-.64.16-.94,2.08-1.38,2.15s-1.52-1.45-1.51-1.61c.15-2-.48,1.67-.81,1.63-.66-.09-1.36.18-1.8,0s-.64-.81-.86-1a2.49,2.49,0,0,1-.33-.26s-.95,1.48-1.64,1.49a1.81,1.81,0,0,1-2.28-1.43c-1.14,0-1.1,1.55-2.46,1.62s-4.11-1.32-5.43-1.2c-.34,0,1.76,1.65,1.43,1.68-.81-.22-4.85-2-5.34-1.33,1.13.27,2.72,2.22,1.17,2.14-.74.3-4-1.37-4.57-1.83-.26,0-.63,1.5-.86,1.51-.69.06-1.12-1.33-1.55-1.29l-.92.08c-.17,0,1.53,1.86,1.54,2.19-.17.33-2.22-.86-2.7-.37-.24.25,1.08,1.16-.88.75-.25,0,1.14,1.29.59,1.54-.34.14-2.75-.92-2.77-.65,0,.43,1.67,1.4,1.5,1.5-.33.16-1.53-.52-2.08-.43s-.19.9-.54,1-1-1.16-1.59-1.05-1.7,1.25-2.5,1.16-1.41-1.42-2.38-1.58-.65,1.38-1.84,1.37a5.35,5.35,0,0,1-3.27-1.33c-.15-.2-.15,1-.09,1.17.69,2.11-1.62-1.69-1.89-1.67-.45,0,.45,2,0,2-3.7.34-7-1.17-7.77-.76-.58.29,6.52,1.57,6.75,1.84.12.47-5.19-.11-6.28-.4.72.39,1.48.88,1.93,1.05s2.5.89.73.72a22,22,0,0,1-4.7-.64c-.27.28,1.72,1,2,1.38s-1.22.51-1.41.71c1,1.94-.48.77-2.48-.17-.19.44-1,.42-2.8-.22-.36.17,1.35.89,1.53,1.23s-.61,1.14-.6,1.33-.79-.6-1.68-.9-1.14-.33-1.12-.21.31.39.53.68,1.72,1.9,1.44,2.14-2.33-.87-3.8-.93,2.32,1.27,2.31,1.56a1.3,1.3,0,0,1-1.19.61,13.37,13.37,0,0,1-2.08-.67c1.1.78,1.17,2.05-.44,1.41a19.39,19.39,0,0,1-1.42-1.81c-1.3-1.81.11,1.88-.48,1.72-.93-.25-1.2-1.54-1.76-1.39s-3.62-.06-4.21,0c-.32.05-6.05-1.72-6.37-1.88-.64-.32-.85,1.88-1.08,2-1.06.51.29,3.27-3.36,1.28-5.32-2.87,1.77,3.13-1.77,1.69s2.36,2.63-3,0c-.78-.4-.89,1.28-1.42,1.14-.9-.22-2-2-2.42-1.82-1.08.61-.92,2.26-2.06,1.87-3.55-1.19,0,.72-3.55,0a2.08,2.08,0,0,0-1.68.59c-.47.38-.87.79-1.23.78-1.21,0-1.81-1.61-1.81-1.61a5.11,5.11,0,0,1-1.82,1.54c-.65.19-1-.69-1.82-.52s1.68.7-1.46.4c-10-1,1,4.58,1,4.58s-7.68,2.64-13.58,1.44-20.68,0-23.63-.24-9.6,3.27-14.92,2.55c-1.33-.18-2.16-1.66-2.78-1.73s-1.52-1.14-2-.85c-.22.14,1.25,2.34,1.1,2.69-.24.58-2.1-.66-2.67-.83-.73-.23-.33-.77-1.5-1.67s1,2.24,1.15,3.11c.11.54-3.68-2.22-3.47-1.59.35,1,2.52,2.77,2,2.4-.27-.2-1.54.12-2.41-.36-.51-.29-.71-1.5-.94-1.52-.81-.06-1.66,1.25-2.11,1.45-1.18.51-1.48-1.67-3.25-1.83-.26,0-.41,2.3-.73,2.26-1.36-.15-2.9,1-2.83,1.38.33,2.06-1.23-1.93-1.6-1.88-1.14.17-.52,1.87-1.94,1.72-.48,0-2.74-1.86-3.29-1.93s-.37,2.74-.94,2.56c-2-.63-3.63-2.11-3.73-1.29-.05.34-1.47,1.88-1.35,2.26.35,1.12,2.68,1,2.68.06,0-.6,2.38.93,4,1.31.88.21,1-.85,1.85-.67,2.58.52,5.44,2,4.22,1.28-2-1.19,7.46,3.39,8.71,4.17,2.48.86,8.42,2.9,8.42,2.07,0-1.2,10.63,4.56,8.27,1.68s8.86,4.08,8.27.72,13,5.28,11.81,3.6,15.94,3.6,15.94,3.6,89.18-13.2,93.32-13.68c.43-.05,2.71,0,6.13.07s8.25-.41,13,.25c4.22.58,5,3.72,15.55,0,1.94-.69,5.08-.12,7.42-.23s3,1.44,4.9,1.25c.83-.08,3.22-1.87,4-2s1.55-.18,2.3-.29c1.49-.19,2.9-.41,4.22-.63,2.3-.39,5.4.68,7.23.25s2.4-2.37,3.8-2.81a44.21,44.21,0,0,0,6.36-2.47,14.34,14.34,0,0,0,1.89-1.09h13.58s11.22,1,7.67-1,4.14,1.68,0-1.2,7.69,2.16,10-1.92,4.14,2.4,4.14-.48c0-.84.52-1,1.25-1Q494.14,276.07,493.5,260Z"/>
            <path class="cls-44" d="M349.27,296.24c-15.59,2.32-66.42-5.78-73.48-4.12s-8.9,11.85-16.5,12.13-10.31-3.8-10.31-3.8-10.31,2.24-9.26,4.31-3.12,4.32,1.67,4.86S249,310,253,312.71s1.88-.42,7.16.44c3.92.64,8.87,4.52,11.25,5.11.83.21-.09-1.37.9-1.13s.71-1.41,1.29-1.67-.31,2.42.31,2c.35-.22,2.1-3.53,2.61-3.7.85-.28.15,4.24,3.65-.31,1.31.1,3.11,5.69,4.49.21.26,5.31,2,.05,3,.07.23,4.6,5.15-1.13,5,.11-.47,5.29,2.62.08,3.87.15.21,4.45,2.1.13,3.07.23,1.29.12.38,5.37,3.42.51.67.15-.6,4.77,4.23,2a7.55,7.55,0,0,0,1.86.74c3,.05,3,.05,3.91-2.71,1.88.54.08,5.67,6.82,1.18.23,4.77,5.64.48,5.64.48s2.71,3.79,4.2-.69c2.84-.4,5.42,4.76,7.64-.45,1.62.42,2.27-1.51,4.83-2.79-2.41,5.81,3-1.11,5.46-1.09a17.73,17.73,0,0,1,3.83-4c-1.15,3,1.78,3,2.94,2.11.94-.68,1.69-3,2.65-4.57s2.21-2.48,4.07,0c6.08-2.33-1.47-.82,1.74-3.39,2.43-1.95-5.94.55-1.62-2.91,1.16.79,3,2.18,8.22,3.07.75-.23-5.55-3-4.17-3C363.84,294.34,364.87,293.92,349.27,296.24Z"/>
            <path class="cls-45" d="M6.86,203.87s93.67-23.74,114.7-22.81,11.27,3.64,24.67,1.83c9.34-1.27,38.33-.28,42.08-.23s32.57-7.16,37.56-6.76,26.32,1.95,26.32,1.95,49.68-.63,41.5-.63-5.17.24-20.47,2.29c26.47,0,100.15-1.51,93.53-1.51-7.89,0-78.7,12.09-126,10.09-57.39-2.43-69.06-3.14-89.66,2.29-14.84,3.92-82.5,8.2-89.52,10.91-3.22,1.25,60-10.44,52.59-10.44s-49.28,5.86-51.76,5.86S6.86,203.87,6.86,203.87Z"/>
            <g>
              <path class="cls-46" d="M361.47,293.31s-7.87-2.36-13.27-6.16-14.17-5.06-16.44-6.23-5.11-5.55-6-6.57-6.52-2.19-9.36-2.49-13.62-.29-13.62-.29-12.21-3.94-18.73-3.94-8.51,4.23-11.35,5.26-5.39,10.22-5.39,10.22l2.83,3.8s38.88,10.23,40.58,10.81S334,299,338,298.69s19-1.26,21-1.11c-2-.15,5.67-1.32,5.67-1.32Z"/>
              <path class="cls-47" d="M350.21,296.41c-3.41-.44-8.8-6.28-14.19-8.62s-1.42-4.38-6-5-4.54-6.14-7.38-7.74-11.92-1.61-15-1.61-9.36,1.17-14.75.15-5.11-5.41-7.67-5.41-10.78,5.11-12.48,6.43-3.69,5.55-4.26,6.72,2.56,5.26,2.56,5.26,29.22,9.06,30.64,9.35,16.46,2.34,16.18,1.46-17.6-6.87-17-9.79,4.83-6.13-.57-6-5.1-1.75-7.37-3.07-6.24-1-7.1-1.9-3.41-2.48-1.13-2.33,19.29,4.09,21.28,4.38,8.23,8.18,11.35,11.54,9.65,3.66,11.63,4.53-9.36,3.51-6.52,4.09,28.94-.73,33.48-1.31,9.08-1.46,9.08-1.46-11.35.73-14.75.29Z"/>
              <path class="cls-48" d="M359.23,295.53s-18.73-10.23-23.84-11.4-6.24.73-3.69,1.9,9.65,6,12.77,7.3,14.76,2.2,14.76,2.2Z"/>
            </g>
            <g>
              <path class="cls-49" d="M326,303.66c-3.3-1.25-16.26-11.81-30.16-16.1S240,273.79,231.27,275,228,287.56,232.45,291a32.71,32.71,0,0,0,9.18,4.83s-5.65,5.19-2.12,8,8.44,7.11,11,7.47,27.84-.32,33,.21,17.9-1.42,19.08-1.42,14.6-2.15,17.43-2.15,9.19-3,5.89-4.29Z"/>
              <path class="cls-50" d="M314.43,306c-3.77-.18-15.32-12.87-25.92-15.38s-13.19-4.11-12-2.86a34.89,34.89,0,0,0,7.07,5.9c3.06,1.79,6.36,2.51,2.35,2.33s-7.77-5.9-19.08-8.41-24.26-5.19-29.45-6.62-.94-4.29-.94-4.29-5.89-1.25-7.54-.36-1.11,11.86,3.84,14.9a64.13,64.13,0,0,0,8.88,4.6,17.32,17.32,0,0,1,13.67-2.86c8.24,1.61,9.18,4.29,9.18,4.29s-18.14-1.25-20.26,2.5,13.67,9.66,14.61,10.56-20.55-9-20-7.23c1.66,5.47,13.2,8.83,14.38,9s17.43,0,24.73,0,20.5-3.22,23.32-3.22,15.79,1.61,19.56-.17a20.61,20.61,0,0,0,5.89-4.12s-8.49,1.61-12.25,1.43Z"/>
              <path class="cls-51" d="M299.11,309.74s-1.41-1.07-17-7.87-21-8.3-26-9-11.88,1.35-11.88,1.35,10.69-7.71,25.37-.57c9.18,4.48,11.07,2.86,12.48,3.76s13.19,5.54,13.19,5.54l-8.48-5.36s6.84,1.43,9.66,3.22a60,60,0,0,0,12,5.72c4,1.25,13.9.71,13.9.71s-7.78,2.69-13.67,3a36.7,36.7,0,0,1-9.66-.54Z"/>
              <path class="cls-52" d="M292.75,306.6c-.47.18-9.18-.08-17.19.28s-16,2-20.5.17-10.24-4.91-10.24-4.91,6,6,8.83,6.88-6.83-.18-5.42,1.26S262,314,265,314.14s21.84-2.43,23.72-2.43,16.89-2,16.89-2-9-1.7-9.45-1.53Z"/>
            </g>
          </g>
        </g>
      </g>
    </g>
  </g>
</svg>
