<svg xmlns="http://www.w3.org/2000/svg" width="337.55" height="334.41" viewBox="0 0 337.55 334.41">
  <defs>
    <style>
      .cls-1 {
        isolation: isolate;
      }

      .cls-2 {
        fill: #ff0;
      }

      .cls-3, .cls-5, .cls-6 {
        fill: #89b979;
      }

      .cls-4 {
        fill: #639a26;
      }

      .cls-11, .cls-13, .cls-5, .cls-9 {
        mix-blend-mode: multiply;
      }

      .cls-22, .cls-6 {
        mix-blend-mode: screen;
      }

      .cls-7, .cls-8, .cls-9 {
        fill: #d4688c;
      }

      .cls-7 {
        stroke: #893354;
      }

      .cls-18, .cls-19, .cls-20, .cls-21, .cls-7 {
        stroke-miterlimit: 10;
      }

      .cls-10, .cls-19, .cls-21 {
        fill: #f4a8b3;
      }

      .cls-11, .cls-13, .cls-14, .cls-18, .cls-20, .cls-22 {
        fill: #f088a1;
      }

      .cls-11 {
        opacity: 0.4;
      }

      .cls-12 {
        fill: #c61e4b;
      }

      .cls-13 {
        opacity: 0.8;
      }

      .cls-15 {
        fill: #e94e6a;
      }

      .cls-16 {
        fill: #d32d50;
      }

      .cls-17 {
        fill: #c13352;
      }

      .cls-18 {
        stroke: #c61738;
      }

      .cls-19 {
        stroke: #aa3047;
      }

      .cls-20 {
        stroke: #ce3e3e;
      }

      .cls-21 {
        stroke: #db2e58;
      }

      .cls-23 {
        fill: #d33356;
      }
    </style>
  </defs>
  <g class="cls-1">
    <g id="Layer_1" data-name="Layer 1">
      <g>
        <path class="cls-2" d="M53.48,109.74a199.41,199.41,0,0,0-23.9,2.65c-4.68.81-10.08,1.88-15,4.35a6,6,0,0,0-2.93,7.52,18.69,18.69,0,0,0,4.52,6.18c.24.24.47.46.67.68l1.36-1.29a.41.41,0,0,0,0,.11l-1.28,1.25.19.21c.72.88,1.5,1.8,2.45,2.86l.26.29.92,1,.33.35c.47.51.94,1,1.43,1.51l1.4,1.4,1.62,1.56.3.28c.3.28.6.57.9.84,1.07,1,2,1.83,3,2.6a91.86,91.86,0,0,0,24.78,14.6A91.48,91.48,0,0,0,40.73,169.9a7.28,7.28,0,0,0-2,7.32,6.25,6.25,0,0,0,5.07,4.26,32.11,32.11,0,0,1,5.4,1.36,57.74,57.74,0,0,1,8.12,6.44c1.31,1.16,2.54,2.26,3.73,3.22a81.67,81.67,0,0,0,19.71,11.91,68.06,68.06,0,0,0,26.07,5,66.84,66.84,0,0,0,16.3-2c11.24-2.82,24.78-10.34,35-20.88l1.72,128.63a8.13,8.13,0,0,0,.06,1,6.74,6.74,0,0,0,4.4,5.63,25.62,25.62,0,0,0,8.81,1.38,50,50,0,0,0,12.52-1.76,6.81,6.81,0,0,0,5-6.05c.19-2.58.23-19.6-1.55-135.24A96.37,96.37,0,0,0,206.6,182c1.06,0,2.11,0,3.16,0a122.48,122.48,0,0,0,36.73-5.46c13.55-4.19,23.95-13.23,32.31-21.5a7.46,7.46,0,0,0,2.3-5.8,6.38,6.38,0,0,0-2.74-4.73c-2.32-1.6-4.58-3.42-6.9-5.36q2.43-1.24,4.87-2.65c16.24-9.37,29.24-22.93,41.81-36,2-2.09,4-4.17,5.94-6.16a7.78,7.78,0,0,0,2.26-5.51,6.77,6.77,0,0,0-.11-1,6.43,6.43,0,0,0-3.93-5.3,52.66,52.66,0,0,0-20.64-4,81.56,81.56,0,0,0-23.23,3.69c.84-3.82,1.46-7.53,2-11,1.69-10.76,1.06-21.93-1.92-34.12,0-.17-.06-.34-.09-.53a10.24,10.24,0,0,0-4.49-7.6,7.79,7.79,0,0,0-4.19-1.14A14.14,14.14,0,0,0,264,29.32l-.17.07a79.82,79.82,0,0,0-14.07,7.19l-1.46.87c-4.79,2.85-9.65,6.07-14.52,9.63A34.41,34.41,0,0,0,230.93,42a6.79,6.79,0,0,0-5.3-2.85c-.08-.27-.17-.53-.25-.78a77.79,77.79,0,0,0-6.88-15c-2.75-4.62-6.18-5.59-8.58-5.59-3.49,0-6,2-8,3.56a104.85,104.85,0,0,0-20.79,22.33c-.51-.63-1-1.28-1.52-1.93a6.86,6.86,0,0,0-4.74-2.57h-.58a6.84,6.84,0,0,0-4.6,1.78l-.46.42c-1.43,1.31-2.9,2.61-4.36,3.9-2.18-3.79-4.4-7.34-6.64-10.61a72.44,72.44,0,0,0-15.39-16.93c-2.49-1.94-5-3.72-7.35-5.36a6,6,0,0,0-7.9.9A48,48,0,0,0,122,21.63c-.34.61-.66,1.16-.94,1.64a82.76,82.76,0,0,0-8.51,20c0,.07-.13.44-.16.57-1.74-1-3.63-2-5.94-3.28a6.07,6.07,0,0,0-2.82-.7,6,6,0,0,0-4.9,2.53c-.25.35-.5.74-.74,1.12l-.11.19a39.62,39.62,0,0,0-2.25,4.32,99.94,99.94,0,0,0-21-8.08l-2.29-.59L71,39.07l-1-.22-1.5-.31-.8-.16c-.7-.13-1.41-.24-2.17-.35l-.17,0a42.94,42.94,0,0,0-6-.44,34,34,0,0,0-4.08.24l-.28,0-.95.12A6,6,0,0,0,49,44.19c.09,1.64.17,3.27.25,4.91.25,5.21.5,10.59,1.11,16A105.77,105.77,0,0,0,57.74,93.6a137.78,137.78,0,0,0,7.79,15.94l-2.65,0C59.7,109.52,56.53,109.6,53.48,109.74Z"/>
        <g>
          <g>
            <g>
              <path class="cls-3" d="M183.89,314.89c.67-8.92-3.27-242.74-3.27-242.74l-17.22-.82,3.25,243.87a2.09,2.09,0,0,0,0,.25C171.39,317.18,178.45,316.35,183.89,314.89Z"/>
              <path class="cls-4" d="M173.14,317.2h0a19.89,19.89,0,0,1-6.74-1,.8.8,0,0,1-.51-.66c0-.2,0-.33,0-.33L162.62,71.33a.8.8,0,0,1,.24-.56.76.76,0,0,1,.58-.22l17.21.82a.78.78,0,0,1,.75.78c0,6.22,3.94,234,3.28,242.8a.78.78,0,0,1-.58.69A43.73,43.73,0,0,1,173.14,317.2Zm-5.7-2.31c3.72,1.18,9.72.91,15.71-.61.57-12.73-3.26-230-3.31-241.38l-15.65-.75Z"/>
            </g>
            <path class="cls-5" d="M179.42,315.06c1.4-.26,2.44-.44,3.73-.78.66-8.92-2.53-242.13-2.53-242.13l-17.22-.82v64.14a83.2,83.2,0,0,1,6.42-5.95C170.46,129,178.48,289.8,179.42,315.06Z"/>
            <path class="cls-6" d="M168.27,217.38q-.72-24.76-1.18-49.52c-.28-16.7-.69-33.41-.49-50.12.19-15.41.58-30.82.48-46.23l-3.68-.18s4,243.38,4,243.54a17.92,17.92,0,0,0,5.31.75C172.48,309.76,168.44,223.19,168.27,217.38Z"/>
          </g>
          <path class="cls-7" d="M320.23,88.72c.09-.29,0-.56-.24-.68-18.1-7.66-40.56-1.45-57.21,6.93a113.37,113.37,0,0,0-25.47,17.77,87.9,87.9,0,0,0-10.1,10.94c-.54.68-5.64,9.45-5.85,9.91-.1-.08-.21-.14-.32-.22-.38-.28-1,.21-1.14.69a11.71,11.71,0,0,1-2.28-1c-.24-.13-.65.36-.42.53a9.55,9.55,0,0,0,3.38,1.52c15.94,12.37,36.94,5.35,52.75-3.77,18-10.4,32.16-26.51,46.52-41.25C320.1,89.84,320.56,89,320.23,88.72Z"/>
          <path class="cls-8" d="M221.91,134c7.9-17.81,28.15-31.26,45-39.32,14.62-7,33.83-10.65,49.78-5.82-15.1,1.47-30.56,10.16-43.18,17.63-8.32,4.92-16.26,10.55-24.25,16-6.61,4.51-17.22,12.88-26.42,12.2Z"/>
          <path class="cls-9" d="M296.38,93.16c-11.67,4-22.3,10.32-33.42,15.57-.5.23-1.22-.16-1-.78a45.69,45.69,0,0,1,8.55-14.89c-1.21.51-2.39,1-3.54,1.58-16.9,8.06-37.15,21.51-45,39.32l1,.68c9.2.68,19.81-7.69,26.42-12.2,8-5.44,15.93-11.07,24.25-16,10.31-6.1,22.52-13,34.87-16.15A66,66,0,0,0,296.38,93.16Z"/>
          <path class="cls-10" d="M278.9,126c-15.29,10.52-37.33,19.41-54.68,9.47,4.3-.16,8.91-2,12.28-3.52,8.18-3.8,15.5-10,23.1-14.79,9.53-6.06,18.66-12.24,28.89-17.14,8.92-4.27,19.2-8.83,29.25-9.51C305.5,103.07,293.44,116,278.9,126Z"/>
          <path class="cls-11" d="M296.93,108.56c-9.83,8.62-22,17.06-34.82,20.25a.69.69,0,0,1-.53-1.26c5.6-4.07,10.61-8.86,15.88-13.34-7.95,4.14-15.52,9-23.47,13.15a.69.69,0,0,1-.84-1.08,215.08,215.08,0,0,1,17.28-16.08c-3.61,2.27-7.19,4.6-10.83,6.92-7.6,4.84-14.92,11-23.1,14.79-3.37,1.56-8,3.36-12.28,3.52,17.35,9.94,39.39,1,54.68-9.47C293.16,116.15,305,103.57,317,91.21,309.59,95.76,303.65,102.67,296.93,108.56Z"/>
          <path class="cls-12" d="M168.12,150.6c-.11.22-.22.43-.32.65l-.16.06a1.57,1.57,0,0,1-.25.14c0-.2,0-.4,0-.6-.07-.88-1.3.16-1.35.66,0,.21,0,.42-.07.64-5.27,2.08-11.15-.12-16.5-1.09-5.85-1-11.65-2.29-17.46-3.54-11.14-2.38-22.48-.93-33.6.9-20.54,3.37-38.62,11-53.44,25.75-.21.22-.9,1.28-.19,1.38a38.77,38.77,0,0,1,7,1.81c4.88,2.74,9.57,7.61,13.1,10.45A75.87,75.87,0,0,0,83.1,198.88a64.2,64.2,0,0,0,38.6,2.75c19.94-5,45.63-25.37,45.75-48,.18-.37.35-.75.51-1.13a1.38,1.38,0,0,0,.37-.93c.12-.32.26-.64.38-1C168.9,150,168.25,150.3,168.12,150.6Z"/>
          <path class="cls-8" d="M110.3,148.42c12.43-1.28,23.61,1.58,35.72,3.79,6.32,1.14,13.56,3.79,19.74,1.37-.09.66-.19,1.32-.31,2-11.12,18.09-35.11,29.95-55,33.17a82.52,82.52,0,0,1-34.33-1.88c-8.66-2.38-15.54-8-23.72-11.11a14.58,14.58,0,0,0-3-1c-.87-.26-1.75-.47-2.66-.66C64.3,157.33,86.41,150.89,110.3,148.42Z"/>
          <path class="cls-13" d="M146,152.21c-12.11-2.21-23.29-5.07-35.72-3.79-16.66,1.73-32.45,5.39-46.43,13.13,7.5-1.08,15.24-.39,23,1,15.73,2.73,31.4,4.32,47.38,3.25a.7.7,0,0,1,.49,1.18A67.62,67.62,0,0,1,114.06,178c8-2.34,15.81-5.34,23.8-7.43.54-.14,1.15.5.78,1-6.21,8.61-15.72,13.68-25.81,16.64,19.4-3.74,41.94-15.34,52.62-32.72.12-.65.22-1.31.31-2C159.58,156,152.34,153.35,146,152.21Z"/>
          <path class="cls-10" d="M108.55,201.38c-14,.54-27.43-4.23-38.67-12.27-2.54-1.8-5.67-4.86-9.06-7.71,6.8,3.47,13.47,7.38,21.16,8.89a83.05,83.05,0,0,0,37-1.07c16.54-4.32,36.25-15.36,45.91-30.85C158.88,183.31,133.85,200.39,108.55,201.38Z"/>
          <g>
            <g>
              <path class="cls-14" d="M131.25,125.15c-.24,0-.61.62-.38.62S131.47,125.15,131.25,125.15Z"/>
              <path class="cls-15" d="M130.87,126.56a1,1,0,0,1-.59-.27.91.91,0,0,1-.26-.6,1.4,1.4,0,0,1,1.23-1.32.9.9,0,0,1,.59.27.94.94,0,0,1,.26.59A1.42,1.42,0,0,1,130.87,126.56Z"/>
            </g>
            <g>
              <path class="cls-14" d="M224.33,72.38c-.58-10.64-2.1-21.78-5.4-31.95a70.49,70.49,0,0,0-6.27-13.65c-2.09-3.54-3.67-2.44-6.51-.18-15.78,12.52-27.53,30.65-33.84,49.72a109.47,109.47,0,0,0-5.4,37.34,78,78,0,0,0,2.83,18.46,96.51,96.51,0,0,0,3,9.23c.2.5.4,1.07.64,1.65a13.62,13.62,0,0,0,2.71,6.57c2.38,3,8.08,3.29,11.29,1.92,8.87-3.78,16.09-11,21.73-18.61C221.63,115.9,225.46,93,224.33,72.38Z"/>
              <path class="cls-16" d="M183.14,153.05h0c-3.28,0-6.15-1.12-7.66-3a14.42,14.42,0,0,1-2.87-6.94c-.08-.16-.21-.49-.33-.8l-.26-.68a93.17,93.17,0,0,1-3-9.32,78.57,78.57,0,0,1-2.87-18.64,110.44,110.44,0,0,1,5.45-37.6C178.22,56,190.33,38.16,205.66,26c1.73-1.36,3-2.26,4.26-2.26,1.65,0,2.74,1.52,3.42,2.66a70.62,70.62,0,0,1,6.33,13.81c2.94,9,4.77,19.86,5.45,32.14.76,14-.22,40.45-15.37,61-6.75,9.16-14.17,15.5-22.05,18.86A12,12,0,0,1,183.14,153.05ZM209.92,25.29c-.79,0-1.86.79-3.28,1.92-15.1,12-27,29.52-33.58,49.36a108.61,108.61,0,0,0-5.37,37.07,77.05,77.05,0,0,0,2.81,18.27,95.27,95.27,0,0,0,3,9.16l.27.69c.11.31.23.62.36.94a13.24,13.24,0,0,0,2.6,6.38c1.21,1.5,3.61,2.4,6.43,2.4h0a10.3,10.3,0,0,0,3.94-.71c7.63-3.25,14.83-9.42,21.41-18.35,14.86-20.17,15.81-46.25,15.06-60-.67-12.15-2.47-22.83-5.36-31.75a70.43,70.43,0,0,0-6.2-13.5C211,25.48,210.33,25.29,209.92,25.29Z"/>
            </g>
            <path class="cls-13" d="M224.33,72.38c-.58-10.64-2.1-21.78-5.4-31.95-.38-1.16-.8-2.34-1.28-3.52a48.77,48.77,0,0,1-5.39,9.62c-5.26,7.38-12.71,14.95-21.43,18a.93.93,0,0,1-1.14-.65,45.66,45.66,0,0,1,4.08-25.38,110.86,110.86,0,0,0-21.46,37.84,109.47,109.47,0,0,0-5.4,37.34,78,78,0,0,0,2.83,18.46,96.51,96.51,0,0,0,3,9.23c.2.5.4,1.07.64,1.65a13.62,13.62,0,0,0,2.71,6.57c2.38,3,8.08,3.29,11.29,1.92,8.87-3.78,16.09-11,21.73-18.61C221.63,115.9,225.46,93,224.33,72.38Z"/>
            <g>
              <path class="cls-14" d="M271.9,38.76c-.34-1.41-.22-3.11-1.55-3.94-1-.61-3.37.66-4.11.93-5.09,1.81-9.81,4.78-14.43,7.53a193.74,193.74,0,0,0-26.38,19.07C213,73,200.81,84.61,192.12,98.57a137.24,137.24,0,0,0-10.77,22.31,88.8,88.8,0,0,0-3.48,10.88c-.2.8-.37,1.62-.52,2.44a.22.22,0,0,0,0,.08c-1.22,4-3.44,8.15-2.65,12.37.9,4.74,8.3,4.5,11.69,4.4,10.2-.29,20.68-4.47,29.68-9.09,19.21-9.88,36.47-22.1,48-40.75,5.91-9.57,8-20,9.71-31C275.39,59.64,274.43,49.11,271.9,38.76Z"/>
              <path class="cls-17" d="M184.3,151.87c-2.34,0-9.46,0-10.42-5.07-.64-3.45.56-6.78,1.73-10,.33-.93.66-1.85.94-2.75a.61.61,0,0,1,0-.12c.15-.79.32-1.58.51-2.36a90.29,90.29,0,0,1,3.51-11,136.07,136.07,0,0,1,10.83-22.43c9.15-14.69,22.05-26.65,33.47-36.4a194.8,194.8,0,0,1,26.49-19.15l1.46-.88A75.05,75.05,0,0,1,266,35a5.16,5.16,0,0,0,.52-.22c1.19-.52,3.23-1.28,4.26-.64,1.32.83,1.53,2.21,1.72,3.43.06.34.11.68.19,1,2.79,11.42,3.39,21.82,1.83,31.79-1.63,10.4-3.73,21.38-9.83,31.25-10.14,16.43-25,29.08-48.3,41-11.55,5.94-21.37,8.94-30,9.18C185.74,151.85,185.05,151.87,184.3,151.87ZM269.66,35.44a8,8,0,0,0-2.54.79c-.25.11-.46.2-.61.25a74.11,74.11,0,0,0-12.83,6.6l-1.47.87a193.38,193.38,0,0,0-26.27,19c-11.33,9.68-24.12,21.53-33.16,36a134.28,134.28,0,0,0-10.7,22.18A87,87,0,0,0,178.63,132c-.19.79-.36,1.59-.51,2.39a.81.81,0,0,1-.13.3c-.23.8-.57,1.74-.91,2.69-1.09,3-2.22,6.15-1.66,9.18.48,2.55,3.39,3.79,8.88,3.79.73,0,1.41,0,2,0,8.44-.24,18-3.18,29.38-9,23-11.82,37.7-24.29,47.68-40.46,5.94-9.62,8-20.43,9.61-30.68,1.53-9.75.94-20-1.81-31.17-.08-.36-.14-.75-.2-1.13-.19-1.18-.35-1.92-1-2.34A.53.53,0,0,0,269.66,35.44Z"/>
            </g>
            <path class="cls-11" d="M271.9,38.76c-.32-1.36-.24-3-1.43-3.84-2.65,6-4.86,12.15-7.81,18a121,121,0,0,1-11.6,18.27,244.75,244.75,0,0,1-28.29,30.89,368.64,368.64,0,0,1-31.71,26.5c-5,3.77-10.17,7.42-15.51,10.76a14.88,14.88,0,0,0-.9,7.32c.9,4.74,8.3,4.5,11.69,4.4,10.2-.29,20.68-4.47,29.68-9.09,19.21-9.88,36.47-22.1,48-40.75,5.91-9.57,8-20,9.71-31C275.39,59.64,274.43,49.11,271.9,38.76Z"/>
            <path class="cls-11" d="M271.9,38.76c-.29-1.21-.26-2.64-1.1-3.54a118.22,118.22,0,0,1-37.16,86,.93.93,0,0,1-1.45-1.12,58,58,0,0,0,3.59-31c-4.2,4.45-8.56,8.75-13,12.94a368.64,368.64,0,0,1-31.71,26.5c-5,3.77-10.17,7.42-15.51,10.76a14.88,14.88,0,0,0-.9,7.32c.9,4.74,8.3,4.5,11.69,4.4,10.2-.29,20.68-4.47,29.68-9.09,19.21-9.88,36.47-22.1,48-40.75,5.91-9.57,8-20,9.71-31C275.39,59.64,274.43,49.11,271.9,38.76Z"/>
            <path class="cls-18" d="M172.38,74.17C167.18,61.74,160.89,49.1,153.29,38a67.59,67.59,0,0,0-14.12-15.58c-2.32-1.8-4.71-3.5-7.11-5.17-2.5,2.77-4.55,6.88-5.91,9.14a83.49,83.49,0,0,0-10.36,29.89,78.94,78.94,0,0,0,15.94,61.05,73.11,73.11,0,0,0,18.17,16.52c7.51,4.74,15.59,6.82,24.18,8.65,3.66.78,9.37,2.14,13.35.36C186.89,119.34,181.37,95.66,172.38,74.17Z"/>
            <path class="cls-13" d="M172.38,74.17C167.18,61.74,160.89,49.1,153.29,38a67.59,67.59,0,0,0-14.12-15.58c-1-.8-2.09-1.58-3.15-2.35,8.93,16.34,12,36.89,6.67,54.05a.93.93,0,0,1-1.69.22,122.31,122.31,0,0,0-14.13-20.51,77.78,77.78,0,0,0-7.79-7.93l-.86-.75a97.34,97.34,0,0,0-2.43,11.13,78.94,78.94,0,0,0,15.94,61.05,73.11,73.11,0,0,0,18.17,16.52c7.51,4.74,15.59,6.82,24.18,8.65,3.66.78,9.37,2.14,13.35.36C186.89,119.34,181.37,95.66,172.38,74.17Z"/>
            <path class="cls-7" d="M147.62,133.81A157.89,157.89,0,0,0,102.43,119a224.79,224.79,0,0,0-48.66-3.28,189.64,189.64,0,0,0-23.16,2.56c-4.58.79-9.24,1.74-13.4,3.81.8,2.09,3.4,4.15,4.5,5.5a90.56,90.56,0,0,0,11.78,11.88c16.92,14.23,40.58,20.68,62.21,22.75,19.19,1.82,39.27.39,57.7-5.44,6.16-1.94,13.1-3.82,19-7A173.81,173.81,0,0,0,147.62,133.81Z"/>
            <path class="cls-19" d="M101.16,145.88q-10.27-3.4-20.2-7.78c-7.72-3.4-15.11-7.58-22.93-10.77a66.21,66.21,0,0,0-24.47-4.89,77.07,77.07,0,0,0-15.68.88,50.74,50.74,0,0,0,3.83,4.29,90.56,90.56,0,0,0,11.78,11.88c16.92,14.23,40.58,20.68,62.21,22.75,19.19,1.82,39.27.39,57.7-5.44,6.16-1.94,13.1-3.82,19-7l-.19-.14C149.46,157.31,123.6,153.29,101.16,145.88Z"/>
            <path class="cls-11" d="M38.64,126.72a112.88,112.88,0,0,1,20.2,9.06c12.26,6.7,24.48,13.08,38.06,16.73,17.87,4.8,37,5.79,54.63,1.07-17,1-34.51-2.47-50.37-7.7q-10.27-3.4-20.2-7.78c-7.72-3.4-15.11-7.58-22.93-10.77a66.21,66.21,0,0,0-24.47-4.89,87.82,87.82,0,0,0-13.44.51C26.19,124.63,32.58,124.83,38.64,126.72Z"/>
            <path class="cls-13" d="M147.62,133.81A157.89,157.89,0,0,0,102.43,119a240.66,240.66,0,0,0-29.34-3.25,67.63,67.63,0,0,0,38.31,33.28c.81.27.95,1.59,0,1.79-19.92,4.07-40.64,1.46-59.48-6a168.25,168.25,0,0,1-25.21-12.82c-.88-.54-1.74-1.07-2.58-1.63a93.17,93.17,0,0,0,9.36,9.07c16.92,14.23,40.58,20.68,62.21,22.75,19.19,1.82,39.27.39,57.7-5.44,6.16-1.94,13.1-3.82,19-7A173.81,173.81,0,0,0,147.62,133.81Z"/>
            <path class="cls-20" d="M152.66,141.72a174.34,174.34,0,0,0-5.16-21.15c-4.75-14.54-11.33-28.36-21.64-39.8-9.29-10.3-20.08-20.35-32.34-27a93.7,93.7,0,0,0-20.53-8c-5.88-1.58-12-2.83-18-1.89.37,6.84.55,13.71,1.32,20.51a99.91,99.91,0,0,0,6.94,26.93c6.22,15,15.56,30.12,28,40.85,13.82,11.93,31.25,15.15,49.08,14.84,3.82-.07,8.29.08,12.85-.05A34.84,34.84,0,0,0,152.66,141.72Z"/>
            <path class="cls-13" d="M152.66,141.72a174.34,174.34,0,0,0-5.16-21.15c-4.75-14.54-11.33-28.36-21.64-39.8-9.29-10.3-20.08-20.35-32.34-27a93.7,93.7,0,0,0-20.53-8c-5.53-1.48-11.26-2.66-16.92-2,2.84,16.93,8.11,33.45,16.65,48.4,4.83,8.44,10.09,17,16.87,24,5.76,6,12.17,11.34,17.25,17.94.46.6-.17,1.39-.8,1.4-5.26.13-10.26-2.95-14.54-5.68-2.63-1.68-5.27-3.36-7.8-5.18a83.34,83.34,0,0,0,7.56,7.48c13.82,11.93,31.25,15.15,49.08,14.84,3.82-.07,8.29.08,12.85-.05A34.84,34.84,0,0,0,152.66,141.72Z"/>
            <path class="cls-20" d="M89.37,108.91c8.55,10.68,18.22,20.21,30.69,26.19C126.2,138,132.62,140,139,142.36c4.6,1.71,9.32,3.61,14.2,4.44a34.16,34.16,0,0,0-.52-5.08,174.34,174.34,0,0,0-5.16-21.15c-4.75-14.54-11.33-28.36-21.64-39.8-9.29-10.3-20.08-20.35-32.34-27a93.7,93.7,0,0,0-20.53-8c-5.56-1.5-11.32-2.68-17-2C63.85,66.94,74,89.75,89.37,108.91Z"/>
            <path class="cls-13" d="M152.66,141.72a174.34,174.34,0,0,0-5.16-21.15c-4.75-14.54-11.33-28.36-21.64-39.8-9.29-10.3-20.08-20.35-32.34-27a93.7,93.7,0,0,0-20.53-8c-1.93-.51-3.89-1-5.86-1.38A42,42,0,0,1,80.46,55c4.84,6.12,10.65,16.17,7.83,24.24a.94.94,0,0,1-1.55.4A62.34,62.34,0,0,1,76.55,66.52c4,11.45,8.25,22.78,14.2,33.4a.93.93,0,0,1-1.45,1.13c-8.55-8.67-14.53-18.5-21-28.73-1.25-2-2.52-4-3.77-6C71.07,81.49,79.05,96,89.37,108.91c8.55,10.68,18.22,20.21,30.69,26.19C126.2,138,132.62,140,139,142.36c4.6,1.71,9.32,3.61,14.2,4.44A34.16,34.16,0,0,0,152.66,141.72Z"/>
            <path class="cls-21" d="M147.24,94.16a191.66,191.66,0,0,0-21.7-31.41,62.94,62.94,0,0,0-14.81-12.86c-2.35-1.4-4.74-2.72-7.15-4-2,2.84-3.45,6.88-4.46,9.12a78.06,78.06,0,0,0-6.28,28.84,73.61,73.61,0,0,0,21.56,54.76,67.36,67.36,0,0,0,18.66,13.27c7.48,3.56,15.18,4.59,23.35,5.33,3.47.32,8.92.94,12.4-1.14A178.51,178.51,0,0,0,147.24,94.16Z"/>
            <path class="cls-11" d="M147.24,94.16a191.66,191.66,0,0,0-21.7-31.41,62.94,62.94,0,0,0-14.81-12.86c-2.35-1.4-4.74-2.72-7.15-4-.19.26-.37.54-.54.82,1.71,3.4,3.46,6.78,4.83,10.34a209.83,209.83,0,0,1,7,21.18c3.38,12.54,6,25.75,4.38,38.77-.09.71-1,1.33-1.58.65-7.88-9-12.19-21-14-33.1a91.39,91.39,0,0,0,15.48,50.37c.5.73-.52,1.84-1.27,1.27-11.66-8.94-19-23.13-22.11-37.34-2.53-11.66-1.84-23.08.06-34.47a84.52,84.52,0,0,0-2.94,19.47,73.61,73.61,0,0,0,21.56,54.76,67.36,67.36,0,0,0,18.66,13.27c7.48,3.56,15.18,4.59,23.35,5.33,3.47.32,8.92.94,12.4-1.14A178.51,178.51,0,0,0,147.24,94.16Z"/>
            <g>
              <path class="cls-10" d="M181.74,94.16a190.43,190.43,0,0,1,21.7-31.41,62.89,62.89,0,0,1,14.8-12.86c2.35-1.4,4.76-2.72,7.16-4,2,2.84,3.45,6.88,4.45,9.12a77.66,77.66,0,0,1,6.28,28.84,73.64,73.64,0,0,1-21.55,54.76,67.51,67.51,0,0,1-18.66,13.27c-7.48,3.56-15.19,4.59-23.35,5.33-3.47.32-8.92.94-12.4-1.14A178.1,178.1,0,0,1,181.74,94.16Z"/>
              <path class="cls-15" d="M167.16,158.33a14.31,14.31,0,0,1-7.39-1.59.78.78,0,0,1-.37-.79,179,179,0,0,1,21.66-62.17c7.19-12.69,14.32-23,21.79-31.54a62.8,62.8,0,0,1,15-13c2.52-1.51,5-2.88,7.19-4a.78.78,0,0,1,1,.23A40.26,40.26,0,0,1,229.83,53c.27.64.51,1.23.74,1.73a78,78,0,0,1,6.34,29.13,74.12,74.12,0,0,1-21.77,55.34,68.2,68.2,0,0,1-18.89,13.43c-7.82,3.72-15.95,4.71-23.61,5.4l-.45,0C170.75,158.16,169,158.33,167.16,158.33ZM161,155.64a13.67,13.67,0,0,0,6.14,1.13c1.73,0,3.48-.17,4.88-.3l.46,0c7.52-.68,15.49-1.64,23.08-5.25A67,67,0,0,0,214,138.06a72.64,72.64,0,0,0,21.32-54.19,76.76,76.76,0,0,0-6.21-28.54c-.23-.51-.48-1.11-.76-1.77a42.36,42.36,0,0,0-3.24-6.65c-2,1.07-4.24,2.31-6.5,3.65A61.64,61.64,0,0,0,204,63.27c-7.4,8.45-14.47,18.69-21.61,31.28A177.65,177.65,0,0,0,161,155.64Z"/>
            </g>
            <path class="cls-11" d="M236.13,83.85A77.66,77.66,0,0,0,229.85,55c-.63-1.42-1.44-3.55-2.45-5.65a99.43,99.43,0,0,1-.26,27.51,142.46,142.46,0,0,1-4.69,19.75c-1.19,4-2.59,8.06-5.67,11.07a.94.94,0,0,1-1.58-.66c-.36-8.9,1.16-17.69,1.26-26.57.06-5.81-.12-11.59.66-17.32-4,5.3-8.24,10.46-12,16a.93.93,0,0,1-1.73-.46c.64-10.89,6.17-19.87,13.14-27.74a65.17,65.17,0,0,0-13.14,11.8,190.43,190.43,0,0,0-21.7,31.41,178.1,178.1,0,0,0-21.57,61.91c3.48,2.08,8.93,1.46,12.4,1.14,8.16-.74,15.87-1.77,23.35-5.33a67.51,67.51,0,0,0,18.66-13.27A73.64,73.64,0,0,0,236.13,83.85Z"/>
            <g>
              <g>
                <path class="cls-10" d="M183.65,156.07a55.14,55.14,0,0,0,11.47-3.75c7.75-3.54,15-12.13,17.25-20.22,2.92-10.52,0-21.87-4-31.7S199.21,81,193.8,71.82c-5.55-9.43-12.88-17.38-19.51-25.95l-.47.43c-4.85,4.43-9.9,8.61-14.7,13.09C145.47,72.1,132.82,90,128.24,108.23c-3.81,15.15-1.85,32.87,12.56,41.67,6.7,4.08,16.83,7.43,24.73,7.63A78.81,78.81,0,0,0,183.65,156.07Z"/>
                <path class="cls-15" d="M168.05,158.34h0c-.85,0-1.69,0-2.54,0-7.62-.19-17.95-3.37-25.11-7.75-12.82-7.82-17.65-23.72-12.92-42.52,4.16-16.55,15.79-35,31.11-49.23,2.64-2.46,5.41-4.88,8.08-7.21,2.22-1.94,4.44-3.89,6.62-5.88l.47-.43a.83.83,0,0,1,.59-.2.82.82,0,0,1,.56.3c1.89,2.45,3.85,4.86,5.81,7.26,4.8,5.9,9.77,12,13.75,18.77,5.18,8.82,10.55,18.4,14.67,28.69,5.14,12.82,6.44,23.35,4,32.2-2.33,8.4-9.76,17.11-17.67,20.73a55.65,55.65,0,0,1-11.64,3.79A75.7,75.7,0,0,1,168.05,158.34ZM174.19,47c-2.14,1.95-4.31,3.85-6.49,5.76-2.66,2.32-5.42,4.73-8,7.18C144.55,74,133.09,92.15,129,108.43c-6.75,26.82,7.64,38,12.21,40.8,7,4.24,17,7.33,24.34,7.52.83,0,1.67,0,2.5,0a74.6,74.6,0,0,0,15.44-1.48,53.88,53.88,0,0,0,11.31-3.69c7.52-3.44,14.6-11.73,16.82-19.72,2.36-8.51,1.07-18.71-3.93-31.2C203.6,90.5,198.27,81,193.12,72.22c-3.92-6.68-8.85-12.73-13.62-18.58C177.72,51.45,175.93,49.25,174.19,47Z"/>
              </g>
              <path class="cls-11" d="M208.42,100.4c-4-9.93-9.21-19.37-14.62-28.58-5.55-9.43-12.88-17.38-19.51-25.95a2.23,2.23,0,0,0-.22.21c2.23,4.65,4.66,9.21,6.56,14a90.62,90.62,0,0,1,5.26,21.15c1.6,11.9,2.24,25.66-4.47,36.22a.92.92,0,0,1-1.68-.22c-1.51-5.93-1.88-12-2.2-18.09a116.46,116.46,0,0,1-6.19,20.74c-2.18,5.51-5.81,17.12-13.2,17.51-13.61.73-14.44-16.9-14-28.6a57.32,57.32,0,0,0-2,27.61c.18,1-1.2,1.73-1.69.72a61,61,0,0,1-2-49.59,74.47,74.47,0,0,1,7-13.15c-7.87,10.26-14.29,22-17.27,33.84-3.81,15.15-1.85,32.87,12.56,41.67,6.7,4.08,16.83,7.43,24.73,7.63a78.81,78.81,0,0,0,18.12-1.46,55.14,55.14,0,0,0,11.47-3.75c7.75-3.54,15-12.13,17.25-20.22C215.29,121.58,212.35,110.23,208.42,100.4Z"/>
              <path class="cls-11" d="M208.42,100.4c-4-9.93-9.21-19.37-14.62-28.58-.89-1.51-1.83-3-2.8-4.42,5.45,10.14,9.86,21,10.94,32.54,1.72,18.72-5.09,41.45-23.38,50.14-17.51,8.32-40.49.07-48.23-18a42,42,0,0,1-3-19.69c-2.46,14.12.32,29.51,13.43,37.52,6.7,4.08,16.83,7.43,24.73,7.63a78.81,78.81,0,0,0,18.12-1.46,55.14,55.14,0,0,0,11.47-3.75c7.75-3.54,15-12.13,17.25-20.22C215.29,121.58,212.35,110.23,208.42,100.4Z"/>
            </g>
            <g>
              <path class="cls-22" d="M142.6,91.34a50.17,50.17,0,0,1,7.84-15.43l1.32-1.69c3.31-5.3,6.91-10.47,10.66-15.56-14.87,14-28.64,31.72-26.08,52.7A90.82,90.82,0,0,1,142.6,91.34Z"/>
              <path class="cls-22" d="M262.47,40.34c-5.28,1.7-10.22,4.87-14.79,7.92-4.37,2.92-9.57,6.25-12.44,10.8C239.19,56.76,254.77,46.56,262.47,40.34Z"/>
              <path class="cls-22" d="M100.15,78.29c.53-5,1.1-9.92,1.22-15a53,53,0,0,0,.16-6.53c-5.46,16.57-7.94,34.43.2,50.55A98.24,98.24,0,0,1,100.15,78.29Z"/>
              <path class="cls-22" d="M31.3,121.73a63.63,63.63,0,0,1,8.39.42,133.49,133.49,0,0,0,15,.92c7.27,0,14.54,0,21.81.15-15.15-6.71-33.15-6.07-48-1.55C29.46,121.65,30.38,121.8,31.3,121.73Z"/>
            </g>
          </g>
          <path class="cls-23" d="M275,149.49c-8.71-6-16.29-14.62-25.93-19.22-2.51-1.19-6.15-4.33-9.26-2.81-4.88,2.38-10.73,9.71-16.76,8.61-7.05-2.31-14.27-4.17-21.43-4.46-9.48-.39-17.64,1.72-25.4,7.19a36.63,36.63,0,0,0-4.63,4c-3.13,4.15-5.72,10-4.42,14.92,1.35,5.09,5.71,8.28,9.95,11a51.82,51.82,0,0,0,10.58,5A86.8,86.8,0,0,0,206.74,176a117.75,117.75,0,0,0,38-5.15c11.9-3.68,21.2-11.46,29.91-20.07C274.86,150.55,275.41,149.8,275,149.49Z"/>
          <path class="cls-8" d="M230.74,134.88c2.94-1.59,8.46-6.48,11.4-5.93,3.5.66,8.05,4,11,6,6.31,4.22,12,9.58,17.87,14.32.07.05.11.1.17.15-12.24-.4-22.33-4.22-33.95-8.33-3.82-1.35-7.76-2.82-11.77-4.19A16.67,16.67,0,0,0,230.74,134.88Z"/>
          <path class="cls-9" d="M251.92,141.86a77.45,77.45,0,0,0-17.79-9.2,40.36,40.36,0,0,1-3.39,2.22,16.67,16.67,0,0,1-5.31,2c4,1.37,7.95,2.84,11.77,4.19,9.33,3.31,17.68,6.42,26.95,7.72A68.51,68.51,0,0,1,251.92,141.86Z"/>
          <path class="cls-10" d="M267.54,155.78a79.71,79.71,0,0,1-12.4,8.79c-14.71,8.53-33.43,9.3-50,8.94-8.14-.18-17.46-1.34-24.81-5-3.77-1.91-8.69-4.42-11.5-8a22.14,22.14,0,0,1-.25-9.22c.52-3.18,2.74-5.32,3.8-8a42.49,42.49,0,0,1,18.47-9.34c10-2.12,20.59,1,30.09,3.94,16.56,5.06,33.32,14.17,51,12.59C272.84,152.4,269.59,154,267.54,155.78Z"/>
          <path class="cls-11" d="M234.18,167.05A100.42,100.42,0,0,1,197,163.29c-8.53-2.52-16.88-6.52-20.57-15.12a.71.71,0,0,1,.6-1c4.41,0,9.1-.45,13.47.25,3.71.58,7.56,1.74,11.37,1.71-7.24-3.07-15-5.46-22.93-4.39-.71.09-1.31-.9-.54-1.27,7.53-3.58,15.16-6.86,23.44-8.18a38,38,0,0,1,8.9-.28c-6.57-1.58-13.36-2.45-19.89-1.06a42.49,42.49,0,0,0-18.47,9.34c-1.06,2.73-3.28,4.87-3.8,8a22.14,22.14,0,0,0,.25,9.22c2.81,3.54,7.73,6.05,11.5,8,7.35,3.7,16.67,4.86,24.81,5,16.56.36,35.28-.41,50-8.94l1.35-.82A172,172,0,0,1,234.18,167.05Z"/>
          <path class="cls-22" d="M256,160.36c-14.46,5.92-31,7.66-46.55,6.68-.17,0-.39.39-.19.41,15.21,1.49,32.81.46,46.74-6.46C256.21,160.87,256.4,160.18,256,160.36Z"/>
          <g>
            <path class="cls-22" d="M227.43,136.42s0,0,0,0l.34.34s0,0,0,0Z"/>
            <path class="cls-22" d="M171.16,50.88c-16.07,19.87-32.1,48.88-25.14,75.46.12.45.77-.1.7-.43C140.2,98.6,157.46,72.7,171.54,51.07,171.76,50.73,171.37,50.63,171.16,50.88Z"/>
            <path class="cls-22" d="M172,53.34c-5.06,12.85-7.44,25.35-9.05,39.06,0,.4.46,0,.5-.18,2.62-13.22,5.33-26,9.13-38.93C172.69,52.78,172.08,53,172,53.34Z"/>
            <path class="cls-22" d="M162.71,68.52c-7.08,17.11-13.13,33.59-10.8,52.4.05.41.63-.06.64-.31.23-7.32-.05-14.44,1-21.72,1.6-10.57,5.94-20.44,9.55-30.41C163.29,68.1,162.81,68.29,162.71,68.52Z"/>
            <path class="cls-22" d="M175,51.09c-.07-.36-.54.08-.52.32,1.08,13,1.24,26.16,1.84,39.22,0,.33.51,0,.52-.25C177.34,77.43,177.43,63.86,175,51.09Z"/>
            <path class="cls-22" d="M179.46,60.27c-.1-.22-.48.16-.39.35,5.84,14.1,9,29.57,11.19,44.62.05.37.59-.07.55-.33C189,89.76,185.82,74.21,179.46,60.27Z"/>
            <path class="cls-22" d="M189.3,74.6c-.14-.28-.62.21-.51.45,1.88,4.29,2.56,9,4.13,13.45.14.41.87-.25.78-.57C192.46,83.49,191.34,78.73,189.3,74.6Z"/>
            <path class="cls-22" d="M115.84,117.76c-10.62-21.72-13.73-44-12.22-67.91,0-.33-.4-.06-.43.15-3,22.9-1.11,48.52,11.94,68.39C115.38,118.77,116,118.09,115.84,117.76Z"/>
            <path class="cls-22" d="M113.17,81.94c-2.62-6.66-4.24-13.64-6.8-20.29-.09-.24-.48.16-.41.36,2.26,6.83,3.44,13.91,6.66,20.42C112.77,82.74,113.28,82.21,113.17,81.94Z"/>
            <path class="cls-22" d="M105.5,50.38c-.14-.18-.54.25-.42.42,8.78,12.84,15.08,28.22,20.67,42.65.11.28.59-.17.53-.39C122.15,78.41,115.08,62.34,105.5,50.38Z"/>
            <path class="cls-22" d="M122.22,71.18a30.69,30.69,0,0,0-6.9-9.41c-.17-.16-.52.28-.37.46a68.09,68.09,0,0,1,6.56,9.57C121.75,72.2,122.37,71.51,122.22,71.18Z"/>
            <path class="cls-22" d="M130.43,23.37c-2.2,8.85-4.37,17-4.33,26.23,0,.76,1.19-.17,1.2-.74.06-9,2.09-16.88,3.63-25.6C131,22.89,130.48,23.16,130.43,23.37Z"/>
            <path class="cls-22" d="M133.48,26.67c-.08-.31-.49.06-.46.27,2.46,13.53,4.5,26.84,8.07,40.17.16.58,1-.14.89-.55C139.36,53.38,137,39.6,133.48,26.67Z"/>
            <path class="cls-22" d="M140.63,38.61c-.85-2.6-1.91-5.12-2.83-7.7-.09-.25-.53.18-.46.41.84,2.63,1.77,5.23,2.69,7.83C140.14,39.48,140.72,38.92,140.63,38.61Z"/>
            <path class="cls-22" d="M134.52,20.65c-.24-.18-.69.37-.46.58,10.61,9.15,17.32,23.37,22.3,36.25.15.39.82-.24.74-.54C153.49,43.38,145.69,29.35,134.52,20.65Z"/>
            <path class="cls-22" d="M206.94,28.4c-6.89,7.25-13.31,13.9-17.8,23-.35.7.43.71.72.19,4.94-8.56,11-15.46,17.4-22.91C207.54,28.33,207.22,28.1,206.94,28.4Z"/>
            <path class="cls-22" d="M205.16,33.65c-2.62,3.93-4.33,8.39-6.26,12.67-2.62,5.81-5.51,11.63-7.16,17.8-.25.93.84.48,1-.09,3.66-10.13,7.77-20.73,12.8-30.27C205.81,33.35,205.35,33.36,205.16,33.65Z"/>
            <path class="cls-22" d="M209.09,34.49a54.9,54.9,0,0,1-2.28,11.32c-.14.5.48.28.58-.05a48.79,48.79,0,0,0,2.2-11.46C209.61,33.92,209.11,34.24,209.09,34.49Z"/>
            <path class="cls-22" d="M225,51.94c-.1-.28-.6.17-.54.4,3.11,10.76,3.15,22.89,2.76,34,0,.71.86.11.9-.32C229.4,74.84,228.75,62.59,225,51.94Z"/>
            <path class="cls-22" d="M222,60c-.54,5.72-2.06,11.27-3.12,16.91-.08.39.48.11.53-.13a88.3,88.3,0,0,0,3.12-17C222.57,59.42,222,59.76,222,60Z"/>
            <path class="cls-22" d="M221.3,50.9c-8.53,6.62-15.33,14.37-19.83,24.25-.32.7.6.45.84.07,2.54-4.12,4.74-8.4,7.69-12.25,3.29-4.3,7.65-7.86,11.54-11.61C221.83,51.08,221.73,50.57,221.3,50.9Z"/>
            <path class="cls-22" d="M213.45,62.53c-2.44,3.1-4.56,6.43-6.71,9.73-.35.55.31.77.63.31,2.24-3.18,4.16-6.58,6.49-9.71C214.17,62.44,213.78,62.11,213.45,62.53Z"/>
            <path class="cls-22" d="M268.15,39.87c-7.42,13.87-18.8,25.53-26.26,39.45-.41.78.46.75.81.21,8.37-13,19.77-25.36,25.89-39.63C268.73,39.54,268.27,39.64,268.15,39.87Z"/>
            <path class="cls-22" d="M264.88,51.55c-2.43,9.86-8.19,18.79-12.71,27.8-.3.6.35.59.62.16,5.15-8.44,10.52-18.34,12.48-28.1C265.32,51.11,264.92,51.38,264.88,51.55Z"/>
            <path class="cls-22" d="M267.74,56.4c-1,19.31-10.59,37.86-20.72,53.84-.28.44.23.59.5.24,11.5-15.33,20.31-34.83,20.75-54.26C268.27,55.82,267.76,56.14,267.74,56.4Z"/>
            <path class="cls-22" d="M255.31,50.59c-2,1.84-4,3.66-6.05,5.49-.3.27-.16.8.22.45l6-5.55C255.77,50.74,255.65,50.27,255.31,50.59Z"/>
            <path class="cls-22" d="M267.64,153.18c-17.76,3.18-36.13-6.56-53.88-7.1-.23,0-.55.56-.27.58,10.28.93,20.2,4.19,30.25,6.38,7.45,1.62,16.23,3.18,23.69,1C267.72,153.94,268.12,153.11,267.64,153.18Z"/>
            <path class="cls-22" d="M254.84,157.57a95.84,95.84,0,0,1-16.93,1.11c-.25,0-.55.57-.2.57a85.12,85.12,0,0,0,16.88-1C254.9,158.23,255.26,157.49,254.84,157.57Z"/>
            <path class="cls-22" d="M253.1,159.69c-2,.38-4,1-6.06,1.44-.2,0-.46.56-.17.5,2-.37,4-1,6-1.32C253.15,160.26,253.45,159.63,253.1,159.69Z"/>
            <path class="cls-22" d="M316.69,91.27c-11.9,2.28-22.56,7.66-33,13.57-.31.18-.4.85.07.59a132.42,132.42,0,0,1,23-10.29,130.83,130.83,0,0,0-37.1,23.44c-.25.22-.14.66.18.37,12.56-11,27.43-17.53,42.24-24.88a1,1,0,0,0,.43-.68c1.29-.35,2.6-.69,3.92-1C316.84,92.3,317.32,91.15,316.69,91.27Z"/>
            <path class="cls-13" d="M100.42,178.51a197.51,197.51,0,0,1-27.34-5.7c-8.07-2.27-16.28-2.51-24,1.08-.25.12-.5.8-.09.62,9.34-3.93,18.74-1.76,28,1a92.93,92.93,0,0,0,22.92,4C100.34,179.59,100.94,178.58,100.42,178.51Z"/>
            <path class="cls-13" d="M113.09,178.42c-14.62,3.4-28.91,1.34-43.38-1.77-.29-.06-.69.56-.36.63,14.23,3.32,29.14,6.93,43.58,2.38C113.47,179.48,114,178.22,113.09,178.42Z"/>
            <path class="cls-13" d="M113.31,180.41c-5.88,1.42-11.83,3.58-17.93,3.22-.18,0-.45.46-.22.47,6,.62,12.21-1.19,18-2.75C113.61,181.23,114,180.24,113.31,180.41Z"/>
          </g>
        </g>
      </g>
    </g>
  </g>
</svg>
