<svg id="Layer_1" data-name="Layer 1" xmlns="http://www.w3.org/2000/svg" xmlns:xlink="http://www.w3.org/1999/xlink" width="370.02" height="191.8" viewBox="0 0 370.02 191.8">
  <defs>
    <style>
      .cls-1 {
        fill: #ff0;
      }

      .cls-2 {
        fill: url(#linear-gradient);
      }

      .cls-3 {
        fill: #a31e22;
      }

      .cls-4 {
        fill: #c12530;
      }

      .cls-5 {
        fill: #7c181f;
      }

      .cls-6 {
        fill: url(#linear-gradient-2);
      }

      .cls-7 {
        fill: #4f4f4e;
      }

      .cls-8 {
        fill: #3f2311;
      }

      .cls-9 {
        fill: #686867;
      }

      .cls-10 {
        fill: #593315;
      }
    </style>
    <linearGradient id="linear-gradient" x1="-384.62" y1="10587.66" x2="-336.87" y2="10587.66" gradientTransform="matrix(0.05, 0.73, -1.04, 0.07, 11049.77, -370.67)" gradientUnits="userSpaceOnUse">
      <stop offset="0" stop-color="#404041"/>
      <stop offset="0.11" stop-color="#464647"/>
      <stop offset="0.26" stop-color="#555657"/>
      <stop offset="0.42" stop-color="#6f7073"/>
      <stop offset="0.51" stop-color="#808184"/>
      <stop offset="0.7" stop-color="#6a6b6d"/>
      <stop offset="1" stop-color="#404041"/>
    </linearGradient>
    <linearGradient id="linear-gradient-2" x1="171.02" y1="4401.02" x2="218.77" y2="4401.02" gradientTransform="matrix(-0.05, 0.73, 1.04, 0.07, -4236.07, -370.67)" xlink:href="#linear-gradient"/>
  </defs>
  <g>
    <path class="cls-1" d="M323.5,38.58l-.45.44c-.24-4.58-2.41-10.65-10.83-15.19a73.7,73.7,0,0,0-16.54-5.89c-2.3-.57-4.76-1.13-7.31-1.65-4-.82-8.38-1.6-13.05-2.31L272,13.49c-3.53-.51-7.23-1-11-1.41-2.05-.23-4-.44-5.88-.63-20.85-2.11-45-3.23-69.82-3.23-40.5,0-78,2.94-103,8-1.07.21-1.88.39-2.62.55-8.34,1.83-15,3.9-19.69,6.18a27.18,27.18,0,0,0-7.37,4.93,16.64,16.64,0,0,0-4.68,8.19,14.14,14.14,0,0,0-.4,2.21c0,.35-.2,2.39-.28,5.76-.21-.23-.42-.45-.64-.66a6.06,6.06,0,0,0-1.79-1.16,46.26,46.26,0,0,0-16-3.37c-10.21,0-17,5.35-18.61,14.58,0,0,0,.12,0,.15-3,17.16-3,26,4.77,32.82C22,92.77,32.92,96.63,44.78,97h.29a8.38,8.38,0,0,0,7.6-4.9c.77,3,1.62,5.95,2.53,8.79a131.27,131.27,0,0,0,15.63,32.84,105.79,105.79,0,0,0,39.33,35.41c18.31,9.54,40.39,14.39,65.63,14.39,3,0,6.17-.08,9.3-.21,3.14.13,6.27.21,9.31.21,24.75,0,46.48-4.67,64.58-13.86a105.66,105.66,0,0,0,39.24-34.3c9.21-13.25,16-28.87,20.12-46.55a8.2,8.2,0,0,0,6.6,3.33h.3c11.86-.42,22.77-4.28,29.95-10.6,7.78-6.85,7.75-15.66,4.78-32.73,0,0,0-.11,0-.14-1.62-9.32-8.41-14.67-18.63-14.67a46.07,46.07,0,0,0-16,3.37A6,6,0,0,0,323.5,38.58Z"/>
    <g>
      <g>
        <g>
          <path class="cls-2" d="M67,67.44,66,54.7,43.36,51.27s-11.94,4-10.91,18.1A18,18,0,0,0,45.9,86.1l22-5.92ZM38.14,69.05c-.62-8.48,3.86-12.44,6.32-14l16.07,2.43.76,10.23L62,78,46.44,82.18C43.85,81,38.76,77.49,38.14,69.05Z"/>
          <path class="cls-3" d="M47,86.43s-5.34-10-5.54-17.18S46,51.86,46,51.86s-4.8-3.37-12.51-2.26c0,0-8.87,5.9-8.47,20s9.6,19.61,9.6,19.61C42.4,90,47,86.43,47,86.43Z"/>
        </g>
        <g>
          <path class="cls-4" d="M42.41,47.8S18.89,37.92,16,54.61,13.57,77.35,18.79,82,40.08,91,45.93,89.78,49.16,54.15,42.41,47.8Z"/>
          <path class="cls-3" d="M18.79,82c5.23,4.6,14.36,8.68,26.2,9.1,3.78.13,4.51-8.28,3.16-22.18-3.3,2-9.45,1.74-19.22-1.66C14.38,62.15,16,54.61,16,54.61,13.07,71.29,13.57,77.35,18.79,82Z"/>
          <path class="cls-5" d="M44.2,53.65S27,47.49,25.68,54.73s12.62,8.79,17.83,9.16c3.05.22,3.67.75,3.67.75Z"/>
        </g>
      </g>
      <g>
        <g>
          <path class="cls-6" d="M302.12,75.32l22,5.93a18,18,0,0,0,13.45-16.74c1-14.13-10.9-18.09-10.9-18.09L304,49.84,303,62.58Zm21.45,2L308,73.13l.74-10.23.76-10.23,16.06-2.43c2.47,1.52,6.94,5.48,6.32,13.95S326.16,76.11,323.57,77.33Z"/>
          <path class="cls-3" d="M323,81.57s5.35-10,5.55-17.17S324,47,324,47s4.8-3.38,12.51-2.26c0,0,8.88,5.9,8.48,20s-9.6,19.61-9.6,19.61C327.62,85.15,323,81.57,323,81.57Z"/>
        </g>
        <g>
          <path class="cls-4" d="M327.61,43s23.51-9.88,26.42,6.8,2.42,22.74-2.81,27.34-21.29,9.1-27.14,7.83S320.85,49.3,327.61,43Z"/>
          <path class="cls-3" d="M351.22,77.09c-5.22,4.6-14.35,8.69-26.19,9.1-3.79.14-4.52-8.28-3.16-22.17,3.3,2,9.45,1.73,19.22-1.66C355.63,57.3,354,49.75,354,49.75,357,66.44,356.45,72.49,351.22,77.09Z"/>
          <path class="cls-5" d="M325.81,48.8s17.19-6.17,18.53,1.07-12.62,8.8-17.83,9.17c-3.06.21-3.67.75-3.67.75Z"/>
        </g>
      </g>
      <path class="cls-7" d="M242.47,164.87a117.77,117.77,0,0,1-12.19,3.6,138.24,138.24,0,0,1-15.79,2.8c-9,1.07-18.73,3.39-29.4,2.9-29.21,1.35-51.79-5.61-69.22-14.36-66-33.09-58.29-119.9-58.29-119.9h0c0,2.89,3.88,5.65,10.86,8.13A101.39,101.39,0,0,0,78.54,51c1.3.3,2.64.61,4,.9,4.16.89,8.78,1.72,13.8,2.49,1.57.24,3.18.47,4.82.69,22.46,3.11,51.86,5,84,5,17.83,0,34.82-.57,50.23-1.61,6.71-.46,13.12-1,19.17-1.62,7.63-.78,14.7-1.68,21.08-2.69l3.06-.5c4.78-.82,9.14-1.69,13-2.62h0c1.25-.3,2.44-.6,3.59-.91,10-2.68,16.15-5.76,17.29-9C313.34,51.88,316.21,138.54,242.47,164.87Z"/>
      <path class="cls-8" d="M316.86,40.18c-.15-2.52-1.56-4.59-3.43-5a3.18,3.18,0,0,0-.74-.09,4.23,4.23,0,0,0-3.7,3c-.37.47-2.93,3.12-14.42,6.21-1.08.29-2.22.58-3.5.88l-.14,0c-3.79.89-8.05,1.75-12.68,2.54-23.92,4.05-57.82,6.38-93,6.38-30.8,0-60.49-1.76-83.59-5-1.63-.22-3.24-.46-4.79-.69-5-.77-9.59-1.6-13.61-2.46-1.23-.25-2.48-.53-4-.88-13.1-3.14-16.76-6-17.63-6.87-.43-2.45-2.09-4.28-4.07-4.28h0c-2.12,0-3.91,2.11-4.16,4.91A158.8,158.8,0,0,0,54.5,69.64,162,162,0,0,0,60.92,99.1a124.81,124.81,0,0,0,14.9,31.34,99.83,99.83,0,0,0,37.11,33.43c17.45,9.09,38.6,13.7,62.86,13.7,3,0,6.16-.07,9.3-.21,3.14.14,6.27.21,9.31.21,23.8,0,44.62-4.44,61.86-13.2a99.53,99.53,0,0,0,37-32.37C318.78,95.32,317.4,49.08,316.86,40.18ZM194.4,172c-3,0-6.61.55-9.79.4-3.18.15-5.8-.4-8.82-.4C45.84,172,57.58,39.5,57.58,39.5h0c0,4.09,7.71,7.89,21,11.06,1.3.31,2.64.61,4,.9,4.17.89,8.79,1.72,13.81,2.5l4.82.69c22.46,3.1,51.86,5,84,5,37,0,70.24-2.48,93.55-6.43,4.78-.81,9.14-1.69,13-2.61h0c1.25-.29,2.44-.59,3.59-.9,10-2.69,16.15-5.77,17.29-9.06C313.46,53.44,317.3,172,194.4,172Z"/>
      <ellipse class="cls-9" cx="185.23" cy="39.91" rx="127.65" ry="20.13"/>
      <path class="cls-10" d="M309.36,29.11a67.6,67.6,0,0,0-15.13-5.35c-2.22-.55-4.59-1.09-7.06-1.6-3.87-.79-8.18-1.55-12.82-2.26h-.06l-.76-.11h0l-2.4-.35c-3.48-.5-7.13-1-10.85-1.39-2-.23-3.93-.43-5.81-.62-20.66-2.09-44.59-3.2-69.22-3.2-40.11,0-77.23,2.89-101.83,7.93-1,.2-1.81.37-2.53.53C73,24.41,66.79,26.33,62.49,28.4a21.37,21.37,0,0,0-5.77,3.82,10.55,10.55,0,0,0-3.32,7.69c0,6.81,6.15,10,8.17,11.05A74.53,74.53,0,0,0,77.8,56.44c1.55.36,2.85.65,4.12.92,4.13.88,8.84,1.73,14,2.52,1.58.24,3.22.48,4.87.71,23.39,3.22,53.38,5,84.46,5,35.54,0,69.83-2.36,94.08-6.47,4.83-.82,9.28-1.72,13.24-2.65l.15,0c1.28-.3,2.44-.59,3.54-.89A60,60,0,0,0,310,50.37c1.75-1,7.1-4.06,7.1-10.46C317.07,33.27,311.27,30.13,309.36,29.11Zm-14,21c-1.15.31-2.34.61-3.59.91h0c-3.89.92-8.25,1.8-13,2.62-23.31,4-56.59,6.42-93.55,6.42-32.17,0-61.57-1.87-84-5-1.64-.23-3.25-.46-4.82-.7-5-.77-9.64-1.6-13.81-2.49-1.39-.29-2.73-.6-4-.9-13.25-3.18-21-7-21-11.06,0-4.39,8.89-8.44,24-11.75.81-.18,1.63-.35,2.48-.52,23.34-4.78,60-7.86,101.19-7.86,25.38,0,49,1.17,68.9,3.18,2,.2,3.89.41,5.77.62q5.63.65,10.76,1.37l2.39.35.82.12c4.56.7,8.79,1.45,12.66,2.24,2.46.5,4.77,1,6.92,1.56,12.32,3.1,19.44,6.76,19.44,10.69C312.89,43.62,306.51,47.1,295.4,50.08Z"/>
    </g>
  </g>
</svg>
