<svg xmlns="http://www.w3.org/2000/svg" xmlns:xlink="http://www.w3.org/1999/xlink" width="359" height="371" viewBox="0 0 359 371">
  <defs>
    <style>
      .cls-1 {
        fill: none;
      }

      .cls-2 {
        isolation: isolate;
      }

      .cls-3 {
        fill: #ff0;
      }

      .cls-4 {
        fill: #95e4fc;
      }

      .cls-5 {
        clip-path: url(#clip-path);
      }

      .cls-6 {
        fill: #79b9d3;
      }

      .cls-7 {
        fill: #087016;
      }

      .cls-7, .cls-9 {
        opacity: 0.9;
      }

      .cls-8 {
        fill: url(#linear-gradient);
      }

      .cls-10 {
        fill: #099616;
      }

      .cls-11 {
        fill: url(#linear-gradient-2);
      }

      .cls-12 {
        fill: #36d4ff;
      }

      .cls-13, .cls-16, .cls-22 {
        opacity: 0.4;
      }

      .cls-13, .cls-24, .cls-25, .cls-26, .cls-27, .cls-28, .cls-29, .cls-34, .cls-35, .cls-49, .cls-53 {
        mix-blend-mode: multiply;
      }

      .cls-14 {
        fill: url(#linear-gradient-3);
      }

      .cls-15 {
        fill: url(#linear-gradient-4);
      }

      .cls-16 {
        fill: #ffffd7;
      }

      .cls-16, .cls-54, .cls-59 {
        mix-blend-mode: screen;
      }

      .cls-17, .cls-20, .cls-26 {
        opacity: 0.5;
      }

      .cls-18 {
        fill: #fff;
      }

      .cls-19 {
        fill: #fff8d2;
        opacity: 0.3;
        mix-blend-mode: overlay;
      }

      .cls-20, .cls-21 {
        fill: #fefcf7;
      }

      .cls-21 {
        opacity: 0.46;
      }

      .cls-22 {
        fill: url(#radial-gradient);
      }

      .cls-23 {
        clip-path: url(#clip-path-2);
      }

      .cls-24, .cls-25, .cls-27, .cls-28, .cls-29 {
        opacity: 0.8;
      }

      .cls-24 {
        fill: url(#radial-gradient-2);
      }

      .cls-25 {
        fill: url(#radial-gradient-3);
      }

      .cls-27 {
        fill: url(#linear-gradient-5);
      }

      .cls-28 {
        fill: url(#linear-gradient-6);
      }

      .cls-29 {
        fill: url(#linear-gradient-7);
      }

      .cls-30 {
        fill: url(#radial-gradient-4);
      }

      .cls-31 {
        fill: #563822;
      }

      .cls-32 {
        fill: url(#radial-gradient-5);
      }

      .cls-33 {
        fill: url(#radial-gradient-6);
      }

      .cls-34, .cls-35 {
        opacity: 0.6;
      }

      .cls-34 {
        fill: url(#radial-gradient-7);
      }

      .cls-36 {
        fill: url(#radial-gradient-8);
      }

      .cls-37 {
        fill: url(#linear-gradient-8);
      }

      .cls-38 {
        fill: url(#linear-gradient-9);
      }

      .cls-39 {
        fill: url(#linear-gradient-10);
      }

      .cls-40 {
        fill: url(#linear-gradient-11);
      }

      .cls-41 {
        opacity: 0.7;
      }

      .cls-42 {
        fill: url(#linear-gradient-12);
      }

      .cls-43 {
        fill: url(#linear-gradient-13);
      }

      .cls-44 {
        fill: url(#linear-gradient-14);
      }

      .cls-45 {
        fill: url(#linear-gradient-15);
      }

      .cls-46 {
        fill: url(#linear-gradient-16);
      }

      .cls-47 {
        fill: url(#linear-gradient-17);
      }

      .cls-48 {
        fill: #11b734;
      }

      .cls-49, .cls-59 {
        opacity: 0.2;
      }

      .cls-50 {
        fill: url(#radial-gradient-9);
      }

      .cls-51 {
        fill: #17e239;
      }

      .cls-52 {
        fill: url(#radial-gradient-10);
      }

      .cls-53, .cls-54 {
        opacity: 0.1;
      }

      .cls-55 {
        fill: url(#radial-gradient-11);
      }

      .cls-56 {
        fill: url(#radial-gradient-12);
      }

      .cls-57 {
        fill: url(#radial-gradient-13);
      }

      .cls-58 {
        fill: url(#radial-gradient-14);
      }

      .cls-60 {
        fill: url(#radial-gradient-15);
      }

      .cls-61 {
        fill: url(#radial-gradient-16);
      }

      .cls-62 {
        fill: url(#radial-gradient-17);
      }

      .cls-63 {
        fill: url(#radial-gradient-18);
      }
    </style>
    <clipPath id="clip-path">
      <path class="cls-1" d="M318.83,353.91H31.3a13.67,13.67,0,0,1-13.67-13.67V39.68A22.48,22.48,0,0,1,40.11,17.2H318.83A22.48,22.48,0,0,1,341.3,39.68V331.44A22.47,22.47,0,0,1,318.83,353.91Z"/>
    </clipPath>
    <linearGradient id="linear-gradient" x1="223.92" y1="6.11" x2="215.42" y2="181.13" gradientUnits="userSpaceOnUse">
      <stop offset="0" stop-color="#71cd37"/>
      <stop offset="0.56" stop-color="#3a9640"/>
      <stop offset="0.8" stop-color="#035c56"/>
    </linearGradient>
    <linearGradient id="linear-gradient-2" x1="129.29" y1="53.39" x2="129.29" y2="170.62" xlink:href="#linear-gradient"/>
    <linearGradient id="linear-gradient-3" x1="1.39" y1="318.68" x2="127.3" y2="321.48" gradientUnits="userSpaceOnUse">
      <stop offset="0" stop-color="#18779e"/>
      <stop offset="0.24" stop-color="#85e0d9"/>
      <stop offset="0.53" stop-color="#d0f3f0"/>
      <stop offset="0.59" stop-color="#cbf0ee"/>
      <stop offset="0.66" stop-color="#bee7e8"/>
      <stop offset="0.74" stop-color="#a7d7de"/>
      <stop offset="0.81" stop-color="#87c2d0"/>
      <stop offset="0.89" stop-color="#5ea6bd"/>
      <stop offset="0.97" stop-color="#2d85a7"/>
      <stop offset="1" stop-color="#18779e"/>
    </linearGradient>
    <linearGradient id="linear-gradient-4" x1="-3.46" y1="173.61" x2="427.05" y2="183.2" xlink:href="#linear-gradient-3"/>
    <radialGradient id="radial-gradient" cx="2739.86" cy="-585.77" r="114.22" gradientTransform="matrix(0.6, -0.01, 0.02, 0.41, -1605.44, 454.85)" gradientUnits="userSpaceOnUse">
      <stop offset="0" stop-color="#d0f3f0"/>
      <stop offset="0.03" stop-color="#c2efec"/>
      <stop offset="0.12" stop-color="#a1e7e2"/>
      <stop offset="0.19" stop-color="#8ce2db"/>
      <stop offset="0.24" stop-color="#85e0d9"/>
      <stop offset="1" stop-color="#18779e"/>
    </radialGradient>
    <clipPath id="clip-path-2">
      <rect class="cls-1" x="6.48" y="164.76" width="342.59" height="31.31"/>
    </clipPath>
    <radialGradient id="radial-gradient-2" cx="2602.23" cy="-433.31" r="629.68" gradientTransform="translate(-1478.8 488.03) scale(0.6 0.41)" gradientUnits="userSpaceOnUse">
      <stop offset="0" stop-color="#d0f3f0"/>
      <stop offset="0.09" stop-color="#beefeb"/>
      <stop offset="0.32" stop-color="#95e4de"/>
      <stop offset="0.44" stop-color="#85e0d9"/>
      <stop offset="1" stop-color="#18779e"/>
    </radialGradient>
    <radialGradient id="radial-gradient-3" cx="2602.25" cy="-433.31" r="629.65" xlink:href="#radial-gradient-2"/>
    <linearGradient id="linear-gradient-5" x1="-10.43" y1="170.79" x2="-9.62" y2="163.65" gradientTransform="matrix(1, 0, 0, 1, 0, 0)" xlink:href="#radial-gradient-2"/>
    <linearGradient id="linear-gradient-6" x1="176.74" y1="188.64" x2="177.74" y2="179.95" gradientTransform="matrix(1, 0, 0, 1, 0, 0)" xlink:href="#radial-gradient-2"/>
    <linearGradient id="linear-gradient-7" x1="362.16" y1="200.51" x2="362.93" y2="193.74" gradientTransform="matrix(1, 0, 0, 1, 0, 0)" xlink:href="#radial-gradient-2"/>
    <radialGradient id="radial-gradient-4" cx="2698.67" cy="-699.98" fx="2817.731448299279" r="289.39" gradientTransform="translate(-1560.54 488.03) scale(0.62 0.41)" gradientUnits="userSpaceOnUse">
      <stop offset="0" stop-color="#e3ca96"/>
      <stop offset="0.03" stop-color="#e0c58c"/>
      <stop offset="0.07" stop-color="#d9b671"/>
      <stop offset="0.13" stop-color="#cd9f45"/>
      <stop offset="0.14" stop-color="#c99737"/>
      <stop offset="0.32" stop-color="#a76a28"/>
      <stop offset="0.42" stop-color="#af7325"/>
      <stop offset="0.59" stop-color="#c38c1c"/>
      <stop offset="1" stop-color="#a76a28"/>
    </radialGradient>
    <radialGradient id="radial-gradient-5" cx="2698.67" cy="-699.98" fx="2817.731492676375" r="289.39" gradientTransform="translate(-1560.54 488.03) scale(0.62 0.41)" gradientUnits="userSpaceOnUse">
      <stop offset="0" stop-color="#e3ca96"/>
      <stop offset="0.03" stop-color="#e0c58c"/>
      <stop offset="0.07" stop-color="#d9b671"/>
      <stop offset="0.13" stop-color="#cd9f45"/>
      <stop offset="0.14" stop-color="#c99737"/>
      <stop offset="0.3" stop-color="#ab6f2a"/>
      <stop offset="0.32" stop-color="#a76a28"/>
      <stop offset="0.59" stop-color="#c38c1c"/>
      <stop offset="1" stop-color="#a76a28"/>
    </radialGradient>
    <radialGradient id="radial-gradient-6" cx="2516.76" cy="-714.05" fx="2537.1501124494393" r="49.56" xlink:href="#radial-gradient-5"/>
    <radialGradient id="radial-gradient-7" cx="2699.32" cy="-707.81" fx="2707.031313975745" r="18.74" xlink:href="#radial-gradient-5"/>
    <radialGradient id="radial-gradient-8" cx="2698.68" cy="-699.98" fx="2817.7337191723586" r="289.39" xlink:href="#radial-gradient-5"/>
    <linearGradient id="linear-gradient-8" x1="166.9" y1="176.14" x2="166.51" y2="189.43" gradientUnits="userSpaceOnUse">
      <stop offset="0" stop-color="#e3ca96"/>
      <stop offset="0.07" stop-color="#dbbb7a"/>
      <stop offset="0.15" stop-color="#d5ae62"/>
      <stop offset="0.25" stop-color="#cfa44f"/>
      <stop offset="0.36" stop-color="#cc9c41"/>
      <stop offset="0.49" stop-color="#ca9839"/>
      <stop offset="0.76" stop-color="#c99737"/>
    </linearGradient>
    <linearGradient id="linear-gradient-9" x1="93.82" y1="176.36" x2="93.43" y2="189.55" xlink:href="#linear-gradient-8"/>
    <linearGradient id="linear-gradient-10" x1="-4052.18" y1="-230.78" x2="-4052.56" y2="-217.58" gradientTransform="matrix(-0.98, -0.19, -0.19, 0.98, -3862.58, -374.57)" xlink:href="#linear-gradient-8"/>
    <linearGradient id="linear-gradient-11" x1="-4029.94" y1="-228.85" x2="-4030.33" y2="-215.54" gradientTransform="matrix(-0.98, -0.19, -0.19, 0.98, -3862.58, -374.57)" gradientUnits="userSpaceOnUse">
      <stop offset="0" stop-color="#e3ca96"/>
      <stop offset="0.1" stop-color="#e0c58c"/>
      <stop offset="0.28" stop-color="#d9b671"/>
      <stop offset="0.5" stop-color="#cd9f45"/>
      <stop offset="0.57" stop-color="#c99737"/>
    </linearGradient>
    <linearGradient id="linear-gradient-12" x1="-3979.96" y1="-219.38" x2="-3980.35" y2="-206.06" gradientTransform="matrix(-0.98, -0.19, -0.19, 0.98, -3862.58, -374.57)" gradientUnits="userSpaceOnUse">
      <stop offset="0" stop-color="#e3ca96"/>
      <stop offset="0.03" stop-color="#dfc388"/>
      <stop offset="0.12" stop-color="#d7b36b"/>
      <stop offset="0.21" stop-color="#d1a754"/>
      <stop offset="0.31" stop-color="#cc9e44"/>
      <stop offset="0.42" stop-color="#ca993a"/>
      <stop offset="0.57" stop-color="#c99737"/>
    </linearGradient>
    <linearGradient id="linear-gradient-13" x1="-3958.45" y1="-214.65" x2="-3958.79" y2="-202.85" xlink:href="#linear-gradient-12"/>
    <linearGradient id="linear-gradient-14" x1="-4100.24" y1="-242.4" x2="-4100.63" y2="-229.08" xlink:href="#linear-gradient-11"/>
    <linearGradient id="linear-gradient-15" x1="-5327.98" y1="-410.83" x2="-5328.38" y2="-397.27" gradientTransform="matrix(-0.55, -0.16, -0.28, 0.96, -2931.98, -293.63)" xlink:href="#linear-gradient-11"/>
    <linearGradient id="linear-gradient-16" x1="175.31" y1="176.31" x2="174.92" y2="189.59" xlink:href="#linear-gradient-8"/>
    <linearGradient id="linear-gradient-17" x1="-4388.33" y1="175.5" x2="-4388.8" y2="191.62" gradientTransform="matrix(-1, 0, 0, 1, -4269.4, 0)" xlink:href="#linear-gradient-8"/>
    <radialGradient id="radial-gradient-9" cx="2924.02" cy="-797.23" fx="2892.4380954347866" fy="-724.5576205744037" r="468.25" gradientTransform="translate(-1585.01 488.03) scale(0.6 0.41)" gradientUnits="userSpaceOnUse">
      <stop offset="0.33" stop-color="#f6fb7f"/>
      <stop offset="0.39" stop-color="#eaef79"/>
      <stop offset="0.5" stop-color="#c9cd68"/>
      <stop offset="0.65" stop-color="#95984d"/>
      <stop offset="0.82" stop-color="#4d4f28"/>
      <stop offset="1"/>
    </radialGradient>
    <radialGradient id="radial-gradient-10" cx="2924.06" cy="-797.23" fx="2892.4837686137043" fy="-724.5603686785637" r="468.19" gradientTransform="translate(-1585.01 488.03) scale(0.6 0.41)" gradientUnits="userSpaceOnUse">
      <stop offset="0.13" stop-color="#a6cd3a"/>
      <stop offset="0.32" stop-color="#8cb83b"/>
      <stop offset="0.64" stop-color="#59903c"/>
      <stop offset="1" stop-color="#14422f"/>
    </radialGradient>
    <radialGradient id="radial-gradient-11" cx="2911.37" cy="-844.06" fx="2911.3659344891275" fy="-844.0550469637055" r="3.29" xlink:href="#radial-gradient-9"/>
    <radialGradient id="radial-gradient-12" cx="2844.47" cy="-940.54" fx="2844.469630705824" fy="-940.5412648471029" r="160.7" xlink:href="#radial-gradient-9"/>
    <radialGradient id="radial-gradient-13" cx="2975.04" cy="-912.54" r="109.81" gradientTransform="translate(-1585.01 488.03) scale(0.6 0.41)" gradientUnits="userSpaceOnUse">
      <stop offset="0.55" stop-color="#f6fb7f"/>
      <stop offset="0.59" stop-color="#eaef79"/>
      <stop offset="0.66" stop-color="#c9cd68"/>
      <stop offset="0.76" stop-color="#95984d"/>
      <stop offset="0.88" stop-color="#4d4f28"/>
      <stop offset="1"/>
    </radialGradient>
    <radialGradient id="radial-gradient-14" cx="3129.57" cy="-880.85" r="122.11" xlink:href="#radial-gradient-13"/>
    <radialGradient id="radial-gradient-15" cx="2898.09" cy="-744.52" r="108.48" xlink:href="#radial-gradient-13"/>
    <radialGradient id="radial-gradient-16" cx="2898.11" cy="-744.14" r="108.91" xlink:href="#radial-gradient-13"/>
    <radialGradient id="radial-gradient-17" cx="3041.86" cy="-852.54" r="98.46" gradientTransform="matrix(0.6, 0.01, -0.01, 0.41, -1572.64, 504.47)" xlink:href="#radial-gradient-13"/>
    <radialGradient id="radial-gradient-18" cx="3041.86" cy="-850.13" r="101.28" gradientTransform="matrix(0.6, 0.01, -0.01, 0.41, -1572.64, 504.47)" xlink:href="#radial-gradient-13"/>
  </defs>
  <g class="cls-2">
    <g id="Layer_1" data-name="Layer 1">
      <g>
        <path class="cls-3" d="M17.33,16.83c-4.91,5-5.83,12.76-5.7,22.85V340.24A19.7,19.7,0,0,0,31.3,359.92H318.86c22.4-.13,28.52-6.26,28.44-28.48V39.79c.32-8.5-.14-17.13-5.53-22.73-5.1-5.3-12.72-6-18.79-6-1.33,0-2.78.05-4.31.12H39.61C30.14,11.2,22.48,11.62,17.33,16.83Z"/>
        <g>
          <rect class="cls-4" x="17.63" y="17.2" width="323.68" height="336.41" rx="13.53"/>
          <g class="cls-5">
            <g>
              <g>
                <path class="cls-4" d="M-13.51-3.48V159.26q5.8.88,11.63,1.51c51.9,4.46,103.27,3,154.64.74,52.44-2.23,102.73-23.07,155.18-29,24.87-3,49.74-1.49,74.61-3.72a217.65,217.65,0,0,0,33-5.64V-3.48Z"/>
                <g>
                  <path class="cls-6" d="M349.65,99V93.43a33.73,33.73,0,0,1-7.81-7.66c-12.3-16.75-17.48-2.24-20.72,7.81-3.4,10.56-7.77,3-14.24-17.86-5-16.09-15.44-15.25-20.72,10-2.69,12.89-6.27,18.77-11.17,19.66.57.13,1.13.65,1.63,1.69.19-2.4,2.46-3.27,3.1-.8,1.3-2.35,3.38-.5,2.82,4.31a2.76,2.76,0,0,1,4-1.68c-.14-6.65,3.79-4.83,3.93-.88,1.05-1.54,3.37-1,3.8,3.57.14-1.28,1.48-2.53,3,0-1-5.13,1.64-8.41,4-5.17-.51-1.37-.18-5,1.79-4-1.15-4.16,1.14-6.94,2.52-4.38,1.32-4.26,5-.84,3,4.13,1.17-.44,2,.58,2.39,2.6-.07-1.73,1.75-5.09,3.17-1.27-.05-4.12,3.09-3.81,2.92,2.07,0,0,1.9-1.15,1.8,1.4,3.5-2.58,2.86,5.57,2.86,5.57s1.17-.75,1.65,2.37c.06-1,1.55-3,2.54-1-.17-2.36,1.05-6.77,3-3.33-.64-5.17,2.75-5.68,2.42-1.84,1.59-2.06,2.22,3,2.22,3s1-1.7,1.63-.65c-.11-3.16,2-5,3.38-3.52-.57-3.11,3-5.39,4.44-1.89.1-2.23,2.16-4,3.34-1.77-.08-2.21,1.91-6.07,3.24-2.24A6.88,6.88,0,0,1,349.65,99Z"/>
                  <path class="cls-6" d="M69.21,104.16c1.05-2.53,2.61-2.59,3.48-1.4-1.31-8.76,5.07-8.7,4.53,3,2.67-3.93,3,2,.62,7a1.8,1.8,0,0,1,3,.36,2.52,2.52,0,0,1,2-.46c-1.72-4.15,1.79-9,3.79-4.21,0,0,2.87-3.76,2.64,3.84,1.76-2.19,3.39.53,3,3.69,1.22-3.94,3.31-.26,3.3,2,1.11-2.35,3.21-.73,3.38,1.48,1.31-3.61,5-1.65,4.5,1.51,1.29-1.57,3.49,0,3.47,3.22.56-1.1,1.65.5,1.65.5s.49-5.06,2.13-3.13c-.44-3.81,3-3.59,2.47,1.63,1.86-3.62,3.21.68,3.1,3,.94-2,2.48-.11,2.57.84.39-3.16,1.58-2.51,1.58-2.51s-.88-8.09,2.69-5.81c-.17-2.54,1.76-1.56,1.76-1.56-.34-5.86,2.79-6.44,2.86-2.33,1.3-3.93,3.21-.73,3.2,1,.29-2.06,1.12-3.15,2.32-2.81a6.45,6.45,0,0,1-.51-4.33c-6.9,2.6-15.32,1.52-29.11-5.14C86,95.13,81.5,86,64,94.59a19.23,19.23,0,0,1,1.41,6.92C67.32,98,69.39,100.17,69.21,104.16Z"/>
                  <path class="cls-6" d="M136.06,108.71c1.3-2.67,3.67-.1,2.64,4.16,1.93-1.24,2.37,2.42,1.9,3.83,2.23-3.44,5-.39,4.11,4.82,1.49-2.67,2.86-1.54,3-.26.3-4.6,2.6-5.35,3.7-3.9,0-4,3.89-6.12,3.94.54,1.75-.92,3.68-.26,4,1.33-.71-4.76,1.32-6.79,2.69-4.55.56-2.52,2.85-1.85,3.12.53,1.18-2.76,2.87-2.2,4.09-.33a.84.84,0,0,1,.25.09c-3.83-5.14-1-9.53,1.7-9-1.72-4.15,1.8-9,3.79-4.22,0,0,2.87-3.75,2.64,3.85,1.76-2.19,3.4.53,3,3.69,1.22-3.94,3.31-.26,3.3,1.95,1.11-2.35,3.22-.73,3.39,1.49,1.3-3.62,5-1.67,4.49,1.5,1.29-1.57,3.49,0,3.47,3.22.56-1.1,1.65.5,1.65.5s.49-5.06,2.13-3.13c-.44-3.81,3-3.59,2.47,1.63,1.86-3.62,3.21.68,3.11,3.06.93-2.05,2.48-.12,2.56.83.39-3.16,1.58-2.51,1.58-2.51s-.88-8.09,2.7-5.81c-.17-2.54,1.75-1.56,1.75-1.56-.34-5.86,2.79-6.45,2.86-2.32,1.31-3.94,3.22-.74,3.21,1,.28-2.06,1.12-3.15,2.31-2.82-2.18-4.78,1.42-8.52,2.87-4.38,1.3-2.67,3.67-.1,2.64,4.16,1.93-1.24,2.37,2.41,1.91,3.83,2.22-3.45,5-.39,4.1,4.82,1.49-2.67,2.86-1.54,3-.26.3-4.59,2.6-5.35,3.69-3.9,0-4,3.89-6.12,3.95.54,1.75-.93,3.67-.26,4,1.33-.71-4.76,1.32-6.79,2.69-4.55.56-2.52,2.85-1.85,3.12.53,2-4.56,5.32-.07,5.57,4.53,1-2.21,2.31-1.08,2.29,1.3.56-1.58,1.48-1.72,2-1.08-.57-3,.47-4.33,1.43-3.58,1-1.42,2.36-.21,1.83,3.12.52-.69,1.45-.62,2.05.9-.08-2.37,1.16-3.61,2.25-1.5.07-2.93,1.4-5.91,2.89-6.59-5.58.3-12.79-5.32-22.23-14.19-14.24-13.4-22.66-5.58-39.49,6.7s-24,8.93-36.91-4.47S156.67,88,145.66,99.16c-3.52,3.57-6.74,6.45-10.23,8.35A3.92,3.92,0,0,1,136.06,108.71Z"/>
                </g>
                <g>
                  <g>
                    <path class="cls-7" d="M349.65,99a6.88,6.88,0,0,0-.08,2.66c-1.33-3.83-3.32,0-3.24,2.24-1.18-2.26-3.24-.46-3.34,1.77-1.41-3.5-5-1.22-4.44,1.89-1.34-1.45-3.49.36-3.38,3.52-.58-1-1.63.65-1.63.65s-.63-5-2.22-3c.33-3.84-3.06-3.33-2.42,1.84-2-3.44-3.18,1-3,3.33-1-2-2.48.1-2.54,1-.48-3.12-1.65-2.37-1.65-2.37s.64-8.15-2.86-5.57c.1-2.55-1.8-1.4-1.8-1.4.17-5.88-3-6.19-2.92-2.07-1.42-3.82-3.24-.46-3.17,1.27-.35-2-1.22-3-2.39-2.6,2-5-1.68-8.39-3-4.13-1.38-2.56-3.67.22-2.52,4.38-2-1.06-2.3,2.62-1.79,4-2.32-3.24-5,0-4,5.17-1.56-2.53-2.9-1.28-3,0-.43-4.56-2.75-5.11-3.8-3.57-.14-3.95-4.07-5.77-3.93.88a2.76,2.76,0,0,0-4,1.68c.56-4.81-1.52-6.66-2.82-4.31-.64-2.47-2.91-1.6-3.1.8-2.09-4.38-5.33.39-5.44,5-1.09-2.11-2.33-.87-2.25,1.5-.6-1.52-1.53-1.59-2.05-.9.53-3.33-.85-4.54-1.83-3.12-1-.75-2,.62-1.43,3.58-.55-.64-1.47-.5-2,1.08,0-2.38-1.26-3.51-2.29-1.3-.25-4.6-3.62-9.09-5.57-4.53-.27-2.38-2.56-3-3.12-.53-1.37-2.24-3.4-.21-2.69,4.55-.36-1.59-2.28-2.26-4-1.33-.06-6.66-3.93-4.5-3.95-.54-1.09-1.45-3.39-.69-3.69,3.9-.18-1.28-1.55-2.41-3,.26.86-5.21-1.88-8.27-4.1-4.82.46-1.42,0-5.07-1.91-3.83,1-4.26-1.34-6.83-2.64-4.16-1.45-4.14-5.05-.4-2.87,4.38-1.19-.33-2,.76-2.31,2.82,0-1.74-1.9-4.94-3.21-1-.07-4.13-3.2-3.54-2.86,2.32,0,0-1.92-1-1.75,1.56-3.58-2.28-2.7,5.81-2.7,5.81s-1.19-.65-1.58,2.51c-.08-1-1.63-2.88-2.56-.83.1-2.38-1.25-6.68-3.11-3.06.49-5.22-2.91-5.44-2.47-1.63C197.5,112.89,197,118,197,118s-1.09-1.6-1.65-.5c0-3.17-2.18-4.79-3.47-3.22.48-3.17-3.19-5.12-4.49-1.5-.17-2.22-2.28-3.84-3.39-1.49,0-2.21-2.08-5.89-3.3-1.95.39-3.16-1.25-5.88-3-3.69.23-7.6-2.64-3.85-2.64-3.85-2-4.78-5.51.07-3.79,4.22-2.75-.53-5.53,3.86-1.7,9a.84.84,0,0,0-.25-.09c-1.22-1.87-2.91-2.43-4.09.33-.27-2.38-2.56-3-3.12-.53-1.37-2.24-3.4-.21-2.69,4.55-.36-1.59-2.29-2.25-4-1.33,0-6.66-3.92-4.5-3.94-.54-1.1-1.45-3.4-.7-3.7,3.9-.17-1.28-1.54-2.41-3,.26.86-5.21-1.88-8.26-4.11-4.82.47-1.41,0-5.07-1.9-3.83,1-4.26-1.34-6.83-2.64-4.16-1.45-4.14-5.05-.4-2.87,4.39-1.2-.34-2,.75-2.32,2.81,0-1.74-1.9-4.94-3.2-1-.07-4.11-3.2-3.53-2.86,2.33,0,0-1.93-1-1.76,1.56-3.57-2.28-2.69,5.81-2.69,5.81s-1.19-.65-1.58,2.51c-.09-1-1.63-2.88-2.57-.84.11-2.37-1.24-6.67-3.1-3,.49-5.22-2.91-5.44-2.47-1.63-1.64-1.93-2.13,3.13-2.13,3.13s-1.09-1.6-1.65-.5c0-3.17-2.18-4.79-3.47-3.22.47-3.16-3.19-5.12-4.5-1.51-.17-2.21-2.27-3.83-3.38-1.48,0-2.21-2.08-5.89-3.3-2,.38-3.16-1.25-5.88-3-3.69.23-7.6-2.64-3.84-2.64-3.84-2-4.79-5.51.06-3.79,4.21a2.52,2.52,0,0,0-2,.46,1.8,1.8,0,0,0-3-.36c2.4-5,2-11-.62-7,.54-11.73-5.84-11.79-4.53-3-.87-1.19-2.43-1.13-3.48,1.4.18-4-1.89-6.15-3.77-2.65-.11-7.79-5.49-16-9.08-8.74-.29-4.06-4.1-5.65-5.22-1.51-2.15-4.05-5.71-1.05-4.84,7.12-.49-2.75-3.69-4.26-6.7-3.06C40,84.11,33.29,87,33,93.62c-1.75-2.65-5.67-1.84-6.49,5.82-.21-2.17-2.44-4.35-5.12-.15,1.79-8.61-2.62-14.3-6.6-9,.89-2.29.4-8.52-2.95-6.83,2-7-1.79-11.78-4.16-7.54-1.29-4.32-4-4.09-5.37-1.4v7.58l.23.63-.23-.07v30.13c1.67.09,3.67,2.87,1.92,11.47,0,0,4.12-1.86,3.86,4,0,0,2.74-5.53,5-3.08-.9-17.82,9.08-11.64,7.49-4.08,1-2,4.52-.19,2.77,4.13,0,0,3-.67,2.1,5.11,0,0,3.17-4.66,5.09-2.53-.21-12.36,9-9.23,7.7-1.63,0,0,4.76-5.53,6.19.57,0,0,2.23-11.23,6.07-3.47,0,0-1.3-9,1.79-8.61-.58-14.55,10.45-7.43,7.9.81,2-3,5.85,1.33,2.64,6.79,1-1.74,5.37-1.68,4.75,4.94,1.39-3,5.79-4,5.06,1.75,2.3-1.06,3.62-.84,4.29.13-2.6,1.59-3.5,7.13-3.78,9.82.81.37,1.62.77,2.43,1.17l-.15.44.72-.17c1.35.67,2.7,1.36,4.06,2.09a3.65,3.65,0,0,1,.31-3.13l.12,0,2.18-.52.22.05s0-.06,0-.09l.88-.21.55-.13.73-.17.6-.14.79-.18.58-.14.84-.19.63-.15.73-.17.84-.19.61-.13.2,0c.12-6.91-2.56-11.52-5.2-10,1-3.4,4.65-3.84,4.84-1.23.2-1.42,2.22-1.7,2.29,1.94,0,0,1.21-3.15,1.65.5,0,0,.11-3.16,1.11-1.25,0,0-.71-4.92,1.77-5,3.13-.11,2.17,6.21,2.17,6.21.47-1.1,2.21-.76,1.73,2.88.19-1.58,1.57-2.19,1.56-.29,1.12-2,4.5,1.34,3.28,5.28.92-1.1,1.84-.76,2.2,1,1.13-4.41,4.41-.87,3.57,1.8,1.48-1.4,2.56,2.11,1.08,4,1.11-.93,3.22-.74,3.21,1.8,2.13-3.77,3.85-.42,3.85-.42,0-1.74,1.32-4.41,2.68-2.8-.06-5.86,3.23-2.64,3.23-2.64-.36-1.43.3-3.95,2.23-3.92a4.92,4.92,0,0,1,0-5.86c1.3-2,5.42-.86,4.67,2.61.65-1.26,3.4-1.05,2.26,6.06,0,0,2.4-1.39,2.38,2.09,0,0,1.49-3.46,2.86-2.17-1-10.46,5.09-7.51,4.33-2.93.56-1.26,2.67-.44,1.73,2.24,0,0,1.75-.6,1.36,2.87,0,0,1.77-3,3-1.85-.42-7.29,5.09-6.09,4.51-1.51,0,0,2.68-3.6,3.68-.09,0,0,1-6.8,3.5-2.48,0,0-.09-.49-.16-1.16,2.11,1,4.23,2.05,6.36,3.2-.44-1.92-.09-3.3,1.14-3.67l-.08.17a.71.71,0,0,1,.12-.18,3.23,3.23,0,0,1,1.65,0c0-.17-.06-.34-.1-.5.72.25,1.36,1.16,1.26,3.21.74-1.89,3.32-2.8,3,.68,4.29-2.54,2.89,3.48,1.93,6.63l2.9-1,.15-.06,1.34-.48h0l.52-.19.32-.12.42-.15.36-.12.46-.17c.11,0,.23-.07.34-.12l.49-.17.37-.13.42-.15.5-.17.35-.13.12,0c-.11-5-2.56-7.63-4.24-4.37-.53-2.87-2.1-1.62-2.1-1.62,1.58-2.83.42-9.65-2-7.32,1.31-3.14,1-6.63-.53-4.12a10,10,0,0,0-.67-4.19,1.66,1.66,0,0,1,1.91,1.67c.19-1.42,2.21-1.7,2.28,1.94,0,0,1.21-3.15,1.65.5,0,0,.11-3.16,1.11-1.24,0,0-.7-4.93,1.78-5,3.12-.11,2.16,6.21,2.16,6.21.47-1.1,2.21-.76,1.73,2.88.2-1.59,1.58-2.19,1.57-.29,1.11-2,4.49,1.34,3.27,5.27.93-1.09,1.84-.76,2.2,1,1.13-4.41,4.41-.87,3.57,1.8,1.48-1.4,2.56,2.11,1.08,4,1.11-.93,3.22-.74,3.21,1.79,2.13-3.76,3.86-.41,3.86-.41,0-1.74,1.31-4.41,2.68-2.8-.06-5.86,3.22-2.64,3.22-2.64-.35-1.43.3-4,2.23-3.93a4.92,4.92,0,0,1,0-5.85c1.3-2,5.43-.86,4.67,2.61.65-1.26,3.41-1,2.27,6.05,0,0,2.39-1.38,2.37,2.1,0,0,1.49-3.46,2.86-2.17-1-10.47,5.09-7.52,4.33-2.94.56-1.25,2.67-.43,1.74,2.25,0,0,1.74-.6,1.36,2.87,0,0,1.76-3,2.95-1.85-.42-7.29,5.08-6.09,4.5-1.51,0,0,2.69-3.6,3.68-.1,0,0,1-6.79,3.5-2.47,0,0-1-5.24.86-5.21-.69-8.57,6-5.13,4.68-.08,1.11-1.88,3.49.37,1.73,3.82.43-.84,2.06-1.19,2.69.53-.39.19-.78.7-1,1.9-1.76-3.1-4.13-.21-4.1,4.74l.12,0,.36.1.49.13.44.11.37.09.49.14.35.09.46.12.36.09.43.12.32.09.53.13.05,0,1.35.36.15,0,2.93.8c-.72-2.08-1.66-5.44-.86-6.73,0,.12,0,.23,0,.37,4.29-2.54,2.88,3.48,1.92,6.64l2.9-1.05.15-.06,1.34-.48.05,0,.52-.18.32-.11.43-.16.35-.12.46-.17.34-.12.49-.17.37-.13.43-.15.49-.17.36-.13.11,0c-.11-4.95-2.56-7.63-4.23-4.37-.25-1.35-.73-1.78-1.16-1.87.36-2.41,2.3-2.25,2.8-1.35-1.86-3.3.45-5.76,1.61-4-1.46-4.92,5.12-8.93,4.68-.32,1.84-.19,1,5.13,1,5.13,2.33-4.53,3.57,2.17,3.57,2.17.89-3.58,3.67-.22,3.67-.22-.71-4.53,4.76-6.2,4.55,1.11,1.15-1.23,3,1.59,3,1.59-.49-3.43,1.28-3,1.28-3-1-2.6,1.07-3.61,1.66-2.4-.89-4.5,5.06-8,4.41,2.56,1.33-1.4,2.92,1.92,2.92,1.92-.12-3.48,2.31-2.3,2.31-2.3-1.34-7,1.4-7.44,2.09-6.25-.86-3.4,3.23-4.93,4.58-3a4.92,4.92,0,0,1,.21,5.85c1.92-.2,2.65,2.26,2.34,3.72,0,0,3.19-3.5,3.3,2.36,1.32-1.73,2.69.83,2.75,2.57,0,0,1.63-3.5,3.87.08-.09-2.54,2-2.91,3.15-2.08-1.53-1.74-.56-5.33,1-4.06-.92-2.6,2.26-6.42,3.52-2.11.3-1.78,1.21-2.19,2.16-1.18-1.33-3.83,1.95-7.5,3.12-5.55-.06-1.9,1.33-1.41,1.57.15-.58-3.59,1.14-4.09,1.64-3,0,0-1.14-6.22,2-6.39,2.48-.1,1.92,4.88,1.92,4.88.94-2,1.14,1.15,1.14,1.15.33-3.68,1.63-.64,1.63-.64a5,5,0,0,1,.42-2.32ZM174.44,119.62a4.76,4.76,0,0,1,.52-1,9.43,9.43,0,0,0,.16,1.29A.9.9,0,0,0,174.44,119.62Z"/>
                    <path class="cls-8" d="M264.18,128.72c.29-3.48-2.28-2.57-3-.68.2-4-2.37-3.68-2.92-2.59,1.76-3.45-.62-5.7-1.73-3.82,1.31-5-5.37-8.49-4.68.08-1.84,0-.86,5.21-.86,5.21-2.45-4.32-3.5,2.47-3.5,2.47-1-3.5-3.68.1-3.68.1.58-4.58-4.92-5.78-4.5,1.51-1.19-1.13-2.95,1.85-2.95,1.85.38-3.47-1.36-2.87-1.36-2.87.93-2.68-1.18-3.5-1.74-2.25.76-4.58-5.28-7.53-4.33,2.94-1.37-1.29-2.86,2.17-2.86,2.17,0-3.48-2.37-2.1-2.37-2.1,1.14-7.1-1.62-7.31-2.27-6.05.76-3.47-3.37-4.65-4.67-2.61a4.92,4.92,0,0,0,0,5.85c-1.93,0-2.58,2.5-2.23,3.93,0,0-3.28-3.22-3.22,2.64-1.37-1.61-2.67,1.06-2.68,2.8,0,0-1.73-3.35-3.86.41,0-2.53-2.1-2.72-3.21-1.79,1.48-1.87.4-5.38-1.08-4,.84-2.67-2.44-6.21-3.57-1.8-.36-1.75-1.27-2.08-2.2-1,1.22-3.93-2.16-7.31-3.27-5.27,0-1.9-1.37-1.3-1.57.29.48-3.64-1.26-4-1.73-2.88,0,0,1-6.32-2.16-6.21-2.48.11-1.78,5-1.78,5-1-1.92-1.11,1.24-1.11,1.24-.44-3.65-1.65-.5-1.65-.5-.07-3.64-2.09-3.36-2.28-1.94-.26-3.49-6.7-1.53-4.72,5.63-1.19-.18-1.57,1.87-1.21,3.14-1.64-2.24-2.66,0-1.68,4.41-2.56-.63-3.44,1-2.83,3.63,3,1.61,6,3.38,9,5.34,2.06,1.06,2.74,1.67,4.05,1.69-1.93.8-.7,2.24,2.75,1.11-1.59,2.23.27,1.67,1.37.86.81,3.45,1.71,2.52,1.72.62,2.68,2.3,3.44.77,3.24.17,1.78,2.41,5.57,1.64,5.57,1.64s-1.67,2.22,3.51.41c-.22,2.25,1.65.38,1.86,0,1.36,2.28,4.19,1.62,3-.19,3.3,1.84,5.16.8,5.72.1,2,2.17,3.44.77,3.44.77,1.71,1.45,6.53-1,9-1.4,13.17-2.16,19.85-3.35,21-4.16-.77,1.64,1.52.26,2.28-.92.81,2.75,1.3,1.33,1.45-.57,2.12,2.29,1.93-.44,1.93-.44,2.48.4,2-.92,2-.92s3.52-.53,13.66-4.17l1-.34C267.06,132.2,268.47,126.18,264.18,128.72Z"/>
                  </g>
                  <g class="cls-9">
                    <path class="cls-10" d="M72.59,129c.73-5.79-3.67-4.78-5.06-1.75.62-6.62-3.73-6.68-4.75-4.94,3.21-5.46-.64-9.74-2.64-6.79,2.55-8.24-8.48-15.36-7.9-.81-3.09-.42-1.79,8.61-1.79,8.61-3.84-7.76-6.07,3.47-6.07,3.47-1.43-6.1-6.19-.57-6.19-.57,1.28-7.6-7.91-10.73-7.7,1.63-1.92-2.13-5.09,2.53-5.09,2.53.89-5.78-2.1-5.11-2.1-5.11,1.75-4.32-1.74-6.14-2.77-4.13,1.59-7.56-8.39-13.74-7.49,4.08-2.22-2.45-5,3.08-5,3.08.26-5.87-3.86-4-3.86-4C6,115.71,4,112.93,2.3,112.84V151.3c22-1,33.12-1.66,35-2.79-1.41,2.62,2.53.74,3.89-1.08,1.19,4.78,2.11,2.5,2.48-.67,3.43,4.29,3.29-.36,3.29-.36,4.14,1.17,3.43-1.14,3.43-1.14s6-.2,23.29-4.28l1.67-.4C77.21,135.46,80,125.6,72.59,129Z"/>
                  </g>
                  <path class="cls-11" d="M175.67,135.49c.3-3.48-2.28-2.57-3-.68.2-4-2.37-3.68-2.93-2.58,1.77-3.46-.61-5.72-1.72-3.83,1.31-5.05-5.37-8.49-4.68.08-1.84,0-.86,5.21-.86,5.21-2.46-4.32-3.5,2.48-3.5,2.48-1-3.51-3.68.09-3.68.09.58-4.58-4.93-5.78-4.51,1.51-1.18-1.13-3,1.85-3,1.85.39-3.47-1.36-2.87-1.36-2.87.94-2.68-1.17-3.5-1.73-2.24.76-4.58-5.28-7.53-4.33,2.93-1.37-1.29-2.86,2.17-2.86,2.17,0-3.48-2.38-2.09-2.38-2.09,1.14-7.11-1.61-7.32-2.26-6.06.75-3.47-3.37-4.65-4.67-2.61a4.92,4.92,0,0,0,0,5.86c-1.93,0-2.59,2.49-2.23,3.92,0,0-3.29-3.22-3.23,2.64-1.36-1.61-2.67,1.06-2.68,2.8,0,0-1.72-3.35-3.85.42,0-2.54-2.1-2.73-3.21-1.8,1.48-1.87.4-5.38-1.08-4,.84-2.67-2.44-6.21-3.57-1.8-.36-1.74-1.28-2.08-2.2-1,1.22-3.94-2.16-7.32-3.28-5.28,0-1.9-1.37-1.29-1.56.29.48-3.64-1.26-4-1.73-2.88,0,0,1-6.32-2.17-6.21-2.48.11-1.77,5-1.77,5-1-1.91-1.11,1.25-1.11,1.25-.44-3.65-1.65-.5-1.65-.5-.07-3.64-2.09-3.36-2.29-1.94-.25-3.48-6.69-1.53-4.71,5.63-1.19-.18-1.57,1.87-1.21,3.14-1.64-2.24-2.66,0-1.68,4.41-2.56-.63-3.44,1-2.83,3.63,3,1.62,6,3.38,9,5.34,2.06,1.06,2.74,1.67,4,1.69-1.93.8-.7,2.24,2.75,1.11-1.6,2.23.27,1.67,1.37.86.81,3.45,1.71,2.52,1.72.62,2.67,2.3,3.44.77,3.24.17,1.77,2.41,5.57,1.64,5.57,1.64s-1.67,2.23,3.51.41c-.22,2.26,1.65.39,1.86,0,1.36,2.28,4.19,1.62,3-.19,3.3,1.84,5.16.8,5.72.1,2,2.17,3.43.77,3.43.77,1.72,1.45,6.53-1,9-1.4,13.17-2.15,19.85-3.35,21-4.17-.77,1.66,1.51.27,2.28-.91.81,2.75,1.3,1.33,1.45-.57,2.12,2.29,1.93-.44,1.93-.44,2.48.4,2-.92,2-.92s3.52-.53,13.66-4.17c.31-.1.63-.22,1-.35C178.56,139,180,133,175.67,135.49Z"/>
                  <path class="cls-10" d="M349.65,136.61V135.2l-.14,0,.14,0v-24.2a5,5,0,0,0-.42,2.32s-1.3-3-1.63.64c0,0-.2-3.15-1.14-1.15,0,0,.56-5-1.92-4.88-3.13.17-2,6.39-2,6.39-.5-1.06-2.22-.56-1.64,3-.24-1.56-1.63-2-1.57-.15-1.17-1.95-4.45,1.72-3.12,5.55-1-1-1.86-.6-2.16,1.18-1.26-4.31-4.44-.49-3.52,2.11-1.52-1.27-2.49,2.32-1,4.06-1.13-.83-3.24-.46-3.15,2.08-2.24-3.58-3.87-.08-3.87-.08-.06-1.74-1.43-4.3-2.75-2.57-.11-5.86-3.3-2.36-3.3-2.36.31-1.46-.42-3.92-2.34-3.72a4.92,4.92,0,0,0-.21-5.85c-1.35-1.92-5.44-.39-4.58,3-.69-1.19-3.43-.75-2.09,6.25,0,0-2.43-1.18-2.31,2.3,0,0-1.59-3.32-2.92-1.92.65-10.54-5.3-7.06-4.41-2.56-.59-1.21-2.67-.2-1.66,2.4,0,0-1.77-.45-1.28,3,0,0-1.85-2.82-3-1.59.21-7.31-5.26-5.64-4.55-1.11,0,0-2.78-3.36-3.67.22,0,0-1.24-6.7-3.57-2.17,0,0,.83-5.32-1-5.13.44-8.61-6.14-4.6-4.68.32-1.16-1.78-3.47.68-1.61,4-.58-1.05-3.16-1.1-2.84,2.83-.8-1.82-3.4-2.5-3,.94-4.35-2.16-2.78,3.73-1.72,6.8l1,.26c10.24,2.75,13.77,3,13.77,3s-.44,1.35,2,.74c0,0-.11,2.75,1.95.28.2,1.88.73,3.25,1.46.44.8,1.11,3.11,2.29,2.3.71,1.13.72,7.84,1.33,21.06,2.35,2.44.18,7.32,2.21,9,.61,0,0,1.49,1.27,3.41-1.07.58.66,2.47,1.53,5.71-.59-1.18,1.91,1.67,2.33,3-.07.22.34,2.14,2,1.86-.19,5.22,1.36,3.49-.72,3.49-.72s3.81.44,5.52-2.12c-.19.62.62,2.08,3.23-.45.06,1.9,1,2.75,1.7-.77,1.12.71,3,1.12,1.34-1A6,6,0,0,0,349.65,136.61Z"/>
                </g>
              </g>
              <rect class="cls-12" x="5.6" y="170.83" width="343.17" height="200.17"/>
              <g class="cls-13">
                <path class="cls-14" d="M25.05,317.08q-10.53-.46-19.45-.91v5.21"/>
                <path class="cls-15" d="M5.6,179.87c22.06-3.32,71.47-6.84,138.11-9H5.6Z"/>
              </g>
              <g>
                <path class="cls-16" d="M83.1,181.78s9.09.79,6.76,2,9.19.21,15.39-.28,9.85.43,13.34.78-3.81-1.14-17.53.19-15.47,1.65-14.21.14C88.87,182.23,71.14,181.78,83.1,181.78Z"/>
                <path class="cls-16" d="M136.27,182.81s4.7.05,11.81,0,7.81-.81,16.92-.5,9.81.79,13,.63.17.63-6,.31-8.93-.15-13.66-.15-8.06.63-13,.47S130.49,183.44,136.27,182.81Z"/>
                <path class="cls-16" d="M192.56,183.54a10.12,10.12,0,0,1,5-.51c2.78.43,2.38.62,5.36.28a24.63,24.63,0,0,1,6.76-.1c4,.25-.8.37-2.78.35s-3.4,1.3-6.58,1.06-4-1-7.55-.5S186.79,183.84,192.56,183.54Z"/>
                <path class="cls-16" d="M269.74,186.53c-1,0-1.54,0-3.14.12a19.81,19.81,0,0,1-4.78-.17,15.85,15.85,0,0,0-4.42.22c-5.13.12-3,.53.17.29s3.89.15,6.72.29c2.62.12,3.88-.42,5.45-.48Z"/>
              </g>
              <g class="cls-17">
                <path class="cls-18" d="M73.84,190.8l-1.11.17c-.72.12-1.77.31-3.08.6-.65.15-1.37.33-2.13.55a18.5,18.5,0,0,0-2.35.84,4.32,4.32,0,0,0-1.93,1.43.7.7,0,0,0-.11.23,2,2,0,0,0-.05.24v.06s0,0,0,0h0v0l0,.14v.07l0,0,.06.1a2.44,2.44,0,0,0,1,.78,9.25,9.25,0,0,0,1.49.6c.54.17,1.12.32,1.71.47,1.18.29,2.44.53,3.75.76,2.61.45,5.42.8,8.32,1.17l4.45.56c1.5.19,3,.4,4.56.71.76.15,1.52.32,2.28.55a7.5,7.5,0,0,1,1.14.42,3.81,3.81,0,0,1,.56.34.78.78,0,0,1,.35.66.67.67,0,0,1-.18.39,1.92,1.92,0,0,1-.15.14l-.16.1a2.71,2.71,0,0,1-.64.28,8.27,8.27,0,0,1-1.24.3c-.82.14-1.59.21-2.36.31-1.55.2-3.09.4-4.55.7a13.28,13.28,0,0,0-2.07.55c-.63.22-1.16.54-1.24.84a.57.57,0,0,0,.13.5,2.1,2.1,0,0,0,.25.28l.07.07,0,0s0,0,0,0l0,0,.17.12a4.8,4.8,0,0,0,.81.37c.31.11.64.22,1,.31,1.37.38,2.81.66,4.23.91,2.85.51,5.64.93,8.29,1.36a72.29,72.29,0,0,1,7.4,1.47,8.28,8.28,0,0,1,1.6.61,1.4,1.4,0,0,1,.62.56.5.5,0,0,1,0,.4.88.88,0,0,1-.26.31,3.48,3.48,0,0,1-.66.38l-.63.32c-.4.2-.79.41-1.14.62a8.28,8.28,0,0,0-.95.66,1.28,1.28,0,0,0-.48.73.78.78,0,0,0,.35.67,4,4,0,0,0,.77.49,25.74,25.74,0,0,0,2.76,1.08l1,.33-1-.29-1.26-.37c-.48-.16-1-.35-1.63-.61a4.3,4.3,0,0,1-.85-.5,1.5,1.5,0,0,1-.35-.36.93.93,0,0,1-.13-.45,1.49,1.49,0,0,1,.51-.88,8.23,8.23,0,0,1,1-.74c.36-.23.74-.45,1.14-.68l.61-.33a2.85,2.85,0,0,0,.53-.33c.13-.12.17-.23.12-.32a.85.85,0,0,0-.41-.33,7.91,7.91,0,0,0-1.45-.5c-1.08-.29-2.27-.5-3.5-.71s-2.52-.41-3.84-.6c-2.65-.39-5.47-.76-8.36-1.25-1.45-.25-2.92-.51-4.39-.9-.37-.1-.74-.21-1.1-.34a5.55,5.55,0,0,1-1.1-.49l-.24-.16,0,0-.05,0,0-.05-.09-.09a2.71,2.71,0,0,1-.36-.4,1.16,1.16,0,0,1-.23-1,1.76,1.76,0,0,1,.76-.9,5.49,5.49,0,0,1,1.09-.53,17,17,0,0,1,2.3-.62c1.55-.32,3.12-.53,4.68-.73.78-.1,1.58-.18,2.29-.3a6.69,6.69,0,0,0,1-.23,1.73,1.73,0,0,0,.35-.15c.09-.05.09-.07.08,0s0,0-.07-.06a1.64,1.64,0,0,0-.32-.2,7.45,7.45,0,0,0-.92-.34c-.67-.21-1.4-.37-2.12-.52-1.46-.29-2.95-.51-4.45-.72l-4.42-.6c-2.91-.39-5.72-.8-8.36-1.3-1.32-.25-2.59-.51-3.8-.84-.61-.16-1.2-.33-1.76-.53a11.51,11.51,0,0,1-1.6-.69,2.82,2.82,0,0,1-1.18-1l-.07-.17,0-.09V195s0,0,0,0v-.08a1.09,1.09,0,0,1,.08-.31,1.14,1.14,0,0,1,.15-.29,5,5,0,0,1,2.25-1.54,19,19,0,0,1,2.47-.79c.79-.2,1.52-.36,2.19-.49,1.33-.26,2.41-.39,3.14-.48Z"/>
                <path class="cls-18" d="M120.11,207l-.25.05-.7.19c-.3.08-.66.19-1,.32s-.84.3-1.3.49c-.23.1-.46.2-.69.32l-.36.17-.35.19a10.9,10.9,0,0,0-1.34.91c-.2.17-.39.35-.58.53l-.25.3a1.66,1.66,0,0,0-.24.3l-.22.31,0,.08,0,0h0s0-.05,0,0v0l-.08.18c-.05.12-.12.24-.16.35s0,.2,0,.3a1.69,1.69,0,0,0,.3,1.23,3.89,3.89,0,0,0,1.07,1.07,10.72,10.72,0,0,0,1.43.84l.74.33.73.29c.48.18.92.34,1.32.47s.77.22,1.06.32l.94.26-.26,0c-.17,0-.43,0-.75-.08s-.72-.08-1.15-.17l-.71-.14-.76-.18-.82-.23-.85-.3c-.29-.12-.58-.24-.87-.38a6.85,6.85,0,0,1-.84-.46,4.92,4.92,0,0,1-1.41-1.27l-.23-.39c-.06-.14-.1-.28-.15-.42a1.25,1.25,0,0,1-.07-.43,1.63,1.63,0,0,1,0-.44l.11-.45a4,4,0,0,1,.17-.36l.08-.18v0l0,0h0v0l0,0,.06-.09.26-.36a6.37,6.37,0,0,1,.61-.67c.23-.2.48-.4.72-.58a9.64,9.64,0,0,1,1.62-.92,8.26,8.26,0,0,1,.82-.33c.27-.11.54-.19.8-.27a16.28,16.28,0,0,1,2.62-.54l.75-.06Z"/>
                <path class="cls-18" d="M312.52,236.17s1.88.12,4.64.56c.69.11,1.43.23,2.21.39s1.61.32,2.44.53,1.7.43,2.55.71a20.68,20.68,0,0,1,2.52.95,7.15,7.15,0,0,1,2.17,1.44,1.81,1.81,0,0,1,.52,1.06,1.59,1.59,0,0,1-.36,1.08,5.24,5.24,0,0,1-1.92,1.35,17.85,17.85,0,0,1-2,.77,29.84,29.84,0,0,1-3.23.79c-.39.09-.71.13-.92.17l-.33.06,1.16-.39c.74-.24,1.78-.6,3-1.07.59-.25,1.21-.53,1.81-.85a4.57,4.57,0,0,0,1.48-1.17,1,1,0,0,0-.19-1.35,6,6,0,0,0-1.85-1.17,20.91,20.91,0,0,0-2.33-.92c-.82-.27-1.62-.52-2.42-.75s-1.59-.44-2.34-.63l-2.12-.52-3.2-.76Z"/>
                <path class="cls-18" d="M332.43,247s0,0,0,.15a1.64,1.64,0,0,1-.12.4,3.23,3.23,0,0,1-.34.6l-.29.34c-.11.12-.25.23-.39.36l-.21.18-.25.18a5.63,5.63,0,0,1-.54.36l-.62.34c-.21.12-.46.2-.69.31a13.09,13.09,0,0,1-1.53.55c-.27.09-.55.16-.83.23l-.84.2c-.56.12-1.14.2-1.71.29-.28.05-.56.08-.84.11l-.83.08-.8.06-.77,0-1.42,0c-.43,0-.83,0-1.19,0l-.91-.06-.8-.06.79-.11.9-.11c.34,0,.73-.07,1.15-.13s.88-.12,1.36-.17l.74-.09.76-.12c.52-.08,1.06-.13,1.59-.24s1.08-.18,1.6-.3l.79-.18L327,250l.74-.21c.26-.07.47-.16.71-.24s.46-.14.67-.23l.62-.26c.2-.08.36-.19.55-.28l.27-.13.23-.14a8.5,8.5,0,0,0,.8-.54c.2-.19.39-.34.52-.49a2,2,0,0,0,.27-.35Z"/>
                <g class="cls-17">
                  <path class="cls-18" d="M262.06,259.94l-2.57.31c-1.64.2-4,.48-6.76.85s-6,.8-9.49,1.36c-1.72.27-3.48.59-5.25,1-.88.18-1.76.38-2.62.61a17.75,17.75,0,0,0-2.43.81,4.75,4.75,0,0,0-1,.53c-.25.19-.33.36-.29.51a2.48,2.48,0,0,0,1.29,1.34,22.75,22.75,0,0,0,4.67,1.67l1.23.36a8.78,8.78,0,0,1,1.23.46,1.36,1.36,0,0,1,.6.49.45.45,0,0,1,0,.46,1,1,0,0,1-.29.28,5,5,0,0,1-1.22.49c-.8.22-1.55.37-2.27.54l-2.09.49c-.67.16-1.3.33-1.89.5a10.76,10.76,0,0,0-1.56.56,1.34,1.34,0,0,0-.47.36c-.07.12,0,.24.12.36a3.85,3.85,0,0,0,1.06.51c.73.24,1.35.4,1.76.5l.65.15-.67-.1c-.43-.08-1.07-.18-1.85-.39a4.41,4.41,0,0,1-1.23-.51l-.14-.11-.11-.15a.47.47,0,0,1,0-.35,1.31,1.31,0,0,1,.57-.52,18.27,18.27,0,0,1,3.49-1.28l2.06-.57c.71-.19,1.48-.37,2.18-.59a3.7,3.7,0,0,0,.9-.37s.07-.06.06-.06,0,0,0,0l-.06,0-.18-.1a8.71,8.71,0,0,0-1.06-.36l-1.21-.33c-.83-.22-1.69-.44-2.54-.71a13.57,13.57,0,0,1-2.5-1,5.17,5.17,0,0,1-1.08-.77,3.06,3.06,0,0,1-.4-.49,1.25,1.25,0,0,1-.15-.28l-.06-.14,0-.12a.93.93,0,0,1,.08-.71,1.66,1.66,0,0,1,.48-.54,5.35,5.35,0,0,1,1.23-.7,19.8,19.8,0,0,1,2.67-.87c.9-.24,1.81-.44,2.72-.62,1.8-.38,3.61-.65,5.36-.91s3.44-.46,5.06-.64,3.14-.34,4.55-.46c2.83-.27,5.19-.43,6.84-.53S262.06,259.94,262.06,259.94Z"/>
                </g>
                <g class="cls-17">
                  <path class="cls-18" d="M244.17,235.59l-2.24.34-5.88.92c-2.42.4-5.25.86-8.24,1.43-1.49.29-3,.61-4.55,1a24.51,24.51,0,0,0-4.34,1.37,3.23,3.23,0,0,0-.79.47c-.21.17-.25.3-.22.42a2.23,2.23,0,0,0,1.17,1.11,21.36,21.36,0,0,0,4.16,1.35l1.1.29a7.69,7.69,0,0,1,1.11.38,1.2,1.2,0,0,1,.57.44.39.39,0,0,1,0,.43.75.75,0,0,1-.26.27,4.37,4.37,0,0,1-1.06.46c-.7.21-1.34.36-2,.53l-1.81.47c-.57.16-1.12.31-1.62.48a8.89,8.89,0,0,0-1.35.52,1.05,1.05,0,0,0-.38.31c-.06.1,0,.2.11.3a3.46,3.46,0,0,0,.94.42c.66.21,1.2.33,1.57.41l.58.12-.6-.07c-.38-.06-.94-.13-1.64-.3a3.93,3.93,0,0,1-1.12-.41l-.13-.1-.11-.13a.4.4,0,0,1,0-.32,1.3,1.3,0,0,1,.48-.48,15.72,15.72,0,0,1,3-1.21c.57-.18,1.16-.37,1.78-.55s1.27-.37,1.87-.57a3.35,3.35,0,0,0,.75-.34s.05,0,0,0a.06.06,0,0,0,0,.06s-.07-.05-.2-.09a16.27,16.27,0,0,0-2-.55c-.74-.17-1.5-.35-2.27-.56a12.33,12.33,0,0,1-2.26-.85,4.81,4.81,0,0,1-1-.66,2.27,2.27,0,0,1-.39-.43l-.15-.24-.06-.14,0-.1a.86.86,0,0,1,0-.65,1.55,1.55,0,0,1,.41-.5,4.69,4.69,0,0,1,1.06-.66,19.28,19.28,0,0,1,2.31-.83c.78-.23,1.57-.42,2.36-.61,1.57-.37,3.14-.65,4.66-.91s3-.48,4.41-.68,2.74-.36,4-.51c2.46-.29,4.53-.47,6-.6S244.17,235.59,244.17,235.59Z"/>
                </g>
                <g class="cls-17">
                  <path class="cls-18" d="M272.29,286.61s.32,0,.86.11a12.08,12.08,0,0,1,2.19.57,3.21,3.21,0,0,1,1.27.8,1,1,0,0,1,.25.74,1.36,1.36,0,0,1-.45.71,5.09,5.09,0,0,1-1.54.89c-.28.12-.57.22-.87.32s-.59.18-.88.27-.6.16-.91.23l-.9.21c-.6.13-1.2.23-1.78.33s-1.14.17-1.67.24-1,.13-1.51.17c-.94.1-1.73.15-2.28.18s-.87,0-.87,0l.81-.2L265,292l1.22-.27,3-.67,1.7-.39.86-.22.85-.22.83-.25c.27-.08.54-.17.79-.27a5.26,5.26,0,0,0,1.28-.63,1.09,1.09,0,0,0,.29-.35.4.4,0,0,0-.06-.34,2.32,2.32,0,0,0-.83-.68,13,13,0,0,0-1.87-.81Z"/>
                </g>
                <g class="cls-17">
                  <path class="cls-18" d="M270.87,296.47s-.7.16-1.95.4l-2.25.42-2.94.48c-1.08.17-2.26.33-3.5.5s-2.58.3-4,.46c-.68.08-1.38.14-2.09.2l-2.15.18-1.09.08-1.1.06-2.22.11c-1.49.08-2.94.1-4.38.18s-2.84.17-4.15.35c-.32.05-.64.09-.94.16a3.5,3.5,0,0,0-.74.22c-.08,0,0,0,0,0s0,0,.07,0a2.94,2.94,0,0,0,.7.26,16.39,16.39,0,0,0,1.69.36c.57.09,1.12.15,1.7.26a4.09,4.09,0,0,1,.84.26l.2.1.18.15a.72.72,0,0,1,.11.19.34.34,0,0,1,0,.2,1,1,0,0,1-.44.53,4.18,4.18,0,0,1-.57.33,14.79,14.79,0,0,1-2.07.77c-.59.19-1.07.31-1.39.39l-.5.12s.67-.22,1.78-.66a16.85,16.85,0,0,0,1.88-.88,4.13,4.13,0,0,0,.46-.32c.13-.11.24-.24.24-.33s-.42-.3-.9-.36-1.09-.11-1.69-.18a16.48,16.48,0,0,1-1.86-.32,4.38,4.38,0,0,1-1-.34,1.35,1.35,0,0,1-.26-.18.52.52,0,0,1-.19-.33.35.35,0,0,1,0-.2.39.39,0,0,1,.11-.17,1.74,1.74,0,0,1,.27-.22,4.4,4.4,0,0,1,1.07-.37c.34-.08.69-.14,1-.2,1.39-.21,2.83-.35,4.29-.43s3-.13,4.4-.22l2.19-.09,1.09,0,1.08-.08c1.44-.12,2.86-.17,4.22-.3s2.69-.22,3.94-.34l3.53-.35,3-.32,2.3-.26Z"/>
                </g>
                <g class="cls-17">
                  <path class="cls-18" d="M241.87,307.29a.61.61,0,0,1,.11.13,1.12,1.12,0,0,1,.1.16.88.88,0,0,1,.11.24.94.94,0,0,1,.06.3.93.93,0,0,1,0,.37,1.91,1.91,0,0,1-.36.85c-.11.14-.23.29-.37.44s-.33.27-.51.41l-.13.11-.16.09-.31.19a6.23,6.23,0,0,1-.68.36,11.73,11.73,0,0,1-1.54.6l-.83.26c-.27.09-.56.14-.85.21a17,17,0,0,1-1.72.36l-1.69.26-1.6.15c-.5,0-1,.08-1.43.1-.89,0-1.64,0-2.16,0h-.82s.29-.07.79-.16,1.22-.22,2.07-.36c.43-.06.89-.16,1.38-.24l1.52-.27,1.61-.31c.55-.1,1.08-.24,1.62-.36.27-.07.56-.12.81-.2l.78-.22a14.49,14.49,0,0,0,1.45-.49,5.51,5.51,0,0,0,.65-.27l.3-.14.15-.07.13-.08c.18-.11.34-.22.51-.31l.4-.34a2.31,2.31,0,0,0,.52-.66,1.45,1.45,0,0,0,.11-.31.72.72,0,0,0,.05-.28,1.16,1.16,0,0,0,0-.39A1,1,0,0,0,241.87,307.29Z"/>
                </g>
                <g class="cls-17">
                  <path class="cls-18" d="M212,278.5l-7.71,1.35-3.71.68c-1.31.25-2.7.51-4.11.82s-2.86.62-4.28,1c-.71.2-1.4.42-2.05.67a5.79,5.79,0,0,0-.9.41,1.14,1.14,0,0,0-.48.41.12.12,0,0,0,0,.13.74.74,0,0,0,.22.18c.19.12.56.26.9.42.67.31,1.32.64,1.94,1a6.43,6.43,0,0,1,1.67,1.29,1.15,1.15,0,0,1,.29,1,1,1,0,0,1-.29.49,2.26,2.26,0,0,1-.48.35,8.12,8.12,0,0,1-2.13.72c-.71.16-1.41.27-2.09.37-1.36.18-2.65.3-3.84.41-2.37.19-4.36.3-5.75.37l-2.18.1,2.15-.25c1.38-.16,3.35-.37,5.68-.67,1.17-.14,2.44-.31,3.74-.54.66-.11,1.32-.24,2-.41a7.1,7.1,0,0,0,1.76-.63c.46-.29.51-.55.2-.93a5.71,5.71,0,0,0-1.45-1.05c-.58-.32-1.22-.62-1.87-.9l-.49-.22a4.87,4.87,0,0,1-.56-.28,1.71,1.71,0,0,1-.52-.45.74.74,0,0,1-.1-.67,1.9,1.9,0,0,1,.89-.88,8,8,0,0,1,1.07-.5,19.74,19.74,0,0,1,2.22-.71c1.49-.4,3-.73,4.41-1s2.86-.53,4.2-.73,2.61-.38,3.78-.53C208.84,278.71,212,278.5,212,278.5Z"/>
                </g>
                <path class="cls-18" d="M207.36,210.83l.84.07c.54,0,1.34.09,2.35.19,2,.18,4.93.43,8.4.82,1.73.19,3.6.41,5.58.66s4.06.53,6.2.86,4.36.68,6.58,1.11,4.48.9,6.68,1.51a22.32,22.32,0,0,1,3.22,1.13,5.7,5.7,0,0,1,1.44.9,1.53,1.53,0,0,1,.44.73.86.86,0,0,1,0,.42,1.33,1.33,0,0,1-.21.39,1.15,1.15,0,0,1-.14.17l-.17.15a2.31,2.31,0,0,1-.36.25l-.34.21-.32.18c-.42.25-.83.5-1.2.76a2.75,2.75,0,0,0-.81.77.22.22,0,0,0,0,.25,1,1,0,0,0,.39.26,8.28,8.28,0,0,0,1.35.42c.49.12,1,.22,1.49.33,1,.2,2,.38,3,.56,1.94.35,3.78.71,5.45,1.06,3.36.7,6.1,1.43,8,1.94.95.26,1.68.48,2.19.63l.76.23-.79-.19-2.25-.51c-1.94-.44-4.73-1-8.11-1.62-1.69-.3-3.53-.6-5.48-.91l-3-.5c-.52-.1-1-.19-1.57-.32a9.45,9.45,0,0,1-1.61-.48,2,2,0,0,1-.77-.53.8.8,0,0,1-.19-.43.93.93,0,0,1,.07-.41,3.29,3.29,0,0,1,1.05-1.11c.41-.3.83-.56,1.27-.83l.33-.19.3-.18a1.66,1.66,0,0,0,.24-.17l.1-.08.06-.09c.06-.06.06-.11.09-.16s0-.05,0-.08a.12.12,0,0,0,0-.08.87.87,0,0,0-.23-.35,4.56,4.56,0,0,0-1.13-.68,22,22,0,0,0-3-1c-2.11-.6-4.33-1.08-6.53-1.51s-4.37-.82-6.5-1.17-4.18-.67-6.13-1l-5.53-.81c-3.43-.48-6.29-.89-8.29-1.15Z"/>
                <path class="cls-18" d="M156.19,193.44s.62,0,1.7.05,2.63.13,4.47.33c.92.1,1.92.21,3,.4.53.1,1.06.21,1.61.35.28.08.55.16.83.26a3.75,3.75,0,0,1,.82.42,1.2,1.2,0,0,1,.35.36.66.66,0,0,1,.08.51,1.41,1.41,0,0,1-.66.72,7.5,7.5,0,0,1-1.68.71c-.59.18-1.15.33-1.69.5a9.27,9.27,0,0,0-1.5.55l-.25.14c-.06,0,0,.06,0,0s-.05-.08,0,0l.26.11a12.05,12.05,0,0,0,1.6.4l3.42.67a60.84,60.84,0,0,1,6,1.44,32.8,32.8,0,0,1,4,1.45c.46.2.8.38,1,.5l.36.18-.4-.14c-.25-.1-.63-.23-1.11-.39-1-.32-2.38-.73-4.12-1.14-.87-.2-1.82-.4-2.83-.6s-2.09-.37-3.2-.57-2.29-.36-3.48-.59a12.37,12.37,0,0,1-1.84-.46,2.25,2.25,0,0,1-.51-.23.9.9,0,0,1-.27-.22.57.57,0,0,1-.16-.36,1.25,1.25,0,0,1,0-.19l.09-.16.22-.22a2.68,2.68,0,0,1,.45-.27,12.8,12.8,0,0,1,1.75-.64c.58-.17,1.17-.32,1.69-.48a7.45,7.45,0,0,0,1.4-.54.65.65,0,0,0,.31-.27s0,0,0-.08a.33.33,0,0,0-.12-.12,4.44,4.44,0,0,0-1.23-.54c-.48-.15-1-.27-1.47-.38-1-.22-1.95-.4-2.84-.54-1.79-.3-3.3-.51-4.36-.65Z"/>
                <g class="cls-17">
                  <path class="cls-18" d="M226.09,328.94s-2.43.24-6.63.79c-2.11.27-4.66.63-7.54,1.15-1.43.26-2.95.57-4.51,1a23.41,23.41,0,0,0-2.3.7,7.89,7.89,0,0,0-1.06.47,2,2,0,0,0-.75.61c-.28.44.39.91,1.14,1.23a16.6,16.6,0,0,0,2.55.82c1.83.46,3.81.81,5.85,1.13s4.17.64,6.31,1.07c.54.11,1.08.22,1.62.36a14.19,14.19,0,0,1,1.62.48,3.89,3.89,0,0,1,.42.19,1.56,1.56,0,0,1,.42.31.49.49,0,0,1,0,.65,1.53,1.53,0,0,1-.51.32,7.82,7.82,0,0,1-1.8.4c-2.33.31-4.66.4-7,.51s-4.76.15-7.18.2c-4.82.1-9.73.15-14.63.2s-9.8.05-14.62.1-9.53.24-14.08.58c-2.27.16-4.5.38-6.64.67-1.07.14-2.13.31-3.13.52a9.35,9.35,0,0,0-2.65.88c-.14.11-.27.21-.29.3a.32.32,0,0,0,.07.3,2.74,2.74,0,0,0,1,.61,18.82,18.82,0,0,0,2.63.85c1.83.47,3.67.82,5.44,1.12s3.5.56,5.13.8l4.66.63c2.93.37,5.5.65,7.62.88,4.23.46,6.66.7,6.66.7l-1.75-.13c-1.15-.09-2.82-.21-5-.4s-4.71-.42-7.66-.74-6.28-.69-9.88-1.26c-1.79-.29-3.66-.61-5.55-1.07a19.65,19.65,0,0,1-2.83-.88l-.34-.16-.33-.18a3.53,3.53,0,0,1-.32-.21,2.4,2.4,0,0,1-.28-.27.73.73,0,0,1-.17-.73,1.26,1.26,0,0,1,.52-.6,9.88,9.88,0,0,1,3-1.08c1-.24,2.13-.42,3.22-.58,2.19-.33,4.44-.54,6.73-.72,4.59-.36,9.35-.55,14.19-.64s9.73-.12,14.63-.16,9.8-.06,14.61-.14c2.41,0,4.8-.09,7.15-.17s4.69-.19,6.88-.46a7.13,7.13,0,0,0,1.46-.31c.05,0,.05,0,.09,0h0s0,0,0,.07,0,0,0,0a.55.55,0,0,0-.16-.11l-.28-.13a13.74,13.74,0,0,0-1.45-.44c-.51-.13-1-.25-1.55-.36-2.09-.45-4.18-.79-6.23-1.14s-4-.72-5.92-1.22a17.33,17.33,0,0,1-2.69-.9,4.17,4.17,0,0,1-1.14-.72l-.11-.12-.1-.13a.88.88,0,0,1-.12-.28.81.81,0,0,1,0-.31,1,1,0,0,1,.12-.28,2.56,2.56,0,0,1,1-.81,8.7,8.7,0,0,1,1.18-.5,22.69,22.69,0,0,1,2.42-.7c1.6-.37,3.14-.65,4.6-.88,2.91-.47,5.48-.77,7.6-1s3.79-.38,4.93-.48Z"/>
                  <path class="cls-18" d="M250,330.6s-3.29.23-9,.78c-2.86.29-6.34.64-10.29,1.19-2,.29-4.06.6-6.18,1.09-.53.13-1.06.27-1.57.43a4.75,4.75,0,0,0-1.34.6c-.17.13-.24.25-.2.35a.93.93,0,0,0,.41.36,7.49,7.49,0,0,0,1.54.55,68.36,68.36,0,0,0,7.44,1.28c2.62.38,5.33.8,8.09,1.32,1.37.27,2.76.55,4.15.9.7.18,1.39.36,2.08.59.34.12.69.24,1,.38a4.93,4.93,0,0,1,1,.52,1.64,1.64,0,0,1,.41.42.61.61,0,0,1,.08.6,1,1,0,0,1-.42.48l-.27.17-.27.13a12.38,12.38,0,0,1-2.26.6c-1.52.27-3.06.43-4.61.57-6.21.52-12.65.61-19.17.68s-13.14.15-19.75.29c-3.3.08-6.61.14-9.86.36-.81.05-1.62.12-2.39.22a6.82,6.82,0,0,0-1,.2l-.09,0s0,0,.06-.07a.22.22,0,0,0,0-.16c0-.06-.05,0,0,0l.17.08a7.38,7.38,0,0,0,1,.29c.37.09.76.17,1.14.24.77.15,1.56.28,2.35.41,3.15.49,6.33.88,9.47,1.25l4.7.54c1.56.19,3.11.41,4.63.66s3,.54,4.48.94a14.07,14.07,0,0,1,2.13.73,4.09,4.09,0,0,1,1,.58,1.11,1.11,0,0,1,.49.95,1.42,1.42,0,0,1-.64.88,6.13,6.13,0,0,1-1,.52,15.14,15.14,0,0,1-2.07.67,41.79,41.79,0,0,1-4.21.84c-2.79.44-5.54.74-8.21,1s-5.24.41-7.72.55c-5,.29-9.51.42-13.55.49s-7.56.1-10.46.1-5.17,0-6.72-.05l-2.38,0h2.38l6.72-.08c2.9,0,6.41-.11,10.44-.25s8.57-.34,13.51-.66c2.46-.16,5-.36,7.67-.62s5.36-.58,8.1-1c1.37-.24,2.75-.5,4.07-.86a14.44,14.44,0,0,0,1.89-.63,4.47,4.47,0,0,0,.76-.41.82.82,0,0,0,.35-.45c0-.14-.08-.29-.26-.44a3.43,3.43,0,0,0-.74-.43,14.08,14.08,0,0,0-1.93-.66c-1.38-.36-2.85-.64-4.34-.89s-3-.45-4.56-.63l-4.7-.53c-3.16-.36-6.35-.74-9.55-1.23-.8-.12-1.6-.26-2.4-.41-.41-.07-.81-.15-1.21-.25a9,9,0,0,1-1.24-.36l-.34-.15a1,1,0,0,1-.38-.35.41.41,0,0,1,0-.36.6.6,0,0,1,.22-.25,1.43,1.43,0,0,1,.42-.2,8.13,8.13,0,0,1,1.33-.28c.84-.11,1.67-.18,2.5-.24,3.32-.23,6.64-.31,9.95-.39,6.63-.12,13.25-.16,19.77-.23s12.93-.12,19-.62c1.53-.12,3-.28,4.47-.54s3.19-.73,2.24-1.19a6.81,6.81,0,0,0-1.69-.77c-.64-.22-1.3-.41-2-.58-1.35-.35-2.71-.65-4.07-.92-2.72-.54-5.4-1-8-1.38a72.55,72.55,0,0,1-7.53-1.37,8.89,8.89,0,0,1-1.7-.64,1.38,1.38,0,0,1-.64-.62.86.86,0,0,1,0-.22,1.42,1.42,0,0,1,.07-.22,2.09,2.09,0,0,1,.14-.17c.05-.06.11-.1.16-.15a3.58,3.58,0,0,1,.77-.41c.27-.11.54-.21.81-.29.55-.17,1.1-.3,1.64-.42,2.19-.47,4.3-.75,6.29-1,4-.5,7.47-.8,10.35-1s5.15-.39,6.69-.49Z"/>
                </g>
              </g>
              <g class="cls-17">
                <path class="cls-19" d="M348.77,221.71c-37.58-.52-111.91-1.05-72.25,3.81,29.22,3.58,60.05,5.88,72.25,7Z"/>
                <path class="cls-19" d="M348.77,230.53c-7.39.35-21.44.31-32.16-.23-23-1.16,27.57,2.76,29.85,13.34,2.56,11.88-41.79,11-20.47,15.07s35,2.32,4.27,5.8c-25.36,2.87-9.42,3.77,18.51,3.34Z"/>
                <path class="cls-19" d="M5.6,203.61c4.58-.28,10.41-.57,17.69-.86C73.88,200.67,50,198.9,31.83,199c-8.23,0-19.61-.12-26.23-.58Z"/>
                <path class="cls-19" d="M5.6,196.33c2.58-.31,6.18-.66,11-1,18.63-1.48,5.94-2.1-11-2.35Z"/>
                <path class="cls-19" d="M16.59,206.89c-3.87-.07-7.62-.17-11-.29v3.62a50.27,50.27,0,0,1,6.72-.43C31.22,209.37,41,207.3,16.59,206.89Z"/>
              </g>
              <g>
                <g>
                  <path class="cls-20" d="M289.86,191.65c0,.37-5.66.54-12.6.4s-12.56-.55-12.54-.91,5.66-.54,12.6-.4S289.87,191.29,289.86,191.65Z"/>
                  <path class="cls-21" d="M258.3,190.8c0,.25-.77.44-1.7.42s-1.66-.23-1.65-.49.77-.43,1.69-.41S258.31,190.55,258.3,190.8Z"/>
                  <path class="cls-21" d="M298.26,191.93c0,.19-1.26.33-2.8.3s-2.78-.22-2.77-.42,1.26-.32,2.8-.29S298.27,191.73,298.26,191.93Z"/>
                  <path class="cls-21" d="M307.74,193.13c0,.14-.74.24-1.64.22s-1.63-.14-1.62-.28.74-.24,1.64-.22S307.75,193,307.74,193.13Z"/>
                  <path class="cls-21" d="M245.19,192c0,.19-.69.34-1.52.32s-1.49-.19-1.48-.38.69-.34,1.52-.33S245.2,191.75,245.19,192Z"/>
                </g>
                <g>
                  <path class="cls-20" d="M261.31,201.32c0,.37-5.66.54-12.6.4s-12.56-.55-12.54-.91,5.66-.54,12.6-.4S261.32,201,261.31,201.32Z"/>
                  <path class="cls-22" d="M76.42,187.09c0,.23-12.64.95-30.79,1.49-33.07,1-34.95.43-35,.2s14.7-.8,32.85-1.26S76.4,186.86,76.42,187.09Z"/>
                  <path class="cls-20" d="M280.82,195.92c0,.36-8.53.55-19,.43s-19-.52-19-.89,8.53-.55,19-.42S280.83,195.55,280.82,195.92Z"/>
                  <path class="cls-20" d="M230.74,192.45c0,.3-4.68.45-10.42.33s-10.39-.46-10.37-.76,4.68-.44,10.42-.33S230.75,192.15,230.74,192.45Z"/>
                  <path class="cls-21" d="M229.75,200.47c0,.25-.77.44-1.7.42s-1.66-.24-1.65-.49.77-.44,1.69-.42S229.76,200.22,229.75,200.47Z"/>
                  <path class="cls-21" d="M312.82,213.19c0,.25-1.43.42-3.16.39s-3.13-.27-3.12-.52,1.43-.43,3.16-.39S312.83,212.94,312.82,213.19Z"/>
                  <path class="cls-21" d="M336.7,201.88c0,.25-1.43.43-3.16.39s-3.13-.27-3.12-.52,1.43-.42,3.16-.39S336.71,201.63,336.7,201.88Z"/>
                  <path class="cls-21" d="M269.71,201.6c0,.19-1.26.33-2.8.29s-2.78-.21-2.78-.41,1.27-.32,2.81-.29S269.72,201.4,269.71,201.6Z"/>
                  <path class="cls-21" d="M279.19,202.8c0,.14-.74.24-1.64.22s-1.63-.14-1.62-.28.74-.24,1.64-.22S279.2,202.66,279.19,202.8Z"/>
                  <path class="cls-21" d="M216.64,201.62c0,.19-.69.33-1.52.32s-1.49-.19-1.48-.38.69-.35,1.51-.33S216.65,201.42,216.64,201.62Z"/>
                  <path class="cls-21" d="M78.38,241.53c0,.19-.68.34-1.51.32s-1.5-.19-1.49-.38.69-.34,1.52-.33S78.39,241.33,78.38,241.53Z"/>
                  <path class="cls-21" d="M143,287.19c0,.19-.69.34-1.52.32s-1.49-.19-1.48-.39.69-.33,1.52-.32S143,287,143,287.19Z"/>
                  <path class="cls-21" d="M69.43,287.19c0,.19-.69.34-1.52.32s-1.49-.19-1.48-.39.68-.33,1.51-.32S69.44,287,69.43,287.19Z"/>
                  <path class="cls-21" d="M48.08,309.25c0,.19-.69.34-1.52.32s-1.49-.19-1.48-.38.69-.34,1.51-.33S48.09,309.05,48.08,309.25Z"/>
                  <path class="cls-21" d="M108.57,288.87c0,.38-1.34.66-2.95.63s-2.9-.37-2.88-.75,1.33-.66,2.94-.62S108.58,288.49,108.57,288.87Z"/>
                  <path class="cls-21" d="M344.33,285.89c0,.38-1.34.66-2.95.62s-2.9-.36-2.88-.74,1.33-.66,2.94-.63S344.34,285.51,344.33,285.89Z"/>
                  <path class="cls-21" d="M307.22,283.28c0,.38-1.33.66-2.94.62s-2.9-.36-2.88-.74,1.33-.66,2.94-.63S307.24,282.9,307.22,283.28Z"/>
                  <path class="cls-21" d="M34.72,309.8c0,.38-1.34.66-2.95.63s-2.9-.37-2.88-.75,1.34-.65,2.94-.62S34.74,309.43,34.72,309.8Z"/>
                  <path class="cls-21" d="M334.66,330.56c0,.19-.69.34-1.51.32s-1.5-.19-1.49-.39.68-.34,1.52-.32S334.67,330.36,334.66,330.56Z"/>
                  <path class="cls-21" d="M321.3,331.11c0,.38-1.34.66-2.95.63s-2.9-.37-2.88-.75,1.33-.66,2.94-.63S321.31,330.73,321.3,331.11Z"/>
                </g>
              </g>
              <g class="cls-23">
                <g>
                  <path class="cls-24" d="M2.05,172l-26.85,1.45v18.26s12.56-.36,26.85-1.81Z"/>
                  <path class="cls-25" d="M370.69,187.32l6.39-11-23.58-6.38v18.83h2.27C373.25,188.77,370.69,187.32,370.69,187.32Z"/>
                  <g class="cls-26">
                    <path class="cls-27" d="M2.05,172l-26.85,1.45V187.6a122.18,122.18,0,0,1,12.91-.29c3.28.18,6.27,1,8.61-.52.79-.53.77-1.35,2.06-1.8a11.45,11.45,0,0,1,3.27-.31Z"/>
                    <path class="cls-28" d="M349.24,168.78l-5.4-1.46-138.08-6.38L6.31,171.72v12.61a72.6,72.6,0,0,1,10.51-1.26c3.93,0,8-.07,11.87-.43,3.57-.34,7.33-.73,10.85-1.12a39,39,0,0,1,9.9.6,40.27,40.27,0,0,0,8,.77c2-.15,3-1,4.91-1,1.74,0,3.53.86,5.32,1s3.93.08,5.8.14c3.52.11,7.06-.15,10.63-.15,7.31,0,13.59-.43,20.82-.2,3.36.12,6.25.91,9.66,1s6.54-.43,9.94-.58c8.2-.36,16.55,1.31,24.56.23,13.82-1.88,27.13-.2,41-.23,7.25,0,14.44-.72,21.65.37,4.75.71,4.54,1.18,11.64.21a70.34,70.34,0,0,1,9.15-.58c10.56,0,21,.19,31.53.19,4.63,0,9.31.26,13.83.67,2.58.23,6,.49,9.12.49,4.74,0,8.81.78,13.65.78,3.78,0,7.62-.13,11.39,0,4,.14,8,.78,12.14.77,4.39,0,8.75-.52,13.13-.39,2.26.07,4.45,1.24,11.64,1.94h.29Z"/>
                    <path class="cls-29" d="M353.5,169.93v17.24a16.34,16.34,0,0,1,3.12-.23c5.94,0,10.6-1.36,15.84-2.67l4.62-8Z"/>
                  </g>
                </g>
              </g>
              <g>
                <g>
                  <g>
                    <path class="cls-30" d="M349.85,172.63,172.6,154.27,19.12,158.91,0,166.07V182.5c5.1,0,13-.38,24.78-1.55,15.27-1.53,14.79.58,59.13.87s39.65.29,73,0c33-.29,39.56,1.15,66.09.29s51.3,2.6,80.43,2.6c19.94,0,37,.95,46.38,1.09Z"/>
                    <path class="cls-31" d="M300.43,184.91s-.07-.08-.17-.22a7.14,7.14,0,0,1-.39-.62c-.07-.12-.13-.27-.2-.42a2.72,2.72,0,0,1-.19-.47c-.05-.17-.11-.35-.17-.52s-.07-.36-.12-.54-.05-.37-.08-.54,0-.36,0-.53,0-.34,0-.5a3.13,3.13,0,0,1,0-.44c.08-.54.15-.9.15-.9s0,.36,0,.91a3,3,0,0,0,0,.43c0,.16,0,.32,0,.49l0,.53c0,.17.07.35.1.53s0,.36.1.53.1.35.15.52.11.32.16.47.11.3.17.43a5.87,5.87,0,0,0,.31.62A2,2,0,0,0,300.43,184.91Z"/>
                    <path class="cls-31" d="M276.19,182.78l.11-.24a6.49,6.49,0,0,0,.27-.63l.14-.42c.05-.15.1-.31.14-.48s.08-.34.13-.51,0-.36.09-.54l.09-.53,0-.52,0-.49a3.08,3.08,0,0,0,0-.43c0-.55,0-.91,0-.91s.07.36.14.9c0,.14,0,.29,0,.44s0,.32,0,.49,0,.35,0,.53-.05.36-.08.54a5.12,5.12,0,0,1-.1.54L277,181a2,2,0,0,1-.17.47l-.17.43c-.14.25-.25.47-.35.61S276.19,182.78,276.19,182.78Z"/>
                    <path class="cls-31" d="M274,182.79l.16-.22c.12-.14.24-.35.41-.6l.23-.4a5.16,5.16,0,0,0,.24-.47l.25-.49c.08-.17.13-.35.2-.52l.21-.52c.05-.17.1-.35.14-.51l.15-.48a4.15,4.15,0,0,0,.09-.43c.1-.54.18-.9.18-.9s0,.36-.06.91a4.16,4.16,0,0,1-.06.44c0,.15-.07.31-.11.48s-.09.34-.13.52-.14.35-.2.53-.13.35-.22.52l-.26.5a4.87,4.87,0,0,1-.27.45l-.27.41a7.31,7.31,0,0,1-.48.57A2.25,2.25,0,0,1,274,182.79Z"/>
                    <path class="cls-31" d="M247.13,181.54a1.43,1.43,0,0,0,.05-.24c0-.16,0-.39.09-.65s0-.29,0-.44a4,4,0,0,0,0-.49c0-.16,0-.34,0-.52s-.05-.35-.07-.53l-.06-.54c0-.17-.07-.35-.11-.51s-.07-.33-.1-.49-.09-.29-.13-.43c-.17-.52-.26-.88-.26-.88s.16.34.38.87a2.61,2.61,0,0,1,.16.42c0,.16.09.32.13.49s.09.34.13.51.05.36.08.55,0,.36,0,.54v.52a2.53,2.53,0,0,1,0,.49c0,.16,0,.31-.06.44a4.88,4.88,0,0,1-.17.65A1.78,1.78,0,0,1,247.13,181.54Z"/>
                    <path class="cls-31" d="M249.45,181.45a1.43,1.43,0,0,0,.05-.25c0-.15.05-.38.09-.65s0-.28,0-.44a3.84,3.84,0,0,0,0-.48c0-.17,0-.35,0-.52s0-.36-.07-.54l-.06-.54c0-.17-.08-.34-.11-.51s-.07-.33-.1-.48a3.68,3.68,0,0,0-.13-.43c-.17-.53-.26-.89-.26-.89s.16.34.38.87a3.54,3.54,0,0,1,.16.43c0,.15.09.31.13.48s.09.34.13.52.05.36.08.54.05.36.05.54v.53a2,2,0,0,1,0,.49c0,.15,0,.3,0,.44a5.34,5.34,0,0,1-.17.65C249.49,181.36,249.45,181.45,249.45,181.45Z"/>
                    <path class="cls-31" d="M232.41,181.55a1.43,1.43,0,0,1-.12-.24,6.54,6.54,0,0,1-.24-.64c0-.13-.07-.28-.11-.43a2.5,2.5,0,0,1-.09-.49l-.06-.53a4.77,4.77,0,0,1,0-.54c0-.18,0-.36,0-.54s0-.35.07-.52,0-.34.07-.49.08-.3.11-.44c.16-.53.29-.88.29-.88s-.06.36-.16.9a2.74,2.74,0,0,0-.08.43c0,.15,0,.32-.05.49s0,.34,0,.52v.53c0,.18,0,.36,0,.54s0,.35,0,.52a3.5,3.5,0,0,0,.06.48c0,.16.05.3.07.44s.1.49.16.64A1.68,1.68,0,0,0,232.41,181.55Z"/>
                    <path class="cls-31" d="M215.16,180.69s0-.09,0-.24,0-.38.07-.65,0-.58,0-.92v-.52c0-.17,0-.35,0-.53s0-.36,0-.53-.05-.35-.06-.52,0-.33-.05-.48,0-.3-.07-.43c-.09-.54-.14-.9-.14-.9s.11.35.26.89a3.92,3.92,0,0,1,.1.43c0,.15.06.31.08.48s.06.34.08.52,0,.35,0,.54,0,.36,0,.53,0,.36,0,.52a3.74,3.74,0,0,1,0,.49l-.06.44a5.66,5.66,0,0,1-.15.64A1.78,1.78,0,0,1,215.16,180.69Z"/>
                    <path class="cls-31" d="M214,179.72a2.26,2.26,0,0,0,0-.24c0-.16,0-.38.07-.65s0-.58,0-.92v-.51c0-.18,0-.36,0-.54s0-.35,0-.53,0-.35-.06-.51,0-.33-.05-.49,0-.3-.07-.43c-.09-.53-.14-.89-.14-.89s.12.35.26.88c0,.13.08.28.1.43l.09.48c0,.17.05.35.07.52s0,.36,0,.54,0,.36,0,.54,0,.35,0,.52a3.58,3.58,0,0,1,0,.48c0,.16,0,.3-.06.44a5.17,5.17,0,0,1-.15.64A1.29,1.29,0,0,1,214,179.72Z"/>
                    <path class="cls-31" d="M107.48,180.7a2.26,2.26,0,0,0,0-.24c0-.16.06-.38.1-.65s.07-.58.07-.91l0-.52c0-.18,0-.35,0-.53v-.54c0-.17,0-.35,0-.51l0-.49a2.82,2.82,0,0,0,0-.43c-.06-.54-.09-.9-.09-.9s.1.36.22.89c0,.13.06.28.08.43l.06.49c0,.17,0,.34,0,.52s0,.36,0,.54,0,.36,0,.53,0,.35,0,.52a2.53,2.53,0,0,1-.06.49c0,.15,0,.3-.08.43a4.46,4.46,0,0,1-.18.64A1.29,1.29,0,0,1,107.48,180.7Z"/>
                    <path class="cls-31" d="M106.36,179.72l0-.25c0-.15,0-.38.09-.65s.07-.58.08-.91c0-.17,0-.34,0-.52s0-.35,0-.53v-.54c0-.17,0-.35,0-.51l0-.49c0-.15,0-.3,0-.43-.07-.54-.1-.9-.1-.9s.1.36.22.89a4.25,4.25,0,0,1,.09.44c0,.15,0,.31.06.48s0,.34,0,.52,0,.36,0,.54,0,.36,0,.53,0,.35,0,.52a3.61,3.61,0,0,1-.07.49c0,.15,0,.3-.07.43s-.13.49-.18.64A2.56,2.56,0,0,1,106.36,179.72Z"/>
                    <path class="cls-31" d="M19.18,180.12s0-.09-.09-.24-.11-.38-.18-.64-.05-.29-.07-.44a2.53,2.53,0,0,1-.07-.48c0-.17,0-.35,0-.53s0-.35,0-.53,0-.36,0-.54,0-.35.05-.52,0-.33.06-.48.06-.3.09-.44c.12-.53.21-.88.21-.88s0,.36-.09.89a3,3,0,0,0,0,.43l0,.49c0,.17,0,.34,0,.51v.54c0,.18,0,.36,0,.53l0,.52c0,.33.05.65.07.91s.06.5.1.65Z"/>
                    <path class="cls-31" d="M20.29,179.13s0-.09-.09-.24-.11-.38-.17-.64S20,178,20,177.81a3.5,3.5,0,0,1-.06-.48c0-.17,0-.34,0-.52s0-.36,0-.54,0-.36,0-.54l.06-.52q0-.26.06-.48c0-.16.06-.3.08-.44.12-.53.22-.88.22-.88s0,.36-.09.89c0,.14-.05.28-.06.44s0,.31,0,.48,0,.34,0,.52v.53a4.73,4.73,0,0,0,0,.53l0,.52c0,.34.05.65.07.92s.06.49.1.64S20.29,179.13,20.29,179.13Z"/>
                    <path class="cls-31" d="M196,180.59a2.46,2.46,0,0,1-.07-.24,5.17,5.17,0,0,1-.15-.64c0-.14,0-.28-.06-.44a3.58,3.58,0,0,1,0-.48c0-.17,0-.35,0-.52s0-.36,0-.54,0-.36,0-.54.05-.35.07-.52.06-.33.08-.48.08-.3.11-.43c.14-.53.26-.88.26-.88s-.05.36-.14.89c0,.14-.06.28-.07.43s0,.32,0,.48l-.06.52,0,.54c0,.17,0,.35,0,.53s0,.35,0,.51c0,.34,0,.65,0,.92s0,.49.07.65Z"/>
                    <path class="cls-31" d="M197.35,180.31a1.68,1.68,0,0,1-.08-.25c-.05-.15-.09-.37-.15-.64s0-.28-.05-.44a2.44,2.44,0,0,1,0-.48c0-.17,0-.35,0-.52s0-.36,0-.54,0-.36,0-.54.05-.35.08-.52.05-.33.08-.48.07-.3.1-.43c.15-.53.26-.88.26-.88s0,.36-.13.89a2.76,2.76,0,0,0-.07.43c0,.16,0,.32,0,.48s-.05.35-.07.52,0,.35,0,.53,0,.36,0,.54v.51c0,.34,0,.65,0,.92s0,.5.07.65S197.35,180.31,197.35,180.31Z"/>
                    <path class="cls-31" d="M181.58,180.25l.11-.24c.07-.15.13-.37.24-.63s.19-.57.28-.9c0-.16.09-.33.14-.5s.08-.36.12-.53l.12-.53c0-.18,0-.35.08-.52s.05-.32.08-.48,0-.3.05-.43c0-.54.1-.89.1-.89s0,.35,0,.9c0,.13,0,.28,0,.43s0,.32-.06.49,0,.34-.06.52-.08.35-.11.53-.08.35-.13.53-.11.34-.16.51a3.75,3.75,0,0,1-.17.47l-.17.42c-.13.26-.24.47-.33.62A2,2,0,0,1,181.58,180.25Z"/>
                    <path class="cls-31" d="M179.8,179.81l.1-.24c.07-.15.14-.37.24-.63s.2-.57.28-.9q.08-.24.15-.51c0-.17.07-.35.11-.53l.12-.52c0-.18,0-.35.08-.52s.06-.33.08-.48a3.56,3.56,0,0,0,0-.43c.06-.54.11-.9.11-.9s0,.36,0,.9a3.3,3.3,0,0,1,0,.44c0,.15,0,.32-.05.48s0,.34-.07.52-.07.36-.1.54-.08.35-.13.53-.11.34-.16.51a3.8,3.8,0,0,1-.18.47l-.17.42a6.73,6.73,0,0,1-.32.62Z"/>
                    <path class="cls-31" d="M162.17,179.8a1.51,1.51,0,0,1,0-.25c0-.16.07-.38.13-.65s.09-.27.13-.43.1-.31.17-.47l.21-.5c.07-.17.16-.34.24-.51s.18-.35.27-.51l.29-.48.29-.45c.09-.14.19-.27.28-.4.37-.48.63-.79.63-.79s-.2.34-.52.83c-.07.12-.17.25-.25.4s-.16.3-.25.45l-.28.48-.25.51c-.09.17-.18.34-.26.51s-.15.33-.22.49c-.15.32-.25.63-.36.89s-.17.48-.21.63S162.17,179.8,162.17,179.8Z"/>
                    <path class="cls-31" d="M101.73,180.51a1.33,1.33,0,0,1-.08-.23c-.05-.16-.11-.38-.17-.65s0-.28-.07-.43a3.65,3.65,0,0,1-.06-.49l0-.52c0-.17,0-.35,0-.53s0-.37,0-.54l.06-.52c0-.17,0-.33.07-.49s.06-.29.09-.43c.13-.53.23-.88.23-.88s0,.35-.1.89c0,.14,0,.28-.06.43s0,.32,0,.49,0,.34,0,.51,0,.36,0,.54,0,.35,0,.53,0,.35,0,.52c0,.33,0,.64.06.91s.05.5.09.65A2.26,2.26,0,0,0,101.73,180.51Z"/>
                    <path class="cls-31" d="M154,179.93a1.29,1.29,0,0,1-.08-.24,5.17,5.17,0,0,1-.15-.64c0-.14,0-.28-.06-.44a3.58,3.58,0,0,1,0-.48c0-.17,0-.34,0-.52s0-.36,0-.54,0-.36,0-.54,0-.35.08-.52.05-.33.08-.48.07-.3.1-.43c.14-.53.26-.88.26-.88s0,.36-.14.89c0,.13-.06.28-.07.43s0,.32-.05.48l-.06.52c0,.18,0,.36,0,.54s0,.35,0,.53v.52c0,.33,0,.64,0,.91s0,.49.07.65A2.26,2.26,0,0,0,154,179.93Z"/>
                    <path class="cls-31" d="M152.37,179.65s0-.09-.07-.25a5.17,5.17,0,0,1-.15-.64c0-.14,0-.28-.06-.44a3.58,3.58,0,0,1,0-.48c0-.17,0-.35,0-.52s0-.36,0-.54l0-.54c0-.17.06-.35.08-.52s.05-.33.08-.48.07-.3.11-.43c.14-.53.25-.88.25-.88s0,.36-.13.89c0,.13-.06.28-.07.43s0,.32-.05.48l-.06.52,0,.53c0,.18,0,.36,0,.54s0,.35,0,.52c0,.33,0,.64,0,.91s0,.49.07.65Z"/>
                    <path class="cls-31" d="M76.92,180.37s0-.09,0-.25,0-.37.07-.64,0-.58,0-.92V178c0-.17,0-.35,0-.53s0-.36,0-.54l-.06-.51c0-.17,0-.33,0-.48s-.05-.3-.07-.43c-.09-.54-.14-.9-.14-.9s.12.35.26.88c0,.14.08.28.1.43s.06.32.08.49.05.34.08.52,0,.35,0,.53,0,.36,0,.54,0,.35,0,.52a3.74,3.74,0,0,1,0,.49,3.68,3.68,0,0,0-.06.43c-.06.27-.11.49-.15.65Z"/>
                    <path class="cls-31" d="M28.51,179.69a2.26,2.26,0,0,0,0-.24c0-.16,0-.38.07-.65s0-.58,0-.92c0-.17,0-.34,0-.51s0-.36,0-.54,0-.36,0-.53l-.06-.52c0-.16,0-.33-.05-.48s0-.3-.07-.43c-.09-.54-.14-.89-.14-.89s.12.35.26.88c0,.13.08.27.11.43s.05.32.08.48.05.34.07.52,0,.36,0,.54,0,.36,0,.54,0,.35,0,.52a3.58,3.58,0,0,1,0,.48c0,.16,0,.3-.06.44a5.66,5.66,0,0,1-.15.64A1.29,1.29,0,0,1,28.51,179.69Z"/>
                    <path class="cls-31" d="M78.52,180.08l0-.25c0-.15,0-.38.07-.64s0-.58,0-.92c0-.17,0-.34,0-.52s0-.35,0-.53l0-.54-.06-.51c0-.17,0-.33-.05-.48a4.3,4.3,0,0,0-.07-.43c-.09-.54-.13-.9-.13-.9s.11.35.25.88c0,.14.08.28.11.44s0,.31.08.48,0,.34.07.52,0,.35,0,.53,0,.37,0,.54,0,.35,0,.52a3.74,3.74,0,0,1,0,.49c0,.15,0,.3-.06.43a5.91,5.91,0,0,1-.15.65C78.55,180,78.52,180.08,78.52,180.08Z"/>
                    <path class="cls-31" d="M56.23,180.59a2.6,2.6,0,0,1-.11-.27,6.25,6.25,0,0,1-.23-.72c0-.15-.07-.31-.11-.48a4.85,4.85,0,0,1-.09-.55l-.06-.58c0-.2,0-.41,0-.61s0-.4,0-.6,0-.4.05-.59,0-.37.07-.54.07-.34.1-.49c.14-.6.25-1,.25-1s0,.41-.13,1a3.46,3.46,0,0,0-.06.49c0,.17,0,.35,0,.54s0,.38,0,.58,0,.4,0,.6a6,6,0,0,0,0,.6c0,.2,0,.39,0,.58a4.87,4.87,0,0,0,.06.55c0,.17.05.33.07.48s.1.55.15.72S56.23,180.59,56.23,180.59Z"/>
                    <path class="cls-31" d="M54.12,180.21a2.6,2.6,0,0,1-.11-.27,6.25,6.25,0,0,1-.23-.72c0-.15-.07-.31-.11-.48a4.85,4.85,0,0,1-.09-.55l-.06-.58c0-.2,0-.41,0-.61s0-.4,0-.6l.06-.59q0-.28.06-.54c0-.18.07-.34.1-.49.14-.6.25-1,.25-1s0,.41-.13,1a3.46,3.46,0,0,0-.06.49c0,.17,0,.35,0,.54s0,.38,0,.58,0,.4,0,.6,0,.4,0,.6,0,.39,0,.58,0,.37.06.54.05.34.07.49.1.55.15.72S54.12,180.21,54.12,180.21Z"/>
                    <path class="cls-31" d="M35.86,180.4a1.75,1.75,0,0,1-.11-.27,6.67,6.67,0,0,1-.23-.71c0-.15-.07-.32-.11-.49a4.21,4.21,0,0,1-.09-.55c0-.18,0-.38-.06-.58s0-.4,0-.6,0-.41,0-.61,0-.39,0-.59.05-.37.07-.54a3.54,3.54,0,0,1,.1-.49c.13-.6.25-1,.25-1s0,.4-.13,1a3.46,3.46,0,0,0-.06.49c0,.17,0,.35,0,.54s0,.39,0,.58,0,.4,0,.6,0,.41,0,.6,0,.4,0,.58a4.87,4.87,0,0,0,.06.55c0,.17,0,.33.07.48s.09.55.15.73S35.86,180.4,35.86,180.4Z"/>
                    <path class="cls-31" d="M34,179.82s0-.1-.07-.27-.07-.43-.11-.73,0-.32,0-.5a3.24,3.24,0,0,1,0-.54l0-.59c0-.2,0-.4.08-.6s.07-.4.1-.6l.15-.58q.08-.28.15-.54a3.41,3.41,0,0,1,.18-.48c.23-.58.4-1,.4-1s-.1.4-.29,1c0,.15-.1.31-.13.48l-.12.54c-.05.19-.09.38-.14.57s-.05.4-.08.6-.08.4-.09.6,0,.39,0,.58a5.17,5.17,0,0,0,0,.54c0,.18,0,.34,0,.49,0,.3,0,.56,0,.73Z"/>
                    <path class="cls-31" d="M128.33,180.53s0-.09-.07-.25a6.28,6.28,0,0,1-.12-.64c0-.14,0-.29,0-.44a3.85,3.85,0,0,1,0-.49c0-.17,0-.34,0-.52a4.91,4.91,0,0,1,0-.53l.06-.54c0-.17.06-.35.1-.52s.07-.33.1-.48.08-.29.12-.43c.17-.52.3-.87.3-.87s-.06.35-.18.89c0,.13-.07.27-.09.42s0,.32-.07.49-.05.34-.08.51,0,.36,0,.54,0,.35-.05.53,0,.35,0,.52c0,.33,0,.64,0,.91s0,.49,0,.65Z"/>
                    <path class="cls-31" d="M126.75,180.21s0-.09-.07-.25-.08-.38-.12-.64,0-.29,0-.44a3.85,3.85,0,0,1,0-.49c0-.17,0-.34,0-.52s0-.35,0-.53,0-.37.07-.54.06-.35.1-.52.06-.33.1-.48.08-.29.12-.43c.17-.53.3-.88.3-.88s-.06.36-.18.9c0,.13-.07.27-.09.43s0,.31-.07.48,0,.34-.08.51,0,.36,0,.53,0,.36-.05.54,0,.35,0,.51c0,.34,0,.65,0,.92s0,.49,0,.65Z"/>
                    <path class="cls-31" d="M270.43,181.91s0-.32,0-.8c0-.24,0-.52,0-.82s0-.62,0-.94,0-.64,0-.94,0-.58.06-.82c0-.48.08-.8.08-.8s0,.32,0,.8c0,.24,0,.52,0,.82s0,.62,0,.94,0,.64,0,.94,0,.58-.06.82C270.47,181.59,270.43,181.91,270.43,181.91Z"/>
                    <g class="cls-26">
                      <path class="cls-32" d="M349.85,172.63,172.6,154.27,19.12,158.91,0,166.07V182.5c1.44,0,3.09,0,5-.11C5.77,180.25,7,178,8.9,177.61c3.7-.72,2.83,4.06,3.48,1.45s5-4.64,5.44,0c.08.91.12,1.74.16,2.51l4.64-.41c0-.26,0-.52,0-.8,0-4.07,4.49-6,4.37.38,1.06-.09,2.05-.16,3-.21,0-.15,0-.31,0-.46.21-3.71,3-3.76,2.68.35,1.65,0,3.23,0,4.93,0,.21-5.24,5.47-4.62,6.3-2.25s.66,2.17,1.74,0,4.57-1.74,4.79.73c0,.6.1,1.35.22,2.13,2.11.1,4.47.19,7.15.28a6.59,6.59,0,0,1-.2-2.27c.38-2.88,4.13-2.61,7.39-.72s2.61.58.22-1.45,1.74-.87,3.48,1,2.17,1.74,3.47-.72,4.35-.58,3.27,4.35a1.42,1.42,0,0,0,0,.2l3.8.05a4.92,4.92,0,0,0,.37-2.14c-.22-4.35,3.69-4.35,7.61-1.74s3,2.32,4.12,0,4.35-1.59,5.22.44S98,180.07,98,178s2.57-3.44,2.61,3.88l9.41.06c.52-4.71,2.41-7.15,4.51-4.08s1.3,1.45.87-.58.43-.58,3.47,1,2.83,1.45,1.74-.15,3.92-1.45,4.13,1.88c0,.71.06,1.37.06,2h5.91c0-.2-.06-.42-.1-.64-.87-4.78,2.83-5.22,5.87-3.19s2.61.58.87-.87.44-1,2,.44,1.3.87,2-.58.43,2.61,2.39,1,2.39-3.33,3.26-.87.43,2,1.74,0,1.52-.59,1.95,4.55l4.77,0c0-.15,0-.3,0-.45,0-4.35,1.08-7.1,2.6-4.49s1.53,2.17,1.31-.44,2.39.15,1.74,2.61a24.32,24.32,0,0,0-.61,2.73h2.8a18.16,18.16,0,0,1,.85-2.57c1.52-3.63,4.78-3.77,5.66-2.32s-.44,3.91.86,1.45,2.83-2.32,2.83-.15.87,1,1.09-.58,4.35,1.31,3.69-.43,2.83-.73,0,3.91c-.17.28-.31.54-.42.77l5.85.11c1.27-2.18,1.82-6.34,3.27-4.65,1.74,2,2,2.18,1.74.29s.87,0,3.26.58c2.17.53,2.37,2,2.06,4,2.69.07,5.33.12,8.09.15a7,7,0,0,1-.37-4.17c.44-1.88,2.61-2.61,5.22-.87s2.83,2.32,1.74.15,4.51-1,3.94,4.88l4.6-.08a6.68,6.68,0,0,0,.15-1.18c.22-5.07,2.18-4.64,2.4-2.9s1.3.58,4.13-.58.21,1.89,3.69.87c2.72-.79,2.12,1.25,2.45,3.49,1.86,0,3.71,0,5.55,0-.76-4.53.92-4.65,1.13-3.65s2.18-.44,4.79-1.45,2.6.43,3,2.9c.11.65.27,1.51.51,2.44,14.12.51,28.24,1.66,43.33,2.2,2.78-4,5.35-4.8,8.2.22,2.26,0,4.56.06,6.87.06-.55-5.25,4.35-2.32,11.31-2.6,4.39-.19,5.14,1,5.32,2.8,12.64.29,23.13.79,29.75.89Z"/>
                    </g>
                    <g class="cls-26">
                      <path class="cls-33" d="M22.82,167s-11.88.34-22.83.73V182.5c.85,0,1.77,0,2.78,0a10.25,10.25,0,0,1,2.22-5c2.61-2.76,6.52-2,6.74-1s1.3,0,3.26-1,3-.87,3.26,2.17a12.14,12.14,0,0,0,.95,3.86l1.38-.13q0-.18.06-.39c.44-3.63.22-4.35,2.83-5.95s4.78-.29,5,1.6,1.74,0,1.74-2S22.82,167,22.82,167Z"/>
                    </g>
                    <path class="cls-34" d="M107.6,178c-.87-8.4-1.52-1.44-2.17.3s-1.31,2.17-2.61,1.88-1.52-4.49-1.74-2.32a11.65,11.65,0,0,0,.64,4l5.68,0A16.76,16.76,0,0,0,107.6,178Z"/>
                    <g class="cls-35">
                      <path class="cls-36" d="M349.85,172.63l-74.3-7.7c-.63,8.63-1.94,17.1-2.95,17.18-2,.14-1.52-5.8-2.61-1.89s-3.26,2.61-6.74,1.16-7.82.44-10.65-.29-3.26-3.77-3.26-1.45a9.08,9.08,0,0,1-.49,2.74c17.47.77,35.07,2.33,54.62,2.33,19.94,0,37,.95,46.38,1.09Z"/>
                    </g>
                  </g>
                  <path class="cls-31" d="M324.9,184.43a2.28,2.28,0,0,1-.1-.21,3,3,0,0,1-.21-.56l-.09-.38a2,2,0,0,1-.07-.44l0-.46a2.57,2.57,0,0,1,0-.48l0-.48c0-.15.07-.31.1-.46s.07-.29.1-.42a1.88,1.88,0,0,1,.13-.38c.18-.47.32-.77.32-.77s-.07.31-.2.78a2.11,2.11,0,0,0-.1.38c0,.14,0,.28-.07.43s-.05.3-.08.45,0,.32,0,.48,0,.31,0,.47,0,.31,0,.46a2.85,2.85,0,0,0,0,.42c0,.14,0,.27,0,.39s.08.43.13.57A1.26,1.26,0,0,0,324.9,184.43Z"/>
                  <path class="cls-31" d="M326.23,184.71s0-.32,0-.8c0-.24,0-.52,0-.82s0-.62,0-.94,0-.64,0-.94,0-.58.06-.82c0-.48.08-.8.08-.8s0,.32,0,.8c0,.24,0,.52,0,.82s0,.62,0,.94,0,.64,0,.94,0,.58-.06.82C326.27,184.39,326.23,184.71,326.23,184.71Z"/>
                  <path class="cls-31" d="M334.68,184.23s0-.32-.06-.8c0-.24,0-.52,0-.82s0-.62,0-.94,0-.64,0-.94,0-.58,0-.82c0-.48.07-.8.07-.8s0,.32,0,.8c0,.24,0,.52,0,.82v.94c0,.32,0,.64,0,.94s0,.58,0,.82C334.71,183.91,334.68,184.23,334.68,184.23Z"/>
                </g>
                <g>
                  <path class="cls-37" d="M167.22,177.8a23.31,23.31,0,0,0-2,3.48c-.24.47,2.12.53,2.3.17a8.09,8.09,0,0,0,.93-3.55c0-.48-1-.43-1.2-.1Z"/>
                  <g class="cls-17">
                    <path class="cls-38" d="M93.3,178a24.6,24.6,0,0,0-2,3.48c-.23.46,4.41.59,4.59.24.59-1.18,0-2.32-1.35-3.63-.41-.39-1-.43-1.21-.09Z"/>
                  </g>
                  <path class="cls-39" d="M158.07,177.69a20.15,20.15,0,0,1,1,3.67c.09.48-2.24.24-2.31-.13a7.68,7.68,0,0,1,.11-3.6c.16-.47,1.06-.3,1.21.06Z"/>
                  <path class="cls-40" d="M135.82,179.09a6.32,6.32,0,0,1,2.29,2.15c.09.48-5.35.75-5.42.38-.13-.67-.75-3.05.17-3.57C133.4,177.74,134.67,178.32,135.82,179.09Z"/>
                  <g class="cls-41">
                    <path class="cls-42" d="M85,178.8A6.32,6.32,0,0,1,87.24,181c.09.48-5.35.75-5.42.38-.13-.67-.75-3.06.17-3.57C82.53,177.45,83.79,178,85,178.8Z"/>
                  </g>
                  <g class="cls-41">
                    <path class="cls-43" d="M63,178.7c1,.68,1.95,1.52,2,1.91s-4.73.67-4.8.34c-.11-.6-.66-2.71.15-3.16C60.84,177.52,62,178,63,178.7Z"/>
                  </g>
                  <path class="cls-44" d="M207.42,179.28c1.15.76,2.2,1.71,2.28,2.15s-5.34.75-5.42.38c-.13-.67-.74-3.05.17-3.57C205,177.94,206.26,178.52,207.42,179.28Z"/>
                  <path class="cls-45" d="M113.66,179.08a4,4,0,0,1,.8,2c-.07.47-3.37.82-3.31.46.09-.65.34-3,1-3.47C112.56,177.81,113.17,178.35,113.66,179.08Z"/>
                  <path class="cls-46" d="M175.3,178.88a13.27,13.27,0,0,1-1.83,2.36c-.29.32,2.3.51,2.5.29.93-1,1.3-2.18.59-2.77a1.19,1.19,0,0,0-1.26.12Z"/>
                  <g class="cls-17">
                    <path class="cls-47" d="M118.55,179.17a11.4,11.4,0,0,1,3,2.45c.29.33-3.5.42-3.7.2-.93-1-1.8-2.8-1.09-3.39.26-.21.58,0,1.75.74Z"/>
                  </g>
                </g>
              </g>
              <g>
                <g>
                  <g>
                    <path class="cls-18" d="M60.78,173.34Z"/>
                    <path d="M60.66,173.46l-.21-.1-.06,0h0c-.12-.07-.13-.1-.1-.17l.05-.1h.16a.23.23,0,0,1,.12,0h0l.24.11Z"/>
                  </g>
                  <g>
                    <path class="cls-18" d="M273,175.49Z"/>
                    <path d="M272.88,175.6l-.21-.11-.05,0h0c-.12-.07-.11-.1-.08-.17l0-.09h.15a.24.24,0,0,1,.13,0h0l.23.12Z"/>
                  </g>
                  <g>
                    <path class="cls-18" d="M180.33,173Z"/>
                    <path d="M180.28,173.16l-.17,0h0c-.13,0-.19-.07-.17-.16l0-.12h.19l.25,0,0,.12h0Z"/>
                  </g>
                  <path class="cls-48" d="M348.24,180.71v-1.17a3.52,3.52,0,0,1-.92-.77,7.93,7.93,0,0,0,.92.31v-57c-57.49-.39-116,1.25-194.43,3-35.59.79-70-1.94-105.54-.25-15.19.71-28.19.64-42.67.68V175.6c1.36-.22,2.89-.51,4.6-.9,9.62-2.2,4.25-.81,0,.77s2.85.17,8.78-1.8-.49.39-1.54,1.41-1.05.73,4-1.05,1.7.28-2.11,1.47,1.5.57,6.8-.92,1.49,0,0,1.15.22.58,5.3-1.19,2.56.12,3.66,2.43.19-1.59.81-2.47,0,1.74,4.73,2.43,0-.44-1.75-2.45,1.52,1.58,7.92,2.26-.43-.29-2.38-2.31,1.94,1.44,8.33,2,.43,0-3.44-2,4.7.54,5.78,1.4.83-1.16-1.95-2,2.77.12,5.14,2.28.62-1.31-.68-2.9,3,1,4.73,3,1.9-1.17-1.11-2.6l-.5-.24h0A53.12,53.12,0,0,0,67.5,176c2.78.7.41-.59-2.38-2.3s5.34,1.26,7.08,3.42.4-1.45-2.18-2.88,1.3,1,4.9,0,0,.14-.18,1.74.21-.15,4-1.77.42-.44-.18,1.6,1.05-.59,4-2.21.85.28,1.52,2.31c0,0,.08.39.63-.68s1.52-2.53,1.68-1.56,1.59,2.11,3.88,2.77S89,175.93,89,174.09s-.56.3,3.29,1.52.14-.19,0-1.54,3,1.33,3.87,2.77.69-1.55-.9-2.8,2.28.37,2.74,2,1.83-.88.1-2.41,2.43.85,3.59,2.38,1-.87,0-2,2,.67,2.6,2.3,1.14.19.26-1.54.7-.59,1.58,1.14,1-.1-.18-1.93,2.86,1.14,2.89,2.88,2-.31,1.52-2.24-.55.68,3.11-.7-.56.49-1.39,1.85.57-.49,3.53-1.19,1.15.48,3.73,2.29.86.38.82-1.84.31,1.16,4.44,2.29-.14-.29-1.32-2.41,0,.58,4.15,1.71.29.38-1.16-1.44,4,.93,4.3,2.48,1.55-.59-.76-2.9,1.73,1.44,4.87,2.29-.44-.58-2-2.21,2,1.63,5.28,1.6-2.42-.66-3.87-2.29c0,0-.58-.86.92.09a10.64,10.64,0,0,0,4.29,1.56c1.42.23.63-.24.63-.24-1.57-.47-4.46-3.45-1.44-1.35s7.28,2.17,5.28,1.61a5.78,5.78,0,0,1-3-2.11,32.42,32.42,0,0,0,4.44,1.9,1.67,1.67,0,0,1-.32-1.93c3.66,2.29-1.41,5.08,1.76,3.47s.56-4.94,2.5-3.5.69,3,1.94,1.87-1.33-3.76.6-2.47,8.36,3,7.07,2.26-6.88-3.42-3.25-2.87,6.69,4.88,5.81,3.15a6.61,6.61,0,0,0-2-2.45c4.7.83,7.33,5.3,6.87,3.57s-2.61-3.17-2.61-3.17c6.64,2.41,14.51,1.48,10.88,1.22a14.3,14.3,0,0,1-5.45-1.27c10.12.36,10.06,2.9,9.61,1.74s-2.69-1.79-2.69-1.79c4.06.84,5.36,2.5,4.92,1.27s-5.89-1.91-1.3-1.29,5.79,2.7,4.92,1.26c-.53-.87-3.28-1.49-4-1.64h0c.3,0,1,.17,2.21.35,6,.9,7.29,3.42,7.06,2.41a3.66,3.66,0,0,0-1.52-1.8c2.8,1.57,7.7,2,5.13,1.19s-3-1.5-3-1.5c3.54,1.72,13.14,2.58,10.78,1.8a19.78,19.78,0,0,0-3.74-.91c3.5-.53,8.75,1.09,6.71.17s-7.57-.6-4.28-1.06,6.62,1.18,6.4.46-5.78-1.48-1-.93,4.75,3.87,4.94,2.28-2.71-3-.24-1.81,2.07,3.1,2.58,1.86-2.06-2.38.41-1.31,4.61,1.93,3.31,1.07-3.79-2.15-.37-.92,3.6,2.87,3.87,1.9-3.45-2.77-1.74-1.92a12.94,12.94,0,0,0,4.53.91c9.75-1.89,4.29-.67,0,.77s2.83.27,8.88-1.52-.51.37-1.63,1.36-1.1.7,4.1-.92,1.68.33-2.21,1.4,1.46.61,6.86-.71,1.49,0-.06,1.16.18.58,5.38-1,2.54.21,3.49,2.55.29-1.59,1-2.44-.08,1.74,4.56,2.57,0-.43-1.58-2.5,1.41,1.63,7.76,2.5-.41-.3-2.22-2.37,1.84,1.49,8.19,2.22.43,0-3.3-2.11,4.65.69,5.67,1.59.91-1.14-1.81-2.08,2.76.21,5,2.44.7-1.29-.49-2.91,2.92,1.08,4.52,3.15,2-1.11-.93-2.63l-.48-.25h0a52.69,52.69,0,0,0,6.53,2.86c2.73.79.45-.57-2.23-2.38s5.26,1.43,6.85,3.65.5-1.44-2-3,1.23,1,4.89.11,0,.15-.3,1.74.22-.15,4.13-1.65.45-.42-.29,1.59,1.09-.55,4.15-2.08.84.31,1.37,2.36c0,0,.06.38.68-.66s1.68-2.48,1.78-1.51,1.45,2.16,3.69,2.89-1.26-.51-1.16-2.35-.59.28,3.18,1.62.15-.19.08-1.54,2.91,1.42,3.69,2.89.78-1.53-.71-2.82,2.25.44,2.59,2.09,1.89-.82.27-2.41,2.36.93,3.42,2.5,1-.85.1-2,1.95.72,2.44,2.38,1.12.22.36-1.54.74-.56,1.5,1.19,1-.07,0-1.93,2.77,1.22,2.69,3,2-.24,1.67-2.18-.6.66,3.16-.6-.6.47-1.52,1.8.6-.47,3.61-1.08,1.11.51,3.57,2.41.83.4.94-1.82.23,1.17,4.29,2.42-.13-.29-1.16-2.44,0,.58,4,1.83.26.4-1.07-1.47,3.93,1.06,4.13,2.61,1.59-.54-.56-2.92,1.63,1.49,4.7,2.44-.39-.59-1.87-2.27C343.37,177.79,345.56,180,348.24,180.71Z"/>
                </g>
                <g class="cls-49">
                  <g>
                    <path class="cls-50" d="M5.6,146.89v5.43c1.33-.09,2.49-.19,3.4-.3,14-1.68,28.33-1,42.15-3A387.91,387.91,0,0,1,5.6,146.89Z"/>
                    <path class="cls-51" d="M227.85,128.64A86.58,86.58,0,0,1,214,127c8.49-2,19,.07,27.93-.53,11.48-.78,21.74-1.85,33.33-2.2,19.43-.59,39.82,1.58,58.13-.48-4.79,1.56-10.34,1.62-14.65,2.56,4.74.44,9.72-.55,14.53-.25-.85.21-1.78.58-2.71.8,1.17-.07,2.43.11,3.55,0-1.09,1.13-3,1.59-5.12,1.69,6.44.07,12.85.65,19.21.84v-7.46c-57.49-.39-116,1.25-194.43,3-35.59.79-70-1.94-105.54-.25-15.19.71-28.19.64-42.67.68V140l4.09,0,5.11-1.3c11-3.21,24.32.57,34.9-2.34-4.4-2.93-14.2-2.52-20.1-2.4,5.08-2.29,12.19-1.28,17.84-2.09a195.17,195.17,0,0,0-19.83-1.95c7.86-2.6,20.77-2.52,30.18-2.52S76.6,126.45,86,127c-1.54.15-3.22.67-4.73.88,17.19.76,32.41.77,45.74.76a15.62,15.62,0,0,1-2.3-.78c13-.59,28.7-2.2,41.43-1.3-.82.11-3.09.65-4.43.8,4.46-.06,9-.2,13.47,0-1.33.52-1.36.9-3.1,1.23,12.42,0,25.33.17,37.33,1.5a21.26,21.26,0,0,1-2.19.67q18.65,0,37.27,0c-6.84-.19-13.92-.63-20.19-1A31.91,31.91,0,0,1,227.85,128.64Z"/>
                    <path class="cls-52" d="M348.24,147.45a53.48,53.48,0,0,1-8.44,1.23c2.4,0,5.3-.15,8.44-.28Z"/>
                  </g>
                </g>
                <g class="cls-53">
                  <path class="cls-51" d="M8.18,152.11c5.32-2.33,13.64-1.65,19.6-3-1.4-.06-2.93-.44-4.43-.48,4.07-2.07,9.48-1.79,14.24-2.45-8.74-2.3-21.48-.74-32-.58v11.18c12.55-.78,26.95-1.61,37.95-4.11C31.93,152.16,19.55,153.92,8.18,152.11Z"/>
                  <path class="cls-51" d="M76.15,131.33c9,0,18.29-1,27.29-1.3-17.64,0-34.84-.49-52.27-3.37,4.51-1.18,9.45-.88,14.15-1.49-1-.3-2.16-.56-3.28-.83-4.57.09-9.16.23-13.77.45-15.19.71-28.19.64-42.67.68v19.27c21.42-3.25,45.69,1.54,66-3.85-9.49-2.27-22.82-.08-33.07-1.43,4.55-.74,9.46-.12,14.12-.4-12.82-3-28.46-1.72-41-5.17,13.14.13,26.71-2.08,40-2.47C59.79,131.19,68,131.33,76.15,131.33Z"/>
                </g>
                <g class="cls-54">
                  <path class="cls-55" d="M172.24,141.69h-5.6C168.59,141.77,170.51,141.77,172.24,141.69Z"/>
                  <path class="cls-56" d="M168.13,139.45c-2.14-1.9-7.92-1.88-11.61-2.1,6.57-.67,13.16-1.37,19.66-2.33-5.19-1.12-12.36-.06-17.89,0-8.35.18-16.71.1-25.07.1H105.93a21.71,21.71,0,0,0,2.64-.43,25.87,25.87,0,0,1-8.18-1.74l-5.75.43c-7,0-15.79-.91-22.33.41,7.38,2.22,17,1.47,25,3a41.48,41.48,0,0,0-8.14.86c10.61.49,20.94.67,31.55,1.74a112.85,112.85,0,0,0-14,1.41c11.88-.5,24,.85,36,.83h23.95a48.34,48.34,0,0,1-11.59-1.63A98.44,98.44,0,0,1,168.13,139.45Z"/>
                </g>
                <g class="cls-54">
                  <path class="cls-57" d="M183,137l3.56,0C185.38,136.94,184.19,136.94,183,137Z"/>
                </g>
                <g class="cls-54">
                  <path class="cls-58" d="M278.05,150.82h2.76C279.88,150.81,279,150.8,278.05,150.82Z"/>
                  <path class="cls-51" d="M348.24,151.52v-.22c-7.68.27-18.42,1.2-24.9-1.28,5.65-.56,10.44-.64,15.15-2.69-6.11,0-12.26.44-18.4.45l1.92-.87a215.67,215.67,0,0,1-41.2,3.91c9.13.11,18.83,1.44,27.87,1.83-1.49.31-3.39,1-5.1,1.25C318.85,153.65,333.16,153.12,348.24,151.52Z"/>
                </g>
                <path class="cls-1" d="M61.85,169.06c-3.63-.13-7.28-.11-10.94,0C54.54,169.13,58.21,169.06,61.85,169.06Z"/>
                <g class="cls-59">
                  <path class="cls-60" d="M124.76,158.05c1.94,0,4.15,0,6.45-.08C129,158,126.81,158,124.76,158.05Z"/>
                  <path class="cls-61" d="M131.21,158c1.53,0,3.08,0,4.61,0C134.29,157.94,132.73,158,131.21,158Z"/>
                </g>
                <g class="cls-59">
                  <path class="cls-62" d="M238.75,160.15c1.77,0,3.79,0,5.88,0C242.61,160.13,240.63,160.09,238.75,160.15Z"/>
                  <path class="cls-63" d="M244.63,160.17c1.39,0,2.81.06,4.21.06C247.44,160.18,246,160.17,244.63,160.17Z"/>
                </g>
              </g>
            </g>
          </g>
        </g>
      </g>
    </g>
  </g>
</svg>
