<svg id="Layer_1" data-name="Layer 1" xmlns="http://www.w3.org/2000/svg" width="390.26" height="314.65" viewBox="0 0 390.26 314.65">
  <defs>
    <style>
      .cls-1 {
        fill: #ff0;
      }

      .cls-2 {
        fill: #efbe67;
      }

      .cls-3 {
        fill: #c98f32;
      }

      .cls-4 {
        fill: #4c4c4c;
      }

      .cls-5, .cls-8 {
        fill: #fff;
      }

      .cls-5 {
        opacity: 0.72;
      }

      .cls-6 {
        fill: #b933cc;
      }

      .cls-7 {
        fill: #e230a2;
      }

      .cls-8 {
        opacity: 0.61;
      }

      .cls-9 {
        fill: #db19c0;
      }

      .cls-10 {
        fill: blue;
      }
    </style>
  </defs>
  <g>
    <path class="cls-1" d="M51.9,310c35.62,0,45.66-4.13,50.11-7.24,4.9-3.42,5.64-7.11,5.4-9.6-.61-6.42-7.48-9.49-15.44-13.05-4-1.76-8.72-3.89-11.6-6.11,5.38-3.17,22.63-7.59,43.76-7.59,1.57,0,3.13,0,4.64.08H129a6,6,0,0,0,2.85-.72,6,6,0,0,0,.71-.16c5.35-1.63,9.85-2.8,14.2-3.93s8.18-2.13,12.8-3.53a6,6,0,0,0,3.45-2.74,222.23,222.23,0,0,1,12.48-19.71,7.59,7.59,0,0,0,2,.27,8.07,8.07,0,0,0,6.29-3.06c6.85-8.55,14.78-15.81,23.17-23.5,1.72-1.57,3.48-3.18,5.24-4.81a6,6,0,0,0,6.24-1.23c21.7-20.29,57.07-56.43,84-84.25,3.06-.07,5.94-1.72,38.84-37.67,14.12-13.93,28.33-28.48,38-38.94A6,6,0,0,0,380.69,37c.29-.39.47-.64.61-.85,8.34-12.69,2.66-21.51-1.47-25.64a18.68,18.68,0,0,0-13.36-5.8,23.08,23.08,0,0,0-12.49,4,51.34,51.34,0,0,0-5,4,6,6,0,0,0-2.82,1.47l-4.24,4A6,6,0,0,0,340.61,20c-10.65,9.36-27,24-41.34,37.35-25.17,23.38-28.14,27.3-28.2,30.34-28,27.06-64.31,62.6-84.26,84.06a6,6,0,0,0-1.23,6.16l-4.77,5.18c-7.72,8.43-15,16.39-23.54,23.24a7.92,7.92,0,0,0-2.85,8.22,222.7,222.7,0,0,1-19.75,12.52,6,6,0,0,0-2.74,3.46c-1.4,4.61-2.43,8.58-3.52,12.79-.9,3.43-1.82,7-3,10.94-2.79-.13-6.83-.27-11.53-.27-38.64,0-44.83,9.1-46.87,12.09-1.86,2.74-3.57,7.29-1.15,13.45a6.12,6.12,0,0,0,1,1.71c.57.67,5.39,6,17.07,11.66l-1.14.22c-4.89.9-45.94,3.47-65.77,3.47-2.55,0-4.59,0-6.07-.14h-.36a6,6,0,0,0-.45,12C10.41,308.44,30.71,310,51.9,310Z"/>
    <g>
      <g>
        <g>
          <path class="cls-2" d="M130.79,259.85c10.53-3.21,17.64-4.63,27-7.46,4.6-7.94,12.19-20.88,19.42-28.11l-11.43-11.43c-7.23,7.23-20.16,14.82-28.11,19.41-2.83,9.37-4.25,16.48-7.46,27Z"/>
          <path class="cls-3" d="M173.79,220.86C165.83,229,154.32,244.5,150,254c1.5-.4,3-.81,4.58-1.25,5.25-9.38,13.31-22.15,21-30Z"/>
          <rect class="cls-4" x="126.66" y="250" width="26.19" height="0.61" transform="translate(-136.08 172.22) rotate(-45.02)"/>
          <polygon class="cls-4" points="148.57 238.67 148.05 242.01 151.39 241.49 148.57 238.67"/>
          <path class="cls-5" d="M163.84,218.9A178.92,178.92,0,0,1,138,235.78c-.43,1.61-.82,3.16-1.2,4.71,8-3.58,20.34-12.2,29-19.64Z"/>
        </g>
        <path class="cls-6" d="M197.83,173.8C185.4,186.23,174.7,200,161,211a1.92,1.92,0,0,0-.24,2.95l15.39,15.39a1.94,1.94,0,0,0,3-.24c11-13.69,24.68-24.28,37.23-36.83Z"/>
        <path class="cls-7" d="M343.59,67.35a1.76,1.76,0,0,0-.08-2.62L325.36,46.59a1.71,1.71,0,0,0-2.6-.06c-.91.84-94.49,89.46-131.55,129.3L214.34,199C254.44,161.47,342.74,68.36,343.59,67.35Z"/>
        <path class="cls-8" d="M210.12,173.85c-3,2.48-7-1.6-4.48-4.48,20.74-23.82,84.76-85,104.48-102.94,2.66-2.41,6.88,1.2,4,4S213.13,171.37,210.12,173.85Z"/>
        <g>
          <path class="cls-9" d="M277.12,88.25c-.43-3.6,75.41-71.43,80.13-74.5s12-5.41,18.34,1,4,13,.69,18.1c-3.19,4.84-71.27,80.65-74.35,80.28Z"/>
          <path class="cls-8" d="M293.21,91.31c-1.76,1.17-6.82-4.15-5.46-5.7,10.4-11.76,45.81-43.3,57.77-53.51,1.47-1.26,5.05,1.9,3.36,3.65C347.37,37.29,295,90.15,293.21,91.31Z"/>
          <path class="cls-2" d="M346.06,22.52l21.56,21.56,3.94-4.25L350.3,18.57Z"/>
          <path class="cls-8" d="M350.6,27.06l3.24,3.24,4.07-4.12L354.72,23Z"/>
          <path class="cls-2" d="M374.86,38.41l-2.33-2.33c-17.34,16.63-44.95,44.15-61.24,61.23l2.34,2.34C331.18,83.38,358.6,56,374.86,38.41Z"/>
          <path class="cls-8" d="M371,39.78l-.57-.58c-15.8,15.29-41.05,40.48-56,56l.57.57C316,94.91,369.93,40.94,371,39.78Z"/>
        </g>
      </g>
      <path class="cls-10" d="M10.67,302.44s73.25,5.61,87.9-4.62c11.78-8.22-15.86-11.9-24.12-21.15s26.44-17.19,54.53-16.2c0,0-66.1-5-57.5,16.86,0,0,5.5,6.4,20.4,12.51,12.4,5.09-1.24,7.94-7.93,9.18S24.71,303.27,10.67,302.44Z"/>
    </g>
  </g>
</svg>
