<svg id="Layer_1" data-name="Layer 1" xmlns="http://www.w3.org/2000/svg" width="349.77" height="398.1" viewBox="0 0 349.77 398.1">
  <defs>
    <style>
      .cls-1 {
        fill: #ff0;
      }

      .cls-2 {
        opacity: 0.5;
      }

      .cls-3 {
        fill: #d80e82;
      }

      .cls-3, .cls-4 {
        stroke: #a02d61;
      }

      .cls-3, .cls-4, .cls-5, .cls-7 {
        stroke-miterlimit: 10;
      }

      .cls-3, .cls-4, .cls-7 {
        stroke-width: 0.5px;
      }

      .cls-4 {
        fill: #f55b9c;
      }

      .cls-5, .cls-6 {
        fill: #f2c900;
      }

      .cls-5 {
        stroke: #cea809;
        stroke-width: 0.25px;
      }

      .cls-7 {
        fill: #fee600;
        stroke: #dbc105;
      }

      .cls-8 {
        fill: #ffe000;
      }
    </style>
  </defs>
  <g>
    <path class="cls-1" d="M189.27,207.32l.72,1.46c2.76,5.59,5.84,11.82,10.65,17-.42,2.95-.92,6.17-1.47,9.75-.81,5.23-1.72,11.15-2.77,18.63,0,.05,0,.1,0,.15-.54,4.73-1.55,10-2.61,15.62-3.21,16.82-6.84,35.89-.18,51.72a40.2,40.2,0,0,0,9.33,14.82c2.69,3.57,17,20.66,45,20.66,1.28,0,2.6,0,3.91-.11a78.46,78.46,0,0,0,10.08-1.23c43.28-8.06,47.27-47.35,50.79-82,.28-2.75.55-5.5.83-8.27,2.7-27.13,5.5-55.2,13.47-81.34,7.05-23.11,10.89-47.76,11.74-75.34,1-31.67-14.29-65.12-39.88-87.29C286.77,11.09,270.7,5.34,253.57,5.34a73,73,0,0,0-19,2.48c-1.31.28-2.6.61-3.85,1-26.87,7.6-34,31.92-37.48,54.71a230.52,230.52,0,0,0-2.79,30.77c-.13,5.16,0,10.17.3,15.25q-.25.42-.48.84c-23.44,34-10.59,73.16-9.51,76.29A132.34,132.34,0,0,0,189.27,207.32Z"/>
    <path class="cls-1" d="M22.81,219.79c8,26.15,10.77,54.22,13.47,81.36.28,2.75.55,5.5.83,8.25,3.52,34.67,7.51,74,50.79,82A78.46,78.46,0,0,0,98,392.65c1.31.08,2.63.11,3.92.11,27.74,0,41.74-16.34,45-20.68a40.31,40.31,0,0,0,9.32-14.79c6.65-15.84,3-34.91-.18-51.74-1.07-5.59-2.07-10.88-2.61-15.61a.77.77,0,0,1,0-.15c-1.06-7.47-2-13.4-2.77-18.62-.56-3.58-1.05-6.81-1.47-9.76,4.8-5.18,7.88-11.41,10.64-17l.72-1.47A132.14,132.14,0,0,0,169,222.28a71.38,71.38,0,0,0,2.29-8.48,43.49,43.49,0,0,0,3.85-7.41,9.74,9.74,0,0,1,.9-1.82,6,6,0,0,0,1.05-4.07c-.15-1.37-.29-2.45-.47-3.36a37.49,37.49,0,0,0-2.2-8.42l-.36-1c-.25-.75-.54-1.53-.87-2.4A79.67,79.67,0,0,0,159.47,146l-.48-.85c.33-5.08.42-10.09.29-15.2a228.55,228.55,0,0,0-2.79-30.82C153,76.33,145.89,52,119,44.41c-1.24-.35-2.54-.68-3.85-1A73,73,0,0,0,96.2,41C79.08,41,63,46.72,51,57.16c-25.58,22.17-40.87,55.62-39.88,87.29C11.93,172,15.77,196.68,22.81,219.79Z"/>
    <g>
      <g class="cls-2">
        <path d="M215.91,157.15c-.17-.82-.34-1.66-.5-2.46-1.27-6.21-2.43-11.91-3.44-17.29-1.44,2.43-2.8,4.9-4,7.41a81.27,81.27,0,0,0-3.83,9.21l-.36,1a31.68,31.68,0,0,0-1.93,7.34c-.18.88-.32,1.95-.44,3.1a16.56,16.56,0,0,1,1.56,3c2.05,5.35,6.51,11.21,11.17,17.33,1.73,2.28,3.48,4.63,5.18,7-.36-7.42-1-16.58-2.06-28.83C216.78,161.67,216.34,159.38,215.91,157.15Z"/>
        <path d="M160.5,173c-1,5.39-2.17,11.09-3.44,17.3-.16.8-.33,1.65-.5,2.46-.43,2.23-.86,4.52-1.31,6.9-1,12.25-1.7,21.41-2.07,28.82,1.7-2.37,3.45-4.72,5.19-7,4.65-6.12,9.11-12,11.17-17.33a16,16,0,0,1,1.55-3c-.12-1.15-.26-2.22-.44-3.1a31.68,31.68,0,0,0-1.93-7.34l-.36-1a79.48,79.48,0,0,0-3.83-9.21C163.3,177.93,161.94,175.46,160.5,173Z"/>
      </g>
      <g>
        <g>
          <path class="cls-3" d="M294.89,26.07c-16-13.88-39.56-18.06-60-12.09-25.35,7.38-32.28,30.06-35.66,52.2-5.64,36.89-1.9,55.22,4.88,88.51.74,3.64,1.52,7.47,2.33,11.52,3.88,43.11,3.12,48-.55,71.58-.81,5.21-1.73,11.12-2.79,18.63-.55,4.79-1.56,10.13-2.63,15.77-3.87,20.4-8.74,44.84,7.05,60.35,1.64,2.3,15.28,20.08,44,18.49a74,74,0,0,0,9.32-1.13c38.71-7.22,42.4-42.09,45.91-76.74.28-2.74.55-5.48.83-8.23,2.73-27.44,5.56-55.8,13.7-82.52,6.89-22.6,10.65-46.73,11.49-73.77C333.64,78.72,319.15,47.08,294.89,26.07Z"/>
          <path class="cls-4" d="M324,108.7c1-30.24-13.47-61.24-35.61-81.51-14.09-12.91-35.85-18.33-56-12.64-23.87,6.76-30,28.83-33.18,49.84-6.13,40.49-1.14,58.34,6.67,99.66,4.43,53,2.4,48.72-3.54,90.94-2.59,22.68-15.05,55.55,3.52,74.54,0,0,15.11,23.48,49.45,17.48s39-35.43,42.91-74.06c3.1-30.51,5.63-61.63,14.47-91.13C319.85,158,323.15,133.53,324,108.7Z"/>
          <path class="cls-5" d="M194.64,204.65c3.65,7.34,7.38,15.57,14.54,20.75a6,6,0,0,0,2.14,1.11c7.76,1.75,6.81-10.28,6.33-13.79a32.73,32.73,0,0,0-2-8.71c-1.23-2.87-3.54-5.07-5.3-7.67l-.18-.27c-2.34-3.47-4.94-6.89-7.45-10.2-4.66-6.12-9.12-12-11.17-17.33-4.92-12-6.26,5-5.89,8.11,1,8,7.44,23.21,7.44,23.21Z"/>
          <path class="cls-5" d="M303.08,170.28s-2.6,9-2.61,9a135.17,135.17,0,0,1-8.76,22c-3.21,6.54-8.85,13.7-9.8,20.89-.44,3.36.55,7.52,4.85,7.86,14.11,1.12,13.4-13.81,15.62-22.35.39-1.48,1.44-8.21,1.77-9.81C307.39,183.18,304.93,151.77,303.08,170.28Z"/>
          <rect class="cls-6" x="241.8" y="61.81" width="7.52" height="12.39" rx="1.66" transform="translate(7.83 -23.69) rotate(5.61)"/>
          <path class="cls-7" d="M194.61,204.44a120.74,120.74,0,0,1-4.56-21.81c-.65-5.36-.58-15.34.42-20.23a32,32,0,0,1,1.93-7.33l.36-1a81.27,81.27,0,0,1,3.83-9.21c8.95-18.25,23.9-34.31,37.74-49,3.1-3.29,7.51-6.62,11.22-6.33.89.07,5.63.28,21.58,19.08,18.33,20,30.4,43.23,34.27,56,2,7,2.3,9.53,3.4,18.48a49.19,49.19,0,0,1-1,16.82s5-21.13,5.43-27.08c1.79-23.14-2.88-34.91-8.49-45.69-6.78-13-21.48-38.6-47.59-55.25a13.69,13.69,0,0,0-6.38-2.07,13.93,13.93,0,0,0-6.92,1.3,103.21,103.21,0,0,0-44.42,42.36l-.09.14C173,145.82,186,183.25,186.5,184.77l0,.1a122.57,122.57,0,0,0,8.1,19.78Z"/>
        </g>
        <g>
          <path class="cls-3" d="M54.88,61.7c16-13.88,39.56-18.06,60.05-12.09,25.36,7.37,32.28,30.06,35.67,52.2,5.63,36.89,1.89,55.22-4.89,88.51-.74,3.64-1.52,7.47-2.33,11.52-3.88,43.11-3.11,48,.55,71.57.81,5.22,1.73,11.13,2.79,18.64.55,4.79,1.56,10.13,2.64,15.77,3.87,20.4,8.74,44.83-7.06,60.35-1.64,2.3-15.28,20.08-44,18.49A71.86,71.86,0,0,1,89,385.52c-38.72-7.21-42.4-42.09-45.92-76.73q-.42-4.11-.82-8.23C39.52,273.12,36.7,244.75,28.55,218c-6.89-22.6-10.64-46.73-11.48-73.78C16.14,114.35,30.63,82.71,54.88,61.7Z"/>
          <path class="cls-4" d="M25.8,144.33c-1-30.24,13.46-61.24,35.6-81.51,14.09-12.91,35.85-18.33,56-12.64,23.87,6.76,30,28.83,33.18,49.84,6.14,40.49,1.14,58.34-6.66,99.66-4.44,53-2.4,48.72,3.53,90.94,2.59,22.68,15,55.55-3.51,74.54,0,0-15.12,23.48-49.45,17.48s-39-35.43-42.92-74.06c-3.1-30.51-5.63-61.63-14.47-91.13C29.92,193.58,26.63,169.16,25.8,144.33Z"/>
          <path class="cls-5" d="M155.13,240.28c-3.65,7.34-7.38,15.57-14.53,20.75a5.93,5.93,0,0,1-2.15,1.1c-7.76,1.76-6.81-10.27-6.33-13.78a33.12,33.12,0,0,1,2-8.71c1.23-2.87,3.55-5.07,5.31-7.67l.18-.27c2.33-3.48,4.93-6.89,7.45-10.2,4.65-6.12,9.11-12,11.17-17.33,4.91-12,6.25,5,5.88,8.11-1,8-7.44,23.21-7.44,23.21Z"/>
          <path class="cls-5" d="M46.69,205.91l2.61,9a136,136,0,0,0,8.76,22c3.21,6.54,8.85,13.7,9.8,20.9.45,3.36-.55,7.52-4.85,7.86-14.11,1.12-13.39-13.81-15.61-22.35-.39-1.48-1.44-8.21-1.77-9.81C42.38,218.81,44.84,187.4,46.69,205.91Z"/>
          <rect class="cls-6" x="100.45" y="97.44" width="7.52" height="12.39" rx="1.66" transform="translate(218.06 196.58) rotate(174.39)"/>
          <path class="cls-7" d="M155.16,240.07a120.71,120.71,0,0,0,4.57-21.81c.64-5.36.57-15.34-.43-20.23a31.68,31.68,0,0,0-1.93-7.34l-.36-1a79.48,79.48,0,0,0-3.83-9.21c-9-18.25-23.89-34.31-37.74-49-3.1-3.29-7.51-6.62-11.22-6.33-.89.07-5.63.28-21.58,19.08-18.33,20-30.39,43.23-34.27,56-2,7-2.3,9.53-3.4,18.48a49.49,49.49,0,0,0,1,16.82s-5-21.13-5.43-27.08c-1.78-23.14,2.88-34.91,8.49-45.69,6.78-13,21.49-38.6,47.59-55.25a13.61,13.61,0,0,1,6.38-2.07,14,14,0,0,1,6.92,1.29,103.26,103.26,0,0,1,44.43,42.37l.08.14c22.31,32.21,9.39,69.64,8.85,71.16l0,.1a123.64,123.64,0,0,1-8.11,19.78Z"/>
        </g>
      </g>
      <g>
        <path class="cls-8" d="M204.56,157.15c-.17-.82-.34-1.66-.5-2.46-1.27-6.21-2.43-11.91-3.44-17.29-1.44,2.43-2.8,4.9-4,7.41a81.27,81.27,0,0,0-3.83,9.21l-.36,1a32.19,32.19,0,0,0-1.93,7.34c-.18.88-.32,1.95-.44,3.1a16,16,0,0,1,1.56,3c2,5.35,6.51,11.21,11.17,17.33,1.73,2.28,3.48,4.63,5.18,7-.36-7.42-1-16.58-2.06-28.83C205.43,161.67,205,159.38,204.56,157.15Z"/>
        <path class="cls-8" d="M149.15,173c-1,5.39-2.17,11.09-3.44,17.3-.16.8-.33,1.65-.5,2.46-.43,2.23-.86,4.52-1.31,6.9-1,12.25-1.7,21.41-2.07,28.82,1.7-2.37,3.45-4.72,5.19-7,4.65-6.12,9.11-12,11.17-17.33a16,16,0,0,1,1.55-3c-.12-1.15-.26-2.22-.44-3.1a31.68,31.68,0,0,0-1.93-7.34l-.36-1a79.48,79.48,0,0,0-3.83-9.21C152,177.93,150.59,175.46,149.15,173Z"/>
      </g>
    </g>
  </g>
</svg>
