<svg id="Layer_1" data-name="Layer 1" xmlns="http://www.w3.org/2000/svg" xmlns:xlink="http://www.w3.org/1999/xlink" width="380" height="382" viewBox="0 0 380 382">
  <defs>
    <style>
      .cls-1 {
        fill: none;
      }

      .cls-2 {
        fill: #ff0;
      }

      .cls-3 {
        clip-path: url(#clip-path);
      }

      .cls-4 {
        fill: #edd3bd;
      }

      .cls-5 {
        fill: #8b959a;
      }

      .cls-6 {
        fill: #758184;
      }

      .cls-7 {
        fill: #dcb29a;
      }

      .cls-8 {
        fill: #b1b4b8;
      }

      .cls-9 {
        fill: #687689;
      }

      .cls-10 {
        fill: #3a3a3a;
      }

      .cls-11 {
        fill: url(#linear-gradient);
      }

      .cls-12 {
        fill: #fddc63;
      }

      .cls-13 {
        fill: #efb890;
      }

      .cls-14 {
        fill: #e7c2a8;
      }

      .cls-15 {
        fill: #e5e5e4;
      }

      .cls-16 {
        fill: #4d4e4e;
      }

      .cls-17 {
        fill: #f7991c;
      }

      .cls-18 {
        fill: #ee8322;
      }

      .cls-19 {
        fill: #de6e26;
      }

      .cls-20 {
        fill: #4e7a6c;
      }

      .cls-21 {
        fill: #8d4d21;
      }

      .cls-22 {
        opacity: 0.25;
      }

      .cls-23 {
        opacity: 0.15;
      }

      .cls-24 {
        fill: #f2f2f2;
      }

      .cls-25 {
        fill: #333;
      }

      .cls-26 {
        opacity: 0.7;
      }

      .cls-27 {
        fill: #fff;
      }

      .cls-28 {
        fill: #5b9a8b;
      }

      .cls-29 {
        fill: #84cdb8;
      }

      .cls-30 {
        opacity: 0.1;
      }

      .cls-31 {
        fill: #899095;
      }

      .cls-32 {
        fill: #e8e7e7;
      }

      .cls-33 {
        fill: #cbcbca;
      }

      .cls-34 {
        fill: #754f31;
      }

      .cls-35 {
        fill: #5c3925;
      }

      .cls-36 {
        opacity: 0.5;
      }

      .cls-37 {
        fill: #1a1a1a;
      }

      .cls-38 {
        fill: #363636;
      }

      .cls-39 {
        fill: #676767;
      }

      .cls-40 {
        fill: #f5ae92;
      }

      .cls-41 {
        fill: #e09580;
      }

      .cls-42 {
        fill: #a75f26;
      }

      .cls-43 {
        fill: #80431d;
      }

      .cls-44 {
        fill: #545455;
      }

      .cls-45, .cls-56 {
        fill: #30302f;
      }

      .cls-46 {
        fill: #e7b096;
      }

      .cls-47 {
        fill: #ab4c2b;
      }

      .cls-48 {
        fill: #c16037;
      }

      .cls-49 {
        fill: #e5e6e6;
      }

      .cls-50 {
        fill: #59595c;
      }

      .cls-51 {
        fill: #e2a88b;
      }

      .cls-52 {
        fill: #d09077;
      }

      .cls-53 {
        fill: #221f1f;
      }

      .cls-54 {
        fill: #66c7c8;
      }

      .cls-55 {
        fill: #41bfbe;
      }

      .cls-56 {
        opacity: 0.8;
      }
    </style>
    <clipPath id="clip-path">
      <rect class="cls-1" x="14.53" y="15.53" width="350.93" height="350.93" rx="26.14"/>
    </clipPath>
    <linearGradient id="linear-gradient" x1="-190.71" y1="364.95" x2="723.07" y2="364.95" gradientUnits="userSpaceOnUse">
      <stop offset="0" stop-color="#cbcbca"/>
      <stop offset="1" stop-color="#979797"/>
    </linearGradient>
  </defs>
  <g>
    <path class="cls-2" d="M40.68,9.53H339.32a32.15,32.15,0,0,1,32.15,32.15V340.32a32.14,32.14,0,0,1-32.14,32.14H40.68A32.15,32.15,0,0,1,8.53,340.32V41.68A32.14,32.14,0,0,1,40.68,9.53Z"/>
    <g class="cls-3">
      <g>
        <g>
          <g>
            <rect class="cls-4" x="-190.71" y="65.84" width="913.78" height="169.4"/>
            <rect class="cls-5" x="-190.71" y="11.74" width="913.78" height="92.25"/>
            <rect class="cls-6" x="-190.71" y="17.52" width="913.78" height="6.11"/>
            <rect class="cls-7" x="-190.71" y="223.01" width="913.78" height="12.23"/>
            <rect class="cls-8" x="-190.71" y="-121.25" width="913.78" height="138.77"/>
            <rect class="cls-9" x="-190.71" y="235.24" width="913.78" height="243.47"/>
            <rect class="cls-10" x="-190.71" y="245.61" width="913.78" height="145.69"/>
            <rect class="cls-11" x="-190.71" y="292.32" width="913.78" height="145.26"/>
            <rect class="cls-12" x="-190.71" y="302.57" width="913.78" height="3.85"/>
            <rect class="cls-12" x="-190.71" y="240.5" width="913.78" height="1.86"/>
            <polygon class="cls-13" points="349.25 123.96 183.1 123.96 181.7 123.96 181.7 130.75 181.7 216.22 181.7 223.01 183.1 223.01 349.25 223.01 350.66 223.01 350.66 216.22 350.66 130.75 350.66 123.96 349.25 123.96"/>
            <rect class="cls-4" x="188.31" y="130.75" width="155.73" height="92.26"/>
            <rect class="cls-14" x="71.89" y="103.99" width="49.86" height="131.25"/>
          </g>
          <g>
            <g>
              <g>
                <path class="cls-15" d="M401,292.32H285.37V159.18h0a81.9,81.9,0,0,1,58.88,25l71.31,73.71C428,270.75,418.9,292.32,401,292.32Z"/>
                <path class="cls-16" d="M420.8,276.4A20.17,20.17,0,0,1,401,292.32H285.36V276.4Z"/>
                <polygon class="cls-17" points="404.99 246.93 285.37 246.93 285.37 185.39 345.46 185.39 404.99 246.93"/>
                <polygon class="cls-18" points="404.99 246.93 285.36 246.93 285.36 227.19 385.9 227.19 404.99 246.93"/>
                <polygon class="cls-19" points="404.99 246.93 285.36 246.93 285.36 238.68 397.01 238.68 404.99 246.93"/>
                <g>
                  <path class="cls-20" d="M392.2,233.71H302.31a4,4,0,0,1-3.95-4v-27.2a4,4,0,0,1,3.95-3.95h55.94Z"/>
                  <path class="cls-1" d="M302.31,199.7a2.87,2.87,0,0,0-2.87,2.86v27.2a2.87,2.87,0,0,0,2.87,2.86h88.84L359.3,199.7h-57Z"/>
                  <path class="cls-21" d="M302.31,232.62a2.87,2.87,0,0,1-2.87-2.86v-27.2a2.87,2.87,0,0,1,2.87-2.86h57l-1.05-1.09H302.31a4,4,0,0,0-3.95,3.95v27.2a4,4,0,0,0,3.95,4H392.2l-1.05-1.09Z"/>
                </g>
              </g>
              <path class="cls-22" d="M417.1,284.35a19.87,19.87,0,0,1-16.15,8H285.36v-8Z"/>
              <path class="cls-23" d="M401,292.32h-5.47l7.84-8.25a16.27,16.27,0,0,0-.07-22.51l-74.16-73.69a60.12,60.12,0,0,0-42.39-17.48h-1.34V159.18a81.94,81.94,0,0,1,58.89,25l71.31,73.71C428,270.75,418.9,292.32,401,292.32Z"/>
              <g>
                <rect class="cls-15" x="6.59" y="159.18" width="278.78" height="133.14"/>
                <rect class="cls-16" x="6.59" y="276.4" width="278.78" height="15.92" transform="translate(291.96 568.72) rotate(180)"/>
                <rect class="cls-17" x="6.59" y="185.39" width="278.78" height="61.53"/>
                <rect class="cls-18" x="6.59" y="227.19" width="278.78" height="19.73"/>
                <rect class="cls-19" x="6.59" y="238.68" width="278.78" height="8.24"/>
                <g>
                  <rect class="cls-20" x="19.58" y="198.61" width="75.42" height="35.09" rx="3.27"/>
                  <path class="cls-21" d="M91.45,199.7a2.46,2.46,0,0,1,2.46,2.46v28a2.46,2.46,0,0,1-2.46,2.46H23.13a2.46,2.46,0,0,1-2.46-2.46v-28a2.46,2.46,0,0,1,2.46-2.46H91.45m0-1.09H23.13a3.55,3.55,0,0,0-3.55,3.55v28a3.55,3.55,0,0,0,3.55,3.55H91.45A3.55,3.55,0,0,0,95,230.16v-28a3.55,3.55,0,0,0-3.55-3.55Z"/>
                </g>
                <g>
                  <rect class="cls-20" x="196.96" y="198.61" width="75.42" height="35.09" rx="3.27"/>
                  <path class="cls-21" d="M268.83,199.7a2.46,2.46,0,0,1,2.46,2.46v28a2.46,2.46,0,0,1-2.46,2.46H200.5a2.46,2.46,0,0,1-2.46-2.46v-28a2.46,2.46,0,0,1,2.46-2.46h68.33m0-1.09H200.5a3.55,3.55,0,0,0-3.54,3.55v28a3.55,3.55,0,0,0,3.54,3.55h68.33a3.55,3.55,0,0,0,3.55-3.55v-28a3.55,3.55,0,0,0-3.55-3.55Z"/>
                </g>
                <rect class="cls-22" x="6.59" y="284.35" width="278.77" height="7.96"/>
                <g>
                  <path class="cls-24" d="M112.86,185.95h66.23a4.87,4.87,0,0,1,4.87,4.87V288.7a0,0,0,0,1,0,0H108a0,0,0,0,1,0,0V190.82A4.87,4.87,0,0,1,112.86,185.95Z"/>
                  <path class="cls-17" d="M184,191.24v55.69H108V191.24a5.17,5.17,0,0,1,2.11-4.2h71.76A5.19,5.19,0,0,1,184,191.24Z"/>
                  <rect class="cls-18" x="107.99" y="227.19" width="75.98" height="19.74"/>
                  <rect class="cls-19" x="107.99" y="238.68" width="75.98" height="8.25"/>
                  <path class="cls-16" d="M178.68,187a4.21,4.21,0,0,1,4.2,4.21v96.37h-73.8V191.24a4.21,4.21,0,0,1,4.2-4.21h65.4m0-1.08h-65.4a5.29,5.29,0,0,0-5.29,5.29V288.7h76V191.24a5.29,5.29,0,0,0-5.29-5.29Z"/>
                  <rect class="cls-16" x="145.44" y="185.95" width="1.09" height="102.75"/>
                  <rect class="cls-25" x="107.99" y="286.17" width="75.98" height="2.53"/>
                  <g>
                    <rect class="cls-20" x="114.21" y="198.61" width="25.55" height="35.09" rx="3.27"/>
                    <path class="cls-21" d="M136.22,199.7a2.46,2.46,0,0,1,2.46,2.46v28a2.46,2.46,0,0,1-2.46,2.46H117.75a2.46,2.46,0,0,1-2.46-2.46v-28a2.46,2.46,0,0,1,2.46-2.46h18.47m0-1.09H117.75a3.54,3.54,0,0,0-3.54,3.55v28a3.54,3.54,0,0,0,3.54,3.55h18.47a3.55,3.55,0,0,0,3.54-3.55v-28a3.55,3.55,0,0,0-3.54-3.55Z"/>
                  </g>
                  <g>
                    <rect class="cls-20" x="152.2" y="198.61" width="25.55" height="35.09" rx="3.27" transform="translate(329.95 432.32) rotate(180)"/>
                    <path class="cls-21" d="M174.2,199.7a2.46,2.46,0,0,1,2.46,2.46v28a2.46,2.46,0,0,1-2.46,2.46H155.74a2.46,2.46,0,0,1-2.46-2.46v-28a2.46,2.46,0,0,1,2.46-2.46H174.2m0-1.09H155.74a3.54,3.54,0,0,0-3.54,3.55v28a3.54,3.54,0,0,0,3.54,3.55H174.2a3.55,3.55,0,0,0,3.55-3.55v-28a3.55,3.55,0,0,0-3.55-3.55Z"/>
                  </g>
                </g>
                <rect class="cls-23" x="6.59" y="159.18" width="278.78" height="11.22"/>
              </g>
              <g>
                <rect class="cls-15" x="-272.19" y="159.18" width="278.78" height="133.14"/>
                <rect class="cls-16" x="-272.19" y="276.4" width="278.78" height="15.92" transform="translate(-265.6 568.72) rotate(180)"/>
                <rect class="cls-17" x="-272.19" y="185.39" width="278.78" height="61.53"/>
                <rect class="cls-18" x="-272.19" y="227.19" width="278.78" height="19.73"/>
                <rect class="cls-19" x="-272.19" y="238.68" width="278.78" height="8.24"/>
                <rect class="cls-22" x="-272.19" y="284.35" width="278.77" height="7.96"/>
                <rect class="cls-23" x="-272.19" y="159.18" width="278.78" height="11.22"/>
              </g>
            </g>
            <g>
              <g class="cls-26">
                <path class="cls-27" d="M284.55,177H210.89a1.59,1.59,0,1,1,0-3.18h73.66a1.59,1.59,0,1,1,0,3.18Z"/>
                <path class="cls-27" d="M332.89,177H301.37a1.59,1.59,0,0,1,0-3.18h31.52a1.59,1.59,0,1,1,0,3.18Z"/>
                <path class="cls-27" d="M294.3,177h-4a1.59,1.59,0,1,1,0-3.18h4a1.59,1.59,0,1,1,0,3.18Z"/>
              </g>
              <g class="cls-26">
                <path class="cls-27" d="M236.55,206.84h-30.8a1.59,1.59,0,0,1,0-3.18h30.8a1.59,1.59,0,0,1,0,3.18Z"/>
                <path class="cls-27" d="M327.75,206.84H264.66a1.59,1.59,0,0,1,0-3.18h63.09a1.59,1.59,0,0,1,0,3.18Z"/>
                <path class="cls-27" d="M257.59,206.84H242.26a1.59,1.59,0,0,1,0-3.18h15.33a1.59,1.59,0,1,1,0,3.18Z"/>
              </g>
              <g class="cls-26">
                <path class="cls-27" d="M320.61,231.36h-38a1.6,1.6,0,0,1,0-3.19h38a1.6,1.6,0,1,1,0,3.19Z"/>
                <path class="cls-27" d="M395.76,231.36h-67.4a1.6,1.6,0,0,1,0-3.19h67.4a1.6,1.6,0,0,1,0,3.19Z"/>
              </g>
              <g class="cls-26">
                <path class="cls-27" d="M392.55,257.13H318.89a1.59,1.59,0,1,1,0-3.18h73.66a1.59,1.59,0,0,1,0,3.18Z"/>
                <path class="cls-27" d="M302.07,257.13H270.56a1.59,1.59,0,1,1,0-3.18h31.51a1.59,1.59,0,1,1,0,3.18Z"/>
                <path class="cls-27" d="M313.18,257.13h-4a1.59,1.59,0,1,1,0-3.18h4a1.59,1.59,0,0,1,0,3.18Z"/>
              </g>
            </g>
          </g>
          <g>
            <g>
              <g>
                <path class="cls-22" d="M193.5,65v39H22.4V65a4.17,4.17,0,0,1,4.17-4.16H189.34A4.16,4.16,0,0,1,193.5,65Z"/>
                <rect class="cls-28" x="67.62" y="18.19" width="80.67" height="168.54" rx="3.18" transform="translate(210.42 -5.49) rotate(90)"/>
                <rect class="cls-29" x="28.82" y="67.26" width="158.27" height="70.4" rx="3.18"/>
                <g>
                  <rect class="cls-24" x="32.02" y="71.95" width="43.88" height="5.81"/>
                  <rect class="cls-24" x="118.52" y="71.95" width="23.06" height="4.87"/>
                  <rect class="cls-24" x="154.41" y="71.95" width="23.06" height="4.87"/>
                  <rect class="cls-24" x="32.02" y="82.57" width="79.03" height="4.15"/>
                  <g>
                    <g>
                      <rect class="cls-24" x="119.16" y="82.57" width="9.62" height="4.15"/>
                      <rect class="cls-24" x="131.31" y="82.57" width="9.62" height="4.15"/>
                    </g>
                    <g>
                      <rect class="cls-24" x="119.16" y="91.05" width="9.62" height="4.15"/>
                      <rect class="cls-24" x="131.31" y="91.05" width="9.62" height="4.15"/>
                    </g>
                    <g>
                      <rect class="cls-24" x="119.16" y="99.54" width="9.62" height="4.15"/>
                      <rect class="cls-24" x="131.31" y="99.54" width="9.62" height="4.15"/>
                    </g>
                    <g>
                      <rect class="cls-24" x="119.16" y="108.03" width="9.62" height="4.15"/>
                      <rect class="cls-24" x="131.31" y="108.03" width="9.62" height="4.15"/>
                    </g>
                    <g>
                      <rect class="cls-24" x="119.16" y="116.51" width="9.62" height="4.15"/>
                      <rect class="cls-24" x="131.31" y="116.51" width="9.62" height="4.15"/>
                    </g>
                    <g>
                      <rect class="cls-24" x="119.16" y="125" width="9.62" height="4.15"/>
                      <rect class="cls-24" x="131.31" y="125" width="9.62" height="4.15"/>
                    </g>
                  </g>
                  <g>
                    <g>
                      <rect class="cls-24" x="155.05" y="82.57" width="9.62" height="4.15"/>
                      <rect class="cls-24" x="167.2" y="82.57" width="9.62" height="4.15"/>
                    </g>
                    <g>
                      <rect class="cls-24" x="155.05" y="91.05" width="9.62" height="4.15"/>
                      <rect class="cls-24" x="167.2" y="91.05" width="9.62" height="4.15"/>
                    </g>
                    <g>
                      <rect class="cls-24" x="155.05" y="99.54" width="9.62" height="4.15"/>
                      <rect class="cls-24" x="167.2" y="99.54" width="9.62" height="4.15"/>
                    </g>
                    <g>
                      <rect class="cls-24" x="155.05" y="108.03" width="9.62" height="4.15"/>
                      <rect class="cls-24" x="167.2" y="108.03" width="9.62" height="4.15"/>
                    </g>
                    <g>
                      <rect class="cls-24" x="155.05" y="116.51" width="9.62" height="4.15"/>
                      <rect class="cls-24" x="167.2" y="116.51" width="9.62" height="4.15"/>
                    </g>
                    <g>
                      <rect class="cls-24" x="155.05" y="125" width="9.62" height="4.15"/>
                      <rect class="cls-24" x="167.2" y="125" width="9.62" height="4.15"/>
                    </g>
                  </g>
                  <rect class="cls-24" x="32.02" y="91.05" width="45.92" height="4.15"/>
                  <rect class="cls-24" x="32.02" y="99.54" width="62.66" height="4.15"/>
                  <rect class="cls-24" x="32.02" y="108.03" width="31.33" height="4.15"/>
                  <rect class="cls-24" x="32.02" y="116.51" width="67.19" height="4.15"/>
                  <rect class="cls-24" x="32.02" y="125" width="55.53" height="4.15"/>
                </g>
              </g>
              <g class="cls-30">
                <polygon class="cls-27" points="99.73 62.13 23.68 138.18 23.68 81.22 42.76 62.13 99.73 62.13"/>
                <polygon class="cls-27" points="124.52 62.13 43.85 142.8 30.91 142.8 111.57 62.13 124.52 62.13"/>
                <path class="cls-27" d="M192.23,65v6.47L120.9,142.8H95.74L176.4,62.13h12.94A2.89,2.89,0,0,1,192.23,65Z"/>
                <polygon class="cls-27" points="192.23 77.56 192.23 85.92 135.35 142.8 126.99 142.8 192.23 77.56"/>
                <polygon class="cls-27" points="192.23 104.21 192.23 119.17 168.6 142.8 153.64 142.8 192.23 104.21"/>
              </g>
            </g>
            <g>
              <g>
                <path class="cls-22" d="M338.86,65v39H510V65a4.17,4.17,0,0,0-4.17-4.16H343A4.16,4.16,0,0,0,338.86,65Z"/>
                <rect class="cls-28" x="384.07" y="18.19" width="80.67" height="168.54" rx="3.18" transform="translate(526.87 -321.94) rotate(90)"/>
                <rect class="cls-29" x="345.27" y="67.26" width="158.27" height="70.4" rx="3.18" transform="translate(848.81 204.93) rotate(180)"/>
                <g>
                  <rect class="cls-24" x="354.89" y="71.95" width="23.06" height="4.87" transform="translate(732.84 148.77) rotate(180)"/>
                  <g>
                    <g>
                      <rect class="cls-24" x="367.68" y="82.57" width="9.62" height="4.15" transform="translate(744.99 169.28) rotate(180)"/>
                      <rect class="cls-24" x="355.53" y="82.57" width="9.62" height="4.15" transform="translate(720.69 169.28) rotate(180)"/>
                    </g>
                    <g>
                      <rect class="cls-24" x="367.68" y="91.05" width="9.62" height="4.15" transform="translate(744.99 186.26) rotate(180)"/>
                      <rect class="cls-24" x="355.53" y="91.05" width="9.62" height="4.15" transform="translate(720.69 186.26) rotate(180)"/>
                    </g>
                    <g>
                      <rect class="cls-24" x="367.68" y="99.54" width="9.62" height="4.15" transform="translate(744.99 203.23) rotate(180)"/>
                      <rect class="cls-24" x="355.53" y="99.54" width="9.62" height="4.15" transform="translate(720.69 203.23) rotate(180)"/>
                    </g>
                    <g>
                      <rect class="cls-24" x="367.68" y="108.03" width="9.62" height="4.15" transform="translate(744.99 220.2) rotate(180)"/>
                      <rect class="cls-24" x="355.53" y="108.03" width="9.62" height="4.15" transform="translate(720.69 220.2) rotate(180)"/>
                    </g>
                    <g>
                      <rect class="cls-24" x="367.68" y="116.51" width="9.62" height="4.15" transform="translate(744.99 237.18) rotate(180)"/>
                      <rect class="cls-24" x="355.53" y="116.51" width="9.62" height="4.15" transform="translate(720.69 237.18) rotate(180)"/>
                    </g>
                    <g>
                      <rect class="cls-24" x="367.68" y="125" width="9.62" height="4.15" transform="translate(744.99 254.15) rotate(180)"/>
                      <rect class="cls-24" x="355.53" y="125" width="9.62" height="4.15" transform="translate(720.69 254.15) rotate(180)"/>
                    </g>
                  </g>
                </g>
              </g>
              <g class="cls-30">
                <path class="cls-27" d="M340.13,65v6.47l71.33,71.32h25.16L356,62.13H343A2.89,2.89,0,0,0,340.13,65Z"/>
                <polygon class="cls-27" points="340.13 77.56 340.13 85.92 397.01 142.8 405.37 142.8 340.13 77.56"/>
                <polygon class="cls-27" points="340.13 104.21 340.13 119.17 363.76 142.8 378.72 142.8 340.13 104.21"/>
              </g>
            </g>
            <g>
              <g>
                <rect class="cls-31" x="-382.43" y="39.41" width="1297.22" height="11.43"/>
                <rect class="cls-23" x="-382.43" y="45.12" width="1297.22" height="5.71"/>
              </g>
              <g>
                <g>
                  <rect class="cls-32" x="258.12" y="-68.06" width="8.06" height="107.47"/>
                  <g>
                    <rect class="cls-32" x="87.61" y="-68.06" width="15.5" height="107.47"/>
                    <g>
                      <g>
                        <polygon class="cls-32" points="87.61 32.25 87.61 39.41 77.29 39.41 10.11 -7.18 -0.22 -14.32 -63.31 -58.07 -67.4 -60.91 -67.4 -68.06 -57.08 -68.06 10.11 -21.48 20.43 -14.32 83.5 29.41 87.61 32.25"/>
                        <polygon class="cls-23" points="83.5 29.41 87.61 32.25 87.61 39.41 83.5 39.41 83.5 29.41"/>
                      </g>
                      <polygon class="cls-32" points="87.61 -68.06 87.61 -60.91 83.5 -58.06 20.43 -14.32 10.11 -7.18 -57.08 39.41 -67.4 39.41 -67.4 32.25 -63.31 29.42 -0.22 -14.32 10.11 -21.48 77.29 -68.06 87.61 -68.06"/>
                    </g>
                    <g>
                      <g>
                        <polygon class="cls-32" points="258.12 32.25 258.12 39.41 247.8 39.41 180.62 -7.18 170.29 -14.32 107.2 -58.07 103.11 -60.91 103.11 -68.06 113.43 -68.06 180.62 -21.48 190.94 -14.32 254.02 29.41 258.12 32.25"/>
                        <polygon class="cls-23" points="254.02 29.41 258.12 32.25 258.12 39.41 254.02 39.41 254.02 29.41"/>
                      </g>
                      <g>
                        <polygon class="cls-32" points="258.12 -68.06 258.12 -60.91 254.02 -58.06 190.94 -14.32 180.62 -7.18 113.43 39.41 103.11 39.41 103.11 32.25 107.2 29.42 170.29 -14.32 180.62 -21.48 247.8 -68.06 258.12 -68.06"/>
                        <polygon class="cls-23" points="103.11 32.25 107.2 29.42 107.2 39.41 103.11 39.41 103.11 32.25"/>
                      </g>
                    </g>
                  </g>
                </g>
                <g>
                  <rect class="cls-32" x="266.18" y="-68.06" width="8.06" height="107.47"/>
                  <g>
                    <g>
                      <polygon class="cls-32" points="274.24 32.25 274.24 39.41 284.56 39.41 351.74 -7.18 362.07 -14.32 425.16 -58.07 429.25 -60.91 429.25 -68.06 418.93 -68.06 351.74 -21.48 341.42 -14.32 278.34 29.41 274.24 32.25"/>
                      <polygon class="cls-23" points="278.34 29.41 274.24 32.25 274.24 39.41 278.34 39.41 278.34 29.41"/>
                    </g>
                    <polygon class="cls-32" points="274.24 -68.06 274.24 -60.91 278.34 -58.06 341.42 -14.32 351.74 -7.18 418.93 39.41 429.25 39.41 429.25 32.25 425.16 29.42 362.07 -14.32 351.74 -21.48 284.56 -68.06 274.24 -68.06"/>
                  </g>
                </g>
              </g>
            </g>
          </g>
        </g>
        <g>
          <ellipse class="cls-22" cx="217.94" cy="319.72" rx="29.62" ry="1.73"/>
          <g>
            <path class="cls-33" d="M204.15,253c3.69-1,8.68-2.33,10.51-2.91l-2.29-5.85s-7.36.95-10.62,1.51S199.56,254.26,204.15,253Z"/>
            <g>
              <g>
                <g>
                  <path class="cls-34" d="M215.2,320.17h5.4l.78-.45.57.45h5.45a.58.58,0,0,0,.58-.61l0-.92a8.22,8.22,0,0,0-.4-1.67,8,8,0,0,1-.22-.94l-.14-.86c-.07,0-6.19,0-6.19,0l-1.09,1.47a2.57,2.57,0,0,1-2,.49H217a1.34,1.34,0,0,0-1.15.67l-1,1.66,0,.08A.43.43,0,0,0,215.2,320.17Z"/>
                  <path class="cls-25" d="M215.21,320.17h5.39l.78-.45.57.45h5.45a.58.58,0,0,0,.58-.61l0-.92h-6.29a1.39,1.39,0,0,0-.79.24l-.6.43a.84.84,0,0,1-.49.15h-4.89l0,.08A.43.43,0,0,0,215.21,320.17Z"/>
                </g>
                <path class="cls-35" d="M228,319.56l0-.92h-4.82a13.65,13.65,0,0,1,1.1-3.46h3l.14.86a8,8,0,0,0,.22.94,8.22,8.22,0,0,1,.4,1.67l0,.92a.58.58,0,0,1-.58.61h0A.58.58,0,0,0,228,319.56Z"/>
                <path class="cls-36" d="M227.93,318.64l0,.92a.58.58,0,0,1-.58.61H223a13.14,13.14,0,0,1,.09-1.53Z"/>
              </g>
              <polygon class="cls-37" points="220.6 320.17 221.95 320.17 221.38 319.72 220.6 320.17"/>
            </g>
            <g>
              <g>
                <g>
                  <path class="cls-34" d="M205.16,320.17h5.39l.78-.45.57.45h5.46a.57.57,0,0,0,.57-.61l-.05-.92a8.22,8.22,0,0,0-.4-1.67,6.35,6.35,0,0,1-.21-.94l-.15-.86c-.07,0-6.19,0-6.19,0l-1.08,1.47a2.6,2.6,0,0,1-2,.49H207a1.32,1.32,0,0,0-1.14.67l-1,1.66,0,.08A.42.42,0,0,0,205.16,320.17Z"/>
                  <path class="cls-25" d="M205.16,320.17h5.39l.78-.45.57.45h5.46a.57.57,0,0,0,.57-.61l-.05-.92h-6.29a1.36,1.36,0,0,0-.78.24l-.61.43a.84.84,0,0,1-.49.15h-4.88l0,.08A.42.42,0,0,0,205.16,320.17Z"/>
                </g>
                <path class="cls-35" d="M217.93,319.56l-.05-.92h-4.82a13.2,13.2,0,0,1,1.11-3.46h3l.15.86a6.35,6.35,0,0,0,.21.94,8.22,8.22,0,0,1,.4,1.67l.06.92a.59.59,0,0,1-.58.61h0A.57.57,0,0,0,217.93,319.56Z"/>
                <path class="cls-36" d="M217.88,318.64l.05.92a.57.57,0,0,1-.57.61H213q0-.89.09-1.53Z"/>
              </g>
              <polygon class="cls-37" points="210.55 320.17 211.9 320.17 211.34 319.72 210.55 320.17"/>
            </g>
            <path class="cls-38" d="M216.76,261.54l2.35,29.53.69,25a.24.24,0,0,0,.25.24h7.43a.24.24,0,0,0,.25-.24l.2-25,1.77-29.53Z"/>
            <path class="cls-39" d="M218,261.54h-1.22l2.35,29.53.69,25a.24.24,0,0,0,.25.24h1.17l-.62-24.24Z"/>
            <path class="cls-38" d="M208.31,262l.74,29.08.7,24.94c0,.28.15.31.3.31h7.39a.22.22,0,0,0,.23-.22l.42-25,3.16-29.53Z"/>
            <path class="cls-39" d="M209.24,262l-.93,0,.74,29.08.7,24.94c0,.28.15.31.3.31h1.12l-1-25.27Z"/>
            <path class="cls-33" d="M212.63,226.16h13.9a5.23,5.23,0,0,1,5.22,5.61s-1.91,20-1.91,23.43a52.3,52.3,0,0,0,.56,6.75.86.86,0,0,1-.85,1H208.71c-.51,0-.73-.15-.68-.66.26-2.61.76-7.94.76-14,0-7.47-.82-17.24-.82-17.24A4.67,4.67,0,0,1,212.63,226.16Z"/>
            <path class="cls-33" d="M208.54,228.58l-9,19c-1,2.16-.35,4.57,1.43,5.36a4.27,4.27,0,0,0,5.39-1.71c2.46-4.35,7.49-13.05,9.51-17.32C218.8,227.65,210.4,225.06,208.54,228.58Z"/>
            <g>
              <g>
                <path class="cls-40" d="M218.17,206.71c-2.91,0-6.64,1.6-6.64,8.54,0,4.69.76,7.13,1.26,8.22a1.23,1.23,0,0,0,1.13.73h4.73c1.7,0,7.32-2,7.32-8.85C226,210.94,224,206.71,218.17,206.71Z"/>
                <path class="cls-41" d="M226,215.35c0,6.8-5.62,8.85-7.32,8.85h-4.51a3.47,3.47,0,0,1-.86-1.31c-1.92-4.84-.55-13.09-.53-13.19l.12-.2s0,0,0,0a3.47,3.47,0,0,1,.26-.37,5.83,5.83,0,0,1,.43-.53l.32-.31.16-.14.16-.14.17-.12a4,4,0,0,1,.34-.23l.17-.1.36-.19.15-.07a3.12,3.12,0,0,1,.39-.15L216,207l.4-.11.17,0a7.27,7.27,0,0,1,.79-.14h.22l.62,0C224,206.71,226,211,226,215.35Z"/>
              </g>
              <path class="cls-41" d="M222.71,222a9.28,9.28,0,0,0,.93,4.19h-8.16a6.4,6.4,0,0,0,1.47-4.23Z"/>
              <path class="cls-39" d="M213.37,217c-.9-.72-.51-2.84-1-3.08a3.21,3.21,0,0,0-.5-.21.43.43,0,0,1-.19-.13,9.18,9.18,0,0,1-1-6.91s.52,1.29,2.14.58c1.15-.51,9.15-4.08,12.77,2.11,0,0,4.31,6.06-2,12.44-.38.38-.73.8-2.63.8-6,0-6.18-2.89-6.18-2.89a2.1,2.1,0,0,0,.57-2.52C214.32,214.3,213.37,217,213.37,217Z"/>
              <path class="cls-25" d="M223.61,221.84c-.37.38-.73.8-2.63.8-6,0-6.18-2.89-6.18-2.89a2.11,2.11,0,0,0,.58-2.52c-1.06-2.93-2-.19-2-.19-.47-.83-.07-4.46-.66-4.74a4.42,4.42,0,0,0-.59-.25.45.45,0,0,1-.21-.15,9.8,9.8,0,0,1-1.2-5.16,0,0,0,0,1,0,0s.52,1.3,2.14.58c1.15-.51,9.14-4.08,12.76,2.11C225.62,209.4,229.94,215.46,223.61,221.84Z"/>
              <path class="cls-27" d="M224.53,226.16l-.46-.89a.72.72,0,0,0-.64-.4h-5.2c-2.41,0-3.4.94-3.4,1.29Z"/>
            </g>
            <path class="cls-27" d="M208.78,246.89h0c0,.47,0,.93,0,1.39,0,6.06-.5,11.39-.76,14-.05.51.17.66.68.66C208.55,262.4,209.91,252.11,208.78,246.89Z"/>
            <path class="cls-27" d="M200.41,247c.42-.91,8.08-16.63,8.72-18a4.8,4.8,0,0,1,4.25-2.39h14.11a4.06,4.06,0,0,1,2.89,1.23,5.23,5.23,0,0,0-3.85-1.69h-13.9a4.66,4.66,0,0,0-4,2.3.83.83,0,0,0-.08.12l0,.07a3.18,3.18,0,0,0-.16.32l-8.84,18.57c-1,2.16-.35,4.57,1.43,5.36a4,4,0,0,0,1.86.35,3.22,3.22,0,0,1-2.31-1C198.92,250.9,199.79,248.32,200.41,247Z"/>
          </g>
        </g>
        <g>
          <path class="cls-22" d="M84.3,332.44c0,1.48,20.54,2.68,45.88,2.68s45.88-1.2,45.88-2.68-20.54-2.67-45.88-2.67S84.3,331,84.3,332.44Z"/>
          <g>
            <g>
              <g>
                <path class="cls-42" d="M118.88,330.78v1.3a1.1,1.1,0,0,1-.19.55.87.87,0,0,1-.75.4H105.76a.66.66,0,0,1-.33-.65v-.06c0-.1,0-.3,0-.52,0-.05,0-.1,0-.15s0-.1,0-.16v-.1c0-.34.07-.67.08-.71.23-1.26,1-1.29,2.22-1.52,2.24-.41,2-1.47,2.65-2.14a1.52,1.52,0,0,1,1.08-.46h6a.65.65,0,0,1,.2,0l.18.05a.92.92,0,0,1,.24.13l.08.06.06.07a1.15,1.15,0,0,1,.21.33s0,0,0,.08a.29.29,0,0,1,0,.09s0,.07,0,.1Z"/>
                <path class="cls-43" d="M118.88,330.78v1.3a1.1,1.1,0,0,1-.19.55.87.87,0,0,1-.75.4H105.76a.66.66,0,0,1-.33-.65v-.06c0-.1,0-.3,0-.52,0-.05,0-.1,0-.15s0-.11,0-.16v-.1c1.31.39,4.06-.09,6.08-2.42a9.74,9.74,0,0,1,2.94-2.41h3a.69.69,0,0,1,.2,0l.18.05a.92.92,0,0,1,.24.13l.08.06.06.07a1.15,1.15,0,0,1,.21.33s0,0,0,.08a.29.29,0,0,1,0,.09s0,.07,0,.1Z"/>
              </g>
              <path class="cls-44" d="M111.23,266.2s-1.56,59.43-1.56,61.12,9.26,2,9.26.42c0-1,1.91-27.7,1.91-27.7s4.41-31.8,4.5-33.84Z"/>
              <g>
                <path class="cls-42" d="M124.62,330.78V332a.34.34,0,0,0,0,.1,1.19,1.19,0,0,0,.18.55.87.87,0,0,0,.75.4h12.18a.65.65,0,0,0,.34-.65v-.06c0-.1,0-.3,0-.52a.77.77,0,0,0,0-.15s0-.1,0-.16v-.1c0-.34-.07-.67-.08-.71-.23-1.26-1-1.29-2.23-1.52-2.23-.41-2-1.47-2.65-2.14a1.48,1.48,0,0,0-1.07-.46h-6a.62.62,0,0,0-.19,0l-.18.05a1.19,1.19,0,0,0-.25.13l-.07.06a.23.23,0,0,1-.07.07,1.38,1.38,0,0,0-.2.33.24.24,0,0,0,0,.08l0,.09s0,.07,0,.1Z"/>
                <path class="cls-43" d="M124.62,330.78V332a.34.34,0,0,0,0,.1,1.19,1.19,0,0,0,.18.55.87.87,0,0,0,.75.4h12.18a.65.65,0,0,0,.34-.65v-.06c0-.1,0-.3,0-.52,0-.05,0-.1,0-.15s0-.11,0-.16v-.1c-1.32.39-4.06-.09-6.08-2.42a9.74,9.74,0,0,0-2.94-2.41h-3a.64.64,0,0,0-.2,0l-.18.05a1.19,1.19,0,0,0-.25.13l-.07.06a.23.23,0,0,1-.07.07,1.38,1.38,0,0,0-.2.33.24.24,0,0,0,0,.08l0,.09s0,.07,0,.1Z"/>
              </g>
              <path class="cls-44" d="M135.79,266.2s-1.89,59.8-1.89,61.5-9.26,1.78-9.26.18c0-1-.42-27.84-.42-27.84s-1.49-31.8-1.58-33.84Z"/>
              <path class="cls-45" d="M134.6,266.2l-1.7,62.29a15.9,15.9,0,0,1-7.32.13V303.76c0-2.68-2.22-22.11-2.22-22.11s-3.93,19.19-4.18,22.55l-1.83,24.4a15.88,15.88,0,0,1-6.85-.53l1.61-61.87Z"/>
            </g>
            <g>
              <g>
                <path class="cls-46" d="M123.51,226.34h-3.63v-9h7.26v9Z"/>
                <g>
                  <path class="cls-46" d="M118.57,215.42c0,1.26-.52,2.28-1.49,2.28s-.83-.36-1-2.28c-.14-1.25-1.17-2.27.77-2.27A2.06,2.06,0,0,1,118.57,215.42Z"/>
                  <path class="cls-46" d="M128.45,215.42c0,1.26.52,2.28,1.49,2.28s.83-.36,1-2.28c.14-1.25,1.17-2.27-.77-2.27A2.06,2.06,0,0,0,128.45,215.42Z"/>
                  <path class="cls-46" d="M123.51,203.87a7.2,7.2,0,0,0-7.38,7l.42,3.87a19.16,19.16,0,0,0,1.48,5.66c1.17,2.7,2.42,3.7,5.48,3.7s4.31-1,5.49-3.7a19.45,19.45,0,0,0,1.47-5.66l.42-3.87A7.19,7.19,0,0,0,123.51,203.87Z"/>
                  <path class="cls-47" d="M129,205.55c-1.05-1.34-1.9-2.9-5.51-2.9a8.62,8.62,0,0,0-6.87,3.41,6,6,0,0,1-3.65,2.2c-.3.06-.5.08-.5.08,1.75.54,2.66.89,2.66.89a7.64,7.64,0,0,0-2.18,1c1.86.62,3.51,3.53,4.24,7.47.45,2.4,2.69,5.77,6.28,5.77h0c3.6,0,5.83-3.37,6.28-5.77.73-3.94,2-4.83,2-7.59C131.84,207.55,130.49,206,129,205.55Z"/>
                  <path class="cls-25" d="M131.84,210.07c0,2.76-1.3,3.65-2,7.59a7.76,7.76,0,0,1-1.37,3.07l-.11.15-.1.13a6,6,0,0,1-4.7,2.42h0a6.09,6.09,0,0,1-5-2.78,7.75,7.75,0,0,1-1.32-3c-.73-3.94-2.38-6.85-4.24-7.47a7.67,7.67,0,0,1,2.18-1s-.9-.34-2.64-.88h0l.5-.09a6,6,0,0,0,3.65-2.2,8.63,8.63,0,0,1,6.87-3.41c3.61,0,4.46,1.56,5.51,2.9C130.49,206,131.84,207.56,131.84,210.07Z"/>
                  <path class="cls-48" d="M118.53,220.65a7.75,7.75,0,0,1-1.32-3c-.73-3.94-2.38-6.85-4.24-7.47a7.67,7.67,0,0,1,2.18-1s.54.46,0,.6c-.25.06-.73.14-1.17.21C117.33,212.16,117.47,217.18,118.53,220.65Z"/>
                  <path class="cls-25" d="M131.84,210.07c0,2.76-1.3,3.65-2,7.59a7.76,7.76,0,0,1-1.37,3.07c1-1.5.95-4.56,2.25-7.94s-2.24-6.35-2.24-6.35a7.55,7.55,0,0,0-5.49-2.53c-3.43,0-5.13,2.79-6.83,3.83a5.34,5.34,0,0,1-3.62.61h0l.5-.09a6,6,0,0,0,3.65-2.2,8.63,8.63,0,0,1,6.87-3.41c3.61,0,4.46,1.56,5.51,2.9C130.49,206,131.84,207.56,131.84,210.07Z"/>
                </g>
              </g>
              <polygon class="cls-49" points="127.14 224.62 123.51 224.62 119.88 224.62 118.53 226.34 123.51 226.04 128.49 226.34 127.14 224.62"/>
            </g>
            <path class="cls-50" d="M133.61,226.82a5.59,5.59,0,0,0-2.35-.48s-3-.3-7.75-.3-7.67.3-7.67.3a5.51,5.51,0,0,0-3.16.95,5.25,5.25,0,0,0-2.32,4.33l1.39,24.43-.87,11.76a.73.73,0,0,0,.43.73c1,.43,3.82,1.22,11.62,1.22,8.14,0,11.54-.85,12.72-1.27a.75.75,0,0,0,.49-.76l-.87-11.68,1.4-24.43A5.16,5.16,0,0,0,133.61,226.82Z"/>
            <g>
              <g>
                <path class="cls-51" d="M105,272.41c.66,0,2.62,1.54,2.68,2.36s.59,6,.23,7c.27,0,.82.51.63.91a.53.53,0,0,1-.53.35s.09.58-.66.68c0,0-.12.52-.56.55,0,0,.06.62-.81.55a6.71,6.71,0,0,1-2.17-.63c-.19-.12-2.54-2.57-2.54-3s1.28-6.07,1.39-6.67S103.74,272.39,105,272.41Z"/>
                <path class="cls-52" d="M104.55,283.29a8.29,8.29,0,0,0,1.21.55c.34.05.7-.31.51-.53,0,0,.75-.09.54-.42,0,0,.84-.12.66-.42,0,0,.72-.37.4-.66a.69.69,0,0,1-.63-.56,16.67,16.67,0,0,1-.19-2.55,8.26,8.26,0,0,1-1-2.38s-.58,2.65-2.68,3.37c0,0-.13,1.59-.09,1.75A12.71,12.71,0,0,0,104.55,283.29Z"/>
              </g>
              <path class="cls-50" d="M115.5,226.34c-4.49,0-7.43,2.16-8.62,5.6s-4.82,22.28-4.82,22.28-.29,18.51-.29,20.16,6.53,1.79,6.63,0,1.18-19.31,1.18-19.31,4.14-19,4.92-21.22S117.61,226.34,115.5,226.34Z"/>
            </g>
            <g>
              <path class="cls-46" d="M156,269.64a18.32,18.32,0,0,1,2.07,2,4.42,4.42,0,0,1,.58,2.28c-.1.48-1.57,1.49-1.9,1.64s-1-.71-.51-1.17,1-1,1-1l-.14-1.5Z"/>
              <g>
                <g>
                  <g>
                    <rect class="cls-53" x="148.53" y="273.6" width="11.89" height="1.64"/>
                    <rect class="cls-53" x="147.53" y="274.6" width="3.64" height="1.64" transform="translate(424.77 126.07) rotate(90)"/>
                    <rect class="cls-27" x="139.47" y="286.47" width="19.76" height="1.3" transform="translate(436.47 137.77) rotate(90)"/>
                    <rect class="cls-23" x="149.19" y="288.02" width="0.33" height="1.3" transform="translate(438.02 139.32) rotate(90)"/>
                    <rect class="cls-27" x="149.72" y="286.47" width="19.76" height="1.3" transform="translate(446.72 127.52) rotate(90)"/>
                    <rect class="cls-23" x="159.44" y="288.02" width="0.33" height="1.3" transform="translate(448.28 129.07) rotate(90)"/>
                    <rect class="cls-53" x="157.78" y="274.6" width="3.64" height="1.64" transform="translate(435.02 115.81) rotate(90)"/>
                  </g>
                  <path class="cls-53" d="M147.65,296.44H161.3a4.62,4.62,0,0,1,4.62,4.62v25.85a2,2,0,0,1-2,2H145.07a2,2,0,0,1-2-2V301.06a4.62,4.62,0,0,1,4.62-4.62Z"/>
                  <path class="cls-54" d="M147.65,297H161.3a4.62,4.62,0,0,1,4.62,4.62v25.85a2,2,0,0,1-2,2H145.07a2,2,0,0,1-2-2V301.63A4.62,4.62,0,0,1,147.65,297Z"/>
                  <path class="cls-55" d="M165.13,298.19V328a.67.67,0,0,1-.68.68H144.51a.68.68,0,0,1-.69-.68V298.2a3.3,3.3,0,0,1,2.56-1.2h16.19A3.32,3.32,0,0,1,165.13,298.19Z"/>
                  <path class="cls-53" d="M165.92,314.85h0a.41.41,0,0,1-.4-.39,6.09,6.09,0,0,0-6.08-5.7h-9.93a6.09,6.09,0,0,0-6.08,5.7.4.4,0,0,1-.4.39h0a6.49,6.49,0,0,1,6.48-6.49h9.93A6.49,6.49,0,0,1,165.92,314.85Z"/>
                  <rect class="cls-53" x="148" y="315.62" width="12.95" height="0.56" rx="0.11"/>
                  <rect class="cls-53" x="149.89" y="302.59" width="9.17" height="1.66"/>
                </g>
                <g>
                  <path class="cls-50" d="M145.92,329.52h.67a0,0,0,0,1,0,0v1.63a0,0,0,0,1,0,0h-.4a.27.27,0,0,1-.27-.27v-1.36A0,0,0,0,1,145.92,329.52Z"/>
                  <path class="cls-50" d="M148.29,329.52H149a0,0,0,0,1,0,0v1.36a.27.27,0,0,1-.27.27h-.4a0,0,0,0,1,0,0v-1.63A0,0,0,0,1,148.29,329.52Z"/>
                  <rect class="cls-50" x="147.11" y="329" width="0.67" height="1.7" transform="translate(-182.41 477.29) rotate(-90)"/>
                  <rect class="cls-53" x="146.59" y="330.19" width="1.7" height="2.84" rx="0.34"/>
                </g>
                <g>
                  <path class="cls-50" d="M162.64,329.52h.4a0,0,0,0,1,0,0v1.63a0,0,0,0,1,0,0h-.67a0,0,0,0,1,0,0v-1.36A.27.27,0,0,1,162.64,329.52Z" transform="translate(325.4 660.66) rotate(180)"/>
                  <path class="cls-50" d="M160,329.52h.4a.27.27,0,0,1,.27.27v1.36a0,0,0,0,1,0,0H160a0,0,0,0,1,0,0v-1.63A0,0,0,0,1,160,329.52Z" transform="translate(320.66 660.66) rotate(-180)"/>
                  <rect class="cls-50" x="161.18" y="329" width="0.67" height="1.7" transform="translate(-168.34 491.37) rotate(-90)"/>
                  <rect class="cls-53" x="160.66" y="330.19" width="1.7" height="2.84" rx="0.34" transform="translate(323.03 663.21) rotate(180)"/>
                </g>
              </g>
              <path class="cls-46" d="M149.28,270.69s.44,2.11.57,2.83.3,1.57.37,1.72a2,2,0,0,0,1.21.87,1.59,1.59,0,0,0,.8-.28,1.52,1.52,0,0,0,.82.28,2.87,2.87,0,0,0,1-.28,3,3,0,0,0,1,.28,2.51,2.51,0,0,0,.92-.28,1.89,1.89,0,0,0,.85.28,1.05,1.05,0,0,0,1.18-.87,15.38,15.38,0,0,0-.3-3.7,44.35,44.35,0,0,0-3.22-3.4c-.32-.43-2.28-2.54-4.54-1.54S149.28,270.69,149.28,270.69Z"/>
              <path class="cls-50" d="M131.66,226.34c1.89,0,6.22,1.2,7.41,4.64s7.09,23.37,7.09,23.37,7.77,11.94,8.51,13.41c.82,1.64-5.28,4.48-6.19,2.93-1.24-2.11-9.48-13.36-9.48-13.36s-7.45-22.85-8.23-25.11S129.55,226.34,131.66,226.34Z"/>
            </g>
            <path class="cls-56" d="M157.19,272.61l-7-.81-.47-.66L140,257.3a3.33,3.33,0,0,1-.44-.86L135,243.6,134,255a15,15,0,0,0,0,2.12l.67,11.68c-1.76.43-5.23,1-11.67,1s-9.46-.53-10.89-1c0,0,.83-11.4.77-12.94s-1.34-11.8-1.34-11.8L108.74,254a7.87,7.87,0,0,0-.24,1.53l-.82,19.68-.09,2.13-5.36-1,0-1.24.54-20.16a7.74,7.74,0,0,1,.12-1.17c.61-3.44,3.74-20.79,4.6-22.18s2.54-4.63,8.12-4.63h15.25c1.73,0,6,.75,7.26,4.14s6.78,22.64,7.18,23.56c.27.65,5.8,8.94,9.22,14Z"/>
          </g>
        </g>
        <rect id="background" class="cls-1" x="-190.71" y="-121.25" width="913.78" height="646.1"/>
      </g>
    </g>
  </g>
</svg>
