<svg id="Layer_1" data-name="Layer 1" xmlns="http://www.w3.org/2000/svg" width="483.73" height="332.08" viewBox="0 0 483.73 332.08">
  <defs>
    <style>
      .cls-1 {
        fill: #ff0;
      }

      .cls-2 {
        fill: #64737b;
      }

      .cls-3 {
        fill: #5a6159;
      }

      .cls-4 {
        fill: #4a565d;
      }

      .cls-5 {
        fill: #97a0aa;
      }

      .cls-6 {
        fill: #897478;
      }

      .cls-7 {
        fill: #b4a063;
      }

      .cls-8 {
        fill: #fff;
      }

      .cls-9 {
        fill: #857d75;
      }

      .cls-10 {
        fill: #878680;
      }

      .cls-11 {
        fill: #e1c88c;
      }

      .cls-12 {
        fill: #3a454a;
      }

      .cls-13 {
        fill: #aca094;
      }
    </style>
  </defs>
  <g>
    <path class="cls-1" d="M26.35,302.86c-.15.43-.3.87-.42,1.34,0,.17-.08.34-.11.51a9.4,9.4,0,0,0-.17,1,5.36,5.36,0,0,0,0,.7,7.36,7.36,0,0,0,.07,1.94,6,6,0,0,0,.17.95,9.73,9.73,0,0,0,.68,1.92,12.6,12.6,0,0,0,.85,1.46c2.56,4.6,8.08,6.51,12.34,7.3a87.36,87.36,0,0,0,10.6,1.17c.81,0,1.66.08,2.59.08,1.22,0,2.41-.05,3.53-.09h.28a17.41,17.41,0,0,0,7.38-1.51,7.63,7.63,0,0,0,2.67-2.2c1.87-1.37,3.79-4,2.55-9a23.77,23.77,0,0,0-3.79-7.46c-.75-1.11-1.55-2.26-2.42-3.41a3,3,0,0,0-.07-.32,6.38,6.38,0,0,0-.15-.66,19.83,19.83,0,0,0-4.17-7.06c-.57-.7-1.11-1.36-1.47-1.91-3.76-5.86-2.77-13.74-1.32-22,.79-4.48,1.72-8.87,2.75-13.06.31-1.23.63-2.45.95-3.64l0-.12c.31-1.14.63-2.27,1-3.36l.11-.39c.31-1,.63-2,1-3.06l.18-.59c.39-1.18.8-2.36,1.22-3.53a94.17,94.17,0,0,1,5.53-12.43c.72-1.34,1.48-2.66,2.29-4.06.59-1,1.19-2,1.77-3.1.11.4.22.8.35,1.19a38.46,38.46,0,0,0,4.13,8.19c.77,1.26,1.5,2.45,2.09,3.61.39.79.79,1.62,1.2,2.56l.36.88c.25.58.49,1.16.71,1.74.1.25.19.51.29.76l.1.3c.2.55.41,1.09.59,1.65.13.37.25.74.38,1.14s.35,1.09.52,1.65c.11.39.23.77.34,1.15.16.57.32,1.14.48,1.73.1.38.2.75.3,1.14.16.6.32,1.21.47,1.82l.26,1.07c.17.69.33,1.39.51,2.17l.18.75c.36,1.6.71,3.2,1.07,4.8q.66,3.06,1.36,6.09l.27,1.19c.1.39.19.78.29,1.17l.49,2c.13.53.28,1.07.42,1.6l.42,1.54.46,1.58c.15.53.32,1.06.48,1.58s.33,1,.5,1.55c0,0,.17.55.23.72s.09.26.15.39c.59,1.71,1.14,3.16,1.71,4.53l.11.34.3.95c0,.27-.19.79-.3,1.18-.17.62-.37,1.35-.52,2.16a14,14,0,0,0,0,10.76c2,5.09,6,5.6,7.37,5.62a9.52,9.52,0,0,0,.76,4.54l.12.28c.08.15.16.32.24.46a13.21,13.21,0,0,0,6.67,5.45,26.93,26.93,0,0,0,11.17,2.09c1.9,0,3.78-.12,5.39-.24A34.38,34.38,0,0,0,135.83,312l.1,0a13.39,13.39,0,0,0,1.92-.74,14.33,14.33,0,0,0,2-1c.47-.13.88-.27,1.24-.39l.51-.18a7.36,7.36,0,0,0,4.67-2.85,6.38,6.38,0,0,0,1.18-4.81c-1.06-6.68-6.23-10.4-10.67-12.76-1.44-3.72-4.35-6.36-6.73-8.51-.56-.51-1.12-1-1.61-1.5a28.91,28.91,0,0,1-6.12-8.92,111.46,111.46,0,0,1-7.52-22.86c-1.25-6.07-2.16-14.81.65-21.92.9-2.27,2-4.52,3.27-6.9a75.9,75.9,0,0,0,4.25-9.3,8.32,8.32,0,0,0,.85-.41,8.2,8.2,0,0,0,2.11.28,8.76,8.76,0,0,0,2.37-.34c1.78-.51,5-2.11,6.13-7.2.06-.25.11-.5.17-.76l.87,0a21.84,21.84,0,0,0,7.26-1.41,19.19,19.19,0,0,0,3.74-1.81,28.54,28.54,0,0,1,4.43,2.59c2,1.37,4,2.91,6.1,4.54s4.41,3.46,6.84,5.08c3.9,2.61,9.23,5.61,15.94,5.61.52,0,1,0,1.58-.05,5.89-.41,10-3.47,13.37-5.93.87-.64,1.68-1.24,2.5-1.79,5.92-3.94,14.2-5.86,25.33-5.86l1.53,0a53.42,53.42,0,0,1,12.59,1.78c3.73,1,4.37,1.76,4.48,2s.15.31.2.44c.19,4.45.15,9.32-.13,15.23l-.12,2.41a99.44,99.44,0,0,0,.15,17.24c.54,4.38,2.87,7.54,4.74,10.08l.21.28a50,50,0,0,1,2.4,14.82c0,3-.07,5.93-.17,9.06l0,1.17c-.05,1.25-.1,2.55-.09,3.9l-.06,1.22c0,.36,0,.71-.05,1.06-.06.82-.06,1.6-.06,2.29v.48l0,.05a16.1,16.1,0,0,0-1.36,2.1,11.26,11.26,0,0,0-1.32,5.06c-.07.2-.13.4-.2.63s-.08.32-.14.54-.09.44-.13.64-.07.4-.11.64,0,.35-.06.55,0,.43,0,.6a1.62,1.62,0,0,0,0,.23,16.39,16.39,0,0,0,.1,2.79v.06c.06.48.13,1,.23,1.41a9.22,9.22,0,0,0,4,5.9,6.52,6.52,0,0,0,1.09.62,8.35,8.35,0,0,0,2.77,4.82A18.32,18.32,0,0,0,267,322.84a29.57,29.57,0,0,0,5.4.45c1.32,0,2.72-.07,4.3-.21.89-.08,1.87-.09,2.9-.1.73,0,1.46,0,2.2-.05a19.51,19.51,0,0,0,8.88-2.09,10.12,10.12,0,0,0,6.08-3.13,9.37,9.37,0,0,0,1.53-2.23c4.06,2.27,8.68,2.34,12.12,2.38h.69c7.64,0,14.81-2.05,21.4-4.26a11.14,11.14,0,0,0,4.7-3.49c4-6.86-2.82-13.23-5.08-15.32a28.51,28.51,0,0,0-6.9-4.83,29.26,29.26,0,0,0-1.95-2.74c-.33-.42-.66-.84-1-1.28a26.07,26.07,0,0,1-2-3.57,69.78,69.78,0,0,1-3.24-8.6c-1.76-5.33-3.79-12.32-3.9-19a17.45,17.45,0,0,1,.84-4.47,34.19,34.19,0,0,0,1.15-5.43,24.44,24.44,0,0,0-.43-6.91,25.36,25.36,0,0,1-.22-4.56c0-.76,0-1.52.08-2.28l.09-1.21c0-.36.05-.72.08-1.09s.07-.64.11-1l.1-.88c0-.15,0-.3.06-.46q.12-.85.27-1.74l.09-.54c.1-.59.22-1.18.35-1.77l.1-.5c.13-.59.28-1.16.43-1.74l.12-.5c.15-.55.32-1.09.48-1.65l.16-.54c0-.08.05-.16.08-.23a30.38,30.38,0,0,0,7.1-6.43,24.66,24.66,0,0,0,3.59-6.59,20.12,20.12,0,0,0,1.24-6.46c0-.51.07-1,.12-1.52a13.68,13.68,0,0,1,1.72-3l.39-.57c.48-.71,1-1.4,1.48-2.1,1-1.37,2-2.78,2.93-4.35a53.09,53.09,0,0,0,5.91-14.71,30.44,30.44,0,0,0,.6-3.41c.06-.51.13-1,.22-1.54a9.85,9.85,0,0,1,1.51-3.42,47.75,47.75,0,0,1,6.69-7.57c3.42-3.38,7.15-6.44,11.1-9.68,2.08-1.71,4.24-3.47,6.34-5.29,5.59-4.84,10.93-10,16.1-14.94L386,124a151.09,151.09,0,0,1,15.33-12.6c1.47,0,2.85-.09,4.19-.19.74,0,1.49-.1,2.23-.13l1,0c.88,0,1.75,0,2.63.07l.81.06c.09.13.18.26.28.38l.06.09c.07.1.16.22.23.3l.12.14c.08.09.38.42.44.47l.33.34c.11.1.23.21.38.33s.23.19.33.27l.25.19.35.24c.12.08.26.18.37.24l.31.18a8,8,0,0,0,.77.39l.5.22a10.76,10.76,0,0,0,1.29.42,11.94,11.94,0,0,0,3.06.38,14.86,14.86,0,0,0,2.27-.18l.29,0,.27.17a16.53,16.53,0,0,0,8.75,2.61h.58a24.3,24.3,0,0,0,6.55-1.07l.38-.09.81-.2a14.52,14.52,0,0,0,6.46-2.86,12.68,12.68,0,0,0,1.43-1.34,11.5,11.5,0,0,0,1.42-1.92l0-.07.66-.29a13.19,13.19,0,0,0,3.52-1.59l.19-.11.52-.31c.45-.27,1-.59,1.57-1l.21-.11a8.65,8.65,0,0,0,.84-.54c.22-.17.43-.33.64-.52a9.33,9.33,0,0,0,.69-.71,5.5,5.5,0,0,0,.45-.53,8.41,8.41,0,0,0,.51-.76,6.29,6.29,0,0,0,.33-.59c.13-.25.24-.51.36-.81s.15-.4.22-.62.15-.51.21-.8.09-.43.12-.59.07-.6.09-.9,0-.38,0-.61a8.79,8.79,0,0,0-.13-1.49,11.48,11.48,0,0,0-2-4.6,13,13,0,0,0-.19-6.86c-.75-2.41-2.79-5.57-8.24-7L450,79.28l-1.29-1.14c-.61-.53-1.19-1-1.72-1.55.79-.37,1.54-.78,2.24-1.18,1.53-.89,3-1.85,4.42-2.77,2.92-1.92,5.68-3.72,8.45-4.48.28-.08.9-.18,1.45-.26,3-.49,8.6-1.38,10.76-6.86,2.33-5.92-2-10.87-3.42-12.5-4.65-5.33-11.91-8.84-21.58-10.45a39.73,39.73,0,0,0-6.51-.55,35.92,35.92,0,0,0-7,.68c.08-.16.16-.31.22-.46s.2-.45.32-.73l.18-.43c.16-.41.29-.81.4-1.17A19.35,19.35,0,0,0,434.49,20a20,20,0,0,0-4.65-5.26,22.52,22.52,0,0,0-14.32-5.93q-.82-.06-1.65-.06a22.81,22.81,0,0,0-14.11,4.75,36.17,36.17,0,0,0-4.13-.25l-1.38,0a38,38,0,0,0-22.66,9.41A15.62,15.62,0,0,0,361,15.44a14.36,14.36,0,0,0-2.62-.25,14.08,14.08,0,0,0-4.07.61c-5,.78-9.39,3.93-12.55,8.92a20,20,0,0,0-2.41,16.8l-2.47-.08a76.24,76.24,0,0,1-15.48-2.16c-3.61-.9-7.22-1.83-10.82-2.75-7.51-1.93-15.27-3.92-23-5.7A114.88,114.88,0,0,0,270.23,28c-2.08-.15-4.26-.23-6.46-.23-3.58,0-7.28.19-11.32.59-11.33,1.11-22.31,3.95-32.92,6.7l-.75.2a144.26,144.26,0,0,1-16.65,3.45c-4.91-1.32-9.9-2.27-14.75-3.19l-1.5-.28q-5.16-1-10.32-2l-1.67-.32a21.6,21.6,0,0,1-6-1.68c-.93-.49-1.91-1.14-3-1.82-3.18-2.09-7.15-4.69-12.49-4.69-.5,0-1,0-1.53.08a37.64,37.64,0,0,0-7.43,1.67,38.19,38.19,0,0,1-3.75,1,10.23,10.23,0,0,1-1.92.15c-.84,0-1.76-.05-2.74-.12s-2-.12-3.06-.13a61.67,61.67,0,0,0-9.25-.73,54.59,54.59,0,0,0-9.23.78,5.05,5.05,0,0,0-.56.12h-.11a29.54,29.54,0,0,0-5.6.53h-.07l-1.42.33-.18,0c-.45.12-.9.25-1.28.38l-.31.09c-.52.17-1,.36-1.55.57-4.76,1.91-8.67,5.34-11.6,8.23-7,4.92-14.18,9.6-21.25,13.89-2.55,1.54-5.21,3.06-7.79,4.52-2.87,1.64-5.84,3.33-8.74,5.11a22.73,22.73,0,0,0-5.37,4.18c-3.43,3.82-6,9.11-7.63,15.71a85.9,85.9,0,0,0-1.95,15.19l-.05.76c-.1,1.52-.2,3-.29,4.56l0,.7c-.07,1.3-.14,2.59-.19,3.87l0,.44a2.43,2.43,0,0,0,0,.27c-.11,2.82-.14,5.17-.1,7.37.07,3.81.32,7.6.56,11.27.08,1.17.15,2.34.23,3.51L38,130.84c-.65,7.21-1.26,14-3.12,20.54-2.35,8.26-6.34,16.48-10.2,24.43l-.11.22c-1.12,2.3-2.33,4.64-3.49,6.92A154,154,0,0,0,13,200.58c-2.77,7.59-5.6,18.93-3.38,29.83A6.47,6.47,0,0,0,12,234.32a44.09,44.09,0,0,0,1.45,5.59l.29.84s.11.34.15.44l.21.6.37,1c.19.5.38,1,.59,1.51l.08.2c.11.27.22.54.33.79.23.57.49,1.12.75,1.67l.1.21c.1.22.2.44.32.66.47.94.92,1.76,1.39,2.51a6.47,6.47,0,0,0,5.56,3.07,6.9,6.9,0,0,0,1.44-.15,6.47,6.47,0,0,0,3.15.81c-.09,1.21-.19,2.48-.32,3.83-.44,4.79-1,9.68-1.51,14.41-.25,2.32-.51,4.65-.75,7a13.61,13.61,0,0,1-1.71,2.49c-.61.77-1.3,1.65-1.94,2.64a8.57,8.57,0,0,0-.51.89q-.16.35-.27.63l0,0c-.05.14-.11.31-.15.45a7.48,7.48,0,0,0-.24,1c0,.1,0,.19,0,.28a9.24,9.24,0,0,0-.06,1.05,13.68,13.68,0,0,0-1.29,8.2,6.43,6.43,0,0,0,3.48,5A8.57,8.57,0,0,0,26.35,302.86Zm251.12-39.61c.12-.63.26-1.26.42-2,.36-.66.76-1.33,1.18-2l.7-1.18a21.35,21.35,0,0,0,2.1-5,57.8,57.8,0,0,1,2.82,8.88c.15.66.29,1.4.45,2.33l.08.48c.12.76.23,1.53.32,2.28l.06.45c.08.73.16,1.45.22,2.16l0,.4c.07.82.13,1.65.18,2.44l0,.66c.05.81.1,1.62.14,2.41,0,0,.15,2.5.21,3.66l.08,1.21c.06.89.12,1.79.19,2.69-.2.45-.43,1-.63,1.52a11.44,11.44,0,0,0-.5,1.76,7.78,7.78,0,0,0-.13,2.2,14,14,0,0,0-.24,3.4,17.32,17.32,0,0,0-2.23-2,6.91,6.91,0,0,1-1-.82,6,6,0,0,1-.71-2.48,38.52,38.52,0,0,0-1.14-4.72c-.16-.53-.31-1.05-.45-1.58a70.3,70.3,0,0,1-2.19-11.77A21.85,21.85,0,0,1,277.47,263.25Z"/>
    <g>
      <path class="cls-2" d="M466.34,52.49c-4.44-5.07-11.53-7.4-18-8.49s-13.77-.32-19.58,3.25a16.49,16.49,0,0,0-1.9-7.61c2.13-1,3.75-4,4.3-5.92a13.4,13.4,0,0,0-1.75-10.57,14.39,14.39,0,0,0-3.53-3.89c-2.68-2.8-6.88-4.17-10.7-4.43a17.12,17.12,0,0,0-13.54,5.08,28.41,28.41,0,0,0-7.09-.59c-9.45.39-18.49,6.09-24.25,13.46a18.77,18.77,0,0,1-3.59,3.95,16.18,16.18,0,0,0,.4-9.43c-.9-3.22-4-5.35-7.2-6a7.91,7.91,0,0,0-4.18.34c-3.73.42-6.79,3-8.84,6.26a13.93,13.93,0,0,0-.4,14.87,16.49,16.49,0,0,0,4,4.51l-.36.19,0,0c-1.52,0-3,0-4.6,0q-4.4,0-8.78-.14A81.46,81.46,0,0,1,320,45.1c-11.24-2.81-22.4-5.82-33.7-8.42A107.25,107.25,0,0,0,269.79,34a99.89,99.89,0,0,0-16.76.35c-11.12,1.09-21.92,3.93-32.74,6.74a142.3,142.3,0,0,1-18.59,3.74c-5.54-1.56-11.31-2.61-16.95-3.68q-5.19-1-10.36-2c-3.21-.64-6.46-1.06-9.34-2.59-4.4-2.33-8.13-6.28-13.6-5.76-3.62.34-7,1.9-10.58,2.61-3,.6-6.26,0-9.3,0h0a51.64,51.64,0,0,0-17,0,1.05,1.05,0,0,0-.5.23,22.12,22.12,0,0,0-9.36,1.5c-3.75,1.5-7,4.36-10,7.28q-10.75,7.55-22,14.4C67.23,60,61.59,63,56.17,66.35a17.67,17.67,0,0,0-4,3.07C48.86,73.07,47,78,45.86,82.56A84.39,84.39,0,0,0,44,97.47c-.37,5.57-.74,11.13-.63,16.7.09,5,.51,10,.8,15-.73,8-1.3,16.09-3.52,23.87C38.16,161.87,34,170.35,30,178.66c-3.86,7.93-8.38,15.72-11.39,24s-4.89,18-3.13,26.59c.19,1,1.74,0,1.78-.67l0-.42,0,.42A38.27,38.27,0,0,0,19.16,238a44.66,44.66,0,0,0,4,9.18c.32.52,1.46,0,1.31-.53a65.48,65.48,0,0,1-2.15-9.94c-.17-1.89-.34-3.81-.45-5.73a33.57,33.57,0,0,0,1,5.2A28.15,28.15,0,0,0,24.5,241a35.6,35.6,0,0,1,2,4,.29.29,0,0,0,.23.18c.29.85.6,1.7.92,2.54s2,0,1.89-.85c-.73-3.87-1.81-7.67-2.29-11.59a59.38,59.38,0,0,1,.16-12.14,54.43,54.43,0,0,1,1-6.89,1.57,1.57,0,0,1,0,.23c.73,3.51,2,6.93,2.94,10.4.52,1.94,1,3.89,1.43,5.85a70.53,70.53,0,0,1,1.54,11.66,104,104,0,0,1-.51,14.11c-.69,7.39-1.57,14.78-2.35,22.16,0,.11-.07.22-.11.32-.89,2.65-2.92,4.46-4.41,6.75-.54.83-.32,1.35.18,1.71-1.1,1.38-2.47,4.94-1.82,6.55a.57.57,0,0,0,.25.61c1.58.8,3-.18,4.37-1a12.85,12.85,0,0,1,1.4-.81h0a5.55,5.55,0,0,0,.42.49,1.42,1.42,0,0,0,.13.12,4.31,4.31,0,0,0-.11.85c0,.79.79,1.43,1.26,2,1,1.23.34,3.44-.23,4.68-.79,1.74-1.86,3.74-.94,5.64a6,6,0,0,0,.57.92c1.3,2.68,5.37,4,8.31,4.56a81.77,81.77,0,0,0,9.88,1.08,53.3,53.3,0,0,0,5.51,0,12.77,12.77,0,0,0,5.22-.9,1.89,1.89,0,0,0,1-1.31v0a1.67,1.67,0,0,0,.8-.32c.86-.62.5-1.88.29-2.71a18.69,18.69,0,0,0-2.91-5.53,57,57,0,0,0-3.42-4.63,2.51,2.51,0,0,0,0-1.48c-.81-2.82-3.37-5-4.92-7.39-5-7.88-3.7-17.59-2.18-26.26a173,173,0,0,1,7.44-28.75,101.2,101.2,0,0,1,5.88-13.22c2.36-4.4,5.2-8.62,7-13.25a.7.7,0,0,0,.07-.22q1.83-3.15,3.85-6.19a98.66,98.66,0,0,1,10.32-12.37c.89-1,1.81-1.89,2.78-2.8-.55,2.11-1.08,4.23-1.83,6.29-1.39,3.8-3.79,7.21-5.57,10.85a17.61,17.61,0,0,0-1.26,12.69c1.3,3.95,4,7.26,5.88,11,7.88,15.67,8.06,33.8,14.81,49.83.2.62.41,1.24.59,1.87.71,2.44-.7,4.5-.85,6.81a.54.54,0,0,0-.19.21,8,8,0,0,0,0,6.4c.53,1.37,1.42,2.31,2.87,1.51.49-.1,1-.4,1-.79a2.48,2.48,0,0,1,.25-.67,1,1,0,0,1,.47-.24c2-.32,2.9,1.29,3.31,2.81.08.31.16.63.23.94,0,.9.07,1.81.12,2.71,0,.1,0,.2-.06.31s-.08.29-.12.44a3.55,3.55,0,0,0,0,3.12,7.8,7.8,0,0,0,3.87,2.9c4.35,1.92,9,1.7,13.7,1.36a29.3,29.3,0,0,0,8.91-1.63l.46-.18a7.15,7.15,0,0,0,1.33-.51,6.39,6.39,0,0,0,2-1.16c1.09-.09,2.22-.73,3.28-.89.33,0,1-.4.91-.8-.83-5.21-6.07-7.76-10.54-9.87a1.26,1.26,0,0,0,.38-1.14c-1-3.4-4.69-6-7.16-8.44a34.72,34.72,0,0,1-7.37-10.73,116.58,116.58,0,0,1-7.91-24.09c-1.67-8.08-2.16-17.49.94-25.35,2.64-6.67,7-12.69,8.52-19.71,2.26,1.31,4-.94,4.72-2.84a9.34,9.34,0,0,0,.31-1.1,9,9,0,0,0,1,2.69,1.85,1.85,0,0,0,2.25.73c1.2-.34,1.69-1.76,1.93-2.79.29-1.24.43-2.51.74-3.76.19-.77.46-1.74,1.37-2,1.18-.31,2.83.25,4,.33a14.76,14.76,0,0,0,6.05-1.06c1.84-.63,3.25-1.78,4.94-2.64l.1-.07c.9.27,1.78.56,2.66.92a32.69,32.69,0,0,1,5.76,3.26c4.47,3,8.45,6.62,12.93,9.62,4.19,2.81,8.54,4.92,13.78,4.56s8.79-3.94,13-6.72c8.69-5.79,20.11-7,30.28-6.85a58.63,58.63,0,0,1,14,2c3.14.82,6.81,2.06,8.33,5.1a11.59,11.59,0,0,1,.79,2c.27,5.54.17,11-.09,16.61-.29,6.13-.77,12.52,0,18.63.37,2.92,2.09,5.18,3.79,7.49l.6.8a55.94,55.94,0,0,1,3,17.57c0,3.16-.08,6.31-.18,9.46,0,1.59-.14,3.24-.12,4.89-.05.87-.07,1.73-.13,2.51-.07,1.07,0,2.16-.06,3.23-.06,1.81-1.31,2.63-2.07,4.08a4.56,4.56,0,0,0-.53,3.23,9,9,0,0,0-.6,5.95,3.15,3.15,0,0,0,1.4,2.05.84.84,0,0,0,.6.27c2,.1,3-2.16,3.95-3.49-.05.08,0,.06,0,0,.28.24.53.51.8.76a10.94,10.94,0,0,1-.77,2.07,8,8,0,0,0-.95,2.47c-.17,1.32-.2,3.95,1.6,4.14h.18c1.3,4.91,5,8.28,10.37,9.25a31,31,0,0,0,8.11.17c1.79-.16,3.59-.1,5.39-.17,2.05-.09,5.64-.36,7.18-2.16a3.76,3.76,0,0,0,3.61-1.15c1.46-1.56.85-3.14-.42-4.57a53.94,53.94,0,0,0-4.86-4.94c-1-.88-2.06-1.73-3.09-2.58-.65-.53-1.29-1.14-2-1.68a1.25,1.25,0,0,0-.15-1.46c-.43-3-3.19-3.53-4.79-5.83a11.33,11.33,0,0,1-1.69-4.95,56.94,56.94,0,0,0-1.47-5.71,75.84,75.84,0,0,1-2.36-12.76,25.82,25.82,0,0,1,0-7c.19-1,.42-2,.65-3,.72-1.38,1.55-2.7,2.37-4.11a18.68,18.68,0,0,0,2.21-10.12c-.13-4.52-.51-9-.48-13.55,0-4.34.05-8.7.29-13a49.57,49.57,0,0,1,1.6-10.16,6.31,6.31,0,0,1,1.28.39c.82.35,1.64.72,2.45,1.11A23.92,23.92,0,0,1,283,213a35.75,35.75,0,0,1,.92,8.13c.15,6.1-1.14,12.22-.55,18.3.36,3.62,2.13,6.85,3.52,10.15a65.52,65.52,0,0,1,3.62,11.08c1.73,7.7,1.53,15.66,2.29,23.49a22.31,22.31,0,0,0-1.37,3.45,1.67,1.67,0,0,0,.19,1.2c-1,2.2-.22,5.57.75,7.42.3.58.78,1.33,1.47,1.35a1.35,1.35,0,0,0,1.16-.27c.78-.77,1.42-2.08,2.43-2.55a.49.49,0,0,1,.16-.05c.15.24,0,0,.1.25a6.23,6.23,0,0,1,.17.86,7.64,7.64,0,0,0,.71,2.34.85.85,0,0,0,.1.14,25.62,25.62,0,0,0-.56,3.58,14.08,14.08,0,0,0,.21,3.25,6.36,6.36,0,0,0,0,1.07,5.28,5.28,0,0,0,.63,2.51,7.26,7.26,0,0,0,1.68,1.21c2.84,1.89,6.64,1.92,9.95,2,6.84.1,13.6-1.8,20-3.94a1.18,1.18,0,0,0,.58-.47,1.14,1.14,0,0,0,.83-.37c1.59-2.7-2.19-6.22-4-7.88a21.32,21.32,0,0,0-7.58-4.72,1.25,1.25,0,0,0-.1-.75.74.74,0,0,0-.09-.36c-.82-1.43-2-2.65-2.9-4a33,33,0,0,1-2.48-4.37,74.53,74.53,0,0,1-3.54-9.33c-2.19-6.66-4.08-13.75-4.2-20.81-.06-3.71,1.63-7,2-10.64a19.42,19.42,0,0,0-.39-5.27,31.28,31.28,0,0,1-.3-5.64,60.53,60.53,0,0,1,3.65-20,24.31,24.31,0,0,0,7.38-6.14,19.53,19.53,0,0,0,2.69-5.06c.85-2.15.72-4.23,1-6.46s1.88-4.38,3.1-6.19c1.41-2.07,2.95-4,4.24-6.18a47.38,47.38,0,0,0,5.23-13.07c.38-1.49.46-3.07.74-4.58a15.68,15.68,0,0,1,2.36-5.57,52.53,52.53,0,0,1,7.52-8.6c5.54-5.47,11.84-10.15,17.73-15.24,6.11-5.29,11.87-10.89,17.71-16.48a161,161,0,0,1,17.63-14.35l.3,0a76.8,76.8,0,0,0,7.73-.27c1.38-.06,2.76,0,4.14,0,1.65.07,3.28.45,4.92.42,0,.18,0,.36,0,.54a4,4,0,0,0,3.14,3.49,7.81,7.81,0,0,0,3.72-.08,4.52,4.52,0,0,0,.94.14,5.86,5.86,0,0,1,3,1.1,10.57,10.57,0,0,0,5.71,1.66,19.54,19.54,0,0,0,5.76-1c1.68-.44,3.67-.71,5-1.9a6.67,6.67,0,0,0,.82-.77,5,5,0,0,0,.75-1.06,5.83,5.83,0,0,0,.83-1.63,24.76,24.76,0,0,0,2.93-1.21,6.56,6.56,0,0,0,2.4-1,1.07,1.07,0,0,1,.21-.13l.3-.18a18.9,18.9,0,0,0,1.8-1.15A3.1,3.1,0,0,0,455.64,99c-.33-2-2.56-3.43-2.46-5.48a2.29,2.29,0,0,0,.1-.23,7.29,7.29,0,0,0,.34-5c-.54-1.73-2.41-2.53-4-2.94-.84-.22-1.69-.39-2.54-.57h0c-1.71-1.75-3.69-3.14-5.33-5s-3.31-4.18-4.91-6.3c-.61-.82-1.23-1.63-1.86-2.44a14.76,14.76,0,0,0,5.31,1.19,12.37,12.37,0,0,0,5.92-2.05c4.65-2.68,9-6.4,14.27-7.83,2.51-.69,7-.52,8.22-3.53C469.6,56.51,467.75,54.11,466.34,52.49ZM45.87,174.61c-.43,7.71-1.78,15.68-5.93,22.47-2,3.32-4.93,5.73-7.86,8.3-.21.19-.41.37-.6.56q.87-2.25,1.89-4.47c3.16-6.88,6.76-13.55,9.63-20.56,1.15-2.81,2.06-5.68,3-8.56C45.94,173.1,45.91,173.86,45.87,174.61ZM359.59,36.72a4.09,4.09,0,0,1-1.93-3.34c-.07-2.05,2-2.51,3.48-1.55,1.78,1.15,2.67,3.8,2.67,5.89A7.58,7.58,0,0,1,359.59,36.72ZM418,28.56a36.77,36.77,0,0,0-4.09-3.26,18.69,18.69,0,0,1,3,1.25,4.53,4.53,0,0,1,2,2.88C418.66,29.13,418.34,28.84,418,28.56Z"/>
      <path class="cls-3" d="M295.37,230.78c-.88,14.91,4.31,30.22-3.15,44.44.17,3,.32,6,.61,8.92a22.31,22.31,0,0,0-1.37,3.45,1.67,1.67,0,0,0,.19,1.2c-1,2.2-.22,5.57.75,7.42.3.58.78,1.33,1.47,1.35a1.35,1.35,0,0,0,1.16-.27c.78-.77,1.42-2.08,2.43-2.55a.49.49,0,0,1,.16-.05c.15.24,0,0,.1.25a6.23,6.23,0,0,1,.17.86,7.64,7.64,0,0,0,.71,2.34.85.85,0,0,0,.1.14,25.62,25.62,0,0,0-.56,3.58,14.08,14.08,0,0,0,.21,3.25,6.36,6.36,0,0,0,0,1.07,5.28,5.28,0,0,0,.63,2.51,7.26,7.26,0,0,0,1.68,1.21c2.84,1.89,6.64,1.92,9.95,2,6.84.1,13.6-1.8,20-3.94a1.18,1.18,0,0,0,.58-.47,1.14,1.14,0,0,0,.83-.37c1.59-2.7-2.19-6.22-4-7.88a21.32,21.32,0,0,0-7.58-4.72,1.25,1.25,0,0,0-.1-.75.74.74,0,0,0-.09-.36c-.82-1.43-2-2.65-2.9-4a33,33,0,0,1-2.48-4.37,74.53,74.53,0,0,1-3.54-9.33c-2.19-6.66-4.08-13.75-4.2-20.81-.06-3.71,1.63-7,2-10.64a19.42,19.42,0,0,0-.39-5.27,31.28,31.28,0,0,1-.3-5.64,60.51,60.51,0,0,1,3.63-20A69.43,69.43,0,0,1,299.63,218C296.31,219.4,295.37,226,295.37,230.78Z"/>
      <g>
        <path class="cls-4" d="M261.7,262.08c-2.37-10-10.9-17.55-7.58-28,2.37-9,6.16-18,2.84-26.55-8.53-20.39-.95-40.3-5.69-60.21-1.42-4.27-9,2.37-11.85,6.16-7.11,9-12.33,19.91-22.76,23.23C192.48,184.79,168.3,172,147,158.24,124.68,144,90.55,147.81,78.69,171.52c-12.79,25.2-22.09,52-25.84,79.57a150.48,150.48,0,0,1,4.6-15.29,101.2,101.2,0,0,1,5.88-13.22c2.36-4.4,5.2-8.62,7-13.25a.7.7,0,0,0,.07-.22q1.83-3.15,3.85-6.19a98.66,98.66,0,0,1,10.32-12.37c.89-1,1.81-1.89,2.78-2.8-.55,2.11-1.08,4.23-1.83,6.29-1.39,3.8-3.79,7.21-5.57,10.85a17.61,17.61,0,0,0-1.26,12.69c1.3,3.95,4,7.26,5.88,11,7.1,14.13,8,30.26,13,45.05.66-14-2.76-27.53-4.22-41.39-1.9-16.6,1.9-37.93,19.91-42.68,9.23-2.3,17.45.11,24.27,5.15a21.16,21.16,0,0,0,3.17-.88c1.84-.63,3.25-1.78,4.94-2.64l.1-.07c.9.27,1.78.56,2.66.92a32.69,32.69,0,0,1,5.76,3.26c4.47,3,8.45,6.62,12.93,9.62,4.19,2.81,8.54,4.92,13.78,4.56s8.79-3.94,13-6.72c8.69-5.79,20.11-7,30.28-6.85a58.63,58.63,0,0,1,14,2c3.14.82,6.81,2.06,8.33,5.1a11.59,11.59,0,0,1,.79,2c.27,5.54.17,11-.09,16.61-.29,6.13-.77,12.52,0,18.63.37,2.92,2.09,5.18,3.79,7.49l.6.8a55.94,55.94,0,0,1,3,17.57c0,3.16-.08,6.31-.18,9.46,0,1.59-.14,3.24-.12,4.89-.05.87-.07,1.73-.13,2.51-.07,1.07,0,2.16-.06,3.23-.06,1.81-1.31,2.63-2.07,4.08a4.56,4.56,0,0,0-.53,3.23,8.3,8.3,0,0,0-.75,5c1.83-3.25,3.69-6.48,5.28-9.82C260.28,280.09,263.6,271.56,261.7,262.08Z"/>
        <path class="cls-4" d="M414.37,97.55c-.95-.94-2.84-.94-3.79-1.89a19,19,0,0,0-4.27-2.37C399.2,90.44,391.61,90,385,86.18c-5.69-2.85-6.64-10-10.91-14.7-2.84,8.53.95,17.07.47,25.6-.94,17.54-14.69,27.5-28.92,34.61-4.26,1.9-10.43-4.74-12.32.95-1.9,4.74.94,10,1.42,15.17,1.42,12.33-13.75,16.6-19.44,25.6-2.37,3.8-4.27,7.59-7.11,10.91-5.69,7.11-15.17,3.79-21.81,7.58-7.25,4.15-9,12-9,20.07.23-1.28.52-2.54.85-3.81a6.31,6.31,0,0,1,1.28.39c.82.35,1.64.72,2.45,1.11A23.92,23.92,0,0,1,283,213a35.75,35.75,0,0,1,.92,8.13c.15,6.1-1.14,12.22-.55,18.3.36,3.62,2.13,6.85,3.52,10.15a65.52,65.52,0,0,1,3.62,11.08,90.2,90.2,0,0,1,1.68,14.57c7.46-14.22,2.27-29.53,3.15-44.44,0-4.74.94-11.38,4.26-12.8a69.43,69.43,0,0,0,12.51-4.66.14.14,0,0,0,0-.06,24.31,24.31,0,0,0,7.38-6.14,19.53,19.53,0,0,0,2.69-5.06c.85-2.15.72-4.23,1-6.46s1.88-4.38,3.1-6.19c1.41-2.07,2.95-4,4.24-6.18a47.38,47.38,0,0,0,5.23-13.07c.38-1.49.46-3.07.74-4.58a15.68,15.68,0,0,1,2.36-5.57,52.53,52.53,0,0,1,7.52-8.6c5.54-5.47,11.84-10.15,17.73-15.24,6.11-5.29,11.87-10.89,17.71-16.48a161,161,0,0,1,17.63-14.35l.3,0a76.8,76.8,0,0,0,7.73-.27c1.38-.06,2.76,0,4.14,0,1.65.07,3.28.45,4.92.42,0,.18,0,.36,0,.54a3.82,3.82,0,0,0,1.88,3C419.65,104.74,419.09,100.7,414.37,97.55Z"/>
        <path class="cls-4" d="M58.3,78.12c8.54-7.59,20.39-9,28.93-17.07,8.14-8.56,13.49-19.56,22.36-27.3a20.84,20.84,0,0,0-4.94,1.3c-3.75,1.5-7,4.36-10,7.28q-10.75,7.55-22,14.4C67.23,60,61.59,63,56.17,66.35a17.67,17.67,0,0,0-4,3.07C48.86,73.07,47,78,45.86,82.56A84.39,84.39,0,0,0,44,97.47c-.21,3.13-.41,6.26-.53,9.39C45.93,95.94,49.53,85.64,58.3,78.12Z"/>
        <path class="cls-4" d="M36.5,280.09c5.68-19,1.89-37.93,2.37-56.42,0-13.75,12.8-23.71,16.59-37.45,4.74-18.5-3.32-35.56-7.59-52.63,0,10.9,1.43,21.33-4.74,31.29-14.78,22.74-28,48.81-23.57,74.34a41,41,0,0,0,3.58,8c.32.52,1.46,0,1.31-.53a65.48,65.48,0,0,1-2.15-9.94c-.17-1.89-.34-3.81-.45-5.73a33.57,33.57,0,0,0,1,5.2A28.15,28.15,0,0,0,24.5,241a35.6,35.6,0,0,1,2,4,.29.29,0,0,0,.23.18c.29.85.6,1.7.92,2.54s2,0,1.89-.85c-.73-3.87-1.81-7.67-2.29-11.59a59.38,59.38,0,0,1,.16-12.14,54.43,54.43,0,0,1,1-6.89,1.57,1.57,0,0,1,0,.23c.73,3.51,2,6.93,2.94,10.4.52,1.94,1,3.89,1.43,5.85a70.53,70.53,0,0,1,1.54,11.66,104,104,0,0,1-.51,14.11c-.69,7.39-1.57,14.78-2.35,22.16,0,.11-.07.22-.11.32-.89,2.65-2.92,4.46-4.41,6.75a1.52,1.52,0,0,0-.3.92C31.14,287.18,35.08,284.9,36.5,280.09Zm-4.42-74.71c-.21.19-.41.37-.6.56q.87-2.25,1.89-4.47c3.16-6.88,6.76-13.55,9.63-20.56,1.15-2.81,2.06-5.68,3-8.56,0,.75-.06,1.51-.1,2.26-.43,7.71-1.78,15.68-5.93,22.47C37.91,200.4,35,202.81,32.08,205.38Z"/>
      </g>
      <g>
        <path class="cls-5" d="M435.52,71.75C432,67.5,427.18,64,424.74,59c-4.24-8.81.15-19.74-5.32-28.06-6.18-9.42-19.73-11.09-29.84-8.72a22,22,0,0,0-9.27,4.85,11.58,11.58,0,0,0-2.74,2.76c-4.69,7.92,13,2.48,17.22,4.11,11.57,4.44,14,11.58,16,22.91,1,5.83,3.28,7,7.83,10.41,7,5.27,13.46,11.81,21.25,16-.18-.4-.33-.81-.48-1.22C438.17,78.53,438,74.76,435.52,71.75Z"/>
        <path class="cls-5" d="M340.32,51.72c-8-.1-16.29-.14-24.24-1.45-3.47-.58-7-.92-10.42-1.6-3.94-.78-7.68-2.73-11.51-4-3.6-1.19-7.12-2.56-10.65-3.95-3.78-1.49-8.39-1.7-12.4-2.09-7.19-.72-14.65-.08-21.81.75a198.92,198.92,0,0,0-21.66,3.89c-3.32.76-6.6,1.7-9.94,2.32-3.72.69-7.49,1-11.24,1.47-7.17.82-14.44,1-21.58,2.08S171,52.5,164.25,54.74a63.59,63.59,0,0,1-24.69,2.94A49.36,49.36,0,0,1,128,55.35c-3.75-1.22-7.37-2.76-11.24-3.58C107,49.68,99.46,56,92.71,62.17c-2.89,2.67-5.79,5.36-8.65,8.09-6.17,3.56-12.42,6.9-16.26,13.22-4.88,8-5.09,18-6.31,27.09-.84,6.18.78,12.26,2.41,18.16.71,2.59,6.8-.06,7.12-2.07,3-19,13.94-33.82,29.85-44.39,9.53-6.33,21.27-9.43,32.34-13,1.33-.43,2.65-.86,3.95-1.3l1.72.07a48.36,48.36,0,0,0-7.29,5.37A45.85,45.85,0,0,0,119,91.11c-2.13,5.68-4.33,17.47-1.37,23.21,4.47,8.67,17.75-11.87,24.42-10.83,7.18,1.11,13.33,5.23,20.86,5.17,7.25-.06,15.11-2.6,21.73-5.44,13.88-6,25.48-16.45,38.12-24.51,22.64-14.44,47.25-13.46,73-14,13-.27,27.78-1.7,38.35-10a2.89,2.89,0,0,0-.56-.67c3-.27,5.92-.59,8.9-.7C344.15,53.24,341,51.73,340.32,51.72Z"/>
        <path class="cls-5" d="M185.78,183.35c-5.29-.9-10.32-1.33-15.4-3.2-4.2-1.55-8.37-2.76-12.35-4.86-8.24-4.35-16.5-8.68-24.82-12.88-7.6-3.83-15.8-6.44-24.36-6.53-5.19,0-10.71,1.56-15.52,3.34A38.13,38.13,0,0,0,88,161.66c-1.59.9-2.85,2.55-4.34,3.62-.17.13,1.12,1.23,1.46,1.12a22.52,22.52,0,0,0,5.59-2.34,15.29,15.29,0,0,1,9.44-2.37,66.22,66.22,0,0,1,12.26,1.89,85.67,85.67,0,0,1,10.85,3.71c3.6,1.39,7.45,2.11,11.12,3.34,8.09,2.73,15.69,6.59,23.88,9.1a104.91,104.91,0,0,0,15.08,3.35c2.26.35,4.53.64,6.8.91a25.11,25.11,0,0,0,6.75.35C187.06,184.31,186.05,183.4,185.78,183.35Z"/>
      </g>
      <path class="cls-6" d="M92.76,181.63s7.27-9.32,25.76-4.9A213.72,213.72,0,0,1,150.44,187a16.84,16.84,0,0,1-7.46,5.37c-4.55,1.44-8.73.72-11.06,1.44s-3.46.83-3.85,3.34.07,5.61-1.25,5.2a5.17,5.17,0,0,1-2.23-1.33,30.85,30.85,0,0,1-.86-4s-.79,4.81-2.13,5.41a3.85,3.85,0,0,1-2.77,0l-.63-3.51V194.4l-1-2.65-2.2-.43-.69,4.69-.33,3.32a1.51,1.51,0,0,1-2.19,1.27c-2-.71-3-8.22-3-8.22l-1.12-1.12s-.78-.46-.78,0v4.59l-1.17,4.57L103.06,202l-1.89-1.9s-3.09-7.11-3.22-10-1.38-5.24-2.42-5.7S92.76,181.63,92.76,181.63Z"/>
      <path class="cls-7" d="M369.29,34a13,13,0,0,1-2.63,2.71,16.18,16.18,0,0,0,.4-9.43c-.9-3.22-4-5.35-7.2-6a7.91,7.91,0,0,0-4.18.34c-3.73.42-6.79,3-8.84,6.26a13.93,13.93,0,0,0-.4,14.87,16.49,16.49,0,0,0,4,4.51l-.36.19,0,0H350a28.44,28.44,0,0,0,12.26,1.67c4.74,0,9.95,0,13.27-3.79.28-.36.55-.73.8-1.12A14.64,14.64,0,0,0,369.29,34Zm-9.7,2.7a4.09,4.09,0,0,1-1.93-3.34c-.07-2.05,2-2.51,3.48-1.55,1.78,1.15,2.67,3.8,2.67,5.89A7.58,7.58,0,0,1,359.59,36.72Z"/>
      <path class="cls-8" d="M384.26,51.56s3.72-2.81,6.8-2.11,7.23,5,7.23,5a28.71,28.71,0,0,1-3.44,1.42c-1.7.55-5.09-.28-6.48-1.22S384.26,51.56,384.26,51.56Z"/>
      <path class="cls-6" d="M338.07,86.33a81.27,81.27,0,0,1,10.59-18.11c6.86-8.69,10-11.75,14.89-11.79s7.74-.2,8.65-1.11,1.83,2.43,2.22,7.26-.59,18-6.36,21.75-10.92,2.48-14.15,2a29.43,29.43,0,0,0-9.43.61c-2.49.5-5.11,2.16-5.85,1.42A2.67,2.67,0,0,1,338.07,86.33Z"/>
      <path class="cls-6" d="M466.34,52.49c-4.44-5.07-11.53-7.4-18-8.49s-13.77-.32-19.58,3.25c0-.24,0-.47,0-.7-6.47,9.49-.22,18.87,6.92,25.38l-.66-.86a14.76,14.76,0,0,0,5.31,1.19,12.37,12.37,0,0,0,5.92-2.05c4.65-2.68,9-6.4,14.27-7.83,2.51-.69,7-.52,8.22-3.53C469.6,56.51,467.75,54.11,466.34,52.49Z"/>
      <path class="cls-9" d="M455.64,99c-.33-2-2.56-3.43-2.46-5.48a2.29,2.29,0,0,0,.1-.23,7.29,7.29,0,0,0,.34-5c-.54-1.73-2.41-2.53-4-2.94-.84-.22-1.69-.39-2.54-.57h0c-.15-.16-.31-.32-.47-.47-12.53,1.89-31.72-.45-26.06,16.54,0,.95-.47,2.85-.94,2.85a12,12,0,0,0-2.92,3,4.09,4.09,0,0,0,3,2.87,7.81,7.81,0,0,0,3.72-.08,4.52,4.52,0,0,0,.94.14,5.86,5.86,0,0,1,3,1.1,10.57,10.57,0,0,0,5.71,1.66,19.54,19.54,0,0,0,5.76-1c1.68-.44,3.67-.71,5-1.9a6.67,6.67,0,0,0,.82-.77,5,5,0,0,0,.75-1.06,5.83,5.83,0,0,0,.83-1.63,24.76,24.76,0,0,0,2.93-1.21,6.56,6.56,0,0,0,2.4-1,1.07,1.07,0,0,1,.21-.13l.3-.18a18.9,18.9,0,0,0,1.8-1.15A3.1,3.1,0,0,0,455.64,99Z"/>
      <path class="cls-10" d="M63.48,309.84a18.69,18.69,0,0,0-2.91-5.53,57,57,0,0,0-3.42-4.63,2.39,2.39,0,0,0,0-1.25,2.49,2.49,0,0,1-.28.15c-7.77,3.5-17.46,3.18-25.14,7.13a4,4,0,0,0,.18,2.84,6,6,0,0,0,.57.92c1.3,2.68,5.37,4,8.31,4.56a81.77,81.77,0,0,0,9.88,1.08,53.3,53.3,0,0,0,5.51,0,12.77,12.77,0,0,0,5.22-.9,1.89,1.89,0,0,0,1-1.31v0a1.67,1.67,0,0,0,.8-.32C64.05,311.93,63.69,310.67,63.48,309.84Z"/>
      <path class="cls-10" d="M32.7,290.05a5.87,5.87,0,0,0-6-1.57,1,1,0,0,0,.48.94c-1.1,1.38-2.47,4.94-1.82,6.55a.57.57,0,0,0,.25.61c1.58.8,3-.18,4.37-1a12.85,12.85,0,0,1,1.4-.81h0a5.55,5.55,0,0,0,.42.49,1.42,1.42,0,0,0,.13.12,4.31,4.31,0,0,0-.11.85.78.78,0,0,0,0,.16C33.09,294.31,34.3,292.29,32.7,290.05Z"/>
      <path class="cls-10" d="M256.71,307.36a1.56,1.56,0,0,0,.82.34h.18c1.3,4.91,5,8.28,10.37,9.25a31,31,0,0,0,8.11.17c1.79-.16,3.59-.1,5.39-.17,2.05-.09,5.64-.36,7.18-2.16a3.76,3.76,0,0,0,3.61-1.15c1.46-1.56.85-3.14-.42-4.57a53.94,53.94,0,0,0-4.86-4.94c-1-.88-2.06-1.73-3.09-2.58-.65-.53-1.29-1.14-2-1.68a1.3,1.3,0,0,0-.06-1.36c-6.35,2.79-14.33,2.29-21.21,4.82A6.31,6.31,0,0,0,256.71,307.36Z"/>
      <path class="cls-10" d="M298.68,289.57a6.77,6.77,0,0,0-7-2.87,6,6,0,0,0-.26.89,1.67,1.67,0,0,0,.19,1.2c-1,2.2-.22,5.57.75,7.42.3.58.78,1.33,1.47,1.35a1.35,1.35,0,0,0,1.16-.27c.78-.77,1.42-2.08,2.43-2.55a.49.49,0,0,1,.16-.05c.15.24,0,0,.1.25a6.23,6.23,0,0,1,.17.86.5.5,0,0,1,0,.12C299.2,293.91,300.05,291.62,298.68,289.57Z"/>
      <path class="cls-10" d="M328.06,299.2a21.32,21.32,0,0,0-7.58-4.72,1,1,0,0,0,0-.29c-5.6,3.86-11.7,7.13-19,5.81a7,7,0,0,0-3.18.08,13.3,13.3,0,0,0-.21,1.78,14.08,14.08,0,0,0,.21,3.25,6.36,6.36,0,0,0,0,1.07,5.28,5.28,0,0,0,.63,2.51,7.26,7.26,0,0,0,1.68,1.21c2.84,1.89,6.64,1.92,9.95,2,6.84.1,13.6-1.8,20-3.94a1.18,1.18,0,0,0,.58-.47,1.14,1.14,0,0,0,.83-.37C333.63,304.38,329.85,300.86,328.06,299.2Z"/>
      <path class="cls-10" d="M105.72,290.05a5.44,5.44,0,0,0-6.17-3.32l-.37.14a1.11,1.11,0,0,0,0,.19.54.54,0,0,0-.19.21,8,8,0,0,0,0,6.4c.53,1.37,1.42,2.31,2.87,1.51.49-.1,1-.4,1-.79a2.48,2.48,0,0,1,.25-.67,1,1,0,0,1,.47-.24,2.41,2.41,0,0,1,2.08.57A7.34,7.34,0,0,0,105.72,290.05Z"/>
      <path class="cls-10" d="M107,303.73l0,.08a7.8,7.8,0,0,0,3.87,2.9c4.35,1.92,9,1.7,13.7,1.36a29.3,29.3,0,0,0,8.91-1.63l.46-.18a7.15,7.15,0,0,0,1.33-.51,6.39,6.39,0,0,0,2-1.16c1.09-.09,2.22-.73,3.28-.89.33,0,1-.4.91-.8-.83-5.21-6.07-7.76-10.54-9.87l0,0c-4.18,2.07-10.29,1.54-14.84,2.76C111.81,296.82,109.12,300.12,107,303.73Z"/>
      <path class="cls-7" d="M427.07,39.5c2-1.14,3.51-4,4-5.78a13.4,13.4,0,0,0-1.75-10.57,14.39,14.39,0,0,0-3.53-3.89c-2.68-2.8-6.88-4.17-10.7-4.43a17.12,17.12,0,0,0-13.54,5.08l-.74-.15C411.13,24.25,421.42,29.92,427.07,39.5Zm-9-10.94a36.77,36.77,0,0,0-4.09-3.26,18.69,18.69,0,0,1,3,1.25,4.53,4.53,0,0,1,2,2.88C418.66,29.13,418.34,28.84,418,28.56Z"/>
      <path class="cls-11" d="M370.76,41.49a11.2,11.2,0,0,0-4.28-.07c-2.7.32-4.92.14-7.16-1.71a11.4,11.4,0,0,1-4-8.45c-.05-2.07.35-6.58,2.93-6.33.51.05-.88-1.22-1.21-1.31-4.77-1.28-7.73,6.29-6.5,10.81,2.15,7.9,9.2,10.4,15.74,9.75,1.35-.14,2.64-.38,4-.61.65-.11,1.71,0,2.24-.53C373.22,42.38,371,41.56,370.76,41.49Z"/>
      <path class="cls-11" d="M427.05,29a45.08,45.08,0,0,0-2.42-7.71,16.45,16.45,0,0,0-3.3-2.88l-.06,0a22.83,22.83,0,0,0-3.76-1.14c0,.06-.06.1-.12.08a24.42,24.42,0,0,0-6.39-.19,2.15,2.15,0,0,0-.24.18,1.42,1.42,0,0,0-.2.5c3.31-.19,6.53.59,8.62,3.29a6.63,6.63,0,0,1,1.45,1.64,20,20,0,0,1,1.86,5c.5,1.9.63,2.36,2.57,3a8.15,8.15,0,0,0,1.28.33c.16-.16.31-.32.45-.49a12.1,12.1,0,0,0,.29-1.48S427.05,29.06,427.05,29Z"/>
      <g>
        <path class="cls-12" d="M362.09,81.45c0,.92,1.7.3,1.78-.42a29.45,29.45,0,0,1,3.28-10,23.79,23.79,0,0,1,3.06-4.52c.47-.54,1.09-1.66.8-2.38a.89.89,0,0,0-.13-.34,1.58,1.58,0,0,0-.25-.4,2.17,2.17,0,0,0-.38-.7,4.14,4.14,0,0,0-2-1,8.32,8.32,0,0,0-4,.14,19.91,19.91,0,0,0-8,4.28,35.25,35.25,0,0,0-10.47,13.33c-.13.32.61.31.75.13a45,45,0,0,1,10.67-9.59,27.9,27.9,0,0,1,5.05-2.71c-.17.2-.34.39-.5.59-2.82,3.42-4.1,7.47-6,11.37-.42.91,1.36.57,1.69.06,1.72-2.64,3.86-5,5.8-7.54.4-.51.83-1,1.27-1.46l-.18.43A24.62,24.62,0,0,0,362.09,81.45Z"/>
        <path class="cls-12" d="M436.11,94.26c-.92-.27-2.32,0-2.85-.86s-.81-2-1.46-2.81c-.09-.11-.47-.13-.53,0a5.22,5.22,0,0,0,1.4,5.71,15,15,0,0,0,2.47,1.32,7.23,7.23,0,0,1,2.49,2.24c1.14,1.3,3.21-.47,2.74-1.93A6,6,0,0,0,436.11,94.26Z"/>
        <path class="cls-12" d="M466.34,52.49c-4.44-5.07-11.53-7.4-18-8.49s-13.77-.32-19.58,3.25a16.49,16.49,0,0,0-1.9-7.61c2.13-1,3.75-4,4.3-5.92a13.4,13.4,0,0,0-1.75-10.57,14.39,14.39,0,0,0-3.53-3.89c-2.68-2.8-6.88-4.17-10.7-4.43a17.12,17.12,0,0,0-13.54,5.08,28.41,28.41,0,0,0-7.09-.59c-9.45.39-18.49,6.09-24.25,13.46a18.77,18.77,0,0,1-3.59,3.95,16.18,16.18,0,0,0,.4-9.43c-.9-3.22-4-5.35-7.2-6a7.91,7.91,0,0,0-4.18.34c-3.73.42-6.79,3-8.84,6.26a13.93,13.93,0,0,0-.4,14.87,16.49,16.49,0,0,0,4,4.51l-.36.19,0,0c-1.52,0-3,0-4.6,0q-4.4,0-8.78-.14A81.46,81.46,0,0,1,320,45.1c-11.24-2.81-22.4-5.82-33.7-8.42A107.25,107.25,0,0,0,269.79,34a99.89,99.89,0,0,0-16.76.35c-11.12,1.09-21.92,3.93-32.74,6.74a142.3,142.3,0,0,1-18.59,3.74c-5.54-1.56-11.31-2.61-16.95-3.68q-5.19-1-10.36-2c-3.21-.64-6.46-1.06-9.34-2.59-4.4-2.33-8.13-6.28-13.6-5.76-3.62.34-7,1.9-10.58,2.61-3,.6-6.26,0-9.3,0h0a51.64,51.64,0,0,0-17,0,1.05,1.05,0,0,0-.5.23,22.12,22.12,0,0,0-9.36,1.5c-3.75,1.5-7,4.36-10,7.28q-10.75,7.55-22,14.4C67.23,60,61.59,63,56.17,66.35a17.67,17.67,0,0,0-4,3.07C48.86,73.07,47,78,45.86,82.56A84.39,84.39,0,0,0,44,97.47c-.37,5.57-.74,11.13-.63,16.7.09,5,.51,10,.8,15-.73,8-1.3,16.09-3.52,23.87C38.16,161.87,34,170.35,30,178.66c-3.86,7.93-8.38,15.72-11.39,24s-4.89,18-3.13,26.59c.19,1,1.74,0,1.78-.67l0-.42,0,.42A38.27,38.27,0,0,0,19.16,238a44.66,44.66,0,0,0,4,9.18c.32.52,1.46,0,1.31-.53a65.48,65.48,0,0,1-2.15-9.94c-.17-1.89-.34-3.81-.45-5.73a33.57,33.57,0,0,0,1,5.2A28.15,28.15,0,0,0,24.5,241a35.6,35.6,0,0,1,2,4,.29.29,0,0,0,.23.18c.29.85.6,1.7.92,2.54s2,0,1.89-.85c-.73-3.87-1.81-7.67-2.29-11.59a59.38,59.38,0,0,1,.16-12.14,54.43,54.43,0,0,1,1-6.89,1.57,1.57,0,0,1,0,.23c.73,3.51,2,6.93,2.94,10.4.52,1.94,1,3.89,1.43,5.85a70.53,70.53,0,0,1,1.54,11.66,104,104,0,0,1-.51,14.11c-.69,7.39-1.57,14.78-2.35,22.16,0,.11-.07.22-.11.32-.89,2.65-2.92,4.46-4.41,6.75-.54.83-.32,1.35.18,1.71-1.1,1.38-2.47,4.94-1.82,6.55a.57.57,0,0,0,.25.61c1.58.8,3-.18,4.37-1a12.85,12.85,0,0,1,1.4-.81h0a5.55,5.55,0,0,0,.42.49,1.42,1.42,0,0,0,.13.12,4.31,4.31,0,0,0-.11.85c0,.79.79,1.43,1.26,2,1,1.23.34,3.44-.23,4.68-.79,1.74-1.86,3.74-.94,5.64a6,6,0,0,0,.57.92c1.3,2.68,5.37,4,8.31,4.56a81.77,81.77,0,0,0,9.88,1.08,53.3,53.3,0,0,0,5.51,0,12.77,12.77,0,0,0,5.22-.9,1.89,1.89,0,0,0,1-1.31v0a1.67,1.67,0,0,0,.8-.32c.86-.62.5-1.88.29-2.71a18.69,18.69,0,0,0-2.91-5.53,57,57,0,0,0-3.42-4.63,2.51,2.51,0,0,0,0-1.48c-.81-2.82-3.37-5-4.92-7.39-5-7.88-3.7-17.59-2.18-26.26a173,173,0,0,1,7.44-28.75,101.2,101.2,0,0,1,5.88-13.22c2.36-4.4,5.2-8.62,7-13.25a.7.7,0,0,0,.07-.22q1.83-3.15,3.85-6.19a98.66,98.66,0,0,1,10.32-12.37c.89-1,1.81-1.89,2.78-2.8-.55,2.11-1.08,4.23-1.83,6.29-1.39,3.8-3.79,7.21-5.57,10.85a17.61,17.61,0,0,0-1.26,12.69c1.3,3.95,4,7.26,5.88,11,7.88,15.67,8.06,33.8,14.81,49.83.2.62.41,1.24.59,1.87.71,2.44-.7,4.5-.85,6.81a.54.54,0,0,0-.19.21,8,8,0,0,0,0,6.4c.53,1.37,1.42,2.31,2.87,1.51.49-.1,1-.4,1-.79a2.48,2.48,0,0,1,.25-.67,1,1,0,0,1,.47-.24c2-.32,2.9,1.29,3.31,2.81.08.31.16.63.23.94,0,.9.07,1.81.12,2.71,0,.1,0,.2-.06.31s-.08.29-.12.44a3.55,3.55,0,0,0,0,3.12,7.8,7.8,0,0,0,3.87,2.9c4.35,1.92,9,1.7,13.7,1.36a29.3,29.3,0,0,0,8.91-1.63l.46-.18a7.15,7.15,0,0,0,1.33-.51,6.39,6.39,0,0,0,2-1.16c1.09-.09,2.22-.73,3.28-.89.33,0,1-.4.91-.8-.83-5.21-6.07-7.76-10.54-9.87a1.26,1.26,0,0,0,.38-1.14c-1-3.4-4.69-6-7.16-8.44a34.72,34.72,0,0,1-7.37-10.73,116.58,116.58,0,0,1-7.91-24.09c-1.67-8.08-2.16-17.49.94-25.35,2.64-6.67,7-12.69,8.52-19.71,2.26,1.31,4-.94,4.72-2.84a9.34,9.34,0,0,0,.31-1.1,9,9,0,0,0,1,2.69,1.85,1.85,0,0,0,2.25.73c1.2-.34,1.69-1.76,1.93-2.79.29-1.24.43-2.51.74-3.76.19-.77.46-1.74,1.37-2,1.18-.31,2.83.25,4,.33a14.76,14.76,0,0,0,6.05-1.06c1.84-.63,3.25-1.78,4.94-2.64l.1-.07c.9.27,1.78.56,2.66.92a32.69,32.69,0,0,1,5.76,3.26c4.47,3,8.45,6.62,12.93,9.62,4.19,2.81,8.54,4.92,13.78,4.56s8.79-3.94,13-6.72c8.69-5.79,20.11-7,30.28-6.85a58.63,58.63,0,0,1,14,2c3.14.82,6.81,2.06,8.33,5.1a11.59,11.59,0,0,1,.79,2c.27,5.54.17,11-.09,16.61-.29,6.13-.77,12.52,0,18.63.37,2.92,2.09,5.18,3.79,7.49l.6.8a55.94,55.94,0,0,1,3,17.57c0,3.16-.08,6.31-.18,9.46,0,1.59-.14,3.24-.12,4.89-.05.87-.07,1.73-.13,2.51-.07,1.07,0,2.16-.06,3.23-.06,1.81-1.31,2.63-2.07,4.08a4.56,4.56,0,0,0-.53,3.23,9,9,0,0,0-.6,5.95,3.15,3.15,0,0,0,1.4,2.05.84.84,0,0,0,.6.27c2,.1,3-2.16,3.95-3.49-.05.08,0,.06,0,0,.28.24.53.51.8.76a10.94,10.94,0,0,1-.77,2.07,8,8,0,0,0-.95,2.47c-.17,1.32-.2,3.95,1.6,4.14h.18c1.3,4.91,5,8.28,10.37,9.25a31,31,0,0,0,8.11.17c1.79-.16,3.59-.1,5.39-.17,2.05-.09,5.64-.36,7.18-2.16a3.76,3.76,0,0,0,3.61-1.15c1.46-1.56.85-3.14-.42-4.57a53.94,53.94,0,0,0-4.86-4.94c-1-.88-2.06-1.73-3.09-2.58-.65-.53-1.29-1.14-2-1.68a1.25,1.25,0,0,0-.15-1.46c-.43-3-3.19-3.53-4.79-5.83a11.33,11.33,0,0,1-1.69-4.95,56.94,56.94,0,0,0-1.47-5.71,75.84,75.84,0,0,1-2.36-12.76,25.82,25.82,0,0,1,0-7c.19-1,.42-2,.65-3,.72-1.38,1.55-2.7,2.37-4.11a18.68,18.68,0,0,0,2.21-10.12c-.13-4.52-.51-9-.48-13.55,0-4.34.05-8.7.29-13a49.57,49.57,0,0,1,1.6-10.16,6.31,6.31,0,0,1,1.28.39c.82.35,1.64.72,2.45,1.11A23.92,23.92,0,0,1,283,213a35.75,35.75,0,0,1,.92,8.13c.15,6.1-1.14,12.22-.55,18.3.36,3.62,2.13,6.85,3.52,10.15a65.52,65.52,0,0,1,3.62,11.08c1.73,7.7,1.53,15.66,2.29,23.49a22.31,22.31,0,0,0-1.37,3.45,1.67,1.67,0,0,0,.19,1.2c-1,2.2-.22,5.57.75,7.42.3.58.78,1.33,1.47,1.35a1.35,1.35,0,0,0,1.16-.27c.78-.77,1.42-2.08,2.43-2.55a.49.49,0,0,1,.16-.05c.15.24,0,0,.1.25a6.23,6.23,0,0,1,.17.86,7.64,7.64,0,0,0,.71,2.34.85.85,0,0,0,.1.14,25.62,25.62,0,0,0-.56,3.58,14.08,14.08,0,0,0,.21,3.25,6.36,6.36,0,0,0,0,1.07,5.28,5.28,0,0,0,.63,2.51,7.26,7.26,0,0,0,1.68,1.21c2.84,1.89,6.64,1.92,9.95,2,6.84.1,13.6-1.8,20-3.94a1.18,1.18,0,0,0,.58-.47,1.14,1.14,0,0,0,.83-.37c1.59-2.7-2.19-6.22-4-7.88a21.32,21.32,0,0,0-7.58-4.72,1.25,1.25,0,0,0-.1-.75.74.74,0,0,0-.09-.36c-.82-1.43-2-2.65-2.9-4a33,33,0,0,1-2.48-4.37,74.53,74.53,0,0,1-3.54-9.33c-2.19-6.66-4.08-13.75-4.2-20.81-.06-3.71,1.63-7,2-10.64a19.42,19.42,0,0,0-.39-5.27,31.28,31.28,0,0,1-.3-5.64,60.53,60.53,0,0,1,3.65-20,24.31,24.31,0,0,0,7.38-6.14,19.53,19.53,0,0,0,2.69-5.06c.85-2.15.72-4.23,1-6.46s1.88-4.38,3.1-6.19c1.41-2.07,2.95-4,4.24-6.18a47.38,47.38,0,0,0,5.23-13.07c.38-1.49.46-3.07.74-4.58a15.68,15.68,0,0,1,2.36-5.57,52.53,52.53,0,0,1,7.52-8.6c5.54-5.47,11.84-10.15,17.73-15.24,6.11-5.29,11.87-10.89,17.71-16.48a161,161,0,0,1,17.63-14.35l.3,0a76.8,76.8,0,0,0,7.73-.27c1.38-.06,2.76,0,4.14,0,1.65.07,3.28.45,4.92.42,0,.18,0,.36,0,.54a4,4,0,0,0,3.14,3.49,7.81,7.81,0,0,0,3.72-.08,4.52,4.52,0,0,0,.94.14,5.86,5.86,0,0,1,3,1.1,10.57,10.57,0,0,0,5.71,1.66,19.54,19.54,0,0,0,5.76-1c1.79-.47,3.94-.73,5.27-2.13a.47.47,0,0,0-.28-.84,11,11,0,0,0-2.33.32c-1,.16-2,.19-3,.29a41.54,41.54,0,0,1-5.79.42,9.07,9.07,0,0,1-4.21-1.43,20.76,20.76,0,0,1,5.64-.68c3,.07,5.79.31,8.79-.37a26,26,0,0,0,8.29-3.28c.55-.35.7-1.42-.21-1.19-1.36.35-2.71.69-4.08,1-2.14-.12-4.3.49-6.44.63s-4.53-.59-6.76-.91c-2.51-.35-5.08.76-7.47,1.48a12.83,12.83,0,0,1-3.91.7c-2.3-.06-1.2-2.87-.76-4.18.58-1.77,0-3.39-.52-5.08-.81-2.47-.27-3.9,1.24-6a9.14,9.14,0,0,1,1.46-1.1c.34-.21-.22-.33-.37-.3-2.32.45-3.74,1.94-4.89,3.93s-.58,4.25-.52,6.34a11.67,11.67,0,0,1-.94,3.5,21.48,21.48,0,0,0-6.27-1.36c-2.92-.32-5.84-.15-8.77-.22a32.5,32.5,0,0,1-13.16-3A21.81,21.81,0,0,1,379,89.25c-2.45-4.26-3.34-9-4.13-13.8a24.18,24.18,0,0,1-.19-3.63c0-.91,0-1.82,0-2.73,0,0,0-.1,0-.15a.46.46,0,0,0,0-.17,2.62,2.62,0,0,0,0-.28,16.55,16.55,0,0,0,.16-3c0-.5-.84-.13-1,.14a14.58,14.58,0,0,0-1.34,4.71c-1.91,6.76-4.67,15-12.68,16-2.42.32-4.58-.42-6.85-1.12a12.09,12.09,0,0,0-7-.32c-1.84.49-3.62,1.77-5.5,2.06-.89.13-.91-.81-.82-1.45.34-2.51,1.89-5,3.15-7.17A36.06,36.06,0,0,1,346.33,73c2.74-3.24,5.07-6.77,8-9.9,2.27-2.46,5.56-5.4,9.12-5.22,1.74.09,9.89,1.44,8.79-2.55-.18-.64-1.52-.17-1.57.39-.09,1.21-3,.54-3.86.44a16.44,16.44,0,0,0-3.83-.33c-3.64.41-6.93,3.07-9.43,5.57-2.92,2.91-5.17,6.4-7.67,9.65A64.34,64.34,0,0,0,342,76.5a44,44,0,0,0-3.69,7.23c-.49,1.29-1.33,3.82.3,4.63a4.86,4.86,0,0,0,2.9,0l.39-.08a18.18,18.18,0,0,0,2.69-.15,17.24,17.24,0,0,1,7.12.36c3.6,1.08,7.08,2.37,10.93,1.55,3.42-.74,6.29-3.29,8.42-5.94a15.67,15.67,0,0,0,2-3.39c0,.56.08,1.13.15,1.7a30.82,30.82,0,0,0,2.55,8.35,23.08,23.08,0,0,0,9.87,10.6,31.09,31.09,0,0,0,11.79,3.77,50.43,50.43,0,0,0-5.51,3.26q-3.13,2.22-6.09,4.7s0,0,0,0a7,7,0,0,0-2.5-2.34,27.24,27.24,0,0,1-3.46-3.06,57.64,57.64,0,0,1-4.91-5.58,60.85,60.85,0,0,1-6.93-13c-.11-.25-.89-.09-.82.2,1.48,5.69,3.38,11.39,6.88,16.16a56.15,56.15,0,0,0,4.66,5.67c1.2,1.23,3.27,3.51,5.23,3.62-3.64,3.22-7,6.72-10.61,10-8.4,7.73-17.54,14.61-25.88,22.38a79.88,79.88,0,0,0-10.43,11.48,20.78,20.78,0,0,0-3.23,6.34c-.73,2.47-.86,5.05-1.58,7.53a39.27,39.27,0,0,1-6.56,13.06,47.29,47.29,0,0,0-3.72,5.6,25.75,25.75,0,0,0-1.57,3.21c-.45,1.13-.48,2.35-.83,3.51-1.85,6.15-7.2,10.43-13.23,12.43-4.37,1.44-9.83,1.82-14-.41-1.53-.83-3.07-1.62-4.64-2.37a22.22,22.22,0,0,0-6.14-2.35,17.4,17.4,0,0,0-2.42-.25c.33-1,.69-2,1.05-3.07a.38.38,0,0,0,.19-.27c.17-1.34,2.34-.44,3.23-.14,1.29.42,2.49,1,3.72,1.56,1.58.69,3.86,2.35,5.67,2,.36,0,.92-.54.58-.9a13.89,13.89,0,0,0-3.26-2.16,32.15,32.15,0,0,0-5.18-2.33,8.46,8.46,0,0,0-4-.38l.84-2.32a12.25,12.25,0,0,1,4.55-3.39,68.06,68.06,0,0,1,7.13-2.44c5.15-1.76,9.42-5.63,13.42-9.14.53-.46-.14-.82-.61-.61-2.54,1.15-4.87,2.78-7.39,4a65.86,65.86,0,0,1-8.86,3.19,24.08,24.08,0,0,0-6.33,2.72,51.11,51.11,0,0,0,1.82-7.88,24,24,0,0,0-1.08-10.83c-.11-.35-1-.26-1,.1.72,3.51.26,7.37-.34,10.89a71.27,71.27,0,0,1-3.39,12c-1.24,3.47-2.61,6.89-3.75,10.39a50.46,50.46,0,0,0-2.37,12.33,187.22,187.22,0,0,0,0,25.51c.28,4,.08,7.76-2,11.39a28.36,28.36,0,0,0-2.38,4.49,13.25,13.25,0,0,0-.61,3.69,22.8,22.8,0,0,0-.18,5.15,70.65,70.65,0,0,0,2,12.92c.49,2.05,1.09,4.07,1.72,6.08.53,1.72.47,3.56,1.2,5.25.93,2.17,2.79,3.38,4.38,4.89a22.53,22.53,0,0,0-4.55,1.05c-3,.94-5.73,2.26-8.94,2.46a10.85,10.85,0,0,0-6,2.25l-.26.25a8.07,8.07,0,0,1,.8-2.29,9.86,9.86,0,0,0,1.14-3.21,1.62,1.62,0,0,0,.14-1.1,3.91,3.91,0,0,0-1.44-2,6.49,6.49,0,0,0-2-1.42c-.72-.37-2.34-.71-2.57-1.59s1-2,1.48-2.51a7.57,7.57,0,0,0,1.59-3.65,1.7,1.7,0,0,0,.35-.61c.77-3.51.65-7.29.77-10.86s.2-7.05.06-10.58a47.73,47.73,0,0,0-1.09-8.59c1.26.33,2.25-1.25,2.2-2.34-.12-2.56-2.68-5.29-4.17-7.27-1.77-2.36-3.46-4.33-3.73-7.33-.53-6-.1-12.14.14-18.16.13-3.19.22-6.38.16-9.57-.07-4-.64-7.91-1-11.87-.27-2.83-.75-5.64-1.07-8.46a11.11,11.11,0,0,0-2.54-6.6c-.54-.57-2,.26-1.72,1a22.45,22.45,0,0,1,.9,8.16c0,.26,0,.53,0,.81-.55-1.2-1.11-2.4-1.58-3.61-1.41-3.57-1.45-7.39-1.4-11.19a53.21,53.21,0,0,1,1.76-13.39c1.14-4.15,3.39-8.29,3.72-12.6.06-.76-1.36-.35-1.56.11-1.68,3.92-3.51,7.81-5,11.79A45.53,45.53,0,0,0,240,177.08c0,.34-.05.68-.08,1-1.95-5.31-3.38-10.74-3.1-16.63a51.22,51.22,0,0,1,4-18.31c2.13-4.94,4.93-9.55,6.78-14.62.28-.76-1.13-.57-1.39-.07-2.64,5.14-6,9.89-8.64,15.06a47.55,47.55,0,0,0-4.36,17.08c-.92,9.88,2.3,20,7.16,28.59,0,0,0,0,0,.06a36.77,36.77,0,0,0,2.08,6,51.24,51.24,0,0,0-8.17-2.16,66.2,66.2,0,0,0-16.7-.8,57.75,57.75,0,0,0-15.08,2.78A41.32,41.32,0,0,0,190.1,202a21.09,21.09,0,0,1-6.52,4,13.71,13.71,0,0,1-7.46.17c-5.05-1.16-9.65-4.92-13.67-7.9-3.72-2.75-7.51-5.9-11.93-7.54a23.3,23.3,0,0,0-9-1.46c-.23,0-.85.38-.36.52.94.28,1.89.52,2.83.77-.64.34-1.26.75-1.92,1a14.43,14.43,0,0,1-6.79,1c-2.69-.11-5.63-.7-7.14,2.07a11.54,11.54,0,0,0-1,3.19c-.12.59-.23,1.16-.31,1.75,0,.27-.21,2.06-.67,1.63-1.73-1.62-.68-4.73-1.81-6.67a5.25,5.25,0,0,1,.81-1.51c2.38-3.07,8.24-2.44,11.68-3.29.54-.13.6-.75,0-.67-5.69.62-13.21.34-14.47,7.22-.24,1.29-.44,2.58-.8,3.85-.28,1-1.25,3.32-2.32,1.37-.76-1.4-.45-3.76-.6-5.31-.23-2.36-.51-4.76-1.91-6.75-1.6-2.29-5.38-3.63-8.06-2.31a4.26,4.26,0,0,0-2.18,2.93c-.56,2.15-.41,4.57-.81,6.78a7.23,7.23,0,0,1-.65,2.71c-1,1.55-2-.62-2.2-1.05a9.45,9.45,0,0,1-.56-1.95c-.51-2.35-.81-4.64-1.54-6.94-.82-2.56-2.08-6-4.29-8.06l1-.38A43.15,43.15,0,0,1,113.23,179c10.81.38,21.21,4.32,31.14,8a108.8,108.8,0,0,0,15.12,4.78c5.2,1.12,10.54,2.28,15.83,3a65.39,65.39,0,0,0,16.83-.11,83.48,83.48,0,0,0,15.47-3.9c.68-.23,1.44-1.47.21-1.34-11.78,1.27-24,2.24-35.6-.17-5.25-1.09-10.55-2.1-15.72-3.49s-10-3.46-14.9-5.26c-9.86-3.59-20.1-6.72-30.8-6.63a44.94,44.94,0,0,0-15.59,3c-4.79,1.82-8.73,5.45-12.16,9A82.24,82.24,0,0,0,72.21,200.4c-3.1,5.16-5.36,10.69-7.9,16.1a133.48,133.48,0,0,0-8.14,16.93,175.24,175.24,0,0,0-7.35,26.3C47,268,45.19,277,47.32,285.39a23.32,23.32,0,0,0,5.26,9.78,22.48,22.48,0,0,1,2,2.51c.1.14.19.29.28.43-.33,1.12-.81,1.47-2.31,1.51a38.88,38.88,0,0,0-3.89.12c-2.83.37-5.41,1.86-8.25,2.24-1.88.26-3.75.19-5.46,1l.09-.15a6.46,6.46,0,0,0,.86-3,5.62,5.62,0,0,0-.57-2.94,6.43,6.43,0,0,0-.88-1.19c-.35-.37.05-1.07.2-1.49.7-2-.43-4.21-2-5.42a6.85,6.85,0,0,0-3-1l-.35,0,1.21-1.44a17.45,17.45,0,0,0,3.33-5.76.86.86,0,0,0,.11-.24c0-.14.07-.29.1-.43a35.1,35.1,0,0,0,1.55-6.9c2.53-12.29,3.9-25,2-37.38-.41-2.69-1-5.34-1.66-8-1.09-4.37-2.66-8.66-3.56-13.07a5.13,5.13,0,0,1,1.2-5,55,55,0,0,1,4.49-4,29.94,29.94,0,0,0,6.92-9.26c3.61-7.26,4.74-15.43,5.1-23.34.42-9.08-.38-18.13-.87-27.18-.3-5.61-.59-11.23-.9-16.84-.32-5.85-.88-11.7-.88-17.56,0-5.56.43-11.13.78-16.68a62.24,62.24,0,0,1,2.36-14.88,24.1,24.1,0,0,1,4.35-8.33h0a.32.32,0,0,0,.09-.08c.19-.18.4-.34.6-.5.46-.37.94-.7,1.42-1,3-2,6.17-3.81,9.27-5.68A249.09,249.09,0,0,0,88,49.64c-2.28,2.73-4.47,5.54-6.85,8.2-.37.41.73.42,1,.16,3.42-3.52,6.78-7.1,10.17-10.65s7.44-7.69,12.11-9.73c4.36-1.91,9.35-1.42,13.76-.36s8.69,3.45,13.3,4.25c.78.14,2.52-1,1.5-1.73-4-2.79-9-4.43-13.84-5.52L117.84,34c5.85,0,11.73,1.25,17.31,2.52,3.09.7,6.15,1.5,9.23,2.24s6.47,1.57,9.74,1.18c.33,0,1.25-.58.65-.9-2.91-1.5-6.61-1.95-9.81-2.7l-6-1.42h.28c3.18,0,6.21-1.06,9.29-1.73a11.47,11.47,0,0,1,4.87-.24,15.06,15.06,0,0,1,4,1.8c2.31,1.35,4.41,3,6.82,4.19s5.43,1.61,8.2,2.15q5.16,1,10.34,2c4.33.81,8.7,1.6,13.1,2.23-1.92.09-3.84.11-5.76,0-4.74-.17-9.47-.38-14.2-.57a128.3,128.3,0,0,1-14.81-1.14c-.43-.06-1.18.44-.48.61A137.74,137.74,0,0,0,194,48.1c11.16-.1,22.18-2.92,33-5.66s21.72-4.94,32.87-5.32a85.33,85.33,0,0,1,17.06,1.12c5.7,1,11.32,2.53,16.91,3.94,9.81,2.48,19.57,5.67,29.56,7.49a71.73,71.73,0,0,0,13.59,1v0a12.32,12.32,0,0,0-1.88,5.75c-.56,4.33.3,8.67-.25,13-.06.47.93.3,1-.08.69-3.51.47-7.13.75-10.67a19.86,19.86,0,0,1,1.2-5.85A5.74,5.74,0,0,1,339,51a3.26,3.26,0,0,1,.36-.29c1.08,0,2.16,0,3.25-.09a13.06,13.06,0,0,0-1.27,4.82c-.46,4.43.24,8.61.62,13,0,.42,1.09.17,1.09-.22,0-3.43-.16-6.86,0-10.29a18.73,18.73,0,0,1,1-6,2.41,2.41,0,0,1,1.32-1.47c.89-.06,1.79-.15,2.68-.25a11.77,11.77,0,0,0-.5,1.89,32,32,0,0,0-.36,6.91c.06,1.6.48,3.39.11,5-.1.44.82.28.94-.05,1.05-2.86.71-6.3,1-9.27a10.81,10.81,0,0,1,1.14-4.42,1.08,1.08,0,0,1,.48-.47l.71-.14a2.39,2.39,0,0,1,.62.08,15.43,15.43,0,0,0-.51,2.4,15.88,15.88,0,0,0,.33,7.13c.2.57,1.19,0,1.27-.4.52-2.56.28-5.2.91-7.75a9.24,9.24,0,0,1,.35-1.18,22.9,22.9,0,0,0,6,1.84,18.4,18.4,0,0,0,8.27-.58,11.11,11.11,0,0,0,4.31-2.63c1.2-1.12,3.06-2.43,3.79-3.91.12-.25-.06-.41-.31-.44a3.26,3.26,0,0,0-2,.55,20.08,20.08,0,0,1-4.55,1.44,27.23,27.23,0,0,1-6.94.93,18.33,18.33,0,0,1-12.32-5.45,10.72,10.72,0,0,1-3.22-9.82,13,13,0,0,1,4-7.19c-2.27,3.08-1.62,7-.58,10.37,0,.09.29.08.27,0-.71-3.6-.83-8.21,2.19-11,2.14-2,5.34-1.6,7.74-.6,5.9,2.47,5.44,8.83,3.83,14.09a5.86,5.86,0,0,1-1,.2c.19-3-1-7.22-4.63-7.18-2.23,0-3.28,2.23-3,4.16.41,3.31,4,4.54,6.94,4.62,3.76.12,6-3.13,8.15-5.74,6.32-7.84,16.43-12.91,26.45-12,9.45.82,17.66,6.86,23.34,14a23.88,23.88,0,0,1,5,9.58,4.71,4.71,0,0,0-1.18.72c-.8.67-2.24,2.33-1.93,3.43.08.27.6.1.7-.09a8.71,8.71,0,0,1,1.7-2.35c.18-.16.36-.33.55-.48a3.15,3.15,0,0,1,.29-.22l.05,0c.08.54.14,1.08.17,1.63a1.15,1.15,0,0,0-.32.34,4.29,4.29,0,0,0-.72.57,7,7,0,0,0-1.72,2.55,6.78,6.78,0,0,0-.25.69,3.13,3.13,0,0,0-.2.3,3.36,3.36,0,0,0-.32,1.76,6.43,6.43,0,0,0,.34,1.78,3.34,3.34,0,0,0,.36.93.48.48,0,0,0,0,.17,2.84,2.84,0,0,0,.6,1.24,1.27,1.27,0,0,0,.24.33c.12.15.22.29.31.42h0a1.65,1.65,0,0,0,.47.73,16.26,16.26,0,0,0,2,2.94c.77,1.27,1.54,2.56,2.43,3.77q2.79,3.78,5.56,7.57c1.6,2.19,3.12,4.45,4.85,6.54a23,23,0,0,0,3.43,3.57c-.66-.28-1.32-.57-2-.82-.08,0-.58,0-.42.21,1.62,1.75,3.29,2.3,5.57,2.93,2.13.6,4.9,1.17,5.39,3.7.38,1.93-.92,3.86-1.49,5.63a8.5,8.5,0,0,0,.34,4.71c.07.19.52.16.56,0,.25-1.31.11-2.66.37-4a5.7,5.7,0,0,1,.4-1.16,7.07,7.07,0,0,0,.76,2.14,19.35,19.35,0,0,1,.95,1.94c.47,1.19-.4,1.83-1,2.73-.26.39.08.73.48.64a3,3,0,0,0,2-3.51c-.33-2-2.56-3.43-2.46-5.48a2.29,2.29,0,0,0,.1-.23,7.29,7.29,0,0,0,.34-5c-.54-1.73-2.41-2.53-4-2.94-.84-.22-1.69-.39-2.54-.57h0c-1.71-1.75-3.69-3.14-5.33-5s-3.31-4.18-4.91-6.3c-.61-.82-1.23-1.63-1.86-2.44a14.76,14.76,0,0,0,5.31,1.19,12.37,12.37,0,0,0,5.92-2.05c4.65-2.68,9-6.4,14.27-7.83,2.51-.69,7-.52,8.22-3.53C469.6,56.51,467.75,54.11,466.34,52.49ZM295.52,292.21a6.52,6.52,0,0,0-1.69,2.58,15.39,15.39,0,0,1-.4-1.5,12.24,12.24,0,0,1-.43-4.17,5.23,5.23,0,0,1,4.13,2.06A6.16,6.16,0,0,0,295.52,292.21Zm2,2.39h0Zm27.78,4.76a22.38,22.38,0,0,1,3.47,3.41,9.89,9.89,0,0,1,2.12,3.28c-.82-1.43-2.79-2.8-3.76-3.68-1.79-1.62-3.8-3.56-6.12-4.41-.35-.13-1.65.4-1.12.83,1.69,1.38,3.52,2.62,5.3,3.9,1,.74,3.61,2.5,4.15,4.09-2.29.17-4.57,0-6.88,0-3,0-5.94.1-8.93.3a59.84,59.84,0,0,1-9.08-.17,5.12,5.12,0,0,1-3.22-1.14c-.07-1.43-.31-2.84-.42-4.26a13.73,13.73,0,0,1,1.58,0c2.07.06,4,.52,6.1.15,1.87-.34,3.74-1.68,5.46-2.44a22.94,22.94,0,0,0,5.84-3.6C321.67,296.84,323.58,298,325.33,299.36Zm-34.73-84.9c5.66,3.14,13.35,2.22,19.21-.12a27.87,27.87,0,0,0-2.18,7.16A68.71,68.71,0,0,0,306,232.83a43.83,43.83,0,0,0,.06,5.73,45.52,45.52,0,0,1,.54,5.95,33.49,33.49,0,0,1-1.37,5.63,25.14,25.14,0,0,0-.64,5c-.12,3.6.81,7.46,1.5,11A90.67,90.67,0,0,0,309,276.79a79.52,79.52,0,0,0,3.81,9.85c1.11,2.31,2.59,5.38,4.7,7.16-1.59.67-3.06,1.92-4.56,2.63-1,.49-2.05.9-3,1.47a7.22,7.22,0,0,1-4.21.87,13.18,13.18,0,0,0-4.87.29c.13-1.23.3-2.42.34-3.61a5.7,5.7,0,0,0-.09-1.89,7.81,7.81,0,0,0-.29-1.32c-.9-3-3.45-5.72-6.62-5.88l0-.13a2.12,2.12,0,0,0,1.49-1.58c.42-8.42.56-17-1.18-25.29A60.82,60.82,0,0,0,291,248.51c-1.55-3.73-3.55-7.15-4-11.23-.35-3.63.16-7.32.22-11,0-2.53,0-5.07-.21-7.59a28.87,28.87,0,0,0-1.2-6.9Q288.24,213.15,290.6,214.46ZM280.23,301.1c1,1,2.17,1.84,3.21,2.72,1.53,1.31,3.05,2.6,4.44,4.05a13.48,13.48,0,0,1,2.69,3.56c.18.39-.66.73-1.1.88-.28-2.1-2.49-4.07-3.85-5.45a36.8,36.8,0,0,0-3.76-3.28,14.4,14.4,0,0,0-3.59-2.41A9.33,9.33,0,0,1,280.23,301.1ZM259,305.57a6.52,6.52,0,0,1,2.55-1c1.88-.48,3.75-.17,5.65-.42a27.83,27.83,0,0,0,5.52-1.5,31.24,31.24,0,0,1,4.91-1.36,8.75,8.75,0,0,0,1.37,2.24,28.61,28.61,0,0,0,2.66,3.58c1.7,1.84,3.82,3.45,5,5.7.54,1-.2,1.07-1.27,1.34a20.72,20.72,0,0,1-4.38.42c-3.72.11-7.52.65-11.23.31a12.8,12.8,0,0,1-11.11-8.15A1.63,1.63,0,0,1,259,305.57Zm-4.42-9.48a16.17,16.17,0,0,0-1.86,3.42,13.44,13.44,0,0,1-.23-2.33,6.75,6.75,0,0,1,.24-2A8,8,0,0,0,254.62,296.09Zm-151.41-7a4.28,4.28,0,0,0-2.64,3.46l-.12-.37a8.27,8.27,0,0,1-.38-4.27,3.73,3.73,0,0,1,3.47,1.1Zm29.88,15.28-1.17.34-.33,0c-2.58.27-5.13.55-7.73.61a30.38,30.38,0,0,1-9.28-.74,14.31,14.31,0,0,1-3.47-1.45c-1.11-.67-1.53-1.23-1.34-2.27a7,7,0,0,1,3.5-2.7,23.9,23.9,0,0,1,6.72-1.61c2.22-.21,5.2-.14,7.48-1.07a18,18,0,0,1,3.84,3.12,27,27,0,0,1,3.36,3.4C135.8,303.46,134.4,303.94,133.09,304.35Zm-3.18-10.76a1.08,1.08,0,0,0,.48-.13c1.69,1.13,3.36,2.31,5,3.53a10.77,10.77,0,0,1,4.2,5.56,13.19,13.19,0,0,0-1.54.34c-.12-1.38-1.57-2.76-2.85-3.78l-.61-.54a15.1,15.1,0,0,0-2.34-1.69,28.18,28.18,0,0,0-3.35-2.17A4.52,4.52,0,0,0,129.91,293.59ZM112.6,188.4a5,5,0,0,1,2.94,2.45,5.9,5.9,0,0,0-1.82,3.68l-.54,2.67c-.21,1-1,3.16-1.8,1.28-1.06-2.37,0-8.21-3-9.3C109.06,187.79,111,187.92,112.6,188.4Zm-20.31-1.25a18.9,18.9,0,0,0,.31-2.26,8.9,8.9,0,0,1,.8.51,16.81,16.81,0,0,1,2.43,2.1c1.19,1.25,1.36,3.77,1.69,5.35.44,2.08,1.55,8.27,4.41,9.38a3,3,0,0,0,3.39-.19c1.75-1,2.15-3,2.33-4.79s.31-3.69.4-5.54a7.37,7.37,0,0,1,.51,1.48c.27,1.22.3,2.49.46,3.73s.45,3,1.7,3.86c1.55,1,3.2-1,3.7-2.15.8-1.89.41-4.75,1.71-6.46a10.55,10.55,0,0,1,.46,1.82,42.77,42.77,0,0,1,.4,6.09,7.87,7.87,0,0,0,.32,2.13c-2,7.92-6.8,14.68-9.65,22.27-1.42,3.81-1.59,7.79-1.75,11.77A57.12,57.12,0,0,0,107,248.9a120,120,0,0,0,8,24.92,40.08,40.08,0,0,0,6.74,10.48c2.15,2.5,5.13,4.75,6.9,7.59a13.75,13.75,0,0,0-1.54.77,10.18,10.18,0,0,1-3.77,1.1,30.57,30.57,0,0,0-7,1.17,17.65,17.65,0,0,0-6,3.11,6,6,0,0,0-.73.7,24.59,24.59,0,0,0-.26-3.7c-.25-1.78-.43-3.43-1.56-4.9a20.21,20.21,0,0,0-2.93-3.2,4.28,4.28,0,0,0-3.81-.62c.27-.94.71-1.87.92-2.8a8.21,8.21,0,0,0,.09-2.84,9.72,9.72,0,0,0-.78-2.66c-2.16-8.64-4-17.35-5.91-26-1.8-8.31-3.88-16.78-7.45-24.55-1.63-3.56-4-6.72-5.55-10.32a7.35,7.35,0,0,1,.28-6.72c.52-1,1.31-1.91,1.86-2.93s1.15-2.09,1.71-3.14a55,55,0,0,0,4.78-10.49A65.41,65.41,0,0,0,92.29,187.15ZM55.11,300.92a2.36,2.36,0,0,0,.34-.24h.25c1.31,1.78,2.73,3.48,3.93,5.34-.17-.21-.36-.42-.53-.62a21.43,21.43,0,0,0-4.51-4.23A3.54,3.54,0,0,0,55.11,300.92Zm-14.6,2.71c3-.36,5.77-2,8.83-2,.8,0,1.61.06,2.42.05A30.8,30.8,0,0,0,56,306.45a16.39,16.39,0,0,1,3.5,4.6c-2.34,0-4.82.59-7.09.67a57.23,57.23,0,0,1-9.16-.39,20.08,20.08,0,0,1-6.41-1.61c-1.89-.92-2.36-2.25-3.19-3.93C35.08,303.69,37.82,304,40.51,303.63ZM29.66,290.29a4.17,4.17,0,0,1,1.68,1,6.78,6.78,0,0,0-1.27.59,27.56,27.56,0,0,0-3,2.47l0-.06a5.56,5.56,0,0,1,.23-1.46A16.64,16.64,0,0,1,28.48,290C28.91,290.09,29.35,290.19,29.66,290.29ZM45.87,174.61c-.43,7.71-1.78,15.68-5.93,22.47-2,3.32-4.93,5.73-7.86,8.3-.21.19-.41.37-.6.56q.87-2.25,1.89-4.47c3.16-6.88,6.76-13.55,9.63-20.56,1.15-2.81,2.06-5.68,3-8.56C45.94,173.1,45.91,173.86,45.87,174.61ZM44,171.41c-1.37,3.68-2.84,7.32-4.44,10.91-3.11,7-6.83,13.63-9.87,20.59a65.52,65.52,0,0,0-5.23,21.41,63.4,63.4,0,0,0-.12,10.31c-.44-2.43-.67-4.86-.9-7.34a57.77,57.77,0,0,1-.14-9c.24-3.84,1.1-7.6,1.53-11.43.07-.6-1.14-.24-1.28.15,0,.11-.07.23-.11.34a.58.58,0,0,0-.35.19c-1.6,3.2-2,6.92-2.73,10.35a44.57,44.57,0,0,0-1,9.83,46.9,46.9,0,0,0,.6,6.53,35.78,35.78,0,0,1-.79-3.92,54.86,54.86,0,0,1-.35-10.64c.1-1.62.33-3.24.46-4.86a15.64,15.64,0,0,1,.67-4.13c.1-.28-.59-.26-.7,0l-.22.48a70,70,0,0,1,2.69-8.82c3.17-8.43,7.9-16.38,11.77-24.55s7.5-16.36,9.72-25a64.49,64.49,0,0,0,1.67-9.86c.08,1.7.17,3.4.26,5.1.32,5.72.72,11.44.83,17.17A53.37,53.37,0,0,1,44,171.41ZM359.59,36.72a4.09,4.09,0,0,1-1.93-3.34c-.07-2.05,2-2.51,3.48-1.55,1.78,1.15,2.67,3.8,2.67,5.89A7.58,7.58,0,0,1,359.59,36.72ZM418,28.56a36.77,36.77,0,0,0-4.09-3.26,18.69,18.69,0,0,1,3,1.25,4.53,4.53,0,0,1,2,2.88C418.66,29.13,418.34,28.84,418,28.56Zm7.79,5.71a5.27,5.27,0,0,1-1.6,1.12c-.75-1-1.54-2-2.35-2.93A1,1,0,0,0,422,32a9.08,9.08,0,0,0-2.46-6.19c-1.66-1.69-5.65-3.59-7.94-2A33.52,33.52,0,0,0,402.13,20a17.22,17.22,0,0,1,14.12-4.4c.46.06.92.14,1.37.24-3.53-.25-6.92,1.12-10.23,2.75-.31.15.1.29.28.21a17.12,17.12,0,0,1,11.19-1.09,15.35,15.35,0,0,1,5.08,2.54c.69.91,1.4,1.78,2,2.74,0,0,0,0,0,.08A10.49,10.49,0,0,1,427.62,30,7.78,7.78,0,0,1,425.82,34.27Zm2.24,26.56h0c-.08-.42-.17-.83-.27-1.24v0l.07.06a2.49,2.49,0,0,0,.31.93A2.53,2.53,0,0,0,428.06,60.83Zm39-2.12c-.3,1.13-2.33,1.25-3.21,1.4a29,29,0,0,0-6,1.37c-3.76,1.48-7.38,4-10.75,6.19a16.19,16.19,0,0,1-6.41,2.86,17.92,17.92,0,0,1-6.4-.56.59.59,0,0,0-.23,0c-.84-1.08-1.69-2.16-2.52-3.25s-1.54-2.11-2.29-3.18h0l.16,0a1.94,1.94,0,0,0,1.76-.86c2.49-.11,4.95.32,7.45.29a38.4,38.4,0,0,0,5.23-.59c.43-.07.83-.67.19-.72-2.36-.21-4.61-1.33-6.87-1.95a29.11,29.11,0,0,0-4.68-.91l.68-.19a29.75,29.75,0,0,1,4.38-.68,97.69,97.69,0,0,1,12.34.12c.54,0,1.41-.73.52-.83-3.24-.38-6.21-1.82-9.47-2.27a30.42,30.42,0,0,0-5.4-.16,20.92,20.92,0,0,0-2.92.29l.3-.26A16.84,16.84,0,0,1,439.28,52a31.85,31.85,0,0,1,8.15-.6,23.59,23.59,0,0,1,8.93,1.91c.39.18,1.84-.36,1.27-.82a23.52,23.52,0,0,0-18.87-4.64A18.59,18.59,0,0,0,431.2,51c-1.52,1.12-3.65,3.53-4.05,5.79a9,9,0,0,1-.16-2.2,22.77,22.77,0,0,1,.9-3.45h0A.8.8,0,0,0,428,51a10.88,10.88,0,0,0,.65-2.69A25.33,25.33,0,0,1,448.73,45c5.71,1.31,11.46,4,15.52,8.24C465.46,54.48,467.57,56.73,467.06,58.71Z"/>
        <path class="cls-12" d="M383.54,49.05c.92-.62,1.66-1.42,2.63-2a8.3,8.3,0,0,1,4.15-.8A14.1,14.1,0,0,1,398.17,49c.29.19,1.17-.16.77-.48a15.41,15.41,0,0,0-9-3.68,7.65,7.65,0,0,0-7.43,3.79C382.08,49.41,383.14,49.31,383.54,49.05Z"/>
        <path class="cls-12" d="M380.36,50.92a9.31,9.31,0,0,0,3.85,1.19h.23c2,1.15,3.14,3.08,5.13,4.29A5.42,5.42,0,0,0,393,57c1.65-.14,4-2.3,5.52-1.7a.51.51,0,0,0,.28,0,3.68,3.68,0,0,0,2.35-.26c.14-.06.16-.21,0-.27a14.6,14.6,0,0,1-4-2.12c-1.28-1.11-2.26-2.53-3.83-3.31a6.68,6.68,0,0,0-4.32-.55,14.89,14.89,0,0,0-3,1.28,9.71,9.71,0,0,1-5,.32C380.66,50.35,380,50.73,380.36,50.92ZM396.22,54c.22.16.44.31.67.45-.34.09-.68.2-1,.32A2.71,2.71,0,0,0,396.22,54ZM391,52.19l.07,0a2.08,2.08,0,0,1,.58-.08h.06a2.64,2.64,0,0,1,1.13.79.67.67,0,0,0,1,0,2.41,2.41,0,0,0,.43-.42l.63.49a1.5,1.5,0,0,0-.26.15,3.69,3.69,0,0,1-1.18.53,5.77,5.77,0,0,1-2.34-.53C390.82,52.78,390.69,52.38,391,52.19Zm-4.53-.46a4.52,4.52,0,0,0,.13.75,7.72,7.72,0,0,0-1.14-.5C385.75,51.91,386.09,51.83,386.42,51.73Z"/>
        <path class="cls-12" d="M422.39,49.25c.32-2.26.14-4.38,1.18-6.53.14-.29-.44-.27-.55-.07a9.67,9.67,0,0,0-1.22,6.67C421.85,49.53,422.36,49.46,422.39,49.25Z"/>
      </g>
      <path class="cls-8" d="M426.77,50.62c0-.15-.09-.2-.16-.18l-.12.11c0,.15-.08.19-.16.14l-.16.15c-.06.07-.11.15-.16.22a3.83,3.83,0,0,0-.33,1.72l.21.1a4.43,4.43,0,0,0,.61-.83,2.48,2.48,0,0,0,.3-.88A1.28,1.28,0,0,0,426.77,50.62Z"/>
      <path class="cls-13" d="M444.42,87.05a70.28,70.28,0,0,1-7.11.11A21.46,21.46,0,0,0,430,88.88c2-.06,8.23,1.76,10.42,2.33,3.71,1,7.89.32,6.54-4.63C446.92,86.58,445.24,87,444.42,87.05Z"/>
    </g>
  </g>
</svg>
