<svg id="Layer_1" data-name="Layer 1" xmlns="http://www.w3.org/2000/svg" width="249.2" height="313.92" viewBox="0 0 249.2 313.92">
  <defs>
    <style>
      .cls-1 {
        fill: #ff0;
      }

      .cls-2 {
        fill: #ad6e3e;
      }

      .cls-3 {
        fill: #772f07;
      }

      .cls-4 {
        fill: #894416;
      }

      .cls-5 {
        fill: #964816;
      }

      .cls-6 {
        fill: #8c3600;
      }

      .cls-7 {
        fill: #964508;
      }

      .cls-8 {
        fill: #281005;
      }

      .cls-9 {
        fill: #de8600;
      }

      .cls-10 {
        fill: #e4ae31;
      }

      .cls-11 {
        fill: #dedede;
      }

      .cls-12 {
        fill: #703711;
      }
    </style>
  </defs>
  <g>
    <path class="cls-1" d="M218.32,71.88c-.66-.4-1.33-.82-2-1.27a12.7,12.7,0,0,0,9.61-17.14,12.69,12.69,0,0,0-2-25.21h-.29c-1.11-8.75-6.74-16.4-7.64-17.57a5.64,5.64,0,0,0-.66-.72,10,10,0,0,0-5.9-3.18,10.18,10.18,0,0,0-1.57-.12c-9,0-20.29,12.84-24.73,18.36a5.74,5.74,0,0,0-.36.5l-2.47,3.8h-.49a12.69,12.69,0,0,0-22.66,9.9,13.17,13.17,0,0,0-2.94,1.2,12.7,12.7,0,0,0-5,17.06c-.27,0-.53,0-.8,0A12.69,12.69,0,0,0,136.6,74.8a12.7,12.7,0,0,0-11.24,15.91,12.76,12.76,0,0,0-4.88,1.56,12.69,12.69,0,0,0,3.74,23.51L91.7,165.94c-31.35,7.84-61.8,29.19-76.36,53.71C5.52,236.17,4,252.12,10.93,264.53c.24.44.55.94.91,1.48a33.24,33.24,0,0,0,2.58,3.53c3.35,4.2,31.37,37.71,72.43,37.71a77.73,77.73,0,0,0,38.36-10.47c50.26-28.2,40.47-84.51,36-101.83a33,33,0,0,0-4.59-13.49,5.56,5.56,0,0,0-.55-.87,33,33,0,0,0-6.58-7.36l26.42-48.81c5.13,6.73,13.77,10.66,23.76,10.66h0a44.36,44.36,0,0,0,21.58-5.87,43.07,43.07,0,0,0,18.55-19.73c3.77-8.57,3.62-17.26-.42-24.45S227.7,73,218.32,71.88Z"/>
    <g>
      <path class="cls-2" d="M157.1,45.66a6.69,6.69,0,1,0,9.1,2.56A6.69,6.69,0,0,0,157.1,45.66Z"/>
      <path class="cls-2" d="M166.3,31.06a6.69,6.69,0,1,0,9.11,2.56A6.68,6.68,0,0,0,166.3,31.06Z"/>
      <circle class="cls-2" cx="148.4" cy="70.15" r="6.69" transform="translate(-7.83 120.52) rotate(-43.17)"/>
      <path class="cls-2" d="M134.35,81.62a6.69,6.69,0,1,0,9.11,2.56A6.69,6.69,0,0,0,134.35,81.62Z"/>
      <path class="cls-2" d="M123.41,97.5a6.69,6.69,0,1,0,9.11,2.56A6.7,6.7,0,0,0,123.41,97.5Z"/>
      <ellipse class="cls-3" cx="206.78" cy="103.34" rx="31.43" ry="23.66" transform="translate(-24.12 114.4) rotate(-29.3)"/>
      <path class="cls-4" d="M151.48,68.49h0a1.42,1.42,0,0,0-1.14.81,4.44,4.44,0,0,0,0,4,1.43,1.43,0,0,0,1.11.83h.05l12.86.18.2-5.65-13-.18Z"/>
      <path class="cls-5" d="M212.61,76.62c-11.72-.14-26.07,7.91-32.05,18s-1.33,18.36,10.38,18.5S217,105.2,223,95.13,224.33,76.77,212.61,76.62Z"/>
      <path class="cls-2" d="M175,70.22c7.4,13.19,3.15,32.69,4.92,35.85s5.64,5.16,11.18,5.23c11.07.13,24.63-7.47,30.28-17,2.83-4.76,3.14-9.1,1.37-12.26s-17.16-7.21-26.46-23.78S167.58,57,175,70.22Z"/>
      <path class="cls-4" d="M129.76,101.67h0a1.43,1.43,0,0,0-1.13.81,4.41,4.41,0,0,0-.05,4,1.4,1.4,0,0,0,1.11.83h.05l12.86.18.2-5.64-13-.19Z"/>
      <path class="cls-4" d="M140.71,85.78h0a1.41,1.41,0,0,0-1.13.81,4.42,4.42,0,0,0-.05,4,1.42,1.42,0,0,0,1.11.84h0l12.86.18.2-5.64-13-.19Z"/>
      <path class="cls-4" d="M172.65,35.22h0a1.37,1.37,0,0,0-1.13.81,4.36,4.36,0,0,0-.05,4,1.42,1.42,0,0,0,1.11.84h.05l12.86.18.19-5.64-13-.19Z"/>
      <path class="cls-4" d="M163.45,49.83h0a1.44,1.44,0,0,0-1.14.81,4.44,4.44,0,0,0,0,4,1.44,1.44,0,0,0,1.11.84h.05l12.86.18.2-5.64-13-.19Z"/>
      <path class="cls-6" d="M192.32,36.94,100,179.35l39.12.48,77.2-142.6c5.14-9.48-5.14-22.88-5.14-22.88Z"/>
      <path class="cls-7" d="M187.75,28.8,95.44,171.21l39.12.48,77.2-142.6s3.6-15.29-3.3-16.37S187.75,28.8,187.75,28.8Z"/>
      <path class="cls-3" d="M16.16,261.6c5.64,10,51.69,60.49,106.12,29.95s33.89-97.43,29-107.34C146,173.43,10.53,251.57,16.16,261.6Z"/>
      <ellipse class="cls-2" cx="84.09" cy="223.49" rx="77.89" ry="44.97" transform="translate(-98.61 69.73) rotate(-29.3)"/>
      <ellipse class="cls-7" cx="82.72" cy="223.53" rx="63.1" ry="36.5" transform="translate(-98.8 69.07) rotate(-29.3)"/>
      <polygon class="cls-8" points="107.62 167.38 127.19 167.62 203.91 38.42 184.34 38.18 107.62 167.38"/>
      <polygon class="cls-9" points="57.68 242.82 59.43 245.94 89.06 246.3 94.5 237.14 92.76 234.02 64.87 236.77 57.68 242.82"/>
      <polygon class="cls-10" points="57.68 242.82 87.32 243.19 92.76 234.02 63.12 233.66 57.68 242.82"/>
      <g>
        <path class="cls-11" d="M81.85,239.89h.57c39.33-65.49,78.2-130.82,118.73-199.73h-.58C160,109.07,121.18,174.4,81.85,239.89Z"/>
        <path class="cls-11" d="M79.14,239.87h.58C118.11,174.34,156.89,109,198.45,40.14h-.58C156.31,109,117.51,174.36,79.14,239.87Z"/>
        <path class="cls-11" d="M74.57,239.81h.58C113.53,174.31,152.34,109,193.88,40.09l-.58,0C151.76,109,113,174.31,74.57,239.81Z"/>
        <path class="cls-11" d="M69.83,239.75h.58C109.83,174.27,148.7,108.94,189.13,40h-.58Z"/>
        <path class="cls-11" d="M66.14,239.71h.57C105.78,174.22,144.63,108.89,185.44,40h-.58C144.05,108.88,105.2,174.22,66.14,239.71Z"/>
      </g>
      <path class="cls-12" d="M200.13,55.55h0a1.44,1.44,0,0,0-1.13.81,4.44,4.44,0,0,0-.05,4,1.43,1.43,0,0,0,1.11.84h.05l12.86.18.2-5.64-13-.19Z"/>
      <path class="cls-2" d="M210.82,52.28a6.69,6.69,0,1,0,9.11,2.56A6.7,6.7,0,0,0,210.82,52.28Z"/>
      <path class="cls-12" d="M209.91,38.38h0a1.44,1.44,0,0,0-1.14.81,4.44,4.44,0,0,0-.05,4,1.44,1.44,0,0,0,1.11.84h.06l12.85.18.2-5.64-13-.19Z"/>
      <path class="cls-2" d="M220.61,35.11a6.69,6.69,0,1,0,9.1,2.56A6.69,6.69,0,0,0,220.61,35.11Z"/>
    </g>
  </g>
</svg>
