<svg id="Layer_1" data-name="Layer 1" xmlns="http://www.w3.org/2000/svg" xmlns:xlink="http://www.w3.org/1999/xlink" width="310.64" height="266.57" viewBox="0 0 310.64 266.57">
  <defs>
    <style>
      .cls-1, .cls-11, .cls-12, .cls-13, .cls-15, .cls-16, .cls-18, .cls-9 {
        fill: none;
      }

      .cls-2 {
        fill: #ff0;
      }

      .cls-3 {
        fill: #261f2d;
      }

      .cls-4 {
        fill: #eecb84;
      }

      .cls-5 {
        fill: #f69d5a;
      }

      .cls-6 {
        fill: #dc8638;
      }

      .cls-7 {
        fill: #62262a;
      }

      .cls-8 {
        fill: #35161a;
      }

      .cls-12, .cls-15, .cls-9 {
        stroke: #873f36;
      }

      .cls-11, .cls-12, .cls-13, .cls-15, .cls-16, .cls-18, .cls-9 {
        stroke-miterlimit: 10;
      }

      .cls-11, .cls-9 {
        stroke-width: 3.75px;
      }

      .cls-10 {
        fill: #ae6d42;
      }

      .cls-11, .cls-13, .cls-16, .cls-18 {
        stroke: #62262a;
      }

      .cls-12 {
        stroke-width: 4.45px;
      }

      .cls-13 {
        stroke-width: 3.91px;
      }

      .cls-14 {
        fill: #f5ba22;
      }

      .cls-15 {
        stroke-width: 6.21px;
      }

      .cls-16 {
        stroke-width: 5.61px;
      }

      .cls-17 {
        fill: #cc7328;
      }

      .cls-18 {
        stroke-width: 5.63px;
      }

      .cls-19 {
        fill: #e85d3f;
      }

      .cls-20 {
        fill: #bf3927;
      }

      .cls-21 {
        clip-path: url(#clip-path);
      }

      .cls-22 {
        fill: #e5e5e4;
      }

      .cls-23 {
        fill: #f7991c;
      }

      .cls-24 {
        fill: #ee8322;
      }

      .cls-25 {
        fill: #de6e26;
      }

      .cls-26 {
        fill: #4e7a6c;
      }

      .cls-27 {
        fill: #8d4d21;
      }

      .cls-28 {
        opacity: 0.15;
      }
    </style>
    <clipPath id="clip-path">
      <rect class="cls-1" x="825.17" y="15.53" width="350.93" height="350.93" rx="26.14"/>
    </clipPath>
  </defs>
  <g>
    <path class="cls-2" d="M300.58,247.16V221.48a6,6,0,0,0-2.31-4.7l-16.76-15.29v-9.61a6,6,0,0,0-3-5.26l-1.82-1.06L264.48,172.5V161.92a6,6,0,0,0-1.35-3.79l-1.93-2.38-.51-.71a5.22,5.22,0,0,0-.85-1l-20.92-25.69a6,6,0,0,0-4.65-2.21l-21.4.08c1.46-12.84-.05-25.29-4.11-31.88-3.56-5.79-.54-13.72-.52-13.77a6,6,0,0,0-5.57-8.25,5.58,5.58,0,0,0-1.34.16,13.09,13.09,0,0,0-7.91,6.09,15.66,15.66,0,0,0-1.28,2.71A95.33,95.33,0,0,0,182,68.25c-8.05-9.14-10.38-12.43-5.87-20.81,5.31-9.87,6.44-18.78,3.34-26.49C175.08,10,163.76,6.24,163.28,6.08a6.2,6.2,0,0,0-1.84-.29A6,6,0,0,0,159,17.27c1.54.7,4.77,2.89,4.93,5.16.16,2.46-3,7.22-12.51,13.19-13.95,8.79-20.37,20.29-23.1,30.79a32.3,32.3,0,0,0-4.5-4.59,6,6,0,0,0-9.06,7.5c.23.91.94,4.87.74,18-.12,7.62-2.46,14.17-4.94,21.11-2,5.64-4.09,11.43-4.89,17.82l-28.54-.11a6,6,0,0,0-4.66,2.21L48.25,158.13a6,6,0,0,0-1.35,3.79v10.5l-14,14a6,6,0,0,0-3.28,6.7,5.35,5.35,0,0,0,.28.91V202l-17,15a6,6,0,0,0-2,4.5V241.8a5.74,5.74,0,0,0-.25,1.7v2.36l-3.47,4.36A6,6,0,0,0,11.77,260l287.08.81a6,6,0,0,0,4.76-9.64Z"/>
    <g>
      <polygon class="cls-3" points="17.65 246.59 11.79 253.96 298.85 254.77 292.59 246.59 17.65 246.59"/>
      <g>
        <polygon class="cls-4" points="258.48 161.92 234.27 132.18 155.69 132.48 77.12 132.18 52.9 161.92 258.48 161.92"/>
        <polygon class="cls-5" points="274.29 191.76 246.46 162.02 156.15 162.32 65.84 162.02 35.88 191.87 274.29 191.76"/>
        <polygon class="cls-5" points="294.58 221.54 261.99 191.8 156.22 192.1 50.45 191.8 16.8 221.48 294.58 221.54"/>
        <polygon class="cls-6" points="246.63 158.5 229.13 136.6 155.69 136.82 82.25 136.6 63.82 158.5 246.63 158.5"/>
        <polygon class="cls-5" points="81.96 158.5 228.96 158.5 228.96 136.6 155.69 136.82 82.25 136.6 81.96 136.95 81.96 158.5"/>
        <g>
          <g>
            <path class="cls-7" d="M166.35,158.4a26.53,26.53,0,0,1,16.23-.48c9.28,2.52,11,.12,11,.12s-.87,1.73,11.52,1.17,30.89-10.44,38.59-1.11c0,0,7.56,10.82-8.23,11.05,0,0-21-.85-31,2.44s-23.25.33-27.5-.26a15.38,15.38,0,0,0-7.63.95Z"/>
            <path class="cls-6" d="M243.85,158.86c-7.7-9.33-26.21.55-38.6,1.11s-13.2,1.23-22.47-1.29a26.49,26.49,0,0,0-16.23.47l2.74,13.12h0l-2.9-13.88a26.53,26.53,0,0,1,16.23-.48c9.28,2.52,11,.12,11,.12s-.87,1.73,11.52,1.17,30.89-10.44,38.59-1.11a11.77,11.77,0,0,1,1.65,3.81A12.19,12.19,0,0,0,243.85,158.86Z"/>
            <path class="cls-8" d="M175.89,167.54c4.26.58,17.45,3.56,27.5.26s31-2.44,31-2.44c8.08-.12,10-3,10-5.8,1.41,3,3.1,9.41-9.06,9.59,0,0-21-.85-31,2.44s-23.25.33-27.5-.26a15.38,15.38,0,0,0-7.63.95l-.8-3.86A15.42,15.42,0,0,1,175.89,167.54Z"/>
            <path class="cls-9" d="M173.35,159s4.52-1.28,12.87,1.24,14.37.44,18.21.21,15.07-3.7,20.83-2.49,11.81,3,14.66,2,1.32-2.9-2-3.35-6.2-.34-6.51.58,3.46,1.45,5.51,1.08"/>
            <path class="cls-9" d="M172,167.16a47.27,47.27,0,0,0,13.61,3.78c7.49.84,17.42-2.82,24.48-3.28s24.53.62,28.87-1.22,5.47-2.82,5.47-2.82"/>
            <path class="cls-9" d="M191.08,166.88a5.17,5.17,0,0,1-3.53-.08c-1.79-.75,2-2.09,4.22-1.59s5,1.45,1.85,2.49-5,1.21-7.9.11-1.37-4.49,5.25-3.78,8.41,2.4,13,2.23,18.09-1.08,22.81-3.66,10.47-.44,13.38-1.29,3.42-1.54,3.42-1.54"/>
            <path class="cls-9" d="M169.43,161.51s2.52,4.22,9.47,2.15,19.14-.71,23.22-.19,12.52-.19,18.41-1.71A55,55,0,0,1,231,160.08"/>
            <path class="cls-10" d="M174.35,163a7.15,7.15,0,1,1-9-4.57A7.15,7.15,0,0,1,174.35,163Z"/>
            <path class="cls-11" d="M172.77,163.51a5.49,5.49,0,1,1-6.92-3.51A5.5,5.5,0,0,1,172.77,163.51Z"/>
            <path class="cls-11" d="M171.46,163.93a4.11,4.11,0,1,1-5.19-2.62A4.11,4.11,0,0,1,171.46,163.93Z"/>
            <path class="cls-11" d="M169.32,164.63a1.86,1.86,0,1,1-2.35-1.18A1.86,1.86,0,0,1,169.32,164.63Z"/>
          </g>
          <path class="cls-7" d="M71.79,152.94A31.52,31.52,0,0,1,91,154.57c10.6,4.24,12.92,1.62,12.92,1.62s-1.27,1.93,13.42,2.94S155.22,151,163,163c0,0,7.47,13.78-11.2,11.92,0,0-24.65-3.84-37-1.31s-27.47-2.76-32.41-4a18.31,18.31,0,0,0-9.13.09Z"/>
          <path class="cls-6" d="M163.16,164c-7.81-12.05-31-2.89-45.68-3.91s-15.74-.32-26.34-4.55a31.48,31.48,0,0,0-19.22-1.64l1.47,15.85h0l-1.55-16.78A31.52,31.52,0,0,1,91,154.57c10.6,4.24,12.92,1.62,12.92,1.62s-1.27,1.93,13.42,2.94S155.22,151,163,163a14.15,14.15,0,0,1,1.44,4.72A14.32,14.32,0,0,0,163.16,164Z"/>
          <path class="cls-8" d="M81.82,165c4.94,1.27,20.1,6.55,32.41,4s37,1.31,37,1.31c9.55,1,12.26-2.18,12.63-5.48,1.28,3.69,2.39,11.52-12,10.09,0,0-24.65-3.84-37-1.31s-27.47-2.76-32.41-4a18.31,18.31,0,0,0-9.13.09l-.43-4.67A18.5,18.5,0,0,1,81.82,165Z"/>
          <path class="cls-12" d="M80,154.59s5.51-.9,15,3.2,16.89,2.47,21.46,2.71,18.28-2.33,24.9-.13,13.53,5.18,17,4.34,2-3.25-1.94-4.24-7.26-1.23-7.75-.18,3.89,2.17,6.35,2"/>
          <path class="cls-12" d="M77.28,164a56.14,56.14,0,0,0,15.55,6.31c8.72,2,20.93-1,29.32-.57s28.85,4,34.23,2.46,6.83-2.59,6.83-2.59"/>
          <path class="cls-12" d="M99.83,166.3a6.17,6.17,0,0,1-4.16-.58c-2-1.12,2.64-2.2,5.2-1.3s5.71,2.39,1.84,3.18-6,.76-9.33-.93-1-5.49,6.7-3.75,9.6,4,15,4.39,21.49,1.16,27.4-1.24,12.42.89,16,.28,4.24-1.35,4.24-1.35"/>
          <path class="cls-12" d="M75,157s2.4,5.33,10.88,3.82,22.68,1.75,27.43,2.91,14.79,1.47,21.94.48a64.21,64.21,0,0,1,12.59-.57"/>
          <path class="cls-10" d="M79.71,159.9c.94,4.6-1.16,8.91-4.7,9.64s-7.16-2.41-8.11-7,1.16-8.91,4.7-9.64S78.76,155.31,79.71,159.9Z"/>
          <path class="cls-13" d="M78.22,160.21c.72,3.52-.89,6.83-3.6,7.39s-5.5-1.85-6.23-5.37.89-6.83,3.6-7.39S77.49,156.69,78.22,160.21Z"/>
          <path class="cls-13" d="M77,160.46c.54,2.64-.67,5.13-2.7,5.54s-4.13-1.38-4.67-4,.67-5.13,2.7-5.54S76.45,157.82,77,160.46Z"/>
          <path class="cls-13" d="M75,160.88a1.76,1.76,0,1,1-2.11-1.82A2,2,0,0,1,75,160.88Z"/>
          <path class="cls-14" d="M156.24,155.33c-1.09-.72-35.4,10.06-42.87-11.69s7.79-35.08,8.12-56.18-1.62-21.11-1.62-21.11,10.06,7.47,14,26.3c0,0-9.09-33.12,20.78-52s6.82-28.9,6.82-28.9,23.06,7.47,9.42,32.8,24.36,26.3,24,69.5c0,0,7.14-5.2,3.25-19.49s4.54-16.24,4.54-16.24-4.28,10.62,1,19.16C213.76,114,205.27,187.48,156.24,155.33Z"/>
          <path class="cls-6" d="M122.51,106.45s-2.88,3.81-.12,9.57.69,9.92.69,9.92,6.12-4.5,3.23-10.15S122.16,110.26,122.51,106.45Z"/>
          <path class="cls-6" d="M162,56.43s5.92,3.37,5.54,12.5,4.67,13.4,4.67,13.4-10.55-2.46-10-11.5S164.6,61.23,162,56.43Z"/>
          <path class="cls-6" d="M154.53,152s-22.89-1.46-24.6-25.57,18-33.62,19.73-52.37c0,0,23.14,13.15,18.75,41.65,0,0,11-4.63,7.8-20.95,0,0,11.93,11.94,1.46,27.28S153.8,136.65,154.53,152Z"/>
          <path class="cls-7" d="M157.21,157.92a39.87,39.87,0,0,0,17,4.88c10.23.65,17.21,1.78,17.21,1.78"/>
          <path class="cls-7" d="M100.87,133.41s12.5-1.14,25.81,7.63,17.22,5.84,17.22,5.84-7.31-7.3-6-14.45l7.14-.65s-3.41,17.38,16.4,22.9,54.07-.49,61.38,18.18c0,0,6.33,20.95-18.67,13.16,0,0-32.64-12.18-50.18-12.18s-36.78-11.5-43.19-14.62a25.46,25.46,0,0,0-12.5-2.43Z"/>
          <g>
            <path class="cls-6" d="M161.43,157.48c19.81,5.52,54.07-.49,61.38,18.18a19.83,19.83,0,0,1,.66,3.78,19.66,19.66,0,0,0-.66-6.58c-7.31-18.67-41.57-12.66-61.38-18.18-13.5-3.77-16.22-13-16.57-18.56C144.56,140.49,145.21,153,161.43,157.48Z"/>
            <path class="cls-6" d="M100.87,136.21s12.5-1.14,25.81,7.63,16.33,5,15.23,3.51c-2.32.07-7-.87-15.23-6.31-13.31-8.77-25.81-7.63-25.81-7.63l-2.6,23.38.31,0Z"/>
          </g>
          <g>
            <path class="cls-8" d="M222.92,173.29c-.65,5.23-4.47,10.68-19.27,6.07,0,0-32.64-12.18-50.17-12.18s-36.79-11.49-43.19-14.61A25.76,25.76,0,0,0,99,150.08l-.75,6.71a25.46,25.46,0,0,1,12.5,2.43c6.41,3.12,25.66,14.62,43.19,14.62S204.14,186,204.14,186C227,193.14,223.66,176.25,222.92,173.29Z"/>
            <path class="cls-8" d="M144.88,133c.07-.74.15-1.17.15-1.17l-.38,0C144.72,132.19,144.79,132.56,144.88,133Z"/>
          </g>
          <path class="cls-15" d="M111.58,138s7.8.33,19.65,8.61,22.41,8.12,28.58,9.74,25.65,1.95,34.1,6.82S211,174,216,173.84s3.57-3.9-1.46-6.34S205,163.77,204,165.07s4.71,4.06,8.12,4.55"/>
          <path class="cls-15" d="M105.25,150.13a78.48,78.48,0,0,0,19.49,13c11.36,5.2,28.9,4.55,40.26,7.47s38.32,13.64,46.12,13S221.18,182,221.18,182"/>
          <path class="cls-15" d="M135.45,159.55a8.57,8.57,0,0,1-5.52-2c-2.43-2.11,4.22-2.27,7.47-.32s7.15,4.87,1.63,4.87-8.45-.65-12.51-3.9.16-7.79,10.23-3.25,12,8.12,19.32,10.23,29.07,7.63,37.84,6,16.72,4.71,21.75,4.87,6.17-.65,6.17-.65"/>
          <path class="cls-15" d="M104.12,139.9s1.78,8,13.8,8.28,30.52,8.77,36.69,11.69,19.81,6.17,29.88,6.82a90,90,0,0,1,17.37,2.76"/>
          <path class="cls-10" d="M111.1,144.77c0,6.55-4.33,11.86-9.66,11.86s-9.66-5.31-9.66-11.86,4.32-11.85,9.66-11.85S111.1,138.23,111.1,144.77Z"/>
          <path class="cls-16" d="M108.85,144.77c0,5-3.32,9.1-7.41,9.1S94,149.79,94,144.77s3.31-9.09,7.41-9.09S108.85,139.75,108.85,144.77Z"/>
          <ellipse class="cls-16" cx="101.44" cy="144.77" rx="5.56" ry="6.82"/>
          <path class="cls-16" d="M104,144.77a2.57,2.57,0,1,1-2.51-3.08A2.85,2.85,0,0,1,104,144.77Z"/>
          <path class="cls-7" d="M207.21,145.49s-12.41-1.92-26.25,6-17.54,4.75-17.54,4.75,2.13,2.41-18,6.68S91.5,159,83,177.22c0,0-7.63,20.51,17.82,14.3,0,0,33.33-10.11,50.83-9s37.44-9.17,44-11.88A25.46,25.46,0,0,1,208.34,169Z"/>
          <path class="cls-17" d="M83,178.52c8.47-18.18,42.28-10,62.4-14.3s21.7-3.52,35.53-11.44,26.25-6,26.25-6L208.27,169h.07l-1.13-23.5s-12.41-1.92-26.25,6-17.54,4.75-17.54,4.75,2.13,2.41-18,6.68S91.5,159,83,177.22A19.74,19.74,0,0,0,82,184,20.23,20.23,0,0,1,83,178.52Z"/>
          <path class="cls-8" d="M195.7,164.14c-6.58,2.71-26.52,13-44,11.87s-50.83,9-50.83,9c-13,3.18-17.38-.63-18.53-5.11-1,5.34-1.06,16.39,18.53,11.61,0,0,33.33-10.11,50.83-9s37.44-9.17,44-11.88A25.46,25.46,0,0,1,208.34,169l-.32-6.54A25.58,25.58,0,0,0,195.7,164.14Z"/>
          <path class="cls-15" d="M196.23,149.35s-7.8-.16-20.15,7.36-22.87,6.7-29.13,7.93-25.73.34-34.46,4.67-17.7,9.79-22.71,9.31-3.32-4.11,1.85-6.23,9.8-3.13,10.69-1.77-4.95,3.76-8.39,4"/>
          <path class="cls-15" d="M201.78,161.9a78.45,78.45,0,0,1-20.26,11.75c-11.67,4.47-29.13,2.72-40.65,4.93s-39.1,11.2-46.84,10.07-10-2.25-10-2.25"/>
          <path class="cls-15" d="M171.05,169.41a8.51,8.51,0,0,0,5.63-1.6c2.57-1.95-4.07-2.53-7.43-.79s-7.44,4.41-1.93,4.76,8.47-.12,12.73-3.11.32-7.79-10-3.88-12.5,7.35-19.92,9-29.49,5.79-38.14,3.62-17,3.65-22,3.5-6.12-1-6.12-1"/>
          <path class="cls-15" d="M203.56,151.77s-2.28,7.83-14.29,7.4-31,6.83-37.36,9.36-20.16,4.92-30.24,4.93a90.2,90.2,0,0,0-17.52,1.67"/>
          <path class="cls-10" d="M198.42,156.62c-.41,6.53,3.6,12.1,9,12.44s10-4.69,10.45-11.22-3.61-12.1-9-12.44S198.83,150.09,198.42,156.62Z"/>
          <path class="cls-18" d="M200.68,156.76c-.31,5,2.77,9.29,6.88,9.54s7.7-3.59,8-8.6-2.77-9.29-6.88-9.55S201,151.75,200.68,156.76Z"/>
          <path class="cls-18" d="M202.54,156.88c-.23,3.76,2.08,7,5.16,7.16s5.78-2.7,6-6.46-2.07-7-5.15-7.16S202.78,153.12,202.54,156.88Z"/>
          <path class="cls-18" d="M205.6,157.07a2.58,2.58,0,1,0,2.72-2.92A2.86,2.86,0,0,0,205.6,157.07Z"/>
        </g>
        <rect class="cls-19" x="35.88" y="191.87" width="239.63" height="29.61"/>
        <rect class="cls-19" x="52.9" y="161.92" width="205.58" height="29.95"/>
        <rect class="cls-19" x="16.81" y="221.48" width="277.78" height="29.61"/>
        <path class="cls-20" d="M258.48,165.74c-40.67,26.53-179.38,20-205.58,18.54v7.59H258.48Z"/>
        <path class="cls-20" d="M275.42,195.35c-47.25,26.53-209.12,20-239.54,18.54v7.59H275.42Z"/>
        <path class="cls-20" d="M294.58,225c-55,26.53-242.59,20-278,18.54v7.59h278Z"/>
        <polygon class="cls-4" points="258.48 162.29 52.9 162.29 56.44 158.5 255.79 158.5 258.48 162.29"/>
      </g>
      <g>
        <path class="cls-5" d="M22,242.1a1.09,1.09,0,0,1-.87-1.75L31.2,227a1.12,1.12,0,0,1,.86-.44,1.1,1.1,0,0,1,.87.41l10.73,13.36A1.09,1.09,0,0,1,42,241.7L32.1,229.44l-9.22,12.23A1.09,1.09,0,0,1,22,242.1Z"/>
        <path class="cls-5" d="M35.45,238.5a3,3,0,1,1-3-3A3,3,0,0,1,35.45,238.5Z"/>
      </g>
      <g>
        <path class="cls-5" d="M42.5,242.1a1.06,1.06,0,0,1-.65-.22,1.1,1.1,0,0,1-.22-1.53L51.7,227a1.08,1.08,0,0,1,1.72,0l10.73,13.36a1.08,1.08,0,0,1-.16,1.53,1.1,1.1,0,0,1-1.54-.16L52.6,229.44l-9.22,12.23A1.11,1.11,0,0,1,42.5,242.1Z"/>
        <path class="cls-5" d="M56,238.5a3,3,0,1,1-3.05-3A3,3,0,0,1,56,238.5Z"/>
      </g>
      <g>
        <path class="cls-5" d="M63,242.1a1.1,1.1,0,0,1-.88-1.75L72.19,227a1.11,1.11,0,0,1,.85-.44,1.09,1.09,0,0,1,.87.41l10.74,13.36a1.1,1.1,0,0,1-1.71,1.37l-9.85-12.26-9.22,12.23A1.09,1.09,0,0,1,63,242.1Z"/>
        <path class="cls-5" d="M76.44,238.5a3,3,0,1,1-3-3A3,3,0,0,1,76.44,238.5Z"/>
      </g>
      <g>
        <path class="cls-5" d="M83.49,242.1a1.09,1.09,0,0,1-.87-1.75L92.68,227a1.09,1.09,0,0,1,1.73,0l10.73,13.36a1.09,1.09,0,0,1-1.7,1.37l-9.86-12.26-9.22,12.23A1.09,1.09,0,0,1,83.49,242.1Z"/>
        <path class="cls-5" d="M96.93,238.5a3,3,0,1,1-3-3A3,3,0,0,1,96.93,238.5Z"/>
      </g>
      <g>
        <path class="cls-5" d="M104,242.1a1,1,0,0,1-.65-.22,1.09,1.09,0,0,1-.22-1.53L113.17,227a1.12,1.12,0,0,1,.86-.44,1.1,1.1,0,0,1,.87.41l10.73,13.36a1.08,1.08,0,0,1-.16,1.53,1.09,1.09,0,0,1-1.54-.16l-9.86-12.26-9.21,12.23A1.12,1.12,0,0,1,104,242.1Z"/>
        <path class="cls-5" d="M117.42,238.5a3,3,0,1,1-3-3A3,3,0,0,1,117.42,238.5Z"/>
      </g>
      <g>
        <path class="cls-5" d="M124.47,242.1a1.06,1.06,0,0,1-.65-.22,1.1,1.1,0,0,1-.22-1.53L133.67,227a1.08,1.08,0,0,1,1.72,0l10.73,13.36a1.08,1.08,0,0,1-.16,1.53,1.1,1.1,0,0,1-1.54-.16l-9.85-12.26-9.22,12.23A1.11,1.11,0,0,1,124.47,242.1Z"/>
        <path class="cls-5" d="M137.92,238.5a3,3,0,1,1-3-3A3,3,0,0,1,137.92,238.5Z"/>
      </g>
      <g>
        <path class="cls-5" d="M145,242.1a1.09,1.09,0,0,1-.87-1.75L154.16,227a1.11,1.11,0,0,1,.85-.44,1.09,1.09,0,0,1,.87.41l10.74,13.36a1.1,1.1,0,0,1-1.71,1.37l-9.85-12.26-9.22,12.23A1.09,1.09,0,0,1,145,242.1Z"/>
        <path class="cls-5" d="M158.41,238.5a3,3,0,1,1-3-3A3,3,0,0,1,158.41,238.5Z"/>
      </g>
      <g>
        <path class="cls-5" d="M165.46,242.1a1.09,1.09,0,0,1-.87-1.75L174.65,227a1.09,1.09,0,0,1,1.73,0l10.73,13.36a1.09,1.09,0,0,1-1.7,1.37l-9.86-12.26-9.22,12.23A1.09,1.09,0,0,1,165.46,242.1Z"/>
        <path class="cls-5" d="M178.9,238.5a3,3,0,1,1-3-3A3,3,0,0,1,178.9,238.5Z"/>
      </g>
      <g>
        <path class="cls-5" d="M186,242.1a1,1,0,0,1-.65-.22,1.09,1.09,0,0,1-.22-1.53L195.14,227a1.12,1.12,0,0,1,.86-.44,1.1,1.1,0,0,1,.87.41l10.73,13.36a1.08,1.08,0,0,1-.16,1.53,1.1,1.1,0,0,1-1.54-.16L196,229.44l-9.21,12.23A1.12,1.12,0,0,1,186,242.1Z"/>
        <path class="cls-5" d="M199.39,238.5a3,3,0,1,1-3-3A3,3,0,0,1,199.39,238.5Z"/>
      </g>
      <g>
        <path class="cls-5" d="M206.45,242.1a1.1,1.1,0,0,1-.88-1.75L215.64,227a1.11,1.11,0,0,1,.85-.44,1.09,1.09,0,0,1,.87.41l10.74,13.36a1.1,1.1,0,0,1-1.71,1.37l-9.85-12.26-9.22,12.23A1.1,1.1,0,0,1,206.45,242.1Z"/>
        <path class="cls-5" d="M219.89,238.5a3,3,0,1,1-3-3A3,3,0,0,1,219.89,238.5Z"/>
      </g>
      <g>
        <path class="cls-5" d="M226.94,242.1a1.09,1.09,0,0,1-.87-1.75L236.13,227a1.11,1.11,0,0,1,.86-.44,1.08,1.08,0,0,1,.86.41l10.74,13.36a1.09,1.09,0,0,1-1.7,1.37L237,229.44l-9.22,12.23A1.09,1.09,0,0,1,226.94,242.1Z"/>
        <path class="cls-5" d="M240.38,238.5a3,3,0,1,1-3-3A3,3,0,0,1,240.38,238.5Z"/>
      </g>
      <g>
        <path class="cls-5" d="M247.43,242.1a1.09,1.09,0,0,1-.87-1.75L256.62,227a1.12,1.12,0,0,1,.86-.44,1.1,1.1,0,0,1,.87.41l10.73,13.36a1.09,1.09,0,0,1-1.7,1.37l-9.86-12.26-9.22,12.23A1.09,1.09,0,0,1,247.43,242.1Z"/>
        <path class="cls-5" d="M260.87,238.5a3,3,0,1,1-3-3A3,3,0,0,1,260.87,238.5Z"/>
      </g>
      <g>
        <path class="cls-5" d="M267.92,242.1a1,1,0,0,1-.65-.22,1.09,1.09,0,0,1-.22-1.53L277.12,227a1.08,1.08,0,0,1,1.72,0l10.73,13.36a1.08,1.08,0,0,1-.16,1.53,1.1,1.1,0,0,1-1.54-.16L278,229.44l-9.22,12.23A1.12,1.12,0,0,1,267.92,242.1Z"/>
        <path class="cls-5" d="M281.37,238.5a3,3,0,1,1-3.05-3A3,3,0,0,1,281.37,238.5Z"/>
      </g>
      <circle class="cls-5" cx="42.27" cy="230.17" r="2.5"/>
      <path class="cls-5" d="M65.63,230.17a2.5,2.5,0,1,1-2.5-2.5A2.5,2.5,0,0,1,65.63,230.17Z"/>
      <path class="cls-5" d="M86.49,230.17a2.5,2.5,0,1,1-2.5-2.5A2.5,2.5,0,0,1,86.49,230.17Z"/>
      <path class="cls-5" d="M107.35,230.17a2.5,2.5,0,1,1-2.5-2.5A2.5,2.5,0,0,1,107.35,230.17Z"/>
      <circle class="cls-5" cx="124.82" cy="230.17" r="2.5"/>
      <path class="cls-5" d="M147.64,230.17a2.5,2.5,0,1,1-2.49-2.5A2.49,2.49,0,0,1,147.64,230.17Z"/>
      <path class="cls-5" d="M168.85,230.17a2.5,2.5,0,1,1-2.5-2.5A2.5,2.5,0,0,1,168.85,230.17Z"/>
      <circle class="cls-5" cx="186.66" cy="230.17" r="2.5"/>
      <circle class="cls-5" cx="206.95" cy="230.17" r="2.5"/>
      <path class="cls-5" d="M229.3,230.17a2.5,2.5,0,1,1-2.49-2.5A2.49,2.49,0,0,1,229.3,230.17Z"/>
      <path class="cls-5" d="M250.29,230.17a2.5,2.5,0,1,1-2.5-2.5A2.5,2.5,0,0,1,250.29,230.17Z"/>
      <path class="cls-5" d="M271.15,230.17a2.5,2.5,0,1,1-2.5-2.5A2.5,2.5,0,0,1,271.15,230.17Z"/>
      <g>
        <path class="cls-5" d="M42.5,214.44a1.06,1.06,0,0,1-.65-.22,1.1,1.1,0,0,1-.22-1.53L51.7,199.34a1.08,1.08,0,0,1,1.72,0l10.73,13.35a1.09,1.09,0,1,1-1.7,1.37L52.6,201.77,43.38,214A1.11,1.11,0,0,1,42.5,214.44Z"/>
        <path class="cls-5" d="M56,210.84a3,3,0,1,1-3.05-3.05A3,3,0,0,1,56,210.84Z"/>
      </g>
      <g>
        <path class="cls-5" d="M63,214.44a1.1,1.1,0,0,1-.88-1.75l10.07-13.35a1.11,1.11,0,0,1,.85-.44,1.09,1.09,0,0,1,.87.41l10.74,13.35A1.1,1.1,0,0,1,82.94,214l-9.85-12.26L63.87,214A1.09,1.09,0,0,1,63,214.44Z"/>
        <path class="cls-5" d="M76.44,210.84a3,3,0,1,1-3-3.05A3,3,0,0,1,76.44,210.84Z"/>
      </g>
      <g>
        <path class="cls-5" d="M83.49,214.44a1.09,1.09,0,0,1-.87-1.75l10.06-13.35a1.09,1.09,0,0,1,1.73,0l10.73,13.35a1.1,1.1,0,0,1-.17,1.54,1.08,1.08,0,0,1-1.53-.17l-9.86-12.26L84.36,214A1.09,1.09,0,0,1,83.49,214.44Z"/>
        <path class="cls-5" d="M96.93,210.84a3,3,0,1,1-3-3.05A3,3,0,0,1,96.93,210.84Z"/>
      </g>
      <g>
        <path class="cls-5" d="M104,214.44a1,1,0,0,1-.65-.22,1.09,1.09,0,0,1-.22-1.53l10.06-13.35a1.12,1.12,0,0,1,.86-.44,1.1,1.1,0,0,1,.87.41l10.73,13.35a1.09,1.09,0,1,1-1.7,1.37l-9.86-12.26L104.86,214A1.12,1.12,0,0,1,104,214.44Z"/>
        <path class="cls-5" d="M117.42,210.84a3,3,0,1,1-3-3.05A3,3,0,0,1,117.42,210.84Z"/>
      </g>
      <g>
        <path class="cls-5" d="M124.47,214.44a1.06,1.06,0,0,1-.65-.22,1.1,1.1,0,0,1-.22-1.53l10.07-13.35a1.08,1.08,0,0,1,1.72,0l10.73,13.35a1.09,1.09,0,1,1-1.7,1.37l-9.85-12.26L125.35,214A1.11,1.11,0,0,1,124.47,214.44Z"/>
        <path class="cls-5" d="M137.92,210.84a3,3,0,1,1-3-3.05A3,3,0,0,1,137.92,210.84Z"/>
      </g>
      <g>
        <path class="cls-5" d="M145,214.44a1.09,1.09,0,0,1-.87-1.75l10.06-13.35a1.11,1.11,0,0,1,.85-.44,1.09,1.09,0,0,1,.87.41l10.74,13.35a1.1,1.1,0,1,1-1.71,1.37l-9.85-12.26L145.84,214A1.09,1.09,0,0,1,145,214.44Z"/>
        <path class="cls-5" d="M158.41,210.84a3,3,0,1,1-3-3.05A3,3,0,0,1,158.41,210.84Z"/>
      </g>
      <g>
        <path class="cls-5" d="M165.46,214.44a1.09,1.09,0,0,1-.87-1.75l10.06-13.35a1.09,1.09,0,0,1,1.73,0l10.73,13.35a1.1,1.1,0,0,1-.17,1.54,1.08,1.08,0,0,1-1.53-.17l-9.86-12.26L166.33,214A1.09,1.09,0,0,1,165.46,214.44Z"/>
        <path class="cls-5" d="M178.9,210.84a3,3,0,1,1-3-3.05A3,3,0,0,1,178.9,210.84Z"/>
      </g>
      <g>
        <path class="cls-5" d="M186,214.44a1,1,0,0,1-.65-.22,1.09,1.09,0,0,1-.22-1.53l10.06-13.35a1.12,1.12,0,0,1,.86-.44,1.1,1.1,0,0,1,.87.41l10.73,13.35a1.09,1.09,0,1,1-1.7,1.37L196,201.77,186.83,214A1.12,1.12,0,0,1,186,214.44Z"/>
        <path class="cls-5" d="M199.39,210.84a3,3,0,1,1-3-3.05A3,3,0,0,1,199.39,210.84Z"/>
      </g>
      <g>
        <path class="cls-5" d="M206.45,214.44a1.1,1.1,0,0,1-.88-1.75l10.07-13.35a1.11,1.11,0,0,1,.85-.44,1.09,1.09,0,0,1,.87.41l10.74,13.35a1.1,1.1,0,0,1-1.71,1.37l-9.85-12.26L207.32,214A1.1,1.1,0,0,1,206.45,214.44Z"/>
        <path class="cls-5" d="M219.89,210.84a3,3,0,1,1-3-3.05A3,3,0,0,1,219.89,210.84Z"/>
      </g>
      <g>
        <path class="cls-5" d="M226.94,214.44a1.09,1.09,0,0,1-.87-1.75l10.06-13.35a1.11,1.11,0,0,1,.86-.44,1.08,1.08,0,0,1,.86.41l10.74,13.35a1.1,1.1,0,0,1-.17,1.54,1.08,1.08,0,0,1-1.53-.17L237,201.77,227.81,214A1.09,1.09,0,0,1,226.94,214.44Z"/>
        <path class="cls-5" d="M240.38,210.84a3,3,0,1,1-3-3.05A3,3,0,0,1,240.38,210.84Z"/>
      </g>
      <g>
        <path class="cls-5" d="M247.43,214.44a1.09,1.09,0,0,1-.87-1.75l10.06-13.35a1.12,1.12,0,0,1,.86-.44,1.1,1.1,0,0,1,.87.41l10.73,13.35a1.1,1.1,0,0,1-.17,1.54,1.08,1.08,0,0,1-1.53-.17l-9.86-12.26L248.3,214A1.09,1.09,0,0,1,247.43,214.44Z"/>
        <path class="cls-5" d="M260.87,210.84a3,3,0,1,1-3-3.05A3,3,0,0,1,260.87,210.84Z"/>
      </g>
      <path class="cls-5" d="M44.77,202.51a2.5,2.5,0,1,1-2.5-2.5A2.5,2.5,0,0,1,44.77,202.51Z"/>
      <path class="cls-5" d="M65.63,202.51a2.5,2.5,0,1,1-2.5-2.5A2.5,2.5,0,0,1,65.63,202.51Z"/>
      <path class="cls-5" d="M86.49,202.51A2.5,2.5,0,1,1,84,200,2.5,2.5,0,0,1,86.49,202.51Z"/>
      <path class="cls-5" d="M107.35,202.51a2.5,2.5,0,1,1-2.5-2.5A2.5,2.5,0,0,1,107.35,202.51Z"/>
      <path class="cls-5" d="M127.32,202.51a2.5,2.5,0,1,1-2.5-2.5A2.5,2.5,0,0,1,127.32,202.51Z"/>
      <path class="cls-5" d="M147.64,202.51a2.5,2.5,0,1,1-2.49-2.5A2.49,2.49,0,0,1,147.64,202.51Z"/>
      <path class="cls-5" d="M168.85,202.51a2.5,2.5,0,1,1-2.5-2.5A2.5,2.5,0,0,1,168.85,202.51Z"/>
      <path class="cls-5" d="M189.16,202.51a2.5,2.5,0,1,1-2.5-2.5A2.5,2.5,0,0,1,189.16,202.51Z"/>
      <path class="cls-5" d="M209.45,202.51A2.5,2.5,0,1,1,207,200,2.5,2.5,0,0,1,209.45,202.51Z"/>
      <path class="cls-5" d="M229.3,202.51a2.5,2.5,0,1,1-2.49-2.5A2.49,2.49,0,0,1,229.3,202.51Z"/>
      <path class="cls-5" d="M250.29,202.51a2.5,2.5,0,1,1-2.5-2.5A2.5,2.5,0,0,1,250.29,202.51Z"/>
      <path class="cls-5" d="M271.15,202.51a2.5,2.5,0,1,1-2.5-2.5A2.5,2.5,0,0,1,271.15,202.51Z"/>
      <g>
        <path class="cls-5" d="M63,183.1a1.16,1.16,0,0,1-.66-.22,1.1,1.1,0,0,1-.22-1.53L72.19,168a1.1,1.1,0,0,1,1.72,0l10.74,13.36a1.1,1.1,0,0,1-1.71,1.37l-9.85-12.26-9.22,12.23A1.07,1.07,0,0,1,63,183.1Z"/>
        <path class="cls-5" d="M76.44,179.49a3,3,0,1,1-3-3A3,3,0,0,1,76.44,179.49Z"/>
      </g>
      <g>
        <path class="cls-5" d="M83.49,183.1a1.16,1.16,0,0,1-.66-.22,1.09,1.09,0,0,1-.21-1.53L92.68,168a1.07,1.07,0,0,1,.86-.43,1.1,1.1,0,0,1,.87.4l10.73,13.36a1.09,1.09,0,0,1-1.7,1.37l-9.86-12.26-9.22,12.23A1.07,1.07,0,0,1,83.49,183.1Z"/>
        <path class="cls-5" d="M96.93,179.49a3,3,0,1,1-3-3A3,3,0,0,1,96.93,179.49Z"/>
      </g>
      <g>
        <path class="cls-5" d="M104,183.1a1.11,1.11,0,0,1-.65-.22,1.09,1.09,0,0,1-.22-1.53L113.17,168a1.11,1.11,0,0,1,1.73,0l10.73,13.36a1.08,1.08,0,0,1-.16,1.53,1.09,1.09,0,0,1-1.54-.16l-9.86-12.26-9.21,12.23A1.1,1.1,0,0,1,104,183.1Z"/>
        <path class="cls-5" d="M117.42,179.49a3,3,0,1,1-3-3A3,3,0,0,1,117.42,179.49Z"/>
      </g>
      <g>
        <path class="cls-5" d="M124.47,183.1a1.13,1.13,0,0,1-.65-.22,1.1,1.1,0,0,1-.22-1.53L133.67,168a1.05,1.05,0,0,1,.85-.43,1.08,1.08,0,0,1,.87.4l10.73,13.36a1.08,1.08,0,0,1-.16,1.53,1.1,1.1,0,0,1-1.54-.16l-9.85-12.26-9.22,12.23A1.09,1.09,0,0,1,124.47,183.1Z"/>
        <path class="cls-5" d="M137.92,179.49a3,3,0,1,1-3-3A3,3,0,0,1,137.92,179.49Z"/>
      </g>
      <g>
        <path class="cls-5" d="M145,183.1a1.16,1.16,0,0,1-.66-.22,1.09,1.09,0,0,1-.21-1.53L154.16,168a1.1,1.1,0,0,1,1.72,0l10.74,13.36a1.08,1.08,0,0,1-.17,1.53,1.1,1.1,0,0,1-1.54-.16l-9.85-12.26-9.22,12.23A1.07,1.07,0,0,1,145,183.1Z"/>
        <path class="cls-5" d="M158.41,179.49a3,3,0,1,1-3-3A3,3,0,0,1,158.41,179.49Z"/>
      </g>
      <g>
        <path class="cls-5" d="M165.46,183.1a1.16,1.16,0,0,1-.66-.22,1.1,1.1,0,0,1-.21-1.53L174.65,168a1.07,1.07,0,0,1,.86-.43,1.1,1.1,0,0,1,.87.4l10.73,13.36a1.09,1.09,0,0,1-1.7,1.37l-9.86-12.26-9.22,12.23A1.07,1.07,0,0,1,165.46,183.1Z"/>
        <path class="cls-5" d="M178.9,179.49a3,3,0,1,1-3-3A3,3,0,0,1,178.9,179.49Z"/>
      </g>
      <g>
        <path class="cls-5" d="M186,183.1a1.11,1.11,0,0,1-.65-.22,1.09,1.09,0,0,1-.22-1.53L195.14,168a1.11,1.11,0,0,1,1.73,0l10.73,13.36a1.08,1.08,0,0,1-.16,1.53,1.1,1.1,0,0,1-1.54-.16L196,170.43l-9.21,12.23A1.1,1.1,0,0,1,186,183.1Z"/>
        <path class="cls-5" d="M199.39,179.49a3,3,0,1,1-3-3A3,3,0,0,1,199.39,179.49Z"/>
      </g>
      <g>
        <path class="cls-5" d="M206.45,183.1a1.16,1.16,0,0,1-.66-.22,1.1,1.1,0,0,1-.22-1.53L215.64,168a1.1,1.1,0,0,1,1.72,0l10.74,13.36a1.1,1.1,0,0,1-1.71,1.37l-9.85-12.26-9.22,12.23A1.08,1.08,0,0,1,206.45,183.1Z"/>
        <path class="cls-5" d="M219.89,179.49a3,3,0,1,1-3-3A3,3,0,0,1,219.89,179.49Z"/>
      </g>
      <g>
        <path class="cls-5" d="M226.94,183.1a1.16,1.16,0,0,1-.66-.22,1.09,1.09,0,0,1-.21-1.53L236.13,168a1.1,1.1,0,0,1,1.72,0l10.74,13.36a1.09,1.09,0,0,1-1.7,1.37L237,170.43l-9.22,12.23A1.07,1.07,0,0,1,226.94,183.1Z"/>
        <path class="cls-5" d="M240.38,179.49a3,3,0,1,1-3-3A3,3,0,0,1,240.38,179.49Z"/>
      </g>
      <path class="cls-5" d="M65.63,171.16a2.5,2.5,0,1,1-2.5-2.49A2.5,2.5,0,0,1,65.63,171.16Z"/>
      <path class="cls-5" d="M86.49,171.16a2.5,2.5,0,1,1-2.5-2.49A2.5,2.5,0,0,1,86.49,171.16Z"/>
      <path class="cls-5" d="M107.35,171.16a2.5,2.5,0,1,1-2.5-2.49A2.5,2.5,0,0,1,107.35,171.16Z"/>
      <path class="cls-5" d="M127.32,171.16a2.5,2.5,0,1,1-2.5-2.49A2.5,2.5,0,0,1,127.32,171.16Z"/>
      <path class="cls-5" d="M147.64,171.16a2.5,2.5,0,1,1-2.49-2.49A2.49,2.49,0,0,1,147.64,171.16Z"/>
      <path class="cls-5" d="M168.85,171.16a2.5,2.5,0,1,1-2.5-2.49A2.5,2.5,0,0,1,168.85,171.16Z"/>
      <path class="cls-5" d="M189.16,171.16a2.5,2.5,0,1,1-2.5-2.49A2.5,2.5,0,0,1,189.16,171.16Z"/>
      <path class="cls-5" d="M209.45,171.16a2.5,2.5,0,1,1-2.5-2.49A2.5,2.5,0,0,1,209.45,171.16Z"/>
      <path class="cls-5" d="M229.3,171.16a2.5,2.5,0,1,1-2.49-2.49A2.49,2.49,0,0,1,229.3,171.16Z"/>
      <path class="cls-5" d="M250.29,171.16a2.5,2.5,0,1,1-2.5-2.49A2.5,2.5,0,0,1,250.29,171.16Z"/>
      <polygon class="cls-5" points="16.8 221.48 25.43 217.49 278.32 217.49 294.58 221.48 16.8 221.48"/>
      <polygon class="cls-5" points="35.46 191.8 44.09 187.82 268.65 187.82 275.51 191.8 35.46 191.8"/>
    </g>
  </g>
  <g class="cls-21">
    <g>
      <rect class="cls-22" x="259.67" y="159.18" width="278.78" height="133.14"/>
      <rect class="cls-23" x="259.67" y="185.39" width="278.78" height="61.53"/>
      <rect class="cls-24" x="259.67" y="227.19" width="278.78" height="19.73"/>
      <rect class="cls-25" x="259.67" y="238.68" width="278.78" height="8.24"/>
      <g>
        <rect class="cls-26" x="272.67" y="198.61" width="75.42" height="35.09" rx="3.27"/>
        <path class="cls-27" d="M344.54,199.7a2.46,2.46,0,0,1,2.46,2.46v28a2.46,2.46,0,0,1-2.46,2.46H276.21a2.46,2.46,0,0,1-2.46-2.46v-28a2.46,2.46,0,0,1,2.46-2.46h68.33m0-1.09H276.21a3.54,3.54,0,0,0-3.54,3.55v28a3.54,3.54,0,0,0,3.54,3.55h68.33a3.55,3.55,0,0,0,3.54-3.55v-28a3.55,3.55,0,0,0-3.54-3.55Z"/>
      </g>
      <rect class="cls-28" x="259.67" y="159.18" width="278.78" height="11.22"/>
    </g>
  </g>
</svg>
