<svg id="Layer_1" data-name="Layer 1" xmlns="http://www.w3.org/2000/svg" width="249.3" height="341.53" viewBox="0 0 249.3 341.53">
  <defs>
    <style>
      .cls-1 {
        fill: #ff0;
      }

      .cls-2 {
        fill: #f5ac4e;
      }

      .cls-3 {
        fill: #ef8245;
      }

      .cls-4 {
        fill: #fed952;
      }

      .cls-5 {
        fill: #a35020;
      }

      .cls-6 {
        fill: #ffd953;
      }
    </style>
  </defs>
  <g>
    <path class="cls-1" d="M37.91,36.94c-3.64,4.67-6.48,12.27.68,21.93,4.07,5.49,10.4,10.49,17.1,15.78,7.92,6.26,16.11,12.74,18.5,18.71a68.5,68.5,0,0,0,8.91,15.2c.41.56.81,1.12,1.2,1.67a9.2,9.2,0,0,0,0,4.49,10.06,10.06,0,0,0,1.48,3.17,8,8,0,0,0-1.63,2.45c-1,2.46-1.32,6.39,3.27,11.1a20.69,20.69,0,0,0,2.59,2.22c-.32,2-.77,4.16-1.37,6.46-5.71,21.81-22.39,31-41.7,41.64-4.17,2.3-8.49,4.68-12.77,7.23C21,196.91,11.9,212.15,9.39,230.8S11,269.87,21,288c18.89,34.27,64.13,43.41,87.88,43.41,1.65,0,3.18-.05,4.55-.15,2.09.24,9.3,1,19,1.38l3.2.11c2.31.07,4.6.11,6.83.13h1.78c2.49,0,5,0,7.34-.1l3.78-.15c24.11-1.11,40.91-5.95,49.92-14.38,20.78-19.44,47.19-59.8,29.61-85.38-9.51-13.83-31.57-37.45-49.29-56.43l-2-2.14c2.87-1.61,4.75-5.16,5-9.82a6.16,6.16,0,0,0-.08-1.28c-1.22-7.24-5.76-15-10.84-21.75,2.23,1.51,4.28,3,6.07,4.37,3.06,2.27,5.27,3.92,7.32,4.81a11.47,11.47,0,0,0,4.62,1.05,8.51,8.51,0,0,0,6.56-3c3.07-3.58,2.57-8.68,2.34-10.16-.33-2.13-1.41-4.89-10.21-10.82a109.9,109.9,0,0,0-17.78-9.67c-7.63-3.26-17.44-4.5-24.78-5,70.08-59.18,59.12-87.66,56.08-92.95-4.35-10-11.9-11.53-16.05-11.53-12,0-28.08,11.85-49,36.13-1.22-7.26-3.88-15.57-9.51-21.69-5.41-5.87-12.56-8.85-21.23-8.85a41.17,41.17,0,0,0-5.66.4,6,6,0,0,0-2.27.8c-1.68,1-9.91,7.1-7.21,28.31.37,2.93.76,6,1.08,8.81-.85-1.45-1.67-2.9-2.33-4.08C91.57,41.22,88.07,35,83.2,32.81l-1.86-.89c-4.69-2.29-12.55-6.11-21.42-6.11C51.2,25.81,43.59,29.66,37.91,36.94Z"/>
    <g>
      <path class="cls-2" d="M113.54,325.25s66.89,8,87.63-11.37,43.48-56.19,28.76-77.6-61.54-68.22-71.57-80.93-24.75-33.45-12-45.49,67.56-59.53,56.19-87S151,43.64,137.62,60.36c0,0,3.68-44.48-30.43-39.8,0,0-6.69,4-4.35,22.41s3,24.42-3,21.41S86.79,41,80.77,38.29,55.68,23.91,42.64,40.63s29.77,32.11,37.12,50.5,22.41,21.07,14.72,50.5-33.11,38.13-57.19,52.51-30.77,55.19-11,91S97.82,326.59,113.54,325.25Z"/>
      <path class="cls-3" d="M229.93,236.28c-14.71-21.4-61.54-68.22-71.57-80.93s-25.47-34.26-12-45.49c73.58-61.54,56.19-87,56.19-87s-27.88,17.72-57.86,58.2c-6.69,9-16.35,37.31-14.56,42.54,7,20.29,38.64,66.49,55.36,118.66,17.14,53.48-72.8,83-71.91,82.95,0,0,66.89,8,87.63-11.37S244.65,257.69,229.93,236.28Z"/>
      <path class="cls-4" d="M70.73,231.94s9.37-9,18.4-13.05,16.39-18.06,8.36-20.06-16.72,1.33-21.41,2-17.72-.33-21.73-1.34-20.74-.66-30.11,17.73-1.67,35.12,7,50.84,25.08,44.48,52.84,45.15,18.73-5,13-12.38-30.77-20.4-32.11-35.11S62.71,238.29,70.73,231.94Z"/>
      <path class="cls-5" d="M95.11,117.55s-10.2-3.84-1.68-9.86c0,0,1-1.84,6.69,3.17s30.27,8,32.11,8,4-7.19,9.53,0c0,0,19.9-.67,32.44,4.68s24.08,13.72,24.42,15.89.17,8-5.18,5.69S173,127.09,156.81,127.59c0,0,23.08,20.73,25.76,36.62,0,0-.51,10.53-7.36,1.17s-9-24.41-31.61-35.95c0,0-1.5,9.19-13.38,9s-32.1-4.69-38.46-11.21,3-6.85,4-6.52,14,10.87,27.92,10,13.88-3,14-3.67-2.51-1.34-7.53-.67S99.79,121.9,95.11,117.55Z"/>
      <path class="cls-6" d="M61,45.65s25.42,42.81,40.14,48.16c0,0,23.41,28.76-.67,8S56.35,59.69,54.35,51.67,61,45.65,61,45.65Z"/>
      <path class="cls-6" d="M119.73,44.48s6.52-14.55-.5-15S111.7,44,111.7,51s4,40.13,3.52,45.65a26.79,26.79,0,0,0,.5,9s6-13.54,3-28.59S119.73,44.48,119.73,44.48Z"/>
      <path class="cls-6" d="M130.52,95.15c-3.24.53-8.53,2.25-2-7.78s37.71-50.92,48.75-56.44,8.52,7,3.51,9-26.52,20.2-33.7,28.6C141.86,74.65,132.88,94.76,130.52,95.15Z"/>
    </g>
  </g>
</svg>
