<svg id="Layer_1" data-name="Layer 1" xmlns="http://www.w3.org/2000/svg" width="405.07" height="334.26" viewBox="0 0 405.07 334.26">
  <defs>
    <style>
      .cls-1 {
        fill: #ff0;
      }

      .cls-2 {
        fill: #342517;
      }

      .cls-3 {
        fill: #f3a097;
      }

      .cls-4 {
        fill: #f49fc3;
      }

      .cls-5 {
        fill: #654eea;
      }

      .cls-12, .cls-15, .cls-19, .cls-20, .cls-21, .cls-22, .cls-6 {
        fill: none;
      }

      .cls-6 {
        stroke: #1d1c1a;
      }

      .cls-12, .cls-15, .cls-18, .cls-19, .cls-20, .cls-21, .cls-22, .cls-23, .cls-6 {
        stroke-miterlimit: 10;
      }

      .cls-12, .cls-23, .cls-6 {
        stroke-width: 0.25px;
      }

      .cls-7 {
        fill: #f9d1c6;
      }

      .cls-8 {
        fill: #f05e63;
      }

      .cls-9 {
        fill: #d2414d;
      }

      .cls-10 {
        fill: #f2a396;
      }

      .cls-11 {
        fill: #3d2e17;
      }

      .cls-12 {
        stroke: #424127;
      }

      .cls-13 {
        fill: #ee5ba0;
      }

      .cls-14 {
        fill: #8eb856;
      }

      .cls-15, .cls-18 {
        stroke: #2b1daa;
      }

      .cls-15, .cls-18, .cls-19, .cls-20, .cls-21, .cls-22 {
        stroke-width: 0.5px;
      }

      .cls-16 {
        fill: #2723cc;
      }

      .cls-17 {
        fill: #eeb637;
      }

      .cls-18 {
        fill: #5d42ce;
      }

      .cls-19 {
        stroke: #ee5ba0;
      }

      .cls-20 {
        stroke: #d2414d;
      }

      .cls-21 {
        stroke: #7fa43f;
      }

      .cls-22 {
        stroke: #f2a396;
      }

      .cls-23, .cls-24 {
        fill: #fff;
      }

      .cls-23 {
        stroke: #3d2e17;
      }
    </style>
  </defs>
  <g>
    <path class="cls-1" d="M249.37,31.69l-.43-.31a25.43,25.43,0,0,0-1.5-6.9.66.66,0,0,0,0-.11c-.22-.57-.45-1.09-.65-1.51a1.74,1.74,0,0,0-.1-.19,15.52,15.52,0,0,0-.77-1.4l-.19-.3a15.94,15.94,0,0,0-1-1.45l-.19-.23a15.44,15.44,0,0,0-1-1.15l-.36-.35a17.29,17.29,0,0,0-1.48-1.25,5.84,5.84,0,0,0-1.14-.66,48.44,48.44,0,0,0-19.64-3.68,82.21,82.21,0,0,0-10.56.72c-2.63.34-5.38.81-8.17,1.4-3.31.69-6.74,1.55-10.2,2.57-10.79,3.16-19.91,7.2-22.65,8.92a9.88,9.88,0,0,0-1.1.8l-.33.3c-.21.19-.4.37-.6.58l-.29.34c-.16.19-.32.38-.46.57l-.27.38a5.48,5.48,0,0,0-.37.57l-.22.36c-.11.19-.21.39-.34.65l-.14.29c-.09.18-.17.37-.29.65l-.12.3c-.07.17-.13.35-.21.58s-.09.24-.13.36l-.1.33a30.09,30.09,0,0,0-1.17,7.72c0,.61,0,1.18,0,1.68s0,1.23,0,1.69,0,.74,0,1.06l-.21.57c-.83,2.4-1.2,6.24,1.73,11l.17.27a7,7,0,0,0-.25,1.1c0,.13,0,.26-.06.4a9.47,9.47,0,0,0,0,1.51v.09a10.43,10.43,0,0,0,.22,1.47l.06.24a9.64,9.64,0,0,0,.29,1l.1.27c.12.32.26.64.4.95l.15.3c.12.22.24.45.34.62l.25.43c.1.17.22.35.34.53l.23.35.26.37.43.56.2.25.39.48.59.67s.42.46.57.61c1,3.23,3.77,9.65,10.92,15.75.16.35.42,1,.86,2.19.29.77.58,1.61.9,2.5,2.57,7.26,5.76,16.28,11.49,20.34l1.45,1,.19.19c1,1.17,3,2.79,7.29,5-3.66,7.29-8.3,20.18-8.4,38.76,0,.4,0,.81,0,1.22,0,.12-.07.25-.1.4a37.35,37.35,0,0,0-1.42,9,12.58,12.58,0,0,0,.13,1.8c-1.27,4.32-3.3,11.08-6.08,19.82l-.78,2.46a3,3,0,0,0-.09.32c-.08.24-.15.47-.23.7A6,6,0,0,0,184.3,194c-1.06,3.25-1.73,5.15-2.21,6.28a47.63,47.63,0,0,1-4.91,8.88c-1.68,2.35-3.67,4.83-6.18,8-1.5,1.88-3.17,4-5.05,6.36-3.78,4.88-8.36,10.87-13.62,18.28l-.78,1.1c-9,3.05-20,8.19-25.31,16.12a21.34,21.34,0,0,0-1.82,2.95,32.89,32.89,0,0,1-12.81-5.12c-9-6.15-12.78-16-17.55-28.39-.79-2-1.52-4.14-2.18-6.24l-3.44-20a149.51,149.51,0,0,1,5.29-30.6c6.49-22.89,13.56-34.42,18.35-40.06,1.48-1.75,2.83-3.55,4.14-5.29a67.46,67.46,0,0,1,5.47-6.7c.54-.56,1.06-1.08,1.55-1.57,3.2-3.2,6.23-6.23,7.15-11.62a18.27,18.27,0,0,0-2.31-12A15.74,15.74,0,0,0,122,88.09c.23-5.48-1.66-8.82-3.47-10.75-2.52-2.68-6.36-4.15-10.81-4.15H107a29.22,29.22,0,0,0-15,4.71,10.36,10.36,0,0,0-4.9-1.13h-.69a27.47,27.47,0,0,0-8.09,1.57C80.12,74,83,67.77,87.39,58.87a6,6,0,0,0,.39-4.36,16.46,16.46,0,0,0-5.66-8.44,16.89,16.89,0,0,0-9.67-3.53h-.69a8.81,8.81,0,0,0-6.52,2.63,8.65,8.65,0,0,0-5.75-1.9l-.58,0h-.12c-4.09,0-9.07,2-10.5,2.67A32.5,32.5,0,0,0,36.5,54.87,6.44,6.44,0,0,0,35.75,56,200.88,200.88,0,0,0,19,100.23c-8.51,34.28-8.91,73.63-1.1,108C27.29,249.73,47.71,280.07,76.9,296a98.88,98.88,0,0,0,23.91,9.18,121,121,0,0,0,28.89,3.38c1.48,0,3,0,4.49-.07l.81,0c4.59-.13,9.41-.5,14.37-1.12a6,6,0,0,0,6.3,2.62l1-.22a36,36,0,0,0,7.79.82c1.13,0,2.29,0,3.45-.15h.21a44.78,44.78,0,0,0,9.59-2,39.71,39.71,0,0,1,10.48,10.94,6,6,0,0,0,5.07,2.79h39.43a6,6,0,0,0,6-6v-5a5.63,5.63,0,0,0-.09-1c-4.95-29.48-20.06-39.73-31.38-43.2,15.4-13.08,27.89-27,37.21-41.49.82-1.27,1.71-2.71,2.68-4.29a58.59,58.59,0,0,0,8.41,13.68,57.62,57.62,0,0,0,7.87,7.9,59,59,0,0,0,9.37,8.94,66.2,66.2,0,0,0-7.45,17.78,65.34,65.34,0,0,0-1.64,22.91,55.83,55.83,0,0,0-3.33,11,53.74,53.74,0,0,0-.88,13.07,6,6,0,0,0,6,5.67h.23l119.78-4.37a6,6,0,0,0,5.37-8.17,70.57,70.57,0,0,1-5-24.59c-.13-9.33,1.78-16.39,3.62-23.22h0s0-.1,0-.15c2.16-8,4.37-16.26,2.89-27.33a60.5,60.5,0,0,0-6.56-20.11c2.4-5.8,2-11.92-1.22-16-2.22-2.84-5.63-4.56-9.93-5.06a45.7,45.7,0,0,0-25.94-30.32,158.9,158.9,0,0,0-72-85.23,27.54,27.54,0,0,0,1.72-11.61,29.91,29.91,0,0,0-3-11,11,11,0,0,0,0-6.08c-1.89-6.87-9.69-11.18-14.2-13.14a17.24,17.24,0,0,0-6.82-1.45,15.47,15.47,0,0,0-2.51.2l-.06-.09c-.19-.26-.38-.52-.57-.75a5.4,5.4,0,0,0-.41-.45c-.18-.2-.37-.39-.56-.57l-.43-.37C249.75,32,249.56,31.83,249.37,31.69Z"/>
    <g>
      <path class="cls-2" d="M242.09,64.71c-1.54,2.63-9.68,9.18-9.85,5.88a20,20,0,0,0-7.53-15c0-2.38-3.36-4.15-6.33-5.21h0c-.62-.22-1.23-.42-1.79-.59,2.57-.25,4.37-.28,5.07-.28,3.27.06,19.79,3.7,20.1,3.89a.15.15,0,0,1,.08-.05,4.07,4.07,0,0,1,.34.45C244.5,57.12,243.49,62.36,242.09,64.71Z"/>
      <path class="cls-3" d="M221.67,90.09c-.4.77-7.19,13-18.88,13,.77-1.37,1.48-3.19,3.45-3.34s5.22-3,5.47-3.53A23.05,23.05,0,0,1,221.67,90.09Z"/>
      <path class="cls-4" d="M369.71,199A49.84,49.84,0,0,1,359,211.59a50.46,50.46,0,0,1-18.42,9.92,61.25,61.25,0,0,1-27,20.21,61.93,61.93,0,0,1-40,.9,53,53,0,0,1-6-4.26,52.08,52.08,0,0,1-7.48-7.42,54.05,54.05,0,0,1-11.33-24.61c4.17-7.34,7.64-13.75,8-14.42,4.82-8.87,8.65-16.49,11.37-22A78,78,0,0,1,246,167.05a74.39,74.39,0,0,1-10.92-3.92c-1-.45-2-.93-2.94-1.37a34.52,34.52,0,0,0,2.75-4.71,27,27,0,0,0,1.73-4.45,53.5,53.5,0,0,1-3-12.49v0a41.36,41.36,0,0,1,.56-12.62c4.43-21.9,25.85-33,34.55-47.41a152.93,152.93,0,0,1,75.1,87.19,40.66,40.66,0,0,1,18.31,13.61A40.16,40.16,0,0,1,369.71,199Z"/>
      <path class="cls-5" d="M207.35,316.06H193.23a45.61,45.61,0,0,0-14.81-14.39s.09,0,.11-.06c.37-.14.7-.3,1.07-.44,13.33-5.69,15.82-16.78,16.13-23.08a23.55,23.55,0,0,1,8.51,4.76,22.58,22.58,0,0,1,6,8C213.65,302.26,208.75,313.07,207.35,316.06Z"/>
      <path class="cls-5" d="M232.66,311.05v5H211.38c2.57-11.45,1.43-19.51-1.18-25.2a22.58,22.58,0,0,0-6-8,23.55,23.55,0,0,0-8.51-4.76,32.82,32.82,0,0,0-.12-4.28,14.31,14.31,0,0,1-.3-2.66C201.47,271,226.22,272.72,232.66,311.05Z"/>
      <path class="cls-6" d="M216.56,49.84h0c-9.55.84-29.65,4.17-41.61,16.24a5.41,5.41,0,0,0,.14.59c12-12,31.95-15.26,41.47-16.1h0c.64-.06,1.23-.11,1.79-.14C217.73,50.21,217.12,50,216.56,49.84Zm34.86,2,0,0a8.94,8.94,0,0,0-9.58,1.57,4.07,4.07,0,0,1,.34.45,8.87,8.87,0,0,1,9.24-1.29l0,0c.05-.23.08-.45.11-.68C251.5,51.89,251.44,51.89,251.42,51.86Z"/>
      <path class="cls-7" d="M251.32,51.83a4.93,4.93,0,0,1-.11.67l0,0a8.87,8.87,0,0,0-9.24,1.28c2.35,3.28,1.35,8.52-.05,10.87-1.54,2.63-9.69,9.18-9.86,5.88a20,20,0,0,0-7.53-15c0-2.38-3.36-4.15-6.33-5.21h0c-.56,0-1.15.08-1.79.14h0c-9.52.84-29.51,4.14-41.47,16.1.51,1.9,2.67,8.2,9.86,14.08a.9.9,0,0,1,.2.23,15.92,15.92,0,0,1,1.82,4c2.21,6,5.4,16.61,10.27,20,.82.59,1.65,1.15,2.47,1.71-5.55-5.35-.45-11.29,1.23-11.93a10.83,10.83,0,0,1,3.72-.56c2.16-5,8.07-7.76,15-8.23S228,88.43,226.6,89a25.13,25.13,0,0,0-5.13,1.15l0,0a24,24,0,0,1-5.11,6.65,25,25,0,0,1-13.8,6.17c0,1.69.31,4.22,1.69,4.78l.09,0c-3.77-1.36-4.71-1.42-4.83-1.19-.24.5,3.2,3.1,11.18,6.63a18.12,18.12,0,0,0,3.86,1.29c.81.14,2.41-.39,4.45-1.4A85.8,85.8,0,0,0,238.72,98.9a0,0,0,0,0,0,0c2.49-2.46,4.37-4.81,5-6.75a7.69,7.69,0,0,0,.34-1.12c2.21-7.78.08-18.81-3.39-21.19.95.33,8.93.11,12.74-4.29a8.09,8.09,0,0,0,2-5.37C255.52,55.72,253.73,53.06,251.32,51.83Z"/>
      <path class="cls-6" d="M225.63,41.39c16.69-3.53,25.31,9.71,25.76,10.44"/>
      <path class="cls-8" d="M251.42,51.86l0,0a8.94,8.94,0,0,0-9.58,1.57.15.15,0,0,0-.08.05c-.31-.19-16.83-3.83-20.1-3.89-.7,0-2.5,0-5.07.28h0c-9.55.84-29.65,4.17-41.61,16.24,0,0-8-6.89-2.52-9.32.2-.14-6.47-5.74-3.13-10.53-.06-.11-1.24-12.6,3.13-15.32s42.93-19.6,65.63-9.54c6,4.39,4.9,13.94,4.9,13.94s5.71.64,5.13,7.14A4,4,0,0,1,248,43C248.09,44.05,252.65,46.51,251.42,51.86Z"/>
      <path class="cls-9" d="M169.09,46.06A94.53,94.53,0,0,1,178.85,38a42.16,42.16,0,0,1,5.41-3.32,17.3,17.3,0,0,1,2.93-1.19,7.59,7.59,0,0,1,3.13-.35,7.49,7.49,0,0,0-3.11.41,18.07,18.07,0,0,0-2.9,1.24A41.67,41.67,0,0,0,179,38.15a92.93,92.93,0,0,0-9.56,8.27Z"/>
      <path class="cls-9" d="M172.21,56.58a72.93,72.93,0,0,1,7.6-7.32,35.8,35.8,0,0,1,4.28-3.06A12.14,12.14,0,0,1,189,44.33a11.93,11.93,0,0,0-4.82,2A34.57,34.57,0,0,0,180,49.46a72.09,72.09,0,0,0-7.38,7.45Z"/>
      <path class="cls-9" d="M242.67,35.57A51.35,51.35,0,0,0,236.21,33a52.38,52.38,0,0,0-6.75-1.67,38.45,38.45,0,0,0-6.94-.48,25.23,25.23,0,0,0-6.83,1.29,25.17,25.17,0,0,1,6.82-1.41,38.05,38.05,0,0,1,7,.35,52,52,0,0,1,13.39,4Z"/>
      <path class="cls-9" d="M248.06,43.71a49.82,49.82,0,0,0-6.46-2.55,50.44,50.44,0,0,0-6.75-1.68,37.56,37.56,0,0,0-6.94-.47,25.29,25.29,0,0,0-6.83,1.28,25.17,25.17,0,0,1,6.82-1.41,38.06,38.06,0,0,1,7,.36,51.76,51.76,0,0,1,6.82,1.56,50.48,50.48,0,0,1,6.57,2.46Z"/>
      <path class="cls-10" d="M247.11,57s6.24-.49,6.18,2.33-6.94,5.67-8.73,4.77"/>
      <path class="cls-10" d="M197.32,79.72a14.74,14.74,0,0,1-.33,6,18.88,18.88,0,0,1-2.5,5.48v0l0,0a.66.66,0,0,0,0,.86,2.42,2.42,0,0,0,.84.74,5.61,5.61,0,0,0,2.29.61,10.57,10.57,0,0,0,4.74-1A21.19,21.19,0,0,0,206.59,90a36.41,36.41,0,0,0,3.78-3.25,24.35,24.35,0,0,1-7.87,6.14,10.89,10.89,0,0,1-4.94,1,5.54,5.54,0,0,1-2.5-.68,3,3,0,0,1-1-.91,1.42,1.42,0,0,1-.22-.71,1,1,0,0,1,.3-.72l0,0a21,21,0,0,0,2.58-5.32A15.83,15.83,0,0,0,197.32,79.72Z"/>
      <path class="cls-11" d="M226.47,89.12a25,25,0,0,0-5.12,1.15l0,0a22.61,22.61,0,0,0-9.77,6c-.26.56-3.45,3.31-5.38,3.48s-2.63,1.93-3.39,3.27,1.51,4.9,1.51,4.9a7,7,0,0,1-4.92-1.17,0,0,0,0,0,0,0c-5.55-5.35-.45-11.29,1.23-11.93a10.83,10.83,0,0,1,3.72-.56c2.16-5,8.07-7.76,15-8.23S227.87,88.51,226.47,89.12Z"/>
      <path class="cls-12" d="M218.45,100.31a7.24,7.24,0,0,1-2.79,3.5,14.93,14.93,0,0,1-4.2,1.48h0"/>
      <path class="cls-4" d="M221.91,168.36c-8.35-6.72-20.89-2.74-23-2h0l-.28.11c-.62-2.72,1.29-9,1.4-9.86-.28-25.5,8.48-39.84,10.86-43.23a17.81,17.81,0,0,0,3.87,1.29c.81.14,2.41-.39,4.45-1.4a139.8,139.8,0,0,0-1.18,31A141.42,141.42,0,0,0,221.91,168.36Z"/>
      <path class="cls-6" d="M228.93,179.23c.82,1.26,1.82,2.77,1.82,2.77l3.34,1.2"/>
      <path class="cls-6" d="M228.18,176.93l-.25.76"/>
      <path class="cls-7" d="M227.87,178.61a161.26,161.26,0,0,1-9,22.09c-3,5.49-5.71,9.75-9.86,17.33a.71.71,0,0,1-.14.23,154.21,154.21,0,0,1-11.42,15.37,163.11,163.11,0,0,1-25,23.91l.51.93a39.61,39.61,0,0,0-6.64,3.33,40.46,40.46,0,0,0-6.61,5.09c-4.9.93-9.49-2.88-9.43-3.27-2.83,7.84-19.1,8.06-21.14,4.9a1.38,1.38,0,0,1-.2-.67c1.54-10.56,17.22-17,26.41-19.91,0,0,0,0,0-.06,6.16-8.82,11.53-15.82,15.31-20.69,9.24-11.82,13.5-16,17.42-25.26.81-1.9,1.9-5.18,3.86-11.34v0c.26-.79.51-1.6.79-2.47,2.74-8.62,4.9-15.76,6.35-20.74h0c2.07-.7,14.51-4.65,22.77,2a15.2,15.2,0,0,1,2.4,2.41,20.14,20.14,0,0,1,3.5,6.72Z"/>
      <path class="cls-6" d="M199,165.93c0,.14-.08.28-.11.42"/>
      <path class="cls-10" d="M190.54,194c.1,2.14.22,4.28.38,6.42s.35,4.28.69,6.4c-.43-2.11-.69-4.24-.94-6.37s-.44-4.28-.62-6.41Z"/>
      <path class="cls-13" d="M302.18,146.3c.34-.61.66-1.22.94-1.86a5.43,5.43,0,0,0,.35-1,1.25,1.25,0,0,0,0-.51.38.38,0,0,0-.35-.3,4.13,4.13,0,0,0-1.93.69l-.45.26-.23.13-.11.07-.06,0s-.08,0-.08,0c.19-.3.35-.6.51-.91A11.73,11.73,0,0,0,302.1,139a3.51,3.51,0,0,0-.26-2,2.63,2.63,0,0,0-1.53-1.26h0a10.06,10.06,0,0,0-2,.21,13.93,13.93,0,0,0-1.93.47,17.66,17.66,0,0,0-3.61,1.67h0a32,32,0,0,0-7.36,6.43,65.47,65.47,0,0,0-5.81,7.92c-1.73,2.77-3.39,5.61-4.92,8.51a53.21,53.21,0,0,0-3.87,9l-.05.17h-.17l-2.45.07v-.5l2.43,0-.22.17a53.55,53.55,0,0,1,4-9c1.56-2.9,3.24-5.73,5-8.5a64,64,0,0,1,5.9-7.91,32,32,0,0,1,7.46-6.42l0,0h0l0,0a17.91,17.91,0,0,1,3.65-1.65,13.49,13.49,0,0,1,1.95-.47,9.61,9.61,0,0,1,2-.19h0a2.76,2.76,0,0,1,1.59,1.33,3.74,3.74,0,0,1,.26,2.06,12.08,12.08,0,0,1-1.33,3.94,10.19,10.19,0,0,1-.52.91c.21-.15.57-.34.86-.51a4.15,4.15,0,0,1,2-.68.39.39,0,0,1,.37.33,1.31,1.31,0,0,1,0,.52,5.72,5.72,0,0,1-.35,1C302.85,145.08,302.52,145.7,302.18,146.3Z"/>
      <path class="cls-13" d="M236.42,152.53a32.62,32.62,0,0,0,1-4.56,30.46,30.46,0,0,0,.24-4.68c-.08-3.12-.53-6.28-.14-9.43a22.34,22.34,0,0,1,3.07-8.89,32.11,32.11,0,0,1,6-7.2,31.69,31.69,0,0,0-5.94,7.27,22.11,22.11,0,0,0-2.93,8.85c-.35,3.12.15,6.24.26,9.39a30,30,0,0,1-.18,4.74,32,32,0,0,1-1,4.65Z"/>
      <path class="cls-9" d="M264.13,51.49a34.58,34.58,0,0,0-4.74,1.43,6.71,6.71,0,0,0-2.06,1.21,1.14,1.14,0,0,0-.38.92,1.47,1.47,0,0,0,.58.86,11,11,0,0,0,9.32,1h0a11.14,11.14,0,0,0,1.92-1.84,10.31,10.31,0,0,1-1.77,2h0a9,9,0,0,1-4.94.79,13.06,13.06,0,0,1-2.48-.46,6.63,6.63,0,0,1-2.31-1.13,1.94,1.94,0,0,1-.73-1.17,1.61,1.61,0,0,1,.53-1.29,6.25,6.25,0,0,1,2.24-1.23A24.16,24.16,0,0,1,264.13,51.49Z"/>
      <path class="cls-7" d="M268.16,169.88c-2.72,5.54-6.55,13.16-11.37,22-.36.67-3.83,7.08-8,14.42-3.11,5.43-6.59,11.34-9.44,15.79-7,10.84-20,27.89-44,46.59v0a12.14,12.14,0,0,0-.08,2.44,14.31,14.31,0,0,0,.3,2.66,32.82,32.82,0,0,1,.12,4.28c-.31,6.3-2.8,17.39-16.13,23.07-.37.14-.7.31-1.07.45,0,0-.08,0-.11.06h0a39.5,39.5,0,0,1-10.86,2.69h0a30.43,30.43,0,0,1-11.48-1h0a18.32,18.32,0,0,1-5.09-2.27c-.34-.22-.53-.39-.53-.47,22.62-9.08,18.25-27.67,16.82-27.28-4.62,4.34-14.75,7.12-16,4.15a42,42,0,0,1,8.12-10.56,41.65,41.65,0,0,1,13.24-8.43,41.45,41.45,0,0,1,11.23-2.71l0,0a101.37,101.37,0,0,0,14-17.58c2.94-4.62,4.37-7.73,7.64-14.06,1.24-2.38,2.38-4.48,3.39-6.38a1,1,0,0,0,.14-.23,159.8,159.8,0,0,0,9.94-17.5,221.26,221.26,0,0,0,10.05-20.77c2-4.82,4.15-10.17,6.19-16.1A74.39,74.39,0,0,0,246,167.05,78,78,0,0,0,268.16,169.88Z"/>
      <path class="cls-7" d="M183.77,255.78l-.22.22a1.44,1.44,0,0,1,.19-.22Z"/>
      <path class="cls-10" d="M247.29,196.61c.1.82.33,1.65.39,2.5a12.28,12.28,0,0,1,0,2.57,12.58,12.58,0,0,1-1.66,4.88,15.46,15.46,0,0,1-3.39,3.86,23,23,0,0,1-2.08,1.47c-.75.4-1.5.79-2.26,1.14.65-.54,1.33-1,2-1.54s1.27-1.06,1.84-1.66a20,20,0,0,0,1.65-1.8,16.88,16.88,0,0,0,1.4-2,14.53,14.53,0,0,0,1.75-4.5A27.6,27.6,0,0,0,247.29,196.61Z"/>
      <path class="cls-13" d="M328.83,162.28a63.48,63.48,0,0,1,7.81,1.67A29.75,29.75,0,0,1,344,167l-.28.42a29,29,0,0,0-7.2-3.27A61.87,61.87,0,0,0,328.83,162.28Z"/>
      <path class="cls-13" d="M340.37,221.37a76.38,76.38,0,0,0,5-10.18,36.76,36.76,0,0,0,2.81-11,37.24,37.24,0,0,1-2.57,11.08,76.66,76.66,0,0,1-4.84,10.35Z"/>
      <path class="cls-13" d="M288,104.72a46.43,46.43,0,0,1,6.48,19.69,35.26,35.26,0,0,1,.05,5.24,30.93,30.93,0,0,1-4.66,14.81,31.88,31.88,0,0,0,2.16-4.72,30,30,0,0,0,1.41-5,35.67,35.67,0,0,0,.54-10.31,46.43,46.43,0,0,0-2-10.15,50.75,50.75,0,0,0-1.76-4.88A40.33,40.33,0,0,0,288,104.72Z"/>
      <path class="cls-13" d="M300.06,119.93a22.07,22.07,0,0,1,.69,5.62,25.67,25.67,0,0,1-.62,5.65,23,23,0,0,1-1.9,5.35,22.63,22.63,0,0,1-3.13,4.72,29.91,29.91,0,0,0,2.78-4.88c.41-.84.71-1.73,1-2.6s.56-1.78.73-2.7a28.79,28.79,0,0,0,.72-5.55A29.3,29.3,0,0,0,300.06,119.93Z"/>
      <path class="cls-6" d="M267.6,238.36c-.11-.14-.22-.25-.34-.39"/>
      <path class="cls-14" d="M298,287.5c-5.38-.75-4.12-7.05-4.12-7.05-.14-3.08-1.26-21-1.65-27a28.92,28.92,0,0,0,5.18-.08c-.48,6,3.11,24.11,3.36,25.28S303.36,288.26,298,287.5Z"/>
      <path class="cls-14" d="M293.89,280.45s-4.95-1.52-5.46-1.6-.11-20.36,0-25.93a22.52,22.52,0,0,0,3.84.56C292.63,259.47,293.75,277.37,293.89,280.45Z"/>
      <path class="cls-14" d="M379,214.28a20.47,20.47,0,0,1-6,6.25c-1.34.95-3.61,2.52-6.44,4.36-16.46,10.81-37.18,21.84-61.29,27.19a61.71,61.71,0,0,1-7.84,1.32,28.92,28.92,0,0,1-5.18.08,22.52,22.52,0,0,1-3.84-.56,23.78,23.78,0,0,1-4.06-1.29A27.43,27.43,0,0,1,281,250a52.3,52.3,0,0,1-13.44-11.62,53,53,0,0,0,6,4.26,61.93,61.93,0,0,0,40-.9,61.25,61.25,0,0,0,27-20.21A50.46,50.46,0,0,0,359,211.59,49.84,49.84,0,0,0,369.71,199c.79-.08,7.26-.84,10.11,2.8C382,204.54,381.9,209.55,379,214.28Z"/>
      <path class="cls-8" d="M383.6,260.15v0c2.13-7.87,4.09-15.26,2.78-25.09A54.62,54.62,0,0,0,379,214.28a20.47,20.47,0,0,1-6,6.25c-1.34.95-3.61,2.52-6.44,4.36-16.46,10.81-37.18,21.84-61.29,27.19a61.71,61.71,0,0,1-7.84,1.32c-.48,6,3.11,24.11,3.36,25.28s2.58,9.58-2.77,8.82-4.12-7.05-4.12-7.05-4.95-1.52-5.46-1.6-.11-20.36,0-25.93a23.78,23.78,0,0,1-4.06-1.29A27.43,27.43,0,0,1,281,250a59.35,59.35,0,0,0-11.26,43.21,50.3,50.3,0,0,0-3.58,11.25,48,48,0,0,0-.78,11.62l119.78-4.37A75.94,75.94,0,0,1,379.77,285C379.63,274.85,381.67,267.29,383.6,260.15Zm-61.18,40v0h0Z"/>
      <path class="cls-9" d="M371.68,276.25a21.52,21.52,0,0,1,1.85-1.72c.62-.58,1.22-1.16,1.8-1.77a37,37,0,0,0,3.22-3.88,38.78,38.78,0,0,0,2.68-4.28,47.16,47.16,0,0,0,2.14-4.55l.46.19a48.21,48.21,0,0,1-2.27,4.55,40.21,40.21,0,0,1-2.8,4.23,35.82,35.82,0,0,1-3.34,3.82c-.59.6-1.22,1.18-1.85,1.73A25.18,25.18,0,0,0,371.68,276.25Z"/>
      <path class="cls-9" d="M269.55,293.1a32.17,32.17,0,0,1,3.15-5.72,12.91,12.91,0,0,1,2.16-2.45,3.67,3.67,0,0,1,3-1.06,3.65,3.65,0,0,0-2.9,1.16,12.9,12.9,0,0,0-2,2.49,33.45,33.45,0,0,0-2.89,5.77Z"/>
      <path class="cls-9" d="M346.81,292.6a29.93,29.93,0,0,0,7.15-7.4,30.55,30.55,0,0,0,4.21-9.37l.17.08a38.91,38.91,0,0,1-7,8.34,33.28,33.28,0,0,1-4.39,3.26c-1.57.95-3.18,1.79-4.79,2.64l-9.69,5-9.64,5-.05,0,0,0-.05,0a.23.23,0,0,1-.13.05v-.38l-.07,0,0,0,.09-.06,0,0a1,1,0,0,1,.19-.12h0a154.11,154.11,0,0,0,12.54-9.46,98.36,98.36,0,0,0,11.23-10.94,59.13,59.13,0,0,0,8.46-13.13,75.82,75.82,0,0,0,5.19-14.78l.39.15a97.78,97.78,0,0,1-25.39,30c-2.58,2.05-5.3,3.92-8.06,5.71s-5.66,3.38-8.6,4.86a103.28,103.28,0,0,1-18.42,7.07A102.92,102.92,0,0,0,318.38,292c2.93-1.5,5.77-3.16,8.55-4.91s5.46-3.67,8-5.72a97.25,97.25,0,0,0,25.2-30l.77-1.42-.38,1.57a76.24,76.24,0,0,1-5.17,14.88,57.16,57.16,0,0,1-8.53,13.24,97.56,97.56,0,0,1-11.32,10.95,150.44,150.44,0,0,1-12.6,9.45h0l-.09,0-.05,0,0,0-.05,0a.23.23,0,0,1-.13.05v-.38l-.07,0,0,0,.09-.06,0,0c1.7-.93,3.26-1.69,4.9-2.54l4.86-2.47,9.7-5c1.61-.85,3.23-1.68,4.78-2.62a31.85,31.85,0,0,0,4.36-3.22,40.26,40.26,0,0,0,7-8.25l.34-.52-.16.6a30.84,30.84,0,0,1-4.32,9.37A29.7,29.7,0,0,1,346.81,292.6Z"/>
      <path class="cls-5" d="M150.37,300.58c0,.08.19.25.53.47a147.06,147.06,0,0,1-16.07,1.38h-.06a116,116,0,0,1-31.83-3.14,92.8,92.8,0,0,1-22.49-8.62c-60.87-33.13-70.31-127.35-55-189a194.48,194.48,0,0,1,16.3-42.93,26.71,26.71,0,0,1,9.63-7.3c2.94-1.29,9-3.28,10.25-1.4s-3.17,6.94-3.9,7.75a21.3,21.3,0,0,0,8.32,0A21.05,21.05,0,0,0,71.3,56c-1.66-2.55-2.19-5.3-1.1-6.58,1.54-1.8,5.83-.42,8.26,1.45A10.5,10.5,0,0,1,82,56.2C66.9,86.52,69.28,88.26,69.28,88.26c1,.75,2.58-1.21,10.53-3.87,6.27-2.07,8.65-2,10-.75a4.3,4.3,0,0,1,1.32,2.8c9.38-8,19.32-8.94,23-5,2.66,2.83,1.77,7.84,1.49,9.3-.84,1.23-1.82,2.85-1.46,3.19s1.54-1,3.17-1c2.88-.11,5.12,3.7,5.57,4.45a12.26,12.26,0,0,1,1.54,8c-.7,4.12-3.42,6.22-7.09,10s-6.49,8.29-9.88,12.29C96.19,141,89.55,164.36,88,170a154.8,154.8,0,0,0-5.77,37,113.32,113.32,0,0,0,6.27,23.66c5,13,9.21,24,19.77,31.19a40.73,40.73,0,0,0,20.46,6.72c2.05,3.16,18.32,2.94,21.14-4.9-.05.39,4.54,4.2,9.44,3.27a42.2,42.2,0,0,0-8.12,10.56c1.29,3,11.42.2,16-4.14C168.62,272.91,173,291.51,150.37,300.58Z"/>
      <path class="cls-15" d="M149.68,300.59c0,.08.2.25.53.47a146.85,146.85,0,0,1-16.07,1.38h0a116.07,116.07,0,0,1-31.84-3.14,92.86,92.86,0,0,1-22.48-8.62c-60.87-33.13-70.31-127.35-55-189A194.42,194.42,0,0,1,41.07,58.76a26.79,26.79,0,0,1,9.63-7.31c2.94-1.29,9-3.28,10.25-1.4S57.79,57,57.06,57.8a21.25,21.25,0,0,0,8.31,0A20.66,20.66,0,0,0,70.61,56c-1.65-2.55-2.18-5.3-1.09-6.58,1.54-1.8,5.82-.42,8.26,1.45a10.47,10.47,0,0,1,3.55,5.38C66.21,86.53,68.6,88.27,68.6,88.27c1,.75,2.57-1.21,10.52-3.87,6.27-2.07,8.65-2,10-.75a4.34,4.34,0,0,1,1.31,2.8c9.38-8,19.32-8.93,23-5,2.66,2.83,1.76,7.84,1.48,9.3-.84,1.23-1.82,2.86-1.45,3.19s1.54-1,3.16-1c2.88-.11,5.12,3.7,5.57,4.45a12.2,12.2,0,0,1,1.54,8c-.7,4.12-3.41,6.22-7.08,10s-6.5,8.29-9.89,12.29C95.5,141,88.87,164.37,87.27,170a154.8,154.8,0,0,0-5.77,37,114,114,0,0,0,6.27,23.66c5,13,9.22,24,19.77,31.19A40.77,40.77,0,0,0,128,268.53"/>
      <path class="cls-6" d="M151.12,301l-.22,0"/>
      <path class="cls-16" d="M58.2,58C56,63.19,54.12,68.53,52.39,73.9s-3.24,10.84-4.53,16.35A163,163,0,0,0,45,107a104.41,104.41,0,0,0-.45,17,103.52,103.52,0,0,1,.2-17,164.42,164.42,0,0,1,2.66-16.8q1.83-8.31,4.3-16.46c1.66-5.43,3.49-10.79,5.61-16.08Z"/>
      <path class="cls-16" d="M71.7,56.25a109.86,109.86,0,0,0-6.82,11.29,126.77,126.77,0,0,0-5.63,12c-.88,2-1.6,4.11-2.39,6.17s-1.44,4.18-2,6.31a115.66,115.66,0,0,0-3,12.91,117.47,117.47,0,0,1,2.76-13c.53-2.15,1.26-4.24,1.9-6.36s1.43-4.19,2.27-6.24a128.94,128.94,0,0,1,5.43-12.13,112.27,112.27,0,0,1,6.68-11.52Z"/>
      <path class="cls-16" d="M69.73,88.5a156.3,156.3,0,0,0-17.79,65.68,169.17,169.17,0,0,0,.18,17.15,171.13,171.13,0,0,0,2.07,17,158.27,158.27,0,0,0,9.59,32.93A157.83,157.83,0,0,1,54,188.41a165.57,165.57,0,0,1-2.2-17,170.36,170.36,0,0,1-.31-17.21A157.22,157.22,0,0,1,68.84,88Z"/>
      <path class="cls-16" d="M91.51,86.76a92.48,92.48,0,0,0-8,12,120,120,0,0,0-11.14,26.63,121.62,121.62,0,0,0-3.1,14.14,122.4,122.4,0,0,1,2.86-14.21A120.67,120.67,0,0,1,82.88,98.38a93.74,93.74,0,0,1,7.86-12.26Z"/>
      <path class="cls-16" d="M114.53,94.32a88.21,88.21,0,0,0-9.34,10.51,99,99,0,0,0-7.75,11.79c-1.2,2-2.2,4.17-3.26,6.27l-1.4,3.25-.7,1.62-.6,1.66a83.43,83.43,0,0,0-3.78,13.63,82.92,82.92,0,0,1,3.55-13.71l.57-1.68.67-1.64,1.35-3.28c1-2.13,2-4.3,3.16-6.36a100.6,100.6,0,0,1,7.59-12,89.59,89.59,0,0,1,9.27-10.8Z"/>
      <path class="cls-16" d="M69.29,126.24a203.73,203.73,0,0,0-2.41,24.12,152.31,152.31,0,0,0,.8,24.17c.49,4,1,8,1.8,12s1.67,7.9,2.76,11.78C74.53,206,77.33,213.65,82.56,220l0-.08,3.51,3.7-3.67-3.55,0-.07c0,.06,0,0,0,0l-.07-.07-.13-.14-.25-.29-.49-.58c-.32-.39-.63-.79-.94-1.2-.61-.81-1.19-1.65-1.74-2.51a60.18,60.18,0,0,1-2.92-5.35,91,91,0,0,1-4.34-11.38,144,144,0,0,1-4.72-23.87,117.64,117.64,0,0,1-.8-12.16c-.08-4.05,0-8.11.24-12.16A162.56,162.56,0,0,1,69.29,126.24Z"/>
      <path class="cls-16" d="M55.59,193.11a126,126,0,0,0,14.94,22.43,123.94,123.94,0,0,0,19.35,18.69l-.62.78a125,125,0,0,1-19.12-19.15A126.79,126.79,0,0,1,55.59,193.11Z"/>
      <path class="cls-16" d="M65.48,217.67a80.73,80.73,0,0,0,29.73,29.48l-.5.86a81.29,81.29,0,0,1-29.23-30.34Z"/>
      <path class="cls-16" d="M80.1,246.53a40.6,40.6,0,0,0,11,7.66,40,40,0,0,0,12.81,3.63l-.13,1a40.62,40.62,0,0,1-12.91-4.17A41.11,41.11,0,0,1,80.1,246.53Z"/>
      <path class="cls-16" d="M65.48,223c1.9,4.69,4,9.29,6.21,13.84s4.56,9,7.1,13.4c1.24,2.2,2.61,4.32,3.94,6.47s2.79,4.2,4.34,6.19a54.9,54.9,0,0,0,10.34,10.85l-.59.81a55.6,55.6,0,0,1-10.35-11.22c-1.53-2-2.88-4.18-4.27-6.3s-2.64-4.33-3.84-6.56c-2.48-4.42-4.76-8.94-6.9-13.53S67.3,227.72,65.48,223Z"/>
      <path class="cls-16" d="M153.07,273.34c-5.63.47-11.17.62-16.77.69s-11.16,0-16.74-.33-11.14-.74-16.66-1.53a116.85,116.85,0,0,1-16.36-3.44,117.15,117.15,0,0,0,16.39,3.19c5.53.71,11.09,1.05,16.66,1.28s11.13.21,16.7.08,11.16-.39,16.64-.93Z"/>
      <path class="cls-16" d="M158.38,283a30.46,30.46,0,0,1-5.31,7.21,44.4,44.4,0,0,1-6.93,5.74c-1.28.77-2.53,1.62-3.89,2.28-.67.34-1.32.72-2,1l-2.06.91a20.73,20.73,0,0,1-2.1.82l-2.13.77c-1.44.45-2.9.83-4.35,1.25l-.22-1c1.43-.37,2.88-.7,4.31-1.11l2.11-.69a19.31,19.31,0,0,0,2.09-.76l2.07-.84c.68-.28,1.34-.64,2-1,1.35-.61,2.61-1.41,3.9-2.14a43.42,43.42,0,0,0,7-5.5A30.16,30.16,0,0,0,158.38,283Z"/>
      <path class="cls-16" d="M137.76,286a19.53,19.53,0,0,1-4,4.2,29.9,29.9,0,0,1-4.81,3.22A39.68,39.68,0,0,1,118,297.29a59,59,0,0,1-11.56,1.13c-1.94-.05-3.88-.15-5.82-.24l-5.78-.66.16-1,5.7.78c1.91.13,3.83.27,5.75.36A57.9,57.9,0,0,0,118,296.8a39.34,39.34,0,0,0,10.91-3.57,31.2,31.2,0,0,0,4.86-3.09A19.92,19.92,0,0,0,137.76,286Z"/>
      <path class="cls-16" d="M128.5,284.09a28.4,28.4,0,0,1-5.74,3.1,51.21,51.21,0,0,1-6.18,2.13,69.46,69.46,0,0,1-12.9,2.12c-1.09.06-2.18.15-3.27.2l-3.27,0H95.5l-1.64-.08-3.27-.15c-2.18-.16-4.35-.42-6.52-.63l-6.48-1,.19-1,6.41,1.12c2.15.25,4.3.55,6.46.75l3.24.22,1.63.11,1.62,0,3.26,0c1.08,0,2.16-.09,3.25-.13a68.29,68.29,0,0,0,12.87-1.86,52,52,0,0,0,6.19-2A28.56,28.56,0,0,0,128.5,284.09Z"/>
      <path class="cls-16" d="M75.64,253.55a78.33,78.33,0,0,1-11.33-7.72,82.81,82.81,0,0,1-18.07-20.59A78.34,78.34,0,0,1,40,213c1,2,2.1,4,3.26,6s2.32,3.91,3.59,5.8,2.57,3.74,4,5.55,2.83,3.55,4.33,5.25a96.1,96.1,0,0,0,9.64,9.61c1.7,1.5,3.47,2.94,5.28,4.31S73.76,252.26,75.64,253.55Z"/>
      <path class="cls-16" d="M70.47,241.8c-3.64-3.57-7.1-7.33-10.44-11.2s-6.49-7.88-9.58-11.95-6-8.31-8.69-12.62-5.34-8.71-7.72-13.22c1.38,2.14,2.73,4.31,4.14,6.43s2.79,4.27,4.23,6.37c2.86,4.2,5.78,8.38,8.84,12.44s6.16,8.1,9.37,12.06q2.4,3,4.88,5.88C67.13,238,68.81,239.87,70.47,241.8Z"/>
      <path class="cls-16" d="M57.52,221.3c-1.52-1.6-3-3.27-4.4-5s-2.76-3.46-4.07-5.24A112.9,112.9,0,0,1,36,188q-1.28-3.06-2.4-6.18c-.72-2.09-1.41-4.19-2-6.33,1.57,4.13,3.24,8.21,5.1,12.2s3.83,7.93,6,11.74,4.5,7.56,7,11.2S54.79,217.83,57.52,221.3Z"/>
      <path class="cls-6" d="M178.42,301.67h0l-.39-.22"/>
      <path class="cls-16" d="M208.74,282.2c3.59.39,6.38,2.66,8.47,5.22a28.18,28.18,0,0,1,4.56,8.78c.29.77.45,1.58.68,2.37s.48,1.58.6,2.4l.45,2.42a22.28,22.28,0,0,1,.37,2.43c.16,1.64.42,3.26.5,4.9l.23,4.91-.36-4.9c-.11-1.63-.41-3.25-.61-4.87a22.16,22.16,0,0,0-.44-2.41l-.51-2.4a24.24,24.24,0,0,0-.65-2.36c-.25-.78-.43-1.57-.73-2.33a27.72,27.72,0,0,0-4.66-8.46,15.32,15.32,0,0,0-3.57-3.16,9.68,9.68,0,0,0-4.34-1.54Z"/>
      <path class="cls-16" d="M201.68,311.93a3.52,3.52,0,0,1,.13-.43l.12-.25.23-.46.43-.92c.28-.61.56-1.23.81-1.86.51-1.25,1-2.53,1.35-3.82a37.16,37.16,0,0,0,1.52-8,29,29,0,0,0-.47-8.1l-.44-2-.65-1.93c-.12-.32-.21-.65-.34-1l-.43-.92-.87-1.86.92,1.83.47.92c.13.31.24.63.36.95l.72,1.93.51,2a29.59,29.59,0,0,1,.72,8.18,38.78,38.78,0,0,1-1.29,8.15c-.37,1.32-.78,2.64-1.27,3.93-.23.65-.5,1.29-.76,1.92l-.41.95-.21.47-.1.21s0,0,0,.05Z"/>
      <path class="cls-17" d="M210.2,290.86c-.46-.89-.84-1.8-1.23-2.7s-.77-1.8-1.09-2.76a10.06,10.06,0,0,1,1.55,2.57A9.88,9.88,0,0,1,210.2,290.86Z"/>
      <path class="cls-18" d="M211.38,316.06h-4c1.4-3,6.3-13.8,2.85-25.2C212.81,296.55,214,304.61,211.38,316.06Z"/>
      <path class="cls-15" d="M207.82,316.06H193.71a45.61,45.61,0,0,0-14.81-14.39s.08,0,.11-.06l1.06-.44c13.33-5.69,15.82-16.78,16.13-23.08a23.39,23.39,0,0,1,8.51,4.76,22.6,22.6,0,0,1,6,8C214.12,302.26,209.22,313.07,207.82,316.06Z"/>
      <path class="cls-15" d="M232.66,311.05v5H211.38c2.57-11.45,1.43-19.51-1.18-25.2a22.58,22.58,0,0,0-6-8,23.55,23.55,0,0,0-8.51-4.76,32.82,32.82,0,0,0-.12-4.28,14.31,14.31,0,0,1-.3-2.66C201.47,271,226.22,272.72,232.66,311.05Z"/>
      <path class="cls-7" d="M183.77,255.78l-.22.22a1.44,1.44,0,0,1,.19-.22Z"/>
      <path class="cls-10" d="M182,293.41a17,17,0,0,1-3.12,4,23.19,23.19,0,0,1-4,3.11,27,27,0,0,1-4.57,2.19c-.78.31-1.61.51-2.41.75s-1.65.36-2.47.52a44.87,44.87,0,0,0,4.74-1.63,29.52,29.52,0,0,0,4.45-2.26,26.17,26.17,0,0,0,4-3A22.72,22.72,0,0,0,182,293.41Z"/>
      <path class="cls-10" d="M174.72,291.16a21.87,21.87,0,0,1-3.86,4.82,29.55,29.55,0,0,1-4.9,3.79,33,33,0,0,1-5.59,2.69c-1,.39-2,.63-2.94.94s-2,.45-3,.65a51,51,0,0,0,5.82-1.95,35,35,0,0,0,5.47-2.76,32.08,32.08,0,0,0,4.9-3.64A27.76,27.76,0,0,0,174.72,291.16Z"/>
      <path class="cls-13" d="M236.49,152.54c1.81-1,3.65-2,5.51-2.86s3.76-1.72,5.7-2.45a48.64,48.64,0,0,1,5.89-1.89,27.05,27.05,0,0,1,6.12-.87,26.71,26.71,0,0,0-6.08,1,49.62,49.62,0,0,0-5.84,2c-1.91.77-3.78,1.64-5.62,2.56s-3.66,1.89-5.42,2.95Z"/>
      <path class="cls-19" d="M369.71,199A49.84,49.84,0,0,1,359,211.59a50.46,50.46,0,0,1-18.42,9.92,61.25,61.25,0,0,1-27,20.21,61.93,61.93,0,0,1-40,.9,53,53,0,0,1-6-4.26,52.08,52.08,0,0,1-7.48-7.42,54.05,54.05,0,0,1-11.33-24.61c4.17-7.34,7.64-13.75,8-14.42,4.82-8.87,8.65-16.49,11.37-22A78,78,0,0,1,246,167.05a74.39,74.39,0,0,1-10.92-3.92c-1-.45-2-.93-2.94-1.37a34.52,34.52,0,0,0,2.75-4.71,27,27,0,0,0,1.73-4.45,53.5,53.5,0,0,1-3-12.49v0a41.36,41.36,0,0,1,.56-12.62c4.43-21.9,25.85-33,34.55-47.41a152.93,152.93,0,0,1,75.1,87.19,40.66,40.66,0,0,1,18.31,13.61A40.16,40.16,0,0,1,369.71,199Z"/>
      <path class="cls-8" d="M268.8,80.05c-8.7,14.42-30.12,25.51-34.55,47.41a41.36,41.36,0,0,0-.56,12.62v0a53.5,53.5,0,0,0,3,12.49,27,27,0,0,1-1.73,4.45,34.52,34.52,0,0,1-2.75,4.71c.93.44,1.91.92,2.94,1.37-2,5.93-4.14,11.28-6.19,16.1-.47-.7-.86-1.32-1-1.54l-.06-.11a20.58,20.58,0,0,0-3.53-6.78c-1.06-5-.42-35.08,1.88-46.51,1.71-8.4,8.82-19.21,12.71-25.31a0,0,0,0,0,0,0c2.49-2.46,4.37-4.81,5-6.75a6.61,6.61,0,0,0,.33-1.12c4.68-7.28,8.21-20.66,9.35-25.48a8,8,0,0,0,2-5.37c.06-4.42-1.73-7.08-4.14-8.32,0,0-.09,0-.11,0,.05-.28.11-.53.14-.81a5.54,5.54,0,0,0,.05-.56v-.17a7,7,0,0,0-.28-2.24.17.17,0,0,1,0-.11,9.61,9.61,0,0,0-.42-1c-.08-.17-.19-.34-.28-.51a3.48,3.48,0,0,0-.27-.44.71.71,0,0,1-.14-.23c-.17-.22-.34-.42-.51-.61s-.11-.14-.17-.23c-.22-.28-.44-.5-.64-.73a4.85,4.85,0,0,1-.81-1v0A.39.39,0,0,1,248,43a4,4,0,0,0,.06-.56s0,0,.05,0a10.31,10.31,0,0,1,10.81-1.29c6.3,2.75,13.92,8.24,9.83,13.92a25.22,25.22,0,0,1,3.69,11.23A23.16,23.16,0,0,1,268.8,80.05Z"/>
      <path class="cls-8" d="M226.22,124.29c-2.3,11.43-2.94,41.47-1.88,46.51a17,17,0,0,0-2.43-2.44,141.42,141.42,0,0,1-3.9-24.08,139.8,139.8,0,0,1,1.18-31A85.8,85.8,0,0,0,238.93,99C235,105.08,227.93,115.89,226.22,124.29Z"/>
      <path class="cls-9" d="M224.73,170.8a45.59,45.59,0,0,1,.36-8.09,51.06,51.06,0,0,1,1.77-7.93,60.41,60.41,0,0,1,2.93-7.57c.58-1.22,1.19-2.43,1.83-3.62s1.36-2.33,2.07-3.48a81,81,0,0,0-6.35,14.82,55.39,55.39,0,0,0-1.87,7.83A58.47,58.47,0,0,0,224.73,170.8Z"/>
      <path class="cls-20" d="M226.22,124.29c-2.3,11.43-2.94,41.47-1.88,46.51a17,17,0,0,0-2.43-2.44,141.42,141.42,0,0,1-3.9-24.08,139.8,139.8,0,0,1,1.18-31A85.8,85.8,0,0,0,238.93,99C235,105.08,227.93,115.89,226.22,124.29Z"/>
      <path class="cls-20" d="M383.6,260.15v0c2.13-7.87,4.09-15.26,2.78-25.09A54.62,54.62,0,0,0,379,214.28a20.47,20.47,0,0,1-6,6.25c-1.34.95-3.61,2.52-6.44,4.36-16.46,10.81-37.18,21.84-61.29,27.19a61.71,61.71,0,0,1-7.84,1.32c-.48,6,3.11,24.11,3.36,25.28s2.58,9.58-2.77,8.82-4.12-7.05-4.12-7.05-4.95-1.52-5.46-1.6-.11-20.36,0-25.93a23.78,23.78,0,0,1-4.06-1.29A27.43,27.43,0,0,1,281,250a59.35,59.35,0,0,0-11.26,43.21,50.3,50.3,0,0,0-3.58,11.25,48,48,0,0,0-.78,11.62l119.78-4.37A75.94,75.94,0,0,1,379.77,285C379.63,274.85,381.67,267.29,383.6,260.15Zm-61.18,40v0h0Z"/>
      <path class="cls-11" d="M201.27,61.75s3-12.62,17.42-3.13C218.69,58.62,208,54.93,201.27,61.75Z"/>
      <path class="cls-11" d="M180.24,75.47s-3.69-9.23,10.1-10.91C190.34,64.56,181.63,67.83,180.24,75.47Z"/>
      <path class="cls-21" d="M379,214.28a20.47,20.47,0,0,1-6,6.25c-1.34.95-3.61,2.52-6.44,4.36-16.46,10.81-37.18,21.84-61.29,27.19a61.71,61.71,0,0,1-7.84,1.32,28.92,28.92,0,0,1-5.18.08,22.52,22.52,0,0,1-3.84-.56,23.78,23.78,0,0,1-4.06-1.29A27.43,27.43,0,0,1,281,250a52.3,52.3,0,0,1-13.44-11.62,53,53,0,0,0,6,4.26,61.93,61.93,0,0,0,40-.9,61.25,61.25,0,0,0,27-20.21A50.46,50.46,0,0,0,359,211.59,49.84,49.84,0,0,0,369.71,199c.79-.08,7.26-.84,10.11,2.8C382,204.54,381.9,209.55,379,214.28Z"/>
      <path class="cls-22" d="M253.54,65.52c-3.8,4.4-11.78,4.62-12.74,4.29,3.48,2.38,5.6,13.41,3.39,21.19a6.61,6.61,0,0,1-.33,1.12c-.67,1.94-2.55,4.29-5,6.75a0,0,0,0,1,0,0,85.8,85.8,0,0,1-19.74,14.28c-2,1-3.64,1.54-4.45,1.4a18.37,18.37,0,0,1-3.87-1.29c-3.22-1.45-11.17-6.63-11.17-6.63l0,0s-1.65-1.12-2.46-1.71c-4.87-3.44-8.06-14-10.28-20a15.56,15.56,0,0,0-1.82-4,.71.71,0,0,0-.19-.23c-7.2-5.88-9.35-12.18-9.86-14.08,12-12,32-15.26,41.47-16.1h0c.64-.06,1.23-.11,1.79-.14h0"/>
      <path class="cls-20" d="M251.53,51.19c0,.22-.06.44-.11.67l0,0a8.87,8.87,0,0,0-9.24,1.29c-.11.08-.22.19-.34.28s-.05,0-.08.05c-.31-.19-16.83-3.83-20.1-3.89-.54,0-1.66,0-3.25.14h0c-.56,0-1.15.09-1.79.14h0C207,50.68,187,54,175.06,65.94l-.14.14s-4.84-4.14-4.42-7.14v-.06a2.83,2.83,0,0,1,1.9-2.12c0-.06-.14-.23-.39-.51-1-1.06-3.89-4.2-3.64-7.44a4.71,4.71,0,0,1,.9-2.58s0-.22-.09-.59c0-.53-.08-1.43-.08-2.49,0-.73,0-1.51,0-2.35.14-3.78.87-8.37,3.3-9.89,4.37-2.74,42.93-19.6,65.63-9.54,4.06,3,4.87,8.37,5,11.5v.34c0,.56,0,1,0,1.37s-.06.73-.06.73a6,6,0,0,1,5.16,5.82v.12c0,.16,0,.28,0,.44a6.33,6.33,0,0,1-.05.76v0A3.58,3.58,0,0,1,248,43c.09.9,3.36,2.77,3.61,6.58v.17A5,5,0,0,1,251.53,51.19Z"/>
      <g>
        <ellipse class="cls-23" cx="190.58" cy="78.3" rx="5.9" ry="7.29" transform="translate(-14.92 63.45) rotate(-18.2)"/>
        <ellipse class="cls-11" cx="192.42" cy="77.18" rx="3.72" ry="4.72" transform="translate(-14.48 63.88) rotate(-18.18)"/>
        <circle class="cls-24" cx="188.88" cy="74.86" r="1.19"/>
      </g>
      <g>
        <ellipse class="cls-23" cx="211.46" cy="69.18" rx="5.9" ry="7.29" transform="translate(-11.03 69.51) rotate(-18.2)"/>
        <ellipse class="cls-11" cx="213.3" cy="68.06" rx="3.72" ry="4.72" transform="translate(-10.59 69.94) rotate(-18.18)"/>
        <circle class="cls-24" cx="209.76" cy="65.74" r="1.19"/>
      </g>
      <path class="cls-19" d="M221.91,168.36c-8.35-6.44-20.89-2.63-23-1.93h0l-.28.11c-.62-2.61,1.29-8.65,1.4-9.46-.28-24.47,8.48-38.23,10.86-41.48a18.47,18.47,0,0,0,3.87,1.24c.81.13,2.41-.38,4.45-1.35A128.8,128.8,0,0,0,218,145.26,130.65,130.65,0,0,0,221.91,168.36Z"/>
      <path class="cls-20" d="M268.8,80.05c-8.7,14.42-30.12,25.51-34.55,47.41a41.36,41.36,0,0,0-.56,12.62v0a53.5,53.5,0,0,0,3,12.49,27,27,0,0,1-1.73,4.45,34.52,34.52,0,0,1-2.75,4.71c.93.44,1.91.92,2.94,1.37-2,5.93-4.14,11.28-6.19,16.1-.47-.7-.86-1.32-1-1.54l-.06-.11a20.58,20.58,0,0,0-3.53-6.78c-1.06-5-.42-35.08,1.88-46.51,1.71-8.4,8.82-19.21,12.71-25.31a0,0,0,0,0,0,0c2.49-2.46,4.37-4.81,5-6.75a6.61,6.61,0,0,0,.33-1.12c4.68-7.28,8.21-20.66,9.35-25.48a8,8,0,0,0,2-5.37c.06-4.42-1.73-7.08-4.14-8.32,0,0-.09,0-.11,0,.05-.28.11-.53.14-.81a5.54,5.54,0,0,0,.05-.56v-.17a7,7,0,0,0-.28-2.24.17.17,0,0,1,0-.11,9.61,9.61,0,0,0-.42-1c-.08-.17-.19-.34-.28-.51a3.48,3.48,0,0,0-.27-.44.71.71,0,0,1-.14-.23c-.17-.22-.34-.42-.51-.61s-.11-.14-.17-.23c-.22-.28-.44-.5-.64-.73a4.85,4.85,0,0,1-.81-1v0A.39.39,0,0,1,248,43a4,4,0,0,0,.06-.56s0,0,.05,0a10.31,10.31,0,0,1,10.81-1.29c6.3,2.75,13.92,8.24,9.83,13.92a25.22,25.22,0,0,1,3.69,11.23A23.16,23.16,0,0,1,268.8,80.05Z"/>
      <path class="cls-22" d="M227.37,179.32a163.14,163.14,0,0,1-9,22.1c-3,5.48-5.72,9.74-9.86,17.33a.9.9,0,0,1-.14.22A153.06,153.06,0,0,1,197,234.34a163.57,163.57,0,0,1-25,23.91l.5.93a41.19,41.19,0,0,0-13.24,8.43c-4.9.92-9.49-2.89-9.43-3.28-2.83,7.84-19.1,8.06-21.14,4.9a1.28,1.28,0,0,1-.2-.67c1.54-10.56,17.22-17,26.4-19.91a.07.07,0,0,1,0-.06c6.15-8.82,11.53-15.82,15.31-20.69,9.24-11.81,13.5-16,17.42-25.25.81-1.91,1.9-5.18,3.86-11.34v0c.25-.78.5-1.6.78-2.46,2.75-8.63,4.9-15.77,6.36-20.75h0c2.07-.7,14.5-4.65,22.76,2a15.69,15.69,0,0,1,2.41,2.41,20.32,20.32,0,0,1,3.5,6.72Z"/>
      <path class="cls-22" d="M268.16,169.88c-2.72,5.54-6.55,13.16-11.37,22-.36.67-3.83,7.08-8,14.42-3.11,5.43-6.59,11.34-9.44,15.79-7,10.84-20,27.89-44,46.59v0a12.14,12.14,0,0,0-.08,2.44,14.31,14.31,0,0,0,.3,2.66,32.82,32.82,0,0,1,.12,4.28c-.31,6.3-2.8,17.39-16.13,23.07-.37.14-.7.31-1.07.45,0,0-.08,0-.11.06h0a39.5,39.5,0,0,1-10.86,2.69h0a30.43,30.43,0,0,1-11.48-1h0a18.32,18.32,0,0,1-5.09-2.27c-.34-.22-.53-.39-.53-.47,22.62-9.08,18.25-27.67,16.82-27.28-4.62,4.34-14.75,7.12-16,4.15a42,42,0,0,1,8.12-10.56,41.65,41.65,0,0,1,13.24-8.43,41.45,41.45,0,0,1,11.23-2.71l0,0a101.37,101.37,0,0,0,14-17.58c2.94-4.62,4.37-7.73,7.64-14.06,1.24-2.38,2.38-4.48,3.39-6.38a1,1,0,0,0,.14-.23,159.8,159.8,0,0,0,9.94-17.5,221.26,221.26,0,0,0,10.05-20.77c2-4.82,4.15-10.17,6.19-16.1A74.39,74.39,0,0,0,246,167.05,78,78,0,0,0,268.16,169.88Z"/>
    </g>
  </g>
</svg>
