<svg id="Layer_1" data-name="Layer 1" xmlns="http://www.w3.org/2000/svg" width="357.55" height="238.14" viewBox="0 0 357.55 238.14">
  <defs>
    <style>
      .cls-1 {
        fill: #ff0;
      }

      .cls-2 {
        fill: #f9f9f9;
      }

      .cls-3 {
        fill: #892c2c;
      }

      .cls-4 {
        fill: #9e3838;
      }

      .cls-5 {
        fill: #f98282;
      }

      .cls-11, .cls-6, .cls-8, .cls-9 {
        fill: #fff;
      }

      .cls-6 {
        opacity: 0.23;
      }

      .cls-7 {
        fill: #dd4747;
        stroke: #933;
        stroke-miterlimit: 10;
      }

      .cls-8 {
        opacity: 0.42;
      }

      .cls-9 {
        opacity: 0.37;
      }

      .cls-10 {
        opacity: 0.45;
      }

      .cls-12 {
        fill: #420606;
        opacity: 0.25;
      }

      .cls-13 {
        fill: #3785a0;
      }
    </style>
  </defs>
  <g>
    <path class="cls-1" d="M192.92,15.86l-.24.05c-.93.22-1.86.45-2.84.71l-.31.08c-.88.23-1.75.47-2.62.72l-.53.15-2.4.72-.77.24-2.06.67-1.09.37-1.66.59-1.5.54-1.14.44c-.66.25-1.32.5-2,.77l-.52.21c-39.88,16.14-70.92,50.37-83.64,92-2.68.6-5.31,1.27-7.86,2-1.31.37-2.56.75-3.77,1.13-1.41.44-2.62.85-3.66,1.22-1.22.42-2.37.85-3.46,1.26a120.86,120.86,0,0,0-11.56,5c-.94.48-1.86,1-2.68,1.41-1.18.63-2.14,1.16-3,1.64a127.3,127.3,0,0,0-12.7,8.3c-.86.63-1.67,1.26-2.47,1.87l-.32.26c-2.81,2.21-5.55,4.54-8.35,7.14C22.3,151.92,17.14,159.5,14.49,168a53.74,53.74,0,0,0-2,9.82c-1.81,14,1.68,26,9.57,32.88,5.19,4.54,12,6.84,20.29,6.84h0c7.53,0,14.5-1.89,18.66-3,9.51-2.58,22.21-8.05,52.85-39.92,14.94,10.17,22.77,19.65,29.73,28.09,8.24,10,15.35,18.61,30.45,22.37a53,53,0,0,0,13,1.59c11.21,0,21.27-3.38,31-6.65a116,116,0,0,0,32-16.75c2.32.53,4.41,1,6.44,1.39a276.36,276.36,0,0,0,55,5.52c5.21,0,10.49-.15,15.71-.44a6.37,6.37,0,0,0,1.44.17,6.18,6.18,0,0,0,1.9-.3,6,6,0,0,0,3.65-3.4,147.84,147.84,0,0,0,10.26-39.07,143.93,143.93,0,0,0-15.5-85.35c-12.84-24.45-32.34-44.33-55.13-56.28a21.6,21.6,0,0,0-9.5-11.64,17.21,17.21,0,0,0-7.46-2.23l-.57,0h-.14l-.74,0h-.13a22.33,22.33,0,0,0-11.41,3.23,114.14,114.14,0,0,0-21.62-2.22h-.82l-1.78,0-1.15,0-1.39,0h-.19l-1.7.07-1.11.06-2.12.14-.8.07c-.82.07-1.64.14-2.46.23l-.52.05-2.67.32-.36,0-2.92.42-.16,0c-1,.15-2,.32-3,.51l-.11,0-3,.59,1.24,5.87-1.36-5.84C194.86,15.41,193.89,15.63,192.92,15.86Z"/>
    <g>
      <path class="cls-2" d="M268.33,29.55c0-3.07-2.81-8-7.08-10.48a11.53,11.53,0,0,0-2-.9c-5.17-1.79-11.35.44-14.06,3.06-.13,0-.25-.06-.38-.09h0C184.5,7.5,114,48.37,94.26,119.81c-3.94.79-7.63,1.69-11,2.65-1.25.36-2.45.73-3.61,1.1s-2.38.76-3.48,1.16-2.28.82-3.32,1.22a109.69,109.69,0,0,0-11,4.82c-.89.45-1.74.9-2.59,1.36s-1.88,1-2.79,1.56a118.93,118.93,0,0,0-12.14,8c-.91.66-1.78,1.35-2.62,2-3.11,2.46-5.79,4.82-8.06,6.93h0a43.85,43.85,0,0,0-13.61,20C17.17,180,15.83,197.28,26,206.15s26.25,4.5,33.45,2.55c9-2.45,21.39-7.89,53.52-41.89h0c38,24.12,36.89,46,62.52,52.41,14.87,3.7,27.64-.57,40.61-4.93a110.4,110.4,0,0,0,32.58-17.54c2.94.7,5.92,1.37,9,2a270.81,270.81,0,0,0,69.66,4.94h.06c-.05-.21-.11-.42-.16-.63l1.4.82C358,133.05,324.31,57.2,268.33,29.55Z"/>
      <g>
        <g>
          <path class="cls-3" d="M327.47,202.65h-.06a272.81,272.81,0,0,1-69.66-4.9A273,273,0,0,1,206.32,182a80.09,80.09,0,0,1,25.17-25.33A58.64,58.64,0,0,1,261,147.59C291,146.8,319.57,169.37,327.47,202.65Z"/>
          <path class="cls-3" d="M327.47,202.65h-.06a158.87,158.87,0,0,0-53.86-13.25,156.22,156.22,0,0,0-30.49,1.06c-6.12-12.2-10.15-24-11.57-33.81A58.64,58.64,0,0,1,261,147.59C291,146.8,319.57,169.37,327.47,202.65Z"/>
          <path class="cls-4" d="M138.62,137.37C132.87,144.23,124.17,154.3,113,166c-32.13,33.82-44.52,39.24-53.52,41.66-7.2,1.94-23.31,6.29-33.45-2.53s-8.79-26-5.85-35.38c6.55-20.92,31.16-35.45,62-37.64Z"/>
          <path class="cls-5" d="M328.71,202.84q-9.07-5.37-19.41-11c-11.76-6.34-24.74-12.79-38.89-19.06a561.42,561.42,0,0,0-177.18-46h0l-.71-.07C109.24,51.07,182.55,7.09,244.92,21.12h0c.76.18,1.5.35,2.25.54a103.15,103.15,0,0,1,11.4,3.55C320.35,48.28,359.77,128.36,328.71,202.84Z"/>
          <path class="cls-6" d="M244.92,21.12c-15.67.73-75.34,5.95-112.15,53.88a129.38,129.38,0,0,0-22.13,45.14,123.73,123.73,0,0,1-17.41,6.65h0l-.71-.07C109.24,51.07,182.55,7.09,244.92,21.12Z"/>
          <path class="cls-7" d="M270.79,173.62c-7.53,9.8-25.12,29.76-54.62,39.59-13,4.34-25.74,8.59-40.62,4.91C149.93,211.77,151.08,190,113,166c-20.13-12.67-34-16.08-38.72-17a97.2,97.2,0,0,0-40.5.88c2.27-2.1,5-4.45,8.06-6.9.84-.65,1.7-1.33,2.61-2a122,122,0,0,1,12.15-7.94c.91-.53,1.84-1,2.79-1.55s1.7-.9,2.59-1.35a109.52,109.52,0,0,1,11-4.79c1-.4,2.14-.81,3.32-1.22s2.26-.77,3.48-1.15,2.36-.74,3.61-1.09a131.88,131.88,0,0,1,29.81-5c12.39-.58,29.62,1,81.81,21.5,11.06,4.34,23.48,9.54,37,15.78l1.39.64c2.82,1.3,5.68,2.67,8.59,4.07.45.21.9.41,1.35.65,2.16,1,4.34,2.11,6.57,3.21l1.32.65q3.61,1.81,7.33,3.72c.42.22.85.44,1.29.65C263.43,169.69,267.1,171.62,270.79,173.62Z"/>
          <path class="cls-5" d="M328.71,202.84a562,562,0,0,0-58.3-30A137.07,137.07,0,0,0,258.59,25.21C320.35,48.28,359.77,128.36,328.71,202.84Z"/>
          <path class="cls-8" d="M261.29,32.7c0-.92-1.47-.72-1.43.2a6.16,6.16,0,0,0,.35,1.64c.19.57.6,1.06.73,1.64.18.91,1.61.72,1.42-.19C262.12,34.82,261.34,33.94,261.29,32.7Z"/>
          <path class="cls-8" d="M265.46,41.09c-.2-.41-.37-.83-.53-1.26-.33-.87-1.66-.31-1.33.55.16.43.33.85.53,1.26C264.53,42.48,265.86,41.93,265.46,41.09Z"/>
          <path class="cls-8" d="M268.53,47.47a7.63,7.63,0,0,1-.66-2.18c-.06-.92-1.49-.72-1.43.2A7,7,0,0,0,267,47.4c.1.26.18.52.28.77s.29.47.27.67c-.09.92,1.34,1.1,1.43.18A3.56,3.56,0,0,0,268.53,47.47Z"/>
          <path class="cls-8" d="M271.75,54.62a2.88,2.88,0,0,1-.15-.5,2,2,0,0,0-.29-.92,2.24,2.24,0,0,1-.32-.8c-.14-.44-.5-.62-.48-1.12,0-.92-1.39-1.11-1.43-.18a2.4,2.4,0,0,0,.55,1.75c.23.84.62,1.57.85,2.44a.75.75,0,0,0,.62.61l.21,0C272.11,56.1,272.34,55,271.75,54.62Z"/>
          <path class="cls-8" d="M274.88,61.1c-.22-.3-.41-.63-.66-.91-.1-.12-.54-.42-.51-.58.17-.91-1.26-1.09-1.43-.18a1.51,1.51,0,0,0,.43,1.26c.36.42.69.83,1,1.28C274.28,62.72,275.43,61.84,274.88,61.1Z"/>
          <path class="cls-8" d="M277,67.92a5.71,5.71,0,0,1-.58-1.19,2.37,2.37,0,0,1-.34-1.25c0-.92-1.45-.72-1.43.2a3.31,3.31,0,0,0,.41,1.57,7.26,7.26,0,0,0,.8,1.54C276.51,69.47,277.66,68.6,277,67.92Z"/>
          <path class="cls-8" d="M279,73.87a2,2,0,0,1-.46-1.38c0-.92-1.44-1.11-1.43-.18a4.45,4.45,0,0,0,.14,1.41,2.73,2.73,0,0,0,.25.55c.06.09.43.47.42.57-.08.92,1.35,1.1,1.43.17A1.57,1.57,0,0,0,279,73.87Z"/>
          <path class="cls-8" d="M280.68,79.63c-.19-.9-1.62-.71-1.42.2s.85,1.73.81,2.6,1.38,1.1,1.43.17S280.9,80.65,280.68,79.63Z"/>
          <path class="cls-8" d="M282.65,89.71a11.89,11.89,0,0,1,0-1.79c0-.92-1.43-1.1-1.43-.18a17.37,17.37,0,0,0,0,1.91c.06.62.26,1.21.31,1.83.07.93,1.49.73,1.43-.19C282.89,90.75,282.73,90.24,282.65,89.71Z"/>
          <path class="cls-8" d="M281.85,96.82l0,3c0,.93,1.45.72,1.43-.19l-.05-3C283.26,95.69,281.83,95.9,281.85,96.82Z"/>
          <path class="cls-8" d="M283.69,105.59c.42-.45.18-1.38-.57-1.21l-.21.05a.74.74,0,0,0-.61.62c-.16.78,0,1.55-.06,2.32a15.56,15.56,0,0,0-.16,2.15c0,.92,1.43.72,1.42-.2,0-.71.15-1.36.21-2.06S283.65,106.14,283.69,105.59Z"/>
          <path class="cls-8" d="M282.42,114.41c0,.82-.34,1.67-.41,2.5a5.08,5.08,0,0,1-.12,1,2.39,2.39,0,0,0-.15,1c.06.93,1.49.73,1.42-.2,0-.26.21-.57.25-.83s0-.75.08-1.12a21.25,21.25,0,0,0,.36-2.19C283.84,113.67,282.41,113.48,282.42,114.41Z"/>
          <path class="cls-8" d="M282.06,123c0,.24-.23.58-.26.84-.05.47,0,.92-.09,1.4a13.43,13.43,0,0,0-.33,2.35c0,.93,1.46.72,1.43-.2a10.4,10.4,0,0,1,.25-1.21c0-.39.11-.77.16-1.16a11.64,11.64,0,0,1,0-1.18,3,3,0,0,0,.22-1C283.45,121.87,282,122.07,282.06,123Z"/>
          <path class="cls-8" d="M281.07,131.61l-.21,0a.75.75,0,0,0-.61.63c-.14.74-.41,1.45-.61,2.18a4.87,4.87,0,0,1-.74,1.77.72.72,0,0,0,1.13.88A5.48,5.48,0,0,0,281,135c.2-.71.43-1.42.61-2.14C282.09,132.48,281.85,131.43,281.07,131.61Z"/>
          <path class="cls-8" d="M278.63,141.24a5.15,5.15,0,0,0-.24.76,1.46,1.46,0,0,0,0,.3,1.65,1.65,0,0,0-.6,1.16,4.21,4.21,0,0,1-.19,1,2,2,0,0,0-.2,1c.07.92,1.5.72,1.43-.2,0-.18.23-.53.27-.73s0-.81.17-1.06.41-.31.5-.68.09-.65.21-1C280.28,140.92,279,140.37,278.63,141.24Z"/>
          <path class="cls-8" d="M275.58,149.77a5.75,5.75,0,0,0-.89,1.93,4.21,4.21,0,0,1-.57,1.91c-.6.7.54,1.58,1.14.88a3.58,3.58,0,0,0,.71-1.66,5.16,5.16,0,0,1,.75-2.18C277.24,149.89,276.1,149,275.58,149.77Z"/>
          <path class="cls-8" d="M272.89,157.43l-.21,0a.75.75,0,0,0-.62.63c-.18,1.18-1.1,2.26-1,3.46.08.93,1.51.73,1.43-.2,0-.46.39-1.05.55-1.48a8.16,8.16,0,0,0,.36-1.19C273.91,158.28,273.67,157.26,272.89,157.43Z"/>
          <path class="cls-8" d="M269.16,166.06a7.21,7.21,0,0,1-.88,2.14c-.59.71.55,1.59,1.14.88a8.55,8.55,0,0,0,1.08-2.47A.72.72,0,0,0,269.16,166.06Z"/>
          <path class="cls-8" d="M269.1,36.29a6.27,6.27,0,0,1-1.45-2.94c-.19-.9-1.61-.71-1.42.2A7.63,7.63,0,0,0,268,37.16C268.58,37.83,269.73,37,269.1,36.29Z"/>
          <path class="cls-8" d="M271.73,41.32c-.23-.24-.25-.59-.39-.89s-.54-.61-.53-.85c0-.92-1.39-1.1-1.43-.18a2.16,2.16,0,0,0,.52,1.43c.28.43.31,1,.68,1.37C271.21,42.87,272.36,42,271.73,41.32Z"/>
          <path class="cls-8" d="M274.77,47c-.17-.66-.64-1.17-.8-1.82-.23-.88-1.66-.7-1.43.2a15.12,15.12,0,0,0,.73,1.64c.13.33.15.69.27,1s.34.51.33.69c0,.92,1.4,1.1,1.43.17A7.29,7.29,0,0,0,274.77,47Z"/>
          <path class="cls-8" d="M279.17,54.32c-.41-1-1.23-2-1.28-3.11,0-.92-1.47-.72-1.43.2.06,1.3.92,2.29,1.38,3.46A.72.72,0,0,0,279.17,54.32Z"/>
          <path class="cls-8" d="M281.27,59.54a3.3,3.3,0,0,0-.19-.49c-.11-.21-.26-.42-.38-.64.2-.47-.07-1.14-.71-1l-.22.05a.74.74,0,0,0-.62.81c.12.72.65,1.23.81,1.93a.77.77,0,0,0,.63.62l.21,0C281.6,61,281.83,59.93,281.27,59.54Z"/>
          <path class="cls-8" d="M283.09,65.86a3.14,3.14,0,0,0-.24-.79c-.09-.2-.43-.55-.41-.79.08-.92-1.35-1.1-1.43-.17a2.73,2.73,0,0,0,.52,1.52,4.67,4.67,0,0,1,.23.91,5.63,5.63,0,0,1,.33,1.11c0,.91,1.4,1.1,1.43.17A7.49,7.49,0,0,0,283.09,65.86Z"/>
          <path class="cls-8" d="M285.89,75a6.11,6.11,0,0,1-.51-2.61c0-.92-1.44-.72-1.42.2a6.82,6.82,0,0,0,.6,3C285,76.42,286.31,75.87,285.89,75Z"/>
          <path class="cls-8" d="M287.24,79.63c.32-.86-1-1.41-1.33-.55a6.26,6.26,0,0,0,0,2.92c.07.92,1.49.72,1.43-.2A5,5,0,0,1,287.24,79.63Z"/>
          <path class="cls-8" d="M289.11,89.31c-.26-.27-.25-.81-.34-1.16a11.42,11.42,0,0,1-.34-1.54.72.72,0,0,0-1.42.2c.08.67.29,1.31.43,2a2.69,2.69,0,0,0,.52,1.4C288.6,90.85,289.75,90,289.11,89.31Z"/>
          <path class="cls-8" d="M290.09,94c0-.92-1.46-.72-1.43.2a8.28,8.28,0,0,0,.25,1.49,6.1,6.1,0,0,1,.32,1.36c-.05.92,1.38,1.11,1.43.18C290.7,96.09,290.13,95.05,290.09,94Z"/>
          <path class="cls-8" d="M288.58,103.81l.05,2.54c0,.93,1.44.72,1.43-.2l-.05-2.54C290,102.69,288.57,102.89,288.58,103.81Z"/>
          <path class="cls-8" d="M288.48,112.46l0,2.79c0,.93,1.45.72,1.43-.2l0-2.79C289.89,111.33,288.47,111.54,288.48,112.46Z"/>
          <path class="cls-8" d="M288.66,119.2a6.8,6.8,0,0,0-.28,2.62c0,1.07-.15,2.1-.18,3.16s1.41,1.11,1.43.18.21-1.71.21-2.57a8.2,8.2,0,0,1,.15-2.84C290.3,118.88,289,118.32,288.66,119.2Z"/>
          <path class="cls-8" d="M286.76,129.52c0,.16-.15.41-.19.58a4.14,4.14,0,0,0,0,.93c0,.72-.21,1.41-.23,2.12,0,.92,1.41,1.11,1.43.18,0-.72.22-1.42.23-2.14a3.4,3.4,0,0,1,.09-1,2.27,2.27,0,0,0,.12-.86C288.13,128.39,286.7,128.6,286.76,129.52Z"/>
          <path class="cls-8" d="M285.89,137.73c-.13.8-.55,1.54-.75,2.33s-.55,1.49-.69,2.28,1.26,1.08,1.43.17c.28-1.57,1.19-3,1.44-4.6C287.46,137,286,136.82,285.89,137.73Z"/>
          <path class="cls-8" d="M283.28,148c-.07.48-.16,1-.26,1.44a2.3,2.3,0,0,1-.31,1c-.62.69.52,1.57,1.14.89a2.89,2.89,0,0,0,.53-1.39c.12-.59.24-1.18.33-1.78A.72.72,0,0,0,283.28,148Z"/>
          <path class="cls-8" d="M280.52,156a7.13,7.13,0,0,0-.85,2.1,4.78,4.78,0,0,0-.5,2c.1.92,1.53.72,1.43-.2-.05-.47.33-1,.46-1.5a5,5,0,0,1,.6-1.54C282.18,156.15,281,155.27,280.52,156Z"/>
          <path class="cls-8" d="M277.67,164.51c-.72.24-1,1.06-1.1,1.72a13.94,13.94,0,0,0-.54,2.69c0,.92,1.41,1.11,1.43.18a12.06,12.06,0,0,1,.44-2.15c.05-.24.1-1,.32-1.11C279.1,165.55,278.54,164.23,277.67,164.51Z"/>
          <path class="cls-8" d="M274.45,171.9a3.05,3.05,0,0,0-.62,2.08c0,.92,1.43.72,1.42-.2a1.47,1.47,0,0,1,.34-1A.72.72,0,0,0,274.45,171.9Z"/>
          <path class="cls-9" d="M259.84,167.82a96.4,96.4,0,0,1-28.06,25.5c-6.79,4.06-21.64,12.94-39,13.25a47.74,47.74,0,0,1-7-.36c-11-1.34-16.6-5.92-26.77-14.24-4.57-3.74-10.24-8.36-17.78-13.86-24-17.48-46.73-34-74-36.65A82.65,82.65,0,0,0,41.88,143c.84-.65,1.7-1.33,2.61-2a83.74,83.74,0,0,1,22.87-1C95,142.72,117.89,159.35,142.09,177c7.58,5.52,13.26,10.16,17.84,13.89,10.3,8.42,15.48,12.65,26,13.94,19.75,2.43,37.5-8.16,45.06-12.7a94.92,94.92,0,0,0,27.52-24.91C259,167.39,259.4,167.61,259.84,167.82Z"/>
          <g class="cls-10">
            <path class="cls-11" d="M251.22,163.45A92.66,92.66,0,0,1,220.41,187c-7.75,3.64-18,8.42-30,8.63a43.68,43.68,0,0,1-6.31-.3c-12-1.43-18.38-7.09-28-15.67a236.69,236.69,0,0,0-29.46-23.07c-14.3-9.45-26.64-17.61-44.37-21.47a96.1,96.1,0,0,0-25.63-2c.91-.53,1.84-1,2.79-1.55a96.16,96.16,0,0,1,23.15,2.15c18,3.92,30.45,12.15,44.86,21.67a238,238,0,0,1,29.62,23.21c9.73,8.7,15.6,13.93,27.19,15.31,14.42,1.7,26.64-4,35.56-8.21A91.73,91.73,0,0,0,249.9,162.8Z"/>
          </g>
          <g class="cls-10">
            <path class="cls-11" d="M243.33,159.59a104.45,104.45,0,0,1-12.88,11.84c-8.6,6.64-18.32,14.17-32.17,14.95-.52,0-1,.05-1.56.06a46.65,46.65,0,0,1-13.44-1.85c-15.24-4.15-24.81-12.49-34.94-21.32-2.87-2.5-5.82-5.08-9-7.62-8.77-7.09-29.29-23.69-54.47-28.77A81.82,81.82,0,0,0,73,125.37c1-.4,2.14-.81,3.32-1.22a86,86,0,0,1,8.88,1.31c25.52,5.16,46.24,21.92,55.08,29.06,3.19,2.57,6.14,5.15,9,7.66,10,8.73,19.44,17,34.37,21a44.09,44.09,0,0,0,14.53,1.74c13.41-.75,22.95-8.13,31.37-14.65A100.24,100.24,0,0,0,242,158.94C242.43,159.15,242.88,159.35,243.33,159.59Z"/>
          </g>
          <path class="cls-9" d="M233.39,154.87c-13.24,14-26.64,21.18-39.93,21.42h0c-15.48.27-26.37-8.78-39-19.27-11-9.14-23.44-19.49-41.85-26.6A117.5,117.5,0,0,0,79.78,123c1.16-.37,2.36-.74,3.61-1.09a117.63,117.63,0,0,1,29.71,7.17c18.64,7.2,31.19,17.62,42.27,26.83,12.91,10.73,23.1,19.2,38,18.94h0c12.77-.23,25.72-7.16,38.57-20.62Z"/>
          <path class="cls-12" d="M328.71,202.84q-9.07-5.37-19.41-11c2.32-6.3,30.6-86.36-14.83-139.61a106.11,106.11,0,0,0-35.88-27.06C320.35,48.28,359.77,128.36,328.71,202.84Z"/>
        </g>
        <path class="cls-13" d="M268.05,31.16c-1.86,3-10.52.17-13.48-.8a44.19,44.19,0,0,1-7.36-2.95c-1.93-1.08-3.38-2.36-3.29-3.79.21-3.3,8.7-7.77,15.46-5.46a11.89,11.89,0,0,1,2,.9C266.56,22,269.61,28.66,268.05,31.16Z"/>
        <path class="cls-12" d="M261.37,19.06a15,15,0,0,0-3.95-.27c-2.19.12-6.61.37-8.91,3.89a8.28,8.28,0,0,0-1.3,4.73c-1.93-1.08-3.38-2.36-3.29-3.79.21-3.3,8.7-7.77,15.46-5.46A11.89,11.89,0,0,1,261.37,19.06Z"/>
      </g>
    </g>
  </g>
</svg>
