<svg id="Layer_1" data-name="Layer 1" xmlns="http://www.w3.org/2000/svg" width="285.6" height="181.2" viewBox="0 0 285.6 181.2">
  <defs>
    <style>
      .cls-1 {
        fill: #ff0;
      }

      .cls-2 {
        fill: #559515;
      }

      .cls-3 {
        fill: #41740e;
      }

      .cls-4 {
        fill: #4f1b74;
      }

      .cls-5 {
        fill: #6b2d97;
      }

      .cls-6 {
        fill: #330b4f;
      }

      .cls-7 {
        fill: #30530e;
      }

      .cls-8 {
        fill: #b89bcd;
      }
    </style>
  </defs>
  <g>
    <path class="cls-1" d="M129.19,35.93c3.83-14.7,2.54-24.2,2.46-24.75a6,6,0,0,0-2.91-4.32,11.7,11.7,0,0,0-5.94-2,7.27,7.27,0,0,0-2.15.33,12.32,12.32,0,0,0-8.83,7,6,6,0,0,0-.21,4.49A36,36,0,0,1,113,33.74C108.16,28.85,100.41,25,88.12,25c-1.18,0-2.4,0-3.64.11C37,27.79,17.31,74.28,16.49,76.26A6,6,0,0,0,22,84.54a5.81,5.81,0,0,0,1-.08c.1,0,5.91-1,14.5-2.22-10.9,5.85-19.5,15.67-25.35,29.09a94.05,94.05,0,0,0-7.33,29.82,6,6,0,0,0,9.27,5.32S19.68,143,29.08,143a40,40,0,0,1,4.34.24c1.1.11,2.23.17,3.37.17a36.25,36.25,0,0,0,8.21-1c4.33,10.27,10.51,15.4,10.82,15.65a5.6,5.6,0,0,0,1,.69l.58.29a34.88,34.88,0,0,0,3.87,1.72,52.56,52.56,0,0,0,39.88-.55,52.08,52.08,0,0,0,8.48,7c3.75,2.86,13.81,9.12,30.21,9.12,13.15,0,27.61-4,43-11.73,9.36-4.74,16.76-10.3,22-16.56,18.91-5.26,30.33-19.78,31.53-40.19a6,6,0,0,0,.08-.74c0-.05,0-.57,0-1.42C262,105,275.86,96,276.46,95.58a6,6,0,0,0,2.65-4.48c.33-3.83-.39-6.61-2.15-8.29l-.24-.3a9.32,9.32,0,0,0,2.56-2.43,7.47,7.47,0,0,0,1.07-6.75,5.85,5.85,0,0,0-5.52-4l-.5,0c-.81-.1-2.81-1.57-4-2.94-.16-.17-.32-.34-.49-.5-26.45-24.18-46.89-29.25-59.38-29.25a44.35,44.35,0,0,0-4.62.23,20.24,20.24,0,0,1,3.39-2.65A6,6,0,0,0,209,23.53c-.68-.32-16.89-8-36.06-8C154.52,15.57,139.64,22.55,129.19,35.93ZM249.51,85.31c1.91.14,3.74.24,5.47.31a46.73,46.73,0,0,1-20.29,5c-.07-.19-.21-.58-.21-.59-.23-.76-.47-1.52-.72-2.26A119.24,119.24,0,0,0,249.51,85.31Z"/>
    <g>
      <g>
        <path class="cls-2" d="M10.86,141.44S14,77.83,69.6,82.11s8.56,37.45.71,41.38-21.64,15.33-36.26,13.79S10.86,141.44,10.86,141.44Z"/>
        <path class="cls-3" d="M10.86,141.44S36.54,93.05,81.49,88.29l.71,2.86S47.48,88.77,10.86,141.44Z"/>
      </g>
      <g>
        <path class="cls-2" d="M194.79,46.44s25.33-17.83,71,23.9c0,0,4.64,5.35,8.92,5,0,0,2.14,6.07-25.68,3.93,0,0-35.31,9.27-63.49-4.64S194.79,46.44,194.79,46.44Z"/>
        <path class="cls-3" d="M274.69,75.33S259.12,79,246.51,72.12s-43.28-20.21-58.26-16.64l5.47-3.81s25.09,3,32.7,7.49A236.91,236.91,0,0,0,247.58,70.1C249.48,70.82,259.59,77.12,274.69,75.33Z"/>
      </g>
      <g>
        <path class="cls-2" d="M206.4,29S148.94,1.49,126.31,52.5s28.91,25.31,36.08,20.26S186.16,61,191.74,47.38,206.4,29,206.4,29Z"/>
        <path class="cls-3" d="M206.4,29s-54.78-.35-80.29,37l2.17,2S142.66,36.2,206.4,29Z"/>
      </g>
      <g>
        <path class="cls-2" d="M22,78.54s79.54-13.55,90.6-2.85c0,0,16.4-47.08-27.83-44.58S22,78.54,22,78.54Z"/>
        <path class="cls-3" d="M25.6,75s77.76-63.85,87,.71C112.64,75.69,104.79,19.33,25.6,75Z"/>
      </g>
      <g>
        <g>
          <g>
            <path class="cls-4" d="M59.61,153.45s-25.68-20.93-4.28-66.58S111,53.1,115.25,54.53s44.71,16.17,20,62.77S77.21,162.48,59.61,153.45Z"/>
            <path class="cls-5" d="M59.61,153.45s-25.68-20.93-4.28-66.58S111,53.1,115.25,54.53,90.05,44.06,65.32,90.67,59.61,153.45,59.61,153.45Z"/>
            <path class="cls-6" d="M60.2,153.75s24.38-.3,45.78-46,9.27-53.26,9.27-53.26,46.19,14.56,20,62.77C102.65,177.23,60.2,153.75,60.2,153.75Z"/>
            <path class="cls-6" d="M108.12,52.7s1.27,8.41,14,4.8C122.15,57.5,114.22,53.26,108.12,52.7Z"/>
          </g>
          <g>
            <path class="cls-2" d="M111.92,54.77S124.41,35,117.27,14.7c0,0,2.74-6,8.44-2.66,0,0,2.7,18.39-10.93,44.23Z"/>
            <path class="cls-7" d="M113.94,55.85a209.16,209.16,0,0,0,7.13-19.67c1.2-3.89,4.21-15.6,1.71-22.71,0,0-2.77-4.76,2.93-1.43,0,0,2.7,18.39-10.93,44.23Z"/>
          </g>
          <path class="cls-8" d="M73.56,65.31S55,83.22,51.21,107.48,56.6,99.55,60.72,91,85.13,56.91,73.56,65.31Z"/>
        </g>
        <g>
          <g>
            <path class="cls-4" d="M117,91.43S125,59.26,175.37,59s54.34,35.81,54.89,40.29,4.54,47.32-48.17,44.94S116.41,111.2,117,91.43Z"/>
            <path class="cls-5" d="M117,91.43S125,59.26,175.37,59s54.34,35.81,54.89,40.29,1.51-30.42-56-33C116.88,63.66,116.41,111.2,117,91.43Z"/>
            <path class="cls-6" d="M117,91.43s-1.1,37.51,58.5,46.57c56.24,8.56,54.17-43.15,54.72-38.67s4.54,47.32-48.17,44.94S116.41,111.2,117,91.43Z"/>
            <path class="cls-6" d="M228.85,92.1s-7,4.75,1.68,14.74C230.53,106.84,231,97.86,228.85,92.1Z"/>
          </g>
          <g>
            <path class="cls-2" d="M228.62,96.43s23.18,2.82,38.5-12.33c0,0,6.57-.1,6,6.49,0,0-15.46,10.31-44.65,9.06Z"/>
            <path class="cls-7" d="M228.5,98.72s9.39-.32,20.83-2c4-.58,15.9-2.88,21.26-8.18,0,0,3.1-4.55,2.54,2,0,0-15.46,10.31-44.65,9.06Z"/>
          </g>
          <path class="cls-8" d="M192.53,64.38s-16.23-6.06-32-1.35,6.36,1,12.74,1S201,69,192.53,64.38Z"/>
        </g>
        <g>
          <g>
            <path class="cls-4" d="M97.53,145.21s-8.93-31.9,34.88-56.88,64.93,4.48,67.61,8.11,27.21,39-19.86,62.81S106.71,162.74,97.53,145.21Z"/>
            <path class="cls-5" d="M97.53,145.21s-8.93-31.9,34.88-56.88S200,96.44,200,96.44s-19.6-14.74-54.57-1C107.88,110.17,97.53,145.21,97.53,145.21Z"/>
            <path class="cls-6" d="M111.68,161.06s32.3,9.5,64-9.28C202.52,135.85,200,96.44,200,96.44s27.21,39-19.86,62.81S111.68,161.06,111.68,161.06Z"/>
            <path class="cls-6" d="M195.24,90.84s-3.81,7.59,8.7,12C203.94,102.84,199.9,94.81,195.24,90.84Z"/>
          </g>
          <path class="cls-8" d="M134.68,90.55s-16.36,5.71-25.5,19.44,5.52-3.32,10.44-7.38S144.1,88.68,134.68,90.55Z"/>
        </g>
      </g>
    </g>
  </g>
</svg>
