<svg id="Layer_1" data-name="Layer 1" xmlns="http://www.w3.org/2000/svg" width="294.77" height="467.68" viewBox="0 0 294.77 467.68">
  <defs>
    <style>
      .cls-1 {
        fill: #ff0;
      }

      .cls-2, .cls-9 {
        fill: #f9dad2;
      }

      .cls-15, .cls-2 {
        stroke: #755339;
      }

      .cls-13, .cls-15, .cls-2, .cls-3, .cls-4, .cls-6 {
        stroke-miterlimit: 10;
      }

      .cls-3 {
        fill: #fad2c7;
        stroke: #443222;
        stroke-width: 0.5px;
      }

      .cls-4 {
        fill: #e6ddc0;
        stroke: #9b8b5c;
      }

      .cls-5 {
        fill: #efbdb4;
      }

      .cls-10, .cls-6 {
        fill: #b8a0ca;
      }

      .cls-6 {
        stroke: #73459b;
      }

      .cls-7 {
        fill: #d67233;
      }

      .cls-8 {
        fill: #755339;
      }

      .cls-11 {
        fill: #73459b;
      }

      .cls-12 {
        fill: #fa9a3a;
      }

      .cls-13 {
        fill: none;
        stroke: #d67233;
      }

      .cls-14 {
        fill: #342517;
      }

      .cls-15, .cls-16 {
        fill: #a1c5ce;
      }

      .cls-17 {
        fill: #bc7e97;
      }

      .cls-18 {
        fill: #fff;
      }

      .cls-19 {
        fill: #381515;
      }

      .cls-20 {
        fill: #2b1c1c;
      }

      .cls-21 {
        fill: #b26b51;
      }
    </style>
  </defs>
  <g>
    <path class="cls-1" d="M217.21,216.69c19.92,0,39.8-17.14,53-28.48,3.22-2.78,6-5.18,8.07-6.69s7.83-5.74,6-11.41c-1.19-3.65-4.63-5.49-10.22-5.49q-.75,0-1.47,0a221.64,221.64,0,0,0-28.87-39.5C218.4,97.48,188.54,79,156.92,71.32a40,40,0,0,1,4.52-8,6,6,0,0,0-4.75-9.68h-.29c-4.58,0-13.07-3.64-20.45-7.72a13.17,13.17,0,0,0-4.39-9.9,5.6,5.6,0,0,0,.62-.83,10.62,10.62,0,0,0,1-8.45c-1.1-3.66-4-6.59-8.6-8.71a6.16,6.16,0,0,0-2.53-.55c-.3,0-1.41,0-2.85.15-7.13-5-16.88-7.47-29.05-7.47a95.76,95.76,0,0,0-19.17,2c-.22.05-.44.12-.65.19l-.13,0a11.81,11.81,0,0,0-2,.69A29.49,29.49,0,0,0,52,28a6.07,6.07,0,0,0-1.23,3.17A33.44,33.44,0,0,0,49.43,44,6.21,6.21,0,0,0,49.91,46,25.9,25.9,0,0,1,51,49.26,63.06,63.06,0,0,1,51.26,58c0,.17-.1.34-.16.5-5,3.59-7.39,7.66-7.19,12.15a12.87,12.87,0,0,0,4.31,8.7l-.24.39a10.94,10.94,0,0,0-.83,8.86c1.17,4.15,3.2,8.74,9.36,11.38.43.19.87.36,1.32.52l-.5.48c-6,.27-10.1,5.42-13.72,10a46.08,46.08,0,0,1-4.12,4.73c-4.37,4-5.13,10.2-4.77,15.47-14.38,16-29.36,37.66-23,53.45a6.16,6.16,0,0,0,.53,1,12.46,12.46,0,0,0,1.46,2.9c.07.12.13.25.2.38a9.65,9.65,0,0,0,8.87,5.89,11.66,11.66,0,0,0,1.31-.08c3.19-.35,17.53-4.05,29.44-10a5.67,5.67,0,0,0,1.6.22,5.9,5.9,0,0,0,2.06-.37L80.31,176C85,193.66,92.46,213,95.87,221.79l.49,1.25c-.28,1-1,2.64-1.41,3.71-1.8,4.38-3.5,8.52-1.27,12.23l1,1.73a5.59,5.59,0,0,0-.12.82c-1.88,5.49-5.33,15.79-6.93,21.7C76.14,287.09,58,329.55,64,350a2.65,2.65,0,0,0,.12.37c1,2.63,5.71,14.78,13.26,20.41,2.73,12.12,9.59,29.4,13.1,37.85a126.64,126.64,0,0,1-31.59,18.48,6,6,0,0,0-3.25,3.12,8.57,8.57,0,0,0,.58,8.07c1.84,2.85,5.1,4.3,9.67,4.3a36.1,36.1,0,0,0,6.93-.79c1.45-.29,3.34-.48,5.54-.69a102.89,102.89,0,0,0,23.6-4.6c20.82-3.1,23-6.8,24-8.59,2.35-4.09.8-9.73-6.93-25.14,0-.09-.09-.18-.13-.26,1.36-17.67,1.81-32,1.33-42.63l1.89-1.05a53,53,0,0,0-1,5.64,6,6,0,0,0,9.64,5.49l9.58-7.46a6,6,0,0,0,2-2.75c7.23,7.26,20.44,17.57,38.14,19,.87,2,1.73,4.11,2.59,6.14,3.7,8.79,7.23,17.16,9.67,22.64l-8.87,24.68c-2.87,2.58-8.38,8.44-8.06,15.17.11,2.39,1.52,10.16,14.88,10.16,7.55,0,26.82-3.55,29.69-12.34,1.79-5.49,3.46-16.83,5.25-35.68a14,14,0,0,0-6.68-13.88c-.16-3.24.09-7.35.36-11.95.56-9.56,1.26-21.37-.95-34.53a125.05,125.05,0,0,0,4-24.35,6,6,0,0,0-.78-3.28l-2.75-4.82-.68-34.06a6,6,0,0,0,2.78-5.6c-.13-1.51-2.95-33.07-9.45-60.84a32.83,32.83,0,0,0,5.73.5Z"/>
    <g>
      <g>
        <g>
          <g>
            <path class="cls-2" d="M200.61,403.22l-11.68,32.5s-7.44,5.86-7.18,11.36c.44,9.22,30.95,2.13,32.87-3.76s3.62-20,5-34.39c.74-7.74-5.91-8.53-7.11-10.68"/>
            <path class="cls-3" d="M192.48,441.06s-4.53,5.28-3.92,10.1"/>
            <path class="cls-3" d="M198,441.9s-3.49,4.13-2.88,9"/>
            <path class="cls-3" d="M202.48,442.79s-2.49,1.88-1.89,6.7"/>
            <path class="cls-3" d="M208,442.53s-1.45.73-.84,5.55"/>
          </g>
          <path class="cls-2" d="M201,410.92c-3.33-5.39-26.1-62.66-29.61-66.9,0,0,12.9-76.63,37.11-9,10.44,29.16,1.77,54.78,5.27,66.49,0,0,3.46,3.14,1.41,6.54"/>
        </g>
        <path class="cls-2" d="M97.92,410.8c3-4.16-11.28,11.67-36.82,21.85,0,0-2.63,5.86,10.53,3.23,5.82-1.16,14.75-.62,29-5.26,0,0,18.42-2.69,20.17-5.73s-8-21.06-8-21.26c4.46-56.34-1.68-60.73-1.68-60.73s-28.94,6.42-28.94,19S97.92,410.8,97.92,410.8Z"/>
        <g>
          <g>
            <path class="cls-4" d="M97.07,257.82s-34.47,66-27.32,90.46c0,0,6.17,16.92,14.16,19.18s38.59-15.79,38.59-15.79l12.28-85.08-33.15-5.26Z"/>
            <path class="cls-4" d="M93.19,352.62c9.65.95,27.83-16.22,28.56-42.36"/>
            <path class="cls-4" d="M93.37,331.43s25.68-13.61,33.48-38.59"/>
          </g>
          <g>
            <path class="cls-4" d="M140.42,273.35s-18.84,59.12.5,75.69c0,0,21.06,29.83,53.51,22.81,19.72-4.26,21.93-47.37,21.93-47.37l-3.51-6.14L212,274.48,173.41,258.1l-30.64,13.72Z"/>
            <path class="cls-4" d="M181.27,352.55s25.44,2.63,31.58-34.21"/>
            <path class="cls-4" d="M177.77,310.45s25.43,2.63,31.57-34.21"/>
            <path class="cls-4" d="M144.74,290s5,28.3,21.62,48.48"/>
            <path class="cls-4" d="M143.56,299.92s-2.64,28.95,14,49.12"/>
          </g>
          <g>
            <path class="cls-4" d="M146.19,278l-9.57,79.76-9.57,7.45s1.39-11.1,5-12.56c0,0-16.5.67-20-2.36,0,0,11.5-6.55,15-6.76,0,0-16.14-3.8-20-2.61l17.18-75.2"/>
            <path class="cls-4" d="M129.54,343.7s0-25.57.39-30.12"/>
            <path class="cls-4" d="M134.37,352.12S132.44,335,134,320.91"/>
          </g>
        </g>
      </g>
      <g>
        <path class="cls-2" d="M115.75,105.52s3.09,11.37,7.49,13.64c0,0,11.58,12.78-15.44,26.9,0,0-21.51-1.11-18.15-18.7,0,0,4.07-3.24,2.25-9.85C91.9,117.51,99.05,90.94,115.75,105.52Z"/>
        <path class="cls-5" d="M93.7,113.38l-1.86,14.13c22.53,7.93,30.37-7.61,30.37-7.61l-5-8.63"/>
      </g>
      <g>
        <path class="cls-2" d="M33.21,157.68S17.7,164.76,17,170.93c-.88,8,.51,12.71,1.55,14.15s1.33,4.06,4.82,3.68,27-6.59,37.71-16L50.57,147Z"/>
        <path class="cls-6" d="M90.93,165.72,55.07,178.93S45.88,162.76,45.6,148c0,0,12.43-9,40.94-20.89"/>
      </g>
      <path class="cls-2" d="M39.17,174.49c3.51-3.51,8.34-30.25,10.53-34.21,3-5.39.88-17.54-8.77-7-4.11,4.48-30.33,32.51-23.68,49.12"/>
      <path class="cls-7" d="M76,131.51c-7.89-6.14-18.42,0-25.43,12.28-7.22,12.63-14.91-3.51-8.77-5.27s7.25-14.37,8.77-20.17,24.61-25.5,24.61-25.5,29.29,15.93,35,23.74"/>
      <g>
        <path class="cls-2" d="M41.37,135.33s-2.63-10.78,2.19-15.23S52.74,107,57.8,107s9.74,2.94,10.45,7.6c1.62,10.79-5.07,5-4.52,5.52,1.76,1.76.13,7.63-2.63,6.14,0,0,1.73,6.49-3.51,5.27,0,0-.25,4.58-3,3.07A30.3,30.3,0,0,1,47.07,128"/>
        <path class="cls-8" d="M57.39,111.23a24.17,24.17,0,0,1,4.66,4.6,13.22,13.22,0,0,1,1.81,2.79,9.19,9.19,0,0,1,.8,3.22l-.1,0c-.58-1-1.05-1.89-1.6-2.8s-1-1.88-1.56-2.77a28.24,28.24,0,0,0-1.89-2.6,24.72,24.72,0,0,0-2.18-2.39Z"/>
        <path class="cls-8" d="M54.77,116.49a25.3,25.3,0,0,1,4.12,4.75A13.63,13.63,0,0,1,60.47,124a9.53,9.53,0,0,1,.68,3.12l-.09,0c-.58-.91-1-1.83-1.5-2.72s-.85-1.86-1.35-2.75-1-1.78-1.63-2.63a26.22,26.22,0,0,0-1.88-2.46Z"/>
        <path class="cls-8" d="M51.25,121.75A18.64,18.64,0,0,1,55.44,126,10.9,10.9,0,0,1,57,128.54a8.35,8.35,0,0,1,.64,3l-.09,0c-.56-.86-1-1.72-1.45-2.55s-.82-1.73-1.32-2.56A21.52,21.52,0,0,0,53.14,124a17.64,17.64,0,0,0-2-2.19Z"/>
      </g>
      <g>
        <path class="cls-9" d="M55.84,136.77l10.41-3s9.17-5.05,6.26-12.77-6.14,2.63-6.14,2.63-.47,6.4-3.74,7.15"/>
        <path class="cls-8" d="M55.83,136.72l10.35-3.2-.05,0a16.69,16.69,0,0,0,4.76-4.33,8.49,8.49,0,0,0,1.71-5.93l-.1-.77-.23-.75a8,8,0,0,0-.57-1.47c-.43-.9-1.17-1.88-1.77-1.62a2.45,2.45,0,0,0-1,.83,8.59,8.59,0,0,0-.83,1.31,19.64,19.64,0,0,0-1.3,2.93l0-.1a14.22,14.22,0,0,1-1.11,4.22,6.6,6.6,0,0,1-1.18,1.86,3.39,3.39,0,0,1-1.87,1.09l0-.1a3.32,3.32,0,0,0,1.62-1.23,6.84,6.84,0,0,0,.92-1.83,16.66,16.66,0,0,0,.79-4.07v0l0,0a19.11,19.11,0,0,1,1.23-3.14,8.86,8.86,0,0,1,.92-1.48,3.16,3.16,0,0,1,1.53-1.18,1.78,1.78,0,0,1,1.14.06,2.54,2.54,0,0,1,.83.62,5.6,5.6,0,0,1,.94,1.52,7.88,7.88,0,0,1,.57,1.63l.22.83.09.86a9.3,9.3,0,0,1-2,6.4A17.07,17.07,0,0,1,66.36,134h0l-10.46,2.84Z"/>
      </g>
      <g>
        <path class="cls-6" d="M83.47,128.44l6.58-3.07c7.89,33.33,33-6.16,33-6.16s.82-1.3,7-2c22.19-2.58,46,44.13,62.72,66.06,15.83,20.83,22.26,94.29,22.26,94.29S176,297.29,148.82,281.5c-30.56-17.74-56.14-13.16-56.14-13.16.39-4.23,8.77-28.3,8.77-28.3s0,.23-2.63-4.15c-1.34-2.24,4.59-11.24,3.52-14-4.4-11.43-20.18-50.9-20.18-71.08"/>
        <g>
          <path class="cls-10" d="M144.43,233.26S109,225.44,100.58,242"/>
          <path class="cls-11" d="M144.43,233.26c-2-.3-3.92-.56-5.88-.75s-3.93-.38-5.9-.48a78.6,78.6,0,0,0-11.79.13,39.05,39.05,0,0,0-11.42,2.51,17.8,17.8,0,0,0-8.86,7.36,14.66,14.66,0,0,1,3.51-4.8,20.69,20.69,0,0,1,5-3.26,37.14,37.14,0,0,1,11.63-2.8,69.88,69.88,0,0,1,11.93.1A74.86,74.86,0,0,1,144.43,233.26Z"/>
        </g>
        <g>
          <path class="cls-10" d="M148.82,202.56s-28.95,28.94-45.32,18.22"/>
          <path class="cls-11" d="M148.82,202.56a89.74,89.74,0,0,1-9.62,8.76,80.21,80.21,0,0,1-10.85,7.27,49.21,49.21,0,0,1-5.94,2.75,30.64,30.64,0,0,1-6.32,1.8,21.29,21.29,0,0,1-6.57.09,14.36,14.36,0,0,1-6-2.45,17.46,17.46,0,0,0,12.45,1.6,42.87,42.87,0,0,0,11.93-4.67,89.84,89.84,0,0,0,10.85-7c1.75-1.27,3.45-2.61,5.13-4S147.19,204,148.82,202.56Z"/>
        </g>
        <g>
          <path class="cls-10" d="M166.07,251.64s30-39.9,24.85-67.5"/>
          <path class="cls-11" d="M166.07,251.64q2.6-3.79,5-7.71c1.62-2.6,3.19-5.23,4.68-7.9a167.18,167.18,0,0,0,8.2-16.4,98.07,98.07,0,0,0,5.85-17.32,53.85,53.85,0,0,0,1.4-9,41.75,41.75,0,0,0-.28-9.14,44.82,44.82,0,0,1-.36,18.34A93.91,93.91,0,0,1,184.87,220a154,154,0,0,1-18.8,31.61Z"/>
        </g>
      </g>
      <path class="cls-12" d="M269.12,171S225.57,83.7,137.85,74.05c-51.46-5.66-27.55,28.17-15.78,43.86A122.33,122.33,0,0,1,128.8,129s2,9.07-16.38,11.7c-9.55,1.36,8.77,19.29,14,14s7.9-20.17,7.9-20.17l28.07,35.08s15.38,7.33,25.43,11.41c10.09,4.82,8.34,8.33,14.48,25,25.43,17.54,59.2-19.74,72.36-29.39C285.93,168.44,269.12,171,269.12,171Z"/>
      <path class="cls-7" d="M170.75,123.61c-2-.13-4-.15-5.94-.13a57.29,57.29,0,0,0-5.87.42,38.66,38.66,0,0,0-5.73,1.21,30,30,0,0,0-5.42,2.33,18.25,18.25,0,0,1,5.16-3.06,26.91,26.91,0,0,1,5.86-1.47A32.4,32.4,0,0,1,170.75,123.61Z"/>
      <path class="cls-7" d="M268.11,170.68l-4.11.16c-1.36.07-2.72.12-4.07.23s-2.7.25-4,.44-2.66.46-4,.82a14.59,14.59,0,0,1,3.85-1.58,24,24,0,0,1,4.11-.67A27.26,27.26,0,0,1,268.11,170.68Z"/>
      <path class="cls-7" d="M249,184.49c2-.12,4-.35,5.91-.62a58.32,58.32,0,0,0,5.77-1.16,36.94,36.94,0,0,0,5.53-1.93,28.67,28.67,0,0,0,5.08-3,18.33,18.33,0,0,1-4.73,3.69,27,27,0,0,1-5.63,2.2A32.24,32.24,0,0,1,249,184.49Z"/>
      <path class="cls-7" d="M133.74,122.71c.13-1.66.14-3.3.12-4.94a37.36,37.36,0,0,0-.44-4.85,25.48,25.48,0,0,0-1.22-4.69,23.28,23.28,0,0,0-2.24-4.35,13.49,13.49,0,0,1,2.95,4.05,18.18,18.18,0,0,1,1.5,4.83A22.28,22.28,0,0,1,133.74,122.71Z"/>
      <path class="cls-13" d="M151.45,125.37s45.61,0,105.26,45.61"/>
      <g>
        <path class="cls-2" d="M197.94,196.42s1.75-25.44-23.24-41.67c-24.23-15.73-21.24,3.72-21.24,3.72l25.26,28.93"/>
        <path class="cls-6" d="M192.68,172.73s-13.59-11.08-23.56-6c-20.3,10.38-26.44-40.5-26.44-40.5s11.68-1.82,25.44,7S192.68,172.73,192.68,172.73Z"/>
        <g>
          <path class="cls-2" d="M184.93,174.05c-5.3-4.72-12.7-9.88-23-15.35-13.16-7-13.08-9.69-13.16-11.4S147.45,121,147.45,121s-7.64-7.85-13.22-5.27c0,0-2.95,2.58-2.67,5.27,0,0-3.74.52-3.76,3.74,0,0-4.49,2.78-3.14,5.63,0,0-3.76,3.17-2.16,6.36,0,0-.81,2,1.7,0,4.44-3.51,8,3.72,8,3.51s.3,8,1.76,13.16,6.48,4.34,6.75,5.24,5.73,4.4,11.33,15.37,19.45,33,32.79,33.77c0,0,9.65,3.51,12-1.75a39.22,39.22,0,0,0,1.16-9.65"/>
          <g>
            <path class="cls-9" d="M140.92,122.74s-3.5-2.64-9.64-1.76"/>
            <path class="cls-8" d="M140.89,122.78l-2.45-.48c-.78-.14-1.55-.29-2.32-.41l-2.35-.37a21,21,0,0,1-2.49-.49v-.1a19,19,0,0,1,2.5-.2,15.07,15.07,0,0,1,2.51.18A11.89,11.89,0,0,1,141,122.7Z"/>
          </g>
          <g>
            <path class="cls-9" d="M139.17,127.12a25.6,25.6,0,0,0-11.3-2.27"/>
            <path class="cls-8" d="M139.15,127.17a22.2,22.2,0,0,0-2.77-.86,26.89,26.89,0,0,0-2.81-.57c-.95-.15-1.9-.17-2.84-.32s-1.88-.26-2.86-.52v-.1a9,9,0,0,1,2.95-.37,12.52,12.52,0,0,1,2.91.52,22.52,22.52,0,0,1,5.46,2.13Z"/>
          </g>
          <g>
            <path class="cls-9" d="M135.66,132.38a25.67,25.67,0,0,0-11.3-2.26"/>
            <path class="cls-8" d="M135.64,132.43a22.53,22.53,0,0,0-2.76-.85,24.74,24.74,0,0,0-2.82-.58c-.95-.15-1.9-.16-2.84-.31s-1.88-.27-2.86-.52v-.1a9,9,0,0,1,3-.38,12,12,0,0,1,2.91.53,22.34,22.34,0,0,1,5.46,2.12Z"/>
          </g>
        </g>
      </g>
      <g>
        <path class="cls-14" d="M127.25,79.68s9.58,12.53,10.16,15.4c0,0-.91,7.53-13.29,8.46C124.12,103.54,115.18,78.25,127.25,79.68Z"/>
        <path class="cls-2" d="M123.11,53.75S86.59,24,64.49,59.06c0,0-3.66,27.41,11.16,51.2,0,0,18.71,27.83,42.08,4.1,0,0,7-4.72,10.86-29.82C128.59,84.54,129.38,56.91,123.11,53.75Z"/>
        <g>
          <g>
            <path class="cls-15" d="M129.2,49s17.72,10.91,27.49,10.69c0,0-7.15,9.21-7.91,19.5,0,0-12.78-13.06-17-10.6Z"/>
            <g>
              <path class="cls-16" d="M153.46,64.08A100,100,0,0,1,137,58"/>
              <path class="cls-8" d="M153.33,64.56c-2.82-.87-5.58-1.84-8.31-2.91A70.35,70.35,0,0,1,137,58a70.42,70.42,0,0,0,8.16,3.2c2.77.9,5.58,1.72,8.4,2.42Z"/>
            </g>
            <g>
              <path class="cls-16" d="M150.26,71.85a49.13,49.13,0,0,1-10.41-6.22"/>
              <path class="cls-8" d="M150.06,72.31a51.6,51.6,0,0,1-5.33-3,39.74,39.74,0,0,1-4.88-3.65A40.82,40.82,0,0,0,145,68.85a51,51,0,0,0,5.47,2.54Z"/>
            </g>
          </g>
          <path class="cls-14" d="M122.73,82s.67-10.09-2.11-15.76c0,0-3.42-9.52-1.56-11.83,0,0-13.86-13.3-27.72-4.09,0,0-17.55,9.54-26.45,8.41a60.69,60.69,0,0,0,2,30.21s-3.77,1-10.78-11.29c0,0-14.65-6.87.9-15.85,0,0,1.05-11.13-1.16-18.78,0,0-1.93-18.64,16.4-25.06,0,0,29.77-6.75,45.06,5.8l.49.41s7.49,24.21,10.53,27.65c0,0,15.11,8,6.29,17.74,0,0-7.25,5-6.39,10.16A6.69,6.69,0,0,1,122.73,82Z"/>
          <g>
            <path class="cls-15" d="M122.05,23.48s-6.4-.05-8.71,2.29c0,0-10.84-2.41-16.48-1.45,0,0-19.25-9.24-26.36-5.71,0,0-16.59,5.14-15.09,25,0,0,4.81,10.92.49,18.89,0,0,10-20.18,48.48-19.4,0,0,20.05,3.69,24.33,10.06,0,0,4.13-10.43-2.61-13.52,0,0-3.13-3,1-7.56C127.07,32,130.08,27.17,122.05,23.48Z"/>
            <g>
              <path class="cls-16" d="M113.34,25.77S77.22,17,55.41,43.57"/>
              <path class="cls-8" d="M113.34,25.77a65.62,65.62,0,0,0-7.9-.89,74.74,74.74,0,0,0-7.92-.09,67.27,67.27,0,0,0-15.6,2.36,53.74,53.74,0,0,0-14.44,6.22c-.58.33-1.13.69-1.67,1.07s-1.09.73-1.62,1.12c-1,.81-2.12,1.57-3.1,2.46a58.32,58.32,0,0,0-5.68,5.55A47.38,47.38,0,0,1,67.06,32.72a52.08,52.08,0,0,1,14.6-6.53,58.49,58.49,0,0,1,7.86-1.58,65.89,65.89,0,0,1,23.82,1.16Z"/>
            </g>
            <g>
              <path class="cls-16" d="M57.57,49.13S76,25.3,116.23,31.29"/>
              <path class="cls-8" d="M57.57,49.13a40.29,40.29,0,0,1,5.59-5.72c1-.82,2.07-1.7,3.19-2.44L68,39.82c.55-.38,1.14-.7,1.71-1.06a61.63,61.63,0,0,1,14.71-6.39c1.3-.34,2.62-.6,3.92-.9.66-.14,1.31-.32,2-.42l2-.28c1.33-.17,2.65-.4,4-.52l4-.19c.67,0,1.33-.07,2-.07l2,.08,4,.17c1.33.07,2.65.33,4,.49l4,.56c-2.66-.15-5.31-.47-8-.56l-4,0h-2c-.66,0-1.32.09-2,.14-1.32.11-2.64.2-4,.29s-2.62.37-3.93.55l-2,.3c-.65.1-1.29.29-1.94.43-1.28.32-2.57.59-3.85.94a64.49,64.49,0,0,0-14.59,6.08A52,52,0,0,0,57.57,49.13Z"/>
            </g>
            <g>
              <path class="cls-16" d="M56.79,31.66S71,19.82,81.85,22.77"/>
              <path class="cls-8" d="M56.79,31.66a37.94,37.94,0,0,1,5.42-4.26,37.21,37.21,0,0,1,6.09-3.29A25.42,25.42,0,0,1,75,22.2a14.4,14.4,0,0,1,1.74-.13l.87,0a8.48,8.48,0,0,1,.87.06,11.07,11.07,0,0,1,1.73.23c.56.14,1.12.29,1.66.45-.57-.05-1.14-.11-1.7-.19a12.06,12.06,0,0,0-1.7,0c-.28,0-.56,0-.84,0l-.84.11a13,13,0,0,0-1.66.26l-1.65.38-1.61.49c-.54.15-1.06.38-1.59.57s-1.06.39-1.57.63a55.52,55.52,0,0,0-6.08,3c-1,.54-2,1.13-2.93,1.74S57.74,31,56.79,31.66Z"/>
            </g>
          </g>
          <path class="cls-17" d="M85.14,107.07s11.4.85,15-2.49-9.21-4-9.21-4Z"/>
          <path class="cls-14" d="M85.47,95.55s-8.4,7.85-2.88,17.1c0,0,3.28-5,7-9.65a45,45,0,0,1,14,2.63c7.74,2.91,8.61.16,8.61.16s-6.86-8.93-10.37-10.69c-2.25-1.12-9.65-3.5-9.65-3.5"/>
          <g>
            <g>
              <g>
                <ellipse class="cls-18" cx="102.34" cy="73.21" rx="6.71" ry="6.89" transform="translate(-1.8 143.85) rotate(-69.73)"/>
                <path class="cls-19" d="M95.65,74.38a6.49,6.49,0,0,0,2.94,4.2,6.59,6.59,0,0,0,4.92.8,6.13,6.13,0,0,0,3.85-2.72,6,6,0,0,0,.84-4.45,6.57,6.57,0,0,0-7-5.17,6.36,6.36,0,0,0-4.36,2.37A6.21,6.21,0,0,0,95.65,74.38Zm-.09,0a6.56,6.56,0,0,1,1.07-5.12,6.86,6.86,0,0,1,4.46-2.78,7.16,7.16,0,0,1,5.15,1.13A7,7,0,0,1,109.18,72a6.64,6.64,0,0,1-1.1,5.15,6.9,6.9,0,0,1-4.48,2.76,7.09,7.09,0,0,1-5.14-1.15A6.93,6.93,0,0,1,95.56,74.4Z"/>
              </g>
              <ellipse class="cls-20" cx="102.55" cy="73.22" rx="3.77" ry="3.46"/>
            </g>
            <ellipse class="cls-18" cx="99.66" cy="72.53" rx="0.65" ry="0.9" transform="translate(-2.83 140.99) rotate(-69.79)"/>
          </g>
          <g>
            <g>
              <ellipse class="cls-18" cx="76.07" cy="77.28" rx="6.34" ry="6.12" transform="translate(-22.07 31.15) rotate(-20.27)"/>
              <path class="cls-19" d="M82.32,78.35a7,7,0,0,1-7.45,5.47,6.72,6.72,0,0,1-4.64-2.49A6.5,6.5,0,0,1,69,76.05a6.91,6.91,0,0,1,3.11-4.43,7.06,7.06,0,0,1,5.17-.87,6.55,6.55,0,0,1,4.13,2.84A6.28,6.28,0,0,1,82.32,78.35Zm-.1,0a5.88,5.88,0,0,0-1-4.6,6.13,6.13,0,0,0-4-2.44,6.47,6.47,0,0,0-4.6,1A6.24,6.24,0,0,0,70,76.25a5.83,5.83,0,0,0,1,4.58,6.13,6.13,0,0,0,4,2.45,6.46,6.46,0,0,0,4.62-1A6.29,6.29,0,0,0,82.22,78.33Z"/>
            </g>
            <ellipse class="cls-20" cx="77.63" cy="77.59" rx="3.77" ry="3.46"/>
            <ellipse class="cls-18" cx="74.26" cy="76.02" rx="0.65" ry="0.9" transform="translate(-22.74 119.44) rotate(-69.79)"/>
          </g>
          <g>
            <path class="cls-9" d="M83.06,71s-2.29,14.16,1,22c0,0,4.44,8.07,12.67-2.36a10,10,0,0,0-.67-7.2"/>
            <path class="cls-8" d="M83.06,71c-.17,1.84-.3,3.69-.35,5.53s-.12,3.69,0,5.53a52.4,52.4,0,0,0,.47,5.47,23,23,0,0,0,1.39,5.23l0,0a6,6,0,0,0,2.63,2.38,4.6,4.6,0,0,0,3.48,0,8.57,8.57,0,0,0,1.67-.81c.5-.39,1-.71,1.52-1.14s1-.84,1.4-1.32l1.3-1.44-.05.08a8.06,8.06,0,0,0,.38-1.73,9.13,9.13,0,0,0,0-1.81,11.66,11.66,0,0,0-.82-3.56,10.62,10.62,0,0,1,.73,1.7,10.46,10.46,0,0,1,.43,1.82A9.31,9.31,0,0,1,97,90.67v0l0,0-1.25,1.54c-.42.51-.93.95-1.39,1.44A19.3,19.3,0,0,1,92.76,95a10.2,10.2,0,0,1-1.84.92,5.52,5.52,0,0,1-4.15,0,6.74,6.74,0,0,1-3.13-2.77v0a23,23,0,0,1-1.37-5.49A36.16,36.16,0,0,1,81.92,82c0-1.87.13-3.72.31-5.57S82.68,72.78,83.06,71Z"/>
          </g>
          <g>
            <g>
              <line class="cls-9" x1="98.99" y1="121.04" x2="97.45" y2="125.67"/>
              <path class="cls-8" d="M99,121.05a5,5,0,0,1-1.54,4.63l-.07,0,.73-2.33L99,121Z"/>
            </g>
            <g>
              <line class="cls-9" x1="104.63" y1="119.88" x2="106.89" y2="124.26"/>
              <path class="cls-8" d="M104.67,119.86a5.09,5.09,0,0,1,2.25,4.38l-.07,0-1.16-2.17-1.09-2.2Z"/>
            </g>
            <g>
              <line class="cls-9" x1="102.25" y1="115.77" x2="101.85" y2="120.6"/>
              <path class="cls-8" d="M102.28,115.77a4.5,4.5,0,0,1,.44,2.47,4.57,4.57,0,0,1-.84,2.36h-.07l.16-2.41.24-2.41Z"/>
            </g>
            <g>
              <line class="cls-9" x1="85.47" y1="113.31" x2="82.33" y2="117.2"/>
              <path class="cls-8" d="M85.5,113.33a5.23,5.23,0,0,1-3.14,3.89l-.06,0,1.54-2,1.6-1.93Z"/>
            </g>
            <g>
              <line class="cls-9" x1="111.13" y1="117.83" x2="113.39" y2="122.2"/>
              <path class="cls-8" d="M111.17,117.81a5.06,5.06,0,0,1,2.25,4.37l-.07,0-1.16-2.17-1.09-2.21Z"/>
            </g>
            <g>
              <line class="cls-9" x1="116.38" y1="112.39" x2="118.64" y2="116.77"/>
              <path class="cls-8" d="M116.41,112.37a5.07,5.07,0,0,1,2.26,4.38l-.07,0-1.16-2.17-1.09-2.2Z"/>
            </g>
            <g>
              <line class="cls-9" x1="109.29" y1="112.28" x2="113.53" y2="115.16"/>
              <path class="cls-8" d="M109.31,112.25a5,5,0,0,1,2.48.91,5.13,5.13,0,0,1,1.76,2l0,.06-2.15-1.41-2.09-1.47Z"/>
            </g>
            <g>
              <line class="cls-9" x1="113.34" y1="106.98" x2="116.56" y2="109.17"/>
              <path class="cls-8" d="M113.36,107a3.07,3.07,0,0,1,2,.56,3.21,3.21,0,0,1,1.25,1.62l0,.07-1.63-1.07L113.32,107Z"/>
            </g>
            <g>
              <line class="cls-9" x1="119.48" y1="108.67" x2="121.73" y2="113.04"/>
              <path class="cls-8" d="M119.51,108.65a4.56,4.56,0,0,1,1.69,1.9,4.67,4.67,0,0,1,.57,2.48l-.07,0-1.16-2.17-1.1-2.21Z"/>
            </g>
            <g>
              <line class="cls-9" x1="122.12" y1="105.32" x2="126.29" y2="108.28"/>
              <path class="cls-8" d="M122.14,105.29a5.46,5.46,0,0,1,4.17,3l0,.06-2.11-1.45-2.07-1.51Z"/>
            </g>
            <g>
              <line class="cls-9" x1="92.63" y1="120.62" x2="91.1" y2="125.25"/>
              <path class="cls-8" d="M92.67,120.64a4.58,4.58,0,0,1-.16,2.51,4.65,4.65,0,0,1-1.38,2.12l-.07,0,.73-2.32.81-2.31Z"/>
            </g>
            <g>
              <line class="cls-9" x1="86" y1="117.5" x2="84.47" y2="122.14"/>
              <path class="cls-8" d="M86,117.52a4.57,4.57,0,0,1-.17,2.51,4.62,4.62,0,0,1-1.37,2.12l-.07,0,.73-2.32.81-2.31Z"/>
            </g>
            <g>
              <line class="cls-9" x1="77.47" y1="109.96" x2="75.93" y2="114.59"/>
              <path class="cls-8" d="M77.51,110A5,5,0,0,1,76,114.6l-.07,0,.73-2.33.81-2.3Z"/>
            </g>
            <g>
              <line class="cls-9" x1="81.35" y1="113.61" x2="79.81" y2="118.24"/>
              <path class="cls-8" d="M81.38,113.62a4.53,4.53,0,0,1-.16,2.52,4.68,4.68,0,0,1-1.37,2.11l-.07,0,.73-2.33.8-2.3Z"/>
            </g>
            <g>
              <line class="cls-9" x1="75.19" y1="106.78" x2="73.65" y2="111.41"/>
              <path class="cls-8" d="M75.23,106.79a4.62,4.62,0,0,1-.17,2.52,4.54,4.54,0,0,1-1.37,2.11l-.07,0,.73-2.33.8-2.3Z"/>
            </g>
          </g>
          <g>
            <path class="cls-2" d="M129.26,73.61c1.55-2,3.67-4.12,6.64-4.19s4.72,1.68,4.76,5.08-.41,6.19-3.61,8.68-7,3.18-9.25,1.55"/>
            <path class="cls-21" d="M129.86,83c.39-.22.78-.43,1.13-.67a3.66,3.66,0,0,0,1.44-1.72,2.32,2.32,0,0,0-.08-1.93,2.88,2.88,0,0,0-.73-.92l-.19-.16.06-.13c.12-.25.26-.5.4-.74a13,13,0,0,1,1.5-2A5.56,5.56,0,0,1,135.63,73a2.71,2.71,0,0,1,1.64-.09c.5.12.92.45.91.84-.09-.37-.53-.6-1-.68a2.44,2.44,0,0,0-1.39.16,5.91,5.91,0,0,0-2,1.67,22.21,22.21,0,0,0-1.57,2c-.18.26-.36.51-.52.78a3,3,0,0,1,1,1,2.32,2.32,0,0,1,.21,2.11,3.7,3.7,0,0,1-1.68,1.84,10.38,10.38,0,0,1-1.25.62,3,3,0,0,1-1.41.3A3.09,3.09,0,0,0,129.86,83Zm7.61-4.54a3,3,0,0,0,.17-2.15,12.4,12.4,0,0,0-.84-2.13,7.38,7.38,0,0,1,1.21,2,3,3,0,0,1-.07,2.33,5.22,5.22,0,0,1-1.93,2,17.34,17.34,0,0,1-2.69,1.35c.84-.5,1.69-1,2.44-1.54A5.08,5.08,0,0,0,137.47,78.5Z"/>
          </g>
          <g>
            <path class="cls-2" d="M63.67,83.38c-2.08-1.61-4.73-3.1-7.61-2.45S52,83.68,52.92,87s2.15,5.88,5.95,7.51,7.66,1.39,9.38-.72"/>
            <path class="cls-21" d="M67.15,92.74a3,3,0,0,1-1.46.05,12.51,12.51,0,0,1-1.38-.29,4.06,4.06,0,0,1-2.15-1.38A2.36,2.36,0,0,1,61.77,89a2.86,2.86,0,0,1,.68-1.17c-.23-.21-.48-.42-.72-.62a22.63,22.63,0,0,0-2.08-1.52,6.13,6.13,0,0,0-2.4-1.14,2.42,2.42,0,0,0-1.38.18c-.43.18-.79.51-.77.89-.13-.37.18-.79.64-1a2.7,2.7,0,0,1,1.6-.3A6.09,6.09,0,0,1,60,85.45a14.82,14.82,0,0,1,2,1.61c.2.2.4.41.59.62a1.09,1.09,0,0,1,.1.11,1.43,1.43,0,0,0-.14.2,2.85,2.85,0,0,0-.44,1.06,2.36,2.36,0,0,0,.47,1.89,3.85,3.85,0,0,0,1.88,1.31,12.66,12.66,0,0,0,1.28.37A3.18,3.18,0,0,0,67.15,92.74Zm-7.84-1.29c.88.35,1.84.62,2.79.9a18.14,18.14,0,0,1-3-.65,5.76,5.76,0,0,1-2.42-1.42A3,3,0,0,1,56,88.05a7.09,7.09,0,0,1,.58-2.28,11.65,11.65,0,0,0-.2,2.26,3.12,3.12,0,0,0,.77,2A5.56,5.56,0,0,0,59.31,91.45Z"/>
          </g>
          <path class="cls-20" d="M91.37,60s1.74,5.42,5.18,5.78,15,2.11,15,2.11-7.28-5.36-10.78-6.14-9.39-2.63-9.39-2.63Z"/>
          <path class="cls-20" d="M81.81,60.51s.12,5.7-3,7.18-11.1,6.36-11.1,6.36,2.69-6.88,5.76-8.76,8.08-5.6,8.08-5.6Z"/>
        </g>
      </g>
    </g>
  </g>
</svg>
