<svg id="Layer_1" data-name="Layer 1" xmlns="http://www.w3.org/2000/svg" width="216.1" height="223.06" viewBox="0 0 216.1 223.06">
  <defs>
    <style>
      .cls-1 {
        fill: #ff0;
      }

      .cls-2 {
        fill: #7d4828;
      }

      .cls-3 {
        fill: #190c0e;
      }

      .cls-4 {
        fill: #5c3223;
      }

      .cls-5 {
        fill: #7b6046;
      }

      .cls-6 {
        fill: #a17153;
      }

      .cls-7 {
        fill: #5b3320;
      }

      .cls-8 {
        fill: #653d1f;
      }

      .cls-9 {
        fill: #6c311d;
      }
    </style>
  </defs>
  <g>
    <path class="cls-1" d="M149.49,121.9l.15.07,1.09.44,1.21.49a64.27,64.27,0,0,0,12.08,4c3.5.74,7,1.39,10.41,2,10.83,2,21,3.91,30.6,8.48a6.38,6.38,0,0,0,2.74.62,6.67,6.67,0,0,0,3.38-12.4c-10-5.57-20.57-8-30.83-10.41a162.11,162.11,0,0,1-18.82-5.16c-4.74-1.72-9.08-3.67-13.28-5.55A127.29,127.29,0,0,0,130,97.46c18.73-10.53,37.83-24.06,58-41a6.34,6.34,0,0,0-4.12-11.14,6.33,6.33,0,0,0-3.67,1.19c-4.23,2.84-8.55,5.94-12.74,8.94-9.84,7.06-20,14.37-30.32,19.28-2.78,1.31-5.61,2.55-8.35,3.76-3,1.32-6.07,2.67-9.13,4.13,1.09-4.19,1.9-8.43,2.7-12.6.76-3.94,1.48-7.67,2.41-11.33,1.43-5.72,3.81-11.19,6.34-17,2.87-6.6,5.84-13.42,7.4-20.84a6.18,6.18,0,0,0-1.06-5.46,6.46,6.46,0,0,0-5.14-2.6,6.25,6.25,0,0,0-6.1,4.86c-1.71,6.68-5.05,12.72-8.6,19.1-1.69,3.07-3.43,6.19-5,9.46-1.23-15.51-3.71-28.48-7.7-40.29a6,6,0,0,0-1.12-2l-.14-.16a6,6,0,0,0-4.09-2.09l-.51,0h-.24a6.36,6.36,0,0,0-4.9,2.41,6.2,6.2,0,0,0-1.16,5.29c1.56,6.8,1.79,14.14,2,21.91.14,4.36.27,8.87.67,13.25.84,9.47,1.49,18.8.83,28a13.8,13.8,0,0,0-2.5-1.05,6.43,6.43,0,0,0-1.89-.3A6.37,6.37,0,0,0,86,79.89c.08.19.17.38.26.56,0,0,.2.36.21.39-.49.36-.94.72-1.37,1s-1,.79-1.33,1a17.21,17.21,0,0,0-3.62,3,6.24,6.24,0,0,0-2.34-.45,6.35,6.35,0,0,0-6.27,7.28,14.13,14.13,0,0,0,.63,2.62c-9.16-.8-18.27-2.94-27.53-5.26C40.38,89,36,88.19,31.82,87.39c-7.68-1.48-14.94-2.87-21.51-5.51a6.36,6.36,0,0,0-2.39-.47,6.27,6.27,0,0,0-4.55,2,6.41,6.41,0,0,0-1.72,4.37,6.08,6.08,0,0,0,.64,2.79A6.77,6.77,0,0,0,3.22,92,6.09,6.09,0,0,0,5,93.38c11.17,5.86,23.32,10.27,38.59,13.93-3.46,1-6.8,2.26-10.07,3.44-6.93,2.52-13.47,4.89-20.4,5.49l-.19,0a6.29,6.29,0,0,0-4.05,10.32,6.16,6.16,0,0,0,4.86,2.36h.37c7.67-.34,15-2.23,22.08-4.06,6.11-1.57,11.88-3.06,17.75-3.59,3.74-.34,7.55-.46,11.58-.58,4.25-.13,8.57-.26,12.89-.67-1.77,2.56-3.44,5.14-5.08,7.68-1.76,2.72-3.58,5.53-5.5,8.27-6.64,9.54-15.44,18.44-24,27.06-3.6,3.64-7.33,7.41-10.83,11.16a7.52,7.52,0,0,0-.5.62,6.43,6.43,0,0,0-.7,6.15,5.73,5.73,0,0,0,.53,1,6.24,6.24,0,0,0,9.59,1.2C61.78,166,78.1,149.37,91.44,132.58a128.53,128.53,0,0,0,4.13,19.33c1.18,4.41,2.4,9,3.34,13.82a158,158,0,0,1,2.14,19.46c.72,10.51,1.47,21.37,5.44,32.11l.06.17a6.3,6.3,0,0,0,9.14,3,6.28,6.28,0,0,0,3.43-7.2,2.17,2.17,0,0,0-.07-.24c-3-10.28-3.28-20.78-3.56-31.89-.08-3.35-.17-6.81-.34-10.26a65.73,65.73,0,0,0-2-12.25c-.13-.57-.28-1.14-.43-1.72l-.24-.91a2,2,0,0,0-.07-.26c0-.12-.06-.25-.09-.37s-.13-.51-.2-.76l-.16-.57a9.44,9.44,0,0,0-.29-1.06l-1-3.88c5.51,4.8,14.24,10.63,22.8,10.63h.41c2.79,1.93,5.27,3.75,7.53,5.52l.22.16a6.2,6.2,0,0,0,3.65,1.17,6.29,6.29,0,0,0,4.05-1.48l.12-.11a6.3,6.3,0,0,0,1.75-7.16c0-.09-.07-.17-.1-.25-1.21-2.64-2.24-5-3.12-7.28a31.84,31.84,0,0,0,2.12-14.39c-.54-6.25-3.94-12-8-17.25l4,1.74Z"/>
    <g>
      <path d="M110,106.19a4.27,4.27,0,0,1,.6-.17c0-.06,0-.1,0-.19,1.7-5,.16-8.6-3.77-11.66-1.88-1.48-4.34-2-6.24-3.37a39.63,39.63,0,0,1-5.19-4.61c2.14,3.32,3.93,6.89,6.63,9.79C105.05,99.21,108.13,102.14,110,106.19Zm1.9-6.09c0,.43,0,.8,0,1.18a.17.17,0,0,1,.19,0c18.83-.39,30.13,8.23,47.3,14.47,16.23,5.89,33.59,6.65,48.84,15.21.39.18,0,.74-.35.53h-.06c.29.21.12.75-.26.57-13.45-6.44-27.91-7.9-42.36-11a59.59,59.59,0,0,1-11-3.69,43.89,43.89,0,0,0,4.78,1.59c16.4,4.32,33.05,5,48.55,12.31-15.2-8.37-32.22-9.07-48.31-14.92S130,101.54,112.1,101.84c-.06,0-.09,0-.15,0a11.38,11.38,0,0,1-.62,4,13.55,13.55,0,0,1,9.59,1.26c11.31-1.7,20.79,5,30.94,9.37C141.74,112,131,106.74,122,107.57c4.94,2.71,9.42,7.36,12.33,11.17,4,4.7,9.21,11.2,9.77,17.69.32,3.8-.23,9.87-2.74,13.5l.06.06c1.24,3.4,2.67,6.76,4.2,10.09a.34.34,0,0,1-.09.37l0,0,0,0a.26.26,0,0,1-.37,0c-3.11-2.43-6.32-4.73-9.58-6.93l0,0c-8.68,1.56-20.42-7.71-24.94-12.94a41.2,41.2,0,0,1-8.2-14.24c-2,7.93.95,18.35,3.56,28.32-2.81-9.8-7-19.58-4-29.4a.07.07,0,0,1,.07-.06,18.47,18.47,0,0,1,0-9.76,12.31,12.31,0,0,1-3.43,0,.16.16,0,0,1,.06.12c-3.2,17.72,3.57,32,6.8,48.84s1.27,33.75,7.14,50.09c-4.77-16.47-2.81-33-4.5-49.89a41.4,41.4,0,0,0-.77-4.72,63.23,63.23,0,0,1,1.86,11.23c.71,14.73-.07,29.24,4.14,43.56.09.38-.47.46-.63.13,0,0,0,0,0,.1.16.38-.42.64-.57.26-6.08-16.44-4-33.7-7.32-50.63-3.46-17.81-10.17-30.57-6.85-49a.34.34,0,0,1,.14-.17,7.79,7.79,0,0,1-1.19-.25s0,0,0,.06c-16.59,23.88-37.11,44.63-59,63.58a.24.24,0,0,1-.43,0l0,0a.44.44,0,0,1,0-.43c11.68-12.53,25.5-24.77,35.33-38.88,6.69-9.59,11.74-19.16,20-27.71a4.52,4.52,0,0,1-.51-.6l0,0c-12.31,4.43-26,3.06-38.84,4.24-13.5,1.21-26.25,7-39.61,7.63-.15,0-.21,0-.23-.14-.24-.15-.24-.55.07-.59C27.21,121,38.86,114,52.06,111.34c12.65-2.48,25.62-1,38.16-4.5,0,0,0,0,.08,0-.2-.57-.43-1.11-.63-1.68-12,3.92-24.24.7-36.23-1.83-15.92-3.3-31.25-7.73-45.66-15.29,0-.07-.08-.1-.08-.17l0,0s0,0,0-.09c0-.22.13-.46.4-.34C19,91.86,31.63,93,43.13,95.9c14.93,3.75,29.21,6.95,44.62,5.37,0-.13-.13-.23-.18-.36l0,0c-4.47-1.62-9.37-4-10.11-9.11a.34.34,0,0,1,.52-.33,10.44,10.44,0,0,1,1.8,1.44c1.72,1.68,2.74,2.88,5,3.39-.31-.42-.59-.76-.84-1.11-2.22-2.8.74-5.78,3.08-7.26,2-1.26,4.58-4.09,7.14-4a.34.34,0,0,1,.24.15c.28.33.6.63.94,1-.19-2.3-1.21-3.43-2.6-5.4a21.6,21.6,0,0,1-1.14-2,.35.35,0,0,1,.41-.46c4.94,1.56,6.53,6.78,7.43,11.39a.13.13,0,0,1,0,.09.79.79,0,0,0,.29.21c4-14.9,3.12-29.61,1.77-44.88-1.07-11.78-.19-24.5-2.83-36a.29.29,0,0,1,.4-.33s0,0,.1,0l0,0,.12.13c5.2,15.42,7.18,31.29,7.93,47.47.57,12.27,1.85,24.91-3.94,36.09l1.59.87a.06.06,0,0,1,0-.07c5.35-11.83,6-24.87,10.44-37,4.68-12.63,13.46-23,16.8-36.18,0-.34.45-.27.59-.05,0,.07.14.17.07.29C130,32.37,122.22,44,118.92,57.18c-3.18,12.5-4,26.2-10.3,37.62l0,0c.23.2.31.42.51.59,9.65-6.73,20-10.36,30.52-15.33,15.37-7.33,29.88-19.3,44-28.74a.28.28,0,0,1,.43,0,.29.29,0,0,1,0,.46C161.89,70.53,138.16,87.52,111.93,100.1Zm32.72,59.22c-1.34-2.91-2.59-5.85-3.71-8.84a7.74,7.74,0,0,1-.95,1,9.1,9.1,0,0,1-3.58,1.91C139.19,155.34,141.94,157.29,144.65,159.32Zm-5.08-8.3c4.52-3.69,4.17-14.77,2.4-19.33s-4.87-8.72-8.12-12.53c-6.12-8-21-20.75-29.09-7.28-6,10.05-.51,20.46,6.3,28.32C116.27,146.23,131.31,157.77,139.57,151Zm-96.5,22.29c9.9-8.79,19.42-17.94,28.41-27.67a282.38,282.38,0,0,0,24.86-30.81,9.76,9.76,0,0,1-3.15-2.63c-9.66,10-15.09,21.68-23.6,32.3C61.57,154.61,52.12,163.93,43.07,173.31Zm68.6-73.79C135.59,88,157.45,72.84,178,56c-10.78,7.48-21.49,15.25-32.75,21.76C133.42,84.58,120.92,88,109.58,95.93A10.12,10.12,0,0,1,111.67,99.52Zm-9.46,15.34a12.12,12.12,0,0,1,.53-1.32c-9.89-1.74-11.23-13.3-18.31-18.65a44.41,44.41,0,0,1,5,7.66c1.07,2.12,1.22,4.57,2.41,6.7C94.17,113.42,97.34,115.52,102.21,114.86ZM103,113a13.13,13.13,0,0,1,1.95-2.87c-3.79-2.43-6.22-6-9.17-9.34-3.31-3.76-6.76-7.4-9.93-11.32a5.08,5.08,0,0,0-1.28,1.26,5.53,5.53,0,0,0-.61,3.1C91.87,98.85,92.7,111.29,103,113Zm2.37-3.39,0,0c.18-.2.31-.38.52-.61l.13-.11C98.5,103.2,95.59,93.62,88.16,88.05l-.09-.1-1,.7c-.23.13-.39.27-.62.41,2.7,3.36,5.63,6.53,8.52,9.72C98.31,102.51,101.12,106.81,105.41,109.56Zm1.17-1.12a13.93,13.93,0,0,1,2.84-2c-2.06-4.43-5.54-7.3-8.62-10.91-2.79-3.28-4.51-7.3-7-10.77,0,0,0-.1-.06-.13-1.83.13-3.7,1.9-5.11,2.93C96.05,93.22,98.9,102.8,106.58,108.44Zm-14.68,2a15.77,15.77,0,0,1-1.42-3.08s-.1.09-.16.08c-12.57,3.45-25.48,2-38.15,4.51-10,2-19,6.45-28.73,9,9.94-1.9,19.71-5.48,29.84-6.4C66.07,113.47,79.63,114.89,91.9,110.49Zm13.38-18a15.72,15.72,0,0,1,2.81,1.89c6.25-11.39,7-25,10.2-37.41,2.51-9.87,7.59-19,11.06-28.49-4.09,9.16-10,17.37-13.53,26.93-4.48,12.12-5,25.14-10.44,37ZM89.44,104.58s0-.09,0-.13a23.31,23.31,0,0,0-1.31-2.6c-12.33,1.31-24.28-.23-36.31-3.13C39.37,95.79,26,94.11,13.7,90.17A163.24,163.24,0,0,0,45,100.87C58.78,104.12,75.42,109.21,89.44,104.58ZM102.5,91a.15.15,0,0,1,.11.07C109.4,78,107,60.68,106,46.61A164.73,164.73,0,0,0,100.36,14c2,12.7,1.53,26.28,2.47,38.92.87,12.36.56,24.41-2.67,36.38A24.34,24.34,0,0,0,102.5,91Zm-15.42,9.09c-.63-1-1.26-2-1.87-2.92A7.34,7.34,0,0,1,81.4,95.7c-1.16-1-2-2.07-3.09-3C79.42,96.59,83.36,98.67,87.08,100.07ZM96,85.74a30,30,0,0,0,2.59,2.31c-.8-3.9-2.19-8.14-6-9.86.77,1.23,1.77,2.27,2.53,3.5A7.65,7.65,0,0,1,96,85.74Z"/>
      <path class="cls-2" d="M108.07,164.66c1.69,16.87-.27,33.42,4.5,49.89-5.87-16.34-3.87-33.32-7.14-50.09s-10-31.12-6.8-48.84a.16.16,0,0,0-.06-.12,12.31,12.31,0,0,0,3.43,0,18.47,18.47,0,0,0,0,9.76.07.07,0,0,0-.07.06c-3,9.82,1.16,19.6,4,29.4a4.63,4.63,0,0,1,.19.69c.07.28.15.51.22.79s.21.85.33,1.26c.21.85.45,1.67.63,2.49A41.4,41.4,0,0,1,108.07,164.66Z"/>
      <path class="cls-2" d="M207.55,131.25c-15.5-7.31-32.15-8-48.55-12.31a43.89,43.89,0,0,1-4.78-1.59l-2.36-1c-10.15-4.39-19.63-11.07-30.94-9.37a13.55,13.55,0,0,0-9.59-1.26,11.38,11.38,0,0,0,.62-4c.06,0,.09,0,.15,0,17.93-.3,31,8.61,47.14,14.49S192.35,122.88,207.55,131.25Z"/>
      <path class="cls-3" d="M140.94,150.48c1.12,3,2.37,5.93,3.71,8.84-2.71-2-5.46-4-8.24-5.9a9.1,9.1,0,0,0,3.58-1.91A7.74,7.74,0,0,0,140.94,150.48Z"/>
      <path class="cls-4" d="M142,131.69c1.77,4.56,2.12,15.64-2.4,19.33-8.26,6.75-23.3-4.79-28.51-10.82-6.81-7.86-12.32-18.27-6.3-28.32,8.08-13.47,23-.71,29.09,7.28C137.1,123,140.15,127,142,131.69Z"/>
      <path class="cls-5" d="M71.48,145.64c-9,9.73-18.51,18.88-28.41,27.67,9-9.38,18.5-18.7,26.52-28.81,8.51-10.62,13.94-22.35,23.6-32.3a9.76,9.76,0,0,0,3.15,2.63A282.38,282.38,0,0,1,71.48,145.64Z"/>
      <path class="cls-5" d="M178,56c-20.5,16.81-42.36,32-66.28,43.49a10.12,10.12,0,0,0-2.09-3.59c11.34-7.9,23.84-11.35,35.62-18.14C156.46,71.28,167.17,63.51,178,56Z"/>
      <path class="cls-6" d="M102.74,113.54a12.12,12.12,0,0,0-.53,1.32c-4.87.66-8-1.44-10.33-5.61-1.19-2.13-1.34-4.58-2.41-6.7a44.41,44.41,0,0,0-5-7.66C91.51,100.24,92.85,111.8,102.74,113.54Z"/>
      <path class="cls-6" d="M110.63,106a4.27,4.27,0,0,0-.6.17c-1.9-4-5-7-8-10.21-2.7-2.9-4.49-6.47-6.63-9.79a39.63,39.63,0,0,0,5.19,4.61c1.9,1.36,4.36,1.89,6.24,3.37,3.93,3.06,5.47,6.67,3.77,11.66C110.6,105.92,110.63,106,110.63,106Z"/>
      <path class="cls-3" d="M105,110.08A13.13,13.13,0,0,0,103,113c-10.34-1.66-11.17-14.1-19-19.17a5.53,5.53,0,0,1,.61-3.1,5.08,5.08,0,0,1,1.28-1.26c3.17,3.92,6.62,7.56,9.93,11.32C98.77,104.12,101.2,107.65,105,110.08Z"/>
      <path class="cls-7" d="M105.43,109.59l0,0c-4.29-2.75-7.1-7-10.45-10.78-2.89-3.19-5.82-6.36-8.52-9.72.23-.14.39-.28.62-.41l1-.7.09.1c7.43,5.57,10.34,15.15,17.92,20.82L106,109C105.74,109.21,105.61,109.39,105.43,109.59Z"/>
      <path class="cls-3" d="M109.42,106.48a13.93,13.93,0,0,0-2.84,2c-7.68-5.64-10.53-15.22-18-20.84,1.41-1,3.28-2.8,5.11-2.93,0,0,0,.09.06.13,2.5,3.47,4.22,7.49,7,10.77C103.88,99.18,107.36,102.05,109.42,106.48Z"/>
      <path class="cls-8" d="M90.48,107.41a15.77,15.77,0,0,0,1.42,3.08c-12.27,4.4-25.83,3-38.62,4.16-10.13.92-19.9,4.5-29.84,6.4,9.69-2.6,18.69-7.07,28.73-9,12.67-2.52,25.58-1.06,38.15-4.51C90.38,107.5,90.44,107.44,90.48,107.41Z"/>
      <path class="cls-8" d="M108.09,94.39a15.72,15.72,0,0,0-2.81-1.89l.1-.08c5.39-11.86,6-24.88,10.44-37,3.57-9.56,9.44-17.77,13.53-26.93C125.88,38,120.8,47.11,118.29,57,115.11,69.41,114.34,83,108.09,94.39Z"/>
      <path class="cls-9" d="M89.39,104.45s0,.1,0,.13c-14,4.63-30.66-.46-44.42-3.71A163.24,163.24,0,0,1,13.7,90.17C26,94.11,39.37,95.79,51.77,98.72c12,2.9,24,4.44,36.31,3.13A23.31,23.31,0,0,1,89.39,104.45Z"/>
      <path class="cls-9" d="M102.61,91.05a.15.15,0,0,0-.11-.07,24.34,24.34,0,0,1-2.34-1.66c3.23-12,3.54-24,2.67-36.38-.94-12.64-.51-26.22-2.47-38.92A164.73,164.73,0,0,1,106,46.61C107,60.68,109.4,78,102.61,91.05Z"/>
      <path class="cls-3" d="M85.21,97.15c.61.91,1.24,1.92,1.87,2.92-3.72-1.4-7.66-3.48-8.77-7.39,1.1.95,1.93,2.06,3.09,3A7.34,7.34,0,0,0,85.21,97.15Z"/>
      <path class="cls-3" d="M98.56,88.05A30,30,0,0,1,96,85.74a7.65,7.65,0,0,0-.83-4c-.76-1.23-1.76-2.27-2.53-3.5C96.37,79.91,97.76,84.15,98.56,88.05Z"/>
    </g>
  </g>
</svg>
