<svg id="Layer_1" data-name="Layer 1" xmlns="http://www.w3.org/2000/svg" width="334.33" height="344.91" viewBox="0 0 334.33 344.91">
  <defs>
    <style>
      .cls-1 {
        fill: #ff0;
      }

      .cls-2 {
        fill: #fcc172;
      }

      .cls-3 {
        fill: #7b4232;
      }

      .cls-4 {
        fill: #864e41;
      }

      .cls-5 {
        fill: #663124;
      }

      .cls-6 {
        fill: #98604f;
      }

      .cls-7 {
        fill: #889138;
      }

      .cls-8 {
        fill: #5c7835;
      }

      .cls-9 {
        fill: #a3a84c;
      }

      .cls-10 {
        fill: #b98d68;
      }

      .cls-11 {
        fill: #7dac45;
      }

      .cls-12 {
        fill: #96be61;
      }

      .cls-13 {
        fill: #539242;
      }

      .cls-14 {
        fill: #bfda7e;
      }

      .cls-15 {
        fill: #2c773b;
      }

      .cls-16 {
        fill: #f3752f;
      }

      .cls-17 {
        fill: #f05b22;
      }

      .cls-18 {
        fill: #f58d46;
      }

      .cls-19 {
        fill: #85a43d;
      }

      .cls-20 {
        fill: #77903b;
      }

      .cls-21 {
        fill: #fab061;
      }

      .cls-22 {
        fill: #f6f4c0;
      }

      .cls-23 {
        fill: #fcfae1;
      }

      .cls-24 {
        fill: #e1dd95;
      }

      .cls-25 {
        fill: #fcb63b;
      }

      .cls-26 {
        fill: #ffcc6a;
      }

      .cls-27 {
        fill: #ee9d20;
      }

      .cls-28 {
        fill: #7f4829;
      }

      .cls-29 {
        fill: #cb3d2d;
      }

      .cls-30 {
        fill: #e55245;
      }

      .cls-31 {
        fill: #b52b26;
      }

      .cls-32 {
        fill: #f27360;
      }

      .cls-33 {
        fill: #e9d99a;
      }

      .cls-34 {
        fill: #f39c56;
      }

      .cls-35 {
        fill: #da7d35;
      }
    </style>
  </defs>
  <g>
    <path class="cls-1" d="M306.67,258.57a8.51,8.51,0,0,0-.28-1c9.68-22.4,11.24-43.09,10.66-52.56,6.17-5.49,6.82-11,6.14-14.83-1.07-6.09-5.71-10.57-13.8-13.38C313,159,311.86,142.43,306,128.64a25.41,25.41,0,0,0-6-8.74,44.53,44.53,0,0,0,.93-17c0-.26-.08-.54-.13-.83a76.81,76.81,0,0,0,9.36-14,6,6,0,0,0-5.32-8.76,6.51,6.51,0,0,0-1.16.11q-6.48,1.27-12.85,3.14c6-9.93,10.62-20.57,15.07-30.94a6,6,0,0,0-5.51-8.37,6.13,6.13,0,0,0-2.54.56,109.15,109.15,0,0,0-25.18,16.36c2.2-14.46,2.17-29,2.15-43.24a6,6,0,0,0-4.11-5.68,5.89,5.89,0,0,0-1.89-.31A6,6,0,0,0,264,13.33a151.43,151.43,0,0,0-19,33.94q-1.12-3.74-2.55-7.32a41.69,41.69,0,0,0-2.87-5.25,58.23,58.23,0,0,1-3.69-6.8,4.51,4.51,0,0,1-.06,2.2l-11.62-3a146.85,146.85,0,0,0-4.4,28.78c-1.09-.48-2.19-.94-3.31-1.35a43.84,43.84,0,0,0-4.4-4.34,6,6,0,0,0-3.89-1.43,6.1,6.1,0,0,0-3.86,1.4,7.66,7.66,0,0,0-2.7.64l-.55.23c-2.05-.19-4.14-.29-6.22-.29h-.45c-1.08,0-2.21,0-3.46.11l-.86.06c-1.16.08-2.22.17-3.3.29l-.33,0c-1.09.13-2.25.29-3.58.5l-.87.14-1.62.29a7.35,7.35,0,0,0-5.34,1.17l0,0-1.12.29c-1.14.3-2.29.62-3.42,1l-.19.05c-1.2.37-2.4.77-3.59,1.18l-.91.31c-1.17.42-2.35.85-3.52,1.3l-.08,0a77,77,0,0,0-18,10,8,8,0,0,0-6.47,4.74c-.13.31-.25.63-.37,1a90.76,90.76,0,0,0-7.88,8.24,31.53,31.53,0,0,0-3.47-4.37,24.11,24.11,0,0,0-8.58-5.84,7.15,7.15,0,0,0-.64-.46,7,7,0,0,0,.71-4,7.06,7.06,0,0,0-5.42-5.88c-.27-.07-.55-.12-.83-.17a6,6,0,0,0-6.45,1.77,12.48,12.48,0,0,0-2,3.29A90.74,90.74,0,0,1,88.67,71l-3.73,1.17c-8.1,2.6-17.26,6.23-23.74,13.51-5.29,5.92-8.58,13.91-10.06,24.42-.39,2.78-.64,5.56-.81,8.31-.54-.29-1.09-.58-1.65-.85a25.57,25.57,0,0,0-9.32-2.48,10.9,10.9,0,0,0-.16-2.28,7.28,7.28,0,0,0-7.19-6,7.52,7.52,0,0,0-4.4,1.42,10.42,10.42,0,0,0-4.14,7.88,14.5,14.5,0,0,0,.44,4.92c-3.89,4.48-5.49,11.17-4.39,18.64.91,6.2,3.19,11.8,5.39,17.21,2,4.84,3.83,9.41,4.58,14,.06.39.12.77.17,1.17-15.31,2.52-18.74,10.72-18.74,17.56a25.87,25.87,0,0,0,6.14,17,107.79,107.79,0,0,0,.28,15.55,6.74,6.74,0,0,0,0,3,6.52,6.52,0,0,0,.46,1.28A111.9,111.9,0,0,0,23.19,249a7.5,7.5,0,0,0-.13,1.42,6.87,6.87,0,0,0,2.53,5.22l.25.2A115.88,115.88,0,0,0,42.6,283.71a137.28,137.28,0,0,0,9.71,10.75,6.76,6.76,0,0,0,2.81,4.72,57.75,57.75,0,0,0,7.5,4.56,127.55,127.55,0,0,0,55.82,25.7c5.15,1,10.55,1.88,16.05,2.53,1.37.58,2.63,1.08,3.83,1.53A7.58,7.58,0,0,0,141,334a8.37,8.37,0,0,0,3.93-1c5.88.43,11.93.64,18,.64,8.25,0,16.87-.39,25.64-1.17h.54a8.59,8.59,0,0,0,2.08-.26c4.13-.4,8.17-.86,12-1.37,28.37-3.77,60.84-19.05,79-37.16A112.68,112.68,0,0,0,301.86,267l.3-.12A7.45,7.45,0,0,0,306.67,258.57ZM73.25,140.17c-2-2-4-4.26-6.17-6.67-.82-.93-1.65-1.87-2.49-2.8,2.79-1.61,5.72-3.07,8.79-4.6,1.58-.8,3.17-1.59,4.74-2.41,2.12-1.1,4.34-2.3,6.55-3.66C82.09,127.2,77.54,134,73.25,140.17Zm130.53-52.7a6.2,6.2,0,0,0-1.65-.23,6,6,0,0,0-5.36,8.69c.37.75.78,1.48,1.21,2.2-.9.25-1.78.54-2.64.86-7.94,3-15.65,10.32-17.23,19.57a29.88,29.88,0,0,0-9.09,5.59,47.92,47.92,0,0,0-17.47-4.62c-.56,0-1.13-.07-1.7-.08.47-1.51,1-2.94,1.51-4.33a7.91,7.91,0,0,0,2.08-2.41,7.08,7.08,0,0,0,.91-4,52.29,52.29,0,0,1,8.51-10.76h.28a8,8,0,0,0,5.76-2.54,7.07,7.07,0,0,0,1.9-4.25,49.32,49.32,0,0,1,15.06-7.78,6.84,6.84,0,0,0,2.22.36,8.17,8.17,0,0,0,4.4-1.33h.58c.52,0,1,0,1.53.07a23.75,23.75,0,0,1,9.7,2.94c.21.82.42,1.64.65,2.44Z"/>
    <g>
      <path class="cls-2" d="M148.35,107.14c6.37-12.53,23.45-26.88,37.51-30,15.66-3.45,27,4.82,37.27,16.68s15.38,27.28,19.38,42.46c4.84,18.36,7.69,40.89,10.06,59.74,5-3.14,9.11,2.09,15.42-6.35,1.07-19.3-1.51-41.09-4.81-60s-12.63-38-25.14-52.53c-20-23.26-46.43-24.69-73.63-14.08-25.95,10.13-43.58,35.51-51.16,62.32s-6.53,55.22-4.84,83c9.74,2.87,20.05,3.3,28.59,4A399.17,399.17,0,0,1,139.35,142C140.81,130,142.89,117.89,148.35,107.14Z"/>
      <g>
        <path class="cls-3" d="M212.26,236.38a20.67,20.67,0,0,0,31.27-18.31c5.89,1.24,11.1-4.26,13.46-9.81a36,36,0,0,0,1.35-24.11,25.36,25.36,0,0,0,10-34.63A18.82,18.82,0,0,0,249.61,120c.84-2.46-.31-5.26-2.2-7a18.83,18.83,0,0,0-6.84-3.65,135.56,135.56,0,0,0-18.88-5.18c-8-1.58-16.58-2.39-24.26.47s-14.17,10.28-13.57,18.45a23.82,23.82,0,0,0-16.94,32.56,24.3,24.3,0,0,0-5.81,39.55A17.71,17.71,0,0,0,173.47,224c.9,7.92,7.89,14.25,15.64,16.09S205.11,239.9,212.26,236.38Z"/>
        <path class="cls-4" d="M177.92,129.67A18.42,18.42,0,0,0,169.6,147c.27,2.33,1.17,4.83,3.23,5.95s4.34.58,6.48,0a33.77,33.77,0,0,0,9.19-3.66,15.11,15.11,0,0,0,6.37-7.38,11.73,11.73,0,0,0-14.71-15.16Z"/>
        <path class="cls-4" d="M159.09,167.92a19.87,19.87,0,0,0,1,18.78c1.35,2.15,3.49,4.2,6,4,3-.21,4.87-3.34,5.7-6.23a51.28,51.28,0,0,0,1.45-12.3c.13-3.47,0-7.54-2.86-9.52a6.51,6.51,0,0,0-6.77-.06A11.61,11.61,0,0,0,159.09,167.92Z"/>
        <path class="cls-4" d="M200.35,193.05c3-1.58,5.9-3.8,7-7,1.43-4-.31-8.45-2-12.39-1.6-3.66-3.46-7.61-7-9.43-4-2-8.82-.74-12.89,1.09-2.49,1.11-5.06,2.61-6.1,5.13s-.3,5.24.22,7.85a76.16,76.16,0,0,0,1.78,8.62,12.71,12.71,0,0,0,4.95,7.07C190.45,196.62,196,195.35,200.35,193.05Z"/>
        <path class="cls-4" d="M225.32,136.16c-.93-2.8-2.44-5.55-4.93-7.13-3.91-2.49-9-1.44-13.5-.31-2.3.57-4.77,1.25-6.28,3.09s-1.7,4.63-1.51,7.1a39,39,0,0,0,3,12.3c1,2.27,2.34,4.62,4.64,5.53s5.09.06,7.46-.93c4.78-2,9.75-4.9,11.49-9.78A15.27,15.27,0,0,0,225.32,136.16Z"/>
        <path class="cls-4" d="M242.24,171.17c1.1-5.25-2.57-10.73-7.51-12.83s-10.72-1.33-15.64.83c-2.75,1.2-5.52,3.09-6.29,6a10.1,10.1,0,0,0,.21,4.91,29.35,29.35,0,0,0,4.43,9.86c1.39,2,3.18,3.93,5.54,4.53,3,.76,6-.71,8.67-2.21C236.25,179.67,241.16,176.34,242.24,171.17Z"/>
        <path class="cls-4" d="M260.85,172.32a18.33,18.33,0,0,0,5.17-7.49,12.82,12.82,0,0,0-.1-9,7.61,7.61,0,0,0-3.75-4.15c-1.89-.83-4.06-.58-6.11-.29a22.69,22.69,0,0,0-5.93,1.4,8,8,0,0,0-4.36,4.08,9.72,9.72,0,0,0-.22,5.48,24.41,24.41,0,0,0,3.72,9,8.15,8.15,0,0,0,4,3.52C255.93,175.73,258.77,174.18,260.85,172.32Z"/>
        <path class="cls-4" d="M247.48,146.37A52.59,52.59,0,0,0,257.76,142c2-1.12,4.05-2.48,5-4.57,1.28-2.79.22-6.26-1.93-8.45a15.35,15.35,0,0,0-8.21-3.88,30.81,30.81,0,0,0-12.72.24c-2.42.57-5,1.64-6,3.9s-.1,5.12.66,7.62a41.76,41.76,0,0,0,1.86,5.6,8.18,8.18,0,0,0,4,4.21C242.59,147.62,245.16,147.08,247.48,146.37Z"/>
        <path class="cls-4" d="M194.32,123.79c1.24,1,3,.89,4.55.7a57.21,57.21,0,0,0,12.64-3c2.59-1,5.36-2.34,6.31-4.92,1-2.83-.64-6.09-3.15-7.75s-5.64-2-8.65-2.16a20.84,20.84,0,0,0-6.78.59,9.1,9.1,0,0,0-5.4,3.93c-1.25,2.16-1.26,4.8-1.23,7.3C192.63,120.4,192.78,122.61,194.32,123.79Z"/>
        <path class="cls-4" d="M238.56,206.17c1.22,2.43,3.2,4.72,5.86,5.24,3.13.61,6.26-1.46,8-4.12s2.45-5.85,3.37-8.9c.8-2.66,1.8-5.5,1-8.16-.89-2.86-3.83-4.75-6.81-5.09a15.67,15.67,0,0,0-8.67,2c-2.63,1.31-5.29,3.32-5.77,6.23a11,11,0,0,0,.37,4.11A37,37,0,0,0,238.56,206.17Z"/>
        <path class="cls-4" d="M211.63,220.91c2.37.29,4.69-.69,6.83-1.75,3.53-1.76,7-3.89,9.4-7s3.56-7.45,2.1-11.11a11.08,11.08,0,0,0-6.31-6,19.54,19.54,0,0,0-8.79-1,32.17,32.17,0,0,0-11.53,3.13c-1.86.9-3.76,2.14-4.44,4.09a8.11,8.11,0,0,0,.46,5.21,34.18,34.18,0,0,0,5.21,9.56C206.37,218.34,208.71,220.55,211.63,220.91Z"/>
        <path class="cls-4" d="M178,198.29c-3.8-1.15-8.13-1.13-11.52.93a7.65,7.65,0,0,0-3.88,5.82,9.84,9.84,0,0,0,1.48,5,32.91,32.91,0,0,0,5.74,7.73c1.42,1.42,3.11,2.77,5.1,2.94,3,.27,5.58-2.21,7.35-4.69a19.07,19.07,0,0,0,3.12-6.12,9.36,9.36,0,0,0-.56-6.73C183.47,200.66,180.75,199.12,178,198.29Z"/>
        <path class="cls-4" d="M198.29,217.44a9.69,9.69,0,0,0-6.8-1.59,12.58,12.58,0,0,0-10.17,8.43,6.59,6.59,0,0,0,.31,5.5,8,8,0,0,0,3.52,2.63,43.17,43.17,0,0,0,6.79,2.5,9.59,9.59,0,0,0,5.45.29c3.21-1,4.69-4.8,4.82-8.16C202.33,223.44,201.2,219.56,198.29,217.44Z"/>
        <path class="cls-4" d="M218.6,226.45a11.33,11.33,0,0,0-.57,4,3.88,3.88,0,0,0,2.07,3.25,5.4,5.4,0,0,0,3.21,0,24.53,24.53,0,0,0,8.35-3.13,13.46,13.46,0,0,0,5.62-6.77,3.44,3.44,0,0,0,.09-2.5c-.61-1.3-2.34-1.55-3.77-1.47C228.89,220.09,222.17,223.39,218.6,226.45Z"/>
        <path class="cls-5" d="M182.15,157.86a1.56,1.56,0,0,0-1-1.23c-1.21-.39-2.9-.23-3.46,1.1a.14.14,0,0,0,0,.06,1.16,1.16,0,0,0-.38.2,1.12,1.12,0,0,0-.37,1.36c.85,1.65,3.52,1,4.61,0A1.58,1.58,0,0,0,182.15,157.86Z"/>
        <g>
          <path class="cls-5" d="M189.28,154.75h0v0Z"/>
          <path class="cls-5" d="M191.5,152.79a4.38,4.38,0,0,0-.71.19,2.24,2.24,0,0,0-.78.62,5.58,5.58,0,0,0-.37.48,3,3,0,0,0-.27.45l-.06.1,0,.12h0c0,.16,0,.17,0,0a.69.69,0,0,0-.07.44,1.06,1.06,0,0,0,.22.48,1,1,0,0,0,.92.35,3.81,3.81,0,0,0,1.34-.73,3.36,3.36,0,0,0,.57-.56,1.88,1.88,0,0,0,.34-.94A.94.94,0,0,0,191.5,152.79Z"/>
        </g>
        <path class="cls-5" d="M195.32,149.05c0-.79-1.25-.82-1.51-.17a.91.91,0,0,0,.14,1,.69.69,0,0,0,.93.09A.93.93,0,0,0,195.32,149.05Z"/>
        <path class="cls-5" d="M175.56,188.42a2.76,2.76,0,0,0-2.25-.06,1.22,1.22,0,0,0-.7,1.46l-.06.05a3.68,3.68,0,0,0-.45.28l0,0a1.16,1.16,0,0,0,.27,2c1.4.52,3-.43,3.8-1.53A1.46,1.46,0,0,0,175.56,188.42Z"/>
        <path class="cls-5" d="M175.53,182.44a.9.9,0,0,0-1,1v.66c0,.75,1.22.8,1.46.16l.24-.63A.85.85,0,0,0,175.53,182.44Z"/>
        <path class="cls-5" d="M208.54,229.43c0-.53,0-1.06,0-1.58a1.73,1.73,0,0,0-.31-1.15,1.38,1.38,0,0,0-1.55-.41c-.66.21-.87.81-1.09,1.4-.16.43-.33.87-.47,1.31a1.71,1.71,0,0,0,1.41,2.33A1.8,1.8,0,0,0,208.54,229.43Z"/>
        <path class="cls-5" d="M231.25,186.68a4.42,4.42,0,0,0-1.76.42l-.05,0-.32,0-.23,0a1.37,1.37,0,0,0-.57,0,1.5,1.5,0,0,0-1.25,1.2,1.38,1.38,0,0,0,.89,1.46,5,5,0,0,0,2.23.23,4.85,4.85,0,0,0,1.06-.27,2.1,2.1,0,0,0,1.25-1.09C233,187.87,232.15,186.75,231.25,186.68Z"/>
        <path class="cls-5" d="M238.33,182.8c.07-.31-.22-.5-.49-.53a1.29,1.29,0,0,0-.28-.08,1.52,1.52,0,0,0-.7.15,1,1,0,0,0-.53,1.24.9.9,0,0,0,.53.5,1,1,0,0,0,1.17-.32,2.28,2.28,0,0,0,.24-.39C238.36,183.18,238.29,183,238.33,182.8Z"/>
        <path class="cls-5" d="M213.14,185.47a1.22,1.22,0,0,0-2.19,0c0,.07-.22.46-.14.34l-.16.24s-.33.38-.09.15l-.41.4-.1.12q.31-.27-.21.21a2.46,2.46,0,0,0-.44,1.07,1.4,1.4,0,0,0,1.25,1.54,2.4,2.4,0,0,0,2.53-1.64A3.4,3.4,0,0,0,213.14,185.47Z"/>
        <path class="cls-5" d="M208.68,190a4.09,4.09,0,0,0-1.64,1,.65.65,0,0,0,.64,1,4.21,4.21,0,0,0,1.68-.92C210,190.67,209.35,189.72,208.68,190Z"/>
        <path class="cls-5" d="M231.83,148.58a6.33,6.33,0,0,0,.2-2.2,1.53,1.53,0,0,0-.75-1.09.66.66,0,0,0-.34-.15,1.73,1.73,0,0,0-.31-.07,1.66,1.66,0,0,0-1.84,1.35,6.09,6.09,0,0,0,.06,2.29,1.49,1.49,0,0,0,1.68,1.19,1.58,1.58,0,0,0,1.18-.88h0A1.11,1.11,0,0,0,231.83,148.58Z"/>
        <path class="cls-5" d="M237.66,150a.91.91,0,0,0-1-.51,1.74,1.74,0,0,0-1.1.61c.14-.15-.06,0-.15.08l-.06,0a.91.91,0,0,0-.17.09.54.54,0,0,0-.31.85l.05,0c0-.11,0-.07.08.1a1.28,1.28,0,0,0,.43.3,1.82,1.82,0,0,0,.95.12A1.34,1.34,0,0,0,237.66,150Z"/>
        <path class="cls-5" d="M224.26,119.83v-.15h0a1.32,1.32,0,0,0-.32-.74,1.65,1.65,0,0,0-1.94-.42c-.75.2-1.13,1.42-1.51,2a1.45,1.45,0,0,0,1.78,2.16A3.12,3.12,0,0,0,224.26,119.83Z"/>
        <path class="cls-5" d="M228.35,125.77a1.49,1.49,0,0,0-1-.81,1.89,1.89,0,0,0-1.65.26.92.92,0,0,0-.3,1.1,1.86,1.86,0,0,0,1.31.89,1.73,1.73,0,0,0,1.51-.51A.87.87,0,0,0,228.35,125.77Z"/>
        <path class="cls-5" d="M232.23,118.75a2.16,2.16,0,0,0-1.4,1.89.57.57,0,0,0,.67.62,2.77,2.77,0,0,0,.48-.11,3.21,3.21,0,0,0,.61-.32,1.94,1.94,0,0,0,.81-1.24C233.58,118.91,232.74,118.57,232.23,118.75Z"/>
        <path class="cls-5" d="M190.75,205.43a1.08,1.08,0,0,0-1.87.5,14.18,14.18,0,0,1-.24,1.59,4.71,4.71,0,0,0-.26,2,1.53,1.53,0,0,0,2.43.9C192.27,209.15,191.83,206.84,190.75,205.43Z"/>
        <path class="cls-6" d="M193.34,167.76a24.63,24.63,0,0,0-4,1,8,8,0,0,0-2.47,1.1,11.26,11.26,0,0,0-2.23,1.7,1.56,1.56,0,0,0-.51,1.87c1.3,2.14,3.73,1.85,5.91,1.42,1.94-.38,5.79-1.29,6.67-3.32C197.83,169,195.74,167.44,193.34,167.76Z"/>
        <path class="cls-6" d="M188.7,176.77a1.82,1.82,0,0,0-2.4.34,2.67,2.67,0,0,0-.46.73l-.11.11a1.29,1.29,0,0,0-.17,1.32,1.69,1.69,0,0,0,.52.64,1.45,1.45,0,0,0,1.45.15l.51-.29a1,1,0,0,1,.21-.11,2.39,2.39,0,0,0,.77-.61A1.58,1.58,0,0,0,188.7,176.77Z"/>
        <path class="cls-6" d="M195.11,175.91a1.43,1.43,0,0,0-.34.31,1,1,0,0,0-.1.17.53.53,0,0,0,.17,1,2.5,2.5,0,0,0,.67,0,1,1,0,0,0,.77-.67A.75.75,0,0,0,195.11,175.91Z"/>
        <path class="cls-6" d="M212.62,130.68c-3.77-1.56-8.83,2.17-9.75,5.81a1.46,1.46,0,0,0,0,.42,5.8,5.8,0,0,0,0,2c.47,2.64,3.32,1.65,4.89.89a18.72,18.72,0,0,0,5.71-3.91C214.85,134.27,214.9,131.62,212.62,130.68Z"/>
        <path class="cls-6" d="M219.36,133.24a1.28,1.28,0,0,0-1.48-1.05,1.47,1.47,0,0,0-1.06.74v0a1.09,1.09,0,0,0-.05.78l0,.19a1,1,0,0,0,1.09.78l.36,0A1.29,1.29,0,0,0,219.36,133.24Z"/>
        <path class="cls-6" d="M216,137.89a.52.52,0,0,0-.6-.57,1,1,0,0,1-.3,0,.73.73,0,0,0-.56,1.29,1,1,0,0,0,1.26-.05A.63.63,0,0,0,216,137.89Z"/>
        <path class="cls-6" d="M212.69,142.28a1,1,0,0,0-.87-1.08,1,1,0,0,0-1.13.84l-.13.49a1.88,1.88,0,0,0,.08.74.86.86,0,0,0,.76.71.92.92,0,0,0,.93-.52l.24-.43A2.14,2.14,0,0,0,212.69,142.28Z"/>
        <path class="cls-6" d="M186.56,130.49a4.27,4.27,0,0,0-3.22-2.11c-2.08-.4-5.78,1.55-5.4,4-1.12.93-1.79,2.1-.19,3.2,1,.7,2.61.24,3.69,0a13.64,13.64,0,0,0,3.87-1.47C186.38,133.35,187.31,131.77,186.56,130.49Z"/>
        <path class="cls-6" d="M177.83,137.39a2.48,2.48,0,0,0-1.37.26,2.68,2.68,0,0,0-1.06,1c-.32.54.22,1.21.76,1.26a2.54,2.54,0,0,0,2.47-1.26C179,138.14,178.4,137.44,177.83,137.39Z"/>
        <path class="cls-6" d="M187.46,135.94a.63.63,0,0,0-1.11-.26,1.84,1.84,0,0,0-.41,1.26c0,.58.95.76,1.23.29A1.88,1.88,0,0,0,187.46,135.94Z"/>
        <path class="cls-6" d="M206.76,110.05c-3.12-1.3-7.28-.67-9.47,2a1.47,1.47,0,0,0-.26.47,2.17,2.17,0,0,0-.38.46,2.25,2.25,0,0,0,1.12,3.28c3.2,1,7.15-1.17,9.41-3.3A1.72,1.72,0,0,0,206.76,110.05Z"/>
        <path class="cls-6" d="M211,113l-.1,0a.37.37,0,0,0-.64.17c-.11.67.59,1,1.14.77S211.6,112.68,211,113Z"/>
        <path class="cls-6" d="M228.26,162.65a8.76,8.76,0,0,0-2-.41,2.22,2.22,0,0,0-1.71-.09c-.19,0-.39.11-.58.18a8.29,8.29,0,0,0-6.48,6.23c-.29,1.12.77,1.94,1.77,2.05a1.41,1.41,0,0,0,1.58.81c3.29-.9,6.13-3.4,8.16-6.07A1.74,1.74,0,0,0,228.26,162.65Z"/>
        <path class="cls-6" d="M250.71,129.81a13.59,13.59,0,0,0-14.5.3,1.89,1.89,0,0,0,.46,3.28c.31.09.61.17.92.24a3.76,3.76,0,0,0,1.18,1.36c1.63,1.1,4.16.57,5.94.31a11.49,11.49,0,0,0,6-2.52A1.84,1.84,0,0,0,250.71,129.81Z"/>
        <path class="cls-6" d="M169,166.1c.14-1.77-1.68-2.39-3-1.62a11.3,11.3,0,0,0-3.87,3.75,6.46,6.46,0,0,0-1.29,2c-.61,1.45-.77,3.44.52,4.49a2.14,2.14,0,0,0,1,.54C166.38,176.63,168.8,168.86,169,166.1Z"/>
        <path class="cls-6" d="M177.15,201.93c-2.89-1.21-7.84-.51-9.26,2.65a1.65,1.65,0,0,0-.57.72c-.58,1.32.52,2.34,1.6,2.85,1.39.64,3.44-.12,4.78-.52a7.56,7.56,0,0,0,4.22-3A1.76,1.76,0,0,0,177.15,201.93Z"/>
        <path class="cls-6" d="M218.45,200.46c-2.82-5.47-10.86-1.42-13.5,2.13a2,2,0,0,0-.37,1.28,11.07,11.07,0,0,0-.7,2.25,1.56,1.56,0,0,0,1.41,1.75C208.16,207.9,221.1,205.61,218.45,200.46Z"/>
        <path class="cls-6" d="M247.91,187.87a9.4,9.4,0,0,0-6.29,3.76c-1.38,1.1-2.36,2.79-1.69,4.19,1.54,3.27,7-.4,8.75-1.56a5.12,5.12,0,0,0,2.59-3.4C251.56,189,249.59,187.71,247.91,187.87Z"/>
        <path class="cls-6" d="M261.32,155c-.84-1.13-2.6-1-3.81-.94-1.43.11-3.52.27-4.7,1.17a3.37,3.37,0,0,0-1.08,1.31c-2.08,1.24-1.49,3.26-.35,5,1.75,2.68,5.1,3.75,7.46,1.13C260.5,160.87,263.09,157.44,261.32,155Z"/>
        <path class="cls-6" d="M242,138.11a1.81,1.81,0,0,0-.35-.09,1.07,1.07,0,0,0-.56.08c-.3.17-.32.18,0,0l-.19.11-.11.08a1.33,1.33,0,0,0-.42.51.44.44,0,0,0-.06.16,1.13,1.13,0,0,0-.32.83,1.34,1.34,0,0,0,.78,1.08l0,0a1.29,1.29,0,0,0,1.32-.19,2.07,2.07,0,0,0,.64-.88A1.34,1.34,0,0,0,242,138.11Z"/>
        <path class="cls-6" d="M256.48,130.5a1.62,1.62,0,0,0-1-.92.81.81,0,0,0-1.06,1,1.6,1.6,0,0,0,.93.94A.83.83,0,0,0,256.48,130.5Z"/>
        <path class="cls-6" d="M196.92,219.5l-.73-.83a2,2,0,0,0-1.82-.68,13.5,13.5,0,0,0-6.87,3.75c-2.41,1.18-3.63,5.37-.4,6.2,1.85.48,3.69-.82,5.17-1.79a20.15,20.15,0,0,0,4.67-4.36A1.82,1.82,0,0,0,196.92,219.5Z"/>
        <path class="cls-6" d="M228.61,222.72a9.82,9.82,0,0,0-4.05,2.24c-.89.68-2.43,1.62-2.57,2.83a.34.34,0,0,0,.22.36c1.23.37,2.61-.54,3.68-1.06a9.83,9.83,0,0,0,3.8-2.62A1.11,1.11,0,0,0,228.61,222.72Z"/>
        <path class="cls-7" d="M225.7,83.08c2,4.86,8.7,16.17,5.91,21.3-4.85-10.89-5.69-25.38-6-37.18A141.85,141.85,0,0,1,230,28.6c-.48,1.86,5.93,11.23,6.85,13.56a86.92,86.92,0,0,1,4.61,16,89.68,89.68,0,0,1,0,33.15,86.16,86.16,0,0,1-4.38,15.29c-1.7,4.41-.92,9.8-6,7.56-9.42-4.13-16.26-15.73-19.47-25-3.8-11-4.28-22.83-3.43-34.41C216.75,62,221.37,72.75,225.7,83.08Z"/>
        <path class="cls-7" d="M268.84,16.92c0,17.11,0,34.39-3.73,51.08s-11.7,33-25,43.69A147.05,147.05,0,0,1,268.84,16.92Z"/>
        <path class="cls-7" d="M300.41,49.23c-5.76,13.4-11.59,26.94-20.34,38.59s-20.85,21.44-35.1,24.51A105.87,105.87,0,0,1,300.41,49.23Z"/>
        <path class="cls-7" d="M244.58,113.65a5.12,5.12,0,0,1,1.45-1.52,139.73,139.73,0,0,1,58.82-26.84,73.1,73.1,0,0,1-35.32,33c-7.16,3.11-15.88,4.92-22.46.71C245.24,117.84,243.55,115.57,244.58,113.65Z"/>
        <path class="cls-7" d="M233.64,108.33a10.45,10.45,0,0,0,8.06,8.8,11.06,11.06,0,0,0,11.13-4.56,11.74,11.74,0,0,0,.41-12.1,12.49,12.49,0,0,0-10.53-6.12c-3.65,0-7.6,2-8.55,5.47Z"/>
        <path class="cls-7" d="M242,109.21a31.29,31.29,0,0,1-15.2,25.57c-.22.14-.51.27-.73.12s-.22-.46-.19-.72a45,45,0,0,1,4.42-15.08,24.72,24.72,0,0,1,4.1-6.18c1.37-1.45,3.34-1.52,3.45-4.17Z"/>
        <path class="cls-7" d="M207,117.72c5.6,1.21,11.44,1.77,17,.6s11-4.23,14-9.07A29.85,29.85,0,0,0,207,117.72Z"/>
        <path class="cls-7" d="M261,137.21a23.61,23.61,0,0,0-17.71-23.77c-1.51,5.25.39,11.08,3.95,15.22S255.86,135.46,261,137.21Z"/>
        <path class="cls-7" d="M202.13,93.24a29.19,29.19,0,0,0,22.48,15.64A42.75,42.75,0,0,0,202.13,93.24Z"/>
        <path class="cls-7" d="M255.86,119.43c1.74,4,5.95,6.65,10.3,7.3s8.79-.4,12.85-2.07A41.81,41.81,0,0,0,255.86,119.43Z"/>
        <path class="cls-8" d="M242,93.76c.92-5.22,1.85-11.51.4-16.7a.3.3,0,0,0-.59,0c-1,5-.78,10.25-1.61,15.3a74.6,74.6,0,0,1-2.12,9c-.68,2.33-1.82,4.6-1.89,7a.6.6,0,0,0,1.07.41C240.4,105.08,241.17,98.42,242,93.76Z"/>
        <path class="cls-8" d="M260.47,82.73c-2.65,5.44-5.67,10.78-8.67,16s-6.75,10.12-9.41,15.51c-.32.65.63,1,1.05.56,3.77-4.19,6.52-9.54,9.26-14.44A176.46,176.46,0,0,0,261,82.94C261.18,82.59,260.63,82.4,260.47,82.73Z"/>
        <path class="cls-8" d="M251,117.64c-9.91-2.23-19.57-4.43-28-10.43-.3-.22-.67.22-.37.46,8,6.29,17.88,11.43,28.39,10.8C251.56,118.43,251.49,117.74,251,117.64Z"/>
        <path class="cls-8" d="M272.75,94.79c-4.75,4.4-9.23,8.95-14.54,12.7-5.6,4-11.58,6.6-17.76,9.42-.76.35-.46,1.63.4,1.4,6.34-1.68,12.34-5.12,17.74-8.76,5.56-3.76,11-8.62,14.61-14.34C273.38,94.92,273,94.54,272.75,94.79Z"/>
        <path class="cls-8" d="M238.2,113.36c-3.86-2.7-5.12-6.4-6.5-10.71-1.7-5.3-3.24-10.7-4.58-16.1-.08-.32-.6-.26-.54.07,1.14,6,2.54,11.85,4.27,17.69,1.11,3.74,2.56,8.79,6.75,10C238.2,114.53,238.79,113.78,238.2,113.36Z"/>
        <path class="cls-8" d="M260,118.42a48.31,48.31,0,0,1-12.49-1.67.26.26,0,0,0-.21.48,22.26,22.26,0,0,0,12.7,2.63C260.82,119.78,260.85,118.43,260,118.42Z"/>
        <path class="cls-8" d="M265.1,115a21.47,21.47,0,0,0-7.2,1.48.32.32,0,0,0,.09.62,21.52,21.52,0,0,0,7.33-.54A.79.79,0,1,0,265.1,115Z"/>
        <path class="cls-8" d="M265.82,111a5.22,5.22,0,0,0-2.47,1.21.5.5,0,0,0,.39.88,5.4,5.4,0,0,0,2.62-.86A.69.69,0,0,0,265.82,111Z"/>
        <path class="cls-8" d="M275,109.51a7.23,7.23,0,0,0-3.47,1.9.46.46,0,0,0,.32.74,7.28,7.28,0,0,0,3.77-1.28A.75.75,0,1,0,275,109.51Z"/>
        <path class="cls-8" d="M226.31,94.7c-.39-1.27-.72-2.75-1.84-3.58a.33.33,0,0,0-.49.13,5.85,5.85,0,0,0-.06,3.54,15.67,15.67,0,0,0,1.5,4.48c.31.59,1.49.6,1.49-.21A14.31,14.31,0,0,0,226.31,94.7Z"/>
        <path class="cls-8" d="M227.31,105.13c-.38-.25-.72-.57-1.09-.84a11.45,11.45,0,0,0-1.09-.86.48.48,0,0,0-.64.09,1.79,1.79,0,0,0,0,1.89,2.65,2.65,0,0,0,2.08,1.33C227.48,106.83,228.13,105.67,227.31,105.13Z"/>
        <path class="cls-8" d="M238.84,74.59a.47.47,0,0,0-.79-.08c-1.17,1.75-.94,4.29-.94,6.3,0,1,1.59.87,1.72,0C239.12,78.9,239.72,76.4,238.84,74.59Z"/>
        <path class="cls-8" d="M233.82,92.49c-.12-.76-.13-1.52-.23-2.27a5.34,5.34,0,0,0-.37-2.08.64.64,0,0,0-.95-.22,3,3,0,0,0-.87,2.32,4.94,4.94,0,0,0,.79,2.69C232.63,93.67,234,93.47,233.82,92.49Z"/>
        <path class="cls-8" d="M235.25,100.41c-.08-.71-.2-1.39-.34-2.09-.07-.34-.66-.37-.68,0,0,.75-.06,1.48,0,2.23S235.32,101.07,235.25,100.41Z"/>
        <path class="cls-8" d="M254.33,84.15A.72.72,0,0,0,253,84a13,13,0,0,0-2.23,3.68,31.52,31.52,0,0,0-2.08,5.15,1.15,1.15,0,0,0,2,1.07C252.59,91.39,254.81,87.36,254.33,84.15Z"/>
        <path class="cls-8" d="M246.54,100.91c0-.28-.36-.32-.55-.21a8.41,8.41,0,0,0-2,2c-.69.88-1.37,1.75-1,2.89.17.55.87.64,1.33.49,1-.33,1.34-1.4,1.67-2.31A7.49,7.49,0,0,0,246.54,100.91Z"/>
        <path class="cls-8" d="M257.29,73.27c0-.33-.52-.35-.63-.08a13.49,13.49,0,0,0-.8,2.84c-.13.77,1.09.88,1.23.14A12.83,12.83,0,0,0,257.29,73.27Z"/>
        <path class="cls-8" d="M264.14,97.26a17.38,17.38,0,0,0-3,2.37,19.94,19.94,0,0,0-2.27,2.76.33.33,0,0,0,.4.49,30.29,30.29,0,0,0,3.22-1.62,15.4,15.4,0,0,0,3.16-2.64C266.51,97.71,265,96.72,264.14,97.26Z"/>
        <path class="cls-8" d="M271,91.73a7.81,7.81,0,0,0-.55.82,2.67,2.67,0,0,0-.27.84.22.22,0,0,0,.3.22,3.13,3.13,0,0,0,.73-.52,7.47,7.47,0,0,0,.63-.76C272.28,91.78,271.4,91.2,271,91.73Z"/>
        <path class="cls-8" d="M267.05,91.05a5.61,5.61,0,0,0,0-.58,5.66,5.66,0,0,1-.07-.81c.09-.6-.8-.66-.93-.11a1.69,1.69,0,0,1-.24.41,6.51,6.51,0,0,0-.33.71,3.72,3.72,0,0,0-.25,1.36c0,.83,1.18,1.2,1.49.37A4.53,4.53,0,0,0,267.05,91.05Z"/>
        <path class="cls-8" d="M278.75,82.61a10.5,10.5,0,0,0-3.05,3.44.52.52,0,0,0,.76.7,10.5,10.5,0,0,0,3.5-3A.83.83,0,0,0,278.75,82.61Z"/>
        <path class="cls-8" d="M250.84,126.45a19,19,0,0,0-1.75-1.84,8.13,8.13,0,0,1-.83-1,13.21,13.21,0,0,1-.9-1.22.33.33,0,0,0-.59,0,3.31,3.31,0,0,0-.4,1.55,4.12,4.12,0,0,0,.6,1.9,3.58,3.58,0,0,0,3.34,1.88A.79.79,0,0,0,250.84,126.45Z"/>
        <path class="cls-8" d="M255.33,130.28a1.89,1.89,0,0,0-.46-.34,1.16,1.16,0,0,1-.47-.41c-.27-.28-.79.09-.51.39.11.11.36.3.39.46a1.73,1.73,0,0,0,.35.58C255,131.51,255.92,130.75,255.33,130.28Z"/>
        <path class="cls-8" d="M235.77,119.86c-.26.39-.58.72-.86,1.09s-.51.77-.76,1.15c-.4.6.52,1.06.86.46l.68-1.2c.23-.39.36-.83.58-1.23S236,119.61,235.77,119.86Z"/>
        <path class="cls-8" d="M231.33,127.29a.27.27,0,0,0-.08.53A.27.27,0,0,0,231.33,127.29Z"/>
        <path class="cls-8" d="M222.14,115.54a6.53,6.53,0,0,0-2.07,0,8.78,8.78,0,0,0-1,.21,2.81,2.81,0,0,1-.9.3.3.3,0,0,0-.16.57c.3.12.54.47.85.63a3.07,3.07,0,0,0,1.23.32,3.22,3.22,0,0,0,2.43-.79A.72.72,0,0,0,222.14,115.54Z"/>
        <path class="cls-8" d="M227.33,113.14a3.23,3.23,0,0,0-1.16.53,1.91,1.91,0,0,0-.42.51,2.91,2.91,0,0,1-.25.42c-.27.24,0,.6.31.5a1.61,1.61,0,0,1,.38,0,2.79,2.79,0,0,0,.58-.07,2.55,2.55,0,0,0,1.24-.78C228.45,113.8,227.9,113,227.33,113.14Z"/>
        <path class="cls-9" d="M211.22,65.15c-1.25.11-1.5,1.74-1.66,2.72a8,8,0,0,0,.91,4.66,1.13,1.13,0,0,0,2.11-.3C212.76,70.94,213.65,64.94,211.22,65.15Z"/>
        <path class="cls-9" d="M212.73,79.75a.31.31,0,0,0-.59.17c.06,1.12-.3,2.69.92,3.3a.45.45,0,0,0,.53-.14C214.35,82,213.23,80.73,212.73,79.75Z"/>
        <path class="cls-9" d="M217.35,76.83a2.31,2.31,0,0,0-.72-1l-.46-.37a.86.86,0,0,0-.2-.13l-.25-.11c-.28-.29-.88,0-.68.39,0,.08,0,.32.06.45a6.6,6.6,0,0,0,.2.63,2.48,2.48,0,0,0,.83,1.12.84.84,0,0,0,1,0A.78.78,0,0,0,217.35,76.83Z"/>
        <path class="cls-9" d="M231.41,47.51c0-.36-.43-4.12-1.65-3.42-1.47.84-1.47,2.77-1.6,4.31a24.87,24.87,0,0,0,.41,7.15,1.17,1.17,0,0,0,2.28,0A27.62,27.62,0,0,0,231.41,47.51Z"/>
        <path class="cls-9" d="M230.63,65.2a2.77,2.77,0,0,0-.42-1.06,4.86,4.86,0,0,1-.64-1c-.1-.33-.69-.24-.71.1a3.87,3.87,0,0,1-.32,1,2.87,2.87,0,0,0-.19,1c0,.8.34,1.92,1.36,1.77S230.74,65.93,230.63,65.2Z"/>
        <path class="cls-9" d="M233.74,53.87c-.36-.22-1,0-.88.5.13.65.31,1.3.44,2a8.28,8.28,0,0,0,.68,2.29,1,1,0,0,0,1.87-.27A4.37,4.37,0,0,0,233.74,53.87Z"/>
        <path class="cls-9" d="M264.13,33a.86.86,0,0,0-1.37-.51c-2.15,1.77-3.15,5.13-3.55,7.78a1.29,1.29,0,0,0,2.31.88C263,38.93,264.6,35.7,264.13,33Z"/>
        <path class="cls-9" d="M264.3,46.12c-.08-.45-.41-.63-.56-1a.36.36,0,0,0-.65,0c-.1.2-.38.38-.53.59a6.41,6.41,0,0,0-.56,1.11,15.86,15.86,0,0,0-1,2.84c-.29,1.17,1.33,1.37,2,.74a5,5,0,0,0,1.37-2.66A4.65,4.65,0,0,0,264.3,46.12Z"/>
        <path class="cls-9" d="M255.26,53.68a.33.33,0,0,0-.53-.2,7.54,7.54,0,0,0-2.51,4.82,1.07,1.07,0,0,0,1.91.73A7.37,7.37,0,0,0,255.26,53.68Z"/>
        <path class="cls-9" d="M277.1,68.38C276,69.14,275,70,274,70.79c-.42.35-2.26,1.61-1.62,2.35s2.41-.11,3.13-.53a8.29,8.29,0,0,0,3.06-2.88A1,1,0,0,0,277.1,68.38Z"/>
        <path class="cls-9" d="M286.41,62a2.72,2.72,0,0,0-1.52.66l-.58.56a4.54,4.54,0,0,0-.36.6.46.46,0,0,0,.45.72,3.92,3.92,0,0,0,.76-.08l.7-.25a2.56,2.56,0,0,0,1.27-1A.74.74,0,0,0,286.41,62Z"/>
        <path class="cls-9" d="M283.1,71.32a4.41,4.41,0,0,0-.58.47c-.18.19-.35.36-.54.54s0,.69.32.51.44-.22.67-.31a5.84,5.84,0,0,0,.76-.45C284.28,71.73,283.61,70.93,283.1,71.32Z"/>
        <path class="cls-9" d="M281,98.94a24.07,24.07,0,0,0-2.82,1.64c-1,.72-1.72,1.83-2.71,2.59-.28.22,0,.7.32.52,1-.54,2.09-.82,3.1-1.28a14.3,14.3,0,0,0,3-2.12A.8.8,0,0,0,281,98.94Z"/>
        <path class="cls-9" d="M291.36,93.35a3.89,3.89,0,0,0-2,.64,10.21,10.21,0,0,0-1.64.76,1,1,0,0,0,0,1.55c1.3.84,4.1.32,4.7-1.2A1.27,1.27,0,0,0,291.36,93.35Z"/>
        <path class="cls-9" d="M215.83,102.91a7.58,7.58,0,0,0-4.8-2.67c-.46,0-1,.41-.72.9a7.37,7.37,0,0,0,4.36,3.24C215.51,104.62,216.52,103.74,215.83,102.91Z"/>
      </g>
      <g>
        <path class="cls-10" d="M113.5,76.6a.55.55,0,0,0,.32-.14.38.38,0,0,0,0-.45,1.09,1.09,0,0,0-.4-.27,10,10,0,0,0-4-1.22,3.53,3.53,0,0,0-3.42,2,8.12,8.12,0,0,0,3.74.65A24.51,24.51,0,0,0,113.5,76.6Z"/>
        <path class="cls-10" d="M111.24,68.5a1.5,1.5,0,0,0,.34-1c0-.44-.5-.71-.92-.82a6.81,6.81,0,0,1-1.28-.3,6.29,6.29,0,0,0,.77,9A9,9,0,0,1,111.24,68.5Z"/>
        <path class="cls-11" d="M92.18,115.33c1.46-7.75.59-15.84,2.33-23.54s7.34-15.53,15.23-15.91c4.5-.22,8.86,2.1,12,5.36s5.17,7.38,6.95,11.53c4.68,11,7.76,22.64,13.61,33,4.38,7.75,10.19,14.58,15.33,21.85s9.71,15.25,11,24.06-1.12,18.6-8,24.25c-5.91,4.84-14,6-21.68,5.77s-15.27-1.53-22.88-.83c-7.22.68-14.12,3.16-21.22,4.6S80,207.24,73.63,203.81c-9.83-5.29-13.49-18.17-11.41-29.14s8.6-20.5,15-29.67S90.11,126.31,92.18,115.33Z"/>
        <path class="cls-12" d="M154.92,183.73C150,188.9,142.07,190.09,135,189s-13.67-4-20.52-6.05c-9.41-2.77-20.2-4.28-26.28-12-5-6.32-5.19-15.68-1.37-22.76s11.16-11.9,19-13.7,16.14-.81,23.8,1.66c13.5,4.35,26.1,14.38,29.38,28.18C160.62,171.07,159.67,178.76,154.92,183.73Z"/>
        <path class="cls-12" d="M111.82,81.35c3.05.54,5.36,3,7.21,5.48a50.72,50.72,0,0,1,9.9,30.93c-.05,2.52-.4,5.27-2.22,7s-4.68,1.95-7.06,1.15a18.42,18.42,0,0,1-6.22-4.14c-5-4.53-9.72-9.7-12.26-16s-2.63-13.86,1.14-19.48C104.42,83.17,108.09,80.68,111.82,81.35Z"/>
        <path class="cls-13" d="M73.29,187.1c1,.13,1.63,1.19,2.24,1.9a15.4,15.4,0,0,1,1.79,2.79c.68,1.29-1.08,2.43-2.13,1.6a7.49,7.49,0,0,1-2.51-3.46C72.44,189.26,71.83,186.92,73.29,187.1Z"/>
        <path class="cls-13" d="M81.08,194.85a4.32,4.32,0,0,1,3.63,1.09,1,1,0,0,1-.7,1.75,4.34,4.34,0,0,1-3.31-1.9A.58.58,0,0,1,81.08,194.85Z"/>
        <path class="cls-13" d="M89.29,199.27a1.85,1.85,0,0,1,.76-.6c.28-.07.6,0,.86-.08s.74.28.49.59-.16.53-.3.76a1.74,1.74,0,0,1-.8.56C89.62,200.84,88.71,199.87,89.29,199.27Z"/>
        <path class="cls-13" d="M75.15,198.3a5,5,0,0,1,1.48.37,3.33,3.33,0,0,1,.73.49c.2.18.36.43.56.58a.41.41,0,0,1-.29.74,2.07,2.07,0,0,0-.43.1,3.45,3.45,0,0,1-2.46-.58,1,1,0,0,1-.59-.93A.88.88,0,0,1,75.15,198.3Z"/>
        <path class="cls-13" d="M68,172a.56.56,0,0,1,.76.1c1.33,1.42,1,4.06.42,5.72-.41,1.19-2.13.79-2.35-.29C66.48,175.88,66.49,173.21,68,172Z"/>
        <path class="cls-13" d="M73.49,177.91a.43.43,0,0,1,.81-.1,1.76,1.76,0,0,0,.49.66c.2.2.33.48.53.69.61.61-.41,1.56-1,1a2.66,2.66,0,0,1-.78-1A2.72,2.72,0,0,1,73.49,177.91Z"/>
        <path class="cls-13" d="M105.08,194.33a5.7,5.7,0,0,1,5.92.39.55.55,0,0,1,0,.88,5.56,5.56,0,0,1-5.6.75C104.73,196,104.2,194.85,105.08,194.33Z"/>
        <path class="cls-13" d="M95.89,194.22a6.54,6.54,0,0,1,2.93,1.21c.52.37,1.63,1.31.91,2-.54.49-1.4.26-2,.12a6.11,6.11,0,0,1-2.62-1.27A1.14,1.14,0,0,1,95.89,194.22Z"/>
        <path class="cls-13" d="M74.31,165.85a.79.79,0,0,1,1-.41l.07,0a.73.73,0,0,1,.48.71,6.27,6.27,0,0,1,.24,2.4,1.05,1.05,0,0,1-2.07,0A5.78,5.78,0,0,1,74.31,165.85Z"/>
        <path class="cls-13" d="M87,182.23a4.8,4.8,0,0,1,4,2.61.35.35,0,0,1-.19.47,4.9,4.9,0,0,1-4.78-1.4C85.31,183.2,86.17,182.16,87,182.23Z"/>
        <path class="cls-13" d="M155.2,192.15a13.91,13.91,0,0,1,2.14-2.13c.7-.59,1.28-1.46,2.23-1.66a.79.79,0,0,1,.75.3l.19.19a.4.4,0,0,1,.09.72,4.28,4.28,0,0,1-1.11,2.5,4.51,4.51,0,0,1-3.55,1.68A1,1,0,0,1,155.2,192.15Z"/>
        <path class="cls-13" d="M147.93,193.13a1.82,1.82,0,0,1,1.28,0l.07,0h.09l.16,0,.17.06a.44.44,0,0,1,.52.49,1.15,1.15,0,0,1-.62,1.26,1.49,1.49,0,0,1-2.18-.59A1,1,0,0,1,147.93,193.13Z"/>
        <path class="cls-13" d="M159.89,182.25c.16-.45.83-.23.81.21s0,.84-.08,1.25c-.12.8-1.32.5-1.12-.29A10,10,0,0,1,159.89,182.25Z"/>
        <path class="cls-13" d="M127.56,193.2a7.77,7.77,0,0,1,3.83.68c1,.42,2.57,1.12,3,2.24a.46.46,0,0,1-.24.6,5.39,5.39,0,0,1-2.91-.24,13.21,13.21,0,0,1-3.88-1.23C126.48,194.78,126.33,193.32,127.56,193.2Z"/>
        <path class="cls-13" d="M135.66,129.88a10.56,10.56,0,0,1,3.2,1.23,5.07,5.07,0,0,1,2.28,2,.63.63,0,0,1-.5.88,5.15,5.15,0,0,1-2.72-.45,8.37,8.37,0,0,1-3-1.72C134.1,131.17,134.48,129.64,135.66,129.88Z"/>
        <path class="cls-13" d="M128.8,129.92a1.25,1.25,0,0,1,.68-.62,2.87,2.87,0,0,1,1.4,0,.65.65,0,0,1,.48,1,5.29,5.29,0,0,1-.75.82,1.22,1.22,0,0,1-1.8-.39A1,1,0,0,1,128.8,129.92Z"/>
        <path class="cls-13" d="M133.21,122.13a.74.74,0,0,1,1.1.29,3.52,3.52,0,0,1-.27,2.36c-.29.86-1.67.46-1.58-.4A3.38,3.38,0,0,1,133.21,122.13Z"/>
        <path class="cls-13" d="M97.05,130.29a4.1,4.1,0,0,1,2.54-1.18,3.2,3.2,0,0,1,2.3.24.39.39,0,0,1,.14.45,2.69,2.69,0,0,1-1.45,1.46,4.26,4.26,0,0,1-2.75.73C97.12,131.92,96.44,130.9,97.05,130.29Z"/>
        <path class="cls-13" d="M96.85,114.46a12.81,12.81,0,0,1,1.57,4.44.77.77,0,0,1-1.47.38,12.92,12.92,0,0,1-.85-4.72C96.11,114.12,96.68,114.18,96.85,114.46Z"/>
        <path class="cls-13" d="M104.45,123.29l1,.65a5.38,5.38,0,0,1,.86.86c.59.63-.39,1.53-1,1a5.43,5.43,0,0,1-.91-.81l-.69-.91A.57.57,0,0,1,104.45,123.29Z"/>
        <path class="cls-13" d="M97.06,106.51a1,1,0,0,1,1.35.74c.09.33.19.67.26,1a.8.8,0,0,1-.5.88.91.91,0,0,1-1.14-.45c-.17-.32-.31-.64-.45-1A.9.9,0,0,1,97.06,106.51Z"/>
        <path class="cls-14" d="M124.21,150.17a7.16,7.16,0,0,1-2.33-1.69,2.66,2.66,0,0,1-.48-2.7c.5-1.06,1.79-1.45,2.93-1.68,4.26-.88,8.77-1.2,12.88.23s7.69,4.94,8.19,9.26a1.83,1.83,0,0,1-.45,1.69,2,2,0,0,1-1.31.25A48.16,48.16,0,0,1,124.21,150.17Z"/>
        <path class="cls-14" d="M112.35,149.06a16.54,16.54,0,0,1-7.68-1.17c-.58-.24-1.22-.6-1.33-1.22s.53-1.3,1.13-1.7a13,13,0,0,1,4.88-2.14,7.34,7.34,0,0,1,5.18.85,3.14,3.14,0,0,1,1.69,2.8,2.68,2.68,0,0,1-1.44,2A5.94,5.94,0,0,1,112.35,149.06Z"/>
        <path class="cls-14" d="M119.66,93.86a21.38,21.38,0,0,1,4.22,11.77c0,.78-.09,1.75-.82,2a1.92,1.92,0,0,1-1.7-.43,15.65,15.65,0,0,1-6.81-12.85,3,3,0,0,1,.49-1.92,2.22,2.22,0,0,1,2.57-.46A5.43,5.43,0,0,1,119.66,93.86Z"/>
        <path class="cls-14" d="M149.57,157.31a1.11,1.11,0,0,1,1.78-.72,4.13,4.13,0,0,1,.53,5.59,1.22,1.22,0,0,1-2.12-.55A20.88,20.88,0,0,1,149.57,157.31Z"/>
        <path class="cls-14" d="M156,165.73a15.49,15.49,0,0,1,.63,1.45.68.68,0,0,1-1.26.51,14.4,14.4,0,0,1-.51-1.66C154.69,165.34,155.73,165.17,156,165.73Z"/>
        <path class="cls-14" d="M124.21,140a5.43,5.43,0,0,1,4.29.17.61.61,0,0,1,0,1.12,5.41,5.41,0,0,1-4.28.29A.85.85,0,0,1,124.21,140Z"/>
        <path class="cls-14" d="M97.63,144.9c.18-.19.38-.36.57-.53s.45-.17.67-.3a.35.35,0,0,1,.55.3c0,.19.15.34.12.55a6.23,6.23,0,0,1-.18.94,2.54,2.54,0,0,1-1.06,1.41.83.83,0,0,1-1.31-.72A2.5,2.5,0,0,1,97.63,144.9Z"/>
        <path class="cls-14" d="M121.7,110.84c.1-.35.46-.63.61-1a.29.29,0,0,1,.55.14c0,.38.23.78.18,1.16a4.34,4.34,0,0,1-.26,1.12c-.28.71-1.32.37-1.3-.33A4.81,4.81,0,0,1,121.7,110.84Z"/>
        <path class="cls-14" d="M113.16,86.93a2.15,2.15,0,0,1,1.18.08c.29.1.51.3.8.39a.59.59,0,0,1-.28,1.14c-.19-.05-.57.28-.76.4a2,2,0,0,1-1.58.46.91.91,0,0,1-.78-.72C111.51,87.71,112.33,87.12,113.16,86.93Z"/>
        <path class="cls-13" d="M57.09,111c1.08-7.68,3.42-15.48,8.58-21.27C71.1,83.6,79,80.39,86.77,77.91s15.84-4.52,22.68-9c-6.72,11.5-8,25.93-16.36,36.28C88.42,111,81.93,115,75.35,118.37s-13.42,6.41-19.44,10.74A161.71,161.71,0,0,1,57.09,111Z"/>
        <path class="cls-15" d="M74.76,95.08C83.59,86.19,95,78.61,106,72.55c.37-.2.72.37.39.62-10,7.91-21.23,13.74-30.43,22.76A67.06,67.06,0,0,0,65.5,109.11c-3.36,5.56-4.6,11.42-6.11,17.64-.09.39-.62.15-.64-.16C58.29,114.81,66.89,103,74.76,95.08Z"/>
        <path class="cls-15" d="M82.57,107.88c.5-.46.92-1,1.39-1.48a4.68,4.68,0,0,1,1.4-1.3.57.57,0,0,1,.72.28.6.6,0,0,1,0,.68c-.27,1.24-1.6,2.33-2.52,3A.78.78,0,0,1,82.57,107.88Z"/>
        <path class="cls-15" d="M74.62,113.42a3.17,3.17,0,0,1,1-.88l1.15-.76a.47.47,0,0,1,.59.72l-1,.93a3.43,3.43,0,0,1-1.1.79A.54.54,0,0,1,74.62,113.42Z"/>
        <path class="cls-15" d="M71.42,112.32l.75-.89a3,3,0,0,1,1.09-.74.5.5,0,0,1,.65.61,4,4,0,0,1-.53,1c-.24.3-.56.56-.82.83a.73.73,0,0,1-1,.12A.67.67,0,0,1,71.42,112.32Z"/>
        <path class="cls-15" d="M61,102.09c.45-1.26,1-2.48,1.51-3.71a.44.44,0,0,1,.81.32c-.36,1.3-.76,2.56-1.22,3.83C61.85,103.22,60.75,102.78,61,102.09Z"/>
        <path class="cls-15" d="M59.61,109.33a.48.48,0,0,1,.9.23,7.83,7.83,0,0,1-.42,2.63c-.22.63-1.19.33-1.15-.29A7.63,7.63,0,0,1,59.61,109.33Z"/>
      </g>
      <g>
        <path class="cls-16" d="M182,199.55c9.8-14.5,12.57-34.16,4.91-49.9a43.8,43.8,0,0,0-35.79-24.13c-8.77-.57-17.54,1.6-25.68,4.93-6,2.45-11.86,5.61-16.5,10.16-14,13.76-16,36.95-7.2,54.17a50.53,50.53,0,0,0,30.7,24.95C150.07,224.88,172.2,214.09,182,199.55Z"/>
        <g>
          <path class="cls-17" d="M173.3,194.78a.13.13,0,0,1,0-.06.13.13,0,0,0,0,.05,1.59,1.59,0,0,0,.14-1.81,1.48,1.48,0,0,0-1.76-.58,5,5,0,0,0-2.73,3.7,1.67,1.67,0,0,0,.88,1.87,1.83,1.83,0,0,0,2.33-.86c.09-.15.18-.31.28-.46a2.57,2.57,0,0,0,.65-1.08c.06-.18.1-.36.15-.55a1.6,1.6,0,0,1,0-.21s0,0,0,0Z"/>
          <path class="cls-17" d="M173.3,194.78h0v0Z"/>
          <path class="cls-17" d="M173.3,194.79c0,.12.13-.15,0,0Z"/>
        </g>
        <path class="cls-17" d="M177.23,191.93a1.46,1.46,0,0,0-1.29,1.47,3.58,3.58,0,0,0,.08,1,2.11,2.11,0,0,0,.57,1,1.07,1.07,0,0,0,.82.26,1.23,1.23,0,0,0,1-.67,2.78,2.78,0,0,0,.2-2.1A1.29,1.29,0,0,0,177.23,191.93Z"/>
        <path class="cls-17" d="M162,203.4a3.1,3.1,0,0,0-1.51.65,7.13,7.13,0,0,0-1.2.71.66.66,0,0,0-.08.77,1.79,1.79,0,0,0,2,.75,2,2,0,0,0,1.89-1.95A1,1,0,0,0,162,203.4Z"/>
        <path class="cls-17" d="M177.41,179.24c-.43-.48-1.23-.05-1.34.49a4,4,0,0,0-.08,1.19,1,1,0,0,0,.06.35,1.1,1.1,0,0,0,1.41.68,1.21,1.21,0,0,0,.75-1.44A3.26,3.26,0,0,0,177.41,179.24Z"/>
        <path class="cls-17" d="M184.3,159.08a3.64,3.64,0,0,0-.73-1.1.88.88,0,0,0-1.4.52,2.14,2.14,0,0,0,0,.62,1.51,1.51,0,0,0-.31,1.88,1.33,1.33,0,0,0,.56.49l.07,0a1.41,1.41,0,0,0,2.5,0,2,2,0,0,0-.17-1.91A2,2,0,0,0,184.3,159.08Z"/>
        <path class="cls-18" d="M129.13,145.19c-1.19-.91-2.34-1.91-3.53-2.81-2.29-1.71-5.75-3.51-8.7-2.6-3.29,1-6.22,4.92-8,7.68-4,6.37-10.61,18.22-2.67,24.34,3.29,2.55,6.74,3.3,9.89,6.25l11,10.25c4.13,3.87,8.71,7.95,14.34,8.46,4.41.41,8.79-1.53,12.14-4.42a38.58,38.58,0,0,0,8-10.55c5.4-9.61,12.87-23.55,11.39-35-.27-3.78-4.14-9.81-8.63-8.83-1.95.42-4.31,2.29-6.18,3.12l-8.32,3.69c-5.43,2.41-11.64,4.85-17.13,2.56A16.59,16.59,0,0,1,129.13,145.19Z"/>
        <path class="cls-17" d="M164.05,194.65a1.09,1.09,0,0,0-1.3.29,3.63,3.63,0,0,0-.43.62c-.08.2-.16.41-.23.62a2.13,2.13,0,0,0,.1,2,1,1,0,0,0,1.14.38,2.83,2.83,0,0,0,1.31-3A1.07,1.07,0,0,0,164.05,194.65Z"/>
        <path class="cls-17" d="M149.05,213.23l-.4-.12h0a3.56,3.56,0,0,0-.8-.17,4.07,4.07,0,0,0-.78,0,3.36,3.36,0,0,0-1.12.37,1.64,1.64,0,0,0-.74,1.43,1.48,1.48,0,0,0,1.22,1.4,1.94,1.94,0,0,0,.48,0h.24a.91.91,0,0,1,.23,0,2.32,2.32,0,0,0,.58.13,1.78,1.78,0,0,0,1.8-.93,1.7,1.7,0,0,0,.11-1.23A1.46,1.46,0,0,0,149.05,213.23Z"/>
        <path class="cls-17" d="M142.32,204.83a.57.57,0,0,0-.57.3c-.73,1.22.36,2.88,1.49,3.37a1.13,1.13,0,0,0,1.41-1.6A3.9,3.9,0,0,0,142.32,204.83Z"/>
        <path class="cls-17" d="M157.73,211.59a1.64,1.64,0,0,0-1.56-.35,1.51,1.51,0,0,0-1.08,1.13.75.75,0,0,0,.23.73,1.78,1.78,0,0,0,.84.34,2,2,0,0,0,.77,0l.18,0,.22-.11h0A1,1,0,0,0,157.73,211.59Z"/>
        <path class="cls-17" d="M181.25,147.34c-1.09-1.69-3.95-.23-3.23,1.64a20.28,20.28,0,0,0,1.52,3.67h0s0,0,0,0a3,3,0,0,0,.2.29,1.52,1.52,0,0,0,1.39.68,1.57,1.57,0,0,0,1.47-1.56,1.6,1.6,0,0,0,.08-.58A8.55,8.55,0,0,0,181.25,147.34Z"/>
        <path class="cls-17" d="M179.91,155.12a.19.19,0,0,0-.07-.06.33.33,0,0,0-.4-.15l-.06,0h0a.84.84,0,0,0-.55.28,1.73,1.73,0,0,0-.35.85,1.76,1.76,0,0,0,.73,1.71.86.86,0,0,0,1.36-.92c-.15-.39-.13-.57-.29-1-.06-.15-.07-.31-.13-.45A.69.69,0,0,0,179.91,155.12Z"/>
        <path class="cls-17" d="M182.67,187.41l0,0a2.29,2.29,0,0,0-.31.18,1,1,0,0,0-.21.21l-.07.08h0c-.42.09-.43.62-.2.87a1.21,1.21,0,0,0,1,.4c.63,0,1-.7,1-1.24A.71.71,0,0,0,182.67,187.41Z"/>
        <path class="cls-17" d="M170.69,201.9a14.16,14.16,0,0,0-5.66,4c-.74.86-.52,2.75.88,2.81,2.43.09,6.44-1.17,6.55-4C173.6,203.54,172.47,201.21,170.69,201.9Z"/>
        <path class="cls-17" d="M184.25,171.94c-2.66.25-3.23,4-3.14,6.13a1.49,1.49,0,0,0,0,.36,2.1,2.1,0,0,0,1.07,2.32c2.56,1.14,4.31-2,4.73-4.07C187.33,174.88,186.72,171.71,184.25,171.94Z"/>
        <path class="cls-17" d="M182.32,167.94a1.33,1.33,0,0,0-.84.84l0,.06c.13-.17.1-.13-.08.13a2.58,2.58,0,0,0-.14.39.79.79,0,0,0,.25.78,1.25,1.25,0,0,0,1.29.12,1.37,1.37,0,0,0,.91-1.66A1.06,1.06,0,0,0,182.32,167.94Z"/>
        <path class="cls-17" d="M132.12,138.29a5.13,5.13,0,0,1-1.18-.35,1.92,1.92,0,0,0-1.64,0c-1.61,1,3.5,4.26,4.33,4.71a14.92,14.92,0,0,0,14.93-.29,15.38,15.38,0,0,0,3.18-2.5c.84-.87,2.23-1.33,2.89-2.29a1.41,1.41,0,0,0-.32-2c-1.09-.53-2.37,1.06-3.47.54-.53-.26-.73-.89-1-1.39-1-1.68-3.33-1.94-5.31-2a20.21,20.21,0,0,0-5.44.33,7,7,0,0,0-4.43,3c-.56.91-1,2.13-2,2.31A1.41,1.41,0,0,1,132.12,138.29Z"/>
        <path class="cls-19" d="M143.36,135.45c.06-2.07-.92-3.45-3.15-4.32a1.27,1.27,0,0,0-1.72.9,6.8,6.8,0,0,0,.68,4.06c-2.45.53-5.13,1.92-5.38,4.22a11.06,11.06,0,0,0-.73,1.06l.9.24c.78,1.56,3.7.89,5.74,0,.51,2.14,1.58,4.74,3.57,4,2.32-.82,2.54-3.56,2.07-5.83,2.49-.3,5.51-1.34,5.42-3.83C150.65,133,146.13,134.27,143.36,135.45Z"/>
        <path class="cls-20" d="M143.2,137.32c-.4.16-.7.48-1,.62a1.26,1.26,0,0,1-.87-.1,1,1,0,0,0-1,.09,1.54,1.54,0,0,0-.34.38l0,0a1,1,0,0,0,0,1c1.16,1.6,4.35,1.51,4.81-.69A1.17,1.17,0,0,0,143.2,137.32Z"/>
        <path class="cls-20" d="M141,132.3c-.24-.24-.6.17-.36.42a5.73,5.73,0,0,1,1,1.91.4.4,0,0,0,.76-.27A5.08,5.08,0,0,0,141,132.3Z"/>
        <path class="cls-20" d="M146.76,136.62a1,1,0,0,0-.64.31.63.63,0,0,0,0,.89.74.74,0,0,0,.48.22.75.75,0,0,0,.85-.59A.68.68,0,0,0,146.76,136.62Z"/>
        <path class="cls-20" d="M143.39,141.7a.48.48,0,0,0-.58,0,1,1,0,0,0-.42.78c0,.26,0,.57.35.63A.82.82,0,0,0,143.39,141.7Z"/>
        <path class="cls-20" d="M143.79,143.39a.88.88,0,0,0-.85-.17,1.15,1.15,0,0,0-.57.54.31.31,0,0,0,0,.32,2.4,2.4,0,0,0,.28.37,1,1,0,0,0,.67.23A.75.75,0,0,0,143.79,143.39Z"/>
        <path class="cls-20" d="M137.37,140a9.47,9.47,0,0,1-.91.43.3.3,0,0,0-.05.55,1.19,1.19,0,0,0,1.39-.05.56.56,0,0,0,.23-.61A.49.49,0,0,0,137.37,140Z"/>
        <path class="cls-21" d="M124.55,149.34a7.44,7.44,0,0,0-3.5-3.84,6.21,6.21,0,0,0-4.44-1,6.55,6.55,0,0,0-3.77,3.26,17.38,17.38,0,0,0-2.4,7.16,7.76,7.76,0,0,0,.3,3.49,3.67,3.67,0,0,0,2.44,2.35c1.36.33,2.73-.36,4-1a20,20,0,0,0,5.68-4A6.84,6.84,0,0,0,124.55,149.34Z"/>
        <path class="cls-21" d="M139.55,150.05c-2.34-.09-4.67-.16-7-.13-1.64,0-3.9,1.34-2.67,3.29.94,1.48,3.38,1.88,5,2.2a5.44,5.44,0,0,0,4.7-.88,3,3,0,0,0,1.82-2.86A1.71,1.71,0,0,0,139.55,150.05Z"/>
        <path class="cls-21" d="M148.53,148.37a2.13,2.13,0,0,0-1.37-.45,2.05,2.05,0,0,0-.81.16c-.87.31-1.75,1.34-1.37,2.31a1.34,1.34,0,0,0,1.06.94,2,2,0,0,0,.82-.1l.27,0,.3-.08.13,0a1.7,1.7,0,0,0,1.29-.89A1.49,1.49,0,0,0,148.53,148.37Z"/>
        <path class="cls-16" d="M132.66,180.71a2,2,0,0,0-1.32,1.64,2.61,2.61,0,0,0,.68,2,8.89,8.89,0,0,0,1.59,1.6,3.28,3.28,0,0,0,2.08,1.17,1.68,1.68,0,0,0,1.89-1.3C137.81,183.29,135.52,179.92,132.66,180.71Z"/>
        <path class="cls-16" d="M143.87,184.71a4.27,4.27,0,0,1,.24,1.18,1.64,1.64,0,0,1-1.47,1.67,1.44,1.44,0,0,1-1.58-1.4,2.42,2.42,0,0,1,.4-1.29,1.45,1.45,0,0,1,1.83-.78,1.12,1.12,0,0,1,.5.46h0a.42.42,0,0,0,0,.1Z"/>
        <path class="cls-16" d="M127.19,178.26a1.32,1.32,0,0,0-1.3.11,1.86,1.86,0,0,0-.77,1.28,3,3,0,0,0-.09.94,1.07,1.07,0,0,0,1.69.82,3.55,3.55,0,0,0,.65-.69,1.84,1.84,0,0,0,.52-1.38A1.27,1.27,0,0,0,127.19,178.26Z"/>
        <path class="cls-16" d="M160,165.87a1.77,1.77,0,0,0-2.16-.1,6.16,6.16,0,0,0-2.44,3.4,1.48,1.48,0,0,0,.65,1.73,1.5,1.5,0,0,0,1.92.85,4.66,4.66,0,0,0,2.43-2.28,4.79,4.79,0,0,0,.46-1.43,2.09,2.09,0,0,0-.21-1.49A4.19,4.19,0,0,0,160,165.87Z"/>
        <path class="cls-16" d="M154.77,164.73a4.07,4.07,0,0,0-.52.41,1.93,1.93,0,0,0-.37.71.81.81,0,0,0,.43.91,1.33,1.33,0,0,0,1.74-1.41A.81.81,0,0,0,154.77,164.73Z"/>
        <path class="cls-16" d="M163.84,145.27a2.7,2.7,0,0,1-1.52,3c-.88.45-2,1-3,.45A1.11,1.11,0,0,1,159,147h0a1.43,1.43,0,0,1,.23-.2,3,3,0,0,1,1.27-2.54C161.57,143.54,163.48,143.91,163.84,145.27Z"/>
        <path class="cls-16" d="M168.38,147.43l-.29-.2c.12.08.14.09,0,0a.82.82,0,0,0-1.14.1l-.06.06q.26-.21-.12.12a1.79,1.79,0,0,0-.38.48,1.59,1.59,0,0,0,.07,1.74,1.3,1.3,0,0,0,.82.55,1.31,1.31,0,0,0,1.25-.45,2.2,2.2,0,0,0,.4-.83,1.5,1.5,0,0,0-.21-1.13A1.69,1.69,0,0,0,168.38,147.43Z"/>
        <path class="cls-16" d="M117.14,169.42c-.32-.39-.56-.84-.92-1.21a1.51,1.51,0,0,0-2.44,1.25,2.5,2.5,0,0,0,.44,1.18,3,3,0,0,0,.7.73v0a3.55,3.55,0,0,0,.31.23,1.48,1.48,0,0,0,1.73-.39A1.47,1.47,0,0,0,117.14,169.42Z"/>
        <g>
          <path class="cls-16" d="M122.73,168.22l0,0Z"/>
          <path class="cls-16" d="M123.41,168.92a5.08,5.08,0,0,0-.47-.57c.08.07-.15-.08-.21-.13a.52.52,0,0,0-.52-.08,1.45,1.45,0,0,0-.8,1.61,1.57,1.57,0,0,0,.75,1.24,1.38,1.38,0,0,0,1.17.12.89.89,0,0,0,.57-.65A1.92,1.92,0,0,0,123.41,168.92Z"/>
        </g>
        <path class="cls-16" d="M138.2,160.88a.85.85,0,0,0-.52,1.43,2.29,2.29,0,0,0,2.37.52.69.69,0,0,0,.37-1A2.27,2.27,0,0,0,138.2,160.88Z"/>
        <path class="cls-18" d="M168.94,177.91a1.65,1.65,0,0,0-1.29.88,7,7,0,0,0-1,2.1,1.39,1.39,0,0,0,0,.41,3.77,3.77,0,0,0-.22.59,1.14,1.14,0,0,0,.62,1.31,2.67,2.67,0,0,0,3.15-1.31,3.26,3.26,0,0,0,.11-3.33A1.39,1.39,0,0,0,168.94,177.91Z"/>
        <path class="cls-18" d="M171.69,173.78a1.19,1.19,0,0,0-1.36,1.21,1.7,1.7,0,0,0,.21.79,1,1,0,0,0,1.35.25,2,2,0,0,0,.56-.67A1.09,1.09,0,0,0,171.69,173.78Z"/>
        <path class="cls-18" d="M163.6,188.51a.78.78,0,0,0-1.14.3.54.54,0,0,0,0,.55.75.75,0,0,0,1.15.12A.57.57,0,0,0,163.6,188.51Z"/>
        <path class="cls-18" d="M162.36,135.73a1.54,1.54,0,0,1-1.52.44c-1.21-.29-2.05-1.93-1.1-2.94a1.39,1.39,0,0,1,1.61-.37,1.55,1.55,0,0,1,.69.72A1.41,1.41,0,0,1,162.36,135.73Z"/>
        <path class="cls-18" d="M169.92,135a.9.9,0,0,0-1.18,0c-.73.84.67,2.37,1.46,1.48A1,1,0,0,0,169.92,135Z"/>
      </g>
      <g>
        <path class="cls-10" d="M31.1,113.07a1.34,1.34,0,0,1,2.19.78c.27,1.51-.34,3-.1,4.57s1.18,2.94,1.31,4.57a.63.63,0,0,1-.66.68C29.54,123.68,27.88,115.37,31.1,113.07Z"/>
        <path class="cls-11" d="M34.94,205.31c.52-11.59,2.32-23.91.48-35.37-1.74-10.8-8.38-20.36-10-31.19-.76-5.17-.09-11,3.73-14.61,4.38-4.1,11.48-3.76,16.89-1.15,9.36,4.52,15.83,14.56,23.18,21.66a161.53,161.53,0,0,0,27.87,21.59c6.55,4,13.43,7.59,19.25,12.61,11.93,10.3,17.86,29.5,2.91,40-7,4.89-14.4,4.86-22.06,7.26C90,228.38,84.57,236.82,79.45,242c-5.37,5.39-12.28,10.21-19.87,9.69-8.4-.58-15-7.56-19.08-14.92C35.07,227,34.45,216.47,34.94,205.31Z"/>
        <path class="cls-22" d="M51.9,131.31a207.35,207.35,0,0,0,34.47,30.42c12.21,8.57,25.69,16.13,34.42,28.23,2.78,3.85,5.08,8.35,4.84,13.09a16.51,16.51,0,0,1-6.2,11.53,29.53,29.53,0,0,1-12.11,5.62c-5.16,1.25-10.67,1.72-15.21,4.48-8,4.87-11,15.6-19,20.51-8.41,5.15-20.1,1.78-26.65-5.59s-8.78-17.66-9-27.52,1.35-19.68,1.29-29.53a90.1,90.1,0,0,0-5.3-29.79c-2-5.53-4.56-11.07-4.41-16.95.07-2.87.89-8.73,4.72-8.45a4,4,0,0,1,3,1.77,5.2,5.2,0,0,1,2.14-4.68C43.62,121.16,49.12,128.24,51.9,131.31Z"/>
        <path class="cls-23" d="M35.89,139c-.77-2.58-1.46-5.61.16-7.77,1.42-1.91,4.2-2.34,6.48-1.65,5.56,1.67,10.07,8.3,14.15,12.17q8,7.61,16.43,14.81,11.49,9.84,23.65,18.89c7.07,5.26,15.48,9.75,19.68,17.89,2.55,4.94,2.85,11.47-.77,15.69-2.7,3.16-7.09,4.45-11.24,4.36s-8.17-1.42-12.12-2.72C79.47,206.44,66,201.76,57.2,191.46c-5.35-6.3-8.43-14.16-11.24-21.92Q40.49,154.42,35.89,139Z"/>
        <path class="cls-24" d="M66.43,213.9a19.37,19.37,0,0,1-2.49-9,10.29,10.29,0,0,1,3.91-8.22,7.5,7.5,0,0,1,5.43-1.31c-1.06-1.93-2.11-3.85-3.2-5.71-3.92-6.67-7.83-13.35-11.79-20-8.11-13.58-17.18-27.08-23.6-41.55-.28-.64.67-1.26,1.1-.69,8.93,12,15.87,25.73,23.27,38.72,3.83,6.71,7.71,13.39,11.58,20.08,1.91,3.29,4,6.59,6.07,9.93,1-3.77,5.84-5.79,9.72-4.74,4.11,1.11,7.15,4.57,9.54,8.1A15.56,15.56,0,0,1,98.6,205a6.32,6.32,0,0,1-1.38,5.69c-2.52,2.56-6.71,1.54-10.33,2,.22.43.44.87.66,1.29a27.58,27.58,0,0,1,2.79,8,.81.81,0,0,1-1.52.48c-1.36-2.36-2.4-4.92-3.66-7.34-.29-.56-.61-1.12-.94-1.68a5.66,5.66,0,0,0-.82.48c-2.28,1.57-3.13,4.69-5.49,6.15a6.62,6.62,0,0,1-6.91-.44A14.2,14.2,0,0,1,66.43,213.9Z"/>
        <path class="cls-23" d="M49.2,196.93a2.32,2.32,0,0,1,2.86-3c2.74.62,5.56,2,6.71,4.71a1.39,1.39,0,0,1,.1.63A1.91,1.91,0,0,1,59,201l-.3.6A2.24,2.24,0,0,1,56.5,203,8.86,8.86,0,0,1,49.2,196.93Z"/>
        <path class="cls-23" d="M53.73,207.14a2.15,2.15,0,0,1,1.61-.12l.52.22a4.47,4.47,0,0,1,1.21.62,1.39,1.39,0,0,1,.57,1.29,1.58,1.58,0,0,1-.89,1.19,4.58,4.58,0,0,1-1.33.35,2.54,2.54,0,0,1-2.1-.27A1.92,1.92,0,0,1,53.73,207.14Z"/>
        <path class="cls-23" d="M46.89,204.55a1.39,1.39,0,0,1,.32-1.76,1.12,1.12,0,0,1,1.57.12,1.37,1.37,0,0,1-.09,1.78A1.06,1.06,0,0,1,46.89,204.55Z"/>
        <path class="cls-23" d="M66.71,232.34a2.71,2.71,0,0,1,3.46-1c.39,0,.78-.1,1.17-.19A1.83,1.83,0,0,1,73.12,234a5.12,5.12,0,0,1-5.5,1.48A2.07,2.07,0,0,1,66.71,232.34Z"/>
        <path class="cls-23" d="M58.3,231.53a1.69,1.69,0,0,1,.32-1.21,1.81,1.81,0,0,1,1.52-.71,2.22,2.22,0,0,1,1.61.76,1.89,1.89,0,0,1,.26,1.82,1.37,1.37,0,0,1-2,.66A1.57,1.57,0,0,1,58.3,231.53Z"/>
        <path class="cls-23" d="M62.85,240.21c.21-.48.71-.58,1.17-.71a2.68,2.68,0,0,1,1.69.24,1,1,0,0,1,.62,1,1.06,1.06,0,0,1-.87.9c-.28,0-.57,0-.86,0a2.38,2.38,0,0,1-1.06-.35C63.18,241.15,62.65,240.67,62.85,240.21Z"/>
        <path class="cls-10" d="M84,198.58a1.62,1.62,0,0,1,2.39,1c2,.61,3.48,2.91,4.13,4.71a1.93,1.93,0,0,1-2.38,2.49C85.59,205.91,80.19,200.91,84,198.58Z"/>
        <path class="cls-10" d="M73.08,210.4c-1.13-1.59-3.42-6.62-.54-7.72,1.95-.74,3.49.63,4.23,2.38a6.64,6.64,0,0,1,2.91,5.53,2.87,2.87,0,0,1-2.94,2.48C75.1,212.92,74,211.68,73.08,210.4Z"/>
      </g>
      <g>
        <path class="cls-25" d="M286,216a85.5,85.5,0,0,1-30,26.43c-23.94,12.33-55.5,10.66-75.69-7.15a6.62,6.62,0,0,1-2-2.58,3.65,3.65,0,0,1,0-2.42,5.65,5.65,0,0,1,2.26-2.89,16.4,16.4,0,0,1,5.9-1.88c22.89-4.54,42.16-20.24,56.84-38.38s25.64-39,38.63-58.35c2-3,4.49-6.21,8.07-6.64,4.88-.57,8.54,4.33,10.47,8.85,6.46,15.15,6.07,32.51,2.17,48.52A105.47,105.47,0,0,1,286,216Z"/>
        <path class="cls-25" d="M283.34,129.5c3-2.76,3-7.49,2.26-11.52a57.3,57.3,0,0,0-5-15.28,18.33,18.33,0,0,1,5.81-4.53c2.29-.94,5.22-.79,6.89,1a8.16,8.16,0,0,1,1.72,4.53,38.75,38.75,0,0,1-5.22,25.33Z"/>
        <path class="cls-26" d="M207.53,221.45c-6.85,3.29-27.6,5.27-19.28,8.18a59.32,59.32,0,0,0,36.15-2.16c11.72-4.38,25.8-13.79,34.13-23.13,31.83-35.71,40.42-78.5,28.88-77.7-3.88-1.66-20.59,36.35-33.48,52.72S226.31,212.41,207.53,221.45Z"/>
        <path class="cls-26" d="M280.94,102.59A8.68,8.68,0,0,0,293,98a10,10,0,0,0-12.07,4.61Z"/>
        <path class="cls-27" d="M291.39,123.93a4.29,4.29,0,0,1-1.3.46,4,4,0,0,1-1.65.1c-.24-.07-.52.2-.31.41s.42.48.66.69a2.42,2.42,0,0,0,1.2.37,3,3,0,0,0,2.39-.91C293.08,124.34,292.18,123.44,291.39,123.93Z"/>
        <path class="cls-27" d="M291.11,162.42a102.83,102.83,0,0,0,4.82-22.58c.34-4.32,1-13.22-4.36-14.88-.14,0-.33.06-.29.23.66,2.45,1.9,4.56,2.29,7.13.48,3.19.06,6.64-.2,9.84a84.35,84.35,0,0,1-4.14,20.93,99.58,99.58,0,0,1-22.84,37.53.12.12,0,1,0,.16.18A91.79,91.79,0,0,0,291.11,162.42Z"/>
        <path class="cls-27" d="M263.45,203.63s-.06,0,0,.06S263.49,203.65,263.45,203.63Z"/>
        <path class="cls-27" d="M237.78,225.4c-4.3,2.38-8.22,4.6-13,5.95a88,88,0,0,1-13,2.74,50.94,50.94,0,0,1-14.22-.3c-4.7-.75-9.31-3-14-3.37a.85.85,0,0,0-.59,1.55c3.58,2.64,9,3.19,13.33,3.62a80.77,80.77,0,0,0,14.67,0,56.67,56.67,0,0,0,27.2-9.73C238.4,225.69,238.07,225.24,237.78,225.4Z"/>
        <path class="cls-27" d="M259.22,210.45c-5.61,4.81-11.56,9.35-17.47,13.8-.2.15.06.4.25.28a100.35,100.35,0,0,0,17.44-13.83A.17.17,0,0,0,259.22,210.45Z"/>
        <path class="cls-27" d="M201.24,235.06l-1.76-.21A1.54,1.54,0,0,1,201.24,235.06Z"/>
        <path class="cls-27" d="M286,216a85.5,85.5,0,0,1-30,26.43c-23.94,12.33-55.5,10.66-75.69-7.15a6.62,6.62,0,0,1-2-2.58,3.65,3.65,0,0,1,0-2.42,150.61,150.61,0,0,0,21.19,4.57,1.62,1.62,0,0,0-.67.57,2.63,2.63,0,0,0,.07,2.69,6.5,6.5,0,0,0,2,1.94c17,11.92,43.84,5.35,60.49-4C270.69,230.85,278.69,223.81,286,216Z"/>
        <path class="cls-28" d="M182.58,230.56c.34-1.26.77-2.88,0-4.05a1.68,1.68,0,0,0-2.36-.55,4.34,4.34,0,0,0-2.23,1.72c-1.26,1.78-.86,4.1-.39,6.07.32,1.36,2.47,2.11,3.3.72A15.47,15.47,0,0,0,182.58,230.56Z"/>
        <path class="cls-27" d="M233,241.59a1.87,1.87,0,0,0-1.73-2c-.4,0-.8,0-1.2,0a4.15,4.15,0,0,0-1.94.33,1.68,1.68,0,0,0,.15,3.12,3.8,3.8,0,0,0,1.77.19l.88,0c.13,0,.21,0,.14,0l.18,0h.2A1.85,1.85,0,0,0,233,241.59Z"/>
        <path class="cls-27" d="M223.65,241.23a1.6,1.6,0,0,0-1.16-.55c-.83,0-1.76.58-1.6,1.55a1.26,1.26,0,0,0,1.63.9,1.87,1.87,0,0,0,1.17-.92A.78.78,0,0,0,223.65,241.23Z"/>
        <path class="cls-27" d="M239.89,239.44a2.21,2.21,0,0,0-1.55-1.53,4.71,4.71,0,0,0-1.65-.54,1,1,0,0,0-1.1.87c-.2,1.59,2.11,3.4,3.55,2.59A1.27,1.27,0,0,0,239.89,239.44Z"/>
        <path class="cls-27" d="M257.58,231.23a3.64,3.64,0,0,0-3.92,1.67,1.07,1.07,0,0,0-.1.41c-.21.15-.41.31-.59.45a1.84,1.84,0,0,0,1.58,3.19,7.57,7.57,0,0,0,4.43-2.86A1.84,1.84,0,0,0,257.58,231.23Z"/>
        <path class="cls-27" d="M249.35,233.31a.7.7,0,0,0-.76-.37,2.19,2.19,0,0,0-1.74,1.32,1.22,1.22,0,0,0,.47,1.44,1.35,1.35,0,0,0,1.81-.28A2.06,2.06,0,0,0,249.35,233.31Z"/>
        <path class="cls-27" d="M264.71,225.47a.85.85,0,0,0-.75-.65,2.61,2.61,0,0,0-1.81.34c-.26.17-.91.71-.61,1.08a1.76,1.76,0,0,0,1.39.49,2.9,2.9,0,0,0,1.5-.51A.76.76,0,0,0,264.71,225.47Z"/>
        <path class="cls-27" d="M258,221.51c.06-.2-.13-.43-.34-.31h0a1.24,1.24,0,0,0-1,.12c-.53.24-1,.58-1,1.21a.89.89,0,0,0,.82.94,1.48,1.48,0,0,0,1.42-.92A1.11,1.11,0,0,0,258,221.51Z"/>
        <path class="cls-27" d="M281,215.28a1.36,1.36,0,0,0-1.73-.6,3.85,3.85,0,0,0-1.81,1.53,4.79,4.79,0,0,1-.43.47,5,5,0,0,0-1.62,1.11,1.76,1.76,0,0,0,1.94,2.88C279.29,220,282,217.58,281,215.28Z"/>
        <g>
          <path class="cls-27" d="M283.79,209.43a2.31,2.31,0,0,0-1.78.2,2.39,2.39,0,0,0-1.16,1.75,1,1,0,0,0,.43.9,1.11,1.11,0,0,0,1.27,0l0,0,.18-.09a2.94,2.94,0,0,0,.64-.42l.42-.4a3.8,3.8,0,0,0,.42-.47A.93.93,0,0,0,283.79,209.43Z"/>
          <path class="cls-27" d="M283.83,211.3l0,0C283.86,211.27,283.86,211.28,283.83,211.3Z"/>
        </g>
        <path class="cls-27" d="M293.32,108.12a3.22,3.22,0,0,0-1-1.63,1.4,1.4,0,0,0-1.73-.09c-.69.7-.6,1.71-.67,2.64-.1,1.21.87,3,2.33,2.24A2.48,2.48,0,0,0,293.32,108.12Z"/>
        <path class="cls-27" d="M292.39,115.87h0a.29.29,0,0,0-.37-.42l-.09,0a1.87,1.87,0,0,0-1.84,2.41,1,1,0,0,0,1.77.38A2.91,2.91,0,0,0,292.39,115.87Z"/>
        <path class="cls-27" d="M289.79,113.29c-.13,0-.18,0-.3,0a.27.27,0,1,0-.2.51l.09,0a1.06,1.06,0,0,0,.12.2.51.51,0,0,0,.84-.13A.49.49,0,0,0,289.79,113.29Z"/>
        <path class="cls-27" d="M302.44,162.4a1.37,1.37,0,0,0-2.09.06,7,7,0,0,0-.75,2.58,5.21,5.21,0,0,0,0,2.66,1.37,1.37,0,0,0,2.16.75A4.59,4.59,0,0,0,302.44,162.4Z"/>
        <path class="cls-27" d="M299.92,159.61a2,2,0,0,0-.13-.9.37.37,0,0,0-.49-.24,2.74,2.74,0,0,0-.37.08,1.85,1.85,0,0,0-.51.3,2.94,2.94,0,0,0-.58,1c-.41.86,1,1.47,1.48.75A2.82,2.82,0,0,0,299.92,159.61Z"/>
        <path class="cls-27" d="M298.28,174.14c0-.24.07-.47.1-.7a1.87,1.87,0,0,0-.17-.88,2.47,2.47,0,0,0-.52-1.05c0-.26-.35-.28-.53-.16a1.61,1.61,0,0,0-1,1,2.32,2.32,0,0,0-.17,1.16,2.59,2.59,0,0,0,.61,1.11A1,1,0,0,0,298.28,174.14Z"/>
        <path class="cls-27" d="M297.52,186.88a14.56,14.56,0,0,1-.17-1.71.31.31,0,0,0-.56-.2c-.26.45-.77.65-1.09,1.05a2.88,2.88,0,0,0-.66,1.7,1.06,1.06,0,0,0,1.89.67A2.45,2.45,0,0,0,297.52,186.88Z"/>
        <path class="cls-25" d="M244.34,211.88c-1.3-1.48-3.41,0-4.52,1a1.88,1.88,0,0,0-.25,2.7,2.07,2.07,0,0,0,2.83.23l0,0C243.59,215.06,245.66,213.38,244.34,211.88Z"/>
        <path class="cls-25" d="M247.25,210.88a1.58,1.58,0,0,0,0-.75c-.16-.64-1.18-.83-1.41-.13a2,2,0,0,0-.1.94.79.79,0,0,0,.7.61A.78.78,0,0,0,247.25,210.88Z"/>
        <path class="cls-25" d="M236.2,216.34a1.16,1.16,0,0,1,0-.86.37.37,0,0,0-.58-.39c-1,.63-2.13,2-.9,2.95a1,1,0,0,0,1.33-.2A1.47,1.47,0,0,0,236.2,216.34Z"/>
        <path class="cls-25" d="M266.52,169a1.93,1.93,0,0,0-1.32-2,2.07,2.07,0,0,0-2.6,1.12c-.2.42-.34.86-.54,1.29a8.63,8.63,0,0,0-.82,1.21,1.82,1.82,0,0,0,.1,2.23,2,2,0,0,0,2.71.24A6.9,6.9,0,0,0,266.52,169Z"/>
        <path class="cls-25" d="M269.15,164a1.13,1.13,0,0,0-1.32,0c-.93.64-.82,2.12-.31,3a1.1,1.1,0,0,0,1.83.17A2.37,2.37,0,0,0,269.15,164Z"/>
        <path class="cls-25" d="M263,178.12a1.73,1.73,0,0,0-1.17-.48,2.41,2.41,0,0,0-.54.05c.18,0,.11,0-.2,0a.66.66,0,0,0-.33.12.93.93,0,0,0-.53,1c.12.57.58.83,1.07,1.06a1.63,1.63,0,0,0,1.17,0,1.44,1.44,0,0,0,.71-.71A1,1,0,0,0,263,178.12Z"/>
      </g>
      <g>
        <path class="cls-29" d="M231.22,246.75c-5.62,5.05-12,8.16-18.86,6.6-3.67-.84-6.92-3.67-10.68-3.38-4.4.33-7.52,3.06-12.18,2.81a12.34,12.34,0,0,1-8-2.88c-6.45-4.93-11.89-11.66-16.2-18.49-9.94-15.75-14.7-36.16-12.3-54.69,1.2-9.34,7.11-18.63,16.17-21.17,6.93-2,14.28.26,21.09,2.58,3.87,1.32,7.89,2.71,11.95,2.29,3.41-.36,6.55-1.94,9.72-3.24,15.39-6.25,34.51-5.12,43,11,8.72,16.5,3.27,36.24-4.9,51.79C246.32,227.18,239.65,239.16,231.22,246.75Z"/>
        <path class="cls-30" d="M251,193.21c-2.56,10-7.41,18.68-18,21.26-5.64,1.37-11.57.94-17.28-.12-17.83-3.3-36.31-12.28-43.84-29.76a17.26,17.26,0,0,1-1.63-8.58,9.31,9.31,0,0,1,4.44-7.25c3.15-1.71,7-.94,10.51-.12,8.13,1.92,16.51,3.9,24.75,2.57,5.79-.94,11.18-3.48,16.83-5.05s12-2.07,17.1.86c4.22,2.44,6.94,7,7.93,11.74A32,32,0,0,1,251,193.21Z"/>
        <path class="cls-31" d="M194,161.61c4.35,1.25,8.46,0,12.79.52a1.85,1.85,0,0,1,1.23.8c1.77-1,3.4-1.88,5.46-1.14a.35.35,0,0,1,.19.51c-1.8,2.83-5.65,4.83-8.81,5.68-4.26,1.15-8.79-1.28-12.44-3.14C190.41,163.82,192,161.05,194,161.61Z"/>
        <path class="cls-31" d="M182.44,238.54a2.6,2.6,0,0,1,3-.16,13.38,13.38,0,0,1,2.62,1.86,2,2,0,0,1,.58,1.27,2.29,2.29,0,0,1-.4,2.94c-1.41,1.26-3.18.44-4.37-.65a13.27,13.27,0,0,1-2-2.4A2.3,2.3,0,0,1,182.44,238.54Z"/>
        <path class="cls-31" d="M176.8,234.51c.08-.71.35-1.38,1.17-1.39a2.08,2.08,0,0,1,1.18.52,3.75,3.75,0,0,1,1.16,1.25,1.72,1.72,0,0,1-.77,2.36,1.91,1.91,0,0,1-2.48-.81,3.73,3.73,0,0,1-.29-1.28A3.58,3.58,0,0,1,176.8,234.51Z"/>
        <path class="cls-31" d="M193.39,240a1,1,0,0,1,1,.48,1.62,1.62,0,0,1-2,2.23,1,1,0,0,1-.67-.93A1.83,1.83,0,0,1,193.39,240Z"/>
        <path class="cls-31" d="M165.41,220.11a1.71,1.71,0,0,1,2.15-1A5,5,0,0,1,170,221a16.59,16.59,0,0,1,1.89,2.6,2.46,2.46,0,0,1-1.1,3.38,2.81,2.81,0,0,1-3.56-1.15,14.21,14.21,0,0,1-1.34-2.6A4.29,4.29,0,0,1,165.41,220.11Z"/>
        <path class="cls-31" d="M165,213.22a2,2,0,0,1,1.32-.46c.72,0,1.62.48,1.45,1.3l0-.14a1,1,0,0,1-.16.5c0-.06-.1.1-.18.2a6.56,6.56,0,0,1-.52.69,1.68,1.68,0,0,1-1.23.43,1.35,1.35,0,0,1-1.2-1.06A1.46,1.46,0,0,1,165,213.22Z"/>
        <path class="cls-31" d="M176.67,224.24a.52.52,0,0,1,.56-.22l0,0,.1,0,.14,0,.06,0,.07.07,0,0h0a1.25,1.25,0,0,1,.28.36,2.73,2.73,0,0,1,.17,1.07c0,.82-1.28.84-1.43.09A1.89,1.89,0,0,1,176.67,224.24Z"/>
        <path class="cls-31" d="M219.19,244.29a7.12,7.12,0,0,1,2.72-1l.21-.09a3.88,3.88,0,0,0,.63-.35c-.27.17.35-.28.32-.26.75-.63.13-.09.59-.39a1.83,1.83,0,0,1,3,1.38c.33,3.41-5.16,6.37-7.56,3.65A2.05,2.05,0,0,1,219.19,244.29Z"/>
        <path class="cls-31" d="M210,244.5a1.76,1.76,0,0,1,2.94-.55,3.33,3.33,0,0,1,.5.85l.13.31c.07.17.13.18.31.27a.36.36,0,0,1-.22.66.88.88,0,0,0-.69.23,3.64,3.64,0,0,1-.92.41A1.76,1.76,0,0,1,210,244.5Z"/>
        <path class="cls-31" d="M230,235.17a2.63,2.63,0,0,1,.82-.77l.23-.13c-.25.16-.17.12.22-.14.55-.25,1.41-.85,1.93-.44,1.92,1.51-.59,5.18-2.73,3.73A1.63,1.63,0,0,1,230,235.17Z"/>
        <path class="cls-31" d="M212.34,235.92a5.63,5.63,0,0,1,2.6.37c.51.22,1.56.74,1.33,1.48s-1.1.81-1.73.83A5.61,5.61,0,0,1,212,238,1.05,1.05,0,0,1,212.34,235.92Z"/>
        <path class="cls-31" d="M159.17,205.9a2.52,2.52,0,0,1,.7-1.44.38.38,0,0,1,.59,0,2.67,2.67,0,0,1,.89,1.33,4.69,4.69,0,0,1,.1,1.79,1.08,1.08,0,0,1-2.11.14A4.94,4.94,0,0,1,159.17,205.9Z"/>
        <path class="cls-31" d="M199.81,244.43a3.26,3.26,0,0,1,2.9-.24,1,1,0,0,1,.4,1.71,3.18,3.18,0,0,1-2.78.71,1.26,1.26,0,0,1-1.13-.92A1.14,1.14,0,0,1,199.81,244.43Z"/>
        <path class="cls-31" d="M182.91,232.74a4,4,0,0,1,4.69-.45.73.73,0,0,1,.1,1.16,7.4,7.4,0,0,1-1.78.83,6.24,6.24,0,0,1-2.25.46A1.16,1.16,0,0,1,182.91,232.74Z"/>
        <path class="cls-31" d="M167.67,205.49a6,6,0,0,1,4.66,3.65.94.94,0,0,1-.76,1.14,6,6,0,0,1-5.19-2.83A1.34,1.34,0,0,1,167.67,205.49Z"/>
        <path class="cls-31" d="M236.75,225.74a9.49,9.49,0,0,0,2.74-1.45.68.68,0,0,1,1.11.52,3.05,3.05,0,0,1-3.39,2.85,1.1,1.1,0,0,1-1-.81A1,1,0,0,1,236.75,225.74Z"/>
        <path class="cls-30" d="M187.43,210.19a3.69,3.69,0,0,1,3.65-.32c1.16.49,2.56,1.08,3.11,2.3a.94.94,0,0,1-.21,1.16c-1.94,1.28-5.82.62-6.83-1.6A1.24,1.24,0,0,1,187.43,210.19Z"/>
        <path class="cls-30" d="M184.59,206.56a1.72,1.72,0,0,1,1.25,1.27c.06.49,0,1-.51,1.21a1.73,1.73,0,0,1-2.09-1.31A1,1,0,0,1,184.59,206.56Z"/>
        <path class="cls-30" d="M163.19,174.89a4.15,4.15,0,0,1,2-2.63,1.84,1.84,0,0,1,2.52,1.17,2.84,2.84,0,0,1,0,1.39c-.06.31-.12.74-.21,1.21a4.21,4.21,0,0,1-1.33,2.39,1.68,1.68,0,0,1-2.27-.16A3.54,3.54,0,0,1,163.19,174.89Z"/>
        <path class="cls-30" d="M165.19,183.4a1,1,0,0,1,1.12-.36,5.43,5.43,0,0,1,2.26,2.46,1.22,1.22,0,0,1-1.5,1.69,3.09,3.09,0,0,1-1.9-1.51A2.29,2.29,0,0,1,165.19,183.4Z"/>
        <path class="cls-29" d="M228.27,208.21a5,5,0,0,1,2.28-.9c.67-.11,1.34-.63,2.16-.71a1.42,1.42,0,0,1,1.63,1c.47,3.11-4.82,5.13-6.37,2.24A1.33,1.33,0,0,1,228.27,208.21Z"/>
        <path class="cls-29" d="M221.8,208a2,2,0,0,1,2,.59,2.18,2.18,0,0,1,.62,1.08.61.61,0,0,1-.49.92,2.29,2.29,0,0,1-1.16.14,2,2,0,0,1-1.83-1.47A1.05,1.05,0,0,1,221.8,208Z"/>
        <path class="cls-29" d="M184,193.56a4.09,4.09,0,0,1,2.8,1.54,5.71,5.71,0,0,1,1.61,2.58,1.11,1.11,0,0,1-1.17,1.34,5.59,5.59,0,0,1-2.63-1.08,4.27,4.27,0,0,1-2.14-2.63A1.46,1.46,0,0,1,184,193.56Z"/>
        <path class="cls-29" d="M178.48,185.41a1.88,1.88,0,0,1,1.4.74,1.81,1.81,0,0,1,.26,1.85,1,1,0,0,1-1.24.59,2,2,0,0,1-1.39-1.8C177.5,186.29,177.82,185.31,178.48,185.41Z"/>
        <path class="cls-29" d="M241.94,198.77a9.27,9.27,0,0,1,2.18-2.32.72.72,0,0,1,.95.31c1.25,2.16-.53,6.27-3.08,6.51a1.4,1.4,0,0,1-1.66-1.35A5.07,5.07,0,0,1,241.94,198.77Z"/>
        <path class="cls-32" d="M229.22,169.87c3.11-1.05,6.32-2.4,9.44-.77,2,1,2.16,3.12,1.67,5.11a6.65,6.65,0,0,1,0,4c-.88,3.34-4.69,5-7.82,4.8s-8.24-3.16-8.88-6.36C222.83,172.53,225.88,171,229.22,169.87Z"/>
        <path class="cls-32" d="M204.82,175.47a24,24,0,0,1,8.47-.95,2.51,2.51,0,0,1,2.06,3.67,2,2,0,0,1-.58,1.41c-2.68,2.93-7.8,2.38-10.72.15A2.35,2.35,0,0,1,204.82,175.47Z"/>
        <path class="cls-32" d="M243.27,177.73l0-.07a1.32,1.32,0,0,1,.23-.42,1.77,1.77,0,0,1,1.39-.81,2.21,2.21,0,0,1,2.15,1.94,2.39,2.39,0,0,1-.36,1.82,2.12,2.12,0,1,1-3.45-2.46Z"/>
        <path class="cls-32" d="M239.63,184.68a1.93,1.93,0,0,1,.81-.93,2.58,2.58,0,0,1,1.19-.2.63.63,0,0,1,.6.63,2.1,2.1,0,0,1-.24,1,2.13,2.13,0,0,1-1.12.81A1,1,0,0,1,239.63,184.68Z"/>
        <path class="cls-32" d="M193.52,174a2.81,2.81,0,0,1,1.75.58,2,2,0,0,1,.59.69c0,.18,0,.26.11.24s.21.65.06.28a.51.51,0,0,1-.35.73c.4-.13-.28.12-.26.12a1.8,1.8,0,0,1-1.19.06,2.74,2.74,0,0,1-1.55-1A1,1,0,0,1,193.52,174Z"/>
        <path class="cls-3" d="M203.48,143.94a2.33,2.33,0,0,1,2.58-.83,1.37,1.37,0,0,1,.82.39l.18.25a2.25,2.25,0,0,1,.24,2.64c-3.13,6-4.37,10.72-3.44,17.44a.64.64,0,0,1-1.19.39C199.33,158.24,199.52,149.54,203.48,143.94Z"/>
      </g>
      <g>
        <path class="cls-29" d="M175.25,171.78a556.13,556.13,0,0,1-65,44.22c10.28,9.2,23.93,15,37.71,14.35s27.39-8.38,33.66-20.67S185.63,180.87,175.25,171.78Z"/>
        <path class="cls-22" d="M173.79,171.27a4.42,4.42,0,0,0-2,.6q-35.07,17.06-69.3,35.79a52,52,0,0,0,17.67,15.92,39.78,39.78,0,0,0,23.18,4.62c11.63-1.4,22.17-8.81,28.21-18.84s7.72-22.4,5.48-33.89C176.65,173.59,175.71,171.32,173.79,171.27Z"/>
        <path class="cls-33" d="M130.27,198.72c-.22,2.18,1.61,4.11,3.65,4.89a10.81,10.81,0,0,0,7.21-.07,25.24,25.24,0,0,0,6.44-3.47c2.81-1.94,5.69-4.34,6.39-7.69a4.41,4.41,0,0,0-.85-3.95,4.2,4.2,0,0,0-3.36-1.1,12.7,12.7,0,0,0-3.5,1c-4.38,1.72-8.81,3.46-12.7,6.12C132,195.49,130.46,196.87,130.27,198.72Z"/>
        <path class="cls-3" d="M148.58,192.7a2.66,2.66,0,0,0-2.64-1.74c-2.16-.13-5.38.77-6.67,2.77a4,4,0,0,0-.56.53A2.31,2.31,0,0,0,140,198.1c2.87.79,6.13-.84,8.05-2.89A2.54,2.54,0,0,0,148.58,192.7Z"/>
        <path class="cls-23" d="M131.37,206.5c-2.51-.85-4.9-2.1-7.5-2.59s-5.61-.08-7.35,1.92c-1.93,2.22-1.65,5.75,0,8.2s4.29,4,7,5.16a27.81,27.81,0,0,0,13.7,2.42,17.63,17.63,0,0,0,12.11-6.38c1.14-1.48,2-3.5,1.2-5.19a4.3,4.3,0,0,0-3.18-2.15,15.9,15.9,0,0,0-4,0A31.1,31.1,0,0,1,131.37,206.5Z"/>
        <path class="cls-23" d="M161,199.46a11.79,11.79,0,0,0-7.2,8.3,2.79,2.79,0,0,0,.43,2.66,2.73,2.73,0,0,0,1.81.58,10.3,10.3,0,0,0,9.58-6.12,5.91,5.91,0,0,0,.53-3,3.3,3.3,0,0,0-1.59-2.51A4.34,4.34,0,0,0,161,199.46Z"/>
        <path class="cls-31" d="M173.42,215.28a3.45,3.45,0,0,0-3.65.81,6,6,0,0,0-2,2.52c-.34,1,.68,1.74,1.56,1.78a6.52,6.52,0,0,0,3-1,3.12,3.12,0,0,0,1.87-2.83A1.43,1.43,0,0,0,173.42,215.28Z"/>
        <path class="cls-31" d="M175.81,211.78a2,2,0,0,0-.68,1.23c-.11.4.41.56.65.32a1.91,1.91,0,0,0,.74-1.09A.46.46,0,0,0,175.81,211.78Z"/>
        <path class="cls-31" d="M181.52,196.17a.92.92,0,0,0-1.54.11,4.07,4.07,0,0,0-.11,3.66,1.13,1.13,0,0,0,2.13-.14A4,4,0,0,0,181.52,196.17Z"/>
        <path class="cls-31" d="M177.56,204.57a3.79,3.79,0,0,0-.93,1.77.91.91,0,0,0,1.71.57,3.64,3.64,0,0,0,.47-1.93A.72.72,0,0,0,177.56,204.57Z"/>
      </g>
      <path class="cls-34" d="M119.61,323.56c-30.25-6-54.17-21.24-72.35-43.63s-26.8-50.79-23.77-78.29c94.56,14.17,191.56,11.23,286.52-.6,2.72-.34,3.69,52.65-32,88.37-17.76,17.77-49.09,31.95-75.49,35.46C175.05,328.51,147,329,119.61,323.56Z"/>
      <path class="cls-2" d="M317.28,191.2c1.15,6.55-6.21,11.57-12.76,14.71-40.06,19.17-85.39,29.25-130.85,30.19a367.09,367.09,0,0,1-133-22.56c-6-2.19-12-4.6-16.73-8.53a19.77,19.77,0,0,1-7-15.39c0-8.36,8-11.66,19.58-12.25l-.62,8.74a397.9,397.9,0,0,0,263.32-.61l.51-4.95C307.15,181.83,316.11,184.53,317.28,191.2Z"/>
      <path class="cls-2" d="M194.66,56.74c-9.77,0-19.95,2.33-30.25,6.34-25.95,10.13-43.58,35.51-51.16,62.32s-6.53,55.22-4.84,83c9.74,2.87,20.05,3.3,28.59,4A399.17,399.17,0,0,1,139.35,142c1.46-12,3.54-24.07,9-34.82,6.37-12.53,23.45-26.88,37.51-30a31.5,31.5,0,0,1,9.38-.7A120.62,120.62,0,0,1,194.66,56.74Z"/>
      <path class="cls-35" d="M142.81,324.09c-42.13-13.66-69.68-52.45-65.8-98.37.23-2.72-4.31-1.22-4.38.94a104.68,104.68,0,0,0,67.79,101.22C142.45,328.64,145.41,324.94,142.81,324.09Z"/>
      <path class="cls-35" d="M160.26,324a121.22,121.22,0,0,1-24-88.15c.33-2.66-4.32-1.19-4.37.95-.81,32.53,5.63,64.59,24.43,89.94C157.73,328.58,161.66,325.8,160.26,324Z"/>
      <path class="cls-35" d="M189,324.09a101.91,101.91,0,0,0,65.8-98.37c-.09-2.73,4.31-1.22,4.38.94,1.41,44.75-27.23,83.91-69.11,99.63C188,327.05,186.41,325.05,189,324.09Z"/>
      <path class="cls-35" d="M171.52,324c19.15-25.05,29.71-57.48,25.87-88.78-.32-2.66,2.21-.55,2.47,1.58a123.87,123.87,0,0,1-24.43,89.94C174,328.56,170.12,325.8,171.52,324Z"/>
      <path class="cls-34" d="M135.22,205.29c-9.28,2.6-18-3.36-27.32-3-1.31.05-2.59,2.43-.82,2.36,9.61-.34,18.32,5.66,28,3C136.42,207.2,137,204.78,135.22,205.29Z"/>
      <path class="cls-34" d="M136.69,188.27a30.66,30.66,0,0,1-27.9-16.06c-.65-1.2-3,.42-2.35,1.64a32.39,32.39,0,0,0,29.42,16.78C137.18,190.6,138.46,188.22,136.69,188.27Z"/>
      <path class="cls-34" d="M137.43,167.31a40,40,0,0,1-26-27.2c-.4-1.44-2.94-.13-2.58,1.14A41.69,41.69,0,0,0,136,169.59C137.23,170,139,167.82,137.43,167.31Z"/>
      <path class="cls-34" d="M139.93,139.54a43.41,43.41,0,0,1-16.83-34.7c0-1.63-2.62-.73-2.63.57A45.16,45.16,0,0,0,138,141.58C139,142.39,141.11,140.46,139.93,139.54Z"/>
      <path class="cls-34" d="M148.24,108.73a38.36,38.36,0,0,1-2.42-34.16c.67-1.63-2-1.24-2.5,0a40.27,40.27,0,0,0,2.57,35.84C146.58,111.56,148.94,109.94,148.24,108.73Z"/>
      <path class="cls-34" d="M178.38,58.35A35.72,35.72,0,0,0,162.2,91c.13,1.64,2.72.72,2.62-.57a32.9,32.9,0,0,1,14.74-30.41C181.06,59.07,179.86,57.38,178.38,58.35Z"/>
      <path class="cls-34" d="M204,56.31a28.1,28.1,0,0,0-16.61,20.56c-.3,1.55,2.39.68,2.63-.57a24.51,24.51,0,0,1,14.5-17.92C206,57.75,205.76,55.57,204,56.31Z"/>
      <path class="cls-34" d="M54.1,221a28.78,28.78,0,0,1-15.92-34.19c.48-1.72-2.14-1.32-2.49,0-4.08,14.72,2.53,29.78,16.46,36.26C53.34,223.57,55.4,221.58,54.1,221Z"/>
      <path class="cls-34" d="M87.23,229.34a33.8,33.8,0,0,1-19-33.4c.13-1.62-2.52-.72-2.62.57a35.3,35.3,0,0,0,19.64,34.86C86.46,232,88.52,230,87.23,229.34Z"/>
      <path class="cls-34" d="M126.06,239.44c-10-8.82-22.06-20.58-17.28-35.28.56-1.69-2.08-1.29-2.49,0-5.08,15.58,7.15,27.89,17.82,37.35C125.09,242.34,127.19,240.44,126.06,239.44Z"/>
      <path class="cls-34" d="M161.22,237.51a29.34,29.34,0,0,1-19.88-30.8c.15-1.62-2.51-.72-2.63.56a31,31,0,0,0,21.08,32.51C161,240.21,162.77,238,161.22,237.51Z"/>
      <path class="cls-34" d="M195.34,236.69a29.53,29.53,0,0,1-15.73-27.93c.1-1.63-2.55-.73-2.63.56a31.1,31.1,0,0,0,16.41,29.4C194.55,239.34,196.62,237.37,195.34,236.69Z"/>
      <path class="cls-34" d="M238.87,236.79a36.24,36.24,0,0,1-23-32.13c-.06-1.64-2.68-.73-2.62.57a37.91,37.91,0,0,0,24.22,33.84C238.65,239.54,240.4,237.39,238.87,236.79Z"/>
      <path class="cls-34" d="M272,225.7A30.51,30.51,0,0,1,250.64,200c-.17-1.43-2.73-.17-2.58,1.14A32.07,32.07,0,0,0,270.59,228C271.83,228.36,273.58,226.18,272,225.7Z"/>
      <path class="cls-34" d="M305,213.66a28,28,0,0,1-21.13-22.19c-.27-1.44-2.83-.16-2.58,1.14a29.62,29.62,0,0,0,22.27,23.32C304.86,216.23,306.61,214,305,213.66Z"/>
      <path class="cls-35" d="M305.17,219.73c-17.11,15.32-39.35,22.05-61.68,25.19-24.81,3.48-50.34,3.61-75.35,4s-50.41,1.13-75.14-2.67c-23.82-3.67-45.83-13.89-67.46-24.05-1.19-.56-3.25,1.43-1.95,2,21.9,10.28,43.93,20.31,68,24.28,25.47,4.21,52,3.16,77.67,2.73s52.15-.77,77.76-4.61c21.82-3.26,43.31-10.85,59.94-25.74C308.35,219.66,306.34,218.69,305.17,219.73Z"/>
      <path class="cls-35" d="M299.32,259.24c-43.08,18-90.29,20-136.38,20.37-45.24.36-94.82-.39-131.59-30.6-1-.83-3.11,1.08-2,2,37.08,30.46,87.11,31.24,132.72,30.92,46.54-.32,94.22-2.49,137.72-20.67C301.32,260.68,301.06,258.51,299.32,259.24Z"/>
      <path class="cls-35" d="M245.9,308.45c-31.71,3-63.76,1.23-95.52-.06-15.87-.65-31.74-1.62-47.53-3.35-14.75-1.62-29.95-3.9-42.27-12.77-1.08-.77-3.17,1.17-2,2,10.74,7.72,23.56,10.5,36.44,12.25,16.79,2.28,33.77,3.26,50.69,4,33,1.49,66.39,3.34,99.32.23C246.36,310.69,247.64,308.29,245.9,308.45Z"/>
    </g>
  </g>
</svg>
