<svg id="Layer_1" data-name="Layer 1" xmlns="http://www.w3.org/2000/svg" width="171.27" height="317" viewBox="0 0 171.27 317">
  <defs>
    <style>
      .cls-1 {
        fill: #ff0;
      }

      .cls-2 {
        fill: #85401d;
      }

      .cls-10, .cls-11, .cls-12, .cls-2, .cls-3, .cls-4, .cls-5, .cls-6, .cls-7, .cls-8, .cls-9 {
        fill-rule: evenodd;
      }

      .cls-3 {
        fill: #b66e32;
      }

      .cls-4 {
        fill: #c67b41;
      }

      .cls-5 {
        fill: #de8c50;
      }

      .cls-6 {
        fill: #9e572f;
      }

      .cls-7 {
        fill: #b36b47;
      }

      .cls-8 {
        fill: #b06137;
      }

      .cls-9 {
        fill: #323232;
      }

      .cls-10 {
        fill: #4b4b4d;
      }

      .cls-11 {
        fill: #5c5d60;
      }

      .cls-12 {
        fill: #77787b;
      }
    </style>
  </defs>
  <g>
    <path class="cls-1" d="M12.47,313.73a15.33,15.33,0,0,0,7.22,2,9.32,9.32,0,0,0,8-4c.11-.17.21-.35.31-.53l7-13.25a6.24,6.24,0,0,0,.54-1.46,24.91,24.91,0,0,0,.5-3.2L158.12,61.34c8.75-16.59,10.51-29.71,5.36-40.1-5.37-11.39-19.56-20-33-20a28,28,0,0,0-6.65.78,34,34,0,0,0-16.36,9.06C100.62,18,96.82,28.37,96.43,41a6,6,0,0,0,.89,3.33c2,3.23,6.25,5.32,10.87,5.32a12.91,12.91,0,0,0,9.15-3.57,6,6,0,0,0,1.79-4.22,42.11,42.11,0,0,1,.61-7.73C120.82,29,125.13,23.63,131,23.63a9.55,9.55,0,0,1,1.41.1,14,14,0,0,1,10,6.9c1.56,3,2.5,7.94-4.21,20.11L16,282.77A25.76,25.76,0,0,0,13.68,285a6.24,6.24,0,0,0-.89,1.28l-7,13.24c-.09.18-.18.37-.26.56C3.54,305.08,6.38,310.68,12.47,313.73Z"/>
    <g>
      <path class="cls-2" d="M152.81,58.54c6.33-12,10.23-24.73,5.27-34.69-5-10.75-20.79-18.9-32.84-16a28.14,28.14,0,0,0-13.53,7.45c-6.3,6.4-9,15.83-9.28,25.85,1.52,2.48,7.53,3.74,10.7.63a46.54,46.54,0,0,1,.74-8.92c1.9-9,9.84-16.45,19.38-15.09a20,20,0,0,1,14.51,10c3.29,6.26,2.23,14-4.26,25.8L13.1,301.23c-1.2,3.43,7.22,8,9.32,4.91L152.81,58.54Z"/>
      <path class="cls-3" d="M151.7,58C158,46,161.77,34.12,157,24.26,151.86,13.68,136.82,6.35,125.3,9.11c-15.91,4-21.06,17.54-21.56,31.93a7.59,7.59,0,0,0,8.18.31c.1-9,1.29-16.44,10.19-22.33s21.1-1.11,26.33,7.52c4.21,7,2.67,15.91-3.83,27.68C104,131.36,55,224.4,14.36,301.54c-.61,2.31,5.58,5.69,7.09,3.73C62.07,228.13,111.07,135.09,151.7,58Z"/>
      <path class="cls-4" d="M151.14,57.66c6.32-12,9.49-22.72,4.7-32.58C150.71,14.5,138.2,7.79,126.68,10.55c-15.86,3.94-20.36,17.24-20.74,31.53a7.39,7.39,0,0,0,5.37-.41c0-9.41.88-17.77,10-23.79C130.21,12,143.8,16.8,149,25.43c4.2,7,3.75,17.9-2.75,29.67C105.66,132.24,56.66,225.29,16,302.42c-.61,2.31,3.63,3.81,4.86,2.56,40.62-77.14,89.63-170.19,130.25-247.32Z"/>
      <path class="cls-5" d="M150.48,57.31c6.33-12,9.28-23.3,4.49-33.17-5.13-10.58-16.46-14.45-28-11.7-14.07,2.85-18.87,15.78-19.37,29.94a7.16,7.16,0,0,0,3.49-.62c0-9,1-17.83,9.26-23.28,8.91-5.9,24.9-2.18,30.12,6.44,4.2,6.94,3.31,18.95-3.19,30.72C129.53,89.39,73.73,196.72,16.23,304.47a8.27,8.27,0,0,0,3,1.31C76,197.74,132.72,91,150.48,57.31Z"/>
      <path class="cls-6" d="M15.91,304.23c.22.17.46.34.7.49,4.52-10.45,10.32-25.1,14.1-34.23l-4.57,8.68c-2.19,6.15-7.27,18.06-10.23,25.06ZM52.5,229.12l-10.21,19.4c9.76-15.69,40.68-69.63,48.6-85.36,5.38-10.68,21.82-37,27-47.72-5.94,8.58-25.25,42.15-28.19,48-5.76,11.44-24,43.2-37.23,65.69Z"/>
      <path class="cls-7" d="M99.22,157.6c5.21-10.84,13.1-27.82,15.93-34.29-5.79,10.46-15,31.31-20.67,41.87-2.39,4.46-6.17,12.21-10.53,21.41l15.27-29Z"/>
      <path class="cls-7" d="M35.73,277.87c-3.89,4.63-5.94,2.45-5-3,.48-2.86,2.18-6.9,4-10.76A163.18,163.18,0,0,1,48.94,240c-3.64,6.45-10.77,18.09-14.18,26.07A31.91,31.91,0,0,0,32,275c-.38,4.24,2.2,3.94,3.7,2.84Z"/>
      <path class="cls-6" d="M45,249c-2.51,3.32-8.27,14.38-9.38,17-3.05,7.14-.7,7.87.11,7.61,2.89-.95,9.09-14.85,13.15-21.73C52.74,245.33,58,230.63,69.66,209c-12.41,19.13-15.75,31.72-20.1,39.33-5,8.72-10.12,20.75-13.06,23.21-.86.72-1.82-.54-.15-5.31.88-2.5,6-12.56,8.66-17.23Z"/>
      <path class="cls-7" d="M38.69,265.47c7.19-11.79,10.67-23.26,15.45-33.26,3.27-6.85,32.33-54.18,46.74-85.85-14.69,35.69-42.18,78.44-46,86.28-6.47,13.08-11.59,27.6-16.14,32.83Z"/>
      <path class="cls-7" d="M126.39,88.83c-7.06,14.54-20.27,39.77-26.82,51.49-1,1.85-3.72,6.71-6.86,12.45l-13.22,25.1c-.18.39-.35.75-.49,1.08,5.13-8.85,16.07-28.69,21.08-37.66,7.7-13.8,25.13-45.45,30-57.34,2-4.8,5.17-11.56,9.1-19.36L126.39,88.83Z"/>
      <path class="cls-7" d="M149.36,43.56a47.48,47.48,0,0,1-1.94,5c3.52-6.64,7.45-13.94,5.13-21.23a33.65,33.65,0,0,1-3.19,16.18Z"/>
      <path class="cls-6" d="M96.93,159.54c6.17-17.19,33.17-62.06,41.32-78.68,6.16-12.57,13.8-25.62,17.29-38.29a39.69,39.69,0,0,0,1.15-17.93c7.17,16.2-14.63,50.25-17.65,56.42-7.84,16-34.93,63.22-42.11,78.48Z"/>
      <path class="cls-3" d="M146.16,60.13C133,85.88,119.6,111.55,110.61,125.69c8.35-15.68,21.52-41.55,34.54-67,4.73-9.23,13.79-23.47,6.92-36.75,9,12.25-3,32.5-5.91,38.23Z"/>
      <path class="cls-3" d="M18.91,305.71c4-7.12,10.13-19.49,11.34-24.82-2.36,6-8.63,18-12.35,24.49a6.61,6.61,0,0,0,1,.33Z"/>
      <path class="cls-8" d="M111.54,41.56c-.05-9.68,1.23-17.76,10.35-24.07C129.78,12,142,16.11,148.1,23c-6.77-10.36-21.45-10.59-27.1-6.69-9.39,6.49-10.46,15.5-10.33,25.68a8.31,8.31,0,0,0,.87-.39Z"/>
      <path class="cls-3" d="M112.67,22.79c1.52-4.34,5.83-6.3,9.66-8.84,5.35-3.54,12.76-2,18.45.74,6.83,3.34,10.12,10.18,10.82,17,.15-9.75-4.54-15-10.87-18.12-6-3-12.76-4-18.84,0-1.48,1-9.41,5.11-9.22,9.26Z"/>
      <path class="cls-7" d="M108.62,42.39c0-4-.1-10.88,2.28-17.66-3.33,4.89-3.15,11.78-3.12,16.89v.77a7.66,7.66,0,0,0,.83,0Z"/>
      <path class="cls-6" d="M105.33,41.87a75,75,0,0,1,6.21-24.63,26.49,26.49,0,0,0-1.67,2.16c-2.25,5.14-5.1,13.36-5.27,22.14.24.12.48.23.73.33Z"/>
      <path class="cls-8" d="M123.34,9.66c6.33-.41,14.42,1.23,18.41,3.19,6.83,3.33,12.68,9.07,13.62,13.64-.69-7.46-7-11.8-13.33-14.89-3.26-1.59-8.73-2.8-14-2.95a21.74,21.74,0,0,0-2.7.46c-.67.17-1.32.35-2,.55Z"/>
      <path class="cls-7" d="M109.26,25.76c4.25-9.24,11.18-14,17.41-15.43-10.17.9-15.29,7.85-17.41,15.43Z"/>
      <path class="cls-9" d="M22.64,308.39c2.71-5.16,4.26-8.1,7-13.25a16.1,16.1,0,0,0,.42-3.39,12.42,12.42,0,0,1-5.12-1.66,12.41,12.41,0,0,1-4.27-3.29,16.77,16.77,0,0,0-2.56,2.27l-7,13.25c-.9,2.24,1.38,4.74,4.14,6.1s6,2,7.38,0Z"/>
      <path class="cls-10" d="M22.1,307.29l6-11.31c-2.58-.2-6-2-8.4-4l-6.9,13.11a8.29,8.29,0,0,0,2.91,2.29c2.32,1.31,5.25,1.68,6.43-.12Z"/>
      <path class="cls-11" d="M22.16,293.77l-7,13.35a5.61,5.61,0,0,0,.54.29,8.19,8.19,0,0,0,3.66,1.11l6.81-12.92a18.85,18.85,0,0,1-4-1.83Z"/>
      <path class="cls-10" d="M28.57,295.25a12.91,12.91,0,0,0,.34-2.88,16.74,16.74,0,0,1-6.86-3.17l-2,2.26c2.25,1.74,6.27,3.87,8.49,3.79Z"/>
      <path class="cls-11" d="M27.37,292A18.25,18.25,0,0,1,24,290.5c-.3.62-1,1.64-1.45,2.61a20.34,20.34,0,0,0,4,1.81l.8-2.91Z"/>
      <path class="cls-12" d="M26.76,291.8c-.41-.16-.84-.34-1.26-.53-.31.89-1.06,2.56-1.14,2.78.53.25,1.07.48,1.58.66.28-1,.55-1.94.82-2.91Z"/>
      <path class="cls-12" d="M23.92,294.72l-7,13.28a8.35,8.35,0,0,0,1.69.46l6.89-13.08c-.52-.19-1.05-.41-1.58-.66Z"/>
    </g>
  </g>
</svg>
