<svg id="Layer_1" data-name="Layer 1" xmlns="http://www.w3.org/2000/svg" width="291.17" height="280.11" viewBox="0 0 291.17 280.11">
  <defs>
    <style>
      .cls-1 {
        fill: #ff0;
      }

      .cls-2 {
        fill: #c8ba7f;
        stroke: #785f3e;
      }

      .cls-12, .cls-15, .cls-16, .cls-2, .cls-4, .cls-5, .cls-7, .cls-9 {
        stroke-linecap: round;
        stroke-linejoin: round;
      }

      .cls-3 {
        fill: #b39761;
      }

      .cls-4 {
        fill: #f58c6d;
        stroke: #d76c4f;
      }

      .cls-5 {
        fill: #f37e5b;
        stroke: #984225;
      }

      .cls-6 {
        fill: #f79e77;
      }

      .cls-7 {
        fill: #e9ddab;
        stroke: #927951;
      }

      .cls-8 {
        fill: #f6efd2;
      }

      .cls-9 {
        fill: #d86c27;
        stroke: #993120;
      }

      .cls-10 {
        fill: #fbb345;
      }

      .cls-11 {
        fill: #fde349;
      }

      .cls-12 {
        fill: #dcad80;
        stroke: #a46938;
      }

      .cls-13 {
        fill: #fcc99e;
      }

      .cls-14 {
        fill: #ffdfb4;
      }

      .cls-15 {
        fill: #9a663a;
      }

      .cls-15, .cls-16 {
        stroke: #5b2b1a;
      }

      .cls-16 {
        fill: #834229;
      }

      .cls-17 {
        fill: #aa5834;
      }

      .cls-18 {
        fill: #d68d51;
      }
    </style>
  </defs>
  <g>
    <path class="cls-1" d="M32.92,269.35a97.4,97.4,0,0,0,21.44-2.47c22.92-5.52,33.35-20.7,36.77-27,2.52-4.63,8.48-7.87,12-9.81a27.58,27.58,0,0,0,3.15-1.87c2.83-2.07,4.09-5.71,3.49-9.9.77-5.41-.35-15.18-2.88-21.16,12.94-8.16,23.87-23.55,33.1-46.66,6.56,19.23,14.34,32.13,23.25,38.51-.46,1.57-1,3.18-1.48,4.83-.8,2.57-1.62,5.21-2.34,7.87-4,6.36-5.21,19.15-4.38,25.13a18.69,18.69,0,0,0,.4,5.91c0,.15.09.31.14.46,2.72,8,13.06,9.85,24.34,11.13l2.71.29c10.21,1.12,15.33,1.67,33.3,9.77,9.29,4.17,18.36,6.29,27,6.29a56.75,56.75,0,0,0,24.58-5.81c7-3.32,11.25-7.36,12.54-12a9.93,9.93,0,0,0,.17-4.77,9.31,9.31,0,0,0-2.88-8.95c-1.74-1.54-4.07-2.22-8.29-3.44-6.06-1.75-16.21-4.68-21.45-10.4a6,6,0,0,0-4.43-2,6.1,6.1,0,0,0-2.26.44,235.87,235.87,0,0,1-19.67-15.46c3.72-8.12,8.87-21.77,8.82-25.88a14.47,14.47,0,0,0-3-7.83c5-10.35,11.37-25.45,9.64-32.25a16.83,16.83,0,0,0-4.21-7c3.3-8.74,10-31.46,13.2-78.1a93.72,93.72,0,0,0,18.42-5.43,6,6,0,0,0,3.58-5.49c0-5.64-.14-12.33-.41-19.88a6,6,0,0,0-6-5.79H43.84a6,6,0,0,0-6,5.58q-.27,3.68-.48,6.85c-.41,6-.64,9.77-.76,12.31a6,6,0,0,0,4,5.94c1,.34,2,.68,3.11,1-2.42,34.09-.66,61.26,5,77.59-3.4,3.87-5.26,7.13-5.52,9.72-.12,1.08-.37,3.53,5.53,25.65l-2,1.22A6,6,0,0,0,44.1,163c.47,2.23,4.43,19.89,13.29,29.65a128.3,128.3,0,0,1-8.57,10.56h-.17a6,6,0,0,0-4,1.56c-.46.42-11.31,10.28-17.76,16.61-9.35,9.17-16.4,26-15.94,34-.31,2.1-.56,6.11,2.24,8.89C16.63,267.67,23.09,269.35,32.92,269.35Z"/>
    <g>
      <g>
        <path class="cls-2" d="M184.47,124.54c-.07,2.39-.14,4.79-.23,7.18h0q-.18,4.36-.42,8.72c-.23,4-.49,8-.81,11.91h0q-.44,5.2-1,10.31c-.34,3.08-.7,6.13-1.11,9.13a.13.13,0,0,1,0,.06c-.36,2.68-.75,5.33-1.17,7.93s-.89,5.25-1.39,7.8a15.64,15.64,0,0,1-8.1-1.41c-12.69-5.79-22.74-27.91-29.71-55.1-.15-.58-.3-1.15-.44-1.73-1.1-4.41-2.12-8.94-3.06-13.54q-1-4.8-1.83-9.69c0-.2-.07-.4-.1-.61-.11-.59-.21-1.18-.31-1.78l-.09-.54-.06-.34c0-.09,0-.18,0-.27-.16-.93-.31-1.87-.46-2.81,0-.25-.08-.5-.11-.74a.78.78,0,0,1,0-.14c-.3-1.9-.59-3.8-.85-5.7h0c-.08-.52-.15-1-.22-1.57h0c-.24-1.75-.47-3.48-.69-5.23l-.15-1.28c-.17-1.4-.34-2.8-.49-4.19l-.12-1.13c-.13-1.17-.25-2.34-.37-3.5h0q-.58-5.91-1-11.68h0c-.27-3.77-.47-7.48-.61-11.1q-.12-3.33-.18-6.56c0-.39,0-.79,0-1.19q0-3,0-6a178.14,178.14,0,0,1,1.47-23h49.31c.07.74.15,1.52.22,2.32.66,6.8,1.44,15.81,2.16,26.32,0,.64.09,1.29.13,1.94.16,2.36.31,4.8.47,7.29.31,5.33.6,10.95.85,16.79h0c.24,5.58.43,11.34.56,17.24.06,2.42.1,4.85.14,7.31h0C184.76,105.32,184.73,114.92,184.47,124.54Z"/>
        <path class="cls-3" d="M134.51,102.85c7.06,20.82,22.14,73.35,50.31,68.67s-34.74-103.7-34.74-103.7Z"/>
      </g>
      <path class="cls-4" d="M98.8,190.9c-.54,5.86,4,20,1.42,26s-14,9.51-16.25,12.56-9.7,13.93-12.66,17.6-15.45,7.79-21,8.09S28.41,243,29.11,236.54s34.26-37,35.81-45.77S99.74,180.52,98.8,190.9Z"/>
      <g>
        <path class="cls-5" d="M202.78,187.71c4.39,8.16,40.05,39,63,46.61,10.56,10.08-17.7,17.89-35.34,13.08S207,231.21,194.18,230.76,166.34,233,163.8,220.67s5.38-26.3,7.36-38.88c2.1-13.36,1.91-29.94,1.91-29.94"/>
        <path class="cls-6" d="M196.92,183.7c6.36,4.75,12.79,15.84,31.48,29.87s32.77,19.09,35,20.77c6.15,4.64-18.74,12.55-36.06,4.34-12.22-5.78-24.66-18.15-34.94-18.25-17.17-.17-24.33-5-15.07-28.19C184.39,174.5,194.22,181.68,196.92,183.7Z"/>
      </g>
      <path class="cls-6" d="M88.12,198.33c-3.06,6.93-24,42.27-26.89,46s-10.34,8.29-14.64,9.62-14.8-12.58-14.83-18.42,33.82-36.71,35.58-42.9S90.79,192.27,88.12,198.33Z"/>
      <path class="cls-7" d="M241.09,16.76c-.21,7.52-.51,14.56-.88,21.16-.08,1.49-.17,3-.26,4.41-4,65.06-14.69,84.69-14.69,84.69s4.73,3.57,5.57,6.88c1.69,6.58-10.93,31.62-10.93,31.62s4.11,4.12,4.15,7-6.31,20.21-10.21,27.23l-.49.85c-3,.77-10-.41-18.12-5.85a61.48,61.48,0,0,1-12.57-11.36c-.85-1-1.71-2.06-2.56-3.17-.12-.16-.24-.31-.35-.47s-.47-.61-.7-.93a57.68,57.68,0,0,1-4.88-8.34h0c-.51-1-1-2.09-1.53-3.22h0c-8-17.46-16.45-46.86-21.62-77.83q-.39-2.31-.75-4.62h0c-.16-1.08-.33-2.16-.49-3.24h0q-.74-5-1.35-10.08c-.36-3-.68-6-1-9-.07-.74-.14-1.46-.2-2.19h0c0-.41-.07-.83-.11-1.24-.07-.82-.13-1.63-.2-2.45h0l0-.52h0c0-.34-.06-.69-.08-1h0V55a.06.06,0,0,1,0,0v-.1a0,0,0,0,1,0,0c-.09-1.38-.18-2.74-.26-4.11h0c-.06-1.09-.12-2.17-.16-3.25,0-.43,0-.86-.06-1.28,0-1.22-.09-2.43-.12-3.64,0-1-.06-2-.07-3.07,0-.29,0-.58,0-.86,0-.91,0-1.81,0-2.71V35c0-.71,0-1.42,0-2.12,0-.28,0-.55,0-.83v-.09q.14-7.6.19-15.17Z"/>
      <path class="cls-8" d="M176.6,54.66c20.3.22,53.18-2.83,59.83-6.38,0,15-4.2,57.45-10.15,65.26C206.34,112.61,183.78,75.82,176.6,54.66Z"/>
      <path class="cls-8" d="M169,59.78c3.37,28.69,36.26,62.06,40.46,66.19s-3,24.83-3,24.83l12.28,10.57s11.41-20.18,10.5-27.82C212.29,118.56,184.55,99.33,169,59.78Z"/>
      <path class="cls-8" d="M159.38,72.88c3.57,31.33,22.3,72,44.08,92.78.78,4.33-4.91,26-4.69,27.6s9.8,5.55,13.12,4.71,12-23,10-27.75S189.05,148.5,159.38,72.88Z"/>
      <path class="cls-7" d="M155.53,16.76Q153.94,26,152,35c-.13.63-.26,1.26-.4,1.89-.06.26-.11.52-.17.77-.14.69-.29,1.36-.44,2-.24,1.1-.49,2.2-.74,3.29h0c-.25,1.09-.5,2.18-.76,3.26-.1.44-.2.88-.31,1.31s-.26,1.08-.38,1.62h0c-.3,1.28-.62,2.56-.94,3.83-.21.87-.43,1.74-.65,2.6h0c-.09.36-.18.71-.28,1.06h0c-.26,1-.53,2-.8,3.07l-.45,1.71c-.16.6-.32,1.2-.49,1.8q-1.69,6.24-3.51,12.28c-.09.31-.18.61-.28.92-.2.67-.4,1.34-.61,2-.09.31-.19.61-.28.92-.34,1.1-.68,2.2-1,3.3-.25.8-.51,1.59-.77,2.39q-.88,2.76-1.8,5.48l-.81,2.38q-.48,1.39-1,2.76l-.27.78h0L134,98.9l0,.08-.18.48c-.3.83-.59,1.66-.9,2.48,0,.16-.12.32-.17.48l-.92,2.46c-.05.16-.11.31-.17.47-1.09,2.89-2.19,5.74-3.31,8.52-1.19,3-2.39,5.87-3.6,8.7-.14.31-.27.63-.41,1-.42,1-.85,2-1.28,2.93l-.56,1.26h0q-3.47,7.76-7,14.75h0l-.58,1.14c-.62,1.21-1.24,2.41-1.87,3.58l-.34.65c-3.41,6.39-6.84,12.21-10.23,17.39l-1,1.44q-1.37,2-2.71,3.93-3,4.18-5.91,7.66l-.81,1h0l-.1.12h0q-1.67,1.93-3.32,3.62l-.86.86A43.1,43.1,0,0,1,79,190.77h0c-3.42,1.95-6.61,2.79-9.49,2.39a9.81,9.81,0,0,1-2.07-.52l-.11,0h0a11.54,11.54,0,0,1-1.77-.86h0c-.15-.09-.3-.18-.44-.28a3.28,3.28,0,0,1-.31-.2C54.74,184.28,50,161.73,50,161.73l5.72-3.58s-6.8-25-6.51-27.76,6.51-9,6.51-9c-6-13.77-9-41.47-5.61-83.41q.47-5.79,1.11-12c0-.43.09-.85.13-1.28.26-2.43.5-5.1.72-8Z"/>
      <path class="cls-9" d="M161.69,16.76q-.91,8.77-1.92,17c-.51,4.23-1.05,8.36-1.59,12.4-.07.47-.13,1-.2,1.43q-1,7-2,13.65h0Q155,67.84,153.9,74q-1.4,8-2.88,15.46c-2.7,13.42-5.62,25.36-8.74,36-.57,1.94-1.15,3.82-1.73,5.67-11.84,37.46-26.28,56.61-41.63,63.6l-.21.1,0,0c-1.33.63-5,1.11-9.4,1.23l-1.21,0a78.22,78.22,0,0,1-8.15-.3c-4.79-.42-9.42-1.32-12.51-2.88l-.12-.06c-.25-.13-.49-.26-.72-.4s-.68-.45-1-.68h0a13.82,13.82,0,0,0,1.69.27l.33,0a16.3,16.3,0,0,0,8.64-1.84,31,31,0,0,0,8.48-6.56q1.74-1.83,3.49-4.06a108.77,108.77,0,0,0,12.49-21.47c10.25-22.34,20.24-56.46,28.87-104.6.39-2.14.77-4.3,1.15-6.5.06-.39.13-.79.2-1.19h0c.34-2,.69-4.06,1-6.13q1.81-11,3.53-22.93Z"/>
      <g>
        <path class="cls-10" d="M144.32,54a3.39,3.39,0,0,0,.47-.52,2.45,2.45,0,0,1-.22.5,3.47,3.47,0,0,0,.77-1.26,7.06,7.06,0,0,0,.34-3.15,3.86,3.86,0,0,0-.34-1.24,1.65,1.65,0,0,0-.88-.9.53.53,0,0,0-.18,0,1.11,1.11,0,0,0-1,.34,3.28,3.28,0,0,0-.61.84,7,7,0,0,0-.67,1.9,6.44,6.44,0,0,0-.15,2,1.91,1.91,0,0,0,.87,1.68l.17,0h.35c0-.16-.32,1.47-.17.78h0a1.36,1.36,0,0,0,0-.17,2.13,2.13,0,0,0,0-.22v-.05h0l0-.49h0s0,0,0,0c0,.18,0,.36,0,.54h0v.1a1.8,1.8,0,0,1,0,.27V55h0c.11-.51-.24,1.13.25-1.14h-.08l-.17,0H143l-.06,0-.12-.06a1.58,1.58,0,0,1-.54-1.28,4.59,4.59,0,0,1,.15-1.35,3.09,3.09,0,0,1,.47-1c.2-.25.52-.48.85-.17a1.59,1.59,0,0,1,.24,1.36,2.36,2.36,0,0,1-.44,1,.7.7,0,0,1-.32.2c-.06,0,0,0,.08.15a.84.84,0,0,1,0,.35s0,.08,0,.11l0,.06h0l-.43,0h0c-.09-.45.56,4,.29,2.11h0c.17-3.64,0-1,.09-1.81h0l0,0,0,.06a.21.21,0,0,0-.05.12.34.34,0,0,0,.14.24h0c0,.6.06-1.33-.07,1.33h0v0h0c-.31-2.14-.07-.6-.13-1.08h.35s0,0,0,0h0l0,0,.13.07c.36.17,1-.12,1.42-.86,0,0-.15.17-.3.31A2.3,2.3,0,0,1,144.32,54Z"/>
        <path class="cls-10" d="M145.85,56.12a9.65,9.65,0,0,0,1-1.34,10.52,10.52,0,0,1-.59,1.09A10.07,10.07,0,0,0,147.9,53,19.71,19.71,0,0,0,149,45.55a12.08,12.08,0,0,0-.6-3.34,6,6,0,0,0-.76-1.52,3.14,3.14,0,0,0-1.31-1.13,1.63,1.63,0,0,0-.44-.15,2.66,2.66,0,0,0-2.48.75,8.11,8.11,0,0,0-1.59,2.14,19,19,0,0,0-1.72,5,18.65,18.65,0,0,0-.38,5.27,9.15,9.15,0,0,0,.56,2.56A3.53,3.53,0,0,0,141.92,57a2.89,2.89,0,0,0,.45.14l.1,0h.16l.15,0c.18,0,.27-.06.25-.13s-.12-.15-.27-.2l-.09,0s-.15,0-.16,0l-.18-.08c-.12-.06-.26-.11-.39-.19a3.39,3.39,0,0,1-1.37-1.84,8.56,8.56,0,0,1-.42-2.3,16.68,16.68,0,0,1,.4-4.58,14.15,14.15,0,0,1,1.55-4.08,5.1,5.1,0,0,1,1.35-1.56,1.88,1.88,0,0,1,2-.26,2.5,2.5,0,0,1,.89.73,3.76,3.76,0,0,1,.55,1,7.63,7.63,0,0,1,.4,2.31,13.78,13.78,0,0,1-.52,4.27c-.18.66-.45,1.22-.73,2a12.35,12.35,0,0,1-1.32,2.73,4.89,4.89,0,0,1-.89,1l-.22.16-.1.08h0l-.19,0h0l0,0a1.5,1.5,0,0,0-.15.25c-.22.15-.22.32,0,.48a.84.84,0,0,0,.26.21l.1,0h.23l.31,0a2.79,2.79,0,0,0,1.57-.66,6.64,6.64,0,0,0,1.56-1.95l-.17.26c-.1.15-.26.34-.41.53a5.75,5.75,0,0,1-.43.49Z"/>
        <path class="cls-10" d="M147.59,58.57a11.26,11.26,0,0,0,1.76-2.2,7.14,7.14,0,0,1-.5.9,8.4,8.4,0,0,1-.57.85,13.61,13.61,0,0,0,2.67-4.8,24.81,24.81,0,0,0,1.1-6,21.38,21.38,0,0,0-.29-5,13.52,13.52,0,0,0-1.36-4,7.56,7.56,0,0,0-1.2-1.71,4.81,4.81,0,0,0-1.83-1.29,5.71,5.71,0,0,0-.58-.21A4.37,4.37,0,0,0,145,35a4.84,4.84,0,0,0-1.54.59,9,9,0,0,0-2.3,2.08,19.27,19.27,0,0,0-3.14,6.2,24.44,24.44,0,0,0-.93,4.12,20.17,20.17,0,0,0-.18,4.62,11.62,11.62,0,0,0,1.16,4.45,6.06,6.06,0,0,0,3,2.87,4.94,4.94,0,0,0,.73.22l.17,0s0,0,0,0l.33,0c.4,0,.61,0,.56-.11a2.08,2.08,0,0,0-.7-.25l-.13,0-.05,0-.31-.13a3.16,3.16,0,0,1-.68-.28c-2.39-1.22-3.37-4.21-3.49-7.06a23.73,23.73,0,0,1,1-7.94,19.46,19.46,0,0,1,2.85-5.87,8.18,8.18,0,0,1,2.14-2.05,4.83,4.83,0,0,1,.68-.35l.36-.14.39-.08a1.33,1.33,0,0,1,.4,0h.4l.41.06.2,0,.2.07a4.28,4.28,0,0,1,1.47.87,5.2,5.2,0,0,1,1,1.33,10.05,10.05,0,0,1,1,3.15,19.14,19.14,0,0,1-.23,6.9,28.64,28.64,0,0,1-1.1,3.69,17.38,17.38,0,0,1-2.73,5.39,6.9,6.9,0,0,1-1.8,1.52l-.42.2-.19.1h0l0,0-.1,0a4.83,4.83,0,0,0-.61.26c-.22.16-.22.33,0,.49a2.7,2.7,0,0,0,.68.2l.25,0c-.21,0-.1,0-.08,0h.62a5.41,5.41,0,0,0,2.59-1,9.5,9.5,0,0,0,2.69-3.14l-.29.43a7.56,7.56,0,0,1-.68.89,5.36,5.36,0,0,1-.74.8Z"/>
        <path class="cls-10" d="M149.38,61.1A14.45,14.45,0,0,0,151.91,58l-.34.64c-.13.21-.27.4-.4.6a9.22,9.22,0,0,1-.85,1.17,17.48,17.48,0,0,0,3.73-6.76,29.08,29.08,0,0,0,1.23-8.3,20,20,0,0,0-.9-6.23A11.8,11.8,0,0,0,152.07,35a9.62,9.62,0,0,0-1.69-1.54,11.74,11.74,0,0,0-1-.65,10.84,10.84,0,0,0-1.25-.49l-.68-.23a14.65,14.65,0,0,0-2.05-.17,8.13,8.13,0,0,0-1.81.31,9.1,9.1,0,0,0-2.9,1.5,15.6,15.6,0,0,0-4.71,6.69,27.79,27.79,0,0,0-1.6,5.58c-.09.53-.21,1-.26,1.6l-.18,1.66a26.8,26.8,0,0,0,0,3.47,14.25,14.25,0,0,0,1.87,6.46,8.64,8.64,0,0,0,4.46,3.71,10.05,10.05,0,0,0,1,.28l.22.05-.12,0c.19,0,.36,0,.51,0,.63.05,1,0,.88-.07a5.08,5.08,0,0,0-1.13-.3l-.12,0h.05l-.05,0-.44-.14a7.14,7.14,0,0,1-1-.35A8.37,8.37,0,0,1,136,58.49a14.34,14.34,0,0,1-1.53-6.21A26,26,0,0,1,135,46a28.17,28.17,0,0,1,1.53-5.16,19.15,19.15,0,0,1,2.06-3.77,12.5,12.5,0,0,1,2.34-2.49,8,8,0,0,1,2.71-1.48,6.55,6.55,0,0,1,.82-.2l.42-.07.46,0a9.51,9.51,0,0,1,1.89.21,10.67,10.67,0,0,1,1.8.83,7.35,7.35,0,0,1,1.38,1.2,9.71,9.71,0,0,1,1.79,3,15,15,0,0,1,.9,3.75,23,23,0,0,1,0,4.48A32.77,32.77,0,0,1,152,51.69a26.27,26.27,0,0,1-1.77,4.7c-.2.35-.38.72-.59,1.06s-.43.66-.63,1l-.7.86c-.23.28-.49.51-.72.75a9.87,9.87,0,0,1-2.88,1.86l-.62.21-.29.1h.09l.18,0s0,0-.05,0l-.18.05c-.45.11-.82.19-1.07.27s-.22.32,0,.49a4.44,4.44,0,0,0,1.11.18l.4,0-.29,0h.83A8.09,8.09,0,0,0,148.43,62a12.18,12.18,0,0,0,3.85-4.35l-.4.61a11,11,0,0,1-.95,1.27c-.19.21-.34.45-.53.63l-.52.49Z"/>
      </g>
      <path class="cls-10" d="M126.32,109.28c-.95,7.18,11.88,7.35,13.71,5.77s9.19-30.17,14.28-52.48c-4.37,17.85-11.39,97.62-48.68,126.15,9.09-9,16.62-22,15.57-29.3,0,0-4.75-4.65-11.78.07-8.27,17-20.29,30.62-29.8,32.47,22.25-13.2,41-75.33,52-135.16C134.79,58.64,129.14,88,126.32,109.28Z"/>
      <g>
        <path class="cls-11" d="M122,144.17a3.22,3.22,0,0,0,.55-.44,2.59,2.59,0,0,1-.3.46,3.67,3.67,0,0,0,1-1.12,7.18,7.18,0,0,0,.84-3.06,4,4,0,0,0-.14-1.27,1.61,1.61,0,0,0-.73-1,.51.51,0,0,0-.17-.07,1.12,1.12,0,0,0-1,.18,3.42,3.42,0,0,0-.74.73,7.24,7.24,0,0,0-1,1.77,6.79,6.79,0,0,0-.47,2,1.91,1.91,0,0,0,.59,1.79.56.56,0,0,0,.16.07h0l.15,0,.08,0h.07c.06-.16-.54,1.4-.28.74h0a1.62,1.62,0,0,1,.06-.17,2,2,0,0,0,.05-.22v0h0l.1-.48h0v0c0,.17-.07.35-.11.53h0v0a.15.15,0,0,0,0,.07,1,1,0,0,1-.08.26V145h0c.19-.49-.43,1.08.42-1.09H121l-.16,0-.08,0h0l0,0-.1-.09a1.51,1.51,0,0,1-.33-1.34,4.52,4.52,0,0,1,.36-1.31,2.93,2.93,0,0,1,.64-1c.23-.21.59-.38.86,0a1.61,1.61,0,0,1,0,1.39,2.34,2.34,0,0,1-.59.94.62.62,0,0,1-.35.15c-.06,0,0,0,0,.15a.8.8,0,0,1-.06.35s0,.08,0,.11l0,0h0l-.43,0h0c0-.46-.08,4,0,2.13h0c.75-3.56.21-1,.37-1.78h0l0,0a.1.1,0,0,0-.06,0,.19.19,0,0,0-.07.11.33.33,0,0,0,.1.26h0c-.12.58.28-1.3-.27,1.3h0v0h0c0-2.17,0-.6,0-1.08h0l.2,0H121l0,0a.52.52,0,0,0,.11.1c.33.22,1,0,1.54-.63a2.9,2.9,0,0,1-.35.26A2.43,2.43,0,0,1,122,144.17Z"/>
        <path class="cls-11" d="M123.18,146.54a10.14,10.14,0,0,0,1.22-1.15,9.8,9.8,0,0,1-.76,1,10.11,10.11,0,0,0,2.06-2.6,19.46,19.46,0,0,0,2.28-7.14,11.73,11.73,0,0,0,0-3.4,5.78,5.78,0,0,0-.5-1.61,3.07,3.07,0,0,0-1.12-1.33,1.62,1.62,0,0,0-.41-.22,2.66,2.66,0,0,0-2.56.34,8,8,0,0,0-1.91,1.86,20.18,20.18,0,0,0-3.72,9.77,9.18,9.18,0,0,0,.14,2.62,3.5,3.5,0,0,0,1.3,2.16,2.43,2.43,0,0,0,.42.22l.1,0,.16,0H120c.17,0,.27,0,.26-.09s-.09-.16-.24-.24,0,0-.08,0l-.15-.06-.16-.12a1.9,1.9,0,0,1-.35-.25,3.36,3.36,0,0,1-1.06-2,8.34,8.34,0,0,1,0-2.34,16.26,16.26,0,0,1,1.13-4.45,14.38,14.38,0,0,1,2.18-3.79,5.23,5.23,0,0,1,1.58-1.32,1.85,1.85,0,0,1,2,.06,2.37,2.37,0,0,1,.77.86,4.36,4.36,0,0,1,.38,1.12,8.05,8.05,0,0,1,0,2.35,14.55,14.55,0,0,1-1.2,4.13c-.29.62-.65,1.13-1,1.8a11.7,11.7,0,0,1-1.74,2.49,4.94,4.94,0,0,1-1,.81l-.24.12-.11.06h0l-.18,0s0,0,0,0l0,0a1.37,1.37,0,0,0-.19.22c-.24.12-.27.29-.11.48a.8.8,0,0,0,.22.24l.1.07.15,0,.07,0,.3.07a2.77,2.77,0,0,0,1.66-.4,6.41,6.41,0,0,0,1.85-1.67l-.21.23c-.12.13-.31.3-.49.46s-.36.3-.5.41Z"/>
        <path class="cls-11" d="M124.5,149.24a11.55,11.55,0,0,0,2.09-1.88,6.92,6.92,0,0,1-.63.8,8.47,8.47,0,0,1-.71.75,13.48,13.48,0,0,0,3.41-4.32,24.23,24.23,0,0,0,2.06-5.79,21,21,0,0,0,.5-5,13.53,13.53,0,0,0-.7-4.16,7.84,7.84,0,0,0-.9-1.87,4.94,4.94,0,0,0-1.61-1.57,4.68,4.68,0,0,0-.54-.3,4.34,4.34,0,0,0-1.73-.34,4.76,4.76,0,0,0-1.61.33,9,9,0,0,0-2.6,1.69,19.46,19.46,0,0,0-4.1,5.62,25.49,25.49,0,0,0-1.57,3.91,20.65,20.65,0,0,0-.92,4.54,11.54,11.54,0,0,0,.44,4.57,6,6,0,0,0,2.48,3.32,7.1,7.1,0,0,0,.69.33l.15.07,0,0,.33.08c.39.07.61.06.57,0a1.91,1.91,0,0,0-.65-.37l-.12,0-.06,0-.28-.17a3.53,3.53,0,0,1-.62-.39c-2.16-1.58-2.66-4.69-2.32-7.53a23.63,23.63,0,0,1,2.3-7.66,19.11,19.11,0,0,1,3.75-5.34,8.21,8.21,0,0,1,2.44-1.69,4.43,4.43,0,0,1,.73-.23l.38-.08.39,0a1.41,1.41,0,0,1,.41,0l.39.07.4.12a1.06,1.06,0,0,0,.19.06l.18.1a4.27,4.27,0,0,1,1.32,1.1,5.61,5.61,0,0,1,.78,1.47,9.75,9.75,0,0,1,.51,3.28,19.39,19.39,0,0,1-1.32,6.77,29.29,29.29,0,0,1-1.69,3.47,17.22,17.22,0,0,1-3.55,4.88,6.92,6.92,0,0,1-2,1.22l-.45.13-.2.06h0l-.1,0a4.75,4.75,0,0,0-.65.16c-.24.12-.26.28-.1.47a2.37,2.37,0,0,0,.64.31l.24.07c-.21,0-.11,0-.08,0l.11,0,.49.08a5.47,5.47,0,0,0,2.72-.57,9.36,9.36,0,0,0,3.16-2.67l-.35.38a8.75,8.75,0,0,1-.81.77,7,7,0,0,1-.86.68Z"/>
        <path class="cls-11" d="M125.87,152a14.52,14.52,0,0,0,3-2.64l-.44.58c-.15.18-.32.35-.49.53a8.93,8.93,0,0,1-1,1,17.39,17.39,0,0,0,4.76-6.08,29.13,29.13,0,0,0,2.55-8,20.06,20.06,0,0,0,.1-6.3,11.67,11.67,0,0,0-1.61-4.48,9.46,9.46,0,0,0-1.42-1.79,9.25,9.25,0,0,0-.93-.8,11.83,11.83,0,0,0-1.16-.69l-.63-.33a14.61,14.61,0,0,0-2-.5,8.66,8.66,0,0,0-1.84,0,9.2,9.2,0,0,0-3.1,1,15.64,15.64,0,0,0-5.72,5.86,27.21,27.21,0,0,0-2.47,5.24c-.17.52-.37,1-.51,1.54l-.44,1.61a25.82,25.82,0,0,0-.56,3.43,14.39,14.39,0,0,0,.82,6.67,8.65,8.65,0,0,0,3.8,4.38,10,10,0,0,0,1,.44l.21.09-.11-.06.5.13c.6.14.94.16.87.07a5.43,5.43,0,0,0-1.06-.48l-.12,0-.06,0h.11l0,0-.4-.21a5.51,5.51,0,0,1-.91-.5,8.41,8.41,0,0,1-3.42-4.42,14.43,14.43,0,0,1-.51-6.38,26.53,26.53,0,0,1,1.5-6.11A28.1,28.1,0,0,1,116.4,130a19.68,19.68,0,0,1,2.64-3.4,12.71,12.71,0,0,1,2.7-2.08,8.56,8.56,0,0,1,2.92-1,7.54,7.54,0,0,1,.84-.06h.43l.46,0a9.17,9.17,0,0,1,1.83.52,9.87,9.87,0,0,1,1.65,1.1,7.57,7.57,0,0,1,1.16,1.4,9.42,9.42,0,0,1,1.29,3.25,14.8,14.8,0,0,1,.29,3.84,22.61,22.61,0,0,1-.7,4.42,32,32,0,0,1-1.95,5.18,25.92,25.92,0,0,1-2.49,4.36c-.26.32-.49.66-.75,1l-.79.86-.82.74a9.54,9.54,0,0,1-.84.62,9.74,9.74,0,0,1-3.13,1.38l-.65.11-.29,0h0l.12,0h-.06c-.46,0-.84.06-1.1.1s-.27.28-.11.48a5,5,0,0,0,1.06.36l.39.08h-.32l.16,0,.69.1a8,8,0,0,0,3.8-.7,12.06,12.06,0,0,0,4.49-3.68s-.19.22-.49.54a10.11,10.11,0,0,1-1.14,1.1,7.56,7.56,0,0,1-.63.54l-.59.4C126.1,151.88,125.87,152,125.87,152Z"/>
      </g>
      <g>
        <path class="cls-10" d="M137.08,97.09a4.67,4.67,0,0,0,.51-.49,3.77,3.77,0,0,1-.26.48,3.51,3.51,0,0,0,.85-1.21,7.16,7.16,0,0,0,.55-3.12,4.15,4.15,0,0,0-.26-1.25,1.66,1.66,0,0,0-.83-1,.84.84,0,0,0-.17-.05,1.11,1.11,0,0,0-1,.28,3.12,3.12,0,0,0-.66.79,7.59,7.59,0,0,0-1.08,3.89,1.91,1.91,0,0,0,.76,1.73.49.49,0,0,0,.16,0h0l.16,0H136c.05-.16-.41,1.44-.21.76h0a1.36,1.36,0,0,0,0-.17,1.34,1.34,0,0,0,0-.22V97.6h0l0-.49h0v0l-.06.53h0v.1a2.24,2.24,0,0,1-.05.26V98h0c.14-.5-.32,1.12.31-1.12H136l-.17,0-.08,0h0l0,0-.12-.07a1.57,1.57,0,0,1-.46-1.31,4.82,4.82,0,0,1,.24-1.34,3.17,3.17,0,0,1,.54-1c.21-.23.55-.44.86-.12a1.61,1.61,0,0,1,.14,1.39,2.28,2.28,0,0,1-.5,1,.66.66,0,0,1-.32.18c-.07,0,0,0,.06.15a1,1,0,0,1,0,.36l0,.1,0,.06h-.47c0-.47.31,4,.16,2.11h0s0,0,0,0c.41-3.62.12-1,.21-1.81h0l0,0,0,.06a.18.18,0,0,0-.05.12.32.32,0,0,0,.12.25h0c-.06.58.15-1.33-.15,1.32h0c-.17-2.15,0-.59-.06-1.07h.37l0,0a.36.36,0,0,0,.12.08c.35.2,1-.06,1.47-.77a2.15,2.15,0,0,1-.32.29A1.69,1.69,0,0,1,137.08,97.09Z"/>
        <path class="cls-10" d="M138.47,99.34a9.65,9.65,0,0,0,1.1-1.27,9.69,9.69,0,0,1-.66,1.05,10.48,10.48,0,0,0,1.81-2.79A19.81,19.81,0,0,0,142.3,89a11.86,11.86,0,0,0-.37-3.37,5.69,5.69,0,0,0-.66-1.57A3.08,3.08,0,0,0,140,82.85a2.21,2.21,0,0,0-.42-.18,2.65,2.65,0,0,0-2.53.59,7.77,7.77,0,0,0-1.72,2,20.1,20.1,0,0,0-2.77,10.08A9,9,0,0,0,133,98a3.46,3.46,0,0,0,1.49,2,2.46,2.46,0,0,0,.44.17l.1,0h.31c.18,0,.28,0,.26-.11s-.11-.16-.26-.22,0,0-.09,0l-.15,0-.17-.1a2.4,2.4,0,0,1-.38-.21,3.44,3.44,0,0,1-1.25-1.93,8.66,8.66,0,0,1-.27-2.32,16.37,16.37,0,0,1,.7-4.54,14,14,0,0,1,1.81-4A5.21,5.21,0,0,1,137,85.25a1.87,1.87,0,0,1,2-.12,2.4,2.4,0,0,1,.84.78,3.75,3.75,0,0,1,.48,1.08,7.69,7.69,0,0,1,.26,2.33,14.2,14.2,0,0,1-.8,4.23c-.23.65-.54,1.18-.86,1.89a12,12,0,0,1-1.49,2.65,5.27,5.27,0,0,1-1,.9l-.23.14-.11.07h-.2s0,0,0,0l0,0a1.46,1.46,0,0,0-.17.24c-.23.14-.24.3-.06.48a.65.65,0,0,0,.24.22l.1.06.16,0,.07,0,.31,0a2.74,2.74,0,0,0,1.6-.55,6.48,6.48,0,0,0,1.69-1.84l-.19.24a5.83,5.83,0,0,1-.44.51,3.81,3.81,0,0,1-.46.45Z"/>
        <path class="cls-10" d="M140,101.9a11.47,11.47,0,0,0,1.9-2.08,14.63,14.63,0,0,1-1.18,1.68,13.83,13.83,0,0,0,3-4.63,24.63,24.63,0,0,0,1.49-6,21,21,0,0,0,0-5,13.84,13.84,0,0,0-1.09-4.08,8.38,8.38,0,0,0-1.08-1.78,5.12,5.12,0,0,0-1.75-1.41,5.72,5.72,0,0,0-.57-.24,4.37,4.37,0,0,0-1.75-.18,5,5,0,0,0-1.57.49A9,9,0,0,0,135,80.64a19.28,19.28,0,0,0-3.54,6,25,25,0,0,0-1.2,4,20.93,20.93,0,0,0-.48,4.6,11.51,11.51,0,0,0,.88,4.51,6,6,0,0,0,2.78,3.07,4.86,4.86,0,0,0,.72.26l.16,0h0l.33,0c.39,0,.61,0,.56-.06s-.29-.17-.68-.3l-.12,0-.06,0-.3-.14a3.62,3.62,0,0,1-.65-.33c-2.31-1.37-3.1-4.41-3-7.27A23.71,23.71,0,0,1,132,87.17a19.23,19.23,0,0,1,3.22-5.67,8.2,8.2,0,0,1,2.27-1.92,4.91,4.91,0,0,1,.7-.3l.37-.11.39-.06a1.35,1.35,0,0,1,.4,0l.41,0,.4.09.2,0,.19.08a4.46,4.46,0,0,1,1.41,1,5.56,5.56,0,0,1,.92,1.4,10,10,0,0,1,.83,3.21,19.45,19.45,0,0,1-.68,6.87,28.64,28.64,0,0,1-1.34,3.61,17.28,17.28,0,0,1-3.07,5.2,7.26,7.26,0,0,1-1.9,1.41l-.43.17-.2.08h0l-.1,0a3.47,3.47,0,0,0-.63.22c-.23.14-.24.3-.06.48a2.35,2.35,0,0,0,.67.24l.24.05c-.21,0-.1,0-.07,0l.11,0,.5,0a5.35,5.35,0,0,0,2.65-.83,9.26,9.26,0,0,0,2.89-3l-.32.41a9.89,9.89,0,0,1-.73.85,7.54,7.54,0,0,1-.79.75Z"/>
        <path class="cls-10" d="M141.67,104.55a14.89,14.89,0,0,0,2.72-2.92l-.39.62c-.13.2-.29.38-.43.57a8.35,8.35,0,0,1-.92,1.11,17.43,17.43,0,0,0,4.16-6.5,29.23,29.23,0,0,0,1.77-8.2,20.21,20.21,0,0,0-.5-6.28,11.53,11.53,0,0,0-2-4.3A9.75,9.75,0,0,0,144.47,77c-.31-.25-.66-.48-1-.71a12.51,12.51,0,0,0-1.22-.57l-.66-.27a13.83,13.83,0,0,0-2-.31,8.1,8.1,0,0,0-1.83.19,9,9,0,0,0-3,1.31A15.62,15.62,0,0,0,129.59,83a27.19,27.19,0,0,0-2,5.45c-.12.53-.28,1-.36,1.58L127,91.7a28.23,28.23,0,0,0-.22,3.47,14.28,14.28,0,0,0,1.45,6.56,8.63,8.63,0,0,0,4.2,4c.36.15.71.25,1,.35l.22.06a.26.26,0,0,1-.12,0l.51.09c.62.09,1,.07.87,0a4.88,4.88,0,0,0-1.1-.38l-.12,0h.05l-.05,0-.43-.17a5.06,5.06,0,0,1-.94-.41,8.4,8.4,0,0,1-3.83-4.07,14.46,14.46,0,0,1-1.12-6.3,26.5,26.5,0,0,1,.91-6.23,28.41,28.41,0,0,1,1.86-5.05,19.2,19.2,0,0,1,2.3-3.64,13.08,13.08,0,0,1,2.49-2.33,8.59,8.59,0,0,1,2.81-1.3,7,7,0,0,1,.82-.14l.44,0h.45a9.54,9.54,0,0,1,1.87.33,10,10,0,0,1,1.75.95,7.11,7.11,0,0,1,1.29,1.28,9.42,9.42,0,0,1,1.6,3.1,15.3,15.3,0,0,1,.66,3.81,23,23,0,0,1-.28,4.46,33.07,33.07,0,0,1-1.44,5.35,27.05,27.05,0,0,1-2.07,4.58c-.23.34-.43.69-.66,1s-.47.63-.7.94-.5.55-.75.81a8.52,8.52,0,0,1-.77.71,9.77,9.77,0,0,1-3,1.66l-.63.18-.29.08h.21l-.17,0c-.46.09-.84.15-1.1.21s-.23.3-.06.48a4.32,4.32,0,0,0,1.09.26l.4,0-.3,0h0l.16,0,.69,0a8,8,0,0,0,3.72-1.06,12,12,0,0,0,4.12-4.09s-.17.24-.44.59a9.36,9.36,0,0,1-1,1.2,8.18,8.18,0,0,1-.57.6l-.55.45Z"/>
      </g>
      <g>
        <path class="cls-10" d="M101.63,182.53a4.42,4.42,0,0,0,.63-.29,4.4,4.4,0,0,1-.39.35,3.66,3.66,0,0,0,1.16-.83,6.38,6.38,0,0,0,1.43-2.59,3.3,3.3,0,0,0,.1-1.16,1.41,1.41,0,0,0-.51-1,.75.75,0,0,0-.15-.09,1.23,1.23,0,0,0-1,0,3.72,3.72,0,0,0-.86.52,6.94,6.94,0,0,0-1.3,1.41,6,6,0,0,0-.85,1.71,1.61,1.61,0,0,0,.23,1.71.39.39,0,0,0,.14.08l0,0,.14.06.08,0h.06c.09-.13-.81,1.15-.42.61h0c0-.06.07-.1.09-.14a.75.75,0,0,0,.09-.19v0h0l.2-.42h0v0l-.21.45h0v0l0,.06a1,1,0,0,1-.12.22l0,0v0h0c.28-.4-.63.89.62-.9h-.07l-.14-.08-.08,0h0l0,0-.09-.1a1.31,1.31,0,0,1-.07-1.26,4.07,4.07,0,0,1,.62-1.1,2.71,2.71,0,0,1,.81-.75c.27-.16.65-.25.85.12a1.33,1.33,0,0,1-.26,1.24,2.28,2.28,0,0,1-.76.74.63.63,0,0,1-.37.07c-.06,0,0,0,0,.15a.9.9,0,0,1-.13.3l-.06.09,0,0h0l-.41-.12h0c.09-.41-.86,3.59-.45,1.89h0c1.43-3.05.39-.84.71-1.52h-.08l-.07,0a.2.2,0,0,0-.09.09.3.3,0,0,0,0,.25h0c-.23.49.52-1.12-.52,1.11h0a9.43,9.43,0,1,1,.24-1l0,0,.19.06.1,0h0v0l0,0a.28.28,0,0,0,.09.1c.28.26,1,.21,1.63-.28a3.3,3.3,0,0,1-.39.17A3.25,3.25,0,0,1,101.63,182.53Z"/>
        <path class="cls-10" d="M102.31,184.86a10.06,10.06,0,0,0,1.42-.82,8.63,8.63,0,0,1-.93.74,10,10,0,0,0,2.53-2,17.63,17.63,0,0,0,3.63-6,10.21,10.21,0,0,0,.61-3,5,5,0,0,0-.18-1.54,2.77,2.77,0,0,0-.84-1.39,1.77,1.77,0,0,0-.35-.26,2.88,2.88,0,0,0-2.59-.16,8,8,0,0,0-2.23,1.33,17.52,17.52,0,0,0-3.36,3.69,16.43,16.43,0,0,0-2.2,4.39,7.35,7.35,0,0,0-.36,2.36,3,3,0,0,0,.85,2.16,2.89,2.89,0,0,0,.37.27l.08,0,.15.06.15,0c.17,0,.27,0,.28,0s-.06-.17-.19-.27l-.08-.05a.49.49,0,0,1-.13-.08l-.14-.13a2.51,2.51,0,0,1-.29-.28,2.86,2.86,0,0,1-.64-2,7.17,7.17,0,0,1,.4-2.1,14.51,14.51,0,0,1,2-3.78,13.27,13.27,0,0,1,2.88-3,5.25,5.25,0,0,1,1.8-.9,2,2,0,0,1,1.92.4,2.19,2.19,0,0,1,.58.91,3.19,3.19,0,0,1,.15,1.07,6.55,6.55,0,0,1-.43,2.1,12.25,12.25,0,0,1-2,3.48,19.68,19.68,0,0,1-1.36,1.43,12.11,12.11,0,0,1-2.19,1.92,5,5,0,0,1-1.17.53l-.26.07-.13,0h0l-.18-.05h0l0,0a1.19,1.19,0,0,0-.23.16c-.26.06-.32.21-.2.41a.81.81,0,0,0,.17.26l.08.07.14.06.06,0,.29.12a2.91,2.91,0,0,0,1.69-.06A6.81,6.81,0,0,0,104,184l-.25.16c-.15.1-.36.21-.57.32a4.92,4.92,0,0,1-.57.28Z"/>
        <path class="cls-10" d="M103.08,187.51a12.15,12.15,0,0,0,2.42-1.32,7.9,7.9,0,0,1-.79.61,6.56,6.56,0,0,1-.83.54,13.17,13.17,0,0,0,4.18-3.25,22.2,22.2,0,0,0,3.15-4.81,18.21,18.21,0,0,0,1.47-4.36,11.43,11.43,0,0,0,.13-3.85,6.63,6.63,0,0,0-.53-1.84,4.46,4.46,0,0,0-1.27-1.69,5.82,5.82,0,0,0-.47-.36,4.81,4.81,0,0,0-1.63-.61,5.3,5.3,0,0,0-1.64,0,9.46,9.46,0,0,0-2.88,1,18.8,18.8,0,0,0-5.11,4.29A22.33,22.33,0,0,0,97,175.14a18,18,0,0,0-1.78,3.9,9.54,9.54,0,0,0-.46,4.16,5.35,5.35,0,0,0,1.78,3.41c.2.17.43.29.61.42l.14.08h0l.3.12c.37.13.59.17.56.09a2,2,0,0,0-.57-.44l-.1-.06,0,0-.24-.2a3.87,3.87,0,0,1-.54-.46c-1.81-1.8-1.69-4.67-.81-7.15a21,21,0,0,1,3.76-6.44,18.44,18.44,0,0,1,4.72-4.11,8.59,8.59,0,0,1,2.72-1.07,3.77,3.77,0,0,1,.76-.08c.13,0,.26,0,.39,0l.39,0a1.86,1.86,0,0,1,.39.1l.38.13.35.18.18.09.16.12a4,4,0,0,1,1.08,1.21,4.91,4.91,0,0,1,.48,1.46,8.11,8.11,0,0,1-.14,3,16.59,16.59,0,0,1-2.62,5.82,26.65,26.65,0,0,1-2.33,2.8,16.77,16.77,0,0,1-4.43,3.73,7.51,7.51,0,0,1-2.23.73l-.46,0-.21,0h0l.06,0h-.15a6.06,6.06,0,0,0-.67,0c-.26.06-.31.2-.2.4a2.46,2.46,0,0,0,.57.39l.22.11c-.2,0-.1,0-.08,0l.11,0,.47.17a6,6,0,0,0,2.77,0,9.56,9.56,0,0,0,3.62-1.82l-.42.27a12,12,0,0,1-1.92,1Z"/>
        <path class="cls-10" d="M103.88,190.24a14.82,14.82,0,0,0,3.44-1.83l-.55.44c-.18.14-.39.26-.58.39a9.85,9.85,0,0,1-1.2.73,17.27,17.27,0,0,0,5.86-4.59,26.08,26.08,0,0,0,4.05-6.69,16.79,16.79,0,0,0,1.33-5.62,9.79,9.79,0,0,0-.71-4.29,8.36,8.36,0,0,0-1-1.85,8.68,8.68,0,0,0-.76-.88,10.42,10.42,0,0,0-1-.82l-.55-.41a15.68,15.68,0,0,0-1.87-.8,8.88,8.88,0,0,0-1.8-.32,10.28,10.28,0,0,0-3.24.36,15.69,15.69,0,0,0-6.75,4.22,25.17,25.17,0,0,0-3.46,4.25c-.26.43-.55.81-.79,1.28l-.75,1.37a22.66,22.66,0,0,0-1.21,3,12,12,0,0,0-.51,6.11,7.79,7.79,0,0,0,2.88,4.59c.3.23.61.4.87.57l.2.12-.1-.08.46.21c.57.24.9.31.84.22a4.58,4.58,0,0,0-1-.62l-.1-.06-.06,0h0l0,0h0l0,0-.36-.26a6.2,6.2,0,0,1-.79-.61,7.42,7.42,0,0,1-2.49-4.56A12,12,0,0,1,93,178a23.2,23.2,0,0,1,2.66-5.21,26.3,26.3,0,0,1,3.24-3.91,18.64,18.64,0,0,1,3.24-2.57,13.2,13.2,0,0,1,3.06-1.38,9,9,0,0,1,3.07-.4,6.18,6.18,0,0,1,.83.09l.42.07.44.12a11.28,11.28,0,0,1,1.7.79,10.25,10.25,0,0,1,1.4,1.28,6.7,6.7,0,0,1,.87,1.46,8.1,8.1,0,0,1,.63,3.13,12.54,12.54,0,0,1-.47,3.49,20,20,0,0,1-1.54,3.83,28.69,28.69,0,0,1-2.93,4.29,24.46,24.46,0,0,1-3.3,3.45c-.31.24-.6.5-.92.72l-.93.63-1,.51a9.57,9.57,0,0,1-.94.41,10.71,10.71,0,0,1-3.34.68l-.66,0h-.33l.11,0,.18,0h-.06l-.18,0c-.46-.05-.84-.09-1.11-.1s-.31.2-.19.4a4.38,4.38,0,0,0,1,.51l.37.14-.28,0-.11,0h0l.07,0,.15,0,.66.21a8.58,8.58,0,0,0,3.86.05,12.46,12.46,0,0,0,5.12-2.49s-.23.17-.58.4a9.93,9.93,0,0,1-1.34.78,7,7,0,0,1-.72.37l-.65.25Z"/>
      </g>
      <path class="cls-8" d="M55.19,67.82c-1.79-3.33-.35,34.14,6,37.89S99.23,85.32,109.57,71c-27.09,43-55.66,56-57.89,58.89s13.31-.24,24.5-7.35c3.5.59,4.18,16.09,4.18,16.09s34.87-25.64,46-85.82a323.39,323.39,0,0,1-65.86-6.65c5.23,25.19,6.89,43,34.4,15.39C72,91.44,61.42,79.41,55.19,67.82Z"/>
      <path class="cls-8" d="M52.72,161.94c23.81-12.25,46.2-29.45,60.2-55.53-2.6,26.79-25.19,67.91-36.74,74.14S49.76,165.74,52.72,161.94Z"/>
      <path class="cls-12" d="M261.64,36.43c-5.39,2.36-12.8,4.32-21.69,5.9-6.79,1.21-14.44,2.2-22.69,3l-2.48.23c-10,.89-20.9,1.48-32.16,1.8q-5.94.16-12,.24c-4.18.05-8.4.06-12.63,0l-2.79,0-1.14,0h-1.12l-.9,0-2,0-.8,0H149l-1.77,0-.81,0-1.85,0h-.83l-3.06-.08-.57,0-2.22-.06-.64,0-2.47-.08-.65,0L130.7,47,129.37,47l-4.05-.17c-4.19-.19-8.34-.42-12.42-.67-16.38-1-31.65-2.57-44.37-4.52-1.74-.27-3.43-.54-5.08-.83C58.49,39.91,54,39,50.08,38c-2.79-.7-5.29-1.44-7.47-2.21.13-2.79.4-6.94.75-12.19q.22-3.15.48-6.83H261.23C261.5,24.06,261.64,30.66,261.64,36.43Z"/>
      <path class="cls-13" d="M257.74,31.36c-3.91,2.46-9.93,4.65-17.53,6.56a221.39,221.39,0,0,1-22.6,4.21l-2.53.34c-10,1.31-21,2.3-32.59,2.93-3.93.21-7.93.39-12,.52s-8.21.22-12.35.27l-2.91,0h-8.92L141,46.12l-.64,0-2.25-.05h-.66L135,46h-.66l-3.43-.13h0c-.52,0-1,0-1.55-.06l-3.88-.17c-4.17-.2-8.31-.45-12.39-.76a315.18,315.18,0,0,1-44.39-6.09c-1.75-.39-3.46-.79-5.12-1.22-4.28-1.08-8.26-2.27-11.9-3.58q.39-3.54.79-7.58c.3-3,.61-6.22.93-9.6h204C257.87,24.69,258,29.85,257.74,31.36Z"/>
      <path class="cls-14" d="M182.93,16.76c-.84.78-1.71,1.55-2.6,2.32-2.84,2.47-5.9,4.91-9,7.18a117.49,117.49,0,0,1-11.56,7.53,57.17,57.17,0,0,1-5.42,2.72l-.93.39c-.51.21-1,.4-1.48.56l-.47.15c-.43.14-.84.26-1.24.36s-.78.18-1.15.25c-.79.13-1.77.26-2.93.4-1.46.17-3.19.33-5.14.49l-.86.07h0l-3,.21-.84,0c-1.4.09-2.87.17-4.41.25l-2.6.11c-1.08.05-2.18.09-3.31.12-3.92.12-8.09.19-12.36.17C97.26,40,79.43,38.73,69,34.75a23.63,23.63,0,0,1-5.11-2.59,9.44,9.44,0,0,1-3.35-3.73c-.07-.16-.14-.35-.21-.56-.59-1.88-.94-5.71-1.09-11.11Z"/>
      <g>
        <path class="cls-15" d="M102.76,223.39c-2.25,1.66-12.6,5.76-16.9,13.64s-14.21,19.51-32.9,24c-11.9,2.86-30.84,3.62-35.57-1.08-2.46-2.45,2.62-15.73,7.17-19.58S44.65,251.88,61,242.25,102.15,214,103.2,216.7,104.31,222.26,102.76,223.39Z"/>
        <path class="cls-16" d="M48.65,209.17c-4,6.58-6.53,11.29-2.1,11.77s10-2.6,10-2.6S54.31,225,58,228.77c7.79,8.16,40.55-21.7,42.83-30.55,3,5.35,4.25,19.14,2.42,21.17s-14.77,6.93-19,14.63-13.87,19-32.12,23.44c-11.62,2.79-30.1,3.53-34.72-1C15,254,21,235.5,31.06,225.62,37.5,219.3,48.65,209.17,48.65,209.17Z"/>
        <path class="cls-17" d="M43.47,215.65c-.35,3.74-1,9.27,10.86,4.72-3.34,11.06,6.45,14.41,16.8,7.89,7-4.39,23.07-17.68,27.79-24.16-6.29,11.55-24.43,25.38-33.38,34.82s-41.39,14.5-43.77,10.75C20.11,247.05,24.75,228.42,43.47,215.65Z"/>
        <path class="cls-18" d="M21.46,259.7c-3-.5-1.59,1.84,6.92,2.7S59.53,259.73,67,253C49,260,33.83,261.73,21.46,259.7Z"/>
      </g>
      <g>
        <path class="cls-15" d="M273.34,237.65c2.36,2.1,1.45,7.16-8.4,11.81-11.4,5.38-26.11,8.66-46.51-.53s-25.62-9.17-37.8-10.55-18-3.2-19.34-7.08a15.79,15.79,0,0,1,0-5.9s16.93-6.3,38.44,5.64,28.21,15.48,45.14,12.2S273.34,237.65,273.34,237.65Z"/>
        <path class="cls-16" d="M165,204.28c6.54,6.56,18.09,10.49,33.05,12.33s19.94,6.22,28.6,10.72,22.3.88,16.53-7.94c9.19,10,27.82,12.17,30.18,14.27s1.45,7.17-8.4,11.81c-11.4,5.38-26.11,8.66-46.51-.52s-25.62-9.18-37.8-10.55-18-3.21-19.34-7.09S161.32,208.75,165,204.28Z"/>
        <path class="cls-17" d="M174,212.5c8.23,10.32,22.22,7.87,35.87,15.39s21,12,29,13.65c11.46,2.36,34.46-.18,33.58-6.82-.42-1.74-18.28-3.94-27.11-11.9,1.31,5.6-9.6,11.33-22.48,3.76-12.34-7.25-17.58-7.61-28.43-9S177.65,214.07,174,212.5Z"/>
        <path class="cls-18" d="M221.51,247.44c14,6.7,38.32,6.16,51-6.3C257.33,256.23,234.9,256.89,221.51,247.44Z"/>
      </g>
    </g>
  </g>
</svg>
