<svg id="Layer_1" data-name="Layer 1" xmlns="http://www.w3.org/2000/svg" width="253.1" height="208.05" viewBox="0 0 253.1 208.05">
  <defs>
    <style>
      .cls-1 {
        fill: #ff0;
      }

      .cls-2 {
        fill: #f9fdfe;
      }

      .cls-3 {
        fill: #8dc1d8;
      }

      .cls-4 {
        fill: #6ab8df;
      }

      .cls-5 {
        fill: #b8eef4;
      }

      .cls-6 {
        fill: #327ea8;
      }

      .cls-7 {
        fill: #0f4b7d;
      }

      .cls-8 {
        fill: #01213d;
      }

      .cls-9 {
        fill: #4591af;
      }

      .cls-10 {
        fill: #529ecf;
      }

      .cls-11 {
        fill: #99cadd;
      }

      .cls-12 {
        fill: #a2d8ea;
      }

      .cls-13 {
        fill: #d4f2ff;
      }

      .cls-14 {
        fill: #286fa1;
      }

      .cls-15 {
        fill: #307cb5;
      }

      .cls-16 {
        fill: #004c60;
      }

      .cls-17 {
        fill: #78c7f9;
      }

      .cls-18 {
        fill: #5cafdf;
      }

      .cls-19 {
        fill: #d3e9ef;
      }

      .cls-20 {
        fill: none;
        stroke: #014656;
        stroke-miterlimit: 10;
      }
    </style>
  </defs>
  <g>
    <path class="cls-1" d="M121.86,198.41a6,6,0,0,0,9.39,0L244.43,56.17a6,6,0,0,0,.08-7.37l-21-27.53a6.07,6.07,0,0,0-2.2-1.79L197,8a6,6,0,0,0-2.57-.58H58.6A6.08,6.08,0,0,0,56,8L31.76,19.49a6,6,0,0,0-2.2,1.78L8.6,48.8a6,6,0,0,0,.07,7.37Z"/>
    <g>
      <polygon class="cls-2" points="194.42 52.44 218.77 24.91 194.42 13.37 161.8 24.91 194.42 52.44"/>
      <line class="cls-3" x1="91.31" y1="24.91" x2="126.55" y2="13.37"/>
      <polygon class="cls-4" points="194.42 13.37 126.55 13.37 161.8 24.91 194.42 13.37"/>
      <polygon class="cls-5" points="126.68 52.44 126.68 52.44 161.8 24.91 126.55 13.37 91.31 24.91 126.68 52.44"/>
      <polygon class="cls-6" points="239.73 52.44 194.42 52.44 218.77 24.91 239.73 52.44"/>
      <polygon class="cls-7" points="58.6 52.44 91.31 24.91 58.6 13.37 34.34 24.91 58.6 52.44"/>
      <polyline class="cls-8" points="13.37 52.44 34.34 24.91 58.6 52.44 13.37 52.44"/>
      <polygon class="cls-4" points="58.6 13.37 126.55 13.37 91.31 24.91 58.6 13.37"/>
      <polygon class="cls-9" points="58.6 52.44 82.53 52.44 91.31 24.91 58.6 52.44"/>
      <polygon class="cls-10" points="91.31 24.91 82.53 52.44 126.68 52.44 91.31 24.91"/>
      <polygon class="cls-11" points="126.68 52.44 170.6 52.44 161.8 24.91 126.68 52.44"/>
      <polygon class="cls-12" points="161.8 24.91 170.6 52.44 194.42 52.44 161.8 24.91"/>
      <polygon class="cls-13" points="239.73 52.44 194.42 52.44 146.16 153.58 239.73 52.44"/>
      <polygon class="cls-14" points="146.16 153.58 126.55 194.68 239.73 52.44 146.16 153.58"/>
      <polygon class="cls-15" points="106.92 153.58 58.6 52.44 13.37 52.44 106.92 153.58 106.92 153.58"/>
      <polygon class="cls-16" points="106.92 153.58 13.37 52.44 126.55 194.68 106.92 153.58 106.92 153.58"/>
      <polygon class="cls-10" points="146.16 153.58 194.42 52.44 170.6 52.44 146.16 153.58 146.16 153.58"/>
      <polygon class="cls-4" points="106.92 153.58 58.6 52.44 82.5 52.44 106.92 153.58 106.92 153.58"/>
      <polygon class="cls-17" points="146.16 153.58 126.68 52.44 106.92 153.58 126.55 194.68 146.16 153.58 146.16 153.58"/>
      <polygon class="cls-18" points="170.6 52.44 126.68 52.44 126.68 52.44 126.68 52.44 146.16 153.58 170.6 52.44"/>
      <polygon class="cls-19" points="82.5 52.44 126.68 52.44 126.68 52.44 126.68 52.44 106.94 153.58 82.5 52.44"/>
      <path class="cls-20" d="M218.77,24.91,194.42,13.37H58.6L34.34,24.91l-21,27.53L126.55,194.68,239.73,52.44ZM106.92,153.58"/>
    </g>
  </g>
</svg>
