<svg id="Layer_1" data-name="Layer 1" xmlns="http://www.w3.org/2000/svg" xmlns:xlink="http://www.w3.org/1999/xlink" width="460" height="462" viewBox="0 0 460 462">
  <defs>
    <style>
      .cls-1, .cls-11, .cls-13, .cls-15, .cls-17, .cls-18, .cls-2, .cls-35, .cls-8 {
        fill: none;
      }

      .cls-2 {
        clip-rule: evenodd;
      }

      .cls-3 {
        fill: #ff0;
      }

      .cls-4 {
        clip-path: url(#clip-path);
      }

      .cls-5 {
        fill: url(#linear-gradient);
      }

      .cls-6 {
        fill: #9dc2d4;
      }

      .cls-10, .cls-38, .cls-39, .cls-6, .cls-7 {
        fill-rule: evenodd;
      }

      .cls-7 {
        fill: #a1c96d;
      }

      .cls-8 {
        stroke: #75bfa8;
      }

      .cls-11, .cls-13, .cls-15, .cls-17, .cls-18, .cls-8 {
        stroke-miterlimit: 22.93;
        stroke-width: 0px;
      }

      .cls-9 {
        clip-path: url(#clip-path-2);
      }

      .cls-10 {
        fill: #5c6163;
      }

      .cls-11 {
        stroke: #52646e;
      }

      .cls-12 {
        fill: #818f96;
      }

      .cls-13 {
        stroke: #818f96;
      }

      .cls-14 {
        fill: #73828a;
      }

      .cls-15 {
        stroke: #73828a;
      }

      .cls-16 {
        fill: #63747d;
      }

      .cls-17 {
        stroke: #63747d;
      }

      .cls-18 {
        stroke: #677e89;
      }

      .cls-19 {
        opacity: 0.63;
      }

      .cls-20 {
        fill: #3d8723;
      }

      .cls-21 {
        fill: #000b19;
        opacity: 0.3;
      }

      .cls-22 {
        fill: #091e28;
      }

      .cls-23, .cls-38 {
        fill: #0c2635;
      }

      .cls-24, .cls-39 {
        fill: #f0f2f8;
      }

      .cls-25 {
        fill: #a6b3c6;
      }

      .cls-26 {
        fill: #56595b;
      }

      .cls-27 {
        fill: #225ec4;
      }

      .cls-28 {
        fill: #6c8094;
      }

      .cls-29 {
        fill: #153b4f;
      }

      .cls-30 {
        fill: #231f20;
      }

      .cls-30, .cls-36 {
        opacity: 0.1;
      }

      .cls-31 {
        fill: #ee252c;
      }

      .cls-32, .cls-33 {
        fill: #fff;
      }

      .cls-33 {
        opacity: 0.4;
      }

      .cls-34 {
        fill: #647a7a;
      }

      .cls-35 {
        stroke: #404041;
        stroke-linejoin: round;
        stroke-width: 0.65px;
      }

      .cls-36 {
        fill: #0c1b24;
      }

      .cls-37 {
        fill: #a6a8ab;
      }

      .cls-40 {
        fill: #ccc;
      }
    </style>
    <clipPath id="clip-path">
      <rect class="cls-1" x="17.51" y="18.51" width="424.99" height="424.99" rx="26.14"/>
    </clipPath>
    <linearGradient id="linear-gradient" x1="-221.39" y1="1041.26" x2="668.45" y2="-516.32" gradientUnits="userSpaceOnUse">
      <stop offset="0.2" stop-color="#c5f7fd"/>
      <stop offset="0.34" stop-color="#b3f0fd"/>
      <stop offset="0.66" stop-color="#8ee1fd"/>
      <stop offset="0.83" stop-color="#80dbfd"/>
    </linearGradient>
    <clipPath id="clip-path-2">
      <polygon class="cls-2" points="1115.04 523.37 -375.24 523.37 -375.24 232.19 1115.04 232.19 1115.04 523.37 1115.04 523.37"/>
    </clipPath>
  </defs>
  <g>
    <rect class="cls-3" x="11.51" y="12.51" width="436.98" height="436.99" rx="32.14"/>
    <g class="cls-4">
      <g>
        <rect class="cls-5" x="-398.04" y="-239.94" width="1541.97" height="481.76"/>
        <g>
          <path class="cls-6" d="M21.05,91V68.61h-3V88.36l-1.18-1v33.07H10.6V207L.86,220.11h-8l-52.79-35.84V152.52l-39.89,23.19v14.82h-7.54v4.83h5.87v1.31h-1v.86h1v1.74h-11.8v6h-2.44V196h3.12v-1.49h-3.12v-9.27h3.12v-1.49h-3.12v-9.26h3.12V173h-3.12V163.7h3.12v-1.49h-3.12V153h3.12v-1.5h-3.12v-9.26h3.12V140.7h-3.12v-8.5h3l.18-23H-145.8l-11.33,8.07h-57V132.2h2.69v8.5H-214v1.49h2.6v9.26H-214V153h2.6v9.26H-214v1.49h2.6V173H-214v1.5h2.6v9.26H-214v1.49h2.6v9.27H-214V196h2.6v9.26H-214v1.5h2.6V216H-214v1.5h2.6v9.26H-214v1.49h2.6v3.21h-2.37v-.35h-.75v-4.8h.75v-.77h-.75v-4.8h.75V220h-.75v-4.8h.75v-.77h-.75v-4.8h.75v-.77h-.75v-4.25h.16v-6.18h-7.23v-6h-59.08v6h-7.22v6.18h.16v4.25h-.75v.77h.75v4.8h-.75v.77h.75V220h-.75v.77h.75v4.8h-.75v.77h.75v2h-7v-3.85h.54v-.65h-.54V220.2h.11V215h-5.3v-5h-43.4v5h-5.3v5.19h.11v3.57h-.54v.65h.54v4h-.54v.66h.54v4h-.54v.66h.54v4h-.54v.65h.54v4h-.54v.65h.54v4h-.54v.65h.54v4h-.54v.66h.54v4h-.54v.65h.54v4h-.54v.65h.54v4h-.54v.65h.54v4h-.54v.66h.54v4h-.54V276h.54v4h-.54v.65h.54v4h-.54v.65h.54v4.51h-3.4v5h3.4v3.08h-3.4v5h142V299h97.29v-3.54h5.25v6.13h44.23l-1.66,8.93H3.32L1.11,298.69h3.8V296H10.6v7.5H91.27l-.16-1.1h79.51v-3.15h3.67v1.88H362.22v1.75h13.71l-.5,1h181c-10.53-21.32-43.18-37.28-82.77-39.14v-.2h.43v-.79h-.43v-4.9h.43V258h-.43v-4.9h.43v-.79h-.43v-4.9h.43v-.79h-.43v-4.9h.43V241h-.43v-4.9h.43v-.79h-.43v-4.9h.43v-.79h-.43v-4.9h.43v-.79h-.43V219h.43v-.79h-.43v-4.9h.43v-.79h-.43v-4.9h.43v-.79h-.43v-4.34h.09v-6.31h-4.2V190H438.83v-6.17H404.46v6.46h-1.07V190H369v6.12h-4.2v6.31h.09v4.34h-.43v.79h.43v4.9h-.43v.79h.43v4.9h-.43V219h.43v4.9h-.43v.79h.43v3.42h-6.65V206.35l-37.74-21.93v43.67h-3.85V205.41H254.76v-5.13H189.49v-17H97.05v17H77.18l-6.53-47.88c-4.84-19.55-15.42-29.54-30.49-32H37.51l0-15L21.05,91Zm-81,99.57Zm-53.36,90v-9.26h-2.44v9.26Zm0-10.76V260.5h-2.44v9.26Zm0-10.75v-9.26h-2.44V259Zm0-10.76V239h-2.44v9.26Zm0-10.75v-9.27h-2.44v9.27Zm0-10.76v-9.26h-2.44v9.26Zm0-10.76v-9.25h-2.44V216ZM81.58,232.53v-4.39H81l-.53-3.88h1.72V236.8l-.59-4.27Zm.59-14.31H79.63L78,206.35h4.16v11.87ZM18.71,49.71h1.7v18.9h-1.7V49.71Z"/>
          <path class="cls-6" d="M832.46,73.51V51.16h-3V70.91l-1.18-1v33.07H822v86.62l-9.74,13.1h-8L751.5,166.82V135.07l-39.9,23.19v14.82h-7.54v4.83h5.87v1.31H709v.86h.94v1.74H698.14v6H695.7v-9.26h3.12V177H695.7v-9.27h3.12v-1.49H695.7V157h3.12v-1.5H695.7v-9.26h3.12v-1.49H695.7V135.5h3.12V134H695.7v-9.26h3.12v-1.49H695.7v-8.5h3l.18-23H665.62L654.29,99.8h-57v15H600v8.5h-2.6v1.49H600V134h-2.6v1.5H600v9.26h-2.6v1.49H600v9.26h-2.6V157H600v9.26h-2.6v1.49H600V177h-2.6v1.49H600v9.26h-2.6v1.5H600v9.26h-2.6V200H600v9.26h-2.6v1.5H600V214h-2.38v-.35h-.74v-4.8h.74v-.77h-.74v-4.8h.74v-.77h-.74v-4.8h.74v-.77h-.74v-4.8h.74v-.77h-.74v-4.25h.16v-6.18h-7.23v-6H530.75v6h-7.22v6.18h.16v4.25h-.75v.77h.75v4.8h-.75v.77h.75v4.8h-.75v.77h.75v4.8h-.75v.77h.75v2h-7V207h.55v-.65h-.55v-3.57h.12v-5.19h-5.31v-5.05H468.09v5.05h-5.3v5.19h.11v3.57h-.55V207h.55v4h-.55v.65h.55v4h-.55v.66h.55v4h-.55V221h.55v4h-.55v.65h.55v4h-.55v.65h.55v4h-.55v.66h.55v4h-.55v.65h.55v4h-.55v.65h.55v4h-.55v.65h.55v4h-.55v.66h.55v4h-.55v.65h.55v4h-.55v.65h.55v4h-.55v.65h.55v4.51h-3.4v5h3.4v3.08h-3.4v5h142v-3.91h97.29V278h5.24v6.13H748.3L746.63,293h68.1l-2.2-11.79h3.8v-2.7H822V286h80.66l-.15-1.1H982v-3.15h3.68v1.88h187.92v1.75h13.72l-.5,1h181c-10.54-21.32-43.19-37.28-82.77-39.14v-.2h.43v-.79h-.43v-4.9h.43v-.79h-.43v-4.9h.43v-.79h-.43V230h.43v-.79h-.43v-4.9h.43v-.79h-.43v-4.9h.43v-.79h-.43v-4.9h.43v-.79h-.43v-4.9h.43v-.79h-.43v-4.9h.43v-.79h-.43v-4.9h.43v-.79h-.43v-4.9h.43v-.79h-.43V185h.09v-6.31H1281v-6.12h-30.76v-6.17h-34.37v6.46h-1.08v-.29h-34.36v6.12h-4.2V185h.09v4.34h-.43v.79h.43v4.9h-.43v.79h.43v4.9h-.43v.79h.43v4.9h-.43v.79h.43v3.42h-6.65V188.9L1131.94,167v43.67h-3.85V188h-61.91v-5.13H1000.9v-17H908.47v17H888.6L882.07,135c-4.84-19.55-15.42-29.54-30.5-32h-2.64l0-15L832.46,73.51Zm-81,99.57Zm-53.36,90v-9.26H695.7v9.26Zm0-10.76v-9.26H695.7v9.26Zm0-10.75V232.3H695.7v9.26Zm0-10.76v-9.26H695.7v9.26Zm0-10.75v-9.26H695.7v9.26Zm0-10.76V200H695.7v9.26Zm0-10.75v-9.26H695.7v9.26ZM893,215.08v-4.39h-.6l-.53-3.88h1.71v12.54l-.58-4.27Zm.58-14.31h-2.53l-1.62-11.87h4.15v11.87ZM830.13,32.26h1.69v18.9h-1.69V32.26Z"/>
          <polygon class="cls-7" points="1115.04 523.37 -375.24 523.37 -375.24 232.19 1115.04 232.19 1115.04 523.37 1115.04 523.37"/>
          <polygon class="cls-8" points="1115.04 523.37 -375.24 523.37 -375.24 232.19 1115.04 232.19 1115.04 523.37 1115.04 523.37"/>
          <g class="cls-9">
            <path class="cls-10" d="M-511.19,266.21c483.29-4,1364.83,47.35,1475.75,275.14H220.36C122.2,294.43-233.57,301-511.82,285c0-2,.52-2.56.52-4.59v-2.23l-.71,0-.19-10.22,1,0v-1.76Z"/>
            <path class="cls-11" d="M-511.19,266.21c483.29-4,1364.83,47.35,1475.75,275.14H220.36C122.2,294.43-233.57,301-511.82,285c0-2,.52-2.56.52-4.59v-2.23l-.71,0-.19-10.22,1,0v-1.76Z"/>
          </g>
          <path class="cls-12" d="M452.08,396.88c37.64,14.63,72.27,30.69,102.82,48.27H529.48c-29.78-16.9-63.36-32.42-99.71-46.63l22.31-1.64Z"/>
          <path class="cls-13" d="M452.08,396.88c37.64,14.63,72.27,30.69,102.82,48.27H529.48c-29.78-16.9-63.36-32.42-99.71-46.63l22.31-1.64Z"/>
          <path class="cls-14" d="M340.22,359.73c29.07,8.31,57.22,17.24,84.09,26.84H397.73c-25-8.89-51-17.22-77.84-25l20.28-1.4.05-.42Z"/>
          <path class="cls-15" d="M340.22,359.73c29.07,8.31,57.22,17.24,84.09,26.84H397.73c-25-8.89-51-17.22-77.84-25l20.28-1.4.05-.42Z"/>
          <path class="cls-16" d="M227.78,331.51c27.4,6,54.45,12.53,80.86,19.53H282.09c-26.25-7-53.07-13.49-80.21-19.53Z"/>
          <path class="cls-17" d="M227.78,331.51c27.4,6,54.45,12.53,80.86,19.53H282.09c-26.25-7-53.07-13.49-80.21-19.53Z"/>
          <polygon class="cls-10" points="-279.77 267.67 1114.71 267.67 1114.71 303.62 -279.77 267.67 -279.77 267.67"/>
          <polygon class="cls-18" points="-279.77 267.67 1114.71 267.67 1114.71 303.62 -279.77 267.67 -279.77 267.67"/>
        </g>
        <g class="cls-19">
          <path class="cls-20" d="M34.88,396.16s6.14-5.35,18-6.66-12.72-7-21.5,6.66C31.37,396.16,27.42,402.25,34.88,396.16Z"/>
          <path class="cls-20" d="M18.2,396.92s18-17.11,28.53-21.68-10.1-4.94-24.14,9.32C22.59,384.56,15.57,393.12,18.2,396.92Z"/>
          <path class="cls-20" d="M12.94,396.92s12-27.76,17.38-31.18-8.61-5.33-17.38,17.3C12.94,383,9.43,395,12.94,396.92Z"/>
          <path class="cls-20" d="M6.58,396.92s4.6-25.48,9-29.28S-1.1,371.82,6.58,396.92Z"/>
          <path class="cls-20" d="M3.94,396.92s.22-21.23-9.21-24.49S.21,386.27,3.94,396.92Z"/>
          <path class="cls-20" d="M.87,396.92S-5,372.6-19.53,372-8.12,381,.87,396.92Z"/>
        </g>
        <g class="cls-19">
          <path class="cls-20" d="M391.84,301.53s3.1-2.7,9.07-3.36-6.41-3.54-10.84,3.36C390.07,301.53,388.08,304.6,391.84,301.53Z"/>
          <path class="cls-20" d="M383.43,301.91s9.08-8.63,14.39-10.93-5.09-2.49-12.17,4.7C385.65,295.68,382.11,300,383.43,301.91Z"/>
          <path class="cls-20" d="M380.78,301.91s6-14,8.77-15.72-4.35-2.69-8.77,8.72C380.78,294.91,379,301,380.78,301.91Z"/>
          <path class="cls-20" d="M377.57,301.91s2.32-12.85,4.54-14.76S373.7,289.26,377.57,301.91Z"/>
          <path class="cls-20" d="M376.24,301.91s.11-10.7-4.64-12.35S374.36,296.54,376.24,301.91Z"/>
          <path class="cls-20" d="M374.69,301.91s-3-12.26-10.29-12.56S370.16,293.86,374.69,301.91Z"/>
          <path class="cls-20" d="M374.07,301.91a13.26,13.26,0,0,0-10.55-4.6C356.88,297.69,372.44,300.38,374.07,301.91Z"/>
        </g>
        <g class="cls-19">
          <path class="cls-20" d="M189.28,263.75a14.83,14.83,0,0,1,7.7-2.85c5.06-.57-5.44-3-9.2,2.85C187.78,263.75,186.1,266.35,189.28,263.75Z"/>
          <path class="cls-20" d="M182.16,264.07s7.69-7.31,12.19-9.26-4.31-2.12-10.32,4C184,258.79,181,262.45,182.16,264.07Z"/>
          <path class="cls-20" d="M179.9,264.07s5.11-11.87,7.44-13.33-3.68-2.28-7.44,7.4C179.9,258.14,178.4,263.26,179.9,264.07Z"/>
          <path class="cls-20" d="M177.18,264.07s2-10.89,3.85-12.52S173.9,253.34,177.18,264.07Z"/>
          <path class="cls-20" d="M176.06,264.07s.09-9.07-3.94-10.47S174.46,259.52,176.06,264.07Z"/>
          <path class="cls-20" d="M174.74,264.07s-2.53-10.4-8.72-10.64S170.9,257.24,174.74,264.07Z"/>
          <path class="cls-20" d="M174.21,264.07a11.23,11.23,0,0,0-8.94-3.9C159.64,260.5,172.84,262.77,174.21,264.07Z"/>
        </g>
        <path class="cls-21" d="M104.9,358.83c-.5.06-1.11.48,2.09,1.35,17.25,4.63,63.66,15.48,81.34,19.44,21.51,4.82,36.92,5.27,54.69,5.27s74.61-4,82.68-5.38-11.52-8.4-32.75-10.39S178.3,353.37,178.3,353.37,107.67,358.49,104.9,358.83Z"/>
        <g>
          <path class="cls-22" d="M104.73,337.25l21.64,10.4,48.33,6.42,36.44,1.81,56.79-2.83-16.54-42.66-139.12,3.85s-5.91,4.5-7.32,10S104.73,337.25,104.73,337.25Z"/>
          <g>
            <path class="cls-23" d="M213.92,351c0,14.47-5.15,26.2-11.52,26.2s-11.52-11.73-11.52-26.2,5.16-26.2,11.52-26.2S213.92,336.48,213.92,351Z"/>
            <polygon class="cls-23" points="202.4 324.75 187.93 324.75 187.65 377.79 202.4 377.15 202.4 324.75"/>
            <path class="cls-23" d="M199.62,351.27c0,14.65-5.36,26.52-12,26.52s-12-11.87-12-26.52,5.35-26.52,12-26.52S199.62,336.63,199.62,351.27Z"/>
            <path class="cls-24" d="M195.7,351.27c0,11.22-3.95,20.31-8.82,20.31s-8.82-9.09-8.82-20.31S182,331,186.88,331,195.7,340.06,195.7,351.27Z"/>
            <path class="cls-24" d="M194.46,351.27c0,10.1-3.48,18.28-7.77,18.28s-7.76-8.18-7.76-18.28S182.41,333,186.69,333,194.46,341.18,194.46,351.27Z"/>
            <polygon class="cls-24" points="185.62 331.61 187.19 348.15 179.21 342.16 178.6 345.66 186.88 351.96 180.2 363.2 181.22 366.27 188.17 354.71 190.88 368.89 192.35 366.34 189.79 351.92 195.39 347.83 194.92 343.69 189.47 347.88 187.93 331.4 185.62 331.61"/>
            <path class="cls-25" d="M190.73,351.27c0,3.25-1.15,5.88-2.56,5.88s-2.55-2.63-2.55-5.88,1.15-5.87,2.55-5.87S190.73,348,190.73,351.27Z"/>
            <path class="cls-24" d="M190.36,351.27c0,1.55-.54,2.8-1.22,2.8s-1.21-1.25-1.21-2.8.54-2.8,1.21-2.8S190.36,349.73,190.36,351.27Z"/>
          </g>
          <g>
            <path class="cls-23" d="M131,340.13c0,10.95-3.53,19.82-7.89,19.82s-7.89-8.87-7.89-19.82,3.53-19.81,7.89-19.81S131,329.19,131,340.13Z"/>
            <polygon class="cls-23" points="123.07 320.32 113.15 320.32 112.97 360.44 123.07 359.95 123.07 320.32"/>
            <path class="cls-23" d="M121.16,340.38c0,11.08-3.67,20.06-8.2,20.06s-8.19-9-8.19-20.06,3.67-20.06,8.19-20.06S121.16,329.3,121.16,340.38Z"/>
            <path class="cls-24" d="M118.48,340.38c0,8.48-2.71,15.36-6,15.36s-6-6.88-6-15.36,2.71-15.36,6-15.36S118.48,331.9,118.48,340.38Z"/>
            <path class="cls-24" d="M117.63,340.38c0,7.63-2.39,13.82-5.32,13.82S107,348,107,340.38s2.38-13.83,5.32-13.83S117.63,332.74,117.63,340.38Z"/>
            <polygon class="cls-24" points="111.57 325.5 112.64 338.02 107.18 333.48 106.76 336.13 112.44 340.89 107.86 349.4 108.56 351.72 113.32 342.98 115.18 353.7 116.18 351.77 114.43 340.87 118.26 337.77 117.94 334.64 114.21 337.81 113.15 325.34 111.57 325.5"/>
            <path class="cls-25" d="M115.07,340.38c0,2.45-.78,4.44-1.75,4.44s-1.75-2-1.75-4.44.79-4.45,1.75-4.45S115.07,337.92,115.07,340.38Z"/>
            <path class="cls-24" d="M114.82,340.38c0,1.17-.37,2.12-.84,2.12s-.83-.95-.83-2.12.37-2.12.83-2.12S114.82,339.21,114.82,340.38Z"/>
          </g>
          <g>
            <ellipse class="cls-23" cx="302.83" cy="347.48" rx="12.62" ry="23.91"/>
            <polygon class="cls-23" points="302.83 323.57 286.98 323.57 286.68 371.98 302.83 371.39 302.83 323.57"/>
            <path class="cls-23" d="M299.79,347.78c0,13.37-5.87,24.2-13.11,24.2s-13.11-10.83-13.11-24.2,5.87-24.21,13.11-24.21S299.79,334.41,299.79,347.78Z"/>
            <path class="cls-26" d="M295.5,347.78c0,10.23-4.33,18.53-9.66,18.53s-9.66-8.3-9.66-18.53,4.32-18.53,9.66-18.53S295.5,337.54,295.5,347.78Z"/>
            <path class="cls-26" d="M294.13,347.78c0,9.21-3.8,16.68-8.5,16.68s-8.5-7.47-8.5-16.68,3.8-16.68,8.5-16.68S294.13,338.57,294.13,347.78Z"/>
            <polygon class="cls-26" points="284.46 329.83 286.17 344.93 277.43 339.46 276.76 342.66 285.84 348.4 278.51 358.67 279.64 361.47 287.25 350.92 290.22 363.86 291.83 361.53 289.02 348.37 295.15 344.64 294.64 340.86 288.67 344.68 286.98 329.64 284.46 329.83"/>
            <path class="cls-25" d="M290.05,347.78c0,3-1.25,5.36-2.8,5.36s-2.79-2.4-2.79-5.36,1.25-5.36,2.79-5.36S290.05,344.82,290.05,347.78Z"/>
            <path class="cls-24" d="M289.65,347.78c0,1.41-.6,2.55-1.34,2.55s-1.33-1.14-1.33-2.55.6-2.56,1.33-2.56S289.65,346.37,289.65,347.78Z"/>
          </g>
          <path class="cls-27" d="M104.73,337.25l0-4.63s1.72-14.59,7.58-15.48c7.11-1.08,9.59,7.78,10.61,14.51s2.3,16.27,6,16.82c7.85,1.2,16.89,2.4,25.09,3.17s20.78,2.43,20.78,2.43a15.74,15.74,0,0,1-1.6-6.72c-.23-4.41-2.35-29.92,13.89-31.33,12.49-1.08,16.41,16.21,18,23.61s3.71,14.88,6.15,16.25,14.6,1.47,24.63.93,72.69-3,79-3.76,12.27-3,14.09-10.44,4.56-17.44,2.51-21.08-8.81-32.25-8.81-32.25l2-4.33s-6-4-8.19-5.53c-6.79-4.95-31.16-14.14-37.24-17.26-12.35-6.34-14.31-7.5-31.75-8.26a467.35,467.35,0,0,0-52.4.61c-17,1.17-36.66,9.69-46,18.12s-24,27.7-24,27.7-9.63,3.5-13.62,7.07-4.88,5.32-5.88,9.28C102.8,327.25,103.21,331.65,104.73,337.25Z"/>
          <path class="cls-28" d="M126.8,300s54-16.43,65.67-19.52c11.41-3,14.44-5.21,9.64-9.68-9.8-9.11-15.49-11.61-26.8-9.43-9.14,1.76-19.47,6.12-26.16,12.26C140.42,281.63,126.8,300,126.8,300Z"/>
          <path class="cls-23" d="M202.11,270.8c-7.62-7.08-12.75-10.17-20-10.17a35.74,35.74,0,0,0-6.82.74c-9.14,1.76-19.47,6.12-26.16,12.26-8.73,8-22.35,26.37-22.35,26.37s54-16.43,65.67-19.52C203.88,277.46,206.91,275.27,202.11,270.8Zm.36,3.58c0,.07-.23.7-2.31,1.67a53.42,53.42,0,0,1-8.15,2.67c-9.38,2.48-46.36,13.66-60.35,17.9,4.58-5.92,12.84-16.26,18.72-21.65S166,265,175.65,263.16a34.12,34.12,0,0,1,6.48-.71c6.3,0,10.85,2.35,18.74,9.69C202.6,273.75,202.48,274.36,202.47,274.38Z"/>
          <path class="cls-29" d="M126.8,300s54-16.43,65.67-19.52c11.41-3,14.44-5.21,9.64-9.68-18.3-.74-28.93,2.09-39.71,6.15C135.74,287,126.8,300,126.8,300Z"/>
          <path class="cls-30" d="M121.44,313l-1.53-3.33s51.91-13.12,70.73-17.77c19.37-4.78,27.35-8.17,44.87-8.84,16.87-.65,39.63-.75,53.26-.24,18.57.68,35.84,2.12,35.84,2.12l-2,4.33s-17.78-1.66-35.51-2.37S233,286.14,221.36,288,124,310.84,124,310.84l1,9.55Z"/>
          <g>
            <path class="cls-31" d="M259,295.56l12-8.44s-25.42-.79-46,1.32c-9.27.95-14.2,7.17-19.65,14.4C219.54,297.81,259,295.56,259,295.56Z"/>
            <path class="cls-31" d="M297.56,287.88l10.55,8.32A157.33,157.33,0,0,1,325,299.28l-2.43-10s-2,0-6.9-.42C306.79,288.18,297.56,287.88,297.56,287.88Z"/>
            <path class="cls-31" d="M259,295.56s16.07-.67,28.06-.44c11.29.22,21,1.08,21,1.08l-10.55-8.32s-4.8-.34-11.72-.54-14.79-.22-14.79-.22Z"/>
          </g>
          <polygon class="cls-32" points="269.35 306.64 302.94 306.64 301.1 297.99 267.93 297.38 269.35 306.64"/>
          <path class="cls-33" d="M150.13,340.61c9.8,0,23.2,2,20.47,3.41s-18.3,1.08-25.82.89-21.75-1.19-15.95-2.3A115,115,0,0,1,150.13,340.61Z"/>
          <path class="cls-34" d="M316.42,279.42s-13.48-.87-31.77-1.55c-20.49-.77-39.58-1.07-53.25-.92-11.71-9-26-23.08-36.37-22.44,0,0,26.6-1.92,41.63-1.38,14,.51,22.65,1.33,27.43,1.88C277.43,256.53,292.63,265.55,316.42,279.42Z"/>
          <path class="cls-28" d="M264.09,255c-4.78-.55-13.46-1.37-27.43-1.88-1.87-.07-3.91-.1-6.06-.1-15.16,0-35.57,1.48-35.57,1.48l.7,0c10.3,0,24.23,13.68,35.67,22.46,2.31,0,4.76,0,7.35,0,12.79,0,28.86.32,45.9,1,18.29.68,31.77,1.55,31.77,1.55C292.63,265.55,277.43,256.53,264.09,255Zm-25.34,20.08c-2.35,0-4.61,0-6.73,0-2.24-1.73-4.55-3.63-7-5.62-6.4-5.25-12.95-10.61-19.12-13.83,7.17-.39,16.7-.81,24.69-.81,2.22,0,4.23,0,6,.09,10.63.39,19.82,1,27.29,1.87,11.7,1.33,25.28,8.84,45,20.34-5.73-.31-14.29-.74-24.2-1.12C268.33,275.43,252,275.09,238.75,275.09Z"/>
          <path class="cls-33" d="M259,295.56l8.7,12a1.77,1.77,0,0,0,1.43.73H303a1.77,1.77,0,0,0,1.69-1.23l3.41-10.88-7,1.79-32.9-.61Z"/>
          <path class="cls-30" d="M301.1,298l7-1.79a164,164,0,0,0-21-1.87A252.41,252.41,0,0,0,259,295.56l8.91,1.82Z"/>
          <g>
            <path class="cls-23" d="M211,356.91a12.57,12.57,0,0,1-3.05-6.36s23.81-.79,25.07-2.08a51.3,51.3,0,0,1,8.81-7.5c2.16-1.41,7.06-2.21,12.76-2.43s63-2.19,68-2,4.1,9.63,4.1,11.22-5.5,4.9-10.29,5.6c-13.48,2-54.71,3.66-65.19,4.12S211,356.91,211,356.91Z"/>
            <path class="cls-29" d="M125.91,345.4s11.6,1.45,22.45,2.28,24.83.79,24.83.79,1,4,1.2,4.49a2.12,2.12,0,0,0,1.37,1.14l.08,1.6s-20.16-3.24-27.48-4.1c-16.64-2-19.66-.57-20.74-1.67S125.91,345.4,125.91,345.4Z"/>
          </g>
          <g>
            <path class="cls-35" d="M195.43,318.57s6-9.56,10.37-16.36"/>
            <path class="cls-35" d="M231.4,277l5.73,6.12-2,4.64s.95,22,1.58,28c.44,4.31,1.37,8,8,8,26.42,0,67.35-.43,76-1,4.14-.3,4.44-3.11,4.21-7.67s-4.16-26.1-4.16-26.1l1.12-4.37-5.35-5.11"/>
            <polyline class="cls-35" points="190.64 262.41 191.94 280.62 188.17 292.51 187.65 297.37 180.85 318.14"/>
            <path class="cls-35" d="M130.1,350.42l-2.66-5v-2.79s-2.72-21.54-3.09-27.23a52,52,0,0,0-.69-6.65L126.8,300"/>
            <path class="cls-35" d="M165.55,264.12l-11.27,27.57-2.82,10,.12,5s-1.94,14.39-1.71,20.09.83,14,.15,15.84a4.21,4.21,0,0,1-1.66,2.33s-.46.8.37,3.53,1,3.29,1,3.29"/>
          </g>
          <path class="cls-33" d="M322.61,289.28l-8.69-.55s2.78,15.72,3.91,19.58c3.22,11.05,9.94,4.11,12.53,10.5C327.47,309.42,322.61,289.28,322.61,289.28Z"/>
          <path class="cls-36" d="M318,320.39c-.29-4.33-4.06-31.66-4.06-31.66-27.33-1.48-47-2.24-78.84-1,0,0,1.27,27,2.39,32s7.84,4.4,7.23,9.27-2.58,15-4.7,18.11a22.79,22.79,0,0,1-17.74,8.76c-8.92,0-11.12,0-11.12,0l2.18,1.11c7.2.24,29.21.91,37.91.53,10.48-.46,51.71-2.15,65.19-4.12a19.47,19.47,0,0,0,4.46-1.27c4.72-2.73,5.38-16.86,5.38-23.14C326.26,324.47,318.27,324.71,318,320.39Z"/>
          <path class="cls-36" d="M226.32,323.48c-1.85-9.75-3.42-19.06-8.11-22.06-4.09-2.62-22,.54-28.7,2.08-3,.68-62.34,17.12-62.34,17.12A60.89,60.89,0,0,1,129,328.5c.47,2.51,1,6.31,1.34,8.93.23,1.74,1,2.92,1.86,2.87l34.87,0c1.43-.08,2.73-1.8,3.39-4.49.73-3,1.67-9,2.72-12.36,2.51-8,7.31-12.52,12.07-13.77,9.23-2.4,18.94,2,26.31,19.11.66,1.54,1.23,3,1.71,4.45.68,2,3.1,13.79,5,13.74s10.39-6.58,10.16-13.3C228.26,330.57,227.49,329.63,226.32,323.48Z"/>
          <path class="cls-37" d="M289.1,290.48a2.1,2.1,0,1,1-2.61-1.77A2.24,2.24,0,0,1,289.1,290.48Z"/>
          <path class="cls-33" d="M290.83,321.47c25.15.1,34,.09,39.36,1.15,7,1.37-19.4,2.87-38.7,3-32.8.2-52.59.6-59.66-1.82C224,321.12,268.76,321.38,290.83,321.47Z"/>
          <path class="cls-33" d="M235.51,283.07c16.87-.65,89.1,1.88,89.1,1.88l-8.19-5.53s-31.7-1.67-39.92-1.84c-11.31-.23-45.75-1.54-55.06,0-6.31,1.06-40.51,10.42-51.75,13.38-10.28,2.71-38,10.46-53,15.68-7.09,2.47-9.22,5-9.22,5s9.5-4.15,12.46-2c0,0,51.91-13.12,70.73-17.77C210,287.13,218,283.74,235.51,283.07Z"/>
          <g>
            <polygon class="cls-38" points="187.01 292.84 177.83 295.16 178.3 293.3 187.48 290.98 187.01 292.84"/>
            <polygon class="cls-39" points="186.95 292.54 177.77 294.86 178.25 293 187.42 290.68 186.95 292.54"/>
          </g>
          <g>
            <polygon class="cls-38" points="150.15 302.12 141.89 304.21 142.35 302.44 150.61 300.34 150.15 302.12"/>
            <polygon class="cls-39" points="150.1 301.83 141.84 303.93 142.29 302.15 150.55 300.05 150.1 301.83"/>
          </g>
          <path class="cls-40" d="M129,292.12a1.75,1.75,0,0,0-1.67-2.38c-3.38.09-9,.36-10.24,1.24s-4.3,3.32-2.26,4.83,9.78,2.55,9.78,2.55l2.84,3.09a1.86,1.86,0,0,0,2.17-1c.53-1.42-2.31-4-2.31-4Z"/>
          <path class="cls-30" d="M128.59,291.93a1.3,1.3,0,0,0-1.22-1.8c-3,0-8.63.17-10,1.09s-4.28,3.08-2.24,4.59,9.42,2.55,9.42,2.55l2.84,3.09a1.86,1.86,0,0,0,2.17-1c-1.88-1.39-3.36-2.76-3.36-2.76Z"/>
          <path class="cls-29" d="M125.6,297.41l2.51-5.66a.9.9,0,0,0-.07-.87.91.91,0,0,0-.76-.41c-2.68,0-8.42.2-10,1.35-2.13,1.52-3.36,3.45,0,4.19C121.16,296.87,125.6,297.41,125.6,297.41Z"/>
          <path class="cls-29" d="M316.42,279.42s-13.48-.87-31.77-1.55c-20.49-.77-39.58-1.07-53.25-.92-13.3-11.1-26.39-20.2-36.23-22.45C207.74,253.74,277.5,256.72,316.42,279.42Z"/>
        </g>
      </g>
    </g>
  </g>
</svg>
