<svg xmlns="http://www.w3.org/2000/svg" xmlns:xlink="http://www.w3.org/1999/xlink" width="183.8" height="501.74" viewBox="0 0 183.8 501.74">
  <defs>
    <style>
      .cls-1 {
        fill: none;
      }

      .cls-2 {
        isolation: isolate;
      }

      .cls-3 {
        fill: #ff0;
      }

      .cls-4 {
        fill: #bf8a52;
      }

      .cls-5 {
        fill: url(#linear-gradient);
      }

      .cls-6 {
        fill: url(#linear-gradient-2);
      }

      .cls-7 {
        clip-path: url(#clip-path);
      }

      .cls-8 {
        opacity: 0.4;
        mix-blend-mode: screen;
      }

      .cls-9 {
        opacity: 0;
      }

      .cls-10 {
        fill: #171717;
        opacity: 0.09;
      }

      .cls-11 {
        fill: #5c5c5c;
        opacity: 0.18;
      }

      .cls-12 {
        fill: #747474;
        opacity: 0.27;
      }

      .cls-13 {
        fill: #8b8b8b;
        opacity: 0.36;
      }

      .cls-14 {
        fill: #9d9d9d;
        opacity: 0.45;
      }

      .cls-15 {
        fill: #adadad;
        opacity: 0.55;
      }

      .cls-16 {
        fill: #bdbdbd;
        opacity: 0.64;
      }

      .cls-17 {
        fill: #cecece;
        opacity: 0.73;
      }

      .cls-18 {
        fill: #dfdfdf;
        opacity: 0.82;
      }

      .cls-19 {
        fill: #efefef;
        opacity: 0.91;
      }

      .cls-20 {
        fill: #fff;
      }
    </style>
    <linearGradient id="linear-gradient" x1="37.57" y1="250.86" x2="47.6" y2="250.86" gradientUnits="userSpaceOnUse">
      <stop offset="0" stop-color="#ce9e68"/>
      <stop offset="0.51" stop-color="#cea266"/>
      <stop offset="1" stop-color="#cd9f6c"/>
    </linearGradient>
    <linearGradient id="linear-gradient-2" x1="136.2" y1="250.86" x2="146.23" y2="250.86" xlink:href="#linear-gradient"/>
    <clipPath id="clip-path">
      <path class="cls-1" d="M45.31,17.35,47.6,30.28,41.32,477.46l-3.75,6.91H18.77l11.8-466.9Zm107.92.12-14.74-.12L136.2,30.28l6.28,447.18,3.75,6.91H165Z"/>
    </clipPath>
  </defs>
  <g class="cls-2">
    <g id="Layer_1" data-name="Layer 1">
      <g>
        <path class="cls-3" d="M53.31,50.64l.29-20.28a7,7,0,0,0-.09-1.12l-.8-4.52.12-7.23A6,6,0,0,0,47,11.39l-3.19-.07a6.49,6.49,0,0,0-.77,0l-12.38.1-1.6-.05a6,6,0,0,0-6,5.85l-11.8,466.9a6,6,0,0,0,5.81,6.15l3.22.1a5,5,0,0,0,.77-.05H37.5l1.59,0a6,6,0,0,0,6-5.91l0-1.44,1.48-2.73a6,6,0,0,0,.73-2.78l.78-55.83h87.6l.78,55.83a6.16,6.16,0,0,0,.73,2.78l1.48,2.73,0,1.45a6,6,0,0,0,6,5.9l1.59,0h16.43a5.16,5.16,0,0,0,.79.05h.2l3-.1a6,6,0,0,0,5.81-6.15l-11.8-466.9a6,6,0,0,0-6-5.85l-1.59.05-12.37-.1a6.81,6.81,0,0,0-.78,0l-3.2.07a6,6,0,0,0-5.84,6.1l.12,7.23-.8,4.52a7,7,0,0,0-.09,1.12l.29,20.28Zm82,342.31H48.51l1-68.92h84.86ZM134,298.1H49.84l.87-62.33h82.38Zm-1.24-88.27H51.08l.8-57.5h80Zm-1.16-82.61H52.24L53,74.93h77.86Z"/>
        <g>
          <g>
            <g>
              <g>
                <polygon class="cls-4" points="30.57 17.47 45.31 17.35 37.57 484.37 18.77 484.37 30.57 17.47"/>
                <polygon class="cls-5" points="45.31 17.35 47.6 30.28 41.32 477.46 37.57 484.37 45.31 17.35"/>
              </g>
              <g>
                <polygon class="cls-4" points="153.24 17.47 138.49 17.35 146.23 484.37 165.03 484.37 153.24 17.47"/>
                <polygon class="cls-6" points="138.49 17.35 136.2 30.28 142.48 477.46 146.23 484.37 138.49 17.35"/>
              </g>
            </g>
            <g class="cls-7">
              <g>
                <g class="cls-8">
                  <g>
                    <polygon class="cls-9" points="140 17.32 147.75 484.34 144.71 484.4 136.97 17.39 140 17.32"/>
                    <polygon class="cls-10" points="139.9 17.32 147.64 484.34 144.82 484.4 137.08 17.39 139.9 17.32"/>
                    <polygon class="cls-11" points="139.79 17.32 147.53 484.34 144.93 484.4 137.19 17.38 139.79 17.32"/>
                    <polygon class="cls-12" points="139.68 17.33 147.42 484.35 145.04 484.4 137.3 17.38 139.68 17.33"/>
                    <polygon class="cls-13" points="139.57 17.33 147.31 484.35 145.15 484.4 137.41 17.38 139.57 17.33"/>
                    <polygon class="cls-14" points="139.46 17.33 147.2 484.35 145.26 484.39 137.52 17.38 139.46 17.33"/>
                    <polygon class="cls-15" points="139.35 17.34 147.09 484.35 145.37 484.39 137.63 17.37 139.35 17.34"/>
                    <polygon class="cls-16" points="139.24 17.34 146.99 484.36 145.47 484.39 137.73 17.37 139.24 17.34"/>
                    <polygon class="cls-17" points="139.13 17.34 146.88 484.36 145.58 484.39 137.84 17.37 139.13 17.34"/>
                    <polygon class="cls-18" points="139.03 17.34 146.77 484.36 145.69 484.38 137.95 17.36 139.03 17.34"/>
                    <polygon class="cls-19" points="138.92 17.34 146.66 484.36 145.8 484.38 138.06 17.36 138.92 17.34"/>
                    <polygon class="cls-20" points="138.81 17.35 146.55 484.37 145.91 484.38 138.17 17.36 138.81 17.35"/>
                  </g>
                </g>
                <g class="cls-8">
                  <g>
                    <polygon class="cls-9" points="36.05 484.34 43.8 17.32 46.83 17.39 39.09 484.4 36.05 484.34"/>
                    <polygon class="cls-10" points="36.16 484.34 43.9 17.32 46.72 17.39 38.98 484.4 36.16 484.34"/>
                    <polygon class="cls-11" points="36.27 484.34 44.01 17.32 46.61 17.38 38.87 484.4 36.27 484.34"/>
                    <polygon class="cls-12" points="36.38 484.35 44.12 17.33 46.5 17.38 38.76 484.4 36.38 484.35"/>
                    <polygon class="cls-13" points="36.49 484.35 44.23 17.33 46.39 17.38 38.65 484.4 36.49 484.35"/>
                    <polygon class="cls-14" points="36.6 484.35 44.34 17.33 46.28 17.38 38.54 484.39 36.6 484.35"/>
                    <polygon class="cls-15" points="36.71 484.35 44.45 17.34 46.18 17.37 38.43 484.39 36.71 484.35"/>
                    <polygon class="cls-16" points="36.82 484.36 44.56 17.34 46.07 17.37 38.33 484.39 36.82 484.36"/>
                    <polygon class="cls-17" points="36.92 484.36 44.67 17.34 45.96 17.37 38.22 484.39 36.92 484.36"/>
                    <polygon class="cls-18" points="37.03 484.36 44.77 17.34 45.85 17.36 38.11 484.38 37.03 484.36"/>
                    <polygon class="cls-19" points="37.14 484.36 44.88 17.34 45.74 17.36 38 484.38 37.14 484.36"/>
                    <polygon class="cls-20" points="37.25 484.37 44.99 17.35 45.63 17.36 37.89 484.38 37.25 484.37"/>
                  </g>
                </g>
              </g>
              <g>
                <g class="cls-8">
                  <g>
                    <polygon class="cls-9" points="163.52 484.42 151.72 17.52 154.75 17.42 166.55 484.32 163.52 484.42"/>
                    <polygon class="cls-10" points="163.62 484.42 151.83 17.52 154.64 17.42 166.44 484.32 163.62 484.42"/>
                    <polygon class="cls-11" points="163.73 484.42 151.94 17.51 154.53 17.43 166.33 484.33 163.73 484.42"/>
                    <polygon class="cls-12" points="163.84 484.41 152.04 17.51 154.43 17.43 166.22 484.33 163.84 484.41"/>
                    <polygon class="cls-13" points="163.95 484.41 152.15 17.51 154.32 17.43 166.11 484.34 163.95 484.41"/>
                    <polygon class="cls-14" points="164.06 484.4 152.26 17.5 154.21 17.44 166 484.34 164.06 484.4"/>
                    <polygon class="cls-15" points="164.17 484.4 152.37 17.5 154.1 17.44 165.9 484.34 164.17 484.4"/>
                    <polygon class="cls-16" points="164.28 484.4 152.48 17.5 153.99 17.44 165.79 484.35 164.28 484.4"/>
                    <polygon class="cls-17" points="164.39 484.39 152.59 17.49 153.88 17.45 165.68 484.35 164.39 484.39"/>
                    <polygon class="cls-18" points="164.5 484.39 152.7 17.49 153.77 17.45 165.57 484.35 164.5 484.39"/>
                    <polygon class="cls-19" points="164.6 484.39 152.81 17.48 153.66 17.45 165.46 484.36 164.6 484.39"/>
                    <polygon class="cls-20" points="164.71 484.38 152.92 17.48 153.55 17.46 165.35 484.36 164.71 484.38"/>
                  </g>
                </g>
                <g class="cls-8">
                  <g>
                    <polygon class="cls-9" points="17.25 484.32 29.05 17.42 32.08 17.52 20.29 484.42 17.25 484.32"/>
                    <polygon class="cls-10" points="17.36 484.32 29.16 17.42 31.97 17.52 20.18 484.42 17.36 484.32"/>
                    <polygon class="cls-11" points="17.47 484.33 29.27 17.43 31.86 17.51 20.07 484.42 17.47 484.33"/>
                    <polygon class="cls-12" points="17.58 484.33 29.38 17.43 31.76 17.51 19.96 484.41 17.58 484.33"/>
                    <polygon class="cls-13" points="17.69 484.34 29.48 17.43 31.65 17.51 19.85 484.41 17.69 484.34"/>
                    <polygon class="cls-14" points="17.8 484.34 29.59 17.44 31.54 17.5 19.74 484.4 17.8 484.34"/>
                    <polygon class="cls-15" points="17.91 484.34 29.7 17.44 31.43 17.5 19.63 484.4 17.91 484.34"/>
                    <polygon class="cls-16" points="18.01 484.35 29.81 17.44 31.32 17.5 19.52 484.4 18.01 484.35"/>
                    <polygon class="cls-17" points="18.12 484.35 29.92 17.45 31.21 17.49 19.41 484.39 18.12 484.35"/>
                    <polygon class="cls-18" points="18.23 484.35 30.03 17.45 31.1 17.49 19.31 484.39 18.23 484.35"/>
                    <polygon class="cls-19" points="18.34 484.36 30.14 17.45 30.99 17.48 19.2 484.39 18.34 484.36"/>
                    <polygon class="cls-20" points="18.45 484.36 30.25 17.46 30.89 17.48 19.09 484.38 18.45 484.36"/>
                  </g>
                </g>
              </g>
            </g>
          </g>
          <g>
            <g>
              <path class="cls-4" d="M43.72,318h96.6a2,2,0,0,0,1.88-2.17v-9.61a2,2,0,0,0-1.88-2.16H43.72a2,2,0,0,0-1.88,2.16v9.61A2,2,0,0,0,43.72,318Z"/>
              <path class="cls-4" d="M45.34,229.77h93.37a2,2,0,0,0,1.85-2.13V218a2,2,0,0,0-1.85-2.14H45.34A2,2,0,0,0,43.48,218v9.67A2,2,0,0,0,45.34,229.77Z"/>
              <path class="cls-4" d="M46.24,146.33h91.57a1.46,1.46,0,0,0,1.35-1.56v-10a1.46,1.46,0,0,0-1.35-1.56H46.24a1.47,1.47,0,0,0-1.36,1.56v10A1.47,1.47,0,0,0,46.24,146.33Z"/>
              <path class="cls-4" d="M47.43,68.93h89.19a1.31,1.31,0,0,0,1.2-1.39V58a1.31,1.31,0,0,0-1.2-1.39H47.43A1.31,1.31,0,0,0,46.22,58v9.51A1.31,1.31,0,0,0,47.43,68.93Z"/>
              <path class="cls-4" d="M42.06,415.72H142a1.92,1.92,0,0,0,1.77-2V401A1.93,1.93,0,0,0,142,399H42.06A1.93,1.93,0,0,0,40.28,401v12.68A1.92,1.92,0,0,0,42.06,415.72Z"/>
            </g>
            <g>
              <g class="cls-8">
                <g>
                  <rect class="cls-9" x="46.24" y="56.73" width="91.58" height="3.5"/>
                  <rect class="cls-10" x="46.24" y="56.86" width="91.58" height="3.25"/>
                  <rect class="cls-11" x="46.24" y="56.98" width="91.58" height="3"/>
                  <rect class="cls-12" x="46.24" y="57.11" width="91.58" height="2.74"/>
                  <rect class="cls-13" x="46.24" y="57.23" width="91.58" height="2.49"/>
                  <rect class="cls-14" x="46.24" y="57.36" width="91.58" height="2.24"/>
                  <rect class="cls-15" x="46.24" y="57.49" width="91.58" height="1.99"/>
                  <rect class="cls-16" x="46.24" y="57.61" width="91.58" height="1.74"/>
                  <rect class="cls-17" x="46.24" y="57.74" width="91.58" height="1.49"/>
                  <rect class="cls-18" x="46.24" y="57.86" width="91.58" height="1.24"/>
                  <rect class="cls-19" x="46.24" y="57.99" width="91.58" height="0.99"/>
                  <rect class="cls-20" x="46.24" y="58.11" width="91.58" height="0.74"/>
                </g>
              </g>
              <g class="cls-8">
                <g>
                  <rect class="cls-9" x="44.51" y="133.3" width="94.66" height="3.5"/>
                  <rect class="cls-10" x="44.51" y="133.43" width="94.66" height="3.25"/>
                  <rect class="cls-11" x="44.51" y="133.55" width="94.66" height="3"/>
                  <rect class="cls-12" x="44.51" y="133.68" width="94.66" height="2.75"/>
                  <rect class="cls-13" x="44.51" y="133.8" width="94.66" height="2.49"/>
                  <rect class="cls-14" x="44.51" y="133.93" width="94.66" height="2.24"/>
                  <rect class="cls-15" x="44.51" y="134.05" width="94.66" height="1.99"/>
                  <rect class="cls-16" x="44.51" y="134.18" width="94.66" height="1.74"/>
                  <rect class="cls-17" x="44.51" y="134.3" width="94.66" height="1.49"/>
                  <rect class="cls-18" x="44.51" y="134.43" width="94.66" height="1.24"/>
                  <rect class="cls-19" x="44.51" y="134.55" width="94.66" height="0.99"/>
                  <rect class="cls-20" x="44.51" y="134.68" width="94.66" height="0.74"/>
                </g>
              </g>
              <g class="cls-8">
                <g>
                  <rect class="cls-9" x="43.48" y="216.22" width="97.08" height="3.5"/>
                  <rect class="cls-10" x="43.48" y="216.34" width="97.08" height="3.25"/>
                  <rect class="cls-11" x="43.48" y="216.47" width="97.08" height="3"/>
                  <rect class="cls-12" x="43.48" y="216.6" width="97.08" height="2.75"/>
                  <rect class="cls-13" x="43.48" y="216.72" width="97.08" height="2.49"/>
                  <rect class="cls-14" x="43.48" y="216.85" width="97.08" height="2.24"/>
                  <rect class="cls-15" x="43.48" y="216.97" width="97.08" height="1.99"/>
                  <rect class="cls-16" x="43.48" y="217.1" width="97.08" height="1.74"/>
                  <rect class="cls-17" x="43.48" y="217.22" width="97.08" height="1.49"/>
                  <rect class="cls-18" x="43.48" y="217.35" width="97.08" height="1.24"/>
                  <rect class="cls-19" x="43.48" y="217.47" width="97.08" height="0.99"/>
                  <rect class="cls-20" x="43.48" y="217.6" width="97.08" height="0.74"/>
                </g>
              </g>
              <g class="cls-8">
                <g>
                  <rect class="cls-9" x="41.84" y="304.51" width="100.36" height="3.5"/>
                  <rect class="cls-10" x="41.84" y="304.64" width="100.36" height="3.25"/>
                  <rect class="cls-11" x="41.84" y="304.76" width="100.36" height="3"/>
                  <rect class="cls-12" x="41.84" y="304.89" width="100.36" height="2.74"/>
                  <rect class="cls-13" x="41.84" y="305.01" width="100.36" height="2.49"/>
                  <rect class="cls-14" x="41.84" y="305.14" width="100.36" height="2.24"/>
                  <rect class="cls-15" x="41.84" y="305.27" width="100.36" height="1.99"/>
                  <rect class="cls-16" x="41.84" y="305.39" width="100.36" height="1.74"/>
                  <rect class="cls-17" x="41.84" y="305.52" width="100.36" height="1.49"/>
                  <rect class="cls-18" x="41.84" y="305.64" width="100.36" height="1.24"/>
                  <rect class="cls-19" x="41.84" y="305.77" width="100.36" height="0.99"/>
                  <rect class="cls-20" x="41.84" y="305.89" width="100.36" height="0.74"/>
                </g>
              </g>
              <g class="cls-8">
                <g>
                  <rect class="cls-9" x="40.28" y="399.25" width="103.48" height="3.5"/>
                  <rect class="cls-10" x="40.28" y="399.37" width="103.48" height="3.25"/>
                  <rect class="cls-11" x="40.28" y="399.5" width="103.48" height="3"/>
                  <rect class="cls-12" x="40.28" y="399.63" width="103.48" height="2.75"/>
                  <rect class="cls-13" x="40.28" y="399.75" width="103.48" height="2.49"/>
                  <rect class="cls-14" x="40.28" y="399.88" width="103.48" height="2.24"/>
                  <rect class="cls-15" x="40.28" y="400" width="103.48" height="1.99"/>
                  <rect class="cls-16" x="40.28" y="400.13" width="103.48" height="1.74"/>
                  <rect class="cls-17" x="40.28" y="400.25" width="103.48" height="1.49"/>
                  <rect class="cls-18" x="40.28" y="400.38" width="103.48" height="1.24"/>
                  <rect class="cls-19" x="40.28" y="400.5" width="103.48" height="0.99"/>
                  <rect class="cls-20" x="40.28" y="400.63" width="103.48" height="0.74"/>
                </g>
              </g>
            </g>
          </g>
        </g>
      </g>
    </g>
  </g>
</svg>
