<svg id="Layer_1" data-name="Layer 1" xmlns="http://www.w3.org/2000/svg" width="376.25" height="207.36" viewBox="0 0 376.25 207.36">
  <defs>
    <style>
      .cls-1 {
        fill: #ff0;
      }

      .cls-2 {
        fill: #7a8886;
      }

      .cls-3 {
        fill: #becfd2;
      }

      .cls-4 {
        fill: #b4bbb6;
      }

      .cls-5 {
        fill: #cadbde;
      }

      .cls-6 {
        fill: #9b9b95;
      }

      .cls-7 {
        fill: #f59b18;
      }

      .cls-8 {
        fill: #e77d0e;
      }

      .cls-9 {
        fill: #5eb52c;
      }

      .cls-10 {
        fill: #5f991e;
      }

      .cls-11 {
        fill: #fbe5ba;
      }

      .cls-12 {
        fill: #f4d29a;
      }

      .cls-13 {
        fill: #f5ba18;
      }

      .cls-14 {
        fill: #f5cf18;
      }
    </style>
  </defs>
  <g>
    <path class="cls-1" d="M177.43,10.89a31.09,31.09,0,0,1-6.82.86l-1.11,0-1.08,0a13.36,13.36,0,0,0-7.2,2c-.66.37-1.42.84-2.35,1.47-1.57,1.06-3.27,2.08-5.07,3.16C148,21.79,142,25.38,139.54,31.26c-.82,2-1.85,4.24-2.81,6.31C61,47.18,10.44,77,10.44,112.15a38.32,38.32,0,0,0,3.34,15.46c4.53,19.55,25.1,37.29,58,50,32.2,12.45,73.93,19.3,117.5,19.3,99,0,176.51-34.13,176.51-77.69a38.48,38.48,0,0,0-3.34-15.46c-4.05-17.53-20.55-33.32-47.78-45.71-25-11.38-58.24-19.23-93.95-22.21a34.39,34.39,0,0,0-3.46-5.52c-5.31-7.14-21.72-19.89-35.5-19.89A20.5,20.5,0,0,0,177.43,10.89Z"/>
    <g>
      <ellipse class="cls-2" cx="189.3" cy="119.23" rx="170.5" ry="71.69"/>
      <ellipse class="cls-3" cx="186.94" cy="112.15" rx="170.5" ry="71.69"/>
      <g>
        <ellipse class="cls-4" cx="189.3" cy="111.44" rx="126.17" ry="52.12"/>
        <ellipse class="cls-5" cx="188.6" cy="113.57" rx="116.5" ry="48.11"/>
      </g>
      <g>
        <path class="cls-6" d="M98,95.17s-27.36,4.25-27.83,26.42,31.6,28.77,45.75,28.29,13.21,18.4,49.52,18.4,45.28-7.08,51.89-17.92S220.2,140,220.2,140s24.29,10.83,52.24-13S98,95.17,98,95.17Z"/>
        <g>
          <g>
            <g>
              <path class="cls-7" d="M168.26,114.39c-2.42,3.62-3.61,8.33-7.22,12.76a24.75,24.75,0,0,1-6.93,5.82c-9.72,5.65-35,9.36-48.65-3S94,119.34,91.31,108.73s0-23.53,0-23.53,3.73-7.6,6-13.07,10.62-9,17.16-13.45c.72-.48,1.36-.88,1.9-1.18,4.45-2.53,4.33,0,14.56-2.19,11.48-2.46,28.64,10.26,33.77,17.16s3.37,8.14,6.74,15.4S171.79,109.09,168.26,114.39Z"/>
              <path class="cls-8" d="M162.64,125.63a25,25,0,0,1-6.94,5.62c-9.72,5.46-35,9-48.65-2.91S95.56,118.07,92.9,107.83s0-22.74,0-22.74,3.73-7.34,6-12.63,10.63-8.71,17.16-13c.72-.47,1.36-.86,1.91-1.15-2.49,2.68-25,27.84-10.93,55C119.8,137.93,153.34,128.75,162.64,125.63Z"/>
            </g>
            <g>
              <g>
                <path class="cls-9" d="M139.48,60.4c0,1.39-2.09,2.53-4.67,2.53-2.35,0-4.27-.92-4.63-2.13a1.05,1.05,0,0,1-.07-.4c0-1.38,2.95-1.9,5.54-1.9,2.12,0,3.34.36,3.69,1.26A1.31,1.31,0,0,1,139.48,60.4Z"/>
                <path class="cls-10" d="M139.48,60.4c0,1.39-2.09,2.53-4.67,2.53-2.35,0-4.27-.92-4.63-2.13a8.18,8.18,0,0,0,6.71.65c1.52-.49,2.23-1.09,2.45-1.69A1.31,1.31,0,0,1,139.48,60.4Z"/>
              </g>
              <g>
                <path class="cls-9" d="M135.53,66.68c0,1.4-1.94,2.55-4.35,2.55-2.18,0-4-.93-4.31-2.15a1.29,1.29,0,0,1-.06-.4c0-1.4,2.75-1.93,5.16-1.93,2,0,3.12.37,3.43,1.28A1.33,1.33,0,0,1,135.53,66.68Z"/>
                <path class="cls-10" d="M135.53,66.68c0,1.4-1.94,2.55-4.35,2.55-2.18,0-4-.93-4.31-2.15a7.16,7.16,0,0,0,6.26.65c1.41-.49,2.07-1.09,2.27-1.7A1.33,1.33,0,0,1,135.53,66.68Z"/>
              </g>
              <g>
                <path class="cls-9" d="M126.06,61.13c.07.9-1.13,1.74-2.68,1.85-1.4.1-2.6-.42-2.87-1.19a.92.92,0,0,1-.06-.25c-.06-.9,1.68-1.37,3.23-1.48,1.27-.09,2,.09,2.27.66A.93.93,0,0,1,126.06,61.13Z"/>
                <path class="cls-10" d="M126.06,61.13c.07.9-1.13,1.74-2.68,1.85-1.4.1-2.6-.42-2.87-1.19a4.58,4.58,0,0,0,4,.13c.89-.38,1.29-.8,1.39-1.2A.93.93,0,0,1,126.06,61.13Z"/>
              </g>
              <g>
                <g>
                  <path class="cls-11" d="M109.25,78.84c-2.47-.16-3.79-1.34-3.79-2.42a1.55,1.55,0,0,1,.88-1.34c1.91-1.13,1.79-1.79,2.43-3.37a4,4,0,0,1,2.42-2.07,5.66,5.66,0,0,1,4.71,2,.07.07,0,0,0,0,0,7.13,7.13,0,0,1,1.35,2.38C117.79,75.78,112.84,79.09,109.25,78.84Z"/>
                  <path class="cls-12" d="M109.25,78.84c-2.47-.16-3.79-1.34-3.79-2.42a5.93,5.93,0,0,0,5.19,1.24c4.55-.7,5.61-3.37,5.61-3.37a3.43,3.43,0,0,0-.34-2.6,7.13,7.13,0,0,1,1.35,2.38C117.79,75.78,112.84,79.09,109.25,78.84Z"/>
                </g>
                <g>
                  <path class="cls-11" d="M125.1,69.34a.34.34,0,0,1,0,.14c-.1,1-1.4,1.75-3,1.75s-2.69-.68-2.93-1.57a1.75,1.75,0,0,1,0-.32c0-1,1.32-1.88,3-1.88S125.1,68.3,125.1,69.34Z"/>
                  <path class="cls-12" d="M122.74,70.23a5.82,5.82,0,0,0,2.34-.75c-.1,1-1.4,1.75-3,1.75s-2.69-.68-2.93-1.57A4.67,4.67,0,0,0,122.74,70.23Z"/>
                  <path class="cls-12" d="M125.6,68.5l-.14-.4A1,1,0,0,1,125.6,68.5Z"/>
                </g>
                <g>
                  <path class="cls-11" d="M107.48,70.23a.34.34,0,0,1,0,.14c-.1,1-1.41,1.74-3,1.74s-2.69-.68-2.93-1.56a1.75,1.75,0,0,1,0-.32c0-1,1.32-1.89,3-1.89S107.48,69.19,107.48,70.23Z"/>
                  <path class="cls-12" d="M105.11,71.11a6,6,0,0,0,2.35-.74c-.1,1-1.41,1.74-3,1.74s-2.69-.68-2.93-1.56A4.74,4.74,0,0,0,105.11,71.11Z"/>
                  <path class="cls-12" d="M108,69.39l-.14-.41A1.13,1.13,0,0,1,108,69.39Z"/>
                </g>
                <g>
                  <path class="cls-11" d="M118.71,64a2.08,2.08,0,0,1-.5,1.62c-2,2.77-3.49.25-3.49.25-3.53.4-5.19-.43-5.71-.95a.25.25,0,0,1,0-.32c.28-.52,1.92-1.16,1.92-1.16h.24C115.22,61.61,118.47,62.29,118.71,64Z"/>
                  <path class="cls-12" d="M118.71,64a2.08,2.08,0,0,1-.5,1.62c-2,2.77-3.49.25-3.49.25-3.53.4-5.19-.43-5.71-.95a.25.25,0,0,1,0-.32,12.14,12.14,0,0,0,3.44.32c2.91-.12,3.13.58,3.13.58S117.37,66.86,118.71,64Z"/>
                </g>
              </g>
              <g>
                <g>
                  <path class="cls-11" d="M149.11,68.25c2.38-.64,3.45-2.06,3.23-3.12A1.57,1.57,0,0,0,151.21,64c-2.08-.72-2.1-1.39-3-2.82a3.92,3.92,0,0,0-2.78-1.54,5.67,5.67,0,0,0-4.23,2.89s0,0,0,0a7,7,0,0,0-.84,2.61C140.13,66.93,145.64,69.2,149.11,68.25Z"/>
                  <path class="cls-12" d="M149.11,68.25c2.38-.64,3.45-2.06,3.23-3.12a5.94,5.94,0,0,1-4.84,2.24c-4.6.21-6.17-2.19-6.17-2.19a3.47,3.47,0,0,1-.18-2.63,7,7,0,0,0-.84,2.61C140.13,66.93,145.64,69.2,149.11,68.25Z"/>
                </g>
                <g>
                  <path class="cls-11" d="M137.75,69.76a.34.34,0,0,0,0,.14c.1,1,1.4,1.74,3,1.74s2.68-.68,2.92-1.56a1.75,1.75,0,0,0,0-.32c0-1.05-1.32-1.89-3-1.89S137.75,68.71,137.75,69.76Z"/>
                  <path class="cls-12" d="M140.12,70.64a5.86,5.86,0,0,1-2.35-.74c.1,1,1.4,1.74,3,1.74s2.68-.68,2.92-1.56A4.71,4.71,0,0,1,140.12,70.64Z"/>
                  <path class="cls-12" d="M137.25,68.91l.14-.4A1,1,0,0,0,137.25,68.91Z"/>
                </g>
                <g>
                  <path class="cls-11" d="M154.26,69.58a.34.34,0,0,0,0,.14c.1,1,1.4,1.74,3,1.74s2.68-.68,2.92-1.56a1.75,1.75,0,0,0,0-.32c0-1-1.32-1.89-3-1.89S154.26,68.54,154.26,69.58Z"/>
                  <path class="cls-12" d="M156.62,70.46a5.85,5.85,0,0,1-2.34-.74c.1,1,1.4,1.74,3,1.74s2.68-.68,2.92-1.56A4.72,4.72,0,0,1,156.62,70.46Z"/>
                  <path class="cls-12" d="M153.76,68.74l.14-.4A1,1,0,0,0,153.76,68.74Z"/>
                </g>
                <g>
                  <path class="cls-11" d="M146.33,73.62a2.08,2.08,0,0,0,.5,1.62c2,2.77,3.49.25,3.49.25,3.52.4,5.19-.43,5.71-.95a.25.25,0,0,0,0-.32c-.28-.52-1.93-1.16-1.93-1.16h-.24C149.81,71.22,146.57,71.9,146.33,73.62Z"/>
                  <path class="cls-12" d="M146.33,73.62a2.08,2.08,0,0,0,.5,1.62c2,2.77,3.49.25,3.49.25,3.52.4,5.19-.43,5.71-.95a.25.25,0,0,0,0-.32,12.22,12.22,0,0,1-3.45.32c-2.91-.12-3.13.58-3.13.58S147.67,76.47,146.33,73.62Z"/>
                </g>
              </g>
            </g>
          </g>
          <g>
            <g>
              <path class="cls-7" d="M285,110.14c-2.43,3.63-3.61,8.34-7.22,12.77a24.79,24.79,0,0,1-6.94,5.81c-9.72,5.66-35,9.36-48.65-3S210.71,115.09,208,104.49,208,81,208,81s3.73-7.59,6-13.07,10.62-9,17.15-13.45c.73-.48,1.37-.88,1.91-1.18,4.45-2.52,4.33,0,14.55-2.18,11.49-2.47,28.65,10.26,33.78,17.16s3.37,8.13,6.73,15.39S288.52,104.85,285,110.14Z"/>
              <path class="cls-8" d="M279.37,121.38a24.54,24.54,0,0,1-6.93,5.62c-9.73,5.46-35,9.05-48.65-2.9s-11.49-10.27-14.16-20.52,0-22.73,0-22.73,3.73-7.34,6-12.63,10.62-8.72,17.16-13c.72-.46,1.36-.85,1.9-1.14-2.49,2.67-25,27.83-10.92,55C236.53,133.68,270.07,124.5,279.37,121.38Z"/>
            </g>
            <g>
              <g>
                <path class="cls-9" d="M256.21,56.16c0,1.38-2.08,2.52-4.67,2.52-2.34,0-4.27-.92-4.63-2.12a1.29,1.29,0,0,1-.06-.4c0-1.38,3-1.91,5.53-1.91,2.13,0,3.35.36,3.69,1.27A1.31,1.31,0,0,1,256.21,56.16Z"/>
                <path class="cls-10" d="M256.21,56.16c0,1.38-2.08,2.52-4.67,2.52-2.34,0-4.27-.92-4.63-2.12a8.25,8.25,0,0,0,6.72.64c1.52-.48,2.22-1.08,2.44-1.68A1.31,1.31,0,0,1,256.21,56.16Z"/>
              </g>
              <g>
                <path class="cls-9" d="M252.27,62.43c0,1.4-1.94,2.56-4.35,2.56-2.19,0-4-.94-4.32-2.15a1.77,1.77,0,0,1,0-.41c0-1.4,2.74-1.92,5.15-1.92,2,0,3.12.36,3.44,1.27A1.51,1.51,0,0,1,252.27,62.43Z"/>
                <path class="cls-10" d="M252.27,62.43c0,1.4-1.94,2.56-4.35,2.56-2.19,0-4-.94-4.32-2.15a7.16,7.16,0,0,0,6.26.65c1.42-.49,2.07-1.1,2.28-1.71A1.51,1.51,0,0,1,252.27,62.43Z"/>
              </g>
              <g>
                <path class="cls-9" d="M242.8,56.89c.06.9-1.13,1.73-2.68,1.84s-2.6-.41-2.88-1.18a1.09,1.09,0,0,1-.05-.26c-.06-.9,1.68-1.36,3.23-1.47,1.27-.1,2,.09,2.26.66A.86.86,0,0,1,242.8,56.89Z"/>
                <path class="cls-10" d="M242.8,56.89c.06.9-1.13,1.73-2.68,1.84s-2.6-.41-2.88-1.18a4.64,4.64,0,0,0,4.06.13c.89-.38,1.28-.8,1.38-1.2A.86.86,0,0,1,242.8,56.89Z"/>
              </g>
              <g>
                <g>
                  <path class="cls-11" d="M226,74.6c-2.46-.16-3.79-1.34-3.79-2.43a1.55,1.55,0,0,1,.89-1.34c1.9-1.12,1.78-1.78,2.42-3.37a3.92,3.92,0,0,1,2.43-2.06,5.67,5.67,0,0,1,4.71,2,.07.07,0,0,0,0,0A7.21,7.21,0,0,1,234,69.83C234.52,71.53,229.57,74.84,226,74.6Z"/>
                  <path class="cls-12" d="M226,74.6c-2.46-.16-3.79-1.34-3.79-2.43a5.93,5.93,0,0,0,5.2,1.25c4.55-.7,5.61-3.37,5.61-3.37a3.45,3.45,0,0,0-.34-2.61A7.21,7.21,0,0,1,234,69.83C234.52,71.53,229.57,74.84,226,74.6Z"/>
                </g>
                <g>
                  <path class="cls-11" d="M241.84,65.1a.34.34,0,0,1,0,.14c-.1,1-1.4,1.74-3,1.74s-2.68-.68-2.92-1.56a1.75,1.75,0,0,1,0-.32c0-1,1.32-1.89,3-1.89S241.84,64.06,241.84,65.1Z"/>
                  <path class="cls-12" d="M239.47,66a5.86,5.86,0,0,0,2.35-.74c-.1,1-1.4,1.74-3,1.74s-2.68-.68-2.92-1.56A4.71,4.71,0,0,0,239.47,66Z"/>
                  <path class="cls-12" d="M242.34,64.26l-.14-.4A1,1,0,0,1,242.34,64.26Z"/>
                </g>
                <g>
                  <path class="cls-11" d="M224.21,66a.34.34,0,0,1,0,.14c-.1,1-1.4,1.75-3,1.75s-2.68-.68-2.92-1.57a1.75,1.75,0,0,1,0-.32c0-1,1.32-1.88,3-1.88S224.21,64.94,224.21,66Z"/>
                  <path class="cls-12" d="M221.84,66.86a5.86,5.86,0,0,0,2.35-.74c-.1,1-1.4,1.75-3,1.75s-2.68-.68-2.92-1.57A4.66,4.66,0,0,0,221.84,66.86Z"/>
                  <path class="cls-12" d="M224.71,65.14l-.14-.4A1,1,0,0,1,224.71,65.14Z"/>
                </g>
                <g>
                  <path class="cls-11" d="M235.44,59.77a2.08,2.08,0,0,1-.5,1.62c-2,2.77-3.49.24-3.49.24-3.52.4-5.19-.42-5.71-.94a.25.25,0,0,1,0-.32c.28-.52,1.93-1.16,1.93-1.16h.24C232,57.36,235.2,58,235.44,59.77Z"/>
                  <path class="cls-12" d="M235.44,59.77a2.08,2.08,0,0,1-.5,1.62c-2,2.77-3.49.24-3.49.24-3.52.4-5.19-.42-5.71-.94a.25.25,0,0,1,0-.32,12.22,12.22,0,0,0,3.45.32c2.91-.12,3.13.58,3.13.58S234.1,62.61,235.44,59.77Z"/>
                </g>
              </g>
              <g>
                <g>
                  <path class="cls-11" d="M265.84,64c2.39-.65,3.45-2.07,3.24-3.13A1.55,1.55,0,0,0,268,59.74c-2.09-.73-2.1-1.4-3-2.82a3.94,3.94,0,0,0-2.79-1.55,5.65,5.65,0,0,0-4.22,2.9v0a7.15,7.15,0,0,0-.85,2.6C256.87,62.68,262.37,65,265.84,64Z"/>
                  <path class="cls-12" d="M265.84,64c2.39-.65,3.45-2.07,3.24-3.13a5.92,5.92,0,0,1-4.85,2.24c-4.6.21-6.16-2.19-6.16-2.19a3.39,3.39,0,0,1-.18-2.62,7.15,7.15,0,0,0-.85,2.6C256.87,62.68,262.37,65,265.84,64Z"/>
                </g>
                <g>
                  <path class="cls-11" d="M254.49,65.51a.34.34,0,0,0,0,.14c.1,1,1.4,1.75,3,1.75s2.69-.69,2.93-1.57a1.75,1.75,0,0,0,0-.32c0-1-1.32-1.88-3-1.88S254.49,64.47,254.49,65.51Z"/>
                  <path class="cls-12" d="M256.85,66.39a5.85,5.85,0,0,1-2.34-.74c.1,1,1.4,1.75,3,1.75s2.69-.69,2.93-1.57A4.72,4.72,0,0,1,256.85,66.39Z"/>
                  <path class="cls-12" d="M254,64.67l.15-.4A1,1,0,0,0,254,64.67Z"/>
                </g>
                <g>
                  <path class="cls-11" d="M271,65.33a.34.34,0,0,0,0,.14c.1,1,1.41,1.75,3,1.75s2.69-.68,2.93-1.56a2,2,0,0,0,0-.33c0-1-1.33-1.88-3-1.88S271,64.29,271,65.33Z"/>
                  <path class="cls-12" d="M273.36,66.22a5.73,5.73,0,0,1-2.35-.75c.1,1,1.41,1.75,3,1.75s2.69-.68,2.93-1.56A4.74,4.74,0,0,1,273.36,66.22Z"/>
                  <path class="cls-12" d="M270.49,64.49l.14-.4A1,1,0,0,0,270.49,64.49Z"/>
                </g>
                <g>
                  <path class="cls-11" d="M263.06,69.38a2.08,2.08,0,0,0,.5,1.62c2,2.77,3.49.24,3.49.24,3.53.4,5.19-.42,5.71-.94a.25.25,0,0,0,0-.32c-.28-.52-1.92-1.16-1.92-1.16h-.24C266.55,67,263.3,67.65,263.06,69.38Z"/>
                  <path class="cls-12" d="M263.06,69.38a2.08,2.08,0,0,0,.5,1.62c2,2.77,3.49.24,3.49.24,3.53.4,5.19-.42,5.71-.94a.25.25,0,0,0,0-.32,12.14,12.14,0,0,1-3.44.32c-2.91-.12-3.13.58-3.13.58S264.4,72.22,263.06,69.38Z"/>
                </g>
              </g>
            </g>
          </g>
          <g>
            <g>
              <path class="cls-13" d="M216,75.83c-2.43,3.63-3.61,8.34-7.22,12.77a24.79,24.79,0,0,1-6.94,5.81c-9.72,5.65-35,9.36-48.65-3s-11.48-10.62-14.15-21.23,0-23.53,0-23.53,3.73-7.6,6-13.07,10.62-9,17.15-13.45c.73-.48,1.37-.88,1.91-1.18,4.45-2.53,4.33,0,14.55-2.19,11.49-2.46,28.65,10.27,33.78,17.16s3.37,8.14,6.73,15.4S219.54,70.54,216,75.83Z"/>
              <path class="cls-7" d="M210.39,87.07a24.72,24.72,0,0,1-6.93,5.62c-9.73,5.46-35,9-48.65-2.91s-11.49-10.26-14.16-20.51,0-22.74,0-22.74,3.73-7.34,6-12.62,10.62-8.72,17.16-13c.72-.47,1.36-.85,1.9-1.14-2.48,2.67-25,27.83-10.92,55C167.55,99.37,201.09,90.19,210.39,87.07Z"/>
            </g>
            <g>
              <g>
                <path class="cls-9" d="M187.23,21.85c0,1.38-2.08,2.52-4.67,2.52-2.34,0-4.27-.92-4.63-2.12a1.29,1.29,0,0,1-.06-.4c0-1.39,2.95-1.91,5.53-1.91,2.13,0,3.35.36,3.69,1.26A1.33,1.33,0,0,1,187.23,21.85Z"/>
                <path class="cls-10" d="M187.23,21.85c0,1.38-2.08,2.52-4.67,2.52-2.34,0-4.27-.92-4.63-2.12a8.25,8.25,0,0,0,6.72.64c1.52-.48,2.22-1.08,2.44-1.69A1.33,1.33,0,0,1,187.23,21.85Z"/>
              </g>
              <g>
                <path class="cls-9" d="M183.29,28.12c0,1.4-1.94,2.55-4.35,2.55-2.19,0-4-.93-4.32-2.15a1.68,1.68,0,0,1-.05-.4c0-1.4,2.74-1.93,5.15-1.93,2,0,3.12.37,3.44,1.28A1.48,1.48,0,0,1,183.29,28.12Z"/>
                <path class="cls-10" d="M183.29,28.12c0,1.4-1.94,2.55-4.35,2.55-2.19,0-4-.93-4.32-2.15a7.13,7.13,0,0,0,6.26.65c1.42-.48,2.07-1.09,2.28-1.7A1.48,1.48,0,0,1,183.29,28.12Z"/>
              </g>
              <g>
                <path class="cls-9" d="M173.82,22.58c.06.9-1.13,1.73-2.68,1.84s-2.6-.42-2.88-1.18a2,2,0,0,1,0-.26c-.06-.9,1.68-1.37,3.23-1.48,1.27-.09,2,.09,2.26.67A.86.86,0,0,1,173.82,22.58Z"/>
                <path class="cls-10" d="M173.82,22.58c.06.9-1.13,1.73-2.68,1.84s-2.6-.42-2.88-1.18a4.64,4.64,0,0,0,4.06.13c.89-.38,1.28-.8,1.38-1.2A.86.86,0,0,1,173.82,22.58Z"/>
              </g>
              <g>
                <g>
                  <path class="cls-11" d="M157,40.29c-2.46-.16-3.79-1.35-3.79-2.43a1.55,1.55,0,0,1,.89-1.34c1.9-1.12,1.78-1.79,2.42-3.37A3.92,3.92,0,0,1,159,31.09a5.67,5.67,0,0,1,4.71,2,.07.07,0,0,0,0,0A7,7,0,0,1,165,35.52C165.54,37.22,160.59,40.53,157,40.29Z"/>
                  <path class="cls-12" d="M157,40.29c-2.46-.16-3.79-1.35-3.79-2.43a5.94,5.94,0,0,0,5.2,1.24c4.55-.7,5.61-3.36,5.61-3.36a3.45,3.45,0,0,0-.34-2.61A7,7,0,0,1,165,35.52C165.54,37.22,160.59,40.53,157,40.29Z"/>
                </g>
                <g>
                  <path class="cls-11" d="M172.86,30.79a.34.34,0,0,1,0,.14c-.1,1-1.4,1.74-3,1.74S167.19,32,167,31.11a1.75,1.75,0,0,1,0-.32c0-1.05,1.32-1.89,3-1.89S172.86,29.74,172.86,30.79Z"/>
                  <path class="cls-12" d="M170.49,31.67a5.86,5.86,0,0,0,2.35-.74c-.1,1-1.4,1.74-3,1.74S167.19,32,167,31.11A4.71,4.71,0,0,0,170.49,31.67Z"/>
                  <path class="cls-12" d="M173.36,29.94l-.14-.4A1,1,0,0,1,173.36,29.94Z"/>
                </g>
                <g>
                  <path class="cls-11" d="M155.23,31.67a.34.34,0,0,1,0,.14c-.1,1-1.4,1.74-3,1.74s-2.68-.68-2.92-1.56a1.75,1.75,0,0,1,0-.32c0-1,1.32-1.88,3-1.88S155.23,30.63,155.23,31.67Z"/>
                  <path class="cls-12" d="M152.87,32.55a5.85,5.85,0,0,0,2.34-.74c-.1,1-1.4,1.74-3,1.74s-2.68-.68-2.92-1.56A4.72,4.72,0,0,0,152.87,32.55Z"/>
                  <path class="cls-12" d="M155.73,30.83l-.14-.4A1,1,0,0,1,155.73,30.83Z"/>
                </g>
                <g>
                  <path class="cls-11" d="M166.46,25.45a2.1,2.1,0,0,1-.5,1.63c-2,2.76-3.48.24-3.48.24-3.53.4-5.2-.42-5.72-.94a.26.26,0,0,1,0-.33c.28-.52,1.93-1.16,1.93-1.16h.24C163,23.05,166.22,23.73,166.46,25.45Z"/>
                  <path class="cls-12" d="M166.46,25.45a2.1,2.1,0,0,1-.5,1.63c-2,2.76-3.48.24-3.48.24-3.53.4-5.2-.42-5.72-.94a.26.26,0,0,1,0-.33,11.78,11.78,0,0,0,3.45.33c2.91-.12,3.13.58,3.13.58S165.12,28.3,166.46,25.45Z"/>
                </g>
              </g>
              <g>
                <g>
                  <path class="cls-11" d="M196.86,29.69c2.39-.64,3.45-2.06,3.24-3.12A1.55,1.55,0,0,0,199,25.43c-2.09-.73-2.1-1.4-3-2.83a3.94,3.94,0,0,0-2.79-1.54A5.66,5.66,0,0,0,188.92,24a.2.2,0,0,1,0,.05,7.15,7.15,0,0,0-.85,2.6C187.89,28.37,193.39,30.64,196.86,29.69Z"/>
                  <path class="cls-12" d="M196.86,29.69c2.39-.64,3.45-2.06,3.24-3.12a6,6,0,0,1-4.85,2.24c-4.6.21-6.16-2.19-6.16-2.19a3.39,3.39,0,0,1-.18-2.62,7.15,7.15,0,0,0-.85,2.6C187.89,28.37,193.39,30.64,196.86,29.69Z"/>
                </g>
                <g>
                  <path class="cls-11" d="M185.51,31.2a.34.34,0,0,0,0,.14c.1,1,1.4,1.74,3,1.74s2.69-.68,2.93-1.56a1.75,1.75,0,0,0,0-.32c0-1-1.32-1.89-3-1.89S185.51,30.16,185.51,31.2Z"/>
                  <path class="cls-12" d="M187.87,32.08a5.85,5.85,0,0,1-2.34-.74c.1,1,1.4,1.74,3,1.74s2.69-.68,2.93-1.56A4.72,4.72,0,0,1,187.87,32.08Z"/>
                  <path class="cls-12" d="M185,30.36l.14-.4A1,1,0,0,0,185,30.36Z"/>
                </g>
                <g>
                  <path class="cls-11" d="M202,31a.34.34,0,0,0,0,.14c.1,1,1.41,1.75,3,1.75s2.69-.69,2.93-1.57a1.75,1.75,0,0,0,0-.32c0-1-1.33-1.88-3-1.88S202,30,202,31Z"/>
                  <path class="cls-12" d="M204.38,31.9a6,6,0,0,1-2.35-.74c.1,1,1.41,1.75,3,1.75s2.69-.69,2.93-1.57A4.74,4.74,0,0,1,204.38,31.9Z"/>
                  <path class="cls-12" d="M201.51,30.18l.14-.4A1,1,0,0,0,201.51,30.18Z"/>
                </g>
                <g>
                  <path class="cls-11" d="M194.08,35.06a2.1,2.1,0,0,0,.5,1.63c2,2.76,3.49.24,3.49.24,3.53.4,5.19-.42,5.71-.94a.26.26,0,0,0,0-.33c-.28-.52-1.92-1.16-1.92-1.16h-.24C197.57,32.66,194.32,33.34,194.08,35.06Z"/>
                  <path class="cls-12" d="M194.08,35.06a2.1,2.1,0,0,0,.5,1.63c2,2.76,3.49.24,3.49.24,3.53.4,5.19-.42,5.71-.94a.26.26,0,0,0,0-.33,11.7,11.7,0,0,1-3.44.33c-2.91-.12-3.13.58-3.13.58S195.43,37.91,194.08,35.06Z"/>
                </g>
              </g>
            </g>
          </g>
          <g>
            <g>
              <path class="cls-13" d="M223.45,143c-2.43,3.63-3.61,8.34-7.22,12.77a24.94,24.94,0,0,1-6.94,5.81c-9.72,5.65-35,9.36-48.65-3S149.16,148,146.49,137.39s0-23.54,0-23.54,3.73-7.59,6-13.07,10.63-9,17.16-13.45c.72-.48,1.37-.88,1.91-1.18,4.45-2.53,4.33,0,14.55-2.19,11.49-2.46,28.65,10.27,33.78,17.16s3.36,8.14,6.73,15.4S227,137.75,223.45,143Z"/>
              <path class="cls-7" d="M217.82,154.28a24.63,24.63,0,0,1-6.94,5.62c-9.72,5.46-35,9-48.65-2.91s-11.48-10.26-14.15-20.51,0-22.74,0-22.74,3.73-7.34,6-12.62,10.62-8.72,17.16-13c.72-.46,1.36-.85,1.9-1.14-2.49,2.67-25,27.83-10.93,55C175,166.58,208.52,157.4,217.82,154.28Z"/>
            </g>
            <g>
              <g>
                <path class="cls-9" d="M194.66,89.06c0,1.38-2.08,2.52-4.67,2.52-2.35,0-4.27-.92-4.63-2.12a1.29,1.29,0,0,1-.06-.4c0-1.39,2.95-1.91,5.53-1.91,2.13,0,3.35.36,3.69,1.26A1.38,1.38,0,0,1,194.66,89.06Z"/>
                <path class="cls-10" d="M194.66,89.06c0,1.38-2.08,2.52-4.67,2.52-2.35,0-4.27-.92-4.63-2.12a8.23,8.23,0,0,0,6.71.64c1.53-.48,2.23-1.08,2.45-1.69A1.38,1.38,0,0,1,194.66,89.06Z"/>
              </g>
              <g>
                <path class="cls-9" d="M190.72,95.33c0,1.4-1.94,2.55-4.35,2.55-2.19,0-4-.93-4.32-2.14a1.84,1.84,0,0,1-.05-.41c0-1.4,2.74-1.93,5.15-1.93,2,0,3.12.37,3.44,1.28A1.48,1.48,0,0,1,190.72,95.33Z"/>
                <path class="cls-10" d="M190.72,95.33c0,1.4-1.94,2.55-4.35,2.55-2.19,0-4-.93-4.32-2.14a7.13,7.13,0,0,0,6.26.64c1.42-.48,2.07-1.09,2.28-1.7A1.48,1.48,0,0,1,190.72,95.33Z"/>
              </g>
              <g>
                <path class="cls-9" d="M181.25,89.79c.06.9-1.13,1.73-2.68,1.84s-2.6-.42-2.88-1.18a1.09,1.09,0,0,1-.05-.26c-.07-.9,1.68-1.37,3.22-1.48,1.28-.09,2,.09,2.27.67A.86.86,0,0,1,181.25,89.79Z"/>
                <path class="cls-10" d="M181.25,89.79c.06.9-1.13,1.73-2.68,1.84s-2.6-.42-2.88-1.18a4.63,4.63,0,0,0,4.06.13c.89-.38,1.28-.8,1.38-1.2A.86.86,0,0,1,181.25,89.79Z"/>
              </g>
              <g>
                <g>
                  <path class="cls-11" d="M164.43,107.5c-2.46-.16-3.79-1.35-3.79-2.43a1.55,1.55,0,0,1,.88-1.34c1.91-1.12,1.79-1.78,2.43-3.37a3.92,3.92,0,0,1,2.43-2.06,5.68,5.68,0,0,1,4.71,2,.07.07,0,0,0,0,0,7.12,7.12,0,0,1,1.34,2.39C173,104.43,168,107.74,164.43,107.5Z"/>
                  <path class="cls-12" d="M164.43,107.5c-2.46-.16-3.79-1.35-3.79-2.43a5.94,5.94,0,0,0,5.19,1.25c4.55-.71,5.62-3.37,5.62-3.37a3.45,3.45,0,0,0-.34-2.61,7.12,7.12,0,0,1,1.34,2.39C173,104.43,168,107.74,164.43,107.5Z"/>
                </g>
                <g>
                  <path class="cls-11" d="M180.29,98a.34.34,0,0,1,0,.14c-.1,1-1.41,1.74-3,1.74s-2.69-.68-2.93-1.56a1.75,1.75,0,0,1,0-.32c0-1,1.33-1.89,3-1.89S180.29,97,180.29,98Z"/>
                  <path class="cls-12" d="M177.92,98.88a5.92,5.92,0,0,0,2.35-.74c-.1,1-1.41,1.74-3,1.74s-2.69-.68-2.93-1.56A4.75,4.75,0,0,0,177.92,98.88Z"/>
                  <path class="cls-12" d="M180.79,97.15l-.14-.4A1,1,0,0,1,180.79,97.15Z"/>
                </g>
                <g>
                  <path class="cls-11" d="M162.66,98.88a.34.34,0,0,1,0,.14c-.1,1-1.4,1.75-3,1.75s-2.68-.69-2.92-1.57a1.75,1.75,0,0,1,0-.32c0-1,1.32-1.88,3-1.88S162.66,97.84,162.66,98.88Z"/>
                  <path class="cls-12" d="M160.29,99.76a5.86,5.86,0,0,0,2.35-.74c-.1,1-1.4,1.75-3,1.75s-2.68-.69-2.92-1.57A4.71,4.71,0,0,0,160.29,99.76Z"/>
                  <path class="cls-12" d="M163.16,98l-.14-.4A1,1,0,0,1,163.16,98Z"/>
                </g>
                <g>
                  <path class="cls-11" d="M173.89,92.66a2.09,2.09,0,0,1-.5,1.63c-2,2.76-3.49.24-3.49.24-3.52.4-5.19-.42-5.71-.94a.25.25,0,0,1,0-.32c.28-.53,1.93-1.17,1.93-1.17h.24C170.4,90.26,173.65,90.94,173.89,92.66Z"/>
                  <path class="cls-12" d="M173.89,92.66a2.09,2.09,0,0,1-.5,1.63c-2,2.76-3.49.24-3.49.24-3.52.4-5.19-.42-5.71-.94a.25.25,0,0,1,0-.32,12.18,12.18,0,0,0,3.45.32c2.91-.12,3.13.58,3.13.58S172.55,95.51,173.89,92.66Z"/>
                </g>
              </g>
              <g>
                <g>
                  <path class="cls-11" d="M204.29,96.91c2.39-.65,3.45-2.07,3.24-3.13a1.56,1.56,0,0,0-1.13-1.14c-2.09-.73-2.1-1.4-3-2.83a4,4,0,0,0-2.79-1.54,5.66,5.66,0,0,0-4.22,2.89.2.2,0,0,1,0,0,7.15,7.15,0,0,0-.85,2.6C195.31,95.58,200.82,97.85,204.29,96.91Z"/>
                  <path class="cls-12" d="M204.29,96.91c2.39-.65,3.45-2.07,3.24-3.13A6,6,0,0,1,202.68,96c-4.6.21-6.16-2.19-6.16-2.19a3.39,3.39,0,0,1-.18-2.62,7.15,7.15,0,0,0-.85,2.6C195.31,95.58,200.82,97.85,204.29,96.91Z"/>
                </g>
                <g>
                  <path class="cls-11" d="M192.93,98.41a.34.34,0,0,0,0,.14c.11,1,1.41,1.74,3,1.74s2.69-.68,2.93-1.56a1.75,1.75,0,0,0,0-.32c0-1-1.32-1.89-3-1.89S192.93,97.37,192.93,98.41Z"/>
                  <path class="cls-12" d="M195.3,99.29a6,6,0,0,1-2.35-.74c.11,1,1.41,1.74,3,1.74s2.69-.68,2.93-1.56A4.74,4.74,0,0,1,195.3,99.29Z"/>
                  <path class="cls-12" d="M192.43,97.57l.14-.4A1,1,0,0,0,192.43,97.57Z"/>
                </g>
                <g>
                  <path class="cls-11" d="M209.44,98.23a.34.34,0,0,0,0,.14c.1,1,1.41,1.75,3,1.75s2.69-.68,2.93-1.57a1.75,1.75,0,0,0,0-.32c0-1-1.33-1.88-3-1.88S209.44,97.19,209.44,98.23Z"/>
                  <path class="cls-12" d="M211.81,99.11a5.92,5.92,0,0,1-2.35-.74c.1,1,1.41,1.75,3,1.75s2.69-.68,2.93-1.57A4.75,4.75,0,0,1,211.81,99.11Z"/>
                  <path class="cls-12" d="M208.94,97.39l.14-.4A1,1,0,0,0,208.94,97.39Z"/>
                </g>
                <g>
                  <path class="cls-11" d="M201.51,102.27a2.09,2.09,0,0,0,.5,1.63c2,2.76,3.49.24,3.49.24,3.53.4,5.19-.42,5.71-.94a.25.25,0,0,0,0-.32c-.28-.53-1.92-1.17-1.92-1.17h-.24C205,99.87,201.75,100.55,201.51,102.27Z"/>
                  <path class="cls-12" d="M201.51,102.27a2.09,2.09,0,0,0,.5,1.63c2,2.76,3.49.24,3.49.24,3.53.4,5.19-.42,5.71-.94a.25.25,0,0,0,0-.32,12.18,12.18,0,0,1-3.45.32c-2.9-.12-3.12.58-3.12.58S202.85,105.12,201.51,102.27Z"/>
                </g>
              </g>
            </g>
          </g>
          <path class="cls-14" d="M202.39,45.77s7.43,10.61,4.25,19.81S202.39,45.77,202.39,45.77Z"/>
          <path class="cls-14" d="M214.06,111.21s7.43,10.61,4.25,19.81S214.06,111.21,214.06,111.21Z"/>
        </g>
      </g>
    </g>
  </g>
</svg>
