<svg id="Layer_1" data-name="Layer 1" xmlns="http://www.w3.org/2000/svg" xmlns:xlink="http://www.w3.org/1999/xlink" width="185.94" height="276.16" viewBox="0 0 185.94 276.16">
  <defs>
    <style>
      .cls-1 {
        fill: none;
      }

      .cls-2 {
        fill: #ff0;
      }

      .cls-3 {
        fill: #efe800;
        stroke: #938c00;
      }

      .cls-13, .cls-3, .cls-6 {
        stroke-miterlimit: 10;
        stroke-width: 2px;
      }

      .cls-4 {
        fill: #fffef3;
      }

      .cls-5 {
        fill: #e7242b;
      }

      .cls-6, .cls-9 {
        fill: #ed152e;
      }

      .cls-6 {
        stroke: #700;
      }

      .cls-7 {
        clip-path: url(#clip-path);
      }

      .cls-8 {
        opacity: 0.43;
      }

      .cls-10 {
        opacity: 0.12;
      }

      .cls-11 {
        fill: #fff;
      }

      .cls-12 {
        opacity: 0.21;
      }

      .cls-13 {
        fill: #bbefff;
        stroke: #008e87;
      }

      .cls-14 {
        fill: #f4bf3b;
        opacity: 0.96;
        isolation: isolate;
      }

      .cls-15 {
        opacity: 0.49;
      }

      .cls-16 {
        opacity: 0.29;
      }

      .cls-17 {
        clip-path: url(#clip-path-3);
      }

      .cls-18 {
        opacity: 0.65;
      }

      .cls-19 {
        fill: #ddbd58;
      }

      .cls-20 {
        fill: #dda758;
      }

      .cls-21 {
        opacity: 0.46;
      }

      .cls-22 {
        fill: #ffdd4d;
      }

      .cls-23 {
        fill: #ffa64d;
      }
    </style>
    <clipPath id="clip-path">
      <path class="cls-1" d="M71.87,152l5.07-.25L70.59,20.9a5,5,0,0,0-4.68-4.73h-.22l-46.93.68.08,5.07,44.6-.64a2.17,2.17,0,0,1,2.21,2.09Z"/>
    </clipPath>
    <clipPath id="clip-path-3">
      <path class="cls-1" d="M66.25,227.06h0V236a8.21,8.21,0,0,0,5.58,7.84,46.37,46.37,0,0,0,13.67,1.83,37.64,37.64,0,0,0,11.12-1.19,9.69,9.69,0,0,0,6.9-9.33V227.1h0c0-9.54,1.66-43.74,9.28-84.63,6.73-36,15.42-54.18,15.42-54.18H41.59S50.28,106.47,57,142.47C64.59,183.31,66.25,217.52,66.25,227.06Z"/>
    </clipPath>
  </defs>
  <g>
    <path class="cls-2" d="M130.82,110.6a34.15,34.15,0,1,0-25.39-39.13H79.05s-2.47-50.93-2.47-51A11,11,0,0,0,66.21,10.18h-.6l-46.94.68A6,6,0,0,0,12.76,17L12.84,22a6,6,0,0,0,6,5.9l41-.58L62,71.47H30.89a6,6,0,0,0-5,9.28c.14.21,13.67,21.33,21.28,62.18A572.5,572.5,0,0,1,56.8,242.3a12,12,0,0,1-.31,3.1c-.15.15-.46.4-.69.59-.56.46-1.25,1-2.06,1.83-5.25,5.25-3.22,13-3,13.83A6,6,0,0,0,56.54,266h56.65a6,6,0,0,0,5.76-4.33c.25-.87,2.28-8.58-3-13.83-.8-.8-1.5-1.39-2.07-1.86-.23-.19-.53-.44-.68-.58a12.33,12.33,0,0,1-.3-3.08,572.57,572.57,0,0,1,9.65-99.37A248.59,248.59,0,0,1,130.82,110.6Z"/>
    <g>
      <g>
        <circle class="cls-3" cx="139.04" cy="77.45" r="28.14"/>
        <circle class="cls-4" cx="139.04" cy="77.45" r="25.97" transform="translate(40.32 202.29) rotate(-80.78)"/>
        <g>
          <path class="cls-2" d="M139.15,74.4a39,39,0,0,1-1-11.87c.33-7.19-1.11-9.07,2.46-9A14.72,14.72,0,0,1,148,55.71c1.85,1,3.7,2.3,2,4.39S142.76,71.56,141.57,73,139.56,75.75,139.15,74.4Z"/>
          <path class="cls-2" d="M135.83,79.53S119.48,84.91,118.62,87s1.65,5.83,3.53,7.31S126,97,126.88,96.2,138.46,78.66,135.83,79.53Z"/>
          <path class="cls-2" d="M142.68,77.76a1,1,0,0,1-.32-1.72,10.73,10.73,0,0,1,2.25-1.44c3.41-1.64,13-5.87,14.5-5.42s2.75.16,3.33,4.43.53,5.83-1.36,5.71-11-.7-13.47-.82A18.11,18.11,0,0,1,142.68,77.76Z"/>
          <path class="cls-2" d="M126.46,58.58s1.93,3,4,6.7,5,8.7,5.91,9.23,1.56-.57,1.4-2.5-.74-16.26-1.27-17-3.13-.9-5.09,0S126.75,57.64,126.46,58.58Z"/>
          <path class="cls-2" d="M116.4,73.25s-1.84,4.76-.65,8.13,1.23,4.84,3.49,3.77,14.49-6.32,16.14-6.44.82-1.93-.46-2.06S118.13,72.55,116.4,73.25Z"/>
          <path class="cls-2" d="M138.41,80.55s-.33-1.27-1.64.13-7.68,14.54-8.21,15.52,1.07,3.45,3.57,3.86,6.49,1.72,7.14.33S138.37,82.28,138.41,80.55Z"/>
          <path class="cls-2" d="M125.15,59.57s-6.77,4-7.88,8.41-1.44,4.23,3,5,12.4,2,14.25,2.67-2-6.16-3.94-9.11S126.51,59.73,125.15,59.57Z"/>
          <path class="cls-2" d="M142,78.46s9.24.82,12.77,1.31,7.71-.49,7.22,3.41-1.47,3.61-2.17,5.25-3.58,6.41-4.73,6.24-6.4-6.9-8.7-9.36S140.43,78.29,142,78.46Z"/>
          <path class="cls-2" d="M141.82,75.26a.66.66,0,0,1-.66-1c1.61-2.18,6.41-8.66,7.44-10.27,1.23-1.93,2.83-5.46,4.76-4.43a14,14,0,0,1,5,5.38c1.35,2.34,1.31,2.38-.53,3.74s-12.12,4.55-13.92,5.66A7.27,7.27,0,0,1,141.82,75.26Z"/>
          <path class="cls-2" d="M140.59,79.53s-.82-1.07-.86,2.38.86,7.76.7,9.48a34.51,34.51,0,0,0,.41,7.64,2.87,2.87,0,0,0,3.77,2.14c2.22-.7,10.19-3.74,9.49-5.18S141.74,81.37,140.59,79.53Z"/>
        </g>
      </g>
      <path class="cls-5" d="M138.87,77.47h-108S45.08,99.06,53,141.83A576.92,576.92,0,0,1,62.8,242.35h0c-.13,7.2-1.92,6.86-4.81,9.71S56.54,260,56.54,260h56.65s1.45-5-1.45-7.92-4.69-2.51-4.81-9.71h0a577.57,577.57,0,0,1,9.75-100.52C124.69,99.06,138.87,77.47,138.87,77.47Z"/>
      <g>
        <g>
          <g>
            <path id="SVGID" class="cls-6" d="M71.87,152l5.07-.25L70.59,20.9a5,5,0,0,0-4.68-4.73h-.22l-46.93.68.08,5.07,44.6-.64a2.17,2.17,0,0,1,2.21,2.09Z"/>
            <g class="cls-7">
              <g class="cls-8">
                <path class="cls-9" d="M75.45,153.33l5.11,1-6.26-137a5,5,0,0,0-4.69-4.73H69.4l-54.27.17-.55,5.45,51.29-.38a3.56,3.56,0,0,1,3,2.68Z"/>
              </g>
            </g>
            <g class="cls-7">
              <g class="cls-10">
                <path class="cls-11" d="M68.38,155.46l5.07-.26L67.1,24.39c-.17-2.55-.17-4.68-2.68-4.85L8,19.84l.08,5.06,51.08.56a2.17,2.17,0,0,1,2.21,2.09Z"/>
              </g>
            </g>
          </g>
          <g class="cls-12">
            <path class="cls-11" d="M57.69,20c-4.48,1.23-10.48.34-16,.59-6.35.26-14.27,1.71-20.32-.08-.89-.26-1.06-1.75,0-1.92,9.2-1.28,26.45-1.15,36.59-.43C60.16,18.35,58.07,19.88,57.69,20Z"/>
          </g>
          <g class="cls-12">
            <path class="cls-11" d="M69.15,31.51c1.7,4.55,1.32,10.09,1.61,14.86.3,5.16,1.62,12,.81,17.13-.17,1-2,.46-2.43-.35-1.91-3.45-1-8.77-1.32-12.69C67.19,42.33,66.16,38,66.72,32,67,28.61,69.15,31.51,69.15,31.51Z"/>
          </g>
        </g>
        <g>
          <path class="cls-13" d="M138.87,77.47h-108S45.08,99.06,53,141.83A576.92,576.92,0,0,1,62.8,242.35h0c-.13,7.2-1.92,6.86-4.81,9.71S56.54,260,56.54,260h56.65s1.45-5-1.45-7.92-4.69-2.51-4.81-9.71h0a577.57,577.57,0,0,1,9.75-100.52C124.69,99.06,138.87,77.47,138.87,77.47Z"/>
          <path class="cls-14" d="M66.25,227.06h0V236a8.21,8.21,0,0,0,5.58,7.84,46.37,46.37,0,0,0,13.67,1.83,37.64,37.64,0,0,0,11.12-1.19,9.69,9.69,0,0,0,6.9-9.33V227.1h0c0-9.54,1.66-43.74,9.28-84.63,6.73-36,15.42-54.18,15.42-54.18H41.59S50.28,106.47,57,142.47C64.59,183.31,66.25,217.52,66.25,227.06Z"/>
          <g class="cls-15">
            <path class="cls-11" d="M35.41,80.32c7.41.94,14.82.89,22.28,1.15,3.7.13,7.41.47,11.16.55,4,.09,8.18,1.28,12.05-.21a.53.53,0,0,0,0-1c-7.71-2.22-17.08-1.62-25.13-1.88-4.22-.12-8.43,0-12.65.13-2.77.09-5.37-.42-7.88.77-.26.08-.09.47.17.51Z"/>
          </g>
          <g class="cls-15">
            <path class="cls-11" d="M95.6,81.3c6.73.89,13.41,1.24,20.19,1.49,4.77.17,12.77,2.17,16.78-1.06a.63.63,0,0,0-.13-1c-1.7-.94-2.68-.69-4.68-.6-3.28.13-6.69-.34-10-.47a126.51,126.51,0,0,0-22,.47c-.64.09-.9,1.06-.17,1.15Z"/>
          </g>
          <g class="cls-15">
            <path class="cls-11" d="M97.73,254.28c-5-.39-10-.56-15.08-.51a54.47,54.47,0,0,1-8.27-.3c-3.06-.43-5.7-2.26-8.51-3.41-3.63-1.49-5.24,4.47-1.62,5.88,11,4.26,22.53,3,33.73.08,1-.25.68-1.66-.25-1.74Z"/>
          </g>
          <g class="cls-15">
            <path class="cls-11" d="M104.2,255.64a2.74,2.74,0,0,1,.55,0c-.38-.08-.76-.21-1.15-.3.22.13.17.09-.17-.12a3.1,3.1,0,0,0,1.28.76,3.3,3.3,0,0,0,2.13.09,2.65,2.65,0,0,0,.64-4.77,3.53,3.53,0,0,0-2.77-.39,7,7,0,0,0-1.62.86,2,2,0,0,0,1.11,3.83Z"/>
          </g>
          <g class="cls-16">
            <path class="cls-11" d="M92.66,252.15c-3.5.17-7-1.28-10.35-2.05-3.71-.85-6.86-2.64-10.35-4-5.12-2-8.1,6-3.62,8.61,6.51,3.91,18.4,3.53,25-.3a1.26,1.26,0,0,0-.64-2.3Z"/>
          </g>
          <g class="cls-16">
            <path class="cls-11" d="M91.12,81.77c8.14,1.62,18.79,3.53,26.75.51a.67.67,0,0,0,0-1.28c-3.87-1.53-8.22-1.36-12.35-1.53-4.77-.21-9.71-.64-14.4.25a1.07,1.07,0,0,0,0,2Z"/>
          </g>
          <path class="cls-11" d="M104.71,82c7.58.81,17.08,3.71,24.24,0,.59-.3.21-1-.3-1.11-3.62-.46-7.37,0-11,0-4.35,0-8.56,0-12.91.38-.47,0-.42.64,0,.72Z"/>
          <path class="cls-11" d="M77.92,254c-.6-.09-1.15-.64-1.7-.85-.81-.34-1.62-.68-2.43-1a13,13,0,0,1-2.22-1.07c-.64-.34-.68-.85-1.23-1.36a2,2,0,0,0-3.11.38c-1.45,2.69,1.57,4.48,3.7,5.2a12,12,0,0,0,3.88.55c1,0,2-.47,2.94-.51.72,0,1-1.23.17-1.36Z"/>
          <g>
            <g class="cls-17">
              <g class="cls-18">
                <path class="cls-19" d="M88.48,245.76l.13.13c-1.06,2.68-2.17,5.32-3.24,8,4.35-3,6.48-3.79,7.42-8.64,1.53-7.76.08-19.43-.26-27.14-.77-15.93.08-31.77.21-47.66.05-7.79,2.77-37.82,4.26-44.89,1.75-8.4,2.64-17,3.71-25.48a58,58,0,0,0,.64-12.14c-.34-4.34-1.71-8.51-1.92-12.86-.34-7-5.62-12.91-12.91-12.91-6.77,0-54,11.46-53.71,18.49C33,84.92,38.6,87.77,39.46,92c.68,3.41,8.77,46.47,8.09,55.46-.64,8.43,9.16,18.18,9,26.62-.39,17,6.17,34.33,8.73,51.41,1.11,7.33-5.5,14.06-3.71,20.62.9,3.32,11.89,5.92,15,7.71A10.65,10.65,0,0,0,81.33,255c6.22,0-4.86.26,1.83.09a6.32,6.32,0,0,0,5.32-9.37Z"/>
              </g>
            </g>
            <g class="cls-17">
              <g class="cls-18">
                <path class="cls-20" d="M83.41,241.41l.13.13L81.63,250c3.79-3.67-8.18-120.08-7.88-127.28.34-8.56-1.92-18.44-2.26-27a60.47,60.47,0,0,0-1.37-12.1c-1.06-4.22-3.1-8.14-4-12.35-1.49-6.86-7.67-11.8-14.87-10.61-6.68,1.11-51.45,20.19-50,27.05.89,4.13,6.9,6,8.39,10C10.88,101,26,142.13,26.76,151.11c.77,8.44,12.06,16.44,13.25,24.79,2.47,16.91,11.71,32.84,17.08,49.28,2.3,7-3.07,14.74-.25,21,1.4,3.11,12.69,3.88,16,5.16a10.35,10.35,0,0,0,5,.46c6.14-1-4.72,1,1.79-.21a6.32,6.32,0,0,0,3.79-10.14Z"/>
              </g>
            </g>
            <g class="cls-17">
              <g class="cls-21">
                <path class="cls-22" d="M144.67,65.16c-6.14-4.22-15.3.34-18.66,4.77-4.47,5.83-10.14,30.07-10.91,32.2a157.42,157.42,0,0,0-5.49,18.61c-3.19,13.08-4.09,22.62-7.88,38.85-1.24,5.24-2.34,22.53-3.41,29-1,6.14-1.19,19.77-1.79,26-.51,5.79.64,29.9,1.24,35.26.89,7.88,9.63,13.12,18.19,13.12,7.28,0,6.81-6.47,5.79-14.35-.47-3.79-2-7.84-5.75-9.58-1.19-.56-2.34-1.07-3.58-1.54-9.5-2.6,1,1.07.51.73l4.65,4.64c2.42,4,.85,5.28,1.15,1.15a37.66,37.66,0,0,1,1.23-5.2,86,86,0,0,0,1.7-14.48,208,208,0,0,1,2.69-25.17c1.66-9.59,4.09-18.83,4.73-28.58.63-9.33.76-18.53,2.17-27.78,1.36-9,2.26-18.06,4.17-27,1.28-5.88,3.15-11.5,4.05-17.46.77-5.24,1.45-10.48,2.72-15.59.56-2.3,1-4.69,1.54-7,.3-1.32,1.62-1.79,2.81-3.58,1.58-2.43.26-5.49-1.87-7Z"/>
              </g>
            </g>
            <g class="cls-17">
              <g class="cls-21">
                <path class="cls-23" d="M148.07,65.16c-6.13-4.22-15.29.34-18.65,4.77-4.48,5.83-10.14,30.07-10.91,32.2A157.42,157.42,0,0,0,113,120.74c-3.2,13.08-4.09,22.62-7.88,38.85-1.24,5.24-2.35,22.53-3.41,29-1,6.14-1.19,19.77-1.79,26-.51,5.79.64,29.9,1.24,35.26.89,7.88,9.62,13.12,18.18,13.12,7.29,0,6.82-6.47,5.8-14.35-.47-3.79-2-7.84-5.75-9.58-1.2-.56-2.35-1.07-3.58-1.54-9.5-2.6,1,1.07.51.73l4.64,4.64c2.43,4,.85,5.28,1.15,1.15a37.71,37.71,0,0,1,1.24-5.2,87.09,87.09,0,0,0,1.7-14.48,208,208,0,0,1,2.69-25.17c1.66-9.59,4.08-18.83,4.72-28.58.64-9.33.77-18.53,2.18-27.78,1.36-9,2.25-18.06,4.17-27,1.28-5.88,3.15-11.5,4-17.46a156.26,156.26,0,0,1,2.72-15.59c.56-2.3,1-4.69,1.54-7,.29-1.32,1.61-1.79,2.81-3.58,1.62-2.43.25-5.49-1.88-7Z"/>
              </g>
            </g>
          </g>
          <path class="cls-11" d="M113.19,101.62c-5.11,8.43-6.35,20.49-8.73,29.86a207.48,207.48,0,0,0-4.94,24.62c-1.5,11-2.56,22.06-3.37,33.18-.64,8.6-1.45,17.5-.55,26.11.25,2.6,4.34,2.68,4.13,0-1.54-19.13,1.4-39.15,3.7-58.14a222.32,222.32,0,0,1,4.65-24.79c1.4-6.05,2.25-12.27,3.62-18.32.89-3.92,2.34-8.35,2-12.39-.09-.26-.34-.35-.47-.13Z"/>
        </g>
      </g>
    </g>
  </g>
</svg>
