<svg id="Layer_1" data-name="Layer 1" xmlns="http://www.w3.org/2000/svg" width="278.43" height="387.77" viewBox="0 0 278.43 387.77">
  <defs>
    <style>
      .cls-1 {
        fill: #ff0;
      }

      .cls-2 {
        fill: #9a6634;
      }

      .cls-3 {
        fill: #caaf99;
      }

      .cls-4 {
        fill: #4b2917;
      }

      .cls-5 {
        fill: #243a1a;
      }

      .cls-6 {
        fill: #cb7a35;
      }

      .cls-7 {
        fill: #589241;
      }

      .cls-8 {
        fill: #925c2a;
      }

      .cls-9 {
        fill: #20130a;
      }

      .cls-10 {
        fill: #6b3019;
      }

      .cls-11 {
        fill: #935d2b;
      }

      .cls-12 {
        fill: #935c2a;
      }

      .cls-13 {
        fill: #f5b576;
      }

      .cls-14 {
        fill: #21140a;
      }

      .cls-15 {
        fill: #935e2b;
      }

      .cls-16 {
        fill: #23160c;
      }

      .cls-17 {
        fill: #301110;
      }

      .cls-18 {
        fill: #22150b;
      }

      .cls-19 {
        fill: #9f6a39;
      }

      .cls-20 {
        fill: #25170d;
      }

      .cls-21 {
        fill: #323130;
      }

      .cls-22 {
        fill: #653f17;
      }

      .cls-23 {
        fill: #9e6732;
      }

      .cls-24 {
        fill: #353432;
      }

      .cls-25 {
        fill: #663f18;
      }

      .cls-26 {
        fill: #9d652e;
      }

      .cls-27 {
        fill: #725622;
      }

      .cls-28 {
        fill: #2b1b10;
      }

      .cls-29 {
        fill: #9a6430;
      }

      .cls-30 {
        fill: #a36f3e;
      }

      .cls-31 {
        fill: #9d6937;
      }

      .cls-32 {
        fill: #a2734a;
      }

      .cls-33 {
        fill: #a06e3e;
      }

      .cls-34 {
        fill: #a6764b;
      }

      .cls-35 {
        fill: #9d6635;
      }

      .cls-36 {
        fill: #725522;
      }

      .cls-37 {
        fill: #9b6229;
      }

      .cls-38 {
        fill: #a37144;
      }

      .cls-39 {
        fill: #9c6735;
      }

      .cls-40 {
        fill: #af7b4b;
      }

      .cls-41 {
        fill: #a57143;
      }

      .cls-42 {
        fill: #ab7444;
      }

      .cls-43 {
        fill: #ac7b4d;
      }

      .cls-44 {
        fill: #935d2c;
      }

      .cls-45 {
        fill: #3a1211;
      }

      .cls-46 {
        fill: #a87547;
      }

      .cls-47 {
        fill: #a87241;
      }

      .cls-48 {
        fill: #a26d3e;
      }

      .cls-49 {
        fill: #a26e3d;
      }

      .cls-50 {
        fill: #6d5948;
      }

      .cls-51 {
        fill: #59493a;
      }

      .cls-52 {
        fill: #506c39;
      }

      .cls-53 {
        fill: #9b6432;
      }

      .cls-54 {
        fill: #cbc8c5;
      }

      .cls-55 {
        fill: #526e3b;
      }

      .cls-56 {
        fill: #a87546;
      }

      .cls-57 {
        fill: #45652f;
      }

      .cls-58 {
        fill: #a27044;
      }

      .cls-59 {
        fill: #a87140;
      }

      .cls-60 {
        fill: #a97445;
      }

      .cls-61 {
        fill: #ad7646;
      }

      .cls-62 {
        fill: #a4764c;
      }

      .cls-63 {
        fill: #a37042;
      }

      .cls-64 {
        fill: #4b3624;
      }

      .cls-65 {
        fill: #9f6a38;
      }

      .cls-66 {
        fill: #cb7935;
      }

      .cls-67 {
        fill: #6a2f19;
      }

      .cls-68 {
        fill: #6e431e;
      }

      .cls-69 {
        fill: #efaf71;
      }

      .cls-70 {
        fill: #f2b274;
      }

      .cls-71 {
        fill: #f0b272;
      }

      .cls-72 {
        fill: #d49457;
      }

      .cls-73 {
        fill: #e8a768;
      }

      .cls-74 {
        fill: #dc9c5d;
      }

      .cls-75 {
        fill: #dd995b;
      }

      .cls-76 {
        fill: #da9657;
      }

      .cls-77 {
        fill: #d18848;
      }

      .cls-78 {
        fill: #dc9b5e;
      }

      .cls-79 {
        fill: #f5b577;
      }

      .cls-80 {
        fill: #381212;
      }

      .cls-81 {
        fill: #f7f2f3;
      }

      .cls-82 {
        fill: #491212;
      }

      .cls-83 {
        fill: #f4b576;
      }

      .cls-84 {
        fill: #f4b475;
      }

      .cls-85 {
        fill: #d99257;
      }

      .cls-86 {
        fill: #e7a162;
      }

      .cls-87 {
        fill: #e1a46b;
      }

      .cls-88 {
        fill: #d89c65;
      }

      .cls-89 {
        fill: #e5a66a;
      }

      .cls-90 {
        fill: #cb7a36;
      }

      .cls-91 {
        fill: #9c642f;
      }

      .cls-92 {
        fill: #9c6530;
      }

      .cls-93 {
        fill: #e7a566;
      }

      .cls-94 {
        fill: #e8b262;
      }

      .cls-95 {
        fill: #aa6b2a;
      }

      .cls-96 {
        fill: #9b6430;
      }

      .cls-97 {
        fill: #a46a32;
      }

      .cls-98 {
        fill: #b32726;
      }

      .cls-99 {
        fill: #e35a59;
      }

      .cls-100 {
        fill: #791416;
      }

      .cls-101 {
        fill: #fbd780;
      }

      .cls-102 {
        fill: #f8a71a;
      }

      .cls-103 {
        fill: #50534e;
      }

      .cls-104 {
        fill: #7c5a24;
      }

      .cls-105 {
        fill: #e89623;
      }

      .cls-106 {
        fill: #fbd680;
      }

      .cls-107 {
        fill: #795823;
      }

      .cls-108 {
        fill: #4e514d;
      }

      .cls-109 {
        fill: #9d6532;
      }

      .cls-110 {
        fill: #e8a263;
      }

      .cls-111 {
        fill: #dfa063;
      }

      .cls-112 {
        fill: #9b632f;
      }

      .cls-113 {
        fill: #9b6531;
      }

      .cls-114 {
        fill: #de8a4c;
      }

      .cls-115 {
        fill: #4b2221;
      }

      .cls-116 {
        fill: #dd894c;
      }

      .cls-117 {
        fill: #501412;
      }

      .cls-118 {
        fill: #4c1312;
      }

      .cls-119 {
        fill: #5d1b14;
      }

      .cls-120 {
        fill: #551412;
      }

      .cls-121 {
        fill: #5c332d;
      }

      .cls-122 {
        fill: #5d322b;
      }

      .cls-123 {
        fill: #5d3530;
      }

      .cls-124 {
        fill: #522926;
      }

      .cls-125 {
        fill: #5d352f;
      }

      .cls-126 {
        fill: #603730;
      }

      .cls-127 {
        fill: #5d3632;
      }

      .cls-128 {
        fill: #bb7233;
      }

      .cls-129 {
        fill: #a46e36;
      }

      .cls-130 {
        fill: #926327;
      }

      .cls-131 {
        fill: #f5ce7c;
      }

      .cls-132 {
        fill: #311313;
      }

      .cls-133 {
        fill: #351515;
      }

      .cls-134 {
        fill: #f9f8f8;
      }

      .cls-135 {
        fill: #e9e2e2;
      }

      .cls-136 {
        fill: #e8e0e0;
      }
    </style>
  </defs>
  <g>
    <path class="cls-1" d="M12.55,243.5a13.11,13.11,0,0,0,2.83,3.07c.86,4.06,2.22,8.18,5.31,11.67l0,.1c.3.64.59,1.28.88,2,.71,1.68,2.37,5.61,7,5.61a10.27,10.27,0,0,0,4.32-1.17c1.76-.78,4.41-1.94,5.23-5.14a7.22,7.22,0,0,0-1.61-6.36h.89a12.11,12.11,0,0,0,4.29-.16l5.11-.91,2.83-.26,8.93,1.33c7.3,1.1,14.86,2.23,22.32,3.27,5.22.72,10.51,1.36,15.63,2,3.27.4,6.54.8,9.8,1.22a9,9,0,0,0,1.46.13,8.17,8.17,0,0,0,7.4-4.67,69.72,69.72,0,0,1,6.72-9.69l.16-.2a20.86,20.86,0,0,1,3.59-3.68,142.88,142.88,0,0,0,20.09,15.47l.16.1a6.55,6.55,0,0,1,3.19,4.4l0,.17c.08.35.18.71.28,1.06l.09.3c2.54,9.47-.26,17.53-8.09,23.31A44,44,0,0,1,124.25,294l-.13,0a22.32,22.32,0,0,1-4.82.53,21.85,21.85,0,0,1-7.63-1.37,36.82,36.82,0,0,1-8.42-4.82l-.11-.08c-1.29-1-2.56-1.93-3.9-3-2.36-1.84-4.81-3.75-7.5-5.47-3.57-2.29-9.11-5.33-16-5.33h-.44c-10.85.2-20.42,4.61-28.47,13.09-5.2,5.48-7,12.72-5,20.38,2,8,6.8,13.83,10.25,17.57a69.93,69.93,0,0,0,7,7.12,40.52,40.52,0,0,0,8.39,6.21l.1.05a15.57,15.57,0,0,0,7.35,2,12.86,12.86,0,0,0,10-4.9,8,8,0,0,0-1.29-12.54A28.59,28.59,0,0,0,74,318.55,33.88,33.88,0,0,1,66.1,315L66,315c-1.12-.66-2.23-1.34-3.33-2l-1-.62-.49-.44c-.54-.49-1-.95-1.42-1.36-2.64-2.91-2.72-4.95-2.49-6.4.61-3.9,2.82-6.81,7-9.14a32.87,32.87,0,0,1,8.16-3l.11,0a14.29,14.29,0,0,1,3.41-.45,9.54,9.54,0,0,1,6.66,2.69,146.58,146.58,0,0,0,14.21,11.41c7.75,5.37,15.36,8,23.25,8a36.92,36.92,0,0,0,9.24-1.2c11.11-2.88,20.21-7.63,27.82-14.52a34.06,34.06,0,0,0,11-20.4c1.88,1.93,3.82,3.83,5.84,5.66a3.82,3.82,0,0,1,.75.82h0a5.67,5.67,0,0,1-.44,1.86c-1.52,4.39-3.23,8.84-4.88,13.15-1.18,3.07-2.4,6.25-3.56,9.42-.2.57-.43,1.14-.65,1.7a36.3,36.3,0,0,0-2.11,6.8c-2.55,5.44-5.05,11-7.42,16.54-4.43,10.33-6.41,20.12-6.06,29.94v.11a21.61,21.61,0,0,0,1.81,9.16,8.72,8.72,0,0,0,7.94,5.33,10.08,10.08,0,0,0,4.08-.92l.1-.05a14.78,14.78,0,0,0,5.33-4.21,38.48,38.48,0,0,0,6-11.51,104.43,104.43,0,0,0,6.32-33.6,20.67,20.67,0,0,1,.47-3.25,37.78,37.78,0,0,0,.61-3.84c3.23-5.94,6.8-12.56,10-19.19l1.14-2.17a6,6,0,0,0,2.93-1.78,11.89,11.89,0,0,0,2.07-3.24,6.37,6.37,0,0,0,1.1-1.21c2.7-3.94,2.11-10.19,0-13.95L198,276.46a19.28,19.28,0,0,0,5.49-4.64,8,8,0,0,0,1.43-1.6,12,12,0,0,0,1.85-2.34l0-.06a8.49,8.49,0,0,0,1.71-2,54.72,54.72,0,0,0,3.72-4.72,8.29,8.29,0,0,0,1.38-1.7,8.12,8.12,0,0,0,.93-1.19,8.84,8.84,0,0,0,1.22-1.64,8.35,8.35,0,0,0,1.48-2l.13-.21.21-.27.32-.36a8.76,8.76,0,0,0,1.41-1.9l.38-.5,1.63-2.11,1.81-2.46,1-1.3s1.25-1.69,1.25-1.69a66.13,66.13,0,0,0,4.49-6.14,8.47,8.47,0,0,0,1.44-2c5.58-7.74,5.17-16.41,4.36-22.31-.9-6.54-5.38-10.77-11.41-10.77a15.41,15.41,0,0,0-5.94,1.28,29.69,29.69,0,0,0-10.78,7.81c-5.5,6.18-9.34,13.13-12.61,20.2-.38-1.64-.79-3.37-1.24-5.17-2.34-9.48-5-20.21-9.44-30.29a27.72,27.72,0,0,0-5.72-9l-.19-.19a8.84,8.84,0,0,0-6.23-2.73,8.69,8.69,0,0,0-6.71,3.37c-.06.06-.11.13-.17.2a17.67,17.67,0,0,0-3.33,7.09c-1.51,5.92-1.72,11.83-1.82,17.87,0,.2,0,.4,0,.6a60.66,60.66,0,0,1-12.19-33.68c-.32-6.23,1.33-12.49,5-19l.63,0a6.61,6.61,0,0,0,6.28-4.68v0c.19-.08.37-.17.56-.27a6,6,0,0,0,3.09-4.39c.5-3.34.89-7.23-.81-11.22-2.65-6.22-5.16-13.12-7.89-21.72-2.25-7-4.49-14.39-6.15-21.94l2.51,2.12a541.21,541.21,0,0,0,92.41,62l2.53,1.35c4.4,2.36,9,4.8,13.78,6.82a5.93,5.93,0,0,0,2.32.46,3.85,3.85,0,0,0,.48,0,6.89,6.89,0,0,0,1.8-.39,6,6,0,0,0,4-5.79c0-1.17,0-2.34,0-3.52,0-2.77,0-5.38.07-8a8.62,8.62,0,0,0-5.57-8.91c-8.29-3.9-16.29-8.35-22.36-11.81l-1.17-.66c-3.51-2-7.14-4.06-10.52-6.25-3.18-2-6.63-4.19-10.81-6.69a6.86,6.86,0,0,0-3-1.83l-4.48-3.12a7.22,7.22,0,0,0-1.63-1.06,7.38,7.38,0,0,0-1.8-1.26L207,110c-2.34-1.57-4.68-3.12-7-4.67l-.32-.21c-3.19-2.12-6.39-4.43-9.49-6.68-1.65-1.2-3.31-2.4-5-3.58-3.06-2.16-6-4.52-9.05-7l-3.4-2.74c-4.86-3.87-9.94-8-14.92-12.27a10.28,10.28,0,0,0,2.67-6.52,10.68,10.68,0,0,0-4.22-8.7l0,0A10.44,10.44,0,0,0,153.67,51a11.39,11.39,0,0,0-7.15-4.24,8.86,8.86,0,0,0-6.17-4,17.64,17.64,0,0,0-3.26-.32,13.55,13.55,0,0,0-8.71,3l-1-1.06c-.62-.65-1.24-1.3-1.91-2A299.1,299.1,0,0,1,102,15.86c-1.13-1.47-4.58-6-10.94-6a16.05,16.05,0,0,0-2.16.16,11.37,11.37,0,0,1-1.71.1q-.78,0-1.56,0c-.63,0-1.27,0-1.9,0a22.44,22.44,0,0,0-4.17.34,5.81,5.81,0,0,0-2.25.91,6,6,0,0,0-2.65,5.43,7.92,7.92,0,0,0,2,4.59l0,0c5.44,7.58,11.85,15.52,20.17,25,5.08,5.79,10.54,11.53,15.46,16.62a12.71,12.71,0,0,0-.94,3.41,12,12,0,0,0,3.47,10.09,23.32,23.32,0,0,0,9.9,6q.41,4.27.8,8.56c1.12,12.2,1.68,21.58,1.81,30.4v.2a161.34,161.34,0,0,1-.36,17.42c-.54-.15-1-.26-1.49-.35a45.6,45.6,0,0,0-17.4-13.84A60.11,60.11,0,0,0,81.91,119a74.88,74.88,0,0,0-13.82,1.34,60.49,60.49,0,0,0-24.37,10,28.63,28.63,0,0,0-9.93,11.79l-.1.18c-2.17,4.25-.72,7.11.5,8.56q-1.14,2.24-2.16,4.73a6.55,6.55,0,0,0,2.11,8.64,13.33,13.33,0,0,0,.15,5.93,6,6,0,0,0,5.06,4.43l.25,0a6,6,0,0,0,1.48,1.06,28.57,28.57,0,0,0,1.72,6.44,11,11,0,0,0-3.22,8.27c0,7.12,2.93,12.94,8,16.57a7.35,7.35,0,0,0-3-.64,8.74,8.74,0,0,0-2.66.43,29.61,29.61,0,0,0-10.59,2.89l-.67-.21a4.07,4.07,0,0,0-.5-.13,13.21,13.21,0,0,0-5.55,0,4.07,4.07,0,0,0-.5.13A13.56,13.56,0,0,0,15,218.65a12.52,12.52,0,0,0-.47,3.5,10.91,10.91,0,0,0-2.18,6.47c-.16.23-.32.46-.46.71a9.51,9.51,0,0,0-.86,1.48,6,6,0,0,0-1.12,3.48v3.08A6,6,0,0,0,11.07,241,8.23,8.23,0,0,0,12.55,243.5Zm40.93-33.57c.13.67.28,1.35.46,2a8.36,8.36,0,0,0,8.23,6.69l.61,0a25.55,25.55,0,0,0,10.37-2.39,29.38,29.38,0,0,0,11.58,4.33A23,23,0,0,0,89,228.67a8.31,8.31,0,0,0,2.62,2.49,12,12,0,0,0,1.93,1.15,54.48,54.48,0,0,1-18,3.05,55.41,55.41,0,0,1-10.35-1,6.51,6.51,0,0,0-1.81-.34l-5.81-1.93c-.78-.43-.83-.69-.9-1.12l-.1-.62a17.68,17.68,0,0,0-2.18-6.86,8.69,8.69,0,0,0-2-3.43c-.3-.45-.65-.94-1.05-1.45A7.56,7.56,0,0,0,52,213a8.7,8.7,0,0,0-2.7-4.87A21.32,21.32,0,0,0,53.48,209.93Z"/>
    <g>
      <path class="cls-2" d="M16.17,234.25a3.24,3.24,0,0,1,.76-1.67c.33-.05.45.15.52.43a9.13,9.13,0,0,0,.36,6.16,1,1,0,0,1-.08.51.28.28,0,0,1-.37.13.18.18,0,0,1-.07-.05c-.8-.6-.6-1.79-1.41-2.39V237C16.32,236.14,15.84,235.15,16.17,234.25Z"/>
      <path class="cls-3" d="M16.17,234.25c-.07.93.36,1.91-.28,2.78v-2.74A.68.68,0,0,1,16.17,234.25Z"/>
      <path class="cls-4" d="M186.66,252.08l-.12-.68a15,15,0,0,0-1.34-4.54c-2.41-6.85-4.71-13.73-7.3-20.52-.07-.2-.07-.45-.39-.54a110.62,110.62,0,0,1-5.6,20.4,2,2,0,0,0,.49,2.39,101.33,101.33,0,0,1,10.38,14.31c4,6.28,7.33,12.94,11.17,19.31a5,5,0,0,1,.79,3.09c-.06.56,0,1.27-1,.85-.55-.24-.36.22-.35.43a7,7,0,0,1,0,1c-.08.91-.25,1.61-1.24.59a3.1,3.1,0,0,0-.89-.49c-.53-.78-.16-1.55,0-2.3a7.5,7.5,0,0,0-.86-5.9c-5.66-9.84-12.26-19.05-18.58-28.46-.41-.6-.76-1.56-1.84-.82s-.54,1.5,0,2.28a230.72,230.72,0,0,1,17.56,29.07,6.81,6.81,0,0,1,.58,5.42,206.12,206.12,0,0,1-10.12,25.36c-.07.14-.11.32-.29.39.82-.59.56-2.15,2-2.19a1.17,1.17,0,0,1-.16,1.43c-1.43,2.2-2.33,4.68-3.7,6.91-.56.61-.76,1.45-1.29,2.08a.78.78,0,0,1-.7,0c-.74-.86-1-.26-1.21.41-.16.45-.09,1.16-.73,1.2a1.26,1.26,0,0,1-1.2-1.05c-.27-1.27-1.87-1.47-2.07-2.75h.07c1.93-5.63,4-11.2,6.17-16.76a175,175,0,0,0,5.87-16.51c.23-.83.27-1.67.56-2.49a1.79,1.79,0,0,0-.69-2c-3.72-3.45-7-7.34-10.58-10.92-2.82-2.81-5.71-5.56-8.35-8.55A42.83,42.83,0,0,0,151,253a125.54,125.54,0,0,1-16.3-12c-2.45-2-4.94-4-7.22-6.23a2,2,0,0,0-2.5-.26,12.65,12.65,0,0,0-3.44,2.19A62.88,62.88,0,0,0,110,251.36c-1.34,2.22-1.46,2.19-4.11,1.87-3.25-.39-6.52-.75-9.77-1.15-4.1-.5-8.19-1.05-12.27-1.61-3.53-.49-7.06-1-10.59-1.44s-6.93-1-10.4-1.5c-4.13-.56-8.25-1.3-12.39-1.84-.7-.42-.89-1.24-1.38-1.82a3.83,3.83,0,0,1-.25-.44c-1.15-2.3-1-2.52,1.49-2.75a.84.84,0,0,0,.56-.24c0-.65-.59-1.09-.88-1.67s-1.09-1.2-.47-2,1.38-.26,2.06-.09c1.2.34,2.37.73,3.53,1.18a23,23,0,0,0,3.61,1.35,49.23,49.23,0,0,0,13,4.65,65.57,65.57,0,0,0,16.74,1.95c11.45-.16,19.59-8.21,19.62-19.68,0-.51,0-1,0-1.57a30.12,30.12,0,0,1-4.28,8.44,21.1,21.1,0,0,1-4.4,4.5c-.48.37-1,.86-1.68.62-.46-1.06.56-1.37,1-1.87,3.7-3.93,6.9-8.17,8.22-13.52.68-2.74.82-5.59,1.65-8.3a18.79,18.79,0,0,0,.84-3.3,2.73,2.73,0,0,1,1.29-1.06,38.74,38.74,0,0,0,14.74-14.37,31.12,31.12,0,0,0,4.17-15.15,8,8,0,0,0,0-.85,14.09,14.09,0,0,1,2-8.71c3.37-5.49,3.71-11.49,1.51-17.59a17.37,17.37,0,0,0-1.29-2.59c-.29-.5-.87-1-.28-1.67a52.74,52.74,0,0,0,1.87-13.61c.17-3.86.29-7.73.22-11.61q-.18-11-.91-22c-.36-5.49-.93-11-1.36-16.44a60.93,60.93,0,0,1-.62-7.27,1.06,1.06,0,0,1,1.33-.66h0a4.37,4.37,0,0,0,2.89-.5c1.2-.16,1.85.7,2.55,1.42A10.44,10.44,0,0,1,140,81.19c.31,8.83,2.41,17.35,4.68,25.82a323.29,323.29,0,0,0,10.21,31.22c.57,1.48,1.17,3,1.84,4.4a9.62,9.62,0,0,1,.75,4.82c-.05.76-.28,1.3-1.15.77s-1-.06-1.12.7c-.12,1,.13,2.2-.9,2.94a.81.81,0,0,1-.46-.3c-1-1.39-1.45-1.39-2.48,0-.8,1.1-1.65,2.17-2.37,3.33-.26.42-.5,1-1.17.61a1.65,1.65,0,0,1,.3-1.6,28.45,28.45,0,0,1,4.59-6.36,4.87,4.87,0,0,0,1.39-4.67,33.23,33.23,0,0,0-2.81-8c-4.17-9.36-6.75-19.23-9-29.2-1.32-5.89-2.34-11.84-3.48-17.8a19.52,19.52,0,0,0-.26,6.6c1,9.81,2.72,19.52,4.17,29.27a78.65,78.65,0,0,1,1.17,16c-.35,6-.76,12-1.52,18-.55,4.33-.7,8.72-1.81,13,0,.24.34,0,.12.08s-.11,0-.09-.15a22.11,22.11,0,0,1,2.06-6.29c1.06-2.27,2.21-4.5,3.36-6.73.32-.63.57-1.41,1.52-1.41.5.74-.06,1.28-.36,1.86a55.91,55.91,0,0,0-5.73,17.86,31.81,31.81,0,0,0,.35,8.65,70.84,70.84,0,0,0,4.72,18c.46,1.13,1.37,2.12,1.21,3.47-1.08.59-1.24-.48-1.52-1A81.05,81.05,0,0,1,139,189.28a19.06,19.06,0,0,1-1-5.24c.15,8.69,2.6,16.59,8.08,23.43,1.31,1.64,2.69,3.23,4.15,4.74a3.07,3.07,0,0,0,1.69,1.08c1.72,1.9,3,4.16,4.54,6.16a95.18,95.18,0,0,0,7.48,8c.58.59.9.47,1.16-.32a21.19,21.19,0,0,0,.53-4.05c.75-5.69.77-11.44,1.1-17.17a39.87,39.87,0,0,1,2.12-11.49,4.34,4.34,0,0,1,.28-.62c1.56-3.31,3.23-3.63,5.66-1,2.15,2.35,3.36,5.26,4.52,8.16a170.46,170.46,0,0,1,7,22.4,2,2,0,0,1,0,1.64c-1.17.16-1-.86-1.19-1.45-.9-3.3-1.82-6.59-2.85-9.85A92.62,92.62,0,0,0,175.12,196a14.34,14.34,0,0,0-1.87-2.64c-.39-.43-.81-.9-1.45-.58a2.52,2.52,0,0,0-1.49,2.14,1.12,1.12,0,0,0,.89,1.28c2,.51,2.93,2,3.78,3.67,2.68,5.27,4.09,11,5.7,16.61,2.45,8.6,4.56,17.3,7.95,25.6a26.29,26.29,0,0,0,1.46,3.08c.44.77.19-.34.44-.21.7-.25.68.3.79.7a6.83,6.83,0,0,0,.84,2.35c.38,1-.24,1.75-.6,2.56-.11.27-.46.6-.62.5-1.32-.86-1.09.35-1.3.94-.46,1.3-.74,1.41-1.94.65A4.19,4.19,0,0,0,186.66,252.08Z"/>
      <path class="cls-5" d="M139.69,81c-1.61-1.1-2.6-2.92-4.41-3.79-2.5-6.34-7.47-10.16-13.33-13.06a1.67,1.67,0,0,1-.79-.62c-6.74-6.92-13.46-13.86-19.84-21.12-6.94-7.9-13.66-16-19.8-24.53-.35-.49-.85-.91-.9-1.57a72.15,72.15,0,0,1,7.64-.15c.74,0,1.08.54,1.41,1.09a53.43,53.43,0,0,0,7.32,9c6.39,6.57,13.24,12.63,20.17,18.62a107.93,107.93,0,0,1,11.5,11.63,6.28,6.28,0,0,1-.26,2.69c-.07.56-.19,1.11-.23,1.69-.21,3.16.8,5,4.21,2.71.45-.29,1-.74,1.54-.23s.19,1,.07,1.45c-.29,1.16-.81,2.42.29,3.35s2.26.17,3.39-.11c.85-.22,1.82-1.15,2.53-.4s-.4,1.49-.7,2.23c-.74,1.82-.15,2.73,1.81,2.8,1.49.06,2.87-.74,4.38-.49,3.11,2.31,5.88,5,8.82,7.53q11.82,10.1,24.07,19.67Q202.51,118,227.67,135C238.3,142.14,249,149.15,260,155.73c1.66,1,2.62,2,2.3,4-.2,1.23.13,2.5-.16,3.73-5.45-2.28-10.6-5.16-15.81-7.93A534.26,534.26,0,0,1,155,94.23c-4.64-3.86-9.14-7.88-13.74-11.8-.17-.14-.53-1.28-.94-.1C139.39,82.21,140.2,81.31,139.69,81Z"/>
      <path class="cls-6" d="M213.25,249.87a.1.1,0,0,1,0,.14h0c-.32.36-.94.47-.87,1.12a.3.3,0,0,1-.17.25c-.39.32-.83.61-.93,1.17l-.32.22a4.75,4.75,0,0,0-1.11,1.66v0c-.4.33-.87.61-1,1.19a.15.15,0,0,1-.1.19,2.09,2.09,0,0,0-.93,1.14,48.51,48.51,0,0,1-4.22,5.36,2.32,2.32,0,0,0-.92,1.13l-.8.93a4.56,4.56,0,0,0-1.65,2v0c-.38.3-.74.62-1.09.95a16.34,16.34,0,0,1-4.69,3.86c-1.86.86-2.48.67-3.3-1.17a7.41,7.41,0,0,1-.64-2.62c1.09-2.45,1.8-5,2.64-7.56a239.93,239.93,0,0,1,11.69-29.11c2.7-5.57,5.68-11,9.89-15.67,1.51-1.66,3.09-3.36,5.58-3.55.58.65-.06,1.05-.36,1.44a137.17,137.17,0,0,0-11,17.39,11.82,11.82,0,0,0-1,2.27,10.19,10.19,0,0,1,1.59-3,5.87,5.87,0,0,0,1.14-1.65c.44-.62.86-1.26,1.24-1.92,2.58-4.16,5.26-8.25,7.9-12.37a6.17,6.17,0,0,0,.75-1.26c.29-.65.59-1.3,1.39-1.48a6,6,0,0,1,3.74.42c.74.81,0,1.35-.39,1.91a236.39,236.39,0,0,0-11.41,20.84c-.22.46-.4.94-.59,1.41a59.15,59.15,0,0,1,3.13-6.46,5.54,5.54,0,0,0,1.34-2c.36-.49.36-1.14.75-1.61a2,2,0,0,0,.69-1.56,2.9,2.9,0,0,1,.92-1.52,2.77,2.77,0,0,0,1.06-1.58,35.1,35.1,0,0,1,5.36-8.88,5.78,5.78,0,0,1,2.59,3.8c.06.21-.11.62.38.34a4.48,4.48,0,0,1-.38,4.31c-3.75,5.89-7.73,11.61-11.71,17.34q5.22-7.42,10.25-15c.32-.49.44-1.41,1.43-1.05a3.31,3.31,0,0,1,.38,1.72,20.36,20.36,0,0,1-3.45,9.1c-.25.43-.73.72-.79,1.27a61.48,61.48,0,0,1-4.57,6.32,3.16,3.16,0,0,0-1.17,1.36c-.35.46-.87.8-1,1.4-.36.45-.86.79-1,1.38-.35.46-.87.79-1,1.38a7.87,7.87,0,0,0-1.36,1.73c-.47.3-.53.86-.79,1.29h0C213.8,249,213.33,249.27,213.25,249.87Z"/>
      <path class="cls-4" d="M121.59,143.59l.34.41c0,.63-.56.66-1,.71-9.47,1-12,9.56-11,16.44.11.85.2,1.7.33,2.54.06.4.08.87-.32,1.08s-.85-.19-1.1-.52c-1.33-1.71-2.65-3.42-4.09-5-4-4.5-8.41-8.53-13.92-11.13-4.32-2-8.78-2.85-13.35-.75a12.08,12.08,0,0,0-6.77,7.5c-1.63,5-1,10,0,15,.19.91,1,2.22.19,2.69-1,.59-1.68-.82-2.37-1.5A25,25,0,0,0,63.28,167c-6.62-3.77-10.73-1.14-13.48,5.19a11.81,11.81,0,0,0-.69,3,3.66,3.66,0,0,1-.71,2.07c-.44,0-.59-.25-.68-.6A31.64,31.64,0,0,1,47.5,164c-.46.78-1.31,1.57-1.88,2.58-.19.34-.47.78-.91.6s-.47-.77-.4-1.21A14,14,0,0,1,46,161.53a16.8,16.8,0,0,1,4.86-5.86c.46-.31.88-.76,1.53-.52.4.77-.23,1.18-.64,1.58a38.17,38.17,0,0,0-4,4.55c.24-.12.4-.49.72-.67s.93-.6,1.42-.24.25.84.18,1.27A9.56,9.56,0,0,0,50,165a12.94,12.94,0,0,1,7.57-3,22.72,22.72,0,0,1,8.23,1,25.62,25.62,0,0,1,.22-4.95c2.59-13.42,15.43-17.56,25.57-13.34a36,36,0,0,1,9.54,6.26c2.55,2.22,2.7,2.14,3.84-.91,1.48-4,4.57-6.49,8.13-8.42,3-1.6,2-1.75.14-3.15a52.91,52.91,0,0,0-25.77-10.17c-14-1.64-26.74,2.09-38.69,9.15-.39.23-.79.45-1.19.65,6.88-3.48,14.07-5.71,21.91-5.23a16.26,16.26,0,0,1,3.52.63c.58.17,1.43.34,1.33,1.08s-.93.73-1.55.83c-.78.13-1.59,0-2.38.17A46.83,46.83,0,0,0,43.61,150c-.38.4-.67,1-1.38.76-.49-.81.21-1.32.55-1.81a32.26,32.26,0,0,1,19.78-13.54,49.18,49.18,0,0,1,6.39-1,44.22,44.22,0,0,0-15.55,4.31,76.68,76.68,0,0,0-11.9,7c-.55.39-1.19,1.25-1.92.67s0-1.38.24-2a22.14,22.14,0,0,1,7.34-8.57c6.27-4.59,13.41-7.12,20.86-8.87a59.08,59.08,0,0,1,19.44-1.1,51.82,51.82,0,0,1,18.4,5.1,42.22,42.22,0,0,1,15,12.12C121,143.29,121.2,143.57,121.59,143.59Z"/>
      <path class="cls-7" d="M262.16,163.46c0-1.93.5-4.14-.27-5.72s-3.08-2.16-4.72-3.17a869.65,869.65,0,0,1-71.82-49.42q-13.77-10.49-27-21.68c-4.24-3.61-8.56-7.12-12.57-11,.31-1,1-1.06,1.8-.69,6.86,6.33,14.09,12.22,21.38,18,4.22,3.35,8.33,6.86,12.72,10,4.88,3.45,9.64,7.06,14.63,10.36,2.44,1.61,4.88,3.22,7.3,4.86.16.11.23.35.34.53a8.25,8.25,0,0,0,1.3.72l.76.65c.39.07.57.66,1.07.44l5.77,4a9,9,0,0,0,1.29.71c3.87,2.3,7.72,4.66,11.49,7.09s8,4.8,12,7.09c7.54,4.29,15.18,8.46,23.06,12.15a2.64,2.64,0,0,1,1.85,2.9c-.15,4-.06,8-.06,12,0,.06,0,.14,0,.16A.7.7,0,0,1,262.16,163.46Z"/>
      <path class="cls-8" d="M48.38,177.15a17.88,17.88,0,0,1,3-8.74c3-4.25,7.38-4.47,11.58-2.19a20.94,20.94,0,0,1,4.2,2.9c1.21,1.11,2.26,2.39,3.55,3.46-.86-4.27-1.72-8.44-1.4-12.72.27-3.55,1-7,3.56-9.74,4-4.17,8.84-5.32,14.35-3.85,5.21,1.38,9.43,4.45,13.34,8a89.31,89.31,0,0,1,9.37,10.27c-.16-1.17-.37-2.34-.47-3.52-.46-5.11.19-9.91,4.15-13.67a12,12,0,0,1,7.08-3c.44-.06.93.11,1.27-.31,1.36.53,2.85.54,4.22,1.11,2.1.88,3.62,2.46,5.24,3.94a.23.23,0,0,1,.15.31.08.08,0,0,1,0,0c5.15,7.29,4.26,17.09-.63,24a3.83,3.83,0,0,0-.79,2.5A39.5,39.5,0,0,1,128.53,190c-3.1,9.28-9.42,15.74-17.65,20.59l-1.31.77c-.1.33-.27.53-.65.39a77.68,77.68,0,0,1-7.86,2.73c-.66-.31-1-.76-.65-1.51a36.06,36.06,0,0,0,11.14-4.62c8.52-5.7,14.7-13.09,16.49-23.49.48-2.78,1-5.62.35-8.48a5.07,5.07,0,0,1,1.14-4.15c4.43-6.39,5.3-13.11,1.7-20.15a11.38,11.38,0,0,0-5.11-5.13c-6.84-3.33-14.61,1.51-15,9.36a31.29,31.29,0,0,0,1,10.33,4,4,0,0,1,.21,1.18,1.18,1.18,0,0,1-.74,1.23c-.52.19-.88-.16-1.15-.54-.84-1.15-1.63-2.33-2.49-3.47-4.55-6.07-9.67-11.54-16.36-15.3-4-2.22-8.19-3.22-12.65-1.7a10.92,10.92,0,0,0-7.48,8.41c-1.23,5.56-.23,11,1.23,16.36,0,.16.12.32.16.49.17.84.94,1.88-.09,2.48s-1.65-.55-2.3-1.2a11.83,11.83,0,0,0-2.79-2.9c-.81-.54-1.41-1.33-2.21-1.89a17,17,0,0,0-5.8-3.16,5.5,5.5,0,0,0-5.79,1.4c-3.85,3.83-4.76,9.4-2.37,15,.58,1.36,1.27,2.66,2,4a10.13,10.13,0,0,0,1,1.63c.42.5.78,1,1.2,1.55q2.13,2.67,4.52,5.12c.49.51,1,1,.86,1.76-.3,1.58-.08,3.2-.37,4.76-.45,2.48.11,4.88.44,7.29a1.91,1.91,0,0,0,2,1.88,1.86,1.86,0,0,0,.42-.05c5-.45,9.41-1.79,11.57-7a43.72,43.72,0,0,1,3.49-6.46c2.82-4.54,7.22-6.18,12.26-6.75,2.32-.26,4.64-.37,7-.67,4.32-.56,7.21-3.14,9.72-6.38.54-.69.56-1.2-.29-1.61a3.51,3.51,0,0,1-.85-.57c-.34-.31-.72-.62-.39-1.16a1,1,0,0,1,1.17-.5,3.38,3.38,0,0,1,.81.28,11.3,11.3,0,0,0,4.69,1.47c.73,0,1.37.42,1.27,1.29a1,1,0,0,1-1.18.89.9.9,0,0,1-.27-.07c-2-.6-3,.67-4,2.06a1.77,1.77,0,0,1-.31.41c-3.19,2.33-4.4,5.72-5.17,9.4a12.62,12.62,0,0,1-2.33,4.92c-.33.44-.53,1.22-1.39.9a2.25,2.25,0,0,1-.19-1.86c.83-2,2.06-3.9,2.5-6.09a6.17,6.17,0,0,0,.25-2.22c-2.47,1.14-5,1.1-7.51,1.45-2.09.25-4.19.43-6.27.76a10.71,10.71,0,0,0-8.11,5.88c-.78,1.46-1.5,2.94-2.19,4.44-.33.66-.65,1.32-1,1.95-.65,1-.25,1.45.85,1.43,3.22-.07,6.45.26,9.64-.41a2.76,2.76,0,0,1,2.3.12,1,1,0,0,1-.28,1.32,11.59,11.59,0,0,1-5.39,1c-2.38-.08-4.76,0-7.42-.05a12.78,12.78,0,0,0,4.38,2.48,27.29,27.29,0,0,0,6.58,1.73,3.12,3.12,0,0,1,1.91.62c.31.39.56.78.16,1.25-5.53-.63-10.91-1.69-15.14-5.72-.67-.64-1-.11-1.44.15a19.48,19.48,0,0,1-10.33,3,2.39,2.39,0,0,1-2.67-2,20.51,20.51,0,0,1-.75-4.54c0-.86-.33-1.09-1.18-1.23-7.74-1.28-12.28-6.62-12.29-14.38,0-3.37,1.55-5,5-5.18A26.81,26.81,0,0,0,48.77,181a2.55,2.55,0,0,0-.33-1.62C48.27,178.61,47.71,177.9,48.38,177.15Z"/>
      <path class="cls-9" d="M50.39,245.55c1.71-.4,3.36.19,5,.44,8.61,1.31,17.22,2.65,25.86,3.73,7.63,1,15.24,2,22.87,3a22,22,0,0,1,3,.35c1.08.29,1.65-.38,2.16-1.22a72.91,72.91,0,0,1,7.15-10.37c2.46-2.81,4.84-5.76,8.42-7.33a2.52,2.52,0,0,1,3.14.53c8.66,7.7,17.57,15.06,27.78,20.71,2.64,1.47,4.51,4,6.51,6.23,3.08,3.44,6.52,6.52,9.63,9.92,2.92,3.19,5.95,6.28,9,9.31a2.54,2.54,0,0,1,.65,2.64c-1.47,6.69-4.21,12.95-6.6,19.32-1.9,5.05-4,10-5.54,15.2-.13.44-.24.76-.73.77.33-3,1.61-5.66,2.62-8.43,2.77-7.57,5.82-15,8.47-22.66,1.25-3.61,1.23-6.22-2-9.1-5.44-4.91-10.32-10.46-15.43-15.73-.07-.07-.2-.08-.49-.17a63.52,63.52,0,0,1,.68,6.89c-.05,9.2-2.56,17.38-9.61,23.76a58.73,58.73,0,0,1-25.29,13.16c-10.22,2.65-19.19-.09-27.57-5.89A138.23,138.23,0,0,1,86.6,289.71c-4.59-4.12-9.77-5.06-15.56-3.63a38.89,38.89,0,0,0-9.72,3.63c-5.3,3-9,7.27-10,13.47-.69,4.45,1,8.14,4,11.36.84.92,1.81,1.72,2.73,2.58a.58.58,0,0,1-.1.74,1.6,1.6,0,0,1-1.41-.47c-4.07-3.52-6.68-7.8-6.49-13.35.13-4.19,2.15-7.63,4.87-10.67,4.91-5.5,11.52-7.5,18.43-8.86,6.4-1.26,11.19,1.75,15.73,5.71a98.51,98.51,0,0,0,16.57,12.31,29.28,29.28,0,0,0,22.63,2.65,58.94,58.94,0,0,0,21.9-10.86,28.3,28.3,0,0,0,11.06-19.9A39.64,39.64,0,0,0,161,264a7.44,7.44,0,0,0-2.51-4.71,27.26,27.26,0,0,0-3.69-3.29c.36,1.2.72,2.11,1,3,2.3,7.25,2.6,14.43-.53,21.55A28,28,0,0,1,145.91,292a52.67,52.67,0,0,1-20.64,9.11c-8.58,1.8-16.35-.3-23.54-5-3.67-2.42-7-5.28-10.55-7.87-4-2.94-8.18-5.61-13.26-6.37a17.53,17.53,0,0,0-5.6,0c-1.13.13-2.2.54-3.31.77a14.49,14.49,0,0,0-5.48,1.82c-4.67,2.19-9.07,4.8-12.25,9a14.3,14.3,0,0,0-2.63,12.27c1.14,5.08,3.84,9.33,7.22,13.19.57.81,1.39,1.55.71,2.68-4-4.38-7.42-9.18-8.93-15.07-1.42-5.56-.33-10.67,3.56-14.77,6.54-6.9,14.55-11,24.24-11.22,4.82-.09,9.07,1.83,13.06,4.38s7.37,5.53,11.09,8.24a42.55,42.55,0,0,0,9.89,5.65,27.83,27.83,0,0,0,16,1.1,49.49,49.49,0,0,0,19.49-8.64c9.89-7.3,13.52-17.82,10.34-29.69-.11-.39-.23-.77-.32-1.16a12.55,12.55,0,0,0-6.1-8.44c-7.59-4.63-14.35-10.46-21-16.38a2.66,2.66,0,0,0-3.61-.36,26.68,26.68,0,0,0-7,6.44,74.09,74.09,0,0,0-7.46,10.8,2.21,2.21,0,0,1-2.54,1.33c-8.52-1.09-17.07-2-25.58-3.22-10.65-1.47-21.27-3.12-31.91-4.7C49.78,245.37,50,245.37,50.39,245.55Z"/>
      <path class="cls-10" d="M97.62,238.05a14.38,14.38,0,0,0,5.43-4.77,25.26,25.26,0,0,0,4.54-8.91,11,11,0,0,1,.51-1.23l.47,0c0,1.54.11,3.09,0,4.61-.72,8-4.6,13.88-12.15,17a20,20,0,0,1-6.78,1.43c-9.87.48-19.27-1.68-28.4-5.24a4.73,4.73,0,0,1-2.57-1.56c1.48-.46,2.65.87,4.08.69a.6.6,0,0,1,.7,0c.86.71,1.94.57,2.93.72a59.87,59.87,0,0,0,29.5-2.59C96.41,238.07,97,237.59,97.62,238.05Z"/>
      <path class="cls-9" d="M48.38,177.15a5.26,5.26,0,0,0,.38,2.38c.12.32.26.64-.29.67-1.65-4-2.19-9-1.53-14.74-1.41,1.49-1.84,3.33-3.14,4.94a12.1,12.1,0,0,1,.68-6.37c.61-2,1.88-3.7,2.8-5.57C44,161.26,42.15,165,40.1,168.7c-.54-2.07,0-4,.58-5.82,1.89-6.61,6-11.63,11.36-15.78.81-.62,1.65-1.21,2.47-1.81.07-.12.22-.24.06-.37a.36.36,0,0,0-.42,0c-5.3,2.53-9.4,6.53-13.22,10.86-.83.94-1.6,1.93-2.41,2.88-.28.33-.56.91-1.07.58s-.07-.86.07-1.22c2.34-5.75,5.43-11,10.11-15.2.29-.26.6-.48,1-.76-.59-.48-.87-.1-1.14.08-2.08,1.38-4.14,2.81-6.25,4.16-.7.45-1.5,1.56-2.33.8s.05-1.72.4-2.52a22.68,22.68,0,0,1,7.83-9.28,54.27,54.27,0,0,1,22.05-9.06c12.45-2.36,24.71-1.57,36.33,4a39.45,39.45,0,0,1,16.11,13.32c-.53.62-.75.09-1-.26-7.43-9.66-17.51-14.83-29.29-16.74A61.35,61.35,0,0,0,52,133.1c-4.57,2.4-8.66,5.44-11.26,10.1a7.05,7.05,0,0,0-1.17,3.29c4.89-3.29,9.52-6.59,14.77-8.74s10.55-4,16.3-3.69l.09.48c-1.22.17-2.44.38-3.67.51A32.63,32.63,0,0,0,42.32,150.3a1.72,1.72,0,0,0-.11.5c0,.08,0,.16,0,.24-.61,1.48-1.63,2.74-2.26,4.25,5.73-6.8,12.43-12.08,21.26-14.15.59-.14,1.35-.5,1.61.33.22.68-.51.95-1,1.18A51.15,51.15,0,0,0,51,149.45a28,28,0,0,0-9.31,14.23c2.12-3.73,5.05-7.49,9.57-9.7.75-.37,1.93-1.2,2.43.48a1.36,1.36,0,0,1-1.2.76,16.41,16.41,0,0,0-7.79,11.66c1.26-1.12,1.85-2.81,3.39-3.91a33.44,33.44,0,0,0-.68,8.41C47.55,173.32,47.44,175.33,48.38,177.15Z"/>
      <path class="cls-9" d="M139.69,81c.56.28.14,1,.6,1.32,1.13,13.13,4.79,25.68,8.76,38.15,2.39,7.53,5,15,8.09,22.26,1.08,2.52.81,5.19.4,8-1.12-.52-.56-2-1.82-2.25a15.74,15.74,0,0,1-1.4,5.39c-.23.45-.31,1.34-1.06,1.06-.59-.23-.14-.88,0-1.35l.09-.33c.09-.78.41-1.78-.39-2.2s-1.17.66-1.53,1.17c-6,8.38-10.05,17.61-9.51,28.05,1,18.39,8.66,33.83,21.88,46.56a4.54,4.54,0,0,0,.52.45,1.89,1.89,0,0,0,.48.13c.37-4.78,1.23-9.48,1.31-14.27.1-5.58.27-11.16,1.68-16.6a11.43,11.43,0,0,1,2.21-4.76c1.38-1.61,2.69-1.7,4.21-.22a21.8,21.8,0,0,1,4.54,7.16c4.19,9.45,6.69,19.43,9.15,29.42,1.46,5.9,2.81,11.84,3.87,17.83.56.61.92,1.25.24,2-.37.18-.58.18-.66-.35a7.48,7.48,0,0,0-.65-2.74,2.92,2.92,0,0,1-.78-1.83c-1.15-5.09-2-10.25-3.64-15.23-.28-.87-.77-1.83-.05-2.76a59.32,59.32,0,0,0-2.31-9.39,123.34,123.34,0,0,0-6-17,19.94,19.94,0,0,0-4.51-6.77,1.51,1.51,0,0,0-2.12-.32,1.71,1.71,0,0,0-.35.36c-2.2,2.2-2.68,5.1-3.15,7.94a123.58,123.58,0,0,0-1.1,15.26,114,114,0,0,1-1.31,12.49c-.05.36.16.9-.32,1s-.77-.39-1.08-.68a71.72,71.72,0,0,1-11.88-14,5.27,5.27,0,0,0-.43-.51c-.92-.38-1.21-1.29-1.65-2.06-.65-1.12-1.3-2.24-2-3.31-.37-.53-.93-1.06-.42-1.82-.13-1.64-1.18-2.92-1.72-4.41a85.13,85.13,0,0,1-4.52-18.61c-1-8.38,1.38-15.92,4.62-23.38a21,21,0,0,0,1.62-3.55.7.7,0,0,1,.35-.68,37.91,37.91,0,0,0,3.11-4.22c1.35-1.72,2.09-1.71,3.27.17.69-.85.36-1.85.47-2.79.06-.54-.3-1.25.31-1.57s1,.39,1.4.71c.13.09.27.16.57.34a10.28,10.28,0,0,0-.6-5.35,298.07,298.07,0,0,1-10.64-30.58,196.11,196.11,0,0,1-4.89-20A50.63,50.63,0,0,1,139.69,81Z"/>
      <path class="cls-7" d="M128.39,56.39c-2.88-2.83-5.78-5.64-8.63-8.5-4.39-4.4-9.42-8.06-13.88-12.37-6-5.77-12.3-11.2-16.73-18.36a1.66,1.66,0,0,0-1.7-.79l-6.83-.05c3-.57,6.11.1,9.12-.34,3.38-.49,5.44.87,7.48,3.53a301.07,301.07,0,0,0,24,27.1c2.58,2.65,5.05,5.4,7.87,7.8a1.4,1.4,0,0,1-.55,1.91A.61.61,0,0,1,128.39,56.39Z"/>
      <path class="cls-11" d="M192,248c.26-.71-.36-1.32-.24-2,1.62.9,1.35-.9,1.95-1.51.86.78.39,2,1.07,2.67.83-.05.3-.88.69-1.19h0c.52-.44.43-1.14.69-1.69,4.24-10.13,8.48-20.26,15.91-28.6a23.8,23.8,0,0,1,8.64-6.28c4.78-2,8.37-.26,9.07,4.79.88,6.46.62,12.87-3.61,18.42-.08.14-.16.14-.24,0,.26-1.49,1.44-2.53,1.93-3.91a27.17,27.17,0,0,0,1.44-5.34c-.38-.52.19-1.22-.32-1.71l-8.15,11.92c-1,1.54-2.1,3.09-3.18,4.62-.23.33-.38.87-1.11.65a5.85,5.85,0,0,1,1.39-2.41c3.78-5.32,7.44-10.71,10.93-16.23a4,4,0,0,0,.52-4,29.14,29.14,0,0,1-1.13-3.54c-.38-1-.89-1.05-1.67-.56a66,66,0,0,0-5.08,8.87c-.49.51-.6,1.26-1.13,1.74a2.66,2.66,0,0,0-.93,1.37,2.47,2.47,0,0,1-.79,1.71c-.19.45-.05,1-.57,1.35-.59.6-.65,1.55-1.37,2L213,236.91c0-2.45,1.34-4.42,2.34-6.48s2.2-4.24,3.34-6.34,2.28-4.19,3.48-6.26,2.48-4.07,3.73-6.11c-.38-.53.71-1.35-.31-1.74a2,2,0,0,0-2.59.48,5,5,0,0,1-1.19.9c-.74.16-.55,1-1,1.36-.27.47-.77.77-.94,1.3-2.8,3.88-5.32,7.95-7.79,12a15,15,0,0,1-1.11,1.8c-.52.59-.6,1.44-1.19,2l-2.12,4-.47-.28a109.76,109.76,0,0,1,13.24-21.84c-.12-.3.21-1-.66-.56a23.77,23.77,0,0,0-6.42,4.76,58.79,58.79,0,0,0-8.45,12.18,122.7,122.7,0,0,0-10.17,25c-.52,1.87-1.27,3.67-1.73,5.55a2.48,2.48,0,0,1-.24.64c-.23.47-.52,1-1.13.81s-.47-.84-.33-1.3c.59-1.84,1.13-3.71,1.69-5.56.43-1.43,1.3-2.79.73-4.52-.33,1.68-1.66,2.66-2.24,4.08a1,1,0,0,1-.89.72c-.62,0-.35-.71-.62-1a3,3,0,0,1-1,2.73c-.86,0-.5-1-.92-1.29.28.52.33,1.15.65,1.68.91,3.4,1.43,6.88,2.22,10.3a2,2,0,0,1-.19,1.49c.87,4.71,2,5.16,5.73,2.24,1-.77,1.84-1.68,2.76-2.53a.24.24,0,0,1,.1.26c0,.1-.06.14-.09.14a12.93,12.93,0,0,1-4.45,3.86c-2.16,1.22-3.45.81-4.07-1.61-1-4-1.84-8.06-2.75-12.09-.42-1.87-.86-3.73-1.29-5.6,1.14-.9,1.3.77,2.22.75.6-.92.53-2.14.87-3.24.74.15.61,1,1.2,1.3A6.15,6.15,0,0,0,192,248Z"/>
      <path class="cls-12" d="M168.68,318.78c1.63.66,2.19,2.28,3.21,3.87.26-.88.39-1.5.63-2.07s.45-1.06,1-.92.26.77.36,1.18.43.29.64,0a2.32,2.32,0,0,1,1.08-2.08.45.45,0,0,1,.63,0l0,0c-.05,2.91-1.1,5.68-1.18,8.6a99.07,99.07,0,0,1-5.95,31.73,33,33,0,0,1-5.07,9.81,8.77,8.77,0,0,1-3.18,2.52c-1.94.86-3.26.36-4.2-1.56a16.41,16.41,0,0,1-1.21-6.84,63.12,63.12,0,0,1,5.57-27.37Q164.72,327.17,168.68,318.78Z"/>
      <path class="cls-12" d="M128.39,56.39l.69-2a15.79,15.79,0,0,1,1.94-3.2c2.19-2.58,5-3.21,8.19-2.6,2.21.42,2.82,1.53,3,4.75,2.71-1.44,5-.74,6.86,1.46s1.28,4.33-.21,6.66c1.38,0,2.59,0,3.63.83,2.7,2.15,2.61,5.49-.23,7.45-1.43,1-3.17,1.22-4.68,2a3.39,3.39,0,0,0-1.8.69c-1.28.21-2.56.48-3.85.61s-2.39.16-3.05-1,.06-2.08.59-3c.22-.39.47-.77.78-1.28-1.12-.12-1.87.61-2.75.82-1.26.31-2.56,1-3.7-.13s-.61-2.41-.29-3.69c.1-.42.46-.8.21-1.43-.88.49-1.71,1.05-2.61,1.44-1.89.82-3.2-.05-3.4-2.12S128.24,58.48,128.39,56.39Z"/>
      <path class="cls-13" d="M48.77,225.86l-.05,0a21,21,0,0,1,1.63,5.86.82.82,0,0,1-.4.92c-1.27-.26-1.63-1.49-2.36-2.3a19.44,19.44,0,0,0-2.37-2.43c-.85-.66-1.47-.7-2,.42s-.85,2.34-1.29,3.51c-1,2.56-2.44,4.73-5.31,5.5-1.88-.79-2.27-1.72-1.34-3.37a19.79,19.79,0,0,0,1.82-4.9c.32-1.38.21-2.82.59-4.2.6-2.18,1.42-4.2,3.63-5.27,2.81-.26,4,2,5.59,3.63a7,7,0,0,1,.57.85C48,224.64,48.29,225.31,48.77,225.86Z"/>
      <path class="cls-14" d="M191.34,287.68c1.23-1.42.94.47,1.5.68.56-1.05,0-2.11-.06-3.14.74-.16,1,.48,1.52.79a4.36,4.36,0,0,0-.57-3.41c-6-10.35-11.46-21.06-18.84-30.56a20,20,0,0,0-2.42-2.85,2.65,2.65,0,0,1-.8-3.39,112.45,112.45,0,0,0,5.14-18,21,21,0,0,0,.17-2.38c0-.35.06-.77.44-.83s.49.37.6.69c.64,1.82,1.31,3.64,1.95,5.46q3.34,9.56,6.67,19.14c.16.45,1,1.08-.1,1.5l-7.84-21.94-.88-2.47c-.72,2.95-1.27,5.69-2,8.36-1.1,3.76-2.37,7.47-3.56,11.2-.17.51-.46.95.09,1.52,5.38,5.58,9.33,12.18,13.26,18.77,3,5,5.78,10.05,8.64,15.09,1.28,2.27,1.41,6,.28,7.6-.63-.56-.07-1.45-.62-2.11-.51,2-.42,4.12-2.05,5.93-.43-1.6.43-2.84.1-4.36-1.75,3.31-3.4,6.47-5.06,9.62-.34,0-.44-.18-.49-.45a53.64,53.64,0,0,1,3.18-7.09C190.12,289.93,190.23,288.53,191.34,287.68Z"/>
      <path class="cls-15" d="M56.58,321.58a3.34,3.34,0,0,0-1-2.45c.15-1.05.23-1.17,1.45-.79.72.22.86,0,.91-.56,0-.22,0-.44.07-.66,1.64,1,3.28,2,4.94,3a40.11,40.11,0,0,0,9.3,4.19A22.58,22.58,0,0,1,80,328.22c1.78,1.37,1.85,2.2.38,3.94-2.58,3.07-6,3.61-10,1.48a34.65,34.65,0,0,1-7.24-5.38A65.57,65.57,0,0,1,56.58,321.58Z"/>
      <path class="cls-16" d="M131.52,149.41c-.05-.12-.09-.24-.13-.36,2.21-9.13,2.06-18.43,1.93-27.71-.15-10.31-.89-20.6-1.84-30.86q-.53-5.79-1.08-11.57c-.07-.55-.42-1.31.72-.94.45,4.85.94,9.69,1.35,14.54.29,3.5.49,7,.73,10.51.38,5.72.46,11.46.79,17.17a165.56,165.56,0,0,1-.41,19,47.07,47.07,0,0,1-1.36,9.22C132.11,148.87,132.18,149.39,131.52,149.41Z"/>
      <path class="cls-12" d="M131.12,78c-.85-.15-.52.6-.72.94-.12-1-.76-1.3-1.67-1.53-3.61-.91-7-2.28-9.64-5.08a6,6,0,0,1-1.8-5.12c.34-2.48,1.32-3.4,3.87-3.64,3.56.75,6.11,3.13,8.67,5.45a31.62,31.62,0,0,1,4.1,4.32,5.43,5.43,0,0,1,1.35,3.91C134.14,78.82,132.53,77.86,131.12,78Z"/>
      <path class="cls-6" d="M17.61,239.76v-.37c-.6-3.75,1.81-6,5.62-5.27a20.65,20.65,0,0,1,10.5,5.28A3,3,0,0,1,34.89,241a.84.84,0,0,1-.14.51c-.84.56-1.59.11-2.34-.23a10.09,10.09,0,0,0-1.83-.76,3.93,3.93,0,0,1-1.58-.79,6.26,6.26,0,0,0-2.35-1.17,16.77,16.77,0,0,0-3.11-.9c-2.45-.56-3,0-2.47,2.45-.13.86.62,2-.88,2.4a.14.14,0,0,1-.19-.08v0C19.32,241.44,18.22,240.81,17.61,239.76Z"/>
      <path class="cls-17" d="M100.44,213.05l.62,1.41c.83,2.13,2,4.16,1.77,6.6a9,9,0,0,1-1.13,3.86c-1.63,2.74-4.28,3.2-6.83,1.2-.12-.34.08-.47.35-.56a1.1,1.1,0,0,1,.67.07c2.92,1.69,5.31-.92,5.69-3.8a8.17,8.17,0,0,0-.7-4.84c-.75-1.48-1.28-3-1.89-4.57a12,12,0,0,1-.78-3.1c0-2.71-.76-5.42,0-8.15.07-.3.09-.74-.26-.91a.85.85,0,0,0-.93.29,12.44,12.44,0,0,1-3,2.2c-2.84,1.37-3.49,4-3.71,6.77-.38,4.74,1.07,9,3.26,13.17a5,5,0,0,1,.89,2c-.09.29-.21.51-.57.39-2.24-2.39-3.08-5.45-4-8.46-.15-.48-.27-1-.4-1.47l-.3-1.05c-1-1.57-.31-3.3-.47-4.95A1.73,1.73,0,0,1,89,208l.36-1c-.4-2.47,1.18-4,2.87-5.14,1.3-.88,2.7-1.63,3.93-2.63a3.14,3.14,0,0,1,1.86-.78c.72,0,1.38.07,1.32,1.05l0,2a1.16,1.16,0,0,1,.24,1,27.15,27.15,0,0,0,.57,7.63C100.13,211.05,100.89,212,100.44,213.05Z"/>
      <path class="cls-18" d="M97.62,238.05a57.22,57.22,0,0,1-19.56,3.83,64.34,64.34,0,0,1-13.64-1.07c-.45-.09-.93,0-1-.67a60.59,60.59,0,0,0,33-2.5,4.31,4.31,0,0,0,1.64-1.19c4.77-5,8.57-10.42,9.25-17.6a56,56,0,0,1,1.61-7.12l.65-.39a.54.54,0,0,1,.19.73c-1.21,3.31-1.62,6.79-2.31,10.22-1.08,5.33-4.21,9.56-7.76,13.52C99,236.57,98.31,237.3,97.62,238.05Z"/>
      <path class="cls-19" d="M50.11,231.86c.08-2.12-1.19-3.92-1.39-6,1.47,1.76,1.68,4,2,6.07a7.4,7.4,0,0,0,4.48,5.7.25.25,0,0,1,.09.27c0,.09-.06.13-.09.13-1.64,0-3-.88-4.6-1.16-.33-.06-.65-.3-.92.05s.08.62.26.89L51.35,240c.52.8.45,1.28-.65,1.19h-.34c-2.13,0-2.13,0-1.21,1.9.11.26.2.53.29.8l-.24.11a3,3,0,0,1-1.59-3.2c.72-.62,1.65-.19,2.59-.53-.49-1.15-1.3-2.11-1.85-3.19-.21-.4-.55-.84-.29-1.26s.91-.23,1.4-.18,1,.43,1.65.32c-.2-.75-.93-1-1.36-1.47-.27-.5.18-.87.24-1.31S50.44,232.32,50.11,231.86Z"/>
      <path class="cls-20" d="M186.55,298.28l.3.33c-3.33,6.84-6.95,13.53-10.57,20.21l-.65-.05,4.07-8.18c.16-1.63,1.17-2.9,1.89-4.27,1.23-2.36,2.65-4.61,3.82-7C185.64,298.86,185.77,298.19,186.55,298.28Z"/>
      <path class="cls-21" d="M29.83,254.4c.49.62,1,1.25,1.45,1.88,1.5,2,1.5,2-.82,3s-2.34,1-3.33-1.32c-.44-1-.93-2.05-1.39-3.07a1.18,1.18,0,0,1,.67-.57,2.3,2.3,0,0,1,.42-.14,6.59,6.59,0,0,0,1.06-.27,4.39,4.39,0,0,1,1.29-.29C29.69,253.63,29.69,254.07,29.83,254.4Z"/>
      <path class="cls-22" d="M26.5,254.54l-.76.32c-3-3-4-6.94-4.77-11-.16-.37-.2-.7.32-.79a1.37,1.37,0,0,1,.67.79c.6,2.12,1.08,4.27,1.89,6.34C24.49,251.85,25.85,253,26.5,254.54Z"/>
      <path class="cls-23" d="M28.86,215.22l3.1,1c.28.16.61,0,.89.17a34,34,0,0,1,4.23,3c.23.21.44.44.67.64.5.48,1.21.83,1.14,1.69a.78.78,0,0,1-.57.42c-1.29-.35-1.92-1.53-2.92-2.26-2.1-1.55-4.18-3.11-6.78-3.74a.77.77,0,0,1-.5-.43C28.16,215.17,28.62,215.38,28.86,215.22Z"/>
      <path class="cls-24" d="M42.57,212.78a3.88,3.88,0,0,0,.83-.13c1.64-.65,2.37-.15,2.75,1.62.27,1.22,0,1.64-1.07,1.85-.5.1-1,.28-1.47.42-.7.1-.67-.52-.9-.9a2.13,2.13,0,0,1-.13-.45c0-.22-.06-.45-.09-.68s-.17-.74-.19-1.12A.76.76,0,0,1,42.57,212.78Z"/>
      <path class="cls-25" d="M42.57,212.78v.61a1.43,1.43,0,0,1-.88.48,28,28,0,0,0-7.87,2.5,2.1,2.1,0,0,1-1.16.16c-.28,0-.56-.05-.71-.34A23.38,23.38,0,0,1,42.57,212.78Z"/>
      <path class="cls-26" d="M30.51,240.12c1.5.11,2.56,1.58,4.17,1.35a.27.27,0,0,1,.4,0h0c-.05.62-.54.62-1,.68a2.4,2.4,0,0,0-2.18,2.6,2.5,2.5,0,0,0,.27.93c.08.2.21.38.13.62a.45.45,0,0,1-.46,0,.83.83,0,0,0-.89.36,1.24,1.24,0,0,1-.63-.8,5.32,5.32,0,0,1,.27-2.24A4,4,0,0,0,30.51,240.12Z"/>
      <path class="cls-27" d="M30.61,245.93c.32.15.3.47.37.74-.31,2.59-1.16,5.09-1.15,7.73l-.71-.65a1.58,1.58,0,0,1-.3-1.28c.28-1.78.55-3.56,1-5.31A1.72,1.72,0,0,1,30.61,245.93Z"/>
      <path class="cls-28" d="M55.22,238.05v-.4l7.51,2.49c-1.49.52-2.68-.68-4.08-.7C57.43,239.16,56.13,239.1,55.22,238.05Z"/>
      <path class="cls-29" d="M19.63,225.36a2.83,2.83,0,0,0,.89-3,6.15,6.15,0,0,1,.23-2.13c.31,0,.45.18.56.43a12.63,12.63,0,0,1,.2,1.94c.32.6.76.24,1.16.14a2,2,0,0,1,1.76.12.53.53,0,0,1,.07.46A38.92,38.92,0,0,0,20,225.84C19.69,225.8,19.47,225.72,19.63,225.36Z"/>
      <path class="cls-30" d="M21.05,220.66l-.3-.38a7.53,7.53,0,0,1,5.07-5.08c.24.09.45.19.4.51-1.85,1.35-3.74,2.68-4.73,4.87A.42.42,0,0,1,21.05,220.66Z"/>
      <path class="cls-31" d="M47.38,224.35a17.78,17.78,0,0,0-2.77-3.23,3.9,3.9,0,0,0-3.07-1.24c-.1-.42.2-.54.5-.65h.23c2.61.67,4.08,2.66,5.46,4.75C47.86,224.32,47.68,224.39,47.38,224.35Z"/>
      <path class="cls-32" d="M50.39,245.55l-.61.31-3.8.36a.41.41,0,0,1,0-.44,1.84,1.84,0,0,1,1.65-.61,1.82,1.82,0,0,0,1.77-1.25l.06-.08A2.42,2.42,0,0,1,50.39,245.55Z"/>
      <path class="cls-33" d="M46,245.92v.3l-5.48,1a.56.56,0,0,1,0-.56A5.86,5.86,0,0,1,46,245.92Z"/>
      <path class="cls-34" d="M31.87,246.31l.4-.06a8.55,8.55,0,0,1,5.35.47.41.41,0,0,1,.17.51A14.74,14.74,0,0,1,31.87,246.31Z"/>
      <path class="cls-35" d="M18.29,231.26l0-2.44a.33.33,0,0,1,.42,0c.25,1.51,1.81,1.08,2.62,1.76-.61,1-1.65,1-2.64,1.19C18.47,231.71,18.25,231.59,18.29,231.26Z"/>
      <path class="cls-36" d="M43,215.48c.36.26.14.87.62,1.06-.44.9-.89,1.79-1.34,2.68h-.09a.49.49,0,0,1-.7,0A7.31,7.31,0,0,1,43,215.48Z"/>
      <path class="cls-37" d="M21.34,243.19l-.37.71c-.27-.45-.31-1-.78-1.35.93-.8.29-1.86.47-2.78,0-.48.18-.49.51-.24C21.53,240.74,22.17,241.93,21.34,243.19Z"/>
      <path class="cls-38" d="M18.63,228.82h-.3a4.77,4.77,0,0,1,1.3-3.46l.31.37c.32.6-.25,1-.37,1.47s-.19.91-.37,1.33C19.07,228.75,18.92,228.92,18.63,228.82Z"/>
      <path class="cls-39" d="M17.61,239.76c.89.81,2,1.44,2.38,2.69a7.09,7.09,0,0,1-2.7-2.68Z"/>
      <path class="cls-40" d="M18.29,231.26l.37.33c-.05.88-.46,1.39-1.4,1.34l-.33-.35A2.55,2.55,0,0,1,18.29,231.26Z"/>
      <path class="cls-41" d="M214.93,247.28c.1-.85.74-1.27,1.35-1.71.1-.16.2-.17.3,0L215,247.69a.24.24,0,0,1-.12-.31A.19.19,0,0,1,214.93,247.28Z"/>
      <path class="cls-42" d="M200.2,266.41a2,2,0,0,1,1.65-2A6.54,6.54,0,0,1,200.2,266.41Z"/>
      <path class="cls-43" d="M47.38,224.35l.35-.38a2.79,2.79,0,0,1,1,1.88C48,225.64,47.74,225,47.38,224.35Z"/>
      <path class="cls-29" d="M26.22,215.53l-.4-.33a7.24,7.24,0,0,1,3,0l-.71.27A1.44,1.44,0,0,1,26.22,215.53Z"/>
      <path class="cls-44" d="M37.79,247.23V247a2,2,0,0,1,2.7,0,1.77,1.77,0,0,0,0,.23A6.51,6.51,0,0,1,37.79,247.23Z"/>
      <path class="cls-45" d="M95.26,225.72l-.39.4a2.32,2.32,0,0,1-1.06-1l.41-.4C95,224.63,95.3,225,95.26,225.72Z"/>
      <path class="cls-46" d="M219.37,241.46a1.48,1.48,0,0,1,1.29-1.36c-.42.58-.85,1.15-1.28,1.73-.1-.08-.14-.16-.11-.24S219.34,241.46,219.37,241.46Z"/>
      <path class="cls-47" d="M209.78,254.44a1.59,1.59,0,0,1,1.11-1.66A2.84,2.84,0,0,1,209.78,254.44Z"/>
      <path class="cls-48" d="M216.58,245.58h-.3a1.72,1.72,0,0,1,1-1.37c.09-.16.19-.16.27,0Z"/>
      <path class="cls-49" d="M219.37,241.46v.37l-1,1.35c-.1-.08-.14-.15-.1-.22s.06-.12.09-.12A1.72,1.72,0,0,1,219.37,241.46Z"/>
      <path class="cls-49" d="M212.31,251.14c-.46-.95.35-.92.87-1.12Z"/>
      <path class="cls-50" d="M196.12,244.24c0,.66.1,1.36-.69,1.69A2.86,2.86,0,0,1,196.12,244.24Z"/>
      <path class="cls-51" d="M195.45,245.92c-.23.4.56,1.38-.69,1.19Z"/>
      <path class="cls-52" d="M205.25,116.24a1.16,1.16,0,0,1-1.3-.72C204.61,115.36,204.93,115.8,205.25,116.24Z"/>
      <path class="cls-53" d="M218.34,242.84c0,.11,0,.22,0,.34l-.76,1h-.27A1.67,1.67,0,0,1,218.34,242.84Z"/>
      <path class="cls-54" d="M54.15,145c.33-.44.81-.5,1.48-.74a1.57,1.57,0,0,1-1.12,1.07Z"/>
      <path class="cls-55" d="M214.14,122.06a1.15,1.15,0,0,1-1.29-.71C213.51,121.18,213.84,121.6,214.14,122.06Z"/>
      <path class="cls-56" d="M211.21,252.56a.94.94,0,0,1,.7-1.14.85.85,0,0,1,.23,0A2.39,2.39,0,0,1,211.21,252.56Z"/>
      <path class="cls-57" d="M207.08,117.33c-.63.52-.81,0-1.07-.44C206.53,116.63,206.73,117.17,207.08,117.33Z"/>
      <path class="cls-58" d="M225.89,232.56h.24a2.7,2.7,0,0,1-.9,1.21A1.08,1.08,0,0,1,225.89,232.56Z"/>
      <path class="cls-59" d="M208.82,255.65a1,1,0,0,1,.72-1.16.85.85,0,0,1,.23,0A2.58,2.58,0,0,1,208.82,255.65Z"/>
      <path class="cls-60" d="M207.79,257a.94.94,0,0,1,.71-1.12l.22,0A2.37,2.37,0,0,1,207.79,257Z"/>
      <path class="cls-61" d="M202.65,263.47a.94.94,0,0,1,.74-1.11l.18,0A2.48,2.48,0,0,1,202.65,263.47Z"/>
      <path class="cls-62" d="M199.22,267.52v-.4a1.06,1.06,0,0,1,1-.69A2.19,2.19,0,0,1,199.22,267.52Z"/>
      <path class="cls-63" d="M214.93,247.28l0,.41-.72.95A1.25,1.25,0,0,1,214.93,247.28Z"/>
      <path class="cls-64" d="M48.47,180.2c.09-.22.19-.45.29-.67.37.47.5.95,0,1.42Z"/>
      <path class="cls-65" d="M213.25,249.87a1,1,0,0,1,1-1.22A2.76,2.76,0,0,1,213.25,249.87Z"/>
      <path class="cls-13" d="M17.26,232.93l1.4-1.34,2.72-1.06.18-.19c3.08-.55,5.76.54,8.32,2.06a10.3,10.3,0,0,1,1.47,1.14,15.36,15.36,0,0,1,3.71,3.79,4.8,4.8,0,0,1,.93,2c.11,1,0,1.85-1.29,1.82-3.26-4-7.66-6-12.62-6.73a3.78,3.78,0,0,0-4.22,3.29,3.65,3.65,0,0,0,0,1c0,.29.06.56-.25.73A6.54,6.54,0,0,1,17.26,232.93Z"/>
      <path class="cls-10" d="M147.91,155.6l-.35.68a1.53,1.53,0,0,0-.77.87c-2.28,4.63-4.88,9.12-6.46,14.13.25-2.15.49-4.3.75-6.44.44-3.65,1-7.29,1.3-11,.47-6,1.17-12,1.07-18a127.44,127.44,0,0,0-1.85-16.53c-.87-5.87-1.92-11.71-2.62-17.61a79.35,79.35,0,0,1-1-12A6.27,6.27,0,0,1,139.1,86c.68,3.77,1.34,7.23,1.94,10.71a215.89,215.89,0,0,0,5.13,22.35,112.78,112.78,0,0,0,7,18.65,20.49,20.49,0,0,1,1.56,5.91,4.39,4.39,0,0,1-1.38,4A23.64,23.64,0,0,0,147.91,155.6Z"/>
      <path class="cls-66" d="M167.39,249.34c-2.91,3.17-7.61,3.92-11.9,1.89A71.41,71.41,0,0,1,139.85,241a93.19,93.19,0,0,1-15-15.28,19.41,19.41,0,0,1-3.63-7.82c-.29-1.93-.61-3.86.25-5.73.77-.43.84.34,1.08.68a101.06,101.06,0,0,0,29.73,27.49,55.47,55.47,0,0,0,16,6.69C168.71,248.06,167.82,248.62,167.39,249.34Z"/>
      <path class="cls-10" d="M186.55,298.28,181,308.38c-.41.75-.85,1.47-1.27,2.21-1,.7-1.29,2-2.27,2.76,1-2.4,1.95-4.81,3-7.19,2.64-6.17,5.18-12.37,7.23-18.76a7.13,7.13,0,0,0-.42-5.7A223.59,223.59,0,0,0,169,251.91c-1.29-1.8.69-1.62,1.11-2.33.63-1.06,1.12-.1,1.46.4q5.25,7.65,10.45,15.35,4.83,7.13,9.14,14.57a6.88,6.88,0,0,1,.68,5,10.11,10.11,0,0,0-.53,2.83C190,291.34,188.2,294.77,186.55,298.28Z"/>
      <path class="cls-67" d="M186.2,225.05c.11,2.7,1.49,5.07,2,7.68.73,4.07,1.91,8.05,2.5,12.14-.1.48.15,1-.29,1.61a36,36,0,0,1-3.52-7.73c-3-8.27-5.05-16.83-7.5-25.27-1.37-4.74-2.66-9.51-5-13.91-.81-1.51-1.69-2.84-3.63-2.94-.61,0-.84-.45-.92-1a3.65,3.65,0,0,1,2.12-3.55c.68-.22,1,.23,1.4.67,2.89,3.25,4.42,7.25,6,11.19a154.58,154.58,0,0,1,6.23,19.61A2.8,2.8,0,0,0,186.2,225.05Z"/>
      <path class="cls-8" d="M167.39,249.34c.13-.83,1-1.45.65-2.4a1.05,1.05,0,0,1,0-1.13c1.29-3.18.67-6.15-1-9a77.57,77.57,0,0,0-7.61-10.05,119.39,119.39,0,0,0-9.75-10.49c-3.85-3.55-7.75-7-12.42-9.53a23.18,23.18,0,0,0-3.26-1.46c-4.89-1.72-9.22.27-11.22,5.11-.24.57-.3,1.24-.88,1.62a16.25,16.25,0,0,0-.66,5.84A11.1,11.1,0,0,1,127,203.74c3.26-1.41,6.46-.52,9.54.91a45.7,45.7,0,0,1,10.9,7.53A129.63,129.63,0,0,1,168,235.36c3,4.34,3.06,9.35.41,13.07A2.16,2.16,0,0,1,167.39,249.34Z"/>
      <path class="cls-67" d="M147.56,206.23l4.1,7.19c-.64.63-.91-.09-1.21-.38-6.41-6.26-11-13.56-12.34-22.57-.34-2.32-1.13-4.79,0-7.28.92,6.81,3.6,12.83,6.85,18.64C145.83,203.31,146.34,205,147.56,206.23Z"/>
      <path class="cls-68" d="M174.55,320.84c-.05.27.22.74-.25.75s-.38-.43-.39-.75Z"/>
      <path class="cls-13" d="M190.72,267.41l-2.4-11.89c.12-.27.45-.19.61-.38.37-1.07.74-2.14,1.2-3.51l.4,2c.94-2.39,2.83-3.83,3.15-6.19a5,5,0,0,1,.34,4c-1,2.71-1.76,5.47-2.71,8.48,1.26-.4,1.15-1.33,1.35-2,2.05-6.39,3.83-12.87,6.52-19,3.54-8.11,7.35-16.06,13.31-22.75a23.86,23.86,0,0,1,8.81-6.28c.1,1-.63,1.25-.91,1.77-3.84,1.21-6.07,4.26-8.23,7.32-4.86,6.86-8.31,14.48-11.56,22.18-3.42,8.12-6.36,16.42-9.07,24.8C191.37,266.5,191.39,267.17,190.72,267.41Z"/>
      <path class="cls-69" d="M211.83,226a85,85,0,0,1,7.93-12.26c.1-.15.21-.16.33,0-2.11,3.88-4.72,7.44-7,11.21l-.91,1.44C211.86,226.46,211.67,226.41,211.83,226Z"/>
      <path class="cls-70" d="M221.79,211.36c.76-1,1.24-2.3,2.94-2.08,2.07.27,2.31.69,1.15,2.44A12.26,12.26,0,0,0,221.79,211.36Z"/>
      <path class="cls-71" d="M226.54,212.05c.29-.4.4-1,1-1.26a8.51,8.51,0,0,1,1.79,5.36c0,.1,0,.25-.12.31s-.25,0-.28-.19A10.84,10.84,0,0,0,226.54,212.05Z"/>
      <path class="cls-72" d="M216.67,229.14c.45-.69.53-1.62,1.37-2C217.75,227.89,217.71,228.85,216.67,229.14Z"/>
      <path class="cls-73" d="M211.83,226l.34.37a5.23,5.23,0,0,1-1.33,1.77.24.24,0,0,1-.11-.27c0-.09.06-.14.09-.14Z"/>
      <path class="cls-74" d="M210.82,227.77l0,.41a2,2,0,0,1-1.1,1.66A5.27,5.27,0,0,1,210.82,227.77Z"/>
      <path class="cls-75" d="M218.61,225.74c.27-.57.53-1.14.79-1.71C219.82,224.91,219.29,225.36,218.61,225.74Z"/>
      <path class="cls-76" d="M220.33,222.66c.25-.67.39-1.4,1.14-1.74C221.28,221.62,221.13,222.36,220.33,222.66Z"/>
      <path class="cls-77" d="M228.94,221.6c.07-.14.2-.57.31-.15a7.72,7.72,0,0,1,0,1.86C228.73,222.82,229.05,222.17,228.94,221.6Z"/>
      <path class="cls-78" d="M220.09,213.76l-.33,0a1.82,1.82,0,0,1,1-1.06A1.09,1.09,0,0,1,220.09,213.76Z"/>
      <path class="cls-10" d="M52.46,155.22a1.22,1.22,0,0,1,1-.67,4.12,4.12,0,0,1,2-1.65,14.06,14.06,0,0,0-8.35,3.95c-.54.5-1,1.05-1.57,1.55-.36.33-.76.92-1.27.48s-.06-1,.19-1.4a33.17,33.17,0,0,1,6.28-7.39,57.15,57.15,0,0,1,13.72-8.84c.57-.27,1.21-.33,1.83-.68a4.09,4.09,0,0,1-1.37.36c-8,.42-14.4,4-20,9.41-.54.52-1.12,1-1.69,1.44a.72.72,0,0,1-.94.08c-.39-.31-.31-.7-.06-1.06h0a48.77,48.77,0,0,1,9.18-8,46.81,46.81,0,0,1,19-7.65c1.22-.21,2.52.19,4-.69-5-1.69-9.75-1.37-14.51-.34A59.18,59.18,0,0,0,46.27,139a17.54,17.54,0,0,1,4.88-3.44A62.83,62.83,0,0,1,73.44,128a54.34,54.34,0,0,1,29.64,4.15A57.63,57.63,0,0,1,114.62,139c1.68,1.27,1.65,1.43-.18,2.41-3.61,1.92-7,4.15-8.75,8a17.1,17.1,0,0,0-.82,2.41c-.43,1.5-1.12,1.79-2.4.85s-2.49-2-3.72-3c-3.63-2.95-7.56-5.4-12.27-5.93-9.73-1.1-17.83,3.72-20,14.2a12.44,12.44,0,0,0,0,5.53,8.57,8.57,0,0,1-2.74-.56c-3.92-.78-7.78-.93-11.46,1a8,8,0,0,0-1.14.74c-.49.36-.88,1.17-1.53.86s-.12-1-.2-1.58c-.18-1.15.39-2.22.44-3.41-1.42.11-1.92,1.5-3.24,2.21C48,159.5,50.57,157.63,52.46,155.22Z"/>
      <path class="cls-79" d="M99.72,210.33a21.16,21.16,0,0,1-.39-8.89,21,21,0,0,0,4.34-10.76,2.1,2.1,0,0,1,.76-1.61,22.66,22.66,0,0,0,5-5.35,1.43,1.43,0,0,1,1.73-.68,4.64,4.64,0,0,0,1.34.22c.44,0,1.15.26,1.15-.58,0-.64-.57-.66-1-.65a10,10,0,0,1-5.13-1.66c-.41-.23-.91-.7-1.29,0s.42.83.75,1.05c1.89,1.26,1.87,1.21.5,3a15.11,15.11,0,0,1-12.25,6.34,53.75,53.75,0,0,0-7.59,1c-4.34.76-7.25,3.33-9.35,7a47,47,0,0,0-2.82,5.46c-2.06,5-6.37,6.53-11.15,7.11-3.15.38-3.4,0-3.9-3.15a37.15,37.15,0,0,1,.14-10.53,2.3,2.3,0,0,0-.76-2.22,32.39,32.39,0,0,1-4.57-5.28c-.18-.32,0-.4.29-.46a2.29,2.29,0,0,1,1,.65A14.72,14.72,0,0,0,61,193.23c.75.31,1.56.42,2.3.74a7.62,7.62,0,0,0,6.62-.76c.65-.37,1.33-.77,1.89.14a8,8,0,0,0,.87,1.42c-1.39-2.07-1.35-2.44.68-4.26.27-.25.28-.44,0-.68-.1-1.54.43-3,.33-4.56-.25-3.81-1.8-7.14-3.54-10.42,0-.34-.16-.75.42-.74.71.44,1,2,2,1.37.88-.52,0-1.52-.25-2.27a40.57,40.57,0,0,1-1.77-13.94c.73-9.42,8.31-14.57,17.35-11.62,5.63,1.83,10,5.56,14.09,9.66a67.7,67.7,0,0,1,8.46,10.49c.27.4.4,1.3,1.16.94s.3-1.08.14-1.66a27.08,27.08,0,0,1-.77-12.83c1.07-5,4.3-7.94,9.29-8.75,4.55-.73,8,1.38,10.53,4.95,4.52,6.34,4.05,16-1,22-1.35,1.26-2.73.64-4.24,0a32.28,32.28,0,0,1-1.11,13,37.66,37.66,0,0,1-15.79,21.39,26.14,26.14,0,0,1-7,3.46C101,210.5,100.37,210.89,99.72,210.33Z"/>
      <path class="cls-6" d="M99.72,210.33a25.3,25.3,0,0,0,11-5.48c8-6.32,13-14.42,14.31-24.68a28.85,28.85,0,0,0-.15-8.8,4.73,4.73,0,0,0,4.92,1.06c-1.44,1.74-.82,3.7-.79,5.68a31.47,31.47,0,0,1-4.38,17.44c-5,8.12-11.88,14-21.06,16.94a6.94,6.94,0,0,1-3.15.56Z"/>
      <path class="cls-80" d="M99.38,199.46a1.17,1.17,0,0,0-1.5-.71,1.09,1.09,0,0,0-.33.19c-2,1.16-3.85,2.59-5.8,3.85A6.18,6.18,0,0,0,89.4,207a63,63,0,0,1-12.19.67c-2.14-.08-2.17-.11-1.12-1.92l1.28-2.2a3.85,3.85,0,0,0,3.68-.36,43.73,43.73,0,0,0,6.7-4.32,1.89,1.89,0,0,0,1-2c-.19-1,.57-1.9,1.41-1.65,1.56.45,2-.67,2.72-1.44.46-.49.67-1.2,1.31-1.53,2.73-.39,5.53-.36,8.28-1.74A19.23,19.23,0,0,1,99.38,199.46Z"/>
      <path class="cls-81" d="M94.17,192.22A10.53,10.53,0,0,1,92,195.44c-.44.53-.81,1-1.34.08-.29-.5-.69-.35-.93,0s-1.27.54-.62,1.27.22,1.19-.32,1.66a41.42,41.42,0,0,1-8.71,5.62,2,2,0,0,1-2.7-.6,48.28,48.28,0,0,1,2.51-5.17,11.12,11.12,0,0,1,8.72-5.48C90.46,192.7,92.31,192.44,94.17,192.22Z"/>
      <path class="cls-82" d="M51.76,189.08a2,2,0,0,1,1.84.94,36.09,36.09,0,0,0,5,5.77,2.09,2.09,0,0,1,.74,2c-.19,1.37,0,2.8-.72,4.08a1.09,1.09,0,0,1-1.14,0c-4.16-1.8-7.34-4.5-8.3-9.19a3.61,3.61,0,0,1,.83-3C50.43,189.13,51,188.69,51.76,189.08Z"/>
      <path class="cls-83" d="M53.22,187.37c-2-3.35-3.59-6.83-3.52-10.87a12.47,12.47,0,0,1,4.48-9.4A5.4,5.4,0,0,1,59.32,166a15.42,15.42,0,0,1,6.5,3.58c.07.53-.33.58-.7.67-1.74-.35-3.38-1.08-5.25-.94a7.1,7.1,0,0,0-3.93,1.25c-2.62,1.71-3.54,4.33-3.85,7.26a4.72,4.72,0,0,0,0,2.71,8.68,8.68,0,0,1,.17,1.26c.1,1.82,1.22,3.34,1.48,5.11C53.67,187.2,53.56,187.43,53.22,187.37Z"/>
      <path class="cls-13" d="M51.76,189.08a3,3,0,0,0-2.12,3.68c.58,3.52,2.92,5.76,5.74,7.61a9.35,9.35,0,0,0,3.23,1.46,1.48,1.48,0,0,1,.24,1.74c-.34.55-.94.07-1.41,0A12.7,12.7,0,0,1,46.67,190c.1-2.29,1.85-3.9,3.84-3.55,1,.18,1.35.93,1.79,1.66S52,188.78,51.76,189.08Z"/>
      <path class="cls-66" d="M89,209l.06,5.12c-1.71-.34-3.44-.62-5.13-1a23.48,23.48,0,0,1-7.76-3.34c-.38-.26-.9-.48-.7-1s.77-.08,1.16-.08c2.32,0,4.65,0,7,.07-.4,1-1.32.65-2,.73a8.62,8.62,0,0,1-2.48-.21c2.27.3,4.44,1,6.7,1.34,1.3.19,2.52.48,2.78-1.37C88.61,209,88.84,209,89,209Z"/>
      <path class="cls-84" d="M89,209c-.67,2.36-.68,2.41-3.22,2a33.17,33.17,0,0,1-7.6-1.89c2-.36,3.76.21,5.43-.42A25.31,25.31,0,0,0,89,208Z"/>
      <path class="cls-85" d="M70.56,174.11c-.26.12-.28.35-.25.6l-.21.13a6.64,6.64,0,0,1-2.69-3c0-.29.23-.41.46-.52A10.74,10.74,0,0,1,70.56,174.11Z"/>
      <path class="cls-86" d="M67.87,171.34l-.39.35A2.49,2.49,0,0,1,65.11,170a.77.77,0,0,0,.71-.35Z"/>
      <path class="cls-87" d="M55.48,189.82l-.27.34-1-1.35c-.19-.31,0-.41.26-.48a1.14,1.14,0,0,1,.63.31C55.32,189,55.87,189.25,55.48,189.82Z"/>
      <path class="cls-88" d="M54.46,188.45l-.29.36c-.31-.48-.63-1-1-1.44l.32-.35a.47.47,0,0,1,.43,0C54.27,187.47,54.83,187.8,54.46,188.45Z"/>
      <path class="cls-4" d="M58,317.78l.67,1.42c-.78.1-1.21-.48-1.79-.61s-1.17-.41-1.24.54c-1.88-1.54-3-3.7-4.23-5.68a21.76,21.76,0,0,1-3.57-10.51,14.42,14.42,0,0,1,3.05-9.69c3.32-4.39,7.87-7.1,12.77-9.33,1.68-.77,3.34-1.72,5.29-1.71,0,.86-.82.83-1.35,1.05-2.38,1-4.75,2-7.09,3.13A31.12,31.12,0,0,1,75,282.78a21.72,21.72,0,0,1,14.41,5.77c6.61,5.91,13.61,11.29,22.29,13.9a28,28,0,0,0,14.68.57A43.87,43.87,0,0,0,144,295a62.42,62.42,0,0,0,6.31-6.18c-8.89,8.35-19.24,13.49-31.64,13.6-6.42.06-12.26-2.25-17.64-5.7a72.73,72.73,0,0,1-9.15-7.14C86.75,285,81,282,73.88,281.94a1.86,1.86,0,0,1-1.58-.44c3-.83,6-.24,8.83.64,5.05,1.55,9.13,4.77,13.24,7.92,4.42,3.37,8.74,6.87,14,9,6.77,2.79,13.56,2.73,20.47.7a52.3,52.3,0,0,0,16.37-7.84c6.48-4.73,10.62-10.85,11.66-19,.73-5.72-.57-11-2.43-16.32-.12-.36-.47-.67-.21-1.23a3.82,3.82,0,0,1,2,1.07,11,11,0,0,0,1.46,1.44c3.61,2.53,4.06,6.37,4.24,10.28a37.66,37.66,0,0,1-1.53,12.44c-1.91,6.58-6.2,11.31-11.48,15.26a60.22,60.22,0,0,1-20.5,9.77,30.34,30.34,0,0,1-25-3.8,125.17,125.17,0,0,1-14.85-11.39c-2.2-1.87-4.38-3.8-7.16-4.84a16.75,16.75,0,0,0-9.86-.33c-4.73,1.09-9.42,2.49-13.26,5.53-4.66,3.68-8.17,8.27-7.8,14.61C50.8,310.73,53.52,314.83,58,317.78Z"/>
      <path class="cls-67" d="M72.3,281.5c8.27-.37,14.86,3.19,20.8,8.59S105.79,300,114,301.54a32.34,32.34,0,0,0,16.09-1.28c7.67-2.47,14.66-6.15,20.25-12.14.2-.22.36-.58,1-.5a31.78,31.78,0,0,1-8.18,8.57,43.43,43.43,0,0,1-19.4,7.8,28.66,28.66,0,0,1-15.45-2.26c-7.45-3.09-13.69-8-19.65-13.27-4.94-4.4-10.74-5.74-17.23-5-4.25.46-8,2.25-12.06,3.44a64.24,64.24,0,0,1,9.54-4.66C70,282,71.09,281.35,72.3,281.5Z"/>
      <path class="cls-4" d="M42.21,150.8c0,.84.17,1.23,1,.53,2.56-2.06,4.85-4.44,7.71-6.13a30.6,30.6,0,0,1,13.9-4.65c.79-.05,1.51-.6,2.59-.16C58,144.5,49.68,149.68,44.4,158.71c3.4-3.07,6.77-6.18,12-6.24-.83,1.14-2,1.39-2.91,2.08-.2-1-.88-.65-1.44-.45-3.15,1.09-5.33,3.42-7.36,5.88-1.35,1.65-2.44,3.52-3.86,5.61a27.15,27.15,0,0,1,8.1-14.81c4-4,8.76-6.69,13.69-9.23-9.93,1.56-17,7.54-23.29,14.87A12.76,12.76,0,0,1,42.21,150.8Z"/>
      <path class="cls-89" d="M188.93,255.14c-.09.3-.34.36-.61.38-.12-.59-.53-1.13-.35-1.81C188.68,254,188.32,254.88,188.93,255.14Z"/>
      <path class="cls-79" d="M168.09,322.23c1.11-.16.43,1.53,1.64,1.31.32-.31-.17-1,.23-1.44.72.17,1,.91,1.51,1.3.37.27.73.67,1.2.52.64-.22.11-.79.23-1.18a7.56,7.56,0,0,0,.14-.83c1.35,1.29,1.38,2.67,1.28,4.32a150.94,150.94,0,0,1-1.47,15.61,86.32,86.32,0,0,1-6.77,22.28c-.31.67-.71,1.3-1.08,1.94a1.15,1.15,0,0,1-.54.46c.74-3.33,2.08-6.51,2.51-9.9l-.46-.12c-.57,2-1.12,3.94-1.71,5.9-.54,1.8-1.19,3.57-1.67,5.38-.52,2-1.87,2.85-4,3.23,1.92-6.34,4.34-12.39,5-18.89a193.37,193.37,0,0,1-5.74,18.52c-1.1-1.32-1.66-2.48-1.27-4q2.13-8.6,4.19-17.22c.12-.51.59-1.05,0-1.58s-.34-1.39-.16-2.07C163.29,337.85,165.53,330,168.09,322.23Z"/>
      <path class="cls-6" d="M168.09,322.23c-.48,3.74-1.87,7.23-2.88,10.83-1.27,4.53-2.57,9-3.83,13.57a5.87,5.87,0,0,0-.09,1.18,3.4,3.4,0,0,0-.75,1.85q-1.93,7.74-3.88,15.49c-.79-.18-.52-.74-.53-1.12-.15-9.88,1.32-19.42,5.73-28.4,1.93-3.92,3.57-8,5.36-12A3,3,0,0,1,168.09,322.23Z"/>
      <path class="cls-13" d="M138,49.52c3,.56,4.05,2.3,2.42,4.58a35.68,35.68,0,0,1-9.2,9.38,7,7,0,0,1-1.09.46c-.94-.14-.66-.85-.5-1.3,1.56-4.34,3.1-8.69,6.5-12A3.38,3.38,0,0,1,138,49.52Z"/>
      <path class="cls-13" d="M150.64,62.54a3.55,3.55,0,0,1,2.79,3.24,3.42,3.42,0,0,1-2.25,3.49A35.23,35.23,0,0,1,142.45,72a2.85,2.85,0,0,1-2.46-.27,1,1,0,0,1,.21-1c2.76-3.23,5.49-6.51,9.61-8.13A2.39,2.39,0,0,1,150.64,62.54Z"/>
      <path class="cls-13" d="M147.22,54.64c2.27,2,2.52,4.42.25,6.42A29.3,29.3,0,0,1,135.27,68c-.75-.35-.43-.84-.1-1.23a111.66,111.66,0,0,1,10.16-11.14C145.84,55.12,146.36,54.47,147.22,54.64Z"/>
      <path class="cls-6" d="M147.22,54.64c-4.71,3.49-8.07,8.28-12,12.54-.24.27-.12.52,0,.77-1.78-.32-1.1-1.67-.88-2.55a15.47,15.47,0,0,1,3-5.71c1.66-2.16,3.31-4.37,5.86-5.6C144.66,53.39,146.06,53.25,147.22,54.64Z"/>
      <path class="cls-6" d="M138,49.52c-4.57,3.45-6.29,8.6-8.13,13.67a.64.64,0,0,0,.26.75c-.88.65-1-.14-1.3-.67-.81-1.62-.3-3.28.05-4.84a16.73,16.73,0,0,1,2.73-6.37C133,50.14,135.94,49,138,49.52Z"/>
      <path class="cls-90" d="M150.64,62.54A28.83,28.83,0,0,0,140,71.77c-.88-.44-.41-1.16-.15-1.59,2.38-3.86,5.5-6.82,10.07-7.93A.65.65,0,0,1,150.64,62.54Z"/>
      <path class="cls-6" d="M50.41,233.25c.11.55-.45.66-.66,1-.78.23-1.15-.3-1.54-.81-.73-1.38-2.13-2.16-3.12-3.57-.32,1.06-1.34,1.53-1.53,2.57a3.66,3.66,0,0,1-.18.46,7.62,7.62,0,0,1-4.65,4.58c-.67.24-1.51.72-2-.38a8.6,8.6,0,0,0,4.92-5.87,27.26,27.26,0,0,1,1.59-3.92c.38-1,1-.5,1.63-.12,2.1,1.36,3.4,3.44,4.87,5.37A2,2,0,0,1,50.41,233.25Z"/>
      <path class="cls-91" d="M36.76,237.1c1.83.47,4.32-.86,5.53-2.95.31-.53.43-1.18,1-1.57.42.46.25.94.07,1.44a6.15,6.15,0,0,1-7.78,3.71,2,2,0,0,1-.59-.52,1.82,1.82,0,0,1-.24-.43c-.32-.72-.34-1.53-.6-2.27a2.23,2.23,0,0,1-.22-.66.56.56,0,0,1,.19-.4A2.84,2.84,0,0,0,36,231.22c.35-.83.26-1.85,1.07-2.48.3,0,.52.09.36.46A12.45,12.45,0,0,1,35.8,234C34.87,235.64,35,236.11,36.76,237.1Z"/>
      <path class="cls-92" d="M37.45,229.2l-.32-.38c-.89-1.46-2.47-2.19-3.57-3.41a.57.57,0,0,1,.12-.44c.75-.33,1.31.13,1.85.49.92.61,1.54.67,1.64-.66a3.69,3.69,0,0,1,.18-.65c.31-.75.38-1.63,1.1-2.17l.38-.37c.49-1.25,1-2.44,2.69-2.38h.66l-.64.65c-2.64,1.67-3.43,4.31-3.72,7.2C37.75,227.79,37.94,228.56,37.45,229.2Z"/>
      <path class="cls-93" d="M50.41,233.25a1,1,0,0,1-.64-.69c.28-.15.3-.43.34-.7C50.51,232.26,50.4,232.77,50.41,233.25Z"/>
      <path class="cls-13" d="M57.38,320c.76.26.75,1,1.15,1.35.82-.45.62-1.41,1.08-2.14,1.58.92,3.13,1.85,4.7,2.75a38.59,38.59,0,0,0,8,3.32,22.88,22.88,0,0,1,6.81,3.44c1.64,1.19,1.67,1.48.39,3.07-1.83,2.28-4.83,2.82-8,1.34-3.72-1.73-6.68-4.49-9.61-7.26-1.19-1.14-2.24-2.41-3.4-3.58A3.13,3.13,0,0,1,57.38,320Z"/>
      <path class="cls-13" d="M118.89,65.93c.8-1.64,2.18-1.18,3.41-.82a13.74,13.74,0,0,1,4.87,3.07,38.51,38.51,0,0,1,6,6.07,4.16,4.16,0,0,1,1.06,2.28,1.25,1.25,0,0,1-1.43.09c-5.53-2.13-9.88-5.84-13.75-10.21A.81.81,0,0,1,118.89,65.93Z"/>
      <path class="cls-6" d="M118.89,65.93c2.49,2.31,4.76,4.87,7.6,6.8,2.39,1.62,4.78,3.27,7.71,3.8-.61,1.18-1.74.81-2.57.62-4-.91-7.82-2.16-11.12-4.71A5,5,0,0,1,118.89,65.93Z"/>
      <path class="cls-94" d="M30.51,240.12c1.58,1,1,2.21.48,3.46-1.48-.81-3.18-1-4.67-1.81a3.4,3.4,0,0,1,.37-3c1-.39,1.7.44,2.53.75A2.16,2.16,0,0,0,30.51,240.12Z"/>
      <path class="cls-95" d="M21,239.43l-.32.34c-.71-2-.3-2.82,1.6-2.7a8.67,8.67,0,0,1,4.59,1.31,2.14,2.14,0,0,0-.1.22c-.16.41-.35.77-.88.44a5.28,5.28,0,0,0-2.82-.89C22,238,21.12,238.12,21,239.43Z"/>
      <path class="cls-96" d="M35,237l.35.37c1.66,1.79,1.52,3.42-.34,4.08h-.37c0-.12,0-.24,0-.36,2-1.25.4-2.5,0-3.75C34.57,237,34.73,237,35,237Z"/>
      <path class="cls-97" d="M29.22,239.52l-2.35-.72c-.19-.11-.2-.24-.05-.4l0,0A3.11,3.11,0,0,1,29.22,239.52Z"/>
      <path class="cls-98" d="M95.26,225.72l-1-1a24.62,24.62,0,0,1-4.47-15.43,9.54,9.54,0,0,1,2.13-5.65c.51-.62,1-1.26,2-1.11.24.53,0,1-.2,1.47-1.2,3.52-.49,6.9.76,10.23.21.54.29-.23.51-.16.92.31.79,1.18.94,1.84a34,34,0,0,0,1.92,6.73c.3.65.53,1.53,1.46,1.44s1-1,1.31-1.63a6.74,6.74,0,0,0,0-4.37c-.32-1.15-.76-2.26-1.16-3.39-.26-.73-.67-1.49,0-2.25,1,2.89,3.06,5.46,2.79,8.78a7.38,7.38,0,0,1-.87,3.08C100.08,226.3,98.14,227.64,95.26,225.72Z"/>
      <path class="cls-99" d="M99.32,212.4c.11,2.32,1.54,4.25,1.92,6.5a7.24,7.24,0,0,1-.71,4.79c-.3.58-.63,1.05-1.4,1s-1.07-.53-1.37-1.1c-1.42-2.7-1.91-5.68-2.52-8.62-.07-.33,0-.69-.32-.94a2,2,0,0,1-.6-1.37,29.52,29.52,0,0,1-.11-8.13,5,5,0,0,1,1.9-3.49c.5-.4,1-.84,1.65-.48s.5.93.45,1.5a26.18,26.18,0,0,0,.44,7.23Z"/>
      <path class="cls-100" d="M98.65,209.33c-.89-2.28-.65-4.66-.67-7,0-.52.31-1.22-.4-1.5s-1.29.3-1.69.83a7.44,7.44,0,0,0-1.34,4.3,45.07,45.07,0,0,0,.37,8.13c0,.49-.07,1-.11,1.48-2.08-4.24-3.27-8.53-1-13.06,1-.85,2-1.73,3.12-2.55.38-.3.85-.66,1.38-.4s.38.82.29,1.22C98,203.62,98.64,206.47,98.65,209.33Z"/>
      <path class="cls-6" d="M35.05,241.48c1.91-1.21.82-2.67.34-4.08,4,1,7.2-1,7.86-4.82h0c.06-1.14,1.18-1.51,1.69-2.33.18-.29.52-.07.71.13.46.48,1.06.84,1.25,1.53a14.11,14.11,0,0,1-5,7.86,20.33,20.33,0,0,1-3.62,2.64A20.5,20.5,0,0,0,45.61,241c.66-.26,1.3-.8,2.06-.24a6.86,6.86,0,0,0,1.71,3.15c.5,1,0,1.41-.91,1.59s-1.72-.11-2.49.41A11.31,11.31,0,0,0,40.49,247h-2.7l-5.52-.72c-.83-.44-1.29-1-.73-2a3.18,3.18,0,0,0,.39-1.28c.11-1.1.53-1.6,1.72-1.21A1.24,1.24,0,0,0,35.05,241.48Z"/>
      <path class="cls-83" d="M47.67,240.77c-2.27.64-4.41,1.73-6.83,1.95a10.62,10.62,0,0,1-3.23-.1c4-2.78,7.54-5.9,9.06-10.69,1-.05,1.23.78,1.69,1.36l1.39,1c1.24.26,1.81,1.19,2.5,2.5L48,235.64l3.07,5.13Z"/>
      <path class="cls-101" d="M26.53,241.83c1.68.08,3.33.25,4.46,1.75-.12.78-.25,1.57-.38,2.35a59.25,59.25,0,0,0-1.49,7.82c-.34.39-.84.38-1.29.5-.95-.12-1.09-.9-1.24-1.61a30.83,30.83,0,0,1-.81-9.23C26,242.86,26,242.23,26.53,241.83Z"/>
      <path class="cls-102" d="M26.5,254.54c-1.86-1.29-2.66-3.28-3.43-5.27a19.47,19.47,0,0,1-1.4-5.35c-.33-.86.22-1.33.85-1.57,1.06-.4,2.12-1.17,3.34-.44a41.53,41.53,0,0,0,1.05,11.76.72.72,0,0,1-.12.78Z"/>
      <path class="cls-103" d="M28.5,254.83c.67,0,3.15,2.27,2.93,2.9-.31.9-1.44.86-2.16,1.32-.42.27-.84.3-1.08-.31s-.62-1.33-.89-2C26.77,255.41,27.09,254.92,28.5,254.83Z"/>
      <path class="cls-104" d="M26.79,254.45a40.22,40.22,0,0,1-1.29-11.19,3.22,3.22,0,0,1,.25-1.46l.27,0c.51.45.27,1,.18,1.52a35.65,35.65,0,0,0,.91,9.49c.14.54.15,1.15.72,1.48C27.53,254.55,27.15,254.44,26.79,254.45Z"/>
      <path class="cls-105" d="M25.75,241.8c-.92.26-1.85.48-2.75.78-.65.21-1.29.49-1.33,1.33l-.33-.72L21,239.43c-.37-1.54.35-2,1.75-1.73,1.24.23,2.78-.28,3.45,1.38.49,1-.06,1.86-.34,2.77Z"/>
      <path class="cls-13" d="M38.45,222l-.7,2.36c-1,.55-1.55-.4-2.19-.83C32.4,221.37,29,219.9,25.12,220a5.61,5.61,0,0,0-3.35,1c-.31,0-.54,0-.43-.42.66-2.62,2.64-4,4.88-5.05l1.93,0C32.29,216.55,35.43,219.18,38.45,222Z"/>
      <path class="cls-102" d="M32.67,216.53a23.82,23.82,0,0,1,9.91-3.14c.09.33.18.66.26,1a50.07,50.07,0,0,1-5.76,5.23A37.42,37.42,0,0,1,32.67,216.53Z"/>
      <path class="cls-106" d="M41.52,219.23c-1.23.42-1.82,1.56-2.69,2.38l-1.35-1.35a9.6,9.6,0,0,1,5.38-5,.57.57,0,0,0,.13.27C43,216.94,41.94,218,41.52,219.23Z"/>
      <path class="cls-107" d="M42.86,215.21a19.9,19.9,0,0,0-5.38,5,.63.63,0,0,1-.4-.65,22.1,22.1,0,0,1,5.76-5.23C42.85,214.66,42.86,214.93,42.86,215.21Z"/>
      <path class="cls-108" d="M43.56,214.17c-.27-.94.25-1,.88-1.08,1.07-.06.87.87,1,1.42.28,1.06-.75,1.09-1.27,1.09C43.06,215.6,43.9,214.53,43.56,214.17Z"/>
      <path class="cls-13" d="M33.67,225.32l2.72,1.92a1.65,1.65,0,0,1,.74,1.58c-.26.89-.52,1.79-.77,2.68-.73.57-1.16-.1-1.61-.44-3.45-2.71-7.49-3.72-11.75-4.16-1.1-.11-2.12.41-3.2.43a.8.8,0,0,1-.48-.23c.21-.45.42-.91.62-1.37a7,7,0,0,1,4.49-2.44C27,222.29,31.82,223.35,33.67,225.32Z"/>
      <path class="cls-6" d="M21.65,220.91c.46-1.31,1.62-1.26,2.67-1.33C29,219.23,33,221,36.59,223.72c.36.26.63.68,1.16.62-.56.66.13,2-.76,2.2-.72.19-1.5-.63-2.22-1.09a6.05,6.05,0,0,0-1.1-.41,18.41,18.41,0,0,0-9.24-2,4.13,4.13,0,0,0-2.24.42c-.52.29-1.09.51-1.14-.46C21.43,222.32,20.85,221.41,21.65,220.91Z"/>
      <path class="cls-109" d="M24.43,223c2.55-.8,4.88.22,7.22.93.71.22,1.62.28,2,1.12v.28a18.06,18.06,0,0,0-9.24-2Z"/>
      <path class="cls-110" d="M21.65,220.91c-.41.62-.06,1.46-.6,2v-2.29a1.38,1.38,0,0,1,.29-.08Z"/>
      <path class="cls-6" d="M19.67,227.13c3.91-1.47,7.55-.11,11.18,1.14,2,.7,3.64,2.2,5.51,3.23-.46,1.06-.69,2.38-2.35,2.1a5,5,0,0,1-2.56-.44c-2.4-1.13-4.65-2.67-7.43-2.76a5.88,5.88,0,0,0-2.67.14h0a2.58,2.58,0,0,0-.68,0c-1.62.54-2.09-.28-2.07-1.71l.33-.35C19.29,228.07,19,227.34,19.67,227.13Z"/>
      <path class="cls-111" d="M19.67,227.13,19,228.47c.05-.48-.13-1,.36-1.37Z"/>
      <path class="cls-112" d="M21.35,230.54a9,9,0,0,1,6.4.38,33.79,33.79,0,0,1,3.88,2,.3.3,0,0,1,.12.33c-.23.16-.16.34,0,.53-.08.2-.17.36-.41.17A14.39,14.39,0,0,0,21.35,230.54Z"/>
      <path class="cls-113" d="M31.3,233.94l.31-.26c.61-.36.91.19,1.27.47a.6.6,0,0,0,.85,0,.7.7,0,0,0,.13-.17l.2-.1.29.35c.32.78-.18,1.78.69,2.41V237l-.34.33Z"/>
      <path class="cls-79" d="M121.86,212c1.28-6.33,6.77-9.34,12.75-7,4.46,1.76,8.21,4.63,11.79,7.73a136.52,136.52,0,0,1,19.65,21.74c1.87,2.51,3.24,5.2,3.08,8.48a12.79,12.79,0,0,1-1.09,3.92c-.57.5-1.15.22-1.76,0a71.68,71.68,0,0,1-23.75-12.79,107,107,0,0,1-20-20.64A2.38,2.38,0,0,1,121.86,212Z"/>
      <path class="cls-82" d="M125.46,167.6c0-.62,0-1.25-.13-1.86a1.87,1.87,0,0,0-1.42-1.55A1.64,1.64,0,0,0,122,165c-.83,1.15-1.58,2.37-2.44,3.5-.62.8-1.38,1-1.77-.19-1.44-4.3-2.52-8.65-1.45-13.22.61-2.66,2-4.84,4.76-5.5a7.46,7.46,0,0,1,7.66,2.66c2.69,3.09,3,6.76,2.38,10.62a24.12,24.12,0,0,1-2,6.85c-.49,1-1,2.33-2.4,2s-1.26-1.74-1.38-2.86a9.47,9.47,0,0,1,0-1.19Z"/>
      <path class="cls-114" d="M80.57,154.32a9,9,0,0,1,7.29-2c7.21,1.18,11.85,6.13,13.17,13.61a19.7,19.7,0,0,1,.42,6,11.28,11.28,0,0,1-7.75,9.24c-2.84.8-5.65,1.15-8.38-.35.48-.46,1-.29,1.61-.2,6.88,1.08,11.45-4.71,11.64-10a16.31,16.31,0,0,0-5.63-13.5,11.38,11.38,0,0,0-10.4-2.92C81.9,154.4,81.24,154.76,80.57,154.32Z"/>
      <path class="cls-115" d="M80.57,154.32c9.48-3.53,17.74,5.24,18.43,13.59A12.85,12.85,0,0,1,96.83,177a9.87,9.87,0,0,1-10.17,4.08c-.44-.08-.89-.12-1.34-.18a16.14,16.14,0,0,1-10.66-13C73.71,162.13,75.39,157.42,80.57,154.32Z"/>
      <path class="cls-116" d="M70.31,174.71c2.88,4.51,4.8,9.23,3.27,14.73,0,.12.11.29.17.43-1,1.11-2.16,2.06-2.19,3.71-.5-.79-1-.32-1.49,0a7.37,7.37,0,0,1-7,.72,1.32,1.32,0,0,1,1-.46,8.58,8.58,0,0,0,8.19-7.69,15.19,15.19,0,0,0-1.6-9.38c-.3-.59-.75-1.17-.45-1.91Z"/>
      <path class="cls-117" d="M81.93,189.64c0,.83-.19,1.32-.92,1.27a1.55,1.55,0,0,1-1.5-1.53c-.09-.64.13-1.21.84-1.19A1.54,1.54,0,0,1,81.93,189.64Z"/>
      <path class="cls-118" d="M76.23,193.56c0,.72-.25,1.11-.9,1.1a1.59,1.59,0,0,1-1.68-1.49v-.07a.83.83,0,0,1,.88-1A1.67,1.67,0,0,1,76.23,193.56Z"/>
      <path class="cls-119" d="M77.38,188.73A3.05,3.05,0,0,1,80.07,186c1.41-.2,2.66.88,3.42,2.9-1.26-.61-1.64-2.21-3.09-2.26S78.37,188,77.38,188.73Z"/>
      <path class="cls-120" d="M71.56,193.58c-.39-1.9.74-2.9,2.19-3.71.27,0,.6-.1.8,0s0,.42-.15.5c-1,.5-2.23.89-2.32,2.24s1,2,1.61,2.91c0,.05,0,.2-.12.48A5.51,5.51,0,0,1,71.56,193.58Z"/>
      <path class="cls-121" d="M60.69,193.53a9.43,9.43,0,0,1-4.4-3.05.49.49,0,0,1,.48-.44,19.9,19.9,0,0,1,4.07,3.06A.52.52,0,0,1,60.69,193.53Z"/>
      <path class="cls-122" d="M60.69,193.53l.06-.48c1.33-.46,2.58,0,3.86.3.64.73-.18.64-.48.85l-1.07.09Z"/>
      <path class="cls-123" d="M56.59,190.14l-.3.33-.81-.65c-.21-.33-.42-.67-.62-1s0-.44.31-.52A1.79,1.79,0,0,1,56.59,190.14Z"/>
      <path class="cls-124" d="M64.13,194.2l.66-.57a1.65,1.65,0,0,1,1.12-.71c4.8-1.36,5.94-6,5.84-9.2a14.87,14.87,0,0,0-4.87-10.89c-2.9-2.67-6.1-3.58-9.85-2.11a2,2,0,0,1-1,.17c-.28-.07-.5-.2-.47-.53,3.1-2.29,6.3-1.79,9.54-.39l2.37,1.72c.9,1.05,1.79,2.1,2.68,3.16A18.69,18.69,0,0,1,72.82,183c.29,5-2.07,9.93-6.84,11A4.82,4.82,0,0,1,64.13,194.2Z"/>
      <path class="cls-125" d="M55.57,170.36l.4.32a1.2,1.2,0,0,1-.42,1.07,10.74,10.74,0,0,0-3,8.87c-.12.51.06,1.2-.75,1.31l-.08-1.21a7.73,7.73,0,0,1,0-3A8.86,8.86,0,0,1,55.57,170.36Z"/>
      <path class="cls-126" d="M51.84,181.93c.46-.4.23-1,.33-1.43a.59.59,0,0,1,.6.51,51.74,51.74,0,0,0,1.56,5.57.74.74,0,0,1-.52.57l-.27-.13A18.61,18.61,0,0,1,51.84,181.93Z"/>
      <path class="cls-126" d="M51.76,177.69v3A4.76,4.76,0,0,1,51.76,177.69Z"/>
      <path class="cls-127" d="M53.81,187.15l.34-.42a1.34,1.34,0,0,1,1.1,1.55l0,.16-.36.37-.4-.36C54.24,188,54,187.58,53.81,187.15Z"/>
      <path class="cls-91" d="M48.36,233.29l-1.69-1.36c-1.51-2-1.78-1.93-3.43.66,0-.49-.06-1,.38-1.4,1-1,.93-1,1.2-2.52C45.72,230.69,47.77,231.37,48.36,233.29Z"/>
      <path class="cls-128" d="M35,236.69c-1.33-.49-.72-1.54-.69-2.41C34.91,235,34.67,235.92,35,236.69Z"/>
      <path class="cls-129" d="M31.61,233.22c0-.1,0-.21,0-.31a5.38,5.38,0,0,1,2.38.69,1.26,1.26,0,0,0,.05.33L34,234C33,234.5,32.34,233.7,31.61,233.22Z"/>
      <path class="cls-130" d="M25.84,241.85c.11-.93.23-1.85.34-2.77l.64-.68c0,.14,0,.27.05.4,0,1-.55,2-.34,3l-.33,1.45C26.05,242.81,26.33,242.23,25.84,241.85Z"/>
      <path class="cls-131" d="M31.61,233.22,34,234c0,1-.08,1.76-1.22.65a10.65,10.65,0,0,0-1.18-.92C31.39,233.53,31.26,233.38,31.61,233.22Z"/>
      <path class="cls-81" d="M98.36,169.42c0,5.77-3.2,10.12-8.25,11a10.78,10.78,0,0,1-9-2.75c-4.7-4-6.8-9.06-5.68-15.21,1.25-6.81,8-10.14,14.26-7.13A16,16,0,0,1,98.36,169.42Z"/>
      <path class="cls-81" d="M55.22,188.44l-1.07-1.71a23.94,23.94,0,0,1-2-6.23c-.23-3.85.77-7.23,3.8-9.82,4-2.2,7.65-1.38,10.83,1.5,4.56,4.14,6.42,9.31,4.82,15.39a7.75,7.75,0,0,1-6.83,6.06,17.82,17.82,0,0,1-4-.58c-1.6-.67-2.77-1.94-4.16-2.91Z"/>
      <path class="cls-132" d="M86.16,168.62c.16-3.39,2.55-5.83,5.55-5.65s5.6,3.32,5.4,6.74-2.52,5.69-5.47,5.56C88.53,175.14,86,172.08,86.16,168.62Z"/>
      <path class="cls-133" d="M71.13,182.76c0,2.91-1.45,5-3.47,5.43s-4.28-.86-5.28-3.34a6.5,6.5,0,0,1-.53-3.48c.42-2.63,1.87-4.31,3.91-4.51s4,1.3,4.84,3.61A16.51,16.51,0,0,1,71.13,182.76Z"/>
      <path class="cls-82" d="M87,168.83c0-3,1.62-5,4.09-5a4.93,4.93,0,0,1,5.13,4.73,1.77,1.77,0,0,1,0,.23,6.27,6.27,0,0,1-.35,3,4.42,4.42,0,0,1-5.31,2.62c-1.6-.32-3.44-2.57-3.56-4.36C87,169.62,87,169.23,87,168.83Z"/>
      <path class="cls-82" d="M66.1,177.5c1.3-.09,2.08.77,2.86,1.6a6.11,6.11,0,0,1,.83,6.8,3.58,3.58,0,0,1-4.92,1.22,3.64,3.64,0,0,1-1-.86,6.2,6.2,0,0,1-.52-7.29A3.57,3.57,0,0,1,66.1,177.5Z"/>
      <path class="cls-134" d="M95.27,167.25A1.33,1.33,0,0,1,94,168.69h-.16a1.44,1.44,0,0,1-.13-2.88A1.38,1.38,0,0,1,95.27,167,1.62,1.62,0,0,1,95.27,167.25Z"/>
      <path class="cls-135" d="M94.43,170.8c-.2.32-.36.62-.69.54s-.55-.29-.47-.58.27-.57.6-.45S94.26,170.64,94.43,170.8Z"/>
      <path class="cls-134" d="M69.3,180.62c-.08.84-.46,1.37-1.27,1.33a1.19,1.19,0,0,1-1.19-1.21.71.71,0,0,1,0-.14,1.18,1.18,0,0,1,1-1.34l.17,0C68.89,179.22,69.25,179.87,69.3,180.62Z"/>
      <path class="cls-136" d="M68.48,184.39c-.29-.08-.51-.26-.42-.57s.31-.44.4-.42a.53.53,0,0,1,.44.59A.43.43,0,0,1,68.48,184.39Z"/>
    </g>
  </g>
</svg>
