<svg id="Layer_1" data-name="Layer 1" xmlns="http://www.w3.org/2000/svg" width="379.2" height="261.75" viewBox="0 0 379.2 261.75">
  <defs>
    <style>
      .cls-1 {
        fill: #ff0;
      }

      .cls-2 {
        fill: #f2f2f2;
        stroke: #b7b7b7;
        stroke-miterlimit: 10;
        stroke-width: 0.5px;
      }

      .cls-3 {
        fill: #ddd;
        opacity: 0.6;
      }
    </style>
  </defs>
  <g>
    <path class="cls-1" d="M14.76,73.87l.51.91c12.67,22.2,35.94,46,56.59,57.86l.71.39c.67.38,1.35.76,2,1.12l.87.44.69.35c.41.21.81.42,1.23.62l1,.48.69.32,1.08.5,1.2.51.65.27,1,.4c.46.19.93.36,1.39.54l.57.21.85.32c.54.2,1.09.39,1.63.57l.1,0,1.08.37c.61.2,1.22.38,1.84.57l1,.28q1,.28,2,.54l.81.21c.7.18,1.41.34,2.13.5l.63.14c.77.17,1.54.32,2.3.46l.45.08c.83.15,1.65.28,2.48.4l.22,0a78.69,78.69,0,0,0,11,.79h0c15,0,28.68-4.54,38.9-12.84a15.19,15.19,0,0,1,5.39,2.06,4.63,4.63,0,0,0,.71.43c19.33,12.16,40.23,25.25,60.45,37.9,36.88,23.09,75,47,105,66.1l18.08,11.55a11.2,11.2,0,0,0,6.12,1.76c7.18,0,15.37-6.19,20.86-15.76,4.59-8,6.28-16.75,4.42-22.94a11.62,11.62,0,0,0-5.85-7.4l-19.14-9.82C294.47,167.49,238,138,175.7,105.1a5.62,5.62,0,0,0-1.28-.8,15,15,0,0,1-4.55-3.66c4.06-25.86-11.77-54.4-39.26-70.19C110.37,18.82,78.55,10.7,53.22,10.7c-22.35,0-37.7,6.14-44.38,17.76C2.57,39.37,4.34,54.56,14,72.4,14.22,72.89,14.49,73.38,14.76,73.87Z"/>
    <g>
      <path class="cls-2" d="M152.59,122.87c61.27,38.39,124.83,78.1,174.46,109.81l5.48,3.5,12.65,8.08c4.42,2.88,13-2.36,18.51-12s5.74-19.64,1-22l-13.36-6.86-5.78-3c-50-25.68-106.66-55.16-173.62-90.57l-.08-.17a19.74,19.74,0,0,1-8.32-7.85c4.87-23.42-9.18-50.86-35.93-66.23C95.83,17.39,28.61,6.11,14,31.45s29,77.72,60.81,96C102.82,143.5,135.27,141,152.59,122.87Z"/>
      <path class="cls-3" d="M150.15,125.15a19.79,19.79,0,0,1,11,3.25h.05C215.85,162.8,280.52,203,327.05,232.68l5.48,3.5,12.65,8.08c4.42,2.88,13-2.36,18.51-12h0l-13.54-7.78L336,216.39,158.8,114.61h0l-10.64-6.11h0C158.25,91,151.61,67.58,133.6,51.72,139,64,139.27,77.19,133,88.14,121,108.91,90.24,113.61,64.19,98.65,54,92.78,41.51,82.16,30.87,70.19,23.42,57.72,20,45.72,24.68,37.57L14,31.45c-14.58,25.35,29,77.72,60.81,96C101.58,142.79,132.35,141.12,150.15,125.15Z"/>
    </g>
  </g>
</svg>
