<svg id="Layer_1" data-name="Layer 1" xmlns="http://www.w3.org/2000/svg" width="330.69" height="352.22" viewBox="0 0 330.69 352.22">
  <defs>
    <style>
      .cls-1 {
        fill: #ff0;
      }

      .cls-2, .cls-5 {
        fill: #d83c2d;
      }

      .cls-13, .cls-16, .cls-17, .cls-2, .cls-4 {
        stroke: #3d2c2c;
        stroke-miterlimit: 10;
      }

      .cls-13, .cls-16, .cls-2, .cls-4 {
        stroke-width: 0.25px;
      }

      .cls-3 {
        fill: #333232;
      }

      .cls-4, .cls-6 {
        fill: #f56461;
      }

      .cls-7 {
        fill: #4b5063;
      }

      .cls-8 {
        fill: #656c7c;
      }

      .cls-9 {
        fill: #c82c1d;
      }

      .cls-10 {
        fill: #4d2317;
      }

      .cls-11 {
        fill: #5a6270;
      }

      .cls-12 {
        fill: #6d7588;
      }

      .cls-13 {
        fill: #969daf;
      }

      .cls-14 {
        fill: #1d2a3a;
      }

      .cls-15, .cls-16 {
        fill: #6f839c;
      }

      .cls-17 {
        fill: #c0bfd1;
        stroke-width: 0.5px;
      }

      .cls-18 {
        fill: #1a3641;
      }

      .cls-19 {
        fill: #b1aca8;
      }

      .cls-20 {
        fill: #f6c4a3;
      }

      .cls-21 {
        fill: #fff;
      }

      .cls-22 {
        fill: #1e191d;
      }

      .cls-23 {
        fill: #9c9cbc;
      }

      .cls-24 {
        fill: #868f9e;
      }

      .cls-25 {
        fill: #d0cedc;
      }
    </style>
  </defs>
  <g>
    <path class="cls-1" d="M136.92,311.51c.74-1.23,2.05-3.08,3.65-5.33l.44-.6c1.9-2.61,4.27-5.86,7.06-10.27.33-.52.67-1.05,1-1.65l.08-.13c1.64-2.61,3.13-5.15,4.42-7.55,1.85-3.33,3.7-6.84,5.61-10.67l1.42-.09c.55,0,1.13-.05,1.75-.06,1,0,2,0,3.16,0,1.79,0,3.84,0,6.1.09l2.74.08c3.06.1,6.53.24,10.31.43l1.53.08c16.11.84,33.07,2.19,35.26,2.37,1.85.3,14,2.27,28.72,4.52l7.76,1.18,6.38.95,8,1.17,7.78,1.09,9.37,1.24,8.21,1,5.89.6,1.11.1,1.64.12,2,.12.26-6-.11,6,.8,0,1,0v-6l.12,6h.81l.6,0,.71-.07.5-.07.29-.05.5-.12.15,0,.43-.14a6.64,6.64,0,0,0,1.63-.84,7,7,0,0,0,2-2.12,6.19,6.19,0,0,0,.54-1.2,6.9,6.9,0,0,0,.29-1.17,5.58,5.58,0,0,0,.08-1.23,6.59,6.59,0,0,0-.15-1.15,7,7,0,0,0-.34-1.14,6.85,6.85,0,0,0-.35-.75,7.76,7.76,0,0,0-.58-.94c-.11-.16-.23-.31-.34-.44s-.39-.46-.6-.68l-.31-.32-.69-.61-.26-.22c-.28-.22-.58-.45-.93-.7l-.28-.2-.71-.48-.31-.2-.78-.5-.43-.25-.73-.43-.47-.27-1.25-.7-1.33-.7-1.43-.74-1.43-.71-1.54-.75-1.6-.76-1.69-.79-1.79-.82-2.3-1-1.77-.78-1.81-.8-3.72-1.6L284.89,262l-5-2.06c-1.91-.83-3.76-1.57-5.59-2.3l-2.19-.89-2.61-1.07-1.87-.79-2.38-1c-1.17-.52-2.31-1-3.4-1.52l-1.65-.75-1.69-.79-1.78-.85-1.52-.74-1.55-.76-1.59-.81-1.19-.61-1.17-.61,4.73-.32,3-.24,3.28-.28,2.06-.19,4-.4,3.84-.42,3.78-.46,2.73-.35,1.76-.25,2.62-.38,2.46-.39,2.45-.42,1.58-.29,1.94-.38,1.46-.3,1.32-.29,1.28-.3,1.21-.3,1.18-.31,1.1-.32.47-.14,1-.32,1-.35.94-.37.6-.26.31-.14c.21-.09.39-.18.56-.27l.32-.16c.31-.17.6-.34.89-.52a6.86,6.86,0,0,0,3.08-6s0-.1,0-.15,0-.35-.05-.52a7.6,7.6,0,0,0-6-6.38l-.11,0c-1.55-.35-3.09-.72-4.62-1.09l-1.49-.36c-1.08-.27-2.16-.53-3.24-.81l-1.64-.42-3.07-.81-1.58-.43c-1.06-.28-2.12-.58-3.2-.88l-1.35-.39-3.48-1-1-.29c-1.47-.44-2.93-.88-4.41-1.34-3.05-1-6.12-2-9.15-3h0c-2.16-.74-4.3-1.48-6.41-2.24l0,0c-2-.73-4.06-1.48-6-2.22l-.45-.17c-4-1.52-8-3.11-11.88-4.73C227.14,199.8,216.87,195,207,189.83c-1.47-.77-2.91-1.54-4.37-2.32l-.48-.26c-1.44-.78-2.85-1.55-4.24-2.33L195,190.17l2.79-5.32c-2.85-1.59-5.68-3.21-8.43-4.83-27.53-16.28-44.24-31-46.27-33.55a50.9,50.9,0,0,0-7.67-7.65l-.38-.32c-.23-.18-.46-.36-.7-.53l-.48-.37L133,137c-.82-.58-1.6-1.12-2.38-1.62l-.7-.44-.26-.16c-.56-.34-1.12-.68-1.69-1l-1.18-.65c-.53-.29-1.07-.57-1.6-.84l-1.21-.59c-.6-.29-1.21-.56-1.83-.83l-.29-.13-.73-.31-.45-.19c-.7-1.33-1.46-2.78-2.06-4a76.82,76.82,0,0,1-3.47-9.18l0-.12c-.33-1-.63-2.09-.9-3.12l0-.09c-.29-1.06-.56-2.12-.82-3.2l-5.83,1.42,5.81-1.51c-.27-1.08-.52-2.17-.75-3.23l0-.18c-.25-1.1-.49-2.22-.72-3.32l0-.21q-.36-1.71-.72-3.48l-.38-1.86c-.81-3.94-1.56-8.23-2.45-13.91-.35-2.17-.67-4.33-1-6.49l-.52-3.45c-.38-2.47-.88-5.72-1.43-9-.19-1.17-.4-2.34-.61-3.49l-.2-1.09c-.38-2.05-.79-4-1.2-5.9q-.14-.62-.27-1.2c-.27-1.18-.55-2.34-.85-3.49-.1-.4-.21-.8-.32-1.2-.52-1.93-1.08-3.78-1.66-5.51l-.39-1.12c-.48-1.36-.94-2.57-1.4-3.69-.6-1.43-1.23-2.8-1.88-4.09a45.46,45.46,0,0,0-6.14-9.23,37.59,37.59,0,0,0-4.06-4.23l0,0c-.45-.4-.92-.79-1.36-1.15l-.26-.2c-.42-.33-.86-.66-1.29-1l-.33-.23c-.42-.3-.85-.58-1.33-.89l-.31-.2c-.45-.28-.91-.55-1.42-.84l-.26-.15c-.52-.29-1-.56-1.56-.82L78,15.51A37.82,37.82,0,0,0,74.38,14l-.46-.15-1.37-.45-.65-.18c-.41-.12-.83-.23-1.24-.33l-.72-.17-1.22-.25L68,12.31c-.4-.07-.81-.13-1.24-.18L66,12l-1.36-.11L64,11.87c-.67,0-1.34-.06-2-.06a36.9,36.9,0,0,0-30.2,15.84,14.43,14.43,0,0,0-8,7.41c-3.39,1.79-7.09,4.12-9.63,7.88-1.92,2.86-3.28,7.24-1.33,11a8.14,8.14,0,0,0,7.4,4.27h.64l1.4,0a87.6,87.6,0,0,0,9.86-.74l.29,0a10.5,10.5,0,0,1,1.57-.13,9.67,9.67,0,0,1,3.8.77,9.88,9.88,0,0,1,2.41,1.46,8.42,8.42,0,0,1,.7.64A9.7,9.7,0,0,1,43.69,67a4.34,4.34,0,0,1,0,.58.77.77,0,0,1,0,.15c0,.15,0,.3-.06.43l0,.26c0,.19-.08.38-.12.55l-.07.29c-.08.3-.16.6-.28,1l-.06.2c-.08.26-.17.52-.27.81l-.44,1.23L42,73.2c-.31.78-.62,1.6-.95,2.46v0c-3.18,8.36-6.08,16.84-8.61,25.2,0,0-.44,1.45-.66,2.19-.53,1.79-1.06,3.61-1.57,5.46v0c-6,21.44-9,40.45-9,56.51a81.46,81.46,0,0,0,2.27,19.14c.35,1.46.75,2.91,1.17,4.32C28.65,201.82,36,214,47,225.74l.11.11c10.28,10.88,22.19,19.66,33.6,27.5.49.71,1,1.44,1.62,2.19a4.41,4.41,0,0,0,.46.51c.07.08,7.78,8,9.2,16.29,1.69,10,13,26,17.09,31.65,0,.36,0,.75,0,1.15v0c-.19.32-.38.64-.58.95a36,36,0,0,1-5.18,6.76A13.81,13.81,0,0,1,102,314a41.58,41.58,0,0,1-9.93,1.13A67.07,67.07,0,0,1,80.18,314a17.25,17.25,0,0,0-26,11.22,6.93,6.93,0,0,0,.45,4.18,6.94,6.94,0,0,0,6.87,7.95,7.34,7.34,0,0,0,.81-.05,5.58,5.58,0,0,0,.51.69,6.67,6.67,0,0,0,9.83.4l.16.06a11.14,11.14,0,0,0,6.26,2,10.13,10.13,0,0,0,1.74-.14,10.87,10.87,0,0,0,1.77-.43,10.16,10.16,0,0,0,3.07.5h.79l22.27,0h.68a23.84,23.84,0,0,0,10.07-2.15,13.81,13.81,0,0,0,1.68-.82c.44-.25.87-.56,1.42-1l.83-.58a2,2,0,0,1,.67-.1c1.71,0,4.13,1.21,5.57,1.92l.42.22a19.17,19.17,0,0,0,9.86,2.28,13.57,13.57,0,0,0,8.41-3.27,6.7,6.7,0,0,0,6.2-2.19,6.55,6.55,0,0,0,1.58-4.94l0-.34a12.58,12.58,0,0,0-.5-2.1,6.1,6.1,0,0,0,0-1.35c0-.07,0-.32,0-.38a12.69,12.69,0,0,0-2.8-6.3,11.7,11.7,0,0,0-3.81-3,12.7,12.7,0,0,0-5.89-1.45,12.91,12.91,0,0,0-1.52.09c-.44,0-1.69.07-3.58.07-1.08,0-2.2,0-3.35-.05a24.2,24.2,0,0,0,1.47-2.09Z"/>
    <g>
      <g>
        <g>
          <path class="cls-2" d="M148.16,323.22a6.6,6.6,0,0,0-6.06-2.31,103.15,103.15,0,0,1-10.71-.08c-8-.41-8.76-5.77-8.76-5.77l-1.48,2.39a6.54,6.54,0,0,0-.3-.59c-2.31-4-7.4-3.46-11.3-.94-3.46,2.24-4.76,5.09-2.85,8.74,2.15,4.12,7,6,10.91,3.74.51-.3,2-1.41,2.54-1.69,4.11-2,9,.5,11.77,1.85a13.53,13.53,0,0,0,7.48,1.81c2.3,0,5.87-1.95,5.87-4.37a4.49,4.49,0,0,0-.17-1.22,6.56,6.56,0,0,1,3.38,2.17h0a.63.63,0,0,0,1.12-.46A6.61,6.61,0,0,0,148.16,323.22Z"/>
          <path class="cls-3" d="M79.2,320.85a11.26,11.26,0,0,0-19.13,5.57.93.93,0,0,0,1.58.82c.12-.14.26-.27.39-.41,3.47-3.35,6.53-2.32,10.46-.21a.94.94,0,0,0,1.06-.13,50.76,50.76,0,0,1,6.32-4.87A9.62,9.62,0,0,0,79.2,320.85Z"/>
          <path class="cls-4" d="M120.21,303.72c-3.38-.56-4.76,2.57-6.61,5.56-5,8.18-9,10.3-9,10.3-8.46,2.34-17.73,1.91-27.44,0h0a8.15,8.15,0,0,0-1.91-.11c-2.7.2-5.8,2.75-5.8,5.42s2.75,2.69,5.53,2.69a9.45,9.45,0,0,0,4-.86c1.7,1.91,4.26,3.84,6.26,3.84h22.62s7.35.67,11.54-3.59c2.28-2.33,3.8-7.13,7.07-14.34C130.06,304.44,120.21,303.72,120.21,303.72Z"/>
          <path class="cls-5" d="M107.59,317.1a16.69,16.69,0,0,1-3,2.48c-8.46,2.34-17.73,1.91-27.44,0h0a8.15,8.15,0,0,0-1.91-.11c-2.65.2-5.68,2.66-5.79,5.27,1.66-.69,3.53-.48,5.18-.48,6.71-.27,13.41.71,20.13.41,3.79-.16,7.69-.59,11.15-2.22a11.81,11.81,0,0,0,4.63-3.34C111.61,317.42,111.55,313.22,107.59,317.1Z"/>
          <path class="cls-3" d="M80.44,325.3a8.14,8.14,0,0,0-11.51.18,8,8,0,0,0-2.17,4.29.66.66,0,0,0,1.15.55,2.68,2.68,0,0,1,.28-.3c2.42-2.51,4.65-1.83,7.54-.4a.69.69,0,0,0,.77-.12A35.75,35.75,0,0,1,81,325.84,6.51,6.51,0,0,0,80.44,325.3Z"/>
          <path class="cls-6" d="M83.61,324.66a5.11,5.11,0,1,1-10.1,1.61c-.45-2.78,1.6-5,4.39-5.42S83.16,321.88,83.61,324.66Z"/>
          <path class="cls-6" d="M108.21,321.2l.61,9.34-22.88,0c-2.83,0-5.41-1.46-5.85-4.25a3.48,3.48,0,0,1,1.55-3.8C91.71,323.89,101.13,324,108.21,321.2Z"/>
          <path class="cls-7" d="M145.05,324.75a6.64,6.64,0,0,1,3.42,2.19v0a.64.64,0,0,0,1.14-.48,6.69,6.69,0,0,0-1.47-3.31,5.92,5.92,0,0,0-5.75-2A5.11,5.11,0,0,1,145.05,324.75Z"/>
        </g>
        <path class="cls-8" d="M87.07,251.81s9.1,9.1,10.87,19.53,17.31,30.84,17.31,30.84-.89,8.21,1.55,8.43,16.2.44,9.76-33.51-42.82-33.28-42.82-33.28S82,245.38,87.07,251.81Z"/>
        <g>
          <g>
            <circle class="cls-9" cx="61.57" cy="34.04" r="6.02"/>
            <path class="cls-10" d="M61.57,42.35A8.31,8.31,0,1,1,69.88,34,8.32,8.32,0,0,1,61.57,42.35Zm0-12A3.74,3.74,0,1,0,65.31,34,3.75,3.75,0,0,0,61.57,30.3Z"/>
          </g>
          <path class="cls-2" d="M148.68,327.05a6.62,6.62,0,0,0-6.07-2.31,103.15,103.15,0,0,1-10.71-.08c-8-.41-8.76-5.77-8.76-5.77l-1.47,2.39c-.1-.2-.2-.4-.31-.59-2.31-4-7.4-3.46-11.29-.94-3.46,2.24-4.76,5.09-2.85,8.74,2.15,4.12,6.94,6.05,10.91,3.74.5-.3,2-1.41,2.53-1.69,4.11-2,9.06.5,11.77,1.85a13.55,13.55,0,0,0,7.49,1.81c2.3,0,5.87-1.95,5.87-4.37a4.14,4.14,0,0,0-.18-1.22,6.59,6.59,0,0,1,3.39,2.17h0a.63.63,0,0,0,1.13-.46A6.61,6.61,0,0,0,148.68,327.05Z"/>
          <path class="cls-11" d="M269.19,262.06a223.68,223.68,0,0,1-29.53-14.33S202.77,216.39,158,179.51s-47.78-53.79-53.2-80.17-5.78-55-19-70.08S52.06,64.49,52.06,64.49,27.2,120.2,27.2,165.08s37.72,70.25,62.07,86.83,28.18,47.61,28.18,47.61l1,3.15a22.21,22.21,0,0,0-.72,3.92,6.65,6.65,0,0,0,6.76,6.77c4.07-.21,4.65-.52,7.35-5,4.59-7.58,10.92-13,23.28-38.23,2.62-3.24,67.15,2,67.15,2s86.94,14.21,90.32,11.84C316.35,281.38,287.45,269.51,269.19,262.06Z"/>
          <path class="cls-12" d="M269.19,262.06c-5.75-2.34-10.8-4.62-15-6.65-12.74,5-25.46-.66-37.68-5.39l-6.61.45c4.71,10.27,12.8,17.82,22.45,23.36,23,3.66,77.55,12.08,80.21,10.21C316.35,281.38,287.45,269.51,269.19,262.06Z"/>
          <path class="cls-13" d="M209.88,250.47C173.93,252.68,114.2,252.7,81,232.64c-31.42-19-42.71-32.19-40.4-64.41-4.35.13-12.31-4.82-13.3-6-.08.93-.12,1.89-.12,2.89,0,44.88,37.72,70.25,62.07,86.83C99.66,259,102.12,271.15,106.45,281c5.83,13.22,11,18.86,11,18.86l1,2.83a22.21,22.21,0,0,0-.72,3.92,6.65,6.65,0,0,0,6.76,6.77c4.07-.21,4.65-.52,7.35-5,4.59-7.58,10.92-13,23.28-38.23,2.62-3.23,67.15,2,67.15,2l10.11,1.63C222.68,268.29,214.59,260.74,209.88,250.47Z"/>
          <path class="cls-14" d="M254.17,255.41c-9.22-4.44-14.51-7.68-14.51-7.68S230.59,249,216.49,250C228.71,254.75,241.43,260.37,254.17,255.41Z"/>
          <path class="cls-14" d="M277.19,265.34c4.65,2.8,18.29,11.65-8.12,9.93-8.78-1-2.91,3.78,7.33,5.22,18.39,2.6,34.72,4.55,36.14,3.55C315.83,281.75,294.77,272.59,277.19,265.34Z"/>
          <path class="cls-14" d="M270.14,262.47c14.82,7.69,6.55,8.63-5.66,7.77-11.61-.82-2.59,3.53,10,6.25,19,4.12,34.68,6.92,36.43,6.55,3.77-.78-14.83-9.5-33.33-17.55C275.06,264.41,272.53,263.42,270.14,262.47Z"/>
          <path class="cls-15" d="M62,17.81a30.7,30.7,0,0,0-30.7,30.7c0,1,0,2,.14,2.93a16.07,16.07,0,0,1,2.52-.21A15.77,15.77,0,0,1,49.69,67c0,3.11-1.37,6.54-3,10.83-.32.82,8.44,1.49,9.19,1.54,14,1,28.77-5.71,34.46-19.13a30.29,30.29,0,0,0,2.35-11.73A30.71,30.71,0,0,0,62,17.81Zm-.52,21.27a5,5,0,1,1,5-5A5,5,0,0,1,61.44,39.08Z"/>
          <path class="cls-16" d="M113.21,128.77c-4.12-9-6-17.67-8-27.62-.13-.6-.25-1.2-.38-1.81-5.41-26.39-5.78-55-19-70.08l0,0A30.69,30.69,0,0,0,31.26,48.51c0,1,0,2,.14,2.93a16.07,16.07,0,0,1,2.52-.21A15.77,15.77,0,0,1,49.69,67c0,2.46-.86,5.12-2,8.23q-.46,1.18-1,2.49l0,.11h0c-2.85,7.49-6.44,17.63-9.75,29.07-5,17.19-9.33,37.32-9.68,55.83,29.26,25.52,90.08-26.18,90.08-26.18S114.78,132,113.21,128.77ZM61.44,29.12a5,5,0,1,1-5,5A5,5,0,0,1,61.44,29.12Z"/>
          <path class="cls-7" d="M20.23,52.16c-3.58,0-2.48-3.91-1.16-5.87,2.36-3.51,6.57-5.49,10.21-7.35q2.91-1.48,5.89-2.8c.35-.15,1.45-4.21,2.55-1.09,2.2,6.19,9.38,8.55,9.38,8.55C40.39,45.32,33,47.51,31.39,51.44a83.5,83.5,0,0,1-9.31.71Z"/>
          <path class="cls-3" d="M79.72,324.68a11.26,11.26,0,0,0-19.13,5.57.92.92,0,0,0,1.57.82l.4-.41c3.46-3.35,6.52-2.32,10.45-.21a.94.94,0,0,0,1.06-.13,50.82,50.82,0,0,1,6.33-4.87C80.19,325.19,80,324.93,79.72,324.68Z"/>
          <path class="cls-4" d="M120.72,307.56c-3.38-.57-4.76,2.57-6.6,5.55-5.05,8.18-9,10.3-9,10.3-8.45,2.34-17.72,1.92-27.44,0h0a8.15,8.15,0,0,0-1.91-.11c-2.71.21-5.8,2.76-5.8,5.42s2.74,2.69,5.52,2.69a9.53,9.53,0,0,0,4-.86c1.69,1.91,4.25,3.84,6.26,3.84h22.61s7.36.67,11.54-3.59c2.29-2.33,3.8-7.13,7.07-14.34C130.58,308.27,120.72,307.56,120.72,307.56Z"/>
          <path class="cls-5" d="M108.1,320.94a15.86,15.86,0,0,1-3,2.47c-8.45,2.34-17.72,1.92-27.44,0h0a8.15,8.15,0,0,0-1.91-.11c-2.66.2-5.68,2.66-5.79,5.27,1.66-.69,3.52-.48,5.17-.48,6.72-.27,13.42.71,20.14.41a29,29,0,0,0,11.15-2.22,12,12,0,0,0,4.63-3.34C112.12,321.25,112.06,317.05,108.1,320.94Z"/>
          <path class="cls-3" d="M81,329.13a8.13,8.13,0,0,0-13.68,4.47.67.67,0,0,0,1.16.55l.27-.3c2.43-2.51,4.66-1.83,7.55-.4a.67.67,0,0,0,.76-.12,37.27,37.27,0,0,1,4.45-3.66A6.51,6.51,0,0,0,81,329.13Z"/>
          <path class="cls-6" d="M84.12,328.5A5.11,5.11,0,1,1,74,330.1c-.44-2.78,1.6-5,4.39-5.42S83.68,325.71,84.12,328.5Z"/>
          <path class="cls-6" d="M108.72,325l.61,9.34-22.88,0c-2.82,0-5.41-1.46-5.85-4.25a3.5,3.5,0,0,1,1.55-3.8C92.23,327.72,101.65,327.87,108.72,325Z"/>
          <path class="cls-17" d="M138.38,150.22c-9.8-12.23-27-19.52-44.16-18.33a50.21,50.21,0,0,0-36.46,19.45c-7-.43-12.76,2.34-16.21,10.71-8.1,19.7,6.75,43.51,24.83,55.86h0c24.57,16.67,51,22.93,59.67,24,21.71,2.63,42.58,1.65,56.59-3.64,35.38,7.32,107.88.33,117.79-5.95.55-.36.5-1.75-1.05-2.1C203.48,208.43,143,156,138.38,150.22Z"/>
          <path class="cls-14" d="M299.38,230.2a390,390,0,0,1-39-11c-20.78,9.51-45.39,16.06-69,20.51,37.38,4.81,99.86-1.59,109-7.39C301,231.94,300.93,230.55,299.38,230.2Z"/>
          <path class="cls-15" d="M260.41,219.18c-20.78,9.51-45.39,16.06-69,20.51,33.72,1.68,73.83-4.31,83-10.11C275,229.22,272.64,223.33,260.41,219.18Z"/>
          <path class="cls-18" d="M235.2,209.66c-40.65,18.18-95.27,25.3-128.6,27.65,28.3,9.23,56,7.81,84.82,2.38,23.6-4.45,48.21-11,69-20.51C251.59,216.19,243.18,213,235.2,209.66Z"/>
          <path class="cls-19" d="M145.26,231.05a.19.19,0,0,0-.13.07Z"/>
          <path class="cls-20" d="M40.39,37.72c.47,1.92,2.17,2.72,2.18,3.25,0,1.47-4.58,2.34-7,2.57-2.92.29-6.76-.35-7-3.28s3.23-7.32,7.19-7.3C38.7,33,39.71,34.86,40.39,37.72Z"/>
          <path class="cls-21" d="M61.45,41.24a7.09,7.09,0,1,1,7.09-7.09A7.1,7.1,0,0,1,61.45,41.24Zm0-12a5,5,0,1,0,5,5A5,5,0,0,0,61.45,29.19Z"/>
          <circle cx="61.45" cy="33.98" r="2.49"/>
          <circle class="cls-21" cx="61.92" cy="33.02" r="1.13"/>
          <path class="cls-22" d="M30.41,43.57a5.24,5.24,0,0,1-2.43.16c-1-.29-1.38-.75-1.25-1.2s.71-.75,1.73-.46A4.85,4.85,0,0,1,30.41,43.57Z"/>
          <circle class="cls-21" cx="54.36" cy="36" r="2.13"/>
          <path class="cls-23" d="M127.55,235.42A38.16,38.16,0,0,1,113,227.77c9.13,3.54,17.06,5.77,23.7,6.57Z"/>
          <path class="cls-23" d="M148.39,232.64c-5.47-1.49-11.65-6.27-13.82-9.25,11.62,5.67,16.4,6.74,24.51,7.66Z"/>
          <path class="cls-23" d="M170,229.06c-4.48-1.52-12.42-5.67-16-11.34a70.73,70.73,0,0,0,26.47,9.17Z"/>
          <path class="cls-23" d="M192.62,224c-6.5-1.6-14.92-7.08-20.49-13,9.1,5.25,19.83,9.29,29.87,10.51Z"/>
          <path class="cls-23" d="M215.47,217.32c-6.5-1.6-18.46-8-23.22-15.64,10.5,7.24,23.24,11.48,31.9,12.53C221.64,215.17,218.07,216.47,215.47,217.32Z"/>
          <path class="cls-14" d="M260.57,278.19c-13.65-2.66-31.55-9.71-38.46-20.65,26.5,10.29,43.28,13.16,54.56,12.37,3.39.8,2.42,11,2.42,11S266.28,279,260.57,278.19Z"/>
          <path class="cls-23" d="M90.78,221.28c-4.36-.74-10.23-3.95-14.16-7.35,10.83,3.44,17.2,5.21,23.4,5.24Z"/>
          <path class="cls-23" d="M110.88,216.47c-5-.84-12.74-6.56-14.28-9.26,10.09,4.25,16.71,6.56,24.3,6.53Z"/>
          <path class="cls-23" d="M131.81,210.45c-4-1-12.59-5.4-15-10.58,8.51,4.44,18.38,7,25.42,7.08Z"/>
          <path class="cls-24" d="M153.17,267.91a77,77,0,0,1-9.49,14.59c1.4-4.17,2.68-9.59,2-13.67a110.14,110.14,0,0,1-7.46,12.63,42.27,42.27,0,0,0-.27-12.39c-2.32,4.53-4.56,9.17-6.68,13a107.42,107.42,0,0,0-2.16-14,113.39,113.39,0,0,0-5.19,13.11c-1.4-4.37-2.7-9.84-4.17-15.11-1.84,3.83-2.62,8.61-3.08,12.5a116.33,116.33,0,0,1-5.59-15.4c-1.5,3.42-1.47,8.34-1,12.42a83.05,83.05,0,0,1-6.7-16c-1,2.72-.49,7.08.54,11.09.68,1.77.46,4.12,1,5.87,3.35,10.68,12.57,23.26,12.57,23.26l1,2.83a22.21,22.21,0,0,0-.72,3.92,6.65,6.65,0,0,0,6.76,6.77c4.07-.21,4.65-.52,7.35-5,3.26-5.38,14-18.41,19.41-31.2C152.54,273.89,153.45,270.46,153.17,267.91Z"/>
          <path class="cls-23" d="M154.05,202.44c-5.93-.83-14.53-6.09-18.8-11.32,7.76,4.13,18.51,7.32,27.87,7.35Z"/>
          <path class="cls-23" d="M175,192.33c-5.92-.83-16.21-5.76-19.41-12.75a54.19,54.19,0,0,0,28.25,8.67C181.28,189.49,177.65,191.19,175,192.33Z"/>
          <path class="cls-18" d="M186.28,185.18c-27.1,19.69-72.47,31.72-109.66,39,4.22,2.37,8.42,4.47,12.5,6.31a267,267,0,0,0,115.1-35.39C197.81,191.81,191.83,188.46,186.28,185.18Z"/>
          <path class="cls-25" d="M94.22,131.89a50.21,50.21,0,0,0-36.46,19.45c-7-.43-12.76,2.34-16.21,10.71a30.35,30.35,0,0,0-2.06,8.1,23.11,23.11,0,0,1,20.41-12.5,22.61,22.61,0,0,1,7,1.11,59.2,59.2,0,0,1,64.37-15.56A54.47,54.47,0,0,0,94.22,131.89Z"/>
          <path class="cls-7" d="M145.56,328.58a6.6,6.6,0,0,1,3.42,2.19l0,0a.64.64,0,0,0,1.14-.47,6.69,6.69,0,0,0-1.48-3.32,5.91,5.91,0,0,0-5.75-2A5.11,5.11,0,0,1,145.56,328.58Z"/>
        </g>
      </g>
      <g>
        <g>
          <path class="cls-2" d="M148.16,323.22a6.6,6.6,0,0,0-6.06-2.31,103.15,103.15,0,0,1-10.71-.08c-8-.41-8.76-5.77-8.76-5.77l-1.48,2.39a6.54,6.54,0,0,0-.3-.59c-2.31-4-7.4-3.46-11.3-.94-3.46,2.24-4.76,5.09-2.85,8.74,2.15,4.12,7,6,10.91,3.74.51-.3,2-1.41,2.54-1.69,4.11-2,9,.5,11.77,1.85a13.53,13.53,0,0,0,7.48,1.81c2.3,0,5.87-1.95,5.87-4.37a4.49,4.49,0,0,0-.17-1.22,6.56,6.56,0,0,1,3.38,2.17h0a.63.63,0,0,0,1.12-.46A6.61,6.61,0,0,0,148.16,323.22Z"/>
          <path class="cls-3" d="M79.2,320.85a11.26,11.26,0,0,0-19.13,5.57.93.93,0,0,0,1.58.82c.12-.14.26-.27.39-.41,3.47-3.35,6.53-2.32,10.46-.21a.94.94,0,0,0,1.06-.13,50.76,50.76,0,0,1,6.32-4.87A9.62,9.62,0,0,0,79.2,320.85Z"/>
          <path class="cls-4" d="M120.21,303.72c-3.38-.56-4.76,2.57-6.61,5.56-5,8.18-9,10.3-9,10.3-8.46,2.34-17.73,1.91-27.44,0h0a8.15,8.15,0,0,0-1.91-.11c-2.7.2-5.8,2.75-5.8,5.42s2.75,2.69,5.53,2.69a9.45,9.45,0,0,0,4-.86c1.7,1.91,4.26,3.84,6.26,3.84h22.62s7.35.67,11.54-3.59c2.28-2.33,3.8-7.13,7.07-14.34C130.06,304.44,120.21,303.72,120.21,303.72Z"/>
          <path class="cls-5" d="M107.59,317.1a16.69,16.69,0,0,1-3,2.48c-8.46,2.34-17.73,1.91-27.44,0h0a8.15,8.15,0,0,0-1.91-.11c-2.65.2-5.68,2.66-5.79,5.27,1.66-.69,3.53-.48,5.18-.48,6.71-.27,13.41.71,20.13.41,3.79-.16,7.69-.59,11.15-2.22a11.81,11.81,0,0,0,4.63-3.34C111.61,317.42,111.55,313.22,107.59,317.1Z"/>
          <path class="cls-3" d="M80.44,325.3a8.14,8.14,0,0,0-11.51.18,8,8,0,0,0-2.17,4.29.66.66,0,0,0,1.15.55,2.68,2.68,0,0,1,.28-.3c2.42-2.51,4.65-1.83,7.54-.4a.69.69,0,0,0,.77-.12A35.75,35.75,0,0,1,81,325.84,6.51,6.51,0,0,0,80.44,325.3Z"/>
          <path class="cls-6" d="M83.61,324.66a5.11,5.11,0,1,1-10.1,1.61c-.45-2.78,1.6-5,4.39-5.42S83.16,321.88,83.61,324.66Z"/>
          <path class="cls-6" d="M108.21,321.2l.61,9.34-22.88,0c-2.83,0-5.41-1.46-5.85-4.25a3.48,3.48,0,0,1,1.55-3.8C91.71,323.89,101.13,324,108.21,321.2Z"/>
          <path class="cls-7" d="M145.05,324.75a6.64,6.64,0,0,1,3.42,2.19v0a.64.64,0,0,0,1.14-.48,6.69,6.69,0,0,0-1.47-3.31,5.92,5.92,0,0,0-5.75-2A5.11,5.11,0,0,1,145.05,324.75Z"/>
        </g>
        <path class="cls-8" d="M87.07,251.81s9.1,9.1,10.87,19.53,17.31,30.84,17.31,30.84-.89,8.21,1.55,8.43,16.2.44,9.76-33.51-42.82-33.28-42.82-33.28S82,245.38,87.07,251.81Z"/>
        <g>
          <g>
            <circle class="cls-9" cx="61.57" cy="34.04" r="6.02"/>
            <path class="cls-10" d="M61.57,42.35A8.31,8.31,0,1,1,69.88,34,8.32,8.32,0,0,1,61.57,42.35Zm0-12A3.74,3.74,0,1,0,65.31,34,3.75,3.75,0,0,0,61.57,30.3Z"/>
          </g>
          <path class="cls-2" d="M148.68,327.05a6.62,6.62,0,0,0-6.07-2.31,103.15,103.15,0,0,1-10.71-.08c-8-.41-8.76-5.77-8.76-5.77l-1.47,2.39c-.1-.2-.2-.4-.31-.59-2.31-4-7.4-3.46-11.29-.94-3.46,2.24-4.76,5.09-2.85,8.74,2.15,4.12,6.94,6.05,10.91,3.74.5-.3,2-1.41,2.53-1.69,4.11-2,9.06.5,11.77,1.85a13.55,13.55,0,0,0,7.49,1.81c2.3,0,5.87-1.95,5.87-4.37a4.14,4.14,0,0,0-.18-1.22,6.59,6.59,0,0,1,3.39,2.17h0a.63.63,0,0,0,1.13-.46A6.61,6.61,0,0,0,148.68,327.05Z"/>
          <path class="cls-11" d="M269.19,262.06a223.68,223.68,0,0,1-29.53-14.33S202.77,216.39,158,179.51s-47.78-53.79-53.2-80.17-5.78-55-19-70.08S52.06,64.49,52.06,64.49,27.2,120.2,27.2,165.08s37.72,70.25,62.07,86.83,28.18,47.61,28.18,47.61l1,3.15a22.21,22.21,0,0,0-.72,3.92,6.65,6.65,0,0,0,6.76,6.77c4.07-.21,4.65-.52,7.35-5,4.59-7.58,10.92-13,23.28-38.23,2.62-3.24,67.15,2,67.15,2s86.94,14.21,90.32,11.84C316.35,281.38,287.45,269.51,269.19,262.06Z"/>
          <path class="cls-12" d="M269.19,262.06c-5.75-2.34-10.8-4.62-15-6.65-12.74,5-25.46-.66-37.68-5.39l-6.61.45c4.71,10.27,12.8,17.82,22.45,23.36,23,3.66,77.55,12.08,80.21,10.21C316.35,281.38,287.45,269.51,269.19,262.06Z"/>
          <path class="cls-13" d="M209.88,250.47C173.93,252.68,114.2,252.7,81,232.64c-31.42-19-42.71-32.19-40.4-64.41-4.35.13-12.31-4.82-13.3-6-.08.93-.12,1.89-.12,2.89,0,44.88,37.72,70.25,62.07,86.83C99.66,259,102.12,271.15,106.45,281c5.83,13.22,11,18.86,11,18.86l1,2.83a22.21,22.21,0,0,0-.72,3.92,6.65,6.65,0,0,0,6.76,6.77c4.07-.21,4.65-.52,7.35-5,4.59-7.58,10.92-13,23.28-38.23,2.62-3.23,67.15,2,67.15,2l10.11,1.63C222.68,268.29,214.59,260.74,209.88,250.47Z"/>
          <path class="cls-14" d="M254.17,255.41c-9.22-4.44-14.51-7.68-14.51-7.68S230.59,249,216.49,250C228.71,254.75,241.43,260.37,254.17,255.41Z"/>
          <path class="cls-14" d="M277.19,265.34c4.65,2.8,18.29,11.65-8.12,9.93-8.78-1-2.91,3.78,7.33,5.22,18.39,2.6,34.72,4.55,36.14,3.55C315.83,281.75,294.77,272.59,277.19,265.34Z"/>
          <path class="cls-14" d="M270.14,262.47c14.82,7.69,6.55,8.63-5.66,7.77-11.61-.82-2.59,3.53,10,6.25,19,4.12,34.68,6.92,36.43,6.55,3.77-.78-14.83-9.5-33.33-17.55C275.06,264.41,272.53,263.42,270.14,262.47Z"/>
          <path class="cls-15" d="M62,17.81a30.7,30.7,0,0,0-30.7,30.7c0,1,0,2,.14,2.93a16.07,16.07,0,0,1,2.52-.21A15.77,15.77,0,0,1,49.69,67c0,3.11-1.37,6.54-3,10.83-.32.82,8.44,1.49,9.19,1.54,14,1,28.77-5.71,34.46-19.13a30.29,30.29,0,0,0,2.35-11.73A30.71,30.71,0,0,0,62,17.81Zm-.52,21.27a5,5,0,1,1,5-5A5,5,0,0,1,61.44,39.08Z"/>
          <path class="cls-16" d="M113.21,128.77c-4.12-9-6-17.67-8-27.62-.13-.6-.25-1.2-.38-1.81-5.41-26.39-5.78-55-19-70.08l0,0A30.69,30.69,0,0,0,31.26,48.51c0,1,0,2,.14,2.93a16.07,16.07,0,0,1,2.52-.21A15.77,15.77,0,0,1,49.69,67c0,2.46-.86,5.12-2,8.23q-.46,1.18-1,2.49l0,.11h0c-2.85,7.49-6.44,17.63-9.75,29.07-5,17.19-9.33,37.32-9.68,55.83,29.26,25.52,90.08-26.18,90.08-26.18S114.78,132,113.21,128.77ZM61.44,29.12a5,5,0,1,1-5,5A5,5,0,0,1,61.44,29.12Z"/>
          <path class="cls-7" d="M20.23,52.16c-3.58,0-2.48-3.91-1.16-5.87,2.36-3.51,6.57-5.49,10.21-7.35q2.91-1.48,5.89-2.8c.35-.15,1.45-4.21,2.55-1.09,2.2,6.19,9.38,8.55,9.38,8.55C40.39,45.32,33,47.51,31.39,51.44a83.5,83.5,0,0,1-9.31.71Z"/>
          <path class="cls-3" d="M79.72,324.68a11.26,11.26,0,0,0-19.13,5.57.92.92,0,0,0,1.57.82l.4-.41c3.46-3.35,6.52-2.32,10.45-.21a.94.94,0,0,0,1.06-.13,50.82,50.82,0,0,1,6.33-4.87C80.19,325.19,80,324.93,79.72,324.68Z"/>
          <path class="cls-4" d="M120.72,307.56c-3.38-.57-4.76,2.57-6.6,5.55-5.05,8.18-9,10.3-9,10.3-8.45,2.34-17.72,1.92-27.44,0h0a8.15,8.15,0,0,0-1.91-.11c-2.71.21-5.8,2.76-5.8,5.42s2.74,2.69,5.52,2.69a9.53,9.53,0,0,0,4-.86c1.69,1.91,4.25,3.84,6.26,3.84h22.61s7.36.67,11.54-3.59c2.29-2.33,3.8-7.13,7.07-14.34C130.58,308.27,120.72,307.56,120.72,307.56Z"/>
          <path class="cls-5" d="M108.1,320.94a15.86,15.86,0,0,1-3,2.47c-8.45,2.34-17.72,1.92-27.44,0h0a8.15,8.15,0,0,0-1.91-.11c-2.66.2-5.68,2.66-5.79,5.27,1.66-.69,3.52-.48,5.17-.48,6.72-.27,13.42.71,20.14.41a29,29,0,0,0,11.15-2.22,12,12,0,0,0,4.63-3.34C112.12,321.25,112.06,317.05,108.1,320.94Z"/>
          <path class="cls-3" d="M81,329.13a8.13,8.13,0,0,0-13.68,4.47.67.67,0,0,0,1.16.55l.27-.3c2.43-2.51,4.66-1.83,7.55-.4a.67.67,0,0,0,.76-.12,37.27,37.27,0,0,1,4.45-3.66A6.51,6.51,0,0,0,81,329.13Z"/>
          <path class="cls-6" d="M84.12,328.5A5.11,5.11,0,1,1,74,330.1c-.44-2.78,1.6-5,4.39-5.42S83.68,325.71,84.12,328.5Z"/>
          <path class="cls-6" d="M108.72,325l.61,9.34-22.88,0c-2.82,0-5.41-1.46-5.85-4.25a3.5,3.5,0,0,1,1.55-3.8C92.23,327.72,101.65,327.87,108.72,325Z"/>
          <path class="cls-17" d="M138.38,150.22c-9.8-12.23-27-19.52-44.16-18.33a50.21,50.21,0,0,0-36.46,19.45c-7-.43-12.76,2.34-16.21,10.71-8.1,19.7,6.75,43.51,24.83,55.86h0c24.57,16.67,51,22.93,59.67,24,21.71,2.63,42.58,1.65,56.59-3.64,35.38,7.32,107.88.33,117.79-5.95.55-.36.5-1.75-1.05-2.1C203.48,208.43,143,156,138.38,150.22Z"/>
          <path class="cls-14" d="M299.38,230.2a390,390,0,0,1-39-11c-20.78,9.51-45.39,16.06-69,20.51,37.38,4.81,99.86-1.59,109-7.39C301,231.94,300.93,230.55,299.38,230.2Z"/>
          <path class="cls-15" d="M260.41,219.18c-20.78,9.51-45.39,16.06-69,20.51,33.72,1.68,73.83-4.31,83-10.11C275,229.22,272.64,223.33,260.41,219.18Z"/>
          <path class="cls-18" d="M235.2,209.66c-40.65,18.18-95.27,25.3-128.6,27.65,28.3,9.23,56,7.81,84.82,2.38,23.6-4.45,48.21-11,69-20.51C251.59,216.19,243.18,213,235.2,209.66Z"/>
          <path class="cls-19" d="M145.26,231.05a.19.19,0,0,0-.13.07Z"/>
          <path class="cls-20" d="M40.39,37.72c.47,1.92,2.17,2.72,2.18,3.25,0,1.47-4.58,2.34-7,2.57-2.92.29-6.76-.35-7-3.28s3.23-7.32,7.19-7.3C38.7,33,39.71,34.86,40.39,37.72Z"/>
          <path class="cls-21" d="M61.45,41.24a7.09,7.09,0,1,1,7.09-7.09A7.1,7.1,0,0,1,61.45,41.24Zm0-12a5,5,0,1,0,5,5A5,5,0,0,0,61.45,29.19Z"/>
          <circle cx="61.45" cy="33.98" r="2.49"/>
          <circle class="cls-21" cx="61.92" cy="33.02" r="1.13"/>
          <path class="cls-22" d="M30.41,43.57a5.24,5.24,0,0,1-2.43.16c-1-.29-1.38-.75-1.25-1.2s.71-.75,1.73-.46A4.85,4.85,0,0,1,30.41,43.57Z"/>
          <circle class="cls-21" cx="54.36" cy="36" r="2.13"/>
          <path class="cls-23" d="M127.55,235.42A38.16,38.16,0,0,1,113,227.77c9.13,3.54,17.06,5.77,23.7,6.57Z"/>
          <path class="cls-23" d="M148.39,232.64c-5.47-1.49-11.65-6.27-13.82-9.25,11.62,5.67,16.4,6.74,24.51,7.66Z"/>
          <path class="cls-23" d="M170,229.06c-4.48-1.52-12.42-5.67-16-11.34a70.73,70.73,0,0,0,26.47,9.17Z"/>
          <path class="cls-23" d="M192.62,224c-6.5-1.6-14.92-7.08-20.49-13,9.1,5.25,19.83,9.29,29.87,10.51Z"/>
          <path class="cls-23" d="M215.47,217.32c-6.5-1.6-18.46-8-23.22-15.64,10.5,7.24,23.24,11.48,31.9,12.53C221.64,215.17,218.07,216.47,215.47,217.32Z"/>
          <path class="cls-14" d="M260.57,278.19c-13.65-2.66-31.55-9.71-38.46-20.65,26.5,10.29,43.28,13.16,54.56,12.37,3.39.8,2.42,11,2.42,11S266.28,279,260.57,278.19Z"/>
          <path class="cls-23" d="M90.78,221.28c-4.36-.74-10.23-3.95-14.16-7.35,10.83,3.44,17.2,5.21,23.4,5.24Z"/>
          <path class="cls-23" d="M110.88,216.47c-5-.84-12.74-6.56-14.28-9.26,10.09,4.25,16.71,6.56,24.3,6.53Z"/>
          <path class="cls-23" d="M131.81,210.45c-4-1-12.59-5.4-15-10.58,8.51,4.44,18.38,7,25.42,7.08Z"/>
          <path class="cls-24" d="M153.17,267.91a77,77,0,0,1-9.49,14.59c1.4-4.17,2.68-9.59,2-13.67a110.14,110.14,0,0,1-7.46,12.63,42.27,42.27,0,0,0-.27-12.39c-2.32,4.53-4.56,9.17-6.68,13a107.42,107.42,0,0,0-2.16-14,113.39,113.39,0,0,0-5.19,13.11c-1.4-4.37-2.7-9.84-4.17-15.11-1.84,3.83-2.62,8.61-3.08,12.5a116.33,116.33,0,0,1-5.59-15.4c-1.5,3.42-1.47,8.34-1,12.42a83.05,83.05,0,0,1-6.7-16c-1,2.72-.49,7.08.54,11.09.68,1.77.46,4.12,1,5.87,3.35,10.68,12.57,23.26,12.57,23.26l1,2.83a22.21,22.21,0,0,0-.72,3.92,6.65,6.65,0,0,0,6.76,6.77c4.07-.21,4.65-.52,7.35-5,3.26-5.38,14-18.41,19.41-31.2C152.54,273.89,153.45,270.46,153.17,267.91Z"/>
          <path class="cls-23" d="M154.05,202.44c-5.93-.83-14.53-6.09-18.8-11.32,7.76,4.13,18.51,7.32,27.87,7.35Z"/>
          <path class="cls-23" d="M175,192.33c-5.92-.83-16.21-5.76-19.41-12.75a54.19,54.19,0,0,0,28.25,8.67C181.28,189.49,177.65,191.19,175,192.33Z"/>
          <path class="cls-18" d="M186.28,185.18c-27.1,19.69-72.47,31.72-109.66,39,4.22,2.37,8.42,4.47,12.5,6.31a267,267,0,0,0,115.1-35.39C197.81,191.81,191.83,188.46,186.28,185.18Z"/>
          <path class="cls-25" d="M94.22,131.89a50.21,50.21,0,0,0-36.46,19.45c-7-.43-12.76,2.34-16.21,10.71a30.35,30.35,0,0,0-2.06,8.1,23.11,23.11,0,0,1,20.41-12.5,22.61,22.61,0,0,1,7,1.11,59.2,59.2,0,0,1,64.37-15.56A54.47,54.47,0,0,0,94.22,131.89Z"/>
          <path class="cls-7" d="M145.56,328.58a6.6,6.6,0,0,1,3.42,2.19l0,0a.64.64,0,0,0,1.14-.47,6.69,6.69,0,0,0-1.48-3.32,5.91,5.91,0,0,0-5.75-2A5.11,5.11,0,0,1,145.56,328.58Z"/>
        </g>
      </g>
    </g>
  </g>
</svg>
