<svg id="Layer_1" data-name="Layer 1" xmlns="http://www.w3.org/2000/svg" width="535.33" height="248.96" viewBox="0 0 535.33 248.96">
  <defs>
    <style>
      .cls-1 {
        fill: #ff0;
      }

      .cls-2 {
        fill: #302c29;
      }

      .cls-3 {
        fill: #ff6252;
      }

      .cls-4 {
        fill: #ab2727;
      }

      .cls-5 {
        fill: #f3422f;
      }

      .cls-6 {
        fill: #8acbd9;
      }

      .cls-7 {
        fill: #454a50;
      }

      .cls-8 {
        fill: #373f43;
      }

      .cls-9 {
        fill: #c02e23;
      }

      .cls-10 {
        fill: #dc3428;
      }

      .cls-11 {
        fill: #565d64;
      }

      .cls-12 {
        fill: #1b2226;
      }

      .cls-13 {
        fill: #453e3b;
      }

      .cls-14 {
        fill: #292523;
      }

      .cls-15 {
        fill: #6c5e55;
      }

      .cls-16 {
        fill: #172026;
      }

      .cls-17 {
        fill: #a4c8cf;
      }

      .cls-18 {
        fill: #728b90;
      }

      .cls-19, .cls-21, .cls-24, .cls-25, .cls-26 {
        fill: #fff;
      }

      .cls-19 {
        opacity: 0.2;
      }

      .cls-20 {
        fill: #c72929;
      }

      .cls-21 {
        opacity: 0.7;
      }

      .cls-22 {
        fill: #2b3236;
      }

      .cls-23 {
        opacity: 0.3;
      }

      .cls-25, .cls-32 {
        opacity: 0.9;
      }

      .cls-26 {
        opacity: 0.5;
      }

      .cls-27 {
        fill: #f1a03e;
      }

      .cls-28 {
        fill: #d4dee6;
      }

      .cls-29 {
        fill: #51575d;
      }

      .cls-30 {
        fill: #8b98a1;
      }

      .cls-31 {
        fill: #b62219;
      }

      .cls-32 {
        fill: #8c8c8c;
      }
    </style>
  </defs>
  <g>
    <path class="cls-1" d="M530.17,174.07l.05-.56.18-2.26c0-.63.07-1.27.1-1.9l.06-1c0-.72.05-1.46.07-2.19l0-.75a124.57,124.57,0,0,0-1.4-21.17,57.43,57.43,0,0,0,.65-12c-.87-14.77-4.34-23.83-10.6-27.69a12.4,12.4,0,0,0-3.54-1.65c-8.68-17-21.1-33.15-37-48.13-4-3.74-8.14-7.42-12.49-11,1.36-4,2.11-9.16-.27-14-1.4-2.84-4.48-6.6-11.22-8.38-.68-.17-1.68-.47-3-.86a284.37,284.37,0,0,0-35.57-8.46,10.29,10.29,0,0,0-1.8-.46l-1.28-.21a519.55,519.55,0,0,0-84.07-6.83C266.23,4.65,176.61,16.33,106.8,72c-1.92,1.52-3.89,3.14-6,4.92-2.88.77-6.07,1.51-9.42,2.28l-3.23.75-2.63.63-.22,0-2.52.63-.68.18c-.7.17-1.39.35-2.08.54l-1.24.34-1.6.44-1.3.39-1.56.46L72.9,84l-1.45.47-.81.27L70,85l-1.52.52L67,86.07l-1.46.55L64.7,87l-.74.31-1.38.56-.95.42-.65.3-1.38.62-.92.45-.53.26c-.5.24-1,.48-1.5.74q-.48.24-1,.51l-.58.31-1.42.77-1,.57-.55.32-1.4.84-1,.65-.53.34c-.45.3-.9.59-1.35.9l-1.1.78-.44.32-1.3.94c-.4.3-.79.61-1.19.93l-.23.18-.41.09a8.39,8.39,0,0,0-.85.23l-.15,0a19.68,19.68,0,0,0-3.44,1.56l-.48.28-.51.31-.39.24-.71.46-.32.22-.81.56-.27.19-1.11.83,0,0-1.05.83-1.08.9-.54.47-.57.52-.54.49-1.07,1a44,44,0,0,0-8.77,11.93,24.55,24.55,0,0,0-2.33,16A121.15,121.15,0,0,0,14,151.57a27,27,0,0,0-3.76,5.76c-.4.8-.74,1.55-1,2.2a65,65,0,0,0-3.91,13.94A46.45,46.45,0,0,0,4.88,186,43.94,43.94,0,0,0,13,207.46l.66.91c.21.27.43.54.65.79l.26.31c.15.19.31.39.49.6.41.47.84.93,1.27,1.39l.17.18.55.58c.48.48,1,.94,1.49,1.39l.1.1.48.44c.71.61,1.38,1.15,2.06,1.65l.15.11a34.51,34.51,0,0,0,17.64,6.82,28.13,28.13,0,0,0,3.83,6l.44.57c7.24,9.52,17.54,15,28.26,15h3.77l23-.1.51,0c11.23-1,21.32-7.83,28-18.6l.15.25c.46.73,1,1.48,1.6,2.31.18.27.38.54.54.75.52.68,1.1,1.39,1.77,2.16l.43.49a41.24,41.24,0,0,0,4.41,4.25l.25.21c.33.27.66.53,1,.77l.48.36c.32.24.65.48,1,.7l.48.33a38,38,0,0,0,3.54,2.07l.5.25c.36.18.72.34,1.06.5l.57.25c.38.16.76.32,1.12.45l.5.19a34.88,34.88,0,0,0,4.36,1.27l.11,0c.47.1,1,.19,1.5.28l.27,0c.47.08.95.14,1.5.2l.2,0a31.73,31.73,0,0,0,3.23.18h30.84a22.81,22.81,0,0,0,2.57-.15c10.07-1.13,18.95-8.83,24.34-20.87H316.63a26.9,26.9,0,0,0,3.77,6l.38.48c7.25,9.52,17.55,15,28.25,15h3.75l23.07-.1.52,0c11.84-1.08,22.43-8.62,29-20.38a46.92,46.92,0,0,0,3.38,5.1c7,9.11,16.39,14.4,26.61,14.92a4.92,4.92,0,0,0,.67,0h.4l.58,0,.54,0h2.79l.42,0H463a6.28,6.28,0,0,0,1.24-.13h.06c12-1.08,22.72-8.79,29.27-20.88h13.45a7.35,7.35,0,0,0,1.7-.2l.36-.09.34-.1.28-.09.39-.16.44-.2c.21-.1.43-.21.65-.34l.44-.26c.29-.19.59-.4,1-.69l.12-.09c.24-.2.49-.41.71-.61l.12-.11a22.28,22.28,0,0,0,2.42-2.68c5.19-6.69,12-21.68,14.06-41.92C530,175.32,530.15,174.35,530.17,174.07Z"/>
    <g>
      <path class="cls-2" d="M48,215.86h77c-.2.48-.39,1-.6,1.44-5.22,11.73-14.87,19.88-26.08,20.91l-23,.1H71.45c-9.23,0-17.56-4.83-23.48-12.62-1.93-2.51-4-4.76-4.95-9.83Z"/>
      <path class="cls-2" d="M325.55,215.86H402.5c-.2.48-.39,1-.6,1.44C396.67,229,387,237.18,375.82,238.21l-23,.1H349c-9.23,0-17.55-4.83-23.48-12.62-1.93-2.51-3.5-4.32-4.64-8.83Z"/>
      <path class="cls-3" d="M10.85,185.43a38,38,0,0,0,6.92,18.46l.59.81a32.79,32.79,0,0,0,6.5,6.4h0a28.48,28.48,0,0,0,17,5.76H432.72V117.94l-84-72.31s78.05-25.85,64.74-28c-13.05-2.11-186.17-34-303,59.06-2.3,1.82-4.57,3.71-6.83,5.64-4.21,1.18-9,2.24-14.14,3.44C75.69,89,59.39,93.44,45.73,105a66.54,66.54,0,0,0-10.95,11.8,76,76,0,0,0-7.16,12.07c-1.14,2.39-2.2,4.91-3.18,7.6h0a114.28,114.28,0,0,0-4.87,18,19.73,19.73,0,0,0-4,5.58c-.29.58-.58,1.2-.84,1.84a59.45,59.45,0,0,0-3.53,12.63A40.62,40.62,0,0,0,10.85,185.43Z"/>
      <path class="cls-4" d="M258.77,33.26l-.57-1.46c.45-.17,44.61-17.38,66.5-17.59v1.57C303.11,16,259.22,33.09,258.77,33.26Z"/>
      <path class="cls-5" d="M105.43,216.86H507.05a2,2,0,0,0,.6-.11,9.28,9.28,0,0,0,3.59-3.19c7-9,17.3-35.56,12-69.18-4.08-25.82-17.38-55.8-48.51-85.2q-7.2-6.81-15.69-13.55a19.33,19.33,0,0,0,1.07-2.24c1.77-4.22,4.09-13.25-6.77-16.11-13.05-3.44-139.94-49.65-258.67,55-25.29,7.16-72.24,9.11-84.13,72.12C99.7,164.36,97.66,203,105.43,216.86Z"/>
      <path class="cls-6" d="M182.06,82.19A4.6,4.6,0,0,0,185.13,81L188,78.46c2-1.81,2.69-2.41,3-2.64h0C206.69,62.09,227,49.1,251.42,37.2c5.14-2.52,10.43-5,15.77-7.31l-56.07-.39c-41.64,7.88-95.06,46.26-103.28,52.3Z"/>
      <path class="cls-7" d="M188.55,79.08s-23.33-12.42-69.08-5.45c-.51.33-12.28,9-12.28,9l76.45-.79Z"/>
      <path class="cls-7" d="M152.21,79.18c1-5.38,7.53-9.54,15.5-9.54s14.53,4.16,15.5,9.54Z"/>
      <path class="cls-8" d="M211.28,30.34l52,.36q-6.22,2.79-12.26,5.75c-24.45,11.93-44.84,25-60.64,38.76h0c-.4.32-1.17,1-3,2.62l-1.8,1.61-1.07,1a3.79,3.79,0,0,1-2.52,1l-57.78-.3L110.39,81c12.75-9.2,61.9-43.23,100.89-50.65Zm-.15-1.68c-41.54,7.84-94.76,45.8-104.3,52.86a.62.62,0,0,0,.36,1.12l17.07.09L182,83h.06a5.46,5.46,0,0,0,3.62-1.38l2.87-2.56c1.54-1.39,2.9-2.61,2.95-2.62C209.17,61,230.8,48.18,251.77,37.94c6.59-3.21,13.09-6.17,19.39-8.85l-60-.43Z"/>
      <path class="cls-9" d="M127.37,194.52v22.34h100c1,0,2.52-1.14,4.18-3.3v-19c0-31.08-23.36-56.37-52.07-56.37a49.72,49.72,0,0,0-33.71,13.44A58.29,58.29,0,0,0,127.37,194.52Z"/>
      <path class="cls-10" d="M133.8,194.52v22.34h91.28V194.52c0-27.51-20.48-49.89-45.64-49.89a43,43,0,0,0-29.35,11.73A51.7,51.7,0,0,0,133.8,194.52Z"/>
      <path class="cls-8" d="M226.62,83.39a5.4,5.4,0,0,1-5.21-4,5.83,5.83,0,0,1,2.39-6.14c54.29-42.12,103.6-51.39,159.88-47.79,52.64,3.36,69.7,40.18,74.14,53.3a3.58,3.58,0,0,1-.47,3.16,3.46,3.46,0,0,1-2.81,1.45Z"/>
      <path class="cls-11" d="M449.47,79.08a2.68,2.68,0,0,0,2.22-1.2,2.73,2.73,0,0,0,.22-2.53,76,76,0,0,0-10-17C428.26,41,408.59,31.4,383.42,29.78c-7.36-.47-14.19-.69-20.91-.69-51.68,0-93.65,14.68-136.09,47.6-.5.39-1,1-.88,1.56a1.12,1.12,0,0,0,1.08.83Z"/>
      <path class="cls-12" d="M133.8,194.52v30.74c5.92,7.77,14.25,12.62,23.47,12.62a24.66,24.66,0,0,0,3.76-.29v.29h23v-.12c11.21-1,20.86-9.16,26.07-20.9h14.94V194.52c0-27.51-20.48-49.89-45.64-49.89a43,43,0,0,0-29.35,11.73A51.7,51.7,0,0,0,133.8,194.52Z"/>
      <path class="cls-13" d="M128.84,216.86a42.31,42.31,0,0,0,3.11,5.76c.44.69.92,1.37,1.4,2l.45.61a35.85,35.85,0,0,0,3.54,4,1.42,1.42,0,0,0,.13.12,28.31,28.31,0,0,0,19.8,8.48,23.45,23.45,0,0,0,3.76-.29,26.57,26.57,0,0,0,8.46-2.7,35.34,35.34,0,0,0,14.58-14.71,34,34,0,0,0,1.64-3.31,48,48,0,0,0,3.11-9.54,52.17,52.17,0,0,0,1.1-10.72,50.05,50.05,0,0,0-.67-8.29A47,47,0,0,0,184.07,173a36.72,36.72,0,0,0-11.47-12.87,27,27,0,0,0-3.11-1.84,25.29,25.29,0,0,0-2.66-1.18c-.23-.1-.47-.18-.7-.27a25.36,25.36,0,0,0-5.1-1.26,24.66,24.66,0,0,0-3.76-.28,25.74,25.74,0,0,0-7.18,1,51.69,51.69,0,0,0-16.29,38.16v19.19a3.14,3.14,0,0,1-.93,2.22,3,3,0,0,1-2.2.93Z"/>
      <polygon class="cls-13" points="157.27 155.34 157.27 237.87 188.11 237.87 188.82 207.32 189.25 188.31 189.96 157.18 190.01 155.45 157.27 155.34"/>
      <path class="cls-14" d="M186.17,159.56a38.12,38.12,0,0,0-4.9-.26c-2.22-.16-33.49-.67-47.2,29.89a51.23,51.23,0,0,1,16-32.83,25.74,25.74,0,0,1,7.18-1l32.74.11,0,1.73Z"/>
      <path class="cls-15" d="M161.88,196.6a60,60,0,0,0,3.38,20.26,42.31,42.31,0,0,0,6.22,11.68,27.05,27.05,0,0,0,6.82,6.34,18.11,18.11,0,0,0,9.81,3,14.91,14.91,0,0,0,1.9-.12c9-1,16.77-9.16,21-20.9a59.76,59.76,0,0,0,3.4-20.26c0-21.78-10.74-39.62-24.35-41.15a17,17,0,0,0-1.9-.1,18.09,18.09,0,0,0-9.81,3,27.47,27.47,0,0,0-6.82,6.35C165.62,172.25,161.88,183.74,161.88,196.6Z"/>
      <path class="cls-9" d="M407.09,194.52v22.34h100c1,0,2.51-1.14,4.17-3.3v-19c0-31.08-23.35-56.37-52.06-56.37a49.72,49.72,0,0,0-33.71,13.44A58.29,58.29,0,0,0,407.09,194.52Z"/>
      <path class="cls-16" d="M413.52,194.52v30.74c5.93,7.77,14.25,12.62,23.48,12.62a24.63,24.63,0,0,0,3.75-.29v.29h21.39l1.65-.12c11.21-1,20.86-9.16,26.08-20.9H504.8V194.52c0-27.51-20.47-49.89-45.64-49.89a43.06,43.06,0,0,0-29.35,11.73A51.7,51.7,0,0,0,413.52,194.52Z"/>
      <path class="cls-13" d="M408.57,216.86a40.38,40.38,0,0,0,4.95,8.4c5.93,7.77,14.25,12.62,23.48,12.62a24.4,24.4,0,0,0,3.74-.29,27,27,0,0,0,8.48-2.71,35.38,35.38,0,0,0,14.57-14.71,32.86,32.86,0,0,0,1.64-3.31,49.48,49.48,0,0,0,4.21-20.26,48.78,48.78,0,0,0-5.85-23.55,35.2,35.2,0,0,0-14.57-14.71,27,27,0,0,0-8.48-2.71,24.4,24.4,0,0,0-3.74-.28,25.75,25.75,0,0,0-7.19,1,51.69,51.69,0,0,0-16.29,38.16V213.8a3,3,0,0,1-3,3.06Z"/>
      <polygon class="cls-13" points="438.75 155.41 436.02 237.86 463.03 237.88 463.79 155.35 438.75 155.41"/>
      <path class="cls-15" d="M428.78,196.6A49.48,49.48,0,0,0,433,216.86a40.54,40.54,0,0,0,7.75,11.68,31.94,31.94,0,0,0,8.47,6.34,26.66,26.66,0,0,0,12.22,3,22.82,22.82,0,0,0,2.35-.12c11.21-1,20.86-9.16,26.08-20.9a49.64,49.64,0,0,0,4.21-20.26c0-21.78-13.35-39.62-30.29-41.15-.77-.07-1.56-.1-2.35-.1a26.64,26.64,0,0,0-12.22,3,32.41,32.41,0,0,0-8.47,6.35C433.45,172.25,428.78,183.74,428.78,196.6Z"/>
      <path class="cls-5" d="M19.57,154.44h0l93.32.9s13.58-7.57,3.65-22c-52.2,32.37-90.41,15.3-92.1,3.07A114.28,114.28,0,0,0,19.57,154.44Z"/>
      <path class="cls-10" d="M70,155.33l2.23-.26A17.59,17.59,0,0,0,70,155.33Z"/>
      <path class="cls-5" d="M18.36,204.7a32.79,32.79,0,0,0,6.5,6.4h0a28.48,28.48,0,0,0,17,5.76h74.57l3.71-67.61-47.91,5.81c7.25-.51,29.4-1.58,28.47,32.3C99.79,222.32,24.31,210.07,18.36,204.7Z"/>
      <g>
        <path class="cls-17" d="M131,107.12a2.4,2.4,0,0,1,1.74,1.12,2.46,2.46,0,0,1,.21,2.08c-3.29,9-16.31,36.91-52.06,38.84a1.63,1.63,0,0,1-1.71-1.5C77.5,129.38,100.23,103.5,131,107.12Z"/>
        <path class="cls-18" d="M80.75,149.82a2.29,2.29,0,0,1-2.27-2.11c-.72-8,3.18-17.57,10.41-25.48A49.37,49.37,0,0,1,131,106.48a3.06,3.06,0,0,1,2.22,1.42,3.1,3.1,0,0,1,.26,2.64c-3.19,8.72-16.41,37.32-52.63,39.27Zm44.4-42.39a48,48,0,0,0-35.29,15.68c-7,7.64-10.77,16.8-10.08,24.49a1,1,0,0,0,1,.91v.65l.06-.65c35.42-1.91,48.35-29.89,51.47-38.41a1.76,1.76,0,0,0-.15-1.52,1.73,1.73,0,0,0-1.26-.81A50,50,0,0,0,125.15,107.43Z"/>
      </g>
      <path class="cls-17" d="M24.44,136.46A17.21,17.21,0,0,0,27.51,142a54.74,54.74,0,0,0,13.12-17A47.73,47.73,0,0,0,45.73,105c-.51-.42-2,0-4,1.15a41.12,41.12,0,0,0-8.23,6.41,37.93,37.93,0,0,0-7.59,10.28C23.81,127.13,22.93,131.84,24.44,136.46Z"/>
      <path class="cls-18" d="M24.28,136v0a11,11,0,0,0,2.58,6.58.83.83,0,0,0,1.16.14,54.83,54.83,0,0,0,13.22-17,1.13,1.13,0,0,0,.11-.22A48.54,48.54,0,0,0,46.56,105l0-.44-.18-.16c-.24.19-.45.38-.67.55a1.06,1.06,0,0,0-.71-.13c-.12.32-.22.87-.15.86A46.74,46.74,0,0,1,40,124.42c0,.07-.08.17-.13.25A55.73,55.73,0,0,1,28.52,140a1.25,1.25,0,0,1-.9.32,1.16,1.16,0,0,1-.86-.39,13.14,13.14,0,0,1-2.08-3.06c0-.07-.07-.18-.14-.33a.38.38,0,0,1-.05-.12l-.18-.42S24.29,136,24.28,136Z"/>
      <path class="cls-6" d="M245.79,62.92S301,14.15,400.92,32.41c0,0,28,28.72,27.86,39.85-.08,0-183,0-183,0Z"/>
      <path class="cls-19" d="M451.91,75.35a76,76,0,0,0-10-17,70.94,70.94,0,0,0-28.2-21.67Q403.8,58,393.16,79.08h56.31a2.68,2.68,0,0,0,2.22-1.2A2.73,2.73,0,0,0,451.91,75.35Z"/>
      <path class="cls-20" d="M478.71,117.33a5.74,5.74,0,0,1-5.68,5.76c-18.22.13-74.13,6-77.58,73.17a8,8,0,0,1-7.86,7.6c-27.32.25-113.71,0-142.43-.1a9.3,9.3,0,0,1-9.23-9.11c-.39-17.83-4.84-56.77-35.18-69.46a8.11,8.11,0,0,1-5-7.5v-4.61a6.28,6.28,0,0,1,6.26-6.3H472.85a5.88,5.88,0,0,1,5.86,5.9Z"/>
      <polygon class="cls-8" points="245.78 62.92 245.78 81.6 225.5 81.6 221.68 77.28 245.78 62.92"/>
      <path class="cls-10" d="M387,169.37c0,.24-.08.48-.13.72-3.92,21.17-20.7,22.9-33.28,22.75l-115-1.52-2.87-21.95Z"/>
      <path class="cls-4" d="M354.78,194.12H353.6l-111.32-1.6-.16-1.07c-5.9-41.65-6.41-78.67-1.52-110l2.5.39c-4.81,30.86-4.35,67.26,1.38,108.22l109.15,1.57c13.82.19,28.43-2.29,32-21.72,6.08-32.83-6.46-85.65-6.59-86.18l2.46-.59c.13.54,12.8,53.87,6.62,87.23C384.29,191.12,368.51,194.12,354.78,194.12Z"/>
      <path class="cls-5" d="M87.15,185c0,6.25,3.76,11.32,8.37,11.32s8.38-5.07,8.38-11.32-3.74-11.32-8.38-11.32S87.15,178.76,87.15,185Z"/>
      <polygon class="cls-5" points="104.94 196.21 95.52 196.34 95.52 173.7 104.94 173.7 104.94 196.21"/>
      <g>
        <path class="cls-17" d="M96.57,185c0,5.48,3.28,9.93,7.33,9.93s7.34-4.45,7.34-9.93-3.28-9.93-7.34-9.93S96.57,179.54,96.57,185Z"/>
        <path class="cls-18" d="M103.9,195.52c-4.36,0-7.91-4.71-7.91-10.5s3.55-10.5,7.91-10.5,7.91,4.71,7.91,10.5S108.26,195.52,103.9,195.52Zm0-19.86c-3.73,0-6.76,4.2-6.76,9.36s3,9.35,6.76,9.35,6.77-4.19,6.77-9.35S107.63,175.66,103.9,175.66Z"/>
      </g>
      <path class="cls-19" d="M33.5,112.54a19.79,19.79,0,0,0,1.28,4.24A25.83,25.83,0,0,0,40,124.42c.2.21.4.41.62.62s.39.41.61.61a48.7,48.7,0,0,0,4.49,3.8c25,18.7,106.06-39.93,106.06-39.93s-33-2.62-62.24-3.76C75.9,89,59.9,93.31,46.4,104.43c-.24.18-.45.37-.67.55a1,1,0,0,0-.71-.14C43,105,38.12,108,33.5,112.54Z"/>
      <path class="cls-17" d="M523.91,132.64c-.59-10.08-2.82-22.4-10.07-23.85a5.74,5.74,0,0,0-1.57-.17c-3.19,0-5.16,2-5.56,5.36-1.15,9.75,10.12,29.61,16.28,31.2A52.26,52.26,0,0,0,523.91,132.64Z"/>
      <path class="cls-18" d="M505.89,113.88c.42-3.62,2.55-5.78,5.81-6,.24.56.29.26.57.79-12.75.2,3,34.14,10.72,36.56,0,.53.1.18.1.7,0,.06,0,.14,0,.2l-.32-.09C515.65,144.15,504.76,123.44,505.89,113.88Z"/>
      <path class="cls-9" d="M507.65,216.75a9.28,9.28,0,0,0,3.57-3.19c7-9,17.32-35.55,12-69.18h0s-1.61,37.83-13.75,46.89C508.92,197.17,508,210.11,507.65,216.75Z"/>
      <path class="cls-15" d="M434.72,166.85a2.51,2.51,0,0,0,2.51,2.52h7a2.5,2.5,0,0,0,2.49-2.52h0a2.51,2.51,0,0,0-2.49-2.51h-7a2.51,2.51,0,0,0-2.51,2.51Z"/>
      <path class="cls-15" d="M429.54,176.3a2.52,2.52,0,0,0,2.5,2.52h7.06a2.52,2.52,0,0,0,2.5-2.52h0a2.51,2.51,0,0,0-2.5-2.52H432a2.51,2.51,0,0,0-2.5,2.52Z"/>
      <path class="cls-15" d="M426.69,186.64a2.51,2.51,0,0,0,2.5,2.51h7.06a2.5,2.5,0,0,0,2.5-2.51h0a2.51,2.51,0,0,0-2.5-2.52h-7.06a2.52,2.52,0,0,0-2.5,2.52Z"/>
      <path class="cls-15" d="M160.84,167.61a2.5,2.5,0,0,0,2.5,2.52h7a2.51,2.51,0,0,0,2.51-2.52h0a2.52,2.52,0,0,0-2.51-2.51h-7a2.5,2.5,0,0,0-2.5,2.51Z"/>
      <path class="cls-15" d="M155.66,177.06a2.51,2.51,0,0,0,2.5,2.52h7.05a2.51,2.51,0,0,0,2.5-2.52h0a2.5,2.5,0,0,0-2.5-2.51h-7.05a2.49,2.49,0,0,0-2.5,2.51Z"/>
      <path class="cls-15" d="M152.81,187.4a2.5,2.5,0,0,0,2.5,2.51h7.05a2.51,2.51,0,0,0,2.51-2.51h0a2.51,2.51,0,0,0-2.51-2.52h-7.05a2.51,2.51,0,0,0-2.5,2.52Z"/>
      <path class="cls-19" d="M10.85,185.43a38,38,0,0,0,6.92,18.46,32.38,32.38,0,0,0,7.09,7.21,23.6,23.6,0,0,1-.71-22.27A23.3,23.3,0,0,1,42.23,176l13.5-1.62a6.57,6.57,0,0,0,5.77-6.54v-1.93a5.87,5.87,0,0,0-5.85-5.9h-40c-.29.58-.58,1.2-.84,1.84a59.45,59.45,0,0,0-3.53,12.63A40.62,40.62,0,0,0,10.85,185.43Z"/>
      <path class="cls-21" d="M257.22,40.1s-28.58,10.07-49,32.16C220.9,64,257.22,40.1,257.22,40.1Z"/>
      <path class="cls-22" d="M171,81.85s-31-9.61-43-6.19-8.82,6-5,6Z"/>
      <g class="cls-23">
        <path class="cls-24" d="M106.61,82.21a.65.65,0,0,0,.58.43l17.07.09C159.92,61.32,226,44.13,251.77,37.94c6.59-3.21,13.09-6.17,19.39-8.85l-60-.43c-41.54,7.84-94.76,45.8-104.3,52.86A.64.64,0,0,0,106.61,82.21Z"/>
      </g>
      <path class="cls-25" d="M127.34,117a4.5,4.5,0,0,0-4.92-6.6c-8.79,2.06-26.95,7.93-35.23,22.45a3.47,3.47,0,0,0,.25,3.82,3.78,3.78,0,0,0,3.6,1.24C101.05,136.71,122.09,126.42,127.34,117Z"/>
      <path class="cls-25" d="M25.91,122.82c.64,3.09,1.64,5.56,2.71,6.5,4.24,3.72,14.86-16.08,13.11-23.19a41.12,41.12,0,0,0-8.23,6.41A37.93,37.93,0,0,0,25.91,122.82Z"/>
      <path class="cls-26" d="M99.19,183.05c0,2.53,1.28,4.59,2.87,4.59s2.88-2.06,2.88-4.59-1.29-4.58-2.88-4.58S99.19,180.52,99.19,183.05Z"/>
      <path class="cls-25" d="M523.08,131.71c-.56-9.57-2.65-21.74-9.4-23.09C511.39,112,510.68,119,523.08,131.71Z"/>
      <path class="cls-27" d="M217.73,119.22a3.49,3.49,0,1,0,3.48-3.52A3.51,3.51,0,0,0,217.73,119.22Z"/>
      <path class="cls-21" d="M270.36,69.58c1.8-.27,11.67,1.33,10.16-2.3-2.19-5.24-13.11-4.36-15.24.53C263.53,71.82,268.21,69.91,270.36,69.58Z"/>
      <path class="cls-28" d="M461.44,227.08c.49,0,.93,0,1.32-.05,7.1-.65,13.55-6.09,17.33-14.58a39,39,0,0,0,3.28-15.85c0-15.73-9.22-29.38-20.54-30.4a12.6,12.6,0,0,0-1.39-.06,16,16,0,0,0-7.37,1.82,21.12,21.12,0,0,0-5.63,4.23c-5.68,5.89-8.94,14.79-8.94,24.41a38.73,38.73,0,0,0,3.26,15.8,29.55,29.55,0,0,0,5.68,8.63,21.62,21.62,0,0,0,5.62,4.23A16.07,16.07,0,0,0,461.44,227.08Z"/>
      <path class="cls-29" d="M443,196.6a34.8,34.8,0,0,0,2.69,13.67,4.92,4.92,0,0,0,.25.61,26.25,26.25,0,0,0,4,6.47,13.38,13.38,0,0,0,1,1.13,17.13,17.13,0,0,0,4.67,3.53,12.72,12.72,0,0,0,5.82,1.45,9.75,9.75,0,0,0,1,0,14.28,14.28,0,0,0,7.33-3,21.55,21.55,0,0,0,5.37-6.1,31.63,31.63,0,0,0,1.77-3.38,35.15,35.15,0,0,0,3-14.33v-.44a35.56,35.56,0,0,0-1.09-8.28c-1.85-7.34-5.94-13.45-10.94-16.34a13,13,0,0,0-5.3-1.74c-.38,0-.72,0-1.08,0h-.81a13.46,13.46,0,0,0-5,1.43,17.63,17.63,0,0,0-4.67,3.55,26.48,26.48,0,0,0-5.45,8.54,33.88,33.88,0,0,0-2.13,8.06A36.36,36.36,0,0,0,443,196.6Z"/>
      <path class="cls-28" d="M188.11,227.08c.41,0,.76,0,1.06-.05,5.72-.65,10.91-6.09,13.94-14.58a47,47,0,0,0,2.63-15.85c0-15.73-7.41-29.38-16.5-30.4a8.29,8.29,0,0,0-1.13-.06,10.8,10.8,0,0,0-5.9,1.82,17.94,17.94,0,0,0-4.54,4.23c-4.56,5.89-7.18,14.79-7.18,24.41a47,47,0,0,0,2.62,15.8,31,31,0,0,0,4.56,8.63,18.55,18.55,0,0,0,4.51,4.23A11,11,0,0,0,188.11,227.08Z"/>
      <path class="cls-29" d="M188.11,223.74a6.52,6.52,0,0,0,.66,0c4.38-.49,8.66-5.24,11.22-12.39a43.75,43.75,0,0,0,2.44-14.72c0-15.06-7.15-26.36-13.56-27.08a6.68,6.68,0,0,0-.76,0,7.78,7.78,0,0,0-4.14,1.29,15,15,0,0,0-3.68,3.48c-4.12,5.31-6.48,13.46-6.48,22.35a43.39,43.39,0,0,0,2.41,14.66,27.75,27.75,0,0,0,4.07,7.71,14.84,14.84,0,0,0,3.67,3.47A7.74,7.74,0,0,0,188.11,223.74Z"/>
      <path class="cls-28" d="M450.22,204.48l-4.69,5.93c.08.2.16.42.26.62a26.29,26.29,0,0,0,4,6.54l5.91-7.43a5.54,5.54,0,0,1,5-2.16,5.92,5.92,0,0,1,4.44,3.33l4.71,9.35a21.82,21.82,0,0,0,5.42-6.16l-3.71-7.38a7.54,7.54,0,0,1-.26-6.06,6.1,6.1,0,0,1,4.14-3.81l4.61-1.1a37,37,0,0,0-1.09-8.37l-5,1.21a5.29,5.29,0,0,1-5.13-1.59,7.24,7.24,0,0,1-1.89-5.65l1-10.48a13,13,0,0,0-5.35-1.75c-.38,0-.73-.05-1.09-.05l-.82,0-1.07,11.33a6.81,6.81,0,0,1-2.92,5.07,5.18,5.18,0,0,1-5.3.31l-6-3.06a33.7,33.7,0,0,0-2.16,8.15l5.1,2.63a6.44,6.44,0,0,1,3.34,4.71A7.27,7.27,0,0,1,450.22,204.48Z"/>
      <path class="cls-30" d="M458.22,196.61c0,3.34,2.09,6.06,4.67,6.06s4.67-2.72,4.67-6.06-2.09-6.06-4.67-6.06S458.22,193.26,458.22,196.61Z"/>
      <path class="cls-28" d="M178.8,204l-4,5.71a3.33,3.33,0,0,0,.22.6,26.38,26.38,0,0,0,3.44,6.31l5-7.17a4.51,4.51,0,0,1,4.25-2.07,5.16,5.16,0,0,1,3.79,3.2l4,9a20.53,20.53,0,0,0,4.64-5.94l-3.18-7.1a8.14,8.14,0,0,1-.22-5.84,5.44,5.44,0,0,1,3.54-3.67l3.93-1.06a38.91,38.91,0,0,0-.93-8.05L199,189.09a4.22,4.22,0,0,1-4.39-1.53,7.59,7.59,0,0,1-1.62-5.45l.85-10.09c-1.45-.93-2.36-3.17-4-3.33-.32,0-1.5,0-1.81,0h0l-1.36,12.53a6.73,6.73,0,0,1-2.49,4.89,4,4,0,0,1-4.53.3l-5.11-2.95a35.44,35.44,0,0,0-1.83,7.85l4.35,2.51a6.28,6.28,0,0,1,2.84,4.56A7.69,7.69,0,0,1,178.8,204Z"/>
      <path class="cls-30" d="M183.85,196.61c0,3.34,2.08,6.06,4.67,6.06s4.67-2.72,4.67-6.06-2.1-6.06-4.67-6.06S183.85,193.26,183.85,196.61Z"/>
      <path class="cls-24" d="M313.05,39.49h0Z"/>
      <path class="cls-22" d="M238,76.38l.88-.42,17.68-8.43,8.37,21.85H247C236.49,89.39,238,76.38,238,76.38Z"/>
      <path class="cls-10" d="M254.08,72.92v5.93a10.54,10.54,0,0,0,1.39,5.23,9.94,9.94,0,0,0,1.8,2.34,10.47,10.47,0,0,0,7.61,3l15.45-.52a10.68,10.68,0,0,0,9.42-6.4,10.83,10.83,0,0,0-1.66-11.31L285,67.54v0l-3.31-3.88A9.91,9.91,0,0,0,270.05,61L258.27,66.4A7.14,7.14,0,0,0,254.08,72.92Z"/>
      <path class="cls-31" d="M255.47,84.08a9.94,9.94,0,0,0,1.8,2.34,10.47,10.47,0,0,0,7.61,3l15.45-.52a10.68,10.68,0,0,0,9.42-6.4,10.83,10.83,0,0,0-1.66-11.31L285,67.54l.52,6.59c.37,4.68-4.93,8.73-11.86,9.07Z"/>
      <path class="cls-5" d="M64.52,191.12a1.29,1.29,0,0,1-.38.93,1.26,1.26,0,0,1-.91.39H21.1A1.53,1.53,0,0,1,20,192a1.55,1.55,0,0,1-.45-1.1V171.53a1.39,1.39,0,0,1,.4-1,1.37,1.37,0,0,1,1-.41H63.1a1.43,1.43,0,0,1,1,.42,1.51,1.51,0,0,1,.41,1Z"/>
      <path class="cls-32" d="M62.88,189.34a1.21,1.21,0,0,1-1.2,1.21H22.38a1.43,1.43,0,0,1-1-.42,1.45,1.45,0,0,1-.41-1V171.41a1.29,1.29,0,0,1,.37-.91,1.32,1.32,0,0,1,.9-.37H61.56a1.29,1.29,0,0,1,.93.39,1.33,1.33,0,0,1,.39.94Z"/>
      <path class="cls-25" d="M61.5,189.34a1.23,1.23,0,0,1-1.21,1.21H21a1.43,1.43,0,0,1-1.43-1.43V171.41a1.28,1.28,0,0,1,1.28-1.28H60.17a1.33,1.33,0,0,1,1.33,1.33Z"/>
    </g>
  </g>
</svg>
