<svg id="Layer_1" data-name="Layer 1" xmlns="http://www.w3.org/2000/svg" width="325.03" height="431.01" viewBox="0 0 325.03 431.01">
  <defs>
    <style>
      .cls-1 {
        fill: #ff0;
      }

      .cls-2 {
        fill: #e75f4f;
      }

      .cls-3 {
        fill: #ed715c;
      }

      .cls-4 {
        fill: #802f2e;
      }

      .cls-5 {
        fill: #93373b;
      }
    </style>
  </defs>
  <g>
    <path class="cls-1" d="M288.52,123.8a6,6,0,0,0-6-5.51H220.7c-2.57-12.83-5.42-24.8-8.49-35.66-13.29-46.94-29.15-69.14-49.92-69.87h-.87c-31.69,0-48.77,56.23-57.64,105.54H42.49a6,6,0,0,0-6,5.51l-23.74,288a6,6,0,0,0,6,6.5H306.28a6,6,0,0,0,6-6.5ZM127,118.29c4.21-21.84,9.63-41.76,15.46-56.66,7.81-20,14.86-27.07,18.85-27.07h.14c9.44.32,25.18,31.56,36.08,83.72Z"/>
    <g>
      <g>
        <path class="cls-2" d="M306.28,412.26H18.75q11.87-144,23.74-288H282.54Z"/>
        <path class="cls-3" d="M46.88,130H275.44S265.5,356.63,171.55,363.17,46.88,130,46.88,130Z"/>
        <path class="cls-3" d="M28.81,364,25.2,406.53l275.53.82-4.51-37.63S264.6,401.62,161.61,400,28.81,364,28.81,364Z"/>
      </g>
      <path class="cls-4" d="M214,146.38a5.32,5.32,0,0,1-6-4.2c-7.35-48.33-25.87-112.9-46.3-113.61-20.28-.75-37.83,64-44.59,112.93a5.31,5.31,0,0,1-6,4.27h0a5,5,0,0,1-4.76-5.46c4-29.21,19.84-122.74,55.76-121.55,17.54.61,32,22,44.34,65.5a522.16,522.16,0,0,1,12.25,56.58,5,5,0,0,1-4.67,5.54Z"/>
      <path class="cls-5" d="M113.33,111.1s9.83-49.39,22-69.64,25.07-24.24,35.58-19,22.69,24.85,29.47,46.63c5.73,18.41,7.45,26.38,7.45,26.38S196,55.88,182.44,38.39c-10.79-13.93-22.36-21.17-38.28-4.29C129.67,49.46,113.33,111.1,113.33,111.1Z"/>
    </g>
  </g>
</svg>
