<svg id="Layer_1" data-name="Layer 1" xmlns="http://www.w3.org/2000/svg" width="188.82" height="340.92" viewBox="0 0 188.82 340.92">
  <defs>
    <style>
      .cls-1 {
        fill: #ff0;
      }

      .cls-2 {
        fill: #5e961b;
      }

      .cls-3 {
        fill: #488019;
      }

      .cls-4 {
        fill: #ff7db8;
      }

      .cls-5 {
        fill: #f93a91;
      }

      .cls-6 {
        fill: #b31b64;
      }

      .cls-7 {
        fill: #ff4d9e;
      }

      .cls-8 {
        fill: #ff59a5;
      }

      .cls-9 {
        fill: #7db03f;
      }

      .cls-10 {
        fill: #6da32c;
      }

      .cls-11 {
        fill: #cc6900;
      }

      .cls-12 {
        fill: #ba5700;
      }

      .cls-13 {
        fill: #e38017;
      }
    </style>
  </defs>
  <g>
    <path class="cls-1" d="M11.13,216.26c2.12,1.46,4.24,2.91,6.38,4.31a6.66,6.66,0,0,0-5.11,7.59l16.29,96.58a9.93,9.93,0,0,0,7.67,8.07,6.29,6.29,0,0,0,1.73.25h69.8a10.16,10.16,0,0,0,10-8.31l17.82-96.47a6.63,6.63,0,0,0-6.53-7.87H116.23A48.71,48.71,0,0,0,129,203.68a65.5,65.5,0,0,0,4.89-16.77c.3-1.79.57-3.63.81-5.64.35-2.85.6-5.72.83-8.53a13.48,13.48,0,0,0,9.46,5.47c.46,0,.92.07,1.37.07a12.34,12.34,0,0,0,3.64-.54,6.42,6.42,0,0,0,4.28,1.62l.54,0c.3.16.6.32.91.46a13.21,13.21,0,0,0,5.5,1.19,13.92,13.92,0,0,0,11.31-5.89c3.18-4.47,3.71-10.57,1.42-16.32-.15-.37-.34-.8-.56-1.26a18.71,18.71,0,0,0,3.73-3.91c4.39-6.17,5.08-14.68,1.86-22.77a26,26,0,0,0-7.2-10.17,18.54,18.54,0,0,0-.77-2.28,21.23,21.23,0,0,0,1.93-4.37c2.56-8.24.28-17.74-6.12-25.4a30.72,30.72,0,0,0-7.34-6.41c4.1-9.78,2.68-21.74-3.9-32.25a38,38,0,0,0-14.17-13.44c-1.72-4.24-4.8-8.22-9.33-12.11-3.53-3-9-6.87-15.24-8a15.1,15.1,0,0,0-2.81-.27c-6.72,0-10.61,4.62-13.45,8l-.81,1A28.32,28.32,0,0,0,92,20.42a25.7,25.7,0,0,0-8.22-7.94c-3-2-7.7-4.34-12.69-4.6l-.69,0c-6.75,0-9.92,5-11.81,8L57,18.38l-2.5,3.9a30.51,30.51,0,0,0-1.85,3.22,27.83,27.83,0,0,0-8.21,9.16c-4.84,8.42-5.61,18.42-2,26.1a22,22,0,0,0,3.35,5.14,74.28,74.28,0,0,0-6.52,18.33,96.1,96.1,0,0,0,.19,39.56c2.9,14.24,8.84,27.54,14.27,38.67,2,4.13,4.16,8.21,6.24,12.16,1.35,2.58,2.75,5.23,4.09,7.87.11,2.13.31,4.22.59,6.24-6.35-4.83-13.39-8.48-20.26-12L41,174.94c-5.41-2.84-11.62-6.24-16.74-10.57a7.94,7.94,0,0,0-5.11-1.91,7.84,7.84,0,0,0-7.73,7.08A54.07,54.07,0,0,0,19.09,203c-1-.16-2-.31-3-.44a8.24,8.24,0,0,0-1-.06,7.22,7.22,0,0,0-6.9,5.11A7.81,7.81,0,0,0,11.13,216.26Zm47.79-84.7c-4.24-12.83-6.12-24-5.74-34.3a62.19,62.19,0,0,1,5.58-24.19,19.21,19.21,0,0,0,2.74.19,20,20,0,0,0,4.21-.45,18.76,18.76,0,0,0,3.86-1.26,30,30,0,0,0,1.34,8c3.53,11.24,13.82,19.09,25,19.09.63,0,1.28,0,1.92-.07a23.21,23.21,0,0,0,8.44-2.25c-3.83,7.94-4.2,16.94-.88,24a21.71,21.71,0,0,0,15.08,12.09,21.56,21.56,0,0,0-.61,8.16,19.61,19.61,0,0,0,3.63,9.21c-10.22,3.76-17.75,11.12-23.1,18.56-.21-1.14-.43-2.26-.65-3.38-.4-2.07-.81-4.21-1.17-6.28-1.48-8.75-1.76-18-2-26.9v-.47a7.45,7.45,0,0,0-7.4-7.15,7.17,7.17,0,0,0-5.32,2.37,77,77,0,0,0-15.81,27A185.08,185.08,0,0,1,58.92,131.56Z"/>
    <g>
      <path class="cls-2" d="M96.22,183.16c-.21-8-2.21-15.67-3.54-23.49-1.58-9.3-1.85-18.77-2.13-28.19a1.35,1.35,0,0,0-2.27-.94,71.72,71.72,0,0,0-17.51,37A70.41,70.41,0,0,0,70.59,188c1,7.44,3.66,14.53,4.8,22a91.5,91.5,0,0,1,1,9.77c.14,3.15.39,6.9-.86,9.86a.53.53,0,0,0,0,.41l-.25.17a1.36,1.36,0,0,0,1.38,2.35c4.81-2.2,7.72-7.37,9.87-12,2.35-5,4-10.32,6-15.49A56,56,0,0,0,96.22,183.16Z"/>
      <path class="cls-2" d="M81.36,227.38c-1.49-.58-3-1.06-4.54-1.49,2.52-9.34-3-19.87-9.23-26.5-8.14-8.61-19.05-13.72-29.37-19.14C32,177,25.79,173.52,20.39,169a1.78,1.78,0,0,0-3,1.24c-1.37,12.49,2.75,25.12,10.47,34.94,7.38,9.4,17.93,16.07,29.28,19.6,7.65,2.39,15.65,3.57,23.41,5.58C82.49,230.81,83.16,228.07,81.36,227.38Z"/>
      <path class="cls-3" d="M74.89,227a1.69,1.69,0,0,0,1.51,2.05v.22l-.12.1c-.2.15-.1.57.19.45l.4-.17C76.23,228.76,75.58,227.88,74.89,227Z"/>
      <path class="cls-3" d="M96.22,183.4c-.21-8-2.21-15.67-3.54-23.49-1.58-9.31-1.85-18.77-2.13-28.19a1.39,1.39,0,0,0-.78-1.18A120.49,120.49,0,0,0,85.31,149c-2,14-1.27,28.2-1,42.3a175.36,175.36,0,0,1-.61,21.5c-.35,3.32-.72,6.7-1.21,10.07,1.27-1.8,2.6-3.55,3.94-5.26l3-3.84c1-2.79,2-5.6,3.09-8.38A56.11,56.11,0,0,0,96.22,183.4Z"/>
      <path class="cls-3" d="M73.77,226.62a73.86,73.86,0,0,0-7.7-7.62c-16.16-14-41.61-25.21-48.63-46.55a48.92,48.92,0,0,0,10.64,32.92c7.38,9.4,17.93,16.06,29.28,19.6,6.08,1.89,12.38,3,18.61,4.43C75.27,228.45,74.55,227.52,73.77,226.62Z"/>
      <path class="cls-3" d="M85.49,230.94c2.3-10.94-.49-22.52-4-32.92-3.52-10.55-8.35-20.73-13.34-30.64-5.58-11.06-11.08-22.16-15-33.94s-6.49-24.06-6-36.4c.43-11.66,3.44-23.4,9.88-33.21A41.38,41.38,0,0,1,68.57,51.91a28.85,28.85,0,0,1,17.09-4.83c10.89.34,21.63,5.08,30,11.94A56.93,56.93,0,0,1,133.2,83.75a60.31,60.31,0,0,1,3.1,16.74A189.29,189.29,0,0,0,137.93,120a105.21,105.21,0,0,0,12.26,34.71q1.09,1.92,2.26,3.81c.82,1.31,1.84,2.46,2.71,3.73.51.75,1.75,0,1.23-.72-.89-1.3-1.58-2.76-2.41-4.1s-1.63-2.72-2.4-4.1q-2.27-4.09-4.16-8.38a102.89,102.89,0,0,1-6-17.92,105.85,105.85,0,0,1-2.72-18.81c-.35-6.49-.41-13-1.9-19.38A57.59,57.59,0,0,0,121.86,62,56.66,56.66,0,0,0,95.28,46.48c-6.36-1.59-13.12-2-19.49-.25A34.78,34.78,0,0,0,61.42,54.7c-8.54,8.09-13.85,19.41-16.3,30.79a90.75,90.75,0,0,0,.2,37.1c2.64,13,8,25.41,13.78,37.25,4.9,10,10.57,19.69,15.09,29.93,4.62,10.48,8.42,21.52,9.24,33a67,67,0,0,1,.09,7.89,1,1,0,0,0,2,.26Z"/>
      <g>
        <path class="cls-4" d="M94.4,41.83a21.63,21.63,0,0,1,4-6c2-2.37,4-4.72,6-7.08,3.11-3.65,5.88-7.54,11.24-6.52,4.55.86,9,3.74,12.46,6.71s6.88,6.82,8.23,11.38c1.4,4.74-1.88,10.74-3.27,15.27-3.2,10.39-10.9,10.84-14.77,11.48a19.54,19.54,0,0,1-12.82-2.46C98.16,60.47,91,50.59,94.4,41.83Z"/>
        <g>
          <path class="cls-5" d="M150.48,53.14C146,46,138,39.12,128.58,39.41a9.13,9.13,0,0,0-5.85,2c-2,1.86-1.62,4.35-1.63,6.76A29.76,29.76,0,0,1,119.67,57c-.88,2.74-2.36,5.26-3.21,8-.1.32.22.52.51.46l1,3.68a1.18,1.18,0,0,0-.91.73c-2.11,4.57-.44,9.31,2.27,13.35s6.31,7.55,11.32,8.81c9.66,2.43,19-3.1,22.89-11.36C157.74,71.79,155.59,61.31,150.48,53.14Z"/>
          <path class="cls-5" d="M113.38,69.18l1-3.68c.28.06.6-.14.5-.46-.73-2.36-2-4.51-2.8-6.83A29.68,29.68,0,0,1,110.34,50c-.16-2.24.45-4.81-.49-6.93a6.32,6.32,0,0,0-4.25-3.28c-4.08-1.14-8.85.12-12.51,1.9A29.66,29.66,0,0,0,82.8,50.39c-5.87,7.61-9,18.15-6.16,27.36,2.7,8.6,10.8,15.58,20.75,14.83,5.86-.44,10.19-3.46,13.56-7.84s5.71-9.7,3.33-14.83A1.19,1.19,0,0,0,113.38,69.18Z"/>
        </g>
        <path class="cls-6" d="M127.2,69.14c-.38-2.16-1.85-4.43-4.25-4.49a4.64,4.64,0,0,0-2.94,1,7.73,7.73,0,0,0-.41-3.73c-.71-1.89-2.53-4-4.75-3.71s-2.78,2.71-2.83,4.59a15.47,15.47,0,0,0,.25,3.21,4.88,4.88,0,0,0-1.9-.85,3,3,0,0,0-3.62,2.35c-1.15,4.41,2.79,9.32,6.13,11.59a.22.22,0,0,0,.28,0,16.83,16.83,0,0,0,6,12.14c.57.48,1.77.23,1.67-.7q-.6-5.49-1.65-10.92C123.93,78.41,128.13,74.39,127.2,69.14Z"/>
        <path class="cls-4" d="M107.16,81.82a28.42,28.42,0,0,0-3.52,2.68,20.54,20.54,0,0,1-4.07,2.4A26.81,26.81,0,0,1,89.86,89s-.07.09,0,.1a18.42,18.42,0,0,0,10.08-.66c2.91-1,6.83-2.72,8.25-5.64A.75.75,0,0,0,107.16,81.82Z"/>
        <path class="cls-4" d="M105.16,77.53c-2.93.91-5.66,2.69-8.38,4.08-.16.08,0,.31.12.28,3-.57,6.36-1.48,8.75-3.51A.51.51,0,0,0,105.16,77.53Z"/>
        <path class="cls-4" d="M104.89,73.06a26.79,26.79,0,0,1-3,.47,7,7,0,0,1-3.44-.92.44.44,0,0,0-.45.76c1.9,1.19,5.12,2,7.11.58C105.47,73.7,105.41,73,104.89,73.06Z"/>
        <path class="cls-4" d="M101.12,67.07a22.62,22.62,0,0,0-3.27-2.17,18,18,0,0,1-3-2.66,20.76,20.76,0,0,1-4.46-7.41.29.29,0,0,0-.56.15,17,17,0,0,0,3.51,8.39c1.65,2,4.45,4.85,7.22,5A.8.8,0,0,0,101.12,67.07Z"/>
        <path class="cls-4" d="M104.82,63c-.45-1-1.65-1.64-2.39-2.4a12.1,12.1,0,0,1-2.11-3c-.25-.5-1-.15-.87.36a11.2,11.2,0,0,0,1.73,3.82c.72,1,1.74,2.2,3,2.3C104.79,64.07,105,63.4,104.82,63Z"/>
        <path class="cls-4" d="M136.62,48.07a.89.89,0,0,0-1.61-.21c-.7,1.15-.77,2.57-1.16,3.85a22.84,22.84,0,0,1-1.83,4.5c-1.54,2.78-3.75,4.79-6,6.92-.33.31,0,1,.46.8a16.79,16.79,0,0,0,7.27-6.42C135.31,55.15,137.61,51,136.62,48.07Z"/>
        <path class="cls-4" d="M143.73,70.51c-2-.75-4.45-.55-6.55-.9s-4.37-.81-6.53-1.26c-.42-.08-.71.49-.31.72A23.16,23.16,0,0,0,137,71.66c2.06.46,4.7,1.15,6.77.52A.87.87,0,0,0,143.73,70.51Z"/>
        <path class="cls-4" d="M137.7,82.68c-1-.94-2.53-1.1-3.71-1.75a29.38,29.38,0,0,1-3.59-2.48c-.41-.32-.79.26-.63.62A8.3,8.3,0,0,0,133,82.59c1.2.72,3,1.69,4.41,1.11A.62.62,0,0,0,137.7,82.68Z"/>
        <path class="cls-4" d="M131.69,87.36c-1.33-.73-2.65-1-3.77-2.12a7.76,7.76,0,0,1-2.08-4c-.09-.52-.9-.38-.9.13a6.86,6.86,0,0,0,1.92,5c1.14,1.23,2.94,2.44,4.68,2.15A.6.6,0,0,0,131.69,87.36Z"/>
        <path class="cls-4" d="M112.46,70.37c-1.67.45-.71,3.06.94,2.24C114.64,72,113.78,70,112.46,70.37Z"/>
        <path class="cls-4" d="M115.44,75.46a.73.73,0,0,0-.43-.34,2.32,2.32,0,0,0-.53-.05.75.75,0,0,0-.53.22.77.77,0,0,0-.22.53.75.75,0,0,0,.75.75,2.32,2.32,0,0,0,.53,0,.7.7,0,0,0,.37-.26.65.65,0,0,0,.16-.44A.88.88,0,0,0,115.44,75.46Z"/>
        <path class="cls-4" d="M118.29,73.85a.69.69,0,0,0-.51-.21,2.76,2.76,0,0,0-.4.06l-.22.09a.92.92,0,0,0-.43.24,1.1,1.1,0,0,0-.25.43,1,1,0,0,0,.25.94,1,1,0,0,0,.94.25.89.89,0,0,0,.43-.25,1,1,0,0,0,.25-.42,2.09,2.09,0,0,0,.08-.23,1.67,1.67,0,0,0,.07-.4A.71.71,0,0,0,118.29,73.85Z"/>
        <path class="cls-4" d="M121.46,70.11a.94.94,0,0,0,0,1.87A.94.94,0,0,0,121.46,70.11Z"/>
        <path class="cls-4" d="M116,69.63A.68.68,0,0,0,116,71,.68.68,0,0,0,116,69.63Z"/>
        <path class="cls-4" d="M116,65.35a.92.92,0,0,0,0,1.84A.92.92,0,0,0,116,65.35Z"/>
        <path class="cls-4" d="M120.36,73.19a.8.8,0,0,0,0,1.59A.8.8,0,0,0,120.36,73.19Z"/>
        <path class="cls-4" d="M111.82,69.57c-.07-.08-.12-.18-.19-.25a1.11,1.11,0,0,0-.71-.28l-.48,0a.94.94,0,1,0,0,1.87l.48,0a1.15,1.15,0,0,0,.62-.21,2.14,2.14,0,0,0,.28-.32A.72.72,0,0,0,111.82,69.57Z"/>
      </g>
      <g>
        <path class="cls-4" d="M120.2,89.8a16.13,16.13,0,0,1,2.32-4.75l3.7-5.76c1.91-3,3.54-6.08,7.55-5.87,3.4.17,6.93,1.83,9.75,3.65s5.69,4.28,7.13,7.47-.3,8-.87,11.45c-1.29,7.89-6.86,9-9.62,9.85a14.4,14.4,0,0,1-9.58-.52C124.8,103,118.6,96.52,120.2,89.8Z"/>
        <g>
          <path class="cls-7" d="M162.19,92.46c-4-4.76-10.51-9-17.32-7.82a6.7,6.7,0,0,0-4.07,2c-1.28,1.55-.74,3.33-.51,5.09a21.51,21.51,0,0,1-.16,6.6c-.36,2.09-1.19,4.07-1.54,6.16a.28.28,0,0,0,.41.28l1.12,2.58a.88.88,0,0,0-.59.62c-1.09,3.54.6,6.83,3,9.51s5.35,4.87,9.13,5.29c7.28.81,13.56-4.15,15.55-10.56C169.34,105.32,166.74,97.9,162.19,92.46Z"/>
          <path class="cls-7" d="M136.76,107.84l.38-2.78c.21,0,.42-.16.31-.39-.76-1.64-1.87-3.09-2.72-4.7a21.84,21.84,0,0,1-2.1-5.79c-.33-1.61-.14-3.55-1-5a4.62,4.62,0,0,0-3.43-2c-3.08-.43-6.44,1-8.92,2.62a21.84,21.84,0,0,0-6.64,7.36c-3.52,6.12-4.79,14.12-1.76,20.55,2.82,6,9.42,10.28,16.6,8.74a13.55,13.55,0,0,0,9.09-7.07c2-3.45,3.2-7.63,1-11.14A.88.88,0,0,0,136.76,107.84Z"/>
        </g>
        <path class="cls-6" d="M146.82,106.43c-.49-1.53-1.78-3-3.54-2.84a3.41,3.41,0,0,0-2.05,1,5.71,5.71,0,0,0-.66-2.68c-.71-1.31-2.24-2.63-3.84-2.23s-1.75,2.25-1.6,3.62a11,11,0,0,0,.5,2.32,3.62,3.62,0,0,0-1.47-.43,2.24,2.24,0,0,0-2.4,2.07c-.4,3.33,3,6.52,5.62,7.84a.16.16,0,0,0,.2,0,12.38,12.38,0,0,0,5.59,8.25c.47.29,1.32,0,1.16-.67q-1-3.94-2.29-7.8C145.37,113.52,148,110.17,146.82,106.43Z"/>
        <path class="cls-4" d="M133.48,117.67a21.62,21.62,0,0,0-2.29,2.3,15.35,15.35,0,0,1-2.73,2.16,19.87,19.87,0,0,1-6.86,2.53s0,.07,0,.07a13.44,13.44,0,0,0,7.28-1.49c2-1,4.7-2.66,5.45-4.92A.56.56,0,0,0,133.48,117.67Z"/>
        <path class="cls-4" d="M131.6,114.75a40.65,40.65,0,0,0-5.7,3.8c-.11.08,0,.23.11.2a14,14,0,0,0,6-3.43C132.3,115,131.92,114.59,131.6,114.75Z"/>
        <path class="cls-4" d="M131,111.52a19.31,19.31,0,0,1-2.13.63,5.14,5.14,0,0,1-2.6-.32.33.33,0,0,0-.25.6c1.51.67,3.93.95,5.24-.29C131.44,111.93,131.33,111.42,131,111.52Z"/>
        <path class="cls-4" d="M127.61,107.53a16,16,0,0,0-2.6-1.26,13.36,13.36,0,0,1-2.44-1.64,15.24,15.24,0,0,1-4-5,.21.21,0,0,0-.39.17,12.39,12.39,0,0,0,3.39,5.76c1.41,1.32,3.73,3.1,5.76,3A.57.57,0,0,0,127.61,107.53Z"/>
        <path class="cls-4" d="M129.9,104.16c-.43-.66-1.37-1-2-1.52a8.45,8.45,0,0,1-1.84-2c-.23-.34-.74,0-.6.35a8.2,8.2,0,0,0,1.65,2.61,3.52,3.52,0,0,0,2.43,1.38A.53.53,0,0,0,129.9,104.16Z"/>
        <path class="cls-4" d="M151.59,90.14a.65.65,0,0,0-1.19,0,11.88,11.88,0,0,0-.47,2.92,16,16,0,0,1-.88,3.46,20.78,20.78,0,0,1-3.71,5.65c-.21.26.1.71.41.53a12.25,12.25,0,0,0,4.66-5.4C151.34,95.44,152.61,92.18,151.59,90.14Z"/>
        <path class="cls-4" d="M159,105.79c-1.52-.35-3.3,0-4.86,0s-3.27-.15-4.89-.26a.29.29,0,0,0-.15.55,16.79,16.79,0,0,0,5.08,1.23c1.55.13,3.54.37,5-.29A.65.65,0,0,0,159,105.79Z"/>
        <path class="cls-4" d="M155.82,115.26c-.81-.59-1.95-.55-2.87-.91a22,22,0,0,1-2.87-1.45c-.32-.19-.55.27-.39.52a6.08,6.08,0,0,0,2.72,2.24c.94.41,2.35.93,3.32.37A.45.45,0,0,0,155.82,115.26Z"/>
        <path class="cls-4" d="M151.91,119.27a10.63,10.63,0,0,1-3-1.17,5.66,5.66,0,0,1-1.91-2.73c-.12-.37-.69-.19-.65.18a5.07,5.07,0,0,0,1.9,3.43,4.18,4.18,0,0,0,3.62,1.09A.44.44,0,0,0,151.91,119.27Z"/>
        <path class="cls-4" d="M136.2,108.8c-1.16.49-.21,2.3.91,1.54C138,109.77,137.14,108.41,136.2,108.8Z"/>
        <path class="cls-4" d="M138.89,112.21a.55.55,0,0,0-.35-.2,1.67,1.67,0,0,0-.39,0,.53.53,0,0,0-.47.62.52.52,0,0,0,.21.36.57.57,0,0,0,.4.11,2.46,2.46,0,0,0,.39-.09.53.53,0,0,0,.24-.23.49.49,0,0,0,.07-.33A.59.59,0,0,0,138.89,112.21Z"/>
        <path class="cls-4" d="M140.8,110.75a.55.55,0,0,0-.39-.1,1.31,1.31,0,0,0-.28.09l-.16.08a.8.8,0,0,0-.29.23.68.68,0,0,0-.13.33.71.71,0,0,0,1.27.53.79.79,0,0,0,.14-.34l0-.17a1.5,1.5,0,0,0,0-.3A.51.51,0,0,0,140.8,110.75Z"/>
        <path class="cls-4" d="M142.74,107.72a.69.69,0,0,0,.18,1.36A.69.69,0,0,0,142.74,107.72Z"/>
        <path class="cls-4" d="M138.67,107.92a.5.5,0,0,0,.14,1A.5.5,0,0,0,138.67,107.92Z"/>
        <path class="cls-4" d="M138.25,104.8a.67.67,0,0,0,.18,1.33A.67.67,0,0,0,138.25,104.8Z"/>
        <path class="cls-4" d="M142.24,110.07a.59.59,0,0,0,.16,1.16A.59.59,0,0,0,142.24,110.07Z"/>
        <path class="cls-4" d="M135.66,108.28c-.06,0-.11-.12-.17-.16A.79.79,0,0,0,135,108l-.35,0a.7.7,0,0,0-.59.77.69.69,0,0,0,.77.59l.35-.07a.76.76,0,0,0,.43-.21,1.45,1.45,0,0,0,.17-.26A.52.52,0,0,0,135.66,108.28Z"/>
      </g>
      <g>
        <path class="cls-4" d="M57.21,30.26a15.65,15.65,0,0,1,2.32-4.75c1.23-1.93,2.47-3.85,3.7-5.77,1.9-3,3.53-6.08,7.55-5.87,3.4.18,6.93,1.84,9.75,3.65s5.69,4.29,7.13,7.48-.3,8-.87,11.45c-1.3,7.89-6.86,9-9.62,9.84a14.37,14.37,0,0,1-9.59-.52C61.81,43.46,55.61,37,57.21,30.26Z"/>
        <g>
          <path class="cls-8" d="M99.2,32.91c-4-4.76-10.51-9-17.33-7.82a6.68,6.68,0,0,0-4.06,2c-1.28,1.55-.75,3.33-.51,5.09a22.14,22.14,0,0,1-.16,6.6C76.77,40.9,76,42.88,75.6,45c0,.25.21.36.41.29l1.11,2.58a.87.87,0,0,0-.58.62c-1.09,3.54.6,6.83,3,9.5s5.35,4.87,9.12,5.3c7.29.81,13.57-4.16,15.56-10.57C106.35,45.78,103.74,38.36,99.2,32.91Z"/>
          <path class="cls-8" d="M73.76,48.3l.38-2.78c.22,0,.43-.17.32-.39-.76-1.65-1.87-3.1-2.72-4.7a22,22,0,0,1-2.1-5.79c-.34-1.62-.15-3.55-1-5a4.66,4.66,0,0,0-3.43-2c-3.09-.43-6.44,1-8.93,2.63a21.77,21.77,0,0,0-6.63,7.35c-3.52,6.13-4.79,14.13-1.77,20.56,2.83,6,9.43,10.27,16.61,8.73,4.22-.9,7.07-3.53,9.09-7.06s3.2-7.64,1-11.14A.87.87,0,0,0,73.76,48.3Z"/>
        </g>
        <path class="cls-6" d="M83.83,46.89c-.49-1.54-1.78-3-3.54-2.85a3.53,3.53,0,0,0-2.05,1,5.63,5.63,0,0,0-.67-2.68c-.7-1.3-2.23-2.63-3.83-2.22s-1.75,2.24-1.6,3.62a10.91,10.91,0,0,0,.5,2.31,3.77,3.77,0,0,0-1.47-.42,2.23,2.23,0,0,0-2.4,2.07c-.4,3.33,3,6.51,5.62,7.84a.18.18,0,0,0,.2-.05,12.4,12.4,0,0,0,5.59,8.25c.47.29,1.32,0,1.15-.68-.65-2.63-1.41-5.22-2.28-7.79C82.37,54,85,50.62,83.83,46.89Z"/>
        <path class="cls-4" d="M70.49,58.13a20.72,20.72,0,0,0-2.29,2.3,15.72,15.72,0,0,1-2.73,2.16,20.07,20.07,0,0,1-6.86,2.53s0,.07,0,.07a13.55,13.55,0,0,0,7.28-1.49c2-1,4.7-2.66,5.45-4.93A.56.56,0,0,0,70.49,58.13Z"/>
        <path class="cls-4" d="M68.6,55.2A40.62,40.62,0,0,0,62.91,59c-.11.08,0,.23.11.19a13.77,13.77,0,0,0,6-3.43C69.3,55.49,68.93,55.05,68.6,55.2Z"/>
        <path class="cls-4" d="M68,52a20,20,0,0,1-2.13.64,5.13,5.13,0,0,1-2.6-.33.33.33,0,0,0-.25.6c1.5.68,3.93.95,5.24-.29C68.45,52.38,68.34,51.88,68,52Z"/>
        <path class="cls-4" d="M64.62,48A16.36,16.36,0,0,0,62,46.73a13.58,13.58,0,0,1-2.44-1.65,15.17,15.17,0,0,1-4-4.95.21.21,0,0,0-.39.17,12.49,12.49,0,0,0,3.39,5.76C60,47.38,62.32,49.15,64.35,49A.58.58,0,0,0,64.62,48Z"/>
        <path class="cls-4" d="M66.91,44.61c-.43-.65-1.37-1-2-1.51a8.7,8.7,0,0,1-1.84-2c-.23-.33-.75,0-.6.36a8.46,8.46,0,0,0,1.64,2.61,3.49,3.49,0,0,0,2.44,1.37C67,45.43,67.11,44.91,66.91,44.61Z"/>
        <path class="cls-4" d="M88.6,30.6a.66.66,0,0,0-1.2,0,12.44,12.44,0,0,0-.46,2.93A17.22,17.22,0,0,1,86.06,37a21,21,0,0,1-3.71,5.64c-.21.26.1.71.41.54a12.36,12.36,0,0,0,4.66-5.4C88.35,35.89,89.61,32.64,88.6,30.6Z"/>
        <path class="cls-4" d="M96,46.25c-1.52-.36-3.3,0-4.87,0s-3.26-.16-4.88-.27a.29.29,0,0,0-.15.56,17.33,17.33,0,0,0,5.08,1.23c1.55.13,3.54.37,5-.3A.64.64,0,0,0,96,46.25Z"/>
        <path class="cls-4" d="M92.83,55.71c-.81-.59-2-.55-2.87-.9a20.37,20.37,0,0,1-2.87-1.46c-.33-.18-.55.28-.39.52a6,6,0,0,0,2.72,2.24c.94.41,2.34.94,3.32.38A.47.47,0,0,0,92.83,55.71Z"/>
        <path class="cls-4" d="M88.92,59.72a10.31,10.31,0,0,1-3-1.16A5.75,5.75,0,0,1,84,55.83c-.11-.37-.69-.19-.64.18a5,5,0,0,0,1.9,3.42,4.19,4.19,0,0,0,3.62,1.1A.44.44,0,0,0,88.92,59.72Z"/>
        <path class="cls-4" d="M73.21,49.26c-1.17.49-.21,2.3.91,1.53C75,50.22,74.14,48.87,73.21,49.26Z"/>
        <path class="cls-4" d="M75.89,52.67a.55.55,0,0,0-.34-.2,1.79,1.79,0,0,0-.4,0,.55.55,0,0,0-.36.22.57.57,0,0,0-.11.4.62.62,0,0,0,.22.37.52.52,0,0,0,.4.1,1.18,1.18,0,0,0,.38-.09.54.54,0,0,0,.25-.22.5.5,0,0,0,.07-.34A.57.57,0,0,0,75.89,52.67Z"/>
        <path class="cls-4" d="M77.81,51.21a.51.51,0,0,0-.39-.1,1.38,1.38,0,0,0-.29.08l-.15.09a.7.7,0,0,0-.29.22.79.79,0,0,0-.14.34.71.71,0,0,0,1.28.52A.81.81,0,0,0,78,52l0-.18a.93.93,0,0,0,0-.29A.55.55,0,0,0,77.81,51.21Z"/>
        <path class="cls-4" d="M79.75,48.17a.69.69,0,0,0,.18,1.36A.69.69,0,0,0,79.75,48.17Z"/>
        <path class="cls-4" d="M75.68,48.37a.5.5,0,0,0,.14,1A.5.5,0,0,0,75.68,48.37Z"/>
        <path class="cls-4" d="M75.26,45.25a.68.68,0,0,0,.18,1.34A.68.68,0,0,0,75.26,45.25Z"/>
        <path class="cls-4" d="M79.25,50.52a.59.59,0,0,0,.16,1.17A.59.59,0,0,0,79.25,50.52Z"/>
        <path class="cls-4" d="M72.67,48.73l-.17-.16a.8.8,0,0,0-.54-.13l-.36,0a.68.68,0,0,0-.58.77.69.69,0,0,0,.77.59l.35-.07a.81.81,0,0,0,.43-.22,1,1,0,0,0,.17-.26A.53.53,0,0,0,72.67,48.73Z"/>
      </g>
      <g>
        <path class="cls-4" d="M140.6,120a13.11,13.11,0,0,1,3.08-3.18l4.46-3.63c2.29-1.87,4.41-3.93,7.55-2.71a17.58,17.58,0,0,1,6.82,5.45,15.56,15.56,0,0,1,3.74,7.82c.32,3-2.33,6.31-3.68,8.91-3.09,6-7.82,5.38-10.24,5.34a12.09,12.09,0,0,1-7.51-2.92C140.82,131.71,137.57,124.93,140.6,120Z"/>
        <g>
          <path class="cls-5" d="M173.39,133.06c-1.92-4.83-6-9.9-11.78-10.76a5.62,5.62,0,0,0-3.77.56c-1.43.9-1.46,2.46-1.74,3.92a18.52,18.52,0,0,1-1.84,5.23c-.84,1.57-2,2.93-2.84,4.5a.24.24,0,0,0,.25.34l.22,2.35a.72.72,0,0,0-.63.34c-1.79,2.54-1.3,5.6-.1,8.36a12.15,12.15,0,0,0,5.89,6.6,12.45,12.45,0,0,0,15.16-4.36C175.73,145.18,175.59,138.59,173.39,133.06Z"/>
          <path class="cls-5" d="M149.09,138.69l1-2.12c.16.06.38,0,.35-.23-.18-1.51-.68-3-.94-4.46a18.22,18.22,0,0,1-.17-5.16c.16-1.38.82-2.87.48-4.26a3.89,3.89,0,0,0-2.22-2.46c-2.35-1.15-5.39-.91-7.8-.24a18.17,18.17,0,0,0-7.21,4.14c-4.41,4-7.51,10-6.78,15.92.69,5.52,4.84,10.66,11,11.31a11.4,11.4,0,0,0,9.1-3.26c2.47-2.24,4.54-5.26,3.67-8.64A.73.73,0,0,0,149.09,138.69Z"/>
        </g>
        <path class="cls-6" d="M157.48,140.19c0-1.35-.63-2.89-2.08-3.19a2.82,2.82,0,0,0-1.89.26,4.85,4.85,0,0,0,.17-2.31c-.23-1.23-1.1-2.68-2.48-2.78s-2,1.34-2.23,2.47a9.64,9.64,0,0,0-.2,2,3,3,0,0,0-1.06-.72,1.86,1.86,0,0,0-2.45,1c-1.19,2.55.65,6,2.43,7.72a.14.14,0,0,0,.18,0,10.35,10.35,0,0,0,2.3,8c.3.36,1.05.34,1.1-.24.16-2.26.23-4.54.21-6.81C154.47,145.46,157.47,143.48,157.48,140.19Z"/>
        <path class="cls-4" d="M143.91,145.67a17.37,17.37,0,0,0-2.43,1.24,12.69,12.69,0,0,1-2.74,1,16.62,16.62,0,0,1-6.13.22s-.05.05,0,.06a11.33,11.33,0,0,0,6.2.71c1.87-.28,4.44-.89,5.63-2.5A.47.47,0,0,0,143.91,145.67Z"/>
        <path class="cls-4" d="M143.17,142.85a33.41,33.41,0,0,0-5.53,1.55c-.11,0-.06.18,0,.18a11.75,11.75,0,0,0,5.7-1.16A.32.32,0,0,0,143.17,142.85Z"/>
        <path class="cls-4" d="M143.51,140.1a16.45,16.45,0,0,1-1.86,0,4.32,4.32,0,0,1-2-.94.27.27,0,0,0-.36.41c1,.93,2.89,1.79,4.25,1.14C143.79,140.56,143.83,140.13,143.51,140.1Z"/>
        <path class="cls-4" d="M141.88,136.05a13.93,13.93,0,0,0-1.75-1.68,11.48,11.48,0,0,1-1.52-2,12.89,12.89,0,0,1-1.88-5,.18.18,0,0,0-.36,0,10.51,10.51,0,0,0,1.2,5.48c.78,1.42,2.17,3.44,3.83,3.86A.49.49,0,0,0,141.88,136.05Z"/>
        <path class="cls-4" d="M144.58,134c-.16-.64-.82-1.18-1.18-1.73a7,7,0,0,1-1-2.06c-.09-.32-.59-.2-.57.13a6.88,6.88,0,0,0,.63,2.51c.33.68.81,1.53,1.58,1.73C144.44,134.63,144.66,134.25,144.58,134Z"/>
        <path class="cls-4" d="M165.54,128.44a.55.55,0,0,0-1-.3,10,10,0,0,0-1.13,2.21,14.25,14.25,0,0,1-1.61,2.53,17.63,17.63,0,0,1-4.43,3.53c-.23.15-.1.59.19.53a10.39,10.39,0,0,0,5.13-3.08C164,132.6,165.81,130.34,165.54,128.44Z"/>
        <path class="cls-4" d="M167.37,142.86a21.78,21.78,0,0,0-3.88-1.28c-1.28-.46-2.56-1-3.83-1.48a.24.24,0,0,0-.26.4,14.22,14.22,0,0,0,3.73,2.3,8.87,8.87,0,0,0,4.05,1.07A.54.54,0,0,0,167.37,142.86Z"/>
        <path class="cls-4" d="M162.36,149.58c-.5-.68-1.41-1-2.06-1.48a17.94,17.94,0,0,1-1.9-1.9c-.22-.24-.51.07-.45.31a5,5,0,0,0,1.58,2.49c.65.58,1.63,1.36,2.55,1.17A.39.39,0,0,0,162.36,149.58Z"/>
        <path class="cls-4" d="M158.19,151.75a8.56,8.56,0,0,1-2.05-1.7,4.73,4.73,0,0,1-.82-2.68c0-.32-.5-.33-.56,0a4.25,4.25,0,0,0,.62,3.23,3.53,3.53,0,0,0,2.6,1.82A.38.38,0,0,0,158.19,151.75Z"/>
        <path class="cls-4" d="M148.4,139.31a.75.75,0,1,0,.32,1.46C149.54,140.53,149.24,139.24,148.4,139.31Z"/>
        <path class="cls-4" d="M149.65,142.73a.47.47,0,0,0-.23-.25,1.08,1.08,0,0,0-.32-.09.45.45,0,0,0-.34.07.46.46,0,0,0-.19.3.44.44,0,0,0,.07.34.43.43,0,0,0,.3.19.91.91,0,0,0,.33,0,.47.47,0,0,0,.25-.11.5.5,0,0,0,.15-.25A.58.58,0,0,0,149.65,142.73Z"/>
        <path class="cls-4" d="M151.55,142.07a.42.42,0,0,0-.28-.19,1,1,0,0,0-.25,0l-.15,0a.57.57,0,0,0-.28.11.56.56,0,0,0-.2.23.59.59,0,0,0,.05.6.6.6,0,0,0,.54.25.63.63,0,0,0,.29-.1.74.74,0,0,0,.2-.23l.07-.13a1,1,0,0,0,.08-.24A.41.41,0,0,0,151.55,142.07Z"/>
        <path class="cls-4" d="M153.89,140.15a.57.57,0,0,0-.21,1.13A.57.57,0,0,0,153.89,140.15Z"/>
        <path class="cls-4" d="M150.6,139.25a.42.42,0,0,0-.15.82A.42.42,0,0,0,150.6,139.25Z"/>
        <path class="cls-4" d="M151.07,136.65a.56.56,0,0,0-.2,1.11A.56.56,0,0,0,151.07,136.65Z"/>
        <path class="cls-4" d="M152.88,141.89a.49.49,0,0,0-.18,1A.49.49,0,0,0,152.88,141.89Z"/>
        <path class="cls-4" d="M148.1,138.75a.91.91,0,0,0-.09-.17.66.66,0,0,0-.4-.25l-.29-.07a.58.58,0,0,0-.67.46.58.58,0,0,0,.47.67l.29,0a.69.69,0,0,0,.4-.06.78.78,0,0,0,.2-.16A.46.46,0,0,0,148.1,138.75Z"/>
      </g>
      <g>
        <path class="cls-4" d="M148,152.87a8.21,8.21,0,0,1,1.92-2l2.78-2.26c1.42-1.16,2.74-2.44,4.69-1.69a11.14,11.14,0,0,1,4.25,3.39,9.66,9.66,0,0,1,2.32,4.87c.2,1.89-1.45,3.92-2.29,5.54-1.92,3.7-4.86,3.34-6.37,3.32a7.51,7.51,0,0,1-4.67-1.81C148.09,160.16,146.07,155.94,148,152.87Z"/>
        <g>
          <path class="cls-5" d="M168.35,161c-1.19-3-3.76-6.16-7.32-6.69a3.45,3.45,0,0,0-2.35.35c-.89.56-.91,1.53-1.08,2.44a11.26,11.26,0,0,1-1.15,3.25c-.52,1-1.25,1.82-1.76,2.8-.06.11,0,.21.15.21l.14,1.46a.47.47,0,0,0-.39.21c-1.12,1.58-.81,3.49-.07,5.2a7.61,7.61,0,0,0,3.67,4.11,7.75,7.75,0,0,0,9.43-2.72C169.81,168.54,169.72,164.44,168.35,161Z"/>
          <path class="cls-5" d="M153.24,164.5l.64-1.32a.15.15,0,0,0,.22-.14c-.12-.94-.43-1.84-.59-2.77a11.52,11.52,0,0,1-.1-3.21,8,8,0,0,0,.29-2.65,2.4,2.4,0,0,0-1.38-1.53,7.09,7.09,0,0,0-4.85-.15A11.3,11.3,0,0,0,143,155.3c-2.74,2.47-4.67,6.23-4.21,9.91a7.9,7.9,0,0,0,6.82,7,7.08,7.08,0,0,0,5.66-2c1.54-1.39,2.82-3.27,2.28-5.37A.46.46,0,0,0,153.24,164.5Z"/>
        </g>
        <path class="cls-6" d="M158.46,165.44a1.89,1.89,0,0,0-1.3-2,1.72,1.72,0,0,0-1.17.17,3,3,0,0,0,.1-1.44c-.14-.77-.68-1.67-1.54-1.73s-1.23.83-1.38,1.54a5.71,5.71,0,0,0-.13,1.23,1.85,1.85,0,0,0-.66-.45,1.17,1.17,0,0,0-1.53.63c-.74,1.59.41,3.71,1.52,4.8,0,0,.07,0,.11,0a6.43,6.43,0,0,0,1.43,5c.18.22.65.21.68-.14.1-1.42.15-2.83.13-4.24C156.59,168.71,158.45,167.48,158.46,165.44Z"/>
        <path class="cls-4" d="M150,168.85a9.86,9.86,0,0,0-1.52.77,7.86,7.86,0,0,1-1.7.62,10.4,10.4,0,0,1-3.81.14s0,0,0,0a7.07,7.07,0,0,0,3.86.44c1.16-.17,2.76-.55,3.5-1.56A.28.28,0,0,0,150,168.85Z"/>
        <path class="cls-4" d="M149.56,167.09a21.05,21.05,0,0,0-3.45,1c-.06,0,0,.12,0,.12a7.19,7.19,0,0,0,3.54-.73C149.86,167.35,149.74,167.07,149.56,167.09Z"/>
        <path class="cls-4" d="M149.76,165.38a7.4,7.4,0,0,1-1.15,0,2.59,2.59,0,0,1-1.24-.58.17.17,0,0,0-.22.26,2.64,2.64,0,0,0,2.64.7C149.94,165.67,150,165.4,149.76,165.38Z"/>
        <path class="cls-4" d="M148.75,162.86a7.59,7.59,0,0,0-1.08-1,6.56,6.56,0,0,1-.95-1.22,7.9,7.9,0,0,1-1.17-3.1.11.11,0,0,0-.22,0,6.53,6.53,0,0,0,.74,3.41c.49.88,1.35,2.14,2.38,2.4A.31.31,0,0,0,148.75,162.86Z"/>
        <path class="cls-4" d="M150.43,161.56c-.1-.39-.51-.73-.73-1.07a4.5,4.5,0,0,1-.59-1.28c-.06-.21-.37-.13-.36.07a4.48,4.48,0,0,0,.39,1.57c.21.42.51,1,1,1.07C150.35,162,150.48,161.74,150.43,161.56Z"/>
        <path class="cls-4" d="M163.47,158.13a.35.35,0,0,0-.6-.19,6.8,6.8,0,0,0-.7,1.37,8.42,8.42,0,0,1-1,1.58,10.93,10.93,0,0,1-2.76,2.2c-.14.09-.06.37.12.33a6.46,6.46,0,0,0,3.19-1.92C162.49,160.72,163.64,159.31,163.47,158.13Z"/>
        <path class="cls-4" d="M164.61,167.1a14.19,14.19,0,0,0-2.41-.8c-.8-.29-1.6-.6-2.39-.92a.15.15,0,0,0-.16.25,8.8,8.8,0,0,0,2.32,1.43,5.55,5.55,0,0,0,2.52.67A.34.34,0,0,0,164.61,167.1Z"/>
        <path class="cls-4" d="M161.49,171.28c-.31-.43-.88-.59-1.28-.92a11,11,0,0,1-1.18-1.19c-.14-.14-.32.05-.28.2a3.2,3.2,0,0,0,1,1.55c.4.36,1,.84,1.59.72A.23.23,0,0,0,161.49,171.28Z"/>
        <path class="cls-4" d="M158.9,172.63a5.65,5.65,0,0,1-1.28-1.06,3.06,3.06,0,0,1-.51-1.66c0-.21-.31-.21-.35,0a2.7,2.7,0,0,0,.39,2,2.18,2.18,0,0,0,1.62,1.13A.23.23,0,0,0,158.9,172.63Z"/>
        <path class="cls-4" d="M152.81,164.89c-.66.05-.48,1.1.2.91C153.52,165.65,153.33,164.85,152.81,164.89Z"/>
        <path class="cls-4" d="M153.58,167a.29.29,0,0,0-.14-.15,1.06,1.06,0,0,0-.19-.06.34.34,0,0,0-.22,0,.29.29,0,0,0,.11.52l.21,0a.35.35,0,0,0,.16-.08.29.29,0,0,0,.09-.15A.39.39,0,0,0,153.58,167Z"/>
        <path class="cls-4" d="M154.77,166.6a.27.27,0,0,0-.18-.11.75.75,0,0,0-.15,0h-.09a.36.36,0,0,0-.18.07.28.28,0,0,0-.12.14.38.38,0,0,0,0,.37.39.39,0,0,0,.34.16.35.35,0,0,0,.18-.06.29.29,0,0,0,.12-.15l0-.08a.34.34,0,0,0,.05-.14A.26.26,0,0,0,154.77,166.6Z"/>
        <path class="cls-4" d="M156.22,165.41a.36.36,0,0,0-.12.71A.36.36,0,0,0,156.22,165.41Z"/>
        <path class="cls-4" d="M154.18,164.85a.26.26,0,0,0-.1.51A.26.26,0,0,0,154.18,164.85Z"/>
        <path class="cls-4" d="M154.47,163.23a.36.36,0,0,0-.13.7A.36.36,0,0,0,154.47,163.23Z"/>
        <path class="cls-4" d="M155.6,166.5a.31.31,0,0,0-.11.6A.31.31,0,0,0,155.6,166.5Z"/>
        <path class="cls-4" d="M152.62,164.54a1.17,1.17,0,0,1-.05-.11.5.5,0,0,0-.25-.15l-.18,0a.36.36,0,0,0-.42.28.36.36,0,0,0,.29.42l.18,0a.43.43,0,0,0,.25,0l.13-.1A.28.28,0,0,0,152.62,164.54Z"/>
      </g>
      <g>
        <path class="cls-2" d="M128.71,180.56c1-8.34,1.23-16.75,2.38-25.08a1.17,1.17,0,0,0-1.55-1.27c-13.16,3.15-22.79,13.7-29,25.23C94,191.68,91,205.53,84,217.57a45.83,45.83,0,0,1-7.74,10.25c-1.89.39-3.76.81-5.62,1.31-1.32.36-.93,2.27.24,2.49l0,.17-.12.07c-.18.1-.16.46.09.4a13.3,13.3,0,0,0,2.58-.88,99.75,99.75,0,0,0,19.86-5,61.74,61.74,0,0,0,18-9.79,43.25,43.25,0,0,0,12.3-15.6C126.5,194.53,127.88,187.52,128.71,180.56Z"/>
        <path class="cls-3" d="M131.05,155.72a1.1,1.1,0,0,0-.34-1,57.81,57.81,0,0,0-9.3,15c-3,6.52-5.46,13.23-8.69,19.63a103.49,103.49,0,0,1-12.25,19c-5.07,6.2-11.08,11.31-16.91,16.76q-2.93,2.75-5.53,5.69a107.53,107.53,0,0,0,15.19-4.27,61.48,61.48,0,0,0,18-9.78,43.28,43.28,0,0,0,12.3-15.61c2.94-6.4,4.32-13.42,5.15-20.38C129.68,172.45,129.9,164,131.05,155.72Z"/>
      </g>
      <path class="cls-2" d="M63.54,229.25c-1.61-1.27-20.46-12.32-26.81-15.06a79.11,79.11,0,0,0-21.42-5.72c-1.65-.21-1.87,2.09-.77,2.85,7.27,5,14.69,10,22.92,13.28s16.92,3.5,25.22,6.12C63.48,231,64.25,229.8,63.54,229.25Z"/>
      <path class="cls-2" d="M124.33,175.6c-1.52,8.36-3.06,16.58-7.88,23.76a52.78,52.78,0,0,1-7.44,8.56c-2.78,2.65-5.9,4.88-8.61,7.57a1.11,1.11,0,0,0,1.34,1.73,39.45,39.45,0,0,0,9.53-7.45,50.43,50.43,0,0,0,7.28-9.18c4.68-7.62,5.71-16.18,6-25A.14.14,0,0,0,124.33,175.6Z"/>
      <path class="cls-2" d="M92.62,177.24c-.94-5.34-2.25-10.6-2.88-16s-.92-10.59-1.3-15.87a.12.12,0,0,0-.24,0,52.12,52.12,0,0,0-.93,16.25,56.08,56.08,0,0,0,3.41,16.18A1,1,0,0,0,92.62,177.24Z"/>
      <path class="cls-2" d="M42,211.62c-2.22-2.28-5.3-3.56-7.68-5.69a31.62,31.62,0,0,1-5.61-6.81c-3.36-5.36-5.77-11.31-8.86-16.81-.08-.14-.31-.05-.26.1,2.11,6.3,4.45,12.76,7.94,18.46a28.94,28.94,0,0,0,5.8,7c2.32,2,5.07,4,8.06,4.83A.63.63,0,0,0,42,211.62Z"/>
      <path class="cls-2" d="M58.52,220.1a50.56,50.56,0,0,1-6.77-3.23c-.4-.25-.76.38-.37.63a20.64,20.64,0,0,0,6.89,3.2C58.61,220.77,58.89,220.26,58.52,220.1Z"/>
      <path class="cls-2" d="M67.47,167.8c-2.42-5.4-4.7-10.86-7.24-16.21s-4.92-10.76-7-16.29a124.47,124.47,0,0,1-5-16.37,82.25,82.25,0,0,1-1.5-8.67c-.33-2.79-.3-5.65-.86-8.41a.1.1,0,0,0-.19,0,28.55,28.55,0,0,0-.17,8.41c.22,2.83.58,5.66,1.08,8.46a102.32,102.32,0,0,0,4.69,17.1A174.92,174.92,0,0,0,58.23,152c2.65,5.5,5.87,10.69,9,15.93C67.33,168.09,67.54,168,67.47,167.8Z"/>
      <path class="cls-2" d="M83.32,206.55a95.6,95.6,0,0,0-5.56-16.88,90.68,90.68,0,0,0-8.49-16.18.15.15,0,0,0-.27.15c2.49,5.44,5.23,10.74,7.57,16.26S80.93,201,83,206.64A.17.17,0,0,0,83.32,206.55Z"/>
      <path class="cls-9" d="M121.22,160.48c-5.1,1.87-9.43,6.39-12.75,10.57a67.35,67.35,0,0,0-8.55,14.78c-2.46,5.58-4.48,11.33-6.73,17a140.54,140.54,0,0,1-8.7,17.51s0,.11.08.06c4.3-4.21,7.32-9.56,10.13-14.85s5.32-10.93,8-16.4c2.49-5.1,5.13-10,8.09-14.85a60.2,60.2,0,0,1,4.85-6.82c1.87-2.25,4-4.18,6-6.36C121.82,160.86,121.6,160.34,121.22,160.48Z"/>
      <path class="cls-9" d="M86.22,135.82a63.49,63.49,0,0,0-12.81,25.46c-2.07,9-2.41,19.8,2.57,28,.4.66,1.26.19,1.17-.5a93.08,93.08,0,0,1-1.29-13.45,62.92,62.92,0,0,1,1.41-13.68c2-8.84,5.58-17.33,9.33-25.55C86.7,135.88,86.41,135.59,86.22,135.82Z"/>
      <path class="cls-9" d="M39.23,220.45c-3-3-7.67-4.78-11.56-6.44-1.92-.83-3.84-1.69-5.81-2.39A21.67,21.67,0,0,0,15.78,210a0,0,0,0,0,0,0,24.86,24.86,0,0,0,5,3.23c1.93,1.11,3.95,2.09,5.92,3.12s3.78,1.9,5.67,2.86a22.78,22.78,0,0,0,6.13,2.47A.75.75,0,0,0,39.23,220.45Z"/>
      <path class="cls-9" d="M71.72,208.69C70.54,204.1,66.33,200,62.8,197a73.06,73.06,0,0,0-13.47-8.62C39.18,183.09,29.07,178.23,20.12,171c-.11-.09-.32,0-.22.16,6.33,8.86,16.92,13.66,26.2,18.75a110.81,110.81,0,0,1,13.54,8.37,66.26,66.26,0,0,1,6,4.93c2,1.86,3.55,4,5.58,5.79A.28.28,0,0,0,71.72,208.69Z"/>
      <path class="cls-9" d="M77.12,183.8c0-.08-.18,0-.15.06,1.5,4.85,2.5,9.86,4.19,14.63.09.26.5.23.49-.06C81.47,193.24,79.52,188.35,77.12,183.8Z"/>
      <path class="cls-10" d="M134.67,142.46a3.53,3.53,0,0,0-1.61,1.15,2,2,0,0,0-.74,1.51.17.17,0,0,0,.21.12c.5-.17.79-.65,1.17-1s1-.66,1.42-1S135.09,142.33,134.67,142.46Z"/>
      <g>
        <g>
          <path class="cls-11" d="M38.52,327.06h69.37a4.15,4.15,0,0,0,4.09-3.4l17.83-96.49a.65.65,0,0,0-.64-.76H19a.64.64,0,0,0-.63.75L34.6,323.75A4,4,0,0,0,38.52,327.06Z"/>
          <path class="cls-12" d="M111.22,226.41,96.56,304.66a20,20,0,0,1-16.88,16.13l-41.62,5.86a.21.21,0,0,0,0,.41h69.8a4.15,4.15,0,0,0,4.09-3.4l17.83-96.49a.65.65,0,0,0-.64-.76Z"/>
        </g>
        <path class="cls-13" d="M46.6,310.24c-.56-2.89-1.1-5.78-1.65-8.67q-1.66-8.85-3.26-17.71-3.19-17.7-6.42-35.4c-.59-3.23-1.3-6.43-2.18-9.59a43.34,43.34,0,0,0-1.89-4.94c-.54-1.27-.82-2.69-2.1-3.39a1,1,0,0,0-1.16.15,4,4,0,0,0-1,2.77c-.14,1.63-.37,3.26-.42,4.89a57.89,57.89,0,0,0,.51,8.73c.78,6.21,1.65,12.41,2.51,18.61,1.64,11.91,3.73,23.77,5.73,35.62q.85,5.06,1.72,10.1c.3,1.75.61,3.49.91,5.23.42,2.4,1.08,4,3.11,5.53s4.72.24,5.85-1.54C48.83,317.64,47.22,313.47,46.6,310.24Z"/>
        <path class="cls-13" d="M50.26,285.34c-.65-6.1-1.77-12.15-2.77-18.2s-2.12-12-3.28-18c-.59-3-1.23-6-2.09-8.91-.39-1.35-.79-2.7-1.18-4.05A13.77,13.77,0,0,0,39.45,232a.71.71,0,0,0-1.28.17,13.58,13.58,0,0,0,0,4.36c.1,1.39.19,2.78.28,4.17.2,3,.57,6,1,9,.88,6.07,1.73,12.15,2.63,18.22s1.6,12.16,2.71,18.19a50.92,50.92,0,0,0,2,8.89,81.77,81.77,0,0,1,2.72,8.69.46.46,0,0,0,.89-.12,89.06,89.06,0,0,1,.31-9.1A47,47,0,0,0,50.26,285.34Z"/>
        <path class="cls-11" d="M122,234.93c0-.38-.57-.61-.78-.21-1.52,3-2.19,6.38-3,9.63s-1.48,6.48-2.16,9.74c-1.41,6.75-2.75,13.51-4.1,20.27s-2.72,13.52-4,20.29c-.63,3.28-1.25,6.55-1.88,9.82a45.2,45.2,0,0,0-1.21,10.36c0,1.2,1.9,1.95,2.47.67,2.71-6.12,3.36-13.2,4.63-19.74,1.31-6.78,2.53-13.57,3.79-20.36s2.52-13.57,3.72-20.37c.57-3.29,1.12-6.59,1.61-9.89S122.29,238.32,122,234.93Z"/>
      </g>
    </g>
  </g>
</svg>
