<svg id="Layer_1" data-name="Layer 1" xmlns="http://www.w3.org/2000/svg" width="298.73" height="267.01" viewBox="0 0 298.73 267.01">
  <defs>
    <style>
      .cls-1 {
        fill: #ff0;
      }

      .cls-2 {
        fill: #fac213;
        stroke: #c48d05;
      }

      .cls-2, .cls-3, .cls-4, .cls-5, .cls-7, .cls-8, .cls-9 {
        stroke-miterlimit: 10;
      }

      .cls-2, .cls-9 {
        stroke-width: 0.5px;
      }

      .cls-3 {
        fill: #ccad56;
      }

      .cls-3, .cls-7 {
        stroke: #d8a209;
      }

      .cls-3, .cls-4, .cls-5, .cls-7, .cls-8 {
        stroke-width: 0.75px;
      }

      .cls-4 {
        fill: #af924b;
        stroke: #bf9222;
      }

      .cls-5 {
        fill: #9e8346;
        stroke: #967012;
      }

      .cls-6 {
        fill: #fff;
        opacity: 0.17;
      }

      .cls-7, .cls-8 {
        fill: #7f6634;
      }

      .cls-8 {
        stroke: #665222;
      }

      .cls-9 {
        fill: #bc8813;
        stroke: #996b10;
      }
    </style>
  </defs>
  <g>
    <path class="cls-1" d="M52.64,251.2c25.9,4.93,60.24,7.64,96.71,7.64s70.82-2.71,96.71-7.64c39.35-7.49,44.35-17.13,44.47-23.83a6,6,0,0,0-.11-1.73,12.5,12.5,0,0,0-3-6.49c-12.18-22.59-31.9-33.42-41.9-37.68a61.33,61.33,0,0,0-28.26-28.68c-4.56-6.24-7.73-20.59-11.07-35.75-2.67-12.13-5.7-25.87-10.12-39-5.38-16.05-15-24.17-23.71-28.26a27.16,27.16,0,1,0-46,0c-9,4.19-18.37,12.39-23.7,28.27-.34,1-.68,2.08-1,3.12l-.42,1.35c-.19.59-.37,1.18-.55,1.77l-.45,1.53c-.15.53-.31,1-.46,1.59l-.88,3.11-.83,3.11s-.67,2.58-.8,3.11l-.77,3.09-.73,3.06-.72,3-.69,3L93.67,112l-1.54,7-1.22,5.45-.6,2.65-.6,2.57-.61,2.48-.6,2.4-.61,2.3-.62,2.2-.63,2.09-.71,2.19q-.29.82-.57,1.62L85,146c-.09.22-.17.45-.25.65s-.32.76-.32.76l-.35.83-.43.92-.25.52-.21.4-.21.4-.26.48c-.07.13-.15.26-.23.39l-.18.3c-.09.14-.17.29-.27.43a4,4,0,0,1-.23.34l-.28.41-.36.18-1.42.74-.15.08c-.51.27-1,.57-1.65.93l-.26.15c-.55.32-1.1.66-1.7,1l-.22.14c-.54.35-1.09.71-1.7,1.13l-.19.13c-.59.4-1.19.84-1.8,1.29l-.36.27c-.62.46-1.24.95-1.88,1.47l-.17.14c-.59.49-1.19,1-1.77,1.51l-.31.28c-.63.56-1.25,1.14-1.87,1.75l-.36.35c-.63.63-1.27,1.29-1.85,1.91l-.13.15c-.61.67-1.21,1.36-1.82,2.08l-.31.38c-.6.73-1.2,1.49-1.78,2.26l-.31.43a60.82,60.82,0,0,0-3.44,5.25l-.29.5c-.54.94-1.05,1.89-1.52,2.83l-.64,1.31-1,.43-1.29.58-1.33.63-.59.29-.82.4-.62.32-.87.45-.62.33-1.55.85-1.59.92c-.5.3-1,.6-1.48.9l-.14.08c-.55.34-1.11.69-1.67,1.06l-.53.35-1.16.77-.66.46c-.35.25-.71.49-1.06.75l-.71.52c-.35.25-.69.5-1,.77l-.74.56-1,.8-.74.6-1,.85-.74.63-1.06.92-.71.64c-.38.34-.75.69-1.12,1l-.65.61c-.44.42-.88.85-1.31,1.29l-.45.44c-.58.59-1.16,1.2-1.73,1.82l-.41.45-1.3,1.46-.62.73c-.36.42-.71.84-1.07,1.28l-.67.84-1,1.26c-.21.27-.68.92-.68.92-.32.42-.63.85-.94,1.29l-.68,1-.9,1.33c-.22.34-.44.67-.65,1s-.59.94-.88,1.41l-.07.12-.55.91L11.92,218l-.59,1.06A12.55,12.55,0,0,0,8.24,226a5.81,5.81,0,0,0-.06.93,1.41,1.41,0,0,0,0,.2C8.17,233.82,12.78,243.61,52.64,251.2ZM149.36,27.36a8,8,0,1,1-8,8A8,8,0,0,1,149.36,27.36Z"/>
    <g>
      <path class="cls-2" d="M149.36,14.17a21.16,21.16,0,1,0,21.16,21.16A21.17,21.17,0,0,0,149.36,14.17Zm0,35.14a14,14,0,1,1,14-14A14,14,0,0,1,149.36,49.31Z"/>
      <path class="cls-3" d="M190.37,79.91c-8.78-26.18-29.76-28.48-37.8-28.36q-3.21.06-6.42,0c-8-.12-29,2.18-37.8,28.36C97.37,112.65,95.18,149,84,159H214.72C203.55,149,201.35,112.65,190.37,79.91Z"/>
      <path class="cls-4" d="M211,156.56c-8.05-5-32.51-8.64-61.45-8.64-28.14,0-52.05,3.44-60.75,8.23a55.37,55.37,0,0,0-31.16,30.11H241.09A55.48,55.48,0,0,0,211,156.56Z"/>
      <path class="cls-5" d="M240.21,185.81c-11.86-6.92-47.92-12-90.57-12-41.47,0-76.71,4.76-89.53,11.39-6.63,2.24-32.93,12.74-45.94,41.63H284.55C272.42,199.92,248.72,189,240.21,185.81Z"/>
      <path class="cls-6" d="M90.54,177.55c4-23.24,24.19-27.68,24.19-27.68.8-72.92,35.06-92,49.49-96.78a41,41,0,0,0-11.65-1.54q-3.21.06-6.42,0c-8-.12-29,2.18-37.8,28.36-10.53,31.39-13,66.09-23,77.68A55.49,55.49,0,0,0,57.7,186.12c-9.13,3.54-31.77,14.62-43.53,40.75H58.06l1.26-19C64,180.2,90.54,177.55,90.54,177.55Z"/>
      <g>
        <ellipse class="cls-7" cx="149.35" cy="227.11" rx="135.18" ry="25.73"/>
        <ellipse class="cls-8" cx="149.35" cy="216.33" rx="122.76" ry="14.94"/>
        <path class="cls-9" d="M124.5,220.72a24.86,24.86,0,1,0,40.7-19.16q-7.8-.17-15.85-.17t-15.84.17A24.8,24.8,0,0,0,124.5,220.72Z"/>
      </g>
    </g>
  </g>
</svg>
