<svg id="Layer_1" data-name="Layer 1" xmlns="http://www.w3.org/2000/svg" width="258.99" height="408.88" viewBox="0 0 258.99 408.88">
  <defs>
    <style>
      .cls-1 {
        fill: #ff0;
      }

      .cls-2 {
        fill: #512c1e;
      }

      .cls-3 {
        fill: #cac9c7;
      }

      .cls-4 {
        fill: #eabc95;
      }

      .cls-5 {
        fill: #f49398;
      }

      .cls-6 {
        fill: #341c0e;
      }

      .cls-7 {
        fill: #654324;
      }

      .cls-8 {
        fill: #33302e;
      }

      .cls-9 {
        fill: #341d0f;
      }

      .cls-10 {
        fill: #949393;
      }

      .cls-11 {
        fill: #351d0e;
      }

      .cls-12 {
        fill: #983341;
      }

      .cls-13 {
        fill: #361d0e;
      }

      .cls-14 {
        fill: #323131;
      }

      .cls-15 {
        fill: #c7a17b;
      }

      .cls-16 {
        fill: #c19c78;
      }

      .cls-17 {
        fill: #363330;
      }

      .cls-18 {
        fill: #3d3d3c;
      }

      .cls-19 {
        fill: #351810;
      }

      .cls-20 {
        fill: #432712;
      }

      .cls-21 {
        fill: #41403f;
      }

      .cls-22 {
        fill: #402613;
      }

      .cls-23 {
        fill: #484646;
      }

      .cls-24 {
        fill: #36190f;
      }

      .cls-25 {
        fill: #4d3123;
      }

      .cls-26 {
        fill: #381e11;
      }

      .cls-27 {
        fill: #674528;
      }

      .cls-28 {
        fill: #424142;
      }

      .cls-29 {
        fill: #381a11;
      }

      .cls-30 {
        fill: #553022;
      }

      .cls-31 {
        fill: #3a3939;
      }

      .cls-32 {
        fill: #3b1d14;
      }

      .cls-33 {
        fill: #624831;
      }

      .cls-34 {
        fill: #573f31;
      }

      .cls-35 {
        fill: #583c25;
      }

      .cls-36 {
        fill: #464544;
      }

      .cls-37 {
        fill: #373636;
      }

      .cls-38 {
        fill: #504f4f;
      }

      .cls-39 {
        fill: #3d2211;
      }

      .cls-40 {
        fill: #4c3525;
      }

      .cls-41 {
        fill: #5a3d25;
      }

      .cls-42 {
        fill: #4c2f1f;
      }

      .cls-43 {
        fill: #4a2d16;
      }

      .cls-44 {
        fill: #442215;
      }

      .cls-45 {
        fill: #3d2017;
      }

      .cls-46 {
        fill: #341910;
      }

      .cls-47 {
        fill: #575656;
      }

      .cls-48 {
        fill: #4f3119;
      }

      .cls-49 {
        fill: #5e4128;
      }

      .cls-50 {
        fill: #4d4b4b;
      }

      .cls-51 {
        fill: #414141;
      }

      .cls-52 {
        fill: #4d4c4d;
      }

      .cls-53 {
        fill: #3f2219;
      }

      .cls-54 {
        fill: #53392a;
      }

      .cls-55 {
        fill: #503525;
      }

      .cls-56 {
        fill: #56371c;
      }

      .cls-57 {
        fill: #523628;
      }

      .cls-58 {
        fill: #371e0e;
      }

      .cls-59 {
        fill: #4a4848;
      }

      .cls-60 {
        fill: #593c26;
      }

      .cls-61 {
        fill: #545454;
      }

      .cls-62 {
        fill: #6e342f;
      }

      .cls-63 {
        fill: #543829;
      }

      .cls-64 {
        fill: #614033;
      }

      .cls-65 {
        fill: #4d3829;
      }

      .cls-66 {
        fill: #301610;
      }

      .cls-67 {
        fill: #2a180c;
      }

      .cls-68 {
        fill: #55361d;
      }

      .cls-69 {
        fill: #301b0e;
      }

      .cls-70 {
        fill: #555454;
      }

      .cls-71 {
        fill: #4b3019;
      }

      .cls-72 {
        fill: #6e6d6e;
      }

      .cls-73 {
        fill: #674931;
      }

      .cls-74 {
        fill: #351e10;
      }

      .cls-75 {
        fill: #523527;
      }

      .cls-76 {
        fill: #341c0f;
      }

      .cls-77 {
        fill: #442712;
      }

      .cls-78 {
        fill: #9d9d9d;
      }

      .cls-79 {
        fill: #311d0f;
      }

      .cls-80 {
        fill: #b2b0b0;
      }

      .cls-81 {
        fill: #393838;
      }

      .cls-82 {
        fill: #b0adac;
      }

      .cls-83 {
        fill: #462626;
      }

      .cls-84 {
        fill: #2f1c0e;
      }

      .cls-85 {
        fill: #361717;
      }

      .cls-86 {
        fill: #321e0f;
      }

      .cls-87 {
        fill: #3f2713;
      }

      .cls-88 {
        fill: #614c3e;
      }

      .cls-89 {
        fill: #481f14;
      }

      .cls-90 {
        fill: #412121;
      }

      .cls-91 {
        fill: #5e4133;
      }

      .cls-92 {
        fill: #5a3c2d;
      }

      .cls-93 {
        fill: #593d2e;
      }

      .cls-94 {
        fill: #533635;
      }

      .cls-95 {
        fill: #705038;
      }

      .cls-96 {
        fill: #3f2615;
      }

      .cls-97 {
        fill: #47301f;
      }

      .cls-98 {
        fill: #56392b;
      }

      .cls-99 {
        fill: #543736;
      }

      .cls-100 {
        fill: #513534;
      }

      .cls-101 {
        fill: #280e0e;
      }

      .cls-102 {
        fill: #593c2e;
      }

      .cls-103 {
        fill: #321b0f;
      }

      .cls-104 {
        fill: #2e1a0e;
      }

      .cls-105 {
        fill: #4b3520;
      }

      .cls-106 {
        fill: #533736;
      }

      .cls-107 {
        fill: #fff;
      }

      .cls-108 {
        fill: #2c190d;
      }

      .cls-109 {
        fill: #361716;
      }

      .cls-110 {
        fill: #805737;
      }

      .cls-111 {
        fill: #5d422d;
      }

      .cls-112 {
        fill: #c59f7a;
      }

      .cls-113 {
        fill: #4e2f16;
      }

      .cls-114 {
        fill: #472a14;
      }

      .cls-115 {
        fill: #503117;
      }

      .cls-116 {
        fill: #503017;
      }

      .cls-117 {
        fill: #3d2311;
      }

      .cls-118 {
        fill: #513218;
      }

      .cls-119 {
        fill: #412511;
      }

      .cls-120 {
        fill: #4f2f16;
      }

      .cls-121 {
        fill: #3a200f;
      }

      .cls-122 {
        fill: #482a14;
      }

      .cls-123 {
        fill: #4e2f17;
      }

      .cls-124 {
        fill: #3b200f;
      }

      .cls-125 {
        fill: #58381c;
      }

      .cls-126 {
        fill: #55361b;
      }

      .cls-127 {
        fill: #53341a;
      }

      .cls-128 {
        fill: #4d2e15;
      }

      .cls-129 {
        fill: #845c3e;
      }

      .cls-130 {
        fill: #845d3e;
      }

      .cls-131 {
        fill: #845c3d;
      }

      .cls-132 {
        fill: #825b3c;
      }

      .cls-133 {
        fill: #5c3d2e;
      }

      .cls-134 {
        fill: #3a2011;
      }

      .cls-135 {
        fill: #3b2011;
      }

      .cls-136 {
        fill: #472514;
      }

      .cls-137 {
        fill: #492816;
      }

      .cls-138 {
        fill: #371e0f;
      }

      .cls-139 {
        fill: #c7a17c;
      }

      .cls-140 {
        fill: #a17c5a;
      }

      .cls-141 {
        fill: #a07b59;
      }

      .cls-142 {
        fill: #4c4a4a;
      }

      .cls-143 {
        fill: #704f38;
      }

      .cls-144 {
        fill: #382111;
      }

      .cls-145 {
        fill: #d2d0cf;
      }

      .cls-146 {
        fill: #3f2613;
      }

      .cls-147 {
        fill: #adabab;
      }

      .cls-148 {
        fill: #815d42;
      }

      .cls-149 {
        fill: #805c41;
      }

      .cls-150 {
        fill: #7e5a3f;
      }

      .cls-151 {
        fill: #78543a;
      }

      .cls-152 {
        fill: #805637;
      }

      .cls-153 {
        fill: #280f0e;
      }

      .cls-154 {
        fill: #392619;
      }

      .cls-155 {
        fill: #331c0f;
      }

      .cls-156 {
        fill: #a27e5a;
      }

      .cls-157 {
        fill: #403c39;
      }

      .cls-158 {
        fill: #7c5537;
      }

      .cls-159 {
        fill: #3f2121;
      }

      .cls-160 {
        fill: #3d1e1c;
      }

      .cls-161 {
        fill: #402322;
      }

      .cls-162 {
        fill: #413c39;
      }

      .cls-163 {
        fill: #4f4e4e;
      }

      .cls-164 {
        fill: #514e4c;
      }

      .cls-165 {
        fill: #605a51;
      }

      .cls-166 {
        fill: #361714;
      }

      .cls-167 {
        fill: #2a0f0f;
      }

      .cls-168 {
        fill: #3c1b18;
      }

      .cls-169 {
        fill: #dbdbdb;
      }

      .cls-170 {
        fill: #dfdfdf;
      }

      .cls-171 {
        fill: #e2e2e2;
      }

      .cls-172 {
        fill: #58392d;
      }

      .cls-173 {
        fill: #6c483b;
      }

      .cls-174 {
        fill: #0c0d17;
      }

      .cls-175 {
        fill: #240e0e;
      }

      .cls-176 {
        fill: #402218;
      }

      .cls-177 {
        fill: #432b22;
      }

      .cls-178 {
        fill: #44281d;
      }

      .cls-179 {
        fill: #3c1915;
      }

      .cls-180 {
        fill: #46271a;
      }

      .cls-181 {
        fill: #1d1613;
      }

      .cls-182 {
        fill: #1c1712;
      }

      .cls-183 {
        fill: #2a2623;
      }

      .cls-184 {
        fill: #222120;
      }

      .cls-185 {
        fill: #0b0b0b;
      }

      .cls-186 {
        fill: #141412;
      }

      .cls-187 {
        fill: #2a2420;
      }

      .cls-188 {
        fill: #2f2c2a;
      }

      .cls-189 {
        fill: #110f0f;
      }

      .cls-190 {
        fill: #36302b;
      }

      .cls-191 {
        fill: #35312e;
      }

      .cls-192 {
        fill: #421e19;
      }

      .cls-193 {
        fill: #211d1b;
      }

      .cls-194 {
        fill: #342d28;
      }

      .cls-195 {
        fill: #281d15;
      }

      .cls-196 {
        fill: #24211e;
      }

      .cls-197 {
        fill: #0e0e0d;
      }

      .cls-198 {
        fill: #171717;
      }

      .cls-199 {
        fill: #3c1d15;
      }

      .cls-200 {
        fill: #4b2a1c;
      }

      .cls-201 {
        fill: #442519;
      }

      .cls-202 {
        fill: #321812;
      }

      .cls-203 {
        fill: #0e0e0e;
      }

      .cls-204 {
        fill: #2f1612;
      }

      .cls-205 {
        fill: #502f20;
      }

      .cls-206 {
        fill: #4f2e1f;
      }

      .cls-207 {
        fill: #23201d;
      }

      .cls-208 {
        fill: #745036;
      }

      .cls-209 {
        fill: #422012;
      }

      .cls-210 {
        fill: #3a1f11;
      }

      .cls-211 {
        fill: #391d10;
      }

      .cls-212 {
        fill: #3d2111;
      }

      .cls-213 {
        fill: #4c2617;
      }

      .cls-214 {
        fill: #401f12;
      }

      .cls-215 {
        fill: #939292;
      }

      .cls-216 {
        fill: #271110;
      }

      .cls-217 {
        fill: #181818;
      }

      .cls-218 {
        fill: #0c0c0c;
      }

      .cls-219 {
        fill: #1e0d0e;
      }

      .cls-220 {
        fill: #333;
      }

      .cls-221 {
        fill: #4e4e4f;
      }

      .cls-222 {
        fill: #464646;
      }

      .cls-223 {
        fill: #23211f;
      }

      .cls-224 {
        fill: #2e2925;
      }

      .cls-225 {
        fill: #3b1e15;
      }

      .cls-226 {
        fill: #646565;
      }

      .cls-227 {
        fill: #292929;
      }

      .cls-228 {
        fill: #373737;
      }

      .cls-229 {
        fill: #2e2d2d;
      }

      .cls-230 {
        fill: #1c1b1b;
      }

      .cls-231 {
        fill: #323232;
      }

      .cls-232 {
        fill: #1e1412;
      }

      .cls-233 {
        fill: #f9f8f8;
      }

      .cls-234 {
        fill: #191311;
      }

      .cls-235 {
        fill: #83807e;
      }

      .cls-236 {
        fill: #211612;
      }

      .cls-237 {
        fill: #f6f6f6;
      }

      .cls-238 {
        fill: #0f0a09;
      }

      .cls-239 {
        fill: #431d11;
      }
    </style>
  </defs>
  <g>
    <path class="cls-1" d="M10.58,155.64a8.62,8.62,0,0,0,2.06,4.16,10.64,10.64,0,0,0,3.87,3.77,9,9,0,0,0,4.67,1.89l.5.08a19.62,19.62,0,0,0,3,.28,10.87,10.87,0,0,0,3.89-.7,10.27,10.27,0,0,0,5.74-2.71l1.08-.76.11,0a12.61,12.61,0,0,0,1.76-.89,13.76,13.76,0,0,0,3.67-1.44,9.69,9.69,0,0,0,5.43-2.9c.06.55.14,1.11.23,1.67a6.08,6.08,0,0,0,.72,2l.32.56a10,10,0,0,0,1.2,2.91,10.08,10.08,0,0,0,1.66,2.75,8.82,8.82,0,0,0,2,2.31,8.37,8.37,0,0,0,1.39,1.4,9.64,9.64,0,0,0,4,3.06,9.9,9.9,0,0,0,1,.6,6.62,6.62,0,0,0,3,3.23,8.53,8.53,0,0,0,5.15,3.6,2.91,2.91,0,0,1,0,.31c-.45,3.47-2.23,5.9-5.84,8A6,6,0,0,0,63.9,200c1.14.08,2.08.12,2.94.12.56,0,1.18,0,1.84-.07A19.08,19.08,0,0,1,64,210.42l-2,1.49a6,6,0,0,0,3,10.78,32.36,32.36,0,0,0,3.52.2,18.31,18.31,0,0,0,9.29-2.28,14.59,14.59,0,0,0,5.79-4.22,19.15,19.15,0,0,0,1.49-1.5l.26.09c0,.32.1.63.14,1a114.82,114.82,0,0,1,1.4,12.4,17.05,17.05,0,0,0-.48,5.39,128.73,128.73,0,0,0,0,13.92,13.89,13.89,0,0,0,.37,4.58,16.5,16.5,0,0,0,.58,5,139.1,139.1,0,0,0,5.6,26.61c1.29,4.32,2.78,8.59,4.22,12.71a174.09,174.09,0,0,1,5.7,18.38c4.09,17.62,5,31.47,2.83,44.39a26,26,0,0,0-9.77,9.36,64.13,64.13,0,0,0-5.38,11l-.26.63a7.26,7.26,0,0,0,6.17,10.51c2.44.29,5.29.6,8.22.72,1.5.06,3,.09,4.63.09,4.64,0,9.65-.26,15.78-.82l.6,0a7.41,7.41,0,0,0,6.17,6.69A75.92,75.92,0,0,0,144.53,399a6,6,0,0,0,2.39.49h2.53a6,6,0,0,0,2.39-.49,118.47,118.47,0,0,0,13.91-1.57,7.91,7.91,0,0,0,7-7.87c.45-7.88-1.61-14.81-6-20-2.48-3-3.32-5.46-2.88-8.56,0-.17,0-.33,0-.49l.18-3.06q.21-3.4.38-6.82c.5-10.28,1.74-21.14,7.43-30.84,4.61-7.87,6.36-15.95,5.21-24.07a52,52,0,0,0,11.2-2.29c.12.75.26,1.5.44,2.26.52,2.26,1.2,4.44,1.74,6.08a96.76,96.76,0,0,1,4,39.68c-.22,2.23-.55,4.46-.9,6.82-.43,2.83-.87,5.75-1.1,8.76a23.13,23.13,0,0,0-10.11,11,19.9,19.9,0,0,0-2.07,7.62l-.08.67a8.3,8.3,0,0,0,1.73,6.55,8.21,8.21,0,0,0,6.05,2.92c.62,0,1.35.15,2.12.26a29.29,29.29,0,0,0,4.38.41c.38,0,.74,0,1.1,0a30.22,30.22,0,0,0,4.68.38,26.8,26.8,0,0,0,4.58-.39h.71a22.57,22.57,0,0,0,4.27-.5c.47-.09.94-.19,1.41-.25,3.59-.47,7.45-3,7.52-8.83a29.32,29.32,0,0,0-2-11.07,16.81,16.81,0,0,0-3.95-6.51c.07-.4.13-.8.19-1.21a146.31,146.31,0,0,0,1.36-15.2c.24-4.53.47-8.81,1.08-13.05,2.19-15.06,5.57-27.13,10.64-38a121.72,121.72,0,0,0,11.5-50,107.28,107.28,0,0,0-6-37,15.36,15.36,0,0,0,2.14-.33,10.73,10.73,0,0,0,3.82-1.09,6,6,0,0,0,1.85-1c2.2-1.33,5.24-3.27,6.88-6.95a11.28,11.28,0,0,0,1.88-3.52,7.33,7.33,0,0,0,.71-2.09,8.36,8.36,0,0,0,.07-6.22,6,6,0,0,0-3.17-3.34l-.09,0a7,7,0,0,0-2.4-5.62,6.68,6.68,0,0,0-2.8-1.46,18.41,18.41,0,0,0-.68-4.9,5.78,5.78,0,0,0-.33-1.58,2.33,2.33,0,0,1-.07-.25,9.64,9.64,0,0,0-1.75-3.62,8.82,8.82,0,0,0-1.08-1.66,7.29,7.29,0,0,0-3.18-3.29,6.22,6.22,0,0,0-.92-.48,6.35,6.35,0,0,0-2.35-.47,6.17,6.17,0,0,0-5.89,4.34,8.62,8.62,0,0,0,0,5.08c-.08,5.33-2.31,8-7.71,9.42-.55.14-1.16.26-1.82.36a12.29,12.29,0,0,0-1.76-1.46,32.2,32.2,0,0,0-10.46-7.13,35,35,0,0,0-14.16-3.22A28,28,0,0,0,174,168.27c-11.58,6.81-22,10.81-32.77,12.59a12.17,12.17,0,0,1-2.05.21h0c-.73,0-1,0-1.67-1-1.19-1.65-2.47-3.15-3.71-4.61-2.25-2.64-4.38-5.14-5.29-7.8q-1.52-4.44-2.7-8.76a11.62,11.62,0,0,0,2.49,1.2l.17.11a10.61,10.61,0,0,0,5.4,1.8,7.58,7.58,0,0,0,2.71.49c.32,0,.65,0,1,0h3.55a8.34,8.34,0,0,0,1,.07,6.75,6.75,0,0,0,3-.66,7.85,7.85,0,0,0,5.39-3.17,8.31,8.31,0,0,0,2.83-3.79l.07-.16a18,18,0,0,0,.36-13.22,18.31,18.31,0,0,0-7.21-11.11l-.92-.74a29.43,29.43,0,0,0-3.12-2.33,13.41,13.41,0,0,0-1.69-2.18l-.05-.06c-2.24-4-4.18-8.38-5.83-12.17a33.64,33.64,0,0,0-6.06-9.76,12.62,12.62,0,0,0-3.17-3.32,12.05,12.05,0,0,0-3.79-2.75l-1.28-.76a6.11,6.11,0,0,0-1.9-.74l-.34-.07a57.43,57.43,0,0,0,11.93-11.5,36.21,36.21,0,0,0,6-8.74,8.2,8.2,0,0,0,.8-1.28C146,55.5,147.6,36.62,141.84,18a14.31,14.31,0,0,0-4-7,6,6,0,0,0-10,4.64c.22,6.9.23,15-1.39,22.75-3.52,16.93-11.92,28.92-25.62,36.51V73.56a16.36,16.36,0,0,0,.13-2v-.21a5.54,5.54,0,0,0,.33-1,9.75,9.75,0,0,0,.57-2l1.46-3.06a6,6,0,0,0-5.41-8.59,5.07,5.07,0,0,0-.86.07l-1.89.27a16.85,16.85,0,0,0-11.44,7,13.45,13.45,0,0,0-2.56-1.68c1.53-13.19,7.2-25.77,17.64-39.22A6,6,0,0,0,94,13.43a5.93,5.93,0,0,0-3.06.84C71.42,25.83,58.74,43.89,52.21,69.43a7.2,7.2,0,0,0-2.16,1.83,13.19,13.19,0,0,0-3.73,4.14,6.58,6.58,0,0,0-.62,6.49,6.23,6.23,0,0,0,1.13,1.66l0,.09a9.35,9.35,0,0,0-1.25,3.72l0,.17a4.51,4.51,0,0,0-.09.53,13.06,13.06,0,0,0,.07,5.22c-.47.72-.92,1.42-1.35,2.11-.58.92-1.14,1.8-1.71,2.64a10.21,10.21,0,0,0-2.52,2.73,32.74,32.74,0,0,0-6.72,10.42c-.76,1.78-1.46,3.56-2.14,5.29-1.79,4.57-3.48,8.89-6.19,12.42l-3.63,4.2-2.87,2.5-1,.63a11.8,11.8,0,0,0-3.9,3.42,7.85,7.85,0,0,0-2.3,4,10.38,10.38,0,0,0-1,2.93,6,6,0,0,0-.79,3V151A6,6,0,0,0,10,153.7,8.53,8.53,0,0,0,10.58,155.64Zm117,138.24.06-3.36a32.93,32.93,0,0,0,10.4,2.81,2.57,2.57,0,0,1,2.25,1.39l.18.25c2.17,2.94,3.5,4.86,3.53,7.06.15,12.6.1,27.22-2.49,41.38-1.11,6.08-2.31,11.48-5.59,15.69a22,22,0,0,0-5.59,5.07,27.86,27.86,0,0,0-2.37-3.86l.6-4.75s0-.09.05-.14a11,11,0,0,0,.51-3.93l.05-.78a11.13,11.13,0,0,0,.43-3.8l.11-1.83c0-.08,0-.15.05-.23a13.83,13.83,0,0,0,.34-4.1l.14-3.91a55.12,55.12,0,0,0,0-13.9l-.1-2.35a10.88,10.88,0,0,0-.51-4,.24.24,0,0,1,0-.08c-.2-1.53-.51-3-.79-4.27a26.33,26.33,0,0,1-.71-4.32,14.41,14.41,0,0,0-.32-3.75c0-.14,0-.27-.08-.4l-.13-5.56Z"/>
    <g>
      <path class="cls-2" d="M16.39,153.6c-.9-.65,0-2-1-2.58V149.5c.61-.09.41-.65.58-1,.93,0,.88.77,1.09,1.34a5.71,5.71,0,0,1,.19,3A1.24,1.24,0,0,1,16.39,153.6Z"/>
      <path class="cls-3" d="M146.92,393.46a1.33,1.33,0,0,1,0-.4,1.61,1.61,0,0,1,2.59,0,2.83,2.83,0,0,1,0,.41Z"/>
      <path class="cls-4" d="M83.66,73.06l1.09,1.6a14.89,14.89,0,0,1,1,3.34c1.55-4.07,2.88-8.23,5.75-11.61C92.66,65,93.82,63.5,96,63.94c.51.74.1,1.39-.19,2.06-.54.84-.26,1.84-.49,2.74l.09.13-.1.12c-.87.76-.65,1.87-.9,2.84a67.73,67.73,0,0,0,0,8.06,20.23,20.23,0,0,0,.67,3C96.18,84,98,84.62,97.62,86.71c-1.05,2.07-3,2.86-5,3.61-1.29.59-2.68.87-4,1.35a3.42,3.42,0,0,1-1.31.39,12.16,12.16,0,0,0-3,.36,10.44,10.44,0,0,0-1.92.51,12,12,0,0,0-4.94,2.69c-1.41,1.28-2.73,2.66-4.06,4a8.5,8.5,0,0,0-1.5,2.28c-.72.45-.83,2.76-2.34.77a15.21,15.21,0,0,1-.19-3.5,7.3,7.3,0,0,1,.09-1.14,6.25,6.25,0,0,1,.17-.72,29.54,29.54,0,0,1,2.27-5.52c-.47-.64-.87.22-1.31.07a15.35,15.35,0,0,0-3.76,1.4A12.26,12.26,0,0,0,63,96a1.36,1.36,0,0,1-.69.11,1.08,1.08,0,0,1-.74-.71,3.13,3.13,0,0,1,.43-2c.37-.7.72-1.4,1.07-2.11a19,19,0,0,1,1-1.74,15.27,15.27,0,0,1,2.15-2.66A11.62,11.62,0,0,1,68,85.32C64.9,87,61.66,88.83,58,89.7a11,11,0,0,1-3,1.08,13.9,13.9,0,0,0-2.13.34,1.42,1.42,0,0,1-.65-.29c-.54-1.47.44-2.38,1.28-3.27,2.57-2.73,5.16-5.45,8.5-7.3.48-.27,1.11-.42,1.22-1.11,0-.06-.07-.14-.13-.19a.72.72,0,0,0-.25-.1,71.76,71.76,0,0,1-10.15.52c-1-.4-.64-1-.21-1.56A18.16,18.16,0,0,1,54,76.21,20.07,20.07,0,0,1,55.7,75c.6-.24,1-.78,1.6-1.06a8,8,0,0,1,1.39-.74c.41-.14.82-.28,1.22-.46.21-.1.42-.18.64-.26,1.28-.45,2.63-.56,3.92-.95a18.74,18.74,0,0,1,6.88.36c1.55.32,3.11.57,4.66.85.33,0,.26-.5.21-.17,0,.11-.09.11-.2.13a1.85,1.85,0,0,1-1.37-.46A23.9,23.9,0,0,0,63.8,67.84a.71.71,0,0,1-.42-.67c2.46-2.11,5.39-1.23,8.17-1.24.58,0,1.13.32,1.72.37.92.15,1.67.77,2.58.94a10.94,10.94,0,0,1,3.9,1.88c.67.3,1,1,1.54,1.42.31-.1.44,0,.38.33A16.53,16.53,0,0,1,83.66,73.06Z"/>
      <path class="cls-5" d="M143.11,155.6c.13.23,0,.34-.2.37a47.27,47.27,0,0,1-7.14,0c-1.57-.55-3.28-.69-4.75-1.56a13.79,13.79,0,0,1-2.4-1.47c-.69-.38-1.19-1-1.89-1.37a4.57,4.57,0,0,1-2.12-2.32,11.9,11.9,0,0,1-1.69-2c-.39-.54-.81-1.06-1.16-1.62s-.67-1.42-1.07-2.1a17.25,17.25,0,0,1-1.86-3.75c-.56-1-.63-2.15-1.12-3.15a22.15,22.15,0,0,1-.63-4.72v-1.62a18.84,18.84,0,0,0-.55-4.49,13,13,0,0,1-.36-1.73c-.26-2.34,1.26-5,3-5.27s3.31,1.29,3.9,3.9c.44,2,.44,4,.82,6,.94,4.95,4.62,10.29,11.52,11a26.44,26.44,0,0,1,9.86,2.92,5,5,0,0,1,2.58,2.29c1.05,2.28.56,4.56,0,6.83a11.33,11.33,0,0,1-1.41,2.37l0,0A5,5,0,0,1,143.11,155.6Z"/>
      <path class="cls-6" d="M97.18,86.7c.24-1.85-1.34-2.49-2.35-3.52-.19-.53,0-.61.5-.49,1.08,1.06,2.14.47,3.23,0,18.82-8.42,29.55-23.16,33.7-43.09,1.64-7.9,1.77-15.88,1.51-24.16a8.79,8.79,0,0,1,2.34,4.3c5.49,17.83,3.59,35.05-4.41,51.75a2.85,2.85,0,0,1-.47.58c-.48.14-.68-.16-.83-.53-.1-2,1.44-3.41,1.84-5.22a43.94,43.94,0,0,0,1.87-4.94A107.92,107.92,0,0,0,136.85,49c.37-4.75,1.31-9.48.49-14.26a69.28,69.28,0,0,0-2-12c.76,16.79-5,38.28-20.55,51.7A57.7,57.7,0,0,1,102,82.89c-.66.32-1.68.45-1.77,1.25s1,1,1.57,1.39c.74.55,1.54,1,2.31,1.54a34.36,34.36,0,0,1,4.47,3.69c1,1.09,1.93,1,3.1.27,2.33-1.54,4.36-3.44,6.58-5.12a34.24,34.24,0,0,0,3.18-3.08c1.41-1,2.07-2.88,3.91-3.39.36.15.63.35.41.8-3.73,5.07-8.56,9-13.65,12.51-1.21.84-2,1.48-.71,2.81a1,1,0,0,1,.22.45c.69,3.26,2.87,4.89,6,5.52,0,.46-.27.63-.64.75-1.51-.23-2.18.13-1.57,1.85.9,2.52.83,5.33,2.32,7.69a1,1,0,0,1-.16,1.37.88.88,0,0,0-.62,1.16c.7,2.67.08,5.33-.49,7.87-.37,1.63.86,3.3-.39,4.78-.91.71-.52,1.71-.51,2.58a128.28,128.28,0,0,0,7.35,40.06c1.87,5.47,6.48,9.36,9.82,14,2.6,3.59,5.58,3.81,9.58,3.15,12.55-2.07,23.92-6.92,34.83-13.34,7.39-4.34,15.33-3.82,23-.4a26.07,26.07,0,0,1,9,6.29c.12.54-.2.71-.64.78-1.49-.27-2.47-1.38-3.6-2.22a26.8,26.8,0,0,0-19.71-5.38,20.57,20.57,0,0,0-8.66,3.28A91,91,0,0,1,141,188.66c-1.09,0-2.11.44-3.19.46a4.76,4.76,0,0,1-2-.33c-7.43-6.89-13.84-14.4-16.48-24.58-3.14-12.1-5.79-24.24-5.39-36.86.06-1.86.55-3.66.52-5.52.26-7.69.07-15.28-3.14-22.53A24.06,24.06,0,0,0,100.3,87.51,4,4,0,0,0,97.88,87,1,1,0,0,1,97.18,86.7Z"/>
      <path class="cls-7" d="M117.53,113c-2.3-3.49-2.15-7.7-3.54-11.51,1.26-.38,2.07.46,3,.52a3.91,3.91,0,0,1,1.75.78,15.46,15.46,0,0,1,2.63,2c1.12.65,1.75,1.79,2.65,2.67a37.49,37.49,0,0,1,6,10.39,95.5,95.5,0,0,0,5.48,11c.7.87,1.18,1.93,2.24,2.48a.47.47,0,0,1,.1.41c1.4,1.58,3.29,2.55,4.88,3.9a12.72,12.72,0,0,1,3.45,4c.39.67,1,1.5-.18,2.1a4.67,4.67,0,0,1-3.06-1.3c-1.83-1.41-4.07-1.43-6.2-1.82a9.65,9.65,0,0,1-1.85-.23c-2.26-.39-4.17-1.62-6.18-2.63a2.81,2.81,0,0,1-.81-.8c-.73-1.73-2-3.22-2.38-5.11-.55-1.56-.37-3.25-.84-4.82-.15-.84-.37-1.66-.58-2.49a15.27,15.27,0,0,0-5.56-8.14A1.86,1.86,0,0,1,117.53,113Z"/>
      <path class="cls-6" d="M198.47,358.47c.32-5.55,1.53-11,2.06-16.52a101.89,101.89,0,0,0-4.31-42.12c-.6-1.84-1.16-3.69-1.6-5.57a39.56,39.56,0,0,1-.72-4.74,13.09,13.09,0,0,1,.65-4.94c-6.21,2.7-12.3,4.75-18.82,5.15l-1.26.06c-4.42.07-4.65.12-3.71,4.31,1.84,8.14,0,15.73-4,22.57-6.14,10.48-7.68,21.86-8.24,33.59-.16,3.28-.37,6.55-.56,9.83-.35,2,0,4-.17,6.05,0,.59.34,1.43-.71,1.59a2.19,2.19,0,0,1-.69-1.82,166.43,166.43,0,0,1,2.6-35.44c1.12-5.85,4.45-10.7,6.91-15.94a34.19,34.19,0,0,0,2.94-21.37,38.71,38.71,0,0,1,.15-14.07,157.32,157.32,0,0,1,5.32-21.84c1.59-4.69,1.56-9.61,2.26-14.43a4,4,0,0,1,.56-2.15c2-.14,1.83,1.41,1.83,2.55A46.07,46.07,0,0,1,177.54,255c-.67,2.61-1.56,5.15-2.25,7.75a144,144,0,0,0-3.9,17.29,7.93,7.93,0,0,1-.22,1.2c-1.13,6.4-.32,7.52,6,6.68,8.1-1.07,15.8-3.47,22.33-8.69,4.88-3.91,7.62-9.13,8.93-15.15a55.28,55.28,0,0,0,.23-20.83,7.93,7.93,0,0,1-.25-1.68c0-.66.21-1.18,1-1.21a1.29,1.29,0,0,1,1.28,1,16.68,16.68,0,0,1,.9,4.45c.65,8.37.87,16.67-2.53,24.65a25.46,25.46,0,0,1-9.54,11.82,7.61,7.61,0,0,0-3.78,7.89,32.63,32.63,0,0,0,1.65,7.65c4.84,13.31,6,27.13,5.31,41.12-.35,6.63-1.82,13.19-2.57,19.81a2.48,2.48,0,0,1-1.07,1.92C197.72,360.23,198.34,359.28,198.47,358.47Z"/>
      <path class="cls-8" d="M157,367.63c1.1-1.43.33-3.09.56-4.62.14-1-.31-2,.42-2.92-.71,5.09.87,9.21,4.21,13.23,3.69,4.43,4.93,10,4.59,15.87-.08,1.41-.52,2.05-2,2.3a108.69,108.69,0,0,1-15.28,1.56h-2.59a75.59,75.59,0,0,1-13.73-1.55c-1.27-.29-1.61-.75-1.5-2a31.82,31.82,0,0,1,2.71-9.58c-2.78.21-3-1.32-2.7-3.42.72-5.59,3.26-9.95,8.19-12.81.48.13,1-.1,1.46,0a25.71,25.71,0,0,0,5.45.95,4.48,4.48,0,0,1,1.66.76c.47.74.07,1.6.33,2.37,1.4,1.31,3,.65,4.53.44a12.52,12.52,0,0,1,3-.91A1.21,1.21,0,0,1,157,367.63Z"/>
      <path class="cls-9" d="M211.7,181.88l1,.64c.7.2,1.07.8,1.53,1.29,3,3.22,5.13,7.07,7.3,10.87.27.58.62,1.12.9,1.7a2,2,0,0,1-.09,1.2,102.19,102.19,0,0,1,9.31,44.1,115.32,115.32,0,0,1-10.93,47.56c-5.89,12.61-9.15,25.93-11.15,39.65-1.36,9.36-.93,18.85-2.42,28.18-.22,1.33-.4,2.66-.6,4a.81.81,0,0,1-1.08,0,1.83,1.83,0,0,1-.33-.74,4.32,4.32,0,0,1,.08-1.64c.38-4.1,1.17-8.17,1.19-12.29.06-14.71,2.75-29,7-43a154.46,154.46,0,0,1,7.09-18.11A109.36,109.36,0,0,0,229.56,233c-1.1-16.11-5.5-31.32-14.84-44.81-1.28-1.86-3.15-3.33-3.8-5.61C211,182.14,211.11,181.76,211.7,181.88Z"/>
      <path class="cls-10" d="M222.24,196.61a2.23,2.23,0,0,1-1.08-1.46,1.25,1.25,0,0,1,1.37-.41,35.77,35.77,0,0,0,12.08.29c-1.26,0-3,.27-4.71.18a5.83,5.83,0,0,1-3.13-.85c-.92-.63-1.81-1.35-1.76-2.59s1.1-1.64,2-2a26.55,26.55,0,0,0,6.47-3.9c-2.43.38-4.75,1.24-7.19,1.47-1.13.1-2.32.26-3-.83-.75-1.25.35-2.05,1.08-2.8a55.92,55.92,0,0,0,4-4.58,13.1,13.1,0,0,0,2.85-9.2,7.63,7.63,0,0,0-.28-2.28c.47-1.11-1.27-2.49.41-3.46.27.7,1.24,1,1,2,.72.73.48,2,1.47,2.58v.57c-.27,1.79.58,3.52.26,5.31-.24,1.35-.52,2.69-.87,4S232,181,232,182.41l-.06,0a2.72,2.72,0,0,0,2.54,0,.53.53,0,0,1,0-.46,9.44,9.44,0,0,0,2.69-1.26,1,1,0,0,1,1.37-.15,1.08,1.08,0,0,1,.17,1.38,15.76,15.76,0,0,1-1.42,2.92,24.6,24.6,0,0,1-3.34,4.72l-.51.5c-.53.87-1.65,1-2.28,1.71.91,1.66,2.23.66,3.41.52a19.69,19.69,0,0,0,4.72-1.57c.77-.24,1.26-1.33,2.3-.77.62,1.15-.43,1.78-.8,2.62-1,2.26-3.31,3.23-4.77,5l-.18.15h-.24a26,26,0,0,0-4.11.72A18.89,18.89,0,0,1,222.24,196.61Z"/>
      <path class="cls-11" d="M58.9,73.54l-1.46.67a.45.45,0,0,1-.06-.68C62.69,50.81,73.3,31.69,94,19.43c-10.79,13.9-18.41,29.05-19.25,47-.94.41-1.14-.37-1.5-.91a3.14,3.14,0,0,1-.2-1.21,26.56,26.56,0,0,0,.39-4A62.35,62.35,0,0,1,76.07,49a40.53,40.53,0,0,1,1.38-4,124,124,0,0,1,7.79-16c.56-.92,1.15-1.82,1.7-2.74.14-.22.46-.53.42-.6-.18-.29-.29.07-.38.15A69.41,69.41,0,0,0,73.46,40.43,100.42,100.42,0,0,0,59.38,71.34C59,72,59.28,72.86,58.9,73.54Z"/>
      <path class="cls-12" d="M128.16,134.74l.63.63c1.89,1,3.63,2.36,5.85,2.65a14.52,14.52,0,0,0,2.28.12c2.14.66,4.48.63,6.46,1.84l2.49,1.43c1.43.43,1.87,1.53,2,2.88a1.42,1.42,0,0,1-.37.64c-3.09-3-7.12-3.73-11.06-4.45-9.11-1.65-13.19-6.1-13.7-15.43a8.51,8.51,0,0,0-1.07-4.35c-1.37-2.12-3.07-2-4.16.23a5.14,5.14,0,0,0-.45,4.12,10.78,10.78,0,0,1,.47,5.23.41.41,0,0,1-.56-.06c-.16-.7,0-1.55-.79-2,0-.42-.08-.83-.13-1.25a48.29,48.29,0,0,1,.41-9.61,24.28,24.28,0,0,0-.31-4c-.13-2,.85-.62,1.42-.47.37.38.73.76,1.1,1.13a16.24,16.24,0,0,1,5.75,8.22c0,.88.69,1.6.54,2.5.51,1.55.32,3.22.86,4.76C126,131.54,127.43,133,128.16,134.74Z"/>
      <path class="cls-13" d="M54.89,90.36l2.93-1.13c.58-.28,1.06-.31,1.23.46-.71,1.5-2.18,2.28-3.3,3.39-6.5,6.46-9.45,14.1-7.91,23.29a18.78,18.78,0,0,1,.14,2.26,100,100,0,0,0,5.16,20.22c.42,1.19.73,2.41,1.06,3.63a7,7,0,0,1,.41,1.49,4.9,4.9,0,0,1-1.3,3.1c-.48,0-.67-.27-.7-.7-.12-1,.22-2.06-.24-3.05-.55-4.53-2.76-8.58-3.75-13-.15-.65-.27-1.31-.41-2a6.79,6.79,0,0,1-1.36-2.22c-1.1-2.21-.31-4.92-1.83-7,.76-2.72-.06-5.45,0-8.18a22.1,22.1,0,0,1,1.06-6.86c.11-.6.54-1.08.63-1.69,2.68-3.68,4.63-7.9,8-11.06A1.46,1.46,0,0,1,54.89,90.36Z"/>
      <path class="cls-14" d="M211.12,367.65a23.1,23.1,0,0,1,1.73,9.08c0,1.68-.55,2.73-2.29,2.95-2,.26-3.9.91-5.93.64a34.78,34.78,0,0,1-8.71,0c-2.52.33-5-.42-7.45-.58-1.55-.1-2.45-.85-2.22-2.74.27-2.2.42-4.39,1.58-6.35.51-.16.74.15.91.55.25,1.56-.53,3-.73,4.44s.16,2.44,1.82,2.57,3.45,1.15,4.2-1.29c.39-1.28.59-2.62,1-3.89a15.48,15.48,0,0,1,1-2.59c.67-1.2,1.24-3.14,2.81-2.67,1.41.42.41,2.21.39,3.4s-.39,2.48-.49,3.74c-.29,4-.11,4.18,3.78,4.17a10.67,10.67,0,0,0,3.47-.24c1.67-.38,3.44-.4,5-1.25,1-1.42.54-2.91.2-4.39s-1.16-3.18-.93-4.92C210.41,367.89,210.62,367.58,211.12,367.65Z"/>
      <path class="cls-15" d="M63.92,78.16c1.24,1.28,0,1.72-.81,2.15-3.73,1.91-6.54,4.91-9.4,7.85a4.26,4.26,0,0,0-1.37,2.62c-1.36-.11-.52-1.15-.74-1.75a18.92,18.92,0,0,1,1-2.81c.19-.75.88-1.16,1.23-1.8.36-1.34,1.46-2,2.47-2.75C58.37,79.45,61.13,78.77,63.92,78.16Z"/>
      <path class="cls-16" d="M96,63.88c-4.83,1.83-6.32,6.31-8.17,10.45-.71,1.58-.93,3.38-1.61,5-.49,1.16-.7.18-.87-.3.74-1.48-1.06-3.44.89-4.68-1-1.79.1-3.53.86-4.72,2.06-3.2,4.61-6.11,8.82-6.6A.68.68,0,0,1,96,63.88Z"/>
      <path class="cls-17" d="M188.41,371.21l-.58-.55a17.4,17.4,0,0,1,8-8.67,4.71,4.71,0,0,0,2.63-3.52c.25.68-.22,1.55.53,2.1a2.56,2.56,0,0,1,1.55.56,4.86,4.86,0,0,0,3.38.08,3.5,3.5,0,0,1,1.67-.13l.93,0c1.63,2.13,3.88,3.83,4.59,6.59l-.47.53c-1.7-.28-1.87-2-2.72-3-1.21-1.46-2.34-2.57-4.44-1.7a4.47,4.47,0,0,1-3.46-.06c-1.7-.76-3.07-.21-4.46.73a19.83,19.83,0,0,0-5.29,5.32C189.81,370.16,189.63,371.27,188.41,371.21Z"/>
      <path class="cls-18" d="M231.36,164.15c-.86,1.21.37,2.38,0,3.58.42,1-.22,2,0,3.05a13.85,13.85,0,0,1-7.06,10.13,19.13,19.13,0,0,1-10.69,3l-.95-1.39c1.82-.3,3.67-.47,5.44-.93,8.4-2.2,12.43-7.65,12.18-16.35a2.64,2.64,0,0,1,.08-2.13A1.22,1.22,0,0,1,231.36,164.15Z"/>
      <path class="cls-19" d="M29.53,132.69c4.44-5.72,6.38-12.62,9.19-19.12a26.36,26.36,0,0,1,6-9.12.36.36,0,0,1,.62,0,3.07,3.07,0,0,1-1,2.48,44.85,44.85,0,0,0-6.52,12.68,48.35,48.35,0,0,1-5.74,11.7c-.56.82-1,1.76-2.08,2.09C29.63,133.36,29.32,133.21,29.53,132.69Z"/>
      <path class="cls-19" d="M135.3,129.24c-3.64-5.53-5.53-11.94-8.84-17.63-.83-1.44-1.86-2.76-2.8-4.13-.12-.46,0-.67.52-.51a26.82,26.82,0,0,1,5.27,8.41,140.45,140.45,0,0,0,6.4,13.25C136,129.17,135.78,129.3,135.3,129.24Z"/>
      <path class="cls-20" d="M63.92,78.16l-7.59,3.51c.64-1.25.87-2.19-1.15-2a17.9,17.9,0,0,1-3.19,0c-.61,0-1.24-.21-.62-1,.55-.29.73.31,1.1.46Z"/>
      <path class="cls-21" d="M236.91,184.82c.31-1.42,1.54-2.52,1.48-4.25-1.43.39-2.39,1.82-3.94,1.31,1.21-.82,2.41-1.66,3.63-2.45.4-.26.85-.68,1.35-.24a1,1,0,0,1,.25,1.15c-.63,1.87-1,3.91-2.66,5.23A.48.48,0,0,1,236.91,184.82Z"/>
      <path class="cls-22" d="M130.7,71.49l.53.56a29.7,29.7,0,0,1-5.51,8.19l-.54-.59c.22-2.78,2.75-4.26,3.75-6.62C129.22,72.32,129.65,71.47,130.7,71.49Z"/>
      <path class="cls-23" d="M222.24,196.61a41.49,41.49,0,0,0,9.53,1.41c.51-.14,1.1-.45,1.13.51-3.64,1-7.09-.23-10.58-.95C221.62,197.31,222.21,196.94,222.24,196.61Z"/>
      <path class="cls-24" d="M147.56,144.34c-.05-1.27-1.08-2-1.69-2.93.32-2.79-1.85-4-3.49-5.59-.06-.47.06-.74.6-.54a12.51,12.51,0,0,1,5,8C148.12,143.75,148.49,144.32,147.56,144.34Z"/>
      <path class="cls-25" d="M147.56,144.34l.45-1.06a12.12,12.12,0,0,1-.16,9.24c-.49,0-.73-.12-.49-.65a13.08,13.08,0,0,0,.1-6.94C147.49,144.73,147.52,144.54,147.56,144.34Z"/>
      <path class="cls-26" d="M22,140.4l3.51-3.06c.46-.2.63.08.77.44-1.1,1.89,1.3.8,1.42,1.67a.91.91,0,0,1-.19.69c-1.46,1.15-3.22.93-4.9,1.12C22.2,141.11,21.88,140.91,22,140.4Z"/>
      <path class="cls-27" d="M94.21,80.36a20.94,20.94,0,0,1,0-9c.61.41.1,1.17.51,1.65,0,1.86,0,3.72,0,5.59C94.33,79.14,94.87,80,94.21,80.36Z"/>
      <path class="cls-28" d="M239.44,190.89a9.41,9.41,0,0,1-4.91,1.69c-.6.08-1.35.66-1.59-.47l5.91-1.68C239.35,190.2,239.5,190.41,239.44,190.89Z"/>
      <path class="cls-29" d="M26,137.78l-.53-.44,4-4.65.52.61A6,6,0,0,1,26,137.78Z"/>
      <path class="cls-30" d="M135.32,155.82a24.47,24.47,0,0,1,7.59.16c-.28.9-1,.49-1.58.52a9.75,9.75,0,0,0-4,0c-.78.06-1.59.23-2-.72Z"/>
      <path class="cls-31" d="M236,197.53c.93-2.19,3.41-3,4.51-5a.33.33,0,0,1,.57,0C240.2,195,238.09,196.27,236,197.53Z"/>
      <path class="cls-32" d="M143,135.28l-.6.54c-1.49-1.41-3.72-2-4.53-4.13A23.77,23.77,0,0,1,143,135.28Z"/>
      <path class="cls-33" d="M96,63.88c0-.29,0-.59-.08-.88l2-.29-1.9,4c-.34-.11-.37-.46-.54-.7Z"/>
      <path class="cls-34" d="M135.32,155.82v0c-1.85.88-3.16-.42-4.61-1.16a.42.42,0,0,1,.06-.65C132.28,154.61,134,154.62,135.32,155.82Z"/>
      <path class="cls-35" d="M86.19,74.32c-.77,1.47.07,3.24-.89,4.68.23-1.5-1.43-2.76-.55-4.34Z"/>
      <path class="cls-17" d="M195.92,380.33h8.71A22.21,22.21,0,0,1,195.92,380.33Z"/>
      <path class="cls-36" d="M236.91,184.82l.11.75c-.63,1.62-1.06,3.4-3.1,3.92C234.51,187.67,235.91,186.38,236.91,184.82Z"/>
      <path class="cls-37" d="M233.86,174.69c.44-1.8-1-3.61,0-5.41a13,13,0,0,1,.45,6.51C233.41,175.77,233.72,175.19,233.86,174.69Z"/>
      <path class="cls-38" d="M232.94,192.11c.42.54,1,.37,1.59.47-1,.76-2.11.48-3.17.39s-1.44-.62-.45-1.46c.21-.24.41-.23.59,0C231.76,192.3,232.48,191.88,232.94,192.11Z"/>
      <path class="cls-39" d="M211.7,181.88l-.56.57a2.52,2.52,0,0,1-2.56-2.56l.57-.56A6.93,6.93,0,0,1,211.7,181.88Z"/>
      <path class="cls-40" d="M117.52,131.8c.29,1.64,0,3.36.62,4.95.18.5.46,1.05-.46,1.09A9.07,9.07,0,0,1,117,134C117,133.22,116.25,132.27,117.52,131.8Z"/>
      <path class="cls-23" d="M233.86,174.69l.48,1.1a8.21,8.21,0,0,1-1,3.56c-.45.05-.76,0-.5-.58Z"/>
      <path class="cls-41" d="M79.68,69.44l-3.61-1.91a1,1,0,0,1,.53-.46A7.31,7.31,0,0,1,80.21,69,.82.82,0,0,1,79.68,69.44Z"/>
      <path class="cls-42" d="M119,139.91a13.48,13.48,0,0,1,2,3.56c-.07.25-.1.53-.43.57a8,8,0,0,1-1.93-4.17C118.78,139.72,118.91,139.72,119,139.91Z"/>
      <path class="cls-43" d="M52.47,79.1l-1.1-.46a6.61,6.61,0,0,1,3-3c.26.19.27.38,0,.58C54,77.34,52.42,77.68,52.47,79.1Z"/>
      <path class="cls-44" d="M17.92,143.86a5.91,5.91,0,0,1,2.53-2.47c.76.17.76.17.31,1.21-1,.76-1.29,2.42-3,2.28A.93.93,0,0,1,17.92,143.86Z"/>
      <path class="cls-45" d="M121.21,104.93l-2.65-2c0-.32.33-.37.54-.5a5.42,5.42,0,0,1,2.54,2C121.83,104.89,121.68,105,121.21,104.93Z"/>
      <path class="cls-46" d="M121.21,104.93l.43-.5a6.8,6.8,0,0,1,2.54,2.54l-.52.51Z"/>
      <path class="cls-47" d="M241.52,189a3.63,3.63,0,0,1,1-2c1,0,.66.65.57,1.18s0,1.05-.51,1.37a.88.88,0,0,1-1,.13.42.42,0,0,1-.16-.42C241.44,189.07,241.48,189,241.52,189Z"/>
      <path class="cls-48" d="M52,88.79c.1.66-.51,1.46.35,2l.53.12c.24.13.56.15.66.48-2.54.88-2.54.88-2.13-2.62A.41.41,0,0,1,52,88.79Z"/>
      <path class="cls-49" d="M94.21,80.36c.15-.58,0-1.27.55-1.71l.57,4-.5.49C93.88,82.41,94.36,81.32,94.21,80.36Z"/>
      <path class="cls-50" d="M232.86,178.77l.5.58a9.37,9.37,0,0,1-1.41,3.06C231.05,180.89,232.5,180,232.86,178.77Z"/>
      <path class="cls-51" d="M241.52,189.54l1.09,0c0,1.25-.88,2.09-1.54,3l-.57,0c.26-.88,1.06-1.55,1-2.56-.13-.09-.17-.19-.13-.28S241.48,189.54,241.52,189.54Z"/>
      <path class="cls-52" d="M232.9,198.53c-.26-.42-.71-.44-1.13-.51,1.23-.43,2.46-1,3.8-.35A4.74,4.74,0,0,1,232.9,198.53Z"/>
      <path class="cls-53" d="M135.3,129.24l.55-.61a8.48,8.48,0,0,1,1.9,2.65C136.11,131.6,136.14,129.9,135.3,129.24Z"/>
      <path class="cls-54" d="M16.51,150.14c-.13-.56,0-1.21-.52-1.63a4.53,4.53,0,0,1,.88-2.65,1.1,1.1,0,0,1,.8.81C17.52,147.91,18,149.37,16.51,150.14Z"/>
      <path class="cls-55" d="M143.11,155.6l3.34-1.57C145.69,155.31,144.93,156.59,143.11,155.6Z"/>
      <path class="cls-56" d="M94.75,73.06c-.56-.43-.37-1.09-.51-1.65.27-.85-.62-2.21,1.07-2.42C94.65,70.28,95.05,71.71,94.75,73.06Z"/>
      <path class="cls-57" d="M123.05,147a3.32,3.32,0,0,1,1.56,2.26c-1.2.05-1.47-1-2-1.74C122.32,147,122.65,147,123.05,147Z"/>
      <path class="cls-58" d="M76.6,67.07l-.53.46-2.48-.64a.93.93,0,0,1-.33-.9.88.88,0,0,1,.4-.51l1.08,1Z"/>
      <path class="cls-59" d="M241.52,189.54V190c-.86-.07-1.33.74-2.08.93l-.59-.46a4.83,4.83,0,0,1,2.67-1.43Z"/>
      <path class="cls-60" d="M52,88.79l-.59,0c.2-.9,0-2,1.14-2.47l0,0A3.23,3.23,0,0,1,52,88.79Z"/>
      <path class="cls-61" d="M231.5,191.55l-.59,0a4.23,4.23,0,0,1,2.5-1.52C233.36,191.23,232.56,191.55,231.5,191.55Z"/>
      <path class="cls-62" d="M117.52,131.8c-.69.61-.31,1.47-.53,2.19a6.6,6.6,0,0,1-.31-3.24.77.77,0,0,1,.44-.51l.37,0Z"/>
      <path class="cls-63" d="M130.78,154l-.06.65a5.07,5.07,0,0,1-2.58-1.53c.05-.32.33-.35.54-.46Z"/>
      <path class="cls-64" d="M119,139.91h-.2l-.19,0c-.83-.43-.67-1.34-.95-2l.46-1.09A6.53,6.53,0,0,1,119,139.91Z"/>
      <path class="cls-65" d="M20.48,142.34c.06-.32.57-.65,0-1l1.54-1,.51.52c.2.73-.39,1-.77,1.44S20.89,142.81,20.48,142.34Z"/>
      <path class="cls-66" d="M45.24,104.45h-.49a4.38,4.38,0,0,1,2-2c.63.32.11.69.06,1C46.31,103.86,46.24,104.87,45.24,104.45Z"/>
      <path class="cls-67" d="M137.34,156.49a4.79,4.79,0,0,1,4,0Z"/>
      <path class="cls-68" d="M83.66,73.06c-1.16-.28-1.57-1.24-2-2.19C83.06,70.94,83.56,71.81,83.66,73.06Z"/>
      <path class="cls-69" d="M120.56,144l.43-.57,1.07,2a.77.77,0,0,1-.43.52C120.9,145.53,120.83,144.74,120.56,144Z"/>
      <path class="cls-67" d="M17.34,146.44l-.47-.58c.12-.78.16-1.61,1.05-2L18,145C18.42,145.75,18.1,146.19,17.34,146.44Z"/>
      <path class="cls-70" d="M233.88,168.71c-1.51-.28-1.16-1.62-1.47-2.58C233.5,166.65,233.54,167.76,233.88,168.71Z"/>
      <path class="cls-58" d="M57.38,73.53l.06.68a2.68,2.68,0,0,1-1.54.94.39.39,0,0,1-.16-.39c0-.14.08-.2.13-.2A1.54,1.54,0,0,1,57.38,73.53Z"/>
      <path class="cls-71" d="M53.53,91.38l-.66-.48,2-.54c.12.35.58.76-.15,1Z"/>
      <path class="cls-58" d="M55.87,74.56l0,.59-1.5,1.11c0-.19,0-.38,0-.58C54.65,75,55,74.46,55.87,74.56Z"/>
      <path class="cls-33" d="M95.4,66l.54.7a3.85,3.85,0,0,1-.62,2A2.86,2.86,0,0,1,95.4,66Z"/>
      <path class="cls-67" d="M121.63,146l.43-.52,1,1.53-.42.52C121.93,147.24,122,146.44,121.63,146Z"/>
      <path class="cls-29" d="M119.1,102.46l-.54.5L117,102l.53-.43Z"/>
      <path class="cls-61" d="M234.43,182.34a1.56,1.56,0,0,1-2.54,0C232.74,182.55,233.58,181.82,234.43,182.34Z"/>
      <path class="cls-72" d="M243.12,188.14c-.1-.43-.07-.93-.57-1.18.19-.43.28-.94.86-1.16A2.53,2.53,0,0,1,243.12,188.14Z"/>
      <path class="cls-73" d="M52.52,86.27l0,0a1.4,1.4,0,0,1,1.32-1.87A2.25,2.25,0,0,1,52.52,86.27Z"/>
      <path class="cls-74" d="M128.68,152.62l-.54.46c-.65-.34-1.32-.65-1.41-1.51C127.64,151.44,128.08,152.17,128.68,152.62Z"/>
      <path class="cls-75" d="M147.36,151.87l.49.65c-.29.7-.51,1.46-1.45,1.55A3.22,3.22,0,0,1,147.36,151.87Z"/>
      <path class="cls-76" d="M117.12,130.24l-.44.51-.54-2.51C117.53,128.39,116.93,129.51,117.12,130.24Z"/>
      <path class="cls-77" d="M79.68,69.44l.53-.45c.65.31,1.27.65,1.08,1.55Z"/>
      <path class="cls-78" d="M230.38,163.11l-.08,2.13A2.94,2.94,0,0,1,230,163s.13-.08.17-.06S230.32,163.05,230.38,163.11Z"/>
      <path class="cls-5" d="M17.34,146.44,18,145l2.52-2.64,1-.36c2.6-1.38,5.58-1,8.31-1.78,1.46-.41,3-.69,4.39-1.2a7.37,7.37,0,0,0,4.9-4.71,29.29,29.29,0,0,1,3.39-6.49c.52-.79,1.14-1.54,2.21-1.4s1.54,1.14,1.84,2.14c.9,3,.11,6,.25,9.06,0,.4,0,.81,0,1.21,0,.66-.31,1.28-.28,1.94-.19,1.24-.53,2.46-.74,3.71-.14.87-.62,1.62-.8,2.48a21.74,21.74,0,0,1-1.2,2.7,2.57,2.57,0,0,1-1.34,1.88c-1.12.91-2.58,1.21-3.72,2.06l0,0A5.26,5.26,0,0,0,35.17,155l-.54.07a9.1,9.1,0,0,0-2.39,1.1,18.08,18.08,0,0,1-2,1.25,22.75,22.75,0,0,1-2.84,1.71l-.16.1-.16-.11a13.49,13.49,0,0,1-4,.19,13.3,13.3,0,0,1-2.78-.83,14.65,14.65,0,0,1-3.13-3c-.13-.81-.82-1.53-.37-2.43-.12-1-.25-1.94-.37-2.92C16.78,148.91,17.06,147.67,17.34,146.44Z"/>
      <path class="cls-6" d="M140.92,364.12l-1.06-.43c4.75-5.52,6.25-12.36,7.5-19.2,2.57-14.06,2.76-28.29,2.59-42.53-.06-4.36-2.48-7.54-4.88-10.8a8.46,8.46,0,0,0-6.52-3.81c-5.5-.51-10.49-2.9-15.05-6-1.37-.94-1.38-.18-1.49.79-.38,1.36.17,2.8-.34,4.15,0,2.5-.09,5-.14,7.49a14.28,14.28,0,0,0,0,4.52l.15,6.47c.49,1-.06,2.14.38,3.15.08,3.44,1.31,6.69,1.62,10.09.52.8,0,1.76.4,2.57l.13,2.92a81.7,81.7,0,0,1,0,12.9l-.15,4.45c-.37,1.05.09,2.18-.34,3.22l-.17,2.86c-.37.82.12,1.77-.36,2.58l-.12,2c-.43.8.12,1.76-.4,2.56l-1,8.05c-.74.16-1.12-.2-1.29-.88.32-5.59,1.36-11.11,1.83-16.7a48.33,48.33,0,0,1,.44-5.5,7.33,7.33,0,0,0,.28-3,100,100,0,0,0-2-24.29,25.07,25.07,0,0,1-.53-6.52,7.31,7.31,0,0,0-.3-3.08,69.66,69.66,0,0,1-.21-8.17c.15-1.46,0-2.93.21-4.38a9.13,9.13,0,0,0,.38-3.2c.55-4-.67-6.95-3.89-9.86C108.16,268.9,103,259,98.35,248.81c-2.31-5.09-4.55-10.26-4.84-16.38-.4,1.46,1.35,3-.86,3.56a12.54,12.54,0,0,1-.09-2.37c-.42-1.59.89-3.07.3-4.67-.2-7.78-2-15.39-2.67-23.12a1.73,1.73,0,0,1-.79-1.31,1,1,0,0,1,.94-1.12,1.18,1.18,0,0,1,.74.31c1.62,3.18,1.18,6.74,1.87,10.09,1.28,6.27,1.17,12.74,2.55,19,2.76,12.54,8.76,23.61,15.84,34.16,7.07,9.86,16,16.84,28.55,18.78A137.24,137.24,0,0,1,125.44,249a112.17,112.17,0,0,1-3.22-18.92c-.08-.89-.34-2.11.92-2.25s1.58,1.06,1.66,2.09a136.19,136.19,0,0,0,6.18,29.9c3.21,10.29,7.54,20.16,14.23,28.61A40.4,40.4,0,0,1,154,308.23a77.45,77.45,0,0,1,.38,16.12,372.24,372.24,0,0,1-4.75,38.1c-.2,1.13-.2,2.38-1.29,3.17-.51,0-1,.09-1.39-.42a6.61,6.61,0,0,1,.15-3,346.1,346.1,0,0,0,4.52-34.84,121.68,121.68,0,0,0,0-19.75,157.52,157.52,0,0,1-3.76,43.44,40.18,40.18,0,0,1-3.9,10.11A5.55,5.55,0,0,1,140.92,364.12Z"/>
      <path class="cls-10" d="M90.15,203.58l-.46,1c-.09.37-.22.7-.68.72-1-.44-.59-1.5-1-2.22-.07-.32-.17-.64-.26-1-.35-1.2-.63-2.88-1.91-2.91-1.05,0-.85,1.74-1.18,2.71-1.27,3.74-2.87,7.29-5.81,10.07a13.78,13.78,0,0,1-4.52,3.18c-2,.51-3.82,2.07-5.94.45.13-.92.83-1.3,1.55-1.66a12.65,12.65,0,0,0,7.21-4.79,25.36,25.36,0,0,0,5.37-15.74c0-1.19-.53-2.92.92-3.34,1.25-.35,1.69,1.37,2.44,2.22.33.38.62.8,1,1.15.89.86,1.6.7,1.61-.56,0-4.87.57-9.77-1-14.54-.51-1.53-1.15-2-2.75-1.23a11.26,11.26,0,0,1-6.86,1.24c-1.59-.28-2.64-.12-2.74,1.81,0,.57-.12,1.44-1.17,1.17a10.07,10.07,0,0,1,0-3.63c-.53.83.55,2.11-.77,2.7-.63-1.62.94-3.76-1.15-5,2.18-.69,4.48-.4,6.69-.76a15.3,15.3,0,0,0,3.29-.7,20.32,20.32,0,0,0,4.53-2c.75-.29,1.37-1,2.3-.72a15.67,15.67,0,0,0,1.76,2.58,9.48,9.48,0,0,1,1.24,3.4,10.58,10.58,0,0,0,.33,2.09,14.86,14.86,0,0,0,.64,2.35,3.62,3.62,0,0,1,.26,1.42,6.25,6.25,0,0,0,.3,3,40.37,40.37,0,0,1-1.5,14.59A5.18,5.18,0,0,1,90.15,203.58Z"/>
      <path class="cls-8" d="M120.66,361.56l1,.52c5.41,6.05,6.3,13.28,5.53,21-.17,1.77-1.6,1.59-2.63,1.68a147.85,147.85,0,0,1-19.63.71c-2.61-.1-5.19-.38-7.77-.68-1.37-.16-2-.68-1.31-2.26A62.45,62.45,0,0,1,101,371.89c2.49-3.81,5.52-7,10-8.32a3.83,3.83,0,0,1,1.39.09,7.76,7.76,0,0,0,6.82-1.31A7.35,7.35,0,0,1,120.66,361.56Z"/>
      <path class="cls-79" d="M112,364.1a1.07,1.07,0,0,1-1-.53c3.49-16.88,1.56-33.5-2.28-50.05-2.49-10.76-6.88-20.91-10-31.45a129.64,129.64,0,0,1-5.43-26.14c-.14-.81-.66-1.69.43-2.27.94.67,1,1.76,1.22,2.72A180.59,180.59,0,0,0,104.57,294a161.12,161.12,0,0,1,9.83,44.27,107.82,107.82,0,0,1-.74,20.65C113.44,360.73,113.46,362.68,112,364.1Z"/>
      <path class="cls-80" d="M70.26,174.29h.07c-1.85.3-3-.95-4.19-2l-.66-.6a4.89,4.89,0,0,1-1.34-2.12,2,2,0,0,0-.94-1.2,8.39,8.39,0,0,1-2.38-1.08,1.32,1.32,0,0,1-.18-.67A1.07,1.07,0,0,1,61,166a2.6,2.6,0,0,1,2.09.28,9.31,9.31,0,0,1,1.67.76c3.55,4.68,8.45,5.24,13.66,4.17,8.23-1.69,13.81-7,18.14-13.9.81-1.29,1.14-3.06,3-3.5,1.1.52.94,1.46.81,2.39a14.22,14.22,0,0,1-1.54,2.57c-2.07,3.41-4.93,6.24-7,9.61a2.85,2.85,0,0,1-1.25,1.25c-1.38.65-2.57,1.63-3.89,2.37a24.55,24.55,0,0,1-5.1,2.22,28.23,28.23,0,0,1-4.37.8A11.44,11.44,0,0,1,70.26,174.29Z"/>
      <path class="cls-81" d="M70.05,214.3l-1.47,1c-.43.17-.56,0-.55-.43,6.19-6.57,7.44-14.52,6.87-23.57-3.23,2.84-6.55,3-10.58,2.68,5.5-3.24,8.44-7.64,8.86-13.58a2.13,2.13,0,0,0,.39-1.62c0-.47,0-.94,0-2.14.92,2,.29,3.43.58,4.75,1,3.32-1.15,5.73-2.45,8.38-.33.67-1,1.09-1.48,2a4.8,4.8,0,0,0,2.45-1.12c2.16-1.47,3.3-1.05,3.85,1.53a20,20,0,0,1,.15,6.55,32.79,32.79,0,0,1-3.61,12.3C72.34,212.36,71.67,213.79,70.05,214.3Z"/>
      <path class="cls-31" d="M89.21,205.11l.48-.53.5,1.25c-.64.88-1.26,1.77-1.93,2.62-.36.45-.81,1.07-1.45.69s-.18-1.06.07-1.53c1.56-2.89.75-5.48-.93-8.29-1.51,4.94-2.87,9.63-6.8,13a.68.68,0,0,1-.39-.48,30.61,30.61,0,0,0,6.54-14.34,7.65,7.65,0,0,1,3,5.67C88.9,203.66,87.73,205,89.21,205.11Z"/>
      <path class="cls-82" d="M61,166.14l0,.61c-1.16.32-1.81-.65-2.69-1.06a2.35,2.35,0,0,1-1.34-1.37,12.51,12.51,0,0,0-1.31-1.92,15.87,15.87,0,0,1-.93-1.78c-.35-.72-.76-1.4-1.06-2.14a3.5,3.5,0,0,1-.67-2.36,1.46,1.46,0,0,1,.36-.61c1.06-.1,1.16.83,1.44,1.46a19.45,19.45,0,0,0,4.78,6.7,11.29,11.29,0,0,1,1.55,1.83A.67.67,0,0,1,61,166.14Z"/>
      <path class="cls-18" d="M68,214.89l.55.43c2.13,1.35,4-.25,5.94-.57.55-.27.62,0,.56.47-2.78,1.69-5.79,1.9-9.5,1.5Z"/>
      <path class="cls-83" d="M53.36,155.57l-.13.56c-.22.34,0,1-.75,1a40.79,40.79,0,0,1-.11-10.53.37.37,0,0,1,.39-.26l.51.65C54,149.82,53.67,152.69,53.36,155.57Z"/>
      <path class="cls-84" d="M92.82,233.6v2.48c1.45,2.63.47,5.48.75,8.21a9.63,9.63,0,0,1-.43,3.11.53.53,0,0,1-.74.27,123.35,123.35,0,0,1,0-14.13C92.56,233.31,92.71,233.33,92.82,233.6Z"/>
      <path class="cls-85" d="M70.26,174.29a31.92,31.92,0,0,0,7.24.46c.61-.07,1.37-.69,1.61.48a21,21,0,0,1-7.08.14C71.3,175.23,70.32,175.51,70.26,174.29Z"/>
      <path class="cls-86" d="M124.2,336.39v-12.9A49.74,49.74,0,0,1,124.2,336.39Z"/>
      <path class="cls-87" d="M92.8,247.65l0-3c.9.07,1.08.8,1.1,1.43.1,2.58.49,5.17-.16,7.73-.7.59-.3,1.44-.51,2.15a12.15,12.15,0,0,1-.5-4.6A6.49,6.49,0,0,1,92.8,247.65Z"/>
      <path class="cls-88" d="M47.28,126.2a2.54,2.54,0,0,1,.93,2.18c-1,2.09,0,4.45-.86,6.56-.92-.76-.38-1.92-.75-2.83C47.33,130.2,45.77,128,47.28,126.2Z"/>
      <path class="cls-23" d="M75.08,215.22l-.56-.47,4.24-3,.39.48A8.71,8.71,0,0,1,75.08,215.22Z"/>
      <path class="cls-89" d="M46.87,132.35c.64.77.17,1.75.48,2.59-.05,1.69.16,3.42-.52,5.05-.44-.24-.2-.77-.46-1.09l0-1.06C46.85,136,46.08,134.13,46.87,132.35Z"/>
      <path class="cls-90" d="M66.14,172.3l4.19,2C68.09,175.4,67,174.06,66.14,172.3Z"/>
      <path class="cls-91" d="M38.68,153.58c.64-1.77,2.38-1.55,3.72-2.06C41.69,153.16,40.17,153.34,38.68,153.58Z"/>
      <path class="cls-92" d="M35.17,155c.69-1.68,2-1.94,3.54-1.47A7.66,7.66,0,0,1,35.17,155Z"/>
      <path class="cls-93" d="M45.35,144.48c.27-1.23.18-2.54.83-3.69.49.21.23.77.49,1.08a8.23,8.23,0,0,1-.89,3.61C45.37,145.27,45.62,144.76,45.35,144.48Z"/>
      <path class="cls-67" d="M23.06,159.06l4.06.08c-1.63,1.06-3.37.63-5.09.38C22,158.6,22.57,158.89,23.06,159.06Z"/>
      <path class="cls-94" d="M58.23,165.69c1.13-.24,1.78.75,2.69,1.06a1.53,1.53,0,0,1,0,.43.36.36,0,0,1,.12.38c0,.13-.1.19-.14.19A3.73,3.73,0,0,1,58.23,165.69Z"/>
      <path class="cls-95" d="M92.82,233.6a1.09,1.09,0,0,0-.44-.06,11.89,11.89,0,0,1,.48-4.59C94,230.51,92.54,232.05,92.82,233.6Z"/>
      <path class="cls-96" d="M17.49,155.47l3,2.69c.11.41,0,.62-.45.43a4.77,4.77,0,0,1-2.57-2.5C17.19,155.86,17.21,155.66,17.49,155.47Z"/>
      <path class="cls-97" d="M27.44,159.15c.47-1.24,1.71-1.4,2.68-2a.77.77,0,0,1,.53.43C29.71,158.41,28.8,159.26,27.44,159.15Z"/>
      <path class="cls-98" d="M43.74,149.64a3.38,3.38,0,0,1,1-2.67c.14-.25.28-.25.43,0A2.44,2.44,0,0,1,43.74,149.64Z"/>
      <path class="cls-86" d="M121.52,298.29a5.68,5.68,0,0,1,0-4.52C121.53,295.28,121.52,296.78,121.52,298.29Z"/>
      <path class="cls-99" d="M60.93,167.75l0-.57a5.82,5.82,0,0,1,2.56,1c0,.32-.32.36-.53.48A2.77,2.77,0,0,1,60.93,167.75Z"/>
      <path class="cls-100" d="M53.75,158.62c.82.42.92,1.24,1.11,2a.47.47,0,0,1-.75.09,4,4,0,0,1-.76-2.11C53.49,158.45,53.62,158.46,53.75,158.62Z"/>
      <path class="cls-101" d="M53.75,158.62l-.2-.06-.2.05-.87-1.52.75-1Z"/>
      <path class="cls-102" d="M20,158.59l.45-.43,2.61.9-1,.46A2.68,2.68,0,0,1,20,158.59Z"/>
      <path class="cls-86" d="M121.67,286.28c.09-1.38-.42-2.82.34-4.15A12.6,12.6,0,0,1,121.67,286.28Z"/>
      <path class="cls-101" d="M64.35,169.26c.27.86,1.11,1.46,1.13,2.44-1.56.16-1.08-1.24-1.51-1.95C63.69,169.27,64,169.22,64.35,169.26Z"/>
      <path class="cls-103" d="M17.49,155.47l-.06.62a3,3,0,0,1-1-2.49l.49-.54C17.12,153.85,17.65,154.57,17.49,155.47Z"/>
      <path class="cls-67" d="M32.11,156.08a2.7,2.7,0,0,1,2.52-1c-.64.85-1.72.95-2.52,1.51-.16-.11-.21-.22-.16-.34S32.05,156.08,32.11,156.08Z"/>
      <path class="cls-104" d="M45.19,147H45l-.22,0,.59-2.49.43,1C45.91,146.1,45.45,146.49,45.19,147Z"/>
      <path class="cls-105" d="M92.8,247.65c0,1.23,0,2.45,0,3.68a8.12,8.12,0,0,1-.36-3.66Z"/>
      <path class="cls-106" d="M54.11,160.72l.75-.09,1,1.55a.92.92,0,0,1-.47.52A4.63,4.63,0,0,1,54.11,160.72Z"/>
      <path class="cls-67" d="M32.11,156.08v.52l-1.46,1-.53-.43Z"/>
      <path class="cls-107" d="M52.76,146.3l-.39.26v-3.24C53,144.24,52.73,145.29,52.76,146.3Z"/>
      <path class="cls-108" d="M46.67,141.87l-.49-1.08c.06-.63.12-1.26.19-1.89.15.36.31.72.46,1.09Z"/>
      <path class="cls-86" d="M122.05,307.91c-.77-1-.3-2.09-.38-3.15A7.83,7.83,0,0,1,122.05,307.91Z"/>
      <path class="cls-86" d="M123.71,344.06c.05-1.08-.39-2.21.34-3.22A8,8,0,0,1,123.71,344.06Z"/>
      <path class="cls-109" d="M55.35,162.7l.47-.52c.38.7,1.33,1.11,1.07,2.14A2.82,2.82,0,0,1,55.35,162.7Z"/>
      <path class="cls-86" d="M124.07,320.57c-.71-.77-.32-1.7-.4-2.57A4.55,4.55,0,0,1,124.07,320.57Z"/>
      <path class="cls-86" d="M123.18,349.5c.06-.87-.31-1.8.36-2.58A4.85,4.85,0,0,1,123.18,349.5Z"/>
      <path class="cls-86" d="M122.66,354c.08-.87-.31-1.8.4-2.56A4.53,4.53,0,0,1,122.66,354Z"/>
      <path class="cls-101" d="M64.35,169.26l-.38.49-1-1.08.53-.48A.91.91,0,0,1,64.35,169.26Z"/>
      <path class="cls-110" d="M47.36,118.62c-1.21-7-.76-13.66,3-19.86a25.74,25.74,0,0,1,8.53-9A21.44,21.44,0,0,1,65.29,87c.86,1.23-.82,1.47-.9,2.33a23.49,23.49,0,0,0-1.18,2.07c-.07.72-1,1.18-.62,2l-.71,1.92c-.39,1.29-.22,2.76-1.29,3.81a2.73,2.73,0,0,1-1.24,0c-5.42-.63-7.1.25-9.77,5.08-.2.27.38.26.07.15-1.73-.61,6.31-4.89,9.66-5.15,1,.15,1.78,0,2-1.27a3.33,3.33,0,0,1,1.15-2.18.41.41,0,0,1,.4,0A18.67,18.67,0,0,1,67,93.06,13.66,13.66,0,0,1,71,91.64a.72.72,0,0,1,.66.16c.07,2-1.84,3.53-1.59,5.63a.51.51,0,0,1-.09.46,9.47,9.47,0,0,0-.08,6.18c1.11-.47,1.15-1.57,1.8-2.12a14.17,14.17,0,0,1,1.52-2.31,29.32,29.32,0,0,1,4.21-4.2,14.76,14.76,0,0,1,5.31-2.84,5.51,5.51,0,0,1,1.75-.31,17.7,17.7,0,0,1,2.79-.57l.86-.49A9.72,9.72,0,0,0,92.75,90a10.08,10.08,0,0,0,5.09-3.32c.69-1.92,1.68-.34,2.28,0,6.61,3.25,10.68,8.63,13,15.57,2.09,6.34,2.21,12.83,1.91,19.38-1.41-.28-1-1.46-.88-2.22a58.5,58.5,0,0,0,.17-5.92c.1,7.52-.63,15.77-.58,24a7.57,7.57,0,0,1-.79,3.16,50.52,50.52,0,0,1-9.53,13.58c-.72.77-1.75,2.55-3,.38-.31-.83-.94-1.5-1.25-2.32a5.24,5.24,0,0,1-.27-.65A3.46,3.46,0,0,0,97,149.4a4.35,4.35,0,0,1-1.71-1.72c-1.69-2.41-4.66-3-6.8-4.73-.94-2.69-3.55-2.57-5.63-3.35a10.39,10.39,0,0,1-2.14-.35,6.78,6.78,0,0,0-2.7-.89c-.94-.29-1.91-.37-2.86-.57a9.1,9.1,0,0,0-1.46-.25c-.77,0-1.54,0-2.31,0H68a4.75,4.75,0,0,0-2.7.4c-.47.2-1-.14-1.48.27-.89.22-1.81,0-2.69.24-1.34,0-2.61.48-4,.39-1.73-.66-.9-1.64-.29-2.55,1.87-2.79,3.9-5.46,5.95-8.11.21-.27,0,.1.15-.2.17-.47-.24-.14-.38-.22a1.86,1.86,0,0,1-1.86-.71,1.75,1.75,0,0,1-.13-.71,5.18,5.18,0,0,1,2.35-2.6,4.1,4.1,0,0,0,2.08-2,10.48,10.48,0,0,0,.63-1.89,8.14,8.14,0,0,0,.24-5.44,6.26,6.26,0,0,0-1.25-3.06,10.35,10.35,0,0,0-3.47-3c-.93-.18-1.5-1.14-2.52-1.1-.74,0-1.48,0-2.51,0,1.16,0,2,0,2.9,0,.42.17.61.43.33.87-1.21.77-2.55.49-3.86.47-1.29-.26-2.47-.21-3.23,1.1-.67.87-1.39,1.71-2.1,2.55a5.45,5.45,0,0,0-1.26,2.57c-.08.33-.17.65-.27,1-.33.87-.12,1.88-.65,2.71A.49.49,0,0,1,47.36,118.62Z"/>
      <path class="cls-111" d="M74.05,60.39a10.21,10.21,0,0,1-.46,4.07c-1,.75-2.1.12-3.15.17A10.17,10.17,0,0,0,65,66.11c-.29.65-1.87-.13-1.46,1.32a1.82,1.82,0,0,0,.4.11c.43.33,1.31.14,1.23,1.07-.41,1-.44,2.13-1.08,3a2.47,2.47,0,0,1-1.35.39,4.38,4.38,0,0,0-2.78,1h0c-1.1,0-1.46-.52-1.06-1.55A92.79,92.79,0,0,1,74.36,38.12a67,67,0,0,1,12.57-13c.62-.5,1.32-.89,2.62-1.76-.9,1.57-1.29,2.54-2.19,3.2a18.36,18.36,0,0,0-2,2.35C83.07,32.13,80.28,35,78,38.35a43.06,43.06,0,0,0-3.65,5.73c1.34.21,2.82-.15,3.7,1.09l-1.39,3.62C72,48,70,50.69,68.88,54.66c-.5,1.76-1.5,3.37-1.8,5.4C69.49,60.15,71.86,59,74.05,60.39Z"/>
      <path class="cls-112" d="M65,68.52c-.35-.32-.69-.65-1-1A17.38,17.38,0,0,1,76.13,73a8.79,8.79,0,0,1-4.66-.46,8.61,8.61,0,0,0-2.88-1.42C67.2,70.48,65.74,70,65,68.52Z"/>
      <path class="cls-113" d="M65.4,87.29l-6.51,2.46-1.07-.52c4-1.28,7.65-3.18,11.64-4.66l-2.94,2.68A.88.88,0,0,1,65.4,87.29Z"/>
      <path class="cls-114" d="M63.52,67.43c-.32.52-.72.65-1.15.15a.5.5,0,0,1,.15-.82c.66-.31,1.34-.56,2-.83,3-1.25,6-1.79,9,0l0,.92C70.21,66.57,66.81,65.91,63.52,67.43Z"/>
      <path class="cls-114" d="M69,70.61c.84.59,2.31.39,2.43,1.9a32.67,32.67,0,0,0-7.39-.41c-.63.09-1.44.71-1.62-.54L64,71.49C65.42,69.69,67.36,70.91,69,70.61Z"/>
      <path class="cls-114" d="M72.1,102l-1.78,3.35c-1.72-2.74-1.8-5.55-.3-7.41v1a7.56,7.56,0,0,0,0,4.06c1.14.13.91-1.17,1.59-1.52C72.05,101.32,72.3,101.42,72.1,102Z"/>
      <path class="cls-115" d="M97.84,86.72c-.71,2.5-2.93,2.91-5,3.58-.57.32-.62,0-.59-.47C94,89,96,88.4,97.18,86.7Z"/>
      <path class="cls-116" d="M82.74,92.87l-5.15,2.92c-.21-.14-.51-.18-.57-.5a11.48,11.48,0,0,1,5.18-2.91C82.4,92.52,82.7,92.55,82.74,92.87Z"/>
      <path class="cls-117" d="M62.44,95.87c-.56,1.65-.33,3.9-3,3.89-.12-.81.76-.47,1-.87,1.07-.92-.19-2.82,1.45-3.51Z"/>
      <path class="cls-118" d="M70.11,97.43c-1-1.18.17-2.09.44-3.09s1-1.54,1-2.5a.68.68,0,0,1,1,0Z"/>
      <path class="cls-119" d="M77,95.29l.57.5a24.31,24.31,0,0,0-4,4.1c-.47.1-.7,0-.53-.54A14.9,14.9,0,0,1,77,95.29Z"/>
      <path class="cls-120" d="M67.06,93.35c-1.45.76-2.54,2.13-4.22,2.48.59-1.77,2.21-2.26,3.67-3C66.73,93,67,93,67.06,93.35Z"/>
      <path class="cls-121" d="M92.3,89.83l.59.47a5.16,5.16,0,0,1-4.71.93Z"/>
      <path class="cls-122" d="M67.06,93.35l-.55-.48a10.16,10.16,0,0,1,4-1.51.94.94,0,0,1,.52.46Z"/>
      <path class="cls-123" d="M62.46,71.56c.4.61,1,.45,1.62.54l-4.14,1C60.2,71.63,61.52,71.91,62.46,71.56Z"/>
      <path class="cls-124" d="M87.32,91.72c-.69.87-1.8.52-2.65.92-.35-.1-.55-.28-.44-.68C85.27,92,86.22,90.92,87.32,91.72Z"/>
      <path class="cls-125" d="M73.05,99.35l.53.54L72.1,102l-.51-.53A4.47,4.47,0,0,1,73.05,99.35Z"/>
      <path class="cls-126" d="M65.4,87.29l1.12,0-2,2.6c-.31-.06-.36-.36-.5-.57Z"/>
      <path class="cls-110" d="M70,102.94a3.75,3.75,0,0,1,0-4.06C70,100.23,70,101.59,70,102.94Z"/>
      <path class="cls-58" d="M71.08,91.82l-.52-.46a6.68,6.68,0,0,1,1.88-.48c1.09.07.21.58.11.91l-1,0Z"/>
      <path class="cls-124" d="M84.23,92l.44.69-1.93.22-.54-.49Z"/>
      <path class="cls-127" d="M62.59,93.46c-.93-.94.25-1.46.44-2.18.18-.19.34-.18.5,0A4.1,4.1,0,0,1,62.59,93.46Z"/>
      <path class="cls-128" d="M63.53,91.31l-.5,0,1-2,.5.57C64.24,90.38,64.13,91,63.53,91.31Z"/>
      <path class="cls-123" d="M58.89,71.54A1.61,1.61,0,0,0,60,73.09a1,1,0,0,1-1.05.45C58.63,72.88,58,72.21,58.89,71.54Z"/>
      <path class="cls-110" d="M148.32,365.62c1.9-10.23,3.5-20.52,4.5-30.88,1.13-11.79,2.46-23.63-1.71-35.19a27.31,27.31,0,0,0-4.46-8.16c-9.8-11.91-15.17-25.86-19-40.57a112.27,112.27,0,0,1-3.6-21.07c0-.64,0-1.64-.84-1.53s-.43,1.05-.37,1.67a162.11,162.11,0,0,0,3.19,19.34c-1.33.09-1.91-.92-2.56-1.77a60.71,60.71,0,0,1-12.19-29.85c-1.34-10.54-1.48-21.18-2.89-31.71A60.43,60.43,0,0,0,101,163a5.5,5.5,0,0,1-1.06-2.55c.61-2.31,2.48-3.74,3.93-5.43a53.32,53.32,0,0,0,7.42-10.77c.37-.72.57-1.92,1.55-1.7s.76,1.37.8,2.2a75.93,75.93,0,0,0,4.2,21.19c3.27,9.7,9.06,17.36,18,22.55l2,0a18.57,18.57,0,0,1,5.72,1.92c-.75-.86-2.74-.48-2.63-2.4,12.69-1.7,24.35-6.28,35.36-12.7,1.87-.94,3.79-.44,5.69-.18,11,1.52,20.79,5.58,28.71,13.59,5,5,7.66,11.24,9.52,17.89A120.21,120.21,0,0,1,225,240.79c-.11,6.91.24,13.81-.71,20.71-1.18,8.56-4.25,16.4-7.8,24.2-5.79,12.72-8.51,26.26-9.7,40.12-.75,8.73-1.37,17.46-.77,26.24a31.78,31.78,0,0,1-.44,7l0,1.47c-.5,1-1.64.74-2.37,1.27-1.06-.11-2.16.29-3.19-.26l-1-1c1.81-12,3.79-24.07,3-36.33a118.62,118.62,0,0,0-6.08-29,22.27,22.27,0,0,1-.84-3.68c-.59-4.17.09-7.54,4.2-10.1,6.85-4.28,10-11.19,11.29-18.91a55.7,55.7,0,0,0-.4-20.55c-.13-.62.07-1.51-1-1.22-.1,0-.06.6-.08.92-1.82,6-5.82,10.32-10.81,13.75a45,45,0,0,1-20.56,7.59c-1-.18-2.08.61-3-.24.94-3.7,2.05-7.38,2.79-11.12a40.57,40.57,0,0,0,.8-8.95c0-.85,0-1.7-.94-2.12-.83,3.07-1.91,6.08-2.5,9.21a70.59,70.59,0,0,1-14.69,31.26c-3.68,4.61-2.59,7.8.12,11.37a18.39,18.39,0,0,0,4.06,4.15c3,2,3.37,4.82,2.84,8a32.11,32.11,0,0,1-4.68,12.48c-8,12.17-8.18,25.52-6.54,39.24.44,3.73,1.3,7.45.59,11.24l-3,1.1c-1.9.34-3.78.54-5.54-.56Z"/>
      <path class="cls-95" d="M205.61,359.07c.24-6.23-.79-12.41-.53-18.65.77-18,2.87-35.74,9.65-52.64,2-4.92,4.74-9.47,6.25-14.6a76.91,76.91,0,0,0,3.31-20.51c.1-5.82.34-11.66,0-17.45-.84-12.66-2.7-25.17-7.93-36.9-4.15-9.31-11.71-14.95-20.77-18.86a54.59,54.59,0,0,0-19.29-4.15c6.94-4.7,14.35-4.58,21.91-1.93,3.93,1.38,7.22,3.89,10.41,6.51a10.73,10.73,0,0,0,2.56,2.56c10.5,12.38,16,27,18.23,42.82,3.26,22.63-.59,44.16-10.24,64.8-5,10.8-8,22.3-10,34A153.84,153.84,0,0,0,207,348.17,42.6,42.6,0,0,1,205.61,359.07Z"/>
      <path class="cls-111" d="M134.68,61.87l-1.93,4.62c-3.32-1.63-3.28-1.6-5.74,1.85a27.83,27.83,0,0,1-6.43,7c-1.33.93-1.64,1.83-.52,3.31.94,1.25,2.27,2.57,1.57,4.48a9.7,9.7,0,0,1-3.06,3c-1.28-.87-.95-2.41-1.47-3.61-1-2.34-1.57-2.44-3.52-.92-3,2.33-5.61,5.3-9.61,6l-5.86-3.6c12.46-5.66,22.38-13.8,28.66-25.88,6.16-11.85,8.55-24.49,8-37.89a1.56,1.56,0,0,1,1,1.64c-.37,1.66.09,3.31.32,4.92.58,4.1,0,8.16,0,12.24,0,.85-.3,1.82.59,2.64,1.18-2.35-.48-5.1,1.25-7.24.88,1.75.39,3.61.42,5.42a43.42,43.42,0,0,1-.95,9.36c-.74-.37-.55-1.84-1.65-1.63s-1,1.44-1.15,2.28a23.19,23.19,0,0,1-1.25,4.85C132,57.59,132.22,59.91,134.68,61.87Z"/>
      <path class="cls-95" d="M135.84,188.45c-5.56-1.82-9.34-5.88-12.55-10.44-5.88-8.37-8.49-17.95-9.79-28-.3-2.34-.53-4.66-.66-7.13-2.89,6.71-8,11.76-12.46,17.27A15.51,15.51,0,0,1,95.79,165a1.2,1.2,0,0,1-1-.19c.74-2.28,2.65-3.8,3.8-5.81a22.51,22.51,0,0,0,1.54-2.42c.22-.81-.32-1.74.37-2.49.44.72.63,1.75,1.79.46,4.07-4.5,7.9-9.16,10.33-14.8A4,4,0,0,0,113,138c-.29-5.23.51-10.41.52-15.62,0-3.44.9-6.81.67-10.27.82,3.14-.27,6.4.8,9.5a68.15,68.15,0,0,0-.41,13.08A130,130,0,0,0,122,170.3c2.06,5.56,6.38,9.82,10.19,14.3C133.35,185.94,134.63,187.17,135.84,188.45Z"/>
      <path class="cls-129" d="M121.63,83.17a10.34,10.34,0,0,0-2.57-4.81c-.93-.9-1.08-1.64,0-2.45a36.63,36.63,0,0,0,9.54-11.18c.65-1.1,1.53-1,2.32-.28a19.72,19.72,0,0,1,1.83,2c-.68,1.67-1.37,3.33-2.05,5l-5.52,8.16C124,80.82,123.11,82.3,121.63,83.17Z"/>
      <path class="cls-130" d="M104,87.71a45.6,45.6,0,0,0,10.39-7.64c1-1,1.55-.41,2.18.32,1.46,1.66,1.54,3.81,2,5.8a57.68,57.68,0,0,1-7.4,5.9c-1.06.75-1.72.66-2.5-.29A29.54,29.54,0,0,0,104,87.71Z"/>
      <path class="cls-131" d="M134.68,61.87c-3.21-1.54-3.49-2.27-2.5-5.5.72-2.4,1.26-4.85,1.92-7.26.28-1-.15-2.5,1.8-2.39s1.21,1.61,1.46,2.6A71.73,71.73,0,0,1,134.68,61.87Z"/>
      <path class="cls-132" d="M137.89,34.54c0,2.35-.06,4.71-.06,7.06,0,.95-.2,1.65-1.39,1.58s-1.2-.75-1.15-1.57c.16-2.5-.15-5,.36-7.51.63-3.15-.75-6.31-.35-9.5.11-.88-.35-1.87.47-2.62A45.41,45.41,0,0,1,137.89,34.54Z"/>
      <path class="cls-133" d="M140.9,188c.78,1.44,2.76,1.37,3.68,3a25.72,25.72,0,0,1-6.77-2.55Z"/>
      <path class="cls-134" d="M124.18,122.16a29.51,29.51,0,0,0-5.55-8.08c1.22-.67,1.34.65,1.83,1.12a14.8,14.8,0,0,1,4.17,7C124.47,122.41,124.32,122.41,124.18,122.16Z"/>
      <path class="cls-135" d="M134.31,138.29a9.24,9.24,0,0,1-5.52-2.92c2.2.34,3.88,2,6,2.46A1,1,0,0,1,134.31,138.29Z"/>
      <path class="cls-136" d="M143.38,140l-6.59-1.65q-.22-.15-.15-.3t.15-.15C139.05,138.37,141.55,138.16,143.38,140Z"/>
      <path class="cls-137" d="M125.6,129.78a14.62,14.62,0,0,1-.85-5.11c.13-.2.27-.21.4,0,.89,1.59.31,3.47,1,5.1C126,130,125.79,130,125.6,129.78Z"/>
      <path class="cls-138" d="M125.6,129.78h.57c.14,1.86,2,3,2,5A8.56,8.56,0,0,1,125.6,129.78Z"/>
      <path class="cls-67" d="M125.15,124.67h-.4c-.14-.85-.75-1.59-.57-2.51l.45,0C124.8,123,125,123.84,125.15,124.67Z"/>
      <path class="cls-67" d="M136.79,137.88a3.38,3.38,0,0,1,0,.45l-2.48,0,.51-.46Z"/>
      <path class="cls-139" d="M177.81,262.43c10.91-1.72,20.68-5.58,27.54-14.79,1.39-1.87,2.48-3.95,3.71-5.93,0,.45.09.9.14,1.35,1.16,9.25.27,18.11-5,26.15-5.73,8.8-14.13,12.85-24.35,13.58a55.58,55.58,0,0,1-7.3,0c-1-.06-2.4,0-2-1.76l.14-.91a85.47,85.47,0,0,0,4.51-14.86C175.52,263.78,175.9,262.39,177.81,262.43Z"/>
      <path class="cls-95" d="M156.52,367.59c.23-4.82-1.25-9.44-1.64-14.2a85.41,85.41,0,0,1,.33-19.57c.87-5.94,3.31-11.16,6.3-16.29,2.79-4.79,5.07-9.87,5.15-15.62a4.74,4.74,0,0,0-2.17-4.24,21.73,21.73,0,0,1-6.6-7.53,6.82,6.82,0,0,1,.39-7.6,148.56,148.56,0,0,0,9.37-14c3.72-6.61,5.2-14,7.07-21.18a21.73,21.73,0,0,1,2.6-6.73c-.06,8.4-2.2,16.38-4.46,24.41s-4.38,16.43-3.66,25.05c.2,2.5.75,5,1,7.47a31,31,0,0,1-3.35,16.6c-1.16,2.42-2.18,4.9-3.57,7.23-3.65,6.08-4.46,12.95-5.19,19.81A233.34,233.34,0,0,0,157,367.63Z"/>
      <path class="cls-140" d="M170.61,281c.17.61.44,1.06,1.17,1.1,8.44.43,16.7-.15,23.95-5.09,7.61-5.18,11.37-12.74,12.94-21.63.72-4.1.32-8.21.52-12.32,2,12.92,2.14,25.52-8,35.54-5.75,5.68-13.33,7.94-21.07,9.58a46.9,46.9,0,0,1-8,.6c-1.6.05-2.1-.57-2-2.06C170.31,284.81,169.86,282.85,170.61,281Z"/>
      <path class="cls-141" d="M177.81,262.43c-1.78.58-1.73,2.21-2,3.62-1.09,4.89-2.16,9.78-5,14a97.57,97.57,0,0,1,3.92-17.28C175.73,262.83,176.71,262.11,177.81,262.43Z"/>
      <path class="cls-142" d="M148.48,375.85c-4.16,4.14-5.5,9-6.06,14.13-.15,1.35-.22,2-1.87,1.56a44.65,44.65,0,0,0-5.47-.65c-1.79-.22-2.66-1.08-2.24-3a27.13,27.13,0,0,1,11.58-17.36,3.89,3.89,0,0,1,4.15-.63c2.22.91,4.62.35,6.86-.58,1-.42,2-.74,2.9.41,4.32,5.43,7.73,11.18,7.36,18.5-.08,1.53-.41,2.14-2.06,2.38A101,101,0,0,1,149.42,392c-1.54,0-2-.52-2-2.05a79.36,79.36,0,0,1,.92-11C148.43,378.06,148.41,377.16,148.48,375.85Z"/>
      <path class="cls-143" d="M140.92,364.12c5.28-6.48,6.7-14.38,8-22.26A191.6,191.6,0,0,0,151,308.44a36.63,36.63,0,0,1,.14-4.05,18.2,18.2,0,0,1,1.36,6.48c.73,13.47-.82,26.79-2.9,40.06q-1,6.58-2.14,13.16a4.75,4.75,0,0,1-.5,1.11C144.87,365.14,142.79,365.21,140.92,364.12Z"/>
      <path class="cls-142" d="M132.69,376.75a15.81,15.81,0,0,1,5.74-10.87,2.2,2.2,0,0,1,2.34-.38,16.32,16.32,0,0,0,4.88,1.15c.51,0,1.07,0,1.16.69s-.48.83-.91,1.06a10.26,10.26,0,0,0-2.77,1.74c-.16.17-.57.39-.62.34-2.32-2.31-2.41.83-3,1.5a38.52,38.52,0,0,0-3.76,5.65c-.55.87-1.21,1.41-2.28,1.06S132.94,377.4,132.69,376.75Z"/>
      <path class="cls-144" d="M147.94,368.13a20.66,20.66,0,0,0,5.54.56C151.56,369.21,149.62,370,147.94,368.13Z"/>
      <path class="cls-145" d="M213.63,183.91c1.67-1,3.64-.89,5.45-1.43,6.07-1.8,10.29-5.39,11.87-11.72.4-.23-.1-1.31.92-1,.6,5.61-2.46,9.56-6,13.31-.87.94-2.79,1.75-2.2,3,.74,1.6,2.63.47,3.92.24,2.53-.44,5-1.24,7.65-1.94.07,1.4-.91,1.89-1.65,2.4a31,31,0,0,1-6.86,3.72c-1.82.66-1.61,1.64-.39,2.76a5.15,5.15,0,0,0,3.72,1.26c1.94,0,3.87,0,5.9,0-2.38,1.87-5.88,2-14.79.57C218.82,191.29,216.67,187.3,213.63,183.91Z"/>
      <path class="cls-146" d="M203.54,361.56l2.05-1c0,.18,0,.36,0,.54-.37.59-1,.48-1.52.5A.32.32,0,0,1,203.54,361.56Z"/>
      <path class="cls-147" d="M231.87,169.8l-.92,1c.16-1,.31-2,.46-3C232.14,168.3,231.86,169.08,231.87,169.8Z"/>
      <path class="cls-148" d="M74.05,60.39c-2.33.09-4.69-.25-6.94.71-1,.44-1.18-.21-.92-1a45.82,45.82,0,0,1,4.55-10.83c1.28-2,3.84-1.15,5.9-.46Q75.35,54.6,74.05,60.39Z"/>
      <path class="cls-149" d="M78,45.17a6.9,6.9,0,0,0-5.17.23c3.52-6.62,7.85-11.82,12.36-16.87.48-.11.74,0,.54.56C83.09,34.41,80.19,39.61,78,45.17Z"/>
      <path class="cls-150" d="M73.57,66a31.05,31.05,0,0,0-9,0c2.69-2.51,5.84-2.19,9-1.47,0,.34,0,.68.07,1A3.86,3.86,0,0,0,73.57,66Z"/>
      <path class="cls-151" d="M85.76,29.09l-.54-.56a4.34,4.34,0,0,1,2.14-2A7.13,7.13,0,0,1,85.76,29.09Z"/>
      <path class="cls-7" d="M45.24,104.45l1.53-1a28.57,28.57,0,0,0-.54,13.16c.29,1.24-1,1.91-1,3l-.15.31a9.79,9.79,0,0,0-2.6,3.42,11.56,11.56,0,0,0-1.83,3.6c-.57,1.26-1,2.58-1.56,3.86A22.23,22.23,0,0,1,38,133.37c-1,1.28-2.25,2.31-3.2,3.62a4.28,4.28,0,0,1-1.19.73A24.19,24.19,0,0,0,31,138.77c-1.15.26-2.19,1.1-3.47.62l-3.12.34c.09-1,1.48-1,1.6-1.95l4-4.48a49.35,49.35,0,0,0,7.21-13.79A42.47,42.47,0,0,1,44.4,106,9.23,9.23,0,0,0,45.24,104.45Z"/>
      <path class="cls-107" d="M53.36,155.57c-.94-2.86-.33-5.74-.09-8.62l.91-3c-.09-.51-.09-1.05.55-1.16s1,.42,1.25,1A21,21,0,0,0,58.61,149,30.1,30.1,0,0,0,62,152.33a14.58,14.58,0,0,0,5.89,3.14A3.71,3.71,0,0,1,71,159.09a20.93,20.93,0,0,0,.73,3.3,3.07,3.07,0,0,1,.12,1.56c-1.81,2.49-4.37,2-6.82,1.62a14.9,14.9,0,0,1-4.17-1.68c-.36.05-.74-.84-1.1,0a.85.85,0,0,1-.32.44C56.41,162.11,54.92,158.82,53.36,155.57Z"/>
      <path class="cls-152" d="M47.36,118.62h.45a.5.5,0,0,1,.63,0,11.39,11.39,0,0,1,.91,2.59,4.91,4.91,0,0,0,.87,1.74c1,1,1.81,2.21,3.22,2.72a1.12,1.12,0,0,1,.14.67c-.31.82-1,.57-1.38.58a42.82,42.82,0,0,1,9.92.58c1,.9,0,1.4-.42,2-1.74,2.26-3.35,4.61-4.9,7a6.36,6.36,0,0,0-1,2.55c-.51,1.36,0,3.22-2,3.86C51,135,48.3,127,47.36,118.62Z"/>
      <path class="cls-12" d="M33.54,137.4a1.4,1.4,0,0,1,1.13-.62,27,27,0,0,1,2.92-3.13,11.92,11.92,0,0,0,1.26-2.71c.46-1.43,1.07-2.8,1.61-4.2a10.68,10.68,0,0,1,2-3.65,6.63,6.63,0,0,1,2.79-3.46h0c.48-.18.92-.43,1,.43.29,2,.65,4.1,1,6.15-.17,2,.31,4.14-.41,6.15-.31,1.82.31,3.72-.47,5.49-.26-3.17.29-6.4-.6-9.53-.19-.64-.23-1.41-1-1.56s-1.21.49-1.53,1.09a42.8,42.8,0,0,0-3.37,6.47c-1,3.07-3.16,4.59-6,5.57-4,1.39-8.24,1.44-12.38,2.1l1-1.06,5.06-1.12a12.11,12.11,0,0,1,3.22-1.18C31.73,138.27,32.58,137.72,33.54,137.4Z"/>
      <path class="cls-153" d="M53.84,142.89c1.36-1,.53-2.87,1.49-4,.41-.52,1.07-.18,1.56-.43,1.5-.23,3-.85,4.52-.53-.16,1.38-1.42,1.2-2.27,1.6-2.77.74-2.87,1-2.29,3.8.42,2,1.8,3.57,2.24,5.53a1,1,0,0,1-.72.77,14.13,14.13,0,0,1-3-5.72c-.12-.33.07-.93-.57-.9s-.41.64-.65.94C54.07,143.57,54,143.23,53.84,142.89Z"/>
      <path class="cls-142" d="M188.41,371.21c1.91-3.09,4-6,7.22-7.9.57-.34,1.23-.94,1.78-.87a69.09,69.09,0,0,0,8.75.28c1.63,0,2.78,2.67,3.76,4.45a8.59,8.59,0,0,0,.73,1c.34,1.68.69,3.36,1,5a11,11,0,0,1,0,5.06,17.3,17.3,0,0,1-5.56,1c-1.12.63-2.43-.17-3.55.49-5.13-.15-4.58,1.06-4.48-4.77a63.33,63.33,0,0,1,1-7.48c-2.85,2.55-3.29,5.62-4.13,8.5-.32,1.11.14,2.84-1.42,3.15-2.06.41-4.13-.21-6.12-.82-.6-.19-.46-.95-.31-1.56C187.57,375,188,373.08,188.41,371.21Z"/>
      <path class="cls-17" d="M211.66,378.28c0-1.69,0-3.37,0-5.06A5.7,5.7,0,0,1,211.66,378.28Z"/>
      <path class="cls-17" d="M202.55,379.79c1.08-.93,2.37-.32,3.55-.49C205,380.25,203.73,379.61,202.55,379.79Z"/>
      <path class="cls-154" d="M203.54,361.56l.54,0a3.72,3.72,0,0,1-4.05,0Z"/>
      <path class="cls-155" d="M31.08,138.8l-3.52,1c0-.14,0-.27,0-.41a10.09,10.09,0,0,1,3.54-1.07c.15.11.19.22.14.32S31.13,138.8,31.08,138.8Z"/>
      <path class="cls-139" d="M94.89,164.76l1-.09c2,3.15,2.91,6.77,4,10.29a145,145,0,0,1,6.09,29.13,108.58,108.58,0,0,1,.71,14.87c-.46,12.07,3.77,22.6,10.65,32.25a78.83,78.83,0,0,0,8.91,10c2.44,2.44,2.37,3.63-.46,5.62-3.22,2.27-6.63,4-10.82,2.85a10.11,10.11,0,0,1-3.9-2.23c-9-12.93-16-26.63-17.36-42.73-.59-7-1.9-14-2.88-21,.62-3.25,1.8-6.35,2.19-9.69a33.5,33.5,0,0,0-.13-9.17c.06-.66-.36-1.32,0-2l-.51-.93c.27-.87-.51-1.62-.28-2.48-.59-.6-.3-1.5-.74-2.15l-1.09-3.56c-1-.55-.78-1.63-1.13-2.47-.4-1.09.67-1.34,1.11-2a2.09,2.09,0,0,0,1.19-1.16C92.66,167.13,93.17,165.31,94.89,164.76Z"/>
      <path class="cls-156" d="M111,267.42c3,1.05,5.79,2.88,9.16,1.53.62-.24,1.27-.42,1.88-.71,6.28-3,6.46-3.82,1.68-8.54-8.53-8.41-14.42-18.31-17-30.1a35.65,35.65,0,0,1-.84-8.5c.42-17.24-2.67-33.92-8.08-50.22-.69-2.07-1.92-4-2-6.21a21.76,21.76,0,0,1,4.54-4.5c3,5.62,5.93,11.25,7.3,17.55A137.07,137.07,0,0,1,110,194.34c1,11.06.89,22.28,4,33.06a52.53,52.53,0,0,0,12,21.83,138.1,138.1,0,0,0,9.27,26.08c1.85,3.75,3.91,7.38,6.14,11.57C128,285,118.39,278,111,267.42Z"/>
      <path class="cls-95" d="M93.77,253.78c-.8-2-.29-4.17-.47-6.25-.08-1,.3-2-.47-2.91,0-2.85,0-5.69,0-8.54.91-1.06.09-2.46.68-3.71a101.6,101.6,0,0,0,19.74,39.87,23.51,23.51,0,0,0,5.15,5.15,5.77,5.77,0,0,1,2.73,6.17,23.51,23.51,0,0,0,0,2.52,2.76,2.76,0,0,0-.38.67c-.18,2.32-.68,4.63-.15,7l.12,8.66c.48.79-.14,1.76.44,2.53-.3,4.14.85,8.09,1.52,12.1a107.43,107.43,0,0,1,1,19.22c-.56.78,0,1.74-.42,2.54a169.44,169.44,0,0,1-2.56,22.79c0,.61-.33,1-1,1-1.92.76-2-.43-1.81-1.77.31-2,.83-4,1.06-6,1.21-10.83.08-21.52-1.79-32.19s-3.33-21.48-4.33-32.31a7.76,7.76,0,0,0-2.52-5.29c-8.31-7.89-13.2-17.73-15.93-28.75A5.08,5.08,0,0,1,93.77,253.78Z"/>
      <path class="cls-157" d="M93.19,184.48a32.25,32.25,0,0,1-2.4,19.2l-.64-.1a44.46,44.46,0,0,0,2.6-18.07C92.6,185,92.26,184.48,93.19,184.48Z"/>
      <path class="cls-158" d="M120.56,293.72a12.35,12.35,0,0,1,.08-7.56,4.88,4.88,0,0,1,0,3Z"/>
      <path class="cls-86" d="M120.69,289.16c0-1,0-2,0-3a2.11,2.11,0,0,0,.45-.08C121,287.11,121.5,288.22,120.69,289.16Z"/>
      <path class="cls-86" d="M123.22,338.77c0-.87-.29-1.79.42-2.54C123.55,337.08,124,338,123.22,338.77Z"/>
      <path class="cls-86" d="M121.12,304.91c-.73-.74-.41-1.67-.44-2.53C121.45,303.12,121,304.06,121.12,304.91Z"/>
      <path class="cls-145" d="M70.05,214.3c5-6.27,6.39-13.58,6-21.37-.06-1,0-2.24-1-2.71s-1.42.9-2.15,1.36a7.3,7.3,0,0,1-4.65,1.24,18.1,18.1,0,0,0,6-11.41c1-1.14-.36-3.22,1-3.85,1.07-.47,2.61.25,3.93.22A11.17,11.17,0,0,0,85.36,176c1-.71,1.72-.79,2.26.59,2.24,5.68,1.83,11.57,1.48,17.45-.08,1.33-.88,1.67-2,.61-1.37-1.27-2.21-2.93-3.65-4.65-.33,3.13-.07,6-.71,8.7-1.55,6.55-4.34,12.2-10.7,15.34C71.44,214.35,70.81,215.25,70.05,214.3Z"/>
      <path class="cls-159" d="M81.69,173.86l5-2.21a.47.47,0,0,1,.07.71,8.77,8.77,0,0,1-4.38,2C81.87,174.59,81.65,174.39,81.69,173.86Z"/>
      <path class="cls-160" d="M86.76,172.36l-.07-.71c1.11-.86,1.93-2.15,3.48-2.36.23.89-.94,1.15-.89,2a.48.48,0,0,1-.69.12Z"/>
      <path class="cls-161" d="M81.69,173.86l.69.53a8,8,0,0,1-3.27.84c-.42-.54-1.06-.36-1.61-.48Z"/>
      <path class="cls-162" d="M88.59,171.37l.69-.12c.68.68.5,1.68.91,2.46C88.77,173.54,88.93,172.28,88.59,171.37Z"/>
      <path class="cls-163" d="M93.19,184.48c-.14.34-.29.68-.44,1-.49-.91-.79-1.8.06-2.68C92.94,183.38,93.07,183.93,93.19,184.48Z"/>
      <path class="cls-72" d="M89.21,205.11c-.26.4-.52,1.34-.91.16a6.51,6.51,0,0,1,0-2.15C89.05,203.6,88.43,204.65,89.21,205.11Z"/>
      <path class="cls-164" d="M92.2,179.38c-.26.85,1,1.64.1,2.52a4,4,0,0,1-.46-2.54C92,179.15,92.09,179.17,92.2,179.38Z"/>
      <path class="cls-165" d="M92.2,179.38l-.36,0c-.77-.54-.52-1.35-.56-2.09C92,177.8,91.86,178.69,92.2,179.38Z"/>
      <path class="cls-110" d="M94.34,256.31c2,4.35,3.31,8.94,5.54,13.19,3.22,6.14,6.79,11.95,12.35,16.33,1.39,1.1,1.15,3.06,1.28,4.68.61,7.5,1.88,14.92,2.75,22.38,1,8.3,3,16.41,3.49,24.81.44,7.93.53,15.73-1.3,23.47-.32,1.35.23,1.44,1.21,1.43a7,7,0,0,1-7.69,1.5,84,84,0,0,0,2-22A151.8,151.8,0,0,0,107.78,306c-3.55-12-8.67-23.48-11.12-35.81C95.75,265.57,94.63,261,94.34,256.31Z"/>
      <path class="cls-142" d="M111.51,372.24c-2.64,2.23-3.45,5.31-4,8.38-.67,3.81-1,4.22-4.79,3.68-.49-.07-1-.29-1.46-.38-4.77-.79-4.77-.78-2.6-5.24s4.26-9,8.49-12c1.62-1.14,3.18-1.88,5.38-1.24a7.89,7.89,0,0,0,6.75-1.19c1.55-1.06,2.47-.47,3.46,1,3.49,5.13,3.62,10.88,3.43,16.73,0,1-.5,1.26-1.4,1.38a103.14,103.14,0,0,1-11.5,1c-1.56,0-1.8-.73-1.78-2C111.55,379,111.51,375.61,111.51,372.24Z"/>
      <path class="cls-107" d="M95.83,147.48A3,3,0,0,0,97.34,149a31.9,31.9,0,0,1,2,2.62,1.14,1.14,0,0,0,0,.33c.07.7.87,1.37.07,2.1-2.74,4.11-5.12,8.47-8.94,11.76-4.9,4.22-10.43,6.82-17,6.42-3.69-.22-7.18-1.16-8.92-5a1.21,1.21,0,0,1,.52-.37,2.72,2.72,0,0,1,1.3,0A4.31,4.31,0,0,1,67,167a4.1,4.1,0,0,0,2.45-.1,4.91,4.91,0,0,0,1.42-.59C71.53,165.84,72,165,73,165a2.33,2.33,0,0,1,.87.45,4.12,4.12,0,0,0,2.26,1.12,6.62,6.62,0,0,0,3.64,0,5.41,5.41,0,0,0,2.68-1.17A19.57,19.57,0,0,1,85,163.74a6.27,6.27,0,0,0,2.37-1.8c.46-.46.82-1,1.26-1.51a4.84,4.84,0,0,0,1.54-1.58,3.5,3.5,0,0,1,.49-.81c.83-.22,1-1,1.42-1.6s.76-1.32,1.06-2c.24-.49.12-1.12.7-1.47-.79.27-.47,1-.8,1.5a15.43,15.43,0,0,1-.94,1.86c-.45.54-.54,1.38-1.36,1.6a18.18,18.18,0,0,1-11.37,7.16c-2.26.43-4.29-.19-6.37-.85a2.26,2.26,0,0,1-.67-.39,5.06,5.06,0,0,1-1.07-2.07,8.51,8.51,0,0,1-.47-4.63c1.22-1.39,3.11-1.2,4.6-1.94a17.77,17.77,0,0,0,12.79-11.42c1.31-.7,2.26.29,3.24.8A28.16,28.16,0,0,1,95.83,147.48Z"/>
      <path class="cls-166" d="M94.89,164.76c-1.11,1.2-1.78,2.85-3.53,3.37,1.93-3.46,4.77-6.27,6.93-9.56.51-.14.74,0,.6.57Z"/>
      <path class="cls-167" d="M99.37,154.05c.41-.71-.71-1.38-.07-2.1.85.44.93,1.31,1.18,2.09,0,1-.09,2-.13,3-.46.06-.72-.05-.53-.58C99.63,155.68,100.16,154.74,99.37,154.05Z"/>
      <path class="cls-168" d="M99.83,156.48l.52.58-1.46,2.08-.6-.57Z"/>
      <path class="cls-169" d="M61,166.14a3.07,3.07,0,0,0-.07-.42.92.92,0,0,1,.67-.71,1.54,1.54,0,0,1,1.63,1.06.91.91,0,0,1-.23.63Z"/>
      <path class="cls-170" d="M63,166.7l0-.58c1.06-.35,1.87-.24,2,1.11l-.22,0-.22,0C63.92,167.27,63.34,167.29,63,166.7Z"/>
      <path class="cls-171" d="M61.47,165.13l-.58.59-1.48-1.36c0-.26,0-.51.05-.77.74-.18,1.18.34,1.7.69A.8.8,0,0,1,61.47,165.13Z"/>
      <path class="cls-172" d="M59,138.9c.83-.32,1.8-.3,2.46-1,.85-.65,1.71.16,2.56,0,.62.85.53,1.92.89,2.86a7,7,0,0,0,6,4.61,8,8,0,0,0,7-4.17,3.43,3.43,0,0,0,.09-2.44.57.57,0,0,1,.35-.56,3,3,0,0,1,2.36.72l2.55,0c.37,1,1.83.71,2.2,1.75A10.12,10.12,0,0,1,81,149c-4.86,3.62-10,5.5-15.78,1.83a14.18,14.18,0,0,1-6.64-9.1C58.36,140.76,58.1,139.75,59,138.9Z"/>
      <path class="cls-107" d="M87.17,114.57l.1-.72a16.09,16.09,0,0,1,4-3.58,14.36,14.36,0,0,1,3.21-1,14.72,14.72,0,0,1,3.44.23,7.75,7.75,0,0,1,1.89.44.29.29,0,0,0,.4.09,31.42,31.42,0,0,1,2.63,2.1.38.38,0,0,0,.1.39,4.65,4.65,0,0,1,1.37,1.49,10.56,10.56,0,0,1,1.3,3.19,13.87,13.87,0,0,1,.28,1.4c0,.36,0,.73,0,1.09a7.26,7.26,0,0,1-.28,1.79,8.78,8.78,0,0,1-1,2.66,10,10,0,0,1-3.66,3.77,9.27,9.27,0,0,0-1.62.85,3.53,3.53,0,0,1-2.22.47c-1.68-.14-3.43.41-5-.56a5.31,5.31,0,0,1-1.89-1.17,5.94,5.94,0,0,1-2.36-2.17,8.6,8.6,0,0,1-1.45-2.57,8.5,8.5,0,0,1-.44-5.36A6,6,0,0,1,87.17,114.57Z"/>
      <path class="cls-107" d="M53.35,125.75a2.07,2.07,0,0,0-.43-.1,9.11,9.11,0,0,1-3-2.9,7.05,7.05,0,0,1-1-2,10,10,0,0,1-.43-5.82,16.32,16.32,0,0,1,1.2-2.86l2.12-2.55A6,6,0,0,1,55,108l4.37-.11c.78-.44,1.38.13,2,.36a8.9,8.9,0,0,1,3.47,3.17A6.63,6.63,0,0,1,66,114.58c.8,1.79.32,3.53-.16,5.27a18.12,18.12,0,0,1-.61,1.75,11.89,11.89,0,0,1-1.87,2.58c-1.33,0-1.51,1.51-2.49,2a5.42,5.42,0,0,1-2.55.7C56.61,126.84,54.77,127.24,53.35,125.75Z"/>
      <path class="cls-173" d="M78.14,138.39a1.8,1.8,0,0,1,.66,2.35c-1.19,3.29-5.65,5.91-9.14,5.16A7.6,7.6,0,0,1,64,137.85c.34-.57.67,0,1,0a3.27,3.27,0,0,1,2.68-.76h3.67c.9-.1,1.85.25,2.73-.23a1,1,0,0,1,1,.45C76,137.9,77.36,137.37,78.14,138.39Z"/>
      <path class="cls-174" d="M105.29,104.54c-3.64-2-7.12-4.23-11.86-3.49a4.78,4.78,0,0,1,4.74-2.56C101.86,98.75,103.76,101.46,105.29,104.54Z"/>
      <path class="cls-174" d="M60.43,98.89l-1,.87a15.49,15.49,0,0,0-10.58,6.34C49.41,100,54.08,97.16,60.43,98.89Z"/>
      <path class="cls-175" d="M85.13,140.44c-.78-.33-1.84-.31-1.9-1.53,1.31.47,2.59,1,3.92,1.39a2.07,2.07,0,0,1,1.65,2.56c.33.6-.41.83-.45,1.3-1.76,6.47-6.5,9.68-12.52,11.5a.56.56,0,0,1-.85-.39c.54-1.23,1.79-1.41,2.84-1.84a16.8,16.8,0,0,0,7.8-6.47C87.55,144,87.43,143,85.13,140.44Z"/>
      <path class="cls-176" d="M56.89,138.41c-.41.55-1,.45-1.56.43,1.53-4.25,4.27-7.71,7.12-11.11a1.07,1.07,0,0,1,.5-.44l1.22-.83.31.25c-2.38,3.3-4.77,6.59-7.13,9.9C57,137.13,55.92,137.53,56.89,138.41Z"/>
      <path class="cls-177" d="M63,127.29l-.5.44c-4,.27-8-.51-12.15-.56.85-1.07,2.7.4,3.05-1.42a18,18,0,0,0,5.57.55c.59.4,1.37-.18,1.93.39C61.39,127.44,62.23,127.15,63,127.29Z"/>
      <path class="cls-178" d="M91.76,128.33l5.62.51a2,2,0,0,0,2.06-.27.42.42,0,0,1,.5.25c0,.32,1.09.94,0,.9-3.56-.15-7.07.83-10.69.43.52-1.24,2-.52,2.54-1.44-.18-.07-.24-.16-.19-.24S91.71,128.33,91.76,128.33Z"/>
      <path class="cls-179" d="M88.35,144.16l.45-1.3c2.57,1.19,5.39,2,7,4.62-2-.13-3.11-2.1-5-2.64C90,144.59,89.38,143.7,88.35,144.16Z"/>
      <path class="cls-180" d="M88.23,135.37a32,32,0,0,1-1.32-7.65,11.47,11.47,0,0,1,1.8,6.11C88.27,134.25,88.74,135,88.23,135.37Z"/>
      <path class="cls-181" d="M65.56,120.14c0-1.85,1-3.71,0-5.57.21-.3.34-.77.88-.48.55,2.07.76,4.11-.38,6.07C65.88,120.41,65.72,120.4,65.56,120.14Z"/>
      <path class="cls-182" d="M86.32,117.28a14.67,14.67,0,0,0,.45,5.82c.28.52,0,.59-.43.53a9.94,9.94,0,0,1-.59-7C86.29,116.54,86.53,116.71,86.32,117.28Z"/>
      <path class="cls-183" d="M100.83,127.7l3.52-3.54c.16-.22.32-.2.47,0-.39,2-1.95,3-3.47,4C101.15,128,100.84,128,100.83,127.7Z"/>
      <path class="cls-184" d="M91.41,110.59c-1.59.83-2.41,2.62-4.14,3.26.5-1.9,2-2.86,3.57-3.72C91.08,110.22,91.36,110.25,91.41,110.59Z"/>
      <path class="cls-185" d="M48.91,114.61c0,2.15-.49,4.34.47,6.42.23.54,0,.66-.5.56a7.27,7.27,0,0,1-.66-2.9,5.65,5.65,0,0,1,0-3.13l.15-1A.3.3,0,0,1,48.91,114.61Z"/>
      <path class="cls-186" d="M64.53,111.53l-3.14-2.9a.42.42,0,0,1,.06-.65c1.66.45,2.6,1.75,3.55,3C65.22,111.54,65,111.61,64.53,111.53Z"/>
      <path class="cls-187" d="M64.53,111.53,65,111a5.3,5.3,0,0,1,1.44,3.07l-.88.48C65.56,113.44,64.82,112.56,64.53,111.53Z"/>
      <path class="cls-188" d="M55,108c-1,.56-1.88,1.4-3.11,1.49C52.39,107.92,53.47,107.51,55,108Z"/>
      <path class="cls-189" d="M91.41,110.59l-.57-.46a6.47,6.47,0,0,1,3-1c.22.13.52.16.61.47Z"/>
      <path class="cls-190" d="M102.89,112.15c-1.1-.42-2.32-.68-2.63-2.1C101.54,110.26,102.64,110.67,102.89,112.15Z"/>
      <path class="cls-191" d="M105.4,117.18,104,114.05c.11-.24.16-.53.5-.55a6.14,6.14,0,0,1,1.36,2.66C105.58,116.44,105.83,117,105.4,117.18Z"/>
      <path class="cls-185" d="M94.46,109.58l-.61-.47a11.74,11.74,0,0,1,4,0,.48.48,0,0,1,0,.8Z"/>
      <path class="cls-192" d="M99.35,151.62c-1.3-.39-1.71-1.46-2-2.62A2.72,2.72,0,0,1,99.35,151.62Z"/>
      <path class="cls-193" d="M88.19,125.21l2,2a.79.79,0,0,1-.45.46,4.93,4.93,0,0,1-2.07-2C87.47,125.21,87.75,125.14,88.19,125.21Z"/>
      <path class="cls-194" d="M86.32,117.28l-.57-.66c.16-.91.21-1.88,1.42-2.05A5.34,5.34,0,0,1,86.32,117.28Z"/>
      <path class="cls-195" d="M105.55,119.65V118.6c.25-.31,0-.85.47-1.08a3.69,3.69,0,0,1,0,3.69C105.46,120.8,105.89,120.12,105.55,119.65Z"/>
      <path class="cls-187" d="M104.82,124.17h-.47l1-2.64c.32.08.35.4.52.6A2.14,2.14,0,0,1,104.82,124.17Z"/>
      <path class="cls-196" d="M88.19,125.21l-.47.54-1.38-2.12.43-.53Z"/>
      <path class="cls-197" d="M61.45,108l-.06.65-2-.72-.45-.54v-.26A4,4,0,0,1,61.45,108Z"/>
      <path class="cls-198" d="M63.39,124.18a6.38,6.38,0,0,1,1.55-2.61c.31.05.35.32.44.55A3.19,3.19,0,0,1,63.39,124.18Z"/>
      <path class="cls-199" d="M71.54,137.32h-4c-.17-.1-.23-.2-.17-.3s.11-.16.17-.16l4,0q.27.14.18.27T71.54,137.32Z"/>
      <path class="cls-185" d="M48.91,114.61l-.51,0c.34-.9.26-2,1.36-2.52A4.56,4.56,0,0,1,48.91,114.61Z"/>
      <path class="cls-200" d="M67.52,136.87a3.53,3.53,0,0,0,0,.46l-2.55.53C65.32,136.21,66.62,137.06,67.52,136.87Z"/>
      <path class="cls-201" d="M88.23,135.37c0-.55-.09-1.16.49-1.54v3.51c-.14.24-.29.24-.44,0Z"/>
      <path class="cls-185" d="M58.91,107.11v.26H55.32A6.53,6.53,0,0,1,58.91,107.11Z"/>
      <path class="cls-202" d="M78.14,138.39c-1-.5-2.21-.21-3-1.07a5.34,5.34,0,0,1,3,.56c.17.09.23.18.17.27s-.12.13-.18.13Z"/>
      <path class="cls-13" d="M48.25,115.56l0,3.13-.41-.08C48,117.6,47.49,116.49,48.25,115.56Z"/>
      <path class="cls-185" d="M89.79,127.7l.45-.46,1.52,1.09a.82.82,0,0,0,0,.38C91,128.71,90.41,128.12,89.79,127.7Z"/>
      <path class="cls-203" d="M97.86,109.92v-.8a2.27,2.27,0,0,1,2,.84Z"/>
      <path class="cls-204" d="M78.12,138.28c0-.13,0-.27,0-.4,1,0,2.05-.22,2.56,1Z"/>
      <path class="cls-185" d="M65.38,122.12l-.44-.55a1.86,1.86,0,0,1,.62-1.43l.5,0A3,3,0,0,1,65.38,122.12Z"/>
      <path class="cls-185" d="M100.83,127.7l.52.46-1.41.66-.56-.13v-.35Z"/>
      <path class="cls-203" d="M106,117.52c-.16.36-.32.72-.47,1.08l-.15-1.42c.16-.34.32-.68.47-1Z"/>
      <path class="cls-205" d="M71.54,137.32a2.94,2.94,0,0,0,0-.42l2.51,0C73.34,137.7,72.39,137.23,71.54,137.32Z"/>
      <path class="cls-206" d="M88.28,137.34h.44v2l-.44,0Z"/>
      <path class="cls-185" d="M105.88,122.12l-.52-.6.19-1.87c.5.42.34,1,.44,1.56C106,121.51,105.92,121.82,105.88,122.12Z"/>
      <path class="cls-207" d="M60.85,126.69c-.66,0-1.39.27-1.93-.39.65-.24,1.29-.58,2-.14C60.88,126.33,60.87,126.51,60.85,126.69Z"/>
      <path class="cls-198" d="M104.51,113.5l-.5.55-1-1.51C103.78,112.42,104.18,112.9,104.51,113.5Z"/>
      <path class="cls-208" d="M69,70.61c-1.56,1-3.43.17-5,.88,0-1.09-.4-2.31,1-3C66.41,69,67.48,70.3,69,70.61Z"/>
      <path class="cls-209" d="M37.67,133.81a10.11,10.11,0,0,1-3,3c.35-1.72,1.83-2.48,3-3.49.15.11.2.23.15.34S37.72,133.81,37.67,133.81Z"/>
      <path class="cls-210" d="M45.25,119.63l-2.6,3.54c-.16.2-.31.21-.46,0C42.65,121.5,43.35,120.05,45.25,119.63Z"/>
      <path class="cls-211" d="M40.66,126.72l-1.53,4.53c-.44.11-.68,0-.47-.49l1.54-4C40.35,126.48,40.5,126.48,40.66,126.72Z"/>
      <path class="cls-212" d="M40.66,126.72H40.2a5.82,5.82,0,0,1,2-3.55h.46Z"/>
      <path class="cls-213" d="M38.66,130.76l.47.49a6.43,6.43,0,0,1-1.46,2.56v-.52A5.42,5.42,0,0,1,38.66,130.76Z"/>
      <path class="cls-214" d="M31.08,138.8c0-.16,0-.32,0-.48a2.63,2.63,0,0,1,2.45-.92A6.36,6.36,0,0,1,31.08,138.8Z"/>
      <path class="cls-215" d="M61.47,165.13l-.59-.54c-.18-.46-.8-.79-.46-1.42a45.13,45.13,0,0,0,4.41,1.65c2.37.62,4.78.9,6.73-1.15a.63.63,0,0,1,1,0l.09-.09c.66.58,1.12,1.21.41,2.07l-2,1.06a12.51,12.51,0,0,1-4.51.47l-1.58,0a3,3,0,0,0-2-1.11Z"/>
      <path class="cls-216" d="M75.1,155.07l.73.59c-1.45.94-3.19.91-4.76,1.47-.73.56.16,1.57-.6,2.12A2.75,2.75,0,0,0,68,156.2a13.92,13.92,0,0,1-6.69-3.62,1.08,1.08,0,0,1,.65-.41,3.33,3.33,0,0,1,2.11.66c3.13,1.72,6.31,3.2,10,2A1.2,1.2,0,0,1,75.1,155.07Z"/>
      <path class="cls-217" d="M56.79,157.39c.87-1.58-3.19-3.34.67-5.07C56.47,154.16,57.44,155.81,56.79,157.39Z"/>
      <path class="cls-218" d="M70.47,159.25c.4-.65-.47-1.66.6-2.12a12,12,0,0,0,.55,4.94c.25.55,0,.62-.49.56A7.06,7.06,0,0,1,70.47,159.25Z"/>
      <path class="cls-219" d="M62,152.53l-.63.05a8.88,8.88,0,0,1-3-3l.53-.58C60.39,149.78,61.82,150.59,62,152.53Z"/>
      <path class="cls-220" d="M59,161.91a4.33,4.33,0,0,1-1.93-4.28A12.2,12.2,0,0,1,59,161.91Z"/>
      <path class="cls-221" d="M60.42,163.17c.22.46.68.83.46,1.42l-1.42-1c0-.35-.64-.63-.21-1C60.05,161.89,59.86,163.31,60.42,163.17Z"/>
      <path class="cls-222" d="M71.13,162.63l.49-.56.9,1.6h-1Z"/>
      <path class="cls-223" d="M50.3,122.67l2.62,3c-1.75.09-2.21-1.47-3.14-2.44C49.59,122.67,49.83,122.56,50.3,122.67Z"/>
      <path class="cls-224" d="M50.3,122.67l-.52.54a2.92,2.92,0,0,1-.9-1.62l.5-.56Z"/>
      <path class="cls-225" d="M62,152.53,58.9,149a17.79,17.79,0,0,1-2.64-5.6c-.79-3.64-.86-3.62,2.69-4.5.08,8,6,12.55,12.26,13.44,5.5.78,12.54-5.33,13.58-11a6.32,6.32,0,0,1,.34-.95c3,1.34,3.24,1.69,2.1,4.69a15.68,15.68,0,0,1-7.94,8.32,40.76,40.76,0,0,1-4.19,1.62c-3.65,1.85-7,.56-10.27-1.06C63.86,153.54,63.12,152.62,62,152.53Z"/>
      <path class="cls-10" d="M73,165.65c-.14-.69-.27-1.38-.41-2.07,6.54,2.34,11.82,0,16.53-4.47.54-.51,1.12-1,1.68-1.48a.53.53,0,0,1-.06.77c.46.27.31.51,0,.75a24.45,24.45,0,0,0-2,1.53c.47.83.09,1.26-.71,1.47-1.21.28-1.77,1.46-2.79,2a6.56,6.56,0,0,1-2.56,1.55c-.83.7-1.93.79-2.86,1.25a38.31,38.31,0,0,1-4,0,27,27,0,0,0-2.54-1.23l-.14,0Z"/>
      <path class="cls-222" d="M92.75,154.54c-.31-2.7-.31-2.7,2.81-1.56-1,.38-1.93.65-2.29,1.57A.32.32,0,0,1,92.75,154.54Z"/>
      <path class="cls-203" d="M75.6,166.67l4.55.15,0,.27a8.1,8.1,0,0,1-4.5,0c-.15-.08-.2-.17-.16-.27S75.56,166.67,75.6,166.67Z"/>
      <path class="cls-226" d="M66.53,167.18c1.42-.89,3-.32,4.51-.47a1.54,1.54,0,0,1-1.43.57,4.65,4.65,0,0,1-3.08-.09Z"/>
      <path class="cls-227" d="M85.25,164.14c.66-1,1.37-2,2.79-2C87.23,163,86.64,164.13,85.25,164.14Z"/>
      <path class="cls-14" d="M80.13,167.09a.36.36,0,0,1,0-.27c.62-.88,1.63-.9,2.54-1.13C82.21,166.85,81.12,166.87,80.13,167.09Z"/>
      <path class="cls-228" d="M92.75,154.54h.52a2.77,2.77,0,0,1-1,2.08.86.86,0,0,1-.44-.53C92.08,155.53,92.18,154.91,92.75,154.54Z"/>
      <path class="cls-229" d="M75.6,166.67a.58.58,0,0,1,0,.41,3.59,3.59,0,0,1-2.35-1.38A2.43,2.43,0,0,1,75.6,166.67Z"/>
      <path class="cls-215" d="M66.53,167.19l3.08.09A2.49,2.49,0,0,1,66.53,167.19Z"/>
      <path class="cls-230" d="M91.88,156.1l.44.53a2.19,2.19,0,0,1-1.55,1.77c0-.26,0-.51,0-.77Z"/>
      <path class="cls-231" d="M88.75,160.68c.45-.79.86-1.62,2-1.53C90.26,159.9,90,160.86,88.75,160.68Z"/>
      <path class="cls-232" d="M101.62,115.67c1.65,3.35,1.42,6-.7,8.11a6.32,6.32,0,0,1-7,1.17,6.21,6.21,0,0,1-3.11-7.68c1.09-3.18,4.08-4.54,8-3.66.12.46-.17.68-.52.86-1.34.42-2.84.11-4.1,1A4.62,4.62,0,0,0,92.26,121a4.67,4.67,0,0,0,5,2.93,4.82,4.82,0,0,0,3.94-4.83,10.36,10.36,0,0,0-.29-1.74C100.93,116.67,100.78,116,101.62,115.67Z"/>
      <path class="cls-233" d="M101.62,115.67l-.38,1.87A1.76,1.76,0,0,1,99,118.89a2.34,2.34,0,0,1-2-1.93,2,2,0,0,1,1.3-2.6,4.76,4.76,0,0,1,2.09.06A2.17,2.17,0,0,0,101.62,115.67Z"/>
      <path class="cls-234" d="M99.38,128.34a2,2,0,0,1,0,.35c-.6.82-1.28.73-2,.15Z"/>
      <path class="cls-235" d="M100.29,114.42l-2,.13c-.14-.16-.17-.27-.08-.34a.41.41,0,0,1,.23-.06l.34-.54C99.5,113.55,99.81,114.14,100.29,114.42Z"/>
      <path class="cls-236" d="M63,118.83a5.19,5.19,0,0,1-5.87,4.31,5.9,5.9,0,0,1-4.7-6.45c.57-4.18,3.53-6.09,8-5.15.14.46-.14.68-.48.88-.87.35-1.82.23-2.71.52a4.33,4.33,0,0,0-3.17,4.33c.11,1.91.91,3.46,2.86,4,2.13.6,3.48-.55,4.57-2.24.37-.58.35-1.84,1.65-1.31A2.07,2.07,0,0,1,63,118.83Z"/>
      <path class="cls-237" d="M60,112.11c.33-.06.55-.18.4-.57,1.17.47,2.24,1,2,2.58a1,1,0,0,1,.06,1.14,2.19,2.19,0,0,1-2.69,1.2,2.07,2.07,0,0,1-1.6-2A2.27,2.27,0,0,1,60,112.11Z"/>
      <path class="cls-238" d="M62.38,115l.09-.83c.9,1.48,1.71,3,.55,4.71l-.09-1.23A2.18,2.18,0,0,1,62.38,115Z"/>
      <path class="cls-239" d="M98.49,114.15l-.15.4c-1.27.91-1.49,2.09-.45,3.2s2.28.66,3.35-.21c1.18,2.37.68,4.35-1.55,6.06a4.93,4.93,0,0,1-6.62-.41c-2-2-2.42-4.5-1-6.57A6,6,0,0,1,98.49,114.15Z"/>
      <path class="cls-239" d="M62.38,115c.19.89.37,1.77.55,2.65-.21.45-.44.88-.64,1.33-1.1,2.44-3.23,3.69-5.4,3.16a5.13,5.13,0,0,1-3.53-5.22,5.23,5.23,0,0,1,4.4-4.78,15.66,15.66,0,0,1,2.27,0c-1.23,1-2,2.19-.73,3.54S61.52,116,62.38,115Z"/>
    </g>
  </g>
</svg>
