<svg id="Layer_1" data-name="Layer 1" xmlns="http://www.w3.org/2000/svg" width="277.31" height="197.55" viewBox="0 0 277.31 197.55">
  <defs>
    <style>
      .cls-1 {
        fill: #ff0;
      }

      .cls-2 {
        opacity: 0.5;
      }

      .cls-3 {
        fill: none;
      }

      .cls-4 {
        fill: #dadff2;
      }

      .cls-5 {
        fill: #bec2ce;
      }

      .cls-6 {
        fill: #edc600;
      }

      .cls-7 {
        fill: #9da0a8;
      }

      .cls-8 {
        fill: #fff800;
      }
    </style>
  </defs>
  <g>
    <path class="cls-1" d="M6.2,23,9.34,33.36c0,.12.08.25.13.37l6.47,17.11a6,6,0,0,0,3.14,3.34L29.4,58.84,33.16,69.5a6,6,0,0,0,5.66,4,5.8,5.8,0,0,0,1.36-.16l1.76-.41,3.88,1.75.7,1.4a6,6,0,0,0,7.77,2.81l10.05-4.4L68,76.16l.5,1.73a6,6,0,0,0,8.19,3.84l9.45-4.17L89,78.86l2.38,8.88a6,6,0,0,0,5.79,4.45,6.1,6.1,0,0,0,2.37-.49l2.93-1.26L106,92l3.17,10.4a6,6,0,0,0,3.45,3.79c2.76,1.14,5.91,2.49,8.14,3.5l-2,4.39a6,6,0,0,0,3,7.94l14.12,6.37c7.77,3.5,8.4,6.1,8.92,8.18.21.87.45,4.63.05,13.17a39.21,39.21,0,0,0,22.92,40.2,39.31,39.31,0,0,0,51-17.63,39.32,39.32,0,0,0,48-21.24c.27-.61.53-1.23.79-1.9s.6-1.2.86-1.76a39.39,39.39,0,0,0-15.94-50.09,39.38,39.38,0,0,0-21.11-48.38,39,39,0,0,0-16.14-3.48,39.59,39.59,0,0,0-17.47,4.09c-1.88.76-8.13,3.79-18.64,13.56-2.85,2.65-5.89,4-9.05,4a12.43,12.43,0,0,1-5.82-1.48h0a6.53,6.53,0,0,0-.82-.45L29.29,4.66a6.1,6.1,0,0,0-2.47-.53,6,6,0,0,0-2.45.53L15,8.84c-.14.06-.29.11-.43.18l-4,1.79a6,6,0,0,0-3,3L6,17.47a6,6,0,0,0-.14,4.59Z"/>
    <g>
      <g class="cls-2">
        <path d="M171.82,189c-1-.35-2.09-.76-3.12-1.22C169.73,188.28,170.77,188.69,171.82,189Z"/>
        <path d="M211.54,173.54c.11-.2.24-.38.35-.59s.06-.19.1-.28C211.84,173,211.7,173.26,211.54,173.54Z"/>
        <path d="M212.55,171.57h0c.07-.15.14-.29.2-.44C212.71,171.29,212.62,171.43,212.55,171.57Z"/>
      </g>
      <g>
        <circle class="cls-3" cx="228.62" cy="130.19" r="12.9" transform="translate(-6.12 248.99) rotate(-56.5)"/>
        <circle class="cls-3" cx="228.62" cy="130.19" r="12.9" transform="translate(-6.12 248.99) rotate(-56.5)"/>
        <path class="cls-4" d="M200.17,55h0s-5.82,2.08-17,12.46-22.24,3.14-22.24,3.14L26.82,10.13l-9.75,4.36h0l-4,1.79.35,1.12L157.37,82.31,154,89.85,16.73,28l1.83,4.83L19.38,35,23.2,45.06l12.66,5.7,4.61,13.09L44.2,63l7.68,3.46,1.65,3.3L66,64.27l8.66,3.91,1.26,4.4,11.89-5.25,7.92,3.57,3.11,11.63,5.36-2.3L112.55,84l4,13s10.19,4.2,11.84,5.34a2.32,2.32,0,0,1,1,2.72l-3.54,7.84L140,119.25c9.31,4.2,11.27,8.13,12.27,12.22.68,2.73.44,10.34.21,15.08a33.35,33.35,0,0,0-.22,4h0a33.31,33.31,0,0,0,65,10.28c.53.27,1.07.54,1.62.78a33.32,33.32,0,1,0,27.41-60.74c-.51-.23-1-.45-1.54-.65.29-.57.57-1.14.84-1.73A33.32,33.32,0,0,0,200.17,55Zm33.67,63.52A12.9,12.9,0,1,1,216.78,125,12.89,12.89,0,0,1,233.84,118.55Z"/>
        <g>
          <polygon class="cls-5" points="157.37 82.31 13.53 17.43 16.73 27.95 153.97 89.85 157.37 82.31"/>
          <path class="cls-6" d="M215.57,164.48c-.16.49-.33,1-.52,1.45.24-.45.47-.9.69-1.37Z"/>
          <path class="cls-7" d="M261.27,148.59c.28-.61.53-1.23.77-1.85a33.33,33.33,0,0,1-43.2,14.86c-.55-.24-1.09-.51-1.62-.78a33.65,33.65,0,0,1-1.28,3.31c-.07.14-.14.29-.2.43.47.24,1,.48,1.45.7A33.32,33.32,0,0,0,261.27,148.59Z"/>
          <path class="cls-7" d="M170.21,184.46a33.33,33.33,0,0,0,44.08-16.68c.27-.61.53-1.23.76-1.85a33.32,33.32,0,0,1-62.81-15.39h0a33.35,33.35,0,0,1,.22-4c.23-4.74.47-12.35-.21-15.08-1-4.09-3-8-12.27-12.22l-14.13-6.37-1.65,3.66,14.13,6.37c9.31,4.2,11.27,8.13,12.27,12.22.68,2.73.44,10.34.21,15.08a31.39,31.39,0,0,0-.22,4h0A33.33,33.33,0,0,0,170.21,184.46Z"/>
          <path class="cls-7" d="M127.74,108.7l1.65-3.66a2.32,2.32,0,0,0-1-2.72c-1.65-1.14-11.84-5.34-11.84-5.34l-4-13-8.33-3.75-5.36,2.3L95.75,70.9l-7.92-3.57L75.94,72.58l-1.26-4.4L66,64.27,53.53,69.74l-1.65-3.3L44.2,63l-3.73.87L35.86,50.76,23.2,45.06,19.38,35l-.82-2.17L16.73,28,14,19l-.06,0-.85-2.73-1.65,3.66.44,1.16,3.2,10.52,1.83,4.83.82,2.17,3.82,10.11,12.66,5.7,4.61,13.09,3.73-.87,7.68,3.46,1.65,3.3,12.49-5.47L73,71.84l1.26,4.4L86.18,71l7.92,3.57,3.11,11.63,5.36-2.3,8.33,3.75,4,13s10.19,4.21,11.84,5.34A2.34,2.34,0,0,1,127.74,108.7Z"/>
        </g>
        <g>
          <path class="cls-7" d="M195.56,97.05h0a4.67,4.67,0,0,1,2.6,6l1.23-2.73A4.86,4.86,0,0,0,197,94h0a4.86,4.86,0,0,0-6.42,2.43l-1.23,2.72A4.67,4.67,0,0,1,195.56,97.05Z"/>
          <path class="cls-6" d="M180.5,130.45a4.67,4.67,0,0,0,6.25-2.06l.17-.37A4.87,4.87,0,0,1,180.5,130.45Z"/>
          <path class="cls-6" d="M178.07,124l-.17.38a4.67,4.67,0,0,0,2.6,6A4.87,4.87,0,0,1,178.07,124Z"/>
          <path class="cls-5" d="M186.92,128l11.24-24.92a4.67,4.67,0,0,0-2.6-6h0a4.67,4.67,0,0,0-6.25,2L178.07,124a4.87,4.87,0,0,0,2.43,6.43h0A4.87,4.87,0,0,0,186.92,128Z"/>
        </g>
        <polygon class="cls-7" points="155.6 82.98 152.75 89.3 153.97 89.85 157.37 82.31 13.44 17.39 13.97 19.1 155.6 82.98"/>
        <path class="cls-7" d="M233.28,119.86A12.88,12.88,0,0,1,240,136.19c.12-.22.24-.46.35-.7a12.9,12.9,0,0,0-23.52-10.6q-.17.36-.3.72A12.89,12.89,0,0,1,233.28,119.86Z"/>
      </g>
      <g>
        <path class="cls-8" d="M175,182c-1-.35-2.09-.76-3.12-1.22C172.89,181.26,173.93,181.67,175,182Z"/>
        <path class="cls-8" d="M214.71,166.52c.11-.2.24-.38.34-.59a2.31,2.31,0,0,0,.1-.28C215,165.94,214.86,166.24,214.71,166.52Z"/>
        <path class="cls-8" d="M215.72,164.55h0c.06-.14.13-.29.2-.43Z"/>
      </g>
    </g>
  </g>
</svg>
