<svg id="Layer_1" data-name="Layer 1" xmlns="http://www.w3.org/2000/svg" width="377.87" height="207.95" viewBox="0 0 377.87 207.95">
  <defs>
    <style>
      .cls-1 {
        fill: #ff0;
      }

      .cls-2 {
        fill: #898e90;
      }

      .cls-3 {
        fill: #5a5f5f;
      }

      .cls-4, .cls-9 {
        fill: #bbbab9;
      }

      .cls-11, .cls-5 {
        opacity: 0.4;
      }

      .cls-11, .cls-6 {
        fill: #fff;
      }

      .cls-7 {
        fill: #a39fa2;
      }

      .cls-10, .cls-8, .cls-9 {
        opacity: 0.6;
      }

      .cls-10, .cls-11, .cls-9 {
        isolation: isolate;
      }

      .cls-10 {
        fill: #aaa9a8;
      }
    </style>
  </defs>
  <g>
    <path class="cls-1" d="M150.71,46.48l.25,0,28.44,2.3A25.2,25.2,0,0,0,193,52.74c12.77,0,23.16-9.21,23.16-20.54S205.8,11.66,193,11.66a24.44,24.44,0,0,0-17.4,7l-24.56,2.58c-1.29.16-2.5.29-3.64.41l-1,.11a21,21,0,0,0-27.77,0l-.72-.08c-1.11-.12-2.31-.24-3.57-.4L89.82,18.64a24.47,24.47,0,0,0-17.4-7c-12.76,0-23.15,9.22-23.15,20.54S59.66,52.74,72.42,52.74a25.18,25.18,0,0,0,13.63-3.93l28.44-2.3.25,0,2-.25V72.7A26.86,26.86,0,0,0,99,83.2,37.65,37.65,0,0,0,86.43,93.83h-.55l-1.92,0c-10.42.29-30.36,2.79-46.82,16.22-10.42,8.51-22.85,24.36-22.85,51.52v17.62A10,10,0,0,0,11.66,186c0,5.7,4.9,10.34,10.91,10.34H67.8c6,0,10.91-4.64,10.91-10.34a10.14,10.14,0,0,0-4-8V161.6c0-5.28,1.07-9.29,2.86-10.76a13,13,0,0,1,6.14-2.06c6.5,12,20.09,19.75,35.14,19.75h27.87c15.09,0,28.71-7.83,35.19-19.86H347.42a11.09,11.09,0,0,0,7.88,3.18c6,0,10.91-4.64,10.91-10.34v-40c0-5.7-4.9-10.34-10.91-10.34a11.19,11.19,0,0,0-7.37,2.72H179.1A37.49,37.49,0,0,0,167.94,84c-4-6.13-11.1-10.34-19.17-11.43V46.24Z"/>
    <g>
      <g>
        <rect class="cls-2" x="122.78" y="35.5" width="19.98" height="59.56"/>
        <rect class="cls-3" x="122.78" y="35.5" width="9.18" height="59.56"/>
        <path class="cls-4" d="M122.78,43.49v-8h20v7.83C137.8,47.79,127.85,48.22,122.78,43.49Z"/>
        <rect class="cls-4" x="122.78" y="76.45" width="19.98" height="18.61"/>
        <g>
          <path class="cls-3" d="M137.58,33.44c0,5.53,3.7,5.84,13.86,7.09l36.11,2.92c7.76,0,14.06-4.48,14.06-10h0c0-5.53-6.3-10-14.06-10l-35.73,3.75c-8.78,1.11-14.24.73-14.24,6.26Z"/>
          <path class="cls-4" d="M176.3,24.61l11.25-1.18c7.76,0,14.06,4.48,14.06,10s-6.3,10-14.06,10l-9.42-.76C173.22,37.9,172.23,30,176.3,24.61Z"/>
          <path class="cls-4" d="M145.91,27.85c2,3.84,2.36,8.21.33,12-6.25-.9-8.66-2-8.66-6.42C137.58,29.29,140.66,28.47,145.91,27.85Z"/>
          <path class="cls-3" d="M175.87,32.2c0,8,7.68,14.54,17.16,14.54s17.16-6.5,17.16-14.54S202.51,17.66,193,17.66,175.87,24.17,175.87,32.2Z"/>
          <g class="cls-5">
            <path class="cls-6" d="M191.82,20.33a16.8,16.8,0,0,0-10.44,3.51A16.51,16.51,0,0,1,193,19.29c8.43,0,15.25,5.79,15.25,12.93a12,12,0,0,1-4.81,9.4,11.73,11.73,0,0,0,3.64-8.37C207.07,26.11,200.25,20.33,191.82,20.33Z"/>
          </g>
        </g>
        <g>
          <path class="cls-3" d="M127.88,33.44c0,5.53-3.71,5.84-13.87,7.09L77.9,43.45c-7.76,0-14.05-4.48-14.05-10h0c0-5.53,6.29-10,14.05-10l35.73,3.75C122.41,28.29,127.88,27.91,127.88,33.44Z"/>
          <path class="cls-4" d="M89.15,24.61,77.9,23.43c-7.76,0-14.05,4.48-14.05,10s6.29,10,14.05,10l9.42-.76C92.23,37.9,93.22,30,89.15,24.61Z"/>
          <path class="cls-4" d="M119.54,27.85c-2,3.84-2.36,8.21-.33,12,6.25-.9,8.67-2,8.67-6.42C127.88,29.29,124.8,28.47,119.54,27.85Z"/>
          <path class="cls-3" d="M89.58,32.2c0,8-7.68,14.54-17.15,14.54S55.27,40.24,55.27,32.2,63,17.66,72.43,17.66,89.58,24.17,89.58,32.2Z"/>
        </g>
        <path class="cls-3" d="M119.22,33.75c0,6.23,6,11.29,13.31,11.29S145.85,40,145.85,33.75s-6-11.28-13.32-11.28S119.22,27.52,119.22,33.75Z"/>
        <g class="cls-5">
          <path class="cls-6" d="M131.72,24.6a13.13,13.13,0,0,0-8.19,2.76,12.91,12.91,0,0,1,9.11-3.57c6.61,0,12,4.54,12,10.14a9.47,9.47,0,0,1-3.78,7.38,9.23,9.23,0,0,0,2.86-6.57C143.69,29.14,138.33,24.6,131.72,24.6Z"/>
        </g>
        <g class="cls-5">
          <path class="cls-6" d="M71.56,20.33a16.8,16.8,0,0,0-10.44,3.51,16.47,16.47,0,0,1,11.61-4.55C81.15,19.29,88,25.08,88,32.22a12.07,12.07,0,0,1-4.81,9.4,11.78,11.78,0,0,0,3.64-8.37C86.81,26.11,80,20.33,71.56,20.33Z"/>
        </g>
      </g>
      <path class="cls-7" d="M101.11,95.06c0,9.25,9.26,16.75,20.68,16.75h22.8c11.42,0,20.68-7.5,20.68-16.75h0c0-9.25-9.26-16.76-20.68-16.76h-22.8c-11.42,0-20.68,7.51-20.68,16.76Z"/>
      <g>
        <path class="cls-4" d="M68.68,161.6v21.71H20.29V161.6c0-24.81,11.23-39.18,20.64-46.87C59.18,99.84,82.39,99.63,88.6,99.87H355.74v42.8H88L86,142.6s-7.85,0-12.27,3.6C69.56,149.61,68.68,156.46,68.68,161.6Z"/>
        <path class="cls-3" d="M68.68,161.6v21.71H20.29V161.6c0-24.81,11.23-39.18,20.64-46.87C59.18,99.84,82.39,99.63,88.6,99.87H355.74v42.8H88L86,142.6s-7.85,0-12.27,3.6C69.56,149.61,68.68,156.46,68.68,161.6Z"/>
        <g class="cls-8">
          <path class="cls-4" d="M133.89,132.44l221.84-1.3v11.53H88L86,142.6s-7.85,0-12.27,3.6c-4.18,3.41-5.06,10.25-5.06,15.4v21.71H56.93l.53-29.78C57.81,121.89,133.89,132.44,133.89,132.44Z"/>
        </g>
        <rect class="cls-9" x="20.29" y="178.97" width="48.39" height="4.34"/>
        <rect class="cls-9" x="348.02" y="99.87" width="7.71" height="42.81"/>
        <path class="cls-10" d="M88.6,99.87h93.24v42.8H88L86,142.6a20.79,20.79,0,0,0-2.61.17V99.88C85.64,99.8,87.43,99.82,88.6,99.87Z"/>
        <path class="cls-3" d="M118.82,84.36h27.87c18.3,0,33.13,13.12,33.13,29.31v19.54c0,16.19-14.83,29.32-33.13,29.32H118.82c-18.3,0-33.14-13.13-33.14-29.32V113.67C85.68,97.48,100.52,84.36,118.82,84.36Z"/>
        <path class="cls-11" d="M174.94,116.62c0-14.39-13.77-25.55-30-27.15-4.74-.46-29.69-1.7-21.33-1.7h24.25c15.93,0,28.84,11.45,28.84,25.59v17.06a23.23,23.23,0,0,1-3.35,12,22.94,22.94,0,0,0,1.59-8.39Z"/>
        <path class="cls-9" d="M90.07,131.79c0,14.45,14.18,26.16,31.67,26.16h26.65a35.9,35.9,0,0,0,19.28-5.44,33.88,33.88,0,0,1-22.62,8.25h-26c-17,0-30.87-11.51-30.87-25.7V117.92C88.2,113.58,90.07,131.79,90.07,131.79Z"/>
        <path class="cls-2" d="M355.3,145.85a4.65,4.65,0,0,0,4.91-4.34v-40a4.66,4.66,0,0,0-4.91-4.34h0a4.66,4.66,0,0,0-4.91,4.34v40A4.65,4.65,0,0,0,355.3,145.85Z"/>
        <path class="cls-3" d="M17.66,186a4.65,4.65,0,0,0,4.91,4.34H67.8A4.65,4.65,0,0,0,72.71,186h0a4.65,4.65,0,0,0-4.91-4.34H22.57A4.65,4.65,0,0,0,17.66,186Z"/>
      </g>
    </g>
  </g>
</svg>
