<svg xmlns="http://www.w3.org/2000/svg" width="388.95" height="190.62" viewBox="0 0 388.95 190.62">
  <defs>
    <style>
      .cls-1 {
        isolation: isolate;
      }

      .cls-2 {
        fill: #ff0;
      }

      .cls-3 {
        fill: #fac294;
      }

      .cls-4 {
        fill: #9d2021;
      }

      .cls-5, .cls-6 {
        fill: #ef9799;
      }

      .cls-14, .cls-18, .cls-20, .cls-6 {
        opacity: 0.5;
      }

      .cls-19, .cls-6 {
        mix-blend-mode: screen;
      }

      .cls-7 {
        fill: #fff;
      }

      .cls-8 {
        fill: #cbcac1;
      }

      .cls-9 {
        fill: #cccbc2;
      }

      .cls-11, .cls-12, .cls-18, .cls-20, .cls-9 {
        mix-blend-mode: multiply;
      }

      .cls-10 {
        fill: #e7e8da;
      }

      .cls-12, .cls-13 {
        fill: #eae8db;
      }

      .cls-14 {
        fill: #f17997;
      }

      .cls-15, .cls-18 {
        fill: #ea5f59;
      }

      .cls-16 {
        fill: none;
      }

      .cls-17, .cls-19 {
        fill: #e96774;
      }
    </style>
  </defs>
  <g class="cls-1">
    <g id="Layer_1" data-name="Layer 1">
      <g>
        <path class="cls-2" d="M261.2,17.16c-14.38-2.45-26.79-4.56-33.78-5.66a54.77,54.77,0,0,0-8.34-.67c-15.07,0-24.49,7-30.72,11.63a39.33,39.33,0,0,1-4.81,3.27c-1.76-.72-5.47-3.3-8.25-5.24A106.43,106.43,0,0,0,161,11.62a24.79,24.79,0,0,0-10.9-2.06c-9.64,0-22.94,3.28-34.68,6.48-4.71,1.28-9.64,2.69-14.41,4.05-4.39,1.26-8.81,2.52-13.19,3.73A280.62,280.62,0,0,1,51.3,30.76L35.51,32.07a5.81,5.81,0,0,0-1.22-2.52,6,6,0,0,0-7-1.69l-5,2.21c-4.34,1.4-11.37,4.51-12.46,10.23-.75,4,.84,12.05,1.56,15.34a6,6,0,0,0,5.85,4.71h.22a6,6,0,0,0,3.12-1L21.14,61l.07.2c8,21.67,39.71,93.81,111.16,112.47l.12,0c1.26.3,31.17,7.36,63.45,7.36a155.8,155.8,0,0,0,34.22-3.39c43.06-9.78,77.43-35.49,89.13-55.82,11.51-20,42.86-63.15,46.28-67.23l3.58-4.23a6,6,0,0,0,4.23,1.75,6.46,6.46,0,0,0,1.3-.14,6,6,0,0,0,4.59-7c-.07-.33-.15-.66-.25-1-1.34-4.86-4.49-13.35-10.75-16.41a6.11,6.11,0,0,0-2.64-.61,5.82,5.82,0,0,0-2.06.37,6,6,0,0,0-3.43,3.22,5.57,5.57,0,0,0-.45,1.54c-6.39-.38-19.78-1.9-47.66-6.39C294.89,22.88,277,19.84,261.2,17.16Z"/>
        <g>
          <path class="cls-3" d="M365.63,33c-.14.32,1.17,4,.6,4.67-2.51,3.07-63.74-7.41-74.05-9.14S181.05,41.42,181.05,41.42L117,21.83,77.89,34.57,25,39a50.78,50.78,0,0,0,4.61-5.6l-5.31,2.33s-8.08,2.52-8.68,5.73,1.52,12.93,1.52,12.93.94-6.57,2.89-10.44a113.34,113.34,0,0,1,6.69,15c3,8.22,32.57,89.47,107.12,109,0,0,54.78,13.08,95,3.95s73.72-32.9,85.26-53,43-63.46,46.89-68.09,8-9.35,8-9.35,3.84,1.68,4.44,4.72C373.38,46.14,370.81,35.49,365.63,33Z"/>
          <path class="cls-4" d="M27.74,41.42,22.06,43s25.77,48.39,45.85,70,75.47,46.87,146.68,37.13,86.13-30.13,99.52-47.17S361,43.63,361,43.63s-9.14-1.36-10.05-2.21S223.72,33.9,208.51,36.16s-70.6.78-85.82,0S27.74,41.42,27.74,41.42Z"/>
          <path class="cls-5" d="M50.59,70.61c7.11,4.67,14.11,9.76,21.86,13.33a145.59,145.59,0,0,0,25.06,8.58A485.3,485.3,0,0,0,149.28,103c14.83,2.07,30.33,3.44,45.25,1.1,7.46-2.1,15.32-2.48,23-3.56,8.91-1.26,17.81-2.58,26.66-4.18,16.53-3,34.43-6,49.62-13.44,8-4,15.59-9,23.9-12.37,8.59-3.53,17.25-5.68,24.89-11.28a90.12,90.12,0,0,0,15.79-15.13c.23-.28.48-.55.72-.83-2.73-.45-7.5-1.31-8.15-1.91-.91-.86-127.21-7.52-142.42-5.26s-70.6.78-85.82,0-94.95,5.26-94.95,5.26l-3.4.94C28.63,54.89,39.54,63.36,50.59,70.61Z"/>
          <g>
            <path class="cls-6" d="M244,62.07a1.71,1.71,0,0,1-2.65-.73,18.11,18.11,0,0,0-1.58-2.27c-1.16-1.52-2.87-2.23-4.2-3.54,0,0-.1,0-.07.07.74,1,1.64,1.86,2.4,2.86a20.66,20.66,0,0,1,1,2,21.27,21.27,0,0,1,1.22,1.86c1.05,2.12,2.83,1.84,4.1.07C244.31,62.24,244.21,61.94,244,62.07Z"/>
            <path class="cls-6" d="M268.56,53.57a0,0,0,0,0,0,0c4.8,2.62,6.32,7.46,7.53,12.41.07.28.46.12.49-.09C277.33,60.43,273.41,55.59,268.56,53.57Z"/>
            <path class="cls-6" d="M301.91,56.27a5.92,5.92,0,0,0-3.38-1.94,0,0,0,0,0,0,.05,7.15,7.15,0,0,1,2.84,2.32c.32.51.44,1.13.73,1.62s.64,1.11,1,1.66c.12.19.4,0,.39-.19A6.83,6.83,0,0,0,301.91,56.27Z"/>
            <path class="cls-6" d="M324,51.41a.38.38,0,0,0-.22-.24c-.14-.07-.31-.46-.41-.59a3.23,3.23,0,0,0-.95-.72,4.32,4.32,0,0,0-.53-.34c-.09,0-.4,0-.32-.17a0,0,0,1,0-.08,0s-.12.19-.06.24c.29.25.59.48.87.75s.92.89.82,1.28.26.86.46,1.11.44.06.48-.16A2.55,2.55,0,0,0,324,51.41Z"/>
            <path class="cls-6" d="M340.45,52.84A9.14,9.14,0,0,0,339,49.15s-.11,0-.09.05a11.22,11.22,0,0,1,.13,1.3,11.53,11.53,0,0,1,.36,2.54c0,1.5-.32,3-.39,4.44,0,.49.6.36.76.05A8,8,0,0,0,340.45,52.84Z"/>
            <path class="cls-6" d="M193.41,63.36c-2.64,1.14-6,2-8.21-.38,0,0-.11,0-.09.09A5.54,5.54,0,0,0,189.05,66a5.24,5.24,0,0,0,4.81-1.93C194.13,63.69,193.9,63.14,193.41,63.36Z"/>
            <path class="cls-6" d="M139.59,60.16c-.62.34-1.19.76-1.81,1.11-1.29.72-2.22.19-3.38-.35a19.67,19.67,0,0,1-4.9-3.71s-.09,0-.06.06c1.72,2.18,2.7,4.13,5.31,5.37,2.2,1,3.85-.27,5.13-2C140.05,60.4,139.9,60,139.59,60.16Z"/>
            <path class="cls-6" d="M102.92,63c-2.07-.3-2.71-1.5-4-2.94a13.45,13.45,0,0,0-5.45-3.76s0,0,0,0a13.54,13.54,0,0,1,4.39,3.82A35.71,35.71,0,0,0,100,63.11c.65.64,2.58,1.5,3.07.32C103.18,63.25,103.13,63.05,102.92,63Z"/>
            <path class="cls-6" d="M75.12,57.73a14.31,14.31,0,0,0-2.26-3.3,5.42,5.42,0,0,0-1.2-1c-.5-.34-.15-.26-.64-.46-.16-.07-.85-.29-.86-.47s-.06,0-.06,0c0,.39.45.56.72.77a10.41,10.41,0,0,1,1.45,1.59c.79.92,1.18,3,2.51,3.26A.34.34,0,0,0,75.12,57.73Z"/>
            <path class="cls-6" d="M53.81,49.72A10.59,10.59,0,0,0,52.69,49c-.41-.24-.84-.2-1.23-.43-.07,0-.15,0-.09.11.26.22.61.3.86.54a11.16,11.16,0,0,1,1.05,1.33c.42.53,1,1.77,1.79,1.57a.57.57,0,0,0,.42-.65C55.39,50.71,54.33,50.12,53.81,49.72Z"/>
            <path class="cls-6" d="M40.19,55.53c-.25-1.2-.19-2.45-.44-3.63,0-.07-.11,0-.1,0,0,1.28-.3,2.55-.23,3.85a8.14,8.14,0,0,0,1.08,3.5c.18.33.63-.07.56-.35C40.79,57.79,40.43,56.68,40.19,55.53Z"/>
          </g>
          <g>
            <g>
              <g>
                <path class="cls-7" d="M54.43,77.56s-5.22-2.56-3.56,4,8.42,24.71,14.07,26,5.31-8.16,4.65-9.82S66,83.23,64.94,82.4,54.43,77.56,54.43,77.56Z"/>
                <path class="cls-8" d="M64.78,82.3c-1.51,2.8.28,8,.74,10.76A100,100,0,0,0,68.74,106c1.59-2.52,1.29-7.15.85-8.27C68.94,96,66,83.23,64.94,82.4A.74.74,0,0,0,64.78,82.3Z"/>
                <path class="cls-7" d="M66.82,82.4S64.58,80.88,65,84.62s4.36,28.1,10,30.87,9.4,2.47,9.79-8.7A59.42,59.42,0,0,0,82.65,88S70.88,83.28,66.82,82.4Z"/>
                <path class="cls-8" d="M81.78,100.84c.65,3.5,1.59,6.91,2.55,10.33a32.73,32.73,0,0,0,.42-4.38A59.42,59.42,0,0,0,82.65,88l-1.75-.69C79.52,91.25,81.07,97,81.78,100.84Z"/>
                <g>
                  <path class="cls-7" d="M86,88s-4.78-3.19-4.36,1.38,2.07,21.6,6.44,30.11,12.61,11.08,15.63,6,0-22.84,0-22.84-.73-6.49-2.47-8.56C100.17,92.9,86,88,86,88Z"/>
                  <path class="cls-9" d="M105,118.86a97.62,97.62,0,0,0-1.33-16.17,34.5,34.5,0,0,0-1.39-6.45C100.76,103.81,102.71,111.48,105,118.86Z"/>
                </g>
                <path class="cls-7" d="M107.77,96.25s-5.07-.83-4.82,4.16,4,32.39,13.34,34.47S131,129.06,131,119.72v-15s.36-2.23-2.21-2.23S107.77,96.25,107.77,96.25Z"/>
                <path class="cls-8" d="M128.09,115a76.61,76.61,0,0,0,1.35,12.5,1.87,1.87,0,0,1,.07.22,20.74,20.74,0,0,0,1.52-8v-15a2.41,2.41,0,0,0-.05-.79C127.06,102.65,128,112.85,128.09,115Z"/>
                <path class="cls-10" d="M131.66,104.71s-3-1.37-2.83,1.94.13,27.4,8.43,32.38,20.77,5,20.56-8.51a191.78,191.78,0,0,0-1-19.73s.42-.62-2.07-1.66S131.66,104.71,131.66,104.71Z"/>
                <path class="cls-7" d="M131.66,104.71s-3-1.37-2.83,1.94.13,27.4,8.43,32.38,20.77,5,20.56-8.51a191.78,191.78,0,0,0-1-19.73s.42-.62-2.07-1.66S131.66,104.71,131.66,104.71Z"/>
                <path class="cls-8" d="M153,122.25a45.38,45.38,0,0,0,4.12,13.33,15.59,15.59,0,0,0,.67-5.06,191.78,191.78,0,0,0-1-19.73s.42-.62-2.07-1.66a16.94,16.94,0,0,0-2-.57C151.1,111.75,152.72,120.23,153,122.25Z"/>
                <path class="cls-7" d="M189.52,133.43s.87-23.57-.67-22.26c-.4.33-27.71-1.57-32.27-2,0,0-3.22-.66-2.75,4.53s1.09,26.17,11.26,30.74S188.19,148.38,189.52,133.43Z"/>
              </g>
              <g>
                <path class="cls-7" d="M324.59,77.56s5.23-2.56,3.57,4-8.42,24.71-14.07,26-5.31-8.16-4.65-9.82S313,83.23,314.09,82.4,324.59,77.56,324.59,77.56Z"/>
                <path class="cls-8" d="M314.24,82.3c1.52,2.8-.27,8-.73,10.76A101.64,101.64,0,0,1,310.29,106c-1.59-2.52-1.3-7.15-.85-8.27.65-1.67,3.58-14.48,4.65-15.31Z"/>
                <path class="cls-7" d="M312.21,82.4s2.24-1.52,1.83,2.22-4.37,28.1-10,30.87-9.41,2.47-9.79-8.7A59.42,59.42,0,0,1,296.38,88S308.15,83.28,312.21,82.4Z"/>
                <path class="cls-8" d="M297.25,100.84c-.65,3.5-1.59,6.91-2.55,10.33a32.73,32.73,0,0,1-.42-4.38A59.42,59.42,0,0,1,296.38,88l1.75-.69C299.5,91.25,298,97,297.25,100.84Z"/>
                <g>
                  <path class="cls-7" d="M293.06,88s4.78-3.19,4.36,1.38S295.35,111,291,119.51s-12.61,11.08-15.64,6,0-22.84,0-22.84.74-6.49,2.48-8.56C278.85,92.9,293.06,88,293.06,88Z"/>
                  <path class="cls-9" d="M274,118.86a98.13,98.13,0,0,1,1.32-16.17,34.91,34.91,0,0,1,1.4-6.45C278.27,103.81,276.32,111.48,274,118.86Z"/>
                </g>
                <path class="cls-7" d="M271.26,96.25s5.07-.83,4.82,4.16-4,32.39-13.34,34.47S248,129.06,248,119.72v-15s-.36-2.23,2.21-2.23S271.26,96.25,271.26,96.25Z"/>
                <path class="cls-8" d="M250.94,115a76.61,76.61,0,0,1-1.35,12.5,1.87,1.87,0,0,0-.07.22,20.74,20.74,0,0,1-1.52-8v-15a2.56,2.56,0,0,1,0-.79C252,102.65,251,112.85,250.94,115Z"/>
                <path class="cls-10" d="M247.37,104.71s3-1.37,2.83,1.94-.13,27.4-8.43,32.38-20.77,5-20.56-8.51a191.78,191.78,0,0,1,1-19.73s-.42-.62,2.07-1.66S247.37,104.71,247.37,104.71Z"/>
                <path class="cls-7" d="M247.37,104.71s3-1.37,2.83,1.94-.13,27.4-8.43,32.38-20.77,5-20.56-8.51a191.78,191.78,0,0,1,1-19.73s-.42-.62,2.07-1.66S247.37,104.71,247.37,104.71Z"/>
                <path class="cls-8" d="M226,122.25a45.38,45.38,0,0,1-4.12,13.33,15.59,15.59,0,0,1-.67-5.06,191.78,191.78,0,0,1,1-19.73s-.42-.62,2.07-1.66a16.94,16.94,0,0,1,2-.57C227.93,111.75,226.31,120.23,226,122.25Z"/>
                <path class="cls-8" d="M189.51,133.43s-.13-22.62.25-22.26,28.13-1.57,32.69-2c0,0,3.22-.66,2.75,4.53s-1.08,26.17-11.26,30.74S190.84,148.38,189.51,133.43Z"/>
                <path class="cls-7" d="M189.51,133.43s1.63-22.62,2-22.26,26.37-1.57,30.93-2c0,0,3.22-.66,2.75,4.53s-1.08,26.17-11.26,30.74S190.84,148.38,189.51,133.43Z"/>
              </g>
            </g>
            <g class="cls-11">
              <path class="cls-12" d="M328.16,81.58c1.66-6.58-3.57-4-3.57-4s-6.6,2.81-9.38,4.21L328,82C328.08,81.86,328.12,81.71,328.16,81.58Z"/>
              <path class="cls-13" d="M67.06,84.88s3.84,7.84,17.73,7.48c0,0-.83,8.66,19.11,11.45,0,0,6.11.14,7-2.33,0,0,3,6.13,12,7.65s24.57,3.76,24.57,3.76-.63,1.53,3,2.89,17.85,4.87,35.91,2.11c0,0,2.18-1.32,3.43-2.18,0,0,2.16,3.37,17.62,3.21s22.67-2.69,24.25-5c0,0,25.21-1.09,30.4-7.92s7.67-7.1,7.68-5.47,2.4,5.95,19.68-2.65c0,0,5-3.72,6-5.5,0,0,15.34-.21,18.62-7.19,0,0,3.84,4.72,13,.46.46-1.38.83-2.61,1.09-3.62l-12.83-.24a7.69,7.69,0,0,0-1.12.63.83.83,0,0,0-.19.24c-.48-1-1.69-.24-1.69-.24-3.42.74-12.27,4.2-15,5.29-.89-1.84-4.16.33-4.16.33s-14.21,4.88-15.24,6.11a6.92,6.92,0,0,0-1.08,2.11h0c0,.13-.09.26-.13.39l-.06.21c-.05.13-.09.26-.13.4a1.21,1.21,0,0,1-.05.18c-.13.47-.25,1-.35,1.41l0,.16h0c-.7-3.39-4.71-2.74-4.71-2.74s-18.49,6.23-21,6.23c-2.12,0-2.25,1.5-2.23,2a3.44,3.44,0,0,0-.61.2s-16.4,2.7-21.67,4h0l-.52.13-.06,0-.38.11-.08,0-.32.11-.52.24a2.32,2.32,0,0,0-1.35-.21c-3.88.38-24.54,1.82-30.85,2l-.08,0s0,0,0,0a9,9,0,0,1-1.73,0,10.81,10.81,0,0,0-.18,2.61c-.14-1.83-.37-2.92-.73-2.61s-27.71-1.57-32.27-2a2.32,2.32,0,0,0-1.35.21l-.52-.24-.32-.11-.09,0-.36-.11-.09,0-.49-.13h-.05l-.63-.15h0c-5.87-1.36-21-3.85-21-3.85a3.39,3.39,0,0,0-.62-.2c0-.53-.1-2-2.22-2-2.56,0-21-6.23-21-6.23s-4-.65-4.71,2.74v0s0,0,0-.06c-.12-.5-.24-1-.39-1.53l0-.1c0-.15-.09-.3-.14-.45a.74.74,0,0,0,0-.14,8,8,0,0,0-1.23-2.54C100.17,92.9,86,88,86,88s-3.27-2.17-4.16-.33c-2.73-1.09-11.57-4.55-15-5.29,0,0-1.21-.81-1.69.24a1,1,0,0,0-.19-.24c-1.06-.83-10.51-4.84-10.51-4.84s-3.86-1.88-3.87,1.79A19.72,19.72,0,0,0,67.06,84.88Z"/>
            </g>
            <g>
              <g>
                <path class="cls-7" d="M56.12,56.43s-6-9.25-12.34-8.3-1.11,22.78,11,33.22c0,0,9.89,4.81,12.1,1.61S56.12,56.43,56.12,56.43Z"/>
                <path class="cls-9" d="M55.66,55.77c-2.44,10.27,2.48,20,8.53,28.28A3.14,3.14,0,0,0,66.87,83c2.22-3.19-10.75-26.53-10.75-26.53Z"/>
                <path class="cls-7" d="M71,55.64s-7.59-8.36-14.23-3.19,5.06,28.9,11.39,34.28,15.5,4.11,16.76,1.58S76,59.39,71,55.64Z"/>
                <path class="cls-9" d="M77.79,78.33a46.9,46.9,0,0,0,5.35,11.36,3.41,3.41,0,0,0,1.76-1.38c.89-1.77-3.81-15.22-8.44-24.43C76.37,68.76,76.21,73.48,77.79,78.33Z"/>
                <g>
                  <path class="cls-7" d="M97.87,63.31s-7-10.6-16.45-6.88-3.48,21.75,1.9,31.88,10.13,9.81,16.45,12,10.32,1.61,9.43-5.21S103.39,68.75,97.87,63.31Z"/>
                  <path class="cls-9" d="M109.31,97a13.19,13.19,0,0,0-.11-1.91,113.12,113.12,0,0,0-6-22.4C103.17,80.82,103.9,88.73,109.31,97Z"/>
                </g>
                <g>
                  <path class="cls-7" d="M138.26,70.59s-10.65-19.3-24.57-15.82-10.12,28.16-6,37.33,10.66,14.24,13.4,15.19,24.23,5.1,26,4.13S143.53,81.67,138.26,70.59Z"/>
                  <path class="cls-9" d="M138.64,92.05c1.94,6.67,4.61,13.07,7.18,19.51a3,3,0,0,0,1.24-.14c1.75-1-3.53-29.75-8.8-40.83,0,0-.45-.81-1.27-2A58.55,58.55,0,0,0,138.64,92.05Z"/>
                </g>
                <path class="cls-7" d="M187.51,70.38s-6.27-17.81-24.89-17.93-23.2,8.65-24.25,21.3,5.69,35.44,11,40.92c0,0,14.35,6.12,36.7,1.48a4.85,4.85,0,0,0,3.17-3.8C189.62,109.4,190,79.87,187.51,70.38Z"/>
              </g>
              <g>
                <path class="cls-7" d="M322.92,56.43s6-9.25,12.33-8.3,1.11,22.78-11,33.22c0,0-9.89,4.81-12.1,1.61S322.92,56.43,322.92,56.43Z"/>
                <path class="cls-9" d="M323.38,55.77c2.43,10.27-2.49,20-8.54,28.28A3.14,3.14,0,0,1,312.16,83c-2.22-3.19,10.76-26.53,10.76-26.53S323.09,56.17,323.38,55.77Z"/>
                <path class="cls-7" d="M308.05,55.64s7.59-8.36,14.23-3.19-5.06,28.9-11.39,34.28-15.5,4.11-16.76,1.58S303,59.39,308.05,55.64Z"/>
                <path class="cls-9" d="M301.25,78.33a47.3,47.3,0,0,1-5.36,11.36,3.41,3.41,0,0,1-1.76-1.38c-.89-1.77,3.81-15.22,8.44-24.43C302.65,68.76,302.83,73.48,301.25,78.33Z"/>
                <g>
                  <path class="cls-7" d="M281.16,63.31s7-10.6,16.45-6.88,3.48,21.75-1.9,31.88-10.13,9.81-16.45,12-10.32,1.61-9.43-5.21S275.64,68.75,281.16,63.31Z"/>
                  <path class="cls-9" d="M269.72,97a13.19,13.19,0,0,1,.11-1.91,113.12,113.12,0,0,1,6-22.4C275.86,80.82,275.13,88.73,269.72,97Z"/>
                </g>
                <g>
                  <path class="cls-7" d="M240.77,70.59s10.65-19.3,24.57-15.82,10.12,28.16,6,37.33-10.66,14.24-13.4,15.19-24.23,5.1-26,4.13S235.5,81.67,240.77,70.59Z"/>
                  <path class="cls-9" d="M240.39,92.05c-1.94,6.67-4.61,13.07-7.19,19.51a2.94,2.94,0,0,1-1.23-.14c-1.75-1,3.53-29.75,8.8-40.83,0,0,.45-.81,1.27-2A58.55,58.55,0,0,1,240.39,92.05Z"/>
                </g>
                <path class="cls-7" d="M191.52,70.38s6.28-17.81,24.89-17.93,23.2,8.65,24.25,21.3-5.69,35.44-11,40.92c0,0-14.35,6.12-36.7,1.48a4.82,4.82,0,0,1-3.16-3.8C189.41,109.4,189,79.87,191.52,70.38Z"/>
              </g>
            </g>
          </g>
          <g class="cls-11">
            <path class="cls-14" d="M350.93,41.42c-.91-.86-127.21-7.52-142.42-5.26s-70.6.78-85.82,0-94.95,5.26-94.95,5.26l-3.4.94c2.91,8.52,8.9,15.16,15.9,20.82-2.18-6.77-4.49-16.24-.39-16.43,6.39-.31,42.89,1.6,57.52,1.31s43.12,7.13,67.21,8.7,40.58-.45,60.67-3.19S341,45.2,342.65,48.06s.71,7.37-.79,11.72l.71-.49a90.12,90.12,0,0,0,15.79-15.13c.23-.28.48-.55.72-.83C356.35,42.88,351.58,42,350.93,41.42Z"/>
          </g>
          <g>
            <g>
              <path class="cls-15" d="M358.84,50.29s-29.62,43.83-44.22,64.12S266.53,174.48,189,173.27,81.71,143.65,58.58,111.78,22.06,43,22.06,43s.61-3.45,3.25,0,31,69.39,95.55,79.53,125.38,9.64,161.7-9.94c0,0,42.81-29.42,63.7-53.16,9-10.17,11.77-18.68,18.06-18l.2,1.53Z"/>
              <g>
                <path class="cls-16" d="M120.27,161.86a26.15,26.15,0,0,0,3.59,1.31c-1.23-.44-2.45-.88-3.64-1.33Z"/>
                <path class="cls-17" d="M120.22,161.84a23.17,23.17,0,0,0-2.69-1.05Z"/>
                <path class="cls-18" d="M364.32,41.46c-6.29-.72-9.09,7.79-18.06,18-20.89,23.74-63.7,53.16-63.7,53.16-36.32,19.58-97.18,20.08-161.7,9.94S27.94,46.44,25.31,43s-3.25,0-3.25,0A313.19,313.19,0,0,0,36.25,74.81c.73-1.58,2.14-2.3,4.82,1,5.47,6.67,26.18,50.92,102.25,59.43,0,0,68.74,4.46,77.89,3.24s4.69,19.48-6.07,24.34c-10.1,4.58-70.21,6.54-91.28.38,17.13,6,38.28,9.67,65.17,10.1,77.5,1.21,111-38.58,125.59-58.86s44.22-64.12,44.22-64.12l5.68-7.3Z"/>
                <path class="cls-18" d="M36.54,62.32C29.79,51.94,26.17,44.12,25.31,43c-2.64-3.45-3.25,0-3.25,0s3,8.23,8.58,20.27C32.25,61.15,34.39,61.26,36.54,62.32Z"/>
                <path class="cls-18" d="M364.32,41.46c-6.29-.72-9.09,7.79-18.06,18-2.76,3.14-5.91,6.38-9.29,9.63,0,0,0,0,0,.07.1,6.12-3.43,12-6.47,17-3.87,6.44-7.77,12.82-12.15,18.92-8.82,12.29-17.25,24.93-27.83,35.81a145,145,0,0,0,24.09-26.48c14.6-20.29,44.22-64.12,44.22-64.12l5.68-7.3Z"/>
              </g>
              <g>
                <path class="cls-19" d="M107,134.12c-.51-1.14-1-2.29-1.42-3.47a160.34,160.34,0,0,1-18.74-8.45s-2.09-1.22-3.44-1C89.52,127.54,98.67,131.18,107,134.12Z"/>
                <path class="cls-19" d="M146.35,144.07c21.46,3.57,43.91,4.44,65.05-1.14v-.33c-.18-4.24-44.38,6.49-93.65-7.89.46,1.13.94,2.26,1.43,3.38A242.64,242.64,0,0,0,146.35,144.07Z"/>
              </g>
            </g>
            <g>
              <path class="cls-15" d="M22.06,39.74S61.42,37.31,89.42,29.6s58-17.85,69-12.58,21.66,15.91,26,14.76c7.71-2,17.29-18.24,42-14.35S343,37.72,367,39.74c0,0,4.05.82-2.44,3.25s-97.84,5.22-123.46,7.52c-20.93,1.87-50.61,9.52-84.29,4.65-25.15-3.63-39-7.71-64.51-9.33S25.31,45,22.06,43,19.23,39.94,22.06,39.74Z"/>
              <g class="cls-20">
                <path class="cls-15" d="M367,39.74c-23.83-2-114.82-18.25-140.1-22.25C242.64,21.87,260.07,32.23,264,36.6c5.3,5.85-.81,2.84-46.15,11.46s-80.95-3.14-104.69-6.6-80,.11-85.21-.8a3.77,3.77,0,0,1-2.37-1.17c-2.26.17-3.55.25-3.55.25-2.83.2-3.25,1.22,0,3.25s44.63,1.22,70.2,2.84,39.36,5.7,64.51,9.33c33.68,4.87,63.36-2.78,84.29-4.65,25.62-2.3,117-5.09,123.46-7.52S367,39.74,367,39.74Z"/>
              </g>
              <g class="cls-20">
                <path class="cls-15" d="M28.4,40.71,28,40.66a3.77,3.77,0,0,1-2.37-1.17c-2.26.17-3.55.25-3.55.25-2.83.2-3.25,1.22,0,3.25.9.56,4.76.91,10.4,1.15C31.09,43,29.74,41.87,28.4,40.71Z"/>
                <path class="cls-15" d="M367.5,39.92c-8,1.24-15.77,3.15-23.59,5.09,11-.69,18.87-1.37,20.61-2C369.36,41.18,368.34,40.26,367.5,39.92Z"/>
              </g>
              <path class="cls-19" d="M98.58,30.31S140.08,17.18,150,17.49s24.35,14.35,30.44,16.17c0,0-12.74-2.48-22.5-8.09s-14.33-5.84-24.07-3.74S98.58,30.31,98.58,30.31Z"/>
              <path class="cls-19" d="M191.71,30.62s15.82-13.09,25.56-11.57C217.27,19.05,199,29.46,191.71,30.62Z"/>
            </g>
          </g>
        </g>
      </g>
    </g>
  </g>
</svg>
