<svg xmlns="http://www.w3.org/2000/svg" width="230.9" height="413.28" viewBox="0 0 230.9 413.28">
  <defs>
    <style>
      .cls-1 {
        isolation: isolate;
      }

      .cls-2 {
        fill: #ff0;
      }

      .cls-3 {
        fill: #f9dad2;
        stroke: #755339;
      }

      .cls-10, .cls-11, .cls-12, .cls-15, .cls-18, .cls-21, .cls-22, .cls-3, .cls-5, .cls-6, .cls-9 {
        stroke-miterlimit: 10;
      }

      .cls-11, .cls-12, .cls-3, .cls-9 {
        stroke-width: 0.75px;
      }

      .cls-4 {
        fill: #342517;
      }

      .cls-5 {
        fill: #fff4c7;
        stroke: #bfa75a;
      }

      .cls-6 {
        fill: #2c4249;
        stroke: #151f21;
      }

      .cls-7 {
        opacity: 0.58;
      }

      .cls-8 {
        fill: #d6b965;
      }

      .cls-10, .cls-19, .cls-9 {
        fill: #fbd0b4;
      }

      .cls-10, .cls-18, .cls-9 {
        stroke: #5b3c2d;
      }

      .cls-11 {
        fill: #a52f6d;
      }

      .cls-11, .cls-12 {
        stroke: #591e36;
      }

      .cls-12, .cls-13 {
        fill: #d1307d;
      }

      .cls-14 {
        fill: #591e36;
      }

      .cls-15, .cls-16 {
        fill: #c2e8f8;
      }

      .cls-15 {
        stroke: #3d6670;
      }

      .cls-17 {
        fill: #3d6670;
      }

      .cls-18 {
        fill: #c98f6f;
      }

      .cls-20 {
        fill: #5b3c2d;
      }

      .cls-21, .cls-22, .cls-23 {
        fill: #ff831d;
      }

      .cls-21 {
        stroke: #db6719;
      }

      .cls-22 {
        stroke: #a54a05;
      }

      .cls-24 {
        fill: #c95a0e;
      }

      .cls-25 {
        fill: #d89e7d;
      }

      .cls-26 {
        fill: #dda78a;
      }

      .cls-27 {
        fill: #f4e2d9;
      }

      .cls-28 {
        fill: #512e1b;
      }

      .cls-29 {
        fill: #683804;
        mix-blend-mode: multiply;
      }

      .cls-30 {
        fill: #fefefe;
      }

      .cls-31 {
        fill: #470e0e;
      }

      .cls-32 {
        fill: #eef6e8;
      }

      .cls-33 {
        fill: #c64a1e;
      }
    </style>
  </defs>
  <g class="cls-1">
    <g id="Layer_1" data-name="Layer 1">
      <g>
        <path class="cls-2" d="M216.33,187.31c-15.57-2.31-27.2-17.64-38.44-32.47-8.85-11.65-17.95-23.65-29.4-29.7a33.25,33.25,0,0,0,.15-4.74,17.55,17.55,0,0,0,5.62-4A17.08,17.08,0,0,0,159,104.08a18.12,18.12,0,0,0-1.23-6.18l.37-.62c.78-1.26,6.75-11.35,5.91-22.74a9.46,9.46,0,0,0,6.15-4c1.09-1.66,2.11-4.48,1-8.64a7.24,7.24,0,0,0,.71-.94c2.4-4,4.94-9.12,3.16-13.88a8.79,8.79,0,0,0-2.31-3.43c1.24-4.76.89-8.52-1.06-11.49a10.38,10.38,0,0,0-6.37-4.35l-.35-.44c0-.14,0-.27-.07-.41-2.42-10.92-8.69-13.21-13.52-13.21a18,18,0,0,0-5.37.88c-.22.07-.43.15-.64.24-4.23-5.58-9.06-6.78-12.43-6.78a18.41,18.41,0,0,0-9.27,2.79,1.5,1.5,0,0,1-.53.14h0c-3.79-2.18-7.2-3.24-10.4-3.24-3.57,0-8.45,1.33-11.94,7.45l-.41,0a6,6,0,0,0-.85-.06h0c-5.82,0-10.18,1.62-13,4.79a12.78,12.78,0,0,0-3,8.4h-.06c-6.85,0-11.9,5.54-12.25,13.47a19,19,0,0,0,.34,4.73c-13.31,2.89-22,8-26.3,15.4C38.5,73.35,44.24,86.63,48,95.42l.1.24a15.61,15.61,0,0,0-3.41,10.83,17.39,17.39,0,0,0,11.38,15.76A23.63,23.63,0,0,0,63.36,139l.25.35c-11.51,4-48,20.35-56.4,70.24,0,.12,0,.25,0,.38C7,211.56,3.41,249.1,23.3,263l1.61,5a6,6,0,0,0,2,2.85,19.25,19.25,0,0,0,.48,5.73c.34,1.26.92,4,1.48,6.58,1.68,7.74,2,9.2,2.66,10.39l.11.25a8.87,8.87,0,0,0,3.78,4.49l.78,21.58a6,6,0,0,0,6,5.78l2.63,0c1,17.15,2.22,31,3.76,41.35a24.11,24.11,0,0,0,9.33,15.4c-.25.83-.49,1.68-.72,2.52-1.13,1-1.81,1.68-1.91,1.79l-.16.17c-4.45,5-3.56,9.21-2.64,11.26,2.37,5.25,9.16,7.49,22.73,7.49,6.52,0,13-.52,16.1-.77l.57-.05a9.74,9.74,0,0,0,8.15-4.81c2.76-4.89.1-10.72-.46-11.83a6.07,6.07,0,0,0-.71-1.1c-.7-.86-1.42-1.68-2.16-2.44a26.17,26.17,0,0,0,11.07-12c.3-.7.61-1.41.91-2.12A24.47,24.47,0,0,0,114,378a6,6,0,0,0-2,3.09l-2.32,8.55a5.94,5.94,0,0,0-.21,1.57v5.63a6,6,0,0,0,5.81,6L169,404.54a6,6,0,0,0,5.72-4.19c2-6.23.84-14.66-6.33-18.46a6.6,6.6,0,0,0-1-.43c-.37-.11-4.88-1.5-10-3.06a24.54,24.54,0,0,0,6-8.68,448.18,448.18,0,0,0,15.56-46.14l9.81-.15a6,6,0,0,0,5.88-6.63c-.63-5.88-1.08-11.56-1.33-16.95.24-.24.48-.5.72-.79A9.42,9.42,0,0,0,198,296a6,6,0,0,0,1.05-1.38,4.92,4.92,0,0,0,.24-.45,50.15,50.15,0,0,0,3-5.68,6.52,6.52,0,0,0,.29-.73,41.51,41.51,0,0,0-.23-22.4,6,6,0,0,0,.16-4.42L199.37,252l0-.11c3.63-9.43,2.44-21.38-3.53-35.57a17.73,17.73,0,0,1,2-1.34,15.85,15.85,0,0,0,2.87,1.46,6.13,6.13,0,0,0,2.14.39,6.2,6.2,0,0,0,1.14-.11,5.69,5.69,0,0,0,1.55-.53h0a5.8,5.8,0,0,0,.82-.5c19.44-13.8,18-19.9,17.43-22.2C223.45,191.9,222,188.14,216.33,187.31Z"/>
        <g>
          <g>
            <path class="cls-3" d="M121.78,373.54l-.31,1.29c-.73,3.15-2.55,11.21-2.5,13.63.07,3,18,3.73,18,3.73l8.53.7s13.58-3.49-6.82-14.77S121.78,373.54,121.78,373.54Z"/>
            <path class="cls-4" d="M165.55,387.2s-23.63-7.3-25.26-7.51-22.53,3-22.53,3l-2.32,8.54v5.63L169,398.54S171.55,390.37,165.55,387.2Z"/>
          </g>
          <g>
            <path class="cls-3" d="M65.67,377.63s-3.27,9.47-3.74,13.54,27.54,0,27.54,0V379.7Z"/>
            <path class="cls-4" d="M59.59,390.75s18.7-19.56,34.6,0c0,0,3.74,7.45-2.81,8C84,399.31,49.31,402.37,59.59,390.75Z"/>
          </g>
          <g>
            <g>
              <path class="cls-5" d="M110.17,273.1c-.19,24.69,0,65.44,2.72,90.09,1.06,9.57,10.54,17,22.1,17.35h0c10.22.31,19.47-5,22.71-13.06,8.27-20.59,22-60.58,23.77-91.29.58-10.19-8.56-19-20.78-20l-25.21-2.06C122,253.06,110.26,261.83,110.17,273.1Z"/>
              <g>
                <path class="cls-5" d="M49,272.18c.4,25.25,1.64,68.12,5.49,93.82C56,375.72,66,382.94,77.78,382.77l3.2,0c9.55-.14,18-5.16,21.26-12.63,7.1-16.31,19.15-45.87,25.08-71,.72-3,12.18,0,15-8.62.93-2.88,2.27-7.21,3.65-11.85,3.5-11.71-6.75-23.17-21.26-23.75L73.18,252.8C59.91,252.26,48.84,261.13,49,272.18Z"/>
                <path class="cls-6" d="M145.37,300.62c-5.2,2.33-12.63,4.25-18.45,1.92"/>
              </g>
            </g>
            <g>
              <line class="cls-6" x1="80.02" y1="266.76" x2="73.1" y2="265.48"/>
              <line class="cls-6" x1="175.36" y1="264.84" x2="170.36" y2="266.12"/>
            </g>
          </g>
          <g class="cls-7">
            <path class="cls-8" d="M117,318.59a190.64,190.64,0,0,1-8.53,27,108.06,108.06,0,0,1-6.21,12.82A49,49,0,0,1,93.5,369.9a21.44,21.44,0,0,1-6.21,4.15,15,15,0,0,1-3.72,1.08,14.7,14.7,0,0,1-3.92,0l-1-.16-1-.24c-.62-.16-1.18-.37-1.77-.56s-1.16-.41-1.73-.64a14.31,14.31,0,0,1-1.7-.74,26.41,26.41,0,0,1-6.23-4.09,24.59,24.59,0,0,1-7.47-12.63,30.06,30.06,0,0,1,.06-14.33l.29.06a34.6,34.6,0,0,0,.18,7,32.71,32.71,0,0,0,1.5,6.7,24.14,24.14,0,0,0,7.4,10.95A26.82,26.82,0,0,0,73.88,370c.49.26,1,.47,1.53.69s1,.45,1.56.62a16.67,16.67,0,0,0,3.12.9,11.52,11.52,0,0,0,6.21-.63,19.25,19.25,0,0,0,5.6-3.48,47.19,47.19,0,0,0,8.66-10.69,106.78,106.78,0,0,0,6.5-12.41,188.73,188.73,0,0,0,9.61-26.5Z"/>
          </g>
          <g class="cls-7">
            <path class="cls-8" d="M111.8,300.94a142.79,142.79,0,0,1-5.27,18.17A74.51,74.51,0,0,1,98,336.17a29.72,29.72,0,0,1-3.17,3.77A23,23,0,0,1,93,341.63c-.34.27-.7.51-1,.76a7.22,7.22,0,0,1-1.1.68,11.23,11.23,0,0,1-5.12,1.51,15.92,15.92,0,0,1-2.55-.11c-.8-.08-1.61-.16-2.42-.31A27.6,27.6,0,0,1,71.43,341a16.75,16.75,0,0,1-3.91-3,10.58,10.58,0,0,1-2.6-4.12l.28-.11a12.1,12.1,0,0,0,3.22,3.2,18.43,18.43,0,0,0,4,2.14,31.91,31.91,0,0,0,8.76,2.08c.74.11,1.5.15,2.26.19a13.6,13.6,0,0,0,2.16.08,8.5,8.5,0,0,0,3.87-1,5.18,5.18,0,0,0,.93-.49c.3-.19.61-.37.91-.57A20.11,20.11,0,0,0,93,338a28.46,28.46,0,0,0,3.09-3.29,72.6,72.6,0,0,0,9.08-16.16,155.78,155.78,0,0,0,6.36-17.69Z"/>
          </g>
          <g class="cls-7">
            <path class="cls-8" d="M116.65,343.05a73.9,73.9,0,0,0,2.91,13.06,37,37,0,0,0,5.8,11.67,14.49,14.49,0,0,0,4.73,3.93,13.09,13.09,0,0,0,5.7,1.42c.25,0,.5,0,.76,0l.76-.06a10.19,10.19,0,0,0,1.55-.16l1.55-.27,1.56-.43.78-.21.77-.28,1.57-.54c1-.38,2-.85,3.14-1.23l.16.25c-.85.76-1.73,1.51-2.66,2.19a23.64,23.64,0,0,1-3,1.79,17,17,0,0,1-6.92,1.92,12.48,12.48,0,0,1-7.2-1.83,18.28,18.28,0,0,1-5.17-5.08,38.46,38.46,0,0,1-5.33-12.71,67.93,67.93,0,0,1-1.77-13.44Z"/>
          </g>
          <g class="cls-7">
            <path class="cls-8" d="M165.74,311.22a224.57,224.57,0,0,1-6.62,23.49,119.48,119.48,0,0,1-4.63,11.35,42.11,42.11,0,0,1-6.71,10.53,11,11,0,0,1-5.8,3.52,7,7,0,0,1-3.71-.39,18.84,18.84,0,0,1-3-1.56,26.82,26.82,0,0,1-8.43-9.54,52.68,52.68,0,0,1-4.61-11.54A60.36,60.36,0,0,1,120.16,325l.3-.05c2.23,7.79,4.92,15.47,9,22.18a37.47,37.47,0,0,0,3.38,4.73A21.9,21.9,0,0,0,137,355.7a15.72,15.72,0,0,0,2.35,1.41,4.17,4.17,0,0,0,2.25.37,8.62,8.62,0,0,0,4.5-2.58,40.2,40.2,0,0,0,6.67-9.71,116,116,0,0,0,5-11,222.37,222.37,0,0,0,7.74-23Z"/>
          </g>
          <g>
            <path class="cls-9" d="M182.28,265.48s5.38,19.81,3.84,24.92,2.31,9,4.62,1.92c0,0,.77,5.11,6.15-6.39,0,0,4.36-13.78-3.85-26.84"/>
            <path class="cls-10" d="M183.82,263.56s-5.48,18.46-3.51,20.73,5-2.84,6.58-8.59"/>
            <path class="cls-10" d="M192.27,278.9A38.18,38.18,0,0,1,190.74,293"/>
            <path class="cls-10" d="M196.12,278.9c.53,1,1,6.94-2.31,12.78"/>
          </g>
          <path class="cls-11" d="M125.38,143.44s-14.67,35.25,18.34,86.1c0,0,16.31,38.62,39.33,37.22l13.84-3.84L178.12,210s-2.43-13.25-5.84-25.71C166.52,163.23,142.3,144.71,125.38,143.44Z"/>
          <path class="cls-12" d="M129.22,144a71.18,71.18,0,0,0-40-3.75c-3.72,1.13-23.06,0-36.13,14.06l3.72,8c-14.14,22.47-24.6,80.51-6.92,94.56s70.86,12.4,95.46,12.4c32.11,0,72.28-8.94,35.37-69,8.95-1.59-15.35-26.52-24.6-36.43"/>
          <g>
            <path class="cls-13" d="M48.49,195.19s9.23,27.48,76.12,1.92"/>
            <path class="cls-14" d="M48.49,195.19a14.08,14.08,0,0,0,2.89,4.19,21.24,21.24,0,0,0,3.95,3.19,29.88,29.88,0,0,0,9.39,3.8,61.14,61.14,0,0,0,20.29.78,132.3,132.3,0,0,0,20.06-3.88c1.66-.41,3.29-.89,4.93-1.38s3.27-1,4.89-1.51c3.27-1,6.49-2.15,9.72-3.27-3.18,1.23-6.36,2.5-9.6,3.62-1.61.58-3.24,1.1-4.87,1.61s-3.27,1-4.92,1.49a125.1,125.1,0,0,1-20.13,4.07c-6.82.67-13.8.7-20.5-1a30.42,30.42,0,0,1-9.46-4.05,22,22,0,0,1-3.89-3.38A14.26,14.26,0,0,1,48.49,195.19Z"/>
          </g>
          <path class="cls-12" d="M86.17,181.14s-.43,5.05-13.07,5.75"/>
          <path class="cls-15" d="M44.65,202.22c8.46,1.92,8.46,1.28,10,10.86"/>
          <g>
            <path class="cls-16" d="M165.1,190.7s12.43,3.93,15.57,10.6"/>
            <path class="cls-17" d="M165.1,190.7a33.23,33.23,0,0,1,8.93,3.68,20.54,20.54,0,0,1,3.88,2.94,11.37,11.37,0,0,1,2.76,4,15.49,15.49,0,0,0-3.15-3.55,29.4,29.4,0,0,0-3.88-2.73c-1.35-.84-2.76-1.57-4.19-2.29S166.57,191.35,165.1,190.7Z"/>
          </g>
          <path class="cls-18" d="M123.21,141c-.08,3.42,1.48,13.57-4,17.11,0,0,2.5,3.2,2.31,4.48-3-1.27-7.69-5.12-8.46-5.76a32,32,0,0,1-11.43-2.6C84.52,145.5,85.84,144.14,88,136.78c2.3-7.94,10.44-13.7,20.17-12.53S123.41,132.85,123.21,141Z"/>
          <path class="cls-12" d="M193.81,249.73s-10.93,14.61-5.26,67.71L42.18,319.58l-3-83.08"/>
          <g>
            <path class="cls-9" d="M34.29,260s-2.2,10.86-1.12,15c.91,3.42,3.08,14.6,3.69,15.78s1.12,3.52,3.37,1.33c0,0,1,4.67,5.5.86,0,0,3,5.93,5.53.29,0,0,2.51,3.59,5-1.48,0,0,.73-9.78.51-16.14,0,0,1.82,3.56,3.07,5.36,0,0,10.52,8,4.42-3.24a27.11,27.11,0,0,0-.87-7c-1-4.67-9-10.28-9-10.28l-3.16-4.2"/>
            <g>
              <line class="cls-19" x1="51.26" y1="293.24" x2="50.35" y2="277.6"/>
              <path class="cls-20" d="M51.21,293.24q-.43-3.9-.8-7.8c-.13-1.3-.32-2.59-.33-3.9a24.86,24.86,0,0,1,.22-3.94h.1a25.84,25.84,0,0,1,.68,3.88c.14,1.3.1,2.61.13,3.92.06,2.61.1,5.22.1,7.84Z"/>
            </g>
            <g>
              <line class="cls-19" x1="45.68" y1="293.53" x2="44.81" y2="277.31"/>
              <path class="cls-20" d="M45.63,293.53q-.43-4-.78-8.09c-.13-1.35-.31-2.69-.32-4.05a27.86,27.86,0,0,1,.23-4.07h.1a26.68,26.68,0,0,1,.67,4c.14,1.35.1,2.7.12,4.06.05,2.71.08,5.41.08,8.12Z"/>
            </g>
            <g>
              <line class="cls-19" x1="40.67" y1="292.76" x2="39.19" y2="278.18"/>
              <path class="cls-20" d="M40.62,292.76q-.59-3.61-1.09-7.25c-.16-1.21-.42-2.41-.47-3.64a21.73,21.73,0,0,1,.08-3.69h.1a21.76,21.76,0,0,1,.82,3.6c.19,1.21.19,2.44.27,3.66q.24,3.66.39,7.32Z"/>
            </g>
          </g>
          <g>
            <path class="cls-12" d="M68.48,144.08s-46.13,11.5-55.36,66.45c0,0-3.84,37.7,15.22,48.52l23.85-7,2.45-39A125.21,125.21,0,0,1,71.88,190.7c3.86-3.82,8.69-4.79,12.53-17.57"/>
            <polyline class="cls-12" points="28.34 259.05 30.62 266.08 56.02 259.11 52.19 252.07"/>
          </g>
          <g>
            <g>
              <path class="cls-21" d="M118.05,134s34.48,47.73,46,91.2c0,0,8.95-5.44,9.1-2.88,0,0,11.87-9,10.26-1.92,0,0,14.66-18.42,19.47-9.53,0,0,22.67-16.08,12.57-17.58-35.53-5.27-49.23-63.85-80.88-66.08Z"/>
              <path class="cls-21" d="M133.07,128.48c37.29,20.44,54.85,76.64,69.81,82.34"/>
              <path class="cls-21" d="M184.32,219.26c-11.46-15.11-37.26-78.31-55.91-89.85"/>
              <path class="cls-21" d="M173.15,222.27c-12-23-38-86.91-49.79-90.5"/>
            </g>
            <g>
              <path class="cls-22" d="M80.24,49.25c-4.38-.4-5.16-16.26,4.3-14.86,4.23-.42,6.2-1.67,5-4.1-.81-6.07,2.43-9.17,9.89-9.18,2.45.35,4.62.06,6-2,2.57-5.25,6.81-7.41,14.69-2.86a6.5,6.5,0,0,0,6.26,0C132,12.8,136.91,13.28,140.94,19c1.62,2.51,3.8,3.22,6.79,1.32,7.12-2.21,9.91,1.81,11.26,7.9.11,2.75.93,4.91,4,5.22,4.18.57,5.26,3.72,3.8,9-1.45,2.49-1.64,4.28.44,4.84,3.6,1.16,2.8,5.06-.52,10.53-2.32,2.19-2.94,4-1.48,5.26,1.09,3.54-.12,5.36-3.27,5.71C129.59,37.4,110.08,60.44,80.24,49.25Z"/>
              <g>
                <line class="cls-23" x1="121.8" y1="50.28" x2="82.03" y2="34.45"/>
                <path class="cls-24" d="M121.8,50.28c-3.47-.93-6.86-2.05-10.23-3.24s-6.7-2.45-10-3.75-6.61-2.69-9.86-4.16-6.5-3-9.66-4.68c3.47.93,6.87,2,10.23,3.23s6.71,2.45,10,3.76,6.6,2.69,9.86,4.16S118.64,48.58,121.8,50.28Z"/>
              </g>
              <g>
                <polyline class="cls-23" points="89.83 25.99 123.36 49.59 99.45 21.11"/>
                <path class="cls-24" d="M89.83,26c2.93,1.78,5.78,3.66,8.67,5.49s5.72,3.75,8.55,5.66q8.52,5.72,16.88,11.64l-1.33,1.45c-2-2.39-4-4.76-5.93-7.17s-3.92-4.8-5.84-7.22S107,31,105.07,28.53s-3.79-4.91-5.61-7.42c2.15,2.23,4.22,4.54,6.33,6.82s4.15,4.6,6.2,6.93,4.08,4.67,6.1,7,4,4.72,6,7.08l5,5.92-6.38-4.47q-8.4-5.88-16.66-12-4.12-3-8.21-6.14C95.22,30.2,92.49,28.15,89.83,26Z"/>
              </g>
              <g>
                <polyline class="cls-23" points="125.56 16.54 125.56 49.59 141.25 21.11"/>
                <path class="cls-24" d="M125.56,16.54c.23,2.75.33,5.51.49,8.26s.22,5.51.29,8.26c.16,5.51.2,11,.22,16.53l-1.87-.48c2.63-4.74,5.28-9.47,8-14.14,1.37-2.34,2.77-4.66,4.18-7s2.84-4.62,4.35-6.88c-1.11,2.48-2.33,4.9-3.5,7.35s-2.42,4.86-3.67,7.26c-2.47,4.83-5.05,9.59-7.64,14.35l-1.89,3.45V49.59c0-5.51.06-11,.22-16.53q.1-4.13.29-8.26C125.24,22.05,125.33,19.29,125.56,16.54Z"/>
              </g>
              <g>
                <path class="cls-23" d="M158.09,28.36c-1,.16-30.14,21.23-30.14,21.23l35.63-14.24"/>
                <path class="cls-24" d="M158.09,28.36c-2.52,1.75-4.92,3.67-7.36,5.54l-7.35,5.57c-4.91,3.7-9.88,7.32-14.85,10.93l-1-1.74,8.92-3.52c3-1.13,6-2.3,9-3.41s6-2.21,9-3.29,6-2.12,9.1-3.09c-2.89,1.4-5.82,2.68-8.73,4S149,42,146.06,43.2s-5.9,2.47-8.85,3.72l-8.89,3.59-7.75,3.14,6.8-4.87c5-3.58,10-7.12,15.12-10.56,2.54-1.73,5.11-3.42,7.69-5.1l3.91-2.46A42.72,42.72,0,0,1,158.09,28.36Z"/>
              </g>
              <g>
                <path class="cls-23" d="M164.52,43.77c-.57.31-36.11,7.63-36.11,7.63l39.14-2.76"/>
                <path class="cls-24" d="M164.52,43.77c-2.93,1-5.94,1.65-8.91,2.45s-6,1.49-9,2.18-6,1.38-9,2-6,1.29-9,1.93l-.27-2q9.78-.7,19.58-1.18,4.91-.24,9.81-.4c3.27-.06,6.54-.19,9.82-.19-3.25.47-6.5.8-9.75,1.2s-6.51.68-9.77,1c-6.51.61-13,1.12-19.55,1.57l-.27-2,9-1.81c3-.58,6-1.17,9.06-1.71s6.06-1.09,9.09-1.61Z"/>
              </g>
              <g>
                <path class="cls-23" d="M163.58,62.33s-10.41-8-27.47-10.07"/>
                <path class="cls-24" d="M163.58,62.33c-2.24-1.11-4.46-2.11-6.7-3.07s-4.48-1.85-6.77-2.65c-1.14-.41-2.28-.81-3.44-1.18l-1.73-.56-1.75-.53c-2.33-.73-4.69-1.33-7.08-2.08a35.68,35.68,0,0,1,7.44.56,44.37,44.37,0,0,1,7.24,1.91,43.51,43.51,0,0,1,6.79,3.14A27.85,27.85,0,0,1,163.58,62.33Z"/>
              </g>
            </g>
            <path class="cls-22" d="M65.51,100.08s4.13-34.46,37.29-31.47S133,82.3,137.32,98,153,94.18,153,94.18s28.3-44.59-47.9-44.59S48.91,81.18,55.2,97C60.82,111.08,65.51,100.08,65.51,100.08Z"/>
            <g>
              <path class="cls-10" d="M153,104.25a11.2,11.2,0,0,1-10.67,11.56c-5.15.12-6-3.41-6.16-9.33s3.84-10.81,9-10.93S152.8,99.31,153,104.25Z"/>
              <path class="cls-25" d="M140.59,104.13c.61.66,1.65,1.18,1.65,2,0,.57-.51,1-.9,1.51a2.68,2.68,0,0,0-.65,2.28,2.05,2.05,0,0,0,2,1.43A3.29,3.29,0,0,0,144,111a7.94,7.94,0,0,0,4.43-6,4.82,4.82,0,0,0-1.3-4C144.3,98.16,137.42,100.72,140.59,104.13Z"/>
            </g>
            <g>
              <path class="cls-10" d="M50.73,106.29a11.44,11.44,0,0,0,11.38,11c5.16-.12,5.75-3.68,5.56-9.6S63.16,97.12,58,97.24,50.56,101.35,50.73,106.29Z"/>
              <path class="cls-25" d="M63.07,105.6c-.58.69-1.58,1.26-1.52,2.1,0,.57.57,1,1,1.47a2.68,2.68,0,0,1,.79,2.24,2,2,0,0,1-1.9,1.52,3.15,3.15,0,0,1-1.35-.35,8.1,8.1,0,0,1-4.8-5.82,4.76,4.76,0,0,1,1-4C59,99.81,66,102.05,63.07,105.6Z"/>
            </g>
            <path class="cls-9" d="M117.6,143.6a2.06,2.06,0,0,0-.51.4c-2,2.64-3.51,5.11-13,6-4.74.43-12.51-1.45-14.44-5.1-.49-.92-4.41-1.54-5.15-1.73-32.83-8.64-20.21-30-19.32-40.1,0,0,0-.06,0-.1,2.88-32.29,23.59-34.78,37.59-35.1,11.07-.26,26.2.93,31.94,18.94,1.77,5.58,2.11,9.64,4,15.65.14.46.29.93.45,1.42C151.16,140.8,129.54,135,117.6,143.6Z"/>
            <path class="cls-26" d="M139.36,106.59c-7.38-23.67-8.91-27.32-13.44-29.71-7-3.71-11.36-2.61-34.88-.41-23.12,2.16-26,28.55-26.21,30.81,3.42-32.25,32.48-37.71,46.71-38C122.81,69,132.92,76,135.86,92.36A93.55,93.55,0,0,0,139.36,106.59Z"/>
            <g>
              <path class="cls-26" d="M128.4,96.07c.14,4.31-3.37,6.23-7.78,6.33s-8-1.45-8.18-5.76,3.29-9.32,7.69-9.42S128.27,91.75,128.4,96.07Z"/>
              <g>
                <path class="cls-27" d="M127.94,99.54c.14,4.31-2.93,6.16-7.29,6.26s-8-1.45-8.1-5.77,3-7.15,7.42-7.25S127.81,95.23,127.94,99.54Z"/>
                <path class="cls-28" d="M128,99.54a7.59,7.59,0,0,1-.4,2.83,5.28,5.28,0,0,1-1.76,2.34,8.77,8.77,0,0,1-5.62,1.52,9.68,9.68,0,0,1-5.54-1.67,5.5,5.5,0,0,1-1.81-2.27,7.16,7.16,0,0,1-.51-2.85,7.4,7.4,0,0,1,.56-2.89,6.43,6.43,0,0,1,1.78-2.42,8.55,8.55,0,0,1,5.6-1.88,8,8,0,0,1,5.51,2A7.36,7.36,0,0,1,128,99.54Zm-.1,0a6,6,0,0,0-2.52-4.73,8.84,8.84,0,0,0-5.09-1.49,8.1,8.1,0,0,0-5,1.52,6.44,6.44,0,0,0-2.49,4.61,6,6,0,0,0,.38,2.72,4.48,4.48,0,0,0,1.74,2.08,9.49,9.49,0,0,0,5.32,1.11,11.3,11.3,0,0,0,5.29-1.13,4.73,4.73,0,0,0,1.86-2A5.72,5.72,0,0,0,127.89,99.54Z"/>
              </g>
            </g>
            <path class="cls-26" d="M89.82,99.13c.14,4.31-3,4.54-7.41,4.64s-8-1.45-8.17-5.76,3.28-9.31,7.69-9.41S89.69,94.82,89.82,99.13Z"/>
            <g>
              <g>
                <path class="cls-27" d="M90.23,100.77c.14,4.31-3.3,6.3-7.71,6.4s-8-1.45-8.17-5.76a8,8,0,0,1,7.91-8A7.54,7.54,0,0,1,90.23,100.77Z"/>
                <path class="cls-28" d="M90.28,100.77a6.7,6.7,0,0,1-.5,2.92A5.59,5.59,0,0,1,87.87,106a9.29,9.29,0,0,1-5.82,1.56,9.83,9.83,0,0,1-5.72-1.78,5.4,5.4,0,0,1-1.77-2.42,7.6,7.6,0,0,1-.4-3A7.8,7.8,0,0,1,76.82,95a8.54,8.54,0,0,1,5.73-2.14,7.64,7.64,0,0,1,5.61,2.37A8.41,8.41,0,0,1,90.28,100.77Zm-.1,0a6.76,6.76,0,0,0-2.5-5,8.09,8.09,0,0,0-5.14-1.82A8,8,0,0,0,77.4,95.7a7.5,7.5,0,0,0-2.78,4.75,5.07,5.07,0,0,0,1.94,5.07,9.5,9.5,0,0,0,5.5,1.22,12.1,12.1,0,0,0,5.49-1.19,5.21,5.21,0,0,0,2-2A5.35,5.35,0,0,0,90.18,100.77Z"/>
              </g>
              <g>
                <ellipse class="cls-29" cx="83.32" cy="100.29" rx="4.6" ry="5.28" transform="translate(-17.44 183.05) rotate(-89.68)"/>
                <ellipse class="cls-29" cx="83.32" cy="100.29" rx="3.37" ry="3.87" transform="translate(-17.44 183.05) rotate(-89.68)"/>
                <ellipse class="cls-30" cx="86.63" cy="96.84" rx="1.01" ry="1.11" transform="matrix(0.02, -1, 1, 0.02, -11.86, 181.6)"/>
              </g>
              <g>
                <ellipse class="cls-29" cx="119.58" cy="99.68" rx="4.6" ry="5.28" transform="translate(19.23 218.69) rotate(-89.68)"/>
                <ellipse class="cls-29" cx="119.58" cy="99.68" rx="3.37" ry="3.87" transform="translate(19.23 218.69) rotate(-89.68)"/>
                <ellipse class="cls-30" cx="122.89" cy="96.23" rx="1.01" ry="1.11" transform="translate(24.32 217.25) rotate(-88.9)"/>
              </g>
            </g>
            <path class="cls-4" d="M113.22,83.89c-.39.13,1-1.45,2.17-2.85a5.72,5.72,0,0,1,5.53-1.61,13.18,13.18,0,0,1,9.52,7.8c.06.14-.15.25-.28.15C128.28,85.94,121.32,81.24,113.22,83.89Z"/>
            <path class="cls-4" d="M88.66,85.6c.4.11-1-1.41-2.35-2.75a5.81,5.81,0,0,0-5.63-1.36,12.86,12.86,0,0,0-9,8.22c-.05.15.16.25.28.14C73.75,88.33,80.41,83.32,88.66,85.6Z"/>
            <g>
              <path class="cls-26" d="M121.06,119.53c-.33.3-5.54,7.29-7.59,12.86a5,5,0,0,1-.79,1.37c-3.32,4.17-13.67,5.38-19.41.51a11.1,11.1,0,0,1-1.71-1.84s-2.77-7.85-7.14-12.47c0,0,0,0,0,0a62.28,62.28,0,0,0,6.37,2.65c3.57,1.26,5.89.88,11.07,1.09a36.15,36.15,0,0,0,16-2.7A33.23,33.23,0,0,0,121.06,119.53Z"/>
              <path class="cls-31" d="M121.06,119.53c-.33.3-5.61,5.21-7.66,10.78a5,5,0,0,1-.79,1.38c-3.32,4.16-13.66,5.38-19.4.5a11.16,11.16,0,0,1-1.72-1.84A44.89,44.89,0,0,0,84.42,120h0a29.92,29.92,0,0,0,5.78,3.38A25.77,25.77,0,0,0,103,125.55,42.5,42.5,0,0,0,116.5,122,29,29,0,0,0,121.06,119.53Z"/>
              <path class="cls-32" d="M116.5,122c-4.25,7.65-15.55,9-22.66,5.63-2.64-1.27-2.76-2.76-3.66-4.32A25.77,25.77,0,0,0,103,125.55,42.5,42.5,0,0,0,116.5,122Z"/>
              <path class="cls-33" d="M112.61,131.69c-3.32,4.16-13.66,5.38-19.4.5a7,7,0,0,1,6.16-2,3.52,3.52,0,0,1,3.14,2.52h0s.37-2.9,5-3.24C110.35,129.22,111.79,130.32,112.61,131.69Z"/>
            </g>
            <path class="cls-4" d="M102,117.61s-1.56,7.32,7.19,6.41,8.58-2.94,10-1.26-3.55,17.58,9.1,17,10.42-15.87,10.42-15.87-2.56-1.67-2.56,1.68-8.27,7-8.8,3.27S126.33,105.91,102,117.61Z"/>
            <path class="cls-4" d="M102.86,117.61s1.56,7.32-7.19,6.41-8.58-2.94-10-1.26,3.55,17.58-9.11,17-10.41-15.87-10.41-15.87,2.56-1.67,2.56,1.68,8.27,7,8.8,3.27S78.51,105.91,102.86,117.61Z"/>
            <g>
              <path class="cls-19" d="M93.21,107.59c-2.75,1.93-1.94,5,.94,6.76s3.68,3.39,9,3.26c5.66-.14,4.06-1,7-2.68,6-3.51.22-7.74.22-7.74"/>
              <path class="cls-20" d="M93.21,107.59a4.07,4.07,0,0,0-1.36,1.7,3.09,3.09,0,0,0,0,2.1,6.12,6.12,0,0,0,3,3,18.7,18.7,0,0,0,3.77,2.22,12.3,12.3,0,0,0,4.25.53c.73,0,1.47-.09,2.19-.14a7,7,0,0,0,2-.4,2.19,2.19,0,0,0,.79-.51c.26-.23.55-.51.85-.75a22.38,22.38,0,0,1,1.91-1.23,5.79,5.79,0,0,0,1.51-1.4,2.76,2.76,0,0,0,.48-1.91,6.39,6.39,0,0,0-2.2-3.64,7.73,7.73,0,0,1,1.69,1.49,4.7,4.7,0,0,1,1.06,2.07,3.37,3.37,0,0,1-.42,2.36,5.84,5.84,0,0,1-1.62,1.73c-.66.47-1.27.81-1.79,1.27-.27.22-.52.47-.81.74a3.43,3.43,0,0,1-1.06.7,7.68,7.68,0,0,1-2.34.45c-.76,0-1.5,0-2.26,0a12,12,0,0,1-4.53-.72,18.94,18.94,0,0,1-3.81-2.44,6.29,6.29,0,0,1-3-3.4,3.29,3.29,0,0,1,.17-2.27A4,4,0,0,1,93.21,107.59Z"/>
            </g>
            <path class="cls-21" d="M119.43,69.14s0,3.67-17.05,3.88-25,4.27-31.68,14.4l-5.19,12.66a6.49,6.49,0,0,0-6.3-2.84C55,97.85,47.09,78,67.7,64.42c14.75-9.69,35-7,52.55-14.14C120.25,50.28,124.25,61.85,119.43,69.14Z"/>
            <path class="cls-21" d="M119.08,69.8s4.46-4,2.72-12.82c0,0,29.48,4.73,24.75,37.83,0,0-6.49.41-8.73,4.48C137.82,99.29,133.81,77.44,119.08,69.8Z"/>
            <g>
              <path class="cls-23" d="M119.08,51.48C105.8,67.8,86.74,58.87,72.37,67.8"/>
              <path class="cls-24" d="M119.08,51.48a25,25,0,0,1-9.6,8.42A37.65,37.65,0,0,1,97,63.3c-4.24.5-8.46.68-12.6,1.18A37.18,37.18,0,0,0,72.37,67.8a27.8,27.8,0,0,1,11.81-4.86c4.21-.83,8.46-1.1,12.61-1.62a44.9,44.9,0,0,0,12-2.83A31.91,31.91,0,0,0,119.08,51.48Z"/>
            </g>
            <path class="cls-24" d="M119.08,53.21a13.57,13.57,0,0,1-2.69,8.67,15.24,15.24,0,0,1-1.52,1.8,21.78,21.78,0,0,1-1.76,1.56,4.53,4.53,0,0,1-1,.68l-1,.62a13.17,13.17,0,0,1-2.08,1.07,26.43,26.43,0,0,1-4.4,1.47c-.74.21-1.52.25-2.27.39s-1.51.24-2.27.28c-1.53,0-3,.1-4.56,0s-3-.3-4.49-.54c1.5-.21,3-.32,4.47-.44s2.93-.43,4.39-.6c1.42-.32,2.87-.56,4.26-1a26.85,26.85,0,0,0,4.06-1.46,19.26,19.26,0,0,0,6.91-4.87A17.31,17.31,0,0,0,119.08,53.21Z"/>
            <path class="cls-24" d="M123.36,59.64a21.64,21.64,0,0,1,7.62,4.7,31.16,31.16,0,0,1,5.7,7,34.53,34.53,0,0,1,3.42,8.36c.1.36.21.72.3,1.08l.21,1.11.38,2.21c.16,1.49.23,3,.26,4.47-.47-1.43-.8-2.86-1.22-4.26l-.69-2.08-.33-1c-.12-.35-.26-.68-.39-1-.27-.67-.54-1.35-.78-2s-.61-1.32-.91-2a40.82,40.82,0,0,0-2-3.83,43.43,43.43,0,0,0-5.07-6.94A36.56,36.56,0,0,0,123.36,59.64Z"/>
            <path class="cls-24" d="M122.13,54.78a30.13,30.13,0,0,1,9,.45,32,32,0,0,1,8.6,2.92,24,24,0,0,1,7.22,5.61,19,19,0,0,1,4.16,8,29.38,29.38,0,0,0-5.29-6.93,27.68,27.68,0,0,0-3.33-2.7,29.64,29.64,0,0,0-3.68-2.21,45,45,0,0,0-8-3.18A73.27,73.27,0,0,0,122.13,54.78Z"/>
            <path class="cls-24" d="M72.37,74.12a30.52,30.52,0,0,0-5.17,4.44,20.08,20.08,0,0,0-3.61,5.49,9.06,9.06,0,0,0-.6,1.52,10.72,10.72,0,0,0-.46,1.56l-.36,1.61L62,90.4l-.1.83c0,.28,0,.56,0,.84v1.7c0,1.14.19,2.27.2,3.47A28.7,28.7,0,0,1,60.9,93.9a17.53,17.53,0,0,1-.47-3.55,15.49,15.49,0,0,1,1.34-7.11,16.22,16.22,0,0,1,4.35-5.8A15.9,15.9,0,0,1,72.37,74.12Z"/>
          </g>
        </g>
      </g>
    </g>
  </g>
</svg>
