<svg xmlns="http://www.w3.org/2000/svg" width="196.67" height="317.36" viewBox="0 0 196.67 317.36">
  <defs>
    <style>
      .cls-1 {
        isolation: isolate;
      }

      .cls-2 {
        fill: #ff0;
      }

      .cls-3 {
        fill: #985033;
      }

      .cls-4, .cls-5 {
        fill: #ac6233;
      }

      .cls-5, .cls-9 {
        opacity: 0.3;
      }

      .cls-5 {
        mix-blend-mode: color-dodge;
      }

      .cls-6 {
        fill: #c38222;
      }

      .cls-7 {
        fill: #ffc36b;
      }

      .cls-8 {
        fill: #ffa44f;
      }

      .cls-9 {
        fill: #fdac4b;
        mix-blend-mode: multiply;
      }

      .cls-10 {
        fill: #ffd481;
      }

      .cls-11 {
        fill: #d77938;
      }

      .cls-12 {
        fill: #a96b13;
      }
    </style>
  </defs>
  <g class="cls-1">
    <g id="Layer_1" data-name="Layer 1">
      <g>
        <path class="cls-2" d="M183.34,11.12l-3.09-1.49a8.18,8.18,0,0,0-3.5-.8,7.57,7.57,0,0,0-6.9,4.26L85.57,187.62a7.27,7.27,0,0,0-2.43,2.85l-.11.24a6.37,6.37,0,0,0-1.34,1.74,6.05,6.05,0,0,0-.53,1.33,6.65,6.65,0,0,0-1.12,2,6.07,6.07,0,0,0-.41.94.56.56,0,0,0,0,.12l-.18.28-.21.26h-.09a25.79,25.79,0,0,0-22.76,13.81,6.55,6.55,0,0,0-2.09,2.13c-16.35,9.57-32.94,29.33-44.82,53.55a6.1,6.1,0,0,0-.57,3.39c0,.27.09.53.15.84a6,6,0,0,0,1.13,2.47c.4.52.88,1.13,1.42,1.74a6,6,0,0,0,1.84,1.37l5.2,2.51a6,6,0,0,0,1.48.49c.61.12,1.24.21,1.86.29l.29.26c.33.32.67.63,1,.93a6.12,6.12,0,0,0,1.41.95L32.74,286a6,6,0,0,0,1.65.51,4.5,4.5,0,0,0,.65.1,9.17,9.17,0,0,0,1.17.06h.22l0,0c.39.32.75.6,1,.8a14.27,14.27,0,0,0,2.32,1.22l.07,0A6,6,0,0,0,42,290.51L61.76,300a6,6,0,0,0,1.9.56c.33.27.67.52,1.06.79a5.66,5.66,0,0,0,.82.48l2.17,1a5.8,5.8,0,0,0,1,.37,11.09,11.09,0,0,0,1.1.26c.36.25.71.51,1.06.77a5.32,5.32,0,0,0,1,.57l6,2.92a5.67,5.67,0,0,0,1.84.55l.44.05c.67.07,1.37.11,2.2.14h.17a6,6,0,0,0,5.41-3.42c11.66-24.41,16.87-49.74,14.21-68.58a6.65,6.65,0,0,0,.39-3.13,25.53,25.53,0,0,0-2.68-25.46c-.06-.1-.13-.19-.2-.29s-.26-.33-.42-.51l0-.07a6.94,6.94,0,0,0,.42-1.39,6.47,6.47,0,0,0,.88-1.69l0-.09a7,7,0,0,0,.53-1l0-.1a6.51,6.51,0,0,0,.76-2.57l.29-.59a7.15,7.15,0,0,0,.7-3.65L187.1,21.42a7.52,7.52,0,0,0,.13-6.23A8,8,0,0,0,183.34,11.12Z"/>
        <g>
          <path class="cls-3" d="M92,204.58a1.76,1.76,0,0,1-2.39.67l-3.08-1.49a1.76,1.76,0,0,1-1-2.29L175.25,15.7a1.76,1.76,0,0,1,2.39-.66l3.09,1.49a1.77,1.77,0,0,1,1,2.28Z"/>
          <path class="cls-4" d="M97.38,177,85.45,201.66a1.7,1.7,0,0,0,1.07,2.1l3.08,1.49a1.71,1.71,0,0,0,2.3-.47l11.93-24.7Z"/>
          <path class="cls-5" d="M94.72,194.5a.87.87,0,1,1-1.56-.75L177.64,18.8a.87.87,0,1,1,1.56.75Z"/>
          <path class="cls-6" d="M91.43,207.93a1.41,1.41,0,0,1-1.92.6L84,205.87a1.41,1.41,0,0,1-.72-1.88l5.27-10.92a1.42,1.42,0,0,1,1.92-.6L96,195.13A1.41,1.41,0,0,1,96.7,197Z"/>
          <path class="cls-7" d="M73.15,298.56c.43.3.84.61,1.26.91l6,2.92a2.3,2.3,0,0,0,.26,0c.59.06,1.19.09,1.78.11,12.37-25.91,16.75-51.65,13.05-68.85a20.7,20.7,0,0,0,1.22-2.16,19.62,19.62,0,0,0-35.33-17.07,20.72,20.72,0,0,0-.94,2.31c-15.71,7.77-33.08,27.1-45.66,52.75,0,.14.05.27.07.4.37.47.73.94,1.12,1.37l5.2,2.51a23.74,23.74,0,0,0,3.77.39,1,1,0,0,1,.89,1.25c.47.43.92.86,1.38,1.27l8.09,3.91.34.06a8.13,8.13,0,0,1,2.38.2c1,0,2.13,1.23,2.84,1.71,1.08.73,3.16,1.14,3.7,2.36a.47.47,0,0,1,0,.16l19.71,9.52a4.47,4.47,0,0,1,2.86,1.12c.32.27.63.5.93.71l2.17,1.05a11,11,0,0,0,2.39.35A.56.56,0,0,1,73.15,298.56Z"/>
          <g>
            <path class="cls-8" d="M44.2,284.39c3.31-6.39,7.11-12.59,9.95-19.11.07-.16-.16-.27-.23-.12-3,6.29-7.06,12.37-10.4,18.72A3,3,0,0,1,44.2,284.39Z"/>
            <path class="cls-8" d="M72.71,297.85a.48.48,0,0,1,.41.32,72.51,72.51,0,0,0,4.28-14c.06-.25-.31-.31-.38-.07a116.41,116.41,0,0,1-5,13.73Z"/>
            <path class="cls-8" d="M25.88,275.43l.28.26c2.6-4.85,5.34-9.63,8.28-14.29,5.29-8.36,10-17.15,17-24.3.17-.18-.12-.42-.3-.25-7.11,6.61-12.2,14.82-17.45,22.91-3.08,4.75-6.11,9.49-8.78,14.41H25A1,1,0,0,1,25.88,275.43Z"/>
            <path class="cls-8" d="M65.41,294.77a4.48,4.48,0,0,1,1.39.64c2.37-5.22,4.53-10.53,6.57-15.87,3.75-9.79,5.82-19.89,8.24-30,.08-.3-.38-.37-.46-.08-2.88,10.37-5.54,20.67-9.44,30.74C69.79,285.11,67.6,289.94,65.41,294.77Z"/>
            <path class="cls-8" d="M38.06,280.87a2.24,2.24,0,0,1,1.23.46c2.23-4.55,4.53-9.07,6.84-13.57,5.48-10.68,11-21.37,17.63-31.37.11-.16-.11-.36-.23-.2-7,9.37-12.62,19.41-18.15,29.69-2.65,4.92-5.17,9.88-7.48,14.92Z"/>
          </g>
          <g>
            <path class="cls-8" d="M85.69,206.66a16.82,16.82,0,0,0-1.68,4,.08.08,0,0,0,.13.08,8.53,8.53,0,0,0,2.26-3c.41-.78.83-1.57,1.21-2.38-.36-.17-.72-.33-1.09-.48C86.24,205.44,86,206.06,85.69,206.66Z"/>
            <path class="cls-8" d="M66.57,212.86c4.12-4.81,9.18-8.44,15.05-9.33a19.08,19.08,0,0,0-2.13-.16c-5.08,1.43-9.42,4.78-13,9.4C66.42,212.84,66.52,212.92,66.57,212.86Z"/>
            <path class="cls-8" d="M74.47,211.94a21.84,21.84,0,0,1,5.79-5.71,15,15,0,0,1,5-1.87,18,18,0,0,0-2.37-.63,19,19,0,0,0-8.53,8.11C74.28,211.93,74.42,212,74.47,211.94Z"/>
            <path class="cls-8" d="M77.3,214.69a67.77,67.77,0,0,1,4-5.83,15.27,15.27,0,0,1,5.12-4.09c-.3-.12-.61-.24-.92-.34-3.94,1.91-6.35,6.49-8.39,10.14C77,214.72,77.21,214.82,77.3,214.69Z"/>
            <path class="cls-8" d="M88.59,216.46c0,.13.19.23.25.08a29.22,29.22,0,0,0,1.69-8c0-.18,0-.38,0-.58a11.45,11.45,0,0,1,.8,3.4,38.42,38.42,0,0,1-1,11.66c0,.05.08.06.09,0,1.13-3.63,2.42-9.35,1.65-14.11a15.05,15.05,0,0,1,1.4,2.4c1.28,2.77,1,6.29,1.14,9.28,0,0,0,0,0,0,.42-3.17,1-6.28.13-9.4a19.48,19.48,0,0,0-5.9-5.24C89.72,209.35,88.93,213.13,88.59,216.46Z"/>
          </g>
          <path class="cls-9" d="M73.15,298.56c.43.3.84.61,1.26.91l6,2.92a2.3,2.3,0,0,0,.26,0c.59.06,1.19.09,1.78.11,12.37-25.91,16.75-51.65,13.05-68.85a20.7,20.7,0,0,0,1.22-2.16,19.62,19.62,0,0,0-35.33-17.07,20.72,20.72,0,0,0-.94,2.31c-15.71,7.77-33.08,27.1-45.66,52.75,0,.14.05.27.07.4.37.47.73.94,1.12,1.37l5.2,2.51a23.74,23.74,0,0,0,3.77.39,1,1,0,0,1,.89,1.25c.47.43.92.86,1.38,1.27l8.09,3.91.34.06a8.13,8.13,0,0,1,2.38.2c1,0,2.13,1.23,2.84,1.71,1.08.73,3.16,1.14,3.7,2.36a.47.47,0,0,1,0,.16l19.71,9.52a4.47,4.47,0,0,1,2.86,1.12c.32.27.63.5.93.71l2.17,1.05a11,11,0,0,0,2.39.35A.56.56,0,0,1,73.15,298.56Zm-4.87-8.95a18.12,18.12,0,0,1,.21-2.66,7.79,7.79,0,0,1-4,4c-2,.8-3.92.05-3.89-2.14a2.29,2.29,0,0,1,.16-.87l-.1.09a4.58,4.58,0,0,1-2.58,1.49c-3.14.41-6.29-1.37-8.87-3s-4-3.33-4.3-6.21c-3.77,1.43-4.5-2.18-3.37-5.59.63-1.91,1.34-3.81,2.12-5.68-.28.45-.55.9-.82,1.35-1.41,2.45-3.11,5.85-6,6.7-2.52.74-2.4-2.1-1.7-5a8.6,8.6,0,0,1-2.29,2.2c-1.49.89-2.36-.17-2.28-1.76a18.26,18.26,0,0,1,5-11c-1,1.13-2.37,1.83-3.27,3.12-.72,1-1.35,2.16-2.12,3.15a14,14,0,0,1-4.8,4.37.87.87,0,0,1-1.2-.23c-2.79-4.19,1.1-10.45,3.3-14A111.5,111.5,0,0,1,39,242.54c6.77-7.62,13-14.39,21.09-20.53,3.73-2.84,6.59-6.9,10.39-9.77s8.61-8,17.5-3.28c10.16,5.34,6.78,18.27,5.7,23.89,4.7,15-4.6,50-9.79,61.58-.82,1.84-3.67,6.79-6.19,4.07a4.52,4.52,0,0,1-.92-3.3c-.75,1-1.8,1.56-3.5.72C70.6,294.6,68.26,292.88,68.28,289.61Z"/>
          <path class="cls-10" d="M69.06,276.62c2.25-5.41,4.29-10.89,6.23-16.41,1.71-4.86,3.41-9.76,4.77-14.73,1.21-4.48,3.38-10,2.38-14.71,0-.24-.37-.25-.51-.1-3.26,3.34-4.47,9.15-6.05,13.45-1.86,5.06-3.55,10.18-5.45,15.23s-3.94,10-6.09,15q-1.43,3.29-2.86,6.57c-.87,2-1.86,3.56-1.5,5.73a2,2,0,0,0,3.1,1.49C66.33,285.82,67.57,280.21,69.06,276.62Z"/>
          <path class="cls-10" d="M65.85,261.87c3.11-7.41,6.25-14.82,8.37-22.59.07-.25-.29-.33-.4-.13-4.13,6.84-7.86,13.9-11.59,21-3.87,7.35-6.85,15.16-10.83,22.43-1.46,2.65,2.75,4.66,4.21,2C59.62,277.38,62.65,269.46,65.85,261.87Z"/>
          <path class="cls-10" d="M82.56,271.06c1.12-3.75,2.21-7.54,3-11.38a125.6,125.6,0,0,0,2.38-22.29c0-.21-.3-.2-.34,0-1.92,7.21-3.77,14.44-5.82,21.62-1,3.35-1.79,6.74-2.74,10.1-.88,3.12-2.09,6.08-1.34,9.33a.65.65,0,0,0,1,.32C81,276.71,81.7,274,82.56,271.06Z"/>
          <path class="cls-10" d="M87.48,271.91c1.92-8,4.93-16.44,3.55-24.75,0-.1-.16-.12-.17,0-1,8.76-3.55,17.15-5.89,25.62-1.33,4.82-2.57,9.71-4.22,14.43-1.06,3-2.93,5.85-1.8,9.08a.74.74,0,0,0,1.36.08C83.85,288.71,85.53,280.06,87.48,271.91Z"/>
          <path class="cls-10" d="M73.77,228.78c-4.12,3.22-7,7.85-9.66,12.29-3,5-6.22,10.12-7.3,15.94a.64.64,0,0,0,1.09.53c3.62-4.11,5.85-9.13,8.4-13.93S71.54,233.91,74,229A.18.18,0,0,0,73.77,228.78Z"/>
          <path class="cls-10" d="M69.37,224.59c-3.88,1.93-6.56,5.79-9.36,9a150.91,150.91,0,0,0-9.63,12.71c-2.87,4.14-5.63,8.36-8.32,12.61-2.52,4-6.07,8.42-6.51,13.23,0,.55.6,1.2,1.13.74,3.18-2.7,4.83-6.75,7-10.26,2.78-4.55,5.83-8.93,8.73-13.4,5.35-8.27,10.91-16.79,17.24-24.35C69.78,224.7,69.56,224.49,69.37,224.59Z"/>
          <path class="cls-8" d="M72.75,214.31a.09.09,0,0,0-.13-.12,21,21,0,0,0-4.35,6.52A9.44,9.44,0,0,0,64,223.4a32.77,32.77,0,0,0-5.54,5.93c-.1.16.09.35.23.2a38.53,38.53,0,0,1,9.82-8.08.32.32,0,0,0,.4-.2A28.8,28.8,0,0,1,72.75,214.31Z"/>
          <path class="cls-8" d="M77.17,224.84a.24.24,0,0,0,0-.12c2.13-3.44,3.41-7.47,5-11.17a.11.11,0,1,0-.19-.09,84.79,84.79,0,0,0-5.29,10.89.39.39,0,0,0-.35.22c-2.26,4.85-3.88,10-5.85,15a.07.07,0,0,0,.12.06A59.57,59.57,0,0,0,77.17,224.84Z"/>
          <path class="cls-8" d="M81.29,223.85q1-2.9,2.06-5.8a.09.09,0,0,0-.16-.07l-2.59,5.09c-.44.87-1.36,2-1.29,3a.4.4,0,0,0,.52.34C80.82,226.08,81,224.71,81.29,223.85Z"/>
          <path class="cls-8" d="M94.13,222.81a.11.11,0,0,0-.22,0A52.52,52.52,0,0,1,92,230c-.21.6-.84,1.94.26,1.93a.62.62,0,0,0,.51-.34A20.94,20.94,0,0,0,94.13,222.81Z"/>
          <path class="cls-8" d="M91.57,240a46.08,46.08,0,0,0-.19-8c-.12-.72-1.25-.63-1.12.09a40.36,40.36,0,0,1,.28,6.41,27.59,27.59,0,0,1-.36,6.92c0,.14.18.21.24.08A14,14,0,0,0,91.57,240Z"/>
          <path class="cls-8" d="M86.45,233.27c.17-1.07.59-2.57,0-3.52a.27.27,0,0,0-.45,0,8.11,8.11,0,0,0-.35,3,21.87,21.87,0,0,1-.48,4.91.08.08,0,0,0,.16,0A18.56,18.56,0,0,0,86.45,233.27Z"/>
          <path class="cls-11" d="M95.75,234.65,59.63,217.21a.55.55,0,0,1-.26-.74.56.56,0,0,1,.74-.26l36.13,17.45a.55.55,0,1,1-.49,1Z"/>
          <path class="cls-12" d="M94.9,200.24l-7.64-4.08a.65.65,0,0,1-.28-.89.68.68,0,0,1,.9-.27l7.62,4.06a.66.66,0,0,1-.6,1.18Z"/>
          <path class="cls-12" d="M86,198.56a.66.66,0,0,1,.47-1.23L95,199.71a.67.67,0,0,1,.46.82.65.65,0,0,1-.81.45l-8.52-2.38Z"/>
          <path class="cls-12" d="M85.63,199.51a.66.66,0,0,1-.34-.81.67.67,0,0,1,.84-.41l8.25,2.88a.66.66,0,0,1-.44,1.25l-8.24-2.88Z"/>
          <path class="cls-12" d="M92.73,205.06l-7.88-3.95a.67.67,0,0,1-.3-.89.66.66,0,0,1,.89-.29l7.88,3.94a.66.66,0,0,1-.59,1.19Z"/>
          <path class="cls-12" d="M92,206.55l0,0L84.15,202a.67.67,0,0,1-.24-.91.68.68,0,0,1,.9-.24l7.85,4.51a.66.66,0,0,1-.62,1.17Z"/>
        </g>
      </g>
    </g>
  </g>
</svg>
