<svg id="Layer_1" data-name="Layer 1" xmlns="http://www.w3.org/2000/svg" width="350.88" height="400.16" viewBox="0 0 350.88 400.16">
  <defs>
    <style>
      .cls-1 {
        fill: #ff0;
      }

      .cls-2 {
        fill: #efad1b;
      }

      .cls-2, .cls-3, .cls-4 {
        stroke: #e8880a;
      }

      .cls-2, .cls-3, .cls-4, .cls-6 {
        stroke-miterlimit: 10;
      }

      .cls-3, .cls-7 {
        fill: #ff8500;
      }

      .cls-4 {
        fill: #fc0;
      }

      .cls-5 {
        fill: #ffeb00;
      }

      .cls-6 {
        stroke: #b76706;
      }

      .cls-8 {
        fill: #cf7100;
      }

      .cls-9 {
        fill: #ffa400;
      }

      .cls-10 {
        fill: #ffc400;
      }
    </style>
  </defs>
  <g>
    <path class="cls-1" d="M141.64,137.06c1.89-4.34,5.58-8.26,11-11.67a66.39,66.39,0,0,1,10.27-5.08,83.58,83.58,0,0,1,13.55-3.9,6.29,6.29,0,0,0,5.07-5.21,6.2,6.2,0,0,0-3.23-6.4,102.61,102.61,0,0,0-11.56-5.43,37.76,37.76,0,0,0,1.58-4.22c.25-.75.44-1.4.6-2,2.44-9.32,1.37-17.88-3.1-24.73-8.28-12.71-22.71-18.46-35.44-23.54l-4.05-1.63c-17.5-7.23-35-15.56-39.82-30.84a6.36,6.36,0,0,0-12.27.67c-2,10.24,3.83,20.92,7.49,26.38A83.29,83.29,0,0,0,99.23,58a88.47,88.47,0,0,1-19.16-4A79.11,79.11,0,0,1,57.39,42.13a46.86,46.86,0,0,1-7.24-6.43,6.43,6.43,0,0,0-10.62,1.4,6.19,6.19,0,0,0,.86,6.62,29.33,29.33,0,0,1,1.86,2.63C51.15,60,55.34,77.5,54.08,95.8A83.1,83.1,0,0,0,38.85,75.58c-4.64-4.42-14-11.84-24.23-11.84h-.48a6.36,6.36,0,0,0-2.74,12c14.23,7.33,19.5,26,23.67,44.42q.47,2.11.93,4.29c2.86,13.4,6.1,28.6,17.23,38.9,5.22,4.83,12.26,7.38,20.35,7.38,1.15,0,2.33,0,3.51-.16a49.2,49.2,0,0,0,6.53-1.1A100.77,100.77,0,0,0,87,181.74a6.2,6.2,0,0,0,5.89,4.31A6.3,6.3,0,0,0,98.75,182a85,85,0,0,1,6.14-12.72,66.91,66.91,0,0,1,6.69-9.23c4.07-4.52,8.29-7.44,12.61-8.71L313,381.62l.39.49c.51.64,1.26,1.57,1.37,1.69,4.73,5.48,9.94,8.37,15.07,8.37h0a12.78,12.78,0,0,0,8.68-3.37c6.5-5.86,5.61-17.37-2-26.22ZM92.3,132a12.12,12.12,0,0,1-6.24,2.64,9.23,9.23,0,0,1-1.48.12c-4.49,0-8.8-3.5-11.63-6.44-6.62-6.88-11-16.12-15.17-25.13a6.57,6.57,0,0,0,2.64.55,6.23,6.23,0,0,0,5.7-3.58,10.35,10.35,0,0,1,2.69-3.41,4,4,0,0,1,2.67-1,9.76,9.76,0,0,1,4.92,1.75c4.06,2.56,7.34,6.44,10.81,10.56l9,10.62a6.22,6.22,0,0,0-.65,9.1c.22.25.56.59,1,1A37,37,0,0,0,92.3,132ZM132,95.92a12.22,12.22,0,0,1-3.65,5.69,36.33,36.33,0,0,0-3.92,3.63q-.54-.81-1-1.35a6.09,6.09,0,0,0-8.92-.72l-9.69-11.48c-4.14-4.91-7.65-9.38-8.64-14.34-.73-3.63,2.1-6.14,5.21-7A6.23,6.23,0,0,0,106,63.78a6.46,6.46,0,0,0-.16-1c8.15,5.62,16.48,11.47,22.12,19.12C131.94,87.35,133.3,92.05,132,95.92Z"/>
    <g>
      <path class="cls-2" d="M127.32,129.67,332,366.51c5.41,6.25,6.55,14.24,2.56,17.83s-9.79,1.79-15.19-4.46c-.14-.16-1.5-1.88-1.64-2L119.55,136.18c-2.73-3.35-3.14-7.46-.93-9.18S124.6,126.53,127.32,129.67Z"/>
      <g>
        <g>
          <path class="cls-3" d="M41.15,118.7C36.75,99,29.51,77.49,14.23,70.09c0,0,21.27-.69,38.32,36.7,14.39,31.54,27.88,39.68,42.77,31.06,8.34-9,21.47-8.88,21.47-8.88l13.06,15.26c-23-1.11-36.92,35.49-36.92,35.49a76.79,76.79,0,0,1-4.17-18.38,52.36,52.36,0,0,1-10.83,2.75C50.55,168,45.55,138.44,41.15,118.7Z"/>
          <path class="cls-4" d="M15,70.12c3.86.27,22.39,3.35,37.58,36.67,14.39,31.54,27.88,39.68,42.77,31.06,4.84-5.22,11.27-7.37,15.83-8.26l5.28,4.73s-16.27,17.3-32,18.87c-7.49.76-14.09-.83-19.59-5.81-18-16.3-16.09-40.9-32.51-64.4A36,36,0,0,0,15,70.12Z"/>
          <path class="cls-5" d="M116.43,134.32a74,74,0,0,1-6.85,6.75A80.19,80.19,0,0,1,102,147a53.39,53.39,0,0,1-8.5,4.74,31.45,31.45,0,0,1-9.52,2.56,28.4,28.4,0,0,1-9.92-.61,23.52,23.52,0,0,1-9-4.48,48.62,48.62,0,0,1-12.07-15.47,130.17,130.17,0,0,1-7-18.05c-2-6.09-4-12.12-6.48-18-1.24-2.91-2.64-5.76-4.16-8.53-.76-1.39-1.57-2.76-2.41-4.1a41.11,41.11,0,0,0-2.69-3.88,33.2,33.2,0,0,0-6.83-6.5A41.84,41.84,0,0,0,15,70.12,36,36,0,0,1,31.18,80.36,76.93,76.93,0,0,1,41.35,96.87a187.68,187.68,0,0,1,7,18,132.69,132.69,0,0,0,7,17.65,46.81,46.81,0,0,0,11.27,14.7,21,21,0,0,0,8,4.18,27.66,27.66,0,0,0,9.13.8,30.72,30.72,0,0,0,9-2.1,52.87,52.87,0,0,0,8.46-4.2A91.38,91.38,0,0,0,116.43,134.32Z"/>
          <path class="cls-6" d="M41.37,118.55c-2.73-12-6.16-24.14-12.59-34.8a40.84,40.84,0,0,0-10-11.24c-1.49-1.15-2.82-2.11-4.58-2.09a8.46,8.46,0,0,1,.87,0c12.6,1,22.82,12.42,29.34,22.11,10.16,15.09,14.8,38.27,32.5,47.05,5,2.49,10.58,2.11,15.62,0,4.47-1.89,7.49-5.72,12-7.72a32.46,32.46,0,0,1,11.87-2.57c1,0,3.72,4.12,4.41,4.93l7.36,8.6c.31.37.63.73.94,1.09.83,1,.26,0-.39-.06a22,22,0,0,0-6.13.89C118,146,114,149,110.45,152.16c-6.39,5.82-11.12,13.51-15,21.19-1,2-1.87,3.94-2.67,6,0,.09-.08.19-.11.28.59-1.54-1.08-4.76-1.5-6.27a68.54,68.54,0,0,1-2.22-12c0-.13-.12-.32-.27-.26-13.83,4.88-27.62,4.26-36.28-8.74-6.56-9.85-8.57-22.38-11.08-33.72-.1-.43-.51,0-.44.31,3,13.74,5.52,30,16.37,40.08,5.27,4.88,12.32,6.26,19.27,5.66a47,47,0,0,0,6.23-1.1c1.54-.35,3-.83,4.54-1.31,1.8-.58,1.51,2.15,1.63,3a82.84,82.84,0,0,0,3.74,14.71c.1.29.36.18.44,0,5.78-15.11,18.37-35.69,36.67-35.26.3,0,.32-.45.17-.62l-10.33-12.08c-.4-.46-2.18-3.24-2.85-3.24a33.6,33.6,0,0,0-7.66,1.07,29.49,29.49,0,0,0-12.86,6.77A18,18,0,0,1,87,140.55c-7.25,1.2-13.63-3.1-18.42-8.08-7.41-7.71-12.14-17.84-16.58-27.42C47.75,95.8,42.13,87,34.72,79.93c-5.13-4.88-13-10.36-20.46-10.18-.3,0-.37.53-.12.66,17.2,8.85,22.86,31.08,26.79,48.45C41,119.29,41.44,118.87,41.37,118.55Z"/>
          <path class="cls-6" d="M71.63,163.31c4.83,2,11.51-.13,16-1.91a65.24,65.24,0,0,0,16.3-9.69c3.45-2.75,6.55-6,10.13-8.54a19.88,19.88,0,0,1,11.63-3.79c.3,0,.43.37.08.38a19.8,19.8,0,0,0-12.31,4.45c-3.8,3-7.22,6.42-11.11,9.31-7.47,5.54-17,10.94-26.58,10.78a12,12,0,0,1-4.33-.66c-.33-.13-.07-.45.2-.33Z"/>
        </g>
        <g>
          <path class="cls-3" d="M123.83,49C105.12,41.3,85.16,30.54,80.44,14.23c0,0-4.26,20.85,29.73,44,28.67,19.49,34.41,34.16,23.4,47.39-10.28,6.71-12.37,19.66-12.37,19.66l12.85,15.45c2.78-22.89,41.2-30.41,41.2-30.41a76.86,76.86,0,0,0-17.42-7.21,52.14,52.14,0,0,0,4.54-10.21C170.82,66.53,142.54,56.61,123.83,49Z"/>
          <path class="cls-4" d="M80.35,15c-.38,3.86-.47,22.64,29.82,43.23,28.67,19.49,34.41,34.16,23.4,47.39-5.95,3.89-9.15,9.86-10.8,14.21,2.33,3.73,3.77,6,3.77,6s19.79-13.13,24-28.35c2-7.25,1.55-14-2.43-20.29-13-20.54-37.61-22.75-58-42.9A36,36,0,0,1,80.35,15Z"/>
          <path class="cls-5" d="M126.54,125.8a75.29,75.29,0,0,0,7.81-5.62,81.24,81.24,0,0,0,7.13-6.52,53.36,53.36,0,0,0,6.1-7.59,31.66,31.66,0,0,0,4.13-8.94,28.37,28.37,0,0,0,1.07-9.89,23.6,23.6,0,0,0-2.9-9.62,48.92,48.92,0,0,0-13.21-14.51,131.29,131.29,0,0,0-16.61-10c-5.67-3-11.27-6-16.61-9.41q-4-2.58-7.71-5.54-1.86-1.48-3.63-3.06a42.32,42.32,0,0,1-3.38-3.31A33.27,33.27,0,0,1,83.48,24a41.71,41.71,0,0,1-3.13-9,35.87,35.87,0,0,0,7.37,17.71,76.35,76.35,0,0,0,14.55,12.8,184.93,184.93,0,0,0,16.57,9.91A134.26,134.26,0,0,1,135,65.29a46.74,46.74,0,0,1,12.6,13.59,21,21,0,0,1,2.77,8.57,27.66,27.66,0,0,1-.74,9.13,30.74,30.74,0,0,1-3.6,8.56,52.8,52.8,0,0,1-5.57,7.63A91.77,91.77,0,0,1,126.54,125.8Z"/>
          <path class="cls-6" d="M123.64,49.14C112.22,44.43,100.88,39,91.46,30.87a40.82,40.82,0,0,1-9.41-11.7c-.88-1.66-1.6-3.13-1.28-4.86a8.58,8.58,0,0,0-.1.87c-1.14,12.58,8.4,24.58,16.85,32.64,13.17,12.56,35.23,21,40.91,40,1.6,5.36.29,10.78-2.67,15.39-2.62,4.09-6.9,6.42-9.64,10.58A32.38,32.38,0,0,0,121.59,125c-.2,1,3.44,4.37,4.11,5.19l7.24,8.7c.31.37.61.74.92,1.1.82,1-.09.25,0-.39a21.79,21.79,0,0,1,1.92-5.88c2-4.38,5.61-7.9,9.35-10.82,6.81-5.33,15.19-8.69,23.41-11.17,2.08-.62,4.19-1.18,6.32-1.64l.3,0c-1.62.32-4.52-1.87-5.93-2.54a69.28,69.28,0,0,0-11.51-4.22c-.12,0-.29-.16-.21-.31,7.14-12.8,8.86-26.5-2.5-37.23-8.6-8.12-20.61-12.22-31.37-16.61-.41-.16.08-.5.38-.38,13,5.33,28.68,10.51,36.75,22.9,3.92,6,4.09,13.19,2.33,20a46.84,46.84,0,0,1-2.13,6c-.6,1.46-1.33,2.86-2.06,4.26-.88,1.67,1.87,1.84,2.67,2.1a82.94,82.94,0,0,1,13.86,6.17c.27.14.12.38-.12.42-15.87,3.16-38.27,12.09-40.93,30.21,0,.3-.5.23-.64.06l-10.17-12.22c-.38-.47-2.83-2.69-2.71-3.35a33.71,33.71,0,0,1,2.34-7.38,29.55,29.55,0,0,1,8.84-11.53,18,18,0,0,0,5.58-8.43c2.41-7-.76-14-4.86-19.51-6.35-8.61-15.54-15-24.23-21-8.4-5.79-16.14-12.81-21.85-21.31-3.94-5.87-8-14.51-6.59-21.88.06-.29.59-.27.67,0C86.6,32.64,107.56,42,124,48.76,124.43,48.93,123.94,49.27,123.64,49.14Z"/>
          <path class="cls-6" d="M163.1,86.44c1,4.36-1.29,9.61-3.24,13.33a59,59,0,0,1-11,14.34c-3.49,3.47-7.44,6.38-11.17,9.59a20.62,20.62,0,0,0-7.32,12.18c0,.25-.58.16-.53-.09a19.46,19.46,0,0,1,4.93-10c3-3.17,6.68-5.65,10-8.5,7.65-6.64,15.63-15.6,17.6-25.9a12.6,12.6,0,0,0,.2-4.93c0-.26.48-.24.53,0Z"/>
        </g>
      </g>
      <g>
        <path class="cls-4" d="M119.65,136.7,90.26,101.86c-2.61-3.09-8.85-10.26-15.94-12.15-9.23-2.47-14,7.74-14,7.74,3-35.9-15-57.69-15-57.69S63.74,61.26,99.65,64.3c0,0-10.87,3-10,12.47.67,7.3,6.68,14.66,9.29,17.76l29.39,34.84Z"/>
        <path class="cls-7" d="M89.66,76.77c.67,7.3,6.68,14.66,9.29,17.76l29.39,34.84L124,133,45.31,39.76S63.74,61.26,99.65,64.3C99.65,64.3,88.78,67.25,89.66,76.77Z"/>
        <path class="cls-5" d="M124,133l-.84-1.09-2.38-3.06c-2.06-2.63-5-6.37-8.61-10.83-1.79-2.23-3.73-4.64-5.81-7.18s-4.25-5.22-6.53-8-4.62-5.61-7-8.48L85.48,85.7,78.11,77c-2.42-2.87-4.85-5.65-7.18-8.37s-4.6-5.32-6.75-7.79-4.2-4.79-6.1-6.94c-3.78-4.29-7-7.83-9.22-10.3l-2.62-2.86-.93-1,.84,1.08,2.38,3.07c2.06,2.62,5,6.37,8.6,10.82,1.8,2.23,3.74,4.65,5.82,7.18s4.25,5.23,6.53,8,4.62,5.62,7,8.49l7.31,8.72,7.37,8.68c2.42,2.86,4.85,5.65,7.18,8.36s4.6,5.32,6.76,7.79,4.2,4.8,6.09,6.94c3.79,4.29,7,7.83,9.22,10.31l2.62,2.86C123.68,132.68,124,133,124,133Z"/>
        <path class="cls-6" d="M119.36,136.84l-17.5-20.73L91.79,104.17c-3.65-4.33-7.35-8.71-12.19-11.76-4.67-2.94-10.06-4-14.6-.3a16.1,16.1,0,0,0-4.3,5.48c-.14.28-.75.11-.72-.2C61.49,78.65,57.65,59,47.28,43.07A37.17,37.17,0,0,0,45,39.9c-.3-.36.36-.54.59-.28a52.39,52.39,0,0,0,8.16,7.3,85.69,85.69,0,0,0,24.4,12.73A94.24,94.24,0,0,0,99.69,64c.33,0,.46.42.11.52-6.34,1.76-10.86,7.24-9.51,14,1.32,6.55,5.74,12,9.94,17l21.33,25.27,7.08,8.4c.08.1.12.23,0,.33L120,136.89c-.25.21-.92-.1-.6-.38l6.39-5.39,1.6-1.34c.34-.29.62-.8.7-.28,0-.23-.55-.65-.7-.82q-5.78-6.87-11.57-13.72l-14-16.56c-4.25-5-8.75-10.05-11.17-16.28-1.8-4.61-2.13-9.66,1.39-13.53A16.23,16.23,0,0,1,99.5,64c0,.18.07.35.1.52-18.86-1.67-37.77-8.84-51.78-21.84A35.47,35.47,0,0,1,45,39.9l.59-.28a52.9,52.9,0,0,1,6,9.6,86.47,86.47,0,0,1,8.5,26.83,95.18,95.18,0,0,1,.61,21.47l-.72-.2c2.23-4.72,7-8.73,12.48-8.22,7.48.72,13.63,7.37,18.2,12.76Q101.33,114.48,112,127.1q4,4.72,8,9.46C120.25,136.92,119.58,137.1,119.36,136.84Z"/>
      </g>
      <g>
        <path class="cls-8" d="M112.73,113.9c2.34,2.55,1.64,4.53.07,5.86s-3.64,1.68-5.77-1.05c-2.45-3.13-2.24-8.42-2.24-8.42S110,111,112.73,113.9Z"/>
        <path class="cls-9" d="M110.18,117.86c-.49.28-1.63,1-3.34-1.24a11.85,11.85,0,0,1-1.91-6,11.69,11.69,0,0,1,5.6,2.88,3.69,3.69,0,0,1,1.17,2.37,2.35,2.35,0,0,1-1,1.6A3,3,0,0,1,110.18,117.86Z"/>
        <path class="cls-10" d="M108.14,115c-.25.15-.64.37-1.65-.92a8.32,8.32,0,0,1-1.35-3.31,8.18,8.18,0,0,1,3,1.89c.68.74.84,1.23.83,1.4s-.15.37-.51.68A2.47,2.47,0,0,1,108.14,115Z"/>
        <g>
          <path class="cls-8" d="M108.15,120.45c3.46.15,4.36,2,4.19,4.1s-1.38,3.76-4.82,3.34c-4-.49-7.53-4.38-7.53-4.38S104.18,120.28,108.15,120.45Z"/>
          <path class="cls-9" d="M108.75,126.19a4,4,0,0,1-2.4.28,11.83,11.83,0,0,1-5.6-2.89l.2-.12a11.88,11.88,0,0,1,5.81-1.81,3.7,3.7,0,0,1,2.5.86,2.36,2.36,0,0,1,.44,1.82C109.58,125.71,109,126.07,108.75,126.19Z"/>
          <path class="cls-10" d="M105.89,124.88a3,3,0,0,1-1.58.11,8.38,8.38,0,0,1-3.29-1.38,8.23,8.23,0,0,1,3.48-.82,2.54,2.54,0,0,1,1.57.41,1.24,1.24,0,0,1,.12.84C106.17,124.3,106.1,124.75,105.89,124.88Z"/>
          <path class="cls-8" d="M114.25,115.3c-.43,3.44,1.29,4.65,3.35,4.82s3.93-.74,4.09-4.2c.18-4-3.06-8.16-3.06-8.16S114.74,111.35,114.25,115.3Z"/>
          <path class="cls-9" d="M119.35,117.16a2.64,2.64,0,0,1-1.56.27,2.39,2.39,0,0,1-1.72-.74,3.68,3.68,0,0,1-.43-2.61,11.93,11.93,0,0,1,2.9-5.6,11.73,11.73,0,0,1,1.92,6c-.06,1.39-.43,2.29-1.11,2.68Z"/>
          <path class="cls-10" d="M118.84,114a1.45,1.45,0,0,1-.8.08,1.24,1.24,0,0,1-.8-.26,2.42,2.42,0,0,1-.15-1.61,8.28,8.28,0,0,1,1.39-3.31,8.07,8.07,0,0,1,.81,3.49C119.25,113.47,119,113.91,118.84,114Z"/>
        </g>
        <g>
          <g>
            <path class="cls-8" d="M109.16,127.9c3.43-.55,4.69,1.13,4.93,3.18s-.61,4-4.06,4.23c-4,.31-8.26-2.79-8.26-2.79S105.24,128.52,109.16,127.9Z"/>
            <path class="cls-9" d="M110.64,133.64a4.65,4.65,0,0,1-2,.51,11.76,11.76,0,0,1-6.06-1.72,16,16,0,0,1,2.67-2,8.34,8.34,0,0,1,2.83-1.08,3.63,3.63,0,0,1,2.62.34,2.38,2.38,0,0,1,.79,1.69C111.71,132.84,111.11,133.37,110.64,133.64Z"/>
            <path class="cls-10" d="M107.93,132.8a3.56,3.56,0,0,1-1.41.34,8.38,8.38,0,0,1-3.51-.7c.28-.2.58-.39.89-.58a7,7,0,0,1,2.37-.91,2.56,2.56,0,0,1,1.62.08,1.32,1.32,0,0,1,.29.8C108.27,132.6,108.07,132.71,107.93,132.8Z"/>
          </g>
          <g>
            <path class="cls-8" d="M121.42,117.54c-1.11,3.29.34,4.81,2.31,5.39s4,.06,4.86-3.29c1-3.86-1.38-8.61-1.38-8.61S122.69,113.77,121.42,117.54Z"/>
            <path class="cls-9" d="M126.39,120.34a2.33,2.33,0,0,1-1.88.07,2.36,2.36,0,0,1-1.53-1.06,3.65,3.65,0,0,1,.1-2.64,11.67,11.67,0,0,1,4-4.91,11.62,11.62,0,0,1,.69,6.26,3.72,3.72,0,0,1-1.33,2.28Z"/>
            <path class="cls-10" d="M126.32,117.2a1.28,1.28,0,0,1-.85-.06c-.45-.13-.68-.29-.74-.41a2.53,2.53,0,0,1,.19-1.61,8.18,8.18,0,0,1,2-3,8.33,8.33,0,0,1,.1,3.58A2.64,2.64,0,0,1,126.32,117.2Z"/>
          </g>
        </g>
        <path class="cls-6" d="M112.64,114.06c1.49,1.78,2,3.82.1,5.52a3.6,3.6,0,0,1-2.83,1c-3.22-.28-4.45-5-4.82-7.54a17.21,17.21,0,0,1-.16-2.48c0-.2,0-.21-.1,0l.71.13a13.59,13.59,0,0,1,7.1,3.44c.16.16.3-.21.17-.33a14.16,14.16,0,0,0-8-3.64c-.09,0-.15.11-.15.19-.12,3.72,1,9.58,5.22,10.65,1.7.43,3.41-1.12,4.17-2.47.93-1.65-.18-3.47-1.24-4.73C112.67,113.56,112.53,113.93,112.64,114.06Z"/>
        <g>
          <path class="cls-6" d="M108.13,120.65c2,.17,3.78.86,4.08,3.08a3.43,3.43,0,0,1-2.79,4c-2.87.63-5.92-1.36-8-3.09a15.83,15.83,0,0,1-1.27-1.18c-.16-.17-.21.34,0,.19l.69-.47a13.33,13.33,0,0,1,7.31-2.49c.19,0,.22-.39,0-.4a14,14,0,0,0-8.24,3.08.25.25,0,0,0,0,.34c2.28,2.44,7.06,5.94,10.56,4.12,1.61-.84,2.09-2.41,2-4.14-.08-2.38-2.27-3.23-4.31-3.4C108,120.24,107.94,120.63,108.13,120.65Z"/>
          <path class="cls-6" d="M114.12,115.28c-.18,2,.16,3.89,2.16,4.76,1.53.66,3.89.35,4.76-1.21,2-3.59-.06-8.26-2.33-11.23,0-.07-.12,0-.17,0a14,14,0,0,0-4.42,7.67c0,.25.23.27.27,0a13.09,13.09,0,0,1,3.3-6.32,14.38,14.38,0,0,1,1-1.06c-.16.16.57,1,.72,1.29,1.62,2.61,2.87,6,1.65,9-.65,1.6-2.39,1.87-3.88,1.68-2.37-.29-3-2.45-2.79-4.55C114.41,115.06,114.14,115,114.12,115.28Z"/>
        </g>
        <g>
          <path class="cls-6" d="M109.18,128.09c2-.23,3.83.08,4.59,2.16.91,2.45-.69,4.24-3,4.76-2.5.58-5.21-.54-7.38-1.69a16.65,16.65,0,0,1-1.5-.91c-.2-.14-.17.35,0,.13l.55-.57a13.41,13.41,0,0,1,6.66-3.88c.18,0,.16-.43,0-.39a14,14,0,0,0-7.45,4.67.24.24,0,0,0,0,.34c2.65,1.88,8.64,4.64,11.46,1.66a4.37,4.37,0,0,0,.7-4.72c-.74-2-2.94-2.15-4.74-2C109,127.72,109,128.11,109.18,128.09Z"/>
          <path class="cls-6" d="M121.29,117.48c-.57,2-.6,3.86,1.21,5.13a3.89,3.89,0,0,0,5.19-.6c2.48-2.88,1.09-8.1-.37-11.11a.1.1,0,0,0-.16-.05,14.06,14.06,0,0,0-5.87,6.63c-.08.2.17.37.26.13a13.31,13.31,0,0,1,4.68-5.69c.3-.23,1-.56.88-.74a14.4,14.4,0,0,1,.66,1.64c1,2.83,1.5,6.25-.25,8.89-1,1.43-2.72,1.37-4.15.89-2.24-.75-2.41-3-1.82-5C121.61,117.39,121.37,117.23,121.29,117.48Z"/>
        </g>
        <path class="cls-9" d="M125.73,120.52c3.81,4,1.41,8.19-2.55,11.54s-8.51,5-11.8.58c-3.77-5.06-.89-15.6-.89-15.6S121.35,116,125.73,120.52Z"/>
        <path class="cls-8" d="M126.15,121c2.48,6.12-9.18,11.56-12.41,7.08-2.84-3.94-1.83-9.74-1.83-9.74a82.42,82.42,0,0,1,9.51-.33,31.56,31.56,0,0,0-10.93-1s-2.88,10.54.89,15.6c3.29,4.41,7.84,2.77,11.8-.58C127,128.85,129.32,124.84,126.15,121Z"/>
        <path class="cls-6" d="M125.64,120.69c5,5.6-2.1,12.33-7.51,14.13-7.29,2.43-8.82-7.23-8.44-12.18a32.11,32.11,0,0,1,.86-5.25c.09-.37-.15-.15.18-.18.61,0,1.21-.06,1.82-.08,4.42-.1,9.75.35,13.09,3.56.16.15.3-.21.17-.33-3.82-3.67-10.3-4-15.3-3.52a.18.18,0,0,0-.15.13c-1.5,5.59-2.75,16.93,5,18.49,4.06.81,8.47-3.28,10.7-6.16a6.55,6.55,0,0,0-.25-8.94C125.67,120.19,125.52,120.56,125.64,120.69Z"/>
        <path class="cls-10" d="M114.79,119s5.4-.59,8.38,1.32c3.26,2.09,2.06,5.59-.87,6.68s-.67-1.91-.77-3.69S117.18,119.31,114.79,119Z"/>
        <g>
          <path class="cls-9" d="M134.08,127.23a2.52,2.52,0,0,1-.21,3.54,69.62,69.62,0,0,0-13.12,11.91c-.79.94-2.33.86-3.47-.2l-.41-.39a2.81,2.81,0,0,1-.54-3.75,73.44,73.44,0,0,1,13.85-12.57,2.68,2.68,0,0,1,3.58,1C133.86,126.92,134,127.07,134.08,127.23Z"/>
          <path class="cls-8" d="M134.08,127.23l-.08-.12c-3.08,4.88-16.34,14.27-14.44,10.07,2.06-4.52,11.55-11.52,11.55-11.52a1.07,1.07,0,0,0-.26-.17,1.8,1.8,0,0,0-.67.28,73.44,73.44,0,0,0-13.85,12.57,2.81,2.81,0,0,0,.54,3.75l.41.39c1.14,1.06,2.68,1.14,3.47.2a70.12,70.12,0,0,1,9.79-9.08c1.16-.93,2.12-2,3.33-2.83A2.52,2.52,0,0,0,134.08,127.23Z"/>
          <path class="cls-6" d="M133.92,127.33c1.69,3.45-6.47,8-8,9.52-1.16,1.07-6.71,8.15-8.46,5.45-3-4.57,3.26-8.2,5.13-10,1.33-1.24,8.36-9.23,11.42-4.93.27.38.44-.08.25-.35a3.76,3.76,0,0,0-3.24-1.94c-1.15-.09-2.22,1.28-3,1.82-1.68,1.24-3.26,2.58-4.83,3.95a75.79,75.79,0,0,0-7,7.19,2.9,2.9,0,0,0-.08,3.31c1.32,1.72,1.6,2.35,3.31,2.35a2.54,2.54,0,0,0,1.55-.78q2.49-2.87,5.22-5.49c2.42-2.32,5.71-3.9,7.9-6.42.93-1.07,1.12-2,.2-3.92C134,126.69,133.76,127,133.92,127.33Z"/>
        </g>
      </g>
    </g>
  </g>
</svg>
