<svg id="Layer_1" data-name="Layer 1" xmlns="http://www.w3.org/2000/svg" width="299.05" height="256.23" viewBox="0 0 299.05 256.23">
  <defs>
    <style>
      .cls-1 {
        fill: #ff0;
      }

      .cls-2 {
        fill: #9b0000;
      }

      .cls-3 {
        fill: #ebb386;
      }

      .cls-4 {
        fill: #edd8bf;
      }

      .cls-5 {
        fill: red;
      }

      .cls-6 {
        fill: #ff8989;
      }
    </style>
  </defs>
  <g>
    <path class="cls-1" d="M128.73,57.15c-.47,1.69-1,3.78-1.53,6.25-.9,3.85-2,8.65-3.49,13.69a81.09,81.09,0,0,1-5.47,13.34c-.77,1.58-1.5,3.08-2.13,4.53a24,24,0,0,0-1.88,9.59c-1.4,3.21-1.7,7-2.18,13.22-.33,4.19-.77,9.94-1.71,17.78-2,16.41-3.82,20.92-10.06,25.77l-.4-.2a5.84,5.84,0,0,0-1-.5L98,160.3l-.54-.2-.41-.12-.11,0-.58-.17c-.47-.12-1-.22-1.48-.31l-.54-.07c-.39,0-.78-.08-1.17-.09l-.47,0h-.34c-.36,0-.71,0-1,.07l-.32,0c-.33,0-.66.09-1,.16l-.64.16-.59.17a10.54,10.54,0,0,0-1.24.48,12.34,12.34,0,0,0-4.48,3.46h0l-.51,0h0l-.38,0a12.26,12.26,0,0,0-3.94,1A12.39,12.39,0,0,0,74,168a11.68,11.68,0,0,0-1.87.25,12,12,0,0,0-6.84,4c-.24,0-.48,0-.72,0a12.19,12.19,0,0,0-5.1,1.08l-.23.11c-2.4,1.1-6.16,3.81-7.64,10.25-17.76,6.72-34.16,12.34-36.1,13l-.31.1a6,6,0,0,0-4.09,6.08l0,.33c1.08,16.89,6.89,27.07,11.57,32.64C27.91,242,33,244.23,34,244.61l.3.12a6.08,6.08,0,0,0,2.1.37,6,6,0,0,0,2.92-.76l32.09-17.87a15.93,15.93,0,0,0,7.1,1.78,12.41,12.41,0,0,0,5.17-1.1l.17-.08A12.38,12.38,0,0,0,88,224h.71a12.45,12.45,0,0,0,2.66-.28,11.42,11.42,0,0,0,6.72-4,12.2,12.2,0,0,0,9-4.52,12.42,12.42,0,0,0,4.81-1.09c4.31-1.94,7.16-6.22,8-12l0-.16c0-.34.09-.68.12-1,.06-.54.1-1.1.13-1.69,0-.06,0-.13,0-.19,9.8-5.78,16.58-10.19,20.19-13.12a38.74,38.74,0,0,0,9.17-11,38.57,38.57,0,0,0,9.17,11c3.6,2.93,10.37,7.33,20.16,13.1,0,.5.07,1,.13,1.46.78,9,5.47,12.38,8.22,13.62a12.51,12.51,0,0,0,4.81,1.08,12.51,12.51,0,0,0,4.49,3.46,12.37,12.37,0,0,0,4.54,1.07,12.33,12.33,0,0,0,4.2,3.13,12.21,12.21,0,0,0,5.13,1.09h.71a12.29,12.29,0,0,0,9.35,4.23,15.83,15.83,0,0,0,7.11-1.79l32.3,18a6,6,0,0,0,2.85.72,5.91,5.91,0,0,0,2.07-.37l.35-.13c1-.38,6.05-2.62,11.2-8.74,4.68-5.57,10.49-15.74,11.57-32.66l0-.33a6,6,0,0,0-4.08-6.06l-.34-.11c-1.91-.65-18.25-6.26-36-13-1.37-6.93-5.35-9.77-7.84-10.9a12.39,12.39,0,0,0-5.12-1.09c-.31,0-.62,0-.93,0a12.42,12.42,0,0,0-4.34-3.28,12.13,12.13,0,0,0-4.31-1,12.2,12.2,0,0,0-9.08-4.21,12.21,12.21,0,0,0-9.6-4.54,14.85,14.85,0,0,0-4.76.82l-.63.22-.62.24a4.82,4.82,0,0,0-.76.36c-.4.19-.79.39-1.18.61-5.81-4.67-7.7-9.38-9.62-25.41-.93-7.79-1.38-13.53-1.71-17.78-.48-6.23-.78-10-2.18-13.22A23.82,23.82,0,0,0,182.94,95c-.62-1.44-1.35-2.93-2.15-4.58a80.45,80.45,0,0,1-5.44-13.29c-1.49-5.08-2.61-9.88-3.51-13.73-.53-2.3-1-4.48-1.51-6.2-.13-.48-.27-.95-.42-1.46l0-.14c-1-3.26-2.42-8.17-4.76-25.47.47-7.57-.48-13-2.84-16.11l-.34-.46a6,6,0,0,0-4.8-2.39h0a6,6,0,0,0-4.8,2.42l-.41.54c-.13.19-.4.58-.72,1.15a12.3,12.3,0,0,0-1.66.84,12.42,12.42,0,0,0-1.67-.84,10.87,10.87,0,0,0-.78-1.22h0l-.34-.47A6,6,0,0,0,142,11.13h0a6,6,0,0,0-4.79,2.38l-.34.46c-2.37,3.13-3.32,8.55-2.85,16.12-2.33,17.3-3.79,22.21-4.75,25.46C129,56.11,128.87,56.62,128.73,57.15Z"/>
    <g>
      <g>
        <g>
          <path class="cls-2" d="M110.07,182.58c5.23,11.61,4.85,23.1-.86,25.68s-14.59-4.75-19.83-16.35-4.84-23.1.87-25.68S104.84,171,110.07,182.58Z"/>
          <path d="M106.73,209.21c-5.9,0-13.19-7-17.74-17.12a38.16,38.16,0,0,1-3.71-16.42c.17-5,1.87-8.51,4.79-9.83a6.41,6.41,0,0,1,2.66-.56c5.89,0,13.19,7,17.73,17.12a38.16,38.16,0,0,1,3.71,16.42c-.16,5-1.87,8.52-4.79,9.83A6.36,6.36,0,0,1,106.73,209.21Zm-14-43.06a5.48,5.48,0,0,0-2.3.48c-5.49,2.47-5.78,13.73-.65,25.1,4.34,9.63,11.47,16.61,17,16.61a5.54,5.54,0,0,0,2.3-.48c5.48-2.47,5.77-13.73.65-25.1C105.33,173.13,98.21,166.15,92.73,166.15Z"/>
        </g>
        <g>
          <path class="cls-2" d="M82,195.56c5.23,11.6,4.85,23.1-.87,25.67s-14.58-4.74-19.82-16.35-4.84-23.1.87-25.67S76.72,184,82,195.56Z"/>
          <path d="M78.62,222.18c-5.9,0-13.19-7-17.74-17.12a38.16,38.16,0,0,1-3.71-16.42c.17-5,1.87-8.51,4.79-9.83a6.39,6.39,0,0,1,2.65-.55c5.9,0,13.2,7,17.74,17.12a38.16,38.16,0,0,1,3.71,16.42c-.17,5-1.87,8.51-4.79,9.83A6.35,6.35,0,0,1,78.62,222.18Zm-14-43.06a5.46,5.46,0,0,0-2.29.48c-5.49,2.47-5.78,13.74-.65,25.11,4.34,9.62,11.47,16.61,17,16.61a5.54,5.54,0,0,0,2.3-.48c5.48-2.47,5.77-13.74.65-25.11C77.22,186.11,70.09,179.12,64.61,179.12Z"/>
        </g>
        <g>
          <path class="cls-2" d="M92,191.34c5.24,11.6,4.85,23.1-.86,25.68s-14.59-4.75-19.82-16.35-4.85-23.1.86-25.68S86.78,179.73,92,191.34Z"/>
          <path d="M88.67,218c-5.9,0-13.19-7-17.74-17.12a38.44,38.44,0,0,1-3.71-16.41c.17-5,1.87-8.52,4.8-9.83a6.33,6.33,0,0,1,2.65-.56c5.9,0,13.19,7,17.74,17.12a38.31,38.31,0,0,1,3.71,16.42c-.17,5-1.87,8.51-4.79,9.83A6.4,6.4,0,0,1,88.67,218Zm-14-43.06a5.51,5.51,0,0,0-2.3.48c-2.6,1.18-4.12,4.4-4.28,9.08a37.46,37.46,0,0,0,3.63,16c4.34,9.62,11.47,16.61,17,16.61a5.51,5.51,0,0,0,2.3-.48c2.6-1.17,4.13-4.39,4.28-9.07a37.29,37.29,0,0,0-3.63-16C87.28,181.89,80.15,174.9,74.67,174.9Z"/>
        </g>
        <g>
          <path class="cls-2" d="M100.77,187.12c5.24,11.61,4.85,23.11-.86,25.68s-14.59-4.74-19.82-16.35-4.85-23.1.86-25.68S95.54,175.52,100.77,187.12Z"/>
          <path d="M97.43,213.75c-5.9,0-13.19-7-17.74-17.12A38.31,38.31,0,0,1,76,180.21c.17-5,1.87-8.51,4.79-9.83a6.41,6.41,0,0,1,2.66-.56c5.9,0,13.19,7,17.74,17.12a38.48,38.48,0,0,1,3.71,16.42c-.17,5-1.88,8.52-4.8,9.83A6.33,6.33,0,0,1,97.43,213.75Zm-14-43.06a5.51,5.51,0,0,0-2.3.48c-5.49,2.47-5.78,13.73-.65,25.1,4.34,9.63,11.47,16.62,17,16.62a5.52,5.52,0,0,0,2.3-.49c2.6-1.17,4.12-4.39,4.28-9.07a37.46,37.46,0,0,0-3.63-16C96,177.67,88.91,170.69,83.43,170.69Z"/>
        </g>
        <g>
          <path class="cls-3" d="M17.58,202.8s66.17-22.48,82.6-33.51c11.46-7.69,14.17-13.09,16.55-33s1.62-26.16,3.78-29.95c.43-.75-.43-4.32,1.52-8.86s5.4-10.24,7.85-18.6,3.89-15.86,5.05-20,3.1-8.5,6.66-37.91c0,0,6.71-1.84,7.79,6.6.54,4.54-.33,11-.22,13.4s-.16,10.27-.38,12,.06,3.3.33,6.33.59,11.57,0,14.22c-.44,2,.21,6-.08,10-.26,3.6-.68,5.55-.54,6.67.24,1.81,1.3,10.43-.25,15.2,0,0,1.44,1.73,1.08,9.09s-.14,15-.14,17.44,0,16.52-.25,22.27c-.44,9.73-4.55,20.22-12.65,26.82s-32.76,20.21-32.76,20.21L36.32,238.63S19.46,232.14,17.58,202.8Z"/>
          <path d="M36.36,239.1l-.19-.07c-.18-.07-4.37-1.72-8.85-7-4.1-4.87-9.19-13.89-10.17-29.16l0-.33.31-.1c.67-.23,66.3-22.6,82.5-33.47,11.39-7.64,14-12.83,16.36-32.67,1-7.95,1.4-13.77,1.73-18,.51-6.48.76-9.73,2.11-12.08a5.25,5.25,0,0,0,.09-1.33,18.36,18.36,0,0,1,1.4-7.49c.57-1.33,1.28-2.78,2-4.32a86.15,86.15,0,0,0,5.81-14.23c1.53-5.22,2.67-10.12,3.58-14.06.55-2.36,1-4.4,1.46-6,.13-.48.28-1,.43-1.49,1.22-4.12,3.07-10.35,6.22-36.36l0-.29.28-.08a6.66,6.66,0,0,1,1.62-.18c2.17,0,5.91.93,6.71,7.14a57.36,57.36,0,0,1-.07,9.63c-.1,1.6-.18,3-.14,3.81.11,2.46-.17,10.34-.39,12.08a19.26,19.26,0,0,0,.15,4.38c.06.55.12,1.16.18,1.85.27,3,.6,11.61,0,14.35a20.57,20.57,0,0,0-.08,4.3,47.66,47.66,0,0,1,0,5.62c-.12,1.55-.26,2.8-.37,3.8a14.25,14.25,0,0,0-.18,2.78c.4,3.09,1.17,10.68-.2,15.2.39.66,1.34,2.94,1,9.17-.29,5.81-.22,11.73-.17,15.27,0,.9,0,1.64,0,2.15V132c0,6.16,0,17.25-.25,22.2-.48,10.86-5.27,21-12.81,27.13-8,6.54-32.58,20.12-32.82,20.26ZM18,203.11c1,14.83,6,23.59,10,28.33a24.8,24.8,0,0,0,8.31,6.71l67-37.34c.24-.14,24.71-13.69,32.69-20.18,7.35-6,12-15.88,12.49-26.5.22-4.94.26-16,.26-22.16v-.09c0-.51,0-1.24,0-2.14-.05-3.55-.12-9.49.16-15.33.34-7-1-8.77-1-8.79l-.13-.18.06-.22c1.4-4.33.63-11.94.23-15a14.67,14.67,0,0,1,.18-3c.11-1,.25-2.23.36-3.76a48.27,48.27,0,0,0,0-5.52,20.79,20.79,0,0,1,.09-4.53c.57-2.6.24-11.16,0-14.08-.06-.69-.12-1.29-.18-1.84a20.34,20.34,0,0,1-.15-4.58c.21-1.67.49-9.56.38-11.93,0-.87.05-2.28.15-3.9A57.65,57.65,0,0,0,149,27.6c-.68-5.28-3.55-6.39-5.85-6.39a5.76,5.76,0,0,0-1.11.1c-3.15,25.83-5,32.06-6.22,36.2L135.34,59c-.43,1.55-.9,3.59-1.45,5.94-.91,4-2.06,8.86-3.59,14.1a86,86,0,0,1-5.87,14.37c-.74,1.53-1.45,3-2,4.28a17.57,17.57,0,0,0-1.32,7.16,4.11,4.11,0,0,1-.21,1.75c-1.25,2.18-1.5,5.37-2,11.72-.33,4.26-.78,10.1-1.73,18.06-2.39,19.95-5.2,25.55-16.73,33.29C84.72,180.19,23,201.4,18,203.11Z"/>
        </g>
        <path class="cls-4" d="M22.44,221.83a56.66,56.66,0,0,1-4.18-18.57c6-2.06,66.7-23,82.29-33.43,11.6-7.79,14.43-13.41,16.82-33.44.95-8,1.41-13.81,1.74-18.07.49-6.32.74-9.49,2-11.64a4,4,0,0,0,.24-1.85,17.51,17.51,0,0,1,1.31-7.08c.56-1.3,1.26-2.74,2-4.26a87.12,87.12,0,0,0,5.87-14.41c1.54-5.25,2.69-10.16,3.61-14.11.54-2.35,1-4.38,1.44-5.93.13-.48.28-1,.43-1.47.91-3.09,2.2-7.43,4.12-20.47,0,.7.59-7.66,1.82-12.4.92-3.56,1.9-3.78,2.23-3.17,1.29,2.36.72,23.9.62,24.76a67,67,0,0,0-.08,6.84c.26,2.91,0,18,.1,19.9.07,1.69-.78,8-1,11.35-.22,3.56-1.51,12.47-2.3,14.9,0,0-.89,2.66-1.23,9.5-.28,5.85-.14,17.57-.14,17.57,0,10.63-.09,18.5-.26,22.15-.46,10.55-5.1,20.4-12.41,26.34-8,6.48-32.41,20-32.66,20.15,0,0-38.91,21.5-51.78,28.85C38.53,226.4,27.31,233,22.44,221.83Z"/>
        <path d="M130.63,114.13a29.62,29.62,0,0,1,1-3.69,22.77,22.77,0,0,1,1.48-3.55c.08-.15.16-.29.25-.43s.16-.26.23-.4.3-.54.43-.82c.28-.56.54-1.13.77-1.71a25.27,25.27,0,0,0,1.14-3.55c.06-.31.12-.61.17-.91a3.47,3.47,0,0,0,.06-.45l.06-.48.26-1.89.54-3.77L138.12,85q1.15-7.53,2.33-15c.19-1.25.4-2.5.61-3.75.11-.63.21-1.25.33-1.89,0-.08,0-.16.05-.26l.06-.22.11-.46.19-.92c.49-2.48.95-5,1.42-7.47l.05-.24.22-.08h0a4.57,4.57,0,0,1,.55-.15,3.47,3.47,0,0,1,.55-.08,4.14,4.14,0,0,1,1.11.06,3.93,3.93,0,0,1,2,1,5.9,5.9,0,0,1,1.22,1.77,10.1,10.1,0,0,1,.65,2,.43.43,0,0,1-.33.52.42.42,0,0,1-.51-.33h0a9.28,9.28,0,0,0-.6-1.8,4.66,4.66,0,0,0-1-1.5,3,3,0,0,0-1.53-.79,3.16,3.16,0,0,0-.87-.05,3.11,3.11,0,0,0-.44.06,3.37,3.37,0,0,0-.41.12h0l.26-.33c-.42,2.51-.86,5-1.34,7.5l-.19.94-.1.48-.06.23,0,.21c-.12.61-.22,1.24-.32,1.86l-.59,3.76q-1.19,7.51-2.32,15l-1.17,7.52-.56,3.76-.28,1.87-.06.47c0,.17,0,.33-.07.49-.05.32-.12.64-.19,1a24.76,24.76,0,0,1-1.21,3.68c-.25.59-.51,1.18-.81,1.75-.14.29-.29.58-.45.86s-.17.29-.26.42l-.23.4c-.3.53-.57,1.09-.83,1.66s-.51,1.15-.77,1.73c-.49,1.16-1,2.33-1.5,3.49a0,0,0,0,1-.06,0A0,0,0,0,1,130.63,114.13Z"/>
        <path d="M148.73,42.07a15.59,15.59,0,0,0-.26-3.12,9.36,9.36,0,0,0-1-2.91,4.47,4.47,0,0,0-2.08-2,5.07,5.07,0,0,0-2.92-.27h0l.35-.34q-1,4.77-1.88,9.54c-.3,1.6-.6,3.19-.87,4.78-.13.8-.26,1.6-.38,2.39s-.18,1.6-.29,2.41c-.4,3.23-.86,6.44-1.39,9.65-.27,1.61-.55,3.21-.87,4.81s-.66,3.19-1.1,4.78c-.11.39-.24.8-.35,1.17s-.21.76-.3,1.15c-.19.78-.35,1.57-.49,2.36-.29,1.59-.55,3.19-.86,4.8a54.38,54.38,0,0,1-2.65,9.43,48.51,48.51,0,0,1-2,4.48c-.38.73-.76,1.45-1.17,2.16a6.43,6.43,0,0,0-.41,1,8.56,8.56,0,0,0-.25,1.14,36.2,36.2,0,0,0-.2,4.8,24.17,24.17,0,0,1-.43,4.87,0,0,0,0,1-.06,0s0,0,0,0a39.24,39.24,0,0,0,0-4.85c0-.81-.09-1.62-.1-2.44a15.89,15.89,0,0,1,.11-2.48,7.21,7.21,0,0,1,.72-2.46c.39-.71.77-1.42,1.13-2.14.71-1.44,1.36-2.91,1.93-4.41a53.2,53.2,0,0,0,2.55-9.31c.3-1.58.54-3.18.83-4.79.14-.8.29-1.61.48-2.41.09-.4.2-.8.31-1.2s.23-.77.34-1.16c.82-3.1,1.4-6.3,1.93-9.49s1-6.4,1.39-9.61c.11-.8.18-1.6.3-2.43s.25-1.61.39-2.41c.29-1.61.59-3.2.9-4.8.62-3.18,1.28-6.36,2-9.54l.07-.29.28-.05h0a6,6,0,0,1,3.42.32,5,5,0,0,1,1.46,1,6.53,6.53,0,0,1,1,1.38,10.32,10.32,0,0,1,1.08,3.18,16,16,0,0,1,.28,3.31.44.44,0,1,1-.87,0h0Z"/>
        <path d="M121,106a44.51,44.51,0,0,1,.33,5.15q0,1.29,0,2.58c0,.86-.1,1.72-.19,2.58,0,.43-.11.86-.15,1.27a9.87,9.87,0,0,0-.06,1.22,17.57,17.57,0,0,0,.21,2.5c.25,1.67.66,3.32,1,5,0,0,0,0,0,.05a.05.05,0,0,1,0,0,34.06,34.06,0,0,1-1.59-4.89,17.2,17.2,0,0,1-.38-2.59c0-.44,0-.88,0-1.33s.08-.86.11-1.27c.13-1.69.15-3.38.14-5.07,0-.85,0-1.69-.08-2.54s-.08-1.69-.14-2.53h0a.44.44,0,0,1,.41-.46A.42.42,0,0,1,121,106Z"/>
        <path d="M148.66,105.51a12.34,12.34,0,0,1-1,1.81,16.43,16.43,0,0,1-1.28,1.61,10.77,10.77,0,0,1-3.25,2.44,0,0,0,0,1,0-.07,10.34,10.34,0,0,0,2.92-2.67,14.64,14.64,0,0,0,1.07-1.66,13.9,13.9,0,0,0,.81-1.77v0a.44.44,0,0,1,.56-.26.43.43,0,0,1,.26.55A.05.05,0,0,1,148.66,105.51Z"/>
        <path d="M148.79,106.26c-.32,1-.67,1.93-1.07,2.88s-.81,1.86-1.29,2.76a20.31,20.31,0,0,1-1.59,2.6,11,11,0,0,1-2.07,2.24,0,0,0,0,1-.05,0,0,0,0,0,1,0-.06,10.79,10.79,0,0,0,1.89-2.32,21.73,21.73,0,0,0,1.4-2.66c.41-.91.77-1.84,1.09-2.79s.62-1.91.85-2.87h0a.44.44,0,0,1,.53-.32.43.43,0,0,1,.31.52Z"/>
        <path d="M145.56,89.91q.75-.09,1.47-.24l.71-.19a2.1,2.1,0,0,0,.58-.26.44.44,0,0,1,.62.08.45.45,0,0,1-.09.62.3.3,0,0,1-.11.06h0a2.81,2.81,0,0,1-.85.16h-.78a12.63,12.63,0,0,1-1.52-.13,0,0,0,0,1-.05-.06A0,0,0,0,1,145.56,89.91Z"/>
        <path d="M146.3,74a12.38,12.38,0,0,0,1.38-.18,6.38,6.38,0,0,0,.66-.15,1.3,1.3,0,0,0,.5-.23.45.45,0,1,1,.64.62.38.38,0,0,1-.13.09l-.08,0a1.46,1.46,0,0,1-.44.12l-.39,0a6,6,0,0,1-.74,0c-.48,0-.94-.12-1.41-.2a.06.06,0,0,1,0-.07A.05.05,0,0,1,146.3,74Z"/>
        <path d="M128.86,116.77c-.11.74-.22,1.48-.29,2.2a8.75,8.75,0,0,0,0,2.11,12.16,12.16,0,0,0,.59,2c.25.69.55,1.38.75,2.12a.07.07,0,0,1-.12.06,12.94,12.94,0,0,1-1.26-1.89,7.25,7.25,0,0,1-.8-2.2,6,6,0,0,1,.14-2.37,7.44,7.44,0,0,1,.86-2.13.07.07,0,0,1,.09,0s0,0,0,.06Z"/>
        <g>
          <path class="cls-5" d="M141.92,17.85s4.61,6.2-1.44,13.33C140.48,31.18,139.47,21.09,141.92,17.85Z"/>
          <path d="M140.15,32.24l-.1-1c-.05-.42-1-10.3,1.52-13.64l.35-.46.35.46c0,.07,4.74,6.56-1.46,13.88Zm1.77-13.58c-1.48,2.8-1.26,8.91-1.1,11.39C144.74,24.75,142.8,20.2,141.92,18.66Z"/>
        </g>
        <g>
          <path class="cls-5" d="M142.57,30.46s3.17,7.86-2.45,14.56C140.12,45,139,35,142.57,30.46Z"/>
          <path d="M139.8,46.07l-.11-1c-.05-.41-1.14-10.25,2.54-14.87l.46-.59.28.69c0,.08,3.2,8.18-2.52,15Zm2.62-14.65c-2.26,3.65-2.12,9.94-2,12.46A14.7,14.7,0,0,0,142.42,31.42Z"/>
        </g>
        <g>
          <path class="cls-5" d="M143.72,50.93a9.61,9.61,0,0,1,1.59,6.78,17,17,0,0,1-3.39,6.7S141.56,54.68,143.72,50.93Z"/>
          <path d="M141.53,65.53l0-1.1c0-.4-.34-9.9,1.86-13.71l.33-.58.39.54a9.93,9.93,0,0,1,1.66,7.11,17.23,17.23,0,0,1-3.48,6.91Zm2.23-13.71c-1.31,3.07-1.44,8.82-1.43,11.34a15.48,15.48,0,0,0,2.55-5.54A8.81,8.81,0,0,0,143.76,51.82Z"/>
        </g>
        <g>
          <g>
            <path class="cls-5" d="M84,210c-.19,3.05-1.16,5.63-2.49,6.69a1.88,1.88,0,0,1-.67.39,2,2,0,0,1-.74-.07c-4.67-1.84-9.68-7.19-13-14.45-3.68-8.17-4.09-16.37-1.5-20.91a.53.53,0,0,1,.26-.25c.25-.12,1.32-.37,4.77,1.36l.09,0c.41-.26.81-.54,1.23-.78a16.5,16.5,0,0,0-4.41-2.65h0l-.37-.13h0a6.92,6.92,0,0,0-5.17,0c-5.72,2.57-6.11,14.07-.87,25.68S75.24,223.88,81,221.31a7.33,7.33,0,0,0,2.79-2.7,15.63,15.63,0,0,0,1.74-8.6Z"/>
            <path d="M78.47,222.25h0c-5.89,0-13.19-7-17.74-17.12A38.45,38.45,0,0,1,57,188.71c.17-5,1.88-8.51,4.8-9.83a7.4,7.4,0,0,1,5.49,0l.39.14.83.32,0,0a18.21,18.21,0,0,1,3.72,2.38l.48.39-.53.32c-.24.14-.47.29-.7.44l-.52.34-.2.12-.31-.15a10.33,10.33,0,0,0-4.07-1.39,1,1,0,0,0-.34,0s0,.07-.07.1c-2.57,4.5-2,12.74,1.54,20.49,3.11,6.91,8,12.36,12.72,14.23a2.51,2.51,0,0,0,.42,0h.07a1.41,1.41,0,0,0,.49-.31c1.23-1,2.15-3.49,2.33-6.37l0-.41h2.33l0,.41a16,16,0,0,1-1.79,8.82l0,0a7.46,7.46,0,0,1-3,2.86A6.4,6.4,0,0,1,78.47,222.25Zm-14-43.06a5.67,5.67,0,0,0-2.3.48c-2.6,1.18-4.12,4.4-4.28,9.08a37.49,37.49,0,0,0,3.63,16c4.35,9.62,11.47,16.61,16.95,16.61h0a5.48,5.48,0,0,0,2.3-.48,6.59,6.59,0,0,0,2.59-2.52,14.91,14.91,0,0,0,1.7-7.94h-.69c-.26,3-1.26,5.49-2.63,6.58a2.09,2.09,0,0,1-.85.48.94.94,0,0,1-.25,0,2.55,2.55,0,0,1-.74-.11c-4.93-1.94-10-7.56-13.19-14.68-3.66-8.11-4.24-16.47-1.49-21.29a1,1,0,0,1,.47-.44,1.63,1.63,0,0,1,.68-.12,11.2,11.2,0,0,1,4.33,1.43l.29-.2.21-.14a15.19,15.19,0,0,0-3.81-2.19l-.29-.11-.06,0A8,8,0,0,0,64.47,179.19Z"/>
          </g>
          <path class="cls-6" d="M78.47,219.66c-4,0-10.8-5.46-15.37-15.59-5.06-11.23-4.18-21-.22-22.82a4.14,4.14,0,0,1,.59-.21c-2.74,5.34-2.11,14.06,1.66,22.42,3.44,7.62,8.72,13.44,14.14,15.57a3.91,3.91,0,0,0,1,.22l-.18.09a3.89,3.89,0,0,1-1.59.32Z"/>
          <g>
            <path class="cls-5" d="M94,208.35a7.43,7.43,0,0,1-2.1,4,1.67,1.67,0,0,1-.67.39,1.63,1.63,0,0,1-.74-.07c-4.67-1.83-9.68-7.18-13-14.45-3.68-8.16-4.1-16.37-1.5-20.9a.55.55,0,0,1,.26-.26c.25-.11,1.32-.37,4.77,1.36l.09.05c.41-.26.81-.54,1.23-.79a16.19,16.19,0,0,0-4.41-2.64h0l-.37-.13h0a7,7,0,0,0-5.18,0c-5.71,2.58-6.1,14.08-.86,25.68S85.62,219.56,91.33,217a7.26,7.26,0,0,0,2.79-2.7,14.45,14.45,0,0,0,1.71-5.93Z"/>
            <path d="M88.85,217.93h0c-5.9,0-13.19-7-17.74-17.12a38.45,38.45,0,0,1-3.71-16.42c.17-5,1.87-8.51,4.8-9.83a7.35,7.35,0,0,1,5.49-.05l.39.14.71.27,0,0a17.88,17.88,0,0,1,3.84,2.42l.48.39-.53.32-.7.45-.52.33-.2.13-.31-.15a10.23,10.23,0,0,0-4.08-1.4.81.81,0,0,0-.33,0s0,.07-.07.09c-2.57,4.5-2,12.75,1.53,20.5,3.12,6.91,8,12.36,12.73,14.22a1.76,1.76,0,0,0,.42.05h.07a1.29,1.29,0,0,0,.49-.3,7.12,7.12,0,0,0,2-3.79l.08-.33h2.68l0,.47a15.12,15.12,0,0,1-1.76,6.1l0,0a7.46,7.46,0,0,1-3,2.86A6.56,6.56,0,0,1,88.85,217.93Zm-14-43.06a5.51,5.51,0,0,0-2.3.48c-5.48,2.47-5.78,13.73-.65,25.1,4.34,9.63,11.47,16.61,16.95,16.62h0a5.67,5.67,0,0,0,2.3-.48,6.56,6.56,0,0,0,2.59-2.53,14.06,14.06,0,0,0,1.62-5.27H94.29a7.52,7.52,0,0,1-2.17,3.92,2.21,2.21,0,0,1-.85.48l-.25,0a2.55,2.55,0,0,1-.74-.11c-4.93-1.94-10-7.57-13.19-14.68-3.66-8.11-4.25-16.47-1.49-21.3a1.09,1.09,0,0,1,.46-.44,1.88,1.88,0,0,1,.68-.12A11.27,11.27,0,0,1,81.07,178a3.13,3.13,0,0,0,.3-.2l.21-.13a15.57,15.57,0,0,0-3.81-2.2l-.29-.11-.06,0h0A7.92,7.92,0,0,0,74.85,174.87Z"/>
          </g>
          <path class="cls-6" d="M88.85,215.34c-4,0-10.8-5.47-15.37-15.6-5.06-11.22-4.18-21-.22-22.81a3.19,3.19,0,0,1,.59-.21c-2.74,5.34-2.11,14.05,1.66,22.41,3.44,7.62,8.72,13.44,14.14,15.58a3.9,3.9,0,0,0,1,.21l-.18.09a3.74,3.74,0,0,1-1.59.33Z"/>
          <g>
            <path class="cls-5" d="M94.11,168.36a.3.3,0,0,0-.12.21Z"/>
            <path d="M93.54,170.13v-1.57a.73.73,0,0,1,.3-.54l1.83-1.41Zm.73-1.56.11.13s0,0,0-.13Z"/>
          </g>
          <g>
            <path class="cls-5" d="M102.57,203.67a7.92,7.92,0,0,1-2.21,4.52,1.74,1.74,0,0,1-.67.39,1.6,1.6,0,0,1-.74-.07c-4.67-1.83-9.69-7.18-13-14.45-3.69-8.16-4.1-16.37-1.51-20.9a.55.55,0,0,1,.26-.26c.26-.11,1.32-.37,4.78,1.36l.09.05c.41-.26.8-.54,1.22-.79a16.3,16.3,0,0,0-4.4-2.64h0l-.36-.13h0a6.93,6.93,0,0,0-5.17,0c-5.71,2.58-6.1,14.08-.87,25.68s14.11,18.93,19.82,16.35a7.19,7.19,0,0,0,2.79-2.7,14.7,14.7,0,0,0,1.75-6.43Z"/>
            <path d="M97.36,213.75h0c-5.9,0-13.19-7-17.74-17.12a38.16,38.16,0,0,1-3.71-16.42c.17-5,1.87-8.51,4.79-9.83a7.35,7.35,0,0,1,5.49,0l.39.14.67.25,0,0a17.54,17.54,0,0,1,3.87,2.44l.48.4-.53.31-.69.44-.52.34-.2.13-.32-.15a10.21,10.21,0,0,0-4.07-1.4.81.81,0,0,0-.33.05.73.73,0,0,0-.08.09c-2.57,4.5-2,12.75,1.54,20.5,3.12,6.91,8,12.36,12.72,14.22a1.78,1.78,0,0,0,.43,0h.07a1.34,1.34,0,0,0,.48-.31,7.42,7.42,0,0,0,2.06-4.26l.07-.35h2.61l0,.45a14.93,14.93,0,0,1-1.8,6.61v0a7.31,7.31,0,0,1-3,2.85A6.36,6.36,0,0,1,97.36,213.75Zm-14-43.06a5.46,5.46,0,0,0-2.29.48c-5.49,2.47-5.78,13.73-.65,25.1,4.34,9.63,11.47,16.61,17,16.62h0a5.55,5.55,0,0,0,2.3-.49,6.59,6.59,0,0,0,2.59-2.52,14.09,14.09,0,0,0,1.66-5.78h-1a8,8,0,0,1-2.3,4.43,2.12,2.12,0,0,1-.84.48l-.25,0a2.5,2.5,0,0,1-.74-.11c-4.93-1.94-10-7.57-13.2-14.68-3.66-8.11-4.24-16.47-1.48-21.3a1,1,0,0,1,.46-.44,1.88,1.88,0,0,1,.68-.12,11.32,11.32,0,0,1,4.33,1.43l.3-.2.2-.13a15.21,15.21,0,0,0-3.81-2.2l-.3-.11,0,0h0A7.83,7.83,0,0,0,83.35,170.69Z"/>
          </g>
          <path class="cls-6" d="M97.36,211.16c-4,0-10.81-5.47-15.38-15.6-5.06-11.22-4.17-21-.21-22.82a3.72,3.72,0,0,1,.59-.2C79.62,177.88,80.24,186.59,84,195c3.44,7.62,8.73,13.44,14.14,15.58a4.1,4.1,0,0,0,1,.21l-.17.09a3.8,3.8,0,0,1-1.59.33Z"/>
          <g>
            <path class="cls-5" d="M113.64,195.54c-.37.2-.87.43-1.39.67-.06,3.37-1.09,6.3-2.53,7.44a1.65,1.65,0,0,1-.66.39,1.75,1.75,0,0,1-.74-.07c-4.67-1.83-9.69-7.18-13-14.45-3.69-8.16-4.1-16.37-1.51-20.91a.8.8,0,0,1,.32-.26c.12-.07,1.26-.36,4.72,1.37l.09.05c.41-.26.8-.54,1.22-.79a16.3,16.3,0,0,0-4.4-2.64h0l-.36-.13h0a6.93,6.93,0,0,0-5.17,0c-5.71,2.58-6.1,14.08-.87,25.68s14.11,18.93,19.83,16.35a7.23,7.23,0,0,0,2.78-2.7C113.59,202.55,114,199.66,113.64,195.54Z"/>
            <path d="M106.73,209.21h0c-5.9,0-13.19-7-17.74-17.12a38.16,38.16,0,0,1-3.71-16.42c.17-5,1.87-8.51,4.79-9.83a7.35,7.35,0,0,1,5.49-.05l.4.14.78.3,0,0a17.42,17.42,0,0,1,3.76,2.39l.48.4-.53.31c-.24.14-.47.29-.7.45l-.51.33-.2.13-.25-.12-.07,0a10.16,10.16,0,0,0-4.1-1.39.75.75,0,0,0-.23,0,.48.48,0,0,0-.15.11c-2.57,4.5-1.95,12.75,1.54,20.5,3.12,6.91,8,12.36,12.72,14.22a1.78,1.78,0,0,0,.43.05H109a1.64,1.64,0,0,0,.49-.31c1.35-1.08,2.3-3.93,2.36-7.11v-.27l.41-.2c.45-.2.88-.4,1.2-.57l.57-.3.06.64c.38,4.31-.11,7.28-1.7,10.26v0a7.31,7.31,0,0,1-3,2.85A6.36,6.36,0,0,1,106.73,209.21Zm-14-43.06a5.46,5.46,0,0,0-2.29.48c-5.49,2.47-5.78,13.73-.65,25.1,4.34,9.63,11.47,16.61,17,16.61h0a5.54,5.54,0,0,0,2.3-.48,6.59,6.59,0,0,0,2.59-2.52,15.55,15.55,0,0,0,1.64-9.13l-.58.28c-.12,3.36-1.16,6.28-2.68,7.5a2.36,2.36,0,0,1-.85.48l-.25,0a2.5,2.5,0,0,1-.74-.11c-4.93-1.95-10-7.57-13.2-14.68-3.66-8.11-4.24-16.47-1.48-21.3A1.27,1.27,0,0,1,94,168a1.5,1.5,0,0,1,.63-.11A10.63,10.63,0,0,1,99,169.27l.3-.2.2-.13a15.21,15.21,0,0,0-3.81-2.2l-.28-.11-.06,0A8,8,0,0,0,92.72,166.15Z"/>
          </g>
          <path class="cls-6" d="M106.73,206.61c-4,0-10.81-5.46-15.37-15.59-5.07-11.22-4.18-21-.22-22.82a3.72,3.72,0,0,1,.59-.2c-2.74,5.34-2.12,14.05,1.66,22.41,3.43,7.62,8.72,13.44,14.13,15.57a3.68,3.68,0,0,0,1,.22l-.18.09a3.72,3.72,0,0,1-1.58.32Z"/>
        </g>
      </g>
      <g>
        <g>
          <path class="cls-2" d="M189,182.58c-5.23,11.61-4.84,23.1.87,25.68s14.59-4.75,19.82-16.35,4.85-23.1-.86-25.68S194.22,171,189,182.58Z"/>
          <path d="M192.33,209.21h0a6.41,6.41,0,0,1-2.66-.56c-2.92-1.31-4.62-4.81-4.79-9.83a38.16,38.16,0,0,1,3.71-16.42c4.55-10.08,11.84-17.12,17.74-17.12a6.36,6.36,0,0,1,2.65.56c2.92,1.32,4.63,4.81,4.79,9.83a38.16,38.16,0,0,1-3.71,16.42C205.52,202.17,198.22,209.21,192.33,209.21Zm14-43.06c-5.48,0-12.61,7-17,16.61-5.13,11.37-4.84,22.63.65,25.1a5.48,5.48,0,0,0,2.3.48c5.48,0,12.6-7,16.95-16.61a37.46,37.46,0,0,0,3.63-16c-.16-4.68-1.68-7.9-4.28-9.07A5.54,5.54,0,0,0,206.33,166.15Z"/>
        </g>
        <g>
          <path class="cls-2" d="M217.09,195.56c-5.23,11.6-4.84,23.1.87,25.67s14.59-4.74,19.82-16.35,4.85-23.1-.86-25.67S222.33,184,217.09,195.56Z"/>
          <path d="M220.44,222.18h0a6.4,6.4,0,0,1-2.66-.55c-2.92-1.32-4.62-4.81-4.79-9.83a38.16,38.16,0,0,1,3.71-16.42c4.55-10.08,11.84-17.12,17.74-17.12a6.35,6.35,0,0,1,2.65.55c2.92,1.32,4.63,4.81,4.8,9.83a38.45,38.45,0,0,1-3.71,16.42C233.63,215.14,226.33,222.18,220.44,222.18Zm14-43.06c-5.48,0-12.61,7-16.95,16.61-5.13,11.37-4.84,22.64.65,25.11a5.48,5.48,0,0,0,2.3.48c5.48,0,12.61-7,16.95-16.61a37.5,37.5,0,0,0,3.63-16c-.16-4.67-1.68-7.9-4.28-9.07A5.54,5.54,0,0,0,234.44,179.12Z"/>
        </g>
        <g>
          <path class="cls-2" d="M207,191.34c-5.23,11.6-4.85,23.1.87,25.68s14.58-4.75,19.82-16.35,4.84-23.1-.87-25.68S212.27,179.73,207,191.34Z"/>
          <path d="M210.38,218h0a6.35,6.35,0,0,1-2.65-.55c-2.92-1.32-4.63-4.81-4.79-9.83a38.28,38.28,0,0,1,3.7-16.42c4.55-10.08,11.85-17.12,17.74-17.12a6.41,6.41,0,0,1,2.66.56c2.92,1.31,4.62,4.8,4.79,9.83a38.15,38.15,0,0,1-3.71,16.41C223.57,210.93,216.28,218,210.38,218Zm14-43.06c-5.48,0-12.61,7-16.94,16.62-5.13,11.37-4.84,22.63.64,25.1a5.54,5.54,0,0,0,2.3.48c5.48,0,12.61-7,17-16.61,5.13-11.37,4.84-22.63-.65-25.11A5.48,5.48,0,0,0,224.38,174.9Z"/>
        </g>
        <g>
          <path class="cls-2" d="M198.28,187.12c-5.23,11.61-4.84,23.11.87,25.68s14.58-4.74,19.82-16.35,4.84-23.1-.87-25.68S203.52,175.52,198.28,187.12Z"/>
          <path d="M201.62,213.75h0a6.36,6.36,0,0,1-2.65-.56c-2.92-1.31-4.62-4.8-4.79-9.83a38.19,38.19,0,0,1,3.71-16.42c4.54-10.08,11.84-17.12,17.74-17.12a6.36,6.36,0,0,1,2.65.56c2.92,1.32,4.62,4.81,4.79,9.83a38.16,38.16,0,0,1-3.71,16.42C214.82,206.71,207.52,213.75,201.62,213.75Zm14-43.06c-5.48,0-12.61,7-16.95,16.61-5.13,11.37-4.84,22.63.65,25.1a5.47,5.47,0,0,0,2.29.49c5.48,0,12.61-7,16.95-16.62a37.34,37.34,0,0,0,3.64-16c-.16-4.68-1.68-7.9-4.29-9.07A5.46,5.46,0,0,0,215.63,170.69Z"/>
        </g>
        <g>
          <path class="cls-3" d="M281.47,202.8s-66.17-22.48-82.6-33.51c-11.46-7.69-14.16-13.09-16.54-33s-1.63-26.16-3.79-29.95c-.43-.75.43-4.32-1.51-8.86s-5.41-10.24-7.86-18.6-3.89-15.86-5-20S161,50.36,157.46,21c0,0-6.7-1.84-7.79,6.6-.54,4.54.33,11,.22,13.4s.16,10.27.38,12-.05,3.3-.32,6.33-.6,11.57,0,14.22c.43,2-.22,6,.07,10,.26,3.6.69,5.55.54,6.67-.23,1.81-1.3,10.43.25,15.2,0,0-1.44,1.73-1.08,9.09s.15,15,.15,17.44,0,16.52.25,22.27c.43,9.73,4.54,20.22,12.65,26.82s32.76,20.21,32.76,20.21l67.21,37.45S279.6,232.14,281.47,202.8Z"/>
          <path d="M262.7,239.1l-.18-.09-67.21-37.45c-.25-.14-24.78-13.72-32.83-20.26-7.53-6.13-12.32-16.27-12.81-27.13-.21-4.95-.25-16-.25-22.19v-.1c0-.51,0-1.25,0-2.15.05-3.54.12-9.46-.16-15.27-.31-6.23.65-8.51,1-9.17-1.37-4.52-.61-12.11-.21-15.2a14.18,14.18,0,0,0-.17-2.79c-.12-1-.26-2.24-.37-3.79a50,50,0,0,1,0-5.62,19.9,19.9,0,0,0-.08-4.3c-.59-2.73-.26-11.3,0-14.35.06-.68.12-1.29.17-1.85a19.26,19.26,0,0,0,.15-4.38c-.22-1.74-.49-9.62-.38-12.08,0-.83-.05-2.21-.15-3.81a57.36,57.36,0,0,1-.06-9.63c.79-6.21,4.54-7.14,6.7-7.14a6.57,6.57,0,0,1,1.62.18l.28.08,0,.29c3.15,26,5,32.24,6.22,36.36.16.53.3,1,.43,1.49.44,1.57.91,3.61,1.46,6,.92,3.94,2.06,8.84,3.59,14.06A85.79,85.79,0,0,0,175.4,93c.75,1.53,1.46,3,2,4.31a18.31,18.31,0,0,1,1.39,7.49,5.11,5.11,0,0,0,.1,1.33c1.34,2.35,1.6,5.6,2.1,12.08.33,4.26.79,10.08,1.74,18,2.37,19.84,5,25,16.35,32.67,16.2,10.87,81.84,33.24,82.5,33.47l.31.1,0,.33c-1,15.27-6.07,24.29-10.17,29.16-4.47,5.32-8.67,7-8.84,7ZM156,21.21c-2.29,0-5.17,1.11-5.84,6.39a56.55,56.55,0,0,0,.06,9.47c.11,1.62.19,3,.15,3.9-.1,2.37.17,10.26.38,11.93a19.77,19.77,0,0,1-.15,4.58c-.05.55-.11,1.16-.17,1.84-.26,2.92-.6,11.48,0,14.08a20.19,20.19,0,0,1,.09,4.53,48.27,48.27,0,0,0,0,5.52c.11,1.53.25,2.76.37,3.76a14.49,14.49,0,0,1,.17,3c-.4,3.08-1.17,10.7.23,15l.08.23-.16.18s-1.32,1.8-1,8.78c.29,5.84.21,11.78.17,15.33,0,.9,0,1.63,0,2.14v.1c0,10.63.09,18.5.25,22.15.47,10.62,5.14,20.52,12.49,26.5,8,6.49,32.45,20,32.7,20.17l67,37.35a25,25,0,0,0,8.35-6.76c4-4.74,8.9-13.48,9.91-28.28-5-1.71-66.68-22.92-82.39-33.46-11.53-7.74-14.35-13.34-16.73-33.29-1-8-1.41-13.8-1.74-18.06-.5-6.35-.74-9.54-2-11.72a4,4,0,0,1-.21-1.75,17.61,17.61,0,0,0-1.33-7.16c-.56-1.31-1.26-2.75-2-4.27A87.47,87.47,0,0,1,168.76,79c-1.54-5.24-2.68-10.16-3.6-14.1-.55-2.36-1-4.39-1.45-5.94-.13-.48-.27-.95-.43-1.47-1.22-4.14-3.07-10.37-6.21-36.2A5.88,5.88,0,0,0,156,21.21Z"/>
        </g>
        <path class="cls-4" d="M276.61,221.83a56.15,56.15,0,0,0,4.18-18.57c-6-2.06-66.7-23-82.28-33.43-11.6-7.79-14.43-13.41-16.83-33.44-1-8-1.41-13.81-1.74-18.07-.49-6.32-.74-9.49-2-11.64a4.08,4.08,0,0,1-.24-1.85,17.34,17.34,0,0,0-1.31-7.08c-.56-1.3-1.26-2.74-2-4.26a86.19,86.19,0,0,1-5.88-14.41C167,73.83,165.87,68.92,165,65c-.55-2.35-1-4.38-1.45-5.93-.13-.48-.27-1-.42-1.47-.92-3.09-2.2-7.43-4.13-20.47,0,.7-.59-7.66-1.81-12.4-.92-3.56-1.91-3.78-2.24-3.17-1.28,2.36-.72,23.9-.61,24.76.17,1.41.13,6.16.07,6.84-.26,2.91.21,18,.14,19.9-.07,1.69.55,8,.76,11.35.23,3.56,1.52,12.47,2.31,14.9,0,0,.89,2.66,1.22,9.5.29,5.85.15,17.57.15,17.57,0,10.63.09,18.5.25,22.15.47,10.55,5.11,20.4,12.41,26.34,8,6.48,32.42,20,32.66,20.15,0,0,38.91,21.5,51.78,28.85C260.53,226.4,271.74,233,276.61,221.83Z"/>
        <path d="M168.33,114.16c-.52-1.16-1-2.33-1.5-3.49-.25-.58-.5-1.16-.77-1.73a18.35,18.35,0,0,0-.83-1.66c-.07-.14-.15-.27-.23-.4s-.17-.28-.25-.42-.32-.57-.46-.86c-.29-.57-.56-1.16-.81-1.75a23.61,23.61,0,0,1-1.2-3.68c-.08-.32-.14-.64-.2-1,0-.16-.05-.32-.07-.49l-.06-.47-.27-1.87-.57-3.76L160,85.1q-1.14-7.53-2.32-15L157,66.3c-.1-.62-.2-1.25-.31-1.86l0-.21-.06-.23-.11-.48-.18-.94c-.48-2.5-.92-5-1.35-7.5l.26.33h0a3.19,3.19,0,0,0-.4-.12l-.44-.06a3.21,3.21,0,0,0-.88.05,3,3,0,0,0-1.53.79,4.83,4.83,0,0,0-1,1.5,9.25,9.25,0,0,0-.59,1.8.44.44,0,0,1-.85-.19h0a10.14,10.14,0,0,1,.66-2,5.56,5.56,0,0,1,1.22-1.77,3.89,3.89,0,0,1,2-1,4.07,4.07,0,0,1,1.1-.06,3.31,3.31,0,0,1,.55.08,4.12,4.12,0,0,1,.55.15h0l.22.08,0,.24c.47,2.49.93,5,1.43,7.47l.19.92.1.46.06.22c0,.1,0,.18,0,.26.12.64.23,1.26.33,1.89.22,1.25.42,2.5.62,3.75q1.19,7.53,2.32,15l1.1,7.53.54,3.77.25,1.89.06.48.06.45c.05.3.11.6.18.91a22.9,22.9,0,0,0,1.14,3.55c.23.58.48,1.15.76,1.71.14.28.28.55.43.82l.23.4c.09.14.17.28.25.43a22.82,22.82,0,0,1,1.49,3.55,33.54,33.54,0,0,1,1,3.69s0,.06,0,.06A0,0,0,0,1,168.33,114.16Z"/>
        <path d="M149.46,42.1a16.68,16.68,0,0,1,.27-3.31,10.88,10.88,0,0,1,1.08-3.18,6.25,6.25,0,0,1,1-1.38,4.91,4.91,0,0,1,1.45-1,6,6,0,0,1,3.42-.32h0L157,33l.06.29q1,4.77,2,9.54c.31,1.6.62,3.19.9,4.8.14.8.28,1.6.4,2.41s.19,1.63.29,2.43c.4,3.21.86,6.42,1.39,9.61s1.11,6.39,1.94,9.49c.1.39.21.76.33,1.16s.22.8.31,1.2c.19.8.34,1.61.49,2.41.28,1.61.53,3.21.83,4.79a52.31,52.31,0,0,0,2.54,9.31,48,48,0,0,0,1.94,4.41c.36.72.74,1.43,1.13,2.14a7.69,7.69,0,0,1,.72,2.46,17.22,17.22,0,0,1,.11,2.48c0,.82-.06,1.63-.1,2.44a37.38,37.38,0,0,0,0,4.85s0,0,0,0a.05.05,0,0,1-.06,0,24.91,24.91,0,0,1-.42-4.87,36.19,36.19,0,0,0-.21-4.8,8.56,8.56,0,0,0-.25-1.14,5.63,5.63,0,0,0-.41-1c-.4-.71-.79-1.43-1.16-2.16a48.51,48.51,0,0,1-2-4.48A52.67,52.67,0,0,1,165,81.26c-.31-1.61-.57-3.21-.86-4.8-.15-.79-.31-1.58-.49-2.36-.1-.39-.2-.77-.31-1.15s-.24-.78-.35-1.17c-.44-1.59-.78-3.18-1.1-4.78s-.6-3.2-.86-4.81c-.53-3.21-1-6.42-1.4-9.65-.1-.81-.18-1.62-.29-2.41s-.24-1.59-.38-2.39c-.27-1.59-.57-3.18-.87-4.78-.6-3.18-1.24-6.36-1.88-9.54l.35.34h0a5.07,5.07,0,0,0-2.92.27,4.52,4.52,0,0,0-2.08,2,9.63,9.63,0,0,0-1,2.91,15.59,15.59,0,0,0-.26,3.12v0a.45.45,0,0,1-.43.44.44.44,0,0,1-.44-.43Z"/>
        <path d="M178.9,106.12c-.05.84-.11,1.69-.14,2.53s-.06,1.69-.07,2.54c0,1.69,0,3.38.13,5.07,0,.41.08.83.11,1.27a11.8,11.8,0,0,1,0,1.33,16,16,0,0,1-.38,2.59,32.85,32.85,0,0,1-1.59,4.89,0,0,0,0,1-.08,0c.39-1.67.8-3.32,1.05-5a16.22,16.22,0,0,0,.21-2.5,9.88,9.88,0,0,0,0-1.22c-.05-.41-.11-.84-.16-1.27-.09-.86-.15-1.72-.19-2.58s-.05-1.72,0-2.58A49.45,49.45,0,0,1,178,106a.43.43,0,0,1,.86.08Z"/>
        <path d="M151.19,105.2A12.72,12.72,0,0,0,152,107a13.38,13.38,0,0,0,1.07,1.66A10.08,10.08,0,0,0,156,111.3a0,0,0,0,1,0,0,0,0,0,0,1,0,0,10.85,10.85,0,0,1-3.24-2.44,15.06,15.06,0,0,1-1.28-1.61,13.37,13.37,0,0,1-1.05-1.81.43.43,0,0,1,.78-.37s0,0,0,0Z"/>
        <path d="M151.1,106c.24,1,.53,1.92.85,2.87s.69,1.88,1.1,2.79a21.66,21.66,0,0,0,1.39,2.66,11.42,11.42,0,0,0,1.89,2.32,0,0,0,0,1,0,.06,0,0,0,0,1-.06,0,11,11,0,0,1-2.07-2.24,22.86,22.86,0,0,1-1.59-2.6q-.7-1.35-1.29-2.76c-.39-1-.75-1.89-1.06-2.88a.43.43,0,0,1,.82-.26v0Z"/>
        <path d="M153.5,90a13,13,0,0,1-1.52.13h-.78a2.75,2.75,0,0,1-.85-.16h0a.44.44,0,1,1,.3-.82.24.24,0,0,1,.11.06,2.32,2.32,0,0,0,.59.26c.22.07.46.13.7.19.48.1,1,.18,1.47.24a.06.06,0,0,1,.06.06S153.52,90,153.5,90Z"/>
        <path d="M152.76,74.07c-.46.08-.93.15-1.41.2a5.88,5.88,0,0,1-.73,0,2.56,2.56,0,0,1-.39,0,1.44,1.44,0,0,1-.45-.12l-.07,0a.44.44,0,0,1-.22-.59.45.45,0,0,1,.59-.22.71.71,0,0,1,.14.1,1.3,1.3,0,0,0,.5.23c.21.06.43.11.65.15a12.7,12.7,0,0,0,1.38.18.06.06,0,0,1,.06.06S152.78,74.06,152.76,74.07Z"/>
        <path d="M170.31,116.72a7.44,7.44,0,0,1,.86,2.13,5.69,5.69,0,0,1,.14,2.37,7.25,7.25,0,0,1-.8,2.2,12.19,12.19,0,0,1-1.26,1.89.07.07,0,0,1-.12-.06c.21-.74.5-1.43.75-2.12a11.3,11.3,0,0,0,.59-2,8.27,8.27,0,0,0,0-2.11c-.07-.72-.18-1.46-.29-2.2h0a.07.07,0,0,1,.06-.07A0,0,0,0,1,170.31,116.72Z"/>
        <g>
          <path class="cls-5" d="M157.14,17.85s-4.62,6.2,1.44,13.33C158.58,31.18,159.59,21.09,157.14,17.85Z"/>
          <path d="M158.91,32.24l-.66-.77c-6.21-7.32-1.51-13.81-1.46-13.88l.34-.46.35.46c2.52,3.34,1.57,13.22,1.53,13.64Zm-1.78-13.58c-.88,1.54-2.82,6.09,1.1,11.39C158.39,27.56,158.62,21.46,157.13,18.66Z"/>
        </g>
        <g>
          <path class="cls-5" d="M156.49,30.46S152.87,37.6,158.94,45C158.94,45,160.09,35,156.49,30.46Z"/>
          <path d="M159.25,46.09l-.65-.79c-6.17-7.56-2.54-15-2.5-15l.31-.6.42.53c3.67,4.62,2.58,14.46,2.54,14.87Zm-2.67-14.74a13.32,13.32,0,0,0,2,12.52C158.76,41.32,158.89,35,156.58,31.35Z"/>
        </g>
        <g>
          <path class="cls-5" d="M155.33,50.93a9.63,9.63,0,0,0-1.58,6.78,17,17,0,0,0,3.39,6.7S157.5,54.68,155.33,50.93Z"/>
          <path d="M157.53,65.53l-.72-.83a17.33,17.33,0,0,1-3.49-6.91A9.93,9.93,0,0,1,155,50.68l.4-.54.33.58c2.2,3.81,1.87,13.31,1.86,13.71Zm-2.24-13.71a8.87,8.87,0,0,0-1.12,5.8,15.48,15.48,0,0,0,2.55,5.54C156.73,60.64,156.61,54.89,155.29,51.82Z"/>
        </g>
        <g>
          <g>
            <path class="cls-5" d="M215,209.44c.19,3,1.17,5.63,2.49,6.68a1.67,1.67,0,0,0,.67.39,1.93,1.93,0,0,0,.74-.07c4.67-1.84,9.68-7.18,13-14.45,3.68-8.16,4.1-16.37,1.51-20.9-.09-.13-.14-.21-.27-.26s-1.32-.37-4.77,1.36l-.09,0c-.41-.25-.81-.53-1.22-.78a16.46,16.46,0,0,1,4.4-2.65h0l.36-.13h0a7,7,0,0,1,5.18,0c5.71,2.58,6.1,14.07.86,25.68s-14.11,18.93-19.82,16.35a7.26,7.26,0,0,1-2.79-2.7,15.68,15.68,0,0,1-1.74-8.59Z"/>
            <path d="M220.53,221.68a6.41,6.41,0,0,1-2.66-.56,7.32,7.32,0,0,1-3-2.86l0,0a16.07,16.07,0,0,1-1.79-8.81l0-.42h2.33l0,.41c.18,2.89,1.1,5.39,2.33,6.37a1.52,1.52,0,0,0,.49.31h.07a1.68,1.68,0,0,0,.42-.05c4.73-1.86,9.61-7.31,12.73-14.23,3.49-7.74,4.1-16,1.52-20.51,0,0,0-.06-.06-.07a.68.68,0,0,0-.33,0,10.23,10.23,0,0,0-4.08,1.4l-.06,0-.25.12-.2-.13-.52-.33-.69-.45-.54-.32.48-.39a18.77,18.77,0,0,1,3.58-2.31l-.06,0,1-.38.38-.14a7.37,7.37,0,0,1,5.5.05c2.92,1.31,4.63,4.81,4.8,9.83a38.48,38.48,0,0,1-3.71,16.42C233.72,214.64,226.43,221.68,220.53,221.68Zm-4.89-3.87a6.63,6.63,0,0,0,2.59,2.53,5.66,5.66,0,0,0,2.3.47c5.48,0,12.61-7,16.95-16.61,5.13-11.37,4.83-22.63-.65-25.11a6.55,6.55,0,0,0-4.86,0h-.05l-.31.12a15.34,15.34,0,0,0-3.8,2.2l.2.13.3.2a11.09,11.09,0,0,1,4.33-1.42,1.7,1.7,0,0,1,.68.11,1,1,0,0,1,.45.42c2.77,4.85,2.18,13.2-1.48,21.32-3.2,7.11-8.26,12.73-13.19,14.68a2.55,2.55,0,0,1-.74.11l-.25,0a2.36,2.36,0,0,1-.85-.48c-1.37-1.1-2.37-3.6-2.62-6.59h-.7A15,15,0,0,0,215.64,217.81Z"/>
          </g>
          <path class="cls-6" d="M220.53,219.08c4,0,10.8-5.46,15.37-15.59,5.06-11.22,4.18-21,.22-22.82a4.1,4.1,0,0,0-.59-.2c2.74,5.34,2.11,14.05-1.66,22.41-3.44,7.62-8.72,13.44-14.14,15.58a3.92,3.92,0,0,1-1,.21l.17.09a3.77,3.77,0,0,0,1.59.32Z"/>
          <g>
            <path class="cls-5" d="M205.05,207.78a7.47,7.47,0,0,0,2.1,4,2,2,0,0,0,.67.39,1.93,1.93,0,0,0,.74-.07c4.67-1.84,9.68-7.19,13-14.46,3.68-8.16,4.1-16.36,1.51-20.9a.61.61,0,0,0-.27-.26c-.25-.11-1.31-.36-4.77,1.36l-.09,0c-.41-.26-.81-.54-1.22-.78a16.2,16.2,0,0,1,4.4-2.65h0l.36-.13h0a7,7,0,0,1,5.18,0c5.71,2.57,6.1,14.07.86,25.67S213.38,219,207.67,216.4a7.24,7.24,0,0,1-2.79-2.69,14.65,14.65,0,0,1-1.71-5.93Z"/>
            <path d="M210.15,217.35a6.32,6.32,0,0,1-2.65-.55,7.41,7.41,0,0,1-3-2.86l0,0a15,15,0,0,1-1.76-6.1l0-.47h2.68l.08.34a7,7,0,0,0,1.95,3.78,1.48,1.48,0,0,0,.49.3H208a1.74,1.74,0,0,0,.43-.06c4.72-1.86,9.6-7.31,12.72-14.22,3.49-7.75,4.1-16,1.52-20.51,0,0,0-.07-.06-.08a.81.81,0,0,0-.33-.05,10.47,10.47,0,0,0-4.08,1.4l-.31.15-.2-.12-.52-.34-.69-.44-.54-.32.48-.39a17.82,17.82,0,0,1,3.71-2.37l-.05,0,.86-.33.38-.13.17-.07h0a7.29,7.29,0,0,1,5.32.1c2.93,1.32,4.63,4.81,4.8,9.83a38.31,38.31,0,0,1-3.71,16.42C223.34,210.31,216.05,217.35,210.15,217.35Zm-4.89-3.86a6.66,6.66,0,0,0,2.59,2.52,5.51,5.51,0,0,0,2.3.48c5.48,0,12.61-7,16.95-16.61,5.13-11.37,4.83-22.64-.65-25.11a6.55,6.55,0,0,0-4.86,0l-.05,0h0l-.28.11a15.19,15.19,0,0,0-3.81,2.19l.21.14.3.19a11.26,11.26,0,0,1,4.33-1.42,1.69,1.69,0,0,1,.68.12,1,1,0,0,1,.45.41c2.77,4.85,2.18,13.21-1.47,21.32-3.21,7.12-8.27,12.74-13.2,14.68a2.5,2.5,0,0,1-.74.11.94.94,0,0,1-.25,0,2.09,2.09,0,0,1-.85-.48,7.54,7.54,0,0,1-2.17-3.92h-1.06A13.86,13.86,0,0,0,205.26,213.49Z"/>
          </g>
          <path class="cls-6" d="M210.15,214.76c4,0,10.8-5.47,15.37-15.59,5.06-11.23,4.18-21,.22-22.82a3.19,3.19,0,0,0-.59-.21c2.74,5.34,2.11,14.06-1.66,22.41-3.43,7.63-8.72,13.45-14.14,15.58a3.51,3.51,0,0,1-1,.21.7.7,0,0,0,.17.09,3.8,3.8,0,0,0,1.59.33Z"/>
          <g>
            <path class="cls-5" d="M204.89,167.78a.34.34,0,0,1,.13.21Z"/>
            <path d="M205.45,169.55l-2.12-3.5,1.82,1.39a.7.7,0,0,1,.3.55Zm-.72-1.56h-.15c0,.1,0,.13,0,.13Z"/>
          </g>
          <g>
            <path class="cls-5" d="M196.44,203.09a7.87,7.87,0,0,0,2.21,4.53,2,2,0,0,0,.66.39,2,2,0,0,0,.75-.07c4.67-1.84,9.68-7.19,13-14.46,3.68-8.16,4.09-16.36,1.5-20.9a.59.59,0,0,0-.26-.26c-.26-.11-1.32-.36-4.78,1.36l-.09,0c-.41-.26-.8-.54-1.22-.78a16.35,16.35,0,0,1,4.4-2.65h0l.36-.14h0a6.92,6.92,0,0,1,5.17,0c5.72,2.57,6.1,14.07.87,25.67s-14.11,18.93-19.82,16.35a7.24,7.24,0,0,1-2.79-2.69,14.64,14.64,0,0,1-1.74-6.44Z"/>
            <path d="M201.64,213.17a6.55,6.55,0,0,1-2.65-.55,7.33,7.33,0,0,1-3-2.86l0,0a15,15,0,0,1-1.8-6.62l0-.45h2.61l.07.35a7.54,7.54,0,0,0,2,4.27,1.48,1.48,0,0,0,.49.3h.07a1.66,1.66,0,0,0,.43-.06c4.73-1.86,9.6-7.31,12.72-14.22,3.49-7.75,4.11-16,1.52-20.51a.35.35,0,0,0,0-.08.88.88,0,0,0-.34-.05,10.4,10.4,0,0,0-4.07,1.4l-.31.15-.21-.12-.51-.34-.7-.45-.53-.31.48-.39a17.37,17.37,0,0,1,3.91-2.46l0,0,.63-.24.37-.13a7.35,7.35,0,0,1,5.51,0c2.92,1.32,4.62,4.81,4.79,9.83a38.16,38.16,0,0,1-3.71,16.42C214.84,206.13,207.54,213.17,201.64,213.17Zm-4.89-3.86a6.61,6.61,0,0,0,2.6,2.52,5.46,5.46,0,0,0,2.29.48c5.48,0,12.61-7,17-16.61,5.13-11.37,4.84-22.64-.64-25.11a6.55,6.55,0,0,0-4.86,0l-.36.14a15,15,0,0,0-3.81,2.19l.2.14.3.19a11.26,11.26,0,0,1,4.33-1.42,1.69,1.69,0,0,1,.68.12.93.93,0,0,1,.45.42c2.77,4.84,2.19,13.2-1.47,21.31-3.21,7.11-8.26,12.74-13.2,14.68a2.45,2.45,0,0,1-.74.11h0a1,1,0,0,1-.25,0,2,2,0,0,1-.84-.48,8,8,0,0,1-2.29-4.43h-1A14.18,14.18,0,0,0,196.75,209.31Z"/>
          </g>
          <path class="cls-6" d="M201.64,210.58c4.05,0,10.81-5.47,15.38-15.59,5.06-11.23,4.17-21,.21-22.82a2.75,2.75,0,0,0-.59-.21c2.75,5.34,2.12,14.06-1.65,22.41-3.44,7.63-8.73,13.45-14.14,15.58a3.66,3.66,0,0,1-1,.21l.18.09a3.72,3.72,0,0,0,1.58.33Z"/>
          <g>
            <path class="cls-5" d="M185.36,195c.37.19.87.42,1.39.66.06,3.37,1.09,6.3,2.53,7.45a2,2,0,0,0,.66.39,2.14,2.14,0,0,0,.74-.07c4.67-1.84,9.69-7.19,13-14.46,3.68-8.16,4.09-16.36,1.5-20.9a.83.83,0,0,0-.32-.27c-.12-.07-1.26-.36-4.72,1.37l-.09.05c-.41-.26-.8-.54-1.22-.79a16.3,16.3,0,0,1,4.4-2.64h0l.36-.14h0a7,7,0,0,1,5.17,0c5.71,2.58,6.1,14.08.87,25.68s-14.11,18.93-19.82,16.35A7.19,7.19,0,0,1,187,205C185.41,202,185,199.08,185.36,195Z"/>
            <path d="M192.27,208.63a6.51,6.51,0,0,1-2.65-.55,7.33,7.33,0,0,1-3-2.86l0,0c-1.59-3-2.08-6-1.7-10.26l.06-.65.57.3c.32.17.74.36,1.18.57l.43.2v.27c.06,3.18,1,6,2.37,7.12a1.39,1.39,0,0,0,.48.3h.07a1.66,1.66,0,0,0,.43-.06c4.73-1.86,9.6-7.31,12.72-14.22,3.5-7.75,4.11-16,1.52-20.52l-.12-.09a1.87,1.87,0,0,0-.24,0,10.39,10.39,0,0,0-4.1,1.39l-.31.15-.21-.12-.51-.34c-.23-.15-.46-.31-.7-.45l-.53-.31.48-.39a17.8,17.8,0,0,1,3.91-2.47h0l.62-.24.37-.13a7.35,7.35,0,0,1,5.51,0c2.92,1.32,4.62,4.81,4.79,9.83A38.16,38.16,0,0,1,210,191.51C205.47,201.59,198.17,208.63,192.27,208.63Zm-4.89-3.86a6.66,6.66,0,0,0,2.59,2.52,5.54,5.54,0,0,0,2.3.48c5.48,0,12.61-7,16.95-16.61a37.38,37.38,0,0,0,3.64-16c-.16-4.68-1.68-7.9-4.29-9.07a6.52,6.52,0,0,0-4.85,0l-.14.05-.22.08a15.21,15.21,0,0,0-3.81,2.2l.2.14.3.19a10.84,10.84,0,0,1,4.36-1.41,1.47,1.47,0,0,1,.63.11,1.28,1.28,0,0,1,.47.41c2.77,4.85,2.19,13.21-1.47,21.32-3.21,7.11-8.26,12.74-13.2,14.68a2.45,2.45,0,0,1-.74.11l-.25,0a2.06,2.06,0,0,1-.84-.48c-1.53-1.21-2.57-4.14-2.69-7.5l-.58-.27A15.57,15.57,0,0,0,187.38,204.77Z"/>
          </g>
          <path class="cls-6" d="M192.27,206c4,0,10.81-5.47,15.38-15.6,5.06-11.22,4.17-21,.21-22.81a3,3,0,0,0-.59-.21c2.75,5.34,2.12,14.05-1.65,22.41-3.44,7.62-8.73,13.45-14.14,15.58a3.66,3.66,0,0,1-1,.21l.18.09a3.72,3.72,0,0,0,1.58.33Z"/>
        </g>
      </g>
    </g>
  </g>
</svg>
