<svg id="Layer_1" data-name="Layer 1" xmlns="http://www.w3.org/2000/svg" width="306.31" height="168.27" viewBox="0 0 306.31 168.27">
  <defs>
    <style>
      .cls-1 {
        fill: #ff0;
      }

      .cls-2 {
        fill: #09152b;
      }

      .cls-3 {
        fill: #fff;
      }

      .cls-4 {
        fill: #dbdbdb;
      }

      .cls-5 {
        fill: #f1ac31;
      }

      .cls-6 {
        fill: #fbdd91;
      }

      .cls-7 {
        fill: #e2a225;
      }

      .cls-8 {
        fill: #f5c674;
      }

      .cls-9 {
        fill: #fde2a1;
      }

      .cls-10 {
        fill: #fbde95;
      }

      .cls-11 {
        fill: #ffecbf;
      }

      .cls-12 {
        fill: #c28b2c;
      }

      .cls-13 {
        fill: #9c722a;
      }

      .cls-14 {
        fill: #0b8040;
      }

      .cls-15 {
        fill: #0c8743;
      }

      .cls-16 {
        fill: #069046;
      }

      .cls-17, .cls-18, .cls-19, .cls-20 {
        fill: none;
      }

      .cls-17, .cls-19 {
        stroke: #204f26;
      }

      .cls-17 {
        stroke-width: 2.09px;
      }

      .cls-18, .cls-20 {
        stroke: #000;
      }

      .cls-18 {
        stroke-width: 0.11px;
      }

      .cls-19 {
        stroke-width: 1.36px;
      }

      .cls-20 {
        stroke-width: 0.07px;
      }
    </style>
  </defs>
  <g>
    <path class="cls-1" d="M5.3,112.3c0,15,15.82,27.89,45.75,37.31C78.41,158.22,114.67,163,153.16,163,224.83,163,301,145.21,301,112.3c0-15-15.82-27.88-45.75-37.3-4.6-1.45-9.57-2.82-14.79-4.07l-2.17-2.59c-9.09-12.15-22.92-29-37.27-40.82C177.18,7.94,167.38,5.3,160.94,5.3a22.88,22.88,0,0,0-5.83.82l-.18,0a6,6,0,0,0-2.6,1.38c-.46.41-46.15,41.69-56.82,51.23-2.14,1.91-5.92,5-9.84,8.18a256.37,256.37,0,0,0-34.62,8C21.12,84.42,5.3,97.32,5.3,112.3Z"/>
    <g>
      <path class="cls-2" d="M295,112.3C295,137,231.5,157,153.16,157c-37.63,0-73.71-4.71-100.31-13.08S11.3,124.15,11.3,112.3s15-23.2,41.55-31.58,62.68-13.08,100.31-13.08,73.7,4.71,100.3,13.08S295,100.46,295,112.3Z"/>
      <ellipse class="cls-3" cx="153.21" cy="108.36" rx="39.76" ry="135.43" transform="translate(44.64 261.43) rotate(-89.92)"/>
      <path class="cls-4" d="M156.35,12s-46,41.59-56.84,51.25S41.26,108.61,42.2,114.07s0,17.23,52.14,19.75,82.21.42,76.57,3.78-7,8.4,6.11,7.14,9.86-3.78,18.79-1.26,12.68-3.36,8.45-6.72,13.63-3.78,32-7.14,24-15.13,21.14-21.43-31.48-52.51-60.13-76S161.52,10.73,156.35,12Z"/>
      <path class="cls-5" d="M150.17,18.56s-94.43,85.69-104.09,90.7c-11.66,6,12.56,16.57,55.58,21.76,43.24,5.23,117.32,4.83,142.18-7.57,16.71-8.34,13.91-12.75,12.44-16.78-2-5.42-11.85-6.82-23.94-22.49C211.26,56.87,165.5,2.34,150.17,18.56Z"/>
      <path class="cls-6" d="M153.91,14.88S58.23,102,48.26,107.07s4,15.36,48.84,21.34,109.63,2.56,137.53-6,27.91-14.51,6-41.82S169.85-1.34,153.91,14.88Z"/>
      <path class="cls-7" d="M112.38,122.64c-6.6-.45-51.32-13.13-55.22-9.81s24.73,10.72,36.59,12.53,54.72,4.37,59.8,5.43-25.58,2.41-41.17-.15-52.51-5.13-61.83-14.94,3.39-8.9,15.93-5.73,44,9.65,48.28,10.86S132.2,123.55,112.38,122.64Z"/>
      <path class="cls-7" d="M72.87,93.72c-12.5,3.45-19.08,9.88-10.64,6.44s16.89-4,28.72-2.24,91,20.5,111.14,21.1,24.49-2.54,23.31-2.54-14.52,3.74-56.92-4.49-64.14-14.1-81.25-18.27C80.47,92.08,72.87,93.72,72.87,93.72Z"/>
      <path class="cls-5" d="M51.57,113.89c-2-6,2.71-8.45,29.14.6s101,15.09,134.84,9.66,39.79-13.72,40.5-16.07-11,20.06-83.12,16.86S64.64,106.16,59.37,106.16s-15.18,1.47-15.18,4.89c0,2.59,7.18,8,9,7.1C53.74,117.85,51.94,115.28,51.57,113.89Z"/>
      <path class="cls-5" d="M55.9,101.37S66.14,90.65,78.34,90.05s124.33,39.53,152.45,23.54C249,103.24,253.66,101.16,254.66,101c.07,0,.09.07.11.09a.22.22,0,0,1,.06.17l-.27.23c-.36.16-18.79,12.36-30.5,15.79-10.69,3.13-48.26-2-62.75-5.6S89.56,94,74.7,93.68c-8.22-.19-22.6,11.93-20.41,9C54.49,102.45,55.42,101.9,55.9,101.37Z"/>
      <path class="cls-8" d="M179.8,19.73S168.36,27.82,150,31.1s6.13,1.52,18.38-4.55S180.74,20,180.74,20Z"/>
      <path class="cls-8" d="M120.27,46.2s3.13,3.17,19.79,6.34,22.56,5.82,22.56,5.82-36.84-6.87-43.46-11.64C119.16,46.72,118.93,46.51,120.27,46.2Z"/>
      <path class="cls-8" d="M115.93,49.66s33.84,17.39,38.25,19.72a54.91,54.91,0,0,0,7.92,3.46S156.76,72,145.83,66s-26.88-13.1-28.65-14S112.67,51.18,115.93,49.66Z"/>
      <path class="cls-8" d="M111.64,54.13s21,15.48,25.69,18.5,4.61,5.59,1.87,2.1S125,66.23,121.08,63.21,109.34,55,109.34,55,109.66,54.37,111.64,54.13Z"/>
      <path class="cls-9" d="M179.63,24.86C157.11,33,161.91,36,142.74,38.51s-2.4,13.66,15.33,13.66,25.88,5.55,10.54,8.11-24.43-2.56-17.25,2.56,29.71,14.94,16.3,16.65S141.78,63.7,146.09,71.8s5.75,17.08-6.22,10.67-20.61-20.06-33.06-15.36S80.93,83.33,92,86.74s80.5,26,98.7,26.46,0-21.76,11.5-20.91,5.27-21.34,11.5-23.47-1.92-16.22-13.89-28.17S190.17,23.15,179.63,24.86Z"/>
      <path class="cls-10" d="M215.21,55.34c2.71,14.49,7.45,6,2,15.69s0,14.79-6.44,18.71-6.77,5.14-8.47,13.89S194.2,115.4,200,115.4s24.74,1.2,37.27-7.25,17.62-5.43,8.13-19.31S217.92,56.25,215.21,55.34Z"/>
      <path class="cls-9" d="M210.3,121.74c-52.71-8.54-104-21.34-128.41-21.77s-38.33,3.42,1,10.25,72.83,12.37,86.24,12.8S224.19,123.45,210.3,121.74Z"/>
      <path class="cls-9" d="M57.93,114.91c3.36,4.27,3.36,3.84,20.61,7.68s68,9,89.12,7.69,11.49-2.14-7.67-2.56S84.29,120,70.87,114.91,53.14,111.92,57.93,114.91Z"/>
      <path class="cls-10" d="M180.31,35.42c-43.36.61-8.13,12.07,4.75,12.07S206.06,62,181,62.58s21.68,6,10.16,15.7,10.17,16.29-23,13.88-52.18-4.83-25.75,2.41,26.42,16.3,37.27,13.89-3.39-4.83,8.13-9.06,1.35-14.48,8.81-16.29S193.19,63.79,200.64,59s-2.71-11.47-10.16-16.3S202.67,33,180.31,35.42Z"/>
      <path class="cls-11" d="M226.11,93.57c-11,.86-7.67,1.28-2.88,3s3.36,7.68,8.15,1.28S230.42,94,226.11,93.57Z"/>
      <path class="cls-11" d="M218.92,71.38c0,1.7-2.39,11.09,3.36,5.12S227.55,65.83,218.92,71.38Z"/>
      <path class="cls-11" d="M101.06,74.37s6.23,3.84,3.83,6.4,1,3.41,1,3.41-5.27-5.12-9.58-3.84S90.52,67.11,101.06,74.37Z"/>
      <path class="cls-11" d="M115.43,88.88C115.43,92.29,125,94,125,94s-3.35-3-.48-4.7-1.43-2.13-4.79-1.28S116.39,85,115.43,88.88Z"/>
      <path class="cls-11" d="M147.53,97.41c-2.87,5.55,2.88,5.55,6.71,5.55s4.31-1.28,4.79-3.41-6.23-3.42-6.71-.43S150.41,96.56,147.53,97.41Z"/>
      <path class="cls-11" d="M180.11,105.52c12.94.43,19.65-4.69,14.86-.42s-13.9,2.13-13.9,2.13,10.06,4.69,1.92,3S173.88,106,180.11,105.52Z"/>
      <path class="cls-11" d="M192.09,47.05c-.48,8.54,7.67,9.82,7.67,9.82s-6.23-1.71-3.84-2.56,3.36-5.55,1-6S195.44,42.78,192.09,47.05Z"/>
      <path class="cls-11" d="M179.15,64.55s6.23,5.12-1,6-6.71-1.28-3.36,3.42,2.4,5.55,5.27,2.13,3.84-1.28,4.79-4.27S189.22,64.12,179.15,64.55Z"/>
      <path class="cls-11" d="M146.57,43.64c-3.35,1.7-.48,6,2.4,6.4s4.31,1.7,4.31-1.28S153.28,41.5,146.57,43.64Z"/>
      <path class="cls-7" d="M176.25,30.89c-2,2.72-2,5.14.68,3S180,30.29,176.25,30.89Z"/>
      <path class="cls-7" d="M137.29,36.93c-3.39,1.21-.68,2.11-3,3.62s2.37,3,2.71,1.51S141.35,36.63,137.29,36.93Z"/>
      <path class="cls-7" d="M144.4,37.23c-1.35,2.42,1.36,3.62,3,.91S143.38,33.61,144.4,37.23Z"/>
      <path class="cls-7" d="M194.54,65.6c-1,4.83,4.07,4.83,4.07,4.83s.34.91.34-1.51S194.54,65.6,194.54,65.6Z"/>
      <path class="cls-7" d="M215.21,109.66c-4.07,4.23,1.69,6,2,4.53s-1.35-3.32.34-3.92S217.92,108.46,215.21,109.66Z"/>
      <path class="cls-7" d="M118.31,78c.34,2.72-2,3.93,2,2.72s4.06-2.11,4.06-2.11S119.67,79.48,118.31,78Z"/>
      <path class="cls-7" d="M84.77,85.22a8.89,8.89,0,0,0,3.73.9c2,0-2.71,2.12,1.35,3s5.76,1.81,4.75,0-2.71-3-3-4.22-3-2.12-3.73-.91S84.1,82.8,84.77,85.22Z"/>
      <path class="cls-12" d="M192.34,87.93c-11.39.91-9.53,1.51-8.36,2.42s-.24,3,1.86,1.81.46-1.51,2.09-1.21a14.67,14.67,0,0,0,2.09.3S195.83,90.05,192.34,87.93Z"/>
      <path class="cls-7" d="M231.47,86.43c-5.08.9-4.74,2.71-1.69,2.71s2.37,1.81,3.05,0S234.18,85.82,231.47,86.43Z"/>
      <path class="cls-7" d="M242,99.4c-5.42.61-5.42,5.13-3.72,4.83s0-1.51,3.38-3S243.67,100,242,99.4Z"/>
      <path class="cls-12" d="M157.61,88.54c-3.05.6.34,0,1,1.51s.68,3.32,2.71,1.81,1-.3,2-2.12,2.37-3,1-3.31-4.07-.91-4.07,1.5S160,87.93,157.61,88.54Z"/>
      <path class="cls-13" d="M170.29,46.41c-1,.85-.72,4.27.72,3.2S171.25,46.62,170.29,46.41Z"/>
      <path class="cls-13" d="M158.55,64.34c0,3.2.72,3.84.72,1.92S160.23,64.55,158.55,64.34Z"/>
      <path class="cls-13" d="M117.35,69.67c-1.68.21-.48,6,1,4.06s2.64-2.35,1.44-2.57A3.13,3.13,0,0,1,117.35,69.67Z"/>
      <path class="cls-13" d="M207.9,82.05c-2.15,2.35-3.35,3.41-1.68,2.77S209.34,83.33,207.9,82.05Z"/>
      <path class="cls-13" d="M202.15,99.33c0,2.14,0,5.34,2.16,1.71S203.11,99.55,202.15,99.33Z"/>
      <path class="cls-13" d="M194,40.43c-1.92,0-2.4,1.07,0,1.28s3.83-1.28,2.39-1.28Z"/>
      <path class="cls-14" d="M190.37,136.28s2.42,4.72-7,5.7a114.1,114.1,0,0,1-12.15.88s-1-6.1,6.6-8.13S185.33,137.67,190.37,136.28Z"/>
      <path class="cls-15" d="M189.54,136.51s2.16,4.21-6.24,5.08a101.22,101.22,0,0,1-10.83.79s-.91-5.44,5.89-7.25S185.06,137.75,189.54,136.51Z"/>
      <path class="cls-16" d="M188.39,137.77c-.25.81-.94,1.21-4.36,2.51s-5.58-.24-9.33.75.73-.21.8-1.48a4.76,4.76,0,0,1,6.22-3.33C185.57,137.46,186.12,138.47,188.39,137.77Z"/>
      <path class="cls-17" d="M190.34,136.31a23.18,23.18,0,0,1-6.26,2.27c-3.16.54-12.88,4.29-12.88,4.29"/>
      <path class="cls-18" d="M171.37,140.39a5.26,5.26,0,0,1,1.91.12,20.78,20.78,0,0,0,3.67.15s-.87,1.62-.35,1.53.32.25.32.25"/>
      <path class="cls-18" d="M171.93,139.06s3.55-.18,4.7.35a7.23,7.23,0,0,0,2.62.55s-.38,1.42.06,1.8-.5.67-.5.67"/>
      <path class="cls-18" d="M181.85,139.23s-4.61-2.13-6.56-1.8a6.43,6.43,0,0,1-2.46.17"/>
      <path class="cls-18" d="M182.06,139.33s-.34,1.09-.16,1.32-.78,1.34-.78,1.34l.19.27"/>
      <path class="cls-18" d="M174.45,136.2s2.15-.06,3.14-.19a8.86,8.86,0,0,1,4.39.81c.92.62,2.71,1.64,2.71,1.64s1.41,1.14,1.17,1.74.55,1.27.55,1.27"/>
      <path class="cls-14" d="M192,137.52s-1.41,3.41,4.09,4.11a52.39,52.39,0,0,0,7.08.64,5.48,5.48,0,0,0-3.85-5.86C194.84,134.94,194.91,138.52,192,137.52Z"/>
      <path class="cls-15" d="M192.45,137.69s-1.25,3,3.65,3.66a47.11,47.11,0,0,0,6.3.57,4.89,4.89,0,0,0-3.42-5.23C195,135.39,195.07,138.58,192.45,137.69Z"/>
      <path class="cls-16" d="M193.13,138.6c.14.58.55.87,2.54,1.81s3.25-.17,5.44.54-.43-.15-.47-1.07-1.39-3.3-3.63-2.4S194.45,139.1,193.13,138.6Z"/>
      <path class="cls-19" d="M192,137.55a12.27,12.27,0,0,0,3.65,1.63,62.61,62.61,0,0,1,7.51,3.1"/>
      <path class="cls-20" d="M203.05,140.49a2.59,2.59,0,0,0-1.12.08,9.24,9.24,0,0,1-2.14.11s.51,1.17.21,1.11-.19.18-.19.18"/>
      <path class="cls-20" d="M202.72,139.53a7.49,7.49,0,0,0-2.74.25,3.53,3.53,0,0,1-1.53.4s.23,1,0,1.3.29.48.29.48"/>
      <path class="cls-20" d="M196.94,139.65s2.69-1.54,3.82-1.3a3.1,3.1,0,0,0,1.44.13"/>
      <path class="cls-20" d="M196.82,139.73s.2.78.09,1,.45,1,.45,1l-.11.2"/>
      <path class="cls-20" d="M201.26,137.46s-1.26,0-1.84-.14a4.34,4.34,0,0,0-2.56.59c-.53.45-1.58,1.19-1.58,1.19s-.82.81-.68,1.25-.32.91-.32.91"/>
    </g>
  </g>
</svg>
