<svg id="Layer_1" data-name="Layer 1" xmlns="http://www.w3.org/2000/svg" width="614.39" height="388.9" viewBox="0 0 614.39 388.9">
  <defs>
    <style>
      .cls-1 {
        fill: #ff0;
      }

      .cls-2 {
        fill: #4f2857;
      }

      .cls-2, .cls-9 {
        stroke: #431e4c;
        stroke-width: 0.5px;
      }

      .cls-16, .cls-2, .cls-3, .cls-8, .cls-9 {
        stroke-miterlimit: 10;
      }

      .cls-3, .cls-6 {
        fill: #ccc;
      }

      .cls-3 {
        stroke: #989898;
      }

      .cls-16, .cls-3 {
        stroke-width: 0.25px;
      }

      .cls-4 {
        fill: #805c39;
      }

      .cls-5 {
        fill: #e8e8e8;
      }

      .cls-7 {
        fill: #589400;
      }

      .cls-8 {
        fill: #ffd888;
        stroke: #d6a651;
      }

      .cls-16, .cls-9 {
        fill: #63326c;
      }

      .cls-10 {
        fill: #9eb4ca;
      }

      .cls-11 {
        fill: #7e96ad;
      }

      .cls-12 {
        fill: #bb85c4;
      }

      .cls-13 {
        fill: #fff;
      }

      .cls-14 {
        fill: #c28649;
      }

      .cls-15 {
        fill: #fff8b6;
      }

      .cls-16 {
        stroke: #4d2656;
      }

      .cls-17 {
        fill: #467500;
      }

      .cls-18 {
        fill: #f29a8d;
      }
    </style>
  </defs>
  <g>
    <path class="cls-1" d="M571.52,192.14a23.64,23.64,0,0,0-2.19-7.71V159.7h22.34a6,6,0,0,0,6-6v-4.4a6,6,0,0,0-2.43-8.51L519.57,103V72.6a6,6,0,0,0-6-6H446.72l-55.8-27.87a6,6,0,0,0-2.68-.63H323.31v-3a6,6,0,0,0,2.37-4.77V18.86a6,6,0,0,0-6-6H291.74a6,6,0,0,0-6,6V30.38a6,6,0,0,0,2.37,4.77v3H231.2a6,6,0,0,0-2.6.59L170.52,66.6h-66a6,6,0,0,0-6,6v28.62L16.26,140.75a6,6,0,0,0-3.4,5.4v7.55a6,6,0,0,0,6,6H42.09v1c0,.16,0,.31,0,.47v25.7c0,.16,0,.31,0,.46v6.55c0,.15,0,.31,0,.46V220c0,.15,0,.31,0,.46V227c0,.16,0,.31,0,.47v25.7c0,.16,0,.31,0,.46v6.55c0,.15,0,.31,0,.46v25.71c0,.15,0,.31,0,.46v6.54c0,.16,0,.31,0,.47V312.6a24.78,24.78,0,0,0-8.54,15.26c-1.68,10,1.66,22.18,8.55,31.67V370a6,6,0,0,0,6,6H563.33a6,6,0,0,0,6-6V290.75c14.32-2.24,25.39-10.46,29.57-22.31,3-8.36,2.13-17.51-2.25-26.13a32.14,32.14,0,0,0,4.88-17.08C601.53,208.37,588.45,194.38,571.52,192.14Z"/>
    <g>
      <g>
        <rect class="cls-2" x="104.49" y="72.6" width="99.26" height="45.49"/>
        <rect class="cls-2" x="414.3" y="72.6" width="99.26" height="45.49"/>
        <g>
          <rect class="cls-3" x="294.11" y="23.49" width="23.21" height="55.03"/>
          <rect class="cls-4" x="291.74" y="18.86" width="27.95" height="11.52"/>
        </g>
        <g>
          <rect class="cls-5" x="48.09" y="325.86" width="515.24" height="10.99"/>
          <rect class="cls-5" x="48.09" y="347.08" width="515.24" height="10.99"/>
          <rect class="cls-6" x="48.09" y="336.23" width="515.24" height="10.99"/>
        </g>
        <path class="cls-7" d="M192.4,357.89c9.78-7.76,16.18-32.33-8.22-32.33s-18,24.57-8.23,32.33Z"/>
        <rect class="cls-8" x="48.09" y="145.98" width="515.24" height="179.88"/>
        <polygon class="cls-9" points="231.2 44.1 388.24 44.1 592.56 146.15 18.86 146.15 231.2 44.1"/>
        <g>
          <g>
            <path class="cls-4" d="M463.5,192.53H453.43a31.73,31.73,0,0,0-31.59,31.8v84.49h73.25V224.33A31.73,31.73,0,0,0,463.5,192.53Z"/>
            <path class="cls-10" d="M489.7,308.82H427.23V224.24A26.28,26.28,0,0,1,453.52,198h9.89a26.28,26.28,0,0,1,26.29,26.28Z"/>
            <path class="cls-11" d="M438.09,228.89a26.28,26.28,0,0,1,26.28-26.28h9.9a26.25,26.25,0,0,1,4.64.43,26.15,26.15,0,0,0-15.5-5.08h-9.89a26.28,26.28,0,0,0-26.29,26.28v84.58h10.86Z"/>
            <rect class="cls-4" x="454.62" y="197.96" width="8.28" height="110.86"/>
            <rect class="cls-4" x="423.19" y="221.14" width="71.15" height="2.98"/>
          </g>
          <rect class="cls-4" x="421.84" y="302.64" width="73.25" height="6.18"/>
        </g>
        <g>
          <g>
            <path class="cls-4" d="M158,192.53H147.91a31.73,31.73,0,0,0-31.59,31.8v84.49h73.25V224.33A31.73,31.73,0,0,0,158,192.53Z"/>
            <path class="cls-10" d="M184.18,308.82H121.71V224.24A26.28,26.28,0,0,1,148,198h9.9a26.28,26.28,0,0,1,26.29,26.28Z"/>
            <path class="cls-11" d="M132.56,228.89a26.29,26.29,0,0,1,26.29-26.28h9.9a26.34,26.34,0,0,1,4.64.43,26.18,26.18,0,0,0-15.5-5.08H148a26.28,26.28,0,0,0-26.28,26.28v84.58h10.85Z"/>
            <rect class="cls-4" x="149.1" y="197.96" width="8.28" height="110.86"/>
            <rect class="cls-4" x="117.67" y="221.14" width="71.15" height="2.98"/>
          </g>
          <rect class="cls-4" x="116.32" y="302.64" width="73.25" height="6.18"/>
        </g>
        <rect class="cls-7" x="48.09" y="357.56" width="515.24" height="12.48"/>
        <rect class="cls-12" x="18.86" y="146.15" width="231.2" height="7.54"/>
        <rect class="cls-12" x="360.47" y="146.15" width="231.2" height="7.54"/>
        <g>
          <path class="cls-13" d="M369.3,153.7H242.11s-8.17-67.44,63.59-67.44S369.3,153.7,369.3,153.7Z"/>
          <path class="cls-12" d="M242.11,153.7s.42-67.44,63.59-67.44,63.6,67.44,63.6,67.44h13.59s1.57-81-77.12-81-77.24,81-77.24,81Z"/>
        </g>
        <rect class="cls-13" x="242.11" y="153.63" width="21.92" height="203.93"/>
        <rect class="cls-13" x="347.36" y="153.63" width="21.92" height="203.93"/>
        <rect class="cls-13" x="377.73" y="153.63" width="21.92" height="203.93"/>
        <rect class="cls-13" x="212.72" y="153.63" width="21.92" height="203.93"/>
        <rect class="cls-4" x="273.88" y="192.45" width="63.66" height="133.42"/>
        <rect class="cls-14" x="284.71" y="202.36" width="42" height="113.28"/>
        <rect class="cls-15" x="48.07" y="161.16" width="43.64" height="25.71"/>
        <rect class="cls-15" x="48.07" y="194.33" width="43.64" height="25.71"/>
        <rect class="cls-15" x="48.07" y="227.51" width="43.64" height="25.71"/>
        <rect class="cls-15" x="48.07" y="260.68" width="43.64" height="25.71"/>
        <rect class="cls-15" x="48.07" y="293.86" width="43.64" height="25.71"/>
        <rect class="cls-15" x="519.68" y="161.16" width="43.64" height="25.71"/>
        <rect class="cls-15" x="519.68" y="194.33" width="43.64" height="25.71"/>
        <rect class="cls-15" x="519.68" y="227.51" width="43.64" height="25.71"/>
        <rect class="cls-15" x="519.68" y="260.68" width="43.64" height="25.71"/>
        <rect class="cls-15" x="519.68" y="293.86" width="43.64" height="25.71"/>
        <g>
          <g>
            <path class="cls-4" d="M310.75,99.83H300.67a31.74,31.74,0,0,0-31.59,31.8v12.12h73.26V131.63A31.73,31.73,0,0,0,310.75,99.83Z"/>
            <path class="cls-10" d="M337,143.75H274.48V131.54a26.28,26.28,0,0,1,26.28-26.28h9.9A26.29,26.29,0,0,1,337,131.54Z"/>
            <path class="cls-11" d="M285.33,136.2a26.29,26.29,0,0,1,26.29-26.29h9.9a27.11,27.11,0,0,1,4.63.43,26.12,26.12,0,0,0-15.49-5.08h-9.9a26.28,26.28,0,0,0-26.28,26.28v12.21h10.85Z"/>
            <rect class="cls-4" x="301.87" y="105.26" width="8.28" height="38.49"/>
          </g>
          <rect class="cls-4" x="269.08" y="137.57" width="73.25" height="6.18"/>
        </g>
        <path class="cls-7" d="M78.62,362.24C94,350.05,104,311.47,65.7,311.47s-28.26,38.58-12.91,50.77Z"/>
        <path class="cls-7" d="M130,362.24c12.26-9.73,12.2-40.53-18.39-40.53S81,352.51,93.21,362.24Z"/>
        <g>
          <rect class="cls-4" x="533.99" y="249.1" width="6.08" height="83.6"/>
          <rect class="cls-4" x="518.17" y="237.69" width="6.08" height="67.64" transform="translate(-66.37 282.68) rotate(-28.61)"/>
          <polygon class="cls-16" points="556.43 318.8 517.68 318.8 525.31 357.56 548.81 357.56 556.43 318.8"/>
          <rect class="cls-12" x="517.69" y="318.8" width="38.75" height="7.86"/>
          <ellipse class="cls-7" cx="554.77" cy="252.88" rx="31.29" ry="40.8" transform="translate(131.8 691.99) rotate(-70.58)"/>
          <ellipse class="cls-7" cx="512.2" cy="230.42" rx="42.61" ry="33.89" transform="translate(-49.03 252.03) rotate(-26.43)"/>
          <ellipse class="cls-7" cx="539.25" cy="194.52" rx="26.39" ry="21.1"/>
          <ellipse class="cls-7" cx="566.74" cy="225.23" rx="28.79" ry="27.41"/>
        </g>
      </g>
      <g>
        <path class="cls-17" d="M554.46,194.21s.55,5.87-2.72,9.16-9.15,2.76-9.15,2.76-.56-5.87,2.72-9.16S554.46,194.21,554.46,194.21Z"/>
        <circle class="cls-18" cx="538.52" cy="214.19" r="10"/>
      </g>
      <g>
        <path class="cls-17" d="M521.88,219.12s.55,5.87-2.72,9.16S510,231,510,231s-.56-5.87,2.72-9.16S521.88,219.12,521.88,219.12Z"/>
        <circle class="cls-18" cx="505.94" cy="239.1" r="10"/>
      </g>
      <g>
        <path class="cls-17" d="M569.38,230.39s.56,5.87-2.72,9.16-9.15,2.75-9.15,2.75-.55-5.87,2.72-9.16S569.38,230.39,569.38,230.39Z"/>
        <circle class="cls-18" cx="553.45" cy="250.36" r="10"/>
      </g>
    </g>
  </g>
</svg>
