<svg xmlns="http://www.w3.org/2000/svg" xmlns:xlink="http://www.w3.org/1999/xlink" width="438.8" height="349.49" viewBox="0 0 438.8 349.49">
  <defs>
    <style>
      .cls-1 {
        isolation: isolate;
      }

      .cls-2 {
        fill: #ff0;
      }

      .cls-3 {
        fill: url(#linear-gradient);
      }

      .cls-4 {
        fill: #888f9c;
      }

      .cls-5 {
        fill: #9aa2b0;
      }

      .cls-6 {
        fill: #c3cbd9;
      }

      .cls-7 {
        fill: #a3abba;
      }

      .cls-8 {
        fill: #aab3c2;
      }

      .cls-9 {
        fill: #7c838f;
      }

      .cls-10 {
        fill: #9da3aa;
      }

      .cls-11 {
        fill: #b6bfcf;
      }

      .cls-12 {
        fill: #e8e8e8;
      }

      .cls-12, .cls-15, .cls-18 {
        mix-blend-mode: multiply;
      }

      .cls-13 {
        fill: #818894;
      }

      .cls-14 {
        fill: #cbd7e8;
      }

      .cls-16, .cls-18 {
        fill: #c9c9c9;
      }

      .cls-17 {
        fill: #8e97a5;
      }

      .cls-19 {
        fill: url(#linear-gradient-2);
      }

      .cls-20 {
        fill: #7f8a91;
      }

      .cls-20, .cls-22 {
        mix-blend-mode: screen;
      }

      .cls-21 {
        fill: #edf7ff;
      }

      .cls-23 {
        fill: #333;
      }

      .cls-24 {
        fill: #dbedfc;
      }

      .cls-25 {
        fill: #9fd3fc;
      }

      .cls-26 {
        fill: #8dccfc;
      }

      .cls-27 {
        fill: #ccd945;
      }

      .cls-28 {
        fill: #a7b339;
      }

      .cls-29 {
        fill: #b1bd3c;
      }

      .cls-30 {
        fill: #81c6fc;
      }
    </style>
    <linearGradient id="linear-gradient" x1="219.4" y1="176.87" x2="219.4" y2="353.27" gradientUnits="userSpaceOnUse">
      <stop offset="0" stop-color="#b4edfc"/>
      <stop offset="1" stop-color="#0094ef"/>
    </linearGradient>
    <linearGradient id="linear-gradient-2" x1="223.88" y1="9.56" x2="223.88" y2="289.56" gradientUnits="userSpaceOnUse">
      <stop offset="0" stop-color="#6ce3ff"/>
      <stop offset="1" stop-color="#0094ef"/>
    </linearGradient>
  </defs>
  <g class="cls-1">
    <g id="Layer_1" data-name="Layer 1">
      <g>
        <path class="cls-2" d="M226,9.32a16.41,16.41,0,0,0-3.09.3,23.73,23.73,0,0,0-4,1.18l-.51.19a4.51,4.51,0,0,1-1.53.29,7.55,7.55,0,0,1-3.44-1.22l-.57-.31a15.42,15.42,0,0,0-7.5-2.43,10.12,10.12,0,0,0-3.61.66,6.07,6.07,0,0,0-2.36-.48h-17a6,6,0,0,0-2.57.58l-15.56,7.37L152.15,8.34a6,6,0,0,0-3.06-.84,6.09,6.09,0,0,0-2.43.51l-11.6,5.13-3.64,0a6.16,6.16,0,0,0-2.85.76l-11.41,6.53a6,6,0,0,0-2.27,2.18l-12.58,21a6.08,6.08,0,0,0-.72,1.84s-9.24,44.21-9.25,44.27a6,6,0,0,0,.13,2.76l4.58,16,.22,29.69-2.41,21.44A6,6,0,0,0,91,157.94h-.29A6,6,0,0,0,86.19,160l-20.8,23.93-6.57-9.58a6,6,0,0,0-4.14-2.55L36.8,169.21a5.64,5.64,0,0,0-1.08-.1,6,6,0,0,0-5,2.68L18.11,190.2a6,6,0,0,0-.91,2.1l-5.32,24.33-.57,1.26c-.21.47-.41.94-.6,1.39a71.82,71.82,0,0,0-5,19.61,56.12,56.12,0,0,0-.36,8.8A58.28,58.28,0,0,0,9,264.75a53.88,53.88,0,0,0,3.77,8A40.92,40.92,0,0,0,17,278.72a48,48,0,0,0,4.78,4.8,35.69,35.69,0,0,0,24.8,9.4,87.47,87.47,0,0,0,14-1.48,76.92,76.92,0,0,1,11.95-1.31,22.93,22.93,0,0,1,16.33,6.3A42,42,0,0,1,94,301.89c2.53,3.33,2.86,5.23,2.79,5.58-.12.19-1.42,1.91-10.6,2.91-1.65.19-3.3.33-4.84.46-7.4.62-14.39,1.21-14.84,7.84-.26,3.81,1.61,8.38,17.52,13.4A141.2,141.2,0,0,0,118.86,338c2.4.11,4.83.17,7.21.17a148.15,148.15,0,0,0,27.87-2.65c7.22-1.38,13.2-3,18-4.34,1.51-.42,2.89-.8,4.15-1.13a71.06,71.06,0,0,1,18-2.62c6.69,0,12.34,1.28,20.42,3.65l3.72,1.1c12.42,3.71,29.43,8.78,59,11,8.9.66,17.45,1,25.41,1a211.24,211.24,0,0,0,37.9-3.09,113,113,0,0,0,31.23-10.14,157.56,157.56,0,0,0,30.29-19.59c14.15-11.93,14.62-18.31,13.74-22.07-1.49-6.34-8-8-13.62-8.56l2.61-1.15L409,277.7c13.7-6.16,25-12,24.49-21-.45-8.06-10.15-12.12-19.53-16l-.37-.16a83.51,83.51,0,0,1-10.27-4.82l.86-1.15c1.51-2,4.31-5.71,3.06-10.2l-5.36-20.76a6,6,0,0,0-3.55-4.05l-6.51-2.66a6.14,6.14,0,0,0-2.26-.44,6,6,0,0,0-3.09.86l-24.79-17.67-6.36-29.71a6,6,0,0,0-1.23-2.55l-8.69-10.57V117.93a6,6,0,0,0-1.83-4.31l-7.42-7.16,1.68-20.37a5.24,5.24,0,0,0,0-1l-2.27-28.26a5.81,5.81,0,0,0-.7-2.37l-9.72-17.94L322,24.65a6,6,0,0,0-3.07-3.82l-13.7-7a6,6,0,0,0-2.72-.65h-6.13l-3.79-5.34a6,6,0,0,0-4.89-2.52,5.54,5.54,0,0,0-1.15.11L275.35,7.61a6,6,0,0,0-2.91,1.47l-2.69,2.47a6.36,6.36,0,0,0-2-.85l-13.69-3a5.92,5.92,0,0,0-1.31-.15,6,6,0,0,0-3.64,1.23l-.54,0a9.24,9.24,0,0,0-5.38,2l-.44.3a7.35,7.35,0,0,1-3,1.25,10.33,10.33,0,0,1-1.92.19l-.6,0a33.57,33.57,0,0,0-3.27-.92l0,0a16.35,16.35,0,0,0-2.62-1.22A15.54,15.54,0,0,0,226,9.32Z"/>
        <g>
          <path class="cls-3" d="M385.65,284.18c.25,2.09,5.93,2,11.75,2.26s11.77.81,12.56,4.2-4,9.6-11.76,16.13a151.27,151.27,0,0,1-29.09,18.79,107.39,107.39,0,0,1-29.65,9.62c-14.43,2.67-34.22,4.06-61.77,2-31.92-2.37-48.38-8-61.52-11.86s-23-5.9-41.58-1.07c-5.24,1.35-12.51,3.61-21.77,5.37A141.74,141.74,0,0,1,119.15,332a135.84,135.84,0,0,1-33.34-5.66c-8.4-2.65-13.46-5.57-13.35-7.27.14-2,7.13-1.94,14.36-2.74s14.7-2.4,15.79-7.6c.7-3.34-1.41-7.26-3.86-10.49a48.32,48.32,0,0,0-5.86-6.32c-11.16-10-22.2-8.2-33.31-6.41s-22.31,3.56-33.8-6.52a41.34,41.34,0,0,1-4.18-4.19A34.94,34.94,0,0,1,18,269.74a45.12,45.12,0,0,1-3.34-7.11,52.8,52.8,0,0,1-3.29-15.3,51.31,51.31,0,0,1,.34-7.79,66,66,0,0,1,4.56-18l.54-1.26c.19-.42.38-.85.59-1.27l.07-.16.08-.17,0-.07,0-.06a20.46,20.46,0,0,1,1.09-2c.4-.64.83-1.28,1.3-1.89,9.35-12.27,32.16-18.26,58.38-21.11s55.86-2.54,78.83-2.2c25.55.38,51.11,3.47,76.66,5.77s51.07,3.82,76.53,1c0,0,5.93-.65,17.92.72s30.05,4.77,54.3,12.86a62.9,62.9,0,0,1,7.2,2.88,29.38,29.38,0,0,1,8.89,6,10.82,10.82,0,0,1,1.71,2.77A15.89,15.89,0,0,1,401,225c.12.25.2.44.27.58l.12.3c.45,1.54-.74,3.28-2.06,5s-2.79,3.53-2.89,5.11c-.24,3.79,7.39,6.92,15.15,10.16s15.61,6.6,15.85,10.85c.29,5.11-10.35,10.43-21,15.21S385.29,281.25,385.65,284.18Z"/>
          <path class="cls-4" d="M349.43,151.14l-5.08-6.1-5.07-6.1,0,0h.05v-21l-4.75-4.59-4.75-4.59,1-11.57,1-11.58L324,55.88l-7.82-29.71-6.85-3.49-6.85-3.49h-9.22l-2.79-3.94-2.79-3.93-5.59,1.09L276.5,13.5l-4.05,3.71-4.05,3.72-1-2.19-1-2.18L259.6,15l-6.85-1.53-.93,1.84-.94,1.84h0c-.83-.19-1.43.17-2.41.67a14.2,14.2,0,0,1-4.65,1.5,13.83,13.83,0,0,1-7-.71,26.73,26.73,0,0,0-7.27-1.71,25.4,25.4,0,0,0-8.56.64,22.47,22.47,0,0,1-8.11.57h-.2l-.2,0-.6-.05-.58-.07-.18,0-.19,0-.37-.05-.36-.05-.17,0-.18,0-.51-.08-.5-.08-.32-.06-.31,0-.31-.06-.3-.05-.44-.08-.42-.08-.28,0-.27-.05-.26-.05-.26,0-.37-.06-.36,0c-.33,0-.65-.08-.95-.1a8.12,8.12,0,0,0-.85,0h-.24l-.16,0-.16,0h-.09l-.1,0-.23.05L202,17l-.11,0-.11,0-.11,0-.1.05-.1,0-.09.05-.11.07-.1.06-.88-2-.89-2h-17l-9.22,4.37-9.22,4.37L156.63,18l-7.27-4.29-.14-.08-.13-.08-4.25,1.88-4.24,1.87-2.12.94-2.11.94-.07,0-.06,0h-4.75l-.18.09-.18.1-3.24,1.86-3.24,1.86-2.29,1.31-2.29,1.3,0,0h0l-6.28,10.49-6.29,10.48-.06.3-.06.29-.93,4.41-.92,4.42-3.62,17.33L98.25,90.78l12.32-14.47,12.32-14.48L110.56,76.34,98.24,90.84l2.4,8.38,2.4,8.38.12,15.43.11,15.44-1.82,16.17L99.64,170.8v16.28l3.53,1.15,3.54,1.14,4.06-6.39,4.07-6.38h0v.12l0,.12,4-3.81,4-3.79.21-1.77.21-1.76h0l11.34-9.63L146,146.44l3.68,3.86,3.69,3.87,1.29,1.35,1.29,1.35,1.43,1.5,1.43,1.49-.51-3.05-.51-3.05-.38-2.3-.39-2.29,1.73,0,1.72,0,8.63.14,8.63.13.15,2.45.15,2.44.05-1.06.06-1.06.09-1,.09-1.06,3.9,4.33,3.9,4.32c.16,2,.31,4.06.47,6.09s.33,4.08.5,6.12c0,.51.09,1,.13,1.53s.08,1,.13,1.53c.12,1.54.25,3.07.38,4.6l.39,4.6c.09,1,.18,2,.26,3s.18,1.94.27,2.9c0,.28.06.57.08.86s.06.57.08.86c.05.46.09.92.14,1.38s.09.91.13,1.36l.06.54.06.54c.08.86.17,1.71.26,2.54s.17,1.65.26,2.45l.12,1.09c0,.37.08.72.12,1.08v.08c0,.3.07.61.11.92s.07.6.1.9,0,.32,0,.47l.06.46,0,.23c0,.08,0,.15,0,.23,0,.34.09.69.12,1s.09.67.13,1a.31.31,0,0,0,0,.1s0,.07,0,.1c0,.29.07.58.1.87s.07.56.11.84l.06.5.06.49c.1.77.19,1.52.29,2.25s.18,1.43.27,2.11.15,1.07.22,1.59.14,1,.2,1.47l32.66.61,32.65.61c.2-2.77.39-5.52.56-8.23s.35-5.39.51-8c.08-1.44.17-2.88.25-4.31s.16-2.85.24-4.26h0l9.1-5,9.1-5,10.91-5.43L298.85,173l3.47.86,3.46.86,3.94,1,3.94,1,.21.05.2.05,1.66.42,1.67.42,3,.74,3,.76,3.11-2.62,3.11-2.62.52-.44.53-.44,4.47.87,4.47.88,3.21,2.62,3.21,2.62h5.31l2.49,1.77,2.49,1.78-3.47-16.2Z"/>
          <polygon class="cls-5" points="129.47 43.67 129.4 44.7 129.33 45.73 129.02 50.34 128.7 54.96 128.7 54.98 128.7 55.01 128.69 55.11 128.69 55.2 127.93 66.32 127.17 77.43 126.49 87.31 125.81 97.18 126.49 115.23 127.17 133.29 126.25 140.98 125.33 148.67 124.32 157.18 123.31 165.7 123.31 165.7 123.31 165.7 123.1 167.46 122.89 169.23 118.85 173.02 114.81 176.82 114.82 176.71 114.84 176.6 114.84 176.6 114.84 176.59 114.84 176.59 114.84 176.59 115.13 174.22 115.42 171.86 115.42 171.86 115.42 171.86 116.21 165.44 117 159.03 117.17 157.64 117.34 156.25 117.34 156.25 117.34 156.25 118.71 145.12 120.07 133.99 118.65 117.97 117.22 101.94 120.05 81.9 122.88 61.85 122.89 61.84 122.89 61.83 126.18 52.75 129.47 43.67"/>
          <polygon class="cls-6" points="133.79 55 131.7 55.09 129.6 55.17 129.44 55.18 129.27 55.18 128.98 55.19 128.69 55.2 128.6 55.21 128.52 55.22 117.01 55.67 105.49 56.12 106.41 51.71 107.34 47.3 107.4 47.01 107.46 46.71 113.75 36.22 120.03 25.73 120.05 25.73 120.08 25.71 122.36 24.41 124.65 23.1 127.16 31.87 129.68 40.65 130.19 42.42 130.69 44.2 132.24 49.6 133.79 55"/>
          <polygon class="cls-6" points="135.32 19.18 133 31.69 130.69 44.2 129.71 49.52 128.73 54.86 128.71 54.93 128.7 55 128.68 54.92 128.65 54.83 124.36 40.27 120.08 25.71 122.36 24.41 124.65 23.1 127.89 21.24 131.13 19.39 131.31 19.28 131.49 19.18 133.4 19.18 135.32 19.18"/>
          <polygon class="cls-7" points="117.22 101.94 118.65 117.97 120.08 134 111.67 136.23 103.27 138.47 103.16 123.04 103.04 107.6 110.13 104.77 117.22 101.94"/>
          <polygon class="cls-8" points="132.59 56.23 130.93 55.71 129.27 55.18 128.98 55.09 128.7 55 128.61 55.11 128.52 55.22 113.39 73 98.25 90.79 101.87 73.46 105.49 56.12 106.41 51.71 107.34 47.3 117.99 51.07 128.65 54.83 128.68 54.84 128.71 54.85 128.72 54.86 128.73 54.86 129.16 55.02 129.6 55.17 131.1 55.7 132.59 56.23"/>
          <polygon class="cls-8" points="150.07 107.6 138.62 92.52 127.17 77.44 127.93 66.32 128.69 55.2 128.69 55.1 128.7 55 128.7 54.93 128.71 54.85 129.19 47.75 129.68 40.65 130.41 30.02 131.13 19.39 131.31 19.28 131.49 19.18 133.86 19.18 136.24 19.18 136.3 19.15 136.36 19.13 138.48 18.19 140.6 17.25 145.34 62.43 150.07 107.6"/>
          <polygon class="cls-8" points="163.9 22.24 158.57 42.65 153.24 63.06 151.16 38.28 149.09 13.51 149.09 13.51 149.09 13.5 149.22 13.58 149.35 13.65 156.63 17.95 163.9 22.24"/>
          <polygon class="cls-5" points="115.42 171.86 115.42 173.77 115.42 175.68 115.13 176.13 114.84 176.59 114.84 176.59 114.84 176.59 114.84 176.6 114.84 176.6 110.77 182.98 106.71 189.37 103.17 188.22 99.64 187.08 99.64 178.94 99.64 170.81 103.46 171.06 107.28 171.31 111.35 171.59 115.42 171.86"/>
          <polygon class="cls-8" points="103.04 107.6 110.13 104.77 117.22 101.94 122.87 78.58 128.52 55.22 113.38 73.03 98.24 90.84 100.64 99.22 103.04 107.6"/>
          <polygon class="cls-7" points="103.27 138.47 101.45 154.64 99.64 170.81 107.53 171.33 115.42 171.86 117.75 152.93 120.08 134 111.67 136.23 103.27 138.47"/>
          <polygon class="cls-8" points="146 146.44 134.66 156.07 123.31 165.7 123.31 165.7 123.31 165.7 124.32 157.18 125.33 148.67 126.25 140.98 127.17 133.29 131 135.19 134.83 137.08 136.95 138.13 139.06 139.18 142.53 142.81 146 146.44"/>
          <polygon class="cls-8" points="158.81 159.86 157.38 158.37 155.95 156.87 154.66 155.52 153.37 154.16 149.68 150.3 146 146.44 142.53 142.81 139.06 139.18 140.52 134.98 141.99 130.78 144.85 122.57 147.72 114.35 148.89 110.97 150.07 107.6 152.01 119.19 153.95 130.78 154.11 131.72 154.26 132.65 155.64 140.91 157.02 149.17 157.41 151.47 157.79 153.76 158.3 156.81 158.81 159.86"/>
          <polygon class="cls-9" points="109.91 91.64 108.52 98.86 107.13 106.07 109.29 113.97 111.45 121.87 110.68 113.41 109.91 104.96 109.91 98.3 109.91 91.64"/>
          <polygon class="cls-6" points="110.5 104.72 110.2 98.18 109.91 91.64 109.44 98.49 108.97 105.33 110.21 113.6 111.45 121.87 110.98 113.29 110.5 104.72"/>
          <polygon class="cls-7" points="117.22 101.94 114.96 119.09 112.7 136.23 115.02 146.24 117.34 156.25 118.71 145.13 120.08 134 118.65 117.97 117.22 101.94"/>
          <polygon class="cls-8" points="127.17 77.44 126.49 87.31 125.81 97.18 137.94 102.39 150.07 107.6 138.62 92.52 127.17 77.44"/>
          <polygon class="cls-8" points="125.81 97.18 126.49 115.23 127.17 133.29 133.11 136.23 139.06 139.18 144.57 123.39 150.07 107.6 137.94 102.39 125.81 97.18"/>
          <polygon class="cls-10" points="136.36 19.13 132.52 37.16 128.69 55.2 118.01 51.25 107.34 47.3 113.71 36.51 120.08 25.71 125.78 22.45 131.49 19.18 133.93 19.15 136.36 19.13"/>
          <polygon class="cls-8" points="149.09 13.5 142.73 16.31 136.36 19.13 132.52 37.16 128.69 55.2 139.87 46.15 151.06 37.09 150.07 25.3 149.09 13.5"/>
          <polygon class="cls-8" points="151.06 37.09 147.2 40.22 143.34 43.35 146.7 75.47 150.07 107.6 151.66 85.33 153.24 63.06 152.15 50.08 151.06 37.09"/>
          <polygon class="cls-6" points="149.09 13.5 142.73 16.31 136.36 19.13 132.52 37.16 128.69 55.2 146.29 38.73 163.9 22.24 163.9 22.24 163.9 22.24 156.5 17.87 149.09 13.5"/>
          <polygon class="cls-11" points="284.34 120.21 280.68 152.03 277.03 183.85 272.15 188.03 267.28 192.22 263.06 193.77 258.83 195.32 258.83 195.32 258.83 195.32 258.83 195.32 258.83 195.32 251.6 198.57 244.37 201.82 249.01 163.73 253.66 125.65 254.7 125.46 255.74 125.27 258.46 124.8 261.18 124.32 262.64 124.06 264.1 123.8 274.22 122 284.34 120.21"/>
          <polygon class="cls-12" points="162.97 137.27 163.44 140.35 163.9 143.43 162.19 146.33 160.47 149.22 159.13 151.49 157.79 153.76 156.87 155.31 155.95 156.87 155.06 158.37 154.18 159.86 153.77 157.01 153.37 154.16 151.71 142.47 150.05 130.78 148.88 122.57 147.72 114.35 147.35 111.77 146.98 109.18 147.1 107.78 147.21 106.37 147.31 105.23 147.4 104.08 147.91 97.92 148.41 91.76 149.61 77.1 150.81 62.43 151.76 59.53 152.7 56.64 158.3 39.44 163.9 22.24 160.41 53.05 156.93 83.85 156.49 87.75 156.05 91.64 158.25 106.13 160.44 120.62 161.71 128.95 162.97 137.27"/>
          <polygon class="cls-11" points="172.29 60.55 162.77 61.81 153.24 63.06 152.73 70.25 152.22 77.44 164.26 93.84 176.31 110.25 174.3 85.4 172.29 60.55"/>
          <polygon class="cls-6" points="199.38 13.5 185.84 37.03 172.29 60.55 175.16 107.46 178.03 154.38 180.29 113.2 182.55 72.02 190.97 42.76 199.38 13.5"/>
          <polygon class="cls-8" points="199.38 13.5 189.61 41.27 179.83 69.04 179.1 105.3 178.36 141.56 178.04 145.52 177.73 149.49 177.96 149.75 178.19 150 178.16 151.13 178.14 152.26 178.23 151.21 178.32 150.15 184.89 153.21 191.45 156.25 191.29 114.84 191.13 73.43 196.94 47.18 202.74 20.93 201.06 17.22 199.38 13.5"/>
          <polygon class="cls-11" points="152.22 77.44 151.15 92.52 150.07 107.6 152.13 120.21 154.18 132.81 162.14 117.31 170.11 101.8 161.16 89.62 152.22 77.44"/>
          <polygon class="cls-11" points="264.1 41.24 258.88 31.74 253.66 22.24 256.24 75.67 258.83 129.1 271.58 124.65 284.34 120.21 279.33 80.72 274.31 41.24 269.21 41.24 264.1 41.24"/>
          <polygon class="cls-6" points="266.44 16.56 259.6 15.03 252.75 13.5 251.81 15.34 250.88 17.18 257.49 29.21 264.1 41.24 269.21 41.24 274.31 41.24 271.36 31.09 268.4 20.93 267.42 18.75 266.44 16.56"/>
          <polygon class="cls-8" points="264.1 41.24 264.1 84.25 264.1 127.26 261.47 160.56 258.83 193.86 258.82 193.67 258.81 193.47 257.28 159.38 255.74 125.27 253.31 71.23 250.88 17.18 251.81 15.34 252.75 13.5 258.43 27.37 264.1 41.24"/>
          <polygon class="cls-6" points="182.34 13.5 173.12 17.87 163.9 22.24 158.57 42.65 153.24 63.06 162.77 61.81 172.29 60.55 185.84 37.03 199.38 13.5 190.86 13.5 182.34 13.5"/>
          <polygon class="cls-11" points="177.73 149.49 169.1 149.36 160.47 149.22 158.75 149.2 157.02 149.17 156.93 149.17 156.84 149.16 155.51 140.99 154.18 132.81 154.22 132.73 154.26 132.65 154.74 131.72 155.22 130.78 157.83 125.7 160.44 120.62 165.28 111.21 170.11 101.8 172.67 105.3 175.24 108.79 176.11 123.03 176.98 137.27 177.35 143.38 177.73 149.49"/>
          <g>
            <g>
              <polygon class="cls-6" points="69.92 218.69 43.75 218.69 17.57 218.69 17.58 218.64 17.59 218.59 20.3 206.22 23 193.84 23.03 193.72 23.06 193.6 29.39 184.35 35.73 175.11 35.79 175.12 35.85 175.13 36.64 175.25 37.42 175.37 45.42 176.53 53.42 177.69 53.65 177.72 53.88 177.75 54.03 177.98 54.19 178.21 59.32 185.69 64.44 193.17 65.45 194.63 66.45 196.09 66.5 196.17 66.55 196.24 68.21 207.29 69.87 218.35 69.9 218.52 69.92 218.69"/>
              <polygon class="cls-5" points="40.79 194.92 45.84 190.5 50.88 186.07 51.47 187.4 52.05 188.73 52.38 189.48 52.7 190.22 56.11 197.94 59.51 205.67 60.4 212.18 61.28 218.69 52.88 218.69 44.47 218.69 42.63 206.8 40.79 194.92"/>
              <path class="cls-13" d="M69.87,218.35l-.39.17-.42.17H61.12c-.25-1.77-.55-4.12-.84-6.48s-.56-4.73-.77-6.54c-.11-.95-.19-1.74-.26-2.29s-.09-.87-.09-.87l2.64-4.67,2.64-4.67,1,1.46,1,1.46,0,.08,0,.07,1.66,11.06Z"/>
              <polygon class="cls-4" points="66.45 196.1 63.02 200.96 59.58 205.81 59.55 205.74 59.51 205.67 56.08 198.2 52.64 190.74 52.31 190.03 51.98 189.31 52.7 183.5 53.42 177.69 53.65 177.72 53.88 177.75 54.04 177.98 54.19 178.21 59.32 185.69 64.45 193.17 65.45 194.63 66.45 196.1"/>
              <polygon class="cls-6" points="40.79 194.92 31.9 194.38 23 193.84 23.03 193.72 23.06 193.6 29.39 184.36 35.73 175.11 35.79 175.12 35.85 175.13 36.64 175.25 37.42 175.36 39.11 185.14 40.79 194.92"/>
              <polygon class="cls-8" points="54.19 178.21 53.42 184.48 52.64 190.74 52.63 190.85 52.62 190.96 46.7 192.94 40.79 194.92 38.32 185.03 35.85 175.13 44.64 176.41 53.42 177.69 53.65 177.72 53.88 177.75 54.04 177.98 54.19 178.21"/>
              <polygon class="cls-11" points="45.29 218.69 31.43 218.69 17.57 218.69 17.58 218.64 17.59 218.59 29.2 206.75 40.8 194.92 43.04 206.81 45.29 218.69"/>
            </g>
            <polygon class="cls-5" points="59.09 204.83 54.85 204.83 50.62 204.83 54.58 211.77 58.54 218.72 66.21 218.72 73.88 218.72 66.48 211.77 59.09 204.83"/>
            <polygon class="cls-5" points="151.56 201.62 147.53 210.17 143.51 218.72 133.57 218.72 123.64 218.72 132.51 199.16 141.38 179.6 146.47 190.61 151.56 201.62"/>
            <polygon class="cls-8" points="178.34 181.57 174.05 200.14 169.76 218.72 154.81 218.72 139.87 218.72 141.31 210.26 142.76 201.81 142.07 190.71 141.38 179.6 143.24 166.43 145.1 153.26 158.82 157.31 172.55 161.36 175.44 171.47 178.34 181.57"/>
            <polygon class="cls-5" points="219.31 218.72 193.17 218.72 167.02 218.72 169.66 193.46 172.3 168.2 184.8 159.9 197.3 151.59 199.77 155.58 202.23 159.57 202.29 159.66 202.34 159.75 209.89 176.54 217.43 193.33 218.37 206.03 219.31 218.72"/>
            <polygon class="cls-11" points="202.23 159.57 187.27 163.88 172.3 168.2 159.29 161.71 146.28 155.22 145.69 145.1 145.1 134.98 150.34 134.98 155.58 134.98 158.37 138.17 161.15 141.36 161.2 141.41 161.24 141.46 176.14 141.46 191.03 141.46 196.63 150.52 202.23 159.57"/>
            <polygon class="cls-11" points="144.6 134.98 142.99 157.29 141.38 179.6 136.73 189.82 132.08 200.05 122.52 200.83 112.97 201.62 107.69 191 102.41 180.39 111.27 169.18 120.14 157.98 129.56 146.48 138.99 134.98 141.8 134.98 144.6 134.98"/>
            <polygon class="cls-9" points="154.79 144.8 150.53 150.01 146.28 155.23 143.83 167.41 141.38 179.6 142.07 165.44 142.76 151.29 147.1 147.21 151.44 143.13 153.11 143.97 154.79 144.8"/>
            <polygon class="cls-8" points="161.15 141.36 151.96 146.33 142.76 151.29 140.9 143.13 139.04 134.98 147.31 134.98 155.58 134.98 158.37 138.17 161.15 141.36"/>
            <polygon class="cls-4" points="217.92 199.94 192.47 209.33 167.02 218.72 184.68 189.23 202.34 159.75 209.88 176.54 217.43 193.33 217.43 193.33 217.43 193.33 217.67 196.63 217.92 199.94"/>
            <polygon class="cls-13" points="219.31 218.72 193.17 218.72 167.02 218.72 192.22 206.02 217.43 193.33 217.43 193.33 217.43 193.33 218.37 206.03 219.31 218.72"/>
            <polygon class="cls-8" points="102.41 180.39 121.89 179.99 141.38 179.6 132.51 199.16 123.64 218.72 115.85 218.72 108.07 218.72 105.24 199.55 102.41 180.39"/>
            <polygon class="cls-11" points="142.76 201.81 144.52 178.52 146.28 155.23 143.83 167.41 141.38 179.6 142.07 190.71 142.76 201.81"/>
            <polygon class="cls-9" points="90.72 163.93 87.64 176.58 84.56 189.23 87.08 197.63 89.59 206.02 89.09 196.97 88.58 187.92 93.64 181.51 98.69 175.11 94.7 169.52 90.72 163.93"/>
            <polygon class="cls-11" points="62.06 196.9 73.31 193.07 84.56 189.23 87.64 176.58 90.72 163.93 76.39 180.42 62.06 196.9"/>
            <polygon class="cls-8" points="84.56 189.23 73.31 193.07 62.06 196.9 67.97 207.81 73.88 218.72 80.35 218.72 86.82 218.72 88.21 212.37 89.59 206.02 87.08 197.63 84.56 189.23"/>
            <polygon class="cls-11" points="98.69 175.11 93.64 181.51 88.58 187.92 95.5 184.16 102.41 180.39 100.55 177.75 98.69 175.11"/>
            <polygon class="cls-5" points="102.41 180.39 105.24 199.55 108.07 218.72 98.83 212.37 89.59 206.02 89.09 196.97 88.58 187.92 95.5 184.16 102.41 180.39"/>
            <polygon class="cls-4" points="89.59 206.02 88.21 212.37 86.82 218.72 97.45 218.72 108.07 218.72 98.83 212.37 89.59 206.02"/>
            <polygon class="cls-9" points="89.59 206.02 88.21 212.37 86.82 218.72 89.53 218.72 92.23 218.72 90.91 212.37 89.59 206.02"/>
            <polygon class="cls-11" points="45.47 196.9 48.04 200.86 50.62 204.83 54.85 204.83 59.09 204.83 60.57 200.86 62.06 196.9 53.76 196.9 45.47 196.9"/>
            <polygon class="cls-6" points="45.47 196.9 41.7 207.81 37.93 218.72 44.27 211.77 50.62 204.83 48.04 200.86 45.47 196.9"/>
            <polygon class="cls-9" points="62.06 196.9 60.57 200.86 59.09 204.83 66.48 211.77 73.88 218.72 67.97 207.81 62.06 196.9"/>
            <polygon class="cls-8" points="50.62 204.83 54.58 211.77 58.54 218.72 48.23 218.72 37.93 218.72 44.27 211.77 50.62 204.83 50.62 204.83 50.62 204.83"/>
            <polygon class="cls-9" points="73.47 193.01 74.65 190.47 75.82 187.92 75.5 190.18 75.17 192.43 76.66 205.57 78.15 218.72 75.81 205.87 73.47 193.01"/>
            <polygon class="cls-14" points="145.1 151.88 143.24 165.74 141.38 179.6 143.83 167.41 146.28 155.22 150.53 150.01 154.79 144.8 149.94 148.34 145.1 151.88"/>
            <polygon class="cls-14" points="75.82 187.92 75.82 190.06 75.82 192.21 76.99 205.46 78.15 218.72 76.53 205.61 74.91 192.5 75.37 190.21 75.82 187.92"/>
          </g>
          <g class="cls-15">
            <polygon class="cls-16" points="217.92 199.94 217.92 199.94 217.92 199.94 217.67 196.63 217.43 193.33 209.89 176.54 202.34 159.75 202.29 159.66 202.23 159.57 196.63 150.52 191.03 141.46 176.14 141.46 161.24 141.46 161.2 141.41 161.15 141.36 158.37 138.17 155.58 134.98 150.34 134.98 145.1 134.98 144.85 134.98 144.6 134.98 141.82 134.98 139.04 134.98 139.01 134.98 138.99 134.98 129.56 146.48 120.14 157.98 111.27 169.18 102.41 180.39 100.55 177.75 98.69 175.11 93.64 181.51 88.58 187.92 89.09 196.97 89.59 206.02 98.83 212.37 108.07 218.72 115.85 218.72 123.64 218.72 132.34 199.53 141.05 180.34 141.21 179.97 141.38 179.6 141.38 179.6 141.38 179.6 132.51 199.16 123.64 218.72 131.75 218.72 139.87 218.72 141.69 218.72 143.51 218.72 155.27 218.72 167.02 218.72 168.39 218.72 169.76 218.72 194.53 218.72 219.31 218.72 218.62 209.33 217.92 199.94"/>
            <polygon class="cls-16" points="98.69 175.11 94.7 169.52 90.72 163.93 77.77 178.83 64.82 193.72 64.63 193.44 64.44 193.17 63.92 192.41 63.41 191.66 58.8 184.93 54.19 178.21 54.04 177.98 53.88 177.75 53.88 177.75 53.88 177.75 53.88 177.75 53.88 177.75 53.77 177.74 53.67 177.72 53.55 177.71 53.42 177.69 44.84 176.44 36.25 175.19 36.16 175.18 36.07 175.17 35.96 175.15 35.85 175.13 35.79 175.12 35.73 175.11 29.39 184.35 23.06 193.6 23.04 193.68 23.02 193.76 23.01 193.8 23 193.84 23 193.84 23 193.84 23 193.84 23 193.84 20.3 206.22 17.59 218.59 17.58 218.64 17.57 218.69 27.75 218.69 37.93 218.69 37.93 218.71 37.93 218.72 48.23 218.72 58.54 218.72 58.54 218.72 58.54 218.72 66.21 218.72 73.88 218.72 80.35 218.72 86.82 218.72 89.53 218.72 92.23 218.72 100.15 218.72 108.07 218.72 98.83 212.37 89.59 206.02 89.09 196.97 88.58 187.92 93.64 181.51 98.69 175.11"/>
          </g>
          <polygon class="cls-7" points="168.89 61 174.41 54.15 179.92 47.3 176.11 53.92 172.29 60.55 172.98 71.87 173.68 83.19 171.28 72.09 168.89 61"/>
          <polygon class="cls-14" points="179.92 47.3 176.11 53.92 172.29 60.55 172.98 71.87 173.68 83.19 173.45 72.39 173.22 61.6 176.57 54.45 179.92 47.3"/>
          <polygon class="cls-6" points="293.26 19.18 290.47 15.25 287.68 11.32 282.09 12.41 276.5 13.5 272.45 17.22 268.4 20.93 271.9 31.09 275.4 41.24 286.12 40 296.85 38.77 295.06 28.98 293.26 19.18"/>
          <polygon class="cls-11" points="296.85 38.77 286.12 40 275.4 41.24 279.87 80.72 284.34 120.21 280.68 152.03 277.03 183.85 287.94 178.42 298.85 172.99 301.62 144 304.4 115.02 300.62 76.89 296.85 38.77"/>
          <polygon class="cls-8" points="268.4 20.93 275.09 30.72 281.78 40.5 283.06 80.36 284.34 120.21 279.33 80.72 274.31 41.24 271.36 31.09 268.4 20.93"/>
          <polygon class="cls-4" points="279.19 41.24 273.8 31.09 268.4 20.93 271.36 31.09 274.31 41.24 279.33 80.72 284.34 120.21 281.77 80.72 279.19 41.24"/>
          <polygon class="cls-6" points="316.18 26.18 309.33 22.68 302.48 19.18 297.87 19.18 293.26 19.18 295.06 28.98 296.85 38.77 304.51 41.13 312.17 43.5 315.83 41.13 319.49 38.77 317.83 32.47 316.18 26.18"/>
          <polygon class="cls-11" points="312.17 43.5 304.51 41.13 296.85 38.77 300.62 76.89 304.4 115.02 301.62 144 298.85 172.99 304.97 178.42 311.08 183.85 313.43 148.57 315.78 113.29 313.97 78.4 312.17 43.5"/>
          <polygon class="cls-11" points="319.49 38.77 315.83 41.13 312.17 43.5 313.97 78.4 315.78 113.29 313.43 148.57 311.08 183.85 317.41 183.85 323.73 183.85 327.78 134.72 331.82 85.6 325.66 62.18 319.49 38.77"/>
          <polygon class="cls-6" points="329.87 108.75 328.9 120.82 327.93 132.88 330.23 137.85 332.52 142.82 335.94 140.86 339.37 138.91 339.37 128.42 339.37 117.94 334.62 113.34 329.87 108.75"/>
          <polygon class="cls-8" points="332.52 142.82 330.23 137.85 327.93 132.88 326.05 155.69 324.17 178.49 329.55 184.6 334.93 190.72 333.73 166.77 332.52 142.82"/>
          <polygon class="cls-8" points="332.52 142.82 332.76 147.56 333 152.3 341.21 151.72 349.43 151.14 344.4 145.02 339.37 138.91 332.52 142.82"/>
          <polygon class="cls-8" points="349.43 151.14 341.21 151.72 333 152.3 333.85 169.22 334.7 186.13 345.53 184.83 356.36 183.53 352.89 167.34 349.43 151.14"/>
          <polygon class="cls-17" points="296.85 38.77 289.31 39.63 281.78 40.5 283.06 80.36 284.34 120.21 284.34 153.91 284.34 187.61 291.6 180.3 298.85 172.99 301.62 144 304.4 115.02 300.62 76.89 296.85 38.77"/>
          <polygon class="cls-5" points="312.17 43.5 313.51 69.51 314.86 95.52 317.18 67.14 319.49 38.77 315.83 41.13 312.17 43.5"/>
          <polygon class="cls-6" points="329.55 57.34 324.52 48.05 319.49 38.77 317.68 60.98 315.87 83.19 319.01 86.2 322.15 89.2 326.99 87.4 331.82 85.6 330.69 71.47 329.55 57.34"/>
          <polygon class="cls-4" points="324.81 76.84 323.48 83.02 322.15 89.2 323.48 102.11 324.81 115.02 324.49 101.73 324.17 88.45 324.49 82.65 324.81 76.84"/>
          <polygon class="cls-14" points="324.81 76.84 324.49 82.65 324.17 88.45 324.49 101.44 324.81 114.42 324.99 101.25 325.17 88.08 324.99 82.46 324.81 76.84"/>
          <polygon class="cls-5" points="314.86 95.52 315.36 103.41 315.87 111.31 313.02 146.07 310.18 180.83 313.02 181.53 315.87 182.24 316.45 146.77 317.05 111.31 315.95 103.41 314.86 95.52"/>
          <polygon class="cls-4" points="296.85 38.77 295.06 28.98 293.26 19.18 296.5 29.42 299.73 39.66 299.4 50.42 299.07 61.19 297.96 49.98 296.85 38.77"/>
          <polygon class="cls-8" points="293.26 19.18 297.08 29.6 300.9 40.02 299.99 50.61 299.07 61.19 299.4 50.69 299.73 40.19 296.5 29.68 293.26 19.18"/>
          <g>
            <polygon class="cls-8" points="401.42 225.86 322.05 225.86 242.67 225.86 244.37 222.32 246.07 218.78 246.07 213.91 246.07 209.04 251.16 202.19 256.25 195.33 261.07 193.56 265.88 191.79 269.41 188.24 272.95 184.7 274.32 184.02 275.68 183.35 281.74 180.33 287.8 177.32 289.56 176.44 291.33 175.56 294.59 173.94 297.85 172.31 301.36 173.19 304.86 174.06 308.86 175.05 312.85 176.05 313.06 176.1 313.26 176.15 314.95 176.57 316.63 176.99 319.69 177.75 322.75 178.51 325.9 175.86 329.05 173.21 329.58 172.76 330.11 172.31 334.64 173.2 339.16 174.09 342.42 176.74 345.67 179.39 348.36 179.39 351.05 179.39 353.57 181.19 356.09 182.99 371.26 193.8 386.42 204.62 387.98 203.51 389.53 202.41 392.79 203.73 396.04 205.06 398.73 215.46 401.42 225.86"/>
            <polygon class="cls-11" points="322.75 178.51 321.2 202.19 319.65 225.86 310.14 225.86 300.63 225.86 298.78 213.38 296.94 200.89 309.84 189.7 322.75 178.51"/>
            <polygon class="cls-6" points="297.85 172.31 285.4 178.51 272.95 184.71 269.41 188.25 265.88 191.79 268.4 193.94 270.93 196.08 283.93 198.48 296.94 200.89 309.84 189.7 322.75 178.51 310.3 175.41 297.85 172.31"/>
            <polygon class="cls-6" points="339.16 174.09 334.64 173.2 330.11 172.31 326.43 175.41 322.75 178.51 327 183.64 331.24 188.77 338.46 184.08 345.67 179.39 342.42 176.74 339.16 174.09"/>
            <polygon class="cls-6" points="351.05 179.39 348.36 179.39 345.67 179.39 349.19 188.28 352.71 197.17 369.57 200.9 386.42 204.62 368.73 192 351.05 179.39"/>
            <polygon class="cls-6" points="389.53 202.41 387.98 203.51 386.42 204.62 388.06 207.88 389.69 211.15 392.87 208.11 396.04 205.06 392.79 203.73 389.53 202.41"/>
            <polygon class="cls-8" points="331.24 188.77 327 183.64 322.75 178.51 321.2 202.19 319.65 225.86 328.03 225.86 336.41 225.86 333.82 207.31 331.24 188.77"/>
            <polygon class="cls-11" points="345.67 179.39 341.04 202.63 336.41 225.86 344.56 211.52 352.71 197.17 349.19 188.28 345.67 179.39"/>
            <polygon class="cls-11" points="396.04 205.06 392.87 208.11 389.69 211.15 390.06 218.51 390.42 225.86 395.92 225.86 401.42 225.86 398.73 215.46 396.04 205.06"/>
            <polygon class="cls-5" points="389.69 211.15 388.06 207.88 386.42 204.62 385.79 208.43 385.16 212.23 387.79 219.05 390.42 225.86 390.06 218.51 389.69 211.15"/>
            <polygon class="cls-11" points="387.18 211.85 386.8 208.24 386.42 204.62 369.57 200.9 352.71 197.17 356.22 211.52 359.72 225.86 375.07 225.86 390.42 225.86 388.8 218.86 387.18 211.85"/>
            <polygon class="cls-6" points="265.88 191.79 261.06 193.56 256.25 195.33 251.16 202.19 246.07 209.04 253.23 208.46 260.39 207.87 265.66 201.98 270.93 196.08 268.4 193.94 265.88 191.79"/>
            <polygon class="cls-8" points="296.94 200.89 283.93 198.48 270.93 196.08 265.66 201.98 260.39 207.87 260.97 216.87 261.54 225.86 281.09 225.86 300.63 225.86 298.78 213.38 296.94 200.89"/>
            <polygon class="cls-14" points="389.69 211.15 388.06 207.88 386.42 204.62 387.31 207.88 388.2 211.15 389.31 218.51 390.42 225.86 390.06 218.51 389.69 211.15"/>
            <polygon class="cls-5" points="356.19 192 356.89 195.13 357.6 198.25 357.25 206.27 356.89 214.29 358.47 206.54 360.05 198.79 358.12 195.4 356.19 192"/>
            <polygon class="cls-14" points="356.19 192 357.61 195.31 359.03 198.61 357.96 206.45 356.89 214.29 358.88 206.63 360.87 198.97 358.53 195.49 356.19 192"/>
            <polygon class="cls-5" points="331.24 188.77 332.31 196.47 333.39 204.18 333.8 195.51 334.21 186.84 335.31 183.69 336.41 180.54 333.82 184.65 331.24 188.77"/>
            <polygon class="cls-14" points="336.41 180.54 333.52 184.29 330.64 188.04 332.01 196.11 333.39 204.18 332.7 196.18 332.01 188.17 334.21 184.35 336.41 180.54"/>
            <polygon class="cls-5" points="270.93 196.08 268.4 193.94 265.88 191.79 271.38 194.49 276.88 197.18 274.3 211.52 271.72 225.86 271.33 210.97 270.93 196.08"/>
          </g>
          <polygon class="cls-18" points="396.04 205.06 393.47 204.01 390.9 202.96 390.22 202.68 389.53 202.41 388.49 203.15 387.44 203.89 386.93 204.25 386.42 204.62 372.65 194.79 358.87 184.97 354.96 182.18 351.05 179.39 348.36 179.39 345.67 179.39 344.74 178.63 343.81 177.88 341.49 175.98 339.16 174.09 334.64 173.2 330.11 172.31 330.04 172.38 329.97 172.44 329.51 172.82 329.05 173.21 325.9 175.86 322.75 178.51 319.69 177.75 316.63 176.99 314.95 176.57 313.26 176.15 313.06 176.1 312.85 176.05 308.86 175.05 304.86 174.06 302.01 173.35 299.15 172.64 298.5 172.47 297.85 172.31 292.92 174.77 287.99 177.22 287.89 177.27 287.8 177.32 287.76 177.33 287.73 177.35 280.44 180.98 273.15 184.6 273.05 184.65 272.95 184.7 272.95 184.7 272.95 184.7 272.95 184.71 272.95 184.71 272.32 185.33 271.69 185.96 268.79 188.87 265.88 191.79 261.07 193.56 256.25 195.33 251.16 202.19 246.07 209.04 246.07 213.91 246.07 218.78 244.37 222.32 242.67 225.86 252.11 225.86 261.54 225.86 281.09 225.86 300.63 225.86 310.14 225.86 319.65 225.86 328.03 225.86 336.41 225.86 348.06 225.86 359.72 225.86 375.07 225.86 390.42 225.86 395.92 225.86 401.42 225.86 398.73 215.46 396.04 205.06"/>
          <g>
            <path class="cls-19" d="M266.27,247l-.28,0-.27,0-1.61.19-1.62.2h-.15l-.15,0a3.15,3.15,0,0,0-.52.09,1.56,1.56,0,0,0-.5.25,2,2,0,0,0-.51.7,5.79,5.79,0,0,0-.34,1c-5.47.36-11.09.63-16.83.77s-11.61.18-17.61.08h-.34l-1.31,0-1.33,0q-10.29-.26-20.09-1t-19.06-1.85l-.12-.27a2.1,2.1,0,0,0-.13-.26,3.26,3.26,0,0,0-.24-.4,3.32,3.32,0,0,0-.26-.36,4.66,4.66,0,0,0-.72-.69c-.26-.2-.52-.37-.78-.57q.38-3.39.73-6.84c.23-2.29.47-4.6.7-6.93q.9-9.15,1.74-18.59t1.59-19.2q.54-7,1-14.07t.93-14.37q1.47-24.27,2.21-47.08t.92-44h0c.18,0,.28-13.4,1.77-27.62S197.5,17,203.26,13.87c2.53-1.36,4.72.07,7.31,1.47s5.61,2.78,9.8,1.31A23.11,23.11,0,0,1,224,15.51a9.74,9.74,0,0,1,5.23.39,10.77,10.77,0,0,1,1.89.92,11,11,0,0,0,2.21,1,13.71,13.71,0,0,0,2.63.56,16.26,16.26,0,0,0,4.88-.18A13.41,13.41,0,0,0,246.08,16c1.14-.77,1.86-1.39,2.67-1.29,3.11.39,6.25,11.2,8.58,29.86s3.86,45.17,3.76,76.94c-.06,15.74-.49,24.78-.79,33.1s-.47,15.9,0,28.72c.15,4.33.36,8.54.6,12.61s.51,8,.82,11.8c.26,3.24.53,6.37.83,9.39s.6,5.93.92,8.72q.67,6,1.39,11.32C265.33,240.71,265.81,244,266.27,247Z"/>
            <path class="cls-20" d="M202.55,22.29a13.73,13.73,0,0,0-2.21,5.85,70.18,70.18,0,0,0-1,8.83c-.27,4.71-.29,9.08-.22,12.28a29.76,29.76,0,0,0,.33,5.22,31.7,31.7,0,0,0,.1-3.72c.06-2.36.21-5.69.7-9.64A89.88,89.88,0,0,1,202,31.63c.56-2.36,1-3.75,1.15-3.69a40.22,40.22,0,0,1-.65,4.36A73.9,73.9,0,0,0,201.65,43a71.24,71.24,0,0,0,.73,10.24,18.59,18.59,0,0,0,.85,4.07c.07,0-.11-1.26-.26-3.33a57.94,57.94,0,0,1,0-8.34,55.25,55.25,0,0,1,1-6.83c.39-1.84.8-3,1.06-3s.43,2.2.47,4.3a41.52,41.52,0,0,0,.1,4.17,27.65,27.65,0,0,0,.27-3.64c.11-2.25.27-5.36.52-8.78a42,42,0,0,1,.81-5.15,6.41,6.41,0,0,0,0-3.51,4.12,4.12,0,0,0-1-1.57,2.35,2.35,0,0,0-1.36-.68,2,2,0,0,0-1.42.46A5.16,5.16,0,0,0,202.55,22.29Z"/>
            <path class="cls-20" d="M209.91,21.73A25.7,25.7,0,0,1,208.78,28c-.44,1.79-.9,4.43-1.24,11.45-.36,7.33-.65,20.7-.76,32.22s-.05,21.23.3,21.22c.1,0,.13-.77.23-3.49s.28-7.37.68-15.14c0,0,.18-3.61.63-9.77s1.16-14.87,2.2-25c.35-3.41.64-6,.91-7.74s.52-2.62.79-2.61.68,1.56.94,3.64.44,4.65.53,6.71a62.65,62.65,0,0,1-.17,8.26c-.2,2.6-.53,5.33-.85,9-.34,4-.63,8.6-.78,12.19s-.14,6.18.1,6.25.75-2.25,1.33-5.72,1.22-8.06,1.73-12.53c.85-7.41,1.25-13.81,1.47-18.36s.25-7.24.34-7.23.19,6.31.19,14.08,0,17-.07,22.8c-.09,18.37-.13,29-.08,35.11s.18,7.57.42,7.61,1-3.49,1.66-8.9,1.23-12.69,1.51-20.08c.23-6.22.15-10.4.08-15.26s-.13-10.41.14-19.37c.12-4,.3-8.49.49-12a37.08,37.08,0,0,1,.53-6.05c.14,0,.22,2.11.27,5.77s.06,8.88.07,15.11c0,22.17-.07,39.24-.11,50.77s0,17.52.23,17.55a25.23,25.23,0,0,0,.57-5c.21-2.84.41-6.28.56-8.71.18-3.12.39-7.11.54-12.08s.26-10.88.25-17.84c0-3.43,0-5.09-.09-8.36s-.14-8.14-.25-18C224,41.69,224,37.56,224,35.11s.08-3.2.2-3.22.54,1.88.87,4.77.65,6.76.83,10.66c.25,5.39.19,9.9.09,13.06a37.62,37.62,0,0,0-.09,5c.15,0,.53-2,.91-5.35s.76-8,.91-13.09c.15-5.42,0-9.92-.17-13.07s-.31-5-.17-5,.54,1.84.93,4.88a117.7,117.7,0,0,1,.88,11.87c.09,4.07-.06,7.39-.2,9.7a21.5,21.5,0,0,0-.14,3.66c.16,0,.71-2,1.21-5.32A86.49,86.49,0,0,0,231,40.74a35.78,35.78,0,0,0-.85-8.35c-.53-2.54-1.28-5.74-2.21-12.36a11.31,11.31,0,0,0-.27-1.42,3,3,0,0,0-.75-1.4c-.53-.47-1.06-.24-1.7.23a15.37,15.37,0,0,1-2.37,1.65,5,5,0,0,1-2.82.3c-1.22-.12-2.79-.44-4.88-.86a15.27,15.27,0,0,0-2.76-.44,2,2,0,0,0-1.78,1,4.44,4.44,0,0,0-.53,1.49A9.05,9.05,0,0,0,209.91,21.73Z"/>
            <path class="cls-20" d="M231.32,19.66c.32-.28.65,0,1.06.33a2,2,0,0,0,1.54.61,1.85,1.85,0,0,0,1.15-.75,1.84,1.84,0,0,1,1-.76c.68-.11,1.32.48,1.84,1.21a12.19,12.19,0,0,1,1.1,2c1.32,2.85,1.37,8.89,1,14.94s-1.12,12.11-1.46,15c-.11.91-.27,5.14-.5,12.9s-.56,19.07-1,34.14c-.25,8.87-.4,15.59-.55,20.11s-.27,6.8-.47,6.8-.37-1.81-.53-4.31-.3-5.71-.38-8.48a168.87,168.87,0,0,1,.31-16.89c.29-4.59.65-9,.71-15.86.06-6.53-.2-9.9-.46-13.37s-.51-7-.45-13.91c.06-6.37.5-12,.86-16s.63-6.5.39-6.59-.51,1-.89,2.75-.81,4-1.15,6.29a86,86,0,0,0-.89,15.11c.11,4.63.46,9.23.55,15a188.63,188.63,0,0,1-.75,20A62,62,0,0,1,232.34,98c-.06,0,0-1.68.16-4.68s.26-7.32.29-12.64c0-6.37-.11-9.61-.25-12.65s-.28-5.88-.2-11.44c.1-7.37.45-11.19.63-13.76a17.61,17.61,0,0,0-.4-6.37,64.58,64.58,0,0,1-1.46-7.51c-.24-1.94-.29-3.62-.36-5.85a13.86,13.86,0,0,1,0-1.75A2.63,2.63,0,0,1,231.32,19.66Z"/>
            <path class="cls-20" d="M242.08,23.61c-.15,0-.05,2.94,0,7.85s.12,11.82-.14,19.81c-.22,6.67-.55,11-.92,15s-.76,7.76-1.12,13.19a299.4,299.4,0,0,0-.24,35.21c.48,8.81,1.2,14.1,1.26,14.1s-.2-3.6-.23-9.56.14-14.28,1-23.75c.3-3.25.7-6.75,1.09-9.44s.78-4.53,1.06-4.49.46,3.58.5,7.09.05,7,.29,7,.49-1.9.77-4.93.53-7.18.59-11.63a120.77,120.77,0,0,0-.46-12.76c-.34-4.14-.86-8.72-1.46-15.47-.75-8.43-1.19-15.26-1.48-20S242.22,23.59,242.08,23.61Z"/>
            <path class="cls-20" d="M244.12,19.28c.69-.44,1.83.92,3,3.19a46.55,46.55,0,0,1,3.32,8.67,50.36,50.36,0,0,1,1.74,14.61c-.06,5-.54,10.44-.83,17.38-.53,12.33-.2,22.54.16,29.69s.74,11.24.29,11.34-.82-1.85-1.31-4.75-1-6.79-1.3-10.69a90.77,90.77,0,0,1,.29-17.27,129.76,129.76,0,0,0,1-17,127.83,127.83,0,0,0-1.79-19.24c-.86-5-1.79-8.14-2.17-8s-.4,2.31-.39,5,.1,5.72.16,7.45c.19,6.11.63,11.21,1,14.8a48.81,48.81,0,0,1,.49,5.71,21.46,21.46,0,0,1-1-4.42c-.51-2.78-1.14-6.66-1.69-11-.36-2.9-1.12-8.91-1.53-14.37S243.05,20,244.12,19.28Z"/>
            <path class="cls-20" d="M254.88,54.47c.47,6.68.71,12.59.85,17.22s.15,8,.17,9.51a162.54,162.54,0,0,0,2,24.12,104.47,104.47,0,0,1,1,22.55c-.18,3.4-.46,6.66-.74,9.06s-.56,3.95-.73,3.92-.19-2.18-.21-6-.07-9.25-.35-15.85c-.23-5.19-.53-9.29-.78-12.08s-.44-4.29-.47-4.29.33,2.63.55,6.86A112.59,112.59,0,0,1,255.9,126a99,99,0,0,1-1.6,10.55c-.58,2.72-1.12,4.4-1.35,4.31s-.08-2.08.15-5.64.51-8.69.53-15.06c0-2.12,0-3.67-.09-5.8s-.18-4.83-.36-9.25c-.34-8.55-.6-15-.77-19.81s-.25-8.16-.25-10.49c0-6.91.27-13.88.63-19.12S253.6,46.94,254,47c.11,0,.23.32.37,1.42S254.66,51.35,254.88,54.47Z"/>
            <path class="cls-20" d="M247.4,94c.34-.1,1,2,1.59,4.93s1.28,6.83,1.7,10.32a119.48,119.48,0,0,1,.4,23c-.48,6.06-1.26,9.92-1.42,9.89s.18-1.66.4-4.54a77.77,77.77,0,0,0-.06-12c-.38-4.56-1.08-8.31-1.71-12.42a99.3,99.3,0,0,1-1.24-14.49,37,37,0,0,1,.1-3.9C247.23,94.15,247.33,94,247.4,94Z"/>
            <path class="cls-20" d="M227.81,69.53a101.9,101.9,0,0,0-.67,15.24c.12,4.13.44,7.07.56,8.09,1.21,11.16,1.73,21.58,2,29.19s.29,12.43.49,12.4a12.14,12.14,0,0,0,.06-2.64c0-2.27-.08-6.45-.18-14.1-.07-5.37-.16-10.73-.24-16.09s-.16-10.73-.21-16.1c-.06-7.33-.06-12.86-.12-16.57s-.16-5.59-.45-5.63-.52,1.26-.75,2.7S227.87,69,227.81,69.53Z"/>
            <path class="cls-20" d="M196.89,54.85c-.16,0-.31.92-.73,6.35S195.1,76.57,194,94.56c-.58,9-1,15.63-1.29,21.54s-.46,11.1-.53,17.22c0,.51-.07,6.68,0,12.75s.27,12,.8,12.09c.33,0,.71-2.28,1-4.81s.58-5.29.66-6.1a155.74,155.74,0,0,0,.69-18.37c-.09-5.22-.34-10.21-.24-17a129.07,129.07,0,0,1,1.12-16,171.31,171.31,0,0,0,1.26-18.63c.11-5.24.11-10.82,0-15.11S197.16,54.87,196.89,54.85Z"/>
            <path class="cls-20" d="M185.29,243.36c0-2.4,0-5.37,0-8.79s.24-7.3.56-11.54c.45-5.83,1.1-11.32,1.68-15.33s1.11-6.55,1.29-6.5,0,2-.28,5.29-.53,7.8-.55,13a169.76,169.76,0,0,0,1,19.55c.56,5,1.17,8,1.34,7.92s-.08-1.94-.23-5.24a125.55,125.55,0,0,1,.11-13.57,117.91,117.91,0,0,1,1.6-13.41c.61-3.41,1.18-5.47,1.36-5.41s-.09,1.78-.34,4.73a105.33,105.33,0,0,0-.37,12,94.69,94.69,0,0,0,1.69,15.33c.81,4,1.7,6.62,2.22,6.51.33-.08.54-1.29.68-3s.2-3.94.27-6c.1-3.31,0-5.31-.06-7.07a38.58,38.58,0,0,1,.06-5.54,47.31,47.31,0,0,1,1.29-7.79c.51-2,1-3.2,1.2-3.12s0,1.4-.2,3.45-.49,4.83-.52,7.84a68,68,0,0,0,1.71,15.49c.93,4,2,6.5,2.44,6.34.27-.09.26-1.12.26-3.14s0-5,.34-9.09c.26-3.26.66-6.39,1-8.69s.76-3.78,1-3.73.16,1.38.15,3.72,0,5.65.32,9.64c.19,2.35.46,5.73,1,8.59s1.19,5.22,2.25,5.52c.66.19,1.37-.48,2-1.47a16.74,16.74,0,0,0,1.56-3.42,20.42,20.42,0,0,0,.75-8.47c-.24-3-.8-6.4-1.11-10.73a95.14,95.14,0,0,1,.09-14.52c.32-3.7.79-6,1-6s.64,4.12,1,9.72.85,12.71,1.21,18.7a93.37,93.37,0,0,0,.92,9.86c.51,2.9,1.32,5.22,2.76,6.32a3.15,3.15,0,0,0,1.83.69,2.94,2.94,0,0,0,1-.12c1.63-.54,2.8-2.56,3.61-4.71a35.38,35.38,0,0,0,1.49-5.45,29.75,29.75,0,0,0,.57-6.39c0-2.84-.23-6.72-.81-12.62-.61-6.19-1.2-10.59-1.58-13.48s-.55-4.26-.32-4.4,1.28,1.63,2.34,4.71a55.9,55.9,0,0,1,2.64,12.41c.37,3.81.26,6.84.3,10.07a55.71,55.71,0,0,0,1.12,11.2,23,23,0,0,0,1.63,5.58c.46.87.8,1,1,1,.76.09,1.5-1.1,2.14-2.68a35.86,35.86,0,0,0,1.53-5,35,35,0,0,0,.82-8.86c-.06-2.34-.24-3.85,0-3.94s.57.79.95,2.18a39.42,39.42,0,0,1,1.06,5.35,67.89,67.89,0,0,1,.48,7.6,8.58,8.58,0,0,0,1.07,4.63,4.43,4.43,0,0,0,1.06,1.15c.41.3.84.44,1.19.17.52-.4.68-1.6.61-4.08s-.35-6.22-.73-11.73-.56-8.54-.61-10.32,0-2.23.13-2.29.61.82,1,2.26a45,45,0,0,1,1.22,5.46,53.46,53.46,0,0,1,.5,10.08c-.05,2.62,0,4.67,1,6.67a7.56,7.56,0,0,0,1.7,2.23c.63.53,1.26.76,1.73.4.3-.22.62-.74.75-2.89a111.77,111.77,0,0,0-.39-12.73c-.35-5-.72-8.77-.95-11.31s-.32-3.83-.12-3.93.78,1.08,1.39,3.06a48.5,48.5,0,0,1,1.69,7.86,71,71,0,0,1,.39,11.56c-.06,3,0,5.19,1.15,6.69a3.53,3.53,0,0,0,1.45,1.15,1.27,1.27,0,0,0,1.4-.21c.52-.51.72-1.62.71-3.36s-.21-4.12-.48-7.18c-.56-6.58-.91-10.65-1.09-13.09s-.19-3.24-.09-3.28a25.33,25.33,0,0,1,.9,4c.52,2.53,1.3,6.08,2.42,10.13.38,1.39.75,2.64,1.09,3.75s.66,2.06.92,2.84L261,246l-1.72,3.95-3.43,1-3.44,1H239.44l-6.93.87-6.93.88H209.47l-1.66-2.07-1.66-2.07-5.1.41-5.09.41-4.27-1.45-4.27-1.44Z"/>
            <path class="cls-20" d="M201.37,55.9a36.14,36.14,0,0,0-.31,5.59c-.07,2.85-.09,5.8-.09,6.25-.05,6.57.06,13.44.23,18.66s.41,8.8.6,8.8.36-3.33.43-8.2.07-11.27-.09-17.42c-.08-2.89-.2-6.31-.34-9A24.08,24.08,0,0,0,201.37,55.9Z"/>
            <path class="cls-21" d="M269.5,235.84a9.2,9.2,0,0,1-.77,2.61,10.8,10.8,0,0,0-.82,2.58,28.41,28.41,0,0,0-.13,2.94,4.17,4.17,0,0,1-.62,2.45,1.42,1.42,0,0,1-.42.36,1.69,1.69,0,0,1-.47.18l-.28,0-.27,0-1.61.19-1.62.2h-.15l-.15,0a3.15,3.15,0,0,0-.52.09,1.56,1.56,0,0,0-.5.25,2,2,0,0,0-.51.7,5.79,5.79,0,0,0-.34,1c-.08.31-.16.63-.23,1s-.14.64-.23.94l0,.12,0,.12a3.15,3.15,0,0,1-.93,1.42.65.65,0,0,1-1.06-.18,3.76,3.76,0,0,1-.25-.57,1.59,1.59,0,0,0-.28-.5c-.24-.25-.51-.18-.76,0a4.31,4.31,0,0,0-.72.85,5.12,5.12,0,0,1-3.2,2.15,7.41,7.41,0,0,1-3.61-.28c-1.18-.35-2.34-.86-3.51-1.26a8.69,8.69,0,0,0-3.53-.59,10.47,10.47,0,0,0-4.75,2,35.68,35.68,0,0,1-4.67,2.88,6,6,0,0,1-2.45.6,3.64,3.64,0,0,1-2.37-.82c-.2-.16-.4-.35-.6-.52a2.2,2.2,0,0,0-.64-.4c-.86-.29-1.54.42-2.18,1.43s-1.23,2.31-1.92,3.18a2.7,2.7,0,0,1-3.21,1,4.66,4.66,0,0,1-2.57-3.22c-.13-.47-.22-1-.35-1.45a4.22,4.22,0,0,0-.5-1.28,1.42,1.42,0,0,0-1.31-.73,2.5,2.5,0,0,0-1.44.62,16.53,16.53,0,0,0-1.25,1.26,6,6,0,0,1-1.28,1.12,1.69,1.69,0,0,1-1.48.11,1.92,1.92,0,0,1-1.07-1.37,4.9,4.9,0,0,1-.1-1.44c0-.49.07-1,.07-1.49a4,4,0,0,0-.25-1.45c-.16-.42-.41-.71-.71-.7a.73.73,0,0,0-.38.17l-.36.29c-1.26,1-2.64.61-4.05,0s-2.86-1.39-4.27-1.07a13,13,0,0,0-2.28,1,2.19,2.19,0,0,1-2.21,0c-.16-.1-.32-.24-.48-.35a.9.9,0,0,0-.5-.18.82.82,0,0,0-.53.25c-.16.15-.32.33-.47.5a3.32,3.32,0,0,1-3.38,1.05,4.86,4.86,0,0,1-3-2.79l-.21-.49c-.07-.16-.13-.33-.2-.5l-.43-1.26c-.14-.42-.29-.83-.46-1.22l-.12-.27a2.1,2.1,0,0,0-.13-.26,3.26,3.26,0,0,0-.24-.4,3.32,3.32,0,0,0-.26-.36,4.66,4.66,0,0,0-.72-.69c-.26-.2-.52-.37-.78-.57a4.17,4.17,0,0,1-.88-.8,3,3,0,0,1-.59-1.21,5.05,5.05,0,0,1-.06-1.78c.06-.6.18-1.22.27-1.81a15.69,15.69,0,0,0,.13-3,14.7,14.7,0,0,0-.43-2.91.86.86,0,0,0,1.06,0,4.65,4.65,0,0,0,1-1.06,1.27,1.27,0,0,1,.13-.19l.12-.18c.1-.14.21-.29.32-.42a3.28,3.28,0,0,1,.36-.38,1.72,1.72,0,0,1,.87-.49.79.79,0,0,1,.79.39,2.35,2.35,0,0,1,.32,1.46,3.35,3.35,0,0,1-.45,1.5,2.79,2.79,0,0,1-.88.84,6,6,0,0,1-1,.44,2.55,2.55,0,0,0,.54,1.43,1.07,1.07,0,0,0,1,.49l-.68.8-.68.81a.84.84,0,0,0,.4.82,1.22,1.22,0,0,0,.83.13l3.51-.68,3.51-.69.35.37.35.37,1.2.55,1.2.54a2.42,2.42,0,0,0-.7,2,3.62,3.62,0,0,0,.7,2.23,1.91,1.91,0,0,0,1.5.65,3.41,3.41,0,0,0,1.59-.55c.49-.31,1-.71,1.46-1.07a6,6,0,0,1,1.5-.89c-.1.8-.21,1.6-.31,2.4s-.21,1.6-.31,2.4a17.6,17.6,0,0,1,2.88-1.44,5,5,0,0,1,2.95-.25,4,4,0,0,1,1.23.53,6.18,6.18,0,0,1,1.14.94c.29.31.56.65.84,1a4.6,4.6,0,0,0,.89.83,1.39,1.39,0,0,0,1,.23,1.26,1.26,0,0,0,.87-.73,3.47,3.47,0,0,0,.29-1.19c0-.43,0-.89,0-1.32a18.81,18.81,0,0,1,.08-2.81,5.52,5.52,0,0,1,.75-2.37,1.27,1.27,0,0,1,1.63-.52A1.77,1.77,0,0,1,215,242a4.24,4.24,0,0,1-.22,1.07,8.83,8.83,0,0,0-.28,1,3.42,3.42,0,0,0,.57,2.5,1.86,1.86,0,0,0,1.71.93,3,3,0,0,0,1.67-1.06,12.11,12.11,0,0,0,1.37-2,3.17,3.17,0,0,1,.48-.68c.18-.18.37-.28.57-.19.47.19.51,1,.54,1.9s.05,1.78.5,2.1a1.43,1.43,0,0,1,2.24-.39,3.52,3.52,0,0,1,1.24,3l.06.06.06,0a.33.33,0,0,0,.18.05.29.29,0,0,0,.16,0c.37-.2.65-1,1-1.79S227.52,247,228,247a.86.86,0,0,1,.5.22c.16.13.31.3.47.43.83.71,1.82.38,2.57-.5a5,5,0,0,0,1.07-3.76c0-.37-.13-.74-.2-1.11a6.72,6.72,0,0,1-.15-1.12,4,4,0,0,1,.36-1.89,2,2,0,0,1,1-1.08,1.27,1.27,0,0,1,1.23.32,2.79,2.79,0,0,1,.81,1.49,6.94,6.94,0,0,1,.14,1.52c0,.52,0,1.05.07,1.56a4.3,4.3,0,0,0,1.32,2.77,1.75,1.75,0,0,0,2.17.3,5.2,5.2,0,0,0,.47-.35,1.31,1.31,0,0,1,.49-.24c.42-.07.78.21,1.12.61s.66.93,1,1.35a1.39,1.39,0,0,0,1.23.55c.42-.06.76-.4.78-1.06a6.4,6.4,0,0,0,.28,1,2.14,2.14,0,0,0,.44.79.6.6,0,0,0,.67.16.76.76,0,0,0,.46-.65c0-.12,0-.25,0-.37s0-.24,0-.37c-.12-1-.25-2-.38-3s-.25-2-.37-3a.43.43,0,0,1,.64-.3,1.88,1.88,0,0,1,.71.76,3.32,3.32,0,0,0,.66.87c.25.19.49.24.7-.05a1.43,1.43,0,0,0,0-1.4c-.22-.51-.55-1.06-.73-1.58a3,3,0,0,1,.1-2,1.73,1.73,0,0,1,1.1-1.16,1.42,1.42,0,0,1,1.27.5,4.11,4.11,0,0,1,.94,1.57c.18.49.32,1.06.51,1.55a1.91,1.91,0,0,0,.75,1.08c.4.22.84,0,1.28-.11s.85-.24,1.19.15a2.58,2.58,0,0,1,.46,1.06,6.11,6.11,0,0,0,.36,1.21,1.73,1.73,0,0,0,.91.87,7.69,7.69,0,0,0,1.12.29,2.11,2.11,0,0,1,1.07.64,2,2,0,0,1,.51,1.39,6.68,6.68,0,0,0,1.24-3.39,8.39,8.39,0,0,0-.44-3.86,2.8,2.8,0,0,0,1.68.29,1.26,1.26,0,0,0,.8-.57c.44-.7.39-1.73.29-3.24a35.9,35.9,0,0,1,0-6c.08-.87.21-1.82.35-2.62a7.06,7.06,0,0,1,.48-1.74.52.52,0,0,1,.07-.11s.06,0,.08,0h0c.15,0,.28.55.37,1.29s.18,1.7.23,2.58a12,12,0,0,1,1.84.44,4.93,4.93,0,0,1,1.72,1,5.4,5.4,0,0,1,1.33,2.06A6.06,6.06,0,0,1,269.5,235.84Z"/>
            <g class="cls-22">
              <path class="cls-23" d="M218.53,217.39a68.48,68.48,0,0,0,.09,9.91c.24,3.35.62,6.7.95,9.87s.69,6.2,1.19,9.27a69.92,69.92,0,0,0,2,9,.16.16,0,0,0,.15.12c.07,0,.12-.06.11-.17-.26-3.1-.66-6.16-1.08-9.23s-.86-6.12-1.22-9.2c-.37-3.25-.57-6.55-.79-9.85s-.46-6.59-.92-9.8c0-.2-.14-.26-.25-.23a.32.32,0,0,0-.23.31Z"/>
            </g>
            <g class="cls-22">
              <path class="cls-23" d="M223.43,221a41,41,0,0,0,0,4.57c.06,1.54.15,3.08.17,4.59s0,3.26,0,4.89-.08,3.26-.16,4.88c-.15,3.14-.44,6.24-.77,9.34s-.68,6.2-.94,9.32c0,.1,0,.15.1.16a.14.14,0,0,0,.15-.12,63.57,63.57,0,0,0,1.72-9.22c.37-3.15.58-6.33.73-9.48.14-3,.3-6.29.26-9.56a45.17,45.17,0,0,0-.95-9.42c0-.1-.09-.14-.15-.13a.18.18,0,0,0-.11.18Z"/>
            </g>
            <g class="cls-22">
              <path class="cls-23" d="M235.65,220.61c.2,1.45.43,2.85.62,4.26a37.36,37.36,0,0,1,.36,4.32c0,1.36,0,2.71,0,4.06s-.09,2.71-.17,4.06c-.19,3.07-.57,6.06-1,9.05s-.88,6-1.22,9a.25.25,0,0,0,.1.23c.06,0,.13,0,.17-.08a47.75,47.75,0,0,0,2-9.2c.43-3.19.65-6.44.79-9.58.1-2.35.34-5.43.26-8.42s-.49-5.9-1.67-7.91a.11.11,0,0,0-.19,0,.34.34,0,0,0-.08.25Z"/>
            </g>
            <path class="cls-24" d="M199.49,175.72c.17-5,.44-9.42.77-13.43s.73-7.58,1.15-10.91c.52-4.06,1.11-7.92,1.65-10.75s1.05-4.63,1.4-4.56.26,3.55.39,7.36.56,8,2.33,9.45a2.65,2.65,0,0,0,2.48.5,4.94,4.94,0,0,0,2.33-1.5c1.49-1.65,2.12-4.35,2.47-6.64s.41-4.16.74-4.15.68,3.11,1,6.22.66,6.24,1.26,6.33.91-2.13,1.43-4.42,1.19-4.63,2.26-4.87,2,1.36,2.72,3.07a36.9,36.9,0,0,1,1.45,4,29,29,0,0,1,1.06,6.08,93.22,93.22,0,0,1-.26,16c-.19,2.18-.51,5.79-1,8.87S224,188,223.22,188s-1.43-2.2-2.06-4.44-1.25-4.47-1.95-4.34-1,2.1-1.26,4.07-.53,3.92-1,4c-.68.07-1.32-4.2-2-8.49s-1.37-8.58-2.18-8.57-1.38,4.49-2,9-1.29,9-2.32,9.07c-.88.06-1.56-3.09-2.27-6.25s-1.43-6.32-2.38-6.29-1.84,3.9-2.47,7.73-1.12,7.65-1.54,7.57-.45-2.2-.48-5.17S199.37,179.08,199.49,175.72Z"/>
            <path class="cls-24" d="M196.11,162a71.79,71.79,0,0,1,1.84-14.3c.74-3.73,1.17-6.67,0-9.62a9.66,9.66,0,0,0-.66-1.4c-.32-.54-.72-1-1.12-.9-1.15.27-1.67,4.95-2,9.56s-.45,9.16-.8,9.16-.46-2.63-.64-5.26-.36-5.27-.63-5.28-.63,2.61-.93,6.71-.55,9.64-.64,15.49c-.11,7.36.06,14,.32,18.86s.63,7.81.9,7.81.57-5.2.92-10.41.86-10.47,1.86-10.59c.39,0,.74.72,1.06,1.47s.6,1.48.85,1.36.26-1.69.08-4S196.08,165.28,196.11,162Z"/>
            <path class="cls-24" d="M232.37,150.05c-.75,0-1.52,2.13-2.18,5.4a97.84,97.84,0,0,0-1.51,12.1,124.26,124.26,0,0,0,.29,20.22c.51,5.18,1.24,8.4,1.56,8.35s.14-2.62.29-6.89a98.74,98.74,0,0,1,2-17c.11-.53.59-2.8,1.16-4.9s1.24-4,1.72-3.89c.92.27.77,7.85.61,15.41s-.34,15.13.52,15.36c.61.16,1.4-3.37,2.3-6.91s1.93-7.07,3-6.93,1.58,3.33,2.11,6.52,1.05,6.35,1.92,6.42,2-3.84,2.77-7.74,1.46-7.79,1.81-7.68.1,2.12,0,5.46a105,105,0,0,0,.56,13.2c.12,1,.33,2.95.62,4.62s.64,3.07,1,3.07,1-2.23,1.32-5.14.66-6.5.81-9.24c.22-4,.21-7.37.21-9.73s0-3.73.28-3.8.88,2.39,1.39,4.89,1,5,1.31,4.91.24-2.5,0-6.65-.53-10-.79-17.05c-.25-6.62-.35-12-.46-15.79s-.23-5.89-.52-5.91-.89,4.37-1.4,8.78-1.07,8.83-1.64,8.78-.72-3.48-1-7-.69-7-1.55-7.19-1.8,3.26-2.7,6.7-1.78,6.9-2.57,6.74c-1-.21-1.38-6.16-1.61-12.06s-.32-11.76-.73-11.79-.89,5.86-1.47,11.75-1.27,11.79-2.12,11.8c-.55,0-1-2.42-1.49-4.83s-.91-4.81-1.37-4.73-.57,2-.77,3.9-.42,3.86-1,4-.89-1.26-1.34-2.67S233,150.06,232.37,150.05Z"/>
            <g class="cls-22">
              <path class="cls-23" d="M241.21,220.44c.41,2.74.8,5.46,1.12,8.2s.55,5.49.64,8.29c.08,2.63,0,5.25-.18,7.86s-.28,5.22-.25,7.84c0,.11.05.17.12.18s.12,0,.15-.13a37.13,37.13,0,0,0,1.13-8.07c.12-2.77,0-5.58-.08-8.25s-.33-5.45-.7-8.15a60.52,60.52,0,0,0-1.59-7.91c0-.15-.14-.19-.23-.16a.25.25,0,0,0-.13.3Z"/>
            </g>
            <g class="cls-22">
              <path class="cls-23" d="M248.34,221.38a92.8,92.8,0,0,1,1.07,12.55c.13,4.19.15,8.4.43,12.64a.17.17,0,0,0,.12.17c.06,0,.13,0,.14-.13a59.84,59.84,0,0,0,.44-7.33c0-2.46-.09-4.92-.22-7.38-.08-1.67-.1-3.66-.31-5.58a12.4,12.4,0,0,0-1.46-5.11c0-.07-.1-.06-.15,0a.23.23,0,0,0-.06.19Z"/>
            </g>
            <g class="cls-22">
              <path class="cls-23" d="M256.63,227.86c.09,2,.18,4,.2,6s0,4-.18,6-.43,4-.7,5.92-.52,3.93-.64,5.93a.19.19,0,0,0,.1.17.11.11,0,0,0,.15-.08,52.75,52.75,0,0,0,1.46-24,.21.21,0,0,0-.22-.19.23.23,0,0,0-.17.26Z"/>
            </g>
            <g class="cls-22">
              <path class="cls-23" d="M209.7,225.8a51.83,51.83,0,0,0,.27,13.6,104.25,104.25,0,0,0,2.82,13.17c0,.11.1.14.16.12a.18.18,0,0,0,.1-.21c-.26-2.15-.6-4.26-.94-6.39s-.7-4.23-1-6.36c-.32-2.3-.53-4.61-.7-6.93s-.3-4.63-.47-7a.17.17,0,0,0-.12-.17c-.06,0-.12,0-.13.12Z"/>
            </g>
            <g class="cls-22">
              <path class="cls-23" d="M202.44,223.36a34.06,34.06,0,0,0-.45,6.84c0,2.34.26,4.68.47,6.88.2,2,.41,4.23.73,6.43a29.53,29.53,0,0,0,1.48,6.14.13.13,0,0,0,.14.09.16.16,0,0,0,.12-.13,16.87,16.87,0,0,0-.36-5.57c-.37-1.89-.86-3.78-1.08-5.52A66.22,66.22,0,0,1,203,231c-.05-2.51-.05-5-.22-7.55a.26.26,0,0,0-.17-.24c-.08,0-.17,0-.2.18Z"/>
            </g>
            <g class="cls-22">
              <path class="cls-23" d="M196.9,248c-.27-2.4-.66-4.76-1-7.12s-.7-4.73-.86-7.17c-.15-2.25-.23-4.54-.24-6.82s0-4.57.11-6.83a.16.16,0,0,0-.12-.17.12.12,0,0,0-.14.12,78.57,78.57,0,0,0-.59,14.3,48.12,48.12,0,0,0,2.58,13.85c0,.12.12.13.19.09a.28.28,0,0,0,.1-.25Z"/>
            </g>
            <g class="cls-22">
              <path class="cls-23" d="M190.9,243a82.57,82.57,0,0,1-1.18-12.1c-.11-4,0-8,.22-12.21a.13.13,0,0,0-.1-.15c-.05,0-.11,0-.13.11a65.08,65.08,0,0,0-1.23,12.43,34,34,0,0,0,2.05,12.13c.05.14.16.16.24.11a.3.3,0,0,0,.13-.32Z"/>
            </g>
            <g class="cls-22">
              <path class="cls-23" d="M203.61,249.65a37.61,37.61,0,0,0-.89-4.19,41.46,41.46,0,0,1-.94-4.21c-.25-1.67-.48-3.35-.67-5s-.36-3.39-.48-5.08c0-.11-.07-.17-.14-.17s-.12.06-.12.17c-.06,1.77-.07,3.51,0,5.25a48.38,48.38,0,0,0,.5,5.2c.21,1.35.42,2.94.78,4.44a8.72,8.72,0,0,0,1.72,3.8.12.12,0,0,0,.16,0,.22.22,0,0,0,.07-.2Z"/>
            </g>
            <g class="cls-22">
              <path class="cls-23" d="M211.46,252.1c-.71-.68-1.14-2.39-1.41-4.19s-.41-3.69-.53-4.75c-.18-1.59-.33-3.19-.47-4.79l-.39-4.8c0-.12-.07-.18-.14-.18s-.13.06-.13.18c-.06,1.93-.1,3.86-.06,5.78a52.73,52.73,0,0,0,.39,5.76c.15,1.07.31,2.64.64,4.11a6.65,6.65,0,0,0,1.57,3.46.24.24,0,0,0,.21.06.33.33,0,0,0,.19-.12l.08-.1a.76.76,0,0,0,.08-.11.18.18,0,0,0,0-.16.26.26,0,0,0-.07-.15Z"/>
            </g>
            <g class="cls-22">
              <path class="cls-23" d="M220.17,252c-.34-3.23-.67-6.47-1-9.71s-.73-6.47-1.17-9.68c0-.11-.08-.15-.15-.14a.18.18,0,0,0-.13.19c.05,3.1,0,6.57.24,10a32.48,32.48,0,0,0,1.82,9.59c.06.17.18.19.27.12a.41.41,0,0,0,.15-.36Z"/>
            </g>
            <g class="cls-22">
              <path class="cls-23" d="M222.74,251.69a30.71,30.71,0,0,0,.37-5.3c0-1.81-.1-3.63-.11-5.36q0-3-.12-5.9c-.07-2-.16-3.92-.3-5.89,0-.1-.06-.15-.12-.15s-.12,0-.13.15c-.1,2-.17,3.93-.21,5.9s-.05,3.92,0,5.89c0,1.73-.05,3.55,0,5.36a29.62,29.62,0,0,0,.44,5.3.13.13,0,0,0,.12.12.14.14,0,0,0,.13-.12Z"/>
            </g>
            <g class="cls-22">
              <path class="cls-23" d="M223.25,255.4c1-.19,1.61-1.43,2-2.87a34.7,34.7,0,0,0,.83-4.11,46.5,46.5,0,0,0,.57-6c.07-2,.05-4,0-6,0-.13-.07-.2-.15-.2s-.14.07-.15.2q-.21,2.41-.45,4.83c-.16,1.61-.34,3.22-.54,4.81-.19,1.44-.39,3.14-.74,4.77a12.75,12.75,0,0,1-1.56,4.3.21.21,0,0,0,0,.2.13.13,0,0,0,.14.09Z"/>
            </g>
            <g class="cls-22">
              <path class="cls-23" d="M233.28,250.85a6.63,6.63,0,0,0,1.31-3.17,24.17,24.17,0,0,0,.23-3.71c0-1.9,0-3.77-.21-5.64a54.75,54.75,0,0,0-.74-5.55c0-.1-.08-.14-.14-.13s-.12.08-.12.18c.06,2.88.34,6,.39,9a28.64,28.64,0,0,1-1,8.81.17.17,0,0,0,.06.2.13.13,0,0,0,.18,0Z"/>
            </g>
            <g class="cls-22">
              <path class="cls-23" d="M265.11,238.81c-.39-1.27-.86-2.48-1.32-3.7s-.92-2.45-1.28-3.74-.7-2.69-1-4.06-.57-2.76-.81-4.14c0-.09-.08-.13-.14-.12a.16.16,0,0,0-.12.17,38.9,38.9,0,0,0,1,8.52,19.08,19.08,0,0,0,3.28,7.37.21.21,0,0,0,.29,0,.29.29,0,0,0,.1-.34Z"/>
            </g>
            <path class="cls-20" d="M204.25,109.37c-.82,11.91-1,22.59-.89,31.4s.44,15.74.65,20.16c.75,15.71,1,27.19,1.16,34.74s.19,11.17.5,11.18.82-5.64,1.18-13.73.63-18.64.72-28.42c.15-15.81-.15-31.62-.64-43.48s-1.16-19.76-1.73-19.76c-.11,0-.24.31-.39,1.45S204.48,106,204.25,109.37Z"/>
            <path class="cls-20" d="M217.29,122.16c-1.06,9.45-1.52,17.92-1.69,25s-.06,12.81,0,16.76c.13,6.09.42,17.39.77,27.16s.75,18,1.12,18c.22,0,.28-3,.35-9.56s.13-16.85.36-31.47c.3-18,.68-32.12.88-41.71s.24-14.68-.17-14.74c-.23,0-.54,1.67-.85,3.84S217.49,120.31,217.29,122.16Z"/>
            <path class="cls-20" d="M232,113.88c-.32.08,0,4.63.51,12.72s1.21,19.72,1.62,34c.59,20,.34,35.78,0,46.57s-.65,16.6-.28,16.66,1.73-7.55,2.7-19.79a372.54,372.54,0,0,0,.61-47.59c-.59-11.44-1.72-22.11-2.79-29.9S232.32,113.8,232,113.88Z"/>
            <path class="cls-20" d="M244.07,117.65c-.36,0-.41,6.77-.32,16.29s.34,21.83.55,33,.46,23.35.73,32.68.58,15.88.93,15.88.76-5.93,1-15,.4-21.31.16-33.91-.85-24.91-1.47-34S244.41,117.61,244.07,117.65Z"/>
          </g>
          <path class="cls-21" d="M183.29,252.16c-.33.19,0,.15.3,0s.68-.5.44-.86a2.33,2.33,0,0,0-.81-.74,4,4,0,0,1-.9-.61,2.79,2.79,0,0,0-1.68-.7c-.61-.07-1.24,0-1.84-.09a4.35,4.35,0,0,1-2.4-1,4.17,4.17,0,0,1-1.45-2.5,10,10,0,0,1-.09-2.05,8.15,8.15,0,0,0-.12-2,3.8,3.8,0,0,0-1.05-1.91,3.51,3.51,0,0,0-1.71-.94,4.9,4.9,0,0,0-1.83,0,12,12,0,0,0-1.8.54l-.26.11a.91.91,0,0,0-.23.17,1.28,1.28,0,0,0-.19,1.14,4.07,4.07,0,0,0,.53,1.22,1.8,1.8,0,0,0-1.25,1.25,2.55,2.55,0,0,0,2.38,3.6,4.15,4.15,0,0,1,2.7,1.2,5.76,5.76,0,0,1,.44.72c.13.25.26.52.4.75a4.28,4.28,0,0,0,1.56,1.47,8.4,8.4,0,0,0,1.9.71l.88.22.88.2,2.15.49,2.15.5a1.49,1.49,0,0,0,.36,0,.54.54,0,0,0,.59-.44.56.56,0,0,0-.05-.44Z"/>
          <path class="cls-21" d="M198.54,256.89a2.56,2.56,0,0,0-.75-1.29,2.14,2.14,0,0,0-1.18-.57,2.43,2.43,0,0,0-1.24.21,4.27,4.27,0,0,0-1.13.75,3.56,3.56,0,0,0-.87,1.22,2.1,2.1,0,0,0-.11,1.5,1.46,1.46,0,0,0,.9.94,3.42,3.42,0,0,0,1.27.16,5.91,5.91,0,0,1-.36.71,2.47,2.47,0,0,0-.32.72,2,2,0,0,0,.36,1.67,2.68,2.68,0,0,0,1.3,1,3.8,3.8,0,0,0,2,.09,4.32,4.32,0,0,0,1.83-.91,9,9,0,0,1,.93-.73,1,1,0,0,1,1-.13,3,3,0,0,1,.66.59c.22.22.43.4.69.37a.87.87,0,0,0,.48-.27,3.48,3.48,0,0,1,.44-.42,1,1,0,0,1,.82-.19,1.18,1.18,0,0,1,.73.53,2,2,0,0,1,.3,1,2,2,0,0,1-.25,1.06,3.2,3.2,0,0,0,2-.31,2.36,2.36,0,0,0,1.22-1.71,3,3,0,0,0-.41-2.06,3.23,3.23,0,0,0-1.43-1.3,5.46,5.46,0,0,0-1.68-.38,14.36,14.36,0,0,1-1.72-.19,3.66,3.66,0,0,1-1.63-.8,3,3,0,0,1-1-1.72,1.6,1.6,0,0,0-1.2-.2,2,2,0,0,0-1.1.72Z"/>
          <path class="cls-21" d="M220.33,267.17a.82.82,0,0,1-1.27.43,1.75,1.75,0,0,1-.54-.65,5,5,0,0,1-.36-.86,5.13,5.13,0,0,0-.36-.87.82.82,0,0,0-.57-.46.65.65,0,0,0-.27.05,1.28,1.28,0,0,0-.25.15,2.34,2.34,0,0,0-.66.76,3.53,3.53,0,0,0-.37,1,3.25,3.25,0,0,1-.08.43.52.52,0,0,1-.2.32.36.36,0,0,1-.32,0c-.11,0-.22-.09-.33-.13a.88.88,0,0,0-.94.46,2.06,2.06,0,0,0-.33,1.33,2.31,2.31,0,0,0,.51,1.22,2.1,2.1,0,0,0,.95.69,2.8,2.8,0,0,0,1.07.14,8,8,0,0,0,1.08-.13,7.92,7.92,0,0,1,1.09-.14,2.79,2.79,0,0,1,1.07.13,4.28,4.28,0,0,1,1,.59,11.26,11.26,0,0,0,1,.69,2.15,2.15,0,0,0,1.12.31,1.28,1.28,0,0,0,1-.49,6.16,6.16,0,0,0,.53-1c.17-.32.35-.59.64-.67.45-.13.8.32,1.16.8s.71,1,1.18.92.79-.64,1.09-1.21.62-1.1,1.1-1a1,1,0,0,1,.44.25c.14.12.27.26.41.37a1.71,1.71,0,0,0,1.38.37,5.61,5.61,0,0,0,1.47-.43,4.82,4.82,0,0,0,.88-.44,2.09,2.09,0,0,0,.7-.77,2.66,2.66,0,0,0,0-2.19,3.25,3.25,0,0,0-1.39-1.6,2.41,2.41,0,0,0-1.19-.27,1.68,1.68,0,0,0-1.11.47,3.45,3.45,0,0,0-.42.51c-.13.18-.26.36-.41.53a2.19,2.19,0,0,1-1.51.76,2.08,2.08,0,0,1-1.55-.59c-.15-.15-.29-.32-.44-.47a2.07,2.07,0,0,0-.47-.38,1.22,1.22,0,0,0-1.2.15c-.39.22-.79.55-1.18.77a2.67,2.67,0,0,1-1.57.37,2.81,2.81,0,0,1-1.53-.6Z"/>
          <path class="cls-21" d="M273.44,250.54a20.19,20.19,0,0,1-1.85,1.85,17.58,17.58,0,0,1-2,1.51,3.17,3.17,0,0,0,2.43,1.32,6.38,6.38,0,0,0,2.8-.53,2.84,2.84,0,0,0,.49-.25,1.25,1.25,0,0,0,.39-.43,2.46,2.46,0,0,0,.19-.56,3.07,3.07,0,0,1,.19-.56,1.06,1.06,0,0,1,.72-.6,1.87,1.87,0,0,1,.91,0,8.18,8.18,0,0,1,1.26.44c.42.17.84.35,1.26.48a3.46,3.46,0,0,0,1.31.15,2.12,2.12,0,0,0,1.23-.51,2.59,2.59,0,0,0,.76-1.38,2.3,2.3,0,0,0-.17-1.62c-.05-.11-.12-.21-.17-.31a.82.82,0,0,1-.09-.35.69.69,0,0,1,.14-.39,3.92,3.92,0,0,1,.25-.32,2.37,2.37,0,0,0,.44-1.36,3.62,3.62,0,0,0-.26-1.51,4.12,4.12,0,0,0-.73-1.18,7.39,7.39,0,0,0-.95-.91,5.77,5.77,0,0,1-.66-.65,2,2,0,0,1-.41-.87,4.12,4.12,0,0,1,.16-1.51,2.53,2.53,0,0,0,0-1.44,1.46,1.46,0,0,0-.25-.42c-.11-.12-.22-.22-.33-.32a15.32,15.32,0,0,0-1.64-1.3,6.33,6.33,0,0,0-1.77-.87,3.61,3.61,0,0,0-1.9-.05,3.14,3.14,0,0,0-1.68,1.05,1.16,1.16,0,0,0-.11-.78.91.91,0,0,0-.52-.47.89.89,0,0,0-.62.06,2,2,0,0,0-.56.42,3.94,3.94,0,0,0-.82,2.73,3.63,3.63,0,0,0,1.05,2.58,3.71,3.71,0,0,0,2,.75A5.46,5.46,0,0,1,276,243a3,3,0,0,1,.93.91,3.34,3.34,0,0,1,.48,1.36,2.84,2.84,0,0,1-.23,1.48,1.59,1.59,0,0,1-.87.91,1.73,1.73,0,0,1-.68.05,4,4,0,0,0-.7-.06,1.15,1.15,0,0,0-.68.22,1,1,0,0,0-.41.66Z"/>
          <path class="cls-21" d="M247,261.87a3.7,3.7,0,0,1,1-1.65,2.32,2.32,0,0,1,1.55-.62,4.27,4.27,0,0,1,.94.14,3.06,3.06,0,0,0,1,.08,2.92,2.92,0,0,0,1.08-.46c.35-.22.69-.48,1.05-.67a4.59,4.59,0,0,1,2.63-.5,14.06,14.06,0,0,1,2.71.57c0-.26.07-.53.11-.79s.06-.54.1-.8a1.62,1.62,0,0,1,1.41.29,1.7,1.7,0,0,1-.2,2.81,3.54,3.54,0,0,1-1.53.44,38.46,38.46,0,0,0-5.91.94,42.18,42.18,0,0,0-5.78,1.85c-.29.12-.58.24-.87.34a3.59,3.59,0,0,1-.9.18,4.47,4.47,0,0,1-.89-.08c-.29-.05-.59-.12-.88-.15a8.63,8.63,0,0,0-2.53.19,9,9,0,0,1-2.53.2,15.14,15.14,0,0,1-3.39-1.12,4.25,4.25,0,0,0-3.31-.18,3,3,0,0,1,.81-1.42,3.66,3.66,0,0,1,1.26-.79,8.17,8.17,0,0,1,5.19.1,19.77,19.77,0,0,0,5.3,1c.41,0,.81,0,1.21-.08a4.89,4.89,0,0,1,1.21,0Z"/>
          <path class="cls-21" d="M271,222.64a7.15,7.15,0,0,1,.28-2.73,5.58,5.58,0,0,1,1.23-2.22,1,1,0,0,1,.22-.2.6.6,0,0,1,.25-.1.48.48,0,0,1,.39.26,1.12,1.12,0,0,1,.16.58,1.68,1.68,0,0,1-.13.58,2.65,2.65,0,0,1-.27.5c-.31.43-.81,1-1.25,1.55a3.86,3.86,0,0,0-.88,1.78Z"/>
          <path class="cls-21" d="M267.72,225.16a9.73,9.73,0,0,1-.25-6.7,4.79,4.79,0,0,1,.32-.77,2.1,2.1,0,0,1,.45-.6,1.09,1.09,0,0,1,.6-.31.76.76,0,0,1,.62.18,1.47,1.47,0,0,1,.45,1,3,3,0,0,1-.16,1.24,5.55,5.55,0,0,1-.53,1c-.2.32-.41.63-.59,1a8.33,8.33,0,0,0-.67,1.9,7,7,0,0,0-.24,2Z"/>
          <path class="cls-21" d="M268.79,229.8a7.21,7.21,0,0,1,.06-2,6.37,6.37,0,0,1,.59-1.82,2.33,2.33,0,0,1,.59-.78.7.7,0,0,1,.74-.17,1,1,0,0,1,.53.64,2.44,2.44,0,0,1,.1,1,3,3,0,0,1-.24.86,2.39,2.39,0,0,1-.48.67,4.55,4.55,0,0,1-1.05.65,1.8,1.8,0,0,0-.84.91Z"/>
          <path class="cls-21" d="M174.67,235.74c0-.11-.06-.22-.1-.33s-.07-.22-.1-.33c-.09-.27-.17-.54-.26-.8s-.19-.52-.3-.77a6.83,6.83,0,0,0-1.25-1.93,4.92,4.92,0,0,0-1.67-1.2c-.16-.07-.32-.13-.47-.21a1.27,1.27,0,0,1-.4-.34,1.48,1.48,0,0,1-.12-1.29,1.35,1.35,0,0,1,.79-.92,1.24,1.24,0,0,1,1,.22,3,3,0,0,1,.83,1,8.35,8.35,0,0,1,.53,1.26c.15.44.29.89.46,1.32.25.66.57,1.33.8,2a4.45,4.45,0,0,1,.26,2.11Z"/>
          <path class="cls-21" d="M177.24,228.85a9.3,9.3,0,0,0-.72-2.06,7.64,7.64,0,0,0-1.13-1.72c-.34-.38-.7-.72-1.06-1.07a7.33,7.33,0,0,1-1-1.13,4.31,4.31,0,0,1-.66-1.55,2.94,2.94,0,0,1,.1-1.69,1.7,1.7,0,0,1,1.17-1.06,1.77,1.77,0,0,1,1.48.32,3.79,3.79,0,0,1,1.06,1.37,10,10,0,0,1,.63,1.84,18.51,18.51,0,0,1,.49,3.41,9.51,9.51,0,0,1-.35,3.34Z"/>
          <path class="cls-21" d="M177.17,239.71a8.21,8.21,0,0,0-.16-1.32,8.56,8.56,0,0,0-.36-1.25c-.14-.35-.3-.7-.44-1.06A3.81,3.81,0,0,1,176,235a1.94,1.94,0,0,1,.28-1.13c.19-.3.47-.48.75-.38a1,1,0,0,1,.51.61,3.41,3.41,0,0,1,.19,1,16.56,16.56,0,0,1,0,2.43,6.3,6.3,0,0,1-.55,2.25Z"/>
          <g>
            <polygon class="cls-6" points="376.83 256.57 352.37 256.57 327.9 256.57 327.91 256.52 327.92 256.47 328.31 254.67 328.69 252.86 330.84 242.81 332.98 232.77 333 232.65 333.03 232.53 338.68 224.07 344.34 215.61 344.6 215.22 344.87 214.82 344.87 214.82 344.87 214.82 344.93 214.82 344.99 214.83 345.52 214.92 346.05 215 346.25 215.03 346.45 215.06 353.93 216.18 361.41 217.29 361.52 217.3 361.63 217.32 361.73 217.33 361.83 217.35 361.83 217.35 361.84 217.35 361.98 217.57 362.13 217.78 362.13 217.79 362.13 217.79 366.92 224.95 371.71 232.12 371.71 232.12 371.71 232.12 371.71 232.12 371.71 232.12 371.79 232.25 371.87 232.37 372.73 233.65 373.58 234.92 373.58 234.92 373.58 234.93 373.63 234.99 373.67 235.06 374.98 243.94 376.28 252.83 376.53 254.54 376.78 256.25 376.81 256.41 376.83 256.57"/>
            <polygon class="cls-5" points="368.75 256.57 360.9 256.57 353.04 256.57 352.91 255.71 352.78 254.85 351.19 244.32 349.6 233.8 349.6 233.8 349.6 233.8 349.6 233.8 349.6 233.8 349.6 233.8 349.6 233.8 354.32 229.56 359.03 225.32 359.58 226.59 360.13 227.87 360.13 227.87 360.13 227.87 360.43 228.58 360.73 229.3 360.73 229.3 360.74 229.3 363.88 236.62 367.03 243.94 367.06 244.02 367.1 244.1 367.68 248.51 368.27 252.93 368.51 254.75 368.75 256.57"/>
            <path class="cls-13" d="M376.78,256.25l-.36.16-.4.16H368.6c-.07-.52-.15-1.09-.23-1.7s-.16-1.26-.24-1.92c-.19-1.51-.38-3.13-.56-4.66s-.34-3-.47-4.19h0c-.1-.9-.19-1.66-.24-2.19s-.09-.83-.09-.83l2.47-4.47,2.47-4.48.08.13.08.12.86,1.28.85,1.27h0l.05.06,0,.07,1.31,8.88,1.3,8.89.25,1.71Z"/>
            <polygon class="cls-4" points="373.58 234.93 370.37 239.58 367.16 244.24 367.13 244.17 367.1 244.1 363.89 236.95 360.68 229.79 360.37 229.11 360.06 228.42 360.74 222.85 361.41 217.28 361.62 217.32 361.84 217.35 361.98 217.57 362.13 217.78 366.92 224.95 371.71 232.12 372.65 233.52 373.58 234.93"/>
            <polygon class="cls-6" points="349.6 233.8 341.29 233.28 332.98 232.77 333.01 232.65 333.03 232.53 338.95 223.67 344.87 214.82 344.93 214.83 344.99 214.84 345.72 214.95 346.45 215.06 348.03 224.43 349.6 233.8"/>
            <polygon class="cls-8" points="362.13 217.78 361.4 223.79 360.68 229.79 360.66 229.9 360.65 230 355.13 231.9 349.6 233.8 347.3 224.32 344.99 214.84 353.2 216.06 361.41 217.28 361.62 217.32 361.84 217.35 361.98 217.57 362.13 217.78"/>
            <polygon class="cls-11" points="353.8 256.57 340.85 256.57 327.9 256.57 327.91 256.52 327.92 256.47 329.9 254.4 331.88 252.33 340.74 243.07 349.6 233.8 349.6 233.8 349.6 233.8 349.61 233.8 349.61 233.8 351.56 244.39 353.51 254.99 353.65 255.78 353.8 256.57"/>
          </g>
          <path class="cls-25" d="M380.56,256.92H324.17l0-.05v-.06l.44-2.09.45-2.08c.57-.12,1.17-.23,1.78-.33s1.25-.2,1.89-.27a51.07,51.07,0,0,1,6.67-.38,49.88,49.88,0,0,1,7,.54,37.61,37.61,0,0,1,6,1.41c1.6.51,2.92,1,4.38,1.32l.41.09.42.07a15.72,15.72,0,0,0,2.16.2,22.35,22.35,0,0,0,2.62-.11,34.72,34.72,0,0,0,5.68-1.15,47.56,47.56,0,0,1,6.39-1.29h.16c.49-.06,1-.12,1.55-.16s1.11-.09,1.71-.12c.86,0,1.86-.07,2.89-.05a26.43,26.43,0,0,1,3.09.22l.28,2,.29,2,0,.19Z"/>
          <g>
            <polygon class="cls-6" points="70.37 263.61 55.29 263.61 40.22 263.61 40.23 263.58 40.24 263.55 40.47 262.44 40.71 261.32 42.03 255.13 43.35 248.94 43.37 248.87 43.38 248.8 46.87 243.58 50.35 238.37 50.51 238.13 50.67 237.89 50.67 237.89 50.68 237.88 50.71 237.89 50.75 237.9 51.08 237.95 51.4 238 51.53 238.02 51.65 238.03 56.26 238.72 60.87 239.41 60.93 239.42 61 239.43 61.06 239.44 61.13 239.44 61.13 239.44 61.13 239.45 61.22 239.58 61.31 239.72 61.31 239.72 61.31 239.72 64.26 244.13 67.21 248.54 67.21 248.54 67.21 248.55 67.21 248.55 67.21 248.55 67.26 248.62 67.31 248.7 67.84 249.49 68.36 250.27 68.36 250.27 68.36 250.27 68.39 250.32 68.42 250.36 69.22 255.83 70.03 261.3 70.18 262.36 70.34 263.41 70.35 263.51 70.37 263.61"/>
            <polygon class="cls-5" points="65.39 263.61 60.55 263.61 55.71 263.61 55.63 263.08 55.55 262.55 54.57 256.06 53.59 249.58 53.59 249.58 53.59 249.58 53.59 249.58 53.59 249.58 53.59 249.58 53.59 249.58 56.5 246.97 59.4 244.35 59.74 245.14 60.08 245.93 60.08 245.93 60.08 245.93 60.26 246.37 60.45 246.81 60.45 246.81 60.45 246.81 62.39 251.32 64.33 255.83 64.35 255.88 64.37 255.92 64.73 258.64 65.09 261.36 65.24 262.49 65.39 263.61"/>
            <path class="cls-13" d="M70.34,263.41l-.23.1-.24.1H65.3q-.08-.48-.15-1.05c0-.37-.09-.77-.14-1.19-.12-.92-.24-1.92-.35-2.86s-.21-1.85-.29-2.59h0c-.06-.56-.11-1-.15-1.35s-.06-.51-.06-.51l1.53-2.76,1.52-2.75.05.07,0,.08.53.78.52.79h0l0,0,0,0,.8,5.47L70,261.3l.15,1.06Z"/>
            <polygon class="cls-4" points="68.36 250.27 66.39 253.14 64.41 256.01 64.39 255.97 64.37 255.92 62.39 251.52 60.41 247.11 60.22 246.69 60.03 246.27 60.45 242.84 60.87 239.41 61 239.43 61.13 239.45 61.22 239.58 61.31 239.72 64.26 244.13 67.21 248.55 67.79 249.41 68.36 250.27"/>
            <polygon class="cls-6" points="53.59 249.58 48.47 249.26 43.35 248.94 43.37 248.87 43.38 248.8 47.03 243.34 50.67 237.89 50.71 237.89 50.75 237.9 51.2 237.97 51.65 238.03 52.62 243.81 53.59 249.58"/>
            <polygon class="cls-8" points="61.31 239.72 60.86 243.41 60.41 247.11 60.41 247.18 60.4 247.24 57 248.41 53.59 249.58 52.17 243.74 50.75 237.9 55.81 238.65 60.87 239.41 61 239.43 61.13 239.45 61.22 239.58 61.31 239.72"/>
            <polygon class="cls-11" points="56.18 263.61 48.2 263.61 40.22 263.61 40.23 263.58 40.24 263.55 41.46 262.27 42.68 261 48.13 255.29 53.59 249.58 53.59 249.58 53.59 249.58 53.59 249.58 53.59 249.58 54.8 256.11 56 262.63 56.09 263.12 56.18 263.61"/>
          </g>
          <path class="cls-26" d="M72.66,263.82H37.93v-.07l.28-1.28.27-1.28c.35-.08.72-.15,1.1-.21l1.16-.17a34,34,0,0,1,4.11-.23,31.15,31.15,0,0,1,4.31.33,22.72,22.72,0,0,1,3.73.88c1,.31,1.79.61,2.69.81l.25,0,.27.05a8.88,8.88,0,0,0,1.33.12,13.34,13.34,0,0,0,1.61-.07,21.87,21.87,0,0,0,3.5-.7,26.29,26.29,0,0,1,3.94-.8h.1c.3,0,.61-.07,1-.09s.68-.06,1-.07c.53,0,1.14-.05,1.78,0a14.9,14.9,0,0,1,1.9.14l.18,1.21.18,1.21v.12Z"/>
          <g>
            <path class="cls-27" d="M56.24,249.49a16,16,0,0,0,1.31,1.64,13.21,13.21,0,0,1,1.27,1.68,12.26,12.26,0,0,1,1,2,11.57,11.57,0,0,1,.59,2.11,15.13,15.13,0,0,1,.25,2.58c0,.86,0,1.72,0,2.6a20.87,20.87,0,0,0,0,2.1,3.23,3.23,0,0,0,.78,1.86.89.89,0,0,0,.79.27,1.06,1.06,0,0,0,.7-.46,3.67,3.67,0,0,0,.37-2.32c-.09-.83-.33-1.67-.48-2.41-.18-.91-.31-1.84-.44-2.76a24.56,24.56,0,0,0-.53-2.74,14.89,14.89,0,0,0-1.74-4,7.51,7.51,0,0,0-3.1-2.89.66.66,0,0,0-.66.12.45.45,0,0,0-.08.63Z"/>
            <path class="cls-28" d="M68.37,241a8.76,8.76,0,0,0-1.88,2.34c-.54.89-1,1.84-1.41,2.69S64.2,248,63.83,249s-.69,2-1,3-.5,2-.69,3.06-.34,2.08-.45,3.11a20.88,20.88,0,0,0-.21,2.83,3.28,3.28,0,0,0,.88,2.49.83.83,0,0,0,.48.2.51.51,0,0,0,.48-.2,3.36,3.36,0,0,0,.57-2.2c0-.81-.17-1.65-.18-2.39a26.78,26.78,0,0,1,.11-3.11,23.1,23.1,0,0,1,.5-3.07c.23-1,.51-1.92.83-2.86s.7-1.86,1.12-2.76a24.59,24.59,0,0,1,1.54-2.67,19.48,19.48,0,0,0,1.49-2.67.66.66,0,0,0-.17-.8.61.61,0,0,0-.8,0Z"/>
            <path class="cls-29" d="M67.68,254.65a12.48,12.48,0,0,0-3.92,4.15,16.29,16.29,0,0,0-2,5.41,1,1,0,0,0,.72,1.16.84.84,0,0,0,1.11-.65,22.36,22.36,0,0,1,1.86-5,40,40,0,0,1,2.78-4.56.35.35,0,0,0-.06-.44.36.36,0,0,0-.44-.07Z"/>
          </g>
          <g>
            <path class="cls-27" d="M72.92,237.52a23.47,23.47,0,0,0,1.7,2.14,16.2,16.2,0,0,1,1.65,2.18,16,16,0,0,1,2,5.28,21.45,21.45,0,0,1,.32,3.36c0,1.12,0,2.24,0,3.38a24.91,24.91,0,0,0,0,2.74,4.16,4.16,0,0,0,1,2.41,1.13,1.13,0,0,0,1,.35,1.35,1.35,0,0,0,.92-.6,4.68,4.68,0,0,0,.48-3c-.12-1.08-.42-2.17-.62-3.13-.24-1.19-.4-2.39-.58-3.6a32.44,32.44,0,0,0-.69-3.56,18.79,18.79,0,0,0-2.26-5.15,9.63,9.63,0,0,0-4-3.76.86.86,0,0,0-.86.15.59.59,0,0,0-.11.82Z"/>
            <path class="cls-28" d="M86.1,234.1a9.1,9.1,0,0,0-1.89,2.33c-.53.89-1,1.84-1.4,2.7s-.88,1.93-1.25,2.93-.69,2-1,3-.5,2-.69,3.07-.35,2.07-.46,3.11a21,21,0,0,0-.2,2.82,3.32,3.32,0,0,0,.87,2.5.93.93,0,0,0,.49.2.53.53,0,0,0,.48-.2,3.32,3.32,0,0,0,.56-2.2c0-.81-.16-1.66-.17-2.4a26.61,26.61,0,0,1,.11-3.1,23.1,23.1,0,0,1,.5-3.07c.23-1,.51-1.93.83-2.87s.7-1.86,1.12-2.76a24.45,24.45,0,0,1,1.54-2.66,19.59,19.59,0,0,0,1.49-2.68.66.66,0,0,0-.17-.79.6.6,0,0,0-.8,0Z"/>
            <path class="cls-29" d="M85.41,247.73a12.68,12.68,0,0,0-3.93,4.14,16.1,16.1,0,0,0-2,5.42,1,1,0,0,0,.72,1.16.84.84,0,0,0,1.1-.65,22.46,22.46,0,0,1,1.87-5,41.87,41.87,0,0,1,2.78-4.56.33.33,0,0,0-.06-.43.36.36,0,0,0-.44-.07Z"/>
          </g>
          <g>
            <polygon class="cls-6" points="85.87 265.35 74.91 265.35 63.96 265.35 63.96 265.33 63.97 265.31 64.14 264.5 64.31 263.69 65.27 259.19 66.23 254.69 66.24 254.64 66.25 254.58 68.79 250.79 71.32 247 71.44 246.83 71.55 246.65 71.55 246.65 71.56 246.65 71.58 246.65 71.61 246.66 71.85 246.7 72.08 246.73 72.18 246.74 72.26 246.76 75.61 247.26 78.96 247.76 79.01 247.76 79.06 247.77 79.11 247.78 79.15 247.78 79.15 247.78 79.15 247.78 79.22 247.88 79.28 247.98 79.28 247.98 79.28 247.98 81.43 251.19 83.57 254.4 83.57 254.4 83.57 254.4 83.58 254.4 83.58 254.4 83.61 254.45 83.65 254.51 84.03 255.08 84.42 255.65 84.42 255.65 84.42 255.65 84.44 255.69 84.46 255.72 85.04 259.69 85.62 263.67 85.73 264.44 85.85 265.2 85.86 265.28 85.87 265.35"/>
            <polygon class="cls-5" points="82.25 265.35 78.73 265.35 75.22 265.35 75.16 264.96 75.1 264.58 74.39 259.86 73.68 255.15 73.68 255.15 73.68 255.15 73.68 255.15 73.68 255.15 73.68 255.15 73.68 255.15 75.79 253.25 77.9 251.35 78.14 251.92 78.39 252.5 78.39 252.5 78.39 252.5 78.53 252.81 78.66 253.13 78.66 253.14 78.66 253.14 80.07 256.42 81.48 259.69 81.5 259.73 81.51 259.76 81.77 261.74 82.03 263.71 82.14 264.53 82.25 265.35"/>
            <path class="cls-13" d="M85.85,265.21l-.17.07-.17.07H82.18c0-.23-.06-.49-.1-.76S82,264,82,263.73c-.08-.68-.17-1.4-.25-2.09s-.15-1.34-.21-1.88h0c0-.41-.08-.74-.11-1s0-.37,0-.37l1.11-2,1.1-2,0,0,0,.06.38.57.38.57h0l0,0,0,0,.59,4,.58,4,.11.77Z"/>
            <polygon class="cls-4" points="84.42 255.65 82.98 257.74 81.54 259.83 81.53 259.79 81.51 259.76 80.07 256.56 78.63 253.36 78.5 253.05 78.36 252.74 78.66 250.25 78.96 247.76 79.06 247.77 79.16 247.78 79.22 247.88 79.28 247.98 81.43 251.19 83.58 254.4 83.99 255.03 84.42 255.65"/>
            <polygon class="cls-6" points="73.68 255.15 69.95 254.92 66.23 254.69 66.24 254.64 66.25 254.58 68.9 250.62 71.55 246.65 71.58 246.66 71.61 246.66 71.94 246.71 72.27 246.76 72.97 250.95 73.68 255.15"/>
            <polygon class="cls-8" points="79.28 247.98 78.96 250.67 78.63 253.36 78.63 253.41 78.62 253.45 76.15 254.3 73.68 255.15 72.64 250.91 71.61 246.66 75.29 247.21 78.96 247.76 79.06 247.77 79.16 247.78 79.22 247.88 79.28 247.98"/>
            <polygon class="cls-11" points="75.56 265.35 69.76 265.35 63.96 265.35 63.96 265.33 63.97 265.31 64.86 264.38 65.74 263.45 69.71 259.3 73.68 255.15 73.68 255.15 73.68 255.15 73.68 255.15 73.68 255.15 74.55 259.9 75.42 264.64 75.49 265 75.56 265.35"/>
          </g>
          <path class="cls-26" d="M87.54,265.51H62.29v-.06l.2-.93.2-.93c.25,0,.52-.11.8-.15s.55-.09.84-.12a23,23,0,0,1,6.12.07,17.48,17.48,0,0,1,2.71.63c.72.23,1.31.45,2,.59l.18,0,.19,0a7.12,7.12,0,0,0,1,.09,10,10,0,0,0,1.17-.06,16,16,0,0,0,2.55-.51,21,21,0,0,1,2.86-.58h.07l.69-.07.77-.05c.38,0,.83,0,1.29,0a10.43,10.43,0,0,1,1.38.09l.13.89.13.88,0,.08Z"/>
          <g>
            <path class="cls-27" d="M362.22,240.26a18.85,18.85,0,0,0,1.3,1.65,11.72,11.72,0,0,1,1.28,1.67,12.69,12.69,0,0,1,1,2,11.57,11.57,0,0,1,.59,2.11,15.13,15.13,0,0,1,.25,2.58c0,.86,0,1.72,0,2.6a21,21,0,0,0,0,2.11,3.17,3.17,0,0,0,.78,1.85.85.85,0,0,0,.79.27,1,1,0,0,0,.7-.46,3.66,3.66,0,0,0,.37-2.32c-.09-.82-.33-1.66-.48-2.41-.18-.91-.31-1.83-.44-2.76a22.88,22.88,0,0,0-.54-2.74,14.35,14.35,0,0,0-1.73-4,7.38,7.38,0,0,0-3.1-2.89.63.63,0,0,0-.66.11.45.45,0,0,0-.08.63Z"/>
            <path class="cls-28" d="M374.35,231.79a9.33,9.33,0,0,0-1.89,2.34c-.53.89-1,1.84-1.4,2.7s-.88,1.93-1.25,2.92-.69,2-1,3-.5,2-.69,3.06-.35,2.08-.45,3.11a21.13,21.13,0,0,0-.21,2.83,3.33,3.33,0,0,0,.87,2.5.92.92,0,0,0,.49.19.53.53,0,0,0,.48-.19,3.33,3.33,0,0,0,.56-2.2c0-.82-.16-1.66-.17-2.4a26.86,26.86,0,0,1,.11-3.11,23.36,23.36,0,0,1,.5-3.07c.23-1,.51-1.92.83-2.86s.7-1.86,1.12-2.76a25.57,25.57,0,0,1,1.54-2.67,19.48,19.48,0,0,0,1.49-2.67.66.66,0,0,0-.17-.8.62.62,0,0,0-.8,0Z"/>
            <path class="cls-29" d="M373.66,245.43a12.58,12.58,0,0,0-3.93,4.14,16.05,16.05,0,0,0-2,5.41,1,1,0,0,0,.72,1.16.83.83,0,0,0,1.1-.65,22.87,22.87,0,0,1,1.87-5,40.94,40.94,0,0,1,2.78-4.56.37.37,0,0,0-.5-.5Z"/>
          </g>
          <path class="cls-25" d="M364.82,257.81a27.81,27.81,0,0,1,5.76.42V255c-.64,0-1.28-.1-1.92-.19s-1.27-.21-1.91-.35c.05.49.1,1,.14,1.46l.15,1.46a2,2,0,0,1,1-.35c.37,0,.75,0,1.07-.07.63-.06,1.06-.75,1.16-1.47a1.39,1.39,0,0,0-.84-1.66,8.27,8.27,0,0,0-1.6-.28,12.28,12.28,0,0,0-1.61,0c.05.52.11,1,.16,1.56s.11,1.05.16,1.57l1.19-.26,1.19-.25c.25-.05.66-.21,1.07-.33a1.47,1.47,0,0,1,1,0c.69.44,1.34,0,1.64-.72a1.6,1.6,0,0,0-.43-2,4.21,4.21,0,0,0-3.14-.3c-1.12.23-2.25.65-3.19.85-.67.15-.93.94-.84,1.69s.49,1.46,1.16,1.45c.44,0,.86,0,1.29,0a6.33,6.33,0,0,1,1.28.21c.05-.53.11-1,.16-1.57s.11-1,.16-1.57c-.57.06-1.14.08-1.7.19a3.53,3.53,0,0,0-1.6.66,1.92,1.92,0,0,0-.57,1.61,1.34,1.34,0,0,0,.85,1.31c.74.16,1.48.3,2.23.41s1.49.19,2.24.24,1.16-.69,1.15-1.46a1.66,1.66,0,0,0-1.15-1.73,27.81,27.81,0,0,0-5.76-.42c-.77,0-1.15.84-1.15,1.63s.38,1.59,1.15,1.56Z"/>
          <path class="cls-26" d="M59.55,267.46a13.66,13.66,0,0,0,1.63-.46,12.63,12.63,0,0,0,1.6-.63A.42.42,0,0,0,63,266a.35.35,0,0,0-.21-.37,3.59,3.59,0,0,0-.52-.13,4.53,4.53,0,0,0-.53-.05c-.1,0-.37.05-.64.07s-.52,0-.59-.07l-.06.33c0,.11,0,.22-.07.33a1.44,1.44,0,0,0,.76-.58,1.51,1.51,0,0,1,.76-.61l.33-.06a1.41,1.41,0,0,0,.32-.09,2.69,2.69,0,0,0,.44-.26,1,1,0,0,1,.47-.18.38.38,0,0,0,.29-.42c0-.19-.09-.38-.29-.38-.55,0-1.11-.12-1.66-.12a2,2,0,0,0-1.56.59.54.54,0,0,0-.08.57c.08.17.23.27.39.11a1.76,1.76,0,0,1,1.41-.49c.5,0,1,.14,1.5.14v-.8a2.87,2.87,0,0,0-.9.29,5.59,5.59,0,0,1-.89.33,1.32,1.32,0,0,0-.3.09.68.68,0,0,0-.27.18,3.07,3.07,0,0,0-.4.53.77.77,0,0,1-.48.39.3.3,0,0,0-.2.28.57.57,0,0,0,.07.39.53.53,0,0,0,.3.23,1.38,1.38,0,0,0,.36,0c.32,0,.63,0,.94,0a3.43,3.43,0,0,1,.94.13v-.76a16.58,16.58,0,0,1-1.6.63,15.77,15.77,0,0,1-1.63.45c-.19,0-.25.25-.21.45s.18.36.37.32Z"/>
          <path class="cls-26" d="M61,265.83a1.25,1.25,0,0,1,.81.15,3.18,3.18,0,0,0,.79.26v-.8a1.38,1.38,0,0,1-.77-.42c-.26-.23-.5-.51-.7-.68l0,.37c0,.12,0,.24,0,.36a.61.61,0,0,1,.39.11c.15.08.3.18.39.22l.63.34.61.37c0-.12,0-.24,0-.36l0-.37c-.11,0-.29-.08-.48-.2l-.46-.33-.47-.27-.46-.27-.12.37L61,265l.52.21.51.21a.26.26,0,0,0,.34-.22.5.5,0,0,0-.11-.51,7.37,7.37,0,0,0-.77-.46c-.35-.2-.69-.36-.7-.31s.35,0,.72-.15.75-.25.75-.25a6.41,6.41,0,0,1,1.39,0c.38,0,.65-.26.77-1.18a.7.7,0,0,0-.06-.35.23.23,0,0,0-.23-.16,3.36,3.36,0,0,0-.48.14l-.48.18a2.25,2.25,0,0,1-.72.11c-.24,0-.48,0-.73,0a3.36,3.36,0,0,0-1,.21,4.26,4.26,0,0,0-1,.47.41.41,0,0,0-.11.51c.08.17.24.29.42.18a3.59,3.59,0,0,1,1.08-.46,5.22,5.22,0,0,1,1.13-.11,3.21,3.21,0,0,0,.93-.19,8.89,8.89,0,0,1,.92-.26l-.14-.25-.15-.25c0,.39-.17.54-.34.59a2,2,0,0,1-.64,0,2.24,2.24,0,0,0-.45,0,2,2,0,0,0-.44.1,5.4,5.4,0,0,1-.73.21,5.27,5.27,0,0,1-.73.13,1.16,1.16,0,0,0-.28.05.49.49,0,0,0-.24.17c-.41.54,0,1,.56,1.31s1.26.57,1.41.71c0-.12.07-.25.11-.37l.12-.36-.51-.21-.52-.21c-.15-.06-.29.08-.35.25A.39.39,0,0,0,61,265c.32.19.73.52,1.14.78a1.81,1.81,0,0,0,1.2.37c.13,0,.2-.17.21-.33a.43.43,0,0,0-.14-.4c-.3-.19-.75-.54-1.21-.8a1.64,1.64,0,0,0-1.27-.32.36.36,0,0,0-.21.33.47.47,0,0,0,.14.4c.27.23.54.54.84.78a1.48,1.48,0,0,0,.93.43c.2,0,.29-.2.29-.39s-.09-.4-.29-.41a1.18,1.18,0,0,1-.5-.19,2.47,2.47,0,0,0-.49-.24,1.3,1.3,0,0,0-.39,0l-.38.07c-.19,0-.25.25-.21.44s.18.37.37.33Z"/>
          <path class="cls-30" d="M401.42,225.86l-1.3.2-1.3.2c-3.39.53-5.15.78-6.15.93s-1.24.19-1.61.28l-1.26.32-1.13.31c.08-.54.17-1.12.26-1.73s.2-1.24.3-1.91c0-.31.1-.6.14-.88s.09-.56.13-.82c2.91.58,5.63,1.28,7.75,1.87S400.9,225.7,401.42,225.86Z"/>
          <path class="cls-30" d="M29.51,214.83c-.21.33-.44.69-.68,1.09s-.5.84-.77,1.33l-.48.93c-.15.3-.3.6-.43.88-.25.53-.46,1-.65,1.48s-.35.86-.48,1.21l-3.73.86-3.73.87-1.25-1-1.06-.91.54-1.26c.19-.42.38-.85.59-1.27l.07-.16.08-.17a14.24,14.24,0,0,1,1.21-1.11,12,12,0,0,1,1.72-1.18,10.89,10.89,0,0,1,2.12-.94,11.5,11.5,0,0,1,1.78-.42,17.75,17.75,0,0,1,2.35-.22C27.58,214.81,28.52,214.81,29.51,214.83Z"/>
        </g>
      </g>
    </g>
  </g>
</svg>
