<svg id="Layer_1" data-name="Layer 1" xmlns="http://www.w3.org/2000/svg" xmlns:xlink="http://www.w3.org/1999/xlink" width="269.03" height="234.88" viewBox="0 0 269.03 234.88">
  <defs>
    <style>
      .cls-1 {
        fill: #ff0;
      }

      .cls-2 {
        fill: #3a1b07;
      }

      .cls-2, .cls-4 {
        stroke: #1e0f03;
        stroke-width: 2px;
      }

      .cls-10, .cls-18, .cls-19, .cls-2, .cls-24, .cls-4, .cls-5, .cls-7, .cls-8 {
        stroke-miterlimit: 10;
      }

      .cls-3 {
        fill: #4c250f;
      }

      .cls-4 {
        fill: #2d1305;
      }

      .cls-5 {
        stroke: #301f18;
        fill: url(#linear-gradient);
      }

      .cls-10, .cls-11, .cls-12, .cls-13, .cls-14, .cls-15, .cls-16, .cls-17, .cls-18, .cls-19, .cls-20, .cls-21, .cls-22, .cls-23, .cls-24, .cls-25, .cls-26, .cls-27, .cls-28, .cls-29, .cls-5, .cls-6, .cls-7, .cls-8, .cls-9 {
        fill-rule: evenodd;
      }

      .cls-6 {
        fill: #42251c;
      }

      .cls-7 {
        fill: #b2694a;
        stroke: #7c4633;
      }

      .cls-10, .cls-19, .cls-24, .cls-7, .cls-8 {
        stroke-width: 0.5px;
      }

      .cls-8 {
        fill: #ec916c;
        stroke: #ba694d;
      }

      .cls-9 {
        opacity: 0.31;
      }

      .cls-10 {
        stroke: #5e5a58;
        fill: url(#linear-gradient-2);
      }

      .cls-11 {
        fill: #2d251e;
      }

      .cls-12 {
        fill: #552d1d;
      }

      .cls-13 {
        fill: url(#linear-gradient-3);
      }

      .cls-14 {
        fill: url(#linear-gradient-4);
      }

      .cls-15 {
        fill: url(#linear-gradient-5);
      }

      .cls-16 {
        fill: url(#linear-gradient-6);
      }

      .cls-17 {
        fill: #23110a;
      }

      .cls-18 {
        fill: #302824;
        stroke: #351d13;
      }

      .cls-19 {
        fill: #302d2d;
      }

      .cls-19, .cls-24 {
        stroke: #282423;
      }

      .cls-20 {
        fill: url(#linear-gradient-7);
      }

      .cls-21 {
        fill: #776a66;
      }

      .cls-22 {
        fill: #323232;
      }

      .cls-23 {
        fill: #fdfdfb;
      }

      .cls-24 {
        fill: #4c4b4b;
      }

      .cls-25 {
        fill: #ecdbd2;
      }

      .cls-26 {
        fill: #f7efeb;
      }

      .cls-27 {
        fill: #3f251d;
        opacity: 0.47;
      }

      .cls-28 {
        fill: #9b6a59;
      }

      .cls-29 {
        fill: #bf9a8c;
        opacity: 0.42;
      }
    </style>
    <linearGradient id="linear-gradient" x1="202.84" y1="184.91" x2="301.83" y2="184.91" gradientTransform="translate(-27.47 -36.94) rotate(4.69)" gradientUnits="userSpaceOnUse">
      <stop offset="0.59" stop-color="#86491a"/>
      <stop offset="0.73" stop-color="#9b642f"/>
      <stop offset="0.9" stop-color="#b28046"/>
      <stop offset="1" stop-color="#ba8a4e"/>
    </linearGradient>
    <linearGradient id="linear-gradient-2" x1="125.6" y1="163.13" x2="198.3" y2="71.3" gradientTransform="translate(-27.47 -36.94) rotate(4.69)" gradientUnits="userSpaceOnUse">
      <stop offset="0.07" stop-color="#ded7cc"/>
      <stop offset="0.11" stop-color="#d8c7b0"/>
      <stop offset="0.18" stop-color="#ceaf86"/>
      <stop offset="0.24" stop-color="#c89d67"/>
      <stop offset="0.3" stop-color="#c39355"/>
      <stop offset="0.34" stop-color="#c28f4e"/>
      <stop offset="0.4" stop-color="#c28f4e"/>
    </linearGradient>
    <linearGradient id="linear-gradient-3" x1="139.24" y1="143.31" x2="237.24" y2="143.31" xlink:href="#linear-gradient"/>
    <linearGradient id="linear-gradient-4" x1="141.95" y1="138.91" x2="228.57" y2="138.91" xlink:href="#linear-gradient"/>
    <linearGradient id="linear-gradient-5" x1="153.18" y1="132.89" x2="220.39" y2="132.89" xlink:href="#linear-gradient"/>
    <linearGradient id="linear-gradient-6" x1="173.42" y1="128.88" x2="214.02" y2="128.88" xlink:href="#linear-gradient"/>
    <linearGradient id="linear-gradient-7" x1="108.38" y1="100.6" x2="246.77" y2="156.49" gradientTransform="translate(-27.47 -36.94) rotate(4.69)" gradientUnits="userSpaceOnUse">
      <stop offset="0.07" stop-color="#86491a"/>
      <stop offset="0.33" stop-color="#9b642f"/>
      <stop offset="0.66" stop-color="#b28046"/>
      <stop offset="0.86" stop-color="#ba8a4e"/>
    </linearGradient>
  </defs>
  <g>
    <path class="cls-1" d="M248.89,176.69c-8.55-7.18-24.2-17.85-36.76-26.41l-.32-.22c-3.4-2.31-6.72-4.59-10.11-6.94a7,7,0,0,0,.13-3.08c-.57-3.16-3-5.08-5.08-6.39a31.89,31.89,0,0,0-3.56-1.94c-1-2-3.16-3.48-4.76-4.57-.8-.54-1.64-1.11-2.58-1.72-.7-2-2.58-3.54-5.75-5.89a7.63,7.63,0,0,0-.31-.84c-.58-1.61-1.81-3.54-5.37-7.54a187.26,187.26,0,0,0-13.23-13.4c-1-1.91-2.87-3.78-5.48-6.26-.79-.76-1.73-1.63-2.76-2.57l-.14-.13c-5-4.57-13.2-11.79-20.39-17.66A185.64,185.64,0,0,0,113,57c-3.43-2.15-6.83-4.13-9.56-5.72-1.68-1-3.15-1.82-4.28-2.52A18.8,18.8,0,0,1,96.68,47l-.09-.22-.26-.7a57.92,57.92,0,0,0-2.47-7.77c-.52-1.28-1.1-2.57-1.75-3.83a26.15,26.15,0,0,0-3.58-5.91l-.68-.94C87,26.52,86,25.33,84.92,24.11l-.09-.1a71.08,71.08,0,0,0-7.17-6.86c-.51-.43-1-.84-1.55-1.25a39,39,0,0,0-9.86-6.23l-.51-.24a24.34,24.34,0,0,0-6.83-1.88A26.47,26.47,0,0,0,55,7.25a21.41,21.41,0,0,0-5.49.67,31.83,31.83,0,0,0-3.31.64c-1.84.4-3.77.89-5.59,1.42a63.92,63.92,0,0,0-7.45,2.63c-7.5,3-10.56,7.06-11.75,10.35a53.15,53.15,0,0,0-8.58,4.74C10,29.63,8.27,31.09,7.56,33.27a6.23,6.23,0,0,0,4.44,8C13.15,42,14.91,43,16.8,44a48.63,48.63,0,0,0,5.43,2.44c.39,1.2.86,2.51,1.45,4.06L24.24,52C25,53.9,25.82,56.09,26.42,58a39.75,39.75,0,0,1,1.47,7.82c.18,1.71.37,3.72.55,5.75.23,2.56.47,5.21.73,7.39a69.68,69.68,0,0,0,1.6,8.78,63,63,0,0,0,5.34,17c3.42,7.09,8.12,13.35,16.22,21.58a353.92,353.92,0,0,0,31,27.47c8.14,6.32,14.43,10.19,20,12.33,0,0-.12.46-.18.67-.88.53-1.88,1-2.32,1.28s-.85.44-1.31.67c-.36,0-.69,0-1,0a19.23,19.23,0,0,0-4.31.5,27.43,27.43,0,0,0-7.54,2.79,9.36,9.36,0,0,0-1.17.87,63,63,0,0,0-7.94.85,249.2,249.2,0,0,1-44.16,4c-5.54,0-11.16-.19-16.7-.56l-.4,0a6,6,0,0,0-6,5.23l0,.32c-.26,2-.54,4-.82,6-.61,4.3-1.21,8.09-1.82,11.58a6,6,0,0,0,5.59,7c4,.21,8.16.4,12.85.58l.28,0c7.68.41,16.33.82,24.69,1.21,18.49.87,37.62,1.77,45.91,2.72,1.82.26,3.66.57,5.41.88,4.93.94,12.53,2.58,22.54,4.87,10.53,2.48,23.91,5.8,39.78,9.85a6.26,6.26,0,0,0,1.48.19A6,6,0,0,0,172,223c.19-.84.4-1.67.61-2.5l.16-.63a107.68,107.68,0,0,1,3.64-11.58l.36-.94c.24-.6.47-1.19.72-1.79.14-.32.27-.65.41-1,.26-.61.53-1.21.81-1.83l.38-.84c.41-.88.84-1.75,1.28-2.62.2-.38.44-.79.76-1.29l.22-.33c.23-.33.48-.66.72-1,.38-.45.7-.81,1-1.1a6,6,0,0,0-3-10.14c-14.61-3-28.05-5.56-39.92-7.52l-3.54-.78a13.51,13.51,0,0,0-6-4.64A12.89,12.89,0,0,0,129,172a9.84,9.84,0,0,0-1.22-1,24.19,24.19,0,0,0,1.33-3.81l.09-.36h0c2.87-.37,5.91-.76,8.93-1.11a86.19,86.19,0,0,1,9.68-.72,29.09,29.09,0,0,1,6.54.66,51.52,51.52,0,0,1,7.71,2.75,86.54,86.54,0,0,0,10.71,3.82c7.5,2,16.68,2.87,23.39,3.49l1.3.12c5.91.54,9.32.94,12.65,1.34,7.06,5,13.08,9.21,17.14,12l1,.7c3.28,2.35,6.18,4.5,8.81,6.53,4.4,3.51,8,6.72,10.6,9.06,1.85,1.66,3.19,2.86,4.29,3.71a6,6,0,0,0,9.65-4.26,40.79,40.79,0,0,0,.17-6.15C261.75,191.06,257.66,184.06,248.89,176.69Z"/>
    <g>
      <g>
        <path class="cls-2" d="M175,196.56a20,20,0,0,1,3.82-5.22c-43.51-9-82.49-14.86-100.28-11.65a254,254,0,0,1-62.32,3.47c-.79,6.08-1.66,12.14-2.72,18.17,36,1.93,65.41.72,92.19,5.9,12.42,2.41,34.81,7.86,60.43,14.41A108.87,108.87,0,0,1,175,196.56Z"/>
        <path class="cls-3" d="M170.61,206.65A96.54,96.54,0,0,1,175,196.56a20.49,20.49,0,0,1,2.59-3.9c-25.4-5.88-47-10.78-51.19-11.49-10.36-1.79-39.4-3.45-47.5-1S44.71,184,44.71,184c-12.14.18-21-.11-28.47-.69-.31,2.37-.63,4.75-1,7.12,32.45,4.67,51.92-2.95,85.9-4.43,37.5-1.63,61.61,10.27,61.61,10.27S162.58,202.07,170.61,206.65Z"/>
        <path class="cls-4" d="M167.77,215.39c-29.21-7-56-13.1-64-14.54-17.53-3.14-40.35-1.53-89.48-3.9-.23,1.42-.47,2.85-.72,4.27,4.61.26,9,.49,13.12.71,25.2,1.35,59.74,2.59,71.52,4,9.19,1.11,50.38,11,68.06,15.27Q167,218.3,167.77,215.39Z"/>
      </g>
      <g>
        <path class="cls-5" d="M161.84,136.34c22.84,15.19,55.73,39,68.83,47.87s21.56,17.58,24.91,20.16c-1-3.86,4.31-10.61-10.55-23.08-8.39-7-23.93-17.64-36.6-26.27s-22.38-15.45-32.08-22.26C176.46,136.12,161.72,133,161.84,136.34Z"/>
        <path class="cls-6" d="M104.66,187.64a17.26,17.26,0,0,1,5.29.52,8,8,0,0,1,4.47,3.7,7.33,7.33,0,0,1,.29,4.57c-1.09-1.8-2.18-3.6-4.21-4.43s-5-.72-8-.59a32.33,32.33,0,0,0,1.31-3.45C104,187.37,103.67,187.61,104.66,187.64Z"/>
        <path class="cls-6" d="M124.06,177.58a11.62,11.62,0,0,1,4.43.54,7.5,7.5,0,0,1,3.54,3,12.82,12.82,0,0,1,1.44,4.35,7.6,7.6,0,0,0-3-3.39,15.87,15.87,0,0,0-5.45-1.15c-1.62-.11-2.54-.09-2.58-.62S123.21,178.67,124.06,177.58Z"/>
        <path class="cls-6" d="M62.55,185.56c-1.84-.67-3.68-1.34-5.39-.61s-3.29,2.87-4.06,4.38a5.55,5.55,0,0,0-.68,3.3A10.79,10.79,0,0,1,56,189.74a14,14,0,0,1,5-.63C61.52,187.93,62,186.75,62.55,185.56Z"/>
        <path class="cls-6" d="M89.55,181.34A17.61,17.61,0,0,1,83,183a47.34,47.34,0,0,1-7.88-1.11c-2.3-.38-3.88-.39-5,.1a4,4,0,0,0-2.22,2.49,7.57,7.57,0,0,0-.16,3l11.19-.29,7.3-2.57Z"/>
        <path class="cls-7" d="M113.75,159.39c-.87,1.42-.65,15.27-.37,16s-1.5.7.46.55,4.46-.49,6.31-.63,3.08-.1,4,.54a3.52,3.52,0,0,1,1.58,3.17,4.38,4.38,0,0,1-2.22,3.34,4.52,4.52,0,0,1-3.86-.28,14,14,0,0,0-4.44-1.78c-2-.27-4.71.11-7.44-.16A38.07,38.07,0,0,1,99.68,178l-7.47,1.55a6.47,6.47,0,0,1-2.92-.46c-.61-.4-.68-1.18.56-2a21.13,21.13,0,0,1,5.62-2,13.48,13.48,0,0,1,4.75-.27c1.75.16,4.12.5,6.49.85.88-1.17,3.91-14.73,4.79-15.9Z"/>
        <path class="cls-8" d="M124.57,158.42a67.33,67.33,0,0,1-1.31,7.21,12.37,12.37,0,0,1-2.28,4.93,7.6,7.6,0,0,1-4,2.22,53.3,53.3,0,0,0-7.88,2.5,92.23,92.23,0,0,0-11.37,6c-3,1.89-4.38,3.12-4.81,3.88s.05,1,2,1,5.51-.33,7.75-.27,3.21.52,3.61,1.76a3.6,3.6,0,0,1-1.35,4.19c-1.58.93-4.58.75-8,.05S89.77,190,86.87,189.3a20.13,20.13,0,0,0-7-.53c-2,.21-7.51-.69-9.21-1s-5.58.53-7,.84-2.58,1.18-3.47,1.39-1.49-.24-1.39-1.37a4.93,4.93,0,0,1,2.88-3.89c2-.94,5.23-1,8.41-.92s6.3.35,8.72.15,4.11-.87,8.58-2.87,11.72-5.32,16.13-7.63,6-3.58,6.47-5.65-.17-4.95-.8-7.81Z"/>
        <path class="cls-9" d="M160.06,135.43c20.05,13.11,58.84,40.38,71.63,49.51a204.54,204.54,0,0,1,23.89,19.43c.23-2.8.46-5.6-.34-8.21s-2.6-5-16-14.22-45.18-31.05-70.09-47C170.09,137.86,159.16,132.54,160.06,135.43Z"/>
        <path class="cls-10" d="M26.65,28.42a13.69,13.69,0,0,1,3-5.76c1.55-1.68,3.74-3,7.75-4.59a68.81,68.81,0,0,1,14.74-3.89,19.68,19.68,0,0,1,13.59,2.73c4.8,2.8,10.48,7.9,14.36,12.1A39.76,39.76,0,0,1,87.6,39.92C89.13,43.3,90.12,46.73,91,49s1.67,3.32,6.41,6.49,13.42,8.44,22.87,15A207.43,207.43,0,0,1,150.82,96c10.86,11,22.37,25.27,27.41,34.91s-15.28.09-16.69,5.15c10.45,6.88,39.82,28.38,50.28,35.26-3.62-.43-7.24-.87-13.84-1.48s-16.19-1.4-23.67-3.42-12.84-5.28-18.63-6.62-12-.79-18.27-.06-12.57,1.62-17.44,2.16-8.31.72-13-.8-10.68-4.77-20-12a346.87,346.87,0,0,1-30.34-26.93c-8.33-8.47-12.28-14.15-15.09-20a59.63,59.63,0,0,1-5.38-19c-.92-7.21-1.1-15.68-2-21.62s-2.68-9.38-4.23-13.42A69.27,69.27,0,0,1,26.4,36,16.34,16.34,0,0,1,26.65,28.42Z"/>
        <path class="cls-11" d="M71.42,43.09a19.05,19.05,0,0,1,.83,7.42,12.2,12.2,0,0,1-2.39,6.66,9.32,9.32,0,0,1-5.46,3.19A11.54,11.54,0,0,1,58.53,60a9.19,9.19,0,0,1-4-2.75,46.9,46.9,0,0,1-3.4-4.51,36.14,36.14,0,0,0,8.6-4,28.53,28.53,0,0,0,5.86-6.09c1.38-1.83,2.15-3,3.07-2.94S70.71,41,71.42,43.09Z"/>
        <path class="cls-12" d="M58.46,36.17a15.67,15.67,0,0,1,6.87-.72A13.12,13.12,0,0,1,73,38.84a14,14,0,0,1,3.39,7.67,14.77,14.77,0,0,1-.35,5.89c-.37,1.46-.79,2.47-.54,3s1.14.52,2.81.07a25,25,0,0,0,6.25-2.7,40.6,40.6,0,0,0,6-4.86,51.47,51.47,0,0,0-2.29-7.3,41.38,41.38,0,0,0-5.25-9.33,58.46,58.46,0,0,0-9.24-9.49,46,46,0,0,0-10.46-6.83,19,19,0,0,0-9.77-1.48,61.7,61.7,0,0,0-11.33,2.29,52.63,52.63,0,0,0-8.51,3.19A16.56,16.56,0,0,0,29,22.2a8.31,8.31,0,0,0-2.12,3.61,10.58,10.58,0,0,0-.13,3.54c.69,4.88,1.38,9.76,2.84,14s3.68,7.75,5.21,8.9,2.37-.09,3.3-2.31,1.94-5.39,4.39-7.43,6.32-2.93,9.2-3.83S56.42,36.83,58.46,36.17Z"/>
        <path class="cls-9" d="M89.49,112.27c26.67,11.07,53.35,22.14,68.93,30.44S178.5,156.54,183,162.07c2.93-.41,15-.19,15.38-1.18s-23-14.16-25.17-15.73c8.21,4.64,28.51,19.69,36.72,24.33-7.59-9.46-12.75-18-20.34-27.46-12.9-6.8-28.27-13.95-44.54-18.85S109.13,115.27,89.49,112.27Z"/>
        <path class="cls-13" d="M100.28,112.47c9,4.26,18,8.52,28,12.52a291,291,0,0,0,32.06,10.75c11.07,3,22.21,5.21,28.17,6.17s6.72.65,7.17.05.59-1.5-2.16-3.24-8.38-4.35-20.83-7.77S141,123.3,127.93,118s-20-11.72-26.92-18.12Q100.65,106.16,100.28,112.47Z"/>
        <path class="cls-14" d="M103.32,104.88c9.35,5.79,18.69,11.59,33.44,16.92s34.9,10.21,44.16,12,7.61.62,4.13-1.74-8.79-5.88-20.86-11.54-30.92-13.43-49.76-21.21Z"/>
        <path class="cls-15" d="M115,100.3c11.69,5.89,23.37,11.77,33.42,16.39a244.51,244.51,0,0,0,23.67,9.65c5.2,1.7,7.21,1.76,7.89,1.47s0-1-5.23-4.79S159.6,112.17,151.86,107s-13.35-8.62-19-12Z"/>
        <path class="cls-16" d="M135.48,97.76C146,104.36,156.57,111,162.88,115s8.39,5.54,9.67,6.26,1.73.68,1.72.06-.47-1.84-4.33-6.19a161,161,0,0,0-16.32-16,26.37,26.37,0,0,0-11.54-5.79Z"/>
        <g>
          <path class="cls-17" d="M113.23,118.28l1.65-.92s46.78,21.81,74.43,22.66l5.44-.09s2.53,1.7-.19,2.36c0,0-6.61.15-32.34-6.31C162.22,136,137.11,130,113.23,118.28Z"/>
          <path class="cls-17" d="M110.87,103.72S126.77,122,181.4,132l4.07.56s2.22,1.53,2.2,1.78c0,0,.94,1.07-11.32-1.61,0,0-33.43-6.42-61.41-20.93l-8-7.07Z"/>
          <path class="cls-17" d="M179.12,126.74s-28.32-7.28-43.64-19l.11,2.58s26.45,12.92,35.18,15.55C170.77,125.91,183.06,129.34,179.12,126.74Z"/>
          <path class="cls-17" d="M173.28,121.64l-31.41-20,2.38-1.81,30,21.12S175,122.31,173.28,121.64Z"/>
        </g>
        <path class="cls-18" d="M30.86,28.07c1.22-.92,2-2.64,4.38-3.2s6.37.06,9.5.09A22.11,22.11,0,0,1,53,26.72,13.37,13.37,0,0,1,57.87,30a8.51,8.51,0,0,1,2.44,4.37,5.85,5.85,0,0,1-1.68,4.47,11.85,11.85,0,0,1-5.47,3.81C50.8,43.41,48,43.34,46,44a5,5,0,0,0-3.59,4,14.78,14.78,0,0,0,.51,7.56c.85,2.62,2.44,5,3.05,8.17a25.65,25.65,0,0,1-.62,10.54,22.06,22.06,0,0,1-3.78,8.22,16.1,16.1,0,0,1-4.93,4,65,65,0,0,1-1.49-8.18c-.46-3.79-.85-9.19-1.28-13.08a44.39,44.39,0,0,0-1.7-8.92c-.81-2.65-2-5.56-2.86-7.89s-1.48-4.07-1.94-5.69a15,15,0,0,1-.72-4.89,17.17,17.17,0,0,1,1.3-5.54A10,10,0,0,1,30.86,28.07Z"/>
        <path class="cls-19" d="M14.94,36a47.37,47.37,0,0,0,4.61,2.65,37.07,37.07,0,0,0,7.05,2.88,26,26,0,0,0,7.61,1,10.89,10.89,0,0,0,5.2-1.25,4.57,4.57,0,0,0,1.84-2.43,47.33,47.33,0,0,0-8.53-3.53,30.85,30.85,0,0,0-9.21-.9,70,70,0,0,0-8.72,1.07C14.5,35.49,14.2,35.5,14.94,36Z"/>
        <path class="cls-20" d="M91.7,50.48a9,9,0,0,1-3.4,5.13c-2.31,1.78-6.38,3.66-10,6.43s-6.67,6.45-7.93,10.33a13,13,0,0,0,.92,10.5,11,11,0,0,0,4.41,3.63c.17.2-2.13-.32-4.44-.85-.68.52-1.36,1-1.3,1.83a4.29,4.29,0,0,0,2.09,2.71,22.29,22.29,0,0,0,4.7,2.15,7.2,7.2,0,0,0-2.86,0c-.38.25.07.86.87,1.28a12.2,12.2,0,0,0,3.12.87c-1.37.36-2.74.72-3.41,1.72a3.74,3.74,0,0,0,.29,4,9.43,9.43,0,0,0,4.45,3.13,17.64,17.64,0,0,0,4.9.89c-1.08.18-2.17.36-2.23.69s.91.81,1.9,1.09a15.92,15.92,0,0,0,3.07.46c-.83,1.47-1.65,2.94.51,4.53s7.33,3.28,11.52,4.68,7.42,2.51,10,2.75a8.11,8.11,0,0,0,5.73-1.25c1.13-.9,1.4-2.08.84-3.89a31.91,31.91,0,0,0-2.94-5.91c-1-1.67-1.63-2.59-2.25-3.52,4,2.88,8.11,5.76,12.18,7.59a29.57,29.57,0,0,0,10.78,2.65c2.61,0,3.74-.64,4-1.42s-.33-1.67-.93-2.56c1.32.68,2.64,1.36,3.71,1.18A2.34,2.34,0,0,0,142,109c0-1.12-.9-2.33-1.77-3.54,1.78,1.25,3.55,2.5,5.18,2.67s3.11-.75,3.14-1.76-1.38-2.09-2.8-3.18c2,1.07,3.91,2.14,5.2,2.16a1.71,1.71,0,0,0,1.75-2.11,8.59,8.59,0,0,0-2.05-3.47,22.24,22.24,0,0,0,4.78,1.31c1,0,1.18-.53-3.8-5.28s-15.12-13.65-23-20.06A179,179,0,0,0,109.79,62C104.35,58.61,99,55.67,96,53.82S92.36,51.23,91.7,50.48Z"/>
        <g>
          <path class="cls-21" d="M42,30a5.75,5.75,0,0,0,2.7,7.64,5.69,5.69,0,0,0,7.74-2.28A5.88,5.88,0,0,0,42,30Z"/>
          <path class="cls-22" d="M43.25,30.61a4.6,4.6,0,0,0,8.17,4.19,4.51,4.51,0,0,0-2.11-6A4.45,4.45,0,0,0,43.25,30.61Z"/>
          <path class="cls-23" d="M43.28,29.67a2.07,2.07,0,1,0,2.83-1A2.14,2.14,0,0,0,43.28,29.67Z"/>
        </g>
        <path class="cls-24" d="M33.41,25.32a77.23,77.23,0,0,0-9.68,3.16,46.56,46.56,0,0,0-7.57,4.19c-1.83,1.24-2.77,2.07-2.9,2.48s.54.39,1.53.32a39.35,39.35,0,0,1,4.92-.1A91.51,91.51,0,0,1,30,36.4c3.8.62,7.52,1.53,11.23,2.43a8.17,8.17,0,0,0-2.63-3.71c-1.73-1.51-4.76-3.4-5.85-5.09S32.55,26.82,33.41,25.32Z"/>
        <path class="cls-25" d="M81.19,93.6a48,48,0,0,0,8.22,5,104.87,104.87,0,0,0,13,5.29c3.62,1.12,5.38,1.19,5.54.1s-1.26-3.31-.76-3.16,3,2.69,6.06,5.34a42,42,0,0,0,10.51,6.93,19.74,19.74,0,0,0,9.48,1.44c2.32-.27,3.46-1.05,3.48-1.87s-1.07-1.67-3.63-3.19-6.59-3.73-10.63-5.93l7.65,8.5-4.35-2.47a45.32,45.32,0,0,0-4.61-2.42c-.92-.32-.76.16-.58.6s.38.83-1.48-.58-5.78-4.61-9.84-7.35-8.25-5-12.44-7.33c.93,1.87,1.87,3.74,2.83,5.32s2,2.89,1.39,2.51-2.68-2.45-5.48-4.56-6.28-4.28-9.77-6.44c.38,1,.75,2.09,1.18,3.21A19.13,19.13,0,0,1,87.86,95a20.63,20.63,0,0,0-1.32-1.63,1.88,1.88,0,0,0-1.86-.6c-.38.21-.36.8-.73.33a8,8,0,0,0-2.24-2.6c-1.13-.6-2.62-.25-4.11.09A39.49,39.49,0,0,0,81.19,93.6Z"/>
        <path class="cls-17" d="M83.59,61.75a35.06,35.06,0,0,1,8.74,2.07c3.4,1.26,6.89,3.13,8.26,5.33s.63,4.75-.89,5.52-3.83-.22-6-2.09S89.29,68,87,66.08a25.93,25.93,0,0,0-7-3.88A6.63,6.63,0,0,1,83.59,61.75Z"/>
        <path class="cls-17" d="M103.52,73.48a26.1,26.1,0,0,1,8.08,2.86c3.3,1.79,6.78,4.51,8.23,7.07s.89,5-.47,5.59-3.48-.52-6.13-3.16-5.83-6.8-7.87-9-3-2.51-3.88-2.8C101.67,73.64,101.87,73.25,103.52,73.48Z"/>
        <path class="cls-17" d="M120,90.19a53.75,53.75,0,0,1,10.31,3.57c3,1.55,5.25,3.65,5.7,5.38s-.93,3.12-2.11,2.79-2.13-2.37-3.75-4.36a28.76,28.76,0,0,0-5.7-5.14A19.4,19.4,0,0,0,120,90.19Z"/>
        <path class="cls-17" d="M99.51,61.77a29.73,29.73,0,0,1,7.3,1.73c2.84,1,5.76,2.61,6.91,4.46s.53,4-.75,4.61-3.2-.18-5.06-1.75-3.64-3.86-5.53-5.43a21.54,21.54,0,0,0-5.88-3.24A5.55,5.55,0,0,1,99.51,61.77Z"/>
        <path class="cls-17" d="M116.62,72.78a26,26,0,0,1,8.08,2.87c3.3,1.78,6.77,4.51,8.23,7.07s.88,5-.47,5.58-3.49-.51-6.14-3.16-5.83-6.79-7.87-9-3-2.51-3.88-2.8C114.77,72.94,115,72.55,116.62,72.78Z"/>
        <path class="cls-17" d="M133.12,89.49a54.09,54.09,0,0,1,10.32,3.57c3,1.56,5.24,3.65,5.69,5.39s-.93,3.11-2.1,2.78-2.14-2.37-3.76-4.35a28.41,28.41,0,0,0-5.69-5.14A19.14,19.14,0,0,0,133.12,89.49Z"/>
        <path class="cls-17" d="M79.49,70.85a25.92,25.92,0,0,1,8.08,2.87c3.3,1.78,6.78,4.51,8.23,7.07s.89,4.95-.47,5.58-3.48-.51-6.14-3.16-5.82-6.79-7.87-9-2.95-2.51-3.87-2.8C77.64,71,77.84,70.62,79.49,70.85Z"/>
        <path class="cls-17" d="M99,84.91a54.09,54.09,0,0,1,10.32,3.57c3,1.55,5.24,3.65,5.69,5.38s-.93,3.12-2.1,2.79-2.14-2.37-3.76-4.36a28.72,28.72,0,0,0-5.69-5.14A19.44,19.44,0,0,0,99,84.91Z"/>
        <path class="cls-26" d="M55,66.3a8.13,8.13,0,0,1,8.7,4.5c1.88,3.85,1.67,10.38,2,17.46s1.13,14.71,5.42,20.88S83.19,120,91.4,123s16.86,4.07,23.43,9.38,11,14.8,9.78,20.11-8.32,6.42-16.93,3.81-18.81-9-28.55-16.64-19-16.7-25-25.27S45.6,97.68,45.27,90.6A38.91,38.91,0,0,1,48.7,73.29C50.52,69.12,52.21,66.85,55,66.3Z"/>
        <path class="cls-27" d="M76,55.71s6.92.08,14.61-7.83c0,0-3.66-13.34-7.6-16.36l-6.58,15a15.27,15.27,0,0,1-.58,6.76S74.92,55.7,76,55.71Z"/>
        <path class="cls-28" d="M26.66,27.35s-1-5.33,8.74-9.19c0,0,10.87-3.9,15.28-4.35,0,0,9.69-3.47,21.58,6.69l8.2,7.61L71.33,20.9S62,13.29,51.09,14.84C51.09,14.84,30.53,17.65,26.66,27.35Z"/>
        <path class="cls-29" d="M91.76,51a50.85,50.85,0,0,0,8.86,5.81s20.74,12,29,20l19.24,16.49s6.24,6,6.6,6.88c0,0,1.87,1.6-2.13.38,0,0-28.34-30.19-63.19-46.69C90.1,53.84,91,53.48,91.76,51Z"/>
      </g>
    </g>
  </g>
</svg>
