<svg id="Layer_1" data-name="Layer 1" xmlns="http://www.w3.org/2000/svg" xmlns:xlink="http://www.w3.org/1999/xlink" width="167.76" height="339.58" viewBox="0 0 167.76 339.58">
  <defs>
    <style>
      .cls-1 {
        fill: #ff0;
      }

      .cls-10, .cls-11, .cls-12, .cls-13, .cls-14, .cls-16, .cls-2, .cls-25, .cls-26, .cls-28, .cls-29, .cls-30, .cls-31, .cls-32, .cls-33, .cls-34, .cls-4, .cls-6, .cls-7, .cls-8, .cls-9 {
        isolation: isolate;
      }

      .cls-2 {
        fill: url(#linear-gradient);
      }

      .cls-3 {
        fill: url(#_5);
      }

      .cls-14, .cls-4 {
        opacity: 0.15;
      }

      .cls-4 {
        fill: url(#linear-gradient-2);
      }

      .cls-5 {
        fill: url(#_144);
      }

      .cls-11, .cls-12, .cls-13, .cls-16, .cls-26, .cls-29, .cls-31, .cls-6, .cls-9 {
        opacity: 0.2;
      }

      .cls-6 {
        fill: url(#linear-gradient-3);
      }

      .cls-28, .cls-33, .cls-7 {
        opacity: 0.6;
      }

      .cls-7 {
        fill: url(#linear-gradient-4);
      }

      .cls-8 {
        fill: #fff;
        opacity: 0.1;
      }

      .cls-9 {
        fill: url(#linear-gradient-5);
      }

      .cls-10, .cls-25, .cls-30 {
        opacity: 0.4;
      }

      .cls-10 {
        fill: url(#linear-gradient-6);
      }

      .cls-11 {
        fill: url(#linear-gradient-7);
      }

      .cls-12 {
        fill: url(#linear-gradient-8);
      }

      .cls-13 {
        fill: url(#linear-gradient-9);
      }

      .cls-14 {
        fill: url(#linear-gradient-10);
      }

      .cls-15 {
        fill: url(#linear-gradient-11);
      }

      .cls-16 {
        fill: url(#linear-gradient-12);
      }

      .cls-17 {
        fill: #608298;
      }

      .cls-18 {
        fill: #570f17;
      }

      .cls-19 {
        fill: #191919;
      }

      .cls-20 {
        fill: url(#_144-2);
      }

      .cls-21 {
        fill: #9e8e32;
      }

      .cls-22 {
        fill: #f4dd6a;
      }

      .cls-23 {
        fill: url(#_5-2);
      }

      .cls-24 {
        fill: url(#_144-3);
      }

      .cls-25 {
        fill: url(#linear-gradient-13);
      }

      .cls-26 {
        fill: url(#linear-gradient-14);
      }

      .cls-27 {
        fill: url(#linear-gradient-15);
      }

      .cls-28 {
        fill: url(#linear-gradient-16);
      }

      .cls-29 {
        fill: url(#linear-gradient-17);
      }

      .cls-30 {
        fill: url(#linear-gradient-18);
      }

      .cls-31 {
        fill: url(#linear-gradient-19);
      }

      .cls-32, .cls-34 {
        opacity: 0.3;
      }

      .cls-32 {
        fill: url(#linear-gradient-20);
      }

      .cls-33 {
        fill: url(#linear-gradient-21);
      }

      .cls-34 {
        fill: url(#linear-gradient-22);
      }
    </style>
    <linearGradient id="linear-gradient" x1="-4.96" y1="166.39" x2="182.26" y2="176.52" gradientUnits="userSpaceOnUse">
      <stop offset="0" stop-color="#fff"/>
      <stop offset="0.07" stop-color="#fff"/>
      <stop offset="0.52" stop-color="#fff"/>
      <stop offset="0.93" stop-color="#fff"/>
      <stop offset="1" stop-color="#fff"/>
    </linearGradient>
    <linearGradient id="_5" data-name="   5" x1="1292.17" y1="-9649.63" x2="1403.16" y2="-9648.79" gradientTransform="matrix(1, 0, 0, -1, -1290.24, -9440.85)" gradientUnits="userSpaceOnUse">
      <stop offset="0" stop-color="#7a7a80"/>
      <stop offset="1" stop-color="#2a2829"/>
    </linearGradient>
    <linearGradient id="linear-gradient-2" x1="1374.03" y1="-9640.23" x2="1394.39" y2="-9640.23" gradientTransform="matrix(1, 0, 0, -1, -1290.24, -9440.85)" gradientUnits="userSpaceOnUse">
      <stop offset="0" stop-color="#fff"/>
      <stop offset="1" stop-color="#fff"/>
    </linearGradient>
    <linearGradient id="_144" data-name="   144" x1="1314.18" y1="-9752.21" x2="1380.33" y2="-9751.89" gradientTransform="matrix(1, 0, 0, -1, -1290.24, -9440.85)" gradientUnits="userSpaceOnUse">
      <stop offset="0" stop-color="#facc1f"/>
      <stop offset="1" stop-color="#da9828"/>
    </linearGradient>
    <linearGradient id="linear-gradient-3" x1="1332.07" y1="-9742.57" x2="1399.49" y2="-9740.59" xlink:href="#linear-gradient-2"/>
    <linearGradient id="linear-gradient-4" x1="1316.48" y1="-9745.72" x2="1381.71" y2="-9745.56" xlink:href="#linear-gradient-2"/>
    <linearGradient id="linear-gradient-5" x1="10765.45" y1="-9508.77" x2="10674.62" y2="-9510.5" gradientTransform="translate(10682.58 -9505.08) rotate(179.39)" xlink:href="#linear-gradient-2"/>
    <linearGradient id="linear-gradient-6" x1="1308.43" y1="-9579.25" x2="1308.65" y2="-9724.81" gradientTransform="matrix(1, 0, 0, -1, -1290.24, -9440.85)" gradientUnits="userSpaceOnUse">
      <stop offset="0" stop-color="#fff"/>
      <stop offset="0.86" stop-color="#fff"/>
      <stop offset="1" stop-color="#fff"/>
    </linearGradient>
    <linearGradient id="linear-gradient-7" x1="1392.4" y1="-9579.03" x2="1392.62" y2="-9724.59" xlink:href="#linear-gradient-6"/>
    <linearGradient id="linear-gradient-8" x1="1392.44" y1="-9579.03" x2="1392.66" y2="-9724.59" xlink:href="#linear-gradient-6"/>
    <linearGradient id="linear-gradient-9" x1="1328.82" y1="-9746.35" x2="1328.74" y2="-9764.21" gradientTransform="matrix(1, 0, 0, -1, -1290.24, -9440.85)" xlink:href="#linear-gradient"/>
    <linearGradient id="linear-gradient-10" x1="1387.53" y1="-9740.04" x2="1387.42" y2="-9763.03" xlink:href="#linear-gradient-2"/>
    <linearGradient id="linear-gradient-11" x1="1294.61" y1="-9738.12" x2="1340.37" y2="-9741.04" gradientTransform="matrix(1, 0, 0, -1, -1290.24, -9440.85)" gradientUnits="userSpaceOnUse">
      <stop offset="0" stop-color="#d02727"/>
      <stop offset="1" stop-color="#670918"/>
    </linearGradient>
    <linearGradient id="linear-gradient-12" x1="1328.96" y1="-9519.16" x2="1328.56" y2="-9742.97" gradientTransform="matrix(1, 0, 0, -1, -1290.24, -9440.85)" xlink:href="#linear-gradient"/>
    <linearGradient id="_144-2" x1="102.21" y1="153.64" x2="151.67" y2="153.64" gradientTransform="matrix(1, 0, 0, 1, 0, 0)" xlink:href="#_144"/>
    <linearGradient id="_5-2" x1="1306.64" y1="-9497.76" x2="1390.18" y2="-9493.95" xlink:href="#_5"/>
    <linearGradient id="_144-3" x1="1319.29" y1="-9524.38" x2="1372.26" y2="-9523.08" xlink:href="#_144"/>
    <linearGradient id="linear-gradient-13" x1="1332.6" y1="-9515.09" x2="1332.32" y2="-9534.02" gradientTransform="matrix(1, 0, 0, -1, -1290.24, -9440.85)" xlink:href="#linear-gradient"/>
    <linearGradient id="linear-gradient-14" x1="1334.43" y1="-9458.7" x2="1332.35" y2="-9510.63" gradientTransform="matrix(1, 0, 0, -1, -1290.24, -9440.85)" xlink:href="#linear-gradient"/>
    <linearGradient id="linear-gradient-15" x1="1307.35" y1="-9514.51" x2="1369.95" y2="-9513.58" xlink:href="#linear-gradient-11"/>
    <linearGradient id="linear-gradient-16" x1="1317.99" y1="-9514.88" x2="1376.7" y2="-9514.88" xlink:href="#linear-gradient-2"/>
    <linearGradient id="linear-gradient-17" x1="1320.41" y1="-9512.35" x2="1378.24" y2="-9512.35" xlink:href="#linear-gradient-2"/>
    <linearGradient id="linear-gradient-18" x1="1318.44" y1="-9488.06" x2="1322.39" y2="-9488.06" xlink:href="#linear-gradient-6"/>
    <linearGradient id="linear-gradient-19" x1="11550.36" y1="1111.58" x2="11554.32" y2="1111.58" gradientTransform="matrix(-0.99, 0.13, 0.13, 0.99, 11406.78, -2521.14)" xlink:href="#linear-gradient-6"/>
    <linearGradient id="linear-gradient-20" x1="1341.44" y1="-9459.29" x2="1380.88" y2="-9459.41" xlink:href="#linear-gradient-2"/>
    <linearGradient id="linear-gradient-21" x1="1317.76" y1="-9524.49" x2="1319.1" y2="-9524.42" gradientTransform="matrix(1, 0, 0, -1, -1290.24, -9440.85)" xlink:href="#linear-gradient"/>
    <linearGradient id="linear-gradient-22" x1="10908.23" y1="1464.97" x2="10909.56" y2="1465.04" gradientTransform="matrix(-1, 0, 0, 1, 11000.04, -1381.84)" xlink:href="#linear-gradient"/>
  </defs>
  <g>
    <path class="cls-1" d="M124.63,201.18l2.07-.76,1.08-.38,4.59-1.62c3.15-1.1,6.12-2.14,8.38-3a39.47,39.47,0,0,0,9.21-4.79,21.4,21.4,0,0,0,2-1.64,18.89,18.89,0,0,0,1.69-1.79,20.24,20.24,0,0,0,3-4.83,15.88,15.88,0,0,0,1.07-6.91c0-1.11-.11-2.37-.26-3.85-.4-3.8-1.18-8.46-2.17-14.35-.59-3.53-1.26-7.53-1.93-11.89-1.56-10-2.71-21.91-3.64-31.45s-1.4-14.2-2-16.43a23.65,23.65,0,0,0-2.12-5.31,23.36,23.36,0,0,0-4.15-5.52l-.18-.18a21.54,21.54,0,0,0-3.42-2.66c-1.69-1.06-4.62-2.28-12.42-2.4h-1.27c-1,0-1.89,0-2.7,0-1.52,0-2.66.11-3.09.14a9.9,9.9,0,0,0-1.63.17l-.36.07a9.31,9.31,0,0,0-1.94.67l-.26.14a8.06,8.06,0,0,0-1.77,1.23,1.8,1.8,0,0,0-.21.19,8.8,8.8,0,0,0-1.68,2.29l-12,0-.08-2.72-.11-3.28L98,72.88C97.87,71,97.78,69,97.67,67V66.8l-6,.33,6-.44c-.11-2-.22-4.14-.34-6.26l-6,.34,6-.45c-.12-2.11-.25-4.24-.38-6.37l0-.34s-.3-4.81-.39-6.17l-.14-2.12s-.2-2.89-.29-4.16L95.78,37s-.3-3.81-.3-3.81c-.09-1.11-.18-2.16-.27-3.18l-.15-1.53-.15-1.59s-.14-1.3-.14-1.3L94.6,24.1c-.09-.76-.17-1.44-.26-2.07,0,0-.17-1.11-.17-1.11,0-.29-.1-.57-.15-.81v-.05c-.05-.28-.11-.52-.17-.77l0-.19c-.06-.25-.13-.47-.18-.63l-.11-.31a6.67,6.67,0,0,0-.86-1.61l-.1-.15a8.85,8.85,0,0,0-1.24-1.29l-.42-.33a10,10,0,0,0-1-.68c-.1-.07-.2-.12-.34-.2a14.4,14.4,0,0,0-1.3-.63l-.35-.14-1-.35-.45-.15c-.4-.12-.81-.25-1.26-.37l-.14,0c-.39-.1-.79-.2-1.22-.29l-1.31-.27c-.62-.12-1.28-.24-2-.35l-.38-.06-1.12-.17-.6-.07-1.73-.21-.9-.09-1-.1-1.72-.13-.84-.06-1.54-.1-.67,0c-.7,0-1.42-.07-2.15-.09l-.68,0-2.11-.05h-.37l-2.52,0H61.6c-.89,0-1.79,0-2.7,0l-3,.05c-3,.07-5.75.18-8.19.34l-2.45.17c-11.6.93-17,2.92-19.42,7.07a.54.54,0,0,1-.07.13,8.13,8.13,0,0,0-.52,1.23l-.07.23c-.05.17-.1.36-.17.63l0,.18c0,.18-.09.38-.13.59,0,0,0,.16,0,.2,0,.23-.09.48-.13.75l-.13.85-.13.93-.17,1.39L24.13,26l-.27,2.64-.28,3.17-.42,5.33L22.88,41l-.27,3.93-.39,6.34L22,55.62s-.26,4.93-.26,4.93-.21,4.32-.27,5.66l-.09,2s-.12,2.91-.17,4.19L21,76.7s-.1,3.86-.1,3.86,0,2.08,0,2.08,0,1.3,0,1.3l0,1.58v2.16a6.5,6.5,0,0,0-1.39,1.08,6.78,6.78,0,0,0-2,4.86,6.62,6.62,0,0,0,.36,2.19c-.06.1-.55,1.06-.55,1.06l-.6,1.23L16,99.5l-.52,1.2c-.27.62-.53,1.25-.79,1.89l0,0c-.27.65-.53,1.31-.78,2,0,0-.37,1-.37,1l-.36,1c-.23.65-.46,1.3-.67,1.94,0,0-.32,1-.33,1-.13.4-.25.79-.38,1.24l-.08.25c-.12.4-.23.8-.33,1.18,0,0-.17.6-.23.87-.22.86-.39,1.65-.52,2.35l-.06.37c0,.14,0,.31-.06.5,0,0,0,.48,0,.71,0,0-.05.85-.05.85l0,.84,0,1.07-.06,2.3-.06,3.43s-.08,7.82-.08,7.82l-.05,10,0,11.36v19.76l.06,21.39.14,26.49s0,7.67,0,7.69c0,7.45.1,14.79.16,21.88l6-.07-6,.17c0,3.51.13,13.79.13,13.79.14,13.88.29,25.22.45,33.73,0,.11,0,.21,0,.31.06,3.65.13,6.8.2,9.34,0,.89.05,1.7.07,2.44s.05,1.36.07,1.91l0,.84c0,.53,0,1,.08,1.34s0,.44,0,.6a8.43,8.43,0,0,0,.26,1.56,9.54,9.54,0,0,0,3.2,4.76,18.18,18.18,0,0,0,5.21,2.87l.67.24a59.41,59.41,0,0,0,11.24,2.45l.38.05A198.14,198.14,0,0,0,57,329.49h3l2.15,0,2.47,0,2.4-.06,2.39-.08,2.29-.09,2.25-.11,2.18-.13,2.13-.15,2.07-.16,2-.18,2.37-.24,1.57-.17,1.83-.23-.82-5.95,1,5.92,1.52-.21.14,0,1.54-.24,1.63-.28,1.37-.27,1.32-.28,1.29-.3.67-.17.53-.14.61-.17.57-.17.57-.18.51-.16.59-.21.44-.17.56-.22.41-.17.58-.26c.19-.08.36-.17.5-.24l.46-.24.53-.3.42-.26.54-.37.39-.29c.18-.14.34-.28.52-.44s.26-.23.42-.39a6.59,6.59,0,0,0,.49-.54c.12-.13.27-.31.36-.43a8.37,8.37,0,0,0,.82-1.32,7.59,7.59,0,0,0,.68-2.29c0-.09,0-.19,0-.34s0-.26,0-.49v0q.06-.62.12-1.44l.06-.95.09-1.95.18-5.83.13-7.2v-.38l0-3.6.08-8.12-6,0,6-.08c0-1.85,0-3.76,0-5.77l0-3.44c0-3.1,0-6.33,0-9.61,0,0,0-3.71,0-3.71,0-3.42,0-6.94,0-10.54v-.16c0-4.83,0-9.81,0-14.87l0-13.08.5-.11.46-.11.31-.08.58-.16.27-.09c.29-.09.55-.19.76-.27l.26-.11c.26-.11.5-.23.74-.36l.26-.13a7.77,7.77,0,0,0,1.16-.81,6.28,6.28,0,0,0,1.47-1.77c.09-.16.19-.35.27-.52s.23-.54.33-.83c0-.08.08-.25.1-.32.06-.23.12-.47.17-.72a4.17,4.17,0,0,0,.09-.46l.37-.34c.8-.8,2.94-2.94,2.11-12.24l0-.15a13.85,13.85,0,0,0-.49-2.79l1-.42C122,202.16,123.29,201.68,124.63,201.18Zm-9-19.71-5.78,2.32-.08-10.74-6,.06,6-.19-.06-6.86-.12-12.58-.11-9.33-.13-10.42-.1-6.61-6,.12,6-.23-.09-5-.1-3.69-.06-1.61s0-.61,0-.61,0-.09,0-.14c0-.27,0-.49-.07-.65s-.07-.47-.12-.74-.14-.68-.24-1c0-.06-.17-.68-.17-.68l-.2-.72-.24-.8-.32-1-5.71,1.87,5.66-2-.13-.4-.4-1.15c-.21-.6-.44-1.22-.68-1.84l-.15-.41-.71-1.81-.57-1.39-.6-1.4-.72-1.6,8.47,0s.14.21.14.21q.15.24.3.45l.19.26c.09.13.19.25.32.41l.2.24c.11.13.22.26.36.4l.23.24.38.36.36.3c.17.13.34.26.54.39l.38.25a8.17,8.17,0,0,0,1.27.61,10.9,10.9,0,0,0,1.76.45l.27,0a21.48,21.48,0,0,0,2.64.2l2.16,0,1.17,0,.79,0,.62.06s.22.89.27,1.11c0,0,.14.61.2.9l.2.91c.13.64.26,1.32.4,2,.33,1.79.69,3.87,1.06,6.19l.29,1.84.37,2.44c.18,1.2.36,2.44.54,3.7l0,.29c.35,2.51.71,5.13,1.05,7.79,0,0,.39,3,.56,4.38.13,1.11.27,2.22.4,3.32l.41,3.44.2,1.69c.13,1.11.56,4.94.56,4.94l.64,6.05L134,163l.46,5.26s.21,2.78.23,3.19l.09,1.44-.41.23-1,.52-1,.49-1.33.65-1.44.68-1.22.55-1.58.71-1.45.64-1.62.7-1.72.73-1.49.62Z"/>
    <g>
      <path class="cls-2" d="M147.37,146.27c-2.86-18.47-4.4-43.09-5.5-47.27a17.18,17.18,0,0,0-7.25-10.12c-3.52-2.19-16.06-1.32-16.06-1.32-2.57,0-3.32,1.91-3.15,4.14h0v0c0,.19,0,.39.07.59l-24,.11.28,0h.09l.38-.08,0,0a.43.43,0,0,0,.17-.09.34.34,0,0,0,0-.15.19.19,0,0,0,0-.08c0-.06,0-.13,0-.22s0-.07,0-.11,0-.27,0-.45v0c0-.16,0-.35,0-.55v-1c0-.26,0-.53,0-.83v-.13c0-.27,0-.55,0-.85,0-.1,0-.2,0-.3,0-.26,0-.54,0-.82,0-.1,0-.21,0-.32,0-.37,0-.77,0-1.17,0-.06,0-.13,0-.19l0-1.11c0-.14,0-.28,0-.41,0-.33,0-.66,0-1,0-.14,0-.28,0-.43q0-.7-.06-1.44c0-.1,0-.2,0-.3,0-.41,0-.82,0-1.24,0-.17,0-.34,0-.51,0-.42,0-.85,0-1.28,0-.12,0-.24,0-.36,0-.55,0-1.12-.07-1.7,0-.1,0-.21,0-.31,0-.49,0-1-.07-1.47V73.2h0c-.09-1.93-.19-4-.3-6v-.09c-.11-2-.22-4.15-.34-6.28v-.19c-.12-2.11-.25-4.24-.38-6.36v-.2l-.12-2v-.15c-.09-1.41-.18-2.82-.27-4.21V47.6c0-.67-.09-1.33-.13-2v-.08c-.09-1.35-.18-2.68-.28-4l0-.29c0-.56-.08-1.1-.12-1.64l0-.27c-.09-1.23-.18-2.43-.27-3.59l0-.31L89.52,34l0-.29q-.14-1.65-.27-3.15l0-.3c0-.41-.07-.81-.11-1.2l0-.25c-.09-.93-.18-1.8-.27-2.6l0-.25c0-.33-.08-.64-.11-.95a1.49,1.49,0,0,1,0-.21c-.09-.72-.17-1.36-.25-1.93l0-.21c0-.21-.06-.42-.09-.61l0-.17c-.08-.47-.16-.85-.23-1.15l0-.11a1.58,1.58,0,0,0-.08-.28l0-.08a.93.93,0,0,0-.1-.22h0a1.8,1.8,0,0,0-.39-.39l-.14-.12-.45-.3-.16-.09c-.22-.12-.47-.24-.74-.36l-.22-.08L85,18.45l-.3-.1-1-.3-.1,0-1-.24h0C77.5,16.64,69.29,16,59,16.1c-16,.22-26.17,1.54-27.93,4.62C29.92,22.7,28,52,27.19,72.58h0c0,.15,0,.3,0,.44h0v0c0,.14,0,.28,0,.42h0L27.1,75v.1c0,.63,0,1.24-.06,1.84v.36c0,.49,0,1,0,1.44,0,.12,0,.25,0,.37,0,.56,0,1.11-.05,1.64V81c0,.44,0,.86,0,1.28,0,.16,0,.31,0,.47,0,.45,0,.9,0,1.33v.1c0,.47,0,.92,0,1.35V87.2c0,.38,0,.75,0,1.1v.24c0,.27,0,.52,0,.77v.3c0,.28,0,.55,0,.79v.08c0,.26,0,.5,0,.72,0,.06,0,.12,0,.18s0,.32.05.46,0,.09,0,.13.05.31.07.43a.64.64,0,0,0,0,.07,2.18,2.18,0,0,0,.06.22s0,0,0,0H24.34a.88.88,0,1,0,0,1.76H26c-1.34,1-3.22,4.53-5,8.59-.51,1.19-1,2.44-1.49,3.68q-.36.93-.69,1.86c-.22.61-.43,1.22-.63,1.82-.1.29-.19.59-.28.88-.28.87-.53,1.71-.75,2.49-.28,1-.5,2-.64,2.79-.91,5.29-.31,136.09.55,182.85v.28h0c.17,9.72.36,15.85.55,16.53,1.1,4,12.75,7.25,39.36,7.25,14,0,25.51-.79,33.56-2.12h0c.83-.14,1.62-.29,2.38-.44l.23,0c.73-.15,1.43-.3,2.09-.46l.23-.05c.65-.16,1.25-.32,1.82-.49l.22-.07c.56-.16,1.07-.33,1.55-.51l.19-.07a13.21,13.21,0,0,0,1.29-.54l.15-.07c.38-.19.73-.38,1-.57l.09-.07a5.47,5.47,0,0,0,.76-.61l0,0a2.81,2.81,0,0,0,.49-.66.66.66,0,0,0,.07-.2v0a13.64,13.64,0,0,0,.21-1.89c0-.22,0-.47,0-.73s0-.23,0-.37,0-.26,0-.39,0-.37,0-.58,0-.28,0-.42l0-.69v-.05c0-.37,0-.75,0-1.16,0-.13,0-.27,0-.41,0-.3,0-.6,0-.92v0c0-.91.06-1.88.08-2.92,0-.19,0-.38,0-.57l0-1.08v-.34q0-.69,0-1.41v-.2c0-.54,0-1.08,0-1.65v-.13c0-.57,0-1.15,0-1.75h0v-.06h0v-.34h0c0-.48,0-1,0-1.45s0-.82,0-1.23,0-1,0-1.48,0-.88,0-1.33,0-1,0-1.56,0-.91,0-1.38,0-1.13,0-1.7,0-.89,0-1.35c0-.91,0-1.84,0-2.78,0-.17,0-.33,0-.5,0-1,0-2,0-3v-1.68c0-.61,0-1.21,0-1.83s0-1.05,0-1.58,0-1.27,0-1.91v-1.77c0-.6,0-1.2,0-1.8v-1.87c0-.69,0-1.38,0-2.07v-15c0-.72,0-1.45,0-2.18v-6.09c0-.71,0-1.42,0-2.13v-2q0-4.09,0-8.27c0-.55,0-1.11,0-1.66,0-.88,0-1.76,0-2.64v-1.53c0-1,0-1.92,0-2.89v-1.93h0l.4.08h0c2.22.31,6-.38,7-1.19.4-.33.53-1.88.55-3.94A4.92,4.92,0,0,0,114,214c.66-.66.66-8.14,0-9.46a3.66,3.66,0,0,0-2.15-1.42,10.6,10.6,0,0,1,.17-2.32c.66-2.42,18.69-7.91,26.6-11s10.78-5.94,12.54-9.9S150.23,164.74,147.37,146.27ZM100.25,107.6c-.08-.21-.17-.43-.26-.64-.14-.37-.29-.73-.44-1.09l-.06-.16c-.08-.18-.16-.35-.23-.53l-.44-1c-.11-.24-.22-.48-.32-.72l-.45-1-.12-.29-.21-.42c-.14-.31-.29-.62-.44-.92l-.16-.34c-.06-.12-.12-.22-.17-.34l-.44-.86c-.12-.21-.23-.42-.34-.63s-.28-.52-.43-.77l-.21-.38-.11-.18c-.14-.24-.28-.46-.42-.68l-.3-.47c-.14-.21-.28-.39-.42-.57s-.14-.22-.21-.3l0-.06c-.15-.18-.28-.32-.42-.46s-.14-.16-.21-.22a2.13,2.13,0,0,0-.54-.39l23-.11a.78.78,0,0,0,.05.14c.07.23.15.45.23.68s.1.25.16.37.17.41.26.6.12.24.18.36.2.36.3.52l.19.32c.11.16.21.3.32.44a2.73,2.73,0,0,0,.2.25,4,4,0,0,0,.34.36l.17.16a2.07,2.07,0,0,0,.5.3,13.58,13.58,0,0,0,4,.36,37.31,37.31,0,0,1,4.2.19,13.49,13.49,0,0,1,1.61.3,7.23,7.23,0,0,1,2.12.91,1.18,1.18,0,0,1,.32.4,18.4,18.4,0,0,1,1.29,4.17c.07.29.14.59.21.91.54,2.51,1.12,5.75,1.72,9.46.22,1.39.44,2.84.67,4.35.74,5,1.5,10.63,2.2,16.3l.42,3.41c.14,1.13.27,2.27.4,3.39.07.57.13,1.13.2,1.69.13,1.12.25,2.24.38,3.34l.18,1.64c.9,8.17,1.61,15.56,2,20.44.07,1,.12,1.86.16,2.62a17.16,17.16,0,0,1,0,3.3c-.55,2.06-14.07,7.73-24.67,12l-1.56.63-3,1.19c-1.88.75-3.54,1.41-4.86,2-1,.4-1.79.74-2.35,1l-.46.22c0-.94,0-1.87,0-2.8,0-.42,0-.84,0-1.26,0-1.09,0-2.18,0-3.26v-.87c0-1.25,0-2.48,0-3.7,0-.31,0-.62,0-.93,0-1.2,0-2.38,0-3.56,0-.48,0-.94,0-1.42,0-.79,0-1.58,0-2.36,0-.63,0-1.25,0-1.88s0-1.32,0-2,0-1.25,0-1.87,0-1.31,0-2,0-1.14,0-1.7c0-.74,0-1.47,0-2.2,0-.5,0-1,0-1.49,0-.84,0-1.67,0-2.49,0-.52,0-1,0-1.54,0-1,0-2,0-2.94,0-.32,0-.63,0-1,0-.76,0-1.52,0-2.27,0-.53,0-1.05,0-1.57s0-1,0-1.55,0-1.14,0-1.71c0-.42,0-.83,0-1.25,0-.59,0-1.18,0-1.76s0-.87,0-1.3,0-1,0-1.53c0-1.84,0-3.6-.07-5.25,0-.31,0-.6,0-.91,0-.52,0-1.05,0-1.55,0-.33,0-.64,0-1s0-.92,0-1.37,0-.59,0-.88,0-.81,0-1.2,0-.63,0-.93,0-.72,0-1.06,0-.54,0-.79c0-1.18,0-2.23-.07-3.15,0-.17,0-.31,0-.47s0-.55,0-.8,0-.33,0-.49,0-.43,0-.62,0-.25,0-.37,0-.35,0-.51,0-.2,0-.28,0-.28,0-.39a.91.91,0,0,0,0-.17q0-.23,0-.33a12,12,0,0,0-.28-1.34v0a4.94,4.94,0,0,0-.13-.48c0-.13-.06-.24-.09-.38l-.06-.17c-.07-.25-.15-.51-.23-.78s-.12-.38-.18-.59-.21-.61-.31-.92l-.2-.59q-.27-.78-.57-1.59v0l-.13-.34C100.59,108.49,100.43,108.05,100.25,107.6Z"/>
      <g>
        <g>
          <path class="cls-3" d="M26.66,94.16s63.32-1.32,66.18,0,9.45,17.37,10.11,22,2.2,195.91.22,199.87-19.79,7-46.39,7-38-3.29-39.14-7.25S15.44,123,16.54,116.59,24,94.38,26.66,94.16Z"/>
          <path class="cls-4" d="M103.82,303.93c.91-42.74-.3-183.82-.87-187.78-.66-4.62-7.25-20.67-10.11-22-.62-.28-4-.44-9-.52,1.6,4.82,7.35,22.25,7.63,24.81.32,3-1.17,186.68-1.17,186.68Z"/>
          <path class="cls-5" d="M17.64,316.24c1.1,4,12.75,7.25,39.36,7.25s44.19-2.85,46.17-6.81c.36-.71.6-7.42.75-18-2.11,1.49-11.12,6-43.18,6.34-32.4.38-41.83-4.18-43.65-5.31C17.26,309.43,17.45,315.56,17.64,316.24Z"/>
          <path class="cls-6" d="M18.52,299.31s5.28,4.18,32.76,5.06,43.32-3.08,49-5.06c0,0-16.93,4.4-42.65,4S18.08,297.77,18.52,299.31Z"/>
          <path class="cls-7" d="M20.39,302.28s8.35,4,38.26,4.17,41.22-4.72,41.22-4.72-11,5.27-38.47,5.93S23.36,304.81,20.39,302.28Z"/>
          <path class="cls-8" d="M92.84,94.16c-2.86-1.32-66.18,0-66.18,0-2.64.22-9,16-10.12,22.43,1.54,2.86,9.24,2.64,30.34,3.52s52.12-2,54.75-3.08c.7-.29,1-1.14,1-2.24C101.23,109,95.46,95.37,92.84,94.16Z"/>
          <path class="cls-9" d="M101.41,116.82s-6.82,2.3-37.82,3.07-43.31-2.64-43.31-2.64A517.09,517.09,0,0,0,101.41,116.82Z"/>
          <path class="cls-10" d="M18.08,137.92l.08,4.5.06,4.5.13,9,.18,18c.07,6,.08,12,.11,18l.1,18,0,18v18l-.07,18-.07,9,0,4.5-.05,4.5-.08-4.5-.06-4.5-.13-9-.18-18,0-4.5,0-4.5-.05-9-.09-18v-18c0-6,0-12,0-18l.07-18,.07-9,0-4.5Z"/>
          <path class="cls-11" d="M101.84,191.93a8.6,8.6,0,0,1,.8-.67c0-5.86,0-11.71-.12-17.56l-.18-18-.12-9-.07-4.5-.08-4.5,0,4.5,0,4.5-.08,9-.06,18c0,6,0,12,0,18Z"/>
          <path class="cls-12" d="M102.75,227.71v-4.46c-.28-.31-.56-.64-.82-1l0,5.44,0,9,0,4.5,0,4.5.17,18,.13,9,.06,4.5.08,4.5.06-4.5,0-4.5.07-9,.07-18,0-4.5v-13.5Z"/>
          <path class="cls-13" d="M27.42,305.08s-.11,13.8.33,14.9,20.67,3.51,21.33,2.64.66-15.84.66-15.84Z"/>
          <path class="cls-14" d="M103.17,316.68c.36-.71.6-7.4.75-17.94l-.17.06c-1.24.82-4.34,2.37-11.39,3.71l-1.67.55s.35,16.26-.13,18.31C97.8,320.18,102.24,318.55,103.17,316.68Z"/>
          <path class="cls-15" d="M103.92,298.35a.42.42,0,0,0-.19.06c-1.06.75-3.81,2.21-10.23,3.54-8,1.67-19,2.59-32.77,2.75-32.64.37-41.94-4.33-43.47-5.27a.34.34,0,0,0-.17-.05c0,.24,0,.49,0,.72,2.42,1.41,11.67,5.28,39.92,5.28l3.72,0c13.76-.15,24.83-1.08,32.89-2.75,6.18-1.28,9-2.7,10.28-3.51C103.91,298.85,103.91,298.6,103.92,298.35Z"/>
          <path class="cls-16" d="M36.77,96.8s-8.67,18.94-9.39,22.77-1.82,177.32-.07,179.52,19,5,21,2.83-2.56-177.2-1.46-181.81,4.62-22,3.74-23.31C49.08,94.49,36.77,96.8,36.77,96.8Z"/>
        </g>
        <path class="cls-17" d="M24.35,94.49a.88.88,0,1,1,0-1.76h0l93.89-.44h0a.88.88,0,1,1,0,1.76l-93.89.44Z"/>
        <g>
          <path class="cls-18" d="M103.92,193c-.19-.1-.61-.1-1.41.8-1.76,2-1.32,25.72-.44,27.26a2.61,2.61,0,0,0,2,1.3C104,212.5,104,202.58,103.92,193Z"/>
          <path class="cls-19" d="M110.43,202.78s2.86.44,3.52,1.76.66,8.8,0,9.46-4.4,1.09-4.4,1.09Z"/>
          <path class="cls-20" d="M118.56,87.56s12.54-.87,16.06,1.32A17.18,17.18,0,0,1,141.87,99c1.1,4.18,2.64,28.8,5.5,47.27s5.5,29.69,3.74,33.64-4.62,6.82-12.54,9.9-25.94,8.57-26.6,11,.88,16.71-.44,17.81-7.92,2-8.58.44-1.54-24.84.66-26.16,36.28-13.86,37.16-17.15-6.81-73.22-10.11-75.42-9.46-.88-11.88-1.76S112.63,87.56,118.56,87.56Z"/>
          <path class="cls-21" d="M143.19,179.47C145.83,175.3,135.5,103,133.08,99s-11-2.2-14.08-3.08c-2-.58-3.1-2.79-3.6-4.22.22,2.9,2,6.36,3.38,6.86,2.42.88,8.58-.44,11.88,1.76s11,72.12,10.11,75.42-35,15.83-37.16,17.15-1.32,24.62-.66,26.16c.18.41.78.65,1.58.76-.89-2.67-2-18.53-1.14-21.65C104.27,194.87,141,183,143.19,179.47Z"/>
          <path class="cls-22" d="M110.21,214.65s-1.32-14.07.22-15.83,31.66-11.43,35.62-14.29c0,0-1.54,2.42-14.51,7s-19.79,7-20.23,8.35S110.21,214.65,110.21,214.65Z"/>
          <path class="cls-22" d="M141,100.32s-2.64-9.9-8.35-11.22c-4.12-.95-16-1.75-15.83.44s13.5.43,16.71,1.76C136.15,92.4,140.11,97.9,141,100.32Z"/>
          <path class="cls-22" d="M135.28,102.3c-.11.42,9.89,57.17,9.45,74.76,0,0,1.76-5.72-.66-26.17S135.5,101.42,135.28,102.3Z"/>
        </g>
        <g>
          <path class="cls-23" d="M27.32,92.84s64.2.66,65.08-.66-2.86-69.7-4.62-72.12S75,15.88,59,16.1s-26.17,1.54-27.93,4.62S25.56,92.62,27.32,92.84Z"/>
          <path class="cls-24" d="M27.32,92.84s64.2.66,65.08-.66c.29-.44.07-8.45-.43-19-33.33-1.29-60.09-.36-64.8-.18C26.76,84.21,26.7,92.76,27.32,92.84Z"/>
          <path class="cls-25" d="M33.91,91.74s-.44-17.15.44-17.59,16-1.1,16,.22.44,17.15,0,17.59S33.91,92.18,33.91,91.74Z"/>
          <path class="cls-26" d="M34.13,71.29s2-51.23,4.62-52.33,11.43-2,11.43-.88.66,52.11-.44,52.55S34.13,71.29,34.13,71.29Z"/>
          <path class="cls-8" d="M87.78,20.06c-.63-.86-2.45-1.65-5.25-2.28.22,5.87,2.23,54.81,2.1,55.14-.07.17,3.53.26,7.34.3C91,52.39,89,21.67,87.78,20.06Z"/>
          <path class="cls-27" d="M92,72.76c-33.13-1.28-59.68-.38-64.76-.18l0,.88h0c5-.19,31.58-1.11,64.77.18h0C92,73.35,92,73.06,92,72.76Z"/>
          <path class="cls-8" d="M84.9,92.77c4.44-.13,7.32-.32,7.5-.59.29-.44.07-8.36-.42-18.8L87.46,73,84.71,73c.05,1.59.58,18.7.19,19.82Z"/>
          <path class="cls-28" d="M27.75,73.93s12.76-.44,27.93-.44,30.78.66,30.78.66-23.08.22-29.24.22S29.29,75,27.75,73.93Z"/>
          <path class="cls-29" d="M88,72.39s-34.08-2-57.83-.44C30.17,72,39.19,68.66,88,72.39Z"/>
          <path class="cls-30" d="M28.63,68.88c0-3.63.16-7.25.32-10.86.08-1.81.18-3.62.28-5.43l.33-5.42.4-5.41c.14-1.8.29-3.61.46-5.41.34-3.61.72-7.21,1.29-10.79l-.82,10.18c-.1,1.81-.22,3.61-.32,5.42l-.35,5.41L29.84,52c-.15,1.8-.27,3.61-.42,5.41C29.12,61,29,65.27,28.63,68.88Z"/>
          <path class="cls-31" d="M87.44,24.66c.43,3.6.76,7.2,1.06,10.81.16,1.8.28,3.61.42,5.41l.36,5.42.29,5.42c.08,1.81.17,3.62.22,5.43.12,3.62.21,7.24.09,10.87l-.47-10.21c-.14-1.8-.24-3.61-.37-5.41L88.7,47l-.31-5.42c-.09-1.8-.19-3.61-.27-5.42C88,32.53,87.51,28.28,87.44,24.66Z"/>
          <path class="cls-32" d="M34.35,20.06a13.8,13.8,0,0,1,3-1.18l.39-.11.4-.1.79-.19,1.6-.34c2.14-.4,4.3-.66,6.46-.87l1.62-.14c.54-.05,1.09-.07,1.63-.11l1.62-.09,1.63-.06,1.63-.06,1.63,0c1.08,0,2.17,0,3.25,0q3.26,0,6.51.17c1.08.06,2.17.1,3.25.19l1.62.12L73,17.4l1.62.17,1.62.2,1.61.23,1.61.26c1.07.2,2.14.41,3.19.66a26,26,0,0,1,3.12.92c-.52-.16-1-.27-1.57-.38s-1.06-.21-1.6-.3L81,18.9l-1.6-.21c-2.15-.27-4.3-.45-6.45-.6L71.36,18l-1.62-.08c-1.07-.07-2.15-.09-3.23-.13q-3.24-.11-6.48-.12c-1.09,0-2.17,0-3.25,0H55.16l-1.62,0-1.62,0-1.61.06c-1.08,0-2.16.1-3.24.16-2.15.15-4.3.31-6.44.62l-1.6.24-.8.15-.39.07-.4.09c-.53.11-1,.24-1.57.39A9.2,9.2,0,0,0,34.35,20.06Z"/>
          <path class="cls-33" d="M28.19,92q-.21-2.08-.3-4.17c-.07-1.39-.1-2.79-.11-4.18s0-2.79.08-4.19.17-2.78.33-4.17l0,8.36v4.17C28.23,89.17,28.22,90.57,28.19,92Z"/>
          <path class="cls-34" d="M91.14,74.81c.15,1.39.25,2.78.31,4.17s.09,2.79.1,4.19,0,2.79-.08,4.18-.17,2.78-.33,4.17l0-8.35V79C91.1,77.6,91.12,76.21,91.14,74.81Z"/>
        </g>
      </g>
    </g>
  </g>
</svg>
