<svg id="Layer_1" data-name="Layer 1" xmlns="http://www.w3.org/2000/svg" width="512.22" height="328.26" viewBox="0 0 512.22 328.26">
  <defs>
    <style>
      .cls-1 {
        fill: #ff0;
      }

      .cls-10, .cls-2, .cls-27, .cls-4, .cls-5 {
        fill: #ff8a00;
      }

      .cls-2, .cls-27, .cls-29, .cls-3, .cls-4, .cls-5 {
        stroke: #5b1b02;
      }

      .cls-14, .cls-18, .cls-19, .cls-2, .cls-20, .cls-21, .cls-22, .cls-23, .cls-27, .cls-29, .cls-3, .cls-4, .cls-5 {
        stroke-miterlimit: 10;
      }

      .cls-2 {
        stroke-width: 0.71px;
      }

      .cls-3 {
        fill: #c66c0a;
      }

      .cls-29, .cls-3, .cls-4 {
        stroke-width: 0.75px;
      }

      .cls-5 {
        stroke-width: 0.48px;
      }

      .cls-6 {
        fill: #ff7a75;
      }

      .cls-7 {
        fill: #ba6304;
      }

      .cls-8 {
        fill: #6d1f0d;
      }

      .cls-9 {
        fill: #590e0e;
      }

      .cls-11, .cls-15 {
        fill: #ffde8c;
      }

      .cls-12 {
        fill: #fbffff;
      }

      .cls-13 {
        fill: #130d14;
      }

      .cls-14 {
        fill: #6b0a0a;
        stroke: #2d0901;
        stroke-width: 0.5px;
      }

      .cls-15 {
        opacity: 0.76;
      }

      .cls-16 {
        fill: #091204;
      }

      .cls-17 {
        fill: #b70f0f;
      }

      .cls-18, .cls-19, .cls-21, .cls-22, .cls-23 {
        fill: #fff;
      }

      .cls-18, .cls-19 {
        stroke: #4f2102;
      }

      .cls-18 {
        stroke-width: 0.64px;
      }

      .cls-19 {
        stroke-width: 0.61px;
      }

      .cls-20 {
        fill: #4f2305;
        stroke-width: 0.35px;
      }

      .cls-20, .cls-21, .cls-22, .cls-23 {
        stroke: #020b3f;
      }

      .cls-21 {
        stroke-width: 0.07px;
      }

      .cls-22 {
        stroke-width: 0.12px;
        opacity: 0.1;
      }

      .cls-23 {
        stroke-width: 0.07px;
      }

      .cls-24 {
        fill: #160b0c;
      }

      .cls-25 {
        fill: #60110e;
      }

      .cls-26 {
        fill: #f5a954;
      }

      .cls-27 {
        stroke-width: 0.51px;
      }

      .cls-28 {
        fill: #ddb966;
      }

      .cls-29 {
        fill: none;
      }

      .cls-30 {
        fill: #471201;
      }
    </style>
  </defs>
  <g>
    <path class="cls-1" d="M500.38,245.73c-6.16-1.11-19.78-8.8-26.92-13.38a5.54,5.54,0,0,0-.53-.3,37.19,37.19,0,0,0-41.37,4.18c-17.37-3.7-27.37-11.77-37.92-20.29-12-9.67-24.36-19.66-47.33-24.57a88.73,88.73,0,0,0-18.35-2,83.27,83.27,0,0,0-13.21,1.06,63.85,63.85,0,0,0-11.16-7.72c-15.72-8.81-51.9-16.8-56.7-17.83-3.53-1.38-29.4-11.71-46.77-25.59.24-8.93-1.07-17.76-3.62-24.09a146.71,146.71,0,0,1-5.76-19.31c.44-.64.86-1.29,1.24-2,2.9-5.08,2.93-11.94.09-17.89a17.27,17.27,0,0,0-6.63-7.57c-.32-2.22-.56-4.19-.72-5.8a31.25,31.25,0,0,0-6.83-16,12.7,12.7,0,0,0,4.22-5.26,6,6,0,0,0-7.46-7.86,10,10,0,0,1-3,.52A8.18,8.18,0,0,1,165.43,31c-8.27-15.64-21.63-19-22.2-19.1a4.76,4.76,0,0,0-.52-.1,46.84,46.84,0,0,0-6.85-.52c-10.35,0-17.42,3.92-21.94,8.53C105.8,8.35,95,6.9,90.07,6.9A26.48,26.48,0,0,0,77.35,10a9.67,9.67,0,0,1-4.69,1,22.49,22.49,0,0,1-7.19-1.34,5.84,5.84,0,0,0-2.24-.44,6,6,0,0,0-5.88,7.24,12.68,12.68,0,0,0,1.9,4.43,61.05,61.05,0,0,0-19,20.83A18.6,18.6,0,0,0,29,47.59a17.82,17.82,0,0,0-5.18,13A36.81,36.81,0,0,0,26.43,72a26.23,26.23,0,0,1-2.37,3.84c-4.17,5.29-11.4,8.75-11.46,8.78a6,6,0,0,0,.61,11.11l.21.07A129,129,0,0,0,8.11,110c-4.08,13.46,3.17,27.31,8,36.48l.93,1.8c3.48,6.72,1.59,14.79,1.57,14.84a6,6,0,0,0,5.82,7.48,5.9,5.9,0,0,0,1.61-.22c2.32,5.72,7.56,9.74,9.41,11,.67.51,1.35,1,2,1.45s1.35,1,1.92,1.4A8.86,8.86,0,0,1,41,186.75a18.35,18.35,0,0,1,.67,2.84l.39,14.26a6,6,0,0,0,6,5.83,5.06,5.06,0,0,0,.55,0,8.67,8.67,0,0,0,2.38-.61c2,6.2,5.49,13,11.32,18a14.69,14.69,0,0,0,1.57,1.24,66,66,0,0,1,7.52,6.39A45.89,45.89,0,0,1,75,240a6,6,0,0,0,11.26-3.17,6.19,6.19,0,0,0-.11-.93,7.91,7.91,0,0,1-.1-.88c-.14-3.12,1-8.77,9.47-13.42.29.46.59.91.9,1.34a44.56,44.56,0,0,0,8.77,9.71c2,12.32,7.17,27.28,11,38.38,2,5.76,4.43,12.94,4.56,14.68a17.84,17.84,0,0,1,0,1.9c-.88.5-2.76,1.28-4.59,2.05l-1.56.65c-10.92,4.59-10.61,16.27-8.92,21.8a4.24,4.24,0,0,0,.18.5,12.43,12.43,0,0,0,11.85,8,14.74,14.74,0,0,0,2.62-.23,26.45,26.45,0,0,0,3.47.26,14,14,0,0,0,3-.3H128a72.75,72.75,0,0,0,14.34-1.66c11.71-2.39,14.57-11.89,14.45-16.58,0-.05-2.46-48.44-2.46-48.44,1.26.24,2.42.44,3.49.58,5,17.13,8.74,28.58,11.16,34.11a9.4,9.4,0,0,1,.19,1.47,18.9,18.9,0,0,0-10.09,7.4c-1.79,2.79-3.53,7.54-1.64,14.34h0c.52,1.84,2.91,7.76,12.55,9.23a5.93,5.93,0,0,0,.72.1c.91.11,1.75.18,2.6.22H179a40.5,40.5,0,0,0,4.25.22c10.28,0,17.7-3.68,20.92-10.38a6.08,6.08,0,0,0,.58-2.91c0-.41-1.8-35.45-2.62-52,5-.1,12.36-.62,21.84-1.55,1.69-.12,3.38-.26,5.05-.4,4.55,9.21,14.89,24,35.69,28.85,2.44.58,4.94,1.27,7.22,2l-.35,0c-6,1-20,3.25-21.84,18.34v.11a15.11,15.11,0,0,0,3.58,11c1.88,2.08,5.33,4.53,11.24,4.75a14.71,14.71,0,0,0,5.89,1.15,21.16,21.16,0,0,0,7.68-1.55,21.79,21.79,0,0,0,3.76.33c5.11,0,12.81-1.71,20.51-9.85,11.14-11.78,12.23-21.53,12.33-23.59s-.09-8.16-7.59-12.5c-1.94-1.5-4.2-9.1-3.73-14.92q3.09.59,6.05,1c16.5,2.22,30.61,9,35.34,17,.51,1.48,2.53,8.14.12,14.8-2,2.87-7.05,11.42-4.51,19.24,1,3,3.49,7.06,9.83,9.1a5.83,5.83,0,0,0,1.85.3h2.43a21.71,21.71,0,0,0,17.22-.93,23.54,23.54,0,0,0,2.7.15c8.39,0,14.46-4.29,16.66-11.76,3.41-11.6-5.37-28.87-7-31.92l-11.94-28.56c-.21-4.75-3.19-12-13.78-14.67-1.4-.35-2.89-.68-4.43-1-9.29-2.07-18.89-4.22-23.22-12.89-1-1.9-1.75-3.75-2.47-5.55,1.47-.1,2.95-.15,4.43-.15,17.43,0,35.31,7.22,45.55,18.39a75.93,75.93,0,0,0,50.88,24.9,23.13,23.13,0,0,0,3.65,3.41c7.59,6.77,21.95,9.07,27.92,9.76l2.4.32a61.62,61.62,0,0,0,7.8.51,55.37,55.37,0,0,0,6.88-.43c19.33-1.41,26.52-14.12,26.81-14.66a6,6,0,0,0-4.19-8.79Z"/>
    <g>
      <path class="cls-2" d="M267.93,222.76s29.18-35.75,77.13-25.52,47.41,44.64,103.11,47l-1.25,4.62S410.5,257,382.65,226.65c-20.44-22.29-72.6-34.59-105.74,8.16L270.19,236l-6.07-9.39Z"/>
      <path class="cls-3" d="M231.41,243.78s6.57,26.76,34.69,33.34c0,0,14.28,3.4,18.14,6.35V288a79.25,79.25,0,0,0-8.21,2.18c-4.45,1.44-18.76.72-20.33,13.83,0,0-1,9.5,10.34,9.14,0,0,3.85,3,11.55-.72,0,0,9.86,3.85,20.44-7.34s10.7-19.84,10.7-19.84.73-3.85-4.69-7-9.26-19.85-4.57-27.66S297,235.4,297,235.4l-31.64-5.89-22.22,3Z"/>
      <path class="cls-3" d="M147.47,237.65l3.28,64.63s.23,8.52-9.65,10.54-15,1.47-15,1.47-1.14.8-5.95,0c0,0-6.3,2-8.7-3.9,0,0-3.31-10.8,5.5-14.51s10.11-3.8,9.81-10.41-15.51-41-16.41-60.84Z"/>
      <path class="cls-4" d="M93.09,191.89s-1,28.82,29.27,45.09,90.08,12.35,90.08,12.35,56.45-7.25,64.88-5.1a142.21,142.21,0,0,0,32.94,9c17.44,2.35,34.11,9.8,40,20.39,0,0,4.11,10,0,20.19,0,0-11.33,15.54,1.83,19.8h3.3a1.58,1.58,0,0,1,.65.14,15.7,15.7,0,0,0,14.6-1.32s11.76,2.94,14.71-7.06-6.67-27.64-6.67-27.64l-12.55-30s1-7.45-9.21-10-25.09-4.11-31.56-17-5.43-21.93-24.7-32.74c-15.88-8.9-55.47-17.29-55.47-17.29S198.76,153.17,183.74,131C183.74,131,92.76,175.66,93.09,191.89Z"/>
      <g>
        <g>
          <path class="cls-5" d="M40.78,78s9.36-7.63,13.44-14.63c0,0,1.26-11.63-8.93-15.14-7.93-2.73-15.89,5.34-15.5,12.09C29.79,60.27,30.51,75.75,40.78,78Z"/>
          <path class="cls-6" d="M38.86,54.14s8-3.31,13.41,11.61c0,0-4.84,4.48-10.37,5.24C41.9,71,30.87,59,38.86,54.14Z"/>
        </g>
        <path class="cls-7" d="M38.25,54.46S46.68,52.6,49.77,65.7a10,10,0,0,0,1.82-1.44,65.37,65.37,0,0,0-3.27-6.47C47.27,56.13,43.27,51,38.25,54.46Z"/>
        <path class="cls-7" d="M31.13,55.79A34.59,34.59,0,0,0,34.56,70.6l-1.45.86A28.5,28.5,0,0,1,31,65.6S28.84,58.68,31.13,55.79Z"/>
      </g>
      <path class="cls-8" d="M113.51,31.76S118,14.21,141.84,17.68c0,0,11.37,2.7,18.46,16.39a14,14,0,0,0,16.21,5.21s-1.86,4.82-9.88,4.63c0,0,11,7.87,12.12,19.36s6.39,39.77,12.19,54.2S198,172.34,165.15,187c0,0-4.65,9.24-14.41,11.6,0,0-29,6.34-37.23,19.8,0,0-1.51-6.17,2.27-9.41,0,0-5,3.89-16,5S78.29,226.3,80.27,237.17c0,0-5.63-10.33-12-13.26S53.73,202.1,54,190.51s2.31,11-5.92,13.17c0,0,1.54-18.36-3.86-23.15s-15.69-7.78-14.92-26.92c0,0,0,8.71-4.89,11,0,0,2.57-10.13-2.06-19.08s-12.09-21.89-8.49-33.78a127.68,127.68,0,0,1,9-21.76s-6.18.52-7.72,0c0,0,8.49-4,13.63-10.49S40.87,53,45,45.58,56.75,27.48,70,21.89c0,0-5.86-2.12-6.82-6.65,0,0,9.88,4,17,0S105.11,10,113.51,31.76Z"/>
      <path class="cls-9" d="M105.17,49.67s-20-20.58-36-1.72-8.58,32.59-26.88,44.6a16.33,16.33,0,0,0,10.58-3.43s-18.58,10.58-5.14,48.6c0,0,4-7.44,4-13.44a17.07,17.07,0,0,0,7.14,13.44c7.44,5.43,6.58,18,4.86,22.3,0,0,4-1.43,5.44-7.15L100.31,160l17.15-1.43s-6.29,11.15-4,18c0,0,6.29-11.72,12-13.44s14.3-7.15,14.3-7.15-2.86,13.73-7.15,17.44c0,0,18-10.29,21.15-27.16l3.15-16.86h0a11.12,11.12,0,0,1,2,6.57c-.29,3.43,2.86-12.58-2.57-20.29a24.73,24.73,0,0,1-4-16.59s3.72,15.16,11.73,18.3l-1.72-4.86s10.29,11.72,18,13.15c0,0,.86-4-6-9.72s-15.15-12.86-16-23.73c0,0-1.72,7.72,2,13.73,0,0-9.72-10.3-9.72-22.3s2.86-28.87-8.86-38.59-23.16,2.28-23.16,2.28.86-3.71,4-5.14l-3.71.28s2.77-4,4.93-6.47c0,0-5.72,3.89-8.29,9.32,0,0,5.15-6.19,1.15-9.62,0,0-1.46,5.12-3.18,7.7l-1.71-8.73s1.33,7.57-1.69,8.43c0,0-3.45-7.85-5.74-9.56,0,0,3.66,3.5,2.81,11.79A21.78,21.78,0,0,1,104,40,19.31,19.31,0,0,0,105.17,49.67Z"/>
      <path class="cls-10" d="M65.74,89.26s-2.39-36,32.47-38.72A13.06,13.06,0,0,1,105,52c1.53.9,4.1,3.17,6.59,3.37a50.15,50.15,0,0,0,11.29-.74s18.81-3.09,23.79,21.2c3.6,17.57-5.94,35.21-5.94,35.21s19.63,24.28-12.5,41.42c0,0-17.86,4.52-22,15.27L75.47,163l-4.11-12.65A12.9,12.9,0,0,0,65.74,138c-7-5.06-17.47-19.92-13-31.94S65.74,89.26,65.74,89.26Z"/>
      <path class="cls-11" d="M73.82,143.84s-1,10.08,7.48,11.38,15.6,1.3,21.78-7.15,13.66-21.46,13.66-21.46-7.16,18.21-7.48,30.57-7.15,20.48-24.39,20.15c0,0-13.85-.87-17.42-11.27a22.17,22.17,0,0,1,2.32-14.79S73.36,146,73.82,143.84Z"/>
      <path class="cls-12" d="M77,137.3s5.48,4.08,18.68,2.4,12.28-8.57,12.28-8.57H84.44l-8.4.65Z"/>
      <path class="cls-13" d="M73.57,137.3l1,9.5,4.32,6.37H90.85l9-1.93,5.81-7.39s8.84-13.76,9.92-16.56l-4.19-.68-22.26.68S71.52,129.34,73.57,137.3Z"/>
      <path class="cls-11" d="M72,112.09s-10.36,4.43-6.45,14.52,15.43,8.92,17.78,5.6v-4.1s-1.18,8.2,5.47,9,15.82-.25,26.76-10.48c0,0-3.76-8.66-16.43-7.29l-18-2Z"/>
      <path class="cls-14" d="M74.22,107.75s7.42,8.07,27.28,5.89c0,0,2.13,5.61-8.76,9.87,0,0-3.67,2.38-5.7,3.73-4.93,3.27-7.35-.63-7.35-.63s-2-4.83-3.53-6.16S70.06,111.7,74.22,107.75Z"/>
      <path class="cls-15" d="M111.33,109.5S96.8,92.25,116.74,76.44c0,0,9.78-3.4,11.19,5.88,3.59,23.63-5,22.07-7.75,26.13Z"/>
      <path class="cls-16" d="M116.74,76.44s8.53-1.61,11.75,10.18c0,0,2.67-10.72-4.29-14.73S116.74,76.44,116.74,76.44Z"/>
      <path class="cls-15" d="M67.05,90.68a33.08,33.08,0,0,1,8.08-21.19c8.5-9.58,15,.26,15,.26S90.51,92.61,82,96.51Z"/>
      <path class="cls-11" d="M121.38,208.48s1,15,60.59,21,84.38,6,84.38,6l11,8.73A203.6,203.6,0,0,0,247,245.45c-18.41,2-42.53,5-51.4,4.29s-40.83-1.16-52-5.18c0,0-24.72-4.84-40.15-22.61a21,21,0,0,1-5.75-10.52l10.28-1Z"/>
      <path class="cls-16" d="M90.13,69.75s1.82-4.56,0-7.77S76.8,62,74.66,69.75C74.66,69.75,86.33,63.05,90.13,69.75Z"/>
      <path class="cls-17" d="M78.93,147s8.25-8.67,22.74-6c0,0,3.71.44,2,4.32S88.29,152,88.29,152l-9.36-.74Z"/>
      <path class="cls-16" d="M71.69,133.43s2.58,6.7,2.11,12c0,0-1.4,9.88,10.23,10.2s14.88-1.14,20.1-9,12.61-20,12.61-20h-1.16s-9.2,17.5-15.38,21.86-16.38,6.19-23.23.37a72.08,72.08,0,0,1-1.21-8.9C75.76,137.29,71.69,133.43,71.69,133.43Z"/>
      <path class="cls-12" d="M71.69,133.43l4.23,8.72s2,3.29,1.55-7.58C77.47,134.57,73.56,134.54,71.69,133.43Z"/>
      <path class="cls-12" d="M93.09,137.28l2,7.53s1.47,3.38,3.09-8.18C98.21,136.63,94.21,137.3,93.09,137.28Z"/>
      <path class="cls-12" d="M77,148.84s.6-5.4,2.08-6.75,1.84,9.15,1.84,9.15S77.17,149.93,77,148.84Z"/>
      <path class="cls-12" d="M92.18,152s.54-6.57.91-7.92,2.72,4.31,3.33,6.53A13.42,13.42,0,0,1,92.18,152Z"/>
      <path class="cls-12" d="M76.35,145.27s8.49,8.3,25.32,0c0,0,2.68-2,3.51-4.15l.48,1.5s-3.71,6.15-9.24,8c-4.24,1.39-9.68,3.08-15.53.65C80.89,151.24,74.61,149.7,76.35,145.27Z"/>
      <ellipse class="cls-18" cx="117.79" cy="95.77" rx="12.71" ry="10.12" transform="matrix(0.18, -0.98, 0.98, 0.18, 2.88, 194.99)"/>
      <ellipse class="cls-19" cx="76.77" cy="86.62" rx="12.23" ry="9.44" transform="translate(-28 135.8) rotate(-73.6)"/>
      <ellipse class="cls-20" cx="117.51" cy="97.32" rx="6.99" ry="5.67" transform="matrix(0.18, -0.98, 0.98, 0.18, 1.13, 195.98)"/>
      <ellipse class="cls-16" cx="117.57" cy="97.86" rx="4.01" ry="3.4" transform="translate(-6.15 187.81) rotate(-75.79)"/>
      <ellipse class="cls-21" cx="114.25" cy="96.03" rx="1.27" ry="1.19" transform="translate(6.19 198.98) rotate(-83.66)"/>
      <circle class="cls-22" cx="119.41" cy="93.6" r="2.1"/>
      <g>
        <ellipse class="cls-20" cx="78.11" cy="90.06" rx="6.73" ry="5.29" transform="translate(-30.34 139.55) rotate(-73.6)"/>
        <ellipse class="cls-16" cx="78.32" cy="90.53" rx="4.2" ry="3.12" transform="matrix(0.28, -0.96, 0.96, 0.28, -30.65, 140.1)"/>
        <ellipse class="cls-23" cx="75.62" cy="88.28" rx="1.21" ry="1.14" transform="translate(-20.47 153.68) rotate(-83.66)"/>
        <circle class="cls-22" cx="79.9" cy="85.98" r="2.1"/>
      </g>
      <path class="cls-7" d="M92.52,113.71s9-3.24,10.16-8.5c0,0,.66,5.89-.84,8.2C101.84,113.41,93.66,114,92.52,113.71Z"/>
      <path class="cls-7" d="M109.38,155a40.8,40.8,0,0,1,13.83-7.6c8.24-2.55,21.74-10.23,22.3-26.91,0,0,4.49,12.53-4,21.47s-11.15,9.71-19.31,12.53S108.94,162.64,108,165C108,165,109.8,157.28,109.38,155Z"/>
      <path class="cls-7" d="M71.08,149.24s2.51-3.79,2.74-5.4-1.27-8.75-2.13-10.41c-.62-1.19-1.48.69-5.52-5.83-.91-1.47-12.42-7.1-14.45-13.59,0,0,.08,4.74,3.44,11.09a44.86,44.86,0,0,0,12.75,14.79C71.69,142.75,71.08,149.24,71.08,149.24Z"/>
      <path class="cls-11" d="M74.39,107.24S76.47,99.3,86.3,96.1C86.3,96.1,76.07,103.57,74.39,107.24Z"/>
      <path class="cls-24" d="M108.49,110.23s11.91-1.21,18.61-2.15C127.1,108.08,114.85,107.44,108.49,110.23Z"/>
      <path class="cls-24" d="M64.63,94.45s8.94,4.91,14.12,7.45C78.75,101.9,70.65,95.33,64.63,94.45Z"/>
      <path class="cls-25" d="M16.09,89.68s11.38-2.28,15.24-6.5a13.63,13.63,0,0,1-8.63,6.5S16.89,90.52,16.09,89.68Z"/>
      <path class="cls-9" d="M24.4,164.64s6-8,3.11-22.84c0,0,2.35,6.62,5.41,19.66s12.91,15,12.91,15,3.48,1.09,3.94,12.69-1.7,14.57-1.7,14.57.87-13.56-1.44-19.08a16.79,16.79,0,0,0-7.64-8s-6.32-4.19-7.8-9.56a78.19,78.19,0,0,1-1.9-13.44S29.46,161.94,24.4,164.64Z"/>
      <path class="cls-9" d="M40.9,164a23.48,23.48,0,0,0,2.89,12.54l2.67,3.33,1.2,8.82.41,15s4.62-.42,6-10.55c0,0,.58,20.77,13.32,30.24s12.89,13.8,12.89,13.8-3.33-13.95,15.46-22.31c0,0,13-1.42,20-5.91,0,0-4,2.51-2.27,9.41,0,0,6.59-10,24.74-16.09s22.13-5.43,26.9-15.31c0,0,19.66-3.71,26.73-32.12,0,0-9.77,18.23-19.36,20.64,0,0,9.31-14.94,8.26-23.24,0,0-6.34,21.63-16.69,24.47,0,0,1.92-1.43,2.59-7.33s-1.33,13.68-14.39,18.77a14.07,14.07,0,0,0,2.18-4.5c.28-1.85-3.92,8.63-12.59,11s-18.73,6.57-22.37,9c0,0,4.48-4,4.87-7.82,0,0-7.62,10.46-19.7,12.22S86.45,211.84,81.19,221c0,0,1.52-8.73,5.61-12,0,0-7.26,3.78-7.63,9.77,0,0-1.32-12.14-7.5-15.84,0,0,4,9.09,2.28,16.42,0,0-9.75-4.67-14.85-17.06,0,0-5-10.69-4.71-14.2s-4.93-12.28-3.64-21a25,25,0,0,0-.56,15c.06.2.11.4.17.61C52.94,191.33,41.47,167.31,40.9,164Z"/>
      <path class="cls-26" d="M67.05,129s10.15,5.44,16.18-.1c0,0,5.85,8.22,23,4.67A28.79,28.79,0,0,1,91.53,138c-6.92-.08-7.33-2.28-8.08-6.32,0,0-.18,4.06-8.84,2.73C68.51,133.43,67.05,129,67.05,129Z"/>
      <path class="cls-26" d="M69.68,170.13s25.21,5.85,32-4,7.49-25,12.12-31.07c0,0-3.91,13.2-4.26,18.39s-.08,15.23-7.86,19.92S77.7,180.76,69.68,170.13Z"/>
      <g>
        <g>
          <path class="cls-27" d="M163.41,81.42s-.2,13.75,6.57,19.11c0,0,11.1.43,16.79-9.55,3.88-6.8-.8-17.93-7.42-18.27C179.35,72.71,166.34,71.92,163.41,81.42Z"/>
          <path class="cls-6" d="M182.22,83.51s2.39,11.12-14.18,14.6c0,0-4-5.78-4-11.73C164.07,86.38,178.35,74.36,182.22,83.51Z"/>
          <path class="cls-7" d="M165.11,91.72a10.31,10.31,0,0,1,5.52-3.62,5.05,5.05,0,0,0-4.5,0s10.58-10.82,16.15-4.8c0,0-1.25-5.56-8.3-2.87,0,0-7.63,2.67-9.85,5.73C164.13,86.16,164,89.89,165.11,91.72Z"/>
        </g>
        <path class="cls-7" d="M169.49,99.14c.08.19-.42.13.18.56l.56.54c3.58-.24,3.23,0,8.52-2.21,5-2,7.38-8.46,7.38-8.46C180.92,97.91,171.5,98.93,169.49,99.14Z"/>
      </g>
      <path class="cls-28" d="M99,214.4s21.62,20.87,65,23.84,108,1.14,108,1.14l5.3,4.85s-17.85.17-26.9,1.28-47.92,5.84-54.86,4.23l-33.2-1.14s-37.32-3.95-53.61-21.29C108.75,227.31,101.35,221.36,99,214.4Z"/>
      <path class="cls-4" d="M150,203.68s17.72,67.6,24.6,82.74c0,0,1.88,6.65-1.68,8.61,0,0-13.34,2.13-9.78,14.94,0,0,.89,4.8,10.32,5.16h5.87s15.12,2.13,19.39-6.76c0,0-2.85-56-3-60.31s1.06-53-5.34-61.2"/>
      <path class="cls-29" d="M364.76,297.46s-4.3,13.74,10.43,15.37"/>
      <path class="cls-29" d="M353.51,298.8s-5.5,13.76,7.22,16.12"/>
      <path class="cls-29" d="M179.47,299.67s-9.93,7.3-.87,15.31"/>
      <path class="cls-29" d="M173.11,298.7s-10.48,6.68-2,16.23"/>
      <path class="cls-29" d="M128.15,299.67s-9.52,5.47-2.08,14.62"/>
      <path class="cls-29" d="M123.23,296.57s-7.23,3.1-6.56,9.66c.64,6.24,3.45,8.06,3.45,8.06"/>
      <path class="cls-29" d="M280.78,296s-11.43,4-3.19,16.46"/>
      <path class="cls-29" d="M270.82,294s-7.11,2.75-7,10.17,2.2,8.95,2.2,8.95"/>
      <path class="cls-4" d="M260.07,228.34s12,14.44,21.77,17.65"/>
      <path class="cls-29" d="M99,214.4s2.15,13.75,31.5,26.39c0,0,23.3,8,31.83,7.81"/>
      <path class="cls-29" d="M195.56,249.74s27.54-.25,48.75-3.43c23.39-3.5,33-2.08,33-2.08"/>
      <path class="cls-30" d="M432.37,243.56s15.8-17.36,37.84-6.16c0,0,19.46,12.5,29.1,14.24,0,0-9.91,14.72-35.48,11.51S428.35,250.35,432.37,243.56Z"/>
      <path class="cls-24" d="M431.79,244.84s5.13,10,30.84,13.76,36.68-7,36.68-7S493.6,262,477.25,263.2s-34.12-2.81-40.64-8.79S431.21,246.12,431.79,244.84Z"/>
      <path class="cls-24" d="M433.25,242.68s11.17,4.57,18,4.17c0,0-6.48,5.68-19.75-1.31A4.72,4.72,0,0,1,433.25,242.68Z"/>
    </g>
  </g>
</svg>
