<svg id="Layer_1" data-name="Layer 1" xmlns="http://www.w3.org/2000/svg" xmlns:xlink="http://www.w3.org/1999/xlink" width="357.51" height="281.59" viewBox="0 0 357.51 281.59">
  <defs>
    <style>
      .cls-1, .cls-2, .cls-20 {
        fill: none;
      }

      .cls-2 {
        clip-rule: evenodd;
      }

      .cls-3 {
        fill: #ff0;
      }

      .cls-4 {
        fill: #604c33;
      }

      .cls-10, .cls-11, .cls-12, .cls-13, .cls-14, .cls-15, .cls-16, .cls-19, .cls-4, .cls-5, .cls-6, .cls-7, .cls-8, .cls-9 {
        fill-rule: evenodd;
      }

      .cls-5 {
        fill: #705d45;
      }

      .cls-6 {
        fill: #db8204;
      }

      .cls-7 {
        fill: #eca33d;
      }

      .cls-8 {
        fill: #4a341d;
      }

      .cls-9 {
        fill: #f6bd64;
      }

      .cls-11 {
        fill: #896130;
      }

      .cls-12 {
        fill: #57442c;
      }

      .cls-13 {
        fill: #ed8a12;
      }

      .cls-14 {
        fill: #c96601;
      }

      .cls-15 {
        fill: #333;
      }

      .cls-16 {
        fill: #1a1a1a;
      }

      .cls-17 {
        clip-path: url(#clip-path);
      }

      .cls-18 {
        clip-path: url(#clip-path-2);
      }

      .cls-19 {
        fill: #5c6163;
      }

      .cls-20 {
        stroke: #52646e;
        stroke-miterlimit: 22.93;
        stroke-width: 0px;
      }
    </style>
    <clipPath id="clip-path">
      <rect class="cls-1" x="875.02" y="18.51" width="424.99" height="424.99" rx="26.14"/>
    </clipPath>
    <clipPath id="clip-path-2">
      <polygon class="cls-2" points="1972.55 523.37 482.27 523.37 482.27 232.19 1972.55 232.19 1972.55 523.37 1972.55 523.37"/>
    </clipPath>
  </defs>
  <g>
    <path class="cls-3" d="M348.78,227c0-.53-.06-1.06-.12-1.6,0,0,0-.1,0-.13-2.82-27.84-42.76-67.39-76.31-67.39-.7,0-1.4,0-2,0a33.31,33.31,0,0,0-24.77,12.2l-.39.48c-.4.5-.81,1-1.19,1.52-.55.75-1.05,1.48-1.53,2.23a6,6,0,0,0,8.8,7.92,30.93,30.93,0,0,1,5.79-3.71l.78-.36.56-.26.84-.33.5-.19.83-.27L261,177l.83-.23.48-.11.87-.19.39-.07a24.62,24.62,0,0,1,3.21-.35h1.53l.85,0,.47,0,.87.08.5.06.8.11.51.09.86.16.39.08c1.06.24,2.14.54,3.18.88l.41.13.89.33.49.18.84.34.52.22.86.38.53.25.82.4.62.31.77.41.33.19c.75.41,1.49.84,2.2,1.28l.09.05.7.45.66.43.89.6.46.32c.28.19.56.39.81.58l.53.39.81.6.51.4.82.64,1.38,1.13c.68.58,1.36,1.17,2,1.76l.36.32,1.25,1.16,1.24,1.21c.25.24.49.48.73.73l1.21,1.24,1.18,1.26.32.34c.89,1,1.79,2,2.71,3.1l.21.25c.25.29.49.59.73.88l1,1.29,1,1.3,1.19,1.58c1.1,1.5,2.16,3,3.15,4.53,0,0,.52.79.75,1.16,0,0,.53.83.74,1.18l.8,1.32a67.82,67.82,0,0,1,3.28,6.18l.43.95a25.12,25.12,0,0,1,1.55,4.46c-3.13,1.85-14.09,4.73-30.93,4.73-19,0-35.26-3.67-42.38-9.58-1.91-1.58-5.37-8.93-6.92-18.6-2.59-16.18-8.46-32.48-33.63-42.15-1.89-.73-3.83-1.44-5.75-2.11a175.91,175.91,0,0,0-106.31-3.94,272.09,272.09,0,0,1,6.89-40.5c2.5-9.63,6.74-17.92,10.84-25.93a156.6,156.6,0,0,0,7.63-16.42,42.62,42.62,0,0,0,2.78-15.15,5.44,5.44,0,0,0-.09-1c-.19-6.9-2.21-12.51-4-15.39-.36-.6-.73-1.19-1.09-1.76C105.25,18,88.39,9.79,80.45,8.82a18.58,18.58,0,0,0-2.31-.13c-4.94,0-12.23,1.62-16.61,4.72C59.7,14.7,54.86,18.13,56,26.18c0,.19,0,.46,0,.78a11.89,11.89,0,0,0,1,4.74c.41.9.46,2.23.15,5.08-.76,1.94-1.73,5.25-.95,8.2-.28,2.82-.52,6.16-.58,10.09a141.75,141.75,0,0,0,1.62,21.48c1.47,11.37,3,23.14-.52,43.19a345.69,345.69,0,0,0-4.64,45.1c-33.33,12.77-41,35-42.78,44a34.47,34.47,0,0,0-.54,4.23s0,.19,0,.26c0,.63,0,1.26,0,1.94v.31c0,.65.05,1.28.1,1.91l0,.35c.06.61.13,1.21.21,1.73l0,.24c.1.62.22,1.24.35,1.84l.1.4c.13.6.29,1.19.47,1.82l.05.2c.16.54.34,1.09.54,1.7l.08.23c.19.57.4,1.14.63,1.73l.13.34c.22.58.45,1.15.7,1.73,5.28,12.5,15.76,23,30.32,30.46S75,272,95.94,272.82c1.47.06,3,.09,4.48.09,40,0,88.43-21.15,96.77-52.62.2-.76.38-1.54.56-2.45,0-.18.13-.68.13-.68.12-.61.22-1.22.3-1.81,0,0,.06-.47.08-.64a33.27,33.27,0,0,0,.25-4.74v-.28c0-.7-.07-1.41-.14-2.18l0-.19a29.28,29.28,0,0,0-7.46-16.68c11,5.29,12.55,6.42,14.05,16.33.92,6.06,2.83,18.65,11,29.95,9.67,13.32,25.26,21.34,46.34,23.83A202.72,202.72,0,0,0,286,262.21h0c17.2,0,32-2.56,42.75-7.4,15.6-7,19.48-17.05,20-24.23,0-.61.06-1.23.07-1.83,0-.35,0-.71,0-1.07C348.81,227.68,348.79,227.11,348.78,227ZM53.19,213.63a3.64,3.64,0,0,1-.54-.76h0c0-.14,0-.78,1.11-2.18.08.48.16.95.24,1.4a13.79,13.79,0,0,0,1,3.14A11,11,0,0,1,53.19,213.63Zm59.69,11.61-1.24.17c-.54.08-1.07.15-1.61.21-.92.12-1.86.23-2.81.33l-1,.1-2.37.22-1.09.08-1.67.13c2.21-1.54,4-4,6-6.94,4.33-6.15,9.72-13.81,19.9-14.33,1.89-.1,3.57-.15,5.15-.15,9.5,0,16.85,1.87,23,6C150.64,214,136.77,221.81,112.88,225.24Z"/>
    <g>
      <path class="cls-4" d="M80.71,188.29C119.51,169,170.9,174.42,192,184.5c13.3,6.36,16.92,8.36,18.92,21.57S218,249.48,263,254.79s78.35-4.61,79.76-24.64c2.35-33.26-69-93.42-95.3-52.55,37.46-30.07,81.27,38.32,78.12,48.3s-63.73,13.73-83.12-2.36c-4-3.31-7.57-13.21-9-22.27-2.33-14.56-6.94-28.7-29.86-37.5-59.92-23-105.17-6.77-121.6-2-6.84,5.4-6.09,12-5.74,12.55S80.72,188.38,80.71,188.29Z"/>
      <path class="cls-5" d="M79.72,175.2c38.8-19.33,93.33-14,114.38-4,13.29,6.37,22.87,10,24.87,23.19s.38,43.41,45.36,48.72,72.09-.49,73.49-20.51c1-14-6.5-24.6-22.47-38.55-22.44-19.58-52.51-30.46-67.88-6.47,14.6-17.06,36.8-10.38,50.28-1.24,20.7,14,36,34.17,30.48,49.9-3.47,9.85-67.36,14.8-86.75-1.28-4-3.32-9.55-13.57-11-22.64-2.33-14.55-4-29.77-26.89-38.57-59.92-23-105.17-6.77-121.6-2-6.84,5.4-6.09,12-5.74,12.55S79.73,175.29,79.72,175.2Z"/>
      <path class="cls-6" d="M254.37,173.17C287.44,157,322.84,207.91,325.58,223,327.61,212.62,292.24,152,254.37,173.17Z"/>
      <path class="cls-6" d="M80.71,188.29C119.51,169,170.9,174.42,192,184.5c13.3,6.36,16.92,8.36,18.92,21.57S218,249.48,263,254.79s78.35-4.61,79.76-24.64a25.94,25.94,0,0,0-.27-5.72c-1.89,19.71-35.08,29.45-79.72,24.18-45-5.31-50.14-35.51-52.14-48.72s-5.62-15.21-18.92-21.57c-21.05-10.08-69.79-16.88-111.06,1.68,0,.07-3-7-4.14-10.53a8.48,8.48,0,0,0-.27,4.81C76.61,174.81,80.72,188.38,80.71,188.29Z"/>
      <path class="cls-6" d="M112.56,40.76c1.27,1.93,6,12.25.8,26.3C108.41,80.33,99.12,93,94.7,110c-6.26,24.07-8.54,52.82-9.17,74,0,1.1-.4,12-.43,13,7.51,1.42,38-8,48.31-7.4.66,0,27.39,3.35,33,6.78,9.12,5.61-1.3,14.31-.67,15.67-12.06-12.62-26.38-13.56-39.05-12.91-19.22,1-24.87,21.32-29.95,22.78C88,224.51,62,222.31,59.9,211c-3.15-17.12-3.26-56.33,2.7-90.22,5.73-32.64-1.34-44.26-1-65.61.23-15,3.16-20.83.85-25.94-.57-1.27-.34-2.46-.54-3.86-.56-4.12,1.2-5.72,3.1-7.06,3.45-2.45,10.79-4,14.72-3.54C86,15.54,102,23,112.56,40.76Z"/>
      <path class="cls-7" d="M96.36,222.09c-9.25,2.32-34.34.11-36.39-11-1.65-9-2.47-24.1-2-41.32.85-9.69,2-18.73,2.67-25.16,2.62-24.82,8.56-38.53,4.67-79-1.86-19.37,6.31-29.14-1.9-36.75,0,0,5.26,4.13,11.32,4.28,11.12.26,24.78-9.81,33.94,13.44,6.2,15.77-8.11,31.86-12.12,41s-11.21,32.62-15.62,65C76.58,184.54,75.55,223.41,96.36,222.09Z"/>
      <path class="cls-8" d="M68.66,109.66c3.42-35.35-2.35-42.49-2.65-47.5-1.13-19.4,8.06-25.66,1.48-33.27,0,0,4.22,4.13,9.07,4.28,8.91.26,23.83.35,28,17.57,3.54,14.59-10.41,27.37-14.12,42.73-8,32.89-7.92,11.2-8.83,16.26Z"/>
      <path class="cls-9" d="M96.36,222.09c-9.25,2.32-34.34.11-36.39-11-1.65-9-2.47-24.1-2-41.32.85-9.69,2-18.73,2.67-25.16,1.38-13.27,3.7-23.37,5-35.88,1.72-16.62,9.35-65.5.17-79.32,0,0,2.86,3.59,8.92,3.74,11.12.26,10.87-19.74,19.72,3.65,6.6,17.45.53,50.37-6,76.2a365,365,0,0,0-7.55,39.61C76.58,184.54,75.55,223.41,96.36,222.09Z"/>
      <path class="cls-4" d="M115.83,54.16a36.46,36.46,0,0,1-2.4,13c-5,13.27-14.24,25.94-18.66,42.94-6.31,24.27-8.58,53.29-9.18,74.55,0,.92.06,11.5,0,12.39,5.26-3.11,13.24-21.86,51.42-20,3.7.19,64.47,3.41,54.34,41.65-7.71,29.08-56.67,49.66-95.2,48.07-40.8-1.68-69-16.85-78.53-39.3-2.49-5.9-3.74-11.08-2.5-17.49,1.9-9.74,10.06-29.81,42.75-40.94-.17,8.08,0,18.42.29,25-7.48,4.21-14.79,10.41-13.33,17a13.23,13.23,0,0,0,3.71,6.32c7.78,9.17,37.23,15.86,51.09,15.09,43.41-2.42,66.18-20.17,64.65-22.4-2.88-11.25-21.43-14.49-31.21-14.46-28.55.08-28.43,17.26-36.7,21.4-6.61,3.31-10.61-4.26-11.48-6.26-2.52-5.74-1.9-12.49-2-15a377.86,377.86,0,0,1,1.88-43.36c3-30.15,8-46.24,13.11-58.91C103.9,78.8,113.05,73.64,115.83,54.16Z"/>
      <path class="cls-6" d="M191.19,202.57c1.6,4.54,1.87,9.88.2,16.18-7.71,29.08-56.67,49.66-95.2,48.07-40.8-1.68-69-16.85-78.53-39.3-2-4.78-3.22-9.08-2.94-14,4.09,34.71,53.05,45.08,80.86,46.22,38.52,1.59,87.48-19,95.19-48.07A29,29,0,0,0,191.19,202.57Z"/>
      <path class="cls-6" d="M58.5,198.78c-6.86,4.84-12.44,9.77-11.8,14.85a7.57,7.57,0,0,0,2,3.94c-3.19-3.16-4.81-6.31-5.31-9.35-1.49-9.15,8.73-15.44,14.68-17.94C58.14,193.28,58.3,196.13,58.5,198.78Z"/>
      <path class="cls-7" d="M82.56,168.83c-2.18,2.65-6.63,4.47-11.75,4.47-5.87,0-10.84-2.38-12.56-5.68.76,4.06,6,7.2,12.34,7.2,5.7,0,10.51-2.53,12-6Zm5.51,49.07c-1.83,2.22-5.24,3.86-9.3,4.33,1.27.19,2.56.34,3.82.46a9.67,9.67,0,0,0,5.48-4.79Zm-24.28-1.06.08.06a2,2,0,0,1-.11-.2l0,.14ZM84.17,212c-1.47,3.46-6.27,6-12,6s-10.63-2.6-12-6.13c-.07-.25-.14-.51-.19-.78a.36.36,0,0,0,0-.1c1.81,3.2,6.7,5.49,12.46,5.49,5.13,0,9.57-1.82,11.76-4.47Zm-1.61-8.27c-2.13,2.66-6.47,4.48-11.48,4.48-5.71,0-10.56-2.37-12.25-5.64v.12c.84,4,5.9,7,12,7,5.58,0,10.27-2.54,11.7-6ZM81.5,195c-2.1,2.66-6.37,4.47-11.29,4.47-5.58,0-10.32-2.33-12-5.57v.21C59.13,198,64.05,201,70,201c5.48,0,10.09-2.53,11.5-6Zm-.33-8.73c-2.1,2.65-6.37,4.47-11.3,4.47-5.54,0-10.25-2.3-12-5.51v.25c1,3.85,5.88,6.78,11.76,6.78,5.48,0,10.1-2.54,11.51-6Zm1.39-8.74c-2.18,2.66-6.63,4.47-11.75,4.47-5.87,0-10.84-2.38-12.56-5.67.76,4,6,7.2,12.34,7.2,5.7,0,10.51-2.54,12-6ZM92,29.08c-2.43,2.66-7.36,4.47-13.06,4.47a25.25,25.25,0,0,1-4.52-.4,19.32,19.32,0,0,1-7.76-2.26c2.37,2.5,6.87,4.18,12,4.18,6.33,0,11.67-2.53,13.3-6Zm3.2,8.74c-2.43,2.65-7.36,4.47-13,4.47-6.52,0-12-2.38-14-5.68.84,4.06,6.66,7.2,13.7,7.2,6.34,0,11.67-2.54,13.3-6Zm1.7,8.73C94.43,49.2,89.5,51,83.81,51c-6.52,0-12-2.38-13.94-5.67.83,4,6.65,7.19,13.7,7.19,6.33,0,11.67-2.53,13.29-6Zm.5,8.73c-2.42,2.66-7.36,4.48-13,4.48-6.52,0-12-2.39-13.94-5.68.83,4.06,6.65,7.2,13.7,7.2,6.33,0,11.67-2.54,13.29-6ZM97.16,64c-2.42,2.65-7.36,4.47-13,4.47-6.52,0-12-2.38-13.94-5.68C71,66.87,76.82,70,83.87,70c6.33,0,11.67-2.53,13.29-6Zm-1,8.73c-2.43,2.66-7.36,4.47-13,4.47-6.52,0-12-2.38-13.94-5.67.83,4,6.65,7.2,13.7,7.2,6.33,0,11.67-2.54,13.29-6Zm-1.48,8.74C92.32,84.14,87.53,86,82,86c-6.32,0-11.68-2.38-13.54-5.68.82,4.06,6.46,7.2,13.31,7.2,6.15,0,11.33-2.54,12.91-6Zm-1.6,8.73c-2.3,2.66-7,4.47-12.37,4.47-6.18,0-11.41-2.38-13.21-5.67.79,4,6.3,7.19,13,7.19,6,0,11.06-2.53,12.6-6ZM91.23,99c-2.23,2.66-6.75,4.48-12,4.48-6,0-11-2.39-12.78-5.68.77,4.06,6.1,7.2,12.55,7.2,5.81,0,10.7-2.54,12.19-6Zm-1.36,8.74c-2.2,2.65-6.67,4.47-11.83,4.47-5.5,0-10.21-2.06-12.23-5,0,.18,0,.35,0,.52,1.47,3.46,6.31,6,12.06,6s10.58-2.53,12.05-6Zm-.7,8.73c-2.23,2.66-6.76,4.47-12,4.47-5.58,0-10.36-2.07-12.4-5l-.06.47c1.44,3.5,6.38,6.08,12.24,6.08s10.71-2.54,12.2-6Zm-1.8,8.74c-2.19,2.65-6.63,4.47-11.76,4.47-5.45,0-10.12-2-12.14-5l-.08.47c1.45,3.47,6.27,6,12,6s10.51-2.54,12-6ZM86,133.89c-2.17,2.66-6.57,4.47-11.64,4.47-5.6,0-10.37-2.2-12.24-5.31l0,.29c1.15,3.74,6.11,6.55,12.06,6.55,5.65,0,10.41-2.54,11.86-6Zm-1.15,8.74c-2.16,2.65-6.54,4.47-11.6,4.47-5.69,0-10.53-2.31-12.3-5.52l0,.15c.95,3.91,6,6.89,12.11,6.89,5.62,0,10.36-2.54,11.81-6Zm-1.21,8.73c-2.12,2.65-6.45,4.47-11.44,4.47-5.69,0-10.53-2.37-12.21-5.65v0c.76,4,5.84,7.15,12,7.15,5.55,0,10.23-2.53,11.65-6ZM71.38,164.57c-5.73,0-10.59-2.32-12.36-5.54v.13c.92,3.93,6,6.93,12.15,6.93,5.65,0,10.41-2.54,11.85-6C80.85,162.75,76.45,164.57,71.38,164.57Z"/>
      <path class="cls-10" d="M66.53,32.76c-.35.62-1.75,2.3-3,4.43-1.36,2.37-1.94,5.1-1.57,6.32a11.43,11.43,0,0,1,1.72-5c-.51,2.32-1.08,4.62-.6,6.25.2-6.36,4.24-10.59,5.44-12.63C68.05,32.34,67,32.5,66.53,32.76Z"/>
      <g>
        <path class="cls-11" d="M112.62,40.87c-3.2-4.13-11.61-11.26-18.17-11.8s-18,4.86-22.28,4.35c-5.15-.62-7.35,1-9.66-4.08-.57-1.27-.35-2.46-.54-3.86-.56-4.12,1.2-5.72,3.1-7.07,3.45-2.44,10.79-4,14.71-3.53C86.08,15.65,102.06,23.14,112.62,40.87Z"/>
        <path class="cls-4" d="M112.62,40.87c-2.69-3.47-9.06-9.06-14.92-11.08C89.26,18,86.05,19.44,83.89,19.91c-1.34.29-4.59-.76-5.6,1.58-.76,1.78-1.88,4.81-3.41,5.19-3.36.83-1.89,4.86-1,6.22.34.53-1.11.59-1.71.52-4.56-.55-6.82.69-8.87-2.58a4.37,4.37,0,0,1,0-2.58c.93-3.88-.21-4.6.65-6.94.7-1.89,3-3.65,5.32-4.91a27,27,0,0,1,10.56-1.53C86.08,15.65,102.06,23.14,112.62,40.87Z"/>
        <path class="cls-8" d="M71.54,15.72a24.62,24.62,0,0,1,8.24-.84c2.59.32,6.81,1.77,11.61,4.59C81,15.73,74.35,19.12,71.71,24c-1.95,3.61-5.36,4.26-5.56,1.58A11.24,11.24,0,0,1,71.54,15.72Z"/>
        <path class="cls-12" d="M110.51,38.48c-4-4-10.65-9-16.06-9.41-6.56-.54-18,4.86-22.28,4.35-5.15-.62-7.35,1-9.66-4.08a5.57,5.57,0,0,1-.42-2.05,9.25,9.25,0,0,0,1,2.68c.55.77.35-.6,1.78-.76,3.48-.4,7,.35,8.16,2.2s4.23-.11,8.46-1S97.41,21.58,110.51,38.48Z"/>
        <path class="cls-13" d="M80.28,22.23c-3.35,1.48-2.69,3.77-4.83,5C79.41,27.56,80.92,24.44,80.28,22.23Z"/>
        <path class="cls-14" d="M80.28,22.23c-2.64,1.17-2.79,2.83-3.78,4.09a4,4,0,0,0,3.9-3.53A5.59,5.59,0,0,0,80.28,22.23Z"/>
        <path class="cls-15" d="M78.64,23.25a6.31,6.31,0,0,0-1.41,1.91,4.27,4.27,0,0,0,1,1.63,3.82,3.82,0,0,0,.59-.35A11.28,11.28,0,0,1,78.64,23.25Z"/>
        <path class="cls-16" d="M78.64,23.25a6.31,6.31,0,0,0-1.41,1.91,4,4,0,0,0,.44.93,4.21,4.21,0,0,0,1-.48A13.53,13.53,0,0,1,78.64,23.25Z"/>
        <path class="cls-10" d="M66.17,29.54c-.5,0-.9.24-.89.51s.41.48.91.47.89-.24.89-.51S66.67,29.53,66.17,29.54Z"/>
        <path class="cls-10" d="M69.32,29.67c.49,0,.88.31.85.58s-.44.45-.94.39-.87-.31-.85-.57S68.82,29.62,69.32,29.67Z"/>
      </g>
      <path class="cls-5" d="M85.63,197.05c5.26-3.11,13.24-21.86,51.42-20,2.19.11,24.27,1.28,39.91,10.09,10.84,6.11,11.09,18.89-.77,30.84-13.22,13.33-42.87,33.53-81.32,30.49-58.23-4.59-90.51-44.75-61.48-66.45a86.67,86.67,0,0,1,24.52-13c-.07,3.48-.09,7.37-.06,11.21-22.54,7.71-24.23,28.36-5,40.8,11.24,7.25,34.81,12.14,46.77,11.47,30.26-1.69,50.48-10.88,59.5-17,3.88-2.64,14.62-6.08,12.75-15.07-2.37-11.4-29.36-14.5-39.15-14.47-13.73,0-20.65,3.57-25.34,7.28a51.59,51.59,0,0,0-12,13.63C90.74,214.84,83.66,207.67,85.63,197.05Z"/>
    </g>
  </g>
  <g class="cls-17">
    <g class="cls-18">
      <path class="cls-19" d="M346.32,266.21c483.29-4,1364.83,47.35,1475.75,275.14h-744.2C979.71,294.43,623.94,301,345.69,285c0-2,.52-2.56.52-4.59v-2.23l-.71,0-.19-10.22,1,0v-1.76Z"/>
      <path class="cls-20" d="M346.32,266.21c483.29-4,1364.83,47.35,1475.75,275.14h-744.2C979.71,294.43,623.94,301,345.69,285c0-2,.52-2.56.52-4.59v-2.23l-.71,0-.19-10.22,1,0v-1.76Z"/>
    </g>
  </g>
</svg>
