<svg id="Layer_1" data-name="Layer 1" xmlns="http://www.w3.org/2000/svg" width="367.44" height="345.6" viewBox="0 0 367.44 345.6">
  <defs>
    <style>
      .cls-1 {
        fill: #ff0;
      }

      .cls-2 {
        fill: #ff5600;
      }

      .cls-3 {
        fill: #fb4600;
      }

      .cls-4 {
        fill: #c31b00;
      }

      .cls-5 {
        fill: #c41b00;
      }

      .cls-6 {
        fill: #601900;
      }

      .cls-7 {
        fill: #832400;
      }

      .cls-8 {
        fill: #ffb800;
      }

      .cls-9 {
        fill: #ffe100;
      }

      .cls-10 {
        fill: #ffca00;
      }

      .cls-11 {
        fill: #bda000;
      }
    </style>
  </defs>
  <g>
    <path class="cls-1" d="M11.26,195.69a6,6,0,0,0,3.8,1.36,5.79,5.79,0,0,0,.83-.06,152,152,0,0,1,18-1.26c9.93,0,12.55,1.59,12.83,1.78a6,6,0,0,0,7.17,1.34c28.43-14.41,51.69-16.57,63-16.57a60.25,60.25,0,0,1,8.58.5,6.74,6.74,0,0,0,1,.08,6,6,0,0,0,2.94-.77,267.16,267.16,0,0,1,57.89-22.53l47.15,132.26a5.87,5.87,0,0,0,.33,2.5L240.34,310a7.53,7.53,0,0,1-3.39,9.18,6.33,6.33,0,0,1-.76.34l-.12,0a7.27,7.27,0,0,1-2.47.44,7.16,7.16,0,0,1-5.75-2.9l-1.07-1.44a10.79,10.79,0,0,0-7.15-4.23,12.07,12.07,0,0,0-1.46-.1c-.31,0-.61,0-.91,0a10.81,10.81,0,0,0-7.77,17.27l1.08,1.44a28.58,28.58,0,0,0,23,11.54,29,29,0,0,0,9.65-1.66l.09,0a25.72,25.72,0,0,0,2.68-1.12,28.71,28.71,0,0,0,13.63-14,29.32,29.32,0,0,0,1-22.18l-5.54-15.55a6.24,6.24,0,0,0-.94-1.7L207.9,155.51c2.77-.38,5.49-.68,8.13-.9a6.1,6.1,0,0,0,4.32-2.41c.18-.23,18.12-23.47,70.4-37.07A6,6,0,0,0,294,113c.33-.42,32.61-41.69,60.1-49.73A6,6,0,0,0,356.32,53c-40-34.66-95-41.93-134.17-41.93a347.88,347.88,0,0,0-60.45,5.35c-1.28.21-2.43.42-3.41.61l-2.73-6.76A10,10,0,0,0,147,4.05l-.67,0a9.94,9.94,0,0,0-9.46,12.87l2.29,7.38C121,32.39,116,36.09,114.14,37.7,110.5,39.8,94,49.81,75.46,69.42,51.4,93.21,20.59,132.49,10.14,184.72a17.17,17.17,0,0,0-1.07,6.69A6,6,0,0,0,11.26,195.69Z"/>
    <g>
      <g>
        <path class="cls-2" d="M126.46,176.86s43.48-24.44,89.08-28.23L195.76,73.56l-89.61,37.83Z"/>
        <path class="cls-3" d="M215.54,148.63s18.23-24.88,73.7-39.3c0,0-25.44-52-37.87-56.47S196.5,78.54,196.5,78.54Z"/>
        <path class="cls-4" d="M289.24,109.33s33.44-43.11,63.15-51.81c0,0-61.05-23.13-106-17.35C246.38,40.17,274.27,97.25,289.24,109.33Z"/>
        <path class="cls-3" d="M126.46,176.86s-31.89-5.37-75.31,16.64c0,0-4.08-32.44,10.42-60.78s48.92-23.91,48.92-23.91Z"/>
        <path class="cls-5" d="M15.06,191.05s30.29-4.22,36.09,2.45c0,0-2.28-29.93,13.11-57C64.26,136.49,14.1,175,15.06,191.05Z"/>
      </g>
      <g>
        <path class="cls-6" d="M146.59,10A3.92,3.92,0,0,0,145,14.51l5,16.18-2.27.81,0-.09-5.06-16.29A3.91,3.91,0,0,1,145,10.26,4,4,0,0,1,146.59,10Z"/>
        <path class="cls-7" d="M156.41,28.4,150,30.69l-5-16.18A3.92,3.92,0,0,1,146.59,10a3.91,3.91,0,0,1,3.4,2.45Z"/>
      </g>
      <g>
        <rect class="cls-7" x="196.67" y="19.24" width="8.77" height="296.03" transform="translate(-44.49 77.22) rotate(-19.62)"/>
        <rect class="cls-6" x="196.82" y="20.09" width="3.75" height="296.03" transform="translate(-44.91 76.49) rotate(-19.62)"/>
      </g>
      <g>
        <path class="cls-8" d="M99.72,146s37.95-45,90.72-43.29l-34.76-79S123.54,36.8,117.73,42.57,89.73,115.93,99.72,146Z"/>
        <path class="cls-9" d="M352.39,57.52S311.15,46,272.88,68.29L155.68,23.74S280-5.24,352.39,57.52Z"/>
        <path class="cls-10" d="M155.68,23.74s73.92-20,117.2,44.55c0,0-40-3.39-82.44,34.45Z"/>
        <path class="cls-9" d="M15.06,191.05s3.42-6.76,10.41-9.13l24.86-56.4,67.4-82.95S31.34,95.71,15.06,191.05Z"/>
        <path class="cls-10" d="M25.47,181.92S43.14,145.76,99.72,146c0,0-3.16-56.9,18-103.46C117.73,42.57,43.21,83.18,25.47,181.92Z"/>
      </g>
      <g>
        <path class="cls-11" d="M243.09,291.36l5.54,15.52a13.45,13.45,0,0,1-7.8,17.19l-.11,0c-.3.11-.59.2-.89.28A13.52,13.52,0,0,0,246,307.93l-5.57-15.62Z"/>
        <path class="cls-9" d="M249.48,289.08,255,304.62a23.35,23.35,0,0,1-.84,17.67,22.49,22.49,0,0,1-10.75,11,19.76,19.76,0,0,1-2.12.89h0a22.76,22.76,0,0,1-25.94-7.81L214.28,325a4.8,4.8,0,0,1,3.47-7.68,4.76,4.76,0,0,1,4.22,1.91l1.08,1.44a13.2,13.2,0,0,0,15,4.52l.11,0a11.56,11.56,0,0,0,1.64-.74c.3-.08.59-.17.89-.28l.11,0a13.45,13.45,0,0,0,7.8-17.19l-5.54-15.52Z"/>
      </g>
    </g>
  </g>
</svg>
