<svg xmlns="http://www.w3.org/2000/svg" width="195.6" height="324.52" viewBox="0 0 195.6 324.52">
  <defs>
    <style>
      .cls-1 {
        isolation: isolate;
      }

      .cls-2 {
        fill: #ff0;
      }

      .cls-3, .cls-5, .cls-7 {
        fill: #bfcfd6;
      }

      .cls-4 {
        fill: #afbc31;
      }

      .cls-5 {
        opacity: 0.53;
      }

      .cls-12, .cls-5, .cls-7, .cls-9 {
        mix-blend-mode: multiply;
      }

      .cls-6 {
        fill: #b4c737;
      }

      .cls-8 {
        fill: #d3dee2;
      }

      .cls-10 {
        fill: #dfddda;
      }

      .cls-11, .cls-12 {
        fill: #c0ce3c;
      }

      .cls-13, .cls-16 {
        fill: #d8e684;
      }

      .cls-13 {
        opacity: 0.3;
      }

      .cls-14 {
        opacity: 0.49;
      }

      .cls-15 {
        fill: #fff;
      }

      .cls-16 {
        opacity: 0.22;
      }
    </style>
  </defs>
  <g class="cls-1">
    <g id="Layer_1" data-name="Layer 1">
      <g>
        <path class="cls-2" d="M25.67,314.86H169.93a16,16,0,0,0,16-16V127.41a8.35,8.35,0,0,0-3-6.42c-.13-.16-.26-.3-.4-.45l-.36-.34v-2.6a6,6,0,0,0-6-6H174v-.45a6,6,0,0,0-6-6h-.23a6.81,6.81,0,0,0-.76-.26,10.9,10.9,0,0,0-10.31-7.38h-5.17l4.7-54.33c.89-10.29-2-20.17-7.74-26.41a21.23,21.23,0,0,0-15.73-7.11A248.11,248.11,0,0,0,65.5,19.45c-3.59,1-6.92,2-10.17,3.11-12.55,4.1-21,17.77-19.33,31.11l5.62,43.84H38.13A10.9,10.9,0,0,0,27.24,108.4V119H18.07a8.41,8.41,0,0,0-8.41,8.4V298.85A16,16,0,0,0,25.67,314.86ZM63.22,47.43a377.07,377.07,0,0,1,39.89-9.5,213.1,213.1,0,0,1,26.77-2.21,14.26,14.26,0,0,1,.42,5.22l-4.89,56.57H67.86l-6-47.15A4.12,4.12,0,0,1,63.22,47.43Z"/>
        <g>
          <path class="cls-3" d="M57.19,28.26C47.29,31.5,40.59,42.32,42,52.91l6.71,52.32,13.91-1.78L55.85,51.12c-.48-3.78,2.29-8.41,5.71-9.53,1.86-.61,3.72-1.16,5.59-1.73V25.21Q62.17,26.64,57.19,28.26Z"/>
          <path class="cls-4" d="M38.13,103.51H156.7a4.89,4.89,0,0,1,4.89,4.89v40.29a0,0,0,0,1,0,0H33.24a0,0,0,0,1,0,0V108.4A4.89,4.89,0,0,1,38.13,103.51Z"/>
          <path class="cls-3" d="M144.07,20.83a15.26,15.26,0,0,0-11.26-5.17h0a242.48,242.48,0,0,0-65.63,9.55V39.86a229.46,229.46,0,0,1,65.67-10.18c.32,0,.79.49.93.64,1.59,1.73,3,5.84,2.53,11.14l-6.73,77.83,14,1.2,6.73-77.83C151,34,148.69,25.86,144.07,20.83Z"/>
          <path class="cls-5" d="M142.7,46.84c.62-7.78,1.23-17.45-2.55-22-2.51-3-8.29-2.33-11.74-2.33h0C76.64,29,68.05,35.9,65.66,36.74l-6.53,5.64c21.95-6.65,52.32-13.54,74-13.62.31,0,.79.49.92.64,1.59,1.73,3,5.84,2.53,11.14L130,116.22l7.17.68Z"/>
          <g>
            <rect class="cls-6" x="15.66" y="140.41" width="164.28" height="80.09"/>
            <rect class="cls-7" x="15.66" y="140.41" width="164.28" height="3.59"/>
            <path class="cls-3" d="M18.07,125H177.53a2.41,2.41,0,0,1,2.41,2.41v13a0,0,0,0,1,0,0H15.66a0,0,0,0,1,0,0v-13A2.41,2.41,0,0,1,18.07,125Z"/>
            <rect class="cls-8" x="30.16" y="125.01" width="72.39" height="14.37"/>
            <g class="cls-9">
              <path class="cls-10" d="M160.11,174.19H137a17.82,17.82,0,0,1-17.81-17.8l0-31.9,59,.26-.35,31.64A17.82,17.82,0,0,1,160.11,174.19ZM127.87,128v28.4a9.15,9.15,0,0,0,9.14,9.14h23.1a9.16,9.16,0,0,0,9.15-9.14V128Z"/>
            </g>
            <path class="cls-10" d="M158.38,172.46h-23.1a17.83,17.83,0,0,1-17.81-17.81V117.6h58.72v37.05A17.83,17.83,0,0,1,158.38,172.46Zm-32.25-46.2v28.39a9.16,9.16,0,0,0,9.15,9.15h23.1a9.15,9.15,0,0,0,9.14-9.15V126.26Z"/>
            <rect class="cls-11" x="126.42" y="111.15" width="41.58" height="17.71"/>
            <rect class="cls-11" x="126.42" y="199.51" width="41.58" height="17.71"/>
            <rect class="cls-12" x="126.42" y="114.61" width="41.58" height="17.71"/>
            <rect class="cls-11" x="126.42" y="111.15" width="41.58" height="17.71"/>
            <rect class="cls-13" x="127.96" y="110.63" width="38.5" height="7.44" rx="1.41"/>
            <g class="cls-14">
              <path class="cls-15" d="M157.87,169.73H134.76a15.22,15.22,0,0,1-15.2-15.2H123a11.76,11.76,0,0,0,11.74,11.74h23.11Z"/>
            </g>
            <g class="cls-14">
              <rect class="cls-15" x="170.38" y="132.71" width="3.47" height="24.38"/>
            </g>
            <rect class="cls-16" x="32.22" y="147.08" width="64.17" height="71.36"/>
          </g>
          <g>
            <path class="cls-6" d="M15.66,228.77H179.94a0,0,0,0,1,0,0v70.08a10,10,0,0,1-10,10H25.67a10,10,0,0,1-10-10V228.77A0,0,0,0,1,15.66,228.77Z"/>
            <rect class="cls-7" x="15.66" y="228.77" width="164.28" height="3.59"/>
            <path class="cls-3" d="M18.07,213.37H177.53a2.41,2.41,0,0,1,2.41,2.41v13a0,0,0,0,1,0,0H15.66a0,0,0,0,1,0,0v-13A2.41,2.41,0,0,1,18.07,213.37Z"/>
            <rect class="cls-8" x="30.16" y="213.37" width="72.39" height="14.37"/>
            <g class="cls-9">
              <path class="cls-10" d="M160.11,262.56H137a17.83,17.83,0,0,1-17.81-17.81l0-31.89,59,.25-.35,31.64A17.83,17.83,0,0,1,160.11,262.56Zm-32.24-46.21v28.4A9.16,9.16,0,0,0,137,253.9h23.1a9.17,9.17,0,0,0,9.15-9.15v-28.4Z"/>
            </g>
            <path class="cls-10" d="M158.38,260.83h-23.1A17.83,17.83,0,0,1,117.47,243V206h58.72V243A17.83,17.83,0,0,1,158.38,260.83Zm-32.25-46.21V243a9.16,9.16,0,0,0,9.15,9.14h23.1a9.15,9.15,0,0,0,9.14-9.14v-28.4Z"/>
            <rect class="cls-12" x="126.42" y="202.98" width="41.58" height="17.71"/>
            <rect class="cls-11" x="126.42" y="199.51" width="41.58" height="17.71"/>
            <rect class="cls-13" x="127.96" y="199" width="38.5" height="7.44" rx="1.41"/>
            <path class="cls-15" d="M157.87,258.1H134.76a15.22,15.22,0,0,1-15.2-15.21H123a11.76,11.76,0,0,0,11.74,11.74h23.11Z"/>
            <rect class="cls-15" x="170.38" y="221.07" width="3.47" height="24.38"/>
            <rect class="cls-16" x="32.22" y="235.45" width="64.17" height="71.36"/>
          </g>
        </g>
      </g>
    </g>
  </g>
</svg>
