<svg xmlns="http://www.w3.org/2000/svg" width="473.03" height="183.24" viewBox="0 0 473.03 183.24">
  <defs>
    <style>
      .cls-1 {
        isolation: isolate;
      }

      .cls-2 {
        fill: #ff0;
      }

      .cls-3 {
        fill: #df570e;
      }

      .cls-20, .cls-4 {
        fill: #efeff0;
        mix-blend-mode: screen;
      }

      .cls-4 {
        opacity: 0.7;
      }

      .cls-5 {
        fill: #dcdce2;
      }

      .cls-6 {
        fill: #484954;
      }

      .cls-7 {
        fill: #a6a6aa;
      }

      .cls-8 {
        fill: #a8a8a8;
      }

      .cls-9 {
        fill: #454545;
      }

      .cls-10 {
        fill: #a33b04;
        opacity: 0.5;
      }

      .cls-10, .cls-13 {
        mix-blend-mode: multiply;
      }

      .cls-11 {
        fill: #702b00;
      }

      .cls-12 {
        fill: #aab0b5;
      }

      .cls-13, .cls-16 {
        fill: #ccd4d8;
      }

      .cls-14 {
        fill: #eae9d6;
      }

      .cls-15 {
        fill: #97978e;
      }

      .cls-17 {
        fill: #dadadc;
      }

      .cls-18 {
        fill: #bcbdbf;
      }

      .cls-19 {
        fill: #fff;
        opacity: 0.6;
      }
    </style>
  </defs>
  <g class="cls-1">
    <g id="Layer_1" data-name="Layer 1">
      <g>
        <path class="cls-2" d="M464.08,153.56c-2.5-2.15-8.49-8-16.79-16.34l.35-.3c.35-.31.69-.63,1-1l.27-.29-4.4-4.08,4.49,4c.22-.22.42-.46.69-.77.12-.13.23-.27.35-.41.26-.31.51-.64.73-1l.45-.64.33-.5a23,23,0,0,0,1.34-2.42l.16-.34c.24-.54.44-1.05.61-1.56,0-.07.08-.22.08-.22.09-.26.16-.52.24-.79,0-.08.05-.16.06-.23l.06-.25c1-4.13.05-7.8-2.61-10.09-3.28-2.84-10.07-6.64-11.24-7.29-1.38-.83-2.78-1.66-4.19-2.47l23.36-56.41a5.9,5.9,0,0,0,.4-1.48,23,23,0,0,0-.61-9.92A6,6,0,0,0,457,35.7l-10.43-7.61a6.44,6.44,0,0,0-1.6-.84l-.12,0-.4-.15-.68-.26a17.53,17.53,0,0,0-6.42-1.45,12.24,12.24,0,0,0-4.78,1,21.4,21.4,0,0,0-5.16,3.33l-.85.68c-.23.17-.46.35-.69.5l-.36.27c-12.4,9.8-24.13,19-34.89,27.4-2.6,1-13.35,3.82-20.58,5.7-18.76,4.9-20.55,5.51-22.19,6.78l-1.08.88-.28.23-1,.87-.3.29c-7.29-2.11-14.31-4.11-20.91-6-18-5-49.6-14.22-83-23.95-39.8-11.6-81-23.58-101.62-29.2l-5.66-1.56c-14.41-4-24.82-6.84-36.47-6.84-10.29,0-20.73,2.3-33.82,7.47A82.59,82.59,0,0,0,52.44,18.1c-5.44,2.51-11.36,5.44-18.08,9-5.6.89-23,4.48-27.55,15.23l-.06.13a14.25,14.25,0,0,0-.65,1.94c-4,16.1,28,45.9,71,57.72,25.21,6.93,52.07,13.36,79.82,19.12l5.49,1.12-.33,1.3a94.24,94.24,0,0,0-2.76,17.79c-.12,3.26-.44,11.86,6.14,13.57l.11,0a219.21,219.21,0,0,0,46.11,5.52,6,6,0,0,0,.73,0c3.21,0,6.17-2.05,8.85-6.1,4.72,4.22,7.76,6.91,7.77,6.91a46.46,46.46,0,0,0,17.3,9.08c2.72.86,22.38,7,32.25,7,1.51,0,6.09,0,8.73-3.29l.11-.13a7.43,7.43,0,0,0,1-1.77l0-.1a7.68,7.68,0,0,0,.46-2c0-.09,0-.17,0-.25a1.41,1.41,0,0,1,0-.2,7.29,7.29,0,0,0-.1-1.39l-.07-.43a9.26,9.26,0,0,0-.46-1.51l-.11-.26c-.13-.29-.28-.61-.48-1l-.16-.28c-.2-.34-.42-.68-.68-1.05-2.56-3.57-7.6-11.53-14.74-23.27,56.43,7.38,102.39,10.38,120.54,10.58h2.59l1.28,0,1,0h.12l.9,0,.85-.07c12.69,6.53,25.62,12.88,25.76,13l.28.13c.36.15,9,3.81,17.3,3.81.84,0,1.66,0,2.45-.11,1.1.07,3.65.21,6.46.21h0c6.31,0,13.22-.45,15.19-5.79C467.35,160.73,468.14,157.05,464.08,153.56Z"/>
        <g>
          <g>
            <g>
              <path class="cls-3" d="M453.5,40.54l-10.42-7.61-.08,0c-2.71-.93-5.07-2.31-8.05-1-2.15.91-3.8,2.69-5.68,4-14.45,11.41-26.11,20.56-35.38,27.79-2.22,1.72-40.36,10.61-42.31,12.12-16.19,12.58,11.75,13.85,10.87,14.79-2.87,3.07,54,14.11,65.63,19.75l25.83-62.37A17.29,17.29,0,0,0,453.5,40.54Z"/>
              <g>
                <path class="cls-3" d="M444.33,35.1l.08,0L453.83,42c-.09-.49-.19-1-.33-1.46l-10.42-7.61-.08,0c-.36-.12-.71-.25-1.07-.39A5.68,5.68,0,0,0,444.33,35.1Z"/>
                <path class="cls-4" d="M352.91,77.92c1.94-1.51,40.09-10.39,42.31-12.12,9.27-7.23,20.93-16.37,35.38-27.79,1-.66,2.13-3.19,3.31-5.58-1.66,1-3.08,2.35-4.64,3.4-14.45,11.41-26.11,20.56-35.38,27.79-2.22,1.72-40.36,10.61-42.31,12.12-5.88,4.57-5.92,7.64-3.66,9.75C347.54,83.58,348.8,81.12,352.91,77.92Z"/>
              </g>
            </g>
            <path class="cls-5" d="M36.24,32.84C90.24,4.49,100.37,9.67,138.14,20S283,62,322.74,73.1s81,24.16,84.79,25.49a285,285,0,0,1,29.75,15.7s7.3,4,10.32,6.63c2.85,2.45-1.17,11-7.24,13.68-1.42.64-17.06,5.7-17.06,5.7s-8.07,3.45-25.22,4.74c-14.76,1.11-167.9-7.1-319.43-48.76C35.44,84.4,9.35,56.19,11.93,45.79,14.4,35.83,36.24,32.84,36.24,32.84Z"/>
            <g>
              <path class="cls-6" d="M102.61,43.78a63.89,63.89,0,0,0,7.61-10.47c.78-1.91.92-3.84-.66-5.29q-5.32-1.71-11.89-3.6l-3.58-1L71.39,41.57A149.72,149.72,0,0,0,88.57,47C94.46,48.42,98.17,48.56,102.61,43.78Z"/>
              <path class="cls-6" d="M41.45,30.69s19.8-11.12,25.49-12.06c1.37-.25,6.11-.83,25,4L69.82,40.8C61.86,38,50.46,34.3,41.45,30.69Z"/>
            </g>
            <path class="cls-7" d="M145,82.57a5.8,5.8,0,0,1-1.23-.41L131,78.61C125.72,75.09,128,68,128,68c.23-.84,5.7-21.13,7.81-26.07a5.59,5.59,0,0,1,6.9-3.39,5.67,5.67,0,0,1,.72.22L151,41l7.7,2.2.08,0a2.9,2.9,0,0,1,1.9,1.45c1.53,2.73-.13,8.12-.2,8.35-.2.8-5.08,20-7.75,25.82A6.39,6.39,0,0,1,145,82.57ZM131.36,78,144,81.48a7.13,7.13,0,0,0,1.15.38,5.64,5.64,0,0,0,6.95-3.35c2.64-5.75,7.66-25.51,7.71-25.71s1.65-5.34.26-7.79a2.18,2.18,0,0,0-1.43-1.1l-.11,0-7.7-2.2-7.57-2.26a4.42,4.42,0,0,0-.65-.2,4.82,4.82,0,0,0-6.05,3c-2.09,4.9-7.73,25.8-7.78,26S126.61,74.74,131.36,78Z"/>
            <g>
              <g>
                <path class="cls-8" d="M180.76,65.57l-.3-.1-3.4-.83-.06,0a2.82,2.82,0,0,1-1-3.2c0-.2,1.32-5.66,1.85-7a1.82,1.82,0,0,1,2.27-1.16l.17,0,4,1h0a1.12,1.12,0,0,1,.76.54,3.93,3.93,0,0,1,.06,2.48,69.7,69.7,0,0,1-1.85,7A2.06,2.06,0,0,1,180.76,65.57Z"/>
                <path class="cls-9" d="M180.73,64.86a1.35,1.35,0,0,1-.27-.09l-3-.71,0,0a2.48,2.48,0,0,1-.91-2.81c0-.18,1.17-5,1.63-6.16a1.61,1.61,0,0,1,2-1l.15,0,3.55.91h0a1,1,0,0,1,.66.49,3.39,3.39,0,0,1,0,2.17,60.68,60.68,0,0,1-1.63,6.11A1.79,1.79,0,0,1,180.73,64.86Z"/>
              </g>
              <g>
                <path class="cls-8" d="M192.6,68.46a2.62,2.62,0,0,1-.31-.1l-3.4-.82-.06,0a2.81,2.81,0,0,1-1-3.2c0-.21,1.32-5.66,1.85-7a1.83,1.83,0,0,1,2.27-1.15l.17,0,4.05,1h0a1.12,1.12,0,0,1,.76.54,3.84,3.84,0,0,1,.05,2.48,67.69,67.69,0,0,1-1.85,7A2,2,0,0,1,192.6,68.46Z"/>
                <path class="cls-9" d="M192.56,67.75a1.35,1.35,0,0,1-.27-.09l-3-.72-.06,0a2.49,2.49,0,0,1-.9-2.81c.05-.18,1.16-5,1.63-6.16a1.61,1.61,0,0,1,2-1l.15,0,3.54.91h0a1,1,0,0,1,.67.48,3.49,3.49,0,0,1,.05,2.18c-.05.17-1,4.71-1.63,6.11A1.79,1.79,0,0,1,192.56,67.75Z"/>
              </g>
              <g>
                <path class="cls-8" d="M204.43,71.34l-.32-.1-3.39-.82-.06,0a2.84,2.84,0,0,1-1-3.2c.05-.21,1.33-5.66,1.85-7A1.85,1.85,0,0,1,203.76,59l.17.06,4,1h0a1.14,1.14,0,0,1,.76.54,3.81,3.81,0,0,1,0,2.47,66.49,66.49,0,0,1-1.84,7A2,2,0,0,1,204.43,71.34Z"/>
                <path class="cls-9" d="M204.38,70.64a1.39,1.39,0,0,1-.26-.09l-3-.72-.06,0a2.49,2.49,0,0,1-.9-2.81c0-.18,1.16-5,1.63-6.16a1.61,1.61,0,0,1,2-1l.15,0,3.55.91h0a1,1,0,0,1,.66.48,3.32,3.32,0,0,1,.05,2.17,59.42,59.42,0,0,1-1.62,6.12A1.8,1.8,0,0,1,204.38,70.64Z"/>
              </g>
              <g>
                <path class="cls-8" d="M216.26,74.23a1.39,1.39,0,0,1-.32-.1l-3.39-.82-.06,0a2.82,2.82,0,0,1-1-3.19c0-.21,1.33-5.67,1.85-7a1.84,1.84,0,0,1,2.28-1.15.69.69,0,0,1,.17.05l4,1h0a1.15,1.15,0,0,1,.76.55,3.81,3.81,0,0,1,.05,2.47,67.73,67.73,0,0,1-1.85,7A2,2,0,0,1,216.26,74.23Z"/>
                <path class="cls-9" d="M216.22,73.53l-.28-.09-3-.72-.05,0a2.5,2.5,0,0,1-.91-2.81c.05-.18,1.18-5,1.63-6.16a1.63,1.63,0,0,1,2-1l.15,0,3.55.91h0a1,1,0,0,1,.67.48,3.44,3.44,0,0,1,0,2.17,55.12,55.12,0,0,1-1.63,6.12A1.78,1.78,0,0,1,216.22,73.53Z"/>
              </g>
              <g>
                <path class="cls-8" d="M228.08,77.12l-.3-.1-3.4-.82-.06,0a2.82,2.82,0,0,1-1-3.2c.05-.2,1.32-5.66,1.85-7a1.84,1.84,0,0,1,2.28-1.16l.17.06,4,1h0a1.15,1.15,0,0,1,.76.55,4,4,0,0,1,0,2.47,70.46,70.46,0,0,1-1.85,7A2,2,0,0,1,228.08,77.12Z"/>
                <path class="cls-9" d="M228.05,76.42l-.27-.09-3-.72,0,0a2.48,2.48,0,0,1-.9-2.81c0-.19,1.16-5,1.63-6.16a1.6,1.6,0,0,1,2-1l.15,0,3.55.91h0a1,1,0,0,1,.67.48,3.44,3.44,0,0,1,0,2.17,60.1,60.1,0,0,1-1.62,6.12A1.8,1.8,0,0,1,228.05,76.42Z"/>
              </g>
              <g>
                <path class="cls-8" d="M239.91,80a2.62,2.62,0,0,1-.31-.1l-3.39-.82-.07,0a2.85,2.85,0,0,1-1-3.2c.06-.2,1.34-5.66,1.86-7a1.83,1.83,0,0,1,2.27-1.16l.18,0,4,1h0a1.18,1.18,0,0,1,.76.55,3.87,3.87,0,0,1,0,2.47,65.21,65.21,0,0,1-1.85,7A2,2,0,0,1,239.91,80Z"/>
                <path class="cls-9" d="M239.87,79.3l-.27-.08-3-.72-.05,0a2.47,2.47,0,0,1-.9-2.81c0-.18,1.16-5,1.62-6.15a1.63,1.63,0,0,1,2-1l.15,0,3.55.92h0a1,1,0,0,1,.67.48,3.52,3.52,0,0,1,0,2.17,62.87,62.87,0,0,1-1.62,6.11A1.79,1.79,0,0,1,239.87,79.3Z"/>
              </g>
              <g>
                <path class="cls-8" d="M251.74,82.9a2,2,0,0,1-.31-.1L248,82l-.05,0a2.82,2.82,0,0,1-1-3.2c.05-.2,1.32-5.66,1.84-7a1.84,1.84,0,0,1,2.28-1.16l.17.05,4,1h0a1.1,1.1,0,0,1,.75.55,3.9,3.9,0,0,1,.06,2.47,67,67,0,0,1-1.85,7A2,2,0,0,1,251.74,82.9Z"/>
                <path class="cls-9" d="M251.71,82.19l-.28-.08-3-.72,0,0a2.49,2.49,0,0,1-.91-2.81c0-.18,1.17-5,1.63-6.15a1.6,1.6,0,0,1,2-1l.14,0,3.56.92h0a1,1,0,0,1,.66.48,3.31,3.31,0,0,1,0,2.17,59.45,59.45,0,0,1-1.61,6.11A1.8,1.8,0,0,1,251.71,82.19Z"/>
              </g>
              <g>
                <path class="cls-8" d="M263.56,85.79a2.07,2.07,0,0,1-.3-.1l-3.39-.82-.06,0a2.81,2.81,0,0,1-1-3.2c0-.2,1.32-5.66,1.85-7a1.82,1.82,0,0,1,2.27-1.16.69.69,0,0,1,.17.05l4.05,1h0a1.13,1.13,0,0,1,.76.55,3.9,3.9,0,0,1,.06,2.47,69.7,69.7,0,0,1-1.85,7A2.06,2.06,0,0,1,263.56,85.79Z"/>
                <path class="cls-9" d="M263.53,85.08a2.09,2.09,0,0,1-.27-.08l-3-.73,0,0a2.48,2.48,0,0,1-.91-2.81c0-.18,1.16-5,1.62-6.16a1.63,1.63,0,0,1,2-1l.14,0,3.56.91h0a1,1,0,0,1,.67.48,3.42,3.42,0,0,1,.05,2.18A60.68,60.68,0,0,1,265.74,84,1.79,1.79,0,0,1,263.53,85.08Z"/>
              </g>
              <g>
                <path class="cls-8" d="M275.4,88.67a1.91,1.91,0,0,1-.31-.09l-3.4-.82-.06,0a2.84,2.84,0,0,1-1-3.2c0-.21,1.33-5.66,1.86-7a1.82,1.82,0,0,1,2.27-1.16.69.69,0,0,1,.17.05l4.05,1h0a1.14,1.14,0,0,1,.76.54,3.84,3.84,0,0,1,.05,2.48,65.16,65.16,0,0,1-1.85,7A2,2,0,0,1,275.4,88.67Z"/>
                <path class="cls-9" d="M275.36,88a1.35,1.35,0,0,1-.27-.09l-3-.72-.06,0a2.49,2.49,0,0,1-.9-2.81c0-.18,1.17-5,1.63-6.16a1.62,1.62,0,0,1,2-1l.14,0,3.55.91h0a1.06,1.06,0,0,1,.66.48,3.49,3.49,0,0,1,.05,2.18,60.68,60.68,0,0,1-1.63,6.11A1.79,1.79,0,0,1,275.36,88Z"/>
              </g>
              <g>
                <path class="cls-8" d="M287.23,91.56a1.19,1.19,0,0,1-.31-.1l-3.4-.82-.06,0a2.86,2.86,0,0,1-1-3.2c.05-.21,1.32-5.66,1.85-7a1.84,1.84,0,0,1,2.28-1.15.69.69,0,0,1,.17.05l4,1h0a1.14,1.14,0,0,1,.76.54,3.84,3.84,0,0,1,0,2.48,68.37,68.37,0,0,1-1.85,7A2,2,0,0,1,287.23,91.56Z"/>
                <path class="cls-9" d="M287.18,90.86a1.74,1.74,0,0,1-.27-.09l-3-.72-.05,0a2.49,2.49,0,0,1-.9-2.81c0-.18,1.16-5,1.63-6.16a1.6,1.6,0,0,1,2-1l.16,0,3.54.91h0a1.06,1.06,0,0,1,.67.48,3.37,3.37,0,0,1,0,2.17,59.42,59.42,0,0,1-1.62,6.12A1.8,1.8,0,0,1,287.18,90.86Z"/>
              </g>
              <g>
                <path class="cls-8" d="M299.05,94.45a2.07,2.07,0,0,1-.3-.1l-3.4-.82-.06,0a2.82,2.82,0,0,1-1-3.19c.05-.21,1.33-5.67,1.85-7a1.84,1.84,0,0,1,2.28-1.15.52.52,0,0,1,.16.05l4.05,1h0a1.19,1.19,0,0,1,.76.55,3.84,3.84,0,0,1,.05,2.48,67.69,67.69,0,0,1-1.85,7A2,2,0,0,1,299.05,94.45Z"/>
                <path class="cls-9" d="M299,93.75a1.35,1.35,0,0,1-.27-.09l-3-.72-.05,0a2.49,2.49,0,0,1-.9-2.81c0-.18,1.16-5,1.62-6.16a1.63,1.63,0,0,1,2-1l.15,0,3.55.91h0a1,1,0,0,1,.66.48,3.32,3.32,0,0,1,.05,2.17,55.7,55.7,0,0,1-1.63,6.12A1.78,1.78,0,0,1,299,93.75Z"/>
              </g>
              <g>
                <path class="cls-8" d="M310.88,97.34a2.07,2.07,0,0,1-.3-.1l-3.4-.82-.06,0a2.81,2.81,0,0,1-1-3.19c.05-.21,1.32-5.67,1.85-7A1.84,1.84,0,0,1,310.22,85l.17,0,4,1h0a1.21,1.21,0,0,1,.76.55,4,4,0,0,1,.05,2.47,70.46,70.46,0,0,1-1.85,7A2,2,0,0,1,310.88,97.34Z"/>
                <path class="cls-9" d="M310.85,96.64a1.35,1.35,0,0,1-.27-.09l-3-.72,0,0a2.48,2.48,0,0,1-.9-2.81c0-.19,1.17-5,1.63-6.16a1.61,1.61,0,0,1,2-1l.15,0,3.55.92h0a1,1,0,0,1,.68.48,3.44,3.44,0,0,1,0,2.17,60,60,0,0,1-1.63,6.11A1.77,1.77,0,0,1,310.85,96.64Z"/>
              </g>
              <g>
                <path class="cls-8" d="M322.71,100.23a2.07,2.07,0,0,1-.3-.1L319,99.31l-.05,0a2.82,2.82,0,0,1-1-3.2c.05-.2,1.33-5.66,1.85-7A1.85,1.85,0,0,1,322,87.9l.17,0,4.05,1h0a1.18,1.18,0,0,1,.76.55,3.86,3.86,0,0,1,0,2.47,67.14,67.14,0,0,1-1.84,7A2.05,2.05,0,0,1,322.71,100.23Z"/>
                <path class="cls-9" d="M322.67,99.52l-.27-.08-3-.72-.06,0a2.5,2.5,0,0,1-.89-2.81c0-.19,1.16-5,1.62-6.16a1.61,1.61,0,0,1,2-1,.71.71,0,0,1,.15,0l3.56.91h0a1,1,0,0,1,.67.48,3.44,3.44,0,0,1,0,2.17,56.79,56.79,0,0,1-1.63,6.11A1.78,1.78,0,0,1,322.67,99.52Z"/>
              </g>
              <g>
                <path class="cls-8" d="M334.54,103.12a2.62,2.62,0,0,1-.31-.1l-3.4-.82-.06,0a2.81,2.81,0,0,1-1-3.2c.05-.2,1.32-5.66,1.85-7a1.82,1.82,0,0,1,2.27-1.16l.17,0,4,1h0a1.18,1.18,0,0,1,.76.55,4,4,0,0,1,.05,2.47,70.46,70.46,0,0,1-1.85,7A2.05,2.05,0,0,1,334.54,103.12Z"/>
                <path class="cls-9" d="M334.5,102.41a2.09,2.09,0,0,1-.27-.08l-3-.72-.05,0a2.46,2.46,0,0,1-.9-2.8c0-.19,1.16-5,1.62-6.16a1.61,1.61,0,0,1,2-1l.15,0,3.55.92h0a1,1,0,0,1,.66.48,3.3,3.3,0,0,1,0,2.17,57.49,57.49,0,0,1-1.62,6.11A1.78,1.78,0,0,1,334.5,102.41Z"/>
              </g>
              <g>
                <path class="cls-8" d="M346.37,106a2.62,2.62,0,0,1-.31-.1l-3.4-.82-.06,0a2.85,2.85,0,0,1-1-3.2c.05-.2,1.33-5.66,1.86-7a1.82,1.82,0,0,1,2.27-1.16l.18,0,4,1h0a1.1,1.1,0,0,1,.75.55,3.9,3.9,0,0,1,.06,2.47c-.05.19-1.19,5.37-1.85,7A2,2,0,0,1,346.37,106Z"/>
                <path class="cls-9" d="M346.33,105.3a2.09,2.09,0,0,1-.27-.08l-3-.72-.06,0a2.49,2.49,0,0,1-.9-2.81c0-.18,1.17-5,1.63-6.16a1.62,1.62,0,0,1,2-1l.14,0,3.56.91h0a1,1,0,0,1,.67.49,3.46,3.46,0,0,1,.05,2.17,60.68,60.68,0,0,1-1.63,6.11A1.79,1.79,0,0,1,346.33,105.3Z"/>
              </g>
              <g>
                <path class="cls-8" d="M358.2,108.89a1.56,1.56,0,0,1-.31-.09l-3.4-.82-.06,0a2.84,2.84,0,0,1-1-3.2c.05-.2,1.32-5.66,1.86-7a1.82,1.82,0,0,1,2.27-1.16l.17.05,4,1h0a1.12,1.12,0,0,1,.76.54,3.91,3.91,0,0,1,.05,2.48,67.69,67.69,0,0,1-1.85,7A2,2,0,0,1,358.2,108.89Z"/>
                <path class="cls-9" d="M358.16,108.19a2.09,2.09,0,0,1-.27-.08l-3-.72-.06,0a2.49,2.49,0,0,1-.9-2.81c.05-.18,1.16-5,1.63-6.16a1.6,1.6,0,0,1,2-1l.15,0,3.56.91h0a1,1,0,0,1,.67.48,3.4,3.4,0,0,1,0,2.18,57.49,57.49,0,0,1-1.62,6.11A1.79,1.79,0,0,1,358.16,108.19Z"/>
              </g>
            </g>
            <path class="cls-3" d="M54.48,61.13C30.71,51.78,19.57,45.51,14.33,41.7a9.32,9.32,0,0,0-2.4,4.09C9.35,56.19,35.44,84.4,78.65,96.28,230.18,137.94,383.32,146.15,398.08,145c17.15-1.29,25.22-4.74,25.22-4.74s15.64-5.06,17.06-5.7a15.32,15.32,0,0,0,7.9-9.38C325.75,144.2,99.12,78.68,54.48,61.13Z"/>
            <g>
              <path class="cls-10" d="M262.79,130.86a160.94,160.94,0,0,1-11.16-18.16c-31.36-5.84-61.9-12.72-89.42-19.62a130.53,130.53,0,0,0-4.12,22.23c37.88,7.85,74.23,13.78,106.72,18.2C264.12,132.63,263.45,131.75,262.79,130.86Z"/>
              <path class="cls-10" d="M363.51,127.46c4.06,5.48,10,10.09,15.22,14.11,1.47,1.14,3,2.23,4.51,3.28,7.58.31,12.69.35,14.84.19,17.15-1.29,25.22-4.74,25.22-4.74s15.64-5.06,17.06-5.7a15.32,15.32,0,0,0,7.9-9.38C423.48,129.06,394.44,129.44,363.51,127.46Z"/>
            </g>
            <g>
              <path class="cls-11" d="M423.52,127l-37.65-4.9s-4.36-.3-7.24,2c-1.93,1.58-3.68,5.29-1.19,7.63,4.47,4.23,50.34,26.74,50.34,26.74s9.58,4.1,17.29,3.2c0,0,21.15,1.6,15.09-3.6S433,131.31,433,131.31,428.18,127.21,423.52,127Z"/>
              <path class="cls-3" d="M423.52,127l-37.65-4.9s-12,.2-5.79,6c4.47,4.22,47.78,28.16,47.78,28.16a29.73,29.73,0,0,0,10.4,3s28,4,21.9-1.22S433,131.31,433,131.31,428.18,127.21,423.52,127Z"/>
            </g>
            <g>
              <g>
                <path class="cls-12" d="M221.24,117.12s-26.33-10.65-43-13.93l-9.14,41.66L169,145l-2,4.21a214.92,214.92,0,0,0,45.09,5.34c2.3.56,7-6.53,9.55-16.86S223.53,117.68,221.24,117.12Z"/>
                <path class="cls-13" d="M181,129.74c6,1.67,12.09,3,18,5,7.15,2.45,14.32,4.82,21.29,7.69.51-1.5,1-3.09,1.4-4.79,2.52-10.33,1.88-20-.41-20.55,0,0-26.33-10.65-43-13.93L173,127.27C175.63,128,178.22,129,181,129.74Z"/>
                <path class="cls-14" d="M177.29,127.33c-3.1,12.7-7.73,22.48-10.33,21.85s-2.19-11.45.91-24.15,7.73-22.48,10.33-21.85S180.39,114.63,177.29,127.33Z"/>
                <g>
                  <path class="cls-15" d="M176.61,111c-.11-.71-.32-1.14-.62-1.22-1.38-.33-4.23,6.51-6.38,15.29s-2.76,16.17-1.39,16.5c.36.09.82-.31,1.34-1.1-.4-2.48.34-8.45,2-15.29C173.15,118.72,175.13,113.29,176.61,111Z"/>
                  <path class="cls-15" d="M176.61,111c-1.48,2.25-3.46,7.68-5,14.18-1.67,6.84-2.41,12.81-2,15.29,1.48-2.25,3.46-7.68,5-14.18C176.27,119.5,177,113.52,176.61,111Z"/>
                </g>
              </g>
              <g>
                <path class="cls-16" d="M235.44,103.17l-57.14-14s-15.06-2.41-9.81,6.45S233,156.93,233,156.93a40.42,40.42,0,0,0,15,7.77s41.64,13.33,34,2.6S248.68,113,248.68,113,242.51,104.57,235.44,103.17Z"/>
                <path class="cls-17" d="M235.44,103.17l-57.14-14s-15.06-2.41-9.81,6.45S233,156.93,233,156.93a40.42,40.42,0,0,0,15,7.77s41.64,13.33,34,2.6S248.68,113,248.68,113,242.51,104.57,235.44,103.17Z"/>
                <path class="cls-18" d="M282,167.3C274.29,156.58,248.68,113,248.68,113s-6.17-8.46-13.24-9.86l-6.72-1.65c6.69,4.47,11.49,10.65,16.35,17.62,7,10.07,13.69,20.38,20.81,30.37a139.26,139.26,0,0,1,8.31,12.38c1.37,2.43,3,5,2.09,7.87a4,4,0,0,1-.87,1.51C281.13,171.89,284.72,171.14,282,167.3Z"/>
                <path class="cls-19" d="M186.65,93s-17.23-4.8-12.49,2.24,53.53,53.39,53.53,53.39,10.43,11.75,21,13.35c0,0-11.61-6.94-16.77-13.88s-44.81-47.35-44.81-47.35S179.1,93.51,186.65,93Z"/>
              </g>
            </g>
            <path class="cls-20" d="M76.58,17.2a79.89,79.89,0,0,1,36.28-1.9c20.27,3.57,175.07,49.4,175.07,49.4L113.76,19.62s-7.9-2.9-13.41,2.8Z"/>
          </g>
          <path class="cls-20" d="M166.9,67.25S321.68,101,372.63,109.41C372.63,109.41,260.2,100.63,166.9,67.25Z"/>
        </g>
      </g>
    </g>
  </g>
</svg>
