<svg id="Layer_1" data-name="Layer 1" xmlns="http://www.w3.org/2000/svg" width="387.37" height="308.37" viewBox="0 0 387.37 308.37">
  <defs>
    <style>
      .cls-1 {
        fill: #ff0;
      }

      .cls-2 {
        fill: #052d05;
      }

      .cls-3 {
        fill: #0b4712;
      }

      .cls-4 {
        fill: #6da541;
      }

      .cls-5 {
        fill: #5c8c31;
      }

      .cls-6 {
        fill: #547c29;
      }

      .cls-7 {
        fill: #063508;
      }

      .cls-8 {
        fill: #d8dc3a;
      }

      .cls-9 {
        fill: #feffff;
      }

      .cls-10 {
        fill: #d82a2b;
      }

      .cls-11 {
        fill: #e8363f;
      }

      .cls-12 {
        fill: #c6d62b;
      }

      .cls-13 {
        fill: #c4121b;
      }

      .cls-14 {
        fill: #ce1527;
      }

      .cls-15 {
        fill: #330e0b;
      }

      .cls-16 {
        fill: #511918;
      }

      .cls-17 {
        fill: #a06665;
      }
    </style>
  </defs>
  <g>
    <path class="cls-1" d="M374.4,173.38l-85.08-12.22a151,151,0,0,0-8.66-67.36c-.23-.6-.46-1.21-.68-1.77a112.23,112.23,0,0,0-22.5-35.61l-.09-.1A135.26,135.26,0,0,0,228,32.88c-2.53-1.51-5.22-3-8-4.48-3.34-1.76-6.83-3.45-10.35-5-2.91-1.3-6-2.59-9.17-3.83-.92-.36-1.83-.7-2.72-1-5.09-1.9-10.19-3.57-15.15-4.95-4.15-1.16-8.34-2.17-12.44-3a141.36,141.36,0,0,0-26-2.75h-1c-.7,0-1.4,0-2.09,0l-.86,0c-.74,0-1.47,0-2.21.06L137,8c-.67,0-1.34.06-2,.11l-1.14.08-1.93.16-1.16.12-1.92.21-1.13.14-1.93.27-1.11.16c-.66.1-1.32.22-2,.33l-1,.18c-.72.13-1.43.28-2.16.43l-.63.12-.23,0-1.48.33-1.24.29-1.46.36-1.24.32-1.44.39-1.25.36-1.42.43-1.3.41-1.37.44-1.2.42-1.44.51-1.38.51-1.25.48c-.88.34-1.75.7-2.62,1.06-2.32,1-4.69,2.08-7,3.27C58.39,36.7,32.51,65.51,18.62,101c0,0-.1.26-.1.26a154.18,154.18,0,0,0-7.89,85.52s0,.05,0,.07A145.22,145.22,0,0,0,27.49,232l.1.18c.59,1,1.2,2,1.85,3.08s1.28,2.06,1.95,3.09c.34.53.7,1,1.06,1.58l.25.37c1.1,1.63,2,3,2.95,4.21a134.66,134.66,0,0,0,27.69,28.15l.5.38c2.71,2,5.49,3.94,8.26,5.69,2.47,1.57,5.07,3.09,7.71,4.53a133,133,0,0,0,15.36,7.13c3.82,1.48,7.76,2.81,11.72,3.94,2.82.81,5.73,1.53,8.63,2.15s5.57,1.1,8.33,1.51l1.27.18a133.4,133.4,0,0,0,18.21,1.26c3.56,0,7.18-.15,10.75-.44a137.58,137.58,0,0,0,28.11-5.23c2.63-.78,5.35-1.68,8.11-2.68,25.16,7.84,43,9.51,53.7,9.51h0a61.66,61.66,0,0,0,9-.54c2.83-.41,5.82-.93,9.16-1.58l1.19-.25,1.65-.33c29.54-5.1,47.5-17.23,53.4-21.22l1.32-.88c1.13-.71,2.16-1.39,3.14-2.08l.34-.25,0,0a4,4,0,0,0,.41-.31c4.88-4.07,9.26-7.75,13.53-11.72l2.62-2.47a104,104,0,0,0,14.48-16.44c.69-1,1.36-2,2-3,5.29-7.72,11.18-17.11,14.91-28.3.42-1.07.82-2.14,1.22-3.21a142,142,0,0,0,7-27.75,6,6,0,0,0-5.08-6.82Z"/>
    <g>
      <g>
        <path class="cls-2" d="M273.78,200.55a152,152,0,0,1-12.2,24.57,145.68,145.68,0,0,1-51.4,50.1A137.74,137.74,0,0,1,180.49,288a131.32,131.32,0,0,1-26.89,5,126.83,126.83,0,0,1-27.65-.78l-1.21-.17q-4-.58-8-1.44-4.12-.88-8.25-2.06-5.62-1.61-11.19-3.77a126.36,126.36,0,0,1-14.66-6.8q-3.78-2.06-7.36-4.33c-2.71-1.71-5.34-3.53-7.89-5.43l-.46-.35a128.63,128.63,0,0,1-26.48-26.91Q38.38,238,36.41,235t-3.73-6.07h0a139.94,139.94,0,0,1-16.16-43.27h0a148.18,148.18,0,0,1,7.59-82.19l.06-.16h0c13.83-35.44,39.46-62.54,70-78q3.32-1.68,6.67-3.1a105.09,105.09,0,0,1,19.23-6,111.67,111.67,0,0,1,24-2.34A134,134,0,0,1,169,16.47q6,1.19,12,2.88c4.89,1.36,9.78,3,14.67,4.79l2.65,1c3,1.18,6,2.41,8.89,3.72q5.13,2.28,10,4.85,3.93,2.07,7.7,4.32a128.93,128.93,0,0,1,28.2,22.48h0a105.85,105.85,0,0,1,21.3,33.71c.22.56.44,1.11.64,1.67C287,127.94,287.54,165.16,273.78,200.55Z"/>
        <path class="cls-3" d="M256.41,193.48a143.89,143.89,0,0,1-11.62,23.42q-2.59,4.22-5.43,8.18a138.45,138.45,0,0,1-43.55,39.56q-5.52,3.18-11.3,5.8a128.58,128.58,0,0,1-17,6.33c-.75.23-1.51.44-2.27.65a125.11,125.11,0,0,1-23.36,4.13q-3.93.31-7.88.37a119.36,119.36,0,0,1-18.47-1.12l-1.15-.16-1.51-.23q-3-.5-6.08-1.14c-2.62-.57-5.25-1.22-7.86-2q-5.35-1.51-10.66-3.58c-1.14-.44-2.25-.9-3.36-1.37Q79.43,270,74.3,267.24c-2-1.07-3.88-2.18-5.76-3.35-.42-.25-.84-.52-1.25-.78q-3.87-2.44-7.52-5.18l-.44-.33A122.31,122.31,0,0,1,36.41,235q-1.95-3-3.73-6.07h0a139.94,139.94,0,0,1-16.16-43.27h0a148.18,148.18,0,0,1,7.59-82.19l.06-.16h0c13.83-35.44,39.46-62.54,70-78q3.32-1.68,6.67-3.1a105.09,105.09,0,0,1,19.23-6,108.22,108.22,0,0,1,12.75-.62,128.17,128.17,0,0,1,23.69,2.51q5.7,1.14,11.42,2.74,4.46,1.24,8.9,2.76c1.69.58,3.39,1.18,5.08,1.81.85.31,1.69.63,2.53,1l.21.08q4.2,1.65,8.25,3.45c.82.37,1.64.74,2.44,1.12q3.63,1.68,7.1,3.51l.11.06c2.12,1.11,4.19,2.26,6.23,3.46l1,.6c1,.59,2,1.2,3,1.81q5,3.18,9.68,6.73A115.88,115.88,0,0,1,236.7,60h0a102.17,102.17,0,0,1,6.78,8A100,100,0,0,1,257,92.16c.21.53.41,1.06.61,1.59q1.72,4.62,3.12,9.37h0A140.46,140.46,0,0,1,256.41,193.48Z"/>
        <path class="cls-4" d="M233.24,134.84c-2.74,14.69,3.18,28-6.64,41,.24-.3-.46,1.19-.43,1-7.44,18.19-1.46,40.84-14.13,59.19-4.13,5.94-9.26,13.38-14.51,18.36-4.25,3.87-9,7.73-11.77,12.77a12.53,12.53,0,0,0-1.25,3.26,128.58,128.58,0,0,1-17,6.33c-.75.23-1.51.44-2.27.65a10.65,10.65,0,0,0,1.4-3.3c3-13.65,13.3-19.63,18.35-32.63,3.83-11.74,4.69-20.13,9-32,3.76-10.7-2.87-23.2,7.2-31.28,3.77-3.16,4.75-7.26,2.07-11.42-3.09-10.25,1.91-10.59,6.93-19.66,4.11-5-3.76-12.2-4.23-17.2-.39-4.29,2.85-8.52,4.59-12.23,2.3-4.87,3-8.29-.78-13.32-5.69-9,3.16-13.8.25-20.57-.95-2.86-5-18.73-6-26.38-.36-3-.24-4.75.76-3.9a34.41,34.41,0,0,1,4.3,4.56c9.19,11.44,19.32,34.11,17.47,47.39C226.58,115.64,234.12,123.91,233.24,134.84Z"/>
        <path class="cls-5" d="M115.54,280.8A119.36,119.36,0,0,0,134,281.92c-2.35,3.09-5.36,7.07-8.06,10.26l-1.21-.17q-4-.58-8-1.44-4.12-.88-8.25-2.06c1.31-2.44,2.89-5.26,4.35-8.1l1.51.23Z"/>
        <path class="cls-5" d="M184.51,270.44c-1.27,5.57,1.44,10.77-3,16.35-.24.31-.57.71-1,1.16a131.32,131.32,0,0,1-26.89,5c1.37-5.79,8.44-10.3,11.65-15.54.76-.21,1.52-.42,2.27-.65A128.58,128.58,0,0,0,184.51,270.44Z"/>
        <path class="cls-4" d="M194,97.27c.16,6.54,2.31,19.66,4.59,25.63,2.13,5.91-7.19,19.11-9.08,24.85-4.16,10.14,1.89,11.48-1.76,22.75-2.5,5.67-12.34,6.4-13.25,26-1.45,23.81-7.2,30.24-14.17,41.64-11.91,19-17.74,33.1-23.5,40.17-.71.88-1.68,2.15-2.81,3.62a119.36,119.36,0,0,1-18.47-1.12l-1.15-.16-1.51-.23a54,54,0,0,0,3.46-8c1.81-5,6.67-9.14,8.22-14.24,1.92-4.66,7.24-6.38,9.83-10.88,4.49-7.77-2.25-23.07,4.33-28.05,7.5-5.72,16.15-4.15,10.57-16.63-2.76-6,1.54-10.71,4.4-15.33,4.6-7.46-3.51-13.94,1-20.61,4.7-7.08,6.09-3.37,6.86-12.66.49-6.21,1.4-12.44,4-18.13,4.14-9.16,8.32-11.22,8.9-21.14.58-11.5,3.29-23,11.46-33.41,6.75-8.57,6.87-19.91,8-26.83,0-.15.05-.3.07-.45.78-4.4,1.83-2.6,2.81,1.5h0c1.6,6.77,3,19.79,2.59,21.39C198.32,83.6,193.89,90.49,194,97.27Z"/>
        <path class="cls-4" d="M202.59,34.55a34,34,0,0,0-2.77,4,1.74,1.74,0,0,0-.1.19c-2.34,3.95-3.53,2.32-4-1.58a51.18,51.18,0,0,1-.3-6.18q3.63,1.68,7.1,3.51Z"/>
        <path class="cls-5" d="M84.92,272.35a21.14,21.14,0,0,1-2.24,5.59q-3.78-2.06-7.36-4.33c-2.71-1.71-5.34-3.53-7.89-5.43.32-1.36.7-2.82,1.11-4.29,1.88,1.17,3.8,2.28,5.76,3.35Q79.43,270,84.92,272.35Z"/>
        <path class="cls-4" d="M184.29,49.68c-2.93,3.27-10.2,8.88-12,15-.25.86-.52,1.7-.8,2.53h0c-4.46,13.09-12.74,22.35-19.74,33.54-6.29,10.1-3.15,24.35-13.29,32.18-4.08,3.18-8.53,6.73-10.48,11.65-1.09,2.78-.44,5.71.07,8.54.59,3.26,1,6.4-1.67,9a.05.05,0,0,1,0,0h0l0,.05-.12.09c-11.09,8.42-11.1,15.33-13.42,28.87-2.38,15-8.52,18.15-18.66,28.08-7.09,7.8-.5,21.43-3.75,30.56-3.33,9.38-3.93,16.78-5.44,22.45Q79.43,270,74.3,267.24c-2-1.07-3.88-2.18-5.76-3.35,1.44-5.19,3.25-10.44,4.23-11.73,7.08-10.47-6.89-17.73-2.49-29,3.52-8.84,5-18.73,8.79-26.83,2.38-5,8.59-7.08,10.51-12.17,1.52-4-.11-7.9-1.41-11.84-.87-2.66-1.59-5.36-1.06-8.13,1-5.35,10.27-7.5,13.34-11.78,3.57-5,5-11.14,6.4-17.05,2.73-11.88,6.37-21.42,14.44-30.86,3.55-4.14,7.21-10.3,11-13.93,4.8-4.58,12.48-4.91,15.52-11.06,2-5.44,11.42-15.8,20.32-23.42,4.82-4.13,9.49-7.46,12.74-8.76a6.63,6.63,0,0,1,2.54-.59C186.21,46.75,185.93,47.85,184.29,49.68Z"/>
        <path class="cls-4" d="M176.87,43.28c-2.76,1.47-8.1,3.44-12.84,5.75a40.06,40.06,0,0,0-5.69,3.24c-9.48,7-12.79,13.25-22.59,19.77A19.5,19.5,0,0,0,133,78.47c-2.2,6.71-8.31,9-13.15,13.23-6.56,5.56-11,22.66-17.4,28.45l0,0a37.41,37.41,0,0,0-7.53,5.22c-.75.67-1.48,1.37-2.17,2.09-2.28,2.3-4.68,4.18-6.2,7-.53,1-1,2-1.51,3.05s-1,2.08-1.54,3.1c-.75.94-1.48,1.88-2.21,2.82s-1.43,1.88-2.12,2.84c-5.51,7.61-10.79,15.38-14.81,23.87a11.25,11.25,0,0,1-1.9,2.85c-2.21,2.6-5.23,5-5.79,8.78-.23,1.13-.38,2.3-.5,3.48-.72,7.14-.32,14.64-7.59,21.88-6.56,6.7-7.81,8.89-6.14,20.47a25.11,25.11,0,0,1-1.87,13.3,133.71,133.71,0,0,1-7.81-12h0c.18-2.79.48-5.74.9-8.72,1.69-14,5.88-28.4,5.78-31.38-.51-10.09-1.33-16.37,4-24.59l.32-.48a41.63,41.63,0,0,0,2.52-4.22c3.25-9,8.58-16.77,13-25a37.57,37.57,0,0,0,4.28-13.43c.21-1.38.37-2.8.5-4.24a6.58,6.58,0,0,1,4.08-6A47.21,47.21,0,0,1,72.48,109c9.46-3.46,12.33.35,14.28-13.63,1.39-9.26,7.06-16,16.74-18.21,14.24-3.1,16.81-9.75,25-20.25C133,50.73,145.16,44.7,157,41.8c6.74-1.65,13.38-2.29,18.45-1.36a18.25,18.25,0,0,1,2.67.69C179.36,41.61,178.65,42.34,176.87,43.28Z"/>
        <path class="cls-4" d="M175.94,37.8l-.11,0c-2.88-.73-16.86-2.06-27-.93a29.46,29.46,0,0,0-7.25,1.58c-5.94,2.33-11.06,3.63-14.13,3.37-12.84-.15-19.72,8.92-29.94,13.33-8.87,4.05-9.77,8.15-16.42,15.14-4.08,4.42-8.9,8-13.76,11.48-7.14,5.34-3.75,4.45-7.42,11.57-3.21,6.78-11.46,5-14.89,12.81-2.07,4.87-3.24,10.67-8.62,13-11.15,5.13-5.73,9.79-5.14,18.38a8.71,8.71,0,0,1-1,4.45C27.29,148.06,19,154.67,18,162.08c-.69,5.23,1.87,9.49,1,14.48-.75,3-1.71,6-2.52,9.11a148.18,148.18,0,0,1,7.59-82.19l.06-.16h0c1.43-1.68,3-3.42,4.74-5.25C43.36,84.21,40.63,77.21,44.48,71.73c8.45-9.37,11.57-5.54,19.34-14C68.23,53.35,78.55,40,84.92,39.39s19.59-3.22,26.08-5.25c35.55-11.13,51.33-.45,58.45-.16a18.94,18.94,0,0,1,8.11,2.28C180.22,37.72,180.73,39.13,175.94,37.8Z"/>
        <path class="cls-4" d="M189,35.6c.21,1.82-.39,2.34-1.86-.25-.18-.32-.37-.69-.58-1.1-.73-1.47-4.73-5.93-9.65-10.69,1.69.58,3.39,1.18,5.08,1.81.85.31,1.69.63,2.53,1l.21.08a5.3,5.3,0,0,0,.34.45A18.58,18.58,0,0,1,189,35.6Z"/>
        <path class="cls-5" d="M270.32,179.79c.26,5.36,5.19,12.24,3.25,17.65-2.53,6.9-9.57,8.82-11.64,15.88-1.19,3.87-.27,7.79-.35,11.8a145.68,145.68,0,0,1-51.4,50.1l.16-.26c3.65-5.72,7.65-11.54,9.27-13.83,5.58-7.62,17.74-12.84,19.17-23.15.38-5.18.38-9.21.58-12.9q2.83-4,5.43-8.18a143.89,143.89,0,0,0,11.62-23.42,140.46,140.46,0,0,0,4.32-90.36,22.22,22.22,0,0,1,3.49,4.72c2.56,4.82,4.39,12.17,6.21,17.56,4.16,12.28,4.18,23.26,2,35.61C271.37,167.17,270,173.48,270.32,179.79Z"/>
        <path class="cls-4" d="M256.41,193.48a143.89,143.89,0,0,1-11.62,23.42q-2.59,4.22-5.43,8.18a43.27,43.27,0,0,1,5.2-19.18c5.43-11.73,8.59-17.77,4.67-30a.19.19,0,0,0,0-.07c-1.39-6.37,5-9.43,5.41-15.74.32-5.14-1.76-10.1-3.81-14.43-5.16-10.58-2.14-19.62-5.45-30.86-4.16-13.2-9.09-20.41-14.24-34.23-3.43-9.18-11.25-17.59-16.29-22.79-3.42-3.53-5.56-5.58-4.14-5.38S215,54,218.23,56c8.39,5.24,20.21,14.77,23.61,20.06,4.84,7.32,9.75,11.42,11,16.36,1.47,4.77,4.89,7.42,7.92,10.68h0A140.46,140.46,0,0,1,256.41,193.48Z"/>
        <path class="cls-5" d="M198.29,25.14c3,1.18,6,2.41,8.89,3.72-1.66,2-3.25,4-4.59,5.69l-.11-.06Q199,32.66,195.38,31c0-2.22.11-4.58.26-6.84Z"/>
        <path class="cls-5" d="M224.89,38a99.66,99.66,0,0,0-12.12,2.39c-1-.61-2-1.22-3-1.81l-1-.6c2.38-1.38,5.28-2.87,8.37-4.3Q221.12,35.78,224.89,38Z"/>
        <path class="cls-5" d="M181,19.35a56.12,56.12,0,0,0,3.72,7.06l-.21-.08c-.84-.33-1.68-.65-2.53-1-1.69-.63-3.39-1.23-5.08-1.81-2.49-2.41-5.23-4.89-7.89-7.09Q175,17.66,181,19.35Z"/>
        <path class="cls-4" d="M212.77,40.42c-2.12.54-4,1.07-5.54,1.49-3.17.85-4.86,1.23-4.16.31a9.4,9.4,0,0,1,1.68-1.57A41.05,41.05,0,0,1,208.82,38l1,.6C210.82,39.2,211.8,39.81,212.77,40.42Z"/>
        <path class="cls-5" d="M274.39,94.22q-.56-.15-1.14-.36c-7-2.34-9.42-17.07-17.44-21.8-4.05-2.4-8.42-2.11-12.33-4a102.17,102.17,0,0,0-6.78-8h0a115.88,115.88,0,0,0-14.25-12.88,118,118,0,0,1,11.46,3.68c4.7,1.44,11.31,4.91,19.18,9.68h0A105.85,105.85,0,0,1,274.39,94.22Z"/>
        <path class="cls-4" d="M243.48,68.08a12.75,12.75,0,0,1-1.39-.77c-4.28-3.24-8.34-7.07-13.14-9.85-4-2.36-7.49-4.26-10.38-5.8-10.83-5.76-13.79-6.44-9.43-6.79a18.49,18.49,0,0,1,3.11.14,77.43,77.43,0,0,1,10.2,2.14A115.88,115.88,0,0,1,236.7,60h0A102.17,102.17,0,0,1,243.48,68.08Z"/>
        <path class="cls-4" d="M183.1,36.44c-.26.24-1.13-.28-2.58-1.08a32.24,32.24,0,0,0-8.25-3.3c-6.59-1.65-13.37-3.6-16.05-4.41-9-2.88-23.11-9.6-33.34-7.68-11.52,3-12.71,3.46-22,2.22a107.54,107.54,0,0,1,43.24-8.36c8.32,3.84,15.35,8.6,23,9.89,6.91,1.17,14.94,8.23,16.07,11.43C183.42,35.72,183.4,36.17,183.1,36.44Z"/>
        <path class="cls-2" d="M218.88,55a3.43,3.43,0,0,1-.65,1c-3.27-2-6-3.43-7.54-3.66s.72,1.85,4.14,5.38a20.31,20.31,0,0,1-5.72.35,34.41,34.41,0,0,0-4.3-4.56c-1-.85-1.12.88-.76,3.9a56.76,56.76,0,0,1-7.25-1.92h0c-1-4.1-2-5.9-2.81-1.5,0,.15-.05.3-.07.45a56.85,56.85,0,0,1-9.63-4.78c1.64-1.83,1.92-2.93-.86-3a6.63,6.63,0,0,0-2.54.59,21.41,21.41,0,0,1-4-4c1.78-.94,2.49-1.67,1.26-2.15a18.25,18.25,0,0,0-2.67-.69,3.6,3.6,0,0,1,.1-2.14,2.94,2.94,0,0,1,.27-.53l.11,0c4.79,1.33,4.28-.08,1.62-1.54a9.84,9.84,0,0,1,3-.9c1.45.8,2.32,1.32,2.58,1.08s.32-.72.11-1.29a28.09,28.09,0,0,1,3.89.2c1.47,2.59,2.07,2.07,1.86.25a51.44,51.44,0,0,1,6.72,1.56c.51,3.9,1.7,5.53,4,1.58a1.74,1.74,0,0,1,.1-.19l.45.17c1.56.6,3.06,1.25,4.48,1.93a9.4,9.4,0,0,0-1.68,1.57c-.7.92,1,.54,4.16-.31a46.65,46.65,0,0,1,5,3.1,18.49,18.49,0,0,0-3.11-.14c-4.36.35-1.4,1,9.43,6.79A4.25,4.25,0,0,1,218.88,55Z"/>
        <path class="cls-6" d="M207.23,41.91c-3.17.85-4.86,1.23-4.16.31a9.4,9.4,0,0,1,1.68-1.57C205.61,41.06,206.44,41.47,207.23,41.91Z"/>
        <path class="cls-6" d="M176.87,43.28a7.75,7.75,0,0,1-1.41-2.84,18.25,18.25,0,0,1,2.67.69C179.36,41.61,178.65,42.34,176.87,43.28Z"/>
        <path class="cls-6" d="M175.94,37.8l-.11,0a4.24,4.24,0,0,1,1.73-1.51C180.22,37.72,180.73,39.13,175.94,37.8Z"/>
        <path class="cls-6" d="M184.29,49.68a37.28,37.28,0,0,1-3.4-2.39,6.63,6.63,0,0,1,2.54-.59C186.21,46.75,185.93,47.85,184.29,49.68Z"/>
        <path class="cls-6" d="M180.52,35.36a18.48,18.48,0,0,1,2.69-.21c.21.57.19,1-.11,1.29S182,36.16,180.52,35.36Z"/>
        <path class="cls-6" d="M187.1,35.35c.61.07,1.23.15,1.86.25C189.17,37.42,188.57,37.94,187.1,35.35Z"/>
        <path class="cls-6" d="M196.8,55.51c-.87-.29-1.75-.61-2.63-.95l-.25-.1c0-.15.05-.3.07-.45C194.77,49.61,195.82,51.41,196.8,55.51Z"/>
        <path class="cls-7" d="M195.68,37.16c1.36.4,2.74.86,4.14,1.39a1.74,1.74,0,0,0-.1.19C197.38,42.69,196.19,41.06,195.68,37.16Z"/>
        <path class="cls-6" d="M204.81,53.53a34.41,34.41,0,0,1,4.3,4.56,39.54,39.54,0,0,1-5.06-.66C203.69,54.41,203.81,52.68,204.81,53.53Z"/>
        <path class="cls-6" d="M218.57,51.66c-10.83-5.76-13.79-6.44-9.43-6.79a18.49,18.49,0,0,1,3.11.14C215.38,47.26,217.61,49.58,218.57,51.66Z"/>
        <path class="cls-6" d="M210.69,52.36c1.52.23,4.27,1.62,7.54,3.66a6.47,6.47,0,0,1-3.4,1.72C211.41,54.21,209.27,52.16,210.69,52.36Z"/>
      </g>
      <g>
        <g>
          <path class="cls-2" d="M373.54,179.32a134.89,134.89,0,0,1-6.74,26.57c-.39,1.08-.8,2.15-1.22,3.22-3.22,9.74-8.36,18.41-14.27,27-.62,1-1.26,1.92-1.92,2.86a98.11,98.11,0,0,1-13.69,15.52c-.85.82-1.7,1.63-2.57,2.43-4.3,4-8.84,7.8-13.29,11.51-.95.67-1.92,1.3-2.89,1.92-3.91,2.47-21.31,15.87-52.55,21.26-1,.18-2,.41-3,.6-3,.58-5.94,1.11-8.88,1.54-.87.14-23.52,3.65-66.31-10.78-11.24-3.8-20.93-10.87-30-18.11-1-.76-1.9-1.54-2.83-2.32-2.93-2.82-5.76-5.74-8.54-8.73-.7-.74-1.39-1.49-2.09-2.24s-1.29-1.5-1.95-2.24-1.32-1.48-2-2.21-1.32-1.58-2-2.38-1.28-1.61-1.91-2.42c-2.33-2.69-4.62-5.43-6.79-8.25-.72-.94-1.43-1.89-2.12-2.86-1.8-2.17-15.88-30.61-17.18-42.12-.14-1.2-.46-2.37-.67-3.57a150.53,150.53,0,0,1-3-19.65c-.09-1.1-.15-2.21-.19-3.31a108.82,108.82,0,0,1,1-17.21c.16-1.16.33-2.31.52-3.51,0-.29.07-.59.11-.88Z"/>
          <path class="cls-8" d="M367.76,182.8c-.14.82-.3,1.62-.46,2.43-.48,2.4-1,4.78-1.65,7.12-.3,1.18-.62,2.35-1,3.5s-.6,2.25-1,3.38c-1.33,2.84-2.58,5.74-3.81,8.66l-1.23,2.92A113.28,113.28,0,0,1,341.89,240l-1.71,2.26-1.73,2.24c-.7.87-1.41,1.74-2.13,2.6q-3.22,3.85-6.69,7.59c-.74.72-1.51,1.43-2.3,2.13-3.92,3.44-35.35,23.26-37.35,23.28-1,.24-2,.44-3,.61-5,.85-22.89,6.34-25.76,6.75-1.27.22-2.54.41-3.81.58a129.89,129.89,0,0,1-23.4,1l-2-.11c-9.61-2.29-19.57-3.59-29.3-5.89-1.08-.26-2.15-.57-3.24-.81-8.61-1.92-23.19-6.74-32.8-14.71l-2.61-2-2.61-2c-.92-.76-1.83-1.54-2.72-2.34-3.56-3.17-6.93-6.64-10.28-10.1-.84-.85-1.67-1.7-2.48-2.55q-2.41-2.58-4.7-5.28c-.83-1-1.64-2-2.43-3a55.7,55.7,0,0,1-5.73-9.48c-.33-.7-.66-1.42-1-2.17A89,89,0,0,1,126,220c-.61-1-1.21-2-1.8-3-1.59-3.3-3.1-6.65-4.49-10q-.69-1.71-1.35-3.42c-1.69-5.64-3.69-11.21-5.29-16.82-.31-1.14-.61-2.27-.88-3.42-1.81-11-1.84-22-1.24-33,.07-1,.16-2.06.26-3.09.17-1.83.39-3.68.65-5.53L368.51,178.6A26.55,26.55,0,0,1,367.76,182.8Z"/>
          <path class="cls-9" d="M356.72,202.43c-.48,1-1,2-1.53,3a69.19,69.19,0,0,1-5.66,8.56c-.55,1-1.09,2-1.63,3-1.8,3.32-3.59,6.64-5.34,10-.45.84-.88,1.68-1.32,2.52a69.52,69.52,0,0,1-3.42,6.11c-.61,1-1.25,1.93-1.91,2.88a77.1,77.1,0,0,1-11,11.94c-.81.72-1.63,1.42-2.46,2.11a16,16,0,0,1-4.31,3.11c-4.07,2.14-7.92,4.26-11.66,6.41-.93.54-10.12,10.56-33.56,16.51-.84.21-1.68.44-2.53.62s-1.69.33-2.54.44l-3.06.66a106.55,106.55,0,0,1-14.95,2.22c-1.08.08-2.16.14-3.24.19a146.4,146.4,0,0,1-22.59-1c-1.16-.15-2.3-.3-3.43-.47-10.16-1.51-20.13-4.31-28.74-9.56-.91-.49-1.81-1-2.71-1.43-6.33-3.2-12.93-5.66-19.28-8.45-.93-.53-1.82-1.09-2.69-1.67-7.76-5.24-13.53-12.81-19.49-20.22l-2.09-2.43c-2.08-2.42-4.14-4.83-6.2-7.18l-1.67-2.92-1.63-2.91c-.54-1-1.07-1.94-1.6-2.94-1.93-4.08-4-8.1-6.06-12.16-.5-1-1-2-1.47-3.09a16.87,16.87,0,0,1-1.61-5.24,82,82,0,0,0-2-9.94c-.29-1.06-.59-2.11-.93-3.18a54,54,0,0,1-4.35-11.69c-.25-1-.46-2-.64-3a12.89,12.89,0,0,1-.27-5.47c0-8.63,1.94-16.4,1.32-25.06l243.44,35C360.48,186,360.76,194.83,356.72,202.43Z"/>
          <path class="cls-10" d="M341.89,196.94a11.06,11.06,0,0,0-.52,2.57c-.86,4.25-1.76,8.38-4.45,11.91-.61.94-1.25,1.87-1.91,2.77-2,2.73-4.19,5.34-6.33,8-.55.8-1.1,1.61-1.63,2.42a50,50,0,0,0-4.22,7.72,12.58,12.58,0,0,1-5.25,5.87c-.9.71-1.82,1.4-2.76,2.08a125.93,125.93,0,0,0-10.41,8.89,27.67,27.67,0,0,1-2.45,2c-5.86,4.18-13,6.6-19.59,9.69-1,.53-2,1-3.05,1.54-2,1-4.11,1.89-6.23,2.69-1.09.27-2.18.5-3.28.7a55.4,55.4,0,0,1-6.77.77c-1.25.17-2.46.33-3.67.47-3.59.44-7.21.77-10.79,1.17-1,.14-2.05.28-3.07.4-3.07.37-6.15.67-9.22.85-1.22-.05-2.42-.14-3.61-.29a37.13,37.13,0,0,1-13.74-4.26c-1-.39-2-.76-3-1.11a118.62,118.62,0,0,0-16.11-4.21L197,259a38.29,38.29,0,0,1-14.69-4.91c-.89-.51-1.75-1-2.59-1.59-.52-.33-1.17-.64-1.79-1s-1-1-1.61-1.31c-13.73-7.53-25.33-22.44-25.69-23.3-1.8-4.3-9-16.23-9.56-17.21-4.72-5.59-5.13-12.7-6.78-19.59-.24-1-.43-2-.62-3-.84-3.24-1.7-6.48-2.4-9.74-.23-1.08-.45-2.17-.64-3.26a23.72,23.72,0,0,1-.58-5.7c0-5.41,1.44-10.37,2.07-15.43q.19-1.51.24-3.06a32.57,32.57,0,0,1-.31-5.19l215.79,31C346.72,181.87,344.67,191.05,341.89,196.94Z"/>
          <path class="cls-11" d="M334.29,176.78a14.32,14.32,0,0,1-.74,2.27c-1.52,3.71-4.33,7.06-6.29,10.37-.39.58-.77,1.17-1.12,1.78a13.38,13.38,0,0,0-.93,1.9c-1.54,4-.14,7.76,0,11.66.14,1.32-.64,2.18-1.14,3.38a15,15,0,0,1-1.62,1.38c-3.95,2.92-8.78,4.31-10.78,8.77-.35.67-.69,1.34-1,2-1,2-2,4.12-3,6.24a18.62,18.62,0,0,1-1.57,1.63c-3.32,3.06-7.59,5.1-11.75,7.34-.64.52-1.29,1.06-1.93,1.62a61.1,61.1,0,0,0-5.67,5.53,6.18,6.18,0,0,1-2.9,1.86c-.74.34-1.5.64-2.28.91-3.9,1.34-8.25,1.93-12.42,3.1-.76.22-1.53.4-2.3.56l-2.26.59-1.9.47-1.9.45c-10,5.37-20.51,1.91-30.75,1.92-.85,0-1.67,0-2.49-.05-8.19-.35-16-2.82-23.73-5.93l-2.11-.86c-5.35-3.36-9.43-8.81-15.24-10.71l-1.89-.42a32.52,32.52,0,0,1-5.68-1.55,17,17,0,0,1-6.87-4.54,21.46,21.46,0,0,1-2.52-3.39c-2-2.79-2.22-6.05-3-9.41a12.22,12.22,0,0,0-7.68-8.87,12.89,12.89,0,0,1-2-1.06,8.16,8.16,0,0,1-1.68-1.42c-.79-5.56-3.62-10.14-5.76-15-.31-.69-.6-1.39-.86-2.12a3.68,3.68,0,0,1-.44-3.64c1.78-6.1,2.34-11.42,1.27-16.79-.16-.77-.35-1.55-.57-2.33A28.41,28.41,0,0,1,145.74,147c0-.12,0-.23,0-.35l188.83,27.12A14.4,14.4,0,0,1,334.29,176.78Z"/>
          <path class="cls-10" d="M311.86,172a17.87,17.87,0,0,1-.79,1.88,31.47,31.47,0,0,0-2.46,5.68c-.29.85-.56,1.66-.89,2.46a16.17,16.17,0,0,1-13,11.23c-1.36.45-2.22,2-2.77,3.49a13.64,13.64,0,0,0-.26,2.37c-.11,3.95,1.16,7.9-.45,11.37a8,8,0,0,1-1.5,2.12,12.33,12.33,0,0,1-5.48,2.91c-.69.19-1.4.37-2.13.53-9-3.52-14.83,1.15-19,9a9.87,9.87,0,0,1-3.17,2.44,2.65,2.65,0,0,1-1.28.65,6.19,6.19,0,0,1-2.3-.07c-3.44-.37-6.55-1.9-9.71-3.27-.63-.28-1.26-.55-1.9-.8a4.48,4.48,0,0,0-4-.56c-6.07,2.76-10.76,5.87-15.57,4.85a6.47,6.47,0,0,1-2.06-.86c-1.45-1.68-2.81-3.75-4.24-5.69-.48-.64-1-1.27-1.48-1.87-3.69-4.53-10.36-3.22-15.67-2.36-2.52.31-4.65-2.13-6.27-5.08-.33-.59-.63-1.2-.91-1.82-2-8.35-7.59-16.61-16.71-18.57a5.84,5.84,0,0,1-2.3-1.22c-1-.87-1.1-2.19-1.24-3.5.14-5.49,2.55-11,1.28-15.7-.22-.68-.43-1.35-.6-2s-.38-1.4-.55-2.11c-1.79-4.73-.11-9.68-.33-14.89a3.62,3.62,0,0,0-.38-1.42c-.1-.2-.21-.4-.33-.61l138.8,19.94A3.86,3.86,0,0,1,311.86,172Z"/>
          <path class="cls-11" d="M273.66,181.07c-1,.85-3.7,1-5.2,2.19-.6.24-1.19.47-1.75.73-3.37,1.55-5.45,4.4-5.43,9.65-.09.64-1.09.82-1.72.72a8.43,8.43,0,0,0-2.45-.56c-5.45,1.38-9.16-4.34-14.38-4.12a3.7,3.7,0,0,0-1.58.58,5.9,5.9,0,0,0-1.22,1.13c-1.92,1.83-3.24,6.5-5.24,4.59-4.76-5.22-8.39-7-15.15-7.36-2.27,0,1.64-4.63,1.27-7.89a2.71,2.71,0,0,0-.9-1.5c-3.62-4-9.21-1.28-13.06-3.78-3.27-2.09-1.9-7.08-3.95-10.24-.27-.49-.58-1-.89-1.47a18.61,18.61,0,0,1-1.78-3.18c-.72-2.17,0-4.14.9-6l73.65,10.58c-2.27,4.15-2.24,10-.83,14.76A1,1,0,0,1,273.66,181.07Z"/>
        </g>
        <g>
          <path class="cls-2" d="M373.16,179.61a134.79,134.79,0,0,1-6.74,26.56c-.39,1.08-.8,2.16-1.22,3.22-3.23,9.75-8.36,18.41-14.27,27q-.94,1.45-1.92,2.85a98.17,98.17,0,0,1-13.69,15.53c-.85.82-1.71,1.62-2.57,2.42-4.31,4-8.84,7.8-13.3,11.52-.94.66-1.91,1.3-2.89,1.92-3.9,2.46-21.31,15.87-52.54,21.26-1,.17-2,.4-3,.6-3,.58-5.94,1.1-8.88,1.54-.87.13-23.53,3.64-66.31-10.79-11.24-3.79-20.93-10.86-30-18.1-1-.76-1.9-1.54-2.83-2.33-2.93-2.81-5.76-5.74-8.55-8.72l-2.08-2.25c-.64-.75-1.29-1.49-2-2.23l-2-2.22c-.67-.78-1.32-1.58-2-2.38s-1.28-1.6-1.9-2.41c-2.33-2.7-4.63-5.43-6.79-8.26-.73-.94-1.43-1.89-2.13-2.85-1.79-2.17-15.87-30.62-17.18-42.12-.13-1.2-.45-2.37-.66-3.57a150.94,150.94,0,0,1-3-19.66c-.09-1.1-.16-2.2-.2-3.31a108.77,108.77,0,0,1,1-17.2c.16-1.16.33-2.32.52-3.51,0-.3.07-.59.11-.88Z"/>
          <path class="cls-12" d="M367.38,183.09c-.14.82-.3,1.62-.46,2.42-.49,2.41-1,4.78-1.65,7.13-.3,1.18-.62,2.34-1,3.5s-.61,2.25-1,3.38c-1.34,2.83-2.58,5.74-3.81,8.66l-1.23,2.91a113.38,113.38,0,0,1-16.81,29.18q-.84,1.13-1.71,2.25c-.57.76-1.15,1.5-1.73,2.25s-1.4,1.73-2.12,2.59c-2.15,2.58-4.38,5.1-6.69,7.59-.75.73-1.51,1.44-2.3,2.13-3.93,3.45-35.35,23.26-37.35,23.28-1,.25-2,.45-3,.62-5,.84-22.88,6.33-25.76,6.75q-1.89.31-3.81.57a128.87,128.87,0,0,1-23.39,1c-.68,0-1.35-.07-2-.12-9.61-2.29-19.57-3.58-29.3-5.88-1.09-.26-2.16-.57-3.25-.81-8.61-1.92-23.18-6.74-32.79-14.72l-2.61-2-2.61-2c-.93-.76-1.83-1.54-2.72-2.33-3.56-3.18-6.93-6.64-10.28-10.11-.85-.84-1.67-1.69-2.48-2.55-1.62-1.71-3.18-3.47-4.71-5.27-.82-1-1.63-2-2.43-3a56,56,0,0,1-5.72-9.49c-.34-.7-.67-1.42-1-2.17a87.65,87.65,0,0,1-6.12-8.53c-.62-1-1.21-2-1.8-3-1.59-3.29-3.1-6.64-4.49-10q-.7-1.69-1.35-3.42c-1.69-5.63-3.69-11.2-5.3-16.82-.31-1.13-.6-2.26-.87-3.41-1.81-11-1.85-22.05-1.24-33,.07-1,.16-2,.26-3.08q.26-2.76.65-5.53l256.65,36.86A26.76,26.76,0,0,1,367.38,183.09Z"/>
          <path class="cls-9" d="M356.34,202.72c-.48,1-1,2-1.53,3a69.17,69.17,0,0,1-5.67,8.55c-.54,1-1.08,2-1.63,3-1.79,3.31-3.59,6.64-5.34,10-.44.83-.87,1.68-1.31,2.52a69.34,69.34,0,0,1-3.42,6.1c-.61,1-1.25,1.94-1.91,2.89a77.1,77.1,0,0,1-11,11.94q-1.21,1.06-2.46,2.1a16,16,0,0,1-4.31,3.12c-4.07,2.14-7.93,4.25-11.66,6.41-.93.54-10.12,10.56-33.56,16.5-.85.22-1.68.44-2.53.63s-1.69.33-2.55.44l-3.06.66a109.43,109.43,0,0,1-14.94,2.22c-1.08.08-2.16.14-3.24.19a145.1,145.1,0,0,1-22.59-1c-1.16-.14-2.3-.29-3.44-.46-10.15-1.51-20.12-4.31-28.73-9.56-.91-.5-1.81-1-2.72-1.43-6.32-3.2-12.92-5.67-19.27-8.46-.94-.53-1.83-1.08-2.69-1.66-7.76-5.24-13.53-12.81-19.49-20.22l-2.09-2.43c-2.08-2.42-4.15-4.83-6.21-7.18l-1.66-2.92c-.55-1-1.09-1.94-1.63-2.91s-1.07-1.94-1.6-2.95c-1.93-4.07-4-8.1-6.06-12.15-.5-1-1-2-1.47-3.09a16.65,16.65,0,0,1-1.61-5.25,81.88,81.88,0,0,0-2-9.93c-.29-1.06-.59-2.12-.93-3.19a54.15,54.15,0,0,1-4.36-11.69c-.24-1-.45-2-.63-3a12.84,12.84,0,0,1-.27-5.46c0-8.63,1.94-16.4,1.32-25.07l243.44,35C360.1,186.28,360.38,195.12,356.34,202.72Z"/>
          <path class="cls-13" d="M341.51,197.23a11,11,0,0,0-.53,2.56c-.85,4.26-1.75,8.39-4.44,11.92-.61.94-1.25,1.86-1.91,2.77-2,2.73-4.2,5.34-6.33,8-.55.81-1.1,1.61-1.63,2.43a50.89,50.89,0,0,0-4.23,7.72,12.61,12.61,0,0,1-5.24,5.87q-1.35,1.06-2.76,2.07a127.68,127.68,0,0,0-10.41,8.9,27.67,27.67,0,0,1-2.45,2c-5.86,4.18-13,6.59-19.59,9.69-1,.53-2,1-3.05,1.54-2,1-4.11,1.89-6.23,2.68-1.09.28-2.18.51-3.28.7a53.72,53.72,0,0,1-6.77.77c-1.25.18-2.46.33-3.67.48-3.6.44-7.22.76-10.79,1.17l-3.08.4c-3.07.37-6.14.66-9.21.85-1.22-.05-2.42-.15-3.61-.29a37.37,37.37,0,0,1-13.75-4.26q-1.5-.6-3-1.11a118.62,118.62,0,0,0-16.11-4.21l-2.8-.55A38.31,38.31,0,0,1,182,254.33c-.89-.5-1.75-1-2.59-1.58-.53-.34-1.17-.64-1.79-1s-1-1-1.62-1.31c-13.72-7.53-25.32-22.44-25.68-23.3-1.8-4.3-9-16.23-9.56-17.21-4.72-5.59-5.13-12.71-6.78-19.6-.24-1-.44-2-.62-3-.84-3.24-1.7-6.48-2.4-9.74-.24-1.08-.45-2.17-.64-3.26a23.81,23.81,0,0,1-.58-5.71c0-5.4,1.44-10.37,2.07-15.42.12-1,.21-2,.24-3.06a33.8,33.8,0,0,1-.32-5.19l215.8,31C346.34,182.16,344.29,191.34,341.51,197.23Z"/>
          <path class="cls-11" d="M333.91,177.07a15.42,15.42,0,0,1-.74,2.27c-1.52,3.7-4.33,7-6.29,10.37-.39.58-.78,1.17-1.13,1.77a14,14,0,0,0-.92,1.91c-1.54,4-.14,7.76-.05,11.66.13,1.31-.64,2.18-1.14,3.37a16.11,16.11,0,0,1-1.62,1.39c-3.95,2.92-8.79,4.31-10.78,8.77-.35.66-.69,1.33-1,2-1,2-2,4.12-3,6.25a20,20,0,0,1-1.57,1.62c-3.32,3.07-7.59,5.11-11.75,7.35-.65.52-1.29,1.06-1.93,1.61a63.81,63.81,0,0,0-5.68,5.53,6,6,0,0,1-2.89,1.86c-.74.35-1.5.64-2.28.92-3.9,1.34-8.25,1.93-12.42,3.1-.76.22-1.53.4-2.3.55s-1.5.41-2.26.6l-1.9.47-1.9.44c-10,5.37-20.52,1.92-30.75,1.92-.85,0-1.67,0-2.49,0-8.19-.35-16-2.83-23.73-5.93l-2.11-.86c-5.35-3.37-9.43-8.82-15.25-10.72l-1.89-.41a32.41,32.41,0,0,1-5.67-1.55,17,17,0,0,1-6.87-4.55,20,20,0,0,1-2.52-3.39c-2-2.78-2.22-6.05-3-9.4a12.2,12.2,0,0,0-7.69-8.87,13.89,13.89,0,0,1-2-1.06,7.86,7.86,0,0,1-1.67-1.43c-.79-5.56-3.62-10.14-5.77-15-.3-.69-.59-1.4-.85-2.12a3.65,3.65,0,0,1-.44-3.64c1.78-6.1,2.34-11.42,1.27-16.8-.16-.77-.35-1.54-.58-2.33a28.44,28.44,0,0,1-3-17.44l.06-.35L334.24,174A14.4,14.4,0,0,1,333.91,177.07Z"/>
          <path class="cls-14" d="M311.48,172.29a20.45,20.45,0,0,1-.79,1.89,30.49,30.49,0,0,0-2.46,5.68c-.29.84-.56,1.66-.89,2.46a16.19,16.19,0,0,1-13,11.23c-1.36.45-2.22,1.95-2.77,3.49a11.76,11.76,0,0,0-.26,2.36c-.12,4,1.15,7.91-.45,11.38a8.18,8.18,0,0,1-1.5,2.12,12.38,12.38,0,0,1-5.48,2.91c-.7.19-1.4.36-2.13.52-9-3.52-14.83,1.15-19,9a9.94,9.94,0,0,1-3.18,2.44,2.57,2.57,0,0,1-1.28.65,6.15,6.15,0,0,1-2.29-.07c-3.44-.37-6.55-1.91-9.71-3.28-.63-.27-1.26-.54-1.9-.79a4.5,4.5,0,0,0-4-.57c-6.06,2.76-10.75,5.88-15.56,4.86a6.28,6.28,0,0,1-2.06-.87C221.33,226,220,224,218.55,222c-.48-.65-1-1.28-1.48-1.87-3.69-4.53-10.36-3.22-15.67-2.36-2.52.31-4.65-2.13-6.27-5.08-.33-.6-.63-1.21-.91-1.82-2-8.36-7.6-16.62-16.72-18.58a5.67,5.67,0,0,1-2.29-1.21c-1-.88-1.11-2.19-1.24-3.51.14-5.49,2.55-11,1.28-15.7-.23-.68-.43-1.34-.61-2s-.37-1.41-.54-2.12c-1.79-4.73-.11-9.67-.33-14.89a3.39,3.39,0,0,0-.39-1.41,5.07,5.07,0,0,0-.32-.61l138.8,19.94A4,4,0,0,1,311.48,172.29Z"/>
          <path class="cls-11" d="M273.28,181.35c-1,.86-3.7,1-5.2,2.2-.61.24-1.2.47-1.76.73-3.36,1.54-5.44,4.39-5.42,9.65-.09.63-1.09.82-1.73.72a8.09,8.09,0,0,0-2.44-.57c-5.45,1.38-9.17-4.34-14.39-4.11a3.58,3.58,0,0,0-1.57.58,5.19,5.19,0,0,0-1.22,1.13c-1.93,1.82-3.25,6.5-5.24,4.59-4.76-5.22-8.39-7-15.15-7.36-2.27,0,1.64-4.63,1.27-7.89a2.68,2.68,0,0,0-.9-1.5c-3.63-4.05-9.21-1.28-13.07-3.78-3.26-2.09-1.9-7.08-3.94-10.24-.28-.5-.58-1-.89-1.48a18.51,18.51,0,0,1-1.78-3.17c-.72-2.17,0-4.14.9-6l73.65,10.57c-2.27,4.16-2.24,10-.83,14.77A1,1,0,0,1,273.28,181.35Z"/>
        </g>
        <g>
          <path class="cls-13" d="M176.83,219.17a30.8,30.8,0,0,0,5.82-11.29c.14-.7.15-1.2,0-1.4l0,0,0,0c-.81-.94-9.25,1-13.44,3.73a7.9,7.9,0,0,0-2.87,3,5.66,5.66,0,0,0,1.07,6.27l0,0,0,0C169.51,222,173.22,223.16,176.83,219.17Z"/>
          <g>
            <path class="cls-15" d="M167.43,218.14l0,0,0,0a5.13,5.13,0,0,1-.87-5.82,7.67,7.67,0,0,1,2.74-2.84c4-2.63,11.94-4.62,12.68-3.75l0,0,0,0c.16.18.14.64,0,1.3a30.22,30.22,0,0,1-5.68,10.63C172.82,221.45,169.36,220.4,167.43,218.14Z"/>
            <path class="cls-16" d="M168.43,216.41l0,0,0,0a7.73,7.73,0,0,1-1.06-1.59,3.24,3.24,0,0,1-.28-2.24,5.81,5.81,0,0,1,2.51-2.77c3.7-2.57,11.18-4.6,11.91-3.79v0h0l0,0c.15.17.15.61,0,1.24a28.13,28.13,0,0,1-4.89,8.77C173.46,219.54,170.24,218.53,168.43,216.41Z"/>
            <path class="cls-17" d="M172.35,210.6c-2.17,1.44-2.37,2.21-2.79,3.58-.27.86-1.37,1.06-1.72.41a2.92,2.92,0,0,1-.24-2.05,5.53,5.53,0,0,1,2.34-2.55c3.42-2.4,10.31-4.34,11-3.6l0,0c.26.29-.67.75-1.43,1A25.72,25.72,0,0,0,172.35,210.6Z"/>
          </g>
        </g>
        <g>
          <path class="cls-13" d="M209.51,210.3a30.79,30.79,0,0,0,2.69-12.41c0-.72-.16-1.2-.37-1.35l-.05,0a.08.08,0,0,0,0,0c-1-.7-8.67,3.36-12,7.09a7.78,7.78,0,0,0-2,3.63,5.64,5.64,0,0,0,2.65,5.78l.05,0,0,0C203.16,214.88,207.06,215.09,209.51,210.3Z"/>
          <g>
            <path class="cls-15" d="M200.16,211.73l0,0,0,0a5.16,5.16,0,0,1-2.35-5.4,7.83,7.83,0,0,1,1.92-3.46c3.17-3.57,10.34-7.54,11.28-6.9l0,0,0,0c.2.14.3.59.33,1.27A30.23,30.23,0,0,1,208.59,209C206.22,213.54,202.61,213.42,200.16,211.73Z"/>
            <path class="cls-16" d="M200.68,209.81l0,0,0,0a7.11,7.11,0,0,1-1.43-1.26,3.22,3.22,0,0,1-.85-2.09,5.84,5.84,0,0,1,1.71-3.32c2.9-3.44,9.6-7.34,10.52-6.75l0,0h0l0,0c.19.12.31.55.35,1.19a28.23,28.23,0,0,1-2.45,9.74C206.34,211.53,203,211.39,200.68,209.81Z"/>
            <path class="cls-17" d="M203,203.18c-1.72,1.95-1.71,2.75-1.77,4.18,0,.9-1.05,1.38-1.55.85a2.94,2.94,0,0,1-.76-1.92,5.52,5.52,0,0,1,1.59-3.07c2.69-3.2,8.84-6.86,9.67-6.32h0c.33.22-.45.9-1.11,1.36A25.77,25.77,0,0,0,203,203.18Z"/>
          </g>
        </g>
        <g>
          <path class="cls-13" d="M211.86,243.07a30.7,30.7,0,0,0-.61-12.68c-.22-.69-.47-1.12-.71-1.21h0l-.05,0c-1.17-.42-7.5,5.48-9.77,9.95a7.87,7.87,0,0,0-1,4,5.65,5.65,0,0,0,4.06,4.9l.05,0,0,0C206.91,249.14,210.73,248.33,211.86,243.07Z"/>
          <g>
            <path class="cls-15" d="M203.21,246.87h-.05l0,0a5.13,5.13,0,0,1-3.67-4.6,7.82,7.82,0,0,1,1-3.84c2.14-4.27,8-10,9.11-9.58l0,0h0c.22.08.44.49.64,1.13a30.26,30.26,0,0,1,.39,12.05C209.53,247.05,206,247.87,203.21,246.87Z"/>
            <path class="cls-16" d="M203.2,244.89l0,0h0a7.58,7.58,0,0,1-1.71-.85,3.25,3.25,0,0,1-1.36-1.8,5.83,5.83,0,0,1,.79-3.65c1.92-4.08,7.37-9.58,8.41-9.24h.09c.21.07.43.45.65,1.05a28.63,28.63,0,0,1,.15,10C209.12,245.08,205.83,245.82,203.2,244.89Z"/>
            <path class="cls-17" d="M203.69,237.89c-1.15,2.33-.94,3.09-.62,4.49.2.89-.66,1.6-1.28,1.23a2.92,2.92,0,0,1-1.23-1.66,5.5,5.5,0,0,1,.74-3.38c1.77-3.79,6.76-8.91,7.71-8.61h0c.37.12-.21,1-.72,1.6A25.68,25.68,0,0,0,203.69,237.89Z"/>
          </g>
        </g>
        <g>
          <path class="cls-13" d="M239.32,224.25a31,31,0,0,0-3.87-12.1c-.4-.6-.75-1-1-1h-.1c-1.24-.1-5.83,7.24-6.87,12.14a7.87,7.87,0,0,0,.09,4.14,5.65,5.65,0,0,0,5.2,3.68h.1C236.11,231.4,239.59,229.63,239.32,224.25Z"/>
          <g>
            <path class="cls-15" d="M231.94,230.17h-.09a5.15,5.15,0,0,1-4.74-3.5,7.82,7.82,0,0,1-.07-3.95c1-4.69,5.18-11.71,6.32-11.62h.09c.24,0,.55.36.91.93a30.15,30.15,0,0,1,3.5,11.53C238.09,228.7,234.9,230.4,231.94,230.17Z"/>
            <path class="cls-16" d="M231.42,228.24h-.08a7.15,7.15,0,0,1-1.87-.38,3.18,3.18,0,0,1-1.78-1.39,5.73,5.73,0,0,1-.18-3.72c.79-4.44,4.64-11.16,5.73-11.11h.09c.22,0,.54.32.9.85a28.47,28.47,0,0,1,2.74,9.66C237.19,226.9,234.2,228.46,231.42,228.24Z"/>
            <path class="cls-17" d="M230.09,221.36c-.52,2.55-.11,3.23.56,4.5.42.8-.22,1.72-.93,1.51a2.85,2.85,0,0,1-1.61-1.28,5.41,5.41,0,0,1-.16-3.45c.73-4.12,4.23-10.36,5.21-10.31h0c.39,0,.06,1-.28,1.73A25.4,25.4,0,0,0,230.09,221.36Z"/>
          </g>
        </g>
        <g>
          <path class="cls-13" d="M257.34,247.69A31.13,31.13,0,0,0,250.47,237c-.54-.48-1-.73-1.22-.69l-.05,0h0c-1.23.23-3.76,8.51-3.49,13.51a7.85,7.85,0,0,0,1.16,4,5.64,5.64,0,0,0,6,2.21h.1C256.09,255.42,259,252.81,257.34,247.69Z"/>
          <g>
            <path class="cls-15" d="M251.74,255.31h-.09a5.14,5.14,0,0,1-5.48-2.15,7.71,7.71,0,0,1-1.09-3.8c-.29-4.77,2-12.65,3.09-12.86h.09c.24,0,.63.2,1.12.66a30.13,30.13,0,0,1,6.37,10.23C257.3,252.31,254.66,254.77,251.74,255.31Z"/>
            <path class="cls-16" d="M250.74,253.59h-.08a7.54,7.54,0,0,1-1.9.12,3.22,3.22,0,0,1-2.08-.88,5.72,5.72,0,0,1-1.14-3.55c-.38-4.49,1.59-12,2.66-12.21h.09c.22,0,.6.17,1.09.59a28.46,28.46,0,0,1,5.15,8.62C256,250.8,253.49,253.08,250.74,253.59Z"/>
            <path class="cls-17" d="M247.67,247.29c.17,2.6.73,3.15,1.71,4.2.61.67.23,1.72-.5,1.7a2.92,2.92,0,0,1-1.9-.82,5.5,5.5,0,0,1-1-3.3c-.36-4.16,1.4-11.1,2.37-11.3,0,0,0,0,0,0,.39-.08.32,1,.17,1.75A26,26,0,0,0,247.67,247.29Z"/>
          </g>
        </g>
        <g>
          <path class="cls-13" d="M271.61,214.37a30.87,30.87,0,0,0-9.4-8.53c-.64-.33-1.12-.46-1.35-.35l-.05,0,0,0c-1.13.54-1.43,9.19.12,13.95A7.88,7.88,0,0,0,263,223a5.65,5.65,0,0,0,6.34.59l0,0,.05,0C272.41,222.17,274.54,218.9,271.61,214.37Z"/>
          <g>
            <path class="cls-15" d="M268.18,223.19l0,0,0,0a5.15,5.15,0,0,1-5.85-.66,7.81,7.81,0,0,1-2-3.39c-1.51-4.54-1.37-12.73-.34-13.22l.05,0,0,0c.22-.1.66,0,1.26.35a30.11,30.11,0,0,1,8.8,8.24C272.78,218.84,270.86,221.91,268.18,223.19Z"/>
            <path class="cls-16" d="M266.77,221.78l0,0,0,0a7,7,0,0,1-1.8.61,3.21,3.21,0,0,1-2.24-.31,5.77,5.77,0,0,1-2-3.14c-1.53-4.24-1.56-12-.59-12.48h0l0,0c.21-.11.63,0,1.21.29a28.39,28.39,0,0,1,7.21,7C271.1,217.73,269.29,220.58,266.77,221.78Z"/>
            <path class="cls-17" d="M262.17,216.49c.83,2.46,1.53,2.85,2.74,3.62.77.48.67,1.59,0,1.77a2.89,2.89,0,0,1-2-.31,5.42,5.42,0,0,1-1.87-2.91c-1.43-3.93-1.52-11.08-.64-11.53h0c.36-.18.56.84.62,1.64A25.85,25.85,0,0,0,262.17,216.49Z"/>
          </g>
        </g>
        <g>
          <path class="cls-13" d="M293.35,228.8A31,31,0,0,0,282.06,223c-.71-.15-1.2-.15-1.4,0l0,0,0,0c-.94.81,1,9.24,3.73,13.44a7.78,7.78,0,0,0,3,2.86,5.64,5.64,0,0,0,6.27-1.07l0,0,0,0C296.13,236.13,297.34,232.41,293.35,228.8Z"/>
          <g>
            <path class="cls-15" d="M292.31,238.2l0,0,0,0a5.14,5.14,0,0,1-5.82.88,7.88,7.88,0,0,1-2.85-2.75c-2.63-4-4.61-11.94-3.74-12.68l0,0,0,0c.18-.15.64-.13,1.3,0a30.06,30.06,0,0,1,10.63,5.68C295.63,232.81,294.57,236.27,292.31,238.2Z"/>
            <path class="cls-16" d="M290.59,237.21l0,0,0,0a7.36,7.36,0,0,1-1.58,1,3.21,3.21,0,0,1-2.25.28,5.84,5.84,0,0,1-2.76-2.51c-2.57-3.69-4.6-11.17-3.79-11.9l0,0h0l0,0c.17-.15.61-.16,1.24,0a28.54,28.54,0,0,1,8.77,4.89C293.72,232.18,292.71,235.4,290.59,237.21Z"/>
            <path class="cls-17" d="M284.77,233.28c1.45,2.17,2.22,2.37,3.58,2.79.87.27,1.07,1.37.42,1.73a2.92,2.92,0,0,1-2,.23,5.5,5.5,0,0,1-2.55-2.33c-2.4-3.43-4.34-10.31-3.6-11h0c.3-.27.76.67,1,1.42A25.51,25.51,0,0,0,284.77,233.28Z"/>
          </g>
        </g>
        <g>
          <path class="cls-13" d="M313.76,205.07a31,31,0,0,0-12.41-2.69c-.72,0-1.2.17-1.35.38a.08.08,0,0,0,0,0l0,0c-.7,1,3.36,8.67,7.09,12a7.78,7.78,0,0,0,3.63,2,5.66,5.66,0,0,0,5.78-2.66l0,0,0,0C318.34,211.43,318.55,207.53,313.76,205.07Z"/>
          <g>
            <path class="cls-15" d="M315.19,214.42l0,0,0,0a5.14,5.14,0,0,1-5.4,2.35,7.8,7.8,0,0,1-3.46-1.91c-3.57-3.18-7.54-10.34-6.9-11.28l0,0a.05.05,0,0,0,0,0c.14-.19.59-.3,1.27-.32A30.3,30.3,0,0,1,312.43,206C317,208.36,316.88,212,315.19,214.42Z"/>
            <path class="cls-16" d="M313.27,213.91a.05.05,0,0,0,0,0l0,0a7.11,7.11,0,0,1-1.26,1.43,3.17,3.17,0,0,1-2.09.85,5.82,5.82,0,0,1-3.32-1.7c-3.44-2.91-7.34-9.61-6.75-10.52l0,0s0,0,0,0l0,0c.12-.19.55-.3,1.19-.35a28.45,28.45,0,0,1,9.74,2.45C315,208.24,314.85,211.61,313.27,213.91Z"/>
            <path class="cls-17" d="M306.64,211.62c1.95,1.73,2.75,1.72,4.18,1.77.9,0,1.38,1.05.85,1.56a2.88,2.88,0,0,1-1.92.75,5.4,5.4,0,0,1-3.07-1.59c-3.2-2.68-6.86-8.84-6.32-9.67v0c.22-.33.9.46,1.36,1.11A25.37,25.37,0,0,0,306.64,211.62Z"/>
          </g>
        </g>
        <g>
          <path class="cls-13" d="M313,178a30.88,30.88,0,0,0-12.68.61c-.68.23-1.12.47-1.21.72a.43.43,0,0,0,0,.05s0,0,0,0c-.42,1.18,5.49,7.51,9.95,9.78a7.9,7.9,0,0,0,4,1,5.65,5.65,0,0,0,4.89-4.07s0,0,0,0l0-.05C319.1,182.9,318.3,179.08,313,178Z"/>
          <g>
            <path class="cls-15" d="M316.84,186.61l0,0a.11.11,0,0,0,0,0,5.15,5.15,0,0,1-4.61,3.67,7.82,7.82,0,0,1-3.84-1c-4.27-2.15-10-8-9.58-9.11,0,0,0,0,0-.05a.06.06,0,0,1,0,0c.08-.22.49-.44,1.13-.64a30.24,30.24,0,0,1,12.05-.4C317,180.29,317.83,183.81,316.84,186.61Z"/>
            <path class="cls-16" d="M314.85,186.61l0,0v0a7.12,7.12,0,0,1-.85,1.7,3.23,3.23,0,0,1-1.8,1.37,5.84,5.84,0,0,1-3.65-.79c-4.07-1.92-9.57-7.38-9.24-8.42v0a.06.06,0,0,1,0,0c.07-.22.45-.44,1.06-.65a28.57,28.57,0,0,1,10-.15C315,180.69,315.78,184,314.85,186.61Z"/>
            <path class="cls-17" d="M307.85,186.12c2.33,1.16,3.1.95,4.49.63.89-.2,1.61.65,1.23,1.28a3,3,0,0,1-1.66,1.23,5.51,5.51,0,0,1-3.38-.74c-3.79-1.77-8.91-6.77-8.61-7.71,0,0,0,0,0,0,.13-.38,1,.2,1.6.72A25.63,25.63,0,0,0,307.85,186.12Z"/>
          </g>
        </g>
        <g>
          <path class="cls-13" d="M152.25,176.09a30.7,30.7,0,0,0,10.67-6.87c.48-.54.74-1,.69-1.22,0,0,0,0,0-.05a.43.43,0,0,0,0,0c-.22-1.23-8.5-3.76-13.5-3.49a7.85,7.85,0,0,0-4,1.16,5.67,5.67,0,0,0-2.21,6s0,0,0,.05,0,0,0,0C144.51,174.84,147.12,177.74,152.25,176.09Z"/>
          <g>
            <path class="cls-15" d="M144.62,170.49a.06.06,0,0,0,0,0,.09.09,0,0,0,0,0,5.15,5.15,0,0,1,2.16-5.48,7.75,7.75,0,0,1,3.8-1.09c4.77-.28,12.64,2,12.85,3.09,0,0,0,0,0,.05s0,0,0,0c0,.24-.2.63-.66,1.13a30.32,30.32,0,0,1-10.24,6.36C147.63,176.05,145.16,173.41,144.62,170.49Z"/>
            <path class="cls-16" d="M146.34,169.5a.09.09,0,0,0,0-.05v0a6.71,6.71,0,0,1-.12-1.9,3.16,3.16,0,0,1,.87-2.08,5.84,5.84,0,0,1,3.56-1.14c4.49-.38,12,1.6,12.21,2.66V167s0,0,0,0c0,.22-.18.6-.6,1.09a28.26,28.26,0,0,1-8.62,5.15C149.14,174.72,146.85,172.24,146.34,169.5Z"/>
            <path class="cls-17" d="M152.65,166.42c-2.6.17-3.16.73-4.21,1.71-.66.61-1.71.23-1.7-.5a2.88,2.88,0,0,1,.83-1.89,5.4,5.4,0,0,1,3.29-1.05c4.17-.36,11.1,1.4,11.31,2.37v0c.08.39-1,.32-1.74.17A26.38,26.38,0,0,0,152.65,166.42Z"/>
          </g>
        </g>
        <g>
          <path class="cls-13" d="M178.63,189.63a30.91,30.91,0,0,0,8.54-9.4c.32-.64.46-1.13.35-1.36l0,0,0-.05c-.53-1.12-9.18-1.43-13.95.13a7.79,7.79,0,0,0-3.54,2.15,5.67,5.67,0,0,0-.59,6.34l0,0s0,0,0,.05C170.84,190.42,174.11,192.55,178.63,189.63Z"/>
          <g>
            <path class="cls-15" d="M169.82,186.2s0,0,0,0,0,0,0,0a5.13,5.13,0,0,1,.66-5.85,7.88,7.88,0,0,1,3.39-2c4.53-1.5,12.72-1.36,13.21-.33a.08.08,0,0,1,0,0l0,0c.1.21,0,.66-.36,1.25a30.06,30.06,0,0,1-8.23,8.8C174.16,190.79,171.1,188.88,169.82,186.2Z"/>
            <path class="cls-16" d="M171.22,184.79a.08.08,0,0,0,0,0v0a7.08,7.08,0,0,1-.61-1.8,3.21,3.21,0,0,1,.31-2.24,5.74,5.74,0,0,1,3.13-2c4.24-1.53,12-1.56,12.49-.59,0,0,0,0,0,0v0a.08.08,0,0,0,0,0c.1.2,0,.63-.29,1.2a28.23,28.23,0,0,1-7,7.21C175.27,189.11,172.42,187.31,171.22,184.79Z"/>
            <path class="cls-17" d="M176.52,180.19c-2.47.83-2.86,1.52-3.62,2.73-.48.77-1.6.67-1.77,0a2.94,2.94,0,0,1,.3-2,5.49,5.49,0,0,1,2.91-1.86c3.93-1.43,11.09-1.52,11.54-.64a0,0,0,0,1,0,0c.18.35-.84.55-1.64.62A25.81,25.81,0,0,0,176.52,180.19Z"/>
          </g>
        </g>
      </g>
    </g>
  </g>
</svg>
