<svg id="Layer_1" data-name="Layer 1" xmlns="http://www.w3.org/2000/svg" width="288.28" height="325.4" viewBox="0 0 288.28 325.4">
  <defs>
    <style>
      .cls-1 {
        fill: #ff0;
      }

      .cls-2, .cls-8 {
        fill: #da9571;
      }

      .cls-2, .cls-3 {
        stroke: #a06060;
        stroke-width: 0.25px;
      }

      .cls-2, .cls-3, .cls-32 {
        stroke-miterlimit: 10;
      }

      .cls-3, .cls-7 {
        fill: #aa6b50;
      }

      .cls-4 {
        fill: #e75a29;
      }

      .cls-5 {
        fill: #c94427;
      }

      .cls-6 {
        fill: #b41e2d;
      }

      .cls-9 {
        fill: #b26f48;
      }

      .cls-10 {
        fill: #e8b894;
      }

      .cls-11 {
        fill: #0c0a0a;
      }

      .cls-12 {
        fill: #0a0808;
      }

      .cls-13 {
        fill: #d28a88;
      }

      .cls-14 {
        fill: #c37777;
      }

      .cls-15 {
        fill: #e2b08e;
      }

      .cls-16 {
        fill: #ce8a60;
      }

      .cls-17 {
        fill: #38120d;
      }

      .cls-18 {
        fill: #d9a581;
      }

      .cls-19 {
        fill: #683b11;
      }

      .cls-20, .cls-32 {
        fill: #fff;
      }

      .cls-21 {
        fill: #d81315;
      }

      .cls-22 {
        fill: #ef643d;
      }

      .cls-23 {
        fill: #b02f40;
      }

      .cls-24 {
        fill: #a1162a;
      }

      .cls-25 {
        fill: #6d081b;
      }

      .cls-26 {
        fill: #9d9fa2;
      }

      .cls-27 {
        fill: #c7c9ca;
      }

      .cls-28 {
        fill: #ba906c;
      }

      .cls-29 {
        fill: #b8ab91;
      }

      .cls-30 {
        fill: #918079;
      }

      .cls-31 {
        fill: #d12f47;
      }

      .cls-32 {
        stroke: #3d2d16;
        stroke-width: 0.1px;
      }

      .cls-33 {
        fill: #3d2d16;
      }
    </style>
  </defs>
  <g>
    <path class="cls-1" d="M226.5,279.87c.14-.41.28-.84.42-1.31l.11-.36c.1-.34.19-.67.29-1l.16-.65c.07-.26.13-.52.19-.79l.15-.65.17-.81c0-.25.1-.5.14-.74l.14-.78.09-.53.14-1c0-.27.07-.54.11-.81s.06-.5.09-.77.06-.56.08-.85.13-1.64.13-1.64l0-.78c3.37,15.66,8.4,35.69,13.36,43,1.24,1.81,2.33,3.52,3.24,5.08a6,6,0,0,0,5.17,2.95h22.87a6,6,0,0,0,6-6.07c0-1.56-.54-38.59-9.87-65.08-8.94-25.37-10.43-30.46-13.45-52.32-1.54-11.19-7.23-38.36-26.89-53.42a10.07,10.07,0,0,0-3.59-4.3,23.13,23.13,0,0,0-6.88-4.18l-.29-.1-.38-.11c-.34-.1-.67-.19-1-.25l-.4-.08a8.14,8.14,0,0,0-3-2.1,7.44,7.44,0,0,0-1.13-1.51,6.83,6.83,0,0,0-5-2.12,8.62,8.62,0,0,0-6.23,3.1l-3.61-1,0,0a6.31,6.31,0,0,0-.62-.94,9.35,9.35,0,0,0-.64-.72,7.89,7.89,0,0,0-.76-.63,8,8,0,0,0-.71-.46,5.92,5.92,0,0,0-.73-.35,5.46,5.46,0,0,0-.68-.26c-.21-.06-.42-.12-.65-.17l-.51-.1-.54-.07-.44,0h-.46l-.51,0a25.45,25.45,0,0,1-1.42-3.57l.78-.71c1.51-1.37,2.74-3.49,4.4-9.84a11.22,11.22,0,0,0,3.43-1.64c2.84-2,4.22-5.44,5.55-8.74.44-1.07.84-2.07,1.27-3,2.67-5.62,1.65-9.48.31-11.73a9.67,9.67,0,0,0-1.77-2.17,40.56,40.56,0,0,0,1.54-4.23c1.79-1.46,3.86-4,7-8.41,2.92-4.11,6.35-9.33,8.73-13.28a23.13,23.13,0,0,0,3-14.31c0-.11,0-.22-.06-.42s-.1-.61-.17-.95l-.08-.38c-.07-.33-.14-.64-.25-1,0-.1-.06-.21-.08-.3-.14-.44-.29-.88-.45-1.3s-.36-.84-.56-1.24l-.21-.39c-.16-.31-.34-.6-.52-.88s-.17-.27-.27-.41-.41-.57-.62-.82-.19-.24-.3-.36a11.72,11.72,0,0,0-1.11-1.12l-.05,0a11.45,11.45,0,0,0-1.14-.88l-.42-.26c-.32-.2-.65-.39-1-.56l-.52-.24c-.34-.15-.7-.28-1.08-.41l-.46-.14A11.23,11.23,0,0,0,212.4,30h-.08a12.67,12.67,0,0,0-1.56-.12h-.53a11.22,11.22,0,0,0-1.15.06c-.2,0-.39,0-.59.06-.38.05-.77.11-1.22.2l-.46.1c-.59.13-1.13.28-1.67.45s-1.33.44-2,.67l-.59.21-1.34.49-.53.2-1.67.66-.21.09-1.41.6-1.54.68-1.69.77-3.53,1.65-1,.44-.77.31C185.19,36,182,34.92,180,34.22l-1.83-.6c-.48-.15-1-.31-1.44-.45l-.1,0L175,32.66l-1.58-.45-.49-.13-1.28-.34-.34-.09-1.6-.38-.37-.09-1.22-.26-.53-.11-1.27-.23-.34-.07-1.58-.24-.32,0c-.42-.06-.84-.1-1.25-.14l-.5-.05L161.14,30H159.2l-.27,0c-.44,0-.86.05-1.27.1l-.51.07c-.39.06-.78.13-1.18.22l-.45.11a11.53,11.53,0,0,0-1.66.55c-.53.22-1.05.46-1.54.69l-.89.45-.56.28-1.07.59-.26.15c-.39.22-.78.45-1.11.66l-.12.07c-.81.49-1.58,1-2.32,1.48l-1.69,1.07c-1.83,1.13-2.86,1.55-3.8,1.55h-.23a12.37,12.37,0,0,1-2.53-.59l-1-.34-.15-.05-1.19-.41c-.9-.31-1.82-.65-2.75-1l-.26-.09-2.06,5.63,2-5.67-1.09-.4-1.3-.46-1.49-.51-1.2-.4-.1,0-1.31-.39-.22-.06c-.43-.12-.85-.23-1.25-.32l-.23,0c-.42-.1-.82-.18-1.18-.24l-.2,0c-.47-.08-.91-.13-1.35-.18l-.29,0c-.38,0-.74,0-1.09,0h-.38l-.27,0a10.22,10.22,0,0,0-1.35.16l-.4.08a8.88,8.88,0,0,0-1.8.63,3.61,3.61,0,0,0-.44.23,7.6,7.6,0,0,0-1.9,1.44,8,8,0,0,0-1.14,1.53c-.09.16-.18.33-.26.51a8.5,8.5,0,0,0-.4.92,4.39,4.39,0,0,0-.16.47c-.1.3-.19.61-.27,1l-.08.38c-.06.31-.11.63-.16.94,0,.13,0,.26,0,.36a19.3,19.3,0,0,0-.12,2.67V44c0,.36,0,.74.06,1.13l0,.4c0,.34.07.7.11,1l0,.32c0,.09,0,.18,0,.26a37.91,37.91,0,0,0,4.48,13.1,5.61,5.61,0,0,0,.66,1.11,35,35,0,0,0,15,13.61,32.93,32.93,0,0,0,2.08,7.91,9.36,9.36,0,0,0-1.55,1.88c-1.44,2.27-2.57,6.19.17,11.95.43.89.84,1.9,1.27,3,1.33,3.3,2.71,6.72,5.55,8.75a11.47,11.47,0,0,0,3.44,1.63c1.31,5,2.35,7.4,3.47,8.85a24.86,24.86,0,0,1-2.25,6,8,8,0,0,0-8.46,3.1c-6.72,2-18.53,5.85-28.35,11.32h0l-1.21.7-.25.14-1.16.69-.11.07c-.85.53-1.68,1.06-2.47,1.6l-.22.15-1,.7-.23.17c-.79.57-1.55,1.16-2.21,1.7l-.28.24-.82.7-.28.26c-.3.26-.58.52-.88.81l-.14.13c-.33.32-.66.65-1,1l-.2.21c-.24.27-.48.53-.72.81l-.28.31-.67.83-.19.24c-.28.37-.55.74-.78,1.09l-.14.2c-.21.33-.42.65-.59.94a3.55,3.55,0,0,0-.23.4q-.26.44-.48.87l-.19.39c-.19.39-.37.78-.53,1.17l0,.09c-.3.75-.57,1.49-.88,2.31a137.81,137.81,0,0,0-5.07,17.07c-.36,1.54-.69,3.05-1,4.55-.49,2.29-.95,4.53-1.38,6.7-.26,1.3-.52,2.56-.77,3.8-.13.64-.26,1.27-.4,1.9-.72,3.41-1.31,5.87-1.91,8l-1.2,4.18c-.48,1.69-1,3.51-1.52,5.41-3.28,11.84-5.17,20.57-5.82,26.93l-21.63,6.83a20.29,20.29,0,0,0,.16-3.76,6,6,0,0,0-4.12-5.4V91.87a7.75,7.75,0,0,0,4-6.64A7.17,7.17,0,0,0,47.33,83v0l7.5-7.88a6,6,0,0,0,1.37-5.94l-17.89-57a6,6,0,0,0-11.45,0L9,69.16a6,6,0,0,0,1.38,5.94L17.83,83a7.26,7.26,0,0,0-.37,2.25,7.75,7.75,0,0,0,4,6.64V243.25a15.34,15.34,0,0,0-5.14,3.2c-4.71,4.69-7.27,18.64-5,27.13,1.82,6.75,6.14,8.81,8.55,9.44q.78.21,1.56.39v28a6,6,0,0,0,6,6H37.73a6,6,0,0,0,6-6V282.5c33.1-2.26,53.34-7.54,60.18-15.72a27.57,27.57,0,0,0,3.93-5.32c0,.06,0,.72,0,.72l-.06,1.35s0,1.6,0,1.63,0,1.64,0,1.64l.06,1.62.09,1.51s.08,1.1.1,1.34c0,0,.15,1.4.15,1.4l.1.87.21,1.48.24,1.44s.23,1.21.28,1.41c0,0,.29,1.26.29,1.26s.32,1.2.32,1.2l.38,1.21c-2.7,5.61-6,14.74-8.27,28.91a6,6,0,0,0,5.92,7H231.32a6,6,0,0,0,5.84-7.36c-2.73-11.78-6.69-20.63-12-26.85l.19-.39.21-.45c.11-.24.22-.49.32-.73s.13-.33.19-.49.19-.5.29-.76l-5.62-2.11,5.67,2Zm-1.44-33c-.14-.24-.29-.47-.44-.7l-.1-.15-.3-.48-.21-.28a18.67,18.67,0,0,0-1.4-1.74l.44-5.15,1.95,8c0,.16.07.35.11.57A.56.56,0,0,1,225.06,246.89Z"/>
    <g>
      <path class="cls-2" d="M257.61,311.42H271.2c-1.55-4.3-1.85-11.23-2.31-20.66L248,283.71c3.67,9.5,7.33,16.77,8.88,20.84A19.55,19.55,0,0,1,257.61,311.42Z"/>
      <path class="cls-3" d="M41.86,240s-18,7.44-17.43,10.07S42.56,254,41.86,240Z"/>
      <path class="cls-2" d="M199,137.24C182.67,134.91,182,114.09,182,114.09l-5-.92c-.09-2.18-.12-3.57-.12-3.57l-9.64,1.78-9.65-1.78s0,1.39-.12,3.57l-5,.92s-.71,20.82-17,23.15,1.08,25.48,1.08,25.48l18.42,7.92c-.23,6.36-.39,10.74-.39,10.74l12.71-5.45,12.7,5.45s-.16-4.38-.39-10.74l18.42-7.92S215.33,139.57,199,137.24Z"/>
      <path class="cls-4" d="M99.43,262.77c6.87-6.91,9.92-22.72,10.95-32.51A100.8,100.8,0,0,1,116,207s5.18,6.14,4.46,20.46-3.74,24.12-2.59,25.59.87,25.43.87,25.43-7,7.83-11.13,32.92H231.32c-2.88-12.44-7.44-22.6-14.94-28.27a41.67,41.67,0,0,0,0-37.21l3.82-44.58,10.68,43.8s8.77,49.62,16.4,60.86c1.4,2.06,2.53,3.85,3.44,5.4h22.87c0-.52-.44-37.37-9.53-63.16-9.16-26-10.68-31.4-13.73-53.49s-13.73-49.23-38.52-56.59-21.74-6.2-21.74-6.2l-20.21,31.39L142,132.18S101.32,142,94.85,158.05s-7.91,32.16-11.22,43.71c-2.89,10.1-8.54,29.15-8.56,39.34L26.22,256.51l4.07,20.67S89.16,275.72,99.43,262.77Z"/>
      <path class="cls-5" d="M120.45,227.48c-.72,14.33-3.74,24.12-2.59,25.59s.87,25.43.87,25.43-7,7.83-11.13,32.92H125c2.42-8.2,5.74-14.64,8.84-17.87,8.12-8.48,13.42-9.18,30.36-13.42s6.71-29.65-8.12-29.3-38.83-1.41-14.82-12.71,50.83-51.9,33.53-35.66-28.94,7.06-43.07-6.7c-12.66-12.36-15.39,7.39-15.81,11.59L116,207S121.17,213.16,120.45,227.48Z"/>
      <path class="cls-5" d="M128.86,287.54s72.37,6,80.84-.7-6.35-9.18-21.88-9.18S128.86,287.54,128.86,287.54Z"/>
      <path class="cls-5" d="M128.15,251.18s72.37-10.94,80.85-4.24-6.36,9.18-21.89,9.18S128.15,251.18,128.15,251.18Z"/>
      <path class="cls-6" d="M205.7,133.19S190,192,117.38,213.18c0,0-6.27,6.8.13,10.39,0,0-8,7.07.26,12.28-.89,2.55-6.22,6.6-.85,11.17,3,2.53,64.08-36.1,90.43-69.12,25.74-32.26,14.9-36.8,14.9-36.8s-5.59-5.19-8.78-3.38c0,0-.92-4.53-4.34-2.11C209.13,135.61,209.36,129,205.7,133.19Z"/>
      <path class="cls-6" d="M216.38,245.94s-92.65,8-98.52,7.13S113,277,116.92,282.33s94.87,3.74,100.2,1.38,10.36-29.59-.74-37.77"/>
      <path class="cls-7" d="M151.89,119.62s4.29,8.9,13.94,10,16.15-6.07,17-8.73l-1.25-5.76-28.75-1.84Z"/>
      <g>
        <g>
          <g>
            <path class="cls-8" d="M194.32,85.64s9-.37,4.88,8.38c-1.7,3.57-2.87,8-4.88,9.41s-5.82,1.27-6.11.67,3.16-17.65,3.23-18.46S194.32,85.64,194.32,85.64Z"/>
            <path class="cls-9" d="M193.38,93.44a4.06,4.06,0,0,1-.5,2.88c-.86,1.15-1.37,2.6-.86,2.45a5.34,5.34,0,0,0,3.59-2.66c1.22-2.16,1.37-4,.58-5.18S193,90.35,193.38,93.44Z"/>
          </g>
          <g>
            <path class="cls-8" d="M142.22,85.64s-9.05-.37-4.89,8.38c1.7,3.57,2.87,8,4.89,9.41s5.82,1.27,6.1.67-3.16-17.65-3.23-18.46S142.22,85.64,142.22,85.64Z"/>
            <path class="cls-9" d="M143.15,93.44a4.06,4.06,0,0,0,.5,2.88c.86,1.15,1.37,2.6.86,2.45a5.34,5.34,0,0,1-3.59-2.66c-1.22-2.16-1.36-4-.57-5.18S143.58,90.35,143.15,93.44Z"/>
          </g>
        </g>
        <path class="cls-10" d="M194.25,61.66c-.1-2.58-20-3.54-24.8-2.39-4.81-1.15-27.07-.19-27.16,2.39a171.27,171.27,0,0,0,.77,20.69c.88,7.77,5.07,30.77,7.53,33,9.54,8.63,10.33,11.19,16.54,11.14.23,0,2,0,2.27,0,6.21,0,7-2.51,16.55-11.14,2.45-2.22,6.65-25.22,7.53-33A171.27,171.27,0,0,0,194.25,61.66Z"/>
        <path class="cls-11" d="M150.59,86.59s4-2.62,7.52-1.78,6.39,2.69,6.9,1.78.68-2.43,0-2.94-2.8.19-5.57-.62-4.34-1.19-5.61,0S150.59,86.59,150.59,86.59Z"/>
        <path class="cls-12" d="M157.89,89.84a1.63,1.63,0,0,0,1.76-1.4,1.2,1.2,0,0,0-.26-.72,5.31,5.31,0,0,0-3.23.27,1.13,1.13,0,0,0-.09.45,1.63,1.63,0,0,0,1.77,1.4Z"/>
        <g>
          <path class="cls-13" d="M175,111.22s-4.18,0-6.58,0-6.59,0-6.59,0l-1.81.13a9.23,9.23,0,0,0,3.15,2.7,11.88,11.88,0,0,0,4.05.7h0s.48,0,1.2,0,1.19,0,1.19,0h0a11.87,11.87,0,0,0,4-.7,9.23,9.23,0,0,0,3.15-2.7Z"/>
          <path class="cls-14" d="M175.13,110.22c-1.41-.58-3.9-1.34-5.72-1.87a2.15,2.15,0,0,0-2.29,0c-1.82.53-4.31,1.29-5.72,1.87-2.41,1-1.5,1-1.5,1h16.73S177.55,111.22,175.13,110.22Z"/>
        </g>
        <path class="cls-11" d="M185.58,86.59s-4-2.62-7.52-1.78-6.39,2.69-6.9,1.78-.67-2.43,0-2.94,2.81.19,5.58-.62,4.34-1.19,5.61,0S185.58,86.59,185.58,86.59Z"/>
        <path class="cls-12" d="M178.28,89.84a1.63,1.63,0,0,1-1.75-1.4,1.14,1.14,0,0,1,.26-.72A5.28,5.28,0,0,1,180,88a1,1,0,0,1,.1.45,1.63,1.63,0,0,1-1.78,1.4Z"/>
        <path class="cls-11" d="M185,105.81c-3.17-.81-3.58,1.2-3.58,1.2,2-1.27,3.54.77,2.44,2s-2.6.94-5.74-2.77-5.48-3.51-5.48-3.51a8.4,8.4,0,0,0-4.54,1.51l0,.14c0-.09,0-.14,0-.14a8.4,8.4,0,0,0-4.54-1.51s-2.34-.2-5.48,3.51-4.64,4-5.74,2.77.46-3.27,2.44-2c0,0-.41-2-3.58-1.2s-2.94,6.14-.47,7.74,7.05-1.47,9.39-2.37c2-.77,6.56-1.73,8-2.22,1.45.49,6,1.45,8,2.22,2.34.9,6.91,4,9.39,2.37S188.12,106.61,185,105.81Z"/>
        <path class="cls-15" d="M173.86,98.36c-.89-1.45-1.69-.27-1.69-.27s-.49-2.56-1.1-5.28-.36-4.63-.76-6.52c-.33-1.53-1.58-1-2-.67-.46-.28-1.71-.86-2,.67-.41,1.89-.16,3.8-.77,6.52s-1.1,5.28-1.1,5.28-.8-1.18-1.69.27a10.1,10.1,0,0,0-.67,3.51c.16,1.32.94,1.37,1.75,1.4s1.56-.49,2.23.24a3.55,3.55,0,0,0,1.88,1h0a2.38,2.38,0,0,0,.39,0,2.34,2.34,0,0,0,.38,0h0a3.55,3.55,0,0,0,1.88-1c.67-.73,1.43-.22,2.24-.24s1.59-.08,1.74-1.4A10.1,10.1,0,0,0,173.86,98.36Z"/>
        <path class="cls-10" d="M173.6,98.36c-.85-1.45-1.62-.27-1.62-.27s-.46-2.56-1-5.28-.35-4.63-.73-6.52c-.31-1.53-1.51-1-1.94-.67-.44-.28-1.63-.86-2,.67-.38,1.89-.15,3.8-.73,6.52s-1,5.28-1,5.28-.77-1.18-1.62.27a10.69,10.69,0,0,0-.63,3.51c.15,1.32.89,1.37,1.66,1.4s1.49-.49,2.13.24a3.34,3.34,0,0,0,1.79,1h0a2.13,2.13,0,0,0,.37,0,2,2,0,0,0,.36,0h0a3.3,3.3,0,0,0,1.79-1c.64-.73,1.36-.22,2.13-.24s1.52-.08,1.66-1.4A10.42,10.42,0,0,0,173.6,98.36Z"/>
        <g>
          <path class="cls-16" d="M170.21,86.29c.38,1.89.15,3.8.73,6.52s1,5.28,1,5.28l.15-.18c-.12-.62-.55-2.8-1.06-5.1-.61-2.72-.36-4.63-.76-6.52C170.13,85.49,170.05,85.53,170.21,86.29Z"/>
          <path class="cls-16" d="M164.55,98.09s.46-2.56,1-5.28.35-4.63.73-6.52c.16-.76.08-.8-.09,0-.41,1.89-.16,3.8-.77,6.52-.51,2.3-.94,4.48-1.06,5.1Z"/>
          <path class="cls-16" d="M162.3,101.87a10.69,10.69,0,0,1,.63-3.51c.28-.48.55-.67.79-.71-.29-.05-.66.08-1.05.71a10.1,10.1,0,0,0-.67,3.51c.16,1.32.94,1.37,1.75,1.4h.16C163.16,103.24,162.44,103.16,162.3,101.87Z"/>
          <path class="cls-16" d="M173.86,98.36c-.38-.63-.75-.76-1.05-.71.24,0,.51.23.79.71a10.42,10.42,0,0,1,.63,3.51c-.14,1.29-.86,1.37-1.61,1.4h.17c.8,0,1.59-.08,1.74-1.4A10.1,10.1,0,0,0,173.86,98.36Z"/>
          <path class="cls-16" d="M170.44,103.51a3.3,3.3,0,0,1-1.79,1h0a2,2,0,0,1-.36,0,2.34,2.34,0,0,0,.38,0h0a3.55,3.55,0,0,0,1.88-1,1.11,1.11,0,0,1,.81-.39A1.08,1.08,0,0,0,170.44,103.51Z"/>
          <path class="cls-16" d="M167.88,104.5a3.34,3.34,0,0,1-1.79-1,1.08,1.08,0,0,0-.92-.39,1.11,1.11,0,0,1,.81.39,3.55,3.55,0,0,0,1.88,1h0a2.38,2.38,0,0,0,.39,0,2.13,2.13,0,0,1-.37,0Z"/>
        </g>
        <path class="cls-16" d="M174.53,101.47c-.15,1.32-.94,1.37-1.74,1.4s-1.57-.49-2.24.24a3.55,3.55,0,0,1-1.88,1h0a2.34,2.34,0,0,1-.38,0,2.38,2.38,0,0,1-.39,0h0a3.55,3.55,0,0,1-1.88-1c-.67-.73-1.42-.21-2.23-.24s-1.59-.08-1.75-1.4c0,0,0-.11,0-.17a5.32,5.32,0,0,0,0,.57c.16,1.32.94,1.37,1.75,1.4s1.56-.49,2.23.24a3.55,3.55,0,0,0,1.88,1h0a2.38,2.38,0,0,0,.39,0,2.34,2.34,0,0,0,.38,0h0a3.55,3.55,0,0,0,1.88-1c.67-.73,1.43-.22,2.24-.24s1.59-.08,1.74-1.4a3.57,3.57,0,0,0,0-.57C174.54,101.36,174.53,101.42,174.53,101.47Z"/>
        <path class="cls-9" d="M165.18,101.25s.29-3.6.83-6.34c.48-2.42.91-5.65.05-7.55a40.27,40.27,0,0,1-.6,5.45c-.61,2.72-1.1,5.28-1.1,5.28a1,1,0,0,0-.85-.44,5.64,5.64,0,0,1,1.34,2.46Z"/>
        <path class="cls-9" d="M171.4,101.25s-.29-3.6-.83-6.34c-.48-2.42-.91-5.65,0-7.55a38.72,38.72,0,0,0,.6,5.45c.61,2.72,1.09,5.28,1.09,5.28a1,1,0,0,1,.86-.44,5.54,5.54,0,0,0-1.34,2.46Z"/>
        <path class="cls-17" d="M164.91,102a1.18,1.18,0,0,0-1.55.49.65.65,0,0,0,.2.67h.06c.81,0,1.57-.43,2.24.22a3.44,3.44,0,0,0,.36.28A5.49,5.49,0,0,0,164.91,102Z"/>
        <path class="cls-17" d="M171.61,101.61a1.17,1.17,0,0,1,1.55.48.65.65,0,0,1-.2.67h-.06c-.81,0-1.57-.44-2.24.21a2.54,2.54,0,0,1-.36.29A5.49,5.49,0,0,1,171.61,101.61Z"/>
        <path class="cls-18" d="M168.62,114.66a11.5,11.5,0,0,0-10.79,7.5c3.46,3.24,5.2,4.35,9.3,4.32.23,0,2,0,2.27,0,4.3,0,6-1.18,9.81-4.8A11.48,11.48,0,0,0,168.62,114.66Z"/>
        <path class="cls-19" d="M157.93,89.14a1.06,1.06,0,0,1-1.05-.92s0,.09,0,.13a1.06,1.06,0,0,0,2.11,0s0-.08,0-.13A1.06,1.06,0,0,1,157.93,89.14Z"/>
        <path class="cls-20" d="M158.67,88.22a.25.25,0,0,1-.5,0,.25.25,0,0,1,.5,0Z"/>
        <path class="cls-19" d="M178.5,89.27a1,1,0,0,1-1-.92.57.57,0,0,0,0,.13,1.05,1.05,0,1,0,2.1,0,.57.57,0,0,0,0-.13A1,1,0,0,1,178.5,89.27Z"/>
        <path class="cls-20" d="M179.24,88.34a.25.25,0,1,1-.49,0,.25.25,0,0,1,.49,0Z"/>
        <path class="cls-21" d="M169.54,82.29a1.28,1.28,0,1,1-2.54,0c0-.76.57-10.42,1.27-10.42S169.54,81.53,169.54,82.29Z"/>
        <path class="cls-11" d="M199.92,71.13c.12-7.32-36.14-17.65-63.14-3,0,0-.47,12.63,5.76,17.57l2.74,9.62s1.49-13.16,1.69-16.74c.09-.25.42-2.72.61-3.13,1.92-4.08,6.41-8.64,12.12-9,24.55-1.54,27.32,2.39,29.11,9.38C190.3,81.66,191.62,95,191.62,95l2.13-7.47C195.74,84.58,199.81,77.41,199.92,71.13Z"/>
        <g>
          <path class="cls-5" d="M137.2,70.82s30-3.16,39.05-2,22.47,5.19,24,5.28,10.65-13.25,15-20.44,2.93-20.84-8.27-17.23-16.51,8.17-19.34,7-24.37-9.88-31.46-6.9-10.6,7.82-16.32,7.44-19.22-8-22.12-4.93S117.62,64.3,137.2,70.82Z"/>
          <path class="cls-22" d="M179.47,40.39c-7.73-2.68-18.63-5.78-23.28-3.82a58.61,58.61,0,0,0-8.75,5C155.25,44.47,170.13,42.26,179.47,40.39Z"/>
          <path class="cls-22" d="M217.49,44.11c-.34-5.43-3.51-9.91-10.5-7.66-8.33,2.69-13.39,5.89-16.61,6.89-8.19,4.58-23.32,5.13-36,4.92-5.37-.09-12.21-2.42-18.36-5.1-6.49-2-15.87-6.55-18.23-4.08-.86.91-1.22,3.53-.78,6.93,6.61-5.69,11.09,1.08,30.22,7.81,21.81,7.67,58.57-7.65,63.93-10.13A6.7,6.7,0,0,1,217.49,44.11Z"/>
          <path class="cls-23" d="M201.32,71.94c0-.12-.06-.26-.11-.43s-.08-.37-.15-.58-.14-.45-.23-.71-.08-.26-.13-.4l-.16-.42c0-.06,0-.13-.07-.2l.37-.38c.53-.56,1.09-1.19,1.68-1.85s1.17-1.39,1.77-2.15c.46-.58.9-1.19,1.35-1.82l.13.21c.25.43.5.81.67,1.13.09.16.19.3.25.42l.18.32a2.77,2.77,0,0,0,.15.27l.15,0s0-.1,0-.31a6.25,6.25,0,0,0-.15-.86c0-.18-.09-.39-.15-.61s-.13-.45-.21-.7-.18-.51-.28-.79v0c.48-.7,1-1.41,1.47-2.11l1.76-2.51c.42-.6.83-1.2,1.23-1.79l.44.71c.23.35.44.65.6.9s.3.44.4.57l.15.2.15,0s0-.09,0-.25-.07-.4-.13-.7c0-.15-.07-.31-.12-.49s-.1-.37-.15-.57c-.12-.4-.26-.86-.44-1.34l-.06-.17,1.19-1.79c.48-.74.93-1.44,1.36-2.08l1.13-1.78.86-1.37.74-1.21-.13-.09-.84,1.14c-.54.72-1.32,1.74-2.24,3-.46.62-1,1.28-1.5,2l-.82,1.08-.13.16-.16-.39c-.23-.54-.49-1.11-.79-1.67-.15-.28-.3-.57-.47-.85s-.34-.57-.51-.86l-1.06-1.74c-.34-.59-.69-1.17-1-1.75l-.33-.56.12-.31c.4-1,.77-1.94,1.09-2.81.66-1.75,1.17-3.22,1.51-4.26s.52-1.63.52-1.63l-.16-.06s-.21.59-.62,1.59l-.76,1.81c-.29.7-.63,1.48-1,2.33s-.76,1.66-1.18,2.56l-.21-.33c-.33-.55-.66-1.07-1-1.56l-.89-1.39c-.28-.43-.54-.82-.76-1.17s-.43-.65-.6-.89l-.52-.78-.14.08s.61,1.22,1.51,3c.46.91,1,2,1.55,3.11.16.33.33.66.5,1l-1,2.07c-.52,1-1.08,2.1-1.64,3.18s-1,1.9-1.55,2.84l-.58-.78c-.51-.67-1-1.35-1.53-2s-1-1.3-1.53-1.91l-.88-1.07q.28-.71.54-1.38c.32-.85.62-1.66.88-2.41.53-1.49,1-2.75,1.21-3.63s.42-1.39.42-1.39l-.15-.05-.53,1.34c-.18.43-.39,1-.63,1.54s-.53,1.26-.85,2-.67,1.5-1,2.32l-.44,1L195.22,46c-.41-.48-.8-.91-1.14-1.3l-.89-1-.79-.85-.12.1.69.93.79,1.07,1,1.4c.37.51.76,1.07,1.18,1.66l.2.28c-.13.27-.26.55-.4.83-.43.89-.89,1.79-1.36,2.72s-1,1.84-1.46,2.76c-.26.46-.51.92-.78,1.37l-.29.49c-.15-.17-.29-.34-.44-.5-.67-.74-1.35-1.45-2-2.14s-1.31-1.33-1.93-1.93l-.06-.06s0-.09,0-.13c.12-.36.24-.7.34-1.05.2-.68.4-1.32.55-1.93.08-.3.16-.58.23-.86l.19-.78c.12-.49.21-.93.28-1.28s.13-.64.16-.83.05-.29.05-.29l-.16,0s0,.09-.08.28-.14.46-.24.8c0,.17-.12.36-.19.57s-.13.43-.22.66l-.26.76-.31.83c-.2.58-.46,1.2-.72,1.85-.1.26-.21.52-.32.78l-1.05-1c-1.1-1-2.05-1.87-2.72-2.45l-1.06-.89-.1.12s.36.35,1,1c.31.31.68.7,1.1,1.14s.89,1,1.4,1.5l1.16,1.28c-.07.19-.16.38-.24.56-.32.7-.64,1.43-1,2.15l-.53,1.1c-.18.36-.37.72-.56,1.08l-.29.54-.14.27-.16.27-.6,1-.24-.31c-.5-.66-1-1.32-1.49-2s-1-1.27-1.49-1.87c-.1-.14-.21-.27-.32-.4s0-.1,0-.15c.17-.63.32-1.25.45-1.83s.24-1.14.34-1.66.18-1,.24-1.4.12-.79.16-1.09c.08-.61.11-1,.11-1l-.16,0s-.07.34-.23.92-.38,1.43-.68,2.42q-.23.73-.51,1.59c-.15.42-.3.87-.46,1.32-.59-.72-1.16-1.39-1.67-2l-1.1-1.28-.86-1-.76-.84-.12.1.66.92.75,1.06c.29.41.62.87,1,1.38l1.14,1.63.65.94-.53,1.35c-.26.63-.52,1.26-.8,1.88-.15.32-.29.63-.44.93s-.31.6-.47.9l-.93,1.73-.32.61c-.07-.18-.15-.35-.23-.53s-.14-.3-.2-.45-.15-.29-.23-.44l-.49-.88c-.32-.6-.69-1.18-1-1.78-.17-.3-.35-.59-.53-.88s-.35-.58-.53-.87-.46-.72-.7-1.07c.14-.54.27-1.06.37-1.56s.24-1.16.33-1.68a33,33,0,0,0,.45-3.5l-.16,0s-.07.34-.21.94-.35,1.45-.64,2.45c-.15.5-.31,1.05-.5,1.62l-.27.81c-.28-.4-.55-.79-.82-1.15s-.34-.47-.51-.69l-.48-.64c-.31-.41-.61-.77-.87-1.1l-.68-.82-.46-.53-.16-.18-.13.1.14.2c.09.13.22.32.38.57s.35.56.58.91.46.74.72,1.18l.41.68c.14.23.28.48.42.73.3.5.59,1,.9,1.59l.15.28c-.2.56-.43,1.13-.66,1.71-.13.31-.26.63-.4.94s-.28.64-.42,1-.3.63-.46.93-.32.61-.48.91-.34.58-.49.88c-.09.14-.17.28-.25.43l-.33-.68c-.28-.52-.58-1.06-.9-1.59s-.65-1.07-1-1.62l-.93-1.63-.54-.94c.23-.59.44-1.16.64-1.7s.41-1.2.58-1.73.32-1,.45-1.48.24-.82.32-1.14c.16-.64.24-1,.24-1l-.15,0s-.12.35-.36,1-.59,1.48-1,2.5c-.22.52-.47,1.07-.74,1.65l-.5,1-.68-1.16c-.28-.46-.54-.9-.78-1.31l-.67-1.1c-.2-.33-.37-.62-.52-.85l-.45-.74-.14.07.34.8.4.91.53,1.18.62,1.39c.22.5.46,1,.7,1.55,0,.1.09.2.13.3-.27.54-.56,1.08-.85,1.64s-.7,1.29-1.08,1.93c-.19.32-.38.63-.58.94l-.42.65c-.23-.42-.48-.85-.74-1.28s-.64-1.07-1-1.62-.63-1.1-.93-1.64l-.92-1.57-.11-.19a.61.61,0,0,0,.05-.12c.27-.65.51-1.28.72-1.86a35,35,0,0,0,1.21-3.92l-.16,0s-.13.39-.4,1c-.13.33-.3.73-.49,1.19s-.43,1-.69,1.51-.45.93-.7,1.42l-.29-.5c-.28-.46-.54-.9-.78-1.31l-.67-1.11c-.2-.32-.38-.61-.52-.85l-.46-.73-.14.07.35.8c.11.25.24.56.4.91l.52,1.18.62,1.39c.16.35.32.71.49,1.07-.23.44-.48.89-.74,1.35s-.38.66-.58,1-.4.67-.62,1-.42.67-.64,1c-.12.17-.23.34-.34.51l-.34.49-.52.72c-.18-.43-.37-.86-.58-1.29-.28-.61-.57-1.23-.85-1.85s-.55-1.25-.83-1.86-.55-1.22-.81-1.8l0,0c.26-.52.5-1,.7-1.48s.49-1.14.67-1.63.33-.92.44-1.28c.23-.71.32-1.14.32-1.14l-.15,0s-.14.4-.43,1.08c-.15.34-.34.75-.56,1.22s-.5,1-.81,1.53c-.16.31-.34.62-.54,1-.13-.3-.27-.59-.4-.87l-.7-1.49-.6-1.27-.47-1-.41-.84-.15.06.3.89c.1.28.21.63.34,1s.29.84.45,1.32c.31.91.68,2,1.07,3.09-.37.57-.76,1.16-1.2,1.76-.22.32-.47.64-.71,1s-.5.65-.76,1-.52.64-.8,1l-.41.48-.43.46c-.19.21-.39.42-.59.62-.32-.67-.66-1.35-1-2s-.82-1.58-1.22-2.38l-.6-1.19a1.56,1.56,0,0,0,.16-.2l.36-.45c.11-.16.23-.31.34-.46.45-.61.87-1.2,1.25-1.78s.72-1.14,1-1.66c.6-1,1-1.93,1.34-2.57s.43-1,.43-1l-.14-.06s-.18.35-.54,1c-.18.29-.4.65-.67,1.06s-.57.85-.91,1.33-.73,1-1.15,1.53l-.66.8c-.23.27-.46.56-.71.83l-.37.42-.26.28c-.43-.86-.86-1.7-1.29-2.51s-.75-1.47-1.12-2.15L135,47l-.17-.31.08-.1.82-1.09c.24-.33.45-.62.61-.86.34-.47.52-.75.52-.75l-.12-.1-.62.68-.71.76-.87.91-.41-.76-.67-1.24-.6-1.09-.14.08,1.45,3.39c-.26.27-.54.54-.83.83s-.82.82-1.27,1.25l-1.39,1.3c-.48.44-1,.87-1.47,1.3-.25.21-.5.43-.76.63l-.08.07c-.1-.22-.21-.44-.3-.66-.42-.92-.85-1.82-1.25-2.69s-.76-1.62-1.12-2.37c.31-.31.61-.63.89-.93s.58-.64.83-1l.37-.45.34-.43c.11-.14.2-.28.29-.41s.19-.25.27-.37l.22-.33c.06-.1.12-.2.18-.28s.18-.32.24-.41l.08-.15-.14-.09a1,1,0,0,1-.1.13l-.31.35-.5.52c-.19.2-.42.42-.67.65l-.39.37-.42.38c-.29.26-.61.52-.94.8l-.73.58c-.22-.48-.44-.94-.65-1.37l-.92-1.9L123,40.37l-.63-1.26-.14.06,2.49,6.37-.27.21-.55.4c-.37.26-.74.53-1.12.76s-.75.48-1.1.72a10.87,10.87,0,0,0-1,.76c-.18.14-.35.29-.52.44-.05-.11-.09-.23-.14-.33l-.6-1.41-.54-1.25-.46-1.05-.36-.82-.32-.7-.15,0,.2.75c.06.24.14.53.23.86s.2.7.32,1.11.24.84.37,1.31.28.95.43,1.46c.07.25.14.5.22.76l-.2.19c-.21.2-.38.38-.52.53l-.32.38-.11.13.08.14.18,0,.47-.12.71-.24c.15.47.29,1,.44,1.43s.31,1.08.46,1.61.29,1.07.46,1.56.37,1,.57,1.41l.18.4,0,0c-.23.17-.43.29-.55.39l-.2.14.05.15a1.51,1.51,0,0,0,.25,0l.29,0c.12,0,.25,0,.4-.09h0c0,.1.1.2.16.3a19.84,19.84,0,0,0,1,1.8l.33.49.13.17.15-.06s0-.07,0-.21,0-.33,0-.58a19.47,19.47,0,0,0-.36-2l-.06-.27.31-.13c.21-.09.45-.18.67-.3s.48-.23.72-.37.49-.27.74-.43a13.65,13.65,0,0,0,1.5-1q.41-.33.81-.69a3.65,3.65,0,0,0,.14.35c.37,1,.73,1.92,1.08,2.87s.69,1.88,1,2.78a1.22,1.22,0,0,0,.07.17c-.22.15-.42.31-.63.46l-.74.53-.69.48-.63.44-.56.39-.47.33c-.29.19-.52.35-.67.47l-.24.17.07.15.28-.07.8-.2c.35-.1.75-.24,1.22-.4.24-.08.48-.19.73-.3l.81-.35.85-.42.47-.26q.21.49.42,1c.35.8.71,1.56,1,2.26s.64,1.33.9,1.9c.08.16.16.31.23.46l-.15.13-.24.19c-.29.23-.51.42-.67.56l-.23.2.08.14.29-.1.83-.31.41-.17c.07.12.12.24.18.35.19.41.36.73.47.94s.18.33.18.33l.15,0-.06-.37c0-.24-.11-.59-.2-1,0-.14-.06-.29-.1-.44l.22-.11.37-.18.38-.2.81-.45c.56-.34,1.16-.71,1.77-1.15l.46-.33.46-.36c.3-.25.62-.5.92-.77s.87-.83,1.29-1.28c.08.15.15.31.23.46.16.34.33.68.49,1l.48.93c.3.6.6,1.14.86,1.62s.48.9.67,1.24l.16.3,0,0c-.15.16-.28.32-.4.44l-.57.61-.2.23.1.13.27-.13c.17-.08.43-.21.75-.39.14-.07.29-.16.45-.26l.07.12.15,0s0-.06,0-.19l.48-.3.66-.46c.12-.09.23-.18.36-.26s.23-.19.36-.29l.37-.3c.13-.1.25-.21.38-.33s.51-.45.77-.7l.77-.79c.26-.28.51-.57.76-.87s.46-.58.68-.88c.19.41.37.8.55,1.16s.46.88.65,1.24.38.69.53.95.28.47.37.6l.14.22.15,0a2.25,2.25,0,0,0,0-.25c0-.17-.05-.41-.1-.71s-.1-.66-.18-1.08-.2-.87-.33-1.37-.29-1-.46-1.6c-.08-.23-.15-.46-.23-.7.33-.52.66-1,1-1.58l.32-.53.31-.54c.21-.36.4-.72.59-1.07s.38-.72.56-1.08.35-.71.51-1.06.24-.52.35-.78c.17.38.34.76.52,1.14.26.56.52,1.13.79,1.7l.76,1.72c.24.57.49,1.13.75,1.66.08.17.17.34.26.51l-.32.46-1.08,1.67-.5.78-.23.37c-.09.12-.16.24-.24.35-.3.47-.58.9-.83,1.27l-.35.53-.29.46c-.19.28-.33.49-.42.65l-.15.23.12.12L154,69l.64-.45c.26-.21.58-.46.93-.77s.74-.67,1.13-1.09c.2-.2.4-.42.6-.65s.42-.48.62-.74c.36-.44.72-.92,1.07-1.44l0,.06.39.62c.25.4.5.76.73,1.07s.21.31.3.45l.28.37c.16.22.3.4.4.51l.15.19.15-.07a2.32,2.32,0,0,1,0-.23l-.14-.64c-.07-.27-.14-.61-.26-1s-.25-.79-.42-1.24-.34-.93-.56-1.43l-.09-.21.32-.6c.17-.34.35-.67.51-1,.08-.17.17-.34.26-.51l.25-.51q.5-1,1-2c.13-.31.27-.62.4-.92a1,1,0,0,0,.07.15q.39.84.78,1.71c.27.57.52,1.15.76,1.72s.49,1.12.75,1.65.54,1,.82,1.49l.08.13c-.07.12-.13.24-.19.36l-.8,1.46-.18.34-.18.32c-.12.2-.22.4-.32.59s-.21.36-.3.52-.16.32-.24.45l-.35.63-.11.24.12.1.21-.15.57-.46c.24-.2.53-.46.84-.76l.49-.51.25-.27.26-.31.53-.65.31-.42.53.77.31.44.27.37c.17.22.3.4.4.52l.15.18.15-.06s0-.08,0-.23-.07-.37-.14-.65-.14-.61-.26-1-.25-.79-.41-1.24a3.62,3.62,0,0,1-.13-.35l.41-.72c.15-.31.31-.61.45-.92s.28-.64.41-1c.27-.65.52-1.32.77-2,.12-.33.25-.66.36-1s.23-.67.33-1,.18-.58.27-.86l.11.21.45.89c.16.3.31.6.45.91.29.61.58,1.21.82,1.83.12.3.24.61.37.91s.25.59.37.88.25.56.38.83.13.28.19.41l.18.4.05.09c-.05.09-.09.18-.14.26l-.18.35c-.23.46-.45.88-.64,1.25l-.28.52-.22.45q-.22.41-.33.63l-.11.23.12.11.21-.16c.13-.1.32-.25.56-.46s.51-.46.81-.77.57-.62.88-1c.2.43.4.83.58,1.19.1.18.17.36.25.52s.16.31.22.45l.33.62c.08.14.13.21.13.21l.15,0s0-.08,0-.25,0-.4,0-.7-.06-.68-.12-1.09-.18-.89-.3-1.39c0-.27-.13-.54-.21-.82l.12-.19a16.32,16.32,0,0,0,1-1.65,20.06,20.06,0,0,0,.81-1.88c.13-.32.25-.65.37-1,.06-.16.12-.33.19-.49l.17-.5c.24-.66.46-1.32.67-2,.07-.22.14-.45.2-.67l1.22,1.8c.45.66.91,1.35,1.35,2l.53.82-.48.78c-.37.67-.76,1.29-1.09,1.91-.18.31-.34.6-.5.89s-.33.56-.48.83-.3.52-.44.76-.25.49-.38.7c-.26.43-.47.82-.65,1.14l-.39.75-.13.27.12.1.23-.19.63-.58c.26-.25.59-.56.94-.93s.72-.81,1.12-1.29l.62-.76c.21-.28.41-.56.62-.86a20.48,20.48,0,0,0,1.22-1.89l0,0c.14.23.27.46.41.68s.42.67.62,1c.42.64.82,1.26,1.23,1.83l.58.84-.13.22c-.16.27-.33.52-.48.75l-.4.66c-.25.38-.44.69-.57.9l-.2.34.12.1.29-.25.8-.73c.33-.32.72-.71,1.15-1.17l.48.69.46.64.76,1.06c.21.29.38.52.51.68l.18.23.15-.07-.08-.29c-.05-.19-.13-.46-.25-.81-.05-.18-.12-.37-.19-.58s-.16-.43-.25-.67c-.2-.46-.41-1-.69-1.56l-.17-.35.55-.66c.26-.3.51-.63.77-1s.54-.69.8-1.07l.4-.57.39-.59c.27-.4.53-.82.78-1.25s.52-.86.75-1.32c.11-.19.21-.39.31-.58l.16.2c.3.4.6.8.89,1.21s.57.81.85,1.21l1.49,2.22-.65,1-.4.62-.39.59-.37.57q-.18.29-.36.54l-.67,1c-.2.32-.41.6-.6.87s-.35.53-.5.75l-.72,1-.25.38.12.11.34-.3.95-.86c.39-.38.87-.85,1.39-1.4l.82-.9c.29-.32.58-.67.88-1,.15-.18.31-.36.46-.55l.47-.59.39-.51.72,1,1.34,2,.55.85-.53.76c-.17.26-.34.5-.5.72l-.42.62-.57.88-.2.32.12.11.29-.24c.18-.16.46-.39.79-.69s.76-.66,1.21-1.11l.41-.41.18.28.21.35.38.62c.23.38.4.68.53.88l.19.31.15,0S201.38,72.17,201.32,71.94ZM127,53l-.74.56c-.48.37-.94.74-1.37,1.09s-.84.67-1.23,1c-.19.16-.38.29-.55.43l0,0c-.13-.46-.28-.94-.46-1.43s-.39-1-.62-1.5-.45-1-.67-1.54-.39-1-.59-1.44q.42-.2.87-.45a12.57,12.57,0,0,0,1.06-.68c.18-.13.35-.27.52-.42l.51-.46.51-.48.52-.48.46-.43,2.3,5.87Zm3.7,3.83c-.43-.92-.86-1.85-1.28-2.79L129,53.2l.4-.4.7-.71c.48-.48.94-1,1.39-1.45s.87-1,1.28-1.45.8-.94,1.16-1.38c.18-.24.36-.46.54-.68l0,.07,3.09,7.21a.23.23,0,0,1-.07.07c-.26.28-.54.55-.82.82l-.86.8c-.59.52-1.19,1-1.8,1.49l-.46.34-.46.34-.44.33-.45.32-.43.33,0,0C131.42,58.46,131,57.62,130.65,56.78Zm8.14,6.08-.87.76-.82.73c-.14.11-.27.23-.4.35l-.4.33-.75.63c-.24.2-.47.4-.7.58s-.21.19-.32.27l-.25.21-.06-.21c-.15-.61-.35-1.29-.58-2s-.5-1.54-.79-2.38c-.14-.41-.29-.82-.45-1.24l.38-.26.46-.34.45-.35.45-.38.45-.39.43-.41c.3-.27.58-.56.87-.84l.85-.87.83-.88.52-.59.3.7c.35.82.68,1.65,1,2.47s.65,1.62,1,2.38c0,.09.07.17.11.25Zm6.26,4.47c-.19.21-.37.4-.53.59l0,0s0,0,0-.08c-.09-.39-.2-.86-.34-1.39s-.33-1.12-.54-1.77-.46-1.33-.74-2c-.14-.38-.3-.77-.46-1.17l.13-.15.42-.5c.14-.16.27-.33.41-.5l.41-.51.39-.51c.27-.34.51-.69.77-1s.48-.69.71-1,.45-.69.65-1c.1-.18.21-.35.31-.52l.29-.51.15-.27c.12.37.25.73.38,1.1l.68,1.92c.23.65.44,1.29.65,1.93s.41,1.27.64,1.86c0,.13.09.25.14.38l-.5.6-.73.87c-.25.28-.48.56-.71.84l-.68.81c-.45.52-.87,1-1.27,1.47l-.29.33ZM202.55,55c.57-1.11,1.11-2.24,1.64-3.35s1-2.21,1.49-3.29c.22-.5.43-1,.64-1.49.26.53.52,1.07.79,1.61s.58,1.22.85,1.83.55,1.2.83,1.77.58,1.1.87,1.6c.2.34.39.67.58,1l-1.57,2-1.88,2.41-1.09,1.35c-.18-.39-.37-.79-.58-1.2-.33-.65-.71-1.32-1.14-2l-.67-1-.73-1-.09-.12Zm-12.78,4.87c-.51.84-1,1.65-1.45,2.42-.12.19-.23.38-.34.57s-.23.37-.34.55l-.32.53-.32.51-.12.2-.13-.25c-.35-.62-.72-1.27-1.15-1.92s-.9-1.3-1.4-1.94c-.07-.11-.15-.21-.23-.32.1-.2.2-.41.29-.62.34-.75.7-1.5,1-2.27.17-.38.34-.76.5-1.14s.31-.77.47-1.15c.32-.76.58-1.52.84-2.25,0,0,0-.1.05-.14.51.57,1,1.18,1.57,1.81s1.22,1.46,1.85,2.23l.66.82C190.73,58.35,190.24,59.14,189.77,59.91Zm5.58.68-1-1.16c-.33-.38-.65-.78-1-1.16-.18-.21-.36-.41-.53-.62,0-.09.09-.19.14-.28s.23-.48.35-.71l.69-1.43c.47-1,.91-1.92,1.34-2.87s.83-1.89,1.21-2.81c0-.12.09-.24.14-.36.17.23.33.47.5.72.45.64.91,1.31,1.37,2s.93,1.38,1.39,2.08c.3.45.59.92.87,1.38l-.39.66-.48.79c-.16.26-.32.52-.49.78l-1,1.52-.94,1.48c-.35.54-.68,1.08-1,1.59-.11-.14-.22-.28-.32-.43C196,61.37,195.66,61,195.35,60.59Zm3.85,5.81c-.09-.19-.19-.37-.29-.56s-.21-.37-.32-.56c-.3-.55-.64-1.1-1-1.66l.48-.68c.32-.47.63-.95,1-1.45s.62-1,.91-1.54.6-1.06.89-1.6l.44-.82.42-.82.27.45c.2.35.42.68.62,1,.41.66.82,1.29,1.21,1.89l1,1.55c-.62.73-1.22,1.46-1.79,2.18s-1.15,1.49-1.67,2.2c-.27.35-.52.69-.76,1l-.63.87-.19-.43C199.57,67.12,199.39,66.77,199.2,66.4Z"/>
        </g>
      </g>
      <path class="cls-5" d="M92.5,207.41c3.68-26.86,12.67-51.94,17-63-6.79,3.78-12.54,8.36-14.65,13.6-6.47,16.08-7.91,32.16-11.22,43.71-2.89,10.1-8.54,29.15-8.56,39.34L26.22,256.51l2.23,11.33C88.85,264.8,87.76,242,92.5,207.41Z"/>
      <path class="cls-4" d="M220.2,201.36l10.68,43.8s8.77,49.62,16.4,60.86c1.4,2.06,2.53,3.85,3.44,5.4h11.57c-5.07-12.24-10.67-26.92-13.4-38-5.65-23-22.59-72.37-27.18-74.49-1.45-.67-1.88,1.87-1.79,5.66Z"/>
      <g>
        <path class="cls-5" d="M247.28,306c1.4,2.06,2.53,3.85,3.44,5.4h9.35c-7.78-16.81-17.27-45.21-20.36-57.06-4.24-16.24-7.06-45.19-15.53-52.6-2.17-1.9-3.35-1.57-3.89,0l10.59,43.44S239.65,294.78,247.28,306Z"/>
        <path class="cls-5" d="M219.89,204.93l.22-2.59A13,13,0,0,0,219.89,204.93Z"/>
      </g>
      <path class="cls-24" d="M156.69,250.83c-12.56,1-24.18,1.78-31.44,2.13l-.5,0-.37,0-.48,0-.6,0-.47,0-.38,0h-4l-.26,0h-.08l-.24,0c-5.69-.89-4.94,22.44-1.29,28.72h0a6.34,6.34,0,0,0,.35.54,1.1,1.1,0,0,0,.15.16l.1.07.11.09.16.09.11.07.22.1.09,0,.29.11.08,0a3,3,0,0,0,.36.13h0l.44.13h0c4.24,1.18,13.94,1.88,25.68,2.24,4.61-2,10.33-3.23,19.38-5.49C180.86,276,171.16,251.21,156.69,250.83Z"/>
      <path class="cls-24" d="M141,204.16a148.06,148.06,0,0,1-16.06,6.61l-.47.16q-2.77.94-5.68,1.83h0c-.47.14-.94.29-1.41.42,0,0-6.27,6.8.13,10.39,0,0-8,7.07.26,12.28-.89,2.55-6.22,6.6-.85,11.17.19.16.61.15,1.23,0h0l.54-.15.17-.06.47-.17.2-.07.68-.28.26-.11.53-.24.34-.15.72-.34.42-.21.61-.3.45-.23.64-.34.6-.32.63-.33h0c10.45-5.67,28.89-17.81,46.68-32.06C180.71,201.19,151.37,212.38,141,204.16Z"/>
      <path class="cls-25" d="M166.41,195.94s-42.22,22.93-50.47,26.45a7.3,7.3,0,0,0,1.57,1.18S150.69,212.54,166.41,195.94Z"/>
      <path class="cls-25" d="M117.77,235.85a3.76,3.76,0,0,1-.16.37c8-3.37,53.22-23.18,75.7-51.68,0,0-24.85,24.57-77.92,49.28A10.15,10.15,0,0,0,117.77,235.85Z"/>
      <path class="cls-25" d="M213.57,137.67c-2.35,6.61-14.64,38.21-41.18,59.61,14.25-7,42.52-41.94,44.37-59.63A4.14,4.14,0,0,0,213.57,137.67Z"/>
      <path class="cls-25" d="M209.13,135.61a9.62,9.62,0,0,0-.31-2.69c-1.75,7.39-8,29.25-24.87,48.21,7.62-5.37,24-32.24,26.89-46.23A3.39,3.39,0,0,0,209.13,135.61Z"/>
      <path class="cls-25" d="M204.63,285c-1.76-.61-5-1-9.73-.83-16.14.6-62-1.6-69.65-5.07s-5.58-6.68,9.47-7.86,34.66-5.24,26.37-4.14-35.25-.34-40.23-.42c-2.89-.05-5.44-2.34-7.07-4.26-.42,7.36.87,16.84,3.13,19.9C120.06,286.57,178.31,286.43,204.63,285Z"/>
      <path class="cls-25" d="M132.07,259.89a45.85,45.85,0,0,0,10.07.65c16.73-.24,64.26,1.72,72.12,4.16s5.73,4.61-9.86,5.27-72.43,6.94-63.84,6.27,73-3.13,78.17-3a9.76,9.76,0,0,1,3.22.64,46.84,46.84,0,0,0,1-11.18l-.08-.08C219.68,259.67,159.35,259.18,132.07,259.89Z"/>
      <path class="cls-25" d="M218.16,256.21c3,3.54,2.18,16.05-1.63,19.59-3.05,2.83-57.82,6.35-62.59,10,27.26.4,60.05-.72,63.18-2.11,4.79-2.13,9.34-24.32,2.16-34.74C218,250.64,216.08,253.75,218.16,256.21Z"/>
      <g>
        <g>
          <polygon class="cls-26" points="50.47 70.96 32.58 89.78 14.68 70.96 32.58 13.98 50.47 70.96"/>
          <polygon class="cls-27" points="32.25 15.02 14.68 70.96 32.25 89.44 32.25 15.02"/>
        </g>
        <rect class="cls-28" x="27.42" y="83.05" width="10.3" height="228.37"/>
        <rect class="cls-29" x="27.42" y="83.05" width="3.71" height="228.37"/>
        <rect class="cls-30" x="34.02" y="83.05" width="3.71" height="228.37"/>
        <path class="cls-29" d="M41.69,85.23c0,1.77-4.08,3.21-9.11,3.21S23.46,87,23.46,85.23,27.54,82,32.58,82,41.69,83.45,41.69,85.23Z"/>
        <path class="cls-30" d="M32.58,86.94c-4.3,0-7.9-1-8.86-2.46a1.36,1.36,0,0,0-.26.75c0,1.77,4.08,3.21,9.12,3.21s9.11-1.44,9.11-3.21a1.36,1.36,0,0,0-.26-.75C40.47,85.89,36.88,86.94,32.58,86.94Z"/>
      </g>
      <path class="cls-6" d="M139.18,132.52s1.33-4.13,5-.43,25.45,29.64,25.45,29.64L190,130.21s4.13-1.21,2.31,3-22.11,34.37-22.11,34.37Z"/>
      <path class="cls-31" d="M144.22,134c3.7,3.7,25.45,29.63,25.45,29.63L190,132.09s1.93-.56,2.57.42c1.09-3.37-2.57-2.3-2.57-2.3l-20.34,31.52s-21.75-25.93-25.45-29.64-5,.43-5,.43l.65.73C140.55,132.39,141.94,131.69,144.22,134Z"/>
      <path class="cls-2" d="M41.89,249.42c-1.62-4.46-17.52-2.57-21.37,1.28s-7.17,24.42.86,26.52C31.9,280,53.81,282.2,41.89,249.42Z"/>
      <g>
        <path class="cls-2" d="M43.78,255s-11.33-1.46-18.24,1.17"/>
        <path class="cls-2" d="M45.49,262.42a164.5,164.5,0,0,1-19.09,1.43"/>
        <path class="cls-2" d="M44.64,270.4a117.71,117.71,0,0,1-19.1.74"/>
      </g>
      <g>
        <ellipse class="cls-32" cx="177.83" cy="90.38" rx="3.63" ry="4.39"/>
        <ellipse class="cls-33" cx="177.68" cy="90.31" rx="2.37" ry="3.02"/>
        <ellipse class="cls-20" cx="177.28" cy="87.88" rx="0.57" ry="0.73"/>
        <g>
          <ellipse class="cls-32" cx="158.17" cy="89.84" rx="3.63" ry="4.39"/>
          <ellipse class="cls-33" cx="158.14" cy="89.64" rx="2.37" ry="3.02"/>
          <ellipse class="cls-20" cx="157.61" cy="87.34" rx="0.57" ry="0.73"/>
        </g>
      </g>
    </g>
  </g>
</svg>
