<svg id="Layer_1" data-name="Layer 1" xmlns="http://www.w3.org/2000/svg" width="381.37" height="261.23" viewBox="0 0 381.37 261.23">
  <defs>
    <style>
      .cls-1 {
        fill: #ff0;
      }

      .cls-2 {
        fill: #dd8f6c;
      }

      .cls-3 {
        fill: #e89c7c;
      }

      .cls-14, .cls-4 {
        fill: #eae2d6;
      }

      .cls-13, .cls-4 {
        stroke: #323232;
        stroke-miterlimit: 10;
      }

      .cls-4 {
        stroke-width: 0.5px;
      }

      .cls-5 {
        fill: #a07347;
      }

      .cls-6 {
        fill: #43474f;
      }

      .cls-7 {
        fill: #c8ac8d;
      }

      .cls-8 {
        fill: #a79d90;
      }

      .cls-9 {
        fill: #91633a;
      }

      .cls-10 {
        fill: #363a41;
      }

      .cls-11 {
        fill: #bd9e7d;
      }

      .cls-12 {
        fill: #988e80;
      }

      .cls-13 {
        fill: #ddcbb3;
        stroke-width: 0.75px;
      }
    </style>
  </defs>
  <g>
    <path class="cls-1" d="M306.5,12c-.79,0-1.59,0-2.41.1l-1-.14-1.88-.24L299,11.49l-1.58-.18-1.67-.18-1.82-.19-2.08-.21-2.33-.22-2.07-.18-2.52-.22-2.75-.22-3.64-.26-4.66-.3c-2.12-.13-4.33-.26-6.63-.36-9.4-.46-19-.69-28.53-.69-1.41,0-2.85,0-4.29,0-36.5.22-91.91,4-148.69,20.74l-.13,0c-9.9,2.9-19.67,6.16-29,9.66-.29.12-.59.22-.89.33a26.23,26.23,0,0,0-3.74-.26,25.07,25.07,0,0,0-2.75.14C21.3,41.84,3.79,88,9.3,144,14.62,198.14,39,239,66.09,239a25.75,25.75,0,0,0,2.78-.15,26.59,26.59,0,0,0,5.66-1.21c1.33.27,2.5.54,3.6.82,3.6.94,9.66,2.41,18.1,4.12l2.53.5,2.95.57,3.25.59,3.78.67,3,.5.14,0,3,.48,4.27.66,3.29.48.84.12,3.72.51,3.57.47.13,0,3.58.44,3.16.37,3.61.4,1.6.17,5.1.52.17,0,5.41.49,1.72.15,4,.32,1.87.14,4.4.32,1.48.1,5.93.36,1.48.07c1.55.09,3.12.16,4.71.24l2.11.09,4.46.18,2,.07c2.09.07,4.2.13,6.38.18H194c2.19,0,4.41.08,6.65.12l2.09,0c1.61,0,3.24,0,4.87,0h2.46l5.24,0H217c2.37,0,4.75-.06,7.16-.11l1.72,0,5.68-.15,2.44-.08c1.78-.06,3.58-.12,5.38-.2l2.33-.09c2.54-.11,5.09-.23,7.67-.37,11.21-.59,22.58-1.45,33.78-2.57,14.52-1.43,29.07-3.26,43.24-5.44,31.87-3.58,51.83-57,45.47-121.72C365.73,59.38,337.61,12,306.5,12Z"/>
    <g>
      <path class="cls-2" d="M65.94,62.25c2-3.44,4.24-6.52,6.28-9.71,1.06-1.57,2-3.19,2.91-4.83a19.26,19.26,0,0,0,2.07-5.33,10.51,10.51,0,0,1-.49,6A24.11,24.11,0,0,1,74,53.83a34.5,34.5,0,0,1-3.66,4.63,24.67,24.67,0,0,1-4.44,3.79"/>
      <path class="cls-2" d="M84.62,46.39a8.34,8.34,0,0,1,2.22,5.27,12.87,12.87,0,0,1-1,5.89,17.82,17.82,0,0,1-3.06,4.94c-.66.68-1.33,1.36-2,2a24.69,24.69,0,0,1-2.28,1.6c.46-.85,1-1.61,1.5-2.37s1-1.57,1.46-2.3a34.68,34.68,0,0,0,2.38-4.71,15.25,15.25,0,0,0,.78-10.29"/>
      <path class="cls-2" d="M86.19,53.6a12.36,12.36,0,0,1,7.72-2,5.79,5.79,0,0,1,4,2.19c1,1.78.56,3.38.34,4.79A29.89,29.89,0,0,1,95,66.35,39.21,39.21,0,0,1,90.38,73c1-2.55,2.1-5,3.12-7.47a48.56,48.56,0,0,0,2.57-7.4,5.27,5.27,0,0,0,0-3.11L96,54.83l-.28-.26a2.64,2.64,0,0,0-.62-.48,5.7,5.7,0,0,0-1.51-.65,17.71,17.71,0,0,0-7.37.16"/>
      <path class="cls-2" d="M96.07,62a7.34,7.34,0,0,1,2.43-2.67,7.75,7.75,0,0,1,3.41-1.3,5.62,5.62,0,0,1,3.62.85,5.24,5.24,0,0,1,2.22,2.86,15.69,15.69,0,0,0-2.93-1.19,7.47,7.47,0,0,0-2.74-.2A29.56,29.56,0,0,0,96.07,62Z"/>
      <path class="cls-3" d="M90.37,46.85a12.3,12.3,0,0,0,9-2.68l-1-.41s-2.49,2.89-8,3.09"/>
      <path class="cls-4" d="M15.27,143.43c5.1,51.89,28.82,91.93,53,89.42s39.62-46.62,34.52-98.52S74,42.41,49.79,44.92,10.17,91.53,15.27,143.43"/>
      <path class="cls-5" d="M29.48,187.66v0c.59,1.59,1.19,3.14,1.83,4.65.18.45.37.9.57,1.34A101.15,101.15,0,0,0,41.9,212a61.5,61.5,0,0,0,4.51,5.78v0c5.4,6.18,11.28,10.3,17.32,11.86a20.16,20.16,0,0,0,2.7.54,111.23,111.23,0,0,1,13.21,2.43c4.32,1.13,10.27,2.53,17.78,4,29.07,5.86,81.36,13,151.68,9.22q16.13-.84,33.5-2.54c13.76-1.36,28.09-3.12,43-5.41L304,18.18s-11.35-1.71-30.49-2.86c-2.1-.13-4.28-.26-6.56-.36-9.41-.46-20.36-.75-32.5-.67-40,.25-93,4.58-147.14,20.54h0Q73,39,58.66,44.36c-2.9,1.09-5.88,1.9-8.85,2.75l-.12,0C40.86,49.65,33.39,58,28,70.35c-.77,1.72-1.5,3.55-2.17,5.42a118.87,118.87,0,0,0-5.37,21.64c-.23,1.39-.44,2.82-.62,4.27a170.88,170.88,0,0,0-1.33,24.73c0,1.36,0,2.71.1,4.09.13,4,.4,8.14.81,12.3.44,4.47,1,8.87,1.74,13.15.25,1.45.51,2.9.79,4.33a166.16,166.16,0,0,0,7.54,27.38"/>
      <path class="cls-6" d="M249.1,245.88q16.13-.84,33.5-2.54c-18.24-16.25-46.34-50.46-50.91-113.1C227.27,70,251.28,32.6,266.92,15c-9.41-.46-20.36-.75-32.5-.67C219.25,36,198.28,78,207.64,135.76c8.91,55,28.35,91.06,41.46,110.12"/>
      <path class="cls-6" d="M63.73,229.64a20.16,20.16,0,0,0,2.7.54,111.23,111.23,0,0,1,13.21,2.43c4.32,1.13,10.27,2.53,17.78,4C81.36,217.23,64,185.58,61,137,58,88.68,73,55.22,87.26,34.83Q73,39,58.66,44.36c-2.9,1.09-5.88,1.9-8.85,2.75-10.74,23.2-19,55.37-12.94,95.16,5.72,37.83,16.5,66.76,26.86,87.37"/>
      <path class="cls-7" d="M43,64.38q-7.62,2.81-15,6h0c-.77,1.72-1.5,3.55-2.17,5.42,5.11-2.28,10.33-4.42,15.62-6.44q.75-2.52,1.55-5m179.4-29.81c-40.52,1-94.87,5.5-146.32,19.34q-1.14,2.36-2.24,4.86C125,44.54,179.48,39.88,220.4,38.71c.65-1.42,1.32-2.8,2-4.14m41.14,0c-3.3-.08-6.92-.16-10.82-.2q-1.19,2-2.36,4.07c3.9,0,7.54.09,10.89.17q1.18-2.05,2.29-4"/>
      <path class="cls-8" d="M252.71,34.34c-8.78-.1-19-.07-30.32.23-.67,1.34-1.34,2.72-2,4.14,11.09-.32,21.19-.38,29.95-.3q1.17-2.1,2.36-4.07"/>
      <path class="cls-8" d="M76.07,53.91C64.85,56.93,53.76,60.4,43,64.38q-.8,2.43-1.55,5c10.53-4,21.38-7.5,32.39-10.56q1.1-2.51,2.24-4.86"/>
      <path class="cls-7" d="M36.18,94.39q-7.79,1.42-15.73,3h0c-.23,1.39-.44,2.82-.62,4.27q8-1.62,15.86-3.06c.15-1.43.31-2.84.49-4.23M208,77.84A987.39,987.39,0,0,0,64,89.67c-.28,1.4-.56,2.81-.81,4.25a982.4,982.4,0,0,1,144.06-12c.21-1.38.44-2.74.69-4.09"/>
      <path class="cls-8" d="M234.8,78.11C227,77.9,218,77.78,208,77.84c-.25,1.35-.48,2.71-.69,4.09,9-.06,17.16,0,24.38.2,1.07-1.35,2.11-2.68,3.14-4"/>
      <path class="cls-8" d="M64,89.67q-13.62,2.11-27.85,4.72c-.18,1.39-.34,2.8-.49,4.23,9.36-1.73,18.56-3.3,27.53-4.7.25-1.44.53-2.85.81-4.25"/>
      <path class="cls-7" d="M35.16,126.17l-16.66.24c0,1.36,0,2.71.1,4.09l16.85-.25c-.11-1.37-.21-2.73-.29-4.08m157.16-2.28L60.59,125.8c0,1.35,0,2.71.07,4.09l126.87-1.83q2.43-2.07,4.79-4.17"/>
      <path class="cls-8" d="M60.59,125.8l-25.43.37c.08,1.35.18,2.71.29,4.08l25.21-.36c0-1.38-.06-2.74-.07-4.09"/>
      <path class="cls-7" d="M21.15,156c.25,1.45.51,2.9.79,4.33,5.9,1.22,12.22,2.29,18.84,3.22-.31-1.4-.6-2.81-.9-4.24-6.62-1-12.89-2.06-18.73-3.31m111,9.25c-23.22-.28-46.7-1.19-68.13-3.14.26,1.4.53,2.79.81,4.16,19,1.7,39.36,2.58,59.15,3q4.15-1.94,8.17-4"/>
      <path class="cls-8" d="M64,162.06c-4.31-.4-8.55-.83-12.68-1.31-3.9-.46-7.72-.95-11.43-1.49.3,1.43.59,2.84.9,4.24,3.29.47,6.66.9,10.09,1.3q6.81.78,13.93,1.42c-.28-1.37-.55-2.76-.81-4.16"/>
      <path class="cls-7" d="M29.49,187.68c.59,1.59,1.19,3.14,1.83,4.65,1.4.34,2.82.67,4.25,1q6.48-.65,12.76-1.57c-6.47-1.18-12.77-2.53-18.84-4.07"/>
      <path class="cls-9" d="M277.63,39.16c-4.1-.2-9.64-.42-16.39-.58a362.41,362.41,0,0,1-25.81,38.7c-.06.28-.13.56-.19.84,13.79.39,23.83,1.06,29.5,1.52,2.49-16.06,6.93-30,12.89-40.48m20.55-21.72c-3.82-.44-9.44-1-16.58-1.57-2.52-.19-5.23-.38-8.12-.55h0c-2.44,5.14-5.74,11.69-10,19.22,7.06.18,12.68.44,16.53.64,6.56-9.91,14.68-16,23.87-17-.29,0-2.28-.33-5.75-.74"/>
      <path class="cls-10" d="M235.43,77.28l-.63.83h.44c.06-.28.13-.56.19-.84"/>
      <path class="cls-9" d="M205.37,111.62q-6.23,6.19-13.05,12.27l13.77-.2c-.39-4.11-.62-8.13-.72-12.07m58.79-27.91c-5.74-.46-15.88-1.14-29.78-1.52a175.38,175.38,0,0,0-3.08,41.14l31.51-.46a213.64,213.64,0,0,1,1.35-39.16"/>
      <path class="cls-10" d="M234.38,82.19l-2.72-.06a335.69,335.69,0,0,1-26.29,29.49c.1,3.94.33,8,.72,12.07l25.21-.36a175.38,175.38,0,0,1,3.08-41.14"/>
      <path class="cls-9" d="M206.53,127.79l-19,.27a284.46,284.46,0,0,1-55.41,37.14c29.07.34,57.72-.33,81.34-1.24-2.22-8.77-4.2-18.17-5.82-28.2-.43-2.69-.81-5.35-1.11-8m56.53-.82-31.56.46c.06.93.12,1.86.19,2.81a208.5,208.5,0,0,0,4.92,32.7c15.41-.77,26.64-1.51,31.4-1.85a230.67,230.67,0,0,1-4.4-27.72q-.32-3.23-.55-6.4"/>
      <path class="cls-10" d="M231.5,127.43l-25,.36c.3,2.62.68,5.28,1.11,8,1.62,10,3.6,19.43,5.82,28.2,8.43-.32,16.21-.67,23.15-1a208.5,208.5,0,0,1-4.92-32.7c-.07-1-.13-1.88-.19-2.81"/>
      <path class="cls-9" d="M48.35,191.74h0m166.17-23.69c-11.75.46-24.76.86-38.43,1.11-15.89.28-33.77.37-52.14,0a268.22,268.22,0,0,1-53.43,18.4q1.37,4,2.86,7.86c40.45,4.7,84,4.27,117.42,2.67,11.62-.56,22.64-1.28,32.71-2.07a292.84,292.84,0,0,1-9-28M269,165.13c-4.26.31-15.56,1.07-31.33,1.87A172.2,172.2,0,0,0,247,194c14.42-1.43,25-2.75,30-3.41A190.76,190.76,0,0,1,269,165.13"/>
      <path class="cls-10" d="M237.62,167c-6.91.36-14.69.72-23.1,1.05a292.84,292.84,0,0,0,9,28c8.59-.67,16.49-1.38,23.5-2.07a172.2,172.2,0,0,1-9.39-27"/>
      <path class="cls-10" d="M70.52,187.58q-10.77,2.47-22.17,4.16h0c8.1,1.48,16.45,2.69,24.94,3.68h.09q-1.5-3.81-2.86-7.86"/>
      <path class="cls-9" d="M35.57,193.32c-1.22.13-2.45.24-3.68.35A101.15,101.15,0,0,0,41.9,212h0c5,1.73,10.26,3.3,15.79,4.7-2.71-6.26-5.37-13.1-7.88-20.52q-7.28-1.28-14.24-2.84M225.05,200c-10.43.82-21.9,1.59-34,2.17-33,1.59-75.77,2-115.88-2.44a154.16,154.16,0,0,0,11.93,22.69q6.2.92,12.59,1.65c45.64,5.31,97.75,4.26,137.45,2A250.32,250.32,0,0,1,225.05,200m53.58-5.54c-4.26.56-14.9,1.93-29.8,3.42a149.77,149.77,0,0,0,16.07,26.31c13.3-1,23.63-2.07,29.68-2.72a112.13,112.13,0,0,1-15.95-27"/>
      <path class="cls-10" d="M248.83,197.9c-7.05.7-15.05,1.43-23.78,2.12a250.32,250.32,0,0,0,12.06,26.08c10.19-.58,19.56-1.23,27.79-1.89a149.77,149.77,0,0,1-16.07-26.31"/>
      <path class="cls-10" d="M49.81,196.16c2.51,7.42,5.17,14.26,7.88,20.52a297.5,297.5,0,0,0,29.38,5.76,154.16,154.16,0,0,1-11.93-22.69l-2.23-.25c-7.84-.91-15.58-2-23.1-3.34"/>
      <path class="cls-9" d="M46.41,217.78c5.4,6.18,11.28,10.3,17.32,11.86-1.31-2.6-2.62-5.35-3.94-8.22-4.63-1.11-9.1-2.32-13.38-3.64m192.87,12.29c-40.12,2.33-93.46,3.5-140.2-1.94-3-.35-6-.73-9-1.14,2.43,3.51,4.89,6.73,7.32,9.67h0c10.37,2.09,23.71,4.35,39.76,6.22a661.43,661.43,0,0,0,111.92,3c-3-4.37-6.35-9.63-9.82-15.81m58.64-4.82c-4.95.54-15.55,1.65-30,2.82a136.71,136.71,0,0,0,14.64,15.27h0c13.76-1.36,28.09-3.12,43-5.41h0a25,25,0,0,1-5.4,0c-7.7-.9-15.26-5.36-22.24-12.64"/>
      <path class="cls-10" d="M268,228.07c-8.39.68-18.07,1.38-28.68,2,3.47,6.18,6.81,11.44,9.82,15.81h0q16.13-.84,33.5-2.54A136.71,136.71,0,0,1,268,228.07"/>
      <path class="cls-10" d="M59.79,221.42c1.32,2.87,2.63,5.62,3.94,8.22h0a20.16,20.16,0,0,0,2.7.54,111.23,111.23,0,0,1,13.21,2.43c4.32,1.13,10.27,2.53,17.78,4C95,233.72,92.53,230.5,90.1,227c-10.6-1.46-20.8-3.3-30.31-5.57"/>
      <path class="cls-11" d="M280.06,35.18c-3.85-.2-9.47-.46-16.53-.64q-1.11,2-2.29,4c6.75.16,12.29.38,16.39.58.79-1.39,1.6-2.71,2.43-4"/>
      <path class="cls-11" d="M264.74,79.64c-5.67-.46-15.71-1.13-29.5-1.52-.3,1.34-.59,2.7-.86,4.07,13.9.38,24,1.06,29.78,1.52.18-1.37.38-2.73.58-4.07"/>
      <path class="cls-12" d="M235.24,78.12h-.44c-1,1.34-2.07,2.67-3.14,4l2.72.06c.27-1.37.56-2.73.86-4.07"/>
      <path class="cls-11" d="M206.09,123.69l-13.77.2q-2.35,2.1-4.79,4.17l19-.27c-.17-1.38-.31-2.74-.44-4.1m56.72-.82-31.51.46c0,1.35.12,2.72.2,4.1l31.56-.46c-.09-1.37-.18-2.74-.25-4.1"/>
      <path class="cls-12" d="M231.3,123.33l-25.21.36c.13,1.36.27,2.72.44,4.1l25-.36c-.08-1.38-.15-2.75-.2-4.1"/>
      <path class="cls-11" d="M213.46,164c-23.62.91-52.27,1.58-81.34,1.24q-4,2-8.17,4c18.37.35,36.25.26,52.14,0,13.67-.25,26.68-.65,38.43-1.11-.36-1.35-.71-2.71-1.06-4.09M268,161.09c-4.76.34-16,1.08-31.4,1.85.33,1.37.66,2.73,1,4.06,15.77-.8,27.07-1.56,31.33-1.87-.32-1.33-.64-2.68-.94-4"/>
      <path class="cls-12" d="M236.61,162.94c-6.94.35-14.72.7-23.15,1,.35,1.38.7,2.74,1.06,4.09,8.41-.33,16.19-.69,23.1-1.05-.35-1.33-.68-2.69-1-4.06"/>
      <path class="cls-11" d="M48.33,191.75q-6.28.92-12.76,1.57,7,1.56,14.24,2.84c-.5-1.45-1-2.92-1.46-4.41h0M223.51,196c-10.07.79-21.09,1.51-32.71,2.07-33.41,1.6-77,2-117.42-2.67.57,1.47,1.16,2.9,1.76,4.31,40.11,4.48,82.9,4,115.88,2.44,12.13-.58,23.6-1.35,34-2.17-.52-1.3-1-2.63-1.54-4M277,190.56c-5,.66-15.57,2-30,3.41.59,1.33,1.2,2.64,1.82,3.93,14.9-1.49,25.54-2.86,29.8-3.42-.55-1.29-1.09-2.59-1.63-3.92"/>
      <path class="cls-12" d="M247,194c-7,.69-14.91,1.4-23.5,2.07.51,1.35,1,2.68,1.54,4,8.73-.69,16.73-1.42,23.78-2.12-.62-1.29-1.23-2.6-1.82-3.93"/>
      <path class="cls-12" d="M48.35,191.75c.48,1.49,1,3,1.46,4.41,7.52,1.32,15.26,2.43,23.1,3.34l2.23.25c-.6-1.41-1.19-2.84-1.76-4.31h-.09c-8.49-1-16.84-2.2-24.94-3.68"/>
      <path class="cls-11" d="M41.9,212a61.5,61.5,0,0,0,4.51,5.78v0h0c4.28,1.32,8.75,2.53,13.38,3.64q-1-2.31-2.1-4.74c-5.53-1.4-10.81-3-15.79-4.7M237.11,226.1c-39.7,2.25-91.81,3.3-137.45-2q-6.39-.74-12.59-1.65c1,1.57,2,3.08,3,4.55,3,.41,6,.79,9,1.14,46.74,5.44,100.08,4.27,140.2,1.94-.72-1.28-1.44-2.61-2.17-4m57.47-4.61c-6.05.65-16.38,1.68-29.68,2.72,1,1.34,2.05,2.63,3.06,3.86,14.41-1.17,25-2.28,30-2.82q-1.69-1.77-3.34-3.76"/>
      <path class="cls-12" d="M264.9,224.21c-8.23.66-17.6,1.31-27.79,1.89.73,1.36,1.45,2.69,2.17,4,10.61-.62,20.29-1.32,28.68-2-1-1.23-2-2.52-3.06-3.86"/>
      <path class="cls-12" d="M57.69,216.68q1.05,2.43,2.1,4.74c9.51,2.27,19.71,4.11,30.31,5.57-1-1.47-2-3-3-4.55a297.5,297.5,0,0,1-29.38-5.76"/>
      <path class="cls-13" d="M263.61,133.37c6,60.68,33.7,107.49,61.95,104.56s46.33-54.51,40.37-115.2S332.22,15.24,304,18.17s-46.33,54.51-40.36,115.2"/>
      <path class="cls-14" d="M268.46,132.86c5.4,54.93,30.51,97.3,56.08,94.64s41.93-49.34,36.53-104.26S330.57,25.94,305,28.6s-41.92,49.34-36.53,104.26"/>
      <path class="cls-6" d="M305,128.57c2.14,21.77,12.09,38.56,22.22,37.51s16.62-19.55,14.48-41.32-12.09-38.56-22.23-37.5S302.86,106.81,305,128.57"/>
    </g>
  </g>
</svg>
