<svg xmlns="http://www.w3.org/2000/svg" xmlns:xlink="http://www.w3.org/1999/xlink" width="330.35" height="352.95" viewBox="0 0 330.35 352.95">
  <defs>
    <style>
      .cls-1 {
        fill: none;
      }

      .cls-2 {
        isolation: isolate;
      }

      .cls-3 {
        fill: #ff0;
      }

      .cls-4 {
        fill: url(#linear-gradient);
      }

      .cls-5 {
        fill: url(#linear-gradient-2);
      }

      .cls-6 {
        fill: url(#linear-gradient-3);
      }

      .cls-7 {
        fill: url(#New_Gradient_Swatch_copy_125);
      }

      .cls-8 {
        fill: url(#New_Gradient_Swatch_copy_125-2);
      }

      .cls-9 {
        fill: url(#New_Gradient_Swatch_copy_125-3);
      }

      .cls-10 {
        fill: url(#linear-gradient-4);
      }

      .cls-11 {
        fill: url(#New_Gradient_Swatch_copy_125-4);
      }

      .cls-12, .cls-28, .cls-29 {
        mix-blend-mode: multiply;
      }

      .cls-12 {
        fill: url(#New_Gradient_Swatch_copy_29);
      }

      .cls-13 {
        fill: url(#New_Gradient_Swatch_copy_125-5);
      }

      .cls-14 {
        fill: url(#New_Gradient_Swatch_copy_125-6);
      }

      .cls-15 {
        fill: url(#linear-gradient-5);
      }

      .cls-16 {
        fill: url(#New_Gradient_Swatch_copy_125-7);
      }

      .cls-17 {
        fill: #c3c0b8;
      }

      .cls-18 {
        fill: #a13b35;
      }

      .cls-19 {
        fill: #ff5d53;
      }

      .cls-20 {
        fill: url(#New_Gradient_Swatch_copy_125-8);
      }

      .cls-21, .cls-29 {
        fill: #ede2dc;
      }

      .cls-22 {
        fill: url(#linear-gradient-6);
      }

      .cls-23 {
        fill: url(#linear-gradient-7);
      }

      .cls-24 {
        fill: url(#New_Gradient_Swatch_copy_125-9);
      }

      .cls-25 {
        clip-path: url(#clip-path);
      }

      .cls-26 {
        fill: #54504b;
      }

      .cls-26, .cls-27 {
        opacity: 0.3;
        mix-blend-mode: screen;
      }

      .cls-27 {
        fill: #d4d4d4;
      }

      .cls-28 {
        fill: url(#linear-gradient-8);
      }

      .cls-30 {
        fill: #c14b44;
      }

      .cls-31 {
        fill: #74201c;
      }

      .cls-32 {
        fill: #c74941;
      }

      .cls-33 {
        fill: #de5148;
      }
    </style>
    <linearGradient id="linear-gradient" x1="17.27" y1="193.36" x2="287.47" y2="193.36" gradientUnits="userSpaceOnUse">
      <stop offset="0" stop-color="#e6e2d9"/>
      <stop offset="0.29" stop-color="#d0cdc5"/>
      <stop offset="1" stop-color="#9b9893"/>
    </linearGradient>
    <linearGradient id="linear-gradient-2" x1="88.86" y1="310.48" x2="104.16" y2="373.75" xlink:href="#linear-gradient"/>
    <linearGradient id="linear-gradient-3" x1="67.29" y1="362.41" x2="181.34" y2="279.75" xlink:href="#linear-gradient"/>
    <linearGradient id="New_Gradient_Swatch_copy_125" data-name="New Gradient Swatch copy 125" x1="210.8" y1="235.13" x2="334.29" y2="190.74" gradientUnits="userSpaceOnUse">
      <stop offset="0" stop-color="#b0ada7"/>
      <stop offset="1" stop-color="#656460"/>
    </linearGradient>
    <linearGradient id="New_Gradient_Swatch_copy_125-2" x1="279.97" y1="405.22" x2="131.93" y2="84.63" xlink:href="#New_Gradient_Swatch_copy_125"/>
    <linearGradient id="New_Gradient_Swatch_copy_125-3" x1="164.54" y1="239.06" x2="142.34" y2="38.53" xlink:href="#New_Gradient_Swatch_copy_125"/>
    <linearGradient id="linear-gradient-4" x1="284.5" y1="8.34" x2="67.41" y2="214.09" xlink:href="#linear-gradient"/>
    <linearGradient id="New_Gradient_Swatch_copy_125-4" x1="286.74" y1="9.42" x2="66.85" y2="217.81" xlink:href="#New_Gradient_Swatch_copy_125"/>
    <linearGradient id="New_Gradient_Swatch_copy_29" data-name="New Gradient Swatch copy 29" x1="98.86" y1="296.66" x2="117.63" y2="-25.41" gradientUnits="userSpaceOnUse">
      <stop offset="0" stop-color="#e6e2d9"/>
      <stop offset="1" stop-color="#9b9893"/>
    </linearGradient>
    <linearGradient id="New_Gradient_Swatch_copy_125-5" x1="176.42" y1="310.99" x2="139.3" y2="156.77" xlink:href="#New_Gradient_Swatch_copy_125"/>
    <linearGradient id="New_Gradient_Swatch_copy_125-6" x1="187.42" y1="246.42" x2="225.16" y2="363.22" xlink:href="#New_Gradient_Swatch_copy_125"/>
    <linearGradient id="linear-gradient-5" x1="147.11" y1="134.25" x2="258.46" y2="20.98" xlink:href="#linear-gradient"/>
    <linearGradient id="New_Gradient_Swatch_copy_125-7" x1="127.75" y1="433.22" x2="167.54" y2="139.39" xlink:href="#New_Gradient_Swatch_copy_125"/>
    <linearGradient id="New_Gradient_Swatch_copy_125-8" x1="43.01" y1="60.45" x2="313.27" y2="60.45" xlink:href="#New_Gradient_Swatch_copy_125"/>
    <linearGradient id="linear-gradient-6" x1="43.04" y1="96.28" x2="313.3" y2="96.28" xlink:href="#linear-gradient"/>
    <linearGradient id="linear-gradient-7" x1="77.3" y1="141.81" x2="338.43" y2="-5.59" xlink:href="#linear-gradient"/>
    <linearGradient id="New_Gradient_Swatch_copy_125-9" x1="43.01" y1="138.32" x2="313.27" y2="138.32" xlink:href="#New_Gradient_Swatch_copy_125"/>
    <clipPath id="clip-path">
      <path class="cls-1" d="M304.15,69.19C285.53,42.5,251.72,27.7,220,21.39a213.37,213.37,0,0,0-40-4.1C113,17.1,69.64,43,52.31,68.47,88,15.75,206.49,1.93,275,42.9,288.09,50.7,297.79,59.67,304.15,69.19Z"/>
    </clipPath>
    <linearGradient id="linear-gradient-8" x1="314.19" y1="188.29" x2="377.97" y2="278.6" xlink:href="#linear-gradient"/>
  </defs>
  <g class="cls-2">
    <g id="Layer_1" data-name="Layer 1">
      <g>
        <path class="cls-3" d="M319,106.68c.05-.53.1-1.07.13-1.58.06-.84.09-1.76.1-2.79,0-.14,0-.29,0-.42V99.32l0-.75c0-.32,0-.63,0-1,0-.18,0-1,0-1,0-.35,0-.7,0-1s0-.44,0-.66l0-.46c0-.31,0-.63-.05-1s-.1-1-.1-1c0-.34-.07-.68-.11-1,0-.17-.09-.72-.09-.72-.06-.45-.12-.89-.19-1.36l-.16-.85c-.06-.39-.13-.78-.2-1.16l-.2-.9q-.12-.57-.24-1.11c0-.18-.09-.35-.14-.53l-.1-.41c-.09-.36-.18-.71-.28-1.07l-.21-.71-.14-.48c-.08-.27-.16-.54-.25-.81s-.2-.62-.31-.93l-.16-.48-.19-.56c-.09-.25-.18-.5-.28-.75l-.19-.5-.27-.71-.49-1.19c-.11-.25-.21-.5-.32-.74-.28-.64-.57-1.28-.87-1.91-13.69-28.74-50-47.3-79.29-55.07a211.16,211.16,0,0,0-56-7.43,218.46,218.46,0,0,0-39.28,3.55c-32,5.53-60.08,18.24-78.93,35.76a84.83,84.83,0,0,0-7.33,7.51A64.65,64.65,0,0,0,41.3,76.15a97,97,0,0,0-8.2,6.95c-17,15.1-24.68,34.84-21.25,54.21l.25,2.62A56,56,0,0,0,21.93,168c.05.09.69,1,.8,1.21-.33,55.48-.08,74.68.05,80.42,0,.67.08,1.56.25,3.12l0,.49c.12,1.2.28,2.44.51,3.93q.07.57.18,1.14c.2,1.28.41,2.43.64,3.52l.17.78c.23,1,.48,2.07.77,3.2l.33,1.22c.35,1.25.67,2.34,1,3.36l.24.71c.35,1,.72,2,1.11,3.07.12.33.25.67.38,1,.51,1.28,1,2.41,1.49,3.52l0,.09c.48,1.06,1,2.18,1.69,3.49l.24.47A85.85,85.85,0,0,0,40,295.45a90,90,0,0,0,6.31,7.25c1.29,1.35,2.7,2.73,4.16,4.08l.54.49c.88.79,1.76,1.58,2.65,2.34s1.5,1.26,2.27,1.89l.85.66c.83.66,1.67,1.3,2.52,1.93l.65.48c2.21,1.62,4.52,3.18,6.86,4.64l.66.41c.52.33,1,.65,1.58,1,.19.12.39.23.59.34l.23.13c1.16.67,2.37,1.36,3.61,2l.32.18.62.34c1.49.79,3.07,1.59,4.82,2.43l1.19.56c1.36.64,2.76,1.27,4.18,1.88l.92.4A160.68,160.68,0,0,0,114.72,338h.06c1.55.33,3.15.64,4.75.94l.46.08c1.46.26,2.93.51,4.5.75l.62.09c1.4.21,2.8.41,4.2.58l.87.11c1.37.17,2.75.32,4.13.46l.92.09c1.38.13,2.76.24,4.14.34l.88.06c1.44.1,2.88.17,4.32.24l.7,0c1.58.06,3.17.1,4.82.13h.19l2.36,0h0a184.68,184.68,0,0,0,24-1.57l1.2-.16c2.78-.39,5.58-.85,8.33-1.36l1.23-.24L190,338l.92-.2c1.53-.33,3.06-.69,4.57-1.06l1.41-.36,2.35-.61,1.13-.32.4-.11c1.23-.35,2.46-.72,3.69-1.1l.17,0,1.53-.48,2.07-.69,1.88-.65c1-.35,1.95-.7,2.92-1.07.7-.26,1.41-.53,2.11-.81l1.82-.73c.7-.29,1.4-.58,2.11-.89l1.87-.82q1.46-.64,2.88-1.32l1.53-.74,2.26-1.14.4-.21c.31-.15.61-.31.91-.47,1.08-.57,2.15-1.16,3.22-1.76l1.25-.72c.79-.46,1.57-.93,2.35-1.41l1.14-.69q1.59-1,3.15-2l1-.68c.81-.56,1.61-1.12,2.41-1.7l1-.72c1-.76,2.06-1.54,3-2.33l.7-.57c.83-.68,1.65-1.36,2.52-2.1l.81-.7c1.08-.94,2-1.81,2.91-2.64l.39-.37c.85-.81,1.68-1.64,2.51-2.49.26-.26.51-.51.75-.77,1.07-1.11,1.93-2,2.76-3,.67-.77,1.31-1.54,1.93-2.3l.21-.25c.54-.67,1.06-1.34,1.55-2l.32-.42.89-1.2c.56-.77,1.1-1.52,1.61-2.27l.36-.52c.29-.43.57-.85.84-1.27l.65-1,.6-.93c.33-.54.64-1.07,1-1.61l.22-.38a78.83,78.83,0,0,0,8.11-19.19,42,42,0,0,0,1.21-5.38,36.93,36.93,0,0,0,.49-4c.15-1.58.27-3.35.37-5.35.16-2.68.26-6,.34-11.54.21-12,.24-30.3.3-60.61l0-9.21a61.51,61.51,0,0,0,6.4-11.44l0,0c.22-.52.43-1,.6-1.46.46-1.14.88-2.29,1.26-3.42,17.17-13,27.15-29.06,28.89-46.36l0-.31-6-.54,6,.43Z"/>
        <g>
          <g>
            <path class="cls-4" d="M272.56,93.32c-8.51-9.58-19.16-16.87-30.43-22.71-.82-.46-3-1.63-3.92-2,0,0-.06,0-.09-.07a170.5,170.5,0,0,0-22.59-8.72,188.36,188.36,0,0,0-21.59-5.3c-1.13-.33-7.1-1.22-8.26-1.41C108,41.49,14.08,75.29,17.36,130.89c.15,2.54.95,10.83,1.07,11.88a3.32,3.32,0,0,1,.09.55c.43,2.81.86,4.47.86,4.47a56.06,56.06,0,0,0,9.37,19.56c-.34,54.43-.13,75.31,0,82.23,0,.61.21,2.48.27,3.09a75.65,75.65,0,0,0,15.68,39.1,80.19,80.19,0,0,0,7.65,8.54A101.73,101.73,0,0,0,72.1,315.44,130.38,130.38,0,0,0,93,325.39c23.54,8.9,50.88,12.24,77.24,9.64,33.55-3.31,65.51-16.2,86.09-39.43a79,79,0,0,0,17-31,43.94,43.94,0,0,0,1.5-8.2c.06-.77.09-1.41.12-2,.55-7.17.74-7.5.89-86.28,9.9-13.34,10.52-23.92,11.27-32.23.09-.83.15-1.63.21-2.3C289.53,110.47,272.56,93.32,272.56,93.32Z"/>
            <path class="cls-5" d="M93,186.79v138.6a130.38,130.38,0,0,1-20.85-9.95,101.73,101.73,0,0,1-19.72-15.13V170.72Z"/>
            <path class="cls-6" d="M287.05,135.85c-.75,8.32-1.37,18.9-11.27,32.23-.15,78.78-.34,79.11-.89,86.28,0,.61-.06,1.25-.12,2a43.94,43.94,0,0,1-1.5,8.2,75.75,75.75,0,0,1-11.94,24.62c-1.5,2.11-3.18,4.25-5.05,6.4-20.58,23.23-52.54,36.12-86.09,39.43a83.14,83.14,0,0,0,16.9-8.91c16.47-11.88,14.14-28.32,14.14-28.32s-.37-90.31,0-91.84C215.92,189.39,265,137.42,287.05,135.85Z"/>
            <path class="cls-7" d="M287.05,135.85c-.75,8.32-1.37,18.9-11.27,32.23-.16,80.4,0,88-2.51,96.5a75.75,75.75,0,0,1-11.94,24.62V173.81L285.7,136C286.16,135.91,286.62,135.88,287.05,135.85Z"/>
            <g>
              <path class="cls-8" d="M287.47,129.33C285.41,202,137.21,232,55.5,183.24c-26-15.55-44.86-39.91-35.94-68.85A60.36,60.36,0,0,1,31,94.3c1.53-3.06,16.47-17.63,38.21-27.22,20.33-9,40.55-13.53,63-15.58,26.38-2.58,56.58,1.57,61.68,3,.8,0,10.06,2.13,10.87,2.33a176.25,176.25,0,0,1,33.31,11.69s.06.07.09.07c2.5,1.06,8.69,4.55,11.06,5.9a99,99,0,0,1,23.29,18.8c.1,0,2.79,3.32,2.85,3.4a63.13,63.13,0,0,1,8,13.41,62,62,0,0,1,2.24,6.31A49.23,49.23,0,0,1,287.47,129.33Z"/>
              <g>
                <path class="cls-9" d="M51.46,76.72C37,86.11,24.13,99,19.27,115.28c-3,10.16-1.81,17.25-1,25.7C16.3,119.83,29.68,91.69,75.29,73.23c91.21-36.94,217.48,3.68,211.19,68.5.26-2.72.53-5.44.79-8.17C294.29,61.33,138.14,20.51,51.46,76.72Z"/>
                <path class="cls-10" d="M172.93,60.24C111.22,54.61,30,76.57,19.09,127.11,12.22,158.85,39,177.28,71.61,191.47c22.88-12.11,58.26-17.79,83.88-17.08a183,183,0,0,1,77.34,17.51c19.63-8.18,51.57-28.77,53.65-50.16C291.28,92.34,223.09,64.8,172.93,60.24Z"/>
                <path class="cls-11" d="M286.07,144.91c-2.51,15.85-13.9,29.55-26.61,39.25,0,0-.06,0-.09.09-2.2,1.62-4.5,3.24-6.92,4.81,51.71-40.92,14-100-72.1-111.72C67.8,62-14.08,135.79,52.72,189.06c-2.54-1.66-5-3.4-7.38-5.21,0,0-.06-.06-.06-.06-6.85-5.35-13.52-11.46-18.34-19-5.21-7.81-8.48-16.44-8.88-25.69a1,1,0,0,1,0-.31c0-.67,0-1.31,0-2a48.32,48.32,0,0,1,1.1-9.64C30,76.58,111.22,54.62,172.94,60.23,223.84,64.86,293.69,93,286.07,144.91Z"/>
                <path class="cls-12" d="M193.07,201.64C106,217.17,12.71,180.23,20.55,121.42c2.26-21,31.79-58,99.55-67.39C98.78,116.91,135.93,177.38,193.07,201.64Z"/>
              </g>
              <path class="cls-13" d="M48.34,186.05c8.88,6.29,10.81,7.85,15.44,10.62C113.84,226.59,199.31,226,246,192.88,189.68,224.48,98.41,221.57,48.34,186.05Z"/>
              <path class="cls-14" d="M287.26,133.55c-1.06,10.74-.61,29.86-27.8,50.61,0,0-.06,0-.09.09-57.8,42.53-161.68,39.32-214-.4,0,0-.06-.06-.06-.06l-1.32-1c-6.24-5-12.28-10.56-17-18a61.52,61.52,0,0,1-6.74-14c-1.77-5.73-1.89-9-2.72-18C19,150.11,29.94,164.41,44,175.31,114.6,230.84,274,207.93,286.68,137.62,286.92,136.27,287.14,134.93,287.26,133.55Z"/>
              <path class="cls-15" d="M201.45,56.09c-3.07-.61-27.91-6.73-55.12-5.76-36.49,0-83.46,12.6-109.16,37.18C6.7,114.59,9.26,155.56,55.5,183.24c84.7,50.51,232.15,15.82,232-54.13C287.37,89.45,239.86,64.4,201.45,56.09Zm74.36,94.48C247.66,205,128,221.5,60,180.73c-31.18-18.64-47.09-48.12-28.74-77.49v0c6.42-10.29,16.9-19.9,31.35-28,67.29-37.77,179.46-22.17,211,28.62a0,0,0,0,0,0,0C283,118.92,283.68,135.33,275.81,150.57Z"/>
            </g>
            <path class="cls-16" d="M274.89,254.36c0,.61-.06,1.25-.12,2a42.37,42.37,0,0,1-1.5,8.2,79,79,0,0,1-17,31c-60.22,68-218,47.42-227.23-42.93C31.5,268.9,44,287.82,74.94,302.3,150.75,337.66,265.43,310.44,274.89,254.36Z"/>
          </g>
          <g>
            <path class="cls-17" d="M47.17,208.08l0,11.31a45.58,45.58,0,0,0,22.2,39.32c.23.19,3.29,2,3.56,2.12A17.2,17.2,0,0,0,98.68,246l0-8.15-8.08-4.63c0,.06,0,10.49,0,10.55a10.14,10.14,0,0,1-15.22,8.47l-2.79-1.64a34.68,34.68,0,0,1-17.38-30.16l0-7.68Z"/>
            <g>
              <path class="cls-18" d="M55.27,202.13l0,10.59-8.88,5.18a10,10,0,0,0-3.55,3.42,10.15,10.15,0,0,1,3.33-13.9S55.21,202.16,55.27,202.13Z"/>
              <g>
                <path class="cls-18" d="M98.76,227.22c-39.09,10.83-64.07,7.19-55.95-5.9a10.21,10.21,0,0,1,0-10.5c-8.58,5-4.55,2.66-11.12,6.49,0,.46-.05,10.15,0,10.6a16.92,16.92,0,0,0,8.51,14l2.91,1.65a45.73,45.73,0,0,0,45.86-.06l9.77-5.66h0Z"/>
                <path class="cls-19" d="M98.74,227.2,89,232.9a45.64,45.64,0,0,1-45.16.43c-.28-.11-3.34-1.87-3.61-2a17.18,17.18,0,0,1,0-29.75l7-4.11,8.05,4.69c-.06,0-9.08,5.25-9.13,5.29a10.15,10.15,0,0,0,.28,17.42l2.82,1.6a34.7,34.7,0,0,0,34.81,0l6.64-3.86Z"/>
              </g>
            </g>
          </g>
          <g>
            <g class="cls-2">
              <path class="cls-20" d="M181.91,19.06c-38.09-.69-83.38,8.32-113.26,32.16C44.09,70.82,43,89,43,101.12c.15-50.95,77.52-78.95,138.88-77.84C255,24.59,313.38,59.36,313.25,101.87c0-1.26,0-3,0-4.22C313.39,54.82,254.43,20.36,181.91,19.06Z"/>
              <ellipse class="cls-21" cx="178.13" cy="101.5" rx="78.27" ry="135.12" transform="translate(76.13 279.34) rotate(-89.84)"/>
              <path class="cls-22" d="M308.23,76.14C295.68,49.78,262,32,232.77,24.27,135.41-2.49,27.19,49.37,45,110.18c17.23,59,137.53,84.95,217,48.65,13.11-6,26-14.39,35.49-24.74C314.89,115.19,317.05,94.59,308.23,76.14Z"/>
              <path class="cls-23" d="M216.91,34.49C178.35,23.89,123,30.15,96.43,61.24,87.87,71.86,85.93,82.83,88.92,93a41.33,41.33,0,0,0,9.85,16.63c9.59,10.31,24.62,18.11,42,22.8a152,152,0,0,0,41.56,5.1c18.66-.3,37.6-3.66,54.51-11.38,8.93-4.09,17.69-9.8,24.18-16.86C287.68,80.41,262,46.43,216.91,34.49Z"/>
              <path class="cls-24" d="M86.24,154.48C63.61,142.25,43,122.47,43,96.9v4.22c-.08,27.55,23.74,48.21,48.4,60.24,85.65,41.78,221.66,8.28,221.84-59.49l0-4.22C313.07,166.07,169.24,199.32,86.24,154.48Z"/>
            </g>
            <g class="cls-2">
              <g class="cls-25">
                <path class="cls-26" d="M304.15,69.19C256.43.79,101.24.12,52.56,68.1,87.12,17,205.18,1.14,275,42.9c13,7.8,22.75,16.77,29.11,26.29Z"/>
              </g>
            </g>
            <path class="cls-27" d="M133.88,130.69a114.16,114.16,0,0,0-7.49,15.53A103.29,103.29,0,0,0,121,168c-25.47-6.89-47.52-18.34-61.6-33.46.46-.52.92-1,1.38-1.59,33.68-39,100-57,100-57l19.76,6.49C178.28,84.25,146.54,109.09,133.88,130.69Z"/>
            <path class="cls-28" d="M297.46,134.09c-44.73-37.5-111.52-50.47-111.52-50.47s-46.7,2.33.38-13c29.48-9.61,86.37-5.19,121.91,5.53C317.06,94.61,314.88,115.2,297.46,134.09Z"/>
            <path class="cls-29" d="M197.53,64.67c-8.19-4.9-21.65-5-30.07-.31s-8.61,12.53-.43,17.42,21.65,5,30.07.3S205.71,69.56,197.53,64.67Z"/>
            <g>
              <path class="cls-30" d="M203.1,62.48c.17-4-2-6.14-4.5-9.54,0,0,0,0,0,0-7.46-10.07-32.6-10.49-40.51-.15h-.15c.05-.08-.49.7-2.48,3.33a9.21,9.21,0,0,0-2.1,6.35c0,1.09-.05,2.86,0,3.64,0,4.33,3.29,7.82,8.14,10.23C163.67,85,184,88,192.6,80.09a8.46,8.46,0,0,0,2.31-3.58c6.86-3.54,8.55-8.07,8.25-14Z"/>
              <path class="cls-18" d="M195,76.39a8.41,8.41,0,0,1-2.36,3.71A17.22,17.22,0,0,1,184.7,84h0c-9.49,2.18-21.55-1.13-23.18-7.65,0,0,0,0,0-.06a68.06,68.06,0,0,0,19,2.14h0A68.31,68.31,0,0,0,195,76.39Z"/>
              <path class="cls-31" d="M195,76.39a8.41,8.41,0,0,1-2.36,3.71A17.22,17.22,0,0,1,184.7,84h0a9.74,9.74,0,0,1-3.12-2,42.56,42.56,0,0,1-18.28-4.65c-.61-.34-1.2-.67-1.78-1-.21-.12-.46-.24-.67-.37a120.43,120.43,0,0,0,19.62,2.45h0C185.92,78.6,191.34,78.17,195,76.39Z"/>
              <path class="cls-18" d="M194.92,76.5c-14.83,7.8-41.53,2.06-41.57-10.37-.06-.91,0-3.24,0-4.17l49.81.52C203.52,69.64,201,73.05,194.92,76.5Z"/>
              <g>
                <path class="cls-32" d="M201.34,56.62l-2.74-3.68c.69.92-40.72-.06-40.68-.13s-.49.7-2.48,3.33c-5.85,7.69,1,15.34,10.81,18.47h0A40.41,40.41,0,0,0,179,76.41h0c9.28-.14,23-4.21,24.06-13.37h0A9.43,9.43,0,0,0,201.34,56.62Z"/>
                <g>
                  <path class="cls-33" d="M198.93,53.41c-7.34-11-34.68-10.82-41.53.25-5.8,9.4,8.2,18.71,24.77,17h0C192.2,69.6,204.92,63.39,198.93,53.41Z"/>
                  <path class="cls-19" d="M190.49,48.57c-6.56-3.93-17.36-4-24.12-.25s-6.9,10-.34,14,17.37,4,24.12.24S197.06,52.49,190.49,48.57Z"/>
                </g>
              </g>
            </g>
          </g>
        </g>
      </g>
    </g>
  </g>
</svg>
