<svg xmlns="http://www.w3.org/2000/svg" xmlns:xlink="http://www.w3.org/1999/xlink" width="397.38" height="288.74" viewBox="0 0 397.38 288.74">
  <defs>
    <style>
      .cls-1 {
        isolation: isolate;
      }

      .cls-2 {
        fill: #ff0;
      }

      .cls-3 {
        fill: #e8940f;
      }

      .cls-4 {
        fill: #231f20;
      }

      .cls-5 {
        fill: #8e3411;
      }

      .cls-17, .cls-18, .cls-22, .cls-6 {
        mix-blend-mode: multiply;
      }

      .cls-7 {
        fill: url(#radial-gradient);
      }

      .cls-24, .cls-8 {
        mix-blend-mode: screen;
      }

      .cls-9 {
        fill: url(#linear-gradient);
      }

      .cls-10 {
        fill: url(#linear-gradient-2);
      }

      .cls-11 {
        fill: url(#linear-gradient-3);
      }

      .cls-12, .cls-28 {
        fill: #c97506;
        mix-blend-mode: color-dodge;
      }

      .cls-13 {
        fill: #da5232;
      }

      .cls-14, .cls-24, .cls-27 {
        fill: #fff;
      }

      .cls-14 {
        stroke: #8e8e8e;
      }

      .cls-14, .cls-15, .cls-16, .cls-18, .cls-28 {
        stroke-miterlimit: 10;
      }

      .cls-14, .cls-15, .cls-16 {
        stroke-width: 0.5px;
      }

      .cls-15 {
        fill: #cc5729;
      }

      .cls-15, .cls-16, .cls-18, .cls-28 {
        stroke: #1d1d1b;
      }

      .cls-16 {
        fill: url(#linear-gradient-4);
      }

      .cls-17, .cls-18 {
        fill: #abadaf;
      }

      .cls-17, .cls-18, .cls-26 {
        opacity: 0.4;
      }

      .cls-18, .cls-28 {
        stroke-width: 0.25px;
      }

      .cls-19 {
        fill: #ee982a;
      }

      .cls-20 {
        fill: url(#linear-gradient-5);
      }

      .cls-21 {
        fill: url(#linear-gradient-6);
      }

      .cls-22 {
        fill: #da713b;
        opacity: 0.6;
      }

      .cls-23 {
        fill: #fffac4;
      }

      .cls-23, .cls-24 {
        opacity: 0.5;
      }

      .cls-25 {
        fill: url(#linear-gradient-7);
      }

      .cls-26 {
        fill: #000068;
      }

      .cls-29 {
        fill: #773413;
      }
    </style>
    <radialGradient id="radial-gradient" cx="3077.19" cy="271.87" r="93.06" gradientTransform="matrix(1.01, -0.16, 0.17, 1.04, -3005.24, 234.15)" gradientUnits="userSpaceOnUse">
      <stop offset="0" stop-color="#ffeb60"/>
      <stop offset="0.13" stop-color="#fee459"/>
      <stop offset="0.31" stop-color="#fad245"/>
      <stop offset="0.53" stop-color="#f5b326"/>
      <stop offset="0.73" stop-color="#ee9001"/>
      <stop offset="0.74" stop-color="#dd5536"/>
    </radialGradient>
    <linearGradient id="linear-gradient" x1="3090.89" y1="302.77" x2="3133.09" y2="331.87" gradientTransform="translate(-2980.24 220.4) rotate(-9.22)" gradientUnits="userSpaceOnUse">
      <stop offset="0.04" stop-color="#d2b597"/>
      <stop offset="0.08" stop-color="#bda388"/>
      <stop offset="0.19" stop-color="#84725f"/>
      <stop offset="0.29" stop-color="#55493d"/>
      <stop offset="0.39" stop-color="#302922"/>
      <stop offset="0.49" stop-color="#161310"/>
      <stop offset="0.57" stop-color="#060504"/>
      <stop offset="0.63"/>
    </linearGradient>
    <linearGradient id="linear-gradient-2" x1="-692.63" y1="-1064.65" x2="-602.45" y2="-1064.65" gradientTransform="matrix(-1, 0.04, 0.04, 1, -342.71, 1179.78)" gradientUnits="userSpaceOnUse">
      <stop offset="0.57" stop-color="#da5934"/>
      <stop offset="0.87" stop-color="#de6435"/>
      <stop offset="0.99" stop-color="#bf6b4e"/>
    </linearGradient>
    <linearGradient id="linear-gradient-3" x1="-529.89" y1="-935.55" x2="-480.49" y2="-935.55" xlink:href="#linear-gradient-2"/>
    <linearGradient id="linear-gradient-4" x1="3625.62" y1="-1011.13" x2="3881.68" y2="-1011.13" gradientTransform="translate(-3381.22 1312.36) rotate(-2.5)" gradientUnits="userSpaceOnUse">
      <stop offset="0.53" stop-color="#b05439"/>
      <stop offset="0.86" stop-color="#624229"/>
    </linearGradient>
    <linearGradient id="linear-gradient-5" x1="129.15" y1="-209.81" x2="171.76" y2="-209.81" gradientTransform="translate(50.02 466.58) rotate(-8.91)" xlink:href="#linear-gradient-2"/>
    <linearGradient id="linear-gradient-6" x1="134.63" y1="-280.78" x2="177.23" y2="-280.78" gradientTransform="translate(50.02 466.58) rotate(-8.91)" xlink:href="#linear-gradient-2"/>
    <linearGradient id="linear-gradient-7" x1="3678.66" y1="-1006.17" x2="3964.65" y2="-1006.17" gradientTransform="translate(-3381.22 1312.36) rotate(-2.5)" gradientUnits="userSpaceOnUse">
      <stop offset="0.01" stop-color="#cce0f4"/>
      <stop offset="0.05" stop-color="#cdd9eb"/>
      <stop offset="0.1" stop-color="#cfc6d1"/>
      <stop offset="0.18" stop-color="#d2a8a8"/>
      <stop offset="0.27" stop-color="#d67e6f"/>
      <stop offset="0.35" stop-color="#db4f2f"/>
      <stop offset="0.57" stop-color="#1e9cd7"/>
      <stop offset="0.99" stop-color="#a85338"/>
    </linearGradient>
  </defs>
  <g class="cls-1">
    <g id="Layer_1" data-name="Layer 1">
      <g>
        <path class="cls-2" d="M310.29,179.64c2.8-2.61,5.19-5,7.19-7.14A53.28,53.28,0,0,0,331.36,190c.92.78,1.9,1.57,3.1,2.49l.31.24a88,88,0,0,0,9.84,6.43l.25.14a109,109,0,0,0,18.47,8.18c2.93,1,6.88,2.15,9,2.15a6.8,6.8,0,0,0,1.29-.12,5.57,5.57,0,0,0,.8-.22c5.77-2,20.25-16.16,13.4-42.11-.05-.17-.1-.33-.16-.49-9.14-25.54-7.68-30-3.76-41.89.51-1.57,1.06-3.23,1.63-5.06l.09-.31a49.12,49.12,0,0,0-6.55-39.87c-4.79-7.32-11.76-13.78-15.57-14.42a8.6,8.6,0,0,0-1.32-.11,9,9,0,0,0-6,2.56c-2.22,2-5.68,6.15-15.28,19.93l-.15.21c-1.65,2.37-3.45,5-5.49,8-3.6,5.29-6.54,9.41-9,12.59-7.64,9.92-10,10.21-10.29,10.21-.91,0-3.62-2.61-5.8-4.8a6.15,6.15,0,0,0-1-1.41c-.43-.44-.87-.87-1.33-1.32-1.62-1.62-3.23-3.24-4.84-4.88A227,227,0,0,1,289.83,84.3c-3.41-6.34-6-11.81-8.93-18.14-3.47-7.41-7.79-16.63-15-30.4C259.85,24,253.07,18.34,245.23,18.34c-10,0-17.83,9.58-24.15,17.27-1.05,1.28-2.07,2.54-3,3.78a7.81,7.81,0,0,1-2.12-1.91A18.57,18.57,0,0,1,214,33.81,35.29,35.29,0,0,0,211.58,29a23.32,23.32,0,0,0-8.05-7.66,22.08,22.08,0,0,0-11.69-3.3,25.43,25.43,0,0,0-10.33,2.28c-3.56,1.62-6.13,2.37-8.09,2.37a5.16,5.16,0,0,1-2.42-.54,10.13,10.13,0,0,1-1.86-1.64c-.69-.76-1.35-1.58-2-2.46-.48-.6-1-1.2-1.39-1.71-.1-.13-.69-.81-.77-.9a30.72,30.72,0,0,0-2.16-2.23l-.22-.21-.29-.25c-.18-.16-.37-.31-.57-.47l-.08-.07-.6-.48c-.16-.13-.32-.24-.56-.41s-.51-.37-.77-.54-.26-.17-.44-.27-.6-.37-.89-.53L158,9.84c-.36-.19-.72-.38-1.09-.54h0l-.16-.07a17.78,17.78,0,0,0-7.19-1.52c-9.84,0-17.71,8.14-21.49,12.06-1.32,1.35-2.36,2.56-3.28,3.62a17.24,17.24,0,0,1-2.64,2.72.64.64,0,0,1-.27,0,9.13,9.13,0,0,1-2.42-.46,15.78,15.78,0,0,0-4.33-.61,14.41,14.41,0,0,0-12.41,6.61,13.5,13.5,0,0,0-.87,13.23l.21.45c-.64.3-1.33.67-2.11,1.11C53.36,67,27.71,102.35,20.8,113c-9.36.52-12.91,5.88-13.07,10.91a12.15,12.15,0,0,0,2.33,7l.39.64c-4,8.24,2.37,15,5.6,18.45.79.84,1.54,1.65,2.13,2.37,5.06,14.38,14.11,26.87,27,37.26,1.48,2.16,4.86,4.95,12.19,8.53a166.34,166.34,0,0,0,33.18,15q3.39,1.14,7,2.25c-4.24,10.31-6.35,19.08-6.28,26.13-.46,8.34,1.79,14.73,6.69,19,5.26,4.57,11.09,6.89,17.33,6.89,9,0,17.36-5,23.75-11.46a50.3,50.3,0,0,0,4.68,10.94c4,7.72,9.29,12.27,15.89,13.53a33,33,0,0,0,6,.58,25.84,25.84,0,0,0,19.66-8.83c8.47-9.39,11.22-24.31,10.19-34.19a42.91,42.91,0,0,0-1.82-8.7,188,188,0,0,0,31.27-4c1.27-.28,2.58-.58,4-.92l.76.23c14.18,3.78,27.16,8.48,34.73,12.57,7.31,4,18.43,8.2,27.7,8.2,11.5,0,16.06-6.36,17.76-10.15.11-.24.21-.48.32-.74s.2-.53.29-.79.25-.76.38-1.23L311,232c.16-.66.29-1.29.38-1.9s.19-1.26.25-1.88c0-.13,0-.26.05-.45,0-.47.09-.95.12-1.42l0-.66,0-.46c0-.24,0-.49,0-.72,0-.4,0-.81,0-1.31v-.52c0-.57,0-1.14,0-1.61v-.18A106,106,0,0,0,309,202.48c-1.3-5.88-2.77-12.54-1.49-15A29.73,29.73,0,0,0,310.29,179.64Z"/>
        <g>
          <g>
            <g>
              <path class="cls-3" d="M128.39,60.89s-1.23-1.74-14.67-12.09-3.78-18.93,4.2-16.67,8.63-1.37,14.59-7.43S151.26,6,163,23.39c5.71,7.72,12.25,7,21.08,3s19.71-1.51,24.3,10.9c3.15,7.48,7.9,9.31,17.36,11s18.16,4.36,12.66,9.52C237.58,58.63,180.52,39.18,128.39,60.89Z"/>
              <path class="cls-4" d="M129,60.72a22.81,22.81,0,0,0-3.85-3.5c-2.37-2-4.8-3.89-7.22-5.8-3.65-2.84-7.67-5.48-9.63-9.85a6.55,6.55,0,0,1,1.17-7.27c3.06-3.33,7.17-1.88,11-1.32,5.58.83,8.52-3.81,11.88-7.44s7.35-7.38,12-9.49c7.52-3.41,13.88,1.4,18.16,7.51a13.28,13.28,0,0,0,13.1,5.9c6.94-1.09,12.57-5.63,19.89-4.07a16.09,16.09,0,0,1,8.43,5.2c2.53,2.83,3.49,6.48,5.35,9.69,3,5.23,8.76,6.84,14.23,7.95,4.41.9,8.9,1.53,13,3.41,1.57.71,3.25,1.93,3,3.87-.13.8-.67,2.17-1.39,2-2.68-.5-5.32-1.26-8-1.84-27.17-6.15-55.67-7.62-82.78-1.21a127.69,127.69,0,0,0-19.26,6.25c-.75.3.35.46.7.33,30.2-12.42,64-12.34,95.79-5.88,3.62.71,7.2,1.57,10.77,2.43.79.18,2.92,1,3.65.28,5.33-5.47-4.15-7.87-8.2-8.85-6.88-1.69-14.88-1.76-19.61-7.9-2-2.66-2.84-6.07-4.65-8.9a17.47,17.47,0,0,0-6.85-6.14c-4.46-2.3-9.83-2-14.41-.4-3.47,1.2-6.61,2.91-10.33,3.33-4.09.47-7.49-1.44-10.2-4.42-2.48-2.71-4.2-5.69-7.24-7.88a13.43,13.43,0,0,0-6.4-2.36c-9.5-1.1-17.48,8.35-23.07,14.65-1.67,1.9-3.29,3.52-6.11,3.52-1.7,0-3.23-.72-4.88-.93a12.23,12.23,0,0,0-5.75.71c-4.32,1.62-5.79,6-3.93,10.14,1.54,3.41,4.83,5.76,7.69,8s5.7,4.48,8.5,6.8a24.14,24.14,0,0,1,4.31,3.84C128,61.34,129.19,61,129,60.72Z"/>
            </g>
            <g>
              <path class="cls-5" d="M127.47,43.88a20.6,20.6,0,0,1,1.67,1.33,40.49,40.49,0,0,1,3.26,3.22A38.72,38.72,0,0,1,135.27,52a20.11,20.11,0,0,1,1.14,1.82,17.3,17.3,0,0,1-1.66-1.31,41.27,41.27,0,0,1-3.28-3.25,40.58,40.58,0,0,1-2.86-3.61A17.87,17.87,0,0,1,127.47,43.88Z"/>
              <path class="cls-5" d="M134.41,39.87a15.44,15.44,0,0,1,1.31,1.47,30.51,30.51,0,0,1,2.47,3.53,34.56,34.56,0,0,1,2,3.82,17.22,17.22,0,0,1,.73,1.84,16.67,16.67,0,0,1-1.34-1.46,40,40,0,0,1-2.46-3.54,33.43,33.43,0,0,1-2-3.8A14.54,14.54,0,0,1,134.41,39.87Z"/>
              <path class="cls-5" d="M151.1,35.6a18.64,18.64,0,0,1,1,1.73,35.9,35.9,0,0,1,1.58,3.93,33.55,33.55,0,0,1,1.05,4.14,13.79,13.79,0,0,1,.28,2,14.25,14.25,0,0,1-1-1.73,31.08,31.08,0,0,1-1.56-4,33.72,33.72,0,0,1-1.08-4.1A17.54,17.54,0,0,1,151.1,35.6Z"/>
              <path class="cls-5" d="M160.12,36.45a10,10,0,0,1,.56,1.45,20.66,20.66,0,0,1,.87,6.56A9.21,9.21,0,0,1,161.4,46a8.82,8.82,0,0,1-.56-1.44,19.11,19.11,0,0,1-.7-3.25A19.86,19.86,0,0,1,160,38,9.6,9.6,0,0,1,160.12,36.45Z"/>
            </g>
            <g class="cls-6">
              <path class="cls-7" d="M225.72,48.15c-9.47-1.74-14.22-3.6-17.39-11.21-4.63-12.6-15.49-15.1-24.34-11.12s-15.36,4.71-21.1-3.14c-4.95-7.43-10.11-9.47-14.82-8.88a16.08,16.08,0,0,1,11.65,7.54c6.59,10.43,10.72,12.39,24,8.77,20.59-6.95,30.42,19.23,13.29,13.92s-33.5,1.63-34.86-4-4.2-12.57-3.43-5.31-1,14.24-4.6,5.28-7.56-12.45-5-2.24-1.07,13.83-6.82,8.45-12.26-12.79-8.67-6.42,6.43,13.28,2.92,9.93-12.81-13.56-10.57-9S136.58,52.31,132.05,53a37.65,37.65,0,0,0-8.66,3.17c4.4,3.66,5,4.46,5,4.46,52.09-21.91,109.22-2,110-2.82C243.9,52.62,235.19,49.9,225.72,48.15Z"/>
            </g>
            <g class="cls-8">
              <path class="cls-9" d="M119.33,36.19c15.12-.46,15.74-6.84,20.35-13.41s9.51-12.28,18.83-5.31c-10.45-9.4-20.9,1.07-26.12,6.47-5.95,6.14-6.6,9.8-14.58,7.51-7.18-2.07-15.65,4.69-7.6,13.72C109.1,43.08,106.63,36.57,119.33,36.19Z"/>
            </g>
          </g>
          <g>
            <path class="cls-4" d="M212.6,58s2.58-5.77,13.11-18.6,22-25.76,34.91-.89C273.84,63.93,277,73.1,284.55,87.14c11.6,21.58,21,32.12,21,32.12L290.1,147.59Z"/>
            <path class="cls-10" d="M211.43,59.6S214,53.82,224.54,41s22-25.76,34.91-.89c13.22,25.4,16.37,34.58,23.92,48.62,11.61,21.58,21,32.13,21,32.13l-15.44,28.32Z"/>
            <path class="cls-5" d="M269.68,81.44A71.87,71.87,0,0,1,282.3,87c-1.06-2-2-4-3-5.91-4.22-1.89-10.89-4.34-16.61-4.18-9.19.27-27.46,1.5-27.46,1.5S261.08,78.67,269.68,81.44Zm20.05,18.77c-1.31-2.17-2.66-4.51-4.07-7-5.18-2.63-13-6.11-18.59-6.35-9.05-.41-20.68-.63-20.68-.63s23.2,3.22,31.47,7.65C282,96.07,286.35,98.42,289.73,100.21ZM242.6,36.32c3.74-1.91,7.69-3.68,10.69-4.95a15,15,0,0,0-5.93-4.21A47.43,47.43,0,0,0,234.59,39.6c-6.46,9.52-17.22,24.57-17.22,24.57S235.26,40.08,242.6,36.32Zm18.77,7.79-1.73-3.35c-.5-1-1-1.8-1.51-2.66-4.25.25-11.18,1.34-15.22,5.6-6.1,6.45-25.54,20.47-25.54,20.47s24.85-15.73,34.27-18.39A44.69,44.69,0,0,1,261.37,44.11Zm32.34,62.48c-4-2.4-10.46-6-15.39-7.41-7.68-2.22-19-2.74-19-2.74s13.73,2.39,20.42,5.81c4.32,2.23,12.16,6.45,17.17,9.14C295.93,110,294.85,108.34,293.71,106.59Zm-24-45.85c-1-2.16-2.16-4.46-3.39-7-4.57-1.1-11.23-2-15.56.53-7.18,4.15-30,11.79-30,11.79s26-8.4,33.44-7.28C259.37,59.62,266.18,60.37,269.66,60.74Zm-7.84,10.41c6,1.84,11.7,4,15.29,5.38q-1.23-2.64-2.57-5.48c-4.92-1.59-14.22-4.09-22.89-3.67a217.36,217.36,0,0,0-25.21,3S251.76,68.11,261.82,71.15Z"/>
          </g>
          <g>
            <path class="cls-4" d="M119.13,189.92S85.07,241.36,101.94,256s35.56-3.8,41-15.77c7.7-17-1.82-29.25-1.82-29.25Z"/>
            <path class="cls-11" d="M119.18,187.5S85.13,238.94,102,253.61s35.57-3.81,41-15.78c7.69-17-1.83-29.25-1.83-29.25Z"/>
            <path class="cls-12" d="M108.12,222.91c3-12,10.6-32.61,11.49-35l0,0c-1.13,2.23-12.31,24.68-17.5,44.43A96.12,96.12,0,0,0,99,250.1a12.33,12.33,0,0,0,2.56,3.12,25.41,25.41,0,0,0,3.66,2.62C104.36,250.47,103.85,240,108.12,222.91ZM141,240.49a15.07,15.07,0,0,1-6.6-7.72c-2.36-5.79-7.51-34.12-7.51-34.12s1.1,33,2.88,37.25c1.41,3.41,3.65,10.54,4.5,13.29A43.47,43.47,0,0,0,141,240.49Zm-18.87-48.71s-8,28.45-9.15,43.15c-.82,10.79-2.18,19.22-2.84,23a18.76,18.76,0,0,0,8.86.27,72.87,72.87,0,0,1-2.57-23.65C117.22,221,122.08,191.78,122.08,191.78Zm2.37,2.76s-3.38,23.63-4.08,40.05c-.5,11.89,1.25,19.3,2.26,22.49a31.68,31.68,0,0,0,8.59-5.16c-1.28-1.81-4.4-6.53-5.55-11.36C122.38,226.8,124.45,194.54,124.45,194.54Zm18.94,40.84a31.74,31.74,0,0,0,2.13-9.66,26.09,26.09,0,0,1-5.11-5.4c-4.53-6.31-9-17.34-9-17.34s1.56,11.91,3.88,19.37C137.12,228.22,141.55,233.42,143.39,235.38Z"/>
          </g>
          <g>
            <path class="cls-13" d="M230.78,208s25.3,17.11,36.67,23.26,35.35,15.1,38.05-2.14-7.86-35.56-3.31-44.43,1.75-14.7,1.75-14.7Z"/>
            <path class="cls-5" d="M263.41,207.8a90.32,90.32,0,0,1-3.4,19.13c2.59,1.58,5,3,7,4.08-.33-.9-.66-1.88-1-3C263.53,219.61,263.41,207.8,263.41,207.8Zm-12,13.74,2.14,1.36a115.54,115.54,0,0,1,.84-13.35C253.31,213.6,252.29,217.78,251.39,221.54Zm54.11,7.58a46.26,46.26,0,0,0,0-12.82c-1.85.07-5.07-.39-8.37-3.62-5.1-5-13.36-14.19-13.36-14.19s11,13.48,13.27,17.4c1.75,3,5.45,13,7.11,17.53A13.68,13.68,0,0,0,305.5,229.12ZM271.41,205s3.78,18.05,2.07,29.22a71.57,71.57,0,0,0,9.63,3.45c-2.08-5.29-6-15.31-7.41-19.3C273.59,212.45,271.41,205,271.41,205Zm6.64-3.33s6.88,16.22,9.54,23.86c1.32,3.76,1.94,9.32,2.25,13.47,4.48.47,8.59,0,11.51-2.25-2.24-3.25-9.5-13.8-13.57-20C283.21,209.72,278.05,201.65,278.05,201.65Z"/>
            <path class="cls-4" d="M305.5,229.12c2.7-17.23-7.86-35.56-3.31-44.43s1.75-14.7,1.75-14.7c-9.5,6.67-15.87,16.25-13,22.13,5.11,10.48,13.27,19.74,13.38,28.31.28,20.85-29.6,14.92-38.51,9-10-6.62-28.56-26.64-28.56-26.64s-14.78,13.71-6,16.06c14.18,3.78,27.77,8.62,36,13.1C278.67,238.1,302.8,246.36,305.5,229.12Z"/>
            <path class="cls-4" d="M285.61,185.88s3.62,14.17,11.57,21c0,0-10.4-5.35-14.66-20.75Z"/>
            <path class="cls-4" d="M277.34,191.33S291.23,216.2,298,224.49c0,0-17.81-17.54-22.07-32.94Z"/>
            <path class="cls-4" d="M272.33,189.39s8.16,27.28,12.92,36.84c0,0-13.58-21-14.39-36.95Z"/>
            <path class="cls-4" d="M268.19,188.92s.26,28.48,2.18,39c0,0-7.21-23.94-3.56-39.5Z"/>
            <path class="cls-4" d="M263.41,183.25s-4.62,28.11-4.52,38.78c0,0-3-24.82,3.24-39.51Z"/>
            <path class="cls-4" d="M254.6,176.61s-4.61,28.1-4.52,38.78c0,0-3-24.82,3.25-39.52Z"/>
          </g>
          <g>
            <path class="cls-14" d="M333.92,150.53c3.8-14.64-.21-30.39-2.82-38.59-13.55,17.6-17,14.18-26.06,5a139.32,139.32,0,0,1,.85,17c.08,15.93,4.49,23.4,5.14,35.81,5-5.57,7.87-9.82,8.71-11.53,1,11.28,7.44,20.25,15.52,27.17C332.89,178,330.28,164.49,333.92,150.53Z"/>
            <path class="cls-14" d="M274.74,109a81.22,81.22,0,0,0,4.42-18.84q-4.83-5-9.72-9.86c-11.53-11.57-23.95-21.8-38.78-28.45-1,8.65-3.24,22.08-7.83,31.69-7.28,15.25-9.05,22.44-3.2,45.65s-1.56,51.26-2,55.91c-.39,3.8.86,21.4,5.94,33,27.71-6,49.5-16.46,65.17-28.13-3.43-10.15-.66-22.23-6.7-33.69C274.83,142.8,269.5,123.47,274.74,109Z"/>
            <path class="cls-14" d="M192.26,143.2c-2.29-12.7-4.81-22.89-5.64-42.06s-20.93-36.06-32.18-48.37a44.29,44.29,0,0,0-17.11-11.51,156.77,156.77,0,0,0-32.84,10c4.93.25,12.61,1.86,20.93,9.51,15.12,13.92,19.85,27.23,19.1,41.84s5.17,23.24,6.89,31.35-6.37,20.18-23.72,34.45S108.47,187,108.32,191.66c-.09,3.07-9.59,9-15.7,15.15a357.8,357.8,0,0,0,66.09,15q7.22.93,14.11,1.31c5.9-12,6.8-30.83,6.85-43.46C179.74,165.44,194.53,155.9,192.26,143.2Z"/>
            <path class="cls-15" d="M217.58,185.12c.49-4.65,7.9-32.7,2-55.91s-4.08-30.4,3.2-45.65c4.59-9.61,6.81-23,7.83-31.69q-.66-.32-1.32-.6c-14.83-6.37-31.19-9.74-47.13-11.45a157.44,157.44,0,0,0-44.88,1.44,44.29,44.29,0,0,1,17.11,11.51c11.25,12.31,31.34,29.2,32.18,48.37s3.35,29.36,5.64,42.06-12.52,22.24-12.59,36.47c0,12.63-.95,31.44-6.85,43.46a186.91,186.91,0,0,0,50.87-3.67C218.6,207.83,217.19,188.92,217.58,185.12Z"/>
            <path class="cls-15" d="M108.32,191.66c.15-4.62,2-9,19.37-23.24s25.46-26.36,23.72-34.45-7.63-16.74-6.89-31.35-4-27.92-19.1-41.84c-8.32-7.65-15.65-9.65-20.58-9.89C50.22,73.88,24.1,119,24.1,119s-10.18-1.13-10.38,5.07c-.07,2.41,2.32,4.06,3.52,7.93-5.89,7.36,2.62,12.32,6.3,17.5,9.87,29.2,35.83,46.84,68.92,58C98.57,201.34,108.23,194.73,108.32,191.66Z"/>
            <path class="cls-16" d="M373.34,167c-6.86-22.46-10.66-22.65.42-53.71,7.85-22-6.89-36-13.48-41.2-2.39,2.15-7.32,8.56-20,27-3.53,5.19-6.56,9.45-9.21,12.88,2.61,8.2,6.62,23.95,2.82,38.59-3.64,14-1,27.48,1.34,34.9,9.9,8.46,22.25,13.78,30,16.35C373.77,196,378.75,184.65,373.34,167Z"/>
            <path class="cls-4" d="M379.84,118c7.37-29.13-15.51-46.6-17.25-46.89-.57-.09-1.15-.06-2.31,1,6.59,5.16,21.33,19.19,13.48,41.2-11.08,31.06-7.28,31.25-.42,53.71,5.41,17.7.43,29-8.11,34.83,4,1.34,6.76,1.93,7.29,1.83,2.38-.82,15.75-11.37,9.53-34.91C371,137.89,374.69,134.54,379.84,118Z"/>
            <path class="cls-15" d="M305.89,134a147.74,147.74,0,0,0-.94-17.49c-.41-.42-.82-.83-1.26-1.25-8.26-8.27-16.36-16.69-24.53-25.06A81.22,81.22,0,0,1,274.74,109c-5.24,14.45.09,33.78,7.25,47.33,6,11.46,3.27,23.54,6.7,33.69A152.66,152.66,0,0,0,311,169.79C310.38,157.38,306,149.91,305.89,134Z"/>
            <path class="cls-17" d="M335.19,143.21c-11.3,20-5.9-10.68-14.72,5.31A55.06,55.06,0,0,1,310,161.18a64.74,64.74,0,0,1,1.06,8.61c5-5.57,7.87-9.82,8.71-11.53,1,11.28,7.44,20.25,15.52,27.17-2.37-7.42-5-20.94-1.34-34.9A47.12,47.12,0,0,0,335.19,143.21Z"/>
            <path class="cls-17" d="M218.54,199.08c.94,6.74,2.57,14.49,5.15,20.38a168,168,0,0,0,65-29.42,50.61,50.61,0,0,1-2-12.09A173.94,173.94,0,0,1,218.54,199.08Z"/>
            <path class="cls-17" d="M142.13,158.67c14-18.16,9.48-25.54,8.35-30.23a10.29,10.29,0,0,1,.51,3.81c.17.57.3,1.15.42,1.72,1.74,8.09-6.37,20.18-23.72,34.45S108.47,187,108.32,191.66c-.09,3.07-9.75,9.68-15.86,15.84,20.12,6.78,42.86,11.18,66.25,14.32q7.22.93,14.11,1.31c3.31-6.71,5-15.57,5.92-24.28C140.33,193.71,130.65,173.61,142.13,158.67Z"/>
            <path class="cls-18" d="M50.26,186.37c-1.67-1.25,17.4,18.69,65.14,14.24s45.35,15.08,87.07,10.42,108.43-38.87,117.15-50.15c-12.21,15.69-60.36,63.31-133.23,61.76C114.44,221,67.42,199.39,50.26,186.37Z"/>
          </g>
          <g>
            <path class="cls-4" d="M141.43,205.62s-3.68,64.56,19.34,68.93,30.2-22.22,28.77-35.92c-2-19.47-17.09-25.52-17.09-25.52Z"/>
            <path class="cls-19" d="M140.2,203.4s-3.67,64.56,19.34,68.93,30.2-22.22,28.77-35.91c-2-19.48-17.09-25.53-17.09-25.53Z"/>
            <path class="cls-20" d="M148.88,241.31c-3.62-12.51-7.62-35.13-8.07-37.76h0c.16,2.61,1.88,28.85,7.61,49.47A99.56,99.56,0,0,0,155,270.72a12.54,12.54,0,0,0,4,1.48,26.32,26.32,0,0,0,4.7.43C160,268.25,154,259,148.88,241.31Zm39-1.42a15.85,15.85,0,0,1-10-3.51c-5.19-4-24.82-26.93-24.82-26.93s18.42,29.3,22.28,32.22c3.08,2.33,8.87,7.61,11.1,9.66A46.05,46.05,0,0,0,187.89,239.89Zm-42.8-34.14s7.73,30,14.49,43.9c5,10.2,8.18,18.55,9.56,22.3a19.6,19.6,0,0,0,8.16-4.43,76.73,76.73,0,0,1-14.81-20.06C156.09,234.72,145.09,205.75,145.09,205.75Zm3.6,1.24s9.42,23.18,17.45,38.42c5.83,11,11.32,16.82,13.92,19.18a33.12,33.12,0,0,0,5.06-9.21c-2.12-1-7.43-3.6-11-7.36C163.85,237.3,148.69,207,148.69,207Zm38.71,27a33.16,33.16,0,0,0-3.17-9.88,27.69,27.69,0,0,1-7.48-2.18c-7.43-3.34-17.3-11-17.3-11s7.71,10,13.75,15.5C178,230.8,184.7,233.16,187.4,234Z"/>
          </g>
          <g>
            <path class="cls-4" d="M135.85,134.66s-3.68,64.56,19.34,68.94,30.19-22.23,28.77-35.92c-2-19.48-17.1-25.53-17.1-25.53Z"/>
            <path class="cls-19" d="M134.62,132.45S130.94,197,154,201.38s30.2-22.23,28.77-35.92c-2-19.47-17.09-25.52-17.09-25.52Z"/>
            <path class="cls-21" d="M143.3,170.35c-3.63-12.5-7.62-35.12-8.08-37.75l0,0c.16,2.62,1.88,28.85,7.62,49.48a99.86,99.86,0,0,0,6.62,17.71,12.76,12.76,0,0,0,4,1.47,25.4,25.4,0,0,0,4.7.44C154.44,197.29,148.43,188,143.3,170.35Zm39-1.41a15.84,15.84,0,0,1-10.05-3.51c-5.19-4-24.82-26.93-24.82-26.93s18.42,29.29,22.28,32.21c3.07,2.34,8.86,7.61,11.1,9.66A46,46,0,0,0,182.31,168.94Zm-42.8-34.14s7.73,30,14.49,43.9c5,10.2,8.18,18.55,9.56,22.29a19.48,19.48,0,0,0,8.16-4.43,76.8,76.8,0,0,1-14.81-20.05C150.51,163.77,139.51,134.8,139.51,134.8Zm3.6,1.23s9.41,23.18,17.45,38.43c5.82,11,11.32,16.82,13.92,19.17a33.23,33.23,0,0,0,5.06-9.21c-2.12-1-7.44-3.6-11-7.36C158.27,166.35,143.11,136,143.11,136Zm38.71,27a33.85,33.85,0,0,0-3.17-9.88,27.33,27.33,0,0,1-7.48-2.18c-7.43-3.33-17.3-11-17.3-11s7.7,10,13.75,15.5C172.36,159.84,179.12,162.21,181.82,163Z"/>
          </g>
          <path class="cls-22" d="M207.5,199.9a164.08,164.08,0,0,1-28.76-1.05c-.9,8.71-2.61,17.57-5.92,24.28a186.91,186.91,0,0,0,50.87-3.67c-2.58-5.89-4.21-13.64-5.15-20.38C215,199.46,211.26,199.74,207.5,199.9Z"/>
          <path class="cls-22" d="M286.66,178a50.61,50.61,0,0,0,2,12.09A152.66,152.66,0,0,0,311,169.79a64.74,64.74,0,0,0-1.06-8.61A123.42,123.42,0,0,1,286.66,178Z"/>
          <path class="cls-23" d="M35.07,110.12s27.61-40.32,71.34-60C99.55,51.48,54.09,86.53,35.07,110.12Z"/>
          <path class="cls-24" d="M122.73,51.89S216.45,24.58,296.42,115C285.13,98.85,209.13,15.42,122.73,51.89Z"/>
          <path class="cls-23" d="M358.44,79.06S347.2,90.57,348,93s10.41-6.85,13-10.17S360.1,77.21,358.44,79.06Z"/>
          <path class="cls-23" d="M365,95.25a66.9,66.9,0,0,0-6.27,6.68c-2.64,3.31,4.22,1.95,7.47-2.82S367.35,93,365,95.25Z"/>
          <path class="cls-23" d="M366.16,106.07l-5.86,2.2c-2.94,1.1-1.7,3.35,3.93,1.58S367.85,105.67,366.16,106.07Z"/>
          <path class="cls-23" d="M369.48,180.72s-2.27-2.21-4.56-4.41-3.67-.05.41,4.32S370.61,182.07,369.48,180.72Z"/>
          <path class="cls-23" d="M362.39,193.88l-5.54-3c-2.76-1.5-3.54,1,1.51,4.05S363.82,194.89,362.39,193.88Z"/>
          <path class="cls-23" d="M361.79,163.77c1.44.36,9.27,6.36,7.68,9.62S356.9,162.57,361.79,163.77Z"/>
          <path class="cls-25" d="M344.78,177.8c-6.45-10.63,12.78-13.36,2.59-25.24s13.83-21,5-22.51-12.83-8.92-8.71-20c2.5-6.75,2.27-13.88,2.1-18.9-1.65,2.36-3.44,5-5.46,7.91-3.53,5.19-6.56,9.45-9.21,12.88,2.61,8.2,6.62,23.95,2.82,38.59-3.64,14-1,27.48,1.34,34.9A80.16,80.16,0,0,0,347.69,194C346.49,188.19,348.63,184.12,344.78,177.8Z"/>
          <g>
            <path class="cls-26" d="M52.19,116.25A17.52,17.52,0,1,0,68.93,98.19,17.41,17.41,0,0,0,52.19,116.25Z"/>
            <g>
              <path class="cls-27" d="M51.54,113.06a15.54,15.54,0,1,0,14.86-16A15.44,15.44,0,0,0,51.54,113.06Z"/>
              <path d="M54.74,112.92A12.34,12.34,0,1,0,66.53,100.2,12.25,12.25,0,0,0,54.74,112.92Z"/>
              <path class="cls-27" d="M77.22,110.91a12.12,12.12,0,0,0-3.55-8,11.93,11.93,0,0,1,4.55,8.88,11.63,11.63,0,0,1-10.86,12.33A11.14,11.14,0,0,1,59,120.79a11.07,11.07,0,0,0,7.34,2.44A11.62,11.62,0,0,0,77.22,110.91Z"/>
              <path class="cls-27" d="M59.63,104.41a5.07,5.07,0,1,0,4.85-5.23A5.05,5.05,0,0,0,59.63,104.41Z"/>
              <path class="cls-27" d="M58.9,111.89a1.68,1.68,0,1,0,1.6-1.72A1.66,1.66,0,0,0,58.9,111.89Z"/>
            </g>
          </g>
          <path class="cls-28" d="M82.72,86.87S106.5,102,103.49,131.49c-1.81,17.06-17.19,27.45-20.86,28.09,8.7,2,26-3.83,27.24-30.1S89.71,88.45,82.72,86.87Z"/>
          <path class="cls-29" d="M17.69,132a28.6,28.6,0,0,0,5.45,4.87,36,36,0,0,0,6.35,3.5c.56.24,1.13.43,1.7.65l.85.32.87.26c.58.17,1.16.36,1.74.52l1.78.41.89.21.91.14,1.81.29c1.21.18,2.43.23,3.66.4-1.23.06-2.47.1-3.71.08l-1.85-.14-.93-.08-.92-.14a30.75,30.75,0,0,1-7.19-2,28.12,28.12,0,0,1-6.42-3.81A27.39,27.39,0,0,1,19.93,135,18.87,18.87,0,0,1,17.69,132Z"/>
        </g>
      </g>
    </g>
  </g>
</svg>
