<svg xmlns="http://www.w3.org/2000/svg" xmlns:xlink="http://www.w3.org/1999/xlink" width="256.32" height="348.48" viewBox="0 0 256.32 348.48">
  <defs>
    <style>
      .cls-1 {
        isolation: isolate;
      }

      .cls-2 {
        fill: #ff0;
      }

      .cls-3 {
        fill: #60833a;
        opacity: 0.5;
        mix-blend-mode: multiply;
      }

      .cls-4 {
        fill: url(#New_Gradient_Swatch_copy_25);
      }

      .cls-5 {
        fill: #b1aeaf;
      }

      .cls-6 {
        fill: #8e8e8e;
      }

      .cls-7 {
        fill: #4f4f4f;
      }

      .cls-8 {
        fill: #ffbbbe;
      }

      .cls-9 {
        fill: #f99398;
      }

      .cls-10 {
        fill: #eaeaea;
      }

      .cls-11 {
        fill: #d0cecf;
      }

      .cls-12 {
        fill: #353535;
      }

      .cls-13 {
        fill: #fff;
      }

      .cls-14 {
        fill: #d1d1d1;
      }

      .cls-15 {
        fill: #320507;
      }

      .cls-16 {
        fill: #494949;
      }

      .cls-17 {
        fill: #ad6f44;
      }

      .cls-18 {
        fill: #ffe9eb;
      }

      .cls-19 {
        fill: #bf2c2c;
      }

      .cls-20 {
        fill: #edd8c3;
      }

      .cls-21 {
        fill: #d8b99e;
      }

      .cls-22 {
        fill: #ddd;
      }

      .cls-23 {
        fill: #bfbfbf;
      }

      .cls-24 {
        fill: #b21414;
      }

      .cls-25 {
        fill: #7f0000;
      }

      .cls-26 {
        fill: #fca7a7;
      }

      .cls-27 {
        fill: #f5eae9;
      }

      .cls-28 {
        fill: #ef7a7a;
      }

      .cls-29 {
        fill: #d83a3a;
      }

      .cls-30 {
        fill: #7f7f7f;
      }

      .cls-31 {
        fill: #f95858;
      }

      .cls-32 {
        fill: #ffaeae;
      }

      .cls-33 {
        fill: #ea3434;
      }
    </style>
    <linearGradient id="New_Gradient_Swatch_copy_25" data-name="New Gradient Swatch copy 25" x1="97.94" y1="193.62" x2="90.93" y2="311.95" gradientUnits="userSpaceOnUse">
      <stop offset="0.02" stop-color="#749a23"/>
      <stop offset="0.18" stop-color="#749a23"/>
      <stop offset="0.19" stop-color="#719924"/>
      <stop offset="0.27" stop-color="#53932a"/>
      <stop offset="0.34" stop-color="#418e2f"/>
      <stop offset="0.39" stop-color="#3a8d30"/>
      <stop offset="0.41" stop-color="#328b32"/>
      <stop offset="0.48" stop-color="#178438"/>
      <stop offset="0.54" stop-color="#06803c"/>
      <stop offset="0.59" stop-color="#007f3d"/>
      <stop offset="0.69" stop-color="#006a2a"/>
      <stop offset="0.78" stop-color="#005416"/>
      <stop offset="0.86" stop-color="#005022"/>
      <stop offset="1" stop-color="#004740"/>
    </linearGradient>
  </defs>
  <g class="cls-1">
    <g id="Layer_1" data-name="Layer 1">
      <g>
        <path class="cls-2" d="M30.69,160.45c3.42,8.94,10,20.46,17.84,27.49a7.17,7.17,0,0,0,.58.52l.11.09c4.4,5.46,17.09,19.41,29.17,26.7a161,161,0,0,0-4.61,20.37c-9.71,11.78-15.87,25.14-16.55,36A26.64,26.64,0,0,0,69,294.58l-5.2,1.18c-9.78,2.23-15.55,5.35-19.28,10.44A19.93,19.93,0,0,0,40.94,320c-.75,2.35-1.87,6.64.84,10.67,2.92,4.34,8.55,5.72,13.64,6.27a15.06,15.06,0,0,0,8.48,2.17c4.56,0,10.47-1.21,18.08-3.7a76.76,76.76,0,0,0,33.57-21.55c6.39-7.07,9.93-12.25,10.34-19.41.11-1.9.2-3.81.24-5.64h1.47c15.82,0,28.82-6,38.65-17.82.11-.11.21-.24.31-.36l.2-.28.68-.84c4.43-3,8-5.28,10-5.28a2.46,2.46,0,0,1,.4,0c1.1.21,1.74,1,3.49,3.87.29.48.59,1,.89,1.43l.23.37c2.07,3.24,5.41,8.48,10.84,9.38a10.43,10.43,0,0,0,4.73,1.47c.48,0,.94.05,1.39.05a13.4,13.4,0,0,0,11.21-5.47c2.15-2.74,3.64-6.43,5.2-11.12,2.65-7.94,6.27-18.82,13.61-29,8.61-11.93,17-24.56,16.88-36.5,1.22-6.54.83-15.08-3.79-20.26-.16-.19-.33-.37-.51-.55a11.51,11.51,0,0,0-2.63-4.46,10.18,10.18,0,0,0-7.57-3.32c-3.21,0-6.49,1.33-10,4.06a15.88,15.88,0,0,0-3.45.79c-6.65,1.39-13,6.61-17.55,14.44a99.36,99.36,0,0,0-7.31,16.63,27.33,27.33,0,0,0-6.13-4.23,144.07,144.07,0,0,0,10.27-11.24l.1-.09a5.67,5.67,0,0,0,.58-.52c7.82-7,14.42-18.55,17.85-27.49,7-2.62,12.29-5.07,16.8-11.5,3.8-5.42,5.41-12.47,4-17.54a10,10,0,0,0-5.28-6.55l-.08,0a18.67,18.67,0,0,0-1.23-4.36,10.89,10.89,0,0,0-7.29-6.61,11.66,11.66,0,0,0-2.8-.34,11,11,0,0,0-1.91.16,11.64,11.64,0,0,0-7.91-2.8h-.48a12.66,12.66,0,0,0-9.83,4.86,15.06,15.06,0,0,0-.89,1.27,10.85,10.85,0,0,0-1.4-.09,13,13,0,0,0-3.77.58,11.88,11.88,0,0,0-7.72,7.64c-2,5.37-1.2,12.87,1.76,19.47-1.41,1.28-2.88,2.67-4.34,4.12a25,25,0,0,0-3.57-11.47c.2-12.42-3.08-30.59-13.14-43.85a40.06,40.06,0,0,0-4.34-4.85c1.27-1,2.52-2.16,3.77-3.38,5.1,6.47,13.91,15.88,24.48,19.92a39.71,39.71,0,0,0,14,2.76,22.57,22.57,0,0,0,6-.73,12.88,12.88,0,0,0,3.49-1.48,8.37,8.37,0,0,0,4-5.9c.58-3.9-1.38-6.85-3.46-10a47.7,47.7,0,0,1-4.89-8.92c-1.37-3.41-2.56-6.88-3.7-10.24A138.93,138.93,0,0,0,198.15,52c-5.36-10.24-12.9-12.39-18.27-12.39A21.58,21.58,0,0,0,176,40a18.92,18.92,0,0,0-13.48-5.67,18.69,18.69,0,0,0-2.24.13,23,23,0,0,0-7.68,2.36l-.39.2-.19.1c-3,1.58-7.22,5-10.26,12.54-1.51,3.7-3.27,10.16-5.32,17.63-.61,2.23-1.24,4.5-1.87,6.75a32.55,32.55,0,0,0-8.22-1.25H126a41.28,41.28,0,0,0-7.75.95c-2.48-7.8-6.08-17.06-10.93-24.82-10.9-17.44-24.9-29.46-39.43-33.85-5.64-1.7-9.17-3.05-11.51-3.94l-.11,0c-2.68-1-4.45-1.7-6.57-1.7a9.06,9.06,0,0,0-3.93.89c-6.47,3.06-4.63,11.52-2.68,20.49.21,1,.4,1.85.56,2.63,1.42,7.12,7.78,24.37,18.79,40.37A79.06,79.06,0,0,0,87,96.23c-8.65,11.9-12.1,27.69-12.51,39.53a24.58,24.58,0,0,0-6.06,18.66,132.83,132.83,0,0,0-9.76-9.8c3-6.61,3.73-14.11,1.77-19.48a11.89,11.89,0,0,0-7.73-7.64,12.89,12.89,0,0,0-3.76-.58,10.89,10.89,0,0,0-1.41.09,13.06,13.06,0,0,0-.89-1.27,12.62,12.62,0,0,0-9.83-4.85h-.48a11.64,11.64,0,0,0-7.91,2.8,10.94,10.94,0,0,0-1.91-.16,12,12,0,0,0-2.79.34,10.84,10.84,0,0,0-7.29,6.62,18.58,18.58,0,0,0-1.24,4.35l-.08,0a9.94,9.94,0,0,0-5.27,6.55c-1.41,5.07.21,12.12,4,17.54C18.39,155.38,23.68,157.84,30.69,160.45Z"/>
        <g>
          <path class="cls-3" d="M101.27,253.73c-2.24.05-5.21.07-8.19.22-5.77.24-11,.93-12.3,2.32-.16.17-.11.32.2.47,5.62,2.56,17,1.86,24.64,1.51,2.79-.12,18.53-.37,17.62-2.69C122.28,253.08,105.78,253.63,101.27,253.73Z"/>
          <path class="cls-3" d="M194.5,244.67c-1.9-1.81-13.41-1.06-17.12-.93-1.57,0-5.2,0-8.21.29l-2.52.1c-1.61.08-6.79,1-4,1.91,3.06,1,8.12,1,11.86,1,4,0,8.08-.15,12-.48a35.44,35.44,0,0,0,7-.91C194.27,245.41,194.92,245.06,194.5,244.67Z"/>
          <path class="cls-4" d="M80.77,286.42c1.17-2.5,8.8-3.87,8.55-.08,1-5,7.23.13,8.05,2.72,2.6-2.89,8.48-4.56,11.88-2-1.52-1.91-1.83-5.72.67-6.88-1.64.85-4.42,1.65-4.83-.63-3.46,3.81-10.24,2.05-8.54-3.55-2-.72-1.68-2.65-.36-3.92-2.64.84-8.56,3.43-9.93-.32a7.76,7.76,0,0,1-3,3,8,8,0,0,0,.85-.16,5.42,5.42,0,0,1,1.13-.32,8.18,8.18,0,0,1-1.13.32c-2.56,1.08-4,4.16-1.7,5.43-2.52-.25-6.84,1-6.93,3.45C77.36,283.45,78.8,284.38,80.77,286.42Z"/>
          <path d="M102.36,143.89a5.33,5.33,0,0,1-.56,0c-2.69-.22-5.08-2-6.73-4.9A18.69,18.69,0,0,1,93,128.42c.66-8,5.63-14.28,11.17-13.83,2.69.22,5.08,2,6.74,4.9A18.61,18.61,0,0,1,113,130C112.34,137.81,107.68,143.89,102.36,143.89Zm1.26-28.8c-5.05,0-9.48,5.87-10.09,13.37a18.08,18.08,0,0,0,2,10.25c1.57,2.79,3.81,4.44,6.32,4.64,5.25.43,10-5.59,10.61-13.35a18.08,18.08,0,0,0-2-10.25c-1.57-2.79-3.82-4.44-6.33-4.64A4.52,4.52,0,0,0,103.62,115.09Z"/>
          <path d="M102.64,137.57l-.33,0c-3.14-.25-5.4-4.2-5-8.78s3.22-8.11,6.39-7.86a5,5,0,0,1,3.87,2.81,10.55,10.55,0,0,1,1.16,6C108.34,134.11,105.68,137.57,102.64,137.57Zm.7-16.15c-2.77,0-5.2,3.24-5.54,7.39-.35,4.3,1.69,8,4.56,8.23s5.47-3.1,5.82-7.39a10,10,0,0,0-1.1-5.68,4.5,4.5,0,0,0-3.45-2.54Z"/>
          <path d="M110.09,115.42a7.59,7.59,0,0,0-5.46-2.83A8.48,8.48,0,0,0,99,114.34l-.35-.39a8.87,8.87,0,0,1,6-1.88,8,8,0,0,1,5.86,3.05Z"/>
          <path class="cls-5" d="M154.94,42.64c-1.7.9-4.89,3.21-7.39,9.37s-6.38,22.79-10.27,34.9c1.21.58,9.95,5.56,11.89,4.75,7.08-2.93,13.19-8.14,19.32-16C168.31,62.49,154.94,42.64,154.94,42.64Z"/>
          <path class="cls-6" d="M145.49,58.27c-.29,2.91-.39,12.15,2.84,12.42,3.84.15,6.49-15.16,10.39-20.29,3.83,7,9.66,17.51,9.77,25.28-5.2,6.65-12.53,14-19.22,15.62-3.56.86-9.77-4-11.6-4.87C139.66,78,143.06,67.42,145.49,58.27Z"/>
          <path class="cls-7" d="M148.63,92h0c-2.28,0-7.79-2.92-10.43-4.33l-1-.54L137,87l.07-.21c1.77-5.52,3.51-11.85,5.18-18,2-7.3,3.73-13.6,5.1-17,2.36-5.82,5.38-8.38,7.5-9.5l.21-.11.13.2c.13.2,13.42,20.06,13.6,33.17v.09l-.06.08C162.37,83.93,156.2,89,149.27,91.9A1.56,1.56,0,0,1,148.63,92Zm-11-5.23.85.44c2.41,1.28,8,4.27,10.19,4.27h0a1.33,1.33,0,0,0,.44-.06c6.82-2.83,12.91-7.87,19.16-15.84-.23-12.27-12-30.51-13.38-32.61-2,1.14-4.83,3.64-7.06,9.12-1.36,3.34-3.16,9.93-5.07,16.9C141.06,75.05,139.35,81.3,137.59,86.78Z"/>
          <path class="cls-8" d="M163.36,68.32c-2.52,5.42-9.8,12.05-16.93,16,4.07-5.34,11.95-19.19,12.28-27.73C160.1,59.59,163.36,68.32,163.36,68.32Z"/>
          <path class="cls-9" d="M158.71,56.58c.41.89,1,2.27,1.58,3.77C159.5,67.18,155.81,72.77,152,78c5.3-2.66,8.27-7.3,10.2-12.68.67,1.75,1.15,3,1.15,3-2.52,5.42-9.8,12.05-16.93,16C150.5,79,158.38,65.12,158.71,56.58Z"/>
          <path class="cls-7" d="M146.25,84.16c4-5.21,11.91-19.1,12.23-27.6l0-.92.39.84c1.38,3,4.62,11.67,4.66,11.76l0,.1,0,.09c-2.43,5.22-9.59,12-17,16.09l-1,.54ZM158.87,57.5c-.77,8.17-7.59,20.45-11.6,26.06,7-4.08,13.52-10.36,15.84-15.26C162.78,67.41,160.28,60.76,158.87,57.5Z"/>
          <path class="cls-5" d="M153.94,43.53A15.94,15.94,0,0,1,161,40.65c4-.47,8.79.7,12.86,6.4,5.05-1.88,13.17-2.86,18.8,7.87s7.86,20.43,11.84,30.33c3.66,9.11,8.41,12.62,8,15.64s-9.46,4.16-19.19.44-19.1-13.82-24.72-21.87c-7.81-11.17-11.94-28.32-11.94-28.32Z"/>
          <path class="cls-10" d="M161,40.65c4-.47,8.79.7,12.86,6.4,5.05-1.88,13.17-2.86,18.8,7.87s7.86,20.43,11.84,30.33a51.22,51.22,0,0,0,5.18,9.58c-9.9-12.35-10.38-23.14-19.18-39.93-4.79-7.87-10.37-7.5-13.81-6.56,3.41,4.64,5.09,8,8.14,13.65-3.94-3.07-10.75-14.26-17-18.2-4.14-2.6-8.88-2-13.92-.51A25.11,25.11,0,0,1,161,40.65Z"/>
          <path class="cls-6" d="M212.48,100.66c0,.08,0,.15,0,.23-.45,3-9.46,4.16-19.19.44s-19.1-13.82-24.72-21.87C162,70,158,56.33,156.91,52.3,168.71,77.42,190,102.8,212.48,100.66Z"/>
          <path class="cls-7" d="M182.57,58.83c0-.07-4.35-6.31-9.27-12.88l-.35.29C177.87,52.81,182.57,58.83,182.57,58.83Z"/>
          <path class="cls-7" d="M209.51,103.41a7.42,7.42,0,0,0,1.89-.78,2.53,2.53,0,0,0,1.28-1.7c.24-1.62-.86-3.27-2.52-5.77a52.7,52.7,0,0,1-5.47-10c-1.41-3.52-2.63-7.08-3.81-10.53a134.92,134.92,0,0,0-8-19.83c-5.42-10.34-13.25-10.1-18.92-8-4.34-6-9.44-6.76-13-6.35a16.92,16.92,0,0,0-7.27,2.71l.25.41A16.37,16.37,0,0,1,161,40.89c3.43-.4,8.41.37,12.65,6.3l.1.14.16-.06c5.51-2.05,13.21-2.38,18.52,7.76a134.52,134.52,0,0,1,8,19.75c1.18,3.46,2.41,7,3.82,10.56a53.16,53.16,0,0,0,5.52,10.1c1.59,2.4,2.65,4,2.44,5.41a2.08,2.08,0,0,1-1.08,1.36c-2.78,1.74-10.21,1.81-17.82-1.1-11.88-4.55-21.85-17.83-24.62-21.79a73.25,73.25,0,0,1-7.12-13.51,121.56,121.56,0,0,1-5-14.67,86.06,86.06,0,0,0,4.6,14.9,73.25,73.25,0,0,0,7.16,13.56c2.79,4,12.83,17.37,24.83,22C199.82,104.09,206,104.38,209.51,103.41Z"/>
          <path class="cls-5" d="M107,97.37c-9.51-1-28.36-11.07-39.42-27.15s-16.78-32.85-17.81-38S46.1,17.05,48.43,15.94s3.9,1,17.64,5.13S92.49,37,102,52.24s14.18,37.52,14.53,39.6C115,94.6,109.85,97.88,107,97.37Z"/>
          <path class="cls-6" d="M113.22,95.2l.54-.41.2-.15.53-.45.14-.12a9.65,9.65,0,0,0,1.9-2.23c-.32-1.88-4.16-20.25-11.9-35C107,64,107,74.12,103.54,78.11c-5.51-8-10.63-16.43-16.07-25C80.73,42.21,73,32.87,61,27.68c-3.64-1.56-8.59-3.89-10.66-8-.65,5.92,4.87,10.34,7.53,15.22A181.2,181.2,0,0,0,92.24,79.43C78.36,74.57,59.92,52.77,51,36.72a134,134,0,0,0,16.58,33.5C78.65,86.3,97.5,96.33,107,97.37c1.42.26,3.41-.44,5.24-1.54h0c.26-.16.52-.32.76-.49Z"/>
          <path class="cls-10" d="M49.6,17.82c1.47-1,9.89,3.74,14.81,5.27,20,6.23,26.69,18.44,38.11,31.05a11.66,11.66,0,0,0,1.8,2.12c-.74-1.38-1.51-2.73-2.32-4C92.49,37,79.82,25.22,66.07,21.07s-15.3-6.23-17.64-5.13.31,11,1.35,16.24c.17.86.47,2,.91,3.49C50.77,29.71,48.09,19.34,49.6,17.82Z"/>
          <path class="cls-7" d="M54.57,26.43a8.34,8.34,0,0,1-3.81-5.25A9.81,9.81,0,0,0,54.83,26Z"/>
          <path class="cls-8" d="M54.53,26.12c10.12,4.8,17.38,11,25.55,25.43s16,32.81,31.91,42c-7.27.91-21.4-3.89-34.89-18S54.1,40,54.53,26.12Z"/>
          <path class="cls-9" d="M80.08,51.55c-8-14.15-15.18-20.4-25-25.17C70.32,39.55,80.1,59.11,89,77,72.18,68.1,62.91,51.65,55.39,35.07,58,48.13,66.27,64.19,77.1,75.54c13.49,14.14,27.62,18.94,34.89,18C96,84.36,88.25,65.94,80.08,51.55Z"/>
          <path class="cls-7" d="M110.17,93.93c-7.32,0-20.43-4.77-33.26-18.21-13.35-14-23.09-35.32-22.64-49.6v-.4l.36.17c9.44,4.48,17,10.31,25.67,25.53,1.33,2.34,2.63,4.75,4,7.3,6.8,12.63,14.52,27,27.81,34.62l.66.39-.76.09A13.63,13.63,0,0,1,110.17,93.93ZM54.78,26.53c-.25,14.16,9.36,35.05,22.51,48.83,12.71,13.33,25.66,18,32.88,18q.51,0,1,0C98.17,85.55,90.57,71.44,83.85,59c-1.37-2.55-2.66-4.95-4-7.3C71.4,36.77,64,31,54.78,26.53Z"/>
          <path class="cls-7" d="M107.64,97.68a4.68,4.68,0,0,1-.67-.05c-9.44-1-28.46-11.08-39.6-27.26C56.48,54.54,50.64,37.84,49.52,32.23c-.16-.81-.36-1.74-.58-2.73-1.52-7-2.61-12.85-.62-13.79,1.46-.69,2.6-.24,5.91,1,2.42.93,6.07,2.32,11.92,4.09,13.13,4,25.94,15.07,36.07,31.28,10,16.05,14.52,39.47,14.56,39.7l0,.09,0,.07C115.33,94.49,110.76,97.68,107.64,97.68ZM49.69,15.91a2.48,2.48,0,0,0-1.14.27c-1.79.84-.17,8.28.9,13.21.21,1,.42,1.92.58,2.74C51.15,37.7,57,54.32,67.8,70.07c11,16.06,29.89,26,39.24,27a3,3,0,0,0,.6,0c2.85,0,7.22-3,8.61-5.37-.3-1.59-4.81-24-14.47-39.42C91.72,36.27,79,25.24,66,21.31c-5.87-1.77-9.53-3.17-12-4.09C51.83,16.38,50.62,15.91,49.69,15.91Z"/>
          <path class="cls-5" d="M162.2,99.28c-10-13.24-25.85-14.84-34.79-14.44-9.21.42-24.77,1.12-34.83,14.38C82.81,112.1,80,130.64,80.82,142.11c7.15,2.12,45.23,1.76,46.55,1.75v.06s39.32.4,46.59-1.75C174.75,130.7,172,112.16,162.2,99.28Z"/>
          <path class="cls-11" d="M112.05,124c-1,9.72-7.22,17-13.8,16.32s-11.07-9.15-10-18.87,8-23.89,14.59-23.18S113.09,114.32,112.05,124Z"/>
          <path class="cls-12" d="M106.69,110.54a7.72,7.72,0,0,0-5.16-2.18,6,6,0,0,0-4.75,1.94,5.24,5.24,0,0,1,4.76-2.46A6.64,6.64,0,0,1,106.69,110.54Z"/>
          <path d="M110.42,125.64c-.86,8.12-6.25,14.19-12,13.58s-9.74-7.7-8.87-15.82,6.25-14.19,12-13.57S111.29,117.53,110.42,125.64Z"/>
          <path class="cls-13" d="M109.77,126.14c-.84,7.81-5.91,13.66-11.34,13.08s-9.15-7.38-8.31-15.18S96,110.38,101.46,111,110.6,118.34,109.77,126.14Z"/>
          <path class="cls-14" d="M90.32,122.63c-.08.46-.15.93-.2,1.41-.84,7.8,2.89,14.6,8.31,15.18s10.5-5.27,11.34-13.08c.06-.54.09-1.08.1-1.62C104.18,129.83,94,129.11,90.32,122.63Z"/>
          <path class="cls-15" d="M105.3,126.6c-.48,4.46-3.38,7.8-6.48,7.47s-5.22-4.21-4.75-8.67,3.38-7.81,6.48-7.47S105.77,122.14,105.3,126.6Z"/>
          <path d="M103.37,127.14c-.31,2.93-2.22,5.13-4.25,4.91s-3.44-2.77-3.12-5.7,2.22-5.13,4.25-4.91S103.69,124.21,103.37,127.14Z"/>
          <path class="cls-13" d="M101.82,123.56a2.2,2.2,0,1,1-2.2-2.14A2.16,2.16,0,0,1,101.82,123.56Z"/>
          <path class="cls-13" d="M102.71,129.36a.84.84,0,1,1-.84-.82A.83.83,0,0,1,102.71,129.36Z"/>
          <path d="M99.25,134.35l-.46,0c-3.23-.35-5.47-4.37-5-9s3.52-8.05,6.77-7.7,5.47,4.36,5,9C105.09,131,102.32,134.35,99.25,134.35Zm.87-16.19c-2.81,0-5.35,3.19-5.79,7.27-.46,4.3,1.57,8.07,4.52,8.38s5.73-3,6.19-7.24-1.57-8.07-4.52-8.39Z"/>
          <path d="M99.17,139.52c-.25,0-.51,0-.77,0-2.71-.29-5.09-2.07-6.7-5A18,18,0,0,1,89.86,124c.8-7.48,5.57-13.35,10.85-13.35.26,0,.52,0,.77,0,2.71.29,5.09,2.07,6.71,5A18.08,18.08,0,0,1,110,126.17C109.22,133.65,104.46,139.52,99.17,139.52Zm1.54-28.34c-5,0-9.56,5.66-10.33,12.89a17.38,17.38,0,0,0,1.78,10.14c1.52,2.79,3.76,4.48,6.3,4.75a5.74,5.74,0,0,0,.71,0c5,0,9.57-5.66,10.34-12.89A17.38,17.38,0,0,0,107.73,116c-1.53-2.79-3.76-4.48-6.3-4.75A5.79,5.79,0,0,0,100.71,111.18Z"/>
          <path class="cls-11" d="M140.1,124c1,9.72,7.22,17,13.8,16.32s11.07-9.15,10-18.87-7.39-23.89-14-23.18S139.06,114.32,140.1,124Z"/>
          <path class="cls-12" d="M145.46,110.54a7.72,7.72,0,0,1,5.16-2.18,6,6,0,0,1,4.75,1.94,5.24,5.24,0,0,0-4.76-2.46A6.64,6.64,0,0,0,145.46,110.54Z"/>
          <path d="M141.73,125.64c.87,8.12,6.25,14.19,12,13.58s9.74-7.7,8.87-15.82-6.25-14.19-12-13.57S140.86,117.53,141.73,125.64Z"/>
          <path class="cls-13" d="M142.38,126.14c.84,7.81,5.91,13.66,11.34,13.08s9.15-7.38,8.31-15.18S156.12,110.38,150.7,111,141.55,118.34,142.38,126.14Z"/>
          <path class="cls-14" d="M161.83,122.63c.08.46.15.93.2,1.41.84,7.8-2.88,14.6-8.31,15.18s-10.5-5.27-11.34-13.08c0-.54-.09-1.08-.1-1.62C148,129.83,158.14,129.11,161.83,122.63Z"/>
          <path class="cls-15" d="M146.85,126.6c.48,4.46,3.38,7.8,6.48,7.47s5.23-4.21,4.75-8.67-3.38-7.81-6.48-7.47S146.38,122.14,146.85,126.6Z"/>
          <path d="M148.78,127.14c.31,2.93,2.22,5.13,4.25,4.91s3.44-2.77,3.13-5.7-2.22-5.13-4.26-4.91S148.46,124.21,148.78,127.14Z"/>
          <path class="cls-13" d="M149.68,123.56a2.21,2.21,0,1,0,2.2-2.14A2.16,2.16,0,0,0,149.68,123.56Z"/>
          <path class="cls-13" d="M154.27,128.71a.85.85,0,1,0,.84-.81A.83.83,0,0,0,154.27,128.71Z"/>
          <path d="M146.6,126.63c-.5-4.6,1.74-8.61,5-9s6.28,3.16,6.77,7.7-1.75,8.61-5,9l-.45,0C149.83,134.35,147.06,131,146.6,126.63Zm5-8.45c-2.95.32-5,4.08-4.52,8.39s3.23,7.56,6.19,7.24,5-4.08,4.52-8.38c-.44-4.08-3-7.27-5.79-7.27Z"/>
          <path d="M142.13,126.17A18,18,0,0,1,144,115.72c1.62-3,4-4.73,6.71-5,.25,0,.51,0,.77,0,5.28,0,10.05,5.87,10.85,13.35a17.92,17.92,0,0,1-1.84,10.45c-1.61,2.95-4,4.73-6.7,5-.26,0-.52,0-.77,0C147.69,139.52,142.93,133.65,142.13,126.17Zm8.59-15c-2.53.27-4.77,2-6.3,4.75a17.38,17.38,0,0,0-1.78,10.14C143.42,133.34,148,139,153,139a5.63,5.63,0,0,0,.71,0c2.54-.27,4.78-2,6.31-4.75a17.46,17.46,0,0,0,1.77-10.14c-.77-7.23-5.31-12.89-10.33-12.89A5.79,5.79,0,0,0,150.72,111.22Z"/>
          <path class="cls-6" d="M162.2,99.28a34.45,34.45,0,0,0-13.47-10.67c13.32,11,20,29.86,15.62,54.7a54.51,54.51,0,0,0,9.61-1.14C174.75,130.7,172,112.16,162.2,99.28Z"/>
          <path class="cls-7" d="M134.7,144.22h0c-4.35,0-7.3,0-7.33,0h-.23v-.06c-.81,0-3.43,0-7.06,0-12.43,0-34.06-.23-39.31-1.79l-.16-.05v-.19C79.73,129.58,83,111.39,92.41,99c10.13-13.35,25.69-14.05,35-14.46.79,0,1.59-.06,2.39-.06,8,0,23,1.9,32.58,14.58,9.37,12.35,12.69,30.54,11.81,43.09v.19l-.16.05C168.76,144,147.13,144.22,134.7,144.22Zm-7.1-.57c.77,0,3.43,0,7.1,0,12.28,0,33.57-.23,39-1.73.82-12.43-2.48-30.32-11.71-42.49-9.5-12.53-24.28-14.4-32.24-14.4-.79,0-1.59,0-2.37,0-9.23.42-24.67,1.11-34.67,14.29C83.52,111.57,80.22,129.47,81,141.89c5.47,1.51,26.76,1.73,39,1.73,4.12,0,7,0,7.29,0h.23Z"/>
          <path class="cls-16" d="M95.07,105.18c2-6.58,8-7.57,10.34-5.89.9.85.71,3,.47,4.12C103.74,100.44,99.35,101.23,95.07,105.18Z"/>
          <path d="M94.55,106l.27-.91c1.51-5,5.25-6.8,8-6.8a4.75,4.75,0,0,1,2.75.77c1.14,1.07.73,3.63.58,4.39l-.12.58-.35-.48a4,4,0,0,0-3.37-1.7c-2.11,0-4.61,1.25-7,3.5Zm8.26-7.19c-2.39,0-5.6,1.46-7.18,5.51,2.31-1.93,4.65-3,6.67-3a4.46,4.46,0,0,1,3.42,1.46c.19-1.27.15-2.73-.49-3.33A4.28,4.28,0,0,0,102.81,98.83Z"/>
          <path class="cls-16" d="M157.7,105.18c-2-6.58-8-7.57-10.34-5.89-.91.85-.71,3-.48,4.12C149,100.44,153.42,101.23,157.7,105.18Z"/>
          <path d="M157.52,105.37c-2.45-2.25-5-3.5-7.05-3.5a4,4,0,0,0-3.38,1.7l-.34.48-.12-.58c-.15-.76-.57-3.32.58-4.39a4.72,4.72,0,0,1,2.74-.77c2.75,0,6.49,1.78,8,6.8l.28.91Zm-10-5.89c-.64.6-.68,2.06-.5,3.33a4.49,4.49,0,0,1,3.43-1.46c2,0,4.36,1.06,6.66,3-1.57-4-4.78-5.51-7.18-5.51A4.24,4.24,0,0,0,147.54,99.48Z"/>
          <path class="cls-17" d="M114.09,183.64c-2.48-2.35-3-6.36-3-6.36a14.7,14.7,0,0,0,3.35,6Z"/>
          <path class="cls-17" d="M137.87,183.66l-.32-.38a11.81,11.81,0,0,0,3.87-6.14S140.94,181.39,137.87,183.66Z"/>
          <path class="cls-5" d="M126.21,79c8.54.2,15.35,4.28,19,9.92s1.17,11.35-1.23,12.84c-1,3.24-2.23,8.69-10,11.68-3.24,2.27-6.16,5.7-6.48,7.91-2.34-4.22-4.09-5.77-6-7.07-3.89-.13-8.75-2.73-10.5-10.44-4.15-2.4-7.26-7.44-4.28-13.93S115.34,79.43,126.21,79Z"/>
          <path class="cls-6" d="M145.19,89a20.6,20.6,0,0,0-5.62-5.75A22.18,22.18,0,0,1,144,94.6c-1-2.59-3.63-4.15-5.71-5.18,1.56,5.18,5.19,10.89,1,15.56-.56-4.5-2.07-6.74-4.67-8.82,3.09,14.44-5.28,14.84-7.29,20.06-2.79-4.67-7.85-4.85-9.31-14.35-1,3.11-1.65,5.39-1.13,8-4.67-3.64-4.57-13.7-2.5-19.41-4.15,1-4.67,5.19-6.23,8.3-.74-1.72-1.83-3.34-2.66-5A10.23,10.23,0,0,0,111,103.88c1.75,7.71,6.61,10.31,10.5,10.44,2,1.3,3.7,2.85,6,7.07.32-2.21,3.24-5.64,6.48-7.91,7.76-3,9-8.44,10-11.68C146.36,100.31,148.82,94.6,145.19,89Z"/>
          <path class="cls-7" d="M110.9,104.75a15.71,15.71,0,0,1,1.66-10.89,17.44,17.44,0,0,0-1.16,10.77Z"/>
          <path class="cls-7" d="M121.57,114.71a8.22,8.22,0,0,1-3.26-7.42,8.92,8.92,0,0,0,3.57,7Z"/>
          <path class="cls-7" d="M133.52,114.13l-.34-.4a11.29,11.29,0,0,0,3.35-13.4A11.08,11.08,0,0,1,133.52,114.13Z"/>
          <path class="cls-7" d="M144,102.46l-.5-.12c1.29-5.48-2.8-10.08-2.85-10.12S145.39,96.71,144,102.46Z"/>
          <path class="cls-7" d="M127.63,122.18l-.37-.67c-2.19-4-3.83-5.55-5.89-6.93-2.05-.09-8.47-1.14-10.65-10.53-4-2.34-7.4-7.43-4.29-14.21,3.3-7.18,9.58-10.69,19.77-11.06,8.1.19,15.28,3.94,19.21,10A11.07,11.07,0,0,1,147,97.24a7.93,7.93,0,0,1-2.86,4.73l-.12.39c-1,3.37-2.49,8.46-10,11.35-3.26,2.29-6.05,5.67-6.35,7.71ZM126.2,79.3c-10,.36-16.09,3.77-19.3,10.75-3,6.53.38,11.41,4.18,13.6l.1.06,0,.11c2.1,9.25,8.39,10.18,10.26,10.24h.08l.06,0a17.48,17.48,0,0,1,5.79,6.59c.71-2.2,3.32-5.25,6.43-7.43l.06,0c7.26-2.79,8.72-7.74,9.68-11l.18-.59.08,0a7.24,7.24,0,0,0,2.71-4.46,10.51,10.51,0,0,0-1.56-8C141.14,83.15,134.12,79.48,126.2,79.3Z"/>
          <g>
            <path class="cls-5" d="M30.76,132.41c-.55-6-1.86-15.5,5.9-15.26,8.59.27,8,12.73,6.72,17.78C41.16,134.42,30.76,132.41,30.76,132.41Z"/>
            <path class="cls-6" d="M34.3,117.45c-5.1,1.64-4,9.69-3.54,15,0,0,3.38.65,6.69,1.31C37.45,124.1,31.18,121.25,34.3,117.45Z"/>
            <path class="cls-8" d="M40,123.41a2.82,2.82,0,0,1-2.62,3,2.87,2.87,0,0,1-3.14-2.54,2.84,2.84,0,0,1,2.63-3A2.86,2.86,0,0,1,40,123.41Z"/>
            <path class="cls-18" d="M39.77,123.87a2.66,2.66,0,0,0-5.21-1C36.44,120.78,39.31,121.6,39.77,123.87Z"/>
            <path class="cls-9" d="M34.45,122.6a2.71,2.71,0,0,0-.22,1.3A2.9,2.9,0,0,0,40,124C38.39,126,34.72,124.69,34.45,122.6Z"/>
            <path class="cls-19" d="M37.39,126.71A3.14,3.14,0,0,1,34,123.93a3.08,3.08,0,0,1,2.87-3.32,3.14,3.14,0,0,1,3.44,2.78A3.1,3.1,0,0,1,37.39,126.71Zm-.51-5.57a2.55,2.55,0,0,0-2.37,2.74,2.59,2.59,0,0,0,2.83,2.29,2.55,2.55,0,0,0,2.37-2.74A2.59,2.59,0,0,0,36.88,121.14Z"/>
            <path class="cls-10" d="M37.11,117.18c5.92,2.61,6.15,10.9,4.55,17.38l1.72.37C44.6,130,45.22,117.88,37.11,117.18Z"/>
            <path class="cls-7" d="M43.58,135.25l-.27-.06c-2.19-.5-12.5-2.5-12.6-2.52l-.2,0-.11-1.09c-.41-4.3-1-10.2,1.67-13a5.74,5.74,0,0,1,4.6-1.65,6.71,6.71,0,0,1,5.3,2.58c3.08,3.9,2.69,11.43,1.68,15.53ZM31,132.19c1.41.27,9.7,1.88,12.15,2.42.94-4.06,1.26-11.15-1.64-14.83a6.17,6.17,0,0,0-4.88-2.36,5.14,5.14,0,0,0-4.17,1.47c-2.49,2.63-1.93,8.4-1.52,12.6Z"/>
            <path class="cls-5" d="M34.09,132.41c-.21-8-3.94-13.67-8.83-12.46s-5,12.46-2.26,17C24.87,139,34.09,132.41,34.09,132.41Z"/>
            <path class="cls-6" d="M25.19,120c-4.82,1.3-4.94,12.46-2.19,17,1,1.06,4-.26,6.65-1.74C26.24,131.09,22.12,124.06,25.19,120Z"/>
            <path class="cls-8" d="M29.36,126A2.79,2.79,0,0,1,27,129.2a2.87,2.87,0,0,1-3.33-2.28A2.79,2.79,0,0,1,26,123.7,2.88,2.88,0,0,1,29.36,126Z"/>
            <path class="cls-18" d="M29.18,126.45a2.66,2.66,0,0,0-5.28-.61C25.6,123.63,28.53,124.23,29.18,126.45Z"/>
            <path class="cls-9" d="M23.77,125.6a2.67,2.67,0,0,0-.1,1.32A2.87,2.87,0,0,0,27,129.2a2.82,2.82,0,0,0,2.4-2.63C28,128.67,24.22,127.67,23.77,125.6Z"/>
            <path class="cls-19" d="M27.05,129.47a3.18,3.18,0,0,1-3.66-2.5A3.09,3.09,0,0,1,26,123.43a3.18,3.18,0,0,1,3.66,2.5A3.09,3.09,0,0,1,27.05,129.47Zm-1-5.51a2.54,2.54,0,0,0-2.13,2.92,2.61,2.61,0,0,0,3,2.06A2.54,2.54,0,0,0,29.09,126,2.61,2.61,0,0,0,26.07,124Z"/>
            <path class="cls-10" d="M26.05,119.82c4.92,1.94,6.19,7.9,7.14,13.21l.9-.62C33.89,124.87,30.55,119.37,26.05,119.82Z"/>
            <path class="cls-7" d="M24.1,137.62h0a1.68,1.68,0,0,1-1.3-.48l0,0c-2.12-3.49-2.49-10.28-.78-14.25a5,5,0,0,1,3.21-3.16,5.89,5.89,0,0,1,1.36-.17c4.34,0,7.62,5.42,7.82,12.88v.14l-.12.08C34,132.83,27.21,137.62,24.1,137.62Zm-.87-.82a1.15,1.15,0,0,0,.87.28c2.72,0,8.79-4.16,9.71-4.8-.22-7.09-3.26-12.22-7.26-12.22a5.15,5.15,0,0,0-1.22.15,4.4,4.4,0,0,0-2.84,2.85C20.87,126.82,21.23,133.49,23.23,136.8Z"/>
            <path class="cls-5" d="M87.58,212.8c-11.5-4-28-21.24-33.81-28.61-7.83-6.43-15-19-18.15-28.6-8.25-3-12.71-4.69-16.59-10.23s-4.62-13.22-1.2-14.83,6.63,2.35,7.74,5.16c2.35-3.41,10.18-8.71,17.32-3.08.35-4,1.8-11,8-9.11s5.43,14.45-.21,22.58C57,151,66.1,160.58,70.12,166.39c9.7,2.87,31.14,8.89,38.58,18.14C102.14,191.76,87.58,212.8,87.58,212.8Z"/>
            <path class="cls-10" d="M24.64,139.66A13.61,13.61,0,0,1,30.47,133c3.67-2,9.7-3.22,14.87,2.86-3.14-6-9.84-7.08-15.18-4.33C27.34,133,24.62,135.66,24.64,139.66Z"/>
            <path class="cls-6" d="M61.81,187.88a21.37,21.37,0,0,0,12.75-1.07c-16.63-2.15-27.17-15.54-34.93-28.94,2.78-.54,5.55-1.08,7.76-2.68-15.87-.48-29.38-10.9-30.16-24.28-2.71,2.2-1.83,9.26,1.8,14.45,3.88,5.54,8.34,7.21,16.59,10.23,3.11,9.58,10.32,22.17,18.15,28.6,5.82,7.37,22.31,24.59,33.81,28.61,0,0,8.53-12.32,15.47-21.34C88.42,202.53,74.16,198,61.81,187.88Z"/>
            <path class="cls-8" d="M22.94,136.14a2.81,2.81,0,0,1-2.36,3.23,2.89,2.89,0,0,1-3.34-2.29,2.8,2.8,0,0,1,2.37-3.22A2.88,2.88,0,0,1,22.94,136.14Z"/>
            <path class="cls-18" d="M22.76,136.62a2.66,2.66,0,0,0-5.28-.62C19.18,133.8,22.11,134.39,22.76,136.62Z"/>
            <path class="cls-9" d="M17.35,135.77a2.63,2.63,0,0,0-.11,1.31,2.89,2.89,0,0,0,3.34,2.29,2.84,2.84,0,0,0,2.4-2.64C21.56,138.84,17.8,137.83,17.35,135.77Z"/>
            <path class="cls-19" d="M20.63,139.63a3.18,3.18,0,0,1-3.66-2.5,3.09,3.09,0,0,1,2.59-3.54,3.16,3.16,0,0,1,3.65,2.5A3.07,3.07,0,0,1,20.63,139.63Zm-1-5.51A2.54,2.54,0,0,0,17.52,137a2.6,2.6,0,0,0,3,2.06,2.54,2.54,0,0,0,2.14-2.91A2.61,2.61,0,0,0,19.65,134.12Z"/>
            <path class="cls-8" d="M43.24,142.06c0,3-2.79,5.44-6.24,5.44s-6.24-2.43-6.24-5.44,2.8-5.45,6.24-5.45S43.24,139.05,43.24,142.06Z"/>
            <path class="cls-18" d="M43,141.7c-.23-3.11-2.87-5.09-6-5.09a6.36,6.36,0,0,0-5.61,3.08C36,136.61,40.44,136.76,43,141.7Z"/>
            <path class="cls-9" d="M37.69,144.76c-2.91,0-6.89-2.13-6-5.52a4.94,4.94,0,0,0-.91,2.82c0,3,2.8,5.44,6.24,5.44s6.24-2.43,6.24-5.44a4.62,4.62,0,0,0-.11-1C42.86,143,41.4,144.77,37.69,144.76Z"/>
            <path class="cls-19" d="M37,147.77c-3.59,0-6.51-2.56-6.51-5.71s2.92-5.72,6.51-5.72,6.51,2.57,6.51,5.72S40.59,147.77,37,147.77Zm0-10.89c-3.29,0-6,2.32-6,5.18s2.67,5.18,6,5.18,6-2.33,6-5.18S40.29,136.88,37,136.88Z"/>
            <path class="cls-8" d="M51.72,129.64a2.89,2.89,0,1,1-2.89-2.79A2.85,2.85,0,0,1,51.72,129.64Z"/>
            <path class="cls-18" d="M51.46,130.08a2.71,2.71,0,0,0-2.63-3.23,2.77,2.77,0,0,0-2.47,1.77C48.42,126.72,51.21,127.79,51.46,130.08Z"/>
            <path class="cls-9" d="M46.27,128.36a2.68,2.68,0,0,0-.33,1.28,2.84,2.84,0,0,0,2.89,2.8,2.87,2.87,0,0,0,2.82-2.21C49.89,132.07,46.36,130.47,46.27,128.36Z"/>
            <path class="cls-19" d="M48.83,132.7A3.06,3.06,0,1,1,52,129.64,3.12,3.12,0,0,1,48.83,132.7Zm0-5.58a2.53,2.53,0,1,0,2.61,2.52A2.58,2.58,0,0,0,48.83,127.12Z"/>
            <path class="cls-7" d="M52.81,183.73l.34-.41c3.7,2.89,10.08,3.65,10.15,3.66S56.63,186.73,52.81,183.73Z"/>
            <path class="cls-7" d="M72.25,173.53a22,22,0,0,0-3.06-8l.46-.29A17.45,17.45,0,0,1,72.25,173.53Z"/>
            <path class="cls-7" d="M35,155.64l.15-.52a23.13,23.13,0,0,0,5.32.78A13,13,0,0,1,35,155.64Z"/>
            <path class="cls-7" d="M48.24,148.19a12.71,12.71,0,0,0,2.63-2.83l.47.29A7.79,7.79,0,0,1,48.24,148.19Z"/>
            <path class="cls-7" d="M45.34,135.9a15.75,15.75,0,0,0-3.5-3.72l.31-.44A11.07,11.07,0,0,1,45.34,135.9Z"/>
            <path class="cls-7" d="M24.64,139.66s-.29-3.19,1.31-4.91l.41.36C24.88,136.69,24.65,139.63,24.64,139.66Z"/>
            <path class="cls-7" d="M87.69,213.12l-.2-.07C75.85,209,59.34,191.68,53.57,184.38c-7.92-6.52-15.12-19.28-18.18-28.59-8.14-3-12.64-4.64-16.59-10.28-2.74-3.91-4.06-9.17-3.14-12.5a4,4,0,0,1,2.05-2.72,4.13,4.13,0,0,1,1.74-.4c2.83,0,5.16,3,6.18,5.25a14.16,14.16,0,0,1,10.48-5.26,10.9,10.9,0,0,1,6.55,2.22c.39-3.65,1.73-9.18,6.32-9.18a7.24,7.24,0,0,1,2,.32,6,6,0,0,1,3.82,4c1.81,5,.2,13-3.74,18.82A117.3,117.3,0,0,1,70.3,166.16l1,.31c9.86,2.9,30.37,8.93,37.59,17.89l.14.18-.16.17c-6.47,7.13-20.94,28-21.08,28.24ZM19.45,130.43a3.64,3.64,0,0,0-1.5.34,3.57,3.57,0,0,0-1.76,2.38c-.88,3.19.41,8.27,3.07,12.06,3.87,5.53,8.34,7.16,16.45,10.13l.13,0,0,.13c3,9.25,10.18,22,18.07,28.48l0,0c5.69,7.2,22,24.28,33.49,28.45,1.41-2,14.61-21,20.86-28-7.24-8.74-27.43-14.68-37.17-17.54L70,166.62l-.06-.08c-4.12-5.95-13.15-15.42-19.34-20.26l-.2-.15.14-.2c3.89-5.61,5.57-13.76,3.82-18.55a5.37,5.37,0,0,0-3.46-3.62,6.55,6.55,0,0,0-1.87-.3c-4.36,0-5.51,5.75-5.81,9.17l-.05.51-.4-.32a10.51,10.51,0,0,0-6.61-2.41,13.7,13.7,0,0,0-10.31,5.43l-.3.43-.19-.48C24.49,133.72,22.18,130.43,19.45,130.43Z"/>
          </g>
          <g>
            <path class="cls-5" d="M216.14,134.47c.55-6,1.87-15.5-5.9-15.26-8.59.27-8,12.73-6.71,17.78C205.74,136.48,216.14,134.47,216.14,134.47Z"/>
            <path class="cls-6" d="M212.6,119.51c5.11,1.64,4,9.69,3.54,15,0,0-3.37.65-6.68,1.31C209.46,126.16,215.73,123.31,212.6,119.51Z"/>
            <path class="cls-8" d="M206.91,125.47a2.83,2.83,0,0,0,2.63,3,2.86,2.86,0,0,0,3.13-2.54,2.82,2.82,0,0,0-2.62-3A2.87,2.87,0,0,0,206.91,125.47Z"/>
            <path class="cls-18" d="M207.13,125.93a2.74,2.74,0,0,1,2.92-3,2.78,2.78,0,0,1,2.3,2C210.47,122.84,207.59,123.66,207.13,125.93Z"/>
            <path class="cls-9" d="M212.45,124.66a2.6,2.6,0,0,1,.22,1.3,2.9,2.9,0,0,1-5.74.1C208.51,128.05,212.18,126.75,212.45,124.66Z"/>
            <path class="cls-19" d="M206.64,125.44a3.14,3.14,0,0,1,3.43-2.78A3.1,3.1,0,0,1,213,126a3.14,3.14,0,0,1-3.44,2.78A3.08,3.08,0,0,1,206.64,125.44Zm.55,0a2.55,2.55,0,0,0,2.37,2.74,2.6,2.6,0,0,0,2.84-2.29A2.56,2.56,0,0,0,210,123.2,2.59,2.59,0,0,0,207.19,125.49Z"/>
            <path class="cls-10" d="M209.79,119.24c-5.92,2.61-6.14,10.9-4.54,17.38-.75.16-1.35.28-1.72.37C202.3,132,201.68,119.93,209.79,119.24Z"/>
            <path class="cls-7" d="M203.26,137.05c-1-4.1-1.41-11.63,1.67-15.53a6.72,6.72,0,0,1,5.3-2.58,5.72,5.72,0,0,1,4.6,1.65c2.65,2.81,2.08,8.71,1.67,13l-.1,1.09-.21,0c-.1,0-10.41,2-12.6,2.52l-.27.06Zm12.69-3.5c.4-4.21,1-10-1.53-12.6a5.11,5.11,0,0,0-4.17-1.47,6.17,6.17,0,0,0-4.88,2.36c-2.9,3.68-2.58,10.77-1.63,14.83,2.44-.54,10.74-2.15,12.14-2.43Z"/>
            <path class="cls-5" d="M212.81,134.47c.21-8,3.94-13.67,8.83-12.46s5,12.46,2.26,17C222,141,212.81,134.47,212.81,134.47Z"/>
            <path class="cls-6" d="M221.71,122c4.82,1.3,4.95,12.46,2.19,17-1,1.06-4-.26-6.65-1.74C220.66,133.15,224.78,126.12,221.71,122Z"/>
            <path class="cls-8" d="M217.54,128a2.8,2.8,0,0,0,2.36,3.22,2.88,2.88,0,0,0,3.34-2.28,2.82,2.82,0,0,0-2.36-3.23A2.89,2.89,0,0,0,217.54,128Z"/>
            <path class="cls-18" d="M217.72,128.51a2.66,2.66,0,0,1,5.28-.61C221.3,125.69,218.37,126.29,217.72,128.51Z"/>
            <path class="cls-9" d="M223.13,127.66a2.67,2.67,0,0,1,.11,1.32,2.88,2.88,0,0,1-3.34,2.28,2.82,2.82,0,0,1-2.4-2.63C218.92,130.73,222.68,129.72,223.13,127.66Z"/>
            <path class="cls-19" d="M217.27,128a3.16,3.16,0,0,1,3.65-2.5,3.07,3.07,0,0,1,2.59,3.54,3.16,3.16,0,0,1-3.66,2.5A3.07,3.07,0,0,1,217.27,128Zm.54.09A2.55,2.55,0,0,0,220,131a2.6,2.6,0,0,0,3-2.07,2.52,2.52,0,0,0-2.13-2.91A2.61,2.61,0,0,0,217.81,128.08Z"/>
            <path class="cls-10" d="M220.85,121.87c-4.92,1.95-6.19,7.91-7.14,13.21l-.9-.61C213,126.93,216.36,121.43,220.85,121.87Z"/>
            <path class="cls-7" d="M212.65,134.68l-.12-.08v-.14c.19-7.46,3.48-12.88,7.81-12.88a5.82,5.82,0,0,1,1.36.17,5,5,0,0,1,3.22,3.16c1.71,4,1.33,10.76-.79,14.25l0,0a1.71,1.71,0,0,1-1.3.47h0C219.69,139.67,212.93,134.89,212.65,134.68Zm11.77-9.57a4.41,4.41,0,0,0-2.85-2.84,5.17,5.17,0,0,0-1.22-.16c-4,0-7,5.13-7.26,12.22.92.65,7,4.81,9.72,4.81a1.18,1.18,0,0,0,.87-.28C225.68,135.55,226,128.88,224.42,125.11Z"/>
            <path class="cls-5" d="M159.32,214.86c11.5-4,28-21.24,33.81-28.61,7.83-6.43,15-19,18.16-28.6,8.24-3,12.7-4.69,16.58-10.23s4.62-13.22,1.2-14.83-6.63,2.35-7.73,5.16C219,134.33,211.15,129,204,134.67c-.34-3.95-1.8-11-8-9.11s-5.42,14.45.21,22.57c-6.28,4.92-15.38,14.51-19.4,20.32-9.7,2.86-31.14,8.89-38.57,18.14C144.77,193.82,159.32,214.86,159.32,214.86Z"/>
            <path class="cls-10" d="M222.26,141.72a13.64,13.64,0,0,0-5.82-6.63c-3.68-2-9.7-3.21-14.87,2.87,3.14-6,9.84-7.08,15.18-4.33C219.56,135.08,222.28,137.72,222.26,141.72Z"/>
            <path class="cls-6" d="M185.1,189.94a21.37,21.37,0,0,1-12.75-1.07c16.63-2.15,27.16-15.55,34.92-28.94-2.77-.54-5.54-1.08-7.76-2.68,15.87-.48,29.38-10.91,30.16-24.28,2.72,2.2,1.84,9.26-1.8,14.45-3.88,5.54-8.34,7.21-16.58,10.23-3.12,9.58-10.33,22.17-18.16,28.6-5.82,7.37-22.31,24.59-33.81,28.61,0,0-8.52-12.32-15.46-21.35C158.49,204.59,172.74,200,185.1,189.94Z"/>
            <path class="cls-8" d="M224,138.2a2.8,2.8,0,0,0,2.36,3.22,2.88,2.88,0,0,0,3.34-2.28,2.8,2.8,0,0,0-2.36-3.22A2.89,2.89,0,0,0,224,138.2Z"/>
            <path class="cls-18" d="M224.14,138.67a2.67,2.67,0,0,1,5.29-.61C227.73,135.85,224.79,136.45,224.14,138.67Z"/>
            <path class="cls-9" d="M229.55,137.83a2.62,2.62,0,0,1,.11,1.31,2.88,2.88,0,0,1-3.34,2.28,2.81,2.81,0,0,1-2.39-2.63C225.34,140.89,229.1,139.89,229.55,137.83Z"/>
            <path class="cls-19" d="M223.69,138.15a3.16,3.16,0,0,1,3.66-2.5,3.07,3.07,0,0,1,2.58,3.54,3.16,3.16,0,0,1-3.65,2.5A3.07,3.07,0,0,1,223.69,138.15Zm.54.09a2.55,2.55,0,0,0,2.14,2.92,2.61,2.61,0,0,0,3-2.06,2.55,2.55,0,0,0-2.14-2.92A2.62,2.62,0,0,0,224.23,138.24Z"/>
            <path class="cls-8" d="M203.67,144.12c0,3,2.79,5.44,6.23,5.44s6.24-2.43,6.24-5.44-2.79-5.45-6.24-5.45S203.67,141.11,203.67,144.12Z"/>
            <path class="cls-18" d="M203.87,143.75c.23-3.1,2.87-5.08,6-5.08a6.36,6.36,0,0,1,5.61,3.08C210.9,138.67,206.46,138.82,203.87,143.75Z"/>
            <path class="cls-9" d="M209.21,146.82c2.92,0,6.89-2.13,6-5.52a4.94,4.94,0,0,1,.91,2.82c0,3-2.79,5.44-6.24,5.44s-6.23-2.43-6.23-5.44a4.79,4.79,0,0,1,.11-1C204,145,205.5,146.83,209.21,146.82Z"/>
            <path class="cls-19" d="M203.39,144.12c0-3.15,2.92-5.72,6.51-5.72s6.52,2.57,6.52,5.72-2.93,5.71-6.52,5.71S203.39,147.27,203.39,144.12Zm.55,0c0,2.85,2.68,5.18,6,5.18s6-2.33,6-5.18-2.67-5.18-6-5.18S203.94,141.26,203.94,144.12Z"/>
            <path class="cls-8" d="M195.19,131.7a2.89,2.89,0,1,0,2.89-2.79A2.85,2.85,0,0,0,195.19,131.7Z"/>
            <path class="cls-18" d="M195.45,132.14a2.71,2.71,0,0,1,2.63-3.23,2.79,2.79,0,0,1,2.47,1.76C198.49,128.78,195.7,129.85,195.45,132.14Z"/>
            <path class="cls-9" d="M200.63,130.42a2.69,2.69,0,0,1,.34,1.28,2.9,2.9,0,0,1-5.72.59C197,134.13,200.55,132.53,200.63,130.42Z"/>
            <path class="cls-19" d="M194.91,131.7a3.17,3.17,0,1,1,3.17,3.06A3.12,3.12,0,0,1,194.91,131.7Zm.55,0a2.62,2.62,0,1,0,2.62-2.52A2.59,2.59,0,0,0,195.46,131.7Z"/>
            <path class="cls-7" d="M194.1,185.79l-.35-.42c-3.7,2.9-10.08,3.66-10.14,3.67S190.28,188.79,194.1,185.79Z"/>
            <path class="cls-7" d="M174.65,175.59a22.08,22.08,0,0,1,3.07-8l-.47-.29A17.45,17.45,0,0,0,174.65,175.59Z"/>
            <path class="cls-7" d="M211.93,157.7l-.15-.52a23,23,0,0,1-5.32.78A13,13,0,0,0,211.93,157.7Z"/>
            <path class="cls-7" d="M198.66,150.25a13.25,13.25,0,0,1-2.63-2.83l-.47.29A7.86,7.86,0,0,0,198.66,150.25Z"/>
            <path class="cls-7" d="M201.57,138a15.3,15.3,0,0,1,3.5-3.72l-.32-.44A11.11,11.11,0,0,0,201.57,138Z"/>
            <path class="cls-7" d="M222.26,141.72s.3-3.2-1.31-4.91l-.41.36A8.75,8.75,0,0,1,222.26,141.72Z"/>
            <path class="cls-7" d="M159.09,215c-.15-.21-14.62-21.11-21.09-28.25l-.15-.16.14-.18c7.21-9,27.73-15,37.58-17.89l1-.31c4.12-5.93,13-15.25,19.2-20.14-3.94-5.82-5.55-13.86-3.74-18.82a6,6,0,0,1,3.82-4,7.31,7.31,0,0,1,2-.32c4.58,0,5.93,5.53,6.31,9.17a11,11,0,0,1,6.56-2.22,14.16,14.16,0,0,1,10.47,5.27c1-2.26,3.35-5.25,6.19-5.25a4.17,4.17,0,0,1,1.74.4,4,4,0,0,1,2,2.72c.93,3.33-.4,8.59-3.14,12.5-3.95,5.64-8.45,7.31-16.59,10.28-3,9.31-10.25,22.07-18.17,28.59-5.77,7.3-22.29,24.6-33.93,28.67l-.2.07Zm62.51-77.16-.2.48-.29-.43a13.72,13.72,0,0,0-10.31-5.43,10.49,10.49,0,0,0-6.61,2.41l-.41.32,0-.51c-.3-3.43-1.46-9.18-5.81-9.18a6.86,6.86,0,0,0-1.87.3,5.4,5.4,0,0,0-3.47,3.63c-1.74,4.79-.07,12.93,3.82,18.55l.14.2-.19.15c-6.19,4.84-15.23,14.31-19.35,20.26l0,.08-1.23.36c-9.73,2.86-29.93,8.8-37.16,17.54,6.24,7,19.45,25.92,20.86,27.95,11.52-4.16,27.79-21.24,33.48-28.44l0,0c7.89-6.48,15.06-19.23,18.07-28.48l0-.13.12,0c8.11-3,12.58-4.6,16.45-10.13,2.66-3.8,4-8.87,3.07-12.06a3.49,3.49,0,0,0-1.76-2.38,3.45,3.45,0,0,0-1.49-.34C224.72,132.49,222.41,135.77,221.6,137.85Z"/>
          </g>
          <g>
            <path class="cls-5" d="M97.46,186.78C92.4,195,83.45,213,79.69,238.31,68.8,251,64,263.73,63.48,272s5.58,20.88,25.29,22.57c-5.84,3.5-16.15,5.57-23.54,7.26s-12.58,3.89-15.63,8-2.72,9.4-2.2,10.38c-1,3.63-4.63,9.46,10.59,10.59,1.82,2.38,7.52,3.33,22.05-1.43a70.45,70.45,0,0,0,30.87-19.8c6.57-7.26,8.47-11,8.73-15.56s.43-9.25,0-12c7.61.78,28.36,3,43.45-17.16,6.61-4.54,11.37-7.66,15.95-6.79s6.34,4.71,8.49,8.08,5.39,8.76,9.41,6.42S223.27,181,223.27,181c-5.26-.71-12,3-17,11.61s-8.3,20-10.25,26c-4.09-5.44-14.7-21.83-32-5.75-2.42-10.2-6.36-22.08-9.47-26.06S97.46,186.78,97.46,186.78Z"/>
            <path class="cls-6" d="M93,269.38c-12.44-7.47-13.73-19.23-13.5-30.79q-1.49,1.75-2.82,3.49C75.36,252.8,81,265.67,93,269.38Z"/>
            <path class="cls-6" d="M189.16,248.16c-2.92,2-7.61,0-10-6.48-1.91-5.1-3.55-10.55-6.75-16.18,2.34,17.38-20.19,37.27-27.45,41.42-19.2,11.41-45.2,7.88-51.75,3,3.44,4.85,5.19,7.27,8.82,9.34,3.11,2.08,7.26,3.12,7.78,4.67,5.19,11.41-4.67,26.59-15,32.81-2.08,1.56-25,14.47-33.85,12.91-2.92-.58-.46-8.78,6.11-13.6-7.81,2.83-13.25,9.9-16.36,7.31-2.85-2.44.84-8.68,8.55-14.36-5.74.4-9.2,4.63-11.31,4.15-1.15,3.26-.87,6.37-.48,7.1-1,3.63-4.63,9.46,10.59,10.59,1.82,2.38,7.52,3.33,22.05-1.43a70.45,70.45,0,0,0,30.87-19.8c6.57-7.26,8.47-11,8.73-15.56s.43-9.25,0-12c7.61.78,28.36,3,43.45-17.16,6.61-4.54,11.37-7.66,15.95-6.79s6.34,4.71,8.49,8.08,5.39,8.76,9.41,6.42c3-1.73,16.11-51.63,22.62-77-4.1,4.87-10.86,9.26-14.47,15.66C196.93,225.67,192.4,247.2,189.16,248.16Z"/>
            <path class="cls-7" d="M161.81,216.64a11.59,11.59,0,0,1,2.53-4.43l.35.38A16.75,16.75,0,0,0,161.81,216.64Z"/>
            <path class="cls-7" d="M161.83,266.92l-.41-.32a61.14,61.14,0,0,0,4.81-7.11,55.19,55.19,0,0,0,5.1-11.33,40,40,0,0,1-4.7,11.68A62.49,62.49,0,0,1,161.83,266.92Z"/>
            <path class="cls-7" d="M90.74,294.89a32,32,0,0,1-3.62-.2l.06-.52a40,40,0,0,0,16.22-1.89A33.53,33.53,0,0,1,90.74,294.89Z"/>
            <path class="cls-7" d="M57.77,331c-4-6.53,9.23-14.92,9.23-14.92s-12.55,8.54-8.79,14.65Z"/>
            <path class="cls-7" d="M47.49,320.9l-.5-.17c2.44-7.38,12.2-11.7,12.2-11.7S49.85,313.72,47.49,320.9Z"/>
            <path class="cls-7" d="M191.23,251.29a150.83,150.83,0,0,1,2-20.71,119,119,0,0,1,3.13-13.81l.5.15a114.9,114.9,0,0,0-3.06,13.45C191.9,241.18,191.24,251.15,191.23,251.29Z"/>
            <path class="cls-7" d="M120.9,282.45a46.77,46.77,0,0,1-19.73-7.27A51.13,51.13,0,0,0,121,281.93Z"/>
            <path class="cls-7" d="M81.11,255a39,39,0,0,1-1.47-18l.51.07a38.22,38.22,0,0,0,1.65,18.32c3.68,10.06,11,14,11.15,14S84.8,265.65,81.11,255Z"/>
            <path class="cls-7" d="M63.9,333.09c-2.94,0-5-.66-6-2-6-.46-9.68-1.71-11.1-3.82-1.27-1.89-.55-4.13,0-5.93.12-.37.24-.73.33-1.07-.52-1.23-.79-6.38,2.27-10.55,2.81-3.83,7.53-6.26,15.78-8.14l2.27-.51c6.8-1.53,15.2-3.42,20.49-6.32C67.42,292.68,62.78,279,63.22,272c.63-10,6.69-22.67,16.23-33.81,4-27,13.78-45,17.79-51.56l.07-.11h.13c.24,0,24.2-1.77,40.94-1.77,14.93,0,16,1.41,16.39,1.87,3.22,4.1,7.11,16.12,9.42,25.73,4.85-4.41,9.61-6.65,14.14-6.65,8.52,0,14.22,7.73,17.28,11.89.11.16.22.3.33.45l.64-2c2-6.36,5.09-16,9.47-23.55,4.29-7.4,10.24-11.82,15.92-11.82a9.69,9.69,0,0,1,1.33.09l.29,0-.07.29c-.91,3.65-22.38,89.43-26.45,91.79a4.18,4.18,0,0,1-2.11.6c-3.11,0-5.6-3.89-7.41-6.74l-.23-.37c-.28-.44-.56-.88-.83-1.33-1.86-3-3.62-5.91-7.5-6.64a8.4,8.4,0,0,0-1.51-.14c-3.92,0-8,2.6-14.21,6.87-8.8,11.75-20.8,17.71-35.67,17.71a72.1,72.1,0,0,1-7.66-.45,74.22,74.22,0,0,1,0,11.74c-.28,4.84-2.41,8.67-8.8,15.73a70.93,70.93,0,0,1-31,19.87C73.22,332,67.76,333.09,63.9,333.09ZM97.61,187c-4,6.58-13.68,24.53-17.66,51.32v.07l0,.06c-9.49,11.07-15.53,23.62-16.15,33.57C63.31,279,68,292.56,88.79,294.34l.8.07-.69.41C83.61,298,74.71,300,67.55,301.6l-2.26.51c-8.12,1.85-12.75,4.23-15.48,7.94-3,4.12-2.64,9.26-2.18,10.1l0,.09,0,.1c-.1.38-.23.77-.36,1.19-.58,1.78-1.23,3.8-.1,5.48,1.33,2,4.87,3.16,10.82,3.6h.11l.08.09c2.2,2.89,9.79,2.4,21.76-1.51a70.47,70.47,0,0,0,30.75-19.73c6.3-7,8.4-10.7,8.67-15.41.25-4.35.44-9.17,0-12l0-.33.47,0a72.49,72.49,0,0,0,7.8.48c14.71,0,26.58-5.91,35.28-17.55l.06-.06c6.33-4.34,10.46-7,14.54-7a9.63,9.63,0,0,1,1.61.14c4.1.78,6,3.88,7.84,6.88.27.44.54.89.82,1.32l.24.37c1.75,2.75,4.14,6.5,7,6.5a3.7,3.7,0,0,0,1.85-.53c3.09-1.8,18.4-60.26,26.13-91.18a7.78,7.78,0,0,0-1-.05c-5.49,0-11.28,4.32-15.47,11.56-4.35,7.51-7.4,17.1-9.42,23.45l-.8,2.5-.16.48-.3-.4-.63-.85c-3-4.08-8.61-11.69-16.86-11.69-4.5,0-9.25,2.3-14.12,6.82l-.32.31-.1-.44c-2.29-9.62-6.21-21.85-9.42-26-.6-.77-3.86-1.67-16-1.67C122.31,185.27,99.56,186.89,97.61,187Z"/>
            <path class="cls-20" d="M163,231c-1.56-20-8-34.41-10.9-41.67l-26.33-3.61v0h-.17v0l-26.33,3.61C96.3,196.63,89.89,211,88.34,231c-.82,10.51,2.71,21.52,9.19,30.27,5,6.74,16.57,13.49,28.2,13.49,11.89,0,21-5.62,27.35-12.67C160.63,253.78,163.8,241.89,163,231Z"/>
            <path class="cls-21" d="M163,231c-1.56-20-8-34.41-10.9-41.67l-18.67-2.56c16.23,18.33,26.09,46.73,6,65-15.53,13.75-39.6,13.31-50-8.22a48.13,48.13,0,0,0,8.19,17.73c5,6.74,16.57,13.49,28.2,13.49,11.89,0,21-5.62,27.35-12.67C160.63,253.78,163.8,241.89,163,231Z"/>
            <path class="cls-17" d="M125.73,275.06c-11.92,0-23.53-7-28.41-13.59-6.67-9-10-20.12-9.24-30.45,1.45-18.63,7.15-32.57,10.22-40.05.25-.6.48-1.17.69-1.7l.06-.14,26.25-3.6v-.07l.35,0,.34-.05v.09l26.26,3.6.05.14.7,1.7c3.06,7.48,8.77,21.42,10.22,40.05.9,11.7-2.81,23.39-9.95,31.28C148,268.12,139,275.06,125.73,275.06ZM99.42,189.61l-.64,1.56c-3.06,7.45-8.74,21.34-10.18,39.9-.79,10.2,2.54,21.17,9.14,30.09,4.8,6.48,16.24,13.38,28,13.38,13,0,22-6.85,27.15-12.59,7.05-7.78,10.72-19.33,9.82-30.88-1.44-18.56-7.13-32.45-10.18-39.9l-.64-1.56L125.63,186h0Z"/>
            <path class="cls-20" d="M152.15,173.85c-4.27-1.94-13.58-2.08-26.5-1-12.93-1-22.23-.9-26.5,1s-9.21,15.69-2.08,23.73a20,20,0,0,1,1.72-5.7C98.85,195,100,205.36,110,209c-1.3-2.08-1.21-4.63-1.08-6.49,1.82,3,2.34,5.12,6.94,8s9.5,7.27,9.84,7.31c.68-.27,5.3-4.44,9.83-7.31s5.13-5.06,6.94-8c.13,1.86.23,4.41-1.08,6.49,9.95-3.64,11.1-14,11.17-17.12a20,20,0,0,1,1.72,5.7C161.36,189.54,156.43,175.79,152.15,173.85Z"/>
            <path class="cls-21" d="M152.15,173.85A24.27,24.27,0,0,0,144,172.3c3.69,4.56,9.58,8.72,8.28,15.17-1.68-2.4-3.44-3.81-5.7-4.15,5.18,6.22,2.07,14-2.08,19.19-.19-4.41-.78-6.68-3.11-8.82-2.08,7.78-5.46,14.54-15.52,19.2-7.61-4.37-14.36-7.7-19.24-18.68-1,2.6-1,5.71-1,8.3-5.19-3.63-4.67-9.86-5.19-15.56-3.11,1-2.59,4.67-4.15,6.74a48.86,48.86,0,0,1-2.53-9.82c-.76,4.59-.14,9.82,3.31,13.71a20,20,0,0,1,1.72-5.7C98.85,195,100,205.36,110,209c-1.3-2.08-1.21-4.63-1.08-6.49,1.82,3,2.34,5.12,6.94,8s9.5,7.27,9.84,7.31c.68-.27,5.3-4.44,9.83-7.31s5.13-5.06,6.94-8c.13,1.86.23,4.41-1.08,6.49,9.95-3.64,11.1-14,11.17-17.12a20,20,0,0,1,1.72,5.7C161.36,189.54,156.43,175.79,152.15,173.85Z"/>
            <path class="cls-17" d="M125.68,218.12h-.06c-.17,0-.4-.19-2-1.48a98,98,0,0,0-8-5.87,15.24,15.24,0,0,1-6.12-6.56l-.47-.84a9.55,9.55,0,0,0,1.09,5.49l.41.64-.71-.26c-9.37-3.42-11-12.75-11.29-16.32a26.92,26.92,0,0,0-1.25,4.71l-.1.52-.35-.39c-3.27-3.68-4.43-9.12-3.2-14.92.94-4.42,3.14-8.22,5.36-9.23,2.52-1.14,6.76-1.7,13-1.7,3.82,0,8.29.21,13.67.64,5.34-.43,9.81-.64,13.62-.64,6.2,0,10.44.56,13,1.7,2.21,1,4.41,4.81,5.35,9.23,1.24,5.8.07,11.24-3.19,14.92l-.35.39-.1-.52a26.78,26.78,0,0,0-1.26-4.71c-.28,3.57-1.91,12.9-11.28,16.32l-.71.26.4-.64a9.56,9.56,0,0,0,1.1-5.49l-.48.84a15.24,15.24,0,0,1-6.12,6.56,90.22,90.22,0,0,0-7.57,5.6,16.72,16.72,0,0,1-2.31,1.73Zm-17-16.44.43.7c.33.55.62,1.08.91,1.58a14.62,14.62,0,0,0,5.94,6.37,97.72,97.72,0,0,1,8,5.91c.74.59,1.45,1.16,1.71,1.33.32-.2,1.14-.86,2.08-1.61a91,91,0,0,1,7.62-5.63,14.75,14.75,0,0,0,5.94-6.37c.28-.5.57-1,.91-1.58l.42-.7.06.81a12,12,0,0,1-.76,6c9.57-4,10.28-14.51,10.33-16.63l0-.88.46.75a19.27,19.27,0,0,1,1.65,5.26c2.88-3.54,3.88-8.62,2.73-14.05-.9-4.21-3-7.94-5.07-8.86-2.45-1.12-6.62-1.66-12.75-1.66-3.8,0-8.25.21-13.62.63-5.41-.42-9.87-.63-13.67-.63-6.12,0-10.29.54-12.75,1.66-2,.92-4.17,4.65-5.06,8.86C93,188.38,94,193.46,96.92,197a18.69,18.69,0,0,1,1.65-5.26L99,191l0,.88c0,2.12.75,12.67,10.33,16.63a12.1,12.1,0,0,1-.77-6Z"/>
            <path class="cls-22" d="M224.61,180.38c-3.9-.18-8.74,1.47-13.06,11.32S198.49,234,195.9,249s-3.2,25.07,2.94,25.51,8.3-3.12,11.33-12.19,6.83-20.06,14.44-30.61,16.12-23,15.73-33.51c1.43-6.87.35-14.48-3.63-16.9C236,176.57,232.13,173.63,224.61,180.38Z"/>
            <path class="cls-23" d="M238.08,182.93c-.25-.23-1.43-1.43-1.71-1.6.3,4-.73,11.07-4.51,17.95C236.17,193.92,238.81,187.47,238.08,182.93Z"/>
            <path class="cls-23" d="M223.58,195.53c2.64-5.37,8-13.22,2.72-16.82-.64.48-1.33,1-2,1.67C228.55,180.9,225.11,188.91,223.58,195.53Z"/>
            <path class="cls-23" d="M221.58,228.13c-7.2,9.21-13.88,26.36-18.81,24.54-4.67-1.12-4.48-12.72-3.52-20.74-1.59,6.54-2.92,12.6-3.7,17.1-2.59,15-3.19,25.07,2.94,25.51s8.3-3.12,11.33-12.19,6.83-20.06,14.44-30.61c6.72-9.32,14.14-20.11,15.52-29.75C236.24,211.23,227.37,220.72,221.58,228.13Z"/>
            <path class="cls-7" d="M235.64,206.18a28.94,28.94,0,0,0,4.26-8.83l.51.12C239.37,201.93,235.64,206.18,235.64,206.18Z"/>
            <path class="cls-7" d="M231.86,199.28c0-.1,5.41-10.39,4.1-18.71l.51-.08C237.81,189,231.86,199.28,231.86,199.28Z"/>
            <path class="cls-7" d="M223.58,195.53c0-.09,2.33-9.22,2.45-12.22a2.75,2.75,0,0,0-.55-2.08,3.17,3.17,0,0,0-2.34-.58H223v-.52h.16a3.58,3.58,0,0,1,2.72.74,3.2,3.2,0,0,1,.69,2.46C226.42,186.39,223.58,195.53,223.58,195.53Z"/>
            <path class="cls-7" d="M233.41,204.53a9.44,9.44,0,0,0-4.75-5.67,8.27,8.27,0,0,0-3.38-.69,11.21,11.21,0,0,0-4.46.9,12,12,0,0,0-5,4.1,9.87,9.87,0,0,1,4.83-4.57,11.84,11.84,0,0,1,4.68-.95,8.54,8.54,0,0,1,3.47.7C232.65,200.06,233.41,204.53,233.41,204.53Z"/>
            <path class="cls-7" d="M199.45,274.83h0l-1,0a4.39,4.39,0,0,1-3.28-1.69c-2.76-3.53-2-12.19.1-24.12,2.7-15.68,11.49-47.86,15.67-57.39,3.39-7.73,7.57-11.49,12.77-11.49h.43c2.94-2.62,5.52-4,7.68-4,2.49,0,4.26,1.87,4.75,5,4.17,2.66,5,10.57,3.66,17.08.36,10.34-7.6,22.29-15.79,33.64-7.25,10.05-10.95,20.18-14.4,30.54C207.15,271.17,205,274.83,199.45,274.83Zm24.29-94.21c-5,0-9,3.66-12.3,11.19-4.17,9.5-12.93,41.61-15.63,57.26-1.76,10.21-3,20.15-.2,23.72a3.83,3.83,0,0,0,2.9,1.49c6,.42,8.07-3,11.06-12,3.47-10.39,7.18-20.56,14.48-30.68,8.14-11.29,16.06-23.16,15.69-33.34v-.06c1.33-6.39.55-14.16-3.51-16.63l-.1-.06,0-.12c-.21-1.41-1-4.69-4.26-4.69-2,0-4.58,1.35-7.42,3.89l-.08.07h-.1Z"/>
            <path class="cls-8" d="M222.1,223.61c-2.24,5.71-6.2,9.49-8.85,8.45s-3-6.51-.74-12.21,6.2-9.48,8.85-8.45S224.34,217.91,222.1,223.61Z"/>
            <path class="cls-9" d="M211.53,223c-1.05,4.45-.43,8.23,1.72,9.08,2.65,1,6.61-2.74,8.85-8.45,1.47-3.75,1.82-7.39,1.15-9.74C223.27,222.87,214.84,231.17,211.53,223Z"/>
            <path class="cls-18" d="M223.14,213.55a3.33,3.33,0,0,0-1.78-2.15c-2.65-1-6.61,2.75-8.85,8.45-.33.85-.51,2.17-.73,3C214.88,217,218.6,210.16,223.14,213.55Z"/>
            <path class="cls-24" d="M214.18,232.49a2.89,2.89,0,0,1-1-.19c-2.83-1.11-3.22-6.62-.89-12.55,2-5.08,5.43-8.78,8.16-8.78a2.89,2.89,0,0,1,1,.19c2.83,1.11,3.22,6.62.89,12.55C220.34,228.8,216.91,232.49,214.18,232.49Zm6.25-21c-2.53,0-5.76,3.56-7.68,8.45-2.18,5.56-1.92,10.89.6,11.88a2.31,2.31,0,0,0,.83.15c2.53,0,5.76-3.55,7.68-8.45,2.18-5.56,1.91-10.89-.6-11.87A2.12,2.12,0,0,0,220.43,211.49Z"/>
            <path class="cls-8" d="M220.93,194.33c-1.15,2.92-3.39,4.78-5,4.15s-2-3.52-.83-6.44,3.38-4.78,5-4.15S222.08,191.4,220.93,194.33Z"/>
            <path class="cls-18" d="M221.29,189.22a2.21,2.21,0,0,0-1.2-1.33c-1.61-.63-3.85,1.22-5,4.15-.09.22-.27,1.51-.34,1.73C216.91,189.89,218.63,187.51,221.29,189.22Z"/>
            <path class="cls-9" d="M214.73,193.15c-.67,2.51-.2,4.78,1.2,5.33,1.61.63,3.85-1.23,5-4.15a9,9,0,0,0,.66-3.61C218.16,198.86,214.74,196.09,214.73,193.15Z"/>
            <path class="cls-24" d="M216.6,198.86a2.14,2.14,0,0,1-.76-.14,2.94,2.94,0,0,1-1.62-2.57,8.83,8.83,0,0,1,.63-4.21c1-2.61,2.91-4.43,4.58-4.43a2,2,0,0,1,.76.14,2.93,2.93,0,0,1,1.61,2.57,8.67,8.67,0,0,1-.63,4.2C220.14,197,218.26,198.86,216.6,198.86ZM219.43,188c-1.44,0-3.16,1.73-4.09,4.11a8.17,8.17,0,0,0-.6,4,2.45,2.45,0,0,0,1.29,2.15,1.56,1.56,0,0,0,.57.1c1.43,0,3.15-1.72,4.09-4.11a8.24,8.24,0,0,0,.6-3.95,2.48,2.48,0,0,0-1.29-2.15A1.56,1.56,0,0,0,219.43,188Z"/>
            <path class="cls-8" d="M233.37,189c-.67,2.5-2.32,4.22-3.69,3.85s-2-2.69-1.28-5.18,2.33-4.22,3.7-3.85S234,186.55,233.37,189Z"/>
            <path class="cls-9" d="M228.4,187.71c-.67,2.49-.1,4.81,1.28,5.18s3-1.35,3.69-3.85a7.42,7.42,0,0,0,.25-1.35C231.67,191.79,228.45,191.65,228.4,187.71Z"/>
            <path class="cls-18" d="M233.53,185.76a2.3,2.3,0,0,0-1.43-1.9c-1.32-.35-3.24,1.58-3.66,4.45C230.16,184.9,231.7,183.32,233.53,185.76Z"/>
            <path class="cls-24" d="M230.06,193.2a1.63,1.63,0,0,1-.45-.06,2.45,2.45,0,0,1-1.59-2,7.33,7.33,0,0,1,.13-3.52c.64-2.37,2.14-4.09,3.57-4.09a1.74,1.74,0,0,1,.45.06c1.53.41,2.17,2.83,1.45,5.5C233,191.48,231.49,193.2,230.06,193.2Zm1.66-9.13c-1.18,0-2.5,1.59-3.07,3.7a6.77,6.77,0,0,0-.13,3.26c.22.89.65,1.46,1.22,1.61a1.12,1.12,0,0,0,.32,0c1.18,0,2.5-1.59,3.06-3.71.62-2.31.13-4.53-1.09-4.86A1.06,1.06,0,0,0,231.72,184.07Z"/>
            <path class="cls-8" d="M238.37,198.35c-.45,1.65-1.54,2.79-2.45,2.55s-1.29-1.78-.84-3.43,1.54-2.8,2.44-2.55S238.81,196.7,238.37,198.35Z"/>
            <path class="cls-18" d="M238.2,195.9c-.17-.51-.28-.87-.68-1-.9-.25-2,.89-2.44,2.55,0,.08.14.31.13.4C236,196.43,237.08,194.72,238.2,195.9Z"/>
            <path class="cls-9" d="M235,198.3c-.22,1.41.17,2.62,1,2.84s2-.9,2.45-2.55a4.55,4.55,0,0,0,.09-2.21C238,199.19,236,200.79,235,198.3Z"/>
            <path class="cls-24" d="M236.17,201.19a1.65,1.65,0,0,1-.32,0,1.73,1.73,0,0,1-1.11-1.38,4.82,4.82,0,0,1,.09-2.37c.43-1.61,1.46-2.77,2.44-2.77a1.12,1.12,0,0,1,.32,0,1.71,1.71,0,0,1,1.12,1.37,5,5,0,0,1-.09,2.38C238.19,200,237.16,201.19,236.17,201.19Zm1.1-6.05c-.73,0-1.58,1.05-1.94,2.39a4.3,4.3,0,0,0-.09,2.12,1.25,1.25,0,0,0,.75,1c.75.2,1.74-.91,2.13-2.37a4.37,4.37,0,0,0,.08-2.11,1.23,1.23,0,0,0-.74-1A.58.58,0,0,0,237.27,195.14Z"/>
          </g>
          <g>
            <path class="cls-20" d="M168,136c-6.86-3.46-14.51-1.88-22.09,1.65-5.19-5.31-11.18-8.65-19.82-8.65a28.34,28.34,0,0,0-19.81,8.65c-7.58-3.53-15.23-5.11-22.09-1.65a18.15,18.15,0,0,0-9.33,19A8,8,0,0,1,78,152c-1,4.07-.87,9.54,2.92,13.08A10.5,10.5,0,0,1,82,160.41c1.15,3.69,5.5,11.84,17.31,17.66a54.12,54.12,0,0,0,14.06,4.4c2.78,3.41,6.93,4.8,12.59,4.8,5.36,0,9.25-1.39,12.94-4.83a55.34,55.34,0,0,0,14-4.37c11.8-5.82,16.16-14,17.31-17.66a10.64,10.64,0,0,1,1.08,4.65c3.79-3.54,3.92-9,2.92-13.08a8.11,8.11,0,0,1,3.11,3A18.17,18.17,0,0,0,168,136Z"/>
            <path class="cls-13" d="M103.89,138.87c-.33.93-1.45,2.95-1,4.76,13.72-17.89,34.42-16.7,46.43-.45a25.37,25.37,0,0,0-1.23-4.85c2.54-2.1,4.49-2.64,6.77-3.77a87.69,87.69,0,0,0-8.91,3.05c-5.19-5.31-11.18-8.65-19.82-8.65a28.34,28.34,0,0,0-19.81,8.65c-7.21-3.36-14.47-5-21.07-2.13C91.44,134.77,97,134.69,103.89,138.87Z"/>
            <path class="cls-21" d="M168,136a19.33,19.33,0,0,0-12-1.63c8.37,1,16.35,5.95,18.52,14.72-2.58-.91-3.86-3.16-6.44-4.07,2.58,4.07,4.72,8.13,3.86,13.1-1.71-2.71-4.28-4.07-6.43-6.32,1.58,13.33-11.14,24.89-22.59,27.32.34-3,0-6.37-1-6.2-3.38,7.52-11.11,9.74-16,10a16.73,16.73,0,0,1-15.48-9.36,15.35,15.35,0,0,0-.62,5.57c-11.94-2.64-24.13-11.7-27.57-25.48a17.26,17.26,0,0,0-2.15,6.78c-1.61-3.13-1.12-8.69.59-12.76a44,44,0,0,0-5,3.65,27.66,27.66,0,0,1,7.35-14.67A18.25,18.25,0,0,0,74.88,155,8,8,0,0,1,78,152c-1,4.07-.87,9.54,2.92,13.08A10.5,10.5,0,0,1,82,160.41c1.15,3.69,5.5,11.84,17.31,17.66a54.12,54.12,0,0,0,14.06,4.4c3.3,4,8,4.8,12.59,4.8s8.86-1,12.94-4.83a55.34,55.34,0,0,0,14-4.37c11.8-5.82,16.16-14,17.31-17.66a10.64,10.64,0,0,1,1.08,4.65c3.79-3.54,3.92-9,2.92-13.08a8.11,8.11,0,0,1,3.11,3A18.17,18.17,0,0,0,168,136Z"/>
            <path class="cls-17" d="M126,187.51c-6,0-10-1.53-12.74-4.82a54.73,54.73,0,0,1-14-4.4c-12.3-6.07-16.24-14.49-17.24-17.22a12.78,12.78,0,0,0-.77,4l0,.55-.41-.39c-4.34-4-3.65-10.18-3.13-12.71a7,7,0,0,0-2.48,2.54l-.34.71-.16-.77a17.93,17.93,0,0,1,17.92-21.22c4.08,0,8.56,1.16,13.7,3.53a28.72,28.72,0,0,1,19.87-8.6c7.88,0,14,2.66,19.88,8.6,5.14-2.37,9.62-3.53,13.7-3.53a18.59,18.59,0,0,1,8.45,2c6.78,3.42,10.94,11.88,9.46,19.26l-.15.77-.34-.71a7,7,0,0,0-2.48-2.54c.52,2.53,1.21,8.66-3.13,12.71l-.41.39,0-.55a12.78,12.78,0,0,0-.77-4c-1,2.73-4.94,11.15-17.24,17.22a55.89,55.89,0,0,1-14,4.38C135.36,186.06,131.44,187.51,126,187.51ZM82.08,159.82l.16.53c.55,1.78,4,11,17.18,17.51a54.7,54.7,0,0,0,14,4.37l.1,0,.06.07c2.61,3.21,6.54,4.7,12.38,4.7,5.37,0,9.19-1.42,12.76-4.75l0-.06h.08a55,55,0,0,0,14-4.34c13.21-6.52,16.64-15.73,17.19-17.51l.16-.53.31.46a10.1,10.1,0,0,1,1.08,4.21c4.06-4.24,2.91-10.57,2.45-12.45l-.14-.57.53.31a9.55,9.55,0,0,1,2.84,2.44,17.42,17.42,0,0,0-17.53-19.95c-4.05,0-8.51,1.16-13.64,3.56l-.18.08-.13-.13c-5.79-5.93-11.85-8.58-19.63-8.58a28.15,28.15,0,0,0-19.62,8.58l-.13.13-.18-.08c-5.13-2.4-9.6-3.56-13.64-3.56A17.42,17.42,0,0,0,75,154.22a9.43,9.43,0,0,1,2.84-2.44l.53-.31-.14.57c-.46,1.88-1.61,8.21,2.45,12.45a10.1,10.1,0,0,1,1.08-4.21Z"/>
            <path class="cls-25" d="M126.24,148.66c-1.87-.07-22.07-.85-24.18-.85,4.12,10.3,12.79,25.07,24.18,25.07,10.91,0,20.06-14.77,24.18-25.07C148.3,147.81,128.1,148.59,126.24,148.66Z"/>
            <path class="cls-15" d="M110.85,163.49c4.21,5.34,9.43,9.39,15.39,9.39,5.54,0,10.62-3.8,14.82-8.9C132.8,156.77,120.16,157.24,110.85,163.49Z"/>
            <path class="cls-26" d="M115.37,168.28c3.24,2.79,6.89,4.6,10.87,4.6s7.7-1.95,11-4.93C131,163.44,119.63,164,115.37,168.28Z"/>
            <path class="cls-27" d="M133.28,166.17c-6.47-2.26-14.71-1.08-17.91,2.11.34.29.68.57,1,.84C120.82,165.38,127.85,165.63,133.28,166.17Z"/>
            <path class="cls-28" d="M133.59,166.05c-2.66,5.3-9.68,6.54-15.12,4.5a14.91,14.91,0,0,0,7.77,2.33c4,0,7.7-1.95,11-4.93A15,15,0,0,0,133.59,166.05Z"/>
            <path class="cls-29" d="M126.24,173v-.38c3.53,0,7.19-1.53,10.75-4.64a19.49,19.49,0,0,0-10.76-3c-4.38,0-8.47,1.33-10.62,3.32a16.45,16.45,0,0,0,10.63,4.3V173c-3.72,0-7.42-1.5-11-4.58l-.18-.16.17-.18c2.21-2.21,6.33-3.53,11-3.53a19.51,19.51,0,0,1,11.17,3.17l.23.17-.21.19C133.7,171.43,129.94,173,126.24,173Z"/>
            <path class="cls-17" d="M126.24,173.11h0c-13.27,0-22-19.3-24.38-25.21l-.13-.32h.33c2.23,0,24,.85,24.19.85s21.94-.85,24.17-.85h.32l-.12.32C146,159.53,136.79,173.11,126.24,173.11ZM102.38,148c2.52,6.19,11.08,24.62,23.86,24.62h0c10.25,0,19.22-13.19,23.86-24.62-3.46.06-23.64.84-23.85.84S105.84,148.1,102.38,148Z"/>
            <path class="cls-13" d="M118.7,149.37c.59,4.2,3.7,12.92,4.19,13.28s5.77.73,6.81,0,4.43-9.21,4.24-12.16C129.65,149.37,119.09,148.54,118.7,149.37Z"/>
            <path class="cls-14" d="M133.94,150.49c-.78-.2-1.76-.39-2.84-.57-.12,3.53-1,11-2.34,11-1.11-.1-1.58-5-2-7.63-.47,3-1.87,7.57-4.57,8.05a5.21,5.21,0,0,0,.66,1.34c.49.37,5.77.73,6.81,0S134.13,153.44,133.94,150.49Z"/>
            <path class="cls-30" d="M126.4,163H126c.35-2.76.83-10.51.09-12.35l.34-.15C127.3,152.62,126.71,160.71,126.4,163Z"/>
            <path class="cls-30" d="M126.79,163.3h0a12.76,12.76,0,0,1-4-.46c-.65-.48-3.72-9.42-4.28-13.44v-.07l0-.07c.07-.16.22-.46,2.59-.46A67.06,67.06,0,0,1,134,150.27l.15,0v.17c.19,2.91-3.2,11.57-4.34,12.36A6.78,6.78,0,0,1,126.79,163.3Zm-7.86-13.85c.63,4.24,3.62,12.56,4.09,13a13.7,13.7,0,0,0,3.77.38h0a6.45,6.45,0,0,0,2.79-.38c.87-.61,4.22-8.7,4.15-11.8a66.76,66.76,0,0,0-12.63-1.42A6.31,6.31,0,0,0,118.93,149.45Z"/>
            <path class="cls-20" d="M100.7,146.15c1.92,6.12,13.86,13.55,25.69,4.41,12.72,8.82,24.46,1.76,26.93-4.41,0,0-20.29-6.88-27-6.88C119.87,139.27,100.7,146.15,100.7,146.15Z"/>
            <path class="cls-21" d="M126.89,143.63c-1.29,4.06-5.15,6.32-8.58,7.22-5.78,1.22-12.94.25-16.21-5.2l-1.4.5c1.92,6.12,13.86,13.55,25.69,4.41,12.72,8.82,24.46,1.76,26.93-4.41l-1.16-.39C144.92,151.83,132.81,152,126.89,143.63Z"/>
            <path class="cls-17" d="M114.78,155.06a16.78,16.78,0,0,1-5.33-.87c-4.31-1.45-7.91-4.66-9-8l.4-.14c.84,2.65,3.84,6,8.68,7.68,3.2,1.08,9.62,2.07,16.68-3.38l.12-.1.13.09c5.65,3.92,11.86,5.08,17.49,3.28,4.24-1.36,7.82-4.33,9.12-7.59l.39.18c-1.34,3.37-5,6.45-9.39,7.84-5.71,1.83-12,.68-17.72-3.25A18.88,18.88,0,0,1,114.78,155.06Z"/>
            <path class="cls-17" d="M126.58,150.61l-.37-.1a33.85,33.85,0,0,0,.41-8.25l.39,0A34,34,0,0,1,126.58,150.61Z"/>
            <path class="cls-17" d="M156.76,149.58a17.38,17.38,0,0,0-3.71-3.16,14.64,14.64,0,0,0-4.69-1.42,9.88,9.88,0,0,1,5,.88A11,11,0,0,1,156.76,149.58Z"/>
            <path class="cls-17" d="M97.14,149.58a10.89,10.89,0,0,1,3.42-3.7,9.83,9.83,0,0,1,5-.88,14.64,14.64,0,0,0-4.69,1.42A16.92,16.92,0,0,0,97.14,149.58Z"/>
            <path class="cls-31" d="M135.33,133.87c.14-3-4.78-5-8.5-4.82-3.34,0-8.64,1.82-8.5,4.82s6,8.38,8.5,8.38C129.82,142.25,135.19,136.89,135.33,133.87Z"/>
            <path class="cls-32" d="M135.32,133.59c-.17-2.84-4.88-4.68-8.49-4.54-3.13,0-8,1.6-8.46,4.27C123,129.66,131.32,129,135.32,133.59Z"/>
            <path class="cls-33" d="M118.36,134.09c.4,3.06,6,8.16,8.47,8.16,2.94,0,8.17-5.18,8.48-8.22C130.78,139.3,123.38,139,118.36,134.09Z"/>
            <path class="cls-24" d="M126.83,142.48c-2.64,0-8.56-5.4-8.72-8.6a3,3,0,0,1,.88-2.2c1.61-1.79,5.25-2.85,7.83-2.85h.4c2.91,0,5.95,1.12,7.4,2.72a3.22,3.22,0,0,1,.93,2.34C135.39,137.1,129.94,142.48,126.83,142.48Zm.39-13.21h-.38c-2.51,0-6,1-7.54,2.71a2.6,2.6,0,0,0-.76,1.87c.14,2.89,5.93,8.17,8.29,8.17,2.81,0,8.15-5.27,8.29-8.17a2.79,2.79,0,0,0-.81-2C133,130.35,130,129.27,127.22,129.27Z"/>
            <path class="cls-17" d="M104.16,140.49a23,23,0,0,1,2.6-3.69l.35.36C106.13,138.07,104.18,140.46,104.16,140.49Z"/>
            <path class="cls-17" d="M148.07,140.49s-2-2.43-2.95-3.34l.36-.35A23.4,23.4,0,0,1,148.07,140.49Z"/>
          </g>
        </g>
      </g>
    </g>
  </g>
</svg>
