<svg xmlns="http://www.w3.org/2000/svg" width="193.36" height="219.34" viewBox="0 0 193.36 219.34">
  <defs>
    <style>
      .cls-1 {
        isolation: isolate;
      }

      .cls-2 {
        fill: #ff0;
      }

      .cls-3, .cls-4, .cls-5 {
        fill: #312f30;
      }

      .cls-22, .cls-26, .cls-4 {
        opacity: 0.4;
      }

      .cls-13, .cls-14, .cls-15, .cls-16, .cls-26, .cls-4 {
        mix-blend-mode: multiply;
      }

      .cls-17, .cls-22, .cls-5 {
        mix-blend-mode: screen;
      }

      .cls-6 {
        fill: #555657;
      }

      .cls-7 {
        fill: #373537;
      }

      .cls-8 {
        fill: #2b2829;
      }

      .cls-9 {
        fill: #3d231b;
      }

      .cls-10 {
        fill: #871b25;
      }

      .cls-11 {
        fill: #461318;
      }

      .cls-12, .cls-13 {
        fill: #4a2c22;
      }

      .cls-15 {
        fill: #492c22;
      }

      .cls-15, .cls-16 {
        opacity: 0.57;
      }

      .cls-16 {
        fill: #211411;
      }

      .cls-17 {
        fill: #472c23;
      }

      .cls-18 {
        fill: #1a1517;
      }

      .cls-19 {
        fill: #2d292d;
      }

      .cls-20 {
        opacity: 0.1;
      }

      .cls-21 {
        fill: #73695f;
      }

      .cls-22 {
        fill: #747578;
      }

      .cls-23 {
        opacity: 0.7;
      }

      .cls-24 {
        fill: #f3f3f3;
      }

      .cls-25 {
        fill: #341d10;
        opacity: 0.3;
      }

      .cls-27 {
        fill: #c8c6c6;
      }
    </style>
  </defs>
  <g class="cls-1">
    <g id="Layer_1" data-name="Layer 1">
      <g>
        <path class="cls-2" d="M86,192.55c.74-2.81,1.55-5.7,2.42-8.77s1.84-6.52,2.71-9.83a6.08,6.08,0,0,0,.54-2.14c.13-.51.25-1,.37-1.51,8.29,6,14.43,9.39,19.52,10.68l.46.13.73.15.13,0,.49.09c.55.09,1.12.16,1.66.2l.6,0,.78,0H117l.49,0a15.59,15.59,0,0,0,1.74-.22c.15,0,.29-.06.44-.09q.69-.15,1.35-.36l.49-.17a12.61,12.61,0,0,0,1.59-.68h0c8.83-4.23,10.9-15.59,11-32.58q1.62.74,3.42,1.5a6,6,0,0,0,2,.85c3.16,1.31,6.36,2.56,9.47,3.77s5.78,2.26,8.46,3.37c9.16,3.78,15,5.39,19.68,5.39,4.1,0,13.64-1.55,14-15.91a13.48,13.48,0,0,0-.06-1.53,6,6,0,0,0-.9-4.56l-.27-.38c-.14-.39-.3-.79-.49-1.23-.06-.13-.11-.27-.17-.39-.24-.54-.49-1.08-.76-1.61l-.2-.37c-.22-.43-.47-.87-.72-1.32l-.31-.53c-.27-.46-.56-.93-.89-1.45l-.2-.31c-.31-.48-.63-1-1-1.46l-.43-.63c-.26-.36-.52-.73-.8-1.1l-.43-.59c-.37-.5-.75-1-1.13-1.49l-.46-.58s-.63-.8-.89-1.11l-.83-1A191.2,191.2,0,0,0,167,110.75a7.14,7.14,0,0,0,.62-2.09,6.14,6.14,0,0,0-.89-4.12,5.68,5.68,0,0,0-.59-.8,6.83,6.83,0,0,0-1.05-1l-.26-.18-.52-.31a7.21,7.21,0,0,0-1-.45,7.89,7.89,0,0,0-2.71-.49,7.46,7.46,0,0,0-2.95.61c-4.5-4.09-9.47-8.45-15.1-13.22a181.25,181.25,0,0,0-26.08-18c.28-.55.62-1.09,1-1.7a26.39,26.39,0,0,0,2-3.65l.24-.37c.29-.44.57-.87.83-1.31l1-.48c.3-.13.62-.27,1-.45l.62-.29a12.33,12.33,0,0,0,3.58-2.61l.14-.14,1.18-.46a11.69,11.69,0,0,0,4.72-2.86,14.83,14.83,0,0,1,3.08-.68,7.35,7.35,0,0,0,2.43.42c1.56,0,5.35-.56,6.79-5.77l.15-.48s.15-.52.15-.52.08-.29.13-.52a2.73,2.73,0,0,0,.06-.31c.05-.23.08-.47.1-.61s0-.38,0-.57,0-.62,0-.91a1.94,1.94,0,0,0,0-.24,6.5,6.5,0,0,0-.3-1.39c0-.17-.11-.34-.17-.5a6.73,6.73,0,0,0-.38-.76,7.27,7.27,0,0,0-.6-.92l0-.06-.25-.29-.09-.09a6.72,6.72,0,0,0-2.13-1.52,6.9,6.9,0,0,0-2.89-.63,8.24,8.24,0,0,0-5.28,2.13l-.06.05a11.89,11.89,0,0,1-3.59.87c-.54.08-1.09.16-1.66.27a6.23,6.23,0,0,0-.62-.15l-.25,0a8.09,8.09,0,0,0-1.2-.1,9.59,9.59,0,0,0-5.73,2.1l-.08.05-.64.5-.92.77a16,16,0,0,1-3.88,2c-1.06.44-2.27,1-3.5,1.6a9.87,9.87,0,0,0-1.55,1l-.43.37a10.07,10.07,0,0,0-.78.81,6.26,6.26,0,0,0-.45.57h0l-.31.22a8.24,8.24,0,0,0-1,.92,14.88,14.88,0,0,0-3.46,7c-.16.61-.33,1.24-.49,1.65-.44-.72-.91-1.44-1.4-2.15-.14-.21-.29-.41-.44-.62.06-.25.11-.51.15-.77a13.83,13.83,0,0,0,.16-2v-.36c0-1.38,0-2.74,0-3.92.09-3.53.09-10.12-.3-14.38a16.53,16.53,0,0,0-.39-3.2,2.45,2.45,0,0,1,0-.27,8.81,8.81,0,0,0-.92-4.82,19.7,19.7,0,0,0-2.2-4c-.21-.35-.48-.77-.79-1.21l-.65-.88a12.08,12.08,0,0,1-1.09-1.62c-.17-.33-.34-.65-.51-.94a10.42,10.42,0,0,1,2.34-3.73,7,7,0,0,0,2.68-5.69c-.11-4.33-4-7.18-6-8.54l-.22-.16A6.24,6.24,0,0,0,91.8,2.6l-.18-.06-.21-.07a7.92,7.92,0,0,0-.78-.18l-.19,0a6,6,0,0,0-.94-.07,6.38,6.38,0,0,0-2.26.42,5.94,5.94,0,0,0-2.07,1.3A6.12,6.12,0,0,0,83.33,9a9.3,9.3,0,0,0,.63,2.5,17.36,17.36,0,0,0-1.87,4c-.09.3-.17.61-.23.85l-.2.83c-.07.3-.14.62-.2.85,0,0,0,.08,0,.12l-.09.28a8,8,0,0,0-1.07,1.73,5.05,5.05,0,0,0-.24.53,7.11,7.11,0,0,0-.29.94,8.46,8.46,0,0,0-.17.85c0,.3-.07.59-.09.88,0,.12,0,.24,0,.36a3.91,3.91,0,0,0,0,.48v.12a8.51,8.51,0,0,0,0,1c0,.25,0,.5.08.69a6.48,6.48,0,0,0,.22,1c0,.18.11.36.18.55s.16.42.24.61l.14.28c.09.17.19.37.32.58s.24.39.37.58a17.65,17.65,0,0,0-3.6-1,31,31,0,0,0-4.67-.36,33.24,33.24,0,0,0-3.84.23l-.45.06c0-.16,0-.32,0-.48l0-.25a6.16,6.16,0,0,0-1.45-3.28,1.34,1.34,0,0,0-.11-.14,6.83,6.83,0,0,0-1.22-1.05A6.15,6.15,0,0,0,64,22.63a8.26,8.26,0,0,0-2.41-.36,6.78,6.78,0,0,0-4.07,1.3,7.29,7.29,0,0,0-1,1l-.38.37a6.81,6.81,0,0,0-1.92,1.84,6.37,6.37,0,0,0-.67.9,6,6,0,0,0-.84,1.4,4.09,4.09,0,0,0-.29.48,7.77,7.77,0,0,0-.35.71,6.67,6.67,0,0,0-.53,1.15,6.86,6.86,0,0,0-.4.76l-.25.14c-.23.1-.45.21-.67.33h0a8.17,8.17,0,0,0-.84-.14,6.43,6.43,0,0,0-1.23-.27c-.26-.06-.54-.12-.82-.16L46.76,32a6.78,6.78,0,0,0-1.49-.17h-.08c-.21,0-.43,0-.64,0a5.06,5.06,0,0,0-.55,0h-.23a6.84,6.84,0,0,0-2.36.43l-.53.08a6.33,6.33,0,0,0-1.38.24A6.72,6.72,0,0,0,36,35a7.74,7.74,0,0,0-1.16,2.12,6.23,6.23,0,0,0-.35,1.65,6.55,6.55,0,0,0,.13,1.73,6.15,6.15,0,0,0,1.76,3.21l.19.18a5.46,5.46,0,0,0,.59.46l-.17.18a30.46,30.46,0,0,0-4.92,7.14,19,19,0,0,0-1,2.58c-.1.3-.19.6-.27.89-.12-.38-.25-.76-.41-1.16a5.84,5.84,0,0,0-.27-.6,2.56,2.56,0,0,0-.11-.24,6.35,6.35,0,0,0-.36-.6c-.1-.16-.21-.31-.29-.42a8.54,8.54,0,0,0-.61-.75,6.63,6.63,0,0,0-.56-.53,7.5,7.5,0,0,0-.87-.67l-.47-.29-.32-.16a7.65,7.65,0,0,0-.76-.47c-.31-.17-.58-.29-.79-.38a6.63,6.63,0,0,0-.8-.3,5.47,5.47,0,0,0-.7-.16,7.66,7.66,0,0,0-1.71-.19h-.3l-.33-.13c-.29-.11-.58-.24-.87-.37l-.71-.32-.86-.34a16.77,16.77,0,0,0-4.35-.94,9.4,9.4,0,0,0-1.66-2,6.09,6.09,0,0,0-4.15-1.63l-.53,0-.24,0a6.42,6.42,0,0,0-5.51,6.38v.21c-.07,3.39.18,6.86,2.56,9.29a7,7,0,0,0,5,2.12,7.25,7.25,0,0,0,1.79-.22,4.35,4.35,0,0,1,1.1-.1,12.42,12.42,0,0,1,3.29.48c.13.32.28.64.45,1A12.19,12.19,0,0,1,17,63.48c.1.35.21.7.32,1.06s.33,1,.49,1.36a19.53,19.53,0,0,0,1.86,4.16A8.82,8.82,0,0,0,23,73.71l.23.14a15.92,15.92,0,0,0,2.31,2.24C28.71,79,34,83,36.83,85c.93.72,2,1.55,3.16,2.35l.15.1a12.67,12.67,0,0,0,1.65,1.09c.14.49.3,1,.46,1.47s.41,1.2.63,1.79l-.73-.3A16.45,16.45,0,0,0,35.84,90a10.68,10.68,0,0,0-1.3.08,8.22,8.22,0,0,0-1.41.29l-.34.11h-.21a3.1,3.1,0,0,0-.43,0A7.82,7.82,0,0,0,31,90.6c-.22,0-.44.08-.61.13a9.26,9.26,0,0,0-1.77.62c-1.27.59-2.4,1.25-3.39,1.83a15.6,15.6,0,0,1-4,1.86l-.32.08c-.51.11-1.11.25-1.71.44-.28.08-.56.18-.84.28l-.26.09a10.49,10.49,0,0,0-2.49,1.39l-.27.21a8.44,8.44,0,0,0-1.1,1.13c-.15.18-.3.38-.43.56l-.27.44-.16.29a7,7,0,0,0-.34.74c-.42.39-.82.78-1.21,1.16A11.8,11.8,0,0,1,9,104.19H8.94c-4.26,1-5.69,3.62-6.13,5.62a6.78,6.78,0,0,0-.06,2.69l.06.3c0,.09,0,.19.07.29a6.91,6.91,0,0,0,.35,1,7.71,7.71,0,0,0,.44.86h0a7.41,7.41,0,0,0,1.09,1.35l.25.22a6,6,0,0,0,.72.56c.14.1.33.22.47.3a5,5,0,0,0,.48.26c.12.07.24.12.43.21l.34.15.38.14.55.2.13,0a8.75,8.75,0,0,0,3.32.73,6.76,6.76,0,0,0,6.51-4.87,14.34,14.34,0,0,1,2.39-2,11,11,0,0,0,5.14-2.06c.33-.19.69-.41,1.07-.66l.2,0a12.25,12.25,0,0,0,4.28-1.29l.49-.26.08,0c.35-.17.65-.34.94-.5l1-.49c.51.06,1,.09,1.55.13l.44,0a26,26,0,0,0,4.12.61c.71.07,1.35.13,2,.23a182.55,182.55,0,0,0-1.4,31.64c.41,7.4.89,14,1.44,20.08l-1,.4a7.72,7.72,0,0,0-4.35,4.94c-.07.27-.14.54-.19.85a3.18,3.18,0,0,0-.06.43,2.56,2.56,0,0,0,0,.39,1.28,1.28,0,0,0,0,.19,6.48,6.48,0,0,0,.15,1.52,4.76,4.76,0,0,0,.27.91,6.25,6.25,0,0,0,2.77,3.21,7.68,7.68,0,0,0,3.74.93h.2c.9,6.86,2,12.87,3.14,17.93l.32,1.31c.09.37.18.74.28,1.11l.25.95c.16.6.32,1.19.49,1.79l.25.8c.11.39.23.77.35,1.15l.27.81c.16.49.33,1,.5,1.44l.27.73c.17.46.35.92.53,1.35l.27.65c.19.43.37.84.56,1.24,0,0,.17.37.22.46.26.55.53,1.07.8,1.55l.27.48c.21.36.42.71.64,1.06l.15.44a6,6,0,0,0,3.09,3.47,12.15,12.15,0,0,0,1.18,1c3.83,2.78,7.33,4.13,10.68,4.13C78.69,217.15,82.76,205,86,192.55Z"/>
        <g>
          <g>
            <g>
              <g>
                <g>
                  <g>
                    <g>
                      <path class="cls-3" d="M52.52,159.07c-.91-.36-1.55.61-2,1.59a12.36,12.36,0,0,1-3.9,3.5c-1.05.51-2.15.83-3.19,1.29a1.68,1.68,0,0,0-1,1.18c0,.14-.12.44.06.54,1.1.62,3.76-.55,4.73-1.11a11,11,0,0,0,2.4-1.28,35.88,35.88,0,0,0,2.66-3.65C52.57,160.76,53.37,159.4,52.52,159.07Z"/>
                      <path class="cls-3" d="M60.21,145c-.44-.71.69-.13-.26.07a2.36,2.36,0,0,0-2.58,1.21,27.18,27.18,0,0,0-1.68,3.21,31.87,31.87,0,0,1-2.71,4.4c-1.25,1.59-3.11,3.26-3.23,5.37-.09,1.57.13,2.73,1.72,2.34s2.64-4.4,3.31-5.58a92.52,92.52,0,0,1,5.12-7.84C60.69,147.14,61,146.32,60.21,145Z"/>
                      <path class="cls-3" d="M58.42,123.36c-.34-.1-.57.56-.44.88-1,.31-1.95,1-1.95,2.08,0,3.2.39,6.42.49,9.62,0,1.27.14,2.53.22,3.79.12,1.86-.22,3.67-.17,5.51,0,1.59,2.18,4.42,3,3,2.15-3.77.24-8.72.06-12.05-.15-2.88,1-4.91.34-7.72C59.46,126.27,60.72,124.06,58.42,123.36Z"/>
                      <path class="cls-3" d="M69.05,112.55c0-.09-.07-.14-.16,0a54.15,54.15,0,0,1-6.42,5.78,36.93,36.93,0,0,1-3.61,2.58,5.67,5.67,0,0,0-1.94,1.73c-1.25,2,.27,5.2,2.54,3.86,1.7-1,2.76-2.91,3.8-4.53a12.94,12.94,0,0,1,3.48-3.63,9.33,9.33,0,0,0,2.28-2c1-1.41,2.56-1.48,2-3.07A1.21,1.21,0,0,0,69.05,112.55Z"/>
                    </g>
                    <path class="cls-4" d="M69.05,112.55c0-.09-.07-.14-.16,0l-1.15,1.19c.39,1.19-.65,1.43-1.31,2.68-1.08,2.08-3.08,3.49-4.7,5.11a25.82,25.82,0,0,0-2.17,4.15c-.42.91.31,2-.74,1.79a3.61,3.61,0,0,1-2.46-2,4.27,4.27,0,0,0,.27.67,4.42,4.42,0,0,0,2,1.67c.92.54.75,1.26.8,2.35.06,1.48-1,7.09-.67,8.32.35,1.46,1.67,5.78,1.21,6.67-.76,1.46-1.69,2.34-2.91,1.68h0a9.17,9.17,0,0,0-.46.88,2.77,2.77,0,0,0,2.53,1.2c.15,0-1.38-1.47-1.43-1.31-1.22,3.89-3.11,8-4.67,11.68a.21.21,0,0,1-.31.11l-.48-.39a11.51,11.51,0,0,0,.15,1.66.21.21,0,0,1-.22.25,3.29,3.29,0,0,1-2.34-.85,2.81,2.81,0,0,0,.44,1c-.26.31-.52.62-.8.91.28,1.61-1.48,3-2.73,3.67a7.93,7.93,0,0,1-4.35,1.3.27.27,0,0,0,.11.26c1.1.62,3.76-.55,4.73-1.11a11,11,0,0,0,2.4-1.28,19.24,19.24,0,0,0,2-2.76c.31.07,3.26-6.36,3.93-7.53,1.48-2.6,1.88-2.39,4.41-6.51a2.49,2.49,0,0,0,.48-2.52c1.21-2.59-2.08-8.14-.32-14.57a43.83,43.83,0,0,0-.29-4.73c1.29-1.07,5.08-6.74,6.51-7.77.8-.58,5.21-3.58,4.68-5.17A1.21,1.21,0,0,0,69.05,112.55Z"/>
                    <path class="cls-5" d="M52.61,155c1.57-2.14,4-4.55,4-7.38-.31.64-.59,1.3-.92,1.9a36.8,36.8,0,0,1-3.22,4.53c-1.26,1.6-2.6,3.13-2.72,5.24a2.74,2.74,0,0,0,.4,1.56C49.69,158.8,51.47,156.58,52.61,155Z"/>
                    <path class="cls-5" d="M58.13,146.82c-1.56-3.08.25-6.36-.14-9.63a71.42,71.42,0,0,0-1.86-7.74c.13,2.17.32,4.33.39,6.49,0,1.27.14,2.53.22,3.79.12,1.81-.2,3.58-.17,5.37A3,3,0,0,0,58.13,146.82Z"/>
                  </g>
                  <path class="cls-5" d="M56.65,123.42a5.72,5.72,0,0,0,.85,2c.2-2.93,2.47-4.6,4.74-6.31,1.74-1.31,4.17-2.92,5.12-5.06a56.51,56.51,0,0,1-4.89,4.22,36.93,36.93,0,0,1-3.61,2.58,5.67,5.67,0,0,0-1.94,1.73A1.9,1.9,0,0,0,56.65,123.42Z"/>
                  <path class="cls-5" d="M49.35,162.07a9.53,9.53,0,0,1-2.68,2.09c-1.05.51-2.15.83-3.19,1.29a1.68,1.68,0,0,0-1,1.18,1,1,0,0,0,0,.23C44,164.6,48.44,164.87,49.35,162.07Z"/>
                </g>
                <g>
                  <g>
                    <path class="cls-3" d="M20.36,103.43c-.82-.35-1.9.51-2.58,1.11-2.2,1.9-4,4.35-6.88,5.34-.68.24-2,.32-2.23,1.23s1.22,1.33,1.91,1.6c.89.36,1.73.76,2.06-.38.76-2.62,4.19-4.63,6.28-6.28.86-.69,2.52-.43,2.6-1.89C21.56,103.44,21,103.35,20.36,103.43Z"/>
                    <path class="cls-3" d="M33.47,96.53a.17.17,0,0,0-.19,0,2.73,2.73,0,0,0-2.1.2c-2.94,1.38-5.25,3.31-8.49,4.1-1.19.28-3.77.69-4.1,2.24s-.88,1.78.29,2.71c1.65,1.31,3.8-1,5.51-1.89,1.21-.63,3.71-.86,4.94-1.47a19,19,0,0,1,3.58-1.78C36.52,99.62,37,97.46,33.47,96.53Z"/>
                    <path class="cls-3" d="M49.71,100.92c-1.74-2-4.53-2.42-7-2.89s-4.9-2.33-7.53-2a3.47,3.47,0,0,0-2.93,3c0,.89.32.9.91,1.58.07.24,1.58-.27,2.69.18,2.62,1.07,4.94.75,7.7,1.33,1.45.31,5.24,2.72,6.53,1.4S50.71,102,49.71,100.92Z"/>
                    <path class="cls-3" d="M65.59,102.71c-1.43-1.63-3.87-2.19-5.93-2.54-2.47-.42-4.86.44-7.29-.38-1.41-.47-3.07-.46-3.72,1.13-.53,1.32.46,1.1,1.17,2.17,1.23,1.85,3.6.78,5.3.34,2.26-.58,4.74,1.16,7.11,1.28.91.32,2.16.6,2.86.12S66.16,103.36,65.59,102.71Z"/>
                  </g>
                  <path class="cls-4" d="M65.59,102.71c-1.43-1.63-3.87-2.19-5.93-2.54s-3.81.12-5.7,0c.83.8,1.67,1.59,2.56,2.34.12.1.13.36-.07.37-.65.06-6,.78-6.63.26a2.6,2.6,0,0,1-.56-2.73,3,3,0,0,0-1.15,2.11c0,.45-7.08-1.8-8.44-2-1.8-.21-4.19.26-5.74-.17-1.24-.35-.59-2.85-.08-3.78l-.1.06-.28-.08a.17.17,0,0,0-.19,0,3.1,3.1,0,0,0-.51-.11,4.36,4.36,0,0,0-1.21,3.75.24.24,0,0,1-.11.23,3.37,3.37,0,0,1-.85.17c.4.36-1.73,1.09-2.16.7-.69-.62-2.33-.51-7.79,4.14-1,.83-1.78-1.58-1.91-2.73a1.32,1.32,0,0,0-.15.39,2.86,2.86,0,0,0-.06.82,8.2,8.2,0,0,0-.75.6,2.29,2.29,0,0,1-.37,1.33,6.71,6.71,0,0,1-1.54,1.2,11.59,11.59,0,0,0-1.94,1.69c-.82.95-1.49,2.72-2.82,3.09a3.59,3.59,0,0,1-2.44-.32c.19.7,1.33,1,1.91,1.18.89.36,1.73.76,2.06-.38.76-2.62,4.19-4.63,6.28-6.28a1.52,1.52,0,0,1,.41-.24c.31.37.6,1.09,4.86-1.7,1.14-.75,2.88-.44,4.35-1.23C32,101,33,100.66,33.2,100.55c.48.36,1.76.38,3.45.51,13,1,10.4,4,13.47,2.4,1.34,1.11,3.77.33,5.27-.06,2.26-.58,4.47,1.19,6.84,1.31.91.32,2.16.6,2.86.12S66.16,103.36,65.59,102.71Z"/>
                  <path class="cls-5" d="M8.79,111.69c.66-.75,2-.85,2.85-1.34a28.12,28.12,0,0,0,4.45-3.63,6.23,6.23,0,0,0,1.55-1.65,2.82,2.82,0,0,0,.23-.61.34.34,0,0,0-.09.08c-2.2,1.9-4,4.35-6.88,5.34-.68.24-2,.32-2.23,1.23a.8.8,0,0,0,.09.62Z"/>
                  <path class="cls-5" d="M21.13,101.84a22.94,22.94,0,0,0,4.81-1.9,34.65,34.65,0,0,0,4.36-2.16,11.22,11.22,0,0,1,2.28-1.32,2.92,2.92,0,0,0-1.4.32c-2.94,1.38-5.25,3.31-8.49,4.1-1.18.28-3.73.68-4.09,2.21A5.49,5.49,0,0,1,21.13,101.84Z"/>
                  <path class="cls-5" d="M35.81,96.5a15.43,15.43,0,0,0,4.45,1.25A34,34,0,0,1,44.8,99a10.06,10.06,0,0,0,2.58.82,2.65,2.65,0,0,0,.89-.11A17,17,0,0,0,42.75,98c-2.54-.49-4.9-2.33-7.53-2a3.29,3.29,0,0,0-.43.09A3.68,3.68,0,0,1,35.81,96.5Z"/>
                  <path class="cls-5" d="M49.7,99.77a3.59,3.59,0,0,0-.88,2.21A3.94,3.94,0,0,1,53,100.5a9.33,9.33,0,0,0,3,.35,8.72,8.72,0,0,0,2.3-.8c-2,0-3.93.41-5.9-.26A3.62,3.62,0,0,0,49.7,99.77Z"/>
                </g>
                <g>
                  <g>
                    <path class="cls-3" d="M43.37,74.63c-.06,0-.11,0-.14.07a21.17,21.17,0,0,0-3.08-1.58c-3.32-1.43-6.41-2.36-9-5.33-.94-1.06-3.14-1.9-3.88-.49-1,1.92,1.79,3.89,3.05,4.87,2.93,2.29,5.81,4.65,8.74,6.93,1.44,1.13,2.89,2.28,4.39,3.32.82.57,2,1.48,2.92,1.32,1.54-.25,2.45-1.87,2.18-3.65C48.06,77.23,45.69,75.59,43.37,74.63Z"/>
                    <path class="cls-3" d="M21.58,54.24c-1.74.14-3.45-1-5-1.54s-3.39-.56-5.12-.86S9.74,49.56,8.58,48.5c-.19-.18-.37.26-.37.39,0,.88-.34,6.15,1.9,5.58a16.25,16.25,0,0,1,10.32,1.59,0,0,0,0,0,0,0c1.14,1.51,2.58,1.44,3.25-.45,0-.13.09-.34,0-.45A2.52,2.52,0,0,0,21.58,54.24Z"/>
                    <path class="cls-3" d="M21.62,55c-.08,0-.14.15-.16.29a2.3,2.3,0,0,0-.41.71c-.25.86.34,2.19.75,3a24.3,24.3,0,0,1,1.29,3.77,29.9,29.9,0,0,0,1.32,3.17c.77,1.7,1.05,2.79,2.85,3,3,.29-.08-4.51-.78-6.27-.83-2.08-1.15-4.26-2-6.31A2.19,2.19,0,0,0,21.62,55Z"/>
                  </g>
                  <path class="cls-4" d="M43.37,74.63a2.15,2.15,0,0,1,.78,1.4c.18,1.62-1.74,2.38-3.18,2.08.53.47,1.12.86,1.65,1.34.17.15,0,.38-.22.33a14.84,14.84,0,0,1-3.86-2.16c-1.61-1-2.47-2.18-4.11-3.11-1.48-.86-1.74-1.67-5.16-4.44-.09-.07-1.91-.53-1.79-.55,1.21-.26,1.21-1.08,1.09-2l-.21-.15a6.53,6.53,0,0,0-.48-1.62c-.15.88-.18,2.34-.95,2.28-1.54-.13-2-1.88-2.34-3.09-.42-1.52-.57-3.08-1.11-4.57-.41-1.14-1.65-2-1.6-3.19.08-2.08,1.34-2,2.75-1.29A2,2,0,0,0,23.45,55a2.68,2.68,0,0,0-1.05-.62c-.74,0-1.4.28-2.18.39a3.8,3.8,0,0,1-2-.26,14.86,14.86,0,0,0-6.15-1c-1.16.08-2.38.09-3.11-1s-.19-2.65-.73-3.81a.58.58,0,0,0,0,.2c0,.88-.34,6.15,1.9,5.58a16.25,16.25,0,0,1,10.32,1.59,0,0,0,0,0,0,0l0,0s-.11.11-.07.13c.81.61,1.27,2.41,1.69,3.26A25.64,25.64,0,0,1,23.54,64c.28,1.13,2.08,5.4,3.72,4.93-.11,1.63,13.23,11.49,14.82,12.42.88.52,2.83,2.89,4.71,2.33,1.69-.5,2-2.27,1.78-4C48.34,77.26,45.42,75.49,43.37,74.63Z"/>
                  <path class="cls-5" d="M8.47,48.46c.55,1.33,1.1,2.85,2.27,3.61s2.49.7,3.79,1c2.25.52,4.55,1.61,6.84,1.18-1.67,0-3.3-1-4.83-1.55s-3.39-.56-5.12-.86S9.74,49.56,8.58,48.5A.14.14,0,0,0,8.47,48.46Z"/>
                  <path class="cls-5" d="M23.54,55a15.76,15.76,0,0,1,1.63,4.76,19.58,19.58,0,0,0,3,6.78c-.43-1.4-1.4-3-1.72-3.87-.77-2.11-.86-4.41-1.68-6.47A1.93,1.93,0,0,0,23.54,55Z"/>
                  <path class="cls-5" d="M32,70.76c1.36.74,2.82,1.54,4.25,2.14a13,13,0,0,0,4.95.73h.25a22.91,22.91,0,0,0-2.91-1.16c-3.43-1.14-6.66-1.83-9.32-4.32A6,6,0,0,0,32,70.76Z"/>
                </g>
              </g>
              <g>
                <g>
                  <g>
                    <g>
                      <path class="cls-3" d="M151,112a36,36,0,0,0,4.52.08A11.22,11.22,0,0,0,158,111c1-.43,3.56-1.86,3.74-3.1,0-.2-.26-.33-.4-.38a1.66,1.66,0,0,0-1.57.13c-1,.55-1.92,1.24-3,1.76a12.18,12.18,0,0,1-5.14,1c-1-.27-2.18-.35-2.45.59S150.52,112,151,112Z"/>
                      <path class="cls-3" d="M136.1,110.31a91.39,91.39,0,0,1,9.34.65c1.34.17,5.1,1.83,6.45.73s.48-1.92-.83-2.8c-1.76-1.17-4.21-.7-6.24-.65a31.84,31.84,0,0,1-5.14-.5,28.91,28.91,0,0,0-3.57-.6,2.37,2.37,0,0,0-2.52,1.34c-.73.63-.52-.62-.21.16C133.92,110,134.76,110.28,136.1,110.31Z"/>
                      <path class="cls-3" d="M120.28,98.43c1.84,2.22,4.16,2.53,6.37,4.39,2.54,2.15,5.33,6.66,9.64,7.23,1.65.21.68-3.19-.56-4.19-1.44-1.15-3.09-2-4.5-3.19-1-.82-1.9-1.67-2.89-2.46-2.49-2-4.82-4.26-7.38-6.19a2.34,2.34,0,0,0-2.83.3c-.18-.3-.85-.51-1-.19C116.34,96.39,118.85,96.72,120.28,98.43Z"/>
                      <path class="cls-3" d="M101.46,98.09c1,1.38,2,.16,3.67.23a8.93,8.93,0,0,0,3-.6,13,13,0,0,1,5-.59c1.92.15,4.08.45,5.91-.3,2.44-1,.78-4.15-1.55-4.35a5.65,5.65,0,0,0-2.55.5,36.57,36.57,0,0,1-4.24,1.33,54.25,54.25,0,0,1-8.48,1.63c-.13,0-.12.08-.06.15A1.2,1.2,0,0,0,101.46,98.09Z"/>
                    </g>
                    <path class="cls-4" d="M102.13,96.09c-.06-.07-.07-.14.06-.15l1.65-.2c.71,1,1.53.35,2.92.58,2.31.38,4.64-.36,6.92-.67a26.09,26.09,0,0,1,4.61.77c1,.22,1.4,1.44,1.88.49a3.65,3.65,0,0,0-.11-3.17,4.23,4.23,0,0,1,.37.62,4.54,4.54,0,0,1,.14,2.58c-.13,1.07.55,1.37,1.39,2.06,1.15.94,6.24,3.52,7,4.49,1,1.16,3.6,4.82,4.59,5,1.62.27,2.89.06,3.09-1.31h0c.32,0,.65.09,1,.16a2.77,2.77,0,0,1-.56,2.75,4.8,4.8,0,0,1-.18-1.93c3.83,1.37,8.23,2.32,12.13,3.32.11,0,.28,0,.27-.18s0-.41,0-.62a10,10,0,0,1,1.23,1.12.21.21,0,0,0,.33,0,3.3,3.3,0,0,0,.74-2.39,2.94,2.94,0,0,1,.54,1q.6,0,1.2-.09c1.11,1.19,3.26.61,4.57,0a8.07,8.07,0,0,0,3.66-2.69.27.27,0,0,1,.15.25c-.18,1.24-2.71,2.67-3.74,3.1a11.22,11.22,0,0,1-2.47,1.14,17.91,17.91,0,0,1-3.43,0c-.13.29-7-1.23-8.37-1.41-3-.38-3,.07-7.86-.4a2.5,2.5,0,0,1-2.3-1.14c-2.8-.6-5.24-6.57-11.43-9-.28-.12-3.42-2.85-3.6-3.09-1.62.39-8.43,0-10.12.51-.94.29-6,2-6.94.61A1.2,1.2,0,0,1,102.13,96.09Z"/>
                    <path class="cls-5" d="M145.92,108.59c-2.66,0-6.06.45-8.31-1.26.7.14,1.4.32,2.07.41a36.87,36.87,0,0,0,5.56.17c2,0,4.06-.19,5.82,1a2.82,2.82,0,0,1,1,1.27C150.7,108.54,147.85,108.62,145.92,108.59Z"/>
                    <path class="cls-5" d="M136.05,108.06c-1.52-3.11-5.22-3.65-7.6-5.93a71,71,0,0,1-5-6.14c1.65,1.4,3.26,2.86,4.94,4.22,1,.79,1.93,1.64,2.89,2.46,1.38,1.18,3,2,4.39,3.11A2.93,2.93,0,0,1,136.05,108.06Z"/>
                  </g>
                  <path class="cls-5" d="M118.28,92.76a5.83,5.83,0,0,1,1.1,1.9c-2.47-1.61-5.16-.81-7.9,0-2.09.6-4.84,1.56-7.11,1a57.47,57.47,0,0,0,6.3-1.35A36.57,36.57,0,0,0,114.91,93a5.65,5.65,0,0,1,2.55-.5A1.83,1.83,0,0,1,118.28,92.76Z"/>
                  <path class="cls-5" d="M153.51,110.25a9.42,9.42,0,0,0,3.28-.88c1-.52,2-1.21,3-1.76a1.66,1.66,0,0,1,1.57-.13.79.79,0,0,1,.21.1C158.73,107.53,156.29,111.22,153.51,110.25Z"/>
                </g>
                <g>
                  <g>
                    <path class="cls-3" d="M125.88,52.24c1.21.82,2-.66,3.07-.94,2.59-.66,6.26-2.19,8.8-1.22,1.12.43,1.29-.48,1.55-1.41.2-.71.84-2.05-.12-2.49s-1.73.64-2.33,1c-2.5,1.65-5.56,1.65-8.41,2.25-.89.19-2.22.52-2.44,1.39C125.58,51.3,125.28,51.84,125.88,52.24Z"/>
                    <path class="cls-3" d="M116.25,59.23c1.35-1,2-1,3.58-1.78,1.22-.62,2.91-2.48,4.15-3.06,1.75-.81,4.88-1.14,4.83-3.25,0-1.49-.56-1.2-2-1.87s-3.31,1.15-4.25,1.92C120,53.3,117,54,114.17,55.49a2.7,2.7,0,0,0-1.42,1.56.18.18,0,0,0-.16.12C111.2,60.55,113.21,61.46,116.25,59.23Z"/>
                    <path class="cls-3" d="M108.07,74.63c1.83-.23,2.19-4.71,2.83-6.06,1.2-2.55,2.85-4.2,3.58-6.94.31-1.16,1.63-2.05,1.47-2.25-.18-.88,0-1.18-.7-1.68a3.49,3.49,0,0,0-4.13.56c-1.84,1.91-1.79,4.89-2.93,7.21s-2.41,4.72-1.9,7.3C106.58,74.24,106.31,74.86,108.07,74.63Z"/>
                    <path class="cls-3" d="M100.13,87.4c.81-.27,1.34-1.44,1.63-2.37,1.34-2,1.45-5,3.28-6.43,1.37-1.09,3.65-2.34,2.92-4.43-.43-1.21.34-1.87-1-2.24-1.65-.45-2.67.87-3.14,2.28-.81,2.43-3,3.82-4.1,6-1,1.86-2,4.14-1.54,6.27C98.32,87.36,99.47,87.62,100.13,87.4Z"/>
                  </g>
                  <path class="cls-4" d="M98.15,86.52c-.45-2.13.58-4.41,1.54-6.27s2.4-3,3.4-4.58c.14,1.15.26,2.3.32,3.46,0,.15.21.32.34.17.44-.49,4.23-4.31,4.21-5.13a2.6,2.6,0,0,0-1.85-2.1,3,3,0,0,1,2.39.36c.36.25,2.83-6.74,3.52-7.92.91-1.57,2.73-3.19,3.32-4.69.47-1.2-1.92-2.18-3-2.34l.12,0c0-.09.06-.18.1-.27a.18.18,0,0,1,.16-.12,2.06,2.06,0,0,1,.21-.48,4.39,4.39,0,0,1,3.72,1.3.21.21,0,0,0,.25.05,3,3,0,0,0,.65-.58c0,.54,1.91-.71,1.87-1.29-.08-.93,1-2.18,8-3.72,1.25-.28-.19-2.38-1-3.17a1.25,1.25,0,0,1,.39.11,3.24,3.24,0,0,1,.7.45c.32-.1.65-.18.93-.24a2.29,2.29,0,0,0,1.29.52,7,7,0,0,0,1.88-.51,12,12,0,0,1,2.52-.53c1.25-.08,3.06.45,4.16-.38a3.6,3.6,0,0,0,1.22-2.14c.44.57,0,1.63-.21,2.23-.26.93-.43,1.84-1.55,1.41-2.54-1-6.21.56-8.8,1.22a2.09,2.09,0,0,0-.44.19c.12.46.51,1.14-4.28,2.85-1.28.46-2.08,2-3.6,2.73-3.59,1.65-4.46,2.2-4.68,2.31,0,.6-.75,1.63-1.67,3.06-7,11-3.08,10.71-6.21,12.19.08,1.74-2,3.21-3.22,4.17-1.83,1.45-1.75,4.28-3.09,6.23-.29.93-.82,2.1-1.63,2.37C99.47,87.62,98.32,87.36,98.15,86.52Z"/>
                  <path class="cls-5" d="M139.57,46.63c-1,.07-1.89,1.09-2.79,1.46a28.06,28.06,0,0,1-5.58,1.36,6.39,6.39,0,0,1-2.26.25,3.19,3.19,0,0,1-.62-.19l.12,0c2.85-.6,5.91-.6,8.41-2.25.6-.41,1.48-1.44,2.33-1a.84.84,0,0,1,.44.45Z"/>
                  <path class="cls-5" d="M124.27,50.53a23.51,23.51,0,0,1-4.42,2.69,34.58,34.58,0,0,1-4.35,2.17,11,11,0,0,0-2.43,1,2.94,2.94,0,0,1,1.1-.93C117,54,120,53.3,122.56,51.19c.94-.77,2.79-2.56,4.23-1.93A5.44,5.44,0,0,0,124.27,50.53Z"/>
                  <path class="cls-5" d="M111.15,59a15.76,15.76,0,0,1-1.68,4.31,34.55,34.55,0,0,0-1.74,4.39,9.77,9.77,0,0,1-.89,2.55,2.91,2.91,0,0,1-.62.64,16.56,16.56,0,0,1,2-5.43c1.14-2.32,1.09-5.3,2.93-7.21a3.07,3.07,0,0,1,.34-.29A3.71,3.71,0,0,0,111.15,59Z"/>
                  <path class="cls-5" d="M105.38,72.06a3.61,3.61,0,0,1,2.29.64A3.93,3.93,0,0,0,104,75.11a9.13,9.13,0,0,1-1.54,2.61,8.25,8.25,0,0,1-2,1.35c1.17-1.6,2.7-2.89,3.36-4.86A3.62,3.62,0,0,1,105.38,72.06Z"/>
                </g>
                <g>
                  <g>
                    <path class="cls-3" d="M90.41,59.24a3,3,0,0,0,4.22.47c.71-.68.67-2.14.71-3.14.08-1.82,0-3.67,0-5.5,0-3.71-.19-7.43-.25-11.14,0-1.61.09-5-2-5.38-1.57-.26-2.22,2-2,3.39.78,3.9-.35,6.93-1.21,10.44a20.39,20.39,0,0,0-.59,3.4.12.12,0,0,0-.15.08C88.51,54.28,88.39,57.16,90.41,59.24Z"/>
                    <path class="cls-3" d="M85.52,24.42c0,.15.22.24.35.28,1.92.61,2.84-.49,2.32-2.32v0a16.13,16.13,0,0,1,4.95-9.19c1.81-1.45-2.6-4.35-3.31-4.89-.1-.08-.55-.2-.53.06.15,1.57,1.76,2.69.95,4.28s-1.89,2.89-2.4,4.61-.65,3.64-1.81,4.94A2.53,2.53,0,0,0,85.52,24.42Z"/>
                    <path class="cls-3" d="M86,25.74c1.11,1.92,2.67,3.5,3.83,5.41,1,1.62,2.94,7,4.52,4.4,1-1.53.24-2.42-.65-4.06a29.13,29.13,0,0,0-1.73-3,24.06,24.06,0,0,1-2.23-3.29c-.42-.85-1.13-2.11-2-2.44a2.11,2.11,0,0,0-.8-.1c-.13-.07-.26-.1-.33-.05A2.19,2.19,0,0,0,86,25.74Z"/>
                  </g>
                  <path class="cls-4" d="M89.14,51.86a2.19,2.19,0,0,0,.66,1.46c1.18,1.12,2.94,0,3.57-1.28.06.7,0,1.41.07,2.12,0,.23.33.2.4,0a15,15,0,0,0,.61-4.38c.2-1.88-.25-3.29,0-5.16.22-1.7-.28-2.39-.43-6.79,0-.11.74-1.85.65-1.77-.94.82-1.59.32-2.24-.32a2.26,2.26,0,0,1,0-.26,6.17,6.17,0,0,1-1-1.36c.79.41,2,1.26,2.39.61.82-1.3-.29-2.73-1-3.73-1-1.25-2.11-2.31-3-3.63-.66-1-.57-2.5-1.58-3.21-1.71-1.19-2.42-.14-2.68,1.42a1.9,1.9,0,0,1,0-1.51,2.51,2.51,0,0,1,.14-1.22c.47-.57,1.07-.95,1.62-1.5a3.85,3.85,0,0,0,1-1.72,14.74,14.74,0,0,1,2.91-5.52c.76-.88,1.5-1.84,1.11-3.06s-2-1.75-2.6-2.87a.38.38,0,0,1,.19.07c.71.54,5.12,3.44,3.31,4.89a16.13,16.13,0,0,0-4.95,9.19v0a.64.64,0,0,0,0,.07c.05,0,.14,0,.14,0,0,1,1.15,2.47,1.58,3.32a24.79,24.79,0,0,0,2.69,3.82c.73.9,3,4.92,1.68,5.94,1.37.9,1.19,17.49,1,19.32-.12,1,.6,4-1,5.16-1.42,1-3,.19-4.3-1C88.25,57.4,88.6,54,89.14,51.86Z"/>
                  <path class="cls-5" d="M89.33,8.24c.73,1.23,1.61,2.59,1.5,4s-.94,2.41-1.48,3.63c-.94,2.1-1.46,4.59-3.19,6.16,1-1.3,1.21-3.22,1.68-4.78.51-1.72,1.6-3,2.4-4.61s-.8-2.71-.95-4.28A.11.11,0,0,1,89.33,8.24Z"/>
                  <path class="cls-5" d="M85.44,24.19a16,16,0,0,0,2.82,4.18,19.28,19.28,0,0,1,3.6,6.47c-.85-1.19-1.54-2.92-2-3.71-1.22-1.88-3-3.35-4.15-5.24A1.93,1.93,0,0,1,85.44,24.19Z"/>
                  <path class="cls-5" d="M92.91,40.47c-.24,1.54-.48,3.18-.87,4.69a12.77,12.77,0,0,1-2.4,4.38l-.14.21a21.11,21.11,0,0,1,.83-3c1.16-3.42,2.56-6.42,2.17-10A6,6,0,0,1,92.91,40.47Z"/>
                </g>
              </g>
              <g>
                <path class="cls-6" d="M110.3,101.74c-12-11.12-21.6-4.28-21.6-4.28l-1.38.69-7.95,3.95-1.37.69s-11.23,3.49-9.62,19.81S75.7,150.32,92,162.78c14.48,11.07,22.86,14.81,28.4,11.94l0,0,0,0c5.64-2.69,7.7-11.63,7.61-29.85C128,124.3,122.34,112.85,110.3,101.74Z"/>
                <path class="cls-7" d="M118.91,117.2a.21.21,0,0,1-.4,0,5.21,5.21,0,0,0-.4-1.36,25.78,25.78,0,0,1-.63,2.87.21.21,0,0,1-.4,0c-.18-.93-.21-1.88-.38-2.8-2,8.84-11.28,13.38-18.79,17C92,135.63,83.39,140,77.29,135.6a10.62,10.62,0,0,1,.86,1.72c0,.16-.07.37-.26.29a4,4,0,0,1-.73-.4,4.25,4.25,0,0,1,.32,1,.2.2,0,0,1-.27.23,5.06,5.06,0,0,1-2.59-1.79c.3.8.58,1.6.82,2.42,0,.18-.18.3-.32.21A18.16,18.16,0,0,1,71,135.89a45.46,45.46,0,0,0,4.31,9.39l-.31-.85a.21.21,0,0,1,.37-.18A24.21,24.21,0,0,0,77.33,147c-.42-1-.78-2.11-1.18-3.16a.22.22,0,0,1,.1-.28,139.27,139.27,0,0,1,13.32-4.69A96.17,96.17,0,0,0,103.24,133a118.19,118.19,0,0,0,13-7.56c1.09-.75,2.17-1.51,3.22-2.32A12.6,12.6,0,0,1,121,122a.9.9,0,0,1,1.3.26,5.42,5.42,0,0,0,.06-.81.21.21,0,0,1,.32-.16,11.25,11.25,0,0,1,2.76,3.25,45.23,45.23,0,0,0-5.57-11.82A15.36,15.36,0,0,1,118.91,117.2Z"/>
                <path class="cls-7" d="M71.74,116.55a.21.21,0,0,1,.41.08c0,2.5,0,5,.23,7.52A45.23,45.23,0,0,1,74,116.06a.21.21,0,0,1,.4,0,35.36,35.36,0,0,0,.35,3.57c.61-1.27.72-2.76,1.62-3.88a.21.21,0,0,1,.36,0,8.63,8.63,0,0,1,.43.77,6.29,6.29,0,0,0,.93-1.3.21.21,0,0,1,.35-.07c2.56,2.66,7.45,0,10.15-1.21a17.39,17.39,0,0,0,9.87-10.25.22.22,0,0,1,.36-.07,22.6,22.6,0,0,1,2.16,2.52,8.64,8.64,0,0,1-.54-1.47c-.06-.21.22-.32.35-.18a14.38,14.38,0,0,1,1,1.2,14.81,14.81,0,0,1-.75-2,.2.2,0,0,1,.35-.18c.45.52.83,1.09,1.26,1.63-.3-.79-.61-1.57-1-2.32-.07-.16.08-.37.26-.29,1.14.47,1.78,1.58,2.72,2.34,0-1.58-1.25-2.83-1.63-4.33a.21.21,0,0,1,.22-.25,14.29,14.29,0,0,1,5.55,1.88A47,47,0,0,1,114,105.4c-1.16-1.23-2.39-2.45-3.71-3.66-12-11.12-21.6-4.28-21.6-4.28L78,102.79s-11.23,3.49-9.62,19.81a69.62,69.62,0,0,0,1.14,7.58A39.69,39.69,0,0,1,71.74,116.55Z"/>
                <path class="cls-7" d="M124.3,143.67c-4.43,3.77-9.87,6.13-15.12,8.52-3,1.34-5.87,2.79-8.83,4.12a41.67,41.67,0,0,1-8.41,3.11,9.64,9.64,0,0,1-4.11,0q2,1.68,4.18,3.37c14.48,11.07,22.86,14.81,28.4,11.94l0,0,0,0c5.64-2.69,7.7-11.63,7.61-29.85,0-1.72-.06-3.38-.14-5A24.09,24.09,0,0,1,124.3,143.67Z"/>
                <g>
                  <path class="cls-8" d="M69.4,129.63s20.25-17.7,45.57-23.19C115,106.44,88.65,110.27,69.4,129.63Z"/>
                  <g>
                    <path class="cls-8" d="M126.67,129c-17.63,14.23-39.43,20.82-46.1,22.6l.4.09c23.67-4.46,41.34-18.79,45.69-22.59C126.66,129,126.67,129,126.67,129Z"/>
                    <path class="cls-8" d="M127.27,143.26c-13.46,9.54-28.27,15-36.65,17.64.42.08.84.15,1.26.2,15.79-4.11,28.38-12.22,35.3-17.44Z"/>
                    <path class="cls-8" d="M127.69,153.56A135.39,135.39,0,0,1,98.56,167.5c.25.18.5.36.76.53a104.19,104.19,0,0,0,28.33-13.95C127.66,153.91,127.68,153.73,127.69,153.56Z"/>
                    <path class="cls-8" d="M126.4,164.66a136.1,136.1,0,0,1-18,8.58l1.09.54a105.41,105.41,0,0,0,16.65-8.25Z"/>
                  </g>
                  <path class="cls-8" d="M73.8,142.57s28-6.29,49.18-23.94C123,118.63,102.46,138.09,73.8,142.57Z"/>
                  <path class="cls-8" d="M126.6,129.13c-.06-.24-.11-.49-.16-.73-.43.63-.88,1.24-1.36,1.83C125.59,129.87,126.1,129.51,126.6,129.13Z"/>
                </g>
              </g>
              <path class="cls-4" d="M110.3,101.74c-12-11.12-21.6-4.28-21.6-4.28L78,102.79s-11.23,3.49-9.62,19.81S75.7,150.32,92,162.78c14.48,11.07,22.86,14.81,28.4,11.94l0,0,0,0c5.64-2.69,7.7-11.63,7.61-29.85C128,124.3,122.34,112.85,110.3,101.74Zm.84,34.86a67.23,67.23,0,0,1,5.58,17.2c.72,4.4,1.43,10-1.26,14-2.87,4.2-7.94,2.66-11.72.61a75.74,75.74,0,0,1-12.94-9.1A66.1,66.1,0,0,1,80,147.6c-5.54-7.76-9.25-16.93-8.9-26.51a10.47,10.47,0,0,1-.11-1.76,3.31,3.31,0,0,1,1.65-3.15c1.67-.75,3.83.62,5.44.95a19.25,19.25,0,0,0,9.35-.57c1.95-.6,3.72-1.68,5.68-2.28a6.06,6.06,0,0,1,5.24.35c1.82,1.22,2.91,3.37,4,5.22C105.4,125.34,108.5,130.87,111.14,136.6Z"/>
              <path class="cls-4" d="M110.3,101.74a24.18,24.18,0,0,0-9.1-5.58c.27.2.54.4.8.61a49.66,49.66,0,0,1,4.06,3.75,10.25,10.25,0,0,1,2.49,3.32c1.31,3.27-3.64,4.46-5.76,5.22a35,35,0,0,0-5.43,2.75c-1.28.73-2.54,1.5-3.75,2.33a9.2,9.2,0,0,1,1.64-.27c3.46-1.62,6.65-4,10.68-3.76s6.49,2.82,8.74,5.89c.89,1.22,2,2.72,2,4.31,0,1.78-1.52,3.11-2.76,4.21a42,42,0,0,1-5.57,4.06,11.39,11.39,0,0,0,3.66-1c1.09-.45,2.42-1.25,3.64-1.15,2,.17,3.35,2.57,3.3,4.44-.06,2.09-1.64,4-3,5.37a26.65,26.65,0,0,1-2.37,2.13c1-.48,2-1.17,3-1.76a5,5,0,0,1,3.13-1c1.85.27,2,3.38,2.06,4.74a10.1,10.1,0,0,1-4.91,9.78c.63-.2,1.25-.46,1.89-.71a4.21,4.21,0,0,1,2.47-.49c1.37.44,1.37,2.76,1.45,3.89a7.05,7.05,0,0,1-3.15,6.39c1.37-.28,2.67-.37,2.9,1.18a14,14,0,0,1-.2,4c-.22,1.42-.38,2.86-.72,4.26a7.39,7.39,0,0,1-2.33,4.16A11,11,0,0,1,115,175c-.51.13-1,.23-1.55.31a9.85,9.85,0,0,0,7-.55l0,0,0,0c5.64-2.69,7.7-11.63,7.61-29.85C128,124.3,122.34,112.85,110.3,101.74Z"/>
              <g>
                <g>
                  <path class="cls-9" d="M82.26,37.76a10,10,0,0,0-4.91-2.66,21,21,0,0,0-6.08-.47c-3.69.25-13.64,1.36-17.08,2.69a5.3,5.3,0,0,0-.67.34,6.27,6.27,0,0,0-.68.33c-3.14,1.94-10,9.21-12.44,12a20.47,20.47,0,0,0-3.3,5.12,10.07,10.07,0,0,0-.83,5.52c1.08,7.63,6.54,9.74,13,10.48,3.35.39,10-4.9,16.74-8.32s15-5.44,16.74-8.34C86.07,48.85,87.68,43.22,82.26,37.76Z"/>
                  <g>
                    <path class="cls-10" d="M50,57.39c-1.24-2.46-4.84-3.51-5.06-6.47a7.76,7.76,0,0,1,1.18-4.09,6.69,6.69,0,0,0,.67-1.5c.15-.59,0-1.51-.7-1.56-1.94,1.92-3.65,3.7-4.69,4.83a25.07,25.07,0,0,0-4,5.73,10.93,10.93,0,0,0-1.15,6.09c.58,4.91,3,7.66,6.37,9.22C48,69.2,52.3,62,50,57.39Z"/>
                    <path class="cls-11" d="M46.09,43.77c-1.94,1.92-3.65,3.7-4.69,4.83a25.07,25.07,0,0,0-4,5.73,10.93,10.93,0,0,0-1.15,6.09c.58,4.91,3,7.66,6.37,9.22C48,69.2,52.3,62,50,57.39c-1.24-2.46-4.84-3.51-5.06-6.47a7.76,7.76,0,0,1,1.18-4.09,6.69,6.69,0,0,0,.67-1.5C46.94,44.74,46.83,43.82,46.09,43.77Zm-3.1,6c.09.89-.22,1.86-.05,2.72a6.93,6.93,0,0,0,2.12,3.15A5.49,5.49,0,0,1,47,59.36c0,2.29-.61,5.75-2.68,7.34-2.59,2-5-.86-5.87-2.92A11.13,11.13,0,0,1,39,53.3a.23.23,0,0,1,.11-.09,8.64,8.64,0,0,1,3.59-3.62A.24.24,0,0,1,43,49.74Z"/>
                  </g>
                  <g>
                    <path class="cls-10" d="M71,45.94c-1.14-2.31.28-5.67-1.88-7.47a7.36,7.36,0,0,0-3.89-1.34,6.74,6.74,0,0,1-1.56-.31c-.55-.21-1.2-.8-.78-1.4,2.68-.44,5.11-.78,6.63-1a25.44,25.44,0,0,1,6.87.1A10.38,10.38,0,0,1,81.78,37c3.43,3.16,4.08,6.52,3.18,10C81.36,50.87,73.1,50.24,71,45.94Z"/>
                    <path class="cls-11" d="M63.65,36.82a6.74,6.74,0,0,0,1.56.31,7.36,7.36,0,0,1,3.89,1.34c2.16,1.8.74,5.16,1.88,7.47,2.12,4.3,10.38,4.93,14,1.08.9-3.48.25-6.84-3.18-10a10.38,10.38,0,0,0-5.41-2.46,25.44,25.44,0,0,0-6.87-.1c-1.52.18-4,.52-6.63,1C62.45,36,63.1,36.61,63.65,36.82ZM69.49,36a9.05,9.05,0,0,1,5-.78.22.22,0,0,1,.14,0,10.27,10.27,0,0,1,8.43,5.34c1.05,1.81,1.77,5.24-1.36,6.14-2.52.73-5.57-.68-7.33-2a4.87,4.87,0,0,1-1.73-3.53,6.09,6.09,0,0,0-1.12-3.37c-.56-.62-1.5-.9-2.13-1.47C69.3,36.22,69.36,36,69.49,36Z"/>
                  </g>
                  <g>
                    <g>
                      <path class="cls-12" d="M51.65,39.35a17.25,17.25,0,0,0-1.74-.49,1.64,1.64,0,0,1-.56-.24.61.61,0,0,0-.23-.11c-.08,0-.16.12-.18.18-.14.4-.22.86.33.86a1.94,1.94,0,0,0,.33-.07h.1a.77.77,0,0,1,.3,0,6.32,6.32,0,0,1,1.64.49,25.71,25.71,0,0,1,2.72,1.26h0a.27.27,0,0,0,.24-.16A13.13,13.13,0,0,0,51.65,39.35Z"/>
                      <path class="cls-13" d="M53.27,40.36a9.88,9.88,0,0,0-1.76-.86,5.77,5.77,0,0,0-.9-.26,7.71,7.71,0,0,1-.84-.1c-.31-.1-.38-.5-.64-.63h0c-.08,0-.16.12-.18.18-.14.4-.22.86.33.86a1.94,1.94,0,0,0,.33-.07h.1a.77.77,0,0,1,.3,0,6.32,6.32,0,0,1,1.64.49,25.71,25.71,0,0,1,2.72,1.26h.07A5.1,5.1,0,0,0,53.27,40.36Z"/>
                      <path class="cls-12" d="M49.09,39.36c.18-.14.12-.4,0-.65l0,0c-.09-.11-.23-.29-.4-.25a1.05,1.05,0,0,1-.24.06h-.07l-.18-.07a.62.62,0,0,0-.23,0l-.4-.24a.58.58,0,0,0-.37-.05l-.23.06-.09-.11a.91.91,0,0,0-.45-.14l-.32,0a.23.23,0,0,1-.27,0c-.3-.17-.54-.36-.89-.15h0l-.09-.06-.14-.05a.82.82,0,0,0-.38,0l-.19.08a2.83,2.83,0,0,0-.27-.09,1.18,1.18,0,0,0-.76.25c-.14.09-.22,0-.37,0a.57.57,0,0,0-.27.17.47.47,0,0,0-.36-.08l-.09,0a.63.63,0,0,0-.23.2.06.06,0,0,1-.07,0,.83.83,0,0,0-.53-.11.85.85,0,0,0-.4.33,2.13,2.13,0,0,0-.3.53c0,.18.05.35.29.31s.55-.33.8-.54c0,0,0,0,0,0a.11.11,0,0,0,.09,0,.62.62,0,0,0,.4-.2,1.94,1.94,0,0,0,.67-.21.78.78,0,0,0,.88-.21.93.93,0,0,0,.75-.15.41.41,0,0,0,.55,0H45c-.08,0,.09.08.11.09a.54.54,0,0,0,.24.09.94.94,0,0,0,.39-.06.86.86,0,0,0,.73.17c.17,0,.09,0,.21,0a1.42,1.42,0,0,0,.61.2c.05,0,.44,0,.45,0s.17.16.28.18a1,1,0,0,0,.32,0,1,1,0,0,0,.48.36A1.32,1.32,0,0,0,49.09,39.36Z"/>
                      <g class="cls-14">
                        <path class="cls-12" d="M49.12,38.71l0,0a.77.77,0,0,0-.22-.22.45.45,0,0,1-.05.26.23.23,0,0,1-.33.06c-.13-.09-.08-.2,0-.29h-.14l0,.06c-.08.07-.2.16-.31.13a.12.12,0,0,1-.11-.1.11.11,0,0,1,0-.13l-.09-.06a.2.2,0,0,1-.14.09,1.12,1.12,0,0,1-.82-.11.06.06,0,0,1,0-.1l.06-.06-.08-.1-.07,0a.37.37,0,0,1-.26.22.74.74,0,0,1-.69-.11.07.07,0,0,1,0-.09l0,0,0,0L45.72,38a.4.4,0,0,1-.13.13.94.94,0,0,1-.66,0s-.07-.06,0-.09a.18.18,0,0,1,0-.07h0l-.09-.06h0a.78.78,0,0,1-.85.32.06.06,0,0,1,0-.1l.15-.17-.17-.06c-.06.21-.35.38-.51.46s-.23.12-.31,0a.4.4,0,0,1-.07-.21.82.82,0,0,1-.62.46s-.1,0-.08-.08a1.83,1.83,0,0,1,.08-.25l-.11-.05a1,1,0,0,1-.53.58.07.07,0,0,1-.1-.06.92.92,0,0,1,0-.29h0a1,1,0,0,0-.21-.08,1,1,0,0,1-.24.67,2.2,2.2,0,0,1-.51.35.23.23,0,0,1-.26-.06.21.21,0,0,0,.28.18c.33,0,.55-.33.8-.54,0,0,0,0,0,0a.11.11,0,0,0,.09,0,.62.62,0,0,0,.4-.2,1.94,1.94,0,0,0,.67-.21.78.78,0,0,0,.88-.21.93.93,0,0,0,.75-.15.41.41,0,0,0,.55,0H45c-.08,0,.09.08.11.09a.54.54,0,0,0,.24.09.94.94,0,0,0,.39-.06.86.86,0,0,0,.73.17c.17,0,.09,0,.21,0a1.42,1.42,0,0,0,.61.2c.05,0,.44,0,.45,0s.17.16.28.18a1,1,0,0,0,.32,0,1,1,0,0,0,.48.36,1.32,1.32,0,0,0,.3.09C49.27,39.22,49.21,39,49.12,38.71Z"/>
                      </g>
                    </g>
                    <g>
                      <path class="cls-12" d="M55.6,37.39c.19-.58.42-1.14.66-1.69a1.75,1.75,0,0,0,.14-.59,1.37,1.37,0,0,1,.05-.25.31.31,0,0,1,.26,0c.4.14.82.34.49.79a1.38,1.38,0,0,1-.26.22l-.07.07a.88.88,0,0,0-.21.22,6.1,6.1,0,0,0-.59,1.61,26.68,26.68,0,0,0-.64,2.92h0a.24.24,0,0,1-.27.09A12.7,12.7,0,0,1,55.6,37.39Z"/>
                      <path class="cls-13" d="M55.42,39.29a10.46,10.46,0,0,1,.38-1.93,6.54,6.54,0,0,1,.34-.87,7.74,7.74,0,0,0,.43-.73c.11-.31-.18-.61-.12-.89h0a.31.31,0,0,1,.26,0c.4.14.82.34.49.79a1.38,1.38,0,0,1-.26.22l-.07.07a.88.88,0,0,0-.21.22,6.1,6.1,0,0,0-.59,1.61,26.68,26.68,0,0,0-.64,2.92h0l0,0A5.53,5.53,0,0,1,55.42,39.29Z"/>
                      <path class="cls-12" d="M57.15,35.35c-.22.06-.39-.14-.54-.37v0c0-.14-.09-.36,0-.47a.59.59,0,0,0,.2-.15l0,0h0s0,0,0,0a.61.61,0,0,0,0-.18.69.69,0,0,1,.17-.17s0-.43,0-.47a.65.65,0,0,1,.19-.33,1.33,1.33,0,0,1,.19-.14.39.39,0,0,1,0-.14,1.06,1.06,0,0,1,.16-.45l.23-.22c.09,0,.18-.08.19-.19,0-.35,0-.65.41-.8a.05.05,0,0,0,0,0,.41.41,0,0,1,0-.11l0-.13a.81.81,0,0,1,.25-.3,1.08,1.08,0,0,1,.18-.11s.07-.23.09-.26a1.17,1.17,0,0,1,.65-.46c.16-.05.14-.18.26-.27a.58.58,0,0,1,.3-.11.47.47,0,0,1,.15-.34L60.5,29a.77.77,0,0,1,.3-.06,0,0,0,0,0,.05-.05.79.79,0,0,1,.24-.49.91.91,0,0,1,.49-.12,2,2,0,0,1,.61.09c.15.1.25.25.08.41a1.85,1.85,0,0,1-.92.32v0a.08.08,0,0,1,0,.1.56.56,0,0,1-.39.19,2.27,2.27,0,0,1-.57.42.79.79,0,0,1-.7.56.91.91,0,0,1-.57.51.44.44,0,0,1-.35.44s0,0,0,.05,0,.13,0,.14a.57.57,0,0,1-.08.25.79.79,0,0,1-.28.27.88.88,0,0,1-.3.7c-.12.11-.07,0-.09.18a1.48,1.48,0,0,1-.21.61s-.3.32-.28.36a.29.29,0,0,1,0,.33.92.92,0,0,1-.22.24,1,1,0,0,1,0,.59A1.21,1.21,0,0,1,57.15,35.35Z"/>
                      <g class="cls-14">
                        <path class="cls-12" d="M56.61,35v0a1,1,0,0,1,0-.3.44.44,0,0,0,.24.11.22.22,0,0,0,.24-.22c0-.17-.11-.19-.24-.17l0,0,0,0h0s0,0,0,0H57a.39.39,0,0,0,.29-.17.14.14,0,0,0,0-.15.14.14,0,0,0-.14,0s0-.06,0-.11a.22.22,0,0,0,.16-.06,1.11,1.11,0,0,0,.4-.72A.06.06,0,0,0,57.6,33l-.09,0a.79.79,0,0,1,0-.13s0-.05,0-.08a.37.37,0,0,0,.34-.07.77.77,0,0,0,.32-.62.06.06,0,0,0-.07,0h0s0,0,0-.05,0-.1,0-.15a.27.27,0,0,0,.17,0,.88.88,0,0,0,.38-.54s0-.09-.05-.09a.27.27,0,0,0-.09,0v0a.41.41,0,0,1,0-.11h0a.78.78,0,0,0,.77-.49.06.06,0,0,0-.07-.07l-.23,0,.05-.17a1,1,0,0,0,.68-.13c.08,0,.23-.12.21-.23a.29.29,0,0,0-.13-.18.83.83,0,0,0,.75-.22s0-.1,0-.12l-.24-.08a.27.27,0,0,1,0-.12,1,1,0,0,0,.77-.07.06.06,0,0,0,0-.11,1,1,0,0,0-.26-.15s0,0,0,0a1,1,0,0,1,.06-.21,1,1,0,0,0,.68.2,1.52,1.52,0,0,0,.59-.19.23.23,0,0,0,.11-.24.22.22,0,0,1,0,.33,1.85,1.85,0,0,1-.92.32v0a.08.08,0,0,1,0,.1.56.56,0,0,1-.39.19,2.27,2.27,0,0,1-.57.42.79.79,0,0,1-.7.56.91.91,0,0,1-.57.51.44.44,0,0,1-.35.44s0,0,0,.05,0,.13,0,.14a.57.57,0,0,1-.08.25.79.79,0,0,1-.28.27.88.88,0,0,1-.3.7c-.12.11-.07,0-.09.18a1.48,1.48,0,0,1-.21.61s-.3.32-.28.36a.29.29,0,0,1,0,.33.92.92,0,0,1-.22.24,1,1,0,0,1,0,.59,1.21,1.21,0,0,1-.11.3C56.93,35.41,56.76,35.21,56.61,35Z"/>
                      </g>
                    </g>
                  </g>
                  <ellipse class="cls-15" cx="60.28" cy="52.56" rx="9.02" ry="11.46" transform="translate(-17.1 32.35) rotate(-26.45)"/>
                  <path class="cls-16" d="M56,42.67s15.8,9.95,9.47,19C65.48,61.7,76,47.63,56,42.67Z"/>
                </g>
                <g>
                  <path class="cls-17" d="M38.15,56.85c0-.17-.18-.08-.2,0-.46,3.17-.4,7.73,3.2,9.09.21.08.27-.37.19-.49a20.77,20.77,0,0,1-2.58-4.16A19.89,19.89,0,0,1,38.15,56.85Z"/>
                  <path class="cls-17" d="M42.19,66.14a.41.41,0,0,1-.11,0c-.19,0-.25.51,0,.48h.12C42.36,66.6,42.42,66.12,42.19,66.14Z"/>
                  <path class="cls-17" d="M51.83,46.79c-.07-.22-.23.08-.22.18.08,2.46-.11,8.75,2.48,10,.26.12.38-.36.27-.53-.63-.93-1.19-3.7-1.76-4.67S52.19,47.91,51.83,46.79Z"/>
                  <path class="cls-17" d="M80.08,38.32c-.51-.51-2.71-2-3.48-1.43-.08.06-.19.43,0,.39s1.09.78,1.27.91a12.38,12.38,0,0,1,1.71,1.35A13.48,13.48,0,0,1,81,41.21a10.54,10.54,0,0,0,.91,1.52c.23.24.43-.39.4-.53A6.89,6.89,0,0,0,80.08,38.32Z"/>
                </g>
              </g>
              <path class="cls-18" d="M94.59,93,72.26,104.1l-4.83,2.4s6.1,7.16,20.29,2.21l1.22-.6c12.51-8.34,10.48-17.52,10.48-17.52Z"/>
              <path class="cls-7" d="M96.52,64C90.28,54.9,80.35,51,69.64,51.08c-7.55.09-13.41,4.45-17.64,10.54a31,31,0,0,0-5.54,15.29,27.27,27.27,0,0,0,1.48,11.22c6.65,20,23,20.56,31.66,16.24l1.86-.92,7.06-3.51L90.38,99C99.05,94.69,108.48,81.35,96.52,64Z"/>
              <path class="cls-19" d="M101.4,79.17A21.52,21.52,0,0,1,89.61,97.88l-10.79,5.36a21.36,21.36,0,0,1-25.42-5,24.29,24.29,0,0,1,.06-3.41A31,31,0,0,1,59,79.56C63.24,73.47,69.09,69.11,76.65,69,86.2,68.9,95.15,72,101.4,79.17Z"/>
              <g class="cls-20">
                <path class="cls-21" d="M84.48,101.6,61.37,58.41s2.22-5.61,4.56-1.93Z"/>
                <path class="cls-21" d="M84.37,101.29l-25.16-42s-6-1-4,2.93Z"/>
                <path class="cls-21" d="M84.66,101.07,67,55.39s2.89-5.31,4.77-1.36Z"/>
                <path class="cls-21" d="M85,102.18,54.47,65.47s-5.89,0-3.42,3.42Z"/>
                <path class="cls-21" d="M84.36,101.51,73.5,55s3.51-4.73,4.79-.67Z"/>
                <path class="cls-21" d="M84.42,102,51.6,72.65s-4.87.73-2.11,3.56Z"/>
                <path class="cls-21" d="M85.18,102.61,50,79.22s-4.52,1.5-1.51,3.82Z"/>
                <path class="cls-21" d="M84.79,101.82,81.18,57.94s3.52-3.45,4.11.46Z"/>
                <path class="cls-21" d="M84.81,102.79l2.58-42.18s3.92-2.69,4,1.11Z"/>
              </g>
              <path class="cls-4" d="M46.8,74.36S64.66,47.55,80.21,58.08c0,0,25.63,17.07,8.31,41.86,0,0,29.3-13.66,2.92-41.62C91.44,58.32,58.88,34.31,46.8,74.36Z"/>
            </g>
            <path class="cls-22" d="M94.24,115c-4.66,1.51-8.77,4.07-12.86,6.68a52.86,52.86,0,0,0-4.93,3.91,12.89,12.89,0,0,0-3.94,4.83c-.06.14,0,.47.17.36h0c3.09-2.27,5.7-5.17,8.92-7.31,4.12-2.74,8.57-4.94,12.66-7.71C94.44,115.67,94.6,114.9,94.24,115Z"/>
            <path class="cls-22" d="M99.77,136a27.45,27.45,0,0,0-4.38,1.63c-2.15.91-4.3,1.57-6.52,2.28-2.91.95-6.11,1.68-8.86,3.07-.2.1-.3.71,0,.68,6.82-.54,14.21-2.42,19.77-6.65C100,136.86,100.28,135.91,99.77,136Z"/>
            <path class="cls-22" d="M103.14,146.52c-2.87.65-5.6,1.76-8.39,2.67-1.43.47-2.89.88-4.34,1.31-.91.27-2.74,1.33-3.69,1.24-.17,0-.3.37-.14.45a4.45,4.45,0,0,0,2.29-.05,43.63,43.63,0,0,0,5.07-.86,37.24,37.24,0,0,0,9.23-3.76C103.44,147.37,103.61,146.41,103.14,146.52Z"/>
            <path class="cls-22" d="M109.2,156.33c-2.07.13-4,1.31-5.93,2.08-2.27.93-4.9,2.73-7.32,3-.2,0-.3.53-.08.56,2.3.32,4.62-.72,6.73-1.51a72.58,72.58,0,0,0,6.63-3.09C109.56,157.24,109.71,156.3,109.2,156.33Z"/>
            <path class="cls-22" d="M112.29,164.17c-2.54,0-4.49,2.14-6.84,2.81-.25.08-.34.56-.09.68,1,.45,2.53-.36,3.45-.72a12.28,12.28,0,0,0,3.6-1.75C112.67,165,112.77,164.17,112.29,164.17Z"/>
          </g>
          <g>
            <g>
              <g class="cls-23">
                <path class="cls-24" d="M57.53,83.85c-2.17,0-5,3-6,6-2.37,7.11-6.08,29.81-5,49.31s4.06,61.58,14.32,69,14.67.75,19.35-17.12,13-40.37,5.91-51.79S63.8,107.83,61.65,98.91a84,84,0,0,1-1.47-11C59.89,85,58.83,83.87,57.53,83.85Z"/>
              </g>
              <path class="cls-25" d="M84.54,141.43c-1.33-1.46-2.81-2.76-4.24-4.11a.19.19,0,0,1-.21-.06c-3.45-3.75-7-7.54-9.27-12.18-1.17-1.81-2.31-3.63-3.43-5.44a56.2,56.2,0,0,1-7.49-17.13A88.52,88.52,0,0,1,58,92.85c-.26-2.14,0-5.07-.92-7,0-.08-.1,0-.14,0l0-.16s0-.15,0-.17l-.37-.13c-.11,0-.19.24-.07.29.56.22.11.83,0,1.36-.18,1.16-.31,2.31-.39,3.49-.14,2.15-.08,4.33,0,6.49,0,4.08.11,8.14.32,12.21-.56,1.1-1.54,2.18-2.07,3.26a32.27,32.27,0,0,0-2.08,4.56,66.42,66.42,0,0,0-2,8.08q0-3.77.29-7.54c.67-10.1,1.66-20.3,3.25-30.29,0-.11-.09-.1-.12,0s-.08-.05-.15,0a2.68,2.68,0,0,0-.44,1c-.18.63-.31,1.28-.51,1.92a4.58,4.58,0,0,0-.14.53s-.09,0-.11.09a165.74,165.74,0,0,0-4.65,29,200.27,200.27,0,0,0,.63,29.39c.87,9.78,2.39,19.54,4.23,29.17.94,4.88,2.26,9.66,3.38,14.49,1.06,4.55,1.35,9.26,2.87,13.69-.09-.9-.19-1.8-.28-2.7-.38-1.62-.76-3.47-.81-3.77-.33-2-.65-4.07-1.06-6.09-.94-4.64-2.11-9.22-3-13.87-2-9.81-3.53-19.74-4.53-29.69a212,212,0,0,1-.92-29.92,160.45,160.45,0,0,1,3.82-27.42c.09-.24.28-.52.36-.73.2-.56.26-1.15.46-1.71.28-.8.47-1.61.69-2.41a270.45,270.45,0,0,0-3.5,29.37,127.1,127.1,0,0,0-.23,15.48v0a145.12,145.12,0,0,0,1.46,14.92c.77,5.15,1.69,10.26,2.65,15.38s2.36,10.3,3.29,15.51c.89,5,1.66,10,2.07,15,.2,2.42.06,4.83.12,7.25,0,.37,0,.74.06,1.1s.09.43.13.65a.2.2,0,0,1,.1.12,23.12,23.12,0,0,0,1.23,4.62.57.57,0,0,0,0-.25,29.67,29.67,0,0,1-1-7.84,63.13,63.13,0,0,0-.14-6.74c-.25-3.32-.71-6.63-1.25-9.92.43,1,.89,2.05,1.34,3.07A40.88,40.88,0,0,0,62.68,191a34.44,34.44,0,0,0,3.63,4.38c1.25,1.42,2.84,2.49,4,4a.36.36,0,0,0,0,.1,28.23,28.23,0,0,0,2.25,6.17A11.16,11.16,0,0,0,74,207.32s0,0,0,0c-.56-1.35-1.14-2.68-1.68-4,.06-.1.12-.28,0-.29h-.09a1.18,1.18,0,0,1,.29-.42c.33-.32.64-.65,1-1A10,10,0,0,0,75.21,199a18.83,18.83,0,0,0,1.94-7.1A4.74,4.74,0,0,0,79,193.6a.16.16,0,0,0,.15,0,21.29,21.29,0,0,1-2.43-3.63c-.2-.37-.4-.74-.6-1.09-.64-1.08-1.3-2.14-2-3.21.45-.19.64-1,.81-1.36.78-1.81,2-3.44,3-5.18,1-1.93,2.24-3.79,3.23-5.75.78-1.52,1.91-3.11,2.55-4.73.66.91,1.31,1.84,1.93,2.78v0a19.4,19.4,0,0,0-2-4l0,0c-.13-.17-.26-.34-.38-.52-1.15-1.54-2.05-3.25-3.26-4.74S78,159,76.75,157.43c-1-1.3-1.62-3.14-2.93-4.22.05,0,.08-.08.06-.12s-.08-.16-.17-.19a3,3,0,0,0,1-.87,6.68,6.68,0,0,0,.89-3c.27-1.83.47-3.68.65-5.51a44.4,44.4,0,0,0,.2-9.43l.14.18a37.67,37.67,0,0,0,5.69,5.81,26.6,26.6,0,0,1,3,2.94c1.26,1.41,2.68,2.46,3.46,4.26a.28.28,0,0,0,.06.08c-.12-.61-.29-1.2-.46-1.79A33.1,33.1,0,0,0,84.54,141.43ZM67.66,195.8a53.67,53.67,0,0,1-4.58-5.41,38.07,38.07,0,0,1-3.2-5.3,37.37,37.37,0,0,0-1.68-3.74l-.45-2.66c-.84-4.74-2.08-9.36-3-14.07-1.07-5.33-2-10.68-2.83-16.05-.53-3.43-.93-6.85-1.22-10.27,2.55,11.08,7.68,21.46,11.62,32.1a176.88,176.88,0,0,1,5.77,19.26c.7,2.85,1.35,5.71,2,8.57C69.32,197.39,68.47,196.65,67.66,195.8ZM74,200.08c-.41.62-1.48,1.4-2,2.25-.25-.68-.49-1.37-.69-2.07a.42.42,0,0,0,0-.27l-.19-.32c-.07-.26-.14-.53-.2-.8-.7-3-1.35-6-2.08-9a181.8,181.8,0,0,0-5.74-19.25c-4.07-11.24-9.78-22-12.5-33.65-.26-3.47-.38-6.95-.38-10.44a53.14,53.14,0,0,1,2.78-9.9c.61-1.51,1.42-3,2.11-4.45.37-.81.93-1.56,1.35-2.37,0,.61.07,1.21.11,1.82.7,10.27,3.39,20.25,5.28,30.33.2,1.06.41,2.12.63,3.17a.16.16,0,0,0,0,.17c.75,3.65,1.57,7.28,2.22,10.95.75,4.31,1.47,8.62,2.41,12.89-.21,0-.39.08-.6-.13a.11.11,0,0,0-.11,0,5.29,5.29,0,0,1-1.64.08,8.11,8.11,0,0,1-1.21.07c-.18,0-.39.12-.55,0a.09.09,0,0,0-.1,0,1.51,1.51,0,0,0-.2.17s-.07.2,0,.2a3.49,3.49,0,0,1,.87.19,11.79,11.79,0,0,0,2,.09,10,10,0,0,1,1.1.07.61.61,0,0,0,.55-.21c.09.41.19.82.28,1.22a52.74,52.74,0,0,0,4.77,13C73.42,186,74.8,188,76,190.06c.29.49.55,1,.85,1.45C76.3,194.5,75.65,197.49,74,200.08Zm2.12-42.69c.94,1.67,2.06,3.29,3.13,4.9,1.31,2,2.77,3.88,4.18,5.81-1.28,3-3.2,5.94-4.76,8.81-1,1.83-1.91,3.69-3,5.46-.54.87-.8,2.39-1.55,3-.45-.74-.9-1.49-1.32-2.25a53,53,0,0,1-4.87-13.55c-1.12-4.76-1.88-9.6-2.73-14.42-.55-3.18-1.26-6.33-1.93-9.49.86.76,2.2,2.46,2.54,2.8a27,27,0,0,0,4.13,3.5c1.19.79,2.39,1.4,3.5,1a.25.25,0,0,0,0,.1C74.13,154.64,75.25,155.93,76.07,157.39Zm-1-8.25c-.21,1.85-1.21,3.86-3.38,3.14a10.64,10.64,0,0,1-2.89-1.81,58.79,58.79,0,0,1-5.74-5.3c-.25-1.16-.48-2.33-.7-3.51-1.73-9.29-4.27-18.49-5.11-27.94-.16-1.69-.27-3.39-.37-5.09h0a.18.18,0,0,0,0-.15c-.17-3-.28-5.92-.35-8.89-.11-4.49-.44-9.1.38-13.54h0A13.45,13.45,0,0,1,57.44,90c.14,1.55.26,3.09.45,4.63a84.34,84.34,0,0,0,1.59,8.33,51.45,51.45,0,0,0,6.65,16,170.55,170.55,0,0,0,9.76,14.48A83,83,0,0,1,75.11,149.14Z"/>
              <g class="cls-26">
                <path class="cls-27" d="M57.53,83.85c-2.17,0-5,3-6,6a73.07,73.07,0,0,0-2,8.55A4.36,4.36,0,0,1,50.69,97c3.21-2.32,4.24,6.22,4.51,7.72.52,2.86.91,5.74,1.56,8.57a40.6,40.6,0,0,0,2.9,8.27c2.45,5.18,5.54,10,8.44,14.94A61.81,61.81,0,0,1,74.8,151a35.9,35.9,0,0,1,1.36,8,71.88,71.88,0,0,1-.3,8.56,106.6,106.6,0,0,1-2.56,18,30.1,30.1,0,0,1-2.6,7.26c-1.1,2-2.64,4.17-4.88,5-5.68,2-10.36-3.24-13.3-7.73,2,8.65,4.74,15.52,8.34,18.12,10.25,7.42,14.67.75,19.35-17.12s13-40.37,5.91-51.79S63.8,107.83,61.65,98.91a84,84,0,0,1-1.47-11C59.89,85,58.83,83.87,57.53,83.85Z"/>
              </g>
              <path class="cls-18" d="M59.84,76.86a3,3,0,0,0-1.57-.58c-2.58-.23-4.58,3.41-5.88,5.14-1.6,2.12-3.18,4.81-2.09,7.53,1,2.39,5.62.92,7.26.36a5.36,5.36,0,0,0,3.7-4.39C61.61,82.45,62.16,78.61,59.84,76.86Z"/>
            </g>
            <g>
              <g class="cls-23">
                <path class="cls-24" d="M88,68.71c1.27-1.76,5.44-2.16,8.4-1.16,7.1,2.4,27.45,13.14,42.35,25.76s46.67,40.38,46.4,53-8.26,12.16-25.34,5.1-40-14-44.87-26.52S103.31,88.18,97.49,81.09a81.4,81.4,0,0,0-7.86-7.79C87.46,71.29,87.2,69.76,88,68.71Z"/>
              </g>
              <path class="cls-25" d="M118.65,130.5A15.9,15.9,0,0,0,119.8,132a.26.26,0,0,0,0-.1c-1-1.7-1-3.46-1.31-5.32a26.24,26.24,0,0,1-.56-4.14,37.11,37.11,0,0,0-1.2-8l-.06-.22a44.1,44.1,0,0,0,7.64,5.53c1.58,1,3.17,1.92,4.79,2.8a6.49,6.49,0,0,0,2.91,1.08,3.1,3.1,0,0,0,1.3-.26c0,.08,0,.09,0,.25s.14.09.14,0c.07,1.7,1.18,3.29,1.59,4.88.5,1.87,1.38,3.62,1.84,5.5s1.28,3.62,1.82,5.46l.18.62,0,0a19,19,0,0,0,2,4v0c-.39-1.06-.73-2.13-1.06-3.22a53.71,53.71,0,0,0,5.31.83c2.16.39,4.37.55,6.54.89,1.95.3,4,.29,5.91.76.41.1,1.15.42,1.57.17.46,1.17.91,2.34,1.39,3.49.16.38.33.76.5,1.14a20.6,20.6,0,0,1,1.43,4.13c.06,0,.11,0,.12-.1a4.67,4.67,0,0,0-.22-2.52,19,19,0,0,0,6.84,2.74,10.21,10.21,0,0,0,3.07.15c.46-.07.91-.11,1.37-.19a1.27,1.27,0,0,1,.5,0,.18.18,0,0,0-.05.07c-.07.11.11.17.22.18.76,1.24,1.46,2.51,2.21,3.77l0,0a10.8,10.8,0,0,0-.51-2.18,28.53,28.53,0,0,0-3.56-5.52.27.27,0,0,1-.07-.08c-.48-1.8-.36-3.72-.75-5.57a35.1,35.1,0,0,0-1.3-5.54,42.33,42.33,0,0,0-2.16-5.21c-.54-1-1.08-1.95-1.64-2.91,2.3,2.41,4.66,4.78,7.15,7a66.65,66.65,0,0,0,5.3,4.18,29.3,29.3,0,0,1,5.67,5.51.47.47,0,0,0,.21.12,22.44,22.44,0,0,0-2.94-3.76.28.28,0,0,1,0-.15l-.43-.5c-.28-.25-.55-.49-.85-.72-1.9-1.5-3.9-2.85-5.71-4.46-3.78-3.37-7.3-7-10.74-10.72-3.6-3.88-6.83-8.06-10.39-12s-7-7.67-10.66-11.39a146.46,146.46,0,0,0-11-10.17s0,0,0,0h0a130.34,130.34,0,0,0-12.48-9.16A274.88,274.88,0,0,0,94,68.15c.78.31,1.53.64,2.34.9.57.18,1.07.49,1.64.67.22.07.56.08.8.15A161.41,161.41,0,0,1,123,83.36a211.55,211.55,0,0,1,23.32,18.79c7.33,6.8,14.3,14,20.95,21.52,3.14,3.54,6.1,7.23,9.23,10.78,1.36,1.55,2.79,3,4.22,4.52.21.22,1.45,1.64,2.51,2.92.67.61,1.33,1.23,2,1.85-2.62-3.88-6.2-7-9.19-10.54-3.18-3.82-6.19-7.75-9.52-11.44-6.57-7.28-13.44-14.38-20.71-21a199.43,199.43,0,0,0-23.06-18.23A166.15,166.15,0,0,0,96.74,68.77c-.07,0-.12,0-.13,0l-.51-.21c-.63-.22-1.23-.52-1.85-.75a2.47,2.47,0,0,0-1.09-.27c-.09,0-.11.05-.1.11s-.16,0-.06.1c8.93,4.76,17.66,10.13,26.12,15.68q3.16,2.07,6.19,4.31a66.88,66.88,0,0,0-7.68-3.23,32.45,32.45,0,0,0-4.9-1.09c-1.18-.23-2.63-.1-3.84-.32-3.12-2.62-6.33-5.12-9.54-7.62-1.71-1.32-3.41-2.69-5.22-3.87-1-.64-2-1.25-3-1.79-.47-.26-1.23-.27-1.07-.85,0-.12-.23-.23-.27-.11l-.12.37c0,.07,0,.12.11.15l.14.07c-.09,0-.16,0-.12.08,1,1.93,3.51,3.48,5.06,5a91.2,91.2,0,0,1,6.58,7.31,56.47,56.47,0,0,1,9.14,16.31c.76,2,1.53,4,2.27,6,2.36,4.58,3.22,9.73,4.12,14.75a.2.2,0,0,1-.07.2c.22,2,.35,3.92.72,5.86A32.2,32.2,0,0,0,118.65,130.5Zm53,17.19c-1.89-2.23-3.78-4.48-5.63-6.75a178,178,0,0,1-11.89-16.22c-6.1-9.55-11.29-19.91-18.59-28.63q3.82,3.43,7.45,7.17c3.78,3.9,7.5,7.87,11.1,11.93,3.19,3.59,6.13,7.38,9.41,10.9l1.84,2a39.85,39.85,0,0,0,2,3.59,37,37,0,0,1,2.28,5.75,52.48,52.48,0,0,1,1.56,6.92C171.33,145.47,171.41,146.59,171.63,147.69Zm-9.48,1.4c-.19-.52-.42-1-.64-1.55-.92-2.25-1.67-4.55-2.7-6.75a52.63,52.63,0,0,0-7.44-11.61q-.41-.5-.81-1a.62.62,0,0,0,.5-.32c.17-.37.41-.57.61-.92a12.43,12.43,0,0,0,1.12-1.63,3.34,3.34,0,0,1,.37-.81c.06-.08-.09-.15-.15-.13a1.32,1.32,0,0,0-.26,0,.09.09,0,0,0-.05.08c0,.2-.23.29-.33.44a7.67,7.67,0,0,1-.79.92,5.11,5.11,0,0,1-1.05,1.26.13.13,0,0,0,0,.1c0,.29-.13.41-.26.56-2.84-3.32-5.85-6.49-8.83-9.7-2.53-2.73-4.94-5.57-7.4-8.37,0,0,0-.1-.11-.13-.71-.81-1.43-1.61-2.15-2.41-6.9-7.59-13.23-15.75-21-22.51-.45-.4-.92-.78-1.38-1.18.89.15,1.84.15,2.71.35,1.59.34,3.25.58,4.81,1a52.94,52.94,0,0,1,9.58,3.76c2.79,2.1,5.48,4.29,8.1,6.59,7.66,9.21,12.78,20.25,19.29,30.28a184.21,184.21,0,0,0,11.89,16.18c1.94,2.38,3.94,4.71,5.91,7.07l.51.65c0,.11.09.23.15.34a.38.38,0,0,0,.22.15q.64.88,1.23,1.8c-1-.11-2.24.27-3,.22C167.67,151.7,164.89,150.43,162.15,149.09Zm-28.5-25.93a.19.19,0,0,0-.06-.07c1-.67,1.19-2,1.28-3.42a26.39,26.39,0,0,0-.31-5.4c-.06-.48-.6-2.58-.7-3.73,2.12,2.44,4.21,4.91,6.41,7.28,3.33,3.58,6.74,7.1,9.86,10.87A52.61,52.61,0,0,1,158,140.74c.36.8.69,1.61,1,2.42-1,.2-2.34-.51-3.36-.6-2.08-.19-4.12-.59-6.18-.9a100.06,100.06,0,0,1-9.89-1.52c-.69-2.28-1.33-4.59-2.12-6.84-.63-1.81-1.25-3.69-2-5.45C134.76,126.32,134.41,124.65,133.65,123.16Zm-17.25-9.91a168.33,168.33,0,0,0-5.65-16.52,51.57,51.57,0,0,0-8.76-15c-1.81-2.14-3.66-4.33-5.68-6.29-1.11-1.08-2.27-2.1-3.42-3.14a13.43,13.43,0,0,1-2.82-2.76h0c4,2,7.51,5.07,11,7.86q3.48,2.77,6.87,5.65a.27.27,0,0,0,.11.1h0c1.29,1.11,2.57,2.22,3.83,3.36,7,6.37,12.84,14,19.21,20.94q1.2,1.32,2.37,2.67a59.78,59.78,0,0,1,.77,7.77,11.07,11.07,0,0,1-.3,3.4c-.74,2.17-2.94,1.75-4.54.81A84.6,84.6,0,0,1,116.4,113.25Z"/>
              <g class="cls-26">
                <path class="cls-27" d="M88,68.71c1.27-1.76,5.44-2.16,8.4-1.16a73.86,73.86,0,0,1,8,3.53,4.49,4.49,0,0,0-1.8.13c-3.79,1.16,2.41,7.13,3.44,8.26,2,2.13,4,4.18,5.89,6.41a40.3,40.3,0,0,1,4.84,7.29c2.66,5.09,4.64,10.46,6.83,15.75A61.92,61.92,0,0,0,131.1,123a36,36,0,0,0,5.58,5.92,72.71,72.71,0,0,0,7,4.92,105.85,105.85,0,0,0,15.87,8.79,30.27,30.27,0,0,0,7.36,2.31c2.26.32,4.92.41,6.91-.89,5.07-3.29,3.67-10.22,1.86-15.27,5.67,6.84,9.52,13.14,9.43,17.58-.27,12.65-8.26,12.16-25.34,5.1s-40-14-44.87-26.52S103.31,88.18,97.49,81.09a81.4,81.4,0,0,0-7.86-7.79C87.46,71.29,87.2,69.76,88,68.71Z"/>
              </g>
              <path class="cls-18" d="M86.57,72.33A5.35,5.35,0,0,0,92.3,72c1.44-1,5.42-3.81,4.1-6-1.52-2.51-4.62-2.88-7.28-2.88-2.16,0-6.27-.6-7.64,1.6A2.94,2.94,0,0,0,81,66.33C81,69.24,84.38,71.12,86.57,72.33Z"/>
            </g>
          </g>
        </g>
      </g>
    </g>
  </g>
</svg>
