<svg id="Layer_1" data-name="Layer 1" xmlns="http://www.w3.org/2000/svg" width="240.81" height="302.67" viewBox="0 0 240.81 302.67">
  <defs>
    <style>
      .cls-1 {
        fill: #ff0;
      }

      .cls-2 {
        fill: #ff641b;
      }

      .cls-2, .cls-3 {
        stroke: #5b1e00;
        stroke-miterlimit: 10;
      }

      .cls-3 {
        fill: #91623a;
      }
    </style>
  </defs>
  <g>
    <path class="cls-1" d="M70,39.05a83.6,83.6,0,0,1-27.84-4.37,17.73,17.73,0,1,0-24.3,7.24,1442.08,1442.08,0,0,1-1,241.65,4.43,4.43,0,0,0,0,.52,9.88,9.88,0,0,0,19.75.19c2-38.51,3.16-77.39,3.36-115.72a94.92,94.92,0,0,0,34,5.84c19.4,0,39.18-4.73,58.31-9.29,18.39-4.39,37.41-8.93,55.26-8.93,12,0,22.53,2,32.22,6.13a7.13,7.13,0,0,0,2.87.59h0a7.27,7.27,0,0,0,5.22-12.3c-4.69-4.87-9.48-9.26-14.11-13.5-15.44-14.17-27.64-25.36-28.35-45.65C184.59,70,197.65,54.71,227.68,42a7.27,7.27,0,0,0,.3-13.24c-12.11-5.81-25.37-8.64-40.53-8.64-19.86,0-40.34,4.91-60.14,9.66C108.18,34.31,88.41,39.05,70,39.05Z"/>
    <g>
      <path class="cls-2" d="M222.05,156.79c-59.76-25.46-128.16,32.93-187.93,2.66a1.26,1.26,0,0,1-.66-1.38c7.13-35.16,6.25-72.45-3.39-119.76a1.25,1.25,0,0,1,1.78-1.39c60.45,29.2,133.08-31.83,193.53-2.8a1.26,1.26,0,0,1,0,2.3c-22.06,9.39-47.05,24.73-46,55.24,1,29.49,24,42.21,44.12,63.1A1.26,1.26,0,0,1,222.05,156.79Z"/>
      <path class="cls-3" d="M26.71,288h0a3.89,3.89,0,0,1-3.89-3.88,1454.69,1454.69,0,0,0,0-254.54,3.89,3.89,0,0,1,3.89-3.88h0a3.88,3.88,0,0,1,3.88,3.88,2399.92,2399.92,0,0,1,0,254.54A3.88,3.88,0,0,1,26.71,288Z"/>
      <circle class="cls-3" cx="26.43" cy="26.43" r="11.72"/>
    </g>
  </g>
</svg>
