<svg id="Layer_1" data-name="Layer 1" xmlns="http://www.w3.org/2000/svg" width="330.61" height="341.75" viewBox="0 0 330.61 341.75">
  <defs>
    <style>
      .cls-1 {
        fill: #ff0;
      }

      .cls-2 {
        fill: #e58361;
      }

      .cls-18, .cls-19, .cls-2, .cls-20, .cls-3 {
        stroke: #9b372d;
      }

      .cls-10, .cls-18, .cls-19, .cls-2, .cls-20, .cls-3 {
        stroke-miterlimit: 10;
      }

      .cls-3 {
        fill: #a35e40;
      }

      .cls-4 {
        fill: #d88866;
      }

      .cls-12, .cls-15, .cls-16, .cls-17, .cls-4, .cls-5, .cls-6, .cls-7, .cls-8 {
        fill-rule: evenodd;
      }

      .cls-5 {
        fill: #e29a76;
      }

      .cls-6 {
        fill: #f2aa86;
      }

      .cls-7 {
        fill: #d87556;
        opacity: 0.31;
      }

      .cls-8 {
        fill: #ffc7c0;
      }

      .cls-9 {
        fill: #6b3632;
      }

      .cls-10 {
        fill: none;
        stroke: #a35e40;
        stroke-width: 2px;
      }

      .cls-11, .cls-13, .cls-15 {
        fill: #f5916a;
      }

      .cls-12 {
        fill: #f9b690;
      }

      .cls-13 {
        opacity: 0.5;
      }

      .cls-14 {
        fill: #ffc7ab;
      }

      .cls-15 {
        opacity: 0.43;
      }

      .cls-16 {
        fill: #d67254;
      }

      .cls-17 {
        fill: #ffd4cc;
      }

      .cls-18 {
        fill: #ff7d50;
      }

      .cls-19 {
        fill: #f45c4d;
      }

      .cls-20 {
        fill: #f26f51;
      }

      .cls-21 {
        fill: #9b372d;
      }

      .cls-22 {
        opacity: 0.42;
      }
    </style>
  </defs>
  <g>
    <path class="cls-1" d="M197.91,324.51c1,.28,2,.52,3,.71.5.1,1,.18,1.52.26a32.21,32.21,0,0,0,4.64.37h.2c.46,0,.92,0,1.37,0,.85,0,1.71-.11,2.54-.22a26,26,0,0,0,6.37,2.92,25.51,25.51,0,0,0,7,1.09H225a30,30,0,0,0,16.64-5.32c.52,0,1,.06,1.55.06h.37a24,24,0,0,0,14.59-5.6h0l1.12-.14c6.36-.91,9.73-3.78,11.51-6.41,5.59-.67,8.65-3.46,10.3-5.93l0-.06.54-.12,1.08-.29.61-.19c.38-.12.76-.25,1.21-.42L285,305a24.77,24.77,0,0,0,3.07-1.47l.39-.24c.37-.22.74-.44,1.06-.66l.46-.31c.29-.21.58-.42.89-.66l.7-.51c.24-.18.49-.37.74-.58l.55-.46c.26-.22.5-.45.81-.74l.38-.37c.38-.38.74-.77,1.06-1.15l.32-.42c.26-.31.5-.64.72-.95l.33-.5c.22-.34.41-.68.61-1.05.09-.16.18-.32.25-.47a14.42,14.42,0,0,0,.7-1.62c.1-.29.2-.58.28-.87l1.71-.12.64-.05.94-.09.62-.07.89-.12.61-.09c.29,0,.56-.09.87-.15l.56-.1.89-.2.54-.13.94-.27.44-.13c.31-.1.6-.21.91-.33.14,0,.28-.1.41-.15.4-.16.79-.33,1.12-.5.62-.25,1.16-.5,1.65-.75a5.86,5.86,0,0,0,1.95-1.58c.35-.43.64-.83.94-1.27l.15-.21c.28-.42.53-.83.74-1.22l.34-.64c.17-.3.33-.6.46-.86s.15-.28.23-.44c.18-.38.34-.75.51-1.15l.14-.35c.11-.29.21-.58.31-.88,0-.15.09-.29.12-.39.11-.4.21-.79.29-1.21a2.14,2.14,0,0,0,.06-.35c.06-.31.09-.61.12-.93,0-.14,0-.28,0-.42a11.79,11.79,0,0,0,0-1.19c0-.15,0-.29,0-.43,0-.32-.07-.62-.13-.94,0-.12,0-.25-.08-.42a10.42,10.42,0,0,0-.35-1.21c-.06-.14-.11-.28-.14-.33a8,8,0,0,0-.42-.91c-.05-.11-.11-.21-.19-.35a8.24,8.24,0,0,0-.63-.95,3.75,3.75,0,0,0-.26-.33c-.18-.22-.37-.44-.53-.61s-.19-.19-.3-.3-.51-.47-.82-.72l-.23-.17c-.22-.17-.45-.32-.68-.47l-.34-.22s0-.18,0-.2a9.37,9.37,0,0,0-.14-1.2s0-.07,0-.11a9.67,9.67,0,0,0-.32-1.26l0-.08a8.45,8.45,0,0,0-.57-1.33,1.63,1.63,0,0,0-.09-.19,8.66,8.66,0,0,0-.88-1.32l-.09-.11a9.42,9.42,0,0,0-2.38-2.05l-.08-.05a12.33,12.33,0,0,0-1.31-.66l-.07,0a15.33,15.33,0,0,0-4.06-1c0-.1-.12-.35-.13-.37a9,9,0,0,0-.66-1.42.54.54,0,0,0-.05-.11,9.21,9.21,0,0,0-.87-1.23l-.14-.17a9.34,9.34,0,0,0-2.49-2l0,0a12.43,12.43,0,0,0-1.36-.63l-.06,0a11.64,11.64,0,0,0-1.34-.43h0a17.66,17.66,0,0,0-2.78-.47h-.05c-.42,0-.87-.07-1.34-.09a8.75,8.75,0,0,0-.84-1.21l-.09-.11a9.42,9.42,0,0,0-2.14-1.85l-.09-.05c-.22-.13-.44-.26-.67-.38s-.39-.24-.59-.35a7.56,7.56,0,0,0-3.18-.9l-.31,0-1-.15c-.67-.08-1.39-.14-2.15-.18l-.58,0-.24-.36c-.16-.23-.33-.46-.48-.64a8.43,8.43,0,0,0-.73-.74,6.54,6.54,0,0,0-.5-.45,10,10,0,0,0-1.36-.9l-.06,0a6.87,6.87,0,0,0-1.69-.64,7.32,7.32,0,0,0-1.62-.19h-.45l-.47-.09c-.4-.06-.82-.11-1.31-.16l-.21,0-1.33-.1h-.2c-.47,0-1,0-1.48,0h-.35l-1.2,0h-.28c-.52,0-1.07,0-1.6.06h-.34l-1.78.11-.26,0-2,.14c-.42,0-.88.06-1.4.06h-.27c-.47,0-.93,0-1.41-.05l-.48,6,.34-6a18.57,18.57,0,0,1-1.95-.25l-2.47-1.58-3.4-2.2-2.7-1.81q-1.84-1.23-3.68-2.51l-1.8-1.26-1.79-1.27-1.75-1.27-2.46-1.82-1.72-1.3-1.68-1.31-1.25-1-.4-.32-1.65-1.34-.2-.17L226.91,221l-1.52-1.3-.59-.52-.9-.8-.59-.53c-.27-.25-.55-.5-.83-.77l-.57-.53-1.36-1.29-1.28-1.28c-.24-.24-.47-.49-.7-.73l-.51-.52-.91-1-.24-.26c-.36-.4-.71-.81-1.08-1.24l-.25-.31c-.24-.29-.48-.57-.71-.86l-.34-.44-.58-.74-.23-.32s-.42-.58-.57-.81l-.31-.45c-.15-.22-.28-.43-.42-.65l-.29-.45-.34-.59-.25-.43-.31-.61-.2-.39c-.1-.2-.18-.41-.27-.6l-.13-.31-.09-.23c8.33-1,18.1-4.38,28-14.52a7.93,7.93,0,0,0,.59-.71c23.28-10.33,38-19,46.25-24.56,16-10.69,18.69-16.37,19-20.1a4.87,4.87,0,0,0,0-.66l-.8-123.32a6,6,0,0,0-6-6h-268l-.61,0h-.54a6,6,0,0,0-6,5.69L12.37,218a6,6,0,0,0-.12,2.38l-.09,1.74a12.84,12.84,0,0,0,.22,3.07c0,.16.06.32.1.48s.09.39.15.59a9.67,9.67,0,0,0,.77,7.91c2.69,4.63,8.69,6.69,19.46,6.69h0c12.44,0,32.11-2.84,58.56-8.45-.18.84-.35,1.66-.53,2.43a41,41,0,0,1-2,6.7c-1,2.42-2.34,4.83-3.74,7.38-5.07,9.33-12,22.1.93,34.29,9.73,9.15,26.18,11.69,38.19,13.55,1.61.25,3.12.48,4.53.72,2.38.4,4.79.87,7.14,1.37,1.31.29,2.68.6,4.09.94,3,.73,6,1.55,8.76,2.44a100.36,100.36,0,0,1,13.41,5.21c4.93,2.37,9.39,4.76,13.7,7.07a167.45,167.45,0,0,0,16.15,8A53.32,53.32,0,0,0,197.91,324.51Z"/>
    <g>
      <path class="cls-2" d="M260.1,18.17,251,138.44s-3.05,14.43,47.39,3.05l-.8-123.32Z"/>
      <path class="cls-2" d="M29.62,18.17c-.39,0-.77,0-1.15,0L18.15,222.52s-2,22.51,56.91,5.34L71.38,18.17Z"/>
      <path class="cls-3" d="M185.14,138.82S43.42,188.28,42.43,192.63c-.14.63,2.59.33,9-1.17,51.4-12-20.76,25.16-23.86,26.81-3.26,1.74-48.45,35.53,92.25,1.54s201-85.36,171.12-80.21c-36.7,6.33-65.62,4.32-.68-26.28C308.39,104.79,273.26,98,185.14,138.82Z"/>
      <g>
        <path class="cls-4" d="M268.32,255s10.36,9.86,23.7,8.77,15.74.39,15.27,5.24-20.46,4.72-20.46,4.72-19.95-3.42-20.12-4.91S268.32,255,268.32,255Z"/>
        <path class="cls-4" d="M258.45,249.08s10.61,9.58,23.92,8.13,15.74,0,15.39,4.82-20.34,5.27-20.34,5.27-20-2.88-20.23-4.37S258.45,249.08,258.45,249.08Z"/>
        <path class="cls-5" d="M245.78,243.06s12.82,9.8,26.16,8.71,15.73.39,15.27,5.23-20.47,4.72-20.47,4.72-19.94-3.42-20.11-4.91S245.78,243.06,245.78,243.06Z"/>
        <path class="cls-5" d="M237.16,238.67s10.36,9.86,23.7,8.77,15.74.39,15.27,5.24-20.46,4.72-20.46,4.72-19.95-3.42-20.12-4.91S237.16,238.67,237.16,238.67Z"/>
        <path class="cls-4" d="M245.78,243.21s12.82,9.8,26.16,8.71,15.74.39,15.27,5.24-20.46,4.71-20.46,4.71-19.95-3.41-20.12-4.91S245.78,243.21,245.78,243.21Z"/>
        <path class="cls-4" d="M237.16,238.82s10.36,9.87,23.7,8.78,15.74.38,15.28,5.23-20.47,4.72-20.47,4.72-19.95-3.42-20.11-4.91S237.16,238.82,237.16,238.82Z"/>
        <path class="cls-6" d="M213.29,28.49s-16.77,150.32-8.68,174.77S282.51,264,282.51,264s16,8.57,18.18,7.6,17.51-1.55,9.49,10.56-86.62-7.66-87.09-9S166,238.52,165.54,236.25,157.26,34.1,157.26,34.1,203.84,18.18,213.29,28.49Z"/>
        <path class="cls-7" d="M191.21,25.76s-16.52,136.68-15.06,162.49c1.61,28.42,27.57,51.63,61.4,70.72,13.37,7.55,39.68,21.14,54.86,20.28,2-.11,14.37-1.16,14.43-1.65,2.62-.84,6.89.35,2.5,5.81-19.28,9.85-92.94-9.2-92-10.18s-53.78-30.75-54.28-33-8.28-202.14-8.28-202.14S181.76,15.45,191.21,25.76Z"/>
        <path class="cls-8" d="M305.11,268.53l-2.23.16a1.66,1.66,0,0,1-1.7-1.29,3.85,3.85,0,0,0-1.59-2.06.3.3,0,0,1,.14-.54l3.86-.24a1.32,1.32,0,0,1,.75.17A3.44,3.44,0,0,1,306.2,267,1.23,1.23,0,0,1,305.11,268.53Z"/>
        <path class="cls-8" d="M308.24,277.54l-3.55.26a2.66,2.66,0,0,1-2.71-2,6,6,0,0,0-2.53-3.13.44.44,0,0,1,.23-.81l6.15-.38a2.25,2.25,0,0,1,1.19.26,5.29,5.29,0,0,1,3,3.48A1.89,1.89,0,0,1,308.24,277.54Z"/>
        <path class="cls-8" d="M296.3,261.47l-2.23.16a1.66,1.66,0,0,1-1.7-1.29,3.85,3.85,0,0,0-1.59-2.06.3.3,0,0,1,.14-.54l3.86-.24a1.32,1.32,0,0,1,.75.17,3.44,3.44,0,0,1,1.86,2.29A1.23,1.23,0,0,1,296.3,261.47Z"/>
        <path class="cls-8" d="M285.41,255.82l-2.23.16a1.65,1.65,0,0,1-1.7-1.29,3.92,3.92,0,0,0-1.6-2.06.3.3,0,0,1,.15-.54l3.86-.24a1.27,1.27,0,0,1,.74.17,3.46,3.46,0,0,1,1.87,2.29A1.23,1.23,0,0,1,285.41,255.82Z"/>
        <path class="cls-8" d="M274.71,250.48l-1.67.12a1.25,1.25,0,0,1-1.28-1,2.92,2.92,0,0,0-1.19-1.54.22.22,0,0,1,.1-.4l2.9-.19a1.1,1.1,0,0,1,.56.13,2.59,2.59,0,0,1,1.4,1.72A.93.93,0,0,1,274.71,250.48Z"/>
        <path class="cls-9" d="M296.83,263.49a1.41,1.41,0,0,1-.85.42c-.31.06-.62.11-.92.14-.62.07-1.23.1-1.85.13l-3.67.07c-1.22,0-2.44.13-3.66.05a25.63,25.63,0,0,1-3.66-.41v-.1a19.15,19.15,0,0,1,3.67-.49,32.08,32.08,0,0,1,3.67.15l3.66.23c.61,0,1.21.07,1.82.07a2.89,2.89,0,0,0,1.7-.31Z"/>
        <path class="cls-9" d="M287.8,256.81a20.76,20.76,0,0,1-4.38.55c-1.47,0-2.94-.07-4.39-.08s-2.9.08-4.34.07-2.9,0-4.39-.09v-.1a20.82,20.82,0,0,1,4.36-.81,26.1,26.1,0,0,1,4.42.13c1.47.12,2.92.3,4.36.38a19.78,19.78,0,0,0,4.35-.15Z"/>
        <path class="cls-9" d="M276.2,251.6a18.24,18.24,0,0,1-3.68.6c-1.24.06-2.48,0-3.71,0s-2.45,0-3.66,0-2.42-.08-3.67-.17l0-.1a12.22,12.22,0,0,1,3.68-.73,21.87,21.87,0,0,1,3.72.24,26.34,26.34,0,0,0,7.31.11Z"/>
        <path class="cls-10" d="M157.33,36c0-1.24-.07-1.9-.07-1.9s1.85-.63,4.89-1.56c8.71-5.93,22.77-13.64,29.06-6.78h0c9.65-1.31,18.51-1.16,22.08,2.73,0,0-16.77,150.32-8.68,174.77,4.52,13.65,28.24,31,48.33,43.61a26.35,26.35,0,0,0,7.92.57c5.83-.47,9.57-.46,11.9.11l.81-.05a1.1,1.1,0,0,1,.56.13,2.68,2.68,0,0,1,1.3,1.4,4,4,0,0,1,.75,2.46,29.31,29.31,0,0,1,7.55.37h.16a1.27,1.27,0,0,1,.74.17,3.7,3.7,0,0,1,.47.29,3.52,3.52,0,0,1,2.16,3.52c0,.3,0,.61,0,.94,9-.56,10.82,1.07,10.52,5.26a2.16,2.16,0,0,1-.77,1.44c9-.3,10.7,1.37,10.3,5.54-.08.87-.79,1.58-1.9,2.16,4.52.29,9.87,2.43,5.41,10a11.09,11.09,0,0,1-1.46,2.26c-.46.23-.95.45-1.46.65-2.18,1.11-5.45,1.71-9.46,1.91-27.49,2.32-81.9-11.9-81.13-12.74,1-1.05-53.78-30.75-54.28-33s-8.28-202.14-8.28-202.14S155.7,37.25,157.33,36Z"/>
      </g>
      <path class="cls-11" d="M266.06,303.5c6.37,2.22,9.77-1.84,10.52-4.95,0,0,6,.9,11.46-5.41,2.41-.13.32,1.06,2.52-.07-2.37,4.09-8,7.33-13.4,7.62-.56,1.82-2.2,6.23-10.52,5.59A5.08,5.08,0,0,0,266.06,303.5Z"/>
      <g>
        <path class="cls-12" d="M172.68,26.41,90.35,56.05,101,170.37c1.48,33.65-2.28,63.38-6.62,73.57-5.23,12.27-16.49,23.4-4.21,34.94,9.57,9,28.28,10.82,39.59,12.72,8.72,1.47,22.66,4.55,35,10.47,19.75,9.48,32.63,19.6,46.14,17.5l1.67-.33c8.53,6.69,19.11,5.23,27.47-1.22,9.15,1.93,15.63-5.2,15.56-5.12,10.91-.28,11.14-6.56,11.19-6.66,7.55.4,9.93-3.62,10.52-5.54,6-.32,12.41-4.35,14.11-9.14a6.93,6.93,0,0,0-4.92-9.16,37,37,0,0,0-6.16-.74c-9-.78-23.12-7.21-31.7-8.92-10.67-2.13-29.59-15.86-37.38-21.28-16.36-11.4-20.19-14.77-33.57-23.91C152.1,220,166,69.16,172.68,26.41Z"/>
        <path class="cls-13" d="M94.46,243.93c4.34-10.18,8.1-39.91,6.61-73.56L90.42,56.05l6.64-2.39,10.35,111.07c1.48,33.64-2.28,63.37-6.62,73.56-5.23,12.27-16.48,23.4-4.21,35,9.57,9,28.28,10.81,39.6,12.72,8.72,1.47,22.66,4.54,35,10.47,19.75,9.48,32.63,19.59,46.14,17.49l1.67-.33c8.54,6.7,12.79,9,21.15,2.51,9.15,1.93,15.61-5.53,15.54-5.44,1.46,1.38,9-.94,11.14-4-.27,1.38-1.77,6-11.13,6.28.07-.09-6.41,7.05-15.57,5.12-8.35,6.45-18.93,7.91-27.46,1.22l-1.68.33c-13.5,2.09-26.38-8-46.13-17.5-12.35-5.93-26.29-9-35-10.47-11.31-1.91-30-3.71-39.6-12.72C78,267.34,89.22,256.21,94.46,243.93Z"/>
        <path class="cls-14" d="M281.14,287.34a37.18,37.18,0,0,0-6.17-.74c-9-.79-23.12-7.21-31.7-8.92-10.67-2.13-29.59-15.86-37.38-21.29-16.36-11.39-20.19-14.76-33.56-23.9-25.6-7.58-11.74-158.39-5-201.14L91.61,58.6l-.31-3.25L173.64,25.7c-6.72,42.75-20.58,193.57,5,201.15,13.37,9.13,17.21,12.5,33.57,23.9,7.78,5.42,26.71,19.16,37.37,21.28,8.58,1.72,22.73,8.14,31.71,8.93a35.18,35.18,0,0,1,6.16.74,6.93,6.93,0,0,1,4.92,9.15c-1,2.88-3.74,5.49-7.05,7.18a9.58,9.58,0,0,0,.71-1.53A6.93,6.93,0,0,0,281.14,287.34Z"/>
        <path class="cls-10" d="M94.38,243.94c4.34-10.19,8.1-39.92,6.62-73.57L90.35,56.05l1-.35,0-.35L173.64,25.7c-6.72,42.75-20.58,193.57,5,201.15,13.37,9.13,17.21,12.5,33.57,23.9,7.78,5.42,26.71,19.16,37.37,21.28,8.58,1.72,22.73,8.14,31.71,8.93a35.18,35.18,0,0,1,6.16.74,6.93,6.93,0,0,1,4.92,9.15,12.81,12.81,0,0,1-4.94,5.91,18.35,18.35,0,0,1-10.13,3.94c-.59,1.92-3,5.94-10.52,5.54-.05.1-.28,6.38-11.19,6.66.07-.08-6.41,7.05-15.56,5.12-8.36,6.45-18.94,7.91-27.47,1.22l-1.67.33c-13.51,2.1-26.39-8-46.14-17.5-12.35-5.92-26.29-9-35-10.47-11.31-1.9-30-3.71-39.59-12.72C77.89,267.34,89.15,256.21,94.38,243.94Z"/>
        <path class="cls-15" d="M105.53,56.41C108,76.9,118,164.48,115.28,217.11c1.55.83,3.07,1.74,4.56,2.7.47-6,.85-12.14,1.14-18.19,2.31-49.8,1.17-133.9-.58-150.56l-14.87,5.35Zm5.74,188.64c-.64,2.81-1,7.29,2.44,9.63,5.23,3.56,14.23,1.87,22.13,9.28-1.58-5.27-14.76-9.43-18.5-12a5.61,5.61,0,0,1-2.53-5.56C115.48,240.55,112.15,241.27,111.27,245.05Z"/>
        <path class="cls-16" d="M237.9,311.41c-1.05-.47-5.44-.93-6.4-1.27-1.61-.58-7.89-2.64-7.89-2.64s3.44,1.69,5.12,2.63a25,25,0,0,0,5.47,2.19c.94.33,1.9.67,2.84,1.1a3.49,3.49,0,0,1,1.94,1.79,5.62,5.62,0,0,1-.15,3.71c3.4-2.37,2.28-6.09-.93-7.51ZM254.37,314a4.74,4.74,0,0,0,1.84-4c0-2.73-1.28-4.51-5.35-4.7-6.28.17-10.56-1.06-12.92-3.63,0,0-.14,1.72,2.14,2.53a28.23,28.23,0,0,0,9.84,2.32h0c5.86.26,4.46,7,4.46,7a1,1,0,0,0,0,.39ZM266.28,308c.13-1.5.24-7.34-5.76-7.61h0c-.72,0-1.45-.1-2.16-.18s-1.38-.19-2.07-.31a34.88,34.88,0,0,1-8.08-2.9,14,14,0,0,1-1.82-1.19s2,.56,2.46.77c1.91.8,3.3.75,6.58,1.34.63.12,2.15.27,2.83.35s1.75-.09,2.43-.06h0c5.3.24,7.78,5.19,5.59,9.79Zm5.12-16.59a64.54,64.54,0,0,1-11.5-1.63,12.46,12.46,0,0,1-4.25-1.84l-.08-.06h0a3.33,3.33,0,0,0,1.79,2.15,39.2,39.2,0,0,0,13.88,3.56c5.55.41,5.16,7.32,5,9.14a7.65,7.65,0,0,0-.28-9.41A6.53,6.53,0,0,0,271.4,291.4Z"/>
        <path class="cls-17" d="M288.69,284.73c-1.15.55-3.09,1.89-5.32,5.1a1.9,1.9,0,0,1-1.6.83c-2.18-.05-7.12-.37-8.62-2.23s3.48-4.85,5.53-5.93a3.12,3.12,0,0,1,1.77-.34,35.49,35.49,0,0,1,8.2,1.69A.49.49,0,0,1,288.69,284.73Z"/>
        <path class="cls-17" d="M273.3,295.39a6.12,6.12,0,0,0-3.71,2.46,1.28,1.28,0,0,1-1.45.52l-2-.64a1.36,1.36,0,0,1-.46-2.29,7.44,7.44,0,0,1,3.51-1.72,3,3,0,0,1,1.53.12l2.6.9A.34.34,0,0,1,273.3,295.39Z"/>
        <path class="cls-17" d="M263.34,302.51a6.11,6.11,0,0,0-3.71,2.45,1.28,1.28,0,0,1-1.45.52l-2-.64a1.36,1.36,0,0,1-.45-2.29,7.45,7.45,0,0,1,3.5-1.72,3,3,0,0,1,1.53.13l2.6.9A.34.34,0,0,1,263.34,302.51Z"/>
        <path class="cls-17" d="M252,308.59a6.06,6.06,0,0,0-3.71,2.45,1.27,1.27,0,0,1-1.45.52l-2-.64a1.36,1.36,0,0,1-.46-2.29,7.44,7.44,0,0,1,3.51-1.72,3,3,0,0,1,1.53.13l2.6.9A.34.34,0,0,1,252,308.59Z"/>
        <path class="cls-17" d="M237.8,313.92a6.16,6.16,0,0,0-3.71,2.45,1.27,1.27,0,0,1-1.45.53l-2-.64a1.36,1.36,0,0,1-.45-2.29,7.45,7.45,0,0,1,3.5-1.72,3,3,0,0,1,1.53.12l2.6.9A.34.34,0,0,1,237.8,313.92Z"/>
      </g>
      <path class="cls-18" d="M40.14,18.17l2.29,174.46C78.57,176.45,290,98.15,294.89,109.17l-3.12-91Z"/>
      <path class="cls-19" d="M123.44,18.17l-7.39,144.6c15-7,34.07,7.22,70.73-11.57l-7.7-133Z"/>
      <path class="cls-20" d="M140.39,18.17l-8.46,165.52c16.39-6.15,36.7,7.26,70.73-11.57L193.75,18.17Z"/>
      <path class="cls-20" d="M182.73,18.17,175.84,153c59.32,13.47,53-9.71,70.73-11.58L239.44,18.17Z"/>
      <path class="cls-18" d="M172.58,18.17l-9,176.68c29-2.95,48.75,10.88,70.73-11.57L224.72,18.17Z"/>
      <g>
        <path class="cls-21" d="M66.83,189.22c-11.41,8.83-23.94,15.86-36.49,22.85-2.07,1.17-4.16,2.3-6.21,3.5-1,.58-2.05,1.2-3.05,1.83a9.63,9.63,0,0,0-2.66,2.2l-.24-.07a8.27,8.27,0,0,1,2.34-2.78c.91-.8,1.85-1.54,2.81-2.26,5.83-4.23,12-7.93,18.2-11.6,6-3.49,12.7-7.2,18.83-10.53q3.16-1.7,6.35-3.36l.12.22Z"/>
        <path class="cls-21" d="M42.21,181.46c3.86-3.3,8.42-5.64,12.88-8,6-3.07,12.11-5.8,18.35-8.27a270.17,270.17,0,0,1,43.13-13.49l.09.24c-22,7.82-44.13,15.54-65.46,25.1-1.29.6-3.25,1.54-4.51,2.18a40,40,0,0,0-4.33,2.47l-.15-.2Z"/>
        <path class="cls-21" d="M116.68,148.41c.42-1.76,2.17-2.84,3.75-3.44a13.49,13.49,0,0,1,12.9,2.51c.15.15.31.28.46.44l-.07.24c-1.43-.31-2.85-.62-4.29-.87a28.68,28.68,0,0,0-8.67-.36,10,10,0,0,0-2.08.54,4.44,4.44,0,0,0-1.79,1.08l-.21-.14Z"/>
        <path class="cls-21" d="M132.47,170.7c-.13-2.63,4.41-3.89,6.47-4.19a32.21,32.21,0,0,1,9.75.14,45.85,45.85,0,0,1,8.26,2,38.41,38.41,0,0,1,7.79,3.55l-.07.24c-5.35-1.24-10.9-2.59-16.34-3.34a62,62,0,0,0-6.21-.68c-2.7-.1-5.61-.24-8.12.91a2.17,2.17,0,0,0-1.28,1.37Z"/>
        <path class="cls-21" d="M164.4,183.74A69.59,69.59,0,0,1,186.79,181c13.91.38,25.33,2.72,38.57-3.34,2.69-1.14,5.29-2.55,7.93-4l.15.2c-10.29,8.06-20.42,11-33.42,10.25-6-.3-11.87-1-17.81-1.16a96.89,96.89,0,0,0-17.77,1l0-.25Z"/>
        <path class="cls-21" d="M246.19,127.15c-2.94,1.66-5.32,3-8,4.71a63.91,63.91,0,0,1-6.53,3.8l-.2-.14a22.44,22.44,0,0,1,2-2.66c.22-.26.52-.59.76-.82A17,17,0,0,1,244,127a12.07,12.07,0,0,1,2.25-.07l0,.25Z"/>
        <path class="cls-21" d="M244.65,109c11.1-8,33.09-17,46.73-13.7a11.8,11.8,0,0,1,3.13,1.31l-.09.23a17.78,17.78,0,0,0-6.37-.8,59.54,59.54,0,0,0-12.77,2.1,179.67,179.67,0,0,0-18.51,6.1c-4,1.57-8.06,3.22-12,5l-.1-.23Z"/>
        <path class="cls-21" d="M257,131.78c7.69-1.78,15.28-2.69,23-3.94,2.54-.36,5.22-.8,7.8-1,3.51-.29,7.93-.16,10.44,2.79l-.14.21a8.64,8.64,0,0,0-2.31-1.11c-2.5-.74-5.13-.35-7.67.06-3.42.59-6.83,1.32-10.28,1.86A123.14,123.14,0,0,1,257,132v-.25Z"/>
      </g>
      <g class="cls-22">
        <path class="cls-21" d="M67,194c-11.4,8.84-23.94,15.86-36.49,22.86-2.07,1.16-4.16,2.3-6.21,3.49-1,.58-2.05,1.2-3,1.83a9.39,9.39,0,0,0-2.67,2.21l-.24-.08a8.36,8.36,0,0,1,2.34-2.78c.91-.8,1.85-1.54,2.82-2.26,5.82-4.23,12-7.92,18.19-11.6,6-3.49,12.71-7.19,18.83-10.53q3.17-1.69,6.36-3.36L67,194Z"/>
        <path class="cls-21" d="M42.33,186.2c3.86-3.31,8.42-5.65,12.88-8,6-3.06,12.12-5.8,18.36-8.27A270.56,270.56,0,0,1,116.7,156.4l.08.24c-22,7.82-44.13,15.55-65.46,25.1-1.29.6-3.25,1.54-4.51,2.18a39.89,39.89,0,0,0-4.32,2.47l-.16-.19Z"/>
        <path class="cls-21" d="M116.8,153.14c.43-1.76,2.17-2.83,3.75-3.44a13.51,13.51,0,0,1,12.9,2.51c.16.15.31.28.46.44l-.06.24c-1.43-.3-2.86-.62-4.3-.87a28.62,28.62,0,0,0-8.66-.36,10.88,10.88,0,0,0-2.09.54,4.67,4.67,0,0,0-1.79,1.08l-.21-.14Z"/>
        <path class="cls-21" d="M132.6,175.43c-.14-2.63,4.4-3.89,6.46-4.19a32.53,32.53,0,0,1,9.75.14,46.71,46.71,0,0,1,8.26,2,38.41,38.41,0,0,1,7.79,3.55l-.06.24c-5.36-1.24-10.91-2.59-16.35-3.33a59.37,59.37,0,0,0-6.2-.69c-2.71-.1-5.62-.24-8.12.91a2.19,2.19,0,0,0-1.29,1.37Z"/>
        <path class="cls-21" d="M164.52,188.48a69.31,69.31,0,0,1,22.39-2.73c13.92.38,25.33,2.71,38.58-3.35,2.68-1.14,5.28-2.55,7.92-4l.15.19c-10.29,8.06-20.42,11-33.42,10.25-5.95-.3-11.87-1-17.81-1.15a96,96,0,0,0-17.77,1l0-.24Z"/>
        <path class="cls-21" d="M246.31,131.88c-2.93,1.66-5.32,3-8,4.72a62.78,62.78,0,0,1-6.53,3.79l-.2-.14a23.57,23.57,0,0,1,2-2.66,9.81,9.81,0,0,1,.76-.81,17,17,0,0,1,9.77-5.08,11.94,11.94,0,0,1,2.24-.07l0,.25Z"/>
        <path class="cls-21" d="M244.77,113.77c11.1-8,33.09-17,46.73-13.71a11.8,11.8,0,0,1,3.13,1.31l-.09.23a17.53,17.53,0,0,0-6.36-.79,59,59,0,0,0-12.78,2.09,180.47,180.47,0,0,0-18.51,6.1c-4,1.58-8,3.23-12,5l-.11-.22Z"/>
        <path class="cls-21" d="M257.07,136.51c7.7-1.78,15.28-2.69,23-3.94,2.53-.36,5.21-.8,7.79-1,3.51-.3,7.93-.17,10.44,2.78l-.14.21a8.32,8.32,0,0,0-2.31-1.1c-2.5-.75-5.13-.35-7.67.05-3.42.6-6.83,1.33-10.28,1.86a123.14,123.14,0,0,1-20.84,1.35v-.25Z"/>
      </g>
    </g>
  </g>
</svg>
