<svg id="Layer_1" data-name="Layer 1" xmlns="http://www.w3.org/2000/svg" width="369.08" height="204.56" viewBox="0 0 369.08 204.56">
  <defs>
    <style>
      .cls-1 {
        fill: #ff0;
      }

      .cls-2 {
        fill: #d84e0b;
      }

      .cls-3 {
        fill: #be450a;
      }

      .cls-4 {
        fill: #a13a09;
      }

      .cls-5 {
        fill: #903408;
      }

      .cls-6 {
        fill: #fea;
      }

      .cls-7 {
        fill: #ffe385;
      }

      .cls-8 {
        fill: #fff1bf;
      }

      .cls-9 {
        fill: #ffcc5c;
      }

      .cls-10 {
        fill: #fff5d2;
      }

      .cls-11 {
        fill: #ffeaa0;
      }

      .cls-12 {
        fill: #ffe793;
      }

      .cls-13 {
        fill: #ffe589;
      }

      .cls-14 {
        fill: #ffe179;
      }

      .cls-15 {
        fill: #ffeccb;
      }

      .cls-16 {
        fill: #ffefd1;
      }

      .cls-17 {
        fill: #ffe9c5;
      }

      .cls-18 {
        fill: #923509;
      }

      .cls-19 {
        fill: #7c2d07;
      }

      .cls-20 {
        fill: #aa3e09;
      }

      .cls-21 {
        fill: #8f3408;
      }

      .cls-22 {
        fill: #873108;
      }

      .cls-23 {
        fill: #7a2c07;
      }

      .cls-24 {
        fill: #bf450a;
      }

      .cls-25 {
        fill: #dd500c;
      }

      .cls-26 {
        fill: #802e08;
      }

      .cls-27 {
        fill: #ffc94a;
      }

      .cls-28 {
        fill: #612a0e;
      }

      .cls-29 {
        fill: #84420c;
      }

      .cls-30 {
        fill: #532908;
      }

      .cls-31 {
        fill: #a7530f;
      }

      .cls-32 {
        fill: #6d700e;
      }

      .cls-33 {
        fill: #898c11;
      }

      .cls-34 {
        fill: #dac152;
      }

      .cls-35 {
        fill: #f4f1ae;
      }
    </style>
  </defs>
  <g>
    <path class="cls-1" d="M228,188.16l3.35-.66,3.1-.67,3.18-.74,1.12-.27.61-.16,2.07-.53s1.66-.43,1.69-.45l2.94-.81,3.17-.94,3.39-1.06,2.89-1,2.34-.81,2-.71.66-.25,2-.75,1.46-.56,2.22-.88,1.77-.73,2.11-.89,3.16-1.39,2.62-1.2,1.49-.71,2.74-1.34,1.79-.9,2-1q1.45-.77,2.88-1.56l1.5-.84,1.47-.84,1.68-1,1.26-.76,1.21-.73,1.14-.71,1.75-1.11c.54-.34,1.07-.69,1.59-1l.66-.43,1.4-.94c.65-.45,1.3-.89,1.93-1.34l.48-.34,1.19-.85,1.06-.77,1.2-.9c.51-.37,1-.75,1.51-1.14l.62-.47,1-.78.75-.6,1.39-1.12.83-.69,1.73-1.46,1.1-1,1.41-1.25c.77-.69,1.53-1.39,2.34-2.16l1.41-1.34,1-1,.94-.94,1.17-1.19,1.18-1.25c.46-.49.92-1,1.37-1.48l1.09-1.2c.41-.46.82-.93,1.22-1.4l.74-.86.68-.81,1.38-1.69.61-.77c.48-.6,1-1.21,1.4-1.79l.35-.46.44-.61c.4-.54.8-1.07,1.19-1.62l1.28-1.81.66-1,.71-1.06c.39-.6.78-1.2,1.15-1.8,0,0,.49-.75.62-1,.57-.91,1.12-1.83,1.66-2.77l.32-.56c.43-.76.86-1.53,1.28-2.31.15-.27.57-1.09.57-1.09.32-.61.64-1.22,1-1.84.2-.4.4-.81.59-1.21.29-.6.57-1.2.85-1.8.19-.41.38-.82.56-1.23.29-.64.56-1.27.82-1.9l.12-.28.37-.87c.33-.82.66-1.65,1-2.46l.25-.64c.35-1,.69-1.9,1-2.87a2.76,2.76,0,0,0,.08-.27A103.2,103.2,0,0,0,354.82,74q.23-.57.39-1.11a6.1,6.1,0,0,0,.27-1.7c.06-.26.19-.7.29-1a13.24,13.24,0,0,0,.74-6.15c0-4-1.74-8-5.23-11.79-17.93-19.65-82.89-36.05-148.13-37.44l-.11,0a56,56,0,0,0-15-2.36,33,33,0,0,0-7.91.92A15,15,0,0,0,176,15.07C93.17,18.28,25.7,43.18,14.46,64.62c-.26.5-.5,1-.71,1.53a6,6,0,0,0-1.14,3.46,7,7,0,0,0-.11,1.54,15.4,15.4,0,0,0,1.85,8.65c7.48,34.34,28.22,63.2,60.06,83.53,29.08,18.57,66,28.79,103.91,28.79,4.58,0,9.22-.15,13.78-.45,1,0,2.06,0,3.07,0h.41l2.93-.09,2-.08,1.71-.09,2.06-.13,2.21-.17,3.34-.29,1.43-.15,1.76-.19,1.13-.13,2.38-.3,1.41-.19,2-.29,2-.3,2.77-.46,2.3-.41-1-5.91,1.16,5.89Z"/>
    <g>
      <path class="cls-2" d="M350.49,64.54c-1.75,24.23-84.94,38.92-170.13,40.08C91.55,105.82,6.65,92.43,19.78,67.41,29.36,49.12,96,23.21,181.52,20.89,273.06,18.4,351.91,44.92,350.49,64.54Z"/>
      <path class="cls-3" d="M349,62.07c.82-2.48-38.45-27.78-110.17-35.15a414.85,414.85,0,0,0-97.66.93C87.42,34.94,51.17,50,35,58.43c-25.59,13.36-13.08,15.29-15.84,11L23.68,74S184.9,23.3,345.87,66.74Z"/>
      <path class="cls-4" d="M182.87,30.06C103.22,33.09,45.48,53,20.6,71.53c19.2,20.31,88.89,34.05,159.76,33.09,73.72-1,150.24-17.1,167.51-37.21C341.55,53,257.71,27.21,182.87,30.06Z"/>
      <path class="cls-5" d="M161.88,51.35q-4.38,0-8.76.1c-47.91,1.07-90.86,12-120.91,24.72,29,16.21,88.71,29.25,148.15,28.45C229,104,277.92,96.53,310.54,85.78,285,66.42,225.08,51.35,161.88,51.35Z"/>
      <path class="cls-6" d="M22.42,72.5S48.43,54.73,62.74,56,81.38,42.16,95.25,42.16s20-12.36,38.14-10.84c35.82,3,41.28-10.46,48.12-12.14,16.7-4.1,38.28,9.91,57.22,13.87C265.8,38.71,278.4,38.5,288,42.64c23.18,10,36.06,12.32,43,16.75,5.18,1,11.7,4.56,12.33,8,.3,1.68-2.32,3.32-4.26,4.59-7,5.73-58.47,33.65-160.61,34.35C74.79,107,22.35,73.05,22.42,72.5Z"/>
      <path class="cls-7" d="M116.49,51.26c-38.58,19.51,13,25.14,22.11,26.88s32.94-3,42-4.77,8.67-6.51,30.35-5.2,63.28-13,63.28-13-51.15,15.61-68.49,15.61S196.25,82,140.33,82,84.84,57.33,116.49,51.26Z"/>
      <path class="cls-7" d="M202.24,85.63c30.65,3.68,21.46-3.68,47.82-9.2s16.55-22.68,5.52-23.29-15.33,1.22-21.46-3.07-16.55-13.48-16.55-13.48,15.94,11,28.2,12.26,20.23-.62,24.52,8,6.74,15.32-9.2,22.68-18.39.61-31.87,7.35S202.24,85.63,202.24,85.63Z"/>
      <path class="cls-7" d="M50.6,69.9c-8.67,7.37,4.33,8.24,25.14,16s25.58,9.1,36.85,8.23,8.23-2.16,18.64.44,46.38,1.3,60.25,3,36-2.6,36-2.6-20.38,6.5-39.88,6.07-37.71-3.9-51.59-3.47-7.36,1.3-26.44-1.73-19.07-4.34-42.91-10S33.26,72.07,50.6,69.9Z"/>
      <path class="cls-7" d="M142.17,43c-4.6,2.15-2.76,3.07,10.72,6.75s5.22,6.13,18.7,1.53,16.55-8.28,24.22-8.58,14.1-3.07,14.4-6.44,4.29-8.89,4.29-8.89-1.22,1.23-1.84,4.6,0,2.45-2.75,5.82-1.84,4-9.2,6.75-3.68-2.15-15.32,3.67-23.91,8.28-27.59,8.28-2.45-2.45-15.33-6.44-8-8-7.66-9.5-3.37-.31-.31-3.06-5.21-3.38-5.21-3.38.62-1.83,4.29-.61,5.83.61,5.52,2.15-1.22-4.6-.3,2.14S132.05,40,142.17,43Z"/>
      <path class="cls-7" d="M308.3,61.11c-7.36,8-1.84,8.58-11,15.32s-20.84,7.36-23.91,9.2-6.13,1.22-17.16,4.29-23.91,1.23-23.91,1.23h33.11c8.58,0,4.29-4.91,17.77-8s13.49-3.68,17.78-4.29,8-9.2,8-9.2S300.94,63.56,308.3,61.11Z"/>
      <path class="cls-6" d="M177.17,30.24c-6.71,2.16-3.46,0-8.45,4.11s-5.85,1.95-10.84,3-15.38-1.3-15.38.21,7.15,3.91,3.25,5.42.86,3.25,5.42,4.34,1.51-.65,6.5,1.73.86,6.5,6.72,2.39,12.13,1.51,20.15-5.64,3.25-7.37,9.32-7.58,3.69,3.68,8-1.09,4.12-2.82,6.5-6.93,2.17-5,.22-5-4.12-4.12-8.23-3.9-4.12-.65-6.94.43-3.68,0-6.29.22-.43-1.95-3.9,1.52S184.11,28.5,177.17,30.24Z"/>
      <path class="cls-8" d="M195.16,22.43c-5.09,1.74-5.74.44-8.88,4.45s.32,3.25-7.05,6.39-8,2.49-12.35,3.79-.33.22-9.32,1.63-5-.33-9.75,1.52-3.47,1-5.31.43-.65-.76-.33-2.17a4.62,4.62,0,0,0-1.62-4.33c-1.2-.76,2.49-1.19,6.28-.87s13.76-1.3,18.32-3.58,7.69-4.55,10.29-5.52,4.34-4.34,8.24-4.12,5.63-.43,7.58-.43.33-1,3.58.21,13.44,2.06,15.39,3.47,4.12,1.84,5.42,2.6,3.79,2,4.55,2.39-.87-.44-5.64-1-5.31-1.84-9.1-2.38-3.36-.76-6.39-1.63S195.71,22.11,195.16,22.43Z"/>
      <path class="cls-8" d="M216.19,41.51c-1.52,1.3-.44,1.73-6.5,4.76s-9.32-1.3-13.44,3.91-5.64,2.6-15.17,6.06-5,4.12-13.23,4.77.44-4.77-16.68-1.51S135.13,51,128.41,48s-5.85-8.45-8-8.45-10-.65-11.92-.44,6.72-4.55,9.75-5.2,10.62-.87,12.14,5.42,3.68,10,9.1,12.14,11.06,5.63,21.24,5.63,15.39-2.82,21.24-5.42,4.55-3,12.36-4.77,8.88-1.51,13-4.33,6.72-3,8.24-7.59,3.9-6.93,7.37-6.71,13.43,4.55,11.48,4.33-6.72-1.73-10.4-.43-5.42.86-5.85,2.6S217.05,37.82,216.19,41.51Z"/>
      <path class="cls-8" d="M98,47.31C90.67,49.77,86.07,58,82.7,64.17S71.36,70,75,74s12.87.92,14.71,7.36,13.49,4.6,27.28,6.74.92,6.74,23.3,3.07,35.55-1.23,46.89-3.07,13.18-5.21,26.06-7.36,20.84-3.06,31-7.66a143.35,143.35,0,0,1,19-7s-15.63-.3-22.38,1.53-20.23,5.52-28.81,6.75-11.34.92-24.21,4.9-9.5,4-23.91,5.21S140,88.69,134.81,85.94,121,83.79,109.37,79.8s-19-3.67-16.86-14.09,1.84-13.8,8.28-14.41,7.35-4.29,9.81-7.66S108.76,41.49,98,47.31Z"/>
      <path class="cls-8" d="M233.53,40.21c7.37,2.81,6.93,5.85,16.25,5.85s13.87-3.25,17.56.86,9.53,6.51,10.18,14.53,5.86,6.93-.21,11.7,0,7.15-14.09,9.1-29,6.07-26.44,5.85,10.62-2.38,20.37-1.51,25.36-5.42,29-7.15,3.47-9.32,8.46-11.06,6.07-6.93-2.39-10.62-6.5-6.5-10.83-8.23-8.67-1.52-11.06-3.26,2.39-2.38-11.05-5.2-12.36-2.6-16-2.6-6.72-1.73-9.54-1.73-12.57-1.52-10-1.09S227.46,39.77,233.53,40.21Z"/>
      <path class="cls-8" d="M54.28,58.41C52.55,59.5,60.14,64.7,56.88,69S48,73.8,55.58,76s9.76,3.68,17.56,5.85,7.59,3.47,15.39,6.07S107.6,92,111.94,91.57s.86-.43-1.52-.86-14.31-1.09-21.24-4.34-.43-4.12-8-6.07S69,81.17,69.46,76s.21-4.55,4.11-8.67,5.21-5.64,6.51-10.19,5-7.37.43-4.33S74.22,58,71.19,58s-.43-.87-4.12-.44S57.75,55.81,54.28,58.41Z"/>
      <path class="cls-8" d="M119.74,56.24c-9.1,4.34-8,7.81-3.69,12.58s13.44,4.33,19.94,4.33,15,3.47,22.76,1.73,6.72-3,17.77-4.33,14.09-6.29,23-6.29,13,.87,24.49-.86,24.71-6.29,21.24-5.64-16.47-1.08-29.48,1.52-25.14,1.08-29.26,2.6-8.88,5-21.67,6.07-9.1-.22-23.62-.87-22.33.87-19.51-2.82,5.2-4.76,2.38-5.41S124.07,54.94,119.74,56.24Z"/>
      <path class="cls-9" d="M131.9,34c2.68,0,5.21,1.23,5,2.3s1.38,1.84.46,3.14-1.92,3.68-.15,4.45,2,.76,1.68,2.22,1.38,2.22,2.07,2.22a66.7,66.7,0,0,1,12.87,3.83c4.68,2.07,8.51,2.68,10.27,2.3s15.17-4.06,17.09-5.13,8.74-4.83,14.64-5.37,6.36-1.45,8.66-2.3,6.28-4.44,7.28-7.35a21.81,21.81,0,0,0,.91-2.84s-2.06,8.74-8.81,11.5-7.28-.23-13.94,2.53-10,5.44-13.72,6.36-10.73,3.06-14.94,3.37-9.81-3.83-12.34-4.29-9.27-1.31-10.8-3,.53-1.61-1.31-3.76-.84-4-.23-5.44-.15-1.38-.61-2.6S134.2,34.29,131.9,34Z"/>
      <path class="cls-9" d="M225.72,42.59c5.42,3.25,9.32,6.72,21.24,8s22.76,2.82,24.28,12.79-5.42,11.48-15.17,14.08S240.9,81,234.39,84s-16.47,6.28-24.27,4.11-6.07-2.16-6.07-2.16a50.81,50.81,0,0,0,13.87,1.73c7.15-.22,25.58-8,32.51-10.19s16.47-3,18-8,1.74-12.58-5.42-14.31S252.82,51.91,243.28,51,225.72,42.59,225.72,42.59Z"/>
      <path class="cls-9" d="M108.6,54.36c-6,3.22-11.49,8.59-6.13,15.79s41.38,12.41,59.31,8.12,25.44-5.67,32.65-7.81,8,.3,22.68-1.84l14.71-2.15A114.33,114.33,0,0,1,213,69.38c-11.49.92-15.94.62-22.68,2.76S170.52,81,150.44,80.72s-40.46-1.07-48-8.42S98.79,59.42,108.6,54.36Z"/>
      <path class="cls-9" d="M48.53,70.15c-.62.61-5.37,5.21,4.44,9.5s38,12.72,53.18,14.56,29.89,2.15,41.23,3.07,33.25.3,42.14.92,34.64-2.3,34.64-2.3-9.5,3.37-34,2.91S138.34,96.36,129,97s-35.1-4-47.82-7.36S34.58,77.81,48.53,70.15Z"/>
      <path class="cls-9" d="M306.46,63c-2.3,2.45.92,7-4.14,11.18s-17.62,8.28-24.21,10.43-13.64,5.21-18.55,5.82-14.4,1.23-14.4,1.23,11.8.3,19.61-1.69,17.32-6.28,23.6-8.12,14.26-6,16.25-8.28S305.08,64.94,306.46,63Z"/>
      <path class="cls-10" d="M212.51,25.25c-4.9-.31-13-8.13-24.67-3.68s-12.57,9.35-24.83,13-20.23,1.54-21.46.62,14.1,1.22,22.53-3.37,14.1-10.73,20.23-12.27S198.41,18,212.51,25.25Z"/>
      <path class="cls-10" d="M115,35.67c2.61-1.08,10.12-3.53,13.33,3.37s4.14,12.11,13.34,14.86,8.12,4.53,6,4.76-5.59,1.37-11-4.07-8.51-10.19-12.49-14.25-10.12-3-11.57-2.91S113.28,36.05,115,35.67Z"/>
      <path class="cls-10" d="M221.93,29.8c-2.06.76-4,2.28-6.28,7.05S208.6,44.43,203,45.3,189.1,48,185.3,50.5s-14.63,6.39-18.64,6.94-.86,2.49,4.34,1.3,13.65-8.35,18.64-9.21,7.58-1.52,9.64-2.82,6.72.32,10.84-2S218.25,31,221.93,29.8Z"/>
      <path class="cls-11" d="M147.48,43.46c11.71,1.73,36.41-7.37,43.78-12.14s10.19-6.29,14.31-2.38,2.81,5.41,0,8.45-15,2.6-23.19,6.5S165.47,50.83,159,50,142.93,43.46,147.48,43.46Z"/>
      <path class="cls-10" d="M120.1,59.42C117,61,113.66,68,121.63,70s20.23.76,27.89,2.76,18.85-1.69,25.14-3.22,16.09-6.29,15-6.13-20.39,8-32.49,7.2-17.63-3.22-27.13-3.37-11.19-1.23-7.82-5.52S120.1,59.42,120.1,59.42Z"/>
      <path class="cls-10" d="M202.55,61.87c5.36-.76,29.12-2.91,34.33-3.06S216.34,64,202.55,61.87Z"/>
      <path class="cls-10" d="M233.2,38.43c8.12,2.6,9.35,4.75,15.48,4.9s14.25-.46,16.86,1.38,5.06,5.06,9,6.59,6.59,10.11,7.36,13.79,20.38,3.22,11.19-3.68-16.4-10.57-19.93-13.33a26.58,26.58,0,0,0-11.65-5.52c-4.9-1.07-12-.76-16.55-2.3S232.44,38.43,233.2,38.43Z"/>
      <path class="cls-10" d="M282.29,73.37c-3.79,4.11-6.82,9-17.12,9.32s-18.53,3.25-17.34,3,15.06-1.73,18.42-1.3,10.84-5.2,15-5.2,8.23-7.59,8.13-8.45S283.27,70.22,282.29,73.37Z"/>
      <path class="cls-10" d="M104.93,47.16c-3.22.77-7.51-1.07-12.73,7.05S81.17,70.76,78.72,72,89,73.06,91.44,78.12s2,5.21,11.8,5.52,15.48,1.68,19.46,4.29,11,1.68,14.41,1.22-10.12-2.6-19.62-5.51S99.25,81.34,94,77.05s-2-9-3.37-13.18,5.83-14.72,9.5-14.72S106.76,47.47,104.93,47.16Z"/>
      <path class="cls-10" d="M249.91,67.54c-4.6,0-16.4,2.76-22.53,5.52s-23.45,3.37-37.09,7-27.59,7-22.84,6.9,21.46.15,27.9-3.68,16.09-7.51,23.29-7.36S247.76,69.84,249.91,67.54Z"/>
      <path class="cls-10" d="M62.52,60.47c-1.19,8.13.22,8.89-3,11.16S62.3,74.88,64.9,76s2.28,2.27,5.21,4S80,81.82,83,83.77s3.14,3.68,9.54,4.88-3.69-.76-6.94-3.25.33-3.47-5.42-4.34S67.5,81,68.26,74.67s1.63-7.26,5-11.27S62.3,57.22,62.52,60.47Z"/>
      <path class="cls-11" d="M218.8,44.25c-16.25,9-17.78,6.74-25,10.27s-15.17,5.36-21,7S163,59.88,158,61,134,62.49,130.67,57.58s-5.21-7.51-8.89-7.66,2.46,2.61,3.53,6.9S125,63,131.44,64.17s25.9,3.22,31.26,2,16.86-2.75,20.23-3.52S195.19,57,201.17,57s25.59-1.23,28.51-3.07S224.62,43.48,218.8,44.25Z"/>
      <path class="cls-12" d="M273.62,41.72c10.62,4.77,10.62,11.71,23,14.31s16.47,2.82,16.69,8.45-2.6,13-8.89,16.26-13.22,1.08-20.37,5-13.87,8.89-25.8,10.62-22.54,4.34-19.72,4.12,33.38-3,54.4-11.92S318.7,82,328.24,73.8s-7.8-16-16.25-18.64S301.8,56,292.7,48.88A33.9,33.9,0,0,0,273.62,41.72Z"/>
      <path class="cls-13" d="M51.47,65.56C41.5,68,34.78,74.45,42.15,79s43.78,15.39,55.7,17.12,74.56,5.86,84.31,7.37,39.23-2.81,39.23-2.81-27.31,7.58-75,2.81S72.71,95,50.6,84.42,24.81,73.58,27.19,72.07,64.9,52.13,51.47,65.56Z"/>
      <path class="cls-13" d="M150.73,93.09c14.52,1.08,40.1-3.25,48.34-3s15.82,2,22.32,1.51,19.72-5.2,24.06-4.55-1.3.22-7.59,2-6.5,2.39-3.25,3,15.39,2.38,9.32,2.38-19.72-1.08-31.21,0S167.85,96.56,150.73,93.09Z"/>
      <path class="cls-13" d="M149.68,44.86c3.14.85,14.48,1.15,23.29-1.45s26-10.12,30.19-10.81,5.37.84,3.45,3.3-13.87,4.36-20.54,6.51S167.3,49.84,162.63,50,144.54,45.48,149.68,44.86Z"/>
      <path class="cls-13" d="M227.84,49.92c-1.69,1.07-25.14,4.44-33.11,6.28s-23.29,7.67-31.87,8.13-29.74-3.22-33.57-4.3-2.76,2.15,2.46,3.38S150.9,66.32,159,65.86s22.83-3.37,26.81-4.91,14.56-5.21,18.7-5.05,19.77-.16,22.84-1.54S231.36,49.77,227.84,49.92Z"/>
      <path class="cls-14" d="M275.35,42.26c3.06.46,10,4.59,17.62,8.73s15.48,4.14,20.69,7,12.11,7.82,10.12,13.18S310.75,82,302.32,84.1s-19.77,6.43-24.06,7.81-30.5,7.36-29.73,7.21,32.64-6.59,36.17-7.67,19-6.89,25.44-8.73,18.69-6.9,20.07-13-12.72-12.41-19.77-13.95-12.87-3.21-17.93-7.05S275.35,42.26,275.35,42.26Z"/>
      <path class="cls-15" d="M241.58,119.4c-6.29,6-4,4.62-7,7.94s-4.95,2.63-5.2,3.49-2.61.68-6.61-1.16-4.22.07-.92.12,2.93,2.68,6.8,1.72,5.75-1,7.58-4.14,3.42-3.61,4.3-5,1-.25-.74,2.56-2.53,2.21-3,4.74-2,3.66-1.27,3,1.06,0,3-3.55a26.35,26.35,0,0,1,3-5,11.84,11.84,0,0,0,2-4.48c.66-2.2,2.11-4.62,3-5.2s3.33-2.43.86-.58-2.77.35-3.63,2.81S241.58,119.4,241.58,119.4Z"/>
      <path class="cls-16" d="M191.47,124.62c3.47,6,3.2,6.64,6.28,7.78s2.95-.85,5.39,1.66,6.32,2.6,8.46,2.8,3.82-1.43,6.4-2.34,6.32-1.16,2.58-.1-2.27,1.58-5.81,2.39-2.54.32-8.26-1.18-9.29-2.81-7.29-1.89.76-2.33,2.62,1.19,6.46,6.47,7.12,7-.36,1.81-2.7-.83-.26-2.08-3.53-3.78-1.32-.19-4.22-2.64-1-1.63-3.81-3.15a41.72,41.72,0,0,1-4.84-2.91c-.78-.61-.42-.54-1.38-2.53a17.15,17.15,0,0,0-4.31-5.21,8.86,8.86,0,0,1,3.91,3.44c1.23,2.31,1.29,3.19,2.59,4.19s4,2.26,3.06,1.43a7.92,7.92,0,0,1-1.82-2.76A3.56,3.56,0,0,1,191.47,124.62Z"/>
      <path class="cls-15" d="M169.73,115.75c1.3,5,1.47,5,3.55,5.7s1.95.91,3.93,2.74,1.11.27,1.95,2.24-.75,0,.76,2.07,2.26.12,1.51,2.05a2.1,2.1,0,0,0,.78,2.89c.42.32-.52,0-.86-.7a2.22,2.22,0,0,1-.24-1.44c0-.42.63-1.58.24-1.66s-.47.19-1-.41-1.37-1.39-1.33-1.58.72.12,0-1-.64-1.31-1-1.59a33.19,33.19,0,0,0-2.76-2.1c-1.41-.94-1.25-1.44-1.82-1.41s-2.86-1.59-2.85-1.28.37.39.5,1.27-.22.9.21,1.53.52.29.92,1.19a9.81,9.81,0,0,0,.94,1.46c.17.35.26.57,0,.26a6,6,0,0,0-.57-.88A18,18,0,0,0,171,123c-.42-.36,0-1.18-.49-2s-.28-1.07-.19-1.33.65,1.17.26.09a18.13,18.13,0,0,1-.72-2.73c-.13-.69-.56-1-.44-1.48a15.34,15.34,0,0,0,.1-2.17c0-.57.15-1.25.14-.19s0,1.77,0,2.08A3.55,3.55,0,0,0,169.73,115.75Z"/>
      <path class="cls-15" d="M230.46,134.43c-2,1-4,2.83-5.74,3.23s-.72-.41-3.18.48a17.12,17.12,0,0,1-5.48,1.37c-1.49,0-2-.41-5.86-1s-3.25-.75-1.79-.35,2.45,1.6,4.81,1.21,4.73,0,7.26-.42,4.21-.87,2.94-.38-1.65,1.37-3.8,1.48-3,.21-1.7.3a5.76,5.76,0,0,0,4.37-.89c1.84-1.23,2-1.67,3.23-2.07a18.61,18.61,0,0,0,3.56-1.37A16.79,16.79,0,0,0,230.46,134.43Z"/>
      <path class="cls-16" d="M58.45,96c3.47,6,3.2,6.64,6.28,7.78s3-.85,5.38,1.66,6.33,2.6,8.47,2.8,3.82-1.43,6.4-2.35,6.32-1.16,2.58-.09-2.27,1.58-5.81,2.39-2.55.32-8.26-1.18-9.29-2.81-7.3-1.89.77-2.33,2.63,1.19,6.46,6.46,7.11,7-.35,1.81-2.69-.83-.26-2.09-3.54-3.78-1.31-.19-4.21-2.64-1-1.63-3.81-3.16a40.74,40.74,0,0,1-4.84-2.9c-.78-.61-.42-.54-1.38-2.53a17.29,17.29,0,0,0-4.31-5.21,8.86,8.86,0,0,1,3.91,3.44c1.23,2.31,1.29,3.18,2.59,4.19s4,2.26,3.06,1.43a7.78,7.78,0,0,1-1.82-2.76A3.56,3.56,0,0,1,58.45,96Z"/>
      <path class="cls-15" d="M97.44,105.78c-2,1-4,2.83-5.74,3.22s-.72-.4-3.18.49A17.18,17.18,0,0,1,83,110.86c-1.49,0-2-.41-5.86-1s-3.25-.75-1.79-.35,2.45,1.6,4.81,1.21,4.73,0,7.26-.43,4.21-.87,2.94-.37-1.65,1.37-3.8,1.48-3,.21-1.71.3a5.77,5.77,0,0,0,4.38-.89c1.84-1.23,2-1.67,3.22-2.07a19.17,19.17,0,0,0,3.57-1.37A16.79,16.79,0,0,0,97.44,105.78Z"/>
      <path class="cls-17" d="M93.47,100.49c3.58,9.85,2,6.72,3.23,13.55s.82,7.13,2.67,8.55,5.39-3.93,6.48,4.58-3.46,6.75,1.09,8.5a42.43,42.43,0,0,1,4.91,2s-6.66-.73-7.32-3.3,1.62-1,1-4.79-.86-6.7-1.93-6.65-.82,2-2,.93a8.8,8.8,0,0,1-2.51-5.34c.05-1.58,2.59-3.07,2.86-4.18s3-5.29.61-1.83-2.65,4-3.19,4.32-.29,1-.57-.49-.32-2.16-.83-4.18-.34-3.76-1.59-5.76S94.12,101,93.47,100.49Z"/>
      <path class="cls-15" d="M163.69,121.3c-6.29,6-4,4.62-7,7.94s-5,2.63-5.2,3.49-2.62.68-6.61-1.16-4.22.07-.93.12,2.93,2.68,6.8,1.72,5.76-1,7.59-4.14,3.41-3.61,4.29-5,1-.25-.73,2.56-2.54,2.21-3,4.74-2,3.66-1.26,3,1,0,2.95-3.55a26.35,26.35,0,0,1,3-5,11.69,11.69,0,0,0,2-4.48c.66-2.2,2.12-4.62,3-5.2s3.34-2.43.87-.58-2.78.35-3.64,2.81S163.69,121.3,163.69,121.3Z"/>
      <path class="cls-16" d="M113.58,126.52c3.47,6,3.2,6.64,6.28,7.78s3-.85,5.38,1.66,6.33,2.6,8.47,2.8,3.81-1.43,6.4-2.34,6.32-1.16,2.57-.1-2.26,1.58-5.8,2.39-2.55.32-8.26-1.18-9.3-2.81-7.3-1.89.76-2.33,2.62,1.19,6.47,6.47,7.12,7-.36,1.81-2.69-.83-.27-2.08-3.54-3.78-1.31-.19-4.21-2.64-1-1.63-3.81-3.15a40.79,40.79,0,0,1-4.84-2.91c-.78-.61-.42-.54-1.38-2.53a17.29,17.29,0,0,0-4.31-5.21,8.81,8.81,0,0,1,3.9,3.44c1.24,2.31,1.29,3.18,2.6,4.19s4,2.26,3.06,1.43a7.78,7.78,0,0,1-1.82-2.76A3.56,3.56,0,0,1,113.58,126.52Z"/>
      <path class="cls-17" d="M131.89,126.83c-3.35,2.31-1.65,4.56-4.65,3.18s-.91-.71-4.46-2.31a13.09,13.09,0,0,1-4.69-3.11c-1-.75-2.84-7.1-2.84-6.57a25.09,25.09,0,0,0,.59,4.63c.32.66,1.45,1.22,1.87,2.17s.71,1,2.7,2.3a21.85,21.85,0,0,0,4.49,2c.82.42,2.36,1,.67.62a9.63,9.63,0,0,0-2.47-.45c-1.66-.14-1.52.08-2.52-.38s-1.17-.91-2.08-1.09-1.7-.49-.89-.06.68.21,2,.92,1.16.79,2.18.95,1.38.24,2.16.32,1.32,1.12,2.54.61,1.73.4,2.75-.11.76-1.19,1.21-1.83.42-.82.79-.95.17-.29,1-.78,1-1.24.57-.87S131.89,126.83,131.89,126.83Z"/>
      <path class="cls-15" d="M91.84,117.65c1.3,5,1.46,5,3.55,5.7s2,.91,3.92,2.74,1.12.27,2,2.24-.74,0,.76,2.07,2.26.12,1.51,2,.37,2.57.79,2.89-.52,0-.86-.7a2.24,2.24,0,0,1-.25-1.44c0-.42.63-1.58.25-1.66s-.48.19-1-.41-1.36-1.39-1.32-1.58.72.12,0-1-.65-1.31-1-1.59a34,34,0,0,0-2.77-2.1c-1.4-.94-1.24-1.44-1.82-1.41s-2.86-1.59-2.84-1.28.36.39.49,1.27-.21.9.22,1.53.51.29.92,1.19a9.81,9.81,0,0,0,.94,1.46c.16.35.25.57,0,.26a8.81,8.81,0,0,0-.57-.88,18,18,0,0,0-1.64-2.08c-.42-.36,0-1.18-.48-2s-.28-1.07-.19-1.33.65,1.17.26.09a17,17,0,0,1-.72-2.73c-.13-.69-.56-1-.44-1.48a19,19,0,0,0,.1-2.17c0-.57.15-1.25.14-.19s0,1.77,0,2.08A2.66,2.66,0,0,0,91.84,117.65Z"/>
      <path class="cls-15" d="M152.56,136.33c-1.95,1-4,2.83-5.73,3.23s-.72-.41-3.18.48a17.24,17.24,0,0,1-5.48,1.37c-1.49,0-2-.41-5.86-1s-3.26-.75-1.79-.35,2.45,1.6,4.81,1.21,4.73,0,7.26-.43,4.21-.86,2.94-.37-1.65,1.37-3.8,1.48-3,.21-1.71.3a5.77,5.77,0,0,0,4.38-.89c1.83-1.23,2-1.67,3.22-2.07a18.48,18.48,0,0,0,3.57-1.37A16.27,16.27,0,0,0,152.56,136.33Z"/>
      <path class="cls-18" d="M349.28,60.13c-13.32,40.32-102,45.36-168.2,45.46-65,0-139.36,6.21-162.47-35.93,11.55,80.05,94,121.29,173.28,116C264.85,185.61,351.94,139.25,349.28,60.13Z"/>
      <path class="cls-19" d="M350.52,64.84c-4.23,23.08-84.4,44.05-166.34,45.16C107.08,111,29.51,91.47,19,69.21c-5.53,24.39,80.57,49.23,166.12,48.07,85.2-1.15,157.82-25,164.35-46.12C349.34,69.65,351.1,66.35,350.52,64.84Z"/>
      <path class="cls-20" d="M349.28,60.13c-4.24,23.08-87,43.38-168.92,44.49-77.11,1-150.09-15-160.59-37.2-5.53,24.39,76,45.64,161.54,44.48,85.19-1.16,171.25-23.05,169-47.24A16.94,16.94,0,0,0,349.28,60.13Z"/>
      <path class="cls-21" d="M344.2,95.19c-86.32,56-191.29,69.3-244.45,72.45a187,187,0,0,0,92.14,18C253.3,185.62,324.72,152.77,344.2,95.19Z"/>
      <path class="cls-22" d="M331.49,120.35c-73.33,40.05-155,53.13-205.83,57.39a184.82,184.82,0,0,0,66.23,7.93C243.7,185.63,302.63,162.24,331.49,120.35Z"/>
      <path class="cls-23" d="M314.85,139.62c-58.5,27.14-119.63,38.87-164.49,43.94a180.9,180.9,0,0,0,41.53,2.11C235.12,185.64,283.3,169.35,314.85,139.62Z"/>
      <path class="cls-24" d="M19.82,69.6s52.71,48,210.39,33.79C230.21,103.39,74,130.07,19.82,69.6Z"/>
      <path class="cls-25" d="M29.78,78S83,106.24,151.05,105.92C151.05,105.92,72.37,103.17,29.78,78Z"/>
      <path class="cls-26" d="M330.65,89.06c-1.79.9-46.57,37.62-209.12,27.76C294.38,135.18,330.65,89.06,330.65,89.06Z"/>
      <g>
        <path class="cls-27" d="M253,64a9.11,9.11,0,0,1,7.5,2.28c2.27,2.19,4.09-.08,3.79,2.42s-.83,2.2-2.43,3.79-.07,1.13-2.95,1.81.46.46-3.71,1-.53,1.29-6.21-.08-4.85-3.1-6.29-4-2.34-1.52-.68-2.65,2.05-.38,3.56-2.2a3.88,3.88,0,0,1,4.24-1.51C250.92,65.12,251,63.53,253,64Z"/>
        <path class="cls-28" d="M257.8,73.29c3.28-1.27,2.83-.5,3.95-2.14s.24-.75-.64-2.21-1.31-1.33-3.21-2.7-3-1.53-5.48-1.21-3.79,2.14-5.74,2.46-5.47,1.3-3.82,3,.15,1.5,2.42,2.21,3.46,1.48,7.15,1.19S257.15,74.39,257.8,73.29Z"/>
        <path class="cls-29" d="M257.22,72.62c2.78-1.06,2.42-.44,3.33-1.78s.18-.6-.63-1.78-1.18-1.07-2.87-2.15a5.75,5.75,0,0,0-4.77-.93c-2.12.29-3.19,1.78-4.86,2s-4.68,1.12-3.2,2.5.19,1.21,2.17,1.77,3,1.16,6.21.89S256.69,73.52,257.22,72.62Z"/>
        <path class="cls-30" d="M259,71.08c.33-.27.68-1.78.17-.82-1.24,0-1.55.75-2.84.66-2.63-.6-5-.38-5.95.57-.56.61-4.19-.73-3.34.48,1.08-.22,3,.08,3.8-.43a4.25,4.25,0,0,1,3.34-.6c1.57.31,3.29.76,4,.18A1.45,1.45,0,0,0,259,71.08Z"/>
        <path class="cls-30" d="M255.46,70.27c3.14-1.69,1.42-.94,0-.61s-1.15-.63-3-.46-1.11.2-3,.32-2.67.17-2.91.48-.25,1.62.16.9-.72-.57.7-.79,2.09.11,3.06-.35.81-.38,2.18-.12,1.36.46,1.84.3S254.7,70.56,255.46,70.27Z"/>
        <path class="cls-30" d="M258.35,68.76c-.18-.89-2.37-1.25-3.2-1.11s-1.94-1-3.21-.53-2.1,1.13-3.55,1.26-1.38-.22-2.56.63a1.28,1.28,0,0,0-.36,2.06c.3.48-.18-.43-.05-1a1.83,1.83,0,0,1,1.17-1.3c.63-.24,2,.12,3.74-.71s1.91-1.07,2.52-.84a3.82,3.82,0,0,0,1.87.61c1,0,.69-.23,1.72,0S258.42,69.25,258.35,68.76Z"/>
        <path class="cls-31" d="M256.65,68.79a14.3,14.3,0,0,0-3.65-.68c-.75-.19-3.52.73-4.59.85s-2.22.34-2.43.8.12-.09.71-.15,2.8-.61,3.91-.62a17.8,17.8,0,0,1,2.93-.15,7.46,7.46,0,0,0,2.21.12C256.21,68.9,257.76,69.37,256.65,68.79Z"/>
        <path class="cls-31" d="M253.92,70.18a5.27,5.27,0,0,0-2.53-.19,13.74,13.74,0,0,1-2.95.39c-.62,0-1.34.31-1.28.64s1.8.25,2.56.09,1.12-.66,2.21-.73S254.91,70.5,253.92,70.18Z"/>
        <path class="cls-31" d="M257.31,71.8c-2.23-.18-3.71-1.14-4.68-.71a7.14,7.14,0,0,1-3.5,1.11c-1.45-.1-1.82,0-1.4.21a39.4,39.4,0,0,0,5.8.27,25.33,25.33,0,0,0,3.68-.38,15.39,15.39,0,0,0,2.28-.69c.59-.25,0,0-.91,0S257.62,71.65,257.31,71.8Z"/>
        <path class="cls-31" d="M258.37,68a17.09,17.09,0,0,0-2.76-1.52,9.07,9.07,0,0,0-3.86-.31,10,10,0,0,0-2.38,1.39c-.43.43-.1.47.44.28a13.14,13.14,0,0,1,3.19-1,18.75,18.75,0,0,1,3.14.59C257.5,67.61,259.67,69,258.37,68Z"/>
      </g>
      <g>
        <path class="cls-27" d="M112.13,69.46a9.07,9.07,0,0,1,7.5,2.27c2.27,2.19,4.09-.08,3.78,2.42s-.83,2.2-2.42,3.79-.08,1.13-2.95,1.82.45.45-3.71,1-.53,1.29-6.21-.08-4.85-3.1-6.29-4-2.35-1.51-.68-2.65,2-.38,3.56-2.2A3.91,3.91,0,0,1,109,70.29C110,70.59,110.08,69,112.13,69.46Z"/>
        <path class="cls-28" d="M116.89,78.76c3.27-1.27,2.83-.5,3.94-2.14s.24-.74-.64-2.21-1.31-1.33-3.21-2.69-3-1.54-5.47-1.22-3.79,2.15-5.74,2.46-5.47,1.3-3.83,3,.16,1.5,2.43,2.21,3.46,1.48,7.15,1.19S116.23,79.86,116.89,78.76Z"/>
        <path class="cls-29" d="M116.3,78.09c2.79-1.06,2.43-.44,3.33-1.78s.18-.6-.63-1.78-1.18-1.07-2.86-2.15a5.75,5.75,0,0,0-4.77-.93c-2.12.29-3.2,1.78-4.87,2s-4.67,1.12-3.19,2.5.18,1.21,2.17,1.77,3,1.16,6.21.89S115.78,79,116.3,78.09Z"/>
        <path class="cls-30" d="M118,76.55c.33-.27.67-1.78.16-.82-1.23,0-1.54.75-2.83.66-2.63-.6-5-.38-6,.57-.56.61-4.19-.73-3.34.48,1.08-.22,3,.08,3.8-.43a4.28,4.28,0,0,1,3.34-.6c1.57.31,3.28.76,4,.18A1.46,1.46,0,0,0,118,76.55Z"/>
        <path class="cls-30" d="M114.54,75.74c3.14-1.69,1.42-.94,0-.61s-1.15-.62-3-.46-1.11.2-3,.33-2.67.16-2.92.47-.25,1.62.16.9-.71-.57.71-.79,2.09.11,3-.34.81-.39,2.19-.13,1.35.46,1.84.3S113.79,76,114.54,75.74Z"/>
        <path class="cls-30" d="M117.43,74.23c-.17-.89-2.36-1.25-3.2-1.11s-1.93-1-3.2-.53-2.1,1.13-3.55,1.26-1.38-.22-2.56.64a1.27,1.27,0,0,0-.36,2.05c.29.48-.19-.43-.06-1a1.85,1.85,0,0,1,1.17-1.3c.64-.24,2,.12,3.74-.71s1.92-1.07,2.53-.84a3.78,3.78,0,0,0,1.87.61c1,0,.69-.23,1.72,0S117.5,74.72,117.43,74.23Z"/>
        <path class="cls-31" d="M115.74,74.26a14.37,14.37,0,0,0-3.65-.68c-.76-.19-3.53.74-4.6.85s-2.22.34-2.43.8.13-.09.72-.15,2.8-.61,3.91-.62a18.79,18.79,0,0,1,2.92-.15,7.47,7.47,0,0,0,2.21.12C115.3,74.37,116.84,74.84,115.74,74.26Z"/>
        <path class="cls-31" d="M113,75.65a5.28,5.28,0,0,0-2.53-.19,13.91,13.91,0,0,1-3,.39c-.63,0-1.34.31-1.28.64s1.8.25,2.56.09,1.11-.66,2.2-.73S114,76,113,75.65Z"/>
        <path class="cls-31" d="M116.4,77.27c-2.23-.18-3.71-1.14-4.69-.71a7.07,7.07,0,0,1-3.49,1.11c-1.45-.09-1.83,0-1.4.21a39.18,39.18,0,0,0,5.79.27,23.87,23.87,0,0,0,3.68-.38,15.17,15.17,0,0,0,2.29-.69c.59-.25,0,0-.92,0S116.71,77.12,116.4,77.27Z"/>
        <path class="cls-31" d="M117.45,73.44a16.29,16.29,0,0,0-2.76-1.51,8.89,8.89,0,0,0-3.85-.32A10.27,10.27,0,0,0,108.45,73c-.43.43-.09.47.45.28a13.65,13.65,0,0,1,3.18-1,18.39,18.39,0,0,1,3.14.59C116.58,73.08,118.76,74.42,117.45,73.44Z"/>
      </g>
      <g>
        <path class="cls-27" d="M166.29,40.66a9.09,9.09,0,0,1,4.7,6.26c.54,3.12,3.35,2.36,1.63,4.2s-2,1.28-4.2,1.62-.73.87-3.45-.28.1.64-3.58-1.4-1.19.73-5-3.73-2.08-5.37-2.71-6.95-1-2.61,1-2.54,1.87.9,4.17.33a3.91,3.91,0,0,1,4.32,1.28C163.9,40.32,164.9,39.09,166.29,40.66Z"/>
        <path class="cls-28" d="M164.63,51c3.39.91,2.58,1.27,4.45.6s.63-.46.78-2.16-.27-1.85-1-4.07-1.52-3-3.7-4.21-4.33-.51-6.08-1.41-5.19-2.18-4.88.18-.76,1.3.65,3.21,1.92,3.24,5.07,5.19S163.45,51.48,164.63,51Z"/>
        <path class="cls-29" d="M164.55,50.09c2.87.79,2.22,1.08,3.74.54s.5-.39.54-1.81-.32-1.56-1-3.43a5.73,5.73,0,0,0-3.3-3.57c-1.88-1-3.63-.45-5.14-1.22s-4.43-1.86-4,.13-.57,1.09.71,2.71,1.76,2.73,4.48,4.38S163.6,50.51,164.55,50.09Z"/>
        <path class="cls-30" d="M166.86,49.88c.42,0,1.6-1,.62-.57-1-.71-1.69-.31-2.68-1.14-1.77-2-3.79-3.24-5.14-3.05-.81.16-2.95-3.07-3-1.6,1,.47,2.34,1.83,3.31,1.91a4.28,4.28,0,0,1,3.06,1.48c1.08,1.18,2.2,2.55,3.13,2.53C166.42,49.64,166.67,49.87,166.86,49.88Z"/>
        <path class="cls-30" d="M164.52,47.16c3.53.49,1.7.08.39-.47s-.55-1.18-2.14-2.14-1-.5-2.63-1.52-2.25-1.45-2.63-1.34-1.16,1.15-.41.82-.24-.89,1-.22,1.62,1.32,2.67,1.52.88.17,1.83,1.19.83,1.18,1.31,1.33S163.74,47,164.52,47.16Z"/>
        <path class="cls-30" d="M167.74,47.65c.38-.83-1.17-2.41-1.92-2.79s-1-1.93-2.28-2.32-2.36-.33-3.61-1.08-1-1-2.44-1-1.46.89-1.5,1.45.1-.46.54-.83a1.82,1.82,0,0,1,1.71-.36c.65.18,1.54,1.28,3.43,1.64s2.18.27,2.54.81.36,1,1.15,1.6.69.22,1.37,1S167.51,48.08,167.74,47.65Z"/>
        <path class="cls-31" d="M166.36,46.67a14.11,14.11,0,0,0-2.55-2.7c-.49-.61-3.27-1.5-4.21-2s-2-1-2.43-.8.16,0,.67.31,2.62,1.16,3.52,1.81a17.92,17.92,0,0,1,2.45,1.6,7.86,7.86,0,0,0,1.71,1.41C165.94,46.5,166.91,47.79,166.36,46.67Z"/>
        <path class="cls-31" d="M163.33,46.18c-.49-.6-1.38-1.55-1.92-1.65a13.69,13.69,0,0,1-2.61-1.43c-.53-.34-1.27-.54-1.42-.24s1.31,1.27,2,1.58,1.29.13,2.2.72S163.94,47,163.33,46.18Z"/>
        <path class="cls-31" d="M165.11,49.48c-1.69-1.46-2.32-3.1-3.36-3.33A7.07,7.07,0,0,1,158.28,45c-1.12-.93-1.47-1.09-1.26-.66A40,40,0,0,0,161.54,48a25.64,25.64,0,0,0,3.19,1.87,15.74,15.74,0,0,0,2.26.79c.62.14,0,0-.73-.56S165.45,49.55,165.11,49.48Z"/>
        <path class="cls-31" d="M168.22,47a15.49,15.49,0,0,0-1.33-2.85A9,9,0,0,0,164,41.63a10.2,10.2,0,0,0-2.75-.28c-.6.09-.35.32.2.48a13.74,13.74,0,0,1,3.18,1.06,17.65,17.65,0,0,1,2.18,2.33C167.74,46.21,168.7,48.58,168.22,47Z"/>
      </g>
      <g>
        <path class="cls-27" d="M164.93,70.67c-1.51,1.06-6.28,4.77-5.45,6.74s8.18,1.13,13.56-2,4.77-8.26,3.25-8S171.6,67.18,164.93,70.67Z"/>
        <path class="cls-32" d="M177,68.43s-7.14,12.69-17.75,9.24C163.31,69,177.19,68,177,68.43Z"/>
        <path class="cls-33" d="M176.87,68.7s-7,11.69-17.36,9.07C163.14,71,176.87,68.7,176.87,68.7Z"/>
        <path class="cls-34" d="M176.45,69.1s-4.28,6-8.84,7.73a14,14,0,0,1-7.86.9S162.82,73.15,176.45,69.1Z"/>
        <path class="cls-35" d="M176.17,69.38s-5.34,6.06-8.53,7.16a28,28,0,0,1-7.32,1.15S173.94,69.9,176.17,69.38Z"/>
      </g>
      <g>
        <path class="cls-27" d="M231.51,39.63c-1.77-.53-7.65-2-8.67-.1s4.18,7.12,9.95,9.41,9.44-1.38,8.32-2.43S238.37,42.69,231.51,39.63Z"/>
        <path class="cls-32" d="M240.76,47.71S226.38,50,222.5,39.53C231.79,37.33,241.17,47.61,240.76,47.71Z"/>
        <path class="cls-33" d="M240.45,47.77s-13.52,1.74-17.89-8C230.16,38.4,240.45,47.77,240.45,47.77Z"/>
        <path class="cls-34" d="M239.88,47.68s-7.34.35-11.54-2.13a13.93,13.93,0,0,1-5.58-5.61S228.24,39.51,239.88,47.68Z"/>
        <path class="cls-35" d="M239.49,47.64s-8.07-.43-10.91-2.24a28,28,0,0,1-5.45-5S237.69,46.22,239.49,47.64Z"/>
      </g>
      <g>
        <path class="cls-27" d="M75.3,60.6c-1.35-.4-5.84-1.5-6.63-.07s3.2,5.45,7.62,7.2,7.21-1.06,6.36-1.86A18.34,18.34,0,0,0,75.3,60.6Z"/>
        <path class="cls-32" d="M82.38,66.79s-11,1.74-14-6.26C75.52,58.84,82.7,66.71,82.38,66.79Z"/>
        <path class="cls-33" d="M82.14,66.83S71.8,68.16,68.46,60.72C74.27,59.66,82.14,66.83,82.14,66.83Z"/>
        <path class="cls-34" d="M81.71,66.76s-5.62.27-8.83-1.63a10.62,10.62,0,0,1-4.27-4.29S72.8,60.51,81.71,66.76Z"/>
        <path class="cls-35" d="M81.4,66.73S75.23,66.4,73.07,65a21.34,21.34,0,0,1-4.17-3.84S80,65.64,81.4,66.73Z"/>
      </g>
      <g>
        <path class="cls-27" d="M302.46,59.62c-1.35-.4-5.84-1.5-6.63-.07s3.2,5.45,7.62,7.2,7.21-1.06,6.36-1.86A18.34,18.34,0,0,0,302.46,59.62Z"/>
        <path class="cls-32" d="M309.54,65.81s-11,1.75-14-6.26C302.68,57.86,309.86,65.73,309.54,65.81Z"/>
        <path class="cls-33" d="M309.3,65.85S299,67.18,295.62,59.74C301.43,58.68,309.3,65.85,309.3,65.85Z"/>
        <path class="cls-34" d="M308.87,65.79s-5.62.26-8.83-1.64a10.72,10.72,0,0,1-4.27-4.28S300,59.53,308.87,65.79Z"/>
        <path class="cls-35" d="M308.57,65.75s-6.17-.32-8.34-1.71a21.25,21.25,0,0,1-4.17-3.85S307.19,64.66,308.57,65.75Z"/>
      </g>
    </g>
  </g>
</svg>
