<svg xmlns="http://www.w3.org/2000/svg" xmlns:xlink="http://www.w3.org/1999/xlink" width="346" height="348" viewBox="0 0 346 348">
  <defs>
    <style>
      .cls-1 {
        fill: none;
      }

      .cls-2 {
        isolation: isolate;
      }

      .cls-3 {
        fill: #ff0;
      }

      .cls-4 {
        clip-path: url(#clip-path);
      }

      .cls-5 {
        clip-path: url(#clip-path-2);
      }

      .cls-6 {
        fill: url(#linear-gradient);
      }

      .cls-7 {
        opacity: 0.2;
        mix-blend-mode: multiply;
        fill: url(#Áåçûìÿííûé_ãðàäèåíò_99);
      }

      .cls-8 {
        fill: #e4f9f5;
        opacity: 0.43;
      }

      .cls-10, .cls-11, .cls-9 {
        mix-blend-mode: soft-light;
      }

      .cls-9 {
        fill: url(#Áåçûìÿííûé_ãðàäèåíò_62);
      }

      .cls-10 {
        opacity: 0.37;
        fill: url(#Áåçûìÿííûé_ãðàäèåíò_62-2);
      }

      .cls-11 {
        opacity: 0.28;
        fill: url(#Áåçûìÿííûé_ãðàäèåíò_62-3);
      }

      .cls-12 {
        fill: url(#Áåçûìÿííûé_ãðàäèåíò_218);
      }

      .cls-13 {
        fill-rule: evenodd;
        opacity: 0.5;
      }
    </style>
    <clipPath id="clip-path">
      <rect class="cls-1" x="13.02" y="14.02" width="319.96" height="319.96" rx="26.14"/>
    </clipPath>
    <clipPath id="clip-path-2">
      <rect class="cls-1" x="-398.07" y="6.03" width="992.93" height="491.34"/>
    </clipPath>
    <linearGradient id="linear-gradient" x1="171.91" y1="325.86" x2="171.91" y2="20.23" gradientUnits="userSpaceOnUse">
      <stop offset="0" stop-color="#c5f3ff"/>
      <stop offset="0.1" stop-color="#a7e7fa"/>
      <stop offset="0.34" stop-color="#69cfee"/>
      <stop offset="0.45" stop-color="#50c5ea"/>
      <stop offset="0.58" stop-color="#41b3df"/>
      <stop offset="0.85" stop-color="#1b86c2"/>
      <stop offset="1" stop-color="#0269af"/>
    </linearGradient>
    <linearGradient id="Áåçûìÿííûé_ãðàäèåíò_99" data-name="Áåçûìÿííûé ãðàäèåíò 99" x1="-398.3" y1="387.03" x2="646.35" y2="387.03" gradientUnits="userSpaceOnUse">
      <stop offset="0" stop-color="#5c3856"/>
      <stop offset="0.26" stop-color="#655378"/>
      <stop offset="0.57" stop-color="#6e6e99"/>
      <stop offset="0.83" stop-color="#737eae"/>
      <stop offset="1" stop-color="#7584b5"/>
    </linearGradient>
    <linearGradient id="Áåçûìÿííûé_ãðàäèåíò_62" data-name="Áåçûìÿííûé ãðàäèåíò 62" x1="714.84" y1="514.3" x2="714.84" y2="442.63" gradientTransform="translate(-474.23 -295.39) rotate(-11.7)" gradientUnits="userSpaceOnUse">
      <stop offset="0" stop-color="#e0ffce"/>
      <stop offset="1" stop-color="#6ed3f1"/>
    </linearGradient>
    <linearGradient id="Áåçûìÿííûé_ãðàäèåíò_62-2" x1="-4435.23" y1="3237.85" x2="-4435.23" y2="3155.65" gradientTransform="matrix(-0.42, 0.91, 0.91, 0.42, -4443.07, 2801.03)" xlink:href="#Áåçûìÿííûé_ãðàäèåíò_62"/>
    <linearGradient id="Áåçûìÿííûé_ãðàäèåíò_62-3" x1="-10.85" y1="114" x2="-10.85" y2="5.16" gradientTransform="matrix(1, 0, 0, 1, 0, 0)" xlink:href="#Áåçûìÿííûé_ãðàäèåíò_62"/>
    <linearGradient id="Áåçûìÿííûé_ãðàäèåíò_218" data-name="Áåçûìÿííûé ãðàäèåíò 218" x1="124.02" y1="552.07" x2="124.02" y2="336.69" gradientUnits="userSpaceOnUse">
      <stop offset="0.01" stop-color="#d1c27c"/>
      <stop offset="0.26" stop-color="#6ddbb3"/>
      <stop offset="0.6" stop-color="#00b6db"/>
      <stop offset="1" stop-color="#3baeec"/>
    </linearGradient>
  </defs>
  <g class="cls-2">
    <g id="Layer_1" data-name="Layer 1">
      <g>
        <path class="cls-3" d="M39.16,8H306.84A32.15,32.15,0,0,1,339,40.16V307.84A32.14,32.14,0,0,1,306.84,340H39.16A32.15,32.15,0,0,1,7,307.84V40.16A32.14,32.14,0,0,1,39.16,8Z"/>
        <g class="cls-4">
          <g id="_64" data-name="64">
            <g class="cls-5">
              <g>
                <rect class="cls-6" x="-11.33" y="5.16" width="366.48" height="352.79"/>
                <polygon class="cls-7" points="-398.3 414.37 68.95 414.37 -78.38 421.12 -108.12 428.01 253.26 405.61 103.37 399.58 248.99 392.69 261.29 392.69 409.5 360.81 5.6 360.81 113.57 367.7 -96.73 372.3 -19.91 365.12 -398.3 370 -398.3 336.69 646.35 336.69 645.79 374.6 341.23 382.35 426.63 389.53 327.53 387.23 278.24 398.72 609.28 427.72 -154.54 437.38 -115.47 423.99 -398.3 414.37"/>
                <g>
                  <path class="cls-8" d="M14.72,308.69a3.11,3.11,0,0,1-.8,2.46c-.76-.32-.51-.65-.51-.65s1.22-1.6.86-1.78S14.72,308.69,14.72,308.69Z"/>
                  <path class="cls-8" d="M332,233.86s-14.41-7.37-23.1,0c-7.38,7.2.2,10.27,5.17,10,7.67-.1,17.07-.9,17.07-.9S341.51,240.73,332,233.86Z"/>
                  <path class="cls-8" d="M110,193.07s-14.41-7.37-23.1,0c-7.38,7.2.2,10.28,5.17,10,7.67-.11,17.07-.9,17.07-.9S119.58,199.94,110,193.07Z"/>
                  <path class="cls-8" d="M422.7,360.12c.91-8,2-23.64-2.49-35.74a41.47,41.47,0,0,0-1.76-4.06c-.65-1.28-8.34-16.3-15-12.32-4.16,2.48-5.76,11.08-6.15,13.42-1-3.93-3.67-6.79-6.79-7.31-4.5-.76-7.3,3.83-7.42,4,0-.83.21-6.37-3-10.19s-8.29-4.33-12.47-1c-.83-6.59-4.65-11.83-9.38-13-5.59-1.43-11.45,3-13.33,10.61C340,297,332,295.44,327,299.88c-5.42,4.78-5.06,14.32-5,14.86-3.48-6.24-9.47-9.23-15.07-7.56-5.11,1.52-9.14,6.69-10.45,13.38-2.93-3.78-7.17-4.51-10-2.11s-3.09,6.91-3.12,7.51a7.4,7.4,0,0,0-5.7.9c-3.27,2-4.41,5.87-4.64,6.71.7-11.28-6.56-12.06-10.86-8.91,3.29-7.28-6.72-27.36-17.83-10.33-.33-.83-2.32-5.6-6.28-6.78-4.37-1.3-9.4,2.26-11.54,9-1.81-2.11-5.36-5.58-10.42-6.65-1-.21-10.27-2-14.14,4.81a17.61,17.61,0,0,0-1.8,5.73c-2.35,13.28-1.4,31.82-.85,40q.45,6.87.91,13.75,70.67-6.07,141.35-9.18,32.73-1.44,65.46-2.24Z"/>
                  <path class="cls-8" d="M291.62,380.51c.72-7.75,2.28-46.88-5.58-62.69a46.68,46.68,0,0,0-2.62-4.51c-.95-1.41-12.26-17.93-21.12-12.66-5.53,3.28-7.23,13.36-7.64,16.1A11.29,11.29,0,0,0,245,309c-6.18-.41-9.74,5.16-9.89,5.41,0-1-.07-7.36-4.62-11.45s-11.53-4.14-17,.09c-1.49-7.51-7-13.15-13.5-14.07-7.7-1.08-15.43,4.64-17.58,13.6-7.19-8.16-18.06-9.12-24.68-3.49-7.11,6.06-6.11,17-6,17.65-5.1-6.84-13.42-9.68-21-7.18-6.88,2.28-12.08,8.64-13.5,16.49-4.2-4.06-10-4.46-13.75-1.41s-3.83,8.27-3.83,9a11.78,11.78,0,0,0-7.72,1.61,14.21,14.21,0,0,0-6,8.2c.34-13.06-9.6-13.22-15.28-9.15,4.08-8.73-10.66-30.84-24.86-10.08-.5-.92-3.47-6.22-8.93-7.18-6-1-12.68,3.57-15.23,11.55A26.61,26.61,0,0,0,7.09,322c-1.33-.14-14.1-1.28-19,7A18.77,18.77,0,0,0-14,335.76c-2.48,15.54-.17,36.82,1,46.16q-1.34,3.24-2.66,6.49c68-7.34,151.31-1.22,225.87-1.58,24.74-.12,42.08-.2,66.07.52C282.68,385.5,285.2,382.36,291.62,380.51Z"/>
                </g>
                <path class="cls-9" d="M291.2,71.34s25.26-21,52.09-66.38c3.64-6.16,7.31-12.78,10.95-19.86L341.37,4.67S334.2,6.43,327.9,15.41,320.09,37,320.09,37,304.84,59,291.2,71.34Z"/>
                <path class="cls-10" d="M240.45,168.27s34.34-32.5,59.82-69.4a37.59,37.59,0,0,1-3.64,11.74S325,73.29,352,28.22c0,0,.65,21.62-12.51,47.09,0,0,11.31-10.22,12.47-7.77s-13.65,26-13.65,26,3.5-3.54,4.1-2.41-6.51,10.72-6.51,10.72,23.72-28.14,25.42-27.93-9.13,21.74-9.13,21.74a523.48,523.48,0,0,0,34.25-48.21s-26,44.83-53.36,76.9-58.27,45.33-59,44.11S280.32,155,280.32,155s-8.09,6-9.71,3.49,2.19-8.62,2.19-8.62S248.82,165.46,240.45,168.27Z"/>
                <path class="cls-11" d="M25.88,5.16S78.14,63.74,103.1,81.84c0,0-21.86-12.93-27.86-19.53,0,0,4.06,8.33,1.36,10.34S61.12,66,61.12,66s21.28,33.6,5.8,36.76S-3.3,63.17-3.3,63.17,21.27,87.58,20.49,93.9s-11.6-1.73-11.6-1.73S23.2,105.1,37.52,114c0,0-69.26-18.67-105.24-50.54,0,0,7.35,14.36,16.64,24.12,0,0-27.47-20.68-40.63-38.77,0,0,13.93,6.89,19,10.77,0,0-38.88-40.92-52-54.42h75.25S-17.62,44.22-1.17,54.84L-31,5.16Z"/>
                <rect class="cls-12" x="-398.3" y="336.69" width="1044.65" height="215.39"/>
              </g>
            </g>
          </g>
          <path class="cls-13" d="M151.7,184c-2.09,2.47-6,2.54-7.37,6-.23,1.45,1.51,1.38,1.37,2.76a3.72,3.72,0,0,1-3.18.17c-.31-4.15-4.21-4.1-8.27-5.08,2.37-2.6,6.47.88,8.64,0C144.56,184.85,147.44,183.52,151.7,184Z"/>
          <path class="cls-13" d="M284.06,189c-3.55,8.94-13.26,16.53-21.49,22-.16,3.68,2.61,5.09,5.16,6.67-2,3-6.09,3.34-10.44,3.34,1.46-14.91-19.23-6-29.14-12.38,7.43-1.37,13.91-4,23.67-2.34,2.61-.5.23-2.7,1.9-4.43,2.86,0,2.4,2.48,5,2.64C266.13,197.93,276.36,195.08,284.06,189Z"/>
          <path class="cls-13" d="M239.49,121.4a41.16,41.16,0,0,1-9.77,2.21c-.48,1.57,1.93,1.94,1.06,3-2.16,1.46-2.6-1.34-4.07-2-3.5.86-6.76,2-10.65,2.38,3-2.34,6.77-3.78,9.95-5.92C230.5,121.2,235.23,121.61,239.49,121.4Z"/>
        </g>
      </g>
    </g>
  </g>
</svg>
