<svg xmlns="http://www.w3.org/2000/svg" xmlns:xlink="http://www.w3.org/1999/xlink" width="279.44" height="293.41" viewBox="0 0 279.44 293.41">
  <defs>
    <style>
      .cls-1 {
        fill: none;
      }

      .cls-2 {
        isolation: isolate;
      }

      .cls-3 {
        fill: #ff0;
      }

      .cls-4 {
        fill: #fb8000;
      }

      .cls-5 {
        fill: #3fc416;
      }

      .cls-6 {
        fill: #e53963;
      }

      .cls-7 {
        opacity: 0.2;
        mix-blend-mode: screen;
      }

      .cls-8 {
        fill: url(#linear-gradient);
      }

      .cls-9 {
        opacity: 0.5;
        mix-blend-mode: multiply;
      }

      .cls-10 {
        fill: url(#linear-gradient-2);
      }

      .cls-11 {
        fill: url(#linear-gradient-3);
      }

      .cls-12 {
        clip-path: url(#clip-path);
      }

      .cls-13 {
        clip-path: url(#clip-path-2);
      }
    </style>
    <linearGradient id="linear-gradient" x1="-6003.32" y1="-9102.3" x2="-5927.5" y2="-9102.3" gradientTransform="translate(19206.87 6640.01) rotate(-37.88) scale(1.86)" gradientUnits="userSpaceOnUse">
      <stop offset="0" stop-color="#ff0a3b"/>
      <stop offset="0.67" stop-color="#ff576b"/>
      <stop offset="1" stop-color="#ff7880"/>
    </linearGradient>
    <linearGradient id="linear-gradient-2" x1="-5947.62" y1="-9132.33" x2="-5946.78" y2="-9033.78" gradientTransform="translate(19206.87 6640.01) rotate(-37.88) scale(1.86)" gradientUnits="userSpaceOnUse">
      <stop offset="0" stop-color="#cc8122"/>
      <stop offset="0.32" stop-color="#9e5e16"/>
      <stop offset="0.78" stop-color="#612f06"/>
      <stop offset="1" stop-color="#491c00"/>
    </linearGradient>
    <linearGradient id="linear-gradient-3" x1="-6003.32" y1="-9090.93" x2="-5891.07" y2="-9090.93" xlink:href="#linear-gradient-2"/>
    <clipPath id="clip-path">
      <rect class="cls-1" x="795.8" y="17.37" width="399.27" height="399.27" rx="26.14"/>
    </clipPath>
    <clipPath id="clip-path-2">
      <rect class="cls-1" x="577.17" y="-63.65" width="679.16" height="679.16"/>
    </clipPath>
  </defs>
  <g class="cls-2">
    <g id="Layer_1" data-name="Layer 1">
      <g>
        <path class="cls-3" d="M261.75,270.18c-2.59-.46-6.26-1-10.84-1.48-17.42-2.17-18.9-12.44-20-30.41-1-16.26-2.28-36.49-27.39-41.44a4.29,4.29,0,0,0-.5-.07c-10.06-1.11-17.87-3.47-23.31-7l9-7A6,6,0,0,0,185.2,172l-16.59-.48,14.7-114a13.45,13.45,0,0,0,7.44,6.15,20.91,20.91,0,0,0,8,1.5c2.41,0,8.4-.41,12.15-4.2a6,6,0,0,0-4.27-10.21,6.32,6.32,0,0,0-1.37.15,25,25,0,0,1-5.6.78c-3.41,0-3.93-.39-5.31-7-1-4.58-2.48-11.8-9.36-14.76a6,6,0,0,0-4-2.23L34.7,10A5.81,5.81,0,0,0,34,10,6,6,0,0,0,28,15.22L9.27,160.76a6,6,0,0,0,.67,3.61c.69,8.11,7.78,11.62,12.23,13.81,2.46,1.22,5.25,2.6,5.68,3.95.17.52.49,2.64-2.34,7.91a6,6,0,0,0,5.28,8.84,5.89,5.89,0,0,0,2.7-.64c6.36-3.2,8.88-13.09,8-19a13.56,13.56,0,0,0-4.24-8.78l1.61,0,113.69,13.74-3.59,16a6,6,0,0,0,9.53,6.06l9.77-7.57c6.35,6.28,15.67,10.93,26,12.84a5,5,0,0,0,.54.07c17,1.55,18.46,10.93,19.72,28.77,1.2,16.88,2.83,40,34.86,42.67h.14c4.7.29,8.43.43,11.07.43s9.27,0,9.61-6C270.52,271.71,264.82,270.71,261.75,270.18Z"/>
        <g>
          <path class="cls-4" d="M16.59,160.7c-.94,11.57,18,8.19,18.9,19.3.77,4.23-1.37,11.21-4.7,12.88,12.93-24-18.1-15.76-14.63-32.34A.23.23,0,0,1,16.59,160.7Z"/>
          <path class="cls-4" d="M178.74,34.63c17.1.73,1.06,28.42,27.93,22.12-2.69,2.72-9.74,3.11-13.73,1.32-10.58-3.54-2.69-21.09-14.15-23A.23.23,0,0,1,178.74,34.63Z"/>
          <path class="cls-5" d="M167.48,185.47c6.7,11.86,21.67,15.82,34.86,17.27,42,8.28,2.37,66.26,47.83,71.91,18.76,2.14,18.77,3.51-.29,2.37-52.4-4.38-7.49-67.16-54.53-71.44-11.44-2.11-24.45-8.8-28.74-19.76A.47.47,0,0,1,167.48,185.47Z"/>
          <polygon class="cls-6" points="180.33 33.67 161.57 179.21 15.22 161.53 33.98 15.98 180.33 33.67"/>
          <g class="cls-7">
            <path class="cls-8" d="M95.29,34.73c45.91,58.08-7.45,147.1-80.06,126.8L34,16l48.74,5.88A81.48,81.48,0,0,1,95.29,34.73Z"/>
          </g>
          <g class="cls-9">
            <path class="cls-10" d="M98.62,97.35c20.78,26.66,44.31,56.92,63.61,82.26l-.43.33C120.74,128.58,73.77,68.5,33.94,16.37L34,16l.39,0C54.2,40.76,77.69,70.65,98.62,97.35Z"/>
            <path class="cls-11" d="M180.33,33.67l-.25,2c-74,5.86-138.94,56.21-162.78,126.13l-2.07-.25C31.69,93.26,110.05,32.55,180.33,33.67Z"/>
          </g>
          <polygon class="cls-6" points="154.77 201.46 160.19 177.33 185.03 178.03 154.77 201.46"/>
        </g>
      </g>
    </g>
  </g>
</svg>
