<svg xmlns="http://www.w3.org/2000/svg" width="165.89" height="334.76" viewBox="0 0 165.89 334.76">
  <defs>
    <style>
      .cls-1 {
        isolation: isolate;
      }

      .cls-2 {
        fill: #ff0;
      }

      .cls-3 {
        fill: #f47e20;
      }

      .cls-4 {
        fill: #bb5d27;
      }

      .cls-5 {
        fill: #7fd1e9;
      }

      .cls-6 {
        fill: #dad9d8;
      }

      .cls-6, .cls-7 {
        mix-blend-mode: multiply;
      }

      .cls-7 {
        fill: #c7e7f9;
      }

      .cls-8 {
        fill: #575756;
      }

      .cls-8, .cls-9 {
        mix-blend-mode: screen;
      }

      .cls-9 {
        fill: #3c3c3b;
      }
    </style>
  </defs>
  <g class="cls-1">
    <g id="Layer_1" data-name="Layer 1">
      <g>
        <path class="cls-2" d="M152.93,76.86a27.27,27.27,0,0,0-5.72-25c-4.28-4.87-9.82-7.66-15.21-7.66l-.82,0c-2.64-1.62-8.41-9.34-12-14.09-8.61-11.53-14.3-18.66-20.72-20.42a25.15,25.15,0,0,0-6.62-.93,18.94,18.94,0,0,0-9,2.13A18.87,18.87,0,0,0,74,8.75a25.15,25.15,0,0,0-6.62.93C61,11.44,55.27,18.57,46.66,30.1c-3.52,4.71-9.3,12.46-12,14.09l-.81,0C28.5,44.17,23,47,18.68,51.84a27.26,27.26,0,0,0-5.72,25c.66,2.6,1.4,5.21,2.11,7.75C16.75,90.57,20.23,103,17.72,104c-4.52,1.78-7.56,5.91-8.58,11.62C7.28,126,12.4,141.93,19.67,148.42c1.72,1.54,2.2,4.19,2.95,9.15,1,6.65,2.42,15.77,10,25.3,4.86,6.14,13.13,12.32,24.57,18.36.94.62,8.48,5.72,9.09,13.55.32,4.07-.21,5.21-.2,5.21h0l-.18.21c-2.37,2.89-2.7,6-1,9.46,1.19,2.94,4.64,24.05-1.3,43.69-1.45,4.81-3.55,10.89-5.32,12.58-3,2.86-3.09,5.6-2.87,9.46a21.43,21.43,0,0,0,11.39,17.47v.05c.4,2.32,1.29,7.5,6,8.82l.13.12A13.36,13.36,0,0,0,82.34,326H83.5A13.39,13.39,0,0,0,93,321.85l.13-.12c4.68-1.33,5.57-6.5,6-8.82v-.05a21.43,21.43,0,0,0,11.39-17.47c.22-3.85.15-6.6-2.87-9.47-1.77-1.68-3.87-7.76-5.32-12.57-5.94-19.64-2.49-40.75-1.3-43.69,1.71-3.48,1.38-6.57-1-9.46a1.35,1.35,0,0,1-.16-.19s-.54-1.13-.22-5.23c.62-7.91,8.14-12.94,9.07-13.53,11.45-6.05,19.72-12.23,24.59-18.38,7.53-9.53,8.93-18.65,10-25.3.75-5,1.23-7.61,2.95-9.15,7.27-6.49,12.39-22.46,10.53-32.85-1-5.71-4.06-9.84-8.58-11.62-2.51-1,1-13.38,2.65-19.33C151.5,82.22,152.26,79.5,152.93,76.86Z"/>
        <g>
          <path class="cls-3" d="M145.84,109.85c-9.45-3.73-2.8-19.72.93-34.54S139,49.64,131,50.58,106.63,18.49,96.83,15.81s-13.88,3-13.88,3-4.09-5.72-13.89-3S42.81,51.51,34.87,50.58,15.39,60.5,19.12,75.31s10.38,30.81.93,34.54-3.85,27,3.85,33.84,1.75,20.19,13.66,35.24c5.07,6.42,14.08,12.24,22.74,16.8h0s11.33,6.65,12.26,18.55-3.85,8.87-2,12.6,5.48,27.07-.94,48.31S61.24,287,61.71,295s7.35,12.36,9.57,12.83,1.28,7.59,3.5,7.82,3.5,4.32,8.17,4c4.66.35,6-3.74,8.16-4s1.29-7.35,3.5-7.82,9.1-4.78,9.57-12.83-1.52,1.4-7.93-19.84-2.8-44.57-.94-48.31-2.91-.7-2-12.6,12.26-18.55,12.26-18.55h0c8.66-4.56,17.67-10.38,22.74-16.8,11.91-15.05,6-28.36,13.66-35.24S155.29,113.59,145.84,109.85Z"/>
          <path class="cls-4" d="M82.34,320c-2.62,0-4.16-1.42-5.41-2.58A4.36,4.36,0,0,0,74.74,316c-1.38-.15-1.71-2.09-2.06-4.14-.28-1.64-.6-3.5-1.48-3.69-2-.42-9.35-4.62-9.84-13.15-.2-3.47,0-3.86,1-4.78s3.3-3.13,6.94-15.18c6.49-21.49,2.69-44.58,1-48-.81-1.63-.46-2.19.23-3,.85-1,2.27-2.76,1.72-9.71-.91-11.59-12-18.22-12.08-18.28-10.79-5.68-18.48-11.36-22.85-16.89-6.55-8.28-7.76-16.16-8.73-22.48-.82-5.4-1.48-9.67-4.88-12.71C17.9,138.79,13.55,125,15,116.62c.65-3.63,2.34-6.09,4.88-7.09,7.56-3,4.34-14.43.92-26.54-.7-2.49-1.42-5.07-2.06-7.59a21.35,21.35,0,0,1,4.41-19.61c3.41-3.88,7.9-6,11.72-5.56s10.32-8.18,16.56-16.54S64.08,16.81,69,15.47c8.49-2.33,12.87,1.61,14,2.83,1.11-1.22,5.48-5.16,14-2.83,4.9,1.34,11.3,9.92,17.5,18.22s12.69,17,16.56,16.54,8.31,1.68,11.72,5.56a21.35,21.35,0,0,1,4.41,19.61c-.64,2.52-1.36,5.1-2.06,7.6-3.42,12.1-6.64,23.54.92,26.53,2.54,1,4.23,3.46,4.88,7.09,1.49,8.38-2.86,22.17-8.63,27.33-3.4,3-4.06,7.31-4.88,12.71-1,6.32-2.18,14.2-8.73,22.48-4.37,5.53-12.06,11.21-22.86,16.9-.44.26-11.17,6.75-12.07,18.27-.55,6.95.88,8.68,1.72,9.71.69.83,1,1.39.23,3-1.74,3.47-5.54,26.56,1,48,3.64,12.05,5.87,14.17,6.94,15.18s1.21,1.31,1,4.78c-.49,8.53-7.82,12.73-9.84,13.15-.88.19-1.2,2.05-1.48,3.69-.35,2.05-.68,4-2.06,4.14A4.36,4.36,0,0,0,89,317.44c-1.34,1.24-3,2.78-6,2.56Zm.58-.72c2.77.21,4.26-1.17,5.57-2.37a4.81,4.81,0,0,1,2.59-1.6c.85-.09,1.16-1.93,1.44-3.56.34-1.95.68-4,2-4.25,1.84-.39,8.83-4.5,9.29-12.51.19-3.29,0-3.49-.8-4.23-1.19-1.14-3.42-3.26-7.12-15.49-6.55-21.67-2.67-45-.91-48.56.65-1.31.44-1.57-.14-2.27-.91-1.11-2.45-3-1.88-10.2.94-11.95,12.31-18.77,12.43-18.84,10.73-5.64,18.35-11.27,22.65-16.71,6.44-8.14,7.63-15.91,8.58-22.16.82-5.32,1.52-9.91,5.11-13.12,5.63-5,9.87-18.5,8.41-26.68-.62-3.44-2.11-5.65-4.45-6.57-8.14-3.22-4.84-15-1.34-27.37.7-2.49,1.43-5.07,2.06-7.58a20.61,20.61,0,0,0-4.26-19c-3.25-3.72-7.51-5.76-11.11-5.33-4.28.51-10.55-7.91-17.2-16.82-6.13-8.2-12.46-16.69-17.12-18C87.3,13.56,83.39,18.82,83.23,19l-.28.4-.29-.4c-.16-.22-4.08-5.48-13.51-2.9-4.66,1.28-11,9.77-17.12,18C45.38,43,39.1,51.44,34.83,50.93c-3.6-.43-7.86,1.61-11.11,5.33a20.61,20.61,0,0,0-4.26,19c.63,2.51,1.36,5.08,2.06,7.57,3.5,12.43,6.8,24.16-1.34,27.38-2.34.92-3.83,3.13-4.45,6.57-1.46,8.18,2.78,21.65,8.41,26.68,3.59,3.21,4.29,7.8,5.11,13.12.95,6.25,2.14,14,8.58,22.16,4.31,5.44,11.92,11.07,22.64,16.71.48.28,11.51,6.94,12.44,18.84.57,7.23-1,9.09-1.88,10.2-.58.7-.79,1-.14,2.27,1.76,3.52,5.64,26.89-.91,48.56-3.7,12.23-5.93,14.35-7.12,15.49-.78.74-1,.94-.8,4.23.46,8,7.45,12.12,9.29,12.51,1.34.28,1.68,2.3,2,4.25.28,1.63.59,3.47,1.44,3.56a4.81,4.81,0,0,1,2.59,1.6C78.71,318.13,80.2,319.51,82.92,319.3Z"/>
          <ellipse class="cls-5" cx="82.95" cy="108.1" rx="52.97" ry="79.01"/>
          <path class="cls-6" d="M84.46,29.09l-.76,0c28.91.6,52.22,35.73,52.22,79s-23.31,78.39-52.22,79h.76c29.26,0,53-35.37,53-79S113.72,29.09,84.46,29.09Z"/>
          <path class="cls-7" d="M83,29.09h-.56c29,.45,52.42,35.64,52.42,79s-23.42,78.56-52.42,79H83c29.25,0,53-35.37,53-79S112.2,29.09,83,29.09Z"/>
          <path class="cls-6" d="M30,108.1C30,65,53.09,30,81.84,29.11l-1.11,0c-29.26,0-53,35.38-53,79s23.72,79,53,79l1.11,0C53.09,186.21,30,151.18,30,108.1Z"/>
          <path class="cls-7" d="M32.42,109.15c0-43.63,23.72-79,53-79a36.85,36.85,0,0,1,13.43,2.57A37.19,37.19,0,0,0,83,29.09c-29.26,0-53,35.38-53,79,0,36.71,16.79,67.57,39.54,76.44C48,174.48,32.42,144.53,32.42,109.15Z"/>
          <path class="cls-8" d="M103.64,35.35l-70.56,46A114.29,114.29,0,0,0,30,108.1a115.58,115.58,0,0,0,2.34,23.31l96.47-62.94C123.05,53.76,114.23,42.06,103.64,35.35Z"/>
          <path class="cls-8" d="M43.45,160.76l92.23-60.17a111.46,111.46,0,0,0-3.52-21.78l-97,63.31A89.31,89.31,0,0,0,43.45,160.76Z"/>
          <path class="cls-9" d="M82,18.89s-3.5-3.43-10.11-2.73S58.16,25.43,59.52,25.3s7-6.65,16.37-6.3C82,19.23,83.19,20.05,82,18.89Z"/>
          <path class="cls-9" d="M34.92,51.48s-4.76-1.37-10.71,4.93-4.64,18.82-2.76,23.8S19.53,66.61,26.7,59C33.31,52,36.87,52.08,34.92,51.48Z"/>
          <path class="cls-9" d="M74.08,258.6c0-.59,2.51,14.08-.12,21.32s-7.38,10.26-6.15,15.46,7.61,11.78,6.09,11.72-8.49-2.59-10-6.62S61.39,293,63.55,291,73.9,274.59,74.08,258.6Z"/>
          <path class="cls-9" d="M22.69,109.25a10.09,10.09,0,0,1-2.8,1.75c-1.69.7-3.89,4.28-4,8.24s1,13,4.93,19c3,4.56,5.52,5.63,6.62,8.49s2.13,10,2.31,10.62a107,107,0,0,0-.7-13.59c-.59-3.21-8.35-9.49-9.28-17.74C18.19,112.13,24.66,108.08,22.69,109.25Z"/>
          <path class="cls-9" d="M57,179.86S68.42,191.27,83,191s21.24-9.55,21.24-9.55S84.86,196.61,57,179.86Z"/>
        </g>
      </g>
    </g>
  </g>
</svg>
