<svg xmlns="http://www.w3.org/2000/svg" xmlns:xlink="http://www.w3.org/1999/xlink" width="224.3" height="523.07" viewBox="0 0 224.3 523.07">
  <defs>
    <style>
      .cls-1, .cls-10 {
        fill: none;
      }

      .cls-2 {
        isolation: isolate;
      }

      .cls-3 {
        fill: #ff0;
      }

      .cls-4 {
        opacity: 0.11;
      }

      .cls-41, .cls-5 {
        fill: #fbd1b5;
      }

      .cls-5 {
        stroke: #cca183;
      }

      .cls-10, .cls-16, .cls-18, .cls-27, .cls-29, .cls-31, .cls-39, .cls-5, .cls-6 {
        stroke-miterlimit: 10;
      }

      .cls-6, .cls-9 {
        fill: #b9c0b0;
      }

      .cls-6 {
        stroke: #2c9b59;
      }

      .cls-7 {
        fill: #3093e6;
      }

      .cls-8 {
        fill: #097cc1;
      }

      .cls-10 {
        stroke: #878e6f;
      }

      .cls-11, .cls-27, .cls-32, .cls-39 {
        fill: #eeeded;
      }

      .cls-12, .cls-18 {
        fill: #717070;
      }

      .cls-12, .cls-15 {
        opacity: 0.3;
      }

      .cls-12, .cls-14, .cls-15, .cls-22, .cls-25, .cls-32, .cls-35, .cls-38, .cls-47 {
        mix-blend-mode: multiply;
      }

      .cls-13 {
        fill: #342517;
      }

      .cls-14, .cls-15 {
        fill: #644f43;
      }

      .cls-14, .cls-22 {
        opacity: 0.5;
      }

      .cls-16 {
        fill: #a58484;
      }

      .cls-16, .cls-27, .cls-29, .cls-31, .cls-39 {
        stroke: #ba9b9b;
      }

      .cls-16, .cls-27, .cls-31 {
        stroke-width: 2px;
      }

      .cls-17 {
        fill: #c2c3c3;
      }

      .cls-18 {
        stroke: #5b4343;
      }

      .cls-19 {
        fill: #585857;
      }

      .cls-20, .cls-22 {
        fill: #7e4f25;
      }

      .cls-21 {
        fill: #442a19;
      }

      .cls-23 {
        fill: #ead3d3;
      }

      .cls-24 {
        fill: #878787;
      }

      .cls-26 {
        fill: #b3b2b2;
      }

      .cls-28 {
        fill: #dadada;
      }

      .cls-29, .cls-31 {
        fill: #f7f5f5;
      }

      .cls-30 {
        fill: #a3a3a3;
      }

      .cls-33, .cls-35 {
        fill: #afb0b0;
      }

      .cls-34 {
        fill: #9f9f9f;
      }

      .cls-36, .cls-38 {
        fill: #78c8c1;
      }

      .cls-37 {
        fill: #5ebeb6;
      }

      .cls-39 {
        stroke-width: 0.75px;
      }

      .cls-40 {
        clip-path: url(#clip-path);
      }

      .cls-42 {
        fill: #eac1a4;
      }

      .cls-43 {
        fill: #6b6f70;
      }

      .cls-44, .cls-47 {
        fill: #4b5157;
      }

      .cls-45 {
        fill: #808588;
      }

      .cls-46 {
        fill: #899497;
      }

      .cls-47 {
        opacity: 0.4;
      }

      .cls-48 {
        fill: #cca183;
      }

      .cls-49 {
        fill: #db9d8e;
      }

      .cls-50 {
        fill: #fff;
      }

      .cls-51 {
        fill: #3d2e17;
      }

      .cls-52 {
        fill: #2d2b21;
      }

      .cls-53 {
        fill: #f2f0e9;
      }

      .cls-54 {
        fill: #f4a198;
      }

      .cls-55 {
        fill: #60201e;
      }

      .cls-56 {
        fill: #fff7f4;
      }

      .cls-57 {
        fill: #f58778;
      }

      .cls-58 {
        fill: #f97a98;
      }

      .cls-59 {
        fill: #aa7959;
      }
    </style>
    <clipPath id="clip-path">
      <path class="cls-1" d="M38.18,287.63s9.73-1.4,13.11-1.08c0,0,3.29,6.24,7.83,4.53s5.16-4.61.86-10.35-9.21-14.4-18-13S38.18,287.63,38.18,287.63Z"/>
    </clipPath>
  </defs>
  <g class="cls-2">
    <g id="Layer_1" data-name="Layer 1">
      <g>
        <path class="cls-3" d="M100.35,515.33c13,0,25.57-.5,37.29-1.5l1.38,0a34,34,0,0,0,7.9-1c40.78-4.61,46-12.7,46-19.24,0-7.52-8.42-12.65-27.13-16.37a12.14,12.14,0,0,0,.2-2.67,10.07,10.07,0,0,0,.58-5.52c0-.26-.06-.62-.08-.93a8.84,8.84,0,0,0,1.23-5.89,9.36,9.36,0,0,0-3.5-5.81c0-.23,0-.49,0-.71a22.77,22.77,0,0,0-.87-5.49c-.57-1.81-1.76-10.73-2.73-17.9-.79-5.94-1.62-12.08-2.4-17-.4-2.46-.8-4.83-1.19-7.08-1.05-6.16-2.36-13.82-1.89-15.77,1.2-3.85,2.2-8.28-.71-12.61-.66-2.79-1-13.39-1.32-22.92a1.6,1.6,0,0,0,0-.31c0-.21,0-.48,0-.79,0,0-.11-3.47-.18-5.32.76-.21,1.5-.42,2.22-.64a6,6,0,0,0,4.23-6.29c-.18-2-4.6-49.72-9.15-70.4A91.9,91.9,0,0,0,143.06,252c-1.62-3.48-2.35-5.07-2.28-8.11A90,90,0,0,1,142,233.4c3.31,5,8,8.87,14.37,8.87a15.75,15.75,0,0,0,2.54-.22c16.92-2.85,32.4-32.89,37.06-43.94a6,6,0,0,0,1.54-4.08v-.33a33.66,33.66,0,0,0-2.43-11.78,24.38,24.38,0,0,0,6.26-6.47c8.63-2.37,15.37-5.26,15.24-12.44a7.31,7.31,0,0,0-3.43-6.22,17.4,17.4,0,0,0,2.06-3.9c1.22-3.48,1-6.38-.55-8.62a6.93,6.93,0,0,0-4.78-2.86,8.25,8.25,0,0,0-3.3-8,7.6,7.6,0,0,0-4.56-1.54,8,8,0,0,0-4.76,1.53,9.5,9.5,0,0,0-4-5,6.06,6.06,0,0,0-3.16-.89c-5.24,0-8.53,5.53-12.56,21.12l-.18.56a10.56,10.56,0,0,0-11.62-.95,7,7,0,0,0-3.81,4.68c-.46,1.92-.32,4.9,3,8.18,1.25,1.25,1.53,2,2.19,5.89,0,.2.06.39.1.57a6.17,6.17,0,0,0-2.26,1.73,6,6,0,0,0-1.29,3.18L162,176.27c-1-3.88-2.07-7.51-2.73-9.72-2.43-8-6.18-10-11.62-12-.47-.17-1-.36-1.49-.57-1.27-.49-4.4-1.79-12.11-5.12a13.28,13.28,0,0,0-.86-1.34c-1.78-2.33-4.76-3-6.34-3.17l-.54-.34c7.76-5.33,13.64-13.33,17.59-23.91a20.14,20.14,0,0,0,12.36-9.67c2.73-4.67,6.38-14.28,2.71-20.69a9.65,9.65,0,0,0-4.43-4,82.47,82.47,0,0,0,1.27-12.18c1.1-4.6,3.16-16.7-1.6-29.35a5.82,5.82,0,0,0-.23-2.86c-.4-1.2-10.17-29.57-38.61-33a81.74,81.74,0,0,0-9.6-.58c-15.4,0-27.08,4.54-33.4,12.88-5.63.6-14.55,4.41-21.56,20.56a1.11,1.11,0,0,1-.07.16,7.62,7.62,0,0,0-.49,4,67.05,67.05,0,0,0-2.46,8.05C45,64.93,45.39,73.66,46.81,80.75a9.65,9.65,0,0,0-2.39,2.38c-5,7.13-.29,20-.09,20.53,2.1,5.67,5.9,9.74,10.46,11.43a46.8,46.8,0,0,0,19.35,27.46,29.64,29.64,0,0,0-8,4.72c-1.33.48-2.57.88-3.67,1.18-1.69.46-3.41.82-5.11,1.17-7.09,1.49-15.92,3.34-20.1,13.59-4.07,9.94-14.93,48.55-15.57,65.22-.59,15.49,1.8,47.33,6.17,58.25l.09.21q.28.69.57,1.26l.06.11a5.94,5.94,0,0,0,1.13,1.53c-.44,5.35-1.55,19.62-1.55,28.82V319c0,10.52.28,28,.31,30v.23A6,6,0,0,0,33.54,355l.29,0s4.1.59,10.13,1.23c1.72,8.11,4,19.28,4.8,23.81l.14.76c.36,2.06.68,3.87.75,4.71,0,0,0,.08-.07.13-2.59,4.54-.52,8.36.47,10.19.13.23.25.45.36.67.14,1.85,0,7.18-.18,11.15-.26,7.32-.52,14.88.09,19,.86,5.76,3.53,28.71,4.22,36-3.19,3.14-1.77,7.76-.13,11l-.34.27c-.25.2-.5.41-.77.61-12.2,1.4-22.49,3.35-29.84,5.66C16.71,482.26,7.74,486,7.74,493.67c0,7.95,9.35,13.19,30.3,17C54.74,513.67,76.87,515.33,100.35,515.33Zm-5.28-50.24c-.07-3.19-.15-7.17.15-11.56.19-2.58.61-7.51,1.1-13.23,2.26-26.46,3.25-39.65,2.74-43.09-.27-1.8-.7-3.67-1.11-5.47-.28-1.25-.68-3-.82-4a9.06,9.06,0,0,0-1.62-10c.06-.47.15-1,.22-1.51a45.67,45.67,0,0,0,.64-7.2c0-.37,0-1.49.36-4.66a6,6,0,0,0,1.41-3.25c.3-2.7.67-5.93,1.11-9.63.7,3.06,1.41,6,2,8.4l.58,2.45a6,6,0,0,0,1.09,2.28c.94,3.21,1.79,5.89,2.43,7.94.33,1.05.66,2.11.88,2.84-.11.19-.29.45-.55.82-3.47,4.84-.93,9,.29,11l.39.63a87.5,87.5,0,0,1,1.24,8.84c.39,3.58.84,7.63,1.48,11.4,1.6,9.42,10.13,43.74,12,50.72.42,1.61,1.22,4.69,1.48,6.17a7.32,7.32,0,0,0,.12,7.58c-7.22-.34-14.68-.52-22.25-.52q-2.76,0-5.52,0A34,34,0,0,0,95.07,465.09Z"/>
        <g>
          <ellipse class="cls-4" cx="100.35" cy="493.67" rx="86.6" ry="15.66"/>
          <g>
            <g>
              <path class="cls-5" d="M112.61,139.05c-3.64,1.55-6.78,4.67-10.46,6.09-1.24.49-3.13-.41-4.52-.5a24.61,24.61,0,0,1-3.81-.82c-1.78-.42-4.42-2.6-6.14-3.08,0,2-2.79,5.93-3,7.88s-1.25.79-1.48,2.7l4.16,3.09a30.55,30.55,0,0,0,4.53,2.66c1.75.91,3.13,2.21,4.83,3.15,3,1.67,6.27-.93,8.86-2.3,1.61-.86,3.17-1.8,4.8-2.64,1-.53,2.81-3.64,3.46-4.54C113.71,146,112.78,143.78,112.61,139.05Z"/>
              <path class="cls-6" d="M110.49,147c-1.35.73-2.71,1.46-4.15,2.07-1.72.73-4,2.17-6,2a16.81,16.81,0,0,1-6.12-2.18,36.9,36.9,0,0,1-4.48-2.27h-4.4s-15,7.76-27.12,12.08L74.46,264.11,117.61,263l9.66-109.69A76,76,0,0,1,110.49,147Z"/>
              <path class="cls-7" d="M111.75,227.85c-.42-4.56-9.89-61.59-10.61-63.68a5.41,5.41,0,0,0-1.92-.66,6.31,6.31,0,0,0-3.06.41,78.44,78.44,0,0,0-1.83,8.66c-.62,3.38-1.09,6.8-1.53,10.21-.84,6.65-5.2,49.44-5.2,55.82,1.92,2.6,8.92,11.44,11.24,11.31,1.81-.1,10.34-10.11,14-13.56C112.62,233.52,112,230.64,111.75,227.85Z"/>
              <path class="cls-8" d="M89.52,156.86a27.83,27.83,0,0,0,3,5.15c1.48,2,2.9,3.28,3.53,3.28,2,0,5,0,5.28-.13,1.4-.47,2.47-2,3.42-3.43.28-.41.55-.8.8-1.13a11.23,11.23,0,0,0,.94-1.55,8.8,8.8,0,0,1,.52-.94,4.88,4.88,0,0,1-.46-2.37l0-.57a11.88,11.88,0,0,0-2.41-2.55c-1,.1-1.93.18-2.81.21a19.77,19.77,0,0,1-5.73-.63,19.59,19.59,0,0,0-3.65,3l-1.15,1.11a2.5,2.5,0,0,0-.23.23l-.07.07a.36.36,0,0,1-.11.21C90.17,157,89.84,157,89.52,156.86Z"/>
              <g>
                <path class="cls-9" d="M80.38,153.6c.54.46,1.11,1,1.68,1.47a15,15,0,0,1,1.41,1.2,53.74,53.74,0,0,1,4.76,5.2c.18.2.35.42.53.63l.08.1a14,14,0,0,1,1.61-3.66,17.47,17.47,0,0,1,2-2.5l.45-.5c2.68-3,4.94-4,6.28-4.35-.33-.11-.65-.23-1-.37-.62-.25-1.23-.51-1.84-.78l-2.11-.89A46.34,46.34,0,0,1,87,145.46l-.19-.17-.78-.71a24,24,0,0,0-2.8,3.75c-.19.31-.38.63-.58.94l-.25.39A23,23,0,0,0,80.38,153.6Zm20.91-2.23c3.73,1.82,6.54,7.64,7.67,10.33a33,33,0,0,0,4.33-3.49c1.22-1.15,2.4-2.38,3.38-3.42.19-.21.39-.42.61-.63a8.08,8.08,0,0,0,2-2.59c-.67-.68-1.18-1.22-1.65-1.73-.74-.82-1.46-1.68-2.16-2.52s-1.54-1.86-2.37-2.76c0,.35,0,.7.08,1l0,.2-.18.09c-.91.43-1.8,1-2.65,1.47s-1.71,1-2.62,1.46A54.46,54.46,0,0,1,101.29,151.37Z"/>
                <path class="cls-10" d="M80.38,153.6c.54.46,1.11,1,1.68,1.47a15,15,0,0,1,1.41,1.2,53.74,53.74,0,0,1,4.76,5.2c.18.2.35.42.53.63l.08.1a14,14,0,0,1,1.61-3.66,17.47,17.47,0,0,1,2-2.5l.45-.5c2.68-3,4.94-4,6.28-4.35-.33-.11-.65-.23-1-.37-.62-.25-1.23-.51-1.84-.78l-2.11-.89A46.34,46.34,0,0,1,87,145.46l-.19-.17-.78-.71a24,24,0,0,0-2.8,3.75c-.19.31-.38.63-.58.94l-.25.39A23,23,0,0,0,80.38,153.6Zm20.91-2.23c3.73,1.82,6.54,7.64,7.67,10.33a33,33,0,0,0,4.33-3.49c1.22-1.15,2.4-2.38,3.38-3.42.19-.21.39-.42.61-.63a8.08,8.08,0,0,0,2-2.59c-.67-.68-1.18-1.22-1.65-1.73-.74-.82-1.46-1.68-2.16-2.52s-1.54-1.86-2.37-2.76c0,.35,0,.7.08,1l0,.2-.18.09c-.91.43-1.8,1-2.65,1.47s-1.71,1-2.62,1.46A54.46,54.46,0,0,1,101.29,151.37Z"/>
              </g>
            </g>
            <path class="cls-11" d="M103.19,262.77a8.86,8.86,0,0,0-4.32-.34c-2,.14-3.91.21-5.87.5,0,0-.06.08,0,.09,3.32.44,6.75-.22,10.1,0C103.26,263.05,103.36,262.84,103.19,262.77Z"/>
            <path class="cls-11" d="M104.46,263.34a.82.82,0,0,0-.61-.35.14.14,0,0,0-.16.17.85.85,0,0,0,.41.49C104.3,263.78,104.62,263.53,104.46,263.34Z"/>
            <path class="cls-12" d="M91.93,291.39c.82,8.89,1.41,18.18,6.1,26.17.67-2.05-.13-4.41-.53-6.43-.47-2.38-.54-4.84-.8-7.24a148.07,148.07,0,0,1-1.18-16.43,112.76,112.76,0,0,1,2-19.75l-5.56.05C89.49,275.29,91.23,283.74,91.93,291.39Z"/>
            <g>
              <g>
                <path class="cls-13" d="M89.17,476.46c-.23-2.25-.32-6.41-1.83-8.27,0-.08-.54,1.84-.59,1.77a1.27,1.27,0,0,0-.32-.3l-.1-.12a.17.17,0,0,0-.21,0,2.11,2.11,0,0,0-.85,0c-1.62.17-3.16.37-4.8.43-3.42.1-6.83.46-10.25.54-1.55,0-4.24.55-5.62-.29a.07.07,0,0,1,0,0c0-.11-.13-.12-.22-.07s-.37.08-.31.23a.62.62,0,0,0,.17.28c-.52,3.12-3.82,5.89-6.36,8a51.48,51.48,0,0,1-10.4,6.5c-3.55,1.68-7.41,2.8-11.06,4.28a6.89,6.89,0,0,0-4.65,6c-.32,2.21-.41,4.9,2.26,6.1,3.54,1.59,7.64,1.51,11.52,1.34,4.16-.2,8.38-.36,12.52-.77a43.46,43.46,0,0,0,7.48-1.38,25.44,25.44,0,0,0,8.39-4.05,57.22,57.22,0,0,0,6.19-6.06c2-2.06,4.7-2.5,7.42-3.62a3.13,3.13,0,0,0,2.31-3.51C89.79,481.05,89.4,478.71,89.17,476.46Z"/>
                <path class="cls-14" d="M61.55,475.2c3.63.62,7,2.35,10.71,2.42,3.31.05,6.24-1.27,9.29-2.18,1.87-.56,4.53-1.35,6.4-.36a4.18,4.18,0,0,1,1.17.9c-.2-2.32-.37-6.06-1.78-7.79,0-.08-.54,1.84-.59,1.77a1.27,1.27,0,0,0-.32-.3l-.1-.12a.17.17,0,0,0-.21,0,2.11,2.11,0,0,0-.85,0c-1.62.17-3.16.37-4.8.43-3.42.1-6.83.46-10.25.54-1.55,0-4.24.55-5.62-.29a.07.07,0,0,1,0,0c0-.11-.13-.12-.22-.07s-.37.08-.31.23a.62.62,0,0,0,.17.28A9.49,9.49,0,0,1,61.55,475.2Z"/>
                <path class="cls-15" d="M87.05,484.54a27.38,27.38,0,0,1-4.59,1.91c-2.31.76-3.52,2.15-5.08,3.67a30.28,30.28,0,0,1-9,6.55,49.6,49.6,0,0,1-11,3.17,60,60,0,0,1-12.57.79c-3.63-.13-7.22-.33-10.59-1.59a5.11,5.11,0,0,1-2.65-2A4.17,4.17,0,0,0,34,501.36c3.54,1.59,7.64,1.51,11.52,1.34,4.16-.2,8.38-.36,12.52-.77a43.46,43.46,0,0,0,7.48-1.38,25.44,25.44,0,0,0,8.39-4.05,57.22,57.22,0,0,0,6.19-6.06c2-2.06,4.7-2.5,7.42-3.62a3.13,3.13,0,0,0,2.31-3.51c0-.25,0-.5,0-.75A14,14,0,0,1,87.05,484.54Z"/>
              </g>
              <g>
                <path class="cls-13" d="M159.32,472.82a5.86,5.86,0,0,1-1.36-3.06,12.19,12.19,0,0,1,.63-3.19c0-.05,0-.08-.05-.11a1,1,0,0,0,0-.18.46.46,0,0,0-.54-.38c-2.2.28-4.28.9-6.45,1.27l-6.76,1.15c-2.36.41-4.73.72-7.09,1.06s-4.48,1-6.84.89c-.3,0-.42.34-.11.41l.27.05c.33,1.65.74,3.29,1,4.95a17.34,17.34,0,0,1-.51,6.12c-1.14,4.93-3.14,9.67-3.87,14.68-.5,3.45-.65,7.92,3.51,9.86,4.91,2.28,12.08,1.78,17-.06a24.14,24.14,0,0,0,4.13-2c6.33-3.89,7.18-10.76,7.12-16.82a58.36,58.36,0,0,1,.46-11.05A4.4,4.4,0,0,0,159.32,472.82Z"/>
                <path class="cls-14" d="M130.76,470.68l.27.05c.33,1.65.74,3.29,1,4.95a13.85,13.85,0,0,1,.1,1.7,21.41,21.41,0,0,0,8.42,3.32c4.37.69,7.61-.95,11.32-2.61,1.76-.78,3.66-1.47,5.34-2.38a30.25,30.25,0,0,0,2.66-1.8,4.86,4.86,0,0,0-.52-1.09,5.86,5.86,0,0,1-1.36-3.06,12.19,12.19,0,0,1,.63-3.19c0-.05,0-.08-.05-.11a1,1,0,0,0,0-.18.46.46,0,0,0-.54-.38c-2.2.28-4.28.9-6.45,1.27l-6.76,1.15c-2.36.41-4.73.72-7.09,1.06s-4.48,1-6.84.89C130.57,470.26,130.45,470.61,130.76,470.68Z"/>
                <path class="cls-15" d="M159.32,472.82l-.71-1.1c-.25,1.91-.57,3.82-.69,5.75-.26,4.12-.31,8.25-.85,12.36-.77,5.89-2.15,12.73-9.37,15.44-5.4,2-13.69,3.18-18.85-1.65-1.23-1.16-1.4-2.75-1.46-4.74-.12,2.9.5,5.95,3.74,7.46,4.91,2.28,12.08,1.78,17-.06a24.14,24.14,0,0,0,4.13-2c6.33-3.89,7.18-10.76,7.12-16.82a58.36,58.36,0,0,1,.46-11.05A4.4,4.4,0,0,0,159.32,472.82Z"/>
              </g>
              <g>
                <path class="cls-16" d="M87,344.7a14.25,14.25,0,0,1,10.88-4.3c6.73.41,13.18,1.09,13.18,1.09v-50.7H83Z"/>
                <path class="cls-17" d="M86.79,345.44,82.71,290.5H111.4v51.32l-.34,0c-.07,0-6.52-.69-13.17-1.09a14,14,0,0,0-10.62,4.19Zm-3.42-54.37L87.29,344a14.5,14.5,0,0,1,10.64-3.9c5.79.36,11.43.92,12.85,1.07V291.07Z"/>
              </g>
              <path class="cls-18" d="M53.54,268.11l78.94-.73s13.56,58,14.29,79.54.9,34.06,2.43,36.05,1.4,4,.2,7.83,1,13.73,2.89,25.57,4.12,31.84,5.32,35.69-.17,6.85,2.38,8.71,2,3.5.94,5,.34,5.79-.43,6.36-12.88,6.49-17.74,6.92-8.7-2.78-10.16-3.21-1.1-3.21-3-4.57-2.73-2.28-1.71-3.71.94-2.43-1.1-10.28S116.47,415.9,115,407.05s-1.94-19.61-3.31-22-2.5-3.52-1.14-5.43,1.83-2.95,1.83-4.37-5.85-16.56-9.73-37.26c-2.36-12.56-6.23-17.3-6.23-17.3s-6,42-6,48.27-2.08,10.09,0,12,1.84,3.42.93,4.94,1.14,7.62,1.83,12.18-3.21,45.3-3.89,55,.46,17.51-.57,18.36-14.51,5.28-16.89,5.14-10-2.66-10.64-3.42-3.07-5.62-2.39-6.28a8.46,8.46,0,0,0,1.94-2.19c.22-.67-3.41-32.07-4.44-38.93s.93-28.73-.1-31.11-2.61-3.81-1.36-6,1.14-2.47-.12-9.61-5.91-29.31-6.6-32.07-7.13-33.43-5-78.88Z"/>
              <g>
                <path class="cls-19" d="M97.56,317.44a4.21,4.21,0,0,0,.36-.37c-.33-7.14-1.24-14.17-1.74-21.26-.54-7.88-.29-15.8-.51-23.69,0-.22-.16-.15-.17,0-.08,7.89-.1,15.85.32,23.73C96.2,303.11,97,310.24,97.56,317.44Z"/>
                <path class="cls-19" d="M97.33,317.44a2.34,2.34,0,0,0,.41-.29c-1.72-6.55-2.13-13.31-2.66-20.55a224.48,224.48,0,0,1-.53-24.2c0-.32-.23-.25-.26,0-1.18,8.46-.37,17.82.27,26.37C95,304.56,95.23,312.56,97.33,317.44Z"/>
              </g>
              <path class="cls-12" d="M107.64,360.89c2.47.17,36.93-3.7,39.47-4-.06-2.87-2.8-22.31-2.65-25.16.27-5.39-30.3,3.27-30.28-2.14a361.57,361.57,0,0,0-4.85-62l-25.79.26c.38,5.08.7,10.15,1,15.22.4,7.11.9,14.23,1.09,21.35a54.87,54.87,0,0,1-1.46,15c.38,6.43-38.57,3.93-38.45,10.4.1,5.37,5.84,24.51,6.09,29.92,2.18.26,38.19,1,40.38.63,1.61-14.42,4.76-39.68,4.76-39.68s3.49,4.74,5.62,17.3C103.6,344.12,106.48,356,107.64,360.89Z"/>
            </g>
            <g>
              <g>
                <rect class="cls-20" x="85.2" y="264.26" width="25.89" height="6.29"/>
                <path class="cls-21" d="M111.4,270.84H84.89V264H111.4Zm-25.89-.57h25.27v-5.72H85.51Z"/>
              </g>
              <path class="cls-22" d="M85.2,264.26v6.3h25.89v-6.3ZM105,266.88c-.1,1.09.48,1.7-.63,2.35-1.28.75-4.23.58-5.6.51-2.34-.12-8.53.81-8.3-2.66.08-1.14.59-2.09,2-2l.33,0c1.91-.07,3.79-.19,5.71-.15a27.45,27.45,0,0,1,4.67.18C104.38,265.29,105.1,265.65,105,266.88Z"/>
              <g>
                <path class="cls-23" d="M102.27,262.35H93.66c-3.25,0-3.53,2.25-3.53,5s.28,5,3.53,5h8.61c3.25,0,3.42-2.25,3.42-5S105.52,262.35,102.27,262.35Zm-1,8.43H94.69c-2.46,0-2.67-1.52-2.67-3.4s.21-3.41,2.67-3.41h6.53c2.46,0,2.59,1.52,2.59,3.41S103.68,270.78,101.22,270.78Z"/>
                <path class="cls-24" d="M101.22,271.07H94.69c-3,0-3-2.23-3-3.69s0-3.7,3-3.7h6.53c2.9,0,2.9,2.05,2.9,3.7S104.12,271.07,101.22,271.07Zm-6.53-6.82c-2,0-2.36,1-2.36,3.13s.35,3.12,2.36,3.12h6.53c2.13,0,2.28-1.18,2.28-3.12s-.15-3.13-2.28-3.13Z"/>
              </g>
              <g class="cls-25">
                <path class="cls-26" d="M92,267.38v-.09l-.11.33a5.93,5.93,0,0,0,0,2.66,2.3,2.3,0,0,0,1.63,1.08,18.12,18.12,0,0,0,3.12.3,17.63,17.63,0,0,0,4.76-.33A2.74,2.74,0,0,0,103.8,268c0,1.59-.4,2.79-2.58,2.79H94.69C92.23,270.78,92,269.26,92,267.38Z"/>
                <path class="cls-26" d="M103,264a2.64,2.64,0,0,0-1.56-.47,28.07,28.07,0,0,0-3.55-.1,25.53,25.53,0,0,0-3.53.22,3.66,3.66,0,0,0-1.52.86,2.74,2.74,0,0,1,1.85-.52h6.53c1.83,0,2.37.84,2.53,2A2.59,2.59,0,0,0,103,264Z"/>
              </g>
            </g>
            <path class="cls-27" d="M71.78,352h0a304.19,304.19,0,0,1-37.08-2.81l-.26,0v-.24c0-.19-.31-19.26-.31-30.27s1.68-30.09,1.7-30.28l0-.18,2.87-1-.2-1.34a4.3,4.3,0,0,1-1.92.45,5.77,5.77,0,0,1-2.63-.68l-.08-.05,0-.07c-4.14-8.26-6.78-41.25-6.19-56.81.6-15.74,11.28-53.77,15.12-63.17,3-7.31,8.93-8.55,15.81-10,1.77-.37,3.59-.75,5.43-1.25,8.72-2.39,19.86-8.43,20-8.49l.47-.25v.5c0,.52-2,.41-2.13.6-.42.86-1.48,7.21-.83,13,.41,3.68.84,8.47,1.2,12.7l2,10.1c1.33,15.81,6.5,55.42,6.89,78.1.41,23.9,0,88.67,0,89.32V350l-.22.06C86.7,351.32,80.1,352,71.78,352Z"/>
            <path class="cls-27" d="M38.75,319.17h0c-1.35,0-2.8-.06-4.33-.19l-.29,0v-.37c0-11,1.68-30.09,1.7-30.28l0-.18,2.23-.76c.52-.13,1-.25,1.54-.34a47.53,47.53,0,0,1,6.72-.6l1.18-.05a86.5,86.5,0,0,1,8.67,0h.28v.27c.13,3.41.25,7.09.22,10.82v1.1c0,4.25,0,9.07-1.89,13.12C52.53,316.65,47.13,319.17,38.75,319.17Z"/>
            <g>
              <path class="cls-28" d="M38.76,285.33l.23,1.51a23,23,0,0,1,2.54-.46c2.45-.25,4.92-.36,7.38-.44s4.83-.07,7.23.05c0-1-.08-2.09-.13-3.13h0A34.85,34.85,0,0,0,54,279.38a2.88,2.88,0,0,1-.56-1.37c0-.73.35-1.71-.1-2.36A21.6,21.6,0,0,0,49.58,272c-1.52-1.34-3.35-2.76-5.6-2.11-3.22.95-6.07,4-7.86,6.61-1.45,2.08-2.89,5.31-2.37,8a8.59,8.59,0,0,0,.38.85S36.6,286.77,38.76,285.33Z"/>
              <path class="cls-28" d="M38.73,287.19l-.21-1.38a4.3,4.3,0,0,1-1.92.45h0a5.77,5.77,0,0,1-2.63-.68l-.08-.05,0-.07c-.13-.27-.26-.56-.4-.88-.53-2.81.9-6.11,2.41-8.27s4.38-5.66,8-6.73a4.43,4.43,0,0,1,1.24-.18c1.86,0,3.38,1.21,4.67,2.35l.64.56a17.78,17.78,0,0,1,3.12,3.19,2.65,2.65,0,0,1,.21,1.94c0,.2,0,.4,0,.58a2.16,2.16,0,0,0,.42,1.08l.09.14c.24.42.51.83.77,1.22a14.42,14.42,0,0,1,1.31,2.29l0,.14.13,3.4-.34,0c-2.25-.11-4.65-.13-7.2,0-2.18.06-4.76.17-7.36.44a18.82,18.82,0,0,0-2.5.45Zm.26-2.36.25,1.66a19.53,19.53,0,0,1,2.25-.39c2.62-.27,5.21-.38,7.4-.45q3.68-.11,6.93,0l-.11-2.78a15.24,15.24,0,0,0-1.24-2.15c-.27-.41-.54-.82-.8-1.25l-.08-.13a2.75,2.75,0,0,1-.5-1.38c0-.2,0-.41.06-.63a2.37,2.37,0,0,0-.11-1.56,18.39,18.39,0,0,0-3-3.08l-.64-.56c-1.2-1.07-2.62-2.2-4.25-2.2a3.82,3.82,0,0,0-1,.16c-3.59,1-6.57,4.89-7.69,6.48-1.45,2.08-2.82,5.22-2.33,7.82l.32.71a5.27,5.27,0,0,0,2.23.55h0a3.46,3.46,0,0,0,2-.59Z"/>
            </g>
            <path class="cls-29" d="M70.54,168.11c.26.1.52.2.78.28,1.42.47,6.39,4.66,7,6.09a.57.57,0,0,1,0,.53,12.59,12.59,0,0,1-3.3,2.42c-1.4.85-3.3,2-3.37,2.54,0,0,0,.05,0,.07,4.25,4.35,12.89,25.9,14.71,31,.69,1.93,1.53,4.32,2.38,6.82-1.3-18.25-2.8-36.13-3.46-43.95l-.2-2.49c-.36-4.22-.83-8.39-1.24-12.06-.81-7.19-1.21-11-.71-12l.22-.35c.29-.43.84-1.26,1.14-1.8a5.15,5.15,0,0,0-1.68.64l-1.29.67c-1.81.94-4.84,2.51-5,3.37-.29.88-.61,1.72-.91,2.53-.37,1-.76,2-1.08,3-.52,1.6-1,3.22-1.48,4.8-.24.78-.49,1.58-.73,2.37-.46,1.5-.88,2.84-1.34,4.2C70.77,167.46,70.64,167.86,70.54,168.11Z"/>
            <path class="cls-26" d="M51.11,164.61c-.06-.12-.25,0-.2.07.85,2,1.74,4,2.55,6.06s1.44,4.13,2.3,6.15c0,.1.23.06.21-.06C55.29,172.62,53,168.46,51.11,164.61Z"/>
            <path class="cls-30" d="M64.15,255.36l-.3-.89C62.7,250.28,62,246,60.37,241.91c0-.11-.21,0-.18.06a69.59,69.59,0,0,1,1.9,7.25,72.26,72.26,0,0,0-4.91-11.52c0-.1-.22,0-.18.08,2.49,6.05,4.76,12.09,6.84,18.26a117.91,117.91,0,0,0,7.07,17.72c0,.07.15,0,.12-.06C68.35,267.72,66.22,261.55,64.15,255.36Z"/>
            <path class="cls-30" d="M57,179.69c0-.11-.18-.08-.18,0,.06,4.2-.26,8.34-.52,12.52-.28,4.41-.21,8.83-.41,13.24-.35,7.87-1.45,15.7-2,23.56-.21-.21-.43-.41-.65-.61-3.37-3.95-7.35-7.37-12.66-8.83-.11,0-.2.12-.09.16a21.41,21.41,0,0,1,7.1,3.91,39.15,39.15,0,0,1,3.11,2.92,26.87,26.87,0,0,0-6.37-2.78c-3.42-1-7-.51-9.55,2-.05,0,0,.14.09.09,3.14-2.47,6.74-2.62,10.5-1.33,2.94,1,5.22,2.81,7.77,4.36l.06.05s0,0,.06,0l.62.36c-.05.78-.1,1.56-.13,2.34-.4,8.8-.41,17.66-.46,26.46,0,6.67,2.38,14-.35,20.41-.13.3.32.48.47.19,1.44-2.77,1.45-6,1.33-9-.13-3.4-.68-6.77-.75-10.17-.09-4.43.11-8.88.21-13.31s0-9,.2-13.53c.32-8.94,1.62-17.81,2-26.74.17-4.41.13-8.83.33-13.24S57.74,184,57,179.69Z"/>
            <path class="cls-26" d="M52.38,293a56.31,56.31,0,0,1-2.64,7.83A32.52,32.52,0,0,1,45,308.22c-.15.17.09.34.25.19,4.4-3.78,6.41-10,7.36-15.36C52.59,292.93,52.41,292.92,52.38,293Z"/>
            <g>
              <path class="cls-31" d="M116,147.54s3.66,1.22,2.22,7.63-11.21,58.21-12,65.8-1.11,119.47,1.35,128.79c0,0,24.46.95,45.83-5.52,0,0-4.52-49.1-9-69.66s-9.76-21.66-9.55-30.8,5.44-33.53,5.44-33.53,4.11,28.17,17.67,25.88,29-30.83,33.29-42.24c0,0,.21-22.47-21.37-20.56l-9.25,20.94s-5.14-19.52-7.09-26-4.21-6.66-9.55-8.75S116,147.54,116,147.54Z"/>
              <path class="cls-32" d="M114.79,347.81c-4.77-2.75-5.59-8.69-6.33-13.42q-1.32-8.46-2.43-16.95c.27,16.56.75,29.42,1.51,32.32,0,0,5,.19,12.38-.19A16,16,0,0,1,114.79,347.81Z"/>
              <path class="cls-27" d="M123.5,287.7c0,.09,0,.17,0,.26,0,1.31.16,2.74.35,4.49.14,1.29.25,2.6.36,3.87.12,1.42.24,2.89.4,4.33.58,5.06,1.3,11.36,6.64,14.38a18.67,18.67,0,0,0,9.07,2.48,14.1,14.1,0,0,0,6-1.29,20.21,20.21,0,0,0,3.53-2.19c-1.35-11.48-2.65-21.13-3.87-28.68-1.63.24-3.32.32-4.95.4-1.16.05-2.25.1-3.29.2s-2.27.23-3.41.33c-2.91.26-5.92.53-8.8,1C124.87,287.43,124.19,287.57,123.5,287.7Z"/>
              <g class="cls-25">
                <path class="cls-33" d="M170.64,176.11a32.39,32.39,0,0,0,2.15,5.34,22,22,0,0,0,5.05,7.12c3.83,3.36,8.42,4.71,13.34,5.2,0-1.68-.67-22.17-21.23-20.45A20.68,20.68,0,0,0,170.64,176.11Z"/>
                <path class="cls-34" d="M191.49,194.09l-.34,0c-5.79-.57-10.08-2.25-13.53-5.27a22.8,22.8,0,0,1-5.11-7.21,34,34,0,0,1-2.17-5.38l-.05-.19a22.18,22.18,0,0,1-.65-2.64l0-.3.32,0c8.87-.75,15.45,2.64,18.94,9.73a27.38,27.38,0,0,1,2.63,11ZM170.3,173.57c.15.81.39,1.62.58,2.28l.06.19a31.94,31.94,0,0,0,2.13,5.29,22.24,22.24,0,0,0,5,7c3.27,2.88,7.35,4.5,12.81,5.09A27,27,0,0,0,188.3,183C184.92,176.15,178.87,173,170.3,173.57Z"/>
              </g>
              <path class="cls-35" d="M187.86,189.14c-1.82-3.33-4.06-6.74-7.26-9.1-2.9-2.13-6.34-3-9.86-3.63a32.86,32.86,0,0,0,2,5A19.88,19.88,0,0,0,190,193.64C189.38,192.11,188.66,190.6,187.86,189.14Z"/>
              <g>
                <path class="cls-36" d="M186.36,181.67a12.09,12.09,0,0,0-2-4.34A16.93,16.93,0,0,0,174,173.28c-.69,1.18-1.55,2.33-2.25,3.44l-.62,1a35.49,35.49,0,0,0,1.62,3.76,22,22,0,0,0,5.05,7.12,19.1,19.1,0,0,0,5,3.15c.56-1,1.12-2.08,1.66-3.14.7-1.38,1.46-2.72,2.25-4A16.21,16.21,0,0,0,186.36,181.67Z"/>
                <path class="cls-37" d="M183,192.1l-.28-.12a20,20,0,0,1-5-3.2,22.8,22.8,0,0,1-5.11-7.21,37.8,37.8,0,0,1-1.64-3.79l0-.12.69-1.09c.28-.45.59-.91.91-1.37.46-.67.93-1.36,1.33-2.06l.1-.16h.2a17.29,17.29,0,0,1,10.54,4.14l.05.05a12.41,12.41,0,0,1,2,4.43,15.93,15.93,0,0,1,.37,2.92v.08l0,.07c-.87,1.45-1.6,2.76-2.24,4s-1.17,2.23-1.67,3.15ZM171.5,177.72a38.09,38.09,0,0,0,1.57,3.61,22.24,22.24,0,0,0,5,7,18.69,18.69,0,0,0,4.61,3c.48-.86,1-1.86,1.53-2.88.64-1.26,1.36-2.56,2.22-4a15.73,15.73,0,0,0-.35-2.74,11.93,11.93,0,0,0-1.9-4.21,16.77,16.77,0,0,0-9.95-4c-.39.66-.83,1.31-1.26,1.94-.31.45-.62.9-.9,1.35Z"/>
              </g>
              <path class="cls-38" d="M186.72,184.54a16.21,16.21,0,0,0-.36-2.87,12.09,12.09,0,0,0-2-4.34A16.93,16.93,0,0,0,174,173.28c-.44.74-.93,1.46-1.42,2.17a4.55,4.55,0,0,0,.64,3,15.82,15.82,0,0,0,4.67,4.19c1.83,1.23,3.83,3,6.25,2.93"/>
              <path class="cls-39" d="M106,225.3l0-1.35c0-1.47.11-2.47.17-3,.79-7.2,9-59.32,10.46-66,1.36-6-.7-7.11-.72-7.13l-.48-.23.45-.26a2,2,0,0,1,.95-.19,4.26,4.26,0,0,1,1.12.16c4.22,1.05,6.45,1.95,6.92,3.93.82,2.56,1.61,5.18,2.36,7.72.45,1.52,1,3,1.51,4.52a55.83,55.83,0,0,1,2.24,7.39l.06.28-.3.06a19.18,19.18,0,0,0-5.26,2.13,27.33,27.33,0,0,1-3.92,1.79s0,0-.06.05c.43.46.83.88,1.24,1.29a32,32,0,0,1,5.23,6.31l.13.24-.24.14c-2.32,1.35-3.58,4.2-4.6,6.49l-.16.36c-.56,1.25-1.1,2.49-1.64,3.74-1.14,2.62-2.32,5.33-3.61,8-4,8.27-7.72,15.58-11.27,22.37Z"/>
              <path class="cls-30" d="M145.82,167.39a86.6,86.6,0,0,0-5.74,8.79c-1.74,2.87-4.13,5.51-5,8.74,0,.1.12.14.16.05a17,17,0,0,1,.85-1.64,157.56,157.56,0,0,1,2.44,18.35c.38,6.24.4,12.47.62,18.71,0,.09.14.07.14,0,.22-6.24.1-12.51-.27-18.75s-1-12.59-2.8-18.52h0c1.23-2.13,2.78-4.1,4-6.24,1.81-3.19,3.87-6.23,5.68-9.4C146,167.39,145.86,167.34,145.82,167.39Z"/>
              <path class="cls-26" d="M161.41,192.94s0,0,0,0a32.6,32.6,0,0,0-3.06,6.53c-1.65,2.34-3.49,4.34-4.65,7a17.54,17.54,0,0,0-1.46,8c0,.21.29.14.31,0a24.3,24.3,0,0,1,1.76-8.27c.93-2.15,2.55-3.88,3.77-5.85-.18.58-.36,1.18-.51,1.77-.8,3.11-1.27,6.63-.41,9.76,0,.18.34.09.32-.08a28.31,28.31,0,0,1,.54-9.62A47.82,47.82,0,0,1,161.41,192.94Z"/>
            </g>
            <g class="cls-40">
              <g>
                <path class="cls-41" d="M37.58,275.21c.22,1.09,2.3,16.61,2.65,22.5s2.66,10.22,6.54,10.76,2.12-22.73,3.72-23.45,4,6.15,7.74,4.83-4.56-10.58-5.66-12.58-3.72-2.88-3.83-4.87-2.89-3.09-5.32-2.36S37.37,274.1,37.58,275.21Z"/>
                <path class="cls-5" d="M46.91,308.76a.53.53,0,0,1-.18,0c-3.88-.53-6.42-4.65-6.8-11-.35-5.85-2.45-21.41-2.65-22.47-.25-1.3,3.54-4.73,6-5.49a5.73,5.73,0,0,1,1.65-.24c2.22,0,4,1.23,4.07,2.85.06,1,.87,1.74,1.82,2.56a8.18,8.18,0,0,1,2,2.2c.24.43.87,1.27,1.59,2.24,2.26,3,5.68,7.6,5,9.72a1.61,1.61,0,0,1-1.07,1,3.24,3.24,0,0,1-1,.19c-2,0-3.47-1.85-4.69-3.33-.7-.86-1.42-1.73-1.86-1.73l-.11,0c-.45.38-.58,4.46-.69,8.07C49.66,302.37,49.28,308.76,46.91,308.76Z"/>
              </g>
              <path class="cls-42" d="M53.06,286.71c-1.06-2.18-2.86-4.7-5.8-3.77a.07.07,0,0,0,0,.13,3.9,3.9,0,0,1,4,1.77,6,6,0,0,0-3.61-.52c-.07,0-.09.12,0,.12a6.54,6.54,0,0,1,4.31,1.5.16.16,0,0,0,.16,0c.23.3.46.59.72.88C52.91,286.94,53.13,286.85,53.06,286.71Z"/>
            </g>
            <g>
              <g>
                <g>
                  <path class="cls-43" d="M75.71,245.54a4.67,4.67,0,0,1-3.41-1.3c-1.62-2-3.86-7.63-4-7.86l1.35-.46c0,.06,2.26,5.7,3.74,7.52,1.26,1.53,7.48,1.13,14.37-3l.77,1.12C83.63,244.52,78.88,245.74,75.71,245.54Z"/>
                  <path class="cls-44" d="M86.32,239.54a5.61,5.61,0,0,0,1.59,3.94s1.28,1.22,5.86-2.58a4.94,4.94,0,0,0-1.32-3.29S87.36,237.7,86.32,239.54Z"/>
                </g>
                <g>
                  <path class="cls-45" d="M74.51,245.39a4.62,4.62,0,0,0,3.2-1.7c1.33-2.14,2.78-8,2.85-8.26l-1.39-.3c0,.06-1.47,5.93-2.7,7.9-1,1.66-7.25,2-14.65-1.27L61.2,243C66.51,245.3,71.39,246,74.51,245.39Z"/>
                  <path class="cls-44" d="M63.16,240.67a5.54,5.54,0,0,1-1,4.1S61,246.13,56,242.9a4.83,4.83,0,0,1,.85-3.42S61.87,239,63.16,240.67Z"/>
                </g>
                <path class="cls-44" d="M74.09,151a35.46,35.46,0,0,0,4-3.47c-4.46,1.55-8.37,3.81-11.24,7.75-5.86,8-3.84,19.86-2.5,27.7.21,1.23.41,2.37.56,3.4.55,3.76,1,6.1,1.26,7.54l-.41.17c-3.42,1.56-5.58,6.34-5.76,12.77-.24,8.33,7.81,27.86,8.16,28.69l2.67-.95c-.09-.2-8.19-19.86-8-27.67.15-5.27,1.29-8.78,3.67-9.86,1.45-.66,4.24-.28,6.44,1.2,6.91,4.66,8,27.84,5.52,36.16l2.75.72c2.46-8.16,1.74-33.67-7-39.59a10.76,10.76,0,0,0-5.18-2c-.28-1.33-.7-3.63-1.27-7.51-.15-1-.35-2.22-.57-3.47-1.34-7.87-3.18-18.64,2-25.8a14.14,14.14,0,0,1,2.2-2.42"/>
                <path class="cls-44" d="M67.61,186s1.19,7.2,1.32,7.85.33.91,1.31,1.24c0,0,.46,0,.25.59A8,8,0,0,0,70,198c0,.58.13.81-.33.77s-2.24-.72-3.5.25c-.44.33-.54.26-.85-.36a20.27,20.27,0,0,1-1.07-2.54c-.08-.36.54-.44.86-.62s.63-.24.44-1.43-1.22-7.11-1.3-7.73.62-.74,1.39-1S67.53,185.37,67.61,186Z"/>
                <path class="cls-46" d="M66.67,194.83a.07.07,0,0,0,0-.09c0-.17.68-.22.72,0s0,.11,0,.17S66.56,195,66.67,194.83Z"/>
              </g>
              <g>
                <g>
                  <path class="cls-44" d="M129,226.61c-1.71,5-7.48,7.79-12.89,6.21s-8.42-6.92-6.71-11.94,7.48-7.79,12.89-6.21S130.75,221.59,129,226.61Z"/>
                  <path class="cls-47" d="M127.87,218.6a10.37,10.37,0,0,1,.57,4.28c-.2,3.39-1.62,6.11-5.07,7.58-3.74,1.59-8.48.5-11.6-1.74a7.32,7.32,0,0,1-2.68-3.58,9.74,9.74,0,0,0,7.06,7.68c5.41,1.58,11.18-1.2,12.89-6.21A8.89,8.89,0,0,0,127.87,218.6Z"/>
                  <path class="cls-46" d="M122,224.34a3.12,3.12,0,0,1-3.85,1.85,2.79,2.79,0,0,1-2-3.55,3.12,3.12,0,0,1,3.84-1.85A2.8,2.8,0,0,1,122,224.34Z"/>
                </g>
                <path class="cls-44" d="M128.36,151.12c-.41-.55-2.61-1.15-3.21-.77s-.31.48,1.06,2.16c5.53,6.8-3.16,50.64-6.82,66.29a1,1,0,0,0,0,.52.4.4,0,0,1,.22-.12,2.77,2.77,0,0,1,2.1.59,1.28,1.28,0,0,0,.24-.48c0-.14,3.35-14.41,5.81-29.59C129,182,132.86,157.12,128.36,151.12Z"/>
              </g>
            </g>
            <g>
              <g>
                <path class="cls-5" d="M186.46,179.32c7.6-1.77,10.93-9,10.93-9,12.36-3.2,13.21-5.29,13.17-7.17s-2.21-1.46-2.21-1.46l-10.54,2.67s10-8.6,11.71-13.42-1.43-4.45-5.44-.71-7.85,7.07-7.85,7.07-1.27,0-.35-1.8,7.53-13.61,7.53-13.61,1.5-2.19-.45-3.65-4.8,1.49-13.16,14.41c0,0-.57-1.6,1.81-10.35,0,0,1.7-6.77-1.51-8.75,0,0-2.47,0-6.79,16.77,0,0-2.48,8-4.92,9.61,0,0-.36.72-2-2.5s-4.55-5.75-8-3.75c0,0-1.86.61.75,3.22s3.15,4.92,3.86,9.13.72,4.21,2.94,8.32l-2.67,4.08s6.46,7.07,10.92,7.12l1.87-5.53"/>
                <g>
                  <path class="cls-41" d="M184.61,149.82s14.57,4.89,13.5,15.82"/>
                  <path class="cls-48" d="M184.61,149.82a22.21,22.21,0,0,1,5.23,2.08,20.36,20.36,0,0,1,4.59,3.36,14.51,14.51,0,0,1,3.21,4.75,11,11,0,0,1,.47,5.63,14.2,14.2,0,0,0-1.19-5.32,16.83,16.83,0,0,0-3.19-4.35,26.29,26.29,0,0,0-4.29-3.4A45.67,45.67,0,0,0,184.61,149.82Z"/>
                </g>
              </g>
              <path class="cls-5" d="M177.69,159.53s5.55,3,6.34,8.52"/>
            </g>
            <g>
              <path class="cls-5" d="M151,107.36c-3.91,6.66-11,8.94-16.29,5.84s-2.91-6.8,1-13.46,4-5.85,9.73-8C158.05,87,154.94,100.69,151,107.36Z"/>
              <path class="cls-49" d="M147.26,94.88a2.94,2.94,0,0,1,2.57.46c.92.8.93,2.21.73,3.4a19.89,19.89,0,0,1-6.21,10.92,5,5,0,0,1-1.7,1.16,1.89,1.89,0,0,1-1.94-.35,2.14,2.14,0,0,1-.25-2.2c.67-1.85,2.51-3,4-4.21a3.89,3.89,0,0,0,1.06-1.19,1.47,1.47,0,0,0-.06-1.53,1.92,1.92,0,0,0-1.08-.61,10.53,10.53,0,0,0-2.56-.24c-.25-1.3.9-2.41,1.7-3.24A7.71,7.71,0,0,1,147.26,94.88Z"/>
            </g>
            <g>
              <path class="cls-5" d="M50,101.57c2.6,7,8.36,10.06,13.18,7.53s3.17-6.44.57-13.48-2.76-6.24-7.39-9C46.18,80.55,47.36,94.54,50,101.57Z"/>
              <path class="cls-49" d="M54.47,89.57a2.2,2.2,0,0,0-2.23.19c-.85.7-1,2.09-1,3.3a21.38,21.38,0,0,0,4.1,11.51,4.41,4.41,0,0,0,1.32,1.33,1.41,1.41,0,0,0,1.68-.14,2.48,2.48,0,0,0,.45-2.16c-.38-1.91-1.82-3.21-3-4.61a3.56,3.56,0,0,1-.77-1.3,1.7,1.7,0,0,1,.21-1.51,1.58,1.58,0,0,1,1-.5,7.65,7.65,0,0,1,2.19,0c.35-1.26-.51-2.49-1.1-3.4A6.73,6.73,0,0,0,54.47,89.57Z"/>
            </g>
            <path class="cls-5" d="M146.47,79c2.38-25.63-10.27-43.49-39.41-45.5C78.78,31.5,61.32,45,59,70.65c-1.1,11.84.15,32.54.19,33.18,1.93,37.24,39.22,42.55,40.89,42.24,5.87-1.06,32,.16,40.79-36.61C141,108.83,145.37,90.8,146.47,79Z"/>
            <path class="cls-13" d="M89.48,76.07c-3.2-1-14.66-1.68-17.88,5.09,0,0,9.31-3,17.09-1.41C88.69,79.75,91.1,76.6,89.48,76.07Z"/>
            <path class="cls-13" d="M113.91,76.32c3.28-.73,14.75-.28,17.31,6.78,0,0-9-3.85-16.88-3C114.34,80.06,112.24,76.7,113.91,76.32Z"/>
            <path class="cls-49" d="M73.6,58.41s1.63,3.94,19.87,6.6a51.79,51.79,0,0,0,25.6-2.76l6.47-2.43s8.29-8.89,11.93,17.79l5.23,23,.69-47.82L76.8,42.22l-11,10.07-8,12.79s.28,20.74.79,29.75L63.5,75S71,74.38,73.6,58.41Z"/>
            <path class="cls-13" d="M136.66,59l0,3.25,6,38.34A135.62,135.62,0,0,0,148,87.43s2.77-12.19,1.32-21.05a34.2,34.2,0,0,0,.23,7s7.08-22.83-8.88-39.68a16.62,16.62,0,0,0,7.53,9.47s-8.64-25.93-33.63-28.91c-13.07-1.55-32.18-.33-39.07,12.39,0,0-10.71-2.82-19.27,16.91,0,0-2.31,5.77,10.41-9.85,0,0-8.48,2-13.11,21.11-4.37,18.09-.44,28.69,4.6,42,0,0,.16-15,4.92-25.88l.2,2.43s4.45,0,9.3-18.6c0,0-1.9,2.94,11.24,6.63a83.25,83.25,0,0,0,45.84-.35Z"/>
            <g>
              <g>
                <ellipse class="cls-50" cx="118.84" cy="96.44" rx="8.86" ry="8.5" transform="translate(15.77 209.57) rotate(-86.73)"/>
                <path class="cls-51" d="M127.36,96.93a9.18,9.18,0,0,1-2.73,6.14,8.62,8.62,0,0,1-12.66-.41,9.48,9.48,0,0,1,.76-13.18,8.72,8.72,0,0,1,6.63-2.24,8.6,8.6,0,0,1,6,3.27A9.23,9.23,0,0,1,127.36,96.93Zm-.08,0a9,9,0,0,0-2.07-6.29,8.2,8.2,0,0,0-12-.68,9.08,9.08,0,0,0-.7,12.29,8.2,8.2,0,0,0,12,.7A9,9,0,0,0,127.28,96.92Z"/>
              </g>
              <ellipse class="cls-52" cx="118.86" cy="96.06" rx="5.51" ry="5.29" transform="translate(16.16 209.24) rotate(-86.73)"/>
              <ellipse class="cls-53" cx="120.94" cy="93.48" rx="1.6" ry="1.53" transform="translate(20.7 208.88) rotate(-86.73)"/>
            </g>
            <g>
              <g>
                <ellipse class="cls-50" cx="83.78" cy="94.32" rx="8.85" ry="8.5" transform="translate(-15.17 172.57) rotate(-86.73)"/>
                <path class="cls-51" d="M92.3,94.81a9.13,9.13,0,0,1-2.73,6.13,8.58,8.58,0,0,1-6.32,2.57,8.69,8.69,0,0,1-6.33-3,9.44,9.44,0,0,1,.75-13.16,8.61,8.61,0,0,1,12.62,1A9.1,9.1,0,0,1,92.3,94.81Zm-.07,0a9,9,0,0,0-2.08-6.29,8.2,8.2,0,0,0-12-.67,9.06,9.06,0,0,0-.7,12.27,8.19,8.19,0,0,0,12,.7A9,9,0,0,0,92.23,94.8Z"/>
              </g>
              <ellipse class="cls-52" cx="83.8" cy="93.94" rx="5.5" ry="5.29" transform="translate(-14.78 172.24) rotate(-86.73)"/>
              <ellipse class="cls-53" cx="86.14" cy="91.9" rx="1.6" ry="1.53" transform="translate(-10.52 172.65) rotate(-86.73)"/>
            </g>
            <g>
              <path class="cls-54" d="M84.84,118.73s6.68,14.47,15.79,15.07c10.29.67,15.31-14.56,15.31-14.56S100.8,124.11,84.84,118.73Z"/>
              <path class="cls-55" d="M86.49,119.77s6.87,10.77,16,10.21c7.53-.47,11.59-10.56,11.59-10.56S102.44,125.15,86.49,119.77Z"/>
              <path class="cls-56" d="M89,119.92s3.27,7.16,14.68,5.82c0,0,6.23-.35,8.16-5C111.82,120.75,99.23,124.52,89,119.92Z"/>
              <path class="cls-57" d="M82.53,117.93a1.29,1.29,0,0,0,.44.3c7.08,3.39,24.33,8.38,34.1-1.18,0,0-4.51,4-14.15,4.53S82.53,117.93,82.53,117.93Z"/>
              <path class="cls-58" d="M95.57,128.34a6.68,6.68,0,0,1,5.35-.82s2.51-1.58,6.6.56A10.25,10.25,0,0,1,95.57,128.34Z"/>
            </g>
            <path class="cls-13" d="M100.63,111.67s9.25,8.79-2.88,8.48c-5-.12-14.25-1.21-14.25-1.21l.91,2.73-1.79-2.53a2.72,2.72,0,0,1,2.21-4.29h0c11.26-3.34,13.23-4.4,15.8-3.18Z"/>
            <path class="cls-13" d="M100.9,111.51s-7.85,8.64,2.76,8.49c4.82-.07,13.66-1.21,13.66-1.21l-.87,2.73,1.8-2.65a2.67,2.67,0,0,0-2.2-4.17h0c-5.71-1.52-9.66-2.88-15.15-3.19Z"/>
            <g>
              <path class="cls-41" d="M94.17,107.75a13.63,13.63,0,0,0,5.36,3.61c3.16,1,8.07-2.84,8.07-2.84"/>
              <path class="cls-59" d="M94.17,107.75a20.69,20.69,0,0,0,3.15,2.12,13.51,13.51,0,0,0,1.68.79,4.3,4.3,0,0,0,1.67.38,9.55,9.55,0,0,0,3.5-.85c1.15-.49,2.3-1,3.43-1.67a13,13,0,0,1-3.09,2.37,8.11,8.11,0,0,1-3.85,1.15,5.33,5.33,0,0,1-2-.51,9.78,9.78,0,0,1-1.72-1A10.65,10.65,0,0,1,94.17,107.75Z"/>
            </g>
            <path class="cls-39" d="M53.65,262.86l1.06,13.5C38.52,279,34,285.58,34,285.58s-2.29-4.45-3.35-16.36"/>
          </g>
        </g>
      </g>
    </g>
  </g>
</svg>
