<svg id="Layer_1" data-name="Layer 1" xmlns="http://www.w3.org/2000/svg" width="185.39" height="182.47" viewBox="0 0 185.39 182.47">
  <defs>
    <style>
      .cls-1 {
        fill: #ff0;
      }

      .cls-2 {
        fill: #f12701;
      }

      .cls-3 {
        fill: #ffaa96;
      }

      .cls-4 {
        opacity: 0.6;
      }

      .cls-5 {
        fill: #b80901;
      }

      .cls-6 {
        fill: #d41600;
      }

      .cls-7 {
        fill: #ff4516;
      }

      .cls-8 {
        opacity: 0.7;
      }

      .cls-9 {
        opacity: 0.4;
      }

      .cls-10 {
        fill: #e51800;
      }

      .cls-11 {
        fill: #ff612c;
      }

      .cls-12 {
        fill: #ff472b;
      }

      .cls-13 {
        fill: #ffb3a1;
      }

      .cls-14 {
        fill: #de1900;
      }

      .cls-15 {
        fill: #ff6e6a;
      }
    </style>
  </defs>
  <g>
    <path class="cls-1" d="M181.16,114.53l-.18-1.91c-.16-1.47-.36-2.9-.6-4.4l-.07-.41c-.09-.53-.18-1-.28-1.55v0c-.2-1-.41-2-.63-2.91l-.09-.35c-.16-.68-.33-1.34-.51-2l0-.06c-.19-.68-.39-1.33-.58-1.93l-.11-.32c-.19-.58-.39-1.15-.59-1.7l-.05-.14c-.22-.59-.44-1.17-.68-1.75l-.09-.2c-.21-.51-.43-1-.62-1.41l-.09-.22c-.25-.52-.49-1-.74-1.52l-.07-.12c-.23-.47-.47-.91-.72-1.36a.6.6,0,0,1-.06-.11c-.49-.88-1-1.76-1.56-2.56a.75.75,0,0,0-.07-.12c-.49-.75-1-1.49-1.56-2.22l0,0c-.29-.38-.57-.76-.85-1.11l-.05-.06c-.53-.67-1-1.28-1.53-1.87a49.45,49.45,0,0,0-.84-6.66v0c-.08-.37-.16-.72-.24-1l0-.17c-.08-.31-.16-.61-.24-.89,0,0,0-.05,0-.08-.1-.32-.19-.62-.27-.85l-.06-.19c-.1-.29-.2-.56-.3-.82v0a14.65,14.65,0,0,0-2-3.68,56.56,56.56,0,0,0-5.12-11l11.38-21a6,6,0,0,0,.51-4.46s-.06-.19-.07-.24-.16-.49-.17-.51a20.74,20.74,0,0,0-3.09-5.79A16.62,16.62,0,0,0,154.64,18a20.06,20.06,0,0,0-3.07.25l-.54.09-.72.14-.76.17-.53.14c-.45.12-.9.25-1.36.41a5.14,5.14,0,0,0-.84.35,2.93,2.93,0,0,1-.38.16l-.09-.1-.15-.19-.23-.33-.14-.21-.28-.45-.45-.77a16.51,16.51,0,0,0-5.73-6.48,13.53,13.53,0,0,0-7-2,13.74,13.74,0,0,0-6.26,1.53c-.27.14-.55.3-.82.47a17.77,17.77,0,0,0-2.81,2.28l0,0c-.29-.4-.6-.88-.93-1.39l-.27-.43c-.43-.66-.89-1.37-1.45-2.09-.08-.09-.15-.18-.23-.26a15.38,15.38,0,0,0-11.48-5.53h-.26A13.22,13.22,0,0,0,99,7.48l0,0q-.6.54-1.2,1.11A14.32,14.32,0,0,1,96,10.07a5.16,5.16,0,0,1-.58.35l-.32.16-.09,0-.28.12-.18,0-.18,0-.29-.12-.07,0-.33-.16a11.6,11.6,0,0,1-2.3-1.79c-.39-.37-.78-.73-1.18-1.08,0,0,0,0,0,0a13.23,13.23,0,0,0-8.88-3.69H81a15.44,15.44,0,0,0-11.46,5.5l-.27.32c-.65.84-1.21,1.71-1.7,2.47-.33.52-.64,1-.93,1.41l0,0A15.73,15.73,0,0,0,63,10.71a13.55,13.55,0,0,0-13.22.44A16.55,16.55,0,0,0,44,17.63l-.33.57-.29.48-.23.36-.23.32-.18.24a.6.6,0,0,0-.08.08,2.93,2.93,0,0,1-.38-.16,5.14,5.14,0,0,0-.84-.35c-.46-.16-.92-.29-1.34-.41l-.59-.14-.74-.18L38,18.3l-.47-.08A20.63,20.63,0,0,0,34.48,18,16.61,16.61,0,0,0,21,24.67l-.06.08a20.69,20.69,0,0,0-3.08,5.81l-.13.4c0,.11-.07.26-.08.28a6.07,6.07,0,0,0,.5,4.46L29.26,56.17l-.44.71c-.77,1.25-1.49,2.53-2.15,3.8l0,0c-.41.8-.78,1.55-1.14,2.31s-.59,1.3-.85,1.92l0,.11c-.25.59-.46,1.13-.64,1.6l-.23.62-.32.28c-.35.29-.7.6-1.06.93l-.49.44L20.76,70l-.45.44c-.46.47-.92.95-1.42,1.5l-.14.14c-.54.6-1.08,1.23-1.61,1.87l-.24.31c-.44.54-.87,1.1-1.3,1.67l-.38.54c-.39.54-.76,1.09-1.12,1.65,0,0-.28.42-.42.65s-.41.65-.44.71c-.21.34-.4.69-.59,1l-.24.42-.49,1c-.23.45-.45.89-.65,1.35-.11.22-.2.45-.3.68l-.08.2c-.18.42-.35.83-.51,1.27-.1.26-.2.53-.29.8l-.05.14c-.15.43-.29.87-.42,1.3l-.27,1c-.12.47-.23.94-.33,1.42l0,.11c-.06.28-.11.56-.17.84-.09.54-.17,1.09-.23,1.63l0,.15c0,.23-.06.46-.08.68l0,.34-.21.35c-.07.11-.16.26-.21.36s-.16.3-.26.5l-.26.54c-.1.22-.19.46-.29.71l-.13.32q-.21.59-.39,1.2c0,.11-.21.73-.25.88s-.18.79-.18.79l5.85,1.34L6.26,99.54s-.06.27-.08.33L6,100.8c0,.28-.09.56-.14.92l0,.4c0,.3-.08.6-.12,1l0,.3,0,.4c0,.33,0,.66-.07,1l0,.45s0,.69,0,1v2.08c0,.33,0,.67,0,1l0,.66c0,.66.06,1.33.11,2,0,0,.05.61.05.64a2,2,0,0,1-.1.21l-.23.56a6.05,6.05,0,0,0-.24.64c0,.09-.07.19-.09.25s0,.13-.07.2c-.12.39-.24.8-.34,1.21a1,1,0,0,0,0,.12c-.1.42-.19.86-.27,1.29a.69.69,0,0,0,0,.13c-.09.47-.16,1-.22,1.46v.06c-.05.46-.1.94-.14,1.43-.08,1-.12,2.1-.11,3.2v.06c0,.53,0,1.08,0,1.62v.1c0,.54,0,1.08.1,1.6v.1c0,.55.1,1.11.17,1.68l0,.18c.07.52.14,1,.21,1.54,0,0,0,.13,0,.16.08.55.18,1.1.28,1.65l.06.29c.1.51.21,1,.32,1.53,0,0,0,.13,0,.15.13.55.27,1.09.41,1.63l.1.35c.14.51.29,1,.44,1.47a1.27,1.27,0,0,0,.06.18c.17.53.36,1.06.55,1.6l.14.36c.19.51.39,1,.58,1.45l.07.15c.21.51.45,1,.69,1.51,0,.14,0,.29,0,.5,0,0,0,.58,0,.63s0,.33,0,.58v.1c0,.17,0,.34,0,.48v.21s.06.83.08,1l.07.61.08.56.12.7.09.45c0,.24.1.49.16.74l.09.38q.09.41.21.81l.08.31c.08.28.16.55.25.83,0,0,.2.66.26.84l.19.54c.1.28.2.57.33.92l.07.18c.11.29.43,1.08.43,1.08.12.29.24.59.4.94l.06.15.51,1.12.41.86.52,1s.43.83.58,1.1l.58,1.06.59,1,.64,1.05.64,1,.62.94.65,1,.68.95.7.92.68.88.7.84.7.81.72.8.7.73.43.42.31.31.75.68a6,6,0,0,0,1.62,1c.53.22,1.08.43,1.6.61l.47.16c.46.15.93.3,1.45.45l.24.07c.55.15,1.11.28,1.69.41l.42.09,1.4.26.41.07,1.7.24.38,0c.49.06,1,.1,1.5.14l.45,0c.59,0,1.19.08,1.78.1h.17c.55,0,1.11,0,1.7,0h.61l1.57,0h.15c.61,0,1.23,0,1.83-.07l.51,0,1.53-.1.39,0c.62-.05,1.24-.1,1.89-.17l.4,0,1.57-.18.43,0,1.93-.26.22,0,1.68-.26.48-.08,1.81-.31h.07l1.89-.36,2.4-.48,1.92-.42,2.28-.53,1.82-.45,2.27-.58,1.7-.46.13,0,1.67-.47,2-.57,1.83-.55,1.74-.53,1.81-.57,1.56-.51,1.81-.6,1.7-.58c3.9-1.35,7-2.53,8.94-3.29,19.13,6.7,34.39,11,45.32,12.86l.11,0c.61.1,1.2.2,1.71.27l.14,0,1.47.21.18,0,1.37.16h.12l1.27.12h.05l1.24.08,1,0h1.93l.69,0h.07c.53,0,.94-.09,1.32-.15l.45-.07.14,0,.47-.11.22-.06s.37-.11.43-.14l.37-.14a19.31,19.31,0,0,0,6.58-5.37l.18-.21c5.19-6.16,10.82-16.86,11.95-24.26.16-.18.31-.35.45-.53l.1-.12a30.43,30.43,0,0,0,4.92-9l.09-.27c.18-.5.35-1,.5-1.52a53.67,53.67,0,0,0,1.72-20.2C181.26,115.79,181.22,115.15,181.16,114.53Z"/>
    <g>
      <path class="cls-2" d="M175.32,116.9C174,96.3,166.55,89,162.83,84.5c-.36-11.9-3.49-13.65-3.49-13.65S149,30,94.56,30s-65.69,40.9-65.69,40.9C23.47,75,14.37,84.5,14.37,96c-2.6,2.27-3.47,9.86-2.52,18-3.09,3.45-3,18.11,2.52,27.67-1.93,7.53,6.64,22.11,12.79,27.5,20.8,8.76,67.4-10.78,67.4-10.78,48.84,17.29,57.85,14,57.85,14,5.9-2.59,15.49-20.07,15.33-27C172.29,141.23,176.66,132.12,175.32,116.9Z"/>
      <g>
        <path class="cls-3" d="M98.13,153.06c15.37,8.7,44.56,14.38,57.77,16.61a30.37,30.37,0,0,0,2-2.4c-12.15-2-43-7.81-58.49-16.55Z"/>
        <path class="cls-3" d="M120.75,139.88l-.93,2.52c15.71,5.8,35.91,9,46.21,10.36.34-.9.64-1.77.89-2.6C156.93,148.86,136.51,145.69,120.75,139.88Z"/>
      </g>
      <g class="cls-4">
        <path class="cls-5" d="M105.84,104.08l-1,0c-.64,0-1.59,0-2.79,0s-2.65,0-4.31-.08-3.54-.09-5.58-.28-4.27-.46-6.62-.75l-3.61-.47c-1.23-.2-2.47-.46-3.74-.7s-2.55-.51-3.85-.79-2.62-.51-3.92-.91c-2.62-.74-5.29-1.47-7.92-2.32l-3.9-1.45-1.93-.73-1-.38c-.32-.13-.63-.28-.94-.43q-1.87-.86-3.69-1.74l-1.8-.87-1.72-1c-1.13-.67-2.25-1.31-3.32-2s-2.06-1.45-3-2.15l-1.44-1L38.46,84.9c-.84-.77-1.69-1.46-2.43-2.21s-1.4-1.53-2.06-2.23c-.33-.35-.6-.74-.88-1.1s-.53-.73-.79-1.07a14.57,14.57,0,0,1-1.3-2c-.19-.32-.37-.62-.53-.91s-.29-.61-.42-.88a14.9,14.9,0,0,1-1-2.65,7.12,7.12,0,0,1-.19-1,2.18,2.18,0,0,0,.11.23l.36.63A20.89,20.89,0,0,0,31,73.91c.19.22.36.47.58.71l.71.72a17.49,17.49,0,0,0,1.62,1.58c.62.52,1.21,1.13,1.93,1.67l2.26,1.72c.79.58,1.69,1.11,2.57,1.7l1.35.88,1.47.81c1,.54,2,1.14,3,1.69s2.17,1,3.29,1.57l1.67.82,1.77.72c1.18.48,2.37,1,3.57,1.49.3.12.6.26.9.37l.93.32,1.87.66,3.74,1.35c1.25.46,2.55.8,3.81,1.2s2.53.8,3.78,1.19c2.51.81,5.05,1.38,7.46,2.09l3.57,1,3.44.84c2.24.55,4.36,1.11,6.32,1.64,1,.29,1.94.47,2.84.69L98,102c1.62.39,3,.77,4.18,1.08s2.06.57,2.68.75Z"/>
      </g>
      <g class="cls-4">
        <path class="cls-6" d="M110.23,89.13C94.12,90,73.11,87.51,62.56,73.81c-4.62-6-6.43-13.44-6.1-20.92a90.36,90.36,0,0,1,2-15.19C34.71,49.55,28.87,70.85,28.87,70.85a42.54,42.54,0,0,0-11.19,13C33.24,95.24,61.49,113.14,64.13,114c3.65,1.2,65.14-18.73,79.23-29.51A236,236,0,0,1,110.23,89.13Z"/>
      </g>
      <path class="cls-7" d="M14.37,96c-2.12,1.85-3.09,7.23-2.86,13.58,24.27,1.24,69.59,2.25,94.33-5.48-70.78-8.13-77-33.23-77-33.23L18.39,82.54A26.44,26.44,0,0,0,14.37,96Z"/>
      <g class="cls-8">
        <path class="cls-3" d="M94.46,106.26l4.24-1.34C65.1,102.51,43.27,93,34.27,86.64A35.09,35.09,0,0,1,24.09,76.18l-1.91,2.13C27.15,86.21,43.48,102.6,94.46,106.26Z"/>
      </g>
      <g class="cls-9">
        <path class="cls-6" d="M28.87,104.91l35.71,4.75L39.43,101.9C14.27,94.14,26.3,73.72,26.3,73.71l-7.91,8.83a26.44,26.44,0,0,0-4,13.44c-1.06.92-1.82,2.71-2.3,5.06Z"/>
      </g>
      <g class="cls-4">
        <path class="cls-5" d="M100.48,103l-1,.25c-.63.15-1.55.4-2.72.67s-2.59.61-4.23,1c-.81.17-1.68.38-2.6.56l-2.93.47c-2.05.32-4.28.64-6.64,1s-4.85.43-7.44.63c-.64,0-1.29.12-1.95.14l-2,0-4,.09-2,0c-.68,0-1.37,0-2.06-.07l-4.15-.16c-.69,0-1.38,0-2.07-.11l-2.07-.19-4.1-.41c-1.36-.14-2.69-.38-4-.58s-2.63-.37-3.9-.66c-2.55-.54-5-1-7.31-1.7-1.14-.33-2.27-.59-3.34-1l-3.08-1c-1-.32-1.91-.71-2.79-1.06s-1.71-.68-2.48-1-1.5-.65-2.15-1L17.62,98c-.54-.27-1-.56-1.41-.8s-.75-.44-1-.62c-.55-.34-.82-.55-.82-.55s.32.13.92.34,1.51.51,2.64.89l1.89.57,2.25.61c.79.24,1.65.44,2.56.65s1.84.47,2.84.66l3.1.65c1.07.24,2.2.4,3.34.61,2.28.46,4.72.74,7.22,1.13s5.12.6,7.76.88l4,.31,2,.17c.68.06,1.35.06,2,.1l4.05.19,2,.1,2,0,4,.06,2,0c.65,0,1.29,0,1.93,0,2.54,0,5-.08,7.34-.08s4.53-.2,6.57-.27l2.94-.08c.94,0,1.83-.11,2.66-.15,1.67-.12,3.13-.18,4.33-.23s2.15-.08,2.8-.11Z"/>
      </g>
      <g>
        <path class="cls-10" d="M11.85,114c-1.19,1.34-1.91,4.36-2,8.11,23.47-1.21,77.1-5.43,90.65-19.12-57.32,9.29-86.11-7-86.11-7l-1.73,2.93C11.44,102.42,11.16,108.06,11.85,114Z"/>
        <g class="cls-8">
          <path class="cls-3" d="M12.16,100.65a24.88,24.88,0,0,0-.45,2.74c8.71,2.89,26,7.2,52.1,7.2,6,0,12.36-.22,19.22-.74l6.12-3.15C52.51,109.46,22.43,104.06,12.16,100.65Z"/>
        </g>
        <g class="cls-4">
          <path class="cls-6" d="M47.06,113.25c-25.15,1.34-24.71-13.92-24.71-13.92a52.64,52.64,0,0,1-8-3.35l-1.73,2.93c-1.2,3.51-1.48,9.15-.79,15.1a6.22,6.22,0,0,0-1.13,2.16C24.3,116.54,44.69,116.51,47.06,113.25Z"/>
        </g>
      </g>
      <g class="cls-4">
        <path class="cls-5" d="M159.34,70.85l-1.16,1.36c-.76.87-1.84,2.19-3.36,3.75-.74.8-1.57,1.68-2.52,2.59s-2,1.91-3.11,2.91a77.61,77.61,0,0,1-8.08,6.34A96.55,96.55,0,0,1,130.6,94c-3.86,1.91-8,3.74-12.36,5.46s-8.88,3.37-13.5,4.93c-2.31.79-4.63,1.59-7,2.34l-1.75.58-.44.14-.11,0-.23.07-.23.06-.89.24-3.57,1-3.58,1c-1.19.32-2.37.65-3.59.92l-7.24,1.67c-2.4.55-4.8,1-7.16,1.42-1.18.22-2.35.46-3.52.65l-3.49.53c-2.32.34-4.58.73-6.83.93l-3.31.37c-1.1.12-2.18.24-3.25.3-2.14.13-4.22.33-6.23.4s-4,.11-5.84.13-3.67,0-5.37-.09-3.32-.17-4.84-.3-2.93-.25-4.23-.45-2.5-.33-3.58-.55-2-.37-2.85-.59-1.52-.37-2.08-.53c-1.12-.32-1.7-.55-1.7-.55s.61.12,1.76.24,2.84.26,5,.36,4.76.07,7.75,0c1.49-.05,3.08-.16,4.75-.24l5.25-.41c1.83-.17,3.73-.41,5.69-.63s4-.55,6.07-.83,4.21-.69,6.39-1,4.39-.79,6.64-1.24l3.4-.66c1.15-.22,2.29-.5,3.44-.75l3.48-.78c1.16-.26,2.34-.49,3.5-.79l7-1.75c1.18-.27,2.37-.6,3.56-.93l3.57-1,3.58-1,.89-.24.23-.06-.07,0,.06,0,.11,0,.44-.14,1.75-.56,7-2.21,6.84-2.22c2.26-.73,4.46-1.5,6.64-2.23,4.33-1.51,8.47-3,12.33-4.66s7.39-3.34,10.58-5.1c.79-.45,1.55-.92,2.31-1.36l1.11-.66,1.06-.68L146,81.17l1.88-1.32c.61-.43,1.21-.83,1.76-1.26s1.1-.82,1.61-1.22c1.05-.76,2-1.51,2.81-2.19,1.68-1.34,3-2.44,3.88-3.19Z"/>
      </g>
      <path class="cls-2" d="M94.56,104.91c-57.84,16.6-82.71,9.1-82.71,9.1l-1.63,4.19c-1.09,6,0,16.21,4.15,23.48-.93,3.64.59,8.92,3.1,14H45.94l121.8-62.43s0-1-.05-2.54a64,64,0,0,0-4.86-6.23c-.36-11.9-3.49-13.65-3.49-13.65C142.06,88.42,129.49,93.71,94.56,104.91Z"/>
      <g class="cls-4">
        <path class="cls-6" d="M10.22,118.2c-1.09,6,0,16.21,4.15,23.48-.66,2.58-.08,6,1.21,9.6l73-30.52C12.89,143.09,10.22,118.2,10.22,118.2Z"/>
        <path class="cls-6" d="M149,93.27c-10.32,7.87,7,.63,7,.63l8.51-7.32c-.63-.77-1.23-1.45-1.74-2.08-.36-11.9-3.49-13.65-3.49-13.65-1.39,1.41-2.74,2.73-4.08,4h0S159.36,85.41,149,93.27Z"/>
      </g>
      <g class="cls-4">
        <path class="cls-6" d="M143.36,141.29c5.56,3.77,7.92,7,7,17.11s-11.15,13-11.15,13c10.47,1.95,13.18,1,13.18,1,5.9-2.59,15.49-20.07,15.33-27a16.33,16.33,0,0,0,1.68-1.8A96.39,96.39,0,0,0,143.36,141.29Z"/>
      </g>
      <g>
        <g>
          <path class="cls-10" d="M175.32,116.9c-.16-2.52-.42-4.84-.74-7-19.4,2.55-53.74,25.64-35.07,30.41,24.16,6.18,28.23,5.11,28.23,5.11C172.29,141.23,176.66,132.12,175.32,116.9Z"/>
          <g class="cls-8">
            <path class="cls-3" d="M173.85,134.9a67.26,67.26,0,0,1-26.75-5.06L146,132.32a69.21,69.21,0,0,0,26.86,5.3C173.24,136.77,173.56,135.86,173.85,134.9Z"/>
          </g>
          <g class="cls-4">
            <path class="cls-6" d="M175.32,116.9c-.16-2.52-.42-4.84-.74-7-1.19.16-2.42.39-3.7.69.05.62.1,1.24.14,1.89,1.34,15.21-3,24.32-7.58,28.53,0,0-4.07,1.06-28.23-5.12-.39-.1-.74-.2-1.08-.32,0,2.11,1.65,3.79,5.38,4.74,24.16,6.18,28.23,5.11,28.23,5.11C172.29,141.23,176.66,132.12,175.32,116.9Z"/>
          </g>
        </g>
        <g class="cls-4">
          <path class="cls-6" d="M167.74,145.43c4.55-4.2,8.92-13.31,7.58-28.53-.16-2.52-.42-4.84-.74-7l-.9.13-15.76,20.21s6.25-1.84,9.43,5a9.42,9.42,0,0,1-1.3,10.23A6.75,6.75,0,0,0,167.74,145.43Z"/>
        </g>
      </g>
      <g class="cls-4">
        <path class="cls-5" d="M162.83,84.5l-.29.37-.88,1A49,49,0,0,1,158,89.5c-.8.76-1.76,1.53-2.79,2.38L153.6,93.2c-.57.45-1.18.87-1.8,1.33-1.26.9-2.56,1.92-4,2.88s-3,1.93-4.57,3c-.79.53-1.63,1-2.48,1.51l-2.6,1.53-2.7,1.57c-.92.53-1.88,1-2.84,1.51l-6,3.08c-2,1-4.18,2-6.33,3-4.28,2-8.83,3.85-13.44,5.71l-3.48,1.4-3.54,1.27-7.13,2.54c-1.19.41-2.37.85-3.57,1.23l-3.61,1.13L78.4,128l-3.55,1.08c-1.17.37-2.36.65-3.53,1l-7,1.84-6.74,1.73c-1.1.29-2.19.54-3.28.78l-3.21.7c-4.23.93-8.23,1.76-11.93,2.51s-7.12,1.29-10.14,1.82-5.67.91-7.84,1.25-3.9.56-5.06.73l-1.79.25,1.72-.55c1.13-.34,2.78-.87,4.9-1.48s4.66-1.39,7.61-2.21l4.69-1.32,2.54-.7,2.64-.79c3.6-1.09,7.5-2.25,11.64-3.44,2.06-.61,4.21-1.14,6.35-1.84l6.6-2c4.48-1.39,9.14-2.7,13.79-4.29l7.06-2.29,3.56-1.14c1.18-.39,2.35-.83,3.53-1.24l7-2.46,3.52-1.21,3.45-1.31,6.82-2.57,1.69-.63c.55-.21,1.1-.45,1.65-.68l3.26-1.33c2.16-.89,4.3-1.74,6.37-2.61l6-2.67c1-.44,2-.84,2.89-1.3l2.76-1.33L139.15,99c.87-.42,1.75-.81,2.56-1.27,1.65-.87,3.22-1.72,4.74-2.5s2.88-1.63,4.21-2.37c.66-.39,1.31-.74,1.91-1.12l1.73-1.09c1.12-.69,2.16-1.32,3-2s1.72-1.16,2.39-1.68,1.26-.94,1.72-1.31l1-.86Z"/>
      </g>
      <g class="cls-4">
        <path class="cls-5" d="M94.56,158.4l.93-.46c.61-.29,1.49-.75,2.63-1.28,2.26-1.1,5.5-2.64,9.39-4.44l13.26-6.1,7.45-3.44c2.52-1.18,5.1-2.37,7.65-3.6s5.1-2.45,7.6-3.68,4.94-2.46,7.29-3.68,4.6-2.43,6.73-3.6,4.12-2.3,5.94-3.39c.93-.52,1.78-1.07,2.61-1.58.41-.25.81-.5,1.21-.73l1.11-.73,2-1.33,1.71-1.16c1-.7,1.81-1.31,2.37-1.7l.84-.6-.63.83-.77,1a15.63,15.63,0,0,1-1.1,1.29l-1.41,1.56c-.51.57-1.12,1.13-1.75,1.76s-1.32,1.26-2.06,1.92-1.52,1.36-2.37,2a105,105,0,0,1-12.12,8.59c-1.15.72-2.33,1.43-3.55,2.12l-1.82,1-1.87,1c-2.5,1.36-5.09,2.64-7.69,3.9-1.3.61-2.62,1.2-3.92,1.8s-2.63,1.15-3.93,1.71-2.61,1.09-3.9,1.59-2.57,1-3.84,1.47c-2.52.95-5,1.8-7.34,2.57s-4.59,1.45-6.66,2-4,1.1-5.69,1.51-3.21.75-4.44,1-2.21.43-2.88.56Z"/>
      </g>
      <g>
        <path class="cls-7" d="M162.83,84.5s-27.08,31.69-148.46,57.18c-1.93,7.53,6.64,22.11,12.79,27.5,14.94,6.29,43.18-2,57.92-7.2l9.48-3.58s57.87-18.31,80.76-41.5C174,96.3,166.55,89,162.83,84.5Z"/>
        <g>
          <path class="cls-3" d="M167.4,90.28c-.63-.92-1.25-1.75-1.84-2.5-4.2,10.59-23.66,21-71.32,38.67C55.44,140.86,27,146.13,14.58,147.91a25.85,25.85,0,0,0,.74,2.61c12.75-1.86,41.25-7.21,79.86-21.55C141.89,111.62,161.78,101.23,167.4,90.28Z"/>
          <path class="cls-3" d="M100.91,150.53c19.88-6.73,59.06-23.77,73.79-39.77q-.25-1.77-.57-3.39c-12.65,15.78-54.47,34-74.12,40.62C58.18,163.3,32.84,164.38,22.47,163.9c.75,1,1.51,2,2.26,2.82.6,0,1.22,0,1.88,0C39.08,166.74,63.3,164.3,100.91,150.53Z"/>
        </g>
      </g>
      <g class="cls-4">
        <path class="cls-6" d="M27.16,169.18c14.94,6.29,43.18-2,57.92-7.2l9.48-3.58s8.67-2.75,20.62-7.45c-7.33,2.81-45.14,13-68.12,10.82C23.7,159.52,22.8,139.86,22.8,139.86l-8.54,2.35C12.84,149.88,21.15,163.91,27.16,169.18Z"/>
        <path class="cls-6" d="M147,136.49h0a144.42,144.42,0,0,0,22.45-14.35c2.08-1.8,4-3.6,5.81-5.35-1-15.11-5.28-23-9-28C166.36,88.82,175.59,118.39,147,136.49Z"/>
      </g>
      <path class="cls-11" d="M16.07,142.76l1.73-.47L22.69,141l17.45-4.68,11.65-3.15c2.07-.53,4.18-1.15,6.34-1.75s4.37-1.21,6.62-1.83c4.5-1.22,9.09-2.68,13.8-4,2.35-.67,4.68-1.45,7-2.17l3.54-1.11,1.77-.56.89-.27.22-.07.07,0,.11,0,.44-.15,3.53-1.23,1.76-.62c.58-.21,1.14-.44,1.72-.66,2.27-.9,4.55-1.72,6.78-2.7s4.47-1.87,6.65-2.86l3.26-1.44,3.18-1.49,3.12-1.48,3-1.48,3-1.45,2.89-1.46,2.82-1.42,2.72-1.41q2.7-1.36,5.17-2.67T147,96.28c1.5-.79,2.93-1.55,4.26-2.28l6.9-3.76,6-3.33L162.74,88c-1,.68-2.33,1.7-4.13,2.94s-4,2.75-6.54,4.41-5.43,3.54-8.63,5.48q-2.4,1.48-5,3c-1.73,1-3.55,2.07-5.43,3.12l-2.84,1.61-3,1.6c-1,.54-2,1.08-3,1.62l-3.11,1.58L117.9,115l-3.25,1.56c-1.09.52-2.18,1.07-3.3,1.56L108,119.57c-2.25,1-4.61,1.92-7,2.86-.58.22-1.17.47-1.76.69l-1.76.62L94,125l-.44.15-.27.09-.22.07-.9.27-1.8.55-3.58,1.08c-2.4.71-4.76,1.47-7.14,2.13s-4.73,1.28-7.06,1.89-4.63,1.25-6.92,1.78c-4.55,1.1-9,2.15-13.15,3.06s-8.16,1.77-11.83,2.48c-7.35,1.46-13.5,2.52-17.81,3.22S16.07,142.76,16.07,142.76Z"/>
      <path class="cls-11" d="M12.07,118.2s.6.08,1.74.18,2.8.22,4.92.29l1.67,0h1.84c1.27,0,2.65,0,4.12,0s3-.1,4.69-.18,3.38-.21,5.19-.33c3.61-.29,7.51-.73,11.61-1.28,2.06-.24,4.15-.65,6.3-1s4.33-.77,6.54-1.2c1.11-.22,2.23-.41,3.35-.66l3.38-.78,3.42-.79c1.14-.27,2.28-.58,3.43-.87l3.46-.9,1.73-.45,1.73-.51,6.91-2.06,13.81-4.37c4.53-1.47,9-2.89,13.28-4.38,2.15-.73,4.22-1.54,6.28-2.25s4-1.5,5.92-2.32a100.94,100.94,0,0,0,10.49-5,96.44,96.44,0,0,0,8.36-5.19c1.22-.84,2.34-1.64,3.38-2.38s2-1.43,2.86-2.06l4-2.89,1.43-1-1.28,1.19c-.84.77-2.06,1.92-3.65,3.34s-3.5,3.16-5.82,5c-.56.48-1.16,1-1.79,1.44s-1.27,1-1.94,1.51c-1.36,1-2.8,2-4.37,3l-1.17.76-1.24.73c-.83.47-1.66,1-2.54,1.47l-2.69,1.41c-.92.47-1.86.9-2.82,1.36-1.89.94-3.9,1.75-5.92,2.66-1,.43-2,.84-3.1,1.25s-2.1.85-3.18,1.24c-4.29,1.62-8.72,3.25-13.28,4.77s-9.18,3-13.81,4.49l-7.06,2-1.76.51-1.77.44-3.52.87c-1.17.29-2.33.6-3.5.85l-3.5.7-3.46.69c-1.14.22-2.29.38-3.42.58-2.27.35-4.49.77-6.7,1s-4.34.55-6.44.68c-4.19.4-8.17.57-11.85.61s-7-.06-10-.26c-1.49-.1-2.88-.18-4.16-.35l-1.84-.2-1.68-.23c-1-.13-2-.29-2.81-.45s-1.51-.29-2.07-.4C12.65,118.37,12.07,118.2,12.07,118.2Z"/>
      <path class="cls-11" d="M20.54,81.94l.26.26c.15.18.42.41.7.72.62.6,1.48,1.43,2.52,2.39.25.24.54.48.82.73s.55.52.87.77c.6.52,1.23,1.07,1.91,1.61S29,89.5,29.68,90.07s1.46,1.07,2.18,1.63,1.51,1,2.24,1.56,1.5,1,2.22,1.47,1.45.9,2.13,1.35,1.34.81,1.94,1.2,1.15.77,1.67,1,.94.6,1.3.83.64.45.84.58l.29.22h-.36c-.23,0-.58,0-1,0s-1-.06-1.58-.12a15.93,15.93,0,0,1-2-.36c-.73-.17-1.53-.33-2.35-.6s-1.66-.6-2.54-.95-1.72-.83-2.6-1.3S30.34,95.53,29.5,95s-1.62-1.22-2.34-1.91A22.4,22.4,0,0,1,25.11,91a23,23,0,0,1-1.68-2.16,23.41,23.41,0,0,1-1.27-2.09,18.42,18.42,0,0,1-.85-1.89,14,14,0,0,1-.5-1.52A8.47,8.47,0,0,1,20.54,81.94Z"/>
      <path class="cls-11" d="M162.84,156.6l-.32.12c-.21.06-.52.17-.91.26a22.42,22.42,0,0,1-3.28.61,31.43,31.43,0,0,1-4.67.15c-.85,0-1.73-.1-2.62-.21s-1.79-.28-2.69-.43-1.79-.41-2.66-.66l-1.28-.43a12,12,0,0,1-1.23-.46c-.8-.35-1.57-.67-2.27-1.06s-1.36-.77-1.94-1.16-1.07-.81-1.51-1.17a10.57,10.57,0,0,1-1.06-1c-.29-.29-.49-.55-.63-.71l-.21-.26.33.07c.22.05.54.1.92.21s.83.24,1.37.34l1.75.42c.64.14,1.33.27,2,.45s1.5.3,2.27.49l4.92,1c3.36.69,6.75,1.42,9.33,2.12,1.29.34,2.38.67,3.14.92.38.12.68.24.89.31Z"/>
      <g>
        <g>
          <path class="cls-12" d="M149.55,24.86c-2.25,1.15-4.75,1.26-6.76-.39-2.76-2.26-3.37-6.3-6.5-8.18a7.57,7.57,0,0,0-7.39-.24c-2.23,1.14-3.54,3.95-6.29,4-4.06.07-5.45-4.06-7.53-6.73A9.47,9.47,0,0,0,108,9.82c-2.6-.05-4.33,1.47-6.1,3.16-2.16,2-4.25,3.53-7.3,3.92-3-.39-5.15-1.87-7.3-3.92-1.77-1.69-3.5-3.21-6.1-3.16A9.46,9.46,0,0,0,74,13.32C72,16,70.57,20.12,66.51,20.05c-2.75-.05-4.06-2.86-6.29-4a7.57,7.57,0,0,0-7.39.24c-3.13,1.88-3.74,5.92-6.5,8.18-2,1.65-4.51,1.54-6.76.39-12.83-4.26-16.1,8-16.1,8L55.66,92.38l13.86,12.56,25,0,25,0,13.85-12.56,32.2-59.54S162.38,20.6,149.55,24.86Z"/>
          <path class="cls-13" d="M145.1,70.2a3.56,3.56,0,0,1-1-.59,11.7,11.7,0,0,1-2.42-3.29,12.8,12.8,0,0,0-4.32-5.06A9.58,9.58,0,0,0,128,61a12.07,12.07,0,0,0-2.75,2.12c-1.08,1-1.78,1.64-2.66,1.66-1.86,0-2.9-1.41-4.41-3.77a25.49,25.49,0,0,0-1.49-2.18A11.5,11.5,0,0,0,108,54.5h-.18c-3.46,0-5.71,2.14-7.36,3.71-1.88,1.79-3.54,3-5.91,3.35-2.37-.37-4-1.56-5.91-3.34-1.65-1.58-3.9-3.72-7.36-3.72h-.18a11.54,11.54,0,0,0-8.67,4.28c-.54.7-1,1.45-1.48,2.18-1.51,2.36-2.52,3.79-4.41,3.77-.88,0-1.59-.65-2.66-1.66A12.07,12.07,0,0,0,61.14,61a9.58,9.58,0,0,0-9.35.31,12.8,12.8,0,0,0-4.32,5.06,11.7,11.7,0,0,1-2.42,3.29,3.56,3.56,0,0,1-1,.59l.68,1.9,1,1.79a7.82,7.82,0,0,0,1.94-1.15A15.18,15.18,0,0,0,51,68.34a9.24,9.24,0,0,1,2.9-3.61,5.56,5.56,0,0,1,5.43-.18A8.9,8.9,0,0,1,61.11,66c1.28,1.21,2.87,2.72,5.36,2.77h.15c4.15,0,6.23-3.25,7.74-5.63.44-.69.85-1.33,1.27-1.88a7.51,7.51,0,0,1,5.57-2.72c1.74,0,3,1,4.67,2.6A14.45,14.45,0,0,0,94.3,65.6l.26,0,.25,0a14.45,14.45,0,0,0,8.44-4.46c1.68-1.59,2.9-2.64,4.67-2.6a7.48,7.48,0,0,1,5.56,2.72c.43.55.84,1.19,1.27,1.87,1.54,2.41,3.65,5.74,7.9,5.64,2.48,0,4.08-1.56,5.36-2.77a8.9,8.9,0,0,1,1.81-1.45,5.56,5.56,0,0,1,5.43.18,9.24,9.24,0,0,1,2.9,3.61,15.18,15.18,0,0,0,3.36,4.4,7.64,7.64,0,0,0,1.94,1.15l1-1.79Z"/>
          <path class="cls-13" d="M148.91,40.41l-.28.12a4,4,0,0,1-4.56-.16,11.7,11.7,0,0,1-2.42-3.29A12.87,12.87,0,0,0,137.33,32a9.61,9.61,0,0,0-9.35-.31,12.36,12.36,0,0,0-2.75,2.12c-1.08,1-1.78,1.65-2.66,1.66-1.86,0-2.9-1.41-4.41-3.76a24,24,0,0,0-1.49-2.18A11.48,11.48,0,0,0,108,25.26h-.18c-3.46,0-5.71,2.15-7.36,3.72-1.88,1.78-3.54,3-5.91,3.34-2.37-.37-4-1.56-5.91-3.34-1.65-1.57-3.9-3.72-7.36-3.72h-.18a11.52,11.52,0,0,0-8.67,4.29A26.12,26.12,0,0,0,71,31.73c-1.51,2.35-2.52,3.79-4.41,3.76-.88,0-1.59-.64-2.66-1.66a12.36,12.36,0,0,0-2.75-2.12,9.61,9.61,0,0,0-9.35.31,12.87,12.87,0,0,0-4.32,5.06,11.7,11.7,0,0,1-2.42,3.29,4,4,0,0,1-4.56.16l-.28-.12c-4.7-1.56-8.81-1.31-12.24.74l1,1.78L30,44.66c2.35-1.44,5.32-1.59,8.82-.46a9.16,9.16,0,0,0,4.07,1,7.37,7.37,0,0,0,4.74-1.71A15.18,15.18,0,0,0,51,39.1a9.31,9.31,0,0,1,2.9-3.61,5.58,5.58,0,0,1,5.43-.18,9.34,9.34,0,0,1,1.81,1.46C62.39,38,64,39.49,66.47,39.53h.15c4.15,0,6.23-3.25,7.74-5.63.44-.68.85-1.33,1.27-1.87a7.48,7.48,0,0,1,5.57-2.72c1.74,0,3,1,4.67,2.6a14.51,14.51,0,0,0,8.43,4.46l.26,0,.25,0a14.51,14.51,0,0,0,8.44-4.46c1.68-1.6,2.9-2.64,4.67-2.6A7.44,7.44,0,0,1,113.48,32a21.64,21.64,0,0,1,1.27,1.87c1.54,2.41,3.65,5.72,7.9,5.63,2.48,0,4.08-1.55,5.36-2.76a9.34,9.34,0,0,1,1.81-1.46,5.58,5.58,0,0,1,5.43.18,9.31,9.31,0,0,1,2.9,3.61,15.18,15.18,0,0,0,3.36,4.4c2.44,2,5.65,2.26,8.81.7,3.5-1.13,6.47-1,8.82.46l1.05-1.73,1-1.78C157.72,39.1,153.6,38.85,148.91,40.41Z"/>
          <g>
            <g>
              <g>
                <g class="cls-4">
                  <path class="cls-14" d="M49.72,19.76a16.55,16.55,0,0,1-3.39,4.71c-2,1.65-4.51,1.54-6.76.39a18,18,0,0,0-3.53-.8c5.07,11.45,30.57,68.78,38.28,80.88h9.22c-.31-.78-.65-1.6-1-2.49C74.09,81.88,56.23,36.37,49.72,19.76Z"/>
                </g>
                <g class="cls-4">
                  <path class="cls-14" d="M74.11,13.24l-.07.08C72,16,70.57,20.12,66.51,20.05c-2.75-.05-4.06-2.86-6.29-4L60,16l27.91,89h.13l4.42-.76Z"/>
                </g>
                <g class="cls-4">
                  <path class="cls-14" d="M23.47,32.84,55.66,92.38l4.81,4.35L25.79,28.34A14.52,14.52,0,0,0,23.47,32.84Z"/>
                </g>
              </g>
              <g class="cls-4">
                <path class="cls-14" d="M47.34,23.46a6.89,6.89,0,0,1-1,1,5.36,5.36,0,0,1-4,1.22l35.49,78.47Z"/>
                <path class="cls-14" d="M71.21,17.47a5.67,5.67,0,0,1-4.7,2.58L89.06,99.62Z"/>
              </g>
            </g>
            <g>
              <g class="cls-4">
                <path class="cls-14" d="M139.39,19.76a16.78,16.78,0,0,0,3.4,4.71c2,1.65,4.51,1.54,6.76.39a18,18,0,0,1,3.53-.8C148,35.51,122.51,92.84,114.8,104.94h-9.22c.31-.78.65-1.6,1-2.49C115,81.88,132.89,36.37,139.39,19.76Z"/>
              </g>
              <g class="cls-4">
                <path class="cls-14" d="M115,13.24l.07.08c2.08,2.67,3.47,6.8,7.53,6.73,2.75-.05,4.06-2.86,6.29-4a1.76,1.76,0,0,1,.2-.09l-27.92,89h-.12l-4.42-.76Z"/>
              </g>
              <g>
                <g class="cls-4">
                  <path class="cls-14" d="M86.21,12l6.27,92.14h2.08V16.9c-3-.39-5.15-1.87-7.3-3.92Q86.73,12.49,86.21,12Z"/>
                </g>
                <g class="cls-4">
                  <path class="cls-14" d="M101.86,13c-2.16,2-4.25,3.53-7.3,3.92v87.26h2.08L102.91,12C102.55,12.33,102.21,12.65,101.86,13Z"/>
                </g>
              </g>
              <g class="cls-4">
                <path class="cls-14" d="M165.65,32.84l-32.2,59.54-4.8,4.35,34.68-68.39A14.52,14.52,0,0,1,165.65,32.84Z"/>
              </g>
            </g>
            <g class="cls-4">
              <path class="cls-14" d="M141.78,23.46a6.43,6.43,0,0,0,1,1,5.36,5.36,0,0,0,4,1.22l-35.49,78.47Z"/>
              <path class="cls-14" d="M117.91,17.47a5.67,5.67,0,0,0,4.7,2.58L100.06,99.62Z"/>
              <g>
                <path class="cls-14" d="M94.56,96V16.9a10.57,10.57,0,0,1-3.72-1.2Z"/>
                <path class="cls-14" d="M94.56,16.9V96L98.28,15.7A10.57,10.57,0,0,1,94.56,16.9Z"/>
              </g>
            </g>
          </g>
          <g class="cls-4">
            <path class="cls-14" d="M53.5,88.37l2.16,4,13.86,12.56,25,0,25,0,13.85-12.56,3.67-6.77C122.37,91.39,109.23,96,94.56,96,79.59,96,62.34,91.27,53.5,88.37Z"/>
          </g>
        </g>
        <g class="cls-8">
          <path class="cls-15" d="M32.24,30s.52.75,1.38,2.09S35.68,35.3,37,37.65c2.76,4.68,6.15,11.07,9.31,17.56s6,13.12,8,18.19c1,2.52,1.76,4.66,2.28,6.17s.78,2.38.78,2.38S56.9,81.2,56,79.86,54,76.59,52.62,74.24c-2.77-4.68-6.16-11.06-9.31-17.56s-6.05-13.12-8-18.19c-1-2.52-1.77-4.66-2.29-6.16S32.24,30,32.24,30Z"/>
        </g>
        <g class="cls-8">
          <path class="cls-15" d="M55.16,19.37s.14.18.38.53.61.86,1,1.53c.86,1.33,2,3.25,3.25,5.6s2.58,5.13,3.87,8.16c.34.75.65,1.52,1,2.31s.64,1.58.94,2.39c.62,1.6,1.2,3.26,1.78,4.91s1.11,3.32,1.59,5q.39,1.23.72,2.46c.22.81.45,1.62.65,2.42.83,3.18,1.47,6.2,1.91,8.82s.71,4.85.84,6.42c.08.79.09,1.42.12,1.84s0,.66,0,.66-.14-.18-.39-.53-.61-.87-1-1.53c-.86-1.33-2-3.25-3.25-5.6S66,59.61,64.68,56.58c-.33-.75-.64-1.53-1-2.31s-.64-1.58-.94-2.39c-.62-1.6-1.19-3.26-1.78-4.91s-1.1-3.32-1.58-5c-.26-.82-.49-1.65-.71-2.46s-.46-1.62-.66-2.42c-.82-3.19-1.46-6.21-1.91-8.83s-.71-4.84-.85-6.42c-.07-.78-.08-1.41-.11-1.83A6.52,6.52,0,0,1,55.16,19.37Z"/>
        </g>
        <g class="cls-8">
          <path class="cls-15" d="M80.52,14s.2.6.48,1.65.68,2.57,1.08,4.4c.83,3.64,1.67,8.53,2.31,13.45s1.06,9.86,1.18,13.6c.08,1.86.08,3.43.07,4.52s0,1.73,0,1.73-.2-.6-.49-1.66S84.43,49.1,84,47.28c-.84-3.65-1.68-8.54-2.32-13.46s-1-9.86-1.17-13.6c-.08-1.86-.09-3.42-.08-4.52S80.52,14,80.52,14Z"/>
          <path class="cls-15" d="M108.6,14s0,1-.08,2.69-.2,4.16-.42,7.08c-.11,1.46-.23,3-.39,4.71s-.3,3.44-.5,5.26-.38,3.7-.62,5.6-.48,3.85-.71,5.78-.54,3.87-.81,5.77-.57,3.77-.85,5.58-.58,3.55-.86,5.2-.57,3.22-.85,4.66c-.53,2.88-1.05,5.27-1.42,6.94s-.61,2.63-.61,2.63,0-1,.08-2.7.19-4.15.42-7.07c.1-1.47.22-3,.38-4.72s.31-3.43.51-5.25.37-3.7.62-5.61.48-3.84.71-5.78.54-3.86.81-5.76.58-3.77.85-5.58.58-3.55.87-5.21.57-3.21.84-4.65c.54-2.88,1.05-5.27,1.42-6.95S108.6,14,108.6,14Z"/>
          <path class="cls-15" d="M134.12,21.16s-.14.71-.46,1.92-.77,2.94-1.4,5c-.31,1-.65,2.13-1,3.29S130.45,33.73,130,35c-.87,2.52-1.86,5.18-2.89,7.83-.52,1.32-1,2.64-1.58,3.93s-1.07,2.56-1.6,3.78-1.06,2.4-1.57,3.51-1,2.16-1.47,3.12c-.92,1.92-1.75,3.51-2.34,4.61s-1,1.72-1,1.72.15-.7.46-1.92.77-2.93,1.4-5c.31-1,.65-2.13,1-3.28s.77-2.39,1.22-3.65.9-2.55,1.39-3.86,1-2.64,1.5-4c1-2.65,2.12-5.27,3.18-7.72.53-1.22,1.07-2.39,1.58-3.5s1-2.16,1.46-3.12c.93-1.93,1.75-3.51,2.35-4.61S134.12,21.16,134.12,21.16Z"/>
          <path class="cls-15" d="M155.16,30.94s-.3.89-.87,2.42-1.41,3.71-2.48,6.29c-.53,1.29-1.11,2.69-1.75,4.15s-1.29,3-2,4.6-1.45,3.24-2.24,4.89l-2.37,5c-.82,1.67-1.65,3.33-2.46,5s-1.65,3.24-2.44,4.79-1.59,3-2.35,4.45-1.49,2.73-2.17,4c-1.36,2.44-2.54,4.45-3.39,5.85s-1.35,2.18-1.35,2.18.3-.89.87-2.42,1.41-3.7,2.48-6.28c.53-1.29,1.11-2.69,1.75-4.16s1.29-3,2-4.6,1.44-3.24,2.24-4.89,1.58-3.33,2.37-5,1.65-3.34,2.46-5,1.65-3.23,2.44-4.79,1.6-3,2.36-4.44,1.48-2.74,2.16-4c1.36-2.45,2.55-4.45,3.39-5.85S155.16,30.94,155.16,30.94Z"/>
        </g>
      </g>
      <path class="cls-3" d="M161.12,73.64C144.9,93,115.21,103,88.43,110.8,41.87,123.38,18.79,121.48,10,119.68c-.1.86-.16,1.79-.18,2.76a78.12,78.12,0,0,0,15.46,1.31c13.21,0,33.65-2.19,63.87-10.36,26.56-7.77,55.93-17.63,72.85-36.65A19.77,19.77,0,0,0,161.12,73.64Z"/>
    </g>
  </g>
</svg>
