<svg xmlns="http://www.w3.org/2000/svg" xmlns:xlink="http://www.w3.org/1999/xlink" width="375" height="377" viewBox="0 0 375 377">
  <defs>
    <style>
      .cls-1 {
        fill: none;
      }

      .cls-2 {
        isolation: isolate;
      }

      .cls-3 {
        fill: #ff0;
      }

      .cls-4 {
        clip-path: url(#clip-path);
      }

      .cls-5 {
        clip-path: url(#clip-path-2);
      }

      .cls-6 {
        fill: url(#linear-gradient);
      }

      .cls-7 {
        fill: url(#linear-gradient-2);
      }

      .cls-8 {
        opacity: 0.3;
      }

      .cls-9 {
        fill: #90c856;
      }

      .cls-11, .cls-12, .cls-31, .cls-34, .cls-35, .cls-37, .cls-39, .cls-40, .cls-42, .cls-44, .cls-46, .cls-48, .cls-50, .cls-52, .cls-56, .cls-57, .cls-9 {
        mix-blend-mode: multiply;
      }

      .cls-10 {
        fill: #258f45;
      }

      .cls-11, .cls-12 {
        fill: #60833a;
      }

      .cls-11, .cls-31 {
        opacity: 0.5;
      }

      .cls-12, .cls-33 {
        opacity: 0.18;
      }

      .cls-13 {
        fill: url(#linear-gradient-3);
      }

      .cls-14 {
        fill: url(#linear-gradient-4);
      }

      .cls-15 {
        fill: url(#linear-gradient-5);
      }

      .cls-16 {
        fill: url(#linear-gradient-6);
      }

      .cls-17 {
        fill: url(#linear-gradient-7);
      }

      .cls-18 {
        fill: url(#linear-gradient-8);
      }

      .cls-19 {
        fill: url(#linear-gradient-9);
      }

      .cls-20 {
        fill: url(#linear-gradient-10);
      }

      .cls-21 {
        fill: url(#linear-gradient-11);
      }

      .cls-22 {
        fill: url(#linear-gradient-12);
      }

      .cls-23 {
        fill: #1b542a;
      }

      .cls-24 {
        fill: #fde4d6;
      }

      .cls-25, .cls-33, .cls-49, .cls-51 {
        fill: #fff;
      }

      .cls-26 {
        fill: #2e7138;
      }

      .cls-27 {
        fill: #e5be53;
      }

      .cls-28 {
        fill: #e2a550;
      }

      .cls-29 {
        fill: #f2ad1c;
      }

      .cls-29, .cls-36 {
        stroke: #e77f24;
      }

      .cls-29, .cls-36, .cls-41, .cls-45, .cls-53 {
        stroke-width: 0.15px;
      }

      .cls-30 {
        fill: #ed9b21;
      }

      .cls-32, .cls-35, .cls-38, .cls-40, .cls-47, .cls-52 {
        fill: #facc0b;
      }

      .cls-33, .cls-49, .cls-51, .cls-55 {
        mix-blend-mode: overlay;
      }

      .cls-34 {
        opacity: 0.67;
      }

      .cls-35, .cls-48, .cls-56 {
        opacity: 0.29;
      }

      .cls-36 {
        fill: #f5b719;
      }

      .cls-37 {
        opacity: 0.4;
      }

      .cls-38 {
        opacity: 0.74;
      }

      .cls-39 {
        opacity: 0.48;
      }

      .cls-40, .cls-57 {
        opacity: 0.53;
      }

      .cls-41 {
        fill: #62a444;
        stroke: #567a42;
      }

      .cls-41, .cls-45 {
        stroke-linecap: round;
        stroke-linejoin: round;
      }

      .cls-42 {
        opacity: 0.28;
      }

      .cls-43 {
        fill: #009b5d;
      }

      .cls-44 {
        opacity: 0.66;
      }

      .cls-45, .cls-46 {
        fill: #fddf19;
      }

      .cls-45 {
        stroke: #f1961f;
      }

      .cls-47 {
        opacity: 0.69;
      }

      .cls-49 {
        opacity: 0.21;
      }

      .cls-50 {
        opacity: 0.37;
      }

      .cls-51 {
        opacity: 0.26;
      }

      .cls-52 {
        opacity: 0.47;
      }

      .cls-53 {
        fill: #d64d15;
        stroke: #b23819;
      }

      .cls-54, .cls-56, .cls-57 {
        fill: #b23819;
      }

      .cls-55 {
        fill: #fbc549;
        opacity: 0.58;
      }

      .cls-58 {
        fill: #226031;
      }

      .cls-59 {
        fill: url(#linear-gradient-13);
      }

      .cls-60 {
        fill: url(#linear-gradient-14);
      }

      .cls-61 {
        fill: url(#linear-gradient-15);
      }

      .cls-62 {
        fill: #52332c;
      }

      .cls-63 {
        fill: #733e2f;
      }

      .cls-64 {
        fill: #613e34;
      }

      .cls-65 {
        fill: #733826;
      }

      .cls-66 {
        fill: #a15536;
      }

      .cls-67 {
        fill: #a85938;
      }

      .cls-68 {
        fill: #8f4b2f;
      }
    </style>
    <clipPath id="clip-path">
      <rect class="cls-1" x="14.2" y="15.2" width="346.61" height="346.61" rx="26.14"/>
    </clipPath>
    <clipPath id="clip-path-2">
      <rect class="cls-1" x="6.92" y="12.35" width="359.29" height="355.17"/>
    </clipPath>
    <linearGradient id="linear-gradient" x1="-57.63" y1="615.79" x2="308.91" y2="-25.81" gradientUnits="userSpaceOnUse">
      <stop offset="0.2" stop-color="#c9e9f2"/>
      <stop offset="0.33" stop-color="#b8e4f3"/>
      <stop offset="0.66" stop-color="#93d9f5"/>
      <stop offset="0.83" stop-color="#85d5f6"/>
    </linearGradient>
    <linearGradient id="linear-gradient-2" x1="-327.3" y1="299.81" x2="567" y2="299.81" gradientUnits="userSpaceOnUse">
      <stop offset="0.39" stop-color="#62bb54"/>
      <stop offset="0.49" stop-color="#68bd53"/>
      <stop offset="0.62" stop-color="#7ac14e"/>
      <stop offset="0.73" stop-color="#90c749"/>
    </linearGradient>
    <linearGradient id="linear-gradient-3" x1="56.4" y1="375.87" x2="79.08" y2="375.87" gradientUnits="userSpaceOnUse">
      <stop offset="0" stop-color="#0c512e"/>
      <stop offset="0.54" stop-color="#0c512e"/>
      <stop offset="0.77" stop-color="#0c512e"/>
    </linearGradient>
    <linearGradient id="linear-gradient-4" x1="16.61" y1="373.84" x2="81.42" y2="373.84" xlink:href="#linear-gradient-3"/>
    <linearGradient id="linear-gradient-5" x1="76.06" y1="380.2" x2="100.68" y2="380.2" xlink:href="#linear-gradient-3"/>
    <linearGradient id="linear-gradient-6" x1="28.32" y1="375.72" x2="96.55" y2="375.72" xlink:href="#linear-gradient-3"/>
    <linearGradient id="linear-gradient-7" x1="83.11" y1="376.35" x2="99.19" y2="376.35" xlink:href="#linear-gradient-3"/>
    <linearGradient id="linear-gradient-8" x1="104.85" y1="375.78" x2="130.6" y2="375.78" xlink:href="#linear-gradient-3"/>
    <linearGradient id="linear-gradient-9" x1="104.19" y1="377.47" x2="150.29" y2="377.47" xlink:href="#linear-gradient-3"/>
    <linearGradient id="linear-gradient-10" x1="60.55" y1="374.46" x2="96.55" y2="374.46" xlink:href="#linear-gradient-3"/>
    <linearGradient id="linear-gradient-11" x1="92.82" y1="374.4" x2="110.83" y2="374.4" xlink:href="#linear-gradient-3"/>
    <linearGradient id="linear-gradient-12" x1="89.82" y1="391.48" x2="196.3" y2="391.48" xlink:href="#linear-gradient-3"/>
    <linearGradient id="linear-gradient-13" x1="99.3" y1="358.01" x2="124.51" y2="358.01" xlink:href="#linear-gradient-3"/>
    <linearGradient id="linear-gradient-14" x1="94.27" y1="350.74" x2="121.81" y2="350.74" xlink:href="#linear-gradient-3"/>
    <linearGradient id="linear-gradient-15" x1="70.61" y1="355.99" x2="94.07" y2="355.99" xlink:href="#linear-gradient-3"/>
  </defs>
  <g class="cls-2">
    <g id="Layer_1" data-name="Layer 1">
      <g>
        <rect class="cls-3" x="8.2" y="9.2" width="358.61" height="358.61" rx="32.15"/>
        <g class="cls-4">
          <g class="cls-5">
            <g>
              <rect class="cls-6" x="8.57" y="8.64" width="357.23" height="357.23"/>
              <path class="cls-7" d="M-327.3,193s379.87-8.72,505.44-8.72c104.57,0,214.37-20.91,214.37-20.91L567,436.22H-314.79Z"/>
              <g class="cls-8">
                <path class="cls-9" d="M-349.55,469.88H604.72c-4.65-10.72-9.34-22.62-11.12-30.81-4.24-19.43-6.25-40.36-8.26-60.09a159.46,159.46,0,0,1-.75-18.42c.19-12.73,1.86-25.5.54-38.19-1.75-16.95-3-33.94-3.79-51-.35-7.17-.61-14.34-.84-21.51-246-2.94-426.36-4.54-438.69-2.85-6,1.55-12.06,3.11-18.22,4.61a674.12,674.12,0,0,1-79.24,14.51c-58.88,7.21-124.11,7.28-181,16.37,34.49,1.85,69.78.95,104.37-.14,24.16-.78,48.34-1.3,72.48-2,18.75-.58,37.53-1.24,56.35-1.3,13.91,0,33.54-.37,45.48,2.58,9.54,2.38,6.18,6.09-.16,8.82-10.26,4.4-25.4,7.58-39.74,10.26-19.07,3.58-39.31,6.53-60,8.84-19.64,2.2-40.1,4-60.79,4.5-13.69.32-30.26.34-41.71-2.63-.63-.17-.76-.42-.22-.63,12.75-5.12,37.26-5.12,48.16-10.76-26.89-3.68-59-1.68-86.87-.76-35,1.14-70.33,2.66-105.56,3-50.41.54-100.23-2.5-150.27-4.4C-353.11,355.23-350.93,412.54-349.55,469.88Z"/>
              </g>
              <path class="cls-10" d="M-284.45,285.66c-9.83,1.68-20,2.9-30,4.15-13.57,1.68-27.22,3-40.91,3.93,1.71,47.18,3.5,94.35,4.87,141.53L594.31,442c-.27-1-.51-2-.71-2.91-4.24-19.43-6.25-40.36-8.26-60.09a159.46,159.46,0,0,1-.75-18.42c.19-12.73,1.86-25.5.54-38.19-1.75-16.95-3-33.94-3.79-51-.54-11.24-.91-22.49-1.17-33.74-132.3-.95-258.54-1.83-371.17-2.58L189.81,235c-264.66-1.74-449.64-2.65-452.91-1.71-11.25,3.25-23.63,6.56-33.19,11.87-2.2,1.22-5.8,3.17-5.48,5.36.57,3.87,8,6.74,12.25,8.65,8.91,4,24.91,9.86,20.6,18.8C-271.14,282.52-278,284.56-284.45,285.66Z"/>
              <path class="cls-11" d="M73.81,240.53c-1.43-1.35-10-.78-12.75-.69-1.16,0-3.84,0-6.08.21l-1.89.09c-1.19.05-5,.74-3,1.41,2.27.73,6,.71,8.83.74,3,0,6-.11,8.94-.34a26.2,26.2,0,0,0,5.2-.68C73.63,241.09,74.11,240.83,73.81,240.53Z"/>
              <path class="cls-12" d="M1.63,230.84s-238.91,28.76-168.41,42.63S32.06,291.58,95.37,295,325,291.47,316,290.32s-72.26-10.59-120.21-6.78-219.24,1.62-253.83-10.07-13.29-22.56,43.86-22.6,248.56,6.29,229.71,5.86-44.22-8.27-120.14-12.56S1.63,230.84,1.63,230.84Z"/>
              <g>
                <path class="cls-13" d="M72.27,423.2c-7.55,2.37-17.58-72.16-15.62-94.71C69.34,359.56,89.84,417.69,72.27,423.2Z"/>
                <path class="cls-14" d="M80.08,427.71c0-1.5-58.58-102.23-63.47-107.74,17.58,16,74.21,94.21,63.47,106.24Z"/>
                <path class="cls-15" d="M95.7,436.75C85,442.11,68.36,327.57,80.08,323.48,91.8,370.79,109.37,429.93,95.7,436.75Z"/>
                <path class="cls-16" d="M86.92,438.74S27.25,317.4,28.33,308.44c14,12.05,76.16,132.8,67.37,134.3S86.92,438.74,86.92,438.74Z"/>
                <path class="cls-17" d="M95.24,426.18c8.19,2.05,1.94-77.27-3.44-99.7C83.24,358,76.16,421.39,95.24,426.18Z"/>
                <path class="cls-18" d="M110.17,431.81c-.58-1.47,17.78-106.17,20.43-112.07-11,17.51-36.2,99.91-21,110.6Z"/>
                <path class="cls-19" d="M104.56,433c17.06,2.83,46.77-93.33,45.7-111.12C129.17,349.13,100.61,432.35,104.56,433Z"/>
                <path class="cls-20" d="M93.62,436.33C106.44,441,73.78,315.67,60.55,312.45,69.28,364.72,77.31,430.36,93.62,436.33Z"/>
                <path class="cls-21" d="M102.87,438.81s11.43-125,6.9-133.68c-9.07,13.24-23.15,137.93-14,138.5S102.87,438.81,102.87,438.81Z"/>
                <path class="cls-22" d="M89.82,448c1.72,0,7.83,0,9.55,0,17.25-13.56,72.2-76.91,96.93-113C144.89,367.4,94.85,430,89.82,448Z"/>
              </g>
              <g>
                <path class="cls-23" d="M253.7,401.64h2.55c.8-16.64.46-33.31,0-50,0-1.06-1.63-1.76-1.59-.44C255.07,368.05,254.57,384.85,253.7,401.64Z"/>
                <g>
                  <g>
                    <path class="cls-24" d="M252.29,313c.1,2.49.93,4.45,1.63,6.8.61,2,1.71,4.45,3.41,5.05a.36.36,0,0,0,.23.3c1.38.39,2.46-.16,3.79-.58a28.94,28.94,0,0,0,4.82-1.59,14.84,14.84,0,0,0,6.8-6.7c.54-1.21.53-3.2-1.08-3.06-1.39.12-2-.22-3.24.44-.08-1.18,0-2.71-.83-3.78-1.1-1.42-3-1.31-4.51-2.19-.82-.49-1.69.94-2.55.6s-1.76-1.95-2.67-1.81c-1.1.16-1.87.9-3.09.78-.43,0-2.2,0-2.56.38C251.43,308.74,252.25,311.63,252.29,313Z"/>
                    <path class="cls-24" d="M230.11,320.06a3.45,3.45,0,0,0,1.88,2.67c3.53,2.31,8,2.74,12,3.13,2.43.24,9.33,2.05,8.84-3.19a25.75,25.75,0,0,0-1.72-6,43.44,43.44,0,0,0-2.26-5.89c-.72-2-1.89-4.5-2.83-2.86-1.35-1.08-3.25-2.34-4.71-1.21a2.82,2.82,0,0,0-1.08,3c.07.27,1.06,3.2-.44,2.39a4.21,4.21,0,0,0-1.3-.62c-.72-.12-2.19-.47-2.64.53a3,3,0,0,0-.32,1.4c0,.41.21,2-.54,1.92l-1.12-.19c-.8-.15-1.88.16-1.87,1.28a4.8,4.8,0,0,0,1,2.37C232,319,230.09,318.77,230.11,320.06Z"/>
                    <path class="cls-25" d="M254.59,311.86c.2-1.37,1.85-.37,2,.56.32,2,.51,4,.91,6,.06.23.14.79.25,1.4.28-1.75.72-3.48,1-5.12.07-.49.67-.06.6.34a21.45,21.45,0,0,0,0,5.71,85.06,85.06,0,0,1,3.48-7.87c.4-.89,1.54.34,1.2,1.14-.63,1.47-1.28,2.94-1.92,4.42a26.74,26.74,0,0,0,2.06-2.84c.61-1,1.95.44,1.45,1.35a38.66,38.66,0,0,1-2.73,4l.13-.07a15.25,15.25,0,0,0,4-2.67c.62-.59,1.56.8,1,1.41a16,16,0,0,1-3.41,2.61,11,11,0,0,1-3.87,1.72c-.12.14-.24.3-.36.43a.66.66,0,0,1-.85,0h0a.79.79,0,0,1-.81.27,1.29,1.29,0,0,1-.28-.08.6.6,0,0,1-.85-.18C255,321.13,254,316.06,254.59,311.86Z"/>
                    <path class="cls-25" d="M238.78,321.62a48.18,48.18,0,0,0,7.05,1.45,31.24,31.24,0,0,1-6.41-5.68c-.36-.41-.1-1.15.41-.73,1.9,1.49,4,2.71,6,4a18.72,18.72,0,0,0,3.82,1.66,20.42,20.42,0,0,0-2-2.23c-1.68-1.55-3.93-2.38-5.35-4.21-.28-.37-.29-1.29.29-1.24,1.88.13,3.65,1.91,5.2,3.07a15.27,15.27,0,0,1,1.93,1.84,22.43,22.43,0,0,0-1.71-3.19c-.62-.93-1.37-3.69-2.49-3.88-.22-.05-.47-.64-.14-.73,1.29-.29,2.59,2.25,3.25,3.2,1.92,2.73,3.65,5.26,4.55,8.73a.93.93,0,0,1-.85,1.26.53.53,0,0,1-.62.39l-.41-.05a.47.47,0,0,1-.37.09,50.19,50.19,0,0,1-12.1-3.1C238.5,322.15,238.38,321.51,238.78,321.62Z"/>
                    <path class="cls-26" d="M246.28,334.57a6.45,6.45,0,0,0,.37,1.2c-.16-.08-.34,0-.34.31,0,.12,0,.24,0,.38a.78.78,0,0,0,0,.22c0,.33,0,.63.05.93.09,2.15.45,4.31.73,6.4a21.68,21.68,0,0,0,1.39,6.39c1.27,2.71,3.35,4.87,6,4.69s6.72-.88,7.33-5c.64-4.39.17-8.84.92-13.2.08-.14.16-.29.25-.43.07.08.18.08.21-.09s.11-.39.18-.58-.27-.77-.48-.51l-.09.11s-.06,0-.09.07,0,.06,0,.09a12.74,12.74,0,0,0-1.9,3.29c-.19-.92-.39-1.85-.61-2.76-.12-.46-.55-.86-.86-.41a6.93,6.93,0,0,0-.82,2.78c-.1.67.07,1.77-.39,1a17.83,17.83,0,0,1-.86-1.62,12,12,0,0,0-3.05-4.47c-.27-.22-.6.06-.62.46a15.62,15.62,0,0,0,.59,3.76,17.82,17.82,0,0,1,.17,3,30,30,0,0,1-3.08-5c-.27-.62-1.05-.68-.95.24A17.15,17.15,0,0,0,251,339c-1.35-1.58-2.49-3.58-3.91-5C246.69,333.64,246.16,333.92,246.28,334.57Z"/>
                    <path class="cls-27" d="M250,330.29a8.36,8.36,0,0,0,6.6,1.89c1.78-.24,3.67-.45,5-2a5,5,0,0,0,.65-.48c1.36-1.26,1.38-3.29.55-5a11.66,11.66,0,0,0-2.25-3.24,4.88,4.88,0,0,0-3.57-1.19c-1.37-.07-2.57-.93-3.92-.3a4.93,4.93,0,0,1-1.95.61,3.55,3.55,0,0,0-1.37.12C245.89,322.48,247.24,328,250,330.29Z"/>
                    <path class="cls-24" d="M260.93,329.81a8.44,8.44,0,0,0,4.19,6.62c2.39,1.52,5.36,3.15,8.19,2.92,1.66-.14,2.07-1.18,1.55-2.5a15.59,15.59,0,0,0,2.64.22,4.75,4.75,0,0,0,2.15-.27c1.1-.64.84-1.82.5-3-.27-.89-1.5-2.3-.46-3.07.46-.34,1-.53,1.35-1.07.49-.82-.89-2.13-1.6-2.83a2.46,2.46,0,0,0,.56-3c-.62-1.32-2.43-1.45-3.56-1.39a39.56,39.56,0,0,0-6.51.56,24.4,24.4,0,0,0-2.92.72,6.38,6.38,0,0,1-2.85.67c-.17,0-.11.24,0,.35A4.6,4.6,0,0,0,260.93,329.81Z"/>
                    <path class="cls-24" d="M248.67,347.69c1.15,1.06,2.46-.64,3.45-1.11,1.47-.68,2.5,1.53,3.77.94a2.53,2.53,0,0,0,1.16-1.11c.17-.33.31-.67.48-1,.51-1,1.41-.24,1.78.46.48.87,1.14,2.09,2.22,1.63.64-.26,1.08-1,1.71-1.18,1.29-.47,1.89.39,3,.5a1.28,1.28,0,0,0,1.63-1c.59-2.32-1.88-6-2.82-7.7a19.29,19.29,0,0,0-3.46-4.8,16.51,16.51,0,0,0-2.12-2c-1.92-1.71-4.45-3-6.46-1.83-2.8,1.68-4.36,4.91-4.9,8.39C247.67,340.84,246.26,345.45,248.67,347.69Z"/>
                    <path class="cls-24" d="M231.75,329.61a6.41,6.41,0,0,0,1.25,1.84c.88.82,0,1.75-.37,2.68-1.36,3.67,1.44,4.23,3.29,4,.54,0,2.83-.52,2.69.92a8.66,8.66,0,0,0-.16,2.38c.28,1.27.9,2,1.85,1.85.63-.08,1.21-.7,1.8-1,1-.56.5,1.21.49,2,0,1,.35,2.58,1.2,2.55,1.35-.05,2-2.39,2.4-3.91.76-2.61,1.71-5.13,2.33-7.81.42-1.86,1.73-4.12,1.44-6.13a2.52,2.52,0,0,0-2.11-2.14l-.59-.1a11.35,11.35,0,0,0-2.44-.62,34.23,34.23,0,0,0-3.64-.65c-1.94-.28-3.91-.2-5.82-.61-.94-.21-2.42-.59-3.19.64A4,4,0,0,0,231.75,329.61Z"/>
                    <path class="cls-25" d="M237.36,326.72c3.49,1,7.3-.12,10.88.37.54.05.91.88.88,1.49a1.17,1.17,0,0,1,.65.81,7.22,7.22,0,0,1-.49,3.81,19.21,19.21,0,0,0-.84,2.39c-.1.39-.44.71-.56,1.09-.18.56-.75.1-.78-.33s0-.66,0-1a16.86,16.86,0,0,1-2.87,4.29c-.43.51-1-.42-.94-.9.39-2.08,1.58-3.68,2.32-5.61.23-.59.43-1.28.63-2a40.63,40.63,0,0,0-5.34,4.8c-.28.32-.76-.38-.48-.71,1.21-1.4,2.36-3.16,3.83-4.18l.09-.06c-.78.08-1.54.18-2.32.28a20.71,20.71,0,0,0-2.93.2c-.4.11-.82-.7-.36-.86a17.34,17.34,0,0,0,2.63-1.44c.08-.05.18-.08.27-.13a14.72,14.72,0,0,1-4.27-.79C236.66,328.05,236.42,326.45,237.36,326.72Z"/>
                    <path class="cls-25" d="M250.7,334.61c-.28.22-.72-.28-.51-.6.62-1,3.31-4.65,5.18-4.83.32-.17.83.08,1.09.49a.87.87,0,0,1,.15.24h0c1.45.09,3,1.83,4,2.81a29.7,29.7,0,0,1,2.46,2.67c.78,1,.86,2,1.44,3.1.07.16-.09.31-.21.18A12.92,12.92,0,0,1,263.1,337a22.36,22.36,0,0,0-2.42-2.54c-.63-.62-1.3-1.2-1.95-1.76a4.81,4.81,0,0,0-.54-.41c.36.61.73,1.25,1.11,1.77a26.25,26.25,0,0,1,3.12,5.16c.18.4-.28.65-.47.29a49.74,49.74,0,0,0-5-6.85,14.72,14.72,0,0,0,.09,1.59c.3,2.11.87,5.43,2.13,7.08.37.5-.1,1.17-.57.73-1.38-1.3-1.92-3.66-2.46-5.54-.25-.92-.53-1.94-.74-3a12.34,12.34,0,0,0-.74,2.7,23.88,23.88,0,0,0-.36,6.32c.11.74-.61.92-1,.38-1-1.5-.87-4.25-.84-6a11.09,11.09,0,0,1,.31-2.64,5.51,5.51,0,0,0-.4.59,9.48,9.48,0,0,0-1,2.74c-.16.74-.64,1.68-.73,2.43-.05.44-.53.15-.62-.07-.71-1.55.11-3.89.77-5.45A.6.6,0,0,1,250.7,334.61Z"/>
                    <path class="cls-25" d="M262.14,329.6a4.91,4.91,0,0,1,1.35-3.36,6.88,6.88,0,0,1,3.85-1.64c.86-.19,1.69-.42,2.55-.56s1.71.53,2.38.23c.09,0,.2.1.15.2a1.34,1.34,0,0,1-.8.87s0,0,0,0c.16,0,.32,0,.47-.05.76-.08,1.49,1.7.59,1.88-1.25.29-2.52.5-3.77.7.94.22,1.85.49,2.77.7.3.07.5.83.08.8-1.79-.12-4.13-.85-5.89-.36a4.14,4.14,0,0,1-1.15.16,6,6,0,0,0,.56.37c1.16.61,2.38,1,3.52,1.57.81.41.62,2-.35,1.53-1.16-.56-2.37-1-3.54-1.5a9.21,9.21,0,0,1-1.38-.76c0,.2.07.41.11.62a10.31,10.31,0,0,0,1.59,1.77c1.09.88,2.35,2.3,3.75,2.13.35,0,.58.7.16.78-1.4.29-2.88-.78-4-1.58a9.09,9.09,0,0,1-3.37-3.72C261.5,329.9,261.78,329.56,262.14,329.6Z"/>
                  </g>
                  <path class="cls-28" d="M260.36,323.94c.78.1,1,1.71,0,1.56C259.6,325.4,259.42,323.8,260.36,323.94Z"/>
                  <path class="cls-28" d="M258.92,321.44c1,.14,1.23,2.22,0,2C257.93,323.34,257.7,321.25,258.92,321.44Z"/>
                  <path class="cls-28" d="M255.78,320.38c.57.09.71,1.29,0,1.19S255.07,320.27,255.78,320.38Z"/>
                  <path class="cls-28" d="M253,319.92c1,.14,1.23,2.21,0,2C252,321.81,251.75,319.74,253,319.92Z"/>
                  <path class="cls-28" d="M249.35,321.11a.77.77,0,0,1,.77-.16,1.45,1.45,0,0,1,.88,1.3v.09a.81.81,0,0,1-.7.89h-.05C249.43,323.2,248.62,321.87,249.35,321.11Z"/>
                  <path class="cls-28" d="M254.26,324.87a.93.93,0,0,1,.51.24c-.11-.18-.07-.5.18-.46s.36.65,0,.6a.14.14,0,0,1-.09,0c.59.72.55,2.22-.6,2.06S252.82,324.65,254.26,324.87Z"/>
                  <path class="cls-28" d="M250.11,324.65c-.1-.74.21-1.45,1.08-1.33,1.21.19,1.57,2.48.41,2.72a.69.69,0,0,1-.81.48A1.3,1.3,0,0,1,250.11,324.65Z"/>
                  <path class="cls-28" d="M258,326.38c.32,0,.39.71,0,.65S257.59,326.32,258,326.38Z"/>
                  <path class="cls-28" d="M257,323c.55.08,1,.86,1,1.45a.83.83,0,0,1-1,.91c-.55-.08-1-.85-1-1.45A.82.82,0,0,1,257,323Z"/>
                  <path class="cls-28" d="M260.05,327.83c.55.08.69,1.25,0,1.16S259.35,327.73,260.05,327.83Z"/>
                  <path class="cls-28" d="M262.08,322.91c.82.13,1,1.84,0,1.7C261.27,324.49,261.07,322.78,262.08,322.91Z"/>
                  <path class="cls-28" d="M260.94,321.33c.29.06.36.65,0,.6S260.59,321.29,260.94,321.33Z"/>
                  <path class="cls-28" d="M247.86,323.75c1.17.16,1.46,2.6,0,2.39C246.7,326,246.43,323.54,247.86,323.75Z"/>
                  <path class="cls-28" d="M257.08,319s0,0,.06,0a1.42,1.42,0,0,1,.38.39,1,1,0,0,1,.18.38s0,0,0,.05a.69.69,0,0,1,0,.13,1.85,1.85,0,0,1,0,.47s0,0,0,0h0a.89.89,0,0,1-.21.41.55.55,0,0,1-.58.11,1.22,1.22,0,0,1-.94-1C255.85,319.23,256.46,318.61,257.08,319Z"/>
                </g>
              </g>
              <g>
                <g>
                  <path class="cls-29" d="M184.32,293.87S192.82,287,195,286s4.87-4.16,1.67-7.16-11.56-1.42-13.87,7.75S183.16,294.37,184.32,293.87Z"/>
                  <path class="cls-30" d="M182.94,293.34a.09.09,0,0,0,.09-.06c1.57-6,7.43-11.44,7.4-11.47s-6,5.43-7.57,11.43a.08.08,0,0,0,.07.1Z"/>
                  <g class="cls-31">
                    <path class="cls-32" d="M182.84,286.54a14.2,14.2,0,0,1,2-4.57c-.66,1.67-1.39,3.95-1.2,5.42.33,2.58,1.27.17,1.6,1.22s3.3-.27,5.17-1.6a44.25,44.25,0,0,1,7.31-3.46A6,6,0,0,1,195,286c-2.22,1-10.72,7.92-10.72,7.92C183.16,294.37,180.52,295.71,182.84,286.54Z"/>
                  </g>
                  <path class="cls-33" d="M197.46,281.63c-.48,1.59-2.67,2.65-4,3.32-4,2.06-4.29,2.12-3.19,1.12s-2.48,2.05-2.53,1.27,2.69-2.93,2.69-2.93-2.37,2.1-2.26,1.16a4.6,4.6,0,0,1,1.05-2.07c.17-.17-1.09,1.56-1.37,1.29s1.1-2.23,1.1-2.23-2.3,3-2.47,2.44,1.15-3.21.43-2.11-1.47,2.84-1.37,1.57-.39-.73-.66-.51-.78-1.5,3.25-4.67a7.36,7.36,0,0,1,5.26-1.6c1.36.17,3.24.9,3.88,2.25A2.4,2.4,0,0,1,197.46,281.63Z"/>
                </g>
                <g>
                  <path class="cls-29" d="M181.44,293.7s6-19.09-6.28-18.08c-3.62.83-4.7,6.59-.34,14.42C178.54,295.12,181.44,295.81,181.44,293.7Z"/>
                  <path class="cls-30" d="M179.16,294.71a.1.1,0,0,0,.12-.09c.75-5.57-2.43-12.76-2.47-12.72s3,7.3,2.26,12.69a.1.1,0,0,0,.09.12Z"/>
                  <g class="cls-31">
                    <path class="cls-32" d="M177.58,287.18c2.52-2.12,1.54,3.94,4,.38,1.64-2.34.84-6.42.11-8.91,2.84,5.18-.27,15.05-.27,15.05,0,2.11-2.9,1.42-6.62-3.66a21.42,21.42,0,0,1-2.79-8C173.14,285.5,175.82,288.64,177.58,287.18Z"/>
                  </g>
                  <path class="cls-33" d="M182.31,283.5s-.11-7-5.17-7.5c-2.2-.1-6.72,1.46-3.25,8.41,1.05,2.32,1.1.1,1-.46s.34.73.77,1.17.33.28.23-.78-.11-.71.65.45.89,2,.66.38-.16-1.33.35-.33.53,3.17.48,1-.1-3.61.17-2.51.77,3.07.77,1.46,0-2.56.44-1.46,1.16,3.13,1.16,1.73-.07-2.27.2-1.43,1.06,3.49.88,1.27-.27-2.23.07-1.34S182.37,284.46,182.31,283.5Z"/>
                </g>
                <g>
                  <path class="cls-29" d="M178.21,293.63s-9.48-15.43-20.79-10.09c-4.78,3-.67,9.58,7.59,10a50,50,0,0,1,11.56,2.5S178.71,293.46,178.21,293.63Z"/>
                  <path class="cls-30" d="M177.5,294.79A26.87,26.87,0,0,0,163,287.51c.36.12,7.26.83,14.44,7.52A.32.32,0,0,0,177.5,294.79Z"/>
                  <path class="cls-33" d="M170.92,286.51A12.32,12.32,0,0,0,158,283.79c-2.8,1.44-3.46,7.33,6.17,8.06,2.79.27,1.26-.12-.71-.52s-1-.59.43-.42.71,0,0-.23-2.31.16-3.52-.78,1.87,0,2.81.07.82-.07-.39-.91-.76-.39,1-.05,1.54.05.28-.67-.49-.55,1.42,0,5.29,1.67,3.14.55-3.52-1.55-1.66-1.1,1.33-.23-.32-.9-1.11-.21.56,0,1-.6-.17-1.1-.28-.39,1.86.45,1.88.22.06-.67S169.39,286,170.92,286.51Z"/>
                </g>
                <g>
                  <path class="cls-29" d="M187,294.19s7.76-2.9,12.79-1.66,9.9-.57,8.92-4.9-10.49-4.84-16.34-1.26-7.84,5.59-7.27,7A1.38,1.38,0,0,0,187,294.19Z"/>
                  <path class="cls-30" d="M185.49,293.9l.06,0c5.24-6.84,14.65-7.17,14.65-7.22s-9.5.22-14.8,7.12a.08.08,0,0,0,0,.11l.06,0Z"/>
                  <g class="cls-31">
                    <path class="cls-32" d="M192.33,286.37a14.82,14.82,0,0,1,1.72-.91,20.07,20.07,0,0,0-5,4.88c-1.32,2.05,2.17.34,12.06.91,4.13.23,6.42.64,7.58-1.76-.6,3-4.73,4.11-9,3-5-1.24-12.79,1.66-12.79,1.66a1.38,1.38,0,0,1-1.9-.82C184.49,292,186.46,290,192.33,286.37Z"/>
                  </g>
                  <path class="cls-33" d="M207,286a6.16,6.16,0,0,0-1.94-1,13.14,13.14,0,0,0-4.54-.47,14.11,14.11,0,0,0-3.72.54c-3.57,1.29-.71.62.68.62s-1.12.21-1.88.72,1.7-.11,2.86-.11-1.1.17-2,.55.29.12,1.77.05-3.3.83-4.46,1.45,3.18-.55,4.19-.39-1.27.34-1.06.66,1.61.22,2.81.35-3.52.16-3.47.55.71.39,2.75.46,4,.59,6.33.59c1.35,0,2.93-.48,3-2.08A3,3,0,0,0,207,286Z"/>
                </g>
                <g>
                  <path class="cls-29" d="M208,303.2s4.93-.64,4.42-4-3.4-6.72-12.75-7.64-12.42,1.7-12,3.1a3.5,3.5,0,0,0,2.62,2.25C191.08,297,206.73,302,208,303.2Z"/>
                  <path class="cls-30" d="M204.58,294.63a6.68,6.68,0,0,0-.84-.34,21,21,0,0,0-16-.1.09.09,0,0,0-.05.12.08.08,0,0,0,.11,0C196.28,290.84,204.58,294.68,204.58,294.63Z"/>
                  <g class="cls-34">
                    <path class="cls-35" d="M193.52,291.54a6.07,6.07,0,0,0-2.08.81c-.93.67.47.66,1.74.59a4,4,0,0,0-2,.52c-.55.6-.34.55,1.59.71s-1.22.35-1.43.51a14.84,14.84,0,0,1,6.38,1c3.52,1.49,4.56,2.09,7.21,3.34,1.77.81,3.51,2.58,5.39,3.47a8.89,8.89,0,0,1-2.36.71c-1.28-1.2-16.93-6.19-17.69-6.25a3.5,3.5,0,0,1-2.62-2.25C187.39,293.66,188.94,292,193.52,291.54Z"/>
                  </g>
                  <path class="cls-33" d="M210.53,296a14.34,14.34,0,0,0-8.08-3.49c-3.85-.63,2.75.87,3.63,1.65s-2-.78-3-.78,1.26.62,2,1.29-2.14-.56-1.81-.23,2.59,1.68,1,1.12-4.24-1.62-2.76-.73,1.43.89-.33.61-.43.45.45.95-1.88-1-2.32-.67,2.46.92,6.5,3.5C211.47,302.79,214.34,300.57,210.53,296Z"/>
                </g>
                <g>
                  <path class="cls-36" d="M201.83,308.45a30.16,30.16,0,0,1,5,2.83c1.66,1.35,5.21,1.5,5.21-2.74s-6.78-10-13.88-12.17-8.91-.56-8.91.26.18,1.83,1.83,3.07S201.83,308.45,201.83,308.45Z"/>
                  <path class="cls-30" d="M204.6,303.73S197,296.3,189.51,297a1.42,1.42,0,0,0-.22.06c.26,0,0,.18.06.16C196.77,296.52,204.59,303.75,204.6,303.73Z"/>
                  <g class="cls-37">
                    <path class="cls-32" d="M197.82,296.25a11,11,0,0,0-1.59.05c-3.14.27-3.62-.4-1.22,1s3,1.11.51.79-2.76-1.12-.73.88,3,2.95,4.63,4.62c1,1.05,3.18,4,5,6.16-1.34-.73-2.57-1.28-2.57-1.28s-9.07-7.49-10.71-8.75-1.83-2.25-1.83-3.07S191.05,294.27,197.82,296.25Z"/>
                  </g>
                  <path class="cls-38" d="M207.46,302.51s4.12,1.67,4.4,5.84-4.23,4.82-9.39-2c-4.91-5.43,3.05.74,3.71.92s-3-2.62-1.76-1.89,1.71,1.1,1.05.28-.88-1.29-.05-.67,1.87,1.22.76-.28-.16-1.11,1-.22.45-.56-1.1-1.9,1.21.29,2.2,1.07S208.28,302.89,207.46,302.51Z"/>
                </g>
                <g>
                  <path class="cls-36" d="M177.08,296S166.36,291.62,156,295c-6.43,2.42-5.85,5.17-5.44,7.35s3.13,5.08,14.19-.09A81,81,0,0,1,178.07,298Z"/>
                  <path class="cls-30" d="M178.05,296.73s-10.86-3.39-18.41,1.57c.75-.46,6.39-4.43,18.57-1.4C178.29,296.85,178.05,296.73,178.05,296.73Z"/>
                  <g class="cls-39">
                    <path class="cls-32" d="M171,295.85c-1.91-.4-7.48.55-7.48.55,4.68-1.56,8.69-.67,6.17-1.78-1.16-.51-3.88-.75-6.49-.85a36.85,36.85,0,0,1,13.91,2.2l1,2a81,81,0,0,0-13.37,4.33c-5.87,2.75-9.4,3.21-11.47,2.72,2.65-.85,5.35-2.83,7.47-4.11C165,298.3,172.91,296.23,171,295.85Z"/>
                  </g>
                  <path class="cls-33" d="M162.78,294.4s-9.9.62-11.33,4.55,1.22,6.57,7.37,2.62,3-3.27,1.38-2.72,1.43-1.12,2.36-1.35-1.75.12-2.26.34,3.42-1.39,3.8-1.39-2,.34-3.62.89-.94-.55.27-1-.66-.62-1.48-.34S161.3,294.45,162.78,294.4Z"/>
                </g>
                <path class="cls-40" d="M187.12,290s-1.46,1.41-2,.46-.21-1.17-.86-.75-.87.41-1-.34-.46-1-.74-.29-.82,1.33-1.2.66-.65.63-1.23.5-1.07-1.66-1.07-1.12.07,1.84-.91,1.17-1.29-.58-1.2.17-.79,0-1.32-.34.53.51.61,1.46-1.31-.54-1,.21,0,1.08-.84.71.7.8-.07.83-.47.1-.13.41-.67.71-1.73.8,1,.17.95.42-1.29.57-1.61.57,1.69.22,2.41.51,1.46.29.43.83,0,.71.29,1,6.18.29,6.18.29l8.3-2a3.16,3.16,0,0,1,2.76-1c1.78.2-.62-.23-1.56-.06s-1.08-.29-.42-.41.49-.5-.5-.38-1.93.21-.65-.29.62-.51,0-.42-.67-.29-.41-.36.83-.88.16-.68-1.56.81-.67.22.34-.77-.65-.52S187.36,290.63,187.12,290Z"/>
                <g>
                  <path class="cls-41" d="M203.65,398.46a1.34,1.34,0,0,0,1.31-1.09,50.18,50.18,0,0,0,.24-15.28c-1-8-3.55-16.49-7.73-26.07-1.41-3.23-3-6.44-4.53-9.53a138.85,138.85,0,0,1-6.41-14.18c-3.14-8.62-4-18.05-2.27-25.2a1.36,1.36,0,0,0-1-1.62,1.32,1.32,0,0,0-1.59,1c-1.85,7.65-1,17.65,2.37,26.75a141.68,141.68,0,0,0,6.51,14.45c1.52,3.07,3.1,6.25,4.49,9.42,4.08,9.35,6.54,17.63,7.53,25.36a48,48,0,0,1-.23,14.45,1.36,1.36,0,0,0,1.06,1.55Z"/>
                  <g class="cls-42">
                    <path class="cls-43" d="M181.69,306.47a1.32,1.32,0,0,1,1.59-1,1.36,1.36,0,0,1,1,1.62c-1.73,7.15-.87,16.58,2.27,25.2a138.85,138.85,0,0,0,6.41,14.18c1.54,3.09,3.12,6.3,4.53,9.53,4.18,9.58,6.71,18.1,7.73,26.07a50.18,50.18,0,0,1-.24,15.28,1.34,1.34,0,0,1-1.31,1.09h-.23a1.14,1.14,0,0,1-.35-.13c6.27-8.22-3.3-36.11-7.11-43.07-4-7.23-9.91-20.45-11.67-24.67-.58-1.4-1.18-2-1.73-2.1C180.51,320.76,180.16,312.82,181.69,306.47Z"/>
                  </g>
                </g>
                <g class="cls-44">
                  <path class="cls-35" d="M171.54,293c3-.12-.73-2.86-3.6-4.21,3.35,1.31,6.8,3.32,6.23,1.31-.44-1.49-2.07-3.25-3.31-4.42a32.15,32.15,0,0,1,7.35,8c.5-.17-1.64,2.41-1.64,2.41a50,50,0,0,0-11.56-2.5,13,13,0,0,1-6.49-2,18.77,18.77,0,0,0,4.48.66C166.58,292.46,167.52,293.12,171.54,293Z"/>
                </g>
                <g>
                  <path class="cls-45" d="M178,294.19a1.55,1.55,0,1,0-.77,2.14A1.64,1.64,0,0,0,178,294.19Z"/>
                  <path class="cls-46" d="M175.88,294.45c1.45-1.21,2.54,1.77,1.75-.73a1.77,1.77,0,0,1,.32.47,1.64,1.64,0,0,1-.77,2.14,1.6,1.6,0,0,1-2.06-.88.84.84,0,0,1-.05-.17C175.51,295.76,175.09,295.12,175.88,294.45Z"/>
                </g>
                <g>
                  <path class="cls-45" d="M181.71,292.77a1.55,1.55,0,1,0-1.6,1.6A1.59,1.59,0,0,0,181.71,292.77Z"/>
                  <path class="cls-46" d="M179.74,292.12c1.81-.49,1.54,2.69,1.88.09a1.64,1.64,0,0,1,.09.56,1.55,1.55,0,1,1-3.09-.07,1,1,0,0,0,0-.18C178.85,293.15,178.74,292.37,179.74,292.12Z"/>
                </g>
                <g>
                  <path class="cls-45" d="M180.17,293.71a1.55,1.55,0,1,0-3.09-.07,1.55,1.55,0,1,0,3.09.07Z"/>
                  <path class="cls-46" d="M178.2,293.06c1.81-.47,1.54,2.69,1.88.09a1.69,1.69,0,0,1,.09.56,1.55,1.55,0,1,1-3.09-.07.43.43,0,0,1,0-.17C177.31,294.09,177.2,293.32,178.2,293.06Z"/>
                </g>
                <g>
                  <path class="cls-45" d="M179.92,296.36a1.63,1.63,0,0,0-.92-2.07,1.59,1.59,0,0,0-2,1,1.6,1.6,0,0,0,.92,2.06A1.58,1.58,0,0,0,179.92,296.36Z"/>
                  <path class="cls-46" d="M178.24,295.12c1.86.11.65,3.05,1.76.69a1.53,1.53,0,0,1-.08.55,1.58,1.58,0,0,1-2,1,1.6,1.6,0,0,1-.92-2.06c0-.05.05-.11.07-.17C177.08,295.83,177.21,295.06,178.24,295.12Z"/>
                </g>
                <g>
                  <path class="cls-45" d="M178.64,297.91a1.75,1.75,0,0,0-1.9-1.56,2,2,0,1,0,1.9,1.56Z"/>
                  <path class="cls-46" d="M176.57,297.63c1.63-1,2.21,2.72,1.84-.35a1.9,1.9,0,0,1,.23.63,1.79,1.79,0,0,1-1.09,2.22,1.77,1.77,0,0,1-1.91-1.57,1.66,1.66,0,0,1,0-.22C176,299,175.66,298.17,176.57,297.63Z"/>
                </g>
                <g>
                  <path class="cls-45" d="M184.65,293.31a1.55,1.55,0,1,0-2,1A1.6,1.6,0,0,0,184.65,293.31Z"/>
                  <path class="cls-46" d="M183,292.06c1.87.12.65,3.06,1.77.68a1.93,1.93,0,0,1-.09.57,1.59,1.59,0,0,1-2,1,1.61,1.61,0,0,1-.93-2.06l.09-.17C181.82,292.76,181.94,292,183,292.06Z"/>
                </g>
                <g>
                  <path class="cls-45" d="M182.72,294.63a1.6,1.6,0,0,0-.91-2.05,1.57,1.57,0,0,0-2,1,1.63,1.63,0,0,0,.91,2.07A1.58,1.58,0,0,0,182.72,294.63Z"/>
                  <path class="cls-46" d="M181,293.39c1.86.12.66,3.06,1.77.69a1.51,1.51,0,0,1-.09.55,1.58,1.58,0,0,1-2,1.05,1.63,1.63,0,0,1-.91-2.07.91.91,0,0,1,.09-.17C179.9,294.11,180,293.34,181,293.39Z"/>
                </g>
                <g>
                  <path class="cls-45" d="M182.27,297a1.54,1.54,0,1,0-2.9-1,1.63,1.63,0,0,0,.92,2.07A1.59,1.59,0,0,0,182.27,297Z"/>
                  <path class="cls-46" d="M180.61,295.81c1.86.09.65,3,1.76.66a1.62,1.62,0,0,1-.1.56,1.59,1.59,0,0,1-2,1,1.63,1.63,0,0,1-.92-2.07l.08-.16C179.45,296.49,179.58,295.73,180.61,295.81Z"/>
                </g>
                <g>
                  <path class="cls-45" d="M181.16,298.5a1.57,1.57,0,1,0-3.08.53,1.63,1.63,0,0,0,1.83,1.42A1.65,1.65,0,0,0,181.16,298.5Z"/>
                  <path class="cls-46" d="M179.06,298.22c1.7-.87,2.08,2.46,1.88-.29a1.62,1.62,0,0,1,.22.57,1.65,1.65,0,0,1-1.25,1.95,1.63,1.63,0,0,1-1.83-1.42,1.21,1.21,0,0,1,0-.18C178.4,299.46,178.13,298.69,179.06,298.22Z"/>
                </g>
                <g>
                  <path class="cls-45" d="M179.75,299.74a1.57,1.57,0,1,0-3.07.54,1.57,1.57,0,1,0,3.07-.54Z"/>
                  <path class="cls-46" d="M177.67,299.46c1.69-.86,2.07,2.46,1.87-.28a2.17,2.17,0,0,1,.21.56,1.57,1.57,0,1,1-3.07.54c0-.06,0-.13,0-.19C177,300.7,176.74,299.94,177.67,299.46Z"/>
                </g>
                <g>
                  <path class="cls-45" d="M187,294.31a1.64,1.64,0,0,0-.91-2.08,1.59,1.59,0,0,0-2,1,1.54,1.54,0,1,0,2.9,1Z"/>
                  <path class="cls-46" d="M185.29,293.07c1.87.11.63,3,1.76.66a2,2,0,0,1-.09.58,1.54,1.54,0,1,1-2.9-1,.64.64,0,0,1,.06-.18C184.12,293.77,184.26,293,185.29,293.07Z"/>
                </g>
                <g>
                  <path class="cls-45" d="M188.88,296.08A1.61,1.61,0,0,0,188,294a1.56,1.56,0,0,0-2,1,1.59,1.59,0,0,0,.89,2.06A1.56,1.56,0,0,0,188.88,296.08Z"/>
                  <path class="cls-46" d="M187.22,294.84c1.86.12.63,3.05,1.75.68a1.77,1.77,0,0,1-.09.56,1.56,1.56,0,0,1-2,1,1.59,1.59,0,0,1-.89-2.06,1,1,0,0,1,.06-.16C186.05,295.54,186.19,294.79,187.22,294.84Z"/>
                </g>
                <g>
                  <path class="cls-45" d="M189.76,298.24a1.55,1.55,0,1,0-2.91-1,1.61,1.61,0,0,0,.92,2.07A1.58,1.58,0,0,0,189.76,298.24Z"/>
                  <path class="cls-46" d="M188.08,297c1.88.13.66,3.06,1.78.68a1.5,1.5,0,0,1-.1.56,1.58,1.58,0,0,1-2,1,1.61,1.61,0,0,1-.92-2.07s.06-.1.08-.16C186.93,297.71,187.07,297,188.08,297Z"/>
                </g>
                <g>
                  <path class="cls-45" d="M187,297.42a1.62,1.62,0,0,0-.92-2.06,1.58,1.58,0,0,0-2,1,1.61,1.61,0,0,0,.92,2.07A1.58,1.58,0,0,0,187,297.42Z"/>
                  <path class="cls-46" d="M185.35,296.18c1.87.12.64,3,1.75.67a1.91,1.91,0,0,1-.08.57,1.58,1.58,0,0,1-2,1,1.61,1.61,0,0,1-.92-2.07,1.19,1.19,0,0,1,.08-.16C184.18,296.88,184.31,296.13,185.35,296.18Z"/>
                </g>
                <g>
                  <path class="cls-45" d="M185.08,295.47a1.61,1.61,0,0,0-.91-2.07,1.59,1.59,0,0,0-2,1,1.61,1.61,0,0,0,.91,2.08A1.58,1.58,0,0,0,185.08,295.47Z"/>
                  <path class="cls-46" d="M183.41,294.24c1.88.1.66,3,1.77.66a1.66,1.66,0,0,1-2.09,1.61,1.61,1.61,0,0,1-.91-2.08,1.26,1.26,0,0,0,.07-.16C182.25,294.94,182.39,294.16,183.41,294.24Z"/>
                </g>
                <g>
                  <path class="cls-45" d="M186.24,299.75a1.62,1.62,0,0,0-.92-2.07,1.64,1.64,0,0,0-1.07,3.09A1.57,1.57,0,0,0,186.24,299.75Z"/>
                  <path class="cls-46" d="M184.56,298.52c1.88.11.65,3,1.77.67a1.87,1.87,0,0,1-.09.56,1.54,1.54,0,1,1-2.9-1,.77.77,0,0,1,.07-.16C183.41,299.21,183.53,298.45,184.56,298.52Z"/>
                </g>
                <g>
                  <path class="cls-45" d="M184.27,297.81a1.62,1.62,0,0,0-.92-2.06,1.56,1.56,0,0,0-2,1,1.55,1.55,0,1,0,2.91,1Z"/>
                  <path class="cls-46" d="M182.59,296.57c1.87.1.65,3.05,1.76.68a1.94,1.94,0,0,1-.08.56,1.55,1.55,0,1,1-2.91-1,.38.38,0,0,1,.08-.17C181.42,297.27,181.56,296.51,182.59,296.57Z"/>
                </g>
                <g>
                  <path class="cls-45" d="M183.42,299.88a1.59,1.59,0,0,0-.91-2.06,1.57,1.57,0,0,0-2,1,1.6,1.6,0,0,0,.9,2A1.58,1.58,0,0,0,183.42,299.88Z"/>
                  <path class="cls-46" d="M181.75,298.63c1.87.12.64,3.05,1.76.68a1.88,1.88,0,0,1-.09.57,1.58,1.58,0,0,1-2,1,1.6,1.6,0,0,1-.9-2,1.19,1.19,0,0,1,.08-.16C180.6,299.34,180.72,298.58,181.75,298.63Z"/>
                </g>
                <g>
                  <path class="cls-45" d="M183.66,301.51a1.61,1.61,0,0,0-.91-2.08,1.59,1.59,0,0,0-2,1,1.63,1.63,0,0,0,.92,2.07A1.58,1.58,0,0,0,183.66,301.51Z"/>
                  <path class="cls-46" d="M182,300.27c1.87.09.65,3,1.77.66a1.53,1.53,0,0,1-.11.58,1.58,1.58,0,0,1-2,1,1.63,1.63,0,0,1-.92-2.07l.08-.16C180.84,301,181,300.19,182,300.27Z"/>
                </g>
                <g>
                  <path class="cls-36" d="M176.75,300.2s.25-2.33-3.46-2.51-8.83,1.19-13.71,4.94-7.25,9.73-3.3,11.74,5.71-.32,10.17-6,9.15-8.59,9.82-8.42Z"/>
                  <g class="cls-34">
                    <path class="cls-35" d="M167.67,305.73c1.66-2.88,4.63-4.88,3.25-5.39-.66-.23-1.91.26-2.84.74,1.51-.92,2.81-1.8,1.25-2.56a2.84,2.84,0,0,0-1-.25,17.58,17.58,0,0,1,4.93-.58c3.71.18,3.46,2.51,3.46,2.51l-.48-.24c-.67-.17-5.38,2.74-9.82,8.42-2.65,3.36-4.36,5.56-6.13,6.36C163.11,312.77,166.47,307.85,167.67,305.73Z"/>
                  </g>
                  <path class="cls-47" d="M167.24,305.07s-4.85,10.66-10.4,9.28c-2.59-1-4-7.94,7.82-13.9.21-.11-2.1,1.56-2.16,2s1.05-1.38,1.82-1-1,1.94-1,1.94,1.2-1.33,1-.55-1.55,1.55-.22.78,1.64-.9.93.22-.11.77,1.16-.51-.22,1.34-.62,2.11.51.23,1-.66,0,.43-.38,1.27S166.8,305.57,167.24,305.07Z"/>
                  <path class="cls-30" d="M176.31,298.92c-.33,0-6.1-1.92-13.94,7.07.37-.73,7.64-8.31,14.06-6.95A.18.18,0,0,1,176.31,298.92Z"/>
                </g>
                <g>
                  <path class="cls-36" d="M203.74,309.54s6,8.84.75,11.08-9.57-5.84-11.23-8.57-7.1-10.51-7.91-10.93c-.61-.3-.07-1.78.15-2.1,1.17-1.69,3.41-.77,5-.19a25.34,25.34,0,0,1,6.25,3.37,32.57,32.57,0,0,1,3.23,2.66A20.38,20.38,0,0,1,203.74,309.54Z"/>
                  <path class="cls-30" d="M197.93,310.12s-6.25-9.84-12-11.16c0,0-.08,0-.09.06a.1.1,0,0,0,.06.1c5.68,1.31,11.95,11,12,11Z"/>
                  <g class="cls-37">
                    <path class="cls-32" d="M185.5,299c.76-1.12,2-1.09,3.2-.79a16.83,16.83,0,0,1,1.78.6,22.15,22.15,0,0,1,3.57,1.65A8.71,8.71,0,0,0,192,300c-1.6-.12-1.21.12-.33,1.11s.38.83-.5.4.93.83,2,2.27-2.09-1.94-3.91-2.5-1.16-.17-.33,1.34,2,4.09,3.14,5.22c.73.73,3.07,7,6.38,11.26-2.39-2.14-4.23-5.49-5.17-7.06-1.66-2.76-7.1-10.51-7.91-10.93C184.74,300.82,185.28,299.34,185.5,299Z"/>
                  </g>
                  <path class="cls-38" d="M202.67,309.57s4.34,4.94,3.51,8.38-5.49,5.45-12-6.67c-2-3.66.71-2,1.16-1.38s1.15,1,.15-.45.28-.51,1.05.12.49.11.29-.39.15-.4,1.25.56,2,3,1.11.95-2.32-3.84-1.33-3.07,1.05.95.38-.21-.87-1.51.73-.07,1.93,1.84,1.43.84S200.79,307.11,202.67,309.57Z"/>
                </g>
                <g>
                  <path class="cls-36" d="M178.57,300.7s-.42-1.75-2.3-.74a26.92,26.92,0,0,0-11.89,15.49c-2.81,9.59,1.31,11.93,4,11.93s5.69-.34,5.69-9S178.57,301.54,178.57,300.7Z"/>
                  <path class="cls-30" d="M170.53,313.76c.05,0,.09,0,.09-.07,1.36-9.84,7-13.9,7.06-13.95a.07.07,0,0,0,0-.1.07.07,0,0,0-.12,0c-.05,0-5.76,4.12-7.13,14a.07.07,0,0,0,.07.1Z"/>
                  <g class="cls-48">
                    <path class="cls-32" d="M173.68,310.62c.71-3,2.52-7.67,1.2-7.33a2.11,2.11,0,0,0-1.28,1.1c.13-.21-.15-.71-.31-.84a2.5,2.5,0,0,0-1.91.2,18.36,18.36,0,0,1,4.89-3.79c1.88-1,2.3.74,2.3.74,0,.84-4.54,9-4.54,17.68,0,8.26-2.77,8.95-5.33,9C172.53,324.4,173.13,312.91,173.68,310.62Z"/>
                  </g>
                  <path class="cls-49" d="M168.73,308.35a20.85,20.85,0,0,0-4.35,10.55c-.45,5.89,3.18,9.45,5.56,5.45s2.47-10.23,3.08-13.73-.89.66-1,1.44.05-2.1-.28-1.44-.88,3.34-.83,2-.16-2.33-.5-1.35-.48-.32,0-2.22-1.27.68-1.32,1.34a5.39,5.39,0,0,1,.27-1.55c.28-.78-1.16.56-1.16,1.16S168.45,308.9,168.73,308.35Z"/>
                </g>
                <g>
                  <path class="cls-36" d="M182.61,303s-1.07-3.32-3-3.41-3,2.34-4.13,6.58-2.71,10.42-2.71,13.51,1.81,9.25,5.69,9.25,4.71-6.09,4.62-10.33-1-10.59-.91-12.1S182.77,303.71,182.61,303Z"/>
                  <path class="cls-30" d="M178.69,308.38s1-8.77,1-8.83,0-.08-.07-.09-.1,0-.11.06-.92,8.86-.86,8.86Z"/>
                  <g class="cls-48">
                    <path class="cls-32" d="M179.64,299.54c1.9.09,3,3.41,3,3.41.16.76-.33,2-.41,3.5a29.22,29.22,0,0,0,.2,3.06c-.25-1.34-.56-3-.91-4.66-.88-4.28-2.31-1.61-2.37,0s.06-.28-.65-1.95c-.64-1.47-2.28,2.22-3.7,6.16l.74-3C176.59,301.88,177.74,299.46,179.64,299.54Z"/>
                  </g>
                  <path class="cls-49" d="M181.87,316.25s1.81,10.09-2.21,11.21-6.26-3.78-5.54-10.45,3.3-8.07,3.84-5.89.56-.78.61.16.16.24.49-1,.84.54,1,2.72.43,0,.5-1.52S181.26,313.45,181.87,316.25Z"/>
                </g>
                <g>
                  <path class="cls-36" d="M185.32,300.3c-.83-.74-1.82-1.18-2.61-.14-1.14,1.46-.78,4.62-.51,6.29.5,3.09,3.55,21.84,11.56,20.67,0,0,4.28-1.83,2-10.08-1.69-6.06-5-10.58-9-15.24A11.61,11.61,0,0,0,185.32,300.3Z"/>
                  <g class="cls-50">
                    <path class="cls-32" d="M182.71,300.16c.79-1,1.78-.6,2.61.14a11.61,11.61,0,0,1,1.4,1.5c1.46,1.7,2.83,3.39,4.07,5.15a15.86,15.86,0,0,0-3.72-3.41c-1.8-.84,1.08,5.49,1.65,8.33s-2.31-6.42-3.88-7-1.41,7.45.87,14.91a62.9,62.9,0,0,1-3.51-13.34C181.93,304.78,181.57,301.62,182.71,300.16Z"/>
                  </g>
                  <path class="cls-51" d="M193.09,312.57s5.61,10,1,13.61c-3.14,1.78-8.2-4.32-9.3-13.17-.61-4.16.15-2.71,1.05-1.23s-.18-2-.18-2.43.5.44,1.56,2a27.17,27.17,0,0,1,2.29,4.5c.28.78-1.53-5.11-1.53-6.28s2.24,3.23,3,4.12-.66-2.06-.83-3.05.61.05.88.55.23.21.06-.34.38-.28,1.11.66S192.55,310.85,193.09,312.57Z"/>
                  <path class="cls-30" d="M189.29,314.28h0c.05,0-2.7-11.49-6.06-14.63a.11.11,0,0,0-.12,0,.09.09,0,0,0,0,.12c3.32,3.11,6.14,14.51,6.16,14.51Z"/>
                </g>
                <path class="cls-52" d="M188.85,298.46c.2.2-.7-.69-1.25.11s.76,1-.06,1-1.61-.64-1.3.18.2,1.1-.46.86-.88-1.33.33-2.15A2.07,2.07,0,0,1,188.85,298.46Z"/>
                <path class="cls-52" d="M184.9,300s-1.1-.17-1.22.28-.12-.56-.59,0-.86.33-.87.75S182.75,298.57,184.9,300Z"/>
                <path class="cls-52" d="M176,299.79a1.65,1.65,0,0,0-1.37-1.66,2.05,2.05,0,0,1,2,1.55c.22.05,1.21,0,1.21.66-.16.18-.77-.66-1.53-.17S176.36,299.79,176,299.79Z"/>
              </g>
              <g>
                <g>
                  <path class="cls-53" d="M244.13,271.9s-8.42-6.85-10.63-7.84-4.82-4.13-1.63-7.11,11.44-1.39,13.74,7.69S245.28,272.4,244.13,271.9Z"/>
                  <path class="cls-30" d="M245.5,271.37s-.07,0-.08-.05c-1.56-5.91-7.37-11.33-7.34-11.37s5.93,5.37,7.5,11.32a.08.08,0,0,1-.06.1Z"/>
                  <g class="cls-31">
                    <path class="cls-54" d="M245.61,264.64a14.14,14.14,0,0,0-2-4.52c.65,1.65,1.38,3.91,1.18,5.36-.32,2.55-1.25.17-1.57,1.22s-3.27-.27-5.13-1.59a43,43,0,0,0-7.24-3.44,5.85,5.85,0,0,0,2.63,2.39c2.21,1,10.63,7.84,10.63,7.84C245.28,272.4,247.9,273.72,245.61,264.64Z"/>
                  </g>
                  <path class="cls-55" d="M231.11,259.78c.47,1.56,2.64,2.61,3.94,3.29,3.93,2,4.26,2.09,3.17,1.11s2.46,2,2.51,1.25-2.67-2.91-2.67-2.91,2.34,2.09,2.23,1.15a4.36,4.36,0,0,0-1-2c-.17-.17,1.08,1.53,1.36,1.27s-1.1-2.21-1.1-2.21,2.3,3,2.46,2.42-1.14-3.19-.44-2.09,1.48,2.81,1.37,1.55.38-.72.65-.5.77-1.49-3.22-4.62a7.17,7.17,0,0,0-5.21-1.59c-1.36.16-3.22.88-3.86,2.22A2.37,2.37,0,0,0,231.11,259.78Z"/>
                </g>
                <g>
                  <path class="cls-53" d="M247,271.74s-6-18.91,6.22-17.92c3.59.82,4.67,6.52.33,14.28C249.86,273.15,247,273.8,247,271.74Z"/>
                  <path class="cls-30" d="M249.24,272.73a.11.11,0,0,1-.11-.07c-.75-5.53,2.4-12.65,2.45-12.62s-3,7.22-2.25,12.59c0,0,0,.09-.09.1Z"/>
                  <g class="cls-31">
                    <path class="cls-54" d="M250.81,265.28c-2.5-2.11-1.52,3.9-4,.37-1.62-2.32-.83-6.36-.12-8.82-2.8,5.12.28,14.91.28,14.91,0,2.06,2.87,1.41,6.55-3.64a21,21,0,0,0,2.77-7.94C255.21,263.61,252.56,266.72,250.81,265.28Z"/>
                  </g>
                  <path class="cls-55" d="M246.12,261.64s.11-6.94,5.13-7.44c2.18-.1,6.66,1.44,3.21,8.32-1,2.31-1.09.1-1-.44s-.33.71-.76,1.15-.33.28-.22-.77.11-.71-.65.45-.88,2-.66.38.17-1.32-.32-.34-.55,3.15-.49,1,.1-3.58-.18-2.48-.75,3-.75,1.44,0-2.54-.44-1.44-1.14,3.09-1.14,1.7,0-2.24-.22-1.42-1,3.47-.87,1.26.27-2.2-.05-1.32S246.07,262.58,246.12,261.64Z"/>
                </g>
                <g>
                  <path class="cls-53" d="M250.18,271.65s9.41-15.27,20.61-10c4.74,3,.65,9.49-7.53,9.9a49.71,49.71,0,0,0-11.43,2.48S249.69,271.49,250.18,271.65Z"/>
                  <path class="cls-30" d="M250.89,272.82a26.62,26.62,0,0,1,14.33-7.22c-.35.11-7.19.83-14.3,7.46A.48.48,0,0,1,250.89,272.82Z"/>
                  <path class="cls-55" d="M257.4,264.61a12.24,12.24,0,0,1,12.82-2.69c2.78,1.42,3.43,7.26-6.11,8-2.77.29-1.25-.11.71-.49s1-.6-.44-.44-.71,0,0-.22,2.29.16,3.49-.77-1.85-.06-2.78.06-.82-.06.38-.9.76-.37-1,0-1.52,0-.27-.66.49-.55-1.42,0-5.23,1.65-3.11.54,3.5-1.54,1.65-1.09-1.32-.23.32-.89,1.09-.21-.55,0-1-.6.17-1.09.28-.39-1.86.44-1.85.22-.05-.67S258.93,264.11,257.4,264.61Z"/>
                </g>
                <g>
                  <path class="cls-53" d="M241.52,272.23s-7.68-2.89-12.68-1.65S219,270,220,265.71s10.38-4.78,16.19-1.24,7.76,5.54,7.19,6.94A1.37,1.37,0,0,1,241.52,272.23Z"/>
                  <path class="cls-30" d="M243,271.93h-.06c-5.22-6.8-14.53-7.13-14.53-7.17s9.4.22,14.65,7.05a.09.09,0,0,1,0,.11s0,0,0,0Z"/>
                  <g class="cls-31">
                    <path class="cls-54" d="M236.21,264.47a15.53,15.53,0,0,0-1.72-.89,19.16,19.16,0,0,1,4.92,4.83c1.32,2-2.13.35-11.94.89-4.09.24-6.37.65-7.51-1.74.6,2.95,4.68,4.06,8.88,3,5-1.24,12.68,1.65,12.68,1.65a1.37,1.37,0,0,0,1.88-.82C244,270,242,268,236.21,264.47Z"/>
                  </g>
                  <path class="cls-55" d="M221.64,264.11a6.49,6.49,0,0,1,1.91-1,12.68,12.68,0,0,1,4.5-.46,13.35,13.35,0,0,1,3.68.52c3.54,1.27.72.61-.65.61s1.08.23,1.85.72-1.69-.11-2.83-.11,1.09.17,2,.55-.28.11-1.74.05,3.27.83,4.41,1.44-3.17-.55-4.14-.38,1.25.33,1,.65-1.58.23-2.78.34,3.49.16,3.44.54-.72.39-2.73.45-3.92.6-6.27.6c-1.32,0-2.9-.48-2.95-2.06A3,3,0,0,1,221.64,264.11Z"/>
                </g>
                <g>
                  <path class="cls-53" d="M220.67,281.15s-4.9-.63-4.39-3.91,3.38-6.69,12.64-7.58,12.3,1.67,11.86,3.06a3.43,3.43,0,0,1-2.6,2.24C237.44,275,221.93,279.94,220.67,281.15Z"/>
                  <path class="cls-30" d="M224.07,272.66a4.15,4.15,0,0,1,.82-.32,20.66,20.66,0,0,1,15.82-.11.08.08,0,0,1,0,.11s-.06.06-.09,0C232.28,268.9,224.07,272.71,224.07,272.66Z"/>
                  <path class="cls-56" d="M235,269.59a6.45,6.45,0,0,1,2.05.8c.92.67-.46.65-1.71.59a4.08,4.08,0,0,1,1.92.51c.55.6.33.55-1.58.72s1.2.33,1.42.5a14.73,14.73,0,0,0-6.32,1c-3.5,1.49-4.53,2.09-7.15,3.31-1.75.81-3.48,2.56-5.33,3.45a8.62,8.62,0,0,0,2.34.7c1.26-1.21,16.77-6.13,17.51-6.19a3.43,3.43,0,0,0,2.6-2.24C241.1,271.69,239.55,270,235,269.59Z"/>
                  <path class="cls-55" d="M218.16,274a14.22,14.22,0,0,1,8-3.48c3.81-.6-2.72.88-3.6,1.66s2-.78,3-.78-1.25.61-2,1.27,2.13-.54,1.8-.21-2.56,1.65-1,1.09,4.2-1.59,2.72-.72-1.41.88.32.61.44.45-.43.93,1.85-1,2.29-.66-2.44.92-6.43,3.48C217.23,280.74,214.4,278.54,218.16,274Z"/>
                </g>
                <g>
                  <path class="cls-53" d="M226.77,286.35a29,29,0,0,0-5,2.81c-1.64,1.32-5.16,1.49-5.16-2.72s6.71-9.91,13.74-12.06,8.83-.58,8.83.26-.16,1.81-1.8,3.05S226.77,286.35,226.77,286.35Z"/>
                  <path class="cls-30" d="M224,281.68S231.56,274.3,239,275c.05,0,.27.05.22.05-.24,0,0,.17,0,.17C231.8,274.54,224.06,281.7,224,281.68Z"/>
                  <g class="cls-37">
                    <path class="cls-54" d="M230.76,274.28a9.26,9.26,0,0,1,1.57,0c3.11.28,3.59-.38,1.2,1s-2.94,1.1-.49.77,2.73-1.1.71.89-3,2.91-4.58,4.56c-1,1.05-3.13,4-4.93,6.1,1.32-.71,2.53-1.26,2.53-1.26s9-7.42,10.63-8.66,1.8-2.23,1.8-3.05S237.46,272.3,230.76,274.28Z"/>
                  </g>
                  <path class="cls-55" d="M221.21,280.47s-4.08,1.65-4.36,5.78,4.19,4.77,9.31-2c4.85-5.38-3,.74-3.69.91s3-2.59,1.74-1.87-1.69,1.09-1,.27.86-1.27,0-.65-1.85,1.2-.76-.28.16-1.11-1-.23-.43-.56,1.09-1.87-1.19.28-2.18,1.05S220.39,280.85,221.21,280.47Z"/>
                </g>
                <g>
                  <path class="cls-53" d="M251.3,274s10.63-4.3,20.93-.92c6.38,2.4,5.81,5.13,5.4,7.27s-3.12,5-14.06-.08a80.47,80.47,0,0,0-13.25-4.3Z"/>
                  <path class="cls-30" d="M250.35,274.74s10.76-3.37,18.23,1.54c-.74-.43-6.32-4.38-18.4-1.38C250.11,274.85,250.35,274.74,250.35,274.74Z"/>
                  <g class="cls-39">
                    <path class="cls-54" d="M257.35,273.86c1.92-.39,7.42.54,7.42.54-4.64-1.54-8.61-.66-6.11-1.74,1.14-.51,3.84-.75,6.43-.86A36.32,36.32,0,0,0,251.3,274l-1,2a80.47,80.47,0,0,1,13.25,4.3c5.83,2.71,9.31,3.17,11.37,2.68-2.64-.84-5.29-2.8-7.39-4.06C263.24,276.28,255.44,274.24,257.35,273.86Z"/>
                  </g>
                  <path class="cls-55" d="M265.47,272.43s9.81.6,11.24,4.52-1.21,6.49-7.31,2.58-3-3.25-1.36-2.7-1.42-1.11-2.35-1.32,1.74.11,2.24.34-3.38-1.39-3.76-1.39,2,.34,3.59.88.93-.54-.28-1,.66-.62,1.48-.33S267,272.49,265.47,272.43Z"/>
                </g>
                <path class="cls-57" d="M241.37,268.07s1.43,1.4,1.95.45.21-1.16.87-.75.85.42,1-.33.44-1,.73-.29.82,1.33,1.18.67.65.62,1.23.49,1.06-1.65,1.06-1.11-.09,1.82.9,1.15,1.27-.58,1.18.17.79,0,1.32-.33-.53.5-.62,1.44,1.3-.53,1,.22,0,1.06.82.7-.69.78.08.81.45.09.13.42.65.71,1.71.78-1,.17-.94.42,1.27.58,1.59.58-1.67.21-2.4.49-1.43.29-.41.82,0,.7-.3,1-6.12.29-6.12.29l-8.22-2a3.18,3.18,0,0,0-2.74-1c-1.76.2.61-.21,1.55,0s1.06-.29.41-.41-.49-.5.5-.38,1.91.2.65-.28-.61-.5,0-.43.65-.28.41-.36-.82-.87-.16-.66,1.55.78.64.2-.32-.74.66-.49S241.12,268.69,241.37,268.07Z"/>
                <g>
                  <path class="cls-41" d="M225,375.54a1.32,1.32,0,0,1-1.29-1.09,50.15,50.15,0,0,1-.24-15.13c1-7.89,3.51-16.35,7.65-25.84,1.4-3.2,3-6.38,4.51-9.46A141.63,141.63,0,0,0,242,310c3.11-8.54,4-17.88,2.25-25a1.31,1.31,0,0,1,1-1.6,1.3,1.3,0,0,1,1.57,1c1.84,7.58,1,17.5-2.34,26.51a137.86,137.86,0,0,1-6.46,14.31c-1.51,3-3.07,6.2-4.44,9.34-4,9.25-6.48,17.46-7.45,25.1a47.54,47.54,0,0,0,.22,14.34,1.32,1.32,0,0,1-1,1.53l-.24,0Z"/>
                  <g class="cls-42">
                    <path class="cls-43" d="M246.73,284.39a1.3,1.3,0,0,0-1.57-1,1.31,1.31,0,0,0-1,1.6c1.71,7.09.86,16.43-2.25,25a141.63,141.63,0,0,1-6.35,14c-1.52,3.08-3.11,6.26-4.51,9.46-4.14,9.49-6.64,17.95-7.65,25.84a50.15,50.15,0,0,0,.24,15.13,1.32,1.32,0,0,0,1.29,1.09l.24,0a1.38,1.38,0,0,0,.34-.12c-6.21-8.15,3.26-35.78,7.06-42.69,3.92-7.16,9.81-20.26,11.56-24.44.56-1.38,1.17-1.93,1.71-2.08C247.9,298.54,248.24,290.67,246.73,284.39Z"/>
                  </g>
                </g>
                <g class="cls-44">
                  <path class="cls-56" d="M256.8,271c-3-.13.71-2.82,3.56-4.16-3.32,1.29-6.74,3.29-6.16,1.3.42-1.49,2-3.24,3.27-4.4a32.22,32.22,0,0,0-7.29,7.91c-.49-.16,1.65,2.4,1.65,2.4a49.71,49.71,0,0,1,11.43-2.48,12.9,12.9,0,0,0,6.43-1.95,17.83,17.83,0,0,1-4.44.67C261.71,270.51,260.79,271.16,256.8,271Z"/>
                </g>
                <g>
                  <path class="cls-45" d="M250.45,272.23a1.56,1.56,0,0,1,2-.87,1.6,1.6,0,0,1,.76,2.11,1.53,1.53,0,1,1-2.8-1.24Z"/>
                  <path class="cls-46" d="M252.49,272.48c-1.43-1.21-2.51,1.76-1.73-.73a1.64,1.64,0,0,0-.31.48,1.53,1.53,0,1,0,2.8,1.24.85.85,0,0,1,.06-.17C252.86,273.78,253.28,273.14,252.49,272.48Z"/>
                </g>
                <g>
                  <path class="cls-45" d="M246.73,270.81a1.52,1.52,0,1,1,1.56,1.59A1.57,1.57,0,0,1,246.73,270.81Z"/>
                  <path class="cls-46" d="M248.68,270.17c-1.8-.49-1.54,2.66-1.87.08a1.49,1.49,0,0,0-.08.56,1.52,1.52,0,1,0,3-.07.65.65,0,0,0,0-.19C249.55,271.18,249.66,270.43,248.68,270.17Z"/>
                </g>
                <g>
                  <path class="cls-45" d="M248.24,271.75a1.59,1.59,0,0,1,1.5-1.66,1.63,1.63,0,0,1,.07,3.25A1.6,1.6,0,0,1,248.24,271.75Z"/>
                  <path class="cls-46" d="M250.2,271.1c-1.79-.47-1.53,2.67-1.87.09a2,2,0,0,0-.09.56,1.6,1.6,0,0,0,1.57,1.59,1.58,1.58,0,0,0,1.49-1.67c0-.05,0-.12,0-.18C251.08,272.12,251.19,271.36,250.2,271.1Z"/>
                </g>
                <g>
                  <path class="cls-45" d="M248.5,274.38a1.57,1.57,0,0,1,.9-2,1.55,1.55,0,0,1,2,1,1.58,1.58,0,0,1-.91,2.05A1.56,1.56,0,0,1,248.5,274.38Z"/>
                  <path class="cls-46" d="M250.16,273.15c-1.85.1-.65,3-1.75.66a1.65,1.65,0,0,0,.09.57,1.56,1.56,0,0,0,2,1,1.58,1.58,0,0,0,.91-2.05.71.71,0,0,0-.08-.15C251.3,273.84,251.17,273.09,250.16,273.15Z"/>
                </g>
                <g>
                  <path class="cls-45" d="M249.75,275.91a1.57,1.57,0,1,1,1.09,2.18A1.73,1.73,0,0,1,249.75,275.91Z"/>
                  <path class="cls-46" d="M251.83,275.63c-1.63-1-2.21,2.7-1.84-.34a2.11,2.11,0,0,0-.24.62,1.57,1.57,0,1,0,3,.64c0-.06,0-.14,0-.21C252.4,277,252.71,276.17,251.83,275.63Z"/>
                </g>
                <g>
                  <path class="cls-45" d="M243.81,271.34a1.58,1.58,0,0,1,.91-2,1.56,1.56,0,0,1,2,1,1.58,1.58,0,0,1-.9,2A1.57,1.57,0,0,1,243.81,271.34Z"/>
                  <path class="cls-46" d="M245.47,270.12c-1.86.1-.64,3-1.74.66a1.77,1.77,0,0,0,.08.56,1.57,1.57,0,0,0,2,1,1.58,1.58,0,0,0,.9-2,1.19,1.19,0,0,0-.08-.16C246.62,270.81,246.49,270.06,245.47,270.12Z"/>
                </g>
                <g>
                  <path class="cls-45" d="M245.72,272.66a1.53,1.53,0,1,1,2,1A1.57,1.57,0,0,1,245.72,272.66Z"/>
                  <path class="cls-46" d="M247.38,271.43c-1.85.12-.65,3-1.75.66a1.62,1.62,0,0,0,2.06,1.59,1.58,1.58,0,0,0,.91-2,1.26,1.26,0,0,0-.07-.16C248.53,272.13,248.39,271.37,247.38,271.43Z"/>
                </g>
                <g>
                  <path class="cls-45" d="M246.15,275a1.58,1.58,0,0,1,.92-2,1.56,1.56,0,0,1,2,1,1.58,1.58,0,0,1-.92,2A1.55,1.55,0,0,1,246.15,275Z"/>
                  <path class="cls-46" d="M247.8,273.8c-1.84.12-.63,3-1.74.68a1.81,1.81,0,0,0,.09.55,1.55,1.55,0,0,0,2,1,1.58,1.58,0,0,0,.92-2l-.08-.17C249,274.5,248.83,273.74,247.8,273.8Z"/>
                </g>
                <g>
                  <path class="cls-45" d="M247.27,276.49a1.55,1.55,0,1,1,3,.53,1.6,1.6,0,0,1-1.8,1.41A1.65,1.65,0,0,1,247.27,276.49Z"/>
                  <path class="cls-46" d="M249.34,276.21c-1.68-.85-2.06,2.44-1.86-.3a2.23,2.23,0,0,0-.21.58,1.65,1.65,0,0,0,1.23,1.94,1.6,1.6,0,0,0,1.8-1.41,1.48,1.48,0,0,0,0-.19C250,277.44,250.26,276.67,249.34,276.21Z"/>
                </g>
                <g>
                  <path class="cls-45" d="M248.66,277.72a1.55,1.55,0,1,1,1.23,1.95A1.65,1.65,0,0,1,248.66,277.72Z"/>
                  <path class="cls-46" d="M250.73,277.44c-1.68-.85-2,2.45-1.87-.28a2,2,0,0,0-.2.56,1.65,1.65,0,0,0,1.23,1.95,1.62,1.62,0,0,0,1.81-1.41c0-.07,0-.12,0-.2C251.39,278.68,251.65,277.91,250.73,277.44Z"/>
                </g>
                <g>
                  <path class="cls-45" d="M241.52,272.34a1.59,1.59,0,0,1,.91-2,1.62,1.62,0,1,1-.91,2Z"/>
                  <path class="cls-46" d="M243.17,271.1c-1.85.11-.63,3-1.73.67a1.64,1.64,0,0,0,.08.57,1.53,1.53,0,1,0,2.88-1,1.22,1.22,0,0,0-.07-.17C244.33,271.8,244.2,271,243.17,271.1Z"/>
                </g>
                <g>
                  <path class="cls-45" d="M239.61,274.1a1.59,1.59,0,0,1,.92-2,1.56,1.56,0,0,1,2,1,1.58,1.58,0,0,1-.91,2A1.57,1.57,0,0,1,239.61,274.1Z"/>
                  <path class="cls-46" d="M241.28,272.86c-1.87.12-.65,3-1.76.67a1.88,1.88,0,0,0,.09.57,1.57,1.57,0,0,0,2,1,1.58,1.58,0,0,0,.91-2l-.08-.17C242.42,273.57,242.28,272.81,241.28,272.86Z"/>
                </g>
                <g>
                  <path class="cls-45" d="M238.75,276.24a1.53,1.53,0,1,1,2,1A1.55,1.55,0,0,1,238.75,276.24Z"/>
                  <path class="cls-46" d="M240.4,275c-1.85.11-.64,3-1.75.66a1.58,1.58,0,0,0,.1.56,1.55,1.55,0,0,0,2,1,1.58,1.58,0,0,0,.9-2c0-.06-.05-.11-.07-.16C241.55,275.71,241.41,275,240.4,275Z"/>
                </g>
                <g>
                  <path class="cls-45" d="M241.47,275.42a1.53,1.53,0,1,1,2.88-1,1.61,1.61,0,0,1-.91,2.05A1.56,1.56,0,0,1,241.47,275.42Z"/>
                  <path class="cls-46" d="M243.13,274.19c-1.85.11-.64,3-1.75.67a1.87,1.87,0,0,0,.09.56,1.56,1.56,0,0,0,2,1,1.61,1.61,0,0,0,.91-2.05,1.19,1.19,0,0,0-.08-.16C244.27,274.88,244.14,274.13,243.13,274.19Z"/>
                </g>
                <g>
                  <path class="cls-45" d="M243.38,273.49a1.57,1.57,0,0,1,.9-2,1.55,1.55,0,0,1,2,1,1.58,1.58,0,0,1-.9,2A1.56,1.56,0,0,1,243.38,273.49Z"/>
                  <path class="cls-46" d="M245,272.25c-1.87.12-.65,3-1.76.68a1.55,1.55,0,1,0,3-.46.87.87,0,0,0-.07-.17C246.18,273,246.05,272.2,245,272.25Z"/>
                </g>
                <g>
                  <path class="cls-45" d="M242.24,277.73a1.53,1.53,0,1,1,2,1A1.55,1.55,0,0,1,242.24,277.73Z"/>
                  <path class="cls-46" d="M243.89,276.51c-1.85.1-.64,3-1.75.67a1.6,1.6,0,0,0,.1.55,1.55,1.55,0,0,0,2,1,1.59,1.59,0,0,0,.91-2.05c0-.05-.05-.1-.07-.16C245,277.19,244.9,276.44,243.89,276.51Z"/>
                </g>
                <g>
                  <path class="cls-45" d="M244.2,275.8a1.58,1.58,0,0,1,.9-2,1.55,1.55,0,0,1,2,1,1.58,1.58,0,0,1-.91,2A1.55,1.55,0,0,1,244.2,275.8Z"/>
                  <path class="cls-46" d="M245.85,274.58c-1.85.1-.64,3-1.74.66a1.61,1.61,0,0,0,2,1.58,1.58,1.58,0,0,0,.91-2l-.07-.16C247,275.27,246.87,274.51,245.85,274.58Z"/>
                </g>
                <g>
                  <path class="cls-45" d="M245,277.85a1.53,1.53,0,1,1,2,1A1.55,1.55,0,0,1,245,277.85Z"/>
                  <path class="cls-46" d="M246.68,276.63c-1.85.11-.64,3-1.75.66a1.35,1.35,0,0,0,.1.56,1.55,1.55,0,0,0,2,1,1.58,1.58,0,0,0,.9-2,1.47,1.47,0,0,1-.07-.17C247.83,277.32,247.7,276.56,246.68,276.63Z"/>
                </g>
                <g>
                  <path class="cls-45" d="M244.78,279.45a1.53,1.53,0,1,1,2,1A1.56,1.56,0,0,1,244.78,279.45Z"/>
                  <path class="cls-46" d="M246.44,278.24c-1.86.1-.64,3-1.75.66a1.45,1.45,0,0,0,.09.55,1.56,1.56,0,0,0,2,1,1.6,1.6,0,0,0,.91-2.05l-.08-.16C247.58,278.93,247.45,278.17,246.44,278.24Z"/>
                </g>
                <g>
                  <path class="cls-53" d="M251.64,278.19s-.25-2.32,3.42-2.49,8.75,1.16,13.58,4.88,7.18,9.66,3.26,11.64-5.63-.33-10-6-9.07-8.51-9.73-8.34Z"/>
                  <g class="cls-34">
                    <path class="cls-56" d="M260.62,283.66c-1.64-2.86-4.58-4.84-3.22-5.34.65-.24,1.9.26,2.82.72-1.5-.9-2.79-1.78-1.24-2.53a2.6,2.6,0,0,1,1-.26,17.21,17.21,0,0,0-4.89-.55c-3.67.17-3.42,2.49-3.42,2.49l.48-.26c.66-.17,5.31,2.73,9.73,8.34,2.63,3.35,4.3,5.52,6.06,6.32C265.15,290.63,261.81,285.75,260.62,283.66Z"/>
                  </g>
                  <path class="cls-55" d="M261.06,283s4.8,10.57,10.3,9.19c2.57-1,4-7.87-7.74-13.76-.21-.11,2.07,1.54,2.13,2s-1-1.37-1.8-1,1,1.93,1,1.93-1.19-1.32-1-.55,1.53,1.54.22.77-1.63-.88-.93.22.12.77-1.14-.5.22,1.33.6,2.1-.49.22-1-.67,0,.44.38,1.27S261.49,283.49,261.06,283Z"/>
                  <path class="cls-30" d="M252.06,276.92c.33,0,6.06-1.9,13.82,7-.38-.72-7.57-8.23-13.93-6.88A.17.17,0,0,0,252.06,276.92Z"/>
                </g>
                <g>
                  <path class="cls-53" d="M224.89,287.43s-6,8.76-.73,11,9.48-5.78,11.11-8.5,7-10.41,7.86-10.82c.6-.3.05-1.77-.17-2.09-1.14-1.67-3.39-.75-4.93-.18a24.84,24.84,0,0,0-6.19,3.33,32.14,32.14,0,0,0-3.19,2.64A20.52,20.52,0,0,0,224.89,287.43Z"/>
                  <path class="cls-30" d="M230.65,288s6.19-9.74,11.88-11.05a.07.07,0,0,1,.1.06.07.07,0,0,1-.06.09C237,278.4,230.72,288,230.72,288Z"/>
                  <g class="cls-37">
                    <path class="cls-54" d="M243,277c-.75-1.1-2-1.07-3.17-.77-.63.16-1.23.4-1.76.59a21.8,21.8,0,0,0-3.54,1.64,9.43,9.43,0,0,1,2-.48c1.58-.1,1.2.11.33,1.11s-.38.82.49.39-.93.82-2,2.25,2.07-1.92,3.87-2.47,1.14-.17.31,1.32-2,4.07-3.09,5.18c-.73.73-3,6.92-6.33,11.15,2.37-2.11,4.19-5.43,5.12-7,1.64-2.73,7-10.41,7.86-10.82C243.73,278.79,243.18,277.32,243,277Z"/>
                  </g>
                  <path class="cls-55" d="M226,287.46s-4.31,4.9-3.49,8.31,5.45,5.4,11.94-6.61c2-3.63-.72-2-1.15-1.37s-1.14.93-.17-.44-.27-.5-1,.11-.49.11-.28-.38-.16-.4-1.25.54-2,3-1.08.94,2.28-3.8,1.3-3-1,.94-.38-.22.87-1.48-.7-.05-1.92,1.82-1.43.82S227.81,285.05,226,287.46Z"/>
                </g>
                <g>
                  <path class="cls-53" d="M249.83,278.68s.41-1.73,2.29-.75a26.79,26.79,0,0,1,11.77,15.37c2.78,9.5-1.3,11.8-3.92,11.8s-5.64-.32-5.64-8.91S249.83,279.5,249.83,278.68Z"/>
                  <path class="cls-30" d="M257.79,291.61s-.08,0-.08-.06c-1.34-9.76-6.95-13.79-7-13.82s-.05-.09,0-.11a.08.08,0,0,1,.12,0c.05,0,5.71,4.1,7.07,13.93a.09.09,0,0,1-.08.09Z"/>
                  <g class="cls-48">
                    <path class="cls-54" d="M254.68,288.5c-.71-3-2.51-7.59-1.2-7.26a2,2,0,0,1,1.27,1.09c-.13-.21.15-.7.31-.82a2.44,2.44,0,0,1,1.89.19,17.9,17.9,0,0,0-4.83-3.77c-1.88-1-2.29.75-2.29.75,0,.82,4.5,8.91,4.5,17.51,0,8.18,2.75,8.86,5.27,8.91C255.82,302.15,255.21,290.75,254.68,288.5Z"/>
                  </g>
                  <path class="cls-55" d="M259.59,286.25a20.65,20.65,0,0,1,4.3,10.46c.44,5.83-3.16,9.36-5.5,5.39s-2.45-10.13-3-13.6.87.66,1,1.43-.06-2.09.27-1.43.88,3.31.81,2,.17-2.31.51-1.32.48-.33,0-2.2,1.25.66,1.32,1.32a6.09,6.09,0,0,0-.29-1.53c-.27-.78,1.15.54,1.15,1.15S259.86,286.8,259.59,286.25Z"/>
                </g>
                <g>
                  <path class="cls-53" d="M245.82,280.91s1.07-3.31,3-3.39,3,2.31,4.08,6.52,2.7,10.32,2.7,13.38-1.79,9.17-5.64,9.17-4.66-6-4.57-10.24,1-10.49.89-12S245.66,281.64,245.82,280.91Z"/>
                  <path class="cls-30" d="M249.72,286.27c-.05,0-1-8.68-1-8.73a.08.08,0,0,1,.07-.1.09.09,0,0,1,.09.06c0,.06.92,8.77.87,8.77Z"/>
                  <g class="cls-48">
                    <path class="cls-54" d="M248.77,277.52c-1.88.08-3,3.39-3,3.39-.16.73.33,2,.41,3.46a28.34,28.34,0,0,1-.2,3c.26-1.33.56-2.93.91-4.61.87-4.24,2.3-1.59,2.35.06s0-.28.65-1.93c.63-1.46,2.25,2.19,3.66,6.1-.25-1.05-.51-2.05-.75-3C251.79,279.83,250.65,277.44,248.77,277.52Z"/>
                  </g>
                  <path class="cls-55" d="M246.56,294.06s-1.8,10,2.18,11.12,6.21-3.75,5.51-10.35-3.28-8-3.82-5.83-.54-.77-.6.16-.16.22-.49-1-.82.54-1,2.69-.44.06-.49-1.48S247.16,291.31,246.56,294.06Z"/>
                </g>
                <g>
                  <path class="cls-53" d="M243.13,278.27c.84-.73,1.82-1.16,2.61-.13,1.12,1.44.76,4.58.49,6.23-.49,3.06-3.51,21.64-11.44,20.48,0,0-4.26-1.81-2-10,1.68-6,5-10.47,8.93-15.1A12.79,12.79,0,0,1,243.13,278.27Z"/>
                  <g class="cls-50">
                    <path class="cls-54" d="M245.74,278.14c-.79-1-1.77-.6-2.61.13a12.79,12.79,0,0,0-1.38,1.49c-1.45,1.69-2.8,3.37-4,5.09a16.38,16.38,0,0,1,3.68-3.37c1.8-.82-1.07,5.45-1.63,8.26s2.28-6.35,3.83-6.94,1.42,7.39-.86,14.78a62.52,62.52,0,0,0,3.48-13.21C246.5,282.72,246.86,279.58,245.74,278.14Z"/>
                  </g>
                  <path class="cls-55" d="M235.44,290.43s-5.56,9.91-1,13.49c3.11,1.76,8.12-4.29,9.21-13.05.6-4.12-.16-2.7-1-1.21s.16-2,.16-2.42-.49.44-1.52,2a27,27,0,0,0-2.3,4.46c-.27.77,1.53-5.08,1.53-6.22s-2.23,3.18-2.94,4.07.65-2,.81-3-.6.05-.87.55-.22.22,0-.33-.38-.28-1.1.66S236,288.72,235.44,290.43Z"/>
                  <path class="cls-30" d="M239.2,292.13h0s2.68-11.38,6-14.5a.09.09,0,0,1,.12,0,.08.08,0,0,1,0,.11c-3.31,3.1-6.07,14.39-6.11,14.39Z"/>
                </g>
                <path class="cls-52" d="M239.64,276.45c-.19.19.7-.67,1.25.1s-.76,1,.06,1,1.59-.62,1.29.19-.2,1.09.45.86.87-1.31-.33-2.14A2,2,0,0,0,239.64,276.45Z"/>
                <path class="cls-52" d="M243.56,277.93s1.09-.17,1.2.28.11-.55.59,0,.86.33.87.75S245.7,276.55,243.56,277.93Z"/>
                <path class="cls-52" d="M252.39,277.76a1.64,1.64,0,0,1,1.37-1.65,2.08,2.08,0,0,0-2,1.55c-.21,0-1.2,0-1.2.66.17.16.77-.66,1.53-.17S252,277.76,252.39,277.76Z"/>
              </g>
              <g>
                <path class="cls-23" d="M116.68,350.54h2.21c.69-14.46.4-28.94,0-43.41,0-.92-1.41-1.53-1.38-.38C117.86,321.36,117.42,336,116.68,350.54Z"/>
                <g>
                  <g>
                    <path class="cls-24" d="M115.45,273.56a22.86,22.86,0,0,0,1.42,5.91c.53,1.69,1.48,3.86,2.95,4.38a.34.34,0,0,0,.21.26c1.19.34,2.13-.13,3.29-.5a25.27,25.27,0,0,0,4.18-1.38,12.9,12.9,0,0,0,5.91-5.82c.47-1.05.46-2.78-.94-2.66-1.2.1-1.73-.19-2.81.39-.07-1,0-2.36-.72-3.3-1-1.22-2.64-1.13-3.92-1.89-.71-.43-1.46.81-2.21.52s-1.53-1.69-2.32-1.58c-1,.15-1.63.79-2.68.68-.39,0-1.92,0-2.23.33C114.7,269.84,115.42,272.35,115.45,273.56Z"/>
                    <path class="cls-24" d="M96.18,279.67A3,3,0,0,0,97.82,282c3.06,2,6.92,2.39,10.38,2.73,2.11.2,8.11,1.77,7.68-2.78a22.31,22.31,0,0,0-1.49-5.24,38.43,38.43,0,0,0-2-5.12c-.62-1.73-1.64-3.91-2.46-2.48-1.16-.93-2.82-2-4.08-1.05a2.43,2.43,0,0,0-.94,2.64c.06.23.92,2.78-.38,2.08a3.79,3.79,0,0,0-1.13-.54c-.63-.1-1.91-.41-2.3.46a2.45,2.45,0,0,0-.27,1.21c0,.37.18,1.73-.47,1.67l-1-.16c-.69-.13-1.63.14-1.62,1.11a4.19,4.19,0,0,0,.85,2.06C97.8,278.74,96.17,278.56,96.18,279.67Z"/>
                    <path class="cls-25" d="M117.44,272.55c.18-1.19,1.61-.32,1.74.49.27,1.71.44,3.47.79,5.17,0,.2.12.69.21,1.22.24-1.52.63-3,.86-4.45.07-.43.58-.05.53.3a18.78,18.78,0,0,0,0,5c.8-2.37,2-4.58,3-6.84.35-.77,1.34.29,1,1-.54,1.27-1.11,2.55-1.66,3.83a23.6,23.6,0,0,0,1.79-2.47c.53-.86,1.69.39,1.25,1.18a32.2,32.2,0,0,1-2.37,3.44l.12-.05A13.47,13.47,0,0,0,128.2,278c.54-.52,1.36.69.84,1.22a13.89,13.89,0,0,1-3,2.27,9.51,9.51,0,0,1-3.37,1.49l-.31.38a.59.59,0,0,1-.74,0h0a.66.66,0,0,1-.7.23,1,1,0,0,1-.25-.06.52.52,0,0,1-.73-.16A15.21,15.21,0,0,1,117.44,272.55Z"/>
                    <path class="cls-25" d="M103.71,281a41.17,41.17,0,0,0,6.13,1.27,27.22,27.22,0,0,1-5.57-4.93c-.32-.36-.09-1,.35-.64,1.65,1.3,3.45,2.36,5.19,3.47a16.51,16.51,0,0,0,3.32,1.44,19.15,19.15,0,0,0-1.75-1.94c-1.47-1.35-3.42-2.06-4.66-3.66-.24-.32-.25-1.11.26-1.07,1.63.11,3.17,1.65,4.51,2.67a12.64,12.64,0,0,1,1.68,1.59,18.69,18.69,0,0,0-1.49-2.77c-.53-.81-1.19-3.21-2.15-3.37-.2,0-.42-.56-.13-.63,1.12-.26,2.26,1.95,2.82,2.77a22.51,22.51,0,0,1,4,7.59.79.79,0,0,1-.73,1.09.47.47,0,0,1-.54.35l-.35-.05a.47.47,0,0,1-.32.08,43.86,43.86,0,0,1-10.52-2.69C103.46,281.49,103.37,280.93,103.71,281Z"/>
                    <path class="cls-26" d="M110.23,292.28a5.72,5.72,0,0,0,.32,1c-.14-.07-.3,0-.3.27,0,.1,0,.21,0,.33a1.08,1.08,0,0,0,0,.19c0,.28,0,.55,0,.8.08,1.88.39,3.76.63,5.57a19.48,19.48,0,0,0,1.21,5.55c1.11,2.36,2.91,4.23,5.21,4.07s5.83-.76,6.37-4.36c.55-3.81.14-7.68.8-11.47a3.47,3.47,0,0,1,.21-.37c.07.07.16.07.19-.07s.09-.34.15-.51-.24-.67-.42-.44l-.07.09s0,0-.08.06a.26.26,0,0,0,0,.08,11.07,11.07,0,0,0-1.65,2.86c-.16-.79-.34-1.6-.53-2.4-.1-.4-.48-.74-.74-.35a5.89,5.89,0,0,0-.72,2.41c-.09.58.06,1.54-.34.87-.27-.45-.51-.92-.75-1.4a10.44,10.44,0,0,0-2.64-3.89c-.24-.19-.53.05-.54.4a13.21,13.21,0,0,0,.51,3.27,15.13,15.13,0,0,1,.15,2.6,25.57,25.57,0,0,1-2.67-4.34c-.24-.54-.92-.59-.83.21a15.29,15.29,0,0,0,.63,2.81c-1.17-1.37-2.16-3.11-3.39-4.37C110.58,291.47,110.12,291.71,110.23,292.28Z"/>
                    <path class="cls-27" d="M113.47,288.56a7.24,7.24,0,0,0,5.73,1.64c1.55-.21,3.19-.39,4.31-1.71a4.22,4.22,0,0,0,.56-.42,3.66,3.66,0,0,0,.48-4.37,10.28,10.28,0,0,0-2-2.82,4.27,4.27,0,0,0-3.1-1c-1.2-.06-2.24-.81-3.41-.26a4.16,4.16,0,0,1-1.69.52,3.2,3.2,0,0,0-1.19.11C109.89,281.78,111.06,286.56,113.47,288.56Z"/>
                    <path class="cls-24" d="M123,288.15a7.35,7.35,0,0,0,3.64,5.74c2.08,1.33,4.66,2.74,7.12,2.54,1.44-.12,1.79-1,1.35-2.17a13.52,13.52,0,0,0,2.29.19,4.1,4.1,0,0,0,1.87-.24c.95-.55.73-1.58.43-2.59-.23-.78-1.31-2-.4-2.67.4-.29.9-.46,1.18-.92.41-.72-.78-1.86-1.4-2.47a2.13,2.13,0,0,0,.49-2.61c-.54-1.15-2.11-1.26-3.09-1.21a33.62,33.62,0,0,0-5.66.49,19.87,19.87,0,0,0-2.53.62,5.61,5.61,0,0,1-2.48.59c-.14,0-.1.2,0,.3A4,4,0,0,0,123,288.15Z"/>
                    <path class="cls-24" d="M112.3,303.68c1,.92,2.14-.56,3-1,1.27-.59,2.17,1.33,3.27.82a2.18,2.18,0,0,0,1-1c.15-.29.27-.58.42-.87.44-.83,1.22-.2,1.54.4.42.76,1,1.82,1.93,1.42.56-.23.94-.83,1.49-1,1.12-.41,1.64.34,2.63.44A1.12,1.12,0,0,0,129,302c.51-2-1.63-5.18-2.45-6.7a17.32,17.32,0,0,0-3-4.17,15.72,15.72,0,0,0-1.85-1.72c-1.66-1.49-3.86-2.65-5.61-1.59-2.43,1.46-3.79,4.26-4.26,7.28C111.43,297.73,110.21,301.73,112.3,303.68Z"/>
                    <path class="cls-24" d="M97.61,288a5.36,5.36,0,0,0,1.08,1.6c.76.71,0,1.52-.32,2.33-1.18,3.18,1.25,3.67,2.86,3.51.47,0,2.46-.46,2.34.79a7.25,7.25,0,0,0-.14,2.08c.24,1.09.78,1.7,1.6,1.6.55-.07,1-.61,1.56-.89.91-.48.44,1.05.43,1.74,0,.85.31,2.24,1,2.22,1.16-.05,1.69-2.08,2.08-3.4.66-2.27,1.48-4.45,2-6.79.37-1.61,1.5-3.57,1.26-5.32a2.2,2.2,0,0,0-1.84-1.86l-.51-.09A10.28,10.28,0,0,0,109,285a28,28,0,0,0-3.17-.57c-1.68-.25-3.39-.18-5.05-.53-.82-.18-2.1-.51-2.77.56A3.49,3.49,0,0,0,97.61,288Z"/>
                    <path class="cls-25" d="M102.48,285.46c3,.9,6.34-.11,9.45.32.47.05.79.76.76,1.3a1,1,0,0,1,.56.69,6.19,6.19,0,0,1-.41,3.32,16.88,16.88,0,0,0-.74,2.07c-.09.34-.38.62-.48.95s-.65.09-.68-.28,0-.58,0-.85a14.68,14.68,0,0,1-2.5,3.73c-.37.44-.89-.37-.81-.78.33-1.81,1.37-3.2,2-4.88.2-.51.36-1.11.54-1.7a35.46,35.46,0,0,0-4.64,4.17c-.24.28-.66-.33-.41-.62a21.39,21.39,0,0,1,3.32-3.63s.06,0,.08,0l-2,.24a18.33,18.33,0,0,0-2.55.18c-.35.09-.71-.61-.31-.75a16,16,0,0,0,2.29-1.25,2.51,2.51,0,0,1,.23-.11,13,13,0,0,1-3.71-.69C101.87,286.61,101.66,285.22,102.48,285.46Z"/>
                    <path class="cls-25" d="M114.07,292.32c-.25.18-.63-.25-.44-.52.54-.85,2.87-4.05,4.49-4.2.28-.15.72.07.95.43a.86.86,0,0,1,.13.2h0c1.26.08,2.57,1.59,3.44,2.44a24.6,24.6,0,0,1,2.13,2.32,14.27,14.27,0,0,1,1.25,2.69c.07.14-.07.27-.18.16a10.86,10.86,0,0,1-1-1.44,19.85,19.85,0,0,0-2.1-2.2c-.55-.53-1.13-1.05-1.7-1.53a3,3,0,0,0-.47-.35c.32.52.64,1.08,1,1.53a23,23,0,0,1,2.71,4.49c.15.34-.24.56-.41.25a42.7,42.7,0,0,0-4.33-5.95c0,.5,0,1,.08,1.38.26,1.83.75,4.71,1.85,6.14.32.44-.08,1-.49.65-1.2-1.14-1.67-3.19-2.14-4.82-.22-.8-.46-1.68-.64-2.59a11,11,0,0,0-.65,2.35,21.39,21.39,0,0,0-.31,5.48c.1.65-.53.81-.84.34-.88-1.3-.76-3.7-.73-5.25a9.2,9.2,0,0,1,.27-2.29,5.06,5.06,0,0,0-.35.51,8.76,8.76,0,0,0-.88,2.37c-.14.65-.55,1.47-.63,2.12,0,.38-.46.13-.54-.06-.61-1.35.09-3.38.67-4.74A.48.48,0,0,1,114.07,292.32Z"/>
                    <path class="cls-25" d="M124,288a4.16,4.16,0,0,1,1.17-2.91,5.89,5.89,0,0,1,3.35-1.43c.74-.17,1.46-.37,2.21-.49s1.48.46,2.06.2c.08,0,.17.09.14.17a1.18,1.18,0,0,1-.7.76h0l.4,0c.66-.07,1.3,1.47.51,1.63-1.08.25-2.18.43-3.27.61.81.19,1.61.42,2.41.61.26.05.43.71.06.69-1.55-.1-3.59-.74-5.11-.31a3.5,3.5,0,0,1-1,.14,4.42,4.42,0,0,0,.49.31c1,.53,2.06.86,3.05,1.37.7.36.54,1.74-.3,1.33-1-.49-2.06-.83-3.07-1.3a7.7,7.7,0,0,1-1.21-.66c0,.17.07.35.1.54a9.62,9.62,0,0,0,1.38,1.54c1,.76,2,2,3.26,1.85.31,0,.5.6.14.67-1.22.25-2.51-.68-3.51-1.37a8,8,0,0,1-2.93-3.23C123.45,288.22,123.69,287.92,124,288Z"/>
                  </g>
                  <path class="cls-28" d="M122.46,283c.67.09.83,1.49,0,1.36C121.8,284.32,121.64,282.92,122.46,283Z"/>
                  <path class="cls-28" d="M121.21,280.88c.86.12,1.06,1.92,0,1.76C120.35,282.52,120.15,280.71,121.21,280.88Z"/>
                  <path class="cls-28" d="M118.48,280c.5.08.62,1.12,0,1S117.86,279.86,118.48,280Z"/>
                  <path class="cls-28" d="M116,279.55c.86.12,1.07,1.92,0,1.77C115.18,281.19,115,279.4,116,279.55Z"/>
                  <path class="cls-28" d="M112.89,280.58a.66.66,0,0,1,.67-.13,1.24,1.24,0,0,1,.77,1.12v.09a.7.7,0,0,1-.61.77h0C113,282.4,112.26,281.25,112.89,280.58Z"/>
                  <path class="cls-28" d="M117.16,283.85a.82.82,0,0,1,.44.21c-.1-.16-.06-.44.16-.4s.31.57,0,.52c0,0-.06,0-.07,0,.52.63.47,1.94-.52,1.79S115.91,283.66,117.16,283.85Z"/>
                  <path class="cls-28" d="M113.55,283.66c-.08-.64.18-1.26,1-1.15,1,.16,1.36,2.15.35,2.36a.59.59,0,0,1-.7.41A1.13,1.13,0,0,1,113.55,283.66Z"/>
                  <path class="cls-28" d="M120.39,285.17c.28,0,.34.61,0,.56S120.05,285.11,120.39,285.17Z"/>
                  <path class="cls-28" d="M119.5,282.26c.48.07.85.75.86,1.26a.72.72,0,0,1-.86.8c-.49-.07-.86-.75-.86-1.27A.71.71,0,0,1,119.5,282.26Z"/>
                  <path class="cls-28" d="M122.19,286.42c.48.07.6,1.09,0,1S121.58,286.34,122.19,286.42Z"/>
                  <path class="cls-28" d="M124,282.15c.71.11.89,1.6,0,1.47C123.25,283.52,123.07,282,124,282.15Z"/>
                  <path class="cls-28" d="M123,280.78c.26.05.31.57,0,.51S122.66,280.74,123,280.78Z"/>
                  <path class="cls-28" d="M111.6,282.88c1,.14,1.26,2.26,0,2.08C110.59,284.81,110.35,282.7,111.6,282.88Z"/>
                  <path class="cls-28" d="M119.61,278.77s0,0,0,0a1.15,1.15,0,0,1,.33.33.89.89,0,0,1,.16.34s0,0,0,0a.52.52,0,0,1,0,.11,1.41,1.41,0,0,1,0,.41s0,0,0,0h0a.66.66,0,0,1-.18.35.48.48,0,0,1-.5.1,1.06,1.06,0,0,1-.82-.88C118.54,279,119.07,278.41,119.61,278.77Z"/>
                </g>
              </g>
              <g>
                <path class="cls-23" d="M65.29,369.31h2.55c.8-16.64.46-33.31,0-50,0-1-1.62-1.76-1.58-.43C66.65,335.72,66.15,352.52,65.29,369.31Z"/>
                <g>
                  <g>
                    <path class="cls-24" d="M63.88,280.69c.1,2.5.92,4.45,1.63,6.8.61,2,1.71,4.45,3.4,5.05a.38.38,0,0,0,.24.3c1.37.39,2.46-.15,3.79-.58a28.63,28.63,0,0,0,4.82-1.59,14.89,14.89,0,0,0,6.8-6.7c.54-1.21.52-3.2-1.08-3.06-1.39.12-2-.22-3.24.45-.08-1.19,0-2.72-.83-3.79-1.1-1.41-3-1.31-4.52-2.19-.81-.49-1.68.94-2.54.6s-1.76-1.94-2.67-1.81c-1.1.17-1.88.9-3.09.79-.44,0-2.2,0-2.57.37C63,276.41,63.84,279.3,63.88,280.69Z"/>
                    <path class="cls-24" d="M41.69,287.73a3.49,3.49,0,0,0,1.89,2.67c3.53,2.31,8,2.75,12,3.14,2.44.23,9.34,2,8.84-3.19a25.94,25.94,0,0,0-1.71-6,43.48,43.48,0,0,0-2.27-5.89c-.71-2-1.88-4.5-2.83-2.86-1.34-1.08-3.25-2.34-4.7-1.2a2.78,2.78,0,0,0-1.08,3c.06.27,1.06,3.2-.44,2.39a4.18,4.18,0,0,0-1.3-.61c-.73-.13-2.2-.47-2.64.52a3,3,0,0,0-.32,1.4c0,.42.21,2-.54,1.92-.37-.05-.76-.12-1.13-.19-.79-.14-1.87.16-1.86,1.28a4.87,4.87,0,0,0,1,2.38C43.56,286.65,41.68,286.45,41.69,287.73Z"/>
                    <path class="cls-25" d="M66.17,279.54c.2-1.38,1.85-.37,2,.56.32,2,.51,4,.91,5.95.06.23.14.79.25,1.4.27-1.74.72-3.48,1-5.12.07-.49.66-.05.6.35a21.46,21.46,0,0,0,0,5.71c.92-2.74,2.31-5.28,3.48-7.88.41-.89,1.55.34,1.2,1.15-.63,1.46-1.28,2.94-1.91,4.42a27.93,27.93,0,0,0,2.06-2.85c.61-1,2,.45,1.44,1.36a36.55,36.55,0,0,1-2.73,4l.14-.06a15.32,15.32,0,0,0,4-2.68c.63-.59,1.57.81,1,1.42a16.22,16.22,0,0,1-3.41,2.6,10.93,10.93,0,0,1-3.87,1.72l-.36.44a.68.68,0,0,1-.85,0h0a.81.81,0,0,1-.82.27l-.28-.07a.6.6,0,0,1-.84-.19C66.57,288.81,65.56,283.74,66.17,279.54Z"/>
                    <path class="cls-25" d="M50.37,289.29a47.91,47.91,0,0,0,7.05,1.45A31.23,31.23,0,0,1,51,285.07c-.37-.42-.11-1.16.41-.74a71.4,71.4,0,0,0,6,4A18.84,18.84,0,0,0,61.2,290a20.34,20.34,0,0,0-2-2.23c-1.68-1.55-3.93-2.37-5.36-4.21-.27-.37-.29-1.28.3-1.24,1.88.14,3.65,1.91,5.2,3.08a15.16,15.16,0,0,1,1.93,1.83A23,23,0,0,0,59.54,284c-.62-.93-1.37-3.69-2.48-3.88-.23,0-.48-.64-.15-.72,1.29-.3,2.6,2.25,3.25,3.19,1.92,2.73,3.66,5.26,4.55,8.73a.92.92,0,0,1-.84,1.26.54.54,0,0,1-.62.4l-.41-.06a.49.49,0,0,1-.37.09,50.05,50.05,0,0,1-12.1-3.09C50.08,289.82,50,289.18,50.37,289.29Z"/>
                    <path class="cls-26" d="M57.87,302.24a6.23,6.23,0,0,0,.37,1.2c-.16-.08-.34,0-.35.31v.38a.79.79,0,0,0,0,.22c0,.33,0,.63.06.93.08,2.15.44,4.32.72,6.41A22.34,22.34,0,0,0,60,318.07c1.27,2.72,3.35,4.87,6,4.69s6.71-.88,7.33-5c.64-4.39.17-8.84.92-13.2a3.18,3.18,0,0,1,.25-.43c.07.08.18.08.21-.08s.11-.4.17-.59-.27-.77-.48-.5l-.08.1s-.06,0-.09.07a.32.32,0,0,0,0,.09,12.8,12.8,0,0,0-1.9,3.3c-.19-.92-.39-1.85-.62-2.77-.11-.46-.54-.86-.85-.41A7,7,0,0,0,70,306.1c-.1.67.08,1.78-.39,1-.31-.53-.58-1.07-.85-1.62a12.16,12.16,0,0,0-3-4.48c-.28-.22-.61.06-.62.46a15.78,15.78,0,0,0,.59,3.77,17.65,17.65,0,0,1,.17,3,30.34,30.34,0,0,1-3.08-5c-.27-.62-1.05-.69-1,.23a18.25,18.25,0,0,0,.72,3.25c-1.34-1.59-2.48-3.58-3.9-5C58.28,301.31,57.75,301.59,57.87,302.24Z"/>
                    <path class="cls-27" d="M61.6,298a8.38,8.38,0,0,0,6.59,1.88c1.79-.24,3.68-.45,5-2a4.47,4.47,0,0,0,.65-.49c1.37-1.26,1.39-3.29.55-5a11.51,11.51,0,0,0-2.25-3.25,5,5,0,0,0-3.56-1.19c-1.38-.06-2.57-.93-3.93-.3a4.73,4.73,0,0,1-1.94.61,3.74,3.74,0,0,0-1.37.12C57.47,290.15,58.82,295.66,61.6,298Z"/>
                    <path class="cls-24" d="M72.52,297.49a8.41,8.41,0,0,0,4.19,6.61c2.39,1.53,5.36,3.15,8.19,2.92,1.66-.14,2.06-1.18,1.55-2.5a14.52,14.52,0,0,0,2.63.22,4.8,4.8,0,0,0,2.16-.27c1.1-.64.84-1.82.5-3-.27-.89-1.51-2.3-.46-3.06.46-.35,1-.53,1.35-1.07.48-.83-.89-2.14-1.6-2.84a2.46,2.46,0,0,0,.56-3c-.63-1.32-2.43-1.46-3.56-1.39a38.6,38.6,0,0,0-6.52.55,24.24,24.24,0,0,0-2.91.72,6.39,6.39,0,0,1-2.85.68c-.17,0-.12.23,0,.34A4.6,4.6,0,0,0,72.52,297.49Z"/>
                    <path class="cls-24" d="M60.26,315.37c1.15,1.06,2.46-.64,3.44-1.11,1.47-.68,2.5,1.52,3.77.94a2.55,2.55,0,0,0,1.17-1.11c.17-.34.31-.67.48-1,.51-1,1.4-.23,1.77.46.48.88,1.15,2.09,2.23,1.64.64-.27,1.07-1,1.7-1.19,1.3-.47,1.89.39,3,.51a1.29,1.29,0,0,0,1.63-1c.58-2.32-1.88-6-2.82-7.71A19.74,19.74,0,0,0,73.2,301a18,18,0,0,0-2.12-2c-1.92-1.71-4.45-3-6.47-1.83-2.8,1.68-4.36,4.91-4.89,8.39C59.26,308.52,57.84,313.12,60.26,315.37Z"/>
                    <path class="cls-24" d="M43.34,297.28a5.91,5.91,0,0,0,1.25,1.84c.87.82,0,1.75-.37,2.68-1.37,3.67,1.43,4.24,3.28,4,.55,0,2.84-.52,2.7.92a8.7,8.7,0,0,0-.16,2.39c.27,1.26.9,2,1.85,1.84.63-.08,1.2-.69,1.79-1,1-.56.5,1.21.5,2,0,1,.35,2.59,1.2,2.55,1.34,0,1.95-2.39,2.4-3.91.76-2.61,1.7-5.12,2.32-7.81.43-1.86,1.73-4.12,1.45-6.13a2.54,2.54,0,0,0-2.12-2.14l-.59-.1a11.39,11.39,0,0,0-2.43-.61,32.07,32.07,0,0,0-3.65-.66c-1.94-.28-3.9-.2-5.81-.61-1-.2-2.42-.59-3.2.64A4,4,0,0,0,43.34,297.28Z"/>
                    <path class="cls-25" d="M48.94,294.39c3.5,1,7.31-.12,10.89.37.53.05.9.88.88,1.5a1.14,1.14,0,0,1,.64.8,7.12,7.12,0,0,1-.48,3.81,19.24,19.24,0,0,0-.85,2.39c-.1.39-.43.71-.55,1.09-.18.56-.75.1-.78-.32s0-.67,0-1a16.89,16.89,0,0,1-2.88,4.29c-.42.51-1-.42-.93-.9.38-2.08,1.58-3.67,2.32-5.61.23-.59.42-1.28.63-1.95a40.54,40.54,0,0,0-5.35,4.79c-.27.33-.75-.37-.47-.71,1.2-1.4,2.36-3.15,3.82-4.17l.09-.07-2.31.28a20.61,20.61,0,0,0-2.93.2c-.41.11-.82-.69-.37-.86A17,17,0,0,0,53,296.9l.26-.12a14.73,14.73,0,0,1-4.27-.8C48.25,295.72,48,294.12,48.94,294.39Z"/>
                    <path class="cls-25" d="M62.29,302.29c-.29.21-.72-.28-.51-.6.62-1,3.3-4.66,5.18-4.83.32-.18.82.08,1.09.49a1.09,1.09,0,0,1,.14.23h0c1.45.08,3,1.82,4,2.8a26,26,0,0,1,2.46,2.68c.79,1,.87,2,1.44,3.09.08.16-.09.31-.2.19a12.35,12.35,0,0,1-1.17-1.66,22.3,22.3,0,0,0-2.42-2.53c-.63-.62-1.3-1.21-2-1.77a4.69,4.69,0,0,0-.54-.4c.36.6.73,1.24,1.11,1.76A26.54,26.54,0,0,1,74,306.91c.17.4-.28.66-.47.29a48.31,48.31,0,0,0-5-6.84c0,.57,0,1.13.09,1.58.31,2.11.87,5.43,2.14,7.08.36.5-.1,1.17-.57.74-1.38-1.31-1.92-3.67-2.46-5.55-.25-.91-.53-1.94-.74-3a12.35,12.35,0,0,0-.75,2.7,24.77,24.77,0,0,0-.36,6.32c.12.75-.6.92-1,.38-1-1.49-.87-4.25-.85-6a11.09,11.09,0,0,1,.32-2.64,6.75,6.75,0,0,0-.4.59,9.58,9.58,0,0,0-1,2.74c-.17.75-.64,1.69-.73,2.43-.05.44-.53.15-.63-.07-.7-1.55.11-3.89.78-5.45Z"/>
                    <path class="cls-25" d="M73.73,297.27a4.84,4.84,0,0,1,1.35-3.35,6.79,6.79,0,0,1,3.85-1.65c.86-.19,1.68-.42,2.55-.56s1.7.53,2.37.23a.16.16,0,0,1,.16.2,1.36,1.36,0,0,1-.8.87h0l.47,0c.76-.08,1.49,1.69.59,1.88-1.26.29-2.52.49-3.77.69.93.23,1.85.49,2.77.71.3.06.5.82.08.79-1.79-.11-4.13-.85-5.89-.35a4.2,4.2,0,0,1-1.15.16c.18.13.38.25.56.36,1.15.61,2.37,1,3.51,1.57.81.41.63,2-.34,1.53-1.16-.56-2.38-.95-3.54-1.5a8.82,8.82,0,0,1-1.39-.76l.12.62a10,10,0,0,0,1.59,1.78c1.09.87,2.35,2.3,3.74,2.12.36,0,.59.7.17.78-1.4.29-2.89-.78-4-1.58a9,9,0,0,1-3.37-3.72C73.09,297.57,73.37,297.23,73.73,297.27Z"/>
                  </g>
                  <path class="cls-28" d="M72,291.61c.77.1,1,1.71,0,1.56C71.19,293.08,71,291.47,72,291.61Z"/>
                  <path class="cls-28" d="M70.51,289.12c1,.14,1.22,2.21,0,2C69.52,291,69.28,288.92,70.51,289.12Z"/>
                  <path class="cls-28" d="M67.36,288.05c.58.09.72,1.29,0,1.2S66.65,288,67.36,288.05Z"/>
                  <path class="cls-28" d="M64.55,287.59c1,.14,1.24,2.21,0,2C63.57,289.48,63.34,287.41,64.55,287.59Z"/>
                  <path class="cls-28" d="M60.93,288.78a.77.77,0,0,1,.78-.15,1.42,1.42,0,0,1,.88,1.29V290a.81.81,0,0,1-.7.89h-.06C61,290.87,60.2,289.54,60.93,288.78Z"/>
                  <path class="cls-28" d="M65.85,292.54a1,1,0,0,1,.51.24c-.12-.18-.08-.5.17-.46s.36.66,0,.6c0,0-.07,0-.08,0,.59.72.54,2.22-.6,2.06S64.41,292.32,65.85,292.54Z"/>
                  <path class="cls-28" d="M61.7,292.32c-.1-.73.2-1.45,1.08-1.33,1.2.2,1.57,2.48.4,2.72a.68.68,0,0,1-.8.48A1.29,1.29,0,0,1,61.7,292.32Z"/>
                  <path class="cls-28" d="M69.56,294.06c.32,0,.4.7,0,.65S69.18,294,69.56,294.06Z"/>
                  <path class="cls-28" d="M68.54,290.72c.55.08,1,.85,1,1.44a.83.83,0,0,1-1,.92c-.56-.08-1-.86-1-1.46A.81.81,0,0,1,68.54,290.72Z"/>
                  <path class="cls-28" d="M71.64,295.5c.55.08.69,1.25,0,1.16S70.94,295.41,71.64,295.5Z"/>
                  <path class="cls-28" d="M73.67,290.58c.82.13,1,1.84,0,1.7C72.86,292.16,72.65,290.45,73.67,290.58Z"/>
                  <path class="cls-28" d="M72.52,289c.3.05.36.65,0,.59S72.18,289,72.52,289Z"/>
                  <path class="cls-28" d="M59.45,291.43c1.17.16,1.45,2.59,0,2.39C58.29,293.65,58,291.21,59.45,291.43Z"/>
                  <path class="cls-28" d="M68.67,286.69l0,0a1.41,1.41,0,0,1,.38.39.85.85,0,0,1,.19.38s0,0,0,.06a.5.5,0,0,1,0,.12,1.85,1.85,0,0,1,0,.47s0,0,0,0h0a.86.86,0,0,1-.21.4.56.56,0,0,1-.58.11,1.21,1.21,0,0,1-.94-1C67.44,286.9,68.05,286.28,68.67,286.69Z"/>
                </g>
              </g>
              <g>
                <g>
                  <path class="cls-23" d="M290,376.74c.33,3,.62,6.19,1,9.35h2.4c-.47-2.58-1-5.13-1.34-7.59q-1.43-11-2-22.18c-.76-13.61-1.26-27.25-.92-40.88,0-1-1.13-.44-1.15.32-.39,13.69-.65,27.38.27,41.05C288.72,363.46,289.3,370.12,290,376.74Z"/>
                  <g>
                    <path class="cls-26" d="M300.74,346.51c-.63.1-1.21.74-1.82,1a2,2,0,0,1,.11-.26c.1-.22.05-.63-.23-.6a7.59,7.59,0,0,0-4.8,3.06,3.81,3.81,0,0,0,.07-.67c0-.33-.31-.18-.41,0-.52,1-1.3,1.65-1.8,2.64s-1,2.14-1.39,3.23a13.82,13.82,0,0,0-.85,3,1.43,1.43,0,0,0,.08.64,2.46,2.46,0,0,0,0,.26h-.08c-.14-.06-.26.21-.12.29l.1.1s0,.05,0,.05c0,.23,0,.45-.06.67a.32.32,0,0,0,.29.36,7.44,7.44,0,0,0,7.18-3,19.79,19.79,0,0,0,2.41-4.85,25.28,25.28,0,0,0,1.69-5.31C301.16,346.69,301,346.47,300.74,346.51Z"/>
                    <path class="cls-58" d="M298.47,349.38c-1.21,1.31-2.32,2.69-3.53,4a35.84,35.84,0,0,0-5.22,6.79.43.43,0,0,0,.13.05,7.44,7.44,0,0,0,7.18-3,19.79,19.79,0,0,0,2.41-4.85,25.28,25.28,0,0,0,1.69-5.31.51.51,0,0,0,0-.25A18,18,0,0,1,298.47,349.38Z"/>
                  </g>
                  <g>
                    <path class="cls-26" d="M274.6,333.79a23,23,0,0,0,2.78,4.66,17.68,17.68,0,0,0,3.36,4,7.08,7.08,0,0,0,7.61.88.37.37,0,0,0,.2-.43l-.21-.63a.1.1,0,0,0,0-.07.44.44,0,0,1,.08-.11c.12-.12-.06-.35-.18-.26l-.06,0c0-.08-.06-.17-.1-.25a1.3,1.3,0,0,0-.06-.66,13.66,13.66,0,0,0-1.45-2.62c-.65-.91-1.31-1.86-2-2.72s-1.6-1.26-2.31-2c-.12-.13-.46-.18-.4.14s.14.42.22.64a6.86,6.86,0,0,0-5.31-1.6c-.26.05-.23.46-.09.64l.17.22c-.65-.06-1.34-.51-2-.42C274.58,333.24,274.49,333.5,274.6,333.79Z"/>
                    <path class="cls-58" d="M277.69,335.33c1.44.92,2.82,1.94,4.26,2.84a31.79,31.79,0,0,1,6.51,5.09l-.11.08a7.08,7.08,0,0,1-7.61-.88,17.68,17.68,0,0,1-3.36-4,23,23,0,0,1-2.78-4.66.81.81,0,0,1,0-.25A16.65,16.65,0,0,0,277.69,335.33Z"/>
                  </g>
                </g>
                <g>
                  <g>
                    <path class="cls-24" d="M290.75,283.91c-.27-.28-1.54-.29-1.85-.27-.88.08-1.44-.45-2.23-.56s-1.32,1.06-1.94,1.3-1.25-.78-1.83-.43c-1.09.64-2.49.56-3.28,1.57a5,5,0,0,0-.61,2.75c-.89-.47-1.33-.23-2.33-.32-1.17-.11-1.18,1.34-.78,2.22a10.69,10.69,0,0,0,4.91,4.84,21,21,0,0,0,3.49,1.15,4.31,4.31,0,0,0,2.74.41.21.21,0,0,0,.17-.2c1.23-.44,2-2.25,2.45-3.66a18.26,18.26,0,0,0,1.19-4.91C290.89,286.78,291.48,284.69,290.75,283.91Z"/>
                    <path class="cls-24" d="M304.85,292a3.32,3.32,0,0,0,.72-1.71c0-.81-.78-1-1.35-.94-.27.06-.54.11-.82.15-.54.06-.39-1.1-.39-1.39a2.24,2.24,0,0,0-.23-1c-.31-.72-1.39-.46-1.92-.37a3.29,3.29,0,0,0-.93.44c-1.08.59-.37-1.53-.32-1.72a2,2,0,0,0-.78-2.21c-1.05-.82-2.44.1-3.4.89-.68-1.2-1.54.6-2.05,2.06a32,32,0,0,0-1.65,4.25,18.75,18.75,0,0,0-1.23,4.38c-.36,3.78,4.64,2.47,6.41,2.31,2.86-.29,6.08-.6,8.65-2.28a2.52,2.52,0,0,0,1.35-1.93C306.93,292,305.56,292.11,304.85,292Z"/>
                    <path class="cls-25" d="M289.2,287c-.15-1-1.34-.27-1.44.4-.23,1.42-.37,2.9-.67,4.3,0,.18-.09.58-.18,1-.19-1.26-.52-2.51-.71-3.71-.06-.35-.48,0-.44.26a15,15,0,0,1,0,4.12,61.72,61.72,0,0,0-2.53-5.7c-.29-.64-1.12.25-.87.84.47,1.06.94,2.13,1.39,3.2a19.84,19.84,0,0,1-1.49-2.07c-.44-.71-1.41.33-1,1a26.44,26.44,0,0,0,2,2.87.53.53,0,0,1-.1-.06,10.86,10.86,0,0,1-2.89-1.92c-.45-.43-1.14.58-.7,1A11.91,11.91,0,0,0,282,294.4a7.57,7.57,0,0,0,2.8,1.24c.09.11.17.23.26.33a.53.53,0,0,0,.62,0h0a.63.63,0,0,0,.6.2l.2-.06a.45.45,0,0,0,.62-.13A12.69,12.69,0,0,0,289.2,287Z"/>
                    <path class="cls-25" d="M300.64,294a36.75,36.75,0,0,1-5.11,1.05,22.85,22.85,0,0,0,4.64-4.11c.27-.31.08-.83-.3-.54a49.08,49.08,0,0,1-4.31,2.89,12.48,12.48,0,0,1-2.76,1.2,13,13,0,0,1,1.45-1.61c1.22-1.11,2.85-1.72,3.88-3.06.19-.25.2-.92-.21-.88-1.36.09-2.65,1.37-3.77,2.22a12.49,12.49,0,0,0-1.4,1.32,16.87,16.87,0,0,1,1.25-2.3c.44-.67,1-2.68,1.79-2.8.17,0,.35-.48.11-.53-.94-.22-1.88,1.63-2.35,2.3a18.91,18.91,0,0,0-3.29,6.33.66.66,0,0,0,.6.91.4.4,0,0,0,.46.28l.3,0a.3.3,0,0,0,.26.07,36.75,36.75,0,0,0,8.76-2.24C300.84,294.4,300.92,293.93,300.64,294Z"/>
                    <path class="cls-26" d="M294.64,303c-1,1-1.85,2.49-2.82,3.63a12.46,12.46,0,0,0,.52-2.34c.07-.65-.49-.62-.69-.17a22.11,22.11,0,0,1-2.22,3.62,12.15,12.15,0,0,1,.12-2.17,12.25,12.25,0,0,0,.43-2.72c0-.29-.26-.5-.46-.33a8.58,8.58,0,0,0-2.2,3.23,11.84,11.84,0,0,1-.62,1.17c-.33.57-.21-.24-.29-.73a4.76,4.76,0,0,0-.59-2c-.23-.32-.53,0-.62.29-.16.66-.3,1.34-.44,2a9.3,9.3,0,0,0-1.37-2.38l0-.07a.08.08,0,0,0-.07-.05l-.06-.07c-.14-.2-.4.16-.34.37s.08.28.12.42.11.11.16.07l.17.3c.55,3.16.21,6.37.68,9.55.43,3,3.44,3.51,5.3,3.64s3.41-1.43,4.34-3.4a15.67,15.67,0,0,0,1-4.63c.2-1.51.47-3.07.53-4.62,0-.22,0-.45,0-.67a.43.43,0,0,0,0-.17v-.29c0-.21-.14-.26-.26-.2a4.41,4.41,0,0,0,.28-.87C295.3,302.91,294.91,302.71,294.64,303Z"/>
                    <path class="cls-27" d="M292.72,293.35a2.54,2.54,0,0,0-1-.1,3.37,3.37,0,0,1-1.4-.44c-1-.45-1.85.17-2.85.22a3.5,3.5,0,0,0-2.57.86,8.06,8.06,0,0,0-1.64,2.35,3.08,3.08,0,0,0,.41,3.65,3.67,3.67,0,0,0,.47.34c.92,1.1,2.29,1.25,3.58,1.43a6,6,0,0,0,4.77-1.39C294.51,298.62,295.5,294.63,292.72,293.35Z"/>
                    <path class="cls-24" d="M282.27,296.28c.08-.09.12-.28,0-.26a4.5,4.5,0,0,1-2.05-.48,17.14,17.14,0,0,0-2.11-.53,27.68,27.68,0,0,0-4.72-.4c-.82,0-2.12.05-2.57,1a1.8,1.8,0,0,0,.4,2.18c-.51.51-1.51,1.46-1.16,2,.23.39.65.53,1,.78.75.56-.14,1.57-.34,2.22-.25.83-.44,1.7.35,2.16a3.82,3.82,0,0,0,1.57.2,12.43,12.43,0,0,0,1.91-.17c-.37,1-.08,1.71,1.12,1.81,2,.16,4.2-1,5.92-2.12a6.1,6.1,0,0,0,3-4.78A3.3,3.3,0,0,0,282.27,296.28Z"/>
                    <path class="cls-24" d="M293.87,305.78a8.33,8.33,0,0,0-3.54-6.08c-1.46-.88-3.29.09-4.69,1.32a17.28,17.28,0,0,0-1.53,1.44,14.42,14.42,0,0,0-2.5,3.48c-.68,1.24-2.46,3.9-2,5.57a.93.93,0,0,0,1.17.76c.83-.1,1.27-.72,2.19-.38.46.16.78.67,1.24.86.79.33,1.26-.54,1.61-1.19.27-.49.92-1,1.29-.33.12.24.22.49.35.72a1.65,1.65,0,0,0,.83.8c.92.43,1.67-1.16,2.74-.67.7.34,1.65,1.57,2.48.8C295.22,311.25,294.2,307.92,293.87,305.78Z"/>
                    <path class="cls-24" d="M305.41,296.84c-.56-.9-1.62-.61-2.3-.47-1.38.3-2.81.24-4.22.44-.88.13-1.75.26-2.63.47a8.27,8.27,0,0,0-1.76.45l-.42.06a1.85,1.85,0,0,0-1.53,1.55c-.22,1.47.73,3.11,1,4.44.45,2,1.14,3.76,1.69,5.67.32,1.09.75,2.8,1.73,2.82.62,0,.87-1.13.86-1.85s-.38-1.85.36-1.45c.43.25.85.69,1.3.75.69.07,1.14-.43,1.34-1.34a6.31,6.31,0,0,0-.12-1.73c-.1-1,1.57-.69,1.95-.65,1.35.13,3.37-.28,2.39-2.93-.27-.68-.9-1.34-.27-1.94a5,5,0,0,0,.9-1.34A2.9,2.9,0,0,0,305.41,296.84Z"/>
                    <path class="cls-25" d="M301.66,297.7c-2.53.76-5.28-.09-7.87.26-.39.06-.66.65-.65,1.09a.85.85,0,0,0-.46.59,5.29,5.29,0,0,0,.34,2.75,11.36,11.36,0,0,1,.62,1.72c.08.29.32.53.41.8s.54.07.56-.23,0-.48,0-.7a13.36,13.36,0,0,0,2.08,3.1c.32.35.75-.3.68-.65-.28-1.51-1.15-2.67-1.69-4.07-.15-.43-.29-.92-.45-1.42a28.7,28.7,0,0,1,3.87,3.48c.2.23.55-.27.34-.52a17.38,17.38,0,0,0-2.77-3l-.06,0c.56.06,1.12.12,1.68.21a13.79,13.79,0,0,1,2.12.13c.3.09.59-.51.26-.62a11.35,11.35,0,0,1-1.9-1l-.2-.09a10.37,10.37,0,0,0,3.08-.58C302.16,298.66,302.34,297.51,301.66,297.7Z"/>
                    <path class="cls-25" d="M292,303.41c.2.17.51-.19.37-.43-.45-.71-2.4-3.37-3.75-3.49-.23-.13-.61.05-.79.35a1,1,0,0,0-.11.17h0c-1.05.06-2.13,1.31-2.86,2a18,18,0,0,0-1.77,1.93,11,11,0,0,0-1,2.23c-.07.13.05.23.14.14a10.23,10.23,0,0,0,.85-1.19,13.88,13.88,0,0,1,1.75-1.84c.45-.44.94-.87,1.41-1.28.13-.11.26-.2.39-.29-.27.44-.53.89-.81,1.28a19.16,19.16,0,0,0-2.25,3.73c-.13.28.19.48.35.22a33.93,33.93,0,0,1,3.6-5c0,.42,0,.82-.07,1.15-.22,1.52-.63,3.92-1.54,5.12-.28.36.07.84.41.53,1-.94,1.39-2.66,1.77-4,.19-.66.39-1.41.54-2.16a8.26,8.26,0,0,1,.54,2,17.57,17.57,0,0,1,.26,4.58c-.09.54.44.66.7.28.72-1.08.64-3.09.62-4.38a10.07,10.07,0,0,0-.23-1.91c.1.14.19.28.28.43a6.36,6.36,0,0,1,.73,2,16.29,16.29,0,0,1,.53,1.77c0,.31.38.11.46-.06.5-1.13-.09-2.83-.56-4A.22.22,0,0,0,292,303.41Z"/>
                    <path class="cls-25" d="M283.72,299.79a3.43,3.43,0,0,0-1-2.44,5.05,5.05,0,0,0-2.79-1.19c-.61-.12-1.21-.29-1.84-.39s-1.23.38-1.71.17c-.07,0-.14.06-.12.14a.9.9,0,0,0,.58.62h0l-.35,0c-.55-.06-1.07,1.22-.43,1.36.92.21,1.83.35,2.74.5l-2,.51c-.22.06-.36.6-.06.57,1.3-.09,3-.6,4.26-.25a3.55,3.55,0,0,0,.84.12,2.76,2.76,0,0,1-.41.26c-.83.45-1.71.72-2.55,1.14-.58.29-.45,1.44.26,1.11s1.71-.7,2.56-1.09a7.75,7.75,0,0,0,1-.54c0,.13-.05.28-.08.43a6.82,6.82,0,0,1-1.15,1.3c-.79.63-1.7,1.65-2.71,1.54-.26,0-.42.5-.13.56,1,.2,2.1-.57,2.93-1.15a6.5,6.5,0,0,0,2.42-2.68C284.19,300,284,299.76,283.72,299.79Z"/>
                  </g>
                  <path class="cls-28" d="M285,295.68c-.55.09-.68,1.26,0,1.15S285.7,295.59,285,295.68Z"/>
                  <path class="cls-28" d="M286.06,293.88c-.72.1-.89,1.61,0,1.47C286.78,295.26,286.94,293.75,286.06,293.88Z"/>
                  <path class="cls-28" d="M288.33,293.11c-.42.06-.51.94,0,.87S288.85,293.05,288.33,293.11Z"/>
                  <path class="cls-28" d="M290.37,292.78c-.72.1-.89,1.6,0,1.48C291.08,294.15,291.25,292.65,290.37,292.78Z"/>
                  <path class="cls-28" d="M293,293.65a.47.47,0,0,0-.55-.11,1,1,0,0,0-.64.94v0a.59.59,0,0,0,.51.66h0C292.92,295.16,293.51,294.19,293,293.65Z"/>
                  <path class="cls-28" d="M289.43,296.36a.67.67,0,0,0-.36.19c.08-.15.05-.36-.13-.34s-.27.47,0,.44l.06,0c-.45.52-.4,1.6.42,1.49S290.47,296.21,289.43,296.36Z"/>
                  <path class="cls-28" d="M292.45,296.21c.06-.53-.17-1-.8-1-.87.13-1.13,1.79-.28,2a.47.47,0,0,0,.57.35C292.5,297.48,292.73,296.6,292.45,296.21Z"/>
                  <path class="cls-28" d="M286.74,297.46c-.22,0-.28.5,0,.47S287,297.42,286.74,297.46Z"/>
                  <path class="cls-28" d="M287.49,295a1.13,1.13,0,0,0-.72,1,.61.61,0,0,0,.71.67,1.12,1.12,0,0,0,.72-1.06A.6.6,0,0,0,287.49,295Z"/>
                  <path class="cls-28" d="M285.24,298.51c-.4.05-.49.9,0,.83S285.74,298.44,285.24,298.51Z"/>
                  <path class="cls-28" d="M283.78,295c-.6.09-.74,1.33,0,1.22C284.36,296.08,284.51,294.85,283.78,295Z"/>
                  <path class="cls-28" d="M284.6,293.82c-.21,0-.26.45,0,.41S284.85,293.78,284.6,293.82Z"/>
                  <path class="cls-28" d="M294.06,295.56c-.84.12-1,1.88,0,1.73C294.9,297.16,295.1,295.41,294.06,295.56Z"/>
                  <path class="cls-28" d="M287.39,292.13l0,0a1.44,1.44,0,0,0-.27.28.74.74,0,0,0-.14.28.06.06,0,0,0,0,0,.38.38,0,0,0,0,.1,1.13,1.13,0,0,0,0,.32v0h0a.61.61,0,0,0,.16.28.38.38,0,0,0,.41.08.9.9,0,0,0,.69-.73C288.28,292.29,287.84,291.84,287.39,292.13Z"/>
                </g>
              </g>
              <g>
                <path class="cls-59" d="M99.3,368.84s25.91-4.89,25.19-18.34S99.3,368.84,99.3,368.84Z"/>
                <path class="cls-60" d="M94.27,374.28s14.39-33.63,25.19-42.19-18.72-9.25-25.19,26Z"/>
                <path class="cls-61" d="M93.19,369.75s7.26-26.16-19.79-27.52C61.16,341.62,93.19,369.75,93.19,369.75Z"/>
              </g>
            </g>
            <g>
              <g>
                <g>
                  <rect class="cls-62" x="95.43" y="199.47" width="113.62" height="4.58"/>
                  <rect class="cls-63" x="95.43" y="199.47" width="113.62" height="0.92"/>
                  <rect class="cls-64" x="95.43" y="200.39" width="113.62" height="2.75"/>
                  <rect class="cls-62" x="95.43" y="213.12" width="113.62" height="4.58"/>
                  <rect class="cls-63" x="95.43" y="213.12" width="113.62" height="0.92"/>
                  <rect class="cls-64" x="95.43" y="214.03" width="113.62" height="2.75"/>
                  <rect class="cls-62" x="97.03" y="226.72" width="112.02" height="4.65"/>
                  <rect class="cls-63" x="97.03" y="226.72" width="112.02" height="0.93"/>
                  <rect class="cls-64" x="97.03" y="227.65" width="112.02" height="2.79"/>
                  <rect class="cls-65" x="167.09" y="196.32" width="6.21" height="38.62"/>
                  <polygon class="cls-66" points="172.61 197.25 167.09 234.94 167.09 196.32 173.3 196.32 172.61 197.25"/>
                  <polygon class="cls-67" points="167.78 234.94 167.09 234.94 167.09 196.32 167.78 197.25 167.78 234.94"/>
                  <rect class="cls-68" x="167.78" y="197.25" width="4.83" height="37.69"/>
                  <rect class="cls-65" x="127.61" y="196" width="6.21" height="38.62"/>
                  <polygon class="cls-66" points="133.13 196.93 127.61 234.62 127.61 196 133.82 196 133.13 196.93"/>
                  <polygon class="cls-67" points="128.3 234.62 127.61 234.62 127.61 196 128.3 196.93 128.3 234.62"/>
                  <rect class="cls-68" x="128.3" y="196.93" width="4.83" height="37.69"/>
                  <rect class="cls-65" x="202.04" y="196.32" width="6.21" height="38.62"/>
                  <polygon class="cls-66" points="207.56 197.25 202.04 234.94 202.04 196.32 208.25 196.32 207.56 197.25"/>
                  <polygon class="cls-67" points="202.74 234.94 202.04 234.94 202.04 196.32 202.74 197.25 202.74 234.94"/>
                  <rect class="cls-68" x="202.73" y="197.25" width="4.83" height="37.69"/>
                </g>
                <g>
                  <rect class="cls-62" x="6.11" y="199.21" width="90.92" height="4.81"/>
                  <rect class="cls-63" x="6.11" y="199.21" width="90.92" height="0.96"/>
                  <rect class="cls-64" x="6.11" y="200.17" width="90.92" height="2.88"/>
                  <rect class="cls-62" x="6.11" y="212.99" width="90.92" height="4.81"/>
                  <rect class="cls-63" x="6.11" y="212.99" width="90.92" height="0.96"/>
                  <rect class="cls-64" x="6.11" y="213.95" width="90.92" height="2.88"/>
                  <rect class="cls-62" x="6.11" y="226.77" width="90.92" height="4.81"/>
                  <rect class="cls-63" x="6.11" y="226.77" width="90.92" height="0.96"/>
                  <rect class="cls-64" x="6.11" y="227.73" width="90.92" height="2.88"/>
                  <rect class="cls-65" x="7.28" y="195.36" width="6.21" height="39.9"/>
                  <polygon class="cls-66" points="12.8 196.32 7.28 235.26 7.28 195.36 13.49 195.36 12.8 196.32"/>
                  <polygon class="cls-67" points="7.97 235.26 7.28 235.26 7.28 195.36 7.97 196.32 7.97 235.26"/>
                  <rect class="cls-68" x="7.97" y="196.32" width="4.83" height="38.94"/>
                  <rect class="cls-65" x="48.65" y="195.36" width="6.21" height="39.9"/>
                  <polygon class="cls-66" points="54.17 196.32 48.66 235.26 48.66 195.36 54.86 195.36 54.17 196.32"/>
                  <polygon class="cls-67" points="49.34 235.26 48.66 235.26 48.66 195.36 49.34 196.32 49.34 235.26"/>
                  <rect class="cls-68" x="49.34" y="196.32" width="4.83" height="38.94"/>
                  <rect class="cls-65" x="90.03" y="195.36" width="6.21" height="39.9"/>
                  <polygon class="cls-66" points="95.55 196.32 90.03 235.26 90.03 195.36 96.24 195.36 95.55 196.32"/>
                  <polygon class="cls-67" points="90.72 235.26 90.03 235.26 90.03 195.36 90.72 196.32 90.72 235.26"/>
                  <rect class="cls-68" x="90.72" y="196.32" width="4.83" height="38.94"/>
                </g>
              </g>
              <g>
                <g>
                  <rect class="cls-62" x="290.63" y="199.47" width="76.19" height="4.58"/>
                  <rect class="cls-63" x="290.63" y="199.47" width="79.08" height="0.92"/>
                  <rect class="cls-64" x="290.63" y="200.39" width="78.46" height="2.75"/>
                  <rect class="cls-62" x="290.63" y="213.12" width="77.77" height="4.58"/>
                  <rect class="cls-63" x="290.63" y="213.12" width="77.5" height="0.92"/>
                  <rect class="cls-64" x="290.63" y="214.03" width="75.85" height="2.75"/>
                  <rect class="cls-62" x="292.24" y="226.72" width="76.44" height="4.65"/>
                  <rect class="cls-63" x="292.24" y="226.72" width="75.89" height="0.93"/>
                  <rect class="cls-64" x="292.24" y="227.65" width="75.34" height="2.79"/>
                  <rect class="cls-65" x="362.29" y="196.32" width="6.21" height="38.62"/>
                  <polygon class="cls-66" points="367.81 197.25 362.29 234.94 362.29 196.32 368.5 196.32 367.81 197.25"/>
                  <polygon class="cls-67" points="362.98 234.94 362.29 234.94 362.29 196.32 362.98 197.25 362.98 234.94"/>
                  <rect class="cls-68" x="362.98" y="197.25" width="4.83" height="37.69"/>
                  <rect class="cls-65" x="322.82" y="196" width="6.21" height="38.62"/>
                  <polygon class="cls-66" points="328.33 196.93 322.82 234.62 322.82 196 329.02 196 328.33 196.93"/>
                  <polygon class="cls-67" points="323.51 234.62 322.82 234.62 322.82 196 323.51 196.93 323.51 234.62"/>
                  <rect class="cls-68" x="323.51" y="196.93" width="4.83" height="37.69"/>
                </g>
                <g>
                  <rect class="cls-62" x="201.32" y="199.21" width="90.92" height="4.81"/>
                  <rect class="cls-63" x="201.32" y="199.21" width="90.92" height="0.96"/>
                  <rect class="cls-64" x="201.32" y="200.17" width="90.92" height="2.88"/>
                  <rect class="cls-62" x="201.32" y="212.99" width="90.92" height="4.81"/>
                  <rect class="cls-63" x="201.32" y="212.99" width="90.92" height="0.96"/>
                  <rect class="cls-64" x="201.32" y="213.95" width="90.92" height="2.88"/>
                  <rect class="cls-62" x="201.32" y="226.77" width="90.92" height="4.81"/>
                  <rect class="cls-63" x="201.32" y="226.77" width="90.92" height="0.96"/>
                  <rect class="cls-64" x="201.32" y="227.73" width="90.92" height="2.88"/>
                  <rect class="cls-65" x="202.49" y="195.36" width="6.21" height="39.9"/>
                  <polygon class="cls-66" points="208 196.32 202.49 235.26 202.49 195.36 208.69 195.36 208 196.32"/>
                  <polygon class="cls-67" points="203.18 235.26 202.49 235.26 202.49 195.36 203.18 196.32 203.18 235.26"/>
                  <rect class="cls-68" x="203.17" y="196.32" width="4.83" height="38.94"/>
                  <rect class="cls-65" x="243.86" y="195.36" width="6.21" height="39.9"/>
                  <polygon class="cls-66" points="249.38 196.32 243.86 235.26 243.86 195.36 250.07 195.36 249.38 196.32"/>
                  <polygon class="cls-67" points="244.55 235.26 243.86 235.26 243.86 195.36 244.55 196.32 244.55 235.26"/>
                  <rect class="cls-68" x="244.55" y="196.32" width="4.83" height="38.94"/>
                  <rect class="cls-65" x="285.23" y="195.36" width="6.21" height="39.9"/>
                  <polygon class="cls-66" points="290.75 196.32 285.23 235.26 285.23 195.36 291.44 195.36 290.75 196.32"/>
                  <polygon class="cls-67" points="285.92 235.26 285.23 235.26 285.23 195.36 285.92 196.32 285.92 235.26"/>
                  <rect class="cls-68" x="285.92" y="196.32" width="4.83" height="38.94"/>
                </g>
              </g>
            </g>
          </g>
        </g>
      </g>
    </g>
  </g>
</svg>
