<svg id="Layer_1" data-name="Layer 1" xmlns="http://www.w3.org/2000/svg" width="147.61" height="327.63" viewBox="0 0 147.61 327.63">
  <defs>
    <style>
      .cls-1 {
        fill: #ff0;
      }

      .cls-2 {
        fill: #ffb67c;
      }

      .cls-3 {
        fill: #ef9659;
      }

      .cls-4 {
        fill: #d67f43;
      }
    </style>
  </defs>
  <g>
    <path class="cls-1" d="M127.86,314c0-53.6-1.31-81.24-1.68-87.95,3.1-6.69,13.45-33.36,13.22-91.23a440.42,440.42,0,0,0-3.23-79.43,15,15,0,0,0-3.84-8.87A11.35,11.35,0,0,0,124,42.7a10.69,10.69,0,0,0-1.13.06,10.92,10.92,0,0,0-5.3,2.08l-.61-13.56c-.07-8.89-6-15.83-13.5-15.83A12.9,12.9,0,0,0,92.34,22.2c-.59-8.27-6.28-14.56-13.45-14.56-6.53,0-11.83,5.21-13.17,12.4a12.48,12.48,0,0,0-8-4.55,13.52,13.52,0,0,0-1.42-.08A12.69,12.69,0,0,0,47,19.66a17.61,17.61,0,0,0-4.52,10.28,584.65,584.65,0,0,0-5.5,79.94C30.6,96.31,22.06,95.16,19.38,95.16a10,10,0,0,0-6.26,2.06C8.37,101,8.78,107.45,9,111.32c0,.36,0,.69.06,1,.7,15.15.07,22-1.31,37.1l-.08.87c-.17,1.87-.45,5,9,30.44a11.26,11.26,0,0,0,.3,1.18,140.3,140.3,0,0,0,7.26,18.53,2.75,2.75,0,0,0,.14.3,153.5,153.5,0,0,0,20.21,31.81V314a6,6,0,0,0,6,6h71.3A6,6,0,0,0,127.86,314Z"/>
    <g>
      <path class="cls-2" d="M50.57,230.32a145.48,145.48,0,0,1-27.88-50.19c-2.22-7.16,4.79-33.2,13.14-42.41-.16,8.77,4.64,19.53,4.64,19.53,2-.56,3.15-18.74,2.69-39.28l89.92,1.09c2.73,77.76-13,105.76-13,105.76s1.76,26.61,1.76,89.18H50.56Z"/>
      <path class="cls-2" d="M68.75,143a593.1,593.1,0,0,1-6.1-90.49c.06-6.8.31-13.6.66-20.39A11.94,11.94,0,0,0,61.87,25a6.8,6.8,0,0,0-4.93-3.52,6.59,6.59,0,0,0-5.6,2.3,11.7,11.7,0,0,0-3,6.9A598.67,598.67,0,0,0,43,122.77c.1,7.52.32,15.06.73,22.57C44.62,155.29,69.73,152.5,68.75,143Z"/>
      <path class="cls-2" d="M116,144.16,110.93,31.43c0-5.51-3.36-10-7.5-10s-7.5,4.47-7.5,10L90.85,144.16C90.8,153.9,116.06,153.9,116,144.16Z"/>
      <path class="cls-2" d="M91.46,136.35,86.39,23.62c0-5.51-3.36-10-7.5-10s-7.5,4.47-7.5,10L66.32,136.35C66.26,146.09,91.52,146.09,91.46,136.35Z"/>
      <path class="cls-2" d="M132.59,146.38A426.51,426.51,0,0,0,130.21,56a9.15,9.15,0,0,0-2.29-5.44,5.28,5.28,0,0,0-4.44-1.86,5.46,5.46,0,0,0-4,2.71,9.32,9.32,0,0,0-1.23,5.63,409.85,409.85,0,0,1-5.62,86.82C111.62,151.23,131.61,154.24,132.59,146.38Z"/>
      <path class="cls-2" d="M29.71,198s-16.55-41.63-16-47.18c1.45-15.87,2.14-22.94,1.4-38.8-.13-2.88-.81-8.08,1.76-10.1,2.83-2.23,11.14-.41,16.49,15,3,8.56,2.65,15.72,2.47,22.2a136.08,136.08,0,0,0,1,23.65C35.79,170.2,29.71,198,29.71,198Z"/>
      <path class="cls-3" d="M49.41,151c-2.64,1.21,12.92,5.84,8.88,5.67s-18.69-1.08-7.14,1.85,22.21,15.91,25.56,20.39c3.89,5.18,12.42,23,11.66,15.56S86.23,182.53,85,176s8.77-3.61,14.42-1.84-9.29-10-4.7-12.71,25.8-5.36,15.76-7.08S52.05,149.74,49.41,151Z"/>
      <g>
        <path class="cls-4" d="M34.91,141.68c.16.24-.4,1-1.58,1.87a14.6,14.6,0,0,1-2.2,1.35,20,20,0,0,1-2.94,1.17,19.47,19.47,0,0,1-3.1.64,15.64,15.64,0,0,1-2.58.09c-1.47-.1-2.35-.41-2.35-.69,0-.62,3.46-.89,7.41-2.1S34.55,141.18,34.91,141.68Z"/>
        <path class="cls-4" d="M87.44,207.37c-.39,0-.92-3.76-2.74-9.59a69.35,69.35,0,0,0-4-9.91,58.84,58.84,0,0,0-7-11c-.37-.44-.72-.9-1.1-1.32l-1.12-1.27c-.78-.81-1.54-1.62-2.33-2.36a49.75,49.75,0,0,0-4.78-4l-.6-.45-.6-.41c-.4-.28-.79-.56-1.19-.82-.8-.5-1.56-1-2.34-1.45-1.53-.91-3-1.63-4.4-2.28A55.76,55.76,0,0,0,48.52,160c-.81-.28-1.46-.44-1.89-.61S46,159.08,46,159s.27-.12.73-.11a12.54,12.54,0,0,1,2,.17,34.49,34.49,0,0,1,7.2,1.87A43.6,43.6,0,0,1,60.64,163c.83.41,1.66.9,2.52,1.4.42.25.84.53,1.27.81l.64.41.64.45a45.25,45.25,0,0,1,5.1,4.13c.85.76,1.65,1.6,2.47,2.44L74.47,174c.4.45.77.92,1.15,1.38a53.64,53.64,0,0,1,7.12,11.53,56.81,56.81,0,0,1,3.62,10.41C87.8,203.44,87.72,207.35,87.44,207.37Z"/>
        <path class="cls-4" d="M114.36,159.42c0,.28-3.66.7-9.63.85-1.49,0-3.12.06-4.88,0s-3.63-.07-5.6-.13c-3.94-.15-8.28-.44-12.81-.9s-8.83-1.08-12.73-1.74c-1.94-.34-3.79-.66-5.51-1s-3.31-.7-4.77-1c-5.81-1.36-9.32-2.53-9.25-2.8s3.7.34,9.55,1.31c1.46.24,3.06.51,4.79.77s3.56.54,5.5.83c3.88.54,8.15,1.08,12.64,1.55s8.78.8,12.69,1.07c2,.11,3.81.24,5.55.31s3.37.17,4.85.23C110.67,159,114.35,159.11,114.36,159.42Z"/>
        <path class="cls-4" d="M114,227.64c0,.24-3.13,1-8.33,1.77-1.31.19-2.73.39-4.27.57s-3.18.35-4.91.52c-3.47.3-7.29.55-11.3.67s-7.84.09-11.32,0c-1.74-.06-3.39-.12-4.93-.23s-3-.2-4.3-.32c-5.24-.47-8.44-1-8.42-1.28s3.27-.16,8.5,0c1.31,0,2.74.07,4.27.09s3.18,0,4.91.06c3.45,0,7.25,0,11.23-.14S93,229,96.4,228.79c1.72-.12,3.36-.22,4.89-.35s3-.23,4.26-.34C110.77,227.66,114,227.37,114,227.64Z"/>
        <path class="cls-4" d="M112.09,237.34c0,.52-12.29,1.23-27.48,1.58s-27.52.24-27.53-.28,12.29-1.22,27.48-1.58S112.08,236.83,112.09,237.34Z"/>
      </g>
      <g>
        <path class="cls-4" d="M64.11,118.16c-.16.61-4.22-.11-9.13.56s-8.68,2.32-9,1.76c-.13-.24.66-1,2.2-1.85.39-.2.81-.42,1.29-.62s1-.39,1.54-.58a21,21,0,0,1,3.68-.83,21.38,21.38,0,0,1,3.78-.14,17.07,17.07,0,0,1,3,.45C63.23,117.33,64.18,117.88,64.11,118.16Z"/>
        <path class="cls-4" d="M60.19,51.8c-.22.49-3-.32-6.38-.51s-6.25.21-6.4-.3c-.07-.24.58-.68,1.76-1.05a14.11,14.11,0,0,1,9.41.6C59.7,51.05,60.29,51.57,60.19,51.8Z"/>
        <path class="cls-4" d="M60.41,82.24c-.18.51-3.4-.31-7.38-.16s-7.15,1.09-7.36.59c-.09-.22.6-.79,1.91-1.34A13.07,13.07,0,0,1,50,80.59a17.17,17.17,0,0,1,3-.38,18.26,18.26,0,0,1,3,.2,13.43,13.43,0,0,1,2.41.6C59.77,81.48,60.49,82,60.41,82.24Z"/>
      </g>
      <g>
        <path class="cls-4" d="M88,117.63c-.15.6-4.18,0-9.12.2s-8.94.9-9.12.31c-.08-.27.84-.84,2.47-1.37a20.44,20.44,0,0,1,2.92-.72,26.63,26.63,0,0,1,7.35-.21,22.38,22.38,0,0,1,3,.55C87.08,116.83,88,117.35,88,117.63Z"/>
        <path class="cls-4" d="M85.08,44.38c-.15.51-3.07,0-6.65-.06s-6.51.24-6.64-.27c-.06-.25.62-.66,1.83-1a16.55,16.55,0,0,1,4.86-.57,16.22,16.22,0,0,1,4.82.82C84.49,43.7,85.15,44.14,85.08,44.38Z"/>
        <path class="cls-4" d="M85.74,77.67c-.21.5-3.43-.5-7.47-.54s-7.29.81-7.48.3c-.09-.23.64-.77,2-1.27a13.55,13.55,0,0,1,2.44-.65,17.42,17.42,0,0,1,3.08-.24,17.17,17.17,0,0,1,3.08.34,14.56,14.56,0,0,1,2.41.72C85.12,76.88,85.83,77.44,85.74,77.67Z"/>
      </g>
      <g>
        <path class="cls-4" d="M112,118.6c-.22.58-3.67-.33-8-.5s-7.8.37-8-.23c-.07-.27.74-.79,2.19-1.24a15.4,15.4,0,0,1,2.61-.55,20.32,20.32,0,0,1,3.27-.12,19.58,19.58,0,0,1,3.24.42,16.2,16.2,0,0,1,2.55.78C111.37,117.74,112.13,118.34,112,118.6Z"/>
        <path class="cls-4" d="M109.21,50.87c-.18.51-2.87,0-6.16-.16s-6,.17-6.16-.34c-.06-.24.57-.65,1.7-1a14.27,14.27,0,0,1,4.53-.52,13.82,13.82,0,0,1,4.48.89C108.69,50.18,109.29,50.64,109.21,50.87Z"/>
        <path class="cls-4" d="M110.42,81.76c-.2.5-3.39-.42-7.37-.37s-7.17.93-7.37.42c-.09-.22.61-.77,1.93-1.3a13.81,13.81,0,0,1,2.39-.69,16.64,16.64,0,0,1,6.08,0,14,14,0,0,1,2.4.67C109.8,81,110.51,81.53,110.42,81.76Z"/>
      </g>
      <g>
        <path class="cls-4" d="M131.86,120.4c-.2.58-3.05.08-6.52-.23s-6.37-.38-6.45-1c0-.29.66-.66,1.87-.92a16.11,16.11,0,0,1,4.78-.23,16.35,16.35,0,0,1,4.65,1.11C131.33,119.63,132,120.12,131.86,120.4Z"/>
        <path class="cls-4" d="M129.67,73.05c-.12.23-.74.15-1.64,0-.45-.07-1-.13-1.56-.18s-1.22-.07-1.89-.06-1.3.08-1.88.15-1.11.17-1.56.26c-.89.17-1.5.28-1.63,0s.27-.74,1.16-1.28a7.39,7.39,0,0,1,1.66-.71,9.31,9.31,0,0,1,2.2-.33,9.14,9.14,0,0,1,2.22.22,7.58,7.58,0,0,1,1.7.63C129.36,72.32,129.78,72.83,129.67,73.05Z"/>
        <path class="cls-4" d="M132.06,94.09c-.16.5-2.75.07-5.91,0s-5.78.08-5.9-.44c-.06-.24.55-.63,1.63-.94a13.86,13.86,0,0,1,4.34-.48,14.11,14.11,0,0,1,4.29.83C131.56,93.41,132.13,93.85,132.06,94.09Z"/>
      </g>
    </g>
  </g>
</svg>
