<svg xmlns="http://www.w3.org/2000/svg" width="340.39" height="287.15" viewBox="0 0 340.39 287.15">
  <defs>
    <style>
      .cls-1 {
        isolation: isolate;
      }

      .cls-2 {
        fill: #ff0;
      }

      .cls-3 {
        fill: #eb4586;
        stroke: #bf2e6a;
      }

      .cls-3, .cls-5 {
        stroke-miterlimit: 10;
      }

      .cls-4 {
        fill: #bc6080;
      }

      .cls-4, .cls-6 {
        opacity: 0.25;
        mix-blend-mode: multiply;
      }

      .cls-5, .cls-6 {
        fill: #875fa7;
      }

      .cls-5 {
        stroke: #65497f;
      }
    </style>
  </defs>
  <g class="cls-1">
    <g id="Layer_1" data-name="Layer 1">
      <g>
        <path class="cls-2" d="M23.56,276.5c7.83,0,18.91-2.49,30-6.7,4.39,1.23,9.13,2.37,14.11,3.4,19.53,4,43.13,6.2,66.47,6.21h.12c3.19,0,6.39,0,9.5-.12l4.75-.16c6.32-.25,12.49-.67,18.33-1.25,7.51-.75,14.51-1.76,20.82-3,2.6-.52,5.11-1.08,7.46-1.67a104.24,104.24,0,0,0,10.73-3.27c9.85,4.07,19.57,6.38,27,6.38,5.64,0,9.8-1.35,12.38-4a10,10,0,0,0,1.81-2.64,12.15,12.15,0,0,0,.9-2.67,20.67,20.67,0,0,0,.29-6.17c14.47-1.7,31.39-4.59,42.36-9.43,9.71,5.17,19.32,8.1,26.73,8.1.63,0,1.23,0,1.81-.06,6.22-.43,9.41-3.05,11-5.18,7-9.43-2.08-37.74-8.25-50.09,6.71-39.73,8.16-87.24,3.85-127.55-.56-5.23-1.2-10.12-1.91-14.54-.14-.9-.28-1.78-.43-2.63.29-1.21,1.08-3.82,1.74-6,5.2-17.18,9.07-32,3.52-38.93-1.78-2.24-5.22-4.91-11.53-4.91-10.07,0-23.63,7-29.44,10.28C261.38,12.71,215,7.74,173.26,7.74c-29.73,0-69.28,2.42-92.77,13.62-11.38-7.68-19-11-25-11a12,12,0,0,0-11.06,6.32c-3.6,6.54-1.7,18.85,2.52,36.6.36,1.51.76,3.19.93,4-1.27,10.76-2.16,22-2.67,33.44C34.55,85.38,27.16,83,21.57,83c-5.92,0-9.11,2.71-10.75,5-4.61,6.41-1.54,18,2.3,30.33.27.86.58,1.88.78,2.56C8.66,155.15,10,195.09,17.78,233.55c-.45,1.53-1.79,4.9-2.9,7.68-6.73,17-9.41,25.49-4.92,30.58,2.79,3.16,7.24,4.69,13.6,4.69Z"/>
        <g>
          <g>
            <path class="cls-3" d="M325.3,250.67c-3.79,5.12-18.23,3.36-34.52-6-12.57,6.73-41.26,11.13-73.65,12.63-9.19.42-18.67.62-28.16.56h-.39c-35.33-.22-70.8-3.83-91.85-11.52a58.06,58.06,0,0,1-10-4.62c-1.08.56-2.16,1.1-3.25,1.62-10.73,5.15-21.91,8.29-29,7.27a11,11,0,0,1-4-1.28,6.37,6.37,0,0,1-2.15-2c-1.66-2.46-.11-10.25,2.17-18.67,3.06-11.31,7.44-23.75,7.11-25.87A579.18,579.18,0,0,1,50.88,99c0-.56,0-1.12,0-1.68.41-13.35,1.37-26.75,3-40,0-2.42-8.44-30.05-4.25-37.69S67,19.17,80,28.33c41.44-22.92,163.8-15.09,208.45-2,7.61-4.58,29.32-15.82,35.45-8.1,5.63,7.07-7.06,38.84-6.62,41.34.2,1.1.38,2.23.57,3.39,5.19,32.67,6.87,89.75-2.27,142.14C322.88,218.27,329.71,244.71,325.3,250.67Z"/>
            <path class="cls-4" d="M325.29,250.67c-3.78,5.12-18.22,3.36-34.51-6-12.57,6.73-41.26,11.13-73.65,12.63-43.48,2-93.62-1.18-120.4-11,17.68-6.38,37.5-3.42,56.23-4.87,10.31-.8,20.51-3,30.69-5.23l29-6.3,4.12-.9c18.19-3.95,37.51-8.62,51-25.11,10.43-12.78,15.8-30.9,20.86-48.38L306.14,94.8c3.18-11,6.57-22.36,11.75-31.8,5.19,32.67,6.87,89.75-2.28,142.14C322.88,218.27,329.71,244.71,325.29,250.67Z"/>
          </g>
          <g>
            <path class="cls-5" d="M231.11,232.86c7.63-33.39,7.82-69.25,4.72-95a171.86,171.86,0,0,0-3-17.72c-.45-1.94,12.4-26.54,6.71-32-6.22-6-28.21,2.73-35.92,6.27C158.41,84.22,95.23,82.66,46.48,98.21c-13.26-7.09-26.54-12.69-30.79-6.78S20,118.75,20,120.63c-6.11,38.88-2.94,79.42,3.86,112.72.59,2.85-13.34,30-9.4,34.49,4.72,5.34,22.79,2,38.81-4.37,4.88,1.44,10.11,2.72,15.61,3.85,45.3,9.28,108.28,7.92,137.08-3.87,16.49,7.27,31.12,8.64,35,4.68C245.39,263.51,238.46,243,231.11,232.86Z"/>
            <path class="cls-6" d="M235.83,137.86c-10.37,21.35-19.94,43.06-27.25,65.61-4,12.42-7.74,25.72-17.23,34.67-9.26,8.74-22.39,11.77-34.91,14.07-29.12,5.37-58.72,8.69-87.56,15.11,45.3,9.28,108.28,7.92,137.08-3.87,16.49,7.27,31.12,8.64,35,4.68,4.47-4.62-2.46-25.1-9.81-35.27C238.74,199.47,238.93,163.61,235.83,137.86Z"/>
          </g>
        </g>
      </g>
    </g>
  </g>
</svg>
