<svg id="Layer_1" data-name="Layer 1" xmlns="http://www.w3.org/2000/svg" width="189.12" height="331.11" viewBox="0 0 189.12 331.11">
  <defs>
    <style>
      .cls-1 {
        fill: #ff0;
      }

      .cls-2, .cls-7 {
        fill: #196131;
      }

      .cls-2, .cls-3, .cls-7 {
        stroke: #1c3d1c;
      }

      .cls-11, .cls-12, .cls-13, .cls-2, .cls-3, .cls-7, .cls-9 {
        stroke-miterlimit: 10;
      }

      .cls-2 {
        stroke-width: 0.25px;
      }

      .cls-3 {
        fill: #27ac4a;
        stroke-width: 0.5px;
      }

      .cls-4 {
        fill: #1d8240;
      }

      .cls-5 {
        fill: #35b34a;
      }

      .cls-6 {
        fill: #215a2d;
      }

      .cls-8 {
        fill: #188441;
      }

      .cls-9 {
        fill: #7456a3;
      }

      .cls-11, .cls-12, .cls-9 {
        stroke: #312254;
      }

      .cls-10, .cls-11 {
        fill: #5e3593;
      }

      .cls-12 {
        fill: #724d9e;
      }

      .cls-13 {
        fill: #f7991c;
        stroke: #de6e26;
        stroke-width: 0.75px;
      }

      .cls-14 {
        fill: #fcbf10;
      }

      .cls-15 {
        fill: #fcd58a;
      }

      .cls-16 {
        fill: #836db0;
      }
    </style>
  </defs>
  <g>
    <path class="cls-1" d="M6.48,221.51a36.62,36.62,0,0,0,5.93,9.83l0,0c9.62,11.38,24.74,15.48,32.1,16.85a65.74,65.74,0,0,1,7.39,18.81c.24,1.29.5,2.59.78,3.89.51,2.95.65,4.83.65,4.83h0a6.75,6.75,0,0,0,1.51,4,170.18,170.18,0,0,0,6.83,19.91,6.7,6.7,0,0,0,1.64,3.85,183.29,183.29,0,0,0,10,19.43,9.19,9.19,0,0,0,7.5,4.45h.48a9.49,9.49,0,0,0,4.18-1,9.08,9.08,0,0,0,4.67-5.48,8.77,8.77,0,0,0-.87-6.93,161,161,0,0,1-13.29-28.21c.32-1.42.67-2.78,1.06-4.07,6.92-2,22.13-7.68,30.77-20.48l.18-.27a36,36,0,0,0,4.7-10.25c0-.13.08-.26.11-.39a37.46,37.46,0,0,0,1.19-7.41,3.87,3.87,0,0,0,0-.48,45.42,45.42,0,0,0-.81-10.77c0-.22-.07-.34-.07-.34a6,6,0,0,0-5.89-4.83,5.64,5.64,0,0,0-.82.05,31.36,31.36,0,0,0-5.85,1.57,45.79,45.79,0,0,0-8.85,4.38,5.14,5.14,0,0,0-.49.32,49.32,49.32,0,0,0-8.63,7.2,6.28,6.28,0,0,0-.56.59A59.12,59.12,0,0,0,69.77,262a152.86,152.86,0,0,1-1.93-36.86,29.56,29.56,0,0,1,9.08-8.38c.8,0,1.59.06,2.36.06a36.82,36.82,0,0,0,16.23-3.49,5.6,5.6,0,0,0,.55-.27,31.17,31.17,0,0,0,5.77-3.81l.33-.28a28.41,28.41,0,0,0,4.21-4.52,20.65,20.65,0,0,0,2.1-3.39,6.07,6.07,0,0,0-2.6-7.79l-.65-.32a28.9,28.9,0,0,0-5.67-2.17,5.36,5.36,0,0,0-.77-.18A23.72,23.72,0,0,0,94.6,190a4.21,4.21,0,0,0-.62,0h-.44a23.15,23.15,0,0,0-6.39.9,6.75,6.75,0,0,0-.84.26c-7.19,2.34-12.39,7.68-15.48,11.74a218.85,218.85,0,0,1,16.79-49.82l.43-.51h.37A21,21,0,0,0,100,149.41a4.7,4.7,0,0,0,.54-.37,15.56,15.56,0,0,0,3.15-3,5.23,5.23,0,0,0,.41-.55,16.52,16.52,0,0,0,1.43-2.4,4.9,4.9,0,0,0,.24-.52,18.44,18.44,0,0,0,1.17-3.73c.07-.3.1-.47.1-.47a6.07,6.07,0,0,0-4.5-6.91,13.32,13.32,0,0,0-2.76-.33h-1a94,94,0,0,0,4.53-10.39l1.7-.21c1.79.17,3.55.25,5.25.25,15.1,0,22.7-6.71,25.89-10.71a22.28,22.28,0,0,0,4.21-8.37c1.62.15,3.19.23,4.71.23,10.88,0,16.63-4,18.87-6.15a18.67,18.67,0,0,0,7.58-8.38c4.5-1.08,11.2-4.83,13.54-17.32a16.07,16.07,0,0,0-3.27-13.66c-4.22-5.09-11.84-7.9-21.45-7.9a55.47,55.47,0,0,0-8.36.66,29.63,29.63,0,0,0,2.15-12.47c.64-4.24.05-12.82-4.34-18.53A14.37,14.37,0,0,0,138,12.37a19.62,19.62,0,0,0-4.75.62A34.47,34.47,0,0,0,118,21.36c-.16-.32-.34-.64-.53-.95-1.94-6.69-7.72-16.69-18.75-16.69a19.33,19.33,0,0,0-4.34.52c-.36,0-.77,0-1.24,0C82.42,4.21,70.72,11,69.64,30.09A60.58,60.58,0,0,0,41,20.64h-.21l-.46,0c-8.65.67-14.3,3.67-16.81,8.94-2,4.19-1.61,9.39,1,15C12.75,48.11,8.73,57.36,9,64.72A21.53,21.53,0,0,0,28.28,85.25c.94.1,1.92.18,2.95.24-4.69,5.71-5.2,11-4.71,14.58,1.19,8.65,8.77,14.26,11.76,16.16,3.21,3.67,10.48,8.71,21.45,8.71a47.9,47.9,0,0,0,16.82-3.36,39.64,39.64,0,0,0,5.16-2.32l.52-.28c.55.23,1.13.45,1.74.65-.76,1.68-1.58,3.37-2.48,5.05a331.53,331.53,0,0,0-18.34,39.08c-.34-.72-.67-1.36-1-1.92a35.52,35.52,0,0,0-9.31-16.57l-.44-.41a27.8,27.8,0,0,0-5.13-3.78l-.34-.19a26,26,0,0,0-5.25-2.22,18.85,18.85,0,0,0-3.65-.74l-.47,0a6.09,6.09,0,0,0-6,5.16s0,.23-.07.67a26,26,0,0,0-.07,5.57,4.91,4.91,0,0,0,.09.77,22.61,22.61,0,0,0,.83,3.77,6.38,6.38,0,0,0,.3.87,21.59,21.59,0,0,0,2.84,5.34,6.12,6.12,0,0,0,.53.7c4.8,6.08,12,8.85,16.47,10a66.24,66.24,0,0,1,4.13,12.33,195.76,195.76,0,0,0-7.37,42.45,57.65,57.65,0,0,0-13.5-17.47,6.93,6.93,0,0,0-.58-.5,49.15,49.15,0,0,0-9.42-6.21q-.24-.14-.48-.24A45.19,45.19,0,0,0,16,197.79a32,32,0,0,0-6-.91H9.88a6,6,0,0,0-6,5.48l0,.37a45.4,45.4,0,0,0,.41,10.81,3.21,3.21,0,0,0,.07.43,36.84,36.84,0,0,0,2.05,7.32C6.43,221.36,6.45,221.44,6.48,221.51Z"/>
    <g>
      <g>
        <g>
          <path class="cls-2" d="M68.06,299.62h0c-.19,0-.34-.29-.33-.6s.46-26.49,12.67-35.28c.17-.13.38,0,.46.29a.73.73,0,0,1-.16.74c-11.84,8.53-12.29,34.08-12.29,34.33S68.23,299.61,68.06,299.62Z"/>
          <g>
            <path class="cls-3" d="M72.36,276.74s42.13-8.42,35-44.24C107.33,232.5,78.64,236.47,72.36,276.74Z"/>
            <path class="cls-4" d="M73.09,276s6.93-29.69,34-42.86C107.05,233.13,78.81,237.35,73.09,276Z"/>
            <path class="cls-5" d="M73.09,276s33.64-10.54,34.24-43.49C107.33,232.5,114.16,266.05,73.09,276Z"/>
            <g>
              <polygon class="cls-6" points="106.36 234.73 73.95 276.37 72.36 276.74 72.64 275.06 106.36 234.73"/>
              <g>
                <path class="cls-6" d="M78.48,269.66s4.84,1.76,17-4.41"/>
                <path class="cls-6" d="M78.85,256.64s-2.31,8.25-.41,12.72"/>
                <path class="cls-6" d="M85.8,261.14s4.67,2.7,17.18-3.36"/>
                <path class="cls-6" d="M86.77,244.41s-2.45,10.32-1.07,15.79"/>
                <path class="cls-6" d="M107,248.93s-7.73,5.26-15.29,4.59"/>
                <path class="cls-6" d="M94.8,237.7s-3.94,6.54-2.57,13.93"/>
                <path class="cls-6" d="M102.69,233.77s-3.21,4.09-2.4,8.76"/>
                <path class="cls-6" d="M108.09,242.35s-9.11,4.26-9.45,2.29"/>
              </g>
            </g>
          </g>
        </g>
        <g>
          <path class="cls-2" d="M60.12,276.23h.08a.8.8,0,0,0,.76-.84c0-.38-2.4-37.73-31.55-50.85a.8.8,0,0,0-1.06.41.79.79,0,0,0,.4,1.06c28.27,12.72,30.59,49.1,30.61,49.46A.79.79,0,0,0,60.12,276.23Z"/>
          <path class="cls-3" d="M49.59,242.93S6.78,239.28,9.88,202.88C9.88,202.88,38.83,203.61,49.59,242.93Z"/>
          <path class="cls-4" d="M48.78,242.26s-10.22-28.72-38.56-38.78C10.22,203.48,38.76,204.51,48.78,242.26Z"/>
          <path class="cls-5" d="M48.78,242.26s-34.61-6.7-38.9-39.38C9.88,202.88,6.85,237,48.78,242.26Z"/>
          <g>
            <polygon class="cls-6" points="11.09 205 47.97 242.73 49.59 242.93 49.12 241.28 11.09 205"/>
            <g>
              <path class="cls-6" d="M42.71,236.57s-4.61,2.3-17.38-2.47"/>
              <path class="cls-6" d="M40.89,223.68s3.22,7.94,1.82,12.59"/>
              <path class="cls-6" d="M34.48,228.93s-4.33,3.21-17.45-1.41"/>
              <path class="cls-6" d="M31.64,212.42s3.6,10,2.84,15.57"/>
              <path class="cls-6" d="M12,219.18s8.27,4.36,15.72,2.84"/>
              <path class="cls-6" d="M22.91,206.65s4.65,6,4.12,13.55"/>
              <path class="cls-6" d="M14.63,203.63s3.65,3.7,3.37,8.43"/>
              <path class="cls-6" d="M10.22,212.76S19.75,216,19.87,214"/>
            </g>
          </g>
        </g>
        <g>
          <path class="cls-2" d="M64.56,203.86c.12,0,.23-.2.25-.45,1.37-25.15-9.35-41.25-9.46-41.42s-.24-.08-.32.13a.82.82,0,0,0,0,.64c.11.15,10.65,16,9.3,40.62,0,.26.07.47.2.48Z"/>
          <g>
            <path class="cls-3" d="M56.94,165.62S35,162.57,37.58,143.92C37.58,143.92,52.47,145.08,56.94,165.62Z"/>
            <path class="cls-4" d="M56.54,165.25s-4.48-15.07-18.8-21C37.74,144.23,52.41,145.54,56.54,165.25Z"/>
            <path class="cls-5" d="M56.54,165.25s-17.64-4.39-19-21.33C37.58,143.92,35.09,161.39,56.54,165.25Z"/>
            <g>
              <polygon class="cls-6" points="38.15 145.04 56.11 165.47 56.94 165.62 56.74 164.76 38.15 145.04"/>
              <g>
                <path class="cls-6" d="M53.57,162.16s-2.44,1.05-8.89-1.75"/>
                <path class="cls-6" d="M53,155.47s1.44,4.18.6,6.53"/>
                <path class="cls-6" d="M49.54,158s-2.32,1.53-8.95-1.21"/>
                <path class="cls-6" d="M48.53,149.42s1.58,5.23,1,8.09"/>
                <path class="cls-6" d="M38.24,152.37s4.14,2.47,8,1.89"/>
                <path class="cls-6" d="M44.19,146.21a11.37,11.37,0,0,1,1.75,7.09"/>
                <path class="cls-6" d="M40,144.43a6.35,6.35,0,0,1,1.5,4.43"/>
                <path class="cls-6" d="M37.49,149s4.82,1.91,4.93.89"/>
              </g>
            </g>
          </g>
        </g>
        <g>
          <path class="cls-2" d="M73.57,167.48c-.08,0-.11-.16-.06-.31,4-15.14,13.51-22.58,13.61-22.65s.15,0,.16.13a.48.48,0,0,1-.14.37c-.1.08-9.39,7.39-13.36,22.22,0,.15-.14.26-.21.24Z"/>
          <g>
            <path class="cls-3" d="M85.47,146.35s13.56,2.45,15.65-9.08C101.12,137.27,92.09,135.08,85.47,146.35Z"/>
            <path class="cls-4" d="M85.78,146.21s5.57-8,15.18-8.78C101,137.43,92,135.36,85.78,146.21Z"/>
            <path class="cls-5" d="M85.78,146.21s11.28.82,15.34-8.94C101.12,137.27,99.2,148.08,85.78,146.21Z"/>
            <g>
              <polygon class="cls-6" points="100.56 137.82 85.99 146.43 85.47 146.35 85.76 145.88 100.56 137.82"/>
              <g>
                <path class="cls-6" d="M88.13,145s1.24,1.09,5.6.69"/>
                <path class="cls-6" d="M89.78,141.12s-1.66,2.19-1.62,3.75"/>
                <path class="cls-6" d="M91.32,143.28s1.08,1.36,5.52,1"/>
                <path class="cls-6" d="M93.58,138.4s-1.94,2.79-2.18,4.59"/>
                <path class="cls-6" d="M99.09,142.14a8.82,8.82,0,0,1-5.1-.43"/>
                <path class="cls-6" d="M96.77,137.35a7,7,0,0,0-2.41,3.85"/>
                <path class="cls-6" d="M99.59,137.1a4,4,0,0,0-1.75,2.34"/>
                <path class="cls-6" d="M100.19,140.3s-3.22.2-3.09-.43"/>
              </g>
            </g>
          </g>
        </g>
        <path class="cls-2" d="M59,228.75a.8.8,0,0,0,.81-.57c6.07-19.86,36.61-25.25,36.91-25.3a.81.81,0,0,0-.26-1.59c-1.3.22-31.83,5.62-38.18,26.42a.8.8,0,0,0,.53,1Z"/>
        <path class="cls-7" d="M81.19,321.38a3.48,3.48,0,0,0,1.69-.35,2.81,2.81,0,0,0,1.3-4c-48.16-81.18-7.09-158,8.38-187,19.87-37.2,2.41-62,1.66-63.06a3.42,3.42,0,0,0-4.45-.83,2.78,2.78,0,0,0-.91,4.06c.68,1,16.1,23.24-2.08,57.26C70.93,157.18,28.8,236,78.53,319.85A3.25,3.25,0,0,0,81.19,321.38Z"/>
        <path class="cls-8" d="M94.39,111.9s-3.31,14.08-10.51,26S61.35,180.33,58.23,239.13c0,0-4,35.84,21.59,81.18,0,0-11.22-15.1-18.23-41.92-5.91-22.62-9.25-54,1.36-93.66a265.9,265.9,0,0,1,19.62-47.92s5-7.06,11.39-25.38Z"/>
        <g>
          <g>
            <path class="cls-9" d="M75.13,62.21S46.64,48,35.68,47.94a3.81,3.81,0,0,1-3.16-1.62c-3.38-4.89-10.74-18.23,8.29-19.69,0,0,33.49,1.15,42.14,31.18Z"/>
            <path class="cls-10" d="M29.46,32.45S26.79,36,32.92,46.31a3.36,3.36,0,0,0,2.68,1.25c4.31.41,19.19,2.71,40.69,14.32,0,0-7.55-9.67-24.67-14.89a9.72,9.72,0,0,0-2.27-.39C45.14,46.37,30.52,44.67,29.46,32.45Z"/>
          </g>
          <path class="cls-11" d="M118.44,88.1,127,75.19s23.9,1.17,24,1.28,9.45,11.15,9.45,11.15l-.18,3.29s-6.72,8.58-27.92,3.28S118.44,88.1,118.44,88.1Z"/>
          <path class="cls-11" d="M131.86,38.05c.55-.49,16.24-1.73,16.24-1.73C149.62,56.58,124.22,69,124.22,69l-3.52,7.36s-8.78-8.67-8.36-9.17S131.31,38.55,131.86,38.05Z"/>
          <path class="cls-12" d="M103.75,72.09S123.66,65,142,58s39.9-3.6,37.17,11-12,12.77-12,12.77-2.8,16-22.46,8.56-18-1.48-21.82-.9S99,77.37,101.7,73.84,103.75,72.09,103.75,72.09Z"/>
          <path class="cls-9" d="M119.09,66.52s8.69-12.8,18.31-15,9.88-12.1,10.7-15.18.33-20.94-13.39-17.51-23.42,16.84-34.45,45.42,10,10,10,10Z"/>
          <path class="cls-11" d="M109.89,51.75s7.8-21.35,2.08-28.82c0,0-3.94-16.48-17-12.62,0,0-18.6-2.82-19.36,21.23S86,71.14,86,71.14l21.27-5.76Z"/>
          <path class="cls-9" d="M28.89,79.28a117.07,117.07,0,0,0,15.63.32A147.84,147.84,0,0,0,70.8,76.4c6.46-1.49,11.67-3.47,14.15-6l.23-4.28S50.77,45.83,29.26,49.64,13,77.66,28.89,79.28Z"/>
          <path class="cls-10" d="M44.52,79.6A147.84,147.84,0,0,0,70.8,76.4l8.12-7.21S65.85,65.82,44.52,79.6Z"/>
          <path class="cls-12" d="M42.29,111.64s9.18,13,32.18,4.32a34.76,34.76,0,0,0,4.41-2c17.67-9.45,12-27.22,12-27.22L95.76,76,100.6,65.4,87.36,67.2S51.61,73.6,37.58,87.43,42.29,111.64,42.29,111.64Z"/>
          <path class="cls-10" d="M78.88,114c17.67-9.45,12-27.22,12-27.22L95.76,76c-1.05.67-2.2,1.42-3.41,2.28C63.66,98.34,78.88,114,78.88,114Z"/>
          <path class="cls-9" d="M103.87,77.05s25.22,8,29.79,15.13-2.51,25.12-28.79,22.28c0,0-24.56,4-25.26-7.2S85.45,85.7,93.69,77.68,101.47,76.25,103.87,77.05Z"/>
          <path class="cls-13" d="M74.52,63.66C74,72.75,82.7,80.6,93.89,81.2S114.53,74.91,115,65.82s-8.19-16.94-19.37-17.54S75,54.57,74.52,63.66Z"/>
          <path class="cls-14" d="M81.14,61.28c-.38,7.16,6.45,13.34,15.25,13.81S112.63,70.14,113,63s-6.44-13.33-15.24-13.8S81.52,54.13,81.14,61.28Z"/>
          <path class="cls-15" d="M102.49,54.89c-.57,1.11.49,2.77,2.35,3.71s3.82.78,4.39-.33-.5-2.78-2.36-3.71S103,53.77,102.49,54.89Z"/>
          <path class="cls-16" d="M105.94,81.9c6.35-.66,12.4,3.61,17.6,6.71,3.66,2.18,9.56,5.51,9.37,10.43h0c-.3-5.11-7.92-7.89-11.76-9.92-5.14-2.69-9.42-5.81-15.2-7.06A.08.08,0,0,1,105.94,81.9Z"/>
          <path class="cls-16" d="M145,60c7.45-3.09,14-3.89,21.89-1.93,4.76,1.19,9.86,2.91,10.32,8.42,0,.11-.15.15-.16,0-.91-5.77-9.56-6.42-14.18-7.24-5.6-1-12.29-.33-17.79.95A.13.13,0,0,1,145,60Z"/>
          <path class="cls-16" d="M142.5,60.62h0a7.84,7.84,0,0,0-3.32,1.25s0,0,0,0A7.89,7.89,0,0,1,142.5,60.62Z"/>
          <g>
            <path class="cls-16" d="M132.85,65.4c.91-.54,1.85-1.06,2.78-1.58a20.66,20.66,0,0,1-2.74,1.67S132.8,65.43,132.85,65.4Z"/>
            <path class="cls-16" d="M136.68,63.16c-.34.22-.69.45-1.05.66Q136.15,63.46,136.68,63.16Z"/>
            <path class="cls-16" d="M137.74,62.63a7.49,7.49,0,0,0-1.06.53c.34-.21.69-.39,1-.62C137.75,62.49,137.8,62.6,137.74,62.63Z"/>
          </g>
          <path class="cls-16" d="M126.12,26.47c4.49-2.67,9.12-5.71,14.57-5a.11.11,0,0,1,0,.22c-4.72.11-9.63,4.31-13.62,6.59-4.87,2.78-7.79,6-11,10.52a.1.1,0,0,1-.16-.11C118.84,33.62,121,29.53,126.12,26.47Z"/>
          <path class="cls-16" d="M80.46,21.76a14.82,14.82,0,0,1,8.46-8.7s.08.07,0,.09c-9.19,4.27-8.53,18-9.69,26.26,0,.06-.12.09-.12,0C78.6,32.88,77.93,28.11,80.46,21.76Z"/>
          <path class="cls-16" d="M38.6,31.73c.44,0,.86-.06,1.3,0,0,0,0,0,0,0-.44,0-.87.08-1.31.09C38.53,31.82,38.54,31.73,38.6,31.73Z"/>
          <path class="cls-16" d="M40.81,31.58c7.47-1.83,14-1.37,20.9,2.15,6.34,3.24,12,9.59,14.07,16.39.06.18-.21.26-.29.1-6.11-12-21.08-20.94-34.66-18.53C40.76,31.7,40.73,31.59,40.81,31.58Z"/>
          <path class="cls-16" d="M33.59,52.66c5.29-.26,10.74,1.1,15.87,2.22,6.3,1.37,13.51,2.94,19.24,5.93.06,0,0,.1,0,.07-8.32-4.12-18.48-4.34-27.52-5.55-8.21-1.1-21.5-.19-21.63,11.1,0,.22-.33.23-.39,0C16.8,57.86,26.49,53,33.59,52.66Z"/>
          <path class="cls-16" d="M36.42,94.16c1.43-3.12,3.44-4.2,5.87-6.33a24.28,24.28,0,0,1,7.09-4.68c.13-.05.23.14.1.2-4.39,2.45-6.78,5.17-9.71,9.12-3.6,4.84-2.82,9,1.39,13,.21.2,0,.57-.31.47C35.37,104.08,34.12,99.18,36.42,94.16Z"/>
        </g>
      </g>
      <g>
        <path class="cls-3" d="M73.07,210.37s11.54-21.64,30-11.83C103,198.54,96.12,213.57,73.07,210.37Z"/>
        <path class="cls-4" d="M73.6,210.09s17.37,1.1,29-11.5C102.62,198.59,95.66,213.33,73.6,210.09Z"/>
        <path class="cls-5" d="M73.6,210.09S84.9,193.44,103,198.54C103,198.54,85.8,189.28,73.6,210.09Z"/>
        <g>
          <polygon class="cls-6" points="101.64 198.7 73.54 209.56 73.07 210.37 74.04 210.49 101.64 198.7"/>
          <g>
            <path class="cls-6" d="M78,208.19s-.16-2.94,5.21-8.57"/>
            <path class="cls-6" d="M85.13,210.13s-4.89-.09-7-1.87"/>
            <path class="cls-6" d="M83.82,205.59s-.72-3,4.66-8.84"/>
            <path class="cls-6" d="M93.12,207.82s-6.05-.36-8.81-2"/>
            <path class="cls-6" d="M94,196s-4.15,3.36-5,7.61"/>
            <path class="cls-6" d="M98.11,204.53a12.6,12.6,0,0,1-8-.89"/>
            <path class="cls-6" d="M101.56,200.86a7.09,7.09,0,0,1-5.19-.12"/>
            <path class="cls-6" d="M97.76,196.5s-3.83,4.28-2.81,4.79"/>
          </g>
        </g>
      </g>
    </g>
  </g>
</svg>
