<svg id="Layer_1" data-name="Layer 1" xmlns="http://www.w3.org/2000/svg" width="361.58" height="359.32" viewBox="0 0 361.58 359.32">
  <defs>
    <style>
      .cls-1 {
        fill: #ff0;
      }

      .cls-2 {
        fill: #ca3727;
      }

      .cls-3 {
        fill: #986632;
      }

      .cls-4 {
        fill: #4e2f13;
      }

      .cls-5 {
        fill: #d3ab29;
      }

      .cls-6 {
        fill: #ffcc05;
      }

      .cls-7 {
        fill: #1a1a1a;
      }

      .cls-8 {
        fill: #ffd740;
      }

      .cls-9 {
        fill: #ffd741;
      }

      .cls-10 {
        fill: #e25626;
      }

      .cls-11 {
        fill: #fde78c;
      }

      .cls-12 {
        fill: #fdcb0a;
      }

      .cls-13 {
        fill: #ffcc09;
      }

      .cls-14 {
        fill: #6f5f2c;
      }

      .cls-15 {
        fill: #93792c;
      }

      .cls-16 {
        fill: #715f2b;
      }

      .cls-17 {
        fill: #603b16;
      }

      .cls-18 {
        fill: #7b5226;
      }

      .cls-19 {
        fill: #333;
      }

      .cls-20 {
        fill: #ac7e4f;
      }

      .cls-21 {
        fill: #c6996c;
      }

      .cls-22 {
        fill: #f8ba1e;
      }

      .cls-23 {
        fill: #a06f35;
      }

      .cls-24 {
        fill: #f5d055;
      }

      .cls-25 {
        fill: #f6d158;
      }

      .cls-26 {
        fill: #c6996b;
      }

      .cls-27 {
        fill: #bc8e60;
      }
    </style>
  </defs>
  <g>
    <path class="cls-1" d="M10.18,62.56A9.53,9.53,0,0,0,12.8,68,7.71,7.71,0,0,0,14,69.13a8.14,8.14,0,0,0,2.89,4.57c.08.33.16.66.23,1a46.7,46.7,0,0,0,1.37,4.94c.06.36.13.82.26,1.32l23.85,93.44q9.49,37.22,19,74.43c.26,1,.53,2,.8,3,.5,1.9,1,3.73,1.39,5.54A17.85,17.85,0,0,0,61,259.11a11.45,11.45,0,0,0-4.13,5.38,22.67,22.67,0,0,0-2.81,1.65A11.44,11.44,0,0,0,49.6,272a8.58,8.58,0,0,0,5.7,11.43,17.52,17.52,0,0,0,4.92.71h1.46q1.51,0,3,0l2.87,0h1A10.06,10.06,0,0,0,71,288.78a9.91,9.91,0,0,0,5.06,3,20,20,0,0,1,.09,2.63c-.07,1.5-.06,2.94,0,4.33,0,.72,0,1.45,0,2.18a11.76,11.76,0,0,0,1.42,5.71A8.46,8.46,0,0,0,85,311.11a8.36,8.36,0,0,0,2.06-.25,10.93,10.93,0,0,0,5-2.68,16.58,16.58,0,0,0,3.65-4.88,11.35,11.35,0,0,0,2.4-1.4,14.18,14.18,0,0,0,4.74-5.45l110.57,27.47Q242,331,270.54,338.11l2.47.63c2.21.58,4.5,1.17,6.9,1.6,1.57.54,3.12.9,4.5,1.23l1.28.3a8.58,8.58,0,0,0,3.06,3.36,8.82,8.82,0,0,0,2.68,1.23,7.31,7.31,0,0,0,1.09,1.14,9,9,0,0,0,5.45,2.6,8.91,8.91,0,0,0,6,2.37,9.11,9.11,0,0,0,4.7-1.33,37.93,37.93,0,0,0,6.1.5,36.69,36.69,0,0,0,5.23-.37,41,41,0,0,0,22.06-10.44c8.36-7.53,12.28-16.78,11.65-27.48S346.43,295,336.29,292.9a22.74,22.74,0,0,0-4.76-.61,14.87,14.87,0,0,0-2.69.25,6,6,0,0,0-3.35,9.87,8.91,8.91,0,0,0,3.33,2.33l.06,0a11.52,11.52,0,0,1,2.58,1.69,5.55,5.55,0,0,1,2.11,5.52,13.5,13.5,0,0,1-3.73,7.22c-3.5,3.77-7,5.57-10.88,5.64a8,8,0,0,0-4-3.84,7.57,7.57,0,0,0-2.07-.75,9.14,9.14,0,0,0-2-1.48,7.52,7.52,0,0,0-1.86-.83,7.66,7.66,0,0,0-1.86-1.46,7.25,7.25,0,0,0-2.28-1.05,18.88,18.88,0,0,1-3.48-7.79,43.55,43.55,0,0,1-.81-7.45c0-2.54,0-5.22.21-8.19.39-6,1.17-12.16,1.93-18.11l.05-.34c.21-1.68.43-3.36.65-5.05.43-3.21.85-6.43,1.23-9.65.74-6.34,1.26-12.12,1.56-17.67A105.87,105.87,0,0,0,304.54,214a45.19,45.19,0,0,0-9.67-20.79,82.41,82.41,0,0,0-10-9.84c-4.9-4.09-10.08-7.78-15.1-11.35l-1.7-1.22a171.54,171.54,0,0,1-14.75-11.32,11.58,11.58,0,0,0-2-8.62,146.67,146.67,0,0,0-11.73-15.09l-.22-.24,20-20c.48.48,1,1,1.45,1.45l5.95,5.94,0,0a7.66,7.66,0,0,0,4.85,2.76,5.93,5.93,0,0,0,.84.06,6,6,0,0,0,5.44-3.48l.22-.47c.23-.48.45-1,.65-1.43l1.61-3.83q6.9-16.41,13.8-32.82c1.53-3.65,3-7.29,4.56-10.94l1.84-4.43a6,6,0,0,0,.85-2.73,6.12,6.12,0,0,0-2.73-5.51,6.39,6.39,0,0,0-3.55-1.08,6.26,6.26,0,0,0-3.26.91c-.23.11-.45.22-.65.34s-.61.22-.91.35L244.45,79.91l-6.24,2.63a6,6,0,0,0-3.34,7.51,8.63,8.63,0,0,0,2.58,3.69l.07.07q3.69,3.73,7.4,7.45-10,10-20,20c-1.5-1.29-3-2.59-4.57-3.86-3.85-3.16-7.43-5.86-11-8.25a11.33,11.33,0,0,0-6.46-2.07,11,11,0,0,0-2,.18,168,168,0,0,1-10.82-14l-1.5-2.1a216.25,216.25,0,0,0-14.68-19c-7.84-8.7-16.67-14-27-16.06a101.21,101.21,0,0,0-20.39-1.91c-3.86,0-7.94.17-12.45.52-4.83.37-9.73.89-15,1.57-6.62.86-13.56,1.74-20.65,2.6a134.12,134.12,0,0,1-16,1.19c-.81,0-1.63,0-2.45,0a33.41,33.41,0,0,1-9.48-1.4A18.46,18.46,0,0,1,45,55.76a6.63,6.63,0,0,0-.69-1.61A8.65,8.65,0,0,0,42.4,51.5a4.54,4.54,0,0,0-.24-.59A8.34,8.34,0,0,0,40,47.55c0-.17-.09-.33-.13-.48a8.08,8.08,0,0,0-4.39-5.49,7.65,7.65,0,0,1,.08-1c.79-5.81,6.07-11.78,11.78-13.31a8.52,8.52,0,0,1,2.18-.32c1.14,0,2.68.27,4.47,2.3a13.39,13.39,0,0,1,1.67,2.59,7.19,7.19,0,0,0,3.6,3.89,5.91,5.91,0,0,0,2.56.58,6,6,0,0,0,6-5.29A21.32,21.32,0,0,0,52.18,7.77a28.57,28.57,0,0,0-7.56-1,32.75,32.75,0,0,0-13,2.88A36.85,36.85,0,0,0,14.66,25c-5.25,8.74-7.1,17.8-5.49,27C6.35,57,8.51,60.71,10.18,62.56ZM196.46,179.35c3.1,3.71,5.82,7.46,8,10.5,1.1,1.56,4.45,6.32,10.55,6.32a13.51,13.51,0,0,0,3.53-.49,58.7,58.7,0,0,0,15.81,6.72c4,1.14,8,2,11.91,2.83,2.13.45,4.34.92,6.47,1.43A55.83,55.83,0,0,1,265,210.77a17.49,17.49,0,0,1,8.93,9.81,51.84,51.84,0,0,1,3,16.67c.11,3.06.05,6.41-.2,10.53-.33,5.47-.95,11-1.57,16.26-.29,2.48-.61,5-.92,7.44-.87,6.79-1.76,13.8-2.22,20.85a98.56,98.56,0,0,0,.47,20.32,48.87,48.87,0,0,0,2.19,9.12L183.79,299.2Q151.24,291.13,118.7,283l-1.07-.27c.12-.22.24-.45.35-.69a8.5,8.5,0,0,0,3.12-1.93l.12-.1a16.61,16.61,0,0,0,4.21-5.46,14.46,14.46,0,0,0,8.62-12.36,195.64,195.64,0,0,0-.24-20.21C155.31,220.53,176.52,199.31,196.46,179.35ZM41.83,86.83a62.16,62.16,0,0,0,13.11,1.91c1.61.07,3.26.11,4.93.11h0A135,135,0,0,0,74.81,88c6.28-.68,12.64-1.46,18.78-2.21l7.52-.92a170.73,170.73,0,0,1,17.24-1.28h1.76a64.06,64.06,0,0,1,15.2,1.6,30.82,30.82,0,0,1,7.23,2.65c3.53,1.88,6.13,5,8.16,9.9a79.58,79.58,0,0,1,3.9,13.67c.23,1,.45,2.06.67,3.09a141.45,141.45,0,0,0,4,15.76A52.06,52.06,0,0,0,164.82,142a14,14,0,0,0-.27,1.76c-.71,7.12,4.48,11,6.19,12.32l1.59,1.2c3,2.25,5.87,4.42,8.63,6.69q-31.19,31.17-62.35,62.36a17,17,0,0,0-2.37-.24l-2.66,0c-2.48,0-5-.08-7.44-.08-3,0-5.59.06-8,.19a14,14,0,0,0-12.61,8.64c-3.69,1.68-6.12,4.1-7.27,7.2-.31.14-.61.28-.9.43L73.13,226l-22-86.07q-7-27.3-13.93-54.62A39.75,39.75,0,0,0,41.83,86.83Z"/>
    <g>
      <path class="cls-2" d="M259.17,107.19c-.47.5-.94,1-1.43,1.5L232.42,134c-.45.45-.85.94-1.28,1.41a3.87,3.87,0,0,1-1.09,1.92c-2.89,2.84-5.7,5.76-8.61,8.57-2.67,2.67-5.3,5.39-8,8-3.23,3.27-6.49,6.52-9.74,9.76-1,1-2,2.07-3.1,3-.48.73-1.29,1.13-1.79,1.84s-1.36,1.07-1.79,1.84q-34.91,35-69.85,69.85c-1.29,1.07-2.24,2.47-3.6,3.46a43.19,43.19,0,0,1-4.17,4.17,28.39,28.39,0,0,1-3.15,3.15,41.89,41.89,0,0,1-4.16,4.16,29.28,29.28,0,0,1-3.15,3.15,40.74,40.74,0,0,1-4.16,4.15c-.94.94-1.74,2-2.77,2.87-1.6,1.38-2.83,3.16-4.53,4.44-.94.94-1.75,2-2.77,2.87-1.57,1.43-2.87,3.12-4.54,4.45a30.44,30.44,0,0,1-2.81,2.87c-1,1-1.93,2.09-3,3a2.84,2.84,0,0,1-1.6.91,1,1,0,0,1-.46-.19,2.29,2.29,0,0,1-.41-1.46c-.17-2.47-1.38-3.64-3.84-3.71a2.23,2.23,0,0,1-1.49-.29.86.86,0,0,1,0-1,22.06,22.06,0,0,1,3.85-4,35.14,35.14,0,0,1,3.52-3.49,36.35,36.35,0,0,1,3.82-3.83c.94-1.37,2.43-2.22,3.43-3.53,1.23-1.33,2.54-2.56,3.88-3.78.94-1.37,2.43-2.22,3.43-3.53,1.21-1.34,2.59-2.52,3.83-3.82,1-1.31,2.47-2.18,3.48-3.49,1.21-1.34,2.58-2.52,3.83-3.82,1-1.13,2.13-2.07,3.2-3.1a34.63,34.63,0,0,1,3.82-3.84c1.13-1.44,2.61-2.54,3.79-3.93q34.19-34.18,68.38-68.37c.49-.5,1-.95,1.53-1.41a12.11,12.11,0,0,1,1.83-1.82c.56-.65,1.18-1.24,1.8-1.83,4.05-4.25,8.26-8.34,12.43-12.48,2.65-2.69,5.27-5.42,8.06-8,2.82-3.07,5.86-5.94,8.8-8.89a1.86,1.86,0,0,1,1.68-.73,4,4,0,0,0,1.33-1.1q13-13,25.95-25.95c.4-.4.76-.86,1.14-1.3.46-.6.78,0,1,.2a14.71,14.71,0,0,1,2.23,2.3C257.56,104.77,259.16,105.38,259.17,107.19Z"/>
      <path class="cls-3" d="M246.46,161.37c5.63,5.49,12,10,18.38,14.57,5.47,3.9,11,7.76,16.15,12.08a75.5,75.5,0,0,1,9.3,9.11,39.55,39.55,0,0,1,8.37,18.11,99.38,99.38,0,0,1,1.51,25.6c-.32,5.78-.85,11.55-1.53,17.3-.58,4.88-1.25,9.76-1.88,14.64-.79,6.26-1.6,12.52-2,18.83-.18,2.89-.28,5.78-.22,8.68a50.09,50.09,0,0,0,.91,8.45,26.59,26.59,0,0,0,6.62,12.8.7.7,0,0,1,.15.93c-.95,1.56-1.33,3.57-3.34,4.32-1.9-.34-2.6-2.05-3.58-3.33a30.7,30.7,0,0,1-6.11-16.19,104.69,104.69,0,0,1,.3-19.39c1-10.48,2.66-20.87,3.83-31.33.59-5.28.9-10.59,1.22-15.9a92,92,0,0,0-1.46-22.43,36.72,36.72,0,0,0-8.74-18.05c-4.66-5.25-10.16-9.45-15.74-13.58-6.88-5.1-14.1-9.75-20.7-15.22a32.51,32.51,0,0,1-5.44-5.11C242.35,164.05,244.57,161.35,246.46,161.37Z"/>
      <path class="cls-3" d="M38.92,58.42a25,25,0,0,0,9.7,5.91A40.15,40.15,0,0,0,59.76,66a125,125,0,0,0,19.43-1.2q10.35-1.26,20.69-2.6c4.89-.63,9.79-1.16,14.7-1.54,10.44-.81,20.83-.81,31.17,1.29,9.62,2,17.29,7,23.75,14.2,5.8,6.44,10.74,13.53,15.78,20.55,4.33,6,8.66,12.07,13.89,17.38a.78.78,0,0,1,.13.66c-.44,1.44-3.37,3.42-5,3.37-3.58-3-6.28-6.79-9.09-10.47-5.6-7.38-10.61-15.2-16.45-22.39-4.85-6-10.06-11.55-17.18-14.87a50.05,50.05,0,0,0-15.07-3.88,82.49,82.49,0,0,0-14.73-.69c-6.35.33-12.69.78-19,1.56-6.72.83-13.42,1.72-20.13,2.59-5.28.68-10.57,1.31-15.87,1.58-8,.42-16.12.57-23.78-2.66a34.61,34.61,0,0,1-8.83-5.78,2.14,2.14,0,0,1-.76-1.33,1.14,1.14,0,0,1,.44-1.06,45.72,45.72,0,0,1,3.9-2.39A1.09,1.09,0,0,1,38.92,58.42Z"/>
      <path class="cls-4" d="M246.46,161.37a1.54,1.54,0,0,0-1,.63q-1.47,2-3,3.92c.13,1.28-.88,1.94-1.5,2.81-.4.56-1.09.86-1.41,1.51a67.88,67.88,0,0,1-6.31,6.92c-3.59,3.29-7.17,6.58-11.06,9.53a6.91,6.91,0,0,1-1.42,1,4.4,4.4,0,0,0-1.31,1,3.35,3.35,0,0,1-.59.48c-4.39,1.88-6.83,1.16-9.61-2.79A145.25,145.25,0,0,0,198,172a4.44,4.44,0,0,1-1.35-2.18,9.36,9.36,0,0,1,1.78-1.72c1.39-.69,2,.46,2.69,1.23,2.71,3.17,5.35,6.39,7.75,9.81.69,1,1.39,2,2.12,3,1.83,2.42,3.93,2.76,6.46,1.17A52.84,52.84,0,0,0,233,167.9a4.68,4.68,0,0,0,.05-5.92,127.75,127.75,0,0,0-8.71-11.24c-1-1.09-1.84-2.23-2.86-3.27-.51-.52-1.07-1.13-.47-2,3.25-3.48,6.64-6.83,10.09-10.12,1.3,1.47,2.59,2.94,3.89,4.4a142,142,0,0,1,11.26,14.47c1.35,2,1.64,4,.29,6.16A.89.89,0,0,0,246.46,161.37Z"/>
      <path class="cls-4" d="M194.62,118c1.57-1.24,3.38-2.2,4.55-3.91a2.34,2.34,0,0,0,1.3-.4,5.15,5.15,0,0,1,5.57.4c3.63,2.47,7.12,5.14,10.51,7.93,2.32,1.9,4.58,3.87,6.85,5.83a5.46,5.46,0,0,1,1.49,1.68c-1.74,2.09-3.79,3.89-5.69,5.83-1.41,1.44-2.89,2.83-4.34,4.24-.86.27-1.43-.23-2-.74a148.44,148.44,0,0,0-14.42-11.42c-2.23-1.52-3.64-1.47-5.88.07a56.65,56.65,0,0,0-14.91,14.9c-2,3-1.67,5.32,1.25,7.45,4.31,3.13,8.56,6.34,12.58,9.85.65.56,1.39,1.12,1.07,2.17a7.71,7.71,0,0,1-1.71,1.71A1.7,1.7,0,0,1,189,163c-4.61-4.22-9.64-7.92-14.62-11.68-2.29-1.72-4.15-3.72-3.83-6.93a5.42,5.42,0,0,1,.87-2.77,12.47,12.47,0,0,0,.74-1,4,4,0,0,1,.57-.8,115.44,115.44,0,0,1,17.05-18.5,2.49,2.49,0,0,1,.58-.37c.87-.58,1.43-1.51,2.28-2.11C193.22,118.39,193.78,117.85,194.62,118Z"/>
      <path class="cls-5" d="M259.17,107.19,256.26,104c-.1-.87.5-1.38,1-1.91q17.18-17.22,34.39-34.42c.74-.73,1.76-1.12,2.35-2,.16-.29.45-.3.71-.37a.36.36,0,0,1,.49.1c-2.23,5.34-4.43,10.69-6.67,16q-7.69,18.33-15.41,36.65c-.24.58-.52,1.14-.79,1.71-.72-.1-1-.65-1.41-1-3.5-3.47-7-7-10.46-10.44A4,4,0,0,0,259.17,107.19Z"/>
      <path class="cls-6" d="M294,65.67a.41.41,0,0,1,.05.61c-.31.35-.63.68-1,1l-35.57,35.55c-.41.41-.86.78-1.29,1.17l-2.95-2.82q-5.76-5.79-11.52-11.6a4.07,4.07,0,0,1-1.26-1.52l6.24-2.63,45.8-19.25C293,66,293.54,65.84,294,65.67Z"/>
      <path class="cls-7" d="M84.26,270.14a25.63,25.63,0,0,1-3.46,3.45,90.7,90.7,0,0,1-10-.17,81.25,81.25,0,0,0-9.87-.06,2,2,0,0,0-.68.15c-.77.35-1.85.59-1.66,1.68s1.2.66,1.91.72c4.78.39,9.58.37,14.37.39.84,0,2-.22,2.11,1.15l-.37.64a.71.71,0,0,1-.53.63.86.86,0,0,1-.42,0,3.39,3.39,0,0,0-.41-.15c-5-.79-9.93-.38-14.9-.45a11.51,11.51,0,0,1-3.26-.45A2.6,2.6,0,0,1,55.25,274a5.62,5.62,0,0,1,2.15-2.86,12.91,12.91,0,0,1,3.55-1.8,1.62,1.62,0,0,0,1.37-1.7,4.91,4.91,0,0,1,2.28-3.71,9.36,9.36,0,0,1,3.7-1.85,1.47,1.47,0,0,0,1.31-1.56,19.86,19.86,0,0,1,.4-2.39,4.15,4.15,0,0,1,2.22-2.48,6.15,6.15,0,0,1,2.32-1.18,3,3,0,0,0,1.73-2.19c.61-2.7,2.71-4.1,5.09-5a3.2,3.2,0,0,0,2.3-2.45c.57-2.39,2.51-3.7,4.62-4.61a4.37,4.37,0,0,0,2.63-2.71,8,8,0,0,1,7.52-5.27c5.89-.31,11.81-.14,17.72-.06,1.09,0,2.16.32,3.26.42a1.63,1.63,0,0,1,1.49,1,35.81,35.81,0,0,1-3.92,3.87c-6.13-.06-12.25-.57-18.38-.35a5.33,5.33,0,0,0-3,.61c-.45.31-.88.65-.73,1.26s.61.64,1.08.7a7.12,7.12,0,0,0,1.22.05c4.63-.15,9.24.54,13.87.39.84,0,1.95-.22,2.12,1.15a23.51,23.51,0,0,1-3.12,3.11,5.53,5.53,0,0,1-2.9.33c-5.5-.62-11-.16-16.5-.27a3.51,3.51,0,0,0-2.6.81c-.72.67-.55,1.39.4,1.67a5.75,5.75,0,0,0,1.9.12c4.64-.2,9.26.34,13.89.38.74,0,1.54-.05,2,.78a26.08,26.08,0,0,1-3.48,3.49c-1.18.64-2.39,0-3.58,0q-5.48,0-11,0a23.05,23.05,0,0,1-4-.22,4.43,4.43,0,0,0-3,.66c-.5.29-1,.64-.91,1.34s.77.76,1.35.82.93,0,1.39,0c4.57,0,9.15-.2,13.7.35.79.1,1.67-.1,2.16.79A26.92,26.92,0,0,1,95.42,259c-1.27.37-2.53,0-3.8,0a139.73,139.73,0,0,1-14-.32,6.24,6.24,0,0,0-3.4.52c-.63.31-1.3.69-1.12,1.54s.9.84,1.53.86c3,.1,6,0,9,0,1.73,0,3.47,0,5.2,0,1,.06,2.1.12,2.77,1.1a26.23,26.23,0,0,1-3.49,3.5,120.39,120.39,0,0,1-12.46-.15,64.91,64.91,0,0,0-7.11-.09,3.94,3.94,0,0,0-1.34.33c-.65.26-1.42.54-1.39,1.36,0,1,1,.8,1.61.89,4.84.68,9.7.14,14.55.36C82.85,269,84.06,268.66,84.26,270.14Z"/>
      <path class="cls-7" d="M108.6,257.9a21.05,21.05,0,0,1,3.12-3.14c1.16.13,1.09,1.07,1.07,1.83-.1,4.34.6,8.65.4,13a4.22,4.22,0,0,0,0,.87c.12.8-.3,2.05.9,2.13s1.59-1.15,1.62-2.11a134.22,134.22,0,0,0-.09-14.74,11.9,11.9,0,0,1,.28-5.14,21.12,21.12,0,0,1,3.13-3.14c.88,0,1,.68,1,1.31a13.13,13.13,0,0,1,.06,2.26c-.21,4.22.43,8.42.38,12.64,0,.67-.07,1.55.88,1.64s1.14-.67,1.42-1.31a6.52,6.52,0,0,0,.31-2.56c.11-5-.09-10.06-.35-15.08a7.63,7.63,0,0,1,.43-3.07,26.76,26.76,0,0,1,3.48-3.5,1.71,1.71,0,0,1,1,1.65,179.93,179.93,0,0,1,.31,20.64,8.47,8.47,0,0,1-6,7.32,2.18,2.18,0,0,0-1.64,1.59,10.42,10.42,0,0,1-3.12,4.51c-.45.38-.88.87-1.45.92-1.85.16-2.52,1.46-3.21,2.92-1.1,2.32-2.71,4.18-5.39,4.75-.85.18-1.16.89-1.52,1.55a5.73,5.73,0,0,1-1.19,2.31,4.93,4.93,0,0,1-2.46,2.26c-.23,0-.46.06-.69.07-1.94.11-3.29.74-3.79,2.94-.37,1.65-1.73,2.86-3.1,3.87a2.9,2.9,0,0,1-2.07.8c-1.12-.18-1.4.46-1.61,1.3a9.63,9.63,0,0,1-2.91,4.64A4.9,4.9,0,0,1,85.64,305a2.47,2.47,0,0,1-2.8-1.23,5.78,5.78,0,0,1-.72-2.83c0-2.09-.08-4.18,0-6.26.14-2.74-.43-5.43-.37-8.15a1,1,0,0,0-.76-1.2,1.41,1.41,0,0,1,1.49-1.67l.32,0c1.29.16,1.07,1.2,1.08,2,.09,3.53.06,7.07,0,10.6a31.85,31.85,0,0,0,.38,4.14c0,.46.1,1,.65,1.11s1-.29,1.25-.72a3.31,3.31,0,0,0,.63-1.78,50.68,50.68,0,0,0-.06-7.29,91.18,91.18,0,0,1-.13-11.09,2,2,0,0,1,.35-1.15,18,18,0,0,1,2.79-2.8c1.5.14,1.4,1.32,1.43,2.32.08,3.93,0,7.86,0,11.8a20.44,20.44,0,0,0,.06,2.07c.07.6.2,1.22.86,1.38s1.15-.41,1.48-1a4.65,4.65,0,0,0,.56-2.85c-.45-5.36-.27-10.73-.35-16.1a3.37,3.37,0,0,1,.44-2.16,18.53,18.53,0,0,1,2.8-2.8c1.05.1,1,.94,1.1,1.66.67,3.86.24,7.74.36,11.61,0,1.05,0,2.09.06,3.13,0,.59.18,1.21.88,1.33s1-.44,1.31-1a5.13,5.13,0,0,0,.68-3c-.59-4.79-.19-9.6-.27-14.4,0-1.29-.52-2.66.39-3.87a18.47,18.47,0,0,1,2.8-2.79c1.32.24,1,1.33,1.09,2.18.44,4.44.36,8.9.4,13.36,0,.85-.34,2.18,1,2.22s1.51-1.21,1.54-2.19c.13-5.56.22-11.12,0-16.68A7.33,7.33,0,0,1,108.6,257.9Z"/>
      <path class="cls-8" d="M72.37,256.14c-.82.62-1.36,1.57-2.36,2-.69-3.64-1.74-7.19-2.65-10.78q-11.07-43.49-22.18-87-10.32-40.44-20.65-80.9c-.11-.45-.16-.91-.24-1.36-.46-2.29-1.13-4.54-1.65-6.82-.39-1.74-.27-2,1.54-2.5a1.47,1.47,0,0,1,.58.19,1.41,1.41,0,0,1,.39.45c2.55,7.52,4.16,15.29,6.14,23,4.49,17.38,8.89,34.78,13.32,52.17Q51,169.72,57.45,194.87q6.48,25.32,12.93,50.66c.68,2.69,1.39,5.38,2.09,8.07A3.7,3.7,0,0,1,72.37,256.14Z"/>
      <path class="cls-8" d="M102.08,290.2c.28-1.1,1.33-1.57,1.94-2.39a3.28,3.28,0,0,1,2.69,0c18.51,4.54,37,9.2,55.49,13.76,20.46,5.05,40.89,10.24,61.37,15.24,17.38,4.25,34.72,8.68,52.1,13,4.55,1.12,9.15,2,13.6,3.55,1.18.6,2.23,1.31,2.43,2.76-.3,1-.95.66-1.65.5-2.88-.64-5.69-1.58-8.62-2-3.2-.54-6.31-1.46-9.45-2.24q-38.36-9.5-76.68-19L125.86,296l-22.74-5.65A7.22,7.22,0,0,0,102.08,290.2Z"/>
      <path class="cls-3" d="M15.57,53.23c-2.24-9-.47-17.37,4.23-25.18A30.78,30.78,0,0,1,34,15.13c5.36-2.33,10.9-3.14,16.62-1.57a15.35,15.35,0,0,1,11.26,16.7c-.49-.24-.57-.72-.77-1.1a19.12,19.12,0,0,0-2.55-3.92,11.72,11.72,0,0,0-12.72-3.81c-8,2.16-15,10.08-16.16,18.29a15.31,15.31,0,0,0,.07,4.68c.3,1.66.3,1.66,1.91,2.15-.09.21-.22.46-.43.49-2.05.26-4,1.13-6.14.91A2.54,2.54,0,0,1,24,45.73a23,23,0,0,1,4.76-16.11,27.09,27.09,0,0,1,12-9.37,14.32,14.32,0,0,1,9.5-.66c.21.08-.06,0,.16,0s.28.17.44.21c-.15,0-.24-.18-.41-.2-4-.88-7.89-1.61-12-.65A26.18,26.18,0,0,0,22.75,29.68a30.67,30.67,0,0,0-5.94,21.41,4.26,4.26,0,0,1-.08,1.55C16.47,53.09,16.17,53.45,15.57,53.23Z"/>
      <path class="cls-3" d="M314,328.91c.21,1.2.95,1.62,2.13,1.76,7.42.91,13.21-2.17,18.06-7.39a19.49,19.49,0,0,0,5.27-10.39,11.53,11.53,0,0,0-4-10.9,17.41,17.41,0,0,0-3.9-2.59,4.17,4.17,0,0,1-1.6-1,12.53,12.53,0,0,1,5.13.36c7.88,1.65,12.16,7.51,12.61,15,.54,9.1-3,16.62-9.68,22.66a35,35,0,0,1-18.87,9,31.17,31.17,0,0,1-10.55-.3l-1.37-.25a1,1,0,0,1,.44-1,10.66,10.66,0,0,1,4.1-.21,26.1,26.1,0,0,0,12-2.17c6.57-2.65,12-6.77,15.41-13.11a21.1,21.1,0,0,0,2.42-15.08c-.13-.57-.14-1.15-.26-1.45.72,4-.67,7.86-2.85,11.39-3.95,6.39-9.4,10.94-16.85,12.74a19.38,19.38,0,0,1-6,.57,3.91,3.91,0,0,1-3-1.1A11.17,11.17,0,0,1,314,328.91Z"/>
      <path class="cls-9" d="M307.8,324c1.38.63,1.69,1.83,1.69,3.19a1.05,1.05,0,0,1,.36,1.24,43,43,0,0,1-3.1,8.18,1.26,1.26,0,0,1-.87.76c-1-.43-.65-1.21-.48-1.91a8.22,8.22,0,0,0,.56-2.95c-2,3.59-4,6.71-6.08,9.94.93.21,1.59-.43,2.26,0,.4.57.14.93-.38,1.22a6.26,6.26,0,0,0-.73.14c-1.61.56-3.17.83-4.47-.66a2.59,2.59,0,0,1,.47-3c3.47-4.54,6.75-9.18,8.57-14.68C305.93,324.45,306.57,323.69,307.8,324Z"/>
      <path class="cls-9" d="M33.14,51.05c1.53.09,3,.34,3.45,2.14a2.76,2.76,0,0,1-2,2,42,42,0,0,0-13,7.47c-1.2,1-2.47,2.2-4.32,1.44-1.39-1.47-1.53-2.62-.57-4.62a.48.48,0,0,1,.46.09c.39.84.8,1.29,1.79.56a100.39,100.39,0,0,1,8.94-5.57,9.92,9.92,0,0,0-4,1.06c-.71.28-1.5.85-2.16-.13,0-.63.45-.88.92-1.14a53.79,53.79,0,0,1,9-3.56A1.27,1.27,0,0,1,33.14,51.05Z"/>
      <path class="cls-9" d="M314,328.91c.16,2.29-.57,4.43-1.08,6.6a3.25,3.25,0,0,1-1.66,3.65.73.73,0,0,1-.5-.06c-1-1.06.08-2.2-.12-3.5-1.82,3.11-3.54,6.1-5.52,8.9.44.62,1.23.17,1.57.73-1.84,1.68-3.45,1.78-5,.32-.49-1.29.51-2.06,1.1-2.91a45.54,45.54,0,0,0,5.85-10.72c.46-1.3.79-2.64,1.26-3.93.39-1.07,1-1.79,2.3-1.58C313.5,326.8,313.83,327.81,314,328.91Z"/>
      <path class="cls-9" d="M25,47.59a19.24,19.24,0,0,1,6.6-1c1.21.27,2.26.73,2.48,2.15a3.3,3.3,0,0,1-2.52,2.11A38.26,38.26,0,0,0,17.3,58.17a2.67,2.67,0,0,1-2.38.65c-1.38-1.27-1.46-2.45-.3-4.33a1.43,1.43,0,0,0,2.29.26c2.38-1.78,5-3.19,7.71-4.85-1.21-.17-2.18.63-3.19.12a.77.77,0,0,1-.37-.67A3.43,3.43,0,0,1,25,47.59Z"/>
      <path class="cls-9" d="M295.88,340.42a.51.51,0,0,0-.32.05c-.16,0-.28.18-.45.2a4,4,0,0,1-3-.4c-.55-.38-1.15-.8-1.12-1.62a3.53,3.53,0,0,1,.95-2.18,70.74,70.74,0,0,0,10.11-13.6c.39-.67.82-1.46,1.84-1.32,1.2.56,1.33,1.66,1.42,2.78.06.09.18.2.16.3a13.77,13.77,0,0,1-3.83,8.18c-1.09-.6-.4-1.52-.44-2.72-2.35,3.28-4.72,6.15-7.12,9.19,1.36.27,2.1-1.24,3.29-.65.44.85-.11,1.3-.71,1.74A1.38,1.38,0,0,1,295.88,340.42Z"/>
      <path class="cls-10" d="M82.5,283.7A5.67,5.67,0,0,1,81,285.37c-.32.13-.63.27-1,.39a4.09,4.09,0,0,1-4.61-1,4.27,4.27,0,0,1-.54-4.86l.57-1.07.08-.19.37-.15.66-.38a4.64,4.64,0,0,1,3.67.09,4,4,0,0,1,2.3,4.5A8.6,8.6,0,0,0,82.5,283.7Z"/>
      <path class="cls-9" d="M21.1,69.32a2.27,2.27,0,0,1-1.35-2.23,7.54,7.54,0,0,0,2.88-1.8c2.35-2.06,4.87-3.91,7.56-5.86-.66-.28-1.47-.07-1.77-.79.79-1.72,5.92-3.94,7.73-3.35,1.28,0,2.42.3,2.86,1.73-.09.66-.57.95-1.09,1.24a79.11,79.11,0,0,0-14,10.27C23,69.28,22.23,69.78,21.1,69.32Z"/>
      <path class="cls-11" d="M28.51,58.78c.76,0,1.44-.45,2.21-.31.41.08.84.19.93.65s-.37.52-.64.7a81.53,81.53,0,0,0-9.13,7.11c-1.06,1-1.07.94-2.13.16a1.26,1.26,0,0,1,0-1.3c1.26-3.8,4.59-5.37,7.72-7.15a1.58,1.58,0,0,1,.75.07Z"/>
      <path class="cls-11" d="M306.73,345.23c-.48.18-1,.37-1.45.54a.93.93,0,0,1-1.23-.29c-.26-.42,0-.77.24-1.1,1.19-1.62,2.28-3.32,3.33-5.05.93-1.52,1.85-3.05,2.63-4.66.15-.29.26-.71.7-.65s.55.53.6.94a6.4,6.4,0,0,1-.46,2.87c-.13.38-.21.78-.31,1.17.31.75-.23,1.34-.4,2a1.69,1.69,0,0,1-.19.41,5.46,5.46,0,0,0-.52.95,5,5,0,0,0-.42.79c-.29.62-1,.68-1.46,1l-.54.69Z"/>
      <path class="cls-11" d="M21.56,49.75a13.69,13.69,0,0,1,3-.74,2.4,2.4,0,0,1,1.35.21c.35.23.44.53.08.83a3.58,3.58,0,0,1-.59.36,85.85,85.85,0,0,0-8.88,5.45,8.25,8.25,0,0,1-.88.57c-.65.33-1,.17-1.07-.55a10.8,10.8,0,0,1,0-1.39c.13-.56.69-.8,1-1.26a1.67,1.67,0,0,0,.84-.69,4.22,4.22,0,0,1,.52-1,1.48,1.48,0,0,1,.34-.32,1.35,1.35,0,0,1,.42-.2c.37-.11.66-.4,1-.49C19.69,50.3,20.53,49.65,21.56,49.75Z"/>
      <path class="cls-12" d="M303.89,321.55a6.71,6.71,0,0,0-1.54,2.08,71.56,71.56,0,0,1-9.69,12.83c-.66.67-1,1.53-1.67,2.19-.61-.46.32-1.32-.37-1.68a11.06,11.06,0,0,0-1.84-.49c-2.43-.72-5-1.08-7.35-2a5.85,5.85,0,0,1,2.2.21c2.16.56,4.33,1.07,6.5,1.61.53.14,1,.28,1.24-.44.17-.22.24-.51.4-.74a7.14,7.14,0,0,0,.68-.86,30.92,30.92,0,0,1,3-3.68c.66-1,1.36-1.94,2-2.92a2.22,2.22,0,0,1,1.57-1.17,29.57,29.57,0,0,0,3-5A1.34,1.34,0,0,1,303.89,321.55Z"/>
      <path class="cls-13" d="M27.81,59.11a30.57,30.57,0,0,0-6.42,4.65c-.65.59-1,1.4-1.6,2,.05-.42.11-.83.17-1.31-1,.19-1.92.5-2.64-.42,1.62.1,2.66-1,3.76-1.9a45.71,45.71,0,0,1,13.16-7.53,14.62,14.62,0,0,0,2.35-1.44c.59.85-.31,1.4-.44,2.1A37.37,37.37,0,0,0,30,57.69a2.83,2.83,0,0,0-1.52,1.09h0C28.33,59,28,58.92,27.81,59.11Z"/>
      <path class="cls-12" d="M21.1,69.32a3.82,3.82,0,0,0,2.65-1.39A71.82,71.82,0,0,1,39,57c.51.5.13.95-.09,1.4a36.77,36.77,0,0,0-5.18,3.19c-.63,1.88-2.6,2.26-3.85,3.46s-2.56,2.09-3.83,3.14a5.9,5.9,0,0,1-1.63,1c-1.92.65-1.93.66-1.47,2.53.36,1.51.73,3,1.12,4.51a4.58,4.58,0,0,1,.21,1.87A68,68,0,0,1,22.37,71,2.24,2.24,0,0,0,21.1,69.32Z"/>
      <path class="cls-13" d="M301.41,332.7a26.77,26.77,0,0,0,3.23-6.6c.23-.59.45-1.18.67-1.77.77-.51,1.54-1.07,2.49-.37-1,.19-1.35,1-1.64,1.84a41.81,41.81,0,0,1-4.41,8.79,50.32,50.32,0,0,1-3.94,5.45,4,4,0,0,0-1.25,3.1c-.74-.51-.71-1.27-.66-2,.26-.29.07-.69.24-1a1.89,1.89,0,0,0,1.11-1.49,1.45,1.45,0,0,1,.37-1.58c1-1.38,1.95-2.84,3.08-4.15a1.26,1.26,0,0,1,.46-.2Z"/>
      <path class="cls-13" d="M14.92,58.82a3.66,3.66,0,0,0,1.55-.74A41.85,41.85,0,0,1,30.93,50.4a9.58,9.58,0,0,0,3.18-1.7c.49,1.11-.42,1.66-1,2.35a49.65,49.65,0,0,0-10,3.66,2.29,2.29,0,0,0-1.2.94,2,2,0,0,1,0,.24,1.67,1.67,0,0,1-.31.66C20.1,57.62,19,59.28,17,59.5l-.28-.06c-.13-.45-.48-.31-.79-.32S15.18,59.21,14.92,58.82Z"/>
      <path class="cls-13" d="M312.29,326.41c-1.13.26-1.52,1.15-1.83,2.11A68.64,68.64,0,0,1,308,335a45.06,45.06,0,0,1-4.68,7.89c-.59.83-1.5,1.49-1.54,2.65-.58-.48-.29-1.1-.29-1.67a1.94,1.94,0,0,1,0-.48c.31-.24.67-.46.66-.94,0-.07,0-.15,0-.22a8.8,8.8,0,0,1,.55-1.21,2.31,2.31,0,0,1,.25-.36,2.27,2.27,0,0,0,.69-1.3,5.25,5.25,0,0,1,1.13-1.77,1.66,1.66,0,0,1,.63-.33l.24,0a16.84,16.84,0,0,0,2.57-5.43c.54-1.52.89-3.1,1.32-4.65C310.34,326.59,311.07,325.58,312.29,326.41Z"/>
      <path class="cls-14" d="M296.14,340.11a.86.86,0,0,1-.24,1l0-.69Z"/>
      <path class="cls-15" d="M295.23,65.4l-.49-.1a.34.34,0,0,1,.55-.16C295.41,65.21,295.36,65.34,295.23,65.4Z"/>
      <path class="cls-16" d="M301.46,343.4c.19.15.38.3,0,.48l-.46-.08Z"/>
      <path class="cls-10" d="M75.22,278.55l.14.05c.18-.07.24,0,.16.16l0,.05Z"/>
      <path class="cls-14" d="M295.11,340.67a.37.37,0,0,1,.45-.2A.34.34,0,0,1,295.11,340.67Z"/>
      <path class="cls-17" d="M221.05,145.5a2,2,0,0,0,.67,1.18,124.81,124.81,0,0,1,11.86,14.7c1.65,2.34,2.07,4.17.12,6.84a62.18,62.18,0,0,1-8.83,10.45,60.94,60.94,0,0,1-8,5.83c-2.06,1.28-4.63.49-6.39-1.78-.7-.92-1.36-1.88-2-2.84-2.36-3.5-5.12-6.7-7.79-10a4,4,0,0,0-2.25-1.81,6.58,6.58,0,0,1,1.75-1.74c1.37-.31,1.95.78,2.64,1.58a93.1,93.1,0,0,1,6.46,8.36,11.24,11.24,0,0,0,1.39,1.78c1.71,1.66,3.12,1.83,5.1.46a27.68,27.68,0,0,0,6.61-6.57c1.33-1.84,1.36-3,0-4.91a108.32,108.32,0,0,0-8.59-10.88c-.67-.75-1.64-1.44-.82-2.67C215.59,150.74,218.25,148.05,221.05,145.5Z"/>
      <path class="cls-17" d="M192.54,161.89c-1-1.57-2.57-2.5-3.93-3.64-3.38-2.81-7-5.39-10.47-8-2.57-1.92-3.69-4.79-1.38-7.84,2.69-3.56,5.25-7.22,8.62-10.19a70.33,70.33,0,0,1,7.86-6,4.32,4.32,0,0,1,5.07.24,120.37,120.37,0,0,1,13.61,10.75c.91.88,2,1.62,2.94,2.42-2.6,2.75-5.26,5.43-8,8-.9.4-1.55-.06-2.18-.63a132.41,132.41,0,0,0-10.58-8.46c-2.47-1.81-3.67-1.84-6.07,0a39.49,39.49,0,0,0-5.65,5.62c-2.28,2.64-1,5,.92,6.4s4,3,6,4.48c1.3,1,2.52,2,3.79,3.07a2.56,2.56,0,0,1,1.24,2A7.74,7.74,0,0,1,192.54,161.89Z"/>
      <path class="cls-18" d="M213,153.51a1.87,1.87,0,0,0,.59,1.4,99.23,99.23,0,0,1,9.06,11.18,9.1,9.1,0,0,1,1,1.45,3.92,3.92,0,0,1-.2,4.27A30.35,30.35,0,0,1,216,179.3c-2.08,1.45-3.81,1.27-5.64-.46a24.62,24.62,0,0,1-3-4c-1.66-2.37-3.56-4.56-5.38-6.8a7.17,7.17,0,0,0-1.77-1.66,20.65,20.65,0,0,1,2.61-2.76C206.21,160.25,209.47,156.74,213,153.51Z"/>
      <path class="cls-18" d="M194.28,160.11c-3.06-2.55-6.14-5.08-9.36-7.43-.56-.41-1.1-.84-1.69-1.2a8,8,0,0,1-1.69-1.49,4.16,4.16,0,0,1-.3-5.56,34.18,34.18,0,0,1,7.08-7.08,4.08,4.08,0,0,1,5.16-.12c2.31,1.63,4.6,3.31,6.79,5.1a60.41,60.41,0,0,1,5.51,4.74,2.22,2.22,0,0,0,1.06.56C202.72,151.86,198.58,156.06,194.28,160.11Z"/>
      <path class="cls-19" d="M91.6,262.79c-5.54-.7-11.11-.24-16.67-.37a4.24,4.24,0,0,1-2.35-.45,1.29,1.29,0,0,1-.49-2.05,4.23,4.23,0,0,1,3.67-2,18,18,0,0,1,5,.2,7.21,7.21,0,0,0,1.74.09c3.24,0,6.49,0,9.74,0a5.46,5.46,0,0,1,3.16.76A36.07,36.07,0,0,1,91.6,262.79Z"/>
      <path class="cls-19" d="M98.91,255.48q-8.67-.48-17.35-.38c-1,0-2.15,0-2.44-1.15s.57-1.92,1.51-2.48a5.44,5.44,0,0,1,4-.77,12.51,12.51,0,0,0,2.58.23c3.65,0,7.3,0,11,0a10,10,0,0,1,4.57.75A34.36,34.36,0,0,1,98.91,255.48Z"/>
      <path class="cls-19" d="M77,277.45a2.14,2.14,0,0,0-1.64-.4c-1.33,0-2.66-.06-4,0-4.11.2-8.2-.38-12.31-.36a1.55,1.55,0,0,1-1.69-.92,1.64,1.64,0,0,1,.63-1.85A4.1,4.1,0,0,1,61,272.53c3.69.1,7.39-.21,11.09.26a44,44,0,0,0,6.08.06,3.71,3.71,0,0,1,2.6.74A35.08,35.08,0,0,1,77,277.45Z"/>
      <path class="cls-19" d="M84.26,270.14a2.65,2.65,0,0,0-2-.4c-3.48,0-7-.07-10.43,0-2,.05-3.92-.29-5.88-.4-1.46-.08-1.9-1.09-1.08-2.29a4.18,4.18,0,0,1,3.59-1.81,73.25,73.25,0,0,1,8,.19,77.86,77.86,0,0,0,8.51.1,5.53,5.53,0,0,1,3.16.75A36.83,36.83,0,0,1,84.26,270.14Z"/>
      <path class="cls-19" d="M113.16,241.25a2,2,0,0,0-1.63-.41c-5.21.22-10.39-.54-15.59-.35-.23,0-.46,0-.69,0a1.52,1.52,0,0,1-1.51-1,1.64,1.64,0,0,1,.5-1.89,4.31,4.31,0,0,1,2.94-1.3c4.28,0,8.56-.12,12.84.07,1.78.08,3.56.25,5.35.26a1.67,1.67,0,0,1,1.62.79A30.63,30.63,0,0,1,113.16,241.25Z"/>
      <path class="cls-19" d="M106.21,248.18c-5.73.06-11.45-.61-17.19-.38a5.3,5.3,0,0,1-.69,0c-.83-.08-1.7-.2-1.93-1.16a2,2,0,0,1,1-2.08,4.5,4.5,0,0,1,2.75-.94c5,0,10-.05,15,.06a17.78,17.78,0,0,1,5,.69A34.54,34.54,0,0,1,106.21,248.18Z"/>
      <path class="cls-19" d="M101.61,264.86c.7,4.77.22,9.58.36,14.37a18.08,18.08,0,0,0,.25,3.1,6.49,6.49,0,0,1-.89,4.66,3,3,0,0,1-.5.7c-1.17,1.14-2.46.81-2.89-.75a6.53,6.53,0,0,1-.14-1.72c0-3.24-.07-6.48,0-9.71,0-1.86-.42-3.67-.43-5.52,0-.21-.18-.41-.28-.62A50.52,50.52,0,0,1,101.61,264.86Z"/>
      <path class="cls-19" d="M94.3,272.17a30.66,30.66,0,0,1,.33,7.77c-.11,3.71.39,7.38.38,11.08a5.64,5.64,0,0,1-1,3.42,2.46,2.46,0,0,1-1.22.92,1.4,1.4,0,0,1-2-1,6.17,6.17,0,0,1-.25-2.22q0-6.51,0-13a3,3,0,0,0-.68-2.42A50.52,50.52,0,0,1,94.3,272.17Z"/>
      <path class="cls-19" d="M123.21,243.28a3.45,3.45,0,0,1,.34,1.34c.09,6.07.55,12.14.35,18.22a3.83,3.83,0,0,1-1.77,3.39,1.45,1.45,0,0,1-2.39-1.15,4.52,4.52,0,0,1,0-.52c.07-5-.57-10.06-.36-15.1a2.74,2.74,0,0,0-.33-2A40.14,40.14,0,0,1,123.21,243.28Z"/>
      <path class="cls-19" d="M87,279.48a8.94,8.94,0,0,1,.35,2.91c0,1.79,0,3.59,0,5.38,0,3.52.51,7,.36,10.56a5.88,5.88,0,0,1-1,3.41,2.37,2.37,0,0,1-1.22.92c-1.13.37-1.83-.06-1.91-1.23-.17-2.24-.43-4.47-.38-6.74.08-3.06,0-6.13,0-9.19a2.59,2.59,0,0,0-.34-1.84A41.24,41.24,0,0,1,87,279.48Z"/>
      <path class="cls-19" d="M115.9,250.59a3.28,3.28,0,0,1,.34,1.34c.05,3.41.49,6.8.37,10.23-.09,2.6,0,5.21,0,7.82a4.28,4.28,0,0,1-1.22,3.15,1.83,1.83,0,0,1-2,.62,1.6,1.6,0,0,1-.92-1.71c0-.18,0-.35,0-.53.24-5.09-.5-10.17-.35-15.27a2,2,0,0,0-.34-1.48A40.14,40.14,0,0,1,115.9,250.59Z"/>
      <path class="cls-19" d="M108.6,257.9a15.4,15.4,0,0,1,.67,4.26c0,4.93,0,9.86,0,14.79a5.13,5.13,0,0,1-.79,3,2.21,2.21,0,0,1-2.17,1.16c-.77-.2-1.21-.86-1.22-2.07,0-2.84,0-5.69,0-8.53,0-2.49-.5-5-.35-7.45a1.34,1.34,0,0,0-.33-1A39.28,39.28,0,0,1,108.6,257.9Z"/>
      <path class="cls-20" d="M299,326.53a23.27,23.27,0,0,1-3.16,4.42c-1.38.05-2-1.05-2.74-1.89a35.1,35.1,0,0,1-8.49-20.5,114.35,114.35,0,0,1,.32-19.23c.88-9.56,2.38-19,3.48-28.57q1-9,1.59-18.14a85.17,85.17,0,0,0-2.18-25.47C286,209.67,281.48,204,275.93,199c-8.75-7.92-18.9-13.95-28.14-21.21-2.46-1.93-4.95-3.83-7.23-6a4.67,4.67,0,0,1-1.36-2l3.34-3.93a2.65,2.65,0,0,1,1.31.81,127.87,127.87,0,0,0,15.08,12c5.62,4,11.32,7.88,16.68,12.21A63.39,63.39,0,0,1,288,203.52a37.08,37.08,0,0,1,5.77,14,72.31,72.31,0,0,1,1.51,12.56c.06,2.07.34,4.16.24,6.24-.17,3.57-.3,7.15-.58,10.73-.24,3.06-.5,6.11-.81,9.16-.32,3.22-.78,6.42-1.19,9.63s-.83,6.19-1.22,9.29c-.44,3.49-.86,7-1.29,10.49-.16,1.32-.24,2.65-.38,4a90.69,90.69,0,0,0-.35,15.1c.3,5,1.18,9.9,3.72,14.34A28.6,28.6,0,0,0,299,326.53Z"/>
      <path class="cls-20" d="M29.49,64.67a20.94,20.94,0,0,1,4.25-3.06,36,36,0,0,0,6.47,4.93c4.24,2.66,8.94,3.63,13.84,4.14a96.88,96.88,0,0,0,10.07.26c2.43,0,4.84-.36,7.26-.56,2.59-.21,5.18-.46,7.76-.79,2.41-.32,4.82-.6,7.23-.9l9.46-1.21,6.54-.79c3.27-.39,6.55-.71,9.83-1,2.48-.23,5-.35,7.44-.51a73.28,73.28,0,0,1,11.28.1c2.71.25,5.42.4,8.11.82,6.65,1,13.06,2.74,18.53,6.92A61.6,61.6,0,0,1,165,79.75c6.7,7.13,11.94,15.35,17.71,23.17,3.51,4.75,6.89,9.6,11.11,13.78a2.42,2.42,0,0,1,.8,1.31l-3.91,3.35a6.77,6.77,0,0,1-3-2.5,217.26,217.26,0,0,1-13.74-18.12,174.14,174.14,0,0,0-13.66-17.53,36.9,36.9,0,0,0-23-11.84,95.4,95.4,0,0,0-16.79-1c-6.24.27-12.46.84-18.67,1.54C95.9,72.56,90,73.38,84.1,74.15c-4.76.62-9.52,1.2-14.31,1.58-9.43.76-18.85,1.26-28-2-4.47-1.58-8.11-4.43-11.7-7.37A1.58,1.58,0,0,1,29.49,64.67Z"/>
      <path class="cls-21" d="M239.2,169.85a2,2,0,0,1,1.17.69,137.79,137.79,0,0,0,14.25,11.36c5.71,4.15,11.61,8,17.12,12.48A62.4,62.4,0,0,1,284,206.8a30.22,30.22,0,0,1,4.41,9.58,69.55,69.55,0,0,1,2.28,14.37,77.71,77.71,0,0,1,.22,8.49c-.17,3.17-.27,6.35-.55,9.52-.25,2.88-.53,5.76-.81,8.63-.33,3.22-.8,6.42-1.21,9.63s-.81,6.31-1.21,9.46c-.42,3.39-.82,6.77-1.27,10.15-.19,1.44-.22,2.88-.38,4.32a91.63,91.63,0,0,0-.37,15.27,39.45,39.45,0,0,0,3,13.67,41.82,41.82,0,0,0,4.66,7.51c.91,1.28,2.07,2.34,3.05,3.55a20,20,0,0,1-3.2,3.85c-.69.25-1.06-.25-1.48-.64a33.68,33.68,0,0,1-10.93-21.65,108,108,0,0,1,.15-20.26c.77-9.52,2.29-18.94,3.33-28.42a163,163,0,0,0,1.33-24.08c-.31-7.94-1.41-15.79-4.89-23.06a26.74,26.74,0,0,0-11.12-11.82c-6.8-3.89-14.31-5.55-21.83-7.18-6.11-1.33-12.25-2.56-18.13-4.75a34.24,34.24,0,0,1-8-4c-.58-.41-1.25-.75-.7-1.63A133.49,133.49,0,0,0,239.2,169.85Z"/>
      <path class="cls-20" d="M220.35,187.27c.05.77.71,1,1.22,1.36a39.65,39.65,0,0,0,9.94,4.52c7.08,2.29,14.42,3.46,21.63,5.2a58.93,58.93,0,0,1,16.68,6.33,28.55,28.55,0,0,1,12,14.42,58,58,0,0,1,3.28,13.12c.91,6.23.74,12.49.6,18.74-.07,3.28-.57,6.56-.91,9.84-.36,3.45-.72,6.9-1.14,10.34-.38,3.1-.86,6.19-1.25,9.29-.31,2.47-.49,4.95-.83,7.41-.49,3.56-.71,7.14-.92,10.72a75.29,75.29,0,0,0,.12,11.63,66.91,66.91,0,0,0,1.18,7.72,28.21,28.21,0,0,0,6.25,12.26,38.87,38.87,0,0,0,4.44,4.63,1.17,1.17,0,0,1-.63.71,16,16,0,0,1-5.31-4.95c-.91-1.76-2.29-3.19-3.28-4.9A37.78,37.78,0,0,1,279,311.54a93.41,93.41,0,0,1-.41-16.63c.17-4.35.68-8.71,1.21-13.06.6-5,1.24-10.07,1.88-15.11s1.24-9.86,1.6-14.8a101.43,101.43,0,0,0,0-18.36,60.05,60.05,0,0,0-3.42-15.33c-2.6-6.73-7.44-11.16-13.9-14-5.91-2.63-12.19-4-18.48-5.32-7.2-1.53-14.39-3.06-21.14-6.11a23.42,23.42,0,0,1-7.13-4.53A2.65,2.65,0,0,1,220.35,187.27Z"/>
      <path class="cls-3" d="M219.21,188.25c6.49,4.81,14,7,21.77,8.73,5.53,1.26,11.12,2.29,16.58,3.84a46.51,46.51,0,0,1,12.74,5.42,25.37,25.37,0,0,1,10.19,12.6,53.79,53.79,0,0,1,3.24,13.82,69.21,69.21,0,0,1,.6,11.94c-.21,3-.25,6-.53,9s-.54,5.87-.84,8.8c-.42,4-1,7.91-1.52,11.86-.43,3.38-.85,6.77-1.22,10.15s-.66,6.56-1,9.83c-.05.52-.06,1-.07,1.56,0,3.77-.05,7.54,0,11.31A41.13,41.13,0,0,0,282.83,324a43.52,43.52,0,0,0,4.36,6.68.37.37,0,0,1-.07.52c-.59.25-1.14.41-1.32-.48.18-.1.55-.1.45-.38a3.91,3.91,0,0,0-.66-1,35.27,35.27,0,0,1-7.14-17.49,91.5,91.5,0,0,1-.42-19.08c.6-9.37,2-18.65,3.11-28,.66-5.52,1.27-11,1.6-16.6.23-3.71.34-7.41.2-11.12a58,58,0,0,0-3.36-18.55,23.4,23.4,0,0,0-11.85-13.06,61.45,61.45,0,0,0-13.65-4.59c-6-1.43-12.15-2.49-18.11-4.19a50.87,50.87,0,0,1-14.79-6.38c-.77-.52-1.51-1.08-2.26-1.62C219,188.5,219.11,188.38,219.21,188.25Z"/>
      <path class="cls-21" d="M29.49,64.67a38.09,38.09,0,0,0,7.22,5.67c4.69,3,9.94,4.25,15.43,4.86a74.72,74.72,0,0,0,11.29.22c3.45-.14,6.91-.48,10.37-.85,3.28-.34,6.55-.74,9.82-1.16,3.09-.4,6.19-.83,9.29-1.21q5.25-.66,10.51-1.24c3-.33,6-.63,9-.94.23,0,.46-.06.69-.07,4.63-.14,9.26-.61,13.89-.34,6.78.39,13.5,1.11,20,3.38a30.64,30.64,0,0,1,9.63,5.78c5.76,4.86,10.27,10.82,14.66,16.88,4,5.49,7.89,11,11.93,16.46a79.57,79.57,0,0,0,6.6,7.84c.4.41.88.77,1,1.41a144.44,144.44,0,0,0-17.65,18.94c-1.11.27-1.39-.69-1.8-1.31a44.78,44.78,0,0,1-5.17-11.89c-1.92-6.45-3-13.09-4.6-19.61-1.44-5.92-3.27-11.68-6.47-16.95-3.78-6.2-9.39-9.88-16.15-12.08-8.15-2.65-16.54-3.12-25-2.95-8.69.17-17.29,1.31-25.9,2.36-8.2,1-16.38,2.21-24.66,2.64a108.45,108.45,0,0,1-11.11.15c-9.24-.46-17.77-2.91-24.42-9.89-.83-.87-2.29-1.31-2.09-2.93A16.84,16.84,0,0,1,29.49,64.67Z"/>
      <path class="cls-20" d="M25.67,67.84a34.48,34.48,0,0,0,7.48,6.68c3.91,2.83,8.43,4,13.1,4.79A64.35,64.35,0,0,0,59.76,80c3.75-.19,7.5-.45,11.24-.86,3.33-.37,6.66-.78,10-1.18s6.65-.88,10-1.25c3.79-.42,7.58-.86,11.37-1.26a138.79,138.79,0,0,1,19.44-.58,56.17,56.17,0,0,1,21.9,4.89,28.05,28.05,0,0,1,12.93,12.43A64.82,64.82,0,0,1,162.25,108c1.55,6.36,2.6,12.83,4.48,19.11a42.68,42.68,0,0,0,5.2,11.9,3.3,3.3,0,0,0,1.13,1.3l-.43.64c-1.11.4-1.38-.58-1.79-1.18a50.55,50.55,0,0,1-6.57-15.23c-1.89-6.86-3-13.91-4.86-20.78a60.78,60.78,0,0,0-4-10.89C152,86,146.5,81.81,139.3,79.62A70.33,70.33,0,0,0,122.61,77a113.42,113.42,0,0,0-14,.32c-5.8.39-11.57,1.16-17.35,1.89-4.28.55-8.58,1-12.87,1.58a155.22,155.22,0,0,1-22.8,1.32A48.59,48.59,0,0,1,38.6,79c-3.72-1.47-6.79-3.89-9.92-6.28-1.43-1.1-2.61-2.45-4-3.55h-.24C24.51,68.44,25.15,68.19,25.67,67.84Z"/>
      <path class="cls-3" d="M24.66,69.19c.75-.47,1.05.24,1.41.6a55.88,55.88,0,0,0,5.6,4.94,32.42,32.42,0,0,0,14.47,6c6.5,1.19,13.06.8,19.59.61,4-.12,8-.71,12.07-1.18,5.11-.6,10.21-1.31,15.32-1.92,3.61-.43,7.23-.87,10.85-1.23a43.11,43.11,0,0,1,6.23-.45c1.56.07,3.12-.25,4.67-.28a79.51,79.51,0,0,1,21.52,2.1A38.56,38.56,0,0,1,145.74,82a25,25,0,0,1,9.83,10.5,62.72,62.72,0,0,1,5.27,15c1.81,7.6,3,15.35,5.65,22.75a43.1,43.1,0,0,0,4.61,9.33c.38.58.73,1.2,1.53,1.28a1.24,1.24,0,0,1-.69.71A42,42,0,0,1,165,128.3c-2-6-3.18-12.11-4.53-18.22a85.29,85.29,0,0,0-4.22-14.69C154,90,150.7,85.34,145.36,82.5a37,37,0,0,0-8.63-3.18,72.67,72.67,0,0,0-18.48-1.76,171.82,171.82,0,0,0-17.85,1.33c-8.75,1-17.49,2.16-26.25,3.12a122.11,122.11,0,0,1-18.93.74A56.48,56.48,0,0,1,43.37,81a33.59,33.59,0,0,1-12.92-6.58c-.85-.7-1.72-1.39-2.57-2.08-1,.4-1.49-.22-2-.86a15.31,15.31,0,0,1-1.19-2A1.4,1.4,0,0,0,24.66,69.19Z"/>
      <path class="cls-6" d="M24.72,69.47q1.58,1.45,3.16,2.9a68.24,68.24,0,0,0,1.85,7.75Q39.37,118.07,49.07,156q9.12,35.75,18.25,71.49l7.05,27.58-2,1.07c-.37-1.4-.76-2.79-1.12-4.2q-4.86-19-9.7-38.08-4.14-16.17-8.28-32.34-4.41-17.27-8.8-34.54-4.29-16.86-8.61-33.7c-2.94-11.51-5.84-23-8.81-34.54C26.25,75.66,25.4,72.59,24.72,69.47Z"/>
      <path class="cls-22" d="M75.52,278.76a.81.81,0,0,0-.16-.16l.56-.13A.47.47,0,0,1,75.52,278.76Z"/>
      <path class="cls-6" d="M285.8,330.67c.37.37.88.31,1.33.47.89.73,1.89,1.37,2.09,2.66-3-.74-6.09-1.46-9.12-2.21L226,318.13l-51.45-12.78-52.29-13-16.88-4.15c-.44-.11-.88-.27-1.32-.41.37-.67.74-1.34,1.1-2a.17.17,0,0,0,.23,0c.35.23.81,0,1.14.29,3.54,1.11,7.17,1.87,10.76,2.77q34.13,8.51,68.25,17l100,24.81Z"/>
      <path class="cls-23" d="M289.22,333.8c-.56-1-1.62-1.6-2.09-2.66l.06-.51c1.09.63,1.53,1.85,2.44,2.65a25.25,25.25,0,0,0,2.4,2.23.74.74,0,0,1-.66.39A13.77,13.77,0,0,0,289.22,333.8Z"/>
      <path class="cls-20" d="M17.49,51.8a3.11,3.11,0,0,1-1.08.74A28.5,28.5,0,0,1,18,36.67a33.83,33.83,0,0,1,7.56-11.56,24.09,24.09,0,0,1,10.65-6.35,20.28,20.28,0,0,1,11.65-.4,7.19,7.19,0,0,1,2.93,1.44h0a44.72,44.72,0,0,0-6.23.17,22.73,22.73,0,0,0-9.41,4.25A26.77,26.77,0,0,0,26.53,34.9,20.32,20.32,0,0,0,25,47.59a29.81,29.81,0,0,0-3.8,1.88c-.3.33-.62.52-1,.21a2.81,2.81,0,0,1-.76-1.88,21.77,21.77,0,0,1,2.75-13.36,16.34,16.34,0,0,1,1.14-1.81s0,0,0,0c-.28.56-.74,1-1,1.55A33.85,33.85,0,0,0,18.22,50a2.28,2.28,0,0,1-.43,1.45l-.07.07A.34.34,0,0,0,17.49,51.8Z"/>
      <path class="cls-20" d="M50.79,19.8l.31.08c-.18.23-.21-.05-.31-.09Z"/>
      <path class="cls-20" d="M307.79,344.19a6.31,6.31,0,0,1,1-1.41,4.82,4.82,0,0,1,3-.7,32.17,32.17,0,0,0,13.33-3.36A19.72,19.72,0,0,1,312,340.78a2,2,0,0,1-1.23-.57c-.28-.52-.06-.89.37-1.2l1.8-3.5c1.09.12,2.18.32,3.27.33a22.55,22.55,0,0,0,13.67-4.36,27.76,27.76,0,0,0,8.69-9.77,19.24,19.24,0,0,0,2.12-11.61c0-.17-.06-.34-.07-.51s.05-.08.18-.27a11,11,0,0,1,1.65,4.17,21.65,21.65,0,0,1-1.31,12.59c-2.47,6.26-7,10.64-12.66,14a34.19,34.19,0,0,1-13.79,4.39,10,10,0,0,1-2.94,0A31.34,31.34,0,0,0,307.79,344.19Z"/>
      <path class="cls-11" d="M305.24,337.94a6.18,6.18,0,0,0-1,1.72,11.66,11.66,0,0,1-1,1.43h0c-.31.49-.7.93-1.06,1.39h0c-.79.34-1.39,1.1-2.34,1.07-.35,0-.72,0-.93-.33s0-.66.19-.95c1.14-1.75,2.3-3.49,3.42-5.24a51.17,51.17,0,0,0,2.93-5.14c.14-.3.27-.71.69-.68s.59.5.74.87a2.24,2.24,0,0,1-.11,1.53c-.36,1.22-.74,2.43-1.11,3.64h0C305.42,337.44,305.5,337.78,305.24,337.94Z"/>
      <path class="cls-11" d="M17,59.5c1.16-1.44,2.8-2.3,4.19-3.46.15-.26.5-.17.68-.39h0c1.66-.48,3.1-1.57,4.86-1.81a6,6,0,0,1,1.18-.19c.52,0,1.15.14,1.29.7s-.53.67-.9.87a88.84,88.84,0,0,0-8.45,5.13c-.38.26-.75.54-1.15.77s-1,1-1.67.51S16.87,60.57,17,60C17,59.84,17,59.67,17,59.5Z"/>
      <path class="cls-24" d="M311.16,339l-.3,1c0,.72-.19,1.22-1.05,1.07a4.46,4.46,0,0,1,1-2.1Z"/>
      <path class="cls-25" d="M20.51,49.68l.72-.21.33.28a7.71,7.71,0,0,1-2.94,1.41C18.65,49.9,19.33,49.47,20.51,49.68Z"/>
      <path class="cls-11" d="M301.15,333.09a35.77,35.77,0,0,1-3.9,5.53c-.46.35-.9.74-1.38,1.05a3.42,3.42,0,0,1-1.92.71c-.42,0-.84-.07-1-.5s.14-.64.36-.91l3-3.61a62.81,62.81,0,0,0,4.44-6c.18-.29.32-.68.74-.62s.56.53.64.92a2.35,2.35,0,0,1-.16,1.36,5,5,0,0,0-.51,1.65h0Z"/>
      <path class="cls-9" d="M27.81,59.11a.93.93,0,0,1,.7-.33A.84.84,0,0,1,27.81,59.11Z"/>
      <path class="cls-26" d="M309.81,341.1c.51-.2.63-.78,1.05-1.07a28.83,28.83,0,0,1,3.61.34,25.62,25.62,0,0,0,7.69-1,22.34,22.34,0,0,0,4.5-1.79,1.65,1.65,0,0,1,1.45-.35,27.78,27.78,0,0,1-19.27,5.58c.09-.17.17-.35.26-.52a5.8,5.8,0,0,1,.71-1.17Z"/>
      <path class="cls-24" d="M309.81,341.09a1.61,1.61,0,0,1-.71,1.17A1.23,1.23,0,0,1,309.81,341.09Z"/>
      <path class="cls-26" d="M20.51,49.68c-.6.54-1.4.8-1.88,1.48l-.84.32c-.83-2.85-.17-5.65.41-8.4a27.69,27.69,0,0,1,4.05-9.35c.32-.09.48,0,.38.35a39.16,39.16,0,0,0-2.08,6.19A25.45,25.45,0,0,0,20.51,49.68Z"/>
      <path class="cls-26" d="M17.49,51.8l.23-.25Z"/>
      <path class="cls-9" d="M301.15,333.09l.28-.38Z"/>
      <path class="cls-9" d="M21.9,55.65a.94.94,0,0,1-.68.39A.82.82,0,0,1,21.9,55.65Z"/>
      <path class="cls-9" d="M303.18,341.09a2.12,2.12,0,0,1,1-1.43A1.64,1.64,0,0,1,303.18,341.09Z"/>
      <path class="cls-9" d="M302.12,342.47a2,2,0,0,1,1.06-1.39A1.68,1.68,0,0,1,302.12,342.47Z"/>
      <path class="cls-9" d="M305.24,337.94a1,1,0,0,1,.36-.7A.77.77,0,0,1,305.24,337.94Z"/>
      <path class="cls-7" d="M106.49,286.07a1.35,1.35,0,0,1-1.14-.29A1.3,1.3,0,0,1,106.49,286.07Z"/>
      <path class="cls-27" d="M22.63,34.08l-.38-.35c.52-.75.87-1.64,1.73-2.1h0A5.5,5.5,0,0,1,22.63,34.08Z"/>
      <path class="cls-27" d="M24,31.63a3.65,3.65,0,0,1,.14-.5c.07-.14.2-.32.38-.12,0,0,0,.23-.11.3a2.44,2.44,0,0,1-.4.32Z"/>
    </g>
  </g>
</svg>
