<svg id="Layer_1" data-name="Layer 1" xmlns="http://www.w3.org/2000/svg" width="512" height="512" viewBox="0 0 512 512">
  <defs>
    <style>
      .cls-1 {
        fill: #e84f4f;
      }
    </style>
  </defs>
  <path class="cls-1" d="M285.18,86.25l0,27.57c-25-3.9-66.14-6.51-91.57,11.66a64.45,64.45,0,0,0-26.4,45c-3.05,24.69,10.17,47.08,21.58,56.29.43.35.86.68,1.3,1a54.85,54.85,0,0,0,11.4,6.52,73.43,73.43,0,0,0,12.46,4,96.13,96.13,0,0,0,12.65,1.95c4,.36,8,.51,12,.48,1.5,0,3,0,4.49-.1a150.84,150.84,0,0,0,15.74-1.41A96.09,96.09,0,0,0,271,236.38a146.87,146.87,0,0,1,14.8-3.71c4.53-.81,9.75-1.6,14.32-.73,4.37.84,8.27,2,11.21,5.08,4.07,4.21,5.11,7.57,5.08,13.16,0,1.34-.05,1-.16,3.37-.07,1.44-.16,1.66-.46,5.86-.15,2.12-.44,4.24-.75,6.35A82.92,82.92,0,0,1,309.19,287c-.54,1.25-1.12,2.49-1.74,3.71A73.76,73.76,0,0,1,300,302.52a53.76,53.76,0,0,1-8.23,9,39.79,39.79,0,0,1-7.5,4.6c-1.37.67-2.77,1.26-4.18,1.85-1.11.47-2.76,1.76-3.72.4h0c-.24-.35-.49-.69-.74-1q-2.89-4.08-6-8a141.17,141.17,0,0,0-12.54-14.17,85.51,85.51,0,0,0-13.56-10.95,61.15,61.15,0,0,0-15.07-7.09,57.46,57.46,0,0,0-16.86-2.49h-1.06c-30.64.53-43.59,15.52-45.48,29.38-2.58,18.77,13.67,36.63,39.5,43.44,22.06,5.8,52.9,5.27,69.45,3.25,3.47,5.54,20.19,51.18,33.26,75h0l27-18c-12.71-16.78-23.69-34.87-34.31-52.36-1.92-3.16-3.81-6.28-5.71-9.37a86.43,86.43,0,0,0,17.47-9.67c.56-.4,1.13-.82,1.68-1.24a81.3,81.3,0,0,0,21.86-25.07,87.71,87.71,0,0,0,6.85-15.55,99.07,99.07,0,0,0,4.05-17.37,109.18,109.18,0,0,0,1.07-18.77,73.57,73.57,0,0,0-1.8-13.61,32.16,32.16,0,0,0-2.18-7.33,74.33,74.33,0,0,0-5.42-12.09,44.54,44.54,0,0,0-6-7.92c-3.11-3.15-3.81-3.7-8.24-6.46A64.21,64.21,0,0,0,312.77,206a60,60,0,0,0-13.65-3.6,41.92,41.92,0,0,0-10.53-.21c-1.31.09-4.65.55-5.94.77-4.95.86-8.38,1.66-13.22,2.76A125.68,125.68,0,0,1,254,208.31c-1.56.15-3.13.27-4.69.35-5.41.27-10.83.14-16.24-.08a127.33,127.33,0,0,1-18.59-2c-5.28-1-11.19-2.43-15.36-5.82-2.54-2.06-10.2-9.2-9-27.48.82-11.94,8-20.42,11.77-23.11,19.82-14.2,78.2-6,93.61-2.07,0,0,9.51,3.49,17,.89,6.45-2.22,5.7-10.5,5.7-10.5l0-52.23M213.51,317.61c-5.5-1.45-8.12-3.1-10-5.5-3.8-4.81-.25-32.65,50.48,10.85C246.15,322.13,238.91,323.74,213.51,317.61Z"/>
</svg>
