<svg id="Layer_1" data-name="Layer 1" xmlns="http://www.w3.org/2000/svg" width="512" height="512" viewBox="0 0 512 512">
  <defs>
    <style>
      .cls-1 {
        fill: #dd35ef;
      }
    </style>
  </defs>
  <path class="cls-1" d="M381.87,102.61V69.84H129.59l.38,32.77H276v27.57c-25-3.91-66.13-6.52-91.57,11.66a64.38,64.38,0,0,0-26.39,45c-3.06,24.7,10.16,47.08,21.58,56.29.42.35.86.69,1.3,1a54.37,54.37,0,0,0,11.4,6.51,72.44,72.44,0,0,0,12.45,4,96.28,96.28,0,0,0,12.66,1.95c4,.37,8,.51,12,.49,1.5,0,3-.05,4.49-.1a150.66,150.66,0,0,0,15.73-1.42,96.63,96.63,0,0,0,12.25-2.82c4.89-1.38,9.77-2.82,14.79-3.71,4.53-.8,9.75-1.6,14.32-.72,4.38.83,8.27,2,11.21,5.08,4.08,4.2,5.11,7.57,5.08,13.15,0,1.35-.05,1.05-.16,3.37-.06,1.44-.16,1.66-.46,5.86-.15,2.13-.43,4.24-.74,6.36a83.78,83.78,0,0,1-5.89,21.2c-.55,1.26-1.13,2.49-1.75,3.71a73.76,73.76,0,0,1-7.49,11.84,53.28,53.28,0,0,1-8.22,9,39.36,39.36,0,0,1-7.51,4.6c-1.36.68-2.77,1.26-4.18,1.86-1.1.47-2.75,1.76-3.72.39h0c-.24-.34-.48-.69-.73-1-1.94-2.72-3.92-5.4-6-8a143.82,143.82,0,0,0-12.54-14.18,86.15,86.15,0,0,0-13.57-10.95,61.22,61.22,0,0,0-15.06-7.08A57.24,57.24,0,0,0,202.39,291h-1.06c-30.63.52-43.58,15.51-45.48,29.37-2.58,18.78,13.67,36.64,39.51,43.44,22,5.81,52.9,5.27,69.45,3.26,3.46,5.53,20.19,51.17,33.25,75h0l27-18c-12.72-16.77-23.7-34.86-34.32-52.36-1.92-3.15-3.81-6.28-5.7-9.36a87.6,87.6,0,0,0,17.46-9.67l1.69-1.24A81.49,81.49,0,0,0,326,326.43a88.35,88.35,0,0,0,6.85-15.54,99.36,99.36,0,0,0,4-17.38A110.15,110.15,0,0,0,338,274.74a74.43,74.43,0,0,0-1.8-13.61,32.62,32.62,0,0,0-2.19-7.32,73.11,73.11,0,0,0-5.42-12.09,43.83,43.83,0,0,0-6-7.93c-3.1-3.15-3.8-3.7-8.24-6.46a64.21,64.21,0,0,0-10.73-4.94,59.82,59.82,0,0,0-13.65-3.6,42.31,42.31,0,0,0-10.52-.21c-1.31.1-4.65.55-6,.78-4.95.85-8.38,1.65-13.22,2.75a125.68,125.68,0,0,1-15.47,2.55c-1.56.16-3.12.27-4.69.35-5.41.27-10.83.14-16.23-.08a127.18,127.18,0,0,1-18.59-2c-5.29-1-11.19-2.43-15.37-5.82-2.54-2.06-10.19-9.19-8.94-27.48.81-11.93,8-20.42,11.76-23.11,19.82-14.19,78.21-6,93.61-2.06,0,0,9.52,3.48,17.05.89,6.44-2.23,5.69-10.51,5.69-10.51V102.61ZM204.32,334c-5.49-1.44-8.11-3.1-10-5.5-3.81-4.81-.25-32.64,50.47,10.85C237,338.48,229.72,340.09,204.32,334Z"/>
</svg>
