<svg id="Layer_1" data-name="Layer 1" xmlns="http://www.w3.org/2000/svg" width="512" height="512" viewBox="0 0 512 512">
  <defs>
    <style>
      .cls-1 {
        fill: #8d8e8d;
      }
    </style>
  </defs>
  <path class="cls-1" d="M382.14,102.64V69.87H129.86l.38,32.77h146v27.57c-25-3.91-66.13-6.51-91.56,11.66a64.39,64.39,0,0,0-26.4,45c-3.06,24.7,10.16,47.09,21.58,56.3.42.34.86.68,1.3,1a54.37,54.37,0,0,0,11.4,6.51,71.85,71.85,0,0,0,12.45,4,98,98,0,0,0,12.66,2c4,.36,8,.5,12,.48,1.5,0,3-.05,4.49-.1a147.76,147.76,0,0,0,15.73-1.42,96.63,96.63,0,0,0,12.25-2.82c4.89-1.38,9.77-2.82,14.79-3.71,4.53-.8,9.76-1.59,14.32-.72,4.38.83,8.27,2,11.21,5.08,4.08,4.21,5.11,7.57,5.08,13.15,0,1.35,0,1.05-.16,3.38-.06,1.43-.16,1.65-.46,5.85-.15,2.13-.43,4.25-.74,6.36a83.74,83.74,0,0,1-5.89,21.21c-.55,1.25-1.13,2.48-1.75,3.7a74,74,0,0,1-7.48,11.84,53.38,53.38,0,0,1-8.23,9,39.36,39.36,0,0,1-7.51,4.6c-1.36.68-2.77,1.26-4.18,1.86-1.1.47-2.75,1.76-3.72.4h0c-.24-.34-.48-.69-.73-1-1.94-2.71-3.92-5.4-6-8a142.43,142.43,0,0,0-12.54-14.17,85.65,85.65,0,0,0-13.57-11,61.59,61.59,0,0,0-15.06-7.08A57.57,57.57,0,0,0,202.66,291H201.6c-30.63.52-43.58,15.52-45.48,29.37-2.58,18.78,13.67,36.64,39.51,43.45,22.05,5.8,52.9,5.26,69.45,3.25,3.46,5.53,20.19,51.17,33.25,75h0l27-18c-12.71-16.77-23.7-34.86-34.31-52.35-1.93-3.16-3.82-6.29-5.71-9.37a87.32,87.32,0,0,0,17.46-9.67l1.69-1.24a81.49,81.49,0,0,0,21.86-25.08,88,88,0,0,0,6.85-15.54,99.15,99.15,0,0,0,4-17.38,110.15,110.15,0,0,0,1.08-18.77,74.55,74.55,0,0,0-1.8-13.61,32.62,32.62,0,0,0-2.19-7.32,73.11,73.11,0,0,0-5.42-12.09,44.19,44.19,0,0,0-6-7.93c-3.1-3.15-3.8-3.69-8.24-6.46a64.21,64.21,0,0,0-10.73-4.94,59.85,59.85,0,0,0-13.64-3.6,41.93,41.93,0,0,0-10.53-.2c-1.31.09-4.65.54-5.95.77-5,.86-8.38,1.65-13.21,2.75A126.15,126.15,0,0,1,245,224.69c-1.56.16-3.12.27-4.69.35-5.41.27-10.83.14-16.23-.08a125.82,125.82,0,0,1-18.59-2c-5.29-1-11.19-2.43-15.37-5.81-2.54-2.06-10.19-9.2-8.94-27.48.81-11.94,8-20.43,11.76-23.12,19.82-14.19,78.21-6,93.61-2.06,0,0,9.52,3.49,17.05.89,6.44-2.22,5.69-10.5,5.69-10.5V102.64ZM204.59,334c-5.49-1.44-8.11-3.1-10-5.5-3.81-4.81-.25-32.64,50.47,10.86C237.23,338.51,230,340.12,204.59,334Z"/>
</svg>
