<svg id="Layer_1" data-name="Layer 1" xmlns="http://www.w3.org/2000/svg" width="512" height="512" viewBox="0 0 512 512">
  <defs>
    <style>
      .cls-1 {
        fill: #efe8e9;
      }
    </style>
  </defs>
  <g>
    <path class="cls-1" d="M194.58,328.49c1.9,2.4,4.52,4.06,10,5.5,25.4,6.13,32.64,4.52,40.46,5.36C194.33,295.85,190.77,323.68,194.58,328.49Zm11.12,1.65c-4.71-1.24-6.44-2.44-7.67-4a6.09,6.09,0,0,1,.52-5c.53-.83,1.55-1.93,4.41-1.93,4,0,12.83,2.2,30,15.49C227.11,334.37,218.94,333.34,205.7,330.14Z"/>
    <path class="cls-1" d="M382.14,65.88H129.86a4.38,4.38,0,0,0-3,1.19,3.81,3.81,0,0,0-1.23,2.84l.38,32.77a4.12,4.12,0,0,0,4.25,3.94H272v18.93a225,225,0,0,0-30.1-2.15c-25.47,0-45.59,5.15-59.79,15.3A68.11,68.11,0,0,0,154,186.42c-3.4,27.48,11.91,50.8,23,59.78l1.4,1.1a59.15,59.15,0,0,0,12.31,7A77.85,77.85,0,0,0,204,258.54a103.16,103.16,0,0,0,13.24,2c3.68.34,7.56.51,11.52.51h.92c1.55,0,3.11,0,4.63-.1a157.2,157.2,0,0,0,16.21-1.46,99.48,99.48,0,0,0,12.83-2.94l1.31-.37a131.26,131.26,0,0,1,13-3.24,54,54,0,0,1,9.14-1,18.93,18.93,0,0,1,3.54.3c3.82.73,6.79,1.66,8.91,3.86,3.15,3.25,4,5.5,4,10.45,0,.65,0,.85,0,1.27s-.06.92-.11,1.95c0,.6-.07,1-.12,1.56-.07.78-.18,1.91-.34,4.21-.15,2.1-.44,4.25-.71,6.07a79.64,79.64,0,0,1-5.62,20.25c-.51,1.17-1.07,2.35-1.65,3.51a69.88,69.88,0,0,1-7.09,11.2,49,49,0,0,1-7.57,8.38,35,35,0,0,1-6.7,4.08c-1.1.54-2.26,1-3.49,1.55l-.25.11c-1.88-2.63-3.68-5-5.46-7.31a146,146,0,0,0-12.9-14.57A89.65,89.65,0,0,0,237,297.31a66.12,66.12,0,0,0-16.15-7.58A61.94,61.94,0,0,0,202.66,287h-1.13c-33.35.57-47.5,17.35-49.63,32.86-2.85,20.77,14.66,40.43,42.58,47.78,15.07,4,32.67,4.8,44.78,4.8,8.19,0,16.33-.38,23.3-1.09,1.62,3.53,4.34,10.17,7.18,17.1,7,17,16.55,40.38,24.81,55.45a4.2,4.2,0,0,0,2.78,2.05,4.27,4.27,0,0,0,1,.12,4.5,4.5,0,0,0,2.47-.74l27-18a3.84,3.84,0,0,0,1-5.56c-12.59-16.6-23.51-34.59-34.09-52l-3.43-5.63a90.08,90.08,0,0,0,14.07-8.27c.6-.42,1.19-.86,1.78-1.31a85.45,85.45,0,0,0,12.85-12,86.66,86.66,0,0,0,10.1-14.32,92.27,92.27,0,0,0,7.15-16.22,103.68,103.68,0,0,0,4.2-18,113.65,113.65,0,0,0,1.11-19.42,77.08,77.08,0,0,0-1.89-14.29l-.17-.78a26.23,26.23,0,0,0-1.42-5c-.19-.49-.42-1.12-.73-2a77.87,77.87,0,0,0-5.71-12.7,48.19,48.19,0,0,0-6.65-8.73c-3.35-3.39-4.27-4.12-9-7.07a68.16,68.16,0,0,0-11.47-5.31,63.59,63.59,0,0,0-14.5-3.83,34.5,34.5,0,0,0-6.15-.5c-1.73,0-3.43.09-5.46.23-1.48.11-5,.58-6.4.83-4.83.84-8.34,1.64-12.78,2.65l-.67.15a120.27,120.27,0,0,1-14.91,2.46c-1.43.14-2.94.25-4.48.33-2,.1-4,.15-6.28.15-2.75,0-5.69-.07-9.54-.23a122.22,122.22,0,0,1-17.92-1.93c-5-1-10.09-2.22-13.43-4.93s-8.51-9.26-7.49-24.21c.76-11.12,7.73-18.5,10.11-20.2,6.57-4.71,19.43-7.19,37.2-7.19,22.45,0,44.91,3.84,52.52,5.76a40.12,40.12,0,0,0,12,2,24,24,0,0,0,7.81-1.2c7.38-2.55,8.8-10.16,8.47-14.4V106.62h68.56a4.12,4.12,0,0,0,4.25-4V69.87A4.13,4.13,0,0,0,382.14,65.88Zm0,36.76H309.33v52.23s.75,8.28-5.69,10.5c-7.53,2.6-17.05-.89-17.05-.89-15.4-3.93-73.79-12.13-93.61,2.06-3.74,2.69-10.95,11.18-11.76,23.12-1.25,18.28,6.4,25.42,8.94,27.48,4.18,3.38,10.08,4.8,15.37,5.81a125.82,125.82,0,0,0,18.59,2c5.4.22,10.82.35,16.23.08,1.57-.08,3.13-.19,4.69-.35a126.15,126.15,0,0,0,15.48-2.55c4.83-1.1,8.26-1.89,13.21-2.75,1.3-.23,4.64-.68,5.95-.77a41.93,41.93,0,0,1,10.53.2,59.85,59.85,0,0,1,13.64,3.6,64.21,64.21,0,0,1,10.73,4.94c4.44,2.77,5.14,3.31,8.24,6.46a44.19,44.19,0,0,1,6,7.93,73.11,73.11,0,0,1,5.42,12.09,32.62,32.62,0,0,1,2.19,7.32,74.55,74.55,0,0,1,1.8,13.61,110.15,110.15,0,0,1-1.08,18.77,99.15,99.15,0,0,1-4,17.38,88,88,0,0,1-6.85,15.54,81.49,81.49,0,0,1-21.86,25.08l-1.69,1.24a87.32,87.32,0,0,1-17.46,9.67c1.89,3.08,3.78,6.21,5.71,9.37,10.61,17.49,21.59,35.58,34.31,52.35l-27,18h0c-13.06-23.85-29.79-69.49-33.25-75-16.55,2-47.4,2.55-69.45-3.25-25.84-6.81-42.09-24.67-39.51-43.45C158,306.56,171,291.56,201.6,291h1.06a57.57,57.57,0,0,1,16.87,2.49,61.59,61.59,0,0,1,15.06,7.08,85.65,85.65,0,0,1,13.57,11,142.43,142.43,0,0,1,12.54,14.17c2.06,2.63,4,5.32,6,8,.25.34.49.69.73,1h0c1,1.36,2.62.07,3.72-.4,1.41-.6,2.82-1.18,4.18-1.86a39.36,39.36,0,0,0,7.51-4.6,53.38,53.38,0,0,0,8.23-9,74,74,0,0,0,7.48-11.84c.62-1.22,1.2-2.45,1.75-3.7a83.74,83.74,0,0,0,5.89-21.21c.31-2.11.59-4.23.74-6.36.3-4.2.4-4.42.46-5.85.11-2.33.16-2,.16-3.38,0-5.58-1-8.94-5.08-13.15-2.94-3-6.83-4.25-11.21-5.08-4.56-.87-9.79-.08-14.32.72-5,.89-9.9,2.33-14.79,3.71a96.63,96.63,0,0,1-12.25,2.82A147.76,147.76,0,0,1,234.15,257c-1.5.05-3,.09-4.49.1-4,0-8-.12-12-.48a98,98,0,0,1-12.66-2,71.85,71.85,0,0,1-12.45-4,54.37,54.37,0,0,1-11.4-6.51c-.44-.33-.88-.67-1.3-1-11.42-9.21-24.64-31.6-21.58-56.3a64.39,64.39,0,0,1,26.4-45c25.43-18.17,66.52-15.57,91.56-11.66V102.64h-146l-.38-32.77H382.14Z"/>
  </g>
</svg>
