<svg id="Layer_1" data-name="Layer 1" xmlns="http://www.w3.org/2000/svg" width="512" height="512" viewBox="0 0 512 512">
  <defs>
    <style>
      .cls-1 {
        fill: #ff0;
      }
    </style>
  </defs>
  <path id="SB_50_TI_BG_7RU" class="cls-1" d="M289.7,137H455.49V106.9h-399L56.63,137H238.57v90.2q-9.13-6.51-19.11-13.77Q204.66,202.7,196,195.7q-10.77-8.59-18.84-11t-21-2.42a162.89,162.89,0,0,0-23.14,1.61q-21.54,4.32-43.07,8.07l22.61,29.61q19.38-4.85,31-7a125.3,125.3,0,0,1,22.88-2.15q10.76,0,25.3,7T231,243.62L109.38,324.9l25.18,22,104-73.08V400.17h32.29V256q11.77,4.26,16.69,5.47a58.35,58.35,0,0,0,14,1.58q8.07,0,23.41-6.53t21.27-10.7q14,26.93,14,34.45,0,4.32-12.38,9.69-25.31,11.31-37.68,21-15.07,11.85-15.07,26.92,0,27.45,29.61,48.44Q351,405.1,378.52,405.1q26.36,0,54.9-19.37L407.58,361.5q-8.07,7.54-22.07,13.73t-26.37,6.19q-15.63,0-25.3-8.08T324.15,354q0-12.37,6.51-18.84t26-15.07a186.7,186.7,0,0,0,25.48-12.39q14.11-8.6,14.11-15.07,0-4.31-11-26.91-7.14-14.53-16.46-31.76,2.13-1.08,15.61-9.69,11.82-8.61,11.84-13.46,0-7-7.54-11.3-10.23-7-27.45-14.8t-23.68-7.81c-2.16,0-4.77,1-7.81,3a9.41,9.41,0,0,0-4.58,8.35q0,3.76,3.23,12.11c2.16,5.56,4.12,10.49,5.92,14.8a143.56,143.56,0,0,1-26.64,17.38q-13.73,6.84-22.88,6.84a78.1,78.1,0,0,1-14-1.19V137Z"/>
</svg>
