<svg id="Layer_1" data-name="Layer 1" xmlns="http://www.w3.org/2000/svg" width="512" height="512" viewBox="0 0 512 512">
  <defs>
    <style>
      .cls-1 {
        fill: #ff0;
      }
    </style>
  </defs>
  <path id="SB_50_TI_BG_5U" class="cls-1" d="M282.83,322.45s.92,27.82,8.34,28.71c7.32.4,17.67-4.62,22.69-6.77,9.18-3.93,17.93-9.59,17.93-24.26V208.18H388V178.13H323.44q-24-29.4-47.72-58.25-24.45-29.76-34-39.88-16.52-17.83-33-26.17T178.86,45.5a106.31,106.31,0,0,0-20.64,2.07q-10.49,2.09-10.49,6.22,0,3.56,11.76,24.29t15.56,24.29Q183.95,100,193.47,97t13.33-3a40.44,40.44,0,0,1,19.06,5.05A78.34,78.34,0,0,1,243,111.32q10.17,9.54,29.22,30.44,20.26,22.41,31.54,36.37H124l.25,30.05H176V331.07q0,23.61,17.3,35.4l148,98.15c9.64,5.65,33.55-2.56,21.69-9.64l-146.33-99.7q-2.79-1.61-5-8a37.55,37.55,0,0,1-2.23-12.34V208.18h89v98.89A15.37,15.37,0,0,1,282.83,322.45Z"/>
</svg>
