<svg id="Layer_1" data-name="Layer 1" xmlns="http://www.w3.org/2000/svg" width="512" height="512" viewBox="0 0 512 512">
  <defs>
    <style>
      .cls-1 {
        fill: #ff0;
      }
    </style>
  </defs>
  <path class="cls-1" d="M370,170.1V140.34H287.82q-5.44-11.15-9.08-20Q267.58,94,267.58,78.54a39,39,0,0,1,9.51-26q9.53-11.16,23.31-11.16a29.94,29.94,0,0,1,18.71,6.29q8.22,6.32,16.74,22.32l12.47-3.43Q339.13,36.78,322.06,23a47.52,47.52,0,0,0-30.18-10.29h0q-21,0-37.42,14.87T238,61.37q0,21.18,17.73,54.93,6.09,11.79,13.92,24H142.07l0,29.76H274.13v25c-22.66-3.54-59.83-5.91-82.84,10.59a58.54,58.54,0,0,0-23.88,40.87c-2.77,22.43,9.19,42.76,19.52,51.12.39.32.78.62,1.18.92a49.63,49.63,0,0,0,10.31,5.92,65.7,65.7,0,0,0,11.27,3.59,86.54,86.54,0,0,0,11.45,1.78c3.61.33,7.23.46,10.86.44,1.35,0,2.71,0,4.06-.1a135.51,135.51,0,0,0,14.23-1.28,86.84,86.84,0,0,0,11.08-2.56A133.77,133.77,0,0,1,274.76,303c4.1-.73,8.82-1.45,12.95-.66,4,.76,7.48,1.85,10.15,4.61,3.68,3.83,4.62,6.88,4.59,12,0,1.22,0,.95-.14,3.06-.06,1.3-.15,1.51-.42,5.32-.14,1.93-.39,3.85-.67,5.77a76.38,76.38,0,0,1-5.33,19.26c-.5,1.14-1,2.26-1.58,3.36a66.5,66.5,0,0,1-6.77,10.75,48.3,48.3,0,0,1-7.45,8.21,35.39,35.39,0,0,1-6.79,4.18c-1.23.62-2.51,1.14-3.78,1.69-1,.42-2.49,1.6-3.36.36h0l-.67-.93q-2.62-3.71-5.41-7.3a130.27,130.27,0,0,0-11.35-12.87,77.64,77.64,0,0,0-12.27-9.94,55.26,55.26,0,0,0-13.63-6.43,51.75,51.75,0,0,0-15.26-2.27h-1c-27.71.48-39.43,14.1-41.15,26.68-2.33,17.05,12.37,33.26,35.75,39.45,19.95,5.26,47.86,4.78,62.83,2.95,3.14,5,18.27,46.47,30.09,68.12L318.53,462c-11.5-15.23-21.43-31.65-31-47.54-1.74-2.86-3.45-5.7-5.16-8.5a78.86,78.86,0,0,0,15.8-8.78l1.52-1.13a73.84,73.84,0,0,0,19.78-22.77,80.72,80.72,0,0,0,6.2-14.11,91.42,91.42,0,0,0,3.66-15.78,100.27,100.27,0,0,0,1-17.05A66.88,66.88,0,0,0,328.63,314a29.62,29.62,0,0,0-2-6.66,66.79,66.79,0,0,0-4.9-11,39.7,39.7,0,0,0-5.47-7.2,29.14,29.14,0,0,0-7.45-5.86,57.32,57.32,0,0,0-9.71-4.49,54,54,0,0,0-12.34-3.27,38.24,38.24,0,0,0-9.53-.19c-1.19.08-4.21.5-5.38.7-4.48.78-7.58,1.5-12,2.5a111.52,111.52,0,0,1-14,2.32c-1.42.14-2.83.24-4.25.31-4.89.25-9.8.14-14.69-.07a114.29,114.29,0,0,1-16.82-1.82c-4.78-.92-10.12-2.21-13.9-5.28-2.29-1.87-9.22-8.35-8.09-25,.74-10.84,7.25-18.54,10.65-21,17.93-12.89,70.75-5.45,84.69-1.88,0,0,8.61,3.17,15.42.81,5.83-2,5.15-9.54,5.15-9.54V170.1Zm-160.63,210c-5-1.31-7.34-2.82-9.06-5-3.45-4.36-.23-29.64,45.66,9.86C238.85,384.24,232.3,385.7,209.32,380.14Z"/>
</svg>
