<svg id="Layer_1" data-name="Layer 1" xmlns="http://www.w3.org/2000/svg" width="512" height="512" viewBox="0 0 512 512">
  <defs>
    <style>
      .cls-1 {
        fill: #ff0;
      }
    </style>
  </defs>
  <path class="cls-1" d="M395.23,130.59H267v29.84h48.89v94.39H234.65c8.75-13.3,20.31-41.15,18.57-57.27-.87-8.1-1.69-15.66-5.06-22.57s-9.68-14.59-18.92-23.08a106.31,106.31,0,0,0-29.84-19.65q-16-6.89-26.11-6.9a86,86,0,0,0-27.18,4.8c-9.59,3.2-27.08,12-38.8,18L118,170.54q3.72,6.39,8,6.39c10.3-5.33,27.43-15,37.74-20.67q16.52-7.45,28.77-7.46,14.4,0,23.18,8.79c5.87,5.86,8.85,20.62,10.13,30.84,1.48,11.88,1.48,33.4-13.59,49.54-4.22,6.12-12.08,10.66-17.05,10.66q-13.86,2.15-24.78,3.47A150.87,150.87,0,0,1,153,253.43q-9.06,0-9.06,9.06,0,3.74,10.13,14.92T168,288.6c2.84,0,39.47-9.74,48.47-5.84,43.26,18.76,37.66,63.08,15.86,84.79-8.37,8.46-21.53,13.36-41.95,12-18.07-1.24-30.85-6.41-44.88-19.38s-41.29-53.83-53.72-81.9l-14.39,8c15.63,33.93,43.27,79.84,61.57,97.15s38.27,26,60,26q32,0,51.95-17.62c22.28-21.21,32.47-51.9,20.6-86a97.46,97.46,0,0,0-11-20.73h55.42V409.35l32-.2V160.43h47.42Z"/>
</svg>
