<svg id="Layer_1" data-name="Layer 1" xmlns="http://www.w3.org/2000/svg" width="512" height="512" viewBox="0 0 512 512">
  <defs>
    <style>
      .cls-1 {
        fill: #ff0;
      }
    </style>
  </defs>
  <g id="SB_50_TI_BG_2AA">
    <path class="cls-1" d="M413,149.73H286.28v29.68h48.3v94H254.26c8.66-13.15,20.19-41,18.46-57.07-.86-8-1.67-15.58-5-22.44s-9.56-14.52-18.69-23a105,105,0,0,0-29.48-19.54q-15.78-6.85-25.79-6.86a84.55,84.55,0,0,0-26.85,4.77c-9.47,3.18-26.75,11.9-38.33,17.91l10.53,22.25q3.67,6.36,7.9,6.36c10.17-5.3,27.09-14.9,37.27-20.55q16.32-7.42,28.43-7.42,14.22,0,22.9,8.74c5.79,5.83,8.74,20.51,10,30.67,1.47,11.81,1.47,33.22-13.42,49.27-4.17,6.09-11.94,10.6-16.85,10.6q-13.69,2.13-24.48,3.45a146.5,146.5,0,0,1-17.11,1.32c-6,0-8.94,3-8.94,9q0,3.72,10,14.84t13.68,11.13c2.81,0,39-9.69,47.88-5.8,42.74,18.66,37.21,62.73,15.67,84.32-8.26,8.41-21.26,13.29-41.44,11.9-17.85-1.23-30.48-6.38-44.34-19.28s-40.78-53.53-53.06-81.45L99,304.51c15.44,33.74,42.75,79.4,60.82,96.62S197.62,427,219,427q31.58,0,51.32-17.53c22-21.1,32.08-51.62,20.35-85.57-1.29-3.74-5.36-14.13-10.28-20.83h54.16V428h31.58V179.41H413Z"/>
    <path class="cls-1" d="M351.35,120.91a18.46,18.46,0,1,0-18.46-18.46A18.45,18.45,0,0,0,351.35,120.91Z"/>
  </g>
</svg>
