<svg id="Layer_1" data-name="Layer 1" xmlns="http://www.w3.org/2000/svg" width="512" height="512" viewBox="0 0 512 512">
  <defs>
    <style>
      .cls-1 {
        fill: #ff0;
      }
    </style>
  </defs>
  <path id="SB_50_TI_BG_1A" class="cls-1" d="M293.93,253.53h0c6.78-3.22,24.82-39.82,22.78-58.7a60.44,60.44,0,0,0-4.6-20.53,83.63,83.63,0,0,0-8.64-20.2H361l-.38-29.64H151l0,29.64H276.66a28.27,28.27,0,0,1,5.87,4.37c5.34,5.33,8.05,18.77,9.22,28.07,1.35,10.8,1.35,30.38-12.37,45.07a22.74,22.74,0,0,1-15.51,9.7q-12.62,1.94-22.55,3.15a136,136,0,0,1-15.75,1.21,7.29,7.29,0,0,0-8.25,6.18,7.89,7.89,0,0,0,0,2.06q0,3.41,9.22,13.58t12.6,10.18c2.58,0,23.11-7,42-7,35.38,27.39,36.75,58.64,16.51,78.8-7.61,7.69-19.58,12.15-38.17,10.88a60.65,60.65,0,0,1-40.83-17.64c-12.78-11.79-37.57-49-48.88-74.51l-13.09,7.27c14.22,30.87,39.36,72.64,56,88.39s34.82,23.64,54.54,23.64q29.08,0,47.27-16a71.64,71.64,0,0,0,18.74-78.29C330.25,284.53,315.38,261,293.93,253.53Z"/>
</svg>
