<svg id="Layer_1" data-name="Layer 1" xmlns="http://www.w3.org/2000/svg" width="512" height="512" viewBox="0 0 512 512">
  <defs>
    <style>
      .cls-1 {
        fill: #ff0;
      }
    </style>
  </defs>
  <g id="SB_50_TI_BG_3I">
    <path class="cls-1" d="M403.41,181.56a488.43,488.43,0,0,0-9.69-50.92Q384.47,93,374.45,78.8T353.9,58.21q-10.51-6.35-17.21-6.35-6.17,0-6.16,7.59a128.78,128.78,0,0,0,1.28,15.45q1.29,9.87,4.37,24.56,16.44,0,24.14,5.56,3.6,2.55,11.82,15.19,5.66,9.12,12.33,32.91A286.57,286.57,0,0,1,391,181.56h-2.6a398,398,0,0,0-38.9-37q-17-13.17-33.91-26.84-11.82-9.62-20-13.67A46.72,46.72,0,0,0,274,98.44c-5.47,0-8.22,1.86-8.22,5.57q0,2,7.45,20.51t12.08,26.07a63.68,63.68,0,0,1,11.81-5.31A35.39,35.39,0,0,1,307.92,143a19.52,19.52,0,0,1,10.79,3.33q5.15,3.33,9.25,6.41,18.5,11.77,21.06,13.32,12.14,8.07,22,15.5H312l.1.18H245.74v29.77h49.5v93.36H213.56c8.79-13.55,20-40.56,18.29-56.34-.88-8.07-1.71-15.62-5.12-22.51s-9.81-14.56-19.15-23a108.12,108.12,0,0,0-30.21-19.6q-16.19-6.87-26.43-6.88a88.25,88.25,0,0,0-27.51,4.78c-9.71,3.19-27.41,12-39.28,18l10.79,22.33Q98.71,228,103,228c10.43-5.31,27.77-14.94,38.2-20.62q16.71-7.44,29.13-7.44,14.56,0,23.46,8.77c5.94,5.85,9,20.57,10.25,30.77,1.5,11.85,1.5,33.32-13.75,49.42C186,295,178.09,299.5,173.06,299.5Q159,301.63,148,303a154.25,154.25,0,0,1-17.53,1.33q-9.18,0-9.17,9,0,3.72,10.25,14.88t14,11.17c2.87,0,39.95-9.72,49.06-5.83,43.79,18.72,38.12,62.93,16,84.59-8.47,8.44-21.79,13.33-42.46,11.94-18.3-1.24-31.23-6.4-45.43-19.34S81,357,68.39,329l-14.56,8c15.82,33.85,43.79,79.64,62.32,96.92s38.74,25.92,60.68,25.92q32.37,0,52.59-17.58c22.56-21.17,32.87-51.78,20.85-85.84-1.32-3.75-6.42-14.87-11.46-21.59h56.43v125l32.36.3V211.51h48l-.1-.18h2.29V459.84l32.37.3V211.33h48V181.56Z"/>
  </g>
</svg>
