<svg id="Layer_1" data-name="Layer 1" xmlns="http://www.w3.org/2000/svg" width="512" height="512" viewBox="0 0 512 512">
  <defs>
    <style>
      .cls-1 {
        fill: #ff0;
      }
    </style>
  </defs>
  <path class="cls-1" d="M454.25,148.86V119.22H310.79l.1.18H245.71l.07,29.64h48.57v94.44H213.24c8.74-12.92,20.66-41.28,18.9-57.57-.87-8-1.68-15.56-5-22.41s-9.62-14.5-18.79-22.94a105.58,105.58,0,0,0-29.64-19.51q-15.88-6.85-25.94-6.86a85.68,85.68,0,0,0-27,4.76c-9.53,3.18-26.9,11.9-38.55,17.89l10.59,22.24q3.69,6.34,7.94,6.35c10.23-5.29,27.25-14.89,37.49-20.54q16.39-7.39,28.58-7.41,14.29,0,23,8.74c5.82,5.82,8.79,20.48,10.06,30.64,1.47,11.79,1.47,33.17-13.5,49.21-4.19,6.08-12,10.59-16.94,10.59q-13.77,2.11-24.61,3.44a150.67,150.67,0,0,1-17.21,1.32q-9,0-9,9,0,3.72,10.06,14.82t13.76,11.12c2.82,0,39.21-9.68,48.15-5.8,43,18.64,37.42,62.66,15.76,84.23-8.31,8.4-21.39,13.27-41.67,11.89-18-1.23-30.65-6.37-44.59-19.26s-41-53.48-53.37-81.36l-14,7.77v.86c15.58,33.63,42.78,78.74,60.84,95.82s38,25.81,59.56,25.81q31.75,0,51.61-17.5c22.13-21.08,32.26-51.57,20.46-85.48-1.3-3.73-5.79-13.54-11.11-19.75h55.24V397.81h31.76V149h47.11l-.09-.18h2.24v249h31.77V148.86Z"/>
</svg>
