<svg id="Layer_1" data-name="Layer 1" xmlns="http://www.w3.org/2000/svg" width="512" height="512" viewBox="0 0 512 512">
  <defs>
    <style>
      .cls-1 {
        fill: #ff0;
      }
    </style>
  </defs>
  <path id="SB_50_TI_BG_6OO" class="cls-1" d="M383.11,112H128.48l.05,30H180V264.72q0,23.58,17.22,35.35l147.29,98.05c9.59,5.64,33.4-2.55,21.59-9.62L220.47,288.91q-2.78-1.62-5-8a37.73,37.73,0,0,1-2.22-12.33V142h88.62v98.77a15.33,15.33,0,0,1-15.51,15.36s.92,27.78,8.31,28.67c7.28.4,17.58-4.62,22.58-6.77,9.14-3.92,17.85-9.57,17.85-24.23V142h48.4Z"/>
</svg>
