<svg id="Layer_1" data-name="Layer 1" xmlns="http://www.w3.org/2000/svg" width="246" height="386" viewBox="0 0 246 386">
  <defs>
    <style>
      .cls-1 {
        opacity: 0.3;
      }

      .cls-2, .cls-9 {
        fill: #e4e7ea;
      }

      .cls-2, .cls-4 {
        stroke: #5e646b;
      }

      .cls-11, .cls-12, .cls-14, .cls-15, .cls-18, .cls-2, .cls-4, .cls-5 {
        stroke-miterlimit: 10;
      }

      .cls-3 {
        fill: #8e8e8e;
      }

      .cls-4 {
        fill: #bac4cc;
      }

      .cls-5, .cls-7 {
        fill: #f48f42;
      }

      .cls-5 {
        stroke: #663b14;
      }

      .cls-6 {
        opacity: 0.26;
      }

      .cls-8 {
        fill: #663b14;
      }

      .cls-10 {
        fill: #5e646b;
      }

      .cls-11 {
        fill: #efea37;
      }

      .cls-11, .cls-12, .cls-14 {
        stroke: #8e8e8e;
      }

      .cls-12 {
        fill: none;
      }

      .cls-13 {
        fill: #eaa968;
      }

      .cls-14 {
        fill: #d7afdd;
      }

      .cls-15, .cls-17 {
        fill: #fff;
      }

      .cls-15 {
        stroke: #5b5a5b;
      }

      .cls-16 {
        fill: #56290b;
      }

      .cls-18 {
        fill: #333;
        stroke: #3d3d3d;
      }

      .cls-19 {
        fill: #60170e;
        stroke: #47130e;
        stroke-linejoin: round;
      }

      .cls-20 {
        fill: #b74277;
      }

      .cls-21 {
        fill: #727272;
      }

      .cls-22 {
        fill: #543a2d;
      }
    </style>
  </defs>
  <g>
    <ellipse class="cls-1" cx="91.35" cy="373.16" rx="76.65" ry="9.82"/>
    <g>
      <g>
        <path class="cls-2" d="M110.83,357.84s-7.45,10.48-6.81,15.25,8.67,4.34,16.76,4.34c5,0,32.68,0,33.55-.87s6.07-9.54-4.34-13c0,0-20-1.74-25.15-2.6-3.26-.55.87-6.94.87-6.94S113.31,353.86,110.83,357.84Z"/>
        <path class="cls-3" d="M131.65,367.39a21,21,0,0,1,4.35.68,13.55,13.55,0,0,1,4,1.74,7,7,0,0,1,2.79,3.33,7.57,7.57,0,0,1,.22,4.29,7.47,7.47,0,0,0-.45-4.19,6.7,6.7,0,0,0-2.83-3,13.29,13.29,0,0,0-3.94-1.43,19.69,19.69,0,0,0-4.18-.41Z"/>
        <path class="cls-3" d="M141.36,365.65a13.9,13.9,0,0,1,3.84,1.16,9.63,9.63,0,0,1,3.21,2.34,7.9,7.9,0,0,1,.61.79l.5.86a7.56,7.56,0,0,1,.58,1.88,9.15,9.15,0,0,1,.14,1.95c0,.65-.17,1.29-.25,1.93,0-.65.14-1.29.12-1.93a8,8,0,0,0-.25-1.89,7.87,7.87,0,0,0-.67-1.77l-.53-.78a5.86,5.86,0,0,0-.62-.7,9.1,9.1,0,0,0-3.14-2,13.22,13.22,0,0,0-3.62-.84Z"/>
      </g>
      <path class="cls-4" d="M85.37,276.72s-2.17,5.13-8.68,0S72,278.53,75,282.87s-5.36,1.3-5.36,1.3-3.9,5.54,7.86,8.63c0,0-5.59,3.95-1.25,4.82s9.11-2.53,9.11-2.53-2.17,6.82,0,6,7.87-5.17,9.36-6.47,4.08-8.25,4.08-8.25-4.33-8.67-9.54-9.54"/>
      <g>
        <path class="cls-5" d="M149.13,284.61s2.6,34.7-26,74.6c0,0-8.12,4.34-13.88.87,0,0,8.37-25.23,3.75-38.21a163.58,163.58,0,0,0-10.63-23.51l1.68-9.42Z"/>
        <path class="cls-6" d="M113.89,323l4.44-5.88s3.47.86,9.54-1.74c0,0-11.27,3.47-13.88,7.81"/>
      </g>
      <g>
        <path class="cls-2" d="M74.52,349.67l-4.33,5.2s-37.31,2.61-40.78,13S39,379.16,45.9,379.16c4.67,0,35.08-11.38,34.89-12.63s2.41-3,1.54-9.92C82,354.19,79.73,347.07,74.52,349.67Z"/>
        <path class="cls-3" d="M48.7,368.34a16.32,16.32,0,0,0-3,1.73,11,11,0,0,0-2.52,2.43,6.34,6.34,0,0,0-1.22,3.23,7,7,0,0,0,.83,3.43,7.11,7.11,0,0,1-1.08-3.43,6.74,6.74,0,0,1,1.06-3.51,11.31,11.31,0,0,1,2.47-2.74,16.75,16.75,0,0,1,3.09-2.05Z"/>
        <path class="cls-3" d="M40.9,366.61a16.4,16.4,0,0,0-3,1.73,10.35,10.35,0,0,0-2.51,2.43A6.27,6.27,0,0,0,34.13,374a7,7,0,0,0,.82,3.43A7.06,7.06,0,0,1,33.88,374a6.64,6.64,0,0,1,1-3.5,11.33,11.33,0,0,1,2.47-2.74,16.79,16.79,0,0,1,3.09-2.06Z"/>
      </g>
      <g>
        <path class="cls-5" d="M95.78,285.91,71.49,352.7s-1.74,8.68,13.88,3.47c0,0,27.76-30.36,36.57-45.36"/>
        <g>
          <path class="cls-7" d="M118,316.91s8.61.48,11.66-3.24"/>
          <path class="cls-8" d="M118,316.41a28.31,28.31,0,0,0,3.06.06,20.86,20.86,0,0,0,3-.3,13.31,13.31,0,0,0,3-.8,7.27,7.27,0,0,0,2.55-1.7,7.32,7.32,0,0,1-2.45,1.92,13.42,13.42,0,0,1-3,1.07,21.79,21.79,0,0,1-3.11.56,27.67,27.67,0,0,1-3.17.19Z"/>
        </g>
      </g>
      <g>
        <g>
          <g>
            <path class="cls-2" d="M208.14,192.83s12.26,2,20.15-1.9c8.18-4.09,12.28-3.28,10.64,1.64,0,0,6.55,0,2.46,6.55,0,0,4.45,4.94-5.73,8.19-8.39,2.67-21.44,4.56-27.26,3.11A15.15,15.15,0,0,1,204,209s-3.59,2.44-4.41,3.26S187.31,201,208.14,192.83Z"/>
            <g>
              <path class="cls-9" d="M194.58,201s3.64-.72,5.09-5.81a15.58,15.58,0,0,1,6.55-8c7.38-4.09,10.48-9,13.61-5.68s-2.6,10.69-8.33,10.69l-3.1,5.9"/>
              <path class="cls-10" d="M194.57,200.92a6.54,6.54,0,0,0,2.53-1.73,8.16,8.16,0,0,0,1.63-2.55l.28-.71.23-.73a11.34,11.34,0,0,1,.55-1.54,13.57,13.57,0,0,1,1.67-2.79,14.72,14.72,0,0,1,4.94-4.1,36,36,0,0,0,5.29-3.4c.85-.62,1.66-1.3,2.54-1.9a7.78,7.78,0,0,1,3-1.43,3.31,3.31,0,0,1,.89,0,3.67,3.67,0,0,1,.87.27,4,4,0,0,1,1.38,1.09,4.07,4.07,0,0,1,.8,3.35,7.88,7.88,0,0,1-1.32,3.08,10.53,10.53,0,0,1-2.23,2.43,9.7,9.7,0,0,1-6.08,2.3l.34-.21c-1.11,1.93-2.22,3.86-3.39,5.75l-.09-.05c.89-2,1.85-4,2.81-6.05l.08-.18.25,0a8.29,8.29,0,0,0,2.89-.71,11.63,11.63,0,0,0,2.53-1.63,9.59,9.59,0,0,0,3.22-4.89,3.15,3.15,0,0,0-.52-2.6,2.56,2.56,0,0,0-2.34-1.15,7.39,7.39,0,0,0-2.76,1.12c-.89.54-1.76,1.13-2.62,1.74-1.73,1.21-3.47,2.4-5.27,3.52a18.15,18.15,0,0,0-6.08,6.83,10.46,10.46,0,0,0-.55,1.42,11.57,11.57,0,0,1-.6,1.51,7.24,7.24,0,0,1-4.81,4.07Z"/>
            </g>
            <polygon class="cls-3" points="223.23 197 239.75 192.57 223.52 197.96 223.23 197"/>
            <polygon class="cls-3" points="226.51 202.73 241.39 199.12 226.78 203.69 226.51 202.73"/>
          </g>
          <path class="cls-3" d="M207.43,203.7a10.87,10.87,0,0,1,4.14-.94,26,26,0,0,1,4.14.11c1.37.13,2.72.36,4.07.62s2.67.61,4,1c-1.33-.3-2.67-.57-4-.79s-2.71-.36-4.07-.43a25,25,0,0,0-4.06.09,10.35,10.35,0,0,0-3.79,1Z"/>
        </g>
        <g>
          <path class="cls-5" d="M194.57,205.12s-2.73-7.45,1.85-9.43,13.21,11,10.06,17.08c-3.93,7.59-7.7-2.07-7.7-2.07"/>
          <path class="cls-5" d="M126.79,201.83s16.9.36,27,5.4c13.87,6.93,24.44.6,25.31.6s16-7.37,16-7.37,8,.6,7.19,13.7c0,0-18.9,24.9-32.78,24s-26.89-3.47-27.76-4.34"/>
        </g>
      </g>
      <g>
        <g>
          <path class="cls-5" d="M138.72,216.08s16.48,30.36,13.88,72.86c0,0-39.91,18.22-61.59-2.6,0,0,6.07-33.83,6.07-41.64s-7.24-33,4.26-38.67c11.35-5.57,32.35-1.51,32.35-1.51"/>
          <path class="cls-6" d="M97.51,247.74s-.87-7.81,5.21-12.15c.61-.61-6.08,2.61-6.08,2.61l.87,9.54"/>
        </g>
        <ellipse class="cls-11" cx="131.78" cy="238.2" rx="11.28" ry="13.45" transform="translate(-49.41 35.04) rotate(-12.78)"/>
      </g>
      <g>
        <path class="cls-2" d="M104,257.71s6.07.87,4.34,10.41S91.87,282,91.87,282s-13,1.38-10.84-5.38a5.57,5.57,0,0,1,2.17-1.56,3.8,3.8,0,0,1,2.6-3.47s-.19-.48,3.47-2.6,5.46-1.86,5.46-1.86"/>
        <path class="cls-3" d="M94.73,266.13a25.39,25.39,0,0,0-2.63,5.53,17.2,17.2,0,0,0-.73,2.93c-.2,1-.25,2-.36,3.08a9.11,9.11,0,0,1-.42-3.16,10.66,10.66,0,0,1,.56-3.16,11.39,11.39,0,0,1,1.41-2.89A9.07,9.07,0,0,1,94.73,266.13Z"/>
        <path class="cls-12" d="M91,275.06H83.2"/>
        <path class="cls-12" d="M91.44,271.59H85.37"/>
      </g>
      <g>
        <g>
          <path class="cls-5" d="M100.55,253.38c0-.87,6.07,0,5.2,5.2s-8.67,8.68-8.67,8.68-10.41,4.33-8.68-3.47c1.37-6.17,10.41-8.68,10.41-8.68"/>
          <path class="cls-5" d="M102.28,235.16C88.4,241.23,88.4,243,88.4,243c2.61.86,14.84,7.82,13.88,12.14-1.73,7.81-11.27,8.68-11.27,8.68-15.62,1.73-39-15.6-33-29.5,8.68-19.95,43.38-28.62,43.38-28.62"/>
        </g>
        <g>
          <path class="cls-13" d="M81,247.74s9.83-7.05,12.29-8.3"/>
          <path class="cls-8" d="M81,247.74a44.48,44.48,0,0,1,5.78-4.68c1-.69,2.06-1.38,3.14-2a19.76,19.76,0,0,1,3.37-1.63c-1,.77-1.94,1.54-2.94,2.28s-2,1.46-3,2.16A55.07,55.07,0,0,1,81,247.74Z"/>
        </g>
      </g>
      <g>
        <path class="cls-5" d="M104.89,198.73s-1.74,5.2-.87,8.67,6,8.55,20,6.07c11.85-2.1,9.54-7.06,9.54-7.8,0-1.74-1.94-7.74-1.94-7.74"/>
        <path class="cls-5" d="M110.09,201.76s-13.92-.61-7.81-6.5,30.37-5.21,32.1-2.61,1.72,5.39-4.34,7.81"/>
      </g>
      <g>
        <g>
          <path class="cls-2" d="M108.36,98.43s-3.47-35,3.47-51.51c6.32-15,20-45.11,38.16-41.64S147.39,66,147.39,66,132.65,95.49,124,104.6"/>
          <path class="cls-14" d="M117,99c-6.94-34.69,6.5-63.69,19.09-78.07,12.14-13.88,14.74-6.07,14.74-6.07,3.49,6.47,2,38.69-23.85,74.42,0,0-8.37,7.25-11.71-2.42"/>
        </g>
        <g>
          <path class="cls-2" d="M85.8,89s3.47,5.2-6.94,12.14-19,15.54-17.35,41.64c.87,13.88.87,12.15.87,12.15s-9.54,10.41,0,23.42,44.24,18.22,44.24,18.22,9.25,6.17,17.35,3.47c7.81-2.61,8.68-6.94,9.54-11.28,0,0,21.26-17.78,21.69-32.1.36-11.78-5.21-16.48-14.75-20,0,0-5.2-28.63-18.21-36.43s-20-4.34-23.43-8.68-3.47-5.2-3.47-5.2v6.07s-3.62-6.07-3.47-8.68-1.73,6.08-.86,9.55C91,93.33,89.27,92.46,85.8,89Z"/>
          <g>
            <g>
              <path class="cls-9" d="M138.34,134.74s12.75-6.78,18.71-1.18a57.93,57.93,0,0,0-7.41,3.16s5.37,3.66,5.72,6c0,0-1.61-.08-5.69.14s-8.39-3.62-8.39-3.62"/>
              <path class="cls-10" d="M138.34,134.74a32.29,32.29,0,0,1,4.5-2.1,26.45,26.45,0,0,1,4.81-1.37,15.8,15.8,0,0,1,5-.18,8.69,8.69,0,0,1,4.67,2.14l.55.5-.71.26c-1.26.46-2.51.95-3.74,1.46a36.77,36.77,0,0,0-3.58,1.69l0-.82a30.92,30.92,0,0,1,3.33,2.7,16,16,0,0,1,1.49,1.58,4.74,4.74,0,0,1,1.05,2.06l.1.51-.54,0c-1.21-.05-2.48-.05-3.72,0l-1.88,0a7.89,7.89,0,0,1-1.94-.19,11.83,11.83,0,0,1-3.51-1.47,17.21,17.21,0,0,1-3-2.27,20.79,20.79,0,0,0,3.16,2,12.57,12.57,0,0,0,3.47,1.21,7.26,7.26,0,0,0,1.8.1l1.88-.13c1.26-.07,2.5-.15,3.79-.12l-.44.49a3.94,3.94,0,0,0-.9-1.64,16.33,16.33,0,0,0-1.42-1.47,32.08,32.08,0,0,0-3.25-2.56l-.63-.43.65-.39a27.77,27.77,0,0,1,3.71-1.75c1.26-.51,2.52-1,3.8-1.42l-.16.76a7.91,7.91,0,0,0-4.18-2,15.51,15.51,0,0,0-4.81,0A36.18,36.18,0,0,0,138.34,134.74Z"/>
            </g>
            <g>
              <path class="cls-9" d="M68.89,149.71s-16.49-.86-20,7.81a67,67,0,0,1,9.21-.31s-3.8,6.38-3,9c0,0,1.63-.86,6-2.6s6.94-7.8,6.94-7.8"/>
              <path class="cls-10" d="M68.89,149.71a41.55,41.55,0,0,0-11.13,1.56,17.73,17.73,0,0,0-5,2.34,9,9,0,0,0-3.4,4.08l-.47-.63c1.54-.15,3.07-.27,4.62-.35a31.81,31.81,0,0,1,4.68,0l.75.08-.39.65a37.33,37.33,0,0,0-2.13,4.24,16.62,16.62,0,0,0-.76,2.22,4.57,4.57,0,0,0-.14,2.15l-.61-.25c1.32-.65,2.64-1.17,4-1.71l2-.78a8.65,8.65,0,0,0,1.82-1,14.5,14.5,0,0,0,3-2.95A23,23,0,0,0,68,155.78a19.92,19.92,0,0,1-2,3.8,13.49,13.49,0,0,1-2.93,3.2,9.42,9.42,0,0,1-1.91,1.13l-2,.85c-1.3.57-2.62,1.17-3.85,1.81l-.48.25-.13-.51a5.39,5.39,0,0,1,.1-2.6,18.45,18.45,0,0,1,.77-2.35A37.15,37.15,0,0,1,57.72,157l.37.73a40.39,40.39,0,0,0-4.54,0c-1.52.06-3,.16-4.57.3l-.76.06.29-.69a9.93,9.93,0,0,1,3.78-4.44,18.08,18.08,0,0,1,5.3-2.26,30.79,30.79,0,0,1,5.62-.92A38.46,38.46,0,0,1,68.89,149.71Z"/>
            </g>
          </g>
        </g>
        <g>
          <g>
            <path class="cls-15" d="M86.67,145.81s-4.34-17.35,2.6-22.56,18.22-1.73,19.09,19.09"/>
            <circle class="cls-16" cx="96.5" cy="136.27" r="5.64"/>
            <circle class="cls-17" cx="99.01" cy="131.83" r="1.3"/>
          </g>
          <g>
            <path class="cls-9" d="M82.33,147.54s9.54-4.33,27.76-5.2"/>
            <path class="cls-10" d="M82.33,147.54A38.44,38.44,0,0,1,89,145a64,64,0,0,1,6.94-1.61c2.35-.4,4.7-.7,7.07-.87,1.18-.09,2.37-.12,3.55-.18s2.38,0,3.56,0l-7,.93c-2.33.34-4.66.67-7,1.08s-4.62.87-6.92,1.37c-1.14.26-2.29.53-3.42.84S83.46,147.18,82.33,147.54Z"/>
          </g>
        </g>
        <g>
          <g>
            <path class="cls-15" d="M117.9,140.6s-7.81-15.36-4.34-21.33,14.75-6,21.69,16.21"/>
            <circle class="cls-16" cx="122.91" cy="130.39" r="5.64"/>
            <circle class="cls-17" cx="126.18" cy="126.72" r="1.3"/>
          </g>
          <g>
            <path class="cls-9" d="M117,141.47c5.21-2.6,18.22-7.81,23.42-4.34"/>
            <path class="cls-10" d="M117,141.47a40,40,0,0,1,5.49-2.81,42.83,42.83,0,0,1,5.83-2,27.6,27.6,0,0,1,6.14-1,9.39,9.39,0,0,1,6,1.49,11.07,11.07,0,0,0-5.91-.71,39.32,39.32,0,0,0-5.93,1.16c-2,.51-3.89,1.15-5.82,1.8S119,140.74,117,141.47Z"/>
          </g>
        </g>
        <path class="cls-18" d="M120.5,155.35s-6.07-6.07-12.14-5.38c0,0,4.33-5.9,16.48-5C124.84,144.94,125.71,150.15,120.5,155.35Z"/>
        <g>
          <g>
            <path class="cls-19" d="M135.68,149.71s2.38,9.62-5.2,12.15c-10.41,3.47-10-5.64-10-5.64s1.3,5.38-2.6,8.55-19.52,8.36-28.2-6.38c0,0,12.15,26,24.29,27.76s17.35-3.47,20.82-18.22C134.81,167.93,137.42,155.79,135.68,149.71Z"/>
            <path class="cls-20" d="M105.32,180.94s12.14-10.41,23.42.87c0,0-6.07,6.07-14.75,4.34C111.44,185.64,106.19,182.68,105.32,180.94Z"/>
            <path class="cls-17" d="M130.48,161.86c-6.94,3.47-9.55-1.74-9.55-1.74s0,2.6-3,4.65a21.26,21.26,0,0,1-7.38,3.16c1.73,4.42,5.21,8.67,6.94,9.54C128.74,179.21,132.21,167.06,130.48,161.86Z"/>
            <path class="cls-21" d="M122.67,172.27c-.31-2.07-.47-4.1-.71-6.12a46.92,46.92,0,0,0-1-6,9.66,9.66,0,0,1,1.38,2.83A18.33,18.33,0,0,1,123,166a21.85,21.85,0,0,1,.12,3.13A15.58,15.58,0,0,1,122.67,172.27Z"/>
          </g>
          <g>
            <path class="cls-22" d="M85.33,162.11a6.88,6.88,0,0,1,1.41-2.31A9.57,9.57,0,0,1,88.83,158a9.11,9.11,0,0,1,2.52-1.1,8.14,8.14,0,0,1,2.69-.28c-.84.36-1.65.64-2.43,1a17.39,17.39,0,0,0-2.25,1.21,19.27,19.27,0,0,0-2.08,1.48C86.62,160.9,86,161.48,85.33,162.11Z"/>
            <path class="cls-22" d="M131.57,149.37a6.91,6.91,0,0,1,2.66-.54,9.3,9.3,0,0,1,2.72.33,9.53,9.53,0,0,1,2.51,1.1,7.9,7.9,0,0,1,2,1.79c-.83-.38-1.59-.78-2.39-1.1a19.14,19.14,0,0,0-2.42-.82,18.78,18.78,0,0,0-2.5-.52C133.33,149.49,132.47,149.41,131.57,149.37Z"/>
          </g>
        </g>
        <g>
          <path class="cls-22" d="M79,121.54a24.53,24.53,0,0,1,14.4-12.34v-4.6S79,112.29,79,121.54Z"/>
          <path class="cls-22" d="M126.62,110a23.66,23.66,0,0,0-17.93-3.86l-2.11-3.91S122.35,102.15,126.62,110Z"/>
        </g>
        <g>
          <path class="cls-2" d="M74.52,105.9S51.1,38.24,23.34,20C8.39,10.21-2.68,23.49,6,57.33c5.95,23.18,39.66,46.57,60.29,59"/>
          <path class="cls-14" d="M70.19,105.9S46.1,45.73,25.67,32.32c-11-7.22-19.15,2.55-12.77,27.45,4,15.4,28,34.52,43.78,44.83,1.72,1.13,8.3,5.64,11.77-2.17"/>
        </g>
      </g>
    </g>
  </g>
</svg>
