<svg id="Layer_1" data-name="Layer 1" xmlns="http://www.w3.org/2000/svg" width="277" height="369" viewBox="0 0 277 369">
  <defs>
    <style>
      .cls-1 {
        opacity: 0.3;
      }

      .cls-2 {
        fill: #bac4cc;
      }

      .cls-2, .cls-3 {
        stroke: #5e646b;
      }

      .cls-12, .cls-13, .cls-16, .cls-2, .cls-21, .cls-3, .cls-8 {
        stroke-miterlimit: 10;
      }

      .cls-3, .cls-4 {
        fill: #e4e7ea;
      }

      .cls-5 {
        fill: #5e646b;
      }

      .cls-6 {
        fill: #aab6c1;
      }

      .cls-7 {
        fill: #8e8e8e;
      }

      .cls-11, .cls-8 {
        fill: #f48f42;
      }

      .cls-8 {
        stroke: #663b14;
      }

      .cls-9 {
        fill: #eaa968;
      }

      .cls-10 {
        fill: #663b14;
      }

      .cls-12 {
        fill: #efea37;
      }

      .cls-12, .cls-21 {
        stroke: #8e8e8e;
      }

      .cls-13, .cls-15 {
        fill: #fff;
      }

      .cls-13 {
        stroke: #5b5a5b;
      }

      .cls-14 {
        fill: #56290b;
      }

      .cls-16 {
        fill: #333;
        stroke: #3d3d3d;
      }

      .cls-17 {
        fill: #60170e;
        stroke: #190906;
        stroke-linejoin: round;
      }

      .cls-18 {
        fill: #b74277;
      }

      .cls-19 {
        fill: #727272;
      }

      .cls-20 {
        fill: #543a2d;
      }

      .cls-21 {
        fill: #d7afdd;
      }
    </style>
  </defs>
  <g>
    <ellipse class="cls-1" cx="134.36" cy="354.92" rx="130.82" ry="10.49"/>
    <g>
      <path class="cls-2" d="M120.88,244s-5.93.43-4.21-8.24-4-3.56-6.66,1.38-3.84-4.46-3.84-4.46-7.16-1-4.38,11.66c0,0-6.47-3.39-5.19,1.15s6.82,7.43,6.82,7.43-7.52,1.25-5.67,2.9,8.74,5,10.7,5.75,9.82-.12,9.82-.12,6.14-8.33,4.44-13.7"/>
      <g>
        <g>
          <path class="cls-3" d="M211.84,316.19c0,1,4,14,7,15s-9,8.21-9,8.21-7-5.21-8-14.22S211.84,316.19,211.84,316.19Z"/>
          <g>
            <path class="cls-4" d="M202.83,333.21s8,11.66,11,17.35,11.67,1.32,20-6.34c12-11,43.35-48.65,18-44.05-22,4-37,30-37,30"/>
            <path class="cls-5" d="M202.83,333.21c3.75,5.25,7.49,10.5,10.87,16l.59,1.07a6.28,6.28,0,0,0,.61.91,3.82,3.82,0,0,0,1.75,1.18,7.4,7.4,0,0,0,4.44-.28,29.9,29.9,0,0,0,8.2-4.71A100.77,100.77,0,0,0,243,334a146.73,146.73,0,0,0,11.78-15.24,57.6,57.6,0,0,0,4.68-8.35,19.92,19.92,0,0,0,1.42-4.48,5,5,0,0,0-.78-4.18,5.62,5.62,0,0,0-4.06-1.42,20.8,20.8,0,0,0-4.69.51,37.42,37.42,0,0,0-9,3.11,58.61,58.61,0,0,0-15.28,11.44,84.93,84.93,0,0,0-12.24,14.86,86.12,86.12,0,0,1,11.53-15.56A59.17,59.17,0,0,1,241.92,303a38.59,38.59,0,0,1,9.24-3.19,21.58,21.58,0,0,1,4.9-.53,9.92,9.92,0,0,1,2.52.38,4.89,4.89,0,0,1,2.27,1.38,4.63,4.63,0,0,1,1.09,2.44,8.35,8.35,0,0,1-.08,2.55,20.42,20.42,0,0,1-1.48,4.72,58.46,58.46,0,0,1-4.76,8.51,148.36,148.36,0,0,1-11.86,15.35,101.75,101.75,0,0,1-13.86,13.59,30.75,30.75,0,0,1-8.5,4.87,8.37,8.37,0,0,1-5.06.28,5,5,0,0,1-2.21-1.48,5.81,5.81,0,0,1-.74-1.09l-.57-1.05C209.77,344.1,206.3,338.64,202.83,333.21Z"/>
          </g>
          <path class="cls-6" d="M223.35,333.71s17-27.1,34-31c13-3-11,30-23,41-8.35,7.66-18,12.44-18,6C216.34,344.72,223.35,333.71,223.35,333.71Z"/>
          <path class="cls-7" d="M245,302a28.87,28.87,0,0,1,4.78-1.95,13.08,13.08,0,0,1,2.58-.5,4.65,4.65,0,0,1,2.71.43,2.6,2.6,0,0,1,1.05,1.08,3.75,3.75,0,0,1,.35,1.43,7,7,0,0,1-.46,2.68,17.19,17.19,0,0,1-2.57,4.54l-.09,0c.59-1.63,1.26-3.2,1.71-4.79a9,9,0,0,0,.42-2.35,2,2,0,0,0-.82-1.85,4,4,0,0,0-2.27-.48,14.08,14.08,0,0,0-2.48.34,28.17,28.17,0,0,0-4.87,1.56Z"/>
          <path class="cls-7" d="M234,308a28,28,0,0,1,4.78-1.95,13.76,13.76,0,0,1,2.57-.51,4.68,4.68,0,0,1,2.72.44,2.6,2.6,0,0,1,1,1.08,3.85,3.85,0,0,1,.35,1.43,7,7,0,0,1-.46,2.68,17.35,17.35,0,0,1-2.57,4.54l-.09-.05c.59-1.63,1.26-3.2,1.7-4.79a8.72,8.72,0,0,0,.43-2.36,2,2,0,0,0-.83-1.85,4.08,4.08,0,0,0-2.26-.47,13.31,13.31,0,0,0-2.49.34A28.34,28.34,0,0,0,234,308.1Z"/>
        </g>
        <path class="cls-8" d="M121.73,302.17s36,1,49.06,7,25.35,14.83,30,23c4,7,14-7,14-7s-3.63-28.23-18-40.05c-20.5-16.83-55-13.54-55-13.54s-21,.53-19,8.54"/>
      </g>
      <g>
        <g>
          <path class="cls-3" d="M107.72,205.06s-11,0-19.06,3c-3.34-1.18-5.75-3.42-8.82,2a10.91,10.91,0,0,0,4.9,15.69s1,4.9,3.92,4.9c8.83-2,13-.21,13.73-1s8.83-10.79,8.83-14.71"/>
          <g>
            <path class="cls-3" d="M90.58,214.58S93,209,88.66,209s-11.1,5.66-9.47,11.17"/>
            <path class="cls-3" d="M96.81,217.52s1.41-3-3.24-4.58c-2.95-1-7.85,0-8.83,2-1.07,2.13-1.45,9.32.74,13"/>
            <g>
              <path class="cls-4" d="M103.36,220.64s-6.56-7.18-9.79-5.74c-8.83,3.92,5.88,16.67,8.82,14.71"/>
              <path class="cls-5" d="M103.33,220.67a26.11,26.11,0,0,0-6.69-5.1,5.23,5.23,0,0,0-1.93-.54,2,2,0,0,0-.91.14,5.7,5.7,0,0,0-.88.46,3.38,3.38,0,0,0-1.71,3.22,8.16,8.16,0,0,0,1.51,3.67,23.51,23.51,0,0,0,2.67,3.16,22.12,22.12,0,0,0,3.21,2.66,10.62,10.62,0,0,0,1.8,1,2.49,2.49,0,0,0,2,.22l0,.08a1.63,1.63,0,0,1-1.07.29,4.52,4.52,0,0,1-1.09-.18,10.19,10.19,0,0,1-2-.85,19,19,0,0,1-3.52-2.53,16.73,16.73,0,0,1-2.85-3.31,8.59,8.59,0,0,1-1.51-4.18,4.09,4.09,0,0,1,.54-2.26A4.7,4.7,0,0,1,92.55,215a6,6,0,0,1,1-.49,2.68,2.68,0,0,1,1.18-.14,6,6,0,0,1,2.12.68,17.52,17.52,0,0,1,3.5,2.5,36,36,0,0,1,3,3Z"/>
            </g>
            <path class="cls-7" d="M101.5,212.55a5,5,0,0,0-2,1.4,11.7,11.7,0,0,0-.73,1L98.15,216c0-.21.07-.42.11-.64s.14-.4.22-.61a4.23,4.23,0,0,1,.7-1.11,3.44,3.44,0,0,1,1-.81A2.3,2.3,0,0,1,101.5,212.55Z"/>
            <path class="cls-7" d="M88.63,222.71a4.79,4.79,0,0,0,2.27.78,9.48,9.48,0,0,0,1.2,0l1.26-.06c-.19.1-.39.18-.59.27l-.62.17a4.11,4.11,0,0,1-1.31.07,3.43,3.43,0,0,1-1.26-.39A2.21,2.21,0,0,1,88.63,222.71Z"/>
          </g>
        </g>
        <g>
          <path class="cls-8" d="M178.8,196.05s-14-12-33-15c-4.08-.64-39,14-41,26-1,6,7,9,7,9s18.12-10.38,26-8c10,3,14,9,14,9"/>
          <g>
            <path class="cls-9" d="M137.84,207.9a27.48,27.48,0,0,1-5.59-3.14"/>
            <path class="cls-10" d="M137.84,207.9a8,8,0,0,1-3.13-1,8.78,8.78,0,0,1-1.36-.92,4.21,4.21,0,0,1-1.1-1.27,23.78,23.78,0,0,1,2.93,1.3A12.3,12.3,0,0,1,137.84,207.9Z"/>
          </g>
        </g>
      </g>
      <g>
        <g>
          <path class="cls-3" d="M67.67,274.14s-11-9-15.52-7.51c-4.56,2.07-18,14-33,16-11.09,1.48-6.68,18.69,0,22,6,3,11,4,18-2s18-21,18-21l8,3S76.68,278.15,67.67,274.14Z"/>
          <g>
            <path class="cls-4" d="M53.09,273.92s-1.94,5.73,3.57,8.23"/>
            <path class="cls-5" d="M53.14,273.94a8.15,8.15,0,0,0-.13,2.41,6.36,6.36,0,0,0,.6,2.26A7.37,7.37,0,0,0,55,280.42c.49.59,1.11,1.07,1.72,1.69l0,.09a4.61,4.61,0,0,1-2.36-1.06,4.53,4.53,0,0,1-1.4-2.23,7.3,7.3,0,0,1,.18-5Z"/>
          </g>
          <path class="cls-7" d="M31.46,289a42.47,42.47,0,0,1-4.1,3,35.83,35.83,0,0,1-4.44,2.5,19.53,19.53,0,0,1-4.83,1.58,8.67,8.67,0,0,1-5-.47,8.58,8.58,0,0,0,4.94.23,19.52,19.52,0,0,0,4.66-1.79,35.74,35.74,0,0,0,4.23-2.66,42.14,42.14,0,0,0,3.86-3.16Z"/>
          <path class="cls-7" d="M36.47,297a42.59,42.59,0,0,1-4.11,3,35.12,35.12,0,0,1-4.44,2.5,19.46,19.46,0,0,1-4.82,1.58,8.67,8.67,0,0,1-5-.47,8.58,8.58,0,0,0,4.94.23,19.29,19.29,0,0,0,4.65-1.79,35.06,35.06,0,0,0,4.24-2.66,43.54,43.54,0,0,0,3.86-3.16Z"/>
        </g>
        <g>
          <g>
            <path class="cls-11" d="M123.73,242.1a147.71,147.71,0,0,0-33,40s-2-6-27-12c0,0-9,8-6,13s23,24,35,27c19.94,3.52,42.48-13.06,68-13.88"/>
            <path class="cls-10" d="M123.73,242.1a121.42,121.42,0,0,0-9.46,9q-4.5,4.71-8.6,9.78c-2.73,3.37-5.35,6.84-7.78,10.44s-4.68,7.3-6.83,11.06l-.39.68-.37-.75a5.42,5.42,0,0,0-1-1.31,13,13,0,0,0-1.39-1.17c-.48-.38-1-.69-1.53-1l-1.61-.92a56.76,56.76,0,0,0-6.81-3c-2.35-.85-4.72-1.63-7.12-2.32S66,271.2,63.55,270.6l.43-.11a28.94,28.94,0,0,0-4.76,5.61,12.3,12.3,0,0,0-1.48,3.27,4.58,4.58,0,0,0,.23,3.31,19.46,19.46,0,0,0,2.18,2.9c.81.94,1.66,1.85,2.53,2.75,1.73,1.79,3.53,3.51,5.38,5.19a120.35,120.35,0,0,0,11.63,9.4,64.89,64.89,0,0,0,6.31,4,29.78,29.78,0,0,0,6.8,2.87h0a44.09,44.09,0,0,0,17.18-.9c5.67-1.28,11.19-3.14,16.72-5s11.08-3.65,16.74-5.06a80.19,80.19,0,0,1,17.28-2.52,80.29,80.29,0,0,0-17.21,2.8c-5.63,1.49-11.12,3.41-16.64,5.3s-11,3.81-16.73,5.15-11.63,2.06-17.49,1.05h0a31.55,31.55,0,0,1-7-2.92,68.15,68.15,0,0,1-6.41-4,122.69,122.69,0,0,1-11.76-9.44c-1.86-1.69-3.68-3.41-5.44-5.22-.88-.9-1.74-1.82-2.57-2.77a19.22,19.22,0,0,1-2.31-3.1,5.54,5.54,0,0,1-.3-4,13.23,13.23,0,0,1,1.61-3.54,29.56,29.56,0,0,1,5-5.8l.18-.17.24.06c2.44.62,4.88,1.23,7.29,1.95s4.8,1.49,7.17,2.37a57.66,57.66,0,0,1,6.92,3.08l1.65.95c.52.37,1.07.69,1.57,1.09a13.59,13.59,0,0,1,1.48,1.25A5.5,5.5,0,0,1,91.09,282l-.76-.07c2.21-3.76,4.48-7.49,7-11s5.15-7,7.93-10.39,5.74-6.55,8.81-9.64A121.45,121.45,0,0,1,123.73,242.1Z"/>
          </g>
          <g>
            <path class="cls-9" d="M86.69,291.81s.8-6.26,4.83-10.45"/>
            <path class="cls-10" d="M86.69,291.81a10.89,10.89,0,0,1,.27-3,15.53,15.53,0,0,1,.93-2.82,13.1,13.1,0,0,1,1.51-2.58,9.34,9.34,0,0,1,2.12-2.09c-.5.87-1,1.66-1.47,2.51s-.88,1.69-1.25,2.56C88,288.17,87.38,290,86.69,291.81Z"/>
          </g>
        </g>
      </g>
      <g>
        <path class="cls-8" d="M177,196.27s-37.27,12.8-58.79,50.34c-5.51,9.6,8.73,31.59,37.54,31.54,0,0,4.92,1.69,14-1.6,3.44-1.25,6.53-18.57,17.57-38,9.36-16.43,3.41-31.12,3.41-31.12"/>
        <ellipse class="cls-12" cx="176.97" cy="242.31" rx="15.52" ry="6.26" transform="translate(-116.02 307.06) rotate(-66.32)"/>
        <g>
          <path class="cls-8" d="M194.64,220.46s4.12-1.76,5.35-4.36-1.92-6.84-11.61-17.57c-8.58-9.49-11.18-3.91-11.58-3.48a5.39,5.39,0,0,0-1,3"/>
          <path class="cls-8" d="M183.81,199.36s-9-8.32,0-11.32c8.1-2.7,24.54,19.54,24,22.6s-3.9,5.14-10,2.43"/>
        </g>
      </g>
      <g>
        <g>
          <path class="cls-3" d="M237.46,227.82,242,227c-.71-2.09-3.67-10.14-1.58-12.27,2.75-2.81,11.57-9,17-6.71,4.51,1.85,3.82,7.37,3.82,7.37s7.37-3.82,8.62-1.72.64,8.7-.37,9.87-4.21,1.37-4.21,1.37,1.64,11.71-.2,13.17-15.78,6.46-24.84,6.12"/>
          <g>
            <line class="cls-4" x1="252.89" y1="219.08" x2="265.47" y2="213.97"/>
            <path class="cls-5" d="M252.89,219.08a40.69,40.69,0,0,1,6.1-3,39.83,39.83,0,0,1,6.48-2.09,40.79,40.79,0,0,1-6.11,3A42.11,42.11,0,0,1,252.89,219.08Z"/>
          </g>
          <g>
            <line class="cls-4" x1="260.79" y1="225.6" x2="269.01" y2="224.29"/>
            <path class="cls-5" d="M260.79,225.6a15.91,15.91,0,0,1,4-1.15,15.43,15.43,0,0,1,4.19-.16,17.52,17.52,0,0,1-8.22,1.31Z"/>
          </g>
          <g>
            <line class="cls-4" x1="249.28" y1="217.69" x2="256.99" y2="217.61"/>
            <path class="cls-5" d="M249.28,217.69a13.77,13.77,0,0,1,3.85-.54,13.12,13.12,0,0,1,3.86.46,15.11,15.11,0,0,1-7.71.08Z"/>
          </g>
          <g>
            <path class="cls-4" d="M240,227.13s.84-.87,2.91,0,2.37,3.64,2.37,3.64"/>
            <path class="cls-5" d="M240,227.13a1.92,1.92,0,0,1,1.88-.77,3.68,3.68,0,0,1,2,.74,3.8,3.8,0,0,1,1.2,1.7,4.39,4.39,0,0,1,.24,2,6.45,6.45,0,0,0-2-2.89,6.08,6.08,0,0,0-1.54-.64A3,3,0,0,0,240,227.13Z"/>
          </g>
        </g>
        <g>
          <g>
            <path class="cls-8" d="M234.55,230.47s-2.69-4.38,2.32-5.39,10,10,7,18c-3.47,9.23-8-3-8-3"/>
            <g>
              <path class="cls-11" d="M184.81,205.06l19.52,25.53,30.22-2.12s7.82,8.13,3.47,16.73c-1.13,2.23-34.24,9.28-43.7,8.42-5.51-.5-28.54-17.52-29.54-33.54"/>
              <path class="cls-10" d="M184.81,205.06c6.58,8.45,13.22,16.86,19.76,25.35l-.26-.12,15.1-1.16,15.11-1.1.22,0,.14.15a21,21,0,0,1,3.73,5.9,14.48,14.48,0,0,1,1.13,6.92,12,12,0,0,1-.85,3.44c-.1.28-.24.54-.36.81a2.24,2.24,0,0,1-.11.22,1.18,1.18,0,0,1-.23.28,2.7,2.7,0,0,1-.43.31,11.14,11.14,0,0,1-1.63.74,68.58,68.58,0,0,1-6.61,2c-4.45,1.12-8.92,2.06-13.42,2.9s-9,1.55-13.58,2.05a58.45,58.45,0,0,1-6.89.39,9.88,9.88,0,0,1-1.77-.14,8.63,8.63,0,0,1-1.72-.54,27.16,27.16,0,0,1-3.08-1.6,63.66,63.66,0,0,1-10.87-8.44,56.13,56.13,0,0,1-8.79-10.53c-2.43-3.86-4.35-8.19-4.62-12.78.38,4.58,2.4,8.83,4.9,12.6A60.69,60.69,0,0,0,178.6,243a63.43,63.43,0,0,0,10.85,8.19,25.57,25.57,0,0,0,3,1.5,9.55,9.55,0,0,0,1.55.49,10.72,10.72,0,0,0,1.64.12,59.15,59.15,0,0,0,6.77-.42c4.53-.51,9-1.26,13.5-2.1s8.94-1.81,13.35-2.94a66.93,66.93,0,0,0,6.51-1.93,11.34,11.34,0,0,0,1.49-.66,1.57,1.57,0,0,0,.27-.19s0-.05,0,0a.68.68,0,0,0,.08-.17c.11-.25.25-.49.34-.75a11.26,11.26,0,0,0,.8-3.18c.45-4.4-1.68-8.81-4.57-12.1l.36.13-15.12,1-15.12,1h-.16l-.1-.13C197.61,222.24,191.23,213.63,184.81,205.06Z"/>
            </g>
          </g>
          <g>
            <path class="cls-9" d="M160.86,222.08s2.7,3.57,5.84,4"/>
            <path class="cls-10" d="M160.86,222.08c1.06.69,1.95,1.43,2.88,2.12.46.35.93.67,1.41,1s1,.59,1.55.9a3.93,3.93,0,0,1-1.89-.19,6.57,6.57,0,0,1-1.67-.9,7.85,7.85,0,0,1-1.34-1.3A5.58,5.58,0,0,1,160.86,222.08Z"/>
          </g>
          <g>
            <path class="cls-9" d="M202.83,229.09a27.18,27.18,0,0,1,4,5"/>
            <path class="cls-10" d="M202.83,229.09a7.74,7.74,0,0,1,2.54,2.06,7.55,7.55,0,0,1,.92,1.36,4.28,4.28,0,0,1,.54,1.59,24.11,24.11,0,0,1-2.23-2.31A12.12,12.12,0,0,1,202.83,229.09Z"/>
          </g>
        </g>
      </g>
      <g>
        <path class="cls-3" d="M264.9,138s6-47-.3-73c-4-16.28-27.9-48.84-45.75-42.14-16,6,9.18,55.76,12,61.07s11,33,21.26,40.4"/>
        <g>
          <path class="cls-3" d="M239,96.64s-.12,6.43-13,6.19-25.15,2-39.07,25c-7.41,12.23-6.39,10.77-6.39,10.77s-14.17,3.2-13.74,19.79,26.7,41.33,26.7,41.33,4.19,10.64,12.62,13.11c8.12,2.38,11.4-.78,14.68-3.94,0,0,28.38-2.56,37.14-14.4,7.21-9.74,5.27-17-.76-25.5,0,0,12.39-27.24,6-41.47s-14.31-15.36-14.7-21.06.12-6.43.12-6.43L245,105.17s.5-7.26,2.16-9.36-5,4.11-6.33,7.55C240.8,103.36,239.84,101.61,239,96.64Z"/>
          <g>
            <g>
              <path class="cls-4" d="M256.51,166.11s14.75,1.75,16.5,10a59.67,59.67,0,0,0-8.12-1.68s2.39,6.24,1.32,8.43c0,0-1.32-1-4.9-3.22s-5-8-5-8"/>
              <path class="cls-5" d="M256.51,166.11a33.26,33.26,0,0,1,5,.86,27.36,27.36,0,0,1,4.86,1.67,16.22,16.22,0,0,1,4.37,2.81,9,9,0,0,1,2.69,4.53l.16.73-.73-.19c-1.33-.35-2.67-.67-4-1a38.73,38.73,0,0,0-4-.67l.48-.66a32.55,32.55,0,0,1,1.24,4.23,15.89,15.89,0,0,1,.32,2.21,4.89,4.89,0,0,1-.31,2.35l-.21.47-.43-.32c-1-.76-2.07-1.5-3.14-2.21l-1.61-1.05a8.23,8.23,0,0,1-1.52-1.3,11.88,11.88,0,0,1-2.11-3.3,17.46,17.46,0,0,1-1.22-3.68,21.21,21.21,0,0,0,1.49,3.54,13.09,13.09,0,0,0,2.22,3.07,7.72,7.72,0,0,0,1.47,1.14l1.66,1c1.11.68,2.2,1.34,3.28,2.12l-.64.15a4.22,4.22,0,0,0,.19-1.91,16.65,16.65,0,0,0-.33-2.08,32.39,32.39,0,0,0-1.25-4.07l-.27-.72.75.06a27,27,0,0,1,4.16.69c1.36.31,2.71.66,4.05,1l-.57.54a8.14,8.14,0,0,0-2.38-4.13,15.89,15.89,0,0,0-4.06-2.83A37.27,37.27,0,0,0,256.51,166.11Z"/>
            </g>
            <g>
              <path class="cls-4" d="M189.05,138s-13.42-10.4-21.44-5.11a68.88,68.88,0,0,1,8,5.14s-6.95,3.16-7.83,5.81c0,0,1.89.23,6.57,1.3s10.44-2.52,10.44-2.52"/>
              <path class="cls-5" d="M189.05,138a42.21,42.21,0,0,0-10.31-5.22,18.3,18.3,0,0,0-5.6-1,9.35,9.35,0,0,0-5.28,1.45l0-.78c1.4.78,2.76,1.57,4.12,2.41a32.41,32.41,0,0,1,3.93,2.76l.58.49-.69.32a36.24,36.24,0,0,0-4.29,2.33,16.46,16.46,0,0,0-1.94,1.43,4.78,4.78,0,0,0-1.4,1.75l-.35-.56c1.5.23,2.92.56,4.37.89l2.15.52a8.89,8.89,0,0,0,2.12.23,14.61,14.61,0,0,0,4.27-.73,23.19,23.19,0,0,0,4.05-1.71,20.35,20.35,0,0,1-3.95,2,13.76,13.76,0,0,1-4.36,1,9.15,9.15,0,0,1-2.27-.17L172,145c-1.44-.28-2.9-.54-4.32-.73l-.54-.07.19-.48A5.51,5.51,0,0,1,169,141.6a19.61,19.61,0,0,1,2-1.53,37,37,0,0,1,4.39-2.45l-.12.81a41.92,41.92,0,0,0-3.82-2.67q-2-1.27-4-2.44l-.66-.38.63-.4a10.2,10.2,0,0,1,5.79-1.54,19,19,0,0,1,5.8,1.2,32.06,32.06,0,0,1,5.29,2.52A37.65,37.65,0,0,1,189.05,138Z"/>
            </g>
          </g>
        </g>
        <g>
          <g>
            <path class="cls-13" d="M206.36,145.16s6.51-17.21,15.42-17.53,16.41,9.21,4.94,27.31"/>
            <circle class="cls-14" cx="220.57" cy="143.39" r="5.8"/>
            <circle class="cls-15" cx="225.91" cy="141.66" r="1.34"/>
          </g>
          <g>
            <path class="cls-4" d="M201.68,144.08s10.6,1.93,26.5,11.88"/>
            <path class="cls-5" d="M201.68,144.08a38,38,0,0,1,7.11,1.74,65.2,65.2,0,0,1,6.81,2.71c2.21,1,4.38,2.16,6.47,3.41,1.06.61,2.08,1.28,3.12,1.92s2,1.37,3,2.1l-6.47-3.35c-2.17-1.08-4.34-2.17-6.54-3.17s-4.41-2-6.65-2.9c-1.12-.46-2.25-.9-3.39-1.3S202.84,144.43,201.68,144.08Z"/>
          </g>
        </g>
        <g>
          <g>
            <path class="cls-13" d="M235.8,159.07s2.41-17.56,8.84-20.57,16,3.6,8.82,26.42"/>
            <circle class="cls-14" cx="245.46" cy="154.6" r="5.8"/>
            <circle class="cls-15" cx="250.8" cy="152.04" r="1.34"/>
          </g>
          <g>
            <path class="cls-4" d="M234.55,159.3c5.93.85,20,4.08,22.34,10.07"/>
            <path class="cls-5" d="M234.55,159.3a41.7,41.7,0,0,1,6.29.85,43.75,43.75,0,0,1,6.12,1.7,27.07,27.07,0,0,1,5.76,2.78,10.72,10.72,0,0,1,1.3.94l.62.51.57.58a7.22,7.22,0,0,1,1.68,2.71,8.21,8.21,0,0,0-2-2.36l-.59-.5-.65-.43a10.3,10.3,0,0,0-1.32-.8,41.19,41.19,0,0,0-5.69-2.49c-2-.73-4-1.31-6-1.9q-1.5-.44-3-.81C236.6,159.79,235.58,159.57,234.55,159.3Z"/>
          </g>
        </g>
        <path class="cls-16" d="M229.35,173.06s-1.57-8.69-7.11-11.67c0,0,7.12-2.44,16.88,5.42C239.12,166.81,236.8,171.71,229.35,173.06Z"/>
        <g>
          <g>
            <path class="cls-17" d="M245.48,177.19s-3.63,9.53-11.52,7.21c-10.83-3.17-5.12-10.61-5.12-10.61s-2.06,5.31-7.21,5.7-21.4-4.38-20.08-21.93c0,0-5,29.11,4.24,37.7s16.7,7.24,28.27-3.18C234.06,192.08,243.39,183.34,245.48,177.19Z"/>
            <path class="cls-18" d="M201.52,185.78s16.36-1.68,19.28,14.46c0,0-8.7,1.57-15-5C203.94,193.33,201.23,187.75,201.52,185.78Z"/>
            <path class="cls-15" d="M234,184.4c-7.9-1.13-7-7.06-7-7.06s-1.53,2.2-5.29,2.15a21.7,21.7,0,0,1-8.09-1.66c-1.13,4.75-.69,10.39.27,12.14C222.32,198,232.37,189.82,234,184.4Z"/>
            <path class="cls-19" d="M221.26,188.62c1-1.93,2-3.73,3-5.58a47.82,47.82,0,0,0,2.66-5.7,10.6,10.6,0,0,1-.51,3.2,18.56,18.56,0,0,1-1.27,3,21.12,21.12,0,0,1-1.73,2.71A15.77,15.77,0,0,1,221.26,188.62Z"/>
          </g>
          <g>
            <path class="cls-20" d="M195.67,158.15a7.2,7.2,0,0,1,2.55-1.12,9.76,9.76,0,0,1,2.8-.27,9.4,9.4,0,0,1,2.77.55,8,8,0,0,1,2.44,1.33c-.91-.2-1.77-.44-2.64-.58a20.29,20.29,0,0,0-5.24-.26A25.23,25.23,0,0,0,195.67,158.15Z"/>
            <path class="cls-20" d="M242.21,174.49a7.18,7.18,0,0,1,2.55,1.12,9.58,9.58,0,0,1,2.1,1.87,9.83,9.83,0,0,1,1.48,2.39,8.25,8.25,0,0,1,.68,2.71c-.48-.81-.88-1.6-1.37-2.34a18.07,18.07,0,0,0-1.56-2.12,17,17,0,0,0-1.81-1.9C243.63,175.62,243,175.05,242.21,174.49Z"/>
          </g>
        </g>
        <g>
          <path class="cls-20" d="M214.14,120.18a25.16,25.16,0,0,1,19.4-2l2.7-3.89S219.57,112.36,214.14,120.18Z"/>
          <path class="cls-20" d="M261.1,138.34a24.36,24.36,0,0,0-12.88-13.77l.5-4.54S262.11,129.2,261.1,138.34Z"/>
        </g>
        <g>
          <path class="cls-3" d="M220.79,104.79s-10.5-72.89-35-96.68C172.61-4.71,158.84,6.55,161,42.4c1.5,24.58,28.4,52,46.81,68.55"/>
          <path class="cls-21" d="M216.41,103.94s-12.63-65.45-30.65-83c-9.71-9.44-19.84-1.15-18.24,25.24,1,16.31,21.54,40.29,35.5,53.78,1.52,1.47,7.29,7.31,12.31.1"/>
        </g>
      </g>
    </g>
  </g>
</svg>
