<svg id="Layer_1" data-name="Layer 1" xmlns="http://www.w3.org/2000/svg" width="512" height="512" viewBox="0 0 512 512">
  <defs>
    <style>
      .cls-1 {
        fill: #e84f4f;
      }
    </style>
  </defs>
  <g>
    <path class="cls-1" d="M371.46,274.11H309.18c5.57,7.54,11.33,20.44,12.79,24.65,13.29,38.21,1.89,72.57-23.05,96.32q-22.38,19.73-58.17,19.72-36.39,0-67.1-29.08C153.16,366.33,122.22,315,104.73,277l16.1-9c13.92,31.42,44.42,77.17,60.13,91.68s30,20.31,50.25,21.7c22.86,1.56,37.59-3.93,47-13.39,24.41-24.31,30.68-73.92-17.75-94.92-10.07-4.37-51.08,6.53-54.25,6.53q-4.18,0-15.51-12.52t-11.34-16.71q0-10.12,10.14-10.14a167.77,167.77,0,0,0,19.39-1.49q12.21-1.48,27.74-3.87c5.56,0,14.36-5.09,19.09-11.94,16.87-18.07,16.87-42.16,15.21-55.45-1.43-11.45-4.77-28-11.34-34.53s-15.21-9.84-25.94-9.84q-13.74,0-32.22,8.35c-11.54,6.36-30.71,17.17-42.24,23.14q-4.78,0-8.95-7.16l-11.93-25.05c13.12-6.76,32.7-16.58,43.44-20.16a96.29,96.29,0,0,1,30.42-5.37q11.32,0,29.23,7.73a119,119,0,0,1,33.41,22q15.5,14.25,21.17,25.84c3.78,7.73,4.69,16.2,5.67,25.26,2.51,23.23-19.69,68.26-28,72.22,0,0,7.77-9.51,7.8-9.5h90.1Z"/>
    <rect class="cls-1" x="371.46" y="135.85" width="35.82" height="279.27"/>
  </g>
</svg>
