<svg id="Layer_1" data-name="Layer 1" xmlns="http://www.w3.org/2000/svg" width="512" height="512" viewBox="0 0 512 512">
  <defs>
    <style>
      .cls-1 {
        fill: #e84f4f;
      }
    </style>
  </defs>
  <path class="cls-1" d="M338.84,395.36q-22.39,19.75-58.22,19.74-36.42,0-67.16-29.1c-20.51-19.41-51.47-70.84-69-108.85l16.12-9c13.92,31.46,44.45,77.25,60.18,91.77s30,20.33,50.29,21.72c22.88,1.56,37.63-3.93,47-13.4,24.43-24.34,30.7-74-17.77-95-10.08-4.38-51.12,6.54-54.3,6.54q-4.19,0-15.53-12.54t-11.34-16.72q0-10.14,10.15-10.15a168.07,168.07,0,0,0,19.4-1.49q12.22-1.49,27.77-3.88c5.56,0,14.37-5.1,19.1-11.94,16.89-18.09,16.89-42.21,15.22-55.51-1.43-11.46-4.77-28-11.34-34.55s-15.22-9.86-26-9.86q-13.74,0-32.24,8.36c-11.55,6.38-30.74,17.19-42.28,23.15-3.19,0-6.18-2.37-9-7.15L178,122.45c13.14-6.77,32.73-16.59,43.48-20.17A96.43,96.43,0,0,1,252,96.9q11.34,0,29.26,7.73a119.45,119.45,0,0,1,33.44,22q15.51,14.27,21.19,25.87c3.78,7.74,4.69,16.21,5.67,25.28,2.37,22-17.36,63.48-26.58,71.28a7.73,7.73,0,0,1-1,.72c-.18.11,35.75,24.3,35.75,24.3,5.58,7.55,10.72,20.66,12.18,24.87C375.22,337.21,363.8,371.59,338.84,395.36Z"/>
</svg>
