<svg id="Layer_1" data-name="Layer 1" xmlns="http://www.w3.org/2000/svg" width="102.13" height="49.93" viewBox="0 0 102.13 49.93">
  <defs>
    <style>
      .cls-1 {
        fill: #191919;
      }
    </style>
  </defs>
  <g>
    <path class="cls-1" d="M0,13.61.49,13H32.9l2.38,4.78-.49.66H28.72l.14,31-.49.35-5.55-1.61L23,38.73a9.14,9.14,0,0,1-4.78,1.4,11.87,11.87,0,0,1-6.81-2.45c-4.18-3-5.86-5.61-5.86-13.08,0-2.23,0-4.33.11-6.21H2.37Zm23,4.78H11.72c-.07,1.81-.1,4.05-.1,6.52,0,6.28.21,9.88,3.84,9.88a8.92,8.92,0,0,0,5.41-2.24A5.68,5.68,0,0,0,23,27.91Z"/>
    <path class="cls-1" d="M31.79,13.61l.49-.66H65.46l2.37,4.78-.49.66H61.27l.14,31-.49.35-5.55-1.61.11-18.94H52.65c-5.37,0-7.81.62-9.35,1.77a5.21,5.21,0,0,0-2.2,4.3c0,3.59,2.9,5.68,9.11,9.1L47.7,49.83l-.53.1C41.38,45.71,36,38.24,36,32c0-3.73,1.88-8.65,11.44-8.65,2.93,0,5.69.07,8.06.14V18.39H34.16Z"/>
    <path class="cls-1" d="M57.43,0l4.78,4.78L57.43,9.56,52.65,4.78Z"/>
    <path class="cls-1" d="M64.34,13.61l.49-.66H99.76l2.37,4.78-.49.66H95.57l.14,31-.49.35L89.6,48.05l.14-29.66H79.55C79.87,22,80,25,80,27.56c0,5.52-.59,8.66-1.85,10.86A3.71,3.71,0,0,1,75,40.34c-1.11,0-2.61-1-4.39-2.9-1.57-1.71-2.65-3.39-2.65-4.82a3.07,3.07,0,0,1,.73-2c.77-.91,2.58-1.33,5.44-1.68a34.44,34.44,0,0,0,.25-4.71A46.39,46.39,0,0,0,74,18.39h-7.3Z"/>
  </g>
</svg>
