<svg id="Layer_1" data-name="Layer 1" xmlns="http://www.w3.org/2000/svg" width="74.32" height="36.92" viewBox="0 0 74.32 36.92">
  <defs>
    <style>
      .cls-1 {
        fill: #191919;
      }
    </style>
  </defs>
  <g>
    <path class="cls-1" d="M0,.66.49,0h33l2.37,4.78-.48.66H29.27l.14,31-.48.35-5.55-1.6.17-16.54c-1.64-.14-2.86-.18-4.5-.18A19.87,19.87,0,0,0,14,19a32.68,32.68,0,0,1,.31,3.83,3.25,3.25,0,0,1-1,2.8,3.2,3.2,0,0,1-2,.76c-1.23,0-2.8-1-4.78-3.07S3.52,19.4,3.52,17.93c0-.9.53-5.54,9.7-5.54a76.71,76.71,0,0,1,10.3.83V5.44H2.37Z"/>
    <path class="cls-1" d="M32.35.66,32.83,0H72l2.37,4.78-.49.66H67.76l.14,31-.49.35-5.55-1.6L62,15.56c-5.58,1.57-7,3.81-8.45,8.69H53L48.4,21.07a14,14,0,0,1,2.58-6,5.75,5.75,0,0,0-2.48-.55c-3.42,0-6.35,3.14-6.35,7.15,0,4.53,3.52,7.36,10.29,9.59l-1.71,5.48-.45.18c-7.12-3.7-13.75-11.34-13.75-18.67,0-5.79,3.88-9.07,8.48-9.11,3.21,0,5.17,1.29,8.27,3.67A21.06,21.06,0,0,1,62,9.67V5.44H34.72Z"/>
  </g>
</svg>
