<svg id="Layer_1" data-name="Layer 1" xmlns="http://www.w3.org/2000/svg" width="130.11" height="63.05" viewBox="0 0 130.11 63.05">
  <defs>
    <style>
      .cls-1 {
        fill: #191919;
      }
    </style>
  </defs>
  <g>
    <path class="cls-1" d="M0,16.92l.49-.66H39.6L42,21l-.49.66H35.42l.14,31-.49.35-5.55-1.6.1-19.58c-5.58,1.57-7,3.81-8.44,8.69h-.49l-4.64-3.18a14.08,14.08,0,0,1,2.58-6,5.67,5.67,0,0,0-2.47-.55c-3.42,0-6.36,3.14-6.36,7.15,0,4.53,3.53,7.36,10.3,9.59L18.39,53l-.46.18C10.82,49.48,4.19,41.84,4.19,34.51c0-5.79,3.87-9.07,8.48-9.11,3.21,0,5.16,1.29,8.27,3.67a21,21,0,0,1,8.72-3.14V21.7H2.37Z"/>
    <path class="cls-1" d="M38.49,16.92l.48-.66H70.73L73.1,21l-.49.66H66.33l.07,8.17-.59.73H60.89a52.55,52.55,0,0,0-5.93.28,5.44,5.44,0,0,0-3.53,1.54,2.83,2.83,0,0,0-.77,1.7c0,.77.74,1.09,1.64,1.09,2.83,0,6.18-1.12,9.15-1.12,3.9,0,5.16,1.67,6.63,4.36a10.44,10.44,0,0,1,1.39,5.1c0,3.8-3.42,8.3-9.66,8.3-6.53,0-13-4.61-18.53-13.75l0-.42L43.76,36c4,6.73,8.3,9.77,13.18,9.77,5.06,0,7.89-3.42,7.89-5.3,0-.32-.28-.56-1.43-.56-1.75,0-6.84,1.25-9.21,1.25-1.71,0-3.35-1.11-5.58-3.7-1.89-2.23-3-4.32-3-6.35,0-5.09,4.65-6,10.82-6h4.19V21.7H40.86Z"/>
    <path class="cls-1" d="M62.18,53.63l4.71,4.71-4.71,4.71-4.71-4.71Z"/>
    <path class="cls-1" d="M69.61,16.92l.49-.66h42.71L115.18,21l-.49.66H96.79v8.38l.11.07a9.75,9.75,0,0,1,5.58-2,8.24,8.24,0,0,1,6.42,3,10.41,10.41,0,0,1,2.93,7.23c0,3.52-1.71,7.57-4.36,11.06H107l-5.2-4c3-3.73,5.23-7.6,5.23-10.29,0-1.29-.52-1.88-1.74-1.88-2.51,0-5.58,2.27-8.41,5.55l.07,13.88-.49.35L91,51.4l.18-7.85-.07,0a9.15,9.15,0,0,1-5.72,1.82c-3.7,0-6.07-1.82-8.55-4.37a11.31,11.31,0,0,1-3.14-7.11c0-5.1,4.08-8.38,9.52-8.38a25.91,25.91,0,0,1,7.92,1.36V21.7H72Zm21.63,14.2a16.76,16.76,0,0,0-3.38-.31c-5.83,0-8.51,3-8.51,6.39,0,1.88,1.39,2.79,3.73,2.79,2.69,0,5.48-1.33,8.16-4.12Z"/>
    <path class="cls-1" d="M111.69,16.92l.49-.66h5.62c-.35-7.12-2.69-11-7.51-11a4.48,4.48,0,0,0-4.85,4.6,7,7,0,0,0,2,4.65l-.52.8L101.64,13a9.65,9.65,0,0,1-2.3-6.14c0-4.08,3.28-6.87,8-6.87,4.12,0,8.13,2.16,11.73,7.08a27.93,27.93,0,0,1,4.15,9.18h4.5L130.11,21l-.48.66h-6.08l.14,31-.49.35-5.61-1.64.14-29.66h-3.67Z"/>
  </g>
</svg>
