<svg id="Layer_1" data-name="Layer 1" xmlns="http://www.w3.org/2000/svg" width="91.38" height="59.7" viewBox="0 0 91.38 59.7">
  <defs>
    <style>
      .cls-1 {
        fill: #191919;
      }
    </style>
  </defs>
  <g>
    <path class="cls-1" d="M0,13.61.49,13H33.57l2.37,4.78-.49.66H29.38l.14,31-.49.35-5.55-1.61.14-7.26A12.83,12.83,0,0,1,17,42.64c-3.74,0-7.12-1.61-10-5.24-2.16-2.75-2.89-5.09-2.89-7,0-4.6,3.45-8.44,10.71-8.44a35.86,35.86,0,0,1,8.79,1.29V18.39H2.37Zm12.63,15a5.57,5.57,0,0,0-3,4.92c0,1.92,1.78,3.7,5.41,3.7a11.94,11.94,0,0,0,3.17-.42Zm8.41,7c2-1.33,2.65-2.62,2.65-4.26V27.84a24.41,24.41,0,0,0-5.23-.55,17,17,0,0,0-2.79.21Z"/>
    <path class="cls-1" d="M25.54,0l4.78,4.78L25.54,9.56,20.76,4.78Z"/>
    <path class="cls-1" d="M32.45,13.61l.49-.66H64.62L67,17.73l-.49.66H59.32l0,10-.52.74h-4c-9.18,0-12.22,3.14-12.22,6.9a5.57,5.57,0,0,0,5.83,5.9,10.2,10.2,0,0,0,5.93-1.71,5.23,5.23,0,0,1-1-3.21c0-2.9,2.2-4.57,5-4.57a5.83,5.83,0,0,1,5.68,6c0,2.06-1.11,3.87-3.07,5.47,3,2.87,4.89,5.27,4.89,8.55a8.85,8.85,0,0,1-4.47,7.26H61.1L55.23,55c3-1.89,4.82-3.91,4.85-6.08a5,5,0,0,0-1.64-3.62A14.87,14.87,0,0,1,51.61,47a14.65,14.65,0,0,1-10.12-4.19c-2.45-2.3-4.89-5.65-4.89-9.73,0-4.5,2.51-9.32,12.18-9.32H52.3c1,0,1.26-.38,1.26-1.32V18.39H34.82Z"/>
    <path class="cls-1" d="M63.5,13.61,64,13H89l2.37,4.78-.49.66h-8a22.43,22.43,0,0,1,.38,4.29c0,7-3.14,10.5-7.6,13,2.89,3.14,7.46,6,12.87,8.55l-2.68,5.93h-.53c-7.12-5.3-12.7-10.92-16-17.06A9.11,9.11,0,0,1,68,29.48a3.78,3.78,0,0,1,.59-1.95,3.6,3.6,0,0,1,3.28-1.47c1.64,0,3.25,0,4.33.14.77-1,1.29-2.58,1.29-5.16a10.62,10.62,0,0,0-.28-2.65H65.88Z"/>
  </g>
</svg>
