<svg id="Layer_1" data-name="Layer 1" xmlns="http://www.w3.org/2000/svg" width="137.82" height="37.2" viewBox="0 0 137.82 37.2">
  <defs>
    <style>
      .cls-1 {
        fill: #191919;
      }
    </style>
  </defs>
  <g>
    <path class="cls-1" d="M0,.66.49,0H31.12L33.5,4.82,33,5.44H26.73l0,10.05-.52.73h-4C13.85,16.22,10,18.63,10,23.27c0,2.9,2.17,5.24,6.15,5.24,3.66,0,7.64-1.71,11.47-5.8L31.47,28l-.1.56a16.14,16.14,0,0,1-11.93,5.62,15.41,15.41,0,0,1-11-4.71C5.55,26.38,4,23.38,4,20.27c0-4.57,2.48-9.42,12.21-9.42h3.52c.95,0,1.26-.38,1.26-1.32V5.44H2.37Z"/>
    <path class="cls-1" d="M30,.66,30.5,0H66.12l2.37,4.78L68,5.44H61.93l.14,31-.48.35L56,35.14l.17-12.43H45c0,4.51-.14,5.1-1.29,5.94a3.07,3.07,0,0,1-1.78.62c-1.16,0-2.87-.94-5.1-3-2-1.89-3.1-3.77-3.1-5.55,0-1.57.83-3.07,5.54-4.08V5.44H32.38ZM44.87,16.78H56.18V5.44H44.87Z"/>
    <path class="cls-1" d="M65,.66,65.49,0H81.05l2.38,4.78-.49.66H76.87l.14,31-.49.35L70.9,35.1,71,5.44H67.38Z"/>
    <path class="cls-1" d="M79.94.66,80.43,0h30.63l2.38,4.82-.49.62h-6.28l0,10.05-.52.73h-4C93.79,16.22,90,18.63,90,23.27c0,2.9,2.17,5.24,6.14,5.24,3.67,0,7.65-1.71,11.48-5.8L111.41,28l-.1.56a16.14,16.14,0,0,1-11.94,5.62,15.4,15.4,0,0,1-11-4.71c-2.86-3.07-4.43-6.07-4.43-9.18,0-4.57,2.47-9.42,12.21-9.42h3.52c.94,0,1.26-.38,1.26-1.32V5.44H82.31Z"/>
    <path class="cls-1" d="M110,.66l.48-.66h25l2.37,4.78-.48.66h-8a22.5,22.5,0,0,1,.38,4.29c0,7-3.14,10.51-7.6,13,2.89,3.15,7.47,6,12.87,8.55l-2.68,5.94h-.53c-7.11-5.31-12.7-10.93-16-17.07a9.13,9.13,0,0,1-1.33-3.59,3.66,3.66,0,0,1,.6-1.95,3.56,3.56,0,0,1,3.28-1.47c1.64,0,3.24,0,4.32.14.77-1,1.29-2.58,1.29-5.16a10.7,10.7,0,0,0-.28-2.66h-11.3Z"/>
  </g>
</svg>
