<svg id="Layer_1" data-name="Layer 1" xmlns="http://www.w3.org/2000/svg" width="101.05" height="53.06" viewBox="0 0 101.05 53.06">
  <defs>
    <style>
      .cls-1 {
        fill: #191919;
      }
    </style>
  </defs>
  <g>
    <path class="cls-1" d="M33.43,3.56l.49-.66h33l2.37,4.78-.49.66H62.7l.14,31-.49.35L56.8,38,57,21.49c-1.64-.14-2.86-.17-4.5-.17a20.07,20.07,0,0,0-5.1.52,33.29,33.29,0,0,1,.32,3.84,3.23,3.23,0,0,1-1,2.79,3.19,3.19,0,0,1-2.06.77c-1.22,0-2.79-1-4.78-3.07S37,22.3,37,20.83c0-.91.52-5.55,9.7-5.55a75.14,75.14,0,0,1,10.29.84V8.34H35.8Z"/>
    <path class="cls-1" d="M43.2,38.47h.42c5,6.56,9.21,9.7,13.08,9.7,2.9,0,5.72-1.88,5.72-4.32,0-.6-.49-1.37-2-1.37a8.63,8.63,0,0,0-4.85,2h-.46l-2.89-4.89a10.93,10.93,0,0,1,6-2.37c2.51,0,4.78,1.36,6.59,4.82a9.62,9.62,0,0,1,1.26,4.53c0,3.53-3,6.46-7.54,6.46-5.26,0-10.78-4.15-17.06-12.67Z"/>
    <path class="cls-1" d="M65.77,3.56l.49-.66H98.68l2.37,4.78-.49.66H94.49l.14,31-.49.35L88.59,38l.14-9.35A9.14,9.14,0,0,1,84,30.08a11.84,11.84,0,0,1-6.8-2.45c-4.19-3-5.86-5.61-5.86-13.08,0-2.23,0-4.33.1-6.21H68.14ZM77.5,10.64l-.14,0c0,1.25,0,2.72,0,4.18,0,6.35.21,10,3.91,10a8.85,8.85,0,0,0,5.27-2.06Zm2-2.2,8.76,11.8.17,0a7.49,7.49,0,0,0,.35-2.51V8.34H79.62Z"/>
    <path class="cls-1" d="M18,3.56l.49-.66h16l2.38,4.78-.49.66H30.36l.14,31-.49.35L24.46,38l.14-7.19a14.24,14.24,0,0,1-6.32,1.51c-2.68,0-5.3-1.09-8.09-3.77-2.51-2.48-4-5.1-4-8a6.26,6.26,0,0,1,.87-3.07C3.45,14.52,0,11.41,0,7.47,0,2.76,3.77,0,7.85,0c2.34,0,5.07,1.07,6,3,3.32,6.84-2,10.53-5.52,11.23l-1.09-.86c4.13-1.77,5.71-6,2.92-7.4C7.91,4.8,5.31,7.34,5.37,10.47c0,2.27,1.89,3.45,4.92,3.45a74.43,74.43,0,0,0,7.51-1.11L21,17.93l-.28.39c-7.92,1-9.07,4.19-9.07,5.76,0,1.36,1.33,2.54,3.73,2.54a12.15,12.15,0,0,0,5.17-1.29c2.3-1.11,4-2.55,4-5.48V8.34H20.41Z"/>
  </g>
</svg>
