<svg id="Layer_1" data-name="Layer 1" xmlns="http://www.w3.org/2000/svg" width="91.34" height="63.05" viewBox="0 0 91.34 63.05">
  <defs>
    <style>
      .cls-1 {
        fill: #191919;
      }
    </style>
  </defs>
  <g>
    <path class="cls-1" d="M41.79,16.92l.49-.66H74L76.4,21l-.48.66H69.63l.07,8.17-.59.73H64.19a52.67,52.67,0,0,0-5.93.28,5.41,5.41,0,0,0-3.52,1.54,2.83,2.83,0,0,0-.77,1.7c0,.77.73,1.09,1.64,1.09,2.82,0,6.17-1.12,9.14-1.12,3.91,0,5.16,1.67,6.63,4.36a10.44,10.44,0,0,1,1.39,5.1c0,3.8-3.41,8.3-9.66,8.3-6.53,0-13-4.61-18.53-13.75l0-.42L47.06,36c4,6.73,8.3,9.77,13.19,9.77,5.06,0,7.88-3.42,7.88-5.3,0-.32-.27-.56-1.43-.56-1.74,0-6.84,1.25-9.21,1.25-1.71,0-3.35-1.11-5.58-3.7-1.88-2.23-3-4.32-3-6.35,0-5.09,4.64-6,10.82-6h4.18V21.7H44.16Z"/>
    <path class="cls-1" d="M65.48,53.63l4.71,4.71-4.71,4.71-4.71-4.71Z"/>
    <path class="cls-1" d="M72.91,16.92l.49-.66H79c-.35-7.12-2.69-11-7.5-11-3,0-4.85,1.92-4.85,4.6a7,7,0,0,0,2,4.65l-.53.8L62.87,13a9.61,9.61,0,0,1-2.31-6.14c0-4.08,3.28-6.87,8-6.87,4.12,0,8.13,2.16,11.72,7.08a27.72,27.72,0,0,1,4.15,9.18H89L91.34,21l-.49.66H84.78l.14,31-.49.35-5.62-1.64L79,21.7H75.29Z"/>
    <g>
      <path class="cls-1" d="M33,40.54s6,3.53,7.47,6.05c1.2,2.07-2.42,4-2.42,4s1.3-2.33-.1-3.63a60.25,60.25,0,0,0-6.32-4.75"/>
      <path class="cls-1" d="M33.53,36.43a12,12,0,0,1-1.72,3.41Q28,36.87,28,33.57A5.45,5.45,0,0,1,29.26,30a3.71,3.71,0,0,1,3-1.51,1.84,1.84,0,0,1,1.58.93,5.15,5.15,0,0,1,.62,2.85,12.66,12.66,0,0,1-.89,4.17M23.44,27.15a7.18,7.18,0,0,0-1.75,4.73q0,5.44,8.67,10A15.55,15.55,0,0,1,24.54,46a17.5,17.5,0,0,1-7,1.69A5.94,5.94,0,0,1,14.18,47a2.22,2.22,0,0,1-.89-1.89,3.1,3.1,0,0,1,1.79-2.76,13.12,13.12,0,0,1,6.4-1.24L18.8,35h-1a13.38,13.38,0,0,0-2.92.34,6.7,6.7,0,0,0-2.17.76,7.56,7.56,0,0,1-1.52-1.24,2.81,2.81,0,0,1,.35-4.27,5,5,0,0,1,3-.85v-5.5s-1.15-.05-1.88-.05a8.32,8.32,0,0,0-5.51,1.72A5.33,5.33,0,0,0,5.17,30.2q0,1.71,2,4.4a14.63,14.63,0,0,0,3.1,3.31,5.46,5.46,0,0,0-2.2,4.4q0,3.45,4.33,6.82a14.37,14.37,0,0,0,8.88,3.37q6.48,0,12.33-5c4.22-3.64,5.43-8,6.33-12.7,1.09-5.7-7.14-16.59-16.49-7.62"/>
      <polygon class="cls-1" points="10.88 29.61 14.62 29.66 14.62 21.23 10.88 21.23 10.88 29.61"/>
      <polygon class="cls-1" points="0.48 16.26 0 16.92 2.36 21.67 46.7 21.67 46.7 16.26 0.48 16.26"/>
    </g>
  </g>
</svg>
