<svg id="Layer_1" data-name="Layer 1" xmlns="http://www.w3.org/2000/svg" width="87.06" height="60.29" viewBox="0 0 87.06 60.29">
  <defs>
    <style>
      .cls-1 {
        fill: #191919;
      }
    </style>
  </defs>
  <g>
    <path class="cls-1" d="M0,22.05l.49-.66H38l2.38,4.78-.49.66H33.78l.14,31-.49.35-5.55-1.6.17-12.08a39.76,39.76,0,0,1-4.67.25,19.83,19.83,0,0,1-8.17-1.89,18.07,18.07,0,0,1-3.94,3.63c2.76,2.83,7,5.48,12.32,8L21,60.29h-.52C14.62,55.86,9.6,51.12,6.18,45.92c-1.78-2.69-2.59-4.78-2.59-6.18a3.41,3.41,0,0,1,3.56-3.66,26.76,26.76,0,0,1,2.93.21,17.39,17.39,0,0,0,.53-4.61,24.58,24.58,0,0,0-.46-4.85H2.37Zm15.6,4.78a40.26,40.26,0,0,1,.73,7.61A30,30,0,0,1,16.16,38a29.93,29.93,0,0,0,5.61.56A25.89,25.89,0,0,0,28,37.93V26.83Z"/>
    <path class="cls-1" d="M36.85,22.05l.48-.66H52.9l2.37,4.78-.49.66H48.71l.14,31-.49.35-5.62-1.64.14-29.66H39.22Z"/>
    <path class="cls-1" d="M35.73,5.3l.28.11C37.72,10.5,40.23,13,43.48,13c3.07,0,5.54-2.41,7.08-7.68l.38-.07,3.6,3.38c-1.12,6.32-5,10-9.7,10-5,0-8.73-3.77-11.17-11.34ZM43.51,0l4,4-4,4-4-4Z"/>
    <path class="cls-1" d="M51.78,22.05l.49-.66H84.68l2.38,4.78-.49.66H80.5l.14,31-.49.35-5.55-1.6.14-9.36A9,9,0,0,1,70,48.57a11.87,11.87,0,0,1-6.8-2.44c-4.19-3-5.87-5.62-5.87-13.09,0-2.23,0-4.32.11-6.21H54.15Zm23,4.78H63.5c-.07,1.82-.1,4.05-.1,6.53,0,6.28.21,9.87,3.84,9.87A8.9,8.9,0,0,0,72.65,41a5.7,5.7,0,0,0,2.16-4.64Z"/>
  </g>
</svg>
