<svg id="Layer_1" data-name="Layer 1" xmlns="http://www.w3.org/2000/svg" width="88.42" height="57.43" viewBox="0 0 88.42 57.43">
  <defs>
    <style>
      .cls-1 {
        fill: #191919;
      }
    </style>
  </defs>
  <g>
    <path class="cls-1" d="M17.34,21.18l.49-.66H32.62L35,25.3l-.49.66H28.44l.14,30.95-.49.35-5.55-1.61.14-8.27a11.52,11.52,0,0,1-6.56,2C10.15,49.34,4.5,44.84,1,36l.35-.84C8.3,32.59,13,30.81,13,26.41A3.13,3.13,0,0,0,9.6,23.34a4,4,0,0,0-4.3,3.95C5.3,28.58,6.21,29.8,8,31l-.53,1.29L3.31,30.78C1.08,28.79,0,26.69,0,24.49c0-3.07,2.44-6.24,7.19-6.24,2.75,0,5.23,1.67,7.36,4.46s2.93,5.13,2.93,7.19c0,5.38-4,7.54-9.91,9.84.87,2.51,2.79,3.7,6,3.7a11.06,11.06,0,0,0,6.25-2.06c2-1.36,2.93-2.79,2.93-5.89V26h-3Z"/>
    <path class="cls-1" d="M25.19,21.21C22,17.24,18.63,15,15.46,15c-2.31,0-5,1.12-7.82,2.69l-.31-.18L4.05,12.25a15.65,15.65,0,0,1,7.6-2.65c3.28,0,6.49,1.64,11,5.37l.17-.14a40,40,0,0,0-1.22-4.92c-.9-2.62-2.54-3.73-6.28-3.73a22.36,22.36,0,0,0-5.23.66L9.8,6.66,8,.59A26.58,26.58,0,0,1,13.64,0C18.39,0,20.45,2,23,6.46c2,3.52,3.1,7.43,4.26,14.41l-.25.34Z"/>
    <path class="cls-1" d="M31.51,21.18l.49-.66H71.11l2.37,4.78L73,26H66.92l.14,30.95-.49.35L61,55.65l.1-19.57c-5.58,1.57-7.05,3.8-8.44,8.69H52.2l-4.64-3.18a13.91,13.91,0,0,1,2.58-6A5.71,5.71,0,0,0,47.66,35c-3.42,0-6.35,3.14-6.35,7.15,0,4.54,3.53,7.37,10.3,9.6L49.9,57.26l-.46.17c-7.12-3.7-13.75-11.34-13.75-18.66,0-5.8,3.88-9.08,8.48-9.11,3.21,0,5.17,1.29,8.27,3.66a21.34,21.34,0,0,1,8.73-3.14V26H33.88Z"/>
    <path class="cls-1" d="M70,21.18l.49-.66H76.1c-.35-7.12-2.69-11-7.5-11-3,0-4.85,1.91-4.85,4.6a6.93,6.93,0,0,0,2,4.64l-.53.8L60,17.27a9.62,9.62,0,0,1-2.31-6.14c0-4.08,3.28-6.87,8-6.87,4.11,0,8.13,2.16,11.72,7.08a27.72,27.72,0,0,1,4.15,9.18H86l2.38,4.78-.49.66H81.86L82,56.91l-.49.35-5.62-1.64L76,26H72.37Z"/>
  </g>
</svg>
