<svg id="Layer_1" data-name="Layer 1" xmlns="http://www.w3.org/2000/svg" width="68.7" height="54.89" viewBox="0 0 68.7 54.89">
  <defs>
    <style>
      .cls-1 {
        fill: #191919;
      }
    </style>
  </defs>
  <g>
    <path class="cls-1" d="M0,18.32l.49-.66H11.34A10.51,10.51,0,0,1,14.83,17a13.94,13.94,0,0,1,4.36.63H41.94l2.37,4.78-.49.66H37.75l.14,30.95-.49.35-5.61-1.64.14-29.66H24.35A10.2,10.2,0,0,1,26.9,30c0,4.19-3.45,8.17-8.79,11.48,1.92,2.62,5.37,5.1,9.66,7.36l-2.33,6.08h-.39C21.6,53,17.86,49.48,13.57,43.16a17.13,17.13,0,0,1-4.53,1c-.94,0-2.34-.91-4-3.25a5.36,5.36,0,0,1-1.22-2.68c0-1.5,1.57-3,4.6-3a14.42,14.42,0,0,1,5.52,1.29,7.23,7.23,0,0,0,2.33-1.32C11,31.75,7.29,28.3,7.29,24.56a9,9,0,0,1,.14-1.46H2.37Zm18.07,4.05C15,22.37,13,24.39,13,27s2.59,4.5,6.11,5.41c1.75-1.78,2.93-3.7,2.93-6.08A3.69,3.69,0,0,0,18.07,22.37Z"/>
    <path class="cls-1" d="M33.36,18.35C30.67,11,29.14,6.56,23.9,6.56a24.24,24.24,0,0,0-6.77,1H17L14.34,1a26.9,26.9,0,0,1,7.22-1C28.68,0,31.19,5.62,37,18l-.25.35Z"/>
    <path class="cls-1" d="M40.82,18.32l.49-.66h25l2.37,4.78-.49.66h-8a22.43,22.43,0,0,1,.38,4.29c0,7-3.14,10.5-7.6,13,2.89,3.14,7.46,6,12.87,8.55l-2.68,5.93h-.53c-7.12-5.3-12.7-10.92-16-17.06a9.11,9.11,0,0,1-1.33-3.6,3.78,3.78,0,0,1,.59-1.95,3.6,3.6,0,0,1,3.28-1.46c1.64,0,3.25,0,4.33.13.77-1,1.29-2.58,1.29-5.16a10.62,10.62,0,0,0-.28-2.65H43.2Z"/>
  </g>
</svg>
