<svg id="Layer_1" data-name="Layer 1" xmlns="http://www.w3.org/2000/svg" width="145.68" height="62.08" viewBox="0 0 145.68 62.08">
  <defs>
    <style>
      .cls-1 {
        fill: #191919;
      }
    </style>
  </defs>
  <g>
    <path class="cls-1" d="M69.45,16.42l.48-.66h32.85l2.35,4.73-.49.66h-6l.14,30.64-.48.34L92.8,50.54l.1-18.75H90.1c-5.32,0-7.74.62-9.26,1.76a5.14,5.14,0,0,0-2.17,4.25c0,3.56,2.87,5.63,9,9L85.2,52.27l-.52.1C79,48.2,73.63,40.8,73.63,34.59,73.63,30.89,75.49,26,85,26c2.9,0,5.63.07,8,.14v-5H71.8Z"/>
    <path class="cls-1" d="M56.24,16.41l.48-.66h6.53c-1.7-2-2.63-3.87-2.63-6C60.62,5.08,64.52,0,72.57,0c7,0,14.58,3.7,23.14,12.16l-1.45,2.28h-.45C88.18,9.19,82.38,5.8,76.2,5.8s-9.84,3.63-9.84,7.74a4.83,4.83,0,0,0,.48,2.21h5.28l2.35,4.73-.48.66H68l.14,30.63-.49.35L62.07,50.5l.14-29.36H58.58Z"/>
    <path class="cls-1" d="M0,16.41l.48-.66H7c-1.69-2-2.62-3.87-2.62-6,0-4.69,3.9-9.77,12-9.77,7,0,14.57,3.7,23.14,12.16L38,14.44h-.45C32,9.19,26.15,5.8,20,5.8s-9.84,3.63-9.84,7.74a5,5,0,0,0,.48,2.21h5.29l2.35,4.73-.49.66h-6l.14,30.63-.48.35L5.84,50.5,6,21.14H2.35Z"/>
    <path class="cls-1" d="M61.41,15.76H39.92a.58.58,0,0,0-.52.82l2,4.12a.57.57,0,0,0,.52.33h6v6.85a.57.57,0,0,1-.2.44,7.62,7.62,0,0,1-4,2.29,29,29,0,0,1-7.14.16c4.05-3.81,1.2-10.76-1.29-13-1.24-1.4-3.74-2.87-7.77-2.86s-6.32,3-6.27,6.52c0,2.77,2.26,6,5.69,8.57-4.29,2.22-6.27,5.69-6.6,8-.55,4,1.21,13.19,13.3,13.19a13.62,13.62,0,0,0,3.4-.4l.23.36a.31.31,0,0,1,0,.1l3.4,8.53a.59.59,0,0,0,.33.33L46.29,62a.58.58,0,0,0,.73-.78L41.22,48.5a6.31,6.31,0,0,0,1.85-3.69c0-.9-.3-6.87-5.77-6.87a4.39,4.39,0,0,0-4.36,3.81A9.85,9.85,0,0,0,34,45.31a8.48,8.48,0,0,1-3,.5c-3.51,0-4.56-2.2-4.46-4.81.08-2.23,2.19-4.9,6.42-7.78a30.4,30.4,0,0,0,11.54,2.06,12.36,12.36,0,0,0,3.12-.51.18.18,0,0,1,.24.18V50.08a.05.05,0,0,0,0,.06l4.46,1.53a.57.57,0,0,0,.76-.54v-30l8.26,0a.57.57,0,0,0,.57-.57V16.34A.57.57,0,0,0,61.41,15.76ZM31.28,20.23c2.76,0,3.31,1.8,3.31,3.08,0,1.11-1.13,3.28-4.69,5.24-2-1.34-3.32-3.06-3.28-4.71C26.67,21.48,28.52,20.23,31.28,20.23Z"/>
    <path class="cls-1" d="M101,16.42l.49-.66h41.83l2.34,4.73-.48.66h-6l.14,30.64-.49.34-5.49-1.59L133.49,32h-7.15c1.83,3.14,2.52,5.14,2.52,7.59,0,3.6-2.9,7.4-8.11,7.4-6.36,0-12.16-5.6-17.31-18.38L106.62,27c3.66,9.26,7.56,13.47,12,13.47a5.48,5.48,0,0,0,5.53-5.18c0-2-1.94-3.11-6.08-3.66l-2.18-4.94.48-.59h17.1v-5H103.37Z"/>
  </g>
</svg>
