<svg id="Layer_1" data-name="Layer 1" xmlns="http://www.w3.org/2000/svg" width="129.56" height="54.4" viewBox="0 0 129.56 54.4">
  <defs>
    <style>
      .cls-1 {
        fill: #191919;
      }
    </style>
  </defs>
  <g>
    <path class="cls-1" d="M19.75,18.32l.49-.66h18l2.37,4.78-.49.66H34.09l.14,30.95-.49.35-5.55-1.61.18-12.56A73,73,0,0,0,18,40.82c-1,3.63-2.4,5.59-4.22,5.59-1.43,0-3.1-1-5-3-1.6-1.68-2.58-3.32-2.58-4.82,0-2.16,2.16-3.45,6.46-4.12a42.23,42.23,0,0,0,.31-7c0-5.06-.8-7.4-3.35-7.4a3.48,3.48,0,0,0-3.31,3.56c0,2.2,1.5,3.8,4,5.09l-.77,1.5a39.65,39.65,0,0,1-5.62-1.6C1.4,26.76,0,24.29,0,21.77a6.43,6.43,0,0,1,6.7-6.31c2.34,0,4.81,1,7.36,3.21,3.07,2.65,4.68,5.06,4.68,11.27,0,1.53,0,3.07-.11,4.6,3.32,0,6.32,0,9.63.25V23.1H22.12Z"/>
    <path class="cls-1" d="M37.16,18.32l.49-.66h6c-2.55-6.91-4.16-11.1-9.22-11.1a24.29,24.29,0,0,0-6.77,1h-.14L24.91,1a26.92,26.92,0,0,1,7.23-1c7,0,9.59,5.51,15.24,17.66h5.83l2.37,4.78-.48.66H49l.14,30.95-.49.35-5.61-1.64L43.2,23.1H39.53Z"/>
    <path class="cls-1" d="M52.09,18.32l.49-.66H94.84l2.37,4.78-.49.66H90.65l.14,30.95-.49.35-5.55-1.61.14-18.74H77.67c1.85,3.18,2.55,5.2,2.55,7.68,0,3.63-2.93,7.47-8.2,7.47-6.42,0-12.28-5.65-17.48-18.56L57.75,29c3.7,9.35,7.64,13.61,12.14,13.61a5.53,5.53,0,0,0,5.58-5.24c0-2-2-3.14-6.14-3.69l-2.2-5,.49-.6H84.89v-5H54.47Z"/>
    <path class="cls-1" d="M93.72,18.32l.49-.66h33l2.38,4.78-.49.66H123l.14,30.95-.49.35-5.55-1.61.17-16.54c-1.64-.14-2.86-.17-4.5-.17a19.93,19.93,0,0,0-5.09.52,32.82,32.82,0,0,1,.31,3.84,3.23,3.23,0,0,1-1,2.79A3.16,3.16,0,0,1,105,44c-1.22,0-2.8-1-4.78-3.07s-2.93-3.87-2.93-5.34c0-.91.52-5.55,9.7-5.55a75.14,75.14,0,0,1,10.29.84V23.1H96.09Z"/>
  </g>
</svg>
