<svg id="Layer_1" data-name="Layer 1" xmlns="http://www.w3.org/2000/svg" width="88.18" height="63.23" viewBox="0 0 88.18 63.23">
  <defs>
    <style>
      .cls-1 {
        fill: #191919;
      }
    </style>
  </defs>
  <g>
    <path class="cls-1" d="M0,16.92l.49-.66H31.55L33.92,21l-.49.67H27.22l0,8.86-.62.7c-2.13-.11-3.95-.11-6.08-.11a35.08,35.08,0,0,0-5.26.32C12.07,32,10,33.68,10,35.7a4,4,0,0,0,.91,2.79,15.38,15.38,0,0,1,9.94-3.66,8.66,8.66,0,0,1,8.31,4.81A11.88,11.88,0,0,1,30.67,45c0,3.28-2.12,5.73-6.42,7.68l-4.67-5c4.6-2.23,7.12-4.19,7.12-5.83,0-.56-.74-1.22-3-1.22-4.26,0-10.75,2.86-10.75,8,0,5.27,7.05,8,18.6,9L28.93,63.2l-.28,0c-12-3-21.32-9-21.32-17.41a8.89,8.89,0,0,1,1.32-4.61c-2.72-2.86-4.32-5.48-4.32-8.41,0-3.17,2.44-6.35,7.22-6.84a93.44,93.44,0,0,1,9.91-.31V21.71H2.37Z"/>
    <path class="cls-1" d="M30.43,16.92l.49-.66h5.61c-.35-7.12-2.68-11-7.5-11a4.48,4.48,0,0,0-4.85,4.61,6.94,6.94,0,0,0,2,4.64l-.52.8L20.38,13a9.64,9.64,0,0,1-2.31-6.14c0-4.09,3.28-6.88,8-6.88,4.12,0,8.13,2.16,11.72,7.08A27.94,27.94,0,0,1,42,16.26h4.5L48.85,21l-.49.67H42.29l.14,30.95-.49.35-5.62-1.64.14-29.66H32.8Z"/>
    <path class="cls-1" d="M45.36,16.92l.49-.66h25L73.24,21l-.49.67h-8A22.43,22.43,0,0,1,65.11,26c0,7-3.14,10.5-7.61,13,2.9,3.14,7.47,6,12.88,8.55l-2.69,5.93h-.52c-7.12-5.3-12.7-10.92-16-17.06a9.21,9.21,0,0,1-1.32-3.6,3.76,3.76,0,0,1,.59-1.95,3.59,3.59,0,0,1,3.28-1.47c1.64,0,3.25,0,4.33.14.77-1,1.29-2.58,1.29-5.16A10.62,10.62,0,0,0,59,21.71H47.73Z"/>
    <path class="cls-1" d="M69.75,16.92l.49-.66H85.8L88.18,21l-.49.67H81.62l.13,30.95-.48.35-5.62-1.64.14-29.66H72.12Z"/>
  </g>
</svg>
