<svg id="Layer_1" data-name="Layer 1" xmlns="http://www.w3.org/2000/svg" width="95.15" height="54.4" viewBox="0 0 95.15 54.4">
  <defs>
    <style>
      .cls-1 {
        fill: #191919;
      }
    </style>
  </defs>
  <g>
    <path class="cls-1" d="M0,18.32l.49-.66H31.12l2.38,4.81L33,23.1H26.73l0,10-.52.73h-4c-8.38,0-12.22,2.41-12.22,7,0,2.89,2.17,5.23,6.15,5.23,3.66,0,7.64-1.71,11.47-5.79l3.84,5.27-.1.56a16.14,16.14,0,0,1-11.93,5.62,15.37,15.37,0,0,1-11-4.72C5.55,44,4,41,4,37.93c0-4.57,2.48-9.42,12.21-9.42h3.52c.95,0,1.26-.39,1.26-1.33V23.1H2.37Z"/>
    <path class="cls-1" d="M30,18.32l.49-.66h6C34,10.75,32.38,6.56,27.32,6.56a24.24,24.24,0,0,0-6.77,1h-.14L17.76,1A26.9,26.9,0,0,1,25,0C32,0,34.58,5.51,40.23,17.66h5.83l2.37,4.78-.49.66H41.87L42,54.05l-.49.35L35.9,52.76,36,23.1H32.38Z"/>
    <path class="cls-1" d="M44.94,18.32l.49-.66H77.84l2.38,4.78-.49.66H73.66l.14,30.95-.49.35-5.55-1.61.14-9.35a9.14,9.14,0,0,1-4.78,1.4,11.82,11.82,0,0,1-6.8-2.45c-4.19-3-5.87-5.61-5.87-13.08,0-2.23,0-4.33.11-6.21H47.31ZM68,23.1H56.67c-.07,1.81-.11,4-.11,6.52,0,6.28.21,9.88,3.84,9.88a8.9,8.9,0,0,0,5.41-2.23A5.71,5.71,0,0,0,68,32.62Z"/>
    <path class="cls-1" d="M76.73,18.32l.49-.66h5.61c-.34-7.12-2.68-11-7.5-11a4.49,4.49,0,0,0-4.85,4.61,7,7,0,0,0,2,4.64l-.52.8-5.27-2.3a9.61,9.61,0,0,1-2.3-6.14c0-4.08,3.28-6.87,8-6.87,4.12,0,8.13,2.16,11.73,7.08a28.13,28.13,0,0,1,4.15,9.18h4.5l2.37,4.78-.49.66H88.59l.14,30.95-.49.35-5.61-1.64.13-29.66H79.1Z"/>
  </g>
</svg>
