<svg id="Layer_1" data-name="Layer 1" xmlns="http://www.w3.org/2000/svg" width="140" height="50" viewBox="0 0 140 50">
  <defs>
    <style>
      .cls-1 {
        fill: #191919;
      }
    </style>
  </defs>
  <g>
    <path class="cls-1" d="M2.52.91,3,.25h42.7L48.09,5l-.49.66H29.7v8.38l.1.07a9.81,9.81,0,0,1,5.59-2,8.26,8.26,0,0,1,6.42,3,10.43,10.43,0,0,1,2.93,7.23c0,3.52-1.71,7.57-4.36,11.06h-.49l-5.2-4c3-3.74,5.23-7.61,5.23-10.3,0-1.29-.52-1.88-1.74-1.88-2.51,0-5.58,2.27-8.41,5.55l.07,13.88-.49.35-5.41-1.6.18-7.85-.07,0a9.16,9.16,0,0,1-5.73,1.82c-3.69,0-6.07-1.82-8.54-4.37a11.31,11.31,0,0,1-3.14-7.11c0-5.1,4.08-8.38,9.52-8.38a26,26,0,0,1,7.92,1.36V5.69H4.89Zm21.63,14.2a17.67,17.67,0,0,0-3.38-.31c-5.83,0-8.52,3-8.52,6.39,0,1.88,1.4,2.79,3.74,2.79,2.68,0,5.47-1.33,8.16-4.12Z"/>
    <path class="cls-1" d="M44.6.91l.49-.66H78.16L80.54,5l-.49.66H74l.14,31-.49.35-5.55-1.6.14-7.26a12.91,12.91,0,0,1-6.59,1.81c-3.74,0-7.12-1.6-10-5.23-2.16-2.76-2.89-5.09-2.89-7,0-4.61,3.45-8.45,10.71-8.45a36.35,36.35,0,0,1,8.79,1.29V5.69H47Zm12.63,15a5.57,5.57,0,0,0-3,4.92c0,1.92,1.78,3.7,5.41,3.7a11.94,11.94,0,0,0,3.17-.42Zm8.41,7c2-1.33,2.65-2.62,2.65-4.26V15.15a23.76,23.76,0,0,0-5.23-.56,17,17,0,0,0-2.79.21Z"/>
    <path class="cls-1" d="M77.82,45.6l0,.38a6.9,6.9,0,0,1-6.24,3.77c-4.19,0-9.25-4.57-9.25-8.69,0-3.73,3.35-6.28,7.4-6.28,5.23,0,10.29,3.7,18.7,12.21l-1.64,2.38H86.4c-5.83-6.35-10.61-9.95-14-9.95-3.17,0-5.34,2-5.34,3.94a1.92,1.92,0,0,0,2,1.92c1.64,0,3.17-1,4.53-3.38Z"/>
    <path class="cls-1" d="M77.05.91l.49-.66h33.18L113.09,5l-.49.66h-6.07l.14,31-.49.35-5.54-1.6.1-18.95H97.91c-5.37,0-7.81.63-9.35,1.78a5.18,5.18,0,0,0-2.2,4.29c0,3.6,2.9,5.69,9.11,9.11L93,37.13l-.52.11c-5.8-4.23-11.17-11.69-11.17-18,0-3.74,1.88-8.66,11.44-8.66,2.94,0,5.69.07,8.07.14V5.69H79.42Z"/>
    <path class="cls-1" d="M109.6.91l.49-.66h25L137.48,5l-.49.66h-8a22.53,22.53,0,0,1,.38,4.3c0,7-3.14,10.5-7.6,13,2.89,3.14,7.46,6,12.87,8.54l-2.69,5.94h-.52c-7.12-5.31-12.7-10.93-16-17.07a9.23,9.23,0,0,1-1.32-3.59,3.73,3.73,0,0,1,.59-1.95,3.58,3.58,0,0,1,3.28-1.47c1.64,0,3.25,0,4.33.14.77-1,1.29-2.58,1.29-5.16a10.7,10.7,0,0,0-.28-2.66H112Z"/>
  </g>
</svg>
