<svg id="Layer_1" data-name="Layer 1" xmlns="http://www.w3.org/2000/svg" width="107.75" height="37.2" viewBox="0 0 107.75 37.2">
  <defs>
    <style>
      .cls-1 {
        fill: #191919;
      }
    </style>
  </defs>
  <g>
    <path class="cls-1" d="M0,.66.49,0H40.06l2.37,4.78-.49.66H35.87l.14,31-.49.35L30,35.14l.14-7.4a10.72,10.72,0,0,1-6.66,2.13c-3.11,0-6.46-1.08-9.77-4.68-2.27-2.44-3.56-4.74-3.56-7.71a5.82,5.82,0,0,1,.35-2.16H6L3.59,10.4l.53-.67H27v5l-.39.42H21.88c-3.74,0-5.76,2.2-5.76,5.2,0,2.72,2.13,3.91,4.33,3.91a10.93,10.93,0,0,0,7.36-2.76,6.65,6.65,0,0,0,2.27-5.37V5.44H2.37Z"/>
    <path class="cls-1" d="M38.94.66,39.43,0h25l2.37,4.78-.49.66h-8a23.34,23.34,0,0,1,.38,4.29c0,7-3.14,10.51-7.61,13,2.9,3.15,7.47,6,12.88,8.55L61.27,37.2h-.52c-7.12-5.31-12.7-10.93-16-17.07a9.07,9.07,0,0,1-1.32-3.59A3.73,3.73,0,0,1,44,14.59a3.56,3.56,0,0,1,3.28-1.47c1.64,0,3.24,0,4.33.14.76-1,1.29-2.58,1.29-5.16a10.7,10.7,0,0,0-.28-2.66H41.31Z"/>
    <path class="cls-1" d="M63.33.66,63.82,0h41.55l2.38,4.78-.49.66h-6.07l.14,31-.49.35L95.22,35.1l.14-29.66H89.57V17c0,8.76-5.34,10.15-8.55,10.15A11.8,11.8,0,0,1,73.13,24c-2.3-2.1-4.08-4.57-4.08-10.93,0-2,0-4.39.07-7.64H65.7ZM75.12,5.44c-.07,3.35-.07,6.35-.07,8.76C75.05,20,76.31,22,78.61,22c2.62,0,5.24-2,5.24-8V5.44Z"/>
  </g>
</svg>
