<svg id="Layer_1" data-name="Layer 1" xmlns="http://www.w3.org/2000/svg" width="162.88" height="46.76" viewBox="0 0 162.88 46.76">
  <defs>
    <style>
      .cls-1 {
        fill: #191919;
      }
    </style>
  </defs>
  <g>
    <path class="cls-1" d="M0,.66.49,0H32.17l2.37,4.78-.49.66H26.87l0,10-.52.73h-4c-9.18,0-12.22,3.14-12.22,6.91A5.57,5.57,0,0,0,16,29a10.2,10.2,0,0,0,5.93-1.71,5.27,5.27,0,0,1-1-3.21c0-2.9,2.2-4.58,5-4.58a5.84,5.84,0,0,1,5.68,6c0,2.06-1.11,3.87-3.07,5.48,3,2.86,4.89,5.27,4.89,8.55a8.86,8.86,0,0,1-4.47,7.26h-.24l-5.87-4.68c3-1.88,4.82-3.91,4.85-6.07A5,5,0,0,0,26,32.38,14.51,14.51,0,0,1,9,29.87c-2.45-2.31-4.89-5.65-4.89-9.74,0-4.5,2.51-9.31,12.18-9.31h3.52c.95,0,1.26-.39,1.26-1.33v-4H2.37Z"/>
    <path class="cls-1" d="M31.05.66,31.54,0h25l2.37,4.78-.49.66h-8a22.5,22.5,0,0,1,.38,4.29c0,7-3.14,10.51-7.6,13,2.89,3.15,7.46,6,12.87,8.55L53.39,37.2h-.53c-7.12-5.31-12.7-10.93-16-17.07a9.13,9.13,0,0,1-1.33-3.59,3.73,3.73,0,0,1,.59-1.95,3.58,3.58,0,0,1,3.28-1.47c1.64,0,3.25,0,4.33.14.77-1,1.29-2.58,1.29-5.16a10.7,10.7,0,0,0-.28-2.66H33.43Z"/>
    <path class="cls-1" d="M55.44.66,55.93,0H89l2.37,4.78-.49.66H84.82l.14,31-.49.35-5.54-1.6.14-7.26a13,13,0,0,1-6.6,1.81c-3.73,0-7.12-1.6-10-5.23-2.17-2.76-2.9-5.09-2.9-7C59.56,12.84,63,9,70.27,9a36.36,36.36,0,0,1,8.8,1.29V5.44H57.82Zm23.7,14.45a23.78,23.78,0,0,0-5.24-.56c-5.69,0-8.65,2.79-8.65,6.14,0,1.89,1.53,3.32,5.13,3.32a10.9,10.9,0,0,0,6.94-2.45,4.08,4.08,0,0,0,1.82-3.45Z"/>
    <path class="cls-1" d="M87.89.66,88.38,0h15.56l2.38,4.78-.49.66H99.76l.14,31-.49.35L93.79,35.1l.14-29.66H90.27Z"/>
    <path class="cls-1" d="M102.83.66l.49-.66h42.25l2.37,4.78-.48.66h-6.08l.14,31-.49.35-5.54-1.6.14-18.74H128.4c1.85,3.17,2.55,5.2,2.55,7.68,0,3.62-2.93,7.46-8.2,7.46-6.42,0-12.28-5.65-17.48-18.56l3.21-1.61c3.7,9.36,7.64,13.61,12.14,13.61a5.54,5.54,0,0,0,5.59-5.23c0-2-2-3.14-6.15-3.7l-2.19-5,.48-.59h17.28v-5H105.2Z"/>
    <path class="cls-1" d="M144.45.66l.49-.66H160.5l2.38,4.78-.49.66h-6.07l.14,31-.49.35-5.62-1.64.14-29.66h-3.66Z"/>
  </g>
</svg>
