<svg id="Layer_1" data-name="Layer 1" xmlns="http://www.w3.org/2000/svg" width="87.83" height="55.37" viewBox="0 0 87.83 55.37">
  <defs>
    <style>
      .cls-1 {
        fill: #191919;
      }
    </style>
  </defs>
  <g>
    <path class="cls-1" d="M0,17.14l.49-.66h44l2.38,4.79-.49.66H28.12V30l.11.07A10.89,10.89,0,0,1,34.17,28,8.28,8.28,0,0,1,40.61,31a10.4,10.4,0,0,1,2.94,7.24A19.64,19.64,0,0,1,39.18,49.7h-.49l-5.22-4c3.05-3.74,5.25-7.8,5.25-10.63,0-1.3-.52-1.93-1.75-1.93-2.52,0-6,2.35-8.81,5.64L28.23,53l-.49.35L22.18,51.7l.14-9.38a7.89,7.89,0,0,1-4.45,1.4,11.1,11.1,0,0,1-6.47-2.45c-4.19-3-5.87-5.63-5.87-13.11,0-2.24,0-4.34.1-6.23H2.38ZM11.65,28.47c0,6.3.21,10,3.81,10,2.66,0,4.65-1.71,6.93-4.34V21.93H11.75C11.68,23.75,11.65,26,11.65,28.47Z"/>
    <path class="cls-1" d="M43.41,17.14l.49-.66H54.78a10.47,10.47,0,0,1,3.49-.63,14.07,14.07,0,0,1,4.38.63h22.8l2.38,4.79-.49.66H81.25l.14,31-.49.35-5.63-1.65.14-29.73H67.82a10.26,10.26,0,0,1,2.56,6.89c0,4.2-3.47,8.19-8.82,11.51C63.48,43,67,45.44,71.25,47.71L68.91,53.8h-.39C65.06,51.94,61.32,48.37,57,42a17.19,17.19,0,0,1-4.54,1c-.95,0-2.35-.91-4.06-3.25a5.37,5.37,0,0,1-1.23-2.69c0-1.51,1.58-3,4.62-3a14.48,14.48,0,0,1,5.53,1.3,7.11,7.11,0,0,0,2.34-1.33c-5.21-3.46-9-6.93-9-10.67a8,8,0,0,1,.14-1.47H45.79ZM61.53,21.2c-3.12,0-5.08,2-5.08,4.65s2.59,4.51,6.13,5.42c1.74-1.78,2.93-3.71,2.93-6.09A3.71,3.71,0,0,0,61.53,21.2Z"/>
    <path class="cls-1" d="M74.9,16.47l0-.14c-3.29-2.9-5.88-5.91-5.88-9.47C69.06,3,72,0,76.72,0a10,10,0,0,1,4.83,1.33,33.9,33.9,0,0,1,2.66,4.83l-.42.52a8.89,8.89,0,0,0-4.1-1.12c-3.21,0-5,1.93-5,4.65a8.08,8.08,0,0,0,3.82,6.26Z"/>
    <path class="cls-1" d="M15.35,45.92l4.73,4.72-4.73,4.73-4.72-4.73Z"/>
  </g>
</svg>
