<svg id="Layer_1" data-name="Layer 1" xmlns="http://www.w3.org/2000/svg" width="135.03" height="53.18" viewBox="0 0 135.03 53.18">
  <defs>
    <style>
      .cls-1 {
        fill: #191919;
      }
    </style>
  </defs>
  <g>
    <path class="cls-1" d="M0,16.92l.49-.66H36.11L38.49,21,38,21.7H31.93l.14,31-.49.35L26,51.4,26.2,39H15c0,4.51-.14,5.1-1.29,5.94a3.05,3.05,0,0,1-1.78.62c-1.15,0-2.86-.94-5.1-3C4.85,40.61,3.7,38.73,3.7,37c0-1.57.84-3.07,5.55-4.08V21.7H2.37ZM14.86,33H26.17V21.7H14.86Z"/>
    <path class="cls-1" d="M78.12,16.92l.49-.66h39.12L120.1,21l-.49.66h-6.07l.14,31-.49.35-5.55-1.6.11-19.58c-5.59,1.57-7,3.81-8.45,8.69h-.48l-4.65-3.18a14.09,14.09,0,0,1,2.59-6,5.75,5.75,0,0,0-2.48-.55c-3.42,0-6.35,3.14-6.35,7.15,0,4.53,3.52,7.36,10.29,9.59L96.51,53l-.45.18c-7.12-3.7-13.75-11.34-13.75-18.67,0-5.79,3.87-9.07,8.48-9.11,3.21,0,5.16,1.29,8.27,3.67a21,21,0,0,1,8.72-3.14V21.7H80.5Z"/>
    <path class="cls-1" d="M116.61,16.92l.49-.66h5.62c-.35-7.12-2.69-11-7.51-11a4.48,4.48,0,0,0-4.85,4.6,7,7,0,0,0,2,4.65l-.52.8L106.56,13a9.65,9.65,0,0,1-2.3-6.14c0-4.08,3.28-6.87,8-6.87,4.12,0,8.13,2.16,11.73,7.08a27.93,27.93,0,0,1,4.15,9.18h4.5L135,21l-.49.66h-6.07l.14,31-.49.35-5.61-1.64.14-29.66H119Z"/>
    <g>
      <path class="cls-1" d="M69,40.71s6,3.56,7.51,6.08c1.21,2.1-2.44,4-2.44,4s1.32-2.34-.09-3.65a60,60,0,0,0-6.37-4.78"/>
      <path class="cls-1" d="M69.57,36.57A11.93,11.93,0,0,1,67.83,40Q64,37,64,33.69a5.53,5.53,0,0,1,1.25-3.6,3.73,3.73,0,0,1,3-1.53,1.85,1.85,0,0,1,1.59.94,5.21,5.21,0,0,1,.63,2.88,12.61,12.61,0,0,1-.9,4.19M59.41,27.23A7.27,7.27,0,0,0,57.65,32q0,5.49,8.73,10.07a15.69,15.69,0,0,1-5.86,4.14,17.74,17.74,0,0,1-7.1,1.7,6,6,0,0,1-3.33-.66,2.21,2.21,0,0,1-.9-1.91A3.13,3.13,0,0,1,51,42.56a13.17,13.17,0,0,1,6.45-1.24l-2.7-6.17h-1a13.64,13.64,0,0,0-3,.34,7,7,0,0,0-2.18.77A7.33,7.33,0,0,1,47.11,35a3,3,0,0,1-.83-1.87,2.89,2.89,0,0,1,1.18-2.43,5,5,0,0,1,3.07-.85V24.32s-1.15-.05-1.89-.05A8.43,8.43,0,0,0,43.09,26,5.41,5.41,0,0,0,41,30.3q0,1.72,2,4.43a14.59,14.59,0,0,0,3.12,3.33,5.51,5.51,0,0,0-2.22,4.43q0,3.46,4.37,6.86a14.41,14.41,0,0,0,8.94,3.4q6.51,0,12.41-5.07C73.89,44,75.1,39.68,76,34.9c1.1-5.74-7.19-16.7-16.6-7.67"/>
      <polygon class="cls-1" points="46.76 29.71 50.53 29.76 50.53 21.27 46.76 21.27 46.76 29.71"/>
      <polygon class="cls-1" points="36.3 16.27 35.81 16.93 38.19 21.71 82.83 21.71 82.83 16.27 36.3 16.27"/>
    </g>
  </g>
</svg>
