<svg id="Layer_1" data-name="Layer 1" xmlns="http://www.w3.org/2000/svg" width="80" height="40" viewBox="0 0 80 40">
  <defs>
    <style>
      .cls-1 {
        fill: #191919;
      }
    </style>
  </defs>
  <g>
    <path class="cls-1" d="M47.38,6.25,45,1.47H.52L0,2.13,2.41,6.91h8.72A26.11,26.11,0,0,1,11.3,9.7a11.13,11.13,0,0,1-1,5.34c-1.19-.07-1.92-.11-2.76-.11a3.8,3.8,0,0,0-2.83.81A3.41,3.41,0,0,0,3.73,18a5.45,5.45,0,0,0,.56,2.06c7.11,16,20,19,30.66,15.27l.09-5.2C27.64,35,14.39,31.35,11.9,23.83A15,15,0,0,0,17,12a45.55,45.55,0,0,0-.28-5.06H35.07v4.47A21.05,21.05,0,0,0,28,10.08c-5.48,0-8.58,3.21-8.58,7.82,0,3,1.57,5.76,4.29,8.31,2.79,2.33,5.44,3.45,8,3.45a7.07,7.07,0,0,0,3.42-.8l-.14,7.74,5.54,1.61.49-.35L40.82,6.91h6.07Zm-12.24,13a4.16,4.16,0,0,1-2,3.83,7.08,7.08,0,0,1-4.26,1.4c-2.58,0-4-1.33-4-3.45,0-3.42,3.73-5.73,7.57-5.73a14.32,14.32,0,0,1,2.62.18Z"/>
    <path class="cls-1" d="M43.92,2.21l.49-.66H77.59L80,6.33,79.48,7H73.41l.14,30.95-.49.35-5.55-1.61.1-18.94H64.79c-5.37,0-7.82.63-9.35,1.78a5.15,5.15,0,0,0-2.2,4.29c0,3.59,2.9,5.69,9.11,9.11l-2.52,5.51-.52.1c-5.79-4.22-11.16-11.68-11.16-18,0-3.73,1.88-8.65,11.44-8.65,2.93,0,5.69.07,8.06.14V7H46.3Z"/>
  </g>
</svg>
