<svg id="Layer_1" data-name="Layer 1" xmlns="http://www.w3.org/2000/svg" width="101.43" height="54.4" viewBox="0 0 101.43 54.4">
  <defs>
    <style>
      .cls-1 {
        fill: #191919;
      }
    </style>
  </defs>
  <g>
    <path class="cls-1" d="M0,18.32l.49-.66H43.2l2.37,4.78-.49.66H27.18v8.37l.11.07a9.81,9.81,0,0,1,5.58-2,8.24,8.24,0,0,1,6.42,3,10.41,10.41,0,0,1,2.93,7.22c0,3.53-1.71,7.57-4.36,11.06h-.49l-5.2-4c3-3.73,5.23-7.61,5.23-10.29,0-1.29-.52-1.89-1.74-1.89-2.51,0-5.58,2.27-8.41,5.55l.07,13.89-.49.35-5.41-1.61.18-7.85-.07,0a9.2,9.2,0,0,1-5.72,1.81c-3.7,0-6.08-1.81-8.55-4.36a11.33,11.33,0,0,1-3.14-7.12c0-5.09,4.08-8.37,9.52-8.37a25.91,25.91,0,0,1,7.92,1.36V23.1H2.37Zm21.63,14.2a16.76,16.76,0,0,0-3.38-.31c-5.83,0-8.52,3-8.52,6.38,0,1.89,1.4,2.79,3.74,2.79,2.69,0,5.48-1.32,8.16-4.11Z"/>
    <path class="cls-1" d="M42.08,18.32l.49-.66h6c-2.55-6.91-4.16-11.1-9.22-11.1a24.29,24.29,0,0,0-6.77,1h-.14L29.83,1a26.92,26.92,0,0,1,7.23-1c7,0,9.59,5.51,15.24,17.66h5.83l2.37,4.78L60,23.1H53.94l.14,30.95-.49.35L48,52.76l.14-29.66H44.45Z"/>
    <path class="cls-1" d="M57,18.32l.49-.66H99.06l2.37,4.78-.49.66H94.87L95,54.05l-.49.35-5.61-1.64.14-29.66h-5.8V34.61c0,8.76-5.34,10.16-8.55,10.16a11.74,11.74,0,0,1-7.88-3.11c-2.3-2.09-4.08-4.57-4.08-10.92,0-2,0-4.4.07-7.64H59.39Zm11.8,4.78c-.07,3.35-.07,6.35-.07,8.76,0,5.79,1.25,7.78,3.56,7.78,2.61,0,5.23-2,5.23-8V23.1Z"/>
  </g>
</svg>
