<svg id="Layer_1" data-name="Layer 1" xmlns="http://www.w3.org/2000/svg" width="100.94" height="49.5" viewBox="0 0 100.94 49.5">
  <defs>
    <style>
      .cls-1 {
        fill: #191919;
      }
    </style>
  </defs>
  <g>
    <path class="cls-1" d="M0,.66.49,0h44.1L47,4.78l-.49.66H40.41l.13,31-.48.35-5.59-1.6.11-10.47c-.39,0-1,.07-1.36.07a8.73,8.73,0,0,1-4.85-1.5l-.14.14a7.38,7.38,0,0,1,.7,3.21c0,3.56-3.49,7-9.08,8.44l0,.18c2.51,2.33,6.63,3.14,11.44,3.17l-2.19,6.53h-.49c-5.13,0-9.39-2.66-12.29-9.28a16.77,16.77,0,0,1-3,.24,5.36,5.36,0,0,1-4.71-2.44A7.09,7.09,0,0,1,7,29.52c0-1,.56-2.51,4.08-2.51a8.44,8.44,0,0,1,6.32,2.65c4-1.29,6.84-4.29,6.84-6.42,0-.49-.25-.7-1-.7-1.54,0-6.25,1.85-9.42,1.85-2.83,0-4.47-1.71-6.63-4.15-1.5-1.89-2.58-3.91-2.58-5.79,0-5.06,4.6-5.76,10.64-5.76h5.62V5.44H2.37ZM26.66,13.47l-.6.73H19.68c-3.8,0-6.77.32-8.2,1.05a2.71,2.71,0,0,0-1.57,2.23c0,.84.49,1.15,1.53,1.15C13.4,18.63,18,17,21,17a5.45,5.45,0,0,1,3.91,1.43,6.27,6.27,0,0,0,3.63.91,10.6,10.6,0,0,0,6.14-1.68V5.44H26.59Z"/>
    <path class="cls-1" d="M43.48.66,44,0H59.53L61.9,4.78l-.49.66H55.34l.14,31-.49.35L49.37,35.1l.14-29.66H45.85Z"/>
    <path class="cls-1" d="M58.41.66,58.9,0H90.65L93,4.78l-.49.66H86.25l.07,8.17-.59.73H80.81a52.67,52.67,0,0,0-5.93.28,5.46,5.46,0,0,0-3.53,1.54,2.87,2.87,0,0,0-.76,1.7c0,.77.73,1.09,1.64,1.09,2.82,0,6.17-1.12,9.14-1.12,3.91,0,5.16,1.67,6.63,4.36a10.44,10.44,0,0,1,1.39,5.1c0,3.8-3.42,8.3-9.66,8.3-6.53,0-13-4.61-18.53-13.75l0-.42,2.44-1.67c4.05,6.73,8.3,9.77,13.19,9.77,5.06,0,7.88-3.42,7.88-5.3,0-.32-.28-.56-1.43-.56-1.74,0-6.84,1.25-9.21,1.25-1.71,0-3.35-1.11-5.58-3.7-1.89-2.23-3-4.32-3-6.35,0-5.09,4.64-6,10.81-6h4.19V5.44H60.78Z"/>
    <path class="cls-1" d="M90.3,45.35l0,.38a6.93,6.93,0,0,1-6.25,3.77c-4.19,0-9.25-4.57-9.25-8.69,0-3.73,3.35-6.28,7.4-6.28,5.24,0,10.29,3.7,18.7,12.21L99.3,49.11h-.42c-5.82-6.35-10.6-9.94-14-9.94-3.18,0-5.34,2-5.34,3.94a1.91,1.91,0,0,0,2,1.92c1.64,0,3.18-1,4.54-3.38Z"/>
  </g>
</svg>
