<svg id="Layer_1" data-name="Layer 1" xmlns="http://www.w3.org/2000/svg" width="88.46" height="47.17" viewBox="0 0 88.46 47.17">
  <defs>
    <style>
      .cls-1 {
        fill: #191919;
      }
    </style>
  </defs>
  <g>
    <path class="cls-1" d="M35.58,1.55,36.06.9H71.33l2.35,4.73-.49.66h-6l.14,30.63-.48.35-5.5-1.59.18-12.3H50.4c0,4.46-.14,5-1.28,5.87a3,3,0,0,1-1.76.63c-1.14,0-2.84-.94-5-3-1.93-1.86-3.07-3.73-3.07-5.49,0-1.56.83-3,5.49-4v-11h-6.8Zm14.71,16H61.48V6.29H50.29Z"/>
    <path class="cls-1" d="M70.22,1.55,70.71.9h15.4l2.35,4.73L88,6.29H82l.14,30.63-.48.35-5.56-1.63L76.2,6.29H72.57Z"/>
    <path class="cls-1" d="M41.15.85H19.66a.58.58,0,0,0-.52.83l2,4.11a.59.59,0,0,0,.52.33h6V13a.58.58,0,0,1-.19.44,7.62,7.62,0,0,1-4,2.29,29.06,29.06,0,0,1-7.14.16c4-3.81,1.19-10.76-1.29-13C13.8,1.46,11.3,0,7.26,0S.94,3,1,6.52c0,2.77,2.27,6,5.69,8.57-4.29,2.22-6.27,5.69-6.59,8-.56,4,1.2,13.19,13.29,13.19a13.7,13.7,0,0,0,3.41-.4c.1.17.19.3.23.36l.05.1,3.39,8.53a.61.61,0,0,0,.34.33L26,47.13a.57.57,0,0,0,.72-.78L21,33.59a6.35,6.35,0,0,0,1.86-3.69c0-.9-.31-6.87-5.77-6.87a4.39,4.39,0,0,0-4.37,3.81,9.9,9.9,0,0,0,1.07,3.56,8.52,8.52,0,0,1-3,.5c-3.52,0-4.57-2.2-4.47-4.81.09-2.23,2.19-4.9,6.42-7.78a30.43,30.43,0,0,0,11.54,2.06,12.48,12.48,0,0,0,3.13-.51.18.18,0,0,1,.23.18V35.18a.07.07,0,0,0,0,0l4.47,1.53a.57.57,0,0,0,.76-.54v-30l8.26,0a.58.58,0,0,0,.57-.57V1.43A.58.58,0,0,0,41.15.85ZM11,5.32c2.76,0,3.31,1.8,3.31,3.08,0,1.11-1.13,3.28-4.7,5.24C7.59,12.3,6.33,10.58,6.36,8.93,6.41,6.57,8.27,5.32,11,5.32Z"/>
  </g>
</svg>
