<svg id="Layer_1" data-name="Layer 1" xmlns="http://www.w3.org/2000/svg" width="108.06" height="49.86" viewBox="0 0 108.06 49.86">
  <defs>
    <style>
      .cls-1 {
        fill: #191919;
      }
    </style>
  </defs>
  <g>
    <path class="cls-1" d="M0,13.61.49,13H32.9l2.38,4.78-.49.66H28.72l.14,31-.49.35-5.55-1.61L23,38.73a9.14,9.14,0,0,1-4.78,1.4,11.87,11.87,0,0,1-6.81-2.45c-4.18-3-5.86-5.61-5.86-13.08,0-2.23,0-4.33.11-6.21H2.37Zm23,4.78H11.72c-.07,1.81-.1,4.05-.1,6.52,0,6.28.21,9.88,3.84,9.88a8.92,8.92,0,0,0,5.41-2.24A5.68,5.68,0,0,0,23,27.91Z"/>
    <path class="cls-1" d="M31.79,13.61l.49-.66H71.39l2.37,4.78-.49.66H67.2l.14,31-.49.35-5.54-1.61.1-19.57c-5.58,1.57-7,3.8-8.44,8.69h-.49L47.84,34a13.91,13.91,0,0,1,2.58-6,5.57,5.57,0,0,0-2.48-.56c-3.42,0-6.35,3.14-6.35,7.15,0,4.54,3.53,7.37,10.29,9.6l-1.7,5.48-.46.17C42.6,46.16,36,38.52,36,31.19c0-5.79,3.88-9.07,8.48-9.1,3.21,0,5.17,1.29,8.27,3.66a21.2,21.2,0,0,1,8.73-3.14V18.39H34.16Z"/>
    <path class="cls-1" d="M63.36,0l4.78,4.78L63.36,9.56,58.58,4.78Z"/>
    <path class="cls-1" d="M70.27,13.61l.49-.66h34.93l2.37,4.78-.49.66H101.5l.14,31-.49.35-5.61-1.64.13-29.66H85.49c.31,3.59.42,6.63.42,9.17,0,5.52-.6,8.66-1.85,10.86a3.73,3.73,0,0,1-3.14,1.92c-1.12,0-2.62-1-4.4-2.9-1.57-1.71-2.65-3.39-2.65-4.82a3.07,3.07,0,0,1,.73-2c.77-.91,2.58-1.33,5.44-1.68a34.44,34.44,0,0,0,.25-4.71,46.39,46.39,0,0,0-.35-5.79H72.65Z"/>
  </g>
</svg>
