<svg id="Layer_1" data-name="Layer 1" xmlns="http://www.w3.org/2000/svg" width="111.23" height="46.97" viewBox="0 0 111.23 46.97">
  <defs>
    <style>
      .cls-1 {
        fill: #191919;
      }
    </style>
  </defs>
  <g>
    <path class="cls-1" d="M0,.66.49,0H32.9l2.38,4.78-.49.66H28.72l.14,31-.49.35-5.55-1.6L23,25.79a9.12,9.12,0,0,1-4.78,1.39,11.93,11.93,0,0,1-6.81-2.44c-4.18-3-5.86-5.62-5.86-13.09,0-2.23,0-4.32.11-6.21H2.37ZM23,5.44H11.72c-.07,1.82-.1,4.05-.1,6.53,0,6.28.21,9.87,3.84,9.87a8.9,8.9,0,0,0,5.41-2.23A5.7,5.7,0,0,0,23,15Z"/>
    <path class="cls-1" d="M31.79.66,32.28,0H63.33L65.7,4.78l-.49.66H59l0,8.87-.63.69c-2.13-.1-3.94-.1-6.07-.1a35.52,35.52,0,0,0-5.27.31c-3.21.49-5.3,2.2-5.3,4.23a4,4,0,0,0,.9,2.79,15.36,15.36,0,0,1,9.95-3.67,8.64,8.64,0,0,1,8.3,4.82,11.84,11.84,0,0,1,1.54,5.34c0,3.28-2.13,5.72-6.42,7.67l-4.68-5c4.61-2.23,7.12-4.18,7.12-5.82,0-.56-.73-1.23-3-1.23-4.26,0-10.75,2.87-10.75,8,0,5.27,7.05,8,18.6,9l-2.62,5.65-.28,0c-12-3-21.32-9-21.32-17.42A8.9,8.9,0,0,1,40.44,25c-2.72-2.86-4.33-5.48-4.33-8.41,0-3.18,2.45-6.35,7.23-6.84a93.34,93.34,0,0,1,9.91-.31V5.44H34.16Z"/>
    <path class="cls-1" d="M62.21.66,62.7,0H78.26l2.38,4.78-.49.66H74.08l.14,31-.49.35L68.11,35.1l.14-29.66H64.59Z"/>
    <path class="cls-1" d="M76.62.66,77.1,0h31.76l2.37,4.78-.49.66h-6.28l.07,8.17-.59.73H99a52.85,52.85,0,0,0-5.94.28,5.43,5.43,0,0,0-3.52,1.54,2.83,2.83,0,0,0-.77,1.7c0,.77.74,1.09,1.64,1.09,2.83,0,6.18-1.12,9.14-1.12,3.91,0,5.17,1.67,6.63,4.36a10.36,10.36,0,0,1,1.4,5.1c0,3.8-3.42,8.3-9.67,8.3-6.52,0-13-4.61-18.52-13.75l0-.42,2.44-1.67c4.05,6.73,8.31,9.77,13.19,9.77,5.06,0,7.89-3.42,7.89-5.3,0-.32-.28-.56-1.43-.56-1.75,0-6.84,1.25-9.21,1.25-1.71,0-3.35-1.11-5.59-3.7-1.88-2.23-3-4.32-3-6.35,0-5.09,4.64-6,10.82-6h4.19V5.44H79Z"/>
    <path class="cls-1" d="M100.31,37.37,105,42.08l-4.71,4.71L95.6,42.08Z"/>
  </g>
</svg>
