<svg id="Layer_1" data-name="Layer 1" xmlns="http://www.w3.org/2000/svg" width="106.74" height="53" viewBox="0 0 106.74 53">
  <defs>
    <style>
      .cls-1 {
        fill: #191919;
      }
    </style>
  </defs>
  <g>
    <path class="cls-1" d="M0,16.92l.49-.66H33.57L35.94,21l-.49.66H29.38l.14,31L29,53l-5.55-1.6.14-7.26A12.91,12.91,0,0,1,17,46c-3.74,0-7.12-1.6-10-5.23-2.16-2.76-2.89-5.09-2.89-7,0-4.61,3.45-8.45,10.71-8.45a36.35,36.35,0,0,1,8.79,1.29V21.7H2.37ZM23.69,31.37a23.76,23.76,0,0,0-5.23-.56C12.77,30.81,9.8,33.6,9.8,37c0,1.89,1.54,3.32,5.13,3.32a10.92,10.92,0,0,0,7-2.45,4.07,4.07,0,0,0,1.81-3.45Z"/>
    <path class="cls-1" d="M32.45,16.92l.49-.66h5.62c-.35-7.12-2.69-11-7.51-11a4.48,4.48,0,0,0-4.85,4.6,7,7,0,0,0,2,4.65l-.52.8L22.4,13a9.65,9.65,0,0,1-2.3-6.14c0-4.08,3.28-6.87,8-6.87,4.12,0,8.13,2.16,11.73,7.08A27.93,27.93,0,0,1,44,16.26h4.5L50.87,21l-.49.66H44.31l.14,31L44,53l-5.61-1.64.14-29.66H34.82Z"/>
    <path class="cls-1" d="M47.38,16.92l.49-.66H89.43L91.8,21l-.49.66H85.24l.14,31-.49.35-5.61-1.64.14-29.66h-5.8V33.22c0,8.76-5.34,10.15-8.55,10.15a11.78,11.78,0,0,1-7.88-3.1c-2.3-2.1-4.08-4.58-4.08-10.93,0-2,0-4.39.07-7.64H49.76Zm11.8,4.78c-.07,3.35-.07,6.35-.07,8.76,0,5.79,1.25,7.78,3.56,7.78,2.61,0,5.23-2,5.23-8V21.7Z"/>
    <path class="cls-1" d="M88.31,16.92l.49-.66h15.56L106.74,21l-.49.66h-6.07l.14,31-.49.35-5.62-1.64.14-29.66H90.69Z"/>
  </g>
</svg>
