<svg id="Layer_1" data-name="Layer 1" xmlns="http://www.w3.org/2000/svg" width="117.34" height="53.46" viewBox="0 0 117.34 53.46">
  <defs>
    <style>
      .cls-1 {
        fill: #191919;
      }
    </style>
  </defs>
  <g>
    <path class="cls-1" d="M0,16.92l.49-.66H33.57L35.94,21l-.49.66H29.38l.14,31L29,53l-5.55-1.6.14-7.26A12.91,12.91,0,0,1,17,46c-3.74,0-7.12-1.6-10-5.23-2.16-2.76-2.89-5.09-2.89-7,0-4.61,3.45-8.45,10.71-8.45a36.35,36.35,0,0,1,8.79,1.29V21.7H2.37Zm12.63,15a5.57,5.57,0,0,0-3,4.92c0,1.92,1.78,3.7,5.41,3.7a11.94,11.94,0,0,0,3.17-.42Zm8.41,7c2-1.33,2.65-2.62,2.65-4.26V31.16a23.76,23.76,0,0,0-5.23-.56,17,17,0,0,0-2.79.21Z"/>
    <path class="cls-1" d="M32.45,16.92l.49-.66H75.65L78,21l-.49.66H59.63v8.38l.11.07a9.75,9.75,0,0,1,5.58-2,8.24,8.24,0,0,1,6.42,3,10.41,10.41,0,0,1,2.93,7.23c0,3.52-1.71,7.57-4.36,11.06h-.49l-5.2-4c3-3.73,5.23-7.6,5.23-10.29,0-1.29-.52-1.88-1.74-1.88-2.51,0-5.58,2.27-8.41,5.55l.07,13.88-.49.35-5.41-1.6.18-7.85-.07,0a9.15,9.15,0,0,1-5.72,1.82c-3.7,0-6.08-1.82-8.55-4.37a11.31,11.31,0,0,1-3.14-7.11c0-5.1,4.08-8.38,9.52-8.38A25.91,25.91,0,0,1,54,26.83V21.7H34.82Zm21.63,14.2a16.83,16.83,0,0,0-3.38-.31c-5.83,0-8.52,3-8.52,6.39,0,1.88,1.4,2.79,3.74,2.79,2.69,0,5.48-1.33,8.16-4.12Z"/>
    <path class="cls-1" d="M74.53,16.92l.49-.66h25L102.41,21l-.49.66h-8A23.34,23.34,0,0,1,94.28,26c0,7-3.14,10.51-7.61,13,2.9,3.15,7.47,6,12.88,8.55l-2.69,5.94h-.52c-7.12-5.31-12.7-10.93-16-17.07A9.07,9.07,0,0,1,79,32.8a3.79,3.79,0,0,1,.59-2,3.57,3.57,0,0,1,3.28-1.46c1.64,0,3.24,0,4.33.14.76-1,1.29-2.58,1.29-5.17a10.67,10.67,0,0,0-.28-2.65H76.9Z"/>
    <path class="cls-1" d="M98.92,16.92l.49-.66H105c-.35-7.12-2.69-11-7.51-11a4.48,4.48,0,0,0-4.85,4.6,7,7,0,0,0,2,4.65l-.52.8L88.87,13a9.65,9.65,0,0,1-2.3-6.14c0-4.08,3.28-6.87,8-6.87,4.12,0,8.13,2.16,11.73,7.08a27.93,27.93,0,0,1,4.15,9.18H115L117.34,21l-.49.66h-6.07l.14,31-.49.35-5.61-1.64L105,21.7h-3.67Z"/>
  </g>
</svg>
