<svg id="Layer_1" data-name="Layer 1" xmlns="http://www.w3.org/2000/svg" width="127.39" height="50.16" viewBox="0 0 127.39 50.16">
  <defs>
    <style>
      .cls-1 {
        fill: #191919;
      }
    </style>
  </defs>
  <g>
    <path class="cls-1" d="M0,.66.49,0H42.74l2.38,4.78-.49.66H38.56l.14,31-.49.35-5.55-1.6L32.8,16.4H25.58c1.85,3.17,2.54,5.2,2.54,7.68,0,3.62-2.93,7.46-8.2,7.46C13.5,31.54,7.64,25.89,2.44,13l3.21-1.61C9.35,20.73,13.29,25,17.8,25a5.54,5.54,0,0,0,5.58-5.23c0-2-2-3.14-6.14-3.7l-2.2-5,.49-.59H32.8v-5H2.37Z"/>
    <path class="cls-1" d="M41.63.66,42.12,0H57.68l2.37,4.78-.49.66H53.49l.14,31-.49.35L47.52,35.1l.14-29.66H44Z"/>
    <path class="cls-1" d="M56.56.66,57.05,0H92.67l2.38,4.78-.49.66H88.49l.14,31-.49.35-5.55-1.6.17-12.43H71.53c0,4.51-.14,5.1-1.29,5.94a3.05,3.05,0,0,1-1.78.62c-1.15,0-2.86-.94-5.1-3-2-1.89-3.1-3.77-3.1-5.55,0-1.57.84-3.07,5.55-4.08V5.44H58.93ZM71.42,16.78H82.73V5.44H71.42Z"/>
    <path class="cls-1" d="M69,35.58h.42c5,6.56,9.21,9.7,13.09,9.7,2.89,0,5.72-1.89,5.72-4.33,0-.59-.49-1.36-2-1.36a8.64,8.64,0,0,0-4.85,2H81l-2.9-4.88a11,11,0,0,1,6-2.37c2.51,0,4.78,1.36,6.59,4.81a9.78,9.78,0,0,1,1.26,4.54c0,3.52-3,6.45-7.54,6.45C79.1,50.16,73.59,46,67.31,37.5Z"/>
    <path class="cls-1" d="M91.56.66,92.05,0h33l2.37,4.78-.49.66h-6.07l.14,31-.49.35-5.54-1.6.17-16.54c-1.64-.14-2.86-.18-4.5-.18a20,20,0,0,0-5.1.53,33.15,33.15,0,0,1,.32,3.83,3.25,3.25,0,0,1-1,2.8,3.21,3.21,0,0,1-2.06.76c-1.22,0-2.79-1-4.78-3.07s-2.93-3.87-2.93-5.34c0-.9.53-5.54,9.7-5.54a76.83,76.83,0,0,1,10.3.83V5.44H93.93Z"/>
  </g>
</svg>
