<svg id="Layer_1" data-name="Layer 1" xmlns="http://www.w3.org/2000/svg" width="134.77" height="64.5" viewBox="0 0 134.77 64.5">
  <defs>
    <style>
      .cls-1 {
        fill: #191919;
      }
    </style>
  </defs>
  <g>
    <path class="cls-1" d="M19.77,18.33l.49-.66H38.31l2.38,4.79-.49.66H34.12l.14,31-.49.34-5.55-1.6.17-12.57A71.57,71.57,0,0,0,18,40.86c-1,3.63-2.41,5.59-4.23,5.59-1.43,0-3.1-1-5-3-1.61-1.67-2.58-3.31-2.58-4.82,0-2.16,2.16-3.45,6.46-4.12a42.3,42.3,0,0,0,.31-7c0-5.06-.8-7.4-3.35-7.4a3.48,3.48,0,0,0-3.32,3.56c0,2.2,1.5,3.8,4,5.1l-.77,1.5A39.22,39.22,0,0,1,4,28.67,8.73,8.73,0,0,1,0,21.79a6.43,6.43,0,0,1,6.71-6.32c2.34,0,4.81,1,7.36,3.21,3.08,2.66,4.68,5.07,4.68,11.28,0,1.54,0,3.08-.1,4.61,3.32,0,6.32,0,9.64.25V23.12H22.14Z"/>
    <path class="cls-1" d="M29.72,18.37C27,11,25.49,6.57,20.26,6.57a24.33,24.33,0,0,0-6.78,1h-.14L10.69,1a26.92,26.92,0,0,1,7.23-1C25,0,27.55,5.62,33.35,18l-.24.35Z"/>
    <path class="cls-1" d="M83.29,18.33l.49-.66h33.67l2.37,4.79-.49.66h-6.08l.14,31-.48.34-5.56-1.6.14-8.1a10.22,10.22,0,0,1-5.62,1.46c-6.91,0-12.05-5-15.51-14.66l.39-.67c5-1.12,8.38-2.51,8.38-5.34a3.77,3.77,0,0,0-.87-2.41H85.67Zm24.27,4.79h-9a13.32,13.32,0,0,1,2,6.22c0,3.38-2.93,5.41-7.85,6.56.73,2.86,3,4.44,6.84,4.44a10,10,0,0,0,6.22-2.13,5,5,0,0,0,1.81-4.16Z"/>
    <path class="cls-1" d="M116.33,18.33l.49-.66h15.57l2.38,4.79-.49.66H128.2l.14,31-.49.34-5.62-1.64.14-29.68H118.7Z"/>
    <path class="cls-1" d="M37.23,18.33l.49-.66h6.6c-1.71-2.06-2.65-3.91-2.65-6,0-4.75,3.95-9.88,12.08-9.88,7.06,0,14.74,3.73,23.4,12.29l-1.47,2.3h-.45C69.54,11,63.67,7.61,57.42,7.61s-10,3.67-10,7.83A4.91,4.91,0,0,0,48,17.67H53.3l2.37,4.79-.49.66H49.11l.14,31-.49.34L43.14,52.8l.14-29.68H39.61Z"/>
    <path class="cls-1" d="M51.92,18.33l.48-.66H84.18l2.38,4.79-.49.66H79.78l.07,8.17-.59.73H74.34a52.85,52.85,0,0,0-5.94.28,5.46,5.46,0,0,0-3.53,1.54,2.85,2.85,0,0,0-.77,1.71c0,.77.74,1.08,1.65,1.08,2.82,0,6.18-1.11,9.14-1.11,3.92,0,5.17,1.67,6.64,4.36a10.47,10.47,0,0,1,1.4,5.1c0,3.81-3.43,8.31-9.68,8.31-6.53,0-13-4.61-18.54-13.76l0-.42,2.45-1.67c4.05,6.74,8.31,9.78,13.2,9.78,5.06,0,7.89-3.43,7.89-5.31,0-.32-.28-.56-1.43-.56-1.75,0-6.84,1.26-9.22,1.26-1.71,0-3.35-1.12-5.59-3.71-1.88-2.23-3-4.33-3-6.35,0-5.1,4.64-6,10.83-6h4.19V23.12H54.29Z"/>
    <path class="cls-1" d="M75.63,55.07l4.71,4.72L75.63,64.5l-4.72-4.71Z"/>
  </g>
</svg>
