<svg id="Layer_1" data-name="Layer 1" xmlns="http://www.w3.org/2000/svg" width="139.05" height="53" viewBox="0 0 139.05 53">
  <defs>
    <style>
      .cls-1 {
        fill: #191919;
      }
    </style>
  </defs>
  <g>
    <path class="cls-1" d="M0,16.92l.49-.66H33.57L35.94,21l-.49.66H29.38l.14,31L29,53l-5.55-1.6.14-7.26A12.91,12.91,0,0,1,17,46c-3.74,0-7.12-1.6-10-5.23-2.16-2.76-2.89-5.09-2.89-7,0-4.61,3.45-8.45,10.71-8.45a36.35,36.35,0,0,1,8.79,1.29V21.7H2.37Zm12.63,15a5.57,5.57,0,0,0-3,4.92c0,1.92,1.78,3.7,5.41,3.7a11.94,11.94,0,0,0,3.17-.42Zm8.41,7c2-1.33,2.65-2.62,2.65-4.26V31.16a23.76,23.76,0,0,0-5.23-.56,17,17,0,0,0-2.79.21Z"/>
    <path class="cls-1" d="M32.45,16.92l.49-.66H67.87L70.24,21l-.49.66H63.68l.14,31-.49.35-5.62-1.64.14-29.66H47.66c.32,3.6.42,6.63.42,9.18,0,5.51-.59,8.65-1.85,10.85a3.72,3.72,0,0,1-3.14,1.92c-1.11,0-2.61-1-4.39-2.9C37.13,39,36,37.37,36,35.94a3.1,3.1,0,0,1,.74-2.06c.76-.91,2.58-1.33,5.44-1.67a34.55,34.55,0,0,0,.24-4.71,46.67,46.67,0,0,0-.34-5.8h-7.3Z"/>
    <path class="cls-1" d="M66.75,16.92l.49-.66h5.62c-.35-7.12-2.69-11-7.51-11a4.48,4.48,0,0,0-4.85,4.6,7,7,0,0,0,2,4.65l-.52.8L56.7,13a9.65,9.65,0,0,1-2.3-6.14c0-4.08,3.28-6.87,8-6.87,4.12,0,8.13,2.16,11.73,7.08a27.93,27.93,0,0,1,4.15,9.18h4.5L85.17,21l-.49.66H78.61l.14,31-.49.35-5.61-1.64.14-29.66H69.12Z"/>
    <path class="cls-1" d="M81.68,16.92l.49-.66h39.57L124.11,21l-.49.66h-6.07l.14,31-.49.35-5.54-1.6.14-7.4a10.74,10.74,0,0,1-6.67,2.13c-3.1,0-6.45-1.08-9.77-4.68C93.09,39,91.8,36.71,91.8,33.74a5.82,5.82,0,0,1,.35-2.16H87.68l-2.4-4.92L85.8,26h22.82v5l-.38.42h-4.68c-3.73,0-5.76,2.2-5.76,5.2,0,2.72,2.13,3.91,4.33,3.91a10.91,10.91,0,0,0,7.36-2.76,6.62,6.62,0,0,0,2.27-5.37V21.7H84.06Z"/>
    <path class="cls-1" d="M120.62,16.92l.49-.66h15.56L139.05,21l-.49.66h-6.07l.14,31-.49.35-5.62-1.64.14-29.66H123Z"/>
  </g>
</svg>
