<svg id="Layer_1" data-name="Layer 1" xmlns="http://www.w3.org/2000/svg" width="100.66" height="62.44" viewBox="0 0 100.66 62.44">
  <defs>
    <style>
      .cls-1 {
        fill: #191919;
      }
    </style>
  </defs>
  <g>
    <path class="cls-1" d="M0,13.61.49,13H39.6L42,17.73l-.49.66H35.42l.14,31-.49.35-5.55-1.61.1-19.57c-5.58,1.57-7,3.8-8.44,8.69h-.49L16.05,34a14,14,0,0,1,2.58-6,5.53,5.53,0,0,0-2.47-.56c-3.42,0-6.36,3.14-6.36,7.15,0,4.54,3.53,7.37,10.3,9.6l-1.71,5.48-.46.17C10.82,46.16,4.19,38.52,4.19,31.19c0-5.79,3.87-9.07,8.48-9.1,3.21,0,5.16,1.29,8.27,3.66a21.09,21.09,0,0,1,8.72-3.14V18.39H2.37Z"/>
    <path class="cls-1" d="M31.58,0l4.78,4.78L31.58,9.56,26.8,4.78Z"/>
    <path class="cls-1" d="M38.49,13.61,39,13H73.9l2.37,4.78-.48.66H69.71l.14,31-.48.35-5.62-1.64.14-29.66H53.7c.31,3.59.42,6.63.42,9.17,0,5.52-.6,8.66-1.85,10.86a3.73,3.73,0,0,1-3.14,1.92c-1.12,0-2.62-1-4.4-2.9-1.57-1.71-2.65-3.39-2.65-4.82a3.07,3.07,0,0,1,.73-2c.77-.91,2.58-1.33,5.45-1.68a34.46,34.46,0,0,0,.24-4.71,44.56,44.56,0,0,0-.35-5.79H40.86Z"/>
    <path class="cls-1" d="M73.55,58.29l0,.39a6.92,6.92,0,0,1-6.25,3.76c-4.18,0-9.24-4.57-9.24-8.68,0-3.74,3.35-6.29,7.39-6.29,5.24,0,10.3,3.7,18.71,12.22l-1.64,2.37h-.42c-5.83-6.35-10.61-9.94-14-9.94-3.18,0-5.34,2-5.34,3.94a1.92,1.92,0,0,0,2,1.92c1.64,0,3.17-1,4.53-3.39Z"/>
    <path class="cls-1" d="M72.79,13.61l.48-.66h25l2.37,4.78-.48.66h-8a22.43,22.43,0,0,1,.38,4.29c0,7-3.14,10.5-7.6,13,2.89,3.14,7.46,6,12.87,8.55l-2.68,5.93h-.53c-7.11-5.3-12.7-10.92-16-17.06a9.11,9.11,0,0,1-1.33-3.6,3.78,3.78,0,0,1,.59-1.95,3.6,3.6,0,0,1,3.28-1.47c1.64,0,3.25,0,4.33.14.77-1,1.29-2.58,1.29-5.16a10.62,10.62,0,0,0-.28-2.65H75.16Z"/>
  </g>
</svg>
