<svg id="Layer_1" data-name="Layer 1" xmlns="http://www.w3.org/2000/svg" width="82.21" height="53" viewBox="0 0 82.21 53">
  <defs>
    <style>
      .cls-1 {
        fill: #191919;
      }
    </style>
  </defs>
  <g>
    <path class="cls-1" d="M0,16.92l.49-.66H33.78L36.15,21l-.49.66H27l.07,8c3.87,3.84,5.4,6.42,5.4,10.09,0,5.86-5.58,11.2-13.25,11.2-7.82,0-15.15-7.5-15.15-14.1,0-5.83,4.22-9.66,13-9.66h2.83c1,0,1.39-.21,1.39-1.33l0-4.19H2.37Zm25.26,15.6H22.44c-5.31,0-8.24.77-10.3,2.55a6.24,6.24,0,0,0-2,4.6c0,4,2.82,5.9,6.31,5.9,5.73,0,10.51-4.26,10.51-8.9A5.66,5.66,0,0,0,25.26,32.52Z"/>
    <path class="cls-1" d="M25.75,3.31,30.53,8.1l-4.78,4.78L21,8.1Z"/>
    <path class="cls-1" d="M32.66,16.92l.49-.66H64.9L67.27,21l-.49.66H60.5l.07,8.17L60,30.6H55.06a52.67,52.67,0,0,0-5.93.28,5.46,5.46,0,0,0-3.53,1.54,2.87,2.87,0,0,0-.76,1.7c0,.77.73,1.09,1.64,1.09,2.82,0,6.17-1.12,9.14-1.12,3.91,0,5.16,1.67,6.63,4.36a10.44,10.44,0,0,1,1.39,5.1c0,3.8-3.42,8.3-9.66,8.3-6.53,0-13-4.61-18.53-13.75l0-.42L37.93,36c4,6.73,8.3,9.77,13.19,9.77,5.06,0,7.88-3.42,7.88-5.3,0-.32-.28-.56-1.43-.56-1.74,0-6.84,1.25-9.21,1.25-1.71,0-3.35-1.11-5.58-3.7-1.89-2.23-3-4.32-3-6.35,0-5.09,4.64-6,10.81-6h4.19V21.7H35Z"/>
    <path class="cls-1" d="M63.78,16.92l.49-.66h5.62c-.35-7.12-2.69-11-7.5-11-3,0-4.85,1.92-4.85,4.6a7,7,0,0,0,2,4.65l-.53.8L53.73,13a9.65,9.65,0,0,1-2.3-6.14c0-4.08,3.28-6.87,8-6.87,4.11,0,8.13,2.16,11.72,7.08a27.72,27.72,0,0,1,4.15,9.18h4.5L82.21,21l-.49.66H75.65l.14,31L75.3,53l-5.62-1.64.14-29.66H66.16Z"/>
  </g>
</svg>
