<svg id="Layer_1" data-name="Layer 1" xmlns="http://www.w3.org/2000/svg" width="90.58" height="39.02" viewBox="0 0 90.58 39.02">
  <defs>
    <style>
      .cls-1 {
        fill: #191919;
      }
    </style>
  </defs>
  <g>
    <path class="cls-1" d="M0,.78.49.11H33.57l2.37,4.78-.49.67H29.38l.14,31-.49.35-5.55-1.61L23.62,28A12.93,12.93,0,0,1,17,29.81c-3.74,0-7.12-1.61-10-5.24-2.16-2.75-2.89-5.09-2.89-7,0-4.61,3.45-8.44,10.71-8.44a35.86,35.86,0,0,1,8.79,1.29V5.56H2.37ZM23.69,15.22a23.76,23.76,0,0,0-5.23-.56c-5.69,0-8.66,2.8-8.66,6.15,0,1.88,1.54,3.31,5.13,3.31a10.91,10.91,0,0,0,7-2.44,4.07,4.07,0,0,0,1.81-3.46Z"/>
    <path class="cls-1" d="M47.85,5.56a39.41,39.41,0,0,1,.74,7.6,28,28,0,0,1-.18,3.6,19.72,19.72,0,0,0,5.62.56c4.27-.43,4.57-1.44,6.25-1.86l0,6.53c-1.18.35-2,1.27-4.68,1.43a17.91,17.91,0,0,1-8.16-1.88,18.32,18.32,0,0,1-3.94,3.63c2.75,2.82,7,5.48,12.31,8L53.23,39H52.7c-5.82-4.43-10.85-9.18-14.27-14.38-1.78-2.68-2.58-4.78-2.58-6.17a3.41,3.41,0,0,1,3.56-3.67c.77,0,2.13.11,2.93.21a17.35,17.35,0,0,0,.52-4.6,24.57,24.57,0,0,0-.45-4.85H34.63L32.26.78l.49-.67H70.22l2.37,4.78-.49.67"/>
    <path class="cls-1" d="M51,.67,51.47,0H88.2l2.38,4.81-.49.67H84l.14,31.14-.49.35-5.58-1.61.21-14.15-.17-.14L62.22,35l-3.86-5.11v-.39L75.07,15.76l0-.21s-6.89-2.82-10-1.05c-1.32.76-4.77,7.49-4.77,7.49l-3.4-5.18s2.29-7.44,9.87-7.44a64.83,64.83,0,0,1,11.41,1.16v-5H53.37Z"/>
  </g>
</svg>
