<svg id="Layer_1" data-name="Layer 1" xmlns="http://www.w3.org/2000/svg" width="88.17" height="50.18" viewBox="0 0 88.17 50.18">
  <defs>
    <style>
      .cls-1 {
        fill: #191919;
      }
    </style>
  </defs>
  <g>
    <path class="cls-1" d="M0,13.61.49,13H11.34a10.51,10.51,0,0,1,3.49-.63,13.94,13.94,0,0,1,4.36.63H41.94l2.37,4.78-.49.66H37.75l.14,31-.49.35-5.61-1.64.14-29.66H24.35a10.2,10.2,0,0,1,2.55,6.87c0,4.19-3.45,8.17-8.79,11.48,1.92,2.62,5.37,5.1,9.66,7.36l-2.33,6.08h-.39c-3.45-1.85-7.19-5.41-11.48-11.73a17.13,17.13,0,0,1-4.53,1c-.94,0-2.34-.91-4-3.25A5.39,5.39,0,0,1,3.77,33.5c0-1.5,1.57-3,4.6-3a14.42,14.42,0,0,1,5.52,1.29,7.23,7.23,0,0,0,2.33-1.32C11,27,7.29,23.59,7.29,19.85a8.92,8.92,0,0,1,.14-1.46H2.37Zm18.07,4.05c-3.1,0-5.06,2-5.06,4.64s2.59,4.5,6.11,5.4c1.75-1.77,2.93-3.69,2.93-6.07A3.69,3.69,0,0,0,18.07,17.66Z"/>
    <path class="cls-1" d="M33.92,0,38.7,4.78,33.92,9.56,29.14,4.78Z"/>
    <path class="cls-1" d="M88.17,17.66,85.8,12.87H41.31l-.49.67,2.38,4.78h8.72a26.11,26.11,0,0,1,.17,2.79,11,11,0,0,1-1,5.34c-1.19-.07-1.92-.11-2.76-.11a3.82,3.82,0,0,0-2.83.81,3.41,3.41,0,0,0-.94,2.3,5.45,5.45,0,0,0,.56,2.06c7.11,16,20,19,30.66,15.27l.09-5.2c-7.39,4.85-20.65,1.18-23.14-6.34a15,15,0,0,0,5.09-11.86,45.55,45.55,0,0,0-.28-5.06H75.86v4.46a21.28,21.28,0,0,0-7.09-1.29c-5.48,0-8.58,3.21-8.58,7.82,0,3,1.57,5.76,4.29,8.3,2.79,2.34,5.44,3.46,8,3.46a7.18,7.18,0,0,0,3.42-.8L75.72,48l5.54,1.61.49-.35-.14-30.95h6.07Zm-12.24,13a4.17,4.17,0,0,1-2,3.83,7.07,7.07,0,0,1-4.25,1.4c-2.59,0-4-1.33-4-3.45,0-3.42,3.73-5.73,7.57-5.73a14.32,14.32,0,0,1,2.62.18Z"/>
  </g>
</svg>
