<svg id="Layer_1" data-name="Layer 1" xmlns="http://www.w3.org/2000/svg" width="80.67" height="49.69" viewBox="0 0 80.67 49.69">
  <defs>
    <style>
      .cls-1 {
        fill: #191919;
      }
    </style>
  </defs>
  <g>
    <path class="cls-1" d="M0,13.61.49,13H32.24l2.37,4.78-.49.66H27.84l.07,8.16-.59.74H22.4a55.24,55.24,0,0,0-5.93.27A5.41,5.41,0,0,0,13,29.1a2.85,2.85,0,0,0-.77,1.71c0,.77.73,1.08,1.64,1.08,2.82,0,6.17-1.11,9.14-1.11,3.91,0,5.16,1.67,6.63,4.36A10.41,10.41,0,0,1,31,40.23c0,3.8-3.42,8.31-9.66,8.31-6.53,0-13-4.61-18.53-13.75l0-.42,2.44-1.68c4.05,6.74,8.3,9.77,13.19,9.77,5.06,0,7.88-3.42,7.88-5.3,0-.31-.28-.56-1.43-.56-1.74,0-6.84,1.26-9.21,1.26-1.71,0-3.35-1.12-5.58-3.7-1.89-2.23-3-4.33-3-6.35,0-5.1,4.64-6,10.81-6h4.19V18.39H2.37Z"/>
    <path class="cls-1" d="M24.22,0,29,4.78,24.22,9.56,19.44,4.78Z"/>
    <path class="cls-1" d="M31.12,13.61l.49-.66H63.36l2.38,4.78-.49.66H59L59,26.55l-.6.74H53.52a55.37,55.37,0,0,0-5.93.27,5.43,5.43,0,0,0-3.52,1.54,2.85,2.85,0,0,0-.77,1.71c0,.77.73,1.08,1.64,1.08,2.83,0,6.18-1.11,9.14-1.11,3.91,0,5.17,1.67,6.63,4.36a10.43,10.43,0,0,1,1.4,5.09c0,3.8-3.42,8.31-9.67,8.31-6.52,0-13-4.61-18.52-13.75l0-.42,2.44-1.68c4,6.74,8.31,9.77,13.19,9.77,5.06,0,7.89-3.42,7.89-5.3,0-.31-.28-.56-1.43-.56-1.75,0-6.84,1.26-9.21,1.26-1.71,0-3.35-1.12-5.59-3.7-1.88-2.23-3-4.33-3-6.35,0-5.1,4.64-6,10.82-6h4.19V18.39H33.5Z"/>
    <path class="cls-1" d="M62.25,13.61l.49-.66H78.3l2.37,4.78-.49.66H74.11l.14,31-.49.35-5.62-1.64.14-29.66H64.62Z"/>
  </g>
</svg>
