<svg id="Layer_1" data-name="Layer 1" xmlns="http://www.w3.org/2000/svg" width="120.22" height="62.07" viewBox="0 0 120.22 62.07">
  <defs>
    <style>
      .cls-1 {
        fill: #191919;
      }
    </style>
  </defs>
  <g>
    <path class="cls-1" d="M41.15,15.76H19.66a.58.58,0,0,0-.52.82l2,4.12a.59.59,0,0,0,.52.33h6v6.85a.6.6,0,0,1-.19.44,7.75,7.75,0,0,1-4,2.29,29.19,29.19,0,0,1-7.14.15c4-3.8,1.19-10.76-1.29-13-1.24-1.41-3.74-2.87-7.78-2.86S.94,17.87,1,21.43c0,2.77,2.27,6,5.69,8.57C2.39,32.22.41,35.69.09,38c-.56,4,1.2,13.2,13.29,13.2a14.19,14.19,0,0,0,3.41-.4,3.5,3.5,0,0,0,.23.35.93.93,0,0,0,.05.1l3.39,8.54a.61.61,0,0,0,.34.33L26,62a.57.57,0,0,0,.72-.78L21,48.49a6.31,6.31,0,0,0,1.86-3.68c0-.91-.31-6.88-5.77-6.88a4.39,4.39,0,0,0-4.37,3.82,10,10,0,0,0,1.07,3.56,8.52,8.52,0,0,1-3,.5c-3.52,0-4.57-2.21-4.47-4.82.09-2.22,2.19-4.89,6.42-7.78a30.28,30.28,0,0,0,11.54,2.07,12.48,12.48,0,0,0,3.13-.51.18.18,0,0,1,.23.17V50.08a.07.07,0,0,0,0,.06l4.47,1.53a.57.57,0,0,0,.76-.54v-30l8.26,0a.58.58,0,0,0,.57-.58V16.33A.58.58,0,0,0,41.15,15.76ZM11,20.22c2.76,0,3.31,1.8,3.31,3.09,0,1.1-1.13,3.28-4.7,5.24-2.05-1.34-3.31-3.06-3.28-4.71C6.41,21.48,8.27,20.22,11,20.22Z"/>
    <path class="cls-1" d="M35.57,16.41l.49-.66h6.52c-1.69-2-2.62-3.87-2.62-6C40,5.08,43.86,0,51.91,0c7,0,14.58,3.7,23.14,12.16L73.6,14.44h-.45C67.52,9.19,61.72,5.8,55.54,5.8s-9.85,3.63-9.85,7.74a4.82,4.82,0,0,0,.49,2.21h5.28l2.35,4.73-.48.66h-6l.13,30.63-.48.35L41.41,50.5l.14-29.36H37.92Z"/>
    <path class="cls-1" d="M48.5,16.41l.49-.66H85.35l2.36,4.76-.49.66h-6L81.31,52l-.48.34L75.3,50.75l.21-14-.17-.14L59.63,50.34l-3.82-5.06V44.9L72.35,31.35l0-.21s-7.84-2.25-9.84-1.43c-1.76.72-3.5,4.75-3.5,4.75l-5.45-3.37A12.21,12.21,0,0,1,64.14,25a63.45,63.45,0,0,1,11.3,1.14v-5H50.87Z"/>
    <path class="cls-1" d="M84.09,16.44l.48-.66h33.3l2.35,4.74-.49.65h-6l.14,30.64-.48.34-5.5-1.58.14-8A10.14,10.14,0,0,1,102.46,44c-6.84,0-11.91-4.94-15.33-14.5l.38-.66c4.94-1.1,8.29-2.49,8.29-5.28a3.72,3.72,0,0,0-.87-2.39H86.44Zm24,4.73H99.18a13.18,13.18,0,0,1,2,6.15c0,3.35-2.9,5.35-7.77,6.49.72,2.84,3,4.39,6.77,4.39a9.84,9.84,0,0,0,6.15-2.11A4.87,4.87,0,0,0,108.09,32Z"/>
  </g>
</svg>
