<svg id="Layer_1" data-name="Layer 1" xmlns="http://www.w3.org/2000/svg" width="83.6" height="36.92" viewBox="0 0 83.6 36.92">
  <defs>
    <style>
      .cls-1 {
        fill: #191919;
      }
    </style>
  </defs>
  <g>
    <path class="cls-1" d="M0,.66.49,0H42.74l2.38,4.78-.49.66H38.56l.14,31-.49.35-5.55-1.6L32.8,16.4H25.58c1.85,3.17,2.54,5.2,2.54,7.68,0,3.62-2.93,7.46-8.2,7.46C13.5,31.54,7.64,25.89,2.44,13l3.21-1.61C9.35,20.73,13.29,25,17.8,25a5.54,5.54,0,0,0,5.58-5.23c0-2-2-3.14-6.14-3.7l-2.2-5,.49-.59H32.8v-5H2.37Z"/>
    <path class="cls-1" d="M41.63.66,42.12,0H81.23L83.6,4.78l-.49.66H77l.14,31-.49.35-5.54-1.6.1-19.58c-5.58,1.57-7,3.81-8.44,8.69h-.49l-4.64-3.18a14,14,0,0,1,2.58-6,5.72,5.72,0,0,0-2.48-.55c-3.42,0-6.35,3.14-6.35,7.15,0,4.53,3.53,7.36,10.29,9.59L60,36.74l-.45.18c-7.12-3.7-13.75-11.34-13.75-18.67,0-5.79,3.88-9.07,8.48-9.11,3.21,0,5.17,1.29,8.27,3.67a21.06,21.06,0,0,1,8.73-3.14V5.44H44Z"/>
  </g>
</svg>
