<svg id="Layer_1" data-name="Layer 1" xmlns="http://www.w3.org/2000/svg" width="85.28" height="49.5" viewBox="0 0 85.28 49.5">
  <defs>
    <style>
      .cls-1 {
        fill: #191919;
      }
    </style>
  </defs>
  <g>
    <path class="cls-1" d="M0,.66.49,0H44.42l2.37,4.78-.49.66H28.05v8l.11.07a10.85,10.85,0,0,1,5.93-2.06,8.23,8.23,0,0,1,6.42,3,10.39,10.39,0,0,1,2.93,7.22,19.59,19.59,0,0,1-4.36,11.41h-.49l-5.2-4c3-3.74,5.24-7.79,5.24-10.61,0-1.29-.53-1.92-1.75-1.92-2.51,0-6,2.34-8.79,5.62l.07,14.16-.49.35-5.55-1.6.14-9.35a7.9,7.9,0,0,1-4.43,1.39,11.12,11.12,0,0,1-6.46-2.44c-4.18-3-5.86-5.62-5.86-13.09,0-2.23,0-4.32.11-6.21H2.37ZM11.62,12c0,6.28.21,9.94,3.8,9.94,2.65,0,4.64-1.71,6.91-4.32V5.44H11.72C11.65,7.26,11.62,9.49,11.62,12Z"/>
    <path class="cls-1" d="M34.54,45.35l0,.38a6.93,6.93,0,0,1-6.25,3.77c-4.19,0-9.25-4.57-9.25-8.69,0-3.73,3.35-6.28,7.4-6.28,5.23,0,10.29,3.7,18.7,12.21l-1.64,2.37h-.42c-5.82-6.35-10.6-9.94-14-9.94-3.18,0-5.34,2-5.34,3.94a1.91,1.91,0,0,0,2,1.92c1.64,0,3.18-1,4.54-3.38Z"/>
    <path class="cls-1" d="M43.3.66,43.79,0H82.9l2.38,4.78-.49.66H78.72l.14,31-.49.35-5.55-1.6.11-19.58c-5.59,1.57-7.05,3.81-8.45,8.69H64l-4.64-3.18a14.21,14.21,0,0,1,2.58-6,5.67,5.67,0,0,0-2.47-.55c-3.42,0-6.35,3.14-6.35,7.15,0,4.53,3.52,7.36,10.29,9.59l-1.71,5.48-.45.18c-7.12-3.7-13.75-11.34-13.75-18.67,0-5.79,3.87-9.07,8.48-9.11,3.21,0,5.16,1.29,8.27,3.67A21,21,0,0,1,73,9.67V5.44H45.67Z"/>
  </g>
</svg>
