<svg id="Layer_1" data-name="Layer 1" xmlns="http://www.w3.org/2000/svg" width="83.22" height="36.74" viewBox="0 0 83.22 36.74">
  <defs>
    <style>
      .cls-1 {
        fill: #191919;
      }
    </style>
  </defs>
  <g>
    <path class="cls-1" d="M0,.66.49,0h33l2.37,4.78-.48.66H29.27l.14,31-.48.35-5.55-1.6.17-16.54c-1.64-.14-2.86-.18-4.5-.18A19.87,19.87,0,0,0,14,19a32.68,32.68,0,0,1,.31,3.83,3.25,3.25,0,0,1-1,2.8,3.2,3.2,0,0,1-2,.76c-1.23,0-2.8-1-4.78-3.07S3.52,19.4,3.52,17.93c0-.9.53-5.54,9.7-5.54a76.71,76.71,0,0,1,10.3.83V5.44H2.37Z"/>
    <path class="cls-1" d="M32.35.66,32.83,0H48.4l2.37,4.78-.49.66H44.21l.14,31-.49.35L38.24,35.1l.14-29.66H34.72Z"/>
    <path class="cls-1" d="M47.28.66,47.77,0H80.85l2.37,4.78-.49.66H76.66l.14,31-.49.35-5.55-1.6.14-7.26a12.91,12.91,0,0,1-6.59,1.81c-3.74,0-7.12-1.6-10-5.23-2.16-2.76-2.89-5.09-2.89-7C51.4,12.84,54.85,9,62.11,9a36.35,36.35,0,0,1,8.79,1.29V5.44H49.65ZM71,15.11a23.76,23.76,0,0,0-5.23-.56c-5.69,0-8.66,2.79-8.66,6.14,0,1.89,1.54,3.32,5.13,3.32a10.92,10.92,0,0,0,6.95-2.45A4.07,4.07,0,0,0,71,18.11Z"/>
  </g>
</svg>
