<svg id="Layer_1" data-name="Layer 1" xmlns="http://www.w3.org/2000/svg" width="101.87" height="53.23" viewBox="0 0 101.87 53.23">
  <defs>
    <style>
      .cls-1 {
        fill: #191919;
      }
    </style>
  </defs>
  <g>
    <path class="cls-1" d="M0,16.92l.49-.66H34.12L36.5,21,36,21.7H29.94l.14,31-.49.35L24,51.4l.14-8.1a10.23,10.23,0,0,1-5.62,1.47c-6.91,0-12-5-15.49-14.66l.38-.66c5-1.12,8.38-2.51,8.38-5.34A3.83,3.83,0,0,0,11,21.7H2.37ZM24.25,21.7h-9a13.35,13.35,0,0,1,2,6.21c0,3.39-2.93,5.41-7.85,6.56.73,2.86,3,4.43,6.83,4.43a10,10,0,0,0,6.22-2.12,5,5,0,0,0,1.81-4.16Z"/>
    <path class="cls-1" d="M33,16.92l.49-.66H49.06L51.43,21l-.49.66H44.87l.14,31-.49.35L38.9,51.36,39,21.7H35.38Z"/>
    <path class="cls-1" d="M83.45,16.92l.49-.66h5.61c-.34-7.12-2.68-11-7.5-11a4.48,4.48,0,0,0-4.85,4.6,7,7,0,0,0,2,4.65l-.52.8L73.4,13a9.59,9.59,0,0,1-2.3-6.14c0-4.08,3.28-6.87,8-6.87,4.12,0,8.13,2.16,11.73,7.08A28.13,28.13,0,0,1,95,16.26h4.5L101.87,21l-.49.66H95.31l.14,31L95,53l-5.61-1.64.13-29.66H85.82Z"/>
    <path class="cls-1" d="M47.27,16.93l.49-.67H84.49l2.38,4.81-.49.67H80.27l.14,31.14-.49.35-5.58-1.61.21-14.15-.18-.14L58.51,51.21,54.65,46.1v-.39L71.35,32l0-.21s-7.92-2.27-9.95-1.44c-1.77.72-3.53,4.79-3.53,4.79l-5.51-3.4a12.34,12.34,0,0,1,10.74-6.13,64.83,64.83,0,0,1,11.41,1.16V21.74H49.66Z"/>
  </g>
</svg>
