<svg id="Layer_1" data-name="Layer 1" xmlns="http://www.w3.org/2000/svg" width="106.17" height="36.74" viewBox="0 0 106.17 36.74">
  <defs>
    <style>
      .cls-1 {
        fill: #191919;
      }
    </style>
  </defs>
  <g>
    <g>
      <path class="cls-1" d="M33,24.28s6,3.53,7.47,6c1.2,2.07-2.42,4-2.42,4s1.3-2.33-.1-3.63A60.25,60.25,0,0,0,31.59,26"/>
      <path class="cls-1" d="M33.53,20.17a12,12,0,0,1-1.72,3.41Q28,20.61,28,17.31a5.45,5.45,0,0,1,1.24-3.58,3.71,3.71,0,0,1,3-1.51,1.84,1.84,0,0,1,1.58.93A5.15,5.15,0,0,1,34.42,16a12.66,12.66,0,0,1-.89,4.17M23.44,10.89a7.18,7.18,0,0,0-1.75,4.73q0,5.45,8.67,10a15.44,15.44,0,0,1-5.82,4.1,17.5,17.5,0,0,1-7,1.69,5.94,5.94,0,0,1-3.31-.65,2.22,2.22,0,0,1-.89-1.89,3.1,3.1,0,0,1,1.79-2.76,13.12,13.12,0,0,1,6.4-1.24L18.8,18.76h-1a13.38,13.38,0,0,0-2.92.34,6.7,6.7,0,0,0-2.17.76,7.56,7.56,0,0,1-1.52-1.24,2.81,2.81,0,0,1,.35-4.27,5,5,0,0,1,3-.85V8s-1.15,0-1.88,0A8.32,8.32,0,0,0,7.23,9.67a5.33,5.33,0,0,0-2.06,4.27q0,1.71,2,4.4a14.63,14.63,0,0,0,3.1,3.31,5.46,5.46,0,0,0-2.2,4.4q0,3.45,4.33,6.82a14.37,14.37,0,0,0,8.88,3.37q6.48,0,12.33-5c4.22-3.64,5.43-7.95,6.33-12.7,1.09-5.7-7.14-16.59-16.49-7.62"/>
      <polygon class="cls-1" points="10.88 13.36 14.62 13.4 14.62 4.97 10.88 4.97 10.88 13.36"/>
      <polygon class="cls-1" points="0.48 0 0 0.66 2.36 5.41 46.7 5.41 46.7 0 0.48 0"/>
    </g>
    <path class="cls-1" d="M40.69.66,41.18,0H56.64L59,4.75l-.48.66h-6l.14,30.74-.49.35-5.58-1.63.14-29.46H43.05Z"/>
    <path class="cls-1" d="M55.53.66,56,0H89l2.35,4.75-.48.66h-6L85,36.15l-.48.35L79,34.9l.1-18.82H76.25c-5.33,0-7.76.63-9.28,1.77a5.13,5.13,0,0,0-2.19,4.26c0,3.57,2.88,5.65,9,9.05l-2.5,5.48-.52.1c-5.75-4.19-11.09-11.61-11.09-17.85,0-3.71,1.87-8.6,11.37-8.6,2.91,0,5.65.07,8,.14v-5H57.88Z"/>
    <path class="cls-1" d="M87.87.66,88.35,0h15.46l2.36,4.75-.49.66h-6l.14,30.74-.49.35-5.58-1.63.14-29.46H90.22Z"/>
  </g>
</svg>
