<svg id="Layer_1" data-name="Layer 1" xmlns="http://www.w3.org/2000/svg" width="124.6" height="51.66" viewBox="0 0 124.6 51.66">
  <defs>
    <style>
      .cls-1 {
        fill: #191919;
      }
    </style>
  </defs>
  <g>
    <path class="cls-1" d="M14.5,16.11l.47-.64H39.29l2.31,4.64-.48.65h-7.8a22,22,0,0,1,.38,4.17c0,6.79-3.06,10.21-7.4,12.62,2.82,3.05,7.26,5.8,12.52,8.31l-2.61,5.77H35.7C28.78,46.47,23.35,41,20.13,35a8.81,8.81,0,0,1-1.29-3.49,3.53,3.53,0,0,1,.58-1.9,3.45,3.45,0,0,1,3.18-1.43c1.6,0,3.16,0,4.21.14.75-1,1.26-2.51,1.26-5a10.06,10.06,0,0,0-.28-2.58h-11Z"/>
    <path class="cls-1" d="M0,16.11l.47-.64H6.89c-1.67-2-2.58-3.8-2.58-5.87C4.31,5,8.14,0,16,0,22.9,0,30.36,3.63,38.77,11.94l-1.42,2.24H36.9C31.38,9,25.68,5.7,19.61,5.7S9.94,9.26,9.94,13.3a4.85,4.85,0,0,0,.47,2.17H15.6l2.31,4.64-.48.65h-5.9l.14,30.09-.48.34-5.46-1.6.14-28.83H2.31Z"/>
    <path class="cls-1" d="M37.67,16.11l.48-.64H79.67L82,20.11l-.47.65H64.1V28.9l.1.07a9.54,9.54,0,0,1,5.43-2,8,8,0,0,1,6.24,2.92,10.12,10.12,0,0,1,2.85,7c0,3.42-4.68-.54-4.68-3.16,0-1.25-.51-1.83-1.7-1.83-2.44,0-5.43,2.21-8.17,5.4l.06,13.5-.47.34L58.5,49.62,58.67,42l-.07,0A8.87,8.87,0,0,1,53,43.72c-3.6,0-5.9-1.76-8.31-4.24a11,11,0,0,1-3-6.92c0-5,4-8.14,9.26-8.14a25.07,25.07,0,0,1,7.7,1.33v-5H40Zm21,13.81a15.92,15.92,0,0,0-3.29-.31c-5.66,0-8.27,2.89-8.27,6.21,0,1.83,1.35,2.71,3.63,2.71,2.61,0,5.32-1.29,7.93-4Z"/>
    <path class="cls-1" d="M67,16.11l.48-.64H78a10.12,10.12,0,0,1,3.39-.61,13.56,13.56,0,0,1,4.24.61h22.11l2.31,4.64-.47.65H103.7l.14,30.09-.47.34-5.47-1.6L98,20.76H90.68a10,10,0,0,1,2.48,6.68c0,4.07-3.36,7.94-8.55,11.16,1.86,2.54,5.22,4.95,9.39,7.16l-2.27,5.9h-.37c-3.36-1.8-7-5.26-11.16-11.4a16.5,16.5,0,0,1-4.41,1c-.92,0-2.27-.88-3.94-3.15a5.22,5.22,0,0,1-1.18-2.61c0-1.46,1.52-2.89,4.47-2.89a13.93,13.93,0,0,1,5.36,1.26,7.14,7.14,0,0,0,2.28-1.29c-5.06-3.36-8.69-6.72-8.69-10.35a8.41,8.41,0,0,1,.14-1.42H69.31Zm17.57,3.94c-3,0-4.91,2-4.91,4.51s2.51,4.37,5.93,5.26a8.38,8.38,0,0,0,2.85-5.91A3.59,3.59,0,0,0,84.57,20.05Z"/>
    <path class="cls-1" d="M106.69,16.11l.47-.64h15.13l2.31,4.64-.48.65h-5.9l.14,30.09-.48.34-5.46-1.6.14-28.83H109Z"/>
  </g>
</svg>
