<svg id="Layer_1" data-name="Layer 1" xmlns="http://www.w3.org/2000/svg" width="131.23" height="41.17" viewBox="0 0 131.23 41.17">
  <defs>
    <style>
      .cls-1 {
        fill: #191919;
      }
    </style>
  </defs>
  <g>
    <path class="cls-1" d="M17.34,2.93l.49-.66H32.62L35,7.05l-.49.66H28.44l.14,30.95-.49.35L22.54,37.4l.14-8.26a11.51,11.51,0,0,1-6.56,1.95c-6,0-11.62-4.5-15.11-13.33l.35-.84C8.3,14.34,13,12.56,13,8.16A3.13,3.13,0,0,0,9.6,5.09,4,4,0,0,0,5.3,9c0,1.29.91,2.51,2.66,3.66L7.43,14,3.31,12.53C1.08,10.54,0,8.44,0,6.25,0,3.18,2.44,0,7.19,0c2.75,0,5.23,1.67,7.36,4.47s2.93,5.13,2.93,7.18c0,5.38-4,7.54-9.91,9.84.87,2.52,2.79,3.7,6,3.7a11.06,11.06,0,0,0,6.25-2.06c2-1.36,2.93-2.79,2.93-5.89V7.71h-3Z"/>
    <path class="cls-1" d="M31.51,2.93,32,2.27H57l2.38,4.78-.49.66h-8A22.52,22.52,0,0,1,51.26,12c0,7-3.14,10.51-7.61,13,2.9,3.14,7.47,6,12.88,8.55l-2.69,5.93h-.52c-7.12-5.3-12.71-10.92-16-17.06A9.13,9.13,0,0,1,36,18.81a3.72,3.72,0,0,1,.6-2,3.57,3.57,0,0,1,3.28-1.46c1.64,0,3.24,0,4.32.14.77-1,1.29-2.58,1.29-5.17a11.12,11.12,0,0,0-.27-2.65H33.88Z"/>
    <path class="cls-1" d="M55.9,2.93l.49-.66H92l2.37,4.78-.48.66H87.82L88,38.66l-.48.35L81.93,37.4,82.1,25H70.87c0,4.5-.14,5.1-1.29,5.93a3.09,3.09,0,0,1-1.78.63c-1.16,0-2.87-.94-5.1-3-2-1.89-3.1-3.77-3.1-5.55,0-1.57.83-3.07,5.54-4.08V7.71H58.27ZM70.76,19.05H82.07V7.71H70.76Z"/>
    <path class="cls-1" d="M90.89,2.93l.49-.66h37.48l2.37,4.78-.49.66h-6.07l.14,30.95-.49.35-5.55-1.61L119,25.33a39.94,39.94,0,0,1-4.68.25,19.75,19.75,0,0,1-8.16-1.89,17.88,17.88,0,0,1-4,3.63c2.76,2.83,7,5.48,12.32,8l-2.62,5.82h-.52C105.51,36.74,100.49,32,97.07,26.8c-1.78-2.69-2.58-4.78-2.58-6.18A3.41,3.41,0,0,1,98.05,17a26.76,26.76,0,0,1,2.93.21,17.43,17.43,0,0,0,.52-4.61,24.64,24.64,0,0,0-.45-4.85H93.27Zm15.6,4.78a40.26,40.26,0,0,1,.73,7.61,28.06,28.06,0,0,1-.17,3.59,30.12,30.12,0,0,0,5.62.56,25.8,25.8,0,0,0,6.24-.66V7.71Z"/>
  </g>
</svg>
