<svg id="Layer_1" data-name="Layer 1" xmlns="http://www.w3.org/2000/svg" width="104.75" height="53" viewBox="0 0 104.75 53">
  <defs>
    <style>
      .cls-1 {
        fill: #191919;
      }
    </style>
  </defs>
  <g>
    <path class="cls-1" d="M0,16.92l.49-.66H40.06L42.43,21l-.49.66H35.87l.14,31-.49.35L30,51.4l.14-7.4a10.72,10.72,0,0,1-6.66,2.13c-3.11,0-6.46-1.08-9.77-4.68-2.27-2.44-3.56-4.74-3.56-7.71a5.82,5.82,0,0,1,.35-2.16H6L3.59,26.66,4.12,26H27l0,5-.39.42H21.88c-3.74,0-5.76,2.2-5.76,5.2,0,2.72,2.13,3.91,4.33,3.91a10.93,10.93,0,0,0,7.36-2.76,6.65,6.65,0,0,0,2.27-5.37V21.7H2.37Z"/>
    <path class="cls-1" d="M38.94,16.92l.49-.66H55L57.36,21l-.49.66H50.8l.14,31-.49.35-5.61-1.64L45,21.7H41.31Z"/>
    <path class="cls-1" d="M53.87,16.92l.49-.66H87.44L89.81,21l-.49.66H83.25l.14,31L82.9,53l-5.54-1.6.14-7.26A13,13,0,0,1,70.9,46c-3.73,0-7.12-1.6-10-5.23-2.17-2.76-2.9-5.09-2.9-7,0-4.61,3.46-8.45,10.71-8.45a36.36,36.36,0,0,1,8.8,1.29V21.7H56.25Zm12.63,15a5.59,5.59,0,0,0-3,4.92c0,1.92,1.78,3.7,5.41,3.7a12,12,0,0,0,3.18-.42Zm8.41,7c2-1.33,2.66-2.62,2.66-4.26V31.16a23.78,23.78,0,0,0-5.24-.56,17,17,0,0,0-2.79.21Z"/>
    <path class="cls-1" d="M86.32,16.92l.49-.66h5.62c-.35-7.12-2.69-11-7.5-11-3,0-4.85,1.92-4.85,4.6a7,7,0,0,0,2,4.65l-.53.8L76.27,13A9.65,9.65,0,0,1,74,6.87C74,2.79,77.25,0,82,0c4.11,0,8.13,2.16,11.72,7.08a27.72,27.72,0,0,1,4.15,9.18h4.5L104.75,21l-.49.66H98.19l.14,31-.49.35-5.62-1.64.14-29.66H88.7Z"/>
  </g>
</svg>
