<svg id="Layer_1" data-name="Layer 1" xmlns="http://www.w3.org/2000/svg" width="133.71" height="37.86" viewBox="0 0 133.71 37.86">
  <defs>
    <style>
      .cls-1 {
        fill: #191919;
      }
    </style>
  </defs>
  <g>
    <path class="cls-1" d="M0,1.29.49.63H11.34A10.51,10.51,0,0,1,14.83,0a13.94,13.94,0,0,1,4.36.63H41.94l2.37,4.78-.49.66H37.75l.14,31-.49.35-5.61-1.64.14-29.66H24.35A10.2,10.2,0,0,1,26.9,13c0,4.18-3.45,8.16-8.79,11.47,1.92,2.62,5.37,5.1,9.66,7.37l-2.33,6.07h-.39C21.6,36,17.86,32.45,13.57,26.13a17.13,17.13,0,0,1-4.53,1c-.94,0-2.34-.91-4-3.24a5.42,5.42,0,0,1-1.22-2.69c0-1.5,1.57-3,4.6-3a14.61,14.61,0,0,1,5.52,1.29,6.87,6.87,0,0,0,2.33-1.32C11,14.72,7.29,11.27,7.29,7.54a9,9,0,0,1,.14-1.47H2.37ZM18.07,5.34C15,5.34,13,7.36,13,10s2.59,4.5,6.11,5.41c1.75-1.78,2.93-3.7,2.93-6.07A3.7,3.7,0,0,0,18.07,5.34Z"/>
    <path class="cls-1" d="M40.82,1.29l.49-.66h25L68.7,5.41l-.49.66h-8a22.5,22.5,0,0,1,.38,4.29c0,7-3.14,10.51-7.6,13,2.89,3.14,7.46,6,12.87,8.55l-2.68,5.93h-.53c-7.12-5.3-12.7-10.92-16-17.06a9.13,9.13,0,0,1-1.33-3.59,3.79,3.79,0,0,1,.59-2,3.6,3.6,0,0,1,3.28-1.46c1.64,0,3.25,0,4.33.14.77-1,1.29-2.58,1.29-5.17a10.62,10.62,0,0,0-.28-2.65H43.2Z"/>
    <path class="cls-1" d="M65.21,1.29,65.7.63H98.78l2.37,4.78-.49.66H94.59l.14,31-.49.35L88.7,35.76l.14-7.25a13,13,0,0,1-6.6,1.81c-3.73,0-7.12-1.6-10-5.23-2.17-2.76-2.9-5.1-2.9-7,0-4.6,3.46-8.44,10.71-8.44a35.86,35.86,0,0,1,8.8,1.29V6.07H67.59Zm12.63,15a5.59,5.59,0,0,0-3,4.92c0,1.92,1.78,3.7,5.41,3.7a12,12,0,0,0,3.18-.42Zm8.41,7c2-1.33,2.66-2.62,2.66-4.26V15.53A23.78,23.78,0,0,0,83.67,15a17,17,0,0,0-2.79.21Z"/>
    <path class="cls-1" d="M97.66,1.29l.49-.66h33.18l2.38,4.78-.49.66h-6.07l.14,31-.49.35-5.55-1.61.11-18.94h-2.83c-5.37,0-7.82.63-9.35,1.78a5.15,5.15,0,0,0-2.2,4.29c0,3.59,2.9,5.69,9.11,9.11l-2.52,5.51-.52.1c-5.79-4.22-11.16-11.68-11.16-18,0-3.73,1.88-8.65,11.44-8.65,2.93,0,5.69.07,8.06.14V6.07H100Z"/>
  </g>
</svg>
