<svg id="Layer_1" data-name="Layer 1" xmlns="http://www.w3.org/2000/svg" width="105" height="40" viewBox="0 0 105 40">
  <defs>
    <style>
      .cls-1 {
        fill: #191919;
      }
    </style>
  </defs>
  <g>
    <path class="cls-1" d="M.28,2.29l.49-.66H35.7l2.37,4.78-.49.66H31.51l.14,31-.49.35-5.61-1.64.14-29.66H15.5c.31,3.6.42,6.63.42,9.18,0,5.51-.6,8.65-1.85,10.85A3.73,3.73,0,0,1,10.93,29c-1.12,0-2.62-1-4.4-2.9C5,24.41,3.88,22.74,3.88,21.31a3.09,3.09,0,0,1,.73-2.06c.77-.91,2.58-1.33,5.44-1.68a34.44,34.44,0,0,0,.25-4.71A46.63,46.63,0,0,0,10,7.07H2.66Z"/>
    <path class="cls-1" d="M34.58,2.29l.49-.66H70l2.37,4.78-.49.66H65.81L66,38l-.49.35-5.62-1.64L60,7.07H49.8c.31,3.6.41,6.63.41,9.18,0,5.51-.59,8.65-1.84,10.85A3.73,3.73,0,0,1,45.22,29c-1.11,0-2.61-1-4.39-2.9-1.57-1.71-2.65-3.38-2.65-4.81a3.09,3.09,0,0,1,.73-2.06c.77-.91,2.58-1.33,5.44-1.68a34.44,34.44,0,0,0,.25-4.71,46.63,46.63,0,0,0-.35-5.79H37Z"/>
    <path class="cls-1" d="M68.88,2.29l.49-.66h33l2.38,4.78-.49.66H98.16l.14,31-.49.35-5.55-1.6.17-16.54c-1.64-.14-2.86-.18-4.5-.18a19.87,19.87,0,0,0-5.09.53,32.68,32.68,0,0,1,.31,3.83,3,3,0,0,1-3,3.56c-1.22,0-2.79-1-4.78-3.07S72.41,21,72.41,19.56c0-.9.52-5.54,9.7-5.54a76.57,76.57,0,0,1,10.29.83V7.07H71.25Z"/>
  </g>
</svg>
