<svg id="Layer_1" data-name="Layer 1" xmlns="http://www.w3.org/2000/svg" width="112.14" height="49.53" viewBox="0 0 112.14 49.53">
  <defs>
    <style>
      .cls-1 {
        fill: #191919;
      }
    </style>
  </defs>
  <g>
    <path class="cls-1" d="M0,.66.49,0H39.6L42,4.78l-.49.66H35.42l.14,31-.49.35-5.55-1.6.1-19.58c-5.58,1.57-7,3.81-8.44,8.69h-.49l-4.64-3.18a14.08,14.08,0,0,1,2.58-6,5.67,5.67,0,0,0-2.47-.55c-3.42,0-6.36,3.14-6.36,7.15,0,4.53,3.53,7.36,10.3,9.59l-1.71,5.48-.46.18C10.82,33.22,4.19,25.58,4.19,18.25c0-5.79,3.87-9.07,8.48-9.11,3.21,0,5.16,1.29,8.27,3.67a21,21,0,0,1,8.72-3.14V5.44H2.37Z"/>
    <path class="cls-1" d="M38.49.66,39,0H70.73L73.1,4.78l-.49.66H66.33l.07,8.17-.59.73H60.89a52.55,52.55,0,0,0-5.93.28,5.44,5.44,0,0,0-3.53,1.54,2.83,2.83,0,0,0-.77,1.7c0,.77.74,1.09,1.64,1.09,2.83,0,6.18-1.12,9.15-1.12,3.9,0,5.16,1.67,6.63,4.36a10.44,10.44,0,0,1,1.39,5.1c0,3.8-3.42,8.3-9.66,8.3-6.53,0-13-4.61-18.53-13.75l0-.42,2.45-1.67c4,6.73,8.3,9.77,13.18,9.77,5.06,0,7.89-3.42,7.89-5.3,0-.32-.28-.56-1.43-.56-1.75,0-6.84,1.25-9.21,1.25-1.71,0-3.35-1.11-5.58-3.7-1.89-2.23-3-4.32-3-6.35,0-5.09,4.65-6,10.82-6h4.19V5.44H40.86Z"/>
    <path class="cls-1" d="M56.77,34.63c.8-.07,1.57-.1,2.37-.1a15.67,15.67,0,0,1,9.25,3.07c2.83,2,6.91,6,10.78,9.73l-1.36,2.2h-.42c-5.72-5.58-9.49-9.14-15-9.14a18.64,18.64,0,0,0-3.07.21L59,40.39Z"/>
    <path class="cls-1" d="M69.61.66,70.1,0h31.75l2.37,4.78-.48.66H97.45l.07,8.17-.59.73H92a52.67,52.67,0,0,0-5.93.28,5.41,5.41,0,0,0-3.52,1.54,2.83,2.83,0,0,0-.77,1.7c0,.77.73,1.09,1.64,1.09,2.82,0,6.17-1.12,9.14-1.12,3.91,0,5.16,1.67,6.63,4.36a10.44,10.44,0,0,1,1.39,5.1c0,3.8-3.41,8.3-9.66,8.3-6.53,0-13-4.61-18.53-13.75l0-.42,2.44-1.67c4.05,6.73,8.3,9.77,13.19,9.77,5.06,0,7.88-3.42,7.88-5.3,0-.32-.28-.56-1.43-.56-1.74,0-6.84,1.25-9.21,1.25-1.71,0-3.35-1.11-5.58-3.7-1.89-2.23-3-4.32-3-6.35,0-5.09,4.64-6,10.81-6h4.19V5.44H72Z"/>
    <path class="cls-1" d="M101.5,45.35l0,.38a6.93,6.93,0,0,1-6.25,3.77C91.1,49.5,86,44.93,86,40.81c0-3.73,3.35-6.28,7.4-6.28,5.24,0,10.3,3.7,18.7,12.21l-1.64,2.37h-.41c-5.83-6.35-10.61-9.94-14-9.94-3.18,0-5.34,2-5.34,3.94a1.91,1.91,0,0,0,2,1.92c1.64,0,3.18-1,4.54-3.38Z"/>
  </g>
</svg>
