<svg id="Layer_1" data-name="Layer 1" xmlns="http://www.w3.org/2000/svg" width="84.89" height="49.23" viewBox="0 0 84.89 49.23">
  <defs>
    <style>
      .cls-1 {
        fill: #191919;
      }
    </style>
  </defs>
  <g>
    <path class="cls-1" d="M0,2.93l.49-.66H31.54l2.38,4.78-.49.66H27.22l0,8.86-.63.7c-2.13-.1-3.94-.1-6.07-.1a35.52,35.52,0,0,0-5.27.31C12.07,18,10,19.68,10,21.7a4,4,0,0,0,.91,2.79,15.38,15.38,0,0,1,9.94-3.66,8.67,8.67,0,0,1,8.31,4.82A11.81,11.81,0,0,1,30.67,31c0,3.28-2.13,5.73-6.42,7.68l-4.68-5c4.61-2.23,7.12-4.19,7.12-5.83,0-.55-.73-1.22-3-1.22-4.25,0-10.74,2.86-10.74,8,0,5.27,7,8,18.59,9L28.93,49.2l-.28,0c-12-3-21.32-9-21.32-17.41a8.88,8.88,0,0,1,1.32-4.6c-2.72-2.87-4.32-5.48-4.32-8.41,0-3.18,2.44-6.35,7.22-6.84a90.53,90.53,0,0,1,9.91-.32V7.71H2.37Z"/>
    <path class="cls-1" d="M30.43,2.93l.48-.66H46.48l2.37,4.78-.49.66H42.29l.14,30.95-.49.35-5.62-1.64.14-29.66H32.8Z"/>
    <path class="cls-1" d="M67.24,2.93l.49-.66H82.52l2.37,4.78-.49.66H78.33l.14,30.95L78,39,72.44,37.4l.14-8.26A11.56,11.56,0,0,1,66,31.09c-6,0-11.62-4.5-15.11-13.33l.35-.84c6.94-2.58,11.62-4.36,11.62-8.76a3.14,3.14,0,0,0-3.39-3.07A4,4,0,0,0,55.2,9c0,1.29.91,2.51,2.65,3.66L57.33,14l-4.12-1.46c-2.23-2-3.31-4.09-3.31-6.28C49.9,3.18,52.34,0,57.08,0c2.76,0,5.24,1.67,7.37,4.47s2.93,5.13,2.93,7.18c0,5.38-4,7.54-9.91,9.84.87,2.52,2.79,3.7,6,3.7a11,11,0,0,0,6.24-2.06c2-1.36,2.94-2.79,2.94-5.89V7.71h-3Z"/>
  </g>
</svg>
