<svg id="Layer_1" data-name="Layer 1" xmlns="http://www.w3.org/2000/svg" width="73.47" height="44.04" viewBox="0 0 73.47 44.04">
  <defs>
    <style>
      .cls-1 {
        fill: #191919;
      }
    </style>
  </defs>
  <g>
    <path class="cls-1" d="M0,.67.49,0H34.33l2.39,4.81-.49.67H30.12l.14,31.13-.49.35-5.58-1.61.14-8.14a10.39,10.39,0,0,1-5.66,1.47c-7,0-12.11-5-15.58-14.74l.39-.67c5-1.12,8.42-2.53,8.42-5.37A3.81,3.81,0,0,0,11,5.48H2.39ZM24.4,5.48H15.34a13.3,13.3,0,0,1,2,6.24c0,3.41-2.95,5.45-7.9,6.6.74,2.88,3.06,4.46,6.88,4.46a10,10,0,0,0,6.25-2.14,5,5,0,0,0,1.83-4.18Z"/>
    <path class="cls-1" d="M31.48,0,34.1,5.48l23.59,0V8.92l-16.91,0s-4.66.51-5,5.07a8.83,8.83,0,0,0,5.43,8.31c2.5,1,6.43,1.58,6.58,3.57s-.6,2.78-3.09,2.78S42.2,27,39.87,27s-4,1.37-3.94,3.09a5.66,5.66,0,0,0,5.39,5.83A9.7,9.7,0,0,0,45,35.28s.84,4.06,3.21,5.85A23,23,0,0,0,54.82,44L57,37.88s-3.33.73-5.78-.8a6,6,0,0,1-2.83-3.33s4.67-1,4.9-5.27c.25-4.62-1.79-7.88-4.59-9.54-3.42-2-6.73-1.07-6.88-2.78-.18-1.95,2.52-1.72,2.52-1.72H57.69V34.85L63.88,37V5.38l9.22,0,.37-.52L71.76,0Z"/>
  </g>
</svg>
