<svg id="Layer_1" data-name="Layer 1" xmlns="http://www.w3.org/2000/svg" width="82.19" height="68.28" viewBox="0 0 82.19 68.28">
  <defs>
    <style>
      .cls-1 {
        fill: #191919;
      }
    </style>
  </defs>
  <g>
    <path class="cls-1" d="M0,22.1l.49-.67H32.23l2.38,4.79-.49.67h-7.2l0,10-.52.73h-4c-9.19,0-12.24,3.15-12.24,6.93A5.58,5.58,0,0,0,16,50.48,10.26,10.26,0,0,0,22,48.77a5.27,5.27,0,0,1-1-3.22c0-2.9,2.2-4.58,5-4.58a5.84,5.84,0,0,1,5.69,6c0,2.07-1.11,3.88-3.07,5.49,3,2.87,4.89,5.28,4.89,8.57A8.87,8.87,0,0,1,29,68.28H28.7l-5.87-4.69c3-1.88,4.82-3.91,4.86-6.08a5,5,0,0,0-1.64-3.64,14.91,14.91,0,0,1-6.86,1.68A14.74,14.74,0,0,1,9.05,51.36c-2.44-2.31-4.89-5.67-4.89-9.76,0-4.51,2.52-9.33,12.2-9.33h3.53c.95,0,1.26-.39,1.26-1.33V26.89H2.38Z"/>
    <path class="cls-1" d="M31.12,22.1l.48-.67H47.2l2.37,4.79-.48.67H43l.14,31-.49.35L37,56.6l.14-29.71H33.49Z"/>
    <path class="cls-1" d="M30,5.31l.28.11C32,10.52,34.51,13,37.76,13c3.07,0,5.56-2.41,7.1-7.69l.38-.07,3.6,3.39c-1.12,6.33-5,10-9.72,10q-7.5,0-11.19-11.36ZM37.79,0l4,4-4,4-4-4Z"/>
    <path class="cls-1" d="M46.08,22.1l.49-.67H79.82l2.37,4.79-.49.67H75.62l.14,31-.49.35-5.56-1.61.11-19H67c-5.39,0-7.84.63-9.37,1.79a5.17,5.17,0,0,0-2.21,4.3c0,3.6,2.91,5.69,9.13,9.12L62,58.38l-.52.11c-5.81-4.23-11.19-11.71-11.19-18,0-3.74,1.89-8.67,11.47-8.67,2.93,0,5.69.07,8.07.14V26.89H48.46Z"/>
  </g>
</svg>
