<svg id="Layer_1" data-name="Layer 1" xmlns="http://www.w3.org/2000/svg" width="129.83" height="54.85" viewBox="0 0 129.83 54.85">
  <defs>
    <style>
      .cls-1 {
        fill: #191919;
      }
    </style>
  </defs>
  <g>
    <path class="cls-1" d="M0,18.32l.49-.66H31.12l2.38,4.81L33,23.1H26.73l0,10-.52.73h-4c-8.38,0-12.22,2.41-12.22,7,0,2.89,2.17,5.23,6.15,5.23,3.66,0,7.64-1.71,11.47-5.79l3.84,5.27-.1.56a16.14,16.14,0,0,1-11.93,5.62,15.37,15.37,0,0,1-11-4.72C5.55,44,4,41,4,37.93c0-4.57,2.48-9.42,12.21-9.42h3.52c.95,0,1.26-.39,1.26-1.33V23.1H2.37Z"/>
    <path class="cls-1" d="M30,18.32l.49-.66h6C34,10.75,32.38,6.56,27.32,6.56a24.24,24.24,0,0,0-6.77,1h-.14L17.76,1A26.9,26.9,0,0,1,25,0C32,0,34.58,5.51,40.23,17.66h5.83l2.37,4.78-.49.66H41.87L42,54.05l-.49.35L35.9,52.76,36,23.1H32.38Z"/>
    <path class="cls-1" d="M44.94,18.32l.49-.66H88.14l2.37,4.78L90,23.1H72.12v8.37l.11.07a9.83,9.83,0,0,1,5.58-2,8.23,8.23,0,0,1,6.42,3,10.41,10.41,0,0,1,2.93,7.22c0,3.53-1.71,7.57-4.36,11.06h-.49l-5.2-4c3-3.73,5.24-7.61,5.24-10.29,0-1.29-.53-1.89-1.75-1.89-2.51,0-5.58,2.27-8.41,5.55l.07,13.89-.49.35-5.4-1.61.17-7.85-.07,0a9.18,9.18,0,0,1-5.72,1.81c-3.7,0-6.07-1.81-8.55-4.36a11.33,11.33,0,0,1-3.14-7.12c0-5.09,4.08-8.37,9.52-8.37a25.91,25.91,0,0,1,7.92,1.36V23.1H47.31Zm21.63,14.2a16.76,16.76,0,0,0-3.38-.31c-5.83,0-8.51,3-8.51,6.38,0,1.89,1.39,2.79,3.73,2.79,2.69,0,5.48-1.32,8.16-4.11Z"/>
    <path class="cls-1" d="M87,18.32l.49-.66h25l2.37,4.78-.49.66h-8a22.43,22.43,0,0,1,.38,4.29c0,7-3.14,10.5-7.61,13,2.9,3.14,7.47,6,12.88,8.55l-2.69,5.93h-.52c-7.12-5.3-12.7-10.92-16-17.06a9.21,9.21,0,0,1-1.32-3.6,3.78,3.78,0,0,1,.59-1.95,3.59,3.59,0,0,1,3.28-1.46c1.64,0,3.25,0,4.33.13.77-1,1.29-2.58,1.29-5.16a10.62,10.62,0,0,0-.28-2.65H89.39Z"/>
    <path class="cls-1" d="M111.41,18.32l.49-.66h5.62c-.35-7.12-2.69-11-7.5-11a4.48,4.48,0,0,0-4.85,4.61,7,7,0,0,0,2,4.64l-.52.8-5.27-2.3a9.67,9.67,0,0,1-2.3-6.14c0-4.08,3.28-6.87,8-6.87,4.12,0,8.13,2.16,11.73,7.08A27.93,27.93,0,0,1,123,17.66h4.5l2.37,4.78-.48.66h-6.08l.14,30.95-.48.35-5.62-1.64.14-29.66h-3.67Z"/>
  </g>
</svg>
