<svg id="Layer_1" data-name="Layer 1" xmlns="http://www.w3.org/2000/svg" width="133.5" height="36.74" viewBox="0 0 133.5 36.74">
  <defs>
    <style>
      .cls-1 {
        fill: #191919;
      }
    </style>
  </defs>
  <g>
    <path class="cls-1" d="M0,.66.49,0H40.06l2.37,4.78-.49.66H35.87l.14,31-.49.35L30,35.14l.14-7.4a10.72,10.72,0,0,1-6.66,2.13c-3.11,0-6.46-1.08-9.77-4.68-2.27-2.44-3.56-4.74-3.56-7.71a5.82,5.82,0,0,1,.35-2.16H6L3.59,10.4l.53-.67H26.93v5l-.39.42H21.88c-3.74,0-5.76,2.2-5.76,5.2,0,2.72,2.13,3.91,4.33,3.91a10.93,10.93,0,0,0,7.36-2.76,6.65,6.65,0,0,0,2.27-5.37V5.44H2.37Z"/>
    <path class="cls-1" d="M38.94.66,39.43,0H75.05l2.38,4.78-.49.66H70.87l.07,17.19-17,.08c0,4.51-.14,5.1-1.29,5.94a3.05,3.05,0,0,1-1.78.62c-1.15,0-2.86-.94-5.1-3-2-1.89-3.1-3.77-3.1-5.55,0-1.57.84-3.07,5.55-4.08V5.44H41.31ZM53.8,16.78H65.11V5.44H53.8Z"/>
    <path class="cls-1" d="M56.07.66,56.56,0H92.19l2.37,4.78-.49.66H88l.14,31-.49.35-5.55-1.6.18-12.43H71c0,4.51-.14,5.1-1.29,5.94a3.05,3.05,0,0,1-1.78.62c-1.15,0-2.86-.94-5.09-3-2-1.89-3.11-3.77-3.11-5.55,0-1.57.84-3.07,5.55-4.08V5.44H58.44ZM70.94,16.78h11.3V5.44H70.94Z"/>
    <path class="cls-1" d="M91.07.66,91.56,0h39.57l2.37,4.78-.49.66h-6.07l.14,31-.49.35L121,35.14l.14-7.4a10.72,10.72,0,0,1-6.66,2.13c-3.11,0-6.46-1.08-9.77-4.68-2.27-2.44-3.56-4.74-3.56-7.71a5.82,5.82,0,0,1,.35-2.16H97.07L94.66,10.4l.53-.67H118v5l-.39.42H113c-3.74,0-5.76,2.2-5.76,5.2,0,2.72,2.13,3.91,4.33,3.91a10.93,10.93,0,0,0,7.36-2.76,6.65,6.65,0,0,0,2.27-5.37V5.44H93.44Z"/>
  </g>
</svg>
