<svg id="Layer_1" data-name="Layer 1" xmlns="http://www.w3.org/2000/svg" width="148.61" height="64.41" viewBox="0 0 148.61 64.41">
  <defs>
    <style>
      .cls-1 {
        fill: #191919;
      }
    </style>
  </defs>
  <g>
    <path class="cls-1" d="M0,18.32l.49-.66H33.78l2.37,4.78-.49.66H27l.07,8c3.87,3.84,5.4,6.42,5.4,10.08,0,5.86-5.58,11.2-13.25,11.2-7.82,0-15.15-7.5-15.15-14.09,0-5.83,4.22-9.67,13-9.67h2.83c1,0,1.39-.21,1.39-1.32l0-4.19H2.37Zm25.26,15.6H22.44c-5.31,0-8.24.76-10.3,2.54a6.26,6.26,0,0,0-2,4.61c0,4,2.82,5.9,6.31,5.9C22.23,47,27,42.71,27,38.07A5.65,5.65,0,0,0,25.26,33.92Z"/>
    <path class="cls-1" d="M25.19,18.35C22.51,11,21,6.56,15.74,6.56A24.24,24.24,0,0,0,9,7.54H8.83L6.18,1A26.79,26.79,0,0,1,13.4,0C20.52,0,23,5.62,28.82,18l-.24.35Z"/>
    <path class="cls-1" d="M32.66,18.32l.49-.66H75.86l2.37,4.78-.49.66H59.84v8.37l.11.07a9.81,9.81,0,0,1,5.58-2,8.26,8.26,0,0,1,6.42,3,10.41,10.41,0,0,1,2.93,7.22c0,3.53-1.71,7.57-4.36,11.06H70l-5.2-4c3-3.73,5.23-7.61,5.23-10.29,0-1.29-.52-1.89-1.74-1.89-2.51,0-5.58,2.27-8.41,5.55L60,54.05l-.49.35-5.41-1.61.18-7.85-.07,0a9.2,9.2,0,0,1-5.72,1.81c-3.7,0-6.08-1.81-8.55-4.36a11.33,11.33,0,0,1-3.14-7.12c0-5.09,4.08-8.37,9.52-8.37a25.91,25.91,0,0,1,7.92,1.36V23.1H35Zm21.63,14.2a16.83,16.83,0,0,0-3.38-.31c-5.83,0-8.52,3-8.52,6.38,0,1.89,1.4,2.79,3.74,2.79,2.68,0,5.48-1.32,8.16-4.11Z"/>
    <path class="cls-1" d="M67.27,18.35C64.59,11,63.05,6.56,57.82,6.56a24.24,24.24,0,0,0-6.77,1h-.14L48.26,1a26.79,26.79,0,0,1,7.22-1C62.6,0,65.11,5.62,70.9,18l-.24.35Z"/>
    <path class="cls-1" d="M74.74,18.32l.49-.66h31.68l2.37,4.78-.49.66h-7.18l0,10-.52.74h-4c-9.18,0-12.22,3.14-12.22,6.9a5.57,5.57,0,0,0,5.83,5.9,10.2,10.2,0,0,0,5.93-1.71,5.23,5.23,0,0,1-1-3.21c0-2.89,2.2-4.57,5-4.57a5.83,5.83,0,0,1,5.69,6c0,2.06-1.11,3.87-3.07,5.48,3,2.86,4.89,5.26,4.89,8.54a8.85,8.85,0,0,1-4.47,7.26h-.24l-5.87-4.67c3-1.89,4.82-3.91,4.85-6.08A5,5,0,0,0,100.73,50a14.87,14.87,0,0,1-6.83,1.67,14.65,14.65,0,0,1-10.12-4.19c-2.45-2.3-4.89-5.65-4.89-9.73,0-4.5,2.51-9.32,12.18-9.32h3.52c1,0,1.26-.38,1.26-1.32v-4H77.11Z"/>
    <path class="cls-1" d="M105.79,18.32l.49-.66h15.56l2.38,4.78-.49.66h-6.07l.14,30.95-.49.35-5.62-1.64.14-29.66h-3.66Z"/>
    <path class="cls-1" d="M120.73,18.32l.49-.66h25l2.38,4.78-.49.66h-8a22.45,22.45,0,0,1,.39,4.29c0,7-3.14,10.5-7.61,13,2.9,3.14,7.47,6,12.88,8.55l-2.69,5.93h-.52c-7.12-5.3-12.71-10.92-16-17.06a9.11,9.11,0,0,1-1.33-3.6,3.71,3.71,0,0,1,.6-1.95,3.57,3.57,0,0,1,3.28-1.46c1.64,0,3.24,0,4.32.13.77-1,1.29-2.58,1.29-5.16a11.12,11.12,0,0,0-.27-2.65H123.1Z"/>
  </g>
</svg>
