<svg id="Layer_1" data-name="Layer 1" xmlns="http://www.w3.org/2000/svg" width="187.75" height="53.18" viewBox="0 0 187.75 53.18">
  <defs>
    <style>
      .cls-1 {
        fill: #191919;
      }
    </style>
  </defs>
  <g>
    <path class="cls-1" d="M42,16.92l.49-.66h6.6c-1.71-2.06-2.65-3.91-2.65-6,0-4.74,3.94-9.87,12.07-9.87,7.05,0,14.72,3.73,23.38,12.28l-1.47,2.3H80c-5.69-5.3-11.55-8.72-17.8-8.72S52.26,9.87,52.26,14a4.91,4.91,0,0,0,.49,2.23h5.34L60.46,21,60,21.7H53.9l.14,31-.49.35-5.62-1.64.14-29.66H44.41Z"/>
    <path class="cls-1" d="M57,16.92l.49-.66H89.87L92.24,21l-.48.66H85.69l.13,31-.48.35-5.55-1.6.14-9.35a9.12,9.12,0,0,1-4.78,1.39A11.9,11.9,0,0,1,68.34,41c-4.18-3-5.86-5.62-5.86-13.09,0-2.23,0-4.32.11-6.21H59.34ZM80,21.7H68.69c-.07,1.82-.1,4.05-.1,6.53,0,6.28.21,9.87,3.84,9.87a8.85,8.85,0,0,0,5.4-2.23A5.71,5.71,0,0,0,80,31.23Z"/>
    <path class="cls-1" d="M88.76,16.92l.48-.66H132L134.32,21l-.48.66h-17.9v8.38l.1.07a9.8,9.8,0,0,1,5.58-2,8.23,8.23,0,0,1,6.42,3A10.38,10.38,0,0,1,131,38.35c0,3.52-1.71,7.57-4.37,11.06h-.48l-5.2-4c3-3.73,5.23-7.6,5.23-10.29,0-1.29-.52-1.88-1.74-1.88-2.52,0-5.59,2.27-8.41,5.55l.07,13.88-.49.35-5.41-1.6.17-7.85-.07,0a9.11,9.11,0,0,1-5.72,1.82c-3.7,0-6.07-1.82-8.55-4.37a11.36,11.36,0,0,1-3.14-7.11c0-5.1,4.09-8.38,9.53-8.38a26,26,0,0,1,7.92,1.36V21.7H91.13Zm21.63,14.2a16.94,16.94,0,0,0-3.39-.31c-5.82,0-8.51,3-8.51,6.39,0,1.88,1.4,2.79,3.73,2.79,2.69,0,5.48-1.33,8.17-4.12Z"/>
    <path class="cls-1" d="M130.84,16.92l.48-.66h39.12L172.81,21l-.49.66h-6.07l.14,31-.49.35-5.55-1.6.11-19.58c-5.58,1.57-7.05,3.81-8.44,8.69h-.49l-4.64-3.18a14,14,0,0,1,2.58-6,5.72,5.72,0,0,0-2.48-.55c-3.42,0-6.35,3.14-6.35,7.15,0,4.53,3.52,7.36,10.29,9.59L149.22,53l-.45.18C141.65,49.48,135,41.84,135,34.51c0-5.79,3.88-9.07,8.48-9.11,3.21,0,5.17,1.29,8.27,3.67a21.06,21.06,0,0,1,8.72-3.14V21.7H133.21Z"/>
    <path class="cls-1" d="M169.32,16.92l.49-.66h5.62c-.35-7.12-2.69-11-7.5-11-3,0-4.85,1.92-4.85,4.6a7,7,0,0,0,2,4.65l-.53.8L159.27,13A9.65,9.65,0,0,1,157,6.87C157,2.79,160.25,0,165,0c4.11,0,8.13,2.16,11.72,7.08a27.93,27.93,0,0,1,4.15,9.18h4.5L187.75,21l-.49.66h-6.07l.14,31-.49.35-5.62-1.64.14-29.66h-3.67Z"/>
    <g>
      <path class="cls-1" d="M33,40.54s6,3.53,7.47,6.05c1.2,2.07-2.42,4-2.42,4s1.3-2.33-.1-3.63a60.25,60.25,0,0,0-6.32-4.75"/>
      <path class="cls-1" d="M33.53,36.43a12,12,0,0,1-1.72,3.41Q28,36.87,28,33.57A5.45,5.45,0,0,1,29.26,30a3.71,3.71,0,0,1,3-1.51,1.84,1.84,0,0,1,1.58.93,5.15,5.15,0,0,1,.62,2.85,12.66,12.66,0,0,1-.89,4.17M23.44,27.15a7.18,7.18,0,0,0-1.75,4.73q0,5.44,8.67,10A15.55,15.55,0,0,1,24.54,46a17.5,17.5,0,0,1-7,1.69A5.94,5.94,0,0,1,14.18,47a2.22,2.22,0,0,1-.89-1.89,3.1,3.1,0,0,1,1.79-2.76,13.12,13.12,0,0,1,6.4-1.24L18.8,35h-1a13.38,13.38,0,0,0-2.92.34,6.7,6.7,0,0,0-2.17.76,7.56,7.56,0,0,1-1.52-1.24,2.81,2.81,0,0,1,.35-4.27,5,5,0,0,1,3-.85v-5.5s-1.15-.05-1.88-.05a8.32,8.32,0,0,0-5.51,1.72A5.33,5.33,0,0,0,5.17,30.2q0,1.71,2,4.4a14.63,14.63,0,0,0,3.1,3.31,5.46,5.46,0,0,0-2.2,4.4q0,3.45,4.33,6.82a14.37,14.37,0,0,0,8.88,3.37q6.48,0,12.33-5c4.22-3.64,5.43-8,6.33-12.7,1.09-5.7-7.14-16.59-16.49-7.62"/>
      <polygon class="cls-1" points="10.88 29.61 14.62 29.66 14.62 21.23 10.88 21.23 10.88 29.61"/>
      <polygon class="cls-1" points="0.48 16.26 0 16.92 2.36 21.67 46.7 21.67 46.7 16.26 0.48 16.26"/>
    </g>
  </g>
</svg>
