<svg id="Layer_1" data-name="Layer 1" xmlns="http://www.w3.org/2000/svg" width="99.34" height="54.64" viewBox="0 0 99.34 54.64">
  <defs>
    <style>
      .cls-1 {
        fill: #191919;
      }
    </style>
  </defs>
  <g>
    <path class="cls-1" d="M18,18.32l.49-.66h16l2.38,4.78-.49.66H30.36l.14,30.95L30,54.4l-5.55-1.61.14-7.19a14.22,14.22,0,0,1-6.32,1.5c-2.68,0-5.3-1.08-8.09-3.76-2.51-2.48-4-5.1-4-8a6.26,6.26,0,0,1,.87-3.07C3.45,29.27,0,26.17,0,22.23c0-4.71,3.77-7.47,7.85-7.47,2.34,0,5.07,1.07,6,3,3.32,6.84-2,10.53-5.52,11.23l-1.09-.86c4.13-1.77,5.71-6,2.92-7.4-2.24-1.15-4.84,1.39-4.78,4.52,0,2.26,1.89,3.45,4.92,3.45a72.36,72.36,0,0,0,7.51-1.12L21,32.69l-.28.39c-7.92,1-9.07,4.19-9.07,5.76,0,1.36,1.33,2.54,3.73,2.54a12.15,12.15,0,0,0,5.17-1.29c2.3-1.12,4-2.55,4-5.48V23.1H20.41Z"/>
    <path class="cls-1" d="M33.43,18.32l.49-.66h6c-2.55-6.91-4.15-11.1-9.21-11.1a24.24,24.24,0,0,0-6.77,1h-.14L21.18,1A26.9,26.9,0,0,1,28.4,0C35.45,0,38,5.51,43.65,17.66h5.83l2.37,4.78-.49.66H45.29l.14,30.95-.49.35-5.62-1.64.14-29.66H35.8Z"/>
    <path class="cls-1" d="M48.36,18.32l.49-.66H82l2.37,4.78-.48.66H77.84L78,54.05l-.48.35L72,52.79l.1-18.94H69.23c-5.38,0-7.82.62-9.35,1.78a5.15,5.15,0,0,0-2.2,4.29c0,3.59,2.89,5.68,9.1,9.1l-2.51,5.52-.52.1C58,50.42,52.58,43,52.58,36.67,52.58,32.94,54.47,28,64,28c2.93,0,5.68.07,8.06.14V23.1H50.73Z"/>
    <path class="cls-1" d="M80.92,18.32l.48-.66H87c-.35-7.12-2.69-11-7.5-11a4.48,4.48,0,0,0-4.85,4.61,6.93,6.93,0,0,0,2,4.64l-.52.8-5.27-2.3a9.62,9.62,0,0,1-2.31-6.14c0-4.08,3.28-6.87,8-6.87,4.12,0,8.13,2.16,11.72,7.08a27.72,27.72,0,0,1,4.15,9.18H97l2.37,4.78-.49.66H92.78l.14,30.95-.49.35-5.62-1.64L87,23.1H83.29Z"/>
  </g>
</svg>
