<svg id="Layer_1" data-name="Layer 1" xmlns="http://www.w3.org/2000/svg" width="91.8" height="36.74" viewBox="0 0 91.8 36.74">
  <defs>
    <style>
      .cls-1 {
        fill: #191919;
      }
    </style>
  </defs>
  <g>
    <path class="cls-1" d="M0,.66.49,0H33.57l2.37,4.78-.49.66H29.38l.14,31-.49.35-5.55-1.6.14-7.26A12.91,12.91,0,0,1,17,29.69c-3.74,0-7.12-1.6-10-5.23-2.16-2.76-2.89-5.09-2.89-7C4.12,12.84,7.57,9,14.83,9a36.35,36.35,0,0,1,8.79,1.29V5.44H2.37Zm12.63,15a5.57,5.57,0,0,0-3,4.92c0,1.92,1.78,3.7,5.41,3.7a11.94,11.94,0,0,0,3.17-.42Zm8.41,7c2-1.33,2.65-2.62,2.65-4.26V14.9a23.76,23.76,0,0,0-5.23-.56,17,17,0,0,0-2.79.21Z"/>
    <path class="cls-1" d="M32.45.66,32.94,0H48.5l2.37,4.78-.49.66H44.31l.14,31-.49.35L38.35,35.1l.14-29.66H34.82Z"/>
    <path class="cls-1" d="M47.38.66,47.87,0H89.43L91.8,4.78l-.49.66H85.24l.14,31-.49.35L79.28,35.1l.14-29.66h-5.8V17c0,8.76-5.34,10.15-8.55,10.15A11.78,11.78,0,0,1,57.19,24c-2.3-2.1-4.08-4.57-4.08-10.93,0-2,0-4.39.07-7.64H49.76Zm11.8,4.78c-.07,3.35-.07,6.35-.07,8.76C59.11,20,60.36,22,62.67,22c2.61,0,5.23-2,5.23-8V5.44Z"/>
  </g>
</svg>
