<svg id="Layer_1" data-name="Layer 1" xmlns="http://www.w3.org/2000/svg" width="112.55" height="52.65" viewBox="0 0 112.55 52.65">
  <defs>
    <style>
      .cls-1 {
        fill: #191919;
      }
    </style>
  </defs>
  <g>
    <path class="cls-1" d="M14.13,16.57l.49-.66H46.37l2.38,4.78-.49.66H42l.07,8.17-.6.73H36.53a52.78,52.78,0,0,0-5.93.28,5.43,5.43,0,0,0-3.52,1.54,2.83,2.83,0,0,0-.77,1.71c0,.76.73,1.08,1.64,1.08,2.83,0,6.18-1.12,9.14-1.12,3.91,0,5.17,1.68,6.63,4.36a10.47,10.47,0,0,1,1.4,5.1c0,3.8-3.42,8.3-9.67,8.3-6.52,0-13-4.6-18.52-13.75l0-.42,2.44-1.67c4.05,6.73,8.31,9.77,13.19,9.77,5.06,0,7.89-3.42,7.89-5.3,0-.32-.28-.56-1.43-.56-1.75,0-6.84,1.25-9.21,1.25-1.71,0-3.35-1.11-5.59-3.69-1.88-2.24-3-4.33-3-6.35,0-5.1,4.64-6,10.82-6h4.19V21.35H16.51Z"/>
    <path class="cls-1" d="M0,16.57l.49-.66H7.08c-1.71-2.06-2.65-3.91-2.65-6C4.43,5.13,8.37,0,16.5,0c7.05,0,14.73,3.73,23.38,12.28l-1.46,2.31H38C32.28,9.28,26.41,5.86,20.17,5.86s-10,3.67-10,7.82a4.91,4.91,0,0,0,.49,2.23h5.34l2.37,4.78-.49.66H11.86L12,52.3l-.49.35L5.9,51,6,21.35H2.37Z"/>
    <path class="cls-1" d="M47.08,21.35l-2.37-4.78.49-.66H78.28l2.37,4.78-.49.66m-8.27,19.9s-2.64,2-3.56,2.54a11.87,11.87,0,0,1-6.59,1.81c-3.74,0-7.12-1.6-10-5.23-2.16-2.76-2.89-5.09-2.89-7,0-4.61,3.45-8.45,10.71-8.45a32.66,32.66,0,0,1,8.79,1.29,8.21,8.21,0,0,1,3,1.89c1.36,1.27-1.07,3.42-.84,7.17A16,16,0,0,0,71.89,41.25ZM57.34,31.54a5.57,5.57,0,0,0-3,4.92c0,1.92,1.78,3.7,5.41,3.7a11.94,11.94,0,0,0,3.17-.42Zm8.41,7c2-1.32,2.65-2.62,2.65-4.26V30.81a23.76,23.76,0,0,0-5.23-.56,17,17,0,0,0-2.79.21Z"/>
    <path class="cls-1" d="M61.68,16.57l.48-.66H95.24l2.37,4.78-.48.66H91.06l.13,30.95-.48.35-5.55-1.6.14-7.26a12.94,12.94,0,0,1-6.6,1.81c-3.73,0-7.11-1.6-10-5.23-2.16-2.76-2.9-5.09-2.9-7,0-4.61,3.46-8.45,10.72-8.45A36.35,36.35,0,0,1,85.3,26.2V21.35H64.05Zm12.63,15a5.57,5.57,0,0,0-3,4.92c0,1.92,1.78,3.7,5.4,3.7a12,12,0,0,0,3.18-.42Zm8.41,7c2-1.32,2.65-2.62,2.65-4.26V30.81a23.78,23.78,0,0,0-5.24-.56,17.12,17.12,0,0,0-2.79.21Z"/>
    <path class="cls-1" d="M94.13,16.57l.48-.66h15.57l2.37,4.78-.49.66H106l.14,30.95-.49.35L100,51l.14-29.66H96.5Z"/>
  </g>
</svg>
