<svg id="Layer_1" data-name="Layer 1" xmlns="http://www.w3.org/2000/svg" width="111.03" height="50.16" viewBox="0 0 111.03 50.16">
  <defs>
    <style>
      .cls-1 {
        fill: #191919;
      }
    </style>
  </defs>
  <g>
    <path class="cls-1" d="M0,.66.49,0H34.12L36.5,4.78,36,5.44H29.94l.14,31-.49.35L24,35.14l.14-8.1a10.23,10.23,0,0,1-5.62,1.47c-6.91,0-12-5-15.49-14.66l.38-.66c5-1.12,8.38-2.51,8.38-5.34A3.83,3.83,0,0,0,11,5.44H2.37ZM24.25,5.44h-9a13.35,13.35,0,0,1,2,6.21c0,3.39-2.93,5.41-7.85,6.56.73,2.86,3,4.44,6.83,4.44a10,10,0,0,0,6.22-2.13,5,5,0,0,0,1.81-4.16Z"/>
    <path class="cls-1" d="M10.43,35.58h.42c5,6.56,9.21,9.7,13.09,9.7,2.89,0,5.72-1.89,5.72-4.33,0-.59-.49-1.36-2-1.36a8.64,8.64,0,0,0-4.85,2H22.4l-2.9-4.88a11,11,0,0,1,6-2.37c2.51,0,4.78,1.36,6.59,4.81a9.78,9.78,0,0,1,1.26,4.54c0,3.52-3,6.45-7.54,6.45C20.55,50.16,15,46,8.76,37.5Z"/>
    <path class="cls-1" d="M33,.66,33.5,0H66.57L69,4.78l-.49.66H62.39l.14,31-.49.35-5.55-1.6.14-7.26A12.91,12.91,0,0,1,50,29.69c-3.74,0-7.12-1.6-10-5.23-2.16-2.76-2.89-5.09-2.89-7C37.13,12.84,40.58,9,47.84,9a36.35,36.35,0,0,1,8.79,1.29V5.44H35.38ZM56.7,15.11a23.76,23.76,0,0,0-5.23-.56c-5.69,0-8.66,2.79-8.66,6.14,0,1.89,1.54,3.32,5.13,3.32a10.94,10.94,0,0,0,7-2.45,4.07,4.07,0,0,0,1.81-3.45Z"/>
    <path class="cls-1" d="M65.46.66,66,0h42.7L111,4.78l-.49.66H92.64v8.38l.1.07a9.81,9.81,0,0,1,5.59-2,8.26,8.26,0,0,1,6.42,3,10.41,10.41,0,0,1,2.93,7.23c0,3.52-1.71,7.57-4.36,11.06h-.49l-5.2-4c3-3.74,5.23-7.61,5.23-10.3,0-1.29-.52-1.88-1.74-1.88-2.51,0-5.58,2.27-8.41,5.55l.07,13.88-.49.35-5.41-1.6.18-7.85-.07,0a9.16,9.16,0,0,1-5.73,1.82c-3.69,0-6.07-1.82-8.54-4.37a11.31,11.31,0,0,1-3.14-7.11c0-5.1,4.08-8.38,9.52-8.38A26,26,0,0,1,87,10.57V5.44H67.83Zm21.63,14.2a16.9,16.9,0,0,0-3.38-.31c-5.83,0-8.52,3-8.52,6.39,0,1.88,1.4,2.79,3.74,2.79,2.68,0,5.47-1.33,8.16-4.12Z"/>
  </g>
</svg>
