<svg id="Layer_1" data-name="Layer 1" xmlns="http://www.w3.org/2000/svg" width="132.27" height="65.41" viewBox="0 0 132.27 65.41">
  <defs>
    <style>
      .cls-1 {
        fill: #191919;
      }
    </style>
  </defs>
  <g>
    <path class="cls-1" d="M0,16.57l.49-.66H7.08c-1.71-2.06-2.65-3.91-2.65-6C4.43,5.13,8.37,0,16.5,0c7.05,0,14.73,3.73,23.38,12.28l-1.46,2.31H38C32.28,9.28,26.41,5.86,20.17,5.86s-10,3.67-10,7.82a4.91,4.91,0,0,0,.49,2.23h5.34l2.37,4.78-.49.66H11.86L12,52.3l-.49.35L5.9,51,6,21.35H2.37Z"/>
    <path class="cls-1" d="M13.77,16.57l.5-.66H51l2.39,4.81-.49.66H46.78l.14,31.15-.49.35-5.59-1.62.21-14.15L40.88,37,25,50.86l-3.86-5.12v-.38L37.86,31.67l0-.21S29.9,29.19,27.88,30c-1.77.73-3.53,4.8-3.53,4.8L18.84,31.4a12.33,12.33,0,0,1,10.73-6.12A63.9,63.9,0,0,1,41,26.44V21.38H16.16Z"/>
    <path class="cls-1" d="M49.47,16.57l.49-.66H60.81a10.78,10.78,0,0,1,3.49-.63,13.94,13.94,0,0,1,4.36.63H91.41l2.38,4.78-.49.66H87.23l.14,30.95-.49.35L81.26,51l.14-29.66H73.83a10.26,10.26,0,0,1,2.54,6.88c0,4.19-3.45,8.16-8.79,11.48,1.92,2.61,5.38,5.09,9.67,7.36l-2.34,6.07h-.38c-3.46-1.85-7.19-5.41-11.48-11.72a17.11,17.11,0,0,1-4.54,1c-.94,0-2.34-.9-4-3.24a5.42,5.42,0,0,1-1.22-2.69c0-1.5,1.57-3,4.61-3a14.37,14.37,0,0,1,5.51,1.29,7.21,7.21,0,0,0,2.34-1.33c-5.2-3.45-8.93-6.91-8.93-10.64a8.86,8.86,0,0,1,.13-1.47h-5Zm18.08,4.05c-3.11,0-5.06,2-5.06,4.64s2.58,4.5,6.1,5.41c1.75-1.78,2.93-3.7,2.93-6.07A3.7,3.7,0,0,0,67.55,20.62Z"/>
    <path class="cls-1" d="M91.06,61.26l0,.38a6.92,6.92,0,0,1-6.25,3.77c-4.18,0-9.24-4.57-9.24-8.69C75.61,53,79,50.44,83,50.44c5.24,0,10.3,3.7,18.71,12.21L100.07,65h-.42c-5.83-6.35-10.61-10-14-10-3.17,0-5.34,2-5.34,3.94a1.92,1.92,0,0,0,2,1.92c1.64,0,3.17-1,4.53-3.38Z"/>
    <path class="cls-1" d="M90.3,16.57l.49-.66H129.9l2.37,4.78-.49.66h-6.07l.14,30.95-.49.35-5.54-1.6.1-19.58c-5.58,1.57-7,3.81-8.44,8.69H111L106.35,37a14,14,0,0,1,2.58-6,5.72,5.72,0,0,0-2.48-.55c-3.42,0-6.35,3.14-6.35,7.15,0,4.54,3.53,7.36,10.29,9.59l-1.7,5.48-.46.18c-7.12-3.7-13.75-11.34-13.75-18.67,0-5.79,3.88-9.07,8.48-9.11,3.21,0,5.17,1.29,8.27,3.67A21.06,21.06,0,0,1,120,25.58V21.35H92.67Z"/>
  </g>
</svg>
