<svg id="Layer_1" data-name="Layer 1" xmlns="http://www.w3.org/2000/svg" width="136.31" height="66.19" viewBox="0 0 136.31 66.19">
  <defs>
    <style>
      .cls-1 {
        fill: #191919;
      }
    </style>
  </defs>
  <g>
    <path class="cls-1" d="M0,16.57l.49-.66H7.08c-1.71-2.06-2.65-3.91-2.65-6C4.43,5.13,8.37,0,16.5,0c7.05,0,14.73,3.73,23.38,12.28l-1.46,2.31H38C32.28,9.28,26.41,5.86,20.17,5.86s-10,3.67-10,7.82a4.91,4.91,0,0,0,.49,2.23h5.34l2.37,4.78-.49.66H11.86L12,52.3l-.49.35L5.9,51,6,21.35H2.37Z"/>
    <path class="cls-1" d="M13.77,16.57l.5-.66H51l2.39,4.81-.49.66H46.78l.14,31.15-.49.35-5.59-1.62.21-14.15L40.88,37,25,50.86l-3.86-5.12v-.38L37.86,31.67l0-.21S29.9,29.19,27.88,30c-1.77.73-3.53,4.8-3.53,4.8L18.84,31.4a12.33,12.33,0,0,1,10.73-6.12A63.9,63.9,0,0,1,41,26.44V21.38H16.16Z"/>
    <path class="cls-1" d="M73.79,16.69l.49-.67h18l2.38,4.78-.49.67H88.13l.14,31-.49.35-5.55-1.61.18-12.56A71.48,71.48,0,0,0,72,39.19c-1,3.63-2.41,5.59-4.22,5.59-1.43,0-3.1-1-5-3-1.6-1.67-2.58-3.31-2.58-4.81,0-2.16,2.16-3.46,6.45-4.12a41.79,41.79,0,0,0,.32-7c0-5.06-.8-7.39-3.35-7.39A3.48,3.48,0,0,0,60.35,22c0,2.19,1.5,3.8,4,5.09l-.77,1.5A39.27,39.27,0,0,1,58,27,8.75,8.75,0,0,1,54,20.14a6.42,6.42,0,0,1,6.7-6.31c2.34,0,4.81,1,7.36,3.21,3.07,2.65,4.68,5.06,4.68,11.27,0,1.53,0,3.07-.11,4.6,3.32,0,6.32,0,9.63.25V21.47H76.16Z"/>
    <path class="cls-1" d="M68.62,51.6H69c5,6.56,9.21,9.7,13.09,9.7,2.89,0,5.72-1.88,5.72-4.33,0-.59-.49-1.36-2-1.36a8.66,8.66,0,0,0-4.85,2h-.45l-2.9-4.89a11,11,0,0,1,6-2.37c2.51,0,4.78,1.36,6.59,4.81a9.78,9.78,0,0,1,1.26,4.54c0,3.52-3,6.46-7.54,6.46C78.74,66.19,73.23,62,67,53.52Z"/>
    <path class="cls-1" d="M91.2,16.69l.49-.67h42.25l2.37,4.78-.48.67h-6.08l.14,31-.48.35-5.55-1.61L124,32.42h-7.23c1.85,3.18,2.55,5.2,2.55,7.68,0,3.63-2.93,7.47-8.2,7.47-6.42,0-12.28-5.66-17.48-18.57l3.21-1.6C100.55,36.75,104.49,41,109,41a5.54,5.54,0,0,0,5.59-5.24c0-2-2-3.14-6.14-3.7l-2.2-5,.49-.59H124v-5H93.57Z"/>
  </g>
</svg>
