<svg id="Layer_1" data-name="Layer 1" xmlns="http://www.w3.org/2000/svg" width="151.36" height="62.7" viewBox="0 0 151.36 62.7">
  <defs>
    <style>
      .cls-1 {
        fill: #191919;
      }
    </style>
  </defs>
  <g>
    <path class="cls-1" d="M0,16.57l.49-.66H40.06l2.37,4.78-.49.66H35.87L36,52.3l-.49.35L30,51.05l.14-7.4a10.65,10.65,0,0,1-6.66,2.13c-3.11,0-6.46-1.08-9.77-4.68-2.27-2.44-3.56-4.74-3.56-7.71a5.82,5.82,0,0,1,.35-2.16H6L3.59,26.31l.53-.66,22.82,0v5l-.39.42H21.88c-3.74,0-5.76,2.2-5.76,5.2,0,2.72,2.13,3.91,4.33,3.91a10.93,10.93,0,0,0,7.36-2.76A6.65,6.65,0,0,0,30.08,32V21.35H2.37Z"/>
    <path class="cls-1" d="M38.94,16.57l.49-.66H46c-1.71-2.06-2.65-3.91-2.65-6C43.37,5.13,47.31,0,55.44,0c7.05,0,14.73,3.73,23.38,12.28l-1.46,2.31H76.9C71.22,9.28,65.35,5.86,59.11,5.86s-10,3.67-10,7.82a4.91,4.91,0,0,0,.49,2.23H55l2.37,4.78-.49.66H50.8l.14,30.95-.49.35L44.84,51,45,21.35H41.31Z"/>
    <path class="cls-1" d="M53.87,16.57l.49-.66H86.11l2.38,4.78-.49.66H81.72l.07,8.17-.6.73H76.27a52.78,52.78,0,0,0-5.93.28,5.43,5.43,0,0,0-3.52,1.54,2.83,2.83,0,0,0-.77,1.71c0,.76.73,1.08,1.64,1.08,2.83,0,6.18-1.12,9.14-1.12,3.91,0,5.17,1.68,6.63,4.36a10.47,10.47,0,0,1,1.4,5.1c0,3.8-3.42,8.3-9.67,8.3-6.52,0-13-4.6-18.52-13.75l0-.42,2.44-1.67c4,6.73,8.31,9.77,13.19,9.77,5.06,0,7.89-3.42,7.89-5.3,0-.32-.28-.56-1.43-.56-1.75,0-6.84,1.25-9.21,1.25-1.71,0-3.35-1.11-5.59-3.69-1.88-2.24-3-4.33-3-6.35,0-5.1,4.64-6,10.82-6H76V21.35H56.25Z"/>
    <path class="cls-1" d="M77.57,53.28,82.28,58,77.57,62.7,72.86,58Z"/>
    <path class="cls-1" d="M85,16.57l.49-.66h6.59c-1.71-2.06-2.65-3.91-2.65-6C89.43,5.13,93.37,0,101.5,0c7,0,14.73,3.73,23.38,12.28l-1.47,2.31H123c-5.69-5.31-11.55-8.73-17.79-8.73s-10,3.67-10,7.82a4.91,4.91,0,0,0,.49,2.23h5.34l2.37,4.78-.49.66H96.86L97,52.3l-.49.35L90.89,51,91,21.35H87.37Z"/>
    <path class="cls-1" d="M99.93,16.57l.49-.66h33.64l2.37,4.78-.49.66h-6.07L130,52.3l-.49.35L124,51.05l.14-8.1a10.23,10.23,0,0,1-5.62,1.47c-6.9,0-12-5-15.49-14.66l.39-.66c5-1.12,8.37-2.51,8.37-5.34a3.77,3.77,0,0,0-.87-2.41H102.3Zm24.25,4.78h-9a13.35,13.35,0,0,1,2,6.21c0,3.39-2.93,5.41-7.85,6.56.73,2.87,3,4.44,6.84,4.44a10,10,0,0,0,6.21-2.13,4.94,4.94,0,0,0,1.81-4.15Z"/>
    <path class="cls-1" d="M132.94,16.57l.49-.66H149l2.37,4.78-.49.66H144.8l.14,30.95-.49.35L138.84,51,139,21.35h-3.67Z"/>
  </g>
</svg>
