<svg id="Layer_1" data-name="Layer 1" xmlns="http://www.w3.org/2000/svg" width="94.95" height="57.48" viewBox="0 0 94.95 57.48">
  <defs>
    <style>
      .cls-1 {
        fill: #191919;
      }
    </style>
  </defs>
  <g>
    <path class="cls-1" d="M0,15.67l2.37,5,22.52,0v3.42L8.81,24S4.37,24.52,4,28.87A8.39,8.39,0,0,0,9.2,36.78c2.37,1,6.11,1.5,6.26,3.39s-.57,2.65-2.94,2.65-2.37-1.6-4.59-1.6-3.77,1.31-3.74,2.94a5.39,5.39,0,0,0,5.13,5.55,9.38,9.38,0,0,0,3.53-.56s.8,3.86,3.05,5.57a21.86,21.86,0,0,0,6.26,2.76l2-5.86a8.31,8.31,0,0,1-5.49-.76A5.67,5.67,0,0,1,16,47.69s4.44-.94,4.66-5c.24-4.4-1.7-7.5-4.37-9.07-3.25-1.93-6.4-1-6.55-2.65-.16-1.86,2.41-1.64,2.41-1.64H24.89V48.74l5.9,2V20.69l8.64,0V15.57Z"/>
    <path class="cls-1" d="M32.71,16.2l.46-.63H48.08l2.27,4.58-.47.63H44.07l.13,29.63-.47.34-5.38-1.57.14-28.4H35Z"/>
    <path class="cls-1" d="M46.54,16.2l.46-.63H78.58l2.27,4.58-.47.63H74.57l.13,29.63-.47.34-5.31-1.54.17-15.83c-1.57-.14-2.74-.17-4.31-.17a19.33,19.33,0,0,0-4.88.5,31.74,31.74,0,0,1,.3,3.68,2.91,2.91,0,0,1-2.91,3.4c-1.17,0-2.67-1-4.57-2.94s-2.81-3.71-2.81-5.11c0-.87.5-5.31,9.29-5.31a72.9,72.9,0,0,1,9.85.8V20.78H48.81Z"/>
    <path class="cls-1" d="M77.31,16.2l.47-.63h5.37C82.82,8.75,80.58,5,76,5a4.29,4.29,0,0,0-4.64,4.41,6.65,6.65,0,0,0,1.9,4.45l-.5.77-5-2.21a9.22,9.22,0,0,1-2.21-5.88C65.48,2.67,68.62,0,73.17,0,77.11,0,81,2.07,84.39,6.78a26.59,26.59,0,0,1,4,8.79h4.31L95,20.15l-.47.63H88.67l.13,29.63-.47.34L83,49.18l.14-28.4H79.58Z"/>
  </g>
</svg>
