<svg id="Layer_1" data-name="Layer 1" xmlns="http://www.w3.org/2000/svg" width="124.54" height="53.28" viewBox="0 0 124.54 53.28">
  <defs>
    <style>
      .cls-1 {
        fill: #191919;
      }
    </style>
  </defs>
  <g>
    <path class="cls-1" d="M0,17l.49-.66H36.31l2.38,4.8-.49.67H32.1l.14,31.11-.49.35-5.58-1.61.17-12.49H15.05c0,4.53-.14,5.12-1.3,6a3.1,3.1,0,0,1-1.79.63c-1.16,0-2.87-1-5.12-3.05-2-1.9-3.12-3.79-3.12-5.58,0-1.58.84-3.09,5.58-4.11V21.82H2.39ZM14.94,33.22H26.31V21.82H14.94Z"/>
    <path class="cls-1" d="M106,17l.49-.66h5.65c-.36-7.16-2.71-11-7.55-11a4.5,4.5,0,0,0-4.87,4.63,6.94,6.94,0,0,0,2,4.66l-.53.81-5.3-2.32A9.7,9.7,0,0,1,93.6,6.91c0-4.1,3.3-6.91,8.07-6.91,4.14,0,8.17,2.17,11.78,7.12a27.94,27.94,0,0,1,4.18,9.23h4.52l2.39,4.8-.49.67h-6.11l.14,31.11-.49.35-5.65-1.64.14-29.82H108.4Z"/>
    <path class="cls-1" d="M109.52,21.15l-2.38-4.8H62.41l-.49.66,2.39,4.81h8.77a26.46,26.46,0,0,1,.17,2.8,11.07,11.07,0,0,1-1,5.37c-1.19-.07-1.93-.1-2.77-.1a3.83,3.83,0,0,0-2.84.8,3.42,3.42,0,0,0-1,2.32,5.49,5.49,0,0,0,.56,2.07C73.35,51.15,86.29,54.18,97,50.43l.1-5.22c-7.44,4.87-20.77,1.18-23.27-6.38A15,15,0,0,0,79,26.91a46.1,46.1,0,0,0-.28-5.09H97.14v4.49A21.17,21.17,0,0,0,90,25c-5.51,0-8.63,3.23-8.63,7.86,0,3,1.58,5.79,4.32,8.35,2.8,2.35,5.47,3.47,8,3.47a7.13,7.13,0,0,0,3.44-.81L97,51.67l5.58,1.61.49-.35-.14-31.11H109ZM97.21,34.2a4.2,4.2,0,0,1-2,3.86A7.18,7.18,0,0,1,91,39.46c-2.6,0-4-1.33-4-3.47,0-3.44,3.75-5.75,7.61-5.75a15.2,15.2,0,0,1,2.63.17Z"/>
    <path class="cls-1" d="M82.69,21.82l.49-.67-2.38-4.8H36.07l-.49.66L38,21.82h8.77a26.46,26.46,0,0,1,.17,2.8,11.07,11.07,0,0,1-1,5.37c-1.19-.07-1.93-.1-2.77-.1a3.82,3.82,0,0,0-2.84.8,3.42,3.42,0,0,0-1,2.32,5.31,5.31,0,0,0,.56,2.07c7.15,16.07,20.07,19,30.82,15.35L78,48,72.8,43.34l-2,1.87C63.34,50.08,50,46.39,47.51,38.83a15,15,0,0,0,5.12-11.92,48.68,48.68,0,0,0-.28-5.09M70.8,26.31A20.54,20.54,0,0,0,63.68,25c-5.51,0-8.63,3.23-8.63,7.86,0,3,1.58,5.79,4.31,8.35,2.81,2.35,5.48,3.47,8,3.47a6.78,6.78,0,0,0,3.44-.81c1.9-1,2.36-2.09,2.28-6.53C76.26,32.8,77,29.25,70.8,26.31Zm.07,7.89a4.2,4.2,0,0,1-2,3.86,7.18,7.18,0,0,1-4.28,1.4c-2.6,0-4-1.33-4-3.47,0-3.44,3.75-5.75,7.61-5.75a15.2,15.2,0,0,1,2.63.17Z"/>
  </g>
</svg>
