<svg id="Layer_1" data-name="Layer 1" xmlns="http://www.w3.org/2000/svg" width="110" height="55" viewBox="0 0 110 55">
  <defs>
    <style>
      .cls-1 {
        fill: #191919;
      }
    </style>
  </defs>
  <g>
    <path class="cls-1" d="M.11,17.7.6,17H35.53l2.37,4.78-.49.67H31.34l.14,31-.49.34-5.61-1.64.14-29.65H15.33c.31,3.59.42,6.63.42,9.17,0,5.52-.6,8.66-1.85,10.85a3.73,3.73,0,0,1-3.14,1.92c-1.12,0-2.62-1-4.4-2.89-1.57-1.71-2.65-3.39-2.65-4.82a3.11,3.11,0,0,1,.73-2.06C5.21,33.75,7,33.33,9.88,33a34.52,34.52,0,0,0,.25-4.71,46.39,46.39,0,0,0-.35-5.79H2.49Z"/>
    <path class="cls-1" d="M34.41,17.7,34.9,17H68.19l2.37,4.78-.49.67H61.42l.07,8c3.87,3.83,5.41,6.42,5.41,10.08,0,5.86-5.58,11.2-13.26,11.2S38.5,44.25,38.5,37.65c0-5.82,4.22-9.66,13-9.66H54.3c1,0,1.4-.21,1.4-1.33l0-4.18H36.79ZM59.68,33.29H56.85c-5.3,0-8.24.77-10.29,2.55a6.24,6.24,0,0,0-2,4.61c0,4,2.83,5.89,6.32,5.89,5.72,0,10.5-4.25,10.5-8.9A5.65,5.65,0,0,0,59.68,33.29Z"/>
    <path class="cls-1" d="M67.07,17.7l.49-.67h25L95,21.81l-.49.67h-8a22.43,22.43,0,0,1,.38,4.29c0,7-3.14,10.5-7.6,13,2.89,3.14,7.46,6,12.87,8.55L89.4,54.23h-.52c-7.12-5.31-12.7-10.92-16-17.06a9.32,9.32,0,0,1-1.32-3.6,3.73,3.73,0,0,1,.59-1.95,3.6,3.6,0,0,1,3.28-1.47c1.64,0,3.25,0,4.33.14.77-1,1.29-2.58,1.29-5.16a10.62,10.62,0,0,0-.28-2.65H69.45Z"/>
    <path class="cls-1" d="M91.46,17.7,92,17h5.62c-.35-7.12-2.69-11-7.5-11a4.48,4.48,0,0,0-4.85,4.61,6.94,6.94,0,0,0,2,4.64l-.53.8-5.27-2.3a9.69,9.69,0,0,1-2.3-6.14c0-4.09,3.28-6.88,8-6.88,4.11,0,8.13,2.17,11.72,7.09A27.78,27.78,0,0,1,103,17h4.5l2.38,4.78-.49.67h-6.07l.14,31-.49.34-5.62-1.64.14-29.65H93.84Z"/>
  </g>
</svg>
