<svg id="Layer_1" data-name="Layer 1" xmlns="http://www.w3.org/2000/svg" width="122.02" height="49.28" viewBox="0 0 122.02 49.28">
  <defs>
    <style>
      .cls-1 {
        fill: #191919;
      }
    </style>
  </defs>
  <g>
    <path class="cls-1" d="M19.07,15.37l2.05,4.28a.57.57,0,0,0,.52.33h3a.57.57,0,0,1,.57.57l.08,7.91a.52.52,0,0,1-.22.46c-.39.29-1.42.72-4.08.77-4,.07-13.45-2.78-13.47-7.35A4,4,0,0,1,11.92,18a3.94,3.94,0,0,1,3.3,3.73c0,1.82-1,4-5.06,6.56A55.57,55.57,0,0,1,.6,32.61a.91.91,0,0,0-.32,1.52L3.2,36.94a1,1,0,0,0,1.2.18c2.18-1.13,9.2-4.84,11.1-6.94,2.7-3,3-6.31,2.59-9.85a9,9,0,0,0-9-7.06c-6.64,0-6.9,5-6.9,6.54,0,3.11,2.51,8,10,11.43A34.39,34.39,0,0,0,18,33.16a.57.57,0,0,1,.18,1L8.65,40.85a.94.94,0,0,0,0,1.54L12.24,45a.57.57,0,0,0,.68,0l11-8.45a.58.58,0,0,1,.93.46V47.13a.56.56,0,0,0,.41.55l4.61,1.41a.58.58,0,0,0,.74-.55v-28a.58.58,0,0,1,.58-.57l6,0a.6.6,0,0,0,.52-.91l-2.16-3.9a.56.56,0,0,0-.5-.3l-15.72,0Z"/>
    <g>
      <path class="cls-1" d="M34,15.51l.45-.62h6.18C39,13,38.09,11.23,38.09,9.24,38.09,4.8,41.78,0,49.39,0,56,0,63.17,3.49,71.27,11.49L69.9,13.65h-.42c-5.33-5-10.81-8.16-16.66-8.16s-9.3,3.42-9.3,7.31A4.63,4.63,0,0,0,44,14.89h5l2.22,4.47-.46.62H45.05l.13,29-.46.33-5.25-1.54L39.6,20H36.17Z"/>
      <path class="cls-1" d="M46.81,15.51l.46-.62H80.61l2.22,4.47-.46.62H76.69l.13,29-.46.33-5.19-1.51.16-11.62H60.82c0,4.21-.13,4.77-1.21,5.55a2.88,2.88,0,0,1-1.67.59c-1.07,0-2.67-.88-4.76-2.84-1.83-1.77-2.91-3.53-2.91-5.19,0-1.47.78-2.88,5.19-3.83V20H49ZM60.72,30.6H71.3V20H60.72Z"/>
      <path class="cls-1" d="M79.37,15.51l.46-.62h40L122,19.36l-.46.62H104.81v7.84l.1.07a9.16,9.16,0,0,1,5.22-1.9,7.69,7.69,0,0,1,6,2.81,9.74,9.74,0,0,1,2.74,6.76c0,3.3-1.6,7.09-4.08,10.35h-.46l-4.86-3.75c2.81-3.5,4.9-7.12,4.9-9.64,0-1.2-.49-1.76-1.64-1.76-2.35,0-5.22,2.12-7.87,5.19l.07,13-.46.33-5.06-1.51.16-7.34-.06,0a8.53,8.53,0,0,1-5.36,1.7c-3.46,0-5.68-1.7-8-4.08a10.62,10.62,0,0,1-2.94-6.66c0-4.77,3.82-7.84,8.92-7.84a24.2,24.2,0,0,1,7.41,1.28V20h-18ZM99.62,28.8a16.37,16.37,0,0,0-3.17-.29c-5.46,0-8,2.77-8,6,0,1.77,1.31,2.62,3.49,2.62,2.52,0,5.13-1.24,7.65-3.86Z"/>
    </g>
  </g>
</svg>
