<svg id="Layer_1" data-name="Layer 1" xmlns="http://www.w3.org/2000/svg" width="143.6" height="54.57" viewBox="0 0 143.6 54.57">
  <defs>
    <style>
      .cls-1 {
        fill: #191919;
      }
    </style>
  </defs>
  <g>
    <path class="cls-1" d="M13.16,18.32l.49-.66H55.9l2.37,4.78-.48.66H51.72l.13,30.95-.48.35-5.55-1.61L46,34.05H38.74c1.84,3.18,2.54,5.2,2.54,7.68,0,3.63-2.93,7.47-8.2,7.47-6.42,0-12.28-5.65-17.48-18.56L18.81,29c3.7,9.35,7.64,13.61,12.14,13.61a5.54,5.54,0,0,0,5.59-5.24c0-2-2-3.14-6.14-3.69l-2.2-5,.49-.6H46v-5H15.53Z"/>
    <path class="cls-1" d="M0,18.32l.49-.66H7.08c-1.71-2.06-2.65-3.91-2.65-6,0-4.75,3.94-9.88,12.07-9.88,7.05,0,14.73,3.74,23.38,12.29l-1.46,2.3H38C32.28,11,26.41,7.61,20.17,7.61s-10,3.66-10,7.81a5,5,0,0,0,.49,2.24h5.34l2.37,4.78-.49.66H11.86L12,54.05l-.49.35L5.9,52.76,6,23.1H2.37Z"/>
    <path class="cls-1" d="M54.24,18.32l.49-.66H93.84l2.37,4.78-.49.66H89.65l.14,30.95-.49.35-5.54-1.61.1-19.57c-5.58,1.57-7,3.8-8.44,8.69h-.49l-4.64-3.18a13.91,13.91,0,0,1,2.58-6,5.71,5.71,0,0,0-2.48-.56C67,32.17,64,35.31,64,39.32c0,4.54,3.53,7.37,10.29,9.6L72.62,54.4l-.45.17c-7.12-3.7-13.75-11.34-13.75-18.67,0-5.79,3.88-9.07,8.48-9.1,3.21,0,5.17,1.29,8.27,3.66a21.34,21.34,0,0,1,8.73-3.14V23.1H56.61Z"/>
    <path class="cls-1" d="M85.26,18.35C82.57,11,81,6.56,75.8,6.56a24.24,24.24,0,0,0-6.77,1h-.14L66.24,1a26.9,26.9,0,0,1,7.22-1c7.12,0,9.63,5.62,15.42,18l-.24.35Z"/>
    <path class="cls-1" d="M92.72,18.32l.49-.66h33.08l2.37,4.78-.49.66H122.1l.14,30.95-.49.35-5.54-1.61.14-7.26a12.89,12.89,0,0,1-6.6,1.82c-3.73,0-7.12-1.61-10-5.23-2.17-2.76-2.9-5.1-2.9-7,0-4.6,3.45-8.44,10.71-8.44a35.93,35.93,0,0,1,8.8,1.29V23.1H95.1Zm12.63,15a5.59,5.59,0,0,0-3,4.92c0,1.92,1.78,3.7,5.41,3.7a12.07,12.07,0,0,0,3.18-.42Zm8.41,7c2-1.33,2.65-2.62,2.65-4.26V32.55a24.34,24.34,0,0,0-5.23-.55,17,17,0,0,0-2.79.21Z"/>
    <path class="cls-1" d="M125.17,18.32l.49-.66h5.62c-.35-7.12-2.69-11-7.5-11a4.48,4.48,0,0,0-4.85,4.61,6.93,6.93,0,0,0,2,4.64l-.53.8-5.27-2.3a9.67,9.67,0,0,1-2.3-6.14c0-4.08,3.28-6.87,8-6.87,4.11,0,8.13,2.16,11.72,7.08a27.72,27.72,0,0,1,4.15,9.18h4.5l2.38,4.78-.49.66H137l.14,30.95-.49.35-5.62-1.64.14-29.66h-3.66Z"/>
  </g>
</svg>
