<svg id="Layer_1" data-name="Layer 1" xmlns="http://www.w3.org/2000/svg" width="99.12" height="54.34" viewBox="0 0 99.12 54.34">
  <defs>
    <style>
      .cls-1 {
        fill: #191919;
      }
    </style>
  </defs>
  <g>
    <path class="cls-1" d="M33.39,18.3l.49-.67h6c-2.55-6.9-4.15-11.08-9.2-11.08a24.11,24.11,0,0,0-6.76,1h-.14L21.16,1a26.77,26.77,0,0,1,7.21-1c7,0,9.58,5.51,15.23,17.63h5.82l2.37,4.78-.49.66H45.24L45.38,54l-.49.35-5.61-1.64.14-29.62H35.76Z"/>
    <path class="cls-1" d="M48.31,18.3l.48-.67h33l2.37,4.78-.49.66H77.65L77.79,54l-.49.35-5.54-1.6.14-7.25a12.91,12.91,0,0,1-6.59,1.81c-3.73,0-7.11-1.6-10-5.23-2.16-2.75-2.89-5.08-2.89-7,0-4.6,3.45-8.43,10.7-8.43a36.19,36.19,0,0,1,8.78,1.28V23.07H50.67Zm12.61,15a5.56,5.56,0,0,0-3,4.91c0,1.92,1.78,3.69,5.41,3.69a11.93,11.93,0,0,0,3.17-.41Zm8.4,7C71.34,38.89,72,37.6,72,36V32.51A24.41,24.41,0,0,0,66.74,32a17,17,0,0,0-2.79.21Z"/>
    <path class="cls-1" d="M80.72,18.3l.48-.67h5.61c-.34-7.11-2.68-11-7.49-11a4.47,4.47,0,0,0-4.84,4.6,7,7,0,0,0,2,4.63l-.52.8-5.26-2.3a9.64,9.64,0,0,1-2.3-6.13c0-4.08,3.27-6.87,8-6.87,4.12,0,8.12,2.16,11.71,7.08a27.82,27.82,0,0,1,4.15,9.16h4.5l2.37,4.78-.49.66H92.56L92.7,54l-.48.35-5.61-1.64.13-29.62H83.09Z"/>
    <path class="cls-1" d="M18,18.31l.49-.66h16l2.37,4.77-.49.66H30.32L30.46,54l-.49.35-5.54-1.6.14-7.18a14.32,14.32,0,0,1-6.31,1.5c-2.68,0-5.3-1.08-8.08-3.77-2.51-2.47-4-5.08-4-7.94a6.26,6.26,0,0,1,.87-3.07C3.45,29.25,0,26.15,0,22.21c0-4.7,3.76-7.46,7.84-7.46,2.34,0,5.06,1.07,6,3,3.31,6.83-2.05,10.52-5.52,11.21l-1.09-.86c4.12-1.76,5.71-6,2.92-7.39-2.24-1.14-4.84,1.4-4.77,4.52,0,2.26,1.88,3.45,4.91,3.45a71.81,71.81,0,0,0,7.49-1.12l3.17,5.13-.27.38c-7.91,1-9.07,4.18-9.07,5.75,0,1.36,1.33,2.54,3.73,2.54a12.07,12.07,0,0,0,5.16-1.29c2.3-1.11,4-2.54,4-5.47V23.08H20.39Z"/>
  </g>
</svg>
