<svg id="Layer_1" data-name="Layer 1" xmlns="http://www.w3.org/2000/svg" width="120" height="40" viewBox="0 0 120 40">
  <defs>
    <style>
      .cls-1 {
        fill: #191919;
      }
    </style>
  </defs>
  <g>
    <path class="cls-1" d="M.47,2.2,1,1.54H43.67L46,6.32,45.55,7H27.65v8.37l.11.07a9.76,9.76,0,0,1,5.58-2,8.19,8.19,0,0,1,6.42,3,10.35,10.35,0,0,1,2.93,7.22c0,3.52-1.71,7.57-4.36,11.06h-.49l-5.2-4c3-3.74,5.24-7.61,5.24-10.3,0-1.29-.53-1.88-1.75-1.88-2.51,0-5.58,2.27-8.41,5.55l.07,13.88-.48.35-5.41-1.6.17-7.85-.07,0a9.13,9.13,0,0,1-5.72,1.82c-3.7,0-6.07-1.82-8.55-4.36a11.41,11.41,0,0,1-3.14-7.12c0-5.1,4.08-8.38,9.53-8.38A26,26,0,0,1,22,12.11V7H2.85ZM22.11,16.41a16.9,16.9,0,0,0-3.39-.32c-5.82,0-8.51,3-8.51,6.39,0,1.88,1.39,2.79,3.73,2.79,2.69,0,5.48-1.33,8.17-4.12Z"/>
    <path class="cls-1" d="M42.55,2.2,43,1.54H82.16l2.37,4.78L84,7H78l.14,30.94-.49.35-5.55-1.6.11-19.58c-5.59,1.57-7.05,3.81-8.45,8.69h-.49L58.6,22.62a14,14,0,0,1,2.59-6,5.61,5.61,0,0,0-2.48-.56c-3.42,0-6.35,3.14-6.35,7.15,0,4.54,3.52,7.36,10.29,9.6l-1.71,5.47-.45.18c-7.12-3.7-13.75-11.34-13.75-18.67,0-5.79,3.87-9.07,8.48-9.11,3.21,0,5.16,1.29,8.27,3.67a21.15,21.15,0,0,1,8.72-3.14V7H44.93Z"/>
    <path class="cls-1" d="M81,2.2l.49-.66h35.62l2.38,4.78L119,7H113l.14,30.94-.49.35-5.55-1.6.17-12.42H96c0,4.5-.14,5.09-1.29,5.93a3.07,3.07,0,0,1-1.78.63c-1.15,0-2.86-.95-5.1-3-2-1.88-3.1-3.77-3.1-5.55,0-1.57.84-3.07,5.55-4.08V7H83.41ZM95.9,18.33h11.31V7H95.9Z"/>
  </g>
</svg>
