<svg id="Layer_1" data-name="Layer 1" xmlns="http://www.w3.org/2000/svg" width="115.63" height="63.05" viewBox="0 0 115.63 63.05">
  <defs>
    <style>
      .cls-1 {
        fill: #191919;
      }
    </style>
  </defs>
  <g>
    <path class="cls-1" d="M0,16.92l.49-.66H32.9L35.28,21l-.49.66H28.72l.14,31-.49.35-5.55-1.6L23,42.05a9.12,9.12,0,0,1-4.78,1.39A11.93,11.93,0,0,1,11.37,41c-4.18-3-5.86-5.62-5.86-13.09,0-2.23,0-4.32.11-6.21H2.37ZM23,21.7H11.72c-.07,1.82-.1,4.05-.1,6.53,0,6.28.21,9.87,3.84,9.87a8.9,8.9,0,0,0,5.41-2.23A5.7,5.7,0,0,0,23,31.23Z"/>
    <path class="cls-1" d="M31.79,16.92l.49-.66H67.2L69.58,21l-.49.66H63l.14,31-.49.35-5.62-1.64.14-29.66H47c.31,3.6.42,6.63.42,9.18,0,5.51-.59,8.65-1.85,10.85a3.73,3.73,0,0,1-3.14,1.92c-1.12,0-2.62-1-4.4-2.9-1.57-1.71-2.65-3.38-2.65-4.81a3.14,3.14,0,0,1,.73-2.06c.77-.91,2.59-1.33,5.45-1.67a34.55,34.55,0,0,0,.24-4.71,44.82,44.82,0,0,0-.35-5.8H34.16Z"/>
    <path class="cls-1" d="M66.09,16.92l.48-.66H98.33L100.7,21l-.49.66H93.93L94,29.87l-.59.73H88.49a52.55,52.55,0,0,0-5.93.28A5.44,5.44,0,0,0,79,32.42a2.83,2.83,0,0,0-.77,1.7c0,.77.74,1.09,1.64,1.09,2.83,0,6.18-1.12,9.15-1.12,3.9,0,5.16,1.67,6.62,4.36a10.36,10.36,0,0,1,1.4,5.1c0,3.8-3.42,8.3-9.66,8.3-6.53,0-13-4.61-18.53-13.75l0-.42L71.35,36c4.05,6.73,8.31,9.77,13.19,9.77,5.06,0,7.89-3.42,7.89-5.3,0-.32-.28-.56-1.43-.56-1.75,0-6.84,1.25-9.21,1.25-1.71,0-3.35-1.11-5.59-3.7-1.88-2.23-3-4.32-3-6.35,0-5.09,4.64-6,10.82-6h4.19V21.7H68.46Z"/>
    <path class="cls-1" d="M89.78,53.63l4.71,4.71-4.71,4.71-4.71-4.71Z"/>
    <path class="cls-1" d="M97.21,16.92l.49-.66h5.62c-.35-7.12-2.69-11-7.51-11A4.48,4.48,0,0,0,91,9.87a7,7,0,0,0,2,4.65l-.52.8L87.16,13a9.65,9.65,0,0,1-2.3-6.14c0-4.08,3.28-6.87,8-6.87C97,0,101,2.16,104.61,7.08a27.93,27.93,0,0,1,4.15,9.18h4.5L115.63,21l-.49.66h-6.07l.14,31-.49.35-5.61-1.64.14-29.66H99.58Z"/>
  </g>
</svg>
