<svg id="Layer_1" data-name="Layer 1" xmlns="http://www.w3.org/2000/svg" width="131.73" height="53.42" viewBox="0 0 131.73 53.42">
  <defs>
    <style>
      .cls-1 {
        fill: #191919;
      }
    </style>
  </defs>
  <g>
    <path class="cls-1" d="M0,16.89l.49-.67H32.24L34.61,21l-.49.66H27.84l.07,8.16-.59.74H22.4a55.24,55.24,0,0,0-5.93.27A5.41,5.41,0,0,0,13,32.38a2.85,2.85,0,0,0-.77,1.71c0,.77.73,1.08,1.64,1.08,2.82,0,6.17-1.12,9.14-1.12,3.91,0,5.16,1.68,6.63,4.37A10.41,10.41,0,0,1,31,43.51c0,3.8-3.42,8.31-9.66,8.31-6.53,0-13-4.61-18.53-13.75l0-.42L5.27,36c4.05,6.74,8.3,9.77,13.19,9.77,5.06,0,7.88-3.42,7.88-5.3,0-.31-.28-.56-1.43-.56-1.74,0-6.84,1.26-9.21,1.26-1.71,0-3.35-1.12-5.58-3.7-1.89-2.23-3-4.33-3-6.35,0-5.1,4.64-6,10.81-6h4.19V21.67H2.37Z"/>
    <path class="cls-1" d="M30.46.1l.28.11C32.48,5.3,35,7.75,38.17,7.75c3,0,5.48-2.41,7-7.68L45.6,0l3.63,3.42c-1.11,6.31-5,10-9.7,10Q32,13.4,28.37,2.06Zm.66,16.79.49-.67H47.17L49.55,21l-.49.66H43l.14,30.95-.49.35L37,51.33l.14-29.66H33.5Z"/>
    <path class="cls-1" d="M46.06,16.89l.49-.67h42.7L91.63,21l-.49.66H73.24V30l.1.07a9.86,9.86,0,0,1,5.59-2,8.26,8.26,0,0,1,6.42,3c2,2.2-2.41,2.09-3.63,2.09-2.51,0-5.58,2.27-8.41,5.55l.07,13.89-.49.35-5.41-1.61.18-7.85-.07,0a9.21,9.21,0,0,1-5.73,1.81c-3.69,0-6.07-1.81-8.54-4.36a11.33,11.33,0,0,1-3.14-7.12c0-5.09,4.08-8.37,9.52-8.37a26,26,0,0,1,7.92,1.36V21.67H48.43Zm21.63,14.2a16.9,16.9,0,0,0-3.38-.31c-5.83,0-8.52,3-8.52,6.38,0,1.88,1.4,2.79,3.74,2.79,2.68,0,5.47-1.32,8.16-4.12Z"/>
    <path class="cls-1" d="M73.85,16.89l.48-.67H105L107.34,21l-.49.63h-6.28l0,10-.52.73h-4c-8.37,0-12.21,2.41-12.21,7,0,2.89,2.16,5.23,6.14,5.23,3.67,0,7.64-1.71,11.48-5.79l3.84,5.27-.11.56a16.09,16.09,0,0,1-11.93,5.61,15.36,15.36,0,0,1-11-4.71c-2.87-3.07-4.44-6.07-4.44-9.17,0-4.57,2.48-9.42,12.22-9.42h3.52c.94,0,1.26-.39,1.26-1.33V21.67H76.22Z"/>
    <path class="cls-1" d="M103.85,16.89l.49-.67h25L131.73,21l-.49.66h-8A22.43,22.43,0,0,1,123.6,26c0,7-3.14,10.5-7.6,13,2.89,3.14,7.46,6,12.87,8.55l-2.69,5.93h-.52c-7.12-5.3-12.7-10.92-16-17.06a9.11,9.11,0,0,1-1.33-3.6,3.78,3.78,0,0,1,.59-1.95,3.6,3.6,0,0,1,3.28-1.47c1.64,0,3.25,0,4.33.14.77-1,1.29-2.58,1.29-5.16a10.62,10.62,0,0,0-.28-2.65h-11.3Z"/>
  </g>
</svg>
