<svg id="Layer_1" data-name="Layer 1" xmlns="http://www.w3.org/2000/svg" xmlns:xlink="http://www.w3.org/1999/xlink" viewBox="0 0 1600 900"><defs><style>.cls-1{fill:none;}.cls-2{clip-path:url(#clip-path);}.cls-3{fill:#59a1f7;}.cls-4{fill:#60aaf4;}</style><clipPath id="clip-path"><rect class="cls-1" width="1600" height="900"/></clipPath></defs><g class="cls-2"><rect class="cls-3" width="1600" height="900"/><polygon class="cls-4" points="800 22.52 769.26 57.83 780.92 103.16 737.85 84.84 698.33 109.93 702.45 63.3 666.37 33.48 711.99 22.99 729.21 -20.54 753.28 19.6 800 22.52"/><polygon class="cls-4" points="1009.29 65.95 978.55 101.25 990.21 146.59 947.14 128.26 907.62 153.36 911.74 106.73 875.66 76.91 921.28 66.41 938.5 22.88 962.57 63.03 1009.29 65.95"/><polygon class="cls-4" points="1241.61 43.06 1210.88 78.37 1222.53 123.7 1179.46 105.38 1139.95 130.47 1144.06 83.85 1107.98 54.02 1153.6 43.53 1170.82 0 1194.89 40.14 1241.61 43.06"/><polygon class="cls-4" points="762.07 207.96 731.34 243.27 742.99 288.6 699.92 270.28 660.41 295.37 664.52 248.75 628.45 218.92 674.06 208.43 691.28 164.9 715.36 205.04 762.07 207.96"/><polygon class="cls-4" points="1174.8 207.96 1144.06 243.27 1155.72 288.6 1112.64 270.28 1073.13 295.37 1077.25 248.75 1041.17 218.92 1086.79 208.43 1104 164.9 1128.08 205.04 1174.8 207.96"/><polygon class="cls-4" points="576.56 307.62 545.82 342.93 557.48 388.26 514.4 369.94 474.89 395.03 479.01 348.41 442.93 318.58 488.55 308.09 505.76 264.56 529.84 304.7 576.56 307.62"/><polygon class="cls-4" points="338.88 290.27 308.14 325.58 319.8 370.91 276.72 352.59 237.21 377.68 241.32 331.06 205.25 301.23 250.86 290.74 268.08 247.21 292.16 287.35 338.88 290.27"/><polygon class="cls-4" points="158.88 482.79 128.14 518.1 139.79 563.43 96.72 545.11 57.21 570.2 61.32 523.58 25.25 493.75 70.86 483.26 88.08 439.73 112.16 479.87 158.88 482.79"/><polygon class="cls-4" points="1118.79 626.29 1088.05 661.59 1099.71 706.93 1056.63 688.61 1017.12 713.7 1021.24 667.07 985.16 637.25 1030.78 626.75 1047.99 583.23 1072.07 623.37 1118.79 626.29"/><polygon class="cls-4" points="585.03 71.3 554.29 106.6 565.95 151.94 522.87 133.61 483.36 158.71 487.48 112.08 451.4 82.26 497.02 71.76 514.23 28.23 538.31 68.38 585.03 71.3"/><polygon class="cls-4" points="376.11 87.76 345.38 123.06 357.03 168.4 313.96 150.07 274.45 175.17 278.56 128.54 242.49 98.72 288.1 88.22 305.32 44.7 329.4 84.84 376.11 87.76"/><polygon class="cls-4" points="181.38 0.71 150.65 36.02 162.3 81.35 119.23 63.03 79.72 88.12 83.83 41.49 47.76 11.67 93.37 1.18 110.59 -42.35 134.67 -2.21 181.38 0.71"/><polygon class="cls-4" points="158.88 194.52 128.14 229.82 139.79 275.16 96.72 256.83 57.21 281.93 61.32 235.3 25.25 205.48 70.86 194.98 88.08 151.46 112.16 191.6 158.88 194.52"/><polygon class="cls-4" points="1415.77 129.28 1385.03 164.59 1396.68 209.92 1353.61 191.6 1314.1 216.69 1318.21 170.06 1282.14 140.24 1327.75 129.75 1344.97 86.22 1369.05 126.36 1415.77 129.28"/><polygon class="cls-4" points="1580.94 0.71 1550.2 36.02 1561.86 81.35 1518.79 63.03 1479.28 88.12 1483.39 41.49 1447.31 11.67 1492.93 1.18 1510.15 -42.35 1534.22 -2.21 1580.94 0.71"/><polygon class="cls-4" points="1580.94 259.76 1550.2 295.06 1561.86 340.39 1518.79 322.07 1479.28 347.17 1483.39 300.54 1447.31 270.72 1492.93 260.22 1510.15 216.69 1534.22 256.83 1580.94 259.76"/><polygon class="cls-4" points="1549.39 485.93 1518.66 521.23 1530.31 566.57 1487.24 548.25 1447.73 573.34 1451.84 526.71 1415.77 496.89 1461.38 486.39 1478.6 442.87 1502.68 483.01 1549.39 485.93"/><polygon class="cls-4" points="1528.22 702.93 1497.48 738.23 1509.14 783.57 1466.06 765.25 1426.55 790.34 1430.67 743.71 1394.59 713.89 1440.21 703.39 1457.42 659.87 1481.5 700.01 1528.22 702.93"/><polygon class="cls-4" points="1672.22 841.28 1641.48 876.59 1653.14 921.92 1610.06 903.6 1570.55 928.69 1574.67 882.07 1538.59 852.24 1584.21 841.75 1601.42 798.22 1625.5 838.36 1672.22 841.28"/><polygon class="cls-4" points="1447.31 863.95 1416.58 899.25 1428.23 944.58 1385.16 926.26 1345.65 951.36 1349.76 904.73 1313.68 874.9 1359.3 864.41 1376.52 820.88 1400.6 861.02 1447.31 863.95"/><polygon class="cls-4" points="961.53 282.21 930.8 317.51 942.46 362.85 899.38 344.53 859.87 369.62 863.98 322.99 827.91 293.17 873.52 282.68 890.74 239.15 914.82 279.29 961.53 282.21"/><polygon class="cls-4" points="1174.8 403.67 1144.06 438.98 1155.72 484.31 1112.64 465.99 1073.13 491.08 1077.25 444.46 1041.17 414.63 1086.79 404.14 1104 360.61 1128.08 400.75 1174.8 403.67"/><polygon class="cls-4" points="743.01 427.83 712.28 463.13 723.93 508.46 680.86 490.14 641.35 515.24 645.46 468.61 609.39 438.79 655 428.29 672.22 384.76 696.3 424.9 743.01 427.83"/><polygon class="cls-4" points="733.19 863.95 702.45 899.25 714.11 944.58 671.03 926.26 631.52 951.36 635.63 904.73 599.56 874.9 645.17 864.41 662.39 820.88 686.47 861.02 733.19 863.95"/><polygon class="cls-4" points="576.56 558.3 545.82 593.61 557.48 638.94 514.4 620.62 474.89 645.71 479.01 599.08 442.93 569.26 488.55 558.76 505.76 515.24 529.84 555.38 576.56 558.3"/><polygon class="cls-4" points="390.87 485.93 360.13 521.23 371.79 566.57 328.71 548.25 289.2 573.34 293.31 526.71 257.24 496.89 302.85 486.39 320.07 442.87 344.15 483.01 390.87 485.93"/><polygon class="cls-4" points="97.07 702.93 66.33 738.23 77.99 783.57 34.92 765.25 -4.6 790.34 -0.48 743.71 -36.56 713.89 9.06 703.39 26.27 659.87 50.35 700.01 97.07 702.93"/><polygon class="cls-4" points="1394.59 338.44 1363.85 373.74 1375.51 419.07 1332.43 400.75 1292.92 425.85 1297.04 379.22 1260.96 349.4 1306.58 338.9 1323.79 295.37 1347.87 335.51 1394.59 338.44"/><polygon class="cls-4" points="541.34 768.17 510.61 803.47 522.26 848.8 479.19 830.48 439.68 855.58 443.79 808.95 407.71 779.13 453.33 768.63 470.55 725.1 494.62 765.25 541.34 768.17"/><polygon class="cls-4" points="338.88 691.53 308.14 726.83 319.8 772.17 276.72 753.84 237.21 778.94 241.32 732.31 205.25 702.49 250.86 691.99 268.08 648.46 292.16 688.61 338.88 691.53"/><polygon class="cls-4" points="762.07 653.97 731.34 689.27 742.99 734.6 699.92 716.28 660.41 741.38 664.52 694.75 628.45 664.92 674.06 654.43 691.28 610.9 715.36 651.04 762.07 653.97"/><polygon class="cls-4" points="1360.09 578.84 1329.35 614.15 1341.01 659.48 1297.93 641.16 1258.42 666.25 1262.54 619.63 1226.46 589.8 1272.08 579.31 1289.29 535.78 1313.37 575.92 1360.09 578.84"/><polygon class="cls-4" points="961.53 768.17 930.8 803.47 942.46 848.8 899.38 830.48 859.87 855.58 863.98 808.95 827.91 779.13 873.52 768.63 890.74 725.1 914.82 765.25 961.53 768.17"/><polygon class="cls-4" points="1269.98 742.09 1239.24 777.39 1250.9 822.73 1207.83 804.4 1168.31 829.5 1172.43 782.87 1136.35 753.05 1181.97 742.55 1199.18 699.02 1223.26 739.17 1269.98 742.09"/><polygon class="cls-4" points="1142.92 863.95 1112.18 899.25 1123.84 944.58 1080.77 926.26 1041.25 951.36 1045.37 904.73 1009.29 874.9 1054.91 864.41 1072.12 820.88 1096.2 861.02 1142.92 863.95"/><polygon class="cls-4" points="248.2 863.95 217.46 899.25 229.12 944.58 186.04 926.26 146.53 951.36 150.65 904.73 114.57 874.9 160.19 864.41 177.4 820.88 201.48 861.02 248.2 863.95"/><polygon class="cls-4" points="937.59 492.91 906.85 528.22 918.51 573.55 875.43 555.23 835.92 580.32 840.04 533.7 803.96 503.87 849.58 493.38 866.79 449.85 890.87 489.99 937.59 492.91"/></g></svg>