<svg id="Layer_1" data-name="Layer 1" xmlns="http://www.w3.org/2000/svg" xmlns:xlink="http://www.w3.org/1999/xlink" width="289.02" height="251.4" viewBox="0 0 289.02 251.4">
  <defs>
    <style>
      .cls-1 {
        fill: #fffa4d;
      }

      .cls-2 {
        fill: #b246af;
      }

      .cls-3 {
        fill: url(#linear-gradient);
      }

      .cls-4 {
        fill: #8e2b00;
      }

      .cls-5 {
        fill: #bc64b5;
      }

      .cls-6 {
        fill: #b750ad;
      }

      .cls-7 {
        fill: #cb88c5;
        stroke: #773e77;
        stroke-miterlimit: 10;
        stroke-width: 2px;
      }

      .cls-8 {
        fill: url(#linear-gradient-2);
      }

      .cls-9 {
        fill: #3788a8;
      }

      .cls-10 {
        fill: url(#linear-gradient-3);
      }

      .cls-11 {
        fill: url(#linear-gradient-4);
      }

      .cls-12 {
        fill: #5e6061;
      }

      .cls-13 {
        fill: #014187;
      }
    </style>
    <linearGradient id="linear-gradient" x1="85.72" y1="48.98" x2="149.99" y2="78.75" gradientUnits="userSpaceOnUse">
      <stop offset="0.08" stop-color="#db6a56"/>
      <stop offset="0.33" stop-color="#de724c"/>
      <stop offset="0.66" stop-color="#bc59a1"/>
      <stop offset="0.88" stop-color="#8a74c3"/>
    </linearGradient>
    <linearGradient id="linear-gradient-2" x1="121.43" y1="198.25" x2="121.43" y2="112.59" gradientUnits="userSpaceOnUse">
      <stop offset="0.13" stop-color="#fff"/>
      <stop offset="0.24" stop-color="#d9f2fa"/>
      <stop offset="0.44" stop-color="#9fddf3"/>
      <stop offset="0.62" stop-color="#70cded"/>
      <stop offset="0.78" stop-color="#4fc1e9"/>
      <stop offset="0.91" stop-color="#3abae6"/>
      <stop offset="1" stop-color="#33b7e5"/>
    </linearGradient>
    <linearGradient id="linear-gradient-3" x1="189.17" y1="90.49" x2="235.87" y2="112.13" xlink:href="#linear-gradient"/>
    <linearGradient id="linear-gradient-4" x1="215.12" y1="198.96" x2="215.12" y2="136.72" xlink:href="#linear-gradient-2"/>
  </defs>
  <g>
    <path class="cls-1" d="M160.16,239.7c-24.13,0-46.43-4.57-66.26-13.57C68.49,214.58,48.06,196,33.18,171,6.65,126.42,8.25,86.45,14.26,60.78,20.79,32.89,33.65,15.61,34.2,14.89A8,8,0,0,1,48.54,18.8c.88,7.8,1.4,15.76,1.9,23.45.21,3.19.42,6.39.66,9.6a11.37,11.37,0,0,1,.63-1.32C56.39,41.92,64,40.6,69.34,40.36c.28,0,.55,0,.82,0a19.84,19.84,0,0,1,15.73,8.09,26.31,26.31,0,0,1,12.68-9.19c2.16-.66,3.3-1.07,3.88-1.3a17.47,17.47,0,0,1,3.86-3.61,29.89,29.89,0,0,1,7.1-3.56,17.12,17.12,0,0,1-.21-2.64,22.87,22.87,0,0,1,1.9-8.19,6.46,6.46,0,0,1,.27-.6,8,8,0,0,1,7.16-4.43,7.8,7.8,0,0,1,1.59.16,8,8,0,0,1,5.93,5.11,22.38,22.38,0,0,1,1.81,8,17.92,17.92,0,0,1-.26,2.92A28.6,28.6,0,0,1,138,34.34a17.23,17.23,0,0,1,3.86,3.6c.58.23,1.72.64,3.88,1.3a26.29,26.29,0,0,1,12.62,9.1c4.8-6.64,11.63-7.76,16.55-8,.28,0,.56,0,.84,0,10.06,0,19.22,8.24,19.22,17.29a45.12,45.12,0,0,1-.3,5.82,8.93,8.93,0,0,1-.43,5.06,9.17,9.17,0,0,1-2.66,3.69V84.74a19.1,19.1,0,0,1,6.35-3.42c1-.31,1.69-.53,2.13-.69a14.79,14.79,0,0,1,2.86-2.56A21,21,0,0,1,206.54,76a17.47,17.47,0,0,1-.32-3.25,22.86,22.86,0,0,1,1.9-8.18,8,8,0,0,1,3.19-3.82l.42-.25h0a8,8,0,0,1,11.33,4.3,22.49,22.49,0,0,1,1.81,8,17.68,17.68,0,0,1-.31,3.18,22,22,0,0,1,3.82,2.13,15.62,15.62,0,0,1,2.87,2.56c.43.16,1.1.38,2.12.69a18.11,18.11,0,0,1,2.91,1.18,13.52,13.52,0,0,1,1.33-3.76c4.57-8.43,12.69-8.81,15.35-8.93l.73,0c8.81,0,16.53,7,16.53,15.07a36.41,36.41,0,0,1-.21,4.36,8.71,8.71,0,0,1-2.37,7.54v79.09a8,8,0,0,1,9.09,12.43c-13.92,17.78-35.06,32-64.63,43.4C202.53,235.38,183.18,239.7,160.16,239.7Z"/>
    <g>
      <g>
        <rect class="cls-2" x="90.91" y="81.81" width="62.37" height="8.57"/>
        <path class="cls-3" d="M143.38,46.89c-9.69-2.92-5.67-2.92-10-6-3.61-2.55-9.07-3.75-10.89-4.09a.32.32,0,0,1,0-.11l-.32.05-.32-.05s0,0,0,.11c-1.83.34-7.29,1.54-10.89,4.09-4.39,3.11-.37,3.11-10.06,6S80.59,67.18,91,81.9h62.24C163.67,67.18,153.07,49.82,143.38,46.89Z"/>
        <g>
          <path class="cls-4" d="M96,52.9a19.6,19.6,0,0,0-4.73,6,19,19,0,0,0-2.1,7.25,20.87,20.87,0,0,0,.08,3.79,14.67,14.67,0,0,0,.27,1.88L90,73.63a12.8,12.8,0,0,0,.57,1.82l.65,1.8c.51,1.17,1.08,2.32,1.62,3.49-.62-1.13-1.25-2.25-1.85-3.39l-.71-1.79a11.7,11.7,0,0,1-.65-1.83l-.49-1.87a15.33,15.33,0,0,1-.29-1.92,21,21,0,0,1-.13-3.88,18.62,18.62,0,0,1,2.27-7.39A17.76,17.76,0,0,1,96,52.9Z"/>
          <path class="cls-4" d="M100.73,51.38A22.59,22.59,0,0,0,94.66,65.6c0,.65,0,1.31,0,2,0,.33,0,.66,0,1l.12,1c.1.65.15,1.31.29,2l.47,1.92a12,12,0,0,0,.58,1.88l.68,1.86c.51,1.22,1.11,2.4,1.67,3.61-.63-1.17-1.3-2.32-1.9-3.51l-.74-1.85a11.44,11.44,0,0,1-.66-1.89l-.52-1.93c-.16-.65-.21-1.32-.32-2l-.14-1c0-.34,0-.67,0-1,0-.67-.06-1.34,0-2a21.4,21.4,0,0,1,1.92-7.75A19.72,19.72,0,0,1,100.73,51.38Z"/>
          <path class="cls-4" d="M105.72,51a32.4,32.4,0,0,0-2.59,7.11A43,43,0,0,0,102,65.6a46.55,46.55,0,0,0,.16,7.56,63.6,63.6,0,0,0,1.25,7.49c-.32-1.23-.7-2.44-1-3.68s-.53-2.49-.65-3.76l-.22-1.9-.08-1.91q-.06-1,0-1.92c0-.63,0-1.27.06-1.91A38.34,38.34,0,0,1,102.76,58,27.32,27.32,0,0,1,105.72,51Z"/>
          <path class="cls-4" d="M111.79,51c-.18,1.23-.29,2.47-.38,3.7s-.16,2.47-.2,3.71c-.08,2.47-.1,4.94,0,7.41.13,5,.58,9.88,1.14,14.81L111.69,77c-.16-1.23-.36-2.46-.48-3.69-.28-2.47-.41-5-.52-7.43s0-5,.14-7.45A52.43,52.43,0,0,1,111.79,51Z"/>
          <path class="cls-4" d="M149,52.9a17.76,17.76,0,0,1,5.06,5.77,18.62,18.62,0,0,1,2.27,7.39,21,21,0,0,1-.13,3.88,15.33,15.33,0,0,1-.29,1.92l-.49,1.87a11.7,11.7,0,0,1-.65,1.83l-.71,1.79c-.6,1.14-1.23,2.26-1.84,3.39.54-1.17,1.1-2.32,1.61-3.49l.65-1.8a12.8,12.8,0,0,0,.57-1.82l.43-1.86a14.67,14.67,0,0,0,.27-1.88,20.87,20.87,0,0,0,.08-3.79,19,19,0,0,0-2.1-7.25A19.6,19.6,0,0,0,149,52.9Z"/>
          <path class="cls-4" d="M144.26,51.38a19.72,19.72,0,0,1,4.65,6.44,21.4,21.4,0,0,1,1.92,7.75c0,.67,0,1.34,0,2,0,.34,0,.67,0,1l-.14,1c-.11.66-.16,1.33-.32,2l-.52,1.93a11.44,11.44,0,0,1-.66,1.89l-.74,1.85c-.6,1.19-1.27,2.34-1.9,3.51.56-1.21,1.16-2.39,1.67-3.61l.68-1.86a12,12,0,0,0,.58-1.88l.47-1.92c.14-.64.19-1.3.29-2l.12-1c0-.33,0-.66,0-1,0-.65,0-1.31,0-2a22.59,22.59,0,0,0-6.07-14.22Z"/>
          <path class="cls-4" d="M139.27,51a27.32,27.32,0,0,1,3,7,38.34,38.34,0,0,1,1.26,7.53c0,.64,0,1.28.06,1.91s0,1.28,0,1.92l-.08,1.91-.22,1.9c-.12,1.27-.43,2.51-.65,3.76s-.66,2.45-1,3.68a61.59,61.59,0,0,0,1.25-7.49A46.55,46.55,0,0,0,143,65.6a43,43,0,0,0-1.14-7.47A32.4,32.4,0,0,0,139.27,51Z"/>
          <path class="cls-4" d="M133.2,51a51,51,0,0,1,1,7.39c.17,2.48.18,5,.14,7.45s-.24,5-.52,7.43c-.12,1.23-.32,2.46-.48,3.69l-.64,3.67c.56-4.93,1-9.86,1.14-14.81.08-2.47.06-4.94,0-7.41,0-1.24-.1-2.48-.2-3.71S133.38,52.25,133.2,51Z"/>
          <path class="cls-4" d="M122.59,50.67q.15,3.72.21,7.45l.08,7.45,0,7.45c0,2.48-.09,5-.17,7.45-.1-2.48-.18-5-.22-7.45l-.08-7.45,0-7.45C122.44,55.64,122.5,53.15,122.59,50.67Z"/>
        </g>
        <rect class="cls-5" x="76.46" y="86.89" width="89.94" height="111.36"/>
        <rect class="cls-6" x="85.54" y="98.14" width="71.78" height="88.87"/>
        <rect class="cls-7" x="89.86" y="103.49" width="63.13" height="95.3"/>
        <rect class="cls-8" x="93.75" y="112.59" width="55.35" height="85.66"/>
        <path class="cls-9" d="M141.15,147.51c-6-4.41-19.54-8.57-20.25-12.22v-.21s0,.07,0,.1,0-.07,0-.1v.21c-.71,3.65-14.28,7.81-20.25,12.22S95.34,161,95.34,161v41.8c-.2-.26,24.79-.78,25.54-.79s25.74.53,25.54.79V161S147.23,152,141.15,147.51ZM138.39,172v28.64c.13-.18-17-.53-17.51-.54s-17.64.36-17.5.54V172s-.56-6.17,3.61-9.25,13.39-5.87,13.88-8.38v-.14s0,.05,0,.07,0-.05,0-.07v.14c.49,2.51,9.79,5.36,13.88,8.38S138.39,172,138.39,172Z"/>
        <path class="cls-9" d="M130.58,173.66c-2.86-2.2-9.35-4.27-9.69-6.09v-.1s0,0,0,.05,0,0,0-.05v.1c-.34,1.82-6.83,3.89-9.69,6.09s-2.52,6.72-2.52,6.72V201.2c-.1-.13,11.86-.39,12.22-.4s12.32.27,12.22.4V180.38S133.49,175.9,130.58,173.66Zm-1.32,12.18v14.27c.06-.09-8.13-.27-8.38-.28s-8.44.19-8.37.28V185.84s-.27-3.07,1.72-4.61,6.41-2.92,6.64-4.17V177s0,0,0,0,0,0,0,0v.07c.23,1.25,4.68,2.67,6.64,4.17S129.26,185.84,129.26,185.84Z"/>
      </g>
      <g>
        <rect class="cls-2" x="192.94" y="114.35" width="45.32" height="6.22"/>
        <path class="cls-10" d="M231.07,89c-7-2.13-4.12-2.13-7.31-4.38a22.29,22.29,0,0,0-7.91-3,.2.2,0,0,1,0-.08l-.23,0-.23,0a.6.6,0,0,0,0,.08,22.32,22.32,0,0,0-7.92,3c-3.18,2.25-.26,2.25-7.3,4.38s-14.74,14.74-7.17,25.43h45.22C245.81,103.72,238.11,91.1,231.07,89Z"/>
        <g>
          <path class="cls-4" d="M196.64,93.34a14.3,14.3,0,0,0-3.48,4.3,13.51,13.51,0,0,0-1.54,5.29,16.42,16.42,0,0,0,.57,5.49c.22.9.62,1.75.91,2.63s.8,1.68,1.2,2.52c-.43-.82-.89-1.64-1.31-2.47s-.73-1.73-1-2.63a16.57,16.57,0,0,1-.66-5.56A13.58,13.58,0,0,1,196.64,93.34Z"/>
          <path class="cls-4" d="M200.07,92.24A16.09,16.09,0,0,0,196.9,97a15.68,15.68,0,0,0-1.29,5.56c0,.47,0,1,0,1.43a7.59,7.59,0,0,0,.11,1.43c.07.47.1.95.2,1.42l.35,1.4a9,9,0,0,0,.44,1.36l.51,1.35c.38.88.82,1.74,1.23,2.61-.44-.85-.92-1.69-1.35-2.56l-.52-1.35a8.53,8.53,0,0,1-.47-1.37l-.37-1.4c-.11-.47-.15-1-.23-1.44a7.64,7.64,0,0,1-.13-1.44c0-.49,0-1,0-1.46a15.8,15.8,0,0,1,1.39-5.61A14.45,14.45,0,0,1,200.07,92.24Z"/>
          <path class="cls-4" d="M203.71,92a23.21,23.21,0,0,0-1.94,5.15,28.62,28.62,0,0,0-.83,5.44,31.57,31.57,0,0,0,.12,5.5,43.94,43.94,0,0,0,1,5.44c-.23-.9-.49-1.78-.69-2.68s-.37-1.82-.44-2.74a31.06,31.06,0,0,1-.2-5.54,29,29,0,0,1,.92-5.46A19.32,19.32,0,0,1,203.71,92Z"/>
          <path class="cls-4" d="M208.11,92c-.26,1.78-.38,3.58-.47,5.37s-.07,3.6,0,5.4a105,105,0,0,0,.88,10.76l-.43-2.67c-.11-.9-.24-1.79-.32-2.69-.19-1.79-.3-3.59-.38-5.39s0-3.61.1-5.41A37.3,37.3,0,0,1,208.11,92Z"/>
          <path class="cls-4" d="M235.15,93.34a13.57,13.57,0,0,1,5.26,9.57,16.32,16.32,0,0,1-.66,5.56c-.23.9-.64,1.75-1,2.63s-.87,1.65-1.31,2.47c.4-.84.82-1.67,1.2-2.52s.7-1.73.91-2.63a15.92,15.92,0,0,0,.57-5.49,13.5,13.5,0,0,0-1.53-5.29A14.46,14.46,0,0,0,235.15,93.34Z"/>
          <path class="cls-4" d="M231.71,92.24a14.15,14.15,0,0,1,3.32,4.7,15.8,15.8,0,0,1,1.39,5.61c0,.49,0,1,0,1.46a7.64,7.64,0,0,1-.14,1.44,13.92,13.92,0,0,1-.23,1.44l-.37,1.4a8.48,8.48,0,0,1-.46,1.37l-.53,1.35c-.42.87-.9,1.71-1.35,2.56.41-.87.86-1.73,1.24-2.61l.5-1.35a7.2,7.2,0,0,0,.44-1.36l.35-1.4c.1-.47.14-.95.21-1.42a8.53,8.53,0,0,0,.11-1.43c0-.48,0-1,0-1.43A15.46,15.46,0,0,0,234.88,97,15.9,15.9,0,0,0,231.71,92.24Z"/>
          <path class="cls-4" d="M228.08,92a19.66,19.66,0,0,1,2.1,5.11,29.81,29.81,0,0,1,.92,5.46,32,32,0,0,1-.21,5.54c-.07.92-.29,1.82-.43,2.74s-.47,1.78-.69,2.68a45.89,45.89,0,0,0,1-5.44,31.57,31.57,0,0,0,.12-5.5,29.44,29.44,0,0,0-.83-5.44A23.21,23.21,0,0,0,228.08,92Z"/>
          <path class="cls-4" d="M223.67,92a37.3,37.3,0,0,1,.64,5.37c.11,1.8.13,3.6.1,5.41s-.18,3.6-.38,5.39c-.07.9-.21,1.79-.31,2.69l-.44,2.67a99.61,99.61,0,0,0,.88-10.76c.06-1.8.06-3.6,0-5.4A53.81,53.81,0,0,0,223.67,92Z"/>
          <path class="cls-4" d="M216,91.72c.12,3.61.1,7.22.16,10.83s0,7.22-.1,10.83c-.11-3.61-.1-7.22-.15-10.83S215.86,95.33,216,91.72Z"/>
        </g>
        <rect class="cls-5" x="182.44" y="118.04" width="65.36" height="80.92"/>
        <rect class="cls-6" x="189.04" y="126.21" width="52.16" height="64.58"/>
        <rect class="cls-7" x="192.18" y="130.1" width="45.87" height="69.25"/>
        <rect class="cls-11" x="195.01" y="136.72" width="40.22" height="62.24"/>
        <path class="cls-9" d="M229.45,162.09c-4.34-3.21-14.2-6.23-14.72-8.88v-.15s0,.05,0,.07,0,0,0-.07v.15c-.52,2.65-10.38,5.67-14.72,8.88s-3.83,9.8-3.83,9.8v30.38c-.15-.19,18-.57,18.56-.58s18.7.39,18.56.58V171.89S233.87,165.36,229.45,162.09Zm-2,17.77v20.82c.1-.13-12.35-.39-12.72-.4s-12.82.27-12.72.4V179.86s-.4-4.48,2.63-6.72,9.73-4.27,10.08-6.08V167s0,0,0,.05,0,0,0-.05v.11c.35,1.81,7.11,3.88,10.08,6.08S227.44,179.86,227.44,179.86Z"/>
        <path class="cls-9" d="M221.77,181.09c-2.08-1.6-6.8-3.1-7-4.42v-.08a.06.06,0,0,0,0,0v0c-.24,1.32-5,2.82-7,4.42s-1.83,4.88-1.83,4.88V201.1c-.07-.1,8.62-.28,8.88-.29s8.95.19,8.88.29V186S223.88,182.72,221.77,181.09Zm-1,8.85v10.37c0-.07-5.91-.2-6.09-.2s-6.13.13-6.09.2V189.94a4.18,4.18,0,0,1,1.26-3.35c1.42-1.09,4.66-2.12,4.83-3v0c.17.91,3.41,1.94,4.83,3A4.18,4.18,0,0,1,220.81,189.94Z"/>
      </g>
      <g>
        <path class="cls-12" d="M58.85,64.77s-2.13-6.67-.09-10.43c2.22-4.11,5.39-5.74,10.95-6s11.21,4.27,11.21,8.89-.43,6.25-.94,7.36S58.85,64.77,58.85,64.77Z"/>
        <path class="cls-12" d="M59.53,66.23s-3.17-2.06.6-4.11a18.58,18.58,0,0,1,9.24-1.88c1.45,0,9,.68,11,3.34s-4.27,2.9-5.56,3S64.58,68,59.53,66.23Z"/>
        <path class="cls-12" d="M77.67,191.56H60.73V64.77s0-3.93,8.21-3.93c8.38,0,8.73,3.93,8.73,3.93Z"/>
      </g>
      <g>
        <path class="cls-12" d="M163.9,65.48s-2.21-7-.09-10.89c2.32-4.28,5.62-6,11.42-6.24s11.69,4.46,11.69,9.28-.45,6.51-1,7.67S163.9,65.48,163.9,65.48Z"/>
        <path class="cls-12" d="M164.61,67s-3.3-2.15.63-4.29a19.36,19.36,0,0,1,9.64-2c1.51,0,9.36.71,11.51,3.48s-4.47,3-5.8,3.12S169.88,68.87,164.61,67Z"/>
        <path class="cls-12" d="M183.53,197.72H165.86V65.48s0-4.1,8.57-4.1c8.74,0,9.1,4.1,9.1,4.1Z"/>
      </g>
      <g>
        <path class="cls-12" d="M244.73,90.83s-1.69-5.3-.07-8.28c1.76-3.26,4.27-4.55,8.68-4.75s8.89,3.39,8.89,7.06-.34,5-.75,5.83S244.73,90.83,244.73,90.83Z"/>
        <path class="cls-12" d="M245.27,92s-2.51-1.63.47-3.26a14.83,14.83,0,0,1,7.33-1.49c1.15,0,7.12.54,8.75,2.65s-3.39,2.3-4.41,2.37S249.27,93.4,245.27,92Z"/>
        <path class="cls-12" d="M259.65,191.37H246.22V90.83s0-3.12,6.51-3.12,6.92,3.12,6.92,3.12Z"/>
      </g>
      <path class="cls-13" d="M40.59,19.71S-8.67,85,40.05,166.93s145.62,66.39,169.18,57.29,46.4-21.95,61.21-40.87c0,0-102.82,39.55-168.29-13.74C37.37,116.88,45.94,66.82,40.59,19.71Z"/>
      <path class="cls-12" d="M122.88,34.81V32.5a12.35,12.35,0,0,0,1-4.37,16.36,16.36,0,0,0-1.33-5.2v0h0v0a16.43,16.43,0,0,0-1.32,5.2,12.46,12.46,0,0,0,1,4.37v2.31A3.85,3.85,0,0,0,121,37.35h3.15A3.85,3.85,0,0,0,122.88,34.81Z"/>
      <path class="cls-12" d="M215.91,79.43v-2.3a12.46,12.46,0,0,0,1-4.37,16,16,0,0,0-1.33-5.2v0h0v0a16.35,16.35,0,0,0-1.32,5.2,12.46,12.46,0,0,0,1,4.37v2.3A3.87,3.87,0,0,0,214,82h3.14A3.87,3.87,0,0,0,215.91,79.43Z"/>
    </g>
  </g>
</svg>
