<svg id="Layer_1" data-name="Layer 1" xmlns="http://www.w3.org/2000/svg" width="223.4" height="152.43" viewBox="0 0 223.4 152.43">
  <defs>
    <style>
      .cls-1 {
        fill: #050505;
        opacity: 0.5;
      }

      .cls-2 {
        fill: #fff;
      }

      .cls-3 {
        fill: #b3c9c8;
      }

      .cls-3, .cls-4, .cls-5, .cls-6 {
        fill-rule: evenodd;
      }

      .cls-4 {
        fill: #8ba8a7;
      }

      .cls-5 {
        fill: #d1ebe9;
      }

      .cls-6 {
        fill: #9cbdbc;
      }

      .cls-7 {
        fill: #785da5;
      }

      .cls-8 {
        fill: #9776d1;
      }

      .cls-9 {
        fill: #fd0200;
      }

      .cls-10 {
        fill: #3378bf;
      }

      .cls-11 {
        fill: #ff5938;
      }

      .cls-12 {
        fill: #e3001e;
      }

      .cls-13 {
        fill: #ab0300;
      }
    </style>
  </defs>
  <g>
    <path class="cls-1" d="M33.87,150.91a7.89,7.89,0,0,1-.84,0,7.64,7.64,0,0,1-1.58-.32,8,8,0,0,1-5.52-6.4,7.78,7.78,0,0,1,1.62-6.36,25.49,25.49,0,0,1-8-3.35C12.23,129.76,7.16,122.61,6,115.3a22.6,22.6,0,0,1,5.35-18.08,41.65,41.65,0,0,1,3.33-3.41l.59-.56a9.28,9.28,0,0,1-2.78-8.77,10,10,0,0,1,10-8.24,11.33,11.33,0,0,1,1.3.07c6.56.77,14.27,7.86,14,15.53-.14,3.93-1.65,9.82-8.11,15.55a24,24,0,0,0-2.75,2.83c2.62-1.21,6.24-2.78,10.78-4.68,6.51-2.72,13.41-5.49,18.49-7.51,0-.12,0-.25,0-.38a17.79,17.79,0,0,1-1-3.88c0-.3-.07-.6-.1-.9a13.23,13.23,0,0,1-.8-2.81,14.79,14.79,0,0,1-.14-4.17A13,13,0,0,1,54,78.32a11.37,11.37,0,0,1,.21-3.78A9.81,9.81,0,0,1,54,72.37a9.69,9.69,0,0,1,.47-2.87,10.55,10.55,0,0,1,.49-4.78c.11-.31.23-.61.36-.91a11,11,0,0,1,2-7.33,11.6,11.6,0,0,1,4.12-8.19A12.33,12.33,0,0,1,63,47.12,10.8,10.8,0,0,1,65.45,44a11.07,11.07,0,0,1,3.44-4.33,10.87,10.87,0,0,1,3.84-1.86,12.59,12.59,0,0,1,4.43-3.62,14.92,14.92,0,0,1,4-1.28c.2-.2.41-.4.62-.58a13.33,13.33,0,0,1,5.64-2.9,9.92,9.92,0,0,1,1.08-1.07,12.13,12.13,0,0,1,6.72-2.92,17.49,17.49,0,0,1,7.08-2.49,16,16,0,0,1,2.15-.14c.48,0,1,0,1.42.06a22,22,0,0,1,6.2-.9l.86,0A11.3,11.3,0,0,1,117.59,23c.17.08.33.17.49.26a12.9,12.9,0,0,1,2.88.58l.37-.06A13.46,13.46,0,0,1,129,25c.49,0,1-.06,1.46-.06a17.59,17.59,0,0,1,11,3.86,19.72,19.72,0,0,1,9.23,5.68l18.58-15.14A13.82,13.82,0,0,1,183,6.52a14.26,14.26,0,0,1,13.75,17.75,13.74,13.74,0,0,1-6.53,8.64,13.9,13.9,0,0,1-6.87,1.83l-.55,0L164.24,49.87c0,.08,0,.16.07.24a18.94,18.94,0,0,1,2.64,3.3,16.28,16.28,0,0,1,1.4,2.76L196,45.92a13.81,13.81,0,0,1,12.59-8.15A14.24,14.24,0,0,1,221,58.59a13.83,13.83,0,0,1-12.26,7.47h0A13.87,13.87,0,0,1,203.47,65L171.83,76.75c0,.06,0,.13,0,.19a21.74,21.74,0,0,1,.71,9,18.29,18.29,0,0,1,0,6.8c0,.15-.07.36-.13.64a23.07,23.07,0,0,1-.17,4.15A13,13,0,0,1,170.3,103a11.18,11.18,0,0,1-.87,1.15,18.5,18.5,0,0,1-1.46,4.8,14.65,14.65,0,0,1-.86,1.61A15.44,15.44,0,0,1,162.58,122a14.51,14.51,0,0,1-5.44,5.15c-2.33,4.22-5.23,6-7.87,6.59a12.11,12.11,0,0,1-7.56,2.77,10.32,10.32,0,0,1-2-.19,11.35,11.35,0,0,1-1.42-.36,61.72,61.72,0,0,1-7.75,1.65,13.75,13.75,0,0,1-8.43,2.76c-.36,0-.73,0-1.09,0a11.42,11.42,0,0,1-4.12.79,10.85,10.85,0,0,1-3-.42,10.83,10.83,0,0,1-2.13.21,11.68,11.68,0,0,1-4.29-.82,12.17,12.17,0,0,1-2.84-1.59h-.3a39.66,39.66,0,0,1-11.67-1.75,16.3,16.3,0,0,1-2,.14,13.17,13.17,0,0,1-1.9-.14,11,11,0,0,1-1.92.16h-.13a13.39,13.39,0,0,1-6.83-2A12.66,12.66,0,0,1,74.29,132a13.34,13.34,0,0,1-6-4.22c-7.55,5.87-22.47,17.36-28.23,21l-.11.07c-.33.2-.6.37-.85.51l-.28.15c-.23.13-.5.28-.73.39l-.61.28c-.28.12-.63.25-.89.34a8.73,8.73,0,0,1-1.47.33A7.09,7.09,0,0,1,33.87,150.91Z"/>
    <path class="cls-2" d="M28.87,145.91a7.89,7.89,0,0,1-.84,0,7.64,7.64,0,0,1-1.58-.32,8,8,0,0,1-5.52-6.4,7.78,7.78,0,0,1,1.62-6.36,25.49,25.49,0,0,1-8-3.35C7.23,124.76,2.16,117.61,1,110.3A22.6,22.6,0,0,1,6.37,92.22,41.65,41.65,0,0,1,9.7,88.81l.59-.56a9.28,9.28,0,0,1-2.78-8.77,10,10,0,0,1,10-8.24,11.33,11.33,0,0,1,1.3.07c6.56.77,14.27,7.86,14,15.53-.14,3.93-1.65,9.82-8.11,15.55a24,24,0,0,0-2.75,2.83c2.62-1.21,6.24-2.78,10.78-4.68C39.2,97.82,46.1,95.05,51.18,93c0-.12,0-.25,0-.38a17.79,17.79,0,0,1-1-3.88c0-.3-.07-.6-.1-.9a13.23,13.23,0,0,1-.8-2.81,14.79,14.79,0,0,1-.14-4.17A13,13,0,0,1,49,73.32a11.37,11.37,0,0,1,.21-3.78A9.81,9.81,0,0,1,49,67.37a9.69,9.69,0,0,1,.47-2.87,10.55,10.55,0,0,1,.49-4.78c.11-.31.23-.61.36-.91a11,11,0,0,1,2-7.33,11.6,11.6,0,0,1,4.12-8.19A12.33,12.33,0,0,1,58,42.12,10.8,10.8,0,0,1,60.45,39a11.07,11.07,0,0,1,3.44-4.33,10.87,10.87,0,0,1,3.84-1.86,12.59,12.59,0,0,1,4.43-3.62,14.92,14.92,0,0,1,4-1.28c.2-.2.41-.4.62-.58a13.33,13.33,0,0,1,5.64-2.9,9.92,9.92,0,0,1,1.08-1.07,12.13,12.13,0,0,1,6.72-2.92,17.49,17.49,0,0,1,7.08-2.49,16,16,0,0,1,2.15-.14c.48,0,1,0,1.42.06a22,22,0,0,1,6.2-.9l.86,0A11.3,11.3,0,0,1,112.59,18c.17.08.33.17.49.26a12.9,12.9,0,0,1,2.88.58l.37-.06A13.46,13.46,0,0,1,124,20c.49,0,1-.06,1.46-.06a17.59,17.59,0,0,1,11,3.86,19.72,19.72,0,0,1,9.23,5.68l18.58-15.14A13.82,13.82,0,0,1,178,1.52a14.26,14.26,0,0,1,13.75,17.75,13.74,13.74,0,0,1-6.53,8.64,13.9,13.9,0,0,1-6.87,1.83l-.55,0L159.24,44.87c0,.08,0,.16.07.24a18.94,18.94,0,0,1,2.64,3.3,16.28,16.28,0,0,1,1.4,2.76L191,40.92a13.81,13.81,0,0,1,12.59-8.15A14.24,14.24,0,0,1,216,53.59a13.83,13.83,0,0,1-12.26,7.47h0A13.87,13.87,0,0,1,198.47,60L166.83,71.75c0,.06,0,.13,0,.19a21.74,21.74,0,0,1,.71,9,18.29,18.29,0,0,1,0,6.8c0,.15-.07.36-.13.64a23.07,23.07,0,0,1-.17,4.15A13,13,0,0,1,165.3,98a11.18,11.18,0,0,1-.87,1.15,18.5,18.5,0,0,1-1.46,4.8,14.65,14.65,0,0,1-.86,1.61A15.44,15.44,0,0,1,157.58,117a14.51,14.51,0,0,1-5.44,5.15c-2.33,4.22-5.23,6-7.87,6.59a12.11,12.11,0,0,1-7.56,2.77,10.32,10.32,0,0,1-2-.19,11.35,11.35,0,0,1-1.42-.36,61.72,61.72,0,0,1-7.75,1.65,13.75,13.75,0,0,1-8.43,2.76c-.36,0-.73,0-1.09,0a11.42,11.42,0,0,1-4.12.79,10.85,10.85,0,0,1-3-.42,10.83,10.83,0,0,1-2.13.21,11.68,11.68,0,0,1-4.29-.82,12.17,12.17,0,0,1-2.84-1.59h-.3a39.66,39.66,0,0,1-11.67-1.75,16.3,16.3,0,0,1-2,.14,13.17,13.17,0,0,1-1.9-.14,11,11,0,0,1-1.92.16h-.13a13.39,13.39,0,0,1-6.83-2A12.66,12.66,0,0,1,69.29,127a13.34,13.34,0,0,1-6-4.22c-7.55,5.87-22.47,17.36-28.23,21l-.11.07c-.33.2-.6.37-.85.51l-.28.15c-.23.13-.5.28-.73.39l-.61.28c-.28.12-.63.25-.89.34a8.73,8.73,0,0,1-1.47.33A7.09,7.09,0,0,1,28.87,145.91Z"/>
    <g>
      <g>
        <g>
          <path class="cls-3" d="M20.59,115.08c.28-1.6,39.84-17.19,46.7-19.73L200.84,45.79c2.24.69,2.81,2.23,1.57,4.22L68.86,99.57c-6.86,2.55-47,16.54-48.27,15.51Z"/>
          <path class="cls-4" d="M202.93,47.43a3,3,0,0,1-.52,2.58L68.86,99.57C62,102.11,22.18,116,20.62,115.09Z"/>
          <path class="cls-5" d="M123,76.37c37.77-14,68.51-25.66,68.41-25.93s-31,11-68.77,25-68.5,25.67-68.4,25.93,31-11,68.76-25Z"/>
          <path class="cls-6" d="M123.69,78.37c37.77-14,68.51-25.67,68.41-25.93s-31,11-68.77,25-68.5,25.66-68.4,25.92,31-11,68.76-25Z"/>
        </g>
        <g>
          <ellipse class="cls-7" cx="203.65" cy="46.92" rx="5.96" ry="6.16" transform="translate(-4.94 59.79) rotate(-16.5)"/>
          <ellipse class="cls-8" cx="202.9" cy="46.11" rx="3.9" ry="4.03" transform="translate(-4.74 59.54) rotate(-16.5)"/>
          <ellipse class="cls-2" cx="202.09" cy="45.41" rx="1.74" ry="1.79" transform="translate(-4.57 59.28) rotate(-16.5)"/>
        </g>
      </g>
      <g>
        <g>
          <path class="cls-3" d="M28.83,137.9c-.25-1.6,32.17-29.11,37.84-33.73l110.43-90c2.35-.06,3.38,1.21,2.85,3.5l-110.43,90c-5.67,4.62-39.17,30.81-40.69,30.24Z"/>
          <path class="cls-4" d="M179.62,15.06a3,3,0,0,1,.33,2.62l-110.43,90c-5.65,4.6-38.89,30.6-40.66,30.25Z"/>
          <path class="cls-5" d="M113.24,68.26c31.23-25.46,56.57-46.39,56.39-46.61s-25.8,20.37-57,45.82S56,113.86,56.2,114.07s25.8-20.36,57-45.81Z"/>
          <path class="cls-6" d="M114.58,69.9C145.82,44.45,171.15,23.51,171,23.3s-25.79,20.36-57,45.82-56.57,46.38-56.39,46.6,25.79-20.36,57-45.82Z"/>
        </g>
        <g>
          <ellipse class="cls-7" cx="178.2" cy="15.63" rx="5.96" ry="6.16" transform="translate(15.86 90.77) rotate(-29.85)"/>
          <ellipse class="cls-8" cx="177.28" cy="15.02" rx="3.9" ry="4.03" transform="translate(16.04 90.23) rotate(-29.85)"/>
          <ellipse class="cls-2" cx="176.33" cy="14.53" rx="1.74" ry="1.79" transform="translate(16.16 89.69) rotate(-29.85)"/>
        </g>
      </g>
      <g>
        <path class="cls-9" d="M111.91,127.68a2.67,2.67,0,0,1-2.25-1.21l-.29-.5-.37.44a2.94,2.94,0,0,1-.9.74,2.88,2.88,0,0,1-1.34.32,3.43,3.43,0,0,1-1.22-.23,3.62,3.62,0,0,1-2-2l0-.16-.11-.3-.32,0a31.37,31.37,0,0,1-14.46-1.68l-.47-.17-.07.49-.13-.31-.34,0h0l-.35.07a8.81,8.81,0,0,1-1.55.17,3.58,3.58,0,0,1-1.89-.47l-.27-.16-.23.22a2,2,0,0,1-1.43.43,3.85,3.85,0,0,1-2.7-.94c-.15-.21-.3-.41-.43-.61l-.15-.23-.26,0a4.26,4.26,0,0,1-.64.05,4.08,4.08,0,0,1-2.94-1.25,5.5,5.5,0,0,1-.74-.93l-.12-.19h-.22a5.75,5.75,0,0,1-3.67-1.75,7.57,7.57,0,0,1-1.23-2.21l-.09-.3-.31,0a27.61,27.61,0,0,1-5.09-1.69c-1-.36-1.83-.68-2.33-.85a17.76,17.76,0,0,0-5.51-1,10.41,10.41,0,0,0-7.91,3.57c-5.73,6.12-13,9.78-19.35,9.78a16.67,16.67,0,0,1-9-2.66c-5.33-3.39-9-8.37-9.75-13.32a14.13,14.13,0,0,1,3.49-11.4,35.88,35.88,0,0,1,2.68-2.72c1.95-1.84,3.95-3.73,4.78-6.09,1.23-3.49-.92-4.64-2.65-5.57-1.29-.69-2.06-1.17-1.88-2.1a1.65,1.65,0,0,1,1.71-1.49l.32,0c2.62.31,6.68,4.12,6.59,6.89-.12,3.33-1.9,6.55-5.29,9.56-4.41,3.92-6.5,7.3-6.56,10.64-.06,3.07,1.63,6.21,5.16,9.6a14.77,14.77,0,0,0,10.43,4.43c5.5,0,10.36-3,12.78-4.88a33.17,33.17,0,0,0,3.35-3.05c2-2,4-4,6.68-4.9a11,11,0,0,1,3.6-.61A21.25,21.25,0,0,1,62,109.19c.64.25,1.31.49,2,.73l.93.33-.43-.89a12.24,12.24,0,0,1-.78-2,24.1,24.1,0,0,1-.7-7.76v-.33l-.32-.08c-1.81-1.1-2.5-3.33-2.93-5.37a4.31,4.31,0,0,1,0-2.61l.13-.29-.25-.2a.91.91,0,0,1-.24-.26,7,7,0,0,1-.92-2.88,2.17,2.17,0,0,1,.16-1.4l.19-.33-.31-.22a2.84,2.84,0,0,1-1-1.9,5.18,5.18,0,0,1,0-2.38,2.59,2.59,0,0,1,.58-1l.4-.42-.53-.23a1.3,1.3,0,0,1-.5-.38,2.31,2.31,0,0,1-.36-.78A4.86,4.86,0,0,1,57,75.78a2.38,2.38,0,0,1,.91-1.21l.47-.32L58,73.91a1.45,1.45,0,0,1-.46-.74,2.85,2.85,0,0,1,.21-2.48,2.42,2.42,0,0,1,1.1-.81l.85-.35-.84-.4-.11,0c-.86-.42-1.35-1-1.34-1.64a1.69,1.69,0,0,1,.44-1,2.81,2.81,0,0,1,.82-.66l.55-.31-.5-.37a2.4,2.4,0,0,1-.82-2.61,2.87,2.87,0,0,1,1.64-1.62,3.8,3.8,0,0,1,.54-.18l1.05-.29-1-.47a2.62,2.62,0,0,1-1.3-1.26,2.87,2.87,0,0,1,1.47-3.38,4.83,4.83,0,0,1,1.3-.49l.92-.22-.8-.51a2.52,2.52,0,0,1-.63-.57,2.94,2.94,0,0,1,.74-3.78,6.45,6.45,0,0,1,3.39-1.26l.56-.08-.24-.5a2.2,2.2,0,0,1-.12-1.7,2.24,2.24,0,0,1,1.8-1.46h.16l.64,0v-.47a3.06,3.06,0,0,1,1-2.92,2.67,2.67,0,0,1,1.66-.51,5,5,0,0,1,2.15.55l.62.3,0-.69a4.61,4.61,0,0,1,2.48-4.28,6.92,6.92,0,0,1,1.85-.54,5.6,5.6,0,0,1,1-.11,2.9,2.9,0,0,1,1.19.23,3,3,0,0,1,.46.3l.61.48.05-.78a4,4,0,0,1,1.34-2.67,5.12,5.12,0,0,1,3.26-1.19h.09a5.56,5.56,0,0,1,1.54.22l.49.14,0-.5a3.77,3.77,0,0,1,1.28-2.61,3.84,3.84,0,0,1,2.48-.92,3.43,3.43,0,0,1,.56,0,3.88,3.88,0,0,1,.63.16l.13,0L93,29h.19l.08-.15a8,8,0,0,1,5.18-2.56,10.09,10.09,0,0,1,1.06-.07,4.85,4.85,0,0,1,1.85.33l.16.07.16-.07a13.44,13.44,0,0,1,5.45-1.16h.52a3.19,3.19,0,0,1,1.29.25,1.33,1.33,0,0,1,.74.89l.08.39.39-.08a9.85,9.85,0,0,1,1-.14l.6,0a4.29,4.29,0,0,1,3.09,1.1l.18.17.24-.09a17.2,17.2,0,0,1,2.23-.68,5.12,5.12,0,0,1,.69,0,4.3,4.3,0,0,1,3.57,1.63l.17.24.28-.09a11.37,11.37,0,0,1,3.28-.52,9.62,9.62,0,0,1,6.93,3.09l.09.09.14,0c4,.6,6.77,3.16,7.39,4.39l0,.21.19.09c2.26,1,3.35,3.38,3.93,4.67l.25.53.17.05v.27l.28.1a12.87,12.87,0,0,1,4.51,2.86c1,1,2.24,2.63,2,4.41l0,.23.17.23a13.92,13.92,0,0,1,3.3,3.33,5.72,5.72,0,0,1,.65,5.31l-.09.19.1.18a8.75,8.75,0,0,1,1,5.29l0,.17,0,.18.13.17a14.4,14.4,0,0,1,1.81,5.82,2.52,2.52,0,0,1-.36,1.81l-.18.21.16.29a13.21,13.21,0,0,1,1.11,7.33,2.49,2.49,0,0,1-.27.91l-.09.16.06.17a9.8,9.8,0,0,1,.38,5.06,2.43,2.43,0,0,1-.32.9l-.1.14v.19a13.82,13.82,0,0,1,0,4,4.78,4.78,0,0,1-.63,2,2.07,2.07,0,0,1-1.47,1l-.34,0,0,.35a15.31,15.31,0,0,1-1.08,5.66,8.21,8.21,0,0,1-1.92,2.59l-.19.17.19.64c.69,2.52.13,5.94-2.26,7.6l-.08.06,0,.08c-1.26,2.3-2.66,3.47-4.15,3.48a3.3,3.3,0,0,1-.47,0l-.34,0-.11.32c-1.18,3.49-2.6,5.34-4.1,5.34a2.24,2.24,0,0,1-.72-.16l-.26-.1-.19.21c-1.45,1.69-2.8,2.54-4,2.54a2.22,2.22,0,0,1-.45,0,3,3,0,0,1-1.78-1.15l-.42-.51-.27.61a53.9,53.9,0,0,1-12,2.6l-.19,0-.14.16a4.32,4.32,0,0,1-.61.78,5.21,5.21,0,0,1-3.74,1.39,7.62,7.62,0,0,1-2.46-.42l-.24-.09-.18.18a3.59,3.59,0,0,1-1.88,1A2.28,2.28,0,0,1,111.91,127.68Z"/>
        <path class="cls-10" d="M133.38,43.26l.14-.14Z"/>
        <path class="cls-11" d="M142.07,88c-3.5-10.44-12.54-19.45-23.29-22.29a.92.92,0,0,0-.7,1.68A61.43,61.43,0,0,1,140,88.83C140.63,89.9,142.49,89.21,142.07,88Z"/>
        <path class="cls-11" d="M137.21,91.79c-5-9.33-13.2-19.73-24.7-20.12-1.18,0-1.27,1.59-.27,2,10.27,3.75,16.62,10.73,23.07,19.28A1.1,1.1,0,0,0,137.21,91.79Z"/>
        <path class="cls-11" d="M132,96.55a36.82,36.82,0,0,0-24.84-20c-.9-.19-1.55,1.08-.66,1.55A63.34,63.34,0,0,1,129.64,98,1.39,1.39,0,0,0,132,96.55Z"/>
        <path class="cls-11" d="M125.64,97.49a39.58,39.58,0,0,0-20.77-16.1.75.75,0,0,0-.58,1.37,67.16,67.16,0,0,1,20,15.76C124.94,99.24,126.16,98.3,125.64,97.49Z"/>
        <path class="cls-11" d="M147.23,57.3c-7.44-3.9-17.88-5.67-26-3.07a1,1,0,0,0,.27,2c4,.42,8,.15,12.07.65,4.37.54,8.69,1.31,13,2C147.47,59.07,148.18,57.8,147.23,57.3Z"/>
        <path class="cls-11" d="M149.78,65.91c-2.51-3.13-7.85-4.11-11.62-4.7s-7.95-.77-11.3,1a.57.57,0,0,0,.13,1c3.79.92,7.83.58,11.69,1.35,3.52.7,6.86,2.79,10.39,3C150,67.7,150.28,66.53,149.78,65.91Z"/>
        <path class="cls-11" d="M145.94,50.62c-4-4-11.88-3.91-17.07-3a.66.66,0,0,0,0,1.27,75.39,75.39,0,0,1,8.55,1.77c2.55.74,5.07,1.83,7.75,1.82A1.1,1.1,0,0,0,145.94,50.62Z"/>
        <path class="cls-11" d="M150.63,73.88C147,69.19,140,68.35,134.45,69.4a1,1,0,0,0,0,1.92c5.36,1,9.79,1.88,14.55,4.68C150.41,76.83,151.52,75,150.63,73.88Z"/>
        <path class="cls-11" d="M101.76,33.29c-3,.84-5,3-7.23,5a120.23,120.23,0,0,0-8.67,8.82c-4.79,5.47-8.73,11.51-10.59,18.6a.6.6,0,0,0,1.16.32c2.35-6.83,6.86-12.33,11.78-17.51,2.2-2.31,4.44-4.6,6.65-6.9s4.51-5.26,7.54-6.86A.83.83,0,0,0,101.76,33.29Z"/>
        <path class="cls-11" d="M106.46,35c-7.32,5-12.61,13.22-18.17,20A62.17,62.17,0,0,0,76.87,78.54a.81.81,0,0,0,1.56.43A105.91,105.91,0,0,1,90.75,56c4.68-6.83,10.2-14.54,16.65-19.8C108.07,35.61,107.18,34.46,106.46,35Z"/>
        <path class="cls-11" d="M112.79,37.54C99.7,45.18,87.25,59.08,84.1,74.22a.68.68,0,0,0,1.31.36A65.72,65.72,0,0,1,97.53,53.67c4.83-5.67,10.68-10,16.17-15C114.35,38.14,113.52,37.11,112.79,37.54Z"/>
        <path class="cls-11" d="M116.24,41.13c-6.24,3-10.13,9.32-14,14.79-2.43,3.42-4.86,6.84-7.25,10.29-2.09,3-5.4,6.39-5.93,10.14-.15,1.11,1.52,1.6,1.7.47.58-3.52,3.94-6.74,6-9.58l6.47-8.92c4.19-5.75,8.06-11.37,14.29-15.06A1.23,1.23,0,0,0,116.24,41.13Z"/>
        <path class="cls-11" d="M120.67,47.35c-6.93,2.34-11.9,7.53-16.27,13.19-3.9,5-9,11.3-9.73,17.82-.07.74,1.15.9,1.3.17,1.29-6.22,6.79-12.9,10.78-17.71A45.59,45.59,0,0,1,121.49,49.3,1.07,1.07,0,0,0,120.67,47.35Z"/>
        <path class="cls-11" d="M77.36,51.54C75.53,50.25,73,50,70.77,49.87c-1.87-.11-4.15-.43-5.65.88-.76.67.27,2,1.09,1.42,1.22-.93,4.42-.21,5.73,0,1.59.31,3,1,4.53,1.45C77.79,54,78.39,52.27,77.36,51.54Z"/>
        <path class="cls-11" d="M73.83,58.17c-.78-1.41-2.4-1.34-3.86-1.49a26.5,26.5,0,0,0-6.23.08c-.71.1-1,1.18-.19,1.37,1.56.36,3.12.69,4.7.91a25.34,25.34,0,0,0,4.73.62A1,1,0,0,0,73.83,58.17Z"/>
        <path class="cls-11" d="M72.32,64.78c-1-3.51-7.13-2.34-9.61-1.68-.84.22-.69,1.61.21,1.55a19,19,0,0,1,4.94.24A21.34,21.34,0,0,1,71.1,66,1,1,0,0,0,72.32,64.78Z"/>
        <path class="cls-11" d="M81.09,40.88a8.49,8.49,0,0,0-3.46-3.49.92.92,0,0,0-1.12,1.44,9.56,9.56,0,0,1,2.14,3.77c.47,1.29.64,2.72,1.63,3.75a1.23,1.23,0,0,0,2-.54C82.69,44.13,81.84,42.35,81.09,40.88Z"/>
        <path class="cls-11" d="M87.43,33.5c-1.15-1.41-3.5.43-2.52,2s1.09,3.4,1.88,5.06c.61,1.28,2.41.78,2.8-.37C90.37,37.86,88.82,35.23,87.43,33.5Z"/>
        <path class="cls-11" d="M93.68,31.44A4.34,4.34,0,0,0,91.5,30c-1-.27-1.83,1.05-1,1.75A6.16,6.16,0,0,1,91.75,33a4.6,4.6,0,0,1,.33.76,1.67,1.67,0,0,0,1.07,1.11,1.22,1.22,0,0,0,1.33-.54C95.17,33.44,94.27,32.16,93.68,31.44Z"/>
        <g>
          <path class="cls-12" d="M57.9,68.53c0-.32.06-.63.11-.94l-.6-.39a1.07,1.07,0,0,0,0,.25A1.52,1.52,0,0,0,57.9,68.53Z"/>
          <path class="cls-12" d="M159.26,86.17a9.8,9.8,0,0,0-.38-5.06l-.06-.17.09-.16a2.49,2.49,0,0,0,.27-.91,13.21,13.21,0,0,0-1.11-7.33l-.16-.29.18-.21a2.52,2.52,0,0,0,.36-1.81,14.27,14.27,0,0,0-1.3-4.79,57.5,57.5,0,0,1-10.78,25.32A46.31,46.31,0,0,1,119.73,108a50.82,50.82,0,0,1-14.25.82c-16.23-1.2-32.21-9-41.7-22.27a31.85,31.85,0,0,1-5.57-12.15l-.27.18A2.38,2.38,0,0,0,57,75.78a4.86,4.86,0,0,0,.17,2.74,2.31,2.31,0,0,0,.36.78,1.3,1.3,0,0,0,.5.38l.53.23-.4.42a2.59,2.59,0,0,0-.58,1,5.18,5.18,0,0,0,0,2.38,2.84,2.84,0,0,0,1,1.9l.31.22-.19.33a2.17,2.17,0,0,0-.16,1.4,7,7,0,0,0,.92,2.88.91.91,0,0,0,.24.26l.25.2-.13.29a4.31,4.31,0,0,0,0,2.61c.43,2,1.12,4.27,2.93,5.37l.32.08v.33a24.1,24.1,0,0,0,.7,7.76,12.24,12.24,0,0,0,.78,2l.43.89-.64-.23,0,0a15.46,15.46,0,0,0,2.48,1.79,3.9,3.9,0,0,1,1.63,3.32h.21l.09.3a7.57,7.57,0,0,0,1.23,2.21,5.75,5.75,0,0,0,3.67,1.75h.22l.12.19a5.5,5.5,0,0,0,.74.93,4.08,4.08,0,0,0,2.94,1.25,4.26,4.26,0,0,0,.64-.05l.26,0,.15.23c.13.2.28.4.43.61a3.85,3.85,0,0,0,2.7.94,2,2,0,0,0,1.43-.43l.23-.22.27.16a3.58,3.58,0,0,0,1.89.47,8.81,8.81,0,0,0,1.55-.17l.35-.07h0l.34,0,.13.31.07-.49.47.17a31.37,31.37,0,0,0,14.46,1.68l.32,0,.11.3,0,.16a3.62,3.62,0,0,0,2,2,3.43,3.43,0,0,0,1.22.23,2.88,2.88,0,0,0,1.34-.32,2.94,2.94,0,0,0,.9-.74l.37-.44.29.5a2.67,2.67,0,0,0,2.25,1.21,2.28,2.28,0,0,0,.45,0,3.59,3.59,0,0,0,1.88-1l.18-.18.24.09a7.62,7.62,0,0,0,2.46.42,5.21,5.21,0,0,0,3.74-1.39,4.32,4.32,0,0,0,.61-.78l.14-.16.19,0a53.9,53.9,0,0,0,12-2.6l.27-.61.42.51a3,3,0,0,0,1.78,1.15,2.22,2.22,0,0,0,.45,0c1.2,0,2.55-.85,4-2.54l.19-.21.26.1a2.24,2.24,0,0,0,.72.16c1.5,0,2.92-1.85,4.1-5.34l.11-.32.34,0a3.3,3.3,0,0,0,.47,0c1.49,0,2.89-1.18,4.15-3.48l0-.08.08-.06c2.39-1.66,3-5.08,2.26-7.6l-.19-.64.19-.17a8.21,8.21,0,0,0,1.92-2.59,15.31,15.31,0,0,0,1.08-5.66l0-.35.34,0a2.07,2.07,0,0,0,1.47-1,4.78,4.78,0,0,0,.63-2,13.82,13.82,0,0,0,0-4v-.19l.1-.14A2.43,2.43,0,0,0,159.26,86.17Z"/>
          <path class="cls-12" d="M57.51,73.17a1.45,1.45,0,0,0,.46.74l.17.13a20.05,20.05,0,0,1-.33-3.45l-.09.1A2.85,2.85,0,0,0,57.51,73.17Z"/>
        </g>
        <path class="cls-12" d="M19.08,122.33a16.67,16.67,0,0,0,9,2.66,16.12,16.12,0,0,0,1.69-.1,3.06,3.06,0,0,1-.65-.54,2.18,2.18,0,0,1,.21-3.2,6.36,6.36,0,0,0,.83-.51,16.06,16.06,0,0,1-2.09.14,14.77,14.77,0,0,1-10.43-4.43c-3.53-3.39-5.22-6.53-5.16-9.6a9,9,0,0,1,.6-3c-.28.38-.57.76-.87,1.12a13.88,13.88,0,0,0-2.71,3.78,4.74,4.74,0,0,0-.17.57C10.21,114.1,13.82,119,19.08,122.33Z"/>
        <path class="cls-12" d="M54.11,107.23a3.82,3.82,0,0,1,4,4.4,19.07,19.07,0,0,1,4.72,1.7,33.69,33.69,0,0,0,5.57,1.76c-.08-.48-.17-1-.25-1.43a1.19,1.19,0,0,0-.15-.46,1.34,1.34,0,0,0-.36-.31,10.83,10.83,0,0,1-3-3,.2.2,0,0,0-.13-.11.23.23,0,0,0-.16,0,3,3,0,0,1-2.25-.51,29.15,29.15,0,0,0-6.07-2Z"/>
        <path class="cls-13" d="M159.66,86.24a10,10,0,0,0-.4-5.26,2.79,2.79,0,0,0,.32-1,13.55,13.55,0,0,0-1.16-7.61l0,0a2.86,2.86,0,0,0,.45-2.1,14.72,14.72,0,0,0-1.88-6l0,0,0-.2a7.82,7.82,0,0,0-1.09-5.54,6.06,6.06,0,0,0-.68-5.69,12.58,12.58,0,0,0-3.38-3.5v0c.24-2-1-3.66-2.13-4.75a13.27,13.27,0,0,0-4.66-3,.41.41,0,0,0-.27-.37h0l-.17-.36c-.63-1.39-1.75-3.84-4.14-4.87a.2.2,0,0,0,0-.11c-.7-1.39-3.65-4-7.69-4.61a10,10,0,0,0-10.62-2.67,5,5,0,0,0-4.65-1.75,15.47,15.47,0,0,0-2.31.7,5,5,0,0,0-4-1.18c-.34,0-.69.09-1,.15a1.78,1.78,0,0,0-1-1.17,3.67,3.67,0,0,0-1.44-.29,13.71,13.71,0,0,0-6.15,1.19,6,6,0,0,0-3.12-.29A8.44,8.44,0,0,0,93,28.54h0l-.07,0a3.88,3.88,0,0,0-.69-.18,4.16,4.16,0,0,0-4.8,3.86A5.92,5.92,0,0,0,85.63,32a5.49,5.49,0,0,0-3.52,1.3,4.39,4.39,0,0,0-1.48,3,2.73,2.73,0,0,0-.54-.34,4.12,4.12,0,0,0-2.46-.16,6.84,6.84,0,0,0-1.95.58A5,5,0,0,0,73,41a4,4,0,0,0-4.23,0,3.1,3.1,0,0,0-1.13,3.29,3.2,3.2,0,0,0-.44,0,2.58,2.58,0,0,0-2,3.73,6.82,6.82,0,0,0-3.6,1.36,3.35,3.35,0,0,0-.81,4.33,2.92,2.92,0,0,0,.74.67,5.18,5.18,0,0,0-1.4.53,3.28,3.28,0,0,0-1.64,3.89,3,3,0,0,0,1.49,1.47,4.06,4.06,0,0,0-.59.19,3.28,3.28,0,0,0-1.86,1.87,2.8,2.8,0,0,0,1,3.06,3.15,3.15,0,0,0-.94.76A2.08,2.08,0,0,0,57,67.45a2.39,2.39,0,0,0,1.57,2l.14.06a2.06,2.06,0,0,0-1.29.94,3.23,3.23,0,0,0-.27,2.84,1.85,1.85,0,0,0,.6.94,2.71,2.71,0,0,0-1.07,1.43,5.11,5.11,0,0,0,.16,3,2.69,2.69,0,0,0,.43.93,1.81,1.81,0,0,0,.66.49,2.81,2.81,0,0,0-.68,1.13,5.56,5.56,0,0,0,0,2.56,3.19,3.19,0,0,0,1.14,2.18,2.48,2.48,0,0,0-.21,1.67,7.23,7.23,0,0,0,1,3,1.35,1.35,0,0,0,.33.35,4.77,4.77,0,0,0,0,2.87c.45,2.12,1.17,4.45,3.12,5.64a.35.35,0,0,0,.11,0,24.87,24.87,0,0,0,.71,7.89,13.94,13.94,0,0,0,.81,2.12c-.66-.24-1.32-.48-2-.73-3.67-1.38-7.13-2.7-11.36-1.24-2.76.94-4.83,3-6.83,5a34.82,34.82,0,0,1-3.32,3c-3.9,2.94-13.91,8.88-22.68.47-3.45-3.3-5.09-6.34-5-9.29.07-3.22,2.11-6.51,6.43-10.35,3.48-3.09,5.3-6.4,5.42-9.84.11-3-4.11-7-6.94-7.31a2.07,2.07,0,0,0-2.48,1.8c-.25,1.28.94,1.92,2.09,2.53,1.75.94,3.57,1.91,2.46,5.07-.8,2.28-2.77,4.13-4.67,5.93a33.49,33.49,0,0,0-2.72,2.76,14.5,14.5,0,0,0-3.58,11.72c.79,5.07,4.5,10.15,9.93,13.6a17.06,17.06,0,0,0,9.26,2.72c7.48,0,14.76-4.68,19.65-9.9,3.33-3.56,7.34-4.32,13-2.46.5.16,1.36.48,2.32.84,3.5,1.33,4.72,1.73,5.25,1.71a7.62,7.62,0,0,0,1.28,2.33,6.18,6.18,0,0,0,4,1.92,5.56,5.56,0,0,0,.8,1,4.43,4.43,0,0,0,3.93,1.31c.14.21.28.42.44.63a4.14,4.14,0,0,0,3,1.11h.06a2.41,2.41,0,0,0,1.72-.55,4,4,0,0,0,2.1.53,9,9,0,0,0,1.62-.18l.37-.07a.38.38,0,0,0,.33-.25,31.56,31.56,0,0,0,15.15,1.88l.05.17a4,4,0,0,0,2.24,2.21,3.83,3.83,0,0,0,1.37.26,3.32,3.32,0,0,0,1.53-.37,3.21,3.21,0,0,0,1-.84,3,3,0,0,0,3.12,1.37,3.89,3.89,0,0,0,2.1-1.15,8,8,0,0,0,2.59.45,5.6,5.6,0,0,0,4-1.52,4.44,4.44,0,0,0,.66-.84h0a54.36,54.36,0,0,0,12.09-2.62.39.39,0,0,0,.23-.22,3.47,3.47,0,0,0,2,1.29,3.17,3.17,0,0,0,.53,0c1.33,0,2.77-.91,4.31-2.68a2.28,2.28,0,0,0,.82.18h0c1.72,0,3.23-1.89,4.49-5.61a2.76,2.76,0,0,0,.51,0h0c1.65,0,3.17-1.26,4.5-3.7,2.55-1.76,3.15-5.36,2.42-8l-.12-.39a8.74,8.74,0,0,0,2-2.73,15.82,15.82,0,0,0,1.12-5.81,2.51,2.51,0,0,0,1.76-1.15,5,5,0,0,0,.69-2.14,14,14,0,0,0,0-4.13l0,0A2.68,2.68,0,0,0,159.66,86.24Zm-19.27-7.07c-1.74-2-3.48-3.78-5.21-5.42,7.85.28,15,4,20.46,7.31a4.87,4.87,0,0,0,1.59.71,1.85,1.85,0,0,0,.46,0,2,2,0,0,0,.91-.22,9.36,9.36,0,0,1,.26,4.49,2,2,0,0,1-.26.75,1.41,1.41,0,0,1-1.34.44,5.07,5.07,0,0,1-1.65-.69,57.93,57.93,0,0,0-8.2-3.69,7.8,7.8,0,0,0-4.49-.57C142,81.08,141.12,80,140.39,79.17Zm18.38.65a1.79,1.79,0,0,1-.28.87,1.17,1.17,0,0,1-1.1.29,4.28,4.28,0,0,1-1.34-.63c-5.72-3.45-13.36-7.43-21.75-7.44h0A66.92,66.92,0,0,0,126,66.38a9.67,9.67,0,0,1,4.18-.53c7.7.29,16,2.49,24.62,6.53a5.3,5.3,0,0,0,2.13.58,2.24,2.24,0,0,0,.84-.16A12.82,12.82,0,0,1,158.77,79.82ZM158,70.26a2,2,0,0,1-.29,1.55c-.45.5-1.33.44-2.64-.17-8.73-4.08-17.12-6.3-24.92-6.6a9.57,9.57,0,0,0-5,.82,65.28,65.28,0,0,0-11.39-5.8c6.45-2.27,13.52-1.45,20.37-.64l.62.07c6.57.77,14,1.64,20.09,5.21a2.15,2.15,0,0,0,1.07.36.94.94,0,0,0,.49-.15A13.84,13.84,0,0,1,158,70.26Zm-1.88-6.42a.75.75,0,0,1-.1.36c-.1.1-.4,0-.78-.2-6.24-3.65-13.76-4.54-20.4-5.31l-.62-.08c-7.25-.85-14.75-1.73-21.62,1l-1.41-.52a80.61,80.61,0,0,1,7.18-6.26c6.35-2.8,13.52-2,18.48-.71a100.31,100.31,0,0,1,12.3,4.25c1.91.75,3.89,1.53,5.86,2.24A7,7,0,0,1,156.16,63.84Zm-1.64-10.7a5.53,5.53,0,0,1,.75,4.59.39.39,0,0,0-.21,0c-1.87-.68-3.75-1.42-5.57-2.14a102.46,102.46,0,0,0-12.4-4.28c-4.43-1.11-10.59-1.9-16.43-.19A76.72,76.72,0,0,1,128,46.5a37.11,37.11,0,0,1,19.84,2.58l.26.11a8.61,8.61,0,0,0,2.69.84h.17a1.07,1.07,0,0,0,.49-.12A11.71,11.71,0,0,1,154.52,53.14ZM151,49s-.05,0-.06,0a.34.34,0,0,0-.07.15h-.08a8.15,8.15,0,0,1-2.44-.77l-.26-.12a38.09,38.09,0,0,0-18.18-2.89c4.92-2.52,9.36-3.91,12.46-3.87A13,13,0,0,1,149.12,45C150.08,46,151.18,47.42,151,49Zm-43.4-23.27a3,3,0,0,1,1.13.21,1,1,0,0,1,.53.62,23.45,23.45,0,0,0-5.73,2.51,3,3,0,0,0-1.13-2.44A12.86,12.86,0,0,1,107.62,25.75Zm-9.12.9a4.85,4.85,0,0,1,3.06.38,2.14,2.14,0,0,1,1.11,2.37.42.42,0,0,0,0,.22,57.49,57.49,0,0,0-5.58,4,7.83,7.83,0,0,0-1.78-3.38,6.59,6.59,0,0,0-1.6-1.3A7.66,7.66,0,0,1,98.5,26.65Zm-10.32,5.9A3.42,3.42,0,0,1,89.33,30a3.36,3.36,0,0,1,2.72-.78,3.5,3.5,0,0,1,.74.2.05.05,0,0,0,0,0l.08,0a5.28,5.28,0,0,1,1.79,1.32,7.29,7.29,0,0,1,1.69,3.4C95,35.35,93.5,36.64,92.05,38l-1-2a8.27,8.27,0,0,0-1.84-2.78,4.53,4.53,0,0,0-1.07-.68Zm-5.53,1.36a4.71,4.71,0,0,1,3-1.1,4.45,4.45,0,0,1,3.07,1,7.94,7.94,0,0,1,1.64,2.52l1.08,2.24a95.42,95.42,0,0,0-6.55,7A30.34,30.34,0,0,0,82,38a7,7,0,0,0-.62-1,.41.41,0,0,0,.1-.3A3.45,3.45,0,0,1,82.65,33.91ZM76,37.06a6.12,6.12,0,0,1,1.74-.51,3.42,3.42,0,0,1,2,.09,3.8,3.8,0,0,1,1.5,1.73,29.7,29.7,0,0,1,2.93,7.74.45.45,0,0,0,.12.2c-1.2,1.46-2.36,3-3.46,4.47L80,50.4c-1.31-3.34-3.08-7-6.24-8.95a.66.66,0,0,0,0-.14A4.22,4.22,0,0,1,76,37.06Zm-6.81,4.58c1-.74,2.48-.4,3.55.16,3.08,1.62,4.88,4.93,6.19,8.13a28.14,28.14,0,0,0-6.51-1.77.23.23,0,0,0,0-.14,6.59,6.59,0,0,0-2.64-2.92,5.15,5.15,0,0,0-1.3-.66h0A2.38,2.38,0,0,1,69.22,41.64ZM65.79,46.3a1.86,1.86,0,0,1,1.47-1.19,3.06,3.06,0,0,1,2.06.66A6,6,0,0,1,71.5,48,27.38,27.38,0,0,0,66.07,48,1.85,1.85,0,0,1,65.79,46.3Zm-4.38,6.94A2.53,2.53,0,0,1,62.08,50a6.6,6.6,0,0,1,3.66-1.22.58.58,0,0,0,.18,0,.44.44,0,0,0,.22-.07,27.19,27.19,0,0,1,14.22,2.69c-1.17,1.65-2.26,3.31-3.25,5l-.06,0a28.78,28.78,0,0,0-11.8-2.19h-.78a.45.45,0,0,0-.27-.1l-.93,0A2.6,2.6,0,0,1,61.41,53.24ZM59.2,58.49a2.45,2.45,0,0,1,1.29-2.86A6.38,6.38,0,0,1,63.25,55a13.77,13.77,0,0,0,2,0A28,28,0,0,1,76.7,57.12l-.18.3c-.45.8-1,1.76-1.54,2.86a6.56,6.56,0,0,0-2.49-.44c-3-.11-6.15-.1-9.26,0a8,8,0,0,1-2.35-.12A2.4,2.4,0,0,1,59.2,58.49Zm-.94,4.12a2.44,2.44,0,0,1,1.41-1.39,5.63,5.63,0,0,1,2.17-.36.38.38,0,0,0,.3-.15l1.19,0c3-.13,6.1-.14,9.13,0a5.84,5.84,0,0,1,2.15.37c-.76,1.52-1.59,3.27-2.45,5.19a24.55,24.55,0,0,0-10.15-1,7.12,7.12,0,0,1-2.22,0,.4.4,0,0,0-.33-.1,1.91,1.91,0,0,1-.45-.23A2,2,0,0,1,58.26,62.61Zm-.47,4.85a1.33,1.33,0,0,1,.34-.78,2.45,2.45,0,0,1,1.29-.79,7.43,7.43,0,0,0,2.66.11,23.84,23.84,0,0,1,9.75,1c-.53,1.2-1.07,2.48-1.61,3.79a13.53,13.53,0,0,0-5.88-1.09,13.24,13.24,0,0,1-5.44-.94C58.56,68.56,57.78,68.1,57.79,67.46Zm.26,3.47c.4-.56.58-.59,1.27-.72l.29-.06a.41.41,0,0,0,.27-.19,18.82,18.82,0,0,0,4.43.51,12.5,12.5,0,0,1,5.6,1c-.33.81-.65,1.64-1,2.48a11,11,0,0,0-4.9-.71c-.79,0-1.58.12-2.35.2-1,.1-2,.21-3,.22a1.19,1.19,0,0,1-.45,0c-.15-.07-.27-.27-.37-.59A2.56,2.56,0,0,1,58.05,70.93Zm-.46,7.47a4.4,4.4,0,0,1-.17-2.5A1.64,1.64,0,0,1,59,74.68a.4.4,0,0,0,.42-.21c.78,0,1.56-.11,2.32-.19s1.54-.16,2.3-.2a10.27,10.27,0,0,1,4.57.66c-.44,1.16-.87,2.35-1.29,3.55-2.36-.82-5-.05-7.11.76a6.34,6.34,0,0,1-.93.31h-.11l-.32.07a1.21,1.21,0,0,1-1-.37A1.84,1.84,0,0,1,57.59,78.4ZM58,83.61a4.73,4.73,0,0,1,0-2.18,1.85,1.85,0,0,1,1.06-1.21,5.92,5.92,0,0,0,1.54-.43c1.93-.74,4.37-1.46,6.5-.73-.52,1.52-1,3.07-1.48,4.62a2.27,2.27,0,0,0-1.84,0,26.73,26.73,0,0,0-3.7,1.4,2.28,2.28,0,0,1-.84.27.47.47,0,0,0-.16,0C58.31,85.23,58,84,58,83.61Zm.92,3.86c-.06-.4-.06-1.08.24-1.26h.07a3,3,0,0,0,1.23-.36A27.1,27.1,0,0,1,64,84.49c.65-.2.94-.27,1.36,0-.56,1.94-1.06,3.87-1.48,5.78l-3.6.15a.78.78,0,0,1-.39,0,.59.59,0,0,1-.17-.18A6.65,6.65,0,0,1,58.9,87.47Zm3.74,11.14c-1.48-1.08-2.09-3.08-2.48-4.92a3.82,3.82,0,0,1,0-2.46h.15l3.39-.14A57.52,57.52,0,0,0,62.64,98.61Zm2-7.69a.39.39,0,0,0,.11-.28l0-.09a116.31,116.31,0,0,1,4.72-15.62.39.39,0,0,0,.19-.17.43.43,0,0,0,0-.35c1-2.58,2-5.06,3-7.36a.36.36,0,0,0,.13-.17.42.42,0,0,0,0-.19c.86-2,1.73-3.76,2.55-5.39a.36.36,0,0,0,.23-.15.39.39,0,0,0,0-.39c.55-1.07,1.09-2.06,1.59-2.93C85.7,43,102.52,27.76,111.17,27.06a4.46,4.46,0,0,1,3.08.71C109,29.92,98,36.26,85.62,54.14,74.12,70.75,69.16,86.69,67.93,111c0,.62,0,1.17,0,1.67a9.08,9.08,0,0,1-3.81-5.46C62.89,103,63.32,97.2,64.65,90.92Zm-1.29,22.19c-1-.37-1.83-.69-2.35-.86-6-2-10.26-1.14-13.84,2.69-7,7.5-18,13.29-27.87,7-5.24-3.32-8.82-8.19-9.57-13a13.55,13.55,0,0,1,3.41-11.08,31.71,31.71,0,0,1,2.65-2.69c2-1.86,4-3.79,4.87-6.25,1.34-3.82-1.07-5.11-2.84-6.05-1.15-.62-1.8-1-1.67-1.67a1.27,1.27,0,0,1,1.59-1.14c2.44.28,6.31,3.94,6.22,6.47-.11,3.26-1.8,6.29-5.15,9.26-4.5,4-6.63,7.48-6.7,10.94-.06,3.19,1.67,6.43,5.29,9.9,9.22,8.84,19.67,2.66,23.73-.41a34.22,34.22,0,0,0,3.4-3.09c1.94-1.93,3.94-3.92,6.52-4.81,4-1.35,7.29-.09,10.81,1.24.92.35,1.87.71,2.85,1h0a8.75,8.75,0,0,0,3.22,3h0a10.18,10.18,0,0,0,.16,1.11A49.34,49.34,0,0,1,63.36,113.11Zm6.9,4.32c-.92-1.25-1.72-2.34-1.52-6.4,1.22-24.14,6.14-40,17.55-56.43C98.91,36.38,110,30.3,114.89,28.37c0,0,.08,0,.11,0a14.36,14.36,0,0,1,2.53-.79,4.2,4.2,0,0,1,3.74,1.22A23.56,23.56,0,0,0,115.56,32c-31,22.85-36.68,45.12-40.84,61.39-3.79,14.82-3.24,22-1.59,25.53A5.52,5.52,0,0,1,70.26,117.43ZM75,120.25a5.29,5.29,0,0,1-.79-1l0,0c-1.81-3-2.66-9.91,1.35-25.56,4.36-17,9.79-38.26,40.53-60.93,4-3,9.93-6.28,15.33-1.67a11.59,11.59,0,0,0-3.15.32c-2.57.62-16.15,4.86-31.76,27.4-12.32,17.78-18,34.9-19.18,57.26-.14,2.8.08,4.22.63,5.36A3.67,3.67,0,0,1,75,120.25Zm6.78,2.82a3.48,3.48,0,0,1-2.32-.78c-1-1.34-1.54-2.3-1.35-6.24,1.12-22.2,6.82-39.19,19-56.84,15.44-22.29,28.77-26.46,31.28-27.07a10.51,10.51,0,0,1,3.91-.21l.09.09a.41.41,0,0,0,.57,0h0a11.51,11.51,0,0,1,6.22,3.45,7.27,7.27,0,0,0-2.43,0c-.19,0-19.63,3.27-36.35,27.41C87.71,81.23,83.08,94.07,81.35,115.72c-.28,3.47.24,5.85,1.53,7.1A2.11,2.11,0,0,1,81.76,123.07Zm5.34-.19c-.86.16-2.45.46-3.58-.55s-1.62-3.25-1.36-6.54c1.71-21.49,6.31-34.23,18.93-52.45,16.53-23.85,35.62-27,35.81-27.06,4.26-.66,5.92,2.62,6.81,4.58a8.29,8.29,0,0,0-1.36-.12l-.4-.08a.38.38,0,0,0-.31.07c-6,.21-15.19,4.71-23.8,11.47l-.25.11a.39.39,0,0,0-.21.26,83.1,83.1,0,0,0-7,6.28.41.41,0,0,0-.3.26v.06a62.13,62.13,0,0,0-9.79,12.62c-6,10.42-17.41,40.2-12.81,51Zm.51-11.9a19.66,19.66,0,0,0,8.23,1.81,19.14,19.14,0,0,0,5.58-.83c.27,1.88.51,3.75.73,5.63a.48.48,0,0,0-.12,0,34.33,34.33,0,0,1-8,.12,17.71,17.71,0,0,1-6.78-1.35A40.41,40.41,0,0,1,87.61,111Zm.22-.79a.38.38,0,0,0-.1,0c.29-2,.7-4.08,1.2-6.24a15.48,15.48,0,0,0,11.38,1c.36,2.06.7,4.13,1,6.21A18.76,18.76,0,0,1,87.83,110.19Zm1.3-7.08c.41-1.69.87-3.42,1.37-5.15h0a20.2,20.2,0,0,0,5.07.65l.93,0,.32,0A4.76,4.76,0,0,0,99,98.13q.63,3,1.18,6A14.94,14.94,0,0,1,89.13,103.11Zm7.67-5.34-.32,0a19.45,19.45,0,0,1-5.74-.61c.57-1.91,1.18-3.82,1.83-5.71l.07,0a10.7,10.7,0,0,0,4.76.17c.57,1.88,1,3.78,1.42,5.65A3.74,3.74,0,0,1,96.8,97.77Zm-4-7h0q.93-2.68,1.94-5.24a27.94,27.94,0,0,1,2.37,5.41A10.4,10.4,0,0,1,92.85,90.72Zm-4.64,31.86a14.47,14.47,0,0,1-1-5.33,19.4,19.4,0,0,0,6.71,1.27c1.41.09,2.83.18,4.27.18a23.09,23.09,0,0,0,4-.31s0,0,.06,0q.27,2.39.48,4.77c0,.44.09.88.17,1.32A30.82,30.82,0,0,1,88.21,122.58Zm19.7,4.21a2.71,2.71,0,0,1-2.22.07,3.28,3.28,0,0,1-1.79-1.76c0-.1-.06-.2-.1-.3l0-.07a.49.49,0,0,0-.13-.38,11.44,11.44,0,0,1-.17-1.31,209.89,209.89,0,0,0-3.86-25.68c-.92-4.28-2-8.79-4.43-12.75l-.07-.07c.19-.49.39-1,.58-1.44a.32.32,0,0,0,.09,0,30.84,30.84,0,0,1,5.52,1.45c4,10,5.93,20.69,7.85,31.06.47,2.57,1,5.5.48,8.22A4.13,4.13,0,0,1,107.91,126.79Zm4.38.45a2.17,2.17,0,0,1-2.42-1.28l0-.06a6.71,6.71,0,0,0,.64-1.89c.57-2.87,0-5.87-.47-8.52-1.89-10.18-3.84-20.69-7.64-30.54a45.2,45.2,0,0,1,7.92,3.91,29.07,29.07,0,0,1,1.07,4.72l.16,1c.47,2.7,1.11,5.43,1.72,8.07,1.48,6.34,3,12.89,2.31,19.38a9.14,9.14,0,0,1-.84,3.29A3.57,3.57,0,0,1,112.29,127.24Zm8.29-2c-1.49,1.49-3.81,1.46-5.49,1a4.72,4.72,0,0,0,.33-.53,9.75,9.75,0,0,0,.93-3.58c.7-6.63-.84-13.25-2.33-19.66-.61-2.62-1.24-5.34-1.71-8l-.16-1a38.79,38.79,0,0,0-.81-3.91,47.91,47.91,0,0,1,7.37,6c.88,4.54,1.7,9,2.33,13.51a.51.51,0,0,0-.07.17.42.42,0,0,0,.14.35c.43,3.16.76,6.32.93,9.5C122.16,121.38,122.07,123.76,120.58,125.25ZM122,109.7c.29,0,.58,0,.87,0a12.11,12.11,0,0,0,5.26-1.22c1,1.94,2,4.06,2.84,6.06a16,16,0,0,1-8.25,1.67Q122.4,113,122,109.7Zm-.11-.83q-.41-2.85-.9-5.71a9,9,0,0,0,3.54-.8c.21.31.43.6.64.92a52.11,52.11,0,0,1,2.6,4.52A11.16,11.16,0,0,1,121.84,108.87Zm-1-6.53q-.51-2.88-1.06-5.78a49.41,49.41,0,0,1,4.26,5.12A8.37,8.37,0,0,1,120.8,102.34Zm12.86,19.25a53.52,53.52,0,0,1-11.4,2.52,12,12,0,0,0,.59-5.11c0-.65-.08-1.29-.13-1.94.33,0,.66,0,1,0a16.92,16.92,0,0,0,7.53-1.78c.83,2,1.52,3.76,2,5.13a5.91,5.91,0,0,0,.56,1.12Zm2.67,1c-1.59-.29-2.35-2.41-2.36-2.42a91.26,91.26,0,0,0-8.18-17.38,51,51,0,0,0-6.34-7.73.38.38,0,0,0-.28-.27c-10.47-10.3-21.84-12.3-23.11-12.49.79-1.89,1.59-3.68,2.38-5.33a.42.42,0,0,0,.16.11c.21.06,21.12,7,32.12,25.27a52.17,52.17,0,0,1,7.76,15.41,5.34,5.34,0,0,0,1.81,2.6C138.8,122.08,137.47,122.84,136.33,122.63Zm5.52-2.46c-1.29,0-2.34-1.73-2.59-2.6a52.81,52.81,0,0,0-7.87-15.64C120.26,83.41,99.06,76.41,98.85,76.34h-.08c.75-1.53,1.48-2.93,2.17-4.14.2-.35.41-.69.62-1,.37.12,21.68,7.12,33.92,26.12a85.9,85.9,0,0,1,4.61,9.17c1.19,2.56,2.31,5,3.23,6.66a5,5,0,0,0,2.26,2C144.47,118.4,143.14,120.16,141.85,120.17Zm5.05-5.56h0a3.63,3.63,0,0,1-2.85-1.9c-.91-1.64-2-4-3.2-6.6a85.8,85.8,0,0,0-4.67-9.27C124.32,78.45,104.09,71.16,102,70.44A55.33,55.33,0,0,1,105.87,65a3.69,3.69,0,0,0,1.17.74L110,67.08c4.9,2.16,10,4.39,14.2,7.71a61.92,61.92,0,0,1,7.88,7.5c7.21,8,15.17,17.51,18.59,29.11C149.5,113.49,148.2,114.6,146.9,114.61Zm4.42-3.84c-3.53-11.58-11.47-21-18.65-29a64.2,64.2,0,0,0-8-7.59c-4.32-3.38-9.43-5.64-14.37-7.81L107.37,65a2.49,2.49,0,0,1-1-.64c1.33-1.61,2.74-3.16,4.21-4.65l1.8.66a.47.47,0,0,0,.15.06c7.68,2.91,17.32,7.91,27.23,19.25,3.59,4.1,10.42,13.81,13.26,24.19C153.65,106.16,153.24,109.14,151.32,110.77ZM155,100.21a7.86,7.86,0,0,1-1.54,2.2,60.68,60.68,0,0,0-5-11.61,6.22,6.22,0,0,1,3.45,1.32c.34.23.67.47,1,.72a15.88,15.88,0,0,0,2.54,1.62,3.7,3.7,0,0,0,.64.24A15.15,15.15,0,0,1,155,100.21Zm3.5-8.86a4.11,4.11,0,0,1-.56,1.8,1.71,1.71,0,0,1-1.28.81.3.3,0,0,0-.16,0l-.12,0a2.52,2.52,0,0,1-.62-.21,13.61,13.61,0,0,1-2.41-1.54c-.33-.25-.67-.5-1-.73A6.76,6.76,0,0,0,148.2,90a.36.36,0,0,0-.22.09,77.25,77.25,0,0,0-4.53-7,7.69,7.69,0,0,1,3.68.63,56.41,56.41,0,0,1,8.15,3.67,5.62,5.62,0,0,0,1.86.74,2.69,2.69,0,0,0,.4,0,2.44,2.44,0,0,0,1-.19A12.71,12.71,0,0,1,158.48,91.35Z"/>
        <path class="cls-12" d="M15.24,100.11l.24-.29-.08,0C15.35,99.9,15.29,100,15.24,100.11Z"/>
      </g>
    </g>
  </g>
</svg>
