<svg id="Layer_1" data-name="Layer 1" xmlns="http://www.w3.org/2000/svg" width="172" height="240" viewBox="0 0 172 240">
  <defs>
    <style>
      .cls-1 {
        fill: #050505;
        opacity: 0.5;
      }

      .cls-2 {
        fill: #fff;
      }

      .cls-3 {
        fill: #d8a576;
      }

      .cls-3, .cls-39 {
        stroke: #8c5f3a;
      }

      .cls-10, .cls-13, .cls-14, .cls-15, .cls-18, .cls-21, .cls-25, .cls-28, .cls-3, .cls-31, .cls-33, .cls-35, .cls-37, .cls-39, .cls-5, .cls-7, .cls-8 {
        stroke-miterlimit: 10;
      }

      .cls-10, .cls-14, .cls-15, .cls-18, .cls-21, .cls-28, .cls-3, .cls-33, .cls-35, .cls-37, .cls-39, .cls-5, .cls-7, .cls-8 {
        stroke-width: 0.5px;
      }

      .cls-4 {
        fill: #b88556;
      }

      .cls-5 {
        fill: #6f361b;
        stroke: #492212;
      }

      .cls-6 {
        fill: #5c2c15;
      }

      .cls-7 {
        fill: #b78552;
      }

      .cls-7, .cls-8 {
        stroke: #8e613c;
      }

      .cls-13, .cls-18, .cls-25, .cls-8 {
        fill: none;
      }

      .cls-9 {
        fill: #d7a777;
      }

      .cls-10 {
        fill: #eacbac;
        stroke: #aa754d;
      }

      .cls-11 {
        fill: #fbe9dd;
      }

      .cls-12 {
        fill: #eed1af;
      }

      .cls-13 {
        stroke: #d8a982;
      }

      .cls-14 {
        fill: #823d1e;
        stroke: #542513;
      }

      .cls-15 {
        fill: #843f21;
        stroke: #492012;
      }

      .cls-16 {
        opacity: 0.69;
      }

      .cls-17 {
        fill: #441e0e;
      }

      .cls-18 {
        stroke: #310600;
      }

      .cls-19 {
        fill: #e2b78d;
      }

      .cls-20 {
        fill: #572912;
        opacity: 0.72;
      }

      .cls-21 {
        fill: #844123;
        stroke: #421c0d;
      }

      .cls-22 {
        fill: #ce8261;
        opacity: 0.33;
      }

      .cls-23 {
        fill: #6d321b;
      }

      .cls-24, .cls-37 {
        fill: #fdecdc;
      }

      .cls-25 {
        stroke: #a4693f;
      }

      .cls-26 {
        fill: #fffcf9;
      }

      .cls-27 {
        fill: #e8caa8;
      }

      .cls-28 {
        fill: #7f3f0f;
        stroke: #3f290f;
      }

      .cls-29 {
        fill: #ffe23e;
      }

      .cls-30 {
        fill: #e8b121;
      }

      .cls-31 {
        fill: #22130e;
        stroke: #f48d11;
      }

      .cls-32 {
        fill: #796a65;
      }

      .cls-33 {
        fill: #f0a532;
        stroke: #d68922;
      }

      .cls-34 {
        fill: #fac52b;
      }

      .cls-35 {
        fill: #d19e6f;
        stroke: #91613a;
      }

      .cls-36 {
        fill: #bc895a;
      }

      .cls-37 {
        stroke: #9e6c44;
      }

      .cls-38 {
        fill: #e9caae;
      }

      .cls-39 {
        fill: #d9a677;
      }
    </style>
  </defs>
  <g>
    <path class="cls-1" d="M110.6,239.46a7.8,7.8,0,0,1-2.29-.34,10.78,10.78,0,0,1-2.76-1.24,8,8,0,0,1-6.35.78,11.11,11.11,0,0,1-6.88-6,16.42,16.42,0,0,1-3.81-5.16,16.24,16.24,0,0,1-3.8,5.16,11.13,11.13,0,0,1-6.88,6,8,8,0,0,1-6.36-.78,10.87,10.87,0,0,1-2.75,1.24,7.8,7.8,0,0,1-2.29.34,8.11,8.11,0,0,1-4.16-1.16,11.44,11.44,0,0,1-1.21-.87,10.29,10.29,0,0,1-1.25.45,7.84,7.84,0,0,1-2.29.34,8,8,0,0,1-4.15-1.16,12,12,0,0,1-5-6.43,16.64,16.64,0,0,1-3.66-5.94c-.41-.35-.82-.72-1.23-1.13h-.33A14.25,14.25,0,0,1,34.32,220c-.21-.19-.41-.39-.61-.59-1.76-1.9-3.43-3.86-5-5.87-7.89-.58-12.5-9.42-14.31-13.81C5.19,182.8,5.2,162.22,6.08,151.16a20.73,20.73,0,0,1,.16-2.65A22.4,22.4,0,0,1,9.83,137c0-.18,0-.37.05-.55l.06-.47a20.08,20.08,0,0,1,5.53-12.22,7,7,0,0,1,.21-1,24.08,24.08,0,0,1,6.66-12.6A41.4,41.4,0,0,1,16.2,92.67a44,44,0,0,1-.42-9.49,8,8,0,0,1-.95-4.05,39,39,0,0,1,.49-4.38,65.43,65.43,0,0,1,7.54-21.21c-.32-.44-.63-.9-.93-1.39a26.29,26.29,0,0,1-3.88-3.8c-.15-.18-.29-.37-.43-.56h0A8,8,0,0,1,18,38.27,7.93,7.93,0,0,1,18.56,36c-.17-1-.3-1.92-.4-2.73a8.56,8.56,0,0,0-.95-1.81,8,8,0,0,1-3.63-9.11A8,8,0,0,1,15,7.49a35.79,35.79,0,0,1,9.72-1.35A39.26,39.26,0,0,1,44.6,11.82h.22a8.64,8.64,0,0,1,1.43.13,26.87,26.87,0,0,1,15.41,8.93C63.82,20,66,19.2,68.3,18.47a72.92,72.92,0,0,1,20.12-2.63,77,77,0,0,1,25.82,4.35l.46.17.9.33a26.87,26.87,0,0,1,15.77-9.34,7.76,7.76,0,0,1,1.43-.13H133a39.3,39.3,0,0,1,19.84-5.68,36.17,36.17,0,0,1,9.71,1.35A8,8,0,0,1,164,21.73a8.4,8.4,0,0,1,.31,2.56,8,8,0,0,1-3.93,6.57,8.63,8.63,0,0,0-.95,1.82c-.1.8-.23,1.73-.4,2.73a8.06,8.06,0,0,1,.56,3.11,8,8,0,0,1,.23,9.27h0l-.47.61a27.7,27.7,0,0,1-4.33,4.13c-.25.36-.5.7-.75,1a63.23,63.23,0,0,1,8.05,25.1,8,8,0,0,1-1.19,5A40.74,40.74,0,0,1,154.39,110a24.15,24.15,0,0,1,6.94,12.93,6.94,6.94,0,0,1,.2,1,20.07,20.07,0,0,1,5.52,12.21c0,.16,0,.32.07.48s0,.35,0,.52a22.16,22.16,0,0,1,3.59,11.6,20.69,20.69,0,0,1,.16,2.64c.88,11.06.89,31.64-8.33,48.52-1.81,4.39-6.42,13.23-14.31,13.81q-2.34,3-5,5.87c-.19.2-.39.4-.6.59a14.25,14.25,0,0,1-8.83,3.62h-.33q-.66.64-1.32,1.2a17,17,0,0,1-3.56,5.64,12.24,12.24,0,0,1-5,6.42,8,8,0,0,1-4.15,1.16,7.8,7.8,0,0,1-2.29-.34,11.1,11.1,0,0,1-1.26-.45,11.44,11.44,0,0,1-1.21.87A8.05,8.05,0,0,1,110.6,239.46Z"/>
    <path class="cls-2" d="M105.6,234.46a7.8,7.8,0,0,1-2.29-.34,10.78,10.78,0,0,1-2.76-1.24,8,8,0,0,1-6.35.78,11.11,11.11,0,0,1-6.88-6,16.42,16.42,0,0,1-3.81-5.16,16.24,16.24,0,0,1-3.8,5.16,11.13,11.13,0,0,1-6.88,6,8,8,0,0,1-6.36-.78,10.87,10.87,0,0,1-2.75,1.24,7.8,7.8,0,0,1-2.29.34,8.11,8.11,0,0,1-4.16-1.16,11.44,11.44,0,0,1-1.21-.87,10.29,10.29,0,0,1-1.25.45,7.84,7.84,0,0,1-2.29.34,8,8,0,0,1-4.15-1.16,12,12,0,0,1-5-6.43,16.64,16.64,0,0,1-3.66-5.94c-.41-.35-.82-.72-1.23-1.13h-.33A14.25,14.25,0,0,1,29.32,215c-.21-.19-.41-.39-.61-.59-1.76-1.9-3.43-3.86-5-5.87-7.89-.58-12.5-9.42-14.31-13.81C.19,177.8.2,157.22,1.08,146.16a20.73,20.73,0,0,1,.16-2.65A22.4,22.4,0,0,1,4.83,132c0-.18,0-.37,0-.55l.06-.47a20.08,20.08,0,0,1,5.53-12.22,7,7,0,0,1,.21-1,24.08,24.08,0,0,1,6.66-12.6A41.4,41.4,0,0,1,11.2,87.67a44,44,0,0,1-.42-9.49,8,8,0,0,1-.95-4.05,39,39,0,0,1,.49-4.38,65.43,65.43,0,0,1,7.54-21.21c-.32-.44-.63-.9-.93-1.39a26.29,26.29,0,0,1-3.88-3.8c-.15-.18-.29-.37-.43-.56h0A8,8,0,0,1,13,33.27,7.93,7.93,0,0,1,13.56,31c-.17-1-.3-1.92-.4-2.73a8.56,8.56,0,0,0-.95-1.81,8,8,0,0,1-3.63-9.11A8,8,0,0,1,10,2.49a35.79,35.79,0,0,1,9.72-1.35A39.26,39.26,0,0,1,39.6,6.82h.22a8.64,8.64,0,0,1,1.43.13,26.87,26.87,0,0,1,15.41,8.93C58.82,15,61,14.2,63.3,13.47a72.92,72.92,0,0,1,20.12-2.63,77,77,0,0,1,25.82,4.35l.46.17.9.33a26.87,26.87,0,0,1,15.77-9.34,7.76,7.76,0,0,1,1.43-.13H128A39.3,39.3,0,0,1,147.87.54a36.17,36.17,0,0,1,9.71,1.35A8,8,0,0,1,159,16.73a8.4,8.4,0,0,1,.31,2.56,8,8,0,0,1-3.93,6.57,8.63,8.63,0,0,0-.95,1.82c-.1.8-.23,1.73-.4,2.73a8.06,8.06,0,0,1,.56,3.11,8,8,0,0,1,.23,9.27h0l-.47.61a27.7,27.7,0,0,1-4.33,4.13c-.25.36-.5.7-.75,1a63.23,63.23,0,0,1,8.05,25.1,8,8,0,0,1-1.19,5A40.74,40.74,0,0,1,149.39,105a24.15,24.15,0,0,1,6.94,12.93,6.94,6.94,0,0,1,.2,1,20.07,20.07,0,0,1,5.52,12.21c0,.16,0,.32.07.48s0,.35,0,.52a22.16,22.16,0,0,1,3.59,11.6,20.69,20.69,0,0,1,.16,2.64c.88,11.06.89,31.64-8.33,48.52-1.81,4.39-6.42,13.23-14.31,13.81q-2.34,3-5,5.87c-.19.2-.39.4-.6.59a14.25,14.25,0,0,1-8.83,3.62h-.33q-.66.64-1.32,1.2a17,17,0,0,1-3.56,5.64,12.24,12.24,0,0,1-5,6.42,8,8,0,0,1-4.15,1.16,7.8,7.8,0,0,1-2.29-.34,11.1,11.1,0,0,1-1.26-.45,11.44,11.44,0,0,1-1.21.87A8.05,8.05,0,0,1,105.6,234.46Z"/>
    <g>
      <g>
        <g>
          <g>
            <path class="cls-3" d="M139.11,47.54a18.52,18.52,0,0,0,7.52-14.18s-1.2,3.18-3.76,3.44c0,0,2.42-.21,3.76-10.89,0,0,1.49-5.24,4.73-6.94,0,0-1.39-.87-4.88,2a22.41,22.41,0,0,1,8-11.19l-12.82.66L125.82,27l.32,6.62S136.58,41.73,139.11,47.54Z"/>
            <path class="cls-4" d="M133,39.92s7.63-3.25,11-16.83l-2.62,2.77S144.39,12.62,153,10l-11.87,1.11-10.68,12L127.8,34.92Z"/>
          </g>
          <g>
            <path class="cls-5" d="M113.44,25.86s4.16-9.79,14.36-11.64c0,0-3,2.46-3.44,4.85,0,0,13.25-14.48,31.06-9.48,0,0-14,1.47-22.43,13.34,0,0,3.78-1.24,5.09.07,0,0-4.9,1.57-6.06,5.55,0,0,2.43-1.51,3.9-.61,0,0-5.17,4.23-4.86,9.71C131.06,37.65,119.76,28.17,113.44,25.86Z"/>
            <path class="cls-6" d="M117,28s.62-6.16,5.09-6.7v5.24s8.7-15.95,31-17c0,0-18.65,7-20,13.34,0,0,4.47-1,5.09.07,0,0-5.26,1.7-6.06,5.55,0,0,3-1.15,3.9-.61,0,0-5.47,4.23-4.86,9.71C131.06,37.65,121,28.86,117,28Z"/>
          </g>
        </g>
        <g>
          <g>
            <path class="cls-3" d="M28.51,48.13A18.5,18.5,0,0,1,21,34s1.19,3.19,3.75,3.44c0,0-2.42-.2-3.75-10.89,0,0-1.49-5.24-4.73-6.93,0,0,1.39-.88,4.88,1.95a22.43,22.43,0,0,0-8-11.19L26,11,41.8,27.58l-.32,6.63S31.05,42.33,28.51,48.13Z"/>
            <path class="cls-4" d="M34.64,40.52s-7.63-3.25-11-16.83l2.62,2.76s-3-13.24-11.64-15.83l11.87,1.11,10.68,12,2.68,11.83Z"/>
          </g>
          <g>
            <path class="cls-5" d="M54.19,26.45S50,16.66,39.83,14.82c0,0,3,2.46,3.44,4.85,0,0-13.26-14.49-31.06-9.48,0,0,14,1.47,22.43,13.33,0,0-3.78-1.23-5.09.08,0,0,4.9,1.57,6.06,5.55,0,0-2.44-1.52-3.9-.62,0,0,5.16,4.24,4.85,9.71C36.56,38.24,47.87,28.76,54.19,26.45Z"/>
            <path class="cls-6" d="M50.67,28.61s-.62-6.17-5.09-6.71v5.25s-8.71-16-31-17c0,0,18.65,7,20,13.33,0,0-4.47-1-5.09.08,0,0,5.25,1.7,6.06,5.55,0,0-3-1.16-3.9-.62,0,0,5.47,4.24,4.85,9.71C36.56,38.24,46.58,29.46,50.67,28.61Z"/>
          </g>
        </g>
      </g>
      <g>
        <g>
          <path class="cls-7" d="M44.34,205.23l32.35,5.57s.51,3.18,14.78,2.77l30.7-5.84,10.26-61-14.5-22.81-77.09,3.77L26.56,141.4Z"/>
          <path class="cls-8" d="M89.73,213.63s-9.53,1.53-7.06-7.1"/>
        </g>
        <path class="cls-9" d="M49.3,139.48s4.48,7.22,8.71,6.89c0,0-1-2.2-.77-3,0,0,4.16,9.38,11.86,9.94a6.15,6.15,0,0,1-2-4.07A18.62,18.62,0,0,0,74.81,155s7.55,2.29,7.7,5.86c0,0,1.78-1.33-.6-4.46,0,0,3.15,1,2.37,6.31,0,0,6.17-1,10.25-8.39,0,0,1.24.5-.77,3.22,0,0,4.24.31,8.56-7.31a4,4,0,0,1-.46,2.84s5.58-4.34,6.08-7.49a7.77,7.77,0,0,1-1,4.15s6.71-8.09,10.25,3.34c0,0,7.19,24.71-7.4,39.41,0,0-7.5,8.94-23.42-1,0,0-3.16-2.88-8.37.41,0,0-17.58,11.2-28.7-13.25C49.3,178.6,41.92,162.42,49.3,139.48Z"/>
      </g>
      <g>
        <path class="cls-10" d="M80,94.62l-35.63,18s-.61,21.73,5.94,25.43c0,0-1.2-3.74-1-5.43,0,0-.12,5.39,8.2,9.9a5.6,5.6,0,0,1,.16-5.28s-.85,8.25,10.83,11.91a6.23,6.23,0,0,1-1.58-6s.83,5.22,9,8.46c0,0,5.69,1.95,6.71,4.67,0,0,.11-4.72-3.64-6.27,0,0,5.39.56,5.65,7.78,0,0,.26.29,1.18-.64,0,0,3.24,1.23,6.58-4.06,0,0,2.31-4.95,3.18-5.1a4.85,4.85,0,0,1-.92,5.1s3.08-.51,5.13-4.47c0,0,2.37-2.85,3.24-2.4l-.77,1.94s4-1.54,6.22-8.42a6.85,6.85,0,0,1-.93,4.93s6.17-3.81,7.25-9.89a10.87,10.87,0,0,1,0,4.17s3.38-1.58,4.69-11.37l-4.54-17.08Z"/>
        <g>
          <path class="cls-11" d="M81.07,106.68s2,7,5.35,0c0,0,7,10.27,22.35,11.34,0,0,10,5.5-3.7,20.35l3.1-.23s-5.78,4-10.4,5.42c0,0-6.58,3-6.68,6.9L91,147s-2.52.08-4.47,4.19c0,0-1.36-6.2-7.23-8.38a6.75,6.75,0,0,1,1.84,4.39,24,24,0,0,0-10.87-4.64,38,38,0,0,1-10.79-5h2.47s-12.14-4.14-7-19A37,37,0,0,0,81.07,106.68Z"/>
          <g>
            <g>
              <path class="cls-12" d="M55,123.15a15.09,15.09,0,0,0,4.65,9.16s4,7.36,8.48,8c0,0-6.58-6-7.12-10.26C61,130,57.18,129.81,55,123.15Z"/>
              <path class="cls-12" d="M78,133.75a7.25,7.25,0,0,1-.9-3.35s-1.52.12-3.31-6.63C73.79,123.77,74.07,132,78,133.75Z"/>
              <path class="cls-12" d="M87.56,140.28s.39,4.87-.85,5.91a6.42,6.42,0,0,0,4.2-6.71s4.17-4.43.78-12.9c0,0,.26,9.82-1.55,11.48l-.27,0s-.25,4-1.79,6.17Z"/>
              <path class="cls-12" d="M104.57,133.75s.45,2.15-.56,2.89a17.39,17.39,0,0,0,5.78-14.42S108.32,130.86,104.57,133.75Z"/>
            </g>
            <g>
              <path class="cls-13" d="M73.57,122.89s1.35,6.23,3.61,8c0,0-1.53-7.88.82-14.17"/>
              <path class="cls-13" d="M55,121.61s.54,6.84,6,8.41"/>
              <path class="cls-13" d="M59.39,122.89s.85,10.57,6.55,14.64c0,0-2.77-2.58-1.61-8.61"/>
              <path class="cls-13" d="M86.37,132.91a67.79,67.79,0,0,1,1.81,11s1.88-2.78,1.58-9.4"/>
              <path class="cls-13" d="M91.53,126.05s.85,8.85-1.39,11.86"/>
              <path class="cls-13" d="M105.09,126.58s1.54,5.16-1.77,8.28c0,0,5.55-3.71,6.47-14.36"/>
            </g>
          </g>
        </g>
      </g>
      <g>
        <g>
          <g>
            <g>
              <path class="cls-14" d="M9.54,142.26s-4.36,28.42,7.1,49c0,0,5.23,13.19,10.35,8.14l-7-25.79Z"/>
              <path class="cls-6" d="M13.82,167s-1.05,12.38,11.05,33.49A1.88,1.88,0,0,0,27,199L15.7,168.54Z"/>
            </g>
            <g>
              <path class="cls-14" d="M16.17,168.27s-.61,20.19,18.4,40.64c0,0,5.2,4.52,5.94-1.34L26.06,165Z"/>
              <path class="cls-6" d="M40.51,208.81s-1.58,3.23-4.76.3c0,0-12.58-24.42-11.42-39.57l3.76,1.86S35.43,196.32,40.51,208.81Z"/>
            </g>
            <g>
              <path class="cls-14" d="M27.63,164.69s-.45,23,9.93,38.78c0,0,8.5,16.93,14,10.42l-1.47-8s-6.68-12.82-8.79-46.67l-12-1.71Z"/>
              <path class="cls-6" d="M35.75,163.12s1.54,33.22,14.93,50l.89-3.53-1.69-4.07s-5-10.94-8.57-45.56l-4.08-2.47Z"/>
            </g>
          </g>
          <g>
            <path class="cls-15" d="M29.88,105.35S17,112.17,18.55,122.49c0,0-6.38,3-5.66,12,0,0-7.67,7.78-.79,18.14,0,0-3.27,5.75.79,14,0,0,2.11,4.63,7.05,3.13,0,0,2.46-1.93,2.35-4.24,0,0,.88,7,6.16,7,0,0,4.63.35,5.9-7.24,0,0,5.37,1.15,7.19-7.71a18.58,18.58,0,0,0,0-8.42s4.73-1.4,4.48-12.68c0,0,3-2.56,3-9.79,0,0,3.7-6.77,2.1-13.66Z"/>
            <g class="cls-16">
              <g>
                <path class="cls-17" d="M18.39,119.82s.15,7.3,5.39,2.88C23.78,122.7,17.46,130.61,18.39,119.82Z"/>
                <path class="cls-17" d="M23.78,118.28s2.47,5.7,6.84.72C30.62,119,25.43,126.81,23.78,118.28Z"/>
                <path class="cls-17" d="M30.87,119.23s1.39,1.39,3.53-.54C34.4,118.69,31.57,122.47,30.87,119.23Z"/>
                <path class="cls-17" d="M28.41,124.16s2.5,4,6.7-1C35.11,123.2,31.14,130.68,28.41,124.16Z"/>
                <path class="cls-17" d="M39.54,124.51s1.43,3.78,4.82,1.19C44.36,125.7,40.31,130.25,39.54,124.51Z"/>
                <path class="cls-17" d="M42.43,129.44s3.32,2,6.17-2.23C48.6,127.21,47.13,133.06,42.43,129.44Z"/>
                <path class="cls-17" d="M31.76,129.29s3.58,7.51,9.86.58C41.62,129.87,35,141,31.76,129.29Z"/>
                <path class="cls-17" d="M36.69,137.19s4.9,4.85,9.83-2.28l1.31-2s-1.24,5.93-6.21,7.71C41.62,140.62,37.46,141,36.69,137.19Z"/>
                <path class="cls-17" d="M24,138.42s4.73,9.56,11.07-1.49c0,0-1.67,9.15-9,6.06A9.74,9.74,0,0,1,24,138.42Z"/>
                <path class="cls-17" d="M19.24,128.92s2.39,7.92,8.51,2.49l1.83-1.58s-1.9,4.54-6.76,5A5.25,5.25,0,0,1,19.24,128.92Z"/>
                <path class="cls-17" d="M12.84,132.22s-.17,8.78,4.52,9.55c0,0,3.76,1,6-3.35,0,0,0,3.43-5.24,5.63C18.08,144.05,11.53,144.89,12.84,132.22Z"/>
                <path class="cls-17" d="M18.81,147.17s4.78,7.16,10.25,0c0,0-3.81,8.4-9.32,2.62A5,5,0,0,1,18.81,147.17Z"/>
                <path class="cls-17" d="M32.84,145.7s6.59,9.56,12.14-1.81c0,0-1.28,8.09-7.59,7.67C37.39,151.56,33.11,150.17,32.84,145.7Z"/>
                <path class="cls-17" d="M9.18,144.47s1.12,9.83,7.48,9c0,0,2.85-.08,3.73-1,0,0-2.86,5.82-7.72,2.74A13.37,13.37,0,0,1,9.18,144.47Z"/>
                <path class="cls-17" d="M23,155.3s6.75,7.13,11.56-2.24c0,0-1.5,7.52-7.7,6.9A8.79,8.79,0,0,1,23,155.3Z"/>
                <path class="cls-17" d="M15.23,159.54s4.24,7,10.36,2.5c0,0-3,6.13-8,1.7C17.62,163.74,15.38,161.08,15.23,159.54Z"/>
                <path class="cls-17" d="M10.8,158.61s1.46,14.1,10.83,8.94c0,0,.07,4.62-5.75,3.74C15.88,171.29,10,169,10.8,158.61Z"/>
                <path class="cls-17" d="M22,168.27s5.52,7.76,11.17.77c0,0-1.31,6.55-7.62,4.6A10.8,10.8,0,0,1,22,168.27Z"/>
                <path class="cls-17" d="M29.51,162.21s6.37,8,11.33-3.86A10,10,0,0,1,36.91,166S32.44,168.71,29.51,162.21Z"/>
              </g>
            </g>
            <g>
              <path class="cls-18" d="M18.64,118.68s-1.22,9.71,5.56,2.75"/>
              <path class="cls-18" d="M24.25,116.69s0,5.27,4.05,4a7.53,7.53,0,0,0,2.78-2.8s.9,3.14,4-.67"/>
              <path class="cls-18" d="M28.37,121.47s.42,5.08,4.64,3.61a7.64,7.64,0,0,0,2.74-3.77"/>
              <path class="cls-18" d="M39.66,122.69s.7,6.14,5.48,1.68"/>
              <path class="cls-18" d="M42.42,127.7s4.06,3.85,6.88-1.35"/>
              <path class="cls-18" d="M32.06,127.46s1.09,8.21,6.53,5a11.64,11.64,0,0,0,3.81-4.35"/>
              <path class="cls-18" d="M19.42,126.14s-.82,6.65,4.24,7.3c0,0,4.44.05,6.68-5.45"/>
              <path class="cls-18" d="M13,132.05s-1,8.89,4.24,10.42c0,0,4,1.19,6.84-5.21"/>
              <path class="cls-18" d="M24.15,136s.8,7.09,5.38,6.14c0,0,4.39.62,6.22-6.7"/>
              <path class="cls-18" d="M36.81,134.52s.29,5.31,5.59,4.67c0,0,2.81-1.36,3.87-3"/>
              <path class="cls-18" d="M32.83,143.12s.26,6.14,5.86,7.25c0,0,2.56-.3,3.59-1.65"/>
              <path class="cls-18" d="M18.63,143.12s-.52,6.68,5.52,7.25c0,0,4.48.6,5.89-7"/>
              <path class="cls-18" d="M9.38,143.69a14.24,14.24,0,0,0,4.12,10.59s5.2,2.48,7.9-3.9"/>
              <path class="cls-18" d="M22.5,150.37s.22,6.92,5.59,8.23c0,0,5.14,1.19,7.66-8.62"/>
              <path class="cls-18" d="M14.89,155.4s.23,6.67,6,8.52c0,0,3.53.61,6.3-4.74"/>
              <path class="cls-18" d="M29.13,159.18S31.3,167,37,165c0,0,4.05-2.58,4.47-7.05"/>
            </g>
            <g>
              <path class="cls-19" d="M18.86,118.23s.15,7.3,5.39,2.88C24.25,121.11,17.93,129,18.86,118.23Z"/>
              <path class="cls-19" d="M24.25,116.69s2.47,5.7,6.83.72C31.08,117.41,25.9,125.22,24.25,116.69Z"/>
              <path class="cls-19" d="M31.34,117.64s1.39,1.39,3.53-.54C34.87,117.1,32,120.88,31.34,117.64Z"/>
              <path class="cls-19" d="M28.88,122.57s2.5,4,6.7-1C35.58,121.61,31.61,129.08,28.88,122.57Z"/>
              <path class="cls-19" d="M40,122.92s1.43,3.77,4.82,1.19C44.83,124.11,40.78,128.66,40,122.92Z"/>
              <path class="cls-19" d="M42.9,127.85s3.31,2,6.17-2.23C49.07,125.62,47.6,131.47,42.9,127.85Z"/>
              <path class="cls-19" d="M32.23,127.7s3.58,7.51,9.86.57C42.09,128.27,35.5,139.37,32.23,127.7Z"/>
              <path class="cls-19" d="M37.16,135.59s4.89,4.86,9.83-2.27l1.31-2s-1.24,5.93-6.21,7.7C42.09,139,37.93,139.41,37.16,135.59Z"/>
              <path class="cls-19" d="M24.51,136.83s4.73,9.55,11.07-1.49c0,0-1.67,9.14-9,6.06A9.66,9.66,0,0,1,24.51,136.83Z"/>
              <path class="cls-19" d="M19.7,127.32s2.39,7.93,8.52,2.5L30,128.24s-1.9,4.54-6.75,5A5.26,5.26,0,0,1,19.7,127.32Z"/>
              <path class="cls-19" d="M13.31,130.62s-.17,8.79,4.52,9.56c0,0,3.76,1,6-3.35,0,0,0,3.43-5.24,5.62C18.55,142.45,12,143.3,13.31,130.62Z"/>
              <path class="cls-19" d="M19.28,145.57s4.78,7.17,10.25,0c0,0-3.81,8.4-9.32,2.62A5,5,0,0,1,19.28,145.57Z"/>
              <path class="cls-19" d="M33.31,144.11s6.59,9.56,12.13-1.81c0,0-1.27,8.09-7.59,7.67A6.86,6.86,0,0,1,33.31,144.11Z"/>
              <path class="cls-19" d="M9.65,142.88s1.12,9.82,7.47,9c0,0,2.85-.07,3.74-1,0,0-2.86,5.82-7.72,2.74A13.37,13.37,0,0,1,9.65,142.88Z"/>
              <path class="cls-19" d="M23.48,153.71s6.74,7.12,11.56-2.24c0,0-1.5,7.51-7.71,6.9A8.79,8.79,0,0,1,23.48,153.71Z"/>
              <path class="cls-19" d="M15.7,157.94s4.24,7,10.36,2.51c0,0-3,6.12-8,1.69C18.09,162.14,15.85,159.48,15.7,157.94Z"/>
              <path class="cls-19" d="M11.27,157s1.46,14.1,10.82,8.94c0,0,.08,4.62-5.74,3.74C16.35,169.7,10.46,167.42,11.27,157Z"/>
              <path class="cls-19" d="M22.5,166.68s5.53,7.76,11.18.77c0,0-1.31,6.55-7.62,4.6A10.86,10.86,0,0,1,22.5,166.68Z"/>
              <path class="cls-19" d="M30,160.62s6.37,8,11.33-3.86a10,10,0,0,1-3.93,7.68S32.91,167.11,30,160.62Z"/>
            </g>
          </g>
        </g>
        <path class="cls-20" d="M26.77,107.75l8.81,7.81s-1.75-2.85-1.52-4.32c0,0,6.53,8.38,17.3,7v-5.44l-18.72-8.69A14.11,14.11,0,0,0,26.77,107.75Z"/>
      </g>
      <g>
        <g>
          <g>
            <g>
              <path class="cls-14" d="M157.46,142.49s4.36,28.43-7.1,49c0,0-5.23,13.19-10.35,8.14l7.05-25.79Z"/>
              <path class="cls-6" d="M153.18,167.25s1,12.38-11.05,33.5a1.88,1.88,0,0,1-2.12-1.51l11.29-30.47Z"/>
            </g>
            <g>
              <path class="cls-14" d="M150.83,168.5s.61,20.19-18.4,40.64c0,0-5.2,4.52-5.94-1.34l14.45-42.58Z"/>
              <path class="cls-6" d="M126.49,209s1.58,3.23,4.76.3c0,0,12.58-24.42,11.42-39.57l-3.76,1.86S131.57,196.55,126.49,209Z"/>
            </g>
            <g>
              <path class="cls-14" d="M139.37,164.92s.45,23-9.93,38.78c0,0-8.5,16.93-14,10.42l1.47-8s6.68-12.82,8.79-46.67l12.05-1.71Z"/>
              <path class="cls-6" d="M131.25,163.35s-1.54,33.22-14.93,50l-.89-3.53,1.69-4.07s5-10.94,8.57-45.56l4.08-2.47Z"/>
            </g>
          </g>
          <g>
            <path class="cls-15" d="M137.12,105.58s12.86,6.82,11.33,17.14c0,0,6.38,3,5.66,12,0,0,7.67,7.78.79,18.14,0,0,3.27,5.75-.79,14,0,0-2.11,4.63-7.05,3.13,0,0-2.46-1.92-2.35-4.24,0,0-.88,7-6.16,7,0,0-4.63.35-5.9-7.24,0,0-5.37,1.15-7.19-7.71a18.58,18.58,0,0,1,0-8.42s-4.73-1.4-4.48-12.67c0,0-3-2.57-3-9.8,0,0-3.7-6.77-2.1-13.66Z"/>
            <g class="cls-16">
              <g>
                <path class="cls-17" d="M148.61,120.05s-.15,7.3-5.39,2.88C143.22,122.93,149.54,130.84,148.61,120.05Z"/>
                <path class="cls-17" d="M143.22,118.51s-2.47,5.7-6.84.72C136.38,119.23,141.57,127,143.22,118.51Z"/>
                <path class="cls-17" d="M136.13,119.46s-1.39,1.39-3.53-.54C132.6,118.92,135.43,122.7,136.13,119.46Z"/>
                <path class="cls-17" d="M138.59,124.39s-2.5,4-6.7-1C131.89,123.43,135.86,130.91,138.59,124.39Z"/>
                <path class="cls-17" d="M127.46,124.74s-1.43,3.78-4.82,1.2C122.64,125.94,126.69,130.48,127.46,124.74Z"/>
                <path class="cls-17" d="M124.57,129.67s-3.32,2-6.17-2.23C118.4,127.44,119.87,133.29,124.57,129.67Z"/>
                <path class="cls-17" d="M135.24,129.52s-3.58,7.51-9.86.58C125.38,130.1,132,141.19,135.24,129.52Z"/>
                <path class="cls-17" d="M130.31,137.42s-4.9,4.85-9.83-2.28l-1.31-2s1.24,5.93,6.21,7.71C125.38,140.85,129.54,141.23,130.31,137.42Z"/>
                <path class="cls-17" d="M143,138.65s-4.73,9.56-11.07-1.49c0,0,1.67,9.15,9,6.06A9.74,9.74,0,0,0,143,138.65Z"/>
                <path class="cls-17" d="M147.76,129.15s-2.39,7.92-8.51,2.49l-1.83-1.58s1.9,4.55,6.76,5A5.25,5.25,0,0,0,147.76,129.15Z"/>
                <path class="cls-17" d="M154.16,132.45s.17,8.78-4.52,9.55c0,0-3.76,1-6-3.35,0,0,0,3.43,5.24,5.63C148.92,144.28,155.47,145.12,154.16,132.45Z"/>
                <path class="cls-17" d="M148.19,147.4s-4.78,7.16-10.25,0c0,0,3.81,8.4,9.32,2.62A5,5,0,0,0,148.19,147.4Z"/>
                <path class="cls-17" d="M134.16,145.93s-6.59,9.56-12.14-1.81c0,0,1.28,8.09,7.59,7.67C129.61,151.79,133.89,150.4,134.16,145.93Z"/>
                <path class="cls-17" d="M157.82,144.7s-1.12,9.83-7.47,9c0,0-2.86-.08-3.74-1,0,0,2.86,5.82,7.72,2.74A13.37,13.37,0,0,0,157.82,144.7Z"/>
                <path class="cls-17" d="M144,155.53s-6.75,7.13-11.56-2.24c0,0,1.5,7.52,7.7,6.9A8.79,8.79,0,0,0,144,155.53Z"/>
                <path class="cls-17" d="M151.77,159.77s-4.24,7-10.36,2.5c0,0,3,6.13,8,1.7C149.38,164,151.62,161.31,151.77,159.77Z"/>
                <path class="cls-17" d="M156.2,158.84s-1.46,14.1-10.83,8.94c0,0-.07,4.63,5.75,3.74C151.12,171.52,157,169.25,156.2,158.84Z"/>
                <path class="cls-17" d="M145,168.5s-5.52,7.76-11.17.77c0,0,1.31,6.55,7.62,4.6A10.8,10.8,0,0,0,145,168.5Z"/>
                <path class="cls-17" d="M137.49,162.44s-6.37,8-11.33-3.86a10,10,0,0,0,3.93,7.69S134.56,168.94,137.49,162.44Z"/>
              </g>
            </g>
            <g>
              <path class="cls-18" d="M148.36,118.91s1.22,9.71-5.56,2.75"/>
              <path class="cls-18" d="M142.75,116.92s0,5.27-4.05,4a7.59,7.59,0,0,1-2.78-2.81s-.9,3.14-4-.67"/>
              <path class="cls-18" d="M138.63,121.7s-.42,5.08-4.64,3.61a7.64,7.64,0,0,1-2.74-3.77"/>
              <path class="cls-18" d="M127.34,122.92s-.7,6.14-5.48,1.68"/>
              <path class="cls-18" d="M124.58,127.93s-4.06,3.85-6.88-1.35"/>
              <path class="cls-18" d="M134.94,127.7s-1.09,8.2-6.53,5a11.64,11.64,0,0,1-3.81-4.35"/>
              <path class="cls-18" d="M147.58,126.37s.82,6.66-4.24,7.3c0,0-4.44.05-6.68-5.45"/>
              <path class="cls-18" d="M154,132.28s1,8.89-4.24,10.42c0,0-4,1.19-6.84-5.21"/>
              <path class="cls-18" d="M142.85,136.26s-.79,7.09-5.38,6.14c0,0-4.39.62-6.22-6.7"/>
              <path class="cls-18" d="M130.19,134.75s-.29,5.31-5.59,4.67c0,0-2.81-1.36-3.87-3"/>
              <path class="cls-18" d="M134.17,143.35s-.26,6.14-5.86,7.25c0,0-2.56-.3-3.59-1.65"/>
              <path class="cls-18" d="M148.37,143.35s.52,6.68-5.52,7.25c0,0-4.48.6-5.89-7"/>
              <path class="cls-18" d="M157.62,143.92a14.24,14.24,0,0,1-4.12,10.59s-5.2,2.48-7.9-3.9"/>
              <path class="cls-18" d="M144.5,150.6s-.22,6.92-5.59,8.23c0,0-5.14,1.19-7.66-8.62"/>
              <path class="cls-18" d="M152.11,155.63s-.23,6.67-6,8.52c0,0-3.53.61-6.3-4.74"/>
              <path class="cls-18" d="M137.87,159.41s-2.17,7.8-7.91,5.81c0,0-4.05-2.58-4.47-7.05"/>
            </g>
            <g>
              <path class="cls-19" d="M148.14,118.46s-.15,7.3-5.39,2.88C142.75,121.34,149.07,129.25,148.14,118.46Z"/>
              <path class="cls-19" d="M142.75,116.92s-2.47,5.7-6.83.72C135.92,117.64,141.1,125.45,142.75,116.92Z"/>
              <path class="cls-19" d="M135.66,117.87s-1.39,1.39-3.53-.54C132.13,117.33,135,121.11,135.66,117.87Z"/>
              <path class="cls-19" d="M138.12,122.8s-2.5,4-6.7-1C131.42,121.84,135.39,129.31,138.12,122.8Z"/>
              <path class="cls-19" d="M127,123.15s-1.43,3.77-4.82,1.19C122.17,124.34,126.22,128.89,127,123.15Z"/>
              <path class="cls-19" d="M124.1,128.08s-3.31,2-6.17-2.23C117.93,125.85,119.4,131.7,124.1,128.08Z"/>
              <path class="cls-19" d="M134.77,127.93s-3.58,7.51-9.86.57C124.91,128.5,131.5,139.6,134.77,127.93Z"/>
              <path class="cls-19" d="M129.84,135.83s-4.89,4.85-9.83-2.28l-1.31-2s1.24,5.93,6.21,7.7C124.91,139.25,129.07,139.64,129.84,135.83Z"/>
              <path class="cls-19" d="M142.49,137.06s-4.72,9.55-11.07-1.49c0,0,1.67,9.14,9,6.06A9.66,9.66,0,0,0,142.49,137.06Z"/>
              <path class="cls-19" d="M147.3,127.55s-2.39,7.93-8.52,2.5L137,128.47s1.9,4.54,6.75,5A5.26,5.26,0,0,0,147.3,127.55Z"/>
              <path class="cls-19" d="M153.69,130.85s.17,8.79-4.52,9.56c0,0-3.76,1-6-3.35,0,0,0,3.43,5.24,5.62C148.45,142.68,155,143.53,153.69,130.85Z"/>
              <path class="cls-19" d="M147.72,145.81s-4.78,7.16-10.25,0c0,0,3.81,8.4,9.32,2.62A5,5,0,0,0,147.72,145.81Z"/>
              <path class="cls-19" d="M133.69,144.34s-6.59,9.56-12.13-1.81c0,0,1.27,8.09,7.59,7.67A6.86,6.86,0,0,0,133.69,144.34Z"/>
              <path class="cls-19" d="M157.35,143.11s-1.12,9.82-7.47,9c0,0-2.85-.07-3.74-1,0,0,2.86,5.82,7.73,2.74A13.38,13.38,0,0,0,157.35,143.11Z"/>
              <path class="cls-19" d="M143.52,153.94s-6.74,7.12-11.56-2.24c0,0,1.5,7.51,7.71,6.9A8.79,8.79,0,0,0,143.52,153.94Z"/>
              <path class="cls-19" d="M151.3,158.17s-4.24,7-10.36,2.51c0,0,3,6.13,8,1.69C148.91,162.37,151.15,159.72,151.3,158.17Z"/>
              <path class="cls-19" d="M155.73,157.25s-1.46,14.1-10.82,8.94c0,0-.08,4.62,5.74,3.74C150.65,169.93,156.54,167.65,155.73,157.25Z"/>
              <path class="cls-19" d="M144.5,166.91s-5.53,7.76-11.18.77c0,0,1.31,6.55,7.62,4.6A10.86,10.86,0,0,0,144.5,166.91Z"/>
              <path class="cls-19" d="M137,160.85s-6.37,8-11.33-3.86a10,10,0,0,0,3.93,7.68S134.09,167.34,137,160.85Z"/>
            </g>
          </g>
        </g>
        <path class="cls-20" d="M140.23,108l-8.81,7.81s1.75-2.85,1.52-4.32c0,0-6.53,8.38-17.29,7v-5.44l18.71-8.69A14.24,14.24,0,0,1,140.23,108Z"/>
      </g>
      <path class="cls-21" d="M17.83,74.41s1.29-38.23,47.94-53.33c0,0,43.63-13.67,73.34,26.46A55.26,55.26,0,0,1,149.4,74.41l-2.88-3.5s9.15,23.47-13.92,39.77l.74-3.77s-8.13,10.13-25.17,7.48a34.18,34.18,0,0,1-23.31-12.92l-1.56-2.1s-7.88,16.82-32,15.55c0,0-10.62.27-17.58-7.75a5.75,5.75,0,0,0,1.6,3.88s-13.9-6-16.16-24.53c0,0-1.54-8.77,1.29-15.63A5.53,5.53,0,0,0,17.83,74.41Z"/>
      <path class="cls-22" d="M18.22,71S36,3.71,106.78,22.8C106.78,22.8,50.09,3.3,18.22,71Z"/>
      <path class="cls-23" d="M19.11,85.5s4,13.77,11.56,17.27l-2.35-3.5s34.31,20.14,48-13L59.91,46.05,54.7,42.19s20.61,3.65,27,24.71c0,0,1.81,5.1,4.16-.05,0,0,6-21.6,27.54-24.9l-7.65,6.38,22.33-7.06s-4-10.13-8.82-12c0,0,26.41,13.75,29.8,44.57l-2.62-3s8.94,23.25-13.88,39.9l.83-4s-14.65,16.64-40.26,2.25c0,0-11.22-7.29-8.86-11a37.46,37.46,0,0,1-18.54,15s-22.1,6.7-32.15-6.26c0,0,.23,3.38,1.42,4.1C35,110.78,21.53,104.82,19.11,85.5Z"/>
      <g>
        <g>
          <g>
            <path class="cls-24" d="M56.62,45.84,39.2,43.68s-3.85,1.52-3.93,5.22c0,0-8.48,3.9-3.77,13.86,0,0-7.94,7.41-.08,15,0,0-1.47,11.09,11.1,12,0,0,2.23,8,14,3.93,0,0,9.56,4.55,14.34-4.86,0,0,9.32-3.23,7.12-14,0,0,3.83-4.11-1.73-9.1S56.62,45.84,56.62,45.84Z"/>
            <g>
              <path class="cls-25" d="M35,48.33S34.81,51.77,39,55"/>
              <path class="cls-25" d="M34.91,48.74s-9.39,6.52-2.68,14.88a5.92,5.92,0,0,0,4.35,2"/>
              <path class="cls-25" d="M31.54,63.09s-7.83,7.12-.12,14.71c0,0,4.58,2.62,8.63,0"/>
              <path class="cls-25" d="M31.55,78s-2,8.64,7.81,11.34c0,0,5.24,1,8.13-2.47"/>
              <path class="cls-25" d="M42.43,89.59s4.63,10.29,15,3.35a10.17,10.17,0,0,0,2.85-4.74"/>
              <path class="cls-25" d="M56.57,93.65s8.89,4.85,14.27-5A15.38,15.38,0,0,0,71.61,83"/>
              <path class="cls-25" d="M70.8,88.85S80,87,78.2,75.18c0,0-.77-2-1.91-2.49"/>
              <path class="cls-25" d="M78.3,75.06s3.21-2.35-2-6.74"/>
            </g>
            <g>
              <path class="cls-26" d="M34.81,49.21a10.27,10.27,0,0,0,.69,2.23s-6.93,4.68-1,13.28c0,0-6-2-3.86-10.15A12.36,12.36,0,0,1,34.81,49.21Z"/>
              <path class="cls-26" d="M33.2,64.82a4.13,4.13,0,0,1-1.56-1.44s-7.08,6.48-.57,13.41c0,0,2.68,3.07,7.86,1.24,0,0-7.13,1.68-7.95-4.23A9,9,0,0,1,33.2,64.82Z"/>
              <path class="cls-26" d="M31.84,78.37,34,79s-1.18,10.2,10.77,9.59a9.54,9.54,0,0,1-7,0S30.34,85.54,31.84,78.37Z"/>
              <path class="cls-26" d="M42.81,89.69s1-.23,2.3-.63c0,0,3.17,10.43,13.78,1.57a8.73,8.73,0,0,1-5.43,4S46.9,97.46,42.81,89.69Z"/>
              <path class="cls-26" d="M57.06,93.59a7.91,7.91,0,0,0,1.41-1.34s10,4.5,12.84-8a10.19,10.19,0,0,1-4.87,8.93A9.74,9.74,0,0,1,57.06,93.59Z"/>
              <path class="cls-26" d="M71.22,88.44s10.21-3.19,6-14.64c0,0,2.28,9-5.56,13.28Z"/>
            </g>
          </g>
          <g>
            <circle class="cls-27" cx="57.06" cy="66.61" r="19.61"/>
            <g>
              <g>
                <circle class="cls-28" cx="56.95" cy="66.9" r="17.31"/>
                <circle class="cls-29" cx="56.95" cy="66.85" r="15.03"/>
                <path class="cls-30" d="M70.33,73.7a15.3,15.3,0,0,0,.26-2.81A15,15,0,0,0,42.19,64,15,15,0,0,1,72,66.85,14.87,14.87,0,0,1,70.33,73.7Z"/>
              </g>
              <g>
                <circle class="cls-31" cx="57.22" cy="66.85" r="8.55"/>
                <circle class="cls-2" cx="53.7" cy="62.27" r="2.45"/>
                <circle class="cls-2" cx="57.06" cy="66.88" r="1.1"/>
                <path class="cls-32" d="M56,73.56A9.72,9.72,0,0,0,63.86,68S63.14,75.18,56,73.56Z"/>
              </g>
            </g>
          </g>
          <g>
            <path class="cls-24" d="M110.44,45.62l17.42-2.15s3.85,1.51,3.93,5.21c0,0,8.47,3.91,3.77,13.86,0,0,7.94,7.41.08,15,0,0,1.46,11.1-11.1,12,0,0-2.23,8-14,3.93,0,0-9.56,4.55-14.34-4.85,0,0-9.32-3.24-7.13-14,0,0-3.82-4.1,1.74-9.09S110.44,45.62,110.44,45.62Z"/>
            <g>
              <path class="cls-25" d="M132,48.12s.23,3.44-3.91,6.65"/>
              <path class="cls-25" d="M132.15,48.53s9.38,6.51,2.68,14.87a6,6,0,0,1-4.35,2"/>
              <path class="cls-25" d="M135.52,62.87s7.83,7.12.12,14.71c0,0-4.59,2.62-8.63,0"/>
              <path class="cls-25" d="M135.51,77.8s2,8.64-7.81,11.34c0,0-5.24,1-8.13-2.47"/>
              <path class="cls-25" d="M124.63,89.37s-4.64,10.29-15,3.35A10.1,10.1,0,0,1,106.78,88"/>
              <path class="cls-25" d="M110.48,93.43s-8.88,4.85-14.26-5a15.15,15.15,0,0,1-.77-5.59"/>
              <path class="cls-25" d="M96.26,88.63S87.06,86.8,88.86,75c0,0,.77-2,1.91-2.49"/>
              <path class="cls-25" d="M88.76,74.84s-3.21-2.35,1.95-6.74"/>
            </g>
            <g>
              <path class="cls-26" d="M132.25,49a10.53,10.53,0,0,1-.7,2.23s6.94,4.68,1,13.28c0,0,6-2,3.85-10.14A12.38,12.38,0,0,0,132.25,49Z"/>
              <path class="cls-26" d="M133.86,64.61a4.25,4.25,0,0,0,1.56-1.45s7.08,6.48.57,13.42c0,0-2.68,3.06-7.87,1.23,0,0,7.13,1.68,8-4.23A9,9,0,0,0,133.86,64.61Z"/>
              <path class="cls-26" d="M135.21,78.16l-2.18.58s1.18,10.21-10.76,9.59a9.56,9.56,0,0,0,7,0S136.72,85.33,135.21,78.16Z"/>
              <path class="cls-26" d="M124.25,89.47s-1-.23-2.3-.63c0,0-3.17,10.43-13.78,1.57a8.72,8.72,0,0,0,5.43,4S120.16,97.24,124.25,89.47Z"/>
              <path class="cls-26" d="M110,93.37s-1.28-1-1.41-1.34c0,0-10,4.51-12.85-8a10.24,10.24,0,0,0,4.87,8.94A9.78,9.78,0,0,0,110,93.37Z"/>
              <path class="cls-26" d="M95.84,88.22s-10.22-3.19-6-14.64c0,0-2.27,9,5.57,13.29Z"/>
            </g>
          </g>
          <g>
            <circle class="cls-27" cx="110.75" cy="66.9" r="19.61"/>
            <g>
              <g>
                <circle class="cls-28" cx="110.49" cy="66.9" r="17.31"/>
                <circle class="cls-29" cx="110.49" cy="66.85" r="15.03"/>
                <path class="cls-30" d="M123.86,73.7a15.3,15.3,0,0,0,.26-2.81A15,15,0,0,0,95.72,64a15,15,0,0,1,29.79,2.81A14.87,14.87,0,0,1,123.86,73.7Z"/>
              </g>
              <g>
                <circle class="cls-31" cx="110.75" cy="66.85" r="8.55"/>
                <circle class="cls-2" cx="107.24" cy="62.27" r="2.45"/>
                <circle class="cls-2" cx="110.59" cy="66.88" r="1.1"/>
                <path class="cls-32" d="M109.48,73.56A9.73,9.73,0,0,0,117.4,68S116.68,75.18,109.48,73.56Z"/>
              </g>
            </g>
          </g>
          <g>
            <path class="cls-33" d="M83.42,105.9s6-4.8,6-18.13c0,0-.19-6.91-6-6.18,0,0-5.28-1-6.24,6.28C77.18,87.87,76.79,99.2,83.42,105.9Z"/>
            <path class="cls-34" d="M83.4,103.38s4.79-4.31,4.78-16.26c0,0-.16-6.19-4.78-5.54,0,0-4.2-.93-5,5.63C78.43,87.21,78.13,97.37,83.4,103.38Z"/>
            <path class="cls-26" d="M82.77,81.65l.82,20.4.72-20.4S83.9,81.39,82.77,81.65Z"/>
          </g>
        </g>
        <g>
          <path class="cls-35" d="M86.42,75.38s-.62-23.7,28-33.77c0,0-4.11,2.37-3.63,4.42,0,0,1-3.65,13.44-4.42,0,0,4.83-.25,6.78-3.13,0,0,.55,2.31-2.58,3.59,0,0,16.81.47,20-4,0,0-5,7-16.85,8.48,0,0,3.39,1.18,4.88,1,0,0-3.06,1.79-12.85-1.08a7.13,7.13,0,0,0,6,3.09s-.82,1.38-12.69,1.13c0,0-6.37-.21-8.17,2,0,0,2.67-.93,5.76,1.54C114.42,54.25,100.6,50.72,86.42,75.38Z"/>
          <path class="cls-36" d="M86.42,75.38s1-13.51,16.8-20.91c0,0-2.62-.74-4,.3,0,0,5.81-7.44,21-6.87a4.51,4.51,0,0,0-3.8-2.06s3.51-1.9,17-1.44c0,0,8.42-.82,11.71-3.49,0,0-4.83,4.56-14.08,5.64,0,0,4.14,1.48,5,1,0,0-1.56,1.72-12.67-1.22,0,0,1.31,3.17,5.78,3.27,0,0-.1,1.34-12.43,1.18,0,0-5.58-.28-8,1.83a6.54,6.54,0,0,1,5.59,1.63S100.12,50.79,86.42,75.38Z"/>
        </g>
        <g>
          <path class="cls-35" d="M81.07,75.38s.62-23.7-27.95-33.77c0,0,4.11,2.37,3.63,4.42,0,0-1-3.65-13.44-4.42,0,0-4.83-.25-6.78-3.13,0,0-.55,2.31,2.58,3.59,0,0-16.81.47-20-4,0,0,5,7,16.85,8.48,0,0-3.39,1.18-4.88,1,0,0,3.06,1.79,12.85-1.08a7.13,7.13,0,0,1-6,3.09s.82,1.38,12.69,1.13c0,0,6.37-.21,8.17,2,0,0-2.67-.93-5.76,1.54C53.07,54.25,66.89,50.72,81.07,75.38Z"/>
          <path class="cls-36" d="M81.07,75.38s-1-13.51-16.8-20.91c0,0,2.62-.74,4,.3,0,0-5.8-7.44-21-6.87a4.51,4.51,0,0,1,3.8-2.06s-3.51-1.9-17-1.44c0,0-8.42-.82-11.71-3.49,0,0,4.83,4.56,14.08,5.64,0,0-4.14,1.48-5,1,0,0,1.56,1.72,12.67-1.22,0,0-1.31,3.17-5.78,3.27,0,0,.1,1.34,12.43,1.18,0,0,5.58-.28,8,1.83a6.54,6.54,0,0,0-5.59,1.63S67.37,50.79,81.07,75.38Z"/>
        </g>
      </g>
      <g>
        <g>
          <ellipse class="cls-37" cx="53.15" cy="213.16" rx="6.58" ry="8.76"/>
          <path class="cls-38" d="M48.35,218.18s4,1.18,5-1.54c0,0-.77-8.07,2.42-11.41l1.49,1s1.82,11.62-.57,14.39C56.72,220.6,50.86,224.81,48.35,218.18Z"/>
          <path class="cls-39" d="M50.91,219.57s1.43-2.61,3.61,0c0,0,.91,4.78-2,5.65C52.52,225.22,49.91,223.65,50.91,219.57Z"/>
        </g>
        <g>
          <ellipse class="cls-37" cx="61.93" cy="213.63" rx="7.28" ry="10.2"/>
          <path class="cls-38" d="M56.72,219.36s5.55,3.75,5.76-1c0,0-.88-8.76,3.23-13.18a2.52,2.52,0,0,1,1.4,1.9s2.6,14.65-3,15.91A5.85,5.85,0,0,1,56.72,219.36Z"/>
          <path class="cls-39" d="M59.53,219.78s1.69-3.08,4.26,0c0,0,1.08,5.65-2.36,6.68C61.43,226.46,58.35,224.61,59.53,219.78Z"/>
        </g>
        <g>
          <ellipse class="cls-37" cx="70.72" cy="214.46" rx="6.58" ry="8.76"/>
          <path class="cls-38" d="M77.29,214.45c0,4.85-2.94,8.59-6.57,8.59a5.3,5.3,0,0,1-4.67-2.73,9.37,9.37,0,0,0,3,.67c3.64,0,5.71-3,5.71-7.86,0-2.77-.36-5.31-1.86-6.91C75.48,207.43,77.29,210.66,77.29,214.45Z"/>
          <path class="cls-39" d="M68.64,219.31s1.7-3.08,4.26,0c0,0,1.08,5.65-2.36,6.68C70.54,226,67.46,224.14,68.64,219.31Z"/>
        </g>
      </g>
      <g>
        <g>
          <ellipse class="cls-37" cx="113.88" cy="213.16" rx="6.58" ry="8.76"/>
          <path class="cls-38" d="M110.49,206.57s2.62,1.92,3.31,10.51c0,0,3.81,1.39,4.63-3.63,0,0,.93-5.36-1.56-7.89,0,0,3.79,2.36,3.43,8.74,0,0-.67,6-5.13,7.24,0,0-3.58.58-5.17-1.57Z"/>
          <path class="cls-39" d="M116.12,219.57s-1.44-2.61-3.61,0c0,0-.91,4.78,2,5.65C114.51,225.22,117.12,223.65,116.12,219.57Z"/>
        </g>
        <g>
          <ellipse class="cls-37" cx="105.1" cy="213.63" rx="7.28" ry="10.2"/>
          <path class="cls-38" d="M100.06,207.09s5,2.21,3.14,11.64c0,0,6,3.06,6.78-4.78,0,0,1.18-6.2-1.8-9.23,0,0,4.57,3,3.9,10.22,0,0-.66,7.22-6,8.7,0,0-3.59.31-5.49-2.26Z"/>
          <path class="cls-39" d="M107.5,219.78s-1.7-3.08-4.27,0c0,0-1.07,5.65,2.37,6.68C105.6,226.46,108.68,224.61,107.5,219.78Z"/>
        </g>
        <g>
          <ellipse class="cls-37" cx="96.31" cy="214.46" rx="6.58" ry="8.76"/>
          <path class="cls-38" d="M102.71,214.45c0,4.85-2.94,8.59-6.57,8.59a5.3,5.3,0,0,1-4.67-2.73,9.37,9.37,0,0,0,3.06.67c3.63,0,5.7-3,5.7-7.86,0-2.77-.35-5.31-1.86-6.91C100.9,207.43,102.71,210.66,102.71,214.45Z"/>
          <path class="cls-39" d="M98.39,219.31s-1.7-3.08-4.27,0c0,0-1.08,5.65,2.36,6.68C96.48,226,99.57,224.14,98.39,219.31Z"/>
        </g>
      </g>
    </g>
  </g>
</svg>
