<svg id="Layer_1" data-name="Layer 1" xmlns="http://www.w3.org/2000/svg" width="323.04" height="282.89" viewBox="0 0 323.04 282.89">
  <defs>
    <style>
      .cls-1 {
        fill: #fffa4d;
      }

      .cls-2 {
        fill: #a3998f;
      }

      .cls-3 {
        fill: #b3a79d;
      }

      .cls-4 {
        fill: #1a0000;
        opacity: 0.1;
      }

      .cls-5 {
        fill: #e6dcc9;
      }

      .cls-6 {
        fill: #64a13f;
      }

      .cls-7 {
        fill: #578d37;
      }

      .cls-8 {
        fill: #8cc63f;
      }

      .cls-9 {
        fill: #7bad37;
      }

      .cls-10 {
        fill: #dbccbf;
      }

      .cls-11 {
        fill: #ebdfce;
      }
    </style>
  </defs>
  <g>
    <path class="cls-1" d="M146.79,274.16c-22.62,0-44.52-3-61.64-8.53-24.67-7.74-38.28-19.81-38.28-34,0-.44,0-.86,0-1.27-1.81-3.11-4.07-6.54-6.62-10.39C27.06,200,7.06,169.7,12,121.24a8,8,0,0,1,.71-2.57C15.49,108.27,26.33,99.45,45,92.4c.5-21,6.36-40.39,12-52.11a8,8,0,0,1,6.76-4.5h.44A8,8,0,0,1,71,39.53a157.15,157.15,0,0,0,30.68,33.73,121.86,121.86,0,0,1,24.46-27A8,8,0,0,1,139,51.74a141.11,141.11,0,0,0,6,25.72h1.8a398.72,398.72,0,0,1,48.68,2.87,254.22,254.22,0,0,0,37-38.7c18.91-24.26,40.83-32.9,55-32.9a29.41,29.41,0,0,1,12.87,2.7A19.63,19.63,0,0,1,311.74,28c1.09,14.72-12.51,32.49-38.3,50-7.89,5.37-15.29,10.54-22.13,15.45,12.93,5.22,21.81,11.4,26.48,18.45a21.6,21.6,0,0,1,3.82,11.86v.17a180.18,180.18,0,0,1-34.88,107.15c0,.2,0,.39,0,.6,0,12.77-11.4,24.1-32.12,31.87C196.37,270.39,172.28,274.16,146.79,274.16Z"/>
    <g>
      <path class="cls-2" d="M238.74,231.67c0,19-41.16,34.49-92,34.49-22.55,0-43.23-3-59.2-8.15-20-6.28-32.72-15.76-32.72-26.34a10.74,10.74,0,0,1,.33-2.78v0c3.81-17.7,43.35-31.68,91.59-31.68A219.57,219.57,0,0,1,192,201.63c25.85,5.51,43.89,15.56,46.37,27.22v0A10.33,10.33,0,0,1,238.74,231.67Z"/>
      <path class="cls-3" d="M273.61,123.91a172.23,172.23,0,0,1-35.2,104.94v0c-3.85,16.38-43.39,29.29-91.62,29.29a230.36,230.36,0,0,1-49.39-5c-4.64-1-9-2.19-13.08-3.51-16.38-5.25-27.21-12.58-29.12-20.77v0c-10.79-20.31-41-50-35.24-106.8,69.7-29.13,148.17-24.45,203.27-12.79C243.87,113.65,261.2,119,273.61,123.91Z"/>
      <path class="cls-4" d="M238.41,228.89a10.33,10.33,0,0,1,.33,2.78c0,19-41.16,34.49-92,34.49-22.55,0-43.23-3-59.2-8.15l9.81-4.84c51.08-1.61,79-24.19,94.64-51.54,12.2-21.34,17-45.58,19.53-65.11a56.91,56.91,0,0,1,11.66-27.26c20.64,4.39,38,9.73,50.38,14.65a172.23,172.23,0,0,1-35.2,104.94Z"/>
      <path class="cls-3" d="M255.25,120.56c0,14.85-32.56,27.42-77.19,31.48-.75.08-1.53.12-2.32.2-4.55.38-9.22.71-14,.91s-9.89.29-15,.29q-9.12,0-17.79-.45c-5.87-.29-11.62-.75-17.13-1.28C69.1,147.28,38.33,135,38.33,120.56c0-14.27,30-26.39,71.81-30.94v-.05a341.65,341.65,0,0,1,36.65-1.9,331.9,331.9,0,0,1,48.15,3.39,184.16,184.16,0,0,1,34.78,8.36C245.65,105.09,255.25,112.49,255.25,120.56Z"/>
      <path class="cls-5" d="M38.33,120.56c0-14.27,30-26.39,71.81-30.94v-.05a341.65,341.65,0,0,1,36.65-1.9,331.9,331.9,0,0,1,48.15,3.39,184.16,184.16,0,0,1,34.78,8.36c13.31,4.73,22.17,10.68,24.74,17.22l16.66-.33c-11.65-17.6-62.88-30.85-124.33-30.85-67.09,0-122,15.8-126.48,35.8l18.06-.36C38.37,120.79,38.33,120.67,38.33,120.56Z"/>
      <path class="cls-4" d="M129,153c-51.46-2.57-90.67-16.09-90.67-32.43,0-14.27,30-26.39,71.81-30.94C102.11,104,98.14,131.68,129,153Z"/>
      <g>
        <path class="cls-6" d="M125.27,155.87a1.16,1.16,0,0,1-.26.15,1,1,0,0,1-.26.15l-.7.33a23.22,23.22,0,0,1-24.48-3.07,17.4,17.4,0,0,1-6.18-9.25c-.07-.37-.15-.7-.22-1.07A6.66,6.66,0,0,1,93,142c-.45-2-.74-4-1-6,0-.3,0-.63-.07-1s-.08-.78-.11-1.18a64.15,64.15,0,0,1-.15-9.69,31.8,31.8,0,0,1,.26-3.41A75.75,75.75,0,0,1,94.21,108a84.37,84.37,0,0,1,3.44-10.32,98.86,98.86,0,0,1,5.91-12.24c8.54-15.16,19.86-26.81,27.52-32.84A152,152,0,0,0,144.87,98.4C156.11,121.22,139.8,148.44,125.27,155.87Z"/>
        <path class="cls-7" d="M122.75,122.81a.79.79,0,0,1-.4,0c.22,3.29.48,6.58.55,9.91a118.28,118.28,0,0,0,2.37,23.11,25.1,25.1,0,0,0,.63,2.77.56.56,0,0,1-.26.56.45.45,0,0,1-.56-.19,26.54,26.54,0,0,1-1-2.51c-1.85-5-2.26-10.32-2.48-15.64-.07-1.52-.11-3-.18-4.55-.37-9.62-1.63-19.27-1.19-28.92.37-8.54,1.81-17,3.15-25.48,1.22-7.84,2.47-17.86,7.36-24.33.25-.34.85,0,.59.37-3.92,7.21-5.36,16.3-6.55,24.37-.59,4.29-1.29,8.65-1.88,13a48.9,48.9,0,0,0,7-8.17,30.06,30.06,0,0,0,4.33-11.35c0-.08.11,0,.11,0,.22,8.47-3.95,17-11.24,21.45a.85.85,0,0,1-.41.07,102.69,102.69,0,0,0-.88,11.72c-.08,4.18.18,8.36.48,12.54,7.39-6.14,14.42-12.28,19.15-20.9a.55.55,0,0,1,1,.45C139.58,110.12,131.37,119.11,122.75,122.81Z"/>
        <path class="cls-7" d="M115.1,91A47.09,47.09,0,0,1,111.72,80c-.13-.72-1.18-.5-1.22.16-.39,6.6,3.63,14.35,7.43,19.53.42.56,1.55.25,1.25-.53C118.05,96.33,116.38,93.75,115.1,91Z"/>
        <path class="cls-7" d="M116.81,112.41c-3.84-4.76-10.57-9.48-11.5-15.86,0-.23-.39-.17-.4,0-.09,3.23,1.45,5.27,3.24,7.84a42.06,42.06,0,0,0,7.92,8.71A.52.52,0,0,0,116.81,112.41Z"/>
        <path class="cls-7" d="M119.05,127.06c-3.23-1.69-6.54-2.63-9.59-4.77-3.93-2.76-7.73-5.71-10.53-9.68-.24-.34-.8,0-.57.34,4.29,7.24,12,13.34,20.23,15.19C119.22,128.29,119.67,127.39,119.05,127.06Z"/>
        <path class="cls-7" d="M116.79,140.07a66.55,66.55,0,0,1-22.65-9.46c-.26-.16-.47.22-.24.4,6.57,4.92,14.33,9.51,22.77,10A.46.46,0,0,0,116.79,140.07Z"/>
        <path class="cls-7" d="M117.75,145.54a33.4,33.4,0,0,1-17.61,1.27c-.52-.1-.75.69-.22.81,6.47,1.5,12,1.33,18.06-1.53C118.29,146,118.07,145.43,117.75,145.54Z"/>
        <path class="cls-7" d="M137.25,90c-1.42,2.8-2.69,5.88-4.37,8.52a52.84,52.84,0,0,1-6.62,7.71.83.83,0,0,0,1,1.29c6.38-3.6,8.36-10.59,11.36-16.72C139.07,89.85,137.71,89,137.25,90Z"/>
        <path class="cls-7" d="M145,113.2c-3,10-12.86,16.14-19.34,23.55-.54.61.15,1.67.91,1.18,8.26-5.36,18-14.25,18.71-24.69C145.26,113.08,145,113.05,145,113.2Z"/>
      </g>
      <g>
        <path class="cls-8" d="M115.47,116.93v0a60.19,60.19,0,0,1-.44,8.24c-.08.59-.15,1.15-.23,1.74a52.38,52.38,0,0,1-3.18,11.8l-.55,1.33a33.3,33.3,0,0,1-3.63,6.29l-.36.48-.52.62h0a5,5,0,0,1-.89,1,23.89,23.89,0,0,1-6.06,5c-10.43,6-23.08,3.25-28.44-3.37-11.46-14-16.53-30.21-17.82-45.93-2.08-24.77,5.1-48.37,10.9-60.35a163.16,163.16,0,0,0,35,37.72,37.3,37.3,0,0,1,4.36,3.92c6.62,7,10.13,15.87,11.39,24.89.08.7.19,1.37.22,2.07C115.36,113.9,115.43,115.41,115.47,116.93Z"/>
        <path class="cls-9" d="M98.11,85.33a.61.61,0,0,0-1.2.06c-.5,10.54-4.35,19.8-8.6,29.23-2.27-3.89-4.51-7.8-6.42-11.88A123.45,123.45,0,0,1,77.22,91a.73.73,0,0,0,.37-.27c4.93-7.76,4.92-17.94.69-26,0,0-.1,0-.09,0a32,32,0,0,1,1.18,13c-.4,4-1.67,7.46-2.88,11.19-1.5-4.47-2.89-9-4.32-13.45C69.5,67.15,66.59,57.68,67,48.86a.39.39,0,0,0-.78-.06c-1.64,8.54,1.89,18.81,4.41,27,2.7,8.78,5.34,17.66,9,26.1,4.13,9.5,9.89,18.23,14.81,27.35,4,7.37,7.64,14.92,14.29,20.18.44.35,1-.32.63-.72-6.12-7.14-10.78-15.3-15.12-23.61-1.65-3.16-3.45-6.24-5.25-9.32a.71.71,0,0,0,.41-.23C95.94,107.92,99.63,95.32,98.11,85.33Z"/>
        <path class="cls-9" d="M66.92,88.4a50.39,50.39,0,0,1-8.43-9c-.47-.63-1.37.07-1.1.73,2.74,6.56,10.28,12.15,16.41,15.35.67.35,1.61-.48,1-1.09C72.31,92.19,69.48,90.49,66.92,88.4Z"/>
        <path class="cls-9" d="M78.72,108.32c-6-2.79-14.7-4.17-18.61-9.89-.14-.21-.46,0-.36.24,1.44,3.16,3.89,4.4,6.83,6a44.75,44.75,0,0,0,11.77,4.66A.56.56,0,0,0,78.72,108.32Z"/>
        <path class="cls-9" d="M87.81,121.4c-3.93-.1-7.56.56-11.52-.07-5.11-.81-10.17-1.86-14.75-4.37-.4-.22-.79.34-.39.6,7.56,5,17.9,7.21,26.73,5.11C88.55,122.51,88.56,121.42,87.81,121.4Z"/>
        <path class="cls-9" d="M91.78,135a71.78,71.78,0,0,1-26.36,1.57c-.33,0-.34.44,0,.5,8.67,1.65,18.34,2.41,26.71-1.14A.5.5,0,0,0,91.78,135Z"/>
        <path class="cls-9" d="M95.28,139.87a35.76,35.76,0,0,1-16.4,9.55c-.55.15-.4,1,.17.89,7-1.61,12.24-4.4,16.72-10C96,140,95.55,139.61,95.28,139.87Z"/>
        <path class="cls-9" d="M87.84,77c0,3.38.18,7-.19,10.3-.4,3.66-1.66,7.09-2.75,10.58a.89.89,0,0,0,1.58.77c4.46-6.49,3.07-14.18,3.07-21.52C89.55,76,87.86,75.86,87.84,77Z"/>
        <path class="cls-9" d="M106.28,95.77c1.83,11-4.79,21.67-7.55,31.89-.23.84.94,1.54,1.44.71,5.44-9.09,10.65-22.28,6.4-32.7C106.51,95.51,106.25,95.6,106.28,95.77Z"/>
      </g>
      <path class="cls-4" d="M125.64,159.2a.45.45,0,0,1-.56-.19,26.54,26.54,0,0,1-1-2.51,23.22,23.22,0,0,1-24.48-3.07c-10.43,6-23.08,3.25-28.44-3.37-11.46-14-16.53-30.21-17.82-45.93a1.81,1.81,0,0,0,0-.26c5.44,20.38,28.63,32.36,38.43,30a5.57,5.57,0,0,0,3.32-2,1.56,1.56,0,0,0,.34-.48s.07-.08.07-.11a2.3,2.3,0,0,0,.33-.71,22.85,22.85,0,0,0,2.33,1.74c3,2,8.21,4.29,11.28-.33a38.28,38.28,0,0,0,3.18-5.95c.22-.56.45-1.08.67-1.59a50.64,50.64,0,0,0,2.18-7.47c.15.48,1.15,4.29,2.51,9.57.12.52.26,1,.41,1.56,1,3.84,2.11,8.32,3.18,12.76,1.33,5.47,2.59,10.9,3.44,15.16C125.23,157.16,125.45,158.24,125.64,159.2Z"/>
      <path class="cls-4" d="M111.25,149.39a16.9,16.9,0,0,0,4.6,2.69l-4-.37C111.63,150.92,111.42,150.18,111.25,149.39Z"/>
      <path class="cls-10" d="M268.94,71.37C253.63,81.8,240.65,91.1,229.72,99.42c-35,26.6-49,42.9-51.66,52.62-.75.08-1.53.12-2.32.2-4.55.38-9.22.71-14,.91-.58-.33-1.2-.66-1.82-1C146,144.05,129,132.06,129,132.06l11.38-17.54c6,4.09,28-2.65,54.56-23.46a257.34,257.34,0,0,0,43.8-44.51c20.89-26.8,46.12-33.71,58.12-27.92C309.56,24.75,307.33,45.27,268.94,71.37Z"/>
      <path class="cls-11" d="M175.74,152.24c-9.22.79-18.9,1.2-29,1.2-5.38,0-10.68-.12-15.8-.37-.67,0-1.33,0-2-.08-4.47-.21-8.89-.54-13.15-.91l-4-.37c-.24-.79-.45-1.53-.62-2.32-3.35-13.4-.62-26.72,7.78-35.08,9.89-9.89,28.09,1.9,42.28,17.75A111.25,111.25,0,0,1,175.74,152.24Z"/>
      <path class="cls-4" d="M296.86,18.63v0C304.6,38.12,273.61,61,224.51,91.81c-42.16,26.4-55.91,36.78-59.81,44.27-1.11-1.36-2.23-2.71-3.39-4-2.9,10.05-17.05,18.82-30.32,21,5.12.25,10.42.37,15.8.37q7.61,0,14.93-.31l0,0c4.76-.2,9.43-.53,14-.91.79-.08,1.57-.12,2.32-.2,2.69-9.72,16.63-26,51.66-52.62,10.93-8.32,23.91-17.62,39.22-28C307.33,45.27,309.56,24.75,296.86,18.63Z"/>
      <path class="cls-5" d="M254.46,116.64a10.75,10.75,0,0,1,.79,3.92c0,14.85-32.56,27.42-77.19,31.48-.75.08-1.53.12-2.32.2-4.55.38-9.22.71-14,.91s-9.89.29-15,.29q-9.12,0-17.79-.45c-5.87-.29-11.62-.75-17.13-1.28-42.42-4.4-73-16.48-73.5-30.81l-18.06.36a12,12,0,0,0-.34,2.66c0,21.24,56.78,38.46,126.82,38.46s126.82-17.22,126.82-38.46a13.68,13.68,0,0,0-2.49-7.61Z"/>
    </g>
  </g>
</svg>
