<svg id="Layer_1" data-name="Layer 1" xmlns="http://www.w3.org/2000/svg" width="288" height="235.66" viewBox="0 0 288 235.66">
  <defs>
    <style>
      .cls-1 {
        fill: #050505;
        opacity: 0.5;
      }

      .cls-2 {
        fill: #fff;
      }

      .cls-3 {
        fill: #ff8d55;
      }

      .cls-3, .cls-4, .cls-7 {
        stroke: #c94f18;
        stroke-width: 0.5px;
      }

      .cls-3, .cls-4, .cls-5, .cls-7 {
        stroke-miterlimit: 10;
      }

      .cls-4 {
        fill: #e97144;
      }

      .cls-5 {
        fill: #cc4f31;
        stroke: #933c19;
        stroke-width: 0.25px;
      }

      .cls-6 {
        fill: #4f4f4f;
      }

      .cls-7 {
        fill: #db7649;
      }
    </style>
  </defs>
  <g>
    <path class="cls-1" d="M67.2,232.75a8,8,0,0,1-4-1.07L12.45,202.37a8,8,0,0,1-4-6.92l.22-44.65,0-.17a8,8,0,0,1,3.74-4.89L67.38,114V76.54a8,8,0,0,1,4-6.51L177.11,9a8,8,0,0,1,8,0l50.75,29.31a8,8,0,0,1,4,6.92V88a8,8,0,0,1-1.17,4.17l41.86,24.17a8,8,0,0,1,4,6.93V166a8,8,0,0,1-4,6.93l-50.75,29.3a7.95,7.95,0,0,1-8,0L172,173.5,71.2,231.68A8,8,0,0,1,67.2,232.75Z"/>
    <path class="cls-2" d="M62.2,227.75a8,8,0,0,1-4-1.07L7.45,197.37a8,8,0,0,1-4-6.92l.22-44.65,0-.17a8,8,0,0,1,3.74-4.89L62.38,109V71.54a8,8,0,0,1,4-6.51L172.11,4a8,8,0,0,1,8,0l50.75,29.31a8,8,0,0,1,4,6.92V83a8,8,0,0,1-1.17,4.17l41.86,24.17a8,8,0,0,1,4,6.93V161a8,8,0,0,1-4,6.93l-50.75,29.3a7.95,7.95,0,0,1-8,0L167,168.5,66.2,226.68A8,8,0,0,1,62.2,227.75Z"/>
    <g>
      <g>
        <polygon class="cls-3" points="165.82 57.21 115.07 86.51 220.8 147.56 271.55 118.26 165.82 57.21"/>
        <polygon class="cls-4" points="115.07 86.51 115.07 129.29 220.8 190.34 220.8 147.56 115.07 86.51"/>
        <polygon class="cls-5" points="271.55 118.26 271.55 161.03 220.8 190.34 220.8 147.56 271.55 118.26"/>
        <path class="cls-6" d="M220.84,147c73.82-42.85,60.59-33.78.4.79-.19,52.06-.67,60.3-.88.05C80.64,66.45,79.14,66,220.84,147Z"/>
        <polygon class="cls-3" points="257.46 117.53 164.41 63.82 126.36 85.79 219.4 139.51 257.46 117.53"/>
        <polygon class="cls-7" points="126.36 85.79 132.27 89.21 164.41 70.66 251.55 120.95 257.46 117.53 164.41 63.82 126.36 85.79"/>
      </g>
      <g>
        <polygon class="cls-3" points="117.18 86.62 167.93 115.92 62.2 176.97 11.45 147.67 117.18 86.62"/>
        <polygon class="cls-4" points="167.93 115.92 167.93 158.7 62.2 219.75 62.2 176.97 167.93 115.92"/>
        <polygon class="cls-5" points="11.45 147.67 11.45 190.45 62.2 219.75 62.2 176.97 11.45 147.67"/>
        <path class="cls-6" d="M62.16,176.43c-73.82-42.84-60.59-33.77-.4.79.19,52.06.66,60.3.88.06C202.36,95.86,203.86,95.37,62.16,176.43Z"/>
        <polygon class="cls-3" points="25.54 146.94 118.59 93.23 156.64 115.2 63.6 168.92 25.54 146.94"/>
        <polygon class="cls-7" points="156.64 115.2 150.72 118.62 118.58 100.07 31.45 150.36 25.53 146.94 118.58 93.23 156.64 115.2"/>
      </g>
      <g>
        <polygon class="cls-3" points="176.11 10.91 226.86 40.21 121.13 101.26 70.38 71.96 176.11 10.91"/>
        <polygon class="cls-4" points="226.86 40.21 226.86 82.99 121.13 144.04 121.13 101.26 226.86 40.21"/>
        <polygon class="cls-5" points="70.38 71.96 70.38 114.73 121.13 144.04 121.13 101.26 70.38 71.96"/>
        <path class="cls-6" d="M121.09,100.72c-73.82-42.85-60.59-33.78-.4.79.19,52.06.67,60.3.88,0C261.29,20.15,262.79,19.66,121.09,100.72Z"/>
        <polygon class="cls-3" points="84.47 71.23 177.52 17.52 215.57 39.49 122.53 93.21 84.47 71.23"/>
        <polygon class="cls-7" points="215.57 39.49 209.66 42.91 177.52 24.36 90.38 74.65 84.47 71.23 177.52 17.52 215.57 39.49"/>
      </g>
    </g>
  </g>
</svg>
