<svg id="Layer_1" data-name="Layer 1" xmlns="http://www.w3.org/2000/svg" width="215" height="225" viewBox="0 0 215 225">
  <defs>
    <style>
      .cls-1 {
        fill: #050505;
        opacity: 0.5;
      }

      .cls-1, .cls-10, .cls-11, .cls-12, .cls-13, .cls-14, .cls-16, .cls-17, .cls-18, .cls-19, .cls-2, .cls-20, .cls-21, .cls-22, .cls-24, .cls-25, .cls-26, .cls-27, .cls-28, .cls-29, .cls-3, .cls-30, .cls-31, .cls-32, .cls-33, .cls-5, .cls-6, .cls-7, .cls-8, .cls-9 {
        fill-rule: evenodd;
      }

      .cls-2 {
        fill: #fff;
      }

      .cls-12, .cls-3 {
        fill: #bc652a;
      }

      .cls-3 {
        stroke: #fff;
        stroke-linecap: round;
        stroke-linejoin: round;
        stroke-width: 6px;
      }

      .cls-4 {
        opacity: 0.2;
      }

      .cls-5 {
        fill: #21110e;
      }

      .cls-6 {
        fill: #ff6a14;
      }

      .cls-7 {
        fill: #eb4600;
      }

      .cls-8 {
        fill: #f54f08;
      }

      .cls-9 {
        fill: #d64000;
      }

      .cls-10 {
        fill: #e02d00;
      }

      .cls-11, .cls-13, .cls-15 {
        fill: #ce7432;
      }

      .cls-13, .cls-21 {
        stroke: #472411;
        stroke-miterlimit: 10;
      }

      .cls-14 {
        fill: #a63200;
      }

      .cls-16 {
        fill: #d88145;
      }

      .cls-17 {
        fill: #d46e1a;
      }

      .cls-18 {
        fill: #852d08;
      }

      .cls-19 {
        fill: #a14310;
      }

      .cls-20 {
        fill: #993d0c;
      }

      .cls-21 {
        fill: #ba5d11;
      }

      .cls-22 {
        fill: #913109;
      }

      .cls-23 {
        fill: #9e240b;
      }

      .cls-24 {
        fill: #331c17;
      }

      .cls-25 {
        fill: #241512;
      }

      .cls-26 {
        fill: #331d18;
      }

      .cls-27 {
        fill: #a3541f;
      }

      .cls-28 {
        fill: #54190a;
      }

      .cls-29 {
        fill: #d96b11;
      }

      .cls-30 {
        fill: #c42100;
      }

      .cls-31 {
        fill: #6b4913;
      }

      .cls-32 {
        fill: #8f3a15;
      }

      .cls-33 {
        fill: #942c00;
      }
    </style>
  </defs>
  <g>
    <path class="cls-1" d="M110,224.23c-9,0-17.9-.1-26.49-.29l-2.29-.06-4.5-.12q-5.58-.16-10.82-.38c-2.8-.12-5.52-.24-8.15-.38l-3.89-.21-3.76-.22c-11.64-.74-20.94-1.66-27.63-2.74s-16.76-2.7-16.76-11.32a8.61,8.61,0,0,1,.86-3.75c.11-.23.23-.46.35-.67a9.38,9.38,0,0,1,1.62-2l.3-.27a10.64,10.64,0,0,1,1.52-1.12l.24-.14c.33-.19.75-.41,1.19-.61l.08,0c.39-.18.83-.36,1.3-.53l.2-.07c.38-.14.8-.28,1.24-.41l.13,0c.45-.13.9-.26,1.38-.38l1.52-.36c.57-.13,1.09-.23,1.65-.34l.12,0,1.69-.31c1.25-.21,2.54-.42,3.94-.61,0,0,.83-.12,1.24-.17,0-.23,0-.76,0-.79,0-.35,0-.66,0-1,0,0,0-.28,0-.28,0-.22,0-.52,0-.8v-.29c0-.24,0-.51,0-.77l0-.34c0-.24,0-.5.07-.75,0,0,0-.32,0-.36q.06-.43.12-.78c0-.12.06-.28.1-.44s.09-.46.15-.69.12-.39.17-.56.15-.45.23-.67.2-.48.3-.7.2-.43.31-.63h0a10.76,10.76,0,0,1,.63-1l1.4-2.18c.74-1.15,2.57-4,2.57-4s0-.22,0-.33,0-.61.09-1a8.54,8.54,0,0,1,.24-1.14,9.35,9.35,0,0,1,.48-1.35,6.76,6.76,0,0,1,.38-.77,8.12,8.12,0,0,1,.54-.86,7.15,7.15,0,0,1,.45-.61c.22-.27.4-.47.59-.67l.41-.4a8.61,8.61,0,0,1,.7-1.26,8.65,8.65,0,0,1,.53-2.33,8.8,8.8,0,0,1,1.77-2.84,8.62,8.62,0,0,1,.49-1.12c0-.06.06-.11.08-.16A8.1,8.1,0,0,1,40.41,163l.93-2.34,1-2.51,1-2.33,1-2.28.88-2.06.16-.35c.29-.68.58-1.33.86-1.95l.12-.28c.29-.64.57-1.26.84-1.84s.4-.87.6-1.28l.19-.38c.15-.3.29-.58.44-.85,0-.09.18-.35.2-.38.09-.19.23-.46.37-.7,0-.09.12-.23.2-.37s.25-.44.38-.65l.23-.39c.14-.23.29-.46.43-.67l.25-.36a13.78,13.78,0,0,1,.91-1.14l.1-.1.21-.26.48-.55.42-.45c.12-.13.37-.36.38-.38l.43-.39,1.29-1.38.78-.88.18-.21.45-.55.18-.25c.1-.12.19-.25.28-.38l.12-.19.16-.26.09-.17.29-1.06.61-2.44.54-2.18c.47-1.9,1-4.09,1.6-6.4l.79-3.1.78-3,.8-2.94.41-1.45c.34-1.21.68-2.38,1-3.51l.54-1.77.44-1.35.44-1.31.45-1.27.45-1.2.27-.69.2-.49v-5c0-.51,0-1,.07-1.44A14.49,14.49,0,0,1,67,90.86,13.85,13.85,0,0,1,68.42,87c.23-.4.45-.74.68-1.07a14.33,14.33,0,0,1,1.13-1.39,16,16,0,0,1,1.19-1.14,16.38,16.38,0,0,1,2.21-1.57c.66-.4,1.29-.73,1.89-1l.66-.34c.26-.14.5-.27.74-.42l0,0S83.4,50.8,83.4,50.8s-.11-.76-.11-.76c-.09-.68-.17-1.36-.23-2a16.63,16.63,0,0,1,0-2.24c0-.25,0-.45.06-.66,0-.52.11-1,.19-1.47,0-.27.1-.52.16-.77.09-.4.21-.85.34-1.3.06-.18.11-.35.17-.52.17-.53.36-1,.55-1.45,0-.11.09-.21.13-.32.24-.52.49-1,.79-1.57l.23-.41c.21-.36.42-.7.63-1l.28-.42c.23-.34.43-.62.63-.89L89,36.27s0-.08,0-.12l-1.74-1.28.22-.29c.25-.33.49-.62.72-.91l.12-.15c.35-.41.65-.73.94-1a8.43,8.43,0,0,1,1.21-2.55,1.81,1.81,0,0,1,0-.19c0-.23.1-.44.16-.65a10.49,10.49,0,0,1,.42-1.31c.09-.24.18-.45.28-.67A12.63,12.63,0,0,1,92,25.88c.16-.25.29-.45.43-.64a11,11,0,0,1,.84-1c.16-.18.33-.36.5-.53l.1-.1c.14-.33.28-.66.43-1a.67.67,0,0,1,.06-.12c.18-.37.37-.73.58-1.08l.12-.2a11,11,0,0,1,.63-.93l.12-.18c.24-.31.48-.6.72-.89a1.14,1.14,0,0,0,.15-.16c.29-.32.53-.57.78-.8l.27-.25c.23-.21.46-.41.71-.61l.42-.32c.21-.15.46-.34.73-.51a4.54,4.54,0,0,1,.42-.26l.76-.44.51-.25.65-.29q.18-.31.42-.66a10.42,10.42,0,0,1,.94-1.12,9.83,9.83,0,0,1,.85-.83,11.81,11.81,0,0,1,1.09-.81,7.68,7.68,0,0,1,.7-.45,12.3,12.3,0,0,1,1.14-.61,6.29,6.29,0,0,1,.32-.7,8,8,0,0,1,7.11-4.34,7.75,7.75,0,0,1,2.37.36,14.37,14.37,0,0,1,5.94,3.29l.26.26A9.42,9.42,0,0,1,125.73,17a10.41,10.41,0,0,1-.16,1.12l.18.17c.23.22.49.49.74.77l.16.18c.25.29.49.59.72.89l.17.24c.2.27.42.61.63,1l0,.05c.25.42.45.81.64,1.2l0,.06c.2.41.37.84.53,1.27a13,13,0,0,1,1.2,1.46A6.76,6.76,0,0,1,131,26a10.9,10.9,0,0,1,.62,1.16c.11.23.21.48.31.74a10.7,10.7,0,0,1,.39,1.24,8.78,8.78,0,0,1,2.06,4.28l.2.24c.23.28.51.61.77,1l.27.36c.22.3.43.6.64.91.09.12.19.28.3.44.2.32.41.65.6,1,.11.18.19.31.26.44.3.54.56,1.06.79,1.58a1.42,1.42,0,0,0,.08.18c.21.49.4,1,.59,1.54.06.18.11.37.17.57.13.42.25.88.35,1.34.06.24.1.45.14.67.09.51.15,1,.2,1.48,0,.25,0,.47.05.7a16.29,16.29,0,0,1,0,2.22q-.08.85-.18,1.74l0,.25s6.61,30,6.61,30c.34.21.81.46,1.31.72a26.41,26.41,0,0,1,2.7,1.53,13.71,13.71,0,0,1,5.58,7.08,16.08,16.08,0,0,1,.81,5.07l0,3.68v1.17l.51,1.24.22.58-7.44,3,7.48-2.85.19.5L158,103l.3.86c.1.32.59,1.8.59,1.8l.87,2.83.87,3,.87,3.14,1,3.72L163.9,124l2,8.18s.41,1.52.42,1.54l.11.21.11.18.11.17c.11.16.21.29.31.42l.18.24c.15.2.31.39.47.58l.16.19c.25.29.51.59.78.88l1.31,1.39s.42.39.42.39l.36.36.06.06.39.42.08.09c.11.13.24.27.36.43l.23.27.07.08a11.15,11.15,0,0,1,1,1.2c0,.07.15.21.24.36s.28.42.44.68l.21.36c.13.21.26.44.4.69l.19.35.56,1,.44.85.16.34c.22.44.41.86.61,1.3l.85,1.85.14.32c.26.58.55,1.23.84,1.9l1,2.41.08.19.87,2.09,1.11,2.68c.31.78.61,1.5.9,2.22l-1.33.57.17.09,1.23-.49.85,2.12a8.44,8.44,0,0,1,1.31,1.84,8.09,8.09,0,0,1,.53,1.2,8.68,8.68,0,0,1,2.29,5.14,8.66,8.66,0,0,1,.67,1.19l.32.3a7.93,7.93,0,0,1,.63.68,7.29,7.29,0,0,1,.49.62q.28.41.51.78l.06.09q.2.35.36.69c.13.27.24.53.34.79l.06.19a9.37,9.37,0,0,1,.28,1,11.39,11.39,0,0,1,.21,1.37c0,.2,0,.49,0,.84l1,1.54-1.32.88s0,.1-.05.16l1.44-.93,2.83,4.41a9.72,9.72,0,0,1,.66,1.08c.11.2.21.41.31.63s.2.44.3.72.14.4.22.64.11.37.17.57.11.46.16.71v0a3.4,3.4,0,0,1,.09.46c0,.15.07.4.1.65,0,0,0,.29.06.43s.05.47.07.73c0,0,0,.31,0,.39s0,.53,0,.84V194q0,.48,0,1a.63.63,0,0,1,0,.14c0,.32,0,.66,0,1s0,.67,0,1l1.71.28-1.25,7.9,1.36-7.88c1.11.19,2.14.39,3.08.58l.1,0c.5.1.94.2,1.35.31l.19,0c.41.1.85.21,1.26.33s.82.24,1.2.36l.11,0c.49.16.87.3,1.22.43l.08,0c.41.17.77.33,1.11.49l.22.1c.44.23.86.46,1.24.71l.36.25a10.78,10.78,0,0,1,1.08.87,3.9,3.9,0,0,1,.29.28,9.11,9.11,0,0,1,1.57,2.08c.1.19.21.41.3.61h0a8.62,8.62,0,0,1,.78,3.58c0,7.81-8.51,9.67-12.15,10.47l-.95.2c-10,2-29,3.61-53.5,4.44l-2.19.07C134.19,224.05,122.24,224.23,110,224.23Z"/>
    <path class="cls-2" d="M105,219.23c-9,0-17.9-.1-26.49-.29l-2.29-.06-4.5-.12q-5.58-.16-10.82-.38c-2.8-.12-5.52-.24-8.15-.38l-3.89-.21-3.76-.22c-11.64-.74-20.94-1.66-27.63-2.74S.71,212.13.71,203.51a8.61,8.61,0,0,1,.86-3.75c.11-.23.23-.46.35-.67a9.38,9.38,0,0,1,1.62-2l.3-.27a10.64,10.64,0,0,1,1.52-1.12l.24-.14c.33-.19.75-.41,1.19-.61l.08,0c.39-.18.83-.36,1.3-.53l.2-.07c.38-.14.8-.28,1.24-.41l.13,0c.45-.13.9-.26,1.38-.38l1.52-.36c.57-.13,1.09-.23,1.65-.34l.12,0,1.69-.31c1.25-.21,2.54-.42,3.94-.61,0,0,.83-.12,1.24-.17,0-.23,0-.76,0-.79,0-.35,0-.66,0-1,0,0,0-.28,0-.28,0-.22,0-.52,0-.8v-.29c0-.24,0-.51,0-.77l0-.34c0-.24,0-.5.07-.75,0,0,0-.32,0-.36q.06-.43.12-.78c0-.12.06-.28.1-.44s.09-.46.15-.69.12-.39.17-.56.15-.45.23-.67.2-.48.3-.7.2-.43.31-.63h0a10.76,10.76,0,0,1,.63-1l1.4-2.18c.74-1.15,2.57-4,2.57-4s0-.22,0-.33,0-.61.09-1a8.54,8.54,0,0,1,.24-1.14,9.35,9.35,0,0,1,.48-1.35,6.76,6.76,0,0,1,.38-.77,8.12,8.12,0,0,1,.54-.86,7.15,7.15,0,0,1,.45-.61c.22-.27.4-.47.59-.67l.41-.4a8.61,8.61,0,0,1,.7-1.26,8.65,8.65,0,0,1,.53-2.33,8.8,8.8,0,0,1,1.77-2.84,8.62,8.62,0,0,1,.49-1.12c0-.06.06-.11.08-.16A8.1,8.1,0,0,1,35.41,158l.93-2.34,1-2.51,1-2.33,1-2.28.88-2.06.16-.35c.29-.68.58-1.33.86-1.95l.12-.28c.29-.64.57-1.26.84-1.84s.4-.87.6-1.28l.19-.38c.15-.3.29-.58.44-.85,0-.09.18-.35.2-.38.09-.19.23-.46.37-.7,0-.09.12-.23.2-.37s.25-.44.38-.65l.23-.39c.14-.23.29-.46.43-.67l.25-.36a13.78,13.78,0,0,1,.91-1.14l.1-.1.21-.26.48-.55.42-.45c.12-.13.37-.36.38-.38l.43-.39,1.29-1.38.78-.88.18-.21.45-.55.18-.25c.1-.12.19-.25.28-.38l.12-.19.16-.26.09-.17.29-1.06.61-2.44.54-2.18c.47-1.9,1-4.09,1.6-6.4l.79-3.1.78-3,.8-2.94.41-1.45c.34-1.21.68-2.38,1-3.51l.54-1.77.44-1.35.44-1.31.45-1.27.45-1.2.27-.69.2-.49v-5c0-.51,0-1,.07-1.44A14.49,14.49,0,0,1,62,85.86,13.85,13.85,0,0,1,63.42,82c.23-.4.45-.74.68-1.07a14.33,14.33,0,0,1,1.13-1.39,16,16,0,0,1,1.19-1.14,16.38,16.38,0,0,1,2.21-1.57c.66-.4,1.29-.73,1.89-1l.66-.34c.26-.14.5-.27.74-.42l0,0S78.4,45.8,78.4,45.8s-.11-.76-.11-.76c-.09-.68-.17-1.36-.23-2a16.63,16.63,0,0,1,0-2.24c0-.25,0-.45.06-.66,0-.52.11-1,.19-1.47,0-.27.1-.52.16-.77.09-.4.21-.85.34-1.3.06-.18.11-.35.17-.52.17-.53.36-1,.55-1.45,0-.11.09-.21.13-.32.24-.52.49-1,.79-1.57l.23-.41c.21-.36.42-.7.63-1l.28-.42c.23-.34.43-.62.63-.89L84,31.27s0-.08,0-.12l-1.74-1.28.22-.29c.25-.33.49-.62.72-.91l.12-.15c.35-.41.65-.73.94-1a8.43,8.43,0,0,1,1.21-2.55,1.81,1.81,0,0,1,0-.19c0-.23.1-.44.16-.65a10.49,10.49,0,0,1,.42-1.31c.09-.24.18-.45.28-.67A12.63,12.63,0,0,1,87,20.88c.16-.25.29-.45.43-.64a11,11,0,0,1,.84-1c.16-.18.33-.36.5-.53l.1-.1c.14-.33.28-.66.43-1a.67.67,0,0,1,.06-.12c.18-.37.37-.73.58-1.08l.12-.2a11,11,0,0,1,.63-.93l.12-.18c.24-.31.48-.6.72-.89a1.14,1.14,0,0,0,.15-.16c.29-.32.53-.57.78-.8l.27-.25c.23-.21.46-.41.71-.61l.42-.32c.21-.15.46-.34.73-.51a4.54,4.54,0,0,1,.42-.26l.76-.44.51-.25.65-.29q.18-.31.42-.66a10.42,10.42,0,0,1,.94-1.12,9.83,9.83,0,0,1,.85-.83,11.81,11.81,0,0,1,1.09-.81,7.68,7.68,0,0,1,.7-.45,12.3,12.3,0,0,1,1.14-.61,6.29,6.29,0,0,1,.32-.7A8,8,0,0,1,109.53.77a7.75,7.75,0,0,1,2.37.36,14.37,14.37,0,0,1,5.94,3.29l.26.26A9.42,9.42,0,0,1,120.73,12a10.41,10.41,0,0,1-.16,1.12l.18.17c.23.22.49.49.74.77l.16.18c.25.29.49.59.72.89l.17.24c.2.27.42.61.63,1l0,.05c.25.42.45.81.64,1.2l0,.06c.2.41.37.84.53,1.27a13,13,0,0,1,1.2,1.46A6.76,6.76,0,0,1,126,21a10.9,10.9,0,0,1,.62,1.16c.11.23.21.48.31.74a10.7,10.7,0,0,1,.39,1.24,8.78,8.78,0,0,1,2.06,4.28l.2.24c.23.28.51.61.77,1l.27.36c.22.3.43.6.64.91.09.12.19.28.3.44.2.32.41.65.6,1,.11.18.19.31.26.44.3.54.56,1.06.79,1.58a1.42,1.42,0,0,0,.08.18c.21.49.4,1,.59,1.54.06.18.11.37.17.57.13.42.25.88.35,1.34.06.24.1.45.14.67.09.51.15,1,.2,1.48,0,.25,0,.47.05.7a16.29,16.29,0,0,1,0,2.22q-.08.85-.18,1.74l0,.25s6.61,30,6.61,30c.34.21.81.46,1.31.72a26.41,26.41,0,0,1,2.7,1.53,13.71,13.71,0,0,1,5.58,7.08,16.08,16.08,0,0,1,.81,5.07l0,3.68v1.17l.51,1.24.22.58-7.44,3,7.48-2.85.19.5L153,98l.3.86c.1.32.59,1.8.59,1.8l.87,2.83.87,3,.87,3.14,1,3.72L158.9,119l2,8.18s.41,1.52.42,1.54l.11.21.11.18.11.17c.11.16.21.29.31.42l.18.24c.15.2.31.39.47.58l.16.19c.25.29.51.59.78.88l1.31,1.39s.42.39.42.39l.36.36.06.06.39.42.08.09c.11.13.24.27.36.43l.23.27.07.08a11.15,11.15,0,0,1,1,1.2c0,.07.15.21.24.36s.28.42.44.68l.21.36c.13.21.26.44.4.69l.19.35.56,1,.44.85.16.34c.22.44.41.86.61,1.3l.85,1.85.14.32c.26.58.55,1.23.84,1.9l1,2.41.08.19.87,2.09,1.11,2.68c.31.78.61,1.5.9,2.22l-1.33.57.17.09,1.23-.49.85,2.12a8.44,8.44,0,0,1,1.31,1.84,8.09,8.09,0,0,1,.53,1.2,8.68,8.68,0,0,1,2.29,5.14,8.66,8.66,0,0,1,.67,1.19l.32.3a7.93,7.93,0,0,1,.63.68,7.29,7.29,0,0,1,.49.62q.28.41.51.78l.06.09q.2.35.36.69c.13.27.24.53.34.79l.06.19a9.37,9.37,0,0,1,.28,1,11.39,11.39,0,0,1,.21,1.37c0,.2,0,.49,0,.84l1,1.54-1.32.88s0,.1-.05.16l1.44-.93,2.83,4.41a9.72,9.72,0,0,1,.66,1.08c.11.2.21.41.31.63s.2.44.3.72.14.4.22.64.11.37.17.57.11.46.16.71v0a3.4,3.4,0,0,1,.09.46c0,.15.07.4.1.65,0,0,0,.29.06.43s.05.47.07.73c0,0,0,.31,0,.39s0,.53,0,.84V189q0,.48,0,1a.63.63,0,0,1,0,.14c0,.32,0,.66,0,1s0,.67,0,1l1.71.28-1.25,7.9,1.36-7.88c1.11.19,2.14.39,3.08.58l.1,0c.5.1.94.2,1.35.31l.19,0c.41.1.85.21,1.26.33s.82.24,1.2.36l.11,0c.49.16.87.3,1.22.43l.08,0c.41.17.77.33,1.11.49l.22.1c.44.23.86.46,1.24.71l.36.25a10.78,10.78,0,0,1,1.08.87,3.9,3.9,0,0,1,.29.28,9.11,9.11,0,0,1,1.57,2.08c.1.19.21.41.3.61h0a8.62,8.62,0,0,1,.78,3.58c0,7.81-8.51,9.67-12.15,10.47l-.95.2c-10,2-29,3.61-53.5,4.44l-2.19.07C129.19,219.05,117.24,219.23,105,219.23Z"/>
    <g>
      <path class="cls-3" d="M183,199q1.91-11.33.2-13.48c-2-3.17-5.44-8.52-7-10.95.85.32,1.32.78,1,1.42,1.09-.46,1.35-2.71-2.26-3.48-.12-.2-.23-.38-.32-.55a.78.78,0,0,0,.79-.73.8.8,0,0,0-.85-.74.92.92,0,0,0-.5.14c-.24-.64-.59-1.55-1-2.64a1.25,1.25,0,0,0,.32,0,.8.8,0,0,0,.57-1,.85.85,0,0,0-1.11-.4.84.84,0,0,0-.28.15l-.76-1.93a.74.74,0,0,0,.27-.94.78.78,0,0,0-.78-.36c-2.22-5.64-5.18-12.93-7.47-17.83h0c-.38-.87-.76-1.63-1.12-2.31a14.36,14.36,0,0,0-1.7-2.79l-.25-.27a7.81,7.81,0,0,0-1.36-1.44h0c-2.41-2.53-4.75-5-5.59-7.45-1-2.77-6.42-27.87-10.25-35.41,0-.55,0-2.85,0-6.5-.07-8.12-8.49-5-10.22-12.8l-6.92-31.35c.17-1,.3-2,.38-3,.46-5.43-4.49-10-6.46-11.63h.38a.8.8,0,0,0,.8-.8.79.79,0,0,0-.8-.79h-1V27a3.72,3.72,0,0,0-2.41-3.46,6.81,6.81,0,0,0-6.77-6.42h-1.87q-2.35-2.4,2.73-3.8,3.52-2.89-1.83-4.56,3.59,2.72-3.65,4.11-3.75,1.6-1.44,4.25h-1.76a6.81,6.81,0,0,0-6.77,6.34A3.72,3.72,0,0,0,93.28,27v2.11h-.56a.79.79,0,0,0-.8.79.8.8,0,0,0,.61.78c-2,1.57-7,6.19-6.5,11.65.11,1.2.28,2.45.51,3.7L79.77,76.7C78,84.54,69.62,81.38,69.55,89.51c0,3.82,0,6.17,0,6.56-3.83,7.88-9.16,32.37-10.11,35.1-.84,2.46-3.18,4.93-5.59,7.46a7.41,7.41,0,0,0-1.36,1.44,3.07,3.07,0,0,1-.25.26,15.62,15.62,0,0,0-1.7,2.79c-.36.68-.74,1.44-1.12,2.32h0c-2.29,4.9-5.25,12.19-7.47,17.82a.78.78,0,0,0-.78.36.76.76,0,0,0,.27.95l-.76,1.93a1.08,1.08,0,0,0-.28-.16.87.87,0,0,0-1.11.4.79.79,0,0,0,.57,1,1,1,0,0,0,.32.06c-.42,1.09-.77,2-1,2.64a.92.92,0,0,0-.5-.14.81.81,0,0,0-.85.74.79.79,0,0,0,.79.73c-.09.17-.2.35-.32.56-3.54.76-3.25,3-2.2,3.5-1.71,2.7-4.32,6.79-6,9.43l0,.06q-1.69,2.15.17,13.34c-13.42,1.33-21.48,3-21.48,4.86,0,4.25,43.25,7.72,96.29,7.72s96.29-3.47,96.29-7.72C201.29,201.82,194.5,200.26,183,199Zm-19.68-30.7c-1.57-.67-3.11-1.3-4.51-1.85-.06-.23-.13-.46-.2-.71l.09,0-.09,0c-.19-.65-.4-1.36-.64-2.13a5.36,5.36,0,0,0,.23-1.24c1.75,1.92,3.55,3.86,5.13,5.56A.86.86,0,0,0,163.33,168.29ZM55,162.14a5.27,5.27,0,0,0,.23,1.24l-.55,1.82h0c-.19.66-.36,1.26-.5,1.81-1.85.72-3.88,1.55-5.88,2.42l0,0,.64-.68a.93.93,0,0,0,.89-.44.78.78,0,0,0,.06-.58C51.47,166,53.27,164.06,55,162.14Zm100.53-2.73a13.87,13.87,0,0,0-5.11.44,2.07,2.07,0,0,0-.61-.38c-1.77-.73-12.43-3.16-12.43-3.16a22,22,0,0,0,.51-5.6,2.47,2.47,0,0,0-.15-.81v0h0c-.83-2.37-5.07-3.68-7.32-4.22v-9c0-2.57.49-7.08,4.95-14h0c2,3.09,6.5,10.24,7.73,15.42A43.74,43.74,0,0,0,150,152.9C150.68,153.93,152.89,156.47,155.55,159.41ZM70.11,138c1.26-5.28,5.4-12.15,7.17-14.93,4.28,6.7,4.76,11.11,4.76,13.65v9.62c-2.5.81-5.46,2.24-5.46,4.49a21.87,21.87,0,0,0,.51,5.59s-10.66,2.43-12.43,3.16A2.2,2.2,0,0,0,64,160a15.72,15.72,0,0,0-6.32-.75c2.66-2.95,4.87-5.49,5.56-6.51A43.74,43.74,0,0,0,70.11,138ZM40.83,197.61a2.24,2.24,0,0,0,.27.13l-.31,0A.83.83,0,0,1,40.83,197.61Zm-3.89-23.15-.84,1.33C35.84,175.21,36.22,174.78,36.94,174.46Z"/>
      <g class="cls-4">
        <ellipse cx="105" cy="203.51" rx="96.29" ry="7.72"/>
      </g>
      <path class="cls-5" d="M122.42,40l3.67,4,7.22,32.71c1.73,7.84,10.15,4.68,10.22,12.8,0,4.21,0,6.63,0,6.63H107.09v0H69.55s0-2.42,0-6.62c.07-8.13,8.49-5,10.22-12.81L87,44l3.67-4,15.81,4.88Z"/>
      <path class="cls-6" d="M85.47,145.44s-8.89,1.46-8.89,5.35a21.87,21.87,0,0,0,.51,5.59s-10.66,2.43-12.43,3.16-2.79,4.62-2.79,4.62S40,171.69,37,176.07s-3,15.56,2,20.42,51.76,12.15,54.81,11.67,16.49-.49,16.49-.49v0c4,.06,8.67.18,10.32.44,3,.49,49.74-6.8,54.81-11.66s4.51-16,1.46-20.38-24.3-12-24.3-12-1-3.88-2.79-4.61-12.43-3.16-12.43-3.16a22,22,0,0,0,.51-5.6c0-3.89-8.89-5.34-8.89-5.34l-21.93,5Z"/>
      <path class="cls-7" d="M103.28,188.22s29.09,9.27,38.62,10.55,12.49-1.67,12.1-3.34-6.05-6.7-3.09-6.83,11.33,4.9,12.36,4-.13-5.15,1.16-4,3.09,4.51,3.73,3.61-1.88-11.6-1.88-11.6l6.93,2.56-.3,16.13s-38.07,7.12-47.34,8.41S90.53,195.94,103.28,188.22Z"/>
      <path class="cls-8" d="M85.42,161.68q16.13,13.66,15.57,2.62a12.48,12.48,0,0,1-9.66-3.09q-12-11.47-11.45-10.17c-2.26-.45-3.18,1.32-2.79,5.34Q35.93,175.91,37.91,183,36.1,199,57.48,199.7a22.59,22.59,0,0,1-3.35-14.41q4.93,17.73,22.4,18.53Q71.25,191,80.39,194,99.67,206.33,116,206.51,87,193.85,84.73,181.81,82.65,168,85.42,161.68Z"/>
      <path class="cls-9" d="M61.44,187.44s-1.42-5-.13-7.72-10.43-1.29-10.43-1.29,26-20,26.52-18.15,2.06,6.18,3.22,5.15a6.12,6.12,0,0,0,1.54-3l1.93,7.61s-1.8,9.38-2.06,13.12S85,192,85,192s-6.44-4.89-11.59-6.82S61.44,187.44,61.44,187.44Z"/>
      <path class="cls-10" d="M84.09,170.08q-3.33-16,10.56-1.55Q82.8,159.61,84.09,170.08Z"/>
      <path class="cls-11" d="M67.63,176.9q8.72,7.17,22.84,4.16Q93,167.29,82,168.71q-8.3-.6-11.92-6.57c-12.45-5.17-16.11-3-14.86,1.24-2,6.67-2.3,8.29.71,8.46A30.41,30.41,0,0,1,67.63,176.9Z"/>
      <path class="cls-11" d="M72.38,105.55s.25,10.31,4.71,17.18,5,11.38,5,14v12.45s9.67,8,12.89,10.09c1.36.91,4.31,1.32,7.26,1.49v0s1.6.08,3.8.09h.21c2.35,0,4.09-.09,4.09-.09v0c2.95-.17,5.9-.58,7.26-1.49,3.22-2.14,12.89-10.09,12.89-10.09V136.68c0-2.57.49-7.08,4.95-14s4.71-17.18,4.71-17.18c2.48-19.32-16.11-18.89-22-18.89s-5-10.73-5-10.73H99.39s1,10.73-5,10.73S69.9,86.23,72.38,105.55Z"/>
      <path class="cls-12" d="M108.18,124.54q-.36,7.24,18,4.49,5.55-.5,8-8.46c.39.58.8,1.21,1.22,1.87a38.39,38.39,0,0,0-2.68,4.74c-2.42,5.22-14.55,5.32-21.87,3.4-4.07-1.07-4.08-6.44-3.39-15.28Z"/>
      <path class="cls-13" d="M78.1,121.78s-6.38,9.39-8,16.18a43.74,43.74,0,0,1-6.87,14.75c-1.89,2.81-15.15,16.94-17.86,19.82q4.74,10.32-3.8,13.51.33,13.92-2.81,14.66c-.73,1.74-1.72,1.93-3,.59q-1.5,2.46-3,.5c-1.8-.07-2.62-.89-2.45-2.46q-2-11.82-.29-14,7.14-11,8.72-13.79s10.6-28.05,13.5-31.19,6.17-6.16,7.2-9.16S66.8,99,70.62,94.27s6.53-5.48,9.48-6,3.22-.52,3.22-.52"/>
      <path class="cls-14" d="M40.41,174.09l1.67,1.26a10.75,10.75,0,0,1,0,4.87,10.49,10.49,0,0,1-2.6,4.31l-.11,1.71L38.59,200,38,187.86l-1.74,0-.41,13.46s-1.57-13.6-1.13-13.66,0,.65-.59.69-.91,13.5-1.32,13.47.65-14.08.17-15.43-2.06-.38-2.33-.52,2.38-1.41,2.9-.89l.52.52,4.9-1.45s3.67-3.24,3.38-4.4S40.41,174.09,40.41,174.09Z"/>
      <path class="cls-14" d="M37.89,174.14c3.08-2,9.24,4.43,1.59,10.39.11,3.19,1.65,11-3,10.23-1.5.09-3.41-4-3-8.54-1.81-2.31-2.83-1.16-2.83-1.16C33.48,180.61,37.89,174.14,37.89,174.14Z"/>
      <path class="cls-13" d="M134.36,121.19s7.15,10.18,8.76,17A43.74,43.74,0,0,0,150,152.9c1.89,2.81,15.15,16.94,17.86,19.82q-4.74,10.34,3.8,13.51-.33,13.92,2.81,14.66,1.09,2.61,3,.59,1.5,2.47,3,.5c1.8-.06,2.62-.88,2.45-2.45q2-11.82.29-14-7.14-11-8.72-13.8s-10.6-28.05-13.5-31.18-6.17-6.16-7.2-9.16-7.36-32.21-11.18-36.91-6.53-5.47-9.48-6-3.22-.52-3.22-.52"/>
      <ellipse class="cls-15" cx="104.94" cy="99.52" rx="29.62" ry="11.09"/>
      <path class="cls-12" d="M104.86,124.72q.36,7.25-18.25,4.49-5.64-.5-8.16-8.46c-.39.58-.81,1.21-1.24,1.87a36.64,36.64,0,0,1,2.72,4.74c2.46,5.22,14.79,5.32,22.23,3.4,4.13-1.07,4.14-6.44,3.44-15.28Z"/>
      <path class="cls-12" d="M80.44,128.34a211.48,211.48,0,0,1-2.23-23.63c.13,8.43-.12,12.35-1,17.81C79.12,125.93,80.34,128.1,80.44,128.34Z"/>
      <path class="cls-10" d="M82.81,181.94q.85,14.15,37.84,26.14-36.68-14.64-34-26.41Z"/>
      <path class="cls-16" d="M106,160.55Zm4.3-.11c2.95-.17,5.9-.58,7.26-1.48.67-.45,1.63-1.15,2.71-2a24,24,0,0,0,.58-5.3,24.77,24.77,0,0,0-.43-4.61C118.85,139,113.3,133,106.68,133S94.59,138.9,93,146.89a24.17,24.17,0,0,0-.47,4.79,23.86,23.86,0,0,0,.78,6.12c.63.47,1.19.87,1.63,1.16,1.36.9,4.31,1.31,7.26,1.48v0s1.6.09,3.8.09h.21c2.35,0,4.09-.09,4.09-.09Z"/>
      <path class="cls-16" d="M37.81,173.09c3-1.86,8.5,5.33,1.11,10.93.69,6.61.66,9.91-2.68,9.42-1.44.08-2.42-4.23-2.22-8-1.75-2.17-4-.16-4-.16C32.73,181.12,37.81,173.09,37.81,173.09Z"/>
      <path class="cls-17" d="M35,189.85l.35,2.32a2.9,2.9,0,0,0,2,.36c1-.26,1.22-.49,1.22-.49l-.26-2.52S36.21,188.66,35,189.85Z"/>
      <path class="cls-16" d="M43.93,169.35s15.32-19.57,16-25-6-5.75-6-5.75-2.05,1.44-4.43,6.81-10.68,26.08-10.68,26.08S41.63,174.54,43.93,169.35Z"/>
      <path class="cls-18" d="M36.12,175.84c-1-2,5.27-2.3,7.55-2.08a3,3,0,0,1,2.78,1.77,1.47,1.47,0,0,0,.51-1.45c-.26-.83-.76-2.23-6.56-2S34.85,175.31,36.12,175.84Z"/>
      <path class="cls-19" d="M38.66,171.77a.75.75,0,1,0,0-1.48.75.75,0,1,0,0,1.48Z"/>
      <path class="cls-19" d="M40.36,171.44a.89.89,0,1,0-1-.88A.94.94,0,0,0,40.36,171.44Z"/>
      <path class="cls-19" d="M42.41,171.36a.89.89,0,1,0-1-.88A.94.94,0,0,0,42.41,171.36Z"/>
      <path class="cls-19" d="M44.44,171.52a.89.89,0,1,0-1-.88A.94.94,0,0,0,44.44,171.52Z"/>
      <path class="cls-19" d="M46.24,172.2a.89.89,0,1,0-1-.88A1,1,0,0,0,46.24,172.2Z"/>
      <path class="cls-20" d="M40.39,166.34a.91.91,0,0,1,.58.55s0,0,0,0a1,1,0,0,1,1.29-.49.93.93,0,0,1,.66,1.17,1,1,0,0,1-1.3.49,1,1,0,0,1-.68-.68h0a.87.87,0,0,1-1.11.4.79.79,0,0,1-.57-1,.87.87,0,0,1,1.11-.4Zm7.43,2.74a1.14,1.14,0,0,0-1,.1.52.52,0,0,0,.1-.18.93.93,0,0,0-.66-1.17,1,1,0,0,0-1.3.49.94.94,0,0,0,.66,1.17,1.14,1.14,0,0,0,1-.1.81.81,0,0,0-.1.18.93.93,0,0,0,.66,1.17,1,1,0,0,0,1.3-.49.94.94,0,0,0-.66-1.17ZM44.34,167a1,1,0,0,0-1.3.49.93.93,0,0,0,.66,1.17,1,1,0,0,0,1.3-.49A.94.94,0,0,0,44.34,167Z"/>
      <path class="cls-20" d="M42.31,163.37a.9.9,0,0,1,.5.62l0-.05a1,1,0,0,1,1.35-.32.93.93,0,0,1,.5,1.25,1,1,0,0,1-1.35.32,1.09,1.09,0,0,1-.59-.77h0a.86.86,0,0,1-1.15.26.8.8,0,0,1-.44-1.06.86.86,0,0,1,1.15-.25Zm7,3.67a1.16,1.16,0,0,0-1,0l.12-.16A.94.94,0,0,0,48,165.6a1,1,0,0,0-1.35.32,1,1,0,0,0,.51,1.25,1.13,1.13,0,0,0,1,0,.66.66,0,0,0-.12.17.94.94,0,0,0,.5,1.25,1,1,0,0,0,1.35-.32.94.94,0,0,0-.5-1.25Zm-3.18-2.53a1,1,0,0,0-1.35.32.94.94,0,0,0,.5,1.25,1,1,0,0,0,1.35-.32A.94.94,0,0,0,46.15,164.51Z"/>
      <path class="cls-21" d="M88.35,56.23l37.18-.32a2.15,2.15,0,0,1,2.23,2.23l-.7,6.74a2.34,2.34,0,0,1-2.23,2.23H89a2.33,2.33,0,0,1-2.23-2.23l-.64-6.42A2.17,2.17,0,0,1,88.35,56.23Z"/>
      <path class="cls-22" d="M102.85,129.77a1.08,1.08,0,0,1-.33-1.12l-.08.06a2,2,0,0,1-2.43-.16,1.28,1.28,0,0,1,.15-2,2,2,0,0,1,2.43.16,1.27,1.27,0,0,1,.36,1.37h0a1.67,1.67,0,0,1,2.06.16,1.14,1.14,0,0,1,.38.92,1.77,1.77,0,0,1,1.13-.38,1.42,1.42,0,1,1-1.65,1.41,1.25,1.25,0,0,1,0-.21,1.69,1.69,0,0,1-2-.18Zm7.61,0a1.11,1.11,0,0,0,.34-1.12l.08.06a2,2,0,0,0,2.43-.16,1.28,1.28,0,0,0-.15-2,2,2,0,0,0-2.44.16,1.26,1.26,0,0,0-.35,1.37h0a1.67,1.67,0,0,0-2.06.16,1.09,1.09,0,0,0,.1,1.72,1.67,1.67,0,0,0,2.06-.16ZM121,117.89a1.52,1.52,0,0,0-.79-1.26,1.58,1.58,0,0,0,.38,0,1.54,1.54,0,0,0,1.63-1.49,1.61,1.61,0,0,0-1.69-1.48,1.54,1.54,0,0,0-1.63,1.49,1.48,1.48,0,0,0,.79,1.25,2.33,2.33,0,0,0-.38,0,1.54,1.54,0,0,0-1.63,1.49,1.38,1.38,0,0,0,.47,1,2,2,0,0,0-1.77.46,1.27,1.27,0,0,0,.15,2,2.68,2.68,0,0,0,.33.18,2,2,0,0,0-1.56.49,1.28,1.28,0,0,0,.15,2,2,2,0,0,0,2.43-.16,1.28,1.28,0,0,0-.15-2,1.74,1.74,0,0,0-.33-.18,1.91,1.91,0,0,0,1.56-.49,1.26,1.26,0,0,0,0-1.89,2.58,2.58,0,0,0,.39,0,1.56,1.56,0,0,0,1.64-1.49Zm1.47-5.75c0-2-3.36-2-3.32,0a1.62,1.62,0,0,0,1.69,1.49,1.55,1.55,0,0,0,1.63-1.49Zm-6.69,14.19a2,2,0,0,1-2.43.16,1.28,1.28,0,0,1-.15-2,2,2,0,0,1,2.43-.15,1.26,1.26,0,0,1,.15,2Zm-23.46-8.4a1.5,1.5,0,0,1,.79-1.26,1.58,1.58,0,0,1-.38,0,1.55,1.55,0,0,1-1.64-1.49,1.62,1.62,0,0,1,1.69-1.48,1.55,1.55,0,0,1,1.64,1.49,1.49,1.49,0,0,1-.8,1.25,2.45,2.45,0,0,1,.39,0,1.55,1.55,0,0,1,1.63,1.49,1.4,1.4,0,0,1-.47,1,1.94,1.94,0,0,1,1.76.46,1.26,1.26,0,0,1-.15,2,2,2,0,0,1-.32.18,2,2,0,0,1,1.56.49,1.28,1.28,0,0,1-.15,2,2,2,0,0,1-2.43-.16,1.28,1.28,0,0,1,.15-2,2,2,0,0,1,.32-.18,1.93,1.93,0,0,1-1.56-.49,1.25,1.25,0,0,1,0-1.89,2.58,2.58,0,0,1-.4,0,1.55,1.55,0,0,1-1.63-1.49Zm-1.47-5.75c0-2,3.35-2,3.32,0a1.62,1.62,0,0,1-1.69,1.49,1.54,1.54,0,0,1-1.63-1.49Zm6.68,14.19a2,2,0,0,0,2.43.16,1.28,1.28,0,0,0,.16-2,2,2,0,0,0-2.44-.15A1.27,1.27,0,0,0,97.53,126.37Z"/>
      <path class="cls-22" d="M91,109.41a1.67,1.67,0,0,1,1.39-1.88,1.61,1.61,0,0,1,1.84,1.38,1.66,1.66,0,0,1-1.38,1.88A1.61,1.61,0,0,1,91,109.41Z"/>
      <path class="cls-22" d="M91.92,103.27a1.44,1.44,0,0,0,.76,1.07h-.09a1.66,1.66,0,0,0-1.39,1.88A1.6,1.6,0,0,0,93,107.61a1.66,1.66,0,0,0,1.39-1.88,1.62,1.62,0,0,0-1-1.27h0a1.41,1.41,0,0,0,1.16-1.61,1.37,1.37,0,0,0-1.55-1.2A1.43,1.43,0,0,0,91.92,103.27Z"/>
      <path class="cls-22" d="M93.69,98.06a1.31,1.31,0,0,0,.6,1H94.2a1.52,1.52,0,0,0-1.4,1.6,1.46,1.46,0,0,0,1.55,1.4,1.53,1.53,0,0,0,1.41-1.6A1.45,1.45,0,0,0,95,99.27h0a1.3,1.3,0,0,0,1.18-1.37,1.25,1.25,0,0,0-1.31-1.21A1.31,1.31,0,0,0,93.69,98.06Z"/>
      <path class="cls-22" d="M120.05,98.09a1.31,1.31,0,0,1-.58,1h.09a1.54,1.54,0,0,1,1.46,1.57,1.49,1.49,0,0,1-1.54,1.46A1.53,1.53,0,0,1,118,100.6a1.48,1.48,0,0,1,.74-1.26h0A1.31,1.31,0,0,1,117.53,98a1.26,1.26,0,0,1,1.29-1.25A1.31,1.31,0,0,1,120.05,98.09Z"/>
      <path class="cls-23" d="M107.12,143.61c-5,0-9.67-4.66-13.14-13.12s-5.3-19.32-5.3-31,1.88-22.69,5.3-31,8.14-13.12,13.14-13.12,9.66,4.66,13.14,13.12,5.29,19.32,5.29,31-1.88,22.7-5.29,31S112.11,143.61,107.12,143.61Zm0-87.23c-4.56,0-8.89,4.44-12.2,12.49S89.7,87.93,89.7,99.48s1.85,22.43,5.22,30.62,7.64,12.48,12.2,12.48,8.88-4.43,12.19-12.48,5.22-19.06,5.22-30.62-1.85-22.42-5.22-30.61S111.67,56.38,107.12,56.38Z"/>
      <path class="cls-24" d="M125.56,53.08l.13,19.75s.08,11.5-3.55,19C118.63,99,107.92,111.2,107.23,112v.09S95.75,99.32,92,91.85s-3.8-19-3.8-19L88.1,53.13l20,1.25Z"/>
      <path class="cls-25" d="M108,30.1H93.28S85.46,35.57,86,42.34s3.6,15.4,3.6,15.4l16.08.94v.08l.7,0,.69,0v-.08l16.07-.94s3-8.63,3.6-15.4-7.25-12.24-7.25-12.24Z"/>
      <path class="cls-13" d="M103.18,36.56l3.54,1.88,3.77-1.88c6.25-3.11,12.78,5.57,12.78,12.37V63.06a12.61,12.61,0,0,1-12.78,12.37h-7.31A12.61,12.61,0,0,1,90.4,63.06V48.93C90.4,42.13,97,33.29,103.18,36.56Z"/>
      <path class="cls-16" d="M103.9,36.56l2.72,1.88,2.9-1.88c4.81-3.11,9.83,5.57,9.83,12.37V63.06c0,6.81-4.42,12.37-9.83,12.37H103.9c-5.41,0-9.84-5.56-9.84-12.37V48.93C94.06,42.13,99.15,33.29,103.9,36.56Z"/>
      <path class="cls-12" d="M94.67,58.62q.75-3,5.38-2.17a3.23,3.23,0,0,1,2.62,2.86c1.76-1.29,2.67-3.56,2.71-6.79a32.77,32.77,0,0,0-12.66,1.64A5.9,5.9,0,0,0,94.67,58.62Z"/>
      <path class="cls-11" d="M106.57,80.34c4.28,0,7.76-2.32,7.76-5.16S110.85,70,106.57,70s-7.75,2.32-7.75,5.16S102.3,80.34,106.57,80.34Z"/>
      <path class="cls-25" d="M97,23.31h19a3.71,3.71,0,0,1,3.7,3.7v3.7H93.28V27A3.72,3.72,0,0,1,97,23.31Z"/>
      <path class="cls-25" d="M102.68,17.13h7.82a6.82,6.82,0,0,1,6.79,6.79v6.79H95.89V23.92A6.81,6.81,0,0,1,102.68,17.13Z"/>
      <path class="cls-26" d="M115.55,24.2a3.43,3.43,0,0,1,2,3.09v3.42H95.9V27.29A3.43,3.43,0,0,1,98,24.12a6.3,6.3,0,0,1,6.27-6h5A6.28,6.28,0,0,1,115.55,24.2Z"/>
      <path class="cls-11" d="M105.36,66.9l-3.71-.14q-.72-2.39,1.85-3.33c.8-2.21,2.62-4,3-4s2.21,1.8,3,4q2.56.94,1.85,3.33l-3.71.14a8.46,8.46,0,0,0-1.13,0h0A8.78,8.78,0,0,0,105.36,66.9Z"/>
      <path class="cls-12" d="M102,64.34a2.38,2.38,0,0,0-.39,2.42h9.7a2.6,2.6,0,0,0-.26-2.27c.14.72-.71,1-2.56.67a3.33,3.33,0,0,1-4,.08C103.11,65.39,102.29,65.09,102,64.34Z"/>
      <path class="cls-27" d="M102.37,66.8l3,.1Q104.09,64.8,102.37,66.8Z"/>
      <path class="cls-24" d="M106.57,75.43h0a2.69,2.69,0,0,1,2.68,2.68v3.56a2.69,2.69,0,0,1-2.68,2.68h0a2.69,2.69,0,0,1-2.68-2.68V78.11A2.69,2.69,0,0,1,106.57,75.43Z"/>
      <path class="cls-27" d="M110.63,66.79l-3,.1Q108.92,64.79,110.63,66.79Z"/>
      <path class="cls-5" d="M94.07,55.63a1.21,1.21,0,1,1-.25-2.4.89.89,0,0,0,.65-.48,2.64,2.64,0,0,1,1.8-1.28,18.48,18.48,0,0,1,4.65.19c.76.09,1.48.18,2,.21a1.26,1.26,0,0,1,1.2-.78,1.24,1.24,0,0,1,1.24,1.22,1.91,1.91,0,0,1-.67,1.56,2,2,0,0,1-1.33.42,23.88,23.88,0,0,1-2.74-.22,17,17,0,0,0-3.86-.22,2,2,0,0,0-.21.28A3,3,0,0,1,94.07,55.63Z"/>
      <path class="cls-12" d="M106.61,72.48h-3.73a1.91,1.91,0,0,1-1.82-1.28l-.09.07a3,3,0,0,0,1.2,2.15,3,3,0,0,0,.54.33,3.21,3.21,0,0,0,1.35.3h5.19a3.1,3.1,0,0,0,1.32-.29,2.88,2.88,0,0,0,.56-.34,2.93,2.93,0,0,0,1.2-2.09l-.1-.07a1.93,1.93,0,0,1-1.8,1.22Z"/>
      <path class="cls-28" d="M95.18,59.29s-1.82-.17-1.83-.19c1.59-.07,1.55-.43,2.15-1.62,1.37-1.56,6.75-1.36,6.61,1.94a2.56,2.56,0,0,0-.39,0C101.4,57,96.19,56.28,95.18,59.29Z"/>
      <path class="cls-12" d="M98.58,57.7c1.73.2,2.7.94,2.91,2.19a6.7,6.7,0,0,0-5.88-.32C95.8,58.39,96.79,57.76,98.58,57.7Z"/>
      <path class="cls-16" d="M106.37,65c.94,0,1.7-.28,1.7-.61s-.76-.61-1.7-.61-1.69.27-1.69.61S105.44,65,106.37,65Z"/>
      <path class="cls-16" d="M107.79,63.61c.22,0,.4-.13.4-.29s-.18-.29-.4-.29-.4.13-.4.29S107.57,63.61,107.79,63.61Z"/>
      <path class="cls-29" d="M106.61,71.84h-3.73a2.31,2.31,0,0,1-1.82-.64l-.09,0c.06.43.52.82,1.2,1.07a4.26,4.26,0,0,0,.54.17,6.34,6.34,0,0,0,1.35.15h5.19a6.13,6.13,0,0,0,1.32-.15,3.06,3.06,0,0,0,.56-.17c.67-.24,1.12-.62,1.2-1l-.1,0a2.37,2.37,0,0,1-1.8.61Z"/>
      <path class="cls-5" d="M97.28,75.52a2.18,2.18,0,0,1-3,0,2.07,2.07,0,0,1-.3-3c3.34-3.66,2.45-6,10.29-5.94a2.39,2.39,0,0,1,2.16,1.48,2.37,2.37,0,0,1,2.15-1.49c7.85-.08,7,2.28,10.3,5.94a2.07,2.07,0,0,1-.3,3,2.17,2.17,0,0,1-3,0c-2.09-2.29-1.11-4.73-7.28-4.67a2,2,0,0,1-1.85-1.15,1.93,1.93,0,0,1-1.85,1.16C98.39,70.78,99.37,73.23,97.28,75.52Z"/>
      <path class="cls-30" d="M105.45,49a47.69,47.69,0,0,1,1.22-9.36A48.9,48.9,0,0,1,107.88,49C107.41,50.55,105.93,50.37,105.45,49Z"/>
      <path class="cls-12" d="M118.7,58.59c-.5-2-2.3-2.73-5.38-2.16a3.23,3.23,0,0,0-2.62,2.86c-1.77-1.3-2.67-3.56-2.71-6.8a33,33,0,0,1,12.66,1.64A5.88,5.88,0,0,1,118.7,58.59Z"/>
      <path class="cls-5" d="M119.6,53.21a1.21,1.21,0,0,1,1.12,1.32,1.24,1.24,0,0,1-1.37,1.08,3,3,0,0,1-2.47-1.5c-.11-.14-.21-.28-.22-.28a17.84,17.84,0,0,0-3.91.21,22.34,22.34,0,0,1-2.75.23,2,2,0,0,1-1.32-.42,1.89,1.89,0,0,1-.67-1.56,1.25,1.25,0,0,1,2.41-.44c.53,0,1.26-.12,2-.21a18.63,18.63,0,0,1,4.67-.19,2.6,2.6,0,0,1,1.79,1.27A.93.93,0,0,0,119.6,53.21Z"/>
      <path class="cls-28" d="M118.19,59.27s1.81-.17,1.83-.19c-1.59-.07-1.55-.43-2.15-1.62-1.37-1.56-6.75-1.36-6.61,1.94a2.53,2.53,0,0,1,.38,0C112,57,117.18,56.26,118.19,59.27Z"/>
      <path class="cls-12" d="M114.79,57.67c-1.73.21-2.7.94-2.91,2.2a6.67,6.67,0,0,1,5.88-.32C117.57,58.36,116.58,57.74,114.79,57.67Z"/>
      <path class="cls-31" d="M92.72,29.12h28a.79.79,0,0,1,.8.79h0a.8.8,0,0,1-.8.8h-28a.8.8,0,0,1-.8-.8h0A.79.79,0,0,1,92.72,29.12Z"/>
      <path class="cls-25" d="M104.74,17.44H109q-3-2.63,2.4-4.11,3.52-2.89-1.83-4.56,3.59,2.72-3.65,4.11C103.23,14,102.85,15.54,104.74,17.44Z"/>
      <path class="cls-22" d="M122.61,109.62a1.67,1.67,0,0,0-1.39-1.88,1.62,1.62,0,0,0-1.85,1.38,1.68,1.68,0,0,0,1.39,1.88A1.62,1.62,0,0,0,122.61,109.62Z"/>
      <path class="cls-22" d="M121.67,103.52a1.41,1.41,0,0,1-.76,1.07h.1a1.68,1.68,0,0,1,1.39,1.88,1.62,1.62,0,0,1-1.85,1.39,1.67,1.67,0,0,1-1.38-1.89,1.63,1.63,0,0,1,1-1.27h0A1.41,1.41,0,0,1,119,103.1a1.37,1.37,0,0,1,1.55-1.2A1.42,1.42,0,0,1,121.67,103.52Z"/>
      <path class="cls-32" d="M105.53,143.28a1.8,1.8,0,0,0,1.17,1.24l-.13,0a2.17,2.17,0,0,0-1.45,2.66,2.09,2.09,0,0,0,2.62,1.45,2.17,2.17,0,0,0,1.45-2.66,2.12,2.12,0,0,0-1.46-1.47h0a1.84,1.84,0,0,0,1.21-2.28,1.78,1.78,0,0,0-2.21-1.26A1.84,1.84,0,0,0,105.53,143.28Z"/>
      <path class="cls-18" d="M106.77,158.62c.5,0,.9-1,.9-2.25s-.4-2.26-.9-2.26-.9,1-.9,2.26S106.27,158.62,106.77,158.62Z"/>
      <path class="cls-12" d="M62.93,124.82s-1.29,4,.64,7.21,6.57.12,6.57.12l-4.77,8.24s.26-3.22-.9-4.7S60,134,60,134Z"/>
      <path class="cls-12" d="M57.33,163.76s2.25.48,3.34.82a22.31,22.31,0,0,1,7.41,4.2c3,2.57,5.79,6.44,8,7.47s14.86,1.18,14.86,1.18l-.45,3.63s-15.34,1-19.81-2.06-9.41-7.52-11.34-7.78-4.25-.51-4.44-1,1-1.55,1-1.55l-.43-2.12,1.41-.54A1.49,1.49,0,0,1,57.33,163.76Z"/>
      <path class="cls-11" d="M145.6,177.1q-8.72,7.17-22.84,4.15-2.54-13.77,8.44-12.35,8.3-.59,11.92-6.57c12.45-5.17,16.11-3,14.86,1.25,2,6.67,2.3,8.28-.71,8.45A30.27,30.27,0,0,0,145.6,177.1Z"/>
      <path class="cls-14" d="M172.82,174.29l-1.67,1.25a10.75,10.75,0,0,0,0,4.87,10.48,10.48,0,0,0,2.6,4.32l.11,1.7.78,13.75.64-12.13,1.74,0,.41,13.46s1.58-13.6,1.13-13.65,0,.65.59.68.92,13.5,1.32,13.47-.65-14.08-.17-15.43,2.06-.38,2.33-.52-2.38-1.4-2.9-.88l-.52.52-4.89-1.46s-3.68-3.23-3.39-4.39S172.82,174.29,172.82,174.29Z"/>
      <path class="cls-14" d="M175.34,174.33c-3.08-2-9.24,4.44-1.59,10.4-.11,3.18-1.65,11,3,10.22,1.49.09,3.4-4,2.94-8.53,1.81-2.31,2.83-1.16,2.83-1.16C179.75,180.8,175.34,174.33,175.34,174.33Z"/>
      <path class="cls-16" d="M175.42,173.28c-3-1.86-8.5,5.33-1.1,10.93-.69,6.61-.67,9.91,2.67,9.42,1.44.08,2.42-4.22,2.22-8,1.75-2.17,4-.16,4-.16C180.5,181.32,175.42,173.28,175.42,173.28Z"/>
      <path class="cls-17" d="M178.24,190.05l-.35,2.31a2.85,2.85,0,0,1-2,.36c-1-.26-1.22-.48-1.22-.48l.26-2.53S177,188.86,178.24,190.05Z"/>
      <path class="cls-16" d="M169.3,169.55s-15.32-19.57-16-25,6-5.75,6-5.75,2.05,1.45,4.43,6.81,10.68,26.08,10.68,26.08S171.6,174.73,169.3,169.55Z"/>
      <path class="cls-18" d="M177.21,176c1-1.95-5.37-2.25-7.65-2a3,3,0,0,0-2.78,1.78,1.46,1.46,0,0,1-.5-1.45c.25-.84.75-2.23,6.55-2S178.48,175.45,177.21,176Z"/>
      <path class="cls-19" d="M174.57,172a.75.75,0,1,0,0-1.48.75.75,0,1,0,0,1.48Z"/>
      <path class="cls-19" d="M172.87,171.64a.89.89,0,1,0-1-.89A.94.94,0,0,0,172.87,171.64Z"/>
      <path class="cls-19" d="M170.82,171.56a.89.89,0,1,0,0-1.77.89.89,0,1,0,0,1.77Z"/>
      <path class="cls-19" d="M168.79,171.72a.89.89,0,1,0-1-.89A.94.94,0,0,0,168.79,171.72Z"/>
      <path class="cls-19" d="M167,172.39a.89.89,0,1,0-1-.88A.94.94,0,0,0,167,172.39Z"/>
      <path class="cls-20" d="M172.84,166.54a.92.92,0,0,0-.58.54.43.43,0,0,1,0-.05,1,1,0,0,0-1.3-.49.94.94,0,0,0-.66,1.18,1,1,0,0,0,1.3.48,1,1,0,0,0,.68-.68h0a.86.86,0,0,0,1.11.41.8.8,0,0,0,.57-1,.85.85,0,0,0-1.11-.4Zm-7.43,2.74a1.14,1.14,0,0,1,1,.09.52.52,0,0,1-.1-.18A.93.93,0,0,1,167,168a1,1,0,0,1,1.3.49.94.94,0,0,1-.66,1.17,1.14,1.14,0,0,1-1-.09.52.52,0,0,1,.1.18.94.94,0,0,1-.66,1.17,1,1,0,0,1-1.3-.49.94.94,0,0,1,.66-1.17Zm3.48-2.11a1,1,0,0,1,1.3.49.94.94,0,0,1-.66,1.18,1,1,0,0,1-1.3-.49A1,1,0,0,1,168.89,167.17Z"/>
      <path class="cls-20" d="M170.92,163.56a.92.92,0,0,0-.5.62l0-.05a1,1,0,0,0-1.35-.32.94.94,0,0,0-.5,1.25,1,1,0,0,0,1.35.32,1.08,1.08,0,0,0,.59-.77h0a.86.86,0,0,0,1.15.25.79.79,0,0,0,.44-1.05.86.86,0,0,0-1.15-.26Zm-7,3.68a1.07,1.07,0,0,1,1,0l-.12-.17a.94.94,0,0,1,.51-1.25,1,1,0,0,1,1.35.32.94.94,0,0,1-.51,1.25,1.16,1.16,0,0,1-1,0,1,1,0,0,1,.13.16,1,1,0,0,1-.51,1.25,1,1,0,0,1-1.35-.32.93.93,0,0,1,.51-1.24Zm3.17-2.54a1,1,0,0,1,1.35.32.94.94,0,0,1-.5,1.25,1,1,0,0,1-1.35-.32A.94.94,0,0,1,167.08,164.7Z"/>
      <path class="cls-12" d="M150.3,125s1.29,4-.64,7.21-6.57.13-6.57.13l4.77,8.24s-.26-3.22.9-4.7,4.5-1.68,4.5-1.68Z"/>
      <path class="cls-12" d="M155.9,164s-2.25.48-3.34.82a22.6,22.6,0,0,0-7.41,4.2c-3,2.58-5.79,6.44-8,7.47s-14.86,1.18-14.86,1.18l.45,3.63s15.34,1,19.81-2.06,9.41-7.51,11.34-7.77,4.25-.52,4.44-1-1-1.55-1-1.55l.43-2.12-1.41-.53A1.5,1.5,0,0,0,155.9,164Z"/>
      <path class="cls-12" d="M131.93,128.15a184.18,184.18,0,0,0,2.47-23.42c-.14,8.44.11,12.36,1,17.82C133.48,126,132,127.91,131.93,128.15Z"/>
      <path class="cls-8" d="M95.88,173.41s12.87,13.13,19.31,14.16,0-8.49-1.8-13.64,11.84-8.24,11.84-8.24,8,.77,11.59-1.29,5.64-6.9,5.64-6.9l-5.06-1.19.36-6.43s-2.49-1.57-4.16.1-15.32,12.36-18.93,13.26-10,3.35-10.68,6,6.25,8,3.26,7.48S95.88,173.41,95.88,173.41Z"/>
      <path class="cls-8" d="M151.1,194.91s-23.55-5.79-27.8-8.75-7.34-11.72-7-12.88,2.44-1.54,2.44-1.54,12.36,1.16,15.58,1.8,23.3,5,25.87,5.67-6.05-1.42-5.14.9,4.5,5.92,6.43,8.24-8.11-3.74-14.54-4.77S151.1,194.91,151.1,194.91Z"/>
      <path class="cls-10" d="M118.79,171.74s19.46,3,33.47,5.92,14.94,12.87,14.94,12.87-1.29-7.46-4.38-10.68S126.51,169.15,118.79,171.74Z"/>
      <path class="cls-10" d="M99.74,170.45s1.48.45,1.74-.77a4.93,4.93,0,0,1,3.28-3.8c2.38-1,8.75,3.8,11.39,4.83a30.29,30.29,0,0,0,5.5,1.48l2.42-1s-9.46-2.37-11.26-4-5.22-3.28-6.89-3.34-3.85,0-4.57,1.8-1.91,3.39-3.86,3.15-5.13-2.6-5.13-2.6S95.23,170.19,99.74,170.45Z"/>
      <path class="cls-18" d="M128.36,122.11c.84,0,1.19,1,.8,2.25s-1.4,2.26-2.23,2.26-1.19-1-.8-2.26S127.53,122.11,128.36,122.11Z"/>
      <path class="cls-18" d="M83.25,122.11c-.84,0-1.19,1-.8,2.25s1.4,2.26,2.23,2.26,1.19-1,.8-2.26S84.08,122.11,83.25,122.11Z"/>
      <path class="cls-17" d="M73.61,94.42c1,.3,1.44,2.12.87,4.06s-1.86,3.26-2.91,3-1.44-2.12-.87-4.06S72.57,94.11,73.61,94.42Z"/>
      <path class="cls-17" d="M138.28,92.58c-1.05.31-1.44,2.12-.88,4.06s1.87,3.26,2.92,3,1.44-2.12.87-4.06S139.32,92.28,138.28,92.58Z"/>
      <path class="cls-5" d="M97,79.44c-1.92,3.75-1.26,6-.42,7.94,1,2.3,2.25,4-.49,7.05,1-2.38,1.2-3.44.38-5.54-.1-.28-.23-.57-.37-.89-2-3.24-1.74-5.78.9-8.56Zm6.86,2.23c-3.34,2-3.75,4-1.27,7l-.05-.06c4.13,7.42-7.09,5.61.51,14.61h0c-1.55-2.91-2.94-5-.75-8a7.47,7.47,0,0,0,1.13-.93c.1-.11.22-.25.35-.42,1.6-2.07.88-3.44-.13-4.77C102.21,87.23,100.13,85.4,103.89,81.67Z"/>
      <path class="cls-24" d="M72.5,89.41a4.72,4.72,0,0,1,2.23-4.26,19.78,19.78,0,0,1,5.62-1.91h0c4.73-1.47,3.86-4.69,2.58-9v0c-.75-3-.44-3.84.52-6.77h0c-.32,2.51-.72,4.06.14,6.49C88.2,87.17,78.31,82.11,74,86.63A6.3,6.3,0,0,0,72.5,89.41Z"/>
      <path class="cls-24" d="M141.12,89.85a4.68,4.68,0,0,0-2.23-4.27,19.67,19.67,0,0,0-5.62-1.9h0c-4.74-1.47-3.86-4.68-2.58-9h0c.75-3,.44-3.83-.52-6.76h0c.33,2.52.73,4.06-.13,6.5-4.63,13.14,5.27,8.09,9.57,12.6A6.24,6.24,0,0,1,141.12,89.85Z"/>
      <path class="cls-5" d="M116.38,79.49c1.92,3.76,1.25,6.05.42,8-1,2.29-2.25,4,.48,7-1-2.38-1.19-3.45-.37-5.55.1-.27.23-.57.37-.88,2-3.25,1.73-5.79-.9-8.57Zm-6.86,2.23c3.34,2.06,3.75,4,1.27,7l0-.06c-4.13,7.42,7.09,5.61-.51,14.62h0c1.54-2.91,2.94-5.06.75-8a6.51,6.51,0,0,1-1.13-.92,4.56,4.56,0,0,1-.35-.43c-1.6-2.06-.88-3.44.12-4.76C111.2,87.29,113.28,85.45,109.52,81.72Z"/>
      <path class="cls-5" d="M99.09,28.79c-1.35-1.17-.89-1.88-.3-2.47s1.59-1.24-.34-2.19c.69.74.84,1.08.27,1.73l-.27.27c-1.38,1-1.22,1.8.64,2.66Zm4.83-.69c-2.35-.64-2.64-1.24-.89-2.18h0c2.91-2.3-5-1.74.36-4.53h0c-1.09.9-2.07,1.57-.53,2.47a5.88,5.88,0,0,1,.8.28l.25.14c1.12.64.61,1.06-.09,1.48C102.74,26.37,101.27,26.94,103.92,28.1Z"/>
      <path class="cls-5" d="M114.39,28.77c1.48-1.16,1-1.87.33-2.46s-1.74-1.25.37-2.19c-.76.74-.92,1.07-.29,1.72.08.08.18.18.29.27,1.51,1,1.33,1.8-.7,2.66Zm-5.29-.69c2.58-.64,2.89-1.24,1-2.18l0,0c-3.19-2.31,5.46-1.74-.39-4.54h0c1.19.9,2.26,1.57.58,2.47a6.44,6.44,0,0,0-.88.29,1.62,1.62,0,0,0-.27.13c-1.23.64-.67,1.07.1,1.48C110.4,26.35,112,26.92,109.1,28.08Z"/>
      <path class="cls-33" d="M56.1,163.34l6.45,2S58,165.54,56.1,163.34Z"/>
      <path class="cls-33" d="M60.43,167.12,54.7,165.2S58.43,167.72,60.43,167.12Z"/>
      <path class="cls-33" d="M58.8,168.85,54,167.75S56.64,169.5,58.8,168.85Z"/>
      <path class="cls-33" d="M57.53,171l-3.82-1S56.48,171.45,57.53,171Z"/>
      <path class="cls-17" d="M60.8,161.72l-1.4,1.73-3.3-.87s.54-1.83,1.41-1.89A12.66,12.66,0,0,1,60.8,161.72Z"/>
      <path class="cls-33" d="M157.69,163.64l-6.14,1S155.63,165.54,157.69,163.64Z"/>
      <path class="cls-33" d="M153.24,166.75l5.47-1.06S155,167.63,153.24,166.75Z"/>
      <path class="cls-33" d="M154.48,168.7l4.51-.39S156.37,169.66,154.48,168.7Z"/>
      <path class="cls-33" d="M155.36,171l3.62-.49S156.25,171.61,155.36,171Z"/>
      <path class="cls-17" d="M153.62,161.35l1,1.92,3.12-.38s-.25-1.89-1-2.07A10.73,10.73,0,0,0,153.62,161.35Z"/>
      <path class="cls-12" d="M79.93,173.07s1.87-2.26,3.91-1.4a6.84,6.84,0,0,1,3,2.48l-.43-3-6.62-.77Z"/>
    </g>
  </g>
</svg>
