<svg id="Layer_1" data-name="Layer 1" xmlns="http://www.w3.org/2000/svg" xmlns:xlink="http://www.w3.org/1999/xlink" width="236.73" height="400.45" viewBox="0 0 236.73 400.45">
  <defs>
    <style>
      .cls-1 {
        fill: none;
      }

      .cls-2 {
        clip-path: url(#clip-path);
      }

      .cls-3 {
        fill: #fffa4d;
      }

      .cls-4, .cls-5 {
        fill: #fcd6c5;
        stroke: #231f20;
        stroke-linecap: round;
        stroke-linejoin: round;
      }

      .cls-4 {
        stroke-width: 2px;
      }
    </style>
    <clipPath id="clip-path">
      <rect class="cls-1" x="373.68" y="-853.98" width="333.64" height="310.61"/>
    </clipPath>
  </defs>
  <g>
    <path class="cls-3" d="M34.84,383.56A24.74,24.74,0,0,1,16.72,376c-2.28-1.34-5.75-3.92-7-7.78a8.91,8.91,0,0,1,.62-7.14l.06-.1c.07-.13.21-.36.41-.68a9.58,9.58,0,0,1,.09-8.86A28.68,28.68,0,0,1,16.05,345a29.18,29.18,0,0,1,11.23-13.53c.86-.57,1.58-1.07,2.24-1.52a62.88,62.88,0,0,1,10.11-5.82c1.52-1.57,3.11-3.17,4.74-4.75,11.05-10.79,22.16-56.63,27.5-78.67C74,232,75.53,225.64,76.71,222.2c2.48-7.25,5-14.11,7.45-20.75,6.42-17.44,12-32.51,12.86-44.36,1.38-18.33-9.65-84-20.44-130.39a8,8,0,0,1,7.8-9.81h91.43a8,8,0,0,1,8,8.61c-.07.91-6.86,91.37,7.43,127.05,3.8,9.48,10.51,19,17,28.15,13.54,19.14,28.87,40.83,11.51,60.94-10.12,11.72-22.82,15.88-35.09,19.91-10.77,3.54-21.91,7.2-32.4,16.21-10,8.6-13.94,19.95-18.09,32-4.82,14-10.28,29.81-26.05,42.23a48.54,48.54,0,0,1-12,7.42,40.93,40.93,0,0,1-8,2.66A52.63,52.63,0,0,1,76,363.42h0a56.83,56.83,0,0,1-7.07-.44c-.59.67-1.23,1.51-2,2.6a42,42,0,0,1-17.52,14.51A34.61,34.61,0,0,1,34.84,383.56Z"/>
    <g>
      <path class="cls-4" d="M84.38,24.89C94.92,70.27,106.52,137.45,105,157.69c-1.33,17.7-11.53,40.27-20.72,67.1-4.39,12.82-17.59,84-34.31,100.33-3.37,3.29-6.41,6.42-9.05,9.35,0,0-25.81,32,25.72,20.07,7.88-1.83,18,5.65,36.42-8.78,27-21.2,19.77-53.28,44-74.07,24-20.6,49.72-15.69,66.64-35.28,20-23.19-17.58-50.16-29.88-80.89-15.15-37.85-8-130.63-8-130.63"/>
      <g>
        <g>
          <path class="cls-4" d="M49.25,328.51c-12.43,5.6-12.45,6.27-17.56,9.66a20.29,20.29,0,0,0-8.79,11.71l-5,5.43c-1,1.73,4.14,7.75,10.59,6.91s11.42-8.67,14-10.65,8.83-3.47,8.83-3.47"/>
          <path class="cls-5" d="M22.9,349.73s2-.32,1.22,2-1.93,3.75-3.51,4.22c-1.33.4-2.5.17-2.73-.61A20.3,20.3,0,0,1,22.9,349.73Z"/>
        </g>
        <g>
          <path class="cls-4" d="M48.89,331.33c-11.28,8.2-11.16,8.88-15.57,13.33s-9.61,11-10.9,14.65l-5.07,5.6c-1,1.77,6,7.53,12.28,5.35s10.6-10.81,12.74-13.33,8.12-5.31,8.12-5.31"/>
          <path class="cls-5" d="M22.43,359.16s2.05-.34,1.26,2-1.94,3.84-3.55,4.34c-1.35.41-2.55.19-2.79-.6A20.13,20.13,0,0,1,22.43,359.16Z"/>
        </g>
        <path class="cls-4" d="M65.63,331.91c-8.83,4.65-8.83,4.65-19.11,11.85S38.61,352,35.18,356c-4.86,3.06-13.44,7.87-15,8.81a2.79,2.79,0,0,0-.15,1.61c.87,3.42,9.35,14.12,26,6.41,13.66-6.33,13.89-14.27,20.65-18.29,4.38.77,21.49,3.83,36.42-8.78"/>
        <path class="cls-5" d="M35.18,356c1.77-.61,4.25,1.35,3.41,2s-13.24,9.32-14.51,8.59a42.76,42.76,0,0,0-3.95-1.8S22.22,360.49,35.18,356Z"/>
      </g>
    </g>
  </g>
</svg>
