<svg xmlns="http://www.w3.org/2000/svg" width="326.31" height="302.3" viewBox="0 0 326.31 302.3">
  <defs>
    <style>
      .cls-1 {
        isolation: isolate;
      }

      .cls-2 {
        fill: #fffa4d;
      }

      .cls-3, .cls-4, .cls-9 {
        fill: #819923;
      }

      .cls-3 {
        stroke: #4d5b10;
        stroke-width: 0.75px;
      }

      .cls-10, .cls-3 {
        stroke-miterlimit: 10;
      }

      .cls-4 {
        opacity: 0.3;
      }

      .cls-11, .cls-4, .cls-8, .cls-9 {
        mix-blend-mode: multiply;
      }

      .cls-5, .cls-6 {
        fill: #d2e877;
      }

      .cls-11, .cls-12, .cls-13, .cls-5, .cls-9 {
        opacity: 0.5;
      }

      .cls-6 {
        opacity: 0.2;
      }

      .cls-7, .cls-8 {
        fill: #f1d197;
      }

      .cls-10 {
        fill: #a4d84e;
        stroke: #6c9321;
        stroke-width: 0.5px;
      }

      .cls-11 {
        fill: #95bf43;
      }

      .cls-12 {
        fill: #cef484;
      }
    </style>
  </defs>
  <g class="cls-1">
    <g id="Layer_1" data-name="Layer 1">
      <g>
        <path class="cls-2" d="M256,295.56a16,16,0,0,1-2.22-.16,18.08,18.08,0,0,1-5.43-1.65l-.16-.07-.92-.48-.47-.27-.71-.43-.64-.43-.5-.35c-.36-.27-.74-.55-1.09-.85a42.94,42.94,0,0,1-5.47-5.69c-.32-.38-.64-.77-1-1.14-.69-.81-1.44-1.64-2.2-2.45s-1.52-1.57-2.33-2.36l-.18-.17c-1-1-2.13-2-3.52-3.23-2.07-1.83-4.31-3.69-6.85-5.7-1.87-1.49-3.76-2.95-5.64-4.41l-.09-.07c-1.17-.91-2.32-1.81-3.49-2.86-.65-.58-1.27-1.2-1.91-1.88a21.42,21.42,0,0,1-3.53-5.06,1.84,1.84,0,0,1-.13-.25q-.18-.34-.33-.69c-.09-.22-.17-.43-.24-.65s-.12-.35-.17-.52h0l-.75-.38c-.41-.23-.74-.41-1.07-.62s-.58-.38-.88-.6-.38-.28-.56-.42a24.27,24.27,0,0,1-4.2-4.3c-.47-.59-.92-1.2-1.36-1.8l-.24-.32c-.7-.93-1.42-1.86-2.2-2.81l-.82.05c-.87.05-1.75.08-2.63.08a49.63,49.63,0,0,1-11.49-1.39l-.29-.07c-.64-.15-1.26-.32-1.87-.49l-.56-.16c-.56-.17-1.12-.34-1.66-.52l-.74-.25-1.51-.54-.83-.32c-.46-.17-.92-.36-1.39-.56l-.91-.39-1.29-.58-1-.48-1.17-.58-1-.52-.31-.17-.84-.46-1-.58-.37-.22-.71-.42-1.24-.79-.28-.18-.53-.34c-.66-.44-1.33-.9-2-1.37-3.76-2.69-7.16-5.66-10.44-8.52-1.87-1.64-3.64-3.18-5.45-4.66-.68-.56-1.37-1.1-2.07-1.64a45.51,45.51,0,0,0-7.5-4.79,8.71,8.71,0,0,0-1.23-.47c-.64-.2-1.38-.39-2.17-.59l-1.15-.3a27.34,27.34,0,0,1-4.88-1.71c-.18-.08-.41-.2-.61-.31a9.16,9.16,0,0,1-5.14-9c.6-6.66,7.62-8.85,10.26-9.68a37.56,37.56,0,0,1,10.15-1.46c-2.06-2.17-4.25-4.45-6.61-6.86-7.18-7.33-14.38-14.26-21.4-20.59-3.39-3.06-6.89-6.13-10.28-9.1l-2.21-1.95-3.17-1.09c-3.41-1.17-6.95-2.39-10.42-3.74A140.42,140.42,0,0,1,59,131.62c-1.79-1.16-3.58-2.38-5.32-3.63-2.14-1.54-4.34-3.22-6.53-5-1.37-1.11-2.51-2.06-3.58-3-.81-.7-1.62-1.41-2.41-2.13-.59-.53-1.16-1.07-1.74-1.6l-.24-.23L36,113c-5-4.78-9.75-9.29-15-12.34l-.05,0c-.5-.29-1-.54-1.43-.78l-.05,0c-.48-.25-1-.49-1.47-.71l-.1,0c-.44-.19-1-.4-1.47-.6l-.11,0c-.35-.13-.69-.27-1.05-.38a8,8,0,0,1-1.07-14.79,20.09,20.09,0,0,1,9-1.76l1.64,0h1.75q1,0,2.07,0c.91,0,1.82,0,2.73,0a13,13,0,0,1-3.16-7.22c-.28-3.34.84-6.77,3.35-10.2a39.31,39.31,0,0,1,3.15-3.7q1.53-1.65,3.12-3.22a50.52,50.52,0,0,1-7-6.42,14,14,0,0,1-1.15-1.56l-.38-.65c-.17-.32-.3-.6-.42-.87a10.67,10.67,0,0,1-.51-1.38c-.08-.28-.14-.5-.19-.72a12.26,12.26,0,0,1,.86-7.76l0-.07a12.24,12.24,0,0,1,.58-1.14.41.41,0,0,1,.05-.09A21.29,21.29,0,0,1,33,32.35l.6-.61.62-.6,1.57-1.46c2.23-2,4.84-4.41,7.58-6.67l.46-.39c.43-.36.86-.72,1.3-1.07l.53-.39c1.1-.86,2.07-1.59,3-2.23a19.23,19.23,0,0,1,3.21-1.87,12.94,12.94,0,0,1,2.6-.85A11.93,11.93,0,0,1,56.91,16c.3,0,.59,0,.89,0a13.43,13.43,0,0,1,1.65.25,12.65,12.65,0,0,1,2.78,1,15.74,15.74,0,0,1,1.66,1c.6.41,1.12.82,1.59,1.21a88,88,0,0,1,11.84-9.7l1-.64.38-.23c.22-.13.42-.25.63-.36s.34-.18.51-.27.57-.28.85-.4l.57-.24.46-.16A11.32,11.32,0,0,1,83.37,7l.15,0a12.45,12.45,0,0,1,2.15-.2h.5a15.78,15.78,0,0,1,1.7.17c.29,0,.6.1.91.18a13.82,13.82,0,0,1,1.64.47,16.41,16.41,0,0,1,1.78.76,25.16,25.16,0,0,1,4.88,3.36c5.25,4.46,10.17,9.06,13.87,12.57q4,3.77,7.88,7.56c2.72,2.62,5.43,5.24,8.17,7.83,5.25,5,9.32,8.66,13.2,11.94a24.47,24.47,0,0,1,2.18,2A12.89,12.89,0,0,1,145,57.9c0,.08.1.27.1.29l.11.06A40.78,40.78,0,0,1,152.84,65c4.72,5.07,8.56,9.07,12.15,12.66.94,1,1.88,1.87,2.8,2.77-.62-2.82-1.14-5.68-1.56-8.51,0-.31-.18-1.29-.18-1.29-.15-1.15-.29-2.29-.41-3.43,0,0-.11-1-.15-1.33-.16-1.71-.28-3.22-.36-4.61-.18-2.89-.24-5.57-.2-8.18,0-1.41.08-2.81.17-4.17s.22-2.85.38-4.21l.12-1c.23-2,.52-4.32.93-6.71l0-.09c.13-.72.26-1.44.41-2.16l0-.21c.14-.67.3-1.32.46-2,0-.15.07-.29.11-.43.16-.64.35-1.26.54-1.87,0-.18.11-.36.17-.54.28-.86.57-1.64.89-2.39a8,8,0,0,1,11.3-3.88,16.89,16.89,0,0,1,3.76,3c.32.32.64.67.95,1a48.92,48.92,0,0,1,4.92,7.13l.74,1.26c.54.93,1.06,1.81,1.47,2.44A146.1,146.1,0,0,1,213.7,92.63c.19,1.13.37,2.27.53,3.41.35,2.39.65,4.8.94,7.12l.35,2.76c.23,1.74.53,4,.89,6.25s.72,4.13,1.13,5.94c.36,1.63.82,3.34,1.36,5.09.06.16.12.33.17.5.56,1.79,1.2,3.58,1.9,5.35.06.12.12.25.17.38a75.25,75.25,0,0,0,4.88,9.86c1.5,1.41,3.08,2.86,4.78,4.39,5.33,4.79,11,9.54,16.4,14.12l5,4.23.65.56a12.49,12.49,0,0,1,3.05,4,11.34,11.34,0,0,1,.93,3.1c0,.13,0,.25.05.37.26.22.52.46.78.7s.79.76,1.16,1.14.68.71,1,1.06c14.11,15.33,29.12,30.17,44.6,44.12a28.9,28.9,0,0,1,2.27,2.23l.39.48c.26.31.51.65.75,1s.27.4.38.57a13.8,13.8,0,0,1,1.13,2.18,12.48,12.48,0,0,1,.51,1.6c0,.18.09.35.12.52a10.06,10.06,0,0,1,.19,1.12l.06.49c0,.42,0,.79,0,1.17V229h0c0,.42,0,.84-.11,1.27a14.22,14.22,0,0,1-.25,1.42c0,.06-.05.2-.06.25-.09.36-.18.7-.29,1l-.07.25c-.12.35-.24.69-.38,1l-.06.15a25.64,25.64,0,0,1-3,5.26c-.62.9-1.17,1.64-1.71,2.35a34.55,34.55,0,0,1-3.78,4.21c3.94,3.64,7.81,7.08,11.32,10.17.23.19.45.39.67.59a14.08,14.08,0,0,1,2,2.32,11.58,11.58,0,0,1,1.06,2,13.1,13.1,0,0,1,.19,8.86q-.25.84-.54,1.65c0,.07-.06.17-.09.26a33.78,33.78,0,0,1-3.58,7.1,31.25,31.25,0,0,1-1.95,2.66c-.68.85-1.42,1.68-2.19,2.47a33.78,33.78,0,0,1-7.93,6,25.69,25.69,0,0,1-5.48,2.23c-.53.14-1.08.26-1.62.36a18.74,18.74,0,0,1-3.23.29h-.32A17.34,17.34,0,0,1,287,293l-.07,0a13,13,0,0,1-1.47-.27l-.15,0c-4.94-1.18-8.52-4.32-11.26-7.22-1.1,1.12-2.34,2.29-3.79,3.56-2.32,2-7.15,6.28-13.68,6.56Z"/>
        <g>
          <g>
            <path class="cls-3" d="M87.93,93.68c1.29,1.41,2.72,2.9,4.6,3.26a8.38,8.38,0,0,0,4.86-1c6.84-3,13.56-7.63,16.27-14.6a6.48,6.48,0,0,0,.54-3.21c-.26-1.83-1.74-3.2-3.11-4.43C93.83,58.29,78.22,41.1,60.76,25.92a6.58,6.58,0,0,0-3.58-2,6.32,6.32,0,0,0-3.94,1.53,119.54,119.54,0,0,0-12.05,10.1C38.56,38,33.92,42,37,45.53c3.45,4,8.55,7.19,12.53,10.68q13,11.42,25.25,23.72Q81.47,86.68,87.93,93.68Z"/>
            <path class="cls-4" d="M60.76,25.92a6.58,6.58,0,0,0-3.58-2,6.32,6.32,0,0,0-3.94,1.53c-1.65,1.15-3.22,2.4-4.77,3.68C64.63,41,78.54,55.76,91.85,70.78a200.78,200.78,0,0,1,13.61,16.65c.6.84,1.15,1.71,1.73,2.57a21.81,21.81,0,0,0,6.47-8.68,6.48,6.48,0,0,0,.54-3.21c-.26-1.83-1.74-3.2-3.11-4.43C93.83,58.29,78.22,41.1,60.76,25.92Z"/>
            <path class="cls-4" d="M112.12,84.37a18.55,18.55,0,0,0,1.54-3.05,6.48,6.48,0,0,0,.54-3.21c-.26-1.83-1.74-3.2-3.11-4.43C93.83,58.29,78.22,41.1,60.76,25.92a6.58,6.58,0,0,0-3.58-2,6.32,6.32,0,0,0-3.94,1.53c-.28.19-.53.4-.8.59C58,30.31,63.16,35,68.25,39.69s9.94,9.39,14.81,14.19Q96,66.6,108.18,80C109.51,81.43,110.81,82.91,112.12,84.37Z"/>
            <path class="cls-5" d="M94.58,96.87c-.25-.17-.48-.33-.63-.45-3.06-2.54-6-5.21-8.91-7.94-5.8-5.48-11.33-11.24-17-16.88-3.23-3.23-6.51-6.43-9.89-9.52-7.05-6.46-14.55-12.4-22.1-18.28a3.86,3.86,0,0,0,.9,1.73c3.45,4,8.55,7.19,12.53,10.68q13,11.42,25.25,23.72,6.72,6.75,13.18,13.75c1.29,1.41,2.72,2.9,4.6,3.26A5.25,5.25,0,0,0,94.58,96.87Z"/>
            <path class="cls-6" d="M87.92,85.44c.55.39,1.34.76,1.84.31s.15-1.37-.26-2C83,74.43,74.89,66.32,66.84,58.27,61.2,52.63,55.51,47,48.91,42.48a6.76,6.76,0,0,0-3.18-1.38,2.48,2.48,0,0,0-2.68,1.77c-.52,3,5.74,6.06,7.65,7.65,3.17,2.64,6.16,5.48,9.08,8.39,5.9,5.9,11.47,12.13,17.57,17.83A96.74,96.74,0,0,0,87.92,85.44Z"/>
            <path class="cls-7" d="M39.41,41.9,57.62,25.19c.29-.27.58-.56.85-.86A3.67,3.67,0,0,0,57.18,24a6.32,6.32,0,0,0-3.94,1.53,119.54,119.54,0,0,0-12.05,10.1c-2.26,2.06-6,5.32-5.07,8.43A8.5,8.5,0,0,0,39.41,41.9Z"/>
            <path class="cls-8" d="M47.8,33l3.81-3.69c0-.24-.23-.44-.47-.46a1.38,1.38,0,0,0-.68.18c-3.73,1.79-6.74,4.78-9.66,7.7-.41.41-1.73,1.49-.81,2.06.68.43,2-.82,2.56-1.19A45.86,45.86,0,0,0,47.8,33Z"/>
            <path class="cls-9" d="M102.24,67.81a17.54,17.54,0,0,0,.29-2C90.5,54.41,79,42.46,66.78,31.3a4.84,4.84,0,0,0-.46,1c-.63,2.16.27,4.51,1.65,6.29a56.49,56.49,0,0,0,4.75,4.79,31.15,31.15,0,0,1,5.49,8.12c.92,1.86,1.65,4.27.3,5.85-1,1.13-2.67,1.31-4.16,1.1A16.16,16.16,0,0,1,69,56.59a46.26,46.26,0,0,0-5.65-3,12.93,12.93,0,0,0-11.28,1.31,8.55,8.55,0,0,0-2.17,1.65Q62.7,67.81,74.71,79.89a24.77,24.77,0,0,0,15.52.47C96,78.49,100.94,73.73,102.24,67.81Z"/>
            <path class="cls-9" d="M103.1,66.33c-11.49-10.83-22.48-22.2-34-32.93a2.82,2.82,0,0,0-1.49.77,2.7,2.7,0,0,0-.11,3.09,8.67,8.67,0,0,0,2.3,2.34,47.49,47.49,0,0,1,9,9.7,11.22,11.22,0,0,1,2.42,5.88,6.52,6.52,0,0,1-5,6.35c-3.41.74-6.73-1.4-9.46-3.57S61,53.33,57.54,53.29c-2.79,0-5.34,1.52-7.58,3.18a.51.51,0,0,0,0,.13q12.8,11.24,24.81,23.33c2.91,2.92,5.76,5.89,8.59,8.88,5.34.8,11.18.58,15.36-2.79a14.75,14.75,0,0,0,4.9-8.37,24.25,24.25,0,0,0-.15-9.82C103.34,67.32,103.22,66.82,103.1,66.33Z"/>
          </g>
          <g>
            <g>
              <path class="cls-10" d="M173.42,45.68a86.14,86.14,0,0,0-.31,15.15c2.26,38.22,23.78,74.64,55.71,95.77a82,82,0,0,1-19.09-36.73c-1.93-8.53-2.48-17.3-3.92-25.92a137,137,0,0,0-20.22-51.3c-2.23-3.47-5.48-10.19-9-12.19C174.65,35,174,40.81,173.42,45.68Z"/>
              <path class="cls-11" d="M209.73,119.87c-1.93-8.53-2.48-17.3-3.92-25.92a137,137,0,0,0-20.22-51.3c-2.23-3.47-5.48-10.19-9-12.19a36.86,36.86,0,0,0-2.13,7.86,249.11,249.11,0,0,1,29.64,89.13c.27,2.07.16,4.72-1.41,5.8a123.76,123.76,0,0,0,26.16,23.35A82,82,0,0,1,209.73,119.87Z"/>
              <path class="cls-11" d="M205.81,94a137,137,0,0,0-20.22-51.3c-2.23-3.47-5.48-10.19-9-12.19-.16.38-.3.77-.44,1.16,8.16,11.47,14,24.51,18.37,37.93,4.94,15.32,7.92,31.2,10.61,47.07,1,5.62,1.88,11.35,1.07,17a6.35,6.35,0,0,1-.85,2.67,123.41,123.41,0,0,0,23.5,20.31,82,82,0,0,1-19.09-36.73C207.8,111.34,207.25,102.57,205.81,94Z"/>
              <path class="cls-12" d="M173.42,45.68a86.14,86.14,0,0,0-.31,15.15c1.51,25.48,11.58,50.16,27.59,70-7.23-10.05-12.77-21.26-17.7-32.63-1.38-3.18-2.71-6.39-3.81-9.67a109.29,109.29,0,0,1-4.77-24.86c-.59-6.32-.86-12.68-.88-19C173.5,45,173.46,45.36,173.42,45.68Z"/>
              <path class="cls-11" d="M206.19,137.24c-20.61-42.1-29.08-101.62-29.08-101.62-.75,2.21,6.15,55.27,25.09,97.1Q204.14,135,206.19,137.24Z"/>
              <path class="cls-11" d="M228.82,156.6a81.94,81.94,0,0,1-17.38-30.51,4,4,0,0,1-2.18.59,5.67,5.67,0,0,1-3.44-1.88c-4.24-4.08-6.66-9.75-10.8-13.94-3.34-3.39-7.64-5.65-11.33-8.65l-.7-.61A126.81,126.81,0,0,0,228.82,156.6Z"/>
              <path class="cls-11" d="M224.67,153.71c.1-.59.19-1.19.26-1.78a82,82,0,0,1-11.2-19.49,2.49,2.49,0,0,1-1.34.6c-1.32.13-2.45-.84-3.39-1.77A101.8,101.8,0,0,1,196.29,116a46.79,46.79,0,0,0-2.74-3.83c-2.51-3-5.85-5.14-9.11-7.32A127,127,0,0,0,224.67,153.71Z"/>
            </g>
            <g>
              <path class="cls-3" d="M238.06,200.51c7.14,5.83,14.79,11.06,21.48,17.41a173.46,173.46,0,0,1,12.65,13.89l6.17,7.28a15.27,15.27,0,0,0,4.62,4.16c3,1.49,6.76.82,9.63-.95s5-4.49,6.94-7.25c1.78-2.54,3.5-5.7,2.35-8.58a10,10,0,0,0-2.84-3.48q-23.58-21.26-45.13-44.64c-2.19-2.39-4.9-5-8.12-4.62-2,.24-3.68,1.63-5.18,3-3.14,2.86-9.11,7.15-10.17,11.58C229.29,193.2,234.79,197.85,238.06,200.51Z"/>
              <path class="cls-7" d="M299.55,235.05c1.78-2.54,3.5-5.7,2.35-8.58a7,7,0,0,0-1.58-2.27,16.21,16.21,0,0,1-2.58,8.3,22.83,22.83,0,0,1-9.07,7.85,15.47,15.47,0,0,1-5.28,1.73,14.88,14.88,0,0,1-2.43-.24,9.5,9.5,0,0,0,2,1.41c3,1.49,6.76.82,9.63-.95S297.61,237.81,299.55,235.05Z"/>
              <path class="cls-7" d="M245.81,173.73c-2,.24-3.68,1.63-5.18,3-3.14,2.86-9.11,7.15-10.17,11.58a6.7,6.7,0,0,0,.52,4.31,13.86,13.86,0,0,0,5.08-1.11,25.86,25.86,0,0,0,7.38-5.32c2.3-2.18,4.54-4.58,5.63-7.55a9.83,9.83,0,0,0,.58-4A6.21,6.21,0,0,0,245.81,173.73Z"/>
              <path class="cls-4" d="M297.51,235.64c.22.33.44.79.7,1.24.46-.6.9-1.21,1.34-1.83,1.78-2.54,3.5-5.7,2.35-8.58a10,10,0,0,0-2.84-3.48q-23.58-21.26-45.13-44.64c-2.19-2.39-4.9-5-8.12-4.61a7.27,7.27,0,0,0-3.45,1.53,13.47,13.47,0,0,1,1.72,1.47c1.91,2,3.12,4.52,4.49,6.92a76.58,76.58,0,0,0,12.89,16.2c8.82,8.74,18.89,16.16,27.47,25.17a84.47,84.47,0,0,1,6,7C295.82,233.18,296.69,234.39,297.51,235.64Z"/>
              <path class="cls-4" d="M253.93,178.35c-2.07-2.25-4.61-4.68-7.6-4.62a57.19,57.19,0,0,1,6.36,6.84c3,3.78,5.45,7.92,8.39,11.73a86.19,86.19,0,0,0,10.4,11c6.69,6.09,13.95,11.55,20.49,17.82a76,76,0,0,1,8.84,10c.15.22.34.54.54.9a6.85,6.85,0,0,0,.55-5.55,10,10,0,0,0-2.84-3.48Q275.48,201.74,253.93,178.35Z"/>
              <path class="cls-5" d="M272.67,231.14a149.32,149.32,0,0,0-31.06-29.23c-3.82-2.68-7.92-5.4-10.57-9.14,1.47,3.14,4.77,5.92,7,7.74,7.14,5.83,14.79,11.06,21.48,17.41a173.46,173.46,0,0,1,12.65,13.89l6.17,7.28a15.27,15.27,0,0,0,4.62,4.16l.21.08c-1-.91-2-1.8-2.92-2.8C277.56,237.55,275.18,234.29,272.67,231.14Z"/>
              <path class="cls-6" d="M277.87,232.19c.39.33.89.68,1.38.52a1,1,0,0,0,.6-1.06,3,3,0,0,0-.48-1.21,49.55,49.55,0,0,0-4.82-6.37q-5.32-6.28-11-12.3c-6.28-6.72-13-13.31-21.38-17.15a6.21,6.21,0,0,0-2.25-.7,2.46,2.46,0,0,0-2.12.84c-1.23,1.64.92,2.32,1.95,3,1.55,1,3.07,2.13,4.55,3.26,2.94,2.25,5.74,4.66,8.46,7.16,5.5,5.07,10.66,10.49,16,15.7C271.74,226.74,274.74,229.55,277.87,232.19Z"/>
              <path class="cls-8" d="M246.85,179.21a5.29,5.29,0,0,0,.59-4.39,3.18,3.18,0,0,0-.79-1.09,4.71,4.71,0,0,0-.84,0c-2,.23-3.68,1.62-5.18,3-3.14,2.86-9.11,7.15-10.17,11.58a6.06,6.06,0,0,0,0,2.68c3.32,1.44,8.4-2.88,10.41-4.71A26.52,26.52,0,0,0,246.85,179.21Z"/>
            </g>
            <g>
              <path class="cls-3" d="M181.11,146.44a136.63,136.63,0,0,0,11.53,9.23,153.62,153.62,0,0,1,27.14,26.85c2.05,2.62,4.17,5.42,7.27,6.62,3.78,1.47,8.13.15,11.54-2.06a24.34,24.34,0,0,0,10-13.41,5.25,5.25,0,0,0,.07-3.7,5.89,5.89,0,0,0-1.64-1.84c-16.26-13.79-33.1-27.28-46-44.28a25,25,0,0,0-3.89-4.44,7.38,7.38,0,0,0-5.45-1.85,10,10,0,0,0-4.8,2.49c-4.55,3.67-9.49,8.4-12.36,13.58C172.16,138,178.14,143.6,181.11,146.44Z"/>
              <path class="cls-7" d="M195,126a10.5,10.5,0,0,0,1.06-7.42,6.77,6.77,0,0,0-4.31-1.06,10,10,0,0,0-4.8,2.49c-4.55,3.67-9.49,8.4-12.36,13.58a5.4,5.4,0,0,0,.15,5l.08,0a11.07,11.07,0,0,0,6.47-1C186.94,135.39,192.21,131.51,195,126Z"/>
              <path class="cls-7" d="M234.8,185.72c-2.14,1.53-4.46,3.17-7.12,3.61,3.63,1.11,7.69-.16,10.91-2.25a24.34,24.34,0,0,0,10-13.41,5.25,5.25,0,0,0,.07-3.7,5.89,5.89,0,0,0-1.64-1.84l-.9-.76a22.3,22.3,0,0,1-1.75,8.61C242.41,180.14,238.56,183.06,234.8,185.72Z"/>
              <path class="cls-4" d="M243.88,179.87c.26.37.55.89.87,1.43a24.25,24.25,0,0,0,3.84-7.63,5.25,5.25,0,0,0,.07-3.7,5.89,5.89,0,0,0-1.64-1.84c-16.26-13.79-33.1-27.28-46-44.28a25,25,0,0,0-3.89-4.44,7.38,7.38,0,0,0-5.45-1.85,9.1,9.1,0,0,0-4.33,2.13c.22.4.46.78.72,1.16A62.66,62.66,0,0,0,192.3,126c3.76,4.3,7.53,8.61,11.5,12.72,3.65,3.79,7.47,7.4,11.32,11,6.81,6.33,13.74,12.56,20,19.42A109.69,109.69,0,0,1,243.88,179.87Z"/>
              <path class="cls-4" d="M248.59,173.67a5.25,5.25,0,0,0,.07-3.7,5.89,5.89,0,0,0-1.64-1.84c-16.26-13.79-33.1-27.28-46-44.28a25,25,0,0,0-3.89-4.44,7.38,7.38,0,0,0-5.45-1.85.45.45,0,0,0-.11,0c4,4.24,7,9.34,10.5,14a99.68,99.68,0,0,0,12,12.9c7.68,7.08,16,13.4,23.62,20.57a101.76,101.76,0,0,1,10,10.92A23.1,23.1,0,0,0,248.59,173.67Z"/>
              <path class="cls-5" d="M175.11,139.42c1.52,2.75,4.27,5.36,6,7a136.63,136.63,0,0,0,11.53,9.23,153.62,153.62,0,0,1,27.14,26.85c2.05,2.62,4.17,5.42,7.27,6.62a2.77,2.77,0,0,0,.41.12,28.18,28.18,0,0,1-2.3-1.92,89.49,89.49,0,0,1-8.2-9.2,178.14,178.14,0,0,0-26-25.5C185.57,148.35,179.91,144.3,175.11,139.42Z"/>
              <path class="cls-6" d="M210.31,168.19a96.18,96.18,0,0,0,10.91,10.55c.59.46,1.54.87,2,.27a1.42,1.42,0,0,0,0-1.34,18.33,18.33,0,0,0-2.36-4.12,53,53,0,0,0-4.8-5.46,279.18,279.18,0,0,0-25.8-23.43,42.5,42.5,0,0,0-4.87-3.5c-.91-.53-2.15-1.12-3.13-.42s-.71,1.46-.12,2.22a15.42,15.42,0,0,0,3.26,2.44c1.25.91,2.49,1.84,3.7,2.8a161.13,161.13,0,0,1,13.86,12.38C205.43,163.07,207.88,165.62,210.31,168.19Z"/>
              <path class="cls-8" d="M194.68,121.61a7.45,7.45,0,0,0,.5-3.41,6.4,6.4,0,0,0-3.46-.64,10,10,0,0,0-4.8,2.49c-4.55,3.67-9.49,8.4-12.36,13.58a4.45,4.45,0,0,0-.54,2.08,1.81,1.81,0,0,0,.41.23c3.43,1.28,8-1.24,10.77-3.07C189.34,130.09,193,126.3,194.68,121.61Z"/>
            </g>
            <g>
              <path class="cls-3" d="M124.51,92.12c4.06,4,8.75,7.28,13.18,10.85A130.19,130.19,0,0,1,161,127.39c2.48,3.37,5.06,7.08,9,8.48a11.82,11.82,0,0,0,4.65.61A18.12,18.12,0,0,0,186.27,131a27.84,27.84,0,0,0,6.54-11.17c.73-2.23,1.23-4.71.28-6.85-.83-1.87-2.61-3.11-4.29-4.29-15.48-10.82-28.86-24.33-41.75-38.14A33.21,33.21,0,0,0,140.91,65a11,11,0,0,0-7.9-1.9c-2.8.53-5.11,2.45-7.15,4.44-2.85,2.76-8.69,7.64-9.22,11.89C116.08,83.87,121.66,89.33,124.51,92.12Z"/>
              <path class="cls-7" d="M139,63.94a10.2,10.2,0,0,0-6-.86c-2.8.53-5.11,2.45-7.15,4.44-2.85,2.76-8.69,7.64-9.22,11.89a7.38,7.38,0,0,0,.89,4.11,12.08,12.08,0,0,0,5.69-1.36,33.07,33.07,0,0,0,13.35-11.43A12.21,12.21,0,0,0,139,63.94Z"/>
              <path class="cls-7" d="M188.57,123.68A23.14,23.14,0,0,1,176.5,135a16,16,0,0,1-5.63,1.16,12.35,12.35,0,0,0,3.83.37A18.12,18.12,0,0,0,186.27,131a27.84,27.84,0,0,0,6.54-11.17c.73-2.23,1.23-4.71.28-6.85a8.3,8.3,0,0,0-2.62-3.07A23,23,0,0,1,188.57,123.68Z"/>
              <path class="cls-4" d="M189.16,127.47a30.72,30.72,0,0,0,3.65-7.62c.73-2.23,1.23-4.71.28-6.85-.83-1.87-2.61-3.11-4.29-4.29-15.48-10.82-28.86-24.33-41.75-38.14A33.21,33.21,0,0,0,140.91,65a11,11,0,0,0-7.9-1.9,9.43,9.43,0,0,0-2.73,1,60.2,60.2,0,0,1,6.87,7c2,2.45,3.6,5.16,5.4,7.75a102.79,102.79,0,0,0,12.58,14.59c8.14,8,17.07,15.19,25,23.39q3,3,5.71,6.3C187.05,124.47,188.08,126,189.16,127.47Z"/>
              <path class="cls-4" d="M147.05,70.57A33.21,33.21,0,0,0,140.91,65a11.29,11.29,0,0,0-7.54-2l.27.22A64.75,64.75,0,0,1,144,72.83c3,3.46,5.64,7.23,8.5,10.81A104.74,104.74,0,0,0,166.31,97.9c2.64,2.24,5.38,4.35,8.13,6.46A147.82,147.82,0,0,1,188.53,116a59.11,59.11,0,0,1,4.08,4.44c.07-.19.14-.38.2-.57.73-2.23,1.23-4.71.28-6.85-.83-1.87-2.61-3.11-4.29-4.29C173.32,97.89,159.94,84.38,147.05,70.57Z"/>
              <path class="cls-5" d="M131.69,96.88a126.35,126.35,0,0,1-14-12.93c1.68,3.19,4.84,6.28,6.77,8.17,4.06,4,8.75,7.28,13.18,10.85A130.19,130.19,0,0,1,161,127.39c2.48,3.37,5.06,7.08,9,8.48a7.53,7.53,0,0,0,.81.24c-.83-.55-1.74-1.05-2.15-1.4a57.2,57.2,0,0,1-7.82-8.91q-4.09-5.3-8.52-10.31a105.94,105.94,0,0,0-10.26-10.39C138.76,102.21,135.15,99.64,131.69,96.88Z"/>
              <path class="cls-6" d="M133.76,95.67a266.65,266.65,0,0,1,32.29,30.57,7.31,7.31,0,0,0,1.91,1.69,2.44,2.44,0,0,0,2.45,0,2.41,2.41,0,0,0,.8-2.55,6.71,6.71,0,0,0-1.38-2.47c-6.47-8.42-14.29-15.69-22.19-22.79-3.85-3.47-7.74-6.91-11.9-10A33,33,0,0,0,128.8,86c-1.08-.45-3-1-4.09-.29-1.43,1,.19,2.27,1,3.1A86.89,86.89,0,0,0,133.76,95.67Z"/>
              <path class="cls-8" d="M137.87,63.51a9.6,9.6,0,0,0-4.86-.43c-2.8.53-5.11,2.45-7.15,4.44-2.85,2.76-8.69,7.64-9.22,11.89a5.23,5.23,0,0,0,0,1.31,7.66,7.66,0,0,0,4.21-.46A32.8,32.8,0,0,0,135.39,70a11.79,11.79,0,0,0,2.25-3.83A6,6,0,0,0,137.87,63.51Z"/>
            </g>
            <g>
              <path class="cls-3" d="M96.68,64.18a72,72,0,0,1,9.23,10.37,38.47,38.47,0,0,0,3.57,4.91,7.64,7.64,0,0,0,5.29,2.63,9.66,9.66,0,0,0,4.33-1.31,47.24,47.24,0,0,0,16.56-13.87c1.37-1.82,2.65-4.13,1.87-6.26a7.62,7.62,0,0,0-2.49-3c-15-12.64-28.19-27.24-43.13-39.91-2-1.69-4.43-3.46-7-3a8.52,8.52,0,0,0-3.08,1.51A81,81,0,0,0,69.58,26.64c-1.89,1.93-5.41,5.59-3.9,8.48.87,1.66,3.61,3.29,5,4.55,1.77,1.6,3.53,3.2,5.28,4.82Q86.49,54.16,96.68,64.18Z"/>
              <path class="cls-7" d="M135.66,66.91c1.37-1.82,2.65-4.13,1.87-6.26a7.62,7.62,0,0,0-2.49-3c-.33-.27-.64-.56-1-.84a12.39,12.39,0,0,1-1.66,8.72,31.08,31.08,0,0,1-6.59,7.34,41.13,41.13,0,0,1-10.58,7.3,9.37,9.37,0,0,1-3.84.79,6.51,6.51,0,0,0,3.37,1.09,9.66,9.66,0,0,0,4.33-1.31A47.24,47.24,0,0,0,135.66,66.91Z"/>
              <path class="cls-4" d="M124.36,61.66c2.67,3.12,5.15,6.35,7.5,9.71a47.57,47.57,0,0,0,3.8-4.46c1.37-1.82,2.65-4.13,1.87-6.26a7.62,7.62,0,0,0-2.49-3c-15-12.64-28.19-27.24-43.13-39.91-2-1.69-4.43-3.46-7-3a8.52,8.52,0,0,0-3.08,1.51c-1,.66-1.91,1.35-2.84,2.05q12.84,12,25.83,23.79c4.76,4.35,9.53,8.7,14,13.36Q121.66,58.52,124.36,61.66Z"/>
              <path class="cls-4" d="M91.91,17.78c-2-1.69-4.43-3.46-7-3a7,7,0,0,0-2.44,1.09c1.31.79,2.7,1.48,4,2.28a48.56,48.56,0,0,1,7.79,6.31q5.67,5.31,11.25,10.73,9.81,9.54,19.3,19.4,4.78,5,9.49,10c.42.45,1,1.23,1.55,2,1.29-1.78,2.41-4,1.67-6a7.62,7.62,0,0,0-2.49-3C120.07,45.05,106.85,30.45,91.91,17.78Z"/>
              <path class="cls-5" d="M65.68,35.12c.87,1.66,3.61,3.29,5,4.55,1.77,1.6,3.53,3.2,5.28,4.82q10.53,9.67,20.72,19.69a72,72,0,0,1,9.23,10.37,38.47,38.47,0,0,0,3.57,4.91,8.73,8.73,0,0,0,3.51,2.3,14.32,14.32,0,0,1-2.23-2A80.06,80.06,0,0,1,105.85,73,101.82,101.82,0,0,0,94.53,60.29Q80.37,46.18,65.37,32.94A3.38,3.38,0,0,0,65.68,35.12Z"/>
              <path class="cls-6" d="M82.79,45.28A148.74,148.74,0,0,1,93.94,56.59L103.51,67c2.08,2.28,4.25,4.61,7.08,5.84a1.4,1.4,0,0,0,.6.15,1,1,0,0,0,.9-1.09,2.78,2.78,0,0,0-.55-1.45c-2.19-3.51-5.22-6.4-8.14-9.33-8.58-8.6-16.56-17.89-26.19-25.31A7,7,0,0,0,75,34.52c-1.23-.35-3,.17-2.91,1.72,0,1.21,1.61,1.84,2.48,2.49C77.36,40.82,80.15,43,82.79,45.28Z"/>
              <path class="cls-7" d="M87,14.88a5,5,0,0,0-2.08-.06,8.52,8.52,0,0,0-3.08,1.51A81,81,0,0,0,69.58,26.64C68,28.22,65.39,31,65.32,33.49c2.17,1.12,6.16-3.83,7.63-5.11,4.1-3.56,8.21-7.12,12.08-10.95A8.49,8.49,0,0,0,87,14.88Z"/>
              <path class="cls-8" d="M69.5,29.48a1.64,1.64,0,0,0,.72-.22,14.32,14.32,0,0,0,2.63-1.88c2-1.68,4-3.41,5.92-5.17a11.44,11.44,0,0,0,2.78-3.31.59.59,0,0,0,.06-.57.44.44,0,0,0-.56-.11,1.27,1.27,0,0,0-.43.46c-1.87,2.71-4.1,5.32-7.09,6.69-.88.41-1.8.7-2.63,1.18C70.42,26.83,67.75,29.5,69.5,29.48Z"/>
            </g>
          </g>
          <g>
            <g>
              <path class="cls-10" d="M146,210.07c6.08,4.67,11.49,10.19,17.73,14.66,9.6,6.87,21.52,11.13,33.22,9.56,5-.67,9.89-2.39,14.94-2.92-8.61-8.39-17.51-16.59-27.63-23.08s-21.6-11.23-33.59-12.09c-3.41-.25-6.84-.18-10.25-.09a34.15,34.15,0,0,0-9.34,1.14c-2,.63-7,2.4-3.46,4.08,2.93,1.39,6.51,1.62,9.54,3.12A53.71,53.71,0,0,1,146,210.07Z"/>
              <g class="cls-13">
                <path class="cls-11" d="M202.92,234.25c-42.25-34-73.75-34.47-74.06-34.47,0,0,32.41-1.16,75.11,33.17Z"/>
              </g>
              <path class="cls-12" d="M194.3,234.54l-1.42-.15a57.36,57.36,0,0,1-27.09-10c-9.26-6.57-16.53-16.19-27.07-20.4a47.17,47.17,0,0,0-8.35-2.31,15,15,0,0,0-2.9-.43l.18.1c2.93,1.39,6.51,1.62,9.54,3.12a53.71,53.71,0,0,1,8.84,5.62c6.08,4.67,11.49,10.19,17.73,14.66C172.63,231.08,183.48,235.18,194.3,234.54Z"/>
              <path class="cls-11" d="M209.34,228.88c-7.81-7.51-15.94-14.75-25.05-20.59-10.13-6.49-21.6-11.23-33.59-12.09-3.41-.25-6.84-.18-10.25-.09a39.15,39.15,0,0,0-8.15.84c.84.05,1.68.1,2.52.17a123.09,123.09,0,0,1,13.08,2.2,52.27,52.27,0,0,1,7.19,1.84,50,50,0,0,1,10.5,5.83,180.28,180.28,0,0,1,16.88,12.4c5.53,4.71,10.61,10,16.21,14.6,4-.7,7.88-1.83,11.86-2.4C210.17,230.67,209.77,229.77,209.34,228.88Z"/>
            </g>
            <path class="cls-11" d="M184.29,208.29a79.07,79.07,0,0,0-24.64-10.73,6.74,6.74,0,0,0,.27,1.1c1.88,5.35,5.89,9.94,10.09,13.62,5.07,4.43,10.88,7.92,16.32,11.89a113.84,113.84,0,0,1,11.78,9.92c3-.49,6-1.25,8.94-1.89a19,19,0,0,0-2.1-5.64c-.65-1.25-1.34-2.48-2-3.7A142.74,142.74,0,0,0,184.29,208.29Z"/>
            <path class="cls-11" d="M203.19,231.87a24.61,24.61,0,0,0-4.6-9.34,107.74,107.74,0,0,0-9.06-10.63c-1.71-1.25-3.45-2.46-5.24-3.61A80.06,80.06,0,0,0,161.14,198a17.3,17.3,0,0,0,2.32,4.65c5.3,7.72,13.45,12.89,20.84,18.64,4.82,3.75,9.38,7.81,14,11.82.32.28.63.55,1,.82,1.37-.26,2.75-.55,4.12-.87C203.32,232.64,203.26,232.25,203.19,231.87Z"/>
            <g>
              <path class="cls-3" d="M214.55,251.77c1.36,3.18,4.2,5.44,6.93,7.56,7.76,6,15.58,12.05,22,19.49a47.6,47.6,0,0,0,5.46,5.88,11.06,11.06,0,0,0,7.33,2.85c3.36-.15,6.23-2.37,8.75-4.59,3.89-3.4,7.69-7.25,9.31-12.15a5.69,5.69,0,0,0,.21-3.68,6.9,6.9,0,0,0-2.57-2.88,212,212,0,0,1-27.11-24.94c-3.4-3.72-7.22-7.85-12.25-8.2-5.6-.38-10.23,4-14.07,8.14S212.66,246,214.55,251.77Z"/>
              <path class="cls-7" d="M232.59,231.11c-5.6-.38-10.23,4-14.07,8.14s-5.86,6.72-4,12.52c.08.19.18.36.27.53a12.39,12.39,0,0,0,5.79-1.53,32.91,32.91,0,0,0,11.22-10.29,13.66,13.66,0,0,0,2.79-6.37,6.92,6.92,0,0,0-.28-2.71A11.21,11.21,0,0,0,232.59,231.11Z"/>
              <path class="cls-4" d="M244.84,239.31c-3.4-3.72-7.22-7.85-12.25-8.2a11.06,11.06,0,0,0-1.63,0q1.23,3.38,2.45,6.76a29.93,29.93,0,0,0,2.08,4.83,27.07,27.07,0,0,0,4.61,5.59c8.82,8.8,18.86,16.4,26.82,26a25.69,25.69,0,0,1,2.74,4.1,22.06,22.06,0,0,0,4.65-7.6,5.69,5.69,0,0,0,.21-3.68,6.9,6.9,0,0,0-2.57-2.88A212,212,0,0,1,244.84,239.31Z"/>
              <path class="cls-4" d="M273.81,272.06c.18-.42.35-.83.5-1.25a5.69,5.69,0,0,0,.21-3.68,6.9,6.9,0,0,0-2.57-2.88,212,212,0,0,1-27.11-24.94c-3.23-3.53-6.85-7.4-11.52-8.08a146.71,146.71,0,0,0,15,16.73c2.29,2.11,4.69,4.09,7.08,6.1,4.38,3.69,8.7,7.48,12.71,11.58,2,2,3.92,4.16,5.72,6.38Z"/>
              <path class="cls-5" d="M214.52,251.67l0,.1c1.36,3.18,4.2,5.44,6.93,7.56,7.76,6,15.58,12.05,22,19.49a47.6,47.6,0,0,0,5.46,5.88,12,12,0,0,0,5.89,2.77,43.13,43.13,0,0,1-7.19-5.94c-3.07-3.21-5.85-6.69-9-9.85C231.3,264.25,222.07,258.79,214.52,251.67Z"/>
              <path class="cls-6" d="M239,267.69c2.08,1.91,4,4,6,6a60,60,0,0,0,10.62,8.14c.47.28,1.09.56,1.54.24.6-.44.23-1.37-.2-2a95,95,0,0,0-10.59-11.92c-5.49-5.48-11.25-11-18.47-13.84a5.6,5.6,0,0,0-2.4-.51,2,2,0,0,0-1.66,3.18c.77,1.2,3,1.95,4.17,2.68A75.17,75.17,0,0,1,239,267.69Z"/>
              <path class="cls-8" d="M231.53,236.28a5.52,5.52,0,0,0,.51-4,3.18,3.18,0,0,0-.73-1.16c-5,.3-9.25,4.35-12.79,8.13-3.26,3.48-5.18,5.88-4.57,10a6.17,6.17,0,0,0,1.23.21c3.94.29,7.57-2.49,10.25-5.06A26.38,26.38,0,0,0,231.53,236.28Z"/>
            </g>
            <g>
              <path class="cls-3" d="M162.49,199.77a28.94,28.94,0,0,0,5.94,6.42c12.45,10.9,25.81,21.06,35.69,34.32,1.93,2.58,3.94,5.44,7,6.36,3.83,1.13,7.76-1.16,11-3.43,4.55-3.13,9.29-6.85,10.65-12.2a6,6,0,0,0,.15-2.65c-.35-1.6-1.64-2.79-2.87-3.87a621.13,621.13,0,0,1-45.86-44.93,10.88,10.88,0,0,0-3.53-2.89c-3.16-1.33-6.71.59-9.35,2.76C165.51,184.47,157.67,191.87,162.49,199.77Z"/>
              <path class="cls-7" d="M228.82,234.94c-2.48,3.68-6.37,6.18-10.39,8.08-2.86,1.35-6,2.52-9.26,2.15-.37,0-.82-.13-1.29-.22a8.6,8.6,0,0,0,3.27,1.92c3.83,1.13,7.76-1.16,11-3.43,4.55-3.13,9.29-6.85,10.65-12.2a6,6,0,0,0,.15-2.65,6.31,6.31,0,0,0-2-3.08A13.15,13.15,0,0,1,228.82,234.94Z"/>
              <path class="cls-7" d="M180.66,176.88c-3.14-1.27-6.66.63-9.28,2.78-5.29,4.33-12.14,10.77-9.93,17.78a9.11,9.11,0,0,0,2-.34,16.44,16.44,0,0,0,5.71-3.44,52.19,52.19,0,0,0,5.35-4.95,31.86,31.86,0,0,0,5.05-7.43A9,9,0,0,0,180.66,176.88Z"/>
              <path class="cls-4" d="M226.93,239.56a1.74,1.74,0,0,1,.1.19c2.7-2.35,4.94-5.1,5.81-8.51a6,6,0,0,0,.15-2.65c-.35-1.6-1.64-2.79-2.87-3.87a621.13,621.13,0,0,1-45.86-44.93,10.88,10.88,0,0,0-3.53-2.89,6.6,6.6,0,0,0-4.92.09,7.87,7.87,0,0,0-.18,2.27c.31,4.84,3.94,8.73,7.36,12.17l25.27,25.39c2.51,2.53,5,5.06,7.44,7.69A76.81,76.81,0,0,1,226.93,239.56Z"/>
              <path class="cls-4" d="M184.26,179.79a10.88,10.88,0,0,0-3.53-2.89,5.93,5.93,0,0,0-3.43-.31,51.8,51.8,0,0,0,8,10.78c4.07,4.47,8.35,8.74,12.72,12.92,7.69,7.36,15.64,14.46,23.16,22,3.7,3.71,7.3,7.53,10.7,11.53a12.69,12.69,0,0,0,1-2.57,6,6,0,0,0,.15-2.65c-.35-1.6-1.64-2.79-2.87-3.87A621.13,621.13,0,0,1,184.26,179.79Z"/>
              <path class="cls-5" d="M161.5,197.6a10.69,10.69,0,0,0,1,2.17,28.94,28.94,0,0,0,5.94,6.42c12.45,10.9,25.81,21.06,35.69,34.32,1.93,2.58,3.94,5.44,7,6.36a7.89,7.89,0,0,0,1.5.27,28.55,28.55,0,0,1-5.77-4.57c-2.54-2.82-4.68-6-7-9-7.22-9.29-16.43-16.81-25.54-24.26A109.07,109.07,0,0,1,161.5,197.6Z"/>
              <path class="cls-6" d="M188.57,218.24c5.37,5.59,10.18,11.78,16.31,16.52,1.49,1.16,3.39,2.27,5.17,1.64-2.82-6.19-8-10.88-12.78-15.76-7.67-7.89-14.56-16.83-23.94-22.59a3.19,3.19,0,0,0-2.65-.65c-5.44,2,4.64,8.67,6,9.86C180.82,210.75,184.84,214.36,188.57,218.24Z"/>
              <path class="cls-8" d="M171.38,179.66c-4.62,3.79-10.43,9.18-10.36,15.15a7.42,7.42,0,0,0,1.75-.61,36.51,36.51,0,0,0,16.1-14.64,5.66,5.66,0,0,0,.95-2.93C176.91,176,173.77,177.7,171.38,179.66Z"/>
            </g>
            <g>
              <path class="cls-3" d="M95.72,135.62a23.2,23.2,0,0,0,4.89,5.35c5.2,4.6,10.46,9.14,15.61,13.78q18,16.23,34.29,34.18a16.19,16.19,0,0,0,3.5,3.17c2.8,1.68,6.44,1.46,9.43.14a25.7,25.7,0,0,0,7.75-5.9c3.79-3.87,7.4-8.29,8.51-13.6a4.28,4.28,0,0,0,0-2.3,4.44,4.44,0,0,0-1.22-1.64,74.59,74.59,0,0,0-8.63-6.67c-10.51-7.54-19.92-16.47-29.3-25.36Q129.22,126,117.87,115.25A10.8,10.8,0,0,0,115,113.1c-3-1.34-6.42.28-9.14,2.09C99.75,119.26,91,127.56,95.72,135.62Z"/>
              <path class="cls-7" d="M179.69,170.44a4.44,4.44,0,0,0-1.22-1.64c-.36-.35-.75-.67-1.12-1a16.18,16.18,0,0,1-.18,7c-1.25,4.76-4.87,8.5-8.54,11.78-2.67,2.4-5.55,4.73-9,5.77a9.31,9.31,0,0,1-4.79.22,10.82,10.82,0,0,0,8.58-.29,25.7,25.7,0,0,0,7.75-5.9c3.79-3.87,7.4-8.29,8.51-13.6A4.28,4.28,0,0,0,179.69,170.44Z"/>
              <path class="cls-7" d="M112.85,121.25a14,14,0,0,0,2.76-5.56,7.85,7.85,0,0,0,.1-2.22,5.7,5.7,0,0,0-.69-.37c-3-1.34-6.42.28-9.14,2.09-5.47,3.63-13,10.64-11.22,17.83a9.26,9.26,0,0,0,2.06-.4A32.24,32.24,0,0,0,112.85,121.25Z"/>
              <path class="cls-4" d="M174.21,182.76l.1.14a23.74,23.74,0,0,0,5.39-10.16,4.28,4.28,0,0,0,0-2.3,4.44,4.44,0,0,0-1.22-1.64,74.59,74.59,0,0,0-8.63-6.67c-10.51-7.54-19.92-16.47-29.3-25.36Q129.22,126,117.87,115.25A10.64,10.64,0,0,0,115,113.1c-2.57-1.15-5.47-.11-8,1.35a15.1,15.1,0,0,0,1.33,2.47c15.16,23.64,41.48,37.64,60.14,58.63A69.32,69.32,0,0,1,174.21,182.76Z"/>
              <path class="cls-4" d="M169.84,162.13c-10.51-7.54-19.92-16.47-29.3-25.36Q129.22,126,117.87,115.25A10.64,10.64,0,0,0,115,113.1a6.1,6.1,0,0,0-3.63-.37,12.14,12.14,0,0,0,2.14,3,388.78,388.78,0,0,0,41.12,40.15c3,2.49,5.95,4.94,8.9,7.44a126.57,126.57,0,0,1,14.51,13.94,19.25,19.25,0,0,0,1.64-4.56,4.28,4.28,0,0,0,0-2.3,4.44,4.44,0,0,0-1.22-1.64A74.59,74.59,0,0,0,169.84,162.13Z"/>
              <path class="cls-5" d="M101,139.08c-2.07-1.78-4.17-3.56-6.12-5.48a9.65,9.65,0,0,0,.89,2,23.2,23.2,0,0,0,4.89,5.35c5.2,4.6,10.46,9.14,15.61,13.78q18,16.23,34.29,34.18a16.19,16.19,0,0,0,3.5,3.17,8,8,0,0,0,2.48,1c-1-.91-2.56-1.76-3.11-2.24-4.46-3.94-7.93-8.82-11.84-13.26-2.45-2.78-5.09-5.39-7.73-8C123.14,159.1,112.28,148.83,101,139.08Z"/>
              <path class="cls-6" d="M141,174.16a52.81,52.81,0,0,0,7.9,7.28,2,2,0,0,0,1.5.48c1.09-.28.93-1.88.46-2.91a31.37,31.37,0,0,0-3-5.2,62.5,62.5,0,0,0-5.77-6.61c-5.76-6-11.53-12-17.53-17.76-4.91-4.72-10.11-9.36-16.37-12-.89-.38-2-.69-2.75-.11-2.63,2,2.55,5.31,3.69,6.31q4.05,3.54,8,7.17Q125,158,132.64,165.63,136.87,169.85,141,174.16Z"/>
              <path class="cls-8" d="M114,112.76c-2.72-.62-5.68.83-8.09,2.43-4.84,3.21-11.31,9.07-11.49,15.36a5.57,5.57,0,0,0,2.59.13,21.67,21.67,0,0,0,16.82-13.47,5.91,5.91,0,0,0,.41-3.91A4.41,4.41,0,0,0,114,112.76Z"/>
            </g>
            <g>
              <path class="cls-3" d="M41.44,80c15.12,13.27,28,28.9,41,44.22,2.18,2.55,4.58,5.24,7.85,6,3.89.93,7.83-1.09,11.24-3.2,4.44-2.76,8.81-5.86,11.81-10.13,1.53-2.17,2.69-4.9,1.94-7.44-.69-2.32-2.78-3.89-4.72-5.35C93,90.8,78.93,73.45,63.27,57.93c-1.59-1.58-3.34-3.22-5.54-3.65-3.23-.62-6.29,1.5-8.79,3.63a96,96,0,0,0-8.25,7.89c-1.74,1.86-4.69,5-4.45,7.81C36.47,76.19,39.68,78.42,41.44,80Z"/>
              <path class="cls-7" d="M115.28,109.45a6.57,6.57,0,0,0-1-2,24.78,24.78,0,0,1-6.36,11.68,35.34,35.34,0,0,1-14.79,8.87,16.37,16.37,0,0,1-5.57,1,9.33,9.33,0,0,0,2.74,1.2c3.89.93,7.83-1.09,11.24-3.2,4.44-2.76,8.81-5.86,11.81-10.13C114.87,114.72,116,112,115.28,109.45Z"/>
              <path class="cls-4" d="M110.56,104.1C93,90.8,78.93,73.45,63.27,57.93c-1.59-1.58-3.34-3.22-5.54-3.65-2.62-.5-5.12.8-7.31,2.45,7.26,6.39,12.26,14.9,18.35,22.42,9.62,11.89,22,21.26,32.53,32.29a83.83,83.83,0,0,1,6.59,7.63,20.45,20.45,0,0,1,1.39,2.32,26.7,26.7,0,0,0,4.06-4.5c1.53-2.17,2.69-4.9,1.94-7.44C114.59,107.13,112.5,105.56,110.56,104.1Z"/>
              <path class="cls-4" d="M110.56,104.1C93,90.8,78.93,73.45,63.27,57.93c-1.59-1.58-3.34-3.22-5.54-3.65a6.9,6.9,0,0,0-3.68.37c1.86,2,3.89,3.8,5.81,5.73,5.38,5.4,9.78,11.7,14.69,17.54A126.81,126.81,0,0,0,86.79,90.54c3,2.71,6.15,5.27,9.26,7.86,5.43,4.53,10.87,9.18,15.27,14.77.82,1,1.6,2.13,2.33,3.24,1.37-2.08,2.33-4.6,1.63-7S112.5,105.56,110.56,104.1Z"/>
              <path class="cls-5" d="M92.18,130.43a27.93,27.93,0,0,1-4.13-3,73.77,73.77,0,0,1-6.56-6.9c-14.18-16.33-28-33.37-45.13-46.46.56,2.36,3.43,4.41,5.08,5.85,15.12,13.27,28,28.9,41,44.22,2.18,2.55,4.58,5.24,7.85,6A8.69,8.69,0,0,0,92.18,130.43Z"/>
              <path class="cls-6" d="M60.72,92.12c8.7,8.76,16.35,18.55,25.46,26.86,1.34,1.22,3,2.49,4.74,2.21a1.64,1.64,0,0,0,1.1-.6c.47-.71-.07-1.65-.61-2.33-3.86-4.86-8.19-9.33-12.51-13.8L56,80.81c-2.88-3-6.12-6.14-10.24-6.54a1.68,1.68,0,0,0-.92.1c-1.08.56-.54,3,0,3.77,1.12,1.66,3.95,3.1,5.51,4.41Q55.74,87.1,60.72,92.12Z"/>
              <path class="cls-7" d="M57.36,54.25c-3.09-.4-6,1.61-8.42,3.66a96,96,0,0,0-8.25,7.89c-1.74,1.86-4.69,5-4.45,7.81a2.1,2.1,0,0,0,.06.24,7.28,7.28,0,0,0,1.06-.67,159,159,0,0,0,18-15.34C56.38,56.86,57.4,55.52,57.36,54.25Z"/>
              <path class="cls-8" d="M39.8,68.91a37.19,37.19,0,0,0,11.67-8.6,6.48,6.48,0,0,0,1.33-1.89c.25-.62.14-1.57-.53-1.64a1.28,1.28,0,0,0-.38,0,3.93,3.93,0,0,0-2.06,1.76c-.49.78-.84,1.65-1.33,2.43-1.24,2-3.3,3.33-5.29,4.59-.85.54-1.78,1-2.59,1.65-.33.24-.56.32-.74.7C39.81,68.13,39.85,68.87,39.8,68.91Z"/>
            </g>
            <path class="cls-9" d="M120.91,134.09a66.37,66.37,0,0,0-7.07-8.93,83.36,83.36,0,0,0-9.14-7.73L96.25,111a175.77,175.77,0,0,0-15.46-11C72.15,94.74,62.7,91.06,53.18,87.8c-1.73-.59-3.5-1.32-5.28-1.87,7.84,7.5,15.11,15.58,22.22,23.81,22.17,13,43.69,27.26,62.5,44.72A150.25,150.25,0,0,0,120.91,134.09Z"/>
            <path class="cls-9" d="M129.09,152.8c-3.16-12.05-10.77-22.56-19.94-31s-19.87-15-30.61-21.29a68.24,68.24,0,0,0-8-4.22A69.86,69.86,0,0,0,63,93.78c-3.41-1-6.82-2-10.23-3,10.44,10.6,20,22.1,29.64,33.44,2.18,2.55,4.58,5.24,7.85,6a9.39,9.39,0,0,0,4.12,0,9.24,9.24,0,0,0,.59,3.91A321,321,0,0,0,129.09,152.8Z"/>
            <g>
              <path class="cls-10" d="M17.76,90.42c11.5,3.72,19.85,13.39,28.8,21.52a132.91,132.91,0,0,0,41.13,25.43c13.32,5.17,27.87,8.39,38.87,17.53a19.64,19.64,0,0,0,4.68,3.3c1.77.73,4,.71,5.4-.63.39-.38.1-1.41-.25-1l-19.52-24.73a94.08,94.08,0,0,0-8.63-10A77,77,0,0,0,99,114.56C77.75,99.73,52.7,89,26.8,89.51,23.87,89.58,20.39,89.12,17.76,90.42Z"/>
              <path class="cls-11" d="M26.8,89.51c-.54,0-1.1,0-1.67,0,2.66.72,6.32.81,7.86,1.18,10.19,2.39,19.82,6.7,29,11.66,5.3,2.87,10.47,6,15.59,9.13,19,11.73,38.11,24.84,49.59,43.93a16,16,0,0,0,4.07,2.79c1.77.73,4,.71,5.4-.63.39-.39.1-1.41-.25-1l-19.52-24.73a94.08,94.08,0,0,0-8.63-10A77,77,0,0,0,99,114.56C77.75,99.73,52.7,89,26.8,89.51Z"/>
              <path class="cls-12" d="M119,149.26a110.52,110.52,0,0,0-10.76-5.15C87.08,135,65,126.75,47.63,111.64c-5.48-4.76-10.42-10.16-16.25-14.47A38.07,38.07,0,0,0,19.28,91C30,95,38,104.18,46.56,111.94a132.91,132.91,0,0,0,41.13,25.43c13.3,5.16,27.83,8.39,38.82,17.49C125.66,152.55,120.58,150.16,119,149.26Z"/>
              <path class="cls-11" d="M27,92.47c.3.11,30.36,10.28,55.25,25.67,23.36,14.45,36.68,27.5,49.08,40.09a6.23,6.23,0,0,0,2.76.43c-12.92-13.16-26.44-26.78-51-41.94C58.09,101.23,27,92.47,27,92.47Z"/>
            </g>
          </g>
          <path class="cls-9" d="M169.84,162.13c-10.51-7.54-19.92-16.47-29.3-25.36Q129.22,126,117.87,115.25a11.14,11.14,0,0,0-2.68-2.06,6.62,6.62,0,0,0,.09-3.74c-.69-2.32-2.78-3.89-4.72-5.35-12.32-9.31-22.89-20.6-33.5-31.87-3.68-.86-7.25-.49-4.7,4.42,2.86,5.5,7.35,10.15,11.56,14.62,11,11.69,22.35,23.12,33.65,34.56l87.81,88.86c12,12.15,24,24.32,37.08,35.35,9.6,8.13,19.85,15.74,27.55,25.69.29.38.6.76.92,1.15a20.47,20.47,0,0,0,3.38-6.07,5.69,5.69,0,0,0,.21-3.68,6.9,6.9,0,0,0-2.57-2.88,212,212,0,0,1-27.11-24.94c-3.34-3.65-7.09-7.68-12-8.15a5.74,5.74,0,0,0,.14-2.57c-.35-1.6-1.64-2.79-2.87-3.87a621.13,621.13,0,0,1-45.86-44.93,10.88,10.88,0,0,0-3.53-2.89,5.59,5.59,0,0,0-2.26-.42,18.62,18.62,0,0,0,1.23-3.74,4.28,4.28,0,0,0,0-2.3,4.44,4.44,0,0,0-1.22-1.64A74.59,74.59,0,0,0,169.84,162.13Z"/>
          <path class="cls-9" d="M169.84,162.13c-10.51-7.54-19.92-16.47-29.3-25.36Q129.22,126,117.87,115.25a11.14,11.14,0,0,0-2.68-2.06,6.62,6.62,0,0,0,.09-3.74c-.69-2.32-2.78-3.89-4.72-5.35-11.74-8.88-21.9-19.56-32-30.3a4.69,4.69,0,0,0-2.34,1.09c-2.94,2.94,1.22,7,3.17,9,14,14.41,28.2,28.67,42.38,42.92Q164,169.23,206.9,211.08q24.3,23.7,48.79,47.22c5.35,5.12,10.73,10.28,15.05,16.29l.93,1.33a19.67,19.67,0,0,0,2.64-5.11,5.69,5.69,0,0,0,.21-3.68,6.9,6.9,0,0,0-2.57-2.88,212,212,0,0,1-27.11-24.94c-3.34-3.65-7.09-7.68-12-8.15a5.74,5.74,0,0,0,.14-2.57c-.35-1.6-1.64-2.79-2.87-3.87a621.13,621.13,0,0,1-45.86-44.93,10.88,10.88,0,0,0-3.53-2.89,5.59,5.59,0,0,0-2.26-.42,18.62,18.62,0,0,0,1.23-3.74,4.28,4.28,0,0,0,0-2.3,4.44,4.44,0,0,0-1.22-1.64A74.59,74.59,0,0,0,169.84,162.13Z"/>
          <path class="cls-9" d="M157.75,103.06c-6.61-6.12-14.1-11.22-21-17-9.51-8.09-17.78-17.53-27.54-25.34-3-2.37-10.61-9.54-14.61-9-2.4.34-4.1,2.76-5.19,5.48,2.42,2.32,4.85,4.64,7.24,7a72,72,0,0,1,9.23,10.37,38.47,38.47,0,0,0,3.57,4.91,7.64,7.64,0,0,0,5.29,2.63,7,7,0,0,0,2.08-.35c1,3.9,5.29,8.06,7.66,10.38,4.06,4,8.75,7.28,13.18,10.85A130.19,130.19,0,0,1,161,127.39c2.48,3.37,5.06,7.08,9,8.48a11.62,11.62,0,0,0,4,.62c.48,3.71,4.69,7.71,7,9.95a136.63,136.63,0,0,0,11.53,9.23,153.62,153.62,0,0,1,27.14,26.85c2.05,2.62,4.17,5.42,7.27,6.62a9.47,9.47,0,0,0,3.27.61c.05,4.35,4.8,8.37,7.74,10.76,7.14,5.83,14.79,11.06,21.48,17.41a173.46,173.46,0,0,1,12.65,13.89l6.17,7.28a15.27,15.27,0,0,0,4.62,4.16c3,1.49,6.76.82,9.63-.95a14.32,14.32,0,0,0,1.35-1L261.54,211c-9-8.38-17.9-16.77-26.15-25.83-6.65-7.3-12.85-15-20-21.8-6.81-6.38-14.46-11.84-21.19-18.31C180.78,132.18,171.35,115.66,157.75,103.06Z"/>
          <path class="cls-9" d="M131.1,83.22q-13.68-12.54-27.35-25.09c-3.59-3.29-6.33-8-11.61-6.51a13.35,13.35,0,0,0-5.31,3q5,4.73,9.85,9.52a72,72,0,0,1,9.23,10.37,38.47,38.47,0,0,0,3.57,4.91,7.64,7.64,0,0,0,5.29,2.63,7,7,0,0,0,2.08-.35c1,3.9,5.29,8.06,7.66,10.38,4.06,4,8.75,7.28,13.18,10.85A130.19,130.19,0,0,1,161,127.39c2.48,3.37,5.06,7.08,9,8.48a11.62,11.62,0,0,0,4,.62c.48,3.71,4.69,7.71,7,9.95a136.63,136.63,0,0,0,11.53,9.23,153.62,153.62,0,0,1,27.14,26.85c2.05,2.62,4.17,5.42,7.27,6.62a9.47,9.47,0,0,0,3.27.61c.05,4.35,4.8,8.37,7.74,10.76,7.14,5.83,14.79,11.06,21.48,17.41a173.46,173.46,0,0,1,12.65,13.89l6.17,7.28a15.27,15.27,0,0,0,4.62,4.16,9.46,9.46,0,0,0,7.42.12,19.53,19.53,0,0,0-1.63-1.77l-70.48-70.14c-5.26-5.23-10.52-10.46-16-15.48-6.32-5.79-12.91-11.3-18.86-17.47-6.86-7.13-12.81-15.08-19.29-22.56C154,104.23,142.53,93.71,131.1,83.22Z"/>
          <g>
            <g>
              <path class="cls-3" d="M243.71,244.39c.42,1.56,1.75,2.67,3,3.68a270,270,0,0,1,31.46,30c2.75,3.09,5.81,6.45,9.92,7a12.91,12.91,0,0,0,7.67-1.84,26.06,26.06,0,0,0,12.42-15.36,5.15,5.15,0,0,0,.12-3.48,5.83,5.83,0,0,0-1.66-2c-12-10.51-23.78-21.28-33.92-33.56-1.38-1.67-2.8-3.43-4.79-4.29-3.16-1.35-6.83-.06-9.79,1.68a33.86,33.86,0,0,0-10,8.92C246.43,237.46,242.87,241.26,243.71,244.39Z"/>
              <path class="cls-7" d="M266.47,224.35a2,2,0,0,0,0-.25c-2.78-.51-5.8.62-8.31,2.1a33.86,33.86,0,0,0-10,8.92c-1.75,2.34-5.31,6.14-4.47,9.27a4.18,4.18,0,0,0,.49,1.12,7.55,7.55,0,0,0,2.54-.16c3.34-.76,6.22-2.85,8.76-5.15a51,51,0,0,0,9-10.68A10.72,10.72,0,0,0,266.47,224.35Z"/>
              <path class="cls-7" d="M305.64,266.53a16.67,16.67,0,0,1-2.52,6.79,23.36,23.36,0,0,1-9.74,9.31A16,16,0,0,1,287,284.2,9.35,9.35,0,0,1,285,284a9.79,9.79,0,0,0,3.11,1,12.91,12.91,0,0,0,7.67-1.84,26.06,26.06,0,0,0,12.42-15.36,5.15,5.15,0,0,0,.12-3.48,5.83,5.83,0,0,0-1.66-2l-1.21-1.06.09.93A22.77,22.77,0,0,1,305.64,266.53Z"/>
              <path class="cls-4" d="M303.2,277.06a25.8,25.8,0,0,0,5-9.23,5.15,5.15,0,0,0,.12-3.48,5.83,5.83,0,0,0-1.66-2c-12-10.51-23.78-21.28-33.92-33.56-1.38-1.67-2.8-3.43-4.79-4.29-3-1.3-6.54-.15-9.44,1.49.32.25.64.5.94.77,4.78,4.31,6.58,11,10.23,16.28,4,5.73,9.93,9.68,15.31,14.09a95.66,95.66,0,0,1,14.1,14.28C300.53,273.25,301.88,275.14,303.2,277.06Z"/>
              <path class="cls-4" d="M308.18,267.83a5.15,5.15,0,0,0,.12-3.48,5.83,5.83,0,0,0-1.66-2c-12-10.51-23.78-21.28-33.92-33.56-1.38-1.67-2.8-3.43-4.79-4.29a8.18,8.18,0,0,0-5.31-.22C269.29,227.93,273,235.17,278,241c3.45,4.07,7.57,7.5,11.51,11.1a175.47,175.47,0,0,1,17.65,18.62A23.9,23.9,0,0,0,308.18,267.83Z"/>
              <path class="cls-5" d="M288.09,285a9.4,9.4,0,0,0,1.91,0c-1-.5-1.89-.95-2.2-1.15a50.15,50.15,0,0,1-5.75-4.28,106.32,106.32,0,0,1-8.52-8.85,183.16,183.16,0,0,0-26.89-24.19,16,16,0,0,0-2.7-1.67,8.93,8.93,0,0,0,2.77,3.14,270,270,0,0,1,31.46,30C280.92,281.12,284,284.48,288.09,285Z"/>
              <path class="cls-6" d="M264.58,258.17a105.21,105.21,0,0,1,11,10.88c3.51,4.05,6.92,8.52,11.83,10.64a5.68,5.68,0,0,0,2.57.58,2.53,2.53,0,0,0,2.17-1.31c.55-1.13-.08-2.46-.81-3.49-2.25-3.19-5.46-5.55-8.48-8-6.64-5.46-12.54-11.77-19.05-17.39a20.47,20.47,0,0,0-5.16-3.53,4.29,4.29,0,0,0-2.89-.37c-3.63,1.1,0,4.3,1.29,5.5C259.41,254,262.05,256,264.58,258.17Z"/>
              <path class="cls-8" d="M264.66,224a14.67,14.67,0,0,0-6.52,2.2,33.86,33.86,0,0,0-10,8.92c-1.45,1.94-4.1,4.87-4.51,7.6a10.19,10.19,0,0,0,4.34.1,13.15,13.15,0,0,0,4.11-1.95,35.43,35.43,0,0,0,10.95-11.41,11.14,11.14,0,0,0,1.61-4A5.46,5.46,0,0,0,264.66,224Z"/>
            </g>
            <g>
              <path class="cls-3" d="M192.79,193.39a10.52,10.52,0,0,0,3,4.59c11.67,12.38,25.8,22.41,36.39,35.72,2.72,3.41,5.6,7.29,9.88,8.11,3.5.66,7-.95,10-2.9a33.35,33.35,0,0,0,12.54-14.07,9.49,9.49,0,0,0,.92-3.19c.25-3.73-3-6.66-5.91-9-12.32-9.83-24.32-20.12-35-31.66-3.33-3.58-7.28-7.61-12.16-7.23-3.34.26-6.11,2.57-8.64,4.77C199.59,182.17,191.23,186.74,192.79,193.39Z"/>
              <path class="cls-7" d="M212.38,173.77c-3.34.26-6.11,2.57-8.64,4.77-4.15,3.63-12.51,8.2-11,14.85a5.21,5.21,0,0,0,.34,1,7.78,7.78,0,0,0,3.64-.43,38.63,38.63,0,0,0,15.11-9.17,19.47,19.47,0,0,0,4.88-7,11.93,11.93,0,0,0,.62-2.83A9.13,9.13,0,0,0,212.38,173.77Z"/>
              <path class="cls-7" d="M263,223.48a23.06,23.06,0,0,1-5.75,8.5,26.8,26.8,0,0,1-11,6.81,19.6,19.6,0,0,1-5.84.84c-.59,0-2.21-.42-3.5-.61a10.87,10.87,0,0,0,5.18,2.79c3.5.66,7-.95,10-2.9a33.35,33.35,0,0,0,12.54-14.07,9.49,9.49,0,0,0,.92-3.19,7.42,7.42,0,0,0-1.78-5A14.71,14.71,0,0,1,263,223.48Z"/>
              <path class="cls-4" d="M224.54,181c-3.33-3.58-7.28-7.61-12.16-7.23a8.67,8.67,0,0,0-2.37.53,7.61,7.61,0,0,0,.36,1.48c3.58,10.16,12,17.73,20,24.95,3,2.69,5.95,5.4,8.86,8.17A160.09,160.09,0,0,1,254,224.65c2,2.5,3.9,5.11,5.66,7.8a29.72,29.72,0,0,0,5-7.61,9.49,9.49,0,0,0,.92-3.19c.25-3.73-3-6.66-5.91-9C247.27,202.83,235.27,192.54,224.54,181Z"/>
              <path class="cls-4" d="M263.64,226.73c.34-.62.66-1.24.94-1.89a9.49,9.49,0,0,0,.92-3.19c.25-3.73-3-6.66-5.91-9-12.32-9.83-24.32-20.12-35-31.66-3.33-3.58-7.28-7.61-12.16-7.23a8.29,8.29,0,0,0-.87.13,44.1,44.1,0,0,0,8.35,10.55c3.9,3.88,8,7.55,12.15,11.17,7.35,6.42,14.87,12.67,21.73,19.63a111.82,111.82,0,0,1,9.37,10.69C263.28,226.16,263.46,226.44,263.64,226.73Z"/>
              <path class="cls-5" d="M193.53,195.16a15.81,15.81,0,0,0,2.23,2.82c11.67,12.38,25.8,22.41,36.39,35.72,2.34,2.93,4.8,6.2,8.17,7.58-.77-.63-1.62-1.21-1.92-1.5A82.39,82.39,0,0,1,230,230c-1.45-1.86-2.9-3.72-4.45-5.49A126.41,126.41,0,0,0,214,213.3Q203.76,204.23,193.53,195.16Z"/>
              <path class="cls-6" d="M227.76,223.83c3.27,3.77,6.51,7.79,11,10.06.51.26,1.26.43,1.54-.07a1,1,0,0,0,.05-.73,10.75,10.75,0,0,0-1.83-3.83,70.49,70.49,0,0,0-4.34-5.57,197.8,197.8,0,0,0-17.8-18.48,72.36,72.36,0,0,0-9.19-7.37c-.77-.5-2.61-2.14-3.63-1.44-.74.5-.5,1.9-.34,2.6.73,3.17,4.15,4.93,6.46,6.89q4.6,3.92,8.93,8.17Q223.35,218.76,227.76,223.83Z"/>
              <path class="cls-8" d="M212.38,173.77c-3.34.26-6.11,2.57-8.64,4.77-3.88,3.39-11.44,7.61-11.13,13.59,1.68.71,3.67.11,5.33-.63a37.29,37.29,0,0,0,14.84-12.1,8.74,8.74,0,0,0,1.93-4.27,4.73,4.73,0,0,0-.06-1.19A8.57,8.57,0,0,0,212.38,173.77Z"/>
            </g>
            <g>
              <path class="cls-3" d="M133.37,134.56c1.38,3.16,3.86,5.7,6.38,8.05,4.22,3.94,8.71,7.57,13,11.39,12,10.63,22.7,22.67,33.68,34.38a6.83,6.83,0,0,0,2.32,1.83,6.12,6.12,0,0,0,3,.21A28.35,28.35,0,0,0,213.12,176c1-1.83,1.79-3.91,1.37-6-.47-2.3-2.37-4-4.16-5.53q-16.19-13.84-31.59-28.57c-4.77-4.55-9.52-9.21-13.21-14.68-2.47-3.65-4.89-8-9.16-9.06-3.6-.9-7.3.88-10.39,2.93-4.09,2.72-7.46,6.16-11.09,9.42C131.9,127.23,131.74,130.85,133.37,134.56Z"/>
              <path class="cls-7" d="M155.78,112.11c-3.41-.59-6.88,1.08-9.8,3-4.09,2.72-7.46,6.16-11.09,9.42-2.56,2.3-3,5.28-2.1,8.41a7.61,7.61,0,0,0,3.28-.53A37.41,37.41,0,0,0,153,120.17C154.78,117.84,156.33,115,155.78,112.11Z"/>
              <path class="cls-7" d="M211.58,173a16.19,16.19,0,0,1-2.22,4,31.3,31.3,0,0,1-15.6,11.41,13.93,13.93,0,0,1-6.65.63,5.13,5.13,0,0,0,1.68,1.18,6.12,6.12,0,0,0,3,.21A28.35,28.35,0,0,0,213.12,176c1-1.83,1.79-3.91,1.37-6a7.77,7.77,0,0,0-2.25-3.78A16.43,16.43,0,0,1,211.58,173Z"/>
              <path class="cls-4" d="M210.71,179.66a27,27,0,0,0,2.41-3.67c1-1.83,1.79-3.91,1.37-6-.47-2.3-2.37-4-4.16-5.53q-16.19-13.84-31.59-28.57c-4.77-4.55-9.52-9.21-13.21-14.68-2.47-3.65-4.89-8-9.16-9.06a9.73,9.73,0,0,0-5.71.48c-.82,2.79.66,5.83,2.25,8.35a97.08,97.08,0,0,0,6.48,9.12c12.35,15.43,29,26.76,43.24,40.46,1.93,1.86,3.82,3.76,5.58,5.78C209.11,177.42,209.9,178.55,210.71,179.66Z"/>
              <path class="cls-4" d="M178.74,135.94c-4.77-4.55-9.52-9.21-13.21-14.68-2.47-3.65-4.89-8-9.16-9.06A8,8,0,0,0,154,112c0,.14,0,.29.08.42.89,3.36,2.88,6.3,4.88,9.15a144.79,144.79,0,0,0,11,14.15,125,125,0,0,0,11.8,11.21c7.39,6.27,15.23,12,22.49,18.45a109.1,109.1,0,0,1,9.48,9.39,7.81,7.81,0,0,0,.77-4.72c-.47-2.3-2.37-4-4.16-5.53Q194.15,150.67,178.74,135.94Z"/>
              <path class="cls-5" d="M175.62,175.16l-13.5-14.1c-2-2.13-4.05-4.25-6.22-6.23-7.19-6.61-15.93-11.8-22.05-19.28a28.05,28.05,0,0,0,5.9,7.06c4.22,3.94,8.71,7.57,13,11.39,12,10.63,22.7,22.67,33.68,34.38a6.83,6.83,0,0,0,2.32,1.83,1,1,0,0,0,.25.07,6.67,6.67,0,0,1-.65-.53,84.52,84.52,0,0,1-6.23-7.39C180.1,179.85,177.86,177.51,175.62,175.16Z"/>
              <path class="cls-6" d="M140.71,138c6.23,6.29,13.35,11.62,19.8,17.68,6.82,6.4,12.91,13.6,20.14,19.53a17,17,0,0,0,5.81,3.48,1.25,1.25,0,0,0,1,0,1.07,1.07,0,0,0,.38-.72c.32-1.64-.66-3.24-1.64-4.6-4.73-6.6-10.4-12.46-16.06-18.28-6.83-7-13.72-14.08-21.72-19.72a11.17,11.17,0,0,0-5.13-2.37c-1.37-.14-3.46.37-4.15,1.72S139.85,137.13,140.71,138Z"/>
              <path class="cls-8" d="M154.54,112.5c0-.17.05-.34.08-.51-3-.09-6.05,1.42-8.64,3.14-4.09,2.72-7.46,6.16-11.09,9.42a7.28,7.28,0,0,0-2.53,6c3.74.42,7.49-1.13,10.49-3.42a49.77,49.77,0,0,0,7.81-8.2C152.27,117,154,115,154.54,112.5Z"/>
            </g>
            <g>
              <path class="cls-3" d="M72.94,77C78,82.53,84.09,87,89.66,92.09c11.47,10.36,20.77,22.92,32,33.55,1.69,1.6,3.54,3.22,5.81,3.73a11.14,11.14,0,0,0,4.77-.19,30.64,30.64,0,0,0,19.56-13.89,11.29,11.29,0,0,0,1.87-5.05c.28-4.51-3.69-8-7.24-10.81a359.27,359.27,0,0,1-46.18-43.68c-2-2.28-4.45-4.79-7.49-4.67-2.13.09-4,1.47-5.59,2.85A101.82,101.82,0,0,0,74.88,66.22c-1.15,1.37-3.8,3.6-4.37,5.27C69.84,73.44,71.72,75.65,72.94,77Z"/>
              <path class="cls-7" d="M148.5,114.68c-2.63,5.17-7.57,8.86-12.91,11.11A25.41,25.41,0,0,1,125,127.94a6,6,0,0,0-.61,0,8.86,8.86,0,0,0,3.07,1.42,11.14,11.14,0,0,0,4.77-.19,30.64,30.64,0,0,0,19.56-13.89,11.29,11.29,0,0,0,1.87-5.05c.2-3.27-1.83-6-4.31-8.32A16.15,16.15,0,0,1,148.5,114.68Z"/>
              <path class="cls-4" d="M100.24,55.75c-2-2.28-4.45-4.79-7.49-4.67a8.36,8.36,0,0,0-4.66,2.09c.07.28.14.55.23.82,2.19,6.89,7.38,12.38,12.58,17.41,8.62,8.35,17.74,16.19,26.07,24.83a133.11,133.11,0,0,1,13.3,15.84,90.13,90.13,0,0,1,5.54,8.92l.48.91a30.09,30.09,0,0,0,5.5-6.61,11.29,11.29,0,0,0,1.87-5.05c.28-4.51-3.69-8-7.24-10.81A359.27,359.27,0,0,1,100.24,55.75Z"/>
              <path class="cls-4" d="M152.22,114.53a10.12,10.12,0,0,0,1.44-4.29c.28-4.51-3.69-8-7.24-10.81a359.27,359.27,0,0,1-46.18-43.68c-2-2.28-4.45-4.79-7.49-4.67a6,6,0,0,0-1.87.42l0,.07c14.3,22.39,38.56,36.31,56.18,56.2A61.59,61.59,0,0,1,152.22,114.53Z"/>
              <path class="cls-5" d="M95.55,96c-1.85-2-3.7-4-5.71-5.89-4-3.72-8.6-6.76-12.74-10.33-2.27-2-4.39-4.06-6.48-6.21A11.31,11.31,0,0,0,72.94,77C78,82.53,84.09,87,89.66,92.09c11.47,10.36,20.77,22.92,32,33.55,1.69,1.6,3.54,3.22,5.81,3.73a6.91,6.91,0,0,0,1.28.17,8.43,8.43,0,0,1-.91-.54q-1.76-1.25-3.41-2.63a125.14,125.14,0,0,1-11.88-11.83Z"/>
              <path class="cls-7" d="M92.75,51.08c-2.13.09-4,1.47-5.59,2.85A101.82,101.82,0,0,0,74.88,66.22c-1.15,1.37-3.8,3.6-4.37,5.27a2.55,2.55,0,0,0-.14.77c.14,0,.26,0,.42.06a5.27,5.27,0,0,0,2.91-.94c4.07-2.4,7.2-6.09,10.24-9.7l8.93-10.59Z"/>
              <path class="cls-6" d="M107.15,102.84c5.28,6,10.24,12.64,17.41,16.09a5.5,5.5,0,0,0,3.31.72,18.54,18.54,0,0,0-4-6.55c-2.46-2.91-5-5.7-7.64-8.49l-10-10.73c-3.07-3.32-6.14-6.63-9.42-9.73a37.32,37.32,0,0,0-10.55-7.54c-2.75-1.19-5.51.78-3.44,3.64a11.42,11.42,0,0,0,2.57,1.92c1.51,1.17,2.92,2.52,4.36,3.79A196.56,196.56,0,0,1,107.15,102.84Z"/>
              <path class="cls-8" d="M82.79,62c1.37-1.51,3.95-4.27,4.15-6.3-.17-.18-2.56,1.66-4.49,3.67-1,1.07-2.17,2-3.19,3.07s-2,2.11-2.87,3.22c-.58.71-2.1,2.07-1.91,3.06,1.26.08,3.31-2.05,4.27-2.84A40,40,0,0,0,82.79,62Z"/>
            </g>
            <path class="cls-9" d="M248.72,203.75c-6.43-5.43-12.68-11.07-18.62-17,.27.78.55,1.56.83,2.34q1.68,4.65,3.43,9.29a84.12,84.12,0,0,0,4.24,9.91,76,76,0,0,0,10.08,13.95c1.42,1.64,2.87,3.27,4.43,4.78a53.46,53.46,0,0,0,6.56,5.36,30.88,30.88,0,0,0,3.66-5.08,155.54,155.54,0,0,1-11.48-17.8C250.79,207.58,249.76,205.66,248.72,203.75Z"/>
            <path class="cls-9" d="M259.59,212.66c-8.65-6.9-17.13-14-25.14-21.67.4,1.41.79,2.82,1.19,4.24.65,2.33,1.31,4.67,2.19,6.93a58,58,0,0,0,4.33,8.49c4.76,8,10.58,15.67,17.88,21.28a29.21,29.21,0,0,0,4.54-7.09,13,13,0,0,0,.72-2q-1.95-4.54-4.24-8.94Q260.33,213.25,259.59,212.66Z"/>
            <g>
              <path class="cls-10" d="M215.36,153.82c6.69,4.87,11.1,12.31,14.19,20s5.06,15.77,8,23.52c7.86,20.89,23.25,39.32,43.51,48.68.12-5.3-3.89-9.45-6.76-13.91-5.58-8.66-7.34-19.17-11.23-28.71a106,106,0,0,0-7.7-14.8c-4.7-7.81-9.88-15.43-16.48-21.73S224.33,155.46,215.36,153.82Z"/>
              <path class="cls-11" d="M281,244.66c-.51-4.66-4.05-8.49-6.67-12.56-5.58-8.66-7.34-19.17-11.23-28.71a106,106,0,0,0-7.7-14.8c-4.7-7.81-9.88-15.43-16.48-21.73a62,62,0,0,0-6.73-5.57c.79.85,1.59,1.69,2.37,2.54a97,97,0,0,1,12.83,18.24C254,194,258.89,206.7,264.85,218.93,266.33,222,274.3,237.69,281,244.66Z"/>
              <path class="cls-12" d="M229.55,173.81c3.1,7.68,5.06,15.77,8,23.52C244.17,215,256.2,230.85,272,241c-.9-.65-1.78-1.3-2.59-2q-4.39-3.69-8.41-7.79A103.22,103.22,0,0,1,247.1,213.6a88.59,88.59,0,0,1-6-11.37c-3.63-8.34-5.93-17.21-9.33-25.65s-8.1-16.68-15.39-22.13a10.61,10.61,0,0,0-.93-.6l-.11,0C222.05,158.69,226.46,166.13,229.55,173.81Z"/>
              <path class="cls-11" d="M280.87,243.92c-11.4-11.49-18.16-25.54-28.35-47.87-11.76-25.75-27.41-37.33-27.57-37.44,0,0,14.47,12.78,26.05,38.14,10.41,22.79,17.27,37.05,29.14,48.81.3.15.6.31.9.45A10.29,10.29,0,0,0,280.87,243.92Z"/>
            </g>
          </g>
        </g>
      </g>
    </g>
  </g>
</svg>
