<svg xmlns="http://www.w3.org/2000/svg" xmlns:xlink="http://www.w3.org/1999/xlink" width="222.98" height="181.36" viewBox="0 0 222.98 181.36">
  <defs>
    <style>
      .cls-1 {
        isolation: isolate;
      }

      .cls-2 {
        fill: #050505;
      }

      .cls-2, .cls-7 {
        opacity: 0.5;
      }

      .cls-3 {
        fill: #fff;
      }

      .cls-4 {
        fill: #f4e9e4;
        stroke: #3a3a35;
        stroke-miterlimit: 10;
      }

      .cls-5 {
        opacity: 0.2;
      }

      .cls-5, .cls-7 {
        mix-blend-mode: multiply;
      }

      .cls-6 {
        fill: #dd8e65;
      }

      .cls-8 {
        fill: #c6b9b3;
      }

      .cls-9 {
        fill: url(#linear-gradient);
      }
    </style>
    <linearGradient id="linear-gradient" x1="172.86" y1="114.02" x2="137.27" y2="138.68" gradientUnits="userSpaceOnUse">
      <stop offset="0" stop-color="#c95b3c"/>
      <stop offset="0.13" stop-color="#dd8e65"/>
      <stop offset="0.31" stop-color="#e6baa8"/>
      <stop offset="0.31" stop-color="#e7bcaa"/>
      <stop offset="0.37" stop-color="#ecccbe"/>
      <stop offset="0.43" stop-color="#f0d6cb"/>
      <stop offset="0.48" stop-color="#f1d9cf"/>
      <stop offset="0.71" stop-color="#e6baa8"/>
      <stop offset="0.87" stop-color="#dd8e65"/>
      <stop offset="1" stop-color="#c95b3c"/>
    </linearGradient>
  </defs>
  <g class="cls-1">
    <g id="Layer_1" data-name="Layer 1">
      <g>
        <path class="cls-2" d="M146.28,178.38c-25,0-46.34-12.26-55.67-30.89a52.74,52.74,0,0,1-26.43,7.31c-1.26,0-2.52,0-3.78-.14-.86-.06-1.71-.15-2.56-.25l-.24,0-.58-.09-.15,0c-.54-.08-1.06-.15-1.58-.24l-.57-.11-.68-.13-1.31-.27-1.31-.31-1.17-.31-.85-.24-.56-.15L47.16,152l-.83-.29-.76-.29-.17-.06q-.8-.3-1.59-.63l-.94-.4c-.57-.25-1.1-.49-1.63-.75l-.17-.08-.65-.31c-.75-.37-1.5-.77-2.24-1.18l-.68-.39-.21-.13c-.46-.27-.91-.53-1.36-.81L34.87,146c-.39-.25-.78-.52-1.17-.79s-.7-.48-1.05-.74l-1-.72-.13-.1c-.61-.47-1.21-.94-1.8-1.43l-.21-.17-.84-.71c-.33-.28-.67-.59-1-.9l-.13-.11-.8-.75c-.37-.36-.75-.72-1.12-1.1s-.48-.48-.71-.73c-.39-.4-.78-.8-1.16-1.23-.09-.09-.41-.46-.41-.46-.88-1-1.74-2-2.55-3.05l-.15-.19c-.42-.54-.81-1.06-1.19-1.59l-.4-.56c-.38-.53-.74-1.07-1.1-1.61l-.31-.48a65.13,65.13,0,0,1-4.47-8.08l-.17-.38c-.31-.68-.62-1.38-.91-2.08a1.46,1.46,0,0,1-.07-.19,66.66,66.66,0,0,1-2.48-7,.14.14,0,0,1,0-.06c-.23-.76-.43-1.54-.64-2.32,0,0-.08-.32-.08-.33A81.37,81.37,0,0,1,6.72,82.1,94.85,94.85,0,0,1,26.38,31.23C38.32,16.24,53.22,8,68.34,8c1,0,2,0,3,.11a42.91,42.91,0,0,1,9.37,1.79l.47.14c.29.09.58.2.87.3l.45.16,1.19.43c.35.14.68.27,1,.42l.27.11c.93.39,1.87.82,2.79,1.29l.25.12c.29.14.58.28.86.44s.76.42,1.13.64l.48.27.93.54,1.11.72.33.22c.34.22.68.44,1,.67l1.28.93c.38.28.75.55,1.11.84s.81.65,1.22,1,.71.59,1,.89.8.71,1.2,1.07.67.63,1,1,.75.72,1.12,1.1.66.68,1,1l.08.09c.33.35.66.7,1,1.06s.51.57.76.86l.43.5.8.94.71.91.23.29c.57.73,1.12,1.47,1.67,2.22l.19.27c.26.36.53.73.79,1.11l.64,1,.35.54c.24.36.47.73.71,1.1l.67,1.1.19.33c.25.42.5.84.74,1.26s.46.82.68,1.23l.08.15c.27.48.52.94.76,1.41s.48,1,.72,1.42l.7,1.45c.22.48.44.95.65,1.43s.45,1,.67,1.53l0,.12c.19.44.37.88.55,1.32s.42,1.08.63,1.61l.1.27c.14.38.29.76.43,1.15s.37,1.07.55,1.6l.19.55c.11.32.21.63.31,1,.26.79.49,1.58.72,2.37l0,.16c.11.35.21.71.31,1.06.25.91.49,1.82.71,2.73.07.3.14.6.2.9l.16.7c.12.52.24,1,.34,1.56l0,.25c.06.27.12.63.19,1l.08.45c.11.56.21,1.11.3,1.67l.06.34c0,.32.1.61.14.9l0,.35c.09.6.18,1.2.26,1.81l.08.59c0,.22.11,1,.11,1,.07.6.13,1.22.19,1.84l.05.48a77.86,77.86,0,0,1,16.46-4.45,86.85,86.85,0,0,1,13.53-1.06c30.32,0,57.71,15.52,65.36,37,.06.14.12.29.17.44s.07.23.11.34l.24.76c.22.71.43,1.45.61,2.19l.13.56c.22.92.38,1.76.51,2.56,1.51,9.5-.53,19.5-5.89,28.9l-.18.31c-.93,1.61-2,3.21-3.07,4.76l-.3.42c-1.08,1.48-2.25,2.94-3.48,4.34l-.45.52q-.56.63-1.14,1.26l-.49.51c-.7.73-1.39,1.42-2.1,2.1l-.68.66-1.14,1-.86.77c-.53.46-1.07.91-1.61,1.36l-1.26,1c-.34.27-.7.54-1.06.81l-1.17.88-.13.1-.88.63c-.66.47-1.34.94-2,1.39l-.89.58-1.53,1-.93.57q-1.12.67-2.28,1.32l-.59.32c-.66.36-1.32.71-2,1.05l-.84.42q-1.08.54-2.19,1l-.41.19c-.87.4-1.74.78-2.62,1.15l-.8.32c-.7.29-1.44.58-2.19.86l-.6.22c-.91.33-1.83.65-2.77,1l-.64.21c-.79.25-1.56.48-2.35.71l-.7.2c-1,.27-1.93.53-2.9.76l-.4.1c-.91.21-1.76.4-2.61.57l-.81.16c-1,.2-2,.38-3,.54a81.75,81.75,0,0,1-12.79,1Z"/>
        <path class="cls-3" d="M141.28,173.38c-25,0-46.34-12.26-55.67-30.89a52.74,52.74,0,0,1-26.43,7.31c-1.26,0-2.52,0-3.78-.14-.86-.06-1.71-.15-2.56-.25l-.24,0-.58-.09-.15,0c-.54-.08-1.06-.15-1.58-.24l-.57-.11-.68-.13-1.31-.27-1.31-.31-1.17-.31-.85-.24-.56-.15L42.16,147l-.83-.29-.76-.29-.17-.06q-.8-.3-1.59-.63l-.94-.4c-.57-.25-1.1-.49-1.63-.75l-.17-.08-.65-.31c-.75-.37-1.5-.77-2.24-1.18l-.68-.39-.21-.13c-.46-.27-.91-.53-1.36-.81L29.87,141c-.39-.25-.78-.52-1.17-.79s-.7-.48-1.05-.74l-1-.72-.13-.1c-.61-.47-1.21-.94-1.8-1.43l-.21-.17-.84-.71c-.33-.28-.67-.59-1-.9l-.13-.11-.8-.75c-.37-.36-.75-.72-1.12-1.1s-.48-.48-.71-.73c-.39-.4-.78-.8-1.16-1.23-.09-.09-.41-.46-.41-.46-.88-1-1.74-2-2.55-3.05l-.15-.19c-.42-.54-.81-1.06-1.19-1.59l-.4-.56c-.38-.53-.74-1.07-1.1-1.61l-.31-.48a65.13,65.13,0,0,1-4.47-8.08L8,115.08c-.31-.68-.62-1.38-.91-2.08a1.46,1.46,0,0,1-.07-.19,66.66,66.66,0,0,1-2.48-7,.14.14,0,0,1,0-.06c-.23-.76-.43-1.54-.64-2.32,0,0-.08-.32-.08-.33A81.37,81.37,0,0,1,1.72,77.1,94.85,94.85,0,0,1,21.38,26.23C33.32,11.24,48.22,3,63.34,3c1,0,2,0,3,.11a42.91,42.91,0,0,1,9.37,1.79l.47.14c.29.09.58.2.87.3l.45.16,1.19.43c.35.14.68.27,1,.42l.27.11c.93.39,1.87.82,2.79,1.29l.25.12c.29.14.58.28.86.44s.76.42,1.13.64l.48.27.93.54,1.11.72.33.22c.34.22.68.44,1,.67l1.28.93c.38.28.75.55,1.11.84s.81.65,1.22,1,.71.59,1,.89.8.71,1.2,1.07.67.63,1,1,.75.72,1.12,1.1.66.68,1,1l.08.09c.33.35.66.7,1,1.06s.51.57.76.86l.43.5.8.94.71.91.23.29c.57.73,1.12,1.47,1.67,2.22l.19.27c.26.36.53.73.79,1.11l.64,1,.35.54c.24.36.47.73.71,1.1l.67,1.1.19.33c.25.42.5.84.74,1.26s.46.82.68,1.23l.08.15c.27.48.52.94.76,1.41s.48,1,.72,1.42l.7,1.45c.22.48.44.95.65,1.43s.45,1,.67,1.53l0,.12c.19.44.37.88.55,1.32s.42,1.08.63,1.61l.1.27c.14.38.29.76.43,1.15s.37,1.07.55,1.6l.19.55c.11.32.21.63.31,1,.26.79.49,1.58.72,2.37l0,.16c.11.35.21.71.31,1.06.25.91.49,1.82.71,2.73.07.3.14.6.2.9l.16.7c.12.52.24,1,.34,1.56l0,.25c.06.27.12.63.19,1l.08.45c.11.56.21,1.11.3,1.67l.06.34c0,.32.1.61.14.9l0,.35c.09.6.18,1.2.26,1.81l.08.59c0,.22.11,1,.11,1,.07.6.13,1.22.19,1.84l.05.48a77.86,77.86,0,0,1,16.46-4.45,86.85,86.85,0,0,1,13.53-1.06c30.32,0,57.71,15.52,65.36,37,.06.14.12.29.17.44s.07.23.11.34l.24.76c.22.71.43,1.45.61,2.19l.13.56c.22.92.38,1.76.51,2.56,1.51,9.5-.53,19.5-5.89,28.9l-.18.31c-.93,1.61-2,3.21-3.07,4.76l-.3.42c-1.08,1.48-2.25,2.94-3.48,4.34l-.45.52q-.56.63-1.14,1.26l-.49.51c-.7.73-1.39,1.42-2.1,2.1l-.68.66-1.14,1-.86.77c-.53.46-1.07.91-1.61,1.36l-1.26,1c-.34.27-.7.54-1.06.81l-1.17.88-.13.1-.88.63c-.66.47-1.34.94-2,1.39l-.89.58-1.53,1-.93.57q-1.12.67-2.28,1.32l-.59.32c-.66.36-1.32.71-2,1.05l-.84.42q-1.08.54-2.19,1l-.41.19c-.87.4-1.74.78-2.62,1.15l-.8.32c-.7.29-1.44.58-2.19.86l-.6.22c-.91.33-1.83.65-2.77,1l-.64.21c-.79.25-1.56.48-2.35.71l-.7.2c-1,.27-1.93.53-2.9.76l-.4.1c-.91.21-1.76.4-2.61.57l-.81.16c-1,.2-2,.38-3,.54a81.75,81.75,0,0,1-12.79,1Z"/>
        <g>
          <g>
            <path class="cls-4" d="M111,83.5c-2.69,36.07-27.85,60.21-55,58.18S7,113.76,9.7,77.7,38.59,9,65.76,11.07,113.72,47.43,111,83.5Z"/>
            <g class="cls-5">
              <path class="cls-6" d="M73.75,12.64c9.19,8,22.74,27.61,20.75,57.08-2.5,37.09-29.83,56.13-49.45,55.35-14.66-.59-27.9-9.33-34-26.1,5.34,24.62,23.46,41.11,44.91,42.71,27.17,2,52.33-22.11,55-58.18C113.44,51.07,96.87,20,73.75,12.64Z"/>
            </g>
            <g class="cls-7">
              <path class="cls-8" d="M108.8,56.82c.67,7.83.15,18.06-5.33,25.37-9,12.06-15.63,20-17,37.07-1.18,15.1-24.94,27-48,17.48A45.54,45.54,0,0,0,56,141.68c27.17,2,52.33-22.11,55-58.18A85.53,85.53,0,0,0,108.8,56.82Z"/>
            </g>
          </g>
          <g>
            <g>
              <path class="cls-4" d="M152.82,164.46c-32.87,5.21-59.8-12.22-63.73-37s14.65-49.78,47.52-55,67.59,11.37,71.51,36.12S185.69,159.25,152.82,164.46Z"/>
              <g class="cls-5">
                <path class="cls-9" d="M126,159.37c-24.67-7-33.74-22-37-33.15,0,.42.11.84.17,1.26,3.93,24.76,30.86,42.19,63.73,37,22.88-3.63,42.58-17.27,51.14-33.57C187.64,151.69,155.38,167.73,126,159.37Z"/>
              </g>
            </g>
            <g class="cls-5">
              <path class="cls-6" d="M208.12,108.61a31.46,31.46,0,0,0-1.27-5.08c-.47,16.89-14.37,33.78-43.46,39.74-43.21,8.87-72.21-13.13-67.23-39.45,2.15-11.32,9.2-16,15.74-22.33-17,10.66-25.6,28.39-22.81,46,3.93,24.76,30.86,42.19,63.73,37S212,133.37,208.12,108.61Z"/>
            </g>
          </g>
        </g>
      </g>
    </g>
  </g>
</svg>
