<svg id="Layer_1" data-name="Layer 1" xmlns="http://www.w3.org/2000/svg" width="450" height="182" viewBox="0 0 450 182">
  <defs>
    <style>
      .cls-1 {
        fill: #fffa4d;
      }

      .cls-2, .cls-7 {
        fill: #4b5454;
      }

      .cls-2 {
        fill-rule: evenodd;
      }

      .cls-3 {
        fill: #cff1f9;
      }

      .cls-4, .cls-5 {
        fill: #9dbcc1;
      }

      .cls-5 {
        opacity: 0.33;
      }

      .cls-6 {
        fill: none;
      }
    </style>
  </defs>
  <g>
    <path class="cls-1" d="M244.53,181.28H242l-2,0-2.16-.07h-.18l-2.15-.1c-1,0-1.9-.12-2.82-.18l-1.25-.09-.22,0-2.24-.2-1.14-.12c-2.1-.22-4-.45-5.7-.71l-.19,0-1.32-.2h0l-1.22-.2c-1.43-.24-2.81-.5-4.12-.77l-1.21-.26c-2.33-.51-4.52-1.07-6.52-1.66l-.93-.27-1.27-.41s-.34-.1-.37-.12c-.28-.08-1-.33-1-.33l-.63-.22-.59-.22-.75-.28-.71-.27-.24-.1c-.27-.11-.53-.21-.77-.32l-1.14-.5c-.2-.08-.4-.18-.6-.28l-.6-.29c-9.92-4.21-18.5-10.69-26.23-19.8a120.79,120.79,0,0,1-11.09-15.68c-6.85-11.34-11.35-23.4-15.37-34.77l-1.74-4.94a54.23,54.23,0,0,0-3-7.07l-.07-.14h0a8.69,8.69,0,0,0-1.67-2.28,6.66,6.66,0,0,0-.94-.76s0,.09,0,.13c-.06.4-.13.8-.21,1.21A65.48,65.48,0,0,1,134,100.26l-.35.91c-3.31,8.73-7.52,18.94-13.63,28.43-1.24,2-2.56,3.86-3.91,5.66-5.44,7.25-11.89,12.07-19.72,14.74-.25.08-.5.15-.76.21a48.73,48.73,0,0,1-11.12,1.26c-.85,0-1.72,0-2.58-.06l-.51,0h-.06a55.37,55.37,0,0,1-5.85-.65c-.92-.14-1.89-.32-2.83-.53-1.49-.31-3.12-.71-4.74-1.17s-3.08-.93-4.61-1.47c-2.13-.76-4.29-1.64-6.44-2.61-.67-.3-1.33-.6-2-.92h0c-2.15-1-4.33-2.18-6.5-3.42l-.24-.15a106,106,0,0,1-13-8.83c-.6-.48-1-.84-1.35-1.1l-.32-.27c-9.6-7.6-16.09-18-19.85-31.74A253.93,253.93,0,0,1,8.05,72.36c-.48-2.93-.9-5.8-1.25-8.52,0,0,0-.09,0-.13-.39-2.93-.75-5.93-1-8.93l-.07-.6c0-.28-.06-.56-.1-.84a1.11,1.11,0,0,0,0-.17c0-.32-.09-.64-.15-1,0-.13-.05-.26-.08-.39a4.87,4.87,0,0,0-.17-.56,1.21,1.21,0,0,0-.1-.22,23.92,23.92,0,0,1-1.55-2.5c-.15-.28-.33-.64-.5-1a24.32,24.32,0,0,1-1.72-4.67c-.15-.53-.28-1.12-.4-1.73A50.85,50.85,0,0,1,.44,28.71L.5,27.45a28.09,28.09,0,0,1,.65-4.55,11,11,0,0,1,9.29-8.77,11.46,11.46,0,0,1,3.33-1.26l.42-.08C47.63,7.35,89.81,2.57,119.17.91c2.25-.13,4.51-.19,6.73-.19,23,0,43.71,6.63,63.36,20.27,2.27,1.58,4.9,3.64,8.05,6.31a8,8,0,0,1-2.17,13.51c-.85.35-1.7.72-2.55,1.1l4.52.27c3.53.23,8.71.57,13.42.94l5.71.5.48.05.51,0,10.16,1c2.7.28,5.42.58,8.14.88l3.18.36c1.87.21,3.76.44,5.64.67.48,0,1,.11,1.43.18l4.8.6.75.1.23,0c2.09.27,4.15.55,6.21.84,12.77,1.81,25.59,3.95,38.11,6.35,6.18,1.17,12.47,2.45,19.22,3.91a31.34,31.34,0,0,0,6.75.69A49.37,49.37,0,0,0,329,58.8c.27,0,.55-.06.83-.08,1.17-.19,2.43-.42,3.9-.7,8.95-1.75,18.07-3.66,26.88-5.51,17.22-3.61,35-7.35,52.82-10.11l1.25-.2a41.34,41.34,0,0,1,6.83-.71c.63,0,1.26,0,1.86.07,7.09.55,16.53,4,21.25,17.25A77.29,77.29,0,0,1,448,74.18c.2,1.44.41,2.88.65,4.31l0,.17a113.24,113.24,0,0,1,1.1,17c-.14,8.42-6.55,15-14.6,15a15,15,0,0,1-3.32-.38c-6.77-1.55-10.67-6.38-10.68-13.25,0-1.24,0-2.49,0-3.73a120.3,120.3,0,0,0-.86-18.42c-.4.34-.78.68-1.14,1-7.41,7.3-16.28,8.59-24.11,9.72l-.81.12a467.38,467.38,0,0,0-61.06,12.85c-.24.09-.49.18-.75.26-2,.58-4,1.17-6,1.78-1.74.54-3.13,1-4.35,1.54-.81.35-.82.4-.92,1.17-.79,5.92-1.73,11.8-2.78,17.48-1.44,7.77-3.16,15.46-5.12,22.88a58.06,58.06,0,0,1-1.79,5.62l-.07.19a49.53,49.53,0,0,1-3.91,8.12,43.52,43.52,0,0,1-6.09,7.92,45.43,45.43,0,0,1-16.59,10.68,61,61,0,0,1-10,2.8l-.45.08c-1.25.17-2.47.32-3.68.47l-.5.05-2.39.28-1.4.14h-.12l-1,.11h-.17l-1.21.12-1.4.12c-.34,0-.75.07-1.16.1l-.77.06-1.46.1-1.35.1-.48,0-1.75.11-2.83.13-1.62,0-1.06,0-.72,0-2.31,0-2,0ZM144.6,41.39c1.71.07,10.2.37,19.82.54-.35-.42-.69-.8-1-1.12a69,69,0,0,0-9.62-8.31,23.21,23.21,0,0,0-14-4.57,32.61,32.61,0,0,0-7.4.92,107.09,107.09,0,0,0-14.72,5.06l-1,.39c-.55.22-1.11.44-1.68.65,2.66.73,5.43,1.47,8.23,2.17,3,.76,5.91,1.44,8.65,2,3.87.85,7.42,1.51,10.58,2l.29,0Z"/>
    <g>
      <g>
        <path class="cls-2" d="M209.91,51.1c-9-.71-19.81-1.32-19.81-1.32-2.64.14-5.77.22-9.14.25a4.6,4.6,0,0,0,3.29,1.76c7.63.32,15.27.75,22.91,1.05C209.18,52.93,210.09,52.37,209.91,51.1ZM184.7,27.56C165.11,14,143.75,7.54,119.62,8.9,88.41,10.66,46.27,15.67,15.48,20.68c-1,.23-1.51.49-1.57,1.34a1,1,0,0,0,0,.25l4.8,6.49.23.31L20.34,31l5,6.8H26c1.69-.06,4.72-.31,8.64-.71,2.14-.21,4.55-.46,7.15-.75l6.68-.75h.05c8.46-1,18.09-2.13,27-3.19h0l2.57-.3h.06l3.24-.39h0c11.39-1.36,20.77-2.44,23.65-2.58a27.52,27.52,0,0,0,8.72-2.26,121.94,121.94,0,0,1,16.82-5.8c10-2.35,19.35-1.19,27.88,5a77,77,0,0,1,10.72,9.25,90.1,90.1,0,0,1,6,7.44,84.75,84.75,0,0,1,17-9.31C189.54,31.2,187,29.15,184.7,27.56ZM61.59,28c5.28,1.11,10.81,2.46,16.5,4Z"/>
        <path class="cls-3" d="M310.48,119.44c.16-2.1.23-4.23.23-6.37a85.66,85.66,0,0,0-16.33-50.44Q275.6,59,256.65,56.34l-6.09-.83-.92-.11c-1.63-.22-3.26-.42-4.89-.62l-1.31-.16c-1.88-.23-3.76-.46-5.65-.67l-3.15-.36c-2.7-.3-5.39-.59-8.09-.87-3.35-.36-6.71-.7-10.06-1l-.73-.07-.22,0-1.34-.13-1-.09-1.44-.12-.75-.06-1.07-.1c-9-.71-19.81-1.32-19.81-1.32-2.64.15-5.77.22-9.14.26-4.69,0-9.84,0-14.77-.07a85.89,85.89,0,0,0-22,32.51,16.79,16.79,0,0,1,3.26,4.36l.09.19a61.18,61.18,0,0,1,3.47,8.12c4.6,13.12,9.17,26.23,16.41,38.22,8.39,13.87,18.45,25.92,33.89,32.38h0c.08.05.32.17.71.35a.75.75,0,0,0,.18.08c.31.15.69.31,1.14.51l.87.36c.19.06.38.14.59.22l.55.21h0l.61.23.69.24.68.23.74.23c.25.09.52.17.79.25l.84.25q2.56.77,6,1.52l.15,0,1,.2c1.23.26,2.53.5,3.91.74l1.15.18,1.38.22q2.52.36,5.34.66l1.11.11c.75.08,1.52.15,2.29.21l1.18.08c.88.07,1.78.13,2.71.17l2.23.11,2.08.07H241l1.16,0h2.75l1.94,0,2.38,0,1.5,0,1.52-.05c.47,0,.95,0,1.42-.06l1.45-.07,1.85-.11,1.57-.11,1.44-.11.66,0,1.11-.09,1.37-.12,1.37-.13,1-.1,1.4-.14,1-.11,1.63-.19h0c1.23-.15,2.47-.3,3.74-.48,12.36-2.41,21.56-8.09,27.34-17.68,1.21-2.28,2.33-4.62,3.34-7h0Z"/>
        <path class="cls-4" d="M244.53,173.28h-2.37l-1.16,0-.72,0c-.7,0-1.4,0-2.08-.07l-2.23-.1c-.93-.05-1.83-.11-2.71-.18l-1.18-.08-2.29-.2-1.11-.12q-2.82-.28-5.34-.66Z"/>
        <path class="cls-5" d="M244.53,173.28h-2.37l-1.16,0-.72,0-2.08-.07-2.23-.1c-.93-.05-1.83-.11-2.71-.18l-1.18-.08-2.29-.2-1.11-.12q-2.82-.28-5.34-.66l-4-10.56L181.6,61.37h0L181,59.68,199,52.85l3.51,9.3h0l38.75,102.56h0Z"/>
        <path class="cls-5" d="M269.5,171.74h0l21.84-8.26-3.65-9.67-32-84.71h0l-5.13-13.57-.92-.12c-1.63-.22-3.26-.42-4.89-.62l-1.31-.16c-1.88-.23-3.76-.46-5.65-.67l-3.15-.35c-2.7-.3-5.39-.6-8.09-.88l-10.06-1-.73-.08-.22,0-1.34-.12-1-.09-1.44-.13-.75-.06,4.57,12.09h0l38.21,101.1,3.21,8.5Z"/>
        <path class="cls-6" d="M105.92,52.28C74.11,38.18,40.08,34.36,40.08,34.36,22.36,31.13,23.36,46.24,23.36,46.24c-.6,40.27,12.29,60.61,12.29,60.61,9.26,19.13,39.06,27,39.06,27,14.1,3.83,22.15-4.83,22.15-4.83,15.91-18.12,18.53-56.59,18.53-56.59C116.8,56.51,105.92,52.28,105.92,52.28Z"/>
        <path class="cls-6" d="M130.17,83.72c0,.28,0,.56-.06.85v0c0,.21,0,.44-.07.66,0,0,0,0,0,.08a2.33,2.33,0,0,1,0,.37v0c0,.23-.06.46-.1.68s-.1.61-.16.91"/>
        <path class="cls-6" d="M130.15,84.1V84c0-.1,0-.22,0-.32v-.06c0-.19,0-.38,0-.58"/>
        <path class="cls-3" d="M130.25,80.85c0,.84,0,1.68-.07,2.51,0-.35,0-.7,0-1A9.43,9.43,0,0,1,130.25,80.85Z"/>
        <path class="cls-3" d="M130.18,83.36c0,.1,0,.2,0,.3C130.18,83.56,130.18,83.46,130.18,83.36Z"/>
        <path class="cls-3" d="M81.86,143.4h0a2.09,2.09,0,0,0,.3-.14,34.64,34.64,0,0,0,11.66-8.57h0c.58-.64,1.13-1.29,1.68-2a103.76,103.76,0,0,0,12.72-20.9c1.74-3.69,3.34-7.45,4.88-11.24,2.09-5.14,4.38-10.33,4.27-16-.06-2.49.44-3.59,2.3-3.87a9.93,9.93,0,0,1,1.89-.07l7.75-29.33c-.79-1.64-1.63-3.24-2.54-4.81-17.2-4-33.26-9.1-33.26-9.1-4.36-1.36-8.67-2.58-12.9-3.69l-2.13-.54c-1-.26-2-.5-3-.74h0C69.89,31,64.45,29.88,59.25,28.9h0c-6.86-1.29-13.28-2.26-19.06-3-6.06-.78-11.42-1.3-15.9-1.63-1,.73-2,1.49-3,2.27S19.54,28,18.69,28.76a68.21,68.21,0,0,0-7.82,8.12c-.74.89-1.45,1.8-2.14,2.74.09.42.18.83.29,1.26a17.09,17.09,0,0,0,1.18,3.19c.11.24.23.48.36.71a15,15,0,0,0,1,1.68,12.66,12.66,0,0,1,1.9,5.78h0c.05.39.1.77.14,1.15,0,.19,0,.39.06.57.3,3,.64,5.91,1,8.85h0L39,124.43l13.35,9.21,0,0,6,3.14a69.94,69.94,0,0,0,16,5.58Z"/>
        <path class="cls-5" d="M108.23,111.8a103.76,103.76,0,0,1-12.72,20.9c-.55.69-1.1,1.34-1.68,2h0a34.64,34.64,0,0,1-11.66,8.57l-3.25-8.62L41.76,36.34l-.27-.72,2.09-.8h0L59.25,28.9h0L61.59,28c5.28,1.11,10.81,2.46,16.5,4v0l.4,1,4,10.46h0l25,66.24h0Z"/>
        <path class="cls-5" d="M74.41,142.38a69.94,69.94,0,0,1-16-5.58l-4.5-11.91h0L23.43,44.37h0l-4.8-12.71L20.34,31l10.47-4,2.64,7,1.16,3.08L70.7,132.58h0Z"/>
        <path class="cls-6" d="M277.09,73.42c-69.47-15.3-106.93-11.68-106.93-11.68-13.65.71-6.84,16.31-6.84,16.31a16,16,0,0,0,5,5.84,39.81,39.81,0,0,1,8.46,8.26c5,4.63,5.23,29.4,5.23,29.4.81,19.53,11.88,27.59,11.88,27.59,42.09,29.2,88.51,8.56,88.51,8.56,19-8.46,15.4-56.79,15.4-56.79C296.93,79.76,277.09,73.42,277.09,73.42Z"/>
        <path class="cls-7" d="M440.71,79.8c-1-6.06-1.51-12.36-3.63-18.31-2.43-6.84-6.7-11.36-14.33-12a35.3,35.3,0,0,0-8.09.77C388,54.44,361.73,60.71,335.25,65.87c-1.76.35-3.52.67-5.28.93,1,4.77,1.76,12.7,0,24.44A480.18,480.18,0,0,1,393.07,77.9c7.45-1.09,14.7-2,20.45-7.62a31.75,31.75,0,0,1,9-6.06c1.68-.77,3.56-.91,4,1.23.41,2,.94,4.17,1.31,6.14,1.6,8.44,1.29,16.92,1.31,25.49,0,3.23,1.31,4.74,4.46,5.46,4.25,1,8.06-2.15,8.14-7A104.41,104.41,0,0,0,440.71,79.8Z"/>
        <path class="cls-7" d="M298.09,112.61c0,.58,0,1.17,0,1.76v.18c0,.27,0,.55,0,.82,0,.1,0,.2,0,.29,0,.39,0,.78,0,1.18,0,.1,0,.21,0,.31-.07,1.4-.15,2.85-.26,4.33,0,.13,0,.27,0,.41-.05.68-.11,1.36-.17,2s-.14,1.37-.22,2.07c-.14,1.26-.31,2.55-.49,3.83v.06c-.19,1.26-.4,2.53-.64,3.77-.19,1-.41,2-.63,3-.12.5-.24,1-.37,1.49l-.24,1a.53.53,0,0,0,0,.12c-.11.38-.22.75-.32,1.11s-.19.62-.28.93-.24.76-.37,1.14a.1.1,0,0,0,0,0c-.1.29-.2.59-.31.88s-.2.57-.31.85l0,.08c-.1.26-.19.53-.31.78s-.22.57-.35.84-.18.44-.28.65-.19.43-.3.64-.19.42-.3.63-.21.42-.32.62-.37.71-.57,1-.29.49-.43.73l-.34.54c-.11.18-.23.34-.35.52l-.47.67c-.13.17-.26.35-.4.52s-.11.15-.17.23-.28.35-.43.52-.32.38-.48.56t0,0h0c-.1.12-.2.22-.31.33l-.31.32c-.17.18-.35.35-.54.52l-.1.09-.14.11-.4.36c-.11.08-.21.17-.32.24a2.72,2.72,0,0,1-.32.25l0,0-.64.45c-.18.11-.34.23-.53.33l-.12.08-.06,0-.34.19-.13.07-.27.15-.15.07-.55.26-.14.07-.14.05-.28.12-.16.07-.47.19-.42.15c-.3.13-.64.25-1,.39l-.28.11-.42.15-.6.21-.42.14-.62.21-.25.08-.46.15-.49.16-1.27.38-.52.16-.89.26-1.19.33-1,.26-.92.24-.19,0-1.16.28c-.92.22-1.88.44-2.87.65-.71.15-1.44.29-2.19.43s-1.82.33-2.77.48l-1.13.17-.19,0-.2,0-.19,0-1.25.17-1.46.18q-1.53.18-3.12.33c-.67.06-1.34.11-2,.15h-.13q-1.08.07-2.19.12c-.57,0-1.15.06-1.74.07l-.81,0-2,0-1.73,0-1.82,0h-.14l-1.11,0h-.47l-.9,0c-1-.06-2-.14-3.05-.24l-.17,0c-.75-.07-1.53-.15-2.3-.25l-1.2-.16-1.11-.16-1.17-.18-.87-.14-.11,0c-.29-.05-.59-.09-.88-.15q-2.79-.51-5.62-1.23l-1.42-.37-1.43-.4-1.57-.47-1.52-.48-1.39-.48-.12,0-1.37-.49-.87-.34-1.16-.45-1.5-.61-1.58-.68-.13-.06q-.49-.21-1-.45l-.09,0-.87-.41c-.38-.17-.75-.35-1.12-.54l-1.46-.74-.11-.06c-.45-.23-.91-.47-1.36-.72s-1.09-.6-1.64-.92c-1.11-.62-2.2-1.28-3.3-2-.4-.25-.79-.5-1.18-.77-.7-.45-1.4-.92-2.09-1.4,0,0-11.08-8.06-11.89-27.59h0c0-.43.17-16.14-2.88-25a.24.24,0,0,0,0-.08l-.06-.17a.36.36,0,0,0,0-.07,12.4,12.4,0,0,0-2.24-4.11l-.05-.06s0,0,0-.07a64,64,0,0,0-8.36-8.13,24.3,24.3,0,0,1-5-5.8,0,0,0,0,1,0,0h0s0-.08-.07-.17-.09-.21-.14-.35h0c-.09-.24-.2-.54-.31-.91-.09-.22-.16-.47-.24-.74s-.09-.28-.13-.43l0-.12c-.06-.19-.1-.38-.15-.58a3,3,0,0,1-.08-.32c0-.1-.05-.2-.08-.3h0l-.06-.33c0-.1,0-.21-.07-.31v0c-.05-.23-.08-.47-.11-.7a1.77,1.77,0,0,1-.05-.32,2.57,2.57,0,0,1-.05-.4c0-.12,0-.24,0-.36s0-.25,0-.37a2.17,2.17,0,0,1,0-.36q0-.37,0-.75t0-.72v0a5.67,5.67,0,0,1,.06-.71,1.65,1.65,0,0,1,0-.21.17.17,0,0,0,0-.07c0-.08,0-.15,0-.22s.06-.34.1-.51c.65-2.82,2.58-5.27,7.17-5.87l.84-.08h.28s3.88-.38,11.44-.38h3.6l1.31,0,1.83,0c.31,0,.63,0,.95,0h.19l1.18,0,1.32,0,1.35,0,1.07.06.48,0,.86,0,.88,0h.08l3.4.2.43,0,2,.13,1.51.11q5.34.39,11.5,1c5.67.58,11.86,1.32,18.56,2.28S248,67.69,255.69,69.1q10.14,1.86,21.4,4.33h0l.11,0,.1,0,.24.09a1.56,1.56,0,0,1,.15.06l.23.09.46.18h0l.5.22.11,0a8.31,8.31,0,0,1,.82.38l.26.12.4.2.05,0,.68.37c.24.12.48.25.73.4l.15.08,1,.58,1,.66c.51.34,1,.71,1.58,1.11l.56.43.62.5c.71.59,1.42,1.22,2.13,1.91.16.14.32.3.47.46s.53.54.79.83.4.44.59.67l.21.24c.23.27.46.56.68.85l.06.07c.24.31.47.61.7.94.11.16.23.32.33.48l.33.49c.49.75,1,1.54,1.4,2.38.17.32.33.64.48,1s.26.56.39.86.25.58.36.88l.33.86.3.89,0,.1.21.72c.08.25.14.5.21.76s.15.61.22.92.12.55.17.83a.43.43,0,0,1,0,0c.06.29.11.59.16.9s.08.55.12.83.05.34.07.52.06.53.08.79l.07.82c0,.27,0,.55,0,.83,0,0,0,.13,0,.38,0,.08,0,.17,0,.27a1.09,1.09,0,0,0,0,.18,1.15,1.15,0,0,1,0,.19s0,.07,0,.12v.06h0v0c0,.13,0,.28,0,.44s0,.18,0,.27,0,.25,0,.39a.17.17,0,0,1,0,.07v.09h0c0,.11,0,.22,0,.33,0,.31,0,.65,0,1v0l0,.64v.12c0,.19,0,.38,0,.59s0,.41,0,.63v0c0,.25,0,.51,0,.78C298.11,109.06,298.12,110.75,298.09,112.61Zm32.06-45.84s0,0,0,0a46.2,46.2,0,0,1-16.73-.22q-9.5-2.06-19-3.87Q275.6,59,256.65,56.34l-6.09-.83-.92-.11c-1.63-.22-3.26-.42-4.89-.62l-1.31-.16c-1.88-.23-3.76-.46-5.65-.67l-3.15-.36c-2.7-.3-5.39-.59-8.09-.87-3.35-.36-6.71-.7-10.06-1l-.73-.07-.22,0-1.34-.13-1-.09-1.44-.12-.75-.06-1.07-.1c-9-.71-19.81-1.32-19.81-1.32-2.64.15-5.77.22-9.14.26-4.69,0-9.84,0-14.77-.07-11.73-.18-22.21-.59-22.21-.59-.85-.1-1.72-.22-2.62-.34-3.48-.5-7.25-1.21-11.11-2.06-3-.63-6-1.34-8.92-2.09-16.1-4.05-31.12-9.1-31.12-9.1-4.07-1.36-8.11-2.58-12.06-3.69h-.06c-5.69-1.59-11.22-2.94-16.5-4-7.72-1.66-14.89-2.86-21.26-3.73-5.21-.72-9.87-1.21-13.85-1.54l-1-.08c-5.35-.45-9.34-.61-11.55-.66-1.3,0-2,0-2,0A3.09,3.09,0,0,0,9,24.54a21.59,21.59,0,0,0-.49,3.29c-.19,4-.5,8,.24,11.79.09.42.18.83.29,1.26a17.09,17.09,0,0,0,1.18,3.19c.11.24.23.48.36.71a15,15,0,0,0,1,1.68,12.66,12.66,0,0,1,1.9,5.78h0c.05.39.1.77.14,1.15,0,.19,0,.39.06.57.3,3,.64,5.91,1,8.85h0c.35,2.76.76,5.52,1.21,8.26A242.31,242.31,0,0,0,21.39,96.4c3,10.94,8.14,20.55,17.25,27.7,0,0,.13.12.39.33l1.15.94a99.25,99.25,0,0,0,12.2,8.27l0,0c1.85,1.07,3.85,2.13,6,3.14a69.94,69.94,0,0,0,16,5.58c.8.18,1.61.33,2.42.46a49.28,49.28,0,0,0,5,.56h.37l-.07-.15a34.64,34.64,0,0,0,11.66-8.57h0c.58-.64,1.13-1.29,1.68-2a103.76,103.76,0,0,0,12.72-20.9l5.09,13.48c5.42-8.43,9.34-17.61,12.89-27a65.51,65.51,0,0,0,3.52-11c.06-.3.11-.6.16-.91s.07-.45.1-.68v0a2.33,2.33,0,0,0,0-.37s0,0,0-.08c0-.22.05-.45.07-.66s0-.33,0-.49V84c0-.13,0-.25,0-.38s0-.38,0-.58a.45.45,0,0,0,0-.12v-.65a9.37,9.37,0,0,1,.06-1.46,3.11,3.11,0,0,1,.07-.47c.32-1.63,1.35-2.13,3.79-2a17.2,17.2,0,0,1,4.49.79,14,14,0,0,1,5.63,3.31,16.79,16.79,0,0,1,3.26,4.36l.09.19a61.18,61.18,0,0,1,3.47,8.12c4.6,13.12,9.17,26.23,16.41,38.22,8.39,13.87,18.45,25.92,33.89,32.38h0c.08.05.32.17.71.35a.75.75,0,0,0,.18.08c.31.15.69.31,1.14.51l.87.36c.19.06.38.14.59.22l.55.21h0l.61.23.69.24.68.23.74.23c.25.09.52.17.79.25l.84.25q2.56.77,6,1.52l.15,0,1,.2c1.23.26,2.53.5,3.91.74l1.15.18,1.38.22q2.52.36,5.34.66l1.11.11c.75.08,1.52.15,2.29.21l1.18.08c.88.07,1.78.13,2.71.17l2.23.11,2.08.07H241l1.16,0h2.75l1.94,0c.78,0,1.57,0,2.38,0l1.5,0,1.52-.05c.47,0,.95,0,1.42-.06l1.45-.07,1.85-.11,1.57-.11,1.44-.11.66,0,1.11-.09,1.37-.12,1.37-.13,1-.1,1.4-.14,1-.11,1.63-.19h0c1.23-.15,2.47-.3,3.74-.48,12.36-2.41,21.56-8.09,27.34-17.68a40.51,40.51,0,0,0,3.34-7h0a50.38,50.38,0,0,0,1.54-4.82q2.91-11.09,5-22.3c1-5.66,1.94-11.35,2.71-17.08a8.81,8.81,0,0,1,5.74-7.47,48.65,48.65,0,0,1,5.12-1.82c2-.63,4.07-1.23,6.12-1.82,0,0,0,0,0,0h0C331.92,79.49,331.17,71.53,330.15,66.77ZM108,108.43l-.07.21c0,.13-.09.25-.14.37-.09.28-.2.56-.3.84l-.06.16a1.89,1.89,0,0,1-.06.18c0,.09-.07.18-.1.27s0,.12-.07.17c-.12.32-.24.64-.36.94s-.25.63-.37.94l-.63,1.53,0,0-.06.12c-.25.58-.5,1.16-.76,1.72-.17.38-.34.75-.52,1.12-.36.74-.72,1.47-1.1,2.19-.15.3-.3.58-.46.87s-.42.78-.64,1.16-.44.77-.66,1.14l-.5.82-.77,1.18c-.21.33-.43.65-.65,1l-.1.14c-.27.38-.54.76-.82,1.12s-.62.83-1,1.22l-.42.51-.55.65a3.45,3.45,0,0,1-.26.25,1.94,1.94,0,0,1-.25.23,14.92,14.92,0,0,1-1.36,1.1l-.35.25-.38.27-.45.28c-.18.12-.37.24-.57.35a3.72,3.72,0,0,1-.48.27l-.09.05-.36.19-.38.2-.55.26q-.42.21-.87.39h0l-.31.12-.55.21-.08,0c-.21.08-.43.16-.66.23l-.69.21c-.16,0-.33.1-.49.13l-.35.09c-.2.06-.4.1-.61.15l-.58.12h-.07c-.24,0-.47.09-.71.12l-.21,0-.82.11h0l-.77.07h0l-.45,0H83l-.47,0H80.94l-.73,0-1.3-.12-.11,0-.63-.07-.57-.09c-.27,0-.53-.09-.8-.15s-.67-.13-1-.21l-1.09-.27s-.61-.16-1.68-.49l-.66-.21L71.9,133l-.75-.25-.31-.11-.14,0-.66-.23-.7-.25c-.92-.33-1.94-.72-3-1.15l-.66-.26a.47.47,0,0,0-.15-.06l-1.22-.52c-.31-.12-.63-.26-1-.4-.75-.32-1.51-.67-2.29-1l-.79-.38c-.79-.37-1.59-.77-2.41-1.2-.52-.26-1-.54-1.57-.83-.8-.44-1.6-.89-2.4-1.37h0l-1.4-.86c-.4-.24-.8-.49-1.18-.75s-.58-.39-.88-.59l-.78-.54q-.4-.27-.81-.57c-.26-.18-.51-.37-.76-.56-.42-.31-.83-.63-1.24-1s-.78-.62-1.16-.94l-1-.83c-.13-.13-.26-.24-.39-.35l-.33-.3,0,0v0l-.08-.07-.22-.2-.2-.2-.26-.24-.46-.45-.37-.37-.74-.77h0l-.2-.21-.18-.21c-.22-.23-.44-.47-.64-.71s-.57-.66-.84-1c-.05-.06-.1-.13-.16-.19l-.79-1h0c-.19-.26-.38-.52-.56-.79s-.39-.55-.58-.84c-.36-.55-.71-1.12-1-1.69-.11-.18-.21-.37-.31-.56a5.42,5.42,0,0,1-.26-.48c-.12-.23-.24-.48-.36-.72,0,0-.46-.73-1.2-2.18-.1-.19-.21-.39-.31-.61s-.3-.62-.47-1c-.27-.57-.57-1.21-.88-1.92,0,0,0-.08,0-.13s0,0,0-.05h0l0-.07c0-.1-.09-.21-.15-.32-.34-.81-.71-1.7-1.08-2.67l-.52-1.34c-.09-.27-.19-.56-.3-.85a.3.3,0,0,0,0-.1v0c-.11-.29-.21-.59-.31-.89-.27-.75-.53-1.55-.8-2.38-.09-.3-.19-.6-.28-.92-.59-1.86-1.15-3.9-1.7-6.11l-.27-1.11c-.09-.34-.17-.68-.25-1A.61.61,0,0,0,27,83c-.09-.39-.17-.77-.26-1.17-.17-.8-.35-1.62-.51-2.46s-.33-1.67-.48-2.52a.64.64,0,0,1,0-.07c-.15-.84-.29-1.7-.43-2.58l-.15-1,0-.22s0-.06,0-.09,0-.06,0-.09c-.07-.46-.14-.92-.2-1.39,0-.09,0-.17,0-.26s0-.27,0-.42-.08-.55-.11-.84c-.07-.52-.13-1-.2-1.56s-.1-.86-.14-1.29-.13-1.1-.18-1.67c-.09-.93-.18-1.86-.26-2.82V62.5c-.05-.53-.09-1.06-.12-1.6s-.09-1.38-.13-2.08-.08-1.34-.11-2-.05-1.21-.07-1.82v-.12c0-.35,0-.71,0-1.07,0-.14,0-.28,0-.41,0-.29,0-.58,0-.87,0-.58,0-1.16,0-1.76,0-1.47,0-3,0-4.51v-.09c0-.11,0-.34,0-.64,0-.1,0-.21,0-.33v0c0-.09,0-.19,0-.29s0-.3,0-.46v0c0-.14,0-.27.05-.42s0-.31.07-.47a1.7,1.7,0,0,1,0-.22c0-.23.09-.47.14-.71l.12-.47c0-.17.09-.33.15-.5l.09-.3a1.18,1.18,0,0,0,.07-.2c.05-.12.09-.25.15-.38a3.12,3.12,0,0,1,.15-.39l.12-.25c.07-.17.16-.34.25-.51s.18-.34.28-.5a.3.3,0,0,1,.06-.11c.08-.14.17-.26.25-.4l.12-.17.06-.08c.12-.17.24-.32.37-.48h0l.08-.1.32-.37h0c.14-.15.28-.3.43-.44l0,0a4.48,4.48,0,0,1,.4-.36l.18-.15s0,0,0,0l.11-.08.32-.24.59-.38c.18-.11.37-.22.57-.32l.17-.08.19-.1.25-.11.17-.07.42-.17.32-.12.48-.15.68-.18.13,0,.14,0,.2,0,.6-.1.31-.05.32,0h0c.11,0,.23,0,.35,0l.28,0c.21,0,.44,0,.66,0a24.88,24.88,0,0,1,5.33.43l.15,0h.18l.4,0,.44.06h.1l.65.08,1.59.23h0l.95.14.67.11.51.08.42.06.12,0,.69.1.73.12.28,0,.15,0,.16,0a.76.76,0,0,0,.16,0h.05l.45.08,1.28.22c.23,0,.46.09.7.12.47.1,1,.18,1.46.27l.14,0,1,.18.74.15.1,0,.36.07.83.16.82.16.24.05.51.1c1.41.29,2.89.6,4.42.94l1.94.43c1.71.39,3.49.81,5.32,1.26.6.14,1.21.29,1.83.46l2.09.54c1.58.42,3.21.87,4.85,1.33l.41.12c.42.11.83.23,1.25.36l.16,0c1,.28,1.9.56,2.85.86l.24.07.73.23c1.34.42,2.69.85,4.06,1.3,1,.33,2.05.68,3.08,1l1.55.54,1.55.56.54.19,2.58,1c.89.33,1.77.68,2.65,1l.48.18.63.27c.49.19,1,.38,1.45.59l2.09.87,2.08.91H106l0,0,.07,0,.09,0a1.6,1.6,0,0,1,.25.11l.17.1.41.22.24.14.25.16.26.17.28.19.1.07.39.29.42.33.32.27c.11.09.21.19.33.28l.33.31c.11.11.23.22.33.34l.24.25c.16.16.32.34.48.52s.25.29.37.45.35.44.52.68l.26.36.25.37.22.36c.08.12.15.24.22.36s0,.09.08.14A.47.47,0,0,1,113,59l.08.13.19.38.11.21c.1.2.2.39.29.6,0,0,0,.1.07.16.11.23.21.47.3.71s.22.58.32.87h0c.08.24.17.48.24.73l0,.07v0l.18.7s0,0,0,.06a1.29,1.29,0,0,1,0,.21,1.8,1.8,0,0,1,.06.22h0a.06.06,0,0,0,0,0s0,0,0,0v0c.06.26.12.53.16.81h0c.07.33.13.66.18,1s.1.84.14,1.27,0,.74.07,1.13h0c0,.4,0,.8,0,1.23,0,.89,0,1.81-.13,2.78a1.16,1.16,0,0,1,0,.13c0,.11,0,.3,0,.55a2.48,2.48,0,0,0,0,.29c0,.2,0,.44-.07.72s0,.57-.09.9c-.06.54-.12,1.16-.2,1.84,0,.31-.07.65-.12,1a.92.92,0,0,0,0,.16c0,.24-.07.47-.1.71s0,.26,0,.39c-.16,1.29-.37,2.74-.61,4.31-.06.38-.12.76-.18,1.16s-.17,1-.27,1.53c0,.26-.09.52-.13.79s-.09.53-.14.8c-.11.62-.23,1.26-.36,1.9-.17.85-.34,1.72-.53,2.61L112.07,94c-.08.33-.15.67-.24,1s-.16.76-.26,1.13-.18.77-.28,1.15c0,0,0,.06,0,.08L111,98.45c-.22.89-.46,1.78-.71,2.68-.13.48-.27,1-.41,1.43s-.29,1-.44,1.46c-.07.25-.15.49-.23.74s-.15.48-.22.73c-.15.48-.31,1-.47,1.44S108.17,107.93,108,108.43Z"/>
        <path class="cls-7" d="M113.32,125.28c-1.12,1.76-2.32,3.49-3.58,5.18a32.85,32.85,0,0,1-15.9,12,41.28,41.28,0,0,1-11.61,1l-.07-.15a34.64,34.64,0,0,0,11.66-8.57h0c.58-.64,1.13-1.29,1.68-2a103.76,103.76,0,0,0,12.72-20.9Z"/>
      </g>
      <g>
        <path class="cls-2" d="M209.91,51.1c-9-.71-19.81-1.32-19.81-1.32-2.64.14-5.77.22-9.14.25a4.6,4.6,0,0,0,3.29,1.76c7.63.32,15.27.75,22.91,1.05C209.18,52.93,210.09,52.37,209.91,51.1ZM184.7,27.56C165.11,14,143.75,7.54,119.62,8.9,88.41,10.66,46.27,15.67,15.48,20.68c-1,.23-1.51.49-1.57,1.34a1,1,0,0,0,0,.25l4.8,6.49.23.31L20.34,31l5,6.8H26c1.69-.06,4.72-.31,8.64-.71,2.14-.21,4.55-.46,7.15-.75l6.68-.75h.05c8.46-1,18.09-2.13,27-3.19h0l2.57-.3h.06l3.24-.39h0c11.39-1.36,20.77-2.44,23.65-2.58a27.52,27.52,0,0,0,8.72-2.26,121.94,121.94,0,0,1,16.82-5.8c10-2.35,19.35-1.19,27.88,5a77,77,0,0,1,10.72,9.25,90.1,90.1,0,0,1,6,7.44,84.75,84.75,0,0,1,17-9.31C189.54,31.2,187,29.15,184.7,27.56ZM61.59,28c5.28,1.11,10.81,2.46,16.5,4Z"/>
        <path class="cls-3" d="M310.48,119.44c.16-2.1.23-4.23.23-6.37a85.66,85.66,0,0,0-16.33-50.44Q275.6,59,256.65,56.34l-6.09-.83-.92-.11c-1.63-.22-3.26-.42-4.89-.62l-1.31-.16c-1.88-.23-3.76-.46-5.65-.67l-3.15-.36c-2.7-.3-5.39-.59-8.09-.87-3.35-.36-6.71-.7-10.06-1l-.73-.07-.22,0-1.34-.13-1-.09-1.44-.12-.75-.06-1.07-.1c-9-.71-19.81-1.32-19.81-1.32-2.64.15-5.77.22-9.14.26-4.69,0-9.84,0-14.77-.07a85.89,85.89,0,0,0-22,32.51,16.79,16.79,0,0,1,3.26,4.36l.09.19a61.18,61.18,0,0,1,3.47,8.12c4.6,13.12,9.17,26.23,16.41,38.22,8.39,13.87,18.45,25.92,33.89,32.38h0c.08.05.32.17.71.35a.75.75,0,0,0,.18.08c.31.15.69.31,1.14.51l.87.36c.19.06.38.14.59.22l.55.21h0l.61.23.69.24.68.23.74.23c.25.09.52.17.79.25l.84.25q2.56.77,6,1.52l.15,0,1,.2c1.23.26,2.53.5,3.91.74l1.15.18,1.38.22q2.52.36,5.34.66l1.11.11c.75.08,1.52.15,2.29.21l1.18.08c.88.07,1.78.13,2.71.17l2.23.11,2.08.07H241l1.16,0h2.75l1.94,0,2.38,0,1.5,0,1.52-.05c.47,0,.95,0,1.42-.06l1.45-.07,1.85-.11,1.57-.11,1.44-.11.66,0,1.11-.09,1.37-.12,1.37-.13,1-.1,1.4-.14,1-.11,1.63-.19h0c1.23-.15,2.47-.3,3.74-.48,12.36-2.41,21.56-8.09,27.34-17.68,1.21-2.28,2.33-4.62,3.34-7h0Z"/>
        <path class="cls-4" d="M244.53,173.28h-2.37l-1.16,0-.72,0c-.7,0-1.4,0-2.08-.07l-2.23-.1c-.93-.05-1.83-.11-2.71-.18l-1.18-.08-2.29-.2-1.11-.12q-2.82-.28-5.34-.66Z"/>
        <path class="cls-5" d="M244.53,173.28h-2.37l-1.16,0-.72,0-2.08-.07-2.23-.1c-.93-.05-1.83-.11-2.71-.18l-1.18-.08-2.29-.2-1.11-.12q-2.82-.28-5.34-.66l-4-10.56L181.6,61.37h0L181,59.68,199,52.85l3.51,9.3h0l38.75,102.56h0Z"/>
        <path class="cls-5" d="M269.5,171.74h0l21.84-8.26-3.65-9.67-32-84.71h0l-5.13-13.57-.92-.12c-1.63-.22-3.26-.42-4.89-.62l-1.31-.16c-1.88-.23-3.76-.46-5.65-.67l-3.15-.35c-2.7-.3-5.39-.6-8.09-.88l-10.06-1-.73-.08-.22,0-1.34-.12-1-.09-1.44-.13-.75-.06,4.57,12.09h0l38.21,101.1,3.21,8.5Z"/>
        <path class="cls-6" d="M105.92,52.28C74.11,38.18,40.08,34.36,40.08,34.36,22.36,31.13,23.36,46.24,23.36,46.24c-.6,40.27,12.29,60.61,12.29,60.61,9.26,19.13,39.06,27,39.06,27,14.1,3.83,22.15-4.83,22.15-4.83,15.91-18.12,18.53-56.59,18.53-56.59C116.8,56.51,105.92,52.28,105.92,52.28Z"/>
        <path class="cls-6" d="M130.17,83.72c0,.28,0,.56-.06.85v0c0,.21,0,.44-.07.66,0,0,0,0,0,.08a2.33,2.33,0,0,1,0,.37v0c0,.23-.06.46-.1.68s-.1.61-.16.91"/>
        <path class="cls-6" d="M130.15,84.1V84c0-.1,0-.22,0-.32v-.06c0-.19,0-.38,0-.58"/>
        <path class="cls-3" d="M130.25,80.85c0,.84,0,1.68-.07,2.51,0-.35,0-.7,0-1A9.43,9.43,0,0,1,130.25,80.85Z"/>
        <path class="cls-3" d="M130.18,83.36c0,.1,0,.2,0,.3C130.18,83.56,130.18,83.46,130.18,83.36Z"/>
        <path class="cls-3" d="M81.86,143.4h0a2.09,2.09,0,0,0,.3-.14,34.64,34.64,0,0,0,11.66-8.57h0c.58-.64,1.13-1.29,1.68-2a103.76,103.76,0,0,0,12.72-20.9c1.74-3.69,3.34-7.45,4.88-11.24,2.09-5.14,4.38-10.33,4.27-16-.06-2.49.44-3.59,2.3-3.87a9.93,9.93,0,0,1,1.89-.07l7.75-29.33c-.79-1.64-1.63-3.24-2.54-4.81-17.2-4-33.26-9.1-33.26-9.1-4.36-1.36-8.67-2.58-12.9-3.69l-2.13-.54c-1-.26-2-.5-3-.74h0C69.89,31,64.45,29.88,59.25,28.9h0c-6.86-1.29-13.28-2.26-19.06-3-6.06-.78-11.42-1.3-15.9-1.63-1,.73-2,1.49-3,2.27S19.54,28,18.69,28.76a68.21,68.21,0,0,0-7.82,8.12c-.74.89-1.45,1.8-2.14,2.74.09.42.18.83.29,1.26a17.09,17.09,0,0,0,1.18,3.19c.11.24.23.48.36.71a15,15,0,0,0,1,1.68,12.66,12.66,0,0,1,1.9,5.78h0c.05.39.1.77.14,1.15,0,.19,0,.39.06.57.3,3,.64,5.91,1,8.85h0L39,124.43l13.35,9.21,0,0,6,3.14a69.94,69.94,0,0,0,16,5.58Z"/>
        <path class="cls-5" d="M108.23,111.8a103.76,103.76,0,0,1-12.72,20.9c-.55.69-1.1,1.34-1.68,2h0a34.64,34.64,0,0,1-11.66,8.57l-3.25-8.62L41.76,36.34l-.27-.72,2.09-.8h0L59.25,28.9h0L61.59,28c5.28,1.11,10.81,2.46,16.5,4v0l.4,1,4,10.46h0l25,66.24h0Z"/>
        <path class="cls-5" d="M74.41,142.38a69.94,69.94,0,0,1-16-5.58l-4.5-11.91h0L23.43,44.37h0l-4.8-12.71L20.34,31l10.47-4,2.64,7,1.16,3.08L70.7,132.58h0Z"/>
        <path class="cls-6" d="M277.09,73.42c-69.47-15.3-106.93-11.68-106.93-11.68-13.65.71-6.84,16.31-6.84,16.31a16,16,0,0,0,5,5.84,39.81,39.81,0,0,1,8.46,8.26c5,4.63,5.23,29.4,5.23,29.4.81,19.53,11.88,27.59,11.88,27.59,42.09,29.2,88.51,8.56,88.51,8.56,19-8.46,15.4-56.79,15.4-56.79C296.93,79.76,277.09,73.42,277.09,73.42Z"/>
        <path class="cls-7" d="M440.71,79.8c-1-6.06-1.51-12.36-3.63-18.31-2.43-6.84-6.7-11.36-14.33-12a35.3,35.3,0,0,0-8.09.77C388,54.44,361.73,60.71,335.25,65.87c-1.76.35-3.52.67-5.28.93,1,4.77,1.76,12.7,0,24.44A480.18,480.18,0,0,1,393.07,77.9c7.45-1.09,14.7-2,20.45-7.62a31.75,31.75,0,0,1,9-6.06c1.68-.77,3.56-.91,4,1.23.41,2,.94,4.17,1.31,6.14,1.6,8.44,1.29,16.92,1.31,25.49,0,3.23,1.31,4.74,4.46,5.46,4.25,1,8.06-2.15,8.14-7A104.41,104.41,0,0,0,440.71,79.8Z"/>
        <path class="cls-7" d="M298.09,112.61c0,.58,0,1.17,0,1.76v.18c0,.27,0,.55,0,.82,0,.1,0,.2,0,.29,0,.39,0,.78,0,1.18,0,.1,0,.21,0,.31-.07,1.4-.15,2.85-.26,4.33,0,.13,0,.27,0,.41-.05.68-.11,1.36-.17,2s-.14,1.37-.22,2.07c-.14,1.26-.31,2.55-.49,3.83v.06c-.19,1.26-.4,2.53-.64,3.77-.19,1-.41,2-.63,3-.12.5-.24,1-.37,1.49l-.24,1a.53.53,0,0,0,0,.12c-.11.38-.22.75-.32,1.11s-.19.62-.28.93-.24.76-.37,1.14a.1.1,0,0,0,0,0c-.1.29-.2.59-.31.88s-.2.57-.31.85l0,.08c-.1.26-.19.53-.31.78s-.22.57-.35.84-.18.44-.28.65-.19.43-.3.64-.19.42-.3.63-.21.42-.32.62-.37.71-.57,1-.29.49-.43.73l-.34.54c-.11.18-.23.34-.35.52l-.47.67c-.13.17-.26.35-.4.52s-.11.15-.17.23-.28.35-.43.52-.32.38-.48.56t0,0h0c-.1.12-.2.22-.31.33l-.31.32c-.17.18-.35.35-.54.52l-.1.09-.14.11-.4.36c-.11.08-.21.17-.32.24a2.72,2.72,0,0,1-.32.25l0,0-.64.45c-.18.11-.34.23-.53.33l-.12.08-.06,0-.34.19-.13.07-.27.15-.15.07-.55.26-.14.07-.14.05-.28.12-.16.07-.47.19-.42.15c-.3.13-.64.25-1,.39l-.28.11-.42.15-.6.21-.42.14-.62.21-.25.08-.46.15-.49.16-1.27.38-.52.16-.89.26-1.19.33-1,.26-.92.24-.19,0-1.16.28c-.92.22-1.88.44-2.87.65-.71.15-1.44.29-2.19.43s-1.82.33-2.77.48l-1.13.17-.19,0-.2,0-.19,0-1.25.17-1.46.18q-1.53.18-3.12.33c-.67.06-1.34.11-2,.15h-.13q-1.08.07-2.19.12c-.57,0-1.15.06-1.74.07l-.81,0-2,0-1.73,0-1.82,0h-.14l-1.11,0h-.47l-.9,0c-1-.06-2-.14-3.05-.24l-.17,0c-.75-.07-1.53-.15-2.3-.25l-1.2-.16-1.11-.16-1.17-.18-.87-.14-.11,0c-.29-.05-.59-.09-.88-.15q-2.79-.51-5.62-1.23l-1.42-.37-1.43-.4-1.57-.47-1.52-.48-1.39-.48-.12,0-1.37-.49-.87-.34-1.16-.45-1.5-.61-1.58-.68-.13-.06q-.49-.21-1-.45l-.09,0-.87-.41c-.38-.17-.75-.35-1.12-.54l-1.46-.74-.11-.06c-.45-.23-.91-.47-1.36-.72s-1.09-.6-1.64-.92c-1.11-.62-2.2-1.28-3.3-2-.4-.25-.79-.5-1.18-.77-.7-.45-1.4-.92-2.09-1.4,0,0-11.08-8.06-11.89-27.59h0c0-.43.17-16.14-2.88-25a.24.24,0,0,0,0-.08l-.06-.17a.36.36,0,0,0,0-.07,12.4,12.4,0,0,0-2.24-4.11l-.05-.06s0,0,0-.07a64,64,0,0,0-8.36-8.13,24.3,24.3,0,0,1-5-5.8,0,0,0,0,1,0,0h0s0-.08-.07-.17-.09-.21-.14-.35h0c-.09-.24-.2-.54-.31-.91-.09-.22-.16-.47-.24-.74s-.09-.28-.13-.43l0-.12c-.06-.19-.1-.38-.15-.58a3,3,0,0,1-.08-.32c0-.1-.05-.2-.08-.3h0l-.06-.33c0-.1,0-.21-.07-.31v0c-.05-.23-.08-.47-.11-.7a1.77,1.77,0,0,1-.05-.32,2.57,2.57,0,0,1-.05-.4c0-.12,0-.24,0-.36s0-.25,0-.37a2.17,2.17,0,0,1,0-.36q0-.37,0-.75t0-.72v0a5.67,5.67,0,0,1,.06-.71,1.65,1.65,0,0,1,0-.21.17.17,0,0,0,0-.07c0-.08,0-.15,0-.22s.06-.34.1-.51c.65-2.82,2.58-5.27,7.17-5.87l.84-.08h.28s3.88-.38,11.44-.38h3.6l1.31,0,1.83,0c.31,0,.63,0,.95,0h.19l1.18,0,1.32,0,1.35,0,1.07.06.48,0,.86,0,.88,0h.08l3.4.2.43,0,2,.13,1.51.11q5.34.39,11.5,1c5.67.58,11.86,1.32,18.56,2.28S248,67.69,255.69,69.1q10.14,1.86,21.4,4.33h0l.11,0,.1,0,.24.09a1.56,1.56,0,0,1,.15.06l.23.09.46.18h0l.5.22.11,0a8.31,8.31,0,0,1,.82.38l.26.12.4.2.05,0,.68.37c.24.12.48.25.73.4l.15.08,1,.58,1,.66c.51.34,1,.71,1.58,1.11l.56.43.62.5c.71.59,1.42,1.22,2.13,1.91.16.14.32.3.47.46s.53.54.79.83.4.44.59.67l.21.24c.23.27.46.56.68.85l.06.07c.24.31.47.61.7.94.11.16.23.32.33.48l.33.49c.49.75,1,1.54,1.4,2.38.17.32.33.64.48,1s.26.56.39.86.25.58.36.88l.33.86.3.89,0,.1.21.72c.08.25.14.5.21.76s.15.61.22.92.12.55.17.83a.43.43,0,0,1,0,0c.06.29.11.59.16.9s.08.55.12.83.05.34.07.52.06.53.08.79l.07.82c0,.27,0,.55,0,.83,0,0,0,.13,0,.38,0,.08,0,.17,0,.27a1.09,1.09,0,0,0,0,.18,1.15,1.15,0,0,1,0,.19s0,.07,0,.12v.06h0v0c0,.13,0,.28,0,.44s0,.18,0,.27,0,.25,0,.39a.17.17,0,0,1,0,.07v.09h0c0,.11,0,.22,0,.33,0,.31,0,.65,0,1v0l0,.64v.12c0,.19,0,.38,0,.59s0,.41,0,.63v0c0,.25,0,.51,0,.78C298.11,109.06,298.12,110.75,298.09,112.61Zm32.06-45.84s0,0,0,0a46.2,46.2,0,0,1-16.73-.22q-9.5-2.06-19-3.87Q275.6,59,256.65,56.34l-6.09-.83-.92-.11c-1.63-.22-3.26-.42-4.89-.62l-1.31-.16c-1.88-.23-3.76-.46-5.65-.67l-3.15-.36c-2.7-.3-5.39-.59-8.09-.87-3.35-.36-6.71-.7-10.06-1l-.73-.07-.22,0-1.34-.13-1-.09-1.44-.12-.75-.06-1.07-.1c-9-.71-19.81-1.32-19.81-1.32-2.64.15-5.77.22-9.14.26-4.69,0-9.84,0-14.77-.07-11.73-.18-22.21-.59-22.21-.59-.85-.1-1.72-.22-2.62-.34-3.48-.5-7.25-1.21-11.11-2.06-3-.63-6-1.34-8.92-2.09-16.1-4.05-31.12-9.1-31.12-9.1-4.07-1.36-8.11-2.58-12.06-3.69h-.06c-5.69-1.59-11.22-2.94-16.5-4-7.72-1.66-14.89-2.86-21.26-3.73-5.21-.72-9.87-1.21-13.85-1.54l-1-.08c-5.35-.45-9.34-.61-11.55-.66-1.3,0-2,0-2,0A3.09,3.09,0,0,0,9,24.54a21.59,21.59,0,0,0-.49,3.29c-.19,4-.5,8,.24,11.79.09.42.18.83.29,1.26a17.09,17.09,0,0,0,1.18,3.19c.11.24.23.48.36.71a15,15,0,0,0,1,1.68,12.66,12.66,0,0,1,1.9,5.78h0c.05.39.1.77.14,1.15,0,.19,0,.39.06.57.3,3,.64,5.91,1,8.85h0c.35,2.76.76,5.52,1.21,8.26A242.31,242.31,0,0,0,21.39,96.4c3,10.94,8.14,20.55,17.25,27.7,0,0,.13.12.39.33l1.15.94a99.25,99.25,0,0,0,12.2,8.27l0,0c1.85,1.07,3.85,2.13,6,3.14a69.94,69.94,0,0,0,16,5.58c.8.18,1.61.33,2.42.46a49.28,49.28,0,0,0,5,.56h.37l-.07-.15a34.64,34.64,0,0,0,11.66-8.57h0c.58-.64,1.13-1.29,1.68-2a103.76,103.76,0,0,0,12.72-20.9l5.09,13.48c5.42-8.43,9.34-17.61,12.89-27a65.51,65.51,0,0,0,3.52-11c.06-.3.11-.6.16-.91s.07-.45.1-.68v0a2.33,2.33,0,0,0,0-.37s0,0,0-.08c0-.22.05-.45.07-.66s0-.33,0-.49V84c0-.13,0-.25,0-.38s0-.38,0-.58a.45.45,0,0,0,0-.12v-.65a9.37,9.37,0,0,1,.06-1.46,3.11,3.11,0,0,1,.07-.47c.32-1.63,1.35-2.13,3.79-2a17.2,17.2,0,0,1,4.49.79,14,14,0,0,1,5.63,3.31,16.79,16.79,0,0,1,3.26,4.36l.09.19a61.18,61.18,0,0,1,3.47,8.12c4.6,13.12,9.17,26.23,16.41,38.22,8.39,13.87,18.45,25.92,33.89,32.38h0c.08.05.32.17.71.35a.75.75,0,0,0,.18.08c.31.15.69.31,1.14.51l.87.36c.19.06.38.14.59.22l.55.21h0l.61.23.69.24.68.23.74.23c.25.09.52.17.79.25l.84.25q2.56.77,6,1.52l.15,0,1,.2c1.23.26,2.53.5,3.91.74l1.15.18,1.38.22q2.52.36,5.34.66l1.11.11c.75.08,1.52.15,2.29.21l1.18.08c.88.07,1.78.13,2.71.17l2.23.11,2.08.07H241l1.16,0h2.75l1.94,0c.78,0,1.57,0,2.38,0l1.5,0,1.52-.05c.47,0,.95,0,1.42-.06l1.45-.07,1.85-.11,1.57-.11,1.44-.11.66,0,1.11-.09,1.37-.12,1.37-.13,1-.1,1.4-.14,1-.11,1.63-.19h0c1.23-.15,2.47-.3,3.74-.48,12.36-2.41,21.56-8.09,27.34-17.68a40.51,40.51,0,0,0,3.34-7h0a50.38,50.38,0,0,0,1.54-4.82q2.91-11.09,5-22.3c1-5.66,1.94-11.35,2.71-17.08a8.81,8.81,0,0,1,5.74-7.47,48.65,48.65,0,0,1,5.12-1.82c2-.63,4.07-1.23,6.12-1.82,0,0,0,0,0,0h0C331.92,79.49,331.17,71.53,330.15,66.77ZM108,108.43l-.07.21c0,.13-.09.25-.14.37-.09.28-.2.56-.3.84l-.06.16a1.89,1.89,0,0,1-.06.18c0,.09-.07.18-.1.27s0,.12-.07.17c-.12.32-.24.64-.36.94s-.25.63-.37.94l-.63,1.53,0,0-.06.12c-.25.58-.5,1.16-.76,1.72-.17.38-.34.75-.52,1.12-.36.74-.72,1.47-1.1,2.19-.15.3-.3.58-.46.87s-.42.78-.64,1.16-.44.77-.66,1.14l-.5.82-.77,1.18c-.21.33-.43.65-.65,1l-.1.14c-.27.38-.54.76-.82,1.12s-.62.83-1,1.22l-.42.51-.55.65a3.45,3.45,0,0,1-.26.25,1.94,1.94,0,0,1-.25.23,14.92,14.92,0,0,1-1.36,1.1l-.35.25-.38.27-.45.28c-.18.12-.37.24-.57.35a3.72,3.72,0,0,1-.48.27l-.09.05-.36.19-.38.2-.55.26q-.42.21-.87.39h0l-.31.12-.55.21-.08,0c-.21.08-.43.16-.66.23l-.69.21c-.16,0-.33.1-.49.13l-.35.09c-.2.06-.4.1-.61.15l-.58.12h-.07c-.24,0-.47.09-.71.12l-.21,0-.82.11h0l-.77.07h0l-.45,0H83l-.47,0H80.94l-.73,0-1.3-.12-.11,0-.63-.07-.57-.09c-.27,0-.53-.09-.8-.15s-.67-.13-1-.21l-1.09-.27s-.61-.16-1.68-.49l-.66-.21L71.9,133l-.75-.25-.31-.11-.14,0-.66-.23-.7-.25c-.92-.33-1.94-.72-3-1.15l-.66-.26a.47.47,0,0,0-.15-.06l-1.22-.52c-.31-.12-.63-.26-1-.4-.75-.32-1.51-.67-2.29-1l-.79-.38c-.79-.37-1.59-.77-2.41-1.2-.52-.26-1-.54-1.57-.83-.8-.44-1.6-.89-2.4-1.37h0l-1.4-.86c-.4-.24-.8-.49-1.18-.75s-.58-.39-.88-.59l-.78-.54q-.4-.27-.81-.57c-.26-.18-.51-.37-.76-.56-.42-.31-.83-.63-1.24-1s-.78-.62-1.16-.94l-1-.83c-.13-.13-.26-.24-.39-.35l-.33-.3,0,0v0l-.08-.07-.22-.2-.2-.2-.26-.24-.46-.45-.37-.37-.74-.77h0l-.2-.21-.18-.21c-.22-.23-.44-.47-.64-.71s-.57-.66-.84-1c-.05-.06-.1-.13-.16-.19l-.79-1h0c-.19-.26-.38-.52-.56-.79s-.39-.55-.58-.84c-.36-.55-.71-1.12-1-1.69-.11-.18-.21-.37-.31-.56a5.42,5.42,0,0,1-.26-.48c-.12-.23-.24-.48-.36-.72,0,0-.46-.73-1.2-2.18-.1-.19-.21-.39-.31-.61s-.3-.62-.47-1c-.27-.57-.57-1.21-.88-1.92,0,0,0-.08,0-.13s0,0,0-.05h0l0-.07c0-.1-.09-.21-.15-.32-.34-.81-.71-1.7-1.08-2.67l-.52-1.34c-.09-.27-.19-.56-.3-.85a.3.3,0,0,0,0-.1v0c-.11-.29-.21-.59-.31-.89-.27-.75-.53-1.55-.8-2.38-.09-.3-.19-.6-.28-.92-.59-1.86-1.15-3.9-1.7-6.11l-.27-1.11c-.09-.34-.17-.68-.25-1A.61.61,0,0,0,27,83c-.09-.39-.17-.77-.26-1.17-.17-.8-.35-1.62-.51-2.46s-.33-1.67-.48-2.52a.64.64,0,0,1,0-.07c-.15-.84-.29-1.7-.43-2.58l-.15-1,0-.22s0-.06,0-.09,0-.06,0-.09c-.07-.46-.14-.92-.2-1.39,0-.09,0-.17,0-.26s0-.27,0-.42-.08-.55-.11-.84c-.07-.52-.13-1-.2-1.56s-.1-.86-.14-1.29-.13-1.1-.18-1.67c-.09-.93-.18-1.86-.26-2.82V62.5c-.05-.53-.09-1.06-.12-1.6s-.09-1.38-.13-2.08-.08-1.34-.11-2-.05-1.21-.07-1.82v-.12c0-.35,0-.71,0-1.07,0-.14,0-.28,0-.41,0-.29,0-.58,0-.87,0-.58,0-1.16,0-1.76,0-1.47,0-3,0-4.51v-.09c0-.11,0-.34,0-.64,0-.1,0-.21,0-.33v0c0-.09,0-.19,0-.29s0-.3,0-.46v0c0-.14,0-.27.05-.42s0-.31.07-.47a1.7,1.7,0,0,1,0-.22c0-.23.09-.47.14-.71l.12-.47c0-.17.09-.33.15-.5l.09-.3a1.18,1.18,0,0,0,.07-.2c.05-.12.09-.25.15-.38a3.12,3.12,0,0,1,.15-.39l.12-.25c.07-.17.16-.34.25-.51s.18-.34.28-.5a.3.3,0,0,1,.06-.11c.08-.14.17-.26.25-.4l.12-.17.06-.08c.12-.17.24-.32.37-.48h0l.08-.1.32-.37h0c.14-.15.28-.3.43-.44l0,0a4.48,4.48,0,0,1,.4-.36l.18-.15s0,0,0,0l.11-.08.32-.24.59-.38c.18-.11.37-.22.57-.32l.17-.08.19-.1.25-.11.17-.07.42-.17.32-.12.48-.15.68-.18.13,0,.14,0,.2,0,.6-.1.31-.05.32,0h0c.11,0,.23,0,.35,0l.28,0c.21,0,.44,0,.66,0a24.88,24.88,0,0,1,5.33.43l.15,0h.18l.4,0,.44.06h.1l.65.08,1.59.23h0l.95.14.67.11.51.08.42.06.12,0,.69.1.73.12.28,0,.15,0,.16,0a.76.76,0,0,0,.16,0h.05l.45.08,1.28.22c.23,0,.46.09.7.12.47.1,1,.18,1.46.27l.14,0,1,.18.74.15.1,0,.36.07.83.16.82.16.24.05.51.1c1.41.29,2.89.6,4.42.94l1.94.43c1.71.39,3.49.81,5.32,1.26.6.14,1.21.29,1.83.46l2.09.54c1.58.42,3.21.87,4.85,1.33l.41.12c.42.11.83.23,1.25.36l.16,0c1,.28,1.9.56,2.85.86l.24.07.73.23c1.34.42,2.69.85,4.06,1.3,1,.33,2.05.68,3.08,1l1.55.54,1.55.56.54.19,2.58,1c.89.33,1.77.68,2.65,1l.48.18.63.27c.49.19,1,.38,1.45.59l2.09.87,2.08.91H106l0,0,.07,0,.09,0a1.6,1.6,0,0,1,.25.11l.17.1.41.22.24.14.25.16.26.17.28.19.1.07.39.29.42.33.32.27c.11.09.21.19.33.28l.33.31c.11.11.23.22.33.34l.24.25c.16.16.32.34.48.52s.25.29.37.45.35.44.52.68l.26.36.25.37.22.36c.08.12.15.24.22.36s0,.09.08.14A.47.47,0,0,1,113,59l.08.13.19.38.11.21c.1.2.2.39.29.6,0,0,0,.1.07.16.11.23.21.47.3.71s.22.58.32.87h0c.08.24.17.48.24.73l0,.07v0l.18.7s0,0,0,.06a1.29,1.29,0,0,1,0,.21,1.8,1.8,0,0,1,.06.22h0a.06.06,0,0,0,0,0s0,0,0,0v0c.06.26.12.53.16.81h0c.07.33.13.66.18,1s.1.84.14,1.27,0,.74.07,1.13h0c0,.4,0,.8,0,1.23,0,.89,0,1.81-.13,2.78a1.16,1.16,0,0,1,0,.13c0,.11,0,.3,0,.55a2.48,2.48,0,0,0,0,.29c0,.2,0,.44-.07.72s0,.57-.09.9c-.06.54-.12,1.16-.2,1.84,0,.31-.07.65-.12,1a.92.92,0,0,0,0,.16c0,.24-.07.47-.1.71s0,.26,0,.39c-.16,1.29-.37,2.74-.61,4.31-.06.38-.12.76-.18,1.16s-.17,1-.27,1.53c0,.26-.09.52-.13.79s-.09.53-.14.8c-.11.62-.23,1.26-.36,1.9-.17.85-.34,1.72-.53,2.61L112.07,94c-.08.33-.15.67-.24,1s-.16.76-.26,1.13-.18.77-.28,1.15c0,0,0,.06,0,.08L111,98.45c-.22.89-.46,1.78-.71,2.68-.13.48-.27,1-.41,1.43s-.29,1-.44,1.46c-.07.25-.15.49-.23.74s-.15.48-.22.73c-.15.48-.31,1-.47,1.44S108.17,107.93,108,108.43Z"/>
        <path class="cls-7" d="M113.32,125.28c-1.12,1.76-2.32,3.49-3.58,5.18a32.85,32.85,0,0,1-15.9,12,41.28,41.28,0,0,1-11.61,1l-.07-.15a34.64,34.64,0,0,0,11.66-8.57h0c.58-.64,1.13-1.29,1.68-2a103.76,103.76,0,0,0,12.72-20.9Z"/>
      </g>
    </g>
  </g>
</svg>
