<svg id="Layer_1" data-name="Layer 1" xmlns="http://www.w3.org/2000/svg" width="208" height="306.55" viewBox="0 0 208 306.55">
  <defs>
    <style>
      .cls-1 {
        fill: #fffa4d;
      }

      .cls-2 {
        fill: #f7e3c3;
      }

      .cls-3 {
        fill: #f9ddb0;
      }

      .cls-4 {
        fill: #f3b248;
      }

      .cls-5 {
        fill: #bc6eab;
      }

      .cls-6 {
        fill: #f4d29d;
      }

      .cls-7 {
        fill: #f7d192;
      }

      .cls-8 {
        fill: #f0c273;
      }

      .cls-9 {
        fill: #a4388a;
      }

      .cls-10 {
        fill: #f1c376;
      }

      .cls-11 {
        fill: #f1a323;
      }

      .cls-12 {
        fill: #bc6eac;
      }

      .cls-13 {
        fill: #cd94be;
      }

      .cls-14 {
        fill: #b25d9f;
      }

      .cls-15 {
        fill: #f1b247;
      }

      .cls-16 {
        fill: #f1a220;
      }

      .cls-17 {
        fill: #a5348c;
      }

      .cls-18 {
        fill: #a5348b;
      }

      .cls-19 {
        fill: #bc6dac;
      }

      .cls-20 {
        fill: #ac5097;
      }

      .cls-21 {
        fill: #cd94bd;
      }

      .cls-22 {
        fill: #cc93ba;
      }

      .cls-23 {
        fill: #f3a21e;
      }

      .cls-24 {
        fill: #f1a21d;
      }

      .cls-25 {
        fill: #f2c373;
      }

      .cls-26 {
        fill: #e1c6d9;
      }

      .cls-27 {
        fill: #e1c5df;
      }

      .cls-28 {
        fill: #f7e7ec;
      }

      .cls-29 {
        fill: #cd95be;
      }

      .cls-30 {
        fill: #f1d2a5;
      }

      .cls-31 {
        fill: #f8e8ea;
      }

      .cls-32 {
        fill: #f8e7e8;
      }
    </style>
  </defs>
  <g>
    <path class="cls-1" d="M71.62,295.9c-5.65,0-12.84-1.13-18.28-9.91-5.59-9-11.81-18-17.83-26.66-2.63-3.78-5.34-7.69-8-11.58-2.38-3.49-4.74-7-7-10.48q-1.38-2.09-2.77-4.16a15.52,15.52,0,0,1-4.4-11.52,113.32,113.32,0,0,0-.48-14.24c-.27-3.64-.55-7.4-.59-11.24-.15-13.29-.45-27.56-1.67-41.78-.17-2-.62-7.24,3.06-11.81q7.89-9.79,15.81-19.55L37.7,112.8c1.59-2,3.19-3.91,4.8-5.86,3.86-4.7,7.86-9.55,11.44-14.44,1.51-2.07,6.1-8.33,14.66-8.33a19.54,19.54,0,0,1,2.39.15h1c0-.16,0-.32,0-.48V83.6a10.43,10.43,0,0,1,4.06-8.67,7.5,7.5,0,0,1-1.7-1.72,13.89,13.89,0,0,1-2.3-9.81c0-.32,0-.75,0-.9q0-.51-.06-1c-4.58-3.52-4.17-9-3.85-11.46a15.65,15.65,0,0,1-.54-13.2l.07-.46c.18-1.2.36-2.4.53-3.6C68.11,28.25,70.31,26,72,24.88c0-.18,0-.36,0-.52,0-2.44,0-6.12,2.26-9.62a8,8,0,0,1,6.31-3.61c5.75-.27,11.79-.41,18-.41,4.32,0,8.85.07,13.45.2h.16c2.69-.13,5.47-.27,8.3-.27a64.88,64.88,0,0,1,8.1.46,8.18,8.18,0,0,1,2.76.88c2.47,1.31,5.38,4.06,5.22,9.67v.2q0,19.62,0,39.26V66A11.52,11.52,0,0,1,135,72.24h9.39a23.49,23.49,0,0,1,21.25-13.57c11.49,0,21.21,8.63,23.11,20.52,0,.18.05.36.07.55,1.19,13.43-6.24,23.8-18.93,26.42a22.56,22.56,0,0,1-4.08.46c.31.36.61.73.92,1.1,3.79,4.51,7.7,9.18,11.27,14.17,3.42,4.78,7.09,9.28,11,14.05,1.82,2.24,3.64,4.47,5.43,6.72a13.37,13.37,0,0,1,3.11,8.95c-.15,4.77-.23,9.66-.32,14.38-.17,10.06-.35,20.46-1.19,30.76-.25,3.1-.26,6.27-.27,9.63,0,6-.05,12.28-1.49,18.76a13.18,13.18,0,0,1-1.24,3.26c0,.08-.09.17-.13.26a73.75,73.75,0,0,1-7.4,12.2c-1,1.47-2,2.87-2.93,4.27-5.73,8.79-11.65,17.64-17.38,26.19-4,5.92-7.93,11.84-11.86,17.78a14.07,14.07,0,0,1-12.53,6.76h-.11c-9.68-.05-22.44-.11-35.34-.11-12.11,0-23,.05-33.26.16Z"/>
    <g>
      <path class="cls-2" d="M24,228.09A8,8,0,0,1,21.33,222c.46-8.7-1-17.31-1.06-26-.16-14.14-.49-28.28-1.7-42.37-.18-2.17-.11-4.33,1.32-6.11q12-14.88,24-29.71C49.45,111,55.21,104.31,60.4,97.22c2.62-3.58,5.39-5.61,9.86-4.92a8.93,8.93,0,0,0,1.37,0c8,0,8,0,8.34-8.11,0-1.06-.12-2.17.93-2.9a6.45,6.45,0,0,1,1.33,5.09C82,90.05,83.85,91.14,87.16,91c3.15-.18,6.3.11,9.46,0,7.32-.08,14.64,0,22,.09,6.85,0,6.85,0,8.64-6.23A4,4,0,0,1,130.29,83c6.34-.2,12.71-1,19,.56a1.16,1.16,0,0,1,.45,1.52c-5.93.1-11.86.07-17.8.7-2.63.28-3.33,1.15-3.34,3.62s1.35,3,3.47,2.94c2.44-.08,4.93.29,7.32-.07,4.22-.65,6.74,1.75,8.72,4.67,7.08,10.44,16,19.39,23.35,29.63,5.22,7.29,11.09,14.07,16.65,21.08a5.41,5.41,0,0,1,1.39,3.72c-.48,14.92-.28,29.9-1.49,44.75-.74,9.11.41,18.3-1.6,27.3a10.8,10.8,0,0,1-.87,2c-2.3-1.13-6.1,1.34-7.1-2.95.17-10.83,1.16-21.62,1.33-32.46.18-11.26.45-22.55,1.42-33.79a8.55,8.55,0,0,0-2-6.35c-12.06-15.36-24.5-30.43-36.52-45.82a7.19,7.19,0,0,0-6.23-3.13c-3.51.09-7-.07-10.54.13-7.87,0-15.74.17-23.61-.06a54.92,54.92,0,0,1-5.88,0c-4.65.13-9.3.08-13.95.06-16.91,0-12.32-2.27-22.87,10.51-9.93,12-19.12,24.63-29.28,36.45-4,4.68-3.48,9.94-3.06,15.2,1,11.87,1.4,23.77,1.5,35.66.07,7.63,1.57,15.2.82,22.84C28.43,224.41,24.89,225.08,24,228.09Z"/>
      <path class="cls-3" d="M24,228.09c-.41-3.43,1-5.29,4.56-5.43,1.47-.55,1.87.78,2.64,1.48,10.14,15.4,20.71,30.53,30.8,46,3.74,8.44,10.61,10.28,19,9A13.57,13.57,0,0,1,82.8,279c7.82,0,15.65-.17,23.47,0,2,.05,3.9-.19,5.85,0,4.61,0,9.21-.11,13.81,0a24.64,24.64,0,0,1,2.72.08c8,1.44,13.91-1,17.14-8.8C156.6,255.67,166,240,176.51,225.16c.72-.76,1.08-2.11,2.58-1.56,2,1.05,4.88-.85,6.46,1.81-2.51,5.57-6.42,10.28-9.73,15.35-9.59,14.73-19.5,29.25-29.2,43.92a6.23,6.23,0,0,1-5.93,3.17c-22.9-.12-45.81-.18-68.72,0-5.33.05-8.71-1.09-11.83-6.12-8.15-13.16-17.28-25.71-26-38.52C30.73,238.23,27.39,233.15,24,228.09Z"/>
      <path class="cls-4" d="M112.1,18.93a89.92,89.92,0,0,1,15.48.12c.09.13.24.25.24.38.49,16.36.58,32.71,0,49.07l0,.06a1.13,1.13,0,0,1-1.47-.44c-1.18-2.11-.91-4.44-.92-6.71,0-11.58,0-23.15,0-34.73,0-4.8-.78-5.3-5.18-5.46-4-.15-4.82,2-4.8,5.41.08,12.65,0,25.29,0,37.94a14.13,14.13,0,0,1-.24,4.54,2.86,2.86,0,0,1-1.3,1.11c-6,.8-12.09,1.18-18.1-.29-2.06-1.52-2.34-3.79-2.39-6.07a59.76,59.76,0,0,0-.92-8.55c-.15-8.41-.4-16.82.12-25.23.12-1.21.4-2.4.53-3.61.79-7.09.79-7,8.14-7.13C104.85,19.28,108.51,19.92,112.1,18.93Z"/>
      <path class="cls-5" d="M149.67,80.23c1.56-4.15,3.27-8.19,7.15-10.8,9.77-6.57,22.11-.91,24,11-1.1,7.62-6.37,11-13.16,12.43-6.49,1.36-11.46-1.47-15.28-6.64a50.16,50.16,0,0,1-2.85-4.64A1.49,1.49,0,0,1,149.67,80.23Z"/>
      <path class="cls-6" d="M93.66,30l0,25.62c-.91,2-2.66,1.51-4.29,1.47-6.37-.16-7,.47-7.26,6.61,0,1.5,0,3-.77,4.39l-.55.46c-1.49-2.05-.57-4.4-.75-6.6-.19-2.49.3-4.79-2.73-6.52-2.44-1.39-.83-4.71-1-7.19,1.2-1,2.32-.13,3.44.2,2.84.86,4.71-.53,6.18-2.7a4.6,4.6,0,0,0-.24-5.92A5.55,5.55,0,0,0,79.18,38c-1.25.42-2.23,1.74-3.78,1.13.28-1.91.58-3.82.84-5.74.08-.59-.12-1.64.11-1.74,6.11-2.5,2.14-8.69,4.63-12.49,1.41,1.45,1.32,3.33,1.23,5.08-.17,3.39,1.46,4.48,4.62,4.4C89.16,28.55,91.68,28.08,93.66,30Z"/>
      <path class="cls-7" d="M95.62,69.34l18.25.13c1.7,1.85,1.81,4.18,1.76,6.46-.1,4-1.57,5.5-5.57,5.68-5.78.27-11.59-.33-17.36.75a5.41,5.41,0,0,1-5.36-2c0-.61,0-1.22,0-1.83,0-7.79,0-7.79-6.5-10l.24-.16C86.1,66,90.87,67.49,95.62,69.34Z"/>
      <path class="cls-8" d="M87.34,80.39c8,1.1,16-.52,24-.07,3.56.2,3.07-3.11,3-5s-.31-3.92-.48-5.88l1-.17c1.63-1.44,3.39-1.24,5.21-.44,1.47,2.3.4,4.85.67,7.27.15,1.4-.63,2.93.63,4.17v0a1.16,1.16,0,0,1-.32,1.44c-2.22,1.28-4.66.84-7,.94-4.21-.06-8.43-.07-12.65,0-4.88.09-5.79,1.2-5.24,6.05.13,1.18.74,2.31.36,3.55-1.5,0-3,.09-4.51.08-11.07,0-11.07,0-11.1-11Z"/>
      <path class="cls-9" d="M149.93,81.17c2.25.8,2.52,3.23,3.7,4.83,7.83,10.71,21.93,5.64,26.05-3.18.38-.8.77-1.59,1.15-2.38.83,9.31-4,16.09-12.57,17.87-7.53,1.56-14.79-3-17.63-11.17-.25-.71-.58-1.4-.88-2.09a1.39,1.39,0,0,0,0-.9,2,2,0,0,1-.61-2.18A1.38,1.38,0,0,1,149.93,81.17Z"/>
      <path class="cls-10" d="M93.66,30l-2.26-.05C80.83,29.85,80.83,29.85,81,19.12c10.37-.48,20.74-.49,31.12-.19-4,1.85-8.3.82-12.42.74-3.92-.07-5.65,1-5.06,5.06A7.08,7.08,0,0,1,93.66,30Z"/>
      <path class="cls-11" d="M75.4,39.09c4.58-3.71,7.6-3.93,10.8-.8,2.65,2.59,2.68,6,.27,9-3.09,3.88-6.52,2.91-10.1.93C74.45,45.34,73.71,42.35,75.4,39.09Z"/>
      <path class="cls-7" d="M127.78,68.5q-.09-24.73-.2-49.45c1.19.64,1,1.78,1,2.81q0,22.05,0,44.12A3.07,3.07,0,0,1,127.78,68.5Z"/>
      <path class="cls-7" d="M121.33,81.13a4.2,4.2,0,0,1,.06-.87l28.28,0c.08.31.17.63.26.94l-.27.13a4.71,4.71,0,0,1-3.31,1.31c-7.12.07-14.25.13-21.38,0A4.24,4.24,0,0,1,121.33,81.13Z"/>
      <path class="cls-7" d="M121.4,80.3c-3-3.4-.05-7.37-1.05-11,1.81-2.72,4.05-2.41,6.45-.88l1,.1c-1.51,2.17-4.93-.28-5.9,2C120.57,73.62,121.46,77,121.4,80.3Z"/>
      <path class="cls-12" d="M179.09,223.6l-1.63,1.87c-10.66.39-21.34,1.3-32-.52-2.26-2-1.62-4.77-1.71-7.3-.72-20.15,1.09-40.25,1-60.4a45.57,45.57,0,0,0-3.53-17.31c-4.67-11.45-9.51-22.83-13.62-34.5-.65-1.84-1.72-3.64-.8-5.71,9.56-1.79,16.1,1.21,22,9.72,9.68,14,21.08,26.76,31.84,40a8.72,8.72,0,0,1,1.92,6.33c-.61,13.54-1.15,27.07-1.7,40.6-.32,7.91-.56,15.83-.92,23.74A18.28,18.28,0,0,1,179.09,223.6Z"/>
      <path class="cls-13" d="M126.84,99.73l18.27,46.69A7.6,7.6,0,0,1,146,149c-.2,11.56.71,23.14-.5,34.7-.44,4.23-.29,8.52-.31,12.78-.05,9.31,0,18.61-.05,27.92l-.62.6a59.66,59.66,0,0,1-22,0c-2.62-4.05-3.17-8.54-2.75-13.22a5,5,0,0,1,2.63-2.43c6.35-2.76,8.27-8.19,8.56-14.45.26-5.32.22-10.67,0-16-.37-10.16-5.2-14.87-15.35-15.55-4.35-.29-8.85,1-13-1.1a47.46,47.46,0,0,1-6.23-20.88,104.68,104.68,0,0,1,2.24-33.23c.72-2.95,1.37-6,3.41-8.41Z"/>
      <path class="cls-12" d="M30.42,224.44l-1.84-1.78q-1-27.22-1.95-54.47a44.18,44.18,0,0,0-.65-5c-1.11-7.7,1.23-13.79,6.48-19.85,11.3-13,21.77-26.73,32.37-40.33,2.16-2.77,4.42-3.77,7.75-3.48,3,.25,6.11.13,9.16.18.81,2.28-.57,4.13-1.27,6.09C75.65,119.17,69.81,132.1,65,145.45a21.07,21.07,0,0,0-1.37,8.91c.2,2.68.75,5.51-1,8a3.34,3.34,0,0,1-.77.49c-12.94,4.93-13.68,6-13.68,20,0,4.26,0,8.51,0,12.77.13,8.51,4,13.08,12.47,14.79,1.19.24,2.42.36,3.26,1.41a21.57,21.57,0,0,1,.11,12.33,3,3,0,0,1-1.29,1.14c-9.8,1.3-19.64.58-29.46.41A6.41,6.41,0,0,1,30.42,224.44Z"/>
      <path class="cls-13" d="M62.55,162c-2.42-12.86,4-23.71,8.14-35,3.38-9.2,7.35-18.19,11.06-27.27H96.56c1.21,2,.32,3.88-.16,5.75-4.41,17.23-4.69,34.41.31,51.58.54,1.86,1.33,3.86-.56,5.53-2.27,1.18-4.73.89-7.14.9-6.82,0-13.64.06-20.46,0C66.46,163.48,64.26,163.73,62.55,162Z"/>
      <path class="cls-14" d="M96.55,162c-2.52-9.83-4.85-19.59-4.84-30a118.14,118.14,0,0,1,4.85-32.26l5.39,0c-.84,6-3,11.65-3.71,17.68-1.88,14.84-1.41,29.34,4.44,43.35a7.29,7.29,0,0,1,.27,1.33A4.67,4.67,0,0,1,96.55,162Z"/>
      <path class="cls-15" d="M96.51,92.23C93.35,89.56,94.34,86,95.13,83c.73-2.81,3.91-1.52,6-1.6,4.26-.16,8.52,0,12.79,0a4.54,4.54,0,0,1,.44,2.18c.16,6.21,2.71,8.06,8.82,6.54a3.08,3.08,0,0,0,2.37-2.36c.37-1.14.12-2.92,2.21-2.68-.18,8.45,1.23,7.38-7.57,7.4C112.32,92.43,104.42,92.29,96.51,92.23Z"/>
      <path class="cls-16" d="M127.79,85a3.07,3.07,0,0,0-.35.28c-1.56,1.66.57,5-1.63,5.64-3.1.83-6.55.53-9.85.41-2.63-.1-2.82-2.31-2.91-4.31s-.26-3.93.9-5.7l7.38-.19,28.33.17.06,2.85C142.43,84.8,135.05,83.31,127.79,85Z"/>
      <path class="cls-12" d="M81.87,280.45a15.36,15.36,0,0,0-2.26.1c-9.13,1.81-15.21-1.89-18.68-10.31,3.36-2.15,7.09-.94,10.65-1.13,4.77-.26,5-.49,3.62-5.05-3.3-10.59-7-21-10.35-31.61-.81-2.55-2.17-5.06-1.46-7.91l.14-.17c1.34-1.25,3-1.37,4.72-1.38q22-.11,44,0a8.8,8.8,0,0,1,4,.79c1.33.81,1.58,2.18,1.69,3.55,1.17,14.65-1.2,28.79-6.17,42.54a4.06,4.06,0,0,1-1.86,2.49c-8.34-1.38-16.74-.48-25.12-.71-2.74-.07-4,1-3.13,3.89C82.13,277.13,82.66,278.78,81.87,280.45Z"/>
      <path class="cls-17" d="M145.1,224.4c9.23,0,18.46,0,27.69.06,1.6,0,3.38-.53,4.67,1l-30.38,45c-4.72,1.91-9.63,1.09-14.46.84-2.49-.12-3.29-1.92-3-4.23a36.92,36.92,0,0,1,1.75-6.16c3.29-10.48,6.93-20.85,10.32-31.3.65-2,1.34-4.09,3.39-5.25Z"/>
      <path class="cls-18" d="M63.39,224.54c4.71,14.21,9.38,28.44,14.18,42.62.93,2.73-.18,3.21-2.5,3.17-4.71-.07-9.42-.06-14.14-.09C50.74,255,40.07,240.05,30.42,224.44Z"/>
      <path class="cls-19" d="M145.1,224.41c-4.67,13.92-9.27,27.86-14.07,41.74-1.23,3.55,0,4.3,3.27,4.22,4.26-.1,8.52.08,12.78.14-3.28,8.29-9.15,11.89-18.07,10.05a14.47,14.47,0,0,0-2.29-.1c-1-1.22-.6-2.53-.33-3.88.92-4.52.68-4.77-4-5-2.08-.1-4.27.32-6-1.27-1.33-2.76-.22-5.39.51-8,3.17-11.3,5.55-22.7,4.47-34.55a3.75,3.75,0,0,1,.92-3.38Z"/>
      <path class="cls-20" d="M122.21,224.41c2.41,12.09-.68,23.76-3,35.41-.7,3.46-2.31,6.79-2.54,10.44-.87,3.67-1.47,7.46-4.52,10.17h-5.56c-.92-3.4.65-5.93,2.86-8.24,6.22-15.36,8.25-31.35,7.23-47.8-2.37-4.14-3.3-8.48-1.82-13.15,1.91-1,3.77-1.22,5.49.39Z"/>
      <path class="cls-21" d="M109.42,272.2c-1,2.75-1.91,5.49-2.86,8.24H81.87c-3.68-10.12-3.68-10.12,6.65-10.13,5.64,0,11.27,0,16.91,0C107,270.35,109,269.72,109.42,272.2Z"/>
      <path class="cls-22" d="M112.12,280.43c1.59-3.35,1.81-7.32,4.52-10.17,2.7,0,5.42.23,8.1,0,4.29-.34,4.38,2.09,3.53,5.08-.49,1.71-1.7,3.2-1.55,5.11Z"/>
      <path class="cls-23" d="M126.8,68.46c-2.15.3-4.43-.36-6.45.88l-5.47,0c-1-1.47-1-3.15-1-4.84,0-13.43.11-26.86-.06-40.29,0-3.38.91-4.55,4.38-4.43,10.14.34,8.45-1.21,8.53,8.43C126.86,41.6,126.79,55,126.8,68.46Z"/>
      <path class="cls-24" d="M94.66,42.65c0-3,.18-6.12,0-9.16-.26-3.38,1.59-3.61,4.22-3.64s4.27.47,4.15,3.73c-.22,6-.11,11.92,0,17.87,0,3.09-1.07,4.93-4.43,5.08-4,.19-3.9-2.43-3.85-5.17C94.69,48.46,94.66,45.55,94.66,42.65Z"/>
      <path class="cls-25" d="M95.62,69.34l-14.56-1c0-1.82-.11-3.64-.12-5.46,0-6.21,1.69-7.73,8-7.27,1.58.11,3.19,1.31,4.76,0C95.63,60,93.72,64.93,95.62,69.34Z"/>
      <path class="cls-26" d="M171.8,176.38c.48,6-.93,11.81-.92,17.73,0,1.75-.26,3.62-2.55,3.53a3,3,0,0,1-2.87-3.47c1.15-9.08.49-18.21,1-27.31.11-1.76.83-3.89,3.27-3.57,2.2.28,2.05,2.28,2.05,4Z"/>
      <path class="cls-27" d="M168.89,147.33a2.3,2.3,0,0,1-1.59,2.59A2.78,2.78,0,0,1,164,149c-4.79-6.08-9.59-12.14-14.33-18.25-1-1.3-1.4-2.87.22-4a2.59,2.59,0,0,1,3.71.41c5,6.3,9.9,12.67,14.82,19A4.19,4.19,0,0,1,168.89,147.33Z"/>
      <path class="cls-28" d="M120.32,211.64l-5.39.06c-1.81,1.45-4,1.37-6.11,1.38q-19.65,0-39.3,0c-2.12,0-4.3.1-6.09-1.41C51.76,211.08,47,206.08,47,194.44c0-5,.32-10.11-.09-15.12C46,169,52.77,162.36,62.55,162l34-.08,6.41.12c4.43,0,8.86-.05,13.28.06,9.22.21,14.72,4.44,15.6,13.41a146.35,146.35,0,0,1,0,22.84C131.41,205.45,126.77,209.48,120.32,211.64Z"/>
      <path class="cls-29" d="M63.43,211.66l51.5,0q.85,6.35,1.72,12.7l-53.12,0Q63.49,218,63.43,211.66Z"/>
      <path class="cls-30" d="M89.36,206c-8.7,0-17.41,0-26.11,0-6.87,0-10.66-3.79-10.77-10.77q-.12-8.25,0-16.49c.1-7.52,3.64-10.79,11-10.69,13.59.17,27.17.34,40.75.24,4.53,0,9-1.36,13.6-.26,6.65,1.6,8.69,3.83,8.86,10.69.14,5.8.08,11.61,0,17.41a10,10,0,0,1-9.86,9.87c-9.16.07-18.32,0-27.49,0Z"/>
      <path class="cls-31" d="M89.61,196.92H70.8c-2.76,0-6.15.37-6.26-3.5-.11-4.16,3.55-2.74,5.88-3,10.33-1,20.66.27,31,.06,3.29-.07,6.54-1.82,9.92-.17,1.63.8,3.81,1,3.35,3.53-.43,2.34-2.22,3.06-4.45,3C103.36,196.9,96.49,196.92,89.61,196.92Z"/>
      <path class="cls-32" d="M90.25,175.85c5,0,10.08,0,15.12,0,2.13,0,4.48,0,4.84,2.94.4,3.34-2.32,3.81-4.45,4a90.76,90.76,0,0,1-11.43.24c-7.15-.16-14.32.6-21.45-.71-2.07-.38-4.45-.54-4.35-3S71.17,176,73.3,176c5.65-.2,11.3-.07,17-.07Z"/>
    </g>
  </g>
</svg>
