<svg id="Layer_1" data-name="Layer 1" xmlns="http://www.w3.org/2000/svg" width="222" height="288" viewBox="0 0 222 288">
  <defs>
    <style>
      .cls-1 {
        fill: #050505;
        opacity: 0.5;
      }

      .cls-2 {
        fill: #fff;
      }

      .cls-3 {
        fill: #f59247;
      }

      .cls-4 {
        fill: #f8ac66;
      }

      .cls-5 {
        fill: #7d7d7d;
      }

      .cls-6 {
        fill: #4a4a4a;
      }

      .cls-7 {
        fill: #5c5c5c;
      }

      .cls-8 {
        fill: #858585;
      }

      .cls-9 {
        fill: #999;
      }

      .cls-10 {
        fill: #616161;
      }

      .cls-11 {
        fill: none;
        stroke: #737373;
        stroke-miterlimit: 10;
        stroke-width: 2px;
      }

      .cls-12 {
        fill: #3d3d3d;
      }

      .cls-13 {
        fill: #4d4d4d;
      }
    </style>
  </defs>
  <g>
    <path class="cls-1" d="M190.3,287c-41,0-72.34-56.34-73.65-58.73a8,8,0,0,1-.76-5.76,8.14,8.14,0,0,1,.57-1.66l1.71-3.63a8.16,8.16,0,0,1,2.76-3.21l13.85-9.37a8.3,8.3,0,0,1,1.31-.71l-2.52-3.27a7.77,7.77,0,0,1-1.17-2.15L53.18,81.36a13.63,13.63,0,0,1-.82-1.1l-3-4.43c-13.08-1.34-22-4-26.59-7.82C16.24,62.51,8.9,51.76,8.08,50.56a12.3,12.3,0,0,1,3-17.12L48.71,8a11.83,11.83,0,0,1,6.64-2A12.52,12.52,0,0,1,65.5,11.26l.23.31c.81,1.21,8,12,10.73,20.15,1.85,5.62,1,14.81-2.58,27.32l82.81,122.48a8,8,0,0,1,1.94,2.2s.82,1.38,2.13,3.63a8.18,8.18,0,0,1,1.41-1.22L176,176.77a8,8,0,0,1,3.42-1.31l3.69-.49a7.69,7.69,0,0,1,1.07-.07,8,8,0,0,1,6.62,3.52l.48.71c2.82,3.58,14.84,19.39,22.66,38.43,10.95,26.65,9.29,48.95-4.79,64.48a7.92,7.92,0,0,1-3.14,2.12A45,45,0,0,1,190.31,287ZM35.06,53.27a18.3,18.3,0,0,0,4.45,1.5,14.86,14.86,0,0,1,6.36-10.43l.22-.14A14.74,14.74,0,0,1,58,42.12a17.82,17.82,0,0,0,.24-4.5,36.22,36.22,0,0,0-2-4.53L31.59,49.73A37,37,0,0,0,35.06,53.27Z"/>
    <path class="cls-2" d="M185.3,282c-41,0-72.34-56.34-73.65-58.73a8,8,0,0,1-.76-5.76,8.14,8.14,0,0,1,.57-1.66l1.71-3.63a8.16,8.16,0,0,1,2.76-3.21l13.85-9.37a8.3,8.3,0,0,1,1.31-.71l-2.52-3.27a7.77,7.77,0,0,1-1.17-2.15L48.18,76.36a13.63,13.63,0,0,1-.82-1.1l-3-4.43c-13.08-1.34-22-4-26.59-7.82C11.24,57.51,3.9,46.76,3.08,45.56a12.3,12.3,0,0,1,3-17.12L43.71,3a11.83,11.83,0,0,1,6.64-2A12.52,12.52,0,0,1,60.5,6.26l.23.31c.81,1.21,8,12,10.73,20.15,1.85,5.62,1,14.81-2.58,27.32l82.81,122.48a8,8,0,0,1,1.94,2.2s.82,1.38,2.13,3.63a8.18,8.18,0,0,1,1.41-1.22L171,171.77a8,8,0,0,1,3.42-1.31l3.69-.49a7.69,7.69,0,0,1,1.07-.07,8,8,0,0,1,6.62,3.52l.48.71c2.82,3.58,14.84,19.39,22.66,38.43,10.95,26.65,9.29,48.95-4.79,64.48a7.92,7.92,0,0,1-3.14,2.12A45,45,0,0,1,185.31,282ZM30.06,48.27a18.3,18.3,0,0,0,4.45,1.5,14.86,14.86,0,0,1,6.36-10.43l.22-.14A14.74,14.74,0,0,1,53,37.12a17.82,17.82,0,0,0,.24-4.5,36.22,36.22,0,0,0-2-4.53L26.59,44.73A37,37,0,0,0,30.06,48.27Z"/>
    <g>
      <g>
        <path class="cls-3" d="M136,191.5,43.8,55.1a6.68,6.68,0,1,1,11.07-7.49L147.1,184Z"/>
        <path class="cls-4" d="M135.8,191.66,43.57,55.25A6.68,6.68,0,0,1,45.36,46l96,141.94Z"/>
      </g>
      <g>
        <polygon class="cls-5" points="164.59 198.26 184.07 185.09 179.21 177.9 175.51 178.39 161.66 187.76 159.94 191.38 164.59 198.26"/>
        <polygon class="cls-5" points="123.34 226.15 142.82 212.98 137.96 205.79 134.26 206.28 120.41 215.65 118.7 219.27 123.34 226.15"/>
        <path class="cls-6" d="M118.66,219.43l30.39-20.55,30.39-20.54s49.15,59.87,18.82,93.32C155.91,287.35,118.66,219.43,118.66,219.43Z"/>
        <path class="cls-7" d="M118.66,219.43l30.39-20.55,49.21,72.78C155.91,287.35,118.66,219.43,118.66,219.43Z"/>
        <path class="cls-8" d="M140.87,186.79l5.88-4s27.36,46,27.73,53.69c-7-3.22-39.49-45.74-39.49-45.74Z"/>
        <path class="cls-9" d="M134.92,190.81s32.48,42.51,39.5,45.74C163.47,220,140.8,186.83,140.8,186.83Z"/>
        <g>
          <circle class="cls-10" cx="147.84" cy="197.1" r="1.63"/>
          <line class="cls-11" x1="146.71" y1="196.91" x2="148.97" y2="197.3"/>
          <line class="cls-11" x1="148.04" y1="195.97" x2="147.65" y2="198.23"/>
        </g>
        <g>
          <circle class="cls-10" cx="143.35" cy="190.46" r="1.63" transform="translate(-27.91 24.65) rotate(-8.96)"/>
          <line class="cls-11" x1="142.22" y1="190.26" x2="144.48" y2="190.65"/>
          <line class="cls-11" x1="143.55" y1="189.33" x2="143.16" y2="191.59"/>
        </g>
      </g>
      <path class="cls-12" d="M54.1,11.06a4.31,4.31,0,0,0-5.91-1.42L10.59,35.06a4.3,4.3,0,0,0-.88,6h0a4.29,4.29,0,0,0,5.9,1.42L53.22,17.07a4.31,4.31,0,0,0,.88-6Z"/>
      <path class="cls-12" d="M12.35,39.29,9.71,41.07C10,41.52,17.12,52,22.93,56.9s25.59,6.3,27.81,6.43l.19-3.18c-5.74-.34-21.6-2-25.95-5.69C19.52,49.85,12.42,39.39,12.35,39.29Z"/>
      <path class="cls-12" d="M51.46,12.84c.07.11,7.13,10.59,9.37,17.38,1.78,5.39-2.56,20.74-4.38,26.2l3,1c.71-2.11,6.82-20.84,4.39-28.21C61.48,22,54.4,11.5,54.1,11.06Z"/>
      <path class="cls-12" d="M54.57,71.41a5.78,5.78,0,0,1-.53-.67L43.57,55.26a6.83,6.83,0,0,1,11.31-7.65L65.35,63.1a6.08,6.08,0,0,1,.42.74Z"/>
      <path class="cls-13" d="M54.51,71.45l5.6-3.79L45.42,45.93a6.77,6.77,0,0,0-1.91,9.37L54,70.78A7.1,7.1,0,0,0,54.51,71.45Z"/>
    </g>
  </g>
</svg>
