<svg id="Layer_1" data-name="Layer 1" xmlns="http://www.w3.org/2000/svg" width="256.51" height="214.47" viewBox="0 0 256.51 214.47">
  <defs>
    <style>
      .cls-1 {
        fill: #050505;
        opacity: 0.5;
      }

      .cls-1, .cls-10, .cls-11, .cls-12, .cls-13, .cls-14, .cls-15, .cls-16, .cls-17, .cls-18, .cls-19, .cls-2, .cls-20, .cls-21, .cls-23, .cls-24, .cls-25, .cls-26, .cls-3, .cls-4, .cls-5, .cls-6, .cls-7, .cls-8, .cls-9 {
        fill-rule: evenodd;
      }

      .cls-2 {
        fill: #fff;
      }

      .cls-3 {
        fill: #239494;
        stroke: #146664;
      }

      .cls-14, .cls-15, .cls-18, .cls-20, .cls-21, .cls-23, .cls-24, .cls-3, .cls-6, .cls-9 {
        stroke-miterlimit: 10;
      }

      .cls-3, .cls-6, .cls-9 {
        stroke-width: 0.75px;
      }

      .cls-4 {
        fill: #208080;
      }

      .cls-5 {
        fill: #366;
      }

      .cls-6 {
        fill: #24abab;
        stroke: #146866;
      }

      .cls-7 {
        fill: #209999;
      }

      .cls-8 {
        fill: #418080;
      }

      .cls-9 {
        fill: #73d1cc;
        stroke: #419e97;
      }

      .cls-10 {
        fill: #9cc;
      }

      .cls-11 {
        fill: #822260;
      }

      .cls-12 {
        fill: #994b99;
      }

      .cls-13 {
        fill: #5abfba;
      }

      .cls-14 {
        fill: #c96ebd;
        stroke: #993a90;
      }

      .cls-14, .cls-15, .cls-18, .cls-20, .cls-21, .cls-23, .cls-24 {
        stroke-width: 0.5px;
      }

      .cls-15, .cls-19 {
        fill: #a33484;
      }

      .cls-15, .cls-18, .cls-21, .cls-24 {
        stroke: #891989;
      }

      .cls-16, .cls-24 {
        fill: #ab388e;
      }

      .cls-17 {
        fill: #a854a8;
      }

      .cls-18 {
        fill: #a83799;
      }

      .cls-20 {
        fill: #a63786;
        stroke: #7a1f64;
      }

      .cls-21 {
        fill: #912f7d;
      }

      .cls-22 {
        fill: #a13092;
      }

      .cls-23 {
        fill: #962c78;
        stroke: #701c5c;
      }

      .cls-25 {
        fill: #b043a1;
      }

      .cls-26 {
        fill: #b54ba7;
      }
    </style>
  </defs>
  <g>
    <path class="cls-1" d="M130.62,213.44a8,8,0,0,1-3.15-.65l-.09,0-.49-.23L72,186.36l-.24-.1-12.34-5.89-.24-.12-1.57-.75L12.89,158.17A8,8,0,0,1,8.34,151l-.53-49.55a7.84,7.84,0,0,1-.71-3L6.33,76.15a8,8,0,0,1,4.5-7.47L61.44,44.1l.3-.15,14.18-6.89.28-.13L78.13,36c4-10.85,12.84-25.19,23.1-28.5l.28-.08A11.82,11.82,0,0,1,104.79,7a36.85,36.85,0,0,1,6.18.7l.77.13a8.57,8.57,0,0,1,1.56.42h0A28.54,28.54,0,0,1,123,14.19l4.23-2a8,8,0,0,1,3.49-.81h.08c.36,0,.66,0,.94,0,.33-.32.67-.62,1-.91l.19-.16a12,12,0,0,1,1-.76,20.7,20.7,0,0,1,7.11-3A23.89,23.89,0,0,1,145.94,6c10.13,0,24.75,6,31.85,16.06a22,22,0,0,1,2.91,5,5,5,0,0,1,.28.67,3.66,3.66,0,0,1,.15.43,22.84,22.84,0,0,1,1.35,7.89l2.61,1.29,12.6,6.21.22.11,10.34,5.08a1.87,1.87,0,0,1,.32.15l4.67,2.28.43.21c3.61,1.76,7.11,3.46,10.41,5.05l5.09,2.44.27.14c15.64,7.49,19.33,8.94,20.19,9.22a8,8,0,0,1,5.54,7.15,8.17,8.17,0,0,1-.32,2.75l-.43,20.93a8.13,8.13,0,0,1-.73,3.17l-.52,48.65a8,8,0,0,1-4.55,7.14L134.2,212.6q-.27.14-.54.24A8,8,0,0,1,130.62,213.44Z"/>
    <path class="cls-2" d="M125.62,208.44a8,8,0,0,1-3.15-.65l-.09,0-.49-.23L67,181.36l-.24-.1-12.34-5.89-.24-.12-1.57-.75L7.89,153.17A8,8,0,0,1,3.34,146L2.81,96.48a7.84,7.84,0,0,1-.71-3L1.33,71.15a8,8,0,0,1,4.5-7.47L56.44,39.1l.3-.15,14.18-6.89.28-.13L73.13,31C77.11,20.15,86,5.81,96.23,2.5l.28-.08A11.82,11.82,0,0,1,99.79,2a36.85,36.85,0,0,1,6.18.7l.77.13a8.57,8.57,0,0,1,1.56.42h0A28.54,28.54,0,0,1,118,9.19l4.23-2a8,8,0,0,1,3.49-.81h.08c.36,0,.66,0,.94,0,.33-.32.67-.62,1-.91l.19-.16a12,12,0,0,1,1-.76,20.7,20.7,0,0,1,7.11-3A23.89,23.89,0,0,1,140.94,1c10.13,0,24.75,6,31.85,16.06a22,22,0,0,1,2.91,5,5,5,0,0,1,.28.67,3.66,3.66,0,0,1,.15.43,22.84,22.84,0,0,1,1.35,7.89l2.61,1.29,12.6,6.21.22.11,10.34,5.08a1.87,1.87,0,0,1,.32.15l4.67,2.28.43.21c3.61,1.76,7.11,3.46,10.41,5.05l5.09,2.44.27.14c15.64,7.49,19.33,8.94,20.19,9.22a8,8,0,0,1,5.54,7.15,8.17,8.17,0,0,1-.32,2.75l-.43,20.93a8.13,8.13,0,0,1-.73,3.17l-.52,48.65a8,8,0,0,1-4.55,7.14L129.2,207.6q-.27.14-.54.24A8,8,0,0,1,125.62,208.44Z"/>
    <g>
      <polygon class="cls-3" points="10.77 92.54 125.79 140.6 125.77 200.37 125.62 200.44 11.34 145.95 10.77 92.54"/>
      <polygon class="cls-4" points="16.4 94.49 20.36 96.13 20.36 149.84 16.4 147.95 16.4 94.49"/>
      <polygon class="cls-4" points="28.68 99.75 32.64 101.42 32.64 155.84 28.68 153.94 28.68 99.75"/>
      <polygon class="cls-4" points="41.17 104.9 45.11 106.56 45.11 161.73 41.17 159.83 41.17 104.9"/>
      <polygon class="cls-4" points="53.72 110.49 57.66 112.14 57.66 168.04 53.72 166.15 53.72 110.49"/>
      <polygon class="cls-4" points="66.31 115.75 70.25 117.39 70.25 174.04 66.31 172.15 66.31 115.75"/>
      <polygon class="cls-4" points="78.9 120.81 82.84 122.45 82.84 179.84 78.9 177.95 78.9 120.81"/>
      <polygon class="cls-4" points="91.49 125.92 95.43 127.56 95.43 185.7 91.49 183.8 91.49 125.92"/>
      <polygon class="cls-4" points="104.06 131.14 108.02 132.81 108.02 191.67 104.06 189.77 104.06 131.14"/>
      <polygon class="cls-4" points="116.73 136.56 120.69 138.22 120.69 197.83 116.73 195.95 116.73 136.56"/>
      <polygon class="cls-5" points="10.74 86.49 125.79 138.89 125.79 152.48 10.84 97.78 10.74 86.49"/>
      <polygon class="cls-3" points="9.33 70.87 125.79 121.98 125.79 147.21 10.09 93.16 9.33 70.87"/>
      <polygon class="cls-6" points="240.74 92.54 125.72 146.04 125.75 200.38 240.17 145.82 240.74 92.54"/>
      <polygon class="cls-7" points="133.2 142.11 129.24 143.95 129.24 198.26 133.2 196.37 133.2 142.11"/>
      <polygon class="cls-7" points="145.79 136.38 141.83 138.22 141.83 192.39 145.79 190.49 145.79 136.38"/>
      <polygon class="cls-7" points="158.38 130.58 154.42 132.42 154.42 186.43 158.38 184.56 158.38 130.58"/>
      <polygon class="cls-7" points="170.97 124.99 167.01 126.83 167.01 180.38 170.97 178.51 170.97 124.99"/>
      <polygon class="cls-7" points="183.54 119.15 179.6 120.99 179.6 174.43 183.6 172.5 183.54 119.15"/>
      <polygon class="cls-7" points="196.13 113.29 192.19 115.13 192.19 168.7 196.13 166.82 196.13 113.29"/>
      <polygon class="cls-7" points="208.72 107.16 204.78 109 204.78 162.43 208.72 160.55 208.72 107.16"/>
      <polygon class="cls-7" points="221.25 101.3 217.3 103.14 217.3 156.43 221.25 154.55 221.25 101.3"/>
      <polygon class="cls-7" points="233.9 95.46 229.96 97.3 229.96 150.42 233.9 148.53 233.9 95.46"/>
      <polygon class="cls-8" points="240.79 86.49 125.72 138.9 125.72 152.48 240.67 97.76 240.79 86.49"/>
      <polygon class="cls-6" points="241.89 71 125.72 121.98 125.79 147.21 241.42 93.92 241.89 71"/>
      <path class="cls-9" d="M242.18,70.87,125.76,124,9.33,70.87,125.76,14.33c.16-.05,106.25,53.27,116.42,56.54Z"/>
      <path class="cls-10" d="M242.18,70.87l-116,53,.1,23.08-.53.27-.68-.32-.22-23L9.46,70.93l116.3,51.76ZM126,200.28l-.33.16-.08,0-.38-48.22.58.28.48-.21Z"/>
      <polygon class="cls-11" points="51.76 90.22 70.32 98.7 69.08 173.48 52.41 165.53 51.76 90.22"/>
      <polygon class="cls-12" points="199.75 90.22 181.19 98.7 182.43 173.35 199.1 165.4 199.75 90.22"/>
      <polygon class="cls-13" points="25 78.24 20.11 76.01 17.41 67.18 21.09 65.39 25 78.24"/>
      <polygon class="cls-13" points="40.1 85.18 35.21 82.95 28.76 61.78 32.42 59.99 40.1 85.18"/>
      <polygon class="cls-13" points="55.83 92.21 50.94 89.97 40.59 56.01 44.25 54.22 55.83 92.21"/>
      <polygon class="cls-13" points="71.44 99.36 66.54 97.11 52.3 50.36 55.96 48.59 71.44 99.36"/>
      <polygon class="cls-13" points="86.81 106.21 81.92 103.98 63.77 44.45 67.44 42.66 86.81 106.21"/>
      <polygon class="cls-13" points="102.56 113.52 97.67 111.29 75.6 38.96 79.29 37.17 102.56 113.52"/>
      <polygon class="cls-13" points="118.09 120.74 113.18 118.51 87.23 33.38 90.92 31.59 118.09 120.74"/>
      <polygon class="cls-13" points="131.33 120.11 127.61 121.79 98.93 27.64 102.61 25.85 131.33 120.11"/>
      <polygon class="cls-13" points="143.16 114.94 139.45 116.59 110.53 21.73 114.21 19.95 143.16 114.94"/>
      <path class="cls-13" d="M155.09,109.79l-3.7,1.7-29-95.19,3.54-1.72.18.09Z"/>
      <polygon class="cls-13" points="166.82 104.37 163.12 106.05 137.16 20.42 142.14 22.9 166.82 104.37"/>
      <polygon class="cls-13" points="178.45 99.3 174.87 100.9 152.61 27.87 157.59 30.33 178.45 99.3"/>
      <path class="cls-13" d="M190.48,94.57l-3.71,1.7L168.31,35.7c1.64.81,3.3,1.62,5,2.46Z"/>
      <path class="cls-13" d="M202.16,88.71l-3.7,1.68L184.23,43.63l5,2.44Z"/>
      <path class="cls-13" d="M214.07,83.35,210.35,85,200,51.08c1.67.83,3.31,1.63,5,2.43Z"/>
      <path class="cls-13" d="M225.94,78.27l-3.7,1.7-6.47-21.22,4.95,2.37Z"/>
      <path class="cls-13" d="M237.72,72.89l-3.7,1.7-2.55-8.19c1.82.85,3.46,1.61,4.91,2.25Z"/>
      <polygon class="cls-14" points="74.42 39.26 60.24 46.14 181.21 98.7 199.75 90.22 74.42 39.26"/>
      <polygon class="cls-14" points="175.25 38.9 189.15 45.75 70.32 98.7 51.78 90.22 175.25 38.9"/>
      <path class="cls-15" d="M128,111.11c-9.25-7.12-15.19-24.23-9.38-36.34a68,68,0,0,1,7.53-12l-5.53-3.33c-6.8,6-12.69,13.37-14.44,18.66-4.76,14.34.91,26.52,7.21,34Z"/>
      <path class="cls-16" d="M128,111.11C120,104.88,114.41,91,117,79.57a26.26,26.26,0,0,0-11.4.62c-3.6,13.45,1.83,24.81,7.83,32Z"/>
      <path class="cls-17" d="M128,111.11c-5.47-4.21-9.78-11.93-11.19-20-4.2.42-8.44,1.4-12.16,1.73a37.79,37.79,0,0,0,8.74,19.35Z"/>
      <path class="cls-18" d="M124,57.51c7.22,4.42,14.75,9.38,25.45,9.52,4.36,0,10.05-1.8,14.14-3.27s9.11-6.29,11.42-8.69c-2.48,5.89,1.34,12.53.86,15.73-5.61,3.81-15.43,6.46-21,6.8a32.55,32.55,0,0,1-13.2-2.41c-6.06-2.24-12.11-5.7-17.49-8.81-1-.59-2-1.15-3.05-1.68Z"/>
      <path class="cls-19" d="M131.69,62a37.65,37.65,0,0,0,17.79,5,20.53,20.53,0,0,0,3.05-.23c.26,3,.51,7.81.48,10.84a48,48,0,0,1-12.26-1.88,67.48,67.48,0,0,1-13.82-6.51,20.51,20.51,0,0,1-5.62-4.55l3-6c2.6,1.36,4.76,1.89,7.39,3.31Z"/>
      <path class="cls-20" d="M125.72,61.26c-.78-3.95-2-14.74-3.93-25.33a60.51,60.51,0,0,0-3.47-12.62,22.16,22.16,0,0,0-12.65-12.5c-1.69-.55-3,0-4.85.94-10.53,5.34-24.49,24.3-19.39,32.18,2.09-5.33,7.62-13.51,13.17-20.66,14.6-9.5,22.2,30.29,27.22,38.19Z"/>
      <path class="cls-21" d="M124.61,64.22c-7.33,1-25.54-4.18-34.73-7.21C81.63,54.36,76,46.76,79.73,36.51c3.1-10.58,11.81-24.09,19-26.39,1.38-.39,5.33.35,6.39.57.1.05.33,0,.45.07C101.12,10.63,94,14.33,89.1,31,85.35,43.77,91.35,46.21,98.3,49c6,2.32,23.54,9.38,28.1,11.61Z"/>
      <path class="cls-22" d="M101.62,60.55C97.26,59.37,93,58.09,89.88,57c-6.54-2.09-11.45-7.38-11.32-14.53A22.2,22.2,0,0,1,86.73,35c.51-.29,1-.57,1.57-.85C86.38,44.2,92,46.43,98.3,49c2.26.83,6.14,2.44,10.35,4.14-2,2.37-4.47,4.9-7,7.43Z"/>
      <path class="cls-23" d="M122.9,60.2c1.79-2.74,2.37-14.94,3.95-26.36.68-4.8,1.28-12.51,2.49-16.43A11.79,11.79,0,0,1,133,11.52a8.82,8.82,0,0,1,5.28-1.72c12.41-.65,31.5,9.76,27.8,20-.37-2.61-2.11-5.17-4.88-7.28A25.31,25.31,0,0,0,149.77,18c-7.93-1.2-11.69,13.28-15.9,27.19-1.56,5.17-4.13,11.44-5.54,15.74Z"/>
      <path class="cls-24" d="M127.35,63.26c8.09-3.1,24.28-7.42,33.45-15.29,8.3-7.08,11.71-18.4,5.56-26.11-5.79-8.38-20.43-14.27-28.6-12.52a12.57,12.57,0,0,0-4.26,1.77c-.18.13-.36.3-.48.39,4.66-2.55,13.12-2.9,22,10.27,6.87,10,.95,15.68-5.94,22.09-5.82,5.49-20.1,12.37-24.4,17Z"/>
      <path class="cls-25" d="M147.29,55.92c2.22-1,4.41-2,6.46-3.17a44,44,0,0,0,7.32-5c7-6,10-15.15,7.41-22.25-4.74-3.54-9.87-5.6-13.95-4.5.19.23.32.5.5.73,6.87,10,.95,15.68-5.94,22.09-2.62,2.46-7.08,5.33-11.57,8,2.28,2.61,1.87,7.32,9.77,4Z"/>
      <path class="cls-26" d="M124.41,58.54c2.14,0,4.88,2.72,4.45,4.08s-2.08,3.86-4.22,3.86c-1.09,0-2.4-1-3.33-1.61S119.9,64.2,119.9,63a4.69,4.69,0,0,1,4.51-4.44Z"/>
    </g>
  </g>
</svg>
