<svg id="Layer_1" data-name="Layer 1" xmlns="http://www.w3.org/2000/svg" width="474.86" height="323.06" viewBox="0 0 474.86 323.06">
  <defs>
    <style>
      .cls-1 {
        fill: #fffa4d;
      }

      .cls-18, .cls-2 {
        fill: #c9bcbc;
      }

      .cls-11, .cls-16, .cls-17, .cls-2, .cls-21, .cls-4, .cls-6, .cls-7, .cls-9 {
        stroke: #473535;
      }

      .cls-10, .cls-11, .cls-14, .cls-15, .cls-16, .cls-17, .cls-2, .cls-20, .cls-21, .cls-4, .cls-6, .cls-7, .cls-9 {
        stroke-miterlimit: 10;
      }

      .cls-11, .cls-16, .cls-17, .cls-2, .cls-4, .cls-6, .cls-7, .cls-9 {
        stroke-width: 0.75px;
      }

      .cls-3 {
        fill: #231919;
      }

      .cls-4 {
        fill: #edebeb;
      }

      .cls-5 {
        fill: #c9c0c0;
        opacity: 0.43;
      }

      .cls-6 {
        fill: #eddada;
      }

      .cls-7 {
        fill: #e0d3d3;
      }

      .cls-8 {
        fill: #635a58;
      }

      .cls-9 {
        fill: #e8d4d4;
      }

      .cls-10 {
        fill: #f2b955;
      }

      .cls-10, .cls-14, .cls-15, .cls-20 {
        stroke: #231919;
        stroke-width: 0.25px;
      }

      .cls-11 {
        fill: #d3c34f;
      }

      .cls-12 {
        fill: #f4eaea;
      }

      .cls-13 {
        fill: #5163a8;
      }

      .cls-14 {
        fill: #dd1b5c;
      }

      .cls-15 {
        fill: #eaad65;
      }

      .cls-16, .cls-21 {
        fill: none;
      }

      .cls-17 {
        fill: #9e8b8b;
      }

      .cls-19 {
        fill: #473535;
      }

      .cls-20 {
        fill: #d30b3b;
      }

      .cls-22 {
        fill: #cc9e9e;
      }
    </style>
  </defs>
  <g>
    <path class="cls-1" d="M238.61,321.16a67.49,67.49,0,0,1-13.42-1.34l-.16,0a52.12,52.12,0,0,1-6.17-1.64l-.24-.08c-4.72-1.62-8.19-3.71-10.32-6.21-4.19-4.92-5.83-13.34,2.13-22.23.79-.88,1.54-1.62,2.17-2.2,3.71-8.2,2.61-15,1.35-22.74-.84-5.14-1.7-10.46-1.14-16.28,1.17-12.31,1.31-17.8-7.1-30.06-10.91,10.53-27.36,25.93-37,32.65a52.94,52.94,0,0,0-2.36,8.77c-2.2,10.85-3.86,23.25-4.54,28.77a14.19,14.19,0,0,1-.06,13.68c-2.89,5.19-9.08,9-18.9,11.52-2.19.57-4.49,1.05-6.82,1.42-2.18.35-4.4.6-6.6.75-.95.07-2,.12-3.16.15H123l-.69,0c-1,0-2-.07-3-.15l-.31,0c-.9-.07-1.75-.16-2.58-.25l-.67-.08q-1.29-.17-2.49-.36l-.26-.05c-.8-.13-1.59-.28-2.35-.44l-.46-.11h.06l-.15,0c-.88-.2-1.74-.41-2.56-.64l-.24-.07c-.81-.23-1.61-.47-2.36-.73-.53-.18-1.08-.38-1.61-.6-13.2-5.17-11.92-13.39-11.21-15.79a22.57,22.57,0,0,1,5.23-8.87,29.88,29.88,0,0,1,4.91-4.24c.52-.48,4.71-4.78,4.74-17.54,0-19.89,3.38-30.24,15.52-48.15,4.21-6.2,9.15-17,13-28.63a125.39,125.39,0,0,1-22.62,22.21c-1.57,1.2-3.25,2.41-5,3.61-2.82,2-16.29,11.32-27.41,11.32a18.24,18.24,0,0,1-4.63-.58,5.52,5.52,0,0,1-.54-.16,9.24,9.24,0,0,1-6.23-7.86c-.69-7.42,7.44-12,11.35-14.21,1.48-.83,6.87-4.18,13.71-11.85a97.3,97.3,0,0,0,9.94-13.39,10.71,10.71,0,0,1-2.66-2.24c-3.52-4.08-3-9.53-2.79-11.1a7.62,7.62,0,0,1,.26-1.17,20.44,20.44,0,0,0,.74-6.83,111.64,111.64,0,0,0-20.22,25.31c-4.68,8.25-5.91,13.55-6.18,15-.68,3.66-2.74,14.81-11.8,14.81a9.19,9.19,0,0,1-6.32-2.51c-.16-.16-.32-.32-.47-.49-7.26-8.25-3.39-24.13-1.35-30.7.53-1.83,1.08-3.61,1.66-5.3a112.68,112.68,0,0,1,4.32-10.84c-6.33-1.22-13.77-4-23.14-8.59C5.24,138.61,12.45,105.29,16.32,87.4a79.57,79.57,0,0,0,1.77-11.69,15.15,15.15,0,0,1-7.78-4.41c-5.9-3.14-6.91-7.61-7-10.16-.1-5.66,4-9.38,7.24-11.42,1-6.21,6.26-8.08,8.68-8.62a15.77,15.77,0,0,1,3.41-.38,17.48,17.48,0,0,1,14.74,8.85C49.78,58.17,50.3,70.72,50.85,84c.15,3.53.3,7.17.66,11,1,11,4.72,12.35,7.51,12.77a7.77,7.77,0,0,1,1.36.16c.78.07,1.67.1,2.73.1h1.17a7.93,7.93,0,0,1,3.25-.82A27.75,27.75,0,0,0,72,104.89a17.71,17.71,0,0,1,3.46-3.4,73.47,73.47,0,0,1,3.41-6.6c.21-2.27.38-4.91.56-7.68.6-9.37,1.27-19.9,4.21-27.44l0-.24c.6-5,3.47-9.74,8.07-13.44a13,13,0,0,1,4.15-2.33l.1,0c1.73-1.78,3.23-3.26,4.24-4.24A29.92,29.92,0,0,1,105.53,31c0-.12-.06-.25-.08-.38A8,8,0,0,1,107.21,24l3.38-4a8.08,8.08,0,0,1,.57-.6,7.84,7.84,0,0,1,.91-1.33l3.38-4a8.29,8.29,0,0,1,2-1.68,28,28,0,0,1,11.7-6.21A29.57,29.57,0,0,1,148.79,8a7.77,7.77,0,0,1,1.36.16c1.33-.59,2.71-1.16,4.14-1.69l1.81-.82A7.9,7.9,0,0,1,158.61,5,87.78,87.78,0,0,1,170.73,2a8.08,8.08,0,0,1,.86-.08c.65,0,1.3,0,1.94,0a52.31,52.31,0,0,1,12.94,1.68,8.29,8.29,0,0,1,1.8.49,61.51,61.51,0,0,1,15.87,7.11c1.23.69,2.33,1.28,3.36,1.82,15.44,8.15,24.82,9.36,29,9.36a14.32,14.32,0,0,0,2.22-.14,7.35,7.35,0,0,1,2.72-.53,7.52,7.52,0,0,1,4.09,1.24,60.63,60.63,0,0,1,7.76,1.34l.92-.44a9.9,9.9,0,0,1,.87-.56c5.89-3.23,15-4.8,27.87-4.8a251.85,251.85,0,0,1,33.53,2.62c67.76,10.12,95.41,46.13,96.55,47.66a1.94,1.94,0,0,1,.21.29c11.1,11.28,23.88,29.88,24.15,55.89,0,2.67,0,5.37-.13,8,1.7,19.39,5.53,35,10.29,41.86,6.82,2.16,17,9.29,15.27,32.69-.78,10.53.55,14.79,1.24,16.23a8,8,0,0,1,1.59,15.68,30.71,30.71,0,0,1-7.95,1c-6.4,0-27.4-2.37-28.59-33a7.92,7.92,0,0,1,.09-1.54c0-.26.64-5.14.12-18.9-.84-1.25-1.76-2.72-2.73-4.4-3.13,9.6-5.12,17-3.42,25.21,2.61,12.55,5.78,22.83,8.34,31.1,1.44,4.7,2.7,8.77,3.63,12.45,5.1,1.8,9.76,6.38,10.45,15.13a28,28,0,0,1,0,3.68,42.8,42.8,0,0,1-12.91,28.13,41.61,41.61,0,0,1-4.87,4c-8,5.58-18,8.44-29.64,8.49l-.75,0h-1.27c-.73,0-1.62,0-2.62-.06l-1,0c-9.26-.56-15.72-3.2-19.14-7.83a13.82,13.82,0,0,1-2.19-11.64,39.62,39.62,0,0,0,.83-4.88c1-8.56-.14-21.35-6.34-29.3-1-1.23-1.91-2.43-2.85-3.62-6.15-7.74-12-15.17-15.29-24.93-4.08,4.88-8.28,12-8.56,20.68-.45,13.81-1.15,21.94-1.65,26.25a15.92,15.92,0,0,1,3.05,12.06c-1.13,6.17-6,10.87-14.54,14-1.45.53-2.94,1-4.41,1.45-.86.27-1.74.51-2.62.74a77.29,77.29,0,0,1-19.27,2.62l-1.46,0a50.4,50.4,0,0,1-7.14-.64c-.83-.14-1.67-.3-2.56-.51l-.42-.09-.95-.25-.81-.23-.77-.24-.86-.29-.66-.24c-.33-.12-.65-.25-1-.38l-.58-.24c-.36-.16-.7-.32-1-.49s-.35-.16-.49-.24c-.42-.21-.82-.43-1.21-.66l-.2-.11c-.58-.34-1.07-.66-1.55-1l-.18-.13-.65-.48a13.1,13.1,0,0,1-2.79,7.55c-.12.13-.23.27-.36.39a40.66,40.66,0,0,1-17.23,10.45c-1.31.42-2.61.78-3.87,1.07A61.26,61.26,0,0,1,238.61,321.16Zm37.45-95.25c-.11,8.07-.22,21.05,0,31.72.1,6-.08,11.71-.37,16.72a14.64,14.64,0,0,1,2.1-1c1.06-3.45,2.55-11.86,2.86-23.72.34-13.08-1-21.09-2.18-24l-.22-.09C277.5,225.65,276.78,225.77,276.06,225.91Z"/>
    <g>
      <g>
        <path class="cls-2" d="M428.94,128.4s1.83,36.65,12.3,51.32c0,0,6.13,8.5-1.75,7.49a71.65,71.65,0,0,1-15.63-41.62C422.79,120.28,428.94,128.4,428.94,128.4Z"/>
        <path class="cls-3" d="M440.6,182s16.3-2.49,14.28,25,8.63,24.79,8.63,24.79-25.13,7.11-26.37-24.61c0,0,.94-5.63,0-24.52"/>
      </g>
      <g>
        <path class="cls-4" d="M106.3,305.11c.39.16.8.31,1.22.45a40.33,40.33,0,0,0,4.77,1.31,60.69,60.69,0,0,0,16.61,1.06q2.86-.19,5.87-.67c2-.32,4-.73,6.08-1.27,8.63-2.24,12.48-5.07,13.94-7.69,2.32-4.13-1.27-7.74-1.27-7.74s2-17.48,5-32.38,5.54-13.68,5.54-13.68c13.6-9.46,43.41-39.05,43.41-39.05,5.15-14.9-31.48-47.25-49-55-5.84-2.59-9.57-2.47-8.93,1.94,2.54,17.62-9.68,54.28-20.38,70.06S115,247.15,115,266.11s-8.14,24.07-8.14,24.07a21.06,21.06,0,0,0-3.64,3.13A14.78,14.78,0,0,0,99.77,299C99.18,301,101.71,303.32,106.3,305.11Z"/>
        <path class="cls-5" d="M106.3,305.11c.39.16.8.31,1.22.45a40.33,40.33,0,0,0,4.77,1.31,10.84,10.84,0,0,1-.31-2.65c.08-7.26,8.17-11.29,12.81-16.87,5.31-6.36,6.17-15.28,5.9-23.56s-1.47-16.72.6-24.74c2.54-9.84,9.6-17.74,14.73-26.51C156.85,194.07,159,172,158.43,150.43c-5.84-2.59-9.57-2.47-8.93,1.94,2.54,17.62-9.68,54.28-20.38,70.06S115,247.15,115,266.11s-8.14,24.07-8.14,24.07a21.06,21.06,0,0,0-3.64,3.13A14.78,14.78,0,0,0,99.77,299C99.18,301,101.71,303.32,106.3,305.11Z"/>
        <g>
          <path class="cls-4" d="M277.09,286.44c1.61,5.91,6.52,9.29,12.93,10.83.77.19,1.56.35,2.36.48a41.61,41.61,0,0,0,6,.53,68.14,68.14,0,0,0,18.5-2.34c.79-.21,1.58-.42,2.35-.66,1.37-.4,2.69-.84,4-1.31,17.18-6.23,5.81-16,5.81-16l0-.22c.23-1.36,1.4-9.1,2-28.76.71-21.85,20.37-34.79,20.37-34.79-7.36-16.57-45.76-7.84-62.64-1.14-6.52,2.59-9.83,4.88-6.91,5.3,10.48,1.46,7.12,60.13.72,61.86l-.07,0C276.12,281.51,277.09,286.44,277.09,286.44Z"/>
          <path class="cls-5" d="M277.09,286.44c1.61,5.91,6.52,9.29,12.93,10.83.57-3.14-1.55-7-2-10.51a11.34,11.34,0,0,1,6.39.48c5.51-8.65,5.2-19.64,4.5-29.87a146.62,146.62,0,0,0-3.32-24.62c-1.62-6.64-4.48-12.82-6.59-19.29-.05-.15-.1-.29-.14-.43-6.52,2.59-9.83,4.88-6.91,5.3,10.48,1.46,7.12,60.13.72,61.86l-.07,0C276.12,281.51,277.09,286.44,277.09,286.44Z"/>
          <path class="cls-6" d="M319.26,295.28c1.37-.4,2.69-.84,4-1.31,17.18-6.23,5.81-16,5.81-16l0-.22c-1.51-.13-3.26.41-5.19,2.13C319,284.16,318.83,291.05,319.26,295.28Z"/>
          <path class="cls-6" d="M298.41,298.28a68.14,68.14,0,0,0,18.5-2.34,16.34,16.34,0,0,0-11.72-9.34C298.74,285.43,298.06,292.79,298.41,298.28Z"/>
          <path class="cls-6" d="M277.09,286.44c1.8,6.61,7.74,10.06,15.29,11.31.6-4.73.51-14.63-9.73-17.56l-.07,0C276.12,281.51,277.09,286.44,277.09,286.44Z"/>
        </g>
        <g>
          <path class="cls-4" d="M167.36,192c23.56,18.12,87.24,31.88,97.91,28.45s22.8-5.3,41.52-.92,46.5-3,46.5-3c1.4,15.14,9.78,24.09,18.83,35.69,7.58,9.71,9.19,24.23,8,35.08a46.8,46.8,0,0,1-1,5.89c-1.8,7.49,7.89,9.24,14.07,9.62l.79,0c1.46.06,2.66.06,3.37,0l.7,0c11.11,0,19.3-2.88,25.27-7.05a32.35,32.35,0,0,0,3.92-3.22,34.71,34.71,0,0,0,10.46-22.75,21.17,21.17,0,0,0,0-2.66c-.81-10.21-9.16-8.6-9.16-8.6-1.55-10.23-8.22-25.54-13.12-49.08s14.5-40.27,14.05-84.42S388.53,60,388.53,60,283.42,32.41,271.06,29.74a21.27,21.27,0,0,0-19.8,5.77l-56.87,9.1L149.9,146.16l-1.13,2.59S143.8,173.87,167.36,192Z"/>
          <path class="cls-6" d="M427.22,292.53a34.71,34.71,0,0,0,10.46-22.75C431.54,270.91,415.15,275.62,427.22,292.53Z"/>
          <path class="cls-6" d="M397.33,302.83l.7,0c11.11,0,19.3-2.88,25.27-7.05-1.27-1.83-5.17-5.3-16.58-5.11C398.92,290.76,397.15,296.84,397.33,302.83Z"/>
          <path class="cls-6" d="M393.17,302.76c-1.42-4.86-4.88-12.37-13.07-15.51a46.8,46.8,0,0,1-1,5.89C377.3,300.63,387,302.38,393.17,302.76Z"/>
          <path class="cls-5" d="M168.21,190.41c23.56,18.11,87.24,31.87,97.92,28.44s22.8-5.3,41.52-.92,46.49-3,46.49-3C355.54,230,363.92,239,373,250.6c7.57,9.71,9.18,24.23,8,35.07a45.22,45.22,0,0,1-1,5.9c-1.8,7.49,7.89,9.24,14.07,9.61l.8,0a32.72,32.72,0,0,1-.85-3.93c-2.29-15.2,5.14-32.49-3.49-45.21-4.07-6-11.07-9.65-14.7-15.92-4.83-8.37-3.33-20.71-11.4-26-5.17-3.4-11.94-2.18-18.08-1.39a103.21,103.21,0,0,1-30.89-.78c-9.7-1.7-19.17-4.75-29-6s-19.77-.54-29.67-.49c-23,.11-46.49-3.34-66.43-14.7a80.07,80.07,0,0,1-23.43-20.11c-4.52-5.78-8.22-20.11-15.62-22a5.05,5.05,0,0,0-.56-.12l-1.13,2.59S144.65,172.29,168.21,190.41Z"/>
        </g>
        <path class="cls-7" d="M24.71,65.53s3.64,4.08-.57,23.56-8.83,45.54,15.49,57.46,33.44,10.13,40.68,1.88-25.69-22.14-25.69-22.14l-13.88-8L39.65,93.55S41,69.64,35.33,64s-11.14-5.46-11.14-5.46Z"/>
      </g>
      <g>
        <g>
          <path class="cls-2" d="M29.4,52S26,47.79,21,48.91s-.59,4.93-4.17,6.51-9.54,6.2-1.44,9.43c0,0,3.08,5.48,10.54,2.18S32.67,55.65,29.4,52Z"/>
          <path class="cls-8" d="M25.16,56.25s.14,4.39-3.77,5S28.1,66,25.16,56.25Z"/>
          <path class="cls-8" d="M20.2,56.52s-.24,3-2,3.9S17.17,58.12,20.2,56.52Z"/>
        </g>
        <g>
          <g>
            <path class="cls-9" d="M60.63,203.87c-5.12-5.81.31-23.12.31-23.12q.72-2.55,1.56-5c13-38.24,44.76-58.91,44.76-58.91,1.35,12.3,7.62,17.89,7.62,17.89-22.09,14.75-35.25,31-42.45,43.69-4.19,7.39-6.35,13.55-7.08,17.46C63.38,206.51,60.63,203.87,60.63,203.87Z"/>
            <path class="cls-10" d="M60.63,203.87c-5.12-5.81.31-23.12.31-23.12q.72-2.55,1.56-5a19.3,19.3,0,0,1,9.93,2.67c-4.19,7.39-6.35,13.55-7.08,17.46C63.38,206.51,60.63,203.87,60.63,203.87Z"/>
          </g>
          <path class="cls-4" d="M33.2,88.82c-4.94,24.73-2.9,48.94,27,63.87,0,0,11,5.06,45.48-6.64,0,0,3.8,10.67.86,20.2,0,0-1.69,11.26,11.25,2.06s23.56-17.15,35.78-15.81,35.63.58,43.91-22.35S241.07,29.9,241.07,29.9s-11.61,3.75-37.27-9.8c-1.25-.65-2.52-1.35-3.84-2.09,0,0-12.74-8.7-28-8.07,0,0-12.32,1.86-22.69,7.56a21.64,21.64,0,0,0-18.18-3.6c-10.65,2.67-16.28,13.81-17.45,20.56,0,0-3.84,2.13-6.54,9.59A165,165,0,0,0,93.21,58.88c-5.7,7.17-5.23,27.56-6.54,38.64a65.61,65.61,0,0,0-5.24,10.4s-.66.58-1.78,1.43c-3.05,2.3-9.52,6.6-15.45,6.68-8.12.12-18.84-.61-20.66-20.28S45,62.42,30,54.38L28.43,61.5S38.15,64.08,33.2,88.82Z"/>
          <path class="cls-11" d="M79.65,109.35l.2.87.44,8.22c11,14.92,29.31-5.13,29.31-5.13s17.4-13.31,24.19-22,10.13-29,22.87-46.52c10-13.73,36.19-21.83,47.14-24.7-1.25-.65-2.52-1.35-3.84-2.09,0,0-12.74-8.7-28-8.07,0,0-12.32,1.86-22.69,7.56a21.64,21.64,0,0,0-18.18-3.6c-10.65,2.67-16.28,13.81-17.45,20.56,0,0-3.84,2.13-6.54,9.59A165,165,0,0,0,93.21,58.88c-5.7,7.17-5.23,27.56-6.54,38.64a65.61,65.61,0,0,0-5.24,10.4S80.77,108.5,79.65,109.35Z"/>
          <g>
            <g>
              <g>
                <g>
                  <path class="cls-12" d="M153.15,87.23c-.2,6,2.37,7,7.64,7.17S171.11,90.06,171.31,84,169,72.83,163.7,72.66,153.34,81.2,153.15,87.23Z"/>
                  <path class="cls-3" d="M153.2,87.23a10.28,10.28,0,0,0,.53,3.87,4.09,4.09,0,0,0,2.71,2.52,12.72,12.72,0,0,0,3.86.44,9.51,9.51,0,0,0,3.72-.65,10.31,10.31,0,0,0,5.33-5,10,10,0,0,0,1-3.49,16.19,16.19,0,0,0-.11-3.74,9.72,9.72,0,0,0-3-6.46,6.22,6.22,0,0,0-3.22-1.4,5.4,5.4,0,0,0-3.45.75,11.34,11.34,0,0,0-2.91,2.46,17.35,17.35,0,0,0-2.24,3.2A18.66,18.66,0,0,0,153.2,87.23Zm-.1,0a18.86,18.86,0,0,1,2.17-7.59,15.43,15.43,0,0,1,5.07-6,6,6,0,0,1,3.81-1,6.87,6.87,0,0,1,3.68,1.43,10.63,10.63,0,0,1,3.44,7,17.09,17.09,0,0,1,0,4,10.94,10.94,0,0,1-1.21,3.78,10.82,10.82,0,0,1-5.9,5.11,9.92,9.92,0,0,1-3.93.52,14.07,14.07,0,0,1-3.92-.61,4.26,4.26,0,0,1-2.79-2.68A10.49,10.49,0,0,1,153.1,87.23Z"/>
                </g>
                <g>
                  <ellipse class="cls-3" cx="161.23" cy="85.55" rx="6.14" ry="5.51" transform="translate(23.81 205.67) rotate(-69.11)"/>
                  <ellipse class="cls-12" cx="160.27" cy="81.26" rx="1.7" ry="1.53" transform="translate(27.19 202.02) rotate(-69.11)"/>
                </g>
              </g>
              <path class="cls-3" d="M163.69,63.11s7.38-.82,9.77,6.51C173.46,69.62,176.89,57.65,163.69,63.11Z"/>
            </g>
            <path class="cls-3" d="M168.38,74.07s5.77,6.49,10.08,3.27c0,0-1.05,3.22-5.41,1.71a5,5,0,0,0,4.13,2h.42c3.26-.11-3,2.84-5.88-.09"/>
          </g>
          <g>
            <path class="cls-4" d="M198.53,38.9s35-14.9,59-4.88,29.85,21.71,16.64,51.27S256,100,250.38,126.77s-30.62,43-46.92,45.45l.4-.74s-10.51-13.36-9.43-29.17S196.21,128,193,117.37"/>
            <path class="cls-4" d="M267.24,66.4S269,47,246.17,41.39s-34.67,4.72-38,14-1.56,13.34-1.56,13.34"/>
            <path class="cls-2" d="M228.89,85.53s14.8,3.12,21.81,13.9"/>
            <path class="cls-2" d="M213.89,100.51s20.88,7.46,23,17.9"/>
            <path class="cls-2" d="M211.93,114.4s9.83,10.88,6.6,29.07"/>
          </g>
          <path class="cls-13" d="M117.57,29.55a1,1,0,0,0,0-2,1,1,0,0,0,0,2Z"/>
          <g>
            <path class="cls-13" d="M118.91,57.59a7.53,7.53,0,0,1,4.53,5.29,9.15,9.15,0,0,1-1.51,7.27,12.64,12.64,0,0,1-6.54,4.79,18.38,18.38,0,0,1-4.21.9,11.19,11.19,0,0,1-4-.19c-2.74-.77-3.88-3.65-4-6.26a11.42,11.42,0,0,1,2-7.14,8.82,8.82,0,0,1,6.13-3.89,5.19,5.19,0,0,1,5.64,4c.79,2.71.25,6.36-2.44,7.82a3.68,3.68,0,0,1-3.84,0,2.93,2.93,0,0,1-1.08-3.47c.27-.58-.59-1.09-.86-.51a4,4,0,0,0,3.44,5.53c3.12.25,5.44-2.44,6-5.28s-.22-6.21-2.65-8-5.7-1.16-8.06.32a11.7,11.7,0,0,0-4.9,7,10.75,10.75,0,0,0,1.22,8.59c2,2.77,5.42,2.81,8.48,2.38a16,16,0,0,0,8.86-4,10.93,10.93,0,0,0,3.58-9.15,8.64,8.64,0,0,0-5.42-7c-.6-.22-.87.75-.26,1Z"/>
            <path class="cls-13" d="M115.75,55.11a7.61,7.61,0,0,1,1-9.39c2.32-2.29,6.64-3.29,9.09-.64a8.6,8.6,0,0,1,1.93,4.27,8.14,8.14,0,0,1-.32,4.61,5,5,0,0,1-3.72,2.85c-1.6.35-3.66.35-4.81-1s-1.31-4,.06-5.22a2.06,2.06,0,0,1,2.45-.36,1.47,1.47,0,0,1,.41,2c-.4.49.31,1.21.71.7A2.47,2.47,0,0,0,121.21,49c-2-.5-3.68,1.1-4.06,2.92a5.07,5.07,0,0,0,2,5.35,7.2,7.2,0,0,0,6.07.08c4-1.63,4.29-6.6,3-10.18a6.88,6.88,0,0,0-3.94-4.34,7.85,7.85,0,0,0-6.11.6,8.59,8.59,0,0,0-3.28,12.14c.34.55,1.21,0,.86-.5Z"/>
            <path class="cls-13" d="M106.11,57.2A5.6,5.6,0,0,0,103.49,52c-1.7-1.12-4.27-1.79-6.12-.69A14.8,14.8,0,0,0,93,55.7a10.45,10.45,0,0,0-1.87,5.71c0,3.46,2.43,7.44,6.23,7.54,2.3.06,3.66-2.13,4.43-4,.72-1.73,1.35-4.35-.06-5.92a3,3,0,1,0-3.46,4.71c.58.26,1.09-.6.51-.87a2,2,0,1,1,2.5-2.74c.75,1.51,0,3.71-.71,5.11a7.25,7.25,0,0,1-1.48,2.11,2.77,2.77,0,0,1-2.8.43c-2.74-.84-4.24-3.89-4.16-6.6.1-3.31,2.31-6.19,4.74-8.23a4,4,0,0,1,2.64-1.2,6.7,6.7,0,0,1,2.91.76,4.73,4.73,0,0,1,2.72,4.71c-.07.63.93.63,1,0Z"/>
            <path class="cls-13" d="M130.8,52.55c.89-1,2.06-2.32,3.57-2a5.21,5.21,0,0,1,3.07,2.4,7.07,7.07,0,0,1,.23,7.11,8.48,8.48,0,0,1-6.09,4.15,4.32,4.32,0,0,1-3.72-.9c-1-1-1-2.77-.6-4.08a3.82,3.82,0,0,1,2.57-3,1.17,1.17,0,0,1,1.48,1.4A2.06,2.06,0,0,1,129.64,59c-.62.15-.36,1.11.27,1,1.52-.36,2.86-1.75,2.29-3.4s-2.65-1.62-3.9-.74c-2.54,1.79-3.35,6.82-.5,8.68s7,.17,9.16-1.94a8.15,8.15,0,0,0,1.95-9,7,7,0,0,0-3.68-3.86c-2.12-.84-3.8.58-5.14,2.09-.42.48.28,1.19.71.7Z"/>
            <path class="cls-13" d="M132.65,67.08a8.71,8.71,0,0,1,3.83,9.3c-.8,3.86-4.14,6.69-7.8,7.79-1.87.57-4.2.92-6.06.11-2.13-.93-2.54-3.38-2.48-5.46a11.08,11.08,0,0,1,2.15-6.53,4.9,4.9,0,0,1,2.56-1.8,3.55,3.55,0,0,1,3.08,1.07,4.23,4.23,0,0,1,1.69,3.08,4.13,4.13,0,0,1-1.38,3,3.53,3.53,0,0,1-3.41.92,2.26,2.26,0,0,1-1.24-1.05,3.12,3.12,0,0,1,0-2.13c.14-.63-.83-.9-1-.27a3.68,3.68,0,0,0,.52,3.49,3.52,3.52,0,0,0,3.12,1.06,5.23,5.23,0,0,0,4.36-5,4.77,4.77,0,0,0-1.41-3.23,5.8,5.8,0,0,0-3.27-2c-2.6-.34-4.64,2.06-5.62,4.18a12.62,12.62,0,0,0-.93,8,5.23,5.23,0,0,0,1.76,3,6,6,0,0,0,3.44,1.16,13,13,0,0,0,11.94-6.55c2.29-4.36,1-10.43-3.37-13a.5.5,0,0,0-.51.87Z"/>
            <path class="cls-13" d="M112.18,80a7,7,0,0,1-1.81,9c-2.87,2.4-6.89,2.6-10.34,1.51a5.75,5.75,0,0,1-2.25-1.16,3.68,3.68,0,0,1-1-2.56,9.63,9.63,0,0,1,.82-5.51,6.59,6.59,0,0,1,3.65-2.84c1.47-.5,3.69-.93,4.82.42s1.62,4-.13,5.24a1.87,1.87,0,0,1-2.35,0,1.61,1.61,0,0,1-.37-2c.34-.55-.52-1-.86-.5A2.69,2.69,0,0,0,104,85.41c1.88.56,3.76-1,4.11-2.83s-.56-4.51-2.45-5.3-4.19-.12-5.83.71a7.05,7.05,0,0,0-3.76,4.66,13.17,13.17,0,0,0-.26,3.49,6.43,6.43,0,0,0,.72,3.23c1.17,1.81,3.77,2.39,5.75,2.66a11.88,11.88,0,0,0,6.68-.94,9.13,9.13,0,0,0,4.6-4.72,7.67,7.67,0,0,0-.5-6.87c-.34-.54-1.2,0-.86.51Z"/>
            <path class="cls-13" d="M96,69.84c-1.51,0-3.28,0-4.24,1.4a3.18,3.18,0,0,0,.44,3.85,3.86,3.86,0,0,0,4.35.71c1.42-.59,2.87-2,2.62-3.67a2.05,2.05,0,0,0-3.66-.83.52.52,0,0,0,.18.69.53.53,0,0,0,.69-.18,1.05,1.05,0,0,1,1-.32.94.94,0,0,1,.77.87c.1,1.17-1.07,2.14-2,2.53A2.93,2.93,0,0,1,93,74.47a2.2,2.2,0,0,1-.45-2.6c.68-1.11,2.33-1.06,3.46-1a.5.5,0,0,0,0-1Z"/>
            <path class="cls-13" d="M120.09,87a6,6,0,0,1,.73,5.42,5,5,0,0,1-4.2,3.31,3.54,3.54,0,0,1-3.79-3.41,6.55,6.55,0,0,1,.7-3,3.22,3.22,0,0,1,1.84-1.85c.73-.2,1.84.07,2,.94a1.54,1.54,0,0,1-.56,1.34,1.75,1.75,0,0,1-.7.4c-.2.06-.8.11-.74-.27.11-.62-.85-.9-1-.26a1.3,1.3,0,0,0,.77,1.46,2.1,2.1,0,0,0,1.92-.3,2.5,2.5,0,0,0,1.07-3.1,2.58,2.58,0,0,0-2.7-1.24,3.86,3.86,0,0,0-2.72,2.25c-1.23,2.4-1.41,5.67,1.12,7.29a5.27,5.27,0,0,0,6.82-1.35,6.81,6.81,0,0,0,.29-8.13c-.37-.52-1.24,0-.87.5Z"/>
            <path class="cls-13" d="M110.53,54.47a.5.5,0,0,0,0-1,.5.5,0,0,0,0,1Z"/>
          </g>
          <path class="cls-14" d="M167.27,31.67S150.7,42.26,144.65,60.36s-17.14,40-35.37,49.59c0,0-8,14.07-20.18,11.79s-6.71-8.51-3.11-9c0,0-7.35,5.8,2.68,4.61s7.73-11.63-.18-11.89-13.77,5.78-11.13,11.9,19.74,19.31,32.33-2.54A50.59,50.59,0,0,0,137,91.8c9.63-17.8,12.71-43,40.38-58.86Z"/>
          <g>
            <path class="cls-15" d="M148.54,16s-21.84,10.47-27,3.23l-3.38,4s13.76,7.52,29.16-5Z"/>
            <path class="cls-15" d="M143.68,21.9s-21.84,10.46-27,3.23l-3.38,4s13.76,7.52,29.16-5Z"/>
            <g>
              <g>
                <path class="cls-15" d="M210.16,23.43l-9.28-4.63s-16.42,11.91-34.06,9.08-21.43-8-21.43-8l-5.64,5.29s8,9.31,27.59,10.13S210.16,23.43,210.16,23.43Z"/>
                <path class="cls-15" d="M196.62,16.4s-21.1,16.66-47.38,1.1l10.14-4.57s16.16,7.88,25.89-1.43L195.69,16"/>
              </g>
              <path class="cls-13" d="M168.41,33.83c3.22,0,3.22-5,0-5s-3.22,5,0,5Z"/>
              <path class="cls-13" d="M158.23,33.5c3.22,0,3.23-5,0-5s-3.22,5,0,5Z"/>
              <path class="cls-13" d="M149,29.8c3.21,0,3.22-5,0-5s-3.23,5,0,5Z"/>
              <path class="cls-13" d="M181,32.82c3.22,0,3.22-5,0-5s-3.22,5,0,5Z"/>
              <path class="cls-13" d="M191.17,29.75c3.22,0,3.23-5,0-5s-3.22,5,0,5Z"/>
              <path class="cls-13" d="M199.2,26.62c3.21,0,3.22-5,0-5s-3.23,5,0,5Z"/>
              <path class="cls-13" d="M187.13,19.3c3.21,0,3.22-5,0-5s-3.23,5,0,5Z"/>
              <path class="cls-13" d="M177,21.66c3.21,0,3.22-5,0-5s-3.23,5,0,5Z"/>
              <path class="cls-13" d="M167.37,22.05c3.22,0,3.23-5,0-5s-3.22,5,0,5Z"/>
              <path class="cls-13" d="M158.09,20.34c3.22,0,3.23-5,0-5s-3.22,5,0,5Z"/>
            </g>
            <path class="cls-13" d="M141.22,21.14a.5.5,0,0,0,0-1,.5.5,0,0,0,0,1Z"/>
            <path class="cls-13" d="M137.77,22.91a.5.5,0,0,0,0-1,.5.5,0,0,0,0,1Z"/>
            <path class="cls-13" d="M134,24.42a1,1,0,0,0,0-2,1,1,0,0,0,0,2Z"/>
            <path class="cls-13" d="M129.23,25a1,1,0,0,0,0-2,1,1,0,0,0,0,2Z"/>
            <path class="cls-13" d="M125.83,24.91a1,1,0,0,0,0-2,1,1,0,0,0,0,2Z"/>
            <path class="cls-13" d="M122.09,24a1,1,0,0,0,0-2,1,1,0,0,0,0,2Z"/>
            <path class="cls-13" d="M122.83,30.47a1,1,0,0,0,0-2,1,1,0,0,0,0,2Z"/>
            <path class="cls-13" d="M129.06,30.11a1,1,0,0,0,0-2,1,1,0,0,0,0,2Z"/>
            <path class="cls-13" d="M135.52,28.62a1,1,0,0,0,0-2,1,1,0,0,0,0,2Z"/>
          </g>
          <path class="cls-16" d="M164.34,128s-4,13.83-24.41,14.11-13.48-8.92-34.83,3.78"/>
          <path class="cls-17" d="M131.57,144.05S122.94,160,116,159.58c0,0-3.74-1.06-2.09-11.2s.24-7.53.24-7.53,5.2-3,13-.15l5.43,1.31Z"/>
          <g>
            <path class="cls-9" d="M77.87,218.14c9,2.36,25.39-9.55,25.39-9.55,1.64-1.13,3.23-2.27,4.76-3.44,35.77-27.21,42.71-64.63,42.71-64.63-14.27,3.69-23.58.18-23.58.18-5.25,26.16-16.66,44.75-27.06,56.42C94,203.93,88.3,208.38,84.34,210.61,73.58,216.68,77.87,218.14,77.87,218.14Z"/>
            <path class="cls-10" d="M77.87,218.14c9,2.36,25.39-9.55,25.39-9.55,1.64-1.13,3.23-2.27,4.76-3.44a21.09,21.09,0,0,0-7.93-8C94,203.93,88.3,208.38,84.34,210.61,73.58,216.68,77.87,218.14,77.87,218.14Z"/>
          </g>
        </g>
        <g>
          <g>
            <path class="cls-18" d="M67.81,115.21s7.88,1.1,8,15"/>
            <path class="cls-19" d="M67.81,115.17a6.1,6.1,0,0,1,2.28.58,10.18,10.18,0,0,1,2,1.32A11.49,11.49,0,0,1,74.81,121,17.45,17.45,0,0,1,76,125.54c0,.78.09,1.56.1,2.33s-.1,1.54-.21,2.31h-.08l-.11-2.28c-.07-.76-.18-1.51-.27-2.26a19.29,19.29,0,0,0-1.26-4.36,11.88,11.88,0,0,0-2.45-3.79,8.13,8.13,0,0,0-3.88-2.25Z"/>
          </g>
          <g>
            <path class="cls-18" d="M58.74,115.76s5,3,3.56,12.28"/>
            <path class="cls-19" d="M58.76,115.73A6.14,6.14,0,0,1,61.41,118a9.63,9.63,0,0,1,1.42,3.23,12,12,0,0,1,.25,3.48c0,.58-.15,1.15-.24,1.71s-.3,1.11-.5,1.65h-.08l.19-1.67c0-.56,0-1.12,0-1.67a16,16,0,0,0-.4-3.32,11.46,11.46,0,0,0-1.2-3.1,7.79,7.79,0,0,0-2.18-2.49Z"/>
          </g>
        </g>
        <g>
          <g>
            <path class="cls-20" d="M283.71,70.14c-2.85,35.84-6.24,44.21-6.73,68.25-.32,15.19-1.39,36.47-2.14,50.07-.44,7.9-.76,13.21-.76,13.21s9.14-2.83,22.71-2.39,10,5.42,10,5.42a115.17,115.17,0,0,0,38.25-1.59c15.78-3.42,22.53-1.75,23.44,1.1a3.08,3.08,0,0,1-.65,2.75s9.63-.54,16.91,1.68c6.42,2,5.8,4.12,5.57,4.6a39.14,39.14,0,0,0,2.82-8c3.76-13.66,10.25-48.47,13.53-131.7,0,0-26-34.79-91.36-44.54,0,0-42.22-6.47-56.33,1.29C259,30.3,286.57,34.3,283.71,70.14Z"/>
            <path class="cls-11" d="M274.08,201.67s9.14-2.83,22.71-2.39,10,5.42,10,5.42a115.17,115.17,0,0,0,38.25-1.59c15.78-3.42,22.53-1.75,23.44,1.1a3.08,3.08,0,0,1-.65,2.75s9.63-.54,16.91,1.68c6.42,2,5.8,4.12,5.57,4.6a39.14,39.14,0,0,0,2.82-8c-2.62-2.45-7.57-5.28-16.31-5.07,0,0-7.1.61-8.17-1.4l-.11-5.1s-8.91-4.24-28.58.21-29,4.72-30.79-1.56c0,0,1.91-6.44-8.59-5.65-8.93.67-18.4,5-25.75,1.78C274.4,196.36,274.08,201.67,274.08,201.67Z"/>
            <path class="cls-21" d="M306.8,204.7s4.13-14,3.8-47.41"/>
            <path class="cls-20" d="M368.47,204.72l1.11-34.2"/>
          </g>
          <path class="cls-22" d="M380.84,98.15c5.79,0,5.8-9,0-9s-5.8,9,0,9Z"/>
          <path class="cls-22" d="M333.54,91c5.79,0,5.8-9,0-9s-5.8,9,0,9Z"/>
          <path class="cls-22" d="M336.09,134.61c5.79,0,5.8-9,0-9s-5.8,9,0,9Z"/>
          <path class="cls-22" d="M356.11,110.36c5.79,0,5.8-9,0-9s-5.8,9,0,9Z"/>
          <path class="cls-22" d="M378.72,146.18c5.79,0,5.8-9,0-9s-5.8,9,0,9Z"/>
          <path class="cls-22" d="M323.09,169.27c5.79,0,5.8-9,0-9s-5.8,9,0,9Z"/>
          <path class="cls-22" d="M358.31,182.29c5.79,0,5.8-9,0-9s-5.8,9,0,9Z"/>
          <path class="cls-22" d="M387.72,182.68c5.79,0,5.8-9,0-9s-5.8,9,0,9Z"/>
          <path class="cls-22" d="M299,145.29c5.79,0,5.8-9,0-9s-5.8,9,0,9Z"/>
          <path class="cls-22" d="M299.64,106.84c5.8,0,5.81-9,0-9s-5.8,9,0,9Z"/>
          <path class="cls-22" d="M300.32,68.38c5.79,0,5.8-9,0-9s-5.8,9,0,9Z"/>
          <path class="cls-22" d="M359.14,69.16c5.79,0,5.8-9,0-9s-5.8,9,0,9Z"/>
          <path class="cls-22" d="M301.82,39.58c5.79,0,5.8-9,0-9s-5.8,9,0,9Z"/>
          <path class="cls-22" d="M326.18,56.21c5.79,0,5.8-9,0-9s-5.8,9,0,9Z"/>
          <path class="cls-22" d="M379.42,72.08c5.79,0,5.8-9,0-9s-5.8,9,0,9Z"/>
          <path class="cls-22" d="M291.16,176.73c5.79,0,5.8-9,0-9s-5.8,9,0,9Z"/>
        </g>
        <g>
          <path class="cls-4" d="M200.63,180.89s1.94,18.74,11.66,32.92,9.77,21.82,8.48,35.36,7.08,26-1.68,43.23a23.08,23.08,0,0,0-2.7,2.57c-2.56,2.85-5.51,7.58-2,11.7,1.17,1.38,3.59,2.72,6.83,3.84h0a45.93,45.93,0,0,0,5.42,1.45h0a58.11,58.11,0,0,0,24.47-.22c1.09-.25,2.16-.55,3.23-.9a33,33,0,0,0,13.91-8.36s3-3.55-1.54-11c-.18-.32-.39-.65-.61-1a233.76,233.76,0,0,0,1.9-32.76c-.29-17.26.17-40.17.17-40.17s12-12.34,18-24.31"/>
          <path class="cls-16" d="M256.73,232c-1.24,3.24-1.61,6.73-2.44,10.09s-2.25,6.78-5,8.88a62.61,62.61,0,0,1,11.13-10.32,123.45,123.45,0,0,1-5.1,11.53c-.83,1.58-1.9,3.26-3.63,3.72"/>
          <path class="cls-16" d="M222.85,263.41,235.78,265a1.17,1.17,0,0,1,1.67-.5c-2.37.68-4.55,1.92-6.88,2.75s-5,1.25-7.24.26a44.3,44.3,0,0,0,19.88,5"/>
          <path class="cls-6" d="M214.39,306.67c1.17,1.38,3.59,2.72,6.83,3.84h0c6.33-11.75-.27-14.78-4.84-15.54C213.83,297.82,210.88,302.55,214.39,306.67Z"/>
          <path class="cls-6" d="M226.66,312a58.11,58.11,0,0,0,24.47-.22c0-.18-.07-.38-.11-.6-.62-3.27-3-9.82-12.13-9.9C233.28,301.19,229.31,306.37,226.66,312Z"/>
          <path class="cls-6" d="M254.36,310.84a33,33,0,0,0,13.91-8.36s3-3.55-1.54-11c-1.36-.94-3.16-.89-5.49,1.13C255.55,297.56,251.84,305.38,254.36,310.84Z"/>
        </g>
        <path class="cls-16" d="M353.29,216.48s1.46,1.56,15.72-7.79"/>
        <path class="cls-6" d="M134.77,307.26c2-.32,4-.73,6.08-1.27,8.63-2.24,12.48-5.07,13.94-7.69C150.79,295.93,138.48,290.24,134.77,307.26Z"/>
        <path class="cls-6" d="M107.52,305.56a56,56,0,0,0,21.38,2.37c-.33-3.83-2.29-9.5-10.68-10.88C111.68,296,108.78,300.67,107.52,305.56Z"/>
        <path class="cls-6" d="M106.3,305.11c.92-2.85,2.24-9.16-3.1-11.8A14.78,14.78,0,0,0,99.77,299C99.18,301,101.71,303.32,106.3,305.11Z"/>
        <path class="cls-16" d="M129.24,253.58l-12.08-1.81c.3-.28.77,0,1.07.28L128,261a13.54,13.54,0,0,0-6.67-1.73c-.69,0-1.56.2-1.71.88a1.61,1.61,0,0,0,.63,1.34,14.17,14.17,0,0,0,3.25,2.4"/>
      </g>
    </g>
  </g>
</svg>
