<svg id="Layer_1" data-name="Layer 1" xmlns="http://www.w3.org/2000/svg" width="257.87" height="255" viewBox="0 0 257.87 255">
  <defs>
    <style>
      .cls-1 {
        fill: #050505;
        opacity: 0.5;
      }

      .cls-2, .cls-29, .cls-7 {
        fill: #fff;
      }

      .cls-11, .cls-3 {
        fill: #fba96a;
      }

      .cls-17, .cls-18, .cls-20, .cls-24, .cls-29, .cls-3 {
        stroke: #000;
      }

      .cls-12, .cls-13, .cls-14, .cls-15, .cls-17, .cls-18, .cls-19, .cls-20, .cls-22, .cls-24, .cls-29, .cls-3, .cls-4, .cls-5, .cls-7, .cls-8 {
        stroke-miterlimit: 10;
      }

      .cls-13, .cls-14, .cls-17, .cls-19, .cls-20, .cls-3 {
        stroke-width: 0.5px;
      }

      .cls-4, .cls-5 {
        fill: #f29e64;
      }

      .cls-12, .cls-13, .cls-14, .cls-15, .cls-19, .cls-22, .cls-4, .cls-5, .cls-7, .cls-8 {
        stroke: #892929;
      }

      .cls-12, .cls-15, .cls-18, .cls-22, .cls-4, .cls-7, .cls-8 {
        stroke-width: 0.75px;
      }

      .cls-6 {
        fill: #3d0000;
      }

      .cls-10, .cls-13, .cls-24, .cls-8 {
        fill: none;
      }

      .cls-14, .cls-15, .cls-9 {
        fill: #fec400;
      }

      .cls-12 {
        fill: #f4904d;
      }

      .cls-16, .cls-17, .cls-19 {
        fill: #fba15c;
      }

      .cls-18, .cls-20, .cls-23 {
        fill: #e0000c;
      }

      .cls-21 {
        fill: #c10517;
      }

      .cls-22 {
        fill: #6d4429;
      }

      .cls-24 {
        stroke-width: 0.33px;
      }

      .cls-25 {
        fill: #d1342d;
      }

      .cls-26 {
        fill: #e56f4b;
      }

      .cls-27 {
        fill: #3b0202;
      }

      .cls-28 {
        fill: #ff8a66;
      }

      .cls-29 {
        stroke-width: 0.31px;
      }
    </style>
  </defs>
  <g>
    <path class="cls-1" d="M255.61,241.53c-3.16-7.15-7.41-16.32-10.22-20.78-.26-.66-.51-1.3-.77-1.93a203.76,203.76,0,0,0-12.45-26.07c.16-7.79-1.67-17.55-2.3-20.66l0-.16a8,8,0,0,0-4.53-5.79L222,164.6a8.45,8.45,0,0,0-1.89-.59c-2.94-.55-11.4-2.19-15.26-3.29A100.43,100.43,0,0,0,190.6,158l-2.12-.32a11.58,11.58,0,0,0-2.23-1.23c-1.67-.72-3.81-1.13-7.57-1.38,4.7-1.69,9-4.64,11.45-9.27,7-12.7-8.48-27.55-8.64-27.7l-.36-.32a16.66,16.66,0,0,0,4.2-4.12c5.22-4.41,6.78-13.64,6.89-17.23.13-4.51-1-8.3-3.25-11C194.55,71.62,193.35,56,185.44,41a19.6,19.6,0,0,0-2.09-13.59C176.72,14.79,160,7.23,138.52,7.23h-1.65c-.28,0-.56,0-.83.06-28.36,3.46-47.95,13-58.23,28.45-6.53,9.8-9.11,21.77-7.64,35.11a10.1,10.1,0,0,0-1.46,1.39,9.39,9.39,0,0,0-5.89,3.54,10.14,10.14,0,0,0-1.53,9,9,9,0,0,0,.61,10.89,9.38,9.38,0,0,0,1.74,1.65,17,17,0,0,0-.12,4.23,18.11,18.11,0,0,0,1,4.23,6.1,6.1,0,0,0-.41.46,8,8,0,0,0-1.69,6.38,15.29,15.29,0,0,0,3.52,8.08A19.37,19.37,0,0,0,65,126.6a20,20,0,0,0,10.11,17.24,8.32,8.32,0,0,0,1.85.77,51.34,51.34,0,0,0,6.08,1.3c0,.43,0,.87,0,1.33a12.21,12.21,0,0,0,5.33,9.7l-1.06.81a27.56,27.56,0,0,1-4.58.63,26.88,26.88,0,0,0-16.85,1.35,39.13,39.13,0,0,0-27.25,14.16l0,0c-3.18,4.39-16.93,30.61-22.79,43.17-8.26,17.75-9.32,24.12-9.32,27.68a8,8,0,0,0,8,8H248.3a8,8,0,0,0,7.31-11.24Zm-86.08-111a15,15,0,0,1,1.75,7h0a8.38,8.38,0,0,0-.3-1.72,8,8,0,0,0-2.39-4C168.91,131.35,169.22,130.93,169.53,130.5Z"/>
    <path class="cls-2" d="M250.61,236.53c-3.16-7.15-7.41-16.32-10.22-20.78-.26-.66-.51-1.3-.77-1.93a203.76,203.76,0,0,0-12.45-26.07c.16-7.79-1.67-17.55-2.3-20.66l0-.16a8,8,0,0,0-4.53-5.79L217,159.6a8.45,8.45,0,0,0-1.89-.59c-2.94-.55-11.4-2.19-15.26-3.29A100.43,100.43,0,0,0,185.6,153l-2.12-.32a11.58,11.58,0,0,0-2.23-1.23c-1.67-.72-3.81-1.13-7.57-1.38,4.7-1.69,9-4.64,11.45-9.27,7-12.7-8.48-27.55-8.64-27.7l-.36-.32a16.66,16.66,0,0,0,4.2-4.12c5.22-4.41,6.78-13.64,6.89-17.23.13-4.51-1-8.3-3.25-11C189.55,66.62,188.35,51,180.44,36a19.6,19.6,0,0,0-2.09-13.59C171.72,9.79,155,2.23,133.52,2.23h-1.65c-.28,0-.56,0-.83.06-28.36,3.46-47.95,13-58.23,28.45-6.53,9.8-9.11,21.77-7.64,35.11a10.1,10.1,0,0,0-1.46,1.39,9.39,9.39,0,0,0-5.89,3.54,10.14,10.14,0,0,0-1.53,9,9,9,0,0,0,.61,10.89,9.38,9.38,0,0,0,1.74,1.65,17,17,0,0,0-.12,4.23,18.11,18.11,0,0,0,1,4.23,6.1,6.1,0,0,0-.41.46,8,8,0,0,0-1.69,6.38,15.29,15.29,0,0,0,3.52,8.08A19.37,19.37,0,0,0,60,121.6a20,20,0,0,0,10.11,17.24,8.32,8.32,0,0,0,1.85.77,51.34,51.34,0,0,0,6.08,1.3c0,.43,0,.87,0,1.33a12.21,12.21,0,0,0,5.33,9.7l-1.06.81a27.56,27.56,0,0,1-4.58.63,26.88,26.88,0,0,0-16.85,1.35,39.13,39.13,0,0,0-27.25,14.16l0,0c-3.18,4.39-16.93,30.61-22.79,43.17-8.26,17.75-9.32,24.12-9.32,27.68a8,8,0,0,0,8,8H243.3a8,8,0,0,0,7.31-11.24Zm-86.08-111a15,15,0,0,1,1.75,7h0a8.38,8.38,0,0,0-.3-1.72,8,8,0,0,0-2.39-4C163.91,126.35,164.22,125.93,164.53,125.5Z"/>
    <g>
      <path class="cls-3" d="M166,87.12c-2.17-8.31-6.53-26.51-5.65-38.21,0,.25-7.24-1.17-9.69-4.53.13.13-68.27-5-61.81,49.56a.19.19,0,0,0-.06-.07c-.89-.81-8.28-3.67-10-7.81a9.27,9.27,0,0,0-4.13.73c-7.31,3-5,15.19,5,19.53a8.19,8.19,0,0,0,6.33.82,48,48,0,0,0,8.25,15.36c.64.77,1.31,1.55,2,2.31h0a40.37,40.37,0,0,0,4.75,4.3,37.3,37.3,0,0,0,6.84,4.13c6.54,3,14.86,4.57,25.41,3.06a48.7,48.7,0,0,0,9.12-3.2c8-3.65,18.55-10.91,20.6-24.17C159.74,97.58,164.08,89.81,166,87.12ZM85.6,106A3.08,3.08,0,0,1,83,107.3a2.76,2.76,0,1,1,3-2.75A2.5,2.5,0,0,1,85.6,106Zm47.1-12A2.74,2.74,0,1,1,130,96.68,2.73,2.73,0,0,1,132.7,93.94ZM96.79,80.78c0-4.88,4.62-8.84,10.33-8.84s10.33,4,10.33,8.84-4.62,8.85-10.33,8.85S96.79,85.67,96.79,80.78Zm47.77,8.85c-5.71,0-10.33-4-10.33-8.85s4.62-8.84,10.33-8.84,10.34,4,10.34,8.84S150.27,89.63,144.56,89.63Z"/>
      <path class="cls-4" d="M142,239.77H127.27s-1-12.27,0-15c.67-8.16-.19-14.61,0-15.08-1.14-5.22-1-11.3,1-9.48,0,0,0,0,0,0a22.35,22.35,0,0,0-1.07-3.84,20.83,20.83,0,0,1-.86-5.47v0a29.36,29.36,0,0,0,0-4.51h0a5.69,5.69,0,0,1,.16-1c.19-.71,1,.18,2.16,1.91-.29-1.65-.8-4.32-.32-5.9a1.56,1.56,0,0,1,2-1.21.08.08,0,0,1,0,0c1.2,1.19,3.42,5.67,5.5,10.79a96.67,96.67,0,0,1,4,11.75,28,28,0,0,1,.73,3.78c.34,3.1.83,9.36,1.16,15.82A142.56,142.56,0,0,1,142,239.77Z"/>
      <path class="cls-5" d="M126.41,186.38a26,26,0,0,0,0,4.51v0a21.14,21.14,0,0,1-.87,5.47,22.35,22.35,0,0,0-1.07,3.84l0,0c2-1.82,2.19,4.26,1.05,9.48.19.47-.67,6.92,0,15.08,1,2.75,0,15,0,15H110.86a134,134,0,0,1,.06-16.16c.22-4.53.53-9.06.82-12.57.14-1.82.29-3.37.41-4.5.48-4.54,3.58-13.21,6.38-19.43,1.55-3.42,3-6.1,3.87-6.93,1.91-.35,2.28,1.41,2.18,3.42a31.47,31.47,0,0,1-.5,3.69c1.12-1.73,2-2.62,2.15-1.91a6.58,6.58,0,0,1,.18,1Z"/>
      <path class="cls-6" d="M173.14,84l-.24.39a50.81,50.81,0,0,1-5.73,7.17c0-.06-.48-1.71-1.19-4.4-2.17-8.31-6.53-26.51-5.65-38.21,0,.25-7.24-1.17-9.69-4.53.13.13-68.27-5-61.81,49.56a.19.19,0,0,0-.06-.07c-.89-.81-8.28-3.67-10-7.81-.52-1.23-1.06-2.59-1.59-4.07-.62-1.74-1.25-3.64-1.82-5.67h0C69.24,54.47,69.05,17.93,132,10.24,166.34,9.66,176.87,29,171.6,36.58,171.08,36.4,188.49,60,173.14,84Z"/>
      <ellipse class="cls-7" cx="107.12" cy="80.78" rx="10.33" ry="8.84"/>
      <ellipse class="cls-6" cx="107.07" cy="80.1" rx="5.88" ry="5.97"/>
      <path class="cls-7" d="M154.9,80.78c0,4.89-4.63,8.85-10.34,8.85s-10.33-4-10.33-8.85,4.62-8.84,10.33-8.84S154.9,75.9,154.9,80.78Z"/>
      <ellipse class="cls-6" cx="144.51" cy="80.1" rx="5.88" ry="5.97"/>
      <path class="cls-8" d="M87.84,106.32a6.85,6.85,0,0,1-1.9.82"/>
      <path class="cls-8" d="M85.94,90.68s-2.49-4.31-7.17-4.62"/>
      <path class="cls-8" d="M85.6,106c0-.18-.07-.28-.07-.28"/>
      <path class="cls-6" d="M85.94,107.14a8.19,8.19,0,0,1-6.33-.82c-10-4.34-12.28-16.54-5-19.53a9.27,9.27,0,0,1,4.13-.73c-.52-1.23-1.06-2.59-1.59-4.07a37.54,37.54,0,0,0-3.59,2.24h0a25.58,25.58,0,0,0-2.36,1.86h0c-11.35,10.07,1,19,2,19.6a3.25,3.25,0,0,1,.9,1.14c1,0,1.62,0,1.67,0l.24-.48c6.41.48,1.72,4.58,1.72,4.58a14.19,14.19,0,0,0-2-.54l-.86.42c-9.87,5.68-8.13,16.89-.77,21.09,18.27,5,20-4.75,20.09-9.39A48,48,0,0,1,85.94,107.14ZM83,117.43a2.76,2.76,0,1,1,3-2.75A2.9,2.9,0,0,1,83,117.43Z"/>
      <path class="cls-9" d="M73.58,84.23a25.58,25.58,0,0,0-2.36,1.86h0c-2.07.23-6.86,1.09-8.15-.47-1.45-1.77,2.31-3,5.09-3.23A20.33,20.33,0,0,0,73.58,84.23Z"/>
      <path class="cls-10" d="M69,82.35a7.47,7.47,0,0,0-.8.05"/>
      <path class="cls-10" d="M71.22,86.09a2.94,2.94,0,0,1,.92,0"/>
      <path class="cls-10" d="M71.3,78a7.25,7.25,0,0,0-1.37-1.18h0"/>
      <path class="cls-10" d="M74.83,84.44c-.12,0-.58-.08-1.24-.21"/>
      <path class="cls-10" d="M76.68,77.89c-.41-.49-.85-1-1.32-1.57"/>
      <path class="cls-9" d="M77.18,82a37.54,37.54,0,0,0-3.59,2.24h0a20.33,20.33,0,0,1-5.43-1.83A7.54,7.54,0,0,1,64.07,78c-1.17-4.3,3.23-3,5.86-1.19-.52-1.6-1.16-4.42.7-4.85,1,.12,3,2.3,4.73,4.37h0C75.93,78.35,76.56,80.25,77.18,82Z"/>
      <path class="cls-10" d="M70.34,77.89s-.19-.45-.41-1.09h0"/>
      <path class="cls-9" d="M77.69,110.92a14.19,14.19,0,0,0-2-.54l-.86.42c-9.15,4.16-9.54-4.46-9.6-4.46,1,.62,6.11.56,8.79.5,1,0,1.62,0,1.67,0l.24-.48C82.38,106.82,77.69,110.92,77.69,110.92Z"/>
      <path class="cls-6" d="M101,129.11c.86,14.08-6.86,6-10.18,9.46-2.87,1.92,1.28,7.67,1.28,7.67s-5.75.64-6-4.41,3.58-6.58,8.14-6.52c3.91-.36,2.64-7.73,2-10.5Z"/>
      <path class="cls-6" d="M171.06,118.92c-1.52-.91-4.16-4.44-4-12.67l.23.15a20.59,20.59,0,0,1-.12-15.25l0,0c0-.06-.47-1.71-1.18-4.4-1.9,2.7-6.25,10.47-3,21.81A32.82,32.82,0,0,0,164,112c11.16,10.28,11.47,21.62,9,25.4s-17,6.93-14.85-4.67c-.47.26-5.13.46-4.73,7,.79,5.89,20,5.89,24.61-2.81C181.78,130.35,172.29,120.06,171.06,118.92Z"/>
      <path class="cls-11" d="M175.68,84.12a8.38,8.38,0,0,0-2.54-.32l-.24.39a50.82,50.82,0,0,1-5.69,7.12,20.48,20.48,0,0,0,.12,15.25h0c3.42,2.06,7.25-3.22,6.95-3.6C177.82,102.21,182.64,86,175.68,84.12Z"/>
      <path class="cls-12" d="M172.47,101.89c-2.55,2.73-3.69-1.43-3.56-2.21.79-2.06-.36-2.43-1.12-3.15a1.66,1.66,0,0,1-.57-1.11,2.17,2.17,0,0,1,.46-1c1.36-1.87,5.35-4.39,5.65-4.07C176.71,93.89,175,99.16,172.47,101.89Z"/>
      <path class="cls-8" d="M158.28,133s0,0,0,.07A.2.2,0,0,1,158.28,133Z"/>
      <path class="cls-13" d="M118.62,101.23a2.41,2.41,0,0,0,2.39.88c.13,0,3,2.43,7.76,0,.12,0,2.23.3,3.16-.93"/>
      <circle class="cls-14" cx="132.7" cy="96.68" r="2.74"/>
      <path class="cls-9" d="M86.05,104.55A2.5,2.5,0,0,1,85.6,106,3.08,3.08,0,0,1,83,107.3a2.76,2.76,0,1,1,3-2.75Z"/>
      <path class="cls-9" d="M86.05,114.68a3,3,0,1,1-3-2.75A2.9,2.9,0,0,1,86.05,114.68Z"/>
      <path class="cls-15" d="M128.73,187.29c-1.12-1.73-2-2.62-2.16-1.91a5.69,5.69,0,0,0-.16,1,6.58,6.58,0,0,0-.18-1c-.19-.71-1,.18-2.15,1.91a31.47,31.47,0,0,0,.5-3.69l3.83-2.21C127.93,183,128.44,185.64,128.73,187.29Z"/>
      <path class="cls-16" d="M150.18,169c-4,2.24-11.68,6.62-19.74,11.27a.08.08,0,0,0,0,0,1.56,1.56,0,0,0-2,1.21l-3.83,2.21c.1-2-.27-3.77-2.18-3.42-.87.83-2.32,3.51-3.87,6.93l-14.64,8.51h0c-6.49-17.84-8.27-38.88-8.27-38.88a13.45,13.45,0,0,0,5.39-1.5,9.29,9.29,0,0,0,.82-.48c0,.17,0,.35.08.53,1.07,5.41,10.61,12,16.4,12.87a3.42,3.42,0,0,0-1.91,2.78c0,2.24,3.18,4.06,7.11,4.06s7.11-1.82,7.11-4.06a3.54,3.54,0,0,0-2.13-2.9c4.73-.59,9.64-2,12.73-4.55a18.41,18.41,0,0,0,6.48-10.83,10.53,10.53,0,0,0,1.41.89h0C149.91,155.4,151.25,160.06,150.18,169Z"/>
      <path class="cls-17" d="M123.25,164.28c-12.57-.09-18-12.39-18.18-12.72h0a13.27,13.27,0,0,0,1-1.67c2.77-5.57,2.24-13.06,1.76-16.65,6.54,3,14.86,4.57,25.41,3.06a48.7,48.7,0,0,0,9.12-3.2c-.45,3.58-.77,10.11,1.72,15.13.19.38.4.76.62,1.13C145.08,153.72,136,164.38,123.25,164.28Z"/>
      <path class="cls-15" d="M147.77,151.87a5,5,0,0,1-.07.79,18.41,18.41,0,0,1-6.48,10.83c-3.09,2.58-8,4-12.73,4.55a3.54,3.54,0,0,1,2.13,2.9c0,2.24-3.19,4.06-7.11,4.06s-7.11-1.82-7.11-4.06a3.42,3.42,0,0,1,1.91-2.78c-5.79-.91-15.33-7.46-16.4-12.87,0-.18-.06-.36-.08-.53-.44-3.62,2.47-4.6,4.22-4.87a13.27,13.27,0,0,1-1,1.67h0c.15.33,5.61,12.63,18.18,12.72,12.72.1,21.83-10.56,21.43-14.92-.22-.37-.43-.75-.62-1.13,1.9.67,3.6,2.11,3.71,3.22A2.91,2.91,0,0,1,147.77,151.87Z"/>
      <path class="cls-18" d="M95,200.88A311.44,311.44,0,0,0,62.79,223.4a101.61,101.61,0,0,0-11.75,11c-15.91-4.79-28-14.56-32.88-18.95,8.9-19.1,21.54-41.34,21.59-41.4,10.36-12.18,22.88-11.27,23.13-11.44a18.82,18.82,0,0,1,13.7-1.29s0,.1,0,.16c1.1,6.9,5.57,29.6,18.09,38.73C94.78,200.44,94.88,200.66,95,200.88Z"/>
      <path class="cls-17" d="M51,234.42a36.72,36.72,0,0,0-4,5.35H9.58c0-4.45,3.74-13.91,8.58-24.3C23,219.86,35.13,229.63,51,234.42Z"/>
      <path class="cls-8" d="M76.58,161.34l.4.12.32.1"/>
      <path class="cls-15" d="M103.35,215.3c-5,3.79-19.47,14.8-28.43,24.47H47a36.72,36.72,0,0,1,4-5.35,101.61,101.61,0,0,1,11.75-11A311.44,311.44,0,0,1,95,200.88,72,72,0,0,0,103.35,215.3Z"/>
      <path class="cls-8" d="M62.79,223.4c0-2.68-.14-7-.31-12C62,198.26,61.2,181,61,181"/>
      <path class="cls-8" d="M62.48,211.45c-4.07-1.8-4.75-20.73-4.75-20.73"/>
      <path class="cls-15" d="M111.74,211c-.29,3.51-.6,8-.82,12.57a60.81,60.81,0,0,1-7.57-8.31A72,72,0,0,1,95,200.88c-.09-.22-.19-.44-.28-.65-7.44-17.31-8-35-7.9-40.81,2.55-1.91,7.72-6.39,12.18-6.17.06-.19,1.37,1.24,2,2a13.45,13.45,0,0,1-5.39,1.5s1.78,21,8.27,38.88h0A60.81,60.81,0,0,0,111.74,211Z"/>
      <path class="cls-17" d="M94.69,200.23c-12.52-9.13-17-31.83-18.09-38.73l.38,0c2-.17,7.61-.42,9.72-2l.09-.06C86.73,165.26,87.25,182.92,94.69,200.23Z"/>
      <path class="cls-8" d="M76.61,161.5a.69.69,0,0,0-.3.07"/>
      <path class="cls-15" d="M141.82,222.36c-.33-6.46-.82-12.72-1.16-15.82a28,28,0,0,0-.73-3.78,150.71,150.71,0,0,0,8.63-24.93,75.73,75.73,0,0,0,1.62-8.88c1.07-8.89-.27-13.55-1.07-15.4h0a10.53,10.53,0,0,1-1.41-.89,5,5,0,0,0,.07-.79c3,.34,8,1.7,10.72,4.19a9.17,9.17,0,0,1,.35,1.69,52.2,52.2,0,0,1,.44,5.93C159.51,174.4,157.29,195.61,141.82,222.36Z"/>
      <path class="cls-19" d="M164.55,159.79c-1.35,1.11-3.32,2.55-5.27,3.89a52.2,52.2,0,0,0-.44-5.93C160.19,158.29,162.69,159.26,164.55,159.79Z"/>
      <path class="cls-10" d="M166.25,160.16a10.9,10.9,0,0,1-1.7-.37"/>
      <path class="cls-10" d="M158.84,157.75l-1-.39"/>
      <path class="cls-20" d="M217,168.73a114.16,114.16,0,0,0-4.34,11.85c-3.19,10-7.9,26.89-14.11,55-.31,1.38-.61,2.78-.93,4.21H142a142.56,142.56,0,0,0-.13-17.41c15.47-26.75,17.69-48,17.46-58.68,1.95-1.34,3.92-2.78,5.27-3.89a8.1,8.1,0,0,0,1.7-1.67l.19-.36c3.06.06,9.76.18,11.67,1,2.43,1-.91,1,4.61,1.85a109.35,109.35,0,0,1,14.91,2.8c5.06,1.45,16,3.46,16,3.46l3.35,1.54Z"/>
      <path class="cls-21" d="M219.05,189.74a82.33,82.33,0,0,0-6.35-9.16A114.16,114.16,0,0,1,217,168.73C217.46,170.81,219.75,182.6,219.05,189.74Z"/>
      <path class="cls-13" d="M219.05,189.75c0,.29-.06.59-.11.87"/>
      <path class="cls-3" d="M243.3,239.77H197.66c.32-1.43.62-2.83.93-4.21,6-2.25,21.78-8.77,33.61-18.76.34.86.7,1.74,1,2.63C235.89,223.28,241.2,235,243.3,239.77Z"/>
      <path class="cls-20" d="M232.2,216.8c-11.83,10-27.62,16.51-33.61,18.76,6.21-28.09,10.92-45,14.11-55a82.33,82.33,0,0,1,6.35,9.16h0A185.46,185.46,0,0,1,232.2,216.8Z"/>
      <path class="cls-13" d="M208.61,176.45c.16,0,1.65,1.13,4.09,4.13"/>
      <path class="cls-10" d="M155.57,39.15c-.92-.46-63.24-26.52-76.23,43.2"/>
      <path class="cls-10" d="M155.57,35.44c-.3,0-35.77-30.6-67,7.22"/>
      <path class="cls-10" d="M165,35.1c-.5-.17-5.63-27.32-33.09-22.86"/>
      <path class="cls-10" d="M167.61,35.1s.69-15.88-11.33-20"/>
      <path class="cls-10" d="M163.22,46s6.64,17.43,4.39,35.28"/>
      <path class="cls-10" d="M169.11,46a47.3,47.3,0,0,1,2.8,29.07"/>
      <path class="cls-10" d="M174.36,46a45.84,45.84,0,0,1,0,24.71"/>
      <path class="cls-8" d="M119.46,222.38s2.55-19.29,5-22.16"/>
      <path class="cls-8" d="M124.08,187.29h0c-2.65,4.06-6.84,12.77-7.68,16.3-1.21,5-1.68,12.34-2.25,14.81"/>
      <line class="cls-8" x1="124.08" y1="187.29" x2="124.08" y2="187.29"/>
      <path class="cls-15" d="M118.53,187.11c-2.8,6.22-5.9,14.89-6.38,19.43-.12,1.13-.27,2.68-.41,4.5a60.81,60.81,0,0,1-7.85-15.42Z"/>
      <path class="cls-8" d="M128.34,200.22c2.46,2.87,5,22.16,5,22.16"/>
      <path class="cls-8" d="M138.66,218.4c-.57-2.47-1-9.78-2.25-14.81-.84-3.53-5-12.24-7.68-16.3h0"/>
      <line class="cls-8" x1="128.73" y1="187.29" x2="128.73" y2="187.29"/>
      <path class="cls-15" d="M150.18,169a75.73,75.73,0,0,1-1.62,8.88c-3.74,3.82-10.05,10.31-12.62,13.18-2.08-5.12-4.3-9.6-5.5-10.79C138.5,175.57,146.16,171.19,150.18,169Z"/>
      <path class="cls-20" d="M148.56,177.83a150.71,150.71,0,0,1-8.63,24.93,96.67,96.67,0,0,0-4-11.75C138.51,188.14,144.82,181.65,148.56,177.83Z"/>
      <path class="cls-20" d="M110.86,239.77H74.92c9-9.67,23.47-20.68,28.43-24.47a60.81,60.81,0,0,0,7.57,8.31A134,134,0,0,0,110.86,239.77Z"/>
      <path class="cls-22" d="M128.34,200.22s0,0,0,0c-2-1.82-2.18,4.26-1,9.48-.19.47.67,6.92,0,15.08-1,2.75,0,15,0,15h-1.73s1-12.27,0-15c-.67-8.16.19-14.61,0-15.08,1.14-5.22.95-11.3-1.05-9.48l0,0a22.35,22.35,0,0,1,1.07-3.84,21.14,21.14,0,0,0,.87-5.47,20.83,20.83,0,0,0,.86,5.47A22.35,22.35,0,0,1,128.34,200.22Z"/>
      <path class="cls-12" d="M78.73,101.63c2.55,2.73,3.7-1.43,3.57-2.21C81.19,96.55,83.85,97,84,95.16c-.19-1.79-5.74-5.42-6.11-5C74.49,93.63,76.18,98.9,78.73,101.63Z"/>
      <path class="cls-6" d="M134.23,69.26V67s21.13-9.6,25.47,1.11C159.79,67.87,152.5,60.77,134.23,69.26Z"/>
      <path class="cls-6" d="M118.12,69.26V67S97,57.44,92.64,68.15C92.55,67.87,99.84,60.77,118.12,69.26Z"/>
      <circle class="cls-23" cx="126.41" cy="68.15" r="1.98"/>
      <g>
        <path class="cls-6" d="M154.85,80.78a8.69,8.69,0,0,1,0,.89c-.52-4.47-4.92-8-10.28-8s-9.77,3.49-10.29,8a8.69,8.69,0,0,1,0-.89c0-4.88,4.63-8.84,10.34-8.84S154.85,75.9,154.85,80.78Z"/>
        <path class="cls-6" d="M156.73,74a1.88,1.88,0,0,1-1.25,2.31,1.14,1.14,0,0,1-.26.09,1.81,1.81,0,0,1-2.26-.83,1.71,1.71,0,0,1-.09-.3,1.8,1.8,0,0,0,1.66.64,2.54,2.54,0,0,0,.71-.17,2,2,0,0,0,1.34-2A1.17,1.17,0,0,1,156.73,74Z"/>
        <path class="cls-6" d="M156,73.3c.27.64-.36,1.52-1.4,2a2.67,2.67,0,0,1-.26.09c-1,.31-1.87.12-2.11-.47a.94.94,0,0,1-.06-.24,1.66,1.66,0,0,0,1.55.38,3.22,3.22,0,0,0,.7-.2c.92-.39,1.51-1.11,1.45-1.72A.57.57,0,0,1,156,73.3Z"/>
        <path class="cls-6" d="M158.25,74.74c.35.84-.42,2-1.72,2.51a2.08,2.08,0,0,1-.32.12c-1.2.38-2.35.11-2.67-.67a1,1,0,0,1-.08-.3,2.08,2.08,0,0,0,1.95.52,3.24,3.24,0,0,0,.88-.25c1.15-.48,1.88-1.41,1.79-2.2A1,1,0,0,1,158.25,74.74Z"/>
      </g>
      <g>
        <path class="cls-6" d="M96.79,79.47a6.49,6.49,0,0,0,0,.88c.51-4.47,4.92-8,10.28-8s9.77,3.49,10.28,8a6.51,6.51,0,0,0,.06-.88c0-4.89-4.63-8.84-10.34-8.84S96.79,74.58,96.79,79.47Z"/>
        <path class="cls-6" d="M94.91,72.64A1.88,1.88,0,0,0,96.15,75l.27.09a1.82,1.82,0,0,0,2.26-.84,1.11,1.11,0,0,0,.08-.3,1.79,1.79,0,0,1-1.66.65,2.74,2.74,0,0,1-.71-.18,2,2,0,0,1-1.33-2A1.17,1.17,0,0,0,94.91,72.64Z"/>
        <path class="cls-6" d="M95.61,72c-.27.64.35,1.52,1.4,2l.26.1c1,.31,1.86.11,2.11-.48a.59.59,0,0,0,.05-.23,1.64,1.64,0,0,1-1.54.37,3.07,3.07,0,0,1-.7-.2c-.92-.38-1.52-1.11-1.46-1.72A1.13,1.13,0,0,0,95.61,72Z"/>
        <path class="cls-6" d="M93.39,73.42c-.35.85.42,2,1.72,2.51a1.75,1.75,0,0,0,.32.12c1.19.38,2.34.11,2.67-.67a.73.73,0,0,0,.07-.3,2.07,2.07,0,0,1-2,.52,3.53,3.53,0,0,1-.87-.24c-1.16-.48-1.89-1.41-1.8-2.2A1,1,0,0,0,93.39,73.42Z"/>
      </g>
      <ellipse class="cls-2" cx="148.17" cy="76.46" rx="2.7" ry="1.3"/>
      <ellipse class="cls-2" cx="110.25" cy="75.8" rx="2.7" ry="1.3"/>
      <path class="cls-24" d="M118.93,126.57a18.48,18.48,0,0,1,15.42,0"/>
      <g>
        <path class="cls-25" d="M140.61,111.71l-.12.11c-.24.13-.73.36-1.44.65a31.48,31.48,0,0,1-10.69,2.15h-.61c-6-.17-10.61-.77-14.16-2.13-.36-.14-.71-.29-1-.44h0l.38.08s0,0,0,0l.73.13a22.61,22.61,0,0,0,7.61.06c6.58-.28,10,.06,10.54,0a14.56,14.56,0,0,0,7.91-.28l.47-.18Z"/>
        <path class="cls-26" d="M140.73,111.71c-.3.52-.61,1-.93,1.46,0,0,0,0,0,0l0,0h0c-.2.28-.4.54-.6.8-3.69,4.72-8.16,6-9.64,6a28.39,28.39,0,0,1-3.14-.18c-7.46.45-12.61-6.2-13.77-7.84l0-.08.14,0h0c3.67,1.67,8.58,2.38,15.2,2.57a30,30,0,0,0,12.74-2.79h0Z"/>
        <g>
          <path class="cls-25" d="M113.85,112.42c-.59-.09-1-.18-1.12-.21h0l-.14,0h0c-.77-.2-1.23.72-1.64.66s-1-1-.44-1.51,1.18-.1,1.77.11A7.82,7.82,0,0,0,113.85,112.42Z"/>
          <path class="cls-26" d="M112.61,112.23c-.44,0-.78.47-1.69,1.23s-1.11.26-1.47-.23a1.78,1.78,0,0,1,0-1.76c.24-.56,1.69-1.21,2.18-.64a5.79,5.79,0,0,0,.61.57c-.59-.21-1.4-.46-1.77-.11s0,1.44.44,1.51.87-.86,1.64-.66h0Z"/>
        </g>
        <g>
          <path class="cls-25" d="M139,112.44c.59-.09,1-.18,1.13-.21h0l.14,0h0c.77-.2,1.22.72,1.64.66s.94-1,.43-1.51-1.17-.1-1.77.1A7.25,7.25,0,0,1,139,112.44Z"/>
          <path class="cls-26" d="M140.2,112.25c.45,0,.78.47,1.69,1.23s1.11.26,1.48-.23a1.81,1.81,0,0,0,0-1.76c-.25-.56-1.69-1.21-2.19-.64a4.88,4.88,0,0,1-.61.56c.6-.2,1.4-.45,1.77-.1s0,1.44-.43,1.51-.87-.86-1.64-.66h0Z"/>
        </g>
        <path class="cls-27" d="M139.31,112.55a25.1,25.1,0,0,1-11.2,2.63c-5.91-.23-10.56-1-14.26-2.62,3.54,1.15,8.14,1.66,14.16,1.81h.61A36.06,36.06,0,0,0,139.31,112.55Z"/>
        <path class="cls-28" d="M118,114.36s8.59,6.85,16.71,0C134.79,114.32,126.67,118.91,118,114.36Z"/>
      </g>
      <g>
        <g>
          <path class="cls-29" d="M99,178.19a3.54,3.54,0,0,0-3.48-.72,4,4,0,0,0-1.75,1.05,4,4,0,0,0-2.06.06,3.32,3.32,0,0,0-2.49,2.52,2.24,2.24,0,0,1-.56-.92c-.45-1.41.63-3,2.41-3.5a3.92,3.92,0,0,1,2.06-.06,3.9,3.9,0,0,1,1.75-1.05c1.78-.52,3.59.22,4,1.63A2.38,2.38,0,0,1,99,178.19Z"/>
          <path class="cls-29" d="M99.5,179.93a3.56,3.56,0,0,0-3.48-.71,3.81,3.81,0,0,0-1.75,1.05,4,4,0,0,0-2.06,0,3.35,3.35,0,0,0-2.49,2.52,2.15,2.15,0,0,1-.56-.91c-.45-1.42.63-3,2.41-3.51a4.06,4.06,0,0,1,2.07,0,3.71,3.71,0,0,1,1.75-1.05c1.78-.52,3.59.21,4,1.63A2.05,2.05,0,0,1,99.5,179.93Z"/>
        </g>
        <g>
          <path class="cls-29" d="M101.62,188.22a3.52,3.52,0,0,0-3.47-.72,3.79,3.79,0,0,0-1.75,1.05,4,4,0,0,0-2.07.06,3.33,3.33,0,0,0-2.49,2.52,2.36,2.36,0,0,1-.56-.92c-.45-1.42.63-3,2.42-3.5a3.92,3.92,0,0,1,2.06-.06,3.9,3.9,0,0,1,1.75-1.05c1.78-.52,3.59.21,4,1.63A2.09,2.09,0,0,1,101.62,188.22Z"/>
          <path class="cls-29" d="M102.16,190a3.54,3.54,0,0,0-3.48-.72,4,4,0,0,0-1.75,1,4,4,0,0,0-2.06.06,3.32,3.32,0,0,0-2.49,2.52,2.27,2.27,0,0,1-.56-.91c-.45-1.42.63-3,2.41-3.51a4,4,0,0,1,2.06-.06,3.9,3.9,0,0,1,1.75-1c1.78-.51,3.59.22,4,1.63A2.38,2.38,0,0,1,102.16,190Z"/>
        </g>
      </g>
      <g>
        <g>
          <path class="cls-29" d="M147.91,179.49a3.54,3.54,0,0,1,3.48-.72,3.81,3.81,0,0,1,1.74,1,4,4,0,0,1,2.07.06,3.33,3.33,0,0,1,2.49,2.51,2.15,2.15,0,0,0,.56-.91c.45-1.42-.63-3-2.41-3.51a4.06,4.06,0,0,0-2.07-.05,3.76,3.76,0,0,0-1.75-1c-1.78-.52-3.59.21-4,1.63A2.08,2.08,0,0,0,147.91,179.49Z"/>
          <path class="cls-29" d="M147.38,181.23a3.52,3.52,0,0,1,3.47-.72,3.85,3.85,0,0,1,1.75,1.05,4.06,4.06,0,0,1,2.07.06,3.35,3.35,0,0,1,2.49,2.52,2.33,2.33,0,0,0,.55-.92c.45-1.42-.63-3-2.41-3.5a3.92,3.92,0,0,0-2.06-.06,3.9,3.9,0,0,0-1.75-1c-1.78-.52-3.59.21-4,1.63A2.22,2.22,0,0,0,147.38,181.23Z"/>
        </g>
        <g>
          <path class="cls-29" d="M145.25,189.51a3.54,3.54,0,0,1,3.48-.71,3.81,3.81,0,0,1,1.75,1,4,4,0,0,1,2.06.05,3.32,3.32,0,0,1,2.49,2.52,2.21,2.21,0,0,0,.56-.91c.45-1.42-.63-3-2.41-3.51a4,4,0,0,0-2.06-.06,4,4,0,0,0-1.75-1.05c-1.78-.51-3.59.22-4,1.64A2.34,2.34,0,0,0,145.25,189.51Z"/>
          <path class="cls-29" d="M144.72,191.26a3.54,3.54,0,0,1,3.48-.72,3.81,3.81,0,0,1,1.74,1.05,4,4,0,0,1,2.07.06,3.33,3.33,0,0,1,2.49,2.52,2.24,2.24,0,0,0,.56-.92c.45-1.42-.63-3-2.41-3.51a4.06,4.06,0,0,0-2.07-.05,3.76,3.76,0,0,0-1.75-1.05c-1.78-.52-3.59.21-4,1.63A2.09,2.09,0,0,0,144.72,191.26Z"/>
        </g>
      </g>
    </g>
  </g>
</svg>
