<svg id="Layer_1" data-name="Layer 1" xmlns="http://www.w3.org/2000/svg" width="382.38" height="368.68" viewBox="0 0 382.38 368.68">
  <defs>
    <style>
      .cls-1 {
        fill: #fffa4d;
      }

      .cls-2 {
        fill: #fcd6c5;
      }

      .cls-3 {
        fill: #ffbb34;
      }

      .cls-4 {
        fill: #f2a150;
      }

      .cls-5 {
        fill: #ffe952;
      }

      .cls-6 {
        fill: #fa8d5f;
      }

      .cls-7 {
        fill: #a34c29;
      }

      .cls-8 {
        fill: #e06531;
      }

      .cls-9 {
        fill: #5e2020;
      }
    </style>
  </defs>
  <g>
    <path class="cls-1" d="M309.32,365.94c-20,0-39.88-9.69-53.13-25.92-17.36-21.27-23.19-49.3-14.87-71.42a64.41,64.41,0,0,1,4.16-8.9c-21.36-17.93-42.41-36.57-62.82-54.63-8.3-7.35-16.89-14.95-25.36-22.38C141.81,169.1,126,155.31,110.75,142c-18.11-15.81-36.84-32.16-55.2-48.3l-4.48-4-.14,0a12.83,12.83,0,0,1-4.32.74A16,16,0,0,1,38,87.75c-.64-.41-1.22-.83-1.78-1.27a8,8,0,0,1-3.07-6.83l0-.36c0-.33,0-.66.07-1,.09-1.4.2-2.82.32-4.21l-8.59-7.68c-6.74-6-13.71-12.27-20.45-18.56L3.21,46.67a8,8,0,0,1-1.15-10.5,13.8,13.8,0,0,1,1-1.26c.23-.25.49-.5.75-.74a12.28,12.28,0,0,1,1.89-1.42c4.82-3.32,11.32-5.14,18.36-5.14.45,0,.89,0,1.33,0,1,0,2,.1,3,.21a16.32,16.32,0,0,1-1.16-8.45C28.18,12,34.4,6.78,40.87,4.8a10.61,10.61,0,0,1,6.31-2.06,12.32,12.32,0,0,1,6.44,1.89A19.59,19.59,0,0,1,66.44,15.74,17,17,0,0,1,61.18,36c-.26.19-.52.38-.79.56-.32,2.4-.68,5-1,7.81,3,2.06,6.21,4.27,10,6.77,1.29.85,2.58,1.72,3.87,2.59,1.8,1.21,3.54,2.38,5.28,3.51l3.54-.78,3.88-.84.85-.18a8.24,8.24,0,0,1,1.56-.15,8,8,0,0,1,5.33,2l.48.44c1.1,1,2.19,2.08,3.28,3.14l.71.71a8,8,0,0,1,2.33,6.48,5.54,5.54,0,0,1-.07.57L111.55,78.9c12,11,23.62,21.86,34.62,32.19L267,204.61l32.63,25.17c.47.05.94.12,1.44.19,1.45.05,2.91.15,4.36.31a80.21,80.21,0,0,1,12.91,2.46c2.66.71,5.32,1.56,7.92,2.53a77.18,77.18,0,0,1,30,18.5c6.25,6.18,14,16,16,27.66.33,1.1.64,2.24.91,3.38a66.92,66.92,0,0,1-2.07,37.51,12.62,12.62,0,0,1,7.46,4.33c4.81,5.85,3.68,14.09.44,19.68a17.39,17.39,0,0,1-14.83,8.83h0a16.31,16.31,0,0,1-3-.28,15.61,15.61,0,0,1-8.79-5.09,67.09,67.09,0,0,1-34.44,15.54A60.32,60.32,0,0,1,309.32,365.94Z"/>
    <g>
      <path class="cls-2" d="M40,48.25l-.68-.57-.07-.06-.08,0h0l.08,0,.07.05.68.57.17.12A1.2,1.2,0,0,1,40,48.25Zm2.42,1.17L42,49.33l-.37-.11-.35-.16a7.88,7.88,0,0,1-.7-.37l-.31-.22.32.22c.23.12.45.27.69.37l.36.15.36.11a1.58,1.58,0,0,0,.36.09l.36.05A2.09,2.09,0,0,1,42.39,49.42Zm1.07,0h-.08a.15.15,0,0,0,.09,0l.34-.06ZM45,49l-.26,0h0L45,49ZM51.58,53c-2-1.35-4.08-2.68-6.09-4.06,0-.18,0-.37,0-.56,3.9,2.82,7.79,5.68,11.79,8.35Z"/>
      <g>
        <path class="cls-3" d="M278.11,252.3a3.72,3.72,0,0,0-2.71-.5c-2,.55-1.87,3-.14,3.79,1.38.63,3.21.23,3.47-1.46A2.11,2.11,0,0,0,278.11,252.3Z"/>
        <path class="cls-3" d="M280.84,274.76a.11.11,0,0,1-.1,0c-1.26-1-3.07-1.39-4.18.06a2.71,2.71,0,0,0,.89,4,2.75,2.75,0,0,0,3.94-1.61A2.55,2.55,0,0,0,280.84,274.76Z"/>
        <path class="cls-3" d="M310.94,298.39a3.51,3.51,0,0,0-4.18.21,3.25,3.25,0,0,0,.61,5.07,3.2,3.2,0,0,0,3.57-5.28Z"/>
        <path class="cls-3" d="M360.93,289.2a4.35,4.35,0,0,0-.81-2c-.9-.9-2.06-1.7-3.16-.58s-.32,3.08.7,4.12c.68.69,1.94,1.56,2.81.67A2.66,2.66,0,0,0,360.93,289.2Z"/>
        <path class="cls-3" d="M335,301a3.06,3.06,0,0,0-2.18,4c.63,1.69,3,2.92,4.56,1.65s1.12-3.17.29-4.69A2.79,2.79,0,0,0,335,301Z"/>
      </g>
      <g>
        <path class="cls-4" d="M352.07,262.86a75,75,0,0,0-17.49-14,103.61,103.61,0,0,0-13.42-5.65,77.08,77.08,0,0,0-16.69-3.85,56.25,56.25,0,0,0-5.94-.29l21.77,16.8c1.54-.92,3.09-1.84,4.64-2.74l.89-.52.47.19a29.28,29.28,0,0,1,4.36,2.31l0,0,.26.17v0l-.09.34c-.36,1.28-.72,2.57-1.1,3.85-.21.69-.39,1.4-.59,2.12-.05.16-.1.31-.14.47h0a28.47,28.47,0,0,1,2.65,5.54l.08.24-.56.35c-.48.32-1,.62-1.45.92l13.44,25.91c.4-.18.81-.36,1.2-.56l.39-.19.14-.08.54-.29a22.52,22.52,0,0,0,3.05-2,18.48,18.48,0,0,0,4.05-24.73s0,0,0,0a18.85,18.85,0,0,1,.49,22.61,20.43,20.43,0,0,1-6.88,5.82l-.38.2-.3.15-.14.07c-.45.21-.91.42-1.37.61l5.82,11.24A27.47,27.47,0,0,0,355,304.4a25.22,25.22,0,0,0,5.32-6.38C367.46,285.89,360.59,272.16,352.07,262.86Zm5.5,28.46c-1.31-1.21-2.41-3.47-.89-5s3.68.17,4.35,1.72a0,0,0,0,1,0,.06,3.84,3.84,0,0,1,.35,2.37C361,292.68,358.93,292.58,357.57,291.32Z"/>
        <path class="cls-4" d="M323.38,298.59a63.4,63.4,0,0,1-30.83-12.77c-7.16-5.71-12.89-12.73-13.91-21a19,19,0,0,1,12.43-19.61c.08,0,.14.05.06.1C284,249,279.86,255.91,280,262.67c.19,7.66,5.37,14.65,11.53,20.06a60.58,60.58,0,0,0,25.84,13c7.92,1.9,16.92,2.62,24.59-.23L328.47,270c-2.11,1.32-4.23,2.64-6.36,3.93-2.42,1.47-4.82,3-7.27,4.47h0l-.53.3-.08,0a.77.77,0,0,1-.07-.16c-.16-.1-.32-.22-.47-.33-2.38-1.67-4.71-3.42-7-5.17l-2.57-1.92c-.31-.23-.62-.46-.92-.7a7.28,7.28,0,0,1,.91-.62c.62-.39,1.27-.73,1.88-1.06a24.73,24.73,0,0,1,2.43-1.15c.56-1.64,1.14-3.26,1.69-4.91.05-.14.1-.3.14-.45s.11-.32.16-.49l.42-.26.12-.07c2.52-1.59,5.13-3.05,7.68-4.57l.26-.16-22.57-17.57-1.58.11a31.09,31.09,0,0,0-17,6.73l-.49.42a25.84,25.84,0,0,0-3.95,4.32,22,22,0,0,0-3.52,7.61c0,.18-.09.36-.13.54a24.33,24.33,0,0,0,1.63,15.33,64,64,0,0,0,9.7,14.76c12.45,12.39,28.79,20.73,46.48,22.46,7.22.71,14.85,0,21.3-3l-6-11.29C336.77,299.25,329.72,299.46,323.38,298.59Zm-48.3-42.49a2.43,2.43,0,0,1-.91-3.86,2.91,2.91,0,0,1,3.49-.65,3,3,0,0,1,1,.72,4,4,0,0,1,.32.38s0,.06,0,.08a2.51,2.51,0,0,1,.26,1.53C279,256.31,276.72,256.85,275.08,256.1Zm2.38,23.33a3.24,3.24,0,0,1-1.21-4.85,3,3,0,0,1,3.83-.79A3,3,0,0,1,282,277,3.27,3.27,0,0,1,277.46,279.43Zm30,24.8a3.66,3.66,0,0,1-1.3-5.35,3.57,3.57,0,0,1,4.33-1.32,3.67,3.67,0,0,1,2.27,4.12A3.72,3.72,0,0,1,307.47,304.23Zm31.33,1.41a2.73,2.73,0,0,1-1.08,1.56c-2,1.45-4.79.18-5.57-2a3.73,3.73,0,0,1,2.53-4.75,3.41,3.41,0,0,1,3.77,1.67A3.62,3.62,0,0,1,338.8,305.64Z"/>
      </g>
      <g>
        <path class="cls-5" d="M330.15,265.26c-.39-.93-.8-1.85-1.24-2.76a2,2,0,0,0-.13-.25l-.64.4-1.32.83,2.77,5.34,1.52-.87C330.81,267.05,330.51,266.14,330.15,265.26Z"/>
        <path class="cls-5" d="M328.32,262.09c.05-.16.1-.31.16-.47a2.31,2.31,0,0,1,.1-.28c.23-.68.46-1.34.68-2,.41-1.26.84-2.52,1.27-3.78-1.95,1.25-3.93,2.47-5.91,3.68l0,.05,2,3.79Z"/>
        <path class="cls-5" d="M330.18,255.35c-1.59-.67-3.2-1.3-4.76-2l-4.65,2.87,3.43,2.65C326.18,257.67,328.18,256.5,330.18,255.35Z"/>
        <path class="cls-5" d="M312.58,272.51c0-.1,0-.2,0-.29l.12-.08c.08-.32.16-.63.25-.95s.13-.51.2-.76h0c.44-1.72.95-3.43,1.54-5.1.08-.22.15-.44.24-.65l-.28-.14-2.44-1.29-1.49-.77a29,29,0,0,1-1.43,4.79q-.18.5-.39,1l-.87.51-1.34.77c-.54.33-1.09.69-1.64,1l2.76,2.16,1.31,1,.25.19c1.47,1.16,2.94,2.32,4.39,3.51a25.24,25.24,0,0,1-1.06-4.32Z"/>
        <path class="cls-5" d="M315.07,264.21l0,0,.86-.52c2-1.24,4.12-2.42,6.16-3.63l.6-.36-3.39-2.64-.14.08c-2.57,1.57-5.14,3.23-7.76,4.75l1.12.72Z"/>
        <path class="cls-5" d="M323.22,260.1l-.48.29c-2.31,1.41-4.61,2.89-6.95,4.28l-.09.05c0,.11-.06.22-.1.33-.55,1.92-1.24,3.83-2,5.7,2.23-1.37,4.51-2.66,6.74-4l4.9-2.89-1.95-3.69Z"/>
        <path class="cls-5" d="M321,267.08c-2.51,1.53-5,3.14-7.57,4.64.45,1.95.9,3.91,1.28,5.87,2.26-1.38,4.56-2.68,6.81-4s4.51-2.68,6.78-4l-2.78-5.28Z"/>
        <path class="cls-5" d="M66.39,74.1l.12-.36-.45-.38L65.69,73c-1-.8-1.92-1.62-2.86-2.46-.15.6-.31,1.2-.46,1.8L62,73.72l-.12.5c-.05.22-.11.45-.17.68s-.09.37-.13.55c-.1.43-.21.85-.32,1.27l.46.5c.44.48.87,1,1.3,1.47l.61.71.87,1,.33-1.22.18-.63c0-.2.11-.4.17-.61l.36-1.2C65.84,75.87,66.11,75,66.39,74.1Z"/>
        <path class="cls-5" d="M88.34,68.47l-2.2.59q-2.74.73-5.5,1.42l3.87,3,5.08-1.12.53-.11c.15-.57.32-1.14.48-1.7.29-1,.59-2,.9-2.92Z"/>
        <path class="cls-5" d="M79.93,69.73q2.79-.66,5.58-1.27l2.28-.5,3.61-.77.06,0q-1.93-1.61-3.8-3.29l-3.36.91-2.07.55c-1.38.37-2.76.73-4.15,1.08l-.41.11-1.36.34-.25.07,3.67,2.84Z"/>
        <path class="cls-5" d="M78.67,70,75.54,67.6,75,67.19c-2.11.53-4.22,1.06-6.33,1.57l-.57.14-.92.23c-1.19.29-2.39.63-3.59,1,1,.91,1.92,1.84,2.86,2.77l.35-.08.9-.19c.91-.2,1.82-.39,2.7-.6Z"/>
        <path class="cls-5" d="M79.59,70.75,71,72.87c-1.18.29-2.38.63-3.59,1h-.06c0,.17-.09.35-.14.52-.28,1-.57,2.07-.87,3.1l.19.17c1.57-.38,3.17-.68,4.7-1l9.52-2.26,2.63-.6-3.3-2.56Z"/>
      </g>
      <g>
        <path class="cls-6" d="M46.32,14.36a5.14,5.14,0,0,0,2.92.57A1.66,1.66,0,0,0,50.56,13a1.45,1.45,0,0,0-.12-.35.41.41,0,0,0-.07-.11c-.37-.19-.72-.42-1.08-.64a4.75,4.75,0,0,0-1.46-.63,2.32,2.32,0,0,0-2.14.65,1.52,1.52,0,0,0-.4.72C45.16,13.25,45.43,13.89,46.32,14.36Z"/>
        <path class="cls-7" d="M51.18,30l.5-.08c4.17-.79,7.88-3.5,7.32-8.38s-4.13-7.14-8.1-8.72a2,2,0,0,1-.08,1.65c-.83,1.63-3.11,1.16-4.45.56a2.58,2.58,0,0,1-1.64-2.22,21.88,21.88,0,0,0-4.82,1.73c-2.43,1.41-4.44,3.93-4.24,6.89.31,4.53,4.55,7.06,8.77,8.12l.55.13a20.93,20.93,0,0,0,3.34.47A14.38,14.38,0,0,0,51.18,30Z"/>
        <path class="cls-4" d="M45.31,49.93l.31.21a6.47,6.47,0,0,0,.69.36l.35.16.35.1a1.58,1.58,0,0,0,.36.09l.36,0c.11,0,.24,0,.35,0a2,2,0,0,0,.35,0,2.54,2.54,0,0,0,.67-.17,1.17,1.17,0,0,0,.3-.14l.14-.08.1-.06.25,0c0-.2,0-.4.07-.61s0-.3,0-.45c.07-.57.13-1.15.19-1.72.48-4.28,1-8.54,1.72-12.78A5.76,5.76,0,0,1,51,31.59a17.53,17.53,0,0,1-5.76-.27,5.36,5.36,0,0,1-.62,2.81,42,42,0,0,0,6.14,1.09s0,.06,0,.07A22.78,22.78,0,0,1,44,35h0q.15,4.14.17,8.28c0,.42,0,.85,0,1.27,0,.19,0,.38,0,.56,0,1.31,0,2.62,0,3.93l.15.1.67.56C45.1,49.79,45.21,49.85,45.31,49.93Z"/>
        <path class="cls-6" d="M49.71,52.18l0,0a4.45,4.45,0,0,1-1,.26,4.55,4.55,0,0,1-.52,0,4.43,4.43,0,0,1-.52,0,3,3,0,0,1-.52-.07,4.31,4.31,0,0,1-.49-.11l-.48-.15-.46-.2a8.07,8.07,0,0,1-.87-.46,4.85,4.85,0,0,1-.4-.28,1.88,1.88,0,0,1-.23-.16l0,3a5.72,5.72,0,0,0,.9.87,4,4,0,0,0,4.35.63C49.48,54.41,49.59,53.3,49.71,52.18Z"/>
        <path class="cls-4" d="M48,76.32l-4.62-4.11c-.22,2.56-.52,5.11-.94,7.64a8.48,8.48,0,0,0,5.68,1.25C48.07,79.51,48,77.92,48,76.32Z"/>
      </g>
      <g>
        <path class="cls-8" d="M56.71,54.43l5.66,3.68c-3.95-2.64-7.78-5.45-11.63-8.23,0,.19,0,.38-.05.56C52.68,51.79,54.7,53.1,56.71,54.43Z"/>
        <path class="cls-8" d="M74.41,65.78l.7.45,1-.24.27-.06a107.55,107.55,0,0,1-10.8-5.76l3.5,2.23Z"/>
        <path class="cls-8" d="M109.64,91.29q-9.51-8.87-18.91-17.86l-.64-.61-.15,0L85.31,74.1,120,101Q114.82,96.12,109.64,91.29Z"/>
        <path class="cls-7" d="M127.72,108.13,84.26,74.37l-.63.16L81,75.2c-3,.76-6.07,1.52-9.12,2.26-1.38.34-2.79.76-4.21,1.12L70.6,81.1q11.1,9.62,22.17,19.28,22,19.2,43.68,38.65,43.55,39.08,87.47,77.74c12.83,11.35,25.66,22.68,38.18,34.33l0,0A50.82,50.82,0,0,1,273.38,243c-26.51-23.3-51.94-47.85-77.76-71.89Q161.74,139.55,127.72,108.13Z"/>
        <path class="cls-8" d="M96.37,106.77C88.26,99.58,80.22,92.31,72.18,85l-6.36-5.75q-.21.7-.45,1.41c-.05.18-.11.35-.17.53s-.21.64-.32,1l-.65-.53c-1.19-1-2.35-2-3.48-3h0l-1.16-1c.21-.71.43-1.41.66-2.11l.36-1q-5.4-4.93-10.68-10l-1.28-1.23.06-.69,1.24,1q4.14,3.37,8.23,6.84l.75.63L61.13,73c.1-.29.2-.57.29-.86.17-.53.35-1.06.52-1.59l.18-.56c.09-.26.17-.51.25-.77l.2-.05.67-.14h0c1.12-.24,2.25-.47,3.34-.73l1.92-.46.46-.11,5-1.18-5.37-3.35c-2.08-1.29-4.16-2.59-6.26-3.86l-.5-.3-5.78-3.52c-1.84-1.09-3.67-2.2-5.52-3.28-.07.88-.14,1.77-.2,2.66,0,.27,0,.53,0,.8a4,4,0,0,1-1,.68,4.39,4.39,0,0,1-2.68.31,5.2,5.2,0,0,1-2.51-1.32,5.72,5.72,0,0,1-.92-1.1v0l.06-1.45c0-.79.06-1.58.08-2.37l0,0a.79.79,0,0,1-.1-1.12.73.73,0,0,1,.16-.14c0-1.51,0-3,0-4.55-2.48-1.81-5-3.64-7.44-5.44h0a35.57,35.57,0,0,0-11.2-2.21,28.67,28.67,0,0,0-10.5,1.85c2.47.42,4.76,2.11,6.69,3.52C28.12,47.54,35.12,53.1,42.12,58.6c.06,0,0,.13,0,.1C36.46,54.85,31,50.87,25.37,47c-3.35-2.32-10.56-8.77-14.7-5.69C17.48,47,24.19,52.74,30.87,58.49l11.21,9.68,1.54,1.32,4.44,3.85c.55.48,1.11,1,1.66,1.44l6.82,5.92c.72.62,1.44,1.24,2.15,1.87l.19.16q24.25,21.08,48.27,42.4Q157.61,170,208.5,214.46c16.17,14.19,32.32,28.36,48.07,42.92a52.66,52.66,0,0,1,4.76-5.44c-26.25-22-51.5-45.12-77.13-67.78C155,158.32,125.58,132.65,96.37,106.77Z"/>
        <path class="cls-8" d="M372.68,334.55a4.23,4.23,0,0,0-2.63-3.38c-1.27-.49-2.66-.28-4-.57a5.64,5.64,0,0,1-4.37-4.78h0l-.54-.38-1.14-.87-.55-.42c-.72-.55-1.42-1.13-2.09-1.72l2.49,4.8c.21-.15.42-.31.64-.45s.6-.4.91-.58h0c-.42.35-.81.71-1.18,1.08l-.25.25a.51.51,0,0,1-.24.59.53.53,0,0,1-.35,0c-.42.46-.81.92-1.18,1.39-.06.08-.12.15-.17.23a21.73,21.73,0,0,0-3.17,5.85h0c-.26.7-.48,1.41-.68,2.14a2.12,2.12,0,0,1,1.49,0c1.48.45,1.93,1.9,2.29,3.24a.66.66,0,0,0,.06.2,2,2,0,0,0,.07.26c1.95,6,9.35,5.78,12.73.92A10.67,10.67,0,0,0,372.68,334.55Z"/>
        <path class="cls-8" d="M357.82,329l.2-.19c.34-.33.68-.63,1-.93l-3.32-6.29-.27.1a11.14,11.14,0,0,0-5.26,4.62,20.75,20.75,0,0,0-2.38,7.59c1.36.81,2.67,1.69,4,2.62l1.09.8a18.2,18.2,0,0,1,1.87-4.35,19.29,19.29,0,0,1,2.11-2.95C357.18,329.66,357.49,329.32,357.82,329Z"/>
      </g>
      <g>
        <path class="cls-7" d="M364.66,286.82a23.31,23.31,0,0,1-1.07,6.93,24.78,24.78,0,0,1-7.88,11.6,31.85,31.85,0,0,1-5.32,3.6l6.51,12.55.73.59c.87.68,1.75,1.32,2.66,1.92A59.33,59.33,0,0,0,364.66,286.82Z"/>
        <path class="cls-7" d="M346.66,334.55c0-.4.11-.82.18-1.23.89-5.22,3.63-11.05,8.4-12.34l.16,0-6-11.45a40.66,40.66,0,0,1-14.49,4.06c-12.78,1.16-25.85-2.6-36.95-8.78a69.83,69.83,0,0,1-20.7-17.47,36.89,36.89,0,0,1-7-10.38c-.27-.63-.53-1.26-.76-1.89-.1-.19-.19-.38-.28-.57a.08.08,0,0,1,0-.11,29,29,0,0,1-1.2-16.83c.06-.23.12-.45.19-.67a22.66,22.66,0,0,1,1.51-3.84,24.32,24.32,0,0,1,6.32-7.66l.6-.47a31.68,31.68,0,0,1,7.57-4.3,50.45,50.45,0,0,0-8.57,3.32c-.26.12-.53.26-.8.4a49.83,49.83,0,0,0-11.4,8.06l-.76.73a48.57,48.57,0,0,0-4.81,5.5l-.48.64a48.23,48.23,0,0,0-3.8,6.18c-10.24,19.85-6,45.29,6.73,62.69,11.92,16.3,30,27.27,49.72,27.13A57.06,57.06,0,0,0,351,337.4c-1.16-.69-2.29-1.41-3.39-2.18Z"/>
      </g>
      <g>
        <path class="cls-9" d="M357.57,291.32c1.36,1.26,3.42,1.36,3.8-.82a3.84,3.84,0,0,0-.35-2.37,0,0,0,0,0,0-.06c-.67-1.55-2.79-3.28-4.35-1.72S356.26,290.11,357.57,291.32Zm-.61-4.67c1.1-1.12,2.26-.32,3.16.58a4.35,4.35,0,0,1,.81,2,2.66,2.66,0,0,1-.46,2.24c-.87.89-2.13,0-2.81-.67C356.64,289.73,355.74,287.9,357,286.65Z"/>
        <path class="cls-9" d="M337.72,307.2a2.73,2.73,0,0,0,1.08-1.56,3.62,3.62,0,0,0-.35-3.49,3.41,3.41,0,0,0-3.77-1.67,3.73,3.73,0,0,0-2.53,4.75C332.93,307.38,335.77,308.65,337.72,307.2Zm1-3.57s0,.05,0,.07a.19.19,0,0,0,0-.07ZM335,301a2.79,2.79,0,0,1,2.67.95c.83,1.52,1.26,3.46-.29,4.69s-3.93,0-4.56-1.65A3.06,3.06,0,0,1,335,301Z"/>
        <path class="cls-9" d="M307.47,304.23a3.72,3.72,0,0,0,5.3-2.55,3.67,3.67,0,0,0-2.27-4.12,3.57,3.57,0,0,0-4.33,1.32A3.66,3.66,0,0,0,307.47,304.23Zm-.71-5.63a3.51,3.51,0,0,1,4.18-.21,3.2,3.2,0,0,1-3.57,5.28A3.25,3.25,0,0,1,306.76,298.6Z"/>
        <path class="cls-9" d="M372.35,331.74c-1.3-1.57-3.24-1.67-5.12-1.89a5.8,5.8,0,0,1-5.14-3.77h0c0-.08,0-.17-.08-.27a5.71,5.71,0,0,1-.15-.86h0l-.2-.11h0l-.17-.09a59.73,59.73,0,0,0,3.86-38.07c-.28-1.16-.59-2.3-1-3.44h0c-1.31-9-7.36-17.43-13.76-23.75a69.55,69.55,0,0,0-27.05-16.65c-2.39-.89-4.84-1.68-7.34-2.35a75.35,75.35,0,0,0-11.67-2.23c-1.43-.15-2.86-.24-4.29-.28h0a25.57,25.57,0,0,0-2.86-.33l-.79,0-34.55-26.66-62.25-48.19-50.78-39.3L141,117.18q-17.34-16.29-34.84-32.4-6.85-6.3-13.72-12.59L92,71.83l-.63-.57c.33-1.11.65-2.23,1-3.34l.15-.57a.13.13,0,0,0,0-.06c-.09-.1-.19-.19-.28-.28l-.41-.4h0c-1-1-2.07-2-3.13-3l-.35-.32-.77.17a2.84,2.84,0,0,0-.31.06l-3.52.76-2.13.47c-1.53.34-3.06.68-4.58,1l-.41-.26c-4-2.47-7.79-5.15-11.68-7.72-4.73-3.14-9.43-6.33-14-9.65.43-4.22,1-8.43,1.55-12.64,0-.19,0-.38.08-.58s.09-.69.14-1a7.41,7.41,0,0,1-.46-.82,5.7,5.7,0,0,1-.52-1.59,10.79,10.79,0,0,0,4.69-1.9A9.08,9.08,0,0,0,59.05,18.8a11.83,11.83,0,0,0-8.7-6.73A1.7,1.7,0,0,0,50,11.8c-1.28-1-3.2-1.56-4.48-.45a2.4,2.4,0,0,0-.56.7c-4.29.69-9.18,4-9.71,8.31-.69,5.63,3.89,9.41,9.25,10.78a8,8,0,0,1-.55,2.06c-.1.24-.2.47-.32.7s-.19.37-.29.56v.37c0,.25,0,.5,0,.74,0,2.39.08,4.77.09,7.16l-1.29-.93-4.59-3.31h0a32.79,32.79,0,0,0-4.83-1.74,33.42,33.42,0,0,0-7.54-1.12c-5.36-.17-11,1-15,3.83h0a5.22,5.22,0,0,0-.88.64,2.39,2.39,0,0,0-.23.22H9a2.72,2.72,0,0,0-.34.42l.33.31,1,.92c7.51,7,15.21,13.87,22.86,20.72l9,8.08c-.25,2.7-.49,5.41-.67,8.12,0,.42-.05.83-.08,1.25.39.3.79.59,1.19.84,1.95,1.25,4,1.91,5.94,1.23a4.86,4.86,0,0,0,1.27-.67l0-.82q.07-1.5.12-3,5.58,5,11.19,9.91c33.84,29.74,67.88,59.3,101.75,89,31,27.22,61.6,54.93,93.42,81.39l0,0a55.1,55.1,0,0,0-7.23,13.33c-8.17,21.71-.26,46.59,13.58,63.54,13.28,16.27,34.16,25.32,54.43,22.45a59.28,59.28,0,0,0,35.8-19.06h0l1,.56h0l.05,0a.25.25,0,0,0,.19,0l.08,0a2.25,2.25,0,0,1,.78-.23c.82-.07,1.35.52,1.77,1.34.1.21.2.44.29.67a18.71,18.71,0,0,0,1.36,3.49,7.46,7.46,0,0,0,4.56,2.85c3.76.73,7.49-1.51,9.35-4.71C373.74,339.39,374.71,334.61,372.35,331.74ZM360.29,324c-.91-.6-1.79-1.24-2.66-1.92l-.73-.59L350.39,309a31.85,31.85,0,0,0,5.32-3.6,24.78,24.78,0,0,0,7.88-11.6,23.31,23.31,0,0,0,1.07-6.93A59.33,59.33,0,0,1,360.29,324Zm-55.82-84.68a77.08,77.08,0,0,1,16.69,3.85,103.61,103.61,0,0,1,13.42,5.65,75,75,0,0,1,17.49,14c8.52,9.3,15.39,23,8.25,35.16A25.22,25.22,0,0,1,355,304.4a27.47,27.47,0,0,1-5.18,3.45L344,296.61c.46-.19.92-.4,1.37-.61l.14-.07.3-.15.38-.2a20.43,20.43,0,0,0,6.88-5.82,18.85,18.85,0,0,0-.49-22.61s0,0,0,0a18.48,18.48,0,0,1-4.05,24.73,22.52,22.52,0,0,1-3.05,2l-.54.29-.14.08-.39.19c-.39.2-.8.38-1.2.56l-13.44-25.91c.49-.3,1-.6,1.45-.92l.56-.35-.08-.24a28.47,28.47,0,0,0-2.65-5.54h0c0-.16.09-.31.14-.47.2-.72.38-1.43.59-2.12.38-1.28.74-2.57,1.1-3.85l.09-.34v0l-.26-.17,0,0a29.28,29.28,0,0,0-4.36-2.31l-.47-.19-.89.52c-1.55.9-3.1,1.82-4.64,2.74L298.53,239A56.25,56.25,0,0,1,304.47,239.33Zm6.22,23.15,1.49.77,2.44,1.29.28.14c-.09.21-.16.43-.24.65-.59,1.67-1.1,3.38-1.54,5.1h0c-.07.25-.14.51-.2.76s-.17.63-.25.95l-.12.08c0,.09,0,.19,0,.29l.09.61a25.24,25.24,0,0,0,1.06,4.32c-1.45-1.19-2.92-2.35-4.39-3.51l-.25-.19-1.31-1L305,270.55c.55-.35,1.1-.71,1.64-1l1.34-.77.87-.51q.21-.47.39-1A29,29,0,0,0,310.69,262.48Zm14-3.19,0-.05c2-1.21,4-2.43,5.91-3.68-.43,1.26-.86,2.52-1.27,3.78-.22.66-.45,1.32-.68,2a2.31,2.31,0,0,0-.1.28c-.06.16-.11.31-.16.47l-1.71,1Zm.62,4.58-4.9,2.89c-2.23,1.33-4.51,2.62-6.74,4,.73-1.87,1.42-3.78,2-5.7,0-.11.07-.22.1-.33l.09-.05c2.34-1.39,4.64-2.87,6.95-4.28l.48-.29.1.08Zm-1.07-5-3.43-2.65,4.65-2.87c1.56.72,3.17,1.35,4.76,2C328.18,256.5,326.18,257.67,324.2,258.85Zm-1.47.87-.6.36c-2,1.21-4.12,2.39-6.16,3.63l-.86.52,0,0-2.51-1.58-1.12-.72c2.62-1.52,5.19-3.18,7.76-4.75l.14-.08Zm-9.32,12c2.56-1.5,5.06-3.11,7.57-4.64l4.52-2.78,2.78,5.28q-3.4,2-6.78,4c-2.25,1.34-4.55,2.64-6.81,4C314.31,275.63,313.86,273.67,313.41,271.72Zm13.41-8.24,1.32-.83.64-.4a2,2,0,0,1,.13.25c.44.91.85,1.83,1.24,2.76s.66,1.79,1,2.69l-1.52.87Zm-30.54-24.36,22.57,17.57-.26.16c-2.55,1.52-5.16,3-7.68,4.57l-.12.07-.42.26c-.05.17-.1.33-.16.49s-.09.31-.14.45c-.55,1.65-1.13,3.27-1.69,4.91a24.73,24.73,0,0,0-2.43,1.15c-.61.33-1.26.67-1.88,1.06a7.28,7.28,0,0,0-.91.62c.3.24.61.47.92.7l2.57,1.92c2.32,1.75,4.65,3.5,7,5.17.15.11.31.23.47.33a.77.77,0,0,0,.07.16l.08,0,.53-.3h0c2.45-1.45,4.85-3,7.27-4.47,2.13-1.29,4.25-2.61,6.36-3.93L342,295.54c-7.67,2.85-16.67,2.13-24.59.23a60.58,60.58,0,0,1-25.84-13c-6.16-5.41-11.34-12.4-11.53-20.06-.17-6.76,3.92-13.72,11.1-17.4.08-.05,0-.13-.06-.1a19,19,0,0,0-12.43,19.61c1,8.31,6.75,15.33,13.91,21a63.4,63.4,0,0,0,30.83,12.77c6.34.87,13.39.66,19.42-1.52l6,11.29c-6.45,3-14.08,3.75-21.3,3-17.69-1.73-34-10.07-46.48-22.46a64,64,0,0,1-9.7-14.76,24.33,24.33,0,0,1-1.63-15.33c0-.18.08-.36.13-.54a22,22,0,0,1,3.52-7.61,25.84,25.84,0,0,1,3.95-4.32l.49-.42a31.09,31.09,0,0,1,17-6.73Zm-97.11-75.51,62.18,48.29,32.93,25.66a45.8,45.8,0,0,0-20,5l-.22-.22c-12.95-12.75-26.25-25.12-39.55-37.52q-42.91-40-85.62-80.15l-.44-.42Zm-3.55,7.5c25.82,24,51.25,48.59,77.76,71.89a50.82,50.82,0,0,0-11.23,8.14l0,0c-12.52-11.65-25.35-23-38.18-34.33Q180.09,178,136.45,139q-21.69-19.47-43.68-38.65Q81.72,90.72,70.6,81.1l-2.92-2.52c1.42-.36,2.83-.78,4.21-1.12,3-.74,6.08-1.5,9.12-2.26l2.62-.67.63-.16,43.46,33.76Q161.65,139.64,195.62,171.11ZM65.05,78.58l-.18.63-.33,1.22-.87-1-.61-.71c-.43-.5-.86-1-1.3-1.47l-.46-.5c.11-.42.22-.84.32-1.27,0-.18.09-.37.13-.55s.12-.46.17-.68l.12-.5.33-1.34c.15-.6.31-1.2.46-1.8.94.84,1.9,1.66,2.86,2.46l.37.32.45.38-.12.36c-.28.89-.55,1.77-.81,2.67L65.22,78C65.16,78.18,65.1,78.38,65.05,78.58Zm1.42-5.72c-.94-.93-1.89-1.86-2.86-2.77,1.2-.33,2.4-.67,3.59-1l.92-.23.57-.14c2.11-.51,4.22-1,6.33-1.57l.52.41L78.67,70l-8.25,2c-.88.21-1.79.4-2.7.6l-.9.19Zm1,1h0c1.21-.33,2.41-.67,3.59-1l8.55-2.12.53.41,3.3,2.56-2.63.6-9.52,2.26c-1.53.37-3.13.67-4.7,1l-.19-.17c.3-1,.59-2.06.87-3.1,0-.17.1-.35.14-.52Zm22.65-1,.64.61q9.42,9,18.91,17.86Q114.82,96.14,120,101L85.31,74.1l4.63-1.24Zm.51-2.28c-.16.56-.33,1.13-.48,1.7l-.53.11-5.08,1.12-3.87-3q2.76-.69,5.5-1.42l2.2-.59,3.16-.85C91.19,68.59,90.89,69.56,90.6,70.54ZM76.31,66.87l1.36-.34.41-.11c1.39-.35,2.77-.71,4.15-1.08l2.07-.55,3.36-.91q1.86,1.68,3.8,3.29l-.06,0L87.79,68l-2.28.5q-2.79.62-5.58,1.27l-.2,0-3.67-2.84Zm.06-.94L76.1,66l-1,.24-.7-.45L69.07,62.4l-3.5-2.23A107.55,107.55,0,0,0,76.37,65.93Zm-14-7.82-5.66-3.68c-2-1.33-4-2.64-6-4,0-.18,0-.37.05-.56C54.59,52.66,58.42,55.47,62.37,58.11ZM49.71,52.18c-.12,1.12-.23,2.23-.34,3.35A4,4,0,0,1,45,54.9a5.72,5.72,0,0,1-.9-.87l0-3a1.88,1.88,0,0,0,.23.16,4.85,4.85,0,0,0,.4.28,8.07,8.07,0,0,0,.87.46l.46.2.48.15a4.31,4.31,0,0,0,.49.11,3,3,0,0,0,.52.07,4.43,4.43,0,0,0,.52,0,4.55,4.55,0,0,0,.52,0,4.45,4.45,0,0,0,1-.26ZM45.69,12a2.32,2.32,0,0,1,2.14-.65,4.75,4.75,0,0,1,1.46.63c.36.22.71.45,1.08.64a.41.41,0,0,1,.07.11,1.45,1.45,0,0,1,.12.35,1.66,1.66,0,0,1-1.32,1.9,5.14,5.14,0,0,1-2.92-.57c-.89-.47-1.16-1.11-1-1.69A1.52,1.52,0,0,1,45.69,12ZM45,29.72l-.55-.13C40.22,28.53,36,26,35.67,21.47c-.2-3,1.81-5.48,4.24-6.89a21.88,21.88,0,0,1,4.82-1.73,2.58,2.58,0,0,0,1.64,2.22c1.34.6,3.62,1.07,4.45-.56a2,2,0,0,0,.08-1.65c4,1.58,7.56,3.95,8.1,8.72S55.85,29.17,51.68,30l-.5.08a14.38,14.38,0,0,1-2.85.15A20.93,20.93,0,0,1,45,29.72ZM44,35h0a22.78,22.78,0,0,0,6.75.29s0-.06,0-.07a42,42,0,0,1-6.14-1.09,5.36,5.36,0,0,0,.62-2.81,17.53,17.53,0,0,0,5.76.27,5.76,5.76,0,0,0,.92,3.26c-.69,4.24-1.24,8.5-1.72,12.78-.06.57-.12,1.15-.19,1.72,0,.15,0,.3,0,.45s0,.41-.07.61l-.25,0-.1.06-.14.08a1.17,1.17,0,0,1-.3.14,2.54,2.54,0,0,1-.67.17,2,2,0,0,1-.35,0c-.11,0-.24,0-.35,0l-.36,0a1.58,1.58,0,0,1-.36-.09l-.35-.1-.35-.16a6.47,6.47,0,0,1-.69-.36l-.31-.21c-.1-.08-.21-.14-.32-.23l-.67-.56-.15-.1c0-1.31,0-2.62,0-3.93,0-.18,0-.37,0-.56,0-.42,0-.85,0-1.27Q44.15,39.14,44,35ZM42.47,79.85c.42-2.53.72-5.08.94-7.64L48,76.32c0,1.6,0,3.19.12,4.78A8.48,8.48,0,0,1,42.47,79.85Zm166,134.61q-50.79-44.57-101.35-89.33-24-21.33-48.27-42.4l-.19-.16c-.71-.63-1.43-1.25-2.15-1.87l-6.82-5.92c-.55-.49-1.11-1-1.66-1.44l-4.44-3.85-1.54-1.32L30.87,58.49C24.19,52.74,17.48,47,10.67,41.32,14.81,38.24,22,44.69,25.37,47,31,50.87,36.46,54.85,42.07,58.7c.06,0,.11-.06,0-.1-7-5.5-14-11.06-21.17-16.34-1.93-1.41-4.22-3.1-6.69-3.52a28.67,28.67,0,0,1,10.5-1.85A35.57,35.57,0,0,1,36,39.1h0c2.48,1.8,5,3.63,7.44,5.44,0,1.52,0,3,0,4.55a.73.73,0,0,0-.16.14.79.79,0,0,0,.1,1.12l0,0c0,.79,0,1.58-.08,2.37l-.06,1.45v0a5.72,5.72,0,0,0,.92,1.1,5.2,5.2,0,0,0,2.51,1.32,4.39,4.39,0,0,0,2.68-.31,4,4,0,0,0,1-.68c0-.27,0-.53,0-.8.06-.89.13-1.78.2-2.66,1.85,1.08,3.68,2.19,5.52,3.28L61.83,59l.5.3c2.1,1.27,4.18,2.57,6.26,3.86L74,66.5l-5,1.18-.46.11-1.92.46c-1.09.26-2.22.49-3.34.73h0l-.67.14-.2.05c-.08.26-.16.51-.25.77l-.18.56c-.17.53-.35,1.06-.52,1.59-.09.29-.19.57-.29.86l-2.21-1.89-.75-.63Q54.08,67,49.94,63.6l-1.24-1-.06.69,1.28,1.23q5.27,5.07,10.68,10l-.36,1c-.23.7-.45,1.4-.66,2.11l1.16,1h0c1.13,1,2.29,2,3.48,3l.65.53c.11-.32.22-.64.32-1s.12-.35.17-.53q.24-.7.45-1.41L72.18,85c8,7.27,16.08,14.54,24.19,21.73,29.21,25.88,58.6,51.55,87.83,77.39,25.63,22.66,50.88,45.79,77.13,67.78a52.66,52.66,0,0,0-4.76,5.44C240.82,242.82,224.67,228.65,208.5,214.46ZM310.06,355.23c-19.77.14-37.8-10.83-49.72-27.13-12.71-17.4-17-42.84-6.73-62.69a48.23,48.23,0,0,1,3.8-6.18l.48-.64a48.57,48.57,0,0,1,4.81-5.5l.76-.73a49.83,49.83,0,0,1,11.4-8.06c.27-.14.54-.28.8-.4a50.45,50.45,0,0,1,8.57-3.32,31.68,31.68,0,0,0-7.57,4.3l-.6.47a24.32,24.32,0,0,0-6.32,7.66,22.66,22.66,0,0,0-1.51,3.84c-.07.22-.13.44-.19.67a29,29,0,0,0,1.2,16.83.08.08,0,0,0,0,.11c.09.19.18.38.28.57.23.63.49,1.26.76,1.89a36.89,36.89,0,0,0,7,10.38,69.83,69.83,0,0,0,20.7,17.47c11.1,6.18,24.17,9.94,36.95,8.78a40.66,40.66,0,0,0,14.49-4.06l6,11.45-.16,0c-4.77,1.29-7.51,7.12-8.4,12.34-.07.41-.13.83-.18,1.23l.93.67c1.1.77,2.23,1.49,3.39,2.18A57.06,57.06,0,0,1,310.06,355.23ZM354.76,333a18.2,18.2,0,0,0-1.87,4.35l-1.09-.8c-1.3-.93-2.61-1.81-4-2.62a20.75,20.75,0,0,1,2.38-7.59,11.14,11.14,0,0,1,5.26-4.62l.27-.1,3.32,6.29c-.36.3-.7.6-1,.93l-.2.19c-.33.33-.64.67-.95,1A19.29,19.29,0,0,0,354.76,333Zm16.09,9.41c-3.38,4.86-10.78,5.05-12.73-.92a2,2,0,0,1-.07-.26.66.66,0,0,1-.06-.2c-.36-1.34-.81-2.79-2.29-3.24a2.12,2.12,0,0,0-1.49,0c.2-.73.42-1.44.68-2.14h0a21.73,21.73,0,0,1,3.17-5.85c.05-.08.11-.15.17-.23.37-.47.76-.93,1.18-1.39a.53.53,0,0,0,.35,0,.51.51,0,0,0,.24-.59l.25-.25c.37-.37.76-.73,1.18-1.08h0c-.31.18-.61.37-.91.58s-.43.3-.64.45l-2.49-4.8c.67.59,1.37,1.17,2.09,1.72l.55.42,1.14.87.54.38h0a5.64,5.64,0,0,0,4.37,4.78c1.31.29,2.7.08,4,.57a4.23,4.23,0,0,1,2.63,3.38A10.67,10.67,0,0,1,370.85,342.37Z"/>
        <path class="cls-9" d="M277.46,279.43A3.27,3.27,0,0,0,282,277a3,3,0,0,0-1.93-3.21,3,3,0,0,0-3.83.79A3.24,3.24,0,0,0,277.46,279.43Zm-.9-4.62c1.11-1.45,2.92-1.09,4.18-.06a.11.11,0,0,0,.1,0,2.55,2.55,0,0,1,.55,2.48,2.75,2.75,0,0,1-3.94,1.61A2.71,2.71,0,0,1,276.56,274.81Z"/>
        <path class="cls-9" d="M279,252.69a4,4,0,0,0-.32-.38,3,3,0,0,0-1-.72,2.91,2.91,0,0,0-3.49.65,2.43,2.43,0,0,0,.91,3.86c1.64.75,3.9.21,4.18-1.8a2.51,2.51,0,0,0-.26-1.53S279,252.71,279,252.69Zm-.27,1.44c-.26,1.69-2.09,2.09-3.47,1.46-1.73-.79-1.88-3.24.14-3.79a3.72,3.72,0,0,1,2.71.5A2.11,2.11,0,0,1,278.73,254.13Z"/>
      </g>
    </g>
  </g>
</svg>
