<svg id="Layer_1" data-name="Layer 1" xmlns="http://www.w3.org/2000/svg" width="326.81" height="247.49" viewBox="0 0 326.81 247.49">
  <defs>
    <style>
      .cls-1 {
        fill: #ff0;
      }

      .cls-2 {
        fill: #dc093b;
      }

      .cls-3 {
        fill: #83142a;
      }

      .cls-4 {
        opacity: 0.5;
      }

      .cls-5, .cls-7 {
        fill: #fff;
      }

      .cls-6 {
        opacity: 0.7;
      }

      .cls-7 {
        opacity: 0.3;
      }

      .cls-8 {
        fill: #ffd9bc;
      }

      .cls-9 {
        fill: #e3a07c;
      }

      .cls-10 {
        fill: #ffbf9d;
      }

      .cls-11 {
        fill: #875959;
      }
    </style>
  </defs>
  <g>
    <path class="cls-1" d="M236.17,241a124.41,124.41,0,0,1-29-3.65A78.31,78.31,0,0,1,172.93,220c-.51-.44-1-.93-1.58-1.42l-.28-.25c-.33-.32-.67-.63-1-.95a80.79,80.79,0,0,1-13.52-16.91A97.85,97.85,0,0,1,64.64,212.4C16.66,193.85-9.15,140.08,8.28,95,21.21,61.55,55.92,39.07,94.64,39.07q1.65,0,3.3.06a23.28,23.28,0,0,0,7.56-6,5.94,5.94,0,0,0,1.64-4.85,10.87,10.87,0,0,1,.78-20.77,26.5,26.5,0,0,1,6.47-.78,23.15,23.15,0,0,1,13.5,4.18,22.54,22.54,0,0,1,10.2-4.27,11.51,11.51,0,0,1,1.54-.11,10.86,10.86,0,0,1,8.67,4.31,19.44,19.44,0,0,1,3,6.35h.83c4.31,0,10.72,1.37,16.75,7.94,3.47,3.77,4.52,9.69,1.56,13.87a10.54,10.54,0,0,1-8.53,4.79,9.84,9.84,0,0,1-3.55-.68c-1.59.25-2.87,3.4-3.54,6.12-.49,2-.65,6.63,1.43,12.24a99.12,99.12,0,0,1,12.33,12.34c2.83-3.34,7.82-7.13,16.29-8.17a11.6,11.6,0,0,1,1.44-.09,10.77,10.77,0,0,1,10.82,12.82,97.47,97.47,0,0,1,31.33-5c16.14,0,33.26,3.72,49.52,10.75,26,11.25,42.8,31.47,45.11,54.21.33,1.54.57,3.06.74,4.55,0,.21,0,.43.05.64a102.62,102.62,0,0,1-.93,19.67l-.05.29c-.11.76-.21,1.39-.31,2,0,0-.32,1.82-.41,2.31l-.24,1.19c-.07.36-.15.75-.23,1.14s-.21,1-.32,1.45l-.21.88c-.12.53-.26,1.09-.4,1.64l-.17.65c-.16.62-.33,1.23-.49,1.83l-.16.54c-.18.62-.37,1.26-.56,1.89l-.15.46c-.19.62-.4,1.27-.61,1.9l-.16.47c-.21.61-.43,1.24-.66,1.86l-.18.49c-.22.61-.45,1.2-.68,1.8l-.23.58c-.23.57-.45,1.11-.68,1.65l-.32.77-.65,1.48-.41.9-.6,1.26c-.18.38-.37.76-.55,1.13l-.53,1.05c-.22.43-.46.88-.7,1.33l-.41.78L311,198.5l-.34.58c-.33.58-.68,1.17-1,1.75l-.2.32c-.4.66-.81,1.3-1.23,1.94l-.07.12a85.76,85.76,0,0,1-11.31,13.91l-.06.06c-.56.55-1.13,1.1-1.71,1.64l-.25.23c-.54.5-1,1-1.55,1.41l-.59.5c-.4.35-.82.7-1.24,1l-1,.8-.87.69c-.47.37-1,.74-1.45,1.1l-.45.33c-14.47,10.64-31.8,16-51.48,16Z"/>
    <g>
      <g>
        <path class="cls-2" d="M95.33,51.23s9.78-.85,18.46-11.08,2.46-22.76-3.08-22.15c0,0,15.08-4,15.38,12.93,0,0,4.93-12.31,13.54-13.54,0,0,4,5.23.31,17.84,0,0,10.46-14.15,20.92-2.77,0,0-12.31-3.38-16.61,14.16-1.52,6.15-.62,16.61,5.84,26.76C150.09,73.38,131.63,56.46,95.33,51.23Z"/>
        <path class="cls-3" d="M95.28,51.23a28.22,28.22,0,0,0,11.12-4.74,33.08,33.08,0,0,0,4.65-3.86c.74-.69,1.41-1.45,2.07-2.2A21.83,21.83,0,0,0,115,38.05a16.38,16.38,0,0,0,2.53-11.38,13.05,13.05,0,0,0-2.12-5.46,7.5,7.5,0,0,0-2-2,3.94,3.94,0,0,0-2.58-.73h0a.45.45,0,0,1-.14-.88,16.27,16.27,0,0,1,6.1-.24,11,11,0,0,1,5.59,2.46,10.89,10.89,0,0,1,3.26,5.15,20,20,0,0,1,.87,6l-.62-.11a32.41,32.41,0,0,1,2.35-4.44,28.87,28.87,0,0,1,3-4,19.86,19.86,0,0,1,3.78-3.3,12.46,12.46,0,0,1,4.68-1.82h0a.15.15,0,0,1,.15.07,12,12,0,0,1,1.57,4.36,22.81,22.81,0,0,1,.3,4.59,33.55,33.55,0,0,1-.48,4.58l-.46,2.25-.59,2.22-.32-.16a24.06,24.06,0,0,1,4.43-4.36,15.08,15.08,0,0,1,5.6-2.73,10.16,10.16,0,0,1,6.23.5,15.23,15.23,0,0,1,5.07,3.69.35.35,0,0,1,0,.5.33.33,0,0,1-.32.09h0a11.82,11.82,0,0,0-6.23.46,12,12,0,0,0-5.13,3.6,18.65,18.65,0,0,0-3.25,5.47c-.19.5-.41,1-.59,1.5l-.45,1.55a17.85,17.85,0,0,0-.72,3.12,32.49,32.49,0,0,0,1,12.78,41.31,41.31,0,0,0,2.13,6.11,48.05,48.05,0,0,0,3,5.71.5.5,0,0,1-.16.7.53.53,0,0,1-.61,0h0a78.51,78.51,0,0,0-12.25-8.31,117.09,117.09,0,0,0-13.43-6.4c-2.33-.85-4.63-1.8-7-2.52-1.19-.37-2.36-.77-3.55-1.13l-3.6-1-1.8-.5-1.81-.42-3.64-.84c-1.2-.3-2.49-.48-3.72-.74Zm.1,0c2.51.42,4.92.66,7.34,1.13l3.67.74,1.83.38,1.81.46,3.63.94c1.2.34,2.38.73,3.58,1.09,2.4.68,4.73,1.6,7.09,2.42A117,117,0,0,1,138,64.64,74,74,0,0,1,150.44,73l-.78.66a49.68,49.68,0,0,1-3.14-5.84,43.39,43.39,0,0,1-2.19-6.26,33.19,33.19,0,0,1-.92-13.2,19.84,19.84,0,0,1,.77-3.24l.48-1.6c.19-.52.41-1,.62-1.54a19.41,19.41,0,0,1,3.45-5.71,12.81,12.81,0,0,1,5.54-3.76,12.43,12.43,0,0,1,6.68-.39l-.35.58a14.61,14.61,0,0,0-4.79-3.59,9.61,9.61,0,0,0-5.87-.56,14.57,14.57,0,0,0-5.46,2.57,22.23,22.23,0,0,0-4.39,4.22.18.18,0,0,1-.26,0,.19.19,0,0,1-.07-.19l.6-2.2.47-2.23a32.85,32.85,0,0,0,.49-4.53,20.23,20.23,0,0,0-.29-4.53,11.6,11.6,0,0,0-1.54-4.2l.17.07a12.33,12.33,0,0,0-4.52,1.8,18.41,18.41,0,0,0-3.65,3.29,28.63,28.63,0,0,0-2.87,4,33.52,33.52,0,0,0-2.23,4.39.32.32,0,0,1-.42.17.33.33,0,0,1-.2-.29,19.49,19.49,0,0,0-.93-5.75,10.44,10.44,0,0,0-3.09-4.75,10.22,10.22,0,0,0-5.18-2.24,15.81,15.81,0,0,0-5.74.25l-.17-.88a4.86,4.86,0,0,1,3.17.89,8.48,8.48,0,0,1,2.23,2.28,13.85,13.85,0,0,1,2.22,5.82,16.78,16.78,0,0,1-2.77,11.87,20.4,20.4,0,0,1-1.92,2.42c-.69.76-1.38,1.51-2.14,2.2a32.06,32.06,0,0,1-4.79,3.83,30.83,30.83,0,0,1-5.43,2.84,29,29,0,0,1-2.9,1c-.49.15-1,.26-1.48.36-.25.05-.5.11-.76.14l-.37.06C95.6,51.23,95.44,51.31,95.38,51.23Z"/>
      </g>
      <g>
        <path class="cls-2" d="M175.32,159.22c-15.66,40.5-65.57,59-106.76,43S2.76,139.42,18.42,98.92,84.08,39.64,125.27,55.57,191,118.71,175.32,159.22Z"/>
        <path class="cls-3" d="M175.37,159.23a71.89,71.89,0,0,1-17.58,26.29,81.54,81.54,0,0,1-26.85,16.89,87.79,87.79,0,0,1-62.55.32A88.11,88.11,0,0,1,22,160.62,80.82,80.82,0,0,1,13.41,130,71.6,71.6,0,0,1,35.94,72.31a82.13,82.13,0,0,1,27-16.82,87.36,87.36,0,0,1,62.47-.16,87.58,87.58,0,0,1,46,42.15A81.24,81.24,0,0,1,180,128,71.69,71.69,0,0,1,175.37,159.23Zm-.1,0A71.69,71.69,0,0,0,179.81,128a81.09,81.09,0,0,0-8.62-30.4,87.15,87.15,0,0,0-46-41.77,86.75,86.75,0,0,0-62,.3A81.27,81.27,0,0,0,36.44,72.83a70.77,70.77,0,0,0-22.14,57.1,80.11,80.11,0,0,0,8.61,30.24,86.17,86.17,0,0,0,107.84,41.74,81,81,0,0,0,26.82-16.62A71.6,71.6,0,0,0,175.27,159.2Z"/>
      </g>
      <g class="cls-4">
        <path class="cls-5" d="M27.44,115.19a66.88,66.88,0,0,1,6.74-22.52,70.41,70.41,0,0,1,14-19,68.36,68.36,0,0,1,19.6-13.11,51.87,51.87,0,0,1,5.51-2.14l2.82-.89,1.41-.45L79,56.74l2.89-.61a29,29,0,0,1,2.9-.55l5.86-.69a76.69,76.69,0,0,0-22.52,6.36A69.53,69.53,0,0,0,48.86,74.38,71.49,71.49,0,0,0,34.87,93c-.24.43-.48.86-.71,1.29l-.6,1.33L32.35,98.3A26.7,26.7,0,0,0,31.27,101l-1,2.76c-.37.91-.56,1.87-.85,2.81l-.8,2.83C28.19,111.34,27.85,113.27,27.44,115.19Z"/>
      </g>
      <g class="cls-4">
        <path class="cls-5" d="M122.17,64.67a80.7,80.7,0,0,1-.3,14.41,124.75,124.75,0,0,1-2.31,14.25c-.25,1.18-.59,2.34-.87,3.51s-.6,2.33-1,3.48l-1,3.47c-.36,1.14-.77,2.28-1.17,3.41-.76,2.28-1.71,4.5-2.58,6.74s-2,4.38-3,6.55c1.72-4.49,3.45-9,4.86-13.53s2.71-9.18,3.77-13.85A143.44,143.44,0,0,0,121.11,79c.34-2.37.56-4.75.75-7.14S122.17,67.07,122.17,64.67Z"/>
      </g>
      <g class="cls-4">
        <path class="cls-5" d="M134.81,68.54a49.3,49.3,0,0,1,2.18,5.8c.58,2,1.1,4,1.51,6s.73,4.09,1,6.14l.32,3.09L140,92.7a78,78,0,0,1-.57,12.41c-.21,2.06-.65,4.09-1,6.12-.18,1-.49,2-.74,3s-.53,2-.81,3a115.18,115.18,0,0,0,1.8-12.21A86.83,86.83,0,0,0,139,92.74a86.33,86.33,0,0,0-1.23-12.23A76,76,0,0,0,134.81,68.54Z"/>
      </g>
      <g class="cls-6">
        <path class="cls-3" d="M49.18,134.6a78.47,78.47,0,0,0-.3,20.76,61,61,0,0,0,5.93,19.77A56.51,56.51,0,0,0,67.1,191.66a40.77,40.77,0,0,0,4,3.35l2.07,1.57L75.34,198a40.23,40.23,0,0,0,4.56,2.5,17.39,17.39,0,0,0,2.39,1l2.43,1a44.55,44.55,0,0,1-9.63-4.07L72.82,197l-2.14-1.52a42.79,42.79,0,0,1-4.1-3.29,56,56,0,0,1-12.67-16.66,59.79,59.79,0,0,1-5.79-20.12,39.81,39.81,0,0,1-.33-5.23l-.08-2.63c0-.87.1-1.74.15-2.61l.18-2.62c0-.43.05-.87.1-1.3l.2-1.3Z"/>
      </g>
      <g class="cls-6">
        <path class="cls-3" d="M77.79,148.45a69.28,69.28,0,0,0-1.06,11.75,74.38,74.38,0,0,0,.7,11.75,71.82,71.82,0,0,0,2.38,11.52,93.4,93.4,0,0,0,4,11.13c-.46-.88-.91-1.76-1.35-2.65s-.92-1.76-1.28-2.68c-.74-1.84-1.52-3.67-2.09-5.57a65.15,65.15,0,0,1-2.63-11.62,66.67,66.67,0,0,1-.48-11.9c.1-2,.31-4,.57-5.93A47.54,47.54,0,0,1,77.79,148.45Z"/>
      </g>
      <g class="cls-6">
        <path class="cls-3" d="M94.87,202.9a33.57,33.57,0,0,0,8.89-2,61.76,61.76,0,0,0,8.36-3.6,71.2,71.2,0,0,0,15-10.27,66.15,66.15,0,0,0,11.82-13.76,68.82,68.82,0,0,0,7.63-16.54,64.48,64.48,0,0,1-2.82,8.74,67.26,67.26,0,0,1-4.16,8.21,63.55,63.55,0,0,1-11.81,14.09A68,68,0,0,1,112.46,198a59.94,59.94,0,0,1-8.56,3.38A30.92,30.92,0,0,1,94.87,202.9Z"/>
      </g>
      <g class="cls-6">
        <path class="cls-3" d="M130.86,148.91a58.11,58.11,0,0,1-3.73,12.67A72.81,72.81,0,0,1,121,173.32a68.78,68.78,0,0,1-8.22,10.39c-.79.78-1.51,1.62-2.34,2.35L108,188.27a31.92,31.92,0,0,1-2.59,2c-.88.67-1.77,1.32-2.66,2a90.77,90.77,0,0,0,9.49-9.1c1.5-1.6,2.84-3.33,4.21-5,.67-.86,1.28-1.77,1.92-2.65l1-1.34.87-1.39c.58-.93,1.21-1.82,1.74-2.77l1.64-2.85,1.49-2.92c.49-1,.92-2,1.4-3,.91-2,1.73-4,2.48-6.09A65.23,65.23,0,0,0,130.86,148.91Z"/>
      </g>
      <path class="cls-3" d="M144.25,35.85a39.38,39.38,0,0,0-6,9.68,35.9,35.9,0,0,0-1.83,5.38,31.09,31.09,0,0,0-.92,5.58.46.46,0,0,1-.5.43.47.47,0,0,1-.39-.27A35.2,35.2,0,0,1,132,48.19a35.68,35.68,0,0,1-.32-8.82,37.52,37.52,0,0,1,1.88-8.6,33.48,33.48,0,0,1,1.7-4.06,26.41,26.41,0,0,1,2.2-3.78,38,38,0,0,0-3.37,8,39.16,39.16,0,0,0-1.56,8.5A35.3,35.3,0,0,0,133,48a38.9,38.9,0,0,0,2.47,8.24l-.88.16a31.8,31.8,0,0,1,1-5.74,33.93,33.93,0,0,1,2.07-5.43,34.55,34.55,0,0,1,2.91-5A29.59,29.59,0,0,1,144.25,35.85Z"/>
      <path class="cls-7" d="M54.18,82S65.68,63.82,86.7,58.2a6.13,6.13,0,0,1,3.21,0c1.65.46,3.31,1.76,1.37,5.4-2.84,5.33,4.6,4.71,10.73,1.51,5.62-2.94,11.39-3.7,10.69,3.35-.83,8.29-13.94,36.33-22.83,25.88-7.77-9.13-12.21-16-20.94-11.62C61.16,86.6,50.93,88.68,54.18,82Z"/>
      <g class="cls-4">
        <path class="cls-5" d="M120.5,31.39a14,14,0,0,1-.15,5.51,15.74,15.74,0,0,1-2.18,5.16,14,14,0,0,1-3.88,4.11,16,16,0,0,1-2.49,1.32,16.88,16.88,0,0,1-2.69.78.1.1,0,0,1-.1-.07.11.11,0,0,1,0-.08h0c.72-.61,1.47-1.11,2.19-1.62.35-.29.7-.55,1.05-.82a7.35,7.35,0,0,0,1-.81c.33-.29.66-.56,1-.83s.63-.58,1-.86a13.85,13.85,0,0,0,1.81-1.86,15,15,0,0,0,2.46-4.62,14.46,14.46,0,0,0,.76-5.27h0a.09.09,0,0,1,.08-.09A.1.1,0,0,1,120.5,31.39Z"/>
      </g>
      <path class="cls-2" d="M163.4,117.12C144.16,145.8,154,213.8,209.68,226.76,283.9,244,315.25,188.46,313,144.07,308,98.87,211.37,53.67,163.4,117.12Z"/>
      <path class="cls-8" d="M190.82,92.69C215.7,80.36,246,82.12,273.64,94.1c40.23,17.4,49.73,55.24,26.05,79.73-22.25,23-58.4,38.75-104.33,18-30.21-13.66-50-49.4-30-78.14l.45.23a18.17,18.17,0,0,0-21.42-3.79s2.57-13.48,18-9.27c0,0-6.19-3.79-6.78-16,0,0,10.57-.84,18.7,5,0,0-2-11.79,11.8-13.47,0,0-8.71,10.53,5,16.42Z"/>
      <path class="cls-9" d="M178,176.36a38.85,38.85,0,0,0,5.86,4.93,65.33,65.33,0,0,0,6.52,4,95.5,95.5,0,0,0,14,6.24,101.12,101.12,0,0,0,29.91,5.94,83,83,0,0,0,30.15-4,80,80,0,0,0,14-6.17A93.51,93.51,0,0,0,291,178.6a87.34,87.34,0,0,1-12.37,9.16,80.22,80.22,0,0,1-14,6.47,73.13,73.13,0,0,1-15,3.56,88.29,88.29,0,0,1-15.42.71,99.53,99.53,0,0,1-30.13-6.22,94.36,94.36,0,0,1-14-6.54,64.86,64.86,0,0,1-6.43-4.24A36.21,36.21,0,0,1,178,176.36Z"/>
      <path class="cls-9" d="M218.77,120.21a14.48,14.48,0,0,0,5.54,4.48,37.45,37.45,0,0,0,6.71,2.56c4.62,1.43,9.23,2.95,13.72,4.81a64.17,64.17,0,0,1,6.56,3.21,51.31,51.31,0,0,1,6.12,4c.95.76,1.92,1.5,2.82,2.32s1.8,1.63,2.67,2.48a67.13,67.13,0,0,1,4.83,5.43A72.66,72.66,0,0,0,257,139.87a62.13,62.13,0,0,0-12.6-6.89c-4.42-1.91-9-3.42-13.58-5a38,38,0,0,1-6.71-2.86,20.88,20.88,0,0,1-3-2.12A9.58,9.58,0,0,1,218.77,120.21Z"/>
      <path class="cls-9" d="M211.86,125.05A130.31,130.31,0,0,1,224,133.3c2,1.47,3.82,3.08,5.73,4.54.95.75,2,1.38,3,2.08s2.06,1.26,3.13,1.81a40.9,40.9,0,0,0,6.64,2.83c2.29.78,4.67,1.31,7,2.05a37.39,37.39,0,0,1,6.84,2.73,31.6,31.6,0,0,1,5.91,4.35,34.11,34.11,0,0,0-6.14-3.91,36.17,36.17,0,0,0-6.82-2.43c-2.35-.61-4.73-1.18-7.07-1.92a41.55,41.55,0,0,1-6.84-2.82c-1.09-.58-2.13-1.25-3.17-1.89s-2-1.38-3-2.16c-1.94-1.53-3.78-3.11-5.65-4.66s-3.8-3-5.75-4.51S213.84,126.48,211.86,125.05Z"/>
      <path class="cls-9" d="M241.86,87.36a112.7,112.7,0,0,1,20.6,5c3.36,1.13,6.65,2.46,9.89,3.91a96,96,0,0,1,9.45,4.89,79.82,79.82,0,0,1,8.76,6.06,63.86,63.86,0,0,1,7.73,7.34,56.7,56.7,0,0,1,6.16,8.69,50.71,50.71,0,0,1,4,9.81,54,54,0,0,0-4.45-9.57,56.83,56.83,0,0,0-6.3-8.42,73.35,73.35,0,0,0-7.72-7.13,80.38,80.38,0,0,0-8.71-5.92,110.94,110.94,0,0,0-19.08-8.94q-5-1.81-10.06-3.23C248.76,88.87,245.33,88,241.86,87.36Z"/>
      <g>
        <path class="cls-10" d="M165,114.31l.88-.42-.45-.23C165.26,113.87,165.12,114.09,165,114.31Z"/>
        <path class="cls-9" d="M191.13,92.83l-.13-.22-.18.08c-13.21-5.92-4.65-16.28-4.65-16.28-13.76,1.68-11.8,13.47-11.8,13.47-8.13-5.89-18.7-5-18.7-5,.59,12.21,6.78,16,6.78,16-15.44-4.21-18,9.27-18,9.27a18.17,18.17,0,0,1,21.42,3.79s4.63,3.94,9.48-1.12c3.37-3.51,2.84-6.28,7.86-6C189.06,107,196.47,101.4,191.13,92.83Z"/>
      </g>
      <path class="cls-11" d="M157,105.05s6,0,10.76,6c3.59,4.55,9.68-.14,5.61-4.77C173.33,106.31,168.59,100.55,157,105.05Z"/>
      <path class="cls-11" d="M173.66,94.24a14.62,14.62,0,0,0,3.65,8.42c2.92,3.09,5.78,1.82,6.3-.14,0,0,5.85.14,6-5.62,0,0-7.17-2-8.73-8.7a8.76,8.76,0,0,0-1.7,9.41A6.89,6.89,0,0,1,173.66,94.24Z"/>
      <path class="cls-3" d="M190.8,92.65a81.49,81.49,0,0,1,23.44-7.55,94,94,0,0,1,24.68-.62,116.8,116.8,0,0,1,24.17,5.14c2,.68,3.9,1.34,5.83,2.07s3.84,1.54,5.71,2.4A81.72,81.72,0,0,1,285.54,100a64.41,64.41,0,0,1,18.08,16.77,47.2,47.2,0,0,1,8.85,22.86,42.42,42.42,0,0,1-4.92,23.92,47.25,47.25,0,0,1-7.25,10c-1.41,1.5-2.93,2.9-4.39,4.36s-3.1,2.72-4.65,4.08a90,90,0,0,1-21,13,81.55,81.55,0,0,1-23.85,6.43l-3.08.34c-1,.14-2.07.08-3.1.13l-3.1.08-1.55,0c-.52,0-1-.06-1.55-.09l-6.2-.38-6.13-.91-1.54-.22c-.51-.1-1-.23-1.51-.35l-3-.71-3-.71c-1-.21-2-.61-3-.9l-5.9-1.91L198,193.45A62.89,62.89,0,0,1,187,187.86a68.55,68.55,0,0,1-9.89-7.49,65.06,65.06,0,0,1-14.87-19.71,49.4,49.4,0,0,1-5.09-24,43.66,43.66,0,0,1,8.27-23,0,0,0,0,1,.07,0,0,0,0,0,1,0,.07,46.59,46.59,0,0,0-5.56,10.94,42.56,42.56,0,0,0-2.29,12,48.68,48.68,0,0,0,5.24,23.69,64.13,64.13,0,0,0,14.86,19.32,68.44,68.44,0,0,0,20.73,12.84l5.69,2.31,5.84,1.88c1,.29,1.94.68,2.94.89l3,.7,3,.71c.5.11,1,.25,1.5.35l1.52.23,6.06.92,6.12.4c.51,0,1,.09,1.53.09l1.54,0,3.06-.06c1,0,2.05,0,3.07-.12l3-.32a82.7,82.7,0,0,0,23.65-6.2,89.79,89.79,0,0,0,20.95-12.73c6.28-5.21,12.4-10.94,16.28-18.21a41.62,41.62,0,0,0,4.26-11.47,40.16,40.16,0,0,0,.63-12.23,46.82,46.82,0,0,0-8.94-22.56,63.74,63.74,0,0,0-18-16.46,103.84,103.84,0,0,0-22.32-10.15,115.75,115.75,0,0,0-24-5.28c-16.28-1.84-33.14.48-48,7.58a0,0,0,0,1-.06,0S190.77,92.66,190.8,92.65Z"/>
      <path class="cls-3" d="M163.49,117.17a57.08,57.08,0,0,0-3.88,8.27,68.83,68.83,0,0,0-2.57,8.74,80.26,80.26,0,0,0-1.84,18.08,87.61,87.61,0,0,0,7.74,35.23c4.95,11,12.54,21,22.53,28.08a63.8,63.8,0,0,0,7.78,4.77,69.06,69.06,0,0,0,8.39,3.61,93.82,93.82,0,0,0,17.76,4.19c12,1.75,24.4,1.66,36.16-1.22a70,70,0,0,0,31.46-17,79.37,79.37,0,0,0,19.75-30,95.76,95.76,0,0,0,6.13-35.79.11.11,0,1,1,.21,0,90.21,90.21,0,0,1-4.81,36.35,85.26,85.26,0,0,1-8,16.71,74.78,74.78,0,0,1-11.75,14.39,68.15,68.15,0,0,1-15.11,10.83A72.56,72.56,0,0,1,256,228.81c-12.1,2.84-24.71,2.6-36.8.44a108.6,108.6,0,0,1-17.83-4.61,74.14,74.14,0,0,1-16.34-8.48,72,72,0,0,1-13.64-12.4,72.81,72.81,0,0,1-10-15.54,79.4,79.4,0,0,1-5.92-17.55,87,87,0,0,1-1.85-18.42A77,77,0,0,1,156,133.93a55.89,55.89,0,0,1,7.33-16.87.12.12,0,0,1,.15,0A.12.12,0,0,1,163.49,117.17Z"/>
      <g>
        <path class="cls-3" d="M184.72,113.66c-2.72-1.59-6.42-.89-9.35,1.78-4.57,4.16-12.23,15.61-6.42,34.49,7.86,25.51,34.32,37.18,50.47,41.23,21,5.26,50.74.15,63.58-17,0,0,5.6-7.77-.95-9.79-7.9-2.45-29.23.44-56.83-15.35C205.25,137.91,194.19,119.23,184.72,113.66Z"/>
        <path class="cls-3" d="M184.69,113.71a6.57,6.57,0,0,0-4.64-.66,9.79,9.79,0,0,0-4.24,2.13,24.12,24.12,0,0,0-5.68,7.7,32.66,32.66,0,0,0-2.59,18.75c.15,1.59.56,3.15.86,4.71l.65,2.31.32,1.16.42,1.12a48.4,48.4,0,0,0,4,8.69,55.84,55.84,0,0,0,12.39,14.49c9.84,8.2,21.82,13.67,34.23,16.74a73.67,73.67,0,0,0,19.08,1.78,75.92,75.92,0,0,0,19-3,54.23,54.23,0,0,0,17.18-8.46c.63-.5,1.29-.95,1.89-1.48l1.76-1.64.88-.83c.29-.28.53-.6.79-.9l1.57-1.83a9.1,9.1,0,0,0,1.3-2,12.53,12.53,0,0,0,.91-2.21A6.1,6.1,0,0,0,285,168a4.28,4.28,0,0,0-.22-1.12,3.85,3.85,0,0,0-.62-1c-1-1.17-2.72-1.47-4.26-1.78s-3.18-.44-4.78-.58c-3.21-.28-6.43-.5-9.64-.89a106.16,106.16,0,0,1-19-3.85,101,101,0,0,1-17.93-7.42c-2.85-1.53-5.68-3.11-8.37-4.92l-2-1.37c-.67-.46-1.3-1-1.95-1.46-1.3-1-2.54-2-3.78-3A155.39,155.39,0,0,1,198.67,127c-2.17-2.38-4.37-4.74-6.62-7A40.45,40.45,0,0,0,184.69,113.71Zm.05-.09a40.4,40.4,0,0,1,7.44,6.18c2.28,2.28,4.46,4.66,6.7,7a151.43,151.43,0,0,0,14,13.28c1.25,1,2.5,2,3.82,2.94.65.47,1.29,1,1.95,1.41l2,1.33c2.68,1.77,5.5,3.31,8.34,4.81a109.81,109.81,0,0,0,17.76,7.39,107.7,107.7,0,0,0,18.81,4.11c3.19.43,6.4.71,9.61,1,1.61.17,3.22.34,4.81.62a12.2,12.2,0,0,1,1.2.26,8.33,8.33,0,0,1,1.18.34l.57.23.29.12.26.18.53.35a4.67,4.67,0,0,1,.44.45,3.85,3.85,0,0,1,.67,1.07,4.48,4.48,0,0,1,.25,1.24,6.5,6.5,0,0,1-.33,2.44,12.11,12.11,0,0,1-.94,2.26,10.54,10.54,0,0,1-1.32,2l-1.57,1.86c-.26.31-.51.63-.79.92l-.88.84L277.79,180c-.61.55-1.27,1-1.91,1.52a54.79,54.79,0,0,1-17.26,8.69,77.51,77.51,0,0,1-19.11,3.26,72.33,72.33,0,0,1-19.35-1.62,93.83,93.83,0,0,1-18.33-6.43A76.48,76.48,0,0,1,185.44,175a55.17,55.17,0,0,1-12.55-14.83,49.23,49.23,0,0,1-3.95-8.91l-.41-1.15-.31-1.18-.61-2.36c-.28-1.6-.65-3.19-.78-4.82a33.32,33.32,0,0,1,3-19,25,25,0,0,1,5.82-7.7A10,10,0,0,1,180,112.9,6.69,6.69,0,0,1,184.74,113.62Z"/>
      </g>
      <path class="cls-3" d="M165.82,113.92c-.76-.6-1.47-1.26-2.25-1.82a18.22,18.22,0,0,0-2.46-1.51,16.76,16.76,0,0,0-5.4-1.83,17.68,17.68,0,0,0-5.67,0,18,18,0,0,0-5.38,1.72l0,0a.44.44,0,0,1-.58-.19.42.42,0,0,1,0-.29,14.53,14.53,0,0,1,2.48-5.36,11.39,11.39,0,0,1,4.55-3.73,13.52,13.52,0,0,1,5.73-1.13,7.07,7.07,0,0,1,1.45.09l1.44.15,2.84.62-.14.32a13.13,13.13,0,0,1-3.09-3.31,19.74,19.74,0,0,1-2.06-4A28,28,0,0,1,156,89.32c-.15-.73-.24-1.48-.37-2.23l-.22-2.24a.29.29,0,0,1,.26-.32h0a32.7,32.7,0,0,1,9.91.88,27.54,27.54,0,0,1,4.74,1.6,25.46,25.46,0,0,1,4.38,2.46l-.8.5a13.32,13.32,0,0,1,.37-5.23,11.1,11.1,0,0,1,2.54-4.6,12.34,12.34,0,0,1,4.32-2.94,6.64,6.64,0,0,1,1.23-.43l1.24-.37c.85-.17,1.7-.29,2.55-.44a.44.44,0,0,1,.51.36.48.48,0,0,1-.09.35l0,0a13.62,13.62,0,0,0-2.3,4.38,8.37,8.37,0,0,0-.11,4.88A9.13,9.13,0,0,0,186.86,90a22,22,0,0,0,2,1.53l2.26,1.22h0a.06.06,0,0,1,0,.07.07.07,0,0,1-.07,0l-2.34-1.1a23.84,23.84,0,0,1-2.16-1.44,9.31,9.31,0,0,1-3.07-4.21,8.85,8.85,0,0,1-.07-5.27,14.34,14.34,0,0,1,2.36-4.74l.4.73c-.81.16-1.62.3-2.43.48a23.34,23.34,0,0,0-2.31.8,11.38,11.38,0,0,0-4,2.71A9.9,9.9,0,0,0,175.26,85a12.89,12.89,0,0,0-.38,4.78h0a.51.51,0,0,1-.46.57.54.54,0,0,1-.35-.08,24.36,24.36,0,0,0-4.17-2.42,28.16,28.16,0,0,0-4.57-1.61,33.32,33.32,0,0,0-4.78-.91,31.64,31.64,0,0,0-4.86-.22l.28-.32.14,2.21c.11.74.18,1.48.3,2.21a24.42,24.42,0,0,0,1.13,4.29,20.2,20.2,0,0,0,2,4,12,12,0,0,0,3,3.18.19.19,0,0,1,.05.25.18.18,0,0,1-.19.07l-2.79-.57-1.42-.1a7.52,7.52,0,0,0-1.42,0l-1.41.1a9.32,9.32,0,0,0-1.38.26l-.69.14c-.22.06-.43.16-.65.24a11.31,11.31,0,0,0-1.29.54,11.46,11.46,0,0,0-4.17,3.59,14.79,14.79,0,0,0-2.31,5l-.64-.46a18.67,18.67,0,0,1,5.69-1.75,16.77,16.77,0,0,1,5.91.14,17.07,17.07,0,0,1,5.5,2.09,19.15,19.15,0,0,1,2.41,1.67c.77.61,1.44,1.32,2.15,2a0,0,0,0,1,0,.07,0,0,0,0,1-.06,0Z"/>
      <g>
        <g>
          <g>
            <path class="cls-2" d="M188.35,118c.14,2.89-3.4,6.08-6.8,6.08s-7-2.14-7.1-5,3.17-5.88,6.57-5.88S188.21,115.05,188.35,118Z"/>
            <path class="cls-3" d="M188.46,117.94a6.76,6.76,0,0,1-1.87,4.61,7.19,7.19,0,0,1-4.68,2.51,8.76,8.76,0,0,1-5.22-1.3,7.39,7.39,0,0,1-2-1.87,4.83,4.83,0,0,1-.34-5.46,7,7,0,0,1,1.74-2,7.67,7.67,0,0,1,4.84-1.79,9.68,9.68,0,0,1,4.77,1.46A5.38,5.38,0,0,1,188.46,117.94Zm-.21,0a3.48,3.48,0,0,0-.89-2.14,5.54,5.54,0,0,0-1.91-1.37,10,10,0,0,0-4.54-.79,6.43,6.43,0,0,0-4,1.76A4.5,4.5,0,0,0,175.3,119a4.11,4.11,0,0,0,2.43,2.93,9,9,0,0,0,4.07,1,7.77,7.77,0,0,0,4-1.26A4.72,4.72,0,0,0,188.25,118Z"/>
          </g>
          <g>
            <path class="cls-2" d="M198.17,120c1.28,2.72-.73,6.85-3.86,7.91s-7.27.12-8.54-2.6.61-6.58,3.74-7.63S196.9,117.31,198.17,120Z"/>
            <path class="cls-3" d="M198.27,120a6.56,6.56,0,0,1,.08,5,6.45,6.45,0,0,1-3.59,3.94,8.68,8.68,0,0,1-5.35.25,6.63,6.63,0,0,1-4.33-3.31,5.9,5.9,0,0,1,.36-5.33,6.81,6.81,0,0,1,4-3.3,9.42,9.42,0,0,1,5,0A6,6,0,0,1,198.27,120Zm-.19.09a4.62,4.62,0,0,0-3.79-2.45,9.61,9.61,0,0,0-4.56.56,5.61,5.61,0,0,0-3.08,2.92,4.42,4.42,0,0,0-.08,4,4.65,4.65,0,0,0,3.32,2,9,9,0,0,0,4.16-.21,6.48,6.48,0,0,0,3.3-2.48A4.56,4.56,0,0,0,198.08,120.07Z"/>
          </g>
          <g>
            <path class="cls-2" d="M208.3,129.28c-1.12,2.68-4.68,4.06-7.88,2.9s-5.62-4.3-4.5-7,5.52-4.25,8.72-3.1S209.42,126.6,208.3,129.28Z"/>
            <path class="cls-3" d="M208.4,129.32a6.7,6.7,0,0,1-3.35,3.47,6.81,6.81,0,0,1-5.14.32,8.24,8.24,0,0,1-4.15-3.17,6.08,6.08,0,0,1-1-2.59,4.55,4.55,0,0,1,.53-2.8,7,7,0,0,1,4.15-3,8.5,8.5,0,0,1,5,0A6.2,6.2,0,0,1,208.4,129.32Zm-.19-.08a4.47,4.47,0,0,0-.5-4.34,6,6,0,0,0-3.57-2.41,7.27,7.27,0,0,0-4.25.31,5.44,5.44,0,0,0-3.09,2.52,3.22,3.22,0,0,0,.66,3.42,8.08,8.08,0,0,0,3.2,2.41,7.22,7.22,0,0,0,4,.57A4.53,4.53,0,0,0,208.21,129.24Z"/>
          </g>
          <g>
            <path class="cls-2" d="M216,136.84c-1.12,2.68-4.68,4.06-7.88,2.9s-5.62-4.31-4.5-7,5.53-4.26,8.72-3.1S217.12,134.16,216,136.84Z"/>
            <path class="cls-3" d="M216.1,136.88a6.7,6.7,0,0,1-3.35,3.47,6.81,6.81,0,0,1-5.14.31,8.18,8.18,0,0,1-4.15-3.17,6.3,6.3,0,0,1-1-2.58,4.54,4.54,0,0,1,.53-2.8,6.91,6.91,0,0,1,4.15-3,8.42,8.42,0,0,1,5,0A6.19,6.19,0,0,1,216.1,136.88Zm-.19-.08a4.49,4.49,0,0,0-.5-4.35,6.07,6.07,0,0,0-3.57-2.4,7.27,7.27,0,0,0-4.25.31,5.5,5.5,0,0,0-3.09,2.51,3.24,3.24,0,0,0,.66,3.43,8.18,8.18,0,0,0,3.2,2.41,7.23,7.23,0,0,0,4,.57A4.55,4.55,0,0,0,215.91,136.8Z"/>
          </g>
          <g>
            <path class="cls-2" d="M224.79,142.3a6.65,6.65,0,0,1-8.6,3.15,5.58,5.58,0,0,1-2.73-7.35c1.12-2.68,5-4.34,8.34-3.57C226.35,135.58,225.91,139.62,224.79,142.3Z"/>
            <path class="cls-3" d="M224.88,142.34a7.9,7.9,0,0,1-3.3,3.67,7,7,0,0,1-2.5.88,6.2,6.2,0,0,1-2.76-.25,6.72,6.72,0,0,1-2.4-1.45,6.4,6.4,0,0,1-1.53-2.4,6.81,6.81,0,0,1,.49-5.4,7.22,7.22,0,0,1,4.17-3.19,8.68,8.68,0,0,1,5.07-.12,5.67,5.67,0,0,1,2.26,1.25,4.08,4.08,0,0,1,1.2,2.24A9.13,9.13,0,0,1,224.88,142.34Zm-.19-.08a6.53,6.53,0,0,0,.47-4.58,4,4,0,0,0-3.3-2.59,7.56,7.56,0,0,0-4.36.39,5.77,5.77,0,0,0-3.13,2.68,4.76,4.76,0,0,0-.05,3.89,5.15,5.15,0,0,0,2.74,2.63,6.41,6.41,0,0,0,4.09.3A5.31,5.31,0,0,0,224.69,142.26Z"/>
          </g>
          <g>
            <path class="cls-2" d="M234.28,147.76c-1.12,2.67-5.25,4-8.64,2.3-3-1.49-3.81-4-2.69-6.71s4.73-4.17,7.89-2.94C235.18,142.09,235.4,145.08,234.28,147.76Z"/>
            <path class="cls-3" d="M234.37,147.8a6.94,6.94,0,0,1-8.4,3.54,8,8,0,0,1-2.3-1.23A6,6,0,0,1,222,148a5.5,5.5,0,0,1-.41-2.73,6.8,6.8,0,0,1,.77-2.51,6.45,6.45,0,0,1,4-3.09,7.21,7.21,0,0,1,4.87.36,5.49,5.49,0,0,1,3.18,7.81Zm-.19-.09a4.73,4.73,0,0,0,.06-4.3A6.08,6.08,0,0,0,230.8,141a6,6,0,0,0-4.08,0,4.94,4.94,0,0,0-2.9,2.53,5.23,5.23,0,0,0-.42,1.88,3.43,3.43,0,0,0,.43,1.72,5.94,5.94,0,0,0,2.87,2.32,8,8,0,0,0,4,.62A4.31,4.31,0,0,0,234.18,147.71Z"/>
          </g>
          <g>
            <path class="cls-2" d="M245.92,151.85c-1.18,2.83-5.9,4.09-9.9,2.17-3.56-1.71-4.58-4.47-3.39-7.31s5.3-4.3,9-2.87C246.74,145.79,247.11,149,245.92,151.85Z"/>
            <path class="cls-3" d="M246,151.89a6.56,6.56,0,0,1-4,3.4,8.72,8.72,0,0,1-5.53.07,10,10,0,0,1-2.54-1.29,7.14,7.14,0,0,1-2-2.18,5.66,5.66,0,0,1-.73-3,6.45,6.45,0,0,1,.78-2.84,6.71,6.71,0,0,1,4.59-3.22,8.94,8.94,0,0,1,5.39.56,13,13,0,0,1,2.3,1.35,6.52,6.52,0,0,1,1.73,2A6.11,6.11,0,0,1,246,151.89Zm-.2-.08a4.79,4.79,0,0,0-.18-4.78,7.94,7.94,0,0,0-4-2.64,7.63,7.63,0,0,0-4.67-.22,5.19,5.19,0,0,0-3.42,2.65,4.54,4.54,0,0,0-.42,2.1,3.57,3.57,0,0,0,.64,1.9,7.88,7.88,0,0,0,3.5,2.57,10.94,10.94,0,0,0,2.2.65,8.17,8.17,0,0,0,2.37.15A4.64,4.64,0,0,0,245.82,151.81Z"/>
          </g>
          <g>
            <path class="cls-2" d="M255.89,157c-1.19,2.84-5.37,4.29-8.76,2.59-3-1.51-3.75-4.17-2.57-7a6.39,6.39,0,0,1,8-3.24C256.92,151,257.08,154.13,255.89,157Z"/>
            <path class="cls-3" d="M256,157a6.71,6.71,0,0,1-3.39,3.45,7,7,0,0,1-5.15.37,7.64,7.64,0,0,1-2.36-1.32,5.79,5.79,0,0,1-1.66-2.29,5.72,5.72,0,0,1-.3-2.79,7.89,7.89,0,0,1,.81-2.53,7.08,7.08,0,0,1,9-3,8.64,8.64,0,0,1,2.08,1.35,4.9,4.9,0,0,1,1.36,2.07A7,7,0,0,1,256,157Zm-.2-.09a5.25,5.25,0,0,0,.2-4.44,5.81,5.81,0,0,0-3.43-2.62,5.72,5.72,0,0,0-7.11,2.78,4.52,4.52,0,0,0-.11,3.78,5.5,5.5,0,0,0,2.84,2.45,7.58,7.58,0,0,0,4.07.53A4.58,4.58,0,0,0,255.79,156.92Z"/>
          </g>
          <g>
            <path class="cls-2" d="M266.74,158.67c-.47,3-4.11,6.09-7.79,5-3.28-.93-6-2.52-5.55-6.93.35-3,5.19-5,8.54-4.41C266.54,153.23,267.22,155.65,266.74,158.67Z"/>
            <path class="cls-3" d="M266.85,158.69a7.84,7.84,0,0,1-2.48,4.48,7,7,0,0,1-2.37,1.42,6,6,0,0,1-2.89.23,12.41,12.41,0,0,1-2.59-.82,8,8,0,0,1-2.35-1.59,5.65,5.65,0,0,1-1.46-2.58,7.22,7.22,0,0,1-.16-2.8l0-.34.09-.38a2.63,2.63,0,0,1,.25-.73,4.64,4.64,0,0,1,.82-1.23,7.32,7.32,0,0,1,2.23-1.61,10,10,0,0,1,5.16-1,10.69,10.69,0,0,1,2.53.65,5.76,5.76,0,0,1,2.16,1.45,4.22,4.22,0,0,1,1.07,2.31A9.24,9.24,0,0,1,266.85,158.69Zm-.21,0a7,7,0,0,0,.05-2.45,3.52,3.52,0,0,0-1.17-2,5.43,5.43,0,0,0-2.12-1,9.47,9.47,0,0,0-2.34-.35,8.9,8.9,0,0,0-4.46,1.14c-1.34.75-2.42,1.89-2.38,3.22a4.34,4.34,0,0,0,1.38,3.76,6.51,6.51,0,0,0,1.81,1.09c.34.16.7.29,1.06.42a8.64,8.64,0,0,0,1.07.34,6,6,0,0,0,4.18-.51A5.4,5.4,0,0,0,266.64,158.66Z"/>
          </g>
          <g>
            <path class="cls-2" d="M274.62,161.69c-.39,2.45-3.34,4.94-6.33,4.09-2.65-.76-4.89-2-4.49-5.62.28-2.46,4.2-4.08,6.92-3.58C274.45,157.28,275,159.24,274.62,161.69Z"/>
            <path class="cls-3" d="M274.72,161.71a6.66,6.66,0,0,1-2,3.72,5.05,5.05,0,0,1-4.36,1.44,10,10,0,0,1-2.15-.67,6.29,6.29,0,0,1-2-1.34,4.93,4.93,0,0,1-1.22-2.18,6.16,6.16,0,0,1-.11-2.33l0-.28.07-.33a2.69,2.69,0,0,1,.22-.62,3.87,3.87,0,0,1,.69-1,6.16,6.16,0,0,1,1.86-1.32,8.24,8.24,0,0,1,4.25-.78,7.9,7.9,0,0,1,2.07.55,4.89,4.89,0,0,1,1.76,1.22,3.43,3.43,0,0,1,.85,1.9A7.41,7.41,0,0,1,274.72,161.71Zm-.21,0a5.28,5.28,0,0,0,0-2,2.71,2.71,0,0,0-1-1.63,6.37,6.37,0,0,0-3.58-1,7.12,7.12,0,0,0-3.56.94,3,3,0,0,0-1.83,2.51,3.3,3.3,0,0,0,1.1,2.89,8.89,8.89,0,0,0,3.1,1.45,4.84,4.84,0,0,0,3.29-.3A4.19,4.19,0,0,0,274.51,161.68Z"/>
          </g>
          <g>
            <path class="cls-2" d="M279.23,171c-3.3-.36-7.42-2.62-6.75-5.64.59-2.7,2.94-4.65,7.73-4.29,3.3.24,5.37,3.92,4.79,6.61C284.51,170,282.52,171.37,279.23,171Z"/>
            <path class="cls-3" d="M279.21,171.11a15.6,15.6,0,0,1-4.51-1,6.84,6.84,0,0,1-2.11-1.36,4.08,4.08,0,0,1-1.22-2.55,5.37,5.37,0,0,1,.65-2.7,5.89,5.89,0,0,1,1.83-2,8.7,8.7,0,0,1,4.84-1.24,10.1,10.1,0,0,1,2.44.26,5.45,5.45,0,0,1,2.24,1.22,6.76,6.76,0,0,1,2.2,4.32,4.57,4.57,0,0,1-1.91,4.26A7.1,7.1,0,0,1,279.21,171.11Zm0-.21a5.11,5.11,0,0,0,4.15-1,4,4,0,0,0,1.15-3.77,5.59,5.59,0,0,0-2-3.41,4.14,4.14,0,0,0-1.73-.8,9,9,0,0,0-2-.06,6.6,6.6,0,0,0-3.68,1.25,4,4,0,0,0-1.11,1.35,4.17,4.17,0,0,0-.49,1.6,4.28,4.28,0,0,0,1.81,3A8.06,8.06,0,0,0,279.24,170.9Z"/>
          </g>
        </g>
        <g>
          <g>
            <path class="cls-2" d="M182.59,126.34c.16,3.19-3.18,6.3-6.91,6.3s-7.52-1.43-7.67-4.62,3.25-7.35,7-7.35S182.43,123.15,182.59,126.34Z"/>
            <path class="cls-3" d="M182.69,126.34a6.85,6.85,0,0,1-1.94,4.95,7.3,7.3,0,0,1-5.15,2.39,10.89,10.89,0,0,1-5.51-1.21,6.09,6.09,0,0,1-2.26-2.09,4.71,4.71,0,0,1-.64-3.06,8.5,8.5,0,0,1,2.67-5,7.37,7.37,0,0,1,5.07-2.21,9,9,0,0,1,5,1.8A6.29,6.29,0,0,1,182.69,126.34Zm-.2,0a5,5,0,0,0-2.76-4,9,9,0,0,0-4.79-1.12,6.15,6.15,0,0,0-4.11,2.12,6.92,6.92,0,0,0-2,4.14,3.21,3.21,0,0,0,2.18,3.17,12.43,12.43,0,0,0,4.57,1,7.59,7.59,0,0,0,4.41-1.16A4.9,4.9,0,0,0,182.49,126.35Z"/>
          </g>
          <g>
            <path class="cls-2" d="M193.18,130.12c.16,3.19-3.18,6.3-6.9,6.3s-7.52-1.43-7.68-4.62,3.25-7.35,7-7.35S193,126.93,193.18,130.12Z"/>
            <path class="cls-3" d="M193.29,130.11a6.83,6.83,0,0,1-1.95,4.95,7.27,7.27,0,0,1-5.15,2.4,10.92,10.92,0,0,1-5.51-1.21,6.07,6.07,0,0,1-2.25-2.09,4.67,4.67,0,0,1-.65-3.06,8.5,8.5,0,0,1,2.67-5,7.39,7.39,0,0,1,5.07-2.21,9,9,0,0,1,5,1.8A6.34,6.34,0,0,1,193.29,130.11Zm-.21,0a5,5,0,0,0-2.75-4,9,9,0,0,0-4.8-1.12,6.15,6.15,0,0,0-4.11,2.12,7,7,0,0,0-2,4.14,3.22,3.22,0,0,0,2.18,3.17,12.48,12.48,0,0,0,4.57,1,7.59,7.59,0,0,0,4.41-1.16A4.9,4.9,0,0,0,193.08,130.13Z"/>
          </g>
          <g>
            <path class="cls-2" d="M204.73,134.48c-1,3-5.29,5-8.88,4s-6.74-3.42-5.76-6.45,5.72-6,9.31-4.95S205.7,131.45,204.73,134.48Z"/>
            <path class="cls-3" d="M204.83,134.51a7.48,7.48,0,0,1-3.48,4.05,7.66,7.66,0,0,1-5.59.95,10.84,10.84,0,0,1-5-2.62,5.51,5.51,0,0,1-1.59-2.69,4.57,4.57,0,0,1,.43-3.13,9.21,9.21,0,0,1,4.15-3.8,8.2,8.2,0,0,1,5.47-.79,8.43,8.43,0,0,1,4.45,3A5.75,5.75,0,0,1,204.83,134.51Zm-.2-.06a4.61,4.61,0,0,0-1.33-4.66A8.43,8.43,0,0,0,199,127.5a7.05,7.05,0,0,0-4.62,1,7.73,7.73,0,0,0-3.27,3.31,2.88,2.88,0,0,0,1.06,3.58,12.12,12.12,0,0,0,4.16,2.12,8.41,8.41,0,0,0,4.62,0A5.32,5.32,0,0,0,204.63,134.45Z"/>
          </g>
          <g>
            <path class="cls-2" d="M211,140.83c.14,2.78-2.35,5-5.56,5s-5.91-2.25-6-5,2.35-5,5.56-5S210.85,138,211,140.83Z"/>
            <path class="cls-3" d="M211.09,140.82a5.53,5.53,0,0,1-1.48,4.17,6,6,0,0,1-4.34,1.91,6.76,6.76,0,0,1-4.57-1.63,6,6,0,0,1-2.16-4.4,5.32,5.32,0,0,1,2.13-4.3,6.67,6.67,0,0,1,4.4-1.3A6.4,6.4,0,0,1,211.09,140.82Zm-.21,0a4.34,4.34,0,0,0-2-3.47,6.48,6.48,0,0,0-3.82-1,5.42,5.42,0,0,0-3.52,1.31,3.76,3.76,0,0,0-1.32,3.16,4,4,0,0,0,1.78,2.86,6.42,6.42,0,0,0,3.32,1.16,6.5,6.5,0,0,0,3.59-.69A3.7,3.7,0,0,0,210.88,140.83Z"/>
          </g>
          <g>
            <path class="cls-2" d="M220.17,144.92c.15,3.07-2.54,5.56-6,5.56s-6.4-2.49-6.55-5.56,2.54-5.56,6-5.56S220,141.85,220.17,144.92Z"/>
            <path class="cls-3" d="M220.28,144.91a6.07,6.07,0,0,1-1.59,4.53,6.46,6.46,0,0,1-4.69,2.08,7.29,7.29,0,0,1-4.93-1.8,6.62,6.62,0,0,1-2.29-4.76,5.8,5.8,0,0,1,2.23-4.65,7.07,7.07,0,0,1,4.77-1.47A6.93,6.93,0,0,1,220.28,144.91Zm-.21,0a4.9,4.9,0,0,0-2.15-3.84,6.86,6.86,0,0,0-4.17-1.2,5.86,5.86,0,0,0-3.86,1.45,4.27,4.27,0,0,0-1.44,3.54,4.6,4.6,0,0,0,1.93,3.24,7.22,7.22,0,0,0,7.59.47A4.17,4.17,0,0,0,220.07,144.93Z"/>
          </g>
          <g>
            <path class="cls-2" d="M229.46,151c.15,3.07-2.54,5.56-6,5.56s-6.4-2.49-6.55-5.56,3.54-6.82,7-6.82S229.31,147.94,229.46,151Z"/>
            <path class="cls-3" d="M229.56,151a6,6,0,0,1-1.76,4.68,6.58,6.58,0,0,1-5,1.91,7.37,7.37,0,0,1-5-2.29,6.2,6.2,0,0,1-1.66-5.28,8,8,0,0,1,2.87-4.46,7.67,7.67,0,0,1,4.82-1.89,5,5,0,0,1,2.53.78,6,6,0,0,1,1.75,1.87A10.89,10.89,0,0,1,229.56,151Zm-.21,0a7.41,7.41,0,0,0-1.6-4.44,4.63,4.63,0,0,0-3.9-1.86,6.57,6.57,0,0,0-3.95,1.88,6.49,6.49,0,0,0-2.11,3.69,4.26,4.26,0,0,0,1.48,3.56,7.1,7.1,0,0,0,7.84,1A4.27,4.27,0,0,0,229.35,151Z"/>
          </g>
          <g>
            <path class="cls-2" d="M235,160.09a6.93,6.93,0,0,1-8.82-1.25,5.09,5.09,0,0,1,1-7.78c2.72-1.8,8.44-1.21,10.6,1.28S237.73,158.29,235,160.09Z"/>
            <path class="cls-3" d="M235.07,160.18a8.2,8.2,0,0,1-4.85,1.43,6.76,6.76,0,0,1-4.92-2.21,6.27,6.27,0,0,1-1.37-2.57,6,6,0,0,1,0-3,6.28,6.28,0,0,1,3.83-4.06,10.49,10.49,0,0,1,5.25-.37,9.12,9.12,0,0,1,4.74,2.14A4,4,0,0,1,239,154a4.48,4.48,0,0,1-.57,2.54A11,11,0,0,1,235.07,160.18ZM235,160a7.56,7.56,0,0,0,3.08-3.63,3.38,3.38,0,0,0-.95-4,7.86,7.86,0,0,0-4.21-1.56,9,9,0,0,0-4.43.57,4.29,4.29,0,0,0-2.46,3,4.57,4.57,0,0,0,.93,3.67,7,7,0,0,0,3.48,2.45A5.52,5.52,0,0,0,235,160Z"/>
          </g>
          <g>
            <path class="cls-2" d="M245.27,165a6.92,6.92,0,0,1-8.82-1.25,5.09,5.09,0,0,1,1-7.78c2.71-1.8,8.44-1.21,10.59,1.28S248,163.17,245.27,165Z"/>
            <path class="cls-3" d="M245.32,165.06a8.14,8.14,0,0,1-4.84,1.43,6.75,6.75,0,0,1-4.93-2.22,6.21,6.21,0,0,1-1.36-2.56,6,6,0,0,1,0-3,6.26,6.26,0,0,1,3.83-4.06,10.48,10.48,0,0,1,5.25-.37,9.05,9.05,0,0,1,4.73,2.14,4,4,0,0,1,1.21,2.42,4.39,4.39,0,0,1-.56,2.54A11.16,11.16,0,0,1,245.32,165.06Zm-.11-.18a7.61,7.61,0,0,0,3.08-3.63,3.37,3.37,0,0,0-1-4,7.8,7.8,0,0,0-4.21-1.56,9,9,0,0,0-4.43.57,4.28,4.28,0,0,0-2.45,3,4.59,4.59,0,0,0,.93,3.68,6.91,6.91,0,0,0,3.48,2.45A5.53,5.53,0,0,0,245.21,164.88Z"/>
          </g>
          <g>
            <path class="cls-2" d="M258,163.92c.13,2.78-2.35,5-5.55,5s-5.91-2.26-6-5,2.35-5,5.55-5S257.85,161.14,258,163.92Z"/>
            <path class="cls-3" d="M258.09,163.91a5.52,5.52,0,0,1-1.47,4.17,6.05,6.05,0,0,1-4.33,1.92,6.77,6.77,0,0,1-4.57-1.64,6.05,6.05,0,0,1-2.16-4.4,5.29,5.29,0,0,1,2.13-4.29,6.66,6.66,0,0,1,4.4-1.31A6.39,6.39,0,0,1,258.09,163.91Zm-.21,0a4.32,4.32,0,0,0-2-3.47,6.45,6.45,0,0,0-3.81-1,5.42,5.42,0,0,0-3.52,1.31,3.76,3.76,0,0,0-1.32,3.16,4,4,0,0,0,1.78,2.87,6.6,6.6,0,0,0,3.32,1.16,6.5,6.5,0,0,0,3.58-.7A3.69,3.69,0,0,0,257.88,163.92Z"/>
          </g>
          <g>
            <path class="cls-2" d="M269.5,167.17c.15,3-2.81,5.36-6.6,5.36s-7-2.4-7.12-5.36,2.81-5.35,6.6-5.35S269.36,164.22,269.5,167.17Z"/>
            <path class="cls-3" d="M269.6,167.17a5.59,5.59,0,0,1-2,4.51,7.53,7.53,0,0,1-4.89,1.89,8.46,8.46,0,0,1-5.11-1.59,6.26,6.26,0,0,1-2.68-4.77,5.06,5.06,0,0,1,.74-2.72,6.12,6.12,0,0,1,1.89-1.93,8.45,8.45,0,0,1,5-1.26,8.27,8.27,0,0,1,4.65,1.74A6,6,0,0,1,269.6,167.17Zm-.2,0a4.67,4.67,0,0,0-2.46-3.78,8.23,8.23,0,0,0-4.42-1.05,7.16,7.16,0,0,0-4.16,1.33,3.94,3.94,0,0,0-1.74,3.45,4.25,4.25,0,0,0,2.19,3.14,8.35,8.35,0,0,0,4,1.2,8.57,8.57,0,0,0,4.22-.7A4,4,0,0,0,269.4,167.18Z"/>
          </g>
          <g>
            <path class="cls-2" d="M280.17,172.63c.15,3-2.8,5.35-6.59,5.35s-7-2.39-7.12-5.35,2.81-5.35,6.59-5.35S280,169.67,280.17,172.63Z"/>
            <path class="cls-3" d="M280.28,172.63a5.59,5.59,0,0,1-2,4.51,7.55,7.55,0,0,1-4.9,1.88,8.42,8.42,0,0,1-5.1-1.58,6.3,6.3,0,0,1-2.69-4.77,5.06,5.06,0,0,1,.74-2.72,5.94,5.94,0,0,1,1.9-1.93,8.42,8.42,0,0,1,4.95-1.26,8.27,8.27,0,0,1,4.65,1.74A6,6,0,0,1,280.28,172.63Zm-.21,0a4.65,4.65,0,0,0-2.46-3.78,8.21,8.21,0,0,0-4.42-1.05,7.18,7.18,0,0,0-4.16,1.33,4,4,0,0,0-1.74,3.45,4.28,4.28,0,0,0,2.19,3.14,9.24,9.24,0,0,0,8.19.49A4,4,0,0,0,280.07,172.64Z"/>
          </g>
        </g>
        <g>
          <g>
            <ellipse class="cls-2" cx="172.03" cy="137.68" rx="5.44" ry="6.64" transform="translate(17.61 294.85) rotate(-84.18)"/>
            <path class="cls-3" d="M178.76,137.67a5.83,5.83,0,0,1-1.81,4.54,7.12,7.12,0,0,1-4.82,2,8,8,0,0,1-5-1.69,6.39,6.39,0,0,1-2.52-4.77,5.62,5.62,0,0,1,2.46-4.67,7.86,7.86,0,0,1,4.89-1.35C175.28,131.86,178.46,134.39,178.76,137.67Zm-.21,0a4.75,4.75,0,0,0-2.33-3.81,7.59,7.59,0,0,0-4.32-1.12,6.58,6.58,0,0,0-4,1.39,4.08,4.08,0,0,0-1.62,3.5,4.42,4.42,0,0,0,2.08,3.19,7.65,7.65,0,0,0,3.85,1.25,7.77,7.77,0,0,0,4.1-.76A4.09,4.09,0,0,0,178.55,137.68Z"/>
          </g>
          <g>
            <path class="cls-2" d="M190.9,141.46c.16,3.36-2.67,6.08-6.33,6.08a6.77,6.77,0,0,1-6.92-6.08c-.16-3.37,2.67-6.09,6.33-6.09A6.76,6.76,0,0,1,190.9,141.46Z"/>
            <path class="cls-3" d="M191,141.45a6.64,6.64,0,0,1-1.62,4.87,6.72,6.72,0,0,1-5,2.26,7.56,7.56,0,0,1-5.23-2,7.19,7.19,0,0,1-2.35-5.08,6.29,6.29,0,0,1,2.27-5,7.24,7.24,0,0,1,5-1.66A7.34,7.34,0,0,1,191,141.45Zm-.21,0a5.42,5.42,0,0,0-2.23-4.18,7.07,7.07,0,0,0-4.44-1.38,6,6,0,0,0-4.12,1.62,4.79,4.79,0,0,0-1.51,3.9,5.16,5.16,0,0,0,2,3.59,7.23,7.23,0,0,0,8.12.47A4.65,4.65,0,0,0,190.79,141.46Z"/>
          </g>
          <g>
            <path class="cls-2" d="M200.71,147.89c-2.1,3.12-6.12,4.35-9,2.77s-3.5-5.4-1.4-8.52,6.12-4.36,9-2.77S202.81,144.77,200.71,147.89Z"/>
            <path class="cls-3" d="M200.8,148a10.14,10.14,0,0,1-3.78,3.5,7.38,7.38,0,0,1-2.65.76,6.06,6.06,0,0,1-2.86-.49,5.87,5.87,0,0,1-2.33-1.89,6.12,6.12,0,0,1-1.06-2.79,7.88,7.88,0,0,1,1.5-5.37,8.82,8.82,0,0,1,4.34-3.2,6.9,6.9,0,0,1,5.33.31,5.55,5.55,0,0,1,2,1.83,5.41,5.41,0,0,1,.82,2.5A8,8,0,0,1,200.8,148Zm-.18-.12a5.92,5.92,0,0,0,1-4.66,4.8,4.8,0,0,0-2.83-3.45,5.67,5.67,0,0,0-4.41,0,7.23,7.23,0,0,0-3.41,2.86,5.81,5.81,0,0,0-.84,4.13,4.4,4.4,0,0,0,2.25,3.1,6.22,6.22,0,0,0,4.22.55A6.42,6.42,0,0,0,200.62,147.83Z"/>
          </g>
          <g>
            <ellipse class="cls-2" cx="204.62" cy="150.66" rx="6.38" ry="5.43" transform="translate(-11.71 17.37) rotate(-4.72)"/>
            <path class="cls-3" d="M207.83,155.41a9.49,9.49,0,0,1-4.66,1.14,6.25,6.25,0,0,1-4.68-2.13,5.55,5.55,0,0,1-1.22-2.52,5.69,5.69,0,0,1,.2-2.81,6.92,6.92,0,0,1,3.62-3.83,8.23,8.23,0,0,1,5-.61,6.91,6.91,0,0,1,4.26,2.58,5.23,5.23,0,0,1,.94,2.33A5,5,0,0,1,211,152,6.85,6.85,0,0,1,207.83,155.41Zm-.1-.19a5,5,0,0,0,2.84-3.36,4.49,4.49,0,0,0-1-4,6.34,6.34,0,0,0-7.69-1.11,4.83,4.83,0,0,0-2.39,2.94,4.06,4.06,0,0,0,.68,3.43,6.46,6.46,0,0,0,3.22,2.32A6,6,0,0,0,207.73,155.22Z"/>
          </g>
          <g>
            <path class="cls-2" d="M217,160.14c-3.06,1.56-6.95.74-8.69-1.83s-.68-5.92,2.38-7.47,6.95-.74,8.7,1.83S220.06,158.59,217,160.14Z"/>
            <path class="cls-3" d="M217.05,160.24a9.48,9.48,0,0,1-4.65,1.14,6.29,6.29,0,0,1-4.69-2.13,5.66,5.66,0,0,1-1.22-2.52,5.8,5.8,0,0,1,.21-2.81,6.9,6.9,0,0,1,3.61-3.83,8.26,8.26,0,0,1,5-.61,6.87,6.87,0,0,1,4.25,2.57,5.45,5.45,0,0,1,1,2.34,5,5,0,0,1-.3,2.43A6.91,6.91,0,0,1,217.05,160.24Zm-.09-.19a5.14,5.14,0,0,0,2.84-3.36,4.49,4.49,0,0,0-1.05-4,6.33,6.33,0,0,0-7.68-1.12,4.81,4.81,0,0,0-2.39,2.95,4.1,4.1,0,0,0,.67,3.43,6.41,6.41,0,0,0,3.23,2.31A6,6,0,0,0,217,160.05Z"/>
          </g>
          <g>
            <ellipse class="cls-2" cx="222.52" cy="162.23" rx="5.89" ry="6.97" transform="translate(31.07 360.18) rotate(-82.05)"/>
            <path class="cls-3" d="M222.44,168.24a9.82,9.82,0,0,1-5-1.44,6.73,6.73,0,0,1-2-2,5.63,5.63,0,0,1-.21-5.77,6.52,6.52,0,0,1,2-2.2,8.49,8.49,0,0,1,5.43-1.37,8.73,8.73,0,0,1,5,2.08,6.41,6.41,0,0,1,2.3,4.89,5.44,5.44,0,0,1-.77,2.62,6,6,0,0,1-1.88,1.87A8.8,8.8,0,0,1,222.44,168.24Zm0-.21a6.46,6.46,0,0,0,4.63-1.43,5,5,0,0,0,1.87-4.13,5.2,5.2,0,0,0-2.13-3.85,7.21,7.21,0,0,0-4.25-1.46c-3.07-.1-5.92,2.13-5.95,4.83a5.67,5.67,0,0,0,1.53,3.95A6.5,6.5,0,0,0,222.45,168Z"/>
          </g>
          <g>
            <path class="cls-2" d="M234.74,173c-3.84-.19-6.91-3-6.87-6.25s3.2-5.76,7-5.57,6.91,3,6.87,6.25S238.58,173.16,234.74,173Z"/>
            <path class="cls-3" d="M234.74,173.07a9.82,9.82,0,0,1-5-1.44,7,7,0,0,1-2-2,5.64,5.64,0,0,1-.21-5.78,6.58,6.58,0,0,1,2-2.19,8.49,8.49,0,0,1,5.43-1.37,8.73,8.73,0,0,1,5,2.08,6.4,6.4,0,0,1,2.3,4.89,5.44,5.44,0,0,1-.77,2.62,6,6,0,0,1-1.88,1.87A8.8,8.8,0,0,1,234.74,173.07Zm0-.21a6.48,6.48,0,0,0,4.63-1.44,5,5,0,0,0,1.87-4.13,5.2,5.2,0,0,0-2.13-3.84,7.21,7.21,0,0,0-4.25-1.46c-3.07-.1-5.92,2.13-6,4.83a5.58,5.58,0,0,0,1.53,3.94A6.48,6.48,0,0,0,234.75,172.86Z"/>
          </g>
          <g>
            <path class="cls-2" d="M246.82,178.21c-3.84-.19-6.91-3-6.87-6.25s3.2-5.75,7-5.56,6.92,3,6.87,6.25S250.66,178.4,246.82,178.21Z"/>
            <path class="cls-3" d="M246.82,178.32a9.86,9.86,0,0,1-5-1.45,7.06,7.06,0,0,1-2-2,5.77,5.77,0,0,1-.9-2.82,5.87,5.87,0,0,1,.69-3,6.82,6.82,0,0,1,2-2.2,8.58,8.58,0,0,1,5.43-1.36,8.73,8.73,0,0,1,5,2.08,6.43,6.43,0,0,1,2.31,4.88,5.53,5.53,0,0,1-.78,2.62,5.92,5.92,0,0,1-1.88,1.88A8.77,8.77,0,0,1,246.82,178.32Zm0-.21a6.45,6.45,0,0,0,4.63-1.44,5,5,0,0,0,1.87-4.13,5.2,5.2,0,0,0-2.13-3.84,7.21,7.21,0,0,0-4.25-1.46c-3.07-.11-5.91,2.13-5.94,4.83a5.63,5.63,0,0,0,1.52,3.94A6.53,6.53,0,0,0,246.83,178.11Z"/>
          </g>
          <g>
            <path class="cls-2" d="M258.48,180.33c-3.6-.17-6.49-2.41-6.46-5s3-4.52,6.59-4.34,6.49,2.41,6.45,5S262.08,180.51,258.48,180.33Z"/>
            <path class="cls-3" d="M258.47,180.44a11.58,11.58,0,0,1-4.48-.94,6,6,0,0,1-2-1.5,4.21,4.21,0,0,1-.2-5.26,6,6,0,0,1,2-1.72,9.19,9.19,0,0,1,4.82-.86,9.36,9.36,0,0,1,4.51,1.57,5.21,5.21,0,0,1,2.42,4.16,3.86,3.86,0,0,1-.87,2.3,5.17,5.17,0,0,1-1.86,1.41A10.06,10.06,0,0,1,258.47,180.44Zm0-.21a6.64,6.64,0,0,0,4.16-1,3.82,3.82,0,0,0,1.89-3.32,4,4,0,0,0-2.12-3,7.78,7.78,0,0,0-3.84-1,6.87,6.87,0,0,0-3.72,1,3.31,3.31,0,0,0-1.77,2.6,4.17,4.17,0,0,0,1.53,3.13A6.5,6.5,0,0,0,258.48,180.23Z"/>
          </g>
          <g>
            <ellipse class="cls-2" cx="267.97" cy="179.87" rx="6.31" ry="4.82" transform="translate(-37.98 77.13) rotate(-15.31)"/>
            <path class="cls-3" d="M270.7,184.08a10.92,10.92,0,0,1-4.36,1.25,6.84,6.84,0,0,1-2.43-.34,5.09,5.09,0,0,1-2.17-1.48,4.76,4.76,0,0,1-1.06-2.57,5.07,5.07,0,0,1,.56-2.65,7.61,7.61,0,0,1,3.68-3.3,9,9,0,0,1,4.7-.71,6.07,6.07,0,0,1,4.17,2.26,4.1,4.1,0,0,1,.17,4.56A7.87,7.87,0,0,1,270.7,184.08Zm-.09-.19a5.57,5.57,0,0,0,3-3,3.59,3.59,0,0,0-.6-3.72,4.85,4.85,0,0,0-3.48-1.55,7.41,7.41,0,0,0-3.84.85,5.53,5.53,0,0,0-2.53,2.67,3.08,3.08,0,0,0,.27,3.06,5.34,5.34,0,0,0,3.06,2A6.24,6.24,0,0,0,270.61,183.89Z"/>
          </g>
        </g>
        <g>
          <g>
            <ellipse class="cls-2" cx="173.29" cy="149.01" rx="5.65" ry="6.64" transform="translate(3.07 301.52) rotate(-82.55)"/>
            <path class="cls-3" d="M180,149a6.06,6.06,0,0,1-1.74,4.65,7,7,0,0,1-4.88,2.06,7.8,7.8,0,0,1-5.11-1.79,6.67,6.67,0,0,1-2.46-4.88,5.83,5.83,0,0,1,2.4-4.77,7.59,7.59,0,0,1,4.94-1.45C176.63,143,179.75,145.69,180,149Zm-.21,0a5,5,0,0,0-2.29-3.94,7.54,7.54,0,0,0-4.37-1.21,6.46,6.46,0,0,0-4.07,1.47A4.34,4.34,0,0,0,167.5,149a4.62,4.62,0,0,0,2.07,3.33,7.89,7.89,0,0,0,8,.48A4.24,4.24,0,0,0,179.81,149Z"/>
          </g>
          <g>
            <path class="cls-2" d="M193.13,153.32c.18,3.53-2.86,6.4-6.78,6.4s-7.23-2.87-7.41-6.4,2.87-6.41,6.79-6.41S193,149.78,193.13,153.32Z"/>
            <path class="cls-3" d="M193.24,153.31a6.82,6.82,0,0,1-1.79,5.12,7.24,7.24,0,0,1-5.28,2.33,8.19,8.19,0,0,1-5.53-2.07,7.47,7.47,0,0,1-2.53-5.33,6.58,6.58,0,0,1,2.44-5.25,7.84,7.84,0,0,1,12.69,5.2Zm-.21,0a5.75,5.75,0,0,0-2.41-4.42,7.73,7.73,0,0,0-4.74-1.46,6.63,6.63,0,0,0-4.44,1.7,5.05,5.05,0,0,0-1.66,4.14,5.43,5.43,0,0,0,2.2,3.83,7.65,7.65,0,0,0,4.23,1.56,7.46,7.46,0,0,0,4.51-1.08A5,5,0,0,0,193,153.32Z"/>
          </g>
          <g>
            <ellipse class="cls-2" cx="198.1" cy="158.04" rx="6.49" ry="5.99" transform="translate(-13.2 18.13) rotate(-5.07)"/>
            <path class="cls-3" d="M204,160.74a7.86,7.86,0,0,1-3.64,3.49,6.84,6.84,0,0,1-5.37.24,7.06,7.06,0,0,1-2.39-1.54A6.81,6.81,0,0,1,191,160.5a6.56,6.56,0,0,1,.56-5.51,7.23,7.23,0,0,1,4.25-3.26,7.51,7.51,0,0,1,5.2.37,6.21,6.21,0,0,1,3.36,3.78A6.36,6.36,0,0,1,204,160.74Zm-.18-.1A4.91,4.91,0,0,0,204,156a5.9,5.9,0,0,0-3.35-3,6.32,6.32,0,0,0-4.39,0,5.66,5.66,0,0,0-3.19,2.76,4.55,4.55,0,0,0-.1,4,5.63,5.63,0,0,0,2.8,2.79,7.21,7.21,0,0,0,4.22.63A5.35,5.35,0,0,0,203.78,160.64Z"/>
          </g>
          <g>
            <path class="cls-2" d="M216.31,164.55c-1.33,2.43-5,3.22-8.19,1.75s-4.69-4.62-3.36-7.05,5-3.22,8.19-1.75S217.64,162.12,216.31,164.55Z"/>
            <path class="cls-3" d="M216.4,164.6c-1.43,2.74-5.37,4-8.51,2.74a7.34,7.34,0,0,1-3.83-3.3,5.33,5.33,0,0,1,0-5.19,5.74,5.74,0,0,1,4.23-2.64,8.23,8.23,0,0,1,4.71.73,7.17,7.17,0,0,1,3.34,3.23A4.94,4.94,0,0,1,216.4,164.6Zm-.18-.1a3.85,3.85,0,0,0-.29-4.11,7.64,7.64,0,0,0-7.43-2.85,4.27,4.27,0,0,0-3,2.11,3.37,3.37,0,0,0,.35,3.36,7.07,7.07,0,0,0,2.87,2.41,8.68,8.68,0,0,0,3.87,1A4.17,4.17,0,0,0,216.22,164.5Z"/>
          </g>
          <g>
            <path class="cls-2" d="M223.65,172.74c-1.33,2.43-5.61,2.86-8.53,1.52s-4.19-4.39-2.86-6.82,6-3.18,8.91-1.84A5.17,5.17,0,0,1,223.65,172.74Z"/>
            <path class="cls-3" d="M223.74,172.79a6.06,6.06,0,0,1-3.76,2.69,8.14,8.14,0,0,1-4.88-.1,6.5,6.5,0,0,1-3.83-3.45,5.32,5.32,0,0,1,.45-5.2,5.13,5.13,0,0,1,2.05-1.63,8.48,8.48,0,0,1,2.36-.69,9.53,9.53,0,0,1,4.73.5,6,6,0,0,1,2,1.35,5.46,5.46,0,0,1,1.2,2.05A5.94,5.94,0,0,1,223.74,172.79Zm-.18-.1a4.48,4.48,0,0,0,.1-4.22,5.08,5.08,0,0,0-3.15-2.58,8.42,8.42,0,0,0-4.14-.14,5.09,5.09,0,0,0-3.26,1.91,3.42,3.42,0,0,0-.45,1.69,3.62,3.62,0,0,0,.48,1.69,5.69,5.69,0,0,0,2.73,2.4,10.46,10.46,0,0,0,3.95.93A4.14,4.14,0,0,0,223.56,172.69Z"/>
          </g>
          <g>
            <path class="cls-2" d="M235.82,176.28c-.57,3-4.77,4.67-8.16,4s-5.68-3.56-5.12-6.56,5.05-5.12,8.45-4.49A6.11,6.11,0,0,1,235.82,176.28Z"/>
            <path class="cls-3" d="M235.92,176.3a6.05,6.05,0,0,1-3.06,3.94,8.18,8.18,0,0,1-5.16,1.15,7.12,7.12,0,0,1-4.8-2.71,6.11,6.11,0,0,1-1.09-5.44,5.29,5.29,0,0,1,1.57-2.36,8.23,8.23,0,0,1,2.24-1.44,9.2,9.2,0,0,1,5.1-.73,6.07,6.07,0,0,1,4.18,2.82A7.05,7.05,0,0,1,235.92,176.3Zm-.21,0a5.33,5.33,0,0,0-1.17-4.48,5.77,5.77,0,0,0-4-2,8.07,8.07,0,0,0-4.38.93,5.13,5.13,0,0,0-2.77,3,4.17,4.17,0,0,0,1.07,3.7,6.44,6.44,0,0,0,3.53,1.94,9.62,9.62,0,0,0,4.39-.11A4.25,4.25,0,0,0,235.71,176.26Z"/>
          </g>
          <g>
            <ellipse class="cls-2" cx="240.56" cy="179.87" rx="5.03" ry="6.63" transform="translate(45.08 407.93) rotate(-86.19)"/>
            <path class="cls-3" d="M247.28,179.87a5.28,5.28,0,0,1-1.94,4.3,7.36,7.36,0,0,1-4.69,1.78,8.29,8.29,0,0,1-4.91-1.47,6,6,0,0,1-2.64-4.57,4.78,4.78,0,0,1,.74-2.62,5.87,5.87,0,0,1,1.86-1.82,8.32,8.32,0,0,1,4.76-1.15,8.06,8.06,0,0,1,4.46,1.63A5.64,5.64,0,0,1,247.28,179.87Zm-.21,0a4.34,4.34,0,0,0-2.39-3.56,8.23,8.23,0,0,0-4.24-1,7.18,7.18,0,0,0-4,1.24,3.67,3.67,0,0,0-1.69,3.23,4,4,0,0,0,2.12,2.92,8.32,8.32,0,0,0,3.79,1.11,8.56,8.56,0,0,0,4-.62A3.7,3.7,0,0,0,247.07,179.88Z"/>
          </g>
          <g>
            <path class="cls-2" d="M258.91,183.4c.14,2.78-2.19,5.5-5.85,5.5s-6.73-2.26-6.87-5,2.72-5,6.38-5S258.78,180.61,258.91,183.4Z"/>
            <path class="cls-3" d="M259,183.39a6.2,6.2,0,0,1-1.47,4.43,6.1,6.1,0,0,1-2,1.53,6.63,6.63,0,0,1-2.51.59,8.34,8.34,0,0,1-4.83-1.34,6.11,6.11,0,0,1-2.81-4.34,4.67,4.67,0,0,1,.52-2.63,5.44,5.44,0,0,1,1.7-1.92,8,8,0,0,1,4.6-1.4,8.29,8.29,0,0,1,4.48,1.26A5,5,0,0,1,259,183.39Zm-.21,0a3.87,3.87,0,0,0-2.33-3.44,8.41,8.41,0,0,0-4.23-.6,6.76,6.76,0,0,0-3.81,1.43,3.46,3.46,0,0,0-1.38,3.26,4.08,4.08,0,0,0,2.23,2.79,8.73,8.73,0,0,0,3.75,1,6.37,6.37,0,0,0,3.77-.87A4.21,4.21,0,0,0,258.81,183.4Z"/>
          </g>
        </g>
        <g>
          <path class="cls-2" d="M186.66,161.19c.13,2.67-2.31,4.83-5.44,4.83s-7-2.28-7.1-4.94,3.49-4.72,6.63-4.72S186.53,158.52,186.66,161.19Z"/>
          <path class="cls-3" d="M186.76,161.18a5.29,5.29,0,0,1-1.65,4.19,6.13,6.13,0,0,1-4.54,1.66,8.76,8.76,0,0,1-4.55-1.59,7.93,7.93,0,0,1-1.78-1.74,4.67,4.67,0,0,1-1-2.48,3.91,3.91,0,0,1,.82-2.54,6.4,6.4,0,0,1,1.85-1.61,9.13,9.13,0,0,1,4.45-1.22C183.56,155.81,186.5,158.19,186.76,161.18Zm-.2,0a4.25,4.25,0,0,0-2.15-3.45,6.44,6.44,0,0,0-3.95-.84,7.8,7.8,0,0,0-3.77,1.32c-1.08.73-1.9,1.85-1.73,2.87a4,4,0,0,0,2.19,2.61,10.12,10.12,0,0,0,3.59,1.25,6.56,6.56,0,0,0,3.71-.49A3.64,3.64,0,0,0,186.56,161.19Z"/>
        </g>
        <g>
          <path class="cls-2" d="M196,165a5.13,5.13,0,0,1-3.32,7.09c-3.15,1-8-.2-9.34-3.08s1.41-6.31,4.56-7.35A6.74,6.74,0,0,1,196,165Z"/>
          <path class="cls-3" d="M196.05,165a5.72,5.72,0,0,1-1.47,7.14,6.47,6.47,0,0,1-2.49,1.2,9.36,9.36,0,0,1-5.3-.36,8.45,8.45,0,0,1-2.38-1.28,5.8,5.8,0,0,1-1.81-2.16,4.61,4.61,0,0,1-.34-2.85,6.35,6.35,0,0,1,1.13-2.47,8.47,8.47,0,0,1,4.18-3,6.94,6.94,0,0,1,5,.41A7.37,7.37,0,0,1,196.05,165Zm-.19.09a5.51,5.51,0,0,0-3.47-3,6.68,6.68,0,0,0-4.48.17,7.27,7.27,0,0,0-3.4,2.76,3.65,3.65,0,0,0-.41,3.79,5.26,5.26,0,0,0,3.33,2.22,10.18,10.18,0,0,0,4.24.28,5.62,5.62,0,0,0,3.6-1.89A4.19,4.19,0,0,0,195.86,165.07Z"/>
        </g>
        <g>
          <path class="cls-2" d="M209.78,170.68c-.8,2.78-4.38,4.25-8,3.3s-5.88-4-5.08-6.75,4.39-4.25,8-3.3S210.59,167.9,209.78,170.68Z"/>
          <path class="cls-3" d="M209.88,170.71a6,6,0,0,1-3.18,3.66,7.66,7.66,0,0,1-5.1.64,8.09,8.09,0,0,1-4.53-2.72,5.37,5.37,0,0,1,2.67-8.86,8.67,8.67,0,0,1,5,0,7.84,7.84,0,0,1,4,2.74A5.35,5.35,0,0,1,209.88,170.71Zm-.2-.06a4.21,4.21,0,0,0-1.22-4.21,7.91,7.91,0,0,0-4-2,7.55,7.55,0,0,0-4.3.29,4.22,4.22,0,0,0-2.69,2.76,3.76,3.76,0,0,0,1.13,3.47,8,8,0,0,0,3.47,2,9.07,9.07,0,0,0,4.22.34A4.19,4.19,0,0,0,209.68,170.65Z"/>
        </g>
        <g>
          <path class="cls-2" d="M206.51,179.1c-.71,2.42-4,3.66-7.42,2.76s-5.58-3.58-4.88-6,4-3.65,7.42-2.76S207.21,176.68,206.51,179.1Z"/>
          <path class="cls-3" d="M206.61,179.13a5.29,5.29,0,0,1-3,3.26,7.44,7.44,0,0,1-4.68.5,8,8,0,0,1-4.21-2.38,6.19,6.19,0,0,1-1.27-2.22,4.47,4.47,0,0,1,0-2.66,4.52,4.52,0,0,1,1.51-2.11,6.09,6.09,0,0,1,2.19-1.06,8.7,8.7,0,0,1,4.59.12,7.73,7.73,0,0,1,3.75,2.44A4.73,4.73,0,0,1,206.61,179.13Zm-.2-.06a3.65,3.65,0,0,0-1.29-3.75,8.21,8.21,0,0,0-3.69-1.73,7.61,7.61,0,0,0-3.94.17,3.62,3.62,0,0,0-2.48,2.33,3.22,3.22,0,0,0,1.17,3,8.42,8.42,0,0,0,3.23,1.78,9.67,9.67,0,0,0,3.84.46A3.62,3.62,0,0,0,206.41,179.07Z"/>
        </g>
        <g>
          <path class="cls-2" d="M218.08,176.15c-.79,2.7-4.1,4.19-7.4,3.32s-5.32-3.77-4.53-6.48,4.1-4.2,7.39-3.33S218.87,173.44,218.08,176.15Z"/>
          <path class="cls-3" d="M218.18,176.17a6,6,0,0,1-2.86,3.58,6.85,6.85,0,0,1-4.83.75,7.14,7.14,0,0,1-4.24-2.71,5.4,5.4,0,0,1,2.61-8.52,7.62,7.62,0,0,1,4.74-.13,6.92,6.92,0,0,1,3.73,2.7A5.37,5.37,0,0,1,218.18,176.17Zm-.2,0a4.11,4.11,0,0,0-1-4,6.84,6.84,0,0,0-3.64-2,6.48,6.48,0,0,0-4,.38,4.15,4.15,0,0,0-2.42,2.69,3.7,3.7,0,0,0,.93,3.3,6.79,6.79,0,0,0,3.13,1.95,7.8,7.8,0,0,0,3.88.25A4.07,4.07,0,0,0,218,176.12Z"/>
        </g>
        <g>
          <path class="cls-2" d="M216.44,184.59c-.72,2.45-4,3.73-7.26,2.86s-5.39-3.57-4.67-6,4-3.73,7.25-2.86S217.15,182.15,216.44,184.59Z"/>
          <path class="cls-3" d="M216.54,184.62a5.38,5.38,0,0,1-2.92,3.29,7.11,7.11,0,0,1-4.64.56,7.45,7.45,0,0,1-4.13-2.42,5.2,5.2,0,0,1-1.15-4.85,5.15,5.15,0,0,1,3.59-3.19,8.15,8.15,0,0,1,4.54.05,7.33,7.33,0,0,1,3.66,2.47A4.82,4.82,0,0,1,216.54,184.62Zm-.2-.05a3.7,3.7,0,0,0-1.17-3.75,7.67,7.67,0,0,0-3.6-1.74,7,7,0,0,0-3.86.22,3.64,3.64,0,0,0-2.4,2.37,3.23,3.23,0,0,0,1.07,3,7.93,7.93,0,0,0,3.12,1.79,9,9,0,0,0,3.77.4A3.65,3.65,0,0,0,216.34,184.57Z"/>
        </g>
        <g>
          <path class="cls-2" d="M227.16,180.32c-.82,2.82-4.15,4.4-7.45,3.53s-5.3-3.86-4.48-6.68,4.15-4.4,7.45-3.53S228,177.5,227.16,180.32Z"/>
          <path class="cls-3" d="M227.26,180.35a6.28,6.28,0,0,1-2.83,3.7,6.73,6.73,0,0,1-4.9.83,7,7,0,0,1-4.28-2.82,5.71,5.71,0,0,1,2.67-8.73,7.46,7.46,0,0,1,4.82-.21,6.76,6.76,0,0,1,3.75,2.8A5.61,5.61,0,0,1,227.26,180.35Zm-.2-.06a4.27,4.27,0,0,0-.92-4.11,6.61,6.61,0,0,0-3.66-2.05,6.29,6.29,0,0,0-4,.45,4.42,4.42,0,0,0-2.43,2.83,3.92,3.92,0,0,0,.88,3.42,6.51,6.51,0,0,0,3.13,2A7.39,7.39,0,0,0,224,183,4.22,4.22,0,0,0,227.06,180.29Z"/>
        </g>
        <g>
          <path class="cls-2" d="M238.8,188.19c-.89,3.08-4.53,4.8-8.13,3.85s-5.8-4.21-4.9-7.29,4.53-4.8,8.13-3.85S239.7,185.11,238.8,188.19Z"/>
          <path class="cls-3" d="M238.9,188.22a6.71,6.71,0,0,1-3.11,4,7.27,7.27,0,0,1-5.3.86,7.66,7.66,0,0,1-4.63-3,6.13,6.13,0,0,1,2.87-9.41,8,8,0,0,1,5.23-.24,7.36,7.36,0,0,1,4.09,3A6.06,6.06,0,0,1,238.9,188.22Zm-.2-.06a4.72,4.72,0,0,0-1-4.5,7.2,7.2,0,0,0-4-2.27,6.86,6.86,0,0,0-4.43.48,4.88,4.88,0,0,0-2.7,3.12,4.34,4.34,0,0,0,1,3.81A7,7,0,0,0,231,191a8,8,0,0,0,4.35.15A4.72,4.72,0,0,0,238.7,188.16Z"/>
        </g>
        <g>
          <path class="cls-2" d="M226.56,188.5c-.71,2.44-3.82,3.75-6.95,2.93s-5.08-3.48-4.37-5.92,3.83-3.76,6.95-2.94S227.27,186.05,226.56,188.5Z"/>
          <path class="cls-3" d="M226.66,188.53c-.71,2.78-4.17,4.65-7.24,3.93a7,7,0,0,1-4-2.45,5.23,5.23,0,0,1-1-4.74,5.16,5.16,0,0,1,3.4-3.19,7.49,7.49,0,0,1,4.42,0,6.79,6.79,0,0,1,3.51,2.47A4.86,4.86,0,0,1,226.66,188.53Zm-.2-.06a3.67,3.67,0,0,0-1-3.67,6.81,6.81,0,0,0-3.43-1.73,6.24,6.24,0,0,0-3.69.29,3.61,3.61,0,0,0-2.26,2.38,3.2,3.2,0,0,0,.95,2.93,6.88,6.88,0,0,0,2.93,1.76,8.08,8.08,0,0,0,3.61.33A3.6,3.6,0,0,0,226.46,188.47Z"/>
        </g>
        <g>
          <path class="cls-2" d="M251.52,189.32c.12,2.4-2.54,4-6.21,4s-7.39-1.2-7.51-3.59a6.63,6.63,0,0,1,6.22-6.14C247.69,183.61,251.4,186.93,251.52,189.32Z"/>
          <path class="cls-3" d="M251.62,189.32a3.36,3.36,0,0,1-.67,2.29,5.68,5.68,0,0,1-1.88,1.63,8.57,8.57,0,0,1-2.35.89,11.46,11.46,0,0,1-7.34-.94,5,5,0,0,1-2.07-1.95,3.28,3.28,0,0,1-.39-1.53,5.46,5.46,0,0,1,.22-1.38,7.92,7.92,0,0,1,3-4.06,6.35,6.35,0,0,1,4.82-1.11,8.67,8.67,0,0,1,4.24,2.21,10.42,10.42,0,0,1,1.54,1.78A4.7,4.7,0,0,1,251.62,189.32Zm-.2,0a3.94,3.94,0,0,0-.84-2.06,7.14,7.14,0,0,0-1.65-1.55,9.17,9.17,0,0,0-2-1,7.13,7.13,0,0,0-2.11-.5c-2.85-.39-5.46,2-6.07,4.56a2.89,2.89,0,0,0-.07.91,1.28,1.28,0,0,0,.23.66,3.12,3.12,0,0,0,1.39,1,14.17,14.17,0,0,0,4.07.93,13.29,13.29,0,0,0,4.27-.06,4.14,4.14,0,0,0,1.91-.94A2.6,2.6,0,0,0,251.42,189.33Z"/>
        </g>
      </g>
      <g>
        <g>
          <path class="cls-3" d="M205.88,112.67c18.21,3.4,48.72,14.5,65.22,30.81,6.64,6.59,14.18,16.64,23,16.31,4-.15,10.58-3.1,11.15-11.86,1.44-22.24-9.78-33.94-34.63-47.28-28.81-15.48-73.77-10.22-76.44,1.81"/>
          <path class="cls-3" d="M205.89,112.62A125.21,125.21,0,0,1,222,116.47c5.28,1.59,10.48,3.46,15.59,5.56a135.57,135.57,0,0,1,14.92,7.2,96.29,96.29,0,0,1,13.78,9.23,74.09,74.09,0,0,1,6.14,5.61l5.7,6a54.12,54.12,0,0,0,6.06,5.48,18.61,18.61,0,0,0,7.16,3.56,10.89,10.89,0,0,0,3.94.14,11.54,11.54,0,0,0,3.74-1.29,11.11,11.11,0,0,0,5.08-5.94c1-2.51.95-5.3,1-8a42.87,42.87,0,0,0-.75-8.16A34.33,34.33,0,0,0,297.61,121a55.9,55.9,0,0,0-12.1-11.07,134.35,134.35,0,0,0-14.13-8.47,75.61,75.61,0,0,0-15.21-6.12,104.08,104.08,0,0,0-32.53-3.75,76.75,76.75,0,0,0-16.25,2.26,36.5,36.5,0,0,0-7.67,2.87,15.27,15.27,0,0,0-3.35,2.34,7.08,7.08,0,0,0-2.13,3.41.06.06,0,0,1-.07,0s0,0,0-.06a7.24,7.24,0,0,1,2.09-3.55,16.12,16.12,0,0,1,3.33-2.48,35.28,35.28,0,0,1,7.69-3.1,77.51,77.51,0,0,1,16.36-2.54,105.23,105.23,0,0,1,16.56.49,92,92,0,0,1,16.27,3.19,70.63,70.63,0,0,1,15.29,6.38,139.38,139.38,0,0,1,14,8.75,59.66,59.66,0,0,1,12.13,11.19,34.92,34.92,0,0,1,6.95,14.93,43.89,43.89,0,0,1,.84,8.25c0,1.39,0,2.77-.11,4.15a15,15,0,0,1-.83,4.13,11.84,11.84,0,0,1-5.34,6.41,12.2,12.2,0,0,1-4,1.44,11.3,11.3,0,0,1-4.26-.12,19.54,19.54,0,0,1-7.54-3.69,54.65,54.65,0,0,1-6.2-5.56l-5.71-6a70.22,70.22,0,0,0-6.09-5.48c-8.61-6.77-18.37-12-28.42-16.36a169.86,169.86,0,0,0-31.3-10.19.06.06,0,0,1,0-.07S205.86,112.62,205.89,112.62Z"/>
        </g>
        <g>
          <g>
            <ellipse class="cls-2" cx="217.72" cy="93.89" rx="4.22" ry="6" transform="translate(112.17 306.2) rotate(-86.89)"/>
            <path class="cls-3" d="M223.82,93.93a4.56,4.56,0,0,1-1.89,3.74,6.87,6.87,0,0,1-4.19,1.48,7.72,7.72,0,0,1-4.37-1.22,6.31,6.31,0,0,1-1.71-1.67,4.41,4.41,0,0,1-.78-2.38,3.93,3.93,0,0,1,.79-2.37,5.06,5.06,0,0,1,1.77-1.5,7.91,7.91,0,0,1,4.24-.86,7.61,7.61,0,0,1,3.95,1.4A4.84,4.84,0,0,1,223.82,93.93Zm-.21,0a3.61,3.61,0,0,0-2.21-3,8.14,8.14,0,0,0-3.75-.73,7,7,0,0,0-3.53,1,3,3,0,0,0-1.57,2.63,3.24,3.24,0,0,0,1.9,2.35,8.54,8.54,0,0,0,3.34.9,9,9,0,0,0,3.58-.36A3.08,3.08,0,0,0,223.61,93.94Z"/>
          </g>
          <g>
            <path class="cls-2" d="M234.16,95.33c.1,2.54-3.16,4.07-6,4s-5.58-2-5.68-4.57,2.17-5.81,5-5.79S234.05,92.79,234.16,95.33Z"/>
            <path class="cls-3" d="M234.26,95.32A4.43,4.43,0,0,1,232,99.08a7.47,7.47,0,0,1-4.51,1.31,6.65,6.65,0,0,1-4.46-2,5.7,5.7,0,0,1-1.29-2.24,5,5,0,0,1,0-2.57,7.26,7.26,0,0,1,2.55-4,5.34,5.34,0,0,1,2.18-1,4.57,4.57,0,0,1,2.41.18,8.44,8.44,0,0,1,3.52,2.72A7.94,7.94,0,0,1,234.26,95.32Zm-.21,0a5.55,5.55,0,0,0-2-3.58,9,9,0,0,0-3.52-2,3.54,3.54,0,0,0-3.4.89,5.71,5.71,0,0,0-1.77,3.25,3.11,3.11,0,0,0,1.13,3,6.18,6.18,0,0,0,3.19,1.44,10,10,0,0,0,3.83-.23,4.24,4.24,0,0,0,1.73-.94A2.54,2.54,0,0,0,234.05,95.33Z"/>
          </g>
          <g>
            <path class="cls-2" d="M245,96.06c.1,2.54-3.15,4.07-6,4s-5.58-2-5.68-4.57,2.17-5.81,5-5.78S244.85,93.52,245,96.06Z"/>
            <path class="cls-3" d="M245.06,96.06a4.44,4.44,0,0,1-2.26,3.76,7.48,7.48,0,0,1-4.5,1.3,6.65,6.65,0,0,1-4.46-2,5.7,5.7,0,0,1-1.29-2.24,5,5,0,0,1,0-2.57,7.2,7.2,0,0,1,2.55-4,5.23,5.23,0,0,1,2.18-1,4.42,4.42,0,0,1,2.4.19,8.31,8.31,0,0,1,3.53,2.71A8,8,0,0,1,245.06,96.06Zm-.21,0a5.52,5.52,0,0,0-2-3.58,8.92,8.92,0,0,0-3.51-2,3.55,3.55,0,0,0-3.41.89,5.78,5.78,0,0,0-1.76,3.25,3.11,3.11,0,0,0,1.13,3A6.18,6.18,0,0,0,238.49,99a10,10,0,0,0,3.82-.23,4.1,4.1,0,0,0,1.74-.94A2.54,2.54,0,0,0,244.85,96.06Z"/>
          </g>
          <g>
            <path class="cls-2" d="M255.73,97.24c-.21,2.36-3,4-6.21,3.57s-5.66-2.63-5.45-5,3-4,6.21-3.57S255.94,94.87,255.73,97.24Z"/>
            <path class="cls-3" d="M255.83,97.25a4.72,4.72,0,0,1-2.23,3.51,6.68,6.68,0,0,1-4.3,1.07,7.32,7.32,0,0,1-4.18-1.75,5.13,5.13,0,0,1-1.88-4.33,4.14,4.14,0,0,1,1-2.23,5.49,5.49,0,0,1,1.88-1.33,7.84,7.84,0,0,1,4.29-.45,7.32,7.32,0,0,1,3.73,1.87A4.78,4.78,0,0,1,255.83,97.25Zm-.21,0A3.6,3.6,0,0,0,253.88,94a7.63,7.63,0,0,0-3.59-1.17,6.58,6.58,0,0,0-3.56.64,3.07,3.07,0,0,0-1.82,2.48,3.18,3.18,0,0,0,1.52,2.57,8,8,0,0,0,3.15,1.29,8.45,8.45,0,0,0,3.54,0A3.14,3.14,0,0,0,255.62,97.23Z"/>
          </g>
          <g>
            <path class="cls-2" d="M265.54,101.3c-.22,2.44-3.06,4.09-6.34,3.69s-5.77-2.7-5.56-5.13,3.06-4.09,6.35-3.69S265.76,98.86,265.54,101.3Z"/>
            <path class="cls-3" d="M265.64,101.31a4.84,4.84,0,0,1-2.26,3.61A6.86,6.86,0,0,1,259,106a7.43,7.43,0,0,1-4.27-1.81,5.28,5.28,0,0,1-1.9-4.43,4.24,4.24,0,0,1,1-2.27,5.43,5.43,0,0,1,1.91-1.38,7.89,7.89,0,0,1,4.38-.47A7.33,7.33,0,0,1,264,97.58,4.91,4.91,0,0,1,265.64,101.31Zm-.2,0a3.71,3.71,0,0,0-1.77-3.37A7.67,7.67,0,0,0,260,96.7a6.66,6.66,0,0,0-3.66.66,3.2,3.2,0,0,0-1.86,2.57,3.32,3.32,0,0,0,1.55,2.68,8.07,8.07,0,0,0,3.22,1.33,8.44,8.44,0,0,0,3.64,0A3.27,3.27,0,0,0,265.44,101.29Z"/>
          </g>
          <g>
            <ellipse class="cls-2" cx="268.68" cy="104.98" rx="4.63" ry="5.74" transform="translate(138.34 362.31) rotate(-84.48)"/>
            <path class="cls-3" d="M274.51,105a5,5,0,0,1-1.59,3.92,6.13,6.13,0,0,1-4.2,1.71,6.86,6.86,0,0,1-4.41-1.47,5.61,5.61,0,0,1-2.2-4.21,4.88,4.88,0,0,1,2.26-4.06,6.94,6.94,0,0,1,4.26-1.09C271.54,100,274.26,102.2,274.51,105Zm-.2,0a4,4,0,0,0-2-3.25,6.85,6.85,0,0,0-3.7-.91,5.71,5.71,0,0,0-3.43,1.15,3.32,3.32,0,0,0-1.38,2.88,3.6,3.6,0,0,0,1.75,2.61,6.86,6.86,0,0,0,3.23,1,7.08,7.08,0,0,0,3.49-.53A3.34,3.34,0,0,0,274.31,105Z"/>
          </g>
          <g>
            <path class="cls-2" d="M282.86,110.05c.1,2.68-2.53,4.83-5.88,4.8s-6.16-2.22-6.27-4.9,2.53-4.83,5.88-4.8S282.75,107.37,282.86,110.05Z"/>
            <path class="cls-3" d="M283,110a5.2,5.2,0,0,1-1.72,4.1,6.57,6.57,0,0,1-4.42,1.75,7.32,7.32,0,0,1-4.61-1.52,5.78,5.78,0,0,1-2.34-4.39,5.06,5.06,0,0,1,2.39-4.22,7.33,7.33,0,0,1,4.47-1.13,7.17,7.17,0,0,1,4.15,1.66A5.51,5.51,0,0,1,283,110Zm-.21,0a4.14,4.14,0,0,0-2.13-3.41,7.24,7.24,0,0,0-3.91-1,6.12,6.12,0,0,0-3.66,1.19,3.51,3.51,0,0,0-1.5,3,3.78,3.78,0,0,0,1.88,2.77,7.48,7.48,0,0,0,3.44,1.11,7.61,7.61,0,0,0,3.72-.57A3.54,3.54,0,0,0,282.75,110.05Z"/>
          </g>
          <g>
            <path class="cls-2" d="M291.8,115.94c.11,2.68-2.53,4.83-5.88,4.8s-6.16-2.22-6.27-4.9,2.53-4.83,5.88-4.8S291.69,113.26,291.8,115.94Z"/>
            <path class="cls-3" d="M291.9,115.93a5.2,5.2,0,0,1-1.72,4.1,6.55,6.55,0,0,1-4.42,1.75,7.28,7.28,0,0,1-4.61-1.52,5.77,5.77,0,0,1-2.34-4.38,5.08,5.08,0,0,1,2.39-4.23,7.4,7.4,0,0,1,4.47-1.13,7.14,7.14,0,0,1,4.15,1.66A5.51,5.51,0,0,1,291.9,115.93Zm-.21,0a4.14,4.14,0,0,0-2.13-3.41,7.24,7.24,0,0,0-3.91-1,6.12,6.12,0,0,0-3.66,1.19,3.51,3.51,0,0,0-1.5,3,3.78,3.78,0,0,0,1.88,2.77,7.37,7.37,0,0,0,3.45,1.11,7.59,7.59,0,0,0,3.71-.57A3.52,3.52,0,0,0,291.69,115.94Z"/>
          </g>
          <g>
            <path class="cls-2" d="M299,123.11c.1,2.68-2.53,4.83-5.88,4.8s-6.16-2.22-6.27-4.9,2.53-4.83,5.88-4.8S298.85,120.43,299,123.11Z"/>
            <path class="cls-3" d="M299.06,123.1a5.2,5.2,0,0,1-1.72,4.1,6.57,6.57,0,0,1-4.42,1.75,7.31,7.31,0,0,1-4.61-1.51,5.81,5.81,0,0,1-2.34-4.39,5.08,5.08,0,0,1,2.39-4.23,7.4,7.4,0,0,1,4.47-1.13,7.17,7.17,0,0,1,4.15,1.66A5.51,5.51,0,0,1,299.06,123.1Zm-.21,0a4.14,4.14,0,0,0-2.13-3.41,7.24,7.24,0,0,0-3.91-1,6.12,6.12,0,0,0-3.66,1.19,3.51,3.51,0,0,0-1.5,3,3.78,3.78,0,0,0,1.88,2.77,7.25,7.25,0,0,0,3.44,1.11,7.63,7.63,0,0,0,3.72-.57A3.52,3.52,0,0,0,298.85,123.11Z"/>
          </g>
          <g>
            <path class="cls-2" d="M304.09,131.12c.1,2.68-2.53,4.84-5.88,4.81s-6.16-2.22-6.27-4.9,2.53-4.83,5.88-4.81S304,128.44,304.09,131.12Z"/>
            <path class="cls-3" d="M304.19,131.12a5.2,5.2,0,0,1-1.72,4.1,6.57,6.57,0,0,1-4.42,1.75,7.32,7.32,0,0,1-4.61-1.52,5.78,5.78,0,0,1-2.34-4.39,5.06,5.06,0,0,1,2.39-4.22,7.33,7.33,0,0,1,4.47-1.13,7.16,7.16,0,0,1,4.15,1.65A5.55,5.55,0,0,1,304.19,131.12Zm-.21,0a4.12,4.12,0,0,0-2.13-3.41,7.33,7.33,0,0,0-3.91-1,6.19,6.19,0,0,0-3.66,1.2,3.51,3.51,0,0,0-1.5,3,3.78,3.78,0,0,0,1.88,2.77,7.48,7.48,0,0,0,3.44,1.11,7.63,7.63,0,0,0,3.72-.57A3.54,3.54,0,0,0,304,131.13Z"/>
          </g>
          <g>
            <path class="cls-2" d="M304.88,139.65c.1,2.38-2.18,4.29-5.1,4.27s-5.34-2-5.44-4.36,2.19-4.29,5.1-4.27S304.79,137.26,304.88,139.65Z"/>
            <path class="cls-3" d="M305,139.64a4.78,4.78,0,0,1-1.43,3.68,5.67,5.67,0,0,1-3.91,1.64,6.35,6.35,0,0,1-4.12-1.4,5.25,5.25,0,0,1-2-4,4.6,4.6,0,0,1,2.1-3.8,6.39,6.39,0,0,1,4-1A5.77,5.77,0,0,1,305,139.64Zm-.21,0a3.61,3.61,0,0,0-1.84-3,6.15,6.15,0,0,0-3.4-.84,5.23,5.23,0,0,0-3.14,1.08,3.05,3.05,0,0,0-1.22,2.63,3.25,3.25,0,0,0,1.59,2.37,6.33,6.33,0,0,0,2.93,1,6.44,6.44,0,0,0,3.19-.46A3,3,0,0,0,304.78,139.65Z"/>
          </g>
        </g>
        <g>
          <g>
            <ellipse class="cls-2" cx="206.44" cy="98.45" rx="4.41" ry="5.85" transform="translate(93.65 297.43) rotate(-85.95)"/>
            <path class="cls-3" d="M212.39,98.5a4.75,4.75,0,0,1-1.73,3.82,6.48,6.48,0,0,1-4.19,1.6,7.27,7.27,0,0,1-4.38-1.35,5.33,5.33,0,0,1-2.33-4.13,4.27,4.27,0,0,1,.7-2.35,5.25,5.25,0,0,1,1.69-1.6,7.39,7.39,0,0,1,4.25-1A7.12,7.12,0,0,1,210.33,95,5.1,5.1,0,0,1,212.39,98.5Zm-.21,0a3.73,3.73,0,0,0-2.09-3.12,7.49,7.49,0,0,0-3.72-.82,6.19,6.19,0,0,0-3.47,1.07,3.14,3.14,0,0,0-1.47,2.75,3.36,3.36,0,0,0,1.82,2.47,7.6,7.6,0,0,0,3.27,1,8,8,0,0,0,3.53-.44A3.19,3.19,0,0,0,212.18,98.5Z"/>
          </g>
          <g>
            <path class="cls-2" d="M221.81,101.81c.11,2.68-2.42,4.83-5.65,4.81s-5.93-2.22-6-4.9,2.42-4.84,5.65-4.81S221.7,99.13,221.81,101.81Z"/>
            <path class="cls-3" d="M221.91,101.8a5.24,5.24,0,0,1-1.59,4.06,6.2,6.2,0,0,1-4.31,1.8,7,7,0,0,1-4.52-1.57,5.81,5.81,0,0,1-2.21-4.34,5.14,5.14,0,0,1,2.25-4.19,7,7,0,0,1,4.38-1.17A6.34,6.34,0,0,1,221.91,101.8Zm-.2,0a4.15,4.15,0,0,0-2-3.38,6.78,6.78,0,0,0-3.79-1,5.76,5.76,0,0,0-3.54,1.21,3.56,3.56,0,0,0-1.39,3,3.83,3.83,0,0,0,1.78,2.77,7.42,7.42,0,0,0,6.91.52A3.56,3.56,0,0,0,221.71,101.81Z"/>
          </g>
          <g>
            <path class="cls-2" d="M230.42,105.11c.11,2.68-2.43,4.83-5.65,4.81s-5.93-2.22-6-4.9,2.53-5,5.76-5S230.31,102.43,230.42,105.11Z"/>
            <path class="cls-3" d="M230.52,105.1a5.25,5.25,0,0,1-1.62,4.09,6.18,6.18,0,0,1-4.36,1.76,6.89,6.89,0,0,1-4.54-1.63,5.73,5.73,0,0,1-2.11-4.43,5.37,5.37,0,0,1,2.34-4.16,6.81,6.81,0,0,1,4.39-1.25A6.39,6.39,0,0,1,230.52,105.1Zm-.21,0a4.38,4.38,0,0,0-1.95-3.48,6.23,6.23,0,0,0-3.77-1.1,5.61,5.61,0,0,0-3.53,1.28,3.82,3.82,0,0,0-1.49,3.07,3.72,3.72,0,0,0,1.72,2.82,6.79,6.79,0,0,0,3.32,1.16,6.92,6.92,0,0,0,3.62-.57A3.54,3.54,0,0,0,230.31,105.11Z"/>
          </g>
          <g>
            <path class="cls-2" d="M239.51,103.24c.1,2.56-2.23,4.62-5.2,4.59s-5.47-2.11-5.57-4.67,2.23-4.62,5.2-4.6S239.41,100.68,239.51,103.24Z"/>
            <path class="cls-3" d="M239.62,103.24a5.19,5.19,0,0,1-1.4,3.86,5.68,5.68,0,0,1-4.06,1.78,6.33,6.33,0,0,1-4.26-1.55,5.64,5.64,0,0,1-2-4.14,5,5,0,0,1,2-4A6.31,6.31,0,0,1,234.07,98,6,6,0,0,1,239.62,103.24Zm-.21,0a4,4,0,0,0-1.84-3.2,6.15,6.15,0,0,0-3.53-1,5.09,5.09,0,0,0-3.24,1.18,3.4,3.4,0,0,0-1.23,2.85,3.63,3.63,0,0,0,1.62,2.59,6,6,0,0,0,3,1.07,6.08,6.08,0,0,0,3.3-.56A3.35,3.35,0,0,0,239.41,103.24Z"/>
          </g>
          <g>
            <path class="cls-2" d="M249.49,106.34c.11,2.8-2.62,5-6.11,5s-6.39-2.31-6.5-5.11,2.62-5,6.1-5S249.38,103.54,249.49,106.34Z"/>
            <path class="cls-3" d="M249.59,106.33a5.43,5.43,0,0,1-1.78,4.26,6.87,6.87,0,0,1-4.58,1.81,7.64,7.64,0,0,1-4.78-1.59,6,6,0,0,1-2.41-4.54,5.26,5.26,0,0,1,2.45-4.38,7.67,7.67,0,0,1,4.64-1.19,7.4,7.4,0,0,1,4.3,1.72A5.76,5.76,0,0,1,249.59,106.33Zm-.21,0a4.34,4.34,0,0,0-2.2-3.56,7.42,7.42,0,0,0-4.08-1,6.38,6.38,0,0,0-3.82,1.25,3.71,3.71,0,0,0-1.56,3.2,4,4,0,0,0,1.95,2.94,7.55,7.55,0,0,0,3.61,1.16,7.66,7.66,0,0,0,3.87-.62A3.74,3.74,0,0,0,249.38,106.34Z"/>
          </g>
          <g>
            <path class="cls-2" d="M260.1,108.25c.12,2.86-2.61,5.16-6.1,5.13s-6.39-2.37-6.5-5.23,2.61-5.15,6.09-5.12S260,105.39,260.1,108.25Z"/>
            <path class="cls-3" d="M260.21,108.25a5.53,5.53,0,0,1-1.75,4.31,6.81,6.81,0,0,1-4.62,1.86,7.58,7.58,0,0,1-4.81-1.64,6.15,6.15,0,0,1-2.37-4.59,5.35,5.35,0,0,1,2.41-4.44,7.48,7.48,0,0,1,4.67-1.24C257,102.69,260,105.13,260.21,108.25Zm-.21,0a4.47,4.47,0,0,0-2.19-3.63,7.22,7.22,0,0,0-4.09-1.07,6.27,6.27,0,0,0-3.84,1.28,3.86,3.86,0,0,0-1.55,3.28,4.13,4.13,0,0,0,1.95,3,7.29,7.29,0,0,0,3.62,1.2,7.44,7.44,0,0,0,3.89-.66A3.82,3.82,0,0,0,260,108.26Z"/>
          </g>
          <g>
            <path class="cls-2" d="M269.93,113.5c.12,2.86-2.61,5.16-6.09,5.13s-6.4-2.37-6.51-5.23,2.62-5.15,6.1-5.12S269.82,110.64,269.93,113.5Z"/>
            <path class="cls-3" d="M270,113.5a5.53,5.53,0,0,1-1.75,4.31,6.74,6.74,0,0,1-4.61,1.86,7.56,7.56,0,0,1-4.81-1.64,6.11,6.11,0,0,1-2.38-4.59A5.37,5.37,0,0,1,258.9,109a7.52,7.52,0,0,1,4.67-1.24C266.78,108,269.78,110.38,270,113.5Zm-.21,0a4.47,4.47,0,0,0-2.19-3.63,7.22,7.22,0,0,0-4.09-1.07,6.35,6.35,0,0,0-3.84,1.28,3.84,3.84,0,0,0-1.54,3.28,4.09,4.09,0,0,0,1.94,3,7.4,7.4,0,0,0,3.62,1.21,7.55,7.55,0,0,0,3.89-.67A3.82,3.82,0,0,0,269.83,113.51Z"/>
          </g>
          <g>
            <path class="cls-2" d="M277.93,118.74c.12,2.86-2.59,5.8-6.07,5.77s-5.7-2.14-5.81-5a5.84,5.84,0,0,1,5.72-6C275.25,113.54,277.82,115.88,277.93,118.74Z"/>
            <path class="cls-3" d="M278,118.74a6.71,6.71,0,0,1-1.45,4.41,6.18,6.18,0,0,1-4.38,2.4,6.85,6.85,0,0,1-4.91-1.47,5.91,5.91,0,0,1-2.09-4.71,6.77,6.77,0,0,1,2-4.55,6.11,6.11,0,0,1,4.49-1.82,6.84,6.84,0,0,1,4.34,1.72A6,6,0,0,1,278,118.74Zm-.21,0a4.55,4.55,0,0,0-2.07-3.68,6.76,6.76,0,0,0-4.06-1,4.91,4.91,0,0,0-3.51,1.72,5.16,5.16,0,0,0-1.3,3.59,3.9,3.9,0,0,0,1.68,3.1,6.77,6.77,0,0,0,7.24-.1A4.49,4.49,0,0,0,277.83,118.74Z"/>
          </g>
          <g>
            <path class="cls-2" d="M286.66,125.06c.1,2.56-3,5.58-6.08,5.56s-5.7-2.12-5.8-4.68a5.46,5.46,0,0,1,5.28-5.46C283.17,120.5,286.56,122.5,286.66,125.06Z"/>
            <path class="cls-3" d="M286.77,125.06a6.59,6.59,0,0,1-1.56,4.16,6.35,6.35,0,0,1-4.12,2.42,6.8,6.8,0,0,1-4.74-1.28A5.66,5.66,0,0,1,274,126a6.13,6.13,0,0,1,1.93-4.39,5.7,5.7,0,0,1,4.34-1.66,8.22,8.22,0,0,1,4.17,1.55A5.12,5.12,0,0,1,286.77,125.06Zm-.21,0a3.9,3.9,0,0,0-2.4-3.18,8.54,8.54,0,0,0-4-.87,4.78,4.78,0,0,0-4.57,4.92,3.71,3.71,0,0,0,1.9,2.72,6.47,6.47,0,0,0,3.4.9,7.08,7.08,0,0,0,3.52-1.15A4.29,4.29,0,0,0,286.56,125.06Z"/>
          </g>
          <g>
            <path class="cls-2" d="M293.8,134.54c-1.16,2.5-4.46,3.47-7.37,2.18s-4.32-4.37-3.16-6.87,4.46-3.47,7.36-2.17S295,132,293.8,134.54Z"/>
            <path class="cls-3" d="M293.89,134.59a5.92,5.92,0,0,1-3.15,3,6.19,6.19,0,0,1-4.69.05,6.53,6.53,0,0,1-3.55-3.29,5.62,5.62,0,0,1,0-4.9,5.53,5.53,0,0,1,3.78-2.85,6.9,6.9,0,0,1,4.51.53A5.91,5.91,0,0,1,293.89,134.59Zm-.19-.09a4,4,0,0,0-.25-3.93,6.25,6.25,0,0,0-3.07-2.43,5.74,5.74,0,0,0-3.74-.18,4,4,0,0,0-2.61,2.25,3.6,3.6,0,0,0,.32,3.25,6.14,6.14,0,0,0,2.54,2.32,7,7,0,0,0,3.57.77A3.9,3.9,0,0,0,293.7,134.5Z"/>
          </g>
          <g>
            <ellipse class="cls-2" cx="291.21" cy="141.92" rx="4.98" ry="5.77" transform="translate(53.58 362.09) rotate(-68.8)"/>
            <path class="cls-3" d="M296.57,144.31a5.92,5.92,0,0,1-3.15,3.05,6.23,6.23,0,0,1-4.69.06,6.55,6.55,0,0,1-3.55-3.3,5.65,5.65,0,0,1,0-4.9,5.57,5.57,0,0,1,3.79-2.85,7,7,0,0,1,4.51.53C296.26,138.21,297.75,141.63,296.57,144.31Zm-.19-.09a4,4,0,0,0-.26-3.93,6.18,6.18,0,0,0-3.06-2.43,5.83,5.83,0,0,0-3.75-.18,4,4,0,0,0-2.61,2.25,3.66,3.66,0,0,0,.32,3.25,6.16,6.16,0,0,0,2.55,2.32,6.89,6.89,0,0,0,3.57.77A3.86,3.86,0,0,0,296.38,144.22Z"/>
          </g>
          <g>
            <ellipse class="cls-2" cx="297.81" cy="148.92" rx="4.97" ry="5.11" transform="translate(117 428.52) rotate(-83.68)"/>
            <path class="cls-3" d="M302.56,151a6.29,6.29,0,0,1-2.76,3.07,5.28,5.28,0,0,1-4.47.31,5.6,5.6,0,0,1-3.24-3.34,5.89,5.89,0,0,1,.3-4.59,5.83,5.83,0,0,1,7.69-2.58,5.21,5.21,0,0,1,2.7,3.15A5.73,5.73,0,0,1,302.56,151Zm-.19-.09a4.1,4.1,0,0,0,0-3.72,4.94,4.94,0,0,0-2.7-2.36,4.62,4.62,0,0,0-3.43,0,4.24,4.24,0,0,0-2.33,2.3,3.86,3.86,0,0,0,.1,3.11,4.77,4.77,0,0,0,2.16,2.19,5.34,5.34,0,0,0,3.25.56A4,4,0,0,0,302.37,151Z"/>
          </g>
        </g>
        <g>
          <path class="cls-2" d="M204.1,102.51c1,2.42-.45,5.14-3.27,6.09s-5.93-.26-7-2.68.45-5.14,3.28-6.08S203.09,100.09,204.1,102.51Z"/>
          <path class="cls-3" d="M204.2,102.47a5.66,5.66,0,0,1,.14,4.2,4.64,4.64,0,0,1-3.44,2.81,7.2,7.2,0,0,1-4.28-.62,6.76,6.76,0,0,1-3.27-2.71,4.43,4.43,0,0,1-.6-2.25,4.81,4.81,0,0,1,.62-2.31A6,6,0,0,1,197,98.72a6.23,6.23,0,0,1,2.31-.21,5.43,5.43,0,0,1,2.16.73A6.94,6.94,0,0,1,204.2,102.47Zm-.2.08a3.54,3.54,0,0,0-3-2,8,8,0,0,0-3.34.31,5.1,5.1,0,0,0-2.6,1.76,3.87,3.87,0,0,0-.65,3.08,3.56,3.56,0,0,0,2.44,2.52,5.08,5.08,0,0,0,3.55-.41,9.34,9.34,0,0,0,2.8-1.83,3.44,3.44,0,0,0,.93-1.55A2.78,2.78,0,0,0,204,102.55Z"/>
        </g>
        <g>
          <g>
            <path class="cls-2" d="M213.82,108.43c.11,2.56-2.38,4.62-5.54,4.59s-5.82-2.12-5.92-4.68,2.38-4.62,5.55-4.59S213.72,105.87,213.82,108.43Z"/>
            <path class="cls-3" d="M213.93,108.43a5,5,0,0,1-1.6,3.92,6.11,6.11,0,0,1-4.2,1.71,6.87,6.87,0,0,1-4.4-1.47,5.57,5.57,0,0,1-2.2-4.22,4.89,4.89,0,0,1,2.25-4.05,7,7,0,0,1,4.26-1.09C211,103.41,213.67,105.6,213.93,108.43Zm-.21,0a3.93,3.93,0,0,0-2-3.24,6.76,6.76,0,0,0-3.7-.91,5.71,5.71,0,0,0-3.44,1.14,3.36,3.36,0,0,0-1.38,2.89,3.6,3.6,0,0,0,1.75,2.61,7,7,0,0,0,3.23,1,7.1,7.1,0,0,0,3.5-.53A3.35,3.35,0,0,0,213.72,108.43Z"/>
          </g>
          <g>
            <path class="cls-2" d="M223.28,109.26c1.13,2.38-.29,5.2-3.18,6.31s-6.13.08-7.26-2.3.3-5.2,3.18-6.31S222.15,106.88,223.28,109.26Z"/>
            <path class="cls-3" d="M223.37,109.21a5.1,5.1,0,0,1,.16,4.23,5.79,5.79,0,0,1-3.26,3.18,6.7,6.7,0,0,1-4.65.13,5.93,5.93,0,0,1-3.54-3.12,4.92,4.92,0,0,1,.41-4.6,6.46,6.46,0,0,1,10.88.18Zm-.18.09a4.16,4.16,0,0,0-3.05-2.31,6.49,6.49,0,0,0-3.76.4,5.2,5.2,0,0,0-2.71,2.33,3.35,3.35,0,0,0-.07,3.19,3.87,3.87,0,0,0,2.61,1.85,6.5,6.5,0,0,0,3.36-.12,6.28,6.28,0,0,0,3-1.77A3.37,3.37,0,0,0,223.19,109.3Z"/>
          </g>
          <g>
            <path class="cls-2" d="M240.47,111.06c.41,2.55-1.81,4.86-4.94,5.16s-6-1.51-6.4-4.06,1.81-4.86,4.94-5.16S240.07,108.51,240.47,111.06Z"/>
            <path class="cls-3" d="M240.58,111a5,5,0,0,1-1.12,4.09,6.06,6.06,0,0,1-4,2.15,6.87,6.87,0,0,1-4.53-1,5.69,5.69,0,0,1-2.63-3.95,4.84,4.84,0,0,1,1.76-4.28,6.74,6.74,0,0,1,4.13-1.54A6.26,6.26,0,0,1,240.58,111Zm-.21,0a4,4,0,0,0-2.34-3,6.82,6.82,0,0,0-3.76-.55A5.61,5.61,0,0,0,231,109a3.33,3.33,0,0,0-1,3,3.64,3.64,0,0,0,2,2.43,6.92,6.92,0,0,0,3.31.73,6.83,6.83,0,0,0,3.4-.89A3.32,3.32,0,0,0,240.37,111.08Z"/>
          </g>
          <g>
            <path class="cls-2" d="M249.41,115.94c0,2.56-2.49,4.56-5.66,4.47s-5.77-2.23-5.81-4.79,2.49-4.57,5.66-4.48S249.37,113.38,249.41,115.94Z"/>
            <path class="cls-3" d="M249.51,115.94a5,5,0,0,1-1.68,3.88,6.15,6.15,0,0,1-4.24,1.63,6.89,6.89,0,0,1-4.38-1.56,5.6,5.6,0,0,1-2.11-4.26,4.89,4.89,0,0,1,2.35-4,7,7,0,0,1,4.29-1C246.64,110.86,249.32,113.11,249.51,115.94Zm-.21,0a3.9,3.9,0,0,0-1.93-3.28,6.84,6.84,0,0,0-3.68-1,5.74,5.74,0,0,0-3.46,1.08,3.34,3.34,0,0,0-1.45,2.85,3.57,3.57,0,0,0,1.7,2.65,7,7,0,0,0,3.2,1.11,7.12,7.12,0,0,0,3.51-.46A3.35,3.35,0,0,0,249.3,115.94Z"/>
          </g>
          <g>
            <path class="cls-2" d="M260.07,119c.05,2.62-3.08,4.35-6.24,4.26s-6.1-2-6.14-4.57,2.92-5.43,6.08-5.34S260,116.41,260.07,119Z"/>
            <path class="cls-3" d="M260.18,119a4.78,4.78,0,0,1-2.2,3.9,7.44,7.44,0,0,1-4.56,1.39,7.75,7.75,0,0,1-4.61-1.65,5.66,5.66,0,0,1-1.6-2.07,4.37,4.37,0,0,1-.3-2.66,6.42,6.42,0,0,1,2.82-3.94,6.54,6.54,0,0,1,4.56-1.11,7.12,7.12,0,0,1,4,2.21A6.71,6.71,0,0,1,260.18,119Zm-.21,0a4.85,4.85,0,0,0-2-3.6,7.19,7.19,0,0,0-3.79-1.5,5.49,5.49,0,0,0-5.6,4.28,2.93,2.93,0,0,0,1.5,2.81,8.08,8.08,0,0,0,3.49,1.21,9.54,9.54,0,0,0,3.89-.29,4.17,4.17,0,0,0,1.73-1A2.89,2.89,0,0,0,260,119Z"/>
          </g>
          <g>
            <path class="cls-2" d="M233.8,113.53c1.27,2.67-.17,5.78-3.2,7s-6.53,0-7.79-2.72.16-5.78,3.2-7A6.18,6.18,0,0,1,233.8,113.53Z"/>
            <path class="cls-3" d="M233.9,113.48a5.79,5.79,0,0,1,.3,4.56,5.93,5.93,0,0,1-3.46,3.49,6.93,6.93,0,0,1-5,0,6.61,6.61,0,0,1-3.68-3.42,5.51,5.51,0,0,1,.25-4.93,6.45,6.45,0,0,1,3.74-2.94A6.78,6.78,0,0,1,233.9,113.48Zm-.19.09a4.81,4.81,0,0,0-3.24-2.64,6.49,6.49,0,0,0-4.09.31,5.18,5.18,0,0,0-2.87,2.58,4,4,0,0,0,.05,3.58,4.53,4.53,0,0,0,2.84,2.18,6.57,6.57,0,0,0,3.65,0,6.08,6.08,0,0,0,3.15-2A3.9,3.9,0,0,0,233.71,113.57Z"/>
          </g>
          <g>
            <path class="cls-2" d="M267.82,123.62c.1,2.74-2.32,4.94-5.42,4.92s-5.71-2.27-5.82-5,2.32-4.94,5.42-4.92S267.71,120.88,267.82,123.62Z"/>
            <path class="cls-3" d="M267.92,123.61a5.5,5.5,0,0,1-1.43,4.08,5.81,5.81,0,0,1-4.25,1.89,6.55,6.55,0,0,1-4.46-1.67,6,6,0,0,1-2-4.35,5.25,5.25,0,0,1,2.08-4.19,6.35,6.35,0,0,1,4.31-1.27A6.22,6.22,0,0,1,267.92,123.61Zm-.21,0a4.23,4.23,0,0,0-1.9-3.41,6.14,6.14,0,0,0-3.7-1.06,5.12,5.12,0,0,0-3.41,1.27,3.7,3.7,0,0,0-1.28,3.08,4,4,0,0,0,1.69,2.82,6.15,6.15,0,0,0,3.19,1.16,6.22,6.22,0,0,0,3.48-.65A3.66,3.66,0,0,0,267.71,123.62Z"/>
          </g>
          <g>
            <path class="cls-2" d="M276.73,128.76c.1,2.68-2.32,4.83-5.43,4.8s-5.7-2.21-5.8-4.89,2.32-4.84,5.42-4.81S276.62,126.08,276.73,128.76Z"/>
            <path class="cls-3" d="M276.83,128.75a5.38,5.38,0,0,1-1.46,4,5.85,5.85,0,0,1-4.22,1.83,6.55,6.55,0,0,1-4.42-1.6,5.87,5.87,0,0,1-2.07-4.3,5.12,5.12,0,0,1,2.12-4.14,6.46,6.46,0,0,1,4.28-1.22A6.19,6.19,0,0,1,276.83,128.75Zm-.21,0a4.13,4.13,0,0,0-1.91-3.35,6.29,6.29,0,0,0-3.68-1,5.28,5.28,0,0,0-3.4,1.23,3.6,3.6,0,0,0-1.3,3,3.83,3.83,0,0,0,1.7,2.75,6.3,6.3,0,0,0,3.18,1.13,6.4,6.4,0,0,0,3.46-.61A3.55,3.55,0,0,0,276.62,128.76Z"/>
          </g>
          <g>
            <path class="cls-2" d="M284.76,134.85c.11,2.68-2.48,4.84-5.77,4.81s-6-2.22-6.15-4.9,2.48-4.83,5.77-4.8S284.65,132.17,284.76,134.85Z"/>
            <path class="cls-3" d="M284.86,134.85a5.23,5.23,0,0,1-1.65,4.08,6.38,6.38,0,0,1-4.37,1.77,7.15,7.15,0,0,1-4.57-1.54,5.8,5.8,0,0,1-2.27-4.37,5.07,5.07,0,0,1,2.32-4.2,7.15,7.15,0,0,1,4.43-1.15C281.77,129.62,284.61,131.91,284.86,134.85Zm-.21,0a4.15,4.15,0,0,0-2.07-3.4,7.08,7.08,0,0,0-3.86-1,6,6,0,0,0-3.6,1.2,3.52,3.52,0,0,0-1.44,3,3.79,3.79,0,0,0,1.83,2.77,7.73,7.73,0,0,0,7,.53A3.54,3.54,0,0,0,284.65,134.86Z"/>
          </g>
          <g>
            <path class="cls-2" d="M287.76,143c-.34,2.64-3.07,4.4-6.09,3.92s-5.18-3-4.83-5.65,3.87-4,6.89-3.54A4.42,4.42,0,0,1,287.76,143Z"/>
            <path class="cls-3" d="M287.87,143a5.5,5.5,0,0,1-2,3.69,5.83,5.83,0,0,1-4.34,1.26,6.48,6.48,0,0,1-4.11-2.17,5.75,5.75,0,0,1-1.41-4.46,4.15,4.15,0,0,1,1-2.24,5.62,5.62,0,0,1,1.88-1.33,8.41,8.41,0,0,1,4.27-.62,5,5,0,0,1,4.7,5.87Zm-.21,0a4,4,0,0,0-1.08-3.62,5.34,5.34,0,0,0-3.49-1.19,7.18,7.18,0,0,0-3.59.8,3.11,3.11,0,0,0-1.84,2.51,3.71,3.71,0,0,0,1.26,2.89,6.25,6.25,0,0,0,2.92,1.51,6.42,6.42,0,0,0,3.44-.15A3.57,3.57,0,0,0,287.66,143Z"/>
          </g>
          <g>
            <path class="cls-2" d="M293.33,150.4c-.35,2.65-3.08,4.4-6.1,3.92s-5.18-3-4.83-5.64,3.87-4,6.89-3.55A4.44,4.44,0,0,1,293.33,150.4Z"/>
            <path class="cls-3" d="M293.43,150.42a5.45,5.45,0,0,1-2,3.68,5.81,5.81,0,0,1-4.35,1.26A6.54,6.54,0,0,1,283,153.2a5.77,5.77,0,0,1-1.4-4.47,4,4,0,0,1,1-2.23,5.35,5.35,0,0,1,1.88-1.33,8.41,8.41,0,0,1,4.27-.63,5,5,0,0,1,4.7,5.88Zm-.21,0a4,4,0,0,0-1.08-3.61,5.33,5.33,0,0,0-3.49-1.2,7.32,7.32,0,0,0-3.59.81,3.11,3.11,0,0,0-1.84,2.5,3.74,3.74,0,0,0,1.26,2.89,6.12,6.12,0,0,0,2.92,1.51,6.32,6.32,0,0,0,3.44-.15A3.57,3.57,0,0,0,293.22,150.39Z"/>
          </g>
          <g>
            <path class="cls-2" d="M297.28,157.21c-.3,2.31-2.68,3.85-5.31,3.43s-4.52-2.62-4.21-4.93,3.38-3.52,6-3.1A3.85,3.85,0,0,1,297.28,157.21Z"/>
            <path class="cls-3" d="M297.39,157.23a5,5,0,0,1-1.73,3.28,5.14,5.14,0,0,1-3.85,1.17,5.64,5.64,0,0,1-3.66-1.94,5.14,5.14,0,0,1-1.24-4,3.68,3.68,0,0,1,.93-2,5,5,0,0,1,1.67-1.18,7.45,7.45,0,0,1,3.77-.53,4.81,4.81,0,0,1,3.28,1.74A5,5,0,0,1,297.39,157.23Zm-.21,0a3.43,3.43,0,0,0-.95-3.14,4.66,4.66,0,0,0-3-1,6.3,6.3,0,0,0-3.08.71,2.6,2.6,0,0,0-1.54,2.13,3.11,3.11,0,0,0,1.09,2.42,5.44,5.44,0,0,0,2.46,1.28,5.59,5.59,0,0,0,2.95-.07A3,3,0,0,0,297.18,157.2Z"/>
          </g>
        </g>
        <g>
          <g>
            <path class="cls-2" d="M242.88,119.81c.55,2.58-1.4,5-4.33,5.44s-5.76-1.32-6.31-3.9,1.4-5,4.34-5.44S242.34,117.23,242.88,119.81Z"/>
            <path class="cls-3" d="M243,119.79a5.3,5.3,0,0,1-.7,4.1,5.55,5.55,0,0,1-3.78,2.42,6.36,6.36,0,0,1-4.49-1,5.94,5.94,0,0,1-2.6-3.83,5,5,0,0,1,1.33-4.32A6.1,6.1,0,0,1,243,119.79Zm-.21,0a4.16,4.16,0,0,0-2.32-2.94,6.05,6.05,0,0,0-3.66-.48,4.86,4.86,0,0,0-3,1.69,3.48,3.48,0,0,0-.71,3.08,3.88,3.88,0,0,0,2,2.39,6,6,0,0,0,3.17.66,5.78,5.78,0,0,0,3.19-1.09A3.4,3.4,0,0,0,242.78,119.83Z"/>
          </g>
          <g>
            <path class="cls-2" d="M253.66,125.55c-.54,2.54-3.58,4-6.8,3.26s-5.39-3.39-4.85-5.92,3.58-4,6.8-3.26S254.2,123,253.66,125.55Z"/>
            <path class="cls-3" d="M253.76,125.58a5.24,5.24,0,0,1-2.6,3.48,6.62,6.62,0,0,1-4.58.76,7.18,7.18,0,0,1-4.12-2.38,5.42,5.42,0,0,1-1.27-4.72,5,5,0,0,1,3.27-3.45,7.56,7.56,0,0,1,4.51-.14,7.06,7.06,0,0,1,3.63,2.42A5.12,5.12,0,0,1,253.76,125.58Zm-.2,0a3.86,3.86,0,0,0-1.28-3.69,7.24,7.24,0,0,0-3.55-1.69,6.39,6.39,0,0,0-3.76.38,3.52,3.52,0,0,0-2.15,2.53,3.48,3.48,0,0,0,1.17,3,7.29,7.29,0,0,0,3.07,1.73,7.85,7.85,0,0,0,3.68.24A3.53,3.53,0,0,0,253.56,125.53Z"/>
          </g>
          <g>
            <path class="cls-2" d="M263.78,131.56c-.54,2.54-3.85,3.67-7.07,2.93s-6.39-2.65-5.85-5.18,4.58-4.73,7.8-4S264.32,129,263.78,131.56Z"/>
            <path class="cls-3" d="M263.88,131.59a4.91,4.91,0,0,1-3,3.39,7.64,7.64,0,0,1-4.79.43,10.2,10.2,0,0,1-4.37-2,5.29,5.29,0,0,1-1.57-2.2,3.53,3.53,0,0,1,.19-2.82,6.89,6.89,0,0,1,3.74-3.15,8,8,0,0,1,4.72-.39,7.34,7.34,0,0,1,3.8,2.58A5.51,5.51,0,0,1,263.88,131.59Zm-.21-.05a4.18,4.18,0,0,0-1.42-3.87,7.5,7.5,0,0,0-3.72-1.85,6.73,6.73,0,0,0-3.94.62,5.48,5.48,0,0,0-2.75,2.58c-.45,1,.11,2,1.15,2.72a12.88,12.88,0,0,0,3.6,1.64,9.8,9.8,0,0,0,4,.52,4.33,4.33,0,0,0,1.93-.67A3,3,0,0,0,263.67,131.54Z"/>
          </g>
          <g>
            <path class="cls-2" d="M273.12,136.06c.11,2.68-2.37,4.83-5.54,4.81s-5.81-2.22-5.92-4.9,2.37-4.83,5.54-4.81S273,133.38,273.12,136.06Z"/>
            <path class="cls-3" d="M273.23,136.05a5.33,5.33,0,0,1-1.53,4,6,6,0,0,1-4.27,1.82,6.75,6.75,0,0,1-4.47-1.59,5.85,5.85,0,0,1-2.14-4.32,5.1,5.1,0,0,1,2.19-4.16,6.67,6.67,0,0,1,4.33-1.2A6.27,6.27,0,0,1,273.23,136.05Zm-.21,0a4.19,4.19,0,0,0-2-3.37,6.53,6.53,0,0,0-3.74-1,5.57,5.57,0,0,0-3.47,1.22,3.57,3.57,0,0,0-1.34,3,3.82,3.82,0,0,0,1.74,2.76,6.5,6.5,0,0,0,3.25,1.12,6.6,6.6,0,0,0,3.52-.6A3.55,3.55,0,0,0,273,136.06Z"/>
          </g>
          <g>
            <path class="cls-2" d="M279,144c-.55,2.36-3.35,3.7-6.26,3s-4.83-3.21-4.28-5.57,3.35-3.69,6.26-3S279.55,141.68,279,144Z"/>
            <path class="cls-3" d="M279.1,144.07a5,5,0,0,1-2.39,3.24,6,6,0,0,1-4.26.72,6.49,6.49,0,0,1-3.78-2.32,5.14,5.14,0,0,1-1-4.45,4.8,4.8,0,0,1,3.05-3.19,6.8,6.8,0,0,1,4.18-.1C277.54,138.75,279.59,141.41,279.1,144.07Zm-.2,0a3.57,3.57,0,0,0-1.07-3.42,6.3,6.3,0,0,0-3.2-1.61,5.49,5.49,0,0,0-3.41.34,3.26,3.26,0,0,0-1.94,2.31,3.19,3.19,0,0,0,1,2.73A6.45,6.45,0,0,0,273,146a7,7,0,0,0,3.33.27A3.24,3.24,0,0,0,278.9,144Z"/>
          </g>
        </g>
      </g>
      <path class="cls-3" d="M157,105c0-.07.06,0,.12-.05h.52l.68.06a12.1,12.1,0,0,1,1.34.23,15,15,0,0,1,2.6.88,15.85,15.85,0,0,1,4.52,3.13c.66.62,1.25,1.45,1.81,2a3.8,3.8,0,0,0,2.05,1.12,3.09,3.09,0,0,0,3.55-2.33,3.36,3.36,0,0,0-.36-2.35,6,6,0,0,0-.68-1.06,5.07,5.07,0,0,0-.91-.88,11,11,0,0,0-4.79-2C164,103.13,160.31,104,157,105Zm-.1,0c.82-.29,1.71-.72,2.58-1l1.3-.36c.44-.12.89-.19,1.33-.28a17,17,0,0,1,5.42-.19,11.52,11.52,0,0,1,5.1,2,6.12,6.12,0,0,1,1.85,2.13,4.11,4.11,0,0,1,.5,2.84,3.87,3.87,0,0,1-1.61,2.46,4.08,4.08,0,0,1-2.88.69,4.72,4.72,0,0,1-2.62-1.36c-.73-.73-1.16-1.39-1.8-2A16,16,0,0,0,156.91,105.05Z"/>
      <path class="cls-3" d="M173.68,94.28c.17.6.28,1.37.49,2a20.39,20.39,0,0,0,.72,2,13.51,13.51,0,0,0,2.2,3.53,5.91,5.91,0,0,0,3.24,2.16,2.36,2.36,0,0,0,2.78-1.59.5.5,0,0,1,.48-.39h0a7.26,7.26,0,0,0,2.09-.35,5.39,5.39,0,0,0,1.84-1A4.05,4.05,0,0,0,188.76,99a6.11,6.11,0,0,0,.45-2.09l.32.42a15.13,15.13,0,0,1-3-1.38,14.48,14.48,0,0,1-2.62-2,11.21,11.21,0,0,1-3.25-5.68l.46.15a7.57,7.57,0,0,0-1.4,2,8.18,8.18,0,0,0-.78,2.31,8.45,8.45,0,0,0-.09,2.46,11.39,11.39,0,0,0,.53,2.42h0a.14.14,0,0,1-.09.18h0a6.86,6.86,0,0,1-3.24-1,6.62,6.62,0,0,1-1.33-1.08c-.2-.2-.37-.43-.55-.65A4.33,4.33,0,0,1,173.68,94.28Zm0-.09.54.7a5.6,5.6,0,0,0,.56.63,6.17,6.17,0,0,0,1.32,1,6.78,6.78,0,0,0,3.14.93l-.14.19a11.59,11.59,0,0,1-.61-2.47,8.52,8.52,0,0,1,0-2.57,8.23,8.23,0,0,1,.76-2.47A7.94,7.94,0,0,1,180.72,88a.27.27,0,0,1,.38,0,.26.26,0,0,1,.07.11v0a10.4,10.4,0,0,0,1.2,2.88,10.88,10.88,0,0,0,2,2.41,13.94,13.94,0,0,0,2.54,1.84,14.35,14.35,0,0,0,2.86,1.23h0a.41.41,0,0,1,.29.42,7.15,7.15,0,0,1-.46,2.4,5,5,0,0,1-1.41,2.06,6.24,6.24,0,0,1-2.16,1.24,7.91,7.91,0,0,1-2.44.42l.52-.39a3.18,3.18,0,0,1-1.55,1.94,3.39,3.39,0,0,1-2.41.33,6.72,6.72,0,0,1-3.66-2.6,13.63,13.63,0,0,1-2.08-3.84,15.49,15.49,0,0,1-.56-2.1c-.06-.35-.12-.71-.16-1.06a4.93,4.93,0,0,1-.05-.54l0-.27v-.14A.22.22,0,0,1,173.65,94.19Z"/>
      <g class="cls-6">
        <path class="cls-3" d="M300.77,176.92a47.3,47.3,0,0,1-3.8,17.39,52.82,52.82,0,0,1-9.61,15.1,55.91,55.91,0,0,1-6.59,6.1,55.31,55.31,0,0,1-7.45,5l-2,1.08-2,1c-1.33.68-2.72,1.21-4.09,1.81s-2.8,1-4.2,1.52-2.85.86-4.28,1.28a83.55,83.55,0,0,0,16.16-7.34,59.15,59.15,0,0,0,13.69-11.1,55.9,55.9,0,0,0,12.61-23.07A46.22,46.22,0,0,0,300.77,176.92Z"/>
      </g>
    </g>
  </g>
</svg>
