<svg id="Layer_1" data-name="Layer 1" xmlns="http://www.w3.org/2000/svg" width="252.77" height="185.91" viewBox="0 0 252.77 185.91">
  <defs>
    <style>
      .cls-1, .cls-5 {
        opacity: 0.5;
      }

      .cls-2, .cls-7 {
        fill: #fff;
      }

      .cls-3 {
        fill: #dc093b;
      }

      .cls-4 {
        fill: #83142a;
      }

      .cls-6 {
        opacity: 0.7;
      }

      .cls-7 {
        opacity: 0.3;
      }

      .cls-8 {
        fill: #ffd9bc;
      }

      .cls-9 {
        fill: #e3a07c;
      }

      .cls-10 {
        fill: #ffbf9d;
      }

      .cls-11 {
        fill: #875959;
      }
    </style>
  </defs>
  <g>
    <path class="cls-1" d="M182.44,181.74a91.55,91.55,0,0,1-21.37-2.69,57.74,57.74,0,0,1-25.18-12.76c-.37-.32-.76-.68-1.16-1l-.2-.19-.74-.69a59.54,59.54,0,0,1-9.94-12.45,72,72,0,0,1-67.66,8.79C20.87,147.05,1.87,107.48,14.7,74.29c9.52-24.62,35.07-41.16,63.57-41.16.81,0,1.62,0,2.43,0a17,17,0,0,0,5.56-4.42,4.41,4.41,0,0,0,1.21-3.57,8,8,0,0,1,.58-15.29,19.61,19.61,0,0,1,4.75-.57,17,17,0,0,1,9.94,3.07,16.6,16.6,0,0,1,7.51-3.14,8.74,8.74,0,0,1,1.14-.08,8,8,0,0,1,6.38,3.18A14.24,14.24,0,0,1,120,17h.61c3.17,0,7.89,1,12.33,5.84,2.55,2.78,3.33,7.13,1.15,10.21a7.76,7.76,0,0,1-6.28,3.53,7.15,7.15,0,0,1-2.61-.5c-1.17.18-2.12,2.5-2.61,4.5a16.82,16.82,0,0,0,1,9,72.2,72.2,0,0,1,9.08,9.09c2.08-2.46,5.75-5.26,12-6a9.42,9.42,0,0,1,1.06-.06,7.91,7.91,0,0,1,8,9.43,71.93,71.93,0,0,1,23.06-3.66,92.81,92.81,0,0,1,36.45,7.91c19.13,8.28,31.5,23.16,33.2,39.9a31.56,31.56,0,0,1,.55,3.35c0,.16,0,.31,0,.47a75.12,75.12,0,0,1-.69,14.48l0,.21c-.08.56-.16,1-.23,1.49,0,0-.24,1.34-.31,1.7s-.11.59-.17.88-.11.56-.17.84l-.24,1.07-.15.64c-.09.4-.19.81-.3,1.22l-.12.47-.36,1.35-.12.39c-.13.46-.27.93-.41,1.39l-.11.35c-.14.45-.29.93-.45,1.4l-.12.34c-.15.45-.31.91-.48,1.37l-.13.36c-.17.45-.33.88-.51,1.32l-.17.43c-.16.42-.33.82-.49,1.22l-.24.56-.48,1.09-.3.66c-.15.31-.29.62-.44.94s-.27.55-.41.83l-.39.76c-.16.32-.33.66-.51,1l-.31.57-.64,1.15-.24.42c-.25.43-.51.86-.77,1.29l-.15.24c-.29.48-.59,1-.9,1.43l-.06.09a62.37,62.37,0,0,1-8.32,10.23l0,0c-.41.41-.83.81-1.26,1.21l-.17.16-1.15,1L224,167c-.3.26-.6.52-.91.77l-.72.59-.65.51-1.06.81-.33.24c-10.66,7.83-23.41,11.81-37.9,11.81Z"/>
    <path class="cls-2" d="M177.44,176.74a91.55,91.55,0,0,1-21.37-2.69,57.74,57.74,0,0,1-25.18-12.76c-.37-.32-.76-.68-1.16-1l-.2-.19-.74-.69a59.54,59.54,0,0,1-9.94-12.45,72,72,0,0,1-67.66,8.79C15.87,142.05-3.13,102.48,9.7,69.29c9.52-24.62,35.07-41.16,63.57-41.16.81,0,1.62,0,2.43,0a17,17,0,0,0,5.56-4.42,4.41,4.41,0,0,0,1.21-3.57,8,8,0,0,1,.58-15.29,19.61,19.61,0,0,1,4.75-.57,17,17,0,0,1,9.94,3.07,16.6,16.6,0,0,1,7.51-3.14,8.74,8.74,0,0,1,1.14-.08,8,8,0,0,1,6.38,3.18A14.24,14.24,0,0,1,115,12h.61c3.17,0,7.89,1,12.33,5.84,2.55,2.78,3.33,7.13,1.15,10.21a7.76,7.76,0,0,1-6.28,3.53,7.15,7.15,0,0,1-2.61-.5c-1.17.18-2.12,2.5-2.61,4.5a16.82,16.82,0,0,0,1,9,72.2,72.2,0,0,1,9.08,9.09c2.08-2.46,5.75-5.26,12-6a9.42,9.42,0,0,1,1.06-.06,7.91,7.91,0,0,1,8,9.43,71.93,71.93,0,0,1,23.06-3.66,92.81,92.81,0,0,1,36.45,7.91c19.13,8.28,31.5,23.16,33.2,39.9a31.56,31.56,0,0,1,.55,3.35c0,.16,0,.31,0,.47a75.12,75.12,0,0,1-.69,14.48l0,.21c-.08.56-.16,1-.23,1.49,0,0-.24,1.34-.31,1.7s-.11.59-.17.88-.11.56-.17.84l-.24,1.07-.15.64c-.09.4-.19.81-.3,1.22l-.12.47-.36,1.35-.12.39c-.13.46-.27.93-.41,1.39l-.11.35c-.14.45-.29.93-.45,1.4l-.12.34c-.15.45-.31.91-.48,1.37l-.13.36c-.17.45-.33.88-.51,1.32l-.17.43c-.16.42-.33.82-.49,1.22l-.24.56-.48,1.09-.3.66c-.15.31-.29.62-.44.94s-.27.55-.41.83l-.39.76c-.16.32-.33.66-.51,1l-.31.57-.64,1.15-.24.42c-.25.43-.51.86-.77,1.29l-.15.24c-.29.48-.59,1-.9,1.43l-.06.09a62.37,62.37,0,0,1-8.32,10.23l0,0c-.41.41-.83.81-1.26,1.21l-.17.16-1.15,1L219,162c-.3.26-.6.52-.91.77l-.72.59-.65.51-1.06.81-.33.24c-10.66,7.83-23.41,11.81-37.9,11.81Z"/>
    <g>
      <g>
        <path class="cls-3" d="M73.78,37.08s7.2-.62,13.58-8.15,1.82-16.76-2.26-16.31c0,0,11.09-2.94,11.32,9.51,0,0,3.62-9,10-10,0,0,2.94,3.85.22,13.13,0,0,7.7-10.41,15.4-2,0,0-9.06-2.49-12.23,10.41-1.11,4.54-.45,12.23,4.3,19.7C114.08,53.38,100.5,40.93,73.78,37.08Z"/>
        <path class="cls-4" d="M73.73,37.08a21.13,21.13,0,0,0,8.16-3.54A24.47,24.47,0,0,0,85.3,30.7a21.58,21.58,0,0,0,2.84-3.37A12,12,0,0,0,90,19a9.66,9.66,0,0,0-1.55-4c-.78-1.14-2-2.12-3.28-2h0a.45.45,0,0,1-.49-.4.46.46,0,0,1,.34-.48A12.19,12.19,0,0,1,89.52,12a8,8,0,0,1,4.16,1.85A8.16,8.16,0,0,1,96.1,17.7a18.87,18.87,0,0,1,.5,2.2l.14,2.23L96.12,22a25.59,25.59,0,0,1,1.75-3.27,21.43,21.43,0,0,1,2.23-3,14.52,14.52,0,0,1,2.8-2.44A9.32,9.32,0,0,1,106.36,12h0a.14.14,0,0,1,.15.06,8.78,8.78,0,0,1,1.16,3.23,16.76,16.76,0,0,1,.22,3.39,24,24,0,0,1-.34,3.38l-.34,1.66-.43,1.64-.33-.16A17.55,17.55,0,0,1,109.73,22a11.44,11.44,0,0,1,4.14-2,7.33,7.33,0,0,1,4.62.39,9.13,9.13,0,0,1,2,1.15A23.07,23.07,0,0,1,122.27,23a.34.34,0,0,1,0,.49.32.32,0,0,1-.33.11h0a8.55,8.55,0,0,0-8.25,3A17.94,17.94,0,0,0,110,35.1a23.85,23.85,0,0,0,.72,9.35,30.68,30.68,0,0,0,3.79,8.66.51.51,0,0,1-.77.66h0a58.69,58.69,0,0,0-9-6.1,84.92,84.92,0,0,0-9.85-4.74c-1.72-.63-3.41-1.33-5.16-1.86-.87-.28-1.73-.58-2.6-.84l-2.65-.73c-1.75-.53-3.55-.87-5.33-1.32S75.47,37.41,73.73,37.08Zm.1,0c1.86.31,3.62.45,5.39.79l2.71.53,1.35.27,1.33.35,2.68.68c.88.25,1.76.53,2.64.79,1.77.5,3.48,1.17,5.22,1.77a85.83,85.83,0,0,1,10,4.58A52.68,52.68,0,0,1,114.43,53l-.78.65a31.78,31.78,0,0,1-3.94-8.94A24.37,24.37,0,0,1,109,35a15.09,15.09,0,0,1,.57-2.41l.36-1.17c.14-.39.3-.77.46-1.15A14.46,14.46,0,0,1,113,26a9.42,9.42,0,0,1,9.11-3.07l-.35.59c-.55-.49-1-1.06-1.62-1.5a8.49,8.49,0,0,0-1.88-1.1,6.8,6.8,0,0,0-4.27-.45,11.05,11.05,0,0,0-4,1.87,16.27,16.27,0,0,0-3.23,3.08.19.19,0,0,1-.26,0,.19.19,0,0,1-.06-.2l.43-1.62.35-1.63a24.94,24.94,0,0,0,.37-3.33,14.76,14.76,0,0,0-.22-3.32,8.63,8.63,0,0,0-1.12-3.07l.16.06a9,9,0,0,0-3.3,1.33,13,13,0,0,0-2.67,2.41,21,21,0,0,0-2.09,3,24.32,24.32,0,0,0-1.63,3.22.32.32,0,0,1-.42.18.3.3,0,0,1-.2-.27v0L95.9,20a19.37,19.37,0,0,0-.51-2.06,7.8,7.8,0,0,0-2.25-3.44,7.3,7.3,0,0,0-3.75-1.62,11.51,11.51,0,0,0-4.18.18l-.16-.88a3.62,3.62,0,0,1,2.41.68,6.42,6.42,0,0,1,1.67,1.7,10.47,10.47,0,0,1,1.65,4.34,12.5,12.5,0,0,1-2.07,8.8,16.5,16.5,0,0,1-1.43,1.79c-.51.55-1,1.11-1.58,1.62a23.45,23.45,0,0,1-3.55,2.81,22.72,22.72,0,0,1-4,2.07A20.8,20.8,0,0,1,76,36.7c-.36.1-.73.18-1.09.26l-.56.1-.28,0C74,37.09,73.85,37.17,73.83,37.08Z"/>
      </g>
      <g>
        <path class="cls-3" d="M132.65,116.56C121.13,146.38,84.39,160,54.07,148.25S5.64,102,17.17,72.18,65.5,28.55,95.82,40.27,144.18,86.75,132.65,116.56Z"/>
        <path class="cls-4" d="M132.7,116.58A52.82,52.82,0,0,1,119.78,136,59.79,59.79,0,0,1,100,148.41a64.68,64.68,0,0,1-46.11.3,65,65,0,0,1-34.19-31.06,59.68,59.68,0,0,1-6.35-22.59A52.81,52.81,0,0,1,30,52.53,60.38,60.38,0,0,1,49.88,40.14a64.46,64.46,0,0,1,46-.1,64.48,64.48,0,0,1,33.86,31.07,59.74,59.74,0,0,1,6.32,22.45A52.84,52.84,0,0,1,132.7,116.58Zm-.09,0a52.6,52.6,0,0,0,3.32-23,59.51,59.51,0,0,0-6.34-22.36A64.2,64.2,0,0,0,95.73,40.5a63.88,63.88,0,0,0-45.62.25A59.79,59.79,0,0,0,30.5,53.05,52,52,0,0,0,14.25,95a58.92,58.92,0,0,0,6.34,22.2,63.39,63.39,0,0,0,79.23,30.71,59.44,59.44,0,0,0,19.74-12.19A52.76,52.76,0,0,0,132.61,116.54Z"/>
      </g>
      <g class="cls-5">
        <path class="cls-2" d="M23.81,84.16a48.71,48.71,0,0,1,4.87-16.63A51.43,51.43,0,0,1,39,53.5a50,50,0,0,1,14.48-9.65,51.09,51.09,0,0,1,8.26-2.78c1.42-.27,2.83-.63,4.27-.82l4.31-.48a57.62,57.62,0,0,0-16.53,4.78,51.12,51.12,0,0,0-14.1,9.67,53,53,0,0,0-10.3,13.66l-.52.94-.45,1-.89,2a16.35,16.35,0,0,0-.8,2l-.75,2c-.48,1.35-.82,2.75-1.24,4.13S24.12,82.75,23.81,84.16Z"/>
      </g>
      <g class="cls-5">
        <path class="cls-2" d="M93.54,47a57.1,57.1,0,0,1-.13,10.62A81.22,81.22,0,0,1,91.74,68.1a85.9,85.9,0,0,1-3,10.21c-.57,1.68-1.28,3.31-1.94,5s-1.49,3.21-2.27,4.8c1.21-3.33,2.46-6.62,3.48-10s2-6.76,2.74-10.18S92.15,61,92.65,57.5c.26-1.74.44-3.49.59-5.24S93.5,48.74,93.54,47Z"/>
      </g>
      <g class="cls-5">
        <path class="cls-2" d="M102.83,49.82a33.76,33.76,0,0,1,1.67,4.25c.44,1.46.84,2.94,1.15,4.43a51.58,51.58,0,0,1,1.13,9.1,52.85,52.85,0,0,1-.46,9.15c-.17,1.52-.5,3-.79,4.5s-.77,3-1.2,4.41c.5-3,1-6,1.23-9a75.58,75.58,0,0,0,.22-9,71.28,71.28,0,0,0-.88-9A58.62,58.62,0,0,0,102.83,49.82Z"/>
      </g>
      <g class="cls-6">
        <path class="cls-4" d="M39.81,98.45a59.07,59.07,0,0,0-.12,15.26,44.91,44.91,0,0,0,4.38,14.51,41.94,41.94,0,0,0,9,12.15A29.44,29.44,0,0,0,56,142.84L57.48,144l1.62,1A35.8,35.8,0,0,0,66,148.38a32.42,32.42,0,0,1-7.11-2.94l-1.68-1-1.58-1.12a30.62,30.62,0,0,1-3-2.41,41,41,0,0,1-9.38-12.28,43.91,43.91,0,0,1-4.24-14.86,29.2,29.2,0,0,1-.23-3.86L38.65,108c0-.65.08-1.29.12-1.93A55.76,55.76,0,0,1,39.81,98.45Z"/>
      </g>
      <g class="cls-6">
        <path class="cls-4" d="M60.87,108.64a55.94,55.94,0,0,0-.69,8.65,62.12,62.12,0,0,0,.55,8.63,60,60,0,0,0,1.72,8.47,74.49,74.49,0,0,0,2.84,8.21c-.36-.63-.7-1.28-1-1.93a21,21,0,0,1-1-2c-.56-1.35-1.14-2.7-1.58-4.1a46.36,46.36,0,0,1-2.29-17.34c.09-1.46.25-2.92.46-4.37A30.63,30.63,0,0,1,60.87,108.64Z"/>
      </g>
      <g class="cls-6">
        <path class="cls-4" d="M73.44,148.72A24.24,24.24,0,0,0,80,147.18l1.58-.57,1.54-.66c1-.41,2-.95,3-1.44a52.12,52.12,0,0,0,11-7.58,50.75,50.75,0,0,0,8.72-10.06A49.84,49.84,0,0,0,109,121a61.55,61.55,0,0,0,2.51-6.24c-.3,1.08-.61,2.17-.93,3.25-.17.53-.28,1.1-.5,1.61l-.63,1.57a52.16,52.16,0,0,1-3,6.1,48.78,48.78,0,0,1-8.71,10.4,49.56,49.56,0,0,1-11.29,7.51c-1,.46-2.05,1-3.12,1.35l-1.59.6-1.62.5A22.58,22.58,0,0,1,73.44,148.72Z"/>
      </g>
      <g class="cls-6">
        <path class="cls-4" d="M99.93,109a41.47,41.47,0,0,1-2.66,9.36,49.26,49.26,0,0,1-4.5,8.68l-.66,1-.72,1c-.49.65-.94,1.33-1.46,2a45.28,45.28,0,0,1-3.24,3.66c-.59.57-1.12,1.19-1.74,1.72L83.11,138c-.6.55-1.27,1-1.92,1.5l-2,1.42a71.31,71.31,0,0,0,6.91-6.77,59.22,59.22,0,0,0,5.81-7.67A63.27,63.27,0,0,0,96.57,118c.68-1.46,1.29-3,1.85-4.46S99.5,110.54,99.93,109Z"/>
      </g>
      <path class="cls-4" d="M109.78,25.76a29.39,29.39,0,0,0-4.34,7.17,22.87,22.87,0,0,0-1.31,4,23.41,23.41,0,0,0-.66,4.09h0a.49.49,0,0,1-.53.43.48.48,0,0,1-.39-.29,25.66,25.66,0,0,1-1.9-6.25,25.07,25.07,0,0,1-.22-6.53A27.89,27.89,0,0,1,101.86,22a23.83,23.83,0,0,1,2.94-5.75,29,29,0,0,0-2.41,5.92,28.16,28.16,0,0,0-1.1,6.24,27,27,0,0,0,.33,6.29,27.82,27.82,0,0,0,1.81,6l-.92.15a23.2,23.2,0,0,1,.79-4.23,22.53,22.53,0,0,1,1.55-4A23.39,23.39,0,0,1,107,29,21.81,21.81,0,0,1,109.78,25.76Z"/>
      <path class="cls-7" d="M43.49,59.72S52,46.34,67.43,42.21a4.4,4.4,0,0,1,2.36,0c1.21.33,2.43,1.29,1,4-2.1,3.93,3.38,3.47,7.9,1.11,4.13-2.16,8.38-2.72,7.86,2.47C86,55.84,76.3,76.48,69.76,68.79,64,62.07,60.77,57,54.35,60.23,48.62,63.11,41.1,64.65,43.49,59.72Z"/>
      <g class="cls-5">
        <path class="cls-2" d="M92.32,22.47a11,11,0,0,1-1.59,8,9.68,9.68,0,0,1-2.87,3.1,10.36,10.36,0,0,1-1.89.93,10.21,10.21,0,0,1-2,.46.1.1,0,0,1-.1-.08.11.11,0,0,1,0-.07h0a15.26,15.26,0,0,1,1.56-1.31c.24-.23.49-.42.74-.63a7.15,7.15,0,0,0,.73-.61c.24-.21.47-.42.72-.61s.47-.42.71-.61a9.91,9.91,0,0,0,1.35-1.32,11,11,0,0,0,1.84-3.33,10.67,10.67,0,0,0,.65-3.85h0a.07.07,0,0,1,.08-.08A.08.08,0,0,1,92.32,22.47Z"/>
      </g>
      <path class="cls-3" d="M123.88,85.58c-14.16,21.11-6.93,71.16,34.06,80.7,54.63,12.7,77.71-28.19,76.06-60.86C230.33,72.14,159.19,38.87,123.88,85.58Z"/>
      <path class="cls-8" d="M144.06,67.6c18.31-9.08,40.59-7.79,61,1,29.62,12.81,36.6,40.67,19.18,58.69-16.38,17-43,28.52-76.8,13.23-22.23-10.06-36.83-36.37-22-57.52l.33.17a13.37,13.37,0,0,0-15.76-2.79s1.89-9.92,13.25-6.82c0,0-4.55-2.79-5-11.78,0,0,7.78-.62,13.77,3.72,0,0-1.45-8.68,8.68-9.92,0,0-6.41,7.75,3.65,12.09Z"/>
      <path class="cls-9" d="M134.62,129.18a28.23,28.23,0,0,0,4.34,3.6,47,47,0,0,0,4.8,2.94,71.07,71.07,0,0,0,10.3,4.56,74.85,74.85,0,0,0,22,4.33,61.2,61.2,0,0,0,22.16-2.91,58,58,0,0,0,10.29-4.5,69,69,0,0,0,9.31-6.37,63.4,63.4,0,0,1-9.06,6.8,59.91,59.91,0,0,1-10.3,4.8,53.16,53.16,0,0,1-11.07,2.65,65.44,65.44,0,0,1-11.37.53A73.08,73.08,0,0,1,153.79,141a70.85,70.85,0,0,1-10.27-4.86A47.73,47.73,0,0,1,138.8,133,26.16,26.16,0,0,1,134.62,129.18Z"/>
      <path class="cls-9" d="M164.64,87.85a10.65,10.65,0,0,0,4.1,3.24,28,28,0,0,0,4.95,1.85,103.54,103.54,0,0,1,10.12,3.51,39.67,39.67,0,0,1,13.36,8.9,46.37,46.37,0,0,1,3.51,4,56.77,56.77,0,0,0-8-7,48.94,48.94,0,0,0-9.27-5c-3.25-1.38-6.62-2.51-10-3.7a28,28,0,0,1-4.94-2.15,14.83,14.83,0,0,1-2.18-1.59A6.73,6.73,0,0,1,164.64,87.85Z"/>
      <path class="cls-9" d="M159.55,91.41a89.24,89.24,0,0,1,9,6c2.88,2.19,5.53,4.57,8.7,6.16a30.31,30.31,0,0,0,4.87,2.07c1.67.58,3.42,1,5.14,1.54a27.22,27.22,0,0,1,5,2.06,22.15,22.15,0,0,1,4.31,3.25,25.44,25.44,0,0,0-4.54-2.82,27.37,27.37,0,0,0-5-1.75c-1.73-.43-3.48-.84-5.22-1.38a30,30,0,0,1-5.05-2.08c-.81-.43-1.58-.92-2.35-1.4s-1.52-1-2.22-1.59c-1.42-1.15-2.77-2.31-4.13-3.46s-2.79-2.26-4.21-3.35S161,92.49,159.55,91.41Z"/>
      <path class="cls-9" d="M181.63,63.67a80.53,80.53,0,0,1,15.2,3.58,76.63,76.63,0,0,1,14.27,6.46,51,51,0,0,1,12.14,9.91,41.51,41.51,0,0,1,4.51,6.43,36.26,36.26,0,0,1,2.91,7.25,40.56,40.56,0,0,0-3.33-7,41.69,41.69,0,0,0-4.66-6.16A56.23,56.23,0,0,0,217,78.9a61.4,61.4,0,0,0-6.4-4.33,82.67,82.67,0,0,0-14-6.6c-2.42-.9-4.89-1.7-7.38-2.41S184.18,64.19,181.63,63.67Z"/>
      <g>
        <path class="cls-10" d="M125,83.51l.65-.31-.33-.17Z"/>
        <path class="cls-9" d="M144.29,67.7c0-.06-.06-.11-.1-.16l-.12.06c-9.73-4.36-3.43-12-3.43-12-10.13,1.24-8.68,9.92-8.68,9.92-6-4.34-13.77-3.72-13.77-3.72.44,9,5,11.78,5,11.78-11.36-3.1-13.25,6.82-13.25,6.82a13.37,13.37,0,0,1,15.76,2.79s3.41,2.9,7-.83c2.48-2.58,2.09-4.62,5.78-4.44C142.76,78.14,148.22,74,144.29,67.7Z"/>
      </g>
      <path class="cls-11" d="M119.14,76.69a10.93,10.93,0,0,1,7.92,4.44c2.64,3.35,7.13-.1,4.13-3.51C131.19,77.62,127.7,73.38,119.14,76.69Z"/>
      <path class="cls-11" d="M131.43,68.73a10.8,10.8,0,0,0,2.69,6.2c2.14,2.28,4.25,1.35,4.63-.1,0,0,4.31.1,4.44-4.13,0,0-5.28-1.45-6.43-6.41a6.44,6.44,0,0,0-1.24,6.92A5.08,5.08,0,0,1,131.43,68.73Z"/>
      <path class="cls-4" d="M144,67.55a60.37,60.37,0,0,1,17.25-5.62,68.41,68.41,0,0,1,18.19-.51,86.26,86.26,0,0,1,17.82,3.8,73.67,73.67,0,0,1,16.56,7.61,47.33,47.33,0,0,1,13.28,12.41,35.43,35.43,0,0,1,6.5,16.86A31.34,31.34,0,0,1,230,119.74a35,35,0,0,1-5.34,7.39c-1,1.1-2.15,2.14-3.23,3.21s-2.28,2-3.42,3a62.75,62.75,0,0,1-33,14.37l-2.27.26c-.76.09-1.53.06-2.29.09l-2.29.06-1.14,0c-.38,0-.76,0-1.14-.06l-4.57-.28-4.53-.67-1.13-.16c-.37-.07-.74-.17-1.11-.25l-2.23-.53-2.23-.52c-.74-.16-1.45-.45-2.18-.67l-4.35-1.41-4.23-1.72a49.9,49.9,0,0,1-26.41-24.22,36.35,36.35,0,0,1-3.72-17.74A32.14,32.14,0,0,1,125.32,83a.05.05,0,0,1,.08.06,32.27,32.27,0,0,0-5.73,16.9,35.85,35.85,0,0,0,3.88,17.39,47.24,47.24,0,0,0,10.94,14.17,50.45,50.45,0,0,0,15.22,9.42l4.19,1.7,4.29,1.37c.72.22,1.43.5,2.16.66l2.2.51,2.19.52c.37.09.73.19,1.1.26l1.11.17,4.46.68,4.49.3c.38,0,.75.06,1.13.06l1.12,0,2.26,0c.75,0,1.5,0,2.25-.08l2.24-.24a61,61,0,0,0,17.38-4.54,65.84,65.84,0,0,0,15.41-9.32c4.63-3.83,9.13-8,12-13.38a29.82,29.82,0,0,0,3.61-17.41,33.88,33.88,0,0,0-6.6-16.57,47,47,0,0,0-13.28-12A75.66,75.66,0,0,0,197,66.05a85,85,0,0,0-17.62-3.86,65.29,65.29,0,0,0-35.31,5.45.06.06,0,0,1-.07,0A.06.06,0,0,1,144,67.55Z"/>
      <path class="cls-4" d="M124,85.63a41,41,0,0,0-2.79,6.11,51.74,51.74,0,0,0-1.84,6.43,58,58,0,0,0-1.27,13.27,65.31,65.31,0,0,0,5.68,25.84A50.33,50.33,0,0,0,140.17,158a46.58,46.58,0,0,0,11.89,6.14,68.43,68.43,0,0,0,13.06,3,70.26,70.26,0,0,0,26.54-1,51.42,51.42,0,0,0,23-12.48,58.68,58.68,0,0,0,14.54-22,71.47,71.47,0,0,0,4.68-26.27.1.1,0,0,1,.11-.1.09.09,0,0,1,.1.09,65.62,65.62,0,0,1-3.36,26.84,57.84,57.84,0,0,1-14.55,23,50.6,50.6,0,0,1-11.19,8A54.12,54.12,0,0,1,192.11,168a66.81,66.81,0,0,1-27.16.22,80.43,80.43,0,0,1-13.14-3.46,54.18,54.18,0,0,1-12-6.26,52.67,52.67,0,0,1-10.12-9.09A53.81,53.81,0,0,1,122.18,138a59.81,59.81,0,0,1-5.72-26.57,56.45,56.45,0,0,1,1.82-13.52,40.42,40.42,0,0,1,5.51-12.4.11.11,0,0,1,.15,0A.12.12,0,0,1,124,85.63Z"/>
      <g>
        <path class="cls-4" d="M139.57,83c-2-1.17-4.72-.65-6.88,1.31-3.36,3.06-9,11.49-4.72,25.39,5.78,18.77,25.26,27.37,37.14,30.34,15.48,3.88,37.35.11,46.8-12.5,0,0,4.12-5.71-.69-7.2-5.82-1.8-21.53.33-41.84-11.3C154.68,100.88,146.54,87.13,139.57,83Z"/>
        <path class="cls-4" d="M139.54,83.08a4.84,4.84,0,0,0-3.4-.48A7.23,7.23,0,0,0,133,84.17a17.6,17.6,0,0,0-4.16,5.66A24,24,0,0,0,127,103.61c.12,1.16.42,2.3.65,3.45l.48,1.7.24.84.31.83a35.23,35.23,0,0,0,2.93,6.36,40.93,40.93,0,0,0,9.09,10.62,63.12,63.12,0,0,0,25.14,12.31,56.61,56.61,0,0,0,28-.84,39.35,39.35,0,0,0,12.64-6.18c.47-.37,1-.7,1.4-1.09l1.29-1.21.64-.61c.21-.21.39-.44.59-.66l1.14-1.35a8.85,8.85,0,0,0,1.62-3.08,4.44,4.44,0,0,0,.21-1.69,3.23,3.23,0,0,0-.16-.81,2.29,2.29,0,0,0-.45-.69,5.3,5.3,0,0,0-3.1-1.29c-1.16-.2-2.34-.32-3.52-.42-2.36-.2-4.74-.36-7.1-.64a78,78,0,0,1-14-2.8,74.36,74.36,0,0,1-13.22-5.46,60.9,60.9,0,0,1-11.86-8,112.94,112.94,0,0,1-10.11-10.06c-1.6-1.76-3.21-3.49-4.87-5.19A29.57,29.57,0,0,0,139.54,83.08Zm.06-.09a30.14,30.14,0,0,1,5.48,4.54c1.68,1.68,3.29,3.43,4.94,5.13a110.54,110.54,0,0,0,10.35,9.73,65.84,65.84,0,0,0,11.85,7.68,80.44,80.44,0,0,0,13.05,5.44,79.51,79.51,0,0,0,13.82,3.06c2.35.33,4.71.53,7.07.79,1.18.12,2.37.25,3.55.46a11.79,11.79,0,0,1,1.75.44,3.56,3.56,0,0,1,1.56,1,3.2,3.2,0,0,1,.51.8,3.73,3.73,0,0,1,.18.93,5,5,0,0,1-.24,1.81,10,10,0,0,1-1.68,3.18l-1.16,1.38c-.19.22-.37.46-.58.67l-.65.62-1.3,1.23c-.45.4-.94.74-1.41,1.12a41.15,41.15,0,0,1-12.7,6.44,57.56,57.56,0,0,1-14.09,2.44,53.1,53.1,0,0,1-14.27-1.18A62,62,0,0,1,140,128.26a40.47,40.47,0,0,1-9.26-11,35.18,35.18,0,0,1-2.9-6.59l-.3-.85-.23-.87-.45-1.74c-.2-1.19-.47-2.36-.56-3.56a24.69,24.69,0,0,1,2.29-14A18.71,18.71,0,0,1,132.91,84a7.23,7.23,0,0,1,3.2-1.57A4.93,4.93,0,0,1,139.6,83Z"/>
      </g>
      <path class="cls-4" d="M125.65,83.24c-.56-.44-1.09-.92-1.67-1.33a14.48,14.48,0,0,0-1.81-1.09,12.15,12.15,0,0,0-4-1.31,13.13,13.13,0,0,0-4.15,0,13.45,13.45,0,0,0-3.92,1.27h0a.44.44,0,0,1-.59-.18.49.49,0,0,1,0-.29,10.48,10.48,0,0,1,1.84-4,8.49,8.49,0,0,1,3.4-2.77,10.1,10.1,0,0,1,4.26-.81c.72,0,1.43.14,2.14.2l2.09.46-.14.32a9.68,9.68,0,0,1-2.28-2.46,14.49,14.49,0,0,1-1.53-3,21,21,0,0,1-.94-3.2c-.12-.54-.19-1.1-.29-1.64l-.17-1.66a.29.29,0,0,1,.26-.32h0a23.78,23.78,0,0,1,7.33.62A19.81,19.81,0,0,1,129,63.3a19,19,0,0,1,3.26,1.82l-.81.49a9.71,9.71,0,0,1,.28-3.91,8.19,8.19,0,0,1,1.9-3.43,9.24,9.24,0,0,1,3.23-2.2,15.14,15.14,0,0,1,1.84-.59c.63-.12,1.26-.21,1.89-.31a.44.44,0,0,1,.51.36.48.48,0,0,1-.09.35l0,0a10,10,0,0,0-1.69,3.17,6.11,6.11,0,0,0-.1,3.54,6.7,6.7,0,0,0,2,3,17,17,0,0,0,1.48,1.14l1.65.9h0a.06.06,0,0,1,0,.07.07.07,0,0,1-.07,0L142.54,67a18.61,18.61,0,0,1-1.61-1.06,6.92,6.92,0,0,1-2.31-3.11,6.67,6.67,0,0,1-.07-3.93,10.8,10.8,0,0,1,1.75-3.53l.4.73-1.77.35a15.89,15.89,0,0,0-1.68.59,8.25,8.25,0,0,0-2.86,2,7.31,7.31,0,0,0-1.65,3,9.65,9.65,0,0,0-.28,3.46h0A.51.51,0,0,1,132,66a.53.53,0,0,1-.35-.09,18.5,18.5,0,0,0-3-1.77A20.4,20.4,0,0,0,125.27,63a24.05,24.05,0,0,0-3.5-.68,25,25,0,0,0-3.56-.18l.28-.32.1,1.63c.07.53.12,1.08.21,1.61a18.09,18.09,0,0,0,.81,3.16,14.41,14.41,0,0,0,1.46,2.91,8.44,8.44,0,0,0,2.2,2.33.19.19,0,0,1,0,.25.19.19,0,0,1-.19.07l-2-.41a18.19,18.19,0,0,0-2.08-.09,9.53,9.53,0,0,0-4,.95,8.5,8.5,0,0,0-3,2.63,11.07,11.07,0,0,0-1.67,3.65l-.65-.46a13.79,13.79,0,0,1,4.23-1.29,12.85,12.85,0,0,1,8.44,1.69,15.8,15.8,0,0,1,1.78,1.25c.56.46,1,1,1.56,1.48a0,0,0,0,1,0,.07,0,0,0,0,1-.06,0Z"/>
      <g>
        <g>
          <g>
            <path class="cls-3" d="M142.25,86.19c.1,2.13-2.51,4.48-5,4.48S132.12,89.09,132,87s2.34-4.33,4.84-4.33S142.14,84.05,142.25,86.19Z"/>
            <path class="cls-4" d="M142.35,86.18a5.72,5.72,0,0,1-4.83,5.52,6.42,6.42,0,0,1-4-1A5.87,5.87,0,0,1,132,89.24a4,4,0,0,1-.77-2.13,4.59,4.59,0,0,1,1.88-3.68,5.82,5.82,0,0,1,3.68-1.32,6.93,6.93,0,0,1,3.54,1.16A4.15,4.15,0,0,1,142.35,86.18Zm-.21,0a3,3,0,0,0-2.06-2.53,7.46,7.46,0,0,0-3.31-.5,4.54,4.54,0,0,0-2.81,1.3,3.1,3.1,0,0,0-1.1,2.51,2.82,2.82,0,0,0,1.71,1.94,7,7,0,0,0,2.84.7,6,6,0,0,0,2.9-.77A3.26,3.26,0,0,0,142.14,86.19Z"/>
          </g>
          <g>
            <path class="cls-3" d="M149.48,87.71c.93,2-.55,5.05-2.85,5.82s-5.35.09-6.28-1.91.44-4.84,2.75-5.62S148.54,85.71,149.48,87.71Z"/>
            <path class="cls-4" d="M149.57,87.67a5.22,5.22,0,0,1,.17,3.72,4.78,4.78,0,0,1-2.69,3.1,6.45,6.45,0,0,1-4.09.19,5.19,5.19,0,0,1-3.32-2.61,4.53,4.53,0,0,1,.3-4.1,5.2,5.2,0,0,1,3-2.48,6.77,6.77,0,0,1,3.71.08A4.65,4.65,0,0,1,149.57,87.67Zm-.19.09A3.28,3.28,0,0,0,146.6,86a7.18,7.18,0,0,0-3.3.49,4,4,0,0,0-2.15,2.1,3,3,0,0,0,0,2.73,3.17,3.17,0,0,0,2.31,1.34,7,7,0,0,0,2.91-.14,5,5,0,0,0,2.39-1.63A3.18,3.18,0,0,0,149.38,87.76Z"/>
          </g>
          <g>
            <path class="cls-3" d="M156.93,94.53a4.6,4.6,0,0,1-5.8,2.14c-2.35-.85-4.14-3.18-3.32-5.15s4.07-3.13,6.42-2.28A4.15,4.15,0,0,1,156.93,94.53Z"/>
            <path class="cls-4" d="M157,94.57a5.26,5.26,0,0,1-2.45,2.68,4.94,4.94,0,0,1-3.92.35,6,6,0,0,1-3.18-2.43,4.92,4.92,0,0,1-.75-2,3.58,3.58,0,0,1,.44-2.2,5.25,5.25,0,0,1,3.2-2.31,6.39,6.39,0,0,1,3.75,0,4.67,4.67,0,0,1,2.7,2.45A4.53,4.53,0,0,1,157,94.57Zm-.2-.08a3.13,3.13,0,0,0-.39-3.16,4.43,4.43,0,0,0-2.62-1.66,5.17,5.17,0,0,0-3,.26,3.8,3.8,0,0,0-2.13,1.78,2.14,2.14,0,0,0,.51,2.27,6.42,6.42,0,0,0,2.23,1.67,5.61,5.61,0,0,0,2.83.54A3.14,3.14,0,0,0,156.83,94.49Z"/>
          </g>
          <g>
            <path class="cls-3" d="M162.6,100.09a4.6,4.6,0,0,1-5.8,2.14c-2.35-.85-4.14-3.17-3.32-5.14s4.07-3.13,6.42-2.28A4.13,4.13,0,0,1,162.6,100.09Z"/>
            <path class="cls-4" d="M162.7,100.13a5.26,5.26,0,0,1-2.45,2.68,5,5,0,0,1-3.92.36,6,6,0,0,1-3.18-2.44,4.92,4.92,0,0,1-.75-2,3.6,3.6,0,0,1,.44-2.2A5.27,5.27,0,0,1,156,94.2a6.34,6.34,0,0,1,3.76,0,4.65,4.65,0,0,1,2.7,2.44A4.53,4.53,0,0,1,162.7,100.13Zm-.2-.08a3.15,3.15,0,0,0-.39-3.16,4.43,4.43,0,0,0-2.62-1.66,5.25,5.25,0,0,0-3,.26,3.84,3.84,0,0,0-2.13,1.78,2.14,2.14,0,0,0,.51,2.27,6.42,6.42,0,0,0,2.23,1.67,5.61,5.61,0,0,0,2.83.54A3.14,3.14,0,0,0,162.5,100.05Z"/>
          </g>
          <g>
            <path class="cls-3" d="M169.06,104.11a4.89,4.89,0,0,1-6.33,2.32,4.11,4.11,0,0,1-2-5.41c.82-2,3.69-3.19,6.14-2.63C170.21,99.16,169.89,102.14,169.06,104.11Z"/>
            <path class="cls-4" d="M169.16,104.15a6.22,6.22,0,0,1-2.4,2.83,4.7,4.7,0,0,1-4,.58,4.8,4.8,0,0,1-3-3,5.29,5.29,0,0,1,.42-4.17A5.57,5.57,0,0,1,163.31,98a6.58,6.58,0,0,1,3.83,0,4.06,4.06,0,0,1,1.69,1,3,3,0,0,1,.87,1.71A7.19,7.19,0,0,1,169.16,104.15Zm-.19-.08a4.56,4.56,0,0,0,.31-3.35,2.92,2.92,0,0,0-2.41-1.78,5.35,5.35,0,0,0-3.11.32,4,4,0,0,0-2.17,1.91,3.28,3.28,0,0,0,0,2.66,3.77,3.77,0,0,0,1.87,1.78,4.83,4.83,0,0,0,2.85.34A3.65,3.65,0,0,0,169,104.07Z"/>
          </g>
          <g>
            <path class="cls-3" d="M176.05,108.13c-.82,2-3.86,2.93-6.36,1.7a3.59,3.59,0,0,1-2-5,4.58,4.58,0,0,1,5.81-2.16C176.72,104,176.87,106.16,176.05,108.13Z"/>
            <path class="cls-4" d="M176.15,108.17a5.28,5.28,0,0,1-6.31,2.86,6.24,6.24,0,0,1-1.78-1,4.4,4.4,0,0,1-1.32-1.68,4.35,4.35,0,0,1-.31-2.15,5.42,5.42,0,0,1,.62-1.92,5.29,5.29,0,0,1,6.78-2,4.66,4.66,0,0,1,2.54,2.49A5,5,0,0,1,176.15,108.17Zm-.2-.08a3.31,3.31,0,0,0,0-3.13,4.53,4.53,0,0,0-2.53-1.71,4.25,4.25,0,0,0-2.9,0,3.42,3.42,0,0,0-2,1.78,3.56,3.56,0,0,0-.26,1.31,2.18,2.18,0,0,0,.31,1.12,4.38,4.38,0,0,0,2,1.57,6.28,6.28,0,0,0,2.79.58A3,3,0,0,0,176,108.09Z"/>
          </g>
          <g>
            <path class="cls-3" d="M184.62,111.14c-.87,2.09-4.35,3-7.29,1.6-2.62-1.26-3.37-3.29-2.5-5.38s3.91-3.17,6.64-2.12C185.22,106.68,185.49,109.05,184.62,111.14Z"/>
            <path class="cls-4" d="M184.72,111.18a5.09,5.09,0,0,1-2.93,2.63,6.2,6.2,0,0,1-4.19.17,7.5,7.5,0,0,1-1.94-1,5.29,5.29,0,0,1-1.55-1.7,4.43,4.43,0,0,1-.55-2.33,5,5,0,0,1,.62-2.19,5.12,5.12,0,0,1,3.54-2.45,6.78,6.78,0,0,1,4.06.46,5.91,5.91,0,0,1,3,2.6A4.65,4.65,0,0,1,184.72,111.18Zm-.2-.08a3.39,3.39,0,0,0-.16-3.48,6,6,0,0,0-3-1.85,5.56,5.56,0,0,0-3.35-.11,3.65,3.65,0,0,0-2.36,1.88,2.69,2.69,0,0,0,.2,2.7,6.1,6.1,0,0,0,2.44,1.78,8,8,0,0,0,3.23.7A3.24,3.24,0,0,0,184.52,111.1Z"/>
          </g>
          <g>
            <path class="cls-3" d="M192,114.91c-.88,2.08-4,3.15-6.45,1.9a3.72,3.72,0,0,1-1.89-5.16,4.69,4.69,0,0,1,5.91-2.38C192.72,110.51,192.83,112.82,192,114.91Z"/>
            <path class="cls-4" d="M192.05,115a5.28,5.28,0,0,1-2.47,2.67,5.08,5.08,0,0,1-3.93.39,6,6,0,0,1-1.83-1,4.3,4.3,0,0,1-1.5-4,5.85,5.85,0,0,1,.65-1.94,5.37,5.37,0,0,1,6.88-2.24,4.48,4.48,0,0,1,2.53,2.62A5.42,5.42,0,0,1,192.05,115Zm-.19-.08a3.66,3.66,0,0,0,.11-3.24,4.2,4.2,0,0,0-2.52-1.82,4,4,0,0,0-5,2,3.06,3.06,0,0,0,0,2.58,4.06,4.06,0,0,0,1.94,1.65,5.86,5.86,0,0,0,2.85.51A3.18,3.18,0,0,0,191.86,114.87Z"/>
          </g>
          <g>
            <path class="cls-3" d="M200,116.16a4.81,4.81,0,0,1-5.74,3.71c-2.42-.69-4.45-1.85-4.08-5.1.25-2.24,3.81-3.7,6.28-3.24C199.8,112.16,200.3,113.94,200,116.16Z"/>
            <path class="cls-4" d="M200.05,116.18a6.23,6.23,0,0,1-1.77,3.42,4.58,4.58,0,0,1-4,1.35,8.77,8.77,0,0,1-2-.6,5.79,5.79,0,0,1-1.81-1.24,4.5,4.5,0,0,1-1.12-2,5.63,5.63,0,0,1-.1-2.15,2.66,2.66,0,0,1,.1-.56,1.9,1.9,0,0,1,.2-.58,3.37,3.37,0,0,1,.64-1,5.46,5.46,0,0,1,1.71-1.21,7.59,7.59,0,0,1,3.89-.71,7.34,7.34,0,0,1,1.89.53,4.34,4.34,0,0,1,1.6,1.12A4.39,4.39,0,0,1,200.05,116.18Zm-.21,0a4.75,4.75,0,0,0,0-1.8,2.49,2.49,0,0,0-.88-1.46,5.78,5.78,0,0,0-3.24-.91,6.5,6.5,0,0,0-3.2.86,2.7,2.7,0,0,0-1.61,2.23,2.89,2.89,0,0,0,1,2.55,8.39,8.39,0,0,0,2.76,1.29,4.35,4.35,0,0,0,2.94-.23A3.71,3.71,0,0,0,199.84,116.15Z"/>
          </g>
          <g>
            <path class="cls-3" d="M205.74,118.39a3.89,3.89,0,0,1-4.65,3c-2-.56-3.61-1.5-3.31-4.13.2-1.82,3.09-3,5.09-2.63C205.62,115.14,206,116.58,205.74,118.39Z"/>
            <path class="cls-4" d="M205.84,118.4a5.3,5.3,0,0,1-1.39,2.86,3.8,3.8,0,0,1-3.35,1.21,7.12,7.12,0,0,1-1.64-.5,5,5,0,0,1-1.52-1,4,4,0,0,1-.94-1.73,5.07,5.07,0,0,1-.07-1.81,2.87,2.87,0,0,1,.26-1,3.42,3.42,0,0,1,.56-.81,4.82,4.82,0,0,1,1.43-1,6.31,6.31,0,0,1,3.22-.55,5.25,5.25,0,0,1,1.55.45,3.47,3.47,0,0,1,1.3,1A3.65,3.65,0,0,1,205.84,118.4Zm-.2,0a2.51,2.51,0,0,0-.69-2.61,4.78,4.78,0,0,0-2.61-.67,5.08,5.08,0,0,0-2.53.72,3.2,3.2,0,0,0-.91.78,1.41,1.41,0,0,0-.24.45.52.52,0,0,0,0,.21.87.87,0,0,0,0,.26,2.16,2.16,0,0,0,.78,1.92,7.52,7.52,0,0,0,2.15,1,3.47,3.47,0,0,0,2.28-.08A2.84,2.84,0,0,0,205.64,118.37Z"/>
          </g>
          <g>
            <path class="cls-3" d="M209.13,125.24c-2.42-.26-5.45-1.93-5-4.15.43-2,2.16-3.42,5.69-3.16a4.22,4.22,0,0,1,3.53,4.87C213,124.48,211.56,125.51,209.13,125.24Z"/>
            <path class="cls-4" d="M209.12,125.35a13.48,13.48,0,0,1-3.39-.67,4.78,4.78,0,0,1-1.65-1,3.13,3.13,0,0,1-1-2,4.16,4.16,0,0,1,.5-2.14A4.23,4.23,0,0,1,205,118a6.65,6.65,0,0,1,3.71-.92,7.76,7.76,0,0,1,1.85.22,4.35,4.35,0,0,1,1.72,1,5.11,5.11,0,0,1,1.64,3.3,3.38,3.38,0,0,1-1.51,3.19A5.5,5.5,0,0,1,209.12,125.35Zm0-.21a3.61,3.61,0,0,0,3-.74,2.91,2.91,0,0,0,.74-2.72,3.91,3.91,0,0,0-1.47-2.39,2.84,2.84,0,0,0-1.21-.53,6.86,6.86,0,0,0-1.44,0,4.38,4.38,0,0,0-2.55.92,3,3,0,0,0-1.06,1.94,3,3,0,0,0,1.13,2.11A5.41,5.41,0,0,0,209.14,125.14Z"/>
          </g>
        </g>
        <g>
          <g>
            <path class="cls-3" d="M138,92.37c.12,2.34-2.34,4.63-5.08,4.63s-5.53-1-5.65-3.4,2.39-5.41,5.13-5.41S137.89,90,138,92.37Z"/>
            <path class="cls-4" d="M138.11,92.36a5.62,5.62,0,0,1-5.25,5.69,8,8,0,0,1-4.18-.93,4.8,4.8,0,0,1-1.74-1.65,3.65,3.65,0,0,1-.49-2.41,6.4,6.4,0,0,1,2.06-3.75,5.6,5.6,0,0,1,3.86-1.64,6.55,6.55,0,0,1,3.74,1.42A4.85,4.85,0,0,1,138.11,92.36Zm-.21,0a3.54,3.54,0,0,0-2-2.92,6.83,6.83,0,0,0-3.49-.73,5.09,5.09,0,0,0-4.26,4.49,2.11,2.11,0,0,0,1.51,2.07,9.59,9.59,0,0,0,3.24.67,5.77,5.77,0,0,0,3.15-.68A3.43,3.43,0,0,0,137.9,92.37Z"/>
          </g>
          <g>
            <path class="cls-3" d="M145.8,95.15c.12,2.34-2.34,4.63-5.08,4.63s-5.54-1-5.65-3.4S137.46,91,140.2,91,145.69,92.8,145.8,95.15Z"/>
            <path class="cls-4" d="M145.91,95.14a5.62,5.62,0,0,1-5.25,5.69,8,8,0,0,1-4.19-.93,4.64,4.64,0,0,1-1.74-1.65,3.75,3.75,0,0,1-.49-2.4,6.51,6.51,0,0,1,2.06-3.76,5.64,5.64,0,0,1,3.86-1.64,6.58,6.58,0,0,1,3.75,1.42A4.87,4.87,0,0,1,145.91,95.14Zm-.21,0a3.54,3.54,0,0,0-2-2.92,6.89,6.89,0,0,0-3.5-.73A5.11,5.11,0,0,0,135.91,96a2.13,2.13,0,0,0,1.51,2.07,9.64,9.64,0,0,0,3.25.67,5.73,5.73,0,0,0,3.14-.68A3.42,3.42,0,0,0,145.7,95.15Z"/>
          </g>
          <g>
            <path class="cls-3" d="M154.3,98.35c-.72,2.23-3.89,3.7-6.53,2.94s-5-2.53-4.25-4.75,4.21-4.41,6.85-3.65S155,96.13,154.3,98.35Z"/>
            <path class="cls-4" d="M154.4,98.39a5.9,5.9,0,0,1-2.53,3.11,5.69,5.69,0,0,1-4.24.83,7.9,7.9,0,0,1-3.83-2,4.39,4.39,0,0,1-1.22-2.12,3.55,3.55,0,0,1,.36-2.46,6.92,6.92,0,0,1,3.17-2.86,5.61,5.61,0,0,1,7.43,1.76A4.44,4.44,0,0,1,154.4,98.39Zm-.2-.07a3.26,3.26,0,0,0-1-3.38A6.32,6.32,0,0,0,150,93.35a5,5,0,0,0-3.28.75,5.43,5.43,0,0,0-2.29,2.37c-.85,1.83,1.63,3.13,3.7,3.83a6.41,6.41,0,0,0,3.28.17A3.7,3.7,0,0,0,154.2,98.32Z"/>
          </g>
          <g>
            <path class="cls-3" d="M158.9,103c.1,2-1.73,3.71-4.09,3.71a4.26,4.26,0,0,1-4.45-3.71c-.1-2,1.73-3.71,4.09-3.71A4.26,4.26,0,0,1,158.9,103Z"/>
            <path class="cls-4" d="M159,103a4.4,4.4,0,0,1-1,3.18,4.48,4.48,0,0,1-3.3,1.58,5.14,5.14,0,0,1-3.53-1.27,4.71,4.71,0,0,1-1.64-3.44,4.08,4.08,0,0,1,1.68-3.31,5.1,5.1,0,0,1,3.36-1A4.85,4.85,0,0,1,159,103Zm-.21,0a3,3,0,0,0-1.49-2.51,4.76,4.76,0,0,0-2.77-.67,3.83,3.83,0,0,0-2.48,1,2.59,2.59,0,0,0-.87,2.18,2.72,2.72,0,0,0,1.26,1.9,5,5,0,0,0,2.28.8,5.08,5.08,0,0,0,2.55-.35A2.55,2.55,0,0,0,158.8,103Z"/>
          </g>
          <g>
            <path class="cls-3" d="M165.67,106a4.13,4.13,0,0,1-4.42,4.09,4.65,4.65,0,0,1-4.83-4.09,4.13,4.13,0,0,1,4.42-4.09A4.65,4.65,0,0,1,165.67,106Z"/>
            <path class="cls-4" d="M165.77,106a4.76,4.76,0,0,1-4.65,5.15,5.47,5.47,0,0,1-3.8-1.4,5.13,5.13,0,0,1-1.73-3.7,4.44,4.44,0,0,1,1.75-3.57,5.29,5.29,0,0,1,3.62-1.08A5.23,5.23,0,0,1,165.77,106Zm-.21,0a3.41,3.41,0,0,0-1.59-2.78,5.11,5.11,0,0,0-3-.8,4.14,4.14,0,0,0-2.72,1.07,2.94,2.94,0,0,0-1,2.46,3.09,3.09,0,0,0,1.38,2.18,5,5,0,0,0,2.52.9,5.09,5.09,0,0,0,2.79-.45A2.87,2.87,0,0,0,165.56,106.05Z"/>
          </g>
          <g>
            <path class="cls-3" d="M172.5,110.52a4.14,4.14,0,0,1-4.42,4.1,4.65,4.65,0,0,1-4.82-4.1c-.11-2.26,2.61-5,5.16-5S172.39,108.26,172.5,110.52Z"/>
            <path class="cls-4" d="M172.61,110.52a4.71,4.71,0,0,1-1.24,3.56,4.86,4.86,0,0,1-3.8,1.56,5.47,5.47,0,0,1-3.84-1.77,4.82,4.82,0,0,1-1.25-4.11,6.06,6.06,0,0,1,2.21-3.38,5.86,5.86,0,0,1,3.67-1.4,3.54,3.54,0,0,1,1.92.63,4.47,4.47,0,0,1,1.28,1.43A8.84,8.84,0,0,1,172.61,110.52Zm-.21,0a5.19,5.19,0,0,0-1.2-3.24,3.34,3.34,0,0,0-2.83-1.26,5.11,5.11,0,0,0-4.24,4,2.88,2.88,0,0,0,1.07,2.39,4.88,4.88,0,0,0,2.54,1.14,5.11,5.11,0,0,0,2.94-.35A3,3,0,0,0,172.4,110.53Z"/>
          </g>
          <g>
            <path class="cls-3" d="M176.59,117.2a5.09,5.09,0,0,1-6.49-.91,3.75,3.75,0,0,1,.74-5.73c2-1.33,6.21-.89,7.8.94S178.59,115.88,176.59,117.2Z"/>
            <path class="cls-4" d="M176.65,117.29a6.45,6.45,0,0,1-3.61,1.18,5,5,0,0,1-3.81-1.6,4.56,4.56,0,0,1-1-4.3,4.9,4.9,0,0,1,3-3.13,7.83,7.83,0,0,1,4-.24,6.73,6.73,0,0,1,3.55,1.65,3,3,0,0,1,.91,1.86,3.4,3.4,0,0,1-.47,1.91A8.78,8.78,0,0,1,176.65,117.29Zm-.12-.17a5.24,5.24,0,0,0,2.23-2.67,2.8,2.8,0,0,0,.09-1.61,2.26,2.26,0,0,0-.83-1.22,5.65,5.65,0,0,0-3-1.07,6.35,6.35,0,0,0-3.16.44,2.89,2.89,0,0,0-1.62,2.08,3.28,3.28,0,0,0,.63,2.47,5.28,5.28,0,0,0,2.37,1.83A3.82,3.82,0,0,0,176.53,117.12Z"/>
          </g>
          <g>
            <path class="cls-3" d="M184.14,120.8a5.1,5.1,0,0,1-6.49-.92,3.75,3.75,0,0,1,.74-5.73c2-1.32,6.21-.89,7.8.94S186.14,119.47,184.14,120.8Z"/>
            <path class="cls-4" d="M184.2,120.88a6.45,6.45,0,0,1-3.61,1.18,5,5,0,0,1-3.81-1.6,4.55,4.55,0,0,1-1-4.3,4.9,4.9,0,0,1,3-3.13,7.83,7.83,0,0,1,4-.24,6.73,6.73,0,0,1,3.55,1.65,3,3,0,0,1,.91,1.86,3.45,3.45,0,0,1-.47,1.92A8.75,8.75,0,0,1,184.2,120.88Zm-.12-.17a5.2,5.2,0,0,0,2.23-2.67,2.8,2.8,0,0,0,.09-1.61,2.34,2.34,0,0,0-.83-1.22,5.65,5.65,0,0,0-3-1.07,6.46,6.46,0,0,0-3.16.44,2.89,2.89,0,0,0-1.62,2.09,3.27,3.27,0,0,0,.63,2.46,5.28,5.28,0,0,0,2.37,1.83A3.79,3.79,0,0,0,184.08,120.71Z"/>
          </g>
          <g>
            <path class="cls-3" d="M193.5,120c.1,2-1.73,3.71-4.08,3.71A4.26,4.26,0,0,1,185,120c-.1-2,1.73-3.7,4.08-3.7A4.26,4.26,0,0,1,193.5,120Z"/>
            <path class="cls-4" d="M193.61,120a4.41,4.41,0,0,1-4.31,4.75,5.07,5.07,0,0,1-3.53-1.26,4.72,4.72,0,0,1-1.63-3.45,4.07,4.07,0,0,1,1.67-3.3,5,5,0,0,1,3.35-1A4.86,4.86,0,0,1,193.61,120Zm-.21,0a3,3,0,0,0-1.48-2.51,4.81,4.81,0,0,0-2.78-.68,3.89,3.89,0,0,0-2.47,1,2.54,2.54,0,0,0-.86,2.17,2.69,2.69,0,0,0,1.26,1.91,4.76,4.76,0,0,0,2.27.79,4.93,4.93,0,0,0,2.54-.35A2.53,2.53,0,0,0,193.4,120Z"/>
          </g>
          <g>
            <path class="cls-3" d="M202,122.42c.1,2.17-2.07,3.94-4.86,3.94s-5.14-1.77-5.24-3.94,2.07-3.94,4.85-3.94S201.87,120.24,202,122.42Z"/>
            <path class="cls-4" d="M202.08,122.41a4.37,4.37,0,0,1-1.4,3.45A5.46,5.46,0,0,1,197,127.4a6.17,6.17,0,0,1-3.9-1.22,4.88,4.88,0,0,1-2.05-3.72,4.22,4.22,0,0,1,2.06-3.58,6.32,6.32,0,0,1,3.75-.92,5.93,5.93,0,0,1,3.45,1.37A4.61,4.61,0,0,1,202.08,122.41Zm-.21,0a3.29,3.29,0,0,0-1.81-2.73,6.23,6.23,0,0,0-3.23-.68,5.09,5.09,0,0,0-3,1,2.72,2.72,0,0,0-1.17,2.39,2.92,2.92,0,0,0,1.55,2.1,6.53,6.53,0,0,0,2.77.83,6.67,6.67,0,0,0,3-.37A2.74,2.74,0,0,0,201.87,122.42Z"/>
          </g>
          <g>
            <path class="cls-3" d="M209.83,126.44c.11,2.17-2.07,3.94-4.85,3.94s-5.14-1.77-5.25-3.94,2.07-3.94,4.86-3.94S209.73,124.26,209.83,126.44Z"/>
            <path class="cls-4" d="M209.94,126.43a4.42,4.42,0,0,1-1.4,3.45,5.53,5.53,0,0,1-3.69,1.54,6.26,6.26,0,0,1-3.91-1.22,4.9,4.9,0,0,1-2-3.72A4.22,4.22,0,0,1,201,122.9a6.25,6.25,0,0,1,3.75-.92,6,6,0,0,1,3.45,1.37A4.61,4.61,0,0,1,209.94,126.43Zm-.21,0a3.25,3.25,0,0,0-1.82-2.73,6.3,6.3,0,0,0-3.22-.69,5.2,5.2,0,0,0-3,1,2.73,2.73,0,0,0-1.16,2.39,2.91,2.91,0,0,0,1.55,2.09,6.5,6.5,0,0,0,2.77.84,6.67,6.67,0,0,0,3-.37A2.76,2.76,0,0,0,209.73,126.44Z"/>
          </g>
        </g>
        <g>
          <g>
            <ellipse class="cls-3" cx="130.23" cy="100.71" rx="4.01" ry="4.89" transform="translate(16.83 220.05) rotate(-84.18)"/>
            <path class="cls-4" d="M135.21,100.7a4.52,4.52,0,0,1-1.27,3.46,5.2,5.2,0,0,1-3.64,1.61,5.92,5.92,0,0,1-3.87-1.3,5,5,0,0,1-1.91-3.72,4.33,4.33,0,0,1,1.93-3.59,5.91,5.91,0,0,1,3.7-1A5.39,5.39,0,0,1,135.21,100.7Zm-.21,0A3.36,3.36,0,0,0,133.28,98a5.7,5.7,0,0,0-3.15-.73,4.62,4.62,0,0,0-2.86,1,2.78,2.78,0,0,0-1.08,2.42,3,3,0,0,0,1.48,2.14,5.86,5.86,0,0,0,2.67.87,6,6,0,0,0,2.93-.41A2.81,2.81,0,0,0,135,100.71Z"/>
          </g>
          <g>
            <path class="cls-3" d="M144.12,103.49a4.42,4.42,0,0,1-4.66,4.48,5,5,0,0,1-5.09-4.48A4.43,4.43,0,0,1,139,99,5,5,0,0,1,144.12,103.49Z"/>
            <path class="cls-4" d="M144.22,103.49a5.15,5.15,0,0,1-1.12,3.69,5,5,0,0,1-3.77,1.83,5.67,5.67,0,0,1-5.8-5.48,4.89,4.89,0,0,1,1.78-3.82,5.5,5.5,0,0,1,3.84-1.22,5.37,5.37,0,0,1,3.5,1.64A5.49,5.49,0,0,1,144.22,103.49Zm-.2,0a3.84,3.84,0,0,0-1.66-3,5.22,5.22,0,0,0-3.23-.92,4.26,4.26,0,0,0-2.92,1.19,3.33,3.33,0,0,0-1,2.72,3.54,3.54,0,0,0,1.45,2.45,5.2,5.2,0,0,0,2.71,1,5.1,5.1,0,0,0,3-.58A3.22,3.22,0,0,0,144,103.5Z"/>
          </g>
          <g>
            <path class="cls-3" d="M151.34,108.23c-1.54,2.29-4.51,3.2-6.62,2s-2.57-4-1-6.27,4.51-3.2,6.62-2S152.89,105.93,151.34,108.23Z"/>
            <path class="cls-4" d="M151.43,108.28a7.91,7.91,0,0,1-2.75,2.7,4.73,4.73,0,0,1-4.23.31,4.45,4.45,0,0,1-2.64-3.65,6,6,0,0,1,1.19-4.11,6.61,6.61,0,0,1,3.32-2.41,5.21,5.21,0,0,1,4,.28,3.94,3.94,0,0,1,2.06,3.3A6.21,6.21,0,0,1,151.43,108.28Zm-.17-.11a4.18,4.18,0,0,0,.73-3.41,3.53,3.53,0,0,0-2.09-2.42,4,4,0,0,0-3.12.06,5.12,5.12,0,0,0-2.39,2.06,4,4,0,0,0-.54,2.88,3.1,3.1,0,0,0,1.51,2.07,4.6,4.6,0,0,0,2.94.52A4.48,4.48,0,0,0,151.26,108.17Z"/>
          </g>
          <g>
            <ellipse class="cls-3" cx="154.22" cy="110.27" rx="4.7" ry="4" transform="translate(-8.56 13.08) rotate(-4.72)"/>
            <path class="cls-4" d="M156.59,113.78a7.61,7.61,0,0,1-3.46,1,4.63,4.63,0,0,1-3.64-1.55,4.21,4.21,0,0,1-.79-4.17,5.27,5.27,0,0,1,2.82-2.93,5.83,5.83,0,0,1,7,1.55,3.71,3.71,0,0,1,.41,3.61A5.24,5.24,0,0,1,156.59,113.78Zm-.09-.18a3.6,3.6,0,0,0,2.05-2.47,3.25,3.25,0,0,0-.83-2.83,4.47,4.47,0,0,0-5.44-.71,3.21,3.21,0,0,0-1.6,2,2.84,2.84,0,0,0,.45,2.27,4.83,4.83,0,0,0,2.18,1.73A4.06,4.06,0,0,0,156.5,113.6Z"/>
          </g>
          <g>
            <path class="cls-3" d="M163.34,117.24a5.08,5.08,0,0,1-6.41-1.35c-1.28-1.89-.5-4.35,1.76-5.49a5.08,5.08,0,0,1,6.4,1.35C166.37,113.64,165.59,116.1,163.34,117.24Z"/>
            <path class="cls-4" d="M163.38,117.34a7.6,7.6,0,0,1-3.46,1,4.62,4.62,0,0,1-3.64-1.54,4.23,4.23,0,0,1-.79-4.18,5.31,5.31,0,0,1,2.82-2.93,5.81,5.81,0,0,1,7,1.56,3.71,3.71,0,0,1,.42,3.61A5.32,5.32,0,0,1,163.38,117.34Zm-.09-.19a3.55,3.55,0,0,0,2-2.46,3.24,3.24,0,0,0-.82-2.84,4.48,4.48,0,0,0-5.44-.71,3.23,3.23,0,0,0-1.6,2.06,2.84,2.84,0,0,0,.45,2.27,4.9,4.9,0,0,0,2.18,1.73A4.07,4.07,0,0,0,163.29,117.15Z"/>
          </g>
          <g>
            <ellipse class="cls-3" cx="167.4" cy="118.78" rx="4.34" ry="5.13" transform="translate(26.6 268.14) rotate(-82.05)"/>
            <path class="cls-4" d="M167.33,123.23a7.9,7.9,0,0,1-3.77-1,4.51,4.51,0,0,1-2.32-3.64,4.6,4.6,0,0,1,2.09-4,6.7,6.7,0,0,1,8,.61A4.91,4.91,0,0,1,173,119,4.11,4.11,0,0,1,171,122.3,6.86,6.86,0,0,1,167.33,123.23Zm0-.21a4.51,4.51,0,0,0,3.38-1.07,3.58,3.58,0,0,0-.27-5.69,5.18,5.18,0,0,0-3-1,4.48,4.48,0,0,0-2.86,1,3.3,3.3,0,0,0-1.23,2.33,4.12,4.12,0,0,0,.94,2.8A4.44,4.44,0,0,0,167.34,123Z"/>
          </g>
          <g>
            <path class="cls-3" d="M176.39,126.68c-2.83-.14-5.09-2.2-5.06-4.6s2.36-4.23,5.18-4.09,5.09,2.2,5.06,4.6S179.22,126.82,176.39,126.68Z"/>
            <path class="cls-4" d="M176.39,126.79a7.84,7.84,0,0,1-3.78-1,4.5,4.5,0,0,1-2.32-3.64,4.58,4.58,0,0,1,2.1-4,6.52,6.52,0,0,1,4.16-1,6.64,6.64,0,0,1,3.82,1.62,4.9,4.9,0,0,1,1.72,3.73,4.08,4.08,0,0,1-2.06,3.35A6.86,6.86,0,0,1,176.39,126.79Zm0-.21a4.55,4.55,0,0,0,3.37-1.08,3.64,3.64,0,0,0,1.27-3,3.74,3.74,0,0,0-1.54-2.7,5.18,5.18,0,0,0-3-1,4.38,4.38,0,0,0-2.85,1,3.29,3.29,0,0,0-1.24,2.33,4.11,4.11,0,0,0,1,2.79A4.49,4.49,0,0,0,176.4,126.58Z"/>
          </g>
          <g>
            <path class="cls-3" d="M185.28,130.55c-2.82-.14-5.09-2.2-5.05-4.6s2.35-4.24,5.18-4.1,5.09,2.2,5.05,4.6S188.11,130.69,185.28,130.55Z"/>
            <path class="cls-4" d="M185.28,130.65a7.77,7.77,0,0,1-3.77-1,4.47,4.47,0,0,1-2.32-3.63,4.59,4.59,0,0,1,2.09-4,6.74,6.74,0,0,1,8,.61,4.87,4.87,0,0,1,1.72,3.73,4.08,4.08,0,0,1-2,3.36A6.86,6.86,0,0,1,185.28,130.65Zm0-.21a4.5,4.5,0,0,0,3.37-1.08,3.55,3.55,0,0,0-.27-5.68,5.06,5.06,0,0,0-3-1,4.38,4.38,0,0,0-2.86,1,3.26,3.26,0,0,0-1.23,2.33,4.1,4.1,0,0,0,.94,2.79A4.41,4.41,0,0,0,185.29,130.44Z"/>
          </g>
          <g>
            <path class="cls-3" d="M193.86,132.11c-2.65-.13-4.77-1.78-4.75-3.68s2.2-3.33,4.85-3.19,4.77,1.77,4.75,3.67S196.51,132.24,193.86,132.11Z"/>
            <path class="cls-4" d="M193.86,132.21a9.27,9.27,0,0,1-3.38-.59,4.39,4.39,0,0,1-1.58-1.11,3.29,3.29,0,0,1-.19-4.15,4.28,4.28,0,0,1,1.6-1.35,7.3,7.3,0,0,1,7.1.62,4,4,0,0,1,1.82,3.2,2.89,2.89,0,0,1-.69,1.76,4,4,0,0,1-1.43,1A8.14,8.14,0,0,1,193.86,132.21Zm0-.21a4.54,4.54,0,0,0,3-.77,2.72,2.72,0,0,0,1.28-2.38,2.8,2.8,0,0,0-1.52-2.09,5.55,5.55,0,0,0-2.74-.69,4.78,4.78,0,0,0-2.6.75,2.33,2.33,0,0,0-1.16,1.67,3,3,0,0,0,.94,2.19A4.4,4.4,0,0,0,193.87,132Z"/>
          </g>
          <g>
            <ellipse class="cls-3" cx="200.85" cy="131.76" rx="4.65" ry="3.55" transform="translate(-27.66 57.7) rotate(-15.31)"/>
            <path class="cls-4" d="M202.87,134.89a9,9,0,0,1-3.24,1,4.12,4.12,0,0,1-3.58-1.32,3.63,3.63,0,0,1-.85-2,3.8,3.8,0,0,1,.45-2.1,5.91,5.91,0,0,1,2.86-2.51,6.75,6.75,0,0,1,3.57-.49,4.61,4.61,0,0,1,3.16,1.75,3.16,3.16,0,0,1,.57,1.77,3.25,3.25,0,0,1-.5,1.69A6.14,6.14,0,0,1,202.87,134.89Zm-.09-.19a3.82,3.82,0,0,0,2.13-2.19,2.58,2.58,0,0,0-.49-2.64,3.43,3.43,0,0,0-2.47-1,5.18,5.18,0,0,0-2.71.65,3.72,3.72,0,0,0-1.71,1.88,2.07,2.07,0,0,0,.17,2,3.9,3.9,0,0,0,2,1.48A4.26,4.26,0,0,0,202.78,134.7Z"/>
          </g>
        </g>
        <g>
          <g>
            <ellipse class="cls-3" cx="131.16" cy="109.05" rx="4.16" ry="4.89" transform="translate(6.02 224.97) rotate(-82.55)"/>
            <path class="cls-4" d="M136.14,109.05a4.74,4.74,0,0,1-1.22,3.54,5.11,5.11,0,0,1-3.68,1.68,5.85,5.85,0,0,1-3.93-1.38,5.22,5.22,0,0,1-1.86-3.8,4.48,4.48,0,0,1,1.87-3.66,5.8,5.8,0,0,1,3.76-1.07A5.45,5.45,0,0,1,136.14,109.05Zm-.21,0a3.46,3.46,0,0,0-1.7-2.85,5.49,5.49,0,0,0-3.17-.8,4.49,4.49,0,0,0-2.88,1.08,3,3,0,0,0-1.06,2.52,3.17,3.17,0,0,0,1.47,2.25,6.09,6.09,0,0,0,5.63.45A2.92,2.92,0,0,0,135.93,109.06Z"/>
          </g>
          <g>
            <path class="cls-3" d="M145.77,112.22a4.71,4.71,0,0,1-5,4.71,5.29,5.29,0,0,1-5.45-4.71,4.7,4.7,0,0,1,5-4.71A5.3,5.3,0,0,1,145.77,112.22Z"/>
            <path class="cls-4" d="M145.87,112.22a5.32,5.32,0,0,1-5.24,5.75,6,6,0,0,1-4.23-1.59,5.75,5.75,0,0,1-1.92-4.12,5.07,5.07,0,0,1,1.9-4,5.87,5.87,0,0,1,9.49,4Zm-.21,0a4,4,0,0,0-1.78-3.21,5.66,5.66,0,0,0-3.46-1,4.65,4.65,0,0,0-3.14,1.24,3.48,3.48,0,0,0-1.12,2.9,3.73,3.73,0,0,0,1.57,2.62,6,6,0,0,0,6.16.45A3.41,3.41,0,0,0,145.66,112.23Z"/>
          </g>
          <g>
            <ellipse class="cls-3" cx="149.42" cy="115.7" rx="4.77" ry="4.41" transform="translate(-9.64 13.66) rotate(-5.07)"/>
            <path class="cls-4" d="M153.76,117.7a6.24,6.24,0,0,1-2.66,2.7,5.09,5.09,0,0,1-4.11.28,5,5,0,0,1-3-3.08,5.15,5.15,0,0,1,.47-4.26,5.69,5.69,0,0,1,7.21-2.15,4.61,4.61,0,0,1,2.47,2.9A4.9,4.9,0,0,1,153.76,117.7Zm-.18-.1a3.47,3.47,0,0,0,.12-3.36,4.48,4.48,0,0,0-7.8-.09,3.11,3.11,0,0,0,0,2.71,4.07,4.07,0,0,0,1.91,1.89,5.44,5.44,0,0,0,3,.58A3.69,3.69,0,0,0,153.58,117.6Z"/>
          </g>
          <g>
            <path class="cls-3" d="M162.82,120.49c-1,1.79-3.67,2.37-6,1.29s-3.46-3.4-2.48-5.19,3.68-2.37,6-1.29S163.8,118.7,162.82,120.49Z"/>
            <path class="cls-4" d="M162.92,120.54a5.28,5.28,0,0,1-6.4,2.26,5.48,5.48,0,0,1-3-2.55,4.19,4.19,0,0,1,0-4.06,4.44,4.44,0,0,1,3.28-2,6.31,6.31,0,0,1,3.55.59C162.58,115.76,164,118.44,162.92,120.54Zm-.19-.1a2.7,2.7,0,0,0-.24-3,5.35,5.35,0,0,0-2.48-1.73,5.07,5.07,0,0,0-2.9-.21,2.92,2.92,0,0,0-2.05,1.48,2.24,2.24,0,0,0,.3,2.23,5.32,5.32,0,0,0,2,1.65,6.87,6.87,0,0,0,2.71.82A2.87,2.87,0,0,0,162.73,120.44Z"/>
          </g>
          <g>
            <path class="cls-3" d="M168.23,126.51c-1,1.79-4.13,2.11-6.28,1.13s-3.09-3.24-2.11-5,4.42-2.34,6.56-1.35A3.8,3.8,0,0,1,168.23,126.51Z"/>
            <path class="cls-4" d="M168.32,126.56a4.78,4.78,0,0,1-2.77,2.12,5.77,5.77,0,0,1-3.72,0,4.92,4.92,0,0,1-3-2.68,4.2,4.2,0,0,1,.39-4.07,5,5,0,0,1,3.4-1.76,7.3,7.3,0,0,1,3.56.41,4.06,4.06,0,0,1,2.37,2.61A4.61,4.61,0,0,1,168.32,126.56Zm-.18-.1a3.12,3.12,0,0,0,0-3.06,3.68,3.68,0,0,0-2.31-1.79,6,6,0,0,0-3-.06,3.53,3.53,0,0,0-2.25,1.35,2.22,2.22,0,0,0,.09,2.25,4.17,4.17,0,0,0,1.86,1.62,8.4,8.4,0,0,0,2.79.8A2.87,2.87,0,0,0,168.14,126.46Z"/>
          </g>
          <g>
            <path class="cls-3" d="M177.18,129.12c-.41,2.21-3.5,3.44-6,3a4.33,4.33,0,0,1-3.77-4.83c.41-2.21,3.72-3.77,6.22-3.31A4.49,4.49,0,0,1,177.18,129.12Z"/>
            <path class="cls-4" d="M177.28,129.14a4.73,4.73,0,0,1-2.21,3,5.87,5.87,0,0,1-3.9,1,5.34,5.34,0,0,1-3.71-2.09,4.79,4.79,0,0,1-.8-4.24,5.06,5.06,0,0,1,2.94-2.89,7,7,0,0,1,3.85-.52,4.48,4.48,0,0,1,3.1,2.18A5.42,5.42,0,0,1,177.28,129.14Zm-.2,0a3.75,3.75,0,0,0-.88-3.25,4.18,4.18,0,0,0-2.89-1.4,5.75,5.75,0,0,0-3.13.71,3.57,3.57,0,0,0-1.91,2.11,2.82,2.82,0,0,0,.8,2.49,4.78,4.78,0,0,0,2.42,1.33,7.8,7.8,0,0,0,3.13.06A3,3,0,0,0,177.08,129.1Z"/>
          </g>
          <g>
            <ellipse class="cls-3" cx="180.67" cy="131.77" rx="3.7" ry="4.88" transform="translate(37.17 303.27) rotate(-86.19)"/>
            <path class="cls-4" d="M185.65,131.76a4.18,4.18,0,0,1-1.37,3.3,5.4,5.4,0,0,1-3.55,1.46,6.07,6.07,0,0,1-3.76-1.14,4.68,4.68,0,0,1-2-3.57,4,4,0,0,1,2-3.43,6.19,6.19,0,0,1,3.6-.84,5.91,5.91,0,0,1,3.32,1.29A4.4,4.4,0,0,1,185.65,131.76Zm-.21,0a3.06,3.06,0,0,0-1.77-2.57,6.08,6.08,0,0,0-3.09-.61,5,5,0,0,0-2.83.92,2.5,2.5,0,0,0-1.12,2.22,2.71,2.71,0,0,0,1.49,1.93,6.74,6.74,0,0,0,2.65.77,7,7,0,0,0,2.88-.3A2.58,2.58,0,0,0,185.44,131.77Z"/>
          </g>
          <g>
            <path class="cls-3" d="M194.18,134.36a4,4,0,0,1-4.31,4c-2.69,0-5-1.66-5.05-3.71s2-3.71,4.69-3.71S194.08,132.31,194.18,134.36Z"/>
            <path class="cls-4" d="M194.29,134.36a4.85,4.85,0,0,1-1,3.36,4.58,4.58,0,0,1-3.43,1.74,6.1,6.1,0,0,1-3.7-1A4.75,4.75,0,0,1,184,135a3.65,3.65,0,0,1,.42-2,4.18,4.18,0,0,1,1.32-1.47,6.2,6.2,0,0,1,6.83,0A3.87,3.87,0,0,1,194.29,134.36Zm-.21,0a2.73,2.73,0,0,0-1.72-2.49,6.23,6.23,0,0,0-3.08-.35,4.75,4.75,0,0,0-2.7,1.05,2.38,2.38,0,0,0-.91,2.24,2.79,2.79,0,0,0,1.57,1.84,6.79,6.79,0,0,0,2.62.7,4.86,4.86,0,0,0,2.67-.47A2.89,2.89,0,0,0,194.08,134.37Z"/>
          </g>
        </g>
        <g>
          <path class="cls-3" d="M141,118c.1,2-1.7,3.55-4,3.55s-5.13-1.67-5.23-3.64,2.57-3.47,4.88-3.47S140.9,116.05,141,118Z"/>
          <path class="cls-4" d="M141.1,118a4.13,4.13,0,0,1-1.16,3.2,4.52,4.52,0,0,1-3.45,1.38,6.41,6.41,0,0,1-3.47-1.22,6,6,0,0,1-1.36-1.36,3.67,3.67,0,0,1-.72-2,3.11,3.11,0,0,1,.66-2,4.79,4.79,0,0,1,1.43-1.21,6.74,6.74,0,0,1,3.37-.89A4.76,4.76,0,0,1,141.1,118Zm-.2,0a3,3,0,0,0-1.59-2.5,4.85,4.85,0,0,0-2.87-.53,5.73,5.73,0,0,0-2.68,1,2.21,2.21,0,0,0-1.15,2,2.81,2.81,0,0,0,1.54,1.71,8.24,8.24,0,0,0,2.51.87,5.08,5.08,0,0,0,2.63-.21A2.48,2.48,0,0,0,140.9,118Z"/>
        </g>
        <g>
          <path class="cls-3" d="M147.84,120.84a3.77,3.77,0,0,1-2.44,5.21c-2.32.76-5.91-.14-6.88-2.26s1-4.65,3.36-5.41A5,5,0,0,1,147.84,120.84Z"/>
          <path class="cls-4" d="M147.93,120.79a4.6,4.6,0,0,1,.25,3.74,4.48,4.48,0,0,1-3.13,2.69,6.86,6.86,0,0,1-4-.28,5.57,5.57,0,0,1-3.19-2.7,3.49,3.49,0,0,1-.25-2.22,4.58,4.58,0,0,1,.88-1.89,6.39,6.39,0,0,1,3.18-2.22,5.15,5.15,0,0,1,3.73.38A5.71,5.71,0,0,1,147.93,120.79Zm-.19.09a3.85,3.85,0,0,0-2.54-2.18,5,5,0,0,0-3.23.2,5.23,5.23,0,0,0-2.41,2,2.47,2.47,0,0,0-.24,2.59,3.57,3.57,0,0,0,2.33,1.47,8.17,8.17,0,0,0,3,.2,4.21,4.21,0,0,0,2.58-1.2A2.87,2.87,0,0,0,147.74,120.88Z"/>
        </g>
        <g>
          <path class="cls-3" d="M158,125c-.59,2-3.23,3.13-5.89,2.43s-4.33-2.92-3.74-5,3.23-3.13,5.89-2.43S158.61,123,158,125Z"/>
          <path class="cls-4" d="M158.12,125c-.59,2.36-3.54,4-6.19,3.43a6,6,0,0,1-3.47-2.09,4.51,4.51,0,0,1-.87-4.14,4.42,4.42,0,0,1,3-2.74,6.69,6.69,0,0,1,3.79,0,5.9,5.9,0,0,1,3,2.12A4.13,4.13,0,0,1,158.12,125Zm-.2-.06a3,3,0,0,0-.92-3,5.9,5.9,0,0,0-2.9-1.39,5.4,5.4,0,0,0-3.07.24,2.87,2.87,0,0,0-1.83,1.93A2.52,2.52,0,0,0,150,125a6.31,6.31,0,0,0,2.42,1.42,7.23,7.23,0,0,0,3,.37A2.88,2.88,0,0,0,157.92,125Z"/>
        </g>
        <g>
          <path class="cls-3" d="M155.61,131.2c-.52,1.78-3,2.69-5.46,2s-4.11-2.63-3.59-4.42,3-2.69,5.46-2S156.12,129.42,155.61,131.2Z"/>
          <path class="cls-4" d="M155.71,131.23c-.59,2.18-3.39,3.55-5.78,3a5.94,5.94,0,0,1-3.22-1.83,4.91,4.91,0,0,1-1-1.75,3.5,3.5,0,0,1,0-2.1,4,4,0,0,1,2.89-2.44,6.53,6.53,0,0,1,3.46.13,5.69,5.69,0,0,1,2.77,1.88A3.67,3.67,0,0,1,155.71,131.23Zm-.2-.06a2.57,2.57,0,0,0-1-2.71,6.09,6.09,0,0,0-2.71-1.18,5.32,5.32,0,0,0-2.81.16,2.41,2.41,0,0,0-1.67,1.61,2.11,2.11,0,0,0,.84,1.94,6.65,6.65,0,0,0,2.25,1.24,7.85,7.85,0,0,0,2.72.46A2.49,2.49,0,0,0,155.51,131.17Z"/>
        </g>
        <g>
          <path class="cls-3" d="M164.12,129c-.58,2-3,3.09-5.44,2.45s-3.92-2.78-3.34-4.77,3-3.09,5.45-2.45S164.71,127,164.12,129Z"/>
          <path class="cls-4" d="M164.22,129.05a4.67,4.67,0,0,1-2.07,2.77,5.07,5.07,0,0,1-3.68.68,5.33,5.33,0,0,1-3.26-2.1,4.41,4.41,0,0,1-.67-3.93,4.35,4.35,0,0,1,2.73-2.67,5.84,5.84,0,0,1,3.6-.07A4.68,4.68,0,0,1,164.22,129.05ZM164,129a2.85,2.85,0,0,0-.75-2.9,5,5,0,0,0-2.66-1.34,4.51,4.51,0,0,0-2.82.31,2.82,2.82,0,0,0-1.64,1.87,2.47,2.47,0,0,0,.69,2.2,5.08,5.08,0,0,0,2.15,1.34,6.21,6.21,0,0,0,2.74.31A2.77,2.77,0,0,0,164,129Z"/>
        </g>
        <g>
          <path class="cls-3" d="M162.92,135.24c-.53,1.8-2.92,2.74-5.34,2.1s-4-2.62-3.44-4.42,2.91-2.74,5.34-2.1S163.44,133.44,162.92,135.24Z"/>
          <path class="cls-4" d="M163,135.27c-.54,2.14-3.25,3.63-5.66,3.1a5.63,5.63,0,0,1-3.18-1.87,4.11,4.11,0,0,1-.85-3.82,4,4,0,0,1,2.8-2.46,6.14,6.14,0,0,1,3.43.08,5.42,5.42,0,0,1,2.7,1.91A3.71,3.71,0,0,1,163,135.27Zm-.2-.06a2.59,2.59,0,0,0-.88-2.7,5.72,5.72,0,0,0-2.64-1.2,5.1,5.1,0,0,0-2.75.2,2.47,2.47,0,0,0-1.61,1.64,2.15,2.15,0,0,0,.78,2,6.12,6.12,0,0,0,2.16,1.23,7,7,0,0,0,2.66.42A2.49,2.49,0,0,0,162.82,135.21Z"/>
        </g>
        <g>
          <path class="cls-3" d="M170.81,132.1c-.6,2.07-3.05,3.23-5.48,2.59s-3.9-2.84-3.3-4.91,3.06-3.24,5.48-2.6S171.41,130,170.81,132.1Z"/>
          <path class="cls-4" d="M170.91,132.12a5,5,0,0,1-5.79,3.6,5.3,5.3,0,0,1-3.3-2.18,4.63,4.63,0,0,1-.59-4,4.53,4.53,0,0,1,2.7-2.76,5.68,5.68,0,0,1,3.66-.13A4.72,4.72,0,0,1,170.91,132.12Zm-.2-.05a3,3,0,0,0-.7-3,4.86,4.86,0,0,0-2.68-1.4,4.46,4.46,0,0,0-2.85.35,3.06,3.06,0,0,0-1.65,2,2.63,2.63,0,0,0,.66,2.3,4.85,4.85,0,0,0,2.15,1.38,5.67,5.67,0,0,0,2.77.26A2.91,2.91,0,0,0,170.71,132.07Z"/>
        </g>
        <g>
          <path class="cls-3" d="M179.38,137.89c-.66,2.26-3.34,3.53-6,2.83s-4.26-3.1-3.6-5.36,3.33-3.53,6-2.83S180,135.63,179.38,137.89Z"/>
          <path class="cls-4" d="M179.48,137.92a5.29,5.29,0,0,1-2.25,3.07,5.42,5.42,0,0,1-4,.76,5.69,5.69,0,0,1-3.55-2.34,4.75,4.75,0,0,1,2.25-7.26,6.12,6.12,0,0,1,4-.14A5.11,5.11,0,0,1,179.48,137.92Zm-.2-.06a3.32,3.32,0,0,0-.76-3.27,5.32,5.32,0,0,0-2.93-1.57,4.9,4.9,0,0,0-3.15.38,3.36,3.36,0,0,0-1.85,2.19,3,3,0,0,0,.71,2.59,5.33,5.33,0,0,0,2.4,1.54,6.22,6.22,0,0,0,3.08.24A3.26,3.26,0,0,0,179.28,137.86Z"/>
        </g>
        <g>
          <path class="cls-3" d="M170.37,138.11c-.53,1.8-2.81,2.77-5.11,2.16s-3.74-2.56-3.22-4.36,2.81-2.76,5.11-2.15S170.89,136.32,170.37,138.11Z"/>
          <path class="cls-4" d="M170.47,138.14A4.71,4.71,0,0,1,165,141.3a5.21,5.21,0,0,1-3.08-1.9,4.05,4.05,0,0,1-.72-3.72,4,4,0,0,1,2.65-2.46,5.71,5.71,0,0,1,3.35,0C169.35,133.88,171,136.06,170.47,138.14Zm-.2,0a2.56,2.56,0,0,0-.78-2.66,5,5,0,0,0-2.51-1.18,4.54,4.54,0,0,0-2.62.25,2.47,2.47,0,0,0-1.52,1.65,2.11,2.11,0,0,0,.7,1.92,5.38,5.38,0,0,0,2,1.2,6.37,6.37,0,0,0,2.53.37A2.45,2.45,0,0,0,170.27,138.09Z"/>
        </g>
        <g>
          <path class="cls-3" d="M188.74,138.72c.09,1.77-1.87,3-4.57,3s-5.44-.88-5.53-2.65a4.87,4.87,0,0,1,4.58-4.51C185.92,134.52,188.65,137,188.74,138.72Z"/>
          <path class="cls-4" d="M188.85,138.72a3.42,3.42,0,0,1-1.86,3,6.59,6.59,0,0,1-3.61.95,7.79,7.79,0,0,1-3.7-.89,3.87,3.87,0,0,1-1.61-1.56,2.68,2.68,0,0,1-.31-1.24,4.14,4.14,0,0,1,.19-1.08,6,6,0,0,1,2.31-3.07,4.84,4.84,0,0,1,3.68-.81,6.34,6.34,0,0,1,3.14,1.72A5.6,5.6,0,0,1,188.85,138.72Zm-.21,0a3.68,3.68,0,0,0-1.84-2.62,6.81,6.81,0,0,0-3-1,4.17,4.17,0,0,0-4.24,3.28,2.08,2.08,0,0,0,0,.6.84.84,0,0,0,.15.38,2.07,2.07,0,0,0,.93.62,11.54,11.54,0,0,0,2.89.65,11.36,11.36,0,0,0,3.08.1,2.79,2.79,0,0,0,1.4-.6A1.8,1.8,0,0,0,188.64,138.73Z"/>
        </g>
      </g>
      <g>
        <g>
          <path class="cls-4" d="M155.15,82.3C168.55,84.81,191,93,203.16,105c4.88,4.85,10.43,12.25,16.93,12,2.91-.11,7.79-2.28,8.2-8.73,1.06-16.37-7.2-25-25.48-34.8-21.21-11.39-54.31-7.52-56.27,1.34"/>
          <path class="cls-4" d="M155.16,82.25a108.29,108.29,0,0,1,23.35,6.81,102,102,0,0,1,11,5.3,69.89,69.89,0,0,1,10.16,6.82,55.29,55.29,0,0,1,4.52,4.14l4.19,4.4a40.28,40.28,0,0,0,4.45,4,13.57,13.57,0,0,0,5.22,2.6,7.93,7.93,0,0,0,5.58-.82,8.15,8.15,0,0,0,3.7-4.32,17.32,17.32,0,0,0,.75-5.87,31.72,31.72,0,0,0-.52-6,24.94,24.94,0,0,0-4.92-10.88,41,41,0,0,0-8.91-8.13,100.21,100.21,0,0,0-10.41-6.2,56.58,56.58,0,0,0-11.19-4.47,77.71,77.71,0,0,0-23.9-2.77,56.47,56.47,0,0,0-11.95,1.63,27,27,0,0,0-5.65,2.08,11.6,11.6,0,0,0-2.46,1.7,5.26,5.26,0,0,0-1.58,2.5,0,0,0,0,1-.06,0s-.05,0,0-.06A5.25,5.25,0,0,1,148,72.15a11.31,11.31,0,0,1,2.45-1.84A25.83,25.83,0,0,1,156.13,68a57.19,57.19,0,0,1,12.06-1.9,76.63,76.63,0,0,1,12.21.34,67.26,67.26,0,0,1,12,2.35,51.56,51.56,0,0,1,11.26,4.73A103.17,103.17,0,0,1,214,80a43.5,43.5,0,0,1,8.93,8.26,26.15,26.15,0,0,1,5.14,11,32.69,32.69,0,0,1,.65,6.08c0,1,0,2-.08,3.07a12,12,0,0,1-.61,3.06,8.9,8.9,0,0,1-4,4.78,8.55,8.55,0,0,1-6.16,1,14.5,14.5,0,0,1-5.6-2.73,40.7,40.7,0,0,1-4.58-4.1l-4.2-4.39a50.08,50.08,0,0,0-4.48-4,95.44,95.44,0,0,0-20.89-12,130.36,130.36,0,0,0-23-7.62.08.08,0,0,1,0-.07A.08.08,0,0,1,155.16,82.25Z"/>
        </g>
        <g>
          <g>
            <ellipse class="cls-3" cx="163.86" cy="68.48" rx="3.1" ry="4.42" transform="translate(86.6 228.39) rotate(-86.89)"/>
            <path class="cls-4" d="M168.38,68.51A3.6,3.6,0,0,1,167,71.39a5,5,0,0,1-3.17,1.24,5.66,5.66,0,0,1-3.35-.94,4.09,4.09,0,0,1-1.91-3.21,3.13,3.13,0,0,1,.63-1.86,3.85,3.85,0,0,1,1.38-1.15,6,6,0,0,1,3.21-.62A5.58,5.58,0,0,1,166.77,66,3.78,3.78,0,0,1,168.38,68.51Zm-.21,0a2.54,2.54,0,0,0-1.63-2.18,6.13,6.13,0,0,0-2.73-.44,4.77,4.77,0,0,0-2.5.74,2,2,0,0,0-1,1.77,2.16,2.16,0,0,0,1.32,1.5,6.75,6.75,0,0,0,2.32.63,7.6,7.6,0,0,0,2.55-.12A2.11,2.11,0,0,0,168.17,68.52Z"/>
          </g>
          <g>
            <path class="cls-3" d="M176,69.54c.07,1.87-2.32,3-4.44,3s-4.1-1.5-4.18-3.37,1.6-4.27,3.71-4.25S175.89,67.67,176,69.54Z"/>
            <path class="cls-4" d="M176.06,69.53a3.47,3.47,0,0,1-1.62,2.91,5.4,5.4,0,0,1-3.41,1.1A5,5,0,0,1,167.59,72a4.26,4.26,0,0,1-1-1.76,3.91,3.91,0,0,1,0-2,5.57,5.57,0,0,1,2-3,4.17,4.17,0,0,1,1.68-.77,3.49,3.49,0,0,1,1.85.16,6.11,6.11,0,0,1,2.59,2.09A6.35,6.35,0,0,1,176.06,69.53Zm-.21,0a3.82,3.82,0,0,0-1.48-2.6,6.72,6.72,0,0,0-2.58-1.39c-1.75-.51-3.34,1.3-3.55,3s1.43,2.66,3,2.95a8,8,0,0,0,2.72,0,2.89,2.89,0,0,0,1.29-.6A1.75,1.75,0,0,0,175.85,69.54Z"/>
          </g>
          <g>
            <path class="cls-3" d="M183.91,70.08c.07,1.87-2.33,3-4.44,3s-4.1-1.5-4.18-3.37,1.6-4.27,3.71-4.25S183.83,68.21,183.91,70.08Z"/>
            <path class="cls-4" d="M184,70.07a3.45,3.45,0,0,1-1.62,2.9A5.35,5.35,0,0,1,179,74.08a5,5,0,0,1-3.44-1.59,4.26,4.26,0,0,1-1-1.76,3.81,3.81,0,0,1,0-2,5.49,5.49,0,0,1,2-3,4,4,0,0,1,1.68-.77,3.41,3.41,0,0,1,1.85.16,6.11,6.11,0,0,1,2.59,2.09A6.35,6.35,0,0,1,184,70.07Zm-.21,0a3.8,3.8,0,0,0-1.48-2.6,6.59,6.59,0,0,0-2.58-1.39c-1.75-.52-3.34,1.3-3.56,3s1.44,2.67,3,2.95a8,8,0,0,0,2.72,0,2.81,2.81,0,0,0,1.29-.61A1.71,1.71,0,0,0,183.8,70.08Z"/>
          </g>
          <g>
            <path class="cls-3" d="M191.84,70.94c-.16,1.74-2.2,2.92-4.57,2.63s-4.17-1.93-4-3.67,2.2-2.91,4.57-2.63S192,69.2,191.84,70.94Z"/>
            <path class="cls-4" d="M191.94,71a3.73,3.73,0,0,1-1.6,2.72,4.87,4.87,0,0,1-3.27.93,5.42,5.42,0,0,1-3.21-1.35,4.07,4.07,0,0,1-1.44-3.42,3.58,3.58,0,0,1,2.29-2.76,5.84,5.84,0,0,1,3.24-.31,5.31,5.31,0,0,1,2.77,1.47A3.73,3.73,0,0,1,191.94,71Zm-.21,0a2.5,2.5,0,0,0-1.29-2.36,5.64,5.64,0,0,0-2.62-.77,4.67,4.67,0,0,0-2.53.5,2.06,2.06,0,0,0-1.2,1.68,2.13,2.13,0,0,0,1.08,1.66,6.1,6.1,0,0,0,2.18.88,6.75,6.75,0,0,0,2.51.14A2.15,2.15,0,0,0,191.73,70.93Z"/>
          </g>
          <g>
            <path class="cls-3" d="M199.06,73.93c-.16,1.8-2.25,3-4.67,2.72s-4.25-2-4.09-3.78,2.25-3,4.67-2.72S199.22,72.14,199.06,73.93Z"/>
            <path class="cls-4" d="M199.16,73.94a3.81,3.81,0,0,1-1.63,2.79,4.93,4.93,0,0,1-3.33,1,5.49,5.49,0,0,1-3.28-1.39,4.15,4.15,0,0,1-1.45-3.49A3.67,3.67,0,0,1,191.78,70a5.94,5.94,0,0,1,3.32-.33,5.47,5.47,0,0,1,2.83,1.51A3.81,3.81,0,0,1,199.16,73.94Zm-.2,0a2.61,2.61,0,0,0-1.31-2.44,5.69,5.69,0,0,0-2.69-.81,4.69,4.69,0,0,0-2.59.52A2.13,2.13,0,0,0,191.14,73a2.21,2.21,0,0,0,1.09,1.74,6.26,6.26,0,0,0,2.24.91,6.92,6.92,0,0,0,2.58.12A2.26,2.26,0,0,0,199,73.93Z"/>
          </g>
          <g>
            <ellipse class="cls-3" cx="201.37" cy="76.64" rx="3.4" ry="4.23" transform="translate(105.71 269.7) rotate(-84.48)"/>
            <path class="cls-4" d="M205.69,76.67a4,4,0,0,1-1.11,3,4.48,4.48,0,0,1-3.19,1.41A5.14,5.14,0,0,1,198,80a4.37,4.37,0,0,1-1.67-3.31,3.78,3.78,0,0,1,1.77-3.14,5.21,5.21,0,0,1,3.25-.79A4.71,4.71,0,0,1,205.69,76.67Zm-.21,0A2.73,2.73,0,0,0,204,74.34a5,5,0,0,0-2.69-.59,4.11,4.11,0,0,0-2.42.86,2.27,2.27,0,0,0-.9,2,2.38,2.38,0,0,0,1.23,1.71,5.15,5.15,0,0,0,2.22.72,5.57,5.57,0,0,0,2.48-.23A2.28,2.28,0,0,0,205.48,76.68Z"/>
          </g>
          <g>
            <path class="cls-3" d="M211.81,80.37c.08,2-1.86,3.56-4.33,3.54s-4.54-1.64-4.61-3.61,1.86-3.55,4.33-3.54S211.73,78.4,211.81,80.37Z"/>
            <path class="cls-4" d="M211.91,80.37a4.1,4.1,0,0,1-1.21,3.14A4.81,4.81,0,0,1,207.36,85a5.44,5.44,0,0,1-3.55-1.17A4.52,4.52,0,0,1,202,80.33a3.93,3.93,0,0,1,1.87-3.26,5.56,5.56,0,0,1,3.4-.82A4.94,4.94,0,0,1,211.91,80.37Zm-.21,0a2.9,2.9,0,0,0-1.57-2.47,5.44,5.44,0,0,0-2.85-.62,4.35,4.35,0,0,0-2.59.89,2.4,2.4,0,0,0-1,2.09A2.57,2.57,0,0,0,205,82.1a5.74,5.74,0,0,0,2.39.76,5.87,5.87,0,0,0,2.64-.27A2.41,2.41,0,0,0,211.7,80.38Z"/>
          </g>
          <g>
            <path class="cls-3" d="M218.39,84.71c.08,2-1.86,3.55-4.33,3.53s-4.53-1.63-4.61-3.6,1.86-3.56,4.33-3.54S218.31,82.73,218.39,84.71Z"/>
            <path class="cls-4" d="M218.49,84.7a4.06,4.06,0,0,1-1.21,3.14,4.82,4.82,0,0,1-3.34,1.45,5.51,5.51,0,0,1-3.55-1.18,4.48,4.48,0,0,1-1.78-3.44,3.93,3.93,0,0,1,1.87-3.27,5.63,5.63,0,0,1,3.4-.82A5,5,0,0,1,218.49,84.7Zm-.21,0a2.9,2.9,0,0,0-1.57-2.46,5.44,5.44,0,0,0-2.85-.62,4.41,4.41,0,0,0-2.59.88,2.41,2.41,0,0,0-1,2.09,2.54,2.54,0,0,0,1.33,1.83,5.52,5.52,0,0,0,2.38.76,5.92,5.92,0,0,0,2.65-.26A2.43,2.43,0,0,0,218.28,84.71Z"/>
          </g>
          <g>
            <path class="cls-3" d="M223.66,90c.08,2-1.86,3.56-4.33,3.54s-4.54-1.63-4.61-3.6,1.86-3.56,4.33-3.54S223.58,88,223.66,90Z"/>
            <path class="cls-4" d="M223.76,90a4.06,4.06,0,0,1-1.21,3.14,4.77,4.77,0,0,1-3.34,1.44,5.44,5.44,0,0,1-3.55-1.17A4.5,4.5,0,0,1,213.88,90a3.93,3.93,0,0,1,1.87-3.27,5.56,5.56,0,0,1,3.4-.82A5,5,0,0,1,223.76,90Zm-.21,0A2.88,2.88,0,0,0,222,87.53a5.26,5.26,0,0,0-2.85-.62,4.41,4.41,0,0,0-2.59.88,2.41,2.41,0,0,0-1,2.09,2.55,2.55,0,0,0,1.32,1.83,5.74,5.74,0,0,0,2.39.76,6,6,0,0,0,2.64-.26A2.43,2.43,0,0,0,223.55,90Z"/>
          </g>
          <g>
            <path class="cls-3" d="M227.43,95.89c.08,2-1.86,3.55-4.33,3.53s-4.53-1.63-4.61-3.6,1.86-3.56,4.33-3.54S227.36,93.91,227.43,95.89Z"/>
            <path class="cls-4" d="M227.54,95.88A4.1,4.1,0,0,1,226.33,99a4.86,4.86,0,0,1-3.35,1.45,5.48,5.48,0,0,1-3.54-1.18,4.54,4.54,0,0,1-1.79-3.44,3.94,3.94,0,0,1,1.88-3.27,5.54,5.54,0,0,1,3.4-.82A5,5,0,0,1,227.54,95.88Zm-.21,0a2.91,2.91,0,0,0-1.58-2.46,5.42,5.42,0,0,0-2.85-.62,4.41,4.41,0,0,0-2.58.88,2.39,2.39,0,0,0-1,2.09,2.55,2.55,0,0,0,1.32,1.83,5.7,5.7,0,0,0,2.39.76,5.88,5.88,0,0,0,2.64-.26A2.44,2.44,0,0,0,227.33,95.89Z"/>
          </g>
          <g>
            <path class="cls-3" d="M228,102.16c.07,1.75-1.61,3.16-3.75,3.14s-3.94-1.45-4-3.2S221.87,98.94,224,99,228,100.41,228,102.16Z"/>
            <path class="cls-4" d="M228.12,102.15a3.76,3.76,0,0,1-1,2.83,4.17,4.17,0,0,1-3,1.37,4.76,4.76,0,0,1-3.19-1.09,4.18,4.18,0,0,1-1.55-3.13,3.58,3.58,0,0,1,1.66-2.95,4.87,4.87,0,0,1,3-.75A4.4,4.4,0,0,1,228.12,102.15Zm-.2,0a2.54,2.54,0,0,0-1.36-2.16,4.64,4.64,0,0,0-2.48-.52,3.65,3.65,0,0,0-2.2.8,2,2,0,0,0-.78,1.79,2.14,2.14,0,0,0,1.11,1.53,4.87,4.87,0,0,0,2,.65,5.18,5.18,0,0,0,2.26-.17A2.1,2.1,0,0,0,227.92,102.16Z"/>
          </g>
        </g>
        <g>
          <g>
            <ellipse class="cls-3" cx="155.56" cy="71.84" rx="3.25" ry="4.31" transform="translate(72.91 221.94) rotate(-85.95)"/>
            <path class="cls-4" d="M160,71.87a3.79,3.79,0,0,1-1.22,2.94,4.79,4.79,0,0,1-3.17,1.33,5.43,5.43,0,0,1-3.37-1,4.22,4.22,0,0,1-1.79-3.26,3.61,3.61,0,0,1,1.89-3.07,5.51,5.51,0,0,1,3.22-.7,5.26,5.26,0,0,1,2.93,1.19A4,4,0,0,1,160,71.87Zm-.21,0a2.65,2.65,0,0,0-1.55-2.26,5.54,5.54,0,0,0-2.7-.51,4.45,4.45,0,0,0-2.46.8,2.1,2.1,0,0,0-1,1.86,2.24,2.24,0,0,0,1.27,1.6,5.77,5.77,0,0,0,2.26.67,6.33,6.33,0,0,0,2.51-.17A2.18,2.18,0,0,0,159.76,71.88Z"/>
          </g>
          <g>
            <path class="cls-3" d="M166.87,74.31c.08,2-1.78,3.55-4.16,3.54s-4.36-1.64-4.44-3.61,1.78-3.56,4.16-3.54S166.79,72.33,166.87,74.31Z"/>
            <path class="cls-4" d="M167,74.3a4.17,4.17,0,0,1-1.11,3.11,4.59,4.59,0,0,1-3.28,1.48,5.19,5.19,0,0,1-3.48-1.21,4.53,4.53,0,0,1-1.68-3.41A4,4,0,0,1,159.2,71a5.31,5.31,0,0,1,3.33-.86A4.84,4.84,0,0,1,167,74.3Zm-.21,0a2.91,2.91,0,0,0-1.5-2.44,5,5,0,0,0-2.76-.64,4,4,0,0,0-2.49.9,2.39,2.39,0,0,0-.91,2.08A2.54,2.54,0,0,0,160.36,76a5.19,5.19,0,0,0,2.29.76,5.32,5.32,0,0,0,2.54-.27A2.43,2.43,0,0,0,166.77,74.31Z"/>
          </g>
          <g>
            <path class="cls-3" d="M173.21,76.74c.08,2-1.78,3.55-4.16,3.54s-4.37-1.64-4.44-3.61,1.86-3.71,4.23-3.7A4.27,4.27,0,0,1,173.21,76.74Z"/>
            <path class="cls-4" d="M173.31,76.73a4.13,4.13,0,0,1-1.13,3.13,4.58,4.58,0,0,1-3.31,1.46,5.22,5.22,0,0,1-3.5-1.26,4.5,4.5,0,0,1-1.6-3.48,4.12,4.12,0,0,1,1.83-3.21,5.18,5.18,0,0,1,3.34-.91,4.62,4.62,0,0,1,3,1.42A4.73,4.73,0,0,1,173.31,76.73Zm-.21,0a3.08,3.08,0,0,0-1.44-2.52,4.64,4.64,0,0,0-2.74-.72,4,4,0,0,0-2.49,1,2.58,2.58,0,0,0-1,2.12,2.47,2.47,0,0,0,1.21,1.86,5,5,0,0,0,2.28.79,5.44,5.44,0,0,0,2.57-.26A2.42,2.42,0,0,0,173.1,76.74Z"/>
          </g>
          <g>
            <path class="cls-3" d="M179.9,75.36c.08,1.89-1.64,3.4-3.83,3.38A3.94,3.94,0,0,1,172,75.3c-.07-1.89,1.64-3.4,3.83-3.38A3.93,3.93,0,0,1,179.9,75.36Z"/>
            <path class="cls-4" d="M180,75.36a4.12,4.12,0,0,1-1,3A4.2,4.2,0,0,1,176,79.79a4.83,4.83,0,0,1-3.31-1.2,4.48,4.48,0,0,1-1.52-3.26,3.81,3.81,0,0,1,1.63-3.08,4.72,4.72,0,0,1,3.14-.85A4.55,4.55,0,0,1,180,75.36Zm-.21,0a2.77,2.77,0,0,0-1.37-2.32,4.43,4.43,0,0,0-2.56-.6,3.56,3.56,0,0,0-2.27.86,2.3,2.3,0,0,0-.79,2A2.41,2.41,0,0,0,174,77a4.5,4.5,0,0,0,2.06.72,4.73,4.73,0,0,0,2.33-.25A2.29,2.29,0,0,0,179.8,75.37Z"/>
          </g>
          <g>
            <path class="cls-3" d="M187.24,77.64c.09,2.06-1.93,3.71-4.49,3.69s-4.7-1.7-4.79-3.76,1.93-3.72,4.5-3.7S187.16,75.58,187.24,77.64Z"/>
            <path class="cls-4" d="M187.35,77.64a4.22,4.22,0,0,1-1.26,3.25,5,5,0,0,1-3.46,1.49A5.66,5.66,0,0,1,179,81.16a4.68,4.68,0,0,1-1.83-3.56,4.05,4.05,0,0,1,1.92-3.38,5.79,5.79,0,0,1,3.52-.87A5.14,5.14,0,0,1,187.35,77.64Zm-.21,0a3,3,0,0,0-1.63-2.57,5.58,5.58,0,0,0-3-.67,4.49,4.49,0,0,0-2.7.93,2.53,2.53,0,0,0-1,2.2,2.71,2.71,0,0,0,1.38,2,5.67,5.67,0,0,0,2.5.8,6,6,0,0,0,2.76-.3A2.56,2.56,0,0,0,187.14,77.64Z"/>
          </g>
          <g>
            <path class="cls-3" d="M195.06,79.05c.08,2.1-1.93,3.79-4.49,3.77s-4.71-1.74-4.79-3.84,1.92-3.8,4.49-3.78S195,77,195.06,79.05Z"/>
            <path class="cls-4" d="M195.16,79.05a4.33,4.33,0,0,1-1.23,3.29,5,5,0,0,1-3.49,1.53,5.64,5.64,0,0,1-3.69-1.27A4.78,4.78,0,0,1,184.94,79a4.16,4.16,0,0,1,1.89-3.42,5.69,5.69,0,0,1,3.55-.9A5.13,5.13,0,0,1,195.16,79.05Zm-.21,0a3.13,3.13,0,0,0-1.61-2.62,5.5,5.5,0,0,0-3-.7,4.54,4.54,0,0,0-2.71,1,2.61,2.61,0,0,0-1,2.26,2.77,2.77,0,0,0,1.37,2,5.58,5.58,0,0,0,2.51.83,5.81,5.81,0,0,0,2.77-.33A2.62,2.62,0,0,0,195,79.05Z"/>
          </g>
          <g>
            <path class="cls-3" d="M202.3,82.92c.08,2.1-1.93,3.79-4.49,3.77S193.1,85,193,82.84s1.92-3.79,4.48-3.77S202.21,80.81,202.3,82.92Z"/>
            <path class="cls-4" d="M202.4,82.91a4.37,4.37,0,0,1-1.23,3.3,4.93,4.93,0,0,1-3.49,1.52,5.62,5.62,0,0,1-3.7-1.26,4.79,4.79,0,0,1-1.8-3.59,4.12,4.12,0,0,1,1.89-3.42,5.62,5.62,0,0,1,3.55-.91A5.16,5.16,0,0,1,202.4,82.91Zm-.21,0a3.1,3.1,0,0,0-1.62-2.62,5.47,5.47,0,0,0-3-.7,4.45,4.45,0,0,0-2.71,1,2.61,2.61,0,0,0-1,2.26,2.8,2.8,0,0,0,1.38,2,5.66,5.66,0,0,0,2.5.83,5.8,5.8,0,0,0,2.77-.34A2.6,2.6,0,0,0,202.19,82.92Z"/>
          </g>
          <g>
            <path class="cls-3" d="M208.18,86.77A4.39,4.39,0,0,1,203.71,91c-2.56,0-4.19-1.58-4.28-3.68a4.3,4.3,0,0,1,4.21-4.41C206.21,83,208.1,84.67,208.18,86.77Z"/>
            <path class="cls-4" d="M208.29,86.77a5.32,5.32,0,0,1-1,3.35A4.55,4.55,0,0,1,204,92.06a5.19,5.19,0,0,1-3.8-1.14,4.65,4.65,0,0,1-1.58-3.69,5.18,5.18,0,0,1,1.55-3.47,4.71,4.71,0,0,1,3.44-1.36,5.06,5.06,0,0,1,3.23,1.36A4.72,4.72,0,0,1,208.29,86.77Zm-.21,0a3.17,3.17,0,0,0-1.54-2.66,5,5,0,0,0-2.95-.66,3.64,3.64,0,0,0-3.32,3.77,2.62,2.62,0,0,0,1.19,2.07,4.82,4.82,0,0,0,2.43.67,4.67,4.67,0,0,0,2.62-.64A3.09,3.09,0,0,0,208.08,86.77Z"/>
          </g>
          <g>
            <path class="cls-3" d="M214.61,91.42c.07,1.89-2.2,4.11-4.48,4.09s-4.19-1.56-4.27-3.44a4,4,0,0,1,3.89-4C212,88.07,214.53,89.54,214.61,91.42Z"/>
            <path class="cls-4" d="M214.71,91.42a5.2,5.2,0,0,1-1.07,3.17,4.64,4.64,0,0,1-3.11,2,5.12,5.12,0,0,1-3.67-1A4.45,4.45,0,0,1,205,92.13a4.68,4.68,0,0,1,1.51-3.36,4.37,4.37,0,0,1,3.33-1.24,5.92,5.92,0,0,1,3.1,1.23A3.94,3.94,0,0,1,214.71,91.42Zm-.21,0a2.74,2.74,0,0,0-1.76-2.3,6.43,6.43,0,0,0-2.9-.55,3.33,3.33,0,0,0-3.14,3.47A2.5,2.5,0,0,0,208,93.84a4.91,4.91,0,0,0,2.33.61,5.33,5.33,0,0,0,2.51-.68A2.92,2.92,0,0,0,214.5,91.43Z"/>
          </g>
          <g>
            <path class="cls-3" d="M219.86,98.4a4.06,4.06,0,0,1-5.42,1.6c-2.14-1-3.19-3.21-2.33-5s3.28-2.55,5.42-1.6A3.91,3.91,0,0,1,219.86,98.4Z"/>
            <path class="cls-4" d="M220,98.45a4.64,4.64,0,0,1-2.3,2.37,4.59,4.59,0,0,1-3.6.16,5,5,0,0,1-2.75-2.56,4.41,4.41,0,0,1,0-3.82,4.28,4.28,0,0,1,2.94-2.18,5.21,5.21,0,0,1,3.42.44A4.49,4.49,0,0,1,220,98.45Zm-.19-.09a2.82,2.82,0,0,0-.21-2.86,4.56,4.56,0,0,0-2.26-1.68,4.06,4.06,0,0,0-2.66-.09,2.75,2.75,0,0,0-1.76,1.57,2.39,2.39,0,0,0,.28,2.18,4.59,4.59,0,0,0,1.74,1.58,5.38,5.38,0,0,0,2.47.68A2.68,2.68,0,0,0,219.76,98.36Z"/>
          </g>
          <g>
            <ellipse class="cls-3" cx="217.95" cy="103.83" rx="3.67" ry="4.24" transform="translate(42.33 269.48) rotate(-68.8)"/>
            <path class="cls-4" d="M221.92,105.6a4.63,4.63,0,0,1-2.3,2.38,4.54,4.54,0,0,1-3.6.15,4.91,4.91,0,0,1-2.75-2.55,4.43,4.43,0,0,1,0-3.83,4.28,4.28,0,0,1,2.94-2.18,5.34,5.34,0,0,1,3.42.44A4.49,4.49,0,0,1,221.92,105.6Zm-.19-.09a2.8,2.8,0,0,0-.21-2.85,4.54,4.54,0,0,0-2.26-1.69,4.12,4.12,0,0,0-2.66-.08,2.75,2.75,0,0,0-1.76,1.57,2.39,2.39,0,0,0,.28,2.18,4.49,4.49,0,0,0,1.74,1.57,5.27,5.27,0,0,0,2.48.68A2.64,2.64,0,0,0,221.73,105.51Z"/>
          </g>
          <g>
            <ellipse class="cls-3" cx="222.81" cy="108.99" rx="3.66" ry="3.76" transform="translate(89.95 318.44) rotate(-83.68)"/>
            <path class="cls-4" d="M226.34,110.56a5.11,5.11,0,0,1-2,2.39,3.93,3.93,0,0,1-3.45.33,4.23,4.23,0,0,1-2.53-2.6,4.55,4.55,0,0,1,.28-3.57,4.44,4.44,0,0,1,5.91-1.94,3.82,3.82,0,0,1,2,2.43A4.55,4.55,0,0,1,226.34,110.56Zm-.19-.09a2.86,2.86,0,0,0,0-2.71,3.6,3.6,0,0,0-2-1.63,3.21,3.21,0,0,0-2.4.06,3,3,0,0,0-1.58,1.62,2.59,2.59,0,0,0,.13,2.1,3.53,3.53,0,0,0,1.44,1.45,4,4,0,0,0,2.24.53A2.71,2.71,0,0,0,226.15,110.47Z"/>
          </g>
        </g>
        <g>
          <path class="cls-3" d="M153.84,74.82a3.43,3.43,0,0,1-2.41,4.48,4.09,4.09,0,0,1-5.11-2,3.43,3.43,0,0,1,2.41-4.48A4.11,4.11,0,0,1,153.84,74.82Z"/>
          <path class="cls-4" d="M153.93,74.78a4.61,4.61,0,0,1,.23,3.2,3.34,3.34,0,0,1-2.61,2.2,6.66,6.66,0,0,1-5.76-2.62,3.32,3.32,0,0,1-.53-1.73,3.65,3.65,0,0,1,.46-1.82,4.57,4.57,0,0,1,2.82-2.26,4.71,4.71,0,0,1,1.79-.14,3.71,3.71,0,0,1,1.65.64A5.7,5.7,0,0,1,153.93,74.78Zm-.19.09a2.37,2.37,0,0,0-2.25-1.32,7,7,0,0,0-2.31.34A3.7,3.7,0,0,0,147.41,75a2.75,2.75,0,0,0-.56,2.07A2.33,2.33,0,0,0,148.54,79a3.41,3.41,0,0,0,2.5-.45,10.94,10.94,0,0,0,2-1.21,2.38,2.38,0,0,0,.77-1.06A1.83,1.83,0,0,0,153.74,74.87Z"/>
        </g>
        <g>
          <g>
            <path class="cls-3" d="M161,79.18c.08,1.89-1.75,3.4-4.08,3.38s-4.28-1.56-4.35-3.44,1.75-3.4,4.08-3.38S160.92,77.3,161,79.18Z"/>
            <path class="cls-4" d="M161.1,79.18a4,4,0,0,1-1.11,3,4.53,4.53,0,0,1-3.19,1.41,5.13,5.13,0,0,1-3.4-1.14,4.35,4.35,0,0,1-1.68-3.31A3.79,3.79,0,0,1,153.5,76a5.19,5.19,0,0,1,3.24-.79A4.72,4.72,0,0,1,161.1,79.18Zm-.21,0a2.75,2.75,0,0,0-1.48-2.34,5,5,0,0,0-2.69-.59,4.08,4.08,0,0,0-2.42.85,2.24,2.24,0,0,0-.9,2,2.37,2.37,0,0,0,1.23,1.71,5.24,5.24,0,0,0,2.22.72,5.6,5.6,0,0,0,2.48-.23A2.29,2.29,0,0,0,160.89,79.19Z"/>
          </g>
          <g>
            <path class="cls-3" d="M168,79.79c.83,1.75-.21,3.83-2.33,4.65s-4.52.06-5.35-1.69.22-3.83,2.34-4.65S167.12,78,168,79.79Z"/>
            <path class="cls-4" d="M168.05,79.75a3.94,3.94,0,0,1,.21,3.19,4.24,4.24,0,0,1-2.43,2.53,5,5,0,0,1-3.59.1,4.64,4.64,0,0,1-2.73-2.47,3.82,3.82,0,0,1,.35-3.57,4.91,4.91,0,0,1,2.71-2,4.74,4.74,0,0,1,3.18.19A4.56,4.56,0,0,1,168.05,79.75Zm-.19.09a2.92,2.92,0,0,0-2.23-1.67,4.78,4.78,0,0,0-2.71.38A3.7,3.7,0,0,0,161,80.22a2.28,2.28,0,0,0,0,2.17,2.58,2.58,0,0,0,1.8,1.19,5,5,0,0,0,2.3-.09,4.79,4.79,0,0,0,2.17-1.11A2.3,2.3,0,0,0,167.86,79.84Z"/>
          </g>
          <g>
            <path class="cls-3" d="M180.61,81.12c.3,1.87-1.33,3.57-3.64,3.8s-4.41-1.11-4.71-3,1.33-3.58,3.64-3.8S180.31,79.24,180.61,81.12Z"/>
            <path class="cls-4" d="M180.71,81.1a3.94,3.94,0,0,1-.75,3.12,4.45,4.45,0,0,1-3,1.75,5.11,5.11,0,0,1-3.49-.8,4.47,4.47,0,0,1-2-3.11,3.77,3.77,0,0,1,1.4-3.32A5.11,5.11,0,0,1,176,77.6,4.77,4.77,0,0,1,180.71,81.1Zm-.2,0A2.8,2.8,0,0,0,178.78,79a5.05,5.05,0,0,0-2.73-.32,4,4,0,0,0-2.31,1.1,2.25,2.25,0,0,0-.65,2.06,2.51,2.51,0,0,0,1.41,1.59,5.9,5.9,0,0,0,4.71,0A2.28,2.28,0,0,0,180.51,81.13Z"/>
          </g>
          <g>
            <path class="cls-3" d="M187.19,84.71c0,1.88-1.84,3.36-4.17,3.29s-4.24-1.65-4.27-3.53,1.83-3.36,4.16-3.29S187.15,82.82,187.19,84.71Z"/>
            <path class="cls-4" d="M187.29,84.71a4,4,0,0,1-1.18,3A4.52,4.52,0,0,1,182.89,89a5.14,5.14,0,0,1-3.37-1.2,4.37,4.37,0,0,1-1.61-3.36,3.78,3.78,0,0,1,1.85-3.09,5.2,5.2,0,0,1,3.26-.73A4.71,4.71,0,0,1,187.29,84.71Zm-.21,0a2.76,2.76,0,0,0-1.43-2.37,5,5,0,0,0-2.68-.63,4,4,0,0,0-2.44.8,2.25,2.25,0,0,0-.95,1.95,2.37,2.37,0,0,0,1.2,1.73A5.2,5.2,0,0,0,183,87a5.74,5.74,0,0,0,2.49-.18A2.3,2.3,0,0,0,187.08,84.71Z"/>
          </g>
          <g>
            <path class="cls-3" d="M195,87c0,1.93-2.27,3.21-4.6,3.14s-4.49-1.44-4.52-3.37,2.15-4,4.48-3.93S195,85.06,195,87Z"/>
            <path class="cls-4" d="M195.14,87a3.69,3.69,0,0,1-1.58,3,5.35,5.35,0,0,1-3.44,1.17,5.75,5.75,0,0,1-3.54-1.27,4.66,4.66,0,0,1-1.24-1.64,3.45,3.45,0,0,1-.21-2.1,4.88,4.88,0,0,1,2.19-3,4.93,4.93,0,0,1,3.48-.81A5.67,5.67,0,0,1,195.14,87Zm-.21,0a3.4,3.4,0,0,0-1.49-2.62,5.34,5.34,0,0,0-2.76-1,3.86,3.86,0,0,0-3.89,3,1.92,1.92,0,0,0,1.05,1.82,6.16,6.16,0,0,0,2.42.83A7.47,7.47,0,0,0,193,89,2.25,2.25,0,0,0,194.93,87Z"/>
          </g>
          <g>
            <path class="cls-3" d="M175.7,82.93a3.79,3.79,0,0,1-2.36,5.12,4.55,4.55,0,0,1-5.73-2A3.79,3.79,0,0,1,170,80.93,4.56,4.56,0,0,1,175.7,82.93Z"/>
            <path class="cls-4" d="M175.79,82.89a4.41,4.41,0,0,1-2.25,6.2,5.23,5.23,0,0,1-3.87,0,5.11,5.11,0,0,1-2.82-2.68,4.25,4.25,0,0,1,.23-3.81,4.9,4.9,0,0,1,6.29-1.94A5.05,5.05,0,0,1,175.79,82.89Zm-.19.09a3.33,3.33,0,0,0-2.37-1.9,4.8,4.8,0,0,0-2.94.3,3.64,3.64,0,0,0-2,1.85,2.73,2.73,0,0,0,.07,2.46,3.11,3.11,0,0,0,2,1.44,4.86,4.86,0,0,0,2.51,0,4.64,4.64,0,0,0,2.28-1.3A2.68,2.68,0,0,0,175.6,83Z"/>
          </g>
          <g>
            <path class="cls-3" d="M200.74,90.36a3.7,3.7,0,0,1-4,3.62,4.15,4.15,0,0,1-4.28-3.68,3.69,3.69,0,0,1,4-3.62A4.15,4.15,0,0,1,200.74,90.36Z"/>
            <path class="cls-4" d="M200.84,90.36a4.35,4.35,0,0,1-1,3.11A4.27,4.27,0,0,1,196.63,95a4.91,4.91,0,0,1-3.45-1.29,4.68,4.68,0,0,1-1.55-3.4,4.07,4.07,0,0,1,1.64-3.24,4.9,4.9,0,0,1,3.29-.93,4.59,4.59,0,0,1,2.95,1.4A4.53,4.53,0,0,1,200.84,90.36Zm-.21,0a3,3,0,0,0-1.41-2.48,4.5,4.5,0,0,0-2.69-.68,3.66,3.66,0,0,0-2.39.93,2.54,2.54,0,0,0-.83,2.12,2.68,2.68,0,0,0,1.19,1.88,4.67,4.67,0,0,0,2.18.79,4.83,4.83,0,0,0,2.46-.32A2.48,2.48,0,0,0,200.63,90.37Z"/>
          </g>
          <g>
            <path class="cls-3" d="M207.29,94.14c.08,2-1.7,3.56-4,3.54a4.11,4.11,0,0,1-4.27-3.6c-.08-2,1.71-3.56,4-3.54A4.1,4.1,0,0,1,207.29,94.14Z"/>
            <path class="cls-4" d="M207.4,94.14a4.23,4.23,0,0,1-1,3.07,4.32,4.32,0,0,1-3.21,1.51,4.94,4.94,0,0,1-3.42-1.24,4.6,4.6,0,0,1-1.57-3.37,4,4,0,0,1,1.67-3.2,5,5,0,0,1,3.26-.89A4.71,4.71,0,0,1,207.4,94.14Zm-.21,0a2.91,2.91,0,0,0-1.42-2.43,4.59,4.59,0,0,0-2.67-.65,3.65,3.65,0,0,0-2.39.91,2.44,2.44,0,0,0-.85,2.06,2.59,2.59,0,0,0,1.2,1.82,4.76,4.76,0,0,0,2.18.77,5,5,0,0,0,2.45-.29A2.43,2.43,0,0,0,207.19,94.15Z"/>
          </g>
          <g>
            <path class="cls-3" d="M213.21,98.63c.07,2-1.83,3.56-4.25,3.54s-4.45-1.63-4.53-3.61S206.26,95,208.68,95,213.13,96.66,213.21,98.63Z"/>
            <path class="cls-4" d="M213.31,98.63a4.11,4.11,0,0,1-1.16,3.12,4.68,4.68,0,0,1-3.31,1.46,5.28,5.28,0,0,1-3.51-1.19,4.54,4.54,0,0,1-1.73-3.42,3.89,3.89,0,0,1,1.82-3.25,5.38,5.38,0,0,1,3.36-.84A4.88,4.88,0,0,1,213.31,98.63Zm-.21,0a2.92,2.92,0,0,0-1.53-2.46,5.31,5.31,0,0,0-2.81-.63,4.21,4.21,0,0,0-2.54.9,2.38,2.38,0,0,0-.95,2.08,2.58,2.58,0,0,0,1.29,1.83,5.48,5.48,0,0,0,2.33.76,5.84,5.84,0,0,0,2.6-.27A2.43,2.43,0,0,0,213.1,98.64Z"/>
          </g>
          <g>
            <path class="cls-3" d="M215.42,104.65a3.72,3.72,0,0,1-4.49,2.88,4,4,0,0,1-3.56-4.15c.26-1.95,2.86-3,5.08-2.61A3.26,3.26,0,0,1,215.42,104.65Z"/>
            <path class="cls-4" d="M215.52,104.66a4.32,4.32,0,0,1-4.75,3.91,4.86,4.86,0,0,1-3.18-1.68,4.52,4.52,0,0,1-1.06-3.5,3.29,3.29,0,0,1,.83-1.75,4.28,4.28,0,0,1,1.45-1,6.46,6.46,0,0,1,3.23-.44,4.1,4.1,0,0,1,2.79,1.53A4.31,4.31,0,0,1,215.52,104.66Zm-.21,0a2.75,2.75,0,0,0-.81-2.61,3.86,3.86,0,0,0-2.54-.78,5.19,5.19,0,0,0-2.54.61,2.08,2.08,0,0,0-1.22,1.71,2.49,2.49,0,0,0,.91,1.92,4.72,4.72,0,0,0,2,1,4.89,4.89,0,0,0,2.41,0A2.45,2.45,0,0,0,215.31,104.63Z"/>
          </g>
          <g>
            <path class="cls-3" d="M219.51,110.08A3.71,3.71,0,0,1,215,113a4,4,0,0,1-3.56-4.15c.25-2,2.85-3,5.07-2.61A3.25,3.25,0,0,1,219.51,110.08Z"/>
            <path class="cls-4" d="M219.62,110.09a4.39,4.39,0,0,1-1.44,2.84,4.29,4.29,0,0,1-3.31,1.07,4.81,4.81,0,0,1-3.18-1.68,4.48,4.48,0,0,1-1.06-3.5,3.21,3.21,0,0,1,.82-1.75,4.41,4.41,0,0,1,1.46-1,6.35,6.35,0,0,1,3.23-.44,4.08,4.08,0,0,1,2.78,1.53A4.26,4.26,0,0,1,219.62,110.09Zm-.21,0a2.79,2.79,0,0,0-.81-2.61,3.89,3.89,0,0,0-2.54-.78,5.12,5.12,0,0,0-2.55.61A2,2,0,0,0,212.3,109a2.47,2.47,0,0,0,.9,1.91,4.68,4.68,0,0,0,2,1,4.94,4.94,0,0,0,2.42,0A2.44,2.44,0,0,0,219.41,110.06Z"/>
          </g>
          <g>
            <path class="cls-3" d="M222.43,115.09a3.25,3.25,0,0,1-3.92,2.52,3.46,3.46,0,0,1-3.1-3.63c.22-1.7,2.49-2.59,4.43-2.28A2.85,2.85,0,0,1,222.43,115.09Z"/>
            <path class="cls-4" d="M222.53,115.1a3.94,3.94,0,0,1-1.23,2.54,3.79,3.79,0,0,1-3,1,4.3,4.3,0,0,1-2.85-1.51,4.09,4.09,0,0,1-.93-3.15,3,3,0,0,1,.75-1.58,3.63,3.63,0,0,1,1.31-.9,5.55,5.55,0,0,1,2.86-.38,3.55,3.55,0,0,1,2.44,1.39A3.86,3.86,0,0,1,222.53,115.1Zm-.21,0a2.34,2.34,0,0,0-.71-2.26,3.4,3.4,0,0,0-2.2-.63,4.33,4.33,0,0,0-2.18.55,1.68,1.68,0,0,0-1,1.42,2,2,0,0,0,.78,1.57,4.12,4.12,0,0,0,1.66.86,4.5,4.5,0,0,0,2,.1A2,2,0,0,0,222.32,115.07Z"/>
          </g>
        </g>
        <g>
          <g>
            <path class="cls-3" d="M182.38,87.56a3.47,3.47,0,0,1-3.19,4,4,4,0,0,1-4.64-2.87,3.47,3.47,0,0,1,3.19-4A4,4,0,0,1,182.38,87.56Z"/>
            <path class="cls-4" d="M182.49,87.54a4.2,4.2,0,0,1-.43,3.12,4.05,4.05,0,0,1-2.86,2,4.77,4.77,0,0,1-3.48-.74,4.65,4.65,0,0,1-2-3,3.91,3.91,0,0,1,1.06-3.35,4.63,4.63,0,0,1,3-1.35,4.46,4.46,0,0,1,3,.92A4.53,4.53,0,0,1,182.49,87.54Zm-.21,0a2.89,2.89,0,0,0-1.71-2.12,4.43,4.43,0,0,0-2.65-.26,3.39,3.39,0,0,0-2.11,1.21,2.38,2.38,0,0,0-.44,2.11,2.59,2.59,0,0,0,1.42,1.57,4.9,4.9,0,0,0,4.42-.18A2.32,2.32,0,0,0,182.28,87.58Z"/>
          </g>
          <g>
            <path class="cls-3" d="M190.32,91.79c-.4,1.86-2.64,2.93-5,2.39s-4-2.49-3.57-4.36,2.63-2.93,5-2.39S190.71,89.92,190.32,91.79Z"/>
            <path class="cls-4" d="M190.42,91.81a4.12,4.12,0,0,1-1.89,2.69,4.8,4.8,0,0,1-3.49.69,5.34,5.34,0,0,1-3.17-1.83,4.29,4.29,0,0,1-1-3.71A3.91,3.91,0,0,1,183.48,87a5.68,5.68,0,0,1,3.41-.06A4.7,4.7,0,0,1,190.42,91.81Zm-.21,0a2.73,2.73,0,0,0-1-2.67A5.33,5.33,0,0,0,186.65,88a4.43,4.43,0,0,0-2.66.31A2.35,2.35,0,0,0,182.56,90a2.3,2.3,0,0,0,.84,2,5.8,5.8,0,0,0,2.12,1.19,6.51,6.51,0,0,0,2.59.31A2.41,2.41,0,0,0,190.21,91.76Z"/>
          </g>
          <g>
            <path class="cls-3" d="M197.76,96.21c-.39,1.87-2.83,2.7-5.2,2.15s-4.7-2-4.31-3.81,3.37-3.48,5.74-2.94S198.16,94.34,197.76,96.21Z"/>
            <path class="cls-4" d="M197.87,96.23a3.83,3.83,0,0,1-2.22,2.63,5.55,5.55,0,0,1-3.63.45,7.22,7.22,0,0,1-3.32-1.57A4.24,4.24,0,0,1,187.48,96a2.82,2.82,0,0,1,.17-2.25,5.3,5.3,0,0,1,2.88-2.4,6.07,6.07,0,0,1,3.58-.25,5.35,5.35,0,0,1,2.81,2A4.34,4.34,0,0,1,197.87,96.23Zm-.21,0a3,3,0,0,0-1.07-2.81,5.49,5.49,0,0,0-2.72-1.26,4.81,4.81,0,0,0-2.8.48,3.83,3.83,0,0,0-1.89,1.83c-.56,1.29,1.59,2.26,3.36,2.85a7.94,7.94,0,0,0,2.8.51A2.35,2.35,0,0,0,197.66,96.19Z"/>
          </g>
          <g>
            <path class="cls-3" d="M204.64,99.52c.08,2-1.75,3.55-4.08,3.54s-4.28-1.64-4.36-3.61,1.75-3.56,4.08-3.54S204.56,97.54,204.64,99.52Z"/>
            <path class="cls-4" d="M204.74,99.51a4.12,4.12,0,0,1-1.06,3.09,4.43,4.43,0,0,1-3.23,1.5,5.09,5.09,0,0,1-3.46-1.23,4.59,4.59,0,0,1-1.62-3.39,3.92,3.92,0,0,1,1.72-3.21,5.07,5.07,0,0,1,3.3-.88A4.76,4.76,0,0,1,204.74,99.51Zm-.2,0a2.91,2.91,0,0,0-1.46-2.43,4.83,4.83,0,0,0-2.72-.65,3.88,3.88,0,0,0-2.44.9,2.43,2.43,0,0,0-.88,2.08,2.59,2.59,0,0,0,1.23,1.82,4.9,4.9,0,0,0,2.23.76,5.06,5.06,0,0,0,2.5-.28A2.43,2.43,0,0,0,204.54,99.52Z"/>
          </g>
          <g>
            <path class="cls-3" d="M209,105.39c-.41,1.74-2.47,2.72-4.61,2.2s-3.55-2.37-3.15-4.1,2.47-2.72,4.61-2.2S209.37,103.66,209,105.39Z"/>
            <path class="cls-4" d="M209.07,105.42a4,4,0,0,1-1.73,2.52,4.38,4.38,0,0,1-3.26.66,4.85,4.85,0,0,1-2.93-1.81,4.09,4.09,0,0,1-.76-3.49,3.75,3.75,0,0,1,2.4-2.47,5.16,5.16,0,0,1,3.18,0A4.34,4.34,0,0,1,209.07,105.42Zm-.21,0a2.51,2.51,0,0,0-.8-2.48,4.65,4.65,0,0,0-2.35-1.08,4,4,0,0,0-2.4.28,2.17,2.17,0,0,0-1.28,1.59,2.1,2.1,0,0,0,.71,1.78,4.85,4.85,0,0,0,1.85,1.1,5.52,5.52,0,0,0,2.32.34A2.19,2.19,0,0,0,208.86,105.37Z"/>
          </g>
        </g>
      </g>
      <path class="cls-4" d="M119.19,76.68c0-.07,0,0,.08-.05h.38a4.19,4.19,0,0,1,.5,0c.34,0,.67.08,1,.14a11.26,11.26,0,0,1,1.94.63,11.6,11.6,0,0,1,3.38,2.29c1,1,1.64,2.08,2.77,2.25a2.16,2.16,0,0,0,2.49-1.61,2.38,2.38,0,0,0-.25-1.66,3.71,3.71,0,0,0-.49-.77,3.59,3.59,0,0,0-.65-.64,7.91,7.91,0,0,0-3.48-1.48A16.31,16.31,0,0,0,119.19,76.68Zm-.1,0c.59-.22,1.27-.56,1.91-.73a17.58,17.58,0,0,1,1.93-.49,12.82,12.82,0,0,1,4-.16,8.56,8.56,0,0,1,3.79,1.45,4.78,4.78,0,0,1,1.4,1.6,3.13,3.13,0,0,1,.38,2.15A3.06,3.06,0,0,1,129.08,83a3.56,3.56,0,0,1-2-1c-.56-.56-.85-1-1.32-1.49A12.11,12.11,0,0,0,119.09,76.7Z"/>
      <path class="cls-4" d="M131.45,68.78c.16.41.23,1,.4,1.47a14.72,14.72,0,0,0,.55,1.44A9.9,9.9,0,0,0,134,74.25a4.13,4.13,0,0,0,2.33,1.53,1.61,1.61,0,0,0,1.88-1.08.52.52,0,0,1,.48-.39h0a5.65,5.65,0,0,0,1.5-.24,4,4,0,0,0,1.31-.71,2.94,2.94,0,0,0,.87-1.18,4.56,4.56,0,0,0,.33-1.5l.31.43a11.44,11.44,0,0,1-2.24-1,10.49,10.49,0,0,1-2-1.49,8.37,8.37,0,0,1-1.51-1.94,8.51,8.51,0,0,1-.89-2.29l.46.15a5.54,5.54,0,0,0-1,1.42,5.77,5.77,0,0,0-.58,1.68,6,6,0,0,0-.07,1.79,7.77,7.77,0,0,0,.38,1.77v0a.14.14,0,0,1-.09.17h0a5.14,5.14,0,0,1-2.4-.79,5,5,0,0,1-1-.8,4.74,4.74,0,0,1-.4-.49A2.25,2.25,0,0,1,131.45,68.78Zm0-.09c.13.15.29.36.42.52a3.47,3.47,0,0,0,.41.45,4.37,4.37,0,0,0,1,.74,5,5,0,0,0,2.3.67l-.14.19a8.78,8.78,0,0,1-.47-1.83,6.72,6.72,0,0,1,0-1.9,6.23,6.23,0,0,1,.56-1.84,5.91,5.91,0,0,1,1.1-1.61.28.28,0,0,1,.38,0,.26.26,0,0,1,.07.11v0a7.72,7.72,0,0,0,.88,2.09,7.64,7.64,0,0,0,1.45,1.75,9.81,9.81,0,0,0,1.85,1.34,10.72,10.72,0,0,0,2.08.88h0a.42.42,0,0,1,.3.42,5.73,5.73,0,0,1-.34,1.81,3.77,3.77,0,0,1-1.07,1.57,4.69,4.69,0,0,1-1.63.94,5.65,5.65,0,0,1-1.84.32l.51-.39a2.56,2.56,0,0,1-3.06,1.76,5.09,5.09,0,0,1-2.76-2,10,10,0,0,1-1.51-2.87,11.86,11.86,0,0,1-.39-1.56A5.73,5.73,0,0,1,131.42,68.69Z"/>
      <g class="cls-6">
        <path class="cls-4" d="M225,129.59a34.36,34.36,0,0,1-2.7,12.85,39.18,39.18,0,0,1-7.07,11.16,42,42,0,0,1-10.38,8.16l-1.46.79-1.48.72c-1,.5-2,.88-3,1.31s-2.07.73-3.1,1.1-2.11.61-3.16.91a64,64,0,0,0,11.84-5.49,43.73,43.73,0,0,0,10-8.18,39.66,39.66,0,0,0,7.1-10.79,40.14,40.14,0,0,0,2.21-6.11A34.07,34.07,0,0,0,225,129.59Z"/>
      </g>
    </g>
  </g>
</svg>
