<svg id="Layer_1" data-name="Layer 1" xmlns="http://www.w3.org/2000/svg" xmlns:xlink="http://www.w3.org/1999/xlink" width="285.18" height="238.29" viewBox="0 0 285.18 238.29">
  <defs>
    <style>
      .cls-1, .cls-17, .cls-19, .cls-24, .cls-29, .cls-30 {
        fill: none;
      }

      .cls-2 {
        fill: #050505;
        opacity: 0.5;
      }

      .cls-3 {
        fill: #fff;
      }

      .cls-4 {
        clip-path: url(#clip-path);
      }

      .cls-5 {
        fill: #e1e1ed;
      }

      .cls-23, .cls-6 {
        fill: #252445;
      }

      .cls-7 {
        fill: #b2b2bf;
      }

      .cls-8 {
        fill: #e8724a;
      }

      .cls-9 {
        fill: #cf4b2d;
      }

      .cls-10 {
        fill: #996060;
      }

      .cls-11 {
        fill: #8f5a5a;
      }

      .cls-12 {
        fill: #b07272;
      }

      .cls-13 {
        fill: #9e6666;
      }

      .cls-14 {
        fill: #704646;
      }

      .cls-15 {
        fill: #7d4e4e;
      }

      .cls-16 {
        fill: #484787;
      }

      .cls-17, .cls-19, .cls-29, .cls-30 {
        stroke: #252445;
      }

      .cls-17, .cls-19, .cls-24, .cls-29, .cls-30 {
        stroke-linecap: round;
        stroke-linejoin: round;
      }

      .cls-17 {
        stroke-width: 1.42px;
      }

      .cls-18 {
        fill: #d6613a;
      }

      .cls-19 {
        stroke-width: 1.4px;
      }

      .cls-20 {
        fill: #5ec272;
      }

      .cls-21 {
        fill: #4ea15f;
      }

      .cls-22 {
        fill: #58b56b;
      }

      .cls-23, .cls-24 {
        fill-rule: evenodd;
      }

      .cls-24 {
        stroke: #fff;
        stroke-width: 1.47px;
      }

      .cls-25 {
        fill: #51517a;
      }

      .cls-26 {
        fill: #c2c2d1;
      }

      .cls-27 {
        fill: #3a4157;
      }

      .cls-28 {
        fill: #f0f3fa;
      }

      .cls-29 {
        stroke-width: 1.41px;
      }

      .cls-30 {
        stroke-width: 1.44px;
      }

      .cls-31 {
        fill: #5e6887;
      }

      .cls-32 {
        fill: #ffd482;
      }

      .cls-33 {
        fill: #181730;
      }
    </style>
    <clipPath id="clip-path">
      <rect class="cls-1" x="10.83" y="12.34" width="258.51" height="208.62"/>
    </clipPath>
  </defs>
  <g>
    <rect class="cls-2" x="32.78" y="-15.61" width="224.62" height="274.51" rx="8" transform="translate(266.74 -23.44) rotate(90)"/>
    <rect class="cls-3" x="27.78" y="-20.61" width="224.62" height="274.51" rx="8" transform="translate(256.74 -23.44) rotate(90)"/>
    <g class="cls-4">
      <rect class="cls-5" x="10.83" y="12.34" width="258.51" height="208.62"/>
      <g>
        <rect class="cls-5" x="82.31" y="12.34" width="235.68" height="148.64"/>
        <path class="cls-6" d="M166.42,66.6S164.24,79,170.68,81.38s8.76-21.23,8.76-21.23Z"/>
        <path class="cls-7" d="M224,156.42H181.58a4.48,4.48,0,0,1-4.5-5.57l8.86-46.31A7.1,7.1,0,0,1,192.58,99H235a4.48,4.48,0,0,1,4.5,5.57l-8.86,46.31A7.11,7.11,0,0,1,224,156.42Z"/>
        <rect class="cls-6" x="163.14" y="151.85" width="43.11" height="15.64"/>
        <path class="cls-3" d="M157.06,108.42l-3.3,42.47a3.64,3.64,0,0,0,2.92,3.53l1.08.3c2.89.78,6.66.28,7.17-2.15l7-39.09s4-10.85-9.12-11.17C157.26,102.17,157.06,108.42,157.06,108.42Z"/>
        <g>
          <path class="cls-8" d="M125.59,150.68s-8.65-4.05-9.77,2.2,2.73,4.66,2.73,4.66l9.06-.62Z"/>
          <path class="cls-8" d="M123.69,150.42c12.94.57,24-4.08,31.53-5.16,7.12-1,7.43,9.55,5.88,9.6-14.85,5.47-28.45,2.8-37.25,1.49-1.3,0-2.7-1.67-2.58-3.13h0C121.38,151.85,122.48,150.37,123.69,150.42Z"/>
        </g>
        <path class="cls-8" d="M197.51,115.74h-31c-3.85,0-7-4.35-7-9.72h0c0-5.36,3.12-9.71,7-9.71l15.17-3,15.87,3c3.85,0,7,4.35,7,9.71h0C204.48,111.39,201.36,115.74,197.51,115.74Z"/>
        <path class="cls-3" d="M167.65,95.54s-10.09.93-10.41,11.61a120.78,120.78,0,0,1-1.34,16.18l12.51-2.93Z"/>
        <path class="cls-9" d="M211.9,108.9a15.73,15.73,0,0,0-12.29-13.41c-10.35-2.23-14.94-2.35-20.8-2.14-2.18.08-7.84,1.61-11.16,2.19,0,0-1.48,11.65-3.82,18.83-1,3-2.52,4.48-2,8.76a13.14,13.14,0,0,0,4.88,8.89l-1.82,20.55c8.93,6.89,32.26,6.65,45.41,2.51.53-.18.11-30.57,1.16-33.78C212.6,117.93,212.45,113.22,211.9,108.9Z"/>
        <path class="cls-3" d="M214.83,115.74,217,148.18c0,5.39-3.47,6.07-5.27,6.37l-1-2.57c-2.91.47-5.69-1.27-6.11-3.82L198,108s-2.58-13.69,7.16-11C214.37,99.51,214.83,115.74,214.83,115.74Z"/>
        <g>
          <path class="cls-8" d="M173.44,156s-12.37-1.85-12.93,4.47,6.07,3,6.07,3l9.67-1.45Z"/>
          <path class="cls-8" d="M171.38,156c14-.63,27.34-7.66,35.2-9.93,6.81-2,8.24,4.56,8.24,4.56.09,1.73-.94,5.27-3.67,6.73-15.41,6.82-29.4,5-39,4.53a3.24,3.24,0,0,1-3.11-2.88h0C169,157.6,170.06,156,171.38,156Z"/>
        </g>
        <path class="cls-6" d="M199.79,48.2c-.3,2.15,0,.6,1.67,3A10.42,10.42,0,0,1,203,59.67c-.8,2.59-3.7.06-4.58,1.79s0,6.53-2.45,5.76-3.89.7-5.3-2.52S186.33,64,185.83,62s-6-7.53-4.48-8.48,1.63-4.81,4.48-5.1,1.9-1.38,4.6-2.77,2.39-2.22,4.62-.58S200.06,46.21,199.79,48.2Z"/>
        <rect class="cls-10" x="35.73" y="174.01" width="268.98" height="162.37"/>
        <rect class="cls-11" x="244.8" y="174.01" width="59.91" height="162.37"/>
        <rect class="cls-12" x="10.83" y="160.97" width="305.87" height="13.04"/>
        <rect class="cls-13" x="251.72" y="160.97" width="64.98" height="13.04"/>
        <rect class="cls-14" x="244.99" y="173.62" width="59.72" height="13.04"/>
        <polygon class="cls-15" points="244.99 173.62 35.73 173.62 35.73 177.4 244.99 186.65 244.99 173.62"/>
        <g>
          <polygon class="cls-3" points="119.74 149.47 65.92 149.47 53.07 107.89 106.89 107.89 119.74 149.47"/>
          <path class="cls-16" d="M79.21,161H93.6V142.58a7.19,7.19,0,0,0-7.19-7.2h0a7.2,7.2,0,0,0-7.2,7.2Z"/>
          <polygon class="cls-16" points="117.73 149.47 63.91 149.47 51.06 107.89 104.87 107.89 117.73 149.47"/>
          <polygon class="cls-6" points="93.6 149.47 93.6 141.68 100.67 149.47 93.6 149.47"/>
        </g>
        <rect class="cls-16" x="31.18" y="155.13" width="86.32" height="5.84"/>
        <rect class="cls-16" x="169.58" y="155.13" width="82.43" height="5.84"/>
        <rect class="cls-16" x="117.5" y="160.97" width="52.08" height="6.52"/>
        <path class="cls-8" d="M186,98.64l-1,.2c-2.92.59-6.2-.78-6.71-4C178,81.57,177.6,81.38,175.2,71a6.05,6.05,0,0,1,4.39-7l.95-.19c2.93-.59,4.8,2.63,5.31,5.87,1,12,1,11.65,4.53,23.11C190.9,96.08,189,98.05,186,98.64Z"/>
        <path class="cls-8" d="M172.54,87.2c-3-2.65-4.67-6.44-4-12.2l1.53-12.45c.9-7.4,25.27-4.42,24.36,3l-1.47,12c-.64,4.65-2.36-2.19-3.6.61-2.7,6.06-9.1,9.59-11.59,10C176.73,88.36,174.11,88.57,172.54,87.2Z"/>
        <path class="cls-6" d="M166.62,64.61c-.09,2.83-1.5,7,.71,5.24a57,57,0,0,1,8-4.29c5.77-1.7,9.06-3.86,8.78-6.58l.26-5.4s-6-5-13.09,1.3A13.09,13.09,0,0,0,166.62,64.61Z"/>
        <path class="cls-17" d="M175.45,72.4c-.93,3.82-1.62,3.79-1.45,4.56.31,1.42,2,1,2,1"/>
        <path class="cls-6" d="M184.94,70.3a23.4,23.4,0,0,0-4.15-.5c-1.26-.07-1.14-1.21,0-1.18a8.46,8.46,0,0,1,4.31,1C185.46,69.77,185.38,70.43,184.94,70.3Z"/>
        <path class="cls-6" d="M170.52,68.51a13.68,13.68,0,0,1,3.3.41c1,.2,1.11-1,.22-1.22a5.19,5.19,0,0,0-3.52,0C170.21,67.84,170.15,68.54,170.52,68.51Z"/>
        <path class="cls-6" d="M181.71,73.77c-.08.71-.55,1.24-1,1.19s-.84-.68-.76-1.4.55-1.24,1-1.19S181.79,73.05,181.71,73.77Z"/>
        <path class="cls-6" d="M173,72.57c-.08.71-.42,1.26-.77,1.22s-.57-.65-.49-1.36.43-1.27.78-1.23S173.1,71.85,173,72.57Z"/>
        <path class="cls-3" d="M172.31,79.89l6.87.83c-1.32,3.17-3.34,3.17-4.7,2.91C172.47,83.24,172.31,79.89,172.31,79.89Z"/>
        <path class="cls-6" d="M179.44,60.15s7.09,3.52,9.19,9.48c2.39,6.75,1.36,5.78.76,8.53-.2.91-2.26,2.72-2.17,3.54.74,6.89,15-8.41,10.31-20.15C195,55.13,189.37,50.89,181.8,52,169.84,53.76,179.44,60.15,179.44,60.15Z"/>
        <ellipse class="cls-8" cx="190.47" cy="75.99" rx="3.53" ry="2.64" transform="translate(71.24 242.83) rotate(-76.2)"/>
        <path class="cls-18" d="M178.15,88s4.58-1.87,5.29-2.85L178.31,92Z"/>
        <path class="cls-19" d="M39.22,12.34V155.13h81.6c0-.13,0-.26,0-.39v-.28h0c.41-14,11.26-25.23,24.6-25.23s24.19,11.23,24.6,25.23h0v.67h81.66V12.34Z"/>
        <path class="cls-3" d="M178.26,90.83s-4.33,1.61-5.32,3.59c0,0,1.54,4.74,3.5,6.37l5.37-2.1a8.27,8.27,0,0,1-3.49-5.3A20.86,20.86,0,0,1,178.26,90.83Z"/>
        <path class="cls-3" d="M181.81,98.69s6.65-3.11,7.95-7.86l4.36,3s-3.73,8-7.48,6.86A18.08,18.08,0,0,1,181.81,98.69Z"/>
        <path class="cls-6" d="M191,111.8h-5.85a.88.88,0,0,1-.87-1.18h0a1.66,1.66,0,0,1,1.5-1.18h5.84a.88.88,0,0,1,.87,1.18h0A1.65,1.65,0,0,1,191,111.8Z"/>
        <rect class="cls-20" x="39.57" y="12.34" width="93.24" height="35.29"/>
        <g>
          <path class="cls-3" d="M49.13,20.41H55.2c4.15,0,7,1.4,7,5a4.48,4.48,0,0,1-3,4.46V30a4.7,4.7,0,0,1,4.18,4.89c0,4-3.18,6-7.76,6H49.13Zm5.61,8.7c3.49,0,4.92-1.28,4.92-3.37,0-2.37-1.62-3.27-4.8-3.27H51.71v6.64Zm.53,9.69c3.52,0,5.57-1.28,5.57-4,0-2.53-2-3.68-5.57-3.68H51.71v7.7Z"/>
          <path class="cls-3" d="M71.66,20.41h2.93l6.92,20.45H78.73L76.8,34.62H69.35l-2,6.24H64.74ZM70,32.54h6.14l-1-3.12c-.75-2.28-1.4-4.52-2.06-6.89H73c-.62,2.37-1.28,4.61-2,6.89Z"/>
          <path class="cls-3" d="M84.4,20.41h2.68l7.39,12.84,2.21,4.24h.13c-.13-2.06-.31-4.36-.31-6.51V20.41H99V40.86H96.28L88.86,28l-2.21-4.2h-.13c.16,2,.35,4.24.35,6.39V40.86H84.4Z"/>
          <path class="cls-3" d="M104.57,20.41h2.58V30.67h.1l8.51-10.26h2.93L112.3,28.2l7.38,12.66h-2.89l-6.11-10.63-3.53,4.14v6.49h-2.58Z"/>
        </g>
        <rect class="cls-15" x="35.73" y="235.64" width="158.38" height="11.79"/>
        <g>
          <polygon class="cls-21" points="139.1 162.23 124.27 158.25 149.14 141.13 163.98 145.11 139.1 162.23"/>
          <path class="cls-3" d="M150,152a10,10,0,0,1-7.87,1.43h0c-2.53-.67-3.1-2.41-1.29-3.87a10,10,0,0,1,7.87-1.43c1.63.43,2.45,1.31,2.34,2.26A2.52,2.52,0,0,1,150,152Z"/>
          <path class="cls-20" d="M144.12,149.55a6.11,6.11,0,0,1,1.68-.76v.34a4.84,4.84,0,0,0-1.51.71c-.57.41-.64.71-.34.86.81.38,2.76-1.26,3.74-.81.44.21.32.68-.28,1.2l.5.24-.45.33-.5-.23a4.34,4.34,0,0,1-1.46.61l.09-.36a3.31,3.31,0,0,0,1.22-.54c.46-.34.57-.65.28-.79-.72-.33-2.65,1.31-3.72.81-.48-.22-.35-.71.31-1.27l-.5-.23.45-.34Z"/>
          <g>
            <path class="cls-3" d="M139.45,158.74c.15,0,.14.1,0,.15a.6.6,0,0,1-.38,0l-1.64-.48-.82-.23c-.08,0-.1-.07-.07-.1a.28.28,0,0,1,.21-.1C137,158,139.12,158.64,139.45,158.74Z"/>
            <path class="cls-3" d="M142.5,156.23c.81.23.91.58.44.82a3.5,3.5,0,0,1-2.29,0c-.87-.25-1.13-.58-.58-.85A3.67,3.67,0,0,1,142.5,156.23Zm-2,.12c-.35.17,0,.4.53.56a2.3,2.3,0,0,0,1.5,0c.33-.16.06-.38-.42-.52A2.48,2.48,0,0,0,140.49,156.35Z"/>
            <path class="cls-3" d="M140.42,157.27c.8.23.91.58.43.82a3.49,3.49,0,0,1-2.29,0c-.86-.25-1.13-.57-.58-.85A3.77,3.77,0,0,1,140.42,157.27Zm-2,.12c-.35.17,0,.4.52.56a2.27,2.27,0,0,0,1.51,0c.32-.16.06-.38-.42-.52A2.55,2.55,0,0,0,138.41,157.39Z"/>
          </g>
          <path class="cls-22" d="M141.34,159.65l-.15.1-.21-.07a2,2,0,0,0-.84-.12,2.56,2.56,0,0,0-1.11.32l-.16.09-.2-.07a73,73,0,0,0-9.09-2.57l-.27-.06.18-.1c.26-.16.37-.34.29-.49s-.32-.27-.71-.36l-.24-.06L148,143.09l.14-.09.21.06a2.57,2.57,0,0,0,2-.19l.15-.1.21.08a66.86,66.86,0,0,0,9.09,2.56l.3.07-.23.11c-.34.16-.48.32-.4.47a1.2,1.2,0,0,0,.82.36l.28.05Zm17.87-14.1a69.07,69.07,0,0,1-8.7-2.46,3.54,3.54,0,0,1-2.26.21l-18.72,12.88c.49.15.67.32.74.45s0,.38-.22.56a73.17,73.17,0,0,1,8.74,2.47,3.6,3.6,0,0,1,1.28-.32,3.21,3.21,0,0,1,1,.09l18.69-12.86a1.33,1.33,0,0,1-.85-.46.27.27,0,0,1,0-.16C158.88,145.84,159,145.7,159.21,145.55Z"/>
        </g>
        <g>
          <path class="cls-6" d="M7.55,208.13H7.32a1.84,1.84,0,0,1-1.6-2.06c0-.23,0-.8,0-1.35,0-2.73-.12-7.8,3-11a10.2,10.2,0,0,1,7.59-2.77c7.9,0,12.1.41,14.65,2.77s2.8,6.39,2.8,12.59a1.85,1.85,0,0,1-3.69,0c0-5.91-.22-8.59-1.62-9.89-1.61-1.49-5.67-1.79-12.14-1.79a6.67,6.67,0,0,0-5,1.67c-2.08,2.12-2,6-2,8.37a15.17,15.17,0,0,1,0,1.87A1.84,1.84,0,0,1,7.55,208.13Z"/>
          <rect class="cls-6" x="-5.23" y="203.9" width="52.04" height="39.66" rx="13.81"/>
          <path class="cls-23" d="M40.59,243.55l-34.34,0V227.43l40.56.36v9.53A6.25,6.25,0,0,1,40.59,243.55Z"/>
          <path class="cls-24" d="M3.22,204.49s3,.5,3,5.69v33"/>
          <polyline class="cls-24" points="-3.51 240.84 -0.24 234.62 6.25 243.19"/>
          <path class="cls-24" d="M-.29,215.26v19.5"/>
        </g>
        <path class="cls-8" d="M72.2,58s3.41,6.36,3.4,10.42c0,.77,0,1.72-.09,2.62a6.51,6.51,0,0,0,1.42,5c.15.21.93,1.38,1.74,2.8a.51.51,0,0,1,.1.29c0,.44-.35,1.56-2.1,1.62-.61,0-.51,1.88-.59,3.24-.12,2.15-.21,5.22-1.06,6.25-1.89,2.27-10.37.69-10.37.69L59.92,76.52Z"/>
        <path class="cls-8" d="M24.87,186.46c.73-10.14,3.39-20.81,2.57-26.91-.19-1.46-2.06-2.45-4.22-2.21l-3.69.41c-1.82.2-3.19,1.36-3.09,2.59l2.18,26.47c.1,1,2,2,3.55,1.8h0C23.59,188.41,24.8,187.45,24.87,186.46Z"/>
        <path class="cls-8" d="M55.75,103.76l1,.25c3.21.77,10.55-.23,11.17-2.79-5.9-2.69-2.59-10.73.26-18.94.63-2.6-1.48-5.36-4.69-6.13l-1-.26c-3.21-.77-7.77,1.31-8.4,3.91a64.91,64.91,0,0,1-5.31,14.4C47.6,96.56,52.54,103,55.75,103.76Z"/>
        <path class="cls-8" d="M70.39,90.64c3-2.24,3.32-4.38,3.32-9.74V69.32c0-6.89-5-12.52-11-12.52h-.6c-6.07,0-11,5.63-11,12.52v13c0,5.4,5.93,6,9.86,8C61.8,90.78,69,91.73,70.39,90.64Z"/>
        <path class="cls-25" d="M67.44,61.78s-20.13-3.28-20.7,4.55c-.33,4.52,1.31,10.06,2.75,13.93.26.7.44,1.38.61,2a3.31,3.31,0,0,0,5.44,1.56l9-8.3c0,.43.07.68.07.68,2.78-3.4,2.56-10.94,2.46-12.83Z"/>
        <path class="cls-8" d="M60.15,77.68c.57,2,2,3.19,3.27,2.65s1.77-2.62,1.2-4.62-2-3.19-3.28-2.65S59.57,75.68,60.15,77.68Z"/>
        <path class="cls-6" d="M75.37,66.34c.13.45,1.81-12.92-11.35-13.14-21.13-.35-17.27,15.63-17.27,15.63a18.09,18.09,0,0,0,18.1-3.2c3.09,1,8.31-.68,9.35-2.46A10.54,10.54,0,0,1,75.37,66.34Z"/>
        <path class="cls-26" d="M70.24,101.65a8.1,8.1,0,0,0-1.47,11.57l24.67,31.06c5.44,6.6,16,.46,10.35-7.61-.94-1.36-14.25-21.5-20.52-32-2.45-4.12-9.18-5.83-13-3Z"/>
        <path class="cls-6" d="M32.34,170.26,39,153.12l20.91-.05H60l20.91.05,1.41,21.64.73,8a8.1,8.1,0,0,1-4.53,8L65.08,202.15H54.85l-23.67-2.93C28.45,180,31.17,173.24,32.34,170.26Z"/>
        <path class="cls-6" d="M56,176.48S56,194,59.66,250l.64,10.75a9.57,9.57,0,0,0,9.55,9h0a9.57,9.57,0,0,0,9.56-9.19l3.66-76.07C83.12,166.78,57.44,162.29,56,176.48Z"/>
        <path class="cls-6" d="M30.87,179.32s-.32,17.15,2.53,72.15L33.87,262a9.33,9.33,0,0,0,9.42,8.84h0a9.68,9.68,0,0,0,9.7-9l4.8-74.66C58.1,169.79,32.48,165.39,30.87,179.32Z"/>
        <path class="cls-26" d="M24.47,111.06C25.33,100.68,36,100.72,36,100.72l10.1-4,11.16.53,9-.53,12,4.08,4.31,21.53L81,152.56,82,165.68l-24.68-.06-24.05.61,1.72-12.39a7.22,7.22,0,0,0-.11-2.62l-6.45-28.86Z"/>
        <path class="cls-27" d="M34.08,167c14.09,3.53,29.94,3,46.86,0a2.47,2.47,0,0,0,2.47-2.47v-.08A2.48,2.48,0,0,0,80.94,162c-16.25,3-31.92,3.22-46.86,0a2.48,2.48,0,0,0-2.48,2.48v.08A2.47,2.47,0,0,0,34.08,167Z"/>
        <path class="cls-28" d="M67.44,97.26l-2.59-2.68c-6.93,2.17-15.33-.7-15.09-2.37l-5.24,5.17S59.28,104,67.44,97.26Z"/>
        <path class="cls-6" d="M74.72,75c0,.67-.26,1.22-.57,1.22s-.58-.54-.58-1.22.26-1.23.57-1.23S74.72,74.32,74.72,75Z"/>
        <path class="cls-6" d="M71.5,70.93a18.25,18.25,0,0,1,3.62,0c2.1.18,1.91-2,.09-2s-2.45-.12-3.65.43C70.08,70,71.12,71,71.5,70.93Z"/>
        <path class="cls-29" d="M72.48,83.89a2,2,0,0,0,2.18,1.25"/>
        <path class="cls-26" d="M35.5,102.54a8.83,8.83,0,0,0-10.63,6.15l-9.21,38.15c-2,8.32,9.31,13,12.33,3.62.51-1.58,8.45-24.38,13-35.75,1.8-4.45-.92-10.84-5.53-12.17Z"/>
        <rect class="cls-8" x="16.09" y="193.15" width="7.35" height="5.71" rx="2.85" transform="translate(40.23 391.94) rotate(179.79)"/>
        <path class="cls-8" d="M18.93,182.75c.35-1.49.87-2.7,2.37-2.6h.15A4.58,4.58,0,0,1,25,182.21a4.69,4.69,0,0,1,.78,2l.33,2.44a17.33,17.33,0,0,1,.1,3.6l.34,4.69a3.83,3.83,0,0,1-.08,1.12,8,8,0,0,1-.73,2.27c-1.72.62-1.91-2.58-1.91-2.58l-.18-1.44c-.1-.82.49-3-.32-3.15l-6.93-.25Z"/>
        <path class="cls-26" d="M15.68,152.77s-.6,17,.06,26.55a3.21,3.21,0,0,0,3,3l4.43.22a3.2,3.2,0,0,0,3.34-2.88c.73-7.16,2.22-24.64,2.15-26.52C28.25,142.33,14.51,145.36,15.68,152.77Z"/>
        <line class="cls-30" x1="82.21" y1="130.82" x2="80.27" y2="120.82"/>
        <line class="cls-30" x1="31.72" y1="139.69" x2="30.01" y2="112.19"/>
        <g>
          <polygon class="cls-20" points="137.72 160.97 122.89 156.99 147.76 139.87 162.59 143.85 137.72 160.97"/>
          <path class="cls-3" d="M148.6,150.7a10,10,0,0,1-7.87,1.43h0c-2.53-.67-3.11-2.41-1.29-3.87a10,10,0,0,1,7.87-1.43c1.62.43,2.44,1.31,2.34,2.26A2.57,2.57,0,0,1,148.6,150.7Z"/>
          <path class="cls-20" d="M142.73,148.29a6.39,6.39,0,0,1,1.68-.76v.34a4.89,4.89,0,0,0-1.52.71c-.56.41-.64.71-.33.86.81.38,2.76-1.26,3.73-.81.45.21.32.68-.28,1.2l.51.24-.46.33-.49-.23a4.43,4.43,0,0,1-1.46.61l.09-.36a3.2,3.2,0,0,0,1.21-.54c.47-.34.57-.65.28-.79-.72-.33-2.64,1.31-3.72.81-.47-.22-.34-.71.32-1.27l-.51-.23.46-.34Z"/>
          <g>
            <path class="cls-3" d="M138.07,157.48c.14,0,.13.1,0,.15a.6.6,0,0,1-.38,0l-1.65-.48-.81-.23c-.09,0-.1-.07-.07-.1a.26.26,0,0,1,.2-.1C135.64,156.78,137.74,157.38,138.07,157.48Z"/>
            <path class="cls-3" d="M141.12,155c.8.23.91.58.43.82a3.49,3.49,0,0,1-2.29,0c-.86-.25-1.13-.58-.58-.85A3.7,3.7,0,0,1,141.12,155Zm-2,.12c-.35.17,0,.4.52.56a2.33,2.33,0,0,0,1.51,0c.32-.16.06-.38-.42-.52A2.49,2.49,0,0,0,139.11,155.09Z"/>
            <path class="cls-3" d="M139,156c.81.23.91.58.44.82a3.5,3.5,0,0,1-2.29,0c-.87-.25-1.13-.57-.58-.85A3.74,3.74,0,0,1,139,156Zm-2,.12c-.34.17,0,.4.53.56a2.27,2.27,0,0,0,1.51,0c.32-.16.05-.38-.43-.52A2.55,2.55,0,0,0,137,156.13Z"/>
          </g>
          <path class="cls-3" d="M140,158.39l-.15.1-.22-.07a2,2,0,0,0-.84-.12,2.6,2.6,0,0,0-1.11.32l-.15.09-.2-.07a74,74,0,0,0-9.09-2.57l-.28-.06.19-.1c.26-.16.36-.34.28-.49s-.31-.27-.71-.36l-.24-.06,19.13-13.17.14-.09.22.06a2.53,2.53,0,0,0,1.95-.19l.16-.1.21.08a66.7,66.7,0,0,0,9.08,2.56l.31.07-.23.11c-.35.16-.48.32-.41.47a1.25,1.25,0,0,0,.82.36l.29.05Zm17.87-14.1a69.24,69.24,0,0,1-8.71-2.46,3.51,3.51,0,0,1-2.25.21l-18.72,12.88c.48.15.67.32.73.45s0,.38-.21.56a74.24,74.24,0,0,1,8.74,2.47,3.55,3.55,0,0,1,1.28-.32,3.17,3.17,0,0,1,1,.09l18.7-12.86a1.33,1.33,0,0,1-.85-.46.27.27,0,0,1,0-.16C157.49,144.58,157.58,144.44,157.83,144.29Z"/>
        </g>
        <path class="cls-8" d="M126.77,153.45s12.62,2.22,13.12,8.23-5.33,2.31-5.33,2.31l-12.48-4.29Z"/>
        <path class="cls-26" d="M98.47,148.86s14.76,8.38,23.57,12.22a3.2,3.2,0,0,0,4-1.32l2.24-3.82a3.21,3.21,0,0,0-1-4.3c-6-4-20.83-13.36-22.53-14.16C95,132.9,91.36,146.48,98.47,148.86Z"/>
        <g>
          <polygon class="cls-6" points="225.28 160.97 217.99 160.97 211.58 145.24 218.88 145.24 225.28 160.97"/>
          <g>
            <path class="cls-6" d="M218.51,130.61l-9,0c-1.94,0-2.61,1.58-2.89,3.54l-1.75,12a1.63,1.63,0,0,0,0,.31l0,0c-.36,6.81-.5,9.11-.86,13.05a1.17,1.17,0,0,0,1.12,1.39l4.61,0h4.49a1.56,1.56,0,0,0,1.46-1.36c.79-3.93,1.51-6.23,3.12-13,0-.12.06-.24.08-.37l.18-1.29,1.57-10.74C220.84,132.21,220.45,130.62,218.51,130.61Z"/>
            <g>
              <path class="cls-26" d="M205.23,134.11c.29-2,1-3.55,2.89-3.54l9,0c1.93,0,2.33,1.6,2,3.57l-1.56,10.74-.19,1.29c0,.13,0,.25-.07.37-1.62,6.8-2.34,9.1-3.12,13A1.57,1.57,0,0,1,212.8,161h-4.49l-4.62,0a1.17,1.17,0,0,1-1.12-1.39c.36-3.94.51-6.24.87-13.05a.43.43,0,0,0,0,0l0-.31Z"/>
              <path class="cls-27" d="M205.62,134.8c.28-1.86.39-3.55,2.15-3.54l9,0c1.76,0,1.94,1.11,1.67,3l-1.55,10.77-.18,1.23c0,.12,0,.23-.07.35-1.51,6.44-2.17,8.63-2.91,12.36a1.47,1.47,0,0,1-1.34,1.29h-4.09l-4.2,0a1.1,1.1,0,0,1-1-1.32c.35-3.73.49-5.92.86-12.37a.43.43,0,0,1,0,0l0-.3Z"/>
              <path class="cls-6" d="M214.85,147.72l-9.16,0a.62.62,0,0,1-.6-.7l2.09-14.34a.6.6,0,0,1,.6-.52l9.16,0a.61.61,0,0,1,.6.7l-2.09,14.34A.6.6,0,0,1,214.85,147.72Z"/>
              <polygon class="cls-21" points="215.04 147.32 205.44 147.27 207.59 132.5 217.19 132.54 215.04 147.32"/>
              <polygon class="cls-22" points="205.44 147.27 207.59 132.5 217.19 132.54 205.44 147.27"/>
              <path class="cls-31" d="M206.82,150.3h-1.58a.51.51,0,0,1-.46-.64h0a.71.71,0,0,1,.65-.63H207a.51.51,0,0,1,.46.64h0A.71.71,0,0,1,206.82,150.3Z"/>
              <path class="cls-31" d="M210.18,150.32H208.6a.51.51,0,0,1-.47-.64h0a.72.72,0,0,1,.65-.63h1.58a.52.52,0,0,1,.47.64h0A.74.74,0,0,1,210.18,150.32Z"/>
              <path class="cls-31" d="M213.53,150.33H212a.51.51,0,0,1-.46-.63h0a.72.72,0,0,1,.65-.64h1.58a.51.51,0,0,1,.46.64h0A.71.71,0,0,1,213.53,150.33Z"/>
              <path class="cls-31" d="M209.9,152.24h-1.58a.51.51,0,0,1-.47-.64h0a.72.72,0,0,1,.65-.63h1.58a.52.52,0,0,1,.47.64h0A.74.74,0,0,1,209.9,152.24Z"/>
              <path class="cls-31" d="M209.69,154.14h-1.58a.5.5,0,0,1-.46-.63h0a.72.72,0,0,1,.64-.64h1.59a.51.51,0,0,1,.46.64h0A.71.71,0,0,1,209.69,154.14Z"/>
              <path class="cls-31" d="M213.25,152.25h-1.58a.52.52,0,0,1-.46-.64h0a.72.72,0,0,1,.65-.64h1.58a.51.51,0,0,1,.46.64h0A.71.71,0,0,1,213.25,152.25Z"/>
              <path class="cls-31" d="M206.26,154.14h-1.58a.51.51,0,0,1-.46-.63h0a.72.72,0,0,1,.65-.64h1.58a.51.51,0,0,1,.46.64h0A.71.71,0,0,1,206.26,154.14Z"/>
              <path class="cls-31" d="M213,154.17h-1.58a.51.51,0,0,1-.46-.64h0a.72.72,0,0,1,.65-.64h1.58a.51.51,0,0,1,.46.64h0A.7.7,0,0,1,213,154.17Z"/>
              <path class="cls-31" d="M206,156.06H204.4a.52.52,0,0,1-.46-.64h0a.72.72,0,0,1,.65-.64h1.58a.51.51,0,0,1,.46.64h0A.71.71,0,0,1,206,156.06Z"/>
              <path class="cls-31" d="M209.34,156.08h-1.58a.51.51,0,0,1-.47-.64h0a.73.73,0,0,1,.65-.63h1.58a.51.51,0,0,1,.47.64h0A.72.72,0,0,1,209.34,156.08Z"/>
              <path class="cls-21" d="M209.73,158.87l.16-1.07a.64.64,0,0,1,.61-.5l2.16-.15c.36,0,.63.22.56.53l-.25,1.23a.68.68,0,0,1-.66.48h-2.06A.47.47,0,0,1,209.73,158.87Z"/>
              <path class="cls-32" d="M208.74,159.37h-1.35a.4.4,0,0,1-.36-.5l.16-1.09a.57.57,0,0,1,.51-.5h1.35a.4.4,0,0,1,.36.5l-.16,1.09A.56.56,0,0,1,208.74,159.37Z"/>
              <path class="cls-9" d="M206.56,158.85l.15-1.06a.45.45,0,0,0-.46-.51l-2.12-.17a.66.66,0,0,0-.72.53l-.1,1.23a.47.47,0,0,0,.52.48h2.06A.67.67,0,0,0,206.56,158.85Z"/>
              <path class="cls-31" d="M206.54,152.22H205a.51.51,0,0,1-.46-.63h0a.72.72,0,0,1,.65-.64h1.58a.51.51,0,0,1,.46.64h0A.71.71,0,0,1,206.54,152.22Z"/>
              <path class="cls-31" d="M212.69,156.09h-1.58a.51.51,0,0,1-.46-.64h0a.72.72,0,0,1,.65-.64h1.58a.51.51,0,0,1,.46.64h0A.7.7,0,0,1,212.69,156.09Z"/>
            </g>
          </g>
          <path class="cls-33" d="M216.25,156.7l2.32-9.43a13.71,13.71,0,0,0,.36-1.91l.8,2-2,13Z"/>
        </g>
        <rect class="cls-26" x="174.42" y="150.97" width="19.59" height="10.37" rx="5.19"/>
        <rect class="cls-6" x="176.39" y="153.39" width="12.34" height="0.66" rx="0.33"/>
        <rect class="cls-6" x="176.39" y="155.46" width="12.34" height="0.66" rx="0.33"/>
        <rect class="cls-6" x="176.39" y="157.53" width="12.34" height="0.66" rx="0.33"/>
        <path class="cls-6" d="M191.38,154a.85.85,0,0,1-.85.85.86.86,0,1,1,.85-.85Z"/>
        <path class="cls-30" d="M166.75,132a5.35,5.35,0,0,0,2.34.83"/>
        <path class="cls-30" d="M186,132.43s8.84,2.71,12.46-6.14"/>
      </g>
    </g>
  </g>
</svg>
