<svg xmlns="http://www.w3.org/2000/svg" width="214.29" height="236.71" viewBox="0 0 214.29 236.71">
  <defs>
    <style>
      .cls-1 {
        isolation: isolate;
      }

      .cls-2 {
        fill: #050505;
        opacity: 0.5;
      }

      .cls-3 {
        fill: #fff;
      }

      .cls-4 {
        fill: #93c223;
      }

      .cls-5 {
        fill: #348ba3;
      }

      .cls-6 {
        fill: #c3cbcf;
        mix-blend-mode: multiply;
      }

      .cls-7 {
        fill: #8dc7cc;
      }

      .cls-8 {
        fill: #cce7e9;
      }

      .cls-9 {
        fill: #256880;
      }

      .cls-10 {
        opacity: 0.3;
        mix-blend-mode: overlay;
      }

      .cls-11 {
        fill: #115c7d;
      }

      .cls-12 {
        fill: #eff3f1;
      }

      .cls-13 {
        fill: #f0dfbd;
      }

      .cls-14 {
        fill: #0188aa;
      }

      .cls-15 {
        fill: #08a2c9;
      }

      .cls-16 {
        fill: #946a28;
      }

      .cls-17 {
        fill: #785311;
      }

      .cls-18 {
        fill: #789d14;
      }
    </style>
  </defs>
  <g class="cls-1">
    <g id="Layer_1" data-name="Layer 1">
      <g>
        <path class="cls-2" d="M21.5,233.58a15,15,0,0,1-4.81-29.27V51.24a8,8,0,0,1,8-8H27.2a8,8,0,0,1,7.64-5.61H37.1a8,8,0,0,1,5.24-2.7,8,8,0,0,1,4.34-2.06l25.2-3.51a8.68,8.68,0,0,1,2.2,0l25.19,3.51a8,8,0,0,1,4.34,2.06,8,8,0,0,1,1.4.26v-6a8,8,0,0,1,3.25-6.44l7-5.13A8,8,0,0,1,120,16h23.84l53-7.8a8.92,8.92,0,0,1,1.16-.08,8,8,0,0,1,8,8V206a15,15,0,0,1-8.15,27.63Z"/>
        <path class="cls-3" d="M16.5,228.58a15,15,0,0,1-4.81-29.27V46.24a8,8,0,0,1,8-8H22.2a8,8,0,0,1,7.64-5.61H32.1a8,8,0,0,1,5.24-2.7,8,8,0,0,1,4.34-2.06l25.2-3.51a8.68,8.68,0,0,1,2.2,0l25.19,3.51a8,8,0,0,1,4.34,2.06,8,8,0,0,1,1.4.26V24.14a8,8,0,0,1,3.25-6.44l7-5.13A8,8,0,0,1,115,11h23.84l53-7.8a8.92,8.92,0,0,1,1.16-.08,8,8,0,0,1,8,8V201a15,15,0,0,1-8.15,27.63Z"/>
        <g>
          <rect class="cls-4" x="9.47" y="206.52" width="190.35" height="14.06" rx="7.03"/>
          <g>
            <g>
              <rect class="cls-5" x="132.47" y="24.13" width="60.47" height="188.54"/>
              <polygon class="cls-5" points="192.94 24.13 192.94 11.13 139.4 19.01 132.47 24.13 192.94 24.13"/>
              <polygon class="cls-6" points="192.94 11.13 139.4 19.01 132.47 24.13 192.94 11.13"/>
              <rect class="cls-5" x="130.57" y="79.53" width="60.44" height="2.86"/>
              <rect class="cls-5" x="130.57" y="98.77" width="60.44" height="2.86"/>
              <rect class="cls-5" x="130.57" y="118.02" width="60.44" height="2.87"/>
              <rect class="cls-5" x="130.57" y="156.53" width="60.44" height="2.86"/>
              <rect class="cls-5" x="130.57" y="175.78" width="60.44" height="2.86"/>
              <rect class="cls-5" x="108.01" y="24.14" width="24.44" height="188.53"/>
              <polygon class="cls-5" points="132.45 24.14 139.4 19.01 114.97 19.01 108.01 24.14 132.45 24.14"/>
              <polygon class="cls-6" points="132.45 24.14 139.4 19.01 114.97 19.01 108.01 24.14 132.45 24.14"/>
              <g>
                <g>
                  <g>
                    <rect class="cls-7" x="112.65" y="32.56" width="76.6" height="1.18"/>
                    <rect class="cls-8" x="112.65" y="35.55" width="76.6" height="1.17"/>
                    <rect class="cls-9" x="112.65" y="29.6" width="76.6" height="1.18"/>
                    <rect class="cls-7" x="112.65" y="26.64" width="76.6" height="1.18"/>
                    <rect class="cls-7" x="112.65" y="38.53" width="76.6" height="1.18"/>
                    <rect class="cls-7" x="112.65" y="41.53" width="76.6" height="1.17"/>
                    <rect class="cls-7" x="112.65" y="44.51" width="76.6" height="1.18"/>
                    <rect class="cls-8" x="112.65" y="47.49" width="76.6" height="1.19"/>
                    <rect class="cls-9" x="112.65" y="50.49" width="76.6" height="1.17"/>
                    <rect class="cls-7" x="112.65" y="53.47" width="76.6" height="1.18"/>
                    <rect class="cls-8" x="112.65" y="56.47" width="76.6" height="1.17"/>
                  </g>
                  <rect class="cls-5" x="112.65" y="40.68" width="76.6" height="2.86"/>
                  <rect class="cls-5" x="112.65" y="58.49" width="76.6" height="2.87"/>
                </g>
                <g>
                  <g>
                    <rect class="cls-7" x="112.65" y="68.08" width="76.6" height="1.18"/>
                    <rect class="cls-8" x="112.65" y="71.08" width="76.6" height="1.17"/>
                    <rect class="cls-9" x="112.65" y="65.12" width="76.6" height="1.18"/>
                    <rect class="cls-7" x="112.65" y="62.16" width="76.6" height="1.18"/>
                    <rect class="cls-7" x="112.65" y="74.05" width="76.6" height="1.19"/>
                    <rect class="cls-7" x="112.65" y="77.04" width="76.6" height="1.18"/>
                    <rect class="cls-7" x="112.65" y="80.03" width="76.6" height="1.18"/>
                    <rect class="cls-8" x="112.65" y="83.02" width="76.6" height="1.17"/>
                    <rect class="cls-9" x="112.65" y="86.01" width="76.6" height="1.18"/>
                    <rect class="cls-7" x="112.65" y="89" width="76.6" height="1.17"/>
                    <rect class="cls-8" x="112.65" y="91.98" width="76.6" height="1.18"/>
                  </g>
                  <rect class="cls-5" x="112.65" y="76.2" width="76.6" height="2.86"/>
                  <rect class="cls-5" x="112.65" y="94.02" width="76.6" height="2.86"/>
                </g>
                <g>
                  <g>
                    <rect class="cls-7" x="112.65" y="103.61" width="76.6" height="1.17"/>
                    <rect class="cls-8" x="112.65" y="106.59" width="76.6" height="1.17"/>
                    <rect class="cls-9" x="112.65" y="100.64" width="76.6" height="1.18"/>
                    <rect class="cls-7" x="112.65" y="97.68" width="76.6" height="1.17"/>
                    <rect class="cls-7" x="112.65" y="109.57" width="76.6" height="1.19"/>
                    <rect class="cls-7" x="112.65" y="112.56" width="76.6" height="1.17"/>
                    <rect class="cls-7" x="112.65" y="115.55" width="76.6" height="1.18"/>
                    <rect class="cls-8" x="112.65" y="118.54" width="76.6" height="1.18"/>
                    <rect class="cls-7" x="112.65" y="121.53" width="76.6" height="1.18"/>
                    <rect class="cls-9" x="112.65" y="124.52" width="76.6" height="1.17"/>
                    <rect class="cls-8" x="112.65" y="127.51" width="76.6" height="1.17"/>
                  </g>
                  <rect class="cls-5" x="112.65" y="111.71" width="76.6" height="2.87"/>
                  <rect class="cls-5" x="112.65" y="129.53" width="76.6" height="2.87"/>
                </g>
                <g>
                  <g>
                    <rect class="cls-7" x="112.65" y="139.12" width="76.6" height="1.18"/>
                    <rect class="cls-8" x="112.65" y="142.11" width="76.6" height="1.18"/>
                    <rect class="cls-9" x="112.65" y="136.16" width="76.6" height="1.18"/>
                    <rect class="cls-7" x="112.65" y="133.2" width="76.6" height="1.18"/>
                    <rect class="cls-7" x="112.65" y="145.1" width="76.6" height="1.17"/>
                    <rect class="cls-7" x="112.65" y="148.09" width="76.6" height="1.18"/>
                    <rect class="cls-7" x="112.65" y="151.07" width="76.6" height="1.18"/>
                    <rect class="cls-8" x="112.65" y="154.06" width="76.6" height="1.18"/>
                    <rect class="cls-7" x="112.65" y="157.05" width="76.6" height="1.18"/>
                    <rect class="cls-7" x="112.65" y="160.04" width="76.6" height="1.17"/>
                    <rect class="cls-8" x="112.65" y="163.03" width="76.6" height="1.17"/>
                  </g>
                  <rect class="cls-5" x="112.65" y="147.24" width="76.6" height="2.87"/>
                  <rect class="cls-5" x="112.65" y="165.05" width="76.6" height="2.86"/>
                </g>
                <g>
                  <g>
                    <rect class="cls-7" x="112.65" y="174.64" width="76.6" height="1.18"/>
                    <rect class="cls-8" x="112.65" y="177.63" width="76.6" height="1.17"/>
                    <rect class="cls-9" x="112.65" y="171.69" width="76.6" height="1.17"/>
                    <rect class="cls-7" x="112.65" y="168.73" width="76.6" height="1.18"/>
                    <rect class="cls-7" x="112.65" y="180.62" width="76.6" height="1.18"/>
                    <rect class="cls-7" x="112.65" y="183.6" width="76.6" height="1.17"/>
                    <rect class="cls-7" x="112.65" y="186.6" width="76.6" height="1.17"/>
                    <rect class="cls-8" x="112.65" y="189.58" width="76.6" height="1.18"/>
                    <rect class="cls-7" x="112.65" y="192.57" width="76.6" height="1.18"/>
                    <rect class="cls-9" x="112.65" y="195.55" width="76.6" height="1.19"/>
                    <rect class="cls-8" x="112.65" y="198.54" width="76.6" height="1.18"/>
                  </g>
                  <rect class="cls-5" x="112.65" y="182.76" width="76.6" height="2.86"/>
                  <rect class="cls-5" x="112.65" y="200.57" width="76.6" height="2.87"/>
                </g>
              </g>
              <rect class="cls-5" x="161.35" y="26.35" width="1.71" height="181.5"/>
              <rect class="cls-6" x="108.01" y="24.14" width="24.44" height="188.53"/>
            </g>
            <g class="cls-10">
              <rect class="cls-5" x="132.47" y="24.13" width="60.47" height="188.54"/>
              <polygon class="cls-5" points="192.94 24.13 192.94 11.13 139.4 19.01 132.47 24.13 192.94 24.13"/>
              <polygon class="cls-6" points="192.94 11.13 139.4 19.01 132.47 24.13 192.94 11.13"/>
              <rect class="cls-5" x="130.57" y="79.53" width="60.44" height="2.86"/>
              <rect class="cls-5" x="130.57" y="98.77" width="60.44" height="2.86"/>
              <rect class="cls-5" x="130.57" y="118.02" width="60.44" height="2.87"/>
              <rect class="cls-5" x="130.57" y="156.53" width="60.44" height="2.86"/>
              <rect class="cls-5" x="130.57" y="175.78" width="60.44" height="2.86"/>
              <rect class="cls-5" x="108.01" y="24.14" width="24.44" height="188.53"/>
              <polygon class="cls-5" points="132.45 24.14 139.4 19.01 114.97 19.01 108.01 24.14 132.45 24.14"/>
              <polygon class="cls-6" points="132.45 24.14 139.4 19.01 114.97 19.01 108.01 24.14 132.45 24.14"/>
              <g>
                <g>
                  <g>
                    <rect class="cls-7" x="112.65" y="32.56" width="76.6" height="1.18"/>
                    <rect class="cls-8" x="112.65" y="35.55" width="76.6" height="1.17"/>
                    <rect class="cls-9" x="112.65" y="29.6" width="76.6" height="1.18"/>
                    <rect class="cls-7" x="112.65" y="26.64" width="76.6" height="1.18"/>
                    <rect class="cls-7" x="112.65" y="38.53" width="76.6" height="1.18"/>
                    <rect class="cls-7" x="112.65" y="41.53" width="76.6" height="1.17"/>
                    <rect class="cls-7" x="112.65" y="44.51" width="76.6" height="1.18"/>
                    <rect class="cls-8" x="112.65" y="47.49" width="76.6" height="1.19"/>
                    <rect class="cls-9" x="112.65" y="50.49" width="76.6" height="1.17"/>
                    <rect class="cls-7" x="112.65" y="53.47" width="76.6" height="1.18"/>
                    <rect class="cls-8" x="112.65" y="56.47" width="76.6" height="1.17"/>
                  </g>
                  <rect class="cls-5" x="112.65" y="40.68" width="76.6" height="2.86"/>
                  <rect class="cls-5" x="112.65" y="58.49" width="76.6" height="2.87"/>
                </g>
                <g>
                  <g>
                    <rect class="cls-7" x="112.65" y="68.08" width="76.6" height="1.18"/>
                    <rect class="cls-8" x="112.65" y="71.08" width="76.6" height="1.17"/>
                    <rect class="cls-9" x="112.65" y="65.12" width="76.6" height="1.18"/>
                    <rect class="cls-7" x="112.65" y="62.16" width="76.6" height="1.18"/>
                    <rect class="cls-7" x="112.65" y="74.05" width="76.6" height="1.19"/>
                    <rect class="cls-7" x="112.65" y="77.04" width="76.6" height="1.18"/>
                    <rect class="cls-7" x="112.65" y="80.03" width="76.6" height="1.18"/>
                    <rect class="cls-8" x="112.65" y="83.02" width="76.6" height="1.17"/>
                    <rect class="cls-9" x="112.65" y="86.01" width="76.6" height="1.18"/>
                    <rect class="cls-7" x="112.65" y="89" width="76.6" height="1.17"/>
                    <rect class="cls-8" x="112.65" y="91.98" width="76.6" height="1.18"/>
                  </g>
                  <rect class="cls-5" x="112.65" y="76.2" width="76.6" height="2.86"/>
                  <rect class="cls-5" x="112.65" y="94.02" width="76.6" height="2.86"/>
                </g>
                <g>
                  <g>
                    <rect class="cls-7" x="112.65" y="103.61" width="76.6" height="1.17"/>
                    <rect class="cls-8" x="112.65" y="106.59" width="76.6" height="1.17"/>
                    <rect class="cls-9" x="112.65" y="100.64" width="76.6" height="1.18"/>
                    <rect class="cls-7" x="112.65" y="97.68" width="76.6" height="1.17"/>
                    <rect class="cls-7" x="112.65" y="109.57" width="76.6" height="1.19"/>
                    <rect class="cls-7" x="112.65" y="112.56" width="76.6" height="1.17"/>
                    <rect class="cls-7" x="112.65" y="115.55" width="76.6" height="1.18"/>
                    <rect class="cls-8" x="112.65" y="118.54" width="76.6" height="1.18"/>
                    <rect class="cls-7" x="112.65" y="121.53" width="76.6" height="1.18"/>
                    <rect class="cls-9" x="112.65" y="124.52" width="76.6" height="1.17"/>
                    <rect class="cls-8" x="112.65" y="127.51" width="76.6" height="1.17"/>
                  </g>
                  <rect class="cls-5" x="112.65" y="111.71" width="76.6" height="2.87"/>
                  <rect class="cls-5" x="112.65" y="129.53" width="76.6" height="2.87"/>
                </g>
                <g>
                  <g>
                    <rect class="cls-7" x="112.65" y="139.12" width="76.6" height="1.18"/>
                    <rect class="cls-8" x="112.65" y="142.11" width="76.6" height="1.18"/>
                    <rect class="cls-9" x="112.65" y="136.16" width="76.6" height="1.18"/>
                    <rect class="cls-7" x="112.65" y="133.2" width="76.6" height="1.18"/>
                    <rect class="cls-7" x="112.65" y="145.1" width="76.6" height="1.17"/>
                    <rect class="cls-7" x="112.65" y="148.09" width="76.6" height="1.18"/>
                    <rect class="cls-7" x="112.65" y="151.07" width="76.6" height="1.18"/>
                    <rect class="cls-8" x="112.65" y="154.06" width="76.6" height="1.18"/>
                    <rect class="cls-7" x="112.65" y="157.05" width="76.6" height="1.18"/>
                    <rect class="cls-7" x="112.65" y="160.04" width="76.6" height="1.17"/>
                    <rect class="cls-8" x="112.65" y="163.03" width="76.6" height="1.17"/>
                  </g>
                  <rect class="cls-5" x="112.65" y="147.24" width="76.6" height="2.87"/>
                  <rect class="cls-5" x="112.65" y="165.05" width="76.6" height="2.86"/>
                </g>
                <g>
                  <g>
                    <rect class="cls-7" x="112.65" y="174.64" width="76.6" height="1.18"/>
                    <rect class="cls-8" x="112.65" y="177.63" width="76.6" height="1.17"/>
                    <rect class="cls-9" x="112.65" y="171.69" width="76.6" height="1.17"/>
                    <rect class="cls-7" x="112.65" y="168.73" width="76.6" height="1.18"/>
                    <rect class="cls-7" x="112.65" y="180.62" width="76.6" height="1.18"/>
                    <rect class="cls-7" x="112.65" y="183.6" width="76.6" height="1.17"/>
                    <rect class="cls-7" x="112.65" y="186.6" width="76.6" height="1.17"/>
                    <rect class="cls-8" x="112.65" y="189.58" width="76.6" height="1.18"/>
                    <rect class="cls-7" x="112.65" y="192.57" width="76.6" height="1.18"/>
                    <rect class="cls-9" x="112.65" y="195.55" width="76.6" height="1.19"/>
                    <rect class="cls-8" x="112.65" y="198.54" width="76.6" height="1.18"/>
                  </g>
                  <rect class="cls-5" x="112.65" y="182.76" width="76.6" height="2.86"/>
                  <rect class="cls-5" x="112.65" y="200.57" width="76.6" height="2.87"/>
                </g>
              </g>
              <rect class="cls-5" x="161.35" y="26.35" width="1.71" height="181.5"/>
              <rect class="cls-6" x="108.01" y="24.14" width="24.44" height="188.53"/>
            </g>
          </g>
          <g>
            <g>
              <rect class="cls-11" x="29.84" y="40.63" width="76.28" height="17.11"/>
              <rect class="cls-11" x="38.13" y="37.89" width="59.7" height="13.39"/>
              <polygon class="cls-11" points="42.78 49.18 93.16 49.18 93.16 35.79 67.58 35.13 42.78 35.79 42.78 49.18"/>
              <polygon class="cls-12" points="93.16 35.79 67.98 32.29 42.78 35.79 93.16 35.79"/>
            </g>
            <rect class="cls-13" x="19.69" y="46.24" width="95.79" height="166.43"/>
            <rect class="cls-14" x="19.69" y="46.24" width="95.79" height="5.1"/>
            <g>
              <g>
                <g>
                  <rect class="cls-11" x="70.07" y="57.46" width="11.38" height="10.82"/>
                  <rect class="cls-13" x="75.3" y="57.46" width="0.46" height="10.82"/>
                </g>
                <rect class="cls-13" x="70.07" y="68.28" width="11.38" height="0.44"/>
              </g>
              <g>
                <g>
                  <rect class="cls-11" x="53.74" y="57.46" width="11.37" height="10.82"/>
                  <rect class="cls-13" x="58.96" y="57.46" width="0.47" height="10.82"/>
                </g>
                <rect class="cls-13" x="53.74" y="68.28" width="11.37" height="0.44"/>
              </g>
              <g>
                <g>
                  <rect class="cls-11" x="70.07" y="70.9" width="11.38" height="10.82"/>
                  <rect class="cls-13" x="75.3" y="70.9" width="0.46" height="10.82"/>
                </g>
                <rect class="cls-13" x="70.07" y="81.72" width="11.38" height="0.44"/>
              </g>
              <g>
                <g>
                  <rect class="cls-11" x="53.74" y="70.9" width="11.37" height="10.82"/>
                  <rect class="cls-13" x="58.96" y="70.9" width="0.47" height="10.82"/>
                </g>
                <rect class="cls-13" x="53.74" y="81.72" width="11.37" height="0.44"/>
              </g>
              <g>
                <g>
                  <rect class="cls-11" x="70.07" y="84.34" width="11.38" height="10.82"/>
                  <rect class="cls-13" x="75.3" y="84.34" width="0.46" height="10.82"/>
                </g>
                <rect class="cls-13" x="70.07" y="95.16" width="11.38" height="0.44"/>
              </g>
              <g>
                <g>
                  <rect class="cls-11" x="53.74" y="84.34" width="11.37" height="10.82"/>
                  <rect class="cls-13" x="58.96" y="84.34" width="0.47" height="10.82"/>
                </g>
                <rect class="cls-13" x="53.74" y="95.16" width="11.37" height="0.44"/>
              </g>
              <g>
                <g>
                  <rect class="cls-11" x="70.07" y="97.79" width="11.38" height="10.82"/>
                  <rect class="cls-13" x="75.3" y="97.79" width="0.46" height="10.82"/>
                </g>
                <rect class="cls-13" x="70.07" y="108.61" width="11.38" height="0.44"/>
              </g>
              <g>
                <g>
                  <rect class="cls-11" x="53.74" y="97.79" width="11.37" height="10.82"/>
                  <rect class="cls-13" x="58.96" y="97.79" width="0.47" height="10.82"/>
                </g>
                <rect class="cls-13" x="53.74" y="108.61" width="11.37" height="0.44"/>
              </g>
              <g>
                <g>
                  <rect class="cls-11" x="70.07" y="111.24" width="11.38" height="10.82"/>
                  <rect class="cls-13" x="75.3" y="111.24" width="0.46" height="10.82"/>
                </g>
                <rect class="cls-13" x="70.07" y="122.05" width="11.38" height="0.44"/>
              </g>
              <g>
                <g>
                  <rect class="cls-11" x="53.74" y="111.24" width="11.37" height="10.82"/>
                  <rect class="cls-13" x="58.96" y="111.24" width="0.47" height="10.82"/>
                </g>
                <rect class="cls-13" x="53.74" y="122.05" width="11.37" height="0.44"/>
              </g>
              <g>
                <g>
                  <rect class="cls-11" x="70.07" y="124.68" width="11.38" height="10.81"/>
                  <rect class="cls-13" x="75.3" y="124.68" width="0.46" height="10.81"/>
                </g>
                <rect class="cls-13" x="70.07" y="135.49" width="11.38" height="0.44"/>
              </g>
              <g>
                <g>
                  <rect class="cls-11" x="53.74" y="124.68" width="11.37" height="10.81"/>
                  <rect class="cls-13" x="58.96" y="124.68" width="0.47" height="10.81"/>
                </g>
                <rect class="cls-13" x="53.74" y="135.49" width="11.37" height="0.44"/>
              </g>
              <g>
                <g>
                  <rect class="cls-11" x="70.07" y="138.13" width="11.38" height="10.82"/>
                  <rect class="cls-13" x="75.3" y="138.13" width="0.46" height="10.82"/>
                </g>
                <rect class="cls-13" x="70.07" y="148.94" width="11.38" height="0.44"/>
              </g>
              <g>
                <g>
                  <rect class="cls-11" x="53.74" y="138.13" width="11.37" height="10.82"/>
                  <rect class="cls-13" x="58.96" y="138.13" width="0.47" height="10.82"/>
                </g>
                <rect class="cls-13" x="53.74" y="148.94" width="11.37" height="0.44"/>
              </g>
              <g>
                <g>
                  <rect class="cls-11" x="70.07" y="151.57" width="11.38" height="10.81"/>
                  <rect class="cls-13" x="75.3" y="151.57" width="0.46" height="10.81"/>
                </g>
                <rect class="cls-13" x="70.07" y="162.39" width="11.38" height="0.44"/>
              </g>
              <g>
                <g>
                  <rect class="cls-11" x="53.74" y="151.57" width="11.37" height="10.81"/>
                  <rect class="cls-13" x="58.96" y="151.57" width="0.47" height="10.81"/>
                </g>
                <rect class="cls-13" x="53.74" y="162.39" width="11.37" height="0.44"/>
              </g>
              <g>
                <g>
                  <rect class="cls-11" x="70.07" y="165.02" width="11.38" height="10.81"/>
                  <rect class="cls-13" x="75.3" y="165.02" width="0.46" height="10.81"/>
                </g>
                <rect class="cls-13" x="70.07" y="175.83" width="11.38" height="0.44"/>
              </g>
              <g>
                <g>
                  <rect class="cls-11" x="53.74" y="165.02" width="11.37" height="10.81"/>
                  <rect class="cls-13" x="58.96" y="165.02" width="0.47" height="10.81"/>
                </g>
                <rect class="cls-13" x="53.74" y="175.83" width="11.37" height="0.44"/>
              </g>
              <g>
                <g>
                  <rect class="cls-11" x="70.07" y="178.46" width="11.38" height="10.83"/>
                  <rect class="cls-13" x="75.3" y="178.46" width="0.46" height="10.83"/>
                </g>
                <rect class="cls-13" x="70.07" y="189.28" width="11.38" height="0.44"/>
              </g>
              <g>
                <g>
                  <rect class="cls-11" x="53.74" y="178.46" width="11.37" height="10.83"/>
                  <rect class="cls-13" x="58.96" y="178.46" width="0.47" height="10.83"/>
                </g>
                <rect class="cls-13" x="53.74" y="189.28" width="11.37" height="0.44"/>
              </g>
              <g>
                <g>
                  <rect class="cls-11" x="70.07" y="191.91" width="11.38" height="10.81"/>
                  <rect class="cls-13" x="75.3" y="191.91" width="0.46" height="10.81"/>
                </g>
                <rect class="cls-13" x="70.07" y="202.72" width="11.38" height="0.44"/>
              </g>
              <g>
                <g>
                  <rect class="cls-11" x="53.74" y="191.91" width="11.37" height="10.81"/>
                  <rect class="cls-13" x="58.96" y="191.91" width="0.47" height="10.81"/>
                </g>
                <rect class="cls-13" x="53.74" y="202.72" width="11.37" height="0.44"/>
              </g>
            </g>
            <g>
              <rect class="cls-15" x="28.87" y="57.46" width="10.72" height="10.82"/>
              <rect class="cls-15" x="28.87" y="70.9" width="10.72" height="10.82"/>
              <rect class="cls-15" x="28.87" y="84.34" width="10.72" height="10.82"/>
              <rect class="cls-15" x="28.87" y="97.79" width="10.72" height="10.82"/>
              <rect class="cls-15" x="28.87" y="111.24" width="10.72" height="10.82"/>
              <rect class="cls-15" x="28.87" y="124.68" width="10.72" height="10.81"/>
              <rect class="cls-15" x="28.87" y="138.13" width="10.72" height="10.82"/>
              <rect class="cls-15" x="28.87" y="151.57" width="10.72" height="10.81"/>
              <rect class="cls-15" x="28.87" y="165.02" width="10.72" height="10.81"/>
              <rect class="cls-15" x="28.87" y="178.46" width="10.72" height="10.83"/>
              <rect class="cls-15" x="28.87" y="191.91" width="10.72" height="10.81"/>
            </g>
            <g>
              <rect class="cls-15" x="96.17" y="57.46" width="10.73" height="10.82"/>
              <rect class="cls-15" x="96.17" y="70.9" width="10.73" height="10.82"/>
              <rect class="cls-15" x="96.17" y="84.34" width="10.73" height="10.82"/>
              <rect class="cls-15" x="96.17" y="97.79" width="10.73" height="10.82"/>
              <rect class="cls-15" x="96.17" y="111.24" width="10.73" height="10.82"/>
              <rect class="cls-15" x="96.17" y="124.68" width="10.73" height="10.81"/>
              <rect class="cls-15" x="96.17" y="138.13" width="10.73" height="10.82"/>
              <rect class="cls-15" x="96.17" y="151.57" width="10.73" height="10.81"/>
              <rect class="cls-15" x="96.17" y="165.02" width="10.73" height="10.81"/>
              <rect class="cls-15" x="96.17" y="178.46" width="10.73" height="10.83"/>
              <rect class="cls-15" x="96.17" y="191.91" width="10.73" height="10.81"/>
            </g>
            <rect class="cls-12" x="53.74" y="67.25" width="27.71" height="1.91"/>
            <rect class="cls-12" x="53.74" y="80.69" width="27.71" height="1.91"/>
            <rect class="cls-12" x="53.74" y="94.14" width="27.71" height="1.9"/>
            <rect class="cls-12" x="53.74" y="107.58" width="27.71" height="1.91"/>
            <rect class="cls-12" x="53.74" y="121.02" width="27.71" height="1.91"/>
            <rect class="cls-12" x="53.74" y="134.47" width="27.71" height="1.9"/>
            <rect class="cls-12" x="53.74" y="147.92" width="27.71" height="1.91"/>
            <rect class="cls-12" x="53.74" y="161.36" width="27.71" height="1.9"/>
            <rect class="cls-12" x="53.74" y="174.8" width="27.71" height="1.91"/>
            <rect class="cls-12" x="53.74" y="188.24" width="27.71" height="1.91"/>
            <rect class="cls-12" x="53.74" y="201.7" width="27.71" height="1.9"/>
          </g>
          <g>
            <g>
              <rect class="cls-16" x="34.59" y="166.23" width="2.14" height="42.14"/>
              <rect class="cls-17" x="34.59" y="166.23" width="1.02" height="42.14"/>
              <g>
                <polygon class="cls-16" points="28.88 185.72 29.53 184.99 35.61 191.07 35.59 192.48 28.88 185.72"/>
                <polygon class="cls-17" points="29.19 185.37 35.6 191.79 35.59 192.48 28.88 185.72 29.19 185.37"/>
              </g>
              <g>
                <polygon class="cls-16" points="28.07 172.03 28.59 171.22 35.66 176.33 35.61 177.55 28.07 172.03"/>
                <polygon class="cls-17" points="28.33 171.66 35.61 176.94 35.61 177.55 28.07 172.03 28.33 171.66"/>
              </g>
              <g>
                <polygon class="cls-16" points="43.39 176.77 43.95 177.59 35.97 183.8 35.12 183.22 43.39 176.77"/>
                <polygon class="cls-17" points="43.65 177.16 35.51 183.51 35.12 183.22 43.39 176.77 43.65 177.16"/>
              </g>
              <g>
                <polygon class="cls-16" points="43.39 188.75 43.95 189.55 35.61 196.03 35.59 194.82 43.39 188.75"/>
                <polygon class="cls-17" points="43.65 189.13 35.51 195.47 35.12 195.18 43.39 188.75 43.65 189.13"/>
              </g>
              <g>
                <g>
                  <path class="cls-4" d="M37.76,188.73a4.91,4.91,0,0,0,5.12,5.08,5.08,5.08,0,1,0,0-10.15A4.94,4.94,0,0,0,37.76,188.73Z"/>
                  <path class="cls-4" d="M34,188.76c0,2,1.68,3.57,4.37,3.57s4.38-1.59,4.38-3.57-1.69-3.54-4.38-3.54S34,186.81,34,188.76Z"/>
                  <path class="cls-4" d="M44.66,188.91c0,1.54,1.24,2.78,3.21,2.78s3.21-1.24,3.21-2.78a2.9,2.9,0,0,0-3.21-2.78A2.92,2.92,0,0,0,44.66,188.91Z"/>
                </g>
                <path class="cls-18" d="M38.32,185.22c.24,0,.47,0,.69,0h0a2.52,2.52,0,0,0-2.31,2.45,2.59,2.59,0,0,0,2.85,2.51,4,4,0,0,0,.78-.09,4.47,4.47,0,0,0,3,1.07A4.38,4.38,0,0,0,46.44,190a3,3,0,0,0,1.79.56,2.43,2.43,0,0,0,2.69-2.35,1.33,1.33,0,0,0,0-.28,2.66,2.66,0,0,1,.19,1c0,1.54-1.22,2.78-3.21,2.78a4,4,0,0,1-.71-.05,4.93,4.93,0,0,1-4.28,2.17,5,5,0,0,1-3.77-1.54,5.16,5.16,0,0,1-.79.06c-2.69,0-4.37-1.59-4.37-3.57S35.67,185.22,38.32,185.22Z"/>
              </g>
              <g>
                <path class="cls-4" d="M39,177.55A4.66,4.66,0,0,0,44,182.33a4.79,4.79,0,1,0,0-9.57A4.7,4.7,0,0,0,39,177.55Z"/>
                <path class="cls-18" d="M42.74,172.9a3.27,3.27,0,0,0-2.24,3.33c0,2,1.54,3.58,4,3.77a3.51,3.51,0,0,0,4.11-3.55,2.74,2.74,0,0,0-.19-1,5,5,0,0,1,.47,2.13A4.64,4.64,0,0,1,44,182.33a4.78,4.78,0,0,1-1.21-9.43Z"/>
              </g>
              <g>
                <path class="cls-4" d="M27.2,156.54a5.49,5.49,0,0,1,.72.07c1.46-3.54,4.4-5.91,8.23-5.82a8.17,8.17,0,0,1,6.84,4,7.31,7.31,0,0,1,.94,0c4.75.12,7.64,4.07,7.53,8.8s-3.14,8.54-7.94,8.41a7.46,7.46,0,0,1-2.94-.64,8.17,8.17,0,0,1-5,1.46,8,8,0,0,1-5-1.88A5.93,5.93,0,0,1,26.83,172c-4-.1-7.11-3.1-7.11-7.9A7.29,7.29,0,0,1,27.2,156.54Z"/>
                <g>
                  <path class="cls-18" d="M27.94,156.57a0,0,0,0,1,0,0h0A0,0,0,0,1,27.94,156.57Z"/>
                  <path class="cls-18" d="M27.2,156.54a5,5,0,0,1,.69.07,4.7,4.7,0,0,0-3.59,4.62c0,3.11,2.63,5.1,5.92,4.84a5.48,5.48,0,0,0,2.77-1A6.79,6.79,0,0,0,42.36,167a6.19,6.19,0,0,0,3.53,1c3.55,0,5.52-2.89,5.24-6.49A8.38,8.38,0,0,0,49.94,158a9.47,9.47,0,0,1,1.52,5.55c-.12,4.78-3.14,8.54-7.94,8.41a7.46,7.46,0,0,1-2.94-.64,8.17,8.17,0,0,1-5,1.46,8,8,0,0,1-5-1.88A5.93,5.93,0,0,1,26.83,172c-4-.1-7.11-3.1-7.11-7.9A7.29,7.29,0,0,1,27.2,156.54Z"/>
                </g>
              </g>
              <g>
                <path class="cls-4" d="M24.7,171.66a3.19,3.19,0,0,0,3.37,3.27,3.28,3.28,0,1,0,0-6.55A3.22,3.22,0,0,0,24.7,171.66Z"/>
                <path class="cls-18" d="M27.24,168.47a2.24,2.24,0,0,0-1.54,2.28,2.68,2.68,0,0,0,2.72,2.58,2.39,2.39,0,0,0,2.81-2.43,1.94,1.94,0,0,0-.12-.7,3.51,3.51,0,0,1,.32,1.46,3.17,3.17,0,0,1-3.36,3.27,3.27,3.27,0,0,1-.83-6.46Z"/>
              </g>
              <g>
                <path class="cls-4" d="M30.45,182.94A5,5,0,0,0,35.66,188a5.08,5.08,0,1,0,0-10.16A5,5,0,0,0,30.45,182.94Z"/>
                <path class="cls-18" d="M34.38,178A3.49,3.49,0,0,0,32,181.55c0,2.09,1.65,3.81,4.22,4a3.72,3.72,0,0,0,4.35-3.78,3.12,3.12,0,0,0-.18-1.09,5.26,5.26,0,0,1,.49,2.25A4.92,4.92,0,0,1,35.66,188a5.08,5.08,0,0,1-1.28-10Z"/>
              </g>
              <g>
                <path class="cls-4" d="M20.91,184.09a4.67,4.67,0,0,1,5.5-4,5.17,5.17,0,0,1,1.3.36,5.42,5.42,0,0,1,3.17-.43,4.85,4.85,0,0,1,4.34,5.67,4.91,4.91,0,0,1-5.88,4.17,5.8,5.8,0,0,1-1.91-.62,5.18,5.18,0,0,1-2.48.19A4.57,4.57,0,0,1,20.91,184.09Z"/>
                <path class="cls-18" d="M20.91,184.09a4.67,4.67,0,0,1,5.5-4,5.17,5.17,0,0,1,1.3.36l.1,0-.09,0a3.52,3.52,0,0,0-1.22-.22,3.39,3.39,0,1,0,0,6.78,3.61,3.61,0,0,0,1.4-.29,4.36,4.36,0,0,0,2.25.62,4,4,0,0,0,4.15-3.81,3.69,3.69,0,0,0-1.41-2.85,4.78,4.78,0,0,1,2.33,5,4.91,4.91,0,0,1-5.88,4.17,5.8,5.8,0,0,1-1.91-.62,5.18,5.18,0,0,1-2.48.19A4.57,4.57,0,0,1,20.91,184.09Z"/>
              </g>
            </g>
            <g>
              <g>
                <path class="cls-18" d="M33.54,213.55a6.2,6.2,0,0,1-2-4.49c0-3.75,3.61-6.8,8.06-6.8s8.06,3.05,8.06,6.8a6.2,6.2,0,0,1-2,4.49Z"/>
                <path class="cls-18" d="M41.63,213.55a4.62,4.62,0,0,1-.54-2.14c0-2.87,2.76-5.2,6.19-5.2s6.18,2.33,6.18,5.2a4.62,4.62,0,0,1-.54,2.14Z"/>
                <path class="cls-18" d="M17.1,213.55c.22-2.33,2.51-4.15,5.31-4.15s5.11,1.82,5.32,4.15Z"/>
                <path class="cls-18" d="M25,213.55a4.83,4.83,0,0,1-.81-2.64c0-3,2.9-5.46,6.48-5.46s6.47,2.44,6.47,5.46a4.82,4.82,0,0,1-.8,2.64Z"/>
                <path class="cls-18" d="M52.32,213.55a3,3,0,0,1-.07-.6c0-1.76,1.71-3.18,3.8-3.18A3.51,3.51,0,0,1,59.82,213a3,3,0,0,1-.06.6Z"/>
              </g>
              <path class="cls-4" d="M51.1,211.57a3.34,3.34,0,0,0-2.16.76c0-.11,0-.22,0-.32,0-2.69-2.58-4.87-5.77-4.87a6.83,6.83,0,0,0-1.58.19,5.6,5.6,0,0,0-4.23-1.75c-2.52,0-4.61,1.41-5,3.27a6.14,6.14,0,0,0-3.33-.94c-3,0-4.7,1.92-4.76,4.31a5.07,5.07,0,0,0-2.64-.79,4.26,4.26,0,0,0-4,2.12H17.1c.22-2.33,2.51-4.15,5.31-4.15a6,6,0,0,1,2,.32c.64-2.44,3.22-4.27,6.32-4.27a7.68,7.68,0,0,1,1.88.23,8.4,8.4,0,0,1,7-3.42,8.25,8.25,0,0,1,7.31,4h.4c3.12,0,5.69,1.95,6.11,4.48a4.16,4.16,0,0,1,2.66-.92A3.51,3.51,0,0,1,59.82,213a3,3,0,0,1-.06.6h-5C54.38,212.41,52.54,211.57,51.1,211.57Z"/>
            </g>
          </g>
          <g>
            <g>
              <rect class="cls-16" x="172.21" y="165.64" width="2.14" height="42.14"/>
              <rect class="cls-17" x="172.21" y="165.64" width="1.02" height="42.14"/>
              <g>
                <polygon class="cls-16" points="166.5 185.13 167.15 184.4 173.23 190.49 173.21 191.9 166.5 185.13"/>
                <polygon class="cls-17" points="166.81 184.79 173.22 191.21 173.21 191.9 166.5 185.13 166.81 184.79"/>
              </g>
              <g>
                <polygon class="cls-16" points="165.69 171.44 166.22 170.63 173.28 175.75 173.23 176.96 165.69 171.44"/>
                <polygon class="cls-17" points="165.95 171.07 173.23 176.36 173.23 176.96 165.69 171.44 165.95 171.07"/>
              </g>
              <g>
                <polygon class="cls-16" points="181.01 176.19 181.57 177.01 173.59 183.21 172.74 182.63 181.01 176.19"/>
                <polygon class="cls-17" points="181.27 176.57 173.14 182.93 172.74 182.63 181.01 176.19 181.27 176.57"/>
              </g>
              <g>
                <polygon class="cls-16" points="181.01 188.16 181.57 188.96 173.23 195.44 173.21 194.23 181.01 188.16"/>
                <polygon class="cls-17" points="181.27 188.54 173.14 194.88 172.74 194.59 181.01 188.16 181.27 188.54"/>
              </g>
              <g>
                <g>
                  <path class="cls-4" d="M175.39,188.15a5.11,5.11,0,1,0,5.11-5.07A4.9,4.9,0,0,0,175.39,188.15Z"/>
                  <path class="cls-4" d="M171.57,188.18c0,2,1.69,3.56,4.37,3.56s4.38-1.59,4.38-3.56-1.69-3.55-4.38-3.55S171.57,186.23,171.57,188.18Z"/>
                  <path class="cls-4" d="M182.28,188.33c0,1.54,1.24,2.78,3.21,2.78s3.22-1.24,3.22-2.78a3.25,3.25,0,0,0-6.43,0Z"/>
                </g>
                <path class="cls-18" d="M175.94,184.63c.25,0,.47,0,.7,0h0a2.52,2.52,0,0,0-2.3,2.46,2.59,2.59,0,0,0,2.84,2.5,3.88,3.88,0,0,0,.78-.09,4.68,4.68,0,0,0,6.12-.12,2.86,2.86,0,0,0,1.79.57,2.42,2.42,0,0,0,2.68-2.35,2.83,2.83,0,0,0,0-.29,2.89,2.89,0,0,1,.19,1c0,1.54-1.22,2.78-3.22,2.78a4,4,0,0,1-.71-.06,4.91,4.91,0,0,1-4.28,2.17,5,5,0,0,1-3.77-1.53,6.84,6.84,0,0,1-.79.05c-2.68,0-4.37-1.59-4.37-3.56S173.3,184.63,175.94,184.63Z"/>
              </g>
              <g>
                <path class="cls-4" d="M176.66,177a4.91,4.91,0,1,0,4.91-4.78A4.66,4.66,0,0,0,176.66,177Z"/>
                <path class="cls-18" d="M180.36,172.31a3.28,3.28,0,0,0-2.24,3.33c0,2,1.55,3.59,4,3.78a3.52,3.52,0,0,0,4.11-3.55,2.74,2.74,0,0,0-.19-1,4.81,4.81,0,0,1,.47,2.12,4.91,4.91,0,1,1-6.12-4.65Z"/>
              </g>
              <g>
                <path class="cls-4" d="M164.82,156c.25,0,.5,0,.73.06,1.45-3.53,4.4-5.91,8.22-5.81a8.15,8.15,0,0,1,6.84,3.95,5.94,5.94,0,0,1,.95,0c4.74.12,7.64,4.06,7.52,8.79s-3.14,8.54-7.94,8.42a7.5,7.5,0,0,1-2.94-.65,8.32,8.32,0,0,1-10-.42,5.93,5.93,0,0,1-3.74,1.16c-3.95-.11-7.11-3.11-7.11-7.91A7.29,7.29,0,0,1,164.82,156Z"/>
                <g>
                  <path class="cls-18" d="M165.56,156l0,0h0Z"/>
                  <path class="cls-18" d="M164.82,156q.36,0,.69.06a4.71,4.71,0,0,0-3.59,4.63c0,3.1,2.63,5.09,5.92,4.83a5.57,5.57,0,0,0,2.77-.95,6.9,6.9,0,0,0,5.66,3,6.75,6.75,0,0,0,3.71-1.11,6.15,6.15,0,0,0,3.54,1c3.54,0,5.51-2.88,5.24-6.48a8.43,8.43,0,0,0-1.19-3.63,9.51,9.51,0,0,1,1.51,5.54c-.11,4.78-3.14,8.54-7.94,8.42a7.5,7.5,0,0,1-2.94-.65,8.32,8.32,0,0,1-10-.42,5.93,5.93,0,0,1-3.74,1.16c-3.95-.11-7.11-3.11-7.11-7.91A7.29,7.29,0,0,1,164.82,156Z"/>
                </g>
              </g>
              <g>
                <path class="cls-4" d="M162.32,171.07a3.37,3.37,0,1,0,3.37-3.28A3.2,3.2,0,0,0,162.32,171.07Z"/>
                <path class="cls-18" d="M164.86,167.88a2.25,2.25,0,0,0-1.54,2.29,2.68,2.68,0,0,0,2.72,2.58,2.4,2.4,0,0,0,2.81-2.43,1.87,1.87,0,0,0-.11-.7,3.43,3.43,0,0,1,.32,1.45,3.37,3.37,0,1,1-4.2-3.19Z"/>
              </g>
              <g>
                <path class="cls-4" d="M168.07,182.36a5.22,5.22,0,1,0,5.21-5.07A4.95,4.95,0,0,0,168.07,182.36Z"/>
                <path class="cls-18" d="M172,177.43a3.47,3.47,0,0,0-2.38,3.53c0,2.09,1.64,3.81,4.21,4s4.36-1.46,4.36-3.77a3.07,3.07,0,0,0-.19-1.09,5.26,5.26,0,0,1,.5,2.25,5.22,5.22,0,1,1-6.5-4.93Z"/>
              </g>
              <g>
                <path class="cls-4" d="M158.53,183.51a4.67,4.67,0,0,1,5.5-4,5.71,5.71,0,0,1,1.31.36,5.46,5.46,0,0,1,3.16-.43,4.85,4.85,0,0,1,4.34,5.67,4.91,4.91,0,0,1-5.88,4.17,5.8,5.8,0,0,1-1.91-.62,5.29,5.29,0,0,1-2.48.2A4.57,4.57,0,0,1,158.53,183.51Z"/>
                <path class="cls-18" d="M158.53,183.51a4.67,4.67,0,0,1,5.5-4,5.71,5.71,0,0,1,1.31.36l.09,0-.09.05a3.53,3.53,0,0,0-1.22-.23,3.39,3.39,0,1,0,0,6.78,3.61,3.61,0,0,0,1.4-.28,4.36,4.36,0,0,0,2.25.62,4,4,0,0,0,4.15-3.81,3.68,3.68,0,0,0-1.4-2.85,4.77,4.77,0,0,1,2.32,5,4.91,4.91,0,0,1-5.88,4.17,5.8,5.8,0,0,1-1.91-.62,5.29,5.29,0,0,1-2.48.2A4.57,4.57,0,0,1,158.53,183.51Z"/>
              </g>
            </g>
            <g>
              <g>
                <path class="cls-18" d="M171.16,213a6.16,6.16,0,0,1-2-4.48c0-3.76,3.61-6.8,8.06-6.8s8.06,3,8.06,6.8a6.15,6.15,0,0,1-2,4.48Z"/>
                <path class="cls-18" d="M179.25,213a4.57,4.57,0,0,1-.53-2.13c0-2.88,2.76-5.21,6.18-5.21s6.18,2.33,6.18,5.21a4.46,4.46,0,0,1-.54,2.13Z"/>
                <path class="cls-18" d="M154.72,213c.22-2.32,2.51-4.15,5.32-4.15s5.1,1.83,5.32,4.15Z"/>
                <path class="cls-18" d="M162.67,213a4.81,4.81,0,0,1-.82-2.64c0-3,2.9-5.46,6.48-5.46s6.47,2.45,6.47,5.46A4.8,4.8,0,0,1,174,213Z"/>
                <path class="cls-18" d="M189.94,213a3.8,3.8,0,0,1-.06-.59c0-1.77,1.7-3.19,3.79-3.19a3.52,3.52,0,0,1,3.78,3.19,2.88,2.88,0,0,1-.07.59Z"/>
              </g>
              <path class="cls-4" d="M188.72,211a3.38,3.38,0,0,0-2.16.75c0-.1,0-.21,0-.32,0-2.68-2.59-4.86-5.77-4.86a6.35,6.35,0,0,0-1.59.19A5.59,5.59,0,0,0,175,205c-2.51,0-4.6,1.42-5,3.28a6.14,6.14,0,0,0-3.33-.94c-2.95,0-4.7,1.92-4.76,4.31a5,5,0,0,0-2.63-.79,4.26,4.26,0,0,0-4,2.11h-.55c.22-2.32,2.51-4.15,5.32-4.15a6.26,6.26,0,0,1,2,.32c.64-2.44,3.23-4.27,6.32-4.27a7.62,7.62,0,0,1,1.88.23,8.42,8.42,0,0,1,7-3.41,8.25,8.25,0,0,1,7.31,3.95h.4c3.12,0,5.69,1.95,6.11,4.48a4.18,4.18,0,0,1,2.66-.92,3.52,3.52,0,0,1,3.78,3.19,2.88,2.88,0,0,1-.07.59h-5C192,211.83,190.17,211,188.72,211Z"/>
            </g>
          </g>
        </g>
      </g>
    </g>
  </g>
</svg>
