<svg xmlns="http://www.w3.org/2000/svg" width="278.04" height="307.94" viewBox="0 0 278.04 307.94">
  <defs>
    <style>
      .cls-1 {
        isolation: isolate;
      }

      .cls-2 {
        fill: #fffa4d;
      }

      .cls-3 {
        fill: #93c223;
      }

      .cls-4 {
        fill: #348ba3;
      }

      .cls-5 {
        fill: #c3cbcf;
        mix-blend-mode: multiply;
      }

      .cls-6 {
        fill: #8dc7cc;
      }

      .cls-7 {
        fill: #cce7e9;
      }

      .cls-8 {
        fill: #256880;
      }

      .cls-9 {
        opacity: 0.3;
        mix-blend-mode: overlay;
      }

      .cls-10 {
        fill: #115c7d;
      }

      .cls-11 {
        fill: #eff3f1;
      }

      .cls-12 {
        fill: #f0dfbd;
      }

      .cls-13 {
        fill: #0188aa;
      }

      .cls-14 {
        fill: #08a2c9;
      }

      .cls-15 {
        fill: #946a28;
      }

      .cls-16 {
        fill: #785311;
      }

      .cls-17 {
        fill: #789d14;
      }
    </style>
  </defs>
  <g class="cls-1">
    <g id="Layer_1" data-name="Layer 1">
      <g>
        <path class="cls-2" d="M17.93,302.94a15.05,15.05,0,0,1-15-15V283a15,15,0,0,1,13.77-15V60.27a8,8,0,0,1,8-8h5.67a8,8,0,0,1,8-7.56h4.42A8,8,0,0,1,49.48,41h.17a8,8,0,0,1,5-2.75l33.91-4.72a8.76,8.76,0,0,1,2.21,0l33.9,4.72a8,8,0,0,1,5,2.75h.17a8,8,0,0,1,5.71,2.39V30.52a8,8,0,0,1,3.25-6.44l9.37-6.91a8,8,0,0,1,4.75-1.56h32.29l71.5-10.52A7.55,7.55,0,0,1,257.87,5a8,8,0,0,1,8,8V269.17A15,15,0,0,1,275.14,283v4.87a15.05,15.05,0,0,1-15,15Z"/>
        <g>
          <rect class="cls-3" x="10.9" y="276.02" width="256.23" height="18.92" rx="7.03"/>
          <g>
            <g>
              <rect class="cls-4" x="176.47" y="30.5" width="81.4" height="253.8"/>
              <polygon class="cls-4" points="257.87 30.5 257.87 13.01 185.8 23.61 176.47 30.5 257.87 30.5"/>
              <polygon class="cls-5" points="257.87 13.01 185.8 23.61 176.47 30.5 257.87 13.01"/>
              <rect class="cls-4" x="173.92" y="105.07" width="81.36" height="3.85"/>
              <rect class="cls-4" x="173.92" y="130.98" width="81.36" height="3.85"/>
              <rect class="cls-4" x="173.92" y="156.88" width="81.36" height="3.86"/>
              <rect class="cls-4" x="173.92" y="208.73" width="81.36" height="3.84"/>
              <rect class="cls-4" x="173.92" y="234.63" width="81.36" height="3.85"/>
              <rect class="cls-4" x="143.55" y="30.52" width="32.9" height="253.78"/>
              <polygon class="cls-4" points="176.44 30.52 185.81 23.61 152.92 23.61 143.55 30.52 176.44 30.52"/>
              <polygon class="cls-5" points="176.44 30.52 185.81 23.61 152.92 23.61 143.55 30.52 176.44 30.52"/>
              <g>
                <g>
                  <g>
                    <rect class="cls-6" x="149.8" y="41.85" width="103.11" height="1.58"/>
                    <rect class="cls-7" x="149.8" y="45.88" width="103.11" height="1.58"/>
                    <rect class="cls-8" x="149.8" y="37.87" width="103.11" height="1.59"/>
                    <rect class="cls-6" x="149.8" y="33.88" width="103.11" height="1.58"/>
                    <rect class="cls-6" x="149.8" y="49.89" width="103.11" height="1.59"/>
                    <rect class="cls-6" x="149.8" y="53.93" width="103.11" height="1.58"/>
                    <rect class="cls-6" x="149.8" y="57.94" width="103.11" height="1.58"/>
                    <rect class="cls-7" x="149.8" y="61.95" width="103.11" height="1.6"/>
                    <rect class="cls-8" x="149.8" y="65.99" width="103.11" height="1.58"/>
                    <rect class="cls-6" x="149.8" y="70" width="103.11" height="1.59"/>
                    <rect class="cls-7" x="149.8" y="74.03" width="103.11" height="1.58"/>
                  </g>
                  <rect class="cls-4" x="149.8" y="52.79" width="103.11" height="3.85"/>
                  <rect class="cls-4" x="149.8" y="76.76" width="103.11" height="3.86"/>
                </g>
                <g>
                  <g>
                    <rect class="cls-6" x="149.8" y="89.67" width="103.11" height="1.58"/>
                    <rect class="cls-7" x="149.8" y="93.7" width="103.11" height="1.58"/>
                    <rect class="cls-8" x="149.8" y="85.68" width="103.11" height="1.58"/>
                    <rect class="cls-6" x="149.8" y="81.7" width="103.11" height="1.59"/>
                    <rect class="cls-6" x="149.8" y="97.7" width="103.11" height="1.6"/>
                    <rect class="cls-6" x="149.8" y="101.73" width="103.11" height="1.59"/>
                    <rect class="cls-6" x="149.8" y="105.76" width="103.11" height="1.58"/>
                    <rect class="cls-7" x="149.8" y="109.77" width="103.11" height="1.58"/>
                    <rect class="cls-8" x="149.8" y="113.8" width="103.11" height="1.58"/>
                    <rect class="cls-6" x="149.8" y="117.82" width="103.11" height="1.58"/>
                    <rect class="cls-7" x="149.8" y="121.84" width="103.11" height="1.59"/>
                  </g>
                  <rect class="cls-4" x="149.8" y="100.59" width="103.11" height="3.84"/>
                  <rect class="cls-4" x="149.8" y="124.58" width="103.11" height="3.84"/>
                </g>
                <g>
                  <g>
                    <rect class="cls-6" x="149.8" y="137.48" width="103.11" height="1.58"/>
                    <rect class="cls-7" x="149.8" y="141.5" width="103.11" height="1.58"/>
                    <rect class="cls-8" x="149.8" y="133.49" width="103.11" height="1.58"/>
                    <rect class="cls-6" x="149.8" y="129.51" width="103.11" height="1.58"/>
                    <rect class="cls-6" x="149.8" y="145.51" width="103.11" height="1.6"/>
                    <rect class="cls-6" x="149.8" y="149.54" width="103.11" height="1.58"/>
                    <rect class="cls-6" x="149.8" y="153.56" width="103.11" height="1.58"/>
                    <rect class="cls-7" x="149.8" y="157.59" width="103.11" height="1.58"/>
                    <rect class="cls-6" x="149.8" y="161.61" width="103.11" height="1.59"/>
                    <rect class="cls-8" x="149.8" y="165.64" width="103.11" height="1.57"/>
                    <rect class="cls-7" x="149.8" y="169.66" width="103.11" height="1.58"/>
                  </g>
                  <rect class="cls-4" x="149.8" y="148.4" width="103.11" height="3.86"/>
                  <rect class="cls-4" x="149.8" y="172.39" width="103.11" height="3.86"/>
                </g>
                <g>
                  <g>
                    <rect class="cls-6" x="149.8" y="185.28" width="103.11" height="1.58"/>
                    <rect class="cls-7" x="149.8" y="189.32" width="103.11" height="1.58"/>
                    <rect class="cls-8" x="149.8" y="181.31" width="103.11" height="1.58"/>
                    <rect class="cls-6" x="149.8" y="177.32" width="103.11" height="1.58"/>
                    <rect class="cls-6" x="149.8" y="193.34" width="103.11" height="1.57"/>
                    <rect class="cls-6" x="149.8" y="197.36" width="103.11" height="1.58"/>
                    <rect class="cls-6" x="149.8" y="201.38" width="103.11" height="1.58"/>
                    <rect class="cls-7" x="149.8" y="205.4" width="103.11" height="1.58"/>
                    <rect class="cls-6" x="149.8" y="209.43" width="103.11" height="1.58"/>
                    <rect class="cls-6" x="149.8" y="213.45" width="103.11" height="1.57"/>
                    <rect class="cls-7" x="149.8" y="217.48" width="103.11" height="1.58"/>
                  </g>
                  <rect class="cls-4" x="149.8" y="196.22" width="103.11" height="3.86"/>
                  <rect class="cls-4" x="149.8" y="220.2" width="103.11" height="3.85"/>
                </g>
                <g>
                  <g>
                    <rect class="cls-6" x="149.8" y="233.1" width="103.11" height="1.59"/>
                    <rect class="cls-7" x="149.8" y="237.13" width="103.11" height="1.58"/>
                    <rect class="cls-8" x="149.8" y="229.13" width="103.11" height="1.58"/>
                    <rect class="cls-6" x="149.8" y="225.14" width="103.11" height="1.58"/>
                    <rect class="cls-6" x="149.8" y="241.15" width="103.11" height="1.58"/>
                    <rect class="cls-6" x="149.8" y="245.17" width="103.11" height="1.58"/>
                    <rect class="cls-6" x="149.8" y="249.2" width="103.11" height="1.57"/>
                    <rect class="cls-7" x="149.8" y="253.21" width="103.11" height="1.58"/>
                    <rect class="cls-6" x="149.8" y="257.24" width="103.11" height="1.59"/>
                    <rect class="cls-8" x="149.8" y="261.25" width="103.11" height="1.6"/>
                    <rect class="cls-7" x="149.8" y="265.28" width="103.11" height="1.58"/>
                  </g>
                  <rect class="cls-4" x="149.8" y="244.03" width="103.11" height="3.85"/>
                  <rect class="cls-4" x="149.8" y="268.01" width="103.11" height="3.86"/>
                </g>
              </g>
              <rect class="cls-4" x="215.35" y="33.49" width="2.31" height="244.32"/>
              <rect class="cls-5" x="143.55" y="30.52" width="32.9" height="253.78"/>
            </g>
            <g class="cls-9">
              <rect class="cls-4" x="176.47" y="30.5" width="81.4" height="253.8"/>
              <polygon class="cls-4" points="257.87 30.5 257.87 13.01 185.8 23.61 176.47 30.5 257.87 30.5"/>
              <polygon class="cls-5" points="257.87 13.01 185.8 23.61 176.47 30.5 257.87 13.01"/>
              <rect class="cls-4" x="173.92" y="105.07" width="81.36" height="3.85"/>
              <rect class="cls-4" x="173.92" y="130.98" width="81.36" height="3.85"/>
              <rect class="cls-4" x="173.92" y="156.88" width="81.36" height="3.86"/>
              <rect class="cls-4" x="173.92" y="208.73" width="81.36" height="3.84"/>
              <rect class="cls-4" x="173.92" y="234.63" width="81.36" height="3.85"/>
              <rect class="cls-4" x="143.55" y="30.52" width="32.9" height="253.78"/>
              <polygon class="cls-4" points="176.44 30.52 185.81 23.61 152.92 23.61 143.55 30.52 176.44 30.52"/>
              <polygon class="cls-5" points="176.44 30.52 185.81 23.61 152.92 23.61 143.55 30.52 176.44 30.52"/>
              <g>
                <g>
                  <g>
                    <rect class="cls-6" x="149.8" y="41.85" width="103.11" height="1.58"/>
                    <rect class="cls-7" x="149.8" y="45.88" width="103.11" height="1.58"/>
                    <rect class="cls-8" x="149.8" y="37.87" width="103.11" height="1.59"/>
                    <rect class="cls-6" x="149.8" y="33.88" width="103.11" height="1.58"/>
                    <rect class="cls-6" x="149.8" y="49.89" width="103.11" height="1.59"/>
                    <rect class="cls-6" x="149.8" y="53.93" width="103.11" height="1.58"/>
                    <rect class="cls-6" x="149.8" y="57.94" width="103.11" height="1.58"/>
                    <rect class="cls-7" x="149.8" y="61.95" width="103.11" height="1.6"/>
                    <rect class="cls-8" x="149.8" y="65.99" width="103.11" height="1.58"/>
                    <rect class="cls-6" x="149.8" y="70" width="103.11" height="1.59"/>
                    <rect class="cls-7" x="149.8" y="74.03" width="103.11" height="1.58"/>
                  </g>
                  <rect class="cls-4" x="149.8" y="52.79" width="103.11" height="3.85"/>
                  <rect class="cls-4" x="149.8" y="76.76" width="103.11" height="3.86"/>
                </g>
                <g>
                  <g>
                    <rect class="cls-6" x="149.8" y="89.67" width="103.11" height="1.58"/>
                    <rect class="cls-7" x="149.8" y="93.7" width="103.11" height="1.58"/>
                    <rect class="cls-8" x="149.8" y="85.68" width="103.11" height="1.58"/>
                    <rect class="cls-6" x="149.8" y="81.7" width="103.11" height="1.59"/>
                    <rect class="cls-6" x="149.8" y="97.7" width="103.11" height="1.6"/>
                    <rect class="cls-6" x="149.8" y="101.73" width="103.11" height="1.59"/>
                    <rect class="cls-6" x="149.8" y="105.76" width="103.11" height="1.58"/>
                    <rect class="cls-7" x="149.8" y="109.77" width="103.11" height="1.58"/>
                    <rect class="cls-8" x="149.8" y="113.8" width="103.11" height="1.58"/>
                    <rect class="cls-6" x="149.8" y="117.82" width="103.11" height="1.58"/>
                    <rect class="cls-7" x="149.8" y="121.84" width="103.11" height="1.59"/>
                  </g>
                  <rect class="cls-4" x="149.8" y="100.59" width="103.11" height="3.84"/>
                  <rect class="cls-4" x="149.8" y="124.58" width="103.11" height="3.84"/>
                </g>
                <g>
                  <g>
                    <rect class="cls-6" x="149.8" y="137.48" width="103.11" height="1.58"/>
                    <rect class="cls-7" x="149.8" y="141.5" width="103.11" height="1.58"/>
                    <rect class="cls-8" x="149.8" y="133.49" width="103.11" height="1.58"/>
                    <rect class="cls-6" x="149.8" y="129.51" width="103.11" height="1.58"/>
                    <rect class="cls-6" x="149.8" y="145.51" width="103.11" height="1.6"/>
                    <rect class="cls-6" x="149.8" y="149.54" width="103.11" height="1.58"/>
                    <rect class="cls-6" x="149.8" y="153.56" width="103.11" height="1.58"/>
                    <rect class="cls-7" x="149.8" y="157.59" width="103.11" height="1.58"/>
                    <rect class="cls-6" x="149.8" y="161.61" width="103.11" height="1.59"/>
                    <rect class="cls-8" x="149.8" y="165.64" width="103.11" height="1.57"/>
                    <rect class="cls-7" x="149.8" y="169.66" width="103.11" height="1.58"/>
                  </g>
                  <rect class="cls-4" x="149.8" y="148.4" width="103.11" height="3.86"/>
                  <rect class="cls-4" x="149.8" y="172.39" width="103.11" height="3.86"/>
                </g>
                <g>
                  <g>
                    <rect class="cls-6" x="149.8" y="185.28" width="103.11" height="1.58"/>
                    <rect class="cls-7" x="149.8" y="189.32" width="103.11" height="1.58"/>
                    <rect class="cls-8" x="149.8" y="181.31" width="103.11" height="1.58"/>
                    <rect class="cls-6" x="149.8" y="177.32" width="103.11" height="1.58"/>
                    <rect class="cls-6" x="149.8" y="193.34" width="103.11" height="1.57"/>
                    <rect class="cls-6" x="149.8" y="197.36" width="103.11" height="1.58"/>
                    <rect class="cls-6" x="149.8" y="201.38" width="103.11" height="1.58"/>
                    <rect class="cls-7" x="149.8" y="205.4" width="103.11" height="1.58"/>
                    <rect class="cls-6" x="149.8" y="209.43" width="103.11" height="1.58"/>
                    <rect class="cls-6" x="149.8" y="213.45" width="103.11" height="1.57"/>
                    <rect class="cls-7" x="149.8" y="217.48" width="103.11" height="1.58"/>
                  </g>
                  <rect class="cls-4" x="149.8" y="196.22" width="103.11" height="3.86"/>
                  <rect class="cls-4" x="149.8" y="220.2" width="103.11" height="3.85"/>
                </g>
                <g>
                  <g>
                    <rect class="cls-6" x="149.8" y="233.1" width="103.11" height="1.59"/>
                    <rect class="cls-7" x="149.8" y="237.13" width="103.11" height="1.58"/>
                    <rect class="cls-8" x="149.8" y="229.13" width="103.11" height="1.58"/>
                    <rect class="cls-6" x="149.8" y="225.14" width="103.11" height="1.58"/>
                    <rect class="cls-6" x="149.8" y="241.15" width="103.11" height="1.58"/>
                    <rect class="cls-6" x="149.8" y="245.17" width="103.11" height="1.58"/>
                    <rect class="cls-6" x="149.8" y="249.2" width="103.11" height="1.57"/>
                    <rect class="cls-7" x="149.8" y="253.21" width="103.11" height="1.58"/>
                    <rect class="cls-6" x="149.8" y="257.24" width="103.11" height="1.59"/>
                    <rect class="cls-8" x="149.8" y="261.25" width="103.11" height="1.6"/>
                    <rect class="cls-7" x="149.8" y="265.28" width="103.11" height="1.58"/>
                  </g>
                  <rect class="cls-4" x="149.8" y="244.03" width="103.11" height="3.85"/>
                  <rect class="cls-4" x="149.8" y="268.01" width="103.11" height="3.86"/>
                </g>
              </g>
              <rect class="cls-4" x="215.35" y="33.49" width="2.31" height="244.32"/>
              <rect class="cls-5" x="143.55" y="30.52" width="32.9" height="253.78"/>
            </g>
          </g>
          <g>
            <g>
              <rect class="cls-10" x="38.33" y="52.71" width="102.67" height="23.03"/>
              <rect class="cls-10" x="49.48" y="49.03" width="80.36" height="18.02"/>
              <polygon class="cls-10" points="55.75 64.22 123.57 64.22 123.57 46.2 89.13 45.31 55.75 46.2 55.75 64.22"/>
              <polygon class="cls-11" points="123.57 46.2 89.66 41.49 55.75 46.2 123.57 46.2"/>
            </g>
            <rect class="cls-12" x="24.67" y="60.27" width="128.94" height="224.03"/>
            <rect class="cls-13" x="24.67" y="60.27" width="128.94" height="6.86"/>
            <g>
              <g>
                <g>
                  <rect class="cls-10" x="92.48" y="75.36" width="15.32" height="14.57"/>
                  <rect class="cls-12" x="99.52" y="75.36" width="0.62" height="14.57"/>
                </g>
                <rect class="cls-12" x="92.48" y="89.93" width="15.32" height="0.59"/>
              </g>
              <g>
                <g>
                  <rect class="cls-10" x="70.49" y="75.36" width="15.31" height="14.57"/>
                  <rect class="cls-12" x="77.52" y="75.36" width="0.63" height="14.57"/>
                </g>
                <rect class="cls-12" x="70.49" y="89.93" width="15.31" height="0.59"/>
              </g>
              <g>
                <g>
                  <rect class="cls-10" x="92.48" y="93.46" width="15.32" height="14.57"/>
                  <rect class="cls-12" x="99.52" y="93.46" width="0.62" height="14.57"/>
                </g>
                <rect class="cls-12" x="92.48" y="108.02" width="15.32" height="0.6"/>
              </g>
              <g>
                <g>
                  <rect class="cls-10" x="70.49" y="93.46" width="15.31" height="14.57"/>
                  <rect class="cls-12" x="77.52" y="93.46" width="0.63" height="14.57"/>
                </g>
                <rect class="cls-12" x="70.49" y="108.02" width="15.31" height="0.6"/>
              </g>
              <g>
                <g>
                  <rect class="cls-10" x="92.48" y="111.56" width="15.32" height="14.56"/>
                  <rect class="cls-12" x="99.52" y="111.56" width="0.62" height="14.56"/>
                </g>
                <rect class="cls-12" x="92.48" y="126.12" width="15.32" height="0.6"/>
              </g>
              <g>
                <g>
                  <rect class="cls-10" x="70.49" y="111.56" width="15.31" height="14.56"/>
                  <rect class="cls-12" x="77.52" y="111.56" width="0.63" height="14.56"/>
                </g>
                <rect class="cls-12" x="70.49" y="126.12" width="15.31" height="0.6"/>
              </g>
              <g>
                <g>
                  <rect class="cls-10" x="92.48" y="129.66" width="15.32" height="14.57"/>
                  <rect class="cls-12" x="99.52" y="129.66" width="0.62" height="14.57"/>
                </g>
                <rect class="cls-12" x="92.48" y="144.22" width="15.32" height="0.59"/>
              </g>
              <g>
                <g>
                  <rect class="cls-10" x="70.49" y="129.66" width="15.31" height="14.57"/>
                  <rect class="cls-12" x="77.52" y="129.66" width="0.63" height="14.57"/>
                </g>
                <rect class="cls-12" x="70.49" y="144.22" width="15.31" height="0.59"/>
              </g>
              <g>
                <g>
                  <rect class="cls-10" x="92.48" y="147.76" width="15.32" height="14.56"/>
                  <rect class="cls-12" x="99.52" y="147.76" width="0.62" height="14.56"/>
                </g>
                <rect class="cls-12" x="92.48" y="162.32" width="15.32" height="0.6"/>
              </g>
              <g>
                <g>
                  <rect class="cls-10" x="70.49" y="147.76" width="15.31" height="14.56"/>
                  <rect class="cls-12" x="77.52" y="147.76" width="0.63" height="14.56"/>
                </g>
                <rect class="cls-12" x="70.49" y="162.32" width="15.31" height="0.6"/>
              </g>
              <g>
                <g>
                  <rect class="cls-10" x="92.48" y="165.85" width="15.32" height="14.55"/>
                  <rect class="cls-12" x="99.52" y="165.85" width="0.62" height="14.55"/>
                </g>
                <rect class="cls-12" x="92.48" y="180.41" width="15.32" height="0.6"/>
              </g>
              <g>
                <g>
                  <rect class="cls-10" x="70.49" y="165.85" width="15.31" height="14.55"/>
                  <rect class="cls-12" x="77.52" y="165.85" width="0.63" height="14.55"/>
                </g>
                <rect class="cls-12" x="70.49" y="180.41" width="15.31" height="0.6"/>
              </g>
              <g>
                <g>
                  <rect class="cls-10" x="92.48" y="183.95" width="15.32" height="14.56"/>
                  <rect class="cls-12" x="99.52" y="183.95" width="0.62" height="14.56"/>
                </g>
                <rect class="cls-12" x="92.48" y="198.51" width="15.32" height="0.59"/>
              </g>
              <g>
                <g>
                  <rect class="cls-10" x="70.49" y="183.95" width="15.31" height="14.56"/>
                  <rect class="cls-12" x="77.52" y="183.95" width="0.63" height="14.56"/>
                </g>
                <rect class="cls-12" x="70.49" y="198.51" width="15.31" height="0.59"/>
              </g>
              <g>
                <g>
                  <rect class="cls-10" x="92.48" y="202.05" width="15.32" height="14.55"/>
                  <rect class="cls-12" x="99.52" y="202.05" width="0.62" height="14.55"/>
                </g>
                <rect class="cls-12" x="92.48" y="216.61" width="15.32" height="0.6"/>
              </g>
              <g>
                <g>
                  <rect class="cls-10" x="70.49" y="202.05" width="15.31" height="14.55"/>
                  <rect class="cls-12" x="77.52" y="202.05" width="0.63" height="14.55"/>
                </g>
                <rect class="cls-12" x="70.49" y="216.61" width="15.31" height="0.6"/>
              </g>
              <g>
                <g>
                  <rect class="cls-10" x="92.48" y="220.15" width="15.32" height="14.55"/>
                  <rect class="cls-12" x="99.52" y="220.15" width="0.62" height="14.55"/>
                </g>
                <rect class="cls-12" x="92.48" y="234.71" width="15.32" height="0.59"/>
              </g>
              <g>
                <g>
                  <rect class="cls-10" x="70.49" y="220.15" width="15.31" height="14.55"/>
                  <rect class="cls-12" x="77.52" y="220.15" width="0.63" height="14.55"/>
                </g>
                <rect class="cls-12" x="70.49" y="234.71" width="15.31" height="0.59"/>
              </g>
              <g>
                <g>
                  <rect class="cls-10" x="92.48" y="238.24" width="15.32" height="14.57"/>
                  <rect class="cls-12" x="99.52" y="238.24" width="0.62" height="14.57"/>
                </g>
                <rect class="cls-12" x="92.48" y="252.81" width="15.32" height="0.59"/>
              </g>
              <g>
                <g>
                  <rect class="cls-10" x="70.49" y="238.24" width="15.31" height="14.57"/>
                  <rect class="cls-12" x="77.52" y="238.24" width="0.63" height="14.57"/>
                </g>
                <rect class="cls-12" x="70.49" y="252.81" width="15.31" height="0.59"/>
              </g>
              <g>
                <g>
                  <rect class="cls-10" x="92.48" y="256.35" width="15.32" height="14.55"/>
                  <rect class="cls-12" x="99.52" y="256.35" width="0.62" height="14.55"/>
                </g>
                <rect class="cls-12" x="92.48" y="270.91" width="15.32" height="0.59"/>
              </g>
              <g>
                <g>
                  <rect class="cls-10" x="70.49" y="256.35" width="15.31" height="14.55"/>
                  <rect class="cls-12" x="77.52" y="256.35" width="0.63" height="14.55"/>
                </g>
                <rect class="cls-12" x="70.49" y="270.91" width="15.31" height="0.59"/>
              </g>
            </g>
            <g>
              <rect class="cls-14" x="37.02" y="75.36" width="14.43" height="14.57"/>
              <rect class="cls-14" x="37.02" y="93.46" width="14.43" height="14.57"/>
              <rect class="cls-14" x="37.02" y="111.56" width="14.43" height="14.56"/>
              <rect class="cls-14" x="37.02" y="129.66" width="14.43" height="14.57"/>
              <rect class="cls-14" x="37.02" y="147.76" width="14.43" height="14.56"/>
              <rect class="cls-14" x="37.02" y="165.85" width="14.43" height="14.55"/>
              <rect class="cls-14" x="37.02" y="183.95" width="14.43" height="14.56"/>
              <rect class="cls-14" x="37.02" y="202.05" width="14.43" height="14.55"/>
              <rect class="cls-14" x="37.02" y="220.15" width="14.43" height="14.55"/>
              <rect class="cls-14" x="37.02" y="238.24" width="14.43" height="14.57"/>
              <rect class="cls-14" x="37.02" y="256.35" width="14.43" height="14.55"/>
            </g>
            <g>
              <rect class="cls-14" x="127.61" y="75.36" width="14.44" height="14.57"/>
              <rect class="cls-14" x="127.61" y="93.46" width="14.44" height="14.57"/>
              <rect class="cls-14" x="127.61" y="111.56" width="14.44" height="14.56"/>
              <rect class="cls-14" x="127.61" y="129.66" width="14.44" height="14.57"/>
              <rect class="cls-14" x="127.61" y="147.76" width="14.44" height="14.56"/>
              <rect class="cls-14" x="127.61" y="165.85" width="14.44" height="14.55"/>
              <rect class="cls-14" x="127.61" y="183.95" width="14.44" height="14.56"/>
              <rect class="cls-14" x="127.61" y="202.05" width="14.44" height="14.55"/>
              <rect class="cls-14" x="127.61" y="220.15" width="14.44" height="14.55"/>
              <rect class="cls-14" x="127.61" y="238.24" width="14.44" height="14.57"/>
              <rect class="cls-14" x="127.61" y="256.35" width="14.44" height="14.55"/>
            </g>
            <rect class="cls-11" x="70.49" y="88.54" width="37.3" height="2.57"/>
            <rect class="cls-11" x="70.49" y="106.64" width="37.3" height="2.57"/>
            <rect class="cls-11" x="70.49" y="124.74" width="37.3" height="2.56"/>
            <rect class="cls-11" x="70.49" y="142.83" width="37.3" height="2.57"/>
            <rect class="cls-11" x="70.49" y="160.93" width="37.3" height="2.57"/>
            <rect class="cls-11" x="70.49" y="179.03" width="37.3" height="2.56"/>
            <rect class="cls-11" x="70.49" y="197.13" width="37.3" height="2.57"/>
            <rect class="cls-11" x="70.49" y="215.23" width="37.3" height="2.56"/>
            <rect class="cls-11" x="70.49" y="233.32" width="37.3" height="2.57"/>
            <rect class="cls-11" x="70.49" y="251.42" width="37.3" height="2.57"/>
            <rect class="cls-11" x="70.49" y="269.52" width="37.3" height="2.56"/>
          </g>
          <g>
            <g>
              <rect class="cls-15" x="44.72" y="221.78" width="2.89" height="56.72"/>
              <rect class="cls-16" x="44.72" y="221.78" width="1.38" height="56.72"/>
              <g>
                <polygon class="cls-15" points="37.03 248.01 37.91 247.03 46.09 255.22 46.06 257.12 37.03 248.01"/>
                <polygon class="cls-16" points="37.45 247.55 46.08 256.19 46.06 257.12 37.03 248.01 37.45 247.55"/>
              </g>
              <g>
                <polygon class="cls-15" points="35.94 229.59 36.65 228.5 46.16 235.38 46.09 237.01 35.94 229.59"/>
                <polygon class="cls-16" points="36.29 229.09 46.09 236.21 46.09 237.01 35.94 229.59 36.29 229.09"/>
              </g>
              <g>
                <polygon class="cls-15" points="56.57 235.97 57.31 237.08 46.57 245.43 45.43 244.65 56.57 235.97"/>
                <polygon class="cls-16" points="56.92 236.49 45.96 245.05 45.43 244.65 56.57 235.97 56.92 236.49"/>
              </g>
              <g>
                <polygon class="cls-15" points="56.57 252.09 57.31 253.17 46.09 261.9 46.06 260.26 56.57 252.09"/>
                <polygon class="cls-16" points="56.92 252.6 45.96 261.14 45.43 260.75 56.57 252.09 56.92 252.6"/>
              </g>
              <g>
                <g>
                  <path class="cls-3" d="M49,252.07a6.6,6.6,0,0,0,6.89,6.83,6.83,6.83,0,1,0,0-13.65A6.64,6.64,0,0,0,49,252.07Z"/>
                  <path class="cls-3" d="M43.85,252.12c0,2.65,2.27,4.79,5.89,4.79s5.9-2.14,5.9-4.79-2.28-4.78-5.9-4.78S43.85,249.49,43.85,252.12Z"/>
                  <path class="cls-3" d="M58.27,252.31c0,2.08,1.68,3.75,4.32,3.75s4.33-1.67,4.33-3.75-1.67-3.74-4.33-3.74S58.27,250.26,58.27,252.31Z"/>
                </g>
                <path class="cls-17" d="M49.74,247.34c.33,0,.63,0,.94.06h0a3.39,3.39,0,0,0-3.11,3.3c0,1.86,1.5,3.37,3.83,3.37a5.13,5.13,0,0,0,1.06-.12,6.3,6.3,0,0,0,8.23-.16,3.94,3.94,0,0,0,2.41.76c2.24,0,3.61-1.41,3.61-3.17,0-.12,0-.25,0-.38a3.86,3.86,0,0,1,.25,1.31c0,2.08-1.64,3.75-4.33,3.75a5.8,5.8,0,0,1-1-.08,6.6,6.6,0,0,1-5.76,2.92,6.77,6.77,0,0,1-5.08-2.06,9,9,0,0,1-1.06.07c-3.62,0-5.89-2.14-5.89-4.79S46.18,247.34,49.74,247.34Z"/>
              </g>
              <g>
                <path class="cls-3" d="M50.71,237a6.28,6.28,0,0,0,6.6,6.44,6.44,6.44,0,1,0,0-12.87A6.31,6.31,0,0,0,50.71,237Z"/>
                <path class="cls-17" d="M55.69,230.76a4.41,4.41,0,0,0-3,4.48c0,2.65,2.08,4.82,5.35,5.08s5.53-1.85,5.53-4.78a3.69,3.69,0,0,0-.25-1.38,6.58,6.58,0,0,1,.63,2.85,6.25,6.25,0,0,1-6.62,6.44,6.43,6.43,0,0,1-1.62-12.69Z"/>
              </g>
              <g>
                <path class="cls-3" d="M34.77,208.74c.34,0,.67,0,1,.09,2-4.76,5.92-8,11.07-7.83A11,11,0,0,1,56,206.32a8.86,8.86,0,0,1,1.27-.06c6.38.17,10.28,5.48,10.13,11.84s-4.23,11.5-10.69,11.33a10.08,10.08,0,0,1-4-.87,11,11,0,0,1-6.68,2A10.77,10.77,0,0,1,39.31,228a8,8,0,0,1-5,1.55c-5.32-.14-9.57-4.18-9.57-10.64A9.82,9.82,0,0,1,34.77,208.74Z"/>
                <g>
                  <path class="cls-17" d="M35.77,208.78h0s0,0,0,0S35.76,208.78,35.77,208.78Z"/>
                  <path class="cls-17" d="M34.77,208.74a8.89,8.89,0,0,1,.93.09,6.32,6.32,0,0,0-4.83,6.22c0,4.19,3.53,6.86,8,6.51a7.38,7.38,0,0,0,3.73-1.28,9.26,9.26,0,0,0,7.62,4.06,9.15,9.15,0,0,0,5-1.5,8.24,8.24,0,0,0,4.76,1.41c4.77,0,7.42-3.88,7-8.72a11.4,11.4,0,0,0-1.6-4.89,12.75,12.75,0,0,1,2,7.46c-.16,6.44-4.23,11.5-10.69,11.33a10.08,10.08,0,0,1-4-.87,11,11,0,0,1-6.68,2A10.77,10.77,0,0,1,39.31,228a8,8,0,0,1-5,1.55c-5.32-.14-9.57-4.18-9.57-10.64A9.82,9.82,0,0,1,34.77,208.74Z"/>
                </g>
              </g>
              <g>
                <path class="cls-3" d="M31.41,229.09a4.3,4.3,0,0,0,4.53,4.41,4.41,4.41,0,1,0,0-8.82A4.33,4.33,0,0,0,31.41,229.09Z"/>
                <path class="cls-17" d="M34.82,224.79a3,3,0,0,0-2.07,3.08,3.61,3.61,0,0,0,3.66,3.48,3.23,3.23,0,0,0,3.79-3.28,2.5,2.5,0,0,0-.16-.94,4.65,4.65,0,0,1,.43,2,4.28,4.28,0,0,1-4.53,4.41,4.41,4.41,0,0,1-1.12-8.71Z"/>
              </g>
              <g>
                <path class="cls-3" d="M39.15,244.28a6.66,6.66,0,0,0,7,6.84,6.83,6.83,0,1,0,0-13.66A6.69,6.69,0,0,0,39.15,244.28Z"/>
                <path class="cls-17" d="M44.43,237.65c-1.94.46-3.2,2.5-3.2,4.75,0,2.81,2.21,5.13,5.67,5.4s5.86-2,5.86-5.08a4.2,4.2,0,0,0-.24-1.47,7.11,7.11,0,0,1,.66,3,6.63,6.63,0,0,1-7,6.84,6.82,6.82,0,0,1-1.73-13.47Z"/>
              </g>
              <g>
                <path class="cls-3" d="M26.3,245.83a6.29,6.29,0,0,1,7.4-5.32,7.17,7.17,0,0,1,1.77.48,7.34,7.34,0,0,1,4.25-.58A6.51,6.51,0,0,1,45.56,248a6.6,6.6,0,0,1-7.91,5.61,8,8,0,0,1-2.57-.83,7,7,0,0,1-3.34.26A6.15,6.15,0,0,1,26.3,245.83Z"/>
                <path class="cls-17" d="M26.3,245.83a6.29,6.29,0,0,1,7.4-5.32,7.17,7.17,0,0,1,1.77.48l.12-.05a.35.35,0,0,1-.12.07,4.72,4.72,0,0,0-1.64-.3,4.56,4.56,0,1,0,0,9.12,4.89,4.89,0,0,0,1.88-.38,5.91,5.91,0,0,0,3,.83,5.37,5.37,0,0,0,5.58-5.13,5,5,0,0,0-1.89-3.83A6.4,6.4,0,0,1,45.56,248a6.6,6.6,0,0,1-7.91,5.61,8,8,0,0,1-2.57-.83,7,7,0,0,1-3.34.26A6.15,6.15,0,0,1,26.3,245.83Z"/>
              </g>
            </g>
            <g>
              <g>
                <path class="cls-17" d="M43.31,285.48a8.31,8.31,0,0,1-2.73-6c0-5.05,4.86-9.15,10.85-9.15s10.84,4.1,10.84,9.15a8.34,8.34,0,0,1-2.72,6Z"/>
                <path class="cls-17" d="M54.19,285.48a6.18,6.18,0,0,1-.72-2.88c0-3.87,3.72-7,8.33-7s8.32,3.13,8.32,7a6.07,6.07,0,0,1-.73,2.88Z"/>
                <path class="cls-17" d="M21.17,285.48c.3-3.13,3.39-5.59,7.16-5.59s6.87,2.46,7.16,5.59Z"/>
                <path class="cls-17" d="M31.87,285.48a6.49,6.49,0,0,1-1.09-3.56c0-4.05,3.9-7.35,8.72-7.35s8.7,3.3,8.7,7.35a6.47,6.47,0,0,1-1.07,3.56Z"/>
                <path class="cls-17" d="M68.59,285.48a4.26,4.26,0,0,1-.09-.8c0-2.38,2.3-4.3,5.1-4.3s5.09,1.92,5.09,4.3a4.26,4.26,0,0,1-.09.8Z"/>
              </g>
              <path class="cls-3" d="M67,282.82a4.59,4.59,0,0,0-2.92,1c0-.14,0-.28,0-.43,0-3.61-3.48-6.54-7.77-6.54a8.83,8.83,0,0,0-2.14.25,7.51,7.51,0,0,0-5.69-2.37c-3.38,0-6.2,1.91-6.77,4.42a8.21,8.21,0,0,0-4.48-1.27c-4,0-6.33,2.59-6.41,5.8a6.87,6.87,0,0,0-3.55-1.06,5.73,5.73,0,0,0-5.33,2.85h-.75c.3-3.13,3.39-5.59,7.16-5.59a8.2,8.2,0,0,1,2.66.43c.86-3.28,4.34-5.75,8.51-5.75a10.29,10.29,0,0,1,2.52.31,11.33,11.33,0,0,1,9.41-4.59,11.09,11.09,0,0,1,9.83,5.32h.54c4.2,0,7.66,2.62,8.22,6a5.66,5.66,0,0,1,3.58-1.24c2.81,0,5.09,1.92,5.09,4.3a4.26,4.26,0,0,1-.09.8H71.8C71.36,284,68.89,282.82,67,282.82Z"/>
            </g>
          </g>
          <g>
            <g>
              <rect class="cls-15" x="229.97" y="220.99" width="2.89" height="56.72"/>
              <rect class="cls-16" x="229.97" y="220.99" width="1.38" height="56.72"/>
              <g>
                <polygon class="cls-15" points="222.28 247.22 223.16 246.24 231.34 254.43 231.31 256.33 222.28 247.22"/>
                <polygon class="cls-16" points="222.7 246.76 231.33 255.4 231.31 256.33 222.28 247.22 222.7 246.76"/>
              </g>
              <g>
                <polygon class="cls-15" points="221.19 228.8 221.9 227.71 231.41 234.59 231.34 236.23 221.19 228.8"/>
                <polygon class="cls-16" points="221.54 228.3 231.34 235.42 231.34 236.23 221.19 228.8 221.54 228.3"/>
              </g>
              <g>
                <polygon class="cls-15" points="241.82 235.19 242.56 236.29 231.82 244.64 230.69 243.86 241.82 235.19"/>
                <polygon class="cls-16" points="242.17 235.71 231.22 244.26 230.69 243.86 241.82 235.19 242.17 235.71"/>
              </g>
              <g>
                <polygon class="cls-15" points="241.82 251.31 242.56 252.38 231.34 261.11 231.31 259.48 241.82 251.31"/>
                <polygon class="cls-16" points="242.17 251.81 231.22 260.35 230.69 259.96 241.82 251.31 242.17 251.81"/>
              </g>
              <g>
                <g>
                  <path class="cls-3" d="M234.25,251.28a6.88,6.88,0,1,0,6.88-6.82A6.59,6.59,0,0,0,234.25,251.28Z"/>
                  <path class="cls-3" d="M229.11,251.33c0,2.65,2.27,4.79,5.88,4.79s5.9-2.14,5.9-4.79-2.28-4.78-5.9-4.78S229.11,248.7,229.11,251.33Z"/>
                  <path class="cls-3" d="M243.52,251.53c0,2.07,1.68,3.74,4.32,3.74s4.33-1.67,4.33-3.74-1.67-3.75-4.33-3.75S243.52,249.47,243.52,251.53Z"/>
                </g>
                <path class="cls-17" d="M235,246.55c.33,0,.63,0,.94.06h0a3.39,3.39,0,0,0-3.1,3.3c0,1.87,1.49,3.37,3.82,3.37a5.13,5.13,0,0,0,1.06-.12,6.3,6.3,0,0,0,8.23-.16,3.94,3.94,0,0,0,2.41.76c2.24,0,3.62-1.41,3.62-3.16,0-.13,0-.26,0-.39a3.87,3.87,0,0,1,.25,1.32c0,2.07-1.64,3.74-4.33,3.74a5.82,5.82,0,0,1-1-.07,6.61,6.61,0,0,1-5.76,2.91,6.77,6.77,0,0,1-5.08-2.06,9,9,0,0,1-1.06.07c-3.61,0-5.88-2.14-5.88-4.79S231.43,246.55,235,246.55Z"/>
              </g>
              <g>
                <path class="cls-3" d="M236,236.23a6.61,6.61,0,1,0,6.6-6.44A6.27,6.27,0,0,0,236,236.23Z"/>
                <path class="cls-17" d="M240.94,230a4.41,4.41,0,0,0-3,4.48c0,2.66,2.09,4.83,5.35,5.09s5.53-1.86,5.53-4.79a3.69,3.69,0,0,0-.25-1.38,6.59,6.59,0,0,1,.63,2.86,6.61,6.61,0,1,1-8.24-6.26Z"/>
              </g>
              <g>
                <path class="cls-3" d="M220,208a7.61,7.61,0,0,1,1,.08c2-4.76,5.92-7.95,11.07-7.83a11,11,0,0,1,9.21,5.32,7.67,7.67,0,0,1,1.27-.05c6.39.16,10.28,5.47,10.13,11.84s-4.23,11.49-10.69,11.32a10,10,0,0,1-4-.87,11,11,0,0,1-6.69,2,10.79,10.79,0,0,1-6.79-2.54,8,8,0,0,1-5,1.55c-5.32-.14-9.57-4.18-9.57-10.64A9.81,9.81,0,0,1,220,208Z"/>
                <g>
                  <path class="cls-17" d="M221,208l0,0h0S221,208,221,208Z"/>
                  <path class="cls-17" d="M220,208a6.84,6.84,0,0,1,.92.08,6.34,6.34,0,0,0-4.83,6.23c0,4.18,3.54,6.85,8,6.51a7.48,7.48,0,0,0,3.73-1.29,9.15,9.15,0,0,0,12.61,2.57,8.33,8.33,0,0,0,4.76,1.41c4.77,0,7.42-3.88,7.05-8.73a11.27,11.27,0,0,0-1.6-4.89,12.77,12.77,0,0,1,2,7.47c-.16,6.43-4.23,11.49-10.69,11.32a10,10,0,0,1-4-.87,11,11,0,0,1-6.69,2,10.79,10.79,0,0,1-6.79-2.54,8,8,0,0,1-5,1.55c-5.32-.14-9.57-4.18-9.57-10.64A9.81,9.81,0,0,1,220,208Z"/>
                </g>
              </g>
              <g>
                <path class="cls-3" d="M216.66,228.3a4.53,4.53,0,1,0,4.53-4.41A4.3,4.3,0,0,0,216.66,228.3Z"/>
                <path class="cls-17" d="M220.07,224a3.05,3.05,0,0,0-2.07,3.08,3.61,3.61,0,0,0,3.66,3.48,3.23,3.23,0,0,0,3.79-3.27,2.52,2.52,0,0,0-.16-.95,4.69,4.69,0,0,1,.43,2,4.53,4.53,0,1,1-5.65-4.3Z"/>
              </g>
              <g>
                <path class="cls-3" d="M224.4,243.49a7,7,0,1,0,7-6.82A6.66,6.66,0,0,0,224.4,243.49Z"/>
                <path class="cls-17" d="M229.68,236.86c-1.93.46-3.2,2.5-3.2,4.75,0,2.81,2.21,5.13,5.67,5.4s5.86-2,5.86-5.08a4.2,4.2,0,0,0-.24-1.47,7.11,7.11,0,0,1,.66,3,7,7,0,1,1-8.75-6.63Z"/>
              </g>
              <g>
                <path class="cls-3" d="M211.56,245a6.28,6.28,0,0,1,7.39-5.32,7.17,7.17,0,0,1,1.77.48,7.34,7.34,0,0,1,4.25-.58,6.51,6.51,0,0,1,5.84,7.63,6.6,6.6,0,0,1-7.91,5.62,8,8,0,0,1-2.57-.84,7.11,7.11,0,0,1-3.33.27A6.15,6.15,0,0,1,211.56,245Z"/>
                <path class="cls-17" d="M211.56,245a6.28,6.28,0,0,1,7.39-5.32,7.17,7.17,0,0,1,1.77.48l.12,0a.35.35,0,0,1-.12.07,4.59,4.59,0,1,0-1.64,8.83,4.9,4.9,0,0,0,1.88-.39,5.94,5.94,0,0,0,3,.83,5.37,5.37,0,0,0,5.58-5.13,5,5,0,0,0-1.89-3.83,6.4,6.4,0,0,1,3.12,6.72,6.6,6.6,0,0,1-7.91,5.62,8,8,0,0,1-2.57-.84,7.11,7.11,0,0,1-3.33.27A6.15,6.15,0,0,1,211.56,245Z"/>
              </g>
            </g>
            <g>
              <g>
                <path class="cls-17" d="M228.56,284.69a8.3,8.3,0,0,1-2.73-6c0-5,4.86-9.15,10.85-9.15s10.84,4.1,10.84,9.15a8.33,8.33,0,0,1-2.72,6Z"/>
                <path class="cls-17" d="M239.44,284.69a6.17,6.17,0,0,1-.71-2.88c0-3.86,3.71-7,8.32-7s8.32,3.14,8.32,7a6.07,6.07,0,0,1-.73,2.88Z"/>
                <path class="cls-17" d="M206.42,284.69c.3-3.13,3.39-5.59,7.16-5.59s6.87,2.46,7.16,5.59Z"/>
                <path class="cls-17" d="M217.12,284.69a6.47,6.47,0,0,1-1.09-3.56c0-4.05,3.9-7.35,8.72-7.35s8.7,3.3,8.7,7.35a6.45,6.45,0,0,1-1.07,3.56Z"/>
                <path class="cls-17" d="M253.84,284.69a4.26,4.26,0,0,1-.09-.8c0-2.38,2.3-4.29,5.1-4.29s5.09,1.91,5.09,4.29a4.26,4.26,0,0,1-.09.8Z"/>
              </g>
              <path class="cls-3" d="M252.2,282a4.54,4.54,0,0,0-2.92,1c0-.15,0-.29,0-.44,0-3.61-3.48-6.54-7.77-6.54a8.69,8.69,0,0,0-2.13.25,7.52,7.52,0,0,0-5.7-2.36c-3.38,0-6.2,1.91-6.77,4.41a8.21,8.21,0,0,0-4.48-1.27c-4,0-6.33,2.59-6.4,5.8a6.93,6.93,0,0,0-3.56-1.06,5.73,5.73,0,0,0-5.33,2.85h-.75c.3-3.13,3.39-5.59,7.16-5.59a7.94,7.94,0,0,1,2.66.44c.86-3.29,4.34-5.76,8.51-5.76a10.29,10.29,0,0,1,2.52.31,11.34,11.34,0,0,1,9.41-4.59,11.07,11.07,0,0,1,9.83,5.32h.54c4.2,0,7.66,2.62,8.22,6a5.63,5.63,0,0,1,3.58-1.24c2.81,0,5.09,1.91,5.09,4.29a4.26,4.26,0,0,1-.09.8h-6.8C256.61,283.16,254.14,282,252.2,282Z"/>
            </g>
          </g>
        </g>
      </g>
    </g>
  </g>
</svg>
