<svg id="Layer_1" data-name="Layer 1" xmlns="http://www.w3.org/2000/svg" width="326.18" height="249.64" viewBox="0 0 326.18 249.64">
  <defs>
    <style>
      .cls-1 {
        fill: #050505;
        opacity: 0.5;
      }

      .cls-2 {
        fill: #fff;
      }

      .cls-3 {
        fill: #edebeb;
      }

      .cls-10, .cls-12, .cls-17, .cls-18, .cls-22, .cls-3, .cls-6, .cls-7, .cls-8 {
        stroke: #473535;
      }

      .cls-10, .cls-11, .cls-12, .cls-15, .cls-16, .cls-17, .cls-18, .cls-21, .cls-22, .cls-3, .cls-6, .cls-7, .cls-8 {
        stroke-miterlimit: 10;
      }

      .cls-10, .cls-12, .cls-17, .cls-18, .cls-3, .cls-6, .cls-7, .cls-8 {
        stroke-width: 0.75px;
      }

      .cls-4 {
        fill: #231919;
      }

      .cls-5 {
        fill: #c9c0c0;
        opacity: 0.43;
      }

      .cls-6 {
        fill: #eddada;
      }

      .cls-7 {
        fill: #e0d3d3;
      }

      .cls-19, .cls-8 {
        fill: #c9bcbc;
      }

      .cls-9 {
        fill: #635a58;
      }

      .cls-10 {
        fill: #e8d4d4;
      }

      .cls-11 {
        fill: #f2b955;
      }

      .cls-11, .cls-15, .cls-16, .cls-21 {
        stroke: #231919;
        stroke-width: 0.25px;
      }

      .cls-12 {
        fill: #d3c34f;
      }

      .cls-13 {
        fill: #f4eaea;
      }

      .cls-14 {
        fill: #5163a8;
      }

      .cls-15 {
        fill: #dd1b5c;
      }

      .cls-16 {
        fill: #eaad65;
      }

      .cls-17, .cls-22 {
        fill: none;
      }

      .cls-18 {
        fill: #9e8b8b;
      }

      .cls-20 {
        fill: #473535;
      }

      .cls-21 {
        fill: #d30b3b;
      }

      .cls-23 {
        fill: #cc9e9e;
      }
    </style>
  </defs>
  <g>
    <path class="cls-1" d="M166.37,235.59a47.44,47.44,0,0,1-9.52-1,37.37,37.37,0,0,1-4.42-1.17l-.16-.05a17.8,17.8,0,0,1-8-4.91c-3.36-3.95-5-11.09,1.45-18.27.41-.47.82-.88,1.19-1.24,1.87-4.45,1.28-8.11.48-13a44,44,0,0,1-.78-11.46c.65-6.89.74-10-2.49-15.39-6.86,6.55-15.84,14.83-21.71,19.09a39.92,39.92,0,0,0-1.16,4.62c-1.35,6.61-2.38,14.14-2.88,18a12,12,0,0,1-.46,10.81c-2.29,4.11-6.93,7-14.18,8.92-1.53.4-3.14.73-4.77,1s-3.06.42-4.6.53c-.73,0-1.47.08-2.2.1H89.37c-.72,0-1.42-.06-2.1-.11l-.29,0-1.75-.17-.48-.06c-.56-.07-1.13-.15-1.68-.25l-.24,0-1.66-.32-.32-.07L80,231l-.34-.09-.68-.17c-.69-.19-1.33-.39-1.93-.59-.38-.13-.79-.28-1.2-.45-11.13-4.37-9.45-12.2-9-13.72A17.37,17.37,0,0,1,71,209a23,23,0,0,1,3.46-3c.4-.47,2.18-3,2.19-9.53,0-15.05,3.34-22.45,10.73-33.36a44.73,44.73,0,0,0,2.87-5c-1.68,1.51-3.46,3-5.36,4.43-1.06.81-2.2,1.63-3.38,2.45-2,1.48-11.54,8-19.69,8a14.74,14.74,0,0,1-3.74-.47l-.55-.16a8.83,8.83,0,0,1-5.94-7.52,8.35,8.35,0,0,1,0-1.58,9.48,9.48,0,0,1-2.36.28,8.84,8.84,0,0,1-6-2.41c-.16-.16-.32-.32-.47-.49-5.69-6.48-2.95-18.07-1.45-22.87.35-1.23.73-2.45,1.13-3.61q.75-2.22,1.65-4.41a78.75,78.75,0,0,1-12.73-5.13C8.94,113.66,14.19,89.38,16.72,77.72c.46-2.12.74-3.86.92-5.26a13,13,0,0,1-3.88-2.62c-5-2.83-5.65-7-5.68-8.87C8,57.4,9.88,54.1,13.19,51.69A9.84,9.84,0,0,1,20.73,45a13,13,0,0,1,2.85-.32,14.18,14.18,0,0,1,10.47,4.93,13.8,13.8,0,0,1,1.32,1.77c8.79,6.47,9.19,16,9.54,24.5.1,2.3.19,4.68.42,7.17.47,5,1.59,5.78,2.62,6a7.4,7.4,0,0,1,.93.12c.4,0,.87,0,1.42,0h.2a8.37,8.37,0,0,1,2.1-.51,14,14,0,0,0,1.79-.93,15.15,15.15,0,0,1,1.93-1.91c.67-1.42,1.3-2.59,1.79-3.47.11-1.32.21-2.83.31-4.4.4-6.25.85-13.26,2.84-18.6a16.4,16.4,0,0,1,6.32-10.55,11.06,11.06,0,0,1,3-1.79c.78-.8,1.47-1.49,2-2a22.6,22.6,0,0,1,2.91-4.89,8,8,0,0,1,1.89-5.57l2.23-2.64c.1-.11.19-.22.29-.32a6.48,6.48,0,0,1,.69-1L82.86,28a7.75,7.75,0,0,1,1.75-1.54,21,21,0,0,1,8.69-4.55,22,22,0,0,1,5.46-.68,22.28,22.28,0,0,1,8.79,1.81c.66-.28,1.33-.55,2-.8l1.13-.51a8.18,8.18,0,0,1,2.4-.69,59.18,59.18,0,0,1,8-1.9,8.55,8.55,0,0,1,.87-.09l1.39,0a37.5,37.5,0,0,1,9.1,1.17,7.86,7.86,0,0,1,1.56.43,44.46,44.46,0,0,1,11,4.92c.71.4,1.4.78,2.08,1.13C157.12,32,163,32.58,165,32.58c.35,0,.6,0,.77,0a7,7,0,0,1,6.71.57c1.1.15,2.18.33,3.23.56l.28-.16c4.36-2.4,10.63-3.51,19.73-3.51a170.71,170.71,0,0,1,22.59,1.76c45.89,6.85,64.83,31.52,65.61,32.57l.06.08c7.66,7.84,16.4,20.7,16.59,38.67,0,1.77,0,3.54-.08,5.28,1,11.35,3.28,21.14,5.9,25.56,5.11,2,12.18,7.78,11,24a30.75,30.75,0,0,0,.23,8.21,8,8,0,0,1-.32,15.3,23.65,23.65,0,0,1-6,.75,20.4,20.4,0,0,1-15.37-6.56l.63,2.05c.81,2.6,1.52,4.92,2.1,7.06,3.79,1.86,6.85,5.68,7.33,11.76a21.39,21.39,0,0,1,0,2.78,30.94,30.94,0,0,1-9.37,20.43,28.64,28.64,0,0,1-3.54,2.91c-5.73,4-12.82,6.07-21.08,6.11l-.5,0h-.89c-.5,0-1.12,0-1.81,0l-.71,0c-7-.43-11.94-2.54-14.7-6.27a11.78,11.78,0,0,1-1.9-10,23,23,0,0,0,.48-2.88c.58-5.17,0-12.81-3.63-17.42-.63-.81-1.26-1.6-1.88-2.38a72.46,72.46,0,0,1-8.58-12.57,18.07,18.07,0,0,0-2.36,8.17c-.26,8.21-.67,13.45-1,16.57a12.87,12.87,0,0,1,1.88,9.17c-.65,3.5-3.14,8.3-11.36,11.28-1,.37-2,.71-3.06,1-.6.18-1.21.35-1.84.52a54.12,54.12,0,0,1-13.42,1.81h-1a35.8,35.8,0,0,1-5.1-.46c-.59-.09-1.2-.21-1.84-.36l-.51-.12c-.62-.16-1.23-.34-1.82-.53l-.34-.11c-.64-.22-1.29-.48-1.89-.74l-.58-.28a10.1,10.1,0,0,1-1.52,2.52l-.36.4a29.62,29.62,0,0,1-12.52,7.61c-1,.31-1.88.56-2.79.77A43.53,43.53,0,0,1,166.37,235.59ZM71,131.89a65.59,65.59,0,0,0-7.56,10.55,33.43,33.43,0,0,0-3.78,9.06c-.12.69-.27,1.36-.43,2,.44-.26.85-.49,1.2-.68a35.56,35.56,0,0,0,8.38-7.28,60.53,60.53,0,0,0,5-6.51,2.85,2.85,0,0,1-.23-.26A11.26,11.26,0,0,1,71,131.89Z"/>
    <path class="cls-2" d="M161.37,230.59a47.44,47.44,0,0,1-9.52-1,37.37,37.37,0,0,1-4.42-1.17l-.16-.05a17.8,17.8,0,0,1-8-4.91c-3.36-3.95-5-11.09,1.45-18.27.41-.47.82-.88,1.19-1.24,1.87-4.45,1.28-8.11.48-13a44,44,0,0,1-.78-11.46c.65-6.89.74-10-2.49-15.39-6.86,6.55-15.84,14.83-21.71,19.09a39.92,39.92,0,0,0-1.16,4.62c-1.35,6.61-2.38,14.14-2.88,18a12,12,0,0,1-.46,10.81c-2.29,4.11-6.93,7-14.18,8.92-1.53.4-3.14.73-4.77,1s-3.06.42-4.6.53c-.73,0-1.47.08-2.2.1H84.37c-.72,0-1.42-.06-2.1-.11l-.29,0-1.75-.17-.48-.06c-.56-.07-1.13-.15-1.68-.25l-.24,0-1.66-.32-.32-.07L75,226l-.34-.09-.68-.17c-.69-.19-1.33-.39-1.93-.59-.38-.13-.79-.28-1.2-.45-11.13-4.37-9.45-12.2-9-13.72A17.37,17.37,0,0,1,66,204a23,23,0,0,1,3.46-3c.4-.47,2.18-3,2.19-9.53,0-15.05,3.34-22.45,10.73-33.36a44.73,44.73,0,0,0,2.87-5c-1.68,1.51-3.46,3-5.36,4.43-1.06.81-2.2,1.63-3.38,2.45-2,1.48-11.54,8-19.69,8a14.74,14.74,0,0,1-3.74-.47l-.55-.16a8.83,8.83,0,0,1-5.94-7.52,8.35,8.35,0,0,1,0-1.58,9.48,9.48,0,0,1-2.36.28,8.84,8.84,0,0,1-6-2.41c-.16-.16-.32-.32-.47-.49-5.69-6.48-2.95-18.07-1.45-22.87.35-1.23.73-2.45,1.13-3.61q.75-2.22,1.65-4.41a78.75,78.75,0,0,1-12.73-5.13C3.94,108.66,9.19,84.38,11.72,72.72c.46-2.12.74-3.86.92-5.26a13,13,0,0,1-3.88-2.62c-5-2.83-5.65-7-5.68-8.87C3,52.4,4.88,49.1,8.19,46.69A9.84,9.84,0,0,1,15.73,40a13,13,0,0,1,2.85-.32,14.18,14.18,0,0,1,10.47,4.93,13.8,13.8,0,0,1,1.32,1.77c8.79,6.47,9.19,16,9.54,24.5.1,2.3.19,4.68.42,7.17.47,5,1.59,5.78,2.62,6a7.4,7.4,0,0,1,.93.12c.4,0,.87,0,1.42,0h.2a8.37,8.37,0,0,1,2.1-.51,14,14,0,0,0,1.79-.93,15.15,15.15,0,0,1,1.93-1.91c.67-1.42,1.3-2.59,1.79-3.47.11-1.32.21-2.83.31-4.4.4-6.25.85-13.26,2.84-18.6a16.4,16.4,0,0,1,6.32-10.55,11.06,11.06,0,0,1,3-1.79c.78-.8,1.47-1.49,2-2a22.6,22.6,0,0,1,2.91-4.89,8,8,0,0,1,1.89-5.57l2.23-2.64c.1-.11.19-.22.29-.32a6.48,6.48,0,0,1,.69-1L77.86,23a7.75,7.75,0,0,1,1.75-1.54,21,21,0,0,1,8.69-4.55,22,22,0,0,1,5.46-.68,22.28,22.28,0,0,1,8.79,1.81c.66-.28,1.33-.55,2-.8l1.13-.51a8.18,8.18,0,0,1,2.4-.69,59.18,59.18,0,0,1,8-1.9,8.55,8.55,0,0,1,.87-.09l1.39,0a37.5,37.5,0,0,1,9.1,1.17,7.86,7.86,0,0,1,1.56.43,44.46,44.46,0,0,1,11,4.92c.71.4,1.4.78,2.08,1.13C152.12,27,158,27.58,160,27.58c.35,0,.6,0,.77,0a7,7,0,0,1,6.71.57c1.1.15,2.18.33,3.23.56l.28-.16c4.36-2.4,10.63-3.51,19.73-3.51a170.71,170.71,0,0,1,22.59,1.76c45.89,6.85,64.83,31.52,65.61,32.57l.06.08c7.66,7.84,16.4,20.7,16.59,38.67,0,1.77,0,3.54-.08,5.28,1,11.35,3.28,21.14,5.9,25.56,5.11,2,12.18,7.78,11,24a30.75,30.75,0,0,0,.23,8.21,8,8,0,0,1-.32,15.3,23.65,23.65,0,0,1-6,.75,20.4,20.4,0,0,1-15.37-6.56l.63,2.05c.81,2.6,1.52,4.92,2.1,7.06,3.79,1.86,6.85,5.68,7.33,11.76a21.39,21.39,0,0,1,0,2.78,30.94,30.94,0,0,1-9.37,20.43,28.64,28.64,0,0,1-3.54,2.91c-5.73,4-12.82,6.07-21.08,6.11l-.5,0h-.89c-.5,0-1.12,0-1.81,0l-.71,0c-7-.43-11.94-2.54-14.7-6.27a11.78,11.78,0,0,1-1.9-10,23,23,0,0,0,.48-2.88c.58-5.17,0-12.81-3.63-17.42-.63-.81-1.26-1.6-1.88-2.38a72.46,72.46,0,0,1-8.58-12.57,18.07,18.07,0,0,0-2.36,8.17c-.26,8.21-.67,13.45-1,16.57a12.87,12.87,0,0,1,1.88,9.17c-.65,3.5-3.14,8.3-11.36,11.28-1,.37-2,.71-3.06,1-.6.18-1.21.35-1.84.52a54.12,54.12,0,0,1-13.42,1.81h-1a35.8,35.8,0,0,1-5.1-.46c-.59-.09-1.2-.21-1.84-.36l-.51-.12c-.62-.16-1.23-.34-1.82-.53l-.34-.11c-.64-.22-1.29-.48-1.89-.74l-.58-.28a10.1,10.1,0,0,1-1.52,2.52l-.36.4a29.62,29.62,0,0,1-12.52,7.61c-1,.31-1.88.56-2.79.77A43.53,43.53,0,0,1,161.37,230.59ZM66,126.89a65.59,65.59,0,0,0-7.56,10.55,33.43,33.43,0,0,0-3.78,9.06c-.12.69-.27,1.36-.43,2,.44-.26.85-.49,1.2-.68a35.56,35.56,0,0,0,8.38-7.28,60.53,60.53,0,0,0,5-6.51,2.85,2.85,0,0,1-.23-.26A11.26,11.26,0,0,1,66,126.89Z"/>
    <g>
      <g>
        <path class="cls-3" d="M287.24,100.41s1.21,24.23,8.13,33.94c0,0,4.06,5.62-1.15,5a47.46,47.46,0,0,1-10.34-27.53C283.18,95,287.24,100.41,287.24,100.41Z"/>
        <path class="cls-4" d="M295,135.83s10.78-1.65,9.45,16.52,5.7,16.4,5.7,16.4-16.61,4.7-17.43-16.28c0,0,.62-3.72,0-16.21"/>
      </g>
      <g>
        <path class="cls-3" d="M73.87,217.27q.39.16.81.3a27.86,27.86,0,0,0,3.15.87,40.41,40.41,0,0,0,11,.7c1.26-.09,2.56-.23,3.88-.45a40,40,0,0,0,4-.84c5.71-1.48,8.25-3.35,9.22-5.08,1.53-2.74-.84-5.13-.84-5.13s1.3-11.55,3.31-21.41,3.66-9,3.66-9c9-6.26,28.71-25.83,28.71-25.83,3.41-9.85-20.82-31.24-32.43-36.38-3.86-1.72-6.33-1.63-5.91,1.28,1.68,11.65-6.4,35.9-13.47,46.33s-9.33,16.35-9.36,28.89-5.38,15.91-5.38,15.91a14.36,14.36,0,0,0-2.41,2.08,9.94,9.94,0,0,0-2.27,3.76C69.16,214.56,70.84,216.09,73.87,217.27Z"/>
        <path class="cls-5" d="M73.87,217.27q.39.16.81.3a27.86,27.86,0,0,0,3.15.87,7.54,7.54,0,0,1-.2-1.76c.05-4.8,5.4-7.46,8.47-11.16,3.51-4.2,4.08-10.1,3.9-15.58s-1-11.05.4-16.36c1.68-6.5,6.35-11.73,9.74-17.53,7.16-12.21,8.56-26.79,8.21-41.07-3.86-1.72-6.33-1.63-5.91,1.28,1.68,11.65-6.4,35.9-13.47,46.33s-9.33,16.35-9.36,28.89-5.38,15.91-5.38,15.91a14.36,14.36,0,0,0-2.41,2.08,9.94,9.94,0,0,0-2.27,3.76C69.16,214.56,70.84,216.09,73.87,217.27Z"/>
        <g>
          <path class="cls-3" d="M186.82,204.92c1.06,3.91,4.31,6.15,8.55,7.17.51.12,1,.23,1.56.31a26.92,26.92,0,0,0,4,.35,44.88,44.88,0,0,0,12.24-1.55c.52-.13,1-.27,1.55-.43.9-.27,1.78-.55,2.63-.87,11.36-4.12,3.84-10.6,3.84-10.6l0-.14c.15-.91.92-6,1.34-19,.46-14.45,13.46-23,13.46-23-4.86-11-30.26-5.19-41.42-.76-4.31,1.72-6.5,3.23-4.57,3.51,6.93,1,4.71,39.77.48,40.91h-.05C186.18,201.66,186.82,204.92,186.82,204.92Z"/>
          <path class="cls-5" d="M186.82,204.92c1.06,3.91,4.31,6.15,8.55,7.17.38-2.08-1-4.64-1.34-7a7.45,7.45,0,0,1,4.23.31c3.65-5.71,3.44-13,3-19.75a96.86,96.86,0,0,0-2.2-16.28c-1.07-4.39-3-8.48-4.36-12.76l-.09-.29c-4.31,1.72-6.5,3.23-4.57,3.51,6.93,1,4.71,39.77.48,40.91h-.05C186.18,201.66,186.82,204.92,186.82,204.92Z"/>
          <path class="cls-6" d="M214.71,210.77c.9-.27,1.78-.55,2.63-.87,11.36-4.12,3.84-10.6,3.84-10.6l0-.14a4.56,4.56,0,0,0-3.44,1.41C214.56,203.42,214.42,208,214.71,210.77Z"/>
          <path class="cls-6" d="M200.92,212.75a44.88,44.88,0,0,0,12.24-1.55A10.82,10.82,0,0,0,205.4,205C201.14,204.25,200.69,209.12,200.92,212.75Z"/>
          <path class="cls-6" d="M186.82,204.92c1.19,4.37,5.12,6.66,10.11,7.48.4-3.13.34-9.67-6.43-11.61h-.05C186.18,201.66,186.82,204.92,186.82,204.92Z"/>
        </g>
        <g>
          <path class="cls-3" d="M114.25,142.46c15.58,12,57.69,21.07,64.76,18.81s15.07-3.51,27.45-.61,30.75-2,30.75-2c.93,10,6.47,15.93,12.46,23.6,5,6.42,6.07,16,5.27,23.2a31.12,31.12,0,0,1-.66,3.89c-1.19,5,5.22,6.12,9.31,6.36l.52,0c1,0,1.76,0,2.23,0a4.36,4.36,0,0,0,.46,0c7.35,0,12.77-1.9,16.72-4.66a21.93,21.93,0,0,0,2.59-2.13,23,23,0,0,0,6.91-15,12.81,12.81,0,0,0,0-1.76c-.54-6.75-6.06-5.68-6.06-5.68-1-6.76-5.44-16.89-8.68-32.46s9.6-26.63,9.3-55.83-27.05-43-27.05-43-69.51-18.21-77.69-20A14.05,14.05,0,0,0,169.74,39l-37.61,6-29.42,67.15-.75,1.72S98.67,130.48,114.25,142.46Z"/>
          <path class="cls-6" d="M286.11,209a23,23,0,0,0,6.91-15C289,194.65,278.12,197.77,286.11,209Z"/>
          <path class="cls-6" d="M266.34,215.76a4.36,4.36,0,0,0,.46,0c7.35,0,12.77-1.9,16.72-4.66-.85-1.21-3.43-3.5-11-3.38C267.39,207.78,266.22,211.8,266.34,215.76Z"/>
          <path class="cls-6" d="M263.59,215.71c-.94-3.21-3.23-8.17-8.65-10.25a31.12,31.12,0,0,1-.66,3.89C253.09,214.31,259.5,215.47,263.59,215.71Z"/>
          <path class="cls-5" d="M114.82,141.41c15.57,12,57.69,21.08,64.75,18.81s15.08-3.5,27.46-.6,30.74-2,30.74-2c.93,10,6.48,15.92,12.46,23.6,5,6.42,6.08,16,5.28,23.2a31.44,31.44,0,0,1-.66,3.89c-1.2,5,5.21,6.11,9.3,6.36l.53,0a21.12,21.12,0,0,1-.56-2.6c-1.52-10.06,3.4-21.49-2.31-29.9-2.69-4-7.32-6.38-9.72-10.53-3.2-5.53-2.2-13.69-7.54-17.21-3.42-2.25-7.9-1.44-12-.92a68.61,68.61,0,0,1-20.43-.51c-6.42-1.13-12.67-3.15-19.14-3.95s-13.08-.36-19.63-.33c-15.17.07-30.74-2.21-43.92-9.72a52.93,52.93,0,0,1-15.5-13.3c-3-3.83-5.44-13.3-10.33-14.54l-.37-.08-.75,1.72S99.24,129.43,114.82,141.41Z"/>
        </g>
        <path class="cls-7" d="M19.92,58.83s2.4,2.7-.38,15.58-5.84,30.12,10.24,38,22.11,6.7,26.91,1.24S39.7,99,39.7,99l-9.19-5.29L29.8,77.36s.88-15.81-2.86-19.55-7.37-3.61-7.37-3.61Z"/>
      </g>
      <g>
        <g>
          <path class="cls-8" d="M23,49.89s-2.25-2.79-5.54-2-.39,3.26-2.76,4.3-6.31,4.1-1,6.24c0,0,2,3.62,7,1.44A6.24,6.24,0,0,0,23,49.89Z"/>
          <path class="cls-9" d="M20.21,52.7s.09,2.9-2.49,3.33S22.15,59.12,20.21,52.7Z"/>
          <path class="cls-9" d="M16.93,52.87s-.16,2-1.3,2.58S14.93,53.93,16.93,52.87Z"/>
        </g>
        <g>
          <g>
            <path class="cls-10" d="M43.67,150.32c-3.38-3.84.2-15.29.2-15.29.32-1.13.67-2.23,1-3.31,8.57-25.29,29.6-39,29.6-39,.89,8.14,5,11.83,5,11.83-14.61,9.76-23.32,20.52-28.07,28.9A39.85,39.85,0,0,0,46.79,145C45.49,152.06,43.67,150.32,43.67,150.32Z"/>
            <path class="cls-11" d="M43.67,150.32c-3.38-3.84.2-15.29.2-15.29.32-1.13.67-2.23,1-3.31a12.8,12.8,0,0,1,6.57,1.77A39.85,39.85,0,0,0,46.79,145C45.49,152.06,43.67,150.32,43.67,150.32Z"/>
          </g>
          <path class="cls-3" d="M25.53,74.23c-3.27,16.36-1.92,32.36,17.84,42.24,0,0,7.25,3.35,30.08-4.39,0,0,2.51,7.06.57,13.36,0,0-1.12,7.45,7.44,1.36S97,115.46,105.12,116.35s23.56.38,29-14.78S163,35.27,163,35.27s-7.68,2.47-24.65-6.48c-.82-.43-1.67-.9-2.54-1.38,0,0-8.42-5.76-18.54-5.34a51.66,51.66,0,0,0-15,5,14.32,14.32,0,0,0-12-2.38c-7,1.76-10.77,9.13-11.54,13.59,0,0-2.55,1.41-4.33,6.34a110.48,110.48,0,0,0-9.17,9.81C61.44,59.18,61.76,72.66,60.89,80a42.86,42.86,0,0,0-3.46,6.87s-.44.38-1.19,1c-2,1.52-6.29,4.36-10.21,4.42-5.37.07-12.46-.41-13.66-13.42s1-22-9-27.35l-1,4.7S28.81,57.87,25.53,74.23Z"/>
          <path class="cls-12" d="M56.24,87.81l.14.57.29,5.44c7.26,9.87,19.39-3.39,19.39-3.39s11.5-8.8,16-14.55,6.7-19.14,15.12-30.76c6.59-9.08,23.94-14.44,31.18-16.33-.82-.43-1.67-.9-2.54-1.38,0,0-8.42-5.76-18.54-5.34a51.66,51.66,0,0,0-15,5,14.32,14.32,0,0,0-12-2.38c-7,1.76-10.77,9.13-11.54,13.59,0,0-2.55,1.41-4.33,6.34a110.48,110.48,0,0,0-9.17,9.81C61.44,59.18,61.76,72.66,60.89,80a42.86,42.86,0,0,0-3.46,6.87S57,87.24,56.24,87.81Z"/>
          <g>
            <g>
              <g>
                <g>
                  <path class="cls-13" d="M104.85,73.18c-.13,4,1.57,4.63,5.06,4.74a7,7,0,0,0,7-6.85c.13-4-1.54-7.41-5-7.53S105,69.19,104.85,73.18Z"/>
                  <path class="cls-4" d="M104.9,73.18a6.87,6.87,0,0,0,.34,2.56,2.63,2.63,0,0,0,1.81,1.61,8.57,8.57,0,0,0,2.54.24,5.88,5.88,0,0,0,2.4-.48,6.54,6.54,0,0,0,3.34-3.27,7.93,7.93,0,0,0,.55-4.62,6.51,6.51,0,0,0-1.84-4.1,3.84,3.84,0,0,0-2-.92,3.35,3.35,0,0,0-2.18.42,9.73,9.73,0,0,0-3.45,3.63A11.58,11.58,0,0,0,104.9,73.18Zm-.1,0a12.51,12.51,0,0,1,1.44-5,10.16,10.16,0,0,1,3.36-4,4.26,4.26,0,0,1,5,.28,7.06,7.06,0,0,1,2.29,4.66,11.09,11.09,0,0,1,0,2.64,7.24,7.24,0,0,1-4.72,5.9,6.84,6.84,0,0,1-2.61.34,9.23,9.23,0,0,1-2.6-.41,2.8,2.8,0,0,1-1.85-1.79A6.94,6.94,0,0,1,104.8,73.18Z"/>
                </g>
                <g>
                  <ellipse class="cls-4" cx="110.2" cy="72.07" rx="4.06" ry="3.64" transform="translate(3.57 149.32) rotate(-69.11)"/>
                  <ellipse class="cls-13" cx="109.56" cy="69.23" rx="1.12" ry="1.01" transform="translate(5.81 146.9) rotate(-69.11)"/>
                </g>
              </g>
              <path class="cls-4" d="M111.83,57.23a6.18,6.18,0,0,1,6.45,4.3S120.55,53.62,111.83,57.23Z"/>
            </g>
            <path class="cls-4" d="M114.93,64.48s3.81,4.29,6.66,2.16c0,0-.69,2.13-3.58,1.13a3.31,3.31,0,0,0,2.74,1.35H121c2.16-.07-2,1.88-3.88-.06"/>
          </g>
          <g>
            <path class="cls-3" d="M134.87,41.22s23.14-9.85,39-3.23,19.74,14.36,11,33.91-12,9.71-15.73,27.43-20.26,28.41-31,30.05l.27-.49s-6.95-8.83-6.24-19.28,1.18-9.44-1-16.5"/>
            <path class="cls-3" d="M180.3,59.4s1.17-12.81-13.93-16.54S143.44,46,141.25,52.15s-1,8.83-1,8.83"/>
            <path class="cls-8" d="M155,72.05s9.78,2.07,14.42,9.2"/>
            <path class="cls-8" d="M145,82s13.81,4.94,15.21,11.84"/>
            <path class="cls-8" d="M143.73,91.15s6.5,7.19,4.36,19.22"/>
          </g>
          <path class="cls-14" d="M81.33,35.37a1,1,0,0,0,0-2,1,1,0,0,0,0,2Z"/>
          <g>
            <path class="cls-14" d="M82.16,53.74A4.82,4.82,0,0,1,85,57.11a5.85,5.85,0,0,1-.94,4.64,8.24,8.24,0,0,1-4.16,3.11,10.09,10.09,0,0,1-5.24.56c-3.6-.81-3.17-6-1.67-8.36a5.87,5.87,0,0,1,3.8-2.75,3.24,3.24,0,0,1,3.8,2.17c.59,1.68.38,4.06-1.22,5.12a2.34,2.34,0,0,1-2.56.15,1.8,1.8,0,0,1-.7-2.1c.26-.59-.6-1.1-.86-.51A2.83,2.83,0,0,0,77.49,63a4.06,4.06,0,0,0,4.28-3.36,5.7,5.7,0,0,0-1.5-5.47,4.85,4.85,0,0,0-5.49-.2c-3.45,1.91-5.09,7.12-2.92,10.55,1.24,2,3.51,2.14,5.63,1.88a10.91,10.91,0,0,0,6.14-2.61,7.43,7.43,0,0,0,2.52-6.14,5.89,5.89,0,0,0-3.72-4.9c-.6-.23-.87.74-.27,1Z"/>
            <path class="cls-14" d="M80.27,51.85a4.85,4.85,0,0,1,.56-5.93c1.4-1.43,4.08-2.19,5.68-.66a5.83,5.83,0,0,1,1.26,5.68,3,3,0,0,1-2.25,1.92,3.37,3.37,0,0,1-3-.4,2.56,2.56,0,0,1-.2-3.33,1.22,1.22,0,0,1,1.45-.3A.8.8,0,0,1,84,49.9c-.39.5.31,1.21.71.71a1.81,1.81,0,0,0-.88-2.82,2.45,2.45,0,0,0-3,2,3.56,3.56,0,0,0,1.35,3.76,4.86,4.86,0,0,0,4.15.12c2.81-1.09,3-4.49,2.12-7a4.7,4.7,0,0,0-2.79-3,5.39,5.39,0,0,0-4.14.47,5.86,5.86,0,0,0-2.18,8.24c.34.54,1.2,0,.86-.51Z"/>
            <path class="cls-14" d="M73.92,53.32a3.87,3.87,0,0,0-1.86-3.62,4.17,4.17,0,0,0-4.16-.44,9.66,9.66,0,0,0-3,3.06,6.91,6.91,0,0,0-1.21,3.94c.08,2.4,2,5.33,4.7,5,1.47-.18,2.33-1.76,2.79-3s.76-3-.33-4a2.23,2.23,0,0,0-3.25.37,2.25,2.25,0,0,0,.9,3.15c.58.27,1.08-.59.5-.87A1.22,1.22,0,0,1,68.52,55a1.2,1.2,0,0,1,2,.57,4.69,4.69,0,0,1-.69,3.17,3.43,3.43,0,0,1-1,1.28,1.93,1.93,0,0,1-1.69,0,4.29,4.29,0,0,1-2.43-4.28,7.69,7.69,0,0,1,3-5.12,2.63,2.63,0,0,1,1.73-.81,4.14,4.14,0,0,1,1.69.43,3,3,0,0,1,1.84,3c-.07.64.93.63,1,0Z"/>
            <path class="cls-14" d="M90.19,50.37c.57-.64,1.29-1.49,2.24-1.28a3.24,3.24,0,0,1,1.85,1.44A4.49,4.49,0,0,1,94.53,55a5.44,5.44,0,0,1-3.85,2.76,2.84,2.84,0,0,1-2.4-.5,2.55,2.55,0,0,1-.43-2.39,2.52,2.52,0,0,1,1.5-2c.49-.14,1,.08.9.65s-.56.73-1,.83c-.63.15-.36,1.11.26,1a2,2,0,0,0,1.65-2.41c-.37-1.24-1.85-1.29-2.79-.68-1.79,1.18-2.39,4.63-.51,6s4.82.27,6.35-1.19a5.55,5.55,0,0,0,1.34-6.19A4.69,4.69,0,0,0,93,48.22c-1.44-.54-2.6.42-3.5,1.44-.43.48.28,1.19.7.71Z"/>
            <path class="cls-14" d="M91.22,60a5.61,5.61,0,0,1,2.47,5.87A7,7,0,0,1,88.79,71a6.51,6.51,0,0,1-3.73.24c-1.37-.41-1.82-1.72-1.87-3a7.76,7.76,0,0,1,1-4.24c.72-1.2,2.06-2.19,3.4-1.29s2,2.43.9,3.8a2.39,2.39,0,0,1-2.1.92c-1-.17-1.17-1.08-1-2,.14-.62-.82-.89-1-.26a2.64,2.64,0,0,0,.32,2.38,2.46,2.46,0,0,0,2.16.85A3.62,3.62,0,0,0,90.12,65a4,4,0,0,0-2.78-3.66c-1.75-.57-3.34.88-4.12,2.31-1.48,2.71-1.86,8,2.12,8.61a8.77,8.77,0,0,0,8.56-4.15,6.72,6.72,0,0,0-2.18-9,.5.5,0,0,0-.5.86Z"/>
            <path class="cls-14" d="M77.61,68.49a4.47,4.47,0,0,1-1.15,5.73,7,7,0,0,1-6.55,1,4.48,4.48,0,0,1-1.34-.6,2,2,0,0,1-.78-1.55,6.85,6.85,0,0,1,.34-3.42,4,4,0,0,1,2.06-2c.84-.37,2.32-.78,3.14-.21a2.37,2.37,0,0,1,.45,3.32,1.2,1.2,0,0,1-1.38.3A.93.93,0,0,1,72,69.86a.5.5,0,0,0-.87-.5,2,2,0,0,0,1.11,2.77,2.45,2.45,0,0,0,2.93-1.85,3.55,3.55,0,0,0-1.52-3.76c-1.2-.62-2.9-.2-4,.34a4.86,4.86,0,0,0-2.63,3,8,8,0,0,0-.24,2.38,5.19,5.19,0,0,0,.39,2.21c.66,1.32,2.42,1.79,3.76,2A8.16,8.16,0,0,0,75.53,76c3-1.33,4.77-5,3-8-.34-.54-1.2,0-.87.51Z"/>
            <path class="cls-14" d="M67.08,61.51a3.25,3.25,0,0,0-2.94,1,2.27,2.27,0,0,0,.31,2.75,2.73,2.73,0,0,0,3,.52,2.69,2.69,0,0,0,1.85-2.62A1.42,1.42,0,0,0,68.2,62a1.54,1.54,0,0,0-1.58.6.51.51,0,0,0,.18.69.52.52,0,0,0,.68-.18c0,.07,0,0,0,0s-.07,0,0,0l.11-.06c.07,0-.1,0,0,0l.09,0c.13,0-.07,0,.06,0h.1c.11,0,0,0,.06,0l.13,0s-.06,0,0,0,.12.08.07,0l.06,0h0s.08.15,0,.08a.41.41,0,0,1,.05.19,1,1,0,0,1-.08.47,2,2,0,0,1-.26.41,2.46,2.46,0,0,1-.88.63,2.23,2.23,0,0,1-1.1.16,1.78,1.78,0,0,1-.45-.13.94.94,0,0,1-.39-.27l-.08-.09c-.07-.08,0,0,0,0L65,64.29a1.51,1.51,0,0,1-.15-.44s0-.12,0,0a.34.34,0,0,0,0-.1,2.09,2.09,0,0,1,0-.25c0,.09,0,0,0,0l0-.12s.05-.13,0-.08.05-.09.06-.11a1.12,1.12,0,0,1,.33-.32,1.61,1.61,0,0,1,.52-.2,5,5,0,0,1,1.29-.08.5.5,0,0,0,0-1Z"/>
            <path class="cls-14" d="M82.85,73.14a3.78,3.78,0,0,1,.46,3.46,3.11,3.11,0,0,1-2.61,2.06,2.17,2.17,0,0,1-2.34-2.09,4.2,4.2,0,0,1,.44-1.9,2,2,0,0,1,1.11-1.14c.4-.11,1,0,1.11.5a.87.87,0,0,1-.33.72,1,1,0,0,1-.39.23.62.62,0,0,1-.19,0c-.11,0-.06-.12-.09,0a.52.52,0,0,0-.35-.62.5.5,0,0,0-.61.35,1,1,0,0,0,.59,1.16,1.53,1.53,0,0,0,1.43-.2,1.82,1.82,0,0,0,.78-2.28,1.89,1.89,0,0,0-2-.9A2.71,2.71,0,0,0,78,74.09c-.86,1.67-1,3.93.8,5a3.65,3.65,0,0,0,4.71-.92,4.67,4.67,0,0,0,.22-5.58c-.37-.52-1.24,0-.86.5Z"/>
            <path class="cls-14" d="M76.67,51.69a.5.5,0,0,0,0-1,.5.5,0,0,0,0,1Z"/>
          </g>
          <path class="cls-15" d="M114.19,36.43s-11,7-15,19S87.9,81.86,75.84,88.2c0,0-5.29,9.31-13.35,7.8s-4.43-5.63-2.05-5.92c0,0-4.86,3.83,1.77,3s5.12-7.7-.12-7.87-9.1,3.83-7.36,7.87,13.06,12.77,21.38-1.67A33.44,33.44,0,0,0,94.19,76.2c6.37-11.77,8.41-28.42,26.71-38.93Z"/>
          <g>
            <path class="cls-16" d="M101.8,26.05S87.36,33,84,28.19l-2.24,2.64s9.1,5,19.29-3.3Z"/>
            <path class="cls-16" d="M98.59,30S84.15,36.9,80.75,32.11l-2.24,2.64s9.1,5,19.28-3.31Z"/>
            <g>
              <g>
                <path class="cls-16" d="M142.56,31l-6.14-3.07s-10.86,7.88-22.52,6-14.17-5.32-14.17-5.32L96,32.1s5.29,6.16,18.25,6.71S142.56,31,142.56,31Z"/>
                <path class="cls-16" d="M133.6,26.34s-13.95,11-31.33.73L109,24s10.68,5.21,17.12-.94l6.89,3"/>
              </g>
              <path class="cls-14" d="M115,38.71c3.21,0,3.22-5,0-5s-3.23,5,0,5Z"/>
              <path class="cls-14" d="M108.22,38.49c3.21,0,3.22-5,0-5s-3.23,5,0,5Z"/>
              <path class="cls-14" d="M102.12,36.05c3.22,0,3.22-5,0-5s-3.22,5,0,5Z"/>
              <path class="cls-14" d="M123.29,38c3.22,0,3.23-5,0-5s-3.22,5,0,5Z"/>
              <path class="cls-14" d="M130,36c3.22,0,3.22-5,0-5s-3.22,5,0,5Z"/>
              <path class="cls-14" d="M135.31,33.94c3.21,0,3.22-5,0-5s-3.23,5,0,5Z"/>
              <path class="cls-14" d="M127.32,29.1c3.22,0,3.23-5,0-5s-3.22,5,0,5Z"/>
              <path class="cls-14" d="M120.63,30.66c3.22,0,3.22-5,0-5s-3.22,5,0,5Z"/>
              <path class="cls-14" d="M114.26,30.92c3.22,0,3.22-5,0-5s-3.22,5,0,5Z"/>
              <path class="cls-14" d="M108.12,29.79c3.22,0,3.23-5,0-5s-3.22,5,0,5Z"/>
            </g>
            <path class="cls-14" d="M97,29.64a.5.5,0,0,0,0-1,.5.5,0,0,0,0,1Z"/>
            <path class="cls-14" d="M94.68,30.81a.5.5,0,0,0,0-1,.5.5,0,0,0,0,1Z"/>
            <path class="cls-14" d="M92.16,32a1,1,0,0,0,0-2,1,1,0,0,0,0,2Z"/>
            <path class="cls-14" d="M89,32.38a1,1,0,0,0,0-2,1,1,0,0,0,0,2Z"/>
            <path class="cls-14" d="M86.79,32.31a1,1,0,0,0,0-2,1,1,0,0,0,0,2Z"/>
            <path class="cls-14" d="M84.31,31.73a1,1,0,0,0,0-2,1,1,0,0,0,0,2Z"/>
            <path class="cls-14" d="M84.8,36a1,1,0,0,0,0-2,1,1,0,0,0,0,2Z"/>
            <path class="cls-14" d="M88.92,35.74a1,1,0,0,0,0-2,1,1,0,0,0,0,2Z"/>
            <path class="cls-14" d="M93.2,34.76a1,1,0,0,0,0-2,1,1,0,0,0,0,2Z"/>
          </g>
          <path class="cls-17" d="M112.25,100.11s-2.66,9.14-16.14,9.33-8.91-5.9-23,2.5"/>
          <path class="cls-18" d="M90.58,110.76S84.88,121.3,80.27,121c0,0-2.47-.71-1.38-7.41s.16-5,.16-5,3.44-2,8.61-.1l3.59.87Z"/>
          <g>
            <path class="cls-10" d="M55.07,159.75c5.94,1.56,16.79-6.31,16.79-6.31,1.09-.75,2.14-1.5,3.15-2.28,23.65-18,28.25-42.74,28.25-42.74-9.44,2.44-15.6.12-15.6.12-3.47,17.3-11,29.59-17.89,37.31a44.2,44.2,0,0,1-10.42,8.93C52.23,158.79,55.07,159.75,55.07,159.75Z"/>
            <path class="cls-11" d="M55.07,159.75c5.94,1.56,16.79-6.31,16.79-6.31,1.09-.75,2.14-1.5,3.15-2.28a14,14,0,0,0-5.24-5.31,44.2,44.2,0,0,1-10.42,8.93C52.23,158.79,55.07,159.75,55.07,159.75Z"/>
          </g>
        </g>
        <g>
          <g>
            <path class="cls-19" d="M48.42,91.68s5.21.73,5.29,9.9"/>
            <path class="cls-20" d="M48.42,91.65a4.43,4.43,0,0,1,3,1.14,6.89,6.89,0,0,1,1.88,2.62,10.39,10.39,0,0,1,.5,1.52c.1.52.18,1,.23,1.56s0,1,0,1.56-.12,1-.24,1.53h-.08l-.08-1.5c0-.5-.12-1-.18-1.5a13,13,0,0,0-.84-2.87A7.65,7.65,0,0,0,51,93.2a5.37,5.37,0,0,0-2.55-1.48Z"/>
          </g>
          <g>
            <path class="cls-19" d="M42.42,92.05s3.3,2,2.35,8.12"/>
            <path class="cls-20" d="M42.44,92a3.74,3.74,0,0,1,1.9,1.4,5.84,5.84,0,0,1,1,2.18A6.91,6.91,0,0,1,45.47,98a9,9,0,0,1-.22,1.15,11.11,11.11,0,0,1-.44,1.08h-.07l.12-1.11c0-.36,0-.73,0-1.1a10,10,0,0,0-.27-2.19,7.29,7.29,0,0,0-.78-2,5.13,5.13,0,0,0-1.43-1.64Z"/>
          </g>
        </g>
        <g>
          <g>
            <path class="cls-21" d="M191.2,61.88c-1.89,23.7-4.13,29.24-4.45,45.13-.21,10-.92,24.12-1.42,33.11-.29,5.23-.5,8.74-.5,8.74a50.17,50.17,0,0,1,15-1.58c9,.29,6.62,3.59,6.62,3.59a76.42,76.42,0,0,0,25.29-1.05c10.44-2.26,14.9-1.16,15.5.72a2,2,0,0,1-.43,1.82A38.28,38.28,0,0,1,258,153.47c4.25,1.29,3.84,2.73,3.68,3.05a25.22,25.22,0,0,0,1.87-5.29c2.49-9,6.78-32,8.95-87.1,0,0-17.23-23-60.42-29.45,0,0-27.93-4.28-37.26.85C174.84,35.53,193.09,38.18,191.2,61.88Z"/>
            <path class="cls-12" d="M184.83,148.86a50.17,50.17,0,0,1,15-1.58c9,.29,6.62,3.59,6.62,3.59a76.42,76.42,0,0,0,25.29-1.05c10.44-2.26,14.9-1.16,15.5.72a2,2,0,0,1-.43,1.82A38.28,38.28,0,0,1,258,153.47c4.25,1.29,3.84,2.73,3.68,3.05a25.22,25.22,0,0,0,1.87-5.29c-1.73-1.62-5-3.49-10.79-3.35,0,0-4.7.4-5.4-.93l-.08-3.37s-5.89-2.81-18.9.14-19.18,3.12-20.36-1c0,0,1.26-4.27-5.68-3.74-5.91.44-12.16,3.32-17,1.17C185,145.35,184.83,148.86,184.83,148.86Z"/>
            <path class="cls-22" d="M206.47,150.87s2.73-9.27,2.51-31.35"/>
            <path class="cls-21" d="M247.25,150.88l.74-22.62"/>
          </g>
          <path class="cls-23" d="M255.43,81.93c5.79,0,5.8-9,0-9s-5.8,9,0,9Z"/>
          <path class="cls-23" d="M224.15,77.17c5.79,0,5.8-9,0-9s-5.8,9,0,9Z"/>
          <path class="cls-23" d="M225.84,106c5.79,0,5.8-9,0-9s-5.8,9,0,9Z"/>
          <path class="cls-23" d="M239.08,90c5.79,0,5.8-9,0-9s-5.8,9,0,9Z"/>
          <path class="cls-23" d="M254,113.69c5.79,0,5.8-9,0-9s-5.8,9,0,9Z"/>
          <path class="cls-23" d="M217.24,129c5.79,0,5.8-9,0-9s-5.8,9,0,9Z"/>
          <path class="cls-23" d="M240.53,137.57c5.8,0,5.8-9,0-9s-5.8,9,0,9Z"/>
          <path class="cls-23" d="M260,137.83c5.8,0,5.8-9,0-9s-5.8,9,0,9Z"/>
          <path class="cls-23" d="M201.29,113.1c5.79,0,5.8-9,0-9s-5.8,9,0,9Z"/>
          <path class="cls-23" d="M201.74,87.67c5.79,0,5.8-9,0-9s-5.8,9,0,9Z"/>
          <path class="cls-23" d="M202.18,62.24c5.8,0,5.81-9,0-9s-5.8,9,0,9Z"/>
          <path class="cls-23" d="M241.08,62.75c5.8,0,5.8-9,0-9s-5.8,9,0,9Z"/>
          <path class="cls-23" d="M203.18,43.19c5.79,0,5.8-9,0-9s-5.81,9,0,9Z"/>
          <path class="cls-23" d="M219.28,54.19c5.79,0,5.8-9,0-9s-5.8,9,0,9Z"/>
          <path class="cls-23" d="M254.49,64.68c5.79,0,5.8-9,0-9s-5.8,9,0,9Z"/>
          <path class="cls-23" d="M196.12,133.89c5.8,0,5.8-9,0-9s-5.8,9,0,9Z"/>
        </g>
        <g>
          <path class="cls-3" d="M136.26,135.12s1.28,12.39,7.71,21.77,6.46,14.43,5.6,23.38,4.69,17.18-1.11,28.59a15.62,15.62,0,0,0-1.79,1.7c-1.68,1.89-3.64,5-1.32,7.74a10.88,10.88,0,0,0,4.52,2.54h0a31.24,31.24,0,0,0,3.58,1h0a38.44,38.44,0,0,0,16.18-.14c.72-.17,1.43-.37,2.14-.6a21.93,21.93,0,0,0,9.2-5.53s2-2.35-1-7.26c-.12-.21-.26-.43-.41-.65A153.89,153.89,0,0,0,180.82,186c-.19-11.42.11-26.57.11-26.57s7.94-8.16,11.94-16.08"/>
          <path class="cls-17" d="M173.35,168.89a55.86,55.86,0,0,0-1.61,6.67,10.22,10.22,0,0,1-3.31,5.87,41,41,0,0,1,7.36-6.82,79.82,79.82,0,0,1-3.38,7.62,4.29,4.29,0,0,1-2.39,2.46"/>
          <path class="cls-17" d="M151,189.69l8.55,1.05a.77.77,0,0,1,1.11-.33c-1.58.45-3,1.27-4.56,1.82a6.59,6.59,0,0,1-4.78.17,29.36,29.36,0,0,0,13.15,3.29"/>
          <path class="cls-6" d="M145.35,218.3a10.88,10.88,0,0,0,4.52,2.54h0c4.19-7.77-.18-9.77-3.21-10.28C145,212.45,143,215.58,145.35,218.3Z"/>
          <path class="cls-6" d="M153.47,221.8a38.44,38.44,0,0,0,16.18-.14c0-.13,0-.25-.07-.4-.41-2.16-2-6.49-8-6.55C157.85,214.68,155.22,218.1,153.47,221.8Z"/>
          <path class="cls-6" d="M171.79,221.06a21.93,21.93,0,0,0,9.2-5.53s2-2.35-1-7.26c-.9-.62-2.09-.59-3.63.75C172.57,212.28,170.12,217.45,171.79,221.06Z"/>
        </g>
        <path class="cls-17" d="M237.21,158.66s1,1,10.4-5.15"/>
        <path class="cls-6" d="M92.7,218.69a40,40,0,0,0,4-.84c5.71-1.48,8.25-3.35,9.22-5.08C103.29,211.2,95.15,207.43,92.7,218.69Z"/>
        <path class="cls-6" d="M74.68,217.57a37,37,0,0,0,14.14,1.57c-.22-2.53-1.52-6.29-7.06-7.2C77.43,211.23,75.51,214.33,74.68,217.57Z"/>
        <path class="cls-6" d="M73.87,217.27c.61-1.88,1.48-6.06-2.05-7.8a9.94,9.94,0,0,0-2.27,3.76C69.16,214.56,70.84,216.09,73.87,217.27Z"/>
        <path class="cls-17" d="M89.05,183.19l-8-1.2c.2-.18.51,0,.71.19l6.49,5.89a9,9,0,0,0-4.41-1.15c-.46,0-1,.14-1.13.59a1,1,0,0,0,.42.88A9.08,9.08,0,0,0,85.28,190"/>
      </g>
    </g>
  </g>
</svg>
