<svg id="Layer_1" data-name="Layer 1" xmlns="http://www.w3.org/2000/svg" width="207.66" height="291.91" viewBox="0 0 207.66 291.91">
  <defs>
    <style>
      .cls-1 {
        fill: #fffa4d;
      }

      .cls-2 {
        fill: #d8a576;
      }

      .cls-2, .cls-39 {
        stroke: #8c5f3a;
      }

      .cls-12, .cls-13, .cls-14, .cls-17, .cls-2, .cls-20, .cls-24, .cls-27, .cls-30, .cls-33, .cls-35, .cls-37, .cls-39, .cls-4, .cls-6, .cls-7, .cls-9 {
        stroke-miterlimit: 10;
      }

      .cls-13, .cls-14, .cls-17, .cls-2, .cls-20, .cls-27, .cls-33, .cls-35, .cls-37, .cls-39, .cls-4, .cls-6, .cls-7, .cls-9 {
        stroke-width: 0.5px;
      }

      .cls-3 {
        fill: #b88556;
      }

      .cls-4 {
        fill: #6f361b;
        stroke: #492212;
      }

      .cls-5 {
        fill: #5c2c15;
      }

      .cls-6 {
        fill: #b78552;
      }

      .cls-6, .cls-7 {
        stroke: #8e613c;
      }

      .cls-12, .cls-17, .cls-24, .cls-7 {
        fill: none;
      }

      .cls-8 {
        fill: #d7a777;
      }

      .cls-9 {
        fill: #eacbac;
        stroke: #aa754d;
      }

      .cls-10 {
        fill: #fbe9dd;
      }

      .cls-11 {
        fill: #eed1af;
      }

      .cls-12 {
        stroke: #d8a982;
      }

      .cls-13 {
        fill: #823d1e;
        stroke: #542513;
      }

      .cls-14 {
        fill: #843f21;
        stroke: #492012;
      }

      .cls-15 {
        opacity: 0.69;
      }

      .cls-16 {
        fill: #441e0e;
      }

      .cls-17 {
        stroke: #310600;
      }

      .cls-18 {
        fill: #e2b78d;
      }

      .cls-19 {
        fill: #572912;
        opacity: 0.72;
      }

      .cls-20 {
        fill: #844123;
        stroke: #421c0d;
      }

      .cls-21 {
        fill: #ce8261;
        opacity: 0.33;
      }

      .cls-22 {
        fill: #6d321b;
      }

      .cls-23, .cls-37 {
        fill: #fdecdc;
      }

      .cls-24 {
        stroke: #a4693f;
      }

      .cls-25 {
        fill: #fffcf9;
      }

      .cls-26 {
        fill: #e8caa8;
      }

      .cls-27 {
        fill: #7f3f0f;
        stroke: #3f290f;
      }

      .cls-28 {
        fill: #ffe23e;
      }

      .cls-29 {
        fill: #e8b121;
      }

      .cls-30 {
        fill: #22130e;
        stroke: #f48d11;
      }

      .cls-31 {
        fill: #fff;
      }

      .cls-32 {
        fill: #796a65;
      }

      .cls-33 {
        fill: #f0a532;
        stroke: #d68922;
      }

      .cls-34 {
        fill: #fac52b;
      }

      .cls-35 {
        fill: #d19e6f;
        stroke: #91613a;
      }

      .cls-36 {
        fill: #bc895a;
      }

      .cls-37 {
        stroke: #9e6c44;
      }

      .cls-38 {
        fill: #e9caae;
      }

      .cls-39 {
        fill: #d9a677;
      }
    </style>
  </defs>
  <g>
    <path class="cls-1" d="M131,288.13a8.13,8.13,0,0,1-2.29-.33,11.79,11.79,0,0,1-3.89-2,8.7,8.7,0,0,1-.89.6,8,8,0,0,1-4.15,1.17,7.8,7.8,0,0,1-2.29-.34,11.7,11.7,0,0,1-7.5-6.73,18.55,18.55,0,0,1-5.47-8.4l-1.38-.13a18.64,18.64,0,0,1-5.51,8.54,11.75,11.75,0,0,1-7.51,6.72,7.8,7.8,0,0,1-2.29.34,8,8,0,0,1-4.15-1.17,7.63,7.63,0,0,1-.88-.6,11.94,11.94,0,0,1-3.9,2,8.13,8.13,0,0,1-2.29.33A8,8,0,0,1,72.5,287a11.78,11.78,0,0,1-2.16-1.71,11,11,0,0,1-2.38,1,7.78,7.78,0,0,1-2.28.34,8.05,8.05,0,0,1-4.15-1.16,13.22,13.22,0,0,1-5.47-7.3,18.8,18.8,0,0,1-4.58-7.45,26.26,26.26,0,0,1-2.37-2.19,10.51,10.51,0,0,1-1.12.06c-4.56,0-8.27-2.81-9.66-4-.21-.19-.42-.38-.61-.59-2.33-2.51-4.53-5.11-6.57-7.78-9.24-.05-14.76-10.81-16.89-16C3.07,219.77,3.11,194.73,4.19,181.32a23.07,23.07,0,0,1,.18-3.16v0a25.82,25.82,0,0,1,4.38-13.75c0-.37.06-.74.1-1.11,0-.18,0-.35.07-.53a22.85,22.85,0,0,1,6.74-14.44v-.16a7.31,7.31,0,0,1,.29-1.55c1-6.6,4.88-11.9,8.76-15.69A49.08,49.08,0,0,1,16.62,109a53.88,53.88,0,0,1-.47-11.87A8,8,0,0,1,15,92.62c0-.68.63-15.16,10.23-31.71a32.47,32.47,0,0,1-1.94-2.83,29.65,29.65,0,0,1-4.76-4.62c-.16-.19-.31-.38-.45-.58a8,8,0,0,1,.83-10.32,8.29,8.29,0,0,1,.75-3c-.24-1.31-.44-2.63-.61-3.92a10.18,10.18,0,0,0-1.81-3.26A8,8,0,0,1,14,21.65l-.19-.18a8,8,0,0,1,.11-15.36A42.33,42.33,0,0,1,25.34,4.52a46.7,46.7,0,0,1,24,7c.23,0,.47,0,.7,0a7.79,7.79,0,0,1,1.44.13A31.56,31.56,0,0,1,70.25,23c3-1.24,6.1-2.38,9.28-3.41a87.75,87.75,0,0,1,24.2-3.15,93.08,93.08,0,0,1,31.2,5.26l.14.05.35.13c.79.29,1.57.58,2.35.89A31.66,31.66,0,0,1,157,10.9a7.79,7.79,0,0,1,1.44-.13c.24,0,.47,0,.71,0a46.76,46.76,0,0,1,24-7,42.21,42.21,0,0,1,11.46,1.6,8,8,0,0,1,.1,15.37l-.17.16a8,8,0,0,1-3.26,10.74,10,10,0,0,0-1.81,3.27c-.17,1.29-.37,2.6-.61,3.9a8.44,8.44,0,0,1,.77,3.7c0,.22,0,.43,0,.65a8,8,0,0,1,.65,9.7h0q-.24.33-.51.66a30.74,30.74,0,0,1-5.26,5c-.59.87-1.2,1.67-1.79,2.39A76.34,76.34,0,0,1,193,92.15a8,8,0,0,1-1.48,5.43,49.9,49.9,0,0,1-8.93,33.18c4.06,3.86,8.11,9.28,9.16,16.12a7.76,7.76,0,0,1,.28,1.54v.16A22.85,22.85,0,0,1,198.73,163c0,.17.05.35.07.52,0,.38.07.75.1,1.11a25.82,25.82,0,0,1,4.38,13.75v0a23.16,23.16,0,0,1,.18,3.16c1.08,13.42,1.12,38.46-10.07,58.89-2.13,5.17-7.65,15.93-16.89,16-2,2.67-4.24,5.28-6.57,7.78a6.77,6.77,0,0,1-.61.59c-1.39,1.21-5.1,4-9.66,4a10.51,10.51,0,0,1-1.12-.06,28.48,28.48,0,0,1-2.47,2.28,19,19,0,0,1-4.45,7.07,13.2,13.2,0,0,1-5.47,7.31,8,8,0,0,1-4.14,1.16,7.8,7.8,0,0,1-2.29-.34,11.21,11.21,0,0,1-2.38-1,11.78,11.78,0,0,1-2.16,1.71A8,8,0,0,1,131,288.13Z"/>
    <g>
      <g>
        <g>
          <g>
            <path class="cls-2" d="M172.31,59.8s9-6,9.26-17.46c0,0-1.48,3.92-4.63,4.24,0,0,3-.25,4.63-13.41,0,0,1.83-6.46,5.82-8.54,0,0-1.71-1.08-6,2.4a27.63,27.63,0,0,1,9.85-13.78l-15.8.81L156,34.5l.39,8.15S169.19,52.65,172.31,59.8Z"/>
            <path class="cls-3" d="M164.77,50.42s9.4-4,13.57-20.72l-3.22,3.4s3.7-16.3,14.33-19.49L174.83,15,161.68,29.7l-3.3,14.57Z"/>
          </g>
          <g>
            <path class="cls-4" d="M140.7,33.1s5.12-12,17.68-14.33c0,0-3.67,3-4.24,6,0,0,16.33-17.84,38.25-11.67,0,0-17.21,1.8-27.62,16.42,0,0,4.65-1.52,6.27.09,0,0-6,1.93-7.46,6.83,0,0,3-1.86,4.8-.75,0,0-6.36,5.22-6,11.95C162.4,47.62,148.48,36,140.7,33.1Z"/>
            <path class="cls-5" d="M145,35.76s.76-7.59,6.27-8.26V34S162,14.31,189.45,13.08c0,0-23,8.64-24.68,16.42,0,0,5.51-1.24,6.27.09,0,0-6.48,2.09-7.46,6.83,0,0,3.66-1.42,4.8-.75,0,0-6.74,5.22-6,11.95C162.4,47.62,150.06,36.8,145,35.76Z"/>
          </g>
        </g>
        <g>
          <g>
            <path class="cls-2" d="M36.12,60.54s-9-6-9.26-17.47c0,0,1.48,3.93,4.63,4.24,0,0-3-.25-4.63-13.41,0,0-1.83-6.45-5.82-8.54,0,0,1.71-1.08,6,2.4A27.63,27.63,0,0,0,17.2,14l15.8.8L52.48,35.23l-.39,8.16S39.24,53.39,36.12,60.54Z"/>
            <path class="cls-3" d="M43.66,51.16s-9.4-4-13.57-20.72l3.22,3.4S29.61,17.53,19,14.35L33.6,15.71,46.75,30.44,50.05,45Z"/>
          </g>
          <g>
            <path class="cls-4" d="M67.73,33.84S62.61,21.79,50.05,19.51c0,0,3.67,3,4.24,6,0,0-16.33-17.84-38.25-11.68,0,0,17.21,1.81,27.62,16.42,0,0-4.65-1.52-6.27.1,0,0,6,1.93,7.46,6.83,0,0-3-1.87-4.8-.76,0,0,6.36,5.22,6,12C46,48.36,60,36.68,67.73,33.84Z"/>
            <path class="cls-5" d="M63.4,36.49s-.76-7.59-6.27-8.25v6.45S46.41,15.05,19,13.81c0,0,23,8.64,24.68,16.42,0,0-5.51-1.23-6.27.1,0,0,6.47,2.08,7.46,6.83,0,0-3.66-1.42-4.8-.76,0,0,6.74,5.22,6,12C46,48.36,58.37,37.54,63.4,36.49Z"/>
          </g>
        </g>
      </g>
      <g>
        <g>
          <path class="cls-6" d="M55.61,254l39.84,6.86s.63,3.9,18.19,3.41l37.81-7.2L164.08,182l-17.85-28.09L51.3,158.53,33.72,175.39Z"/>
          <path class="cls-7" d="M111.5,264.34s-11.73,1.88-8.7-8.74"/>
        </g>
        <path class="cls-8" d="M61.71,173s5.52,8.9,10.73,8.49c0,0-1.29-2.71-1-3.72,0,0,5.12,11.55,14.61,12.24a7.58,7.58,0,0,1-2.47-5,23,23,0,0,0,9.49,7.1s9.3,2.82,9.49,7.22c0,0,2.19-1.64-.74-5.49,0,0,3.87,1.28,2.93,7.76,0,0,7.59-1.22,12.62-10.32,0,0,1.52.61-1,4,0,0,5.22.39,10.53-9a4.82,4.82,0,0,1-.57,3.49s6.88-5.35,7.5-9.22a9.63,9.63,0,0,1-1.23,5.11s8.25-10,12.62,4.11c0,0,8.86,30.43-9.11,48.53,0,0-9.24,11-28.85-1.27,0,0-3.89-3.54-10.3.51,0,0-21.65,13.79-35.35-16.33C61.71,221.19,52.63,201.27,61.71,173Z"/>
      </g>
      <g>
        <path class="cls-9" d="M99.51,117.79,55.63,140s-.75,26.76,7.32,31.32c0,0-1.48-4.61-1.24-6.69,0,0-.14,6.64,10.11,12.19a6.87,6.87,0,0,1,.19-6.5S71,180.43,85.34,184.94a7.65,7.65,0,0,1-1.94-7.43s1,6.43,11.07,10.41c0,0,7,2.4,8.27,5.75,0,0,.13-5.81-4.49-7.71,0,0,6.64.69,7,9.58,0,0,.31.35,1.45-.79,0,0,4,1.52,8.1-5,0,0,2.85-6.1,3.92-6.28,0,0,1.52,2.93-1.14,6.28,0,0,3.8-.63,6.33-5.5,0,0,2.91-3.51,4-3l-1,2.39s4.93-1.9,7.65-10.38a8.42,8.42,0,0,1-1.14,6.08s7.6-4.69,8.92-12.18a13.29,13.29,0,0,1,0,5.13s4.17-1.94,5.79-14l-5.6-21Z"/>
        <g>
          <path class="cls-10" d="M100.84,132.64s2.47,8.62,6.58,0c0,0,8.67,12.64,27.52,14,0,0,12.28,6.77-4.55,25.05l3.81-.28s-7.1,5-12.8,6.68c0,0-8.09,3.7-8.22,8.49l-.13-4.29s-3.1.1-5.5,5.16c0,0-1.68-7.63-8.91-10.32a8.29,8.29,0,0,1,2.27,5.4,29.49,29.49,0,0,0-13.39-5.71,46.92,46.92,0,0,1-13.28-6.15h3s-15-5.1-8.64-23.43A45.6,45.6,0,0,0,100.84,132.64Z"/>
          <g>
            <g>
              <path class="cls-11" d="M68.73,152.91a18.67,18.67,0,0,0,5.73,11.28s4.87,9.07,10.44,9.82c0,0-8.1-7.42-8.76-12.64C76.14,161.37,71.42,161.12,68.73,152.91Z"/>
              <path class="cls-11" d="M97.06,166A8.8,8.8,0,0,1,96,161.85s-1.87.14-4.08-8.17C91.87,153.68,92.22,163.83,97.06,166Z"/>
              <path class="cls-11" d="M108.83,174s.47,6-1,7.28A7.93,7.93,0,0,0,113,173s5.13-5.45,1-15.88c0,0,.33,12.1-1.9,14.14l-.34,0s-.31,4.87-2.2,7.6Z"/>
              <path class="cls-11" d="M129.77,166s.55,2.66-.68,3.56c0,0,8.21-6.64,7.12-17.74C136.21,151.78,134.4,162.4,129.77,166Z"/>
            </g>
            <g>
              <path class="cls-12" d="M91.6,152.59s1.67,7.68,4.44,9.81c0,0-1.87-9.69,1-17.44"/>
              <path class="cls-12" d="M68.73,151s.67,8.42,7.41,10.35"/>
              <path class="cls-12" d="M74.14,152.59s1,13,8.07,18c0,0-3.42-3.18-2-10.61"/>
              <path class="cls-12" d="M107.36,164.93a82.28,82.28,0,0,1,2.23,13.56s2.32-3.42,1.94-11.58"/>
              <path class="cls-12" d="M113.72,156.49s1,10.9-1.71,14.6"/>
              <path class="cls-12" d="M130.42,157.14s1.9,6.35-2.18,10.2c0,0,6.83-4.57,8-17.68"/>
            </g>
          </g>
        </g>
      </g>
      <g>
        <g>
          <g>
            <g>
              <path class="cls-13" d="M12.75,176.45s-5.37,35,8.75,60.31c0,0,6.44,16.25,12.74,10L25.55,215Z"/>
              <path class="cls-5" d="M18,206.94s-1.28,15.24,13.61,41.24a2.3,2.3,0,0,0,2.61-1.85l-13.9-37.52Z"/>
            </g>
            <g>
              <path class="cls-13" d="M20.92,208.48s-.76,24.86,22.66,50c0,0,6.4,5.57,7.31-1.64L33.1,204.43Z"/>
              <path class="cls-5" d="M50.89,258.39s-1.94,4-5.86.38c0,0-15.49-30.07-14.06-48.72l4.63,2.28S44.63,243,50.89,258.39Z"/>
            </g>
            <g>
              <path class="cls-13" d="M35,204.06s-.55,28.28,12.23,47.76c0,0,10.47,20.85,17.25,12.83l-1.81-9.82S54.48,239,51.88,197.35L37,195.25Z"/>
              <path class="cls-5" d="M45,202.14s1.9,40.9,18.38,61.61l1.1-4.34-2.08-5s-6.19-13.46-10.55-56.1l-5-3Z"/>
            </g>
          </g>
          <g>
            <path class="cls-14" d="M37.8,131S22,139.39,23.85,152.11c0,0-7.86,3.7-7,14.8,0,0-9.45,9.59-1,22.35,0,0-4,7.07,1,17.26,0,0,2.6,5.7,8.67,3.85,0,0,3-2.37,2.9-5.21,0,0,1.09,8.58,7.59,8.63,0,0,5.7.44,7.26-8.91,0,0,6.61,1.41,8.86-9.5a23,23,0,0,0,0-10.36s5.82-1.72,5.52-15.61c0,0,3.75-3.15,3.75-12.06,0,0,4.55-8.34,2.59-16.82Z"/>
            <g class="cls-15">
              <g>
                <path class="cls-16" d="M23.65,148.82s.19,9,6.64,3.54C30.29,152.36,22.51,162.1,23.65,148.82Z"/>
                <path class="cls-16" d="M30.29,146.92s3,7,8.42.88C38.71,147.8,32.32,157.42,30.29,146.92Z"/>
                <path class="cls-16" d="M39,148.09s1.71,1.71,4.35-.66C43.37,147.43,39.88,152.08,39,148.09Z"/>
                <path class="cls-16" d="M36,154.16s3.08,4.89,8.25-1.18C44.24,153,39.36,162.18,36,154.16Z"/>
                <path class="cls-16" d="M49.7,154.59s1.76,4.65,5.93,1.47C55.63,156.06,50.65,161.66,49.7,154.59Z"/>
                <path class="cls-16" d="M53.26,160.66s4.08,2.47,7.59-2.75C60.85,157.91,59.05,165.12,53.26,160.66Z"/>
                <path class="cls-16" d="M40.11,160.47s4.42,9.26,12.15.72C52.26,161.19,44.15,174.85,40.11,160.47Z"/>
                <path class="cls-16" d="M46.19,170.2s6,6,12.1-2.8l1.61-2.47s-1.52,7.31-7.64,9.49C52.26,174.42,47.14,174.9,46.19,170.2Z"/>
                <path class="cls-16" d="M30.61,171.72s5.82,11.77,13.63-1.84c0,0-2.05,11.27-11.1,7.47A11.91,11.91,0,0,1,30.61,171.72Z"/>
                <path class="cls-16" d="M24.69,160s2.95,9.75,10.49,3.06l2.25-1.94s-2.34,5.6-8.32,6.17A6.47,6.47,0,0,1,24.69,160Z"/>
                <path class="cls-16" d="M16.82,164.08s-.21,10.82,5.56,11.77c0,0,4.64,1.22,7.34-4.13,0,0,.05,4.22-6.45,6.93C23.27,178.65,15.2,179.69,16.82,164.08Z"/>
                <path class="cls-16" d="M24.17,182.49s5.89,8.83,12.62,0c0,0-4.69,10.34-11.48,3.23A6.26,6.26,0,0,1,24.17,182.49Z"/>
                <path class="cls-16" d="M41.44,180.69s8.12,11.77,15-2.23c0,0-1.57,10-9.35,9.44C47,187.9,41.78,186.19,41.44,180.69Z"/>
                <path class="cls-16" d="M12.31,179.17s1.38,12.1,9.2,11.1c0,0,3.52-.09,4.61-1.18,0,0-3.53,7.16-9.52,3.37A16.51,16.51,0,0,1,12.31,179.17Z"/>
                <path class="cls-16" d="M29.34,192.5s8.31,8.78,14.24-2.75c0,0-1.85,9.25-9.49,8.49C34.09,198.24,30.34,196.16,29.34,192.5Z"/>
                <path class="cls-16" d="M19.76,197.72s5.22,8.64,12.76,3.09c0,0-3.7,7.54-9.82,2.08C22.7,202.89,20,199.62,19.76,197.72Z"/>
                <path class="cls-16" d="M14.3,196.58s1.81,17.37,13.34,11c0,0,.09,5.7-7.07,4.6C20.57,212.19,13.31,209.39,14.3,196.58Z"/>
                <path class="cls-16" d="M28.14,208.48s6.8,9.55,13.76,1c0,0-1.61,8.06-9.38,5.66A13.29,13.29,0,0,1,28.14,208.48Z"/>
                <path class="cls-16" d="M37.35,201s7.84,9.81,13.95-4.74a12.27,12.27,0,0,1-4.84,9.46S41,209,37.35,201Z"/>
              </g>
            </g>
            <g>
              <path class="cls-17" d="M24,147.41s-1.51,12,6.85,3.38"/>
              <path class="cls-17" d="M30.87,145s0,6.49,5,4.91a9.39,9.39,0,0,0,3.43-3.46s1.1,3.87,5-.83"/>
              <path class="cls-17" d="M36,150.85s.51,6.25,5.71,4.44A9.47,9.47,0,0,0,45,150.65"/>
              <path class="cls-17" d="M49.85,152.34s.85,7.57,6.74,2.08"/>
              <path class="cls-17" d="M53.24,158.51s5,4.75,8.47-1.66"/>
              <path class="cls-17" d="M40.49,158.23s1.34,10.11,8,6.21a14.32,14.32,0,0,0,4.7-5.36"/>
              <path class="cls-17" d="M24.92,156.6s-1,8.19,5.22,9c0,0,5.47.07,8.23-6.7"/>
              <path class="cls-17" d="M17,163.87s-1.26,10.95,5.22,12.83c0,0,5,1.47,8.42-6.41"/>
              <path class="cls-17" d="M30.74,168.78s1,8.73,6.63,7.56c0,0,5.41.76,7.66-8.26"/>
              <path class="cls-17" d="M46.34,166.91s.35,6.55,6.88,5.76c0,0,3.46-1.68,4.76-3.67"/>
              <path class="cls-17" d="M41.43,177.51s.32,7.56,7.22,8.92c0,0,3.15-.36,4.43-2"/>
              <path class="cls-17" d="M23.94,177.51s-.63,8.22,6.8,8.92c0,0,5.52.74,7.26-8.65"/>
              <path class="cls-17" d="M12.55,178.2a17.57,17.57,0,0,0,5.08,13.05s6.41,3.05,9.73-4.81"/>
              <path class="cls-17" d="M28.72,186.43S29,195,35.6,196.57c0,0,6.32,1.46,9.43-10.61"/>
              <path class="cls-17" d="M19.34,192.63s.28,8.21,7.38,10.49c0,0,4.34.75,7.76-5.84"/>
              <path class="cls-17" d="M36.88,197.28s2.67,9.61,9.74,7.15c0,0,5-3.16,5.51-8.67"/>
            </g>
            <g>
              <path class="cls-18" d="M24.23,146.86s.19,9,6.64,3.54C30.87,150.4,23.09,160.14,24.23,146.86Z"/>
              <path class="cls-18" d="M30.87,145s3,7,8.41.88C39.28,145.84,32.89,155.46,30.87,145Z"/>
              <path class="cls-18" d="M39.6,146.13s1.71,1.71,4.34-.67C43.94,145.46,40.45,150.11,39.6,146.13Z"/>
              <path class="cls-18" d="M36.56,152.2s3.09,4.89,8.26-1.18C44.82,151,39.93,160.22,36.56,152.2Z"/>
              <path class="cls-18" d="M50.28,152.63s1.75,4.65,5.93,1.47C56.21,154.1,51.23,159.7,50.28,152.63Z"/>
              <path class="cls-18" d="M53.83,158.7s4.09,2.47,7.6-2.75C61.43,156,59.62,163.16,53.83,158.7Z"/>
              <path class="cls-18" d="M40.69,158.51s4.41,9.26,12.15.71C52.84,159.22,44.72,172.89,40.69,158.51Z"/>
              <path class="cls-18" d="M46.76,168.24s6,6,12.1-2.8L60.48,163s-1.52,7.31-7.64,9.49C52.84,172.46,47.71,172.94,46.76,168.24Z"/>
              <path class="cls-18" d="M31.19,169.76s5.82,11.77,13.63-1.84c0,0-2.06,11.27-11.1,7.47A11.91,11.91,0,0,1,31.19,169.76Z"/>
              <path class="cls-18" d="M25.27,158.05s2.94,9.76,10.49,3.07L38,159.18s-2.34,5.6-8.32,6.17A6.48,6.48,0,0,1,25.27,158.05Z"/>
              <path class="cls-18" d="M17.39,162.12s-.2,10.82,5.57,11.77c0,0,4.63,1.22,7.34-4.13,0,0,.05,4.22-6.45,6.93C23.85,176.69,15.78,177.73,17.39,162.12Z"/>
              <path class="cls-18" d="M24.75,180.53s5.88,8.83,12.62,0c0,0-4.7,10.34-11.48,3.23A6.15,6.15,0,0,1,24.75,180.53Z"/>
              <path class="cls-18" d="M42,178.73S50.13,190.49,57,176.5c0,0-1.57,10-9.35,9.44C47.62,185.94,42.35,184.23,42,178.73Z"/>
              <path class="cls-18" d="M12.89,177.21s1.37,12.1,9.2,11.1c0,0,3.51-.09,4.6-1.18,0,0-3.52,7.16-9.51,3.36A16.44,16.44,0,0,1,12.89,177.21Z"/>
              <path class="cls-18" d="M29.92,190.54s8.3,8.78,14.24-2.75c0,0-1.86,9.25-9.49,8.49C34.67,196.28,30.92,194.2,29.92,190.54Z"/>
              <path class="cls-18" d="M20.34,195.76s5.21,8.64,12.76,3.09c0,0-3.7,7.54-9.82,2.08C23.28,200.93,20.53,197.66,20.34,195.76Z"/>
              <path class="cls-18" d="M14.88,194.62s1.8,17.37,13.33,11c0,0,.1,5.69-7.07,4.6C21.14,210.23,13.88,207.43,14.88,194.62Z"/>
              <path class="cls-18" d="M28.72,206.52s6.8,9.55,13.76.95c0,0-1.61,8.06-9.38,5.66A13.29,13.29,0,0,1,28.72,206.52Z"/>
              <path class="cls-18" d="M37.92,199.05s7.85,9.81,13.95-4.74A12.2,12.2,0,0,1,47,203.76S41.53,207.05,37.92,199.05Z"/>
            </g>
          </g>
        </g>
        <path class="cls-19" d="M34,134l10.85,9.62s-2.15-3.52-1.87-5.32c0,0,8,10.31,21.3,8.67v-6.71L41.19,129.52A17.39,17.39,0,0,0,34,134Z"/>
      </g>
      <g>
        <g>
          <g>
            <g>
              <path class="cls-13" d="M194.91,176.73s5.37,35-8.75,60.31c0,0-6.44,16.25-12.74,10l8.68-31.76Z"/>
              <path class="cls-5" d="M189.64,207.22s1.28,15.25-13.62,41.25a2.3,2.3,0,0,1-2.6-1.85l13.9-37.52Z"/>
            </g>
            <g>
              <path class="cls-13" d="M186.74,208.76s.76,24.87-22.66,50.05c0,0-6.4,5.56-7.31-1.65l17.79-52.44Z"/>
              <path class="cls-5" d="M156.77,258.68s1.94,4,5.86.38c0,0,15.49-30.08,14.06-48.73l-4.63,2.29S163,243.3,156.77,258.68Z"/>
            </g>
            <g>
              <path class="cls-13" d="M172.63,204.35s.55,28.27-12.23,47.76c0,0-10.47,20.84-17.26,12.83l1.82-9.82s8.22-15.79,10.82-57.48l14.84-2.1Z"/>
              <path class="cls-5" d="M162.63,202.42s-1.9,40.91-18.38,61.62l-1.1-4.35,2.08-5s6.19-13.47,10.55-56.11l5-3Z"/>
            </g>
          </g>
          <g>
            <path class="cls-14" d="M169.86,131.28s15.84,8.39,13.95,21.11c0,0,7.86,3.7,7,14.81,0,0,9.45,9.58,1,22.34,0,0,4,7.07-1,17.26,0,0-2.6,5.7-8.68,3.86,0,0-3-2.37-2.89-5.22,0,0-1.09,8.59-7.59,8.64,0,0-5.7.43-7.26-8.92,0,0-6.61,1.42-8.86-9.49a23,23,0,0,1,0-10.37s-5.82-1.72-5.52-15.61c0,0-3.75-3.15-3.75-12.06,0,0-4.55-8.34-2.59-16.82Z"/>
            <g class="cls-15">
              <g>
                <path class="cls-16" d="M184,149.1s-.19,9-6.64,3.54C177.37,152.64,185.15,162.39,184,149.1Z"/>
                <path class="cls-16" d="M177.37,147.2s-3,7-8.42.89C169,148.09,175.34,157.71,177.37,147.2Z"/>
                <path class="cls-16" d="M168.64,148.37s-1.71,1.71-4.35-.66C164.29,147.71,167.78,152.36,168.64,148.37Z"/>
                <path class="cls-16" d="M171.67,154.45s-3.08,4.88-8.25-1.19C163.42,153.26,168.3,162.47,171.67,154.45Z"/>
                <path class="cls-16" d="M158,154.87s-1.76,4.65-5.93,1.47C152,156.34,157,161.94,158,154.87Z"/>
                <path class="cls-16" d="M154.4,161s-4.08,2.46-7.59-2.75C146.81,158.2,148.61,165.41,154.4,161Z"/>
                <path class="cls-16" d="M167.54,160.76s-4.41,9.25-12.14.71C155.4,161.47,163.51,175.14,167.54,160.76Z"/>
                <path class="cls-16" d="M161.47,170.48s-6,6-12.1-2.79l-1.61-2.47s1.52,7.31,7.64,9.49C155.4,174.71,160.52,175.18,161.47,170.48Z"/>
                <path class="cls-16" d="M177.05,172s-5.82,11.77-13.63-1.83c0,0,2.05,11.26,11.1,7.46A11.91,11.91,0,0,0,177.05,172Z"/>
                <path class="cls-16" d="M183,160.3s-2.95,9.76-10.49,3.07l-2.25-2s2.34,5.6,8.32,6.17A6.47,6.47,0,0,0,183,160.3Z"/>
                <path class="cls-16" d="M190.84,164.36s.21,10.82-5.57,11.77c0,0-4.63,1.23-7.33-4.13,0,0-.05,4.23,6.45,6.93C184.39,178.93,192.46,180,190.84,164.36Z"/>
                <path class="cls-16" d="M183.49,182.77s-5.89,8.83-12.62,0c0,0,4.69,10.35,11.48,3.23A6.26,6.26,0,0,0,183.49,182.77Z"/>
                <path class="cls-16" d="M166.22,181s-8.12,11.77-14.95-2.23c0,0,1.57,10,9.35,9.44C160.62,188.18,165.88,186.48,166.22,181Z"/>
                <path class="cls-16" d="M195.35,179.45s-1.38,12.1-9.21,11.11c0,0-3.51-.1-4.6-1.19,0,0,3.53,7.16,9.52,3.37A16.51,16.51,0,0,0,195.35,179.45Z"/>
                <path class="cls-16" d="M178.32,192.79S170,201.56,164.08,190c0,0,1.85,9.26,9.49,8.5C173.57,198.53,177.32,196.44,178.32,192.79Z"/>
                <path class="cls-16" d="M187.9,198s-5.22,8.63-12.76,3.08c0,0,3.7,7.54,9.82,2.09C185,203.18,187.71,199.9,187.9,198Z"/>
                <path class="cls-16" d="M193.36,196.87s-1.81,17.36-13.34,11c0,0-.09,5.69,7.07,4.6C187.09,212.48,194.35,209.68,193.36,196.87Z"/>
                <path class="cls-16" d="M179.52,208.76s-6.8,9.55-13.76,1c0,0,1.61,8.07,9.38,5.66A13.29,13.29,0,0,0,179.52,208.76Z"/>
                <path class="cls-16" d="M170.31,201.3s-7.84,9.8-13.95-4.75A12.27,12.27,0,0,0,161.2,206S166.71,209.3,170.31,201.3Z"/>
              </g>
            </g>
            <g>
              <path class="cls-17" d="M183.7,147.7s1.5,12-6.85,3.38"/>
              <path class="cls-17" d="M176.79,145.24s0,6.49-5,4.91a9.42,9.42,0,0,1-3.43-3.45s-1.1,3.86-5-.83"/>
              <path class="cls-17" d="M171.71,151.13s-.51,6.26-5.71,4.45a9.47,9.47,0,0,1-3.37-4.65"/>
              <path class="cls-17" d="M157.81,152.63s-.85,7.56-6.74,2.07"/>
              <path class="cls-17" d="M154.42,158.8s-5,4.74-8.47-1.66"/>
              <path class="cls-17" d="M167.17,158.51s-1.34,10.11-8,6.22a14.42,14.42,0,0,1-4.7-5.36"/>
              <path class="cls-17" d="M182.74,156.88s1,8.2-5.22,9c0,0-5.47.06-8.23-6.71"/>
              <path class="cls-17" d="M190.68,164.16s1.26,10.94-5.22,12.82c0,0-5,1.47-8.42-6.41"/>
              <path class="cls-17" d="M176.92,169.06s-1,8.73-6.63,7.56c0,0-5.41.76-7.66-8.25"/>
              <path class="cls-17" d="M161.32,167.2s-.35,6.54-6.88,5.75c0,0-3.46-1.67-4.76-3.67"/>
              <path class="cls-17" d="M166.22,177.79s-.31,7.56-7.21,8.92c0,0-3.15-.36-4.43-2"/>
              <path class="cls-17" d="M183.72,177.79s.63,8.23-6.8,8.92c0,0-5.52.75-7.26-8.65"/>
              <path class="cls-17" d="M195.11,178.49a17.58,17.58,0,0,1-5.08,13s-6.41,3.05-9.73-4.81"/>
              <path class="cls-17" d="M178.94,186.71s-.27,8.53-6.88,10.14c0,0-6.33,1.46-9.43-10.61"/>
              <path class="cls-17" d="M188.32,192.91s-.28,8.21-7.38,10.49c0,0-4.34.76-7.76-5.84"/>
              <path class="cls-17" d="M170.78,197.56s-2.67,9.61-9.74,7.16c0,0-5-3.17-5.51-8.68"/>
            </g>
            <g>
              <path class="cls-18" d="M183.43,147.14s-.19,9-6.64,3.54C176.79,150.68,184.57,160.43,183.43,147.14Z"/>
              <path class="cls-18" d="M176.79,145.24s-3,7-8.41.89C168.38,146.13,174.77,155.74,176.79,145.24Z"/>
              <path class="cls-18" d="M168.06,146.41s-1.71,1.71-4.34-.66C163.72,145.75,167.21,150.4,168.06,146.41Z"/>
              <path class="cls-18" d="M171.1,152.49s-3.09,4.88-8.26-1.19C162.84,151.3,167.73,160.51,171.1,152.49Z"/>
              <path class="cls-18" d="M157.38,152.91s-1.75,4.65-5.93,1.47C151.45,154.38,156.43,160,157.38,152.91Z"/>
              <path class="cls-18" d="M153.82,159s-4.08,2.46-7.59-2.76C146.23,156.23,148,163.45,153.82,159Z"/>
              <path class="cls-18" d="M167,158.8s-4.41,9.25-12.15.71C154.82,159.51,162.93,173.17,167,158.8Z"/>
              <path class="cls-18" d="M160.89,168.52s-6,6-12.1-2.8l-1.61-2.46s1.52,7.3,7.64,9.49C154.82,172.75,160,173.22,160.89,168.52Z"/>
              <path class="cls-18" d="M176.47,170s-5.82,11.77-13.63-1.83c0,0,2.06,11.26,11.1,7.46A11.91,11.91,0,0,0,176.47,170Z"/>
              <path class="cls-18" d="M182.39,158.34s-2.94,9.76-10.49,3.07l-2.24-1.95s2.34,5.6,8.32,6.17A6.46,6.46,0,0,0,182.39,158.34Z"/>
              <path class="cls-18" d="M190.27,162.4s.2,10.82-5.57,11.77c0,0-4.63,1.23-7.34-4.13,0,0-.05,4.23,6.45,6.93C183.81,177,191.88,178,190.27,162.4Z"/>
              <path class="cls-18" d="M182.91,180.81s-5.88,8.83-12.62,0c0,0,4.7,10.35,11.48,3.23A6.15,6.15,0,0,0,182.91,180.81Z"/>
              <path class="cls-18" d="M165.64,179s-8.11,11.77-14.95-2.23c0,0,1.57,10,9.35,9.44C160,186.22,165.31,184.51,165.64,179Z"/>
              <path class="cls-18" d="M194.77,177.49s-1.37,12.1-9.2,11.11c0,0-3.51-.1-4.6-1.19,0,0,3.52,7.16,9.51,3.37A16.48,16.48,0,0,0,194.77,177.49Z"/>
              <path class="cls-18" d="M177.74,190.83s-8.3,8.77-14.24-2.76c0,0,1.85,9.26,9.49,8.5C173,196.57,176.74,194.48,177.74,190.83Z"/>
              <path class="cls-18" d="M187.32,196s-5.22,8.64-12.76,3.09c0,0,3.7,7.54,9.82,2.09C184.38,201.22,187.13,197.94,187.32,196Z"/>
              <path class="cls-18" d="M192.78,194.91s-1.8,17.36-13.33,11c0,0-.1,5.7,7.07,4.61C186.52,210.52,193.78,207.72,192.78,194.91Z"/>
              <path class="cls-18" d="M178.94,206.8s-6.8,9.55-13.76.95c0,0,1.61,8.07,9.38,5.66A13.29,13.29,0,0,0,178.94,206.8Z"/>
              <path class="cls-18" d="M169.74,199.33s-7.85,9.81-14-4.74a12.23,12.23,0,0,0,4.84,9.46S166.13,207.34,169.74,199.33Z"/>
            </g>
          </g>
        </g>
        <path class="cls-19" d="M173.69,134.23l-10.85,9.62s2.15-3.51,1.87-5.31c0,0-8,10.31-21.3,8.66v-6.7l23.06-10.69A17.43,17.43,0,0,1,173.69,134.23Z"/>
      </g>
      <path class="cls-20" d="M23,92.89s1.59-47.07,59-65.67c0,0,53.73-16.83,90.32,32.58A68.2,68.2,0,0,1,185,92.89l-3.55-4.31s11.26,28.91-17.14,49l.9-4.65s-10,12.48-31,9.21a42,42,0,0,1-28.69-15.9l-1.92-2.58s-9.71,20.7-39.47,19.14c0,0-13.08.34-21.65-9.54a7.1,7.1,0,0,0,2,4.77s-17.12-7.32-19.9-30.21c0,0-1.9-10.79,1.58-19.24A6.84,6.84,0,0,0,23,92.89Z"/>
      <path class="cls-21" d="M23.44,88.73S45.36,5.84,132.49,29.35C132.49,29.35,62.69,5.33,23.44,88.73Z"/>
      <path class="cls-22" d="M24.54,106.56s4.87,17,14.24,21.25l-2.9-4.3S78.13,148.31,95,107.44L74.78,58l-6.41-4.75s25.38,4.5,33.29,30.43c0,0,2.23,6.28,5.13-.07,0,0,7.36-26.59,33.91-30.66l-9.43,7.86,27.51-8.7s-4.94-12.46-10.86-14.82c0,0,32.51,16.93,36.69,54.88l-3.23-3.72s11,28.64-17.08,49.14l1-4.92s-18,20.48-49.58,2.76c0,0-13.82-9-10.91-13.53A46.09,46.09,0,0,1,82,140.34s-27.21,8.26-39.58-7.7c0,0,.28,4.16,1.74,5C44.15,137.68,27.51,130.34,24.54,106.56Z"/>
      <g>
        <g>
          <g>
            <path class="cls-23" d="M70.73,57.71,49.28,55.06s-4.75,1.86-4.84,6.42c0,0-10.44,4.81-4.65,17.07,0,0-9.77,9.12-.1,18.52,0,0-1.8,13.66,13.67,14.8,0,0,2.75,9.87,17.27,4.84,0,0,11.77,5.6,17.65-6,0,0,11.49-4,8.78-17.27,0,0,4.72-5.06-2.13-11.2S70.73,57.71,70.73,57.71Z"/>
            <g>
              <path class="cls-24" d="M44.16,60.78S43.87,65,49,69"/>
              <path class="cls-24" d="M44,61.29s-11.56,8-3.31,18.31A7.34,7.34,0,0,0,46.05,82"/>
              <path class="cls-24" d="M39.84,79s-9.64,8.76-.15,18.11c0,0,5.65,3.22,10.63,0"/>
              <path class="cls-24" d="M39.86,97.34s-2.49,10.64,9.61,14c0,0,6.45,1.28,10-3"/>
              <path class="cls-24" d="M53.26,111.58s5.7,12.67,18.46,4.13c0,0,3-2.7,3.51-5.83"/>
              <path class="cls-24" d="M70.67,116.59s10.94,6,17.57-6.19a18.76,18.76,0,0,0,.94-6.88"/>
              <path class="cls-24" d="M88.19,110.67s11.33-2.25,9.11-16.83c0,0-1-2.44-2.35-3.06"/>
              <path class="cls-24" d="M97.42,93.7s4-2.9-2.4-8.31"/>
            </g>
            <g>
              <path class="cls-25" d="M43.87,61.86a13,13,0,0,0,.85,2.75S36.18,70.37,43.52,81c0,0-7.4-2.43-4.74-12.49A15.22,15.22,0,0,1,43.87,61.86Z"/>
              <path class="cls-25" d="M41.89,81.09A5.21,5.21,0,0,1,40,79.31s-8.71,8-.69,16.52c0,0,3.3,3.77,9.68,1.52,0,0-8.78,2.07-9.79-5.21C39.16,92.14,37,85.8,41.89,81.09Z"/>
              <path class="cls-25" d="M40.22,97.78l2.68.72s-1.45,12.56,13.26,11.8a11.74,11.74,0,0,1-8.68,0S38.37,106.6,40.22,97.78Z"/>
              <path class="cls-25" d="M53.72,111.71s1.25-.28,2.84-.77c0,0,3.9,12.84,17,1.93a10.79,10.79,0,0,1-6.69,5S58.76,121.28,53.72,111.71Z"/>
              <path class="cls-25" d="M71.27,116.51A9,9,0,0,0,73,114.86s12.34,5.55,15.82-9.89c0,0,.44,7.23-6,11A12,12,0,0,1,71.27,116.51Z"/>
              <path class="cls-25" d="M88.7,110.17s12.58-3.93,7.37-18c0,0,2.8,11-6.86,16.36Z"/>
            </g>
          </g>
          <g>
            <circle class="cls-26" cx="71.26" cy="83.29" r="24.15"/>
            <g>
              <g>
                <circle class="cls-27" cx="71.14" cy="83.65" r="21.32"/>
                <circle class="cls-28" cx="71.14" cy="83.58" r="18.51"/>
                <path class="cls-29" d="M87.61,92a18.79,18.79,0,0,0,.32-3.46,18.5,18.5,0,0,0-35-8.44A18.5,18.5,0,1,1,87.61,92Z"/>
              </g>
              <g>
                <circle class="cls-30" cx="71.47" cy="83.58" r="10.52"/>
                <circle class="cls-31" cx="67.14" cy="77.94" r="3.02"/>
                <circle class="cls-31" cx="71.26" cy="83.62" r="1.36"/>
                <path class="cls-32" d="M69.9,91.85A12,12,0,0,0,79.65,85S78.76,93.84,69.9,91.85Z"/>
              </g>
            </g>
          </g>
          <g>
            <path class="cls-23" d="M137,57.45l21.45-2.66s4.74,1.87,4.84,6.42c0,0,10.44,4.81,4.65,17.07,0,0,9.77,9.12.09,18.52,0,0,1.81,13.66-13.66,14.8,0,0-2.75,9.87-17.27,4.84,0,0-11.77,5.6-17.65-6,0,0-11.49-4-8.78-17.27,0,0-4.72-5,2.13-11.2S137,57.45,137,57.45Z"/>
            <g>
              <path class="cls-24" d="M163.57,60.52s.29,4.23-4.8,8.19"/>
              <path class="cls-24" d="M163.73,61s11.56,8,3.31,18.32a7.34,7.34,0,0,1-5.36,2.42"/>
              <path class="cls-24" d="M167.89,78.69s9.63,8.76.14,18.11c0,0-5.64,3.23-10.62,0"/>
              <path class="cls-24" d="M167.87,97.08s2.49,10.63-9.61,14c0,0-6.45,1.28-10-3"/>
              <path class="cls-24" d="M154.47,111.32S148.77,124,136,115.45c0,0-2.95-2.71-3.52-5.84"/>
              <path class="cls-24" d="M137.06,116.32s-10.94,6-17.57-6.19a18.83,18.83,0,0,1-.95-6.88"/>
              <path class="cls-24" d="M119.54,110.41s-11.33-2.26-9.11-16.84c0,0,.95-2.44,2.35-3.06"/>
              <path class="cls-24" d="M110.31,93.43s-4-2.89,2.4-8.3"/>
            </g>
            <g>
              <path class="cls-25" d="M163.86,61.59a13,13,0,0,1-.85,2.75s8.54,5.76,1.2,16.36c0,0,7.4-2.44,4.74-12.5A15.22,15.22,0,0,0,163.86,61.59Z"/>
              <path class="cls-25" d="M165.84,80.82A5.08,5.08,0,0,0,167.77,79s8.71,8,.69,16.53c0,0-3.3,3.77-9.68,1.51,0,0,8.78,2.07,9.79-5.21C168.57,91.87,170.77,85.54,165.84,80.82Z"/>
              <path class="cls-25" d="M167.51,97.51l-2.68.72s1.45,12.57-13.26,11.81a11.77,11.77,0,0,0,8.68,0S169.36,106.34,167.51,97.51Z"/>
              <path class="cls-25" d="M154,111.44s-1.25-.28-2.84-.77c0,0-3.9,12.84-17,1.93a10.79,10.79,0,0,0,6.69,5S149,121,154,111.44Z"/>
              <path class="cls-25" d="M136.46,116.24a9,9,0,0,1-1.73-1.65s-12.34,5.55-15.82-9.88c0,0-.44,7.23,6,11A12,12,0,0,0,136.46,116.24Z"/>
              <path class="cls-25" d="M119,109.91s-12.59-3.94-7.37-18c0,0-2.8,11,6.86,16.36Z"/>
            </g>
          </g>
          <g>
            <circle class="cls-26" cx="137.39" cy="83.65" r="24.15"/>
            <g>
              <g>
                <circle class="cls-27" cx="137.06" cy="83.65" r="21.32"/>
                <circle class="cls-28" cx="137.06" cy="83.58" r="18.51"/>
                <path class="cls-29" d="M153.53,92a18.79,18.79,0,0,0,.33-3.46,18.51,18.51,0,0,0-35-8.44,18.51,18.51,0,0,1,36.69,3.46A18.3,18.3,0,0,1,153.53,92Z"/>
              </g>
              <g>
                <circle class="cls-30" cx="137.39" cy="83.58" r="10.52"/>
                <circle class="cls-31" cx="133.06" cy="77.94" r="3.02"/>
                <circle class="cls-31" cx="137.19" cy="83.62" r="1.36"/>
                <path class="cls-32" d="M135.83,91.85A12,12,0,0,0,145.57,85S144.69,93.84,135.83,91.85Z"/>
              </g>
            </g>
          </g>
          <g>
            <path class="cls-33" d="M103.73,131.68s7.43-5.92,7.41-22.34c0,0-.24-8.5-7.41-7.6,0,0-6.5-1.29-7.68,7.73C96.05,109.47,95.57,123.42,103.73,131.68Z"/>
            <path class="cls-34" d="M103.7,128.57s5.91-5.3,5.89-20c0,0-.19-7.63-5.89-6.82,0,0-5.17-1.15-6.11,6.93C97.59,108.66,97.21,121.17,103.7,128.57Z"/>
            <path class="cls-25" d="M102.93,101.81l1,25.12.89-25.12S104.32,101.49,102.93,101.81Z"/>
          </g>
        </g>
        <g>
          <path class="cls-35" d="M107.42,94.08s-.76-29.17,34.42-41.57c0,0-5.06,2.91-4.46,5.44,0,0,1.17-4.49,16.54-5.44,0,0,6-.32,8.35-3.86,0,0,.68,2.84-3.17,4.43,0,0,20.7.57,24.62-4.88,0,0-6.2,8.61-20.75,10.44,0,0,4.18,1.46,6,1.21,0,0-3.76,2.2-15.82-1.33,0,0,2.63,4,7.34,3.79,0,0-1,1.71-15.62,1.39,0,0-7.85-.25-10.06,2.47,0,0,3.29-1.14,7.08,1.9C141.9,68.07,124.88,63.73,107.42,94.08Z"/>
          <path class="cls-36" d="M107.42,94.08s1.27-16.63,20.69-25.74c0,0-3.23-.91-4.94.37,0,0,7.15-9.16,25.88-8.47a5.55,5.55,0,0,0-4.68-2.53s4.32-2.34,20.95-1.77c0,0,10.37-1,14.41-4.3,0,0-5.94,5.62-17.33,6.94,0,0,5.1,1.83,6.14,1.22,0,0-1.92,2.13-15.61-1.5,0,0,1.62,3.91,7.13,4,0,0-.13,1.65-15.31,1.46,0,0-6.87-.35-9.84,2.24a8.07,8.07,0,0,1,6.88,2S124.3,63.8,107.42,94.08Z"/>
        </g>
        <g>
          <path class="cls-35" d="M100.84,94.08s.76-29.17-34.42-41.57c0,0,5.07,2.91,4.46,5.44,0,0-1.17-4.49-16.54-5.44,0,0-6-.32-8.35-3.86,0,0-.67,2.84,3.17,4.43,0,0-20.7.57-24.62-4.88,0,0,6.2,8.61,20.75,10.44,0,0-4.17,1.46-6,1.21,0,0,3.77,2.2,15.82-1.33,0,0-2.63,4-7.34,3.79,0,0,1,1.71,15.63,1.39,0,0,7.84-.25,10.06,2.47,0,0-3.29-1.14-7.09,1.9C66.36,68.07,83.38,63.73,100.84,94.08Z"/>
          <path class="cls-36" d="M100.84,94.08S99.58,77.45,80.15,68.34c0,0,3.23-.91,4.94.37,0,0-7.15-9.16-25.88-8.47a5.57,5.57,0,0,1,4.68-2.53S59.58,55.37,43,55.94c0,0-10.37-1-14.42-4.3,0,0,5.95,5.62,17.33,6.94,0,0-5.1,1.83-6.13,1.22,0,0,1.91,2.13,15.6-1.5,0,0-1.62,3.91-7.13,4,0,0,.13,1.65,15.31,1.46,0,0,6.87-.35,9.84,2.24a8.08,8.08,0,0,0-6.88,2S84,63.8,100.84,94.08Z"/>
        </g>
      </g>
      <g>
        <g>
          <ellipse class="cls-37" cx="66.46" cy="263.75" rx="8.1" ry="10.79"/>
          <path class="cls-38" d="M60.54,269.94s4.94,1.45,6.2-1.9c0,0-.95-9.93,3-14l1.84,1.2s2.25,14.31-.7,17.71C70.85,272.91,63.64,278.1,60.54,269.94Z"/>
          <path class="cls-39" d="M63.69,271.65s1.77-3.21,4.45,0c0,0,1.12,5.89-2.46,7C65.68,278.61,62.46,276.68,63.69,271.65Z"/>
        </g>
        <g>
          <ellipse class="cls-37" cx="77.27" cy="264.34" rx="8.96" ry="12.56"/>
          <path class="cls-38" d="M70.85,271.39s6.84,4.62,7.09-1.17c0,0-1.08-10.78,4-16.22a3.11,3.11,0,0,1,1.72,2.33s3.2,18-3.66,19.59A7.22,7.22,0,0,1,70.85,271.39Z"/>
          <path class="cls-39" d="M74.31,271.91s2.09-3.8,5.25,0c0,0,1.33,7-2.91,8.22C76.65,280.13,72.85,277.85,74.31,271.91Z"/>
        </g>
        <g>
          <ellipse class="cls-37" cx="88.09" cy="265.35" rx="8.1" ry="10.79"/>
          <path class="cls-38" d="M96.18,265.35c0,6-3.62,10.57-8.09,10.57a6.52,6.52,0,0,1-5.75-3.36,11.47,11.47,0,0,0,3.76.83c4.48,0,7-3.72,7-9.68,0-3.41-.43-6.54-2.28-8.51C94,256.7,96.18,260.68,96.18,265.35Z"/>
          <path class="cls-39" d="M85.53,271.33s2.09-3.79,5.25,0c0,0,1.33,7-2.91,8.23C87.87,279.56,84.08,277.28,85.53,271.33Z"/>
        </g>
      </g>
      <g>
        <g>
          <ellipse class="cls-37" cx="141.24" cy="263.75" rx="8.1" ry="10.79"/>
          <path class="cls-38" d="M137.06,255.64s3.23,2.37,4.08,12.95c0,0,4.7,1.71,5.7-4.48,0,0,1.15-6.6-1.91-9.72,0,0,4.66,2.91,4.22,10.77,0,0-.83,7.4-6.32,8.92,0,0-4.41.71-6.37-1.93Z"/>
          <path class="cls-39" d="M144,271.65s-1.77-3.21-4.45,0c0,0-1.12,5.89,2.47,7C142,278.61,145.23,276.68,144,271.65Z"/>
        </g>
        <g>
          <ellipse class="cls-37" cx="130.43" cy="264.34" rx="8.96" ry="12.56"/>
          <path class="cls-38" d="M124.22,256.29s6.2,2.71,3.86,14.32c0,0,7.41,3.77,8.35-5.88,0,0,1.46-7.63-2.21-11.37,0,0,5.63,3.7,4.81,12.59,0,0-.82,8.89-7.4,10.72,0,0-4.43.37-6.77-2.8Z"/>
          <path class="cls-39" d="M133.38,271.91s-2.09-3.8-5.25,0c0,0-1.33,7,2.91,8.22C131,280.13,134.84,277.85,133.38,271.91Z"/>
        </g>
        <g>
          <ellipse class="cls-37" cx="119.6" cy="265.35" rx="8.1" ry="10.79"/>
          <path class="cls-38" d="M127.49,265.35c0,6-3.62,10.57-8.09,10.57a6.53,6.53,0,0,1-5.76-3.36,11.59,11.59,0,0,0,3.77.83c4.47,0,7-3.72,7-9.68,0-3.41-.43-6.54-2.28-8.51C125.26,256.7,127.49,260.68,127.49,265.35Z"/>
          <path class="cls-39" d="M122.16,271.33s-2.09-3.79-5.25,0c0,0-1.33,7,2.91,8.23C119.82,279.56,123.62,277.28,122.16,271.33Z"/>
        </g>
      </g>
    </g>
  </g>
</svg>
