<svg xmlns="http://www.w3.org/2000/svg" width="197.67" height="185.4" viewBox="0 0 197.67 185.4">
  <defs>
    <style>
      .cls-1 {
        isolation: isolate;
      }

      .cls-2 {
        fill: #050505;
        opacity: 0.5;
      }

      .cls-3, .cls-5 {
        fill: #fff;
      }

      .cls-4 {
        fill: #a4a7a7;
      }

      .cls-4, .cls-7, .cls-8 {
        stroke: #49463e;
        stroke-miterlimit: 10;
      }

      .cls-5 {
        opacity: 0.3;
      }

      .cls-6 {
        fill: #c5c7c9;
        mix-blend-mode: multiply;
      }

      .cls-7 {
        fill: #b26024;
      }

      .cls-8 {
        fill: #284d5e;
      }
    </style>
  </defs>
  <g class="cls-1">
    <g id="Layer_1" data-name="Layer 1">
      <g>
        <path class="cls-2" d="M23.46,183.33a10.83,10.83,0,0,1-2.06-.2h-.25a8,8,0,0,1-7.08-4.28L6.34,164.18a8,8,0,0,1,1.42-9.38L110.22,52.34a8,8,0,0,1,1.56-9.09l21.91-21.91C146.78,8.77,152.84,7.07,157,7.07a11.15,11.15,0,0,1,11,9.25,16.29,16.29,0,0,1,7.18,4.31l8.41,8.42A16.26,16.26,0,0,1,188,36.22c.29.05.61.12.92.2s.56.15.84.25a8.2,8.2,0,0,1,1,.41c.24.11.47.22.7.35a8.57,8.57,0,0,1,1,.64,5.56,5.56,0,0,1,.54.39,12.35,12.35,0,0,1,1.27,1.16c7.88,8.21-1.78,20-4.95,23.9l-.69.84-.46.55c-.56.65-1.14,1.32-1.73,2s-1.41,1.56-2.12,2.31c-.44.48-.89.94-1.33,1.4L175.58,78l2.53,16.55a8,8,0,0,1-1.9,6.49,10.76,10.76,0,0,1-8.38,6.06,10.68,10.68,0,0,1-3.07,2.44,10.53,10.53,0,0,1-3.75,1.19,10.84,10.84,0,0,1-6.82,3.63,10.6,10.6,0,0,1-3.08,2.44,10.34,10.34,0,0,1-3.74,1.18,10.72,10.72,0,0,1-6.82,3.63,10.53,10.53,0,0,1-3.07,2.45,10.65,10.65,0,0,1-3.75,1.18,10.4,10.4,0,0,1-3.07,2.45,10.66,10.66,0,0,1-3.74,1.18,10.78,10.78,0,0,1-6.82,3.63,10.83,10.83,0,0,1-6.82,3.62,10.73,10.73,0,0,1-6.81,3.63,10.78,10.78,0,0,1-6.82,3.63A10.78,10.78,0,0,1,92.83,147,10.77,10.77,0,0,1,86,150.61a10.73,10.73,0,0,1-6.81,3.63,10.78,10.78,0,0,1-6.82,3.63,10.35,10.35,0,0,1-3.07,2.44,10.53,10.53,0,0,1-3.75,1.19,10.23,10.23,0,0,1-3.07,2.44,10.48,10.48,0,0,1-3.74,1.19,10.57,10.57,0,0,1-3.08,2.44,10.46,10.46,0,0,1-3.74,1.18,10.78,10.78,0,0,1-6.82,3.63A10.53,10.53,0,0,1,42,174.83,10.66,10.66,0,0,1,38.3,176a10.57,10.57,0,0,1-3.08,2.44,10.42,10.42,0,0,1-3.74,1.19,10.74,10.74,0,0,1-3.08,2.44A10.41,10.41,0,0,1,23.46,183.33Z"/>
        <path class="cls-3" d="M18.46,178.33a10.83,10.83,0,0,1-2.06-.2h-.25a8,8,0,0,1-7.08-4.28L1.34,159.18a8,8,0,0,1,1.42-9.38L105.22,47.34a8,8,0,0,1,1.56-9.09l21.91-21.91C141.78,3.77,147.84,2.07,152,2.07a11.15,11.15,0,0,1,11,9.25,16.29,16.29,0,0,1,7.18,4.31l8.41,8.42A16.26,16.26,0,0,1,183,31.22c.29.05.61.12.92.2s.56.15.84.25a8.2,8.2,0,0,1,1,.41c.24.11.47.22.7.35a8.57,8.57,0,0,1,1,.64,5.56,5.56,0,0,1,.54.39,12.35,12.35,0,0,1,1.27,1.16c7.88,8.21-1.78,20-4.95,23.9l-.69.84-.46.55c-.56.65-1.14,1.32-1.73,2s-1.41,1.56-2.12,2.31c-.44.48-.89.94-1.33,1.4L170.58,73l2.53,16.55a8,8,0,0,1-1.9,6.49,10.76,10.76,0,0,1-8.38,6.06,10.68,10.68,0,0,1-3.07,2.44,10.53,10.53,0,0,1-3.75,1.19,10.84,10.84,0,0,1-6.82,3.63,10.6,10.6,0,0,1-3.08,2.44,10.34,10.34,0,0,1-3.74,1.18,10.72,10.72,0,0,1-6.82,3.63,10.53,10.53,0,0,1-3.07,2.45,10.65,10.65,0,0,1-3.75,1.18,10.4,10.4,0,0,1-3.07,2.45,10.66,10.66,0,0,1-3.74,1.18,10.78,10.78,0,0,1-6.82,3.63,10.83,10.83,0,0,1-6.82,3.62,10.73,10.73,0,0,1-6.81,3.63,10.78,10.78,0,0,1-6.82,3.63A10.78,10.78,0,0,1,87.83,142,10.77,10.77,0,0,1,81,145.61a10.73,10.73,0,0,1-6.81,3.63,10.78,10.78,0,0,1-6.82,3.63,10.35,10.35,0,0,1-3.07,2.44,10.53,10.53,0,0,1-3.75,1.19,10.23,10.23,0,0,1-3.07,2.44,10.48,10.48,0,0,1-3.74,1.19,10.57,10.57,0,0,1-3.08,2.44,10.46,10.46,0,0,1-3.74,1.18,10.78,10.78,0,0,1-6.82,3.63A10.53,10.53,0,0,1,37,169.83,10.66,10.66,0,0,1,33.3,171a10.57,10.57,0,0,1-3.08,2.44,10.42,10.42,0,0,1-3.74,1.19,10.74,10.74,0,0,1-3.08,2.44A10.41,10.41,0,0,1,18.46,178.33Z"/>
        <g id="saw">
          <path class="cls-4" d="M8.42,155.46l7.73,14.68c1.26-.29,2,.66,3.5-.12,1.7-.91.94-2.35,2.64-3.25s2.47.53,4.17-.38.94-2.34,2.65-3.25,2.47.53,4.17-.38.94-2.34,2.64-3.25,2.47.53,4.18-.37.93-2.35,2.64-3.26,2.47.54,4.17-.37.94-2.35,2.64-3.25,2.48.53,4.18-.38.94-2.34,2.64-3.25,2.47.53,4.18-.38.93-2.34,2.64-3.25,2.47.53,4.17-.37.94-2.35,2.65-3.26,2.47.53,4.17-.37.94-2.35,2.64-3.26,2.47.54,4.18-.37.94-2.35,2.64-3.25,2.47.53,4.18-.38.94-2.34,2.64-3.25,2.47.53,4.17-.38.94-2.34,2.65-3.25,2.47.53,4.17-.37.94-2.35,2.64-3.25,2.47.53,4.18-.38.94-2.35,2.64-3.25,2.47.53,4.17-.38.94-2.34,2.65-3.25,2.46.53,4.17-.38.94-2.34,2.64-3.25,2.47.53,4.18-.37.94-2.35,2.64-3.26,2.47.53,4.18-.37.94-2.35,2.64-3.26,2.47.54,4.18-.37.94-2.35,2.64-3.25,2.47.53,4.18-.38.94-2.35,2.64-3.25,2.47.53,4.18-.38.93-2.35,2.64-3.25,2.47.53,4.18-.38,1-2.19,2.38-3.09l-3.14-20.56L127.88,36Z"/>
          <path class="cls-5" d="M126,37.85l29,29-1.5,13.58L15.71,164.47a3.29,3.29,0,0,1-2.49.1l2.93,5.57c1.26-.29,2,.66,3.5-.12,1.7-.91.94-2.35,2.64-3.25s2.47.53,4.17-.38.94-2.34,2.65-3.25,2.47.53,4.17-.38.94-2.34,2.64-3.25,2.47.53,4.18-.37.93-2.35,2.64-3.26,2.47.54,4.17-.37.94-2.35,2.64-3.25,2.48.53,4.18-.38.94-2.34,2.64-3.25,2.47.53,4.18-.38.93-2.34,2.64-3.25,2.47.53,4.17-.37.94-2.35,2.65-3.26,2.47.53,4.17-.37.94-2.35,2.64-3.26,2.47.54,4.18-.37.94-2.35,2.64-3.25,2.47.53,4.18-.38.94-2.34,2.64-3.25,2.47.53,4.17-.38.94-2.34,2.65-3.25,2.47.53,4.17-.37.94-2.35,2.64-3.25,2.47.53,4.18-.38.94-2.35,2.64-3.25,2.47.53,4.17-.38.94-2.34,2.65-3.25,2.46.53,4.17-.38.94-2.34,2.64-3.25,2.47.53,4.18-.37.94-2.35,2.64-3.26,2.47.53,4.18-.37.94-2.35,2.64-3.26,2.47.54,4.18-.37.94-2.35,2.64-3.25,2.47.53,4.18-.38.94-2.35,2.64-3.25,2.47.53,4.18-.38.93-2.35,2.64-3.25,2.47.53,4.18-.38,1-2.19,2.38-3.09l-3.14-20.56L127.88,36Z"/>
          <path class="cls-6" d="M116.73,47.14,8.42,155.46l7.69,14.6C21.8,148.64,119.19,49.6,119.19,49.6Z"/>
          <g>
            <path class="cls-7" d="M164.55,21.25c-3.39-3.5-7.3-2.1-9-3.76-2.4-2.38,1.31-4-1.43-6.65-3.42-3.28-13,4.61-19.91,11.27L112.44,43.9l23.21,23.22c14.74,14.74,24.81,4.67,24.81,4.67l11.72-11.73c6.67-6.93,14.56-16.48,11.28-19.9-2.64-2.75-4.28,1-6.66-1.44-1.66-1.67-.25-5.59-3.76-9Zm5.35,22.18A5.37,5.37,0,1,1,162.31,51l-19-19a5.37,5.37,0,1,1,7.59-7.59Z"/>
            <path class="cls-8" d="M164.55,21.25c-3.39-3.5-7.3-2.1-9-3.76-2.4-2.38,1.31-4-1.43-6.65-3.42-3.28-13,4.61-19.91,11.27l-5.79,5.79s16,28.53,25.92,33.35c6.85,3.3,19.72-.4,29.1-21.09-2.64-2.75-4.28,1-6.66-1.44-1.66-1.67-.25-5.59-3.76-9Zm5.35,22.18A5.37,5.37,0,1,1,162.31,51l-19-19a5.37,5.37,0,1,1,7.59-7.59Z"/>
            <path class="cls-6" d="M177.14,39l-6.1,6.1A5.36,5.36,0,0,1,169.9,51c-1.59,1.59-3.77,1-5.89,1.14-6.62,17.65-28.36,15-28.36,15,14.74,14.74,24.81,4.67,24.81,4.67l11.72-11.73c6.67-6.93,14.56-16.48,11.28-19.9C181,37.54,179.34,40.78,177.14,39Z"/>
          </g>
        </g>
      </g>
    </g>
  </g>
</svg>
