<svg id="Layer_1" data-name="Layer 1" xmlns="http://www.w3.org/2000/svg" width="339.91" height="228.57" viewBox="0 0 339.91 228.57">
  <defs>
    <style>
      .cls-1 {
        fill: #fffa4d;
      }

      .cls-2 {
        fill: #b3c9c8;
      }

      .cls-2, .cls-3, .cls-4, .cls-5 {
        fill-rule: evenodd;
      }

      .cls-3 {
        fill: #8ba8a7;
      }

      .cls-4 {
        fill: #d1ebe9;
      }

      .cls-5 {
        fill: #9cbdbc;
      }

      .cls-6 {
        fill: #785da5;
      }

      .cls-7 {
        fill: #9776d1;
      }

      .cls-8 {
        fill: #fff;
      }

      .cls-9 {
        fill: #fd0200;
      }

      .cls-10 {
        fill: #3378bf;
      }

      .cls-11 {
        fill: #ff5938;
      }

      .cls-12 {
        fill: #e3001e;
      }

      .cls-13 {
        fill: #ab0300;
      }
    </style>
  </defs>
  <g>
    <path class="cls-1" d="M45.67,221.65h-.44l-.5,0a7.83,7.83,0,0,1-2-.47,8,8,0,0,1-5.09-6.25c-.74-4.72,2.47-7.85,6.54-11.81l.82-.8h-.56a34.24,34.24,0,0,1-18.61-5.46c-10.33-6.56-17.43-16.49-19-26.57-1.35-8.69,1.17-17.16,7.31-24.5a60.21,60.21,0,0,1,4.85-5,36.7,36.7,0,0,0,4.37-4.58c-5.32-3.09-7.51-7.16-6.53-12.11A11.16,11.16,0,0,1,28,114.83a12.87,12.87,0,0,1,1.51.09c8.1,1,18.12,10.33,17.8,19.54-.26,7.6-4,14.65-11.07,20.94-4.7,4.18-7.22,7.7-7.26,10.18A8,8,0,0,0,30.7,170c1.6-.91,3.51-1.79,5.71-2.81,4-1.87,9.67-4.33,16.82-7.31C64.72,155.05,77,150.14,85,147a18.19,18.19,0,0,1-.46-4.29A21.18,21.18,0,0,1,83,136.94a13.06,13.06,0,0,1-.15-1.75,15,15,0,0,1-1.26-4.07,17.59,17.59,0,0,1-.06-6.08c-.11-.33-.21-.63-.29-.89a15.57,15.57,0,0,1-.2-9.26q.12-.39.27-.78a13.11,13.11,0,0,1,.37-6.25,10.6,10.6,0,0,1,.34-7.41A11.84,11.84,0,0,1,83.33,92,13,13,0,0,1,86.2,81.42a13.52,13.52,0,0,1,4.85-10.88,15.57,15.57,0,0,1,3.08-2,12.08,12.08,0,0,1,4-5.33,12.72,12.72,0,0,1,10.21-8.33,15.46,15.46,0,0,1,6.21-5.62,18.54,18.54,0,0,1,5.21-1.6c.46-.08.9-.14,1.33-.19a14.19,14.19,0,0,1,1.66-1.72,16.37,16.37,0,0,1,8.24-3.8,14.3,14.3,0,0,1,2.14-2.33,14.5,14.5,0,0,1,9-3.54,22.53,22.53,0,0,1,10.06-3.8,22.15,22.15,0,0,1,2.76-.18,18.26,18.26,0,0,1,2.59.18,29.67,29.67,0,0,1,9.2-1.48l1.16,0A13.24,13.24,0,0,1,173.29,32a10.69,10.69,0,0,1,1.32.75,16.36,16.36,0,0,1,5.51,1.15,12.31,12.31,0,0,1,1.42-.29,16.37,16.37,0,0,1,10.48,2,25.39,25.39,0,0,1,3.12-.2A23.1,23.1,0,0,1,210.08,41,26.11,26.11,0,0,1,224,49.69a18.68,18.68,0,0,1,2.37,1.85l33.16-27A17.26,17.26,0,0,1,268,9.17a17.05,17.05,0,0,1,8.46-2.25,17.63,17.63,0,0,1,15.21,8.88,17.4,17.4,0,0,1-6.22,23.78,17,17,0,0,1-10.7,2.1l-32.7,26.64a16.59,16.59,0,0,1,1.52,4,25.21,25.21,0,0,1,4.3,5.15,18.72,18.72,0,0,1,2.85,7.71L299.86,67a17.16,17.16,0,0,1,11.33-11,16.78,16.78,0,0,1,4.82-.7,17.57,17.57,0,0,1,5.13,34.31,17,17,0,0,1-4.81.7h0a17.23,17.23,0,0,1-8-2L254.8,108.19a15.35,15.35,0,0,1-.13,3.74,29.18,29.18,0,0,1,1.2,13.08l-.09.58a23.65,23.65,0,0,1,.15,9.59,13,13,0,0,1-.32,1.37,30,30,0,0,1-.18,6.28,15.79,15.79,0,0,1-2.3,6.61,12.41,12.41,0,0,1-1.81,2.18,26.32,26.32,0,0,1-2.09,7.59,21.25,21.25,0,0,1-1.83,3.16c.42,5.5-1.19,11.84-6,16.07-2.6,4.17-5.51,6.36-8.22,7.45-2.75,5.62-6.39,8.78-10.88,9.43a15,15,0,0,1-9.79,4,12.57,12.57,0,0,1-5.09-1.08,92.68,92.68,0,0,1-14,3,16.84,16.84,0,0,1-11.23,4,19.17,19.17,0,0,1-2.39-.15,13.47,13.47,0,0,1-3.48,1.12,12.17,12.17,0,0,1-2.2.19,13.08,13.08,0,0,1-4.46-.79,13.72,13.72,0,0,1-8.54-.49,14.1,14.1,0,0,1-4.46-2.81c-.67,0-1.34,0-2,0A56.86,56.86,0,0,1,137,199.58a20.14,20.14,0,0,1-3.49.33,15.89,15.89,0,0,1-3-.28,14,14,0,0,1-3,.31h-.11a15.55,15.55,0,0,1-8.9-2.81,15.12,15.12,0,0,1-8-4.19,16.41,16.41,0,0,1-8.27-5.48c-.35-.48-.71-1-1.06-1.53-.78-.26-1.67-.58-2.69-1C85.88,194.8,58.31,216.1,50.8,220.15l-.07,0-.61.31-.29.13-.45.21L49,221l-.55.2c-.31.1-.6.17-.88.24l-.48.09-.11,0A8.17,8.17,0,0,1,45.67,221.65ZM24.28,134.47Z"/>
    <g>
      <g>
        <g>
          <path class="cls-2" d="M32.81,178.31c.43-2.47,61.66-26.6,72.28-30.54L311.81,71.06c3.47,1.08,4.35,3.45,2.43,6.53L107.52,154.31c-10.62,3.94-72.77,25.6-74.71,24Z"/>
          <path class="cls-3" d="M315.05,73.6a4.59,4.59,0,0,1-.81,4L107.52,154.31c-10.58,3.92-72.25,25.42-74.67,24Z"/>
          <path class="cls-4" d="M191.24,118.4c58.48-21.7,106.05-39.73,105.9-40.13s-48,17-106.44,38.66-106,39.72-105.89,40.13,48-17,106.43-38.66Z"/>
          <path class="cls-5" d="M192.39,121.49c58.47-21.7,106-39.73,105.89-40.14s-48,17-106.44,38.66S85.8,159.74,86,160.15s48-17,106.44-38.66Z"/>
        </g>
        <g>
          <ellipse class="cls-6" cx="316.17" cy="72.8" rx="9.23" ry="9.53" transform="translate(-7.66 92.82) rotate(-16.5)"/>
          <ellipse class="cls-7" cx="315" cy="71.56" rx="6.04" ry="6.24" transform="translate(-7.35 92.44) rotate(-16.5)"/>
          <ellipse class="cls-8" cx="313.75" cy="70.48" rx="2.69" ry="2.77" transform="translate(-7.09 92.04) rotate(-16.5)"/>
        </g>
      </g>
      <g>
        <g>
          <path class="cls-2" d="M45.57,213.64c-.39-2.48,49.79-45.07,58.57-52.22L275.07,22.14c3.64-.1,5.23,1.86,4.4,5.4L108.54,166.83c-8.78,7.15-60.62,47.7-63,46.81Z"/>
          <path class="cls-3" d="M279,23.5a4.58,4.58,0,0,1,.51,4L108.54,166.83C99.8,174,48.35,214.19,45.61,213.65Z"/>
          <path class="cls-4" d="M176.21,105.84C224.56,66.44,263.78,34,263.5,33.69s-39.93,31.53-88.28,70.93-87.56,71.8-87.29,72.14,39.93-31.53,88.28-70.92Z"/>
          <path class="cls-5" d="M178.29,108.39c48.35-39.4,87.57-71.81,87.29-72.14s-39.93,31.52-88.28,70.92S89.74,179,90,179.31s39.93-31.52,88.28-70.92Z"/>
        </g>
        <g>
          <ellipse class="cls-6" cx="276.76" cy="24.37" rx="9.23" ry="9.53" transform="translate(24.59 140.99) rotate(-29.85)"/>
          <ellipse class="cls-7" cx="275.34" cy="23.43" rx="6.04" ry="6.24" transform="translate(24.87 140.15) rotate(-29.85)"/>
          <ellipse class="cls-8" cx="273.87" cy="22.67" rx="2.69" ry="2.77" transform="translate(25.05 139.32) rotate(-29.85)"/>
        </g>
      </g>
      <g>
        <path class="cls-9" d="M174.15,197.82a4.13,4.13,0,0,1-3.48-1.88l-.45-.77-.57.69a4.6,4.6,0,0,1-1.39,1.14,4.49,4.49,0,0,1-2.08.49,5.11,5.11,0,0,1-1.88-.36,5.64,5.64,0,0,1-3.12-3.06l-.07-.24-.17-.47-.5.06a48.91,48.91,0,0,1-5.76.35,48.2,48.2,0,0,1-16.62-3l-.72-.27-.12.76-.2-.47-.51,0-.08,0-.55.09a12.47,12.47,0,0,1-2.4.28,5.74,5.74,0,0,1-2.93-.73l-.42-.25-.34.34a3.2,3.2,0,0,1-2.22.67c-1.59,0-3.53-.57-4.18-1.46-.24-.33-.46-.64-.66-.95l-.23-.36-.42.08a5,5,0,0,1-1,.09,6.35,6.35,0,0,1-4.55-1.94,8.74,8.74,0,0,1-1.15-1.45l-.18-.28h-.34a9,9,0,0,1-5.69-2.7,11.49,11.49,0,0,1-1.89-3.43l-.15-.45h-.48c-.83,0-3.3-.87-7.88-2.6-1.49-.56-2.83-1.07-3.61-1.32A27.4,27.4,0,0,0,86.66,173a16.12,16.12,0,0,0-12.25,5.53c-8.86,9.47-20.06,15.13-29.95,15.13a25.75,25.75,0,0,1-14-4.12c-8.26-5.24-13.9-12.95-15.1-20.61-.95-6.16.92-12.26,5.41-17.64a52.58,52.58,0,0,1,4.14-4.21c3-2.85,6.12-5.78,7.41-9.44,1.89-5.4-1.43-7.18-4.11-8.61-2-1.07-3.19-1.82-2.9-3.25A2.53,2.53,0,0,1,28,123.46l.5,0c4.06.48,10.34,6.38,10.19,10.67-.18,5.15-2.93,10.13-8.18,14.79-6.83,6.06-10.06,11.3-10.16,16.47-.09,4.75,2.52,9.61,8,14.85,4.75,4.56,10.18,6.87,16.14,6.87,8.51,0,16.05-4.73,19.78-7.55a50.34,50.34,0,0,0,5.2-4.73c3-3,6.2-6.17,10.33-7.58a16.87,16.87,0,0,1,5.58-.95c4,0,7.68,1.4,11.58,2.87,1,.38,2,.76,3,1.13l1.45.51-.67-1.38a19.63,19.63,0,0,1-1.21-3.17,37.53,37.53,0,0,1-1.08-12l0-.51-.49-.13c-2.81-1.7-3.88-5.15-4.54-8.3a6.66,6.66,0,0,1,0-4.05l.2-.45-.39-.3a1.64,1.64,0,0,1-.37-.41,10.86,10.86,0,0,1-1.43-4.47,3.43,3.43,0,0,1,.25-2.16L92,133l-.49-.33a4.41,4.41,0,0,1-1.5-3,8,8,0,0,1,.06-3.67,3.94,3.94,0,0,1,.89-1.5l.63-.65-.82-.36a2,2,0,0,1-.78-.58,3.64,3.64,0,0,1-.56-1.22,7.47,7.47,0,0,1-.25-4.24,3.63,3.63,0,0,1,1.41-1.87l.72-.49-.69-.53a2.22,2.22,0,0,1-.7-1.15,4.38,4.38,0,0,1,.32-3.84A3.72,3.72,0,0,1,92,108.35l1.33-.55-1.3-.6-.17-.08c-1.33-.65-2.09-1.57-2.08-2.52a2.55,2.55,0,0,1,.69-1.6,4.29,4.29,0,0,1,1.27-1l.85-.47-.78-.59a3.69,3.69,0,0,1-1.27-4,4.46,4.46,0,0,1,2.54-2.52,6.23,6.23,0,0,1,.83-.28l1.63-.44L94,92.92a4,4,0,0,1-2-2c-.84-2,.52-4.23,2.27-5.22a7.8,7.8,0,0,1,2-.76l1.44-.34-1.24-.8a3.53,3.53,0,0,1-1-.88c-1.32-1.79-.47-4.47,1.15-5.84a9.94,9.94,0,0,1,5.25-2l.86-.11-.38-.79A3.38,3.38,0,0,1,105,69.38l.24,0,1,0,0-.73a4.73,4.73,0,0,1,1.51-4.52,4.2,4.2,0,0,1,2.57-.79,7.68,7.68,0,0,1,3.33.85l1,.47-.06-1.06A7.16,7.16,0,0,1,118.35,57a11.78,11.78,0,0,1,4.45-1,4.32,4.32,0,0,1,1.84.35,3.52,3.52,0,0,1,.71.46l1,.74.07-1.2a6.15,6.15,0,0,1,2.08-4.13,7.86,7.86,0,0,1,5-1.85h.15a8.34,8.34,0,0,1,2.38.36l.75.21,0-.78a5.81,5.81,0,0,1,5.82-5.46,5.14,5.14,0,0,1,.88.07,5,5,0,0,1,1,.25l.2.06.19-.06h.29l.12-.23a12.43,12.43,0,0,1,8-3.95,11.82,11.82,0,0,1,1.63-.12,7.35,7.35,0,0,1,2.87.52l.25.1.24-.11a20.73,20.73,0,0,1,8.43-1.8l.81,0a4.84,4.84,0,0,1,2,.39,2,2,0,0,1,1.15,1.38l.13.6.6-.12c.6-.11,1.11-.18,1.55-.22s.63,0,.93,0a6.66,6.66,0,0,1,4.78,1.69l.28.27.37-.13a24.55,24.55,0,0,1,3.45-1.06,9.16,9.16,0,0,1,1.07-.07,6.64,6.64,0,0,1,5.52,2.53l.26.37.44-.13a17.17,17.17,0,0,1,5.07-.81,14.88,14.88,0,0,1,10.73,4.78L206,49l.2,0c6.15.93,10.49,4.89,11.45,6.8l.06.33.3.13c3.5,1.51,5.18,5.23,6.09,7.23l.37.81.26.09,0,.41.44.16a19.82,19.82,0,0,1,7,4.43c1.62,1.59,3.47,4.06,3.12,6.82l0,.35.26.36a21.23,21.23,0,0,1,5.11,5.16,8.82,8.82,0,0,1,1,8.22l-.13.29.16.27a13.56,13.56,0,0,1,1.61,8.2c0,.08,0,.17,0,.26l-.05.28.2.26a22.09,22.09,0,0,1,2.81,9,3.9,3.9,0,0,1-.56,2.8l-.28.33.25.44a20.37,20.37,0,0,1,1.71,11.36,3.65,3.65,0,0,1-.41,1.4l-.14.25.09.27a15,15,0,0,1,.59,7.82,3.52,3.52,0,0,1-.5,1.4l-.15.21v.3a21.18,21.18,0,0,1,.07,6.21,7.34,7.34,0,0,1-1,3,3.24,3.24,0,0,1-2.28,1.5l-.52.06,0,.53c-.17,3-.43,6.07-1.68,8.76a12.85,12.85,0,0,1-3,4l-.29.27.28,1c1.07,3.9.22,9.2-3.49,11.76l-.12.09-.07.13c-2,3.56-4.11,5.38-6.42,5.39a3.91,3.91,0,0,1-.72-.07l-.53-.08-.17.5c-1.83,5.41-4,8.26-6.35,8.26a2.93,2.93,0,0,1-1.11-.24l-.42-.16-.29.34c-2.24,2.6-4.33,3.92-6.19,3.92a4.14,4.14,0,0,1-.7-.06,4.74,4.74,0,0,1-2.75-1.78l-.65-.79L208,189a83.44,83.44,0,0,1-18.56,4l-.3,0-.22.25a6.49,6.49,0,0,1-.93,1.2,8.09,8.09,0,0,1-5.8,2.16,11.56,11.56,0,0,1-3.8-.66l-.37-.13-.28.28a5.49,5.49,0,0,1-2.91,1.61A4.25,4.25,0,0,1,174.15,197.82Z"/>
        <path class="cls-10" d="M207.39,67.15l.21-.21Z"/>
        <path class="cls-11" d="M220.84,136.31c-5.41-16.14-19.4-30.1-36-34.5a1.43,1.43,0,0,0-1.1,2.6c14.31,8.64,25.22,18.9,33.91,33.27C218.62,139.34,221.49,138.27,220.84,136.31Z"/>
        <path class="cls-11" d="M213.33,142.27c-7.68-14.44-20.44-30.54-38.25-31.14-1.82-.06-2,2.45-.4,3,15.89,5.81,25.71,16.61,35.69,29.84A1.71,1.71,0,0,0,213.33,142.27Z"/>
        <path class="cls-11" d="M205.3,149.64c-7.13-15.2-21.94-27.4-38.45-30.91-1.39-.3-2.39,1.66-1,2.39,14.57,7.63,26.17,17.23,35.77,30.68A2.14,2.14,0,0,0,205.3,149.64Z"/>
        <path class="cls-11" d="M195.41,151.09a61.35,61.35,0,0,0-32.15-24.93,1.17,1.17,0,0,0-.89,2.13,104.29,104.29,0,0,1,31,24.39C194.32,153.8,196.22,152.33,195.41,151.09Z"/>
        <path class="cls-11" d="M228.83,88.87c-11.52-6-27.67-8.77-40.31-4.75a1.58,1.58,0,0,0,.42,3.08c6.22.64,12.44.23,18.69,1,6.76.84,13.44,2,20.15,3.17C229.2,91.61,230.3,89.65,228.83,88.87Z"/>
        <path class="cls-11" d="M232.78,102.2c-3.89-4.84-12.16-6.35-18-7.26s-12.3-1.2-17.5,1.59a.9.9,0,0,0,.21,1.61c5.87,1.42,12.12.89,18.09,2.08,5.45,1.08,10.63,4.32,16.09,4.66C233.17,105,233.56,103.17,232.78,102.2Z"/>
        <path class="cls-11" d="M226.83,78.54c-6.23-6.17-18.39-6.05-26.42-4.67a1,1,0,0,0,0,2,116.93,116.93,0,0,1,13.24,2.75c3.94,1.14,7.85,2.83,12,2.82A1.7,1.7,0,0,0,226.83,78.54Z"/>
        <path class="cls-11" d="M234.09,114.55c-5.67-7.27-16.48-8.57-25-6.94a1.55,1.55,0,0,0,0,3c8.29,1.49,15.16,2.92,22.52,7.25C233.76,119.1,235.46,116.3,234.09,114.55Z"/>
        <path class="cls-11" d="M158.45,51.72c-4.56,1.3-7.8,4.64-11.2,7.8a185.85,185.85,0,0,0-13.42,13.65c-7.4,8.47-13.5,17.82-16.39,28.79a.93.93,0,0,0,1.8.5c3.64-10.58,10.61-19.1,18.23-27.11,3.41-3.58,6.87-7.12,10.3-10.68,3.62-3.76,7-8.15,11.66-10.61A1.28,1.28,0,0,0,158.45,51.72Z"/>
        <path class="cls-11" d="M165.73,54.29c-11.34,7.78-19.53,20.46-28.12,31-8.35,10.26-14.51,23.63-17.69,36.43a1.25,1.25,0,0,0,2.41.67c4.92-13,11.23-24.17,19.08-35.62,7.24-10.56,15.78-22.51,25.76-30.64C168.22,55.31,166.84,53.52,165.73,54.29Z"/>
        <path class="cls-11" d="M175.53,58.29C155.25,70.12,136,91.64,131.11,115.07a1,1,0,0,0,2,.55A102,102,0,0,1,151.9,83.26c7.48-8.77,16.53-15.47,25-23.14C177.93,59.22,176.65,57.63,175.53,58.29Z"/>
        <path class="cls-11" d="M180.86,63.84c-9.66,4.69-15.68,14.43-21.72,22.91-3.77,5.29-7.53,10.58-11.23,15.92-3.23,4.68-8.36,9.9-9.18,15.7-.24,1.71,2.35,2.48,2.63.73.9-5.46,6.1-10.44,9.29-14.83q5-6.92,10-13.82c6.47-8.89,12.47-17.59,22.12-23.31C184.92,65.87,183.05,62.78,180.86,63.84Z"/>
        <path class="cls-11" d="M187.72,73.47C177,77.1,169.29,85.13,162.53,93.89c-6,7.8-14,17.49-15.05,27.58-.12,1.14,1.77,1.4,2,.28,2-9.65,10.52-20,16.69-27.43A70.83,70.83,0,0,1,189,76.49C190.65,75.65,189.5,72.87,187.72,73.47Z"/>
        <path class="cls-11" d="M120.68,80c-2.84-2-6.81-2.39-10.2-2.59-2.9-.17-6.43-.66-8.75,1.37-1.17,1,.42,3.16,1.69,2.19,1.89-1.44,6.85-.32,8.87.07,2.46.48,4.61,1.56,7,2.24C121.35,83.83,122.28,81.09,120.68,80Z"/>
        <path class="cls-11" d="M115.22,90.22c-1.21-2.18-3.72-2.07-6-2.3a40.46,40.46,0,0,0-9.65.13c-1.1.14-1.59,1.82-.29,2.12,2.41.55,4.82,1.06,7.26,1.4s5,1.12,7.33,1A1.56,1.56,0,0,0,115.22,90.22Z"/>
        <path class="cls-11" d="M112.88,100.46c-1.49-5.43-11-3.62-14.87-2.61-1.3.34-1.08,2.5.32,2.4a30.56,30.56,0,0,1,7.64.37,33.81,33.81,0,0,1,5,1.73A1.55,1.55,0,0,0,112.88,100.46Z"/>
        <path class="cls-11" d="M126.45,63.46a13.09,13.09,0,0,0-5.36-5.4,1.43,1.43,0,0,0-1.72,2.23,15,15,0,0,1,3.31,5.83c.72,2,1,4.22,2.52,5.81a1.9,1.9,0,0,0,3.14-.83C128.94,68.5,127.62,65.73,126.45,63.46Z"/>
        <path class="cls-11" d="M136.27,52c-1.78-2.19-5.42.66-3.91,3s1.69,5.26,2.92,7.84c.94,2,3.72,1.2,4.33-.57C140.82,58.78,138.42,54.71,136.27,52Z"/>
        <path class="cls-11" d="M145.94,48.84a6.74,6.74,0,0,0-3.37-2.3c-1.5-.42-2.83,1.62-1.58,2.71a9.81,9.81,0,0,1,2,2.06,6.15,6.15,0,0,1,.52,1.18,2.52,2.52,0,0,0,1.65,1.71,1.86,1.86,0,0,0,2.06-.84C148.24,52,146.85,50,145.94,48.84Z"/>
        <g>
          <path class="cls-12" d="M90.56,106.26c0-.49.09-1,.17-1.46l-.93-.61a1.92,1.92,0,0,0,0,.41A2.33,2.33,0,0,0,90.56,106.26Z"/>
          <path class="cls-12" d="M247.45,133.56a15,15,0,0,0-.59-7.82l-.09-.27.14-.25a3.65,3.65,0,0,0,.41-1.4,20.37,20.37,0,0,0-1.71-11.36l-.25-.44.28-.33a3.9,3.9,0,0,0,.56-2.8,22.14,22.14,0,0,0-2-7.42,88.77,88.77,0,0,1-16.69,39.2c-10.19,13.24-24.88,23.21-41.23,26.68a78.83,78.83,0,0,1-22.06,1.26c-25.11-1.86-49.85-14-64.53-34.47A49.24,49.24,0,0,1,91,115.34l-.4.27a3.63,3.63,0,0,0-1.41,1.87,7.47,7.47,0,0,0,.25,4.24,3.64,3.64,0,0,0,.56,1.22,2,2,0,0,0,.78.58l.82.36-.63.65a3.94,3.94,0,0,0-.89,1.5,8,8,0,0,0-.06,3.67,4.41,4.41,0,0,0,1.5,3L92,133l-.31.51a3.43,3.43,0,0,0-.25,2.16,10.86,10.86,0,0,0,1.43,4.47,1.64,1.64,0,0,0,.37.41l.39.3-.2.45a6.66,6.66,0,0,0,0,4.05c.66,3.15,1.73,6.6,4.54,8.3l.49.13,0,.51a37.53,37.53,0,0,0,1.08,12,19.63,19.63,0,0,0,1.21,3.17l.67,1.38-1-.35.06,0a23.45,23.45,0,0,0,3.83,2.77,6.07,6.07,0,0,1,2.52,5.15h.33l.15.45a11.49,11.49,0,0,0,1.89,3.43,9,9,0,0,0,5.69,2.7h.34l.18.28a8.74,8.74,0,0,0,1.15,1.45,6.35,6.35,0,0,0,4.55,1.94,5,5,0,0,0,1-.09l.42-.08.23.36c.2.31.42.62.66.95.65.89,2.59,1.44,4.18,1.46a3.2,3.2,0,0,0,2.22-.67l.34-.34.42.25a5.74,5.74,0,0,0,2.93.73,12.47,12.47,0,0,0,2.4-.28l.55-.09.08,0,.51,0,.2.47.12-.76.72.27a48.2,48.2,0,0,0,16.62,3,48.91,48.91,0,0,0,5.76-.35l.5-.06.17.47.07.24a5.64,5.64,0,0,0,3.12,3.06,5.11,5.11,0,0,0,1.88.36,4.49,4.49,0,0,0,2.08-.49,4.6,4.6,0,0,0,1.39-1.14l.57-.69.45.77a4.13,4.13,0,0,0,3.48,1.88,4.25,4.25,0,0,0,.71-.06,5.49,5.49,0,0,0,2.91-1.61l.28-.28.37.13a11.56,11.56,0,0,0,3.8.66,8.09,8.09,0,0,0,5.8-2.16,6.49,6.49,0,0,0,.93-1.2l.22-.25.3,0A83.44,83.44,0,0,0,208,189l.41-.94.65.79a4.74,4.74,0,0,0,2.75,1.78,4.14,4.14,0,0,0,.7.06c1.86,0,4-1.32,6.19-3.92l.29-.34.42.16a2.93,2.93,0,0,0,1.11.24c2.33,0,4.52-2.85,6.35-8.26l.17-.5.53.08a3.91,3.91,0,0,0,.72.07c2.31,0,4.47-1.83,6.42-5.39l.07-.13.12-.09c3.71-2.56,4.56-7.86,3.49-11.76l-.28-1,.29-.27a12.85,12.85,0,0,0,3-4c1.25-2.69,1.51-5.8,1.68-8.76l0-.53.52-.06a3.24,3.24,0,0,0,2.28-1.5,7.34,7.34,0,0,0,1-3,21.18,21.18,0,0,0-.07-6.21v-.3L247,135A3.52,3.52,0,0,0,247.45,133.56Z"/>
          <path class="cls-12" d="M90,113.44a2.22,2.22,0,0,0,.7,1.15l.27.2a32,32,0,0,1-.51-5.35l-.14.16A4.38,4.38,0,0,0,90,113.44Z"/>
        </g>
        <path class="cls-12" d="M30.47,189.53a25.35,25.35,0,0,0,16.61,4,4.46,4.46,0,0,1-1-.84c-1.26-1.41-1.31-4,.31-4.95a7.85,7.85,0,0,0,1.28-.79,24.44,24.44,0,0,1-3.23.22c-6,0-11.39-2.31-16.14-6.87-5.47-5.24-8.08-10.1-8-14.85a13.67,13.67,0,0,1,.94-4.65c-.44.6-.88,1.18-1.36,1.74-1.54,1.85-3.34,3.59-4.18,5.85a6.87,6.87,0,0,0-.27.88C16.73,176.8,22.32,184.36,30.47,189.53Z"/>
        <path class="cls-12" d="M84.7,166.16A5.91,5.91,0,0,1,90.86,173c2.57.36,4.91,1.62,7.29,2.63a53.08,53.08,0,0,0,8.63,2.73l-.39-2.22a1.86,1.86,0,0,0-.23-.7,1.94,1.94,0,0,0-.55-.48,16.81,16.81,0,0,1-4.59-4.58.37.37,0,0,0-.19-.18.36.36,0,0,0-.25,0c-1.16.41-2.39-.24-3.49-.79a45,45,0,0,0-9.4-3.09Z"/>
        <path class="cls-13" d="M248.07,133.68a15.79,15.79,0,0,0-.61-8.15,4.47,4.47,0,0,0,.49-1.62,21.13,21.13,0,0,0-1.8-11.78l0,0a4.4,4.4,0,0,0,.7-3.25,22.8,22.8,0,0,0-2.92-9.33l0-.05c0-.1,0-.2,0-.3a12.15,12.15,0,0,0-1.69-8.58,9.41,9.41,0,0,0-1.05-8.81,19.64,19.64,0,0,0-5.24-5.41.43.43,0,0,1,0,0c.37-3-1.59-5.66-3.3-7.35a20.58,20.58,0,0,0-7.21-4.57.63.63,0,0,0-.42-.57H225c-.09-.17-.17-.36-.26-.56-1-2.15-2.71-6-6.41-7.55a.49.49,0,0,0-.05-.16c-1.08-2.16-5.66-6.19-11.91-7.14a15.43,15.43,0,0,0-16.44-4.13c-1.62-2.31-4.76-3.05-7.2-2.71a23.51,23.51,0,0,0-3.57,1.09,7.67,7.67,0,0,0-6.19-1.83,16,16,0,0,0-1.61.23,2.68,2.68,0,0,0-1.5-1.81,5.49,5.49,0,0,0-2.23-.45,21.32,21.32,0,0,0-9.52,1.83,9.48,9.48,0,0,0-4.83-.44,13,13,0,0,0-8.42,4.17h0l-.1,0a5.34,5.34,0,0,0-1.08-.27,6.43,6.43,0,0,0-7.42,6,9,9,0,0,0-2.71-.37,8.55,8.55,0,0,0-5.45,2,6.76,6.76,0,0,0-2.29,4.56,4.26,4.26,0,0,0-.84-.53,6.48,6.48,0,0,0-3.79-.25,11.08,11.08,0,0,0-3,.91,7.72,7.72,0,0,0-4.19,7.22c-2.5-1.22-4.93-1.23-6.56,0a4.81,4.81,0,0,0-1.75,5.1c-.23,0-.45,0-.68,0a4.13,4.13,0,0,0-3.3,2.68,4.07,4.07,0,0,0,.2,3.1,10.49,10.49,0,0,0-5.57,2.11c-1.84,1.56-2.78,4.62-1.24,6.7a4.12,4.12,0,0,0,1.14,1,8.15,8.15,0,0,0-2.17.82c-2,1.12-3.52,3.74-2.54,6a4.6,4.6,0,0,0,2.31,2.27,7.65,7.65,0,0,0-.92.31,5.08,5.08,0,0,0-2.88,2.89,4.33,4.33,0,0,0,1.48,4.73A5.29,5.29,0,0,0,90,102.59a3.22,3.22,0,0,0-.84,2c0,1.2.88,2.33,2.43,3.1l.21.09a3.22,3.22,0,0,0-2,1.46,5,5,0,0,0-.41,4.39,2.86,2.86,0,0,0,.92,1.46,4.2,4.2,0,0,0-1.66,2.2,8,8,0,0,0,.25,4.61,4,4,0,0,0,.67,1.43,2.65,2.65,0,0,0,1,.76,4.46,4.46,0,0,0-1,1.75,8.63,8.63,0,0,0-.08,4,4.94,4.94,0,0,0,1.76,3.37,4,4,0,0,0-.33,2.58,11.38,11.38,0,0,0,1.52,4.72,2.38,2.38,0,0,0,.51.55,7.32,7.32,0,0,0-.07,4.44c.7,3.28,1.81,6.89,4.82,8.73a1.21,1.21,0,0,0,.18.05,38.3,38.3,0,0,0,1.1,12.21,20,20,0,0,0,1.25,3.27c-1-.36-2-.74-3-1.11-5.67-2.15-11-4.18-17.59-1.94-4.26,1.46-7.47,4.65-10.57,7.74a52.15,52.15,0,0,1-5.12,4.67c-6,4.56-21.54,13.75-35.11.73-5.34-5.12-7.89-9.82-7.8-14.39.09-5,3.26-10.07,10-16,5.38-4.78,8.21-9.91,8.39-15.24.16-4.64-6.37-10.8-10.75-11.31a3.21,3.21,0,0,0-3.83,2.78c-.4,2,1.44,3,3.22,3.93,2.72,1.45,5.53,2.95,3.81,7.85-1.23,3.51-4.28,6.39-7.22,9.17a49.62,49.62,0,0,0-4.21,4.28c-4.62,5.52-6.53,11.79-5.55,18.14,1.22,7.84,7,15.71,15.38,21a26.36,26.36,0,0,0,14.33,4.21C56,194.28,67.31,187,74.87,179c5.16-5.51,11.36-6.69,20.11-3.82.78.26,2.11.76,3.59,1.32,5.43,2.05,7.31,2.67,8.13,2.64a12.12,12.12,0,0,0,2,3.61,9.56,9.56,0,0,0,6.19,3,8.77,8.77,0,0,0,1.24,1.55,7,7,0,0,0,5,2.13,5.94,5.94,0,0,0,1.1-.1c.21.32.44.65.68,1,.81,1.1,2.92,1.69,4.59,1.71h.1a3.75,3.75,0,0,0,2.66-.84,6.38,6.38,0,0,0,3.25.82,13,13,0,0,0,2.51-.29l.57-.1a.63.63,0,0,0,.52-.39,49.08,49.08,0,0,0,17.6,3.27,47.28,47.28,0,0,0,5.83-.36c0,.09.06.18.09.27a6.25,6.25,0,0,0,3.47,3.41,5.8,5.8,0,0,0,2.11.4,5.14,5.14,0,0,0,2.37-.56,5,5,0,0,0,1.58-1.3,4.73,4.73,0,0,0,4,2.19,4.43,4.43,0,0,0,.81-.07,6.14,6.14,0,0,0,3.26-1.79,12.13,12.13,0,0,0,4,.7,8.7,8.7,0,0,0,6.24-2.35,7,7,0,0,0,1-1.3h.06a84.23,84.23,0,0,0,18.7-4,.64.64,0,0,0,.37-.35,5.32,5.32,0,0,0,3.12,2,4.43,4.43,0,0,0,.81.07c2.06,0,4.3-1.39,6.67-4.14a3.72,3.72,0,0,0,1.28.28h.06c2.66,0,5-2.93,6.95-8.69a4,4,0,0,0,.79.08h0c2.56,0,4.9-1.94,7-5.72,3.94-2.73,4.88-8.3,3.74-12.45l-.18-.61a13.29,13.29,0,0,0,3.12-4.23c1.32-2.85,1.57-6.07,1.74-9a3.89,3.89,0,0,0,2.72-1.77,7.8,7.8,0,0,0,1.07-3.31,21.72,21.72,0,0,0-.08-6.39l.05-.05A4.14,4.14,0,0,0,248.07,133.68Zm-29.82-11c-2.71-3.09-5.4-5.85-8.06-8.38,12.14.42,23.25,6.21,31.66,11.3a7.62,7.62,0,0,0,2.46,1.11,3.49,3.49,0,0,0,.71.07,3.07,3.07,0,0,0,1.4-.33,14.45,14.45,0,0,1,.42,6.94,3.25,3.25,0,0,1-.4,1.16,2.17,2.17,0,0,1-2.08.68,8.25,8.25,0,0,1-2.56-1.06,88.67,88.67,0,0,0-12.7-5.71c-2.12-.76-4.56-1.5-6.94-.9C220.71,125.68,219.38,124,218.25,122.73Zm28.45,1a2.81,2.81,0,0,1-.44,1.35,1.81,1.81,0,0,1-1.7.45,6.83,6.83,0,0,1-2.08-1c-8.85-5.35-20.67-11.5-33.66-11.51h0a103.75,103.75,0,0,0-12.9-10.12,15,15,0,0,1,6.48-.81c11.92.45,24.73,3.84,38.1,10.09a8.05,8.05,0,0,0,3.31.9,3.33,3.33,0,0,0,1.29-.24A19.78,19.78,0,0,1,246.7,123.73ZM245.57,109a3.24,3.24,0,0,1-.45,2.39c-.7.77-2.07.68-4.09-.27-13.52-6.32-26.5-9.75-38.58-10.21-2.66-.1-5.43,0-7.75,1.27a100.72,100.72,0,0,0-17.63-9c10-3.51,20.93-2.24,31.53-1l1,.11c10.15,1.19,21.66,2.54,31.08,8.07a3.51,3.51,0,0,0,1.66.55,1.39,1.39,0,0,0,.76-.23A21.4,21.4,0,0,1,245.57,109Zm-2.91-10a1.19,1.19,0,0,1-.17.56c-.15.15-.61,0-1.2-.31-9.65-5.66-21.3-7-31.58-8.23l-1-.11c-11.22-1.32-22.82-2.68-33.46,1.56-.74-.28-1.47-.55-2.18-.8A124,124,0,0,1,184.22,82c9.83-4.33,20.93-3,28.6-1.09a155.52,155.52,0,0,1,19,6.57c3,1.17,6,2.37,9.07,3.47A10.79,10.79,0,0,1,242.66,99Zm-2.55-16.56a8.54,8.54,0,0,1,1.17,7.11.63.63,0,0,0-.33,0c-2.9-1-5.81-2.2-8.63-3.31a153.44,153.44,0,0,0-19.19-6.62c-6.85-1.72-16.38-3-25.43-.29A115.73,115.73,0,0,1,199,72.16a57.45,57.45,0,0,1,30.71,4l.39.18a13.85,13.85,0,0,0,4.18,1.3h.25a1.56,1.56,0,0,0,.77-.19A18.25,18.25,0,0,1,240.11,82.44Zm-5.42-6.38a.73.73,0,0,0-.09.08.53.53,0,0,0-.11.24h-.11a12.24,12.24,0,0,1-3.78-1.2l-.41-.17a58.76,58.76,0,0,0-28.14-4.48c7.62-3.89,14.48-6.06,19.3-6a20,20,0,0,1,10.4,5.32C233.25,71.33,235,73.59,234.69,76.06Zm-67.17-36a4.54,4.54,0,0,1,1.75.32,1.48,1.48,0,0,1,.82,1,36.45,36.45,0,0,0-8.87,3.9,4.67,4.67,0,0,0-1.76-3.79A19.86,19.86,0,0,1,167.52,40.05ZM153.4,41.43a7.52,7.52,0,0,1,4.74.6,3.28,3.28,0,0,1,1.71,3.66.6.6,0,0,0,0,.35,85.35,85.35,0,0,0-8.64,6.15A12.3,12.3,0,0,0,148.45,47,9.81,9.81,0,0,0,146,45,12,12,0,0,1,153.4,41.43Zm-16,9.14a5.18,5.18,0,0,1,6-5.21,5.6,5.6,0,0,1,1.15.32l.05,0,.13,0a8.09,8.09,0,0,1,2.76,2,11,11,0,0,1,2.62,5.27c-2.23,1.83-4.47,3.83-6.71,5.94l-1.49-3.09a12.93,12.93,0,0,0-2.84-4.3,6.88,6.88,0,0,0-1.66-1Zm-8.56,2.1A7.23,7.23,0,0,1,133.51,51a6.82,6.82,0,0,1,4.75,1.58,12.15,12.15,0,0,1,2.54,3.91l1.67,3.46a144.18,144.18,0,0,0-10.13,10.86A47.62,47.62,0,0,0,127.8,59a12.25,12.25,0,0,0-1-1.5A.69.69,0,0,0,127,57,5.34,5.34,0,0,1,128.87,52.67Zm-10.24,4.88a9.92,9.92,0,0,1,2.69-.8,5.2,5.2,0,0,1,3.05.16,5.83,5.83,0,0,1,2.33,2.66,46.46,46.46,0,0,1,4.54,12,.65.65,0,0,0,.19.32q-2.81,3.39-5.36,6.92c-.42-.21-.84-.39-1.26-.59-2-5.17-4.77-10.79-9.66-13.86a.74.74,0,0,0,0-.21A6.53,6.53,0,0,1,118.63,57.55Zm-10.55,7.1c1.52-1.16,3.84-.64,5.5.23,4.77,2.51,7.54,7.64,9.58,12.59a43.72,43.72,0,0,0-10.08-2.74.6.6,0,0,0-.06-.22A10.3,10.3,0,0,0,108.93,70a8.23,8.23,0,0,0-2-1h0A3.68,3.68,0,0,1,108.08,64.65Zm-5.31,7.19A2.9,2.9,0,0,1,105.05,70a4.79,4.79,0,0,1,3.18,1,9.27,9.27,0,0,1,3.38,3.49,43,43,0,0,0-8.41-.12A2.86,2.86,0,0,1,102.77,71.84ZM96,82.59c-1.12-1.51-.36-3.8,1-5a10.19,10.19,0,0,1,5.66-1.9.68.68,0,0,0,.28.07.6.6,0,0,0,.34-.11,42,42,0,0,1,22,4.17c-1.81,2.54-3.49,5.12-5,7.69l-.09-.06a44.68,44.68,0,0,0-18.26-3.38l-1.21,0a.67.67,0,0,0-.42-.16L98.87,84A4.06,4.06,0,0,1,96,82.59Zm-3.42,8.13c-.71-1.64.49-3.58,2-4.43a9.6,9.6,0,0,1,4.27-1,22,22,0,0,0,3.13.07,43.44,43.44,0,0,1,17.69,3.27l-.28.47c-.7,1.23-1.51,2.72-2.38,4.43a10,10,0,0,0-3.86-.7c-4.73-.16-9.51-.15-14.33.06a12.67,12.67,0,0,1-3.65-.19A3.73,3.73,0,0,1,92.57,90.72Zm-1.46,6.37A3.79,3.79,0,0,1,93.29,95a8.52,8.52,0,0,1,3.36-.56.63.63,0,0,0,.48-.24c.6,0,1.21,0,1.83,0,4.69-.2,9.44-.21,14.13,0a9.21,9.21,0,0,1,3.34.58c-1.18,2.35-2.47,5.06-3.8,8-5.55-2-11.59-1.89-15.72-1.58a11.51,11.51,0,0,1-3.43-.07.58.58,0,0,0-.51-.16,3.86,3.86,0,0,1-.7-.36A3.09,3.09,0,0,1,91.11,97.09Zm-.73,7.51a2.09,2.09,0,0,1,.54-1.2,3.91,3.91,0,0,1,2-1.23,11.61,11.61,0,0,0,4.11.18c4-.3,9.8-.45,15.1,1.47-.83,1.87-1.66,3.84-2.5,5.88-2.79-1.46-6-1.59-9.09-1.69s-5.9-.21-8.43-1.45C91.58,106.3,90.37,105.6,90.38,104.6Zm.41,5.37c.61-.86.9-.91,2-1.11l.45-.09a.63.63,0,0,0,.41-.3,28.74,28.74,0,0,0,6.87.79c3.13.11,6.1.22,8.66,1.6-.51,1.26-1,2.54-1.51,3.84a17,17,0,0,0-7.57-1.1c-1.22.06-2.45.19-3.64.31-1.51.16-3.07.32-4.6.34a1.68,1.68,0,0,1-.71-.09,1.4,1.4,0,0,1-.56-.91A3.9,3.9,0,0,1,90.79,110Zm-.71,11.57a6.75,6.75,0,0,1-.26-3.87,2.49,2.49,0,0,1,2.5-1.88.62.62,0,0,0,.65-.34c1.21-.06,2.42-.17,3.59-.29s2.38-.25,3.57-.3a15.6,15.6,0,0,1,7.06,1q-1,2.7-2,5.49c-3.66-1.27-7.74-.08-11,1.18a11,11,0,0,1-1.44.48l-.16,0a2.68,2.68,0,0,0-.49.11,1.9,1.9,0,0,1-1.58-.58A3,3,0,0,1,90.08,121.54Zm.59,8.06a7.43,7.43,0,0,1,0-3.38,2.91,2.91,0,0,1,1.64-1.86,8.93,8.93,0,0,0,2.39-.67c3-1.15,6.77-2.27,10.05-1.13-.8,2.36-1.57,4.75-2.28,7.15a3.56,3.56,0,0,0-2.86.06,42.92,42.92,0,0,0-5.71,2.17,3.87,3.87,0,0,1-1.32.42.48.48,0,0,0-.24,0C91.2,132.11,90.77,130.2,90.67,129.6Zm1.44,6c-.1-.62-.1-1.66.36-1.95h.12a4.61,4.61,0,0,0,1.91-.56,41.47,41.47,0,0,1,5.55-2.1c1-.31,1.45-.43,2.1,0-.87,3-1.64,6-2.29,9l-5.57.23a1.29,1.29,0,0,1-.61-.06.91.91,0,0,1-.25-.29A10.12,10.12,0,0,1,92.11,135.57Zm5.79,17.25c-2.3-1.68-3.24-4.76-3.85-7.61a5.92,5.92,0,0,1,.07-3.82h.22l5.25-.22A87.76,87.76,0,0,0,97.9,152.82Zm3.11-11.9a.63.63,0,0,0,.16-.44.37.37,0,0,0,0-.14,180.64,180.64,0,0,1,7.3-24.18.58.58,0,0,0,.3-.26.64.64,0,0,0,0-.54c1.51-4,3.09-7.83,4.66-11.39a.59.59,0,0,0,.21-.26.63.63,0,0,0,0-.3c1.34-3,2.67-5.82,3.95-8.34a.59.59,0,0,0,.42-.83c.85-1.66,1.68-3.19,2.46-4.55,13.11-23,39.14-46.54,52.54-47.61a6.83,6.83,0,0,1,4.75,1.09C169.71,46.5,152.63,56.32,133.46,84c-17.8,25.7-25.48,50.37-27.37,88,0,1-.06,1.8,0,2.58a14.1,14.1,0,0,1-5.91-8.46C98.27,159.65,99,150.64,101,140.92Zm-2,34.35c-1.52-.57-2.84-1.07-3.64-1.33-9.27-3-15.88-1.76-21.42,4.15C63.08,189.7,46,198.67,30.81,189,22.7,183.85,17.16,176.31,16,168.82c-.95-6.06.83-11.83,5.27-17.14a51.5,51.5,0,0,1,4.1-4.17c3.06-2.88,6.22-5.86,7.55-9.67,2.08-5.91-1.67-7.91-4.4-9.37-1.79-1-2.79-1.55-2.59-2.57a2,2,0,0,1,2.46-1.78c3.77.44,9.77,6.11,9.63,10-.17,5-2.78,9.73-8,14.34-7,6.19-10.27,11.57-10.37,16.93-.09,4.93,2.58,9.94,8.18,15.32,14.28,13.69,30.45,4.12,36.74-.64a52.76,52.76,0,0,0,5.26-4.78c3-3,6.1-6.07,10.09-7.44,6.13-2.1,11.28-.14,16.73,1.92,1.43.54,2.9,1.1,4.41,1.6h0a13.49,13.49,0,0,0,5,4.69h0c.06.64.14,1.21.24,1.73C105.17,177.59,101.37,176.16,99,175.27ZM109.7,182c-1.44-2-2.67-3.62-2.36-9.91,1.89-37.36,9.5-61.85,27.16-87.35C154,56.5,171.22,47.08,178.78,44.1c.06,0,.12,0,.17-.07a24.25,24.25,0,0,1,3.91-1.22,6.51,6.51,0,0,1,5.79,1.89,36.05,36.05,0,0,0-8.84,5.08c-47.95,35.36-56.78,69.85-63.22,95-5.87,22.94-5,34.11-2.46,39.51A8.48,8.48,0,0,1,109.7,182Zm7.29,4.36a8.64,8.64,0,0,1-1.22-1.57.18.18,0,0,0,0-.07c-2.79-4.65-4.1-15.34,2.09-39.56,6.75-26.39,15.15-59.23,62.74-94.33,6.27-4.62,15.38-9.72,23.74-2.57a17.44,17.44,0,0,0-4.89.49c-4,1-25,7.52-49.16,42.41-19.06,27.52-27.94,54-29.68,88.63-.22,4.34.12,6.53,1,8.31A5.73,5.73,0,0,1,117,186.32Zm10.5,4.36c-1.48,0-3.13-.57-3.59-1.2-1.54-2.09-2.39-3.56-2.08-9.67,1.73-34.35,10.54-60.66,29.46-88,23.9-34.5,44.53-41,48.42-41.9a16.54,16.54,0,0,1,6-.33l.15.15a.64.64,0,0,0,.89,0h0a17.93,17.93,0,0,1,9.62,5.35,11.14,11.14,0,0,0-3.75,0c-.3,0-30.39,5.06-56.27,42.43-19.68,28.4-26.85,48.28-29.53,81.79-.43,5.36.38,9.05,2.37,11A3.28,3.28,0,0,1,127.49,190.68Zm8.26-.3c-1.32.25-3.78.72-5.53-.85s-2.52-5-2.11-10.12c2.65-33.25,9.77-53,29.3-81.18C183,61.31,212.54,56.38,212.84,56.34c6.6-1,9.17,4.06,10.55,7.09a14,14,0,0,0-2.11-.19c-.21,0-.41-.09-.62-.12a.55.55,0,0,0-.48.12c-9.27.32-23.52,7.28-36.85,17.75l-.38.16a.63.63,0,0,0-.33.4,129.39,129.39,0,0,0-10.9,9.73.63.63,0,0,0-.47.4s0,.06,0,.09a96.84,96.84,0,0,0-15.15,19.53c-9.22,16.13-27,62.24-19.83,79Zm.79-18.42a30.27,30.27,0,0,0,21.39,1.53c.41,2.9.79,5.81,1.12,8.72a.61.61,0,0,0-.19,0,52.91,52.91,0,0,1-12.45.18c-3.4-.22-7.26-.47-10.49-2.09A65,65,0,0,1,136.54,172Zm.35-1.22a.47.47,0,0,0-.16,0c.45-3.08,1.08-6.32,1.86-9.66a24,24,0,0,0,17.61,1.58c.56,3.19,1.08,6.4,1.55,9.61A29,29,0,0,1,136.89,170.74Zm2-11c.64-2.62,1.35-5.29,2.14-8h0a30.58,30.58,0,0,0,7.85,1c.48,0,1,0,1.44,0l.49,0a7.34,7.34,0,0,0,3.33-.7q1,4.62,1.82,9.29A23.15,23.15,0,0,1,138.89,159.79Zm11.89-8.27-.5,0a30,30,0,0,1-8.9-.94c.89-3,1.84-5.92,2.85-8.84a.31.31,0,0,0,.1,0,16.93,16.93,0,0,0,4.31.55,16.52,16.52,0,0,0,3.06-.29c.89,2.91,1.57,5.85,2.2,8.74A5.81,5.81,0,0,1,150.78,151.52Zm-6.13-10.92h0c1-2.76,2-5.47,3-8.1a44.12,44.12,0,0,1,3.67,8.37A15.8,15.8,0,0,1,144.65,140.6Zm-7.18,49.33a22.6,22.6,0,0,1-1.53-8.25c3.31,1.48,7.06,1.74,10.39,2,2.18.14,4.39.28,6.6.28a35.33,35.33,0,0,0,6.15-.48l.1,0c.27,2.46.53,4.91.74,7.37a20.51,20.51,0,0,0,.26,2A47.66,47.66,0,0,1,137.47,189.93Zm30.5,6.52a4.27,4.27,0,0,1-3.44.1,5,5,0,0,1-2.76-2.72,3.71,3.71,0,0,1-.16-.47.7.7,0,0,0,0-.12.75.75,0,0,0-.21-.58,19.22,19.22,0,0,1-.26-2,325.12,325.12,0,0,0-6-39.76c-1.42-6.62-3.12-13.61-6.87-19.72a.38.38,0,0,0-.1-.12l.9-2.23.14.05a48.19,48.19,0,0,1,8.54,2.24c6.11,15.43,9.18,32,12.15,48.08.74,4,1.57,8.51.74,12.72C170.39,193.49,169.66,195.57,168,196.45Zm6.78.69a3.38,3.38,0,0,1-3.75-2l-.06-.1a10.77,10.77,0,0,0,1-2.92c.87-4.45,0-9.09-.74-13.19-2.92-15.76-5.93-32-11.82-47.28a70.25,70.25,0,0,1,12.26,6.06,45.37,45.37,0,0,1,1.65,7.3l.25,1.52c.73,4.18,1.71,8.41,2.67,12.49,2.28,9.81,4.64,20,3.57,30a14.13,14.13,0,0,1-1.3,5.09A5.57,5.57,0,0,1,174.75,197.14Zm12.82-3.09c-2.3,2.31-5.89,2.26-8.48,1.49a8.39,8.39,0,0,0,.5-.81,15.18,15.18,0,0,0,1.44-5.55c1.09-10.26-1.29-20.51-3.6-30.42-1-4.07-1.92-8.28-2.65-12.43l-.25-1.51a59.09,59.09,0,0,0-1.25-6A73.42,73.42,0,0,1,184.69,148c1.35,7,2.63,14,3.6,20.91a.59.59,0,0,0,.11.79c.67,4.9,1.18,9.8,1.44,14.71C190,188.07,189.88,191.75,187.57,194.05ZM189.71,170c.44,0,.89.06,1.34.06a18.8,18.8,0,0,0,8.14-1.89c1.53,3,3.05,6.28,4.4,9.38a24.8,24.8,0,0,1-12.78,2.58C190.54,176.74,190.16,173.37,189.71,170Zm-.18-1.28q-.63-4.43-1.39-8.85a13.77,13.77,0,0,0,5.47-1.23c.33.47.67.93,1,1.42a73.58,73.58,0,0,1,4,7A17.38,17.38,0,0,1,189.53,168.71Zm-1.61-10.12q-.78-4.46-1.64-8.94a77.28,77.28,0,0,1,6.59,7.92A12.57,12.57,0,0,1,187.92,158.59Zm19.91,29.81a83.21,83.21,0,0,1-17.65,3.89,18.73,18.73,0,0,0,.92-7.91q-.09-1.5-.21-3c.51,0,1,.07,1.54.07a26.26,26.26,0,0,0,11.65-2.75c1.28,3,2.36,5.82,3,8a9.43,9.43,0,0,0,.87,1.73A.39.39,0,0,0,207.83,188.4ZM212,190c-2.46-.45-3.65-3.74-3.65-3.75-2.19-6.87-8.46-20.63-12.66-26.9a79.5,79.5,0,0,0-9.81-12,.62.62,0,0,0-.44-.42c-16.21-15.95-33.8-19-35.78-19.33,1.23-2.93,2.47-5.7,3.69-8.25a.6.6,0,0,0,.25.16c.32.11,32.69,10.8,49.72,39.12a80.89,80.89,0,0,1,12,23.86,8.27,8.27,0,0,0,2.8,4C215.78,189.15,213.73,190.33,212,190Zm8.55-3.81c-2,0-3.63-2.67-4-4A82.09,82.09,0,0,0,204.32,158c-17.23-28.66-50-39.5-50.38-39.61h-.12c1.16-2.37,2.29-4.54,3.36-6.42.31-.53.64-1.06,1-1.59.57.18,33.56,11,52.5,40.43,2.11,3.27,4.67,8.82,7.15,14.19,1.83,4,3.56,7.72,5,10.31a7.66,7.66,0,0,0,3.49,3.17C224.56,183.46,222.51,186.19,220.51,186.19Zm7.8-8.61h0c-2.19,0-3.84-1.91-4.41-2.93-1.41-2.55-3.13-6.28-4.95-10.23-2.5-5.4-5.07-11-7.23-14.34-18.33-28.46-49.64-39.75-52.9-40.86a88.75,88.75,0,0,1,6-8.38,5.74,5.74,0,0,0,1.8,1.15c1.52.69,3,1.36,4.56,2,7.58,3.34,15.42,6.79,22,11.93a97.6,97.6,0,0,1,12.19,11.6c11.16,12.39,23.48,27.11,28.78,45.07C232.34,175.85,230.33,177.57,228.31,177.58Zm6.85-5.93c-5.47-17.94-17.75-32.59-28.87-44.94A98.74,98.74,0,0,0,193.93,115c-6.69-5.24-14.6-8.72-22.25-12.09l-4.55-2a4.18,4.18,0,0,1-1.52-1c2.06-2.49,4.24-4.9,6.52-7.2q1.37.48,2.79,1a.63.63,0,0,0,.23.08C187,98.28,202,106,217.3,123.56c5.56,6.35,16.12,21.39,20.52,37.44C238.77,164.51,238.13,169.12,235.16,171.65Zm5.67-16.35a12,12,0,0,1-2.39,3.4,93.79,93.79,0,0,0-7.8-18,9.65,9.65,0,0,1,5.35,2.05c.52.35,1,.73,1.54,1.1a23.18,23.18,0,0,0,3.94,2.52,5.89,5.89,0,0,0,1,.36C242.29,149.57,242.06,152.66,240.83,155.3Zm5.42-13.71a6.68,6.68,0,0,1-.87,2.79,2.67,2.67,0,0,1-2,1.24.55.55,0,0,0-.25-.07.4.4,0,0,0-.19,0,4.7,4.7,0,0,1-1-.32,22.32,22.32,0,0,1-3.72-2.39c-.53-.38-1.05-.77-1.58-1.13-2.39-1.64-4.41-2.36-6.37-2.28a.61.61,0,0,0-.34.14,119,119,0,0,0-7-10.88,12,12,0,0,1,5.71,1,88.64,88.64,0,0,1,12.61,5.68,8.68,8.68,0,0,0,2.88,1.16,4.32,4.32,0,0,0,.62.05,3.72,3.72,0,0,0,1.47-.31A20.16,20.16,0,0,1,246.25,141.59Z"/>
        <path class="cls-12" d="M24.53,155.15l.36-.46-.12,0C24.69,154.82,24.6,155,24.53,155.15Z"/>
      </g>
    </g>
  </g>
</svg>
