<svg id="Layer_1" data-name="Layer 1" xmlns="http://www.w3.org/2000/svg" width="302.55" height="291.6" viewBox="0 0 302.55 291.6">
  <defs>
    <style>
      .cls-1 {
        fill: #050505;
        opacity: 0.5;
      }

      .cls-2 {
        fill: #fff;
      }

      .cls-3 {
        fill: #fcd6c5;
      }

      .cls-4 {
        fill: #ffbb34;
      }

      .cls-5 {
        fill: #f2a150;
      }

      .cls-6 {
        fill: #ffe952;
      }

      .cls-7 {
        fill: #fa8d5f;
      }

      .cls-8 {
        fill: #a34c29;
      }

      .cls-9 {
        fill: #e06531;
      }

      .cls-10 {
        fill: #5e2020;
      }
    </style>
  </defs>
  <g>
    <path class="cls-1" d="M244.68,289.89c-16,0-31.77-7.71-42.31-20.63C188.6,252.4,184,230.12,190.63,212.49a49.64,49.64,0,0,1,2.59-5.76c-16.07-13.51-31.89-27.52-47.24-41.11q-9.73-8.61-19.5-17.2-17.87-15.69-35.79-31.31c-14-12.18-28.37-24.77-42.51-37.2l-2.67-2.35a11.68,11.68,0,0,1-3,.38,14.13,14.13,0,0,1-7.65-2.41c-.5-.33-1-.68-1.48-1a8,8,0,0,1-3.1-6.87l.07-1c.05-.78.11-1.56.17-2.34l-6-5.34C19.39,54.25,14,49.46,8.85,44.62l-.78-.72-.16-.16a8,8,0,0,1-1.18-10.5,10,10,0,0,1,.95-1.18c.22-.24.46-.47.7-.69a11.16,11.16,0,0,1,1.68-1.26,26.92,26.92,0,0,1,15.13-4.26H26a14.78,14.78,0,0,1-.16-4.71c.78-6.36,6-10.88,11.45-12.67A10,10,0,0,1,43,6.72a11.26,11.26,0,0,1,5.7,1.59,16.9,16.9,0,0,1,10.82,9.54,15,15,0,0,1-4.63,17.77c-.17,1.23-.36,2.62-.54,4.08,2,1.41,4.23,2.9,6.73,4.56,1,.65,2,1.32,3,2l3.42,2.28,2-.43,3.67-.79a7.68,7.68,0,0,1,1.57-.16,8,8,0,0,1,5.33,2l.4.36c.85.79,1.71,1.62,2.56,2.45l.54.54a8,8,0,0,1,2.38,6l7.9,7.26c9.38,8.64,18.08,16.73,26.59,24.72l92.91,71.91,24.7,19.06.55.08c1.12,0,2.26.12,3.38.24a63.77,63.77,0,0,1,10.22,1.94c2.09.56,4.18,1.23,6.23,2a61.18,61.18,0,0,1,23.78,14.67c5,4.92,11.19,12.73,12.78,22.18.26.85.49,1.72.7,2.59a53.2,53.2,0,0,1-1,28.05,11.1,11.1,0,0,1,4.82,3.4c4.26,5.18,3.32,12.39.5,17.24a15.19,15.19,0,0,1-13,7.71h0a13.71,13.71,0,0,1-9.16-3.48,53.6,53.6,0,0,1-26.13,11.29A48,48,0,0,1,244.68,289.89Z"/>
    <path class="cls-2" d="M239.68,284.89c-16,0-31.77-7.71-42.31-20.63C183.6,247.4,179,225.12,185.63,207.49a49.64,49.64,0,0,1,2.59-5.76c-16.07-13.51-31.89-27.52-47.24-41.11q-9.73-8.61-19.5-17.2-17.87-15.69-35.79-31.31c-14-12.18-28.37-24.77-42.51-37.2l-2.67-2.35a11.68,11.68,0,0,1-3,.38,14.13,14.13,0,0,1-7.65-2.41c-.5-.33-1-.68-1.48-1a8,8,0,0,1-3.1-6.87l.07-1c.05-.78.11-1.56.17-2.34l-6-5.34C14.39,49.25,9,44.46,3.85,39.62l-.78-.72-.16-.16a8,8,0,0,1-1.18-10.5,10,10,0,0,1,1-1.18c.22-.24.46-.47.7-.69a11.16,11.16,0,0,1,1.68-1.26,26.92,26.92,0,0,1,15.13-4.26H21a14.78,14.78,0,0,1-.16-4.71c.78-6.36,6-10.88,11.45-12.67A10,10,0,0,1,38,1.72a11.26,11.26,0,0,1,5.7,1.59,16.9,16.9,0,0,1,10.82,9.54,15,15,0,0,1-4.63,17.77c-.17,1.23-.36,2.62-.54,4.08,2,1.41,4.23,2.9,6.73,4.56,1,.65,2,1.32,3,2l3.42,2.28,2-.43,3.67-.79a7.68,7.68,0,0,1,1.57-.16,8,8,0,0,1,5.33,2l.4.36c.85.79,1.71,1.62,2.56,2.45l.54.54a8,8,0,0,1,2.38,6l7.9,7.26c9.38,8.64,18.08,16.73,26.59,24.72l92.91,71.91,24.7,19.06.55.08c1.12,0,2.26.12,3.38.24a63.77,63.77,0,0,1,10.22,1.94c2.09.56,4.18,1.23,6.23,2a61.18,61.18,0,0,1,23.78,14.67c5,4.92,11.19,12.73,12.78,22.18.26.85.49,1.72.7,2.59a53.2,53.2,0,0,1-1,28.05,11.1,11.1,0,0,1,4.82,3.4c4.26,5.18,3.32,12.39.5,17.24a15.19,15.19,0,0,1-13,7.71h0a13.71,13.71,0,0,1-9.16-3.48,53.6,53.6,0,0,1-26.13,11.29A48,48,0,0,1,239.68,284.89Z"/>
    <g>
      <path class="cls-3" d="M32.41,38.58l-.52-.44-.06,0-.06,0h0l.06,0,.06,0,.52.43.13.1Zm1.86.9L34,39.41l-.28-.09-.27-.12c-.18-.07-.35-.19-.53-.28l-.25-.17c.09,0,.16.11.25.17s.35.21.53.28l.27.12.28.08a1.64,1.64,0,0,0,.28.07l.28,0Zm.83,0h0l.26,0Zm1.14-.37h0Zm5.11,3.13c-1.57-1-3.14-2.07-4.69-3.13,0-.14,0-.28,0-.43,3,2.17,6,4.37,9.07,6.43Z"/>
      <g>
        <path class="cls-4" d="M215.67,195.6a2.87,2.87,0,0,0-2.09-.39,1.53,1.53,0,0,0-.11,2.92,1.79,1.79,0,0,0,2.67-1.12A1.64,1.64,0,0,0,215.67,195.6Z"/>
        <path class="cls-4" d="M217.76,212.88a.08.08,0,0,1-.08,0c-1-.79-2.36-1.06-3.21,0a2.09,2.09,0,0,0,.69,3.11,2.12,2.12,0,0,0,3-1.24A2,2,0,0,0,217.76,212.88Z"/>
        <path class="cls-4" d="M240.93,231.07a2.71,2.71,0,0,0-3.22.15,2.51,2.51,0,0,0,.47,3.91,2.46,2.46,0,0,0,2.75-4.06Z"/>
        <path class="cls-4" d="M279.4,224a3.38,3.38,0,0,0-.63-1.51c-.69-.69-1.58-1.31-2.43-.45s-.25,2.37.54,3.17c.52.53,1.49,1.2,2.16.52A2.08,2.08,0,0,0,279.4,224Z"/>
        <path class="cls-4" d="M259.43,233.07a2.35,2.35,0,0,0-1.68,3.07c.48,1.3,2.28,2.24,3.51,1.27s.86-2.44.22-3.61A2.15,2.15,0,0,0,259.43,233.07Z"/>
      </g>
      <g>
        <path class="cls-5" d="M272.58,203.73a57.43,57.43,0,0,0-13.46-10.8,79,79,0,0,0-10.33-4.35,59.22,59.22,0,0,0-12.85-3,38.67,38.67,0,0,0-4.56-.22l16.75,12.92,3.57-2.11.69-.39.36.14a22.38,22.38,0,0,1,3.35,1.78h0l.2.13v0a2.33,2.33,0,0,1-.07.25c-.27,1-.55,2-.84,3-.16.53-.3,1.08-.46,1.63,0,.12-.07.24-.1.37h0a22,22,0,0,1,2,4.27,1.27,1.27,0,0,1,.06.18l-.42.27-1.12.71,10.34,19.93q.47-.19.93-.42l.29-.15.12-.06.41-.23a17.1,17.1,0,0,0,2.35-1.56A14.23,14.23,0,0,0,273,207s0,0,0,0a14.53,14.53,0,0,1,.38,17.41,15.78,15.78,0,0,1-5.3,4.47,2.64,2.64,0,0,1-.29.15l-.23.12-.11.05c-.35.17-.7.33-1.06.47l4.48,8.65a21.12,21.12,0,0,0,4-2.65,19.56,19.56,0,0,0,4.1-4.91C284.42,221.45,279.13,210.88,272.58,203.73Zm4.23,21.9c-1-.93-1.86-2.67-.69-3.83s2.84.13,3.35,1.32c0,0,0,0,0,0a3,3,0,0,1,.28,1.82C279.44,226.67,277.85,226.59,276.81,225.63Z"/>
        <path class="cls-5" d="M250.5,231.22a48.85,48.85,0,0,1-23.73-9.83c-5.51-4.39-9.91-9.79-10.7-16.19a14.58,14.58,0,0,1,9.57-15.09c.06,0,.11,0,.05.08-5.54,2.83-8.68,8.18-8.55,13.39.15,5.89,4.13,11.27,8.87,15.43a46.73,46.73,0,0,0,19.89,10c6.09,1.46,13,2,18.92-.18l-10.4-19.69q-2.44,1.53-4.9,3c-1.86,1.13-3.7,2.32-5.59,3.43v0h0l-.41.23-.06,0a.61.61,0,0,1,0-.12l-.37-.25c-1.83-1.29-3.62-2.64-5.4-4l-2-1.48-.71-.54c.22-.17.46-.33.7-.48.47-.3,1-.56,1.45-.82a19,19,0,0,1,1.87-.88c.43-1.26.87-2.51,1.29-3.77l.12-.35.12-.38.32-.2.09-.06c1.94-1.22,3.95-2.34,5.91-3.51l.2-.12-17.36-13.53-1.22.09a23.92,23.92,0,0,0-13.05,5.18l-.38.33a20,20,0,0,0-3,3.31,17,17,0,0,0-2.71,5.87c0,.13-.07.27-.1.41a18.73,18.73,0,0,0,1.25,11.8,49.43,49.43,0,0,0,7.47,11.35,59.24,59.24,0,0,0,35.77,17.29A32,32,0,0,0,270,238.74l-4.59-8.69A32.14,32.14,0,0,1,250.5,231.22Zm-37.17-32.7a1.87,1.87,0,0,1-.7-3,2.25,2.25,0,0,1,2.69-.5,2.19,2.19,0,0,1,.78.56,2.37,2.37,0,0,1,.25.29,0,0,0,0,1,0,.06,1.86,1.86,0,0,1,.21,1.18C216.33,198.68,214.6,199.1,213.33,198.52Zm1.84,18a2.49,2.49,0,0,1-.94-3.74,2.32,2.32,0,0,1,3-.61,2.27,2.27,0,0,1,1.48,2.48A2.52,2.52,0,0,1,215.17,216.48Zm23.08,19.08a2.82,2.82,0,0,1-1-4.12,2.75,2.75,0,0,1,3.34-1,2.83,2.83,0,0,1,1.75,3.17A2.87,2.87,0,0,1,238.25,235.56Zm24.12,1.09a2.07,2.07,0,0,1-.84,1.19,2.9,2.9,0,0,1-4.28-1.51,2.87,2.87,0,0,1,1.95-3.66,2.61,2.61,0,0,1,2.89,1.29A2.77,2.77,0,0,1,262.37,236.65Z"/>
      </g>
      <g>
        <path class="cls-6" d="M255.71,205.57c-.3-.71-.62-1.42-1-2.12l-.09-.2-.5.32-1,.63,2.14,4.11,1.17-.67C256.22,207,256,206.25,255.71,205.57Z"/>
        <path class="cls-6" d="M254.3,203.13l.12-.36c0-.07.05-.15.08-.22.17-.52.36-1,.52-1.53.32-1,.65-1.94,1-2.91-1.5,1-3,1.9-4.54,2.83v0L253,203.9Z"/>
        <path class="cls-6" d="M255.73,197.94c-1.22-.51-2.46-1-3.66-1.55-1.19.74-2.38,1.48-3.58,2.21l2.64,2Q253.43,199.27,255.73,197.94Z"/>
        <path class="cls-6" d="M242.19,211.15l0-.23.1,0c.06-.25.12-.49.19-.73l.15-.59h0c.35-1.32.73-2.64,1.19-3.93l.18-.49-.21-.11-1.88-1-1.15-.6a23.36,23.36,0,0,1-1.09,3.69c-.1.25-.2.5-.31.74l-.67.39-1,.59c-.41.25-.83.53-1.26.8l2.12,1.67,1,.78.2.16c1.13.88,2.26,1.78,3.37,2.69a18.71,18.71,0,0,1-.81-3.32C242.23,211.46,242.21,211.3,242.19,211.15Z"/>
        <path class="cls-6" d="M244.11,204.76a0,0,0,0,0,0,0l.67-.4c1.57-.95,3.17-1.86,4.73-2.8l.47-.27-2.61-2-.11.06c-2,1.2-3.95,2.48-6,3.66l.87.55Z"/>
        <path class="cls-6" d="M250.38,201.6l-.37.23c-1.78,1.08-3.55,2.21-5.35,3.29l-.07,0c0,.08-.05.17-.08.25a45.35,45.35,0,0,1-1.52,4.38c1.72-1,3.48-2,5.19-3.06L252,204.5l-1.5-2.84Z"/>
        <path class="cls-6" d="M248.65,207c-1.93,1.18-3.85,2.42-5.82,3.57.34,1.5.69,3,1,4.52,1.73-1.06,3.5-2.06,5.23-3.1l5.22-3.07-2.14-4.06Z"/>
        <path class="cls-6" d="M52.74,58.47c0-.09.06-.19.09-.28l-.34-.29-.29-.24c-.74-.62-1.48-1.25-2.2-1.9-.12.47-.24.93-.35,1.39s-.18.68-.26,1l-.09.38c0,.18-.08.35-.13.53s-.06.28-.1.42c-.08.33-.16.65-.25,1l.36.38,1,1.13.47.55c.22.26.45.52.67.79.08-.31.17-.62.25-.93s.09-.33.14-.49.09-.31.13-.47c.09-.31.18-.62.28-.93C52.32,59.84,52.53,59.15,52.74,58.47Z"/>
        <path class="cls-6" d="M69.63,54.14l-1.69.45c-1.41.38-2.82.74-4.23,1.1l3,2.3,3.92-.87L71,57c.12-.44.25-.88.37-1.31.23-.75.45-1.5.69-2.25Z"/>
        <path class="cls-6" d="M63.16,55.11c1.43-.34,2.86-.66,4.3-1l1.75-.38,2.78-.6h0c-1-.83-2-1.67-2.92-2.53l-2.58.69-1.6.43-3.19.83-.32.08-1,.27-.2.05L63,55.14Z"/>
        <path class="cls-6" d="M62.19,55.34l-2.41-1.87-.4-.31c-1.62.4-3.24.81-4.87,1.2l-.44.11-.71.18c-.91.22-1.83.48-2.76.73.74.71,1.48,1.42,2.21,2.14l.26-.06c.23-.06.47-.1.7-.15l2.07-.46Z"/>
        <path class="cls-6" d="M62.9,55.89c-2.19.55-4.38,1.1-6.58,1.63-.91.23-1.83.49-2.76.74h-.05c0,.13-.07.27-.11.4-.21.8-.44,1.59-.67,2.39l.15.13c1.21-.3,2.44-.52,3.62-.81q3.66-.89,7.32-1.74l2-.46-2.54-2Z"/>
      </g>
      <g>
        <path class="cls-7" d="M37.3,12.5a4,4,0,0,0,2.24.44,1.29,1.29,0,0,0,1-1.46,1.07,1.07,0,0,0-.09-.27.41.41,0,0,1,0-.09c-.29-.14-.56-.32-.84-.49a3.48,3.48,0,0,0-1.12-.48,1.76,1.76,0,0,0-1.65.49,1.18,1.18,0,0,0-.3.56C36.41,11.64,36.61,12.14,37.3,12.5Z"/>
        <path class="cls-8" d="M41,24.57l.38-.07c3.21-.61,6.06-2.69,5.63-6.45s-3.17-5.49-6.23-6.7a1.49,1.49,0,0,1-.06,1.27c-.64,1.25-2.39.89-3.42.42a2,2,0,0,1-1.27-1.7,17.43,17.43,0,0,0-3.7,1.33A6,6,0,0,0,29.1,18c.24,3.49,3.51,5.43,6.75,6.25l.42.1a15.5,15.5,0,0,0,2.58.36A11.53,11.53,0,0,0,41,24.57Z"/>
        <path class="cls-5" d="M36.52,39.87l.24.16c.18.09.35.21.53.28l.27.12.27.08a1.28,1.28,0,0,0,.28.07l.27,0a1.22,1.22,0,0,0,.27,0,1.18,1.18,0,0,0,.27,0,1.74,1.74,0,0,0,.51-.13,1.33,1.33,0,0,0,.24-.1.41.41,0,0,0,.11-.07l.07,0,.2,0c0-.15,0-.31.05-.47l0-.34.15-1.33c.37-3.29.78-6.57,1.32-9.84a4.32,4.32,0,0,1-.71-2.5,13.54,13.54,0,0,1-4.43-.21A4.07,4.07,0,0,1,36,27.71a32.64,32.64,0,0,0,4.72.85,0,0,0,1,1,0,0,17.44,17.44,0,0,1-5.2-.22h0q.12,3.2.14,6.37v1c0,.15,0,.29,0,.43,0,1,0,2,0,3l.12.08.51.43Z"/>
        <path class="cls-7" d="M39.91,41.61h0a3.61,3.61,0,0,1-.8.2c-.13,0-.26,0-.4,0s-.27,0-.4,0a2.44,2.44,0,0,1-.39-.06,1.7,1.7,0,0,1-.39-.09l-.37-.11-.35-.15a7,7,0,0,1-.66-.36c-.11-.06-.21-.14-.32-.21l-.18-.12c0,.76,0,1.53,0,2.29a4.48,4.48,0,0,0,.7.67,3,3,0,0,0,3.35.48C39.73,43.32,39.82,42.46,39.91,41.61Z"/>
        <path class="cls-5" d="M38.61,60.18Q36.83,58.61,35.06,57c-.17,2-.4,3.94-.72,5.89a6.54,6.54,0,0,0,4.37,1C38.64,62.64,38.61,61.41,38.61,60.18Z"/>
      </g>
      <g>
        <path class="cls-9" d="M45.29,43.33l4.35,2.83c-3-2-6-4.19-8.94-6.32,0,.14,0,.28,0,.42C42.19,41.3,43.75,42.31,45.29,43.33Z"/>
        <path class="cls-9" d="M58.91,52.07l.54.34.76-.18.21,0a78.84,78.84,0,0,1-8.31-4.43l2.69,1.72Z"/>
        <path class="cls-9" d="M86,71.7Q78.7,64.88,71.47,58L71,57.49l-.11,0-3.57.95L94,79.13Z"/>
        <path class="cls-8" d="M99.94,84.65l-33.45-26L66,58.8l-2,.52c-2.34.58-4.67,1.17-7,1.74-1.07.26-2.15.58-3.24.86L56,63.86Q64.53,71.26,73,78.7q16.9,14.76,33.62,29.74,33.5,30.06,67.3,59.82c9.88,8.73,19.75,17.45,29.39,26.41l0,0a39,39,0,0,1,8.64-6.27c-20.4-17.93-40-36.82-59.83-55.32Q126.11,108.84,99.94,84.65Z"/>
        <path class="cls-9" d="M75.81,83.61q-9.36-8.3-18.61-16.72l-4.9-4.43c-.11.36-.22.73-.34,1.09,0,.14-.09.27-.13.41s-.16.49-.25.73l-.5-.4c-.91-.74-1.81-1.5-2.68-2.27h0l-.89-.79q.24-.81.51-1.62c.09-.26.18-.54.28-.81-2.77-2.53-5.52-5.09-8.22-7.69l-1-1c0-.18,0-.35.05-.53l.95.77c2.13,1.73,4.24,3.49,6.34,5.26l.57.49,1.71,1.45c.07-.22.15-.44.22-.66.13-.4.26-.81.4-1.22,0-.14.09-.29.14-.43s.13-.4.19-.6l.16,0,.5-.11h0c.87-.18,1.73-.36,2.58-.56l1.48-.35.35-.09,3.84-.91L54.44,50c-1.61-1-3.21-2-4.82-3l-.39-.24-4.44-2.71c-1.42-.84-2.83-1.69-4.25-2.52-.06.68-.11,1.37-.16,2,0,.2,0,.41,0,.61a2.7,2.7,0,0,1-.76.52,3.24,3.24,0,0,1-2.06.24,4,4,0,0,1-1.93-1,4.39,4.39,0,0,1-.71-.84v0c0-.37,0-.75,0-1.12,0-.61,0-1.21.06-1.82h0a.62.62,0,0,1-.07-.87.29.29,0,0,1,.12-.1c0-1.17,0-2.34,0-3.51l-5.73-4.19h0a27.09,27.09,0,0,0-8.63-1.7,22.1,22.1,0,0,0-8.07,1.42A13.07,13.07,0,0,1,17.77,34c5.52,4.06,10.91,8.34,16.3,12.57,0,0,0,.11,0,.08-4.31-3-8.55-6-12.85-9-2.57-1.78-8.12-6.74-11.31-4.37C15.1,37.59,20.27,42,25.41,46.46c2.88,2.47,5.75,5,8.63,7.44l1.18,1q1.71,1.47,3.41,3L39.91,59l5.25,4.56L46.82,65l.14.13Q65.63,81.34,84.1,97.74q38.84,34.52,78,68.74c12.45,10.92,24.88,21.82,37,33a39.64,39.64,0,0,1,3.66-4.19c-20.2-16.92-39.63-34.72-59.35-52.15C120.9,123.28,98.29,103.52,75.81,83.61Z"/>
        <path class="cls-9" d="M288.43,258.89a3.26,3.26,0,0,0-2-2.6,20.83,20.83,0,0,0-3.07-.44,4.36,4.36,0,0,1-3.36-3.68h0l-.42-.3-.88-.67-.42-.32c-.55-.42-1.09-.87-1.61-1.33l1.92,3.7.49-.35c.23-.16.46-.3.7-.44h0c-.32.27-.62.54-.91.83l-.19.19a.39.39,0,0,1-.18.45.45.45,0,0,1-.28,0c-.32.35-.62.7-.91,1.07l-.13.17a17,17,0,0,0-2.43,4.51h0c-.2.54-.37,1.09-.52,1.65a1.65,1.65,0,0,1,1.14,0c1.14.35,1.48,1.46,1.76,2.5a.88.88,0,0,0,.05.15,1.17,1.17,0,0,0,.05.2c1.5,4.59,7.2,4.45,9.79.71A8.17,8.17,0,0,0,288.43,258.89Z"/>
        <path class="cls-9" d="M277,254.62l.15-.16c.26-.25.53-.48.8-.71l-2.55-4.84-.21.08a8.62,8.62,0,0,0-4.05,3.55,16,16,0,0,0-1.82,5.85c1,.62,2.05,1.3,3.05,2l.84.61a13.5,13.5,0,0,1,1.44-3.34,14.61,14.61,0,0,1,1.62-2.27C276.51,255.13,276.75,254.87,277,254.62Z"/>
      </g>
      <g>
        <path class="cls-8" d="M282.26,222.16a17.82,17.82,0,0,1-.82,5.34,19.11,19.11,0,0,1-6.06,8.92,24.7,24.7,0,0,1-4.09,2.77l5,9.66c.18.16.37.31.56.45.66.52,1.34,1,2.05,1.48A45.66,45.66,0,0,0,282.26,222.16Z"/>
        <path class="cls-8" d="M268.41,258.89c0-.31.08-.63.14-.95.69-4,2.8-8.5,6.47-9.49l.12,0-4.65-8.81a31.53,31.53,0,0,1-11.16,3.12c-9.83.89-19.89-2-28.43-6.75A53.78,53.78,0,0,1,215,222.53a28.91,28.91,0,0,1-5.37-8c-.2-.48-.4-1-.58-1.45-.08-.15-.14-.29-.21-.44a.06.06,0,0,1,0-.08,22.35,22.35,0,0,1-.91-12.95c0-.18.09-.35.14-.52a16.77,16.77,0,0,1,1.17-2.95,18.57,18.57,0,0,1,4.86-5.9c.15-.12.3-.25.46-.36a24.5,24.5,0,0,1,5.82-3.31,39.37,39.37,0,0,0-6.59,2.55l-.62.31a38.73,38.73,0,0,0-8.77,6.2l-.59.57a38.51,38.51,0,0,0-3.7,4.23c-.12.16-.25.33-.36.49a36.35,36.35,0,0,0-2.93,4.76c-7.88,15.27-4.6,34.85,5.18,48.23,9.17,12.55,23,21,38.26,20.89a43.91,43.91,0,0,0,31.49-13.73c-.89-.53-1.77-1.08-2.61-1.67Z"/>
      </g>
      <g>
        <path class="cls-10" d="M276.81,225.63c1,1,2.63,1,2.93-.64a3,3,0,0,0-.28-1.82s0,0,0,0c-.51-1.19-2.14-2.52-3.35-1.32S275.8,224.7,276.81,225.63Zm-.47-3.6c.85-.86,1.74-.24,2.43.45a3.38,3.38,0,0,1,.63,1.51,2.08,2.08,0,0,1-.36,1.73c-.67.68-1.64,0-2.16-.52C276.09,224.4,275.4,223,276.34,222Z"/>
        <path class="cls-10" d="M261.53,237.84a2.07,2.07,0,0,0,.84-1.19,2.77,2.77,0,0,0-.28-2.69,2.61,2.61,0,0,0-2.89-1.29,2.87,2.87,0,0,0-1.95,3.66A2.9,2.9,0,0,0,261.53,237.84Zm.74-2.74a.09.09,0,0,1,0,.05s0,0,0-.05Zm-2.84-2a2.15,2.15,0,0,1,2.05.73c.64,1.17,1,2.66-.22,3.61s-3,0-3.51-1.27A2.35,2.35,0,0,1,259.43,233.07Z"/>
        <path class="cls-10" d="M238.25,235.56a2.87,2.87,0,0,0,4.09-2,2.83,2.83,0,0,0-1.75-3.17,2.75,2.75,0,0,0-3.34,1A2.82,2.82,0,0,0,238.25,235.56Zm-.54-4.34a2.71,2.71,0,0,1,3.22-.15,2.46,2.46,0,0,1-2.75,4.06A2.51,2.51,0,0,1,237.71,231.22Z"/>
        <path class="cls-10" d="M288.18,256.73c-1-1.21-2.49-1.29-3.94-1.46a4.43,4.43,0,0,1-3.95-2.9h0l-.06-.21a3.5,3.5,0,0,1-.12-.66h0l-.15-.08h0l-.14-.08a45.88,45.88,0,0,0,3-29.29c-.21-.89-.45-1.77-.72-2.65h0c-1-7-5.66-13.41-10.58-18.27a53.58,53.58,0,0,0-20.82-12.81q-2.76-1-5.65-1.81a56.72,56.72,0,0,0-9-1.72q-1.65-.17-3.3-.21h0a18.56,18.56,0,0,0-2.2-.26l-.6,0-26.59-20.52-47.91-37.08L116.35,96.44l-6.22-4.82Q96.79,79.1,83.32,66.69L72.77,57l-.31-.28L72,56.28c.26-.85.5-1.71.73-2.57l.12-.44s0,0,0,0L72.62,53l-.31-.31h0c-.79-.78-1.59-1.55-2.41-2.31l-.27-.25-.59.13-.24,0-2.71.59-1.64.36-3.52.79-.31-.19c-3-1.91-6-4-9-5.94-3.65-2.42-7.26-4.87-10.8-7.43.33-3.25.75-6.49,1.19-9.72l.06-.45c0-.27.07-.53.11-.8q-.19-.32-.36-.63a4.45,4.45,0,0,1-.39-1.22,8.44,8.44,0,0,0,3.61-1.47,7,7,0,0,0,2-8.29,9.07,9.07,0,0,0-6.69-5.18,1.41,1.41,0,0,0-.31-.21c-1-.77-2.45-1.2-3.44-.35a1.93,1.93,0,0,0-.43.54c-3.31.53-7.06,3-7.47,6.4-.53,4.33,3,7.24,7.11,8.29A6,6,0,0,1,35.44,27q-.11.27-.24.54L35,28c0,.09,0,.19,0,.28s0,.38,0,.57c0,1.84.06,3.67.07,5.51l-1-.71-3.54-2.56h0a25.33,25.33,0,0,0-3.71-1.34,25.64,25.64,0,0,0-5.8-.86c-4.13-.13-8.49.76-11.58,2.95h0a4.38,4.38,0,0,0-.68.49l-.17.18h0a2.69,2.69,0,0,0-.27.32l.26.24.76.71C15.08,39.16,21,44.44,26.9,49.71q3.47,3.12,7,6.22c-.19,2.08-.37,4.16-.51,6.25,0,.32,0,.64-.07,1,.3.23.61.45.92.65a5.25,5.25,0,0,0,4.57.94,3.48,3.48,0,0,0,1-.51l0-.63q.06-1.16.09-2.31,4.29,3.82,8.62,7.63c26,22.88,52.22,45.63,78.29,68.49,23.87,20.94,47.4,42.27,71.89,62.63l0,0a42.47,42.47,0,0,0-5.56,10.26c-6.29,16.7-.2,35.86,10.44,48.9,10.23,12.51,26.29,19.48,41.89,17.27A45.62,45.62,0,0,0,273,261.82h0l.75.43h0l0,0a.2.2,0,0,0,.15,0l.06,0a1.75,1.75,0,0,1,.6-.18c.63-.05,1,.4,1.36,1,.08.16.15.33.22.51a14.82,14.82,0,0,0,1.05,2.69,5.81,5.81,0,0,0,3.51,2.19,7.07,7.07,0,0,0,7.19-3.63C289.25,262.61,290,258.94,288.18,256.73Zm-9.27-6c-.71-.46-1.39-1-2.05-1.48-.19-.14-.38-.29-.56-.45l-5-9.66a24.7,24.7,0,0,0,4.09-2.77,19.11,19.11,0,0,0,6.06-8.92,17.82,17.82,0,0,0,.82-5.34A45.66,45.66,0,0,1,278.91,250.78Zm-43-65.16a59.22,59.22,0,0,1,12.85,3,79,79,0,0,1,10.33,4.35,57.43,57.43,0,0,1,13.46,10.8c6.55,7.15,11.84,17.72,6.35,27.05a19.56,19.56,0,0,1-4.1,4.91,21.12,21.12,0,0,1-4,2.65l-4.48-8.65c.36-.14.71-.3,1.06-.47l.11-.05.23-.12a2.64,2.64,0,0,0,.29-.15,15.78,15.78,0,0,0,5.3-4.47A14.53,14.53,0,0,0,273,207s0,0,0,0a14.23,14.23,0,0,1-3.11,19,17.1,17.1,0,0,1-2.35,1.56l-.41.23-.12.06-.29.15q-.46.23-.93.42L255.4,208.56l1.12-.71.42-.27a1.27,1.27,0,0,0-.06-.18,22,22,0,0,0-2-4.27h0c0-.13.07-.25.1-.37.16-.55.3-1.1.46-1.63.29-1,.57-2,.84-3a2.33,2.33,0,0,0,.07-.25v0l-.2-.13h0a22.38,22.38,0,0,0-3.35-1.78l-.36-.14-.69.39-3.57,2.11L231.38,185.4A38.67,38.67,0,0,1,235.94,185.62Zm4.79,17.81,1.15.6,1.88,1,.21.11-.18.49c-.46,1.29-.84,2.61-1.19,3.93h0l-.15.59c-.07.24-.13.48-.19.73l-.1,0,0,.23c0,.15,0,.31.07.47a18.71,18.71,0,0,0,.81,3.32c-1.11-.91-2.24-1.81-3.37-2.69l-.2-.16-1-.78-2.12-1.67c.43-.27.85-.55,1.26-.8l1-.59.67-.39c.11-.24.21-.49.31-.74A23.36,23.36,0,0,0,240.73,203.43ZM251.47,201v0c1.52-.93,3-1.87,4.54-2.83-.33,1-.66,1.93-1,2.91-.16.5-.35,1-.52,1.53,0,.07-.05.15-.08.22l-.12.36-1.31.77Zm.48,3.52-3.77,2.23c-1.71,1-3.47,2-5.19,3.06a45.35,45.35,0,0,0,1.52-4.38c0-.08.05-.17.08-.25l.07,0c1.8-1.08,3.57-2.21,5.35-3.29l.37-.23.07.06Zm-.82-3.86-2.64-2c1.2-.73,2.39-1.47,3.58-2.21,1.2.55,2.44,1,3.66,1.55Q253.42,199.28,251.13,200.64Zm-1.13.67-.47.27c-1.56.94-3.16,1.85-4.73,2.8l-.67.4a0,0,0,0,1,0,0l-1.93-1.21-.87-.55c2-1.18,4-2.46,6-3.66l.11-.06Zm-7.17,9.23c2-1.15,3.89-2.39,5.82-3.57l3.48-2.14,2.14,4.06L249.05,212c-1.73,1-3.5,2-5.23,3.1C243.52,213.55,243.17,212,242.83,210.54Zm10.31-6.34,1-.63.5-.32.09.2c.34.7.66,1.41,1,2.12s.51,1.38.74,2.07l-1.17.67Zm-23.49-18.75L247,199l-.2.12c-2,1.17-4,2.29-5.91,3.51l-.09.06-.32.2-.12.38-.12.35c-.42,1.26-.86,2.51-1.29,3.77a19,19,0,0,0-1.87.88c-.47.26-1,.52-1.45.82-.24.15-.48.31-.7.48l.71.54,2,1.48c1.78,1.34,3.57,2.69,5.4,4l.37.25a.61.61,0,0,0,0,.12l.06,0,.41-.23h0v0c1.89-1.11,3.73-2.3,5.59-3.43q2.46-1.5,4.9-3l10.4,19.69c-5.9,2.2-12.83,1.64-18.92.18A46.73,46.73,0,0,1,226,219c-4.74-4.16-8.72-9.54-8.87-15.43-.13-5.21,3-10.56,8.55-13.39.06,0,0-.1-.05-.08a14.58,14.58,0,0,0-9.57,15.09c.79,6.4,5.19,11.8,10.7,16.19a48.85,48.85,0,0,0,23.73,9.83,32.14,32.14,0,0,0,14.94-1.17l4.59,8.69a32,32,0,0,1-16.39,2.34,59.24,59.24,0,0,1-35.77-17.29,49.43,49.43,0,0,1-7.47-11.35,18.73,18.73,0,0,1-1.25-11.8c0-.14.07-.28.1-.41a17,17,0,0,1,2.71-5.87,20,20,0,0,1,3-3.31l.38-.33a23.92,23.92,0,0,1,13.05-5.18Zm-74.74-58.1,47.85,37.16,25.34,19.74a35.33,35.33,0,0,0-15.38,3.83,1.37,1.37,0,0,1-.17-.17c-10-9.81-20.2-19.33-30.44-28.87q-33-30.76-65.88-61.68l-.34-.32Zm-2.72,5.77c19.87,18.5,39.43,37.39,59.83,55.32a39,39,0,0,0-8.64,6.27l0,0c-9.64-9-19.51-17.68-29.39-26.41q-33.74-29.83-67.3-59.82Q90,93.46,73,78.7,64.54,71.25,56,63.86l-2.24-1.94c1.09-.28,2.17-.6,3.24-.86,2.34-.57,4.67-1.16,7-1.74l2-.52.48-.12,33.45,26Q126.06,108.9,152.19,133.12ZM51.71,61.92c-.05.16-.09.32-.14.49s-.17.62-.25.93c-.22-.27-.45-.53-.67-.79L50.18,62l-1-1.13-.36-.38c.09-.33.17-.65.25-1,0-.14.07-.28.1-.42s.09-.35.13-.53l.09-.38c.08-.35.17-.69.26-1s.23-.92.35-1.39c.72.65,1.46,1.28,2.2,1.9l.29.24.34.29c0,.09,0,.19-.09.28-.21.68-.42,1.37-.62,2.05-.1.31-.19.62-.28.93C51.8,61.61,51.75,61.76,51.71,61.92Zm1.1-4.4c-.73-.72-1.47-1.43-2.21-2.14.93-.25,1.85-.51,2.76-.73l.71-.18.44-.11c1.63-.39,3.25-.8,4.87-1.2l.4.31,2.41,1.87-6.35,1.51-2.07.46c-.23,0-.47.09-.7.15Zm.74.74h0c.93-.25,1.85-.51,2.76-.74,2.2-.53,4.39-1.08,6.58-1.63l.41.32,2.54,2-2,.46q-3.66.86-7.32,1.74c-1.18.29-2.41.51-3.62.81l-.15-.13c.23-.8.46-1.59.67-2.39,0-.13.08-.27.11-.4ZM71,57.49l.49.47Q78.72,64.86,86,71.7l8,7.43L67.3,58.47l3.57-.95Zm.39-1.76c-.12.43-.25.87-.37,1.31l-.4.08L66.68,58l-3-2.3c1.41-.36,2.82-.72,4.23-1.1l1.69-.45,2.43-.66C71.82,54.23,71.6,55,71.37,55.73Zm-11-2.82,1-.27.32-.08,3.19-.83,1.6-.43,2.58-.69c1,.86,1.93,1.7,2.92,2.53h0l-2.78.6-1.75.38c-1.44.32-2.87.64-4.3,1l-.15,0L60.18,53Zm0-.73-.21,0-.76.18-.54-.34-4.11-2.6-2.69-1.72A78.84,78.84,0,0,0,60.42,52.18Zm-10.78-6-4.35-2.83c-1.54-1-3.1-2-4.63-3.07,0-.14,0-.28,0-.42C43.66,42,46.61,44.14,49.64,46.16Zm-9.73-4.55c-.09.85-.18,1.71-.26,2.57a3,3,0,0,1-3.35-.48,4.48,4.48,0,0,1-.7-.67c0-.76,0-1.53,0-2.29l.18.12c.11.07.21.15.32.21a7,7,0,0,0,.66.36l.35.15.37.11a1.7,1.7,0,0,0,.39.09,2.44,2.44,0,0,0,.39.06c.13,0,.27,0,.4,0s.27,0,.4,0a3.61,3.61,0,0,0,.8-.2Zm-3.1-31a1.76,1.76,0,0,1,1.65-.49,3.48,3.48,0,0,1,1.12.48c.28.17.55.35.84.49a.41.41,0,0,0,0,.09,1.07,1.07,0,0,1,.09.27,1.29,1.29,0,0,1-1,1.46,4,4,0,0,1-2.24-.44c-.69-.36-.89-.86-.79-1.3A1.18,1.18,0,0,1,36.81,10.64Zm-.54,13.68-.42-.1c-3.24-.82-6.51-2.76-6.75-6.25a6,6,0,0,1,3.27-5.3,17.43,17.43,0,0,1,3.7-1.33A2,2,0,0,0,37.34,13c1,.47,2.78.83,3.42-.42a1.49,1.49,0,0,0,.06-1.27c3.06,1.21,5.82,3,6.23,6.7s-2.42,5.84-5.63,6.45l-.38.07a11.53,11.53,0,0,1-2.19.11A15.5,15.5,0,0,1,36.27,24.32Zm-.77,4.06h0a17.44,17.44,0,0,0,5.2.22,0,0,0,1,0,0,0A32.64,32.64,0,0,1,36,27.71a4.07,4.07,0,0,0,.48-2.16,13.54,13.54,0,0,0,4.43.21,4.32,4.32,0,0,0,.71,2.5c-.54,3.27-1,6.55-1.32,9.84l-.15,1.33,0,.34c0,.16,0,.32-.05.47l-.2,0-.07,0a.41.41,0,0,1-.11.07,1.33,1.33,0,0,1-.24.1,1.74,1.74,0,0,1-.51.13,1.18,1.18,0,0,1-.27,0,1.22,1.22,0,0,1-.27,0l-.27,0a1.28,1.28,0,0,1-.28-.07l-.27-.08-.27-.12c-.18-.07-.35-.19-.53-.28l-.24-.16-.25-.17-.51-.43-.12-.08c0-1,0-2,0-3,0-.14,0-.28,0-.43v-1Q35.63,31.57,35.5,28.38ZM34.34,62.9c.32-1.95.55-3.92.72-5.89q1.77,1.59,3.55,3.17c0,1.23,0,2.46.1,3.68A6.54,6.54,0,0,1,34.34,62.9ZM162.09,166.48q-39.08-34.3-78-68.74Q65.65,81.33,47,65.11L46.82,65l-1.66-1.43L39.91,59l-1.28-1.11q-1.7-1.49-3.41-3L34,53.9c-2.88-2.48-5.75-5-8.63-7.44C20.27,42,15.1,37.59,9.86,33.25c3.19-2.37,8.74,2.59,11.31,4.37,4.3,3,8.54,6,12.85,9,0,0,.09,0,0-.08C28.68,42.31,23.29,38,17.77,34a13.07,13.07,0,0,0-5.14-2.71,22.1,22.1,0,0,1,8.07-1.42,27.09,27.09,0,0,1,8.63,1.7h0l5.73,4.19c0,1.17,0,2.34,0,3.51a.29.29,0,0,0-.12.1.62.62,0,0,0,.07.87h0c0,.61,0,1.21-.06,1.82,0,.37,0,.75,0,1.12v0a4.39,4.39,0,0,0,.71.84,4,4,0,0,0,1.93,1,3.24,3.24,0,0,0,2.06-.24,2.7,2.7,0,0,0,.76-.52c0-.2,0-.41,0-.61,0-.68.1-1.37.16-2,1.42.83,2.83,1.68,4.25,2.52l4.44,2.71.39.24c1.61,1,3.21,2,4.82,3l4.12,2.58-3.84.91-.35.09L52.89,54c-.85.2-1.71.38-2.58.56h0l-.5.11-.16,0c-.06.2-.13.4-.19.6s-.1.29-.14.43c-.14.41-.27.82-.4,1.22-.07.22-.15.44-.22.66L47,56.14l-.57-.49c-2.1-1.77-4.21-3.53-6.34-5.26l-.95-.77c0,.18,0,.35-.05.53l1,1c2.7,2.6,5.45,5.16,8.22,7.69-.1.27-.19.55-.28.81q-.27.81-.51,1.62l.89.79h0c.87.77,1.77,1.53,2.68,2.27l.5.4c.09-.24.17-.49.25-.73s.09-.27.13-.41c.12-.36.23-.73.34-1.09l4.9,4.43q9.27,8.4,18.61,16.72c22.48,19.91,45.09,39.67,67.59,59.56,19.72,17.43,39.15,35.23,59.35,52.15a39.64,39.64,0,0,0-3.66,4.19C187,188.3,174.54,177.4,162.09,166.48Zm78.16,108.33c-15.22.1-29.09-8.34-38.26-20.89-9.78-13.38-13.06-33-5.18-48.23a36.35,36.35,0,0,1,2.93-4.76c.11-.16.24-.33.36-.49a38.51,38.51,0,0,1,3.7-4.23l.59-.57a38.73,38.73,0,0,1,8.77-6.2l.62-.31a39.37,39.37,0,0,1,6.59-2.55,24.5,24.5,0,0,0-5.82,3.31c-.16.11-.31.24-.46.36a18.57,18.57,0,0,0-4.86,5.9,16.77,16.77,0,0,0-1.17,2.95c-.05.17-.1.34-.14.52a22.35,22.35,0,0,0,.91,12.95.06.06,0,0,0,0,.08c.07.15.13.29.21.44.18.49.38,1,.58,1.45a28.91,28.91,0,0,0,5.37,8A53.78,53.78,0,0,0,230.9,236c8.54,4.75,18.6,7.64,28.43,6.75a31.53,31.53,0,0,0,11.16-3.12l4.65,8.81-.12,0c-3.67,1-5.78,5.48-6.47,9.49-.06.32-.1.64-.14.95l.72.52c.84.59,1.72,1.14,2.61,1.67A43.91,43.91,0,0,1,240.25,274.81Zm34.4-17.14a13.5,13.5,0,0,0-1.44,3.34l-.84-.61c-1-.71-2-1.39-3.05-2a16,16,0,0,1,1.82-5.85,8.62,8.62,0,0,1,4.05-3.55l.21-.08,2.55,4.84c-.27.23-.54.46-.8.71l-.15.16c-.25.25-.49.51-.73.78A14.61,14.61,0,0,0,274.65,257.67ZM287,264.91c-2.59,3.74-8.29,3.88-9.79-.71a1.17,1.17,0,0,1-.05-.2.88.88,0,0,1-.05-.15c-.28-1-.62-2.15-1.76-2.5a1.65,1.65,0,0,0-1.14,0c.15-.56.32-1.11.52-1.65h0a17,17,0,0,1,2.43-4.51l.13-.17c.29-.37.59-.72.91-1.07a.45.45,0,0,0,.28,0,.39.39,0,0,0,.18-.45l.19-.19c.29-.29.59-.56.91-.83h0c-.24.14-.47.28-.7.44l-.49.35-1.92-3.7c.52.46,1.06.91,1.61,1.33l.42.32.88.67.42.3h0a4.36,4.36,0,0,0,3.36,3.68,20.83,20.83,0,0,1,3.07.44,3.26,3.26,0,0,1,2,2.6A8.17,8.17,0,0,1,287,264.91Z"/>
        <path class="cls-10" d="M215.17,216.48a2.52,2.52,0,0,0,3.49-1.87,2.27,2.27,0,0,0-1.48-2.48,2.32,2.32,0,0,0-3,.61A2.49,2.49,0,0,0,215.17,216.48Zm-.7-3.56c.85-1.11,2.25-.84,3.21,0a.08.08,0,0,0,.08,0,2,2,0,0,1,.43,1.91,2.12,2.12,0,0,1-3,1.24A2.09,2.09,0,0,1,214.47,212.92Z"/>
        <path class="cls-10" d="M216.35,195.9a2.37,2.37,0,0,0-.25-.29,2.19,2.19,0,0,0-.78-.56,2.25,2.25,0,0,0-2.69.5,1.87,1.87,0,0,0,.7,3c1.27.58,3,.16,3.22-1.38a1.86,1.86,0,0,0-.21-1.18A0,0,0,0,0,216.35,195.9Zm-.21,1.11a1.79,1.79,0,0,1-2.67,1.12,1.53,1.53,0,0,1,.11-2.92,2.87,2.87,0,0,1,2.09.39A1.64,1.64,0,0,1,216.14,197Z"/>
      </g>
    </g>
  </g>
</svg>
