<svg id="Layer_1" data-name="Layer 1" xmlns="http://www.w3.org/2000/svg" xmlns:xlink="http://www.w3.org/1999/xlink" width="185.87" height="157.43" viewBox="0 0 185.87 157.43">
  <defs>
    <style>
      .cls-1 {
        fill: #050505;
        opacity: 0.5;
      }

      .cls-2 {
        fill: #fff;
      }

      .cls-3 {
        fill: #b246af;
      }

      .cls-4 {
        fill: url(#linear-gradient);
      }

      .cls-5 {
        fill: #8e2b00;
      }

      .cls-6 {
        fill: #bc64b5;
      }

      .cls-7 {
        fill: #b750ad;
      }

      .cls-8 {
        fill: #cb88c5;
        stroke: #773e77;
        stroke-miterlimit: 10;
        stroke-width: 2px;
      }

      .cls-9 {
        fill: url(#linear-gradient-2);
      }

      .cls-10 {
        fill: #3788a8;
      }

      .cls-11 {
        fill: url(#linear-gradient-3);
      }

      .cls-12 {
        fill: url(#linear-gradient-4);
      }

      .cls-13 {
        fill: #5e6061;
      }

      .cls-14 {
        fill: #014187;
      }
    </style>
    <linearGradient id="linear-gradient" x1="54.37" y1="29.06" x2="93.87" y2="47.36" gradientUnits="userSpaceOnUse">
      <stop offset="0.08" stop-color="#db6a56"/>
      <stop offset="0.33" stop-color="#de724c"/>
      <stop offset="0.66" stop-color="#bc59a1"/>
      <stop offset="0.88" stop-color="#8a74c3"/>
    </linearGradient>
    <linearGradient id="linear-gradient-2" x1="76.32" y1="120.81" x2="76.32" y2="68.16" gradientUnits="userSpaceOnUse">
      <stop offset="0.13" stop-color="#fff"/>
      <stop offset="0.24" stop-color="#d9f2fa"/>
      <stop offset="0.44" stop-color="#9fddf3"/>
      <stop offset="0.62" stop-color="#70cded"/>
      <stop offset="0.78" stop-color="#4fc1e9"/>
      <stop offset="0.91" stop-color="#3abae6"/>
      <stop offset="1" stop-color="#33b7e5"/>
    </linearGradient>
    <linearGradient id="linear-gradient-3" x1="117.95" y1="54.58" x2="146.65" y2="67.87" xlink:href="#linear-gradient"/>
    <linearGradient id="linear-gradient-4" x1="133.9" y1="121.24" x2="133.9" y2="82.99" xlink:href="#linear-gradient-2"/>
  </defs>
  <g>
    <path class="cls-1" d="M105.13,154.36c-20.43,0-58.08-5.68-80.7-43.71-32.32-54.34-.55-97.58.82-99.4a8,8,0,0,1,14.33,3.92c.49,4.32.8,8.7,1.08,13a16.62,16.62,0,0,1,8.5-2.45h.65a15.16,15.16,0,0,1,9.66,3.55,18,18,0,0,1,6.91-4.1c.64-.19,1.11-.34,1.45-.46a14.22,14.22,0,0,1,2.42-2.11,18.24,18.24,0,0,1,2.93-1.69,17.13,17.13,0,0,1,1.4-5.81,7.17,7.17,0,0,1,.55-1.11A8,8,0,0,1,82,10a8.21,8.21,0,0,1,2,.24,8,8,0,0,1,5.54,5,16.76,16.76,0,0,1,1.31,5.83,18.22,18.22,0,0,1,2.45,1.46,14.72,14.72,0,0,1,2.42,2.11c.34.12.8.27,1.44.46A18.12,18.12,0,0,1,104,29.17a16.33,16.33,0,0,1,10-3.49h.66c7.93,0,14.89,6.4,14.89,13.71,0,1.35,0,2.48-.15,3.48a8.62,8.62,0,0,1-.51,4.34,9,9,0,0,1-1.42,2.4V51l.4-.13a13.36,13.36,0,0,1,1.7-1.42c.25-.17.5-.34.76-.5v-.24a16.82,16.82,0,0,1,1.4-6.21,9,9,0,0,1,.56-1.12,8,8,0,0,1,14.36,1.33,16.71,16.71,0,0,1,1.31,6v.18c.3.18.58.37.86.56a16.59,16.59,0,0,1,1.38,1.11c2.44-4.23,6.41-6.5,11.81-6.75h.59c7,0,13.24,5.77,13.24,12.34,0,1,0,1.85-.11,2.62a8.39,8.39,0,0,1-1.48,5.79v44.25a8,8,0,0,1,4.93,12.81c-8.91,11.38-22.33,20.42-41,27.65C132,151.6,119.7,154.36,105.13,154.36Z"/>
    <path class="cls-2" d="M100.13,149.36c-20.43,0-58.08-5.68-80.7-43.71-32.32-54.34-.55-97.58.82-99.4a8,8,0,0,1,14.33,3.92c.49,4.32.8,8.7,1.08,13a16.62,16.62,0,0,1,8.5-2.45h.65a15.16,15.16,0,0,1,9.66,3.55,18,18,0,0,1,6.91-4.1c.64-.19,1.11-.34,1.45-.46a14.22,14.22,0,0,1,2.42-2.11,18.24,18.24,0,0,1,2.93-1.69,17.13,17.13,0,0,1,1.4-5.81,7.17,7.17,0,0,1,.55-1.11A8,8,0,0,1,77,5a8.21,8.21,0,0,1,2,.24,8,8,0,0,1,5.54,5,16.76,16.76,0,0,1,1.31,5.83,18.22,18.22,0,0,1,2.45,1.46,14.72,14.72,0,0,1,2.42,2.11c.34.12.8.27,1.44.46A18.12,18.12,0,0,1,99,24.17a16.33,16.33,0,0,1,10-3.49h.66c7.93,0,14.89,6.4,14.89,13.71,0,1.35,0,2.48-.15,3.48a8.62,8.62,0,0,1-.51,4.34,9,9,0,0,1-1.42,2.4V46l.4-.13a13.36,13.36,0,0,1,1.7-1.42c.25-.17.5-.34.76-.5v-.24a16.82,16.82,0,0,1,1.4-6.21,9,9,0,0,1,.56-1.12,8,8,0,0,1,14.36,1.33,16.71,16.71,0,0,1,1.31,6v.18c.3.18.58.37.86.56a16.59,16.59,0,0,1,1.38,1.11c2.44-4.23,6.41-6.5,11.81-6.75h.59c7,0,13.24,5.77,13.24,12.34,0,1,0,1.85-.11,2.62a8.39,8.39,0,0,1-1.48,5.79v44.25a8,8,0,0,1,4.93,12.81c-8.91,11.38-22.33,20.42-41,27.65C127,146.6,114.7,149.36,100.13,149.36Z"/>
    <g>
      <g>
        <rect class="cls-3" x="57.56" y="49.24" width="38.33" height="5.26"/>
        <path class="cls-4" d="M89.81,27.78c-6-1.8-3.48-1.8-6.18-3.71a18.82,18.82,0,0,0-6.69-2.51s0-.07,0-.07l-.2,0-.2,0s0,0,0,.07a18.88,18.88,0,0,0-6.69,2.51c-2.7,1.91-.22,1.91-6.18,3.71S51.22,40.25,57.63,49.29H95.88C102.28,40.25,95.76,29.58,89.81,27.78Z"/>
        <g>
          <path class="cls-5" d="M60.69,31.47a12.45,12.45,0,0,0-2.84,3.7,11.63,11.63,0,0,0-1.26,4.42,14,14,0,0,0,.46,4.6c.16.76.48,1.48.71,2.23l1,2.16c-.4-.67-.79-1.36-1.17-2.06s-.65-1.45-.86-2.22a13.58,13.58,0,0,1-.59-4.75A11.11,11.11,0,0,1,60.69,31.47Z"/>
          <path class="cls-5" d="M63.6,30.54A14.23,14.23,0,0,0,61,34.62,13.68,13.68,0,0,0,60,39.28,15.62,15.62,0,0,0,60.5,44a21.38,21.38,0,0,0,.74,2.31c.3.75.67,1.47,1,2.23-.41-.7-.82-1.41-1.2-2.13a21.41,21.41,0,0,1-.89-2.3L59.8,43c-.1-.4-.13-.82-.2-1.23a7.12,7.12,0,0,1-.12-1.23c0-.41,0-.83,0-1.24a13,13,0,0,1,1.2-4.79A11.64,11.64,0,0,1,63.6,30.54Z"/>
          <path class="cls-5" d="M66.67,30.32a20.39,20.39,0,0,0-1.52,4.39,26.09,26.09,0,0,0-.68,4.58,28.64,28.64,0,0,0,.08,4.63,45.8,45.8,0,0,0,.69,4.61c-.23-.75-.46-1.5-.65-2.26s-.35-1.53-.42-2.31a24.67,24.67,0,0,1-.2-4.71,23.61,23.61,0,0,1,.81-4.64A15.41,15.41,0,0,1,66.67,30.32Z"/>
          <path class="cls-5" d="M70.4,30.32c-.17,1.52-.25,3-.29,4.55s0,3,0,4.55c.07,3,.34,6.07.61,9.11A45.83,45.83,0,0,1,70,44c-.19-1.52-.27-3-.35-4.57s0-3.06.11-4.59A27.66,27.66,0,0,1,70.4,30.32Z"/>
          <path class="cls-5" d="M93.26,31.47a11.11,11.11,0,0,1,4.6,8.08,13.58,13.58,0,0,1-.59,4.75c-.21.77-.58,1.48-.86,2.22s-.77,1.39-1.18,2.06l1-2.16c.23-.75.55-1.47.71-2.23a14,14,0,0,0,.46-4.6,11.63,11.63,0,0,0-1.26-4.42A12.45,12.45,0,0,0,93.26,31.47Z"/>
          <path class="cls-5" d="M90.35,30.54a11.64,11.64,0,0,1,2.93,3.93,13,13,0,0,1,1.2,4.79c0,.41,0,.83,0,1.24a7.12,7.12,0,0,1-.12,1.23c-.07.41-.1.83-.2,1.23l-.33,1.19a21.41,21.41,0,0,1-.89,2.3c-.38.72-.79,1.43-1.2,2.13.31-.76.68-1.48,1-2.23A21.38,21.38,0,0,0,93.45,44,15.31,15.31,0,0,0,94,39.28a13.44,13.44,0,0,0-1-4.66A14.23,14.23,0,0,0,90.35,30.54Z"/>
          <path class="cls-5" d="M87.28,30.32a15.41,15.41,0,0,1,1.89,4.29A23.61,23.61,0,0,1,90,39.25a24.67,24.67,0,0,1-.2,4.71c-.07.78-.28,1.54-.42,2.31s-.42,1.51-.65,2.26a45.8,45.8,0,0,0,.69-4.61,28.64,28.64,0,0,0,.08-4.63,26.09,26.09,0,0,0-.68-4.58A20.39,20.39,0,0,0,87.28,30.32Z"/>
          <path class="cls-5" d="M83.55,30.32a27.66,27.66,0,0,1,.67,4.53c.12,1.53.12,3.06.11,4.59S84.17,42.49,84,44a45.83,45.83,0,0,1-.76,4.52c.27-3,.54-6.07.61-9.11,0-1.51,0-3,0-4.55S83.72,31.84,83.55,30.32Z"/>
          <path class="cls-5" d="M77,30.1c.22,3,.24,6.1.28,9.16s0,6.1-.22,9.16c-.22-3.06-.24-6.11-.28-9.16S76.83,33.16,77,30.1Z"/>
        </g>
        <rect class="cls-6" x="48.68" y="52.37" width="55.28" height="68.44"/>
        <rect class="cls-7" x="54.26" y="59.28" width="44.12" height="54.62"/>
        <rect class="cls-8" x="56.92" y="62.57" width="38.8" height="58.57"/>
        <rect class="cls-9" x="59.31" y="68.16" width="34.02" height="52.65"/>
        <path class="cls-10" d="M88.44,89.62c-3.67-2.71-12-5.27-12.45-7.51V82A.13.13,0,0,1,76,82s0,0,0-.06v.13c-.43,2.24-8.78,4.8-12.44,7.51s-3.25,8.29-3.25,8.29V123.6c-.12-.16,15.24-.48,15.7-.48s15.82.32,15.7.48V97.91S92.18,92.38,88.44,89.62Zm-1.7,15v17.61c.09-.11-10.44-.33-10.76-.34s-10.84.23-10.76.34V104.65s-.34-3.79,2.23-5.68,8.23-3.61,8.52-5.15v-.09a.09.09,0,0,1,0,0s0,0,0,0v.09c.3,1.54,6,3.29,8.53,5.15S86.74,104.65,86.74,104.65Z"/>
        <path class="cls-10" d="M81.94,105.69c-1.75-1.35-5.74-2.62-6-3.74v-.06s0,0,0,0v0c-.21,1.12-4.2,2.39-6,3.74s-1.55,4.13-1.55,4.13v12.8c-.06-.08,7.29-.24,7.51-.25s7.57.17,7.51.25v-12.8S83.73,107.07,81.94,105.69Zm-.81,7.49V122c0-.06-5-.17-5.15-.17s-5.19.11-5.15.17v-8.77a3.52,3.52,0,0,1,1.07-2.83c1.2-.93,3.94-1.8,4.08-2.57v0c.14.77,2.87,1.64,4.08,2.57A3.54,3.54,0,0,1,81.13,113.18Z"/>
      </g>
      <g>
        <rect class="cls-3" x="120.27" y="69.24" width="27.85" height="3.83"/>
        <path class="cls-11" d="M143.7,53.65c-4.32-1.31-2.53-1.31-4.48-2.7a14,14,0,0,0-4.87-1.83.12.12,0,0,1,0,0l-.14,0-.15,0a.12.12,0,0,1,0,0A13.85,13.85,0,0,0,129.22,51c-2,1.39-.17,1.39-4.49,2.7s-9.06,9.06-4.41,15.63h27.79C152.77,62.71,148,55,143.7,53.65Z"/>
        <g>
          <path class="cls-5" d="M122.54,56.33a8.87,8.87,0,0,0-2.1,2.66,8.57,8.57,0,0,0-.93,3.23,10.29,10.29,0,0,0,.34,3.36c.13.56.37,1.08.54,1.62l.72,1.56-.83-1.51c-.2-.54-.46-1.06-.61-1.61a10,10,0,0,1-.41-3.44A8.17,8.17,0,0,1,122.54,56.33Z"/>
          <path class="cls-5" d="M124.66,55.65A10.17,10.17,0,0,0,122,62a11.4,11.4,0,0,0,.4,3.48,17.23,17.23,0,0,0,.56,1.67c.23.54.49,1.07.74,1.61-.28-.52-.58-1-.85-1.56a14.65,14.65,0,0,1-.63-1.67,10.88,10.88,0,0,1-.47-3.54A9.32,9.32,0,0,1,124.66,55.65Z"/>
          <path class="cls-5" d="M126.89,55.49a14.08,14.08,0,0,0-1.15,3.18,18.73,18.73,0,0,0-.5,3.33,21.18,21.18,0,0,0,.06,3.38,29.43,29.43,0,0,0,.55,3.34c-.15-.55-.32-1.09-.45-1.64s-.24-1.11-.29-1.68A18.53,18.53,0,0,1,125,62,14.34,14.34,0,0,1,126.89,55.49Z"/>
          <path class="cls-5" d="M129.6,55.49c-.15,1.1-.21,2.2-.25,3.31s0,2.2,0,3.31c.06,2.21.26,4.41.5,6.61-.21-1.09-.39-2.18-.51-3.29s-.19-2.21-.24-3.31A29.43,29.43,0,0,1,129.6,55.49Z"/>
          <path class="cls-5" d="M146.21,56.33a8.21,8.21,0,0,1,3.29,5.87,10.25,10.25,0,0,1-.41,3.44c-.15.55-.41,1.07-.61,1.61l-.83,1.51.71-1.56a15.38,15.38,0,0,0,.54-1.62,10.29,10.29,0,0,0,.35-3.36,8.59,8.59,0,0,0-.94-3.23A8.87,8.87,0,0,0,146.21,56.33Z"/>
          <path class="cls-5" d="M144.1,55.65A9.27,9.27,0,0,1,147,62a10.88,10.88,0,0,1-.46,3.54c-.15.58-.43,1.11-.63,1.67s-.57,1-.85,1.56c.24-.54.51-1.07.74-1.61a17.15,17.15,0,0,0,.55-1.67,11.09,11.09,0,0,0,.4-3.48,9.74,9.74,0,0,0-.78-3.4A9.84,9.84,0,0,0,144.1,55.65Z"/>
          <path class="cls-5" d="M141.87,55.49a14.47,14.47,0,0,1,1.9,6.5,18.54,18.54,0,0,1-.13,3.41c0,.57-.19,1.12-.29,1.68s-.3,1.09-.45,1.64a27.35,27.35,0,0,0,.55-3.34,20.07,20.07,0,0,0,.07-3.38,17.87,17.87,0,0,0-.51-3.33A14.55,14.55,0,0,0,141.87,55.49Z"/>
          <path class="cls-5" d="M139.16,55.49a29.43,29.43,0,0,1,.5,6.63c0,1.1-.1,2.21-.23,3.31s-.3,2.2-.51,3.29c.24-2.2.44-4.4.49-6.61,0-1.11,0-2.21,0-3.31S139.31,56.59,139.16,55.49Z"/>
          <path class="cls-5" d="M134.42,55.33c.11,2.22.12,4.44.14,6.66s0,4.43-.1,6.65c-.11-2.22-.12-4.44-.15-6.65S134.32,57.55,134.42,55.33Z"/>
        </g>
        <rect class="cls-6" x="113.82" y="71.51" width="40.17" height="49.73"/>
        <rect class="cls-7" x="117.87" y="76.53" width="32.06" height="39.69"/>
        <rect class="cls-8" x="119.8" y="78.92" width="28.19" height="42.56"/>
        <rect class="cls-12" x="121.54" y="82.99" width="24.72" height="38.25"/>
        <path class="cls-10" d="M142.71,98.58c-2.67-2-8.73-3.83-9.05-5.46v0a.11.11,0,0,1,0,0v.09c-.32,1.63-6.38,3.49-9,5.46s-2.36,6-2.36,6v18.66c-.09-.11,11.07-.34,11.41-.35s11.49.24,11.4.35V104.61S145.43,100.59,142.71,98.58Zm-1.24,10.92v12.8c.07-.08-7.58-.24-7.81-.25s-7.88.17-7.82.25V109.5s-.25-2.75,1.61-4.13,6-2.62,6.2-3.74v-.06s0,0,0,0v0c.22,1.12,4.37,2.39,6.2,3.74S141.47,109.5,141.47,109.5Z"/>
        <path class="cls-10" d="M138,110.26c-1.28-1-4.18-1.91-4.33-2.72v0s0,0,0,0v.05c-.15.81-3.05,1.74-4.32,2.72a3.74,3.74,0,0,0-1.13,3v9.3c0-.06,5.3-.18,5.46-.18s5.5.12,5.45.18v-9.3A3.72,3.72,0,0,0,138,110.26Zm-.59,5.44v6.37s-3.63-.12-3.74-.12-3.77.08-3.74.12V115.7a2.57,2.57,0,0,1,.77-2.06c.87-.67,2.86-1.3,3-1.86v0h0v0c.1.56,2.09,1.19,3,1.86A2.55,2.55,0,0,1,137.4,115.7Z"/>
      </g>
      <g>
        <path class="cls-13" d="M37.86,38.77s-1.31-4.1-.06-6.42c1.37-2.52,3.32-3.52,6.73-3.68s6.89,2.63,6.89,5.47-.26,3.84-.58,4.52S37.86,38.77,37.86,38.77Z"/>
        <path class="cls-13" d="M38.28,39.66s-2-1.26.36-2.52A11.47,11.47,0,0,1,44.32,36c.9,0,5.52.42,6.79,2.05s-2.63,1.79-3.42,1.84S41.38,40.77,38.28,39.66Z"/>
        <path class="cls-13" d="M49.42,116.69H39V38.77s0-2.42,5.05-2.42,5.36,2.42,5.36,2.42Z"/>
      </g>
      <g>
        <path class="cls-13" d="M102.42,39.2s-1.36-4.28,0-6.69c1.42-2.63,3.45-3.67,7-3.84s7.18,2.75,7.18,5.71-.27,4-.6,4.71S102.42,39.2,102.42,39.2Z"/>
        <path class="cls-13" d="M102.86,40.14s-2-1.32.39-2.64a11.94,11.94,0,0,1,5.92-1.2c.93,0,5.76.44,7.07,2.14s-2.74,1.86-3.56,1.92S106.1,41.29,102.86,40.14Z"/>
        <path class="cls-13" d="M114.49,120.48H103.63V39.2s0-2.52,5.26-2.52,5.6,2.52,5.6,2.52Z"/>
      </g>
      <g>
        <path class="cls-13" d="M152.1,54.78s-1-3.25,0-5.08c1.08-2,2.62-2.8,5.33-2.92s5.47,2.08,5.47,4.33a8.38,8.38,0,0,1-.46,3.59C162.15,55.24,152.1,54.78,152.1,54.78Z"/>
        <path class="cls-13" d="M152.43,55.49s-1.54-1,.29-2a9.1,9.1,0,0,1,4.51-.92c.71,0,4.38.34,5.38,1.63s-2.09,1.42-2.71,1.46S154.89,56.37,152.43,55.49Z"/>
        <path class="cls-13" d="M161.27,116.58H153V54.78s0-1.92,4-1.92,4.25,1.92,4.25,1.92Z"/>
      </g>
      <path class="cls-14" d="M26.63,11.07s-30.27,40.14-.33,90.49,89.5,40.8,104,35.2,28.52-13.49,37.62-25.11c0,0-63.19,24.31-103.43-8.45C24.66,70.79,29.92,40,26.63,11.07Z"/>
      <path class="cls-13" d="M77.21,20.35V18.93a7.56,7.56,0,0,0,.6-2.68,10.16,10.16,0,0,0-.81-3.2h0a10.16,10.16,0,0,0-.81,3.2,7.67,7.67,0,0,0,.59,2.68v1.42A2.38,2.38,0,0,0,76,21.92H78A2.37,2.37,0,0,0,77.21,20.35Z"/>
      <path class="cls-13" d="M134.39,47.78V46.36a7.67,7.67,0,0,0,.59-2.68,10.16,10.16,0,0,0-.81-3.2h0a10.16,10.16,0,0,0-.81,3.2,7.56,7.56,0,0,0,.6,2.68v1.42a2.37,2.37,0,0,0-.75,1.57h1.93A2.38,2.38,0,0,0,134.39,47.78Z"/>
    </g>
  </g>
</svg>
