<svg id="Layer_1" data-name="Layer 1" xmlns="http://www.w3.org/2000/svg" width="245" height="380" viewBox="0 0 245 380">
  <defs>
    <style>
      .cls-1 {
        fill: #fffa4d;
      }

      .cls-2, .cls-4 {
        fill: #fbd3c7;
      }

      .cls-12, .cls-14, .cls-15, .cls-2, .cls-4, .cls-46, .cls-8 {
        stroke: #453323;
      }

      .cls-10, .cls-12, .cls-13, .cls-14, .cls-15, .cls-16, .cls-17, .cls-19, .cls-2, .cls-26, .cls-27, .cls-4, .cls-46, .cls-8, .cls-9 {
        stroke-miterlimit: 10;
      }

      .cls-12, .cls-14, .cls-15, .cls-16, .cls-17, .cls-2, .cls-8 {
        stroke-width: 0.5px;
      }

      .cls-3 {
        fill: #e4a68d;
      }

      .cls-5 {
        fill: #161616;
      }

      .cls-6 {
        fill: #303030;
      }

      .cls-7 {
        fill: #f8e1db;
      }

      .cls-8 {
        fill: #bcd0eb;
      }

      .cls-17, .cls-9 {
        fill: #3096d2;
        stroke: #2c3581;
      }

      .cls-10 {
        fill: #864a30;
        stroke: #68321e;
      }

      .cls-11, .cls-12 {
        fill: #f6e982;
      }

      .cls-13 {
        fill: #2455a3;
        stroke: #2d2b7a;
      }

      .cls-14, .cls-46 {
        fill: none;
      }

      .cls-15 {
        fill: #7595cc;
      }

      .cls-16 {
        fill: #d6e5f5;
        stroke: #395a72;
      }

      .cls-18 {
        fill: #2c3581;
      }

      .cls-19 {
        fill: #d95c78;
        stroke: #8d2338;
      }

      .cls-20, .cls-26 {
        fill: #d6ebf4;
      }

      .cls-21 {
        fill: #98784d;
      }

      .cls-22 {
        fill: #ba7e70;
      }

      .cls-23 {
        fill: #dee8ee;
      }

      .cls-24 {
        fill: #580d0d;
      }

      .cls-25 {
        fill: #a04c43;
      }

      .cls-26 {
        stroke: #98784d;
      }

      .cls-27 {
        fill: #3f1d1d;
        stroke: #221f1f;
      }

      .cls-28 {
        fill: #431b15;
      }

      .cls-29 {
        fill: #c48a74;
      }

      .cls-30 {
        fill: #451e15;
      }

      .cls-31 {
        fill: #7a4922;
      }

      .cls-32 {
        fill: #841212;
      }

      .cls-33 {
        fill: #590c02;
      }

      .cls-34 {
        fill: #d9d9d9;
      }

      .cls-35 {
        fill: #f5f5f5;
      }

      .cls-36 {
        fill: #881313;
      }

      .cls-37 {
        fill: #bd1622;
      }

      .cls-38 {
        fill: #cd1625;
      }

      .cls-39 {
        fill: #005087;
      }

      .cls-40 {
        fill: #b1b1b1;
      }

      .cls-41 {
        fill: #630e05;
      }

      .cls-42 {
        fill: #9c1519;
      }

      .cls-43 {
        fill: #c6c6c5;
      }

      .cls-44 {
        fill: #d04240;
      }

      .cls-45 {
        fill: #ececec;
      }
    </style>
  </defs>
  <g>
    <path class="cls-1" d="M59.05,379.62a45.47,45.47,0,0,1-9.12-1c-7.18-1.47-12-4.56-14.27-9.2a14.11,14.11,0,0,1-.27-11.54c.06-.35.13-.7.22-1.05A16.3,16.3,0,0,1,44,346.41l5.16-2.71a8.71,8.71,0,0,1,1.18-1,8.46,8.46,0,0,1,1-1.32,15.76,15.76,0,0,1,1.57-8.88,13,13,0,0,1,4.66-5l.87-2.89a8.84,8.84,0,0,1,.35-3.91L60,316.86a8.78,8.78,0,0,1,1.62-2.92l2.26-7.47-.06-.38a8,8,0,0,1,.78-4.7c.33-1.1,1.47-5.54,3.79-20.35a190.79,190.79,0,0,1,4.77-22.81l.35-3a25.73,25.73,0,0,1-2.07-3.38,8,8,0,0,1-.63-5.58l4.73-18.86-6.91,4.13a93.74,93.74,0,0,1-20.77,15.28,12.74,12.74,0,0,1,5.06,7.56,10.79,10.79,0,0,1-2.17,9.08,11.53,11.53,0,0,1-8.9,4.26,11,11,0,0,1-3.28-.5c-.13.38-.27.76-.42,1.15-.92,2.3-2.6,6.48-6.67,8.8a11.16,11.16,0,0,1-5.56,1.59,9.09,9.09,0,0,1-6.4-2.58,10.88,10.88,0,0,1-2.23.22c-.28,0-.57,0-.85,0a9,9,0,0,1-7.16-4.45,9.44,9.44,0,0,1-.72-1.55L8.17,270A9.27,9.27,0,0,1,6,266.36a9.22,9.22,0,0,1-4-6.11c-.85-4.78,2.17-8.51,3.79-10.51l.21-.25c.23-.46.46-1,.7-1.46a22.76,22.76,0,0,1,5.61-8.19l.24-.21a13.13,13.13,0,0,0,2.2-2.19c.17-.26.32-.54.47-.82a18.85,18.85,0,0,1,2.65-3.86l.45-.52,8.3-10.05c6.92-8.41,13.69-15,20.11-19.48a7.42,7.42,0,0,1,.64-.46l.47-.3c.59-.4,1.17-.78,1.74-1.13l1.81-1.18A8,8,0,0,1,52.61,196c4-6.38,18.79-16.29,29.69-23a56.73,56.73,0,0,1-17-10.24,16.55,16.55,0,0,1-6.88,1.49c-6.64,0-13-3.69-18-10.39-1-1.39-9-12.49-7.32-22.19A29.82,29.82,0,0,1,22.17,116.5C14.94,111.12,6,99.68,9.47,83.78c-2.1-4.21-4.68-11.64-2.49-20,2-7.55,7.19-13.8,15.55-18.65,1.57-10.86,7.28-25.54,21.23-30C48.15,10.6,59.88.38,75.44.38a36.59,36.59,0,0,1,16,3.71,35.64,35.64,0,0,1,12.93-2.44c6.57,0,16.29,1.93,26.07,10.84,8.15,2.35,20,8.93,22.49,21.4a18.78,18.78,0,0,1,8.63,9.48,17.66,17.66,0,0,1-.1,12.45,17.44,17.44,0,0,1,4.19,8.12c.75,3.59.57,9-3.8,15.19l.36,3,.4.25a17.44,17.44,0,0,1,5.16,5.24c.35-.39.69-.79,1-1.19l.43-.52c.27-.32.54-.66.81-1l.39-.49c.32-.41.64-.82.94-1.22l.21-.28c.34-.47.69-.95,1-1.44l1-1.51.36-.54.63-1,.33-.53c.28-.45.55-.92.82-1.38,0,0,.66-1.15.82-1.45l.36-.65.74-1.43c.18-.34.31-.6.43-.86s.38-.79.57-1.17.21-.46.31-.67l.35-.79.31-.7.47-1.13c.4-1,.77-2,1.12-2.91l.06-.18c.14-.39.25-.7.35-1l0-.15c.34-1,.66-2.07,1-3.1l.06-.23c.1-.35.19-.7.28-1l.12-.48.28-1.22c.08-.35.15-.69.22-1l.18-1,.15-.94,0-.28c0-.22.06-.43.08-.63a8.13,8.13,0,0,1,3.32-5.82l.12-.09a8.43,8.43,0,0,1,4.8-1.48c3.29,0,7.36,0,24.74,23.88a19.79,19.79,0,0,1,10,6.52l.14.16c.06.08.13.16.19.25.24.31.48.63.71,1a19.61,19.61,0,0,1,3.36,13.44c3.45,5.51,6.28,10.42,8.25,14.32,2.29,4.53,6.54,13-.27,17.64a8.46,8.46,0,0,1-4.79,1.47h0a9.16,9.16,0,0,1-3.7-.79l-.26,0-.88-.17-.95-.15c-1-.16-2.12-.29-3.21-.4h-.11l-1.14-.09.44-8-.56,8-1.34-.08-1.51-.06h-.06l-1.56,0h-.27c-1.59,0-3.21.06-4.81.17h0l-1.78.14h-.06c-.58,0-1.17.12-1.76.19l-.16,0-1.34.17-.28,0c-.58.09-1.19.18-1.8.29l-.1,0-1.79.33-.59.12-1.08.23-.67.15-1,.24-.73.19-1.68.46-.87.26-1.14.36a14,14,0,0,1,8.22,3.65c5,.56,7.62,2.8,9,4.77l.29.36a9.88,9.88,0,0,1,3,2.88,10.43,10.43,0,0,1,.89,1.28,8,8,0,0,1,1.36,4.89,12,12,0,0,1-.34,3.28,12.76,12.76,0,0,1-3.28,5.6,100.4,100.4,0,0,1-9.54,14c-5.76,14.6-16.63,22.09-25.71,26.5a44.47,44.47,0,0,1-2.89,8.43,8,8,0,0,1-6.69,4.63L155,207.76l.23,6.23,5.51,30.92a8,8,0,0,1-.83,5.19,34.29,34.29,0,0,1-4.47,6.12v1a14.5,14.5,0,0,1,1.29,8.42c-.38,2.4-2.74,27-4.13,42a8,8,0,0,1-1.6,4.1A28.81,28.81,0,0,1,138,320.59a8.69,8.69,0,0,1,.18,1.26,14.39,14.39,0,0,1-1.71,8.27,10.43,10.43,0,0,1,2.41,4.25,7.67,7.67,0,0,1,.7.36A9.73,9.73,0,0,1,144.1,336c13.11,3.75,16.3,10.54,16.85,15.08a14.43,14.43,0,0,1-.82,9.79,8.13,8.13,0,0,1-.76,1.23c-3.57,4.81-10.67,7.05-22.34,7.05a90.86,90.86,0,0,1-17-1.55A178,178,0,0,1,101.76,362a8,8,0,0,1-4.4-3.89,17.71,17.71,0,0,1-1.27-12.33l.18-.58a17.34,17.34,0,0,1,.58-3.07,7.59,7.59,0,0,1-.56-1.31s0-.05,0-.08c-.13-.28-.24-.57-.35-.86a8,8,0,0,1-.37-3.93A11.14,11.14,0,0,1,98,329.11a11.31,11.31,0,0,1,2.52-2.26,8.86,8.86,0,0,1,0-2.12l.41-3.18a34.06,34.06,0,0,1-5,.54l-.73,2.09a8.86,8.86,0,0,1-.57,3.6l-1.37,3.59a8.88,8.88,0,0,1-1.54,2.57c-.14.38-.27.75-.41,1.11a10.9,10.9,0,0,1,1.12,6,12.1,12.1,0,0,1-2.67,6.52l.34,9.41a8,8,0,0,1-.89,4,8,8,0,0,1-2,4.77,12.53,12.53,0,0,1-6.47,3.56C78,374.67,70.17,379.62,59.05,379.62ZM168.57,162l2.74-2a26.22,26.22,0,0,1-3.92-8.08,19.52,19.52,0,0,1-.81-4.88,13.16,13.16,0,0,1-1.67-.42,58.34,58.34,0,0,1-9,13.39Z"/>
    <g>
      <path class="cls-2" d="M98.27,163.29s.54,2.92,1.41,6.65c1.28,5.55,3.25,12.89,5.12,14.89,3.12,3.32,22.24,2.89,25.62-3.68,1.87-3.66,1.66-8.4,1.11-11.88a33.63,33.63,0,0,0-1.11-4.76,24.5,24.5,0,0,0-3-5.21c-5.58-7.27-13-6.13-19-3.24A41.56,41.56,0,0,0,98.27,163.29Z"/>
      <path class="cls-3" d="M98.27,163.29s.54,2.92,1.41,6.65c15.2,7.63,26.34,3,31.85-.67a33.63,33.63,0,0,0-1.11-4.76,24.5,24.5,0,0,0-3-5.21,47.34,47.34,0,0,0-5.49-1.53c-2.7-.52-8.29-1.16-13.48-1.71A41.56,41.56,0,0,0,98.27,163.29Z"/>
      <g>
        <path class="cls-4" d="M150.2,196.09c19.25-6.24,43-10.67,50.76-34.7l-9.86-5.67c-1.57.22-30.38,22.81-37.57,25.86"/>
        <g>
          <g>
            <g>
              <path class="cls-2" d="M65.69,203.49S54,201.55,32.82,227.28L24,238l7.63,7.79s28.11-10.73,38.47-29.08S65.69,203.49,65.69,203.49Z"/>
              <polyline class="cls-2" points="51.75 208.96 66.72 199.28 73.1 195.14 87.91 210.54 76.24 217.68 63.64 225.22"/>
            </g>
            <g>
              <path class="cls-2" d="M24.16,238h0c.5-.79.5-.79-.3.14a25,25,0,0,0-2.37,3.7,19.69,19.69,0,0,1-3.88,4.07c-2.38,2.07-3.27,5.09-4.72,7.79-.6,1.11-4.57,4.75-2.3,6.11,1.47.88,3.06-.2,4.08-1.45a18,18,0,0,1-.37,2.05,16.73,16.73,0,0,0-.66,3c-.07,1.38,1.09,1.77,2.14,1.2a5.62,5.62,0,0,0,1.24-1c-.5,1.06-2,4.63,0,4.79,2.62.21,4.58-3.34,5.54-5.27.81-1.65,1.44-3.38,2.26-5,.5-1,1.28-1.84,1.7-2.84a19.92,19.92,0,0,1-.24,5,38.61,38.61,0,0,1-1,3.95c-.45,1.59-1.66,4.78-.27,6.2.66.67,1.78.17,2.43-.2,1.65-.94,2.53-3.13,3.2-4.79,1.39-3.55,1.87-8.09,4.29-11.2.9.79,1.51,2.12,2.3,2.95a8.75,8.75,0,0,0,3.58,2.37c2.12.72,4.73-1.13,4.22-3.48-.78-3.62-5.81-4-7.1-7.38a12.53,12.53,0,0,0-.91-2.39c-.44-.66-2.12-1.28-1.23-3.22"/>
              <path class="cls-5" d="M19.11,257.94a24.47,24.47,0,0,1-2.24,4.75,6.48,6.48,0,0,1-.67.95c-.36.63-.86,1.15-1.4,1.05.15.26.46.31,1-.12A8.78,8.78,0,0,0,18,262.41c.49-1.35,1.12-3.06,1.56-4.41.55-1.78,1.36-3.59.92-5.47C20.1,254.28,19.64,256.13,19.11,257.94Z"/>
              <path class="cls-6" d="M15,258c.07-.37.16-.72.26-1.1.88-2.84,2.44-5.22,3.86-7.8-1.41,1.28-2.29,3.38-3.17,4.93-.39,1-.65,1.38-1.12,2.33-.09.19-.34.95-.47,1.18a4.39,4.39,0,0,1-2.19,2.2,2.26,2.26,0,0,1-.85.33,1.43,1.43,0,0,0,1.52-.09A12.13,12.13,0,0,0,15,258Z"/>
            </g>
          </g>
          <path class="cls-2" d="M63.86,347.43c6.18,4.39,13.21,1.09,16.9-7.23,1.14-2.58,2.71-6.72,4.34-11.22.17-.5.35-1,.54-1.52.43-1.23.86-2.46,1.3-3.68.8-2.26,1.58-4.5,2.28-6.57,2-5.66,3.39-10,3.39-10l-19.79-2.69-2,6.65-2.17,7.2-1.45,4.81-.15.48L63.9,334S57.68,343,63.86,347.43Z"/>
          <path class="cls-7" d="M64.41,347.43c5.9,4.39,12.63,1.09,16.14-7.23,1.09-2.58,2.59-6.72,4.15-11.22.17-.5.34-1,.52-1.52-3.61-.38-12.31-1.93-17.64-4.27l-.14.48-3,10.36S58.51,343,64.41,347.43Z"/>
          <path class="cls-2" d="M109.05,336.48c.4,7.21.6,12.13.69,15.35.29-3.47,1.08-7.56,3-8.42,6.94-3.05,13.69,4.84,14.55-4.22.45-4.75,1.07-11.79,1.63-17.95.12-1.31.23-2.57.33-3.77.45-5.22.79-9.09.79-9.09l-20-1.16-.23,6.45-.11,2.92Z"/>
          <path class="cls-3" d="M110.15,313.67c6.55,4.41,13.94,4.45,18.8,3.8.45-5.22.77-9.09.77-9.09l-19.35-1.16Z"/>
          <path class="cls-3" d="M71.26,311.18c4.89,6,13.22,6.37,17.81,6,1.88-5.66,3.27-10,3.27-10l-19.13-2.69Z"/>
          <path class="cls-7" d="M109.56,336c.39,7,.58,11.85.66,15,.28-3.39.87-8.43,2.92-8.23,6.24.62,13.16,4.73,14-4.12.43-4.64,1-11.52,1.57-17.54.4,3.48-4.56,5.19-4.85,4.88,0,0-9.55-.9-13.41-3.76Z"/>
          <path class="cls-8" d="M65.19,347.42s5.61,2.5,10.16-.72,5.56-.67,5.49.72l.47,13s-1.2,1.34-4.94,1.46A5.16,5.16,0,0,0,74,365c-.47,2.1-7,9-22.42,5.84s-6.89-13.08-6.89-13.08l9.11-4.79s5.19-9.75,8.58-7.12C64.76,347.7,65.19,347.42,65.19,347.42Z"/>
          <path class="cls-9" d="M111.15,291.86l1.4-29.61L146.41,250v7.88s2.92,3.33,2.4,6.48-4.21,42.57-4.21,42.57-6.65,8.76-21.19,7.53S109,308.67,109,308.67s2.11-16.81,1.58-16.81"/>
          <path class="cls-9" d="M118,290.28c-.88.17-2.81,3.5-8.06,2.45l-3,16.29S105,317.6,81,312.53c0,0-8.59-2.46-9.29-7.54,0,0,1-.41,4.56-22.71S83.14,254,83.14,254L118,261.2"/>
          <path class="cls-10" d="M147.41,250v9.81S138.46,272.06,115.7,271,81,259.8,81,259.8L82.19,250Z"/>
          <path class="cls-11" d="M100.1,175.9h37a0,0,0,0,1,0,0v28.35a0,0,0,0,1,0,0H90.35a0,0,0,0,1,0,0v-18.6A9.76,9.76,0,0,1,100.1,175.9Z"/>
          <path class="cls-12" d="M138,165.29c13.54,2.08,33.31,5.2,33.31,5.2s7.57,12.1.23,28l-24.8,1.81-14.93-26A6.08,6.08,0,0,1,138,165.29Z"/>
          <path class="cls-12" d="M94.24,175.1S64,192.8,59.41,200.16c0,0,15.21,11.73,29.8,14.41"/>
          <path class="cls-12" d="M145.86,177.77l1.37,37.07,5.61,31.47s-9.11,17-33.64,18c0,0-32.24.35-40.64-16.11L91,198.78"/>
          <path class="cls-13" d="M105.54,227.45c.18.51.35,1,.54,1.52h0c5.68,15.56,15,23.34,15,23.34a84.12,84.12,0,0,0,7.33-9.9,49.81,49.81,0,0,0,2.47-4.43,19.5,19.5,0,0,0,2-5.64c-.1-1.93-.24-3.8-.41-5.6s-.32-3.29-.52-4.85a116.41,116.41,0,0,0-2.13-11.84c-.4-1.75-.83-3.38-1.27-4.89-2.81-9.69-5.83-14.39-5.71-15.08.34-2-8.29-1.29-8.29-1.29a66.71,66.71,0,0,1-1.27,10c-.22,1.12-.46,2.26-.71,3.42-.72,3.31-1.57,6.69-2.42,9.85-.31,1.1-.61,2.19-.89,3.23-1.09,3.84-2.11,7.17-2.8,9.37C105.89,226.41,105.54,227.45,105.54,227.45Z"/>
          <path class="cls-14" d="M66,218.16a25.09,25.09,0,0,0-11.59-1.7"/>
          <g>
            <path class="cls-8" d="M127.9,339.19c-.56-.19.41,4.46-2,6.56s-14.71-.47-18-6.07v-3.16s-4.83-.94-1.56,5.72a28.11,28.11,0,0,0-2.56,5.84,9.79,9.79,0,0,0,.73,6.43,173,173,0,0,0,17.17,5.25c6.54,1.4,27.21,3,31.29-2.45,0,0,4.59-9.23-14-12.61,0,0-7.15.93-7.86-.12S133.42,341.05,127.9,339.19Z"/>
            <path class="cls-15" d="M103.91,338.39a7.52,7.52,0,0,1,.7,5.72,10.56,10.56,0,0,0-.44,2.7v0a13.43,13.43,0,0,0,0,2.05A2.71,2.71,0,0,0,106,351.2a158.31,158.31,0,0,0,15.64,4.7c6.55,1.41,27.22,3,31.3-2.45a3,3,0,0,0,.09-.87h0c0-1.91-1.35-6.47-12.65-9.3-.46-.12-.95-.24-1.45-.35l-.86-.18-.67-.14-.69-.13-.93-.15-.72-.13c-.58-.12-1.25-.27-1.87-.46h-.06a6,6,0,0,1-1.78-.75,1,1,0,0,1-.25-.24,1.17,1.17,0,0,1-.08-.79c.22-1.55,1.57-4.44-3-6-.57-.19,1.54,4.25-2.44,7-6.1,4.22-12.52,1.31-16.13-2.88-1.08-1.25-.31-2.37-.31-4v-1.32S101.8,331.85,103.91,338.39Z"/>
            <path class="cls-14" d="M103.46,337.22a12.76,12.76,0,0,0,1.47,2.9,8.72,8.72,0,0,0,4.25,3.48"/>
            <path class="cls-14" d="M131.18,339.19A10.34,10.34,0,0,1,127,345"/>
          </g>
          <path class="cls-15" d="M66.07,344.31s5.6,2.51,10.16-.71,5.84-6.38,5.84-6.38a2.85,2.85,0,0,1,2.47,3.13,4.31,4.31,0,0,1-1.5,2.8l-1.32,1.16.46,13s-1.28,2.37-5,2.48a2.48,2.48,0,0,0-2.33,2.1c-.47,2.11-7,9-22.42,5.84-8.81-1.8-9.8-5.81-9-8.92a8.36,8.36,0,0,1,4.3-5.29l6.95-3.65s5.38-2.92,5.14-6.78c0,0-2.7-7.79,3.76-9.52a.34.34,0,0,1,.39.49c-1,1.76-3.44,6.56-.7,8.68C65.63,344.6,66.07,344.31,66.07,344.31Z"/>
          <path class="cls-16" d="M57.05,347c-.2.56,2.41-.15,5.69,1s6.44,3,6.64,2.43-2.66-3.31-5.94-4.5S57.25,346.39,57.05,347Z"/>
          <path class="cls-16" d="M130.29,347.34c.39.45,1-.9,3.21-2.81s2.87-2.17,2.48-2.62-1.77-.91-3.95,1S129.89,346.89,130.29,347.34Z"/>
          <path class="cls-16" d="M133.69,348.72c.4.45,1-.9,3.21-2.82s3.72-2.45,3.32-2.9-2.61-.62-4.78,1.29S133.3,348.27,133.69,348.72Z"/>
          <path class="cls-16" d="M54.72,349.47c-.21.56,2.4-.15,5.68,1s6.44,3,6.65,2.43-2.67-3.32-5.95-4.5S54.92,348.9,54.72,349.47Z"/>
          <path class="cls-14" d="M82.54,343.6c0-.17-.63.56-.76.67-1,.83-1.87,1.8-2.94,2.55a8.46,8.46,0,0,1-5.41,1.49"/>
          <path class="cls-14" d="M59.52,341.78a3.5,3.5,0,0,0,1,2A7.23,7.23,0,0,0,62.4,345"/>
          <path class="cls-12" d="M66.59,324c2.46,2,8.09,5.22,18.57,5a.77.77,0,0,0,.7-.49l1.38-3.59a.77.77,0,0,0-.76-1A29,29,0,0,1,68.75,319a.76.76,0,0,0-1.15.39l-1.26,3.84A.8.8,0,0,0,66.59,324Z"/>
          <path class="cls-12" d="M130.24,322.41a.71.71,0,0,0-1.1-.53c-1.74,1.17-6.12,3.06-14.93,1.31a10.68,10.68,0,0,1-4.08-1.71A.71.71,0,0,0,109,322l-.49,3.8a.71.71,0,0,0,.4.73,24.64,24.64,0,0,0,19.92.53.68.68,0,0,0,.26-.18A5.76,5.76,0,0,0,130.24,322.41Z"/>
          <path class="cls-17" d="M104.91,263.37h0c-.1.28-.39,6.3-.4,6.62,0,0,0,0,0,0l2.77.63s0,0,0,0l.45-6.88A20,20,0,0,0,104.91,263.37Z"/>
          <path class="cls-17" d="M129.1,263.1c-.34,0-2.42.55-2.42.55s0,7.32,0,7.32l3.1-.57Z"/>
          <path class="cls-7" d="M112.56,202.2A60.44,60.44,0,0,1,129.31,210c-.41-1.75-.9-3.56-1.34-5.07a69.79,69.79,0,0,0-14.7-6.16C113.05,199.9,112.81,201,112.56,202.2Z"/>
          <path class="cls-7" d="M109.69,215.55c6.22,2.44,16.49,6.86,22.29,11.2-.15-1.67-.36-3.61-.56-5.17a88.37,88.37,0,0,0-20.83-9.39C110.28,213.3,110,214.51,109.69,215.55Z"/>
          <path class="cls-7" d="M106.05,227.45c.18.52.35,1.15.54,1.65h0c6.12,2.73,15.6,7.38,21.46,13a47.85,47.85,0,0,0,2.42-4.38,128,128,0,0,0-23.6-12.93C106.31,226.54,106.05,227.45,106.05,227.45Z"/>
          <path class="cls-18" d="M123.34,273.81a38,38,0,0,1-1.88,15.45c.13-2.62.45-5.18.75-7.75S122.84,276.39,123.34,273.81Z"/>
          <path class="cls-18" d="M90.47,267.5c-.38.07-.77.12-1.15.16l.14-.11a10.79,10.79,0,0,1-3.34,6.37,10.48,10.48,0,0,1-6.52,3,16.57,16.57,0,0,0,5.83-3.69,16,16,0,0,0,3.73-5.74l0-.13h.1C89.7,267.39,90.09,267.43,90.47,267.5Z"/>
          <path class="cls-13" d="M124.81,182c-1-.36-4.44-2.8-11.45-.46s1.76,9.92,1.76,9.92h7.7S133.1,185.06,124.81,182Z"/>
          <path class="cls-12" d="M130.41,164.51c.82.58,6.08,5.69,6.43,8.86s-2.22,20.21-2.22,20.21l-14-12.72s6.89-5.49,9.58-11.33Z"/>
          <path class="cls-12" d="M116.87,180.51c.66.23-10.28,13.59-10.28,13.59a41.54,41.54,0,0,1-12.41-19.2l5.75-8.76S104.06,176,116.87,180.51Z"/>
          <g>
            <g>
              <g>
                <path class="cls-19" d="M61.23,84S48.1,31.53,67.93,34.27c7.93,1.1,12.47,8.45,14.07,12.6,3.43,8.9-10,14.22-13.49,5.37a20.93,20.93,0,0,1-1.27-5c-2.07-15.27-7,1.68-4.63,34.13Z"/>
                <g>
                  <path class="cls-2" d="M151.52,95.6s.13-10.7,6.76-6.5,9.1,22.66,1,31.37S151.52,95.6,151.52,95.6Z"/>
                  <path class="cls-3" d="M152.54,99.09s.21-7.36,4.7-4.54,6,15.5.35,21.58S152.54,99.09,152.54,99.09Z"/>
                </g>
                <path class="cls-2" d="M140.14,56.2c14.9,32.09,14.83,32.37,21.1,61,4.61,21-10.75,42.65-27.08,48.82-24,9.05-62.08,3.54-73.17-22.37-8.26-19.3-15.74-27.87-19.89-34.72C28,87.25,38,34.19,68.42,24.11,96.85,14.68,123.73,20.84,140.14,56.2Z"/>
                <g>
                  <g>
                    <path class="cls-20" d="M89.42,101.34c-5.26,2.29-7.11,9.79-4.13,16.73s8.74,9.46,14,7.17,8-8.52,5-15.47S94.68,99.05,89.42,101.34Z"/>
                    <path class="cls-21" d="M89.44,101.39A8.36,8.36,0,0,0,86,104.28a11,11,0,0,0-1.71,4.22,16,16,0,0,0,1,9,14.07,14.07,0,0,0,5.52,7,8.83,8.83,0,0,0,8.5.37,9.94,9.94,0,0,0,5.4-6.61,13.34,13.34,0,0,0-1-8.66,16.8,16.8,0,0,0-2.32-3.83,14.54,14.54,0,0,0-3.28-3.08,10.69,10.69,0,0,0-4.17-1.71A8.27,8.27,0,0,0,89.44,101.39Zm0-.09a9.84,9.84,0,0,1,9,.86,15.9,15.9,0,0,1,6.22,6.94,16.24,16.24,0,0,1,1.38,4.54,12.06,12.06,0,0,1-.28,4.78,10.84,10.84,0,0,1-6,7.09,9.58,9.58,0,0,1-9.17-.54,14.62,14.62,0,0,1-5.63-7.34,16.43,16.43,0,0,1-.8-9.17A9.84,9.84,0,0,1,89.4,101.3Z"/>
                  </g>
                  <path class="cls-22" d="M83.86,111.22c0-3.9,1.56-8,4.34-9.53,4.81-2.61,11.56.1,15,6.53,1.66,3.13,3.57,6.23,1.86,12.4,2.91-5.22.71-11.19-2.33-15.5s-8.34-7.49-13.33-5.36C85,101.6,83.12,107.32,83.86,111.22Z"/>
                  <path class="cls-23" d="M97.43,111.72A1.72,1.72,0,0,0,99.29,110,1.94,1.94,0,0,0,97.64,108a1.71,1.71,0,0,0-1.86,1.68A1.93,1.93,0,0,0,97.43,111.72Z"/>
                </g>
                <g>
                  <path class="cls-24" d="M107.15,145c1.77,1.31,16.94,9.24,26.5,1.9,5.51-4.22,9.16-15.94,8-17.92a.55.55,0,0,0-.72-.25c-7,2.39-7.74,2.84-15.4,4.56-6.67,1.49-18,1.45-21.82,3.92C101.42,138.66,101.74,141,107.15,145Z"/>
                  <path class="cls-22" d="M103.69,137.21c4.25-.08,10.93-.39,19.47-1.4,13.52-1.6,17.53-5.69,18.47-6.83a.55.55,0,0,0-.72-.25c-7,2.39-7.74,2.84-15.4,4.56C118.84,134.78,107.54,134.74,103.69,137.21Z"/>
                </g>
                <path class="cls-25" d="M127.75,148.33a12.68,12.68,0,0,1-7-.35,8.19,8.19,0,0,1,4.33-4.33c3-1.28,7.48-2,9.7-.05C133.46,145.74,129.94,147.77,127.75,148.33Z"/>
                <path class="cls-20" d="M105.88,137.17a110.55,110.55,0,0,0,19.74-2.47c9.37-2.22,11.56-2.51,14.53-4.32,0,4.23-5.93,8.5-13.87,10.24C115.36,143,110.92,140.54,105.88,137.17Z"/>
                <g>
                  <path class="cls-26" d="M132.87,88.9c-5.26,2.3-7.11,9.79-4.13,16.74s8,9.63,13.29,7.34a11.64,11.64,0,0,0,5.76-15.65C144.81,90.38,138.13,86.61,132.87,88.9Z"/>
                  <path class="cls-22" d="M127.31,98.78c0-3.9,1.56-8,4.33-9.53,4.81-2.61,11.56.1,15,6.53,1.66,3.13,3.56,6.23,1.85,12.4,2.92-5.22.71-11.19-2.33-15.5s-8.34-7.49-13.32-5.36C128.48,89.16,126.57,94.88,127.31,98.78Z"/>
                </g>
                <g>
                  <path class="cls-2" d="M53.88,130c-19-6.28-13.43,10.44-7.08,19,6.76,9.12,15.36,8.9,19.07,2.82"/>
                  <path class="cls-3" d="M49,145.82c3.84,4.56,9.44,6.61,10.22,4.54,3.1-8.3-2.81-3.86-5.87-8.54-3.58-5.45-.72-9.51-6.58-8.12C43.51,134.47,44.47,140.45,49,145.82Z"/>
                </g>
                <path class="cls-3" d="M118,56.9c-3.47,4.89-7.9,9.33-13.3,11.81-10.56,4.87-18.52,4.76-29.85,1.83C81.94,67.43,91.29,61,93.62,56.48c-6.68-2.42-12.9-.69-20,.17-.53.07-.52,1-.67,1.54-2.71,10.75-14.62,10-16.61,11,9.79,1.69,19.17,33.09-10.33,46-2.57,1.12-5.14-4.75-6.89-7A23,23,0,0,1,34.43,96a31.14,31.14,0,0,0-.57-5.79c-.52-2-1.67-3.71-2.12-5.68-.82-3.49.62-7,2.12-10.24,3.88-8.22,8.48-16.15,14.46-22.91S61.71,39.06,70.18,36.13C76.39,34,83,33.31,89.56,32.76c9-.75,18.12-1.25,26.82,1.22A81.27,81.27,0,0,1,127,38.09a22.63,22.63,0,0,1,6.18,3.55,21.39,21.39,0,0,1,3.3,4.13c8.38,12.74,16.1,31.09,18.64,46.15C149.59,82.86,142.29,66.1,136.75,57c-1.11-1.83-13.54-8.89-14.86-7.82C121.21,49.77,119,55.55,118,56.9Z"/>
                <path class="cls-27" d="M116.65,45s5.07,24.23-40.37,25.13c0,0,40.33-24.7-7-15.32,0,0,5.23,6.89-19.16,14.08,0,0,26.62,9.77,1.08,41.68,0,0-3.11,2.73,1,13.69.36,1,1.46,3,3,6,8.18,15.74-5.73-1.75-5.73-1.75S33.8,130,29,111.43c0,0-17.09-9.62-10.94-28.78,0,0-14.34-20.06,12-32.48,0,0,1-24.36,18-28,0,0,19.49-23.56,43.08-9.14,0,0,17.4-11,35.25,6.69,0,0,19.49,4,18.92,19.61,0,0,15.94,4,6,18.67,0,0,13.31,6.18,2.11,18.76l1.88,15.64L139.51,56.16S138.08,50.41,116.65,45Z"/>
                <path class="cls-28" d="M124.26,71.07h0c.62-1.83,5.67-2.15,7.55-1.65,2.84.76,6.08,2,8.72,8.09.23.53.32,1-.13.59-2.66-2.24-8.31-5.5-13.64-5A2.24,2.24,0,0,1,124.26,71.07Z"/>
                <path class="cls-28" d="M92.61,78.15h0c-1.18-1.52-6-.11-7.66,1-2.42,1.68-5.08,3.9-5.57,10.58,0,.58,0,1,.32.52,1.77-3,6-8,11.23-9.32A2.26,2.26,0,0,0,92.61,78.15Z"/>
                <path class="cls-29" d="M131.41,117.15a6.72,6.72,0,0,1,.43,5.28,6.15,6.15,0,0,1-1.59,2.42,7.38,7.38,0,0,1-2.45,1.48,9.49,9.49,0,0,1-5.46.39,5.39,5.39,0,0,1-3.94-3.5,6.47,6.47,0,0,0,4.21,2,11.23,11.23,0,0,0,4.49-.72,6,6,0,0,0,3.31-2.66A9.74,9.74,0,0,0,131.41,117.15Z"/>
              </g>
              <g>
                <circle class="cls-30" cx="93.31" cy="113.78" r="6.18"/>
                <circle class="cls-23" cx="95.77" cy="109.18" r="1.43"/>
              </g>
              <g>
                <circle class="cls-30" cx="135.67" cy="101.27" r="6.18"/>
                <circle class="cls-23" cx="138.13" cy="96.67" r="1.43"/>
              </g>
            </g>
            <path class="cls-31" d="M135.36,151.69a8.6,8.6,0,0,1-9.53,2,12.28,12.28,0,0,0,5,0A12.15,12.15,0,0,0,135.36,151.69Z"/>
          </g>
        </g>
        <g>
          <path class="cls-4" d="M180.61,146s-5.24-12.91,4.33-15.74c6.28-1.86,6.14-.31,7.72,4,0,0,7.82-1.7,9.22,3.49,0,0,8.07-1,7,3.44,0,0,3.94-.38,3,3.48s-10.29,17.85-13,19.3S188,165,182,159,180.61,146,180.61,146"/>
          <g>
            <rect class="cls-32" x="184.69" y="131.99" width="5.49" height="9.66" rx="1.16" transform="translate(-41.15 176.87) rotate(-46.07)"/>
            <path class="cls-33" d="M187.6,134.61l-.35-.5c.28-.16.56-.3.84-.45L192,137.4a1.15,1.15,0,0,1,0,1.64l-.59.61h0l-1.6,1.67a1.17,1.17,0,0,1-1.64,0l-.41-.4A5.84,5.84,0,0,0,187.6,134.61Z"/>
            <path class="cls-34" d="M165.23,133.64S187.76,156,193.34,156c0,0,5.76.36,9.87-5.84,0,0-22.58-19.55-25.84-24.7Z"/>
            <path class="cls-35" d="M200.52,152.71c-3.35-2.92-21.72-19-26.77-25.28l3.4-2.29c3.26,5.15,25.84,24.69,25.84,24.69A15.06,15.06,0,0,1,200.52,152.71Z"/>
            <path class="cls-32" d="M179.87,121l2.62,3.81a5.23,5.23,0,0,1-1.35,7.26L172,138.33a5.22,5.22,0,0,1-7.26-1.35l-2.62-3.81Z"/>
            <path class="cls-33" d="M168.89,135.59l10.8-7.42a6.18,6.18,0,0,0,2.53-3.76l.27.39a5.23,5.23,0,0,1-1.35,7.26L172,138.33a5.22,5.22,0,0,1-7.26-1.35l-.27-.38A6.2,6.2,0,0,0,168.89,135.59Z"/>
            <path class="cls-36" d="M150.19,111.74l15.93,23.19a14.08,14.08,0,0,1-15.93-23.19Z"/>
            <rect class="cls-37" x="157.09" y="105.83" width="12.08" height="28.15" transform="matrix(0.82, -0.57, 0.57, 0.82, -39.22, 113.41)"/>
            <path class="cls-34" d="M192,54.11C193,58.57,200.71,71.92,211.07,87s20,27,23.82,29.61c-8.88-2.46-35-4.89-58.81,11.49l-15.94-23.21C184,88.5,191.09,63.28,192,54.11Z"/>
            <path class="cls-33" d="M210.3,87.52c11.85,17.26,22.86,30.28,24.6,29.09s-6.47-16.15-18.32-33.41S193.72,52.92,192,54.11C191.6,54.37,198.44,70.26,210.3,87.52Z"/>
            <path class="cls-37" d="M145.82,128.84s0,0,0,0c-.14-.31-.27-.63-.39-.95a1.43,1.43,0,0,0-.08-.22c-.1-.31-.2-.62-.28-.93a2.68,2.68,0,0,1-.07-.27c-.08-.3-.15-.61-.2-.91,0-.1,0-.2,0-.3-.05-.3-.09-.6-.12-.91a2.83,2.83,0,0,0,0-.29q0-.47,0-.93a1.76,1.76,0,0,1,0-.23,14.59,14.59,0,0,1,.37-3l.06-.29c.06-.23.13-.45.2-.68s.11-.35.17-.53.15-.4.23-.59.15-.39.24-.58.18-.37.27-.55.2-.4.31-.59l.3-.5c.13-.2.26-.4.4-.59l.32-.45c.15-.2.32-.4.48-.6l.34-.39c.19-.22.4-.42.61-.63l.31-.3c.32-.29.66-.58,1-.85l4.33,6.3-2.92,2,0,0A15.8,15.8,0,0,0,145.82,128.84Z"/>
            <path class="cls-38" d="M164.46,111.18l-1.76,1.25L154.52,118l-4.34-6.32,10-6.83h0Z"/>
            <path class="cls-35" d="M160.14,104.89h0c.68-.47,1.33-.94,2-1.42l.59-.44c.46-.35.91-.69,1.36-1q.3-.23.6-.48c.49-.39,1-.78,1.44-1.19.13-.1.26-.2.38-.31.58-.5,1.16-1,1.72-1.52l.44-.41,1.22-1.17.54-.53c.38-.38.76-.76,1.13-1.15l.45-.46q.75-.8,1.47-1.59l.24-.27,1.17-1.36c.16-.18.31-.37.46-.55l.92-1.13c.15-.19.3-.37.44-.56l1-1.36.22-.29c.4-.54.78-1.08,1.16-1.62l.39-.56c.25-.37.5-.73.74-1.1l.42-.64.69-1.09.36-.57c.32-.52.63-1,.92-1.55.13-.21.24-.41.36-.62l.56-1,.4-.74c.16-.29.31-.58.46-.87l.39-.75c.16-.31.31-.62.46-.92s.42-.87.62-1.3c.12-.24.23-.5.35-.74l.39-.88.27-.62.39-.91.2-.48c.45-1.12.87-2.21,1.25-3.27l.09-.26c.13-.35.25-.71.37-1.06l.06-.17A56.58,56.58,0,0,0,192,54.11h0c.45,1.9,2.1,5.4,4.63,10-.1.4-.21.8-.33,1.22a86,86,0,0,1-31.82,45.89Z"/>
            <path class="cls-39" d="M220.94,81.61h0l-.09-.14Z"/>
            <path class="cls-40" d="M205.53,78.94a11.85,11.85,0,0,1,13.4,19.51Z"/>
            <path class="cls-41" d="M164.68,135.7l-.88.38-.34.13q-.45.16-.93.3l-.27.08a14.66,14.66,0,0,1-2.44.42l-.34,0c-.29,0-.59,0-.88,0h-.41a8.24,8.24,0,0,1-.85-.05l-.37,0c-.39-.05-.78-.11-1.16-.18l-.31-.08q-.42-.09-.84-.21l-.49-.16-.63-.22-.52-.21-.6-.28-.49-.24c-.3-.17-.61-.34-.9-.53l-.47-.32-.45-.32a17.92,17.92,0,0,0,6.6-2.46l4.91-3.37,4.5,6.54c-.38.23-.76.43-1.14.63Z"/>
            <path class="cls-42" d="M169.14,123.22v0c.82-.57,1.64-1.11,2.47-1.64l4.45,6.49h0l-9.94,6.83-4.5-6.54Z"/>
            <path class="cls-43" d="M225.63,106.7c4.1,5.08,7.4,8.63,9.26,9.91h0c-4.58-1.27-13.74-2.53-24.81-1.2l-.18,0-1.43.19-.21,0c-1.41.2-2.84.45-4.3.74l-.56.11-1.2.26-.7.16-1.17.28-.77.2c-.64.17-1.27.34-1.91.53l-1,.28-1,.31-1,.33-1,.33-1.19.43-.86.32c-.61.23-1.21.47-1.82.72L189,121l-1.24.54-.84.39q-.66.3-1.32.63l-.72.34c-.65.33-1.31.67-2,1l-.55.31c-.51.27-1,.55-1.51.85l-.72.42-1.41.86-.66.42c-.66.42-1.33.86-2,1.31l0,0-4.46-6.5A96.24,96.24,0,0,1,225.63,106.7Z"/>
            <path class="cls-37" d="M192,54.11C193,58.57,200.71,71.92,211.07,87s20,27,23.82,29.61a50.2,50.2,0,0,0-8.52-1.45,145.75,145.75,0,0,1-20.56-23.71,145.05,145.05,0,0,1-15.53-28.86A50.57,50.57,0,0,0,192,54.11Z"/>
            <path class="cls-44" d="M190.28,62.59a50.57,50.57,0,0,0,1.7-8.48h0c.45,1.9,2.1,5.4,4.63,10-.1.4-.21.8-.33,1.22-.54,1.95-1.22,4.06-2,6.27C192.82,68.62,191.49,65.63,190.28,62.59Z"/>
            <path class="cls-36" d="M234.9,116.61a50.53,50.53,0,0,0-8.53-1.45c-2.87-2.67-5.63-5.46-8.28-8.34,2.65-.14,5.17-.17,7.54-.12,4.1,5.08,7.4,8.63,9.27,9.91Z"/>
            <path class="cls-45" d="M215.12,86.16c1.73,2.51,4.29,3.76,5.72,2.77s1.2-3.82-.53-6.34-4.29-3.75-5.72-2.77S213.39,83.64,215.12,86.16Z"/>
          </g>
          <path class="cls-4" d="M205.88,153.6c2.14-3.37,6.24-6.55,6.61-8.11.91-3.86-3-3.48-3-3.48,1-4.41-7-3.44-7-3.44-1.4-5.19-9.22-3.5-9.22-3.5-1.57-4.35-1.44-5.89-7.72-4-6.54,1.94-6.17,8.58-5.27,12.59"/>
          <path class="cls-4" d="M184.75,161.28a19.2,19.2,0,0,1-9.68-11.62c-2.27-7.9,3.47-7.59,6.12-9.15s7.05-4.78,5.69,1.31-5,3.32,1.07,8.57,2.69,3.46,4.15,5.63"/>
          <path class="cls-4" d="M192.66,134.35c.56,1.59-3.68,9.17-3.68,9.17"/>
          <path class="cls-46" d="M201.88,137.84s-2.28,7-6.07,8.2-9.26-.06-6.83-2.52"/>
          <path class="cls-46" d="M208.63,140.85s-2.27,7-6.06,8.2-9.26-.06-6.83-2.52"/>
          <path class="cls-46" d="M212.63,143.66s-2.28,7-6.07,8.2-9.26-.06-6.83-2.52"/>
        </g>
      </g>
    </g>
  </g>
</svg>
