<svg id="Layer_1" data-name="Layer 1" xmlns="http://www.w3.org/2000/svg" xmlns:xlink="http://www.w3.org/1999/xlink" width="309.96" height="308.28" viewBox="0 0 309.96 308.28">
  <defs>
    <style>
      .cls-1 {
        fill: none;
      }

      .cls-2 {
        fill: #fffa4d;
      }

      .cls-3 {
        clip-path: url(#clip-path);
      }

      .cls-4 {
        fill: url(#linear-gradient);
      }

      .cls-5 {
        fill: url(#linear-gradient-2);
      }

      .cls-6 {
        fill: #fff;
      }

      .cls-7, .cls-8 {
        fill: #e2f3f7;
      }

      .cls-8 {
        opacity: 0.56;
      }

      .cls-9 {
        fill: url(#linear-gradient-3);
      }

      .cls-10 {
        fill: url(#linear-gradient-4);
      }

      .cls-11 {
        fill: url(#linear-gradient-5);
      }

      .cls-12 {
        fill: url(#linear-gradient-6);
      }
    </style>
    <clipPath id="clip-path">
      <rect class="cls-1" x="13.35" y="12.51" width="283.26" height="283.26"/>
    </clipPath>
    <linearGradient id="linear-gradient" x1="155.85" y1="322.15" x2="159.55" y2="-30.87" gradientUnits="userSpaceOnUse">
      <stop offset="0" stop-color="#ceebf6"/>
      <stop offset="0.09" stop-color="#b8dff1"/>
      <stop offset="0.27" stop-color="#8bc6e7"/>
      <stop offset="0.46" stop-color="#68b3df"/>
      <stop offset="0.63" stop-color="#4fa5da"/>
      <stop offset="0.78" stop-color="#409dd6"/>
      <stop offset="0.91" stop-color="#3b9ad5"/>
    </linearGradient>
    <linearGradient id="linear-gradient-2" x1="147.61" y1="295.78" x2="147.84" y2="273.64" gradientUnits="userSpaceOnUse">
      <stop offset="0" stop-color="#9ebe5a"/>
      <stop offset="0.22" stop-color="#b8cf76"/>
      <stop offset="0.48" stop-color="#cfde8f"/>
      <stop offset="0.72" stop-color="#dde79e"/>
      <stop offset="0.91" stop-color="#e2eaa3"/>
    </linearGradient>
    <linearGradient id="linear-gradient-3" x1="264.11" y1="83.64" x2="262.24" y2="-10.15" gradientUnits="userSpaceOnUse">
      <stop offset="0" stop-color="#cde4ee"/>
      <stop offset="0.32" stop-color="#e5f1f6"/>
      <stop offset="0.56" stop-color="#f3f8fb"/>
      <stop offset="0.7" stop-color="#fafcfd"/>
      <stop offset="0.91" stop-color="#fff"/>
    </linearGradient>
    <linearGradient id="linear-gradient-4" x1="177.48" y1="143.98" x2="173.4" y2="43.41" gradientUnits="userSpaceOnUse">
      <stop offset="0.23" stop-color="#cde4ee"/>
      <stop offset="0.26" stop-color="#d2e7f0"/>
      <stop offset="0.51" stop-color="#ebf4f8"/>
      <stop offset="0.73" stop-color="#fafcfd"/>
      <stop offset="0.91" stop-color="#fff"/>
    </linearGradient>
    <linearGradient id="linear-gradient-5" x1="220.07" y1="219.73" x2="220.27" y2="200.53" gradientUnits="userSpaceOnUse">
      <stop offset="0" stop-color="#cde4ee"/>
      <stop offset="0.05" stop-color="#d2e7f0"/>
      <stop offset="0.38" stop-color="#ebf4f8"/>
      <stop offset="0.67" stop-color="#fafcfd"/>
      <stop offset="0.91" stop-color="#fff"/>
    </linearGradient>
    <linearGradient id="linear-gradient-6" x1="156.55" y1="298.65" x2="156.86" y2="268.33" gradientUnits="userSpaceOnUse">
      <stop offset="0" stop-color="#9ebe5a"/>
      <stop offset="0.31" stop-color="#b3cd67"/>
      <stop offset="0.64" stop-color="#c2d870"/>
      <stop offset="0.91" stop-color="#c7dc73"/>
    </linearGradient>
  </defs>
  <g>
    <rect class="cls-2" x="5.35" y="4.51" width="299.26" height="299.26" rx="8" transform="translate(309.12 -0.84) rotate(90)"/>
    <g class="cls-3">
      <g>
        <rect class="cls-4" x="11.55" y="12.49" width="292.13" height="283.31"/>
        <g>
          <path class="cls-5" d="M24.48,290.71c.14.69.28,1.38.4,2.08l249,2.24c-66.59-18.46-113.69-20.18-145.15-18-9.23.66-31.15,2.61-69.84,5.33-13.87,1-26.47,1.81-37.47,2.51A12.56,12.56,0,0,1,24.48,290.71Z"/>
          <path class="cls-6" d="M298.26,111c-.42-.35-7.75-6.14-15.4-3.16a13.65,13.65,0,0,0-5.77,4.4,10.25,10.25,0,0,0-10.61-5c-4.19.76-7.46,4.16-8,7.42-.3,2,.51,3.31-.21,3.86-1.21.91-3.72-2.58-7.74-3.33-4.47-.83-10.71,1.71-12.73,6.9a11.7,11.7,0,0,0,.53,9,6.82,6.82,0,0,0-11.14,7.25,8.09,8.09,0,0,0-9.18-2.63c-3.78,1.61-5.78,6.78-3.55,11.3a22.7,22.7,0,0,0-15.91-2c-1.74.47-7.05,1.89-10.25,6.72-.85,1.28-2.78,4.18-2.12,7.78a9.06,9.06,0,0,0,1.76,3.89c-13.54,1.31-28.13,2.81-28.1,3.24,0,.22,3.71.06,8.48-.06,7.34-.19,15.66-2.31,31.82,0,11.14,1.59,18-.67,29.17.46,1.42,3.22,7.27,5.52,15.45,5.88,9.47.42,15.61-2,29.41-5.75a210.66,210.66,0,0,1,24.05-5Z"/>
          <path class="cls-6" d="M15,83.93s20.45-8.48,24.06,13.79c12.09-4.24,17.39,8.49,14.21,15.91,2.13-2.5,5.29-3.44,7.42-2.47,2.86,1.29,4.43,6.23,1.6,10.43,1.94-3.84,5.64-5,7.24-4.07s2.14,4.41.18,7.78c.58-.36,4.85-3,9.63-1.29a11.61,11.61,0,0,1,7.34,11.37,102.17,102.17,0,0,1,31.83,6.36s-16.45,1.59-27.05,3.18-8.57,4.25-24.71,4.25c-16.66.53-6.37-4.78-27.69,0C35.77,153.35,15,151.3,15,151.3Z"/>
          <path class="cls-7" d="M176,167.12a61.87,61.87,0,0,0,17.69-4.34,25.68,25.68,0,0,1,8.49-2.48,22.79,22.79,0,0,1,10.25,1.6c-.22-.75-1.59-5.69,1.06-9,3.08-3.86,10.72-4.53,17,.47-.15-.73-1.27-6.44,2.12-10,3.78-4,12-4.07,18,1.59-1.81-3.7-2-7.93,0-10.78,3-4.32,11.12-5.48,17.5-.35-.16-.53-2.09-7.52,1.94-12s13.15-5.06,19.8.89c6.9-5.31,8.45-2.14,8.45-2.14v41.71s-18.18,2.49-33.2,8.24A51.33,51.33,0,0,1,252.33,173a54,54,0,0,1-27.22-5.3Z"/>
          <path class="cls-7" d="M15,102.07s13.87.44,15.46,14.75c.26-.25,4.41-4.19,10.08-2.83,3.86.92,7.1,4,7.78,7.42.85,4.25-2.47,7.81-1.41,8.66.9.74,3-1.87,7.07-2.65.85-.16,7-1.24,9.54,2.48,1.72,2.52,1.24,6.5-1.23,9.72A22.49,22.49,0,0,1,74.79,138c2.14.31,4.44,1.35,7.65,3.76,10.08-2.12,36.07,0,36.07,0a100.5,100.5,0,0,0-21.4,2.65c-8.06,1.92-9.69,3.42-17.68,4.6a65.41,65.41,0,0,1-18.16.33,60.78,60.78,0,0,1-10.65-2.4C42.46,149,29.25,155,15,151.3Z"/>
          <path class="cls-8" d="M97,189.4s2.3-1.28,7.92,0a4.3,4.3,0,0,1,.2-1.87,4.21,4.21,0,0,1,2.36-2.6,4.11,4.11,0,0,1,4.34,1.15,3.05,3.05,0,0,1-.8-2.19c.22-1.8,2.76-3.24,4.77-2.61a4.1,4.1,0,0,1,2.41,2.5c2.82-4.86,6.65-4.09,8.44.51a2.77,2.77,0,0,1,2.44-.85,2.7,2.7,0,0,1,1.77,1.47,3.38,3.38,0,0,1,.13,2.7,4.31,4.31,0,0,1,2.44-1.78c1.46-.37,3.59,0,4.29,1.58a3.5,3.5,0,0,1-.34,3c5.62-2.81,6.13-.51,6.39,2a9.4,9.4,0,0,1,10.47,3.84s-2.1-2.05-8,0c0,0-1,2.55-4.57,0,0,0-4,1.79-5.82-.14-1.59-.69-3.52-.23-6.81.79-3.52.57-7.16-1.93-8.63-3.07s-3.18-1-5.34.35-2.16-.57-3.63-1.82c0,0-1,.91-3.41.11-1.51-.5-2.33-1.28-3.83-1.81a20,20,0,0,0-3.55-.57C99.1,189.88,97.82,189.6,97,189.4Z"/>
          <g>
            <path class="cls-6" d="M100.53,220.55a60.72,60.72,0,0,0-11.08-2.34c-3.77-2.83-6.83-6.13-13.9-5.42a9.7,9.7,0,0,0-7.49-3,9.34,9.34,0,0,0-5.72,2.64,8,8,0,0,0-2.76-5.21A7.8,7.8,0,0,0,52,206c-2.06.85-3,2.56-3.48,2.27s1.45-2.87.77-5.43c-.77-2.93-4.58-4.22-4.95-4.24-5.74-.28-8.47,1.32-9.9,2.83-2.27,2.39-1.66,4.92-3.89,5.91-2.74,1.21-5.2-2.08-8.88-.79A8.79,8.79,0,0,0,18,209.25a10.14,10.14,0,0,1-3,2.06,3.15,3.15,0,0,1,0,1v1.17a9.55,9.55,0,0,1,0,1.07c.7.16,1.42,0,1.85.15a8,8,0,0,0,3.11.65c2.82,0,4.16-1.92,6.32.06,2.83,2.59,1.41,5.66,6.6,3.54s7.31-3.07,11.79-.71c7.21,7.95,23.1,3.77,29.93,3.77,4.25,3.77,8.25,2.12,13.67-.94a25.94,25.94,0,0,0,21.81,3.4A60.52,60.52,0,0,0,100.53,220.55Z"/>
            <path class="cls-7" d="M89.45,221.14c-3.77-2.83-6.83-6.13-13.9-5.42-5.19-4-9-4.72-13.21,1.65-2.52-3.7-5.9-7.4-9.54-7.07-3.35.3-5.8,3.91-6.81,3.2s2.06-4.92.44-7.52c-1.36-2.2-6-3-8.71-1.34s-3,4.81-5.93,5.66a2.59,2.59,0,0,1-1.27,0c-4.95-1.18-8.72-2.6-12.49,1.88A4.57,4.57,0,0,1,15,213.64c0,1.09.05,1.36.05,2.2,0,.2,0,.7,0,.9.6.31,1.27.63,1.85.86,5.19,2.13,6.6-1.88,9.43.71s1.41,5.66,6.6,3.54,7.31-3.07,11.79-.71c7.21,8,23.1,3.77,29.93,3.77,4.25,3.77,7.58-2.21,13.67-.94,16.56,3.46,21.81.47,21.81.47S95.35,222.32,89.45,221.14Z"/>
          </g>
          <g>
            <path class="cls-6" d="M48.59,44.45a8.79,8.79,0,0,1,3.61-2.67c3.69-1.29,6.15,2,8.88.79,2.23-1,1.62-3.52,3.89-5.91,1.44-1.51,4.17-3.11,9.9-2.83A5.58,5.58,0,0,1,77.58,44L82,40.9a8.72,8.72,0,0,1,4.59,0c4.65,1.32,6.23,6.26,6.37,6.72A9.3,9.3,0,0,1,98.63,45a9.67,9.67,0,0,1,7.48,3c7.07-.71,10.13,2.59,13.9,5.42a60.55,60.55,0,0,1,11.08,2.34,61.49,61.49,0,0,1,9.55,3.89,25.91,25.91,0,0,1-21.8-3.4c-5.43,3.06-9.43,4.71-13.68.94-6.83,0-22.72,4.18-29.93-3.77-4.48-2.36-6.6-1.41-11.79.71s-3.77-.94-6.6-3.54c-2.16-2-3.49-.11-6.32-.06a8.07,8.07,0,0,1-3.11-.64c-2-.73-6.76-1.57-17.68-2.26C41.37,49,46.3,46.86,48.59,44.45Z"/>
            <path class="cls-7" d="M48.59,47.38c3.77-4.48,7.54-3.06,12.49-1.88,3.19.76,3.14-3.8,7.21-5.66a12.33,12.33,0,0,1,5.52-1.06c1.7,1.21,3.41,2.92,3.77,5.2.46,2.87-1.42,5.29-.84,5.7.74.53,3.24-3.74,6.62-4.18s6.76,3.06,9.55,7.07c4.24-6.36,8-5.66,13.2-1.65,7.07-.71,10.13,2.59,13.9,5.42,5.9,1.18,18.55,2.83,18.55,2.83s-12.18,2.12-19.72,0c-5.43,3.06-9.43,4.71-13.68.94-6.83,0-22.72,4.18-29.93-3.77-4.48-2.36-6.6-1.41-11.79.71s-3.77-.94-6.6-3.54-4.24,1.42-9.43-.7S36.57,45.5,29.73,47.62C32.33,44.79,44.82,51.86,48.59,47.38Z"/>
          </g>
          <path class="cls-9" d="M289.46,46.92s-20.27-6.21-23.81,7.86c0,0-4-4.32-8.25,3.69-9.9-3.53-8.76,3.3-11.1,5.66a99.73,99.73,0,0,0-17.42,3.77,71.84,71.84,0,0,1,16,0c9.9.95,9.66-3.63,16.5-1.82s26.87,8.19,32.29,4.18,4.56-1.41,4.56-1.41V45.56Z"/>
          <path class="cls-10" d="M125.62,110.57s2.6-.71,9.2,0-.24-4.25,5.42-5.9a20.52,20.52,0,0,1,10.84,0,11,11,0,0,1,3.54-5.18,12.54,12.54,0,0,1,6.24-2.37c4.62-.79,5.95,1.09,7.9-.11,2.51-1.53,1-4.84,3.54-7.78,3.07-3.6,9.09-3,10.24-2.87,8.59,1.06,12.52,10.13,12.74,10.65A8.31,8.31,0,0,1,211,98.07c10.85.48,15.33,3.88,15.33,3.88a21.56,21.56,0,0,1-4.13.75,21.86,21.86,0,0,1-7.66-.75c-2.59.06-6.41.17-11.06.46-4.33.27-8.88.57-8.89,1,0,.79,12.45,1.42,12.43,2.19,0,.32-2.13.5-2.62.53-10.09.81-27.09.24-27.1.39s13.42,1.08,13.47,2.8c0,.35-.52.74-2.16,1.28-4.86,1.58-9.07,1-14.85.16-7.05-1-10.65-1.47-14.06-.85a26,26,0,0,0-5.27,1.56c-1.58.18-3.2.32-4.87.43A101.16,101.16,0,0,1,125.62,110.57Z"/>
          <path class="cls-11" d="M166.1,214.76a9,9,0,0,0,5.54,2.18c4.4.11,7.13-3.92,10.33-6.43,3.41-2.66,9.24-5.15,19.8-3.89a26.44,26.44,0,0,1,11.36-3.41,26.1,26.1,0,0,1,8.44.88c12.73-4.89,9.2-4,20.51-.89,12.73-4.71,32.13,5.6,32.13,5.6-10.66-4.15-18.53-4-23.88-3-3.79.71-6.59,1.9-13.89,3s-12.11,1-12.14,1.62c-.05,1.18,19.22,2.31,19.2,4,0,.93-6,1.72-8.28,2a58.46,58.46,0,0,1-6.34.52c-16.5-.06-37,5.72-46.2,0C175.61,220.41,166.1,214.76,166.1,214.76Z"/>
          <path class="cls-12" d="M15,281.09s36.15-5.16,70.8,8.62c38.89,9.2,103.24-4.83,134.36-9.48s56.49-10.32,78.1-4.66l.05,19.46H15Z"/>
        </g>
      </g>
    </g>
  </g>
</svg>
