<svg id="Layer_1" data-name="Layer 1" xmlns="http://www.w3.org/2000/svg" width="311.74" height="262.21" viewBox="0 0 311.74 262.21">
  <defs>
    <style>
      .cls-1 {
        fill: #fffa4d;
      }

      .cls-1, .cls-10, .cls-11, .cls-12, .cls-13, .cls-14, .cls-15, .cls-16, .cls-17, .cls-18, .cls-19, .cls-2, .cls-20, .cls-22, .cls-23, .cls-24, .cls-25, .cls-3, .cls-4, .cls-5, .cls-6, .cls-7, .cls-8, .cls-9 {
        fill-rule: evenodd;
      }

      .cls-2 {
        fill: #239494;
        stroke: #146664;
      }

      .cls-13, .cls-14, .cls-17, .cls-19, .cls-2, .cls-20, .cls-22, .cls-23, .cls-5, .cls-8 {
        stroke-miterlimit: 10;
      }

      .cls-2, .cls-5, .cls-8 {
        stroke-width: 0.75px;
      }

      .cls-3 {
        fill: #208080;
      }

      .cls-4 {
        fill: #366;
      }

      .cls-5 {
        fill: #24abab;
        stroke: #146866;
      }

      .cls-6 {
        fill: #209999;
      }

      .cls-7 {
        fill: #418080;
      }

      .cls-8 {
        fill: #73d1cc;
        stroke: #419e97;
      }

      .cls-9 {
        fill: #9cc;
      }

      .cls-10 {
        fill: #822260;
      }

      .cls-11 {
        fill: #994b99;
      }

      .cls-12 {
        fill: #5abfba;
      }

      .cls-13 {
        fill: #c96ebd;
        stroke: #993a90;
      }

      .cls-13, .cls-14, .cls-17, .cls-19, .cls-20, .cls-22, .cls-23 {
        stroke-width: 0.5px;
      }

      .cls-14, .cls-18 {
        fill: #a33484;
      }

      .cls-14, .cls-17, .cls-20, .cls-23 {
        stroke: #891989;
      }

      .cls-15, .cls-23 {
        fill: #ab388e;
      }

      .cls-16 {
        fill: #a854a8;
      }

      .cls-17 {
        fill: #a83799;
      }

      .cls-19 {
        fill: #a63786;
        stroke: #7a1f64;
      }

      .cls-20 {
        fill: #912f7d;
      }

      .cls-21 {
        fill: #a13092;
      }

      .cls-22 {
        fill: #962c78;
        stroke: #701c5c;
      }

      .cls-24 {
        fill: #b043a1;
      }

      .cls-25 {
        fill: #b54ba7;
      }
    </style>
  </defs>
  <g>
    <path class="cls-1" d="M155.71,256.36a7.9,7.9,0,0,1-3.13-.64l-.11,0-.56-.27L84.65,223.34l-.24-.11L83,222.57,69.27,216l-.28-.13L67.08,215,12.25,188.82a8,8,0,0,1-4.56-7.13L7,120.57a8,8,0,0,1-.87-3.37L5.24,89.9a8,8,0,0,1,4.5-7.47l62-30.14.32-.16,17.38-8.44.32-.15,3-1.48c4.56-12.73,15.35-30.61,27.41-34.49l.27-.08a12.67,12.67,0,0,1,3.53-.44,42.54,42.54,0,0,1,7.28.84l.88.15a8.26,8.26,0,0,1,1.66.43l0,0a33,33,0,0,1,12.15,7.73l6.32-3.07a8.06,8.06,0,0,1,3.48-.8H156a5.51,5.51,0,0,1,1.73.19,17.77,17.77,0,0,1,1.78-1.7l.23-.19a12.11,12.11,0,0,1,1.06-.83,23.38,23.38,0,0,1,8.07-3.4,26.35,26.35,0,0,1,5.59-.57c11.7,0,29.33,7.24,37.58,19A25.6,25.6,0,0,1,217.45,42l4.2,2.07,15.43,7.61.24.12c4.3,2.12,8.56,4.21,12.74,6.25l.35.17L253,59.48l3.64,1.78c4.45,2.17,8.74,4.25,12.81,6.21l.18.09,6,2.89.31.16c19.29,9.23,23.9,11,25,11.4a8,8,0,0,1,5.14,10.11L305.58,118a8.07,8.07,0,0,1-.89,3.5l-.64,60a8,8,0,0,1-4.55,7.14L159.32,255.51q-.27.13-.54.24A8.16,8.16,0,0,1,155.71,256.36Z"/>
    <g>
      <polygon class="cls-2" points="15 116.17 155.91 175.05 155.89 248.27 155.71 248.36 15.69 181.6 15 116.17"/>
      <polygon class="cls-3" points="21.89 118.55 26.75 120.57 26.75 186.37 21.89 184.05 21.89 118.55"/>
      <polygon class="cls-3" points="36.94 125 41.79 127.04 41.79 193.71 36.94 191.39 36.94 125"/>
      <polygon class="cls-3" points="52.24 131.31 57.07 133.35 57.07 200.93 52.24 198.61 52.24 131.31"/>
      <polygon class="cls-3" points="67.61 138.16 72.45 140.18 72.45 208.67 67.61 206.35 67.61 138.16"/>
      <polygon class="cls-3" points="83.04 144.6 87.87 146.62 87.87 216.02 83.04 213.7 83.04 144.6"/>
      <polygon class="cls-3" points="98.46 150.8 103.3 152.81 103.3 223.13 98.46 220.81 98.46 150.8"/>
      <polygon class="cls-3" points="113.89 157.06 118.72 159.08 118.72 230.3 113.89 227.98 113.89 157.06"/>
      <polygon class="cls-3" points="129.29 163.46 134.15 165.5 134.15 237.62 129.29 235.29 129.29 163.46"/>
      <polygon class="cls-3" points="144.81 170.1 149.67 172.14 149.67 245.16 144.81 242.86 144.81 170.1"/>
      <polygon class="cls-4" points="14.96 108.75 155.91 172.95 155.91 189.6 15.08 122.59 14.96 108.75"/>
      <polygon class="cls-2" points="13.23 89.62 155.91 152.24 155.91 183.14 14.16 116.93 13.23 89.62"/>
      <polygon class="cls-5" points="296.75 116.17 155.83 181.71 155.87 248.29 296.06 181.45 296.75 116.17"/>
      <polygon class="cls-6" points="165 176.9 160.14 179.15 160.14 245.69 165 243.37 165 176.9"/>
      <polygon class="cls-6" points="180.42 169.88 175.56 172.13 175.56 238.5 180.42 236.18 180.42 169.88"/>
      <polygon class="cls-6" points="195.85 162.77 190.99 165.03 190.99 231.2 195.85 228.9 195.85 162.77"/>
      <polygon class="cls-6" points="211.27 155.92 206.41 158.18 206.41 223.79 211.27 221.49 211.27 155.92"/>
      <polygon class="cls-6" points="226.68 148.77 221.84 151.02 221.84 216.49 226.74 214.13 226.68 148.77"/>
      <polygon class="cls-6" points="242.1 141.59 237.26 143.84 237.26 209.47 242.1 207.17 242.1 141.59"/>
      <polygon class="cls-6" points="257.52 134.08 252.69 136.34 252.69 201.79 257.52 199.49 257.52 134.08"/>
      <polygon class="cls-6" points="272.87 126.9 268.04 129.16 268.04 194.44 272.87 192.14 272.87 126.9"/>
      <polygon class="cls-6" points="288.37 119.74 283.54 122 283.54 187.08 288.37 184.76 288.37 119.74"/>
      <polygon class="cls-7" points="296.81 108.75 155.83 172.97 155.83 189.6 296.67 122.57 296.81 108.75"/>
      <polygon class="cls-5" points="298.16 89.78 155.83 152.24 155.91 183.14 297.58 117.86 298.16 89.78"/>
      <path class="cls-8" d="M298.51,89.62,155.87,154.69,13.23,89.62,155.87,20.35c.21-.07,130.19,65.26,142.64,69.27Z"/>
      <path class="cls-9" d="M298.51,89.62,156.44,154.53l.12,28.29-.65.32-.83-.39-.26-28.19L13.39,89.69,155.87,153.1ZM156.12,248.16l-.41.2-.1,0-.47-59.08.71.34.59-.26Z"/>
      <polygon class="cls-10" points="65.22 113.33 87.95 123.72 86.43 215.33 66.01 205.59 65.22 113.33"/>
      <polygon class="cls-11" points="246.53 113.33 223.79 123.72 225.31 215.18 245.74 205.44 246.53 113.33"/>
      <polygon class="cls-12" points="32.44 98.65 26.44 95.92 23.13 85.1 27.64 82.91 32.44 98.65"/>
      <polygon class="cls-12" points="50.93 107.15 44.94 104.42 37.03 78.48 41.52 76.29 50.93 107.15"/>
      <polygon class="cls-12" points="70.2 115.77 64.2 113.01 51.52 71.41 56.02 69.22 70.2 115.77"/>
      <polygon class="cls-12" points="89.32 124.52 83.33 121.77 65.87 64.49 70.36 62.32 89.32 124.52"/>
      <polygon class="cls-12" points="108.16 132.91 102.16 130.18 79.93 57.24 84.42 55.05 108.16 132.91"/>
      <polygon class="cls-12" points="127.45 141.88 121.46 139.14 94.43 50.52 98.94 48.33 127.45 141.88"/>
      <polygon class="cls-12" points="146.48 150.72 140.46 147.98 108.68 43.68 113.19 41.49 146.48 150.72"/>
      <polygon class="cls-12" points="162.7 149.94 158.15 152 123 36.65 127.52 34.46 162.7 149.94"/>
      <polygon class="cls-12" points="177.19 143.61 172.65 145.64 137.22 29.41 141.73 27.22 177.19 143.61"/>
      <path class="cls-12" d="M191.81,137.3l-4.53,2.08L151.72,22.76l4.33-2.1.22.11Z"/>
      <polygon class="cls-12" points="206.18 130.66 201.65 132.72 169.85 27.8 175.95 30.84 206.18 130.66"/>
      <polygon class="cls-12" points="220.43 124.44 216.05 126.4 188.77 36.93 194.87 39.95 220.43 124.44"/>
      <path class="cls-12" d="M235.18,118.66l-4.56,2.08L208,46.52l6.09,3Z"/>
      <path class="cls-12" d="M249.49,111.48,245,113.54l-17.44-57.3c2,1,4.06,2,6.07,3Z"/>
      <path class="cls-12" d="M264.08,104.91l-4.57,2L246.85,65.37c2.06,1,4.07,2,6.08,3Z"/>
      <path class="cls-12" d="M278.62,98.69l-4.53,2.08-7.93-26,6.06,2.9Z"/>
      <path class="cls-12" d="M293.05,92.09l-4.53,2.09-3.13-10c2.23,1,4.24,2,6,2.75Z"/>
      <polygon class="cls-13" points="92.97 50.89 75.6 59.32 223.81 123.72 246.53 113.33 92.97 50.89"/>
      <polygon class="cls-13" points="216.51 50.45 233.54 58.85 87.95 123.72 65.23 113.33 216.51 50.45"/>
      <path class="cls-14" d="M158.68,138.92c-11.34-8.72-18.62-29.69-11.51-44.53a85,85,0,0,1,9.23-14.66l-6.77-4.08C141.3,83,134.09,92,131.93,98.51c-5.83,17.57,1.12,32.49,8.84,41.71Z"/>
      <path class="cls-15" d="M158.68,138.92c-9.9-7.64-16.71-24.6-13.54-38.65a32.37,32.37,0,0,0-14,.76c-4.41,16.48,2.24,30.41,9.59,39.19Z"/>
      <path class="cls-16" d="M158.68,138.92c-6.71-5.16-12-14.62-13.72-24.53-5.14.52-10.34,1.71-14.9,2.13a46.26,46.26,0,0,0,10.71,23.7Z"/>
      <path class="cls-17" d="M153.76,73.25c8.84,5.42,18.07,11.49,31.17,11.67,5.35,0,12.32-2.22,17.34-4s11.15-7.7,14-10.65c-3,7.23,1.65,15.36,1.06,19.28-6.87,4.67-18.9,7.92-25.67,8.33-5.18.31-10.67-.89-16.18-3-7.41-2.75-14.83-7-21.42-10.8-1.24-.71-2.48-1.41-3.74-2.06Z"/>
      <path class="cls-18" d="M163.15,78.8c6.26,3.34,13.17,6,21.78,6.12a24.69,24.69,0,0,0,3.74-.29c.33,3.65.63,9.57.59,13.28a59.4,59.4,0,0,1-15-2.3c-5.73-1.76-11.3-4.71-16.92-8a24.6,24.6,0,0,1-6.89-5.58l3.65-7.31c3.19,1.67,5.84,2.32,9.07,4.06Z"/>
      <path class="cls-19" d="M155.83,77.84c-1-4.83-2.52-18.06-4.81-31a74.37,74.37,0,0,0-4.25-15.46A27.2,27.2,0,0,0,131.26,16c-2.07-.67-3.64,0-5.93,1.15-12.91,6.55-30,29.78-23.76,39.43,2.56-6.53,9.33-16.55,16.14-25.31,17.88-11.64,27.19,37.11,33.35,46.78Z"/>
      <path class="cls-20" d="M154.47,81.47c-9,1.19-31.3-5.12-42.55-8.83-10.1-3.25-17-12.56-12.44-25.12,3.8-13,14.47-29.51,23.23-32.33,1.68-.48,6.52.43,7.82.69.12.07.41,0,.55.09C125.69,15.82,117,20.35,111,40.82c-4.59,15.6,2.76,18.59,11.28,22,7.31,2.84,28.84,11.5,34.42,14.23Z"/>
      <path class="cls-21" d="M126.3,77c-5.34-1.46-10.54-3-14.38-4.34-8-2.56-14-9-13.86-17.81a27.14,27.14,0,0,1,10-9.21c.63-.35,1.28-.7,1.93-1-2.35,12.36,4.48,15.09,12.26,18.21,2.76,1,7.52,3,12.68,5.08-2.44,2.9-5.49,6-8.62,9.11Z"/>
      <path class="cls-22" d="M152.38,76.54c2.19-3.36,2.9-18.3,4.83-32.29.84-5.88,1.57-15.33,3-20.13a14.55,14.55,0,0,1,4.49-7.22,10.78,10.78,0,0,1,6.47-2.1c15.2-.81,38.59,12,34.06,24.48-.45-3.19-2.59-6.33-6-8.91a30.87,30.87,0,0,0-14-5.55c-9.72-1.48-14.33,16.26-19.49,33.31-1.91,6.33-5.06,14-6.79,19.28Z"/>
      <path class="cls-23" d="M157.82,80.3c9.92-3.8,29.75-9.09,41-18.74,10.16-8.68,14.35-22.54,6.81-32-7.09-10.26-25-17.48-35-15.34a15.58,15.58,0,0,0-5.23,2.17c-.22.15-.44.37-.59.48,5.71-3.12,16.08-3.56,27,12.58,8.41,12.21,1.16,19.21-7.27,27.07-7.14,6.72-24.63,15.16-29.9,20.86Z"/>
      <path class="cls-24" d="M182.25,71.29c2.72-1.21,5.41-2.49,7.93-3.88a53.85,53.85,0,0,0,9-6.07c8.51-7.35,12.27-18.57,9.08-27.26-5.81-4.34-12.09-6.86-17.09-5.51.22.28.39.61.61.89,8.41,12.21,1.16,19.21-7.27,27.07-3.22,3-8.68,6.52-14.19,9.86,2.81,3.19,2.3,9,12,4.9Z"/>
      <path class="cls-25" d="M154.23,74.5c2.62,0,6,3.34,5.44,5s-2.54,4.73-5.16,4.73c-1.34,0-2.95-1.25-4.08-2s-1.73-.82-1.73-2.32a5.74,5.74,0,0,1,5.53-5.45Z"/>
    </g>
  </g>
</svg>
