<svg id="Layer_1" data-name="Layer 1" xmlns="http://www.w3.org/2000/svg" width="154.13" height="228.94" viewBox="0 0 154.13 228.94">
  <defs>
    <style>
      .cls-1 {
        fill: #050505;
        opacity: 0.5;
      }

      .cls-2 {
        fill: #fff;
      }

      .cls-3 {
        fill: #f7e3c3;
      }

      .cls-4 {
        fill: #f9ddb0;
      }

      .cls-5 {
        fill: #f3b248;
      }

      .cls-6 {
        fill: #bc6eab;
      }

      .cls-7 {
        fill: #f4d29d;
      }

      .cls-8 {
        fill: #f7d192;
      }

      .cls-9 {
        fill: #f0c273;
      }

      .cls-10 {
        fill: #a4388a;
      }

      .cls-11 {
        fill: #f1c376;
      }

      .cls-12 {
        fill: #f1a323;
      }

      .cls-13 {
        fill: #bc6eac;
      }

      .cls-14 {
        fill: #cd94be;
      }

      .cls-15 {
        fill: #b25d9f;
      }

      .cls-16 {
        fill: #f1b247;
      }

      .cls-17 {
        fill: #f1a220;
      }

      .cls-18 {
        fill: #a5348c;
      }

      .cls-19 {
        fill: #a5348b;
      }

      .cls-20 {
        fill: #bc6dac;
      }

      .cls-21 {
        fill: #ac5097;
      }

      .cls-22 {
        fill: #cd94bd;
      }

      .cls-23 {
        fill: #cc93ba;
      }

      .cls-24 {
        fill: #f3a21e;
      }

      .cls-25 {
        fill: #f1a21d;
      }

      .cls-26 {
        fill: #f2c373;
      }

      .cls-27 {
        fill: #e1c6d9;
      }

      .cls-28 {
        fill: #e1c5df;
      }

      .cls-29 {
        fill: #f7e7ec;
      }

      .cls-30 {
        fill: #cd95be;
      }

      .cls-31 {
        fill: #f1d2a5;
      }

      .cls-32 {
        fill: #f8e8ea;
      }

      .cls-33 {
        fill: #f8e7e8;
      }
    </style>
  </defs>
  <g>
    <path class="cls-1" d="M55.72,224.09c-4.34,0-10.65-.86-15.25-8.29-4.09-6.6-8.65-13.18-13.07-19.54-2-2.84-3.95-5.68-5.89-8.54-1.74-2.56-3.45-5.13-5.16-7.71l-2-3a13.52,13.52,0,0,1-3.68-9.9,81.23,81.23,0,0,0-.35-10.21c-.2-2.71-.41-5.52-.44-8.41-.11-9.75-.33-20.21-1.22-30.61a14,14,0,0,1,2.71-10.2Q17.18,100.55,23,93.4l6.12-7.56q1.77-2.18,3.55-4.33c3-3.6,5.75-7,8.35-10.54,1.27-1.73,5.13-7,12.49-7H54a9.55,9.55,0,0,1,2-4.75,12.38,12.38,0,0,1-2.07-8.59,2.45,2.45,0,0,0,0-.27c-2.28-2.15-3.26-5.2-2.91-9.1a13.63,13.63,0,0,1-.29-10.61l0-.13.36-2.46a8.35,8.35,0,0,1,2.78-6.67,13.48,13.48,0,0,1,2-7.6,8,8,0,0,1,6.32-3.6C66.5,10,71,9.9,75.57,9.9c3.17,0,6.5,0,9.88.14h0c2-.1,4.08-.2,6.22-.2a49.54,49.54,0,0,1,6.22.36,8.09,8.09,0,0,1,2.76.87,9.34,9.34,0,0,1,5,9.05v.11q0,14.41,0,28.91v3.55a13.86,13.86,0,0,1-.22,2.5H108a19.15,19.15,0,0,1,6-6.6,19.67,19.67,0,0,1,11-3.4c9.5,0,17.53,7.1,19.09,16.89a4.86,4.86,0,0,1,.07.55c1,10.63-5,19.21-15,21.56,2.25,2.69,4.5,5.48,6.62,8.43,2.48,3.47,5.16,6.76,8,10.25,1.35,1.65,2.7,3.3,4,5a11.81,11.81,0,0,1,2.75,8c-.11,3.49-.18,7.08-.24,10.55-.13,7.44-.26,15.14-.88,22.79-.18,2.2-.19,4.5-.2,6.93a64.37,64.37,0,0,1-1.14,14.26,11.88,11.88,0,0,1-1.09,2.89l-.07.15a57.72,57.72,0,0,1-5.63,9.29c-.76,1.07-1.47,2.08-2.12,3.09-4.22,6.48-8.59,13-12.8,19.29q-4.38,6.54-8.73,13.09a12.49,12.49,0,0,1-11,5.93c-7.2,0-16.58-.08-26.08-.08-8.92,0-16.93,0-24.49.11Z"/>
    <path class="cls-2" d="M50.72,219.09c-4.34,0-10.65-.86-15.25-8.29-4.09-6.6-8.65-13.18-13.07-19.54-2-2.84-3.95-5.68-5.89-8.54-1.74-2.56-3.45-5.13-5.16-7.71l-2-3a13.52,13.52,0,0,1-3.68-9.9,81.23,81.23,0,0,0-.35-10.21c-.2-2.71-.41-5.52-.44-8.41-.11-9.75-.33-20.21-1.22-30.61a14,14,0,0,1,2.71-10.2Q12.18,95.55,18,88.4l6.12-7.56q1.77-2.18,3.55-4.33c3-3.6,5.75-7,8.35-10.54,1.27-1.73,5.13-7,12.49-7H49a9.55,9.55,0,0,1,2-4.75,12.38,12.38,0,0,1-2.07-8.59,2.45,2.45,0,0,0,0-.27c-2.28-2.15-3.26-5.2-2.91-9.1a13.63,13.63,0,0,1-.29-10.61l0-.13.36-2.46a8.35,8.35,0,0,1,2.78-6.67,13.48,13.48,0,0,1,2-7.6,8,8,0,0,1,6.32-3.6C61.5,5,66,4.9,70.57,4.9c3.17,0,6.5,0,9.88.14h0c2-.1,4.08-.2,6.22-.2a49.54,49.54,0,0,1,6.22.36,8.09,8.09,0,0,1,2.76.87,9.34,9.34,0,0,1,5,9v.11q0,14.42,0,28.91v3.55a13.86,13.86,0,0,1-.22,2.5H103a19.15,19.15,0,0,1,6-6.6,19.67,19.67,0,0,1,11-3.4c9.5,0,17.53,7.1,19.09,16.89a4.86,4.86,0,0,1,.07.55c1,10.63-5,19.21-15,21.56,2.25,2.69,4.5,5.48,6.62,8.43,2.48,3.47,5.16,6.76,8,10.25,1.35,1.65,2.7,3.3,4,5a11.81,11.81,0,0,1,2.75,8c-.11,3.49-.18,7.08-.24,10.55-.13,7.44-.26,15.14-.88,22.79-.18,2.2-.19,4.5-.2,6.93a64.37,64.37,0,0,1-1.14,14.26,11.88,11.88,0,0,1-1.09,2.89l-.07.15a57.72,57.72,0,0,1-5.63,9.29c-.76,1.07-1.47,2.08-2.12,3.09-4.22,6.48-8.59,13-12.8,19.29q-4.38,6.54-8.73,13.09a12.49,12.49,0,0,1-11,5.93c-7.2,0-16.58-.08-26.08-.08-8.92,0-16.93,0-24.49.11Z"/>
    <g>
      <path class="cls-3" d="M15.67,167.06a5.92,5.92,0,0,1-2-4.48c.34-6.41-.71-12.75-.78-19.14-.12-10.41-.36-20.82-1.25-31.2a6,6,0,0,1,1-4.5q8.83-11,17.7-21.87c4.07-5,8.31-10,12.13-15.18,1.93-2.63,4-4.13,7.26-3.62a6.8,6.8,0,0,0,1,0c5.86,0,5.87,0,6.14-6,0-.78-.09-1.6.68-2.14a4.78,4.78,0,0,1,1,3.75c-.19,2.7,1.18,3.5,3.62,3.36s4.64.08,7,0c5.39-.06,10.78,0,16.17.07,5,0,5,0,6.37-4.58a3,3,0,0,1,2.25-1.34c4.67-.14,9.36-.77,14,.41a.86.86,0,0,1,.33,1.12c-4.37.08-8.74.06-13.11.52-1.93.21-2.45.85-2.45,2.66s1,2.22,2.55,2.17a46.09,46.09,0,0,0,5.39-.06c3.1-.47,5,1.29,6.42,3.44,5.21,7.69,11.8,14.28,17.19,21.82,3.85,5.37,8.16,10.36,12.26,15.53a3.9,3.9,0,0,1,1,2.73c-.35,11-.21,22-1.09,33-.55,6.7.3,13.47-1.18,20.09a8.06,8.06,0,0,1-.64,1.49c-1.7-.83-4.49,1-5.23-2.17.13-8,.86-15.92,1-23.9.13-8.29.33-16.6,1-24.88a6.22,6.22,0,0,0-1.44-4.67c-8.88-11.32-18-22.41-26.89-33.75a5.29,5.29,0,0,0-4.59-2.3c-2.58.07-5.17,0-7.75.09-5.8,0-11.6.13-17.39,0a39.09,39.09,0,0,1-4.33,0c-3.42.1-6.85.06-10.27,0-12.45,0-9.07-1.67-16.84,7.74-7.31,8.85-14.08,18.13-21.56,26.84-3,3.44-2.56,7.32-2.25,11.19.7,8.74,1,17.5,1.1,26.25.06,5.62,1.16,11.2.61,16.82C18.92,164.34,16.31,164.84,15.67,167.06Z"/>
      <path class="cls-4" d="M15.67,167.06c-.3-2.53.77-3.9,3.36-4,1.08-.41,1.38.57,1.94,1.08,7.47,11.35,15.25,22.48,22.68,33.85,2.75,6.22,7.82,7.57,14,6.66a11.9,11.9,0,0,1,1.34-.09c5.76,0,11.52-.12,17.28,0,1.44,0,2.88-.14,4.31,0,3.39,0,6.78-.09,10.17,0a19,19,0,0,1,2,.06c5.87,1.06,10.24-.77,12.62-6.48,8-10.81,14.87-22.33,22.62-33.28.53-.55.8-1.55,1.9-1.14,1.5.77,3.59-.63,4.76,1.33-1.85,4.1-4.73,7.57-7.16,11.3-7.07,10.85-14.37,21.54-21.51,32.34a4.58,4.58,0,0,1-4.36,2.34c-16.87-.09-33.73-.14-50.6,0-3.93,0-6.42-.8-8.71-4.5-6-9.7-12.73-18.94-19.14-28.37C20.61,174.52,18.15,170.78,15.67,167.06Z"/>
      <path class="cls-5" d="M80.53,13.05a65.77,65.77,0,0,1,11.4.09c.06.09.17.18.17.28.36,12,.43,24.08,0,36.12l0,.05A.82.82,0,0,1,91,49.27c-.87-1.56-.67-3.27-.68-4.94,0-8.53,0-17,0-25.58,0-3.53-.57-3.9-3.81-4-3-.11-3.55,1.47-3.54,4,.06,9.31,0,18.62,0,27.93A10.77,10.77,0,0,1,82.77,50a2.05,2.05,0,0,1-1,.81c-4.45.59-8.89.87-13.32-.21-1.52-1.12-1.72-2.79-1.76-4.47a44.45,44.45,0,0,0-.68-6.3c-.11-6.19-.29-12.38.09-18.57.08-.9.29-1.77.39-2.66.58-5.22.58-5.16,6-5.25C75.19,13.31,77.88,13.77,80.53,13.05Z"/>
      <path class="cls-6" d="M108.19,58.18c1.14-3,2.41-6,5.26-8,7.2-4.83,16.28-.67,17.68,8.11-.81,5.61-4.69,8.11-9.69,9.15-4.78,1-8.43-1.09-11.25-4.89a35.11,35.11,0,0,1-2.09-3.42A1,1,0,0,1,108.19,58.18Z"/>
      <path class="cls-7" d="M67,21.17Q67,30.61,67,40c-.67,1.48-2,1.11-3.16,1.08-4.69-.11-5.18.35-5.34,4.87a6.39,6.39,0,0,1-.57,3.23l-.4.35c-1.1-1.52-.43-3.24-.55-4.87-.15-1.83.22-3.52-2-4.79-1.79-1-.61-3.48-.71-5.3.88-.72,1.71-.1,2.53.15,2.09.63,3.47-.39,4.55-2a3.38,3.38,0,0,0-.18-4.36,4.07,4.07,0,0,0-4.83-1.34c-.92.31-1.65,1.28-2.79.84.21-1.41.43-2.82.62-4.23.06-.44-.08-1.21.09-1.28,4.49-1.85,1.57-6.41,3.4-9.2,1,1.07,1,2.45.91,3.74-.13,2.49,1.07,3.29,3.4,3.24C63.64,20.13,65.49,19.79,67,21.17Z"/>
      <path class="cls-8" d="M68.39,50.16l13.44.1c1.25,1.36,1.33,3.08,1.29,4.76-.07,3-1.15,4-4.09,4.18-4.26.2-8.54-.24-12.79.55A4,4,0,0,1,62.3,58.3c0-.45,0-.9,0-1.35,0-5.73,0-5.73-4.78-7.39l.17-.12C61.38,47.67,64.89,48.8,68.39,50.16Z"/>
      <path class="cls-9" d="M62.3,58.3c5.9.81,11.79-.38,17.69,0,2.62.15,2.26-2.29,2.19-3.66s-.22-2.89-.35-4.33l.75-.12a3.3,3.3,0,0,1,3.84-.33c1.08,1.7.29,3.57.49,5.36.11,1-.47,2.15.46,3.06v0a.85.85,0,0,1-.23,1.06c-1.64.94-3.44.62-5.18.69q-4.65-.08-9.32,0c-3.59.06-4.26.88-3.86,4.45.1.87.55,1.71.27,2.62-1.11,0-2.22.06-3.32.06-8.15,0-8.15,0-8.18-8.11Z"/>
      <path class="cls-10" d="M108.38,58.88c1.65.59,1.86,2.37,2.72,3.56,5.77,7.88,16.15,4.14,19.19-2.35.27-.59.56-1.17.84-1.75.61,6.85-2.9,11.85-9.25,13.16-5.55,1.14-10.89-2.25-13-8.23-.19-.52-.43-1-.65-1.54a1.06,1.06,0,0,0,0-.66,1.49,1.49,0,0,1-.45-1.6A1,1,0,0,1,108.38,58.88Z"/>
      <path class="cls-11" d="M67,21.17c-.55,0-1.11,0-1.67,0-7.78-.05-7.78-.05-7.67-8,7.64-.36,15.28-.37,22.92-.14-3,1.36-6.12.6-9.15.55s-4.16.71-3.72,3.72A5.21,5.21,0,0,1,67,21.17Z"/>
      <path class="cls-12" d="M53.5,27.9c3.37-2.74,5.6-2.91,8-.6,1.94,1.91,2,4.38.19,6.61-2.27,2.86-4.8,2.15-7.43.69C52.81,32.49,52.26,30.29,53.5,27.9Z"/>
      <path class="cls-8" d="M92.08,49.54l-.15-36.4c.87.46.71,1.31.71,2.06q0,16.25,0,32.49A2.27,2.27,0,0,1,92.08,49.54Z"/>
      <path class="cls-8" d="M87.32,58.84a2.81,2.81,0,0,1,.05-.64l20.82,0,.19.7-.2.09a3.47,3.47,0,0,1-2.43,1C100.5,60,95.25,60,90,60A3.12,3.12,0,0,1,87.32,58.84Z"/>
      <path class="cls-8" d="M87.37,58.23c-2.21-2.5,0-5.42-.77-8.06,1.34-2,3-1.78,4.75-.65l.7.07c-1.11,1.6-3.63-.21-4.35,1.49C86.76,53.32,87.42,55.84,87.37,58.23Z"/>
      <path class="cls-13" d="M129.85,163.75l-1.2,1.37c-7.85.29-15.71,1-23.53-.38-1.66-1.49-1.2-3.51-1.26-5.37-.53-14.84.8-29.64.73-44.48a33.34,33.34,0,0,0-2.6-12.74c-3.43-8.43-7-16.81-10-25.4-.48-1.36-1.27-2.68-.59-4.21,7-1.32,11.85.9,16.18,7.16C114.69,90,123.09,99.4,131,109.14a6.39,6.39,0,0,1,1.41,4.66q-.67,14.94-1.25,29.89c-.23,5.83-.41,11.66-.68,17.48A13.33,13.33,0,0,1,129.85,163.75Z"/>
      <path class="cls-14" d="M91.38,72.54q6.74,17.19,13.45,34.38a5.57,5.57,0,0,1,.62,1.9c-.14,8.51.53,17-.36,25.55-.32,3.11-.21,6.27-.23,9.41,0,6.85,0,13.7,0,20.56-.16.14-.31.29-.46.44a44.17,44.17,0,0,1-16.21,0,15,15,0,0,1-2-9.74,3.76,3.76,0,0,1,1.94-1.79c4.68-2,6.09-6,6.31-10.63.19-3.92.16-7.86,0-11.78-.27-7.48-3.83-11-11.3-11.45-3.2-.21-6.51.72-9.61-.81a35.09,35.09,0,0,1-4.59-15.37,76.9,76.9,0,0,1,1.65-24.47c.53-2.18,1-4.4,2.51-6.19Z"/>
      <path class="cls-13" d="M20.38,164.36,19,163.06Q18.32,143,17.6,123a35.26,35.26,0,0,0-.48-3.66c-.82-5.67.9-10.16,4.77-14.61C30.21,95.1,37.92,85,45.72,75a5.88,5.88,0,0,1,5.71-2.57c2.23.19,4.5.1,6.75.14.59,1.68-.43,3-1,4.48-3.54,9.82-7.84,19.35-11.39,29.17a15.53,15.53,0,0,0-1,6.57c.15,2,.55,4-.71,5.89a2.24,2.24,0,0,1-.57.35c-9.52,3.64-10.07,4.43-10.07,14.7,0,3.13,0,6.27,0,9.4.1,6.26,3,9.63,9.19,10.89a3.66,3.66,0,0,1,2.4,1,15.83,15.83,0,0,1,.08,9.07,2.17,2.17,0,0,1-1,.85c-7.22.95-14.46.42-21.69.29A4.66,4.66,0,0,1,20.38,164.36Z"/>
      <path class="cls-14" d="M44,118.42C42.26,109,47,101,50,92.63c2.48-6.78,5.41-13.4,8.14-20.08h10.9c.89,1.44.24,2.86-.11,4.24-3.25,12.68-3.46,25.33.22,38,.4,1.37,1,2.84-.41,4.07-1.67.87-3.48.65-5.25.66-5,0-10.05,0-15.07,0C46.92,119.48,45.3,119.67,44,118.42Z"/>
      <path class="cls-15" d="M69.07,118.36c-1.85-7.24-3.57-14.43-3.56-22a87.34,87.34,0,0,1,3.57-23.76h4c-.61,4.4-2.17,8.57-2.73,13-1.38,10.93-1,21.61,3.27,31.92a5.16,5.16,0,0,1,.2,1A3.45,3.45,0,0,1,69.07,118.36Z"/>
      <path class="cls-16" d="M69.05,67c-2.33-2-1.6-4.62-1-6.83s2.88-1.12,4.44-1.18c3.14-.12,6.28,0,9.42,0a3.26,3.26,0,0,1,.32,1.6c.12,4.57,2,5.93,6.5,4.82a2.26,2.26,0,0,0,1.74-1.74c.28-.84.09-2.15,1.63-2-.13,6.22.9,5.44-5.58,5.46C80.69,67.16,74.87,67.07,69.05,67Z"/>
      <path class="cls-17" d="M92.08,61.69a2.65,2.65,0,0,0-.26.21c-1.15,1.23.42,3.72-1.2,4.16-2.28.61-4.83.38-7.25.3-1.94-.07-2.08-1.71-2.14-3.18s-.2-2.89.66-4.19l5.43-.14,20.86.12c0,.7,0,1.4,0,2.1C102.86,61.55,97.42,60.45,92.08,61.69Z"/>
      <path class="cls-13" d="M58.26,205.61a11.47,11.47,0,0,0-1.66.07c-6.72,1.33-11.19-1.39-13.75-7.59,2.47-1.58,5.22-.7,7.84-.84,3.52-.18,3.71-.35,2.66-3.71-2.42-7.8-5.13-15.5-7.61-23.27-.6-1.89-1.6-3.73-1.08-5.83l.11-.12a4.74,4.74,0,0,1,3.47-1q16.18-.08,32.38,0a6.54,6.54,0,0,1,2.95.58,3,3,0,0,1,1.24,2.61,74,74,0,0,1-4.54,31.33,3,3,0,0,1-1.37,1.83c-6.14-1-12.33-.35-18.5-.52-2-.06-3,.69-2.3,2.86A4.77,4.77,0,0,1,58.26,205.61Z"/>
      <path class="cls-18" d="M104.83,164.34c6.79,0,13.59,0,20.38,0,1.18,0,2.49-.39,3.44.74q-11.18,16.59-22.37,33.17c-3.47,1.4-7.08.8-10.65.62-1.83-.09-2.41-1.42-2.19-3.12a27.52,27.52,0,0,1,1.29-4.53c2.42-7.72,5.1-15.35,7.6-23,.48-1.49,1-3,2.49-3.87Z"/>
      <path class="cls-19" d="M44.66,164.44c3.47,10.46,6.91,20.94,10.44,31.38.68,2-.13,2.36-1.84,2.34-3.47-.06-6.94,0-10.41-.07-7.5-11.23-15.36-22.23-22.47-33.73Z"/>
      <path class="cls-20" d="M104.82,164.34c-3.44,10.25-6.82,20.52-10.35,30.74-.91,2.61,0,3.16,2.4,3.1,3.14-.07,6.28.06,9.41.11-2.41,6.1-6.73,8.75-13.31,7.4a10.4,10.4,0,0,0-1.68-.08c-.72-.9-.44-1.86-.24-2.85.68-3.33.5-3.52-3-3.68-1.53-.07-3.14.24-4.45-.93-1-2-.16-4,.38-5.88,2.34-8.32,4.08-16.71,3.3-25.44a2.72,2.72,0,0,1,.67-2.48Z"/>
      <path class="cls-21" d="M88,164.35c1.78,8.9-.5,17.49-2.23,26.07-.51,2.54-1.7,5-1.87,7.68-.64,2.71-1.09,5.5-3.33,7.5H76.45c-.68-2.5.48-4.37,2.1-6.07a79.18,79.18,0,0,0,5.32-35.19,11.69,11.69,0,0,1-1.33-9.69,3.18,3.18,0,0,1,4,.29Z"/>
      <path class="cls-22" d="M78.55,199.53l-2.1,6.07H58.26c-2.7-7.46-2.7-7.46,4.91-7.46,4.14,0,8.29,0,12.44,0C76.76,198.17,78.22,197.71,78.55,199.53Z"/>
      <path class="cls-23" d="M80.54,205.6c1.17-2.47,1.33-5.39,3.33-7.5,2,0,4,.17,6,0,3.17-.25,3.23,1.54,2.6,3.74-.35,1.26-1.25,2.35-1.14,3.76Z"/>
      <path class="cls-24" d="M91.35,49.52c-1.58.22-3.26-.27-4.75.65l-4,0a5.84,5.84,0,0,1-.72-3.57c0-9.89.08-19.78,0-29.66,0-2.5.68-3.36,3.23-3.27,7.47.26,6.22-.88,6.28,6.21C91.4,29.74,91.35,39.63,91.35,49.52Z"/>
      <path class="cls-25" d="M67.68,30.51c0-2.25.14-4.51,0-6.74-.19-2.49,1.17-2.66,3.11-2.68s3.14.34,3,2.75c-.16,4.38-.08,8.77,0,13.15,0,2.28-.79,3.63-3.27,3.75-2.94.13-2.87-1.8-2.84-3.82S67.68,32.65,67.68,30.51Z"/>
      <path class="cls-26" d="M68.39,50.16l-10.72-.72c0-1.34-.08-2.68-.09-4,0-4.58,1.25-5.7,5.88-5.36,1.17.09,2.35,1,3.51,0C68.4,43.28,67,46.91,68.39,50.16Z"/>
      <path class="cls-27" d="M124.48,129c.36,4.38-.68,8.69-.68,13.05,0,1.29-.19,2.67-1.87,2.6a2.17,2.17,0,0,1-2.11-2.55c.84-6.69.35-13.41.75-20.11.07-1.3.61-2.87,2.4-2.63,1.62.21,1.51,1.68,1.51,2.92Z"/>
      <path class="cls-28" d="M122.34,107.59a1.68,1.68,0,0,1-1.17,1.9,2,2,0,0,1-2.42-.66c-3.53-4.48-7.06-8.94-10.55-13.44-.74-1-1-2.11.16-3a1.9,1.9,0,0,1,2.73.3c3.68,4.64,7.29,9.33,10.91,14A3,3,0,0,1,122.34,107.59Z"/>
      <path class="cls-29" d="M86.58,154.94l-4,0c-1.33,1.08-2.93,1-4.5,1q-14.46,0-28.93,0c-1.57,0-3.17.07-4.49-1.05-8.59-.42-12.12-4.1-12.13-12.67,0-3.71.24-7.45-.07-11.13-.64-7.58,4.35-12.5,11.55-12.73l25-.06,4.72.09c3.26,0,6.52,0,9.78,0,6.78.16,10.83,3.28,11.48,9.88a107.2,107.2,0,0,1,0,16.81C94.74,150.38,91.33,153.35,86.58,154.94Z"/>
      <path class="cls-30" d="M44.69,155l37.92,0,1.26,9.36-39.11,0Q44.73,159.63,44.69,155Z"/>
      <path class="cls-31" d="M63.79,150.82c-6.41,0-12.82,0-19.23,0-5.06,0-7.85-2.79-7.93-7.93q-.09-6.07,0-12.15c.07-5.53,2.68-7.94,8.12-7.87,10,.13,20,.25,30,.18,3.33,0,6.63-1,10-.19,4.9,1.18,6.4,2.82,6.52,7.87.11,4.27.07,8.55,0,12.82A7.39,7.39,0,0,1,84,150.82c-6.75.05-13.5,0-20.24,0Z"/>
      <path class="cls-32" d="M64,144.1H50.12c-2,0-4.53.28-4.61-2.57-.08-3.07,2.61-2,4.33-2.19,7.6-.72,15.21.2,22.82,0,2.43,0,4.82-1.34,7.3-.12,1.21.59,2.81.74,2.47,2.59s-1.63,2.26-3.27,2.26C74.09,144.09,69,144.1,64,144.1Z"/>
      <path class="cls-33" d="M64.44,128.59c3.71,0,7.42,0,11.13,0,1.57,0,3.3,0,3.56,2.17.3,2.46-1.7,2.8-3.27,3a69.49,69.49,0,0,1-8.42.18c-5.26-.12-10.54.44-15.79-.53-1.52-.28-3.28-.39-3.2-2.17s1.94-2.48,3.51-2.54c4.15-.15,8.32,0,12.48,0Z"/>
    </g>
  </g>
</svg>
