<svg id="Layer_1" data-name="Layer 1" xmlns="http://www.w3.org/2000/svg" width="305" height="130" viewBox="0 0 305 130">
  <defs>
    <style>
      .cls-1 {
        fill: #050505;
        opacity: 0.5;
      }

      .cls-2 {
        fill: #fff;
      }

      .cls-3, .cls-8 {
        fill: #4b5454;
      }

      .cls-3 {
        fill-rule: evenodd;
      }

      .cls-4 {
        fill: #cff1f9;
      }

      .cls-5, .cls-6 {
        fill: #9dbcc1;
      }

      .cls-6 {
        opacity: 0.33;
      }

      .cls-7 {
        fill: none;
      }
    </style>
  </defs>
  <g>
    <path class="cls-1" d="M166.08,129.1l-1.37,0-1.46-.05-1.54-.07-1.87-.12-.84-.06-1.68-.15-.74-.08-2-.22-1.88-.26-.17,0-.84-.13-.85-.14c-1-.17-1.92-.34-2.8-.53l-.84-.17-1.18-.27c-1.13-.27-2.22-.56-3.23-.86l-1.13-.34-.52-.17-.66-.21-.62-.22-1.42-.54-.71-.29-.73-.32-.52-.24-.33-.16c-13-5.56-20.48-15.85-25.54-24.22-1.26-2.08-2.44-4.25-3.59-6.62a137.61,137.61,0,0,1-5.51-13.28q-1.09-3-2.16-6.11l-.29-.8c-.27.73-.53,1.43-.79,2.11l-.22.58a101.75,101.75,0,0,1-9.14,19c-.85,1.33-1.76,2.63-2.68,3.86a29.41,29.41,0,0,1-14.17,10.56,7.25,7.25,0,0,1-.76.22,34.87,34.87,0,0,1-7.88.89c-.6,0-1.2,0-1.79,0l-.42,0a41.29,41.29,0,0,1-4.11-.45c-.64-.11-1.32-.23-2-.38a53.52,53.52,0,0,1-12.23-4.24c-1.45-.7-2.94-1.48-4.4-2.33a1,1,0,0,1-.17-.1,70.65,70.65,0,0,1-8.8-6c-.42-.34-.74-.59-.94-.77l-.19-.16C21.73,89.89,17.2,82.66,14.6,73.13A165.93,165.93,0,0,1,10.87,55.8c-.31-1.93-.59-3.83-.82-5.64l0-.11c-.25-1.92-.49-3.9-.69-5.87,0,0,0-.36,0-.41s-.06-.52-.07-.56c0-.22-.06-.38-.08-.48-.33-.49-.64-1-.93-1.55-.14-.25-.27-.51-.39-.76a18.91,18.91,0,0,1-1.32-3.58c-.11-.39-.2-.83-.29-1.29a34.48,34.48,0,0,1-.34-8.78l0-.82a21,21,0,0,1,.48-3.4,10,10,0,0,1,7.83-7.8,10.52,10.52,0,0,1,2.52-.89l.43-.08C39.05,10.22,66.65,7.1,85.88,6c1.52-.09,3-.13,4.54-.13A74,74,0,0,1,133.3,19.59c1.55,1.08,3.33,2.47,5.45,4.27a8,8,0,0,1,2.16,9.3l2.6.19,2.28.17,3.84.33.61.07c2.22.22,4.41.44,6.61.68l5.32.57,2.09.24c1.2.13,2.43.28,3.67.44l1,.11,3.12.4.58.07,4.14.56c8.37,1.19,16.77,2.59,25,4.16,4,.76,8.24,1.63,12.58,2.56a17.33,17.33,0,0,0,3.81.39,29.91,29.91,0,0,0,4.26-.34l.63-.07c.71-.11,1.48-.25,2.32-.42,5.81-1.13,11.73-2.37,17.46-3.58,11.26-2.36,22.91-4.8,34.59-6.61l.77-.13a29.8,29.8,0,0,1,4.92-.5c.47,0,.95,0,1.43,0,4.45.35,12.49,2.51,16.26,13.09a53.81,53.81,0,0,1,2.3,10.55c.13.92.26,1.84.41,2.75l0,.18a75.24,75.24,0,0,1,.74,11.55,12.41,12.41,0,0,1-12.29,12.52h0a12.57,12.57,0,0,1-2.79-.32A11.1,11.1,0,0,1,280,71.47c0-.81,0-1.63,0-2.44,0-2.24,0-4.41-.07-6.52-4.62,3-9.59,3.69-13.76,4.29l-.52.08a302.56,302.56,0,0,0-39.3,8.26l-.6.2-3.88,1.15c-.63.19-1.16.37-1.65.55-.49,3.55-1.05,7.06-1.68,10.45-.95,5.13-2.09,10.21-3.38,15.11a38.8,38.8,0,0,1-1.26,3.94,1.34,1.34,0,0,1-.07.18,34.49,34.49,0,0,1-2.75,5.7A31,31,0,0,1,196.59,125c-1.06.46-2.18.88-3.33,1.26-.57.19-1.14.36-1.71.52-1.15.33-2.34.61-3.56.84a3.4,3.4,0,0,1-.46.08c-.83.11-1.65.22-2.45.31l-1.86.22-1.89.19-.83.07-.86.08-.78.07-1.5.11-2.36.15-1.83.08-2.14.07h-.18l-1.54,0h-1.58ZM102.83,32.39l5.38.18c-.4-.31-.81-.62-1.24-.93a12.25,12.25,0,0,0-7.47-2.45,18.22,18.22,0,0,0-4.18.52c-.9.21-1.8.47-2.7.76l2.32.52c2.47.54,4.71,1,6.7,1.24Z"/>
    <path class="cls-2" d="M161.08,124.1l-1.37,0-1.46,0-1.54-.07-1.87-.12-.84-.06-1.68-.15-.74-.08-2-.22-1.88-.26-.17,0-.84-.13-.85-.14c-1-.17-1.92-.34-2.8-.53l-.84-.17-1.18-.27c-1.13-.27-2.22-.56-3.23-.86l-1.13-.34-.52-.17-.66-.21-.62-.22-1.42-.54-.71-.29-.73-.32-.52-.24-.33-.16c-13-5.56-20.48-15.85-25.54-24.22-1.26-2.08-2.44-4.25-3.59-6.62a137.61,137.61,0,0,1-5.51-13.28q-1.09-3-2.16-6.11l-.29-.8c-.27.73-.53,1.43-.79,2.11l-.22.58a101.75,101.75,0,0,1-9.14,19c-.85,1.33-1.76,2.63-2.68,3.86a29.41,29.41,0,0,1-14.17,10.56,7.25,7.25,0,0,1-.76.22,34.87,34.87,0,0,1-7.88.89c-.6,0-1.2,0-1.79,0l-.42,0a41.29,41.29,0,0,1-4.11-.45c-.64-.11-1.32-.23-2-.38a53.52,53.52,0,0,1-12.23-4.24c-1.45-.7-2.94-1.48-4.4-2.33a1,1,0,0,1-.17-.1,70.65,70.65,0,0,1-8.8-6c-.42-.34-.74-.59-.94-.77l-.19-.16C16.73,84.89,12.2,77.66,9.6,68.13A165.93,165.93,0,0,1,5.87,50.8c-.31-1.93-.59-3.83-.82-5.64l0-.11c-.25-1.92-.49-3.9-.69-5.87,0,0,0-.36,0-.41s-.06-.52-.07-.56c0-.22-.06-.38-.08-.48-.33-.49-.64-1-.93-1.55-.14-.25-.27-.51-.39-.76a18.91,18.91,0,0,1-1.32-3.58c-.11-.39-.2-.83-.29-1.29a34.48,34.48,0,0,1-.34-8.78l0-.82a21,21,0,0,1,.48-3.4,10,10,0,0,1,7.83-7.8,10.52,10.52,0,0,1,2.52-.89l.43-.08C34.05,5.22,61.65,2.1,80.88,1c1.52-.09,3-.13,4.54-.13A74,74,0,0,1,128.3,14.59c1.55,1.08,3.33,2.47,5.45,4.27a8,8,0,0,1,2.16,9.3l2.6.19,2.28.17,3.84.33.61.07c2.22.22,4.41.44,6.61.68l5.32.57,2.09.24c1.2.13,2.43.28,3.67.44l1,.11,3.12.4.58.07,4.14.56c8.37,1.19,16.77,2.59,25,4.16,4,.76,8.24,1.63,12.58,2.56a17.33,17.33,0,0,0,3.81.39,29.91,29.91,0,0,0,4.26-.34l.63-.07c.71-.11,1.48-.25,2.32-.42,5.81-1.13,11.73-2.37,17.46-3.58,11.26-2.36,22.91-4.8,34.59-6.61l.77-.13a29.8,29.8,0,0,1,4.92-.5c.47,0,.95,0,1.43.05,4.45.35,12.49,2.51,16.26,13.09a53.81,53.81,0,0,1,2.3,10.55c.13.92.26,1.84.41,2.75l0,.18a75.24,75.24,0,0,1,.74,11.55,12.41,12.41,0,0,1-12.29,12.52h0a12.57,12.57,0,0,1-2.79-.32A11.1,11.1,0,0,1,275,66.47c0-.81,0-1.63,0-2.44,0-2.24,0-4.41-.07-6.52-4.62,3-9.59,3.69-13.76,4.29l-.52.08a302.56,302.56,0,0,0-39.3,8.26l-.6.2-3.88,1.15c-.63.19-1.16.37-1.65.55-.49,3.55-1.05,7.06-1.68,10.45-.95,5.13-2.09,10.21-3.38,15.11a38.8,38.8,0,0,1-1.26,3.94,1.34,1.34,0,0,1-.07.18,34.49,34.49,0,0,1-2.75,5.7A31,31,0,0,1,191.59,120c-1.06.46-2.18.88-3.33,1.26-.57.19-1.14.36-1.71.52-1.15.33-2.34.61-3.56.84a3.4,3.4,0,0,1-.46.08c-.83.11-1.65.22-2.45.31l-1.86.22-1.89.19-.83.07-.86.08-.78.07-1.5.11-2.36.15-1.83.08-2.14.07h-.18l-1.54,0h-1.58ZM97.83,27.39l5.38.18c-.4-.31-.81-.62-1.24-.93a12.25,12.25,0,0,0-7.47-2.45,18.22,18.22,0,0,0-4.18.52c-.9.21-1.8.47-2.7.76l2.32.52c2.47.54,4.71,1,6.7,1.24Z"/>
    <g>
      <g>
        <path class="cls-3" d="M140.16,36.5c-5.88-.47-12.9-.86-12.9-.86-1.73.09-3.76.14-6,.16A3,3,0,0,0,123.44,37c5,.21,9.95.49,14.93.68C139.69,37.69,140.28,37.32,140.16,36.5ZM123.74,21.16C111,12.3,97.05,8.11,81.33,9,61,10.15,33.53,13.41,13.46,16.68c-.67.15-1,.31-1,.87a.81.81,0,0,0,0,.16l3.12,4.23.16.21.92,1.25,3.28,4.43h.39c1.1,0,3.08-.2,5.63-.46,1.39-.14,3-.3,4.66-.49l4.35-.49h0c5.52-.63,11.79-1.39,17.61-2.08h0l1.68-.2h0l2.12-.26h0C63.85,23,70,22.27,71.84,22.18a18.06,18.06,0,0,0,5.68-1.48,81.52,81.52,0,0,1,11-3.78c6.52-1.53,12.61-.77,18.17,3.23a49.69,49.69,0,0,1,7,6A55.45,55.45,0,0,1,117.51,31,55,55,0,0,1,128.58,25C126.89,23.53,125.22,22.19,123.74,21.16Zm-80.23.3c3.44.73,7.05,1.61,10.76,2.64Z"/>
        <path class="cls-4" d="M205.7,81c.11-1.38.16-2.76.16-4.16A55.79,55.79,0,0,0,195.21,44Q183,41.66,170.63,39.92l-4-.55-.59-.07c-1.06-.14-2.13-.28-3.19-.4l-.85-.11c-1.23-.15-2.45-.3-3.68-.43l-2.06-.24L151,37.55l-6.55-.67-.48-.05h-.14l-.88-.08-.67-.06-.94-.09-.49,0-.7,0c-5.88-.47-12.9-.87-12.9-.87-1.73.1-3.76.15-6,.17-3,0-6.41,0-9.62,0A55.83,55.83,0,0,0,97.37,56.94a10.86,10.86,0,0,1,2.12,2.84l.06.12a40.57,40.57,0,0,1,2.26,5.3c3,8.55,6,17.09,10.69,24.91,5.47,9,12,16.88,22.09,21.1h0l.47.23.11,0,.75.33c.17.08.36.15.56.23l.39.15.36.13h0l.39.15.46.15.44.15.48.15.51.17.55.16c1.12.33,2.41.66,3.89,1l.1,0,.63.13c.8.17,1.65.32,2.55.48l.75.12.9.14c1.09.16,2.25.3,3.48.43l.72.08,1.5.13.76,0q.87.08,1.77.12l1.45.06,1.36,0h4.28l1.55,0,1,0,1,0,.93,0,.94,0,1.21-.08,1-.07.94-.07.43,0q.36,0,.72-.06l.89-.08.89-.08.64-.07c.3,0,.61-.05.91-.09l.66-.07,1.06-.13h0c.8-.09,1.62-.19,2.44-.31,8.05-1.57,14.05-5.27,17.82-11.52.79-1.48,1.52-3,2.18-4.57h0Z"/>
        <path class="cls-5" d="M162.73,116.12h-1.55l-.76,0H160l-1.36,0-1.45-.07q-.9,0-1.77-.12l-.76,0-1.5-.13-.72-.08c-1.23-.12-2.39-.27-3.48-.43Z"/>
        <path class="cls-6" d="M162.73,116.12h-1.55l-.76,0H160l-1.36,0-1.45-.07q-.9,0-1.77-.12l-.76,0-1.5-.13-.72-.08c-1.23-.12-2.39-.27-3.48-.43l-2.6-6.88-24.6-65.09h0l-.42-1.1,11.77-4.45,2.29,6.06h0l25.26,66.83h0Z"/>
        <path class="cls-6" d="M179,115.12h0l14.24-5.39-2.38-6.3L170,48.23h0l-3.35-8.84-.59-.08-3.19-.4-.85-.1c-1.23-.16-2.45-.3-3.68-.44l-2.06-.23c-1.76-.2-3.51-.39-5.27-.57-2.18-.24-4.37-.46-6.55-.68l-.48-.05h-.14l-.88-.08-.67-.06-.94-.08-.49,0,3,7.88h0l24.9,65.88,2.1,5.54Z"/>
        <path class="cls-7" d="M72.4,37.27C51.67,28.08,29.49,25.59,29.49,25.59c-11.55-2.1-10.89,7.74-10.89,7.74-.39,26.25,8,39.5,8,39.5,6,12.46,25.46,17.58,25.46,17.58,9.19,2.5,14.44-3.15,14.44-3.15C76.86,75.45,78.57,50.39,78.57,50.39,79.49,40,72.4,37.27,72.4,37.27Z"/>
        <path class="cls-7" d="M88.2,57.75c0,.19,0,.37,0,.56h0c0,.14,0,.29,0,.43s0,0,0,.06a.91.91,0,0,1,0,.23v0a3.25,3.25,0,0,1-.06.45c0,.2-.06.39-.1.59"/>
        <path class="cls-7" d="M88.19,58v0a1.62,1.62,0,0,0,0-.22v0c0-.12,0-.24,0-.37"/>
        <path class="cls-4" d="M88.25,55.89c0,.55,0,1.09,0,1.63,0-.22,0-.45,0-.68A7,7,0,0,1,88.25,55.89Z"/>
        <path class="cls-4" d="M88.21,57.52a1.34,1.34,0,0,1,0,.2A1.34,1.34,0,0,0,88.21,57.52Z"/>
        <path class="cls-4" d="M56.72,96.65h0l.2-.09A22.63,22.63,0,0,0,64.52,91h0c.38-.42.74-.85,1.1-1.29A67.55,67.55,0,0,0,73.9,76.06c1.14-2.41,2.18-4.86,3.19-7.33,1.36-3.35,2.85-6.73,2.78-10.43,0-1.63.28-2.34,1.5-2.52a5.81,5.81,0,0,1,1.23-.05l5.05-19.12c-.51-1.06-1.07-2.11-1.66-3.13-11.21-2.63-21.67-5.93-21.67-5.93-2.84-.88-5.65-1.68-8.41-2.4-.46-.13-.92-.24-1.38-.36l-1.94-.48h0C48.92,23.42,45.38,22.67,42,22h0c-4.46-.84-8.65-1.47-12.42-2-3.94-.5-7.44-.84-10.36-1.05-.66.47-1.3,1-1.94,1.48s-1.15.94-1.71,1.44a45.45,45.45,0,0,0-5.09,5.29c-.48.58-.94,1.18-1.39,1.79,0,.27.11.54.18.82A12.19,12.19,0,0,0,10,31.92c.08.15.15.31.24.46a9.8,9.8,0,0,0,.68,1.09,8.21,8.21,0,0,1,1.23,3.77h0q.06.38.09.75c0,.12,0,.25,0,.38.2,1.92.42,3.84.68,5.76h0L28.81,84.29l8.7,6h0l3.88,2A46.26,46.26,0,0,0,51.87,96Z"/>
        <path class="cls-6" d="M73.9,76.06a67.55,67.55,0,0,1-8.28,13.62c-.36.44-.72.87-1.1,1.29h0a22.63,22.63,0,0,1-7.6,5.59L54.8,90.94,30.59,26.88l-.18-.47,1.37-.52h0L42,22h0l1.52-.57c3.44.73,7.05,1.61,10.76,2.64h0l.26.68,2.58,6.82h0L73.42,74.79h0Z"/>
        <path class="cls-6" d="M51.87,96a46.26,46.26,0,0,1-10.46-3.64l-2.93-7.77h0L18.64,32.11h0l-3.13-8.29,1.12-.42,6.83-2.58,1.71,4.54.76,2L49.45,89.59h0Z"/>
        <path class="cls-7" d="M184,51c-45.28-10-69.69-7.61-69.69-7.61-8.89.47-4.46,10.63-4.46,10.63a10.52,10.52,0,0,0,3.28,3.81,25.55,25.55,0,0,1,5.51,5.38c3.29,3,3.42,19.16,3.42,19.16.52,12.73,7.74,18,7.74,18,27.43,19,57.67,5.57,57.67,5.57,12.41-5.51,10-37,10-37C196.87,55.18,184,51,184,51Z"/>
        <path class="cls-8" d="M290.57,55.2c-.66-4-1-8.06-2.36-11.93-1.59-4.46-4.37-7.4-9.34-7.79a22.65,22.65,0,0,0-5.27.5c-17.39,2.7-34.5,6.78-51.75,10.14-1.15.23-2.3.44-3.44.61.66,3.11,1.15,8.28,0,15.93A313,313,0,0,1,259.52,54c4.86-.7,9.59-1.27,13.33-5a20.49,20.49,0,0,1,5.86-4c1.09-.51,2.32-.6,2.61.8s.61,2.72.85,4c1,5.5.85,11,.86,16.61,0,2.11.85,3.09,2.9,3.56,2.77.63,5.25-1.4,5.3-4.53A66.66,66.66,0,0,0,290.57,55.2Z"/>
        <path class="cls-8" d="M197.63,76.58c0,.38,0,.76,0,1.15v.11c0,.18,0,.36,0,.54a1.21,1.21,0,0,1,0,.19c0,.25,0,.51,0,.77a1.41,1.41,0,0,1,0,.2c0,.91-.09,1.86-.16,2.82a2.45,2.45,0,0,0,0,.27L197.24,84c0,.44-.08.89-.13,1.34-.1.83-.21,1.66-.32,2.5,0,0,0,0,0,0-.12.82-.26,1.64-.41,2.45s-.27,1.33-.42,2l-.23,1c-.06.21-.11.42-.16.62a.29.29,0,0,0,0,.09l-.21.72-.18.6c-.08.26-.16.5-.24.74v0c-.06.19-.13.39-.2.58s-.13.37-.2.55l0,0c-.07.18-.13.35-.2.52l-.23.54c-.06.14-.12.29-.19.42a4.08,4.08,0,0,1-.19.42c-.06.14-.13.27-.2.41s-.13.27-.2.4a7.62,7.62,0,0,1-.38.69c-.09.16-.18.32-.28.48l-.22.35c-.07.11-.15.22-.22.34s-.21.29-.31.43l-.26.34-.11.15c-.09.12-.19.23-.28.34l-.32.36s0,0,0,0h0l-.2.22-.2.2c-.12.12-.23.23-.36.34l-.06.06-.09.07-.27.24-.2.16c-.07,0-.13.11-.21.16l0,0c-.14.1-.28.2-.43.29l-.34.22-.07,0,0,0a2.39,2.39,0,0,1-.22.12l-.08.05-.18.1-.09,0-.36.17-.1,0-.09,0-.18.08-.11,0-.3.12-.27.11-.67.25-.19.07-.27.09-.39.14-.27.1-.41.13-.16,0-.3.1-.32.1-.83.26-.34.1-.58.17-.77.21-.64.17-.6.16-.13,0-.75.18-1.87.42-1.43.28c-.58.11-1.18.21-1.8.31l-.74.12-.12,0-.14,0h-.12l-.81.11-1,.12c-.66.08-1.34.15-2,.21l-1.31.11h-.09l-1.42.08-1.14,0h-.53l-1.31,0h-1.13l-1.19,0h-.09l-.72,0h-.31l-.59,0c-.65,0-1.31-.09-2-.16h-.11l-1.5-.16-.79-.11-.72-.1c-.25,0-.51-.07-.76-.12l-.56-.09-.08,0-.57-.1c-1.21-.22-2.43-.49-3.66-.8l-.93-.24-.93-.26-1-.3-1-.32-.91-.31-.08,0-.89-.32-.57-.22-.76-.3-1-.39-1-.45-.09,0c-.21-.09-.43-.18-.64-.29l-.06,0-.57-.26-.73-.36c-.32-.15-.63-.32-.95-.48l-.07,0c-.29-.16-.59-.31-.88-.48s-.72-.38-1.08-.59c-.72-.41-1.43-.84-2.14-1.29-.26-.16-.52-.32-.78-.5-.45-.29-.91-.6-1.36-.91,0,0-7.22-5.25-7.74-18h0c0-.28.11-10.52-1.88-16.27,0,0,0,0,0-.06a.49.49,0,0,1,0-.11s0,0,0,0a8.13,8.13,0,0,0-1.46-2.68l0,0,0-.05a42.19,42.19,0,0,0-5.45-5.29,15.88,15.88,0,0,1-3.26-3.78h0a.61.61,0,0,1,0-.11c0-.06,0-.14-.09-.23h0q-.09-.24-.21-.6-.08-.21-.15-.48a2.29,2.29,0,0,1-.08-.28.24.24,0,0,1,0-.08c0-.12-.07-.25-.11-.37s0-.14,0-.22,0-.12-.05-.19h0c0-.08,0-.15,0-.22s0-.13,0-.2v0c0-.14-.06-.3-.08-.45l0-.21a2.06,2.06,0,0,1,0-.26l0-.23c0-.08,0-.16,0-.24a1.93,1.93,0,0,1,0-.24c0-.16,0-.32,0-.49s0-.31,0-.47h0a3.73,3.73,0,0,1,0-.47s0-.09,0-.13a.11.11,0,0,0,0-.05l0-.15.06-.33c.42-1.84,1.68-3.43,4.67-3.82l.55,0h.18s2.53-.25,7.46-.25h2.34l.86,0,1.19,0,.62,0h.12l.77,0,.86,0,.88,0,.7,0,.31,0,.56,0,.57,0h.06l2.22.12.27,0,1.31.09,1,.07q3.48.25,7.49.67c3.7.38,7.73.86,12.1,1.49S165,47.31,170,48.23c4.41.81,9.06,1.74,13.95,2.82h0l.07,0,.06,0,.16.06.1,0,.15.06.3.12h0l.32.14.08,0c.16.07.34.15.53.25l.17.08.26.13h0l.45.24.47.26.1,0,.64.38.66.43c.34.23.68.47,1,.73l.37.28.4.32c.46.38.93.8,1.39,1.25a2.91,2.91,0,0,1,.31.3q.25.26.51.54l.39.43c0,.06.09.11.13.16l.45.55,0,.05c.16.2.31.4.46.61s.15.21.22.31l.21.32a16.79,16.79,0,0,1,.91,1.56c.11.2.22.42.31.63s.18.37.26.56l.24.58.21.56c.07.19.13.38.19.58a.19.19,0,0,1,0,.07c.05.15.1.31.14.46s.1.33.14.5.1.4.14.6l.12.54v0c0,.19.07.39.1.59s.06.36.08.54,0,.22.05.34,0,.34,0,.51l.05.54q0,.26,0,.54s0,.08,0,.24,0,.12,0,.18a.49.49,0,0,0,0,.12.49.49,0,0,0,0,.12v.12h0c0,.09,0,.19,0,.29a1.09,1.09,0,0,0,0,.18c0,.08,0,.16,0,.25v.11h0a1.41,1.41,0,0,1,0,.21c0,.2,0,.42,0,.65v0c0,.13,0,.27,0,.41v0h0v0c0,.12,0,.25,0,.38s0,.27,0,.41v0c0,.16,0,.33,0,.51C197.65,74.27,197.65,75.37,197.63,76.58Zm20.89-29.87v0a30.14,30.14,0,0,1-10.91-.15q-6.18-1.34-12.4-2.52Q183,41.66,170.63,39.92l-4-.55-.59-.07c-1.06-.14-2.13-.28-3.19-.4l-.85-.11c-1.23-.15-2.45-.3-3.68-.43l-2.06-.24L151,37.55l-6.55-.67-.48-.05h-.14l-.88-.08-.67-.06-.94-.09-.49,0-.7,0c-5.88-.47-12.9-.87-12.9-.87-1.73.1-3.76.15-6,.17-3,0-6.41,0-9.62,0-7.65-.12-14.48-.39-14.48-.39-.55-.06-1.12-.14-1.7-.22-2.27-.33-4.73-.79-7.24-1.34-1.93-.41-3.89-.88-5.82-1.36C72,29.81,62.17,26.52,62.17,26.52c-2.66-.89-5.29-1.69-7.87-2.41h0c-3.71-1-7.32-1.91-10.76-2.64-5-1.08-9.7-1.86-13.85-2.42-3.4-.47-6.43-.79-9-1L20,18c-3.49-.29-6.09-.4-7.53-.43l-1.3,0a2,2,0,0,0-1.91,1.66,13.17,13.17,0,0,0-.32,2.14A32.34,32.34,0,0,0,9.07,29c0,.27.11.54.18.82A12.19,12.19,0,0,0,10,31.92c.08.15.15.31.24.46a9.8,9.8,0,0,0,.68,1.09,8.21,8.21,0,0,1,1.23,3.77h0q.06.38.09.75c0,.12,0,.25,0,.38.2,1.92.42,3.84.68,5.76h0c.23,1.79.5,3.6.79,5.38A156.38,156.38,0,0,0,17.32,66c1.94,7.13,5.3,13.39,11.23,18l.26.22.75.61a64.39,64.39,0,0,0,8,5.39h0c1.21.7,2.51,1.39,3.88,2A46.26,46.26,0,0,0,51.87,96c.52.11,1,.21,1.57.29a32.58,32.58,0,0,0,3.28.37H57l0-.1A22.63,22.63,0,0,0,64.52,91h0c.38-.42.74-.85,1.1-1.29A67.55,67.55,0,0,0,73.9,76.06l3.32,8.78a93.25,93.25,0,0,0,8.4-17.57,43.07,43.07,0,0,0,2.3-7.17c0-.2.07-.39.1-.59a3.25,3.25,0,0,0,.06-.45v0a.91.91,0,0,0,0-.23s0,0,0-.06,0-.29,0-.43,0-.21,0-.31v0a2.26,2.26,0,0,0,0-.26c0-.12,0-.24,0-.37a.19.19,0,0,0,0-.08v-.43a7.07,7.07,0,0,1,0-.95,2.68,2.68,0,0,1,0-.3c.21-1.06.88-1.39,2.47-1.31a11.36,11.36,0,0,1,2.93.51,9.28,9.28,0,0,1,3.67,2.16,10.86,10.86,0,0,1,2.12,2.84l.06.12a40.57,40.57,0,0,1,2.26,5.3c3,8.55,6,17.09,10.69,24.91,5.47,9,12,16.88,22.09,21.1h0l.47.23.11,0,.75.33.56.23.39.15.36.13h0l.39.15.46.15.44.15.48.15.51.17.55.16c1.12.33,2.41.66,3.89,1l.1,0,.63.13c.8.17,1.65.32,2.55.48l.75.12.9.14c1.09.16,2.25.3,3.48.43l.72.08,1.5.13.76,0q.87.08,1.77.12l1.45.06,1.36,0h4.28l1.55,0,1,0,1,0,.93,0,.94,0,1.21-.08,1-.07.94-.07.43,0q.36,0,.72-.06l.89-.08.89-.08.64-.07c.3,0,.61-.05.91-.09l.66-.07,1.06-.13h0c.8-.09,1.62-.19,2.44-.31,8.05-1.57,14.05-5.27,17.82-11.52a26.44,26.44,0,0,0,2.18-4.57h0a31.39,31.39,0,0,0,1-3.15q1.91-7.22,3.25-14.52c.69-3.7,1.27-7.41,1.77-11.14A5.76,5.76,0,0,1,211.21,65a32.25,32.25,0,0,1,3.34-1.18c1.32-.41,2.65-.8,4-1.19v0h0C219.67,55,219.19,49.81,218.52,46.71ZM73.75,73.86l0,.13-.09.25c-.06.18-.13.36-.2.55l0,.1s0,.07,0,.11,0,.13-.07.18a1.17,1.17,0,0,1,0,.11c-.08.21-.15.42-.23.62s-.17.41-.24.61l-.41,1,0,0,0,.08c-.16.38-.33.75-.5,1.12s-.22.49-.34.73c-.23.48-.47,1-.71,1.43l-.3.56-.42.76L69.6,83l-.33.54-.5.77-.42.62-.07.09c-.17.25-.35.5-.53.74l-.62.79-.27.33c-.12.15-.25.28-.36.42l-.17.17-.16.15c-.21.18-.51.43-.89.71l-.23.17-.25.17-.29.19-.37.22a2,2,0,0,1-.32.18l0,0-.24.13a1.92,1.92,0,0,1-.25.12l-.36.18-.56.25h0l-.2.08-.36.14,0,0-.43.15-.45.13c-.11,0-.21.07-.32.09l-.23.06-.4.1-.37.07h0l-.46.08-.14,0-.53.07h0l-.5,0h0l-.3,0h-.06l-.3,0h-1l-.47,0-.85-.08h-.07l-.41-.05-.38-.06-.52-.09-.65-.14-.71-.18s-.4-.1-1.09-.32L50.54,90l-.31-.11-.49-.15-.2-.08-.09,0L49,89.45l-.46-.17c-.6-.21-1.26-.46-2-.74l-.43-.18-.1,0-.8-.33-.61-.26c-.49-.21-1-.44-1.5-.68l-.51-.25c-.52-.24-1-.5-1.57-.78q-.51-.26-1-.54c-.53-.29-1-.58-1.57-.9h0L37.56,84l-.77-.49-.57-.39c-.17-.11-.34-.22-.51-.35l-.53-.37-.49-.37c-.27-.2-.54-.4-.81-.62s-.51-.4-.75-.61l-.64-.54-.25-.23L32,79.87l0,0h0s0,0,0,0l-.14-.13a1.59,1.59,0,0,1-.13-.13,1.29,1.29,0,0,1-.17-.16l-.3-.29c-.09-.08-.16-.17-.24-.24l-.49-.51h0l-.13-.13-.12-.14-.42-.46-.54-.65a1.13,1.13,0,0,1-.1-.13c-.18-.22-.35-.44-.52-.67h0l-.37-.51c-.13-.18-.25-.37-.37-.55-.24-.36-.47-.73-.68-1.11-.07-.11-.14-.24-.2-.36l-.17-.31c-.08-.15-.16-.32-.23-.47,0,0-.3-.47-.79-1.42l-.2-.4-.3-.63c-.18-.37-.37-.79-.57-1.25a.36.36,0,0,1,0-.09s0,0,0,0h0a.08.08,0,0,1,0,0,2,2,0,0,0-.1-.21c-.22-.53-.46-1.11-.71-1.74-.1-.28-.22-.57-.33-.88l-.2-.55a.64.64,0,0,1,0-.07h0c-.06-.19-.13-.38-.2-.58-.17-.49-.34-1-.51-1.55-.07-.2-.13-.39-.19-.6-.38-1.22-.75-2.55-1.11-4l-.18-.73L21,57.4a.29.29,0,0,1,0-.09l-.18-.76c-.11-.52-.22-1-.33-1.61s-.21-1.08-.31-1.63a.09.09,0,0,0,0-.05c-.1-.55-.19-1.11-.28-1.68,0-.21-.07-.42-.1-.64,0,0,0-.09,0-.14s0,0,0,0a.17.17,0,0,0,0-.07c-.05-.29-.09-.59-.13-.9l0-.17,0-.27c0-.18-.05-.36-.07-.55s-.09-.67-.13-1-.07-.56-.1-.84-.07-.72-.11-1.08C19,45.24,19,44.63,18.93,44v-.07c0-.35-.05-.69-.08-1s-.06-.9-.08-1.36-.05-.88-.07-1.32,0-.79-.05-1.19V39c0-.23,0-.46,0-.7a2.44,2.44,0,0,1,0-.27c0-.19,0-.37,0-.56,0-.38,0-.76,0-1.15,0-1,0-1.94,0-2.94v-.06a2.79,2.79,0,0,1,0-.42v-.23c0-.06,0-.12,0-.19s0-.2,0-.3v0a2.51,2.51,0,0,1,0-.27c0-.1,0-.21,0-.31l0-.15c0-.15.06-.3.09-.46s.05-.2.08-.31l.09-.32c0-.06,0-.13.07-.2s0-.08,0-.12l.09-.26c0-.08.07-.16.11-.25l.07-.16.16-.33a3.54,3.54,0,0,1,.19-.33.16.16,0,0,1,0-.07l.16-.26A1,1,0,0,1,20,28.2l0-.06a3.24,3.24,0,0,1,.24-.31h0l.05-.06.21-.24h0l.28-.29h0l.26-.23a.52.52,0,0,1,.11-.1l0,0a.18.18,0,0,0,.07-.05l.21-.15.39-.25a2.22,2.22,0,0,1,.37-.21l.11-.05.12-.07L22.7,26l.11-.05.28-.1.21-.08.31-.1.44-.12.09,0,.09,0,.13,0,.39-.07.2,0,.21,0h0l.23,0,.18,0,.44,0a16.53,16.53,0,0,1,3.47.29h.21l.26,0,.29,0h.07l.42,0,1,.15h0l.62.09.43.07.34.05.27,0h.08l.45.07.48.08.18,0h.1l.1,0,.1,0h0l.3.06.83.14.46.08.95.17h.09l.63.12.49.1h.06l.24.05.53.1.54.11.16,0,.33.07c.92.18,1.88.38,2.88.61l1.27.28c1.11.25,2.27.52,3.46.82l1.19.3,1.36.35c1,.27,2.1.56,3.17.87l.26.08L55,31l.1,0,1.86.55.16.05.47.15c.88.27,1.76.55,2.65.85.66.21,1.33.44,2,.68l1,.35,1,.36.35.13,1.68.63c.58.21,1.15.44,1.73.67l.31.12.41.17,1,.39,1.35.57,1.36.59h.07l0,0,.06,0,.16.07.11.06.27.15.15.09.16.1.18.11.18.13.06,0,.26.19.27.21.21.18.21.19.22.2c.07.07.15.14.22.22l.15.16c.11.11.21.22.31.34s.17.19.24.29a5.3,5.3,0,0,1,.34.45,2,2,0,0,1,.17.23l.16.24.15.23c0,.08.1.16.14.24l.06.09,0,.08,0,.09.13.24a.61.61,0,0,0,.07.14l.19.39s0,.07,0,.11a4.89,4.89,0,0,1,.2.46l.21.57h0c0,.16.11.31.15.48l0,0h0l.12.46s0,0,0,0a.57.57,0,0,1,0,.14l0,.14h0a0,0,0,0,1,0,0s0,0,0,0h0c0,.18.08.35.11.54h0c0,.22.07.43.11.66l.09.83c0,.23,0,.48,0,.73h0c0,.27,0,.53,0,.8,0,.58,0,1.18-.09,1.82v.08q0,.11,0,.36c0,.05,0,.12,0,.19s0,.29,0,.46,0,.38-.06.6-.08.75-.13,1.19c0,.21-.05.42-.08.65,0,0,0,.07,0,.1l-.06.47,0,.25c-.11.84-.24,1.78-.4,2.81q-.06.36-.12.75c0,.33-.11.66-.17,1l-.09.52-.09.52c-.07.4-.15.81-.23,1.23s-.22,1.12-.35,1.71c-.08.39-.16.78-.25,1.19,0,.21-.1.43-.16.65s-.1.49-.17.74-.12.5-.18.75a.09.09,0,0,1,0,0l-.18.7c-.14.58-.3,1.16-.46,1.74L75,70c-.09.32-.19.64-.29,1,0,.16-.09.32-.14.47l-.15.48c-.1.32-.2.63-.31.94S73.87,73.54,73.75,73.86Z"/>
        <path class="cls-8" d="M77.22,84.84c-.73,1.15-1.51,2.27-2.33,3.38A21.49,21.49,0,0,1,64.53,96a27.43,27.43,0,0,1-7.57.65l0-.1A22.63,22.63,0,0,0,64.52,91h0c.38-.42.74-.85,1.1-1.29A67.55,67.55,0,0,0,73.9,76.06Z"/>
      </g>
      <g>
        <path class="cls-3" d="M140.16,36.5c-5.88-.47-12.9-.86-12.9-.86-1.73.09-3.76.14-6,.16A3,3,0,0,0,123.44,37c5,.21,9.95.49,14.93.68C139.69,37.69,140.28,37.32,140.16,36.5ZM123.74,21.16C111,12.3,97.05,8.11,81.33,9,61,10.15,33.53,13.41,13.46,16.68c-.67.15-1,.31-1,.87a.81.81,0,0,0,0,.16l3.12,4.23.16.21.92,1.25,3.28,4.43h.39c1.1,0,3.08-.2,5.63-.46,1.39-.14,3-.3,4.66-.49l4.35-.49h0c5.52-.63,11.79-1.39,17.61-2.08h0l1.68-.2h0l2.12-.26h0C63.85,23,70,22.27,71.84,22.18a18.06,18.06,0,0,0,5.68-1.48,81.52,81.52,0,0,1,11-3.78c6.52-1.53,12.61-.77,18.17,3.23a49.69,49.69,0,0,1,7,6A55.45,55.45,0,0,1,117.51,31,55,55,0,0,1,128.58,25C126.89,23.53,125.22,22.19,123.74,21.16Zm-80.23.3c3.44.73,7.05,1.61,10.76,2.64Z"/>
        <path class="cls-4" d="M205.7,81c.11-1.38.16-2.76.16-4.16A55.79,55.79,0,0,0,195.21,44Q183,41.66,170.63,39.92l-4-.55-.59-.07c-1.06-.14-2.13-.28-3.19-.4l-.85-.11c-1.23-.15-2.45-.3-3.68-.43l-2.06-.24L151,37.55l-6.55-.67-.48-.05h-.14l-.88-.08-.67-.06-.94-.09-.49,0-.7,0c-5.88-.47-12.9-.87-12.9-.87-1.73.1-3.76.15-6,.17-3,0-6.41,0-9.62,0A55.83,55.83,0,0,0,97.37,56.94a10.86,10.86,0,0,1,2.12,2.84l.06.12a40.57,40.57,0,0,1,2.26,5.3c3,8.55,6,17.09,10.69,24.91,5.47,9,12,16.88,22.09,21.1h0l.47.23.11,0,.75.33c.17.08.36.15.56.23l.39.15.36.13h0l.39.15.46.15.44.15.48.15.51.17.55.16c1.12.33,2.41.66,3.89,1l.1,0,.63.13c.8.17,1.65.32,2.55.48l.75.12.9.14c1.09.16,2.25.3,3.48.43l.72.08,1.5.13.76,0q.87.08,1.77.12l1.45.06,1.36,0h4.28l1.55,0,1,0,1,0,.93,0,.94,0,1.21-.08,1-.07.94-.07.43,0q.36,0,.72-.06l.89-.08.89-.08.64-.07c.3,0,.61-.05.91-.09l.66-.07,1.06-.13h0c.8-.09,1.62-.19,2.44-.31,8.05-1.57,14.05-5.27,17.82-11.52.79-1.48,1.52-3,2.18-4.57h0Z"/>
        <path class="cls-5" d="M162.73,116.12h-1.55l-.76,0H160l-1.36,0-1.45-.07q-.9,0-1.77-.12l-.76,0-1.5-.13-.72-.08c-1.23-.12-2.39-.27-3.48-.43Z"/>
        <path class="cls-6" d="M162.73,116.12h-1.55l-.76,0H160l-1.36,0-1.45-.07q-.9,0-1.77-.12l-.76,0-1.5-.13-.72-.08c-1.23-.12-2.39-.27-3.48-.43l-2.6-6.88-24.6-65.09h0l-.42-1.1,11.77-4.45,2.29,6.06h0l25.26,66.83h0Z"/>
        <path class="cls-6" d="M179,115.12h0l14.24-5.39-2.38-6.3L170,48.23h0l-3.35-8.84-.59-.08-3.19-.4-.85-.1c-1.23-.16-2.45-.3-3.68-.44l-2.06-.23c-1.76-.2-3.51-.39-5.27-.57-2.18-.24-4.37-.46-6.55-.68l-.48-.05h-.14l-.88-.08-.67-.06-.94-.08-.49,0,3,7.88h0l24.9,65.88,2.1,5.54Z"/>
        <path class="cls-7" d="M72.4,37.27C51.67,28.08,29.49,25.59,29.49,25.59c-11.55-2.1-10.89,7.74-10.89,7.74-.39,26.25,8,39.5,8,39.5,6,12.46,25.46,17.58,25.46,17.58,9.19,2.5,14.44-3.15,14.44-3.15C76.86,75.45,78.57,50.39,78.57,50.39,79.49,40,72.4,37.27,72.4,37.27Z"/>
        <path class="cls-7" d="M88.2,57.75c0,.19,0,.37,0,.56h0c0,.14,0,.29,0,.43s0,0,0,.06a.91.91,0,0,1,0,.23v0a3.25,3.25,0,0,1-.06.45c0,.2-.06.39-.1.59"/>
        <path class="cls-7" d="M88.19,58v0a1.62,1.62,0,0,0,0-.22v0c0-.12,0-.24,0-.37"/>
        <path class="cls-4" d="M88.25,55.89c0,.55,0,1.09,0,1.63,0-.22,0-.45,0-.68A7,7,0,0,1,88.25,55.89Z"/>
        <path class="cls-4" d="M88.21,57.52a1.34,1.34,0,0,1,0,.2A1.34,1.34,0,0,0,88.21,57.52Z"/>
        <path class="cls-4" d="M56.72,96.65h0l.2-.09A22.63,22.63,0,0,0,64.52,91h0c.38-.42.74-.85,1.1-1.29A67.55,67.55,0,0,0,73.9,76.06c1.14-2.41,2.18-4.86,3.19-7.33,1.36-3.35,2.85-6.73,2.78-10.43,0-1.63.28-2.34,1.5-2.52a5.81,5.81,0,0,1,1.23-.05l5.05-19.12c-.51-1.06-1.07-2.11-1.66-3.13-11.21-2.63-21.67-5.93-21.67-5.93-2.84-.88-5.65-1.68-8.41-2.4-.46-.13-.92-.24-1.38-.36l-1.94-.48h0C48.92,23.42,45.38,22.67,42,22h0c-4.46-.84-8.65-1.47-12.42-2-3.94-.5-7.44-.84-10.36-1.05-.66.47-1.3,1-1.94,1.48s-1.15.94-1.71,1.44a45.45,45.45,0,0,0-5.09,5.29c-.48.58-.94,1.18-1.39,1.79,0,.27.11.54.18.82A12.19,12.19,0,0,0,10,31.92c.08.15.15.31.24.46a9.8,9.8,0,0,0,.68,1.09,8.21,8.21,0,0,1,1.23,3.77h0q.06.38.09.75c0,.12,0,.25,0,.38.2,1.92.42,3.84.68,5.76h0L28.81,84.29l8.7,6h0l3.88,2A46.26,46.26,0,0,0,51.87,96Z"/>
        <path class="cls-6" d="M73.9,76.06a67.55,67.55,0,0,1-8.28,13.62c-.36.44-.72.87-1.1,1.29h0a22.63,22.63,0,0,1-7.6,5.59L54.8,90.94,30.59,26.88l-.18-.47,1.37-.52h0L42,22h0l1.52-.57c3.44.73,7.05,1.61,10.76,2.64h0l.26.68,2.58,6.82h0L73.42,74.79h0Z"/>
        <path class="cls-6" d="M51.87,96a46.26,46.26,0,0,1-10.46-3.64l-2.93-7.77h0L18.64,32.11h0l-3.13-8.29,1.12-.42,6.83-2.58,1.71,4.54.76,2L49.45,89.59h0Z"/>
        <path class="cls-7" d="M184,51c-45.28-10-69.69-7.61-69.69-7.61-8.89.47-4.46,10.63-4.46,10.63a10.52,10.52,0,0,0,3.28,3.81,25.55,25.55,0,0,1,5.51,5.38c3.29,3,3.42,19.16,3.42,19.16.52,12.73,7.74,18,7.74,18,27.43,19,57.67,5.57,57.67,5.57,12.41-5.51,10-37,10-37C196.87,55.18,184,51,184,51Z"/>
        <path class="cls-8" d="M290.57,55.2c-.66-4-1-8.06-2.36-11.93-1.59-4.46-4.37-7.4-9.34-7.79a22.65,22.65,0,0,0-5.27.5c-17.39,2.7-34.5,6.78-51.75,10.14-1.15.23-2.3.44-3.44.61.66,3.11,1.15,8.28,0,15.93A313,313,0,0,1,259.52,54c4.86-.7,9.59-1.27,13.33-5a20.49,20.49,0,0,1,5.86-4c1.09-.51,2.32-.6,2.61.8s.61,2.72.85,4c1,5.5.85,11,.86,16.61,0,2.11.85,3.09,2.9,3.56,2.77.63,5.25-1.4,5.3-4.53A66.66,66.66,0,0,0,290.57,55.2Z"/>
        <path class="cls-8" d="M197.63,76.58c0,.38,0,.76,0,1.15v.11c0,.18,0,.36,0,.54a1.21,1.21,0,0,1,0,.19c0,.25,0,.51,0,.77a1.41,1.41,0,0,1,0,.2c0,.91-.09,1.86-.16,2.82a2.45,2.45,0,0,0,0,.27L197.24,84c0,.44-.08.89-.13,1.34-.1.83-.21,1.66-.32,2.5,0,0,0,0,0,0-.12.82-.26,1.64-.41,2.45s-.27,1.33-.42,2l-.23,1c-.06.21-.11.42-.16.62a.29.29,0,0,0,0,.09l-.21.72-.18.6c-.08.26-.16.5-.24.74v0c-.06.19-.13.39-.2.58s-.13.37-.2.55l0,0c-.07.18-.13.35-.2.52l-.23.54c-.06.14-.12.29-.19.42a4.08,4.08,0,0,1-.19.42c-.06.14-.13.27-.2.41s-.13.27-.2.4a7.62,7.62,0,0,1-.38.69c-.09.16-.18.32-.28.48l-.22.35c-.07.11-.15.22-.22.34s-.21.29-.31.43l-.26.34-.11.15c-.09.12-.19.23-.28.34l-.32.36s0,0,0,0h0l-.2.22-.2.2c-.12.12-.23.23-.36.34l-.06.06-.09.07-.27.24-.2.16c-.07,0-.13.11-.21.16l0,0c-.14.1-.28.2-.43.29l-.34.22-.07,0,0,0a2.39,2.39,0,0,1-.22.12l-.08.05-.18.1-.09,0-.36.17-.1,0-.09,0-.18.08-.11,0-.3.12-.27.11-.67.25-.19.07-.27.09-.39.14-.27.1-.41.13-.16,0-.3.1-.32.1-.83.26-.34.1-.58.17-.77.21-.64.17-.6.16-.13,0-.75.18-1.87.42-1.43.28c-.58.11-1.18.21-1.8.31l-.74.12-.12,0-.14,0h-.12l-.81.11-1,.12c-.66.08-1.34.15-2,.21l-1.31.11h-.09l-1.42.08-1.14,0h-.53l-1.31,0h-1.13l-1.19,0h-.09l-.72,0h-.31l-.59,0c-.65,0-1.31-.09-2-.16h-.11l-1.5-.16-.79-.11-.72-.1c-.25,0-.51-.07-.76-.12l-.56-.09-.08,0-.57-.1c-1.21-.22-2.43-.49-3.66-.8l-.93-.24-.93-.26-1-.3-1-.32-.91-.31-.08,0-.89-.32-.57-.22-.76-.3-1-.39-1-.45-.09,0c-.21-.09-.43-.18-.64-.29l-.06,0-.57-.26-.73-.36c-.32-.15-.63-.32-.95-.48l-.07,0c-.29-.16-.59-.31-.88-.48s-.72-.38-1.08-.59c-.72-.41-1.43-.84-2.14-1.29-.26-.16-.52-.32-.78-.5-.45-.29-.91-.6-1.36-.91,0,0-7.22-5.25-7.74-18h0c0-.28.11-10.52-1.88-16.27,0,0,0,0,0-.06a.49.49,0,0,1,0-.11s0,0,0,0a8.13,8.13,0,0,0-1.46-2.68l0,0,0-.05a42.19,42.19,0,0,0-5.45-5.29,15.88,15.88,0,0,1-3.26-3.78h0a.61.61,0,0,1,0-.11c0-.06,0-.14-.09-.23h0q-.09-.24-.21-.6-.08-.21-.15-.48a2.29,2.29,0,0,1-.08-.28.24.24,0,0,1,0-.08c0-.12-.07-.25-.11-.37s0-.14,0-.22,0-.12-.05-.19h0c0-.08,0-.15,0-.22s0-.13,0-.2v0c0-.14-.06-.3-.08-.45l0-.21a2.06,2.06,0,0,1,0-.26l0-.23c0-.08,0-.16,0-.24a1.93,1.93,0,0,1,0-.24c0-.16,0-.32,0-.49s0-.31,0-.47h0a3.73,3.73,0,0,1,0-.47s0-.09,0-.13a.11.11,0,0,0,0-.05l0-.15.06-.33c.42-1.84,1.68-3.43,4.67-3.82l.55,0h.18s2.53-.25,7.46-.25h2.34l.86,0,1.19,0,.62,0h.12l.77,0,.86,0,.88,0,.7,0,.31,0,.56,0,.57,0h.06l2.22.12.27,0,1.31.09,1,.07q3.48.25,7.49.67c3.7.38,7.73.86,12.1,1.49S165,47.31,170,48.23c4.41.81,9.06,1.74,13.95,2.82h0l.07,0,.06,0,.16.06.1,0,.15.06.3.12h0l.32.14.08,0c.16.07.34.15.53.25l.17.08.26.13h0l.45.24.47.26.1,0,.64.38.66.43c.34.23.68.47,1,.73l.37.28.4.32c.46.38.93.8,1.39,1.25a2.91,2.91,0,0,1,.31.3q.25.26.51.54l.39.43c0,.06.09.11.13.16l.45.55,0,.05c.16.2.31.4.46.61s.15.21.22.31l.21.32a16.79,16.79,0,0,1,.91,1.56c.11.2.22.42.31.63s.18.37.26.56l.24.58.21.56c.07.19.13.38.19.58a.19.19,0,0,1,0,.07c.05.15.1.31.14.46s.1.33.14.5.1.4.14.6l.12.54v0c0,.19.07.39.1.59s.06.36.08.54,0,.22.05.34,0,.34,0,.51l.05.54q0,.26,0,.54s0,.08,0,.24,0,.12,0,.18a.49.49,0,0,0,0,.12.49.49,0,0,0,0,.12v.12h0c0,.09,0,.19,0,.29a1.09,1.09,0,0,0,0,.18c0,.08,0,.16,0,.25v.11h0a1.41,1.41,0,0,1,0,.21c0,.2,0,.42,0,.65v0c0,.13,0,.27,0,.41v0h0v0c0,.12,0,.25,0,.38s0,.27,0,.41v0c0,.16,0,.33,0,.51C197.65,74.27,197.65,75.37,197.63,76.58Zm20.89-29.87v0a30.14,30.14,0,0,1-10.91-.15q-6.18-1.34-12.4-2.52Q183,41.66,170.63,39.92l-4-.55-.59-.07c-1.06-.14-2.13-.28-3.19-.4l-.85-.11c-1.23-.15-2.45-.3-3.68-.43l-2.06-.24L151,37.55l-6.55-.67-.48-.05h-.14l-.88-.08-.67-.06-.94-.09-.49,0-.7,0c-5.88-.47-12.9-.87-12.9-.87-1.73.1-3.76.15-6,.17-3,0-6.41,0-9.62,0-7.65-.12-14.48-.39-14.48-.39-.55-.06-1.12-.14-1.7-.22-2.27-.33-4.73-.79-7.24-1.34-1.93-.41-3.89-.88-5.82-1.36C72,29.81,62.17,26.52,62.17,26.52c-2.66-.89-5.29-1.69-7.87-2.41h0c-3.71-1-7.32-1.91-10.76-2.64-5-1.08-9.7-1.86-13.85-2.42-3.4-.47-6.43-.79-9-1L20,18c-3.49-.29-6.09-.4-7.53-.43l-1.3,0a2,2,0,0,0-1.91,1.66,13.17,13.17,0,0,0-.32,2.14A32.34,32.34,0,0,0,9.07,29c0,.27.11.54.18.82A12.19,12.19,0,0,0,10,31.92c.08.15.15.31.24.46a9.8,9.8,0,0,0,.68,1.09,8.21,8.21,0,0,1,1.23,3.77h0q.06.38.09.75c0,.12,0,.25,0,.38.2,1.92.42,3.84.68,5.76h0c.23,1.79.5,3.6.79,5.38A156.38,156.38,0,0,0,17.32,66c1.94,7.13,5.3,13.39,11.23,18l.26.22.75.61a64.39,64.39,0,0,0,8,5.39h0c1.21.7,2.51,1.39,3.88,2A46.26,46.26,0,0,0,51.87,96c.52.11,1,.21,1.57.29a32.58,32.58,0,0,0,3.28.37H57l0-.1A22.63,22.63,0,0,0,64.52,91h0c.38-.42.74-.85,1.1-1.29A67.55,67.55,0,0,0,73.9,76.06l3.32,8.78a93.25,93.25,0,0,0,8.4-17.57,43.07,43.07,0,0,0,2.3-7.17c0-.2.07-.39.1-.59a3.25,3.25,0,0,0,.06-.45v0a.91.91,0,0,0,0-.23s0,0,0-.06,0-.29,0-.43,0-.21,0-.31v0a2.26,2.26,0,0,0,0-.26c0-.12,0-.24,0-.37a.19.19,0,0,0,0-.08v-.43a7.07,7.07,0,0,1,0-.95,2.68,2.68,0,0,1,0-.3c.21-1.06.88-1.39,2.47-1.31a11.36,11.36,0,0,1,2.93.51,9.28,9.28,0,0,1,3.67,2.16,10.86,10.86,0,0,1,2.12,2.84l.06.12a40.57,40.57,0,0,1,2.26,5.3c3,8.55,6,17.09,10.69,24.91,5.47,9,12,16.88,22.09,21.1h0l.47.23.11,0,.75.33.56.23.39.15.36.13h0l.39.15.46.15.44.15.48.15.51.17.55.16c1.12.33,2.41.66,3.89,1l.1,0,.63.13c.8.17,1.65.32,2.55.48l.75.12.9.14c1.09.16,2.25.3,3.48.43l.72.08,1.5.13.76,0q.87.08,1.77.12l1.45.06,1.36,0h4.28l1.55,0,1,0,1,0,.93,0,.94,0,1.21-.08,1-.07.94-.07.43,0q.36,0,.72-.06l.89-.08.89-.08.64-.07c.3,0,.61-.05.91-.09l.66-.07,1.06-.13h0c.8-.09,1.62-.19,2.44-.31,8.05-1.57,14.05-5.27,17.82-11.52a26.44,26.44,0,0,0,2.18-4.57h0a31.39,31.39,0,0,0,1-3.15q1.91-7.22,3.25-14.52c.69-3.7,1.27-7.41,1.77-11.14A5.76,5.76,0,0,1,211.21,65a32.25,32.25,0,0,1,3.34-1.18c1.32-.41,2.65-.8,4-1.19v0h0C219.67,55,219.19,49.81,218.52,46.71ZM73.75,73.86l0,.13-.09.25c-.06.18-.13.36-.2.55l0,.1s0,.07,0,.11,0,.13-.07.18a1.17,1.17,0,0,1,0,.11c-.08.21-.15.42-.23.62s-.17.41-.24.61l-.41,1,0,0,0,.08c-.16.38-.33.75-.5,1.12s-.22.49-.34.73c-.23.48-.47,1-.71,1.43l-.3.56-.42.76L69.6,83l-.33.54-.5.77-.42.62-.07.09c-.17.25-.35.5-.53.74l-.62.79-.27.33c-.12.15-.25.28-.36.42l-.17.17-.16.15c-.21.18-.51.43-.89.71l-.23.17-.25.17-.29.19-.37.22a2,2,0,0,1-.32.18l0,0-.24.13a1.92,1.92,0,0,1-.25.12l-.36.18-.56.25h0l-.2.08-.36.14,0,0-.43.15-.45.13c-.11,0-.21.07-.32.09l-.23.06-.4.1-.37.07h0l-.46.08-.14,0-.53.07h0l-.5,0h0l-.3,0h-.06l-.3,0h-1l-.47,0-.85-.08h-.07l-.41-.05-.38-.06-.52-.09-.65-.14-.71-.18s-.4-.1-1.09-.32L50.54,90l-.31-.11-.49-.15-.2-.08-.09,0L49,89.45l-.46-.17c-.6-.21-1.26-.46-2-.74l-.43-.18-.1,0-.8-.33-.61-.26c-.49-.21-1-.44-1.5-.68l-.51-.25c-.52-.24-1-.5-1.57-.78q-.51-.26-1-.54c-.53-.29-1-.58-1.57-.9h0L37.56,84l-.77-.49-.57-.39c-.17-.11-.34-.22-.51-.35l-.53-.37-.49-.37c-.27-.2-.54-.4-.81-.62s-.51-.4-.75-.61l-.64-.54-.25-.23L32,79.87l0,0h0s0,0,0,0l-.14-.13a1.59,1.59,0,0,1-.13-.13,1.29,1.29,0,0,1-.17-.16l-.3-.29c-.09-.08-.16-.17-.24-.24l-.49-.51h0l-.13-.13-.12-.14-.42-.46-.54-.65a1.13,1.13,0,0,1-.1-.13c-.18-.22-.35-.44-.52-.67h0l-.37-.51c-.13-.18-.25-.37-.37-.55-.24-.36-.47-.73-.68-1.11-.07-.11-.14-.24-.2-.36l-.17-.31c-.08-.15-.16-.32-.23-.47,0,0-.3-.47-.79-1.42l-.2-.4-.3-.63c-.18-.37-.37-.79-.57-1.25a.36.36,0,0,1,0-.09s0,0,0,0h0a.08.08,0,0,1,0,0,2,2,0,0,0-.1-.21c-.22-.53-.46-1.11-.71-1.74-.1-.28-.22-.57-.33-.88l-.2-.55a.64.64,0,0,1,0-.07h0c-.06-.19-.13-.38-.2-.58-.17-.49-.34-1-.51-1.55-.07-.2-.13-.39-.19-.6-.38-1.22-.75-2.55-1.11-4l-.18-.73L21,57.4a.29.29,0,0,1,0-.09l-.18-.76c-.11-.52-.22-1-.33-1.61s-.21-1.08-.31-1.63a.09.09,0,0,0,0-.05c-.1-.55-.19-1.11-.28-1.68,0-.21-.07-.42-.1-.64,0,0,0-.09,0-.14s0,0,0,0a.17.17,0,0,0,0-.07c-.05-.29-.09-.59-.13-.9l0-.17,0-.27c0-.18-.05-.36-.07-.55s-.09-.67-.13-1-.07-.56-.1-.84-.07-.72-.11-1.08C19,45.24,19,44.63,18.93,44v-.07c0-.35-.05-.69-.08-1s-.06-.9-.08-1.36-.05-.88-.07-1.32,0-.79-.05-1.19V39c0-.23,0-.46,0-.7a2.44,2.44,0,0,1,0-.27c0-.19,0-.37,0-.56,0-.38,0-.76,0-1.15,0-1,0-1.94,0-2.94v-.06a2.79,2.79,0,0,1,0-.42v-.23c0-.06,0-.12,0-.19s0-.2,0-.3v0a2.51,2.51,0,0,1,0-.27c0-.1,0-.21,0-.31l0-.15c0-.15.06-.3.09-.46s.05-.2.08-.31l.09-.32c0-.06,0-.13.07-.2s0-.08,0-.12l.09-.26c0-.08.07-.16.11-.25l.07-.16.16-.33a3.54,3.54,0,0,1,.19-.33.16.16,0,0,1,0-.07l.16-.26A1,1,0,0,1,20,28.2l0-.06a3.24,3.24,0,0,1,.24-.31h0l.05-.06.21-.24h0l.28-.29h0l.26-.23a.52.52,0,0,1,.11-.1l0,0a.18.18,0,0,0,.07-.05l.21-.15.39-.25a2.22,2.22,0,0,1,.37-.21l.11-.05.12-.07L22.7,26l.11-.05.28-.1.21-.08.31-.1.44-.12.09,0,.09,0,.13,0,.39-.07.2,0,.21,0h0l.23,0,.18,0,.44,0a16.53,16.53,0,0,1,3.47.29h.21l.26,0,.29,0h.07l.42,0,1,.15h0l.62.09.43.07.34.05.27,0h.08l.45.07.48.08.18,0h.1l.1,0,.1,0h0l.3.06.83.14.46.08.95.17h.09l.63.12.49.1h.06l.24.05.53.1.54.11.16,0,.33.07c.92.18,1.88.38,2.88.61l1.27.28c1.11.25,2.27.52,3.46.82l1.19.3,1.36.35c1,.27,2.1.56,3.17.87l.26.08L55,31l.1,0,1.86.55.16.05.47.15c.88.27,1.76.55,2.65.85.66.21,1.33.44,2,.68l1,.35,1,.36.35.13,1.68.63c.58.21,1.15.44,1.73.67l.31.12.41.17,1,.39,1.35.57,1.36.59h.07l0,0,.06,0,.16.07.11.06.27.15.15.09.16.1.18.11.18.13.06,0,.26.19.27.21.21.18.21.19.22.2c.07.07.15.14.22.22l.15.16c.11.11.21.22.31.34s.17.19.24.29a5.3,5.3,0,0,1,.34.45,2,2,0,0,1,.17.23l.16.24.15.23c0,.08.1.16.14.24l.06.09,0,.08,0,.09.13.24a.61.61,0,0,0,.07.14l.19.39s0,.07,0,.11a4.89,4.89,0,0,1,.2.46l.21.57h0c0,.16.11.31.15.48l0,0h0l.12.46s0,0,0,0a.57.57,0,0,1,0,.14l0,.14h0a0,0,0,0,1,0,0s0,0,0,0h0c0,.18.08.35.11.54h0c0,.22.07.43.11.66l.09.83c0,.23,0,.48,0,.73h0c0,.27,0,.53,0,.8,0,.58,0,1.18-.09,1.82v.08q0,.11,0,.36c0,.05,0,.12,0,.19s0,.29,0,.46,0,.38-.06.6-.08.75-.13,1.19c0,.21-.05.42-.08.65,0,0,0,.07,0,.1l-.06.47,0,.25c-.11.84-.24,1.78-.4,2.81q-.06.36-.12.75c0,.33-.11.66-.17,1l-.09.52-.09.52c-.07.4-.15.81-.23,1.23s-.22,1.12-.35,1.71c-.08.39-.16.78-.25,1.19,0,.21-.1.43-.16.65s-.1.49-.17.74-.12.5-.18.75a.09.09,0,0,1,0,0l-.18.7c-.14.58-.3,1.16-.46,1.74L75,70c-.09.32-.19.64-.29,1,0,.16-.09.32-.14.47l-.15.48c-.1.32-.2.63-.31.94S73.87,73.54,73.75,73.86Z"/>
        <path class="cls-8" d="M77.22,84.84c-.73,1.15-1.51,2.27-2.33,3.38A21.49,21.49,0,0,1,64.53,96a27.43,27.43,0,0,1-7.57.65l0-.1A22.63,22.63,0,0,0,64.52,91h0c.38-.42.74-.85,1.1-1.29A67.55,67.55,0,0,0,73.9,76.06Z"/>
      </g>
    </g>
  </g>
</svg>
