<svg xmlns="http://www.w3.org/2000/svg" xmlns:xlink="http://www.w3.org/1999/xlink" width="239" height="220" viewBox="0 0 239 220">
  <defs>
    <style>
      .cls-1 {
        mask: url(#mask);
        filter: url(#luminosity-noclip-6);
      }

      .cls-10, .cls-16, .cls-2, .cls-20, .cls-22, .cls-34, .cls-36, .cls-4, .cls-6, .cls-8 {
        mix-blend-mode: multiply;
      }

      .cls-2 {
        fill: url(#radial-gradient);
      }

      .cls-3 {
        mask: url(#mask-2);
        filter: url(#luminosity-noclip-7);
      }

      .cls-4 {
        fill: url(#radial-gradient-2);
      }

      .cls-5 {
        mask: url(#mask-3);
        filter: url(#luminosity-noclip-8);
      }

      .cls-6 {
        fill: url(#radial-gradient-3);
      }

      .cls-7 {
        mask: url(#mask-4);
        filter: url(#luminosity-noclip-10);
      }

      .cls-8 {
        fill: url(#radial-gradient-4);
      }

      .cls-9 {
        mask: url(#mask-5);
        filter: url(#luminosity-noclip-11);
      }

      .cls-10 {
        fill: url(#radial-gradient-5);
      }

      .cls-11 {
        isolation: isolate;
      }

      .cls-12 {
        fill: #050505;
        opacity: 0.5;
      }

      .cls-13 {
        fill: #fff;
      }

      .cls-14 {
        fill: url(#linear-gradient);
      }

      .cls-15 {
        mask: url(#mask-6);
      }

      .cls-16, .cls-20, .cls-22, .cls-34, .cls-36 {
        opacity: 0.6;
      }

      .cls-16 {
        fill: url(#radial-gradient-6);
      }

      .cls-17, .cls-18 {
        stroke: #686b6b;
        stroke-miterlimit: 10;
      }

      .cls-17 {
        stroke-width: 2px;
        fill: url(#linear-gradient-2);
      }

      .cls-18, .cls-29 {
        fill: #f1f2f2;
      }

      .cls-19 {
        mask: url(#mask-7);
      }

      .cls-20 {
        fill: url(#radial-gradient-7);
      }

      .cls-21 {
        mask: url(#mask-8);
      }

      .cls-22 {
        fill: url(#radial-gradient-8);
      }

      .cls-23 {
        fill: url(#linear-gradient-3);
      }

      .cls-24, .cls-37 {
        fill: #4a4a4c;
      }

      .cls-25, .cls-26 {
        fill: #e6e7e8;
      }

      .cls-26 {
        font-size: 4.45px;
        font-family: PTSans-Regular, PTSans Regular;
      }

      .cls-27 {
        letter-spacing: -0.02em;
      }

      .cls-28 {
        letter-spacing: 0em;
      }

      .cls-30 {
        mask: url(#mask-9);
      }

      .cls-31 {
        fill: #414042;
        opacity: 0.22;
      }

      .cls-32 {
        fill: url(#linear-gradient-4);
      }

      .cls-33 {
        mask: url(#mask-10);
      }

      .cls-34 {
        fill: url(#radial-gradient-9);
      }

      .cls-35 {
        mask: url(#mask-11);
      }

      .cls-36 {
        fill: url(#radial-gradient-10);
      }

      .cls-37 {
        opacity: 0.34;
      }

      .cls-38, .cls-39 {
        opacity: 0.55;
      }

      .cls-40 {
        filter: url(#luminosity-noclip-9);
      }

      .cls-41 {
        filter: url(#luminosity-noclip-5);
      }

      .cls-42 {
        filter: url(#luminosity-noclip-4);
      }

      .cls-43 {
        filter: url(#luminosity-noclip-3);
      }

      .cls-44 {
        filter: url(#luminosity-noclip-2);
      }

      .cls-45 {
        filter: url(#luminosity-noclip);
      }
    </style>
    <filter id="luminosity-noclip" x="13.35" y="-11373.45" width="176.77" height="32766" filterUnits="userSpaceOnUse" color-interpolation-filters="sRGB">
      <feFlood flood-color="#fff" result="bg"/>
      <feBlend in="SourceGraphic" in2="bg"/>
    </filter>
    <mask id="mask" x="13.35" y="-11373.45" width="176.77" height="32766" maskUnits="userSpaceOnUse">
      <g class="cls-45"/>
    </mask>
    <radialGradient id="radial-gradient" cx="1285.49" cy="-2489.54" r="30.92" gradientTransform="matrix(2.86, -0.4, 0.02, 0.15, -3520.66, 940.27)" gradientUnits="userSpaceOnUse">
      <stop offset="0" stop-color="#fff"/>
      <stop offset="0.11" stop-color="#e9e9e9"/>
      <stop offset="0.35" stop-color="#b2b2b2"/>
      <stop offset="0.69" stop-color="#595959"/>
      <stop offset="1"/>
    </radialGradient>
    <filter id="luminosity-noclip-2" x="55.11" y="-11373.45" width="11.06" height="32766" filterUnits="userSpaceOnUse" color-interpolation-filters="sRGB">
      <feFlood flood-color="#fff" result="bg"/>
      <feBlend in="SourceGraphic" in2="bg"/>
    </filter>
    <mask id="mask-2" x="55.11" y="-11373.45" width="11.06" height="32766" maskUnits="userSpaceOnUse">
      <g class="cls-44"/>
    </mask>
    <radialGradient id="radial-gradient-2" cx="-3066.97" cy="18157.5" r="30.92" gradientTransform="matrix(0.1, 0.71, -0.15, 0.02, 3060.99, 1902.94)" xlink:href="#radial-gradient"/>
    <filter id="luminosity-noclip-3" x="21.18" y="-11373.45" width="44.24" height="32766" filterUnits="userSpaceOnUse" color-interpolation-filters="sRGB">
      <feFlood flood-color="#fff" result="bg"/>
      <feBlend in="SourceGraphic" in2="bg"/>
    </filter>
    <mask id="mask-3" x="21.18" y="-11373.45" width="44.24" height="32766" maskUnits="userSpaceOnUse">
      <g class="cls-43"/>
    </mask>
    <radialGradient id="radial-gradient-3" cx="1367.75" cy="-2210.17" r="30.92" gradientTransform="matrix(0.71, -0.1, 0.02, 0.15, -888.89, 573.23)" xlink:href="#radial-gradient"/>
    <filter id="luminosity-noclip-4" x="52.32" y="-11373.45" width="170.59" height="32766" filterUnits="userSpaceOnUse" color-interpolation-filters="sRGB">
      <feFlood flood-color="#fff" result="bg"/>
      <feBlend in="SourceGraphic" in2="bg"/>
    </filter>
    <mask id="mask-4" x="52.32" y="-11373.45" width="170.59" height="32766" maskUnits="userSpaceOnUse">
      <g class="cls-42"/>
    </mask>
    <radialGradient id="radial-gradient-4" cx="920.48" cy="-2938.38" r="30.12" gradientTransform="matrix(2.83, 0.56, -0.03, 0.15, -2553.47, -51.48)" xlink:href="#radial-gradient"/>
    <filter id="luminosity-noclip-5" x="194.2" y="-11373.45" width="27.4" height="32766" filterUnits="userSpaceOnUse" color-interpolation-filters="sRGB">
      <feFlood flood-color="#fff" result="bg"/>
      <feBlend in="SourceGraphic" in2="bg"/>
    </filter>
    <mask id="mask-5" x="194.2" y="-11373.45" width="27.4" height="32766" maskUnits="userSpaceOnUse">
      <g class="cls-41"/>
    </mask>
    <radialGradient id="radial-gradient-5" cx="2887.72" cy="12615" r="30.12" gradientTransform="matrix(0.43, -2.19, 0.15, 0.03, -2889.09, 6054.54)" xlink:href="#radial-gradient"/>
    <linearGradient id="linear-gradient" x1="428.91" y1="177.03" x2="610.42" y2="177.03" gradientTransform="matrix(0.99, -0.14, 0.14, 0.99, -427.91, 20.23)" gradientUnits="userSpaceOnUse">
      <stop offset="0" stop-color="#939598"/>
      <stop offset="1" stop-color="#a7a9ac"/>
    </linearGradient>
    <filter id="luminosity-noclip-6" x="13.35" y="45.27" width="176.77" height="26.31" filterUnits="userSpaceOnUse" color-interpolation-filters="sRGB">
      <feFlood flood-color="#fff" result="bg"/>
      <feBlend in="SourceGraphic" in2="bg"/>
    </filter>
    <mask id="mask-6" x="13.35" y="45.27" width="176.77" height="26.31" maskUnits="userSpaceOnUse">
      <g class="cls-1">
        <path class="cls-2" d="M190.12,46.1c-.36-2.53-40.22.93-89,7.74S13,68.22,13.35,70.76s40.21-.93,89-7.74S190.47,48.64,190.12,46.1Z"/>
      </g>
    </mask>
    <radialGradient id="radial-gradient-6" cx="1285.49" cy="-2489.54" r="30.92" gradientTransform="matrix(2.86, -0.4, 0.02, 0.15, -3520.66, 940.27)" gradientUnits="userSpaceOnUse">
      <stop offset="0" stop-color="#666"/>
      <stop offset="0.19" stop-color="#7c7c7c"/>
      <stop offset="0.59" stop-color="#b3b3b3"/>
      <stop offset="1" stop-color="#f2f2f2"/>
    </radialGradient>
    <linearGradient id="linear-gradient-2" x1="481.36" y1="135.49" x2="429.84" y2="72.17" gradientTransform="translate(-408.15 -52.87)" gradientUnits="userSpaceOnUse">
      <stop offset="0" stop-color="#d1d3d4"/>
      <stop offset="0.59" stop-color="#f1f2f2"/>
    </linearGradient>
    <filter id="luminosity-noclip-7" x="55.11" y="63.79" width="11.06" height="44.24" filterUnits="userSpaceOnUse" color-interpolation-filters="sRGB">
      <feFlood flood-color="#fff" result="bg"/>
      <feBlend in="SourceGraphic" in2="bg"/>
    </filter>
    <mask id="mask-7" x="55.11" y="63.79" width="11.06" height="44.24" maskUnits="userSpaceOnUse">
      <g class="cls-3">
        <path class="cls-4" d="M63.72,108c2.54-.36,3.21-10.54,1.51-22.76S60.09,63.45,57.55,63.8s-3.2,10.54-1.5,22.75S61.19,108.38,63.72,108Z"/>
      </g>
    </mask>
    <radialGradient id="radial-gradient-7" cx="-3066.97" cy="18157.5" r="30.92" gradientTransform="matrix(0.1, 0.71, -0.15, 0.02, 3060.99, 1902.94)" xlink:href="#radial-gradient-6"/>
    <filter id="luminosity-noclip-8" x="21.18" y="103.34" width="44.24" height="11.06" filterUnits="userSpaceOnUse" color-interpolation-filters="sRGB">
      <feFlood flood-color="#fff" result="bg"/>
      <feBlend in="SourceGraphic" in2="bg"/>
    </filter>
    <mask id="mask-8" x="21.18" y="103.34" width="44.24" height="11.06" maskUnits="userSpaceOnUse">
      <g class="cls-5">
        <path class="cls-6" d="M65.41,105.79c-.35-2.54-10.54-3.21-22.75-1.51S20.83,109.42,21.19,112s10.54,3.21,22.75,1.5S65.76,108.32,65.41,105.79Z"/>
      </g>
    </mask>
    <radialGradient id="radial-gradient-8" cx="1367.75" cy="-2210.17" r="30.92" gradientTransform="matrix(0.71, -0.1, 0.02, 0.15, -888.89, 573.23)" xlink:href="#radial-gradient-6"/>
    <linearGradient id="linear-gradient-3" x1="469.79" y1="156.93" x2="449.97" y2="131.82" gradientTransform="matrix(0.99, -0.14, 0.14, 0.99, -427.91, 20.23)" gradientUnits="userSpaceOnUse">
      <stop offset="0" stop-color="#fff"/>
      <stop offset="0.77" stop-color="#f1f2f2"/>
      <stop offset="0.87" stop-color="#e6e7e8"/>
      <stop offset="1" stop-color="#d1d3d4"/>
    </linearGradient>
    <filter id="luminosity-noclip-9" x="23.17" y="-11373.45" width="26.06" height="32766" filterUnits="userSpaceOnUse" color-interpolation-filters="sRGB">
      <feFlood flood-color="#fff" result="bg"/>
      <feBlend in="SourceGraphic" in2="bg"/>
    </filter>
    <mask id="mask-9" x="23.17" y="-11373.45" width="26.06" height="32766" maskUnits="userSpaceOnUse">
      <g class="cls-40"/>
    </mask>
    <linearGradient id="linear-gradient-4" x1="-622.53" y1="108.12" x2="-445.72" y2="108.12" gradientTransform="translate(670.5 90.05) rotate(11.14)" xlink:href="#linear-gradient"/>
    <filter id="luminosity-noclip-10" x="52.32" y="12.38" width="170.59" height="34.74" filterUnits="userSpaceOnUse" color-interpolation-filters="sRGB">
      <feFlood flood-color="#fff" result="bg"/>
      <feBlend in="SourceGraphic" in2="bg"/>
    </filter>
    <mask id="mask-10" x="52.32" y="12.38" width="170.59" height="34.74" maskUnits="userSpaceOnUse">
      <g class="cls-7">
        <path class="cls-8" d="M222.9,46.54c.49-2.44-37.31-11.94-84.42-21.22S52.8,10.51,52.32,13,89.64,24.9,136.74,34.18,222.42,49,222.9,46.54Z"/>
      </g>
    </mask>
    <radialGradient id="radial-gradient-9" cx="920.48" cy="-2938.38" r="30.12" gradientTransform="matrix(2.83, 0.56, -0.03, 0.15, -2553.47, -51.48)" xlink:href="#radial-gradient-6"/>
    <filter id="luminosity-noclip-11" x="194.2" y="42.73" width="27.4" height="131.67" filterUnits="userSpaceOnUse" color-interpolation-filters="sRGB">
      <feFlood flood-color="#fff" result="bg"/>
      <feBlend in="SourceGraphic" in2="bg"/>
    </filter>
    <mask id="mask-11" x="194.2" y="42.73" width="27.4" height="131.67" maskUnits="userSpaceOnUse">
      <g class="cls-9">
        <path class="cls-10" d="M220.86,42.74c-2.44-.48-10.23,28.6-17.39,65s-11,66.22-8.53,66.7,10.23-28.6,17.39-65S223.31,43.22,220.86,42.74Z"/>
      </g>
    </mask>
    <radialGradient id="radial-gradient-10" cx="2887.72" cy="12615" r="30.12" gradientTransform="matrix(0.43, -2.19, 0.15, 0.03, -2889.09, 6054.54)" xlink:href="#radial-gradient-6"/>
  </defs>
  <g class="cls-11">
    <g id="Layer_1" data-name="Layer 1">
      <g>
        <path class="cls-12" d="M32.47,219.78a8,8,0,0,1-7.92-6.89L5.56,76.75a8,8,0,0,1,3.27-7.61,7.73,7.73,0,0,1,1.34-2.73,8,8,0,0,1,5.27-3.1l17.19-2.4A397.36,397.36,0,0,1,43.9,20.51L45,14.76a8,8,0,0,1,3.39-5.1c.23-.15.47-.29.71-.42A7.59,7.59,0,0,1,51,8.11a8,8,0,0,1,6.14-2.89,7.5,7.5,0,0,1,1.56.15L232.06,39.51a8,8,0,0,1,6.3,9.39s-12,61.47-19.63,100.06l.09.6c5.24,37.57,3.7,39.33,1.16,42.25a8.2,8.2,0,0,1-6.18,2.83h-.41L33.58,219.71A8.38,8.38,0,0,1,32.47,219.78Z"/>
        <path class="cls-13" d="M27.47,214.78a8,8,0,0,1-7.92-6.89L.56,71.75a8,8,0,0,1,3.27-7.61,7.73,7.73,0,0,1,1.34-2.73,8,8,0,0,1,5.27-3.1l17.19-2.4A397.36,397.36,0,0,1,38.9,15.51L40,9.76a8,8,0,0,1,3.39-5.1c.23-.15.47-.29.71-.42A7.59,7.59,0,0,1,46,3.11,8,8,0,0,1,52.09.22a7.5,7.5,0,0,1,1.56.15L227.06,34.51a8,8,0,0,1,6.3,9.39s-12,61.47-19.63,100.06l.09.6c5.24,37.57,3.7,39.33,1.16,42.25a8.2,8.2,0,0,1-6.18,2.83h-.41L28.58,214.71A8.38,8.38,0,0,1,27.47,214.78Z"/>
        <g id="newspaper">
          <g>
            <g>
              <path class="cls-14" d="M208.6,181.52s2.86,4.08-2.71-35.85-14.65-104.5-14.65-104.5L11.55,66.23,31.08,206.28Z"/>
              <g class="cls-15">
                <path class="cls-16" d="M190.12,46.1c-.36-2.53-40.22.93-89,7.74S13,68.22,13.35,70.76s40.21-.93,89-7.74S190.47,48.64,190.12,46.1Z"/>
              </g>
              <g>
                <rect class="cls-17" x="17.1" y="57.35" width="182.88" height="137.46" transform="translate(-16.38 16.2) rotate(-7.94)"/>
                <polygon class="cls-18" points="208.6 181.52 27.48 206.78 14.69 115.13 43.38 93.67 58.73 63.64 189.62 45.38 208.6 181.52"/>
                <g>
                  <g class="cls-19">
                    <path class="cls-20" d="M63.72,108c2.54-.36,3.21-10.54,1.51-22.76S60.09,63.45,57.55,63.8s-3.2,10.54-1.5,22.75S61.19,108.38,63.72,108Z"/>
                  </g>
                  <g class="cls-21">
                    <path class="cls-22" d="M65.41,105.79c-.35-2.54-10.54-3.21-22.75-1.51S20.83,109.42,21.19,112s10.54,3.21,22.75,1.5S65.76,108.32,65.41,105.79Z"/>
                  </g>
                  <polygon class="cls-23" points="58.73 63.64 64.94 108.12 14.69 115.13 58.73 63.64"/>
                </g>
                <g>
                  <rect class="cls-24" x="154.92" y="48.24" width="30.81" height="34.54" transform="translate(-7.42 24.16) rotate(-7.94)"/>
                  <g>
                    <path class="cls-25" d="M164.56,77.25l-.46.06c-.74.1-1.56.49-1.46,1.23l.07.47c.1.73,1,1.11,1.77,1l.46-.07a1.38,1.38,0,0,0,1.29-1.44l-.07-.46C166.06,77.31,165.3,77.14,164.56,77.25Z"/>
                    <path class="cls-25" d="M167.57,73.51l-.47.07c-.74.1-1.21.54-1.1,1.28l.5,3.62a1.2,1.2,0,0,0,1.43,1.06l.47-.07A1.44,1.44,0,0,0,169.75,78l-.5-3.61C169.14,73.67,168.31,73.41,167.57,73.51Z"/>
                    <path class="cls-25" d="M171,70.27l-.35,0A1.55,1.55,0,0,0,169.46,72l.83,5.91A1.37,1.37,0,0,0,171.88,79l.35,0a1.2,1.2,0,0,0,1-1.45l-.82-5.92A1.38,1.38,0,0,0,171,70.27Z"/>
                    <path class="cls-25" d="M174.51,66.78h.29a1.36,1.36,0,0,1,1.36,1.36v9a1.36,1.36,0,0,1-1.36,1.36h-.3a1.35,1.35,0,0,1-1.35-1.35v-9a1.36,1.36,0,0,1,1.36-1.36Z" transform="translate(-8.35 24.77) rotate(-7.92)"/>
                    <path class="cls-25" d="M177.27,63.05l-.27,0a1.39,1.39,0,0,0-1.11,1.59l1.69,12.1a1.36,1.36,0,0,0,1.5,1.2l.27,0a1.45,1.45,0,0,0,1.21-1.58l-1.69-12.09A1.48,1.48,0,0,0,177.27,63.05Z"/>
                    <path class="cls-25" d="M177.34,54.73a1.09,1.09,0,0,0-1.4-.32l-4.38,2.43a1.06,1.06,0,0,0-.42,1.45,1.08,1.08,0,0,0,1.09.55,1.09,1.09,0,0,0,.37-.13l1.66-.92a33.79,33.79,0,0,1-12.4,12.62,1.07,1.07,0,0,0,.65,2,1.93,1.93,0,0,0,.41-.12,37.18,37.18,0,0,0,12.83-12.62l.14,1a1.24,1.24,0,0,0,2.43-.34l-.69-4.95h0A1.24,1.24,0,0,0,177.34,54.73Z"/>
                  </g>
                  <rect class="cls-25" x="155.64" y="53.66" width="25.83" height="0.47" transform="translate(-5.83 23.8) rotate(-7.94)"/>
                  <text class="cls-26" transform="translate(155.88 54.65) rotate(-7.94)">N<tspan class="cls-27" x="2.93" y="0">o</tspan><tspan class="cls-28" x="5.26" y="0">.</tspan></text>
                  <rect class="cls-25" x="158.16" y="87.43" width="0.26" height="5.39" transform="translate(-10.94 22.75) rotate(-7.95)"/>
                </g>
              </g>
              <g>
                <g>
                  <rect class="cls-24" x="82.94" y="112.75" width="0.59" height="82.59" transform="translate(-20.48 12.97) rotate(-7.94)"/>
                  <rect class="cls-24" x="139.81" y="104.81" width="0.59" height="82.59" transform="translate(-18.76 20.65) rotate(-7.9)"/>
                </g>
                <rect class="cls-24" x="89.7" y="169.62" width="49.85" height="0.29" transform="translate(-22.35 17.46) rotate(-7.94)"/>
              </g>
              <rect class="cls-24" x="141.29" y="100.89" width="50.88" height="38.05" transform="matrix(0.99, -0.14, 0.14, 0.99, -14.97, 24.18)"/>
              <g>
                <rect class="cls-24" x="24.5" y="126.64" width="49.67" height="0.39" transform="translate(-17.05 8.03) rotate(-7.94)"/>
                <rect class="cls-24" x="27.93" y="128.16" width="49.56" height="49.16" transform="translate(-20.59 8.74) rotate(-7.94)"/>
              </g>
              <g>
                <g>
                  <path class="cls-29" d="M162.45,109.75a13.06,13.06,0,1,0,14.73,11.13A13.06,13.06,0,0,0,162.45,109.75Zm3.14,22.51a9.67,9.67,0,1,1,8.24-10.91A9.67,9.67,0,0,1,165.59,132.26Z"/>
                  <path class="cls-29" d="M163.4,116.58a6.16,6.16,0,1,0,7,5.25A6.16,6.16,0,0,0,163.4,116.58Zm1.21,8.68a2.6,2.6,0,1,1,2.22-2.94A2.6,2.6,0,0,1,164.61,125.26Z"/>
                </g>
                <g>
                  <polygon class="cls-29" points="172.45 111.72 170.95 108.23 175.56 102.13 177.06 105.61 172.45 111.72"/>
                  <polygon class="cls-29" points="172.44 111.71 176.19 112.19 180.8 106.09 177.05 105.61 172.44 111.71"/>
                </g>
                <rect class="cls-29" x="159.94" y="113.85" width="19.82" height="2.6" transform="translate(-24.38 181.34) rotate(-52.95)"/>
              </g>
            </g>
            <g>
              <g class="cls-30">
                <path class="cls-31" d="M49.23,10.4A370.23,370.23,0,0,0,31.86,75.74c-6.46,37.55-8.69,67.17-8.69,67.17A555.71,555.71,0,0,0,38.52,77.22C45,39.67,49.23,10.4,49.23,10.4Z"/>
              </g>
              <g>
                <path class="cls-32" d="M196.8,177.1s1.34,4.66,8.92-33.87S225.51,42.36,225.51,42.36L52.1,8.22,25.49,143.37Z"/>
                <g class="cls-33">
                  <path class="cls-34" d="M222.9,46.54c.49-2.44-37.31-11.94-84.42-21.22S52.8,10.51,52.32,13,89.64,24.9,136.74,34.18,222.42,49,222.9,46.54Z"/>
                </g>
                <g class="cls-35">
                  <path class="cls-36" d="M220.86,42.74c-2.44-.48-10.23,28.6-17.39,65s-11,66.22-8.53,66.7,10.23-28.6,17.39-65S223.31,43.22,220.86,42.74Z"/>
                </g>
                <g>
                  <rect class="cls-18" x="55.39" y="5.13" width="133.9" height="178.15" transform="translate(6.28 196.04) rotate(-78.86)"/>
                  <polygon class="cls-29" points="196.8 177.1 22.01 142.68 39.42 54.24 72.67 43.62 96.36 20.85 222.67 45.72 196.8 177.1"/>
                  <polygon class="cls-31" points="96.36 20.85 87.91 63.78 39.42 54.24 96.36 20.85"/>
                  <g>
                    <rect class="cls-24" x="181.68" y="43.1" width="33.65" height="30.01" transform="translate(103.15 241.65) rotate(-78.86)"/>
                    <rect class="cls-24" x="148.34" y="12.86" width="6.47" height="116.82" transform="translate(52.37 206.23) rotate(-78.86)"/>
                    <rect class="cls-24" x="150.24" y="17.62" width="0.81" height="116.82" transform="translate(46.94 209.15) rotate(-78.86)"/>
                    <g>
                      <path class="cls-25" d="M189.46,67.08,189,67c-.71-.14-1.59,0-1.73.67l-.08.45c-.15.71.58,1.35,1.3,1.49l.45.09a1.34,1.34,0,0,0,1.64-.91l.09-.45C190.82,67.61,190.18,67.22,189.46,67.08Z"/>
                      <path class="cls-25" d="M193.41,64.6l-.44-.09a1.08,1.08,0,0,0-1.43.83l-.69,3.49a1.17,1.17,0,0,0,1,1.43l.45.09a1.41,1.41,0,0,0,1.71-.9l.69-3.49C194.82,65.25,194.13,64.74,193.41,64.6Z"/>
                      <path class="cls-25" d="M197.63,62.71l-.34-.06a1.49,1.49,0,0,0-1.65,1.15l-1.12,5.71a1.33,1.33,0,0,0,1.12,1.5l.34.07a1.17,1.17,0,0,0,1.41-1l1.13-5.71A1.34,1.34,0,0,0,197.63,62.71Z"/>
                      <path class="cls-25" d="M202.5,62a1.32,1.32,0,0,0-1-1.56l-.29,0a1.32,1.32,0,0,0-1.55,1l-1.7,8.65a1.32,1.32,0,0,0,1,1.55l.28,0a1.31,1.31,0,0,0,1.55-1Z"/>
                      <path class="cls-25" d="M205.68,58.06l-.26-.06a1.36,1.36,0,0,0-1.53,1.12L201.6,70.79a1.32,1.32,0,0,0,1,1.59l.26.05a1.41,1.41,0,0,0,1.62-1.07l2.3-11.67A1.43,1.43,0,0,0,205.68,58.06Z"/>
                      <path class="cls-25" d="M208.4,50.42a1.08,1.08,0,0,0-1.2-.74l-4.8.84a1,1,0,0,0,0,2,.81.81,0,0,0,.38,0l1.82-.32a33,33,0,0,1-15.43,7.68,1,1,0,0,0,0,2,1.41,1.41,0,0,0,.41,0,36.21,36.21,0,0,0,15.83-7.53l-.19,1a1.19,1.19,0,0,0,1,1.25,1.2,1.2,0,0,0,1.38-.79l.94-4.78h0A1.35,1.35,0,0,0,208.4,50.42Z"/>
                    </g>
                    <rect class="cls-25" x="200.34" y="34.27" width="0.45" height="25.16" transform="translate(115.85 234.59) rotate(-78.86)"/>
                    <rect class="cls-25" x="176.95" y="76.81" width="5.25" height="0.25" transform="translate(69.45 238.31) rotate(-78.88)"/>
                  </g>
                </g>
                <g>
                  <g>
                    <rect class="cls-24" x="49.91" y="111.6" width="80.46" height="0.57" transform="translate(-37.01 178.8) rotate(-78.9)"/>
                    <rect class="cls-24" x="104.79" y="122.4" width="80.46" height="0.57" transform="translate(-3.31 241.36) rotate(-78.89)"/>
                  </g>
                  <rect class="cls-24" x="113.88" y="112.08" width="0.29" height="48.56" transform="translate(-41.79 221.89) rotate(-78.86)"/>
                </g>
                <rect class="cls-24" x="159.34" y="82.27" width="37.07" height="49.57" transform="translate(38.48 260.89) rotate(-78.86)"/>
                <g>
                  <rect class="cls-24" x="67.4" y="51.85" width="0.38" height="48.38" transform="translate(-20.08 127.67) rotate(-78.86)"/>
                  <rect class="cls-24" x="38.5" y="76.83" width="47.89" height="48.27" transform="translate(-48.68 142.73) rotate(-78.86)"/>
                  <rect class="cls-37" x="92.83" y="82.08" width="53.12" height="48.27" transform="translate(-7.9 202.84) rotate(-78.86)"/>
                  <rect class="cls-37" x="151.06" y="122.45" width="37.93" height="48.27" transform="translate(-6.65 285.09) rotate(-78.86)"/>
                  <rect class="cls-37" x="46.16" y="113" width="17.11" height="48.27" transform="translate(-90.41 164.33) rotate(-78.86)"/>
                </g>
                <g>
                  <g>
                    <path class="cls-29" d="M177.16,96.33a12.72,12.72,0,1,0,10,14.94A12.71,12.71,0,0,0,177.16,96.33Zm-4.27,21.72A9.42,9.42,0,1,1,184,110.63,9.42,9.42,0,0,1,172.89,118.05Z"/>
                    <path class="cls-29" d="M175.87,102.92a6,6,0,1,0,4.73,7A6,6,0,0,0,175.87,102.92Zm-1.65,8.37a2.53,2.53,0,1,1,3-2A2.53,2.53,0,0,1,174.22,111.29Z"/>
                  </g>
                  <g>
                    <polygon class="cls-29" points="185.74 101.32 185.48 97.64 191.66 93.49 191.93 97.17 185.74 101.32"/>
                    <polygon class="cls-29" points="185.74 101.31 189.04 102.95 195.23 98.8 191.92 97.16 185.74 101.31"/>
                  </g>
                  <rect class="cls-29" x="172.61" y="102.39" width="19.31" height="2.53" transform="matrix(0.83, -0.56, 0.56, 0.83, -26.84, 119.2)"/>
                </g>
              </g>
            </g>
          </g>
          <g class="cls-38">
            <g>
              <path d="M106.8,37.75l.11-.21a6.37,6.37,0,0,1,3.91-.6,4.74,4.74,0,0,1,3.64,3.19,4.78,4.78,0,0,1,.45,3.08,3.58,3.58,0,0,1-1.25,2,5,5,0,0,1,.54.9c.21.34.87.52,1.54.65a5.2,5.2,0,0,0,2.7-.23l1-5L117,41l-.64-2.39.28-.25L124.45,40l.64,2.38-.28.26L122.05,42l-2.77,14.07-.25.11L116.64,55l1.11-5.26a3.2,3.2,0,0,1-.54-.08A4.66,4.66,0,0,1,115,48.49l-.14,0a5.52,5.52,0,0,1-.11,1.18,4,4,0,0,1-5,3c-3.22-.65-5.21-3.91-6.57-8.86l.06-.14,1.31-.56c1.18,3.72,2.14,5.91,4.79,6.44,1.36.28,3.2-.41,3.51-2,.17-.82-.2-1.44-1.3-1.66a8.64,8.64,0,0,0-3.09.15l-1.1-2.81.15-.28a23,23,0,0,1,3.59-.24c1.13-.2,1.82-.73,2-1.48.11-.55,0-1.14-1.22-1.38a7.7,7.7,0,0,0-4,.6Z"/>
              <path d="M123.88,40.16l.29-.26L144.36,44l.64,2.39-.28.26L142,46.06l-2.77,14.06-.25.12L136.57,59l.77-3.5a3.32,3.32,0,0,1-1.63,0,5.81,5.81,0,0,1-3.29-2.3,5.36,5.36,0,0,1-1.19-4.16c.42-2.09,2.13-3.27,4.61-2.76a9.65,9.65,0,0,1,3.1,1.23l.41-2L131,43.85a22.59,22.59,0,0,1-.34,2.33,6.92,6.92,0,0,1-3.4,4.91c1.33,1.92,3.65,6.19,10.58,6.3l1.08,2.85A18.23,18.23,0,0,1,131.27,59c-1.5-.63-6-6.89-7.1-10.26a2.38,2.38,0,0,1-.06-1,1.54,1.54,0,0,1,.63-1,1.77,1.77,0,0,1,1.36-.11c.38.08.71.16,1.24.3a5,5,0,0,0,1-2.33c.08-.42.13-.84.17-1.28l-4-.8Zm14.72,9.26a7.52,7.52,0,0,0-1.17-.32c-1.75-.35-3.65.35-4,1.91-.19,1,.32,1.69,1.49,1.93a3.28,3.28,0,0,0,2.06-.25,1.92,1.92,0,0,0,1.24-1.56Z"/>
              <path d="M143.79,44.17l.29-.25,15,3,.64,2.39-.28.26L156.69,49l-2.77,14.06-.25.12L151.3,62l.72-3.28a6,6,0,0,1-3.16.22,5.75,5.75,0,0,1-4.06-3.29,5.28,5.28,0,0,1-.67-3.45c.42-2.09,2.34-3.52,5.63-2.86a16.67,16.67,0,0,1,3.87,1.4l.45-2.21-9.65-1.94Zm4.37,7.95a2.61,2.61,0,0,0-1.82,2c-.17.87.47,1.84,2.12,2.18a6.15,6.15,0,0,0,1.48.1Zm3.17,3.94a2.21,2.21,0,0,0,1.6-1.69l.31-1.57a11.11,11.11,0,0,0-2.32-.73,7.82,7.82,0,0,0-1.29-.16Z"/>
              <path d="M158.52,47.14l.29-.25,7.06,1.42.64,2.39-.28.25-2.76-.55L160.7,64.46l-.25.11-2.4-1.25,2.78-13.45-1.67-.34Z"/>
              <path d="M165.3,48.51l.28-.26,11.36,2.29.64,2.39-.28.26-3.64-.74a10.83,10.83,0,0,1-.22,2,6.2,6.2,0,0,1-4.64,5.19,19.8,19.8,0,0,0,5.06,5.06l-1.77,2.45-.23,0a25.38,25.38,0,0,1-5.71-9.21,4.22,4.22,0,0,1-.27-1.75,1.76,1.76,0,0,1,.44-.84,1.67,1.67,0,0,1,1.63-.36c.74.15,1.47.31,2,.46A3.91,3.91,0,0,0,171,53.16a4.81,4.81,0,0,0,.11-1.23l-5.13-1Z"/>
            </g>
          </g>
          <circle class="cls-39" cx="124.82" cy="55.8" r="1.52"/>
        </g>
      </g>
    </g>
  </g>
</svg>
