<svg id="Layer_1" data-name="Layer 1" xmlns="http://www.w3.org/2000/svg" width="346.47" height="363.62" viewBox="0 0 346.47 363.62">
  <defs>
    <style>
      .cls-1 {
        fill: #fffa4d;
      }

      .cls-1, .cls-10, .cls-11, .cls-12, .cls-14, .cls-15, .cls-16, .cls-17, .cls-18, .cls-19, .cls-20, .cls-22, .cls-23, .cls-24, .cls-25, .cls-26, .cls-27, .cls-28, .cls-29, .cls-3, .cls-30, .cls-31, .cls-4, .cls-5, .cls-6, .cls-7, .cls-8, .cls-9 {
        fill-rule: evenodd;
      }

      .cls-2 {
        opacity: 0.2;
      }

      .cls-3 {
        fill: #21110e;
      }

      .cls-4 {
        fill: #ff6a14;
      }

      .cls-5 {
        fill: #eb4600;
      }

      .cls-6 {
        fill: #f54f08;
      }

      .cls-7 {
        fill: #d64000;
      }

      .cls-8 {
        fill: #e02d00;
      }

      .cls-11, .cls-13, .cls-9 {
        fill: #ce7432;
      }

      .cls-10 {
        fill: #bc652a;
      }

      .cls-11, .cls-19 {
        stroke: #472411;
        stroke-miterlimit: 10;
      }

      .cls-12 {
        fill: #a63200;
      }

      .cls-14 {
        fill: #d88145;
      }

      .cls-15 {
        fill: #d46e1a;
      }

      .cls-16 {
        fill: #852d08;
      }

      .cls-17 {
        fill: #a14310;
      }

      .cls-18 {
        fill: #993d0c;
      }

      .cls-19 {
        fill: #ba5d11;
      }

      .cls-20 {
        fill: #913109;
      }

      .cls-21 {
        fill: #9e240b;
      }

      .cls-22 {
        fill: #331c17;
      }

      .cls-23 {
        fill: #241512;
      }

      .cls-24 {
        fill: #331d18;
      }

      .cls-25 {
        fill: #a3541f;
      }

      .cls-26 {
        fill: #54190a;
      }

      .cls-27 {
        fill: #d96b11;
      }

      .cls-28 {
        fill: #c42100;
      }

      .cls-29 {
        fill: #6b4913;
      }

      .cls-30 {
        fill: #8f3a15;
      }

      .cls-31 {
        fill: #942c00;
      }
    </style>
  </defs>
  <g>
    <path class="cls-1" d="M173.23,359.78c-43.27,0-84.07-1.36-114.87-3.83-15.15-1.22-27.11-2.64-35.55-4.24-7.66-1.45-19.25-3.64-19.25-12.9,0-8.7,10.31-11,15.86-12.21,4.84-1.07,11.26-2.08,19.13-3-1.33-11.72-.11-16.72,2.23-19.91,2.14-3.32,5-7.89,7.65-12a10.51,10.51,0,0,1,0-2.57,11.43,11.43,0,0,1,4.43-7.59,9.22,9.22,0,0,1,2-3.44,9,9,0,0,1,.58-3.9,9.13,9.13,0,0,1,2.69-3.75,9.18,9.18,0,0,1,2.9-4.93c3.5-8.8,8-19.87,11.63-27.56.62-1.39,1.25-2.7,2-4a29.83,29.83,0,0,1,4.2-6.66l.22-.23a21.36,21.36,0,0,1,3-3.18c2.92-3.07,6.35-6.74,7.18-9.14.33-1,1.46-5.57,2.56-10,4.63-18.79,9.51-37.88,13.94-48,0-1.92,0-5.1,0-9.38.11-11.91,7.75-15.84,12.32-18.2,3.52-1.82,4.47-2.4,5-5l11-50c-.31-1.89-.53-3.67-.67-5.32-.83-9.91,5.11-18,10-23a9.4,9.4,0,0,1,2.24-4.77,14.38,14.38,0,0,1,5.23-9.72,19.52,19.52,0,0,1,12.73-12.68c1.24-3.15,3.91-5.63,8-7.37a7.78,7.78,0,0,1,1.34-.44,7.84,7.84,0,0,1,.84-2.77,8,8,0,0,1,7.11-4.34,8.18,8.18,0,0,1,2.38.36c6.31,2,10,5.27,10.85,9.82A10.3,10.3,0,0,1,193,21a19.41,19.41,0,0,1,8.08,10.85,14.28,14.28,0,0,1,4.64,8.47,9.32,9.32,0,0,1,3.21,6.8c4.58,5,9.61,12.62,8.84,21.78-.11,1.26-.26,2.62-.47,4l11.29,51.17c.56,2.56,1.51,3.14,5,5,4.57,2.35,12.21,6.29,12.32,18.2,0,4.15,0,7.29,0,9.2,4.5,10,9.47,29.42,14.19,48.59,1.1,4.45,2.24,9,2.57,10,.84,2.43,4.33,6.16,7.27,9.25a22.61,22.61,0,0,1,2.9,3.07l.23.25a29.59,29.59,0,0,1,4.2,6.65c.7,1.33,1.34,2.65,2,4,3.6,7.68,8.12,18.73,11.61,27.53a9,9,0,0,1,2,2.5,9.21,9.21,0,0,1,.9,2.42,9.18,9.18,0,0,1,3.28,7.65,9.3,9.3,0,0,1,2,3.34,11.31,11.31,0,0,1,4.61,7.92,10,10,0,0,1-.06,2.51c2.7,4.24,5.5,8.63,7.54,11.79,2.43,3.3,3.62,8.27,2.2,20.28,6.29.85,11.44,1.76,15.37,2.71,4.62,1.12,14.23,3.45,14.23,11.83,0,9.26-11.59,11.45-19.25,12.9-8.45,1.6-20.41,3-35.56,4.24C257.3,358.42,216.51,359.78,173.23,359.78ZM126,221.19a50.43,50.43,0,0,0-3.57,9.4,77.76,77.76,0,0,1-10.68,24.34c1.92-.48,3.92-1,5.82-1.42,0-1-.07-2-.07-3.22,0-3.91,1.74-9,9.17-12.87V226.61A20.92,20.92,0,0,0,126,221.19Zm110.4,32.2,3,.71c-.94-1.49-1.95-3.18-3-5.06,0,.38,0,.75,0,1.13C236.48,251.33,236.46,252.41,236.42,253.39Zm-12.48-17.61a23.86,23.86,0,0,1,8.81,5.47,71.65,71.65,0,0,1-3.3-10.33,52.13,52.13,0,0,0-4.51-11,21.81,21.81,0,0,0-1,6.65Z"/>
    <g>
      <g class="cls-2">
        <ellipse cx="173.23" cy="338.81" rx="161.67" ry="12.97"/>
      </g>
      <path class="cls-3" d="M202.48,64.27l6.17,6.65,12.11,54.9c2.91,13.17,17.05,7.87,17.17,21.51.07,7,0,11.12,0,11.12H176.74v.08h-63s-.07-4.07,0-11.13c.12-13.64,14.26-8.34,17.17-21.5L143,71l6.17-6.65,26.54,8.2Z"/>
      <path class="cls-4" d="M140.44,241.31s-14.92,2.45-14.92,9,.86,9.39.86,9.39-17.9,4.08-20.88,5.3-4.69,7.76-4.69,7.76-36.64,12.65-41.75,20-5.12,26.12,3.4,34.28,86.92,20.41,92,19.59,27.69-.81,27.69-.81v-.05c6.65.1,14.55.3,17.32.74,5.11.82,83.51-11.43,92-19.59S299.1,300,294,292.68s-40.79-20.06-40.79-20.06-1.71-6.53-4.69-7.76-20.88-5.3-20.88-5.3.85-2.86.85-9.39-14.91-9-14.91-9l-36.83,8.42Z"/>
      <path class="cls-5" d="M170.34,313.13s48.85,15.57,64.85,17.73,21-2.81,20.31-5.62-10.16-11.24-5.18-11.46,19,8.22,20.75,6.7-.22-8.64,1.94-6.7,5.19,7.57,6.27,6.06-3.15-19.48-3.15-19.48l11.63,4.3-.5,27.08s-63.93,12-79.49,14.12S148.94,326.1,170.34,313.13Z"/>
      <path class="cls-6" d="M140.36,268.57q27.06,22.95,26.14,4.41a20.85,20.85,0,0,1-16.21-5.19q-20.11-19.26-19.24-17.07-5.67-1.16-4.67,9-69.12,32.79-65.79,44.64-3,26.85,32.85,28.1a38,38,0,0,1-5.62-24.21Q96.1,338,125.43,339.34q-8.85-21.55,6.49-16.43,32.36,20.64,59.75,20.94-48.58-21.25-52.48-41.48Q135.71,279.14,140.36,268.57Z"/>
      <path class="cls-7" d="M100.09,311.84s-2.38-8.43-.21-13-17.51-2.16-17.51-2.16S126,263.2,126.89,266.23s3.46,10.38,5.41,8.65a10.39,10.39,0,0,0,2.59-5l3.24,12.77s-3,15.77-3.46,22,5,14.7,5,14.7-10.81-8.21-19.46-11.45S100.09,311.84,100.09,311.84Z"/>
      <path class="cls-8" d="M138.13,282.67q-5.59-26.84,17.72-2.59Q136,265.08,138.13,282.67Z"/>
      <path class="cls-9" d="M110.49,294.14q14.64,12,38.35,7,4.26-23.12-14.17-20.73-13.93-1-20-11c-20.9-8.68-27.06-5-25,2.09-3.4,11.2-3.86,13.91,1.2,14.19A50.9,50.9,0,0,1,110.49,294.14Z"/>
      <path class="cls-9" d="M118.47,174.34s.41,17.3,7.9,28.84,8.32,19.1,8.32,23.43v20.9s16.22,13.34,21.63,16.94c2.29,1.53,7.24,2.21,12.2,2.5v0s2.69.14,6.37.15h.36c3.94,0,6.87-.15,6.87-.15v0c5-.29,9.91-1,12.19-2.5,5.41-3.6,21.63-16.94,21.63-16.94v-20.9c0-4.33.83-11.9,8.32-23.43s7.91-28.84,7.91-28.84c4.16-32.44-27-31.72-37-31.72s-8.32-18-8.32-18h-23s1.66,18-8.32,18S114.31,141.9,118.47,174.34Z"/>
      <path class="cls-10" d="M178.58,206.21q-.62,12.16,30.14,7.56,9.33-.84,13.49-14.21c.65,1,1.34,2,2.06,3.13a62.5,62.5,0,0,0-4.5,8c-4.07,8.78-24.44,8.94-36.74,5.71-6.82-1.79-6.84-10.8-5.68-25.65Z"/>
      <path class="cls-11" d="M128.07,201.58s-10.71,15.78-13.41,27.17-8,19.51-11.55,24.77c-3.17,4.71-25.43,28.43-30,33.27q8,17.34-6.37,22.68Q67.3,332.86,62,334.1q-1.85,4.36-5,1c-1.68,2.76-3.37,3.05-5.1.85-3-.12-4.41-1.49-4.12-4.13Q44.4,312,47.34,308.26q12-18.5,14.65-23.16s17.8-47.1,22.67-52.36S95,222.4,96.75,217.36s12.34-54.08,18.76-62,11-9.2,15.92-10.07,5.41-.88,5.41-.88"/>
      <path class="cls-12" d="M64.79,289.42l2.81,2.11a18,18,0,0,1,0,8.17A17.68,17.68,0,0,1,63.23,307L63,309.81l-1.3,23.09-1.09-20.37-2.91,0-.69,22.6s-2.65-22.83-1.9-22.93.05,1.1-1,1.15S52.62,336,52,335.93,53,312.28,52.22,310s-3.45-.64-3.9-.87,4-2.36,4.86-1.48l.88.87,8.22-2.44s6.17-5.43,5.68-7.38S64.79,289.42,64.79,289.42Z"/>
      <path class="cls-12" d="M60.55,289.5c5.18-3.32,15.52,7.44,2.68,17.45.18,5.34,2.76,18.44-5.08,17.17-2.51.15-5.72-6.79-4.94-14.33-3-3.88-4.76-2-4.76-2C53.15,300.35,60.55,289.5,60.55,289.5Z"/>
      <path class="cls-11" d="M222.52,200.6s12,17.08,14.71,28.47,8,19.51,11.55,24.77c3.17,4.71,25.43,28.44,30,33.28q-8,17.34,6.37,22.68-.53,23.37,4.73,24.62,1.84,4.38,5,1,2.52,4.16,5.1.85,4.55-.17,4.13-4.13,3.42-19.85.48-23.54-12-18.48-14.65-23.16s-17.79-47.1-22.66-52.35-10.35-10.35-12.09-15.39-12.35-54.07-18.76-62-11-9.19-15.93-10.07-5.41-.88-5.41-.88"/>
      <ellipse class="cls-13" cx="173.14" cy="164.22" rx="49.73" ry="18.62"/>
      <path class="cls-10" d="M173,206.52q.62,12.16-30.64,7.55-9.47-.84-13.7-14.21c-.66,1-1.36,2-2.09,3.14a63.22,63.22,0,0,1,4.58,7.95c4.12,8.78,24.83,8.94,37.32,5.71,6.94-1.79,6.95-10.8,5.77-25.65Z"/>
      <path class="cls-10" d="M132,212.61c-.91-5.28-2.56-17.17-3.75-39.69.22,14.17-.19,20.75-1.68,29.92C129.79,208.55,131.84,212.21,132,212.61Z"/>
      <path class="cls-8" d="M136,302.6q1.43,23.75,63.53,43.89-61.57-24.58-57.09-44.35Z"/>
      <path class="cls-14" d="M174.89,266.68Zm7.23-.18c5-.28,9.91-1,12.19-2.49,1.13-.75,2.73-1.93,4.55-3.32a41.35,41.35,0,0,0,.24-16.64c-2.61-13.57-11.94-23.6-23-23.6s-20.3,9.89-23,23.3a41.29,41.29,0,0,0-.79,8,40.24,40.24,0,0,0,1.31,10.27c1.06.79,2,1.46,2.73,1.95,2.29,1.52,7.24,2.21,12.2,2.49v0s2.69.15,6.37.15h.36c3.94,0,6.87-.15,6.87-.15Z"/>
      <path class="cls-14" d="M60.42,287.74c5-3.13,14.27,8.95,1.86,18.35,1.16,11.09,1.11,16.64-4.49,15.81-2.42.14-4.06-7.09-3.73-13.37-2.94-3.65-6.72-.27-6.72-.27C51.89,301.22,60.42,287.74,60.42,287.74Z"/>
      <path class="cls-15" d="M55.69,315.88l.59,3.89a4.8,4.8,0,0,0,3.35.6c1.73-.43,2.06-.81,2.06-.81l-.44-4.24S57.74,313.88,55.69,315.88Z"/>
      <path class="cls-14" d="M70.7,281.46s25.72-32.85,26.81-41.93-10.15-9.65-10.15-9.65-3.44,2.42-7.45,11.42S62,285.1,62,285.1,66.83,290.17,70.7,281.46Z"/>
      <path class="cls-16" d="M57.59,292.36c-1.7-3.28,8.84-3.87,12.68-3.5s4.66,3,4.66,3a2.46,2.46,0,0,0,.85-2.44c-.43-1.4-1.27-3.74-11-3.38S55.46,291.46,57.59,292.36Z"/>
      <path class="cls-17" d="M61.86,285.51a1.25,1.25,0,1,0-1.43-1.24A1.34,1.34,0,0,0,61.86,285.51Z"/>
      <path class="cls-17" d="M64.71,285A1.5,1.5,0,1,0,63,283.49,1.59,1.59,0,0,0,64.71,285Z"/>
      <path class="cls-17" d="M68.15,284.84a1.49,1.49,0,1,0-1.66-1.49A1.59,1.59,0,0,0,68.15,284.84Z"/>
      <path class="cls-17" d="M71.56,285.11a1.5,1.5,0,1,0-1.67-1.49A1.59,1.59,0,0,0,71.56,285.11Z"/>
      <path class="cls-17" d="M74.58,286.24a1.49,1.49,0,1,0-1.66-1.48A1.59,1.59,0,0,0,74.58,286.24Z"/>
      <path class="cls-18" d="M64.75,276.41a1.51,1.51,0,0,1,1,.92l0-.09a1.71,1.71,0,0,1,2.18-.82,1.57,1.57,0,0,1,1.11,2,1.69,1.69,0,0,1-2.18.82,1.74,1.74,0,0,1-1.14-1.15h0a1.46,1.46,0,0,1-1.87.67,1.33,1.33,0,0,1-1-1.66,1.45,1.45,0,0,1,1.86-.67ZM77.23,281a1.93,1.93,0,0,0-1.64.16,1.08,1.08,0,0,0,.16-.3,1.57,1.57,0,0,0-1.1-2,1.7,1.7,0,0,0-2.18.83,1.56,1.56,0,0,0,1.11,2,1.84,1.84,0,0,0,1.63-.16,1.08,1.08,0,0,0-.16.3,1.57,1.57,0,0,0,1.1,2,1.69,1.69,0,0,0,2.18-.83,1.56,1.56,0,0,0-1.1-2Zm-5.85-3.53a1.68,1.68,0,0,0-2.17.82,1.57,1.57,0,0,0,1.1,2,1.7,1.7,0,0,0,2.18-.82A1.57,1.57,0,0,0,71.38,277.48Z"/>
      <path class="cls-18" d="M68,271.41a1.55,1.55,0,0,1,.84,1,.2.2,0,0,0,0-.08,1.7,1.7,0,0,1,2.27-.53,1.57,1.57,0,0,1,.85,2.09,1.7,1.7,0,0,1-2.27.54,1.76,1.76,0,0,1-1-1.29h0a1.44,1.44,0,0,1-1.93.43,1.34,1.34,0,0,1-.75-1.77,1.46,1.46,0,0,1,1.94-.43Zm11.78,6.17a1.91,1.91,0,0,0-1.65,0,1.86,1.86,0,0,0,.21-.28,1.58,1.58,0,0,0-.85-2.1,1.7,1.7,0,0,0-2.27.54,1.57,1.57,0,0,0,.85,2.09,1.86,1.86,0,0,0,1.64,0,1.18,1.18,0,0,0-.2.28,1.57,1.57,0,0,0,.84,2.09,1.69,1.69,0,0,0,2.27-.54,1.57,1.57,0,0,0-.84-2.09Zm-5.34-4.25a1.69,1.69,0,0,0-2.27.54A1.57,1.57,0,0,0,73,276a1.68,1.68,0,0,0,2.26-.54A1.56,1.56,0,0,0,74.42,273.33Z"/>
      <path class="cls-19" d="M145.28,91.53,207.71,91a3.62,3.62,0,0,1,3.75,3.74l-1.19,11.32a3.92,3.92,0,0,1-3.75,3.74H146.36a3.91,3.91,0,0,1-3.75-3.74l-1.08-10.78A3.64,3.64,0,0,1,145.28,91.53Z"/>
      <path class="cls-20" d="M169.63,215a1.87,1.87,0,0,1-.57-1.88l-.12.1a3.32,3.32,0,0,1-4.08-.27,2.14,2.14,0,0,1,.25-3.4,3.32,3.32,0,0,1,4.08.27,2.13,2.13,0,0,1,.6,2.3h0a2.82,2.82,0,0,1,3.46.27,1.93,1.93,0,0,1,.63,1.55,3,3,0,0,1,1.9-.64,2.39,2.39,0,1,1-2.78,2.36,2,2,0,0,1,0-.35,2.82,2.82,0,0,1-3.42-.3Zm12.78-.07a1.84,1.84,0,0,0,.56-1.88l.13.1a3.32,3.32,0,0,0,4.08-.27,2.14,2.14,0,0,0-.25-3.4,3.32,3.32,0,0,0-4.08.27,2.13,2.13,0,0,0-.6,2.3h0a2.8,2.8,0,0,0-3.46.26,1.82,1.82,0,0,0,.17,2.89,2.82,2.82,0,0,0,3.46-.27Zm17.69-19.88a2.5,2.5,0,0,0-1.34-2.1,3.39,3.39,0,0,0,.64.06,2.61,2.61,0,0,0,2.75-2.5,2.7,2.7,0,0,0-2.83-2.49,2.61,2.61,0,0,0-2.75,2.49,2.49,2.49,0,0,0,1.33,2.11,3.31,3.31,0,0,0-.64-.06,2.59,2.59,0,0,0-2.74,2.5,2.39,2.39,0,0,0,.79,1.71,3.3,3.3,0,0,0-3,.76,2.13,2.13,0,0,0,.25,3.4,2.69,2.69,0,0,0,.55.31,3.29,3.29,0,0,0-2.63.82,2.14,2.14,0,0,0,.26,3.4,3.32,3.32,0,0,0,4.08-.27,2.14,2.14,0,0,0-.26-3.4,3.6,3.6,0,0,0-.54-.31,3.24,3.24,0,0,0,2.62-.82,2.12,2.12,0,0,0,0-3.18,2.84,2.84,0,0,0,.66.07,2.61,2.61,0,0,0,2.75-2.5Zm2.47-9.65c-.06-3.29-5.64-3.28-5.58,0a2.7,2.7,0,0,0,2.83,2.49,2.61,2.61,0,0,0,2.75-2.5Zm-11.23,23.82a3.3,3.3,0,0,1-4.08.27,2.14,2.14,0,0,1-.26-3.4,3.32,3.32,0,0,1,4.09-.26,2.13,2.13,0,0,1,.25,3.39Zm-39.4-14.1a2.53,2.53,0,0,1,1.33-2.11,2.67,2.67,0,0,1-.64.07,2.59,2.59,0,0,1-2.74-2.5,2.71,2.71,0,0,1,2.83-2.5,2.61,2.61,0,0,1,2.75,2.5,2.51,2.51,0,0,1-1.33,2.11,3.21,3.21,0,0,1,.63-.06,2.61,2.61,0,0,1,2.75,2.49,2.4,2.4,0,0,1-.79,1.72,3.3,3.3,0,0,1,3,.76,2.14,2.14,0,0,1-.25,3.4,3.7,3.7,0,0,1-.55.31,3.27,3.27,0,0,1,2.62.82,2.14,2.14,0,0,1-.25,3.4,3.32,3.32,0,0,1-4.08-.27,2.14,2.14,0,0,1,.25-3.4,3.7,3.7,0,0,1,.55-.31,3.27,3.27,0,0,1-2.62-.82,2.11,2.11,0,0,1,0-3.18,3,3,0,0,1-.66.07,2.61,2.61,0,0,1-2.75-2.5Zm-2.47-9.65c.05-3.29,5.63-3.28,5.58,0a2.72,2.72,0,0,1-2.84,2.5,2.59,2.59,0,0,1-2.74-2.5Zm11.23,23.82a3.31,3.31,0,0,0,4.08.27,2.14,2.14,0,0,0,.25-3.4,3.31,3.31,0,0,0-4.08-.26A2.13,2.13,0,0,0,160.7,209.29Z"/>
      <path class="cls-20" d="M149.7,180.82a2.8,2.8,0,0,1,2.32-3.16,2.71,2.71,0,0,1,3.1,2.32,2.81,2.81,0,0,1-2.33,3.16A2.7,2.7,0,0,1,149.7,180.82Z"/>
      <path class="cls-20" d="M151.28,170.51a2.37,2.37,0,0,0,1.27,1.79l-.16,0a2.82,2.82,0,0,0-2.33,3.17,2.7,2.7,0,0,0,3.1,2.31,2.8,2.8,0,0,0,2.33-3.16,2.71,2.71,0,0,0-1.62-2.13h0a2.38,2.38,0,0,0,1.94-2.71,2.3,2.3,0,0,0-2.6-2A2.4,2.4,0,0,0,151.28,170.51Z"/>
      <path class="cls-20" d="M154.25,161.76a2.15,2.15,0,0,0,1,1.73h-.15a2.55,2.55,0,0,0-2.37,2.67,2.46,2.46,0,0,0,2.62,2.35,2.56,2.56,0,0,0,2.37-2.67,2.47,2.47,0,0,0-1.29-2.06h0a2.17,2.17,0,0,0,2-2.3,2.1,2.1,0,0,0-2.19-2A2.18,2.18,0,0,0,154.25,161.76Z"/>
      <path class="cls-20" d="M198.5,161.8a2.18,2.18,0,0,1-1,1.78h.15a2.57,2.57,0,0,1,2.46,2.64,2.48,2.48,0,0,1-2.58,2.44,2.58,2.58,0,0,1-2.46-2.64,2.51,2.51,0,0,1,1.25-2.11h0a2.19,2.19,0,0,1-2.05-2.27,2.1,2.1,0,0,1,2.16-2.1A2.19,2.19,0,0,1,198.5,161.8Z"/>
      <path class="cls-21" d="M176.79,238.23c-8.39,0-16.23-7.82-22.06-22-5.74-14-8.9-32.44-8.9-52.06s3.16-38.1,8.9-52.06c5.83-14.2,13.67-22,22.06-22s16.22,7.82,22.06,22c5.74,14,8.89,32.45,8.89,52.06s-3.15,38.11-8.89,52.06C193,230.41,185.18,238.23,176.79,238.23Zm0-146.44c-7.65,0-14.92,7.44-20.48,20.95-5.65,13.76-8.77,32-8.77,51.41s3.12,37.66,8.77,51.41c5.56,13.52,12.83,21,20.48,21s14.92-7.44,20.47-21c5.66-13.75,8.77-32,8.77-51.41s-3.11-37.65-8.77-51.41C191.71,99.23,184.44,91.79,176.79,91.79Z"/>
      <path class="cls-22" d="M207.76,86.23l.21,33.16s.13,19.33-6,31.86c-5.9,12.13-23.88,32.58-25,33.88v.15s-19.27-21.41-25.53-33.94-6.37-31.86-6.37-31.86l-.22-33.16,33.54,2.11Z"/>
      <path class="cls-23" d="M178.29,47.66H153.56s-13.13,9.19-12.17,20.55,6,25.86,6,25.86l27,1.57v.13l1.18-.07,1.16.07v-.13l27-1.57s5.09-14.49,6-25.86-12.17-20.54-12.17-20.54H178.29Z"/>
      <path class="cls-11" d="M170.18,58.51l5.94,3.15,6.33-3.15c10.49-5.23,21.46,9.34,21.46,20.76V103c0,11.42-9.65,20.77-21.46,20.77H170.18c-11.8,0-21.46-9.35-21.46-20.77V79.27C148.72,67.85,159.83,53,170.18,58.51Z"/>
      <path class="cls-14" d="M171.38,58.51,176,61.66l4.87-3.15c8.08-5.23,16.52,9.34,16.52,20.76V103c0,11.42-7.44,20.77-16.52,20.77h-9.44c-9.08,0-16.51-9.35-16.51-20.77V79.27C154.87,67.85,163.42,53,171.38,58.51Z"/>
      <path class="cls-10" d="M155.89,95.54q1.26-5.07,9-3.64,4.07,1.23,4.4,4.8,4.44-3.26,4.55-11.41a55.35,55.35,0,0,0-21.26,2.76A10,10,0,0,0,155.89,95.54Z"/>
      <path class="cls-9" d="M175.88,132c7.17,0,13-3.89,13-8.66s-5.85-8.65-13-8.65-13,3.89-13,8.65S168.71,132,175.88,132Z"/>
      <path class="cls-23" d="M159.77,36.26h31.9a6.23,6.23,0,0,1,6.21,6.21v6.21H153.56V42.47A6.24,6.24,0,0,1,159.77,36.26Z"/>
      <path class="cls-23" d="M169.34,25.88h13.12a11.43,11.43,0,0,1,11.4,11.4v11.4H157.93V37.28A11.44,11.44,0,0,1,169.34,25.88Z"/>
      <path class="cls-24" d="M191,37.75a5.75,5.75,0,0,1,3.3,5.19v5.74H158V42.94a5.75,5.75,0,0,1,3.59-5.32,10.58,10.58,0,0,1,10.53-10h8.34A10.57,10.57,0,0,1,191,37.75Z"/>
      <path class="cls-9" d="M173.84,109.44l-6.23-.24q-1.22-4,3.11-5.58c1.33-3.71,4.39-6.72,5-6.69s3.71,3,5,6.67c2.88,1.05,3.92,2.92,3.11,5.59l-6.23.23c.36,0-.28,0-1.9,0v0C174.13,109.43,173.49,109.43,173.84,109.44Z"/>
      <path class="cls-10" d="M168.26,105.14a4,4,0,0,0-.65,4.06h16.28a4.31,4.31,0,0,0-.43-3.81c.24,1.22-1.19,1.59-4.3,1.13a5.61,5.61,0,0,1-6.76.14C170.06,106.91,168.68,106.4,168.26,105.14Z"/>
      <path class="cls-25" d="M168.81,109.27l5,.17C172.41,107.09,170.74,107,168.81,109.27Z"/>
      <path class="cls-22" d="M175.87,123.77h0a4.51,4.51,0,0,1,4.5,4.5v6a4.51,4.51,0,0,1-4.5,4.5h0a4.52,4.52,0,0,1-4.51-4.5v-6A4.52,4.52,0,0,1,175.87,123.77Z"/>
      <path class="cls-25" d="M182.69,109.25l-5,.17Q179.81,105.91,182.69,109.25Z"/>
      <path class="cls-3" d="M154.88,90.53a2.1,2.1,0,0,1-2.32-1.82,2.06,2.06,0,0,1,1.9-2.21,1.53,1.53,0,0,0,1.1-.81,4.34,4.34,0,0,1,3-2.14c1.95-.37,5,0,7.81.31,1.27.15,2.48.29,3.35.34a2.12,2.12,0,0,1,2-1.3,2.07,2.07,0,0,1,2.08,2,3.17,3.17,0,0,1-1.11,2.61,3.29,3.29,0,0,1-2.24.71,39.7,39.7,0,0,1-4.6-.37,30,30,0,0,0-6.49-.37s-.17.23-.35.47A5.08,5.08,0,0,1,154.88,90.53Z"/>
      <path class="cls-10" d="M175.93,118.82h-6.26a3.24,3.24,0,0,1-3.06-2.15l-.14.11a5,5,0,0,0,2,3.62,5.41,5.41,0,0,0,3.17,1h8.71a5.34,5.34,0,0,0,2.22-.49,4.75,4.75,0,0,0,.95-.56,5,5,0,0,0,2-3.52l-.17-.12a3.22,3.22,0,0,1-3,2.06Z"/>
      <path class="cls-26" d="M156.74,96.66s-3-.27-3.07-.31c2.67-.11,2.61-.72,3.61-2.72,2.31-2.62,11.33-2.28,11.1,3.25,0,0-.61-.07-.65,0C167.18,92.86,158.44,91.61,156.74,96.66Z"/>
      <path class="cls-10" d="M162.45,94q4.37.53,4.89,3.68-5.26-2.57-9.87-.54Q158,94.16,162.45,94Z"/>
      <path class="cls-14" d="M175.54,106.23c1.57,0,2.85-.46,2.85-1s-1.28-1-2.85-1-2.85.46-2.85,1S174,106.23,175.54,106.23Z"/>
      <path class="cls-14" d="M177.91,103.91c.37,0,.67-.22.67-.48s-.3-.49-.67-.49-.67.22-.67.49S177.54,103.91,177.91,103.91Z"/>
      <path class="cls-27" d="M175.93,117.74h-6.26a3.91,3.91,0,0,1-3.06-1.07l-.14,0c.11.74.87,1.39,2,1.81a7.48,7.48,0,0,0,.91.28,10,10,0,0,0,2.26.25h8.71a10.35,10.35,0,0,0,2.22-.24,7.6,7.6,0,0,0,.95-.29c1.11-.41,1.87-1,2-1.75l-.17-.06a4,4,0,0,1-3,1Z"/>
      <path class="cls-3" d="M160.27,123.92a3.66,3.66,0,0,1-5.08.06,3.49,3.49,0,0,1-.49-5c5.6-6.14,4.11-10.11,17.28-10a4,4,0,0,1,3.62,2.5,4,4,0,0,1,3.62-2.51c13.16-.14,11.68,3.83,17.28,10a3.49,3.49,0,0,1-.5,5,3.65,3.65,0,0,1-5.08-.07c-3.5-3.84-1.86-8-12.21-7.84a3.26,3.26,0,0,1-3.11-1.94,3.23,3.23,0,0,1-3.11,1.95C162.13,116,163.78,120.07,160.27,123.92Z"/>
      <path class="cls-28" d="M174,79.33c-.24-4.15,1.81-15.76,2-15.7s2.28,11.5,2,15.68C177.27,82,174.79,81.69,174,79.33Z"/>
      <path class="cls-10" d="M196.24,95.5q-1.28-5.07-9-3.64-4.06,1.23-4.39,4.8-4.45-3.25-4.56-11.41A55.33,55.33,0,0,1,199.51,88,10,10,0,0,1,196.24,95.5Z"/>
      <path class="cls-3" d="M197.75,86.46a2,2,0,0,1,1.88,2.21,2.08,2.08,0,0,1-2.29,1.82A5.08,5.08,0,0,1,193.18,88a4.42,4.42,0,0,0-.38-.48,30.54,30.54,0,0,0-6.55.37,43.09,43.09,0,0,1-4.62.38,3.38,3.38,0,0,1-2.22-.7,3.19,3.19,0,0,1-1.12-2.62,2.06,2.06,0,0,1,2.06-2.06,2.09,2.09,0,0,1,2,1.31c.89,0,2.12-.19,3.42-.35,2.79-.32,5.88-.68,7.83-.31a4.36,4.36,0,0,1,3,2.13A1.58,1.58,0,0,0,197.75,86.46Z"/>
      <path class="cls-26" d="M195.38,96.63s3-.28,3.07-.32c-2.67-.11-2.6-.72-3.6-2.72-2.32-2.62-11.34-2.28-11.11,3.25.06,0,.61-.07.65,0C184.94,92.82,193.68,91.57,195.38,96.63Z"/>
      <path class="cls-10" d="M189.68,94q-4.38.52-4.9,3.68,5.26-2.56,9.88-.53Q194.18,94.12,189.68,94Z"/>
      <path class="cls-29" d="M152.62,46h47a1.36,1.36,0,0,1,1.34,1.35h0a1.35,1.35,0,0,1-1.34,1.34h-47a1.35,1.35,0,0,1-1.34-1.34h0A1.35,1.35,0,0,1,152.62,46Z"/>
      <path class="cls-23" d="M172.79,26.41h7.09q-5-4.43,4-6.9,5.93-4.87-3.07-7.67,6,4.56-6.13,6.9Q168.05,21.6,172.79,26.41Z"/>
      <path class="cls-20" d="M202.79,181.17a2.8,2.8,0,0,0-2.32-3.16,2.7,2.7,0,0,0-3.1,2.32,2.81,2.81,0,0,0,2.33,3.16A2.7,2.7,0,0,0,202.79,181.17Z"/>
      <path class="cls-20" d="M201.23,170.93a2.36,2.36,0,0,1-1.28,1.79l.17,0a2.82,2.82,0,0,1,2.33,3.17,2.72,2.72,0,0,1-3.1,2.32,2.82,2.82,0,0,1-2.33-3.17,2.72,2.72,0,0,1,1.61-2.13h0a2.39,2.39,0,0,1-1.94-2.71,2.3,2.3,0,0,1,2.61-2A2.38,2.38,0,0,1,201.23,170.93Z"/>
      <path class="cls-30" d="M174.13,237.69a3,3,0,0,0,2,2.08l-.21.06a3.64,3.64,0,0,0-2.43,4.47,3.52,3.52,0,0,0,4.39,2.44,3.64,3.64,0,0,0,2.44-4.48,3.53,3.53,0,0,0-2.46-2.45h0a3.07,3.07,0,0,0,2-3.82,3,3,0,0,0-3.7-2.12A3.09,3.09,0,0,0,174.13,237.69Z"/>
      <path class="cls-16" d="M176.21,263.44c.83,0,1.51-1.7,1.51-3.78s-.68-3.78-1.51-3.78-1.52,1.69-1.52,3.78S175.37,263.44,176.21,263.44Z"/>
      <path class="cls-10" d="M102.59,206.69s-2.16,6.7,1.09,12.1,11,.22,11,.22l-8,13.83s.43-5.41-1.51-7.89-7.57-2.81-7.57-2.81Z"/>
      <path class="cls-10" d="M93.19,272.07s3.78.81,5.62,1.37a37.79,37.79,0,0,1,12.43,7.06c5,4.32,9.72,10.81,13.4,12.53s25,2,25,2l-.75,6.09s-25.76,1.7-33.26-3.46-15.8-12.61-19-13-7.13-.86-7.46-1.72,1.62-2.6,1.62-2.6L90,276.72l2.37-.9S90.7,273.37,93.19,272.07Z"/>
      <path class="cls-9" d="M241.4,294.46q-14.64,12-38.34,7-4.27-23.12,14.17-20.74,13.92-1,20-11c20.9-8.67,27.06-5,25,2.09,3.4,11.2,3.87,13.91-1.2,14.19A51.18,51.18,0,0,0,241.4,294.46Z"/>
      <path class="cls-12" d="M287.1,289.74l-2.81,2.11a18.07,18.07,0,0,0,0,8.18,17.76,17.76,0,0,0,4.36,7.25l.19,2.85,1.3,23.1,1.09-20.38,2.91-.05.69,22.6s2.65-22.83,1.91-22.92-.05,1.09,1,1.15,1.54,22.67,2.21,22.62-1.08-23.65-.27-25.91,3.45-.64,3.9-.88-4-2.35-4.86-1.48l-.87.87-8.23-2.44s-6.16-5.43-5.68-7.38S287.1,289.74,287.1,289.74Z"/>
      <path class="cls-12" d="M291.34,289.82c-5.18-3.32-15.52,7.45-2.68,17.46-.18,5.34-2.76,18.43,5.08,17.16,2.51.15,5.72-6.79,4.94-14.33,3-3.88,4.77-1.95,4.77-1.95C298.74,300.68,291.34,289.82,291.34,289.82Z"/>
      <path class="cls-14" d="M291.47,288.06c-5-3.12-14.27,8.95-1.86,18.35-1.15,11.1-1.11,16.64,4.5,15.81,2.42.14,4.06-7.09,3.73-13.37,2.93-3.64,6.71-.27,6.71-.27C300,301.55,291.47,288.06,291.47,288.06Z"/>
      <path class="cls-15" d="M296.2,316.21l-.59,3.89a4.82,4.82,0,0,1-3.35.59c-1.73-.43-2.05-.81-2.05-.81l.43-4.24S294.15,314.21,296.2,316.21Z"/>
      <path class="cls-14" d="M281.19,281.79s-25.72-32.86-26.8-41.94,10.14-9.65,10.14-9.65,3.45,2.42,7.45,11.43,17.92,43.79,17.92,43.79S285.06,290.5,281.19,281.79Z"/>
      <path class="cls-16" d="M294.48,292.6c1.7-3.28-9-3.79-12.85-3.41s-4.67,3-4.67,3a2.43,2.43,0,0,1-.84-2.43c.43-1.41,1.26-3.74,11-3.39S296.61,291.7,294.48,292.6Z"/>
      <path class="cls-17" d="M290,285.84a1.26,1.26,0,1,0-1.44-1.25A1.36,1.36,0,0,0,290,285.84Z"/>
      <path class="cls-17" d="M287.19,285.29a1.49,1.49,0,1,0-1.67-1.48A1.58,1.58,0,0,0,287.19,285.29Z"/>
      <path class="cls-17" d="M283.74,285.16a1.49,1.49,0,1,0-1.66-1.48A1.58,1.58,0,0,0,283.74,285.16Z"/>
      <path class="cls-17" d="M280.34,285.43a1.5,1.5,0,1,0-1.67-1.48A1.59,1.59,0,0,0,280.34,285.43Z"/>
      <path class="cls-17" d="M277.31,286.57a1.49,1.49,0,1,0-1.66-1.49A1.58,1.58,0,0,0,277.31,286.57Z"/>
      <path class="cls-18" d="M287.14,276.73a1.51,1.51,0,0,0-1,.92l0-.08a1.69,1.69,0,0,0-2.18-.82,1.57,1.57,0,0,0-1.11,2,1.69,1.69,0,0,0,2.18.82,1.77,1.77,0,0,0,1.15-1.14h0a1.44,1.44,0,0,0,1.86.68,1.34,1.34,0,0,0,1-1.66,1.44,1.44,0,0,0-1.86-.68Zm-12.47,4.6a1.88,1.88,0,0,1,1.63.17,1.51,1.51,0,0,1-.16-.31,1.56,1.56,0,0,1,1.1-2,1.69,1.69,0,0,1,2.18.82,1.57,1.57,0,0,1-1.1,2,1.89,1.89,0,0,1-1.64-.17,1.54,1.54,0,0,1,.17.31,1.57,1.57,0,0,1-1.11,2,1.69,1.69,0,0,1-2.18-.82,1.57,1.57,0,0,1,1.11-2Zm5.84-3.53a1.71,1.71,0,0,1,2.18.83,1.57,1.57,0,0,1-1.11,2,1.69,1.69,0,0,1-2.18-.82A1.58,1.58,0,0,1,280.51,277.8Z"/>
      <path class="cls-18" d="M283.92,271.74a1.52,1.52,0,0,0-.85,1l0-.08a1.69,1.69,0,0,0-2.27-.54,1.56,1.56,0,0,0-.84,2.09,1.68,1.68,0,0,0,2.26.54,1.74,1.74,0,0,0,1-1.29h0a1.45,1.45,0,0,0,1.94.43,1.34,1.34,0,0,0,.74-1.77,1.44,1.44,0,0,0-1.93-.43Zm-11.78,6.17a1.86,1.86,0,0,1,1.64-.05,1.1,1.1,0,0,1-.2-.28,1.56,1.56,0,0,1,.84-2.09,1.7,1.7,0,0,1,2.27.53,1.57,1.57,0,0,1-.85,2.09,1.86,1.86,0,0,1-1.64.05,1.31,1.31,0,0,1,.2.28,1.56,1.56,0,0,1-.84,2.09,1.7,1.7,0,0,1-2.27-.53,1.57,1.57,0,0,1,.85-2.09Zm5.33-4.25a1.7,1.7,0,0,1,2.27.53,1.56,1.56,0,0,1-.84,2.09,1.7,1.7,0,0,1-2.27-.53A1.56,1.56,0,0,1,277.47,273.66Z"/>
      <path class="cls-10" d="M249.3,207s2.16,6.7-1.08,12.1-11,.22-11,.22l8,13.83s-.43-5.4,1.51-7.89,7.57-2.81,7.57-2.81Z"/>
      <path class="cls-10" d="M258.7,272.39s-3.78.81-5.62,1.38a37.71,37.71,0,0,0-12.43,7.05c-5,4.33-9.72,10.81-13.4,12.54s-24.95,2-24.95,2l.76,6.1s25.76,1.69,33.25-3.46,15.8-12.62,19-13.05,7.13-.86,7.46-1.73-1.62-2.59-1.62-2.59l.71-3.56-2.36-.9S261.19,273.69,258.7,272.39Z"/>
      <path class="cls-10" d="M218.45,212.29c.91-5.28,2.94-16.82,4.14-39.33-.22,14.17.19,20.75,1.68,29.92C221.05,208.59,218.61,211.89,218.45,212.29Z"/>
      <path class="cls-6" d="M157.92,288.28s21.62,22.05,32.42,23.78,0-14.27-3-22.92,19.89-13.83,19.89-13.83,13.4,1.3,19.45-2.16,9.49-11.6,9.49-11.6l-8.51-2,.62-10.79s-4.19-2.64-7,.17-25.72,20.75-31.77,22.26-16.86,5.62-17.94,10.16S182,294.81,177,293.92,157.92,288.28,157.92,288.28Z"/>
      <path class="cls-6" d="M250.64,324.38s-39.55-9.73-46.68-14.7S191.64,290,192.29,288.06s4.1-2.59,4.1-2.59,20.75,1.95,26.15,3S261.67,296.93,266,298s-10.16-2.38-8.65,1.51,7.57,9.94,10.81,13.83-13.62-6.27-24.42-8S250.64,324.38,250.64,324.38Z"/>
      <path class="cls-8" d="M196.39,285.47s32.66,5,56.2,9.94S277.66,317,277.66,317s-2.16-12.54-7.35-17.94S209.35,281.13,196.39,285.47Z"/>
      <path class="cls-8" d="M164.4,283.31s2.49.75,2.92-1.3a8.28,8.28,0,0,1,5.51-6.38c4-1.62,14.69,6.38,19.13,8.11a50.5,50.5,0,0,0,9.24,2.48l4.05-1.64s-15.88-4-18.91-6.68-8.75-5.51-11.56-5.62-6.46-.08-7.68,3-3.2,5.69-6.48,5.3-8.61-4.37-8.61-4.37S156.84,282.87,164.4,283.31Z"/>
      <path class="cls-16" d="M212.46,202.14c1.4,0,2,1.7,1.33,3.79s-2.34,3.78-3.74,3.78-2-1.69-1.33-3.78S211.06,202.14,212.46,202.14Z"/>
      <path class="cls-16" d="M136.71,202.14c-1.4,0-2,1.7-1.33,3.79s2.34,3.78,3.74,3.78,2-1.69,1.33-3.78S138.11,202.14,136.71,202.14Z"/>
      <path class="cls-15" d="M120.53,155.64c1.76.52,2.42,3.57,1.47,6.82s-3.14,5.48-4.9,5-2.41-3.56-1.46-6.81S118.78,155.13,120.53,155.64Z"/>
      <path class="cls-15" d="M229.11,152.56c-1.76.51-2.42,3.57-1.47,6.82s3.14,5.48,4.9,5,2.41-3.56,1.46-6.81S230.86,152.05,229.11,152.56Z"/>
      <path class="cls-3" d="M159.85,130.49c-3.22,6.31-2.11,10.16-.71,13.35,1.69,3.85,3.79,6.74-.81,11.83,1.65-4,2-5.79.64-9.31-.18-.46-.39-1-.64-1.49-3.29-5.45-2.9-9.71,1.52-14.38Zm11.51,3.75c-5.6,3.45-6.29,6.71-2.13,11.8l-.07-.1c6.93,12.46-11.91,9.42.84,24.54h0c-2.59-4.89-4.93-8.48-1.25-13.36a11.92,11.92,0,0,0,1.9-1.55c.17-.19.36-.42.59-.72,2.68-3.46,1.47-5.77-.22-8C168.55,143.58,165.06,140.5,171.36,134.24Z"/>
      <path class="cls-22" d="M118.67,147.24a7.88,7.88,0,0,1,3.75-7.16c2.55-1.64,6.07-2.34,9.43-3.19h0c7.95-2.46,6.48-7.87,4.33-15v0c-1.26-5.07-.75-6.44.87-11.35h0c-.54,4.22-1.22,6.81.22,10.9,7.77,22.07-8.84,13.59-16.07,21.16A10.66,10.66,0,0,0,118.67,147.24Z"/>
      <path class="cls-22" d="M233.89,148a7.91,7.91,0,0,0-3.75-7.17c-2.56-1.64-6.08-2.34-9.44-3.19h0c-7.95-2.46-6.49-7.87-4.34-15.05v0c1.26-5.07.74-6.44-.87-11.35h0c.55,4.22,1.22,6.81-.22,10.9-7.77,22.07,8.84,13.59,16.08,21.16A10.65,10.65,0,0,1,233.89,148Z"/>
      <path class="cls-3" d="M192.34,130.59c3.22,6.3,2.11,10.15.71,13.34-1.69,3.85-3.79,6.74.81,11.84-1.65-4-2-5.79-.64-9.31.18-.47.39-1,.64-1.49,3.29-5.45,2.9-9.71-1.52-14.38Zm-11.51,3.74c5.6,3.46,6.29,6.71,2.13,11.8L183,146c-6.94,12.45,11.9,9.41-.85,24.53h0c2.59-4.88,4.93-8.48,1.25-13.35a12.48,12.48,0,0,1-1.9-1.56c-.17-.19-.36-.42-.59-.71-2.68-3.47-1.47-5.78.22-8C183.64,143.68,187.13,140.6,180.83,134.33Z"/>
      <path class="cls-3" d="M163.31,45.46c-2.27-2-1.49-3.15-.5-4.14,1.19-1.2,2.67-2.1-.57-3.68,1.16,1.24,1.41,1.8.45,2.89a6.38,6.38,0,0,1-.45.46c-2.32,1.7-2.05,3,1.07,4.47Zm8.11-1.16c-3.95-1.08-4.43-2.09-1.5-3.67l-.06,0c4.89-3.87-8.38-2.92.6-7.62h0c-1.82,1.52-3.47,2.64-.88,4.15a11.86,11.86,0,0,1,1.34.48c.12.06.25.13.41.23,1.89,1.07,1,1.79-.15,2.48C169.44,41.39,167,42.35,171.42,44.3Z"/>
      <path class="cls-3" d="M189,45.43c2.48-2,1.63-3.15.55-4.14-1.3-1.2-2.92-2.1.62-3.68-1.27,1.24-1.55,1.8-.49,2.89.14.15.3.3.49.47,2.54,1.69,2.24,3-1.17,4.46Zm-8.87-1.16c4.32-1.08,4.85-2.09,1.64-3.67l.06,0c-5.35-3.86,9.17-2.92-.66-7.62h0c2,1.52,3.81,2.64,1,4.15a13.13,13.13,0,0,0-1.46.48c-.14.06-.29.14-.46.23-2.06,1.07-1.13,1.79.17,2.48C182.29,41.37,185,42.32,180.13,44.27Z"/>
      <path class="cls-31" d="M91.14,271.37,102,274.66S94.37,275.07,91.14,271.37Z"/>
      <path class="cls-31" d="M98.39,277.72l-9.6-3.23S95,278.72,98.39,277.72Z"/>
      <path class="cls-31" d="M95.67,280.62l-8-1.85S92,281.71,95.67,280.62Z"/>
      <path class="cls-31" d="M93.54,284.2l-6.42-1.76S91.77,285,93.54,284.2Z"/>
      <path class="cls-15" d="M99,268.64l-2.36,2.91-5.53-1.45s.9-3.09,2.35-3.18S99,268.64,99,268.64Z"/>
      <path class="cls-31" d="M261.69,271.87l-10.3,1.69S258.25,275.06,261.69,271.87Z"/>
      <path class="cls-31" d="M254.23,277.1l9.18-1.79S257.15,278.57,254.23,277.1Z"/>
      <path class="cls-31" d="M256.32,280.37l7.57-.66S259.48,282,256.32,280.37Z"/>
      <path class="cls-31" d="M257.78,284.22l6.09-.81S259.29,285.24,257.78,284.22Z"/>
      <path class="cls-15" d="M254.87,268l1.76,3.22,5.23-.63s-.41-3.19-1.72-3.49S254.87,268,254.87,268Z"/>
      <path class="cls-10" d="M131.15,287.7s3.12-3.8,6.55-2.35a11.46,11.46,0,0,1,5.06,4.16l-.73-5.08-11.11-1.29Z"/>
    </g>
  </g>
</svg>
