<svg id="Layer_1" data-name="Layer 1" xmlns="http://www.w3.org/2000/svg" width="306.38" height="141.62" viewBox="0 0 306.38 141.62">
  <defs>
    <style>
      .cls-1 {
        fill: #050505;
        opacity: 0.5;
      }

      .cls-2 {
        fill: #fff;
      }

      .cls-3 {
        fill: #f69757;
      }

      .cls-4 {
        fill: #a46032;
      }

      .cls-5 {
        fill: #de8b51;
      }

      .cls-6 {
        fill: #92562c;
      }

      .cls-7 {
        fill: #211f1f;
      }

      .cls-8 {
        fill: #60412e;
      }

      .cls-9 {
        fill: #785134;
      }
    </style>
  </defs>
  <g>
    <path class="cls-1" d="M59.38,139.38c-10.2,0-29.71-3.78-40.53-8.83a20.86,20.86,0,0,1-5-3.22,9.19,9.19,0,0,1-6.18-5.49,10,10,0,0,1-.39-6,8.72,8.72,0,0,1,0-8.33A8,8,0,0,1,10,100.2a18.35,18.35,0,0,1,7.44-3.52c.4-.11.79-.22,1.15-.34a24.56,24.56,0,0,1,3-.85l.78-.67a8,8,0,0,1,3.42-6.51A16.08,16.08,0,0,1,31.53,86l.72-.17a34.9,34.9,0,0,1,9-1.45l1.29,0c.7,0,1.42,0,2.14,0a9.27,9.27,0,0,1,.46-1A8.86,8.86,0,0,1,53,78.72a9.24,9.24,0,0,1,1,.06c.82,0,1.63,0,2.44,0h5.16a9.1,9.1,0,0,1,7.8-4.37c.45,0,.92,0,1.4,0a8,8,0,0,1,2.94-2.88,10.63,10.63,0,0,1,2-.9,9.36,9.36,0,0,1,1.67-3.3,9.46,9.46,0,0,1,3.64-2.79c3.06-19,18-36.36,22.89-41.63,11.17-12,38.19-13.26,49.29-13.26,20.09,0,38.05,3.58,48.05,9.58,3.25,1.95,6,3.69,8.42,5.22,2,1.27,3.72,2.36,5.22,3.25a23.74,23.74,0,0,0,4.92,2.39,2,2,0,0,0,.35.05h0s.95,0,3.91-2.59a111.8,111.8,0,0,1,18.6-12.7A10.73,10.73,0,0,1,248,8.48a10.57,10.57,0,0,1,5.12-1.25,17.68,17.68,0,0,1,6.8,1.56c.72,0,1.44-.08,2.14-.08,5.77,0,11.14,1.71,16.92,5.39,1.32.84,2.71,1.82,4.26,3,.41.3.86.64,1.32,1,1.25,1,2.54,2,3.89,3.11,1.66,1.35,3.37,2.74,5.2,4.14a32,32,0,0,1,6.16,6,10.24,10.24,0,0,1,5.34,8.22A12,12,0,0,1,302,48.82a24.6,24.6,0,0,1-5.93,6.45c-2.91,2.37-8.64,5.52-24.81,5.52h0c-2.82,0-5.32-.1-7.09-.2-5.45,5.46-10.68,12.29-16.3,21.23a23.54,23.54,0,0,1-5.49,6c-1.39,2.37-3.08,5.21-4.42,7.42a.13.13,0,0,0,0,.06,14.3,14.3,0,0,1,10.52,10.53,8.28,8.28,0,0,1-8.21,10.06,10.7,10.7,0,0,1-2.23-.25,8.48,8.48,0,0,1-4.11,1,13,13,0,0,1-3-.4h0a22.53,22.53,0,0,1-2.32.12,28.69,28.69,0,0,1-6.65.81c-6.67,0-12.17-2.63-15.5-7.41a62.44,62.44,0,0,1-8.05-17.21c-.4-.17-.8-.34-1.18-.52-5.88-2.78-32.93-8.45-45.94-9.47a65.06,65.06,0,0,1-7.65,13,17,17,0,0,1,6.27,5.11c3.22,3.89,2.68,7.3,1.66,9.48a8.1,8.1,0,0,1-7.4,4.66,9.39,9.39,0,0,1-2.24-.28,8.27,8.27,0,0,1-4.1,1.07,11.16,11.16,0,0,1-3.66-.71,14.16,14.16,0,0,0-1.41-.41c-4.35.83-9.92,1.12-20.94,1.12a25.15,25.15,0,0,1-20-9.57c-10.54,6.72-20.68,10.33-30.15,10.73A53.34,53.34,0,0,1,69,122.09c5.13,4.49,3.82,9.39,3.29,10.79C69.88,139.38,62.25,139.38,59.38,139.38Z"/>
    <path class="cls-2" d="M54.38,134.38c-10.2,0-29.71-3.78-40.53-8.83a20.86,20.86,0,0,1-5-3.22,9.19,9.19,0,0,1-6.18-5.49,10,10,0,0,1-.39-6,8.72,8.72,0,0,1-.05-8.33A8,8,0,0,1,5,95.2a18.35,18.35,0,0,1,7.44-3.52c.4-.11.79-.22,1.15-.34a24.56,24.56,0,0,1,3-.85l.78-.67a8,8,0,0,1,3.42-6.51A16.08,16.08,0,0,1,26.53,81l.72-.17a34.9,34.9,0,0,1,9-1.45l1.29,0c.7,0,1.42,0,2.14,0a9.27,9.27,0,0,1,.46-1A8.86,8.86,0,0,1,48,73.72a9.24,9.24,0,0,1,1,.06c.82,0,1.63,0,2.44,0h5.16a9.1,9.1,0,0,1,7.8-4.37c.45,0,.92,0,1.4,0a8,8,0,0,1,2.94-2.88,10.63,10.63,0,0,1,2-.9,9.36,9.36,0,0,1,1.67-3.3,9.46,9.46,0,0,1,3.64-2.79c3.06-19,18-36.36,22.89-41.63,11.17-12,38.19-13.26,49.29-13.26,20.09,0,38.05,3.58,48.05,9.58,3.25,1.95,6,3.69,8.42,5.22,2,1.27,3.72,2.36,5.22,3.25a23.74,23.74,0,0,0,4.92,2.39,2,2,0,0,0,.35.05h0s.95,0,3.91-2.59a111.8,111.8,0,0,1,18.6-12.7A10.73,10.73,0,0,1,243,3.48a10.57,10.57,0,0,1,5.12-1.25,17.68,17.68,0,0,1,6.8,1.56c.72,0,1.44-.08,2.14-.08,5.77,0,11.14,1.71,16.92,5.39,1.32.84,2.71,1.82,4.26,3,.41.3.86.64,1.32,1,1.25,1,2.54,2,3.89,3.11,1.66,1.35,3.37,2.74,5.2,4.14a32,32,0,0,1,6.16,6,10.24,10.24,0,0,1,5.34,8.22A12,12,0,0,1,297,43.82a24.6,24.6,0,0,1-5.93,6.45c-2.91,2.37-8.64,5.52-24.81,5.52h0c-2.82,0-5.32-.1-7.09-.2-5.45,5.46-10.68,12.29-16.3,21.23a23.54,23.54,0,0,1-5.49,6c-1.39,2.37-3.08,5.21-4.42,7.42a.13.13,0,0,0,0,.06,14.3,14.3,0,0,1,10.52,10.53,8.28,8.28,0,0,1-8.21,10.06,10.7,10.7,0,0,1-2.23-.25,8.48,8.48,0,0,1-4.11,1,13,13,0,0,1-3-.4h0a22.53,22.53,0,0,1-2.32.12,28.69,28.69,0,0,1-6.65.81c-6.67,0-12.17-2.63-15.5-7.41a62.44,62.44,0,0,1-8.05-17.21c-.4-.17-.8-.34-1.18-.52-5.88-2.78-32.93-8.45-45.94-9.47a65.06,65.06,0,0,1-7.65,13,17,17,0,0,1,6.27,5.11c3.22,3.89,2.68,7.3,1.66,9.48a8.1,8.1,0,0,1-7.4,4.66,9.39,9.39,0,0,1-2.24-.28,8.27,8.27,0,0,1-4.1,1.07,11.16,11.16,0,0,1-3.66-.71,14.16,14.16,0,0,0-1.41-.41c-4.35.83-9.92,1.12-20.94,1.12a25.15,25.15,0,0,1-20-9.57c-10.54,6.72-20.68,10.33-30.15,10.73A53.34,53.34,0,0,1,64,117.09c5.13,4.49,3.82,9.39,3.29,10.79C64.88,134.38,57.25,134.38,54.38,134.38Z"/>
    <g>
      <path class="cls-3" d="M83.58,66.09c.12-3.72,11.33-40.89,33.48-47.71,22.43-6.91,66.9,1.05,77.87,8.22,3.6,2.35,7.25,4.69,10.67,6.6a47.76,47.76,0,0,0,6.72,3.2c4,1.48,7.21,1.6,8.93-.69,3.9-5.16,21.94-18.23,21.94-18.23.6-.38,1.17-.76,1.72-1.12-.11-.36-.22-.71-.35-1.07A109.46,109.46,0,0,0,224.42,28.6c-4.5,3.89-7.58,5.12-11.23,4.3a26.33,26.33,0,0,1-7.27-3.32c-3.49-2.07-7.82-5-13.67-8.49-19-11.41-74.22-11.83-87.38,2.27C94.42,34.57,83.64,51.35,83.58,66.09Z"/>
      <path class="cls-3" d="M240.88,18.45c4-3.52,13.43-5.56,21.59-3a26.09,26.09,0,0,1,5.08,2.48c1.05.63,2.16,1.36,3.31,2.13,3.37,2.29,7,5.07,10.12,7.62A52.28,52.28,0,0,1,288.61,35a11.11,11.11,0,0,0,1.94.2c-.85-2.37-2.11-4.93-6.8-8.52-3.41-2.61-6.36-5.13-9.15-7.3-.4-.32-.8-.62-1.19-.91-1.28-1-2.53-1.84-3.77-2.63-6.37-4.06-12.51-5.64-21.52-2.46A17.34,17.34,0,0,0,240.88,18.45Z"/>
      <path class="cls-4" d="M47.72,104.21h0a62.78,62.78,0,0,1,7.17-.37c10.63,0,21.18-5.22,29.08-10.47a94.58,94.58,0,0,0,8.85-6.6c0-1.51,0-2.34,0-2.34l-1.68-9.1c-3,4.88-14,20.11-32.84,21.33a72.38,72.38,0,0,0-10.73,1.44,21.43,21.43,0,0,1-.49,2.19C46.75,101.73,46.43,103.17,47.72,104.21Z"/>
      <path class="cls-5" d="M41.68,87.44l.21.1c1.33.53,2.6.22,3.23,1.94A26.56,26.56,0,0,0,45.58,94l1.14,1.88c.66,1.21.89,1.62.83,2.22a72.38,72.38,0,0,1,10.73-1.44c18.85-1.22,29.81-16.45,32.84-21.33l-1.54-8.28-.07,0-.86-.55a3.34,3.34,0,0,1-1,.24,32.07,32.07,0,0,1-3.88-.11c-1.52,0-5.89-.7-5.24,2.1.23,1,3.09,3.55,2.35,4.29-.53.59-2.5.14-3.18.14-1.59,0-3.58-.43-5,.36a8.44,8.44,0,0,1-.07,3c-.56,1.49-2,1-3.32,1-1.51,0-3.07-.09-4.58,0-1.22,0-1.43.42-1.41,1.54s.47,2.21-.91,2.73a13.25,13.25,0,0,1-3.33.13q-3.28,0-6.58,0c-1.4,0-2.81,0-4.23,0a.91.91,0,0,0-1.14.53c-.74,1.19.23,2.46,1,3.24-.42,1-1.33,1.24-2.44,1.51A17,17,0,0,1,41.68,87.44Z"/>
      <path class="cls-6" d="M205.8,75.59c.5,8.75,4.79,18.45,8.58,23.89s11.86,4,14.89,3.08,6.61,1.18,6.37,0A6.27,6.27,0,0,0,230.09,98c-3.59-.17-7-6.92-4-11.88s7.95-13.48,7.95-13.48c1.7-5.22,1.15-8.37-.72-10,0,0-1.69,16.31-14.69,19.67C208.58,84.91,207.05,76.42,208,71,206.56,72.61,205.72,74.21,205.8,75.59Z"/>
      <path class="cls-6" d="M93.29,82.3c2.5,10.29,8.67,19.57,19.88,19.57s16.08-.31,19.74-1,8,2.64,5.85,0-3.42-3.61-7.88-3.61S126.33,93.39,129,90s14.38-17.55,11.21-26.69c-1.64-4.75-5.86-7.61-9.54-9.27,0,0,12.95,12.35-3.13,26S91.82,85.43,94.81,69A22,22,0,0,0,93.29,82.3Z"/>
      <path class="cls-5" d="M83.58,66.09v.16a26.69,26.69,0,0,0,1.06,7.49c8.53,8.26,36.81-3.49,36.81-15.29,0-5.88,3.71-5.52,9.48-3.43,6.8-1,15.1,2.45,22,6.92,9.14,6,49.93,8.66,49.93,8.66s13.31,1.84,24.41-.35,18.85-26.41,18.85-26.41c4.72-6.61,9.6-9.66,13.89-9.74-2.78-8.32-10-18-11.65-20.11l-.32-.41s-1.32.61-3.44,1.71c.13.36.24.71.35,1.07-.55.36-1.12.74-1.72,1.12,0,0-18,13.07-21.94,18.23-1.72,2.29-4.93,2.17-8.93.69a47.76,47.76,0,0,1-6.72-3.2c-3.42-1.91-7.07-4.25-10.67-6.6-11-7.17-55.44-15.13-77.87-8.22C94.91,25.2,83.7,62.37,83.58,66.09Z"/>
      <path class="cls-4" d="M86.1,78.5,87,83.09s0,.42,0,1.18c1.38-1.15,2.17-1.93,2.17-1.93,7.73,9.76,18.1,5.33,24,5.33,6.82,0,23.15-14,25.59-17.4s47.63,5.22,56.9,9.61,33.09,4.38,40.43-7.31S250.61,51.9,259,44.92c2.7-2.25,2.5-6.33,1-10.82-4.29.08-9.16,3.13-13.87,9.74,0,0-7.78,24.22-18.86,26.41s-24.41.34-24.41.34-40.79-2.7-49.93-8.65c-8.26-1-16.15-4.81-22-6.93a13.06,13.06,0,0,0-6.19,2.57c-7.32,5.72,8.77,16.69-10.24,20.16s-28,0-28,0S86.39,78,86.1,78.5Z"/>
      <path class="cls-4" d="M130.93,55c5.81,2.1,13.7,5.95,22,6.92C146,57.47,137.73,54,130.93,55Z"/>
      <path class="cls-5" d="M85.32,74.32l.78,4.18c.29-.48.44-.76.44-.76s8.95,3.47,28,0,2.92-14.44,10.24-20.16A13.06,13.06,0,0,1,130.93,55c-5.77-2.08-9.48-2.44-9.48,3.43C121.45,70,94.57,81.4,85.32,74.32Z"/>
      <path class="cls-4" d="M199.46,76.38c.5,8.75,4.79,18.45,8.58,23.89s11.86,4,14.89,3.08,6.61,1.18,6.36,0a6.24,6.24,0,0,0-5.54-4.56c-3.59-.17-7-6.91-4-11.88s8-13.48,8-13.48c1.7-5.22,1.15-8.37-.72-10,0,0-1.69,16.31-14.69,19.67-10.08,2.61-11.61-5.88-10.66-11.31C200.22,73.4,199.37,75,199.46,76.38Z"/>
      <path class="cls-4" d="M87,83.09c2.5,10.29,8.67,19.57,19.88,19.57s16.08-.31,19.74-1,8,2.65,5.85,0S129,98,124.54,98s-4.55-3.84-1.87-7.21,14.38-17.55,11.21-26.69c-1.65-4.75-5.86-7.61-9.54-9.27,0,0,12.95,12.35-3.13,26S85.48,86.22,88.47,69.76A22,22,0,0,0,87,83.09Z"/>
      <path class="cls-5" d="M212.32,83.09c13-3.36,14.69-19.67,14.69-19.67-5-4.48-19.73,2.08-25.35,8.36C200.71,77.21,202.24,85.7,212.32,83.09Z"/>
      <path class="cls-5" d="M121.21,80.85c16.08-13.65,3.13-26,3.13-26a29,29,0,0,0-6.31-2c-16.79,0-25.89,8.29-29.56,16.94C85.48,86.22,105.12,94.5,121.21,80.85Z"/>
      <path class="cls-5" d="M240.07,41.91c3.18,1.61,11,2.55,19.28,2.69a107,107,0,0,0,16.14-.82c11.7-1.65,12.68-6.39,12.68-6.39a8.28,8.28,0,0,1,2.58-1.5,6.45,6.45,0,0,0-.2-.68,11.11,11.11,0,0,1-1.94-.2A52.28,52.28,0,0,0,281,27.67c-3.16-2.55-6.75-5.33-10.12-7.62-1.15-.77-2.26-1.5-3.31-2.13a26.09,26.09,0,0,0-5.08-2.48c-8.16-2.55-17.58-.51-21.59,3h0l0,0C235.17,25,233.59,35.52,240.07,41.91Z"/>
      <path class="cls-5" d="M264.45,31.77c.78,8.78,9.46,3.91,11.65,0a10.43,10.43,0,0,1,4.88-4.1c-3.15-2.55-6.75-5.33-10.12-7.62C267.3,22.55,264,26.44,264.45,31.77Z"/>
      <path class="cls-4" d="M255.06,47.38c.68,0,1.38.06,2.09.06,0,0,22.33,2,28.86-3.37,3.5-2.85,5.43-5.26,4.74-8.18a8.28,8.28,0,0,0-2.58,1.5s-1,4.74-12.68,6.39a106.85,106.85,0,0,1-16.14.83,11.64,11.64,0,0,1-2.5,1.79Z"/>
      <path class="cls-4" d="M240.07,41.91c3.05,3,7.91,5.13,15,5.47l1.79-1a11.64,11.64,0,0,0,2.5-1.79C251.07,44.46,243.25,43.52,240.07,41.91Z"/>
      <path class="cls-5" d="M249,23.23c.32-.41.73-.9,1.21-1.42-3.55-2.22-3.88-10.56.8-9.09a10.25,10.25,0,0,1,5.75,4c.59-.31,1.21-.59,1.85-.86-2-2.67-9.25-6.77-11.83-5.38C243.16,12.46,246.43,20.94,249,23.23Z"/>
      <path class="cls-7" d="M289.19,32.79s2.77.21,2.95,2.4-1.34,4.57-2.95,3.29S284.59,32.21,289.19,32.79Z"/>
      <path class="cls-4" d="M250.19,21.81a24,24,0,0,1,6.55-5.06,10.25,10.25,0,0,0-5.75-4C246.31,11.25,246.64,19.59,250.19,21.81Z"/>
      <circle class="cls-7" cx="270.83" cy="29.68" r="5.22"/>
      <path class="cls-7" d="M267.82,30.28a3.63,3.63,0,1,0,3.63-3.63A3.63,3.63,0,0,0,267.82,30.28Z"/>
      <path class="cls-2" d="M268.6,27.08a1.28,1.28,0,1,1,1.28,1.28A1.28,1.28,0,0,1,268.6,27.08Z"/>
      <path class="cls-8" d="M37.53,111.53s-2.93-5.78,10.21-7.31h0c-1.29-1-1-2.48-.66-3.91a21.43,21.43,0,0,0,.49-2.19C33.33,101.16,29,107.79,37.53,111.53Z"/>
      <path class="cls-9" d="M10.44,108.35a7.57,7.57,0,0,1,0,2.73c-.06.82-.69,1.93-.36,2.76.47,1.15,1.72.81,2.68,1.08a.69.69,0,0,1,.15.07,10.84,10.84,0,0,0,4.3,3.31c14.49,6.77,49.27,11.58,41.53,4.82-6.46-5.63-16.93-10-20.22-11.2l-.12,0c-.19-.08-.39-.13-.58-.21l-.32-.13c-8.49-3.74-4.2-10.37,10-13.42.06-.6-.17-1-.83-2.22L45.58,94a26.56,26.56,0,0,1-.46-4.53c-.63-1.72-1.9-1.41-3.23-1.94l-.21-.1c-1.76,0-3.54-.13-5.21-.06a27.8,27.8,0,0,0-7,1.12c-1.25.37-3.09.6-4.18,1.36.48.81,1.61.89,2.07,1.63a2,2,0,0,1-.33,2.09c-.48.39-1.25.13-1.83.42a13.71,13.71,0,0,0-2,1.28c-1.44,1.22-2.75,2.57-4.65,3a16.79,16.79,0,0,0-2.54.69c-1.92.64-4.34,1-5.9,2.35.37.77,1.83,1.75,1.38,2.79-.37.79-1.46.91-2,1.72C8.59,107.36,10,107.11,10.44,108.35Z"/>
    </g>
  </g>
</svg>
