<svg id="Layer_1" data-name="Layer 1" xmlns="http://www.w3.org/2000/svg" width="282.64" height="368.43" viewBox="0 0 282.64 368.43">
  <defs>
    <style>
      .cls-1 {
        fill: #fffa4d;
      }

      .cls-2 {
        fill: #f59247;
      }

      .cls-3 {
        fill: #f8ac66;
      }

      .cls-4 {
        fill: #7d7d7d;
      }

      .cls-5 {
        fill: #4a4a4a;
      }

      .cls-6 {
        fill: #5c5c5c;
      }

      .cls-7 {
        fill: #858585;
      }

      .cls-8 {
        fill: #999;
      }

      .cls-9 {
        fill: #616161;
      }

      .cls-10 {
        fill: none;
        stroke: #737373;
        stroke-miterlimit: 10;
        stroke-width: 2px;
      }

      .cls-11 {
        fill: #3d3d3d;
      }

      .cls-12 {
        fill: #4d4d4d;
      }
    </style>
  </defs>
  <g>
    <path class="cls-1" d="M243.25,368.06c-52.84,0-93.74-73.46-95.45-76.59a7.94,7.94,0,0,1-.75-5.76,7.67,7.67,0,0,1,.58-1.71l2.27-4.81a8,8,0,0,1,2.75-3.21L171,263.55a7.93,7.93,0,0,1,3.42-1.3l1.42-.19c-3.55-4.56-5.81-7.51-5.84-7.56a8,8,0,0,1-1.27-2.43L63.39,96.21c-.38-.46-.72-.9-1-1.36L57.69,88c-12.83-1.25-28-4-35.07-9.89C14.24,71,4.67,57,3.6,55.43a14.21,14.21,0,0,1-2.32-10,13.26,13.26,0,0,1,5.64-9.07L56.82,2.6A13.1,13.1,0,0,1,64.16.37,14,14,0,0,1,75.53,6.3a2.62,2.62,0,0,1,.24.34c1.07,1.57,10.49,15.67,13.92,26.07,2.86,8.65-.23,23.64-3.79,35.89L196.72,232.51a8.17,8.17,0,0,1,2.25,2.43c0,.05,2,3.4,5,8.59l.64-1.35a8.05,8.05,0,0,1,2.75-3.21l18.38-12.43a8,8,0,0,1,3.42-1.3l4.91-.66a9.43,9.43,0,0,1,1.06-.07,8,8,0,0,1,6.63,3.53l.69,1c3.58,4.54,19.44,25.35,29.75,50.44,14.12,34.37,12.09,63-5.86,82.81a8.16,8.16,0,0,1-3.15,2.13,57.37,57.37,0,0,1-20,3.62ZM28.75,55.26a60.6,60.6,0,0,0,6.91,7.33c1,.75,4.25,2,10,3.14a17,17,0,0,1,1.61-8.08,16.73,16.73,0,0,1,5.82-6.83l.24-.16a16.83,16.83,0,0,1,16.42-1.47c1-5.59,1.09-9,.75-10.15a58.87,58.87,0,0,0-4.22-9.13Z"/>
    <g>
      <g>
        <path class="cls-2" d="M177.86,250.57,55.47,69.55a8.87,8.87,0,0,1,14.7-9.93l122.39,181Z"/>
        <path class="cls-3" d="M177.55,250.77,55.16,69.76a8.89,8.89,0,0,1,2.38-12.32L184.9,245.81Z"/>
      </g>
      <g>
        <polygon class="cls-4" points="215.77 259.53 241.61 242.06 235.16 232.51 230.25 233.17 211.87 245.6 209.6 250.41 215.77 259.53"/>
        <polygon class="cls-4" points="161.03 296.54 186.88 279.06 180.42 269.52 175.52 270.18 157.13 282.61 154.86 287.42 161.03 296.54"/>
        <path class="cls-5" d="M154.81,287.63l40.33-27.27,40.32-27.26s65.23,79.44,25,123.84C204.24,377.76,154.81,287.63,154.81,287.63Z"/>
        <path class="cls-6" d="M154.81,287.63l40.33-27.27,65.3,96.58C204.24,377.76,154.81,287.63,154.81,287.63Z"/>
        <path class="cls-7" d="M184.29,244.31l7.8-5.28s36.3,61,36.8,71.25c-9.31-4.28-52.41-60.69-52.41-60.69Z"/>
        <path class="cls-8" d="M176.4,249.65s43.09,56.41,52.41,60.69c-14.53-21.9-44.61-66-44.61-66Z"/>
        <g>
          <circle class="cls-9" cx="193.54" cy="257.99" r="2.16"/>
          <line class="cls-10" x1="192.04" y1="257.74" x2="195.04" y2="258.25"/>
          <line class="cls-10" x1="193.8" y1="256.49" x2="193.28" y2="259.5"/>
        </g>
        <g>
          <circle class="cls-9" cx="187.58" cy="249.18" r="2.16" transform="translate(-36.51 32.25) rotate(-8.96)"/>
          <line class="cls-10" x1="186.08" y1="248.92" x2="189.08" y2="249.44"/>
          <line class="cls-10" x1="187.84" y1="247.68" x2="187.32" y2="250.68"/>
        </g>
      </g>
      <path class="cls-11" d="M69.14,11.12A5.71,5.71,0,0,0,61.3,9.23L11.4,43a5.71,5.71,0,0,0-1.17,8h0a5.72,5.72,0,0,0,7.84,1.88L68,19.09a5.7,5.7,0,0,0,1.17-8Z"/>
      <path class="cls-11" d="M13.74,48.58,10.23,51c.4.59,9.85,14.5,17.55,21,7.87,6.64,34,8.37,36.91,8.55l.25-4.23c-7.63-.45-28.67-2.69-34.43-7.55C23.25,62.59,13.83,48.72,13.74,48.58Z"/>
      <path class="cls-11" d="M65.64,13.48c.09.14,9.46,14.06,12.43,23.07,2.37,7.15-3.39,27.52-5.81,34.76l4,1.34c.94-2.8,9-27.65,5.82-37.43-3.15-9.57-12.55-23.52-13-24.11Z"/>
      <path class="cls-11" d="M69.76,91.21a8.85,8.85,0,0,1-.7-.89L55.17,69.77a9.05,9.05,0,0,1,15-10.14l13.9,20.55a9.38,9.38,0,0,1,.56,1Z"/>
      <path class="cls-12" d="M69.68,91.26l7.44-5L57.62,57.39a9,9,0,0,0-2.53,12.43L69,90.37A8.78,8.78,0,0,0,69.68,91.26Z"/>
    </g>
  </g>
</svg>
