<svg id="Layer_1" data-name="Layer 1" xmlns="http://www.w3.org/2000/svg" width="195" height="300" viewBox="0 0 195 300">
  <defs>
    <style>
      .cls-1 {
        fill: #050505;
        opacity: 0.5;
      }

      .cls-2 {
        fill: #fff;
      }

      .cls-3, .cls-5 {
        fill: #fbd3c7;
      }

      .cls-13, .cls-15, .cls-16, .cls-3, .cls-47, .cls-5, .cls-9 {
        stroke: #453323;
      }

      .cls-10, .cls-11, .cls-13, .cls-14, .cls-15, .cls-16, .cls-17, .cls-18, .cls-20, .cls-27, .cls-28, .cls-3, .cls-47, .cls-5, .cls-9 {
        stroke-miterlimit: 10;
      }

      .cls-13, .cls-15, .cls-16, .cls-17, .cls-18, .cls-3, .cls-9 {
        stroke-width: 0.5px;
      }

      .cls-4 {
        fill: #e4a68d;
      }

      .cls-6 {
        fill: #161616;
      }

      .cls-7 {
        fill: #303030;
      }

      .cls-8 {
        fill: #f8e1db;
      }

      .cls-9 {
        fill: #bcd0eb;
      }

      .cls-10, .cls-18 {
        fill: #3096d2;
        stroke: #2c3581;
      }

      .cls-11 {
        fill: #864a30;
        stroke: #68321e;
      }

      .cls-12, .cls-13 {
        fill: #f6e982;
      }

      .cls-14 {
        fill: #2455a3;
        stroke: #2d2b7a;
      }

      .cls-15, .cls-47 {
        fill: none;
      }

      .cls-16 {
        fill: #7595cc;
      }

      .cls-17 {
        fill: #d6e5f5;
        stroke: #395a72;
      }

      .cls-19 {
        fill: #2c3581;
      }

      .cls-20 {
        fill: #d95c78;
        stroke: #8d2338;
      }

      .cls-21, .cls-27 {
        fill: #d6ebf4;
      }

      .cls-22 {
        fill: #98784d;
      }

      .cls-23 {
        fill: #ba7e70;
      }

      .cls-24 {
        fill: #dee8ee;
      }

      .cls-25 {
        fill: #580d0d;
      }

      .cls-26 {
        fill: #a04c43;
      }

      .cls-27 {
        stroke: #98784d;
      }

      .cls-28 {
        fill: #3f1d1d;
        stroke: #221f1f;
      }

      .cls-29 {
        fill: #431b15;
      }

      .cls-30 {
        fill: #c48a74;
      }

      .cls-31 {
        fill: #451e15;
      }

      .cls-32 {
        fill: #7a4922;
      }

      .cls-33 {
        fill: #841212;
      }

      .cls-34 {
        fill: #590c02;
      }

      .cls-35 {
        fill: #d9d9d9;
      }

      .cls-36 {
        fill: #f5f5f5;
      }

      .cls-37 {
        fill: #881313;
      }

      .cls-38 {
        fill: #bd1622;
      }

      .cls-39 {
        fill: #cd1625;
      }

      .cls-40 {
        fill: #005087;
      }

      .cls-41 {
        fill: #b1b1b1;
      }

      .cls-42 {
        fill: #630e05;
      }

      .cls-43 {
        fill: #9c1519;
      }

      .cls-44 {
        fill: #c6c6c5;
      }

      .cls-45 {
        fill: #d04240;
      }

      .cls-46 {
        fill: #ececec;
      }
    </style>
  </defs>
  <g>
    <path class="cls-1" d="M51.72,298.72a36.57,36.57,0,0,1-7.32-.78c-6.07-1.24-10.17-3.94-12.19-8a12.55,12.55,0,0,1-.34-10.15c0-.24.1-.49.16-.74a14.31,14.31,0,0,1,7.31-9.18L43,267.93c.21-.21.44-.41.66-.59l.21-.28a13.51,13.51,0,0,1,1.47-7,11.84,11.84,0,0,1,3.6-4.1l.36-1.19a8.57,8.57,0,0,1,.39-3.36l.95-2.93A8.61,8.61,0,0,1,52,245.92L53.44,241a7.87,7.87,0,0,1,.71-4.41c.26-.93,1.11-4.4,2.79-15.1a148.51,148.51,0,0,1,3.63-17.43l.17-1.4a19.54,19.54,0,0,1-1.3-2.2,8,8,0,0,1-.63-5.58L61.29,185l-1.09.65a71.1,71.1,0,0,1-13.8,10.48,11,11,0,0,1,2.52,5,10.09,10.09,0,0,1-2,8.51,10.74,10.74,0,0,1-8.26,3.95,11.2,11.2,0,0,1-1.3-.08,13.56,13.56,0,0,1-5.65,7A10.3,10.3,0,0,1,26.51,222a8.85,8.85,0,0,1-5.46-1.85,10,10,0,0,1-1.11.06l-.81,0a8.82,8.82,0,0,1-6.94-4.33,9.53,9.53,0,0,1-.53-1.06l0,0a8.84,8.84,0,0,1-1.85-2.91,8.94,8.94,0,0,1-3.32-5.5c-.8-4.51,2-7.91,3.28-9.54l0,0c.15-.3.28-.59.42-.88A19.33,19.33,0,0,1,14.92,189l.18-.15a11.6,11.6,0,0,0,1.34-1.28c.1-.15.19-.33.28-.5A16.5,16.5,0,0,1,19,183.76l.31-.35,6.3-7.64a83.58,83.58,0,0,1,15.63-15.13l.6-.43.34-.22c.47-.31.92-.6,1.36-.87l.62-.41a8.1,8.1,0,0,1,1-2.69C48,151.49,57,145.08,65.32,139.82a44.37,44.37,0,0,1-9.24-5.89,14.47,14.47,0,0,1-4.88.84c-5.67,0-11.08-3.08-15.23-8.68-1.29-1.75-6.7-9.56-6.07-17.14A24.69,24.69,0,0,1,22,97.74C16.3,93.25,9.61,84.25,12,71.9a23.78,23.78,0,0,1-1.74-16c1.56-6,5.57-11,11.93-14.89,1.45-8.58,6.09-19.63,16.89-23.34C42.85,14,52.06,6.28,64.2,6.28A29.74,29.74,0,0,1,76.43,9a29.13,29.13,0,0,1,9.74-1.7c5.28,0,13,1.51,20.81,8.45,6.47,2,15.49,7.17,17.84,16.75a15.8,15.8,0,0,1,6.66,7.78,15,15,0,0,1,.29,9.72,15,15,0,0,1,2.91,6.23c.62,3,.53,7.4-2.78,12.43l.08.65a14.31,14.31,0,0,1,2.51,2.25l.46-.57c.23-.29.46-.59.68-.89l.18-.24c.23-.31.48-.67.73-1l.74-1.1.26-.39c.17-.26.71-1.13.71-1.13.21-.33.41-.67.61-1l.6-1.07.66-1.24.44-.86.44-.92.23-.5.44-1,.39-.93c.3-.71.57-1.43.82-2.13,0,0,.33-.94.34-1,.25-.75.48-1.51.69-2.26,0,0,.19-.69.25-.94l.29-1.21c.06-.26.18-.86.18-.86l.15-.9.08-.55c0-.17,0-.3.06-.44a8.13,8.13,0,0,1,3.43-5.89h0A8.42,8.42,0,0,1,153.09,41c3.21,0,6.51,0,20,18.44a17,17,0,0,1,8,5.39l.12.15.18.23c.2.26.4.52.58.8a16.81,16.81,0,0,1,2.95,10.85c2.5,4,4.56,7.61,6,10.5,1.71,3.4,5.73,11.35-.83,15.85a8.31,8.31,0,0,1-4.73,1.46h0A8.88,8.88,0,0,1,182,104l-.66-.13-.68-.11c-.73-.11-1.51-.2-2.32-.28h-.09l-.81-.07-1-.06-1.09,0h-1.38c-1.2,0-2.41,0-3.6.12h0l-1.27.1h-.08l-1.27.14-1.06-7.93,1,7.94-1.18.16c-.86.12-1.78.28-2.7.46a10,10,0,0,1,.8.62,10.87,10.87,0,0,1,7.57,4.28,12.67,12.67,0,0,1,3.58,4.22,8,8,0,0,1,1,4,11.84,11.84,0,0,1-.31,3,11.25,11.25,0,0,1-2.81,5,78.06,78.06,0,0,1-7.15,10.52c-4.46,11.1-12.59,17-19.58,20.51a35.47,35.47,0,0,1-2.11,5.89,8,8,0,0,1-6.69,4.63l-11.24.82.1,2.76L131,194a8,8,0,0,1-.83,5.2,27.88,27.88,0,0,1-3.08,4.35,12.61,12.61,0,0,1,.86,6.9c-.26,1.74-1.81,17.7-3.12,31.82a7.94,7.94,0,0,1-1.62,4.12,23.62,23.62,0,0,1-9.27,6.76,13.23,13.23,0,0,1-1,5.78,9.88,9.88,0,0,1,1,1.92,9.26,9.26,0,0,1,3.23,1C128,265,130.6,271,131.13,274.62a12.79,12.79,0,0,1-.77,8.75,8.66,8.66,0,0,1-.76,1.23c-3.11,4.18-9,6.13-18.54,6.13a71,71,0,0,1-13.37-1.22,136,136,0,0,1-14.12-4.3,8,8,0,0,1-4.4-3.89A15.82,15.82,0,0,1,77.73,272a10.87,10.87,0,0,1-.64,1l.23,6.48a7.91,7.91,0,0,1-.72,3.62,8,8,0,0,1-2,4.37,10.91,10.91,0,0,1-5.08,3.08C66.82,295,60.56,298.72,51.72,298.72Zm29.5-43.81c0,.32,0,.63,0,1l.19-.15a6.36,6.36,0,0,1,.06-.87h-.18A.14.14,0,0,0,81.22,254.91Zm53.33-125.77a21.79,21.79,0,0,1-2.22-5.12c0-.14-.07-.28-.11-.41a47.8,47.8,0,0,1-3.16,4.67Z"/>
    <path class="cls-2" d="M46.72,293.72a36.57,36.57,0,0,1-7.32-.78c-6.07-1.24-10.17-3.94-12.19-8a12.55,12.55,0,0,1-.34-10.15c0-.24.1-.49.16-.74a14.31,14.31,0,0,1,7.31-9.18L38,262.93c.21-.21.44-.41.66-.59l.21-.28a13.51,13.51,0,0,1,1.47-7,11.84,11.84,0,0,1,3.6-4.1l.36-1.19a8.57,8.57,0,0,1,.39-3.36l.95-2.93A8.61,8.61,0,0,1,47,240.92L48.44,236a7.87,7.87,0,0,1,.71-4.41c.26-.93,1.11-4.4,2.79-15.1a148.51,148.51,0,0,1,3.63-17.43l.17-1.4a19.54,19.54,0,0,1-1.3-2.2,8,8,0,0,1-.63-5.58L56.29,180l-1.09.65a71.1,71.1,0,0,1-13.8,10.48,11,11,0,0,1,2.52,5,10.09,10.09,0,0,1-2,8.51,10.74,10.74,0,0,1-8.26,3.95,11.2,11.2,0,0,1-1.3-.08,13.56,13.56,0,0,1-5.65,7A10.3,10.3,0,0,1,21.51,217a8.85,8.85,0,0,1-5.46-1.85,10,10,0,0,1-1.11.06l-.81,0a8.82,8.82,0,0,1-6.94-4.33,9.53,9.53,0,0,1-.53-1.06l0,0a8.84,8.84,0,0,1-1.85-2.91,8.94,8.94,0,0,1-3.32-5.5c-.8-4.51,2-7.91,3.28-9.54l0,0c.15-.3.28-.59.42-.88A19.33,19.33,0,0,1,9.92,184l.18-.15a11.6,11.6,0,0,0,1.34-1.28c.1-.15.19-.33.28-.5A16.5,16.5,0,0,1,14,178.76l.31-.35,6.3-7.64a83.58,83.58,0,0,1,15.63-15.13l.6-.43.34-.22c.47-.31.92-.6,1.36-.87l.62-.41a8.1,8.1,0,0,1,1-2.69C43,146.49,52,140.08,60.32,134.82a44.37,44.37,0,0,1-9.24-5.89,14.47,14.47,0,0,1-4.88.84c-5.67,0-11.08-3.08-15.23-8.68-1.29-1.75-6.7-9.56-6.07-17.14A24.69,24.69,0,0,1,17,92.74C11.3,88.25,4.61,79.25,7,66.9a23.78,23.78,0,0,1-1.74-16c1.56-6,5.57-11,11.93-14.89,1.45-8.58,6.09-19.63,16.89-23.34C37.85,9,47.06,1.28,59.2,1.28A29.74,29.74,0,0,1,71.43,4a29.13,29.13,0,0,1,9.74-1.7c5.28,0,13,1.51,20.81,8.45,6.47,2,15.49,7.17,17.84,16.75a15.8,15.8,0,0,1,6.66,7.78,15,15,0,0,1,.29,9.72,15,15,0,0,1,2.91,6.23c.62,3,.53,7.4-2.78,12.43l.08.65a14.31,14.31,0,0,1,2.51,2.25l.46-.57c.23-.29.46-.59.68-.89l.18-.24c.23-.31.48-.67.73-1l.74-1.1.26-.39c.17-.26.71-1.13.71-1.13.21-.33.41-.67.61-1l.6-1.07.66-1.24.44-.86.44-.92.23-.5.44-1,.39-.93c.3-.71.57-1.43.82-2.13,0,0,.33-.94.34-1,.25-.75.48-1.51.69-2.26,0,0,.19-.69.25-.94l.29-1.21c.06-.26.18-.86.18-.86l.15-.9.08-.55c0-.17,0-.3.06-.44a8.13,8.13,0,0,1,3.43-5.89h0A8.42,8.42,0,0,1,148.09,36c3.21,0,6.51,0,20,18.44a17,17,0,0,1,8,5.39l.12.15.18.23c.2.26.4.52.58.8a16.81,16.81,0,0,1,2.95,10.85c2.5,4,4.56,7.61,6,10.5,1.71,3.4,5.73,11.35-.83,15.85a8.31,8.31,0,0,1-4.73,1.46h0A8.88,8.88,0,0,1,177,99l-.66-.13-.68-.11c-.73-.11-1.51-.2-2.32-.28h-.09l-.81-.07-1-.06-1.09,0h-1.38c-1.2,0-2.41,0-3.6.12h0l-1.27.1h-.08l-1.27.14-1.06-7.93,1,7.94-1.18.16c-.86.12-1.78.28-2.7.46a10,10,0,0,1,.8.62,10.87,10.87,0,0,1,7.57,4.28,12.67,12.67,0,0,1,3.58,4.22,8,8,0,0,1,1,4,11.84,11.84,0,0,1-.31,3,11.25,11.25,0,0,1-2.81,5,78.06,78.06,0,0,1-7.15,10.52c-4.46,11.1-12.59,17-19.58,20.51a35.47,35.47,0,0,1-2.11,5.89,8,8,0,0,1-6.69,4.63l-11.24.82.1,2.76L126,189a8,8,0,0,1-.83,5.2,27.88,27.88,0,0,1-3.08,4.35,12.61,12.61,0,0,1,.86,6.9c-.26,1.74-1.81,17.7-3.12,31.82a7.94,7.94,0,0,1-1.62,4.12,23.62,23.62,0,0,1-9.27,6.76,13.23,13.23,0,0,1-1,5.78,9.88,9.88,0,0,1,1,1.92,9.26,9.26,0,0,1,3.23,1C123,260,125.6,266,126.13,269.62a12.79,12.79,0,0,1-.77,8.75,8.66,8.66,0,0,1-.76,1.23c-3.11,4.18-9,6.13-18.54,6.13a71,71,0,0,1-13.37-1.22,136,136,0,0,1-14.12-4.3,8,8,0,0,1-4.4-3.89A15.82,15.82,0,0,1,72.73,267a10.87,10.87,0,0,1-.64,1l.23,6.48a7.91,7.91,0,0,1-.72,3.62,8,8,0,0,1-2,4.37,10.91,10.91,0,0,1-5.08,3.08C61.82,290,55.56,293.72,46.72,293.72Zm29.5-43.81c0,.32,0,.63,0,1l.19-.15a6.36,6.36,0,0,1,.06-.87h-.18A.14.14,0,0,0,76.22,249.91Zm53.33-125.77a21.79,21.79,0,0,1-2.22-5.12c0-.14-.07-.28-.11-.41a47.8,47.8,0,0,1-3.16,4.67Z"/>
    <g>
      <path class="cls-3" d="M76.57,127.17s.41,2.23,1.07,5.06c1,4.23,2.48,9.81,3.9,11.33,2.37,2.53,16.93,2.21,19.5-2.79,1.42-2.79,1.26-6.39.84-9.05a25.78,25.78,0,0,0-.84-3.62,19.14,19.14,0,0,0-2.29-4c-4.25-5.54-9.9-4.67-14.44-2.47A31.53,31.53,0,0,0,76.57,127.17Z"/>
      <path class="cls-4" d="M76.57,127.17s.41,2.23,1.07,5.06c11.57,5.81,20,2.27,24.24-.51a25.78,25.78,0,0,0-.84-3.62,19.14,19.14,0,0,0-2.29-4A39.3,39.3,0,0,0,94.57,123c-2-.39-6.31-.88-10.26-1.3A31.53,31.53,0,0,0,76.57,127.17Z"/>
      <g>
        <path class="cls-5" d="M116.09,152.13c14.65-4.75,32.74-8.12,38.63-26.4l-7.5-4.32c-1.2.17-23.13,17.36-28.6,19.68"/>
        <g>
          <g>
            <g>
              <path class="cls-3" d="M51.78,157.77s-8.89-1.48-25,18.1L20,184,25.84,190s21.4-8.17,29.28-22.13S51.78,157.77,51.78,157.77Z"/>
              <polyline class="cls-3" points="41.17 161.93 52.56 154.56 57.42 151.41 68.68 163.13 59.8 168.57 50.22 174.3"/>
            </g>
            <g>
              <path class="cls-3" d="M20.17,184h0c.39-.6.39-.6-.22.11a17.9,17.9,0,0,0-1.8,2.81,15.53,15.53,0,0,1-3,3.1c-1.81,1.57-2.49,3.87-3.59,5.92-.46.85-3.48,3.62-1.75,4.66,1.12.67,2.33-.16,3.1-1.11a14.36,14.36,0,0,1-.28,1.57,12.1,12.1,0,0,0-.5,2.3c-.05,1,.83,1.35,1.63.91a4.3,4.3,0,0,0,.94-.75c-.38.81-1.54,3.53,0,3.65,2,.16,3.49-2.54,4.21-4,.62-1.26,1.1-2.57,1.72-3.82.39-.74,1-1.4,1.3-2.16a15.51,15.51,0,0,1-.18,3.82,30.58,30.58,0,0,1-.75,3c-.35,1.22-1.27,3.64-.21,4.72.51.51,1.36.13,1.85-.15,1.26-.72,1.93-2.38,2.44-3.64,1.06-2.71,1.42-6.16,3.26-8.52.68.59,1.15,1.61,1.75,2.24a6.69,6.69,0,0,0,2.73,1.8,2.45,2.45,0,0,0,3.21-2.65c-.6-2.75-4.42-3-5.4-5.61a8.9,8.9,0,0,0-.7-1.82c-.33-.5-1.61-1-.93-2.45"/>
              <path class="cls-6" d="M16.33,199.21a18.3,18.3,0,0,1-1.71,3.61,5.41,5.41,0,0,1-.5.72c-.28.48-.66.88-1.07.8.11.2.35.24.77-.09a6.35,6.35,0,0,0,1.62-1.65c.38-1,.86-2.33,1.19-3.35.42-1.36,1-2.74.71-4.16C17.08,196.42,16.73,197.83,16.33,199.21Z"/>
              <path class="cls-7" d="M13.18,199.25c.05-.27.12-.54.2-.83a32.14,32.14,0,0,1,2.93-5.94,15.16,15.16,0,0,0-2.41,3.75c-.3.74-.49,1.06-.85,1.78-.07.14-.26.72-.36.9A3.35,3.35,0,0,1,11,200.58a1.66,1.66,0,0,1-.64.25,1.07,1.07,0,0,0,1.16-.07,8.86,8.86,0,0,0,1.63-1.49Z"/>
            </g>
          </g>
          <path class="cls-3" d="M50.39,267.3c4.69,3.35,10,.84,12.85-5.49.87-2,2.07-5.12,3.3-8.54l.42-1.16c.32-.93.66-1.87,1-2.8.6-1.72,1.2-3.43,1.74-5,1.48-4.31,2.57-7.61,2.57-7.61l-15.06-2-1.53,5.06L54,245.2l-1.1,3.66-.11.37-2.38,7.88S45.68,264,50.39,267.3Z"/>
          <path class="cls-8" d="M50.81,267.3c4.48,3.35,9.6.84,12.28-5.49.83-2,2-5.12,3.15-8.54.13-.39.26-.77.4-1.16-2.75-.29-9.37-1.47-13.42-3.25l-.11.37-2.28,7.88S46.31,264,50.81,267.3Z"/>
          <path class="cls-3" d="M84.77,259c.31,5.49.46,9.23.53,11.69.22-2.65.82-5.76,2.31-6.41,5.28-2.32,10.42,3.68,11.08-3.22.34-3.61.81-9,1.24-13.65.09-1,.17-2,.24-2.87l.61-6.92-15.21-.89-.18,4.91-.08,2.22Z"/>
          <path class="cls-4" d="M85.61,241.61c5,3.36,10.61,3.39,14.31,2.9l.59-6.92-14.73-.89Z"/>
          <path class="cls-4" d="M56,239.72c3.72,4.56,10,4.85,13.55,4.59,1.43-4.31,2.49-7.61,2.49-7.61l-14.56-2Z"/>
          <path class="cls-8" d="M85.16,258.62c.3,5.36.44,9,.51,11.42.21-2.58.66-6.42,2.22-6.26,4.75.47,10,3.6,10.65-3.14.32-3.53.78-8.77,1.19-13.34.3,2.64-3.47,3.94-3.7,3.71,0,0-7.26-.69-10.19-2.87Z"/>
          <path class="cls-9" d="M51.4,267.3s4.26,1.9,7.73-.55,4.23-.51,4.18.55l.35,9.86s-.91,1-3.75,1.11a4,4,0,0,0-1.85,2.39c-.35,1.6-5.33,6.84-17.06,4.44s-5.24-10-5.24-10l6.93-3.65s4-7.42,6.53-5.42C51.07,267.51,51.4,267.3,51.4,267.3Z"/>
          <path class="cls-10" d="M86.37,225l1.07-22.53,25.77-9.33v6s2.22,2.54,1.82,4.93-3.2,32.4-3.2,32.4-5.07,6.66-16.13,5.73-10.93-4.4-10.93-4.4S86.37,225,86,225"/>
          <path class="cls-10" d="M91.57,223.81c-.67.14-2.14,2.67-6.13,1.87l-2.27,12.4s-1.47,6.53-19.73,2.66c0,0-6.53-1.86-7.07-5.73,0,0,.8-.31,3.47-17.28s5.22-21.5,5.22-21.5l26.51,5.45"/>
          <path class="cls-11" d="M114,193.15v7.47s-6.8,9.33-24.13,8.53-26.39-8.53-26.39-8.53l.89-7.47Z"/>
          <path class="cls-12" d="M80.3,136.77h25.84a0,0,0,0,1,0,0v21.58a0,0,0,0,1,0,0H70.54a0,0,0,0,1,0,0V146.53A9.76,9.76,0,0,1,80.3,136.77Z"/>
          <path class="cls-13" d="M106.83,128.7c10.31,1.58,25.35,4,25.35,4s5.77,9.2.18,21.33l-18.87,1.38-11.37-19.8A4.62,4.62,0,0,1,106.83,128.7Z"/>
          <path class="cls-13" d="M73.5,136.16s-23,13.47-26.5,19.07c0,0,11.57,8.92,22.68,11"/>
          <path class="cls-13" d="M112.79,138.19l1,28.22,4.27,23.94s-6.94,12.93-25.6,13.73c0,0-24.54.27-30.93-12.26L71,154.18"/>
          <path class="cls-14" d="M82.11,176c.13.39.26.78.4,1.15h0c4.32,11.85,11.41,17.77,11.41,17.77a63,63,0,0,0,5.58-7.54,36,36,0,0,0,1.88-3.37,14.77,14.77,0,0,0,1.52-4.29c-.07-1.47-.18-2.89-.31-4.26s-.25-2.51-.4-3.69c-.44-3.39-1-6.39-1.61-9-.31-1.33-.64-2.56-1-3.71-2.14-7.38-4.44-11-4.35-11.48.26-1.52-6.31-1-6.31-1a49.67,49.67,0,0,1-1,7.6c-.16.86-.34,1.72-.53,2.6-.56,2.52-1.2,5.09-1.85,7.5l-.68,2.46c-.82,2.92-1.6,5.45-2.13,7.13C82.37,175.21,82.11,176,82.11,176Z"/>
          <path class="cls-15" d="M52,168.93a19.15,19.15,0,0,0-8.82-1.3"/>
          <g>
            <path class="cls-9" d="M99.12,261c-.43-.15.31,3.39-1.55,5s-11.2-.36-13.69-4.62V259s-3.67-.72-1.19,4.35a21.57,21.57,0,0,0-1.94,4.44,7.5,7.5,0,0,0,.55,4.89,132.39,132.39,0,0,0,13.07,4c5,1.07,20.71,2.31,23.81-1.86,0,0,3.49-7-10.64-9.6,0,0-5.44.71-6-.09S103.32,262.45,99.12,261Z"/>
            <path class="cls-16" d="M80.86,260.43a5.68,5.68,0,0,1,.54,4.35,8.06,8.06,0,0,0-.34,2.06h0a11,11,0,0,0,0,1.56,2,2,0,0,0,1.36,1.76,120.34,120.34,0,0,0,11.91,3.59c5,1.07,20.71,2.31,23.81-1.87a2.23,2.23,0,0,0,.07-.67h0c0-1.45-1-4.93-9.62-7.08l-1.11-.27-.65-.13-.52-.11-.52-.1-.71-.12-.54-.09c-.45-.09-1-.21-1.43-.35h0a4.51,4.51,0,0,1-1.36-.57,1.11,1.11,0,0,1-.19-.18,1,1,0,0,1-.06-.6c.17-1.18,1.2-3.39-2.26-4.55-.43-.14,1.17,3.23-1.85,5.33-4.65,3.21-9.53,1-12.28-2.19-.82-.95-.24-1.81-.24-3.06v-1S79.26,255.45,80.86,260.43Z"/>
            <path class="cls-15" d="M80.52,259.53a9.57,9.57,0,0,0,1.12,2.21,6.64,6.64,0,0,0,3.23,2.65"/>
            <path class="cls-15" d="M101.61,261a7.86,7.86,0,0,1-3.16,4.44"/>
          </g>
          <path class="cls-16" d="M52.06,264.93s4.27,1.91,7.74-.54a12.71,12.71,0,0,0,4.44-4.86,2.17,2.17,0,0,1,1.88,2.39A3.23,3.23,0,0,1,65,264.05l-1,.88.36,9.87a4.4,4.4,0,0,1-3.82,1.89,1.9,1.9,0,0,0-1.78,1.6c-.36,1.6-5.33,6.84-17.06,4.44-6.71-1.37-7.46-4.42-6.88-6.79a6.38,6.38,0,0,1,3.27-4l5.3-2.78s4.08-2.22,3.91-5.16c0,0-2.06-5.93,2.85-7.24a.26.26,0,0,1,.3.37c-.78,1.34-2.62,5-.53,6.61C51.73,265.15,52.06,264.93,52.06,264.93Z"/>
          <path class="cls-17" d="M45.2,267c-.15.42,1.83-.12,4.33.78s4.9,2.28,5.06,1.85-2-2.52-4.53-3.42S45.36,266.52,45.2,267Z"/>
          <path class="cls-17" d="M100.94,267.24c.3.34.79-.68,2.44-2.14s2.19-1.65,1.89-2-1.35-.7-3,.76S100.64,266.9,100.94,267.24Z"/>
          <path class="cls-17" d="M103.53,268.29c.3.34.78-.69,2.44-2.14s2.83-1.87,2.53-2.21-2-.48-3.65,1S103.23,267.94,103.53,268.29Z"/>
          <path class="cls-17" d="M43.43,268.86c-.16.42,1.83-.12,4.32.78s4.9,2.28,5.06,1.85-2-2.52-4.53-3.42S43.58,268.43,43.43,268.86Z"/>
          <path class="cls-15" d="M64.6,264.39c0-.13-.48.43-.58.51-.76.63-1.42,1.37-2.23,1.94A6.53,6.53,0,0,1,57.66,268"/>
          <path class="cls-15" d="M47.08,263a2.69,2.69,0,0,0,.78,1.51,5.56,5.56,0,0,0,1.41,1"/>
          <path class="cls-13" d="M52.47,249.49c1.86,1.52,6.15,4,14.12,3.79a.6.6,0,0,0,.54-.37c.34-.91.7-1.82,1.05-2.74a.58.58,0,0,0-.58-.78,22.19,22.19,0,0,1-13.5-3.76.58.58,0,0,0-.87.3l-1,2.93A.59.59,0,0,0,52.47,249.49Z"/>
          <path class="cls-13" d="M100.9,248.26a.54.54,0,0,0-.84-.4c-1.32.89-4.65,2.33-11.36,1a8.21,8.21,0,0,1-3.11-1.3.53.53,0,0,0-.86.36l-.37,2.89a.53.53,0,0,0,.3.55,18.72,18.72,0,0,0,15.16.41.72.72,0,0,0,.2-.14A4.4,4.4,0,0,0,100.9,248.26Z"/>
          <path class="cls-18" d="M81.62,203.34h0c-.08.21-.29,4.8-.31,5l0,0,2.11.48,0,0,.35-5.23A14.65,14.65,0,0,0,81.62,203.34Z"/>
          <path class="cls-18" d="M100,203.13c-.26,0-1.84.42-1.84.42s0,5.57,0,5.57l2.36-.44Z"/>
          <path class="cls-8" d="M87.45,156.78a46.14,46.14,0,0,1,12.74,5.95c-.31-1.33-.68-2.71-1-3.86A53,53,0,0,0,88,154.18C87.82,155,87.64,155.9,87.45,156.78Z"/>
          <path class="cls-8" d="M85.26,167c4.73,1.85,12.55,5.21,17,8.52-.11-1.28-.27-2.75-.42-3.93A66.89,66.89,0,0,0,86,164.39C85.71,165.23,85.48,166.15,85.26,167Z"/>
          <path class="cls-8" d="M82.49,176c.14.39.27.88.41,1.26h0c4.66,2.07,11.87,5.61,16.34,9.88a37.84,37.84,0,0,0,1.83-3.33,96.62,96.62,0,0,0-18-9.84C82.69,175.3,82.49,176,82.49,176Z"/>
          <path class="cls-19" d="M95.65,211.28A24.38,24.38,0,0,1,94.22,223a65.91,65.91,0,0,1,1.43-11.76Z"/>
          <path class="cls-19" d="M70.64,206.47l-.88.18.15-.13a8,8,0,0,1-2.51,4.93,7.58,7.58,0,0,1-5,2.18,14.18,14.18,0,0,0,4.36-2.89,13.22,13.22,0,0,0,2.88-4.29l.05-.14h.1Z"/>
          <path class="cls-14" d="M96.77,141.43c-.75-.28-3.38-2.13-8.71-.36s1.33,7.56,1.33,7.56h5.87S103.08,143.74,96.77,141.43Z"/>
          <path class="cls-13" d="M101,128.1c.62.44,4.62,4.33,4.89,6.74s-1.69,15.39-1.69,15.39l-10.66-9.69s5.24-4.18,7.28-8.62Z"/>
          <path class="cls-13" d="M90.72,140.27c.51.18-7.82,10.35-7.82,10.35A31.58,31.58,0,0,1,73.46,136l4.38-6.67S81,136.86,90.72,140.27Z"/>
          <g>
            <g>
              <g>
                <path class="cls-20" d="M48.39,66.81S38.39,26.9,53.48,29c6,.84,9.49,6.43,10.71,9.59,2.61,6.76-7.59,10.82-10.27,4.08a16.2,16.2,0,0,1-1-3.83c-1.57-11.62-5.32,1.27-3.52,26Z"/>
                <g>
                  <path class="cls-3" d="M117.09,75.66s.11-8.14,5.15-5S129.16,88,123,94.59,117.09,75.66,117.09,75.66Z"/>
                  <path class="cls-4" d="M117.87,78.32s.16-5.61,3.58-3.46,4.56,11.79.26,16.42S117.87,78.32,117.87,78.32Z"/>
                </g>
                <path class="cls-3" d="M108.43,45.68c11.34,24.42,11.29,24.63,16.07,46.38,3.5,16-8.19,32.46-20.62,37.15-18.26,6.89-47.24,2.7-55.68-17C41.91,97.5,36.22,91,33.06,85.77c-10-16.46-2.33-56.84,20.8-64.51C75.49,14.08,95.94,18.77,108.43,45.68Z"/>
                <g>
                  <g>
                    <path class="cls-21" d="M69.84,80c-4,1.74-5.41,7.45-3.15,12.73s6.65,7.2,10.66,5.46,6.11-6.49,3.84-11.78S73.84,78.28,69.84,80Z"/>
                    <path class="cls-22" d="M69.86,80.08a6.35,6.35,0,0,0-2.65,2.19,8.55,8.55,0,0,0-1.29,3.21,12.23,12.23,0,0,0,.83,6.79,10.69,10.69,0,0,0,4.19,5.25,6.69,6.69,0,0,0,6.39.26,7.43,7.43,0,0,0,4-5,10.11,10.11,0,0,0-.77-6.5,12.61,12.61,0,0,0-1.74-2.91A10.93,10.93,0,0,0,76.4,81a8.18,8.18,0,0,0-3.14-1.33A6.18,6.18,0,0,0,69.86,80.08Zm0-.1a7.58,7.58,0,0,1,6.85.62,12.06,12.06,0,0,1,4.81,5.28,10.45,10.45,0,0,1,.85,7.17,8.39,8.39,0,0,1-4.67,5.46,7.39,7.39,0,0,1-7-.44,11.13,11.13,0,0,1-4.31-5.63,12.5,12.5,0,0,1-.57-7A7.56,7.56,0,0,1,69.82,80Z"/>
                  </g>
                  <path class="cls-23" d="M65.6,87.54c0-3,1.19-6.1,3.31-7.25,3.66-2,8.79.08,11.38,5C81.56,87.65,83,90,81.71,94.7c2.22-4,.54-8.52-1.78-11.79s-6.34-5.7-10.14-4.09C66.5,80.22,65,84.58,65.6,87.54Z"/>
                  <path class="cls-24" d="M75.93,87.93a1.3,1.3,0,0,0,1.41-1.28,1.46,1.46,0,0,0-1.25-1.56,1.31,1.31,0,0,0-1.42,1.28A1.48,1.48,0,0,0,75.93,87.93Z"/>
                </g>
                <g>
                  <path class="cls-25" d="M83.33,113.25c1.35,1,12.89,7,20.17,1.45,4.19-3.21,7-12.13,6.07-13.64a.41.41,0,0,0-.55-.18,78.3,78.3,0,0,1-11.72,3.46c-5.07,1.14-13.67,1.1-16.6,3C79,108.43,79.21,110.19,83.33,113.25Z"/>
                  <path class="cls-23" d="M80.7,107.32c3.23-.06,8.32-.29,14.81-1.06,10.29-1.22,13.34-4.33,14.06-5.2a.41.41,0,0,0-.55-.18,78.3,78.3,0,0,1-11.72,3.46C92.23,105.48,83.63,105.44,80.7,107.32Z"/>
                </g>
                <path class="cls-26" d="M99,115.78a9.58,9.58,0,0,1-5.29-.26,6.21,6.21,0,0,1,3.3-3.29c2.28-1,5.7-1.5,7.38,0A10.62,10.62,0,0,1,99,115.78Z"/>
                <path class="cls-21" d="M82.36,107.29a84.15,84.15,0,0,0,15-1.87c7.12-1.69,8.8-1.92,11-3.29,0,3.22-4.51,6.46-10.56,7.79C89.58,111.75,86.2,109.86,82.36,107.29Z"/>
                <g>
                  <path class="cls-27" d="M102.9,70.56c-4,1.75-5.41,7.45-3.14,12.74s6.11,7.33,10.11,5.59A8.86,8.86,0,0,0,114.26,77C112,71.69,106.9,68.82,102.9,70.56Z"/>
                  <path class="cls-23" d="M98.67,78.08c0-3,1.19-6.11,3.3-7.25,3.66-2,8.8.07,11.39,5,1.26,2.39,2.71,4.75,1.41,9.45,2.22-4,.54-8.52-1.77-11.8s-6.35-5.7-10.15-4.08C99.56,70.76,98.1,75.11,98.67,78.08Z"/>
                </g>
                <g>
                  <path class="cls-3" d="M42.79,101.85c-14.46-4.78-10.22,8-5.39,14.48,5.15,6.94,11.69,6.77,14.52,2.14"/>
                  <path class="cls-4" d="M39.07,113.88c2.93,3.47,7.19,5,7.78,3.45,2.36-6.32-2.14-2.94-4.46-6.49-2.73-4.15-.56-7.24-5-6.19C34.9,105.24,35.63,109.79,39.07,113.88Z"/>
                </g>
                <path class="cls-4" d="M91.6,46.21a26.49,26.49,0,0,1-10.12,9c-8,3.7-14.09,3.62-22.72,1.39,5.39-2.37,12.5-7.24,14.27-10.7C68,44.05,63.22,45.36,57.8,46c-.4,0-.39.73-.5,1.17-2.07,8.18-11.13,7.57-12.64,8.39,7.45,1.28,14.58,25.18-7.87,35-1.95.85-3.91-3.62-5.24-5.35A17.41,17.41,0,0,1,28,76a25,25,0,0,0-.43-4.41c-.4-1.48-1.27-2.82-1.62-4.32-.62-2.65.47-5.36,1.62-7.79A72.9,72.9,0,0,1,38.56,42,40.15,40.15,0,0,1,55.19,30.4c4.73-1.63,9.76-2.15,14.75-2.56,6.81-.57,13.79-.95,20.41.92a62.57,62.57,0,0,1,8.09,3.13,17,17,0,0,1,4.7,2.7,15.66,15.66,0,0,1,2.51,3.15c6.38,9.69,12.26,23.66,14.19,35.12-4.22-6.9-9.77-19.65-14-26.55-.85-1.39-10.31-6.76-11.31-6C94,40.78,92.33,45.18,91.6,46.21Z"/>
                <path class="cls-28" d="M90.56,37.14s3.85,18.44-30.73,19.13c0,0,30.7-18.8-5.34-11.66,0,0,4,5.25-14.58,10.72,0,0,20.26,7.43.83,31.71,0,0-2.37,2.08.74,10.42.28.75,1.11,2.29,2.29,4.58,6.24,12-4.35-1.34-4.35-1.34s-11.91,1.11-15.57-13c0,0-13-7.32-8.33-21.9,0,0-10.91-15.27,9.15-24.72,0,0,.75-18.54,13.7-21.29,0,0,14.83-17.94,32.78-7,0,0,13.24-8.41,26.83,5.09,0,0,14.83,3.05,14.4,14.92,0,0,12.12,3,4.58,14.21,0,0,10.13,4.7,1.61,14.28L120,73.24l-12-27.6S106.86,41.27,90.56,37.14Z"/>
                <path class="cls-29" d="M96.35,57h0c.47-1.39,4.32-1.64,5.74-1.25,2.17.58,4.63,1.49,6.64,6.16.17.4.25.73-.1.44-2-1.7-6.32-4.18-10.38-3.78A1.7,1.7,0,0,1,96.35,57Z"/>
                <path class="cls-29" d="M72.27,62.38h0c-.9-1.16-4.61-.09-5.83.76-1.85,1.28-3.88,3-4.24,8,0,.44,0,.78.24.39C63.79,69.29,67,65.49,71,64.5A1.74,1.74,0,0,0,72.27,62.38Z"/>
                <path class="cls-30" d="M101.79,92.06a4.9,4.9,0,0,1,.49,4.09,4.63,4.63,0,0,1-1.22,1.94,5.81,5.81,0,0,1-1.93,1.18,7.09,7.09,0,0,1-4.28.25,4,4,0,0,1-3-2.84A5.1,5.1,0,0,0,95.13,98a9.24,9.24,0,0,0,3.3-.59,4.57,4.57,0,0,0,2.43-1.88A7.85,7.85,0,0,0,101.79,92.06Z"/>
              </g>
              <g>
                <circle class="cls-31" cx="72.8" cy="89.49" r="4.7"/>
                <circle class="cls-24" cx="74.67" cy="85.99" r="1.09"/>
              </g>
              <g>
                <circle class="cls-31" cx="105.03" cy="79.98" r="4.7"/>
                <circle class="cls-24" cx="106.9" cy="76.47" r="1.09"/>
              </g>
            </g>
            <path class="cls-32" d="M104.79,118.34a6,6,0,0,1-3.37,2,6,6,0,0,1-3.87-.41,10.15,10.15,0,0,0,3.77-.08A9.83,9.83,0,0,0,104.79,118.34Z"/>
          </g>
        </g>
        <g>
          <path class="cls-5" d="M139.23,114s-4-9.82,3.3-12c4.78-1.42,4.67-.24,5.87,3.08,0,0,5.95-1.3,7,2.65,0,0,6.14-.74,5.35,2.62,0,0,3-.29,2.31,2.65s-7.83,13.58-9.86,14.69-8.36.73-12.93-3.86-1.06-9.86-1.06-9.86"/>
          <g>
            <rect class="cls-33" x="142.33" y="103.36" width="4.17" height="7.35" rx="0.88" transform="translate(-32.86 136.77) rotate(-46.07)"/>
            <path class="cls-34" d="M144.55,105.35l-.26-.39.64-.34,2.95,2.85a.87.87,0,0,1,0,1.24l-.45.47h0l-1.22,1.27a.88.88,0,0,1-1.25,0l-.31-.3A4.4,4.4,0,0,0,144.55,105.35Z"/>
            <path class="cls-35" d="M127.53,104.61s17.14,17,21.39,17c0,0,4.38.27,7.51-4.45,0,0-17.18-14.87-19.66-18.79Z"/>
            <path class="cls-36" d="M154.38,119.12c-2.55-2.22-16.52-14.45-20.37-19.24l2.59-1.74c2.48,3.92,19.66,18.79,19.66,18.79A10.68,10.68,0,0,1,154.38,119.12Z"/>
            <path class="cls-33" d="M138.67,95l2,2.9a4,4,0,0,1-1,5.52l-6.95,4.78a4,4,0,0,1-5.53-1l-2-2.9Z"/>
            <path class="cls-34" d="M130.31,106.09l8.22-5.65a4.64,4.64,0,0,0,1.93-2.85l.2.29a4,4,0,0,1-1,5.52l-6.95,4.78a4,4,0,0,1-5.53-1l-.2-.29A4.69,4.69,0,0,0,130.31,106.09Z"/>
            <path class="cls-37" d="M116.08,87.94l12.12,17.65a10.71,10.71,0,0,1-12.12-17.65Z"/>
            <rect class="cls-38" x="121.33" y="83.45" width="9.19" height="21.42" transform="translate(-31.18 87.83) rotate(-34.48)"/>
            <path class="cls-35" d="M147.89,44.09c.8,3.39,6.64,13.55,14.52,25s15.25,20.56,18.13,22.54c-6.76-1.87-26.6-3.72-44.76,8.74L123.65,82.73C141.81,70.26,147.21,51.07,147.89,44.09Z"/>
            <path class="cls-34" d="M161.82,69.51c9,13.13,17.4,23,18.73,22.14s-4.92-12.29-13.94-25.43-17.4-23-18.72-22.13C147.6,44.28,152.8,56.38,161.82,69.51Z"/>
            <path class="cls-38" d="M112.75,101h0c-.11-.24-.21-.48-.3-.73l-.06-.16c-.08-.24-.15-.47-.21-.71l-.06-.2c-.05-.23-.11-.47-.15-.7l0-.22c0-.23-.07-.46-.09-.7,0-.07,0-.14,0-.22,0-.23,0-.47,0-.7,0-.06,0-.12,0-.18a11.12,11.12,0,0,1,.27-2.3c0-.07,0-.15,0-.22s.1-.34.16-.52l.12-.4.18-.45.18-.44.2-.41c.08-.16.16-.31.25-.46l.22-.38.3-.45c.08-.11.16-.23.25-.34a5.32,5.32,0,0,1,.37-.46,3.47,3.47,0,0,1,.25-.29c.15-.17.31-.32.47-.48s.15-.15.23-.23c.25-.22.5-.44.77-.65l3.3,4.8-2.22,1.52v0A12.06,12.06,0,0,0,112.75,101Z"/>
            <path class="cls-39" d="M126.94,87.52l-1.34,1-6.22,4.27-3.3-4.81,7.57-5.2h0Z"/>
            <path class="cls-36" d="M123.65,82.73h0c.52-.36,1-.72,1.51-1.08l.45-.34c.35-.26.7-.52,1-.79l.47-.37,1.09-.9.29-.24c.44-.38.88-.77,1.3-1.16l.34-.31c.31-.3.63-.59.93-.89l.41-.4c.29-.29.58-.58.86-.88.12-.11.23-.23.34-.35.38-.4.76-.8,1.12-1.21l.18-.21.9-1,.34-.42c.24-.29.48-.57.71-.86l.33-.42.79-1,.17-.22.88-1.23.3-.43c.19-.28.38-.56.56-.84l.32-.48c.18-.28.35-.56.53-.83l.27-.44c.24-.39.48-.79.7-1.18l.27-.47c.15-.25.29-.51.43-.76l.3-.56.36-.67c.09-.19.2-.38.29-.57s.24-.46.35-.7l.47-1,.27-.57.3-.67c.07-.15.13-.31.2-.47l.3-.69.15-.37c.35-.85.66-1.68.95-2.48,0-.07.05-.14.07-.2.1-.27.19-.54.28-.81,0,0,0-.09.05-.13a43.68,43.68,0,0,0,2.08-9h0a37.51,37.51,0,0,0,3.52,7.57c-.08.31-.16.62-.25.93a65.53,65.53,0,0,1-24.22,34.93Z"/>
            <path class="cls-40" d="M169.92,65h0l-.07-.1Z"/>
            <path class="cls-41" d="M158.2,63a9,9,0,0,1,10.2,14.85Z"/>
            <path class="cls-42" d="M127.11,106.17c-.22.11-.44.21-.67.3l-.26.09c-.23.09-.47.16-.7.23l-.21.06a10.83,10.83,0,0,1-1.86.33h-.26l-.67,0h-.31l-.64,0-.29,0c-.29,0-.59-.08-.88-.14l-.24,0c-.21,0-.42-.1-.63-.17a2.78,2.78,0,0,1-.38-.12l-.48-.17-.39-.15-.46-.22-.37-.18-.69-.4-.36-.25-.33-.24a13.59,13.59,0,0,0,5-1.87l3.74-2.57,3.42,5c-.28.17-.57.33-.86.48Z"/>
            <path class="cls-43" d="M130.51,96.68h0c.63-.43,1.25-.84,1.88-1.24l3.39,4.94h0l-7.57,5.2-3.42-5Z"/>
            <path class="cls-44" d="M173.49,84.11c3.12,3.86,5.63,6.56,7,7.54h0a52.22,52.22,0,0,0-18.88-.91h-.14l-1.09.15-.16,0c-1.07.15-2.16.34-3.27.56l-.42.09-.92.19-.53.13-.89.21-.59.15-1.45.4-.73.22c-.25.07-.51.15-.76.24l-.77.24-.74.26-.91.32-.65.24-1.38.55-.62.26c-.31.14-.63.27-.94.42l-.64.29c-.34.15-.67.31-1,.48l-.54.26q-.75.38-1.5.78l-.42.23-1.14.64-.55.33-1.07.65-.51.32c-.5.32-1,.65-1.51,1h0l-3.39-4.94A73.19,73.19,0,0,1,173.49,84.11Z"/>
            <path class="cls-38" d="M147.89,44.09c.8,3.39,6.64,13.55,14.52,25s15.25,20.56,18.13,22.54a38.69,38.69,0,0,0-6.48-1.11,110.44,110.44,0,0,1-15.65-18,110.58,110.58,0,0,1-11.82-22A39.15,39.15,0,0,0,147.89,44.09Z"/>
            <path class="cls-45" d="M146.59,50.54a39.15,39.15,0,0,0,1.3-6.45h0a37.51,37.51,0,0,0,3.52,7.57c-.08.31-.16.62-.25.93-.42,1.49-.93,3.09-1.56,4.78C148.53,55.13,147.52,52.85,146.59,50.54Z"/>
            <path class="cls-37" d="M180.55,91.65a38.84,38.84,0,0,0-6.49-1.11q-3.28-3-6.3-6.34c2-.11,3.93-.13,5.73-.09,3.12,3.86,5.64,6.56,7.06,7.54Z"/>
            <path class="cls-46" d="M165.49,68.47c1.32,1.92,3.27,2.86,4.36,2.11s.91-2.9-.4-4.82-3.27-2.86-4.36-2.11S164.18,66.56,165.49,68.47Z"/>
          </g>
          <path class="cls-5" d="M158.46,119.8c1.63-2.56,4.75-5,5-6.17.7-2.94-2.3-2.65-2.3-2.65.78-3.36-5.36-2.62-5.36-2.62-1.06-4-7-2.66-7-2.66-1.19-3.31-1.09-4.49-5.87-3.08-5,1.48-4.7,6.53-4,9.59"/>
          <path class="cls-5" d="M142.38,125.64A14.61,14.61,0,0,1,135,116.8c-1.73-6,2.64-5.78,4.66-7s5.36-3.64,4.33,1-3.78,2.52.81,6.52,2.05,2.63,3.16,4.28"/>
          <path class="cls-5" d="M148.4,105.15c.43,1.21-2.8,7-2.8,7"/>
          <path class="cls-47" d="M155.42,107.8s-1.73,5.33-4.62,6.25-7.05,0-5.2-1.92"/>
          <path class="cls-47" d="M160.56,110.09s-1.73,5.33-4.62,6.24-7.05,0-5.2-1.91"/>
          <path class="cls-47" d="M163.6,112.23s-1.73,5.33-4.62,6.24-7,0-5.2-1.91"/>
        </g>
      </g>
    </g>
  </g>
</svg>
