<svg id="Layer_1" data-name="Layer 1" xmlns="http://www.w3.org/2000/svg" width="207.52" height="260.43" viewBox="0 0 207.52 260.43">
  <defs>
    <style>
      .cls-1 {
        fill: #050505;
        opacity: 0.5;
      }

      .cls-2 {
        fill: #fff;
      }

      .cls-3, .cls-4 {
        fill: #fcd6c5;
        stroke: #231f20;
        stroke-linecap: round;
        stroke-linejoin: round;
      }

      .cls-3 {
        stroke-width: 2px;
      }
    </style>
  </defs>
  <g>
    <path class="cls-1" d="M50.16,258.48a19.26,19.26,0,0,1-13.82-5.65,12.55,12.55,0,0,1-5.56-6.5,8.64,8.64,0,0,1,.34-6.33,8.82,8.82,0,0,1,.67-7.05,22.57,22.57,0,0,1,3.52-4.5,22.32,22.32,0,0,1,8.32-9.76l1.45-1a42.81,42.81,0,0,1,6.72-3.91c1-1,1.94-2,2.92-2.92,6.88-6.72,14.5-38.15,17.75-51.57,1.44-6,2.49-10.26,3.32-12.68,1.67-4.9,3.38-9.52,5-14,4.25-11.53,7.91-21.49,8.48-29.09.92-12.08-6.46-55.78-13.66-86.78A8,8,0,0,1,83.42,7h61.41a8,8,0,0,1,8,8.62c-1.3,16.82-3,64.73,4.81,84.14,2.44,6.09,6.86,12.34,11.13,18.38,9.17,13,20.58,29.09,7.57,44.16-7.28,8.42-16.15,11.33-24.74,14.15-7.31,2.4-14.22,4.67-20.87,10.38-6.19,5.32-8.59,12.28-11.37,20.34-3.35,9.72-7.15,20.73-18.32,29.54A35.3,35.3,0,0,1,92.37,242,30,30,0,0,1,86.49,244a38,38,0,0,1-8.71,1h0c-1.31,0-2.53-.07-3.6-.16l-.43.56A30.88,30.88,0,0,1,61,255.9,25.82,25.82,0,0,1,50.16,258.48Z"/>
    <path class="cls-2" d="M45.16,253.48a19.26,19.26,0,0,1-13.82-5.65,12.55,12.55,0,0,1-5.56-6.5,8.64,8.64,0,0,1,.34-6.33,8.82,8.82,0,0,1,.67-7.05,22.57,22.57,0,0,1,3.52-4.5,22.32,22.32,0,0,1,8.32-9.76l1.45-1a42.81,42.81,0,0,1,6.72-3.91c1-1,1.94-2,2.92-2.92,6.88-6.72,14.5-38.15,17.75-51.57,1.44-6,2.49-10.26,3.32-12.68,1.67-4.9,3.38-9.52,5-14,4.25-11.53,7.91-21.49,8.48-29.09.92-12.08-6.46-55.78-13.66-86.78A8,8,0,0,1,78.42,2h61.41a8,8,0,0,1,8,8.62c-1.3,16.82-3,64.73,4.81,84.14,2.44,6.09,6.86,12.34,11.13,18.38,9.17,13,20.58,29.09,7.57,44.16-7.28,8.42-16.15,11.33-24.74,14.15-7.31,2.4-14.22,4.67-20.87,10.38-6.19,5.32-8.59,12.28-11.37,20.34-3.35,9.72-7.15,20.73-18.32,29.54A35.3,35.3,0,0,1,87.37,237,30,30,0,0,1,81.49,239a38,38,0,0,1-8.71,1h0c-1.31,0-2.53-.07-3.6-.16l-.43.56A30.88,30.88,0,0,1,56,250.9,25.82,25.82,0,0,1,45.16,253.48Z"/>
    <g>
      <path class="cls-3" d="M78.42,10c7.08,30.48,14.88,75.6,13.85,89.2-.89,11.88-7.74,27-13.91,45.07-3,8.6-11.82,56.41-23,67.38-2.27,2.21-4.31,4.31-6.08,6.28,0,0-17.34,21.52,17.28,13.48,5.29-1.23,12.11,3.79,24.46-5.9,18.14-14.24,13.27-35.79,29.53-49.75s33.4-10.53,44.76-23.69c13.46-15.58-11.8-33.69-20.07-54.33C135,72.27,139.83,10,139.83,10"/>
      <g>
        <g>
          <path class="cls-3" d="M54.83,213.87c-8.35,3.76-8.36,4.22-11.79,6.49a13.61,13.61,0,0,0-5.9,7.86l-3.38,3.66c-.65,1.15,2.78,5.2,7.12,4.63s7.66-5.82,9.38-7.15S56.19,227,56.19,227"/>
          <path class="cls-4" d="M37.13,228.13s1.35-.22.82,1.32-1.29,2.52-2.35,2.83c-.9.27-1.68.11-1.84-.4A13.64,13.64,0,0,1,37.13,228.13Z"/>
        </g>
        <g>
          <path class="cls-3" d="M54.59,215.77c-7.58,5.5-7.49,6-10.45,8.95s-6.47,7.4-7.33,9.84l-3.41,3.76c-.65,1.19,4,5.06,8.25,3.59s7.12-7.26,8.56-8.95,5.45-3.56,5.45-3.56"/>
          <path class="cls-4" d="M36.82,234.46s1.37-.23.85,1.35-1.31,2.58-2.39,2.91c-.91.28-1.72.13-1.88-.4A13.64,13.64,0,0,1,36.82,234.46Z"/>
        </g>
        <path class="cls-3" d="M65.83,216.15c-5.93,3.13-5.93,3.13-12.83,8s-5.31,5.52-7.62,8.21c-3.26,2.07-9,5.29-10.11,5.92a2,2,0,0,0-.1,1.09c.59,2.29,6.28,9.48,17.47,4.3,9.17-4.25,9.32-9.59,13.87-12.28,2.93.51,14.43,2.57,24.46-5.9"/>
        <path class="cls-4" d="M45.38,232.33c1.19-.4,2.86.91,2.29,1.36s-8.89,6.26-9.75,5.77a28.61,28.61,0,0,0-2.65-1.21S36.68,235.36,45.38,232.33Z"/>
      </g>
    </g>
  </g>
</svg>
