<svg id="Layer_1" data-name="Layer 1" xmlns="http://www.w3.org/2000/svg" xmlns:xlink="http://www.w3.org/1999/xlink" width="225.52" height="455.69" viewBox="0 0 225.52 455.69">
  <defs>
    <style>
      .cls-1 {
        fill: none;
      }

      .cls-2 {
        fill: #fffa4d;
      }

      .cls-3 {
        fill: url(#linear-gradient);
      }

      .cls-4 {
        fill: #281b18;
      }

      .cls-5 {
        fill: #21201e;
      }

      .cls-6 {
        fill: url(#linear-gradient-2);
      }

      .cls-7 {
        fill: #82706e;
      }

      .cls-8 {
        fill: url(#linear-gradient-3);
      }

      .cls-9 {
        fill: #191918;
      }

      .cls-10 {
        opacity: 0.25;
      }

      .cls-11 {
        fill: url(#linear-gradient-4);
      }

      .cls-12, .cls-13, .cls-19, .cls-24 {
        fill: #ffb871;
      }

      .cls-12, .cls-17, .cls-22, .cls-24 {
        stroke: #a67c52;
      }

      .cls-12, .cls-17, .cls-19, .cls-22, .cls-24 {
        stroke-miterlimit: 10;
      }

      .cls-12 {
        stroke-width: 0.25px;
      }

      .cls-14 {
        fill: #a67c52;
      }

      .cls-15 {
        fill: #42210b;
      }

      .cls-16 {
        fill: url(#linear-gradient-5);
      }

      .cls-17, .cls-19, .cls-22, .cls-24 {
        stroke-width: 0.5px;
      }

      .cls-17 {
        fill: url(#linear-gradient-6);
      }

      .cls-18 {
        fill: url(#linear-gradient-7);
      }

      .cls-19 {
        stroke: #603813;
      }

      .cls-20 {
        fill: #110a07;
      }

      .cls-21 {
        fill: url(#linear-gradient-8);
      }

      .cls-22 {
        fill: url(#linear-gradient-9);
      }

      .cls-23 {
        fill: url(#linear-gradient-10);
      }

      .cls-25 {
        clip-path: url(#clip-path);
      }

      .cls-26 {
        fill: url(#linear-gradient-11);
      }

      .cls-27 {
        fill: url(#linear-gradient-12);
      }

      .cls-28 {
        fill: url(#linear-gradient-13);
      }

      .cls-29 {
        fill: url(#linear-gradient-14);
      }

      .cls-30 {
        fill: url(#linear-gradient-15);
      }

      .cls-31 {
        fill: url(#linear-gradient-16);
      }

      .cls-32 {
        fill: #f9f82d;
      }

      .cls-33 {
        fill: #b2b1b6;
      }

      .cls-34 {
        fill: #36383d;
      }

      .cls-35 {
        fill: #45464b;
      }

      .cls-36 {
        fill: #9a9c9e;
      }

      .cls-37 {
        fill: #2c2b29;
      }

      .cls-38 {
        fill: url(#linear-gradient-17);
      }

      .cls-39 {
        fill: url(#linear-gradient-18);
      }

      .cls-40 {
        fill: url(#linear-gradient-19);
      }

      .cls-41 {
        fill: url(#linear-gradient-20);
      }

      .cls-42 {
        opacity: 0.14;
      }
    </style>
    <linearGradient id="linear-gradient" x1="101.21" y1="163.31" x2="103.04" y2="305.64" gradientUnits="userSpaceOnUse">
      <stop offset="0" stop-color="#fff"/>
      <stop offset="0.38" stop-color="#f9f82d"/>
      <stop offset="0.39" stop-color="#f7f22d"/>
      <stop offset="0.51" stop-color="#e6c12b"/>
      <stop offset="0.62" stop-color="#d99b29"/>
      <stop offset="0.72" stop-color="#d08028"/>
      <stop offset="0.81" stop-color="#ca6f27"/>
      <stop offset="0.88" stop-color="#c86927"/>
    </linearGradient>
    <linearGradient id="linear-gradient-2" x1="111.74" y1="48.05" x2="112.46" y2="161.82" gradientUnits="userSpaceOnUse">
      <stop offset="0" stop-color="#fff"/>
      <stop offset="0" stop-color="#d9d9d9"/>
      <stop offset="0" stop-color="#b0b0b0"/>
      <stop offset="0" stop-color="#8b8b8a"/>
      <stop offset="0" stop-color="#6a6a6a"/>
      <stop offset="0" stop-color="#4f4f4e"/>
      <stop offset="0" stop-color="#393938"/>
      <stop offset="0" stop-color="#282827"/>
      <stop offset="0" stop-color="#1d1d1c"/>
      <stop offset="0" stop-color="#161615"/>
      <stop offset="0" stop-color="#141413"/>
      <stop offset="0.53" stop-color="#d69129"/>
      <stop offset="0.7" stop-color="#d58f29"/>
      <stop offset="0.86" stop-color="#121212"/>
    </linearGradient>
    <linearGradient id="linear-gradient-3" x1="36.73" y1="233.49" x2="195.25" y2="232.55" gradientUnits="userSpaceOnUse">
      <stop offset="0" stop-color="#fff"/>
      <stop offset="0" stop-color="#d9d9d9"/>
      <stop offset="0" stop-color="#b0b0b0"/>
      <stop offset="0" stop-color="#8b8b8a"/>
      <stop offset="0" stop-color="#6a6a6a"/>
      <stop offset="0" stop-color="#4f4f4e"/>
      <stop offset="0" stop-color="#393938"/>
      <stop offset="0" stop-color="#282827"/>
      <stop offset="0" stop-color="#1d1d1c"/>
      <stop offset="0" stop-color="#161615"/>
      <stop offset="0" stop-color="#141413"/>
      <stop offset="0.7" stop-color="#070707"/>
      <stop offset="1" stop-color="#121212"/>
    </linearGradient>
    <linearGradient id="linear-gradient-4" x1="166.52" y1="235.38" x2="147.77" y2="363.76" gradientUnits="userSpaceOnUse">
      <stop offset="0.31" stop-color="#944d1b"/>
      <stop offset="0.36" stop-color="#864618"/>
      <stop offset="0.47" stop-color="#603212"/>
      <stop offset="0.62" stop-color="#241307"/>
      <stop offset="0.7"/>
    </linearGradient>
    <linearGradient id="linear-gradient-5" x1="157.16" y1="275.47" x2="118.93" y2="341.26" gradientUnits="userSpaceOnUse">
      <stop offset="0.31" stop-color="#892e15"/>
      <stop offset="0.34" stop-color="#822c14"/>
      <stop offset="0.39" stop-color="#6e2511"/>
      <stop offset="0.45" stop-color="#4e1a0c"/>
      <stop offset="0.51" stop-color="#220b05"/>
      <stop offset="0.55"/>
    </linearGradient>
    <linearGradient id="linear-gradient-6" x1="160.2" y1="311.89" x2="190.66" y2="352.16" gradientUnits="userSpaceOnUse">
      <stop offset="0" stop-color="#ffb871"/>
      <stop offset="0.16" stop-color="#df9254"/>
      <stop offset="0.43" stop-color="#ac5528"/>
      <stop offset="0.63" stop-color="#8d2f0c"/>
      <stop offset="0.74" stop-color="#812101"/>
    </linearGradient>
    <linearGradient id="linear-gradient-7" x1="67.45" y1="256.67" x2="81.91" y2="309.41" gradientUnits="userSpaceOnUse">
      <stop offset="0.31" stop-color="#812101"/>
      <stop offset="0.4" stop-color="#7a1f01"/>
      <stop offset="0.54" stop-color="#671a01"/>
      <stop offset="0.71" stop-color="#471201"/>
      <stop offset="0.89" stop-color="#1c0700"/>
      <stop offset="1"/>
    </linearGradient>
    <linearGradient id="linear-gradient-8" x1="83.1" y1="284.28" x2="112.69" y2="309.83" gradientUnits="userSpaceOnUse">
      <stop offset="0.31" stop-color="#944d1b"/>
      <stop offset="0.41" stop-color="#864618"/>
      <stop offset="0.6" stop-color="#603212"/>
      <stop offset="0.86" stop-color="#241307"/>
      <stop offset="1"/>
    </linearGradient>
    <linearGradient id="linear-gradient-9" x1="82.62" y1="308.06" x2="87.94" y2="339.73" gradientUnits="userSpaceOnUse">
      <stop offset="0.14" stop-color="#ffb871"/>
      <stop offset="0.31" stop-color="#fdb670"/>
      <stop offset="0.4" stop-color="#f4b06c"/>
      <stop offset="0.48" stop-color="#e7a666"/>
      <stop offset="0.54" stop-color="#d3985d"/>
      <stop offset="0.6" stop-color="#b98652"/>
      <stop offset="0.66" stop-color="#9a6f44"/>
      <stop offset="0.71" stop-color="#745433"/>
      <stop offset="0.76" stop-color="#493420"/>
      <stop offset="0.81" stop-color="#19120b"/>
      <stop offset="0.83"/>
    </linearGradient>
    <linearGradient id="linear-gradient-10" x1="106.15" y1="297.34" x2="149.07" y2="297.34" xlink:href="#linear-gradient-8"/>
    <clipPath id="clip-path">
      <path class="cls-1" d="M66,248s-10.16,24.42,0,29-15.56,22,0,32.52S168.82,317,167.93,285.23s-13.86-37.86-13.86-37.86S111.52,267.37,66,248Z"/>
    </clipPath>
    <linearGradient id="linear-gradient-11" x1="87.02" y1="213.41" x2="84.38" y2="255.83" gradientUnits="userSpaceOnUse">
      <stop offset="0" stop-color="#ef913c"/>
      <stop offset="0.35" stop-color="#ed8f3b"/>
      <stop offset="0.51" stop-color="#e68837"/>
      <stop offset="0.63" stop-color="#d97b30"/>
      <stop offset="0.73" stop-color="#c76927"/>
      <stop offset="0.82" stop-color="#b0511a"/>
      <stop offset="0.9" stop-color="#94350b"/>
      <stop offset="0.94" stop-color="#812101"/>
    </linearGradient>
    <linearGradient id="linear-gradient-12" x1="1112.36" y1="-221.59" x2="1108.98" y2="-167.2" gradientTransform="translate(-1032.17 100.04) rotate(15.37)" xlink:href="#linear-gradient-11"/>
    <linearGradient id="linear-gradient-13" x1="117.13" y1="168.43" x2="112.56" y2="241.86" xlink:href="#linear-gradient-11"/>
    <linearGradient id="linear-gradient-14" x1="137.93" y1="189.69" x2="133.58" y2="259.8" xlink:href="#linear-gradient-11"/>
    <linearGradient id="linear-gradient-15" x1="112.79" y1="200.2" x2="106.27" y2="305.14" xlink:href="#linear-gradient-11"/>
    <linearGradient id="linear-gradient-16" x1="107.56" y1="218.36" x2="111.65" y2="344.78" gradientUnits="userSpaceOnUse">
      <stop offset="0" stop-color="#f9f82d"/>
      <stop offset="0.61" stop-color="#e3a32f"/>
      <stop offset="0.94" stop-color="#d87930"/>
    </linearGradient>
    <linearGradient id="linear-gradient-17" x1="110.43" y1="152.21" x2="110.43" y2="11.71" gradientUnits="userSpaceOnUse">
      <stop offset="0" stop-color="#f8d409"/>
      <stop offset="0.08" stop-color="#f7cb0a"/>
      <stop offset="0.22" stop-color="#f6b20e"/>
      <stop offset="0.4" stop-color="#f38914"/>
      <stop offset="0.6" stop-color="#f0521c"/>
      <stop offset="0.78" stop-color="#ec1c24"/>
      <stop offset="1" stop-color="#ec1c24"/>
    </linearGradient>
    <linearGradient id="linear-gradient-18" x1="108.7" y1="152.21" x2="108.7" y2="54.05" gradientUnits="userSpaceOnUse">
      <stop offset="0" stop-color="#f7e88e"/>
      <stop offset="0.06" stop-color="#f7e266"/>
      <stop offset="0.13" stop-color="#f8dd45"/>
      <stop offset="0.19" stop-color="#f8d92b"/>
      <stop offset="0.26" stop-color="#f8d618"/>
      <stop offset="0.33" stop-color="#f8d50d"/>
      <stop offset="0.41" stop-color="#f8d409"/>
      <stop offset="1" stop-color="#ea5f24"/>
    </linearGradient>
    <linearGradient id="linear-gradient-19" x1="98.26" y1="163.28" x2="98.26" y2="101.62" gradientUnits="userSpaceOnUse">
      <stop offset="0" stop-color="#fff"/>
      <stop offset="0.42" stop-color="#fdf7ab"/>
      <stop offset="1" stop-color="#f9ec31"/>
    </linearGradient>
    <linearGradient id="linear-gradient-20" x1="115.93" y1="166.67" x2="115.93" y2="113.59" xlink:href="#linear-gradient-19"/>
  </defs>
  <g>
    <path class="cls-2" d="M218.3,153.64a12.88,12.88,0,0,0-10-5,10,10,0,0,0-1.11.06,10.69,10.69,0,0,0,.44-2.31c0-.32,0-.64,0-1s0-.44,0-.67c0,0,0-4.88,0-5a8,8,0,0,0-1.57-4.65c-3-5-9.9-7.59-16.05-9.32a173.05,173.05,0,0,0-25.36-4.63,100.82,100.82,0,0,0-6-19.75,8,8,0,0,0-7.31-4.75A8.32,8.32,0,0,0,149,97a8,8,0,0,0-2.45,1.27c-.11-.25-.21-.52-.31-.81-1.39-4,.51-8.87,1.32-10.35a8,8,0,0,0-6.92-12,8.91,8.91,0,0,0-1.26.1,49.61,49.61,0,0,1-.93-4.93c-.79-5.76.25-8.93.51-9.61a7.75,7.75,0,0,0-2.39-10.43,7.61,7.61,0,0,0-4.19-1.37c-1.65-7.19-5.73-12.32-8.73-16.09-1.77-2.21-3.59-4.49-3.85-5.91-.59-3.21,2.89-7.61,4.63-9.2a8,8,0,0,0-10.2-12.32c-1.76,1.36-10.7,8.59-13.25,17.51-1.91,6.71.68,13.7,3.41,21.09.88,2.37,1.79,4.81,2.52,7.21.13.42.26.84.38,1.26.14.66.25,1.22.34,1.73,0,.3.1.6.13.9,0,.09,0,.18,0,.27.24,1.5.06,3.56-3.07,7.5l-.76.89-.69.74a7.38,7.38,0,0,0-1-.85,8,8,0,0,0-10.12.58,56.38,56.38,0,0,0-11,15.68A8.32,8.32,0,0,0,80,79.81a8,8,0,0,0-5.79,2.48c-2.89,3-6.32,9.24-6.61,17.68a8,8,0,0,0-5.19,12.21c.18.53.75,2.64.43,7.26a5.51,5.51,0,0,1-.29,1.43,182.36,182.36,0,0,0-27.94,4.93c-4.8,1.36-17.54,5-17.54,14.86,0,.23,0,.47,0,.7l0,5a7.66,7.66,0,0,0,.16,1.66,12.88,12.88,0,0,0-10,5,7.94,7.94,0,0,0-1.9,5.16v2.95a8.1,8.1,0,0,0,.31,2.19l6.73,23.73V199a8,8,0,0,0,8,8h7.21l0,82.62a13.91,13.91,0,0,0-4.48,5.73q-.15.39-.27.81a9.55,9.55,0,0,0-.28,3.9v4a8,8,0,0,0,1.17,4.16,14.63,14.63,0,0,0,4.43,5.12L14.35,443.13a8,8,0,0,0,8,8.85h9a8,8,0,0,0,8-7.18L52,321.67c5.44,1,11.62,1.94,18.33,2.68a16.34,16.34,0,0,0,3.87,4.77,18.08,18.08,0,0,0,11.62,4.06c5.76,0,10.76-2.62,13.13-6.85q3.51.12,7.1.18c.4,1.11.81,2.2,1.22,3.28a8.08,8.08,0,0,0,.89,1.67,15.38,15.38,0,0,0,3.12,4.34c1.65,23.72,2.55,39.19,2.55,43.72a8.19,8.19,0,0,0,.13,1.4c1.2,6.71,6.21,9.09,10.14,9.09,4.72,0,8.72-3.25,10.21-4.64a8,8,0,0,0,2.53-6.35l-2.53-40.56a18.78,18.78,0,0,0,8.12-8.62,8.44,8.44,0,0,0,.57-1.67,18.83,18.83,0,0,0,.34-2.17,122.54,122.54,0,0,0,10.75,7.66,7.91,7.91,0,0,0,4.19,1.22,13.89,13.89,0,0,0,2.76.27c6.78,0,14.18-4.79,17.61-11.38.11-.21.21-.41.31-.62.85,11.51,1.93,23.25,2,23.87,0,.22,1.91,22.13,4.08,43.94,1.28,12.85,2.41,23.16,3.35,30.66,1.87,14.9,2.57,18,6.4,20.35a13.23,13.23,0,0,0,7,1.83h0a19.69,19.69,0,0,0,6.52-1.17,8,8,0,0,0,5.15-8.58c-.08-.63-8.54-62.91-11.5-92.43a.51.51,0,0,0,0-.13,260.61,260.61,0,0,1-1.49-27.59c4.24-2.88,6.38-6.42,6.38-10.56a11.11,11.11,0,0,0-.88-4.31c-.32-3.19-2-6-5.05-8.31.44-10.26,1.06-17.35,1.07-17.43a8,8,0,0,0-2.07-6.11,8.15,8.15,0,0,0-3.15-2.11c-.1-17.81-.07-38.53,0-57.46h8.41a8,8,0,0,0,8-8V187.68l6.74-23.74a8,8,0,0,0,.3-2.18v-2.95A8,8,0,0,0,218.3,153.64Z"/>
    <g>
      <path class="cls-3" d="M47.56,155.46V294s-31,4.14-8.41,8.31c33.21,3.73,134.08,8.56,134.08,8.56V160.78Z"/>
      <path class="cls-4" d="M124.89,315.21l4,64.31s-6,5.61-7,0c0-10.13-4-64.31-4-64.31Z"/>
      <ellipse class="cls-5" cx="114.69" cy="303.34" rx="84.12" ry="15.26"/>
      <ellipse class="cls-6" cx="112.36" cy="145.42" rx="87.29" ry="16.34"/>
      <path class="cls-7" d="M112.33,126.37c-48.21,0-87.29,6.4-87.29,14.29S64.12,155,112.33,155s87.29-6.4,87.29-14.3S160.54,126.37,112.33,126.37Zm0,25.88c-42.39,0-76.76-5.19-76.76-11.59s34.37-11.58,76.76-11.58,76.76,5.18,76.76,11.58S154.72,152.25,112.33,152.25Z"/>
      <path class="cls-8" d="M189.11,294.5c-1-38.86,0-141.29,0-141.29s-70.26,17.11-153.54,0l0,141.25s-14.76,8,7,12.08c21.4,7.54,119.31,10.41,148.16-.2C204.71,299.5,193.63,295.62,189.11,294.5ZM162,301.94H59.68l-1.5-3V254.63s0-11.58,13-4c14.55,5.54,49.67,12.59,73.75-.5,13-6,15.55-.5,17.05,13.59S162,301.94,162,301.94Z"/>
      <ellipse class="cls-9" cx="114.35" cy="300.16" rx="83.64" ry="14.3"/>
      <g>
        <ellipse class="cls-10" cx="115.49" cy="291.36" rx="59.37" ry="14.31"/>
        <g>
          <path class="cls-11" d="M134.77,280c7,2.73,14.3,5.9,21.92,9.6a303.18,303.18,0,0,1,28.08,15.52c-3.67-3.37-3.83-8-1.82-10,1.82-1.77,5.1-1,5.46-.91-10.1-5.62-20.87-11.23-32.33-16.71q-10.87-5.2-21.31-9.67S125.68,269.39,134.77,280Z"/>
          <path class="cls-12" d="M182.42,302.48c-2.66-5.56,2.79-13.78,7.57-6.5C193.19,301.45,185.53,309,182.42,302.48Z"/>
          <g>
            <path class="cls-13" d="M186.76,298.83s-1.53,2.68-1.53.12,3.63-2.57,2.72,0-2.73,4.79-4.09,1.11a3.3,3.3,0,0,1,4.09-4.54c1.82.86,2.73,5.14,0,6.85s-4.54.86-5.45-1.71"/>
            <path class="cls-14" d="M186.76,298.83a4.92,4.92,0,0,1-.68,1c-.14.13-.29.31-.53.28s-.3-.33-.34-.51a2.33,2.33,0,0,1,.62-2.28,1.76,1.76,0,0,1,1.19-.41,1.24,1.24,0,0,1,1.09.66,1.75,1.75,0,0,1,0,1.27,7,7,0,0,1-.42,1.14,4.78,4.78,0,0,1-1.44,2,1.27,1.27,0,0,1-1.34.1,2.41,2.41,0,0,1-.87-1,6,6,0,0,1-.76-2.34,3.41,3.41,0,0,1,.75-2.39,3.77,3.77,0,0,1,2.16-1.24,2.72,2.72,0,0,1,2.42.62,4.24,4.24,0,0,1,1.11,2.21,4.64,4.64,0,0,1-.11,2.45,3.74,3.74,0,0,1-1.45,2,5.63,5.63,0,0,1-2.22.95,2.66,2.66,0,0,1-2.28-.63,4.6,4.6,0,0,1-1.21-2,4.51,4.51,0,0,0,1.29,1.94,2.44,2.44,0,0,0,2.16.48,4.29,4.29,0,0,0,3.34-2.79,4.45,4.45,0,0,0-.95-4.21,2.21,2.21,0,0,0-2-.48,3.26,3.26,0,0,0-1.87,1.09,2.87,2.87,0,0,0-.65,2,5.3,5.3,0,0,0,.67,2.14,2,2,0,0,0,.69.8.79.79,0,0,0,.89-.08,4.62,4.62,0,0,0,1.34-1.79c.3-.69.71-1.47.43-2.11a1.21,1.21,0,0,0-1.84-.2,2.13,2.13,0,0,0-.66,2.06c0,.19.08.4.24.45s.33-.11.47-.24A5,5,0,0,0,186.76,298.83Z"/>
          </g>
          <path class="cls-15" d="M136,271.73c4,1.2,8,2.62,12,4.15s7.81,3.21,11.65,5,7.6,3.68,11.29,5.72,7.31,4.24,10.85,6.53c-3.64-2.13-7.29-4.24-11-6.19s-7.49-3.85-11.32-5.61-7.68-3.47-11.58-5.07S140,273.11,136,271.73Z"/>
          <path class="cls-15" d="M138.86,277.35c3.66,1,7.27,2.15,10.85,3.41s7.11,2.64,10.6,4.15a111,111,0,0,1,10.2,5,55.76,55.76,0,0,1,9.33,6.49l-2.27-1.71c-.76-.56-1.58-1-2.36-1.57s-1.6-1-2.42-1.48-1.62-1-2.47-1.39c-3.31-1.82-6.75-3.42-10.21-4.93s-7-2.9-10.53-4.24c-1.77-.67-3.55-1.31-5.34-1.94S140.67,277.93,138.86,277.35Z"/>
          <path class="cls-15" d="M148,283.28q4.19,1.43,8.26,3.09c2.73,1.09,5.41,2.3,8.08,3.54s5.27,2.62,7.8,4.12a32.8,32.8,0,0,1,7.05,5.28c-.57-.47-1.11-1-1.69-1.41l-1.79-1.27-1.86-1.17c-.62-.38-1.27-.73-1.9-1.1-2.56-1.42-5.16-2.77-7.83-4s-5.32-2.47-8-3.64S150.71,284.4,148,283.28Z"/>
        </g>
        <g>
          <path class="cls-16" d="M121.14,287.59a107.16,107.16,0,0,0,10,14.88,110.13,110.13,0,0,0,27.31,24.43c.58-12,3.84-20.2,8-20.74.94-.12,2.61.06,5,2.42-10-6.59-17-8.32-38.45-33.5-1.61-1.89-3.63-3.68-5.66-3.3C122.89,272.6,121.54,283.47,121.14,287.59Z"/>
          <path class="cls-17" d="M156.29,324.17c-2.91-4.47-1.32-9.66-1.06-10.45a10.86,10.86,0,0,1,4.54-6.37c1-.62,4.46-2.46,8.18-.91A8.91,8.91,0,0,1,172.5,311a13.3,13.3,0,0,1-.91,9.09c-2.63,5.06-9.24,8.47-13,6.5A6.17,6.17,0,0,1,156.29,324.17Z"/>
          <path class="cls-15" d="M162.13,305.08a28.64,28.64,0,0,1-11-4.39,55,55,0,0,1-9.18-7.55,87.26,87.26,0,0,1-7.72-9,91,91,0,0,1-6.49-9.93c1,1.68,2.14,3.32,3.28,4.93s2.3,3.21,3.51,4.76a94.25,94.25,0,0,0,7.77,8.91,57.94,57.94,0,0,0,9,7.58,33.57,33.57,0,0,0,5.14,2.87A26.33,26.33,0,0,0,162.13,305.08Z"/>
          <path class="cls-15" d="M126.13,281a42,42,0,0,0,2.12,3.9q1.13,1.9,2.39,3.72a58.17,58.17,0,0,0,5.56,6.87c1,1.11,2.06,2.11,3.11,3.14s2.19,2,3.39,2.84c.58.44,1.16.91,1.76,1.34l1.84,1.22a18.37,18.37,0,0,0,1.88,1.17l1.93,1.11a43.44,43.44,0,0,1-7.65-4.54,19.2,19.2,0,0,1-1.76-1.36L139,299c-1.07-1-2.18-2-3.17-3.14a53.78,53.78,0,0,1-5.5-7A45.39,45.39,0,0,1,126.13,281Z"/>
          <path class="cls-15" d="M128.86,296.44c.81,1.2,1.68,2.35,2.58,3.48s1.81,2.24,2.75,3.33a79.7,79.7,0,0,0,6,6.21,64.86,64.86,0,0,0,6.62,5.53l1.74,1.27,1.82,1.16.9.6.94.53,1.88,1.07a49.18,49.18,0,0,1-7.51-4.32,59.76,59.76,0,0,1-6.73-5.47,72.34,72.34,0,0,1-5.93-6.33A59.19,59.19,0,0,1,128.86,296.44Z"/>
          <path class="cls-15" d="M126.13,287.52a14.07,14.07,0,0,0,1,2.43,25.77,25.77,0,0,0,1.32,2.27,32.35,32.35,0,0,0,3.25,4.12,40.84,40.84,0,0,0,3.79,3.65c.66.58,1.36,1.11,2,1.67l2.11,1.6c-.76-.45-1.51-.93-2.26-1.4s-1.44-1-2.14-1.57a37.08,37.08,0,0,1-3.91-3.61,28.23,28.23,0,0,1-3.2-4.26A15.8,15.8,0,0,1,126.13,287.52Z"/>
          <g>
            <path class="cls-13" d="M164,315s.69,4-1,2.4-1.64-4.9,1.82-4.9-.58,12.39-2.88,7c-4-3.7-2.12-7,2.11-9.54s4.37,6,4.37,6-3.23,9-6.87,6.95-7.1-6.25-2.78-11.25"/>
            <path class="cls-14" d="M164,315a11.06,11.06,0,0,1,.16,1.41,4.34,4.34,0,0,1,0,.72.78.78,0,0,1-.32.64.72.72,0,0,1-.68-.23,2.8,2.8,0,0,1-.5-.53,3.28,3.28,0,0,1-.63-1.3,2.57,2.57,0,0,1,.74-2.7,2.89,2.89,0,0,1,1.36-.58,4.4,4.4,0,0,1,.73-.07,1.28,1.28,0,0,1,.75.21,2,2,0,0,1,.72,1.33,6,6,0,0,1,0,1.46,10.54,10.54,0,0,1-.62,2.83,6.06,6.06,0,0,1-1.5,2.52,1.48,1.48,0,0,1-.73.36,1.1,1.1,0,0,1-.83-.21,3.08,3.08,0,0,1-.88-1.24l.05.07a9.19,9.19,0,0,1-1.72-2.1,4.38,4.38,0,0,1-.54-2.7,5.18,5.18,0,0,1,1.17-2.49,10.76,10.76,0,0,1,2-1.82c.37-.27.75-.51,1.13-.74a3.6,3.6,0,0,1,1.31-.52,2,2,0,0,1,1.44.31,3,3,0,0,1,.94,1.07,8.67,8.67,0,0,1,.84,2.58,17.28,17.28,0,0,1,.28,2.68v.08a21.26,21.26,0,0,1-2.93,5.45,5,5,0,0,1-2.53,1.85,2.33,2.33,0,0,1-1.6-.24,12.69,12.69,0,0,1-1.31-.84,8.23,8.23,0,0,1-3.49-5,5.77,5.77,0,0,1,.35-3.05,9.61,9.61,0,0,1,1.65-2.58,9.46,9.46,0,0,0-1.57,2.62,5.61,5.61,0,0,0-.25,3,8.13,8.13,0,0,0,3.49,4.75c.83.55,1.7,1.24,2.65,1a4.43,4.43,0,0,0,2.29-1.76,21.19,21.19,0,0,0,2.83-5.34l0,.08a12.18,12.18,0,0,0-1.09-5,1.83,1.83,0,0,0-1.88-1.14A8.67,8.67,0,0,0,160,315a3.94,3.94,0,0,0,.48,2.42,8.83,8.83,0,0,0,1.62,2l0,0,0,0a2.79,2.79,0,0,0,.73,1.07.78.78,0,0,0,1-.13,5.9,5.9,0,0,0,1.41-2.32,10.76,10.76,0,0,0,.65-2.73,5.79,5.79,0,0,0,0-1.38,1.68,1.68,0,0,0-.57-1.14c-.32-.26-.83-.16-1.28-.12a2.81,2.81,0,0,0-1.25.51,2.38,2.38,0,0,0-.74,2.48,3.29,3.29,0,0,0,.58,1.26,2.57,2.57,0,0,0,.47.52.67.67,0,0,0,.58.24c.19-.09.26-.35.29-.58a4.12,4.12,0,0,0,0-.7A11.18,11.18,0,0,0,164,315Z"/>
          </g>
        </g>
        <g>
          <path class="cls-18" d="M91.14,270.54a65.14,65.14,0,0,1-7.28,4.54,57.17,57.17,0,0,1-17.27,6.36c-7,1.26-15,1.06-17.27,3.64a7.87,7.87,0,0,0-1.82,3.64,6.34,6.34,0,0,0,0,1.81c4.27-2.91,6-2,6.37-1.81,2.28,1.35,2.05,7.15-.91,14.54C55.65,302.45,86.68,293,96.59,286c1.69-1.19,4.93-3.54,5.46-7.27a8.21,8.21,0,0,0-1.82-6.37,7.63,7.63,0,0,0-5.46-2.72A7.14,7.14,0,0,0,91.14,270.54Z"/>
          <ellipse class="cls-19" cx="52.05" cy="294.17" rx="5.45" ry="9.09"/>
          <path class="cls-14" d="M51.14,295.08a2.32,2.32,0,0,1-1.23-1,1.57,1.57,0,0,1,0-1.53,2.92,2.92,0,0,1,2.67-1.51,1.75,1.75,0,0,1,1.2,1,4.36,4.36,0,0,1,.42,1.55,3.81,3.81,0,0,1-.86,3,3,3,0,0,1-3,.64,3.54,3.54,0,0,1-2.4-2,5.43,5.43,0,0,1-.14-3.19,7.13,7.13,0,0,1,1.34-2.9,3.92,3.92,0,0,1,2.64-1.76,3.21,3.21,0,0,1,2.64,1.7,9.39,9.39,0,0,1,1.09,6.19,12,12,0,0,1-.85,3.06,4.13,4.13,0,0,1-2,2.39,2.44,2.44,0,0,1-1.6,0,5.69,5.69,0,0,1-1.4-.74A4.44,4.44,0,0,1,48,297.35,4.42,4.42,0,0,0,49.62,300a5.73,5.73,0,0,0,1.4.7,2.26,2.26,0,0,0,1.52,0,4,4,0,0,0,2-2.32,11.9,11.9,0,0,0,.82-3,9.21,9.21,0,0,0-1.11-6,3,3,0,0,0-2.45-1.59,3.72,3.72,0,0,0-2.45,1.69,6.82,6.82,0,0,0-1.32,2.8,5.31,5.31,0,0,0,.12,3.06,3.3,3.3,0,0,0,2.25,1.94,2.87,2.87,0,0,0,2.87-.58,3.65,3.65,0,0,0,.84-2.89,4.34,4.34,0,0,0-.4-1.5,1.64,1.64,0,0,0-1.1-1A2.82,2.82,0,0,0,50,292.6a1.52,1.52,0,0,0,0,1.5A2.24,2.24,0,0,0,51.14,295.08Z"/>
          <path class="cls-20" d="M92.6,271.73a69.76,69.76,0,0,1-8,5.74A68.23,68.23,0,0,1,75.88,282,47.17,47.17,0,0,1,66.46,285a28.61,28.61,0,0,1-9.81.11,31.83,31.83,0,0,0,9.74-.49,49.88,49.88,0,0,0,9.29-3,72.32,72.32,0,0,0,8.73-4.44c.71-.41,1.41-.83,2.1-1.27s1.38-.87,2.06-1.33C89.94,273.65,91.29,272.72,92.6,271.73Z"/>
          <path class="cls-20" d="M59.77,291.9c1.57-.2,3.13-.46,4.67-.76s3.1-.58,4.63-.95a84.5,84.5,0,0,0,9.09-2.54A58.34,58.34,0,0,0,86.83,284a36.08,36.08,0,0,0,7.68-5.43,31.72,31.72,0,0,1-7.5,5.77,55,55,0,0,1-8.69,3.8,78.38,78.38,0,0,1-9.17,2.44A76.17,76.17,0,0,1,59.77,291.9Z"/>
          <path class="cls-20" d="M57.5,300.16c3.47-1.06,6.91-2.2,10.34-3.37S74.67,294.38,78,293s6.69-2.77,9.93-4.37a39.8,39.8,0,0,0,9.1-5.85A35.66,35.66,0,0,1,88.12,289a105.16,105.16,0,0,1-9.91,4.5c-3.39,1.31-6.8,2.55-10.25,3.65S61,299.28,57.5,300.16Z"/>
          <path class="cls-20" d="M94.51,274.19a15.15,15.15,0,0,1-4.17,4.46,29.86,29.86,0,0,1-5.27,3.15A45.08,45.08,0,0,1,79.34,284l-3,.8-3,.6,2.94-.84,2.9-.92a54,54,0,0,0,5.64-2.28,32.92,32.92,0,0,0,5.26-3,21.56,21.56,0,0,0,2.36-1.9A12.11,12.11,0,0,0,94.51,274.19Z"/>
          <path class="cls-20" d="M59.77,295.7c.08-.26.41-.29.63-.35a6.33,6.33,0,0,1,.74-.12l1.49-.18c1-.09,2-.2,3-.34a48.35,48.35,0,0,0,5.85-1.14,46.36,46.36,0,0,0,11-4.4,33.53,33.53,0,0,1-5.24,2.92,38.28,38.28,0,0,1-5.69,2,42.63,42.63,0,0,1-5.92,1q-1.5.14-3,.21l-1.49.06q-.37,0-.75.06C60.19,295.46,59.87,295.45,59.77,295.7Z"/>
        </g>
        <g>
          <path class="cls-21" d="M98.41,269.63A124.77,124.77,0,0,1,92,287.73a123.78,123.78,0,0,1-15.37,25.53,11.46,11.46,0,0,1,8.19-.27,11.68,11.68,0,0,1,7.27,9.36c9.09-19.09,23.63-41.81,23.63-41.81S108.41,266,98.41,269.63Z"/>
          <path class="cls-22" d="M76.14,315.53A5.92,5.92,0,0,1,78,311.9c2.69-2.35,7.36-1,10,.91,3,2.16,5.61,6.65,4.09,9.54-1.77,3.36-8.74,3.92-12.68.63C76.3,320.41,76.15,316.37,76.14,315.53Z"/>
          <path class="cls-14" d="M84.62,318.18a7.23,7.23,0,0,1-.05,2,2,2,0,0,1-.38.91.89.89,0,0,1-.93.23,4.55,4.55,0,0,1-1.63-1.11c-.23-.23-.44-.49-.66-.74a4.38,4.38,0,0,1-.5-.86,2.07,2.07,0,0,1,0-2,2.48,2.48,0,0,1,1.66-1.06,4.75,4.75,0,0,1,3.76,1,6.16,6.16,0,0,1,2.29,3.2,3.57,3.57,0,0,1-1,3.7,1.8,1.8,0,0,1-1,.36,6.64,6.64,0,0,1-1,0,13.15,13.15,0,0,1-2-.33,8,8,0,0,1-3.54-1.77A4.55,4.55,0,0,1,78.25,318a8.19,8.19,0,0,1,.38-2,6.19,6.19,0,0,1,.81-1.82,3.85,3.85,0,0,1,1.49-1.34,3.92,3.92,0,0,1,2-.34A7.64,7.64,0,0,1,86.57,314a11.77,11.77,0,0,1,2.83,2.76,6.5,6.5,0,0,1,1.4,3.67A4.75,4.75,0,0,1,89,323.88a5.12,5.12,0,0,1-3.79.74,5.1,5.1,0,0,0,3.75-.79,4.6,4.6,0,0,0,1.69-3.38,6.25,6.25,0,0,0-1.39-3.58,11.44,11.44,0,0,0-2.8-2.71,7.56,7.56,0,0,0-3.59-1.41,3.5,3.5,0,0,0-3.28,1.61,6.28,6.28,0,0,0-.77,1.78,7.69,7.69,0,0,0-.36,1.9,4.32,4.32,0,0,0,1.4,3.45,7.76,7.76,0,0,0,3.43,1.73,13.78,13.78,0,0,0,1.92.34,8,8,0,0,0,1,0,1.59,1.59,0,0,0,.85-.32,3.37,3.37,0,0,0,1-3.48,6,6,0,0,0-2.21-3.12,4.64,4.64,0,0,0-3.63-1,2.35,2.35,0,0,0-1.58,1,2,2,0,0,0,0,1.84,4.7,4.7,0,0,0,.47.85c.22.24.42.5.65.73a4.48,4.48,0,0,0,1.58,1.12.84.84,0,0,0,.88-.2,2.15,2.15,0,0,0,.38-.89A7.15,7.15,0,0,0,84.62,318.18Z"/>
          <path class="cls-15" d="M99.4,272.59a96.66,96.66,0,0,1-2.67,10.26A90.63,90.63,0,0,1,93,292.77,53.21,53.21,0,0,1,87.7,302a21.08,21.08,0,0,1-7.93,6.93A16.3,16.3,0,0,0,84,305.79a29,29,0,0,0,3.39-4,55.92,55.92,0,0,0,5.12-9.21,101.19,101.19,0,0,0,3.86-9.83C97.5,279.39,98.53,276,99.4,272.59Z"/>
          <path class="cls-15" d="M103.86,277.81a58,58,0,0,1-.87,9.75,53.06,53.06,0,0,1-2.53,9.48,33.33,33.33,0,0,1-4.67,8.62,24.37,24.37,0,0,1-3.39,3.57,21.7,21.7,0,0,1-4.12,2.64,22.24,22.24,0,0,0,7.2-6.44,35,35,0,0,0,4.52-8.57,57.36,57.36,0,0,0,2.61-9.37c.32-1.6.58-3.2.78-4.82S103.79,279.44,103.86,277.81Z"/>
          <path class="cls-15" d="M102.92,272.38l1.28-1.86.17-.24-.08.29A200.64,200.64,0,0,1,98,289.94c-1.24,3.16-2.53,6.31-4.07,9.34a42.26,42.26,0,0,1-2.54,4.43,10.64,10.64,0,0,1-3.53,3.62,10.73,10.73,0,0,0,3.34-3.74,46.78,46.78,0,0,0,2.4-4.47c1.44-3.06,2.74-6.19,3.94-9.36,2.42-6.33,4.57-12.77,6.65-19.22l.09,0Z"/>
          <path class="cls-15" d="M106.15,290.29c-.79,2.14-1.67,4.25-2.61,6.33s-2,4.14-3,6.16-2.19,4-3.44,5.94A38.42,38.42,0,0,1,93,314.17a52.44,52.44,0,0,0,3.82-5.66c1.18-1.94,2.28-3.94,3.33-6s2.09-4.05,3.09-6.09S105.19,292.36,106.15,290.29Z"/>
        </g>
        <g>
          <path class="cls-23" d="M106.59,270.54a126.27,126.27,0,0,0,8.18,56.36,12.7,12.7,0,0,1,10-9.32,12.87,12.87,0,0,1,10,2.95c-10-32.72-11.33-39-9.76-48.58C113.62,266.39,113,266.9,106.59,270.54Z"/>
          <path class="cls-24" d="M114.77,324.17c.5-3.61,5-6.4,9-7.13.75-.14,7.65-1.42,10.57,3a8.53,8.53,0,0,1,.91,6.36,11.19,11.19,0,0,1-2.73,3.64,11.75,11.75,0,0,1-7.27,2.73A10.74,10.74,0,0,1,118,331a7.87,7.87,0,0,1-2.94-4.06A7.32,7.32,0,0,1,114.77,324.17Z"/>
          <g>
            <path class="cls-13" d="M126.23,324.1s-5.61,5-5.06,1.3,8.71-6.58,7.16-1.3-10,7.2-10,3.36,3.38-7.68,7.6-8.64,8.9,4.67,4,8.09-10.78,5.35-12.47,1.51"/>
            <path class="cls-14" d="M126.23,324.1a15.1,15.1,0,0,1-3.64,2.55,1.49,1.49,0,0,1-1.14.1,1.08,1.08,0,0,1-.4-1.06,3.65,3.65,0,0,1,.84-2.09,7.23,7.23,0,0,1,3.76-2.4,3.07,3.07,0,0,1,2.3.15,1.58,1.58,0,0,1,.69,1,2.89,2.89,0,0,1,0,1.17,6.8,6.8,0,0,1-2.25,3.9,9.25,9.25,0,0,1-4,2.1,5.92,5.92,0,0,1-2.3.12,2.27,2.27,0,0,1-1.88-1.41,6.83,6.83,0,0,1,.85-4.47,10.33,10.33,0,0,1,7.12-5.2,5.45,5.45,0,0,1,4.3,1.34,5.9,5.9,0,0,1,1.37,1.84,4.28,4.28,0,0,1,.31,2.29,4.17,4.17,0,0,1-1,2.05,8.14,8.14,0,0,1-1.76,1.41,23.68,23.68,0,0,1-3.94,2.11,11.85,11.85,0,0,1-4.35,1,4.5,4.5,0,0,1-2.16-.52,3.66,3.66,0,0,1-1.44-1.65A3.62,3.62,0,0,0,119,330a4.37,4.37,0,0,0,2.13.44,11.4,11.4,0,0,0,4.25-1.08,24.68,24.68,0,0,0,3.86-2.15,7.27,7.27,0,0,0,1.67-1.38,3.51,3.51,0,0,0,.61-3.94,5.36,5.36,0,0,0-1.28-1.68,5,5,0,0,0-3.94-1.22,9.89,9.89,0,0,0-6.75,5,8.28,8.28,0,0,0-.77,2,4.82,4.82,0,0,0-.07,2.06,1.8,1.8,0,0,0,1.52,1.11,5.39,5.39,0,0,0,2.11-.1,8.83,8.83,0,0,0,3.81-2,6.53,6.53,0,0,0,2.16-3.64,1.67,1.67,0,0,0-.52-1.81,2.76,2.76,0,0,0-2-.15,7,7,0,0,0-3.65,2.25,3.45,3.45,0,0,0-.85,1.95c0,.34,0,.75.3.91a1.33,1.33,0,0,0,1-.07A14.78,14.78,0,0,0,126.23,324.1Z"/>
          </g>
          <path class="cls-15" d="M121.83,272.59a74.64,74.64,0,0,0,0,11.19,82.53,82.53,0,0,0,1.52,11.07c.17.92.36,1.83.6,2.73s.42,1.81.67,2.71c.54,1.79,1,3.59,1.68,5.34a83,83,0,0,0,4.38,10.29A68.56,68.56,0,0,1,126,305.76c-.71-1.74-1.18-3.56-1.75-5.34-.25-.91-.46-1.82-.7-2.73s-.44-1.82-.61-2.74a73.6,73.6,0,0,1-1.42-11.15A61.73,61.73,0,0,1,121.83,272.59Z"/>
          <path class="cls-15" d="M108.35,272.59c0,2,0,3.94,0,5.91s.12,3.93.24,5.9c.24,3.93.57,7.85,1.16,11.74a96.1,96.1,0,0,0,2.36,11.55,57.72,57.72,0,0,0,4.28,11,50.69,50.69,0,0,1-4.64-10.87,86.5,86.5,0,0,1-2.49-11.58c-.55-3.92-.89-7.86-1-11.8A113.82,113.82,0,0,1,108.35,272.59Z"/>
          <path class="cls-15" d="M113.9,269.62c-.3,2.56-.52,5.12-.72,7.67s-.32,5.13-.32,7.69a63.29,63.29,0,0,0,.28,7.67,17.45,17.45,0,0,0,.22,1.91c.11.63.15,1.27.32,1.89s.25,1.26.41,1.87l.59,1.84a26.27,26.27,0,0,1-1.93-7.47,56.88,56.88,0,0,1-.39-7.72c0-2.57.18-5.15.44-7.71S113.41,272.15,113.9,269.62Z"/>
          <path class="cls-15" d="M117.05,284.63c-.08,1.13-.12,2.26-.11,3.39s0,2.26,0,3.38a65.84,65.84,0,0,0,.55,6.74,48.06,48.06,0,0,0,1.38,6.6,32.29,32.29,0,0,0,2.62,6.22,26.34,26.34,0,0,1-3-6.1,42.1,42.1,0,0,1-1.51-6.65,55.32,55.32,0,0,1-.44-6.8A46.53,46.53,0,0,1,117.05,284.63Z"/>
          <path class="cls-15" d="M118,271.73q.23.45.48.87a4,4,0,0,0,.3.39c.11.12.27.18.29.09l.19-.8,0,.84q-.23,5.44-.12,10.87c0,1.82.14,3.62.23,5.43s.3,3.61.51,5.42a46.54,46.54,0,0,1-.87-5.39c-.2-1.81-.29-3.63-.35-5.44a80.91,80.91,0,0,1,.43-10.9l.16,0a.24.24,0,0,1-.32.1.76.76,0,0,1-.22-.17,4,4,0,0,1-.28-.43A8.26,8.26,0,0,1,118,271.73Z"/>
        </g>
        <g>
          <path class="cls-13" d="M123.41,331a10.38,10.38,0,0,0,10.49-6.36"/>
          <path class="cls-14" d="M123.41,331a13.36,13.36,0,0,0,3.22-.43,11.12,11.12,0,0,0,3-1.24,9.93,9.93,0,0,0,2.45-2,14.85,14.85,0,0,0,1.87-2.67c-.21.51-.4,1-.66,1.52a10.72,10.72,0,0,1-.91,1.39,8.44,8.44,0,0,1-2.5,2.22A9.6,9.6,0,0,1,123.41,331Z"/>
        </g>
        <g class="cls-25">
          <g>
            <path class="cls-26" d="M87.93,205.52s-7.72,15.51,0,34.83-4,3.82-4,3.82S74.11,219.57,87.93,205.52Z"/>
            <path class="cls-27" d="M100.56,170.93s-25.62,11-7.13,32.23-3.24,24.29-3.24,24.29,20.52-8.65-.84-25.92S100.56,170.93,100.56,170.93Z"/>
            <path class="cls-28" d="M120,154.87s-21.49,16.9-3.63,37.6,0,39,0,39,8.88-25.11-1.87-36.19S102.76,165.8,120,154.87Z"/>
            <path class="cls-29" d="M142.59,176.85s-15.72,7.59-3.9,28.67-10.53,43.82-10.53,43.82,16-16,10.53-31.22S124.5,185,142.59,176.85Z"/>
            <path class="cls-30" d="M89,286a21.14,21.14,0,0,1-8.64-8.79c-3.79-7.71-.28-14.75,0-23.76.2-6.42-1.16-15.92-9.14-27.91a15.33,15.33,0,0,1,7.38,2.69c6.57,4.71,6.9,13.92,8.18,13.74s-.33-9.06,2.73-19.53c1.59-5.44,3.42-7.86,5.08-11.36,3-6.26,5.4-16.1,2.54-31.52a64.49,64.49,0,0,1,6.6,33.58,62.35,62.35,0,0,1-4.06,17.57c.84-.2,10.09-2.61,13.39-11.6a18.9,18.9,0,0,0,.09-12.31s10.1,5.7,8.73,31.6a72.15,72.15,0,0,1,3.19-18c2.06-6.58,5.7-14.86,7.11-14.47s.11,9.59,0,10.33c-1.59,10.79-5.78,18.23-5.08,18.6s3.09-5.24,9.15-10.33a35.78,35.78,0,0,1,6.09-4.13c-.88.71-10.4,8.59-9.14,19.63a19.07,19.07,0,0,0,3,8.27,8.13,8.13,0,0,0,5.08-1c4.46-2.71,6-10.71,3-19.63a48.09,48.09,0,0,1,5.08,24.8c-.32,4.61-1.32,16.12-10.16,25.84a37.53,37.53,0,0,1-16.26,10.33A56.32,56.32,0,0,1,89,286Z"/>
            <path class="cls-31" d="M93.61,281.38a17.33,17.33,0,0,1-8.13-8.27,18.26,18.26,0,0,1,0-14.47,23.41,23.41,0,0,0,0-7.23c-.43-2.76-1.3-5-.79-5.25.32-.17,1,.52,1.94,1.63a38.35,38.35,0,0,1,5,7.75,58.79,58.79,0,0,1,4.06-36.17,32.18,32.18,0,0,0,3,16.54,30.11,30.11,0,0,0,4.07,6.2,23.89,23.89,0,0,0,1-5.17,25.89,25.89,0,0,0,0-4.13,55.25,55.25,0,0,0-1-6.2s8.13,10.33,6.09,21.7a14.73,14.73,0,0,0,5.08-7.24c1.47-4.94.23-12.09,0-13.43,0-.17-.09-.53-.05-.54.47-.19,7.8,17.65,7,25.77a24.17,24.17,0,0,1,1.48-4.86,33.63,33.63,0,0,1,1.48-3.24,43.53,43.53,0,0,1,5.33-7.83,47.74,47.74,0,0,0,0,20.16c0,1-.12,2.58-.12,2.58s2.11-7.24,4.16-9.3c.9,4.78,1.94,14.56-3,24.29-1.71,3.33-3.84,7.49-8.53,10.13-8.58,4.82-19,.8-21.94-.32A33.6,33.6,0,0,1,93.61,281.38Z"/>
            <path class="cls-32" d="M94.63,274.14a8.71,8.71,0,0,1-3-3.1c-2.4-4.17-.52-9.3,0-9.3.24,0,.23,1.06,1.27,2.33a5.23,5.23,0,0,0,.76.77,5.15,5.15,0,0,0,2.2,1,25.6,25.6,0,0,1-1.1-7.37,21.05,21.05,0,0,1,5-14.34c-.44,1.39-2.26,7.41-1,12.41a10,10,0,0,0,2,4.13c1.16,1.34,2.74,2.36,3,2.07s-1.46-2-2-5.17a13.93,13.93,0,0,1,0-4.13,34.71,34.71,0,0,1,1-5.17h0c1,3,1.63,5.52,2,7.23.36,1.55.54,2.56,1,4.14a33.25,33.25,0,0,0,2,5.16c-.28-10.74-.18-13.42,0-13.43s.58,3.32,2,8.27c.93,3.18,1.44,4.1,2,4.13,1,0,1.93-2.77,2-3.1.71-2.29.11-3.17,0-8.27v-5.17h0s6.1,10.34,3,20.67a18.1,18.1,0,0,0,2-3.1,19.71,19.71,0,0,0,2-6.2,13.53,13.53,0,0,1-1,12.4,8.3,8.3,0,0,0,3-3.1,8.67,8.67,0,0,0,1-5.16,7.7,7.7,0,0,1,.93,6.6,6.6,6.6,0,0,1-2,2.7l4.06-3.1a30.69,30.69,0,0,1-9.14,9.3c-3.69,2.4-8,5.18-13.21,4.13C98.57,281.17,95.3,275.4,94.63,274.14Z"/>
          </g>
        </g>
      </g>
      <g>
        <polygon class="cls-33" points="189.11 186.57 196.64 186.57 196.64 199.61 188.78 199.61 189.11 186.57"/>
        <polygon class="cls-34" points="196.64 186.57 205.15 161.76 205.15 157.97 196.64 177.54 196.64 186.57"/>
        <path class="cls-35" d="M196.64,199.61h8.51v-13l7-24.81s-5.52-4.41-7,0l-8.51,24.81Z"/>
        <polygon class="cls-36" points="189.11 179.71 189.11 186.57 196.64 186.57 196.64 177.54 189.11 177.54 189.11 179.71"/>
        <path class="cls-36" d="M205.15,158s3.36-3.51,7,.84v2.95s-6.05-4.75-7,0Z"/>
      </g>
      <g>
        <polygon class="cls-33" points="36.41 185.98 28.89 185.98 28.89 199.03 36.74 199.03 36.41 185.98"/>
        <polygon class="cls-34" points="28.89 185.98 20.37 161.17 20.37 157.39 28.89 176.95 28.89 185.98"/>
        <path class="cls-35" d="M28.89,199H20.37V186l-7-24.81s5.53-4.4,7,0L28.89,186Z"/>
        <polygon class="cls-36" points="36.41 179.12 36.41 185.98 28.89 185.98 28.89 176.95 36.41 176.95 36.41 179.12"/>
        <path class="cls-36" d="M20.37,157.39s-3.36-3.52-7,.83v2.95s6-4.74,7,0Z"/>
      </g>
      <path class="cls-4" d="M194,272.59s-3.51,39.82,0,69.82c3,30,11.54,92.72,11.54,92.72s-4.07,1.5-6.55,0-10-88.8-10-88.8-3-32.61-3-42.64v-31.1Z"/>
      <path class="cls-37" d="M25.06,140.66l0,5.77a11.41,11.41,0,0,0,3.66,3.67c.69-6.4,0-5.34,0-5.34S26.88,143.92,25.06,140.66Z"/>
      <path class="cls-37" d="M199.65,139.87l0,6s0,2.19-3.88,4.44c1-6.58.9-5.89.9-5.89S199.69,143,199.65,139.87Z"/>
      <g>
        <path class="cls-38" d="M63.29,149c-2.68-17.69,6.85-19.57,7.5-29s-1.7-12.17-1.7-12.17,6.75,3.92,5,13.71c-1.38,7.73-3.13,10.82-1.68,11.18s8.63-12.24,5.55-19.9c-6.48-16.08,2-25,2-25s-3.26,11.69,2,19.85c5.33,8.33,1.91,19.5,4.84,15.59s-5.87-18.27-1.63-32,12.4-21.2,12.4-21.2-6.14,13.42-.27,9.5a68,68,0,0,0,12.6-10.53c.36-.39.7-.79,1-1.19,3-3.78,5.62-8.35,4.75-13.79q-.08-.63-.18-1.23c-.14-.82-.3-1.61-.48-2.38-.15-.55-.31-1.1-.48-1.64-2.85-9.28-7.55-17.92-5.89-23.75,2-6.84,10.44-13.37,10.44-13.37s-8.8,7.83-7.17,16.63,14.67,14.35,13,29.68S112.54,75.63,109,87.7c-1.57,5.28.67,6.69,3.82,6.06a11.21,11.21,0,0,0,1.39-.39c6.28-1.87,9.54-8.39,10.19-14.56q.09-.8.15-1.56a41.55,41.55,0,0,1,1.74-10.1A40.15,40.15,0,0,1,131.78,57s-2.61,4.9-1.31,14.35,3.68,10.32,1.31,18.59c-2.42,8.45-5.82,24.41-2,25.67,2.94,1-.08-8.75,3.26-18.92a39.13,39.13,0,0,1,7.58-13.6s-4.89,8.48-2,17,8.48,8.48,11.41,19.24c0,0,4.12,0,1.31-14.67,0,0,5.77,13,6.63,26.94,0,.38,0,.76.05,1.15.12,5.58-2,16.5-2,16.5S102.79,156.08,63.29,149Z"/>
        <path class="cls-39" d="M64.56,149.08a22.82,22.82,0,0,1-.36-3.51c-.22-9,3-13.27,5.44-17.73,0,0-1.53,11,2.72,11.2s7.53-12.36,7.94-17.4c.54-6.75-1-8-2.18-12.3a13.78,13.78,0,0,1-.43-6.74A30.16,30.16,0,0,0,81,110.65c.87,1.31,2.77,10.17,2.18,13.92-.92,5.76.11,7,3.15,6.75,12.08-1,1.7-18.87,1.31-31C87.15,87,92.26,81.61,92.26,81.61S92.21,87.1,96,86s18.36-14.85,20.73-22.2c3.86-12-.49-20.12-.49-20.12s7.83,12.62,2.06,23.71-24.47,26.22-11.2,31.17c9.67,3.61,17.3-6,19.09-13a54.56,54.56,0,0,0,1.69-13.76s2.39,7.39,1.9,12.94c-.52,5.92-13.3,34.15-1.36,39.27,5.33,2.29,7-2.45,7.4-8.7.59-8.47-2.18-9.19-.87-15.23,0,0-1.09,4.24,6.09,11.1s5.11,20.12,5.11,20.12,5.88-7.61,7.07-9c.26.83-1.82,27.92-1.82,27.92S104.78,155.46,64.56,149.08Z"/>
        <path class="cls-40" d="M102.38,149.16c.5,1.28-5.44-12-5-23.72s-3-7.18-3.27-20S98.9,87.59,98.9,87.59s-5.22,11.09-2,20,6.53,10.66,4.79,16.76S98.46,139.15,102.38,149.16Z"/>
        <path class="cls-41" d="M120.22,100.21c-.43.65-10.44,10.88-8.27,22s7.18,22.85,4.57,31.11c0,0,6.09-15.66.44-27.19S120.22,100.21,120.22,100.21Z"/>
      </g>
      <polygon class="cls-9" points="59.43 156.63 58.17 304.04 35.6 293.99 35.57 153.21 59.43 156.63"/>
      <path class="cls-9" d="M35.6,294s-6.43,3.28-4.89,5.62c0,2.62,4.73,4.86,6.43,5.11l1-9.59Z"/>
      <path class="cls-42" d="M35.6,167c11.45,2.29,23.68,4.19,36.62,5.52A397.47,397.47,0,0,0,189.11,167V154.27s-76.28,13-153.54-1.06C35.57,165.25,35.6,167,35.6,167Z"/>
      <polygon class="cls-4" points="40.37 274.41 22.3 443.98 31.34 443.98 48.89 274.41 40.37 274.41"/>
      <polygon class="cls-9" points="45.96 298.82 57.66 301.67 57.64 304.08 45.56 304.08 45.96 298.82"/>
      <path class="cls-5" d="M30.57,298.28v5.8l3-.82S30.67,302.3,30.57,298.28Z"/>
    </g>
  </g>
</svg>
