<svg id="Layer_1" data-name="Layer 1" xmlns="http://www.w3.org/2000/svg" width="217.53" height="190.98" viewBox="0 0 217.53 190.98">
  <defs>
    <style>
      .cls-1 {
        fill: #050505;
        opacity: 0.5;
      }

      .cls-2 {
        fill: #fff;
      }

      .cls-3 {
        fill: #a3998f;
      }

      .cls-4 {
        fill: #b3a79d;
      }

      .cls-5 {
        fill: #1a0000;
        opacity: 0.1;
      }

      .cls-6 {
        fill: #e6dcc9;
      }

      .cls-7 {
        fill: #64a13f;
      }

      .cls-8 {
        fill: #578d37;
      }

      .cls-9 {
        fill: #8cc63f;
      }

      .cls-10 {
        fill: #7bad37;
      }

      .cls-11 {
        fill: #dbccbf;
      }

      .cls-12 {
        fill: #ebdfce;
      }
    </style>
  </defs>
  <g>
    <path class="cls-1" d="M101.38,189.71c-15.45,0-30.43-2.08-42.18-5.85-23.94-7.52-27.52-19.09-27.52-25.31v-.17c-1.11-1.86-2.47-3.92-4-6.2-9.09-13.76-22.83-34.56-19.42-68a8.45,8.45,0,0,1,.61-2.36c2.1-7.41,9.35-13.64,21.59-18.55a92.08,92.08,0,0,1,8.27-34.31,8,8,0,0,1,6.77-4.5H46a8,8,0,0,1,6.78,3.75A103,103,0,0,0,70.58,48.36a83.87,83.87,0,0,1,15.3-16.31A8,8,0,0,1,98.79,37.5a90.48,90.48,0,0,0,3.31,14.91,269.5,269.5,0,0,1,31.13,1.81A169.54,169.54,0,0,0,156.8,29.37c11.27-14.46,25.86-23.1,39-23.1a22.4,22.4,0,0,1,9.78,2.07,15.74,15.74,0,0,1,9.13,13.27c.57,7.69-3.63,20.16-26.86,36q-5.79,3.95-11,7.66c6.9,3.31,11.82,7.15,14.68,11.47a17,17,0,0,1,3,9.35s0,.26,0,.3A123.49,123.49,0,0,1,171.1,159C170.58,179.16,135.77,189.71,101.38,189.71Z"/>
    <path class="cls-2" d="M96.38,184.71c-15.45,0-30.43-2.08-42.18-5.85-23.94-7.52-27.52-19.09-27.52-25.31v-.17c-1.11-1.86-2.47-3.92-4-6.2-9.09-13.76-22.83-34.56-19.42-68a8.45,8.45,0,0,1,.61-2.36C6,69.39,13.24,63.16,25.48,58.25a92.08,92.08,0,0,1,8.27-34.31,8,8,0,0,1,6.77-4.5H41a8,8,0,0,1,6.78,3.75A103,103,0,0,0,65.58,43.36a83.87,83.87,0,0,1,15.3-16.31A8,8,0,0,1,93.79,32.5,90.48,90.48,0,0,0,97.1,47.41a269.5,269.5,0,0,1,31.13,1.81A169.54,169.54,0,0,0,151.8,24.37c11.27-14.46,25.86-23.1,39-23.1a22.4,22.4,0,0,1,9.78,2.07,15.74,15.74,0,0,1,9.13,13.27c.57,7.69-3.63,20.16-26.86,36q-5.79,3.95-11,7.66c6.9,3.31,11.82,7.15,14.68,11.47a17,17,0,0,1,3,9.35s0,.26,0,.3A123.49,123.49,0,0,1,166.1,154C165.58,174.16,130.77,184.71,96.38,184.71Z"/>
    <g>
      <path class="cls-3" d="M158.11,153.55c0,12.77-27.63,23.16-61.73,23.16-15.13,0-29-2-39.74-5.47-13.44-4.22-22-10.58-22-17.69a6.82,6.82,0,0,1,.22-1.86v0c2.56-11.88,29.1-21.27,61.48-21.27a147.65,147.65,0,0,1,30.38,3c17.35,3.69,29.46,10.44,31.12,18.27v0A6.82,6.82,0,0,1,158.11,153.55Z"/>
      <path class="cls-4" d="M181.51,81.22a115.56,115.56,0,0,1-23.63,70.44v0c-2.58,11-29.12,19.66-61.5,19.66A154.8,154.8,0,0,1,63.22,168c-3.11-.69-6-1.47-8.77-2.36-11-3.53-18.27-8.44-19.55-13.94v0C27.65,138,7.36,118.12,11.24,80,58,60.42,110.71,63.56,147.69,71.39A215.45,215.45,0,0,1,181.51,81.22Z"/>
      <path class="cls-5" d="M157.88,151.69a6.82,6.82,0,0,1,.23,1.86c0,12.77-27.63,23.16-61.73,23.16-15.13,0-29-2-39.74-5.47L63.22,168c34.3-1.08,53-16.24,63.54-34.6,8.19-14.33,11.41-30.6,13.1-43.7a38.21,38.21,0,0,1,7.83-18.3,215.45,215.45,0,0,1,33.82,9.83,115.56,115.56,0,0,1-23.63,70.44Z"/>
      <path class="cls-4" d="M169.19,79c0,10-21.86,18.41-51.82,21.13-.5.05-1,.08-1.55.14-3.06.25-6.2.47-9.39.61s-6.64.19-10.05.19c-4.08,0-8-.11-11.94-.3s-7.8-.5-11.5-.86C44.23,96.9,23.57,88.69,23.57,79S43.68,61.25,71.78,58.2v0a229.88,229.88,0,0,1,24.6-1.28,221.78,221.78,0,0,1,32.32,2.28,123.82,123.82,0,0,1,23.35,5.61C162.74,68.58,169.19,73.55,169.19,79Z"/>
      <path class="cls-6" d="M23.57,79c0-9.58,20.11-17.72,48.21-20.77v0a229.88,229.88,0,0,1,24.6-1.28,221.78,221.78,0,0,1,32.32,2.28,123.82,123.82,0,0,1,23.35,5.61C161,68,166.94,72,168.66,76.34l11.18-.22C172,64.3,137.63,55.41,96.38,55.41c-45,0-81.88,10.6-84.9,24L23.6,79.2C23.6,79.12,23.57,79.05,23.57,79Z"/>
      <path class="cls-5" d="M84.44,100.74C49.9,99,23.57,89.94,23.57,79c0-9.58,20.11-17.72,48.21-20.77C66.39,67.83,63.72,86.44,84.44,100.74Z"/>
      <g>
        <path class="cls-7" d="M81.93,102.67a.42.42,0,0,1-.17.1.75.75,0,0,1-.17.1l-.47.22A15.59,15.59,0,0,1,64.68,101a11.63,11.63,0,0,1-4.14-6.2c0-.25-.1-.47-.15-.72a3.49,3.49,0,0,1-.15-.77c-.3-1.34-.5-2.68-.67-4,0-.2,0-.42,0-.64s-.05-.53-.08-.8a44.18,44.18,0,0,1-.09-6.5,21.64,21.64,0,0,1,.17-2.29,51.65,51.65,0,0,1,1.56-8.59,58.49,58.49,0,0,1,2.31-6.92,66.42,66.42,0,0,1,4-8.22,78.4,78.4,0,0,1,18.47-22,102.3,102.3,0,0,0,9.26,30.75C102.64,79.41,91.69,97.68,81.93,102.67Z"/>
        <path class="cls-8" d="M80.25,80.48c-.08,0-.2,0-.28,0,.15,2.21.33,4.42.38,6.66a78.86,78.86,0,0,0,1.58,15.51,15.6,15.6,0,0,0,.43,1.86.39.39,0,0,1-.18.38.3.3,0,0,1-.37-.13,15,15,0,0,1-.69-1.69,33.87,33.87,0,0,1-1.67-10.5c0-1-.07-2-.12-3-.25-6.45-1.09-12.93-.8-19.41A154.6,154.6,0,0,1,80.64,53c.82-5.26,1.67-12,4.94-16.33.18-.22.58,0,.4.25-2.63,4.84-3.6,10.94-4.39,16.36-.4,2.88-.87,5.8-1.27,8.73A33.34,33.34,0,0,0,85,56.55a20.2,20.2,0,0,0,2.91-7.62s.07,0,.07,0a16.51,16.51,0,0,1-7.54,14.4.68.68,0,0,1-.28,0,69.63,69.63,0,0,0-.59,7.87c0,2.81.12,5.61.32,8.42,5-4.12,9.68-8.24,12.86-14a.37.37,0,0,1,.67.3A25.38,25.38,0,0,1,80.25,80.48Z"/>
        <path class="cls-8" d="M75.11,59.1a31.53,31.53,0,0,1-2.27-7.34c-.09-.48-.79-.34-.82.11C71.76,56.3,74.45,61.5,77,65c.28.38,1,.17.83-.35C77.09,62.7,76,61,75.11,59.1Z"/>
        <path class="cls-8" d="M76.26,73.5c-2.58-3.2-7.1-6.37-7.72-10.65,0-.16-.27-.11-.27,0-.06,2.17,1,3.53,2.17,5.26A28.15,28.15,0,0,0,75.76,74,.35.35,0,0,0,76.26,73.5Z"/>
        <path class="cls-8" d="M77.76,83.33c-2.17-1.13-4.39-1.76-6.44-3.2a27.89,27.89,0,0,1-7.07-6.5c-.16-.23-.53,0-.38.23a22.3,22.3,0,0,0,13.58,10.2C77.88,84.15,78.18,83.55,77.76,83.33Z"/>
        <path class="cls-8" d="M76.25,92.07A44.81,44.81,0,0,1,61,85.71c-.18-.11-.32.16-.16.27,4.41,3.31,9.62,6.39,15.28,6.7C76.51,92.69,76.59,92.14,76.25,92.07Z"/>
        <path class="cls-8" d="M76.88,95.74a22.39,22.39,0,0,1-11.81.85c-.35-.07-.51.46-.15.55a17.36,17.36,0,0,0,12.12-1C77.25,96,77.1,95.67,76.88,95.74Z"/>
        <path class="cls-8" d="M90,58.43c-1,1.88-1.81,3.94-2.94,5.72a34.73,34.73,0,0,1-4.44,5.17.56.56,0,0,0,.67.87c4.28-2.41,5.61-7.11,7.63-11.22C91.2,58.35,90.29,57.81,90,58.43Z"/>
        <path class="cls-8" d="M95.15,74c-2,6.68-8.63,10.83-13,15.81-.36.4.1,1.12.61.79,5.54-3.6,12.08-9.57,12.56-16.57C95.35,74,95.18,73.93,95.15,74Z"/>
      </g>
      <g>
        <path class="cls-9" d="M75.36,76.53v0a41.85,41.85,0,0,1-.3,5.53c0,.4-.1.77-.15,1.17a35.71,35.71,0,0,1-2.14,7.92l-.37.89A22.81,22.81,0,0,1,70,96.29l-.25.32-.35.43h0a4,4,0,0,1-.6.67A15.68,15.68,0,0,1,64.68,101c-7,4-15.49,2.19-19.09-2.26-7.69-9.4-11.09-20.28-12-30.83A83.63,83.63,0,0,1,41,27.43,109.31,109.31,0,0,0,64.43,52.75a24.7,24.7,0,0,1,2.93,2.63A30,30,0,0,1,75,72.09c0,.47.12.92.15,1.39C75.28,74.5,75.33,75.51,75.36,76.53Z"/>
        <path class="cls-10" d="M63.71,55.32a.41.41,0,0,0-.81,0C62.56,62.44,60,68.65,57.13,75c-1.53-2.61-3-5.24-4.31-8a83.23,83.23,0,0,1-3.14-7.9.47.47,0,0,0,.25-.18,17.7,17.7,0,0,0,.46-17.47s-.07,0-.06,0a21.58,21.58,0,0,1,.8,8.75,35.71,35.71,0,0,1-1.94,7.51c-1-3-1.94-6-2.9-9-1.79-5.59-3.75-12-3.48-17.87a.26.26,0,0,0-.52,0c-1.11,5.73,1.26,12.63,3,18.11a169.34,169.34,0,0,0,6,17.52c2.77,6.38,6.64,12.24,9.94,18.36,2.67,4.94,5.13,10,9.6,13.55.29.23.65-.22.42-.49A82.47,82.47,0,0,1,61.1,82c-1.11-2.12-2.32-4.18-3.53-6.25a.48.48,0,0,0,.28-.15A27.39,27.39,0,0,0,63.71,55.32Z"/>
        <path class="cls-10" d="M42.77,57.38a33.29,33.29,0,0,1-5.66-6c-.32-.42-.93,0-.74.5,1.84,4.4,6.9,8.15,11,10.3.44.23,1.08-.32.63-.73C46.39,59.92,44.49,58.78,42.77,57.38Z"/>
        <path class="cls-10" d="M50.68,70.75c-4-1.87-9.86-2.8-12.49-6.64-.09-.14-.3,0-.24.16,1,2.13,2.62,3,4.59,4.06a30.08,30.08,0,0,0,7.9,3.13A.37.37,0,0,0,50.68,70.75Z"/>
        <path class="cls-10" d="M56.79,79.54c-2.64-.07-5.08.37-7.73-.05a30.2,30.2,0,0,1-9.9-2.94c-.27-.14-.53.23-.27.4a24,24,0,0,0,17.94,3.43C57.29,80.27,57.29,79.55,56.79,79.54Z"/>
        <path class="cls-10" d="M59.45,88.69a48.33,48.33,0,0,1-17.69,1c-.22,0-.23.3,0,.34,5.82,1.1,12.31,1.62,17.93-.77A.33.33,0,0,0,59.45,88.69Z"/>
        <path class="cls-10" d="M61.81,91.93a24,24,0,0,1-11,6.41c-.38.1-.27.69.11.6,4.67-1.08,8.21-3,11.22-6.72C62.29,92,62,91.76,61.81,91.93Z"/>
        <path class="cls-10" d="M56.81,49.7c0,2.27.12,4.67-.13,6.91a37.81,37.81,0,0,1-1.84,7.1.6.6,0,0,0,1,.53c3-4.36,2.07-9.52,2.07-14.45C58,49.05,56.82,49,56.81,49.7Z"/>
        <path class="cls-10" d="M69.19,62.33c1.22,7.39-3.22,14.54-5.07,21.4-.15.57.63,1,1,.48,3.66-6.1,7.16-14.95,4.31-21.95A.11.11,0,0,0,69.19,62.33Z"/>
      </g>
      <path class="cls-5" d="M82.18,104.91a.3.3,0,0,1-.37-.13,15,15,0,0,1-.69-1.69A15.59,15.59,0,0,1,64.68,101c-7,4-15.49,2.19-19.09-2.26-7.69-9.4-11.09-20.28-12-30.83a1.2,1.2,0,0,0,0-.17C37.3,81.45,52.87,89.49,59.44,87.9a3.73,3.73,0,0,0,2.24-1.34,1,1,0,0,0,.22-.32s.05,0,.05-.08a1.35,1.35,0,0,0,.22-.47,16.14,16.14,0,0,0,1.57,1.17c2,1.31,5.51,2.88,7.57-.23a26.77,26.77,0,0,0,2.14-4c.14-.37.29-.72.44-1.07a36.1,36.1,0,0,0,1.47-5c.1.32.77,2.88,1.68,6.43.08.34.18.69.28,1,.64,2.58,1.41,5.58,2.13,8.56.9,3.68,1.74,7.33,2.31,10.18C81.91,103.54,82.06,104.26,82.18,104.91Z"/>
      <path class="cls-5" d="M72.53,98.32a11.41,11.41,0,0,0,3.08,1.81l-2.67-.25C72.78,99.35,72.64,98.85,72.53,98.32Z"/>
      <path class="cls-11" d="M178.38,46c-10.28,7-19,13.25-26.33,18.83-23.52,17.85-32.87,28.79-34.68,35.32-.5.05-1,.08-1.55.14-3.06.25-6.2.47-9.39.61l-1.22-.7c-9.36-5.41-20.77-13.46-20.77-13.46l7.64-11.78c4,2.75,18.77-1.77,36.62-15.74a172.89,172.89,0,0,0,29.41-29.88c14-18,31-22.63,39-18.74C205.65,14.66,204.15,28.43,178.38,46Z"/>
      <path class="cls-12" d="M115.82,100.24c-6.2.52-12.69.8-19.44.8-3.61,0-7.16-.08-10.61-.25-.44,0-.89,0-1.33-.05-3-.14-6-.36-8.83-.61l-2.67-.25c-.16-.53-.3-1-.41-1.56-2.25-9-.42-17.94,5.22-23.55,6.63-6.63,18.85,1.28,28.38,11.92A74.68,74.68,0,0,1,115.82,100.24Z"/>
      <path class="cls-5" d="M197.12,10.55v0c5.19,13.05-15.61,28.43-48.57,49.09C120.25,77.39,111,84.36,108.4,89.38c-.74-.91-1.49-1.81-2.27-2.69-1.95,6.74-11.44,12.63-20.36,14.1,3.45.17,7,.25,10.61.25q5.12,0,10-.21l0,0c3.19-.14,6.33-.36,9.39-.61.52-.06,1.05-.09,1.55-.14,1.81-6.53,11.16-17.47,34.68-35.32C159.38,59.2,168.1,53,178.38,46,204.15,28.43,205.65,14.66,197.12,10.55Z"/>
      <path class="cls-6" d="M168.66,76.34a7.14,7.14,0,0,1,.53,2.63c0,10-21.86,18.41-51.82,21.13-.5.05-1,.08-1.55.14-3.06.25-6.2.47-9.39.61s-6.64.19-10.05.19c-4.08,0-8-.11-11.94-.3s-7.8-.5-11.5-.86c-28.48-2.95-49-11.06-49.34-20.68l-12.12.24a7.69,7.69,0,0,0-.23,1.78C11.25,95.48,49.37,107,96.38,107s85.13-11.56,85.13-25.82a9.19,9.19,0,0,0-1.67-5.1Z"/>
    </g>
  </g>
</svg>
