<svg xmlns="http://www.w3.org/2000/svg" xmlns:xlink="http://www.w3.org/1999/xlink" width="312" height="250.72" viewBox="0 0 312 250.72">
  <defs>
    <style>
      .cls-1 {
        isolation: isolate;
      }

      .cls-2 {
        fill: #fffa4d;
      }

      .cls-3 {
        fill: #f4e9e4;
        stroke: #3a3a35;
        stroke-miterlimit: 10;
      }

      .cls-4 {
        opacity: 0.2;
      }

      .cls-4, .cls-6 {
        mix-blend-mode: multiply;
      }

      .cls-5 {
        fill: #dd8e65;
      }

      .cls-6 {
        opacity: 0.5;
      }

      .cls-7 {
        fill: #c6b9b3;
      }

      .cls-8 {
        fill: url(#linear-gradient);
      }
    </style>
    <linearGradient id="linear-gradient" x1="246.36" y1="161.92" x2="196.02" y2="196.81" gradientUnits="userSpaceOnUse">
      <stop offset="0" stop-color="#c95b3c"/>
      <stop offset="0.13" stop-color="#dd8e65"/>
      <stop offset="0.31" stop-color="#e6baa8"/>
      <stop offset="0.31" stop-color="#e7bcaa"/>
      <stop offset="0.37" stop-color="#ecccbe"/>
      <stop offset="0.43" stop-color="#f0d6cb"/>
      <stop offset="0.48" stop-color="#f1d9cf"/>
      <stop offset="0.71" stop-color="#e6baa8"/>
      <stop offset="0.87" stop-color="#dd8e65"/>
      <stop offset="1" stop-color="#c95b3c"/>
    </linearGradient>
  </defs>
  <g class="cls-1">
    <g id="Layer_1" data-name="Layer 1">
      <g>
        <path class="cls-2" d="M201.69,242.58c-35.52,0-65.61-18.06-77.31-45.13a70.76,70.76,0,0,1-38.85,11.77c-1.69,0-3.4-.06-5.09-.19-1.07-.08-2.2-.19-3.46-.34l-.34-.05-.75-.1-.26,0-2.1-.33-.7-.12-1-.18-1.81-.38-1.78-.42c-.5-.12-1-.25-1.43-.38l-1.36-.38-.7-.2-.71-.23-1.17-.38-.38-.12-1.14-.4-1.13-.42-.13-.05c-.7-.26-1.42-.55-2.14-.85-.44-.18-.87-.36-1.29-.55-.75-.32-1.47-.66-2.19-1l-.28-.14-.83-.39c-1-.51-2-1.05-3-1.6l-.89-.51-.32-.19c-.63-.37-1.25-.73-1.86-1.11l-1.41-.91c-.53-.35-1.06-.7-1.58-1.06s-1-.67-1.44-1-.94-.7-1.41-1.05l-.1-.08c-.81-.62-1.62-1.26-2.42-1.92l-.28-.24c-.39-.31-.77-.63-1.15-1s-.87-.77-1.3-1.17l-.22-.2-1.1-1c-.52-.5-1-1-1.55-1.51l-.93-1c-.54-.56-1.07-1.11-1.58-1.68-.14-.15-.28-.3-.41-.46l-.15-.17c-1.21-1.36-2.39-2.76-3.49-4.17l-.2-.25c-.56-.74-1.09-1.45-1.61-2.17l-.55-.76c-.5-.71-1-1.45-1.5-2.2l-.42-.64a89.56,89.56,0,0,1-6.08-11l-.24-.53c-.42-.92-.84-1.87-1.24-2.83l-.1-.24a98.25,98.25,0,0,1-3.4-9.66v-.06c-.31-1.05-.6-2.12-.88-3.2l-.11-.42a111.92,111.92,0,0,1-2.9-35.69C9.44,84.61,19.32,59,34.66,39.78,50.9,19.38,71.06,8.14,91.42,8.14c1.33,0,2.68,0,4,.15a56.54,56.54,0,0,1,13,2.53l.35.11a63,63,0,0,1,13.3,6.13l.13.09c1,.57,2,1.24,3,2l0,0a78.54,78.54,0,0,1,11.58,9.8l.06.07c.87.89,1.75,1.83,2.59,2.77l.08.1A95.79,95.79,0,0,1,149,44.44l.12.2c.66,1,1.33,2.15,2,3.27l.12.21c.67,1.16,1.31,2.32,1.9,3.45l.09.16c1.21,2.3,2.41,4.79,3.51,7.29.57,1.3,1.08,2.52,1.57,3.76l.14.35c.47,1.18.93,2.4,1.37,3.64l.1.29c.47,1.32.9,2.57,1.3,3.84l.05.16c.85,2.69,1.61,5.39,2.26,8.08l.05.19c.33,1.35.62,2.66.9,4l.1.46c.26,1.3.51,2.59.73,3.89,0,0,.2,1.14.21,1.18.18,1.1.34,2.2.5,3.31,0,0,.15,1.17.2,1.58.22,1.73.39,3.38.53,5,0,0,0,.12,0,.14.06.67.11,1.34.16,2l0,.4c0,.63.08,1.26.11,1.88a104.85,104.85,0,0,1,26.79-7.89,120,120,0,0,1,18.63-1.45c20.54,0,40.92,5.21,57.4,14.67,17.54,10.07,29.4,24.32,33.38,40.11,0,0,0,.12,0,.14.16.63.3,1.26.44,1.89l.06.31c.14.66.27,1.37.38,2.09,4.19,26.45-12.7,55.14-43,73.09l-.1.06c-1.8,1.06-3.56,2-5.3,3l-.34.17c-.73.38-1.51.78-2.3,1.16l-.38.19c-.89.44-1.78.86-2.68,1.27l-.09,0c-.83.38-1.67.74-2.51,1.1l-.62.26-2.31.95-.38.15c-.9.35-1.79.69-2.69,1l-.64.24-2.15.74-.74.25c-.89.3-1.79.58-2.69.85a2.46,2.46,0,0,1-.29.09c-.85.26-1.68.49-2.51.73l-.83.22-2.19.57-.66.17c-.94.22-1.87.44-2.8.64l-.72.15c-.74.16-1.47.31-2.21.45l-.86.16c-.94.18-1.9.34-2.87.5a113,113,0,0,1-17.57,1.4Z"/>
        <g>
          <g>
            <path class="cls-3" d="M158.88,118.74c-3.81,51-39.41,85.19-77.84,82.32s-69.32-39.5-65.51-90.53S56.4,13.4,94.84,16.27,162.69,67.71,158.88,118.74Z"/>
            <g class="cls-4">
              <path class="cls-5" d="M106.15,18.49c13,11.35,32.17,39.06,29.36,80.76-3.54,52.47-42.21,79.4-70,78.3-20.74-.83-39.47-13.2-48.05-36.93,7.57,34.84,33.19,58.17,63.55,60.44,38.43,2.87,74-31.29,77.84-82.32C162.3,72.85,138.86,29,106.15,18.49Z"/>
            </g>
            <g class="cls-6">
              <path class="cls-7" d="M155.73,81c1,11.07.22,25.54-7.53,35.88-12.8,17.07-22.12,28.27-24,52.44-1.68,21.37-35.29,38.25-67.91,24.74a64.64,64.64,0,0,0,24.76,7c38.43,2.87,74-31.29,77.84-82.32A120.75,120.75,0,0,0,155.73,81Z"/>
            </g>
          </g>
          <g>
            <g>
              <path class="cls-3" d="M218,233.28C171.51,240.64,133.4,216,127.85,181s20.73-70.43,67.23-77.79,95.62,16.07,101.17,51.1S264.51,225.9,218,233.28Z"/>
              <g class="cls-4">
                <path class="cls-8" d="M180,226.07c-34.91-9.92-47.74-31.18-52.41-46.89.08.59.15,1.19.24,1.78,5.55,35,43.66,59.68,90.16,52.32,32.37-5.13,60.25-24.43,72.35-47.5C267.27,215.21,221.63,237.9,180,226.07Z"/>
              </g>
            </g>
            <g class="cls-4">
              <path class="cls-5" d="M296.25,154.27a42.74,42.74,0,0,0-1.8-7.19c-.66,23.89-20.32,47.78-61.48,56.23-61.13,12.54-102.17-18.59-95.11-55.82,3-16,13-22.67,22.27-31.59C136.06,131,123.91,156.05,127.85,181c5.55,35,43.66,59.68,90.16,52.32S301.8,189.3,296.25,154.27Z"/>
            </g>
          </g>
        </g>
      </g>
    </g>
  </g>
</svg>
