<svg id="Layer_1" data-name="Layer 1" xmlns="http://www.w3.org/2000/svg" xmlns:xlink="http://www.w3.org/1999/xlink" width="182" height="370" viewBox="0 0 182 370">
  <defs>
    <style>
      .cls-1 {
        fill: none;
      }

      .cls-2 {
        fill: #050505;
        opacity: 0.5;
      }

      .cls-3 {
        fill: #fff;
      }

      .cls-4 {
        fill: url(#linear-gradient);
      }

      .cls-5 {
        fill: #281b18;
      }

      .cls-6 {
        fill: #21201e;
      }

      .cls-7 {
        fill: url(#linear-gradient-2);
      }

      .cls-8 {
        fill: #82706e;
      }

      .cls-9 {
        fill: url(#linear-gradient-3);
      }

      .cls-10 {
        fill: #191918;
      }

      .cls-11 {
        opacity: 0.25;
      }

      .cls-12 {
        fill: url(#linear-gradient-4);
      }

      .cls-13, .cls-14, .cls-20, .cls-25 {
        fill: #ffb871;
      }

      .cls-13, .cls-18, .cls-23, .cls-25 {
        stroke: #a67c52;
      }

      .cls-13, .cls-18, .cls-20, .cls-23, .cls-25 {
        stroke-miterlimit: 10;
      }

      .cls-13 {
        stroke-width: 0.25px;
      }

      .cls-15 {
        fill: #a67c52;
      }

      .cls-16 {
        fill: #42210b;
      }

      .cls-17 {
        fill: url(#linear-gradient-5);
      }

      .cls-18, .cls-20, .cls-23, .cls-25 {
        stroke-width: 0.5px;
      }

      .cls-18 {
        fill: url(#linear-gradient-6);
      }

      .cls-19 {
        fill: url(#linear-gradient-7);
      }

      .cls-20 {
        stroke: #603813;
      }

      .cls-21 {
        fill: #110a07;
      }

      .cls-22 {
        fill: url(#linear-gradient-8);
      }

      .cls-23 {
        fill: url(#linear-gradient-9);
      }

      .cls-24 {
        fill: url(#linear-gradient-10);
      }

      .cls-26 {
        clip-path: url(#clip-path);
      }

      .cls-27 {
        fill: url(#linear-gradient-11);
      }

      .cls-28 {
        fill: url(#linear-gradient-12);
      }

      .cls-29 {
        fill: url(#linear-gradient-13);
      }

      .cls-30 {
        fill: url(#linear-gradient-14);
      }

      .cls-31 {
        fill: url(#linear-gradient-15);
      }

      .cls-32 {
        fill: url(#linear-gradient-16);
      }

      .cls-33 {
        fill: #f9f82d;
      }

      .cls-34 {
        fill: #b2b1b6;
      }

      .cls-35 {
        fill: #36383d;
      }

      .cls-36 {
        fill: #45464b;
      }

      .cls-37 {
        fill: #9a9c9e;
      }

      .cls-38 {
        fill: #2c2b29;
      }

      .cls-39 {
        fill: url(#linear-gradient-17);
      }

      .cls-40 {
        fill: url(#linear-gradient-18);
      }

      .cls-41 {
        fill: url(#linear-gradient-19);
      }

      .cls-42 {
        fill: url(#linear-gradient-20);
      }

      .cls-43 {
        opacity: 0.14;
      }
    </style>
    <linearGradient id="linear-gradient" x1="79.24" y1="130.77" x2="80.7" y2="244.87" gradientUnits="userSpaceOnUse">
      <stop offset="0" stop-color="#fff"/>
      <stop offset="0.38" stop-color="#f9f82d"/>
      <stop offset="0.39" stop-color="#f7f22d"/>
      <stop offset="0.51" stop-color="#e6c12b"/>
      <stop offset="0.62" stop-color="#d99b29"/>
      <stop offset="0.72" stop-color="#d08028"/>
      <stop offset="0.81" stop-color="#ca6f27"/>
      <stop offset="0.88" stop-color="#c86927"/>
    </linearGradient>
    <linearGradient id="linear-gradient-2" x1="87.68" y1="38.37" x2="88.26" y2="129.57" gradientUnits="userSpaceOnUse">
      <stop offset="0" stop-color="#fff"/>
      <stop offset="0" stop-color="#d9d9d9"/>
      <stop offset="0" stop-color="#b0b0b0"/>
      <stop offset="0" stop-color="#8b8b8a"/>
      <stop offset="0" stop-color="#6a6a6a"/>
      <stop offset="0" stop-color="#4f4f4e"/>
      <stop offset="0" stop-color="#393938"/>
      <stop offset="0" stop-color="#282827"/>
      <stop offset="0" stop-color="#1d1d1c"/>
      <stop offset="0" stop-color="#161615"/>
      <stop offset="0" stop-color="#141413"/>
      <stop offset="0.53" stop-color="#d69129"/>
      <stop offset="0.7" stop-color="#d58f29"/>
      <stop offset="0.86" stop-color="#121212"/>
    </linearGradient>
    <linearGradient id="linear-gradient-3" x1="27.55" y1="187.03" x2="154.62" y2="186.27" gradientUnits="userSpaceOnUse">
      <stop offset="0" stop-color="#fff"/>
      <stop offset="0" stop-color="#d9d9d9"/>
      <stop offset="0" stop-color="#b0b0b0"/>
      <stop offset="0" stop-color="#8b8b8a"/>
      <stop offset="0" stop-color="#6a6a6a"/>
      <stop offset="0" stop-color="#4f4f4e"/>
      <stop offset="0" stop-color="#393938"/>
      <stop offset="0" stop-color="#282827"/>
      <stop offset="0" stop-color="#1d1d1c"/>
      <stop offset="0" stop-color="#161615"/>
      <stop offset="0" stop-color="#141413"/>
      <stop offset="0.7" stop-color="#070707"/>
      <stop offset="1" stop-color="#121212"/>
    </linearGradient>
    <linearGradient id="linear-gradient-4" x1="131.59" y1="188.54" x2="116.57" y2="291.45" gradientUnits="userSpaceOnUse">
      <stop offset="0.31" stop-color="#944d1b"/>
      <stop offset="0.36" stop-color="#864618"/>
      <stop offset="0.47" stop-color="#603212"/>
      <stop offset="0.62" stop-color="#241307"/>
      <stop offset="0.7"/>
    </linearGradient>
    <linearGradient id="linear-gradient-5" x1="124.09" y1="220.67" x2="93.44" y2="273.42" gradientUnits="userSpaceOnUse">
      <stop offset="0.31" stop-color="#892e15"/>
      <stop offset="0.34" stop-color="#822c14"/>
      <stop offset="0.39" stop-color="#6e2511"/>
      <stop offset="0.45" stop-color="#4e1a0c"/>
      <stop offset="0.51" stop-color="#220b05"/>
      <stop offset="0.55"/>
    </linearGradient>
    <linearGradient id="linear-gradient-6" x1="126.53" y1="249.87" x2="150.95" y2="282.16" gradientUnits="userSpaceOnUse">
      <stop offset="0" stop-color="#ffb871"/>
      <stop offset="0.16" stop-color="#df9254"/>
      <stop offset="0.43" stop-color="#ac5528"/>
      <stop offset="0.63" stop-color="#8d2f0c"/>
      <stop offset="0.74" stop-color="#812101"/>
    </linearGradient>
    <linearGradient id="linear-gradient-7" x1="52.18" y1="205.6" x2="63.77" y2="247.88" gradientUnits="userSpaceOnUse">
      <stop offset="0.31" stop-color="#812101"/>
      <stop offset="0.4" stop-color="#7a1f01"/>
      <stop offset="0.54" stop-color="#671a01"/>
      <stop offset="0.71" stop-color="#471201"/>
      <stop offset="0.89" stop-color="#1c0700"/>
      <stop offset="1"/>
    </linearGradient>
    <linearGradient id="linear-gradient-8" x1="64.72" y1="227.74" x2="88.44" y2="248.22" gradientUnits="userSpaceOnUse">
      <stop offset="0.31" stop-color="#944d1b"/>
      <stop offset="0.41" stop-color="#864618"/>
      <stop offset="0.6" stop-color="#603212"/>
      <stop offset="0.86" stop-color="#241307"/>
      <stop offset="1"/>
    </linearGradient>
    <linearGradient id="linear-gradient-9" x1="64.34" y1="246.81" x2="68.6" y2="272.19" gradientUnits="userSpaceOnUse">
      <stop offset="0.14" stop-color="#ffb871"/>
      <stop offset="0.31" stop-color="#fdb670"/>
      <stop offset="0.4" stop-color="#f4b06c"/>
      <stop offset="0.48" stop-color="#e7a666"/>
      <stop offset="0.54" stop-color="#d3985d"/>
      <stop offset="0.6" stop-color="#b98652"/>
      <stop offset="0.66" stop-color="#9a6f44"/>
      <stop offset="0.71" stop-color="#745433"/>
      <stop offset="0.76" stop-color="#493420"/>
      <stop offset="0.81" stop-color="#19120b"/>
      <stop offset="0.83"/>
    </linearGradient>
    <linearGradient id="linear-gradient-10" x1="83.2" y1="238.21" x2="117.6" y2="238.21" xlink:href="#linear-gradient-8"/>
    <clipPath id="clip-path">
      <path class="cls-1" d="M51,198.69S42.9,218.27,51,222,38.57,239.59,51,248s82.39,6,81.68-19.51-11.11-30.35-11.11-30.35S87.51,214.18,51,198.69Z"/>
    </clipPath>
    <linearGradient id="linear-gradient-11" x1="67.86" y1="170.93" x2="65.75" y2="204.94" gradientUnits="userSpaceOnUse">
      <stop offset="0" stop-color="#ef913c"/>
      <stop offset="0.35" stop-color="#ed8f3b"/>
      <stop offset="0.51" stop-color="#e68837"/>
      <stop offset="0.63" stop-color="#d97b30"/>
      <stop offset="0.73" stop-color="#c76927"/>
      <stop offset="0.82" stop-color="#b0511a"/>
      <stop offset="0.9" stop-color="#94350b"/>
      <stop offset="0.94" stop-color="#812101"/>
    </linearGradient>
    <linearGradient id="linear-gradient-12" x1="1105.94" y1="-70.36" x2="1103.23" y2="-26.75" gradientTransform="translate(-1007.45 -80.18) rotate(15.37)" xlink:href="#linear-gradient-11"/>
    <linearGradient id="linear-gradient-13" x1="92" y1="134.87" x2="88.34" y2="193.73" xlink:href="#linear-gradient-11"/>
    <linearGradient id="linear-gradient-14" x1="108.68" y1="151.91" x2="105.19" y2="208.12" xlink:href="#linear-gradient-11"/>
    <linearGradient id="linear-gradient-15" x1="88.52" y1="160.34" x2="83.29" y2="244.47" xlink:href="#linear-gradient-11"/>
    <linearGradient id="linear-gradient-16" x1="84.33" y1="174.9" x2="87.61" y2="276.24" gradientUnits="userSpaceOnUse">
      <stop offset="0" stop-color="#f9f82d"/>
      <stop offset="0.61" stop-color="#e3a32f"/>
      <stop offset="0.94" stop-color="#d87930"/>
    </linearGradient>
    <linearGradient id="linear-gradient-17" x1="86.63" y1="121.87" x2="86.63" y2="9.24" gradientUnits="userSpaceOnUse">
      <stop offset="0" stop-color="#f8d409"/>
      <stop offset="0.08" stop-color="#f7cb0a"/>
      <stop offset="0.22" stop-color="#f6b20e"/>
      <stop offset="0.4" stop-color="#f38914"/>
      <stop offset="0.6" stop-color="#f0521c"/>
      <stop offset="0.78" stop-color="#ec1c24"/>
      <stop offset="1" stop-color="#ec1c24"/>
    </linearGradient>
    <linearGradient id="linear-gradient-18" x1="85.24" y1="121.87" x2="85.24" y2="43.18" gradientUnits="userSpaceOnUse">
      <stop offset="0" stop-color="#f7e88e"/>
      <stop offset="0.06" stop-color="#f7e266"/>
      <stop offset="0.13" stop-color="#f8dd45"/>
      <stop offset="0.19" stop-color="#f8d92b"/>
      <stop offset="0.26" stop-color="#f8d618"/>
      <stop offset="0.33" stop-color="#f8d50d"/>
      <stop offset="0.41" stop-color="#f8d409"/>
      <stop offset="1" stop-color="#ea5f24"/>
    </linearGradient>
    <linearGradient id="linear-gradient-19" x1="76.87" y1="130.74" x2="76.87" y2="81.32" gradientUnits="userSpaceOnUse">
      <stop offset="0" stop-color="#fff"/>
      <stop offset="0.42" stop-color="#fdf7ab"/>
      <stop offset="1" stop-color="#f9ec31"/>
    </linearGradient>
    <linearGradient id="linear-gradient-20" x1="91.04" y1="133.46" x2="91.04" y2="90.91" xlink:href="#linear-gradient-19"/>
  </defs>
  <g>
    <path class="cls-2" d="M179.31,127a12.3,12.3,0,0,0-8.22-4.52l0-.35c0-.24,0-.48,0-.7s0-.36,0-.54c0,0,0-3.91,0-4a7.89,7.89,0,0,0-1.7-4.82c-3.25-5-10.4-7-13.53-7.87a138.14,138.14,0,0,0-19.48-3.64,81.88,81.88,0,0,0-4.7-15,8,8,0,0,0-9.7-4.38,4.4,4.4,0,0,0-.51.18,11.15,11.15,0,0,1,1.2-5.8,7.91,7.91,0,0,0-2-10.44A7.79,7.79,0,0,0,116,63.45c-.14-.72-.29-1.53-.42-2.46a15.28,15.28,0,0,1,.28-6.79,7.67,7.67,0,0,0-2.3-10.42,7.38,7.38,0,0,0-3.16-1.3c-1.54-5.44-4.67-9.37-7-12.32-1.05-1.31-2.63-3.29-2.77-4-.29-1.56,1.7-4.51,3.2-5.9A8,8,0,0,0,93.67,7.9c-1.48,1.14-9,7.23-11.18,14.86-1.68,5.88.59,12,2.77,17.9.7,1.87,1.42,3.81,2,5.68.1.32.19.63.28.95s.18.83.25,1.25c0,.22.07.44.1.66a2.51,2.51,0,0,0,0,.27c.13.8,0,2.07-2.13,4.75a1.47,1.47,0,0,1-.1.13,8,8,0,0,0-9.81.8,45.19,45.19,0,0,0-8.73,12.09,8,8,0,0,0-5.73,2.49,23.45,23.45,0,0,0-5.67,14,8,8,0,0,0-4.09,11.68,16.3,16.3,0,0,1,.23,4.85,143.13,143.13,0,0,0-21.49,3.88c-4.16,1.17-15.22,4.29-15.22,13.43a5.43,5.43,0,0,0,0,.57l0,3.91a12.41,12.41,0,0,0-7.49,4.43,8,8,0,0,0-1.89,5.17v2.36a8.09,8.09,0,0,0,.3,2.19l5.34,18.81v9.35a8,8,0,0,0,8,8h4.19v64a13.84,13.84,0,0,0-3.18,4,8,8,0,0,0-.58,1.52,9.17,9.17,0,0,0-.27,3.6v3.09a7.85,7.85,0,0,0,1,3.78A12.7,12.7,0,0,0,24,256.76L13,359.91a8,8,0,0,0,8,8.85h7.24a8,8,0,0,0,8-7.18l10-97c3.75.67,7.88,1.27,12.32,1.77a14.24,14.24,0,0,0,3.05,3.55,16.08,16.08,0,0,0,10.33,3.62c4.82,0,9.06-2.06,11.39-5.46l3.71.1.62,1.64a8.44,8.44,0,0,0,.81,1.55,14,14,0,0,0,2.34,3.38c1.29,18.65,2,30.8,2,34.35a8.31,8.31,0,0,0,.13,1.41c1.06,5.94,5.63,8.59,9.69,8.59,4.35,0,7.93-2.9,9.27-4.14a8,8,0,0,0,2.53-6.36l-2-31.53a15.42,15.42,0,0,0,2.12-1.56,16.8,16.8,0,0,0,4.18-5.55,8,8,0,0,0,.36-.92c2.17,1.64,4.41,3.19,6.7,4.64a8,8,0,0,0,4.1,1.24,13.62,13.62,0,0,0,2.32.2,18,18,0,0,0,13.14-6.46c.6,7.53,1.21,14.12,1.24,14.53,0,.17,1.54,17.75,3.28,35.24,1,10.32,1.93,18.6,2.68,24.62,1.5,11.93,2.05,15.15,5.89,17.47a12.06,12.06,0,0,0,6.39,1.7h0a17.8,17.8,0,0,0,5.78-1,8,8,0,0,0,5.15-8.58c-.07-.51-6.84-50.41-9.21-74,0,0,0-.08,0-.13a202.92,202.92,0,0,1-1.18-21.11c3.4-2.53,5.11-5.64,5.11-9.28a10.29,10.29,0,0,0-.75-3.87,10.87,10.87,0,0,0-4-7c.35-7.77.81-13.07.81-13.13a8,8,0,0,0-4.18-7.75c-.07-13.57,0-29.1,0-43.45h5.16a8,8,0,0,0,8-8v-9.35l5.34-18.81a8.09,8.09,0,0,0,.3-2.19v-2.36A8,8,0,0,0,179.31,127Z"/>
    <path class="cls-3" d="M174.31,122a12.3,12.3,0,0,0-8.22-4.52l0-.35c0-.24,0-.48,0-.7s0-.36,0-.54c0,0,0-3.91,0-4a7.89,7.89,0,0,0-1.7-4.82c-3.25-5-10.4-7-13.53-7.87a138.14,138.14,0,0,0-19.48-3.64,81.88,81.88,0,0,0-4.7-15,8,8,0,0,0-9.7-4.38,4.4,4.4,0,0,0-.51.18,11.15,11.15,0,0,1,1.2-5.8,7.91,7.91,0,0,0-2-10.44A7.79,7.79,0,0,0,111,58.45c-.14-.72-.29-1.53-.42-2.46a15.28,15.28,0,0,1,.28-6.79,7.67,7.67,0,0,0-2.3-10.42,7.38,7.38,0,0,0-3.16-1.3c-1.54-5.44-4.67-9.37-7-12.32-1.05-1.31-2.63-3.29-2.77-4-.29-1.56,1.7-4.51,3.2-5.9A8,8,0,0,0,88.67,2.9c-1.48,1.14-9,7.23-11.18,14.86-1.68,5.88.59,12,2.77,17.9.7,1.87,1.42,3.81,2,5.68.1.32.19.63.28.95s.18.83.25,1.25c0,.22.07.44.1.66a2.51,2.51,0,0,0,0,.27c.13.8,0,2.07-2.13,4.75a1.47,1.47,0,0,1-.1.13,8,8,0,0,0-9.81.8,45.19,45.19,0,0,0-8.73,12.09,8,8,0,0,0-5.73,2.49,23.45,23.45,0,0,0-5.67,14,8,8,0,0,0-4.09,11.68,16.3,16.3,0,0,1,.23,4.85A143.13,143.13,0,0,0,25.4,99.18c-4.16,1.17-15.22,4.29-15.22,13.43a5.43,5.43,0,0,0,0,.57l0,3.91a12.41,12.41,0,0,0-7.49,4.43A8,8,0,0,0,.8,126.69v2.36a8.09,8.09,0,0,0,.3,2.19l5.34,18.81v9.35a8,8,0,0,0,8,8h4.19v64a13.84,13.84,0,0,0-3.18,4,8,8,0,0,0-.58,1.52,9.17,9.17,0,0,0-.27,3.6v3.09a7.85,7.85,0,0,0,1,3.78A12.7,12.7,0,0,0,19,251.76L8,354.91a8,8,0,0,0,8,8.85h7.24a8,8,0,0,0,8-7.18l10-97c3.75.67,7.88,1.27,12.32,1.77a14.24,14.24,0,0,0,3.05,3.55,16.08,16.08,0,0,0,10.33,3.62c4.82,0,9.06-2.06,11.39-5.46l3.71.1.62,1.64a8.44,8.44,0,0,0,.81,1.55,14,14,0,0,0,2.34,3.38c1.29,18.65,2,30.8,2,34.35a8.31,8.31,0,0,0,.13,1.41c1.06,5.94,5.63,8.59,9.69,8.59,4.35,0,7.93-2.9,9.27-4.14a8,8,0,0,0,2.53-6.36l-2-31.53a15.42,15.42,0,0,0,2.12-1.56,16.8,16.8,0,0,0,4.18-5.55,8,8,0,0,0,.36-.92c2.17,1.64,4.41,3.19,6.7,4.64a8,8,0,0,0,4.1,1.24,13.62,13.62,0,0,0,2.32.2,18,18,0,0,0,13.14-6.46c.6,7.53,1.21,14.12,1.24,14.53,0,.17,1.54,17.75,3.28,35.24,1,10.32,1.93,18.6,2.68,24.62,1.5,11.93,2.05,15.15,5.89,17.47a12.06,12.06,0,0,0,6.39,1.7h0a17.8,17.8,0,0,0,5.78-1,8,8,0,0,0,5.15-8.58c-.07-.51-6.84-50.41-9.21-74,0,0,0-.08,0-.13a202.92,202.92,0,0,1-1.18-21.11c3.4-2.53,5.11-5.64,5.11-9.28a10.29,10.29,0,0,0-.75-3.87,10.87,10.87,0,0,0-4-7c.35-7.77.81-13.07.81-13.13a8,8,0,0,0-4.18-7.75c-.07-13.57,0-29.1,0-43.45h5.16a8,8,0,0,0,8-8v-9.35l5.34-18.81a8.09,8.09,0,0,0,.3-2.19v-2.36A8,8,0,0,0,174.31,122Z"/>
    <g>
      <path class="cls-4" d="M36.23,124.48v111s-24.87,3.32-6.74,6.66c26.62,3,107.49,6.87,107.49,6.87V128.74Z"/>
      <path class="cls-5" d="M98.22,252.53l3.22,51.55s-4.83,4.5-5.64,0c0-8.11-3.21-51.55-3.21-51.55Z"/>
      <ellipse class="cls-6" cx="90.05" cy="243.01" rx="67.43" ry="12.23"/>
      <ellipse class="cls-7" cx="88.17" cy="116.42" rx="69.98" ry="13.1"/>
      <path class="cls-8" d="M88.15,101.15c-38.64,0-70,5.13-70,11.46s31.33,11.46,70,11.46,70-5.13,70-11.46S126.8,101.15,88.15,101.15Zm0,20.75c-34,0-61.53-4.16-61.53-9.29s27.55-9.28,61.53-9.28,61.53,4.15,61.53,9.28S122.13,121.9,88.15,121.9Z"/>
      <path class="cls-9" d="M149.7,235.94c-.8-31.16,0-113.27,0-113.27s-56.32,13.72-123.08,0l0,113.23s-11.83,6.43,5.62,9.69c17.15,6,95.64,8.33,118.76-.16C162.21,239.94,153.32,236.83,149.7,235.94Zm-21.71,6H46l-1.21-2.42V204s0-9.28,10.46-3.23c11.66,4.44,39.81,10.09,59.11-.4,10.46-4.84,12.47-.4,13.68,10.89S128,241.9,128,241.9Z"/>
      <ellipse class="cls-10" cx="89.77" cy="240.47" rx="67.05" ry="11.46"/>
      <g>
        <ellipse class="cls-11" cx="90.69" cy="233.42" rx="47.59" ry="11.47"/>
        <g>
          <path class="cls-12" d="M106.14,224.28c5.58,2.18,11.47,4.73,17.58,7.69a244.19,244.19,0,0,1,22.5,12.44c-2.94-2.7-3.07-6.44-1.45-8,1.46-1.42,4.08-.8,4.37-.73-8.09-4.51-16.73-9-25.92-13.4q-8.72-4.17-17.08-7.75S98.86,215.8,106.14,224.28Z"/>
          <path class="cls-13" d="M144.34,242.33c-2.13-4.46,2.24-11.05,6.07-5.21C153,241.51,146.83,247.53,144.34,242.33Z"/>
          <g>
            <path class="cls-14" d="M147.82,239.4s-1.23,2.16-1.23.1,2.91-2.06,2.18,0-2.19,3.84-3.28.89a2.64,2.64,0,0,1,3.28-3.64c1.46.69,2.19,4.12,0,5.49s-3.64.69-4.37-1.37"/>
            <path class="cls-15" d="M147.82,239.4a3.81,3.81,0,0,1-.54.79c-.11.1-.23.26-.44.23s-.24-.27-.27-.42a1.87,1.87,0,0,1,.49-1.84,1.45,1.45,0,0,1,1-.34,1,1,0,0,1,.9.54,1.47,1.47,0,0,1,0,1,6.7,6.7,0,0,1-.34.92,3.81,3.81,0,0,1-1.17,1.61,1.05,1.05,0,0,1-1.12.09,2,2,0,0,1-.71-.78,4.84,4.84,0,0,1-.62-1.9,2.76,2.76,0,0,1,.61-1.95,3.09,3.09,0,0,1,1.76-1,2.22,2.22,0,0,1,2,.51,3.57,3.57,0,0,1,.91,1.79,3.84,3.84,0,0,1-.1,2,3,3,0,0,1-1.18,1.59,4.73,4.73,0,0,1-1.79.76,2.17,2.17,0,0,1-1.85-.52,3.7,3.7,0,0,1-1-1.64,3.76,3.76,0,0,0,1,1.55,2,2,0,0,0,1.72.37,3.42,3.42,0,0,0,2.65-2.23,3.56,3.56,0,0,0-.75-3.33,1.74,1.74,0,0,0-1.58-.37,2.52,2.52,0,0,0-1.46.86,2.24,2.24,0,0,0-.52,1.6A4.38,4.38,0,0,0,146,241c.28.54.75.91,1.2.56a3.55,3.55,0,0,0,1.06-1.41c.25-.56.58-1.17.35-1.67s-1-.52-1.43-.15a1.68,1.68,0,0,0-.52,1.63c0,.15.06.32.17.35s.27-.09.38-.18A4.28,4.28,0,0,0,147.82,239.4Z"/>
          </g>
          <path class="cls-16" d="M107.1,217.68c3.25.95,6.45,2.07,9.6,3.29s6.27,2.57,9.35,4,6.09,3,9,4.6,5.85,3.42,8.68,5.27c-2.93-1.7-5.86-3.38-8.86-4.93s-6-3.08-9.08-4.49-6.16-2.78-9.28-4.07S110.29,218.8,107.1,217.68Z"/>
          <path class="cls-16" d="M109.42,222.19c2.94.77,5.84,1.69,8.71,2.69s5.71,2.11,8.5,3.32a86.31,86.31,0,0,1,8.18,4.05,43.53,43.53,0,0,1,7.46,5.24l-1.83-1.36c-.61-.45-1.26-.83-1.9-1.25s-1.28-.8-1.94-1.18-1.3-.77-2-1.11c-2.66-1.45-5.41-2.73-8.19-3.94s-5.59-2.33-8.43-3.41S112.31,223.14,109.42,222.19Z"/>
          <path class="cls-16" d="M116.74,226.94c2.24.74,4.45,1.56,6.64,2.44s4.34,1.84,6.48,2.82,4.22,2.11,6.25,3.32a25.8,25.8,0,0,1,5.63,4.27,31.35,31.35,0,0,0-5.82-3.94c-2.06-1.13-4.14-2.21-6.28-3.19s-4.26-2-6.41-2.93S118.91,227.85,116.74,226.94Z"/>
        </g>
        <g>
          <path class="cls-17" d="M95.21,230.4a87.32,87.32,0,0,0,8,11.92,88.27,88.27,0,0,0,21.89,19.58c.47-9.6,3.08-16.18,6.42-16.62.76-.1,2.1,0,4,1.94-8-5.28-13.64-6.67-30.82-26.85-1.29-1.52-2.92-3-4.55-2.65C96.62,218.38,95.53,227.09,95.21,230.4Z"/>
          <path class="cls-18" d="M123.39,259.72c-2.33-3.58-1.06-7.74-.85-8.38a8.72,8.72,0,0,1,3.64-5.1,7.39,7.39,0,0,1,6.56-.73,7.16,7.16,0,0,1,3.65,3.64,10.69,10.69,0,0,1-.73,7.29c-2.11,4.05-7.41,6.79-10.44,5.21A5.07,5.07,0,0,1,123.39,259.72Z"/>
          <path class="cls-16" d="M128.08,244.41a22.61,22.61,0,0,1-8.81-3.49,43.65,43.65,0,0,1-7.38-6,72.69,72.69,0,0,1-11.35-15.23c.83,1.35,1.73,2.65,2.65,3.94s1.85,2.57,2.82,3.81a76.91,76.91,0,0,0,6.24,7.13,45.46,45.46,0,0,0,7.22,6.07,26.46,26.46,0,0,0,4.12,2.31A20.61,20.61,0,0,0,128.08,244.41Z"/>
          <path class="cls-16" d="M99.21,225.14a34.71,34.71,0,0,0,1.72,3.11c.61,1,1.26,2,1.94,3a48,48,0,0,0,4.45,5.5c.78.89,1.65,1.68,2.49,2.51s1.76,1.58,2.71,2.28c.47.36.93.73,1.4,1.08l1.48,1c1,.7,2,1.23,3,1.85a34.13,34.13,0,0,1-6.15-3.6,37.16,37.16,0,0,1-5.34-4.76,43.48,43.48,0,0,1-4.4-5.63A35.84,35.84,0,0,1,99.21,225.14Z"/>
          <path class="cls-16" d="M101.41,237.49c.65.95,1.36,1.87,2.08,2.77s1.46,1.79,2.21,2.66a64.52,64.52,0,0,0,4.81,5,53.57,53.57,0,0,0,5.29,4.44l1.39,1,1.45.94c1,.67,2,1.18,3,1.78a38.78,38.78,0,0,1-6-3.43,48.39,48.39,0,0,1-5.41-4.38,58.62,58.62,0,0,1-4.75-5.09A44.7,44.7,0,0,1,101.41,237.49Z"/>
          <path class="cls-16" d="M99.21,230.34a17.16,17.16,0,0,0,1.92,3.74,26,26,0,0,0,2.61,3.29,33.51,33.51,0,0,0,3,2.93c1.06.93,2.18,1.79,3.3,2.66-.62-.36-1.22-.73-1.82-1.11s-1.17-.81-1.73-1.25a28.62,28.62,0,0,1-3.15-2.89,22.42,22.42,0,0,1-2.56-3.42A12.78,12.78,0,0,1,99.21,230.34Z"/>
          <g>
            <path class="cls-14" d="M129.53,252.39s.55,3.19-.76,1.93-1.32-3.93,1.45-3.93-.46,9.94-2.31,5.64c-3.23-3-1.69-5.65,1.7-7.65s3.5,4.79,3.5,4.79-2.59,7.24-5.51,5.57-5.69-5-2.23-9"/>
            <path class="cls-15" d="M129.53,252.39a8.84,8.84,0,0,1,.13,1.14,3.75,3.75,0,0,1,0,.58.66.66,0,0,1-.27.52.6.6,0,0,1-.55-.19,2.27,2.27,0,0,1-.4-.42,2.73,2.73,0,0,1-.52-1.05,2.09,2.09,0,0,1,.6-2.19,2.35,2.35,0,0,1,1.1-.47,5.61,5.61,0,0,1,.59-.06,1,1,0,0,1,.62.18,1.61,1.61,0,0,1,.59,1.08,5.83,5.83,0,0,1,0,1.18A8.94,8.94,0,0,1,131,255a5,5,0,0,1-1.21,2,1.27,1.27,0,0,1-.61.31.92.92,0,0,1-.69-.18,2.45,2.45,0,0,1-.73-1l.05.08a7.14,7.14,0,0,1-1.38-1.7,3.53,3.53,0,0,1-.45-2.19,5.65,5.65,0,0,1,2.56-3.48,5.07,5.07,0,0,1,2-1,1.66,1.66,0,0,1,1.18.24,3.38,3.38,0,0,1,.44.4c.11.16.23.32.32.48a10,10,0,0,1,.91,4.24v.08a16.55,16.55,0,0,1-2.37,4.37,3.91,3.91,0,0,1-2,1.48,1.89,1.89,0,0,1-1.3-.18,9.44,9.44,0,0,1-1-.68,6.54,6.54,0,0,1-2.79-4,4.61,4.61,0,0,1,.28-2.44,7.63,7.63,0,0,1,1.33-2.07,7.73,7.73,0,0,0-1.25,2.1,4.39,4.39,0,0,0-.19,2.38,6.53,6.53,0,0,0,2.8,3.79c.66.45,1.36,1,2.1.77a3.62,3.62,0,0,0,1.81-1.4,16.94,16.94,0,0,0,2.26-4.27l0,.08a9.7,9.7,0,0,0-.87-4,1.41,1.41,0,0,0-1.47-.86,5,5,0,0,0-1.76.92,5.16,5.16,0,0,0-2.38,3.15,3.13,3.13,0,0,0,.37,1.91,7.26,7.26,0,0,0,1.29,1.59l0,0,0,0a2.1,2.1,0,0,0,.58.84c.23.19.51.12.78-.1a4.79,4.79,0,0,0,1.12-1.85,8.49,8.49,0,0,0,.52-2.17c0-.7.06-1.58-.46-2-.24-.21-.64-.13-1-.09a2.2,2.2,0,0,0-1,.39,1.89,1.89,0,0,0-.59,2,2.7,2.7,0,0,0,.45,1,2.41,2.41,0,0,0,.37.41c.14.13.31.24.46.19s.21-.27.24-.45a3.63,3.63,0,0,0,0-.57A8.75,8.75,0,0,0,129.53,252.39Z"/>
          </g>
        </g>
        <g>
          <path class="cls-19" d="M71.16,216.72a50.14,50.14,0,0,1-5.83,3.65,46,46,0,0,1-13.84,5.1c-5.62,1-12,.84-13.85,2.91a6.17,6.17,0,0,0-1.45,2.92,4.94,4.94,0,0,0,0,1.45c3.42-2.34,4.81-1.62,5.1-1.45,1.83,1.08,1.64,5.73-.73,11.66,2.16-.66,27-8.24,35-13.85,1.35-1,3.95-2.84,4.37-5.83a6.54,6.54,0,0,0-1.46-5.1A6.12,6.12,0,0,0,74.08,216,5.88,5.88,0,0,0,71.16,216.72Z"/>
          <ellipse class="cls-20" cx="39.83" cy="235.67" rx="4.37" ry="7.29"/>
          <path class="cls-15" d="M39.1,236.4a1.85,1.85,0,0,1-1-.78,1.23,1.23,0,0,1,0-1.23,2.34,2.34,0,0,1,2.15-1.22,1.44,1.44,0,0,1,1,.83,3.63,3.63,0,0,1,.34,1.25,3.07,3.07,0,0,1-.69,2.43,2.46,2.46,0,0,1-2.46.52,2.81,2.81,0,0,1-1.93-1.65,4.39,4.39,0,0,1-.12-2.56,5.68,5.68,0,0,1,1.07-2.34,3.23,3.23,0,0,1,2.14-1.42,2.59,2.59,0,0,1,2.13,1.38,7.55,7.55,0,0,1,.88,5,9.47,9.47,0,0,1-.69,2.46A3.26,3.26,0,0,1,40.26,241a2.7,2.7,0,0,1-2.41-.61,3.61,3.61,0,0,1-1.3-2.13,3.58,3.58,0,0,0,1.34,2.08,2.58,2.58,0,0,0,2.33.55A3.24,3.24,0,0,0,41.78,239a9.29,9.29,0,0,0,.65-2.43,7.38,7.38,0,0,0-.88-4.84,2.39,2.39,0,0,0-1.95-1.26,3,3,0,0,0-2,1.34,5.63,5.63,0,0,0-1,2.24,4.22,4.22,0,0,0,.09,2.44A2.64,2.64,0,0,0,38.48,238a2.31,2.31,0,0,0,2.29-.45,2.94,2.94,0,0,0,.67-2.31,3.56,3.56,0,0,0-.32-1.2,1.3,1.3,0,0,0-.87-.77,2.24,2.24,0,0,0-2.07,1.13,1.18,1.18,0,0,0,0,1.19A1.87,1.87,0,0,0,39.1,236.4Z"/>
          <path class="cls-21" d="M72.33,217.68A51.87,51.87,0,0,1,66,222.31,53.62,53.62,0,0,1,59,226a37.61,37.61,0,0,1-7.56,2.34,22.86,22.86,0,0,1-7.87,0,25.83,25.83,0,0,0,7.8-.43,40.92,40.92,0,0,0,7.44-2.42,58.07,58.07,0,0,0,7-3.55c1.14-.64,2.25-1.34,3.34-2.07S71.28,218.47,72.33,217.68Z"/>
          <path class="cls-21" d="M46,233.85c1.26-.17,2.5-.39,3.74-.63s2.48-.48,3.71-.78a69.94,69.94,0,0,0,7.27-2,47.12,47.12,0,0,0,6.95-2.93,29.28,29.28,0,0,0,6.18-4.31,25.35,25.35,0,0,1-6,4.65,43.71,43.71,0,0,1-7,3.06,62.66,62.66,0,0,1-7.35,1.95A59.77,59.77,0,0,1,46,233.85Z"/>
          <path class="cls-21" d="M44.2,240.47c2.78-.87,5.53-1.79,8.27-2.74s5.47-1.94,8.17-3,5.35-2.22,8-3.5a32.13,32.13,0,0,0,7.31-4.65,28.19,28.19,0,0,1-7.13,5,83.57,83.57,0,0,1-7.95,3.62c-2.72,1-5.45,2-8.23,2.92S47,239.78,44.2,240.47Z"/>
          <path class="cls-21" d="M73.87,219.65a12.17,12.17,0,0,1-3.32,3.61,23.84,23.84,0,0,1-4.23,2.54,36,36,0,0,1-4.6,1.75l-2.38.62c-.8.15-1.6.32-2.41.46.78-.25,1.57-.46,2.35-.7l2.32-.75a42.19,42.19,0,0,0,4.51-1.84A25.44,25.44,0,0,0,70.33,223a19.56,19.56,0,0,0,1.9-1.5A10.38,10.38,0,0,0,73.87,219.65Z"/>
          <path class="cls-21" d="M46,236.89c.06-.21.33-.23.5-.29l.6-.1,1.19-.15c.8-.08,1.59-.17,2.38-.29a38.71,38.71,0,0,0,4.68-.92,38.3,38.3,0,0,0,8.87-3.48A24.68,24.68,0,0,1,60.05,234a30.43,30.43,0,0,1-4.56,1.6,33.1,33.1,0,0,1-4.76.81c-.8.07-1.6.12-2.4.16l-1.2,0a5.63,5.63,0,0,0-.59.05C46.36,236.71,46.1,236.7,46,236.89Z"/>
        </g>
        <g>
          <path class="cls-22" d="M77,216a97.78,97.78,0,0,1-5.17,14.51A98.42,98.42,0,0,1,59.5,251a9.18,9.18,0,0,1,6.57-.21,9.31,9.31,0,0,1,5.82,7.5c7.29-15.3,19-33.52,19-33.52S85,213.08,77,216Z"/>
          <path class="cls-23" d="M59.14,252.79a4.84,4.84,0,0,1,1.46-2.91c2.15-1.89,5.91-.79,8,.73,2.41,1.73,4.51,5.33,3.28,7.65-1.41,2.69-7,3.14-10.16.5A8.13,8.13,0,0,1,59.14,252.79Z"/>
          <path class="cls-15" d="M65.94,254.92a5.9,5.9,0,0,1,0,1.57,1.59,1.59,0,0,1-.31.73.72.72,0,0,1-.75.2,3.83,3.83,0,0,1-1.31-.9c-.19-.18-.36-.39-.54-.59a3.65,3.65,0,0,1-.4-.69,1.67,1.67,0,0,1,0-1.58A2,2,0,0,1,64,252.8a3.81,3.81,0,0,1,3,.8,4.93,4.93,0,0,1,1.84,2.57,2.86,2.86,0,0,1-.84,3,1.47,1.47,0,0,1-.78.3,5.44,5.44,0,0,1-.81,0,10.52,10.52,0,0,1-1.57-.27A6.43,6.43,0,0,1,62,257.73a3.72,3.72,0,0,1-1.17-2.94,6.93,6.93,0,0,1,.31-1.57,5.08,5.08,0,0,1,.65-1.47,3,3,0,0,1,2.79-1.35,6.09,6.09,0,0,1,3,1.17,9,9,0,0,1,2.27,2.22,5,5,0,0,1,1.12,2.94,3.78,3.78,0,0,1-1.43,2.76,4.13,4.13,0,0,1-3,.59,4.07,4.07,0,0,0,3-.64,3.68,3.68,0,0,0,1.35-2.71,5,5,0,0,0-1.11-2.86,9.46,9.46,0,0,0-2.25-2.17,6.1,6.1,0,0,0-2.87-1.12,2.79,2.79,0,0,0-2.61,1.29,4.79,4.79,0,0,0-.61,1.41A6.18,6.18,0,0,0,61,254.8a3.43,3.43,0,0,0,1.12,2.75,6.16,6.16,0,0,0,2.73,1.38,10.13,10.13,0,0,0,1.54.27,1.88,1.88,0,0,0,1.45-.21,2.69,2.69,0,0,0,.78-2.77,4.71,4.71,0,0,0-1.76-2.49,3.68,3.68,0,0,0-2.9-.79,1.89,1.89,0,0,0-1.25.79,1.54,1.54,0,0,0,0,1.46,3.8,3.8,0,0,0,.38.68c.17.2.33.4.51.59a3.78,3.78,0,0,0,1.27.9.66.66,0,0,0,.69-.17,1.6,1.6,0,0,0,.32-.7A5.91,5.91,0,0,0,65.94,254.92Z"/>
          <path class="cls-16" d="M77.78,218.37a72.93,72.93,0,0,1-2.09,8.23,73.63,73.63,0,0,1-3,8A43.36,43.36,0,0,1,68.44,242a16.67,16.67,0,0,1-6.38,5.53A13.44,13.44,0,0,0,65.43,245a23.83,23.83,0,0,0,2.7-3.23,46.2,46.2,0,0,0,4.09-7.38,81,81,0,0,0,3.1-7.88C76.23,223.81,77.07,221.11,77.78,218.37Z"/>
          <path class="cls-16" d="M81.37,222.55a45.54,45.54,0,0,1-.67,7.82,42.66,42.66,0,0,1-2,7.61,26.72,26.72,0,0,1-3.77,6.92,19.38,19.38,0,0,1-2.72,2.86,17.7,17.7,0,0,1-3.32,2.1,18,18,0,0,0,5.74-5.19,28.08,28.08,0,0,0,3.6-6.86,46,46,0,0,0,2.11-7.51c.26-1.27.47-2.56.64-3.85S81.3,223.86,81.37,222.55Z"/>
          <path class="cls-16" d="M80.61,218.2l1-1.49.16-.25-.07.29a153.67,153.67,0,0,1-5,15.54c-1,2.54-2,5.06-3.27,7.49a32.06,32.06,0,0,1-2,3.55,8.47,8.47,0,0,1-2.86,2.88,8.29,8.29,0,0,0,2.66-3,34.08,34.08,0,0,0,1.91-3.58q1.73-3.69,3.15-7.5c2-5.08,3.67-10.23,5.37-15.4l.09.05Z"/>
          <path class="cls-16" d="M83.2,232.56c-.61,1.73-1.32,3.41-2.06,5.09s-1.55,3.32-2.39,4.95S77,245.82,76,247.35a29.51,29.51,0,0,1-3.36,4.35,45.5,45.5,0,0,0,3-4.55c.94-1.57,1.82-3.17,2.66-4.79s1.67-3.24,2.48-4.87Z"/>
        </g>
        <g>
          <path class="cls-24" d="M83.55,216.72a101.19,101.19,0,0,0,6.56,45.18,9.77,9.77,0,0,1,16-5.1c-8-26.23-9.08-31.25-7.82-38.94C89.19,213.4,88.65,213.81,83.55,216.72Z"/>
          <path class="cls-25" d="M90.11,259.72c.4-2.9,4-5.14,7.2-5.72.6-.11,6.13-1.13,8.47,2.44a6.82,6.82,0,0,1,.73,5.1,8.81,8.81,0,0,1-2.19,2.91,9.4,9.4,0,0,1-5.83,2.19,8.53,8.53,0,0,1-5.83-1.46,6.28,6.28,0,0,1-2.36-3.25A6,6,0,0,1,90.11,259.72Z"/>
          <g>
            <path class="cls-14" d="M99.3,259.66s-4.5,4-4.06,1,7-5.27,5.74-1-8,5.77-8,2.69,2.71-6.15,6.09-6.92,7.14,3.74,3.23,6.49-8.64,4.28-10,1.2"/>
            <path class="cls-15" d="M99.3,259.66a12.23,12.23,0,0,1-2.92,2.06,1.21,1.21,0,0,1-.92.08.88.88,0,0,1-.34-.87,3,3,0,0,1,.68-1.69,5.88,5.88,0,0,1,3-1.94,2.49,2.49,0,0,1,1.87.13,1.33,1.33,0,0,1,.58.81,2.39,2.39,0,0,1,0,1,5.65,5.65,0,0,1-1.82,3.15A7.15,7.15,0,0,1,96.24,264a4.46,4.46,0,0,1-1.86.1A1.82,1.82,0,0,1,92.84,263a5.49,5.49,0,0,1,.68-3.62,8.38,8.38,0,0,1,5.75-4.19,4.44,4.44,0,0,1,3.48,1.09,4.84,4.84,0,0,1,1.11,1.5,3.54,3.54,0,0,1,.25,1.85,4.41,4.41,0,0,1-2.27,2.8,18.75,18.75,0,0,1-3.16,1.68,9.38,9.38,0,0,1-3.49.78,3.5,3.5,0,0,1-1.74-.42,2.86,2.86,0,0,1-1.15-1.33,2.82,2.82,0,0,0,1.18,1.28,3.48,3.48,0,0,0,1.71.35,9.15,9.15,0,0,0,3.39-.88,20.28,20.28,0,0,0,3.09-1.72,4.11,4.11,0,0,0,2.06-2.6,3.11,3.11,0,0,0-.25-1.62,4.3,4.3,0,0,0-1-1.34,4,4,0,0,0-3.12-1,7.92,7.92,0,0,0-5.38,4,7,7,0,0,0-.61,1.59,3.82,3.82,0,0,0-.06,1.64,1.36,1.36,0,0,0,1.18.85,4.11,4.11,0,0,0,1.67-.08,6.2,6.2,0,0,0,4.76-4.46,1.3,1.3,0,0,0-.4-1.42,2.18,2.18,0,0,0-1.6-.11A5.59,5.59,0,0,0,96,259.4a2.81,2.81,0,0,0-.69,1.54c0,.28,0,.6.23.72a1.05,1.05,0,0,0,.81-.06A11.91,11.91,0,0,0,99.3,259.66Z"/>
          </g>
          <path class="cls-16" d="M95.77,218.37a60.9,60.9,0,0,0,.08,9,64.59,64.59,0,0,0,1.23,8.87c.25,1.47.66,2.91,1,4.37s.82,2.87,1.34,4.27a70.21,70.21,0,0,0,3.47,8.27A54,54,0,0,1,99.06,245a56.76,56.76,0,0,1-2.47-8.67,61.21,61.21,0,0,1-1.13-8.94A49.08,49.08,0,0,1,95.77,218.37Z"/>
          <path class="cls-16" d="M85,218.37c0,1.58,0,3.16,0,4.73s.1,3.16.2,4.73c.2,3.15.47,6.3.94,9.41A76.71,76.71,0,0,0,88,246.5a47.6,47.6,0,0,0,3.4,8.81,39.84,39.84,0,0,1-3.77-8.71,69.82,69.82,0,0,1-2-9.29,93.34,93.34,0,0,1-.83-9.46A83.27,83.27,0,0,1,85,218.37Z"/>
          <path class="cls-16" d="M89.41,216q-.31,3.07-.53,6.15c-.14,2.05-.26,4.11-.26,6.16a52.6,52.6,0,0,0,.22,6.15,25.9,25.9,0,0,0,1.19,6,20.64,20.64,0,0,1-1.57-6,44.3,44.3,0,0,1-.34-6.19c0-2.07.15-4.14.37-6.19S89,218,89.41,216Z"/>
          <path class="cls-16" d="M91.93,228c-.08,1.81-.08,3.62,0,5.43a53.9,53.9,0,0,0,.45,5.39,39.74,39.74,0,0,0,1.1,5.29,26.86,26.86,0,0,0,2.06,5,20.41,20.41,0,0,1-2.43-4.88,35,35,0,0,1-1.22-5.34,43.22,43.22,0,0,1-.34-5.45A35.2,35.2,0,0,1,91.93,228Z"/>
          <path class="cls-16" d="M92.7,217.68a5.9,5.9,0,0,0,.4.69,1.78,1.78,0,0,0,.23.31c.09.09.21.12.21.07l.16.05c-.09,2.9-.12,5.81-.06,8.71,0,1.45.11,2.9.17,4.35s.22,2.89.37,4.34a36.58,36.58,0,0,1-.73-4.31c-.17-1.45-.24-2.91-.3-4.37a62.23,62.23,0,0,1,.38-8.74l.16.05a.2.2,0,0,1-.27.08.44.44,0,0,1-.18-.14,2.64,2.64,0,0,1-.23-.35A6.81,6.81,0,0,1,92.7,217.68Z"/>
        </g>
        <g>
          <path class="cls-14" d="M97,265.18a8.32,8.32,0,0,0,8.41-5.1"/>
          <path class="cls-15" d="M97,265.18A10.13,10.13,0,0,0,102,263.8a8.23,8.23,0,0,0,2-1.61,12.46,12.46,0,0,0,1.52-2.11,11.74,11.74,0,0,1-.5,1.23,8,8,0,0,1-.73,1.13,6.73,6.73,0,0,1-2,1.79A7.5,7.5,0,0,1,97,265.18Z"/>
        </g>
        <g class="cls-26">
          <g>
            <path class="cls-27" d="M68.59,164.61s-6.19,12.43,0,27.92-3.17,3.06-3.17,3.06S57.52,175.87,68.59,164.61Z"/>
            <path class="cls-28" d="M78.72,136.88s-20.54,8.8-5.72,25.83-2.6,19.47-2.6,19.47,16.46-6.93-.67-20.78S78.72,136.88,78.72,136.88Z"/>
            <path class="cls-29" d="M94.33,124s-17.23,13.55-2.91,30.15,0,31.28,0,31.28,7.12-20.13-1.51-29S80.48,132.76,94.33,124Z"/>
            <path class="cls-30" d="M112.41,141.62s-12.6,6.08-3.12,23-8.45,35.12-8.45,35.12,12.81-12.78,8.45-25S97.91,148.13,112.41,141.62Z"/>
            <path class="cls-31" d="M69.48,229.14a16.9,16.9,0,0,1-6.92-7c-3-6.18-.23-11.83,0-19,.16-5.14-.93-12.76-7.33-22.37a12.17,12.17,0,0,1,5.91,2.15c5.27,3.78,5.54,11.16,6.56,11s-.26-7.27,2.19-15.66c1.27-4.36,2.75-6.3,4.07-9.11,2.37-5,4.33-12.9,2-25.27a51.68,51.68,0,0,1,5.29,26.93A49.7,49.7,0,0,1,78,184.82c.67-.16,8.08-2.09,10.73-9.3a15.17,15.17,0,0,0,.08-9.87s8.09,4.58,7,25.33a58.27,58.27,0,0,1,2.56-14.44c1.65-5.27,4.56-11.92,5.7-11.6s.09,7.69,0,8.28c-1.28,8.66-4.64,14.61-4.07,14.91s2.47-4.2,7.33-8.28a28.62,28.62,0,0,1,4.89-3.31c-.72.57-8.34,6.88-7.33,15.74a15.17,15.17,0,0,0,2.44,6.62,6.57,6.57,0,0,0,4.07-.82c3.58-2.18,4.82-8.59,2.45-15.74A38.64,38.64,0,0,1,118,202.22c-.26,3.69-1.06,12.92-8.15,20.71a30,30,0,0,1-13,8.28,45,45,0,0,1-27.29-2.07Z"/>
            <path class="cls-32" d="M73.15,225.41a13.83,13.83,0,0,1-6.52-6.62,14.64,14.64,0,0,1,0-11.6,18.58,18.58,0,0,0,0-5.8c-.34-2.21-1-4-.63-4.21.25-.13.8.42,1.55,1.31a31,31,0,0,1,4,6.21,47.21,47.21,0,0,1,3.26-29A25.69,25.69,0,0,0,77.22,189a24.16,24.16,0,0,0,3.26,5,19,19,0,0,0,.81-4.14,20.76,20.76,0,0,0,0-3.31,41.65,41.65,0,0,0-.81-5s6.52,8.28,4.89,17.39a11.81,11.81,0,0,0,4.07-5.79c1.17-4,.18-9.7,0-10.77a2.48,2.48,0,0,1,0-.44c.38-.15,6.26,14.15,5.63,20.66a19.45,19.45,0,0,1,1.18-3.9,26.66,26.66,0,0,1,1.19-2.59,34.8,34.8,0,0,1,4.27-6.28,38.21,38.21,0,0,0,0,16.17c0,.8-.1,2.06-.1,2.06s1.7-5.8,3.34-7.46c.72,3.83,1.55,11.67-2.44,19.48-1.37,2.66-3.07,6-6.84,8.11-6.88,3.87-15.24.65-17.58-.25A26.57,26.57,0,0,1,73.15,225.41Z"/>
            <path class="cls-33" d="M74,219.61a7,7,0,0,1-2.44-2.48c-1.92-3.35-.42-7.46,0-7.46.19,0,.18.85,1,1.87a4.7,4.7,0,0,0,.62.62,4.15,4.15,0,0,0,1.76.83,20.49,20.49,0,0,1-.88-5.91,16.9,16.9,0,0,1,4-11.49c-.36,1.11-1.82,5.93-.82,9.94a8,8,0,0,0,1.63,3.32c.92,1.07,2.19,1.89,2.44,1.65s-1.17-1.61-1.63-4.14a11.47,11.47,0,0,1,0-3.31,28.06,28.06,0,0,1,.82-4.15h0c.8,2.44,1.31,4.43,1.63,5.8s.43,2.05.81,3.32a28.43,28.43,0,0,0,1.63,4.14c-.22-8.62-.14-10.76,0-10.77s.47,2.66,1.63,6.63c.75,2.55,1.16,3.29,1.63,3.31.84,0,1.55-2.22,1.63-2.48.56-1.84.09-2.55,0-6.63v-4.14h0s4.89,8.28,2.44,16.56a14.4,14.4,0,0,0,1.63-2.48,15.88,15.88,0,0,0,1.63-5,10.88,10.88,0,0,1,.82,5,11,11,0,0,1-1.63,5,6.67,6.67,0,0,0,2.44-2.49,6.89,6.89,0,0,0,.81-4.14,6.17,6.17,0,0,1,.76,5.29A5.38,5.38,0,0,1,96.77,218l3.26-2.49a24.7,24.7,0,0,1-7.33,7.46c-3,1.92-6.39,4.15-10.59,3.31C77.12,225.25,74.5,220.62,74,219.61Z"/>
          </g>
        </g>
      </g>
      <g>
        <polygon class="cls-34" points="149.71 149.41 155.74 149.41 155.74 159.87 149.44 159.87 149.71 149.41"/>
        <polygon class="cls-35" points="155.74 149.41 162.56 129.52 162.56 126.49 155.74 142.17 155.74 149.41"/>
        <path class="cls-36" d="M155.74,159.87h6.82V149.41l5.64-19.89s-4.43-3.53-5.64,0l-6.82,19.89Z"/>
        <polygon class="cls-37" points="149.71 143.91 149.71 149.41 155.74 149.41 155.74 142.17 149.71 142.17 149.71 143.91"/>
        <path class="cls-37" d="M162.56,126.49s2.69-2.82,5.64.67v2.36s-4.84-3.8-5.64,0Z"/>
      </g>
      <g>
        <polygon class="cls-34" points="27.3 148.94 21.26 148.94 21.26 159.4 27.56 159.4 27.3 148.94"/>
        <polygon class="cls-35" points="21.26 148.94 14.44 129.06 14.44 126.02 21.26 141.7 21.26 148.94"/>
        <path class="cls-36" d="M21.26,159.4H14.44V148.94L8.8,129.05s4.42-3.53,5.64,0l6.82,19.89Z"/>
        <polygon class="cls-37" points="27.3 143.44 27.3 148.94 21.26 148.94 21.26 141.7 27.3 141.7 27.3 143.44"/>
        <path class="cls-37" d="M14.44,126s-2.69-2.82-5.64.67v2.36s4.84-3.8,5.64,0Z"/>
      </g>
      <path class="cls-5" d="M153.61,218.37s-2.82,31.92,0,56c2.41,24.05,9.24,74.32,9.24,74.32s-3.26,1.21-5.25,0-8-71.18-8-71.18-2.41-26.14-2.41-34.18V218.37Z"/>
      <path class="cls-38" d="M18.2,112.61l0,4.63a9.25,9.25,0,0,0,2.93,2.94c.56-5.13,0-4.28,0-4.28A7.71,7.71,0,0,1,18.2,112.61Z"/>
      <path class="cls-38" d="M158.15,112l0,4.77s0,1.76-3.12,3.56c.81-5.27.73-4.72.73-4.72A4.2,4.2,0,0,0,158.15,112Z"/>
      <g>
        <path class="cls-39" d="M48.84,119.31c-2.15-14.19,5.49-15.69,6-23.27s-1.37-9.75-1.37-9.75,5.41,3.14,4,11c-1.11,6.2-2.51,8.68-1.35,9s6.92-9.8,4.45-15.94c-5.2-12.9,1.6-20.05,1.6-20.05s-2.61,9.38,1.57,15.92,1.53,15.63,3.89,12.49S63,84,66.36,73a41.23,41.23,0,0,1,9.93-17s-4.92,10.76-.21,7.62a55.41,55.41,0,0,0,10.11-8.44l.82-1c2.41-3,4.5-6.69,3.81-11,0-.34-.09-.67-.15-1-.11-.65-.24-1.29-.38-1.91L89.9,39c-2.28-7.44-6.05-14.37-4.72-19,1.57-5.49,8.37-10.72,8.37-10.72s-7.06,6.28-5.75,13.34,11.76,11.5,10.45,23.79S88.32,60.48,85.44,70.16c-1.25,4.23.54,5.36,3.07,4.85a8.45,8.45,0,0,0,1.11-.31c5-1.49,7.65-6.73,8.17-11.67,0-.43.09-.84.12-1.25a33.66,33.66,0,0,1,1.39-8.09,32.34,32.34,0,0,1,4.44-8.11s-2.09,3.92-1,11.51,2.94,8.27,1,14.9-4.66,19.57-1.63,20.58c2.35.78-.06-7,2.62-15.18A31.09,31.09,0,0,1,110.8,66.5s-3.92,6.79-1.57,13.59,6.8,6.8,9.15,15.43c0,0,3.31,0,1.05-11.77a71.35,71.35,0,0,1,5.32,21.6c0,.31,0,.61,0,.92.1,4.47-1.61,13.22-1.61,13.22S80.51,125,48.84,119.31Z"/>
        <path class="cls-40" d="M49.86,119.36a17.61,17.61,0,0,1-.29-2.81c-.17-7.24,2.44-10.64,4.36-14.22,0,0-1.22,8.85,2.18,9s6-9.9,6.37-14c.43-5.4-.83-6.45-1.75-9.85a11.19,11.19,0,0,1-.35-5.41A24.21,24.21,0,0,0,63,88.55c.7,1,2.22,8.16,1.74,11.17-.73,4.61.1,5.6,2.53,5.4,9.68-.78,1.37-15.12,1-24.85-.35-10.64,3.75-15,3.75-15s0,4.41,3,3.49S89.75,56.86,91.65,51c3.09-9.59-.4-16.13-.4-16.13s6.28,10.11,1.66,19-19.62,21-9,25c7.75,2.89,13.86-4.84,15.3-10.46a43.23,43.23,0,0,0,1.35-11s1.92,5.93,1.53,10.37c-.42,4.75-10.66,27.38-1.09,31.48,4.27,1.83,5.58-2,5.93-7,.47-6.79-1.74-7.37-.7-12.21,0,0-.87,3.4,4.88,8.89s4.1,16.14,4.1,16.14,4.71-6.11,5.67-7.24c.21.66-1.46,22.38-1.46,22.38S82.1,124.48,49.86,119.36Z"/>
        <path class="cls-41" d="M80.18,119.42c.4,1-4.36-9.59-4-19s-2.44-5.75-2.62-16,3.84-14.3,3.84-14.3-4.19,8.89-1.57,16,5.23,8.55,3.83,13.43A30.07,30.07,0,0,0,80.18,119.42Z"/>
        <path class="cls-42" d="M94.48,80.18c-.35.53-8.37,8.72-6.63,17.62s5.76,18.31,3.66,24.94c0,0,4.89-12.56.35-21.8S94.48,80.18,94.48,80.18Z"/>
      </g>
      <polygon class="cls-10" points="45.74 125.41 44.74 243.58 26.64 235.52 26.62 122.67 45.74 125.41"/>
      <path class="cls-10" d="M26.64,235.52s-5.15,2.64-3.91,4.51c0,2.1,3.79,3.9,5.15,4.09l.82-7.68Z"/>
      <path class="cls-43" d="M26.64,133.73c9.19,1.83,19,3.36,29.36,4.42a318.8,318.8,0,0,0,93.7-4.42V123.52s-61.15,10.41-123.08-.85C26.62,132.32,26.64,133.73,26.64,133.73Z"/>
      <polygon class="cls-5" points="30.46 219.83 15.99 355.75 23.23 355.75 37.3 219.83 30.46 219.83"/>
      <polygon class="cls-10" points="34.95 239.4 44.33 241.68 44.31 243.61 34.63 243.61 34.95 239.4"/>
      <path class="cls-6" d="M22.61,239v4.65L25,243A4.08,4.08,0,0,1,22.61,239Z"/>
    </g>
  </g>
</svg>
