<svg id="Layer_1" data-name="Layer 1" xmlns="http://www.w3.org/2000/svg" width="95" height="202" viewBox="0 0 95 202">
  <defs>
    <style>
      .cls-1 {
        fill: #050505;
        opacity: 0.5;
      }

      .cls-2 {
        fill: #fff;
      }

      .cls-3 {
        fill: #1d005b;
      }
    </style>
  </defs>
  <g>
    <path class="cls-1" d="M51.29,201.45a8,8,0,0,1-8-8V73.23c-1.94,2-4,4-6.19,6.23a8,8,0,0,1-5.66,2.34c-.2,0-.4,0-.61,0A8,8,0,0,1,25,78.54L8,55.34A8,8,0,0,1,9.2,44.56c5.08-4.4,10-8.84,14.74-13.2,4.06-3.71,8.22-7.7,12.42-11.89a146.34,146.34,0,0,0,10.07-11,8,8,0,0,1,6.21-2.95H85.57a8,8,0,0,1,8,8v179.9a8,8,0,0,1-8,8Z"/>
    <path class="cls-2" d="M46.29,196.45a8,8,0,0,1-8-8V68.23c-1.94,2-4,4-6.19,6.23a8,8,0,0,1-5.66,2.34c-.2,0-.4,0-.61,0A8,8,0,0,1,20,73.54L3,50.34A8,8,0,0,1,4.2,39.56c5.08-4.4,10-8.84,14.74-13.2,4.06-3.71,8.22-7.7,12.42-11.89a146.34,146.34,0,0,0,10.07-11A8,8,0,0,1,47.64.55H80.57a8,8,0,0,1,8,8v179.9a8,8,0,0,1-8,8Z"/>
    <path class="cls-3" d="M47.64,8.55A156.48,156.48,0,0,1,37,20.13q-6.45,6.44-12.63,12.1Q17.17,38.92,9.43,45.61l17,23.19q5.41-5.4,10.05-10.18t9.8-10.69V188.45H80.57V8.55Z"/>
  </g>
</svg>
