<svg id="Layer_1" data-name="Layer 1" xmlns="http://www.w3.org/2000/svg" xmlns:xlink="http://www.w3.org/1999/xlink" width="141" height="303.32" viewBox="0 0 141 303.32">
  <defs>
    <style>
      .cls-1 {
        fill: none;
      }

      .cls-2 {
        fill: #050505;
      }

      .cls-2, .cls-62 {
        opacity: 0.5;
      }

      .cls-3, .cls-63 {
        fill: #fff;
      }

      .cls-4 {
        fill: #e89b7c;
      }

      .cls-5 {
        fill: #81bee8;
      }

      .cls-20, .cls-32, .cls-39, .cls-5, .cls-60, .cls-8 {
        stroke: #4a2811;
      }

      .cls-20, .cls-32, .cls-39, .cls-5, .cls-60, .cls-63, .cls-72, .cls-8 {
        stroke-miterlimit: 10;
      }

      .cls-20, .cls-39, .cls-5, .cls-8 {
        stroke-width: 0.5px;
      }

      .cls-6 {
        fill: #797979;
      }

      .cls-7 {
        fill: #dd805f;
      }

      .cls-8 {
        fill: #5493b6;
      }

      .cls-9 {
        fill: #5b7d38;
      }

      .cls-10 {
        fill: #d26444;
      }

      .cls-11 {
        fill: #42602d;
      }

      .cls-12 {
        fill: #c21e6c;
      }

      .cls-13 {
        fill: #dcc13f;
      }

      .cls-14 {
        fill: #af1e52;
      }

      .cls-15 {
        fill: #ceac2b;
      }

      .cls-16 {
        fill: #a01e57;
      }

      .cls-17 {
        fill: #7b9958;
      }

      .cls-18 {
        fill: #647f40;
      }

      .cls-19 {
        fill: #8b8b8b;
      }

      .cls-20, .cls-22, .cls-60 {
        fill: #f7d8d0;
      }

      .cls-21 {
        fill: #4d4e4e;
      }

      .cls-23 {
        fill: #dc9c2a;
      }

      .cls-24 {
        fill: #5c9641;
      }

      .cls-25 {
        fill: #951a3a;
      }

      .cls-26 {
        fill: #ba932e;
      }

      .cls-27 {
        fill: #5f7e3e;
      }

      .cls-28 {
        fill: #48622d;
      }

      .cls-29 {
        fill: #2f441d;
      }

      .cls-30 {
        fill: #f2b22e;
      }

      .cls-31 {
        fill: #294720;
      }

      .cls-32, .cls-39 {
        fill: #f0cdc6;
      }

      .cls-32, .cls-63 {
        stroke-width: 0.75px;
      }

      .cls-33 {
        fill: #2a2a2a;
      }

      .cls-34 {
        fill: #427b3a;
      }

      .cls-35 {
        fill: #4a2811;
        opacity: 0.25;
      }

      .cls-36 {
        fill: #305e2e;
      }

      .cls-37 {
        fill: #26421d;
      }

      .cls-38 {
        fill: #c1472c;
      }

      .cls-40 {
        fill: #7a1125;
      }

      .cls-41 {
        fill: #b6765a;
      }

      .cls-42 {
        fill: #79ae42;
      }

      .cls-43 {
        fill: #3b5225;
      }

      .cls-44 {
        fill: #342517;
      }

      .cls-45 {
        fill: #4d3f3f;
      }

      .cls-46 {
        fill: #d9a227;
      }

      .cls-47 {
        fill: #db6537;
      }

      .cls-48 {
        fill: #5a7d38;
      }

      .cls-49 {
        fill: #dbba26;
      }

      .cls-50 {
        fill: #cc7a5e;
      }

      .cls-51 {
        fill: #c87d29;
      }

      .cls-52 {
        fill: #e29939;
      }

      .cls-53 {
        fill: #edba26;
      }

      .cls-54 {
        fill: #d1cdc9;
      }

      .cls-55 {
        fill: #352a2a;
      }

      .cls-56 {
        clip-path: url(#clip-path);
      }

      .cls-57 {
        fill: #1a1723;
      }

      .cls-58 {
        fill: #e36381;
      }

      .cls-59 {
        fill: #f2bca9;
      }

      .cls-61 {
        fill: #b16b51;
      }

      .cls-62 {
        fill: #e9a597;
      }

      .cls-63 {
        stroke: #3d2e17;
      }

      .cls-64 {
        fill: #3d2e17;
      }

      .cls-65 {
        fill: #8c3e36;
      }

      .cls-66 {
        fill: #7b2f2c;
      }

      .cls-67 {
        fill: #f5968e;
      }

      .cls-68 {
        fill: #f48678;
      }

      .cls-69 {
        fill: #fff6f3;
      }

      .cls-70 {
        fill: #f48a71;
      }

      .cls-71 {
        fill: #ef4b3b;
      }

      .cls-72 {
        fill: #e7d760;
        stroke: #baa63c;
      }
    </style>
    <clipPath id="clip-path">
      <path class="cls-1" d="M64.4,52.05h-.19c-2.08.18-3.59,3.15-3.39,6.65s2,6,4,6H65c2.08-.17,3.6-3.15,3.39-6.65s-1.95-6-3.95-6"/>
    </clipPath>
  </defs>
  <g>
    <path class="cls-2" d="M141,142.14c0-.59,0-1.18,0-1.76,0-.17,0-.33,0-.48s0-.53-.05-.78l0-.37-.06-.73q-.08-.78-.18-1.5s-.06-.55-.09-.75c-.11-.71-.23-1.41-.36-2.12l0-.18c-.13-.65-.27-1.31-.43-1.93,0-.2-.19-.75-.19-.75-.11-.43-.22-.85-.34-1.27l-.24-.82c-.11-.38-.23-.76-.35-1.13l-.26-.82c-.13-.36-.25-.72-.37-1.08l-.43-1.19-.13-.37c-.33-.87-.66-1.74-1-2.61l-1.18-3c-.35-.88-.69-1.77-1.05-2.7l-.13-.37c-.34-.88-.66-1.78-1-2.68,0-.13-.09-.24-.13-.37-.27-.77-.55-1.51-.84-2.24l-.27-.64-.08-.18q-.36-.87-.75-1.68c-.13-.28-.26-.56-.4-.83-.3-.6-.6-1.17-1-1.8q-.12-.24-.27-.48c-.4-.68-.82-1.35-1.26-2l-.28-.42c-.14-.2-.29-.4-.44-.59l-.18-.24-.46-.61c-.21-.26-.43-.51-.64-.76l-.19-.22-.5-.58-.66-.68-.2-.2c-.19-.19-.38-.39-.58-.57l-.63-.56-.22-.19-.67-.57-.55-.41a23.2,23.2,0,0,0-6-3.27,8.79,8.79,0,0,0,.42-2.37c0-.06,0-.12,0-.18a8.88,8.88,0,0,0-.46-3,10.49,10.49,0,0,0,.87-.89,11.08,11.08,0,0,0,2.43-6.45A17.15,17.15,0,0,0,123,70.15a14.93,14.93,0,0,0-1-7.88,39.43,39.43,0,0,0,1.3-10.19,71.28,71.28,0,0,0-.57-9.16,9.78,9.78,0,0,0,3.33-6.71c.19-3.17-1.17-6.15-4-8.86a14.82,14.82,0,0,0-5.46-3.25,34.73,34.73,0,0,0-6.85-8.24,14.36,14.36,0,0,0-6.13-4.27A42.12,42.12,0,0,0,83.36,6.92C57.91,6.92,42.1,23,42.1,48.87a41.57,41.57,0,0,0,1,9.14,22.45,22.45,0,0,0,.73,2.85A14.26,14.26,0,0,0,42.24,70a16.89,16.89,0,0,0,4.23,10.06,11.1,11.1,0,0,0,1.8,5.11c0,.28-.07.57-.1.89,0,.11,0,.36,0,.36s0,.22,0,.24A8.83,8.83,0,0,0,47.48,90v.21a8.84,8.84,0,0,0,.42,2.43l-.33.17c-.18.09-.36.18-.54.29l-.2.11c-.56.33-1.12.7-1.69,1.11l-.38.27-.29.22-.74.61-.51.43L43,96.1l-.52.49-.38.37-.27.29-.36.38c-.1.1-.19.21-.29.32-.25.28-.49.56-.75.88l-.32.37a33.11,33.11,0,0,0-4.45-2.63c-3.28-5.2-11.92-6-13.9-6.15l-.3,0-.62,0h-.37a9.83,9.83,0,0,0-7.09,2.7,10.17,10.17,0,0,0-3.5,2.58A9.49,9.49,0,0,0,8,97.15a11.22,11.22,0,0,0-3,8.51c.13,4.48,2.08,8.25,5.35,10.37a11.6,11.6,0,0,0,3.72,1.5,12,12,0,0,0,2.29,1.77c1.86,1.08,3.79,1.33,7,1.73l.46.06a14.59,14.59,0,0,0,2,6.37l.21.32a12.53,12.53,0,0,0,1.06,1.4c-.15.52-.29,1-.42,1.58l-.16.66c-.23,1-.41,1.81-.56,2.69l0,.22c-.13.75-.24,1.52-.34,2.36,0,.16,0,.32-.06.5s0,.4-.05.6v.12c0,.31,0,.62-.07.93,0,.46,0,.93-.07,1.42,0,0,0,.64,0,.87,0,.53,0,1.09,0,1.65,0,0,0,.52,0,.72,0,.81.07,1.63.14,2.48l0,.17c.08.92.17,1.85.27,2.78l.11,1c.07.7.16,1.4.25,2.11l.11.88c.12.93.25,1.86.38,2.79l.94,6.51.38,2.67c.1.74.2,1.48.29,2.23l.1.84c.09.69.17,1.39.25,2.08l.1,1c.06.55.11,1.1.16,1.64l.09,1.08.12,1.58.06,1.09c0,.57.06,1.13.08,1.68l0,1c0,.76,0,1.52,0,2.3v.37c0,.81,0,1.64,0,2.47s-.07,1.94-.1,3.09c0,0,0,1.72,0,1.72L29,193.22,28.74,208l-.12,6.65-.07,3.65-.13,5-.08,2.46-.07,2.11-.09,2.34-.1,2.11L28,234.41l-.11,2-.13,1.92s-.1,1.27-.14,1.71l-.16,1.81c0,.4-.08.79-.13,1.16l0,.28c0,.35-.08.68-.12,1l0,.23c0,.29-.08.57-.13.87l7.88,1.37L27,245.52c0,.2-.07.39-.12.58a.52.52,0,0,0,0,.11c0,.12-.05.23-.08.33h0l-.09.32a8.07,8.07,0,0,0,.31,4.81s.06.18.17.42l0,.1c.2.44.44.92.75,1.46l0,.09.22.37.22.33a24.74,24.74,0,0,0,8.41,7.73,3.84,3.84,0,0,1,.48.33l.16.12a15.87,15.87,0,0,1,2.44,3,27.29,27.29,0,0,0,3.78,4.56l.2.18.27.24c.44.36.9.71,1.37,1l.47.3A13.77,13.77,0,0,0,48.14,273a7.87,7.87,0,0,0,3,.59,8.46,8.46,0,0,0,1.5-.14l.72.79.27.29c.46.49,1,1,1.44,1.43l.4.38c.4.37.81.73,1.25,1.1.17.15.35.31.56.47.41.35.85.69,1.3,1l.5.38c.61.46,1.25.91,2,1.39l.3.19c.33.22.67.43,1,.64-1,2.25-2.56,7-.77,11.73.07.19.14.37.22.55s.09.2.14.3a12.1,12.1,0,0,0,.62,1.17l.29.46a11.91,11.91,0,0,0,1.25,1.54l.3.31a12.91,12.91,0,0,0,1.5,1.25l.39.25a12.38,12.38,0,0,0,1.75.95l.23.1q.45.19.93.36h0l.65.2.42.11a16.65,16.65,0,0,0,1.84.36l.34,0a19.23,19.23,0,0,0,2.06.14h.34c.61,0,1.18,0,1.81-.07l.17,0c.68-.06,1.35-.15,1.92-.26l.33-.07a14.23,14.23,0,0,0,1.93-.52l.23-.08a15.13,15.13,0,0,0,1.65-.7l.22-.11a16.87,16.87,0,0,0,5.74,1.69l.36,0,.42,0,.74,0c.33,0,.65,0,1,0h.41c.68,0,1.34-.06,2-.13l.25,0a14.7,14.7,0,0,0,1.87-.36l.33-.08.43-.12.34-.12a12.19,12.19,0,0,0,7.41-6.53c2.25-5,.59-10.08-.48-12.46l.28-.18.73-.47c.39-.25.76-.5,1.12-.75l.65-.46c.38-.27.74-.55,1.1-.83l.55-.41,1.2-1,.33-.28c.51-.44,1-.87,1.44-1.31l.21-.2c.38-.37.75-.74,1.1-1.11l.39-.42.61-.67a8.48,8.48,0,0,0,1.51.14,8.07,8.07,0,0,0,3-.59,16,16,0,0,0,6.4-4.93l.11-.15c.39-.48.78-1,1.26-1.67,0,0,1-1.43,1-1.43l.37-.51.4-.52.16-.2.36-.41.31-.32.22-.2.14-.12a5.19,5.19,0,0,1,.57-.4l.3-.18.48-.3s.43-.26.55-.35c.3-.19.58-.38.86-.59s.46-.33.7-.51l.54-.41.85-.71a1.22,1.22,0,0,0,.17-.15c.27-.23.51-.46.74-.67s.44-.44.67-.68c.08-.07.37-.38.42-.43l.32-.36c.28-.32.55-.64.8-1l.16-.2.22-.31c.11-.15.41-.57.45-.64l.17-.24c.19-.3.37-.59.51-.84l.06-.09.44-.83c.14-.29.24-.51.31-.68s.13-.3.15-.36a8,8,0,0,0,.22-5.13c0-.1,0-.22-.08-.34l0-.15-.14-.71c0-.28-.09-.57-.13-.87l0-.14c0-.3-.08-.62-.13-1l-.15-1.45s-.11-1.11-.15-1.58l-.12-1.53-.13-1.83s-.09-1.51-.12-2.08l-.1-1.86-.12-2.5-.08-2-.16-4.86-.1-3.42s-.14-6.58-.14-6.61c-.09-4.41-.15-8.8-.21-12.88-.1-6.75-.19-12.58-.34-16.56,0-.79,0-1.57-.05-2.35v-.6c0-.57,0-1.15,0-1.73l0-.73c0-.54,0-1.07,0-1.6l.05-.78c0-.51.05-1,.09-1.52l.06-.79c0-.52.08-1,.13-1.54l.07-.76c.05-.54.1-1.07.16-1.6l.08-.68c.06-.57.27-2.27.27-2.27.08-.66.17-1.31.25-2l0-.27q.39-2.87.81-5.65l.49-3.4.32-2.34.3-2.32.2-1.72,0-.36c.11-1.06.22-2.12.31-3.16,0,0,0-.14,0-.17.07-.91.12-1.82.14-2.82v-.93Z"/>
    <path class="cls-3" d="M136,137.14c0-.59,0-1.18,0-1.76,0-.17,0-.33,0-.48s0-.53-.05-.78l0-.37-.06-.73q-.08-.78-.18-1.5s-.06-.55-.09-.75c-.11-.71-.23-1.41-.36-2.12l0-.18c-.13-.65-.27-1.31-.43-1.93,0-.2-.19-.75-.19-.75-.11-.43-.22-.85-.34-1.27l-.24-.82c-.11-.38-.23-.76-.35-1.13l-.26-.82c-.13-.36-.25-.72-.37-1.08l-.43-1.19-.13-.37c-.33-.87-.66-1.74-1-2.61l-1.18-3c-.35-.88-.69-1.77-1.05-2.7l-.13-.37c-.34-.88-.66-1.78-1-2.68,0-.13-.09-.24-.13-.37-.27-.77-.55-1.51-.84-2.24l-.27-.64-.08-.18q-.36-.87-.75-1.68c-.13-.28-.26-.56-.4-.83-.3-.6-.6-1.17-1-1.8q-.12-.24-.27-.48c-.4-.68-.82-1.35-1.26-2l-.28-.42c-.14-.2-.29-.4-.44-.59l-.18-.24-.46-.61c-.21-.26-.43-.51-.64-.76l-.19-.22-.5-.58-.66-.68-.2-.2c-.19-.19-.38-.39-.58-.57l-.63-.56-.22-.19-.67-.57-.55-.41a23.2,23.2,0,0,0-6-3.27,8.79,8.79,0,0,0,.42-2.37c0-.06,0-.12,0-.18a8.88,8.88,0,0,0-.46-3,10.49,10.49,0,0,0,.87-.89,11.08,11.08,0,0,0,2.43-6.45A17.15,17.15,0,0,0,118,65.15a14.93,14.93,0,0,0-1-7.88,39.43,39.43,0,0,0,1.3-10.19,71.28,71.28,0,0,0-.57-9.16,9.78,9.78,0,0,0,3.33-6.71c.19-3.17-1.17-6.15-4-8.86a14.82,14.82,0,0,0-5.46-3.25,34.73,34.73,0,0,0-6.85-8.24,14.36,14.36,0,0,0-6.13-4.27A42.12,42.12,0,0,0,78.36,1.92C52.91,1.92,37.1,18,37.1,43.87a41.57,41.57,0,0,0,1,9.14,22.45,22.45,0,0,0,.73,2.85A14.26,14.26,0,0,0,37.24,65a16.89,16.89,0,0,0,4.23,10.06,11.1,11.1,0,0,0,1.8,5.11c0,.28-.07.57-.1.89,0,.11,0,.36,0,.36s0,.22,0,.24A8.83,8.83,0,0,0,42.48,85v.21a8.84,8.84,0,0,0,.42,2.43l-.33.17c-.18.09-.36.18-.54.29l-.2.11c-.56.33-1.12.7-1.69,1.11l-.38.27-.29.22-.74.61-.51.43L38,91.1l-.52.49-.38.37-.27.29-.36.38c-.1.1-.19.21-.29.32-.25.28-.49.56-.75.88l-.32.37a33.11,33.11,0,0,0-4.45-2.63c-3.28-5.2-11.92-6-13.9-6.15l-.3,0-.62,0h-.37a9.83,9.83,0,0,0-7.09,2.7,10.17,10.17,0,0,0-3.5,2.58A9.49,9.49,0,0,0,3,92.15a11.22,11.22,0,0,0-3,8.51c.13,4.48,2.08,8.25,5.35,10.37a11.6,11.6,0,0,0,3.72,1.5,12,12,0,0,0,2.29,1.77c1.86,1.08,3.79,1.33,7,1.73l.46.06a14.59,14.59,0,0,0,2,6.37l.21.32a12.53,12.53,0,0,0,1.06,1.4c-.15.52-.29,1-.42,1.58l-.16.66c-.23,1-.41,1.81-.56,2.69l0,.22c-.13.75-.24,1.52-.34,2.36,0,.16,0,.32-.06.5s0,.4-.05.6v.12c0,.31,0,.62-.07.93,0,.46,0,.93-.07,1.42,0,0,0,.64,0,.87,0,.53,0,1.09,0,1.65,0,0,0,.52,0,.72,0,.81.07,1.63.14,2.48l0,.17c.08.92.17,1.85.27,2.78l.11,1c.07.7.16,1.4.25,2.11l.11.88c.12.93.25,1.86.38,2.79l.94,6.51.38,2.67c.1.74.2,1.48.29,2.23l.1.84c.09.69.17,1.39.25,2.08l.1,1c.06.55.11,1.1.16,1.64l.09,1.08.12,1.58.06,1.09c0,.57.06,1.13.08,1.68l0,1c0,.76,0,1.52,0,2.3v.37c0,.81,0,1.64,0,2.47s-.07,1.94-.1,3.09c0,0,0,1.72,0,1.72L24,188.22,23.74,203l-.12,6.65-.07,3.65-.13,5-.08,2.46-.07,2.11-.09,2.34-.1,2.11L23,229.41l-.11,2-.13,1.92s-.1,1.27-.14,1.71l-.16,1.81c0,.4-.08.79-.13,1.16l0,.28c0,.35-.08.68-.12,1l0,.23c0,.29-.08.57-.13.87l7.88,1.37L22,240.52c0,.2-.07.39-.12.58a.52.52,0,0,0,0,.11c0,.12-.05.23-.08.33h0l-.09.32a8.07,8.07,0,0,0,.31,4.81s.06.18.17.42l0,.1c.2.44.44.92.75,1.46l0,.09.22.37.22.33a24.74,24.74,0,0,0,8.41,7.73,3.84,3.84,0,0,1,.48.33l.16.12a15.87,15.87,0,0,1,2.44,3,27.29,27.29,0,0,0,3.78,4.56l.2.18.27.24c.44.36.9.71,1.37,1l.47.3A13.77,13.77,0,0,0,43.14,268a7.87,7.87,0,0,0,3,.59,8.46,8.46,0,0,0,1.5-.14l.72.79.27.29c.46.49,1,1,1.44,1.43l.4.38c.4.37.81.73,1.25,1.1.17.15.35.31.56.47.41.35.85.69,1.3,1l.5.38c.61.46,1.25.91,2,1.39l.3.19c.33.22.67.43,1,.64-1,2.25-2.56,7-.77,11.73.07.19.14.37.22.55s.09.2.14.3a12.1,12.1,0,0,0,.62,1.17l.29.46a11.91,11.91,0,0,0,1.25,1.54l.3.31a12.91,12.91,0,0,0,1.5,1.25l.39.25a12.38,12.38,0,0,0,1.75.95l.23.1q.45.19.93.36h0l.65.2.42.11a16.65,16.65,0,0,0,1.84.36l.34,0a19.23,19.23,0,0,0,2.06.14h.34c.61,0,1.18,0,1.81-.07l.17,0c.68-.06,1.35-.15,1.92-.26l.33-.07a14.23,14.23,0,0,0,1.93-.52l.23-.08a15.13,15.13,0,0,0,1.65-.7l.22-.11a16.87,16.87,0,0,0,5.74,1.69l.36,0,.42,0,.74,0c.33,0,.65,0,1,0h.41c.68,0,1.34-.06,2-.13l.25,0a14.7,14.7,0,0,0,1.87-.36l.33-.08.43-.12.34-.12A12.19,12.19,0,0,0,99.42,289c2.25-5,.59-10.08-.48-12.46l.28-.18.73-.47c.39-.25.76-.5,1.12-.75l.65-.46c.38-.27.74-.55,1.1-.83l.55-.41,1.2-1,.33-.28c.51-.44,1-.87,1.44-1.31l.21-.2c.38-.37.75-.74,1.1-1.11l.39-.42.61-.67a8.48,8.48,0,0,0,1.51.14,8.07,8.07,0,0,0,3-.59,16,16,0,0,0,6.4-4.93l.11-.15c.39-.48.78-1,1.26-1.67,0,0,1-1.43,1-1.43l.37-.51.4-.52.16-.2.36-.41.31-.32.22-.2.14-.12a5.19,5.19,0,0,1,.57-.4l.3-.18.48-.3s.43-.26.55-.35c.3-.19.58-.38.86-.59s.46-.33.7-.51l.54-.41.85-.71a1.22,1.22,0,0,0,.17-.15c.27-.23.51-.46.74-.67s.44-.44.67-.68c.08-.07.37-.38.42-.43l.32-.36c.28-.32.55-.64.8-1l.16-.2.22-.31c.11-.15.41-.57.45-.64l.17-.24c.19-.3.37-.59.51-.84l.06-.09.44-.83c.14-.29.24-.51.31-.68s.13-.3.15-.36a8,8,0,0,0,.22-5.13c0-.1,0-.22-.08-.34l0-.15-.14-.71c0-.28-.09-.57-.13-.87l0-.14c0-.3-.08-.62-.13-1l-.15-1.45s-.11-1.11-.15-1.58l-.12-1.53-.13-1.83s-.09-1.51-.12-2.08l-.1-1.86-.12-2.5-.08-2-.16-4.86-.1-3.42s-.14-6.58-.14-6.61c-.09-4.41-.15-8.8-.21-12.88-.1-6.75-.19-12.58-.34-16.56,0-.79,0-1.57-.05-2.35v-.6c0-.57,0-1.15,0-1.73l0-.73c0-.54,0-1.07,0-1.6l.05-.78c0-.51.05-1,.09-1.52l.06-.79c0-.52.08-1,.13-1.54l.07-.76c.05-.54.1-1.07.16-1.6l.08-.68c.06-.57.27-2.27.27-2.27.08-.66.17-1.31.25-2l0-.27q.39-2.87.81-5.65l.49-3.4.32-2.34.3-2.32.2-1.72,0-.36c.11-1.06.22-2.12.31-3.16,0,0,0-.14,0-.17.07-.91.12-1.82.14-2.82v-.93Z"/>
    <g>
      <path class="cls-4" d="M78.16,273.72a23.73,23.73,0,0,1,.22,4c0,.63.05,1.31.11,2,.23,2.7-.27,8.81,8.2,8.67,7.39-.13,6.19-6,4.82-8.84a8,8,0,0,0-.58-1,7.26,7.26,0,0,1-1.52-3.05L87.71,274s-9.84-1.34-9.55-.3"/>
      <path class="cls-5" d="M78.38,277.71c0,.63.05,1.31.11,2,.23,2.7-.27,8.81,8.2,8.67,7.39-.13,6.19-6,4.82-8.84-.92,1-2.65,2-5.93,2a8,8,0,0,1-7.2-3.88"/>
      <path class="cls-4" d="M78.15,273.72a23.47,23.47,0,0,0-.23,4c0,.63,0,1.31-.11,2-.22,2.7.27,8.81-8.2,8.67-7.38-.13-6.19-6-4.82-8.84a8,8,0,0,1,.59-1,7.26,7.26,0,0,0,1.52-3.05L68.59,274s9.85-1.34,9.56-.3"/>
      <path class="cls-6" d="M89.3,288a10,10,0,0,1-2.61.36h-.28c-.49,0-1,0-1.39-.06.44,0,.9.06,1.4.06h.27A10,10,0,0,0,89.3,288M91,278.58a3.22,3.22,0,0,1,.27.43,3.22,3.22,0,0,0-.27-.43m-1.55-3.1h0a6.68,6.68,0,0,0,1.22,2.63,6.68,6.68,0,0,1-1.22-2.63h0m-11.24-1.74a6.4,6.4,0,0,1,.16,1.27,6.4,6.4,0,0,0-.16-1.27h0"/>
      <path class="cls-7" d="M78.16,273.74a6.4,6.4,0,0,1,.16,1.27v.05c2.07.71,12.94,4.59,7.26,6.53h0c3.28,0,5-1,5.93-2h0c-.1-.2-.19-.39-.29-.55a3.22,3.22,0,0,0-.27-.43l0,0-.3-.42a6.68,6.68,0,0,1-1.22-2.63h0l-.49.07a27.22,27.22,0,0,1-3.66.25c-2.41,0-5.27-.36-6.85-1.83h0l0,0h0l-.09-.09h0v0h0v0h0v0h0"/>
      <path class="cls-5" d="M77.92,277.71c0,.63,0,1.31-.11,2-.22,2.7.27,8.81-8.2,8.67-7.38-.13-6.19-6-4.82-8.84.92,1,2.66,2,5.94,2a8,8,0,0,0,7.19-3.88"/>
      <path class="cls-6" d="M66.79,288h0m8.13-.77a9.1,9.1,0,0,1-5,1.2h-.29a9.1,9.1,0,0,1-2.8-.43,9.12,9.12,0,0,0,2.81.43h.27a9.12,9.12,0,0,0,5-1.2m0,0h0m0,0h0M66.9,275.49h0a2.08,2.08,0,0,1-.12.49h0a2.66,2.66,0,0,0,.13-.49h0m11.25-1.77h0A5.41,5.41,0,0,0,78,275a6,6,0,0,1,.16-1.23h0"/>
      <path class="cls-7" d="M78.15,273.72c-1.52,1.69-4.57,2.09-7.11,2.09a27.24,27.24,0,0,1-4.14-.32h0a2.66,2.66,0,0,1-.13.49c2.34.6,6,1.49,7.7,1.73,2.39.32.1,3.75-4.62,3.75a10.46,10.46,0,0,1-1.53-.12l.17.07a12.39,12.39,0,0,0,2.24.18,8,8,0,0,0,7.19-3.88h0c0-1.07,0-2,.07-2.76a5.41,5.41,0,0,1,.16-1.23"/>
      <path class="cls-8" d="M77.92,277.71a8,8,0,0,1-7.19,3.88,12.39,12.39,0,0,1-2.24-.18,10.48,10.48,0,0,0,3.65.58,17.29,17.29,0,0,0,3.56-.38s-1.29,5.29-6.53,5.29a11.4,11.4,0,0,1-4.37-1l-.68-.31A4.12,4.12,0,0,0,66.79,288h0a9.1,9.1,0,0,0,2.8.43h.29a9.1,9.1,0,0,0,5-1.2h0v0h0c2.88-1.9,2.68-5.52,2.84-7.44.06-.7.09-1.38.11-2"/>
      <path class="cls-9" d="M109.1,197.91v51s0,14.73-19.7,23.71v2.87s-8.38,1.44-11.25-1.77c-2.88,3.21-11.25,1.77-11.25,1.77v-2.87c-19.7-9-19.7-23.71-19.7-23.71l.67-51H109.1"/>
      <path class="cls-10" d="M89.4,275.49l-.49.07.49-.07m0,0h0M78.4,274h0m0,0h0m0,0h0m-.09-.09.09.09-.09-.09m0,0v0m0,0v0m0,0v0m0,0h0m0,0h0"/>
      <path class="cls-11" d="M89.4,273.06a27.57,27.57,0,0,1-2.19,2.68c.72-.05,1.31-.12,1.7-.18l.49-.07h0v-2.43M94,239.84c-2.79,18-11.69,25.72-15.84,29.53v4.37h0v0h0v0h0v0h0l.09.09h0l0,0h0a4.57,4.57,0,0,0,.47.38c3-1.74,14.83-9.1,18.19-20.53-1.79,8.31-4.28,14.28-7.2,18.57,10.78-5,15.52-11.81,17.6-16.79C104.33,251.4,99,246,94,239.84m-8.35-12.19c.3,13.87-7.49,24.35-7.49,24.35v7.11s8-3.86,13.22-22.61c-1-1.26-1.87-2.55-2.74-3.87h0c-1.08-1.63-2.09-3.29-3-5m-7.49,16.56s-11.84-15.5-5.77-33.6c.44,13.11,5.77,28.47,5.77,28.47v5.13m0-7.71v-7.41a51,51,0,0,1-2.47-25,35.89,35.89,0,0,0,2.47,7.09v7a38.22,38.22,0,0,0,2.47-7.26,53.62,53.62,0,0,1-2.47,25.64m2.74-35.75H53.57c.08,6.4.1,12.53,0,17.78a122.27,122.27,0,0,1-3.33,26.38c-.75,3.14-1.53,5.94-2.22,8.45,1.54,5.06,6,13.39,18.88,19.26C56,266.4,53.82,258.45,53.75,258.21a50.91,50.91,0,0,0,19.49,12.57c-5.84-3.71-10.94-10.9-14-24.78,3.88,12.83,18.92,20.41,18.92,20.41v-5.26c-5.42-4.84-18.92-16.21-16.38-47.77,4.14,32,16.38,37.77,16.38,37.77v-4.4a132.85,132.85,0,0,0,5.35-23.7,30.36,30.36,0,0,1-2.28-10.66c-.07-3.63-.18-7.57-.33-11.64"/>
      <polyline class="cls-12" points="109.5 126.74 109.5 200.75 50.14 200.75 48.72 192.42 40.65 145.02 62.44 117.24 109.5 126.74"/>
      <polyline class="cls-13" points="109.5 190.86 109.5 200.75 50.14 200.75 48.72 192.42 51.34 190.86 109.5 190.86"/>
      <path class="cls-14" d="M60.68,163.65c.08,1.92.15,3.76.22,5.48a103.35,103.35,0,0,0,11.2,8c4.13,2.43,8.7,8.21,4.43,13.78h4c-.32-7.15-.69-14.33-1-20.71-.45,0-.92,0-1.39,0h0a26.43,26.43,0,0,1-15.31-4.93c-.76-.54-1.45-1.08-2.07-1.61M55.11,163c-.31.28-.62.53-.94.77a8.79,8.79,0,0,1-1.23.78c0,1,0,2,0,3.08l2.32-.85a4,4,0,0,1,1-.21c-.38-1.13-.77-2.32-1.15-3.57"/>
      <path class="cls-15" d="M80.5,190.86h-4c-2.84,3.71-9.58,7.33-23,9.83v.06H80.89c0-1.13-.08-2.26-.12-3.41-.09-2.14-.18-4.31-.27-6.48"/>
      <path class="cls-16" d="M78.15,267.72v6c-2.88,3.21-11.25,1.77-11.25,1.77v-2.87S75.67,270.93,78.15,267.72Z"/>
      <path class="cls-17" d="M56.6,159.26a27,27,0,0,0,21.66,10.93h-.39a27,27,0,0,0,21.65-10.93L76.83,143.33l-20,15.58-.25.35"/>
      <polygon class="cls-18" points="77.87 170.19 78.06 170.19 78.26 170.19 77.87 170.19"/>
      <path class="cls-18" d="M76.83,143.33l-20,15.58-.25.35a26.53,26.53,0,0,0,42.92,0L76.83,143.33M61,158.9c1.23,1.79,8.7,11.94,16.3,5.52C73.92,171.85,68.2,170,61,158.9m.7-.5s8,7,15.93,1.43c0,0-3.9,12.56-15.93-1.43"/>
      <path class="cls-12" d="M121.09,112.75,91.3,118.6c-6.81,0-13.62,0-20.43-.07-3.41,0-6.81-.12-10.22-.16-3.13-.05-6.26-5.84-9.38-6-4.87-.19-9.89-.65-14.74-.07l-1.31-1,.21-.61c.64-1.8,1.31-3.48,2-5C41,98.34,46.08,94.72,52.06,94.31l.84-.07c1.49-.12,2.94-.29,4.33-.49a90.58,90.58,0,0,0,12.21-2.6V77.26H86.35V91.15A90.3,90.3,0,0,0,99,93.81c1.4.19,2.86.35,4.34.47l.41,0c7.13.49,12.92,5.54,16.48,16,.29.84.58,1.65.88,2.45"/>
      <path class="cls-19" d="M99,93.81h0c1.15.16,2.33.29,3.54.4-1.21-.11-2.4-.24-3.54-.4h0"/>
      <path class="cls-14" d="M99,93.81c-5,2.92-12.5,4.77-20.82,4.77-1.2,0-2.39,0-3.55-.11a24.83,24.83,0,0,1,4.44,8.43c.91,3.34-1,4.51-4.13,4.51a19.47,19.47,0,0,1-2.9-.26c2.4,2.65,4.17,4.25,5.74,4.75l.29.08h.21l.16,0c2.67-.75,5.9-4.73,11.79-11.68A39.38,39.38,0,0,1,101,95.42a24.47,24.47,0,0,1,2.25-1.11l0,0-.8-.07c-1.21-.11-2.39-.24-3.54-.4h0"/>
      <path class="cls-20" d="M99,93.81c-5,2.92-12.5,4.77-20.82,4.77s-15.89-1.87-20.93-4.83a90.58,90.58,0,0,0,12.21-2.6V77.26H86.35V91.15A90.3,90.3,0,0,0,99,93.81"/>
      <path class="cls-21" d="M86.35,85.44h0v5.71A90.3,90.3,0,0,0,99,93.81h0a90.3,90.3,0,0,1-12.63-2.66V85.44"/>
      <path class="cls-21" d="M69.44,86.46v4.69h0l-1.58.44h0c1-.27,1.58-.44,1.58-.44V86.46h0"/>
      <path class="cls-22" d="M86.35,85.44A26.35,26.35,0,0,1,76.76,89a28.26,28.26,0,0,1-7.32-2.52v4.69h0s-.57.17-1.58.44a45.1,45.1,0,0,1,6.75,6.88c1.16.07,2.34.11,3.54.11,8.33,0,15.79-1.85,20.83-4.77a90.3,90.3,0,0,1-12.63-2.66V85.44"/>
      <path class="cls-23" d="M127.87,140.32c-1,12-4.28,24.76-3.74,39.18s.27,55.73,2.76,64.28c0,0-1.22,3.43-6.44,6.48s-6.15,8.68-10.29,10.36c-1.74-8.47-28.54-27-28.94-48.23s-2.32-52.82-3-61.94c0,0-24.38-7-25.09,2.08s.87,44.75.47,66-5.68,33.62-7.42,42.09c-4.14-1.68-5.08-7.31-10.29-10.36s-6.44-6.48-6.44-6.48c2.49-8.55,2.22-49.87,2.76-64.28s-2.76-27.18-3.74-39.18,3.22-18.56,6.78-29l.21-.61c.64-1.8,1.31-3.48,2-5C40.82,98.45,45.2,93.94,51,93.54a4.4,4.4,0,0,1,.94.33,4.58,4.58,0,0,0,.93.33l.08,0,.13.07a37.87,37.87,0,0,1,13.07,10c6,7.08,9.25,11.08,12,11.71h.21c2.7-.63,5.94-4.63,11.95-11.71a37.89,37.89,0,0,1,13.06-10l0,0,0,0,.65,0c7.13.49,12.92,5.54,16.49,16s8.37,18,7.39,30"/>
      <path class="cls-24" d="M39.92,101.19a29.4,29.4,0,0,0-1.53,2.61,50.22,50.22,0,0,0,4.51,7.28,42.63,42.63,0,0,1-3-9.89"/>
      <path class="cls-19" d="M41.4,99.12,41,99.6l.38-.48"/>
      <path class="cls-24" d="M42.32,98.05c-.31.34-.62.7-.92,1.07L41,99.6l-.17.23a55.25,55.25,0,0,0,9.35,14.31c0-.09,0-.18,0-.28-2.28-3.07-6.54-9.43-7.92-15.81"/>
      <path class="cls-19" d="M44.35,96.16c-.26.2-.52.42-.77.65.25-.23.51-.45.77-.65"/>
      <path class="cls-24" d="M44.56,96l-.21.16c-.26.2-.52.42-.77.65s-.55.5-.82.77a32.56,32.56,0,0,0,8.61,10.08l.15-.63a56.32,56.32,0,0,1-7-11"/>
      <path class="cls-19" d="M114.47,256.56v0m4.24-5.07a25,25,0,0,0-4.23,5.06,24.77,24.77,0,0,1,4.23-5.06h0"/>
      <path class="cls-23" d="M103,201.57s-5.32,31.68,10.38,56.48c.38-.47.74-1,1.1-1.47v0h0a25,25,0,0,1,4.23-5.06C107.49,238.73,103,201.57,103,201.57"/>
      <path class="cls-19" d="M120.57,250.19l-.12.07c-.31.18-.61.37-.89.57.29-.2.58-.39.89-.57l.12-.07m0,0h0m4.3-3.43a17.63,17.63,0,0,1-1.37,1.33,16,16,0,0,0,1.37-1.33h0"/>
      <path class="cls-23" d="M115,154.81c-8.37,54.18-4.84,77.66,4.56,96h0c.28-.2.58-.39.89-.57l.12-.07h0a20.84,20.84,0,0,0,2.93-2.1,17.63,17.63,0,0,0,1.37-1.33c-18.88-28-9.45-86-9.92-91.93"/>
      <path class="cls-19" d="M52,93.92a4,4,0,0,0,.81.28h0l.07,0-.07,0h0a4.55,4.55,0,0,1-.81-.28m-1-.38h0A11.48,11.48,0,0,0,46,95h0A11.62,11.62,0,0,1,51,93.54h0a4.32,4.32,0,0,1,.82.29,4.32,4.32,0,0,0-.82-.29"/>
      <path class="cls-25" d="M101,95.42a39.38,39.38,0,0,0-10.81,8.84c-5.89,6.95-9.12,10.93-11.79,11.68,2.67-.75,5.9-4.73,11.79-11.67A39.45,39.45,0,0,1,101,95.42"/>
      <path class="cls-14" d="M61.89,100h0a37.53,37.53,0,0,1,4.21,4.24c2.35,2.77,4.28,5.07,5.92,6.88h0c-1.64-1.81-3.57-4.11-5.92-6.89A38.25,38.25,0,0,0,61.89,100"/>
      <path class="cls-25" d="M72,111.15c2.4,2.65,4.17,4.25,5.74,4.75-1.57-.5-3.34-2.1-5.74-4.75h0"/>
      <path class="cls-19" d="M37.75,105.07c-.1.19-.19.39-.29.59-.21.46-.42.93-.62,1.41h0c.2-.48.41-.95.62-1.41l0,0,.27-.56m78.62-3.21a34,34,0,0,1,4.11,8.44c1.46,4.3,3.14,8.11,4.53,11.94-1.39-3.83-3.07-7.64-4.53-11.94a34,34,0,0,0-4.11-8.44m0,0,0,0,0,0m0-.07v0"/>
      <path class="cls-21" d="M37.48,105.63l0,0c-.21.46-.42.93-.62,1.41h0q.3-.72.63-1.41v0"/>
      <path class="cls-19" d="M128,135.31a35.29,35.29,0,0,1-.08,5c-.09,1.12-.2,2.24-.33,3.37.13-1.13.24-2.25.33-3.37a35.29,35.29,0,0,0,.08-5M28.49,133a39.34,39.34,0,0,0,0,7.31c.33,4.08.93,8.25,1.56,12.54-.63-4.29-1.23-8.46-1.56-12.54a39.34,39.34,0,0,1,0-7.31"/>
      <path class="cls-14" d="M53,167.65h0c.1,6.81.29,15,.44,23.21h0c-.15-8.24-.34-16.4-.44-23.21"/>
      <path class="cls-15" d="M53.41,190.86h0c0,.95,0,1.89.05,2.83,0-.94,0-1.88-.05-2.83"/>
      <path class="cls-25" d="M79.45,170.15h0c.36,6.38.73,13.56,1,20.71h0c-.31-7.15-.69-14.33-1-20.71m-26.51-5.58h0c0,1,0,2,0,3.08h0c0-1.06,0-2.09,0-3.08"/>
      <path class="cls-26" d="M80.5,190.86h0c.09,2.17.18,4.34.27,6.48-.09-2.14-.18-4.31-.27-6.48"/>
      <polyline class="cls-27" points="79.45 170.14 79.45 170.14 79.45 170.15 79.45 170.15 79.45 170.14"/>
      <path class="cls-28" d="M79.25,166.59c.06,1.15.13,2.34.2,3.55h0c-.07-1.21-.14-2.4-.2-3.55"/>
      <path class="cls-19" d="M124.87,217.35c.26,9.44.67,18.15,1.4,23.27-.73-5.12-1.14-13.83-1.4-23.27m-93.26-7.12c-.29,14.47-.83,28.89-2.19,33.56A6.82,6.82,0,0,0,30,244.9h0a6.1,6.1,0,0,1-.58-1.11c1.36-4.66,1.9-19.08,2.19-33.55m.63-33.5c0,.91,0,1.84-.06,2.77-.06,1.75-.12,3.9-.17,6.33.05-2.43.11-4.58.17-6.33,0-.93,0-1.86.06-2.77"/>
      <path class="cls-11" d="M83.89,224c.52,1.23,1.11,2.44,1.75,3.64h0c-.64-1.2-1.23-2.41-1.75-3.64m0-.06,0,.06,0-.06"/>
      <path class="cls-29" d="M85.64,227.65h0c.9,1.7,1.91,3.36,3,5h0a57.56,57.56,0,0,1-3-5"/>
      <path class="cls-19" d="M48,253.36c-.38,1.35-.73,2.62-1.05,3.82.32-1.2.67-2.47,1.05-3.82h0"/>
      <path class="cls-29" d="M50.24,244.91c-.75,3.14-1.53,5.93-2.22,8.45h0c.69-2.51,1.47-5.31,2.22-8.45"/>
      <path class="cls-19" d="M36.88,250.93h0c.25.18.49.37.72.56h0c-.23-.19-.47-.38-.72-.56m89.22-5.71c-.12.19-.26.38-.42.59h0c.16-.21.3-.4.42-.59"/>
      <path class="cls-30" d="M61.08,143.64l-1.9.44c.09.72.17,1.44.25,2.16a12.33,12.33,0,0,1,2.52-.59l-.12-.14-1.6.43h0a4.4,4.4,0,0,1,.85-2.3m15.21-16.32a29.82,29.82,0,0,1-18,10.65c0,.22.07.46.11.69.16,1,.31,2,.44,3,14.64-6.17,17.33-14,17.43-14.32M86.2,124c-.2.43-6.67,13.76-27.31,17.82.1.73.19,1.45.28,2.17.76-.23,1.49-.46,2.21-.7,1-1.2,3-2.41,6.71-2.63,15.67-7.15,18-16.32,18.11-16.66m-55.48-.54A42.16,42.16,0,0,0,28.49,133a39.34,39.34,0,0,0,0,7.31c.33,4.08.93,8.25,1.56,12.54,1.1,7.51,2.28,15.41,2.24,23.87,0,.91,0,1.84-.06,2.77-.06,1.75-.12,3.9-.17,6.33-.13,6.69-.22,15.55-.4,24.4-.29,14.47-.83,28.89-2.19,33.55a6.1,6.1,0,0,0,.58,1.11c2.65-9.77,6.31-30.7,6.75-72.57a259.2,259.2,0,0,1,.13,78.61c.25.18.49.37.72.56a283,283,0,0,0,5.3-45.18,250.27,250.27,0,0,1,1.29,53.06,6.69,6.69,0,0,0,2,1.25c.22-1.08.5-2.22.82-3.44s.67-2.47,1.05-3.82h0c.69-2.52,1.47-5.31,2.22-8.45a122.27,122.27,0,0,0,3.33-26.38c.14-7.16,0-16-.11-24.84,0-.94,0-1.88-.05-2.83-.15-8.24-.34-16.4-.44-23.21,0-1.06,0-2.09,0-3.08-.17.09-.33.17-.5.24a9.83,9.83,0,0,1-3.23.76l-1.54.68a22.62,22.62,0,0,1-6.12,2l-.48,0a3.33,3.33,0,0,1-.86-.1c-1.84-.46-.24-1.31.67-2.08a4.64,4.64,0,0,1-1.42.32c-1.23,0-.78-1.33,1.33-3.53,1.6-1.67,3.69-3.43,5.5-5-.4-.09-.81-.19-1.2-.31l-.84-.28h0c-4.7-1.69-8.5-5.43-9.89-8.92l0-.05h0v0h0v0h0v0h0v0h0v-.05h0a27,27,0,0,1-1.06-3.82c-.33-1.53-.62-3.26-.89-5.17s-.49-3.95-.71-6.15c-.14-1.39-.28-2.84-.41-4.34-.08-.89-.15-1.8-.23-2.73s-.15-1.65-.22-2.42m65.89-2.16c-5.14,12.26-8.87,15.58-25.28,19.88a4.44,4.44,0,0,1,1.28,1c20.32-5.82,20-10.5,24-20.92m-54.24-6.91q.06.36.12.75c0,.21,0,.42,0,.62a3.41,3.41,0,0,1-1.29,2.74c.65,1.86,1.29,3.73,1.94,5.6.18.54.37,1.07.55,1.61h0c1.07,3.08,2.12,6.13,3.11,9h0c1.59,4.63,3,8.76,4.1,11.72.06.16.11.31.17.46l0,.16c.17.44.32.85.47,1.23l0,.06,0,.06v0a18.44,18.44,0,0,1,.86,3.07L53,151c-.68-6.44-1.33-7.73-2.76-21.66-.2-2-.33-3.75-.4-5.45a47,47,0,0,1-7.47-9.5m.53-5.76a62.14,62.14,0,0,0,6.89,11.76c0-1.07.05-2.11.12-3.11a77,77,0,0,1-7-8.65m-5-3.77-.12.24-.27.56v0q-.33.69-.63,1.41c.31.65.59,1.32.86,2h.1a3.72,3.72,0,0,1,2.11.71,53.07,53.07,0,0,1-2-4.92M108,95.13h0c-2.53,1.5-6.24,4.39-10.53,9.86C89.39,115.27,81.13,126,77.92,128.25c10.31-5.23,21-21.78,21.58-22.73-.48.87-8.29,14.92-12.68,19.42,7.34-2.5,15.21-13.47,19.48-20.21a67.81,67.81,0,0,0-6.14,15.77c-2.76,11.57,0,20.74-27.3,22a7.72,7.72,0,0,1,1.2,2.83c2.49,0,3.85-.09,3.85-.09h0s.15,2.68.33,5.76c0,.45.06.9.08,1.36.25,3.34.57,8.33.92,14.22.06,1.15.13,2.34.2,3.55h0c.36,6.38.74,13.56,1,20.71.09,2.17.18,4.34.27,6.48.2,5.29.36,10.41.45,15A31.16,31.16,0,0,0,83.86,224l0,.06h0c.52,1.23,1.11,2.44,1.75,3.64a57.56,57.56,0,0,0,3,5c-1.41-19.11-4.2-60.87-3.17-81,.62,33.82,5.52,51.95,5.52,51.95S89.06,171.38,95.15,144c1.22,32.58,2.44,54.37,2.44,54.37s1.74-56,10.3-81.15c-6.62,32.43-2.81,70.18,0,85.32-3.69-33.3,9-62.74,7.09-91.48,0,0,9.53,9.45,6.11,44.47-3.29,33.68-3.87,61.32,4.59,90.26.16-.21.3-.4.42-.59a7.18,7.18,0,0,0,.79-1.43,23.71,23.71,0,0,1-.62-3.17c-.73-5.12-1.14-13.83-1.4-23.27-.4-14.17-.45-30-.74-37.85-.49-13.08,2.18-24.8,3.41-35.81.13-1.13.24-2.25.33-3.37a35.29,35.29,0,0,0,.08-5A43.63,43.63,0,0,0,125,122.24c-1.39-3.83-3.07-7.64-4.53-11.94a34,34,0,0,0-4.11-8.44v0l0,0,0,0v0A17,17,0,0,0,108,95.13m-4.66-.87,0,0,0,0A24.47,24.47,0,0,0,101,95.42a39.45,39.45,0,0,0-10.81,8.85c-5.89,6.94-9.12,10.92-11.79,11.67l-.16,0h-.21l-.29-.08c-1.57-.5-3.34-2.1-5.74-4.75-1.64-1.81-3.57-4.11-5.92-6.88A37.53,37.53,0,0,0,61.89,100c-.71,2.85-1.47,5.59-2.16,8.14A82,82,0,0,0,73.16,118c-.53-.19-5.64-2.07-14.08-7.44-.1.38-.19.75-.29,1.12,9.71,9.32,12.49,10.91,13,11.16a88.52,88.52,0,0,1-14-7.09c-.23,1.07-.42,2-.58,2.95,5.92,8.39,8.39,10.37,8.57,10.51a39.31,39.31,0,0,1-9.13-5.7,34.74,34.74,0,0,0,.19,4.91c1.64,1.57,2.74,2.43,2.87,2.54A23.73,23.73,0,0,1,57,129.52c.25,2,.63,4.43,1.13,7.52,3.68-1.89,10.1-6.67,19.11-18.71a69.93,69.93,0,0,1-8.8,14.11A175.91,175.91,0,0,0,92,108.34c6.6-8.17,11.86-11.83,15.27-13.47a15.92,15.92,0,0,0-3.24-.56l-.65,0M51,93.54h0A11.62,11.62,0,0,0,46,95c1.8,1.87,4.17,4.26,6.84,6.83.57-2.1,1.19-4.32,1.82-6.77-1-.54-1.65-.79-1.65-.79l-.13-.07h0l-.07,0h0a4,4,0,0,1-.81-.28l-.11,0-.11,0a4.32,4.32,0,0,0-.82-.29"/>
      <path class="cls-16" d="M78.15,267.72v6c2.87,3.21,11.25,1.77,11.25,1.77v-2.87S80.62,270.93,78.15,267.72Z"/>
      <path class="cls-31" d="M78.15,200.75c.1,2.79.15,5.58.22,8.37l.14,8.37c.07,5.58.07,11.17.1,16.75s0,11.16-.1,16.74l-.13,8.37c-.08,2.79-.13,5.58-.23,8.37-.11-2.79-.16-5.58-.23-8.37L77.78,251c-.07-5.58-.07-11.16-.1-16.74s0-11.17.11-16.75l.13-8.37C78,206.33,78,203.54,78.15,200.75Z"/>
      <path class="cls-32" d="M47.59,158.1c-6.18-.79-11.51-5.44-13.22-9.73-1.57-3.89-2.41-10.92-3.2-19.79-.08-.89-.15-1.8-.23-2.73-.54-6.33-1.24-10.76-1.69-13.2a3.79,3.79,0,0,0-2.56-2.93c-1-.33-2.26-.71-3.22-1-2.06-.56-7.21-.88-8.08-1.38A12.09,12.09,0,0,1,13.14,105a9.56,9.56,0,0,1-3.44-.69c-.95-.61-1.63-1.9-1.69-3.89s.65-3.36,2.05-3.06a3,3,0,0,1,3.16-2.26c.61-1.62,1.07-1.81,3-1.68s7.5,1.43,7.65,2.54a2.71,2.71,0,0,1-.61,2,4.4,4.4,0,0,1,2.09.12,22.24,22.24,0,0,1,6.05,3.29,18,18,0,0,1,3.8,3.09,18.29,18.29,0,0,1,2.56,4.77c1.07,2.49,2,5,2.88,7.61.85,2.4,1.68,4.81,2.51,7.21.18.54.37,1.07.55,1.61,3.18,9.19,6.22,18.17,7.9,22.57,1.77,4.65,2.14,10.65-4,9.85"/>
      <path class="cls-19" d="M24,97.91a3.45,3.45,0,0,0-.74.07h0a3.45,3.45,0,0,1,.74-.07,5.46,5.46,0,0,1,1.35.19,22.24,22.24,0,0,1,6.05,3.29,18,18,0,0,1,3.8,3.09,11.7,11.7,0,0,1,1.61,2.59h0a12,12,0,0,0-1.6-2.59,18.29,18.29,0,0,0-3.81-3.09,22.24,22.24,0,0,0-6.05-3.29A5,5,0,0,0,24,97.91m-14-.57h0m3-2.24h0m.21,0h0m2.37-1.71.66,0c2,.12,7.5,1.43,7.65,2.54a2.78,2.78,0,0,1-.45,1.83,2.79,2.79,0,0,0,.45-1.84c-.15-1.1-5.69-2.41-7.65-2.53l-.66,0"/>
      <polyline class="cls-33" points="36.84 107.07 36.84 107.07 36.84 107.07 36.84 107.07 36.84 107.07"/>
      <path class="cls-34" d="M36.84,107.07h0c.31.65.58,1.32.86,2h0c-.27-.65-.55-1.32-.86-2"/>
      <path class="cls-19" d="M28.57,111.08h0a1.82,1.82,0,0,1,.15.23h0c-.05-.07-.1-.15-.16-.22"/>
      <path class="cls-34" d="M51.68,148.39a18.44,18.44,0,0,1,.86,3.07h0a18.44,18.44,0,0,0-.86-3.07m0-.08,0,.06,0-.06M41.24,118.47h0c.65,1.86,1.29,3.73,1.94,5.6.18.54.37,1.07.55,1.61h0c-.18-.54-.37-1.07-.55-1.61-.65-1.87-1.29-3.74-1.94-5.6"/>
      <path class="cls-35" d="M23.29,98c-.55,0-1.11.08-1.66.16a10.54,10.54,0,0,0-1.6.32l.11-.06c-.16.23,0,.69.14,1a7.22,7.22,0,0,0,.65,1.1,7.63,7.63,0,0,0,.83,1,2.71,2.71,0,0,0,1,.67l-.28.07A6.27,6.27,0,0,1,24.55,101a5.34,5.34,0,0,1,2.44-.3A6.28,6.28,0,0,1,31,103.11,6.93,6.93,0,0,0,27,101.17a5.17,5.17,0,0,0-2.2.35,6.47,6.47,0,0,0-1.9,1.16l-.14.12-.14,0a3,3,0,0,1-1.21-.82,8,8,0,0,1-.87-1.07,5.72,5.72,0,0,1-.65-1.22,2.68,2.68,0,0,1-.19-.7,1.11,1.11,0,0,1,.17-.79l.05-.06h.06a8,8,0,0,1,1.69-.18A13.25,13.25,0,0,1,23.29,98Z"/>
      <path class="cls-35" d="M10.06,97.35c.1.71.2,1.41.32,2.08a7,7,0,0,0,.26,1,5.73,5.73,0,0,0,.45.89c.7,1.2,1.45,2.39,2.05,3.69a18,18,0,0,1-2.57-3.39,5.2,5.2,0,0,1-.47-1,5.26,5.26,0,0,1-.18-1.1A8.54,8.54,0,0,1,10.06,97.35Z"/>
      <path class="cls-35" d="M13.22,95.09c.12.79.26,1.57.4,2.34a12,12,0,0,0,.61,2.21,15,15,0,0,0,1.14,2l1.31,2a11.81,11.81,0,0,1-1.69-1.7,9.06,9.06,0,0,1-1.31-2.05,7.49,7.49,0,0,1-.52-2.39A10.71,10.71,0,0,1,13.22,95.09Z"/>
      <path class="cls-12" d="M47.59,158.1c-6.18-.79-11.51-5.44-13.22-9.73a42.56,42.56,0,0,1-2.08-9.3c-.42-3.08-.77-6.6-1.12-10.49,2.92,1.31,8,2.39,12.56-2.9,1.07,3.08,2.11,6.14,3.1,9,2,5.7,3.68,10.65,4.8,13.57,1.77,4.65,2.14,10.65-4,9.85"/>
      <path class="cls-13" d="M46.83,134.68c-4.11,4.52-10.38,4.81-14.54,4.39-.42-3.08-.77-6.6-1.12-10.49,2.92,1.31,8,2.39,12.56-2.9,1.07,3.08,2.11,6.14,3.1,9"/>
      <path class="cls-14" d="M32.78,142.16c.06.39.13.77.2,1.14-.07-.37-.14-.75-.2-1.14"/>
      <path class="cls-36" d="M46.84,134.68h0c1.67,4.87,3.17,9.2,4.27,12.18-.06-.15-.11-.3-.17-.46-1.08-3-2.51-7.09-4.1-11.72h0"/>
      <path class="cls-36" d="M51.16,147c.17.44.32.85.47,1.23a18.93,18.93,0,0,1,.91,3.21h0a18.44,18.44,0,0,0-.86-3.07v0l0-.06,0-.06c-.15-.38-.3-.79-.47-1.23"/>
      <path class="cls-36" d="M44.26,157.29h0l.84.28-.83-.28"/>
      <path class="cls-14" d="M46.83,134.68a5,5,0,0,1-.39.41h0l0,0h0l0,0h0l0,0h0l0,0v0l0,0v0h0l0,0h0l0,0h0a13.2,13.2,0,0,1-4.76,2.83c.46,1.21.92,2.45,1.37,3.72,2.89,8.09,3.27,12.93,1.5,15.36l.83.28c.39.11.8.22,1.21.31a37.22,37.22,0,0,0,3.09-2.9c.83-.92,1.94-2.23,3.15-3.52a18.93,18.93,0,0,0-.91-3.21c-.15-.38-.3-.79-.47-1.23h0l0-.12v0h0c-1.1-3-2.6-7.31-4.28-12.18"/>
      <path class="cls-15" d="M46.18,135.35l0,0,0,0m0,0,0,0,0,0m0,0v0m0,0v0m0,0h0m0,0h0m0,0h0m0,0h0m-8.63-5.63h0c1.18,2.68,2.39,5.62,3.58,8.75h0a13.2,13.2,0,0,0,4.76-2.83,13.2,13.2,0,0,1-4.76,2.83c-1.19-3.13-2.4-6.07-3.58-8.75"/>
      <path class="cls-37" d="M43.73,125.68h0c1.07,3.08,2.11,6.14,3.1,9h0c-1-2.87-2-5.92-3.11-9h0"/>
      <path class="cls-38" d="M43.46,126a10.51,10.51,0,0,1-5.65,3.46h0A10.53,10.53,0,0,0,43.46,126m0,0h0"/>
      <path class="cls-25" d="M46.15,135.38h0m0,0h0m.05,0h0m0,0,0,0,0,0m0,0,0,0,0,0m0,0,0,0,0,0m0,0,0,0,0,0m0,0,0,0,0,0m.39-.41a5,5,0,0,1-.39.41,5,5,0,0,0,.39-.41h0"/>
      <path class="cls-26" d="M43.73,125.68l-.24.27h0l0,0a10.53,10.53,0,0,1-5.65,3.47c1.18,2.68,2.39,5.62,3.58,8.75a13.2,13.2,0,0,0,4.76-2.83h0l0,0h0l0,0h0v0l0,0v0l0,0h0l0,0h0l0,0h0l0,0h0a5,5,0,0,0,.39-.41h0c-1-2.86-2-5.92-3.1-9"/>
      <path class="cls-39" d="M77.91,145.25s.53,9.3.83,13.15c-8.69-.55-16.46-.85-17.38-.63s-4.2,3.36-5.94,5a9.26,9.26,0,0,1-6.21,2.83c-4.1,1.84-7.16,3.06-9,2.6s-.24-1.31.67-2.08c-2.78,1-2.78-.4-.09-3.21s6.8-5.88,8.6-7.9,5-5.83,7.5-7.43,4.18-2.16,10.7-2.16,10.32-.14,10.32-.14"/>
      <path class="cls-34" d="M77.92,145.25h0s.16,2.68.34,5.76c-.18-3.08-.33-5.76-.33-5.76"/>
      <path class="cls-28" d="M72.92,158.06h0c1.84.1,3.81.21,5.82.34h0c-2-.13-4-.24-5.82-.34"/>
      <path class="cls-25" d="M54.17,163.79a9.82,9.82,0,0,1-1.23.78h0a8.79,8.79,0,0,0,1.23-.78"/>
      <polyline class="cls-40" points="52.94 164.57 52.94 164.57 52.94 164.57 52.94 164.57 52.94 164.57"/>
      <path class="cls-34" d="M47.67,166.25a22.62,22.62,0,0,1-6.12,2,22.62,22.62,0,0,0,6.12-2m5.27-1.68c-.17.09-.33.17-.5.24.17-.07.33-.15.5-.24h0"/>
      <path class="cls-41" d="M40.88,166.09c1.3-.94,2.62-1.78,3.93-2.65s2.6-1.74,3.86-2.72a13.22,13.22,0,0,1-3.53,3.22A19.14,19.14,0,0,1,40.88,166.09Z"/>
      <path class="cls-42" d="M77.91,145.25c2.14-.48,4.27-1,6.39-1.57s4.24-1.11,6.35-1.7l.79-.22c.26-.08.5-.18.76-.27l.75-.28.7-.39a7.63,7.63,0,0,0,1.33-.91,9.43,9.43,0,0,0,1.17-1.11,17.7,17.7,0,0,0,3.22-5.59c.8-2,1.38-4.14,2.07-6.23.16-.52.37-1,.58-1.56l.39-.75c.12-.24.25-.46.36-.71a18.64,18.64,0,0,0,.87-3.12,29.92,29.92,0,0,1,1.79-6.34,13.49,13.49,0,0,1,4.07-5.12,13.32,13.32,0,0,0-3.86,5.21,30.14,30.14,0,0,0-1.65,6.32,16.53,16.53,0,0,1-.85,3.21c-.11.26-.25.51-.38.76l-.36.71c-.2.5-.4,1-.56,1.52-.67,2.08-1.23,4.21-2,6.27a17.87,17.87,0,0,1-3.34,5.71,9.41,9.41,0,0,1-1.22,1.14,7.71,7.71,0,0,1-1.39.94l-.73.4-.79.29-.79.27-.8.2C86.5,143.44,82.22,144.44,77.91,145.25Z"/>
      <path class="cls-43" d="M46.84,134.68c.59,1.34,1.13,2.7,1.67,4.07s1,2.74,1.55,4.11,1,2.76,1.44,4.15.92,2.79,1.26,4.22l-1.6-4.1L49.62,143c-.48-1.38-1-2.76-1.45-4.15S47.25,136.09,46.84,134.68Z"/>
      <path class="cls-44" d="M55.86,63.63s2.35,17.4-.92,30.43-6.33,19.31-4.7,35.25,2.25,15.33,3.07,24.83,5.52,16.86,4.9,21.46-1.22,13-.4,14.87S60.05,192,60.05,192a115.61,115.61,0,0,0,1-18.7c-.41-8.74-.62-21.92-2.66-34.64s-2.45-14.41-.21-24.52,8.59-26.83,5.52-38.78-7.87-11.73-7.87-11.73"/>
      <path class="cls-45" d="M61.34,82.17c.66,2.1.4,4-.59,4.2s-2.32-1.3-3-3.41-.4-4,.59-4.2,2.32,1.31,3,3.41"/>
      <path class="cls-45" d="M62.69,88.07c-.86.81-1.87,1.24-2.25,1s0-1.18.87-2,1.86-1.24,2.24-1S63.55,87.26,62.69,88.07Z"/>
      <path class="cls-45" d="M59.72,100.88c-.86.81-1.87,1.24-2.25,1s0-1.17.87-2,1.86-1.24,2.24-1S60.58,100.07,59.72,100.88Z"/>
      <path class="cls-45" d="M57.28,108.33c-1.36,1.28-2.94,2-3.55,1.5s0-1.85,1.37-3.13,2.95-2,3.55-1.5S58.64,107.05,57.28,108.33Z"/>
      <path class="cls-45" d="M54.82,127.92c-1.36,1.28-3,2-3.55,1.5s0-1.85,1.37-3.13,2.94-2,3.54-1.51S56.17,126.64,54.82,127.92Z"/>
      <path class="cls-45" d="M56.93,146.07c-.81.76-1.76,1.16-2.11.89s0-1.1.81-1.86,1.75-1.17,2.11-.9S57.74,145.3,56.93,146.07Z"/>
      <path class="cls-45" d="M59.48,165.06c-.81.76-1.75,1.17-2.11.9s0-1.11.81-1.87,1.76-1.16,2.11-.89S60.29,164.3,59.48,165.06Z"/>
      <path class="cls-45" d="M59.3,161.07c-.8.76-1.75,1.16-2.11.9s0-1.11.82-1.87,1.75-1.16,2.11-.9S60.11,160.31,59.3,161.07Z"/>
      <path class="cls-45" d="M56.87,157.21c.57.91.69,1.79.26,2s-1.23-.39-1.79-1.29-.69-1.79-.27-2S56.3,156.31,56.87,157.21Z"/>
      <path class="cls-45" d="M60.17,92c.55,1.73.33,3.29-.48,3.47s-1.92-1.08-2.47-2.82-.32-3.29.49-3.47S59.63,90.26,60.17,92Z"/>
      <path class="cls-45" d="M54.5,115.17c.54,1.74.33,3.29-.49,3.47s-1.92-1.08-2.46-2.82-.33-3.29.49-3.47S54,113.43,54.5,115.17Z"/>
      <path class="cls-45" d="M54.39,133.18c.54,1.73.32,3.29-.49,3.47s-1.92-1.08-2.46-2.82-.33-3.29.48-3.47S53.84,131.44,54.39,133.18Z"/>
      <path class="cls-45" d="M55.36,140.43c.47,1.49.28,2.82-.42,3s-1.64-.92-2.11-2.41-.28-2.82.42-3S54.9,138.94,55.36,140.43Z"/>
      <path class="cls-45" d="M58.11,96.64c.39,1.24.23,2.35-.35,2.48s-1.38-.77-1.77-2-.23-2.36.35-2.49S57.72,95.39,58.11,96.64Z"/>
      <polygon class="cls-46" points="55.52 193.25 54.07 207.91 53.22 216.43 54.41 216.43 56.78 192.26 59.03 192.15 58.76 216.32 59.82 216.32 60.05 192 61.68 192 63.25 216.65 64.04 216.54 62.59 191.15 65.89 216.1 67.21 215.99 63.12 190.38 59.16 186.6 55.52 193.25"/>
      <path class="cls-47" d="M54.58,207.71A31.44,31.44,0,0,0,50,226.26l.7-.52.35,2.44.8-3.18.44,2.74.35-1.33,1.58,2.29-.53-4.07.8,1.7.26-2L56,227.15V223.6l1.06,2.66.08-2.59s1.41,3.92,1.32,3.63A38.38,38.38,0,0,0,54.58,207.71Z"/>
      <path class="cls-12" d="M59.69,207.71a31.41,31.41,0,0,0-4.58,18.55l.71-.52.35,2.44L57,225l.44,2.74.35-1.33,1.58,2.29-.52-4.07.79,1.7.26-2,1.23,2.81V223.6l1.06,2.66.09-2.59s1.41,3.92,1.32,3.63A38.64,38.64,0,0,0,59.69,207.71Z"/>
      <path class="cls-48" d="M64.61,207.71A31.44,31.44,0,0,0,60,226.26l.7-.52.35,2.44.8-3.18.44,2.74.35-1.33,1.58,2.29-.53-4.07.8,1.7.26-2L66,227.15V223.6l1.06,2.66.09-2.59s1.4,3.92,1.32,3.63A38.59,38.59,0,0,0,64.61,207.71Z"/>
      <path class="cls-42" d="M65.85,208a30.82,30.82,0,0,0-2.55,18.82l.65-.57.61,2.4.45-3.22.73,2.69.21-1.35,1.83,2.16-1-4,1,1.63,0-2,1.53,2.71L69,223.66l1.34,2.57-.19-2.58s1.83,3.79,1.71,3.51A39.35,39.35,0,0,0,65.85,208Z"/>
      <path class="cls-49" d="M55.52,193.25h0A1.53,1.53,0,0,1,54,191.66l1.72-13.6a1.67,1.67,0,0,1,1.88-1.28,1.54,1.54,0,0,1,1.53,1.59L57.41,192A1.67,1.67,0,0,1,55.52,193.25Z"/>
      <path class="cls-49" d="M58.34,181.36l-2.56-.22a1.27,1.27,0,0,1-1.26-1.32,1.39,1.39,0,0,1,1.56-1.06l2.56.23a1.27,1.27,0,0,1,1.26,1.31A1.37,1.37,0,0,1,58.34,181.36Z"/>
      <path class="cls-49" d="M58,184.28l-2.56-.22a1.27,1.27,0,0,1-1.26-1.31,1.37,1.37,0,0,1,1.56-1.06l2.56.22a1.27,1.27,0,0,1,1.26,1.32A1.37,1.37,0,0,1,58,184.28Z"/>
      <path class="cls-49" d="M57,191.73l-2.56-.23a1.27,1.27,0,0,1-1.26-1.31,1.37,1.37,0,0,1,1.56-1.06l2.56.23a1.26,1.26,0,0,1,1.26,1.31A1.38,1.38,0,0,1,57,191.73Z"/>
      <rect class="cls-46" x="57.75" y="176.74" width="3.43" height="16.56" rx="1.57"/>
      <path class="cls-46" d="M61,181.23H58a1.2,1.2,0,0,1,0-2.39h3a1.2,1.2,0,0,1,0,2.39Z"/>
      <path class="cls-46" d="M61,184.17H58a1.2,1.2,0,0,1,0-2.39h3a1.2,1.2,0,0,1,0,2.39Z"/>
      <path class="cls-46" d="M61,191.65H58a1.19,1.19,0,0,1,0-2.38h3a1.19,1.19,0,0,1,0,2.38Z"/>
      <path class="cls-49" d="M63.65,193.19h0a1.7,1.7,0,0,1-2-1.19L59,178.51a1.48,1.48,0,0,1,1.41-1.66,1.7,1.7,0,0,1,2,1.19l2.66,13.49A1.49,1.49,0,0,1,63.65,193.19Z"/>
      <path class="cls-49" d="M62.59,181.1l-2.54.36a1.43,1.43,0,0,1-1.63-1,1.24,1.24,0,0,1,1.17-1.38l2.54-.35a1.41,1.41,0,0,1,1.63,1A1.23,1.23,0,0,1,62.59,181.1Z"/>
      <path class="cls-49" d="M63.17,184l-2.54.35a1.4,1.4,0,0,1-1.63-1A1.23,1.23,0,0,1,60.16,182l2.54-.35a1.4,1.4,0,0,1,1.63,1A1.23,1.23,0,0,1,63.17,184Z"/>
      <path class="cls-49" d="M64.62,191.38l-2.54.36a1.41,1.41,0,0,1-1.63-1,1.23,1.23,0,0,1,1.17-1.37l2.54-.36a1.41,1.41,0,0,1,1.63,1A1.22,1.22,0,0,1,64.62,191.38Z"/>
      <path class="cls-46" d="M63.25,176.6a1.33,1.33,0,0,1-.49,1,1.85,1.85,0,0,1-1.19.41H56.09a1.56,1.56,0,0,1-1.68-1.41,1.3,1.3,0,0,1,.19-.67,1.55,1.55,0,0,1,.3-.33,1.85,1.85,0,0,1,1.19-.41h5.48a1.75,1.75,0,0,1,1.48.74A1.22,1.22,0,0,1,63.25,176.6Z"/>
      <path class="cls-49" d="M63.05,175.93a1.87,1.87,0,0,1-.29.34,1.9,1.9,0,0,1-1.19.41H56.09a1.75,1.75,0,0,1-1.49-.75,1.55,1.55,0,0,1,.3-.33,1.85,1.85,0,0,1,1.19-.41h5.48A1.75,1.75,0,0,1,63.05,175.93Z"/>
      <path class="cls-4" d="M58.21,72.1a5.63,5.63,0,0,1-4.37,1.17c-4.88-.88-8.1-8.87-6.63-11.33l.24-.36c2-2.64,6-1.08,6-1.08S65.32,67,58.21,72.1"/>
      <path class="cls-7" d="M49.27,65a1.46,1.46,0,0,0-.52.55C47.84,67.14,51.1,70,53.53,71A2.31,2.31,0,0,1,54,71,2.06,2.06,0,0,1,56.05,73a.61.61,0,0,1,0,.14l.37-.11A23.67,23.67,0,0,1,55,69.67l-.26-1.29c-.63-.54-1.22-1.08-1.84-1.57a10.67,10.67,0,0,0-1.76-1.22A5.48,5.48,0,0,0,49.27,65m.44-4.81a3.79,3.79,0,0,0-2.26,1.42c.73.07,2.45.49,4.29,2.83a5.15,5.15,0,0,1,1.57.69,34.49,34.49,0,0,1-3.6-4.94"/>
      <path class="cls-50" d="M56.52,69.82c-1.41-1-2.5-2.08-3.66-3a10.67,10.67,0,0,0-1.76-1.22,5.54,5.54,0,0,0-2.17-.66,3,3,0,0,1,2.57-.57,5.37,5.37,0,0,1,2.4,1.18,7.66,7.66,0,0,1,1.68,1.92,6.57,6.57,0,0,1,.94,2.36"/>
      <path class="cls-51" d="M57.19,84.28c-1.75.82-3.86.64-6.16-.08,0-.21,0-.42,0-.62.07-5.86,2.59-8.31,3-8.66l0,0C57.93,77.76,57.19,84.28,57.19,84.28Z"/>
      <path class="cls-52" d="M56.11,83.36a7.61,7.61,0,0,1-5.09.22c0-.53,0-1,.08-1.5a11.63,11.63,0,0,1,2.42-6.65,4.35,4.35,0,0,1,.48-.51C56.71,78.08,56.11,83.36,56.11,83.36Z"/>
      <path class="cls-53" d="M54.29,81.56a6.41,6.41,0,0,1-3.19.52,11.63,11.63,0,0,1,2.42-6.65A14.69,14.69,0,0,1,54.29,81.56Z"/>
      <path class="cls-54" d="M52.22,84.9a.87.87,0,0,1-1.74.06h0a.87.87,0,0,1,.84-.89h.18A.89.89,0,0,1,52.22,84.9Z"/>
      <path class="cls-3" d="M51.93,84.71a.74.74,0,0,1-1.45.24.87.87,0,0,1,.84-.89h.18A.72.72,0,0,1,51.93,84.71Z"/>
      <path class="cls-54" d="M53.71,85.12a.87.87,0,0,1-1.74,0h0a.88.88,0,0,1,.84-.89H53A.88.88,0,0,1,53.71,85.12Z"/>
      <path class="cls-3" d="M53.42,84.93a.74.74,0,0,1-1.45.23.88.88,0,0,1,.84-.89H53A.74.74,0,0,1,53.42,84.93Z"/>
      <path class="cls-54" d="M55.31,85.27a.86.86,0,0,1-.84.89.87.87,0,0,1-.9-.83v0a.87.87,0,0,1,.84-.88h.18A.87.87,0,0,1,55.31,85.27Z"/>
      <path class="cls-3" d="M55,85.08a.74.74,0,0,1-1.45.23.87.87,0,0,1,.84-.88h.18A.72.72,0,0,1,55,85.08Z"/>
      <path class="cls-54" d="M56.8,85.17a.87.87,0,0,1-.85.89.85.85,0,0,1-.89-.83h0a.87.87,0,0,1,.85-.89h.18A.89.89,0,0,1,56.8,85.17Z"/>
      <path class="cls-3" d="M56.51,85a.75.75,0,0,1-.72.77.76.76,0,0,1-.74-.53.87.87,0,0,1,.85-.89h.18A.75.75,0,0,1,56.51,85Z"/>
      <path class="cls-54" d="M58.32,84.71a.88.88,0,0,1-1.75.06h0a.87.87,0,0,1,.85-.89h.18A.89.89,0,0,1,58.32,84.71Z"/>
      <path class="cls-3" d="M58,84.52a.75.75,0,0,1-.72.77.76.76,0,0,1-.74-.53.87.87,0,0,1,.85-.89h.18A.73.73,0,0,1,58,84.52Z"/>
      <path class="cls-51" d="M56.05,73A2.06,2.06,0,1,1,54,71,2.06,2.06,0,0,1,56.05,73"/>
      <path class="cls-52" d="M55.85,73A1.87,1.87,0,1,1,54,71.15,1.87,1.87,0,0,1,55.85,73"/>
      <path class="cls-53" d="M54.94,72.7a1.17,1.17,0,1,1-1.17-1.07A1.12,1.12,0,0,1,54.94,72.7Z"/>
      <path class="cls-4" d="M95.61,72.1A5.61,5.61,0,0,0,100,73.27c4.89-.88,8.11-8.87,6.63-11.33-.07-.13-.15-.24-.23-.36-2-2.64-6-1.08-6-1.08S88.5,67,95.61,72.1"/>
      <path class="cls-7" d="M97.77,72.87l-.12.26.12,0v-.29m6.78-7.9a5.48,5.48,0,0,0-1.83.62A11.19,11.19,0,0,0,101,66.81c-.48.39-1,.81-1.45,1.23l0,.75c-.33,1-.69,1.88-1.07,2.76A2,2,0,0,1,99.83,71a2.31,2.31,0,0,1,.46.05c2.43-1,5.69-3.87,4.78-5.49a1.54,1.54,0,0,0-.52-.55M102.93,60c-.26,0-.52,0-.76,0a45.83,45.83,0,0,1-2.46,4l-.09,1.72.3-.25a5.39,5.39,0,0,1,2.16-1.13c1.83-2.34,3.55-2.76,4.29-2.83A4.12,4.12,0,0,0,102.93,60"/>
      <path class="cls-50" d="M97.3,69.82a6.55,6.55,0,0,1,.93-2.36,7.71,7.71,0,0,1,1.69-1.92,5.33,5.33,0,0,1,2.39-1.18,3.05,3.05,0,0,1,2.58.57,5.44,5.44,0,0,0-2.17.66A11.19,11.19,0,0,0,101,66.81c-1.16.93-2.25,2-3.65,3"/>
      <path class="cls-51" d="M96.63,84.28c1.75.82,3.86.64,6.16-.08,0-.21,0-.42,0-.62-.06-5.86-2.58-8.31-3-8.66l-.06,0C95.89,77.76,96.63,84.28,96.63,84.28Z"/>
      <path class="cls-52" d="M97.7,83.36a7.62,7.62,0,0,0,5.09.22c0-.53,0-1-.07-1.5a11.7,11.7,0,0,0-2.42-6.65,5.46,5.46,0,0,0-.48-.51C97.11,78.08,97.7,83.36,97.7,83.36Z"/>
      <path class="cls-53" d="M99.53,81.56a6.37,6.37,0,0,0,3.19.52,11.7,11.7,0,0,0-2.42-6.65A14.69,14.69,0,0,0,99.53,81.56Z"/>
      <path class="cls-54" d="M101.6,84.9a.87.87,0,0,0,1.74.06h0a.87.87,0,0,0-.84-.89h-.18A.87.87,0,0,0,101.6,84.9Z"/>
      <path class="cls-3" d="M101.89,84.71a.74.74,0,0,0,.71.77.75.75,0,0,0,.74-.53.87.87,0,0,0-.84-.89h-.18A.72.72,0,0,0,101.89,84.71Z"/>
      <path class="cls-54" d="M100.1,85.12A.88.88,0,0,0,101,86a.86.86,0,0,0,.89-.84h0a.86.86,0,0,0-.84-.89h-.18A.9.9,0,0,0,100.1,85.12Z"/>
      <path class="cls-3" d="M100.39,84.93a.75.75,0,0,0,.72.77.73.73,0,0,0,.73-.54.86.86,0,0,0-.84-.89h-.18A.76.76,0,0,0,100.39,84.93Z"/>
      <path class="cls-54" d="M98.5,85.27a.87.87,0,0,0,1.74.06v0a.85.85,0,0,0-.84-.88h-.18A.89.89,0,0,0,98.5,85.27Z"/>
      <path class="cls-3" d="M98.79,85.08a.75.75,0,0,0,.72.77.73.73,0,0,0,.73-.54.85.85,0,0,0-.84-.88h-.18A.73.73,0,0,0,98.79,85.08Z"/>
      <path class="cls-54" d="M97,85.17a.87.87,0,0,0,1.74.06h0a.87.87,0,0,0-.84-.89h-.18A.87.87,0,0,0,97,85.17Z"/>
      <path class="cls-3" d="M97.31,85a.74.74,0,0,0,1.45.24.87.87,0,0,0-.84-.89h-.18A.73.73,0,0,0,97.31,85Z"/>
      <path class="cls-54" d="M95.5,84.71a.87.87,0,0,0,1.74.06h0a.87.87,0,0,0-.84-.89h-.18A.87.87,0,0,0,95.5,84.71Z"/>
      <path class="cls-3" d="M95.79,84.52a.74.74,0,0,0,1.45.24.87.87,0,0,0-.84-.89h-.18A.72.72,0,0,0,95.79,84.52Z"/>
      <path class="cls-51" d="M97.77,73A2.06,2.06,0,1,0,99.83,71,2.06,2.06,0,0,0,97.77,73"/>
      <path class="cls-52" d="M98,73a1.87,1.87,0,1,0,1.87-1.87A1.87,1.87,0,0,0,98,73"/>
      <path class="cls-53" d="M98.88,72.7a1.17,1.17,0,1,0,1.17-1.07A1.12,1.12,0,0,0,98.88,72.7Z"/>
      <path class="cls-55" d="M55,66.73c-.72-.36-10-9.71-9.79-22.11S47.52,22.28,63,15.91s23.61-4.43,31.23,2.65,12.3,17,12.3,27.08-7.94,20-7.94,20L55,66.73"/>
      <g class="cls-56">
        <rect class="cls-7" x="60.62" y="52.05" width="7.95" height="12.69"/>
      </g>
      <path class="cls-57" d="M67.17,59.79c.14,2.32-.86,4.28-2.24,4.4s-2.6-1.67-2.74-4,.87-4.28,2.25-4.39S67,57.48,67.17,59.79Z"/>
      <path class="cls-3" d="M64.28,58.53c0,.73-.27,1.34-.71,1.38s-.81-.53-.86-1.25.28-1.35.71-1.38S64.23,57.8,64.28,58.53Z"/>
      <path class="cls-3" d="M64.91,60.19c0,.37-.14.68-.36.7s-.41-.27-.44-.64.14-.68.36-.7S64.88,59.82,64.91,60.19Z"/>
      <path class="cls-7" d="M88.27,52.12c-1.92,0-3.66,2.46-4,5.7-.33,3.41,1,6.4,3.08,6.67l.29,0c1.91,0,3.66-2.46,4-5.7.32-3.41-1-6.4-3.08-6.67l-.29,0"/>
      <path class="cls-57" d="M90.24,60.2C90,62.46,88.77,64.14,87.43,64s-2.25-2.15-2-4.41,1.48-3.93,2.82-3.75S90.46,58,90.24,60.2Z"/>
      <path class="cls-3" d="M87.65,58.38c-.07.71-.46,1.24-.88,1.18s-.71-.67-.64-1.38.46-1.24.88-1.18S87.72,57.67,87.65,58.38Z"/>
      <path class="cls-3" d="M88,60.11c0,.36-.23.62-.44.6s-.36-.35-.33-.7.24-.63.45-.6S88,59.75,88,60.11Z"/>
      <path class="cls-50" d="M64.61,71.58a9.46,9.46,0,0,1-.67,1.09c-.11.12-.2.24-.32.39s-.25.32-.46.56a1,1,0,0,1-.33-.77A1.27,1.27,0,0,1,63.1,72a1.42,1.42,0,0,1,.68-.48,1.14,1.14,0,0,1,.83,0"/>
      <path class="cls-50" d="M89.9,71.58a1.14,1.14,0,0,1,.83,0,1.42,1.42,0,0,1,.68.48,1.33,1.33,0,0,1,.28.82,1.05,1.05,0,0,1-.34.77c-.21-.24-.33-.42-.46-.56s-.21-.27-.32-.39A9.46,9.46,0,0,1,89.9,71.58Z"/>
      <path class="cls-3" d="M85,74.22a12.14,12.14,0,0,1-8.7,3.48,10.38,10.38,0,0,1-8.39-3.8A35.11,35.11,0,0,0,85,74.22Z"/>
      <path class="cls-58" d="M71.38,74.12s4-4.44,11.15,0C82.53,74.12,74.49,75.3,71.38,74.12Z"/>
      <path class="cls-58" d="M81.05,81.47c0,.79-2,1.43-4.37,1.43s-4.36-.64-4.36-1.43,2-1.43,4.36-1.43,4.37.64,4.37,1.43"/>
      <path class="cls-59" d="M72.46,66.91a6.85,6.85,0,0,1,8.4.36S76.52,70.81,72.46,66.91Z"/>
      <polygon class="cls-50" points="79.9 63.98 81.17 67.18 81.26 67.42 80.98 67.57 76.89 69.62 76.63 69.76 76.36 69.63 72.09 67.53 71.81 67.39 71.92 67.15 73.26 64.24 72.48 67.35 72.31 66.97 76.89 68.23 76.35 68.23 80.74 66.97 80.55 67.36 79.9 63.98"/>
      <path class="cls-55" d="M84.28,44.68c-1,1.9-.5,3-.5,3a23.83,23.83,0,0,1,4,1.11l.33.12.23.09a17,17,0,0,1,2.76,1.42,4.1,4.1,0,0,1,.46.31c.16.1.31.21.44.31a7.78,7.78,0,0,1,1.4,1.29A9.15,9.15,0,0,0,93,50.23l-.24-.59c-.09-.18-.18-.36-.27-.52a7.5,7.5,0,0,0-1.93-2.25,3.92,3.92,0,0,0-.32-.25l-.33-.22A11.76,11.76,0,0,0,84.28,44.68Z"/>
      <path class="cls-45" d="M92.72,49.64a6.7,6.7,0,0,0-1.11,1.08c.16.1.31.21.44.31a5.86,5.86,0,0,1,.91-.8Z"/>
      <path class="cls-45" d="M90.52,46.87A6.34,6.34,0,0,0,88.39,49a17,17,0,0,1,2.76,1.42,7.49,7.49,0,0,1,1.3-1.29A7.5,7.5,0,0,0,90.52,46.87Z"/>
      <path class="cls-45" d="M87.83,48.78l.33.12a8.11,8.11,0,0,1,2-2.28l-.33-.22A8,8,0,0,0,87.83,48.78Z"/>
      <path class="cls-55" d="M67.72,44.84c1,2,.34,3.07.34,3.07a24.93,24.93,0,0,0-4.18.92l-.34.1L63.3,49a16.86,16.86,0,0,0-2.9,1.29c-.17.09-.34.19-.49.29l-.46.29A7.92,7.92,0,0,0,58,52.13a10,10,0,0,1,.61-2.1c.09-.2.19-.4.29-.59a5.39,5.39,0,0,1,.3-.52,7.81,7.81,0,0,1,2.08-2.19l.35-.23c.11-.08.23-.15.35-.22A12,12,0,0,1,67.72,44.84Z"/>
      <path class="cls-45" d="M58.85,49.44a7.18,7.18,0,0,1,1.06,1.16l-.46.29a5.92,5.92,0,0,0-.89-.86C58.65,49.83,58.75,49.63,58.85,49.44Z"/>
      <path class="cls-45" d="M61.23,46.73A6.33,6.33,0,0,1,63.3,49a16.86,16.86,0,0,0-2.9,1.29,7.57,7.57,0,0,0-1.25-1.39A7.81,7.81,0,0,1,61.23,46.73Z"/>
      <path class="cls-45" d="M63.88,48.83l-.34.1a8.25,8.25,0,0,0-2-2.43c.11-.08.23-.15.35-.22A8.41,8.41,0,0,1,63.88,48.83Z"/>
      <path class="cls-45" d="M84.17,32.88s-5.22-5.8-16.38-2-18.27,23-18.27,23S57.79,9,80.11,26.07c0,0-4.21-10.44-17.11-4.78s-13.62,25.8-13.62,25.8S47.52,17.87,67.06,17.37C84.17,16.94,84.17,32.88,84.17,32.88Z"/>
      <path class="cls-45" d="M90,37.09s11.21,3.18,13.14,18c0,0,3.57-12.37-6.09-19,0,0,5,1.94,7,5.7,0,0,.19-21-20.68-19.23,0,0,12,3.29,15.94,11.21a15.61,15.61,0,0,0-10.72-4.83s4.73,2,7.15,5.22l-4.54-1.55s5.5,4,7.05,7.35A12.61,12.61,0,0,0,90,37.09Z"/>
      <path class="cls-45" d="M81.85,20s7.68-3,13.77,2.18C95.62,22.16,88.52,10.27,81.85,20Z"/>
      <path class="cls-13" d="M29,119.53a2.86,2.86,0,0,1-1.3-1.25h0c-1-1.59-1.39-4.24-.07-6a4,4,0,0,1,1.18-1l.24.54s5.83,1.58,9.13-1.59L37.67,109s4-.4,4.82,6.07S30.94,120.32,29,119.53"/>
      <path class="cls-15" d="M37.8,109h-.13l.46,1.19h0a8.29,8.29,0,0,1-5.82,2,14.13,14.13,0,0,1-3.31-.39l-.24-.54a4,4,0,0,0-1.18,1,12.27,12.27,0,0,0,5,.77c.68,0,1.43,0,2.27-.08l.7,0c2.83,0,2.93,1.34,1.42,2.68a13.18,13.18,0,0,1-8.22,2.67c-.35,0-.71,0-1.07,0a2.86,2.86,0,0,0,1.3,1.25,18.19,18.19,0,0,0,5.33.66c3.84,0,8.24-.92,8.24-4.46,0-.2,0-.41,0-.62-.77-5.76-4-6.07-4.69-6.07"/>
      <path class="cls-13" d="M72.75,158.43a3.77,3.77,0,0,1-1.8,1.49h0c-2.2,1-5.69,1.22-7.77-.7A4.8,4.8,0,0,1,62,157.59l.73-.24s2.8-7.21-.9-11.84l-1.6.43s0-5.1,8.51-5.34,5.29,15.41,4,17.83"/>
      <path class="cls-15" d="M68.94,140.6h-.2l-.65,0c-3.72.22-5.68,1.43-6.71,2.63a4.47,4.47,0,0,0-1.15,2.68h0l1.6-.43a9.63,9.63,0,0,1,1.91,6.14,17.64,17.64,0,0,1-1,5.7l-.73.24a4.8,4.8,0,0,0,1.18,1.64c.8-1.34,1.66-4,1.83-9.15.09-2.67.8-3.8,1.7-3.8,2.18,0,5.52,6.5,4.24,13.64a3.77,3.77,0,0,0,1.8-1.49A26.22,26.22,0,0,0,74.43,149a17,17,0,0,0-.33-3.48,1.16,1.16,0,0,0,0-.18,7.72,7.72,0,0,0-1.2-2.83,3.92,3.92,0,0,0-.25-.32,4.44,4.44,0,0,0-1.28-1,5,5,0,0,0-2.39-.55"/>
      <g>
        <path class="cls-44" d="M110.34,47.08c0,18.37-14.48,30.05-32.54,30.05S45.1,62.23,45.1,43.87,54.57,9.92,78.36,9.92C103.31,9.92,110.34,28.71,110.34,47.08Z"/>
        <g>
          <path class="cls-60" d="M52.77,61.72c-1.3-1.75-3-3.43-5-3.11s-3,2.2-2.59,5.44,1.1,4.93,3.56,6.87,3.76,2.92,6.35,1.17C55.55,68.52,53.41,62.89,52.77,61.72Z"/>
          <path class="cls-61" d="M53.5,70.75a7.69,7.69,0,0,1-.84-.49,3.19,3.19,0,0,1-1.18-1.44A3,3,0,0,1,51.3,67a3.44,3.44,0,0,1,.38-1,1.74,1.74,0,0,1,.11-.18l-.06-.11c-.11-.22-.23-.43-.35-.65a13.52,13.52,0,0,0-1.26-1.74A4.06,4.06,0,0,0,48.39,62a1.35,1.35,0,0,0-1.11.13.93.93,0,0,0-.51.92.9.9,0,0,1,.59-.78,1.21,1.21,0,0,1,1,0,4.26,4.26,0,0,1,1.55,1.33c.46.53.89,1.08,1.3,1.66.15.22.3.44.44.67a2.89,2.89,0,0,0-.55,1,3.11,3.11,0,0,0,.11,2,3.22,3.22,0,0,0,1.36,1.53,6.35,6.35,0,0,0,.92.42,1.54,1.54,0,0,0,1,.1A1.61,1.61,0,0,1,53.5,70.75Zm-5.68-3.32a3.87,3.87,0,0,1-.37-2,14.21,14.21,0,0,1,.31-2.13,7.93,7.93,0,0,0-.57,2.11,3.9,3.9,0,0,0,.32,2.2,4.3,4.3,0,0,0,1.54,1.6,10.19,10.19,0,0,0,2,.93A20.91,20.91,0,0,1,49.2,69,4.35,4.35,0,0,1,47.82,67.43Z"/>
        </g>
        <g>
          <path class="cls-60" d="M102.37,61.83c1.32-1.78,3-3.49,5.06-3.16s3,2.24,2.63,5.52-1.12,5-3.61,7-3.82,3-6.45,1.18C99.54,68.73,101.71,63,102.37,61.83Z"/>
          <path class="cls-61" d="M100.69,71.24a1.45,1.45,0,0,0,1-.1,5.58,5.58,0,0,0,.93-.43A3.21,3.21,0,0,0,104,69.16a3.1,3.1,0,0,0,.11-2.06,2.9,2.9,0,0,0-.55-1.06c.14-.23.29-.46.44-.68.41-.59.86-1.15,1.32-1.69a4.35,4.35,0,0,1,1.57-1.34,1.25,1.25,0,0,1,1,0,1,1,0,0,1,.6.79,1,1,0,0,0-.52-.93,1.4,1.4,0,0,0-1.13-.13,4.1,4.1,0,0,0-1.75,1.37,13.3,13.3,0,0,0-1.28,1.77q-.18.32-.36.66l-.06.11a1.74,1.74,0,0,1,.11.18,3.25,3.25,0,0,1,.39,1,3.14,3.14,0,0,1-.18,1.87,3.22,3.22,0,0,1-1.2,1.46,9,9,0,0,1-.85.5A1.66,1.66,0,0,1,100.69,71.24Zm5.3-2a21.61,21.61,0,0,1-1.86,1.16,10,10,0,0,0,2-.94,4.29,4.29,0,0,0,1.56-1.63,3.91,3.91,0,0,0,.33-2.23,9,9,0,0,0-.57-2.14,16.05,16.05,0,0,1,.31,2.16,4.07,4.07,0,0,1-.38,2.05A4.47,4.47,0,0,1,106,69.19Z"/>
        </g>
        <g>
          <path class="cls-60" d="M103.87,52.06c0,.23,2.33.48,2.3.71A154.18,154.18,0,0,1,102.75,72,14.94,14.94,0,0,1,101,76.14a17,17,0,0,1-4.89,5,57.55,57.55,0,0,1-8.71,4.71,44.32,44.32,0,0,1-4.42,1.7,16.66,16.66,0,0,1-4.81.93,18.77,18.77,0,0,1-5.42-1,70.58,70.58,0,0,1-11-4.84c-3.51-1.83-7.77-5.75-8.77-9.93a194.55,194.55,0,0,1-3.75-19.52c-.35-2.64,1.91-3.67,4.08-11.49C56.15,31.17,60.15,27,76.7,27,105.57,27,104.79,44,103.87,52.06Z"/>
          <path class="cls-62" d="M50.93,63.65s2.73-17.71,8.61-22.51,6.73-7.88,6.73-7.88A18.17,18.17,0,0,0,78,46.06l-.44-5.38a13.14,13.14,0,0,0,6,5.38l-1-6.79a104.69,104.69,0,0,1,15.11,7.31c7.33,4.39,7,18.88,7,18.88l-3-30L76.7,25l-15.94-.62L50,39.27l1.68,11.58Z"/>
        </g>
        <g>
          <ellipse class="cls-63" cx="89.95" cy="57.97" rx="5.27" ry="5.58"/>
          <ellipse class="cls-64" cx="90.03" cy="57.91" rx="3.53" ry="3.74"/>
          <ellipse class="cls-3" cx="91.68" cy="54.91" rx="0.97" ry="1.02"/>
        </g>
        <g>
          <ellipse class="cls-63" cx="64.82" cy="58.98" rx="5.27" ry="5.58"/>
          <ellipse class="cls-64" cx="64.94" cy="58.98" rx="3.48" ry="3.68"/>
          <ellipse class="cls-3" cx="66.54" cy="55.91" rx="0.97" ry="1.02"/>
        </g>
        <path class="cls-65" d="M73.91,66.49a18.9,18.9,0,0,0,1.79.76,7.77,7.77,0,0,0,1.49.38,6.17,6.17,0,0,0,3.29-.5,2.68,2.68,0,0,1-1.19,1.94,3.35,3.35,0,0,1-2.37.54A3.4,3.4,0,0,1,73.91,66.49Z"/>
        <g>
          <path class="cls-62" d="M68.18,71.49c-.4-.16-.87-.81-1.24-1A3,3,0,0,0,65.72,70c-.56-.05-1.24.15-1.36.66s.24.8.59,1.06a3.66,3.66,0,0,0,2.16.67,1.11,1.11,0,0,0,.89-.35c.18-.26,0-.71-.36-.66Z"/>
          <path class="cls-62" d="M86.26,72.62c.26-.29.68-1.09,1-1.3A1.59,1.59,0,0,1,88,71a1.21,1.21,0,0,1,1.22.78,1.47,1.47,0,0,1-.31,1.4,2.79,2.79,0,0,1-1.32.8,2.09,2.09,0,0,1-1,.09.89.89,0,0,1-.73-.65.88.88,0,0,1,.45-.84,3.16,3.16,0,0,1,1-.33Z"/>
          <g>
            <path class="cls-66" d="M88,72.19a10.48,10.48,0,0,1-.45,1c-1,2-3.37,5.7-6.38,7.08a8.4,8.4,0,0,1-7-.13c-2.88-1.35-4.18-3-5.83-5.67-.54-.88-1.11-1.88-1.79-3,0,0-.16-.21.11-.22a1.34,1.34,0,0,1,.45.07c1.61.45,5.72,2.73,12.07,2.42A22.12,22.12,0,0,0,87.72,72a.2.2,0,0,1,.28.1A.17.17,0,0,1,88,72.19Z"/>
            <path class="cls-67" d="M87.56,73.23c-1,2-3.37,5.7-6.38,7.08a8.4,8.4,0,0,1-7-.13c-2.88-1.35-4.18-3-5.83-5.67,1.92,2.12,5.16,4.9,9.1,5.17C82.83,80.05,86.51,74.91,87.56,73.23Z"/>
            <path class="cls-68" d="M88,72.07a20.73,20.73,0,0,1-11.06,2.58,17.93,17.93,0,0,1-10.27-3.38,1.34,1.34,0,0,1,.45.07c1.61.45,5.72,2.73,12.07,2.42A22.12,22.12,0,0,0,87.72,72,.2.2,0,0,1,88,72.07Z"/>
            <path class="cls-69" d="M69.06,72.5c.12,0,7,4.16,16.33.78,0,0-1.35,3.09-7,3.38A10.47,10.47,0,0,1,69.06,72.5Z"/>
            <path class="cls-70" d="M77.47,79.6a7.19,7.19,0,0,1-3.65-1c1.18-1.16,2.7-.31,4-.68,2.68-.77,3.6.19,4,.72A6.89,6.89,0,0,1,77.47,79.6Z"/>
          </g>
        </g>
        <path class="cls-64" d="M66.6,47.68s-5.26-.9-7.78,2.6a.18.18,0,0,1-.32-.09c.08-1.06.65-3.25,3.92-3.88C67.57,45.3,66.6,47.68,66.6,47.68Z"/>
        <path class="cls-64" d="M86.69,45.53s5.26-.89,7.78,2.6c.1.14.34.07.32-.09-.08-1.06-.65-3.24-3.92-3.88C85.72,43.15,86.69,45.53,86.69,45.53Z"/>
        <path class="cls-44" d="M103.22,36.47c-2.48-13.13-6.85-11.12-18.54-13.58-5.33-1.12-5.35-5-10.77-4.46-3.08.31-11.35-1.17-18.56,11.16-4.54,7.78-12,14.55-8.88,23.81,2.84,8.83,4.46,10.25,4.46,10.25l.23-1.3c.07-1,.16-2,.2-3C52.09,40.71,60.42,40.46,67,29.32a32.71,32.71,0,0,0,5.88,4c3.77,2.22,7.67,4.11,11.6,5.94s7.94,3.42,11.83,5.4c10,5.08,7.87,18.94,7.87,18.95-.06-.35,1.2-1.93,1.36-2.22a33.75,33.75,0,0,0,2.55-5C111,49.33,104.7,44.28,103.22,36.47Z"/>
        <path class="cls-44" d="M76.7,32.74a17.06,17.06,0,0,0,0,11,23.74,23.74,0,0,1-10-16.5"/>
        <path class="cls-44" d="M73.91,31.57s.16,4,8.64,12.47c0,0-3.14-5.59-1.35-11.3"/>
        <path class="cls-71" d="M48.62,59.65A39,39,0,0,1,46,52.09,44.75,44.75,0,0,1,44.78,44a7.15,7.15,0,0,1,.08-2.07c.16-.68.31-1.35.45-2a41.37,41.37,0,0,1,1-4.05,34,34,0,0,1,3.43-7.77,29.57,29.57,0,0,1,5.48-6.7,33.17,33.17,0,0,1,7.07-4.83A34.22,34.22,0,0,1,78.82,13a35.92,35.92,0,0,1,16.23,4.42A29.52,29.52,0,0,1,102,22.59a23.86,23.86,0,0,1,2.82,3.53l.6,1c.19.33.33.63.5.94.33.62.63,1.26.92,1.9a41,41,0,0,1,2.63,7.93c.3,1.35.55,2.71.73,4.08.08.68.2,1.36.31,2a8,8,0,0,1-.1,2.07,46,46,0,0,1-1.75,8,38.62,38.62,0,0,1-3.11,7.36,60.48,60.48,0,0,0-1.81-15,7.87,7.87,0,0,1-.36-1.76,14.72,14.72,0,0,0-.12-1.76c-.15-1.17-.36-2.32-.62-3.46a33.73,33.73,0,0,0-2.18-6.59c-.24-.52-.48-1-.75-1.55-.13-.24-.27-.52-.4-.74l-.39-.65a16.43,16.43,0,0,0-2-2.44,22.53,22.53,0,0,0-5.28-4A29.28,29.28,0,0,0,78.6,20a27.22,27.22,0,0,0-13.12,2.86,26.51,26.51,0,0,0-5.55,3.78,22.48,22.48,0,0,0-4.17,5.12A27.08,27.08,0,0,0,53,37.92c-.33,1.11-.62,2.23-.85,3.38A14.43,14.43,0,0,0,52,43.05a6.7,6.7,0,0,1-.44,1.72A68.59,68.59,0,0,0,48.62,59.65Z"/>
        <path class="cls-72" d="M51.84,70.86s2.14,4.47-.5,5.23-1.82-4.23-1.82-4.23.69,4.21,1.5,1.6Z"/>
        <path class="cls-72" d="M103.77,71.14s-2.15,4.47.49,5.23,1.82-4.23,1.82-4.23-.68,4.21-1.5,1.6Z"/>
      </g>
    </g>
  </g>
</svg>
