<svg xmlns="http://www.w3.org/2000/svg" width="234.13" height="216.26" viewBox="0 0 234.13 216.26">
  <defs>
    <style>
      .cls-1 {
        isolation: isolate;
      }

      .cls-2 {
        fill: #050505;
      }

      .cls-10, .cls-12, .cls-13, .cls-14, .cls-2, .cls-6 {
        opacity: 0.5;
      }

      .cls-3 {
        fill: #fff;
      }

      .cls-10, .cls-4, .cls-5 {
        fill: #819923;
      }

      .cls-4 {
        stroke: #4d5b10;
        stroke-width: 0.75px;
      }

      .cls-11, .cls-4 {
        stroke-miterlimit: 10;
      }

      .cls-5 {
        opacity: 0.3;
      }

      .cls-10, .cls-12, .cls-5, .cls-9 {
        mix-blend-mode: multiply;
      }

      .cls-6, .cls-7 {
        fill: #d2e877;
      }

      .cls-7 {
        opacity: 0.2;
      }

      .cls-8, .cls-9 {
        fill: #f1d197;
      }

      .cls-11 {
        fill: #a4d84e;
        stroke: #6c9321;
        stroke-width: 0.5px;
      }

      .cls-12 {
        fill: #95bf43;
      }

      .cls-13 {
        fill: #cef484;
      }
    </style>
  </defs>
  <g class="cls-1">
    <g id="Layer_1" data-name="Layer 1">
      <g>
        <path class="cls-2" d="M185.08,214.91a14.11,14.11,0,0,1-1.9-.13,15,15,0,0,1-4.53-1.38l-.14-.06a17.19,17.19,0,0,1-1.77-1l-.25-.16c-.53-.36-1-.73-1.49-1.11a31.25,31.25,0,0,1-4.16-4.32l-.66-.78c-.49-.56-1-1.11-1.49-1.65s-1-1.08-1.58-1.6-1.26-1.19-1.9-1.77c-1.07-1-2.19-1.93-3.43-2.94s-2.6-2.09-3.91-3.11l-2.83-2.2c-.7-.55-1.27-1-1.8-1.51-.34-.31-.67-.62-1-.94a19.27,19.27,0,0,1-1.55-1.76,16.55,16.55,0,0,1-1.84-2.91l-.06-.11c-.12-.22-.22-.44-.32-.66,0,0,0-.07,0-.11-.22-.12-.43-.24-.63-.37s-.5-.33-.76-.52l-.44-.32c-.28-.22-.54-.44-.8-.67a21.31,21.31,0,0,1-2.58-2.78l-1-1.32L144,177.3l-.21,0-1.69,1.26-.09-.13-.73-1q-.67,0-1.35,0a37.44,37.44,0,0,1-8.65-1l-.24-.06-1.39-.37-.4-.11-1.27-.4-.52-.17-1.14-.41-.62-.24-1-.42L124,174l-1-.43-.71-.34-.91-.46-.71-.38-.87-.47-.82-.48-.72-.42-.95-.6-.55-.36c-.51-.33-1-.67-1.49-1-2.06-1.48-3.92-3-5.3-4.22l-2.3-2-1-.9c-.89-.77-1.78-1.54-2.7-2.29-.46-.38-.93-.75-1.4-1.11-.86-.66-1.67-1.24-2.48-1.75a24.5,24.5,0,0,0-2.43-1.39,6.76,6.76,0,0,0-1.08-.35l-1.69-.44c-.64-.17-1.5-.41-2.41-.75-.49-.19-1-.39-1.44-.61a5.89,5.89,0,0,1-.55-.29,8.84,8.84,0,0,1-4.84-8.58c.57-6.27,6.82-8.23,8.88-8.87.4-.12.8-.22,1.2-.31l.13,0c.51-.13,1-.23,1.51-.32-1.39-1.44-2.8-2.86-4.21-4.27-3.92-3.91-8-7.78-12.11-11.48-2.37-2.14-4.83-4.3-7.21-6.38l-1.24-1.09L70.85,111c-2.44-.84-4.95-1.7-7.45-2.67A101.24,101.24,0,0,1,31.89,88.88l-1.24-1.15-.12-.11c-.83-.77-1.59-1.5-2.35-2.22-3.43-3.27-6.67-6.35-10.1-8.37h0c-.31-.19-.62-.36-.94-.53l-.07,0c-.27-.14-.55-.28-.83-.4l-.07,0-.94-.38-.71-.26A8,8,0,0,1,13.4,60.59a16.33,16.33,0,0,1,7.41-1.48h1.76a12,12,0,0,1-.37-1.37A9.81,9.81,0,0,1,22,56.57a12,12,0,0,1,1.53-6.74A23.69,23.69,0,0,1,27.23,45c.15-.16.3-.31.44-.47l-.49-.43c-.46-.42-.92-.85-1.37-1.29s-.95-1-1.37-1.47a11.6,11.6,0,0,1-1-1.39c-.09-.14-.22-.36-.33-.57s-.26-.51-.37-.75a10.08,10.08,0,0,1-.49-1.32c-.06-.18-.11-.39-.16-.61v0a11,11,0,0,1,.76-7l0-.07a8.25,8.25,0,0,1,.45-.89.54.54,0,0,1,.07-.13A17.42,17.42,0,0,1,26,25.16l.6-.61.77-.73.71-.66c1.4-1.28,2.84-2.59,4.34-3.88l.78-.65.34-.27c.56-.46,1.12-.92,1.7-1.37.76-.59,1.48-1.13,2.16-1.61.35-.24.71-.48,1.08-.7a13.12,13.12,0,0,1,2.32-1.14,11.74,11.74,0,0,1,1.55-.45,10.57,10.57,0,0,1,2.23-.24c.27,0,.55,0,.82,0a10.13,10.13,0,0,1,2.42.5,11.82,11.82,0,0,1,2.5,1.14l.12.08a65.07,65.07,0,0,1,7.22-5.73c.32-.22.65-.44,1-.64a7,7,0,0,1,.61-.35,4.6,4.6,0,0,1,.45-.24c.26-.13.55-.27.85-.39a4.73,4.73,0,0,1,.5-.2,12.69,12.69,0,0,1,1.76-.5A11.8,11.8,0,0,1,65,6.34h.13l.63,0a11.06,11.06,0,0,1,1.48.18,6,6,0,0,1,.67.17,14.43,14.43,0,0,1,5,2.4c.5.37,1,.77,1.6,1.27C78.73,14,82.74,17.81,86.1,21q1.92,1.84,3.83,3.7l3.83,3.69c2.94,2.82,5.22,4.94,7.39,6.89,1.3,1.16,2.52,2.22,3.73,3.25a17.7,17.7,0,0,1,1.75,1.63,11.54,11.54,0,0,1,2.15,3.28A33.27,33.27,0,0,1,114,48.25c1.16,1.25,2.28,2.44,3.41,3.63l1.81,1.89c-.1-.71-.18-1.41-.26-2.11l-.1-1c-.11-1.12-.2-2.24-.27-3.35a73.53,73.53,0,0,1,0-9.28c.07-1,.16-2,.26-2.82l.08-.7c.18-1.56.39-3.23.69-4.93.09-.54.2-1.07.31-1.6,0,0,0-.11,0-.19.11-.49.23-1,.35-1.47,0-.07,0-.21.09-.34.12-.46.26-.92.4-1.39l.13-.41c.22-.68.45-1.28.69-1.86A8,8,0,0,1,129,17.45a7.93,7.93,0,0,1,3.93,1,11.11,11.11,0,0,1,1.25.81,19.31,19.31,0,0,1,4.55,4.93c.46.67.92,1.39,1.45,2.26.27.46.54.91.79,1.35l.66,1.11.48.78A106.09,106.09,0,0,1,155.91,61.1c.66,2.59,1.21,5.23,1.65,7.84.14.81.26,1.63.38,2.45.25,1.69.46,3.38.67,5.07l.25,2c.41,3.17.8,5.81,1.38,8.38.24,1.07.54,2.19.89,3.35.06.14.1.28.15.42.42,1.35.94,2.76,1.58,4.31.17.41.32.77.48,1.12.24.54.49,1.07.75,1.6s.39.79.6,1.18.27.51.41.77c.22.42.46.83.69,1.24,4.66,4.36,9.7,8.61,14.58,12.73l3.57,3,.5.43c.26.24.52.49.77.75a10.47,10.47,0,0,1,1.93,2.8,9.55,9.55,0,0,1,.76,2.26c.6.56,1.14,1.13,1.62,1.65,7.44,8.07,15.25,16,23.23,23.52,2.66,2.51,5.38,5,8.09,7.47l.76.69a17.68,17.68,0,0,1,1.25,1.34c.19.22.4.49.61.77s.22.3.32.46l.07.09q.14.21.27.45a11.58,11.58,0,0,1,.8,1.62,11.17,11.17,0,0,1,.63,2.2c0,.19.06.34.08.48a12.16,12.16,0,0,1,.12,2.07c0,.13,0,.31,0,.45a10.56,10.56,0,0,1-.19,1.47,3.3,3.3,0,0,1-.08.42,14.21,14.21,0,0,1-.4,1.47l-.13.35c-.16.43-.3.79-.46,1.14a22.09,22.09,0,0,1-2.08,3.58l-.6.84c-.5.68-1,1.27-1.41,1.82l-.43.5c2.15,2,4.24,3.81,6.18,5.52a13.14,13.14,0,0,1,2.29,2.5,10,10,0,0,1,1,1.79,10.37,10.37,0,0,1,.79,4.71c0,.08,0,.16,0,.25a14.07,14.07,0,0,1-.56,2.87c-.21.73-.45,1.37-.64,1.87l-.25.65c-.07.17-.14.32-.21.47-.31.72-.62,1.36-.95,2l-.12.22a26.3,26.3,0,0,1-9.58,9.91c-.31.2-.6.37-.88.52l-.42.22a19.79,19.79,0,0,1-4,1.56,15.62,15.62,0,0,1-4,.54h-.26c-.56,0-1.09-.06-1.62-.13a13.47,13.47,0,0,1-2.05-.44c-.18,0-.35-.1-.52-.15a14.9,14.9,0,0,1-1.52-.6l-.71-.34a19.39,19.39,0,0,1-4-2.84l-1.11,1c-1.84,1.62-5.67,5-11.11,5.22Z"/>
        <path class="cls-3" d="M180.08,209.91a14.11,14.11,0,0,1-1.9-.13,15,15,0,0,1-4.53-1.38l-.14-.06a17.19,17.19,0,0,1-1.77-1l-.25-.16c-.53-.36-1-.73-1.49-1.11a31.25,31.25,0,0,1-4.16-4.32l-.66-.78c-.49-.56-1-1.11-1.49-1.65s-1-1.08-1.58-1.6-1.26-1.19-1.9-1.77c-1.07-1-2.19-1.93-3.43-2.94s-2.6-2.09-3.91-3.11l-2.83-2.2c-.7-.55-1.27-1-1.8-1.51-.34-.31-.67-.62-1-.94a19.27,19.27,0,0,1-1.55-1.76,16.55,16.55,0,0,1-1.84-2.91l-.06-.11c-.12-.22-.22-.44-.32-.66,0,0,0-.07,0-.11-.22-.12-.43-.24-.63-.37s-.5-.33-.76-.52l-.44-.32c-.28-.22-.54-.44-.8-.67a21.31,21.31,0,0,1-2.58-2.78l-1-1.32L139,172.3l-.21,0-1.69,1.26-.09-.13-.73-1q-.67,0-1.35,0a37.44,37.44,0,0,1-8.65-1l-.24-.06-1.39-.37-.4-.11-1.27-.4-.52-.17-1.14-.41-.62-.24-1-.42L119,169l-1-.43-.71-.34-.91-.46-.71-.38-.87-.47-.82-.48-.72-.42-.95-.6-.55-.36c-.51-.33-1-.67-1.49-1-2.06-1.48-3.92-3-5.3-4.22l-2.3-2-1-.9c-.89-.77-1.78-1.54-2.7-2.29-.46-.38-.93-.75-1.4-1.11-.86-.66-1.67-1.24-2.48-1.75a24.5,24.5,0,0,0-2.43-1.39,6.76,6.76,0,0,0-1.08-.35l-1.69-.44c-.64-.17-1.5-.41-2.41-.75-.49-.19-1-.39-1.44-.61a5.89,5.89,0,0,1-.55-.29,8.84,8.84,0,0,1-4.84-8.58c.57-6.27,6.82-8.23,8.88-8.87.4-.12.8-.22,1.2-.31l.13,0c.51-.13,1-.23,1.51-.32-1.39-1.44-2.8-2.86-4.21-4.27-3.92-3.91-8-7.78-12.11-11.48-2.37-2.14-4.83-4.3-7.21-6.38l-1.24-1.09L65.85,106c-2.44-.84-4.95-1.7-7.45-2.67A101.24,101.24,0,0,1,26.89,83.88l-1.24-1.15-.12-.11c-.83-.77-1.59-1.5-2.35-2.22-3.43-3.27-6.67-6.35-10.1-8.37h0c-.31-.19-.62-.36-.94-.53l-.07,0c-.27-.14-.55-.28-.83-.4l-.07,0-.94-.38-.71-.26A8,8,0,0,1,8.4,55.59a16.33,16.33,0,0,1,7.41-1.48h1.76a12,12,0,0,1-.37-1.37A9.81,9.81,0,0,1,17,51.57a12,12,0,0,1,1.53-6.74A23.69,23.69,0,0,1,22.23,40c.15-.16.3-.31.44-.47l-.49-.43c-.46-.42-.92-.85-1.37-1.29s-.95-1-1.37-1.47a11.6,11.6,0,0,1-1-1.39c-.09-.14-.22-.36-.33-.57s-.26-.51-.37-.75a10.08,10.08,0,0,1-.49-1.32c-.06-.18-.11-.39-.16-.61v0a11,11,0,0,1,.76-6.95l0-.07a8.25,8.25,0,0,1,.45-.89.54.54,0,0,1,.07-.13A17.42,17.42,0,0,1,21,20.16l.6-.61.77-.73.71-.66c1.4-1.28,2.84-2.59,4.34-3.88l.78-.65.34-.27c.56-.46,1.12-.92,1.7-1.37.76-.59,1.48-1.13,2.16-1.61.35-.24.71-.48,1.08-.7a13.12,13.12,0,0,1,2.32-1.14,11.74,11.74,0,0,1,1.55-.45,10.57,10.57,0,0,1,2.23-.24c.27,0,.55,0,.82,0a10.13,10.13,0,0,1,2.42.5,11.82,11.82,0,0,1,2.5,1.14l.12.08a65.07,65.07,0,0,1,7.22-5.73c.32-.22.65-.44,1-.64a7,7,0,0,1,.61-.35,4.6,4.6,0,0,1,.45-.24c.26-.13.55-.27.85-.39a4.73,4.73,0,0,1,.5-.2,12.69,12.69,0,0,1,1.76-.5A11.8,11.8,0,0,1,60,1.34h.13c.2,0,.42,0,.63,0a11.06,11.06,0,0,1,1.48.18,6,6,0,0,1,.67.17,14.43,14.43,0,0,1,5,2.4c.5.37,1,.77,1.6,1.27C73.73,9,77.74,12.81,81.1,16q1.92,1.84,3.83,3.7l3.83,3.69c2.94,2.82,5.22,4.94,7.39,6.89,1.3,1.16,2.52,2.22,3.73,3.25a17.7,17.7,0,0,1,1.75,1.63,11.54,11.54,0,0,1,2.15,3.28A33.27,33.27,0,0,1,109,43.25c1.16,1.25,2.28,2.44,3.41,3.63l1.81,1.89c-.1-.71-.18-1.41-.26-2.11l-.1-1c-.11-1.12-.2-2.24-.27-3.35a73.53,73.53,0,0,1,0-9.28c.07-1,.16-2,.26-2.82l.08-.7c.18-1.56.39-3.23.69-4.93.09-.54.2-1.07.31-1.6,0,0,0-.11,0-.19.11-.49.23-1,.35-1.47,0-.07,0-.21.09-.34.12-.46.26-.92.4-1.39l.13-.41c.22-.68.45-1.28.69-1.86A8,8,0,0,1,124,12.45a7.93,7.93,0,0,1,3.93,1,11.11,11.11,0,0,1,1.25.81,19.31,19.31,0,0,1,4.55,4.93c.46.67.92,1.39,1.45,2.26.27.46.54.91.79,1.35l.66,1.11.48.78A106.09,106.09,0,0,1,150.91,56.1c.66,2.59,1.21,5.23,1.65,7.84.14.81.26,1.63.38,2.45.25,1.69.46,3.38.67,5.07l.25,2c.41,3.17.8,5.81,1.38,8.38.24,1.07.54,2.19.89,3.35.06.14.1.28.15.42.42,1.35.94,2.76,1.58,4.31.17.41.32.77.48,1.12.24.54.49,1.07.75,1.6s.39.79.6,1.18.27.51.41.77c.22.42.46.83.69,1.24,4.66,4.36,9.7,8.61,14.58,12.73l3.57,3,.5.43c.26.24.52.49.77.75a10.47,10.47,0,0,1,1.93,2.8,9.55,9.55,0,0,1,.76,2.26c.6.56,1.14,1.13,1.62,1.65,7.44,8.07,15.25,16,23.23,23.52,2.66,2.51,5.38,5,8.09,7.47l.76.69a17.68,17.68,0,0,1,1.25,1.34c.19.22.4.49.61.77s.22.3.32.46l.07.09q.14.21.27.45a11.58,11.58,0,0,1,.8,1.62,11.17,11.17,0,0,1,.63,2.2c0,.19.06.34.08.48a12.16,12.16,0,0,1,.12,2.07c0,.13,0,.31,0,.45a10.56,10.56,0,0,1-.19,1.47,3.3,3.3,0,0,1-.08.42,14.21,14.21,0,0,1-.4,1.47l-.13.35c-.16.43-.3.79-.46,1.14a22.09,22.09,0,0,1-2.08,3.58l-.6.84c-.5.68-1,1.27-1.41,1.82l-.43.5c2.15,2,4.24,3.81,6.18,5.52a13.14,13.14,0,0,1,2.29,2.5,10,10,0,0,1,1,1.79,10.37,10.37,0,0,1,.79,4.71c0,.08,0,.16,0,.25a14.07,14.07,0,0,1-.56,2.87c-.21.73-.45,1.37-.64,1.87l-.25.65c-.07.17-.14.32-.21.47-.31.72-.62,1.36-.95,2l-.12.22a26.3,26.3,0,0,1-9.58,9.91c-.31.2-.6.37-.88.52l-.42.22a19.79,19.79,0,0,1-4,1.56,15.62,15.62,0,0,1-4,.54h-.26c-.56,0-1.09-.06-1.62-.13a13.47,13.47,0,0,1-2.05-.44c-.18,0-.35-.1-.52-.15a14.9,14.9,0,0,1-1.52-.6l-.71-.34a19.39,19.39,0,0,1-4-2.84l-1.11,1c-1.84,1.62-5.67,5-11.11,5.22Z"/>
        <g>
          <g>
            <path class="cls-4" d="M61.46,65.07a6.48,6.48,0,0,0,3.25,2.3,6,6,0,0,0,3.44-.72c4.82-2.14,9.57-5.39,11.48-10.31A4.55,4.55,0,0,0,80,54.08,5.66,5.66,0,0,0,77.81,51C65.63,40.09,54.61,28,42.29,17.24a4.61,4.61,0,0,0-2.53-1.38A4.47,4.47,0,0,0,37,16.93a87.53,87.53,0,0,0-8.51,7.13c-1.85,1.7-5.12,4.54-3,7,2.43,2.82,6,5.08,8.84,7.54q9.19,8.06,17.83,16.74Q56.91,60.13,61.46,65.07Z"/>
            <path class="cls-5" d="M42.29,17.24a4.61,4.61,0,0,0-2.53-1.38A4.47,4.47,0,0,0,37,16.93c-1.16.82-2.27,1.7-3.36,2.6C45,27.92,54.84,38.3,64.24,48.9a142.26,142.26,0,0,1,9.6,11.76c.42.59.81,1.2,1.22,1.81a15.44,15.44,0,0,0,4.57-6.13A4.55,4.55,0,0,0,80,54.08,5.66,5.66,0,0,0,77.81,51C65.63,40.09,54.61,28,42.29,17.24Z"/>
            <path class="cls-5" d="M78.54,58.5a13.65,13.65,0,0,0,1.09-2.16A4.55,4.55,0,0,0,80,54.08,5.66,5.66,0,0,0,77.81,51C65.63,40.09,54.61,28,42.29,17.24a4.61,4.61,0,0,0-2.53-1.38A4.47,4.47,0,0,0,37,16.93c-.19.14-.37.29-.57.43,3.9,3,7.57,6.26,11.17,9.6s7,6.63,10.45,10q9.1,9,17.73,18.43C76.7,56.42,77.61,57.47,78.54,58.5Z"/>
            <path class="cls-6" d="M66.16,67.32c-.18-.12-.34-.24-.44-.32-2.16-1.79-4.25-3.68-6.29-5.61-4.1-3.86-8-7.92-12-11.9-2.28-2.29-4.59-4.55-7-6.73-5-4.55-10.27-8.75-15.6-12.9a2.83,2.83,0,0,0,.64,1.22c2.43,2.82,6,5.08,8.84,7.54q9.19,8.06,17.83,16.74,4.74,4.77,9.29,9.71a6.48,6.48,0,0,0,3.25,2.3A3.93,3.93,0,0,0,66.16,67.32Z"/>
            <path class="cls-7" d="M61.46,59.25c.39.28.94.54,1.3.22s.1-1-.19-1.38c-4.59-6.61-10.3-12.33-16-18-4-4-8-8-12.65-11.14a4.87,4.87,0,0,0-2.25-1,1.76,1.76,0,0,0-1.89,1.25c-.37,2.13,4.05,4.28,5.4,5.4,2.24,1.87,4.35,3.87,6.41,5.93,4.17,4.16,8.1,8.56,12.4,12.58A68.55,68.55,0,0,0,61.46,59.25Z"/>
            <path class="cls-8" d="M27.22,28.52,40.07,16.73c.21-.19.41-.4.6-.61a2.64,2.64,0,0,0-.91-.26A4.47,4.47,0,0,0,37,16.93a87.53,87.53,0,0,0-8.51,7.13c-1.59,1.46-4.22,3.76-3.57,6A5.91,5.91,0,0,0,27.22,28.52Z"/>
            <path class="cls-9" d="M33.14,22.2l2.69-2.6a.35.35,0,0,0-.33-.33,1,1,0,0,0-.48.13,26,26,0,0,0-6.82,5.44c-.29.29-1.22,1-.57,1.45.48.3,1.43-.58,1.8-.84A30.94,30.94,0,0,0,33.14,22.2Z"/>
            <path class="cls-10" d="M71.57,46.81a11.44,11.44,0,0,0,.2-1.43c-8.49-8-16.6-16.46-25.23-24.34a3.17,3.17,0,0,0-.32.73,5.13,5.13,0,0,0,1.16,4.44,42.73,42.73,0,0,0,3.35,3.38,22,22,0,0,1,3.88,5.74c.64,1.31,1.16,3,.21,4.12a3.24,3.24,0,0,1-2.94.78,11.12,11.12,0,0,1-3.77-1.34,31.74,31.74,0,0,0-4-2.11,9.13,9.13,0,0,0-8,.92,6,6,0,0,0-1.53,1.17q9,7.93,17.52,16.46a17.4,17.4,0,0,0,11,.33A12.57,12.57,0,0,0,71.57,46.81Z"/>
            <path class="cls-10" d="M72.17,45.76c-8.1-7.64-15.86-15.66-24-23.24a2,2,0,0,0-1,.54A1.93,1.93,0,0,0,47,25.24a6.23,6.23,0,0,0,1.62,1.66A33.47,33.47,0,0,1,55,33.74a8,8,0,0,1,1.71,4.15,4.63,4.63,0,0,1-3.52,4.49c-2.41.51-4.76-1-6.69-2.53s-4-3.26-6.45-3.29a9.22,9.22,0,0,0-5.35,2.24s0,.06,0,.09q9,7.94,17.52,16.47c2,2.06,4.06,4.16,6.06,6.27,3.76.57,7.89.41,10.84-2a10.35,10.35,0,0,0,3.46-5.91,17,17,0,0,0-.11-6.93C72.35,46.46,72.26,46.11,72.17,45.76Z"/>
          </g>
          <g>
            <g>
              <path class="cls-11" d="M121.81,31.19a60.6,60.6,0,0,0-.22,10.69c1.6,27,16.78,52.69,39.32,67.59a57.72,57.72,0,0,1-13.47-25.92c-1.36-6-1.75-12.21-2.77-18.29A96.7,96.7,0,0,0,130.4,29.05c-1.58-2.45-3.87-7.19-6.38-8.6C122.68,23.65,122.22,27.75,121.81,31.19Z"/>
              <path class="cls-12" d="M147.44,83.55c-1.36-6-1.75-12.21-2.77-18.29A96.7,96.7,0,0,0,130.4,29.05c-1.58-2.45-3.87-7.19-6.38-8.6a26.33,26.33,0,0,0-1.5,5.54A175.82,175.82,0,0,1,143.44,88.9c.19,1.46.12,3.33-1,4.1a87.24,87.24,0,0,0,18.47,16.47A57.72,57.72,0,0,1,147.44,83.55Z"/>
              <path class="cls-12" d="M144.67,65.26A96.7,96.7,0,0,0,130.4,29.05c-1.58-2.45-3.87-7.19-6.38-8.6-.11.26-.21.54-.3.81a97.89,97.89,0,0,1,13,26.78c3.49,10.81,5.59,22,7.49,33.22.67,4,1.33,8,.76,12a4.53,4.53,0,0,1-.61,1.88,86.87,86.87,0,0,0,16.59,14.33,57.72,57.72,0,0,1-13.47-25.92C146.08,77.54,145.69,71.34,144.67,65.26Z"/>
              <path class="cls-13" d="M121.81,31.19a60.6,60.6,0,0,0-.22,10.69,88,88,0,0,0,19.47,49.44,122.64,122.64,0,0,1-12.49-23c-1-2.24-1.91-4.5-2.69-6.82a77.37,77.37,0,0,1-3.37-17.55c-.41-4.46-.6-8.94-.62-13.43C121.87,30.72,121.84,31,121.81,31.19Z"/>
              <path class="cls-12" d="M144.94,95.82c-14.55-29.72-20.53-71.73-20.53-71.73-.53,1.55,4.34,39,17.71,68.53C143,93.71,144,94.77,144.94,95.82Z"/>
              <path class="cls-12" d="M160.91,109.47a57.8,57.8,0,0,1-12.27-21.53,2.76,2.76,0,0,1-1.53.42A4,4,0,0,1,144.68,87c-3-2.88-4.71-6.88-7.63-9.84-2.35-2.39-5.39-4-8-6.1l-.5-.44A89.47,89.47,0,0,0,160.91,109.47Z"/>
              <path class="cls-12" d="M158,107.44c.07-.42.13-.84.19-1.26a57.73,57.73,0,0,1-7.91-13.75,1.79,1.79,0,0,1-.95.42,3.27,3.27,0,0,1-2.39-1.25,72.44,72.44,0,0,1-9-10.8A32.41,32.41,0,0,0,136,78.09a29.09,29.09,0,0,0-6.43-5.17A89.68,89.68,0,0,0,158,107.44Z"/>
            </g>
            <g>
              <path class="cls-4" d="M167.43,140.47c5,4.12,10.44,7.81,15.16,12.29a120.07,120.07,0,0,1,8.93,9.8q2.17,2.58,4.36,5.14a10.87,10.87,0,0,0,3.26,2.94,7.18,7.18,0,0,0,6.79-.67,17.48,17.48,0,0,0,4.9-5.12c1.26-1.79,2.48-4,1.67-6.06a7.08,7.08,0,0,0-2-2.45q-16.65-15-31.85-31.51c-1.55-1.68-3.47-3.53-5.74-3.26a7,7,0,0,0-3.65,2.11c-2.22,2-6.43,5-7.18,8.18C161.24,135.31,165.13,138.6,167.43,140.47Z"/>
              <path class="cls-8" d="M210.83,164.85c1.26-1.79,2.48-4,1.67-6.06a5.2,5.2,0,0,0-1.12-1.6,11.45,11.45,0,0,1-1.82,5.86,16.15,16.15,0,0,1-6.41,5.54,10.93,10.93,0,0,1-3.72,1.22,10.58,10.58,0,0,1-1.72-.17,6.8,6.8,0,0,0,1.43,1,7.18,7.18,0,0,0,6.79-.67A17.48,17.48,0,0,0,210.83,164.85Z"/>
              <path class="cls-8" d="M172.9,121.57a7,7,0,0,0-3.65,2.11c-2.22,2-6.43,5-7.18,8.18a4.65,4.65,0,0,0,.37,3,9.69,9.69,0,0,0,3.58-.78,18.14,18.14,0,0,0,5.21-3.76,14.82,14.82,0,0,0,4-5.33,7.05,7.05,0,0,0,.4-2.81A4.4,4.4,0,0,0,172.9,121.57Z"/>
              <path class="cls-5" d="M209.4,165.26c.15.24.31.56.49.88.32-.42.64-.86.94-1.29,1.26-1.79,2.48-4,1.67-6.06a7.08,7.08,0,0,0-2-2.45q-16.65-15-31.85-31.51c-1.55-1.68-3.47-3.53-5.74-3.26a5.19,5.19,0,0,0-2.43,1.08,9.3,9.3,0,0,1,1.21,1,23.56,23.56,0,0,1,3.17,4.87A54,54,0,0,0,184,140c6.23,6.17,13.33,11.41,19.39,17.76a61.94,61.94,0,0,1,4.23,4.92C208.2,163.53,208.82,164.39,209.4,165.26Z"/>
              <path class="cls-5" d="M178.64,124.83c-1.47-1.59-3.26-3.3-5.37-3.26a39.46,39.46,0,0,1,4.49,4.83c2.1,2.66,3.85,5.59,5.92,8.28a61.43,61.43,0,0,0,7.34,7.79c4.72,4.3,9.85,8.15,14.46,12.58a52.72,52.72,0,0,1,6.24,7c.11.15.24.38.39.63a4.89,4.89,0,0,0,.39-3.92,7.08,7.08,0,0,0-2-2.45Q193.84,141.34,178.64,124.83Z"/>
              <path class="cls-6" d="M191.86,162.09a105.19,105.19,0,0,0-21.92-20.63c-2.7-1.89-5.59-3.82-7.46-6.45,1,2.22,3.37,4.17,5,5.46,5,4.12,10.44,7.81,15.16,12.29a120.07,120.07,0,0,1,8.93,9.8q2.17,2.58,4.36,5.14a10.87,10.87,0,0,0,3.26,2.94.84.84,0,0,1,.14.06c-.69-.65-1.41-1.28-2.05-2C195.31,166.62,193.63,164.32,191.86,162.09Z"/>
              <path class="cls-7" d="M195.53,162.83a1.09,1.09,0,0,0,1,.37.72.72,0,0,0,.43-.75,2,2,0,0,0-.34-.85,34.49,34.49,0,0,0-3.4-4.5q-3.76-4.44-7.74-8.69c-4.44-4.73-9.2-9.39-15.09-12.1a4.81,4.81,0,0,0-1.59-.49,1.77,1.77,0,0,0-1.5.59c-.87,1.16.65,1.64,1.37,2.12,1.1.73,2.17,1.5,3.22,2.3,2.07,1.59,4,3.29,6,5.06,3.88,3.57,7.53,7.4,11.31,11.08C191.21,159,193.32,161,195.53,162.83Z"/>
              <path class="cls-9" d="M173.63,125.44a3.73,3.73,0,0,0,.42-3.1,2.26,2.26,0,0,0-.55-.77,4,4,0,0,0-.6,0,7,7,0,0,0-3.65,2.11c-2.22,2-6.43,5-7.18,8.18a4.16,4.16,0,0,0,0,1.89c2.35,1,5.94-2,7.35-3.32A18.66,18.66,0,0,0,173.63,125.44Z"/>
            </g>
            <g>
              <path class="cls-4" d="M127.24,102.31a96.69,96.69,0,0,0,8.14,6.51,108.07,108.07,0,0,1,19.15,19c1.45,1.84,2.95,3.82,5.13,4.67,2.67,1,5.74.1,8.14-1.46a17.15,17.15,0,0,0,7.07-9.47,3.7,3.7,0,0,0,0-2.6,4.11,4.11,0,0,0-1.15-1.31c-11.48-9.73-23.36-19.25-32.44-31.25a17.49,17.49,0,0,0-2.75-3.13,5.24,5.24,0,0,0-3.85-1.31,7,7,0,0,0-3.38,1.76c-3.22,2.59-6.7,5.93-8.73,9.58C120.92,96.32,125.14,100.3,127.24,102.31Z"/>
              <path class="cls-8" d="M137,87.91a7.45,7.45,0,0,0,.75-5.24,4.89,4.89,0,0,0-3.05-.75,7,7,0,0,0-3.38,1.76c-3.22,2.59-6.7,5.93-8.73,9.58a3.83,3.83,0,0,0,.11,3.54h0a7.82,7.82,0,0,0,4.57-.69C131.35,94.51,135.07,91.77,137,87.91Z"/>
              <path class="cls-8" d="M165.14,130a12.7,12.7,0,0,1-5,2.55c2.56.78,5.42-.11,7.69-1.59a17.15,17.15,0,0,0,7.07-9.47,3.7,3.7,0,0,0,0-2.6,4.11,4.11,0,0,0-1.15-1.31l-.64-.53a15.78,15.78,0,0,1-1.23,6.07C170.5,126.1,167.79,128.15,165.14,130Z"/>
              <path class="cls-5" d="M171.54,125.9c.18.26.39.63.62,1a17.09,17.09,0,0,0,2.71-5.39,3.7,3.7,0,0,0,0-2.6,4.11,4.11,0,0,0-1.15-1.31c-11.48-9.73-23.36-19.25-32.44-31.25a17.49,17.49,0,0,0-2.75-3.13,5.24,5.24,0,0,0-3.85-1.31,6.41,6.41,0,0,0-3.05,1.51,8.48,8.48,0,0,0,.51.81,41.38,41.38,0,0,0,3,3.65c2.65,3,5.31,6.08,8.11,9,2.58,2.67,5.27,5.23,8,7.75,4.81,4.47,9.7,8.87,14.13,13.71A77.18,77.18,0,0,1,171.54,125.9Z"/>
              <path class="cls-5" d="M174.87,121.52a3.7,3.7,0,0,0,0-2.6,4.11,4.11,0,0,0-1.15-1.31c-11.48-9.73-23.36-19.25-32.44-31.25a17.49,17.49,0,0,0-2.75-3.13,5.24,5.24,0,0,0-3.85-1.31l-.07,0c2.8,3,4.92,6.59,7.41,9.87a70.22,70.22,0,0,0,8.47,9.11c5.42,5,11.31,9.45,16.67,14.52a71.81,71.81,0,0,1,7.09,7.7C174.51,122.61,174.7,122.07,174.87,121.52Z"/>
              <path class="cls-6" d="M123,97.35a22.87,22.87,0,0,0,4.24,5,96.69,96.69,0,0,0,8.14,6.51,108.07,108.07,0,0,1,19.15,19c1.45,1.84,2.95,3.82,5.13,4.67.1,0,.19.05.29.08-.56-.42-1.1-.88-1.62-1.35a64.92,64.92,0,0,1-5.79-6.5,126.49,126.49,0,0,0-18.36-18C130.39,103.65,126.39,100.8,123,97.35Z"/>
              <path class="cls-7" d="M147.84,117.66a69.52,69.52,0,0,0,7.71,7.45c.42.32,1.09.61,1.4.18a1,1,0,0,0,0-.94,12.77,12.77,0,0,0-1.67-2.91,36.37,36.37,0,0,0-3.38-3.85,195.42,195.42,0,0,0-18.22-16.54,29.49,29.49,0,0,0-3.43-2.47c-.64-.38-1.52-.79-2.21-.3s-.5,1-.08,1.57a10.31,10.31,0,0,0,2.3,1.72q1.32,1,2.61,2a114,114,0,0,1,9.78,8.74C144.4,114.05,146.13,115.84,147.84,117.66Z"/>
              <path class="cls-9" d="M136.81,84.78a5.15,5.15,0,0,0,.36-2.41,4.63,4.63,0,0,0-2.45-.45,7,7,0,0,0-3.38,1.76c-3.22,2.59-6.7,5.93-8.73,9.58a3,3,0,0,0-.37,1.47.88.88,0,0,0,.28.17c2.42.9,5.67-.88,7.6-2.17A16.88,16.88,0,0,0,136.81,84.78Z"/>
            </g>
            <g>
              <path class="cls-4" d="M87.28,64c2.87,2.81,6.18,5.14,9.31,7.66a91.52,91.52,0,0,1,16.48,17.23c1.75,2.38,3.57,5,6.36,6a8.46,8.46,0,0,0,3.28.43,12.81,12.81,0,0,0,8.17-3.85,19.78,19.78,0,0,0,4.61-7.89,6.81,6.81,0,0,0,.2-4.84,8,8,0,0,0-3-3C121.74,68,112.29,58.5,103.2,48.76a23.53,23.53,0,0,0-4.34-3.95,7.8,7.8,0,0,0-5.58-1.34,10.38,10.38,0,0,0-5,3.13c-2,1.95-6.13,5.4-6.51,8.39C81.33,58.14,85.27,62,87.28,64Z"/>
              <path class="cls-8" d="M97.51,44.08a7.12,7.12,0,0,0-4.23-.61,10.38,10.38,0,0,0-5,3.13c-2,1.95-6.13,5.4-6.51,8.39a5.25,5.25,0,0,0,.63,2.91,8.56,8.56,0,0,0,4-1,23.37,23.37,0,0,0,9.42-8.07A8.65,8.65,0,0,0,97.51,44.08Z"/>
              <path class="cls-8" d="M132.5,86.24a16.3,16.3,0,0,1-8.52,8,11,11,0,0,1-4,.83,8.79,8.79,0,0,0,2.7.26,12.81,12.81,0,0,0,8.17-3.85,19.78,19.78,0,0,0,4.61-7.89,6.81,6.81,0,0,0,.2-4.84,5.81,5.81,0,0,0-1.85-2.16A16.21,16.21,0,0,1,132.5,86.24Z"/>
              <path class="cls-5" d="M132.92,88.92a21.47,21.47,0,0,0,2.57-5.38,6.81,6.81,0,0,0,.2-4.84,8,8,0,0,0-3-3C121.74,68,112.29,58.5,103.2,48.76a23.53,23.53,0,0,0-4.34-3.95,7.8,7.8,0,0,0-5.58-1.34,6.91,6.91,0,0,0-1.92.7,42.52,42.52,0,0,1,4.85,4.92c1.39,1.73,2.54,3.64,3.81,5.47a71.85,71.85,0,0,0,8.88,10.29c5.74,5.66,12,10.73,17.67,16.51,1.4,1.44,2.75,2.92,4,4.45C131.43,86.8,132.15,87.88,132.92,88.92Z"/>
              <path class="cls-5" d="M103.2,48.76a23.53,23.53,0,0,0-4.34-3.95,7.87,7.87,0,0,0-5.32-1.37l.19.15a45.85,45.85,0,0,1,7.3,6.76c2.12,2.44,4,5.11,6,7.63A73.09,73.09,0,0,0,116.79,68c1.86,1.59,3.8,3.08,5.74,4.56a105.64,105.64,0,0,1,9.94,8.21,40.59,40.59,0,0,1,2.88,3.13c.05-.14.1-.27.14-.4a6.81,6.81,0,0,0,.2-4.84,8,8,0,0,0-3-3C121.74,68,112.29,58.5,103.2,48.76Z"/>
              <path class="cls-6" d="M92.35,67.33a90.4,90.4,0,0,1-9.84-9.13A26.37,26.37,0,0,0,87.28,64c2.87,2.81,6.18,5.14,9.31,7.66a91.52,91.52,0,0,1,16.48,17.23c1.75,2.38,3.57,5,6.36,6,.19.07.38.12.57.17-.59-.39-1.23-.74-1.52-1A41.33,41.33,0,0,1,113,87.74q-2.88-3.73-6-7.28a74.78,74.78,0,0,0-7.24-7.33C97.34,71.09,94.8,69.27,92.35,67.33Z"/>
              <path class="cls-7" d="M93.82,66.47a189,189,0,0,1,22.79,21.58A5,5,0,0,0,118,89.24a1.68,1.68,0,0,0,1.72,0,1.71,1.71,0,0,0,.57-1.8,4.65,4.65,0,0,0-1-1.75c-4.57-5.94-10.09-11.07-15.67-16.08-2.72-2.45-5.46-4.88-8.4-7.06a22.86,22.86,0,0,0-4.89-3c-.77-.31-2.12-.74-2.89-.21-1,.7.13,1.61.7,2.19A61.51,61.51,0,0,0,93.82,66.47Z"/>
              <path class="cls-9" d="M96.72,43.77a6.84,6.84,0,0,0-3.44-.3,10.38,10.38,0,0,0-5,3.13c-2,1.95-6.13,5.4-6.51,8.39a4.13,4.13,0,0,0,0,.93,5.36,5.36,0,0,0,3-.33A23.22,23.22,0,0,0,95,48.33a8.63,8.63,0,0,0,1.59-2.71A4.31,4.31,0,0,0,96.72,43.77Z"/>
            </g>
            <g>
              <path class="cls-4" d="M67.65,44.25a51.26,51.26,0,0,1,6.51,7.31A26.94,26.94,0,0,0,76.68,55a5.41,5.41,0,0,0,3.73,1.86A7,7,0,0,0,83.47,56a33.45,33.45,0,0,0,11.69-9.8c1-1.28,1.87-2.91,1.32-4.42a5.41,5.41,0,0,0-1.76-2.08C84.15,30.75,74.82,20.44,64.27,11.5c-1.41-1.2-3.12-2.45-4.94-2.09a6.09,6.09,0,0,0-2.17,1.06,57.22,57.22,0,0,0-8.65,7.28c-1.33,1.36-3.81,3.95-2.75,6,.61,1.17,2.55,2.33,3.54,3.22,1.24,1.12,2.48,2.26,3.72,3.4Q60.44,37.17,67.65,44.25Z"/>
              <path class="cls-8" d="M95.16,46.17c1-1.28,1.87-2.91,1.32-4.42a5.41,5.41,0,0,0-1.76-2.08l-.68-.6a8.77,8.77,0,0,1-1.18,6.16,21.8,21.8,0,0,1-4.65,5.18,29.24,29.24,0,0,1-7.46,5.15,6.6,6.6,0,0,1-2.72.56,4.66,4.66,0,0,0,2.38.77A7,7,0,0,0,83.47,56,33.45,33.45,0,0,0,95.16,46.17Z"/>
              <path class="cls-5" d="M87.18,42.47q2.82,3.3,5.29,6.85a32.39,32.39,0,0,0,2.69-3.15c1-1.28,1.87-2.91,1.32-4.42a5.41,5.41,0,0,0-1.76-2.08C84.15,30.75,74.82,20.44,64.27,11.5c-1.41-1.2-3.12-2.45-4.94-2.09a6.09,6.09,0,0,0-2.17,1.06c-.68.47-1.34,1-2,1.45q9.08,8.45,18.24,16.79c3.36,3.07,6.72,6.14,9.87,9.43C84.61,39.54,85.91,41,87.18,42.47Z"/>
              <path class="cls-5" d="M64.27,11.5c-1.41-1.2-3.12-2.45-4.94-2.09a4.92,4.92,0,0,0-1.72.77c.93.55,1.91,1,2.84,1.61a33.94,33.94,0,0,1,5.49,4.45q4,3.75,7.94,7.57,6.93,6.74,13.62,13.7,3.39,3.51,6.71,7.08c.29.32.68.87,1.09,1.39.9-1.26,1.7-2.79,1.18-4.23a5.41,5.41,0,0,0-1.76-2.08C84.15,30.75,74.82,20.44,64.27,11.5Z"/>
              <path class="cls-6" d="M45.76,23.73c.61,1.17,2.55,2.33,3.54,3.22,1.24,1.12,2.48,2.26,3.72,3.4q7.42,6.82,14.63,13.9a51.26,51.26,0,0,1,6.51,7.31A26.94,26.94,0,0,0,76.68,55a6,6,0,0,0,2.47,1.62,10.2,10.2,0,0,1-1.57-1.41,56.11,56.11,0,0,1-3.46-4.76,71.63,71.63,0,0,0-8-9q-10-10-20.58-19.3A2.33,2.33,0,0,0,45.76,23.73Z"/>
              <path class="cls-7" d="M57.84,30.9a107.86,107.86,0,0,1,7.87,8q3.38,3.68,6.76,7.36a15.65,15.65,0,0,0,5,4.12,1.09,1.09,0,0,0,.43.11.74.74,0,0,0,.63-.77,2,2,0,0,0-.39-1,38.93,38.93,0,0,0-5.74-6.58C66.33,36,60.69,29.47,53.9,24.23a5.08,5.08,0,0,0-1.59-.92c-.87-.25-2.1.12-2.05,1.21,0,.86,1.14,1.31,1.75,1.76C54,27.76,56,29.26,57.84,30.9Z"/>
              <path class="cls-8" d="M60.81,9.45a3.51,3.51,0,0,0-1.48,0,6.09,6.09,0,0,0-2.17,1.06,57.22,57.22,0,0,0-8.65,7.28c-1.09,1.12-2.95,3.05-3,4.84,1.53.78,4.34-2.71,5.38-3.61,2.9-2.52,5.8-5,8.53-7.73A6.21,6.21,0,0,0,60.81,9.45Z"/>
              <path class="cls-9" d="M48.46,19.76A1.32,1.32,0,0,0,49,19.6a10.52,10.52,0,0,0,1.86-1.33c1.41-1.19,2.8-2.4,4.17-3.65a8.13,8.13,0,0,0,2-2.33.46.46,0,0,0,0-.41.32.32,0,0,0-.4-.07.92.92,0,0,0-.3.32,13.21,13.21,0,0,1-5,4.73,18,18,0,0,0-1.85.83C49.11,17.89,47.22,19.77,48.46,19.76Z"/>
            </g>
          </g>
          <g>
            <g>
              <path class="cls-11" d="M102.47,147.21c4.3,3.3,8.12,7.2,12.52,10.36,6.77,4.84,15.19,7.85,23.44,6.75,3.56-.48,7-1.7,10.55-2.07-6.07-5.92-12.36-11.71-19.5-16.29s-15.24-7.92-23.71-8.53c-2.41-.17-4.82-.13-7.24-.06a23.88,23.88,0,0,0-6.58.8c-1.43.44-4.94,1.7-2.45,2.88,2.07,1,4.59,1.14,6.74,2.2A37.51,37.51,0,0,1,102.47,147.21Z"/>
              <g class="cls-14">
                <path class="cls-12" d="M142.63,164.28c-29.82-24-52-24.32-52.28-24.32,0,0,22.88-.83,53,23.4Z"/>
              </g>
              <path class="cls-13" d="M136.55,164.49l-1-.1a40.57,40.57,0,0,1-19.12-7.08c-6.53-4.63-11.67-11.42-19.11-14.4a33.92,33.92,0,0,0-5.88-1.63,10.8,10.8,0,0,0-2.05-.3l.12.07c2.07,1,4.59,1.14,6.74,2.2a37.51,37.51,0,0,1,6.23,4c4.3,3.3,8.12,7.2,12.52,10.36C121.25,162,128.91,164.94,136.55,164.49Z"/>
              <path class="cls-12" d="M147.16,160.49A117,117,0,0,0,129.48,146c-7.15-4.58-15.24-7.92-23.71-8.53-2.41-.17-4.82-.13-7.24-.06a27,27,0,0,0-5.74.59q.88,0,1.77.12a87.12,87.12,0,0,1,9.23,1.55,36.37,36.37,0,0,1,5.08,1.3,35.17,35.17,0,0,1,7.41,4.12,126.22,126.22,0,0,1,11.92,8.75c3.9,3.32,7.48,7.07,11.44,10.3,2.8-.49,5.56-1.29,8.37-1.7C147.75,161.76,147.46,161.12,147.16,160.49Z"/>
            </g>
            <path class="cls-12" d="M129.48,146a55.66,55.66,0,0,0-17.39-7.57,5.07,5.07,0,0,0,.19.77c1.32,3.78,4.15,7,7.12,9.62,3.58,3.13,7.68,5.59,11.52,8.39a80.66,80.66,0,0,1,8.32,7c2.12-.34,4.21-.88,6.31-1.33a13.41,13.41,0,0,0-1.49-4q-.69-1.32-1.44-2.61A100.24,100.24,0,0,0,129.48,146Z"/>
            <path class="cls-12" d="M142.82,162.61a17.29,17.29,0,0,0-3.25-6.6,77.37,77.37,0,0,0-6.39-7.5c-1.21-.88-2.44-1.74-3.7-2.55a56.26,56.26,0,0,0-16.34-7.29,12,12,0,0,0,1.64,3.28c3.74,5.45,9.49,9.1,14.71,13.16,3.4,2.65,6.62,5.51,9.87,8.34l.67.58c1-.18,1.94-.38,2.91-.61Q142.89,163,142.82,162.61Z"/>
            <g>
              <path class="cls-4" d="M150.84,176.65c1,2.25,3,3.84,4.89,5.33,5.48,4.24,11,8.51,15.51,13.76a33.85,33.85,0,0,0,3.86,4.16,7.86,7.86,0,0,0,5.17,2c2.37-.11,4.4-1.68,6.18-3.24,2.74-2.41,5.42-5.12,6.57-8.58a4.08,4.08,0,0,0,.15-2.6,4.93,4.93,0,0,0-1.82-2,149.7,149.7,0,0,1-19.13-17.6c-2.4-2.63-5.1-5.54-8.65-5.79-3.95-.27-7.22,2.85-9.93,5.74S149.5,172.56,150.84,176.65Z"/>
              <path class="cls-8" d="M163.57,162.07c-3.95-.27-7.22,2.85-9.93,5.74s-4.14,4.75-2.8,8.84a3.37,3.37,0,0,0,.19.38,8.79,8.79,0,0,0,4.09-1.09,23.13,23.13,0,0,0,7.92-7.26,9.69,9.69,0,0,0,2-4.5,4.79,4.79,0,0,0-.21-1.91A7.17,7.17,0,0,0,163.57,162.07Z"/>
              <path class="cls-5" d="M172.22,167.86c-2.4-2.63-5.1-5.54-8.65-5.79a6.29,6.29,0,0,0-1.15,0q.87,2.39,1.73,4.77a22.33,22.33,0,0,0,1.47,3.41,19.16,19.16,0,0,0,3.25,3.94c6.23,6.21,13.32,11.58,18.93,18.34a17.46,17.46,0,0,1,1.94,2.9,15.62,15.62,0,0,0,3.28-5.37,4.08,4.08,0,0,0,.15-2.6,4.93,4.93,0,0,0-1.82-2A149.7,149.7,0,0,1,172.22,167.86Z"/>
              <path class="cls-5" d="M192.67,191c.12-.29.25-.58.35-.88a4.08,4.08,0,0,0,.15-2.6,4.93,4.93,0,0,0-1.82-2,149.7,149.7,0,0,1-19.13-17.6c-2.28-2.5-4.84-5.23-8.13-5.7A105.56,105.56,0,0,0,174.64,174c1.62,1.49,3.32,2.89,5,4.31,3.1,2.6,6.14,5.27,9,8.17,1.41,1.44,2.77,2.94,4,4.5Z"/>
              <path class="cls-6" d="M150.82,176.58a.64.64,0,0,0,0,.07c1,2.25,3,3.84,4.89,5.33,5.48,4.24,11,8.51,15.51,13.76a33.85,33.85,0,0,0,3.86,4.16,8.44,8.44,0,0,0,4.15,1.95,31.17,31.17,0,0,1-5.07-4.19c-2.17-2.27-4.13-4.73-6.34-7C162.66,185.46,156.15,181.61,150.82,176.58Z"/>
              <path class="cls-7" d="M168.11,187.89c1.47,1.34,2.81,2.83,4.25,4.21a42.65,42.65,0,0,0,7.49,5.74c.34.2.78.4,1.09.17s.16-1-.14-1.39a66.33,66.33,0,0,0-7.48-8.42c-3.87-3.86-7.93-7.77-13-9.76a4,4,0,0,0-1.69-.36,1.43,1.43,0,0,0-1.17,2.24c.54.85,2.11,1.38,2.94,1.9A53,53,0,0,1,168.11,187.89Z"/>
              <path class="cls-9" d="M162.82,165.72a3.86,3.86,0,0,0,.36-2.83,2.41,2.41,0,0,0-.51-.82c-3.55.22-6.53,3.08-9,5.74-2.3,2.46-3.66,4.15-3.22,7.08a4.29,4.29,0,0,0,.86.14c2.79.21,5.35-1.75,7.24-3.57A18.42,18.42,0,0,0,162.82,165.72Z"/>
            </g>
            <g>
              <path class="cls-4" d="M114.09,140a20.5,20.5,0,0,0,4.2,4.53c8.78,7.69,18.21,14.86,25.19,24.23,1.36,1.82,2.78,3.84,5,4.48,2.7.8,5.47-.82,7.79-2.42,3.21-2.21,6.56-4.83,7.52-8.61a4.08,4.08,0,0,0,.1-1.87,5.48,5.48,0,0,0-2-2.73,436.29,436.29,0,0,1-32.37-31.71,7.61,7.61,0,0,0-2.49-2c-2.23-.94-4.74.41-6.6,1.94C116.22,129.15,110.69,134.37,114.09,140Z"/>
              <path class="cls-8" d="M160.91,164.77a17.57,17.57,0,0,1-7.33,5.7A12.21,12.21,0,0,1,147,172c-.26,0-.58-.09-.91-.15a6.12,6.12,0,0,0,2.31,1.35c2.7.8,5.47-.82,7.79-2.42,3.21-2.21,6.56-4.83,7.52-8.61a4.08,4.08,0,0,0,.1-1.87,4.35,4.35,0,0,0-1.41-2.17A9.3,9.3,0,0,1,160.91,164.77Z"/>
              <path class="cls-8" d="M126.92,123.79c-2.22-.9-4.7.44-6.55,2-3.74,3.06-8.57,7.61-7,12.55a6.13,6.13,0,0,0,1.4-.24,11.42,11.42,0,0,0,4-2.42,35.86,35.86,0,0,0,3.78-3.5,22.44,22.44,0,0,0,3.56-5.24A6.28,6.28,0,0,0,126.92,123.79Z"/>
              <path class="cls-5" d="M159.58,168c0,.05,0,.09.07.14a12.13,12.13,0,0,0,4.1-6,4.08,4.08,0,0,0,.1-1.87,5.48,5.48,0,0,0-2-2.73,438.24,438.24,0,0,1-32.37-31.71,7.61,7.61,0,0,0-2.49-2,4.63,4.63,0,0,0-3.47.06,5.05,5.05,0,0,0-.13,1.6c.21,3.42,2.78,6.16,5.19,8.59L146.4,152c1.77,1.78,3.55,3.57,5.25,5.42A54.12,54.12,0,0,1,159.58,168Z"/>
              <path class="cls-5" d="M129.46,125.85a7.61,7.61,0,0,0-2.49-2,4.19,4.19,0,0,0-2.42-.22,36.43,36.43,0,0,0,5.62,7.61c2.87,3.15,5.89,6.17,9,9.12,5.43,5.19,11,10.2,16.35,15.52,2.61,2.62,5.16,5.31,7.55,8.13a9.2,9.2,0,0,0,.71-1.81,4.08,4.08,0,0,0,.1-1.87,5.48,5.48,0,0,0-2-2.73A438.24,438.24,0,0,1,129.46,125.85Z"/>
              <path class="cls-6" d="M113.4,138.42a7.88,7.88,0,0,0,.69,1.53,20.5,20.5,0,0,0,4.2,4.53c8.78,7.69,18.21,14.86,25.19,24.23,1.36,1.82,2.78,3.84,5,4.48a5.62,5.62,0,0,0,1.06.19,20.08,20.08,0,0,1-4.07-3.22c-1.8-2-3.31-4.22-5-6.34-5.1-6.56-11.6-11.87-18-17.13A75.57,75.57,0,0,1,113.4,138.42Z"/>
              <path class="cls-7" d="M132.5,153c3.79,3.94,7.19,8.31,11.51,11.65,1.06.82,2.39,1.61,3.65,1.16-2-4.37-5.67-7.68-9-11.12-5.41-5.57-10.27-11.88-16.89-16a2.25,2.25,0,0,0-1.87-.45c-3.85,1.43,3.27,6.11,4.26,7A111.3,111.3,0,0,1,132.5,153Z"/>
              <path class="cls-9" d="M120.37,125.75c-3.26,2.68-7.36,6.48-7.31,10.7a5.45,5.45,0,0,0,1.23-.43,25.75,25.75,0,0,0,11.37-10.34,3.9,3.9,0,0,0,.66-2.06C124.27,123.15,122.06,124.37,120.37,125.75Z"/>
            </g>
            <g>
              <path class="cls-4" d="M67,94.67a16.51,16.51,0,0,0,3.45,3.78c3.67,3.24,7.38,6.44,11,9.72q12.69,11.46,24.2,24.13a11.42,11.42,0,0,0,2.47,2.24,7.43,7.43,0,0,0,6.66.1,18.29,18.29,0,0,0,5.46-4.17c2.68-2.74,5.23-5.85,6-9.6a3.07,3.07,0,0,0,0-1.62,3.2,3.2,0,0,0-.87-1.16,52.59,52.59,0,0,0-6.09-4.71c-7.41-5.32-14.06-11.62-20.68-17.9l-16-15.19a7.61,7.61,0,0,0-2-1.52c-2.11-.94-4.53.2-6.45,1.48C69.81,83.12,63.61,89,67,94.67Z"/>
              <path class="cls-8" d="M126.24,119.25a3.2,3.2,0,0,0-.87-1.16c-.25-.25-.52-.47-.79-.71a11.45,11.45,0,0,1-.12,4.91c-.89,3.36-3.44,6-6,8.32a17.65,17.65,0,0,1-6.34,4.08,6.68,6.68,0,0,1-3.38.15,7.7,7.7,0,0,0,6.06-.2,18.29,18.29,0,0,0,5.46-4.17c2.68-2.74,5.23-5.85,6-9.6A3.07,3.07,0,0,0,126.24,119.25Z"/>
              <path class="cls-8" d="M79.06,84.53A9.89,9.89,0,0,0,81,80.61,5.53,5.53,0,0,0,81.08,79a4.67,4.67,0,0,0-.49-.27c-2.11-.94-4.53.2-6.45,1.48-3.86,2.56-9.2,7.51-7.92,12.59a6.66,6.66,0,0,0,1.45-.29A22.69,22.69,0,0,0,79.06,84.53Z"/>
              <path class="cls-5" d="M122.37,127.94l.06.1a16.65,16.65,0,0,0,3.81-7.17,3.07,3.07,0,0,0,0-1.62,3.2,3.2,0,0,0-.87-1.16,52.59,52.59,0,0,0-6.09-4.71c-7.41-5.32-14.06-11.62-20.68-17.9l-16-15.19a7.61,7.61,0,0,0-2-1.52c-1.81-.81-3.86-.08-5.62,1a10.38,10.38,0,0,0,.93,1.74c10.71,16.69,29.28,26.56,42.45,41.38A50.49,50.49,0,0,1,122.37,127.94Z"/>
              <path class="cls-5" d="M119.28,113.38c-7.41-5.32-14.06-11.62-20.68-17.9l-16-15.19a7.61,7.61,0,0,0-2-1.52A4.32,4.32,0,0,0,78,78.51a8.76,8.76,0,0,0,1.5,2.15,275.51,275.51,0,0,0,29,28.34c2.09,1.76,4.2,3.48,6.28,5.25a89.82,89.82,0,0,1,10.24,9.84,13.46,13.46,0,0,0,1.16-3.22,3.07,3.07,0,0,0,0-1.62,3.2,3.2,0,0,0-.87-1.16A52.59,52.59,0,0,0,119.28,113.38Z"/>
              <path class="cls-6" d="M70.66,97.11c-1.47-1.25-3-2.51-4.32-3.86A6.79,6.79,0,0,0,67,94.67a16.51,16.51,0,0,0,3.45,3.78c3.67,3.24,7.38,6.44,11,9.72q12.69,11.46,24.2,24.13a11.42,11.42,0,0,0,2.47,2.24,5.82,5.82,0,0,0,1.75.67c-.71-.64-1.81-1.24-2.2-1.58-3.14-2.78-5.59-6.22-8.36-9.36-1.73-2-3.58-3.8-5.45-5.63C86.32,111.25,78.66,104,70.66,97.11Z"/>
              <path class="cls-7" d="M98.92,121.87A36.67,36.67,0,0,0,104.5,127a1.39,1.39,0,0,0,1,.34c.77-.2.66-1.33.33-2a21.79,21.79,0,0,0-2.14-3.68A45.06,45.06,0,0,0,99.66,117c-4.06-4.24-8.13-8.47-12.36-12.54-3.47-3.33-7.14-6.6-11.56-8.48a2,2,0,0,0-1.94-.08c-1.86,1.42,1.8,3.75,2.61,4.46,1.9,1.66,3.78,3.35,5.65,5.05q5.59,5.13,11,10.48C95,117.83,97,119.84,98.92,121.87Z"/>
              <path class="cls-9" d="M79.85,78.53c-1.92-.43-4,.59-5.71,1.72-3.42,2.27-8,6.4-8.11,10.84a3.85,3.85,0,0,0,1.82.1,15.3,15.3,0,0,0,11.88-9.52A4.24,4.24,0,0,0,80,78.92,3.52,3.52,0,0,0,79.85,78.53Z"/>
            </g>
            <g>
              <path class="cls-4" d="M28.65,55.39c10.68,9.37,19.74,20.4,29,31.21,1.53,1.8,3.23,3.7,5.53,4.26,2.75.66,5.53-.77,7.94-2.26,3.13-1.95,6.22-4.13,8.33-7.15,1.08-1.54,1.9-3.46,1.37-5.25s-2-2.75-3.33-3.78C65,63,55.12,50.79,44.06,39.83a8.12,8.12,0,0,0-3.91-2.57c-2.27-.44-4.44,1.06-6.2,2.56a68.15,68.15,0,0,0-5.83,5.57C26.9,46.7,24.81,48.91,25,50.9,25.14,52.72,27.41,54.3,28.65,55.39Z"/>
              <path class="cls-8" d="M80.77,76.2a4.41,4.41,0,0,0-.71-1.38,17.58,17.58,0,0,1-4.49,8.25,24.85,24.85,0,0,1-10.44,6.25A11.26,11.26,0,0,1,61.2,90a6.16,6.16,0,0,0,1.93.84c2.75.67,5.53-.76,7.94-2.25,3.13-1.95,6.22-4.13,8.33-7.15C80.48,79.91,81.3,78,80.77,76.2Z"/>
              <path class="cls-5" d="M77.44,72.42C65,63,55.12,50.79,44.06,39.83a8.12,8.12,0,0,0-3.91-2.57C38.3,36.9,36.54,37.83,35,39c5.13,4.51,8.65,10.52,12.95,15.82,6.79,8.39,15.5,15,23,22.8A59.59,59.59,0,0,1,75.56,83a15.36,15.36,0,0,1,1,1.64,19.18,19.18,0,0,0,2.86-3.18c1.08-1.54,1.9-3.46,1.37-5.25S78.81,73.45,77.44,72.42Z"/>
              <path class="cls-5" d="M77.44,72.42C65,63,55.12,50.79,44.06,39.83a8.12,8.12,0,0,0-3.91-2.57,4.9,4.9,0,0,0-2.6.26c1.32,1.4,2.75,2.68,4.1,4,3.8,3.82,6.91,8.26,10.38,12.38a87.49,87.49,0,0,0,8.63,8.91c2.13,1.91,4.34,3.72,6.54,5.55A72.77,72.77,0,0,1,78,78.82c.58.74,1.12,1.51,1.64,2.29a6.05,6.05,0,0,0,1.15-4.91C80.28,74.56,78.81,73.45,77.44,72.42Z"/>
              <path class="cls-6" d="M64.47,91a19.66,19.66,0,0,1-2.92-2.07,54.61,54.61,0,0,1-4.63-4.87c-10-11.53-19.74-23.56-31.85-32.8.4,1.67,2.42,3.11,3.58,4.13,10.68,9.37,19.74,20.4,29,31.21,1.53,1.8,3.23,3.7,5.53,4.25A5.56,5.56,0,0,0,64.47,91Z"/>
              <path class="cls-7" d="M42.27,64c6.13,6.18,11.53,13.09,18,19,1,.86,2.09,1.75,3.35,1.55a1.12,1.12,0,0,0,.77-.42c.34-.5,0-1.17-.42-1.64-2.73-3.43-5.79-6.59-8.84-9.74L38.94,56c-2-2.1-4.32-4.33-7.22-4.61a1.23,1.23,0,0,0-.66.07c-.76.39-.38,2.14,0,2.66.79,1.17,2.79,2.19,3.89,3.11Q38.74,60.42,42.27,64Z"/>
              <path class="cls-8" d="M39.89,37.24C37.71,37,35.65,38.37,34,39.82a68.15,68.15,0,0,0-5.83,5.57C26.9,46.7,24.81,48.91,25,50.9c0,.06,0,.12,0,.17a4.63,4.63,0,0,0,.76-.48A111.17,111.17,0,0,0,38.5,39.77,3.88,3.88,0,0,0,39.89,37.24Z"/>
              <path class="cls-9" d="M27.5,47.59a26.34,26.34,0,0,0,8.23-6.07,4.71,4.71,0,0,0,.94-1.34c.18-.44.1-1.11-.37-1.16a1.26,1.26,0,0,0-.27,0,2.74,2.74,0,0,0-1.45,1.24c-.35.55-.6,1.16-.94,1.72a11.2,11.2,0,0,1-3.73,3.23c-.61.39-1.26.74-1.84,1.17-.23.17-.39.23-.52.5C27.5,47,27.53,47.56,27.5,47.59Z"/>
            </g>
            <path class="cls-10" d="M84.74,93.59a46.59,46.59,0,0,0-5-6.31,58.07,58.07,0,0,0-6.45-5.45l-6-4.56a122.46,122.46,0,0,0-10.91-7.76,99.64,99.64,0,0,0-19.49-8.59c-1.22-.42-2.47-.93-3.73-1.32,5.53,5.29,10.67,11,15.69,16.8C64.54,85.56,79.73,95.64,93,108A106.26,106.26,0,0,0,84.74,93.59Z"/>
            <path class="cls-10" d="M90.52,106.8c-2.23-8.51-7.6-15.93-14.07-21.88s-14-10.58-21.61-15a47.11,47.11,0,0,0-5.67-3,48.83,48.83,0,0,0-5.28-1.77L36.67,63C44,70.48,50.78,78.6,57.6,86.6c1.53,1.8,3.23,3.7,5.53,4.25a6.5,6.5,0,0,0,2.91,0,6.51,6.51,0,0,0,.42,2.76A225.46,225.46,0,0,0,90.52,106.8Z"/>
            <g>
              <path class="cls-11" d="M11.94,62.76c8.12,2.63,14,9.46,20.33,15.2a93.73,93.73,0,0,0,29,17.94c9.4,3.65,19.67,5.93,27.43,12.37A13.73,13.73,0,0,0,92,110.61a3.57,3.57,0,0,0,3.8-.45c.29-.27.08-1-.17-.69L81.9,92a68,68,0,0,0-6.1-7,54.48,54.48,0,0,0-6.53-5.19c-15-10.46-32.67-18.06-50.95-17.67C16.25,62.17,13.8,61.85,11.94,62.76Z"/>
              <path class="cls-12" d="M18.32,62.13c-.38,0-.78,0-1.18,0,1.88.51,4.46.58,5.55.83a84.25,84.25,0,0,1,20.47,8.24c3.74,2,7.39,4.21,11,6.44,13.39,8.28,26.9,17.53,35,31a11.69,11.69,0,0,0,2.88,2,3.57,3.57,0,0,0,3.8-.45c.29-.27.08-1-.17-.69L81.9,92a68,68,0,0,0-6.1-7,54.48,54.48,0,0,0-6.53-5.19C54.28,69.34,36.6,61.74,18.32,62.13Z"/>
              <path class="cls-13" d="M83.38,104.29a78.79,78.79,0,0,0-7.59-3.63C60.86,94.24,45.28,88.41,33,77.74c-3.86-3.36-7.35-7.17-11.47-10.21A27.15,27.15,0,0,0,13,63.15C20.58,66,26.23,72.48,32.27,78a93.73,93.73,0,0,0,29,17.94c9.39,3.65,19.64,5.92,27.4,12.35C88.1,106.62,84.51,104.93,83.38,104.29Z"/>
              <path class="cls-12" d="M18.47,64.22c.21.07,21.43,7.25,39,18.11,16.48,10.2,25.89,19.41,34.64,28.3a4.34,4.34,0,0,0,2,.3c-9.13-9.29-18.67-18.9-36-29.6C40.4,70.39,18.47,64.22,18.47,64.22Z"/>
            </g>
          </g>
          <path class="cls-10" d="M119.28,113.38c-7.41-5.32-14.06-11.62-20.68-17.9l-16-15.19a8,8,0,0,0-1.89-1.45,4.65,4.65,0,0,0,.06-2.64c-.49-1.64-2-2.75-3.33-3.78C68.75,65.85,61.28,57.88,53.8,49.93c-2.6-.61-5.12-.35-3.32,3.11,2,3.89,5.18,7.17,8.16,10.32,7.79,8.26,15.77,16.33,23.75,24.4l62,62.72c8.47,8.58,17,17.17,26.17,25,6.78,5.74,14,11.11,19.44,18.13q.32.41.66.81a14.39,14.39,0,0,0,2.38-4.28,4.08,4.08,0,0,0,.15-2.6,4.93,4.93,0,0,0-1.82-2,149.7,149.7,0,0,1-19.13-17.6c-2.36-2.58-5-5.42-8.46-5.76a4.1,4.1,0,0,0,.09-1.81,5.48,5.48,0,0,0-2-2.73,438.24,438.24,0,0,1-32.37-31.71,7.61,7.61,0,0,0-2.49-2,3.89,3.89,0,0,0-1.6-.3,12.77,12.77,0,0,0,.87-2.64,3.07,3.07,0,0,0,0-1.62,3.2,3.2,0,0,0-.87-1.16A52.59,52.59,0,0,0,119.28,113.38Z"/>
          <path class="cls-10" d="M119.28,113.38c-7.41-5.32-14.06-11.62-20.68-17.9l-16-15.19a8,8,0,0,0-1.89-1.45,4.65,4.65,0,0,0,.06-2.64c-.49-1.64-2-2.75-3.33-3.78C69.15,66.16,62,58.62,54.84,51a3.21,3.21,0,0,0-1.65.76c-2.07,2.08.86,4.91,2.24,6.33,9.89,10.16,19.9,20.23,29.91,30.28q29.84,30,60.1,59.52,17.15,16.74,34.44,33.33a86.19,86.19,0,0,1,10.62,11.5c.22.31.44.62.65.94a13.77,13.77,0,0,0,1.87-3.61,4.08,4.08,0,0,0,.15-2.6,4.93,4.93,0,0,0-1.82-2,149.7,149.7,0,0,1-19.13-17.6c-2.36-2.58-5-5.42-8.46-5.76a4.1,4.1,0,0,0,.09-1.81,5.48,5.48,0,0,0-2-2.73,438.24,438.24,0,0,1-32.37-31.71,7.61,7.61,0,0,0-2.49-2,3.89,3.89,0,0,0-1.6-.3,12.77,12.77,0,0,0,.87-2.64,3.07,3.07,0,0,0,0-1.62,3.2,3.2,0,0,0-.87-1.16A52.59,52.59,0,0,0,119.28,113.38Z"/>
          <path class="cls-10" d="M110.75,71.69c-4.67-4.32-10-7.92-14.8-12C89.24,54,83.39,47.28,76.51,41.77,74.42,40.1,69,35,66.2,35.44c-1.7.25-2.9,2-3.66,3.87,1.7,1.64,3.42,3.28,5.11,4.94a51.26,51.26,0,0,1,6.51,7.31A26.94,26.94,0,0,0,76.68,55a5.41,5.41,0,0,0,3.73,1.86,4.93,4.93,0,0,0,1.47-.25c.74,2.75,3.73,5.69,5.4,7.33,2.87,2.81,6.18,5.14,9.31,7.66a91.52,91.52,0,0,1,16.48,17.23c1.75,2.38,3.57,5,6.36,6a8.21,8.21,0,0,0,2.83.43c.35,2.62,3.32,5.44,5,7a96.69,96.69,0,0,0,8.14,6.51,108.07,108.07,0,0,1,19.15,19c1.45,1.84,2.95,3.82,5.13,4.67a6.55,6.55,0,0,0,2.31.42c0,3.07,3.39,5.91,5.46,7.6,5,4.12,10.44,7.81,15.16,12.29a120.07,120.07,0,0,1,8.93,9.8q2.17,2.58,4.36,5.14a10.87,10.87,0,0,0,3.26,2.94,7.18,7.18,0,0,0,6.79-.67,11,11,0,0,0,1-.68L184,147.85c-6.31-5.92-12.63-11.84-18.45-18.24-4.7-5.15-9.07-10.61-14.15-15.38-4.81-4.51-10.21-8.36-15-12.92C127,92.24,120.35,80.58,110.75,71.69Z"/>
          <path class="cls-10" d="M91.93,57.68,72.63,40c-2.53-2.33-4.47-5.67-8.19-4.6a9.48,9.48,0,0,0-3.75,2.15c2.33,2.22,4.66,4.46,7,6.72a51.26,51.26,0,0,1,6.51,7.31A26.94,26.94,0,0,0,76.68,55a5.41,5.41,0,0,0,3.73,1.86,4.93,4.93,0,0,0,1.47-.25c.74,2.75,3.73,5.69,5.4,7.33,2.87,2.81,6.18,5.14,9.31,7.66a91.52,91.52,0,0,1,16.48,17.23c1.75,2.38,3.57,5,6.36,6a8.21,8.21,0,0,0,2.83.43c.35,2.62,3.32,5.44,5,7a96.69,96.69,0,0,0,8.14,6.51,108.07,108.07,0,0,1,19.15,19c1.45,1.84,2.95,3.82,5.13,4.67a6.55,6.55,0,0,0,2.31.42c0,3.07,3.39,5.91,5.46,7.6,5,4.12,10.44,7.81,15.16,12.29a120.07,120.07,0,0,1,8.93,9.8q2.17,2.58,4.36,5.14a10.87,10.87,0,0,0,3.26,2.94,6.66,6.66,0,0,0,5.24.08,15.19,15.19,0,0,0-1.16-1.25L153.48,120c-3.71-3.69-7.42-7.39-11.28-10.93-4.46-4.09-9.11-8-13.31-12.33-4.85-5-9-10.64-13.62-15.92C108.1,72.51,100,65.09,91.93,57.68Z"/>
          <g>
            <g>
              <path class="cls-4" d="M171.42,171.45a5.47,5.47,0,0,0,2.12,2.59,191.28,191.28,0,0,1,22.2,21.15c1.95,2.18,4.11,4.55,7,4.93a9,9,0,0,0,5.42-1.3A18.4,18.4,0,0,0,216.93,188a3.72,3.72,0,0,0,.08-2.46,4,4,0,0,0-1.17-1.39c-8.44-7.42-16.79-15-23.94-23.7a9.76,9.76,0,0,0-3.38-3c-2.23-1-4.82,0-6.91,1.18a24.1,24.1,0,0,0-7,6.3C173.34,166.55,170.83,169.23,171.42,171.45Z"/>
              <path class="cls-8" d="M187.48,157.3a1.09,1.09,0,0,0,0-.18,8.93,8.93,0,0,0-5.86,1.48,24.1,24.1,0,0,0-7,6.3c-1.23,1.65-3.74,4.33-3.15,6.55a3.28,3.28,0,0,0,.35.79,5.25,5.25,0,0,0,1.79-.12,14.19,14.19,0,0,0,6.18-3.64,36,36,0,0,0,6.33-7.53A7.45,7.45,0,0,0,187.48,157.3Z"/>
              <path class="cls-8" d="M215.13,187.07a11.62,11.62,0,0,1-1.78,4.79,16.41,16.41,0,0,1-6.87,6.57,11.25,11.25,0,0,1-4.48,1.11,5.89,5.89,0,0,1-1.45-.13,6.7,6.7,0,0,0,2.19.71,9,9,0,0,0,5.42-1.3A18.4,18.4,0,0,0,216.93,188a3.72,3.72,0,0,0,.08-2.46,4,4,0,0,0-1.17-1.39l-.85-.76.06.66A16.16,16.16,0,0,1,215.13,187.07Z"/>
              <path class="cls-5" d="M213.41,194.5a18.49,18.49,0,0,0,3.52-6.51,3.72,3.72,0,0,0,.08-2.46,4,4,0,0,0-1.17-1.39c-8.44-7.42-16.79-15-23.94-23.7a9.76,9.76,0,0,0-3.38-3c-2.15-.92-4.62-.11-6.67,1.05.23.18.45.35.66.54,3.38,3,4.65,7.75,7.23,11.49,2.79,4.05,7,6.83,10.81,9.95a68.22,68.22,0,0,1,9.95,10.08C211.53,191.81,212.48,193.15,213.41,194.5Z"/>
              <path class="cls-5" d="M216.93,188a3.72,3.72,0,0,0,.08-2.46,4,4,0,0,0-1.17-1.39c-8.44-7.42-16.79-15-23.94-23.7a9.76,9.76,0,0,0-3.38-3,5.83,5.83,0,0,0-3.76-.16c4.72,2.57,7.36,7.67,10.83,11.77a89.77,89.77,0,0,0,8.13,7.83A123.89,123.89,0,0,1,216.18,190,20.36,20.36,0,0,0,216.93,188Z"/>
              <path class="cls-6" d="M202.74,200.12a6.19,6.19,0,0,0,1.36,0c-.69-.35-1.34-.67-1.56-.81a34.19,34.19,0,0,1-4.06-3,77,77,0,0,1-6-6.24,129.29,129.29,0,0,0-19-17.08,12.41,12.41,0,0,0-1.91-1.18,6.29,6.29,0,0,0,2,2.22,191.28,191.28,0,0,1,22.2,21.15C197.69,197.37,199.85,199.74,202.74,200.12Z"/>
              <path class="cls-7" d="M186.15,181.17a73.84,73.84,0,0,1,7.74,7.68c2.47,2.85,4.88,6,8.35,7.51a4,4,0,0,0,1.81.41,1.82,1.82,0,0,0,1.54-.93,2.55,2.55,0,0,0-.58-2.46c-1.59-2.25-3.85-3.91-6-5.67-4.69-3.85-8.86-8.3-13.45-12.27a14.3,14.3,0,0,0-3.64-2.5,3,3,0,0,0-2-.25c-2.57.77,0,3,.91,3.88C182.5,178.2,184.36,179.64,186.15,181.17Z"/>
              <path class="cls-9" d="M186.21,157.05a10.28,10.28,0,0,0-4.6,1.55,24.1,24.1,0,0,0-7,6.3c-1,1.37-2.89,3.43-3.18,5.36a7.14,7.14,0,0,0,3.07.07,9.25,9.25,0,0,0,2.89-1.37,24.88,24.88,0,0,0,7.73-8.05,7.67,7.67,0,0,0,1.14-2.8A4.18,4.18,0,0,0,186.21,157.05Z"/>
            </g>
            <g>
              <path class="cls-4" d="M135.48,135.45a7.44,7.44,0,0,0,2.09,3.24c8.25,8.73,18.22,15.81,25.69,25.21,1.92,2.4,4,5.14,7,5.72,2.47.47,5-.67,7.06-2a23.6,23.6,0,0,0,8.85-9.94,6.61,6.61,0,0,0,.65-2.25c.17-2.63-2.11-4.7-4.17-6.34a225.05,225.05,0,0,1-24.74-22.35c-2.35-2.53-5.14-5.37-8.58-5.1-2.36.18-4.32,1.81-6.1,3.37C140.28,127.53,134.38,130.75,135.48,135.45Z"/>
              <path class="cls-8" d="M149.31,121.6c-2.36.18-4.32,1.81-6.1,3.37-2.93,2.56-8.83,5.78-7.73,10.48a4.12,4.12,0,0,0,.24.67,5.38,5.38,0,0,0,2.57-.3A27.23,27.23,0,0,0,149,129.35a13.72,13.72,0,0,0,3.45-5,8.51,8.51,0,0,0,.44-2A6.46,6.46,0,0,0,149.31,121.6Z"/>
              <path class="cls-8" d="M185,156.68a16.23,16.23,0,0,1-4.05,6,19.08,19.08,0,0,1-7.78,4.81,13.69,13.69,0,0,1-4.12.59c-.41,0-1.56-.29-2.47-.43a7.59,7.59,0,0,0,3.66,2c2.47.47,5-.67,7.06-2a23.6,23.6,0,0,0,8.85-9.94,6.61,6.61,0,0,0,.65-2.25,5.21,5.21,0,0,0-1.25-3.55A10.49,10.49,0,0,1,185,156.68Z"/>
              <path class="cls-5" d="M157.89,126.7c-2.35-2.53-5.14-5.37-8.58-5.1a6.23,6.23,0,0,0-1.67.37,5.09,5.09,0,0,0,.25,1c2.52,7.18,8.46,12.52,14.11,17.61,2.1,1.9,4.2,3.81,6.25,5.77a112.73,112.73,0,0,1,10.4,11.12c1.42,1.77,2.75,3.61,4,5.5a20.73,20.73,0,0,0,3.51-5.37,6.61,6.61,0,0,0,.65-2.25c.17-2.63-2.11-4.7-4.17-6.34A225.05,225.05,0,0,1,157.89,126.7Z"/>
              <path class="cls-5" d="M185.49,159c.23-.44.46-.88.66-1.34a6.61,6.61,0,0,0,.65-2.25c.17-2.63-2.11-4.7-4.17-6.34a225.05,225.05,0,0,1-24.74-22.35c-2.35-2.53-5.14-5.37-8.58-5.1a4.41,4.41,0,0,0-.62.09,31.26,31.26,0,0,0,5.9,7.44c2.75,2.74,5.64,5.33,8.57,7.89,5.19,4.53,10.5,8.94,15.34,13.85a80.26,80.26,0,0,1,6.61,7.55C185.23,158.58,185.36,158.77,185.49,159Z"/>
              <path class="cls-6" d="M136,136.69a11.1,11.1,0,0,0,1.56,2c8.25,8.73,18.22,15.81,25.69,25.21,1.65,2.07,3.39,4.37,5.76,5.35-.54-.44-1.14-.86-1.35-1.06a60,60,0,0,1-5.92-6.91c-1-1.32-2.05-2.63-3.14-3.88a88.48,88.48,0,0,0-8.18-7.9Z"/>
              <path class="cls-7" d="M160.16,156.93c2.31,2.66,4.6,5.5,7.73,7.1.36.18.89.3,1.09,0a.74.74,0,0,0,0-.53,7.28,7.28,0,0,0-1.29-2.69,46.63,46.63,0,0,0-3.06-3.94,139.42,139.42,0,0,0-12.57-13,50.54,50.54,0,0,0-6.48-5.2c-.55-.36-1.84-1.51-2.57-1-.52.35-.35,1.34-.23,1.84.51,2.23,2.92,3.47,4.55,4.86,2.17,1.84,4.28,3.77,6.31,5.76Q157,153.36,160.16,156.93Z"/>
              <path class="cls-9" d="M149.31,121.6c-2.36.18-4.32,1.81-6.1,3.37-2.74,2.39-8.08,5.37-7.86,9.58a4.85,4.85,0,0,0,3.76-.44,26.34,26.34,0,0,0,10.48-8.54,6.26,6.26,0,0,0,1.37-3,3.87,3.87,0,0,0-.05-.84A5.33,5.33,0,0,0,149.31,121.6Z"/>
            </g>
            <g>
              <path class="cls-4" d="M93.54,93.92a17.92,17.92,0,0,0,4.51,5.68c3,2.78,6.14,5.34,9.19,8,8.49,7.5,16,16,23.78,24.27a4.77,4.77,0,0,0,1.64,1.29,4.29,4.29,0,0,0,2.08.15,20,20,0,0,0,15.09-10.19,6.38,6.38,0,0,0,1-4.19c-.34-1.63-1.68-2.83-2.94-3.91q-11.42-9.78-22.3-20.16a65.44,65.44,0,0,1-9.32-10.37c-1.74-2.57-3.45-5.63-6.47-6.39-2.53-.64-5.15.62-7.33,2.07a70.9,70.9,0,0,0-7.83,6.65C92.5,88.75,92.39,91.31,93.54,93.92Z"/>
              <path class="cls-8" d="M109.36,78.07c-2.41-.41-4.86.77-6.92,2.14a70.9,70.9,0,0,0-7.83,6.65,5.4,5.4,0,0,0-1.48,5.93,5.31,5.31,0,0,0,2.32-.37,26.47,26.47,0,0,0,11.93-8.66C108.65,82.12,109.75,80.08,109.36,78.07Z"/>
              <path class="cls-8" d="M148.74,121a11.57,11.57,0,0,1-1.56,2.84,22.12,22.12,0,0,1-11,8,9.76,9.76,0,0,1-4.69.45,3.65,3.65,0,0,0,1.19.83,4.29,4.29,0,0,0,2.08.15,20,20,0,0,0,15.09-10.19,6.39,6.39,0,0,0,1-4.2,5.58,5.58,0,0,0-1.59-2.67A11.62,11.62,0,0,1,148.74,121Z"/>
              <path class="cls-5" d="M148.13,125.75a18.64,18.64,0,0,0,1.7-2.59,6.38,6.38,0,0,0,1-4.19c-.34-1.63-1.68-2.83-2.94-3.91q-11.42-9.78-22.3-20.16a65.44,65.44,0,0,1-9.32-10.37c-1.74-2.57-3.45-5.63-6.47-6.39a6.89,6.89,0,0,0-4,.34c-.57,2,.47,4.12,1.59,5.89a68.93,68.93,0,0,0,4.58,6.44c8.71,10.89,20.46,18.89,30.51,28.56,1.37,1.31,2.7,2.65,3.94,4.07C147,124.17,147.56,125,148.13,125.75Z"/>
              <path class="cls-5" d="M125.56,94.9a65.44,65.44,0,0,1-9.32-10.37c-1.74-2.57-3.45-5.63-6.47-6.39A5.88,5.88,0,0,0,108.1,78a2.68,2.68,0,0,0,.05.3,21,21,0,0,0,3.44,6.45,103.1,103.1,0,0,0,7.77,10,87.81,87.81,0,0,0,8.33,7.92c5.22,4.42,10.75,8.47,15.87,13a76.1,76.1,0,0,1,6.69,6.63,5.49,5.49,0,0,0,.55-3.33c-.34-1.63-1.68-2.83-2.94-3.91Q136.45,105.28,125.56,94.9Z"/>
              <path class="cls-6" d="M123.36,122.58l-9.52-10c-1.44-1.49-2.87-3-4.39-4.39-5.08-4.67-11.25-8.33-15.57-13.61a19.85,19.85,0,0,0,4.17,5c3,2.78,6.14,5.34,9.19,8,8.49,7.5,16,16,23.78,24.27a4.77,4.77,0,0,0,1.64,1.29.48.48,0,0,0,.17.05c-.17-.13-.34-.26-.46-.37a62.9,62.9,0,0,1-4.4-5.22C126.52,125.89,124.94,124.23,123.36,122.58Z"/>
              <path class="cls-7" d="M98.72,96.35c4.4,4.44,9.42,8.2,14,12.48,4.82,4.51,9.11,9.6,14.22,13.79a11.89,11.89,0,0,0,4.11,2.45.84.84,0,0,0,.71,0,.78.78,0,0,0,.27-.5,4.47,4.47,0,0,0-1.16-3.25,114.66,114.66,0,0,0-11.34-12.9c-4.81-5-9.68-9.94-15.32-13.92a7.84,7.84,0,0,0-3.62-1.67A3.11,3.11,0,0,0,97.63,94C97.17,94.94,98.11,95.74,98.72,96.35Z"/>
              <path class="cls-9" d="M108.48,78.35c0-.12,0-.24.06-.36a11.05,11.05,0,0,0-6.1,2.22,70.9,70.9,0,0,0-7.83,6.65,5.12,5.12,0,0,0-1.78,4.23,10.63,10.63,0,0,0,7.4-2.41,35.16,35.16,0,0,0,5.51-5.79A11.64,11.64,0,0,0,108.48,78.35Z"/>
            </g>
            <g>
              <path class="cls-4" d="M50.89,53.28c3.58,3.92,7.87,7.1,11.8,10.66,8.09,7.32,14.66,16.18,22.58,23.69a9.26,9.26,0,0,0,4.1,2.63,8,8,0,0,0,3.37-.13,21.65,21.65,0,0,0,13.8-9.81,7.92,7.92,0,0,0,1.32-3.56c.2-3.19-2.6-5.66-5.11-7.63a253.55,253.55,0,0,1-32.6-30.84C68.73,36.68,67,34.92,64.87,35a6.9,6.9,0,0,0-4,2,71.72,71.72,0,0,0-8.66,8.68c-.82,1-2.69,2.54-3.09,3.71C48.7,50.78,50,52.34,50.89,53.28Z"/>
              <path class="cls-8" d="M104.22,79.89c-1.85,3.65-5.34,6.25-9.11,7.84a18,18,0,0,1-7.48,1.52c-.16,0-.29,0-.43,0a6.15,6.15,0,0,0,2.17,1,8,8,0,0,0,3.37-.13,21.65,21.65,0,0,0,13.8-9.81,7.92,7.92,0,0,0,1.32-3.56c.14-2.31-1.29-4.24-3-5.88A11.38,11.38,0,0,1,104.22,79.89Z"/>
              <path class="cls-5" d="M70.15,38.29C68.73,36.68,67,34.92,64.87,35a5.91,5.91,0,0,0-3.29,1.47c.05.2.1.39.16.58,1.55,4.87,5.21,8.74,8.88,12.29C76.71,55.23,83.14,60.77,89,66.87a93.64,93.64,0,0,1,9.38,11.18,61.8,61.8,0,0,1,3.91,6.3l.34.64a21.2,21.2,0,0,0,3.88-4.67,7.92,7.92,0,0,0,1.32-3.56c.2-3.19-2.6-5.66-5.11-7.63A253.55,253.55,0,0,1,70.15,38.29Z"/>
              <path class="cls-5" d="M106.85,79.79a7.26,7.26,0,0,0,1-3c.2-3.19-2.6-5.66-5.11-7.63a253.55,253.55,0,0,1-32.6-30.84C68.73,36.68,67,34.92,64.87,35a4,4,0,0,0-1.32.3l0,.05C73.67,51.15,90.8,61,103.23,75A42.89,42.89,0,0,1,106.85,79.79Z"/>
              <path class="cls-6" d="M66.85,66.73c-1.31-1.43-2.62-2.85-4-4.16-2.84-2.63-6.07-4.77-9-7.29-1.6-1.38-3.1-2.87-4.57-4.39a8,8,0,0,0,1.64,2.39c3.58,3.92,7.87,7.1,11.8,10.66,8.09,7.32,14.66,16.18,22.58,23.69a9.26,9.26,0,0,0,4.1,2.63,5.55,5.55,0,0,0,.9.12c-.25-.14-.47-.26-.64-.38-.83-.59-1.63-1.21-2.41-1.86a89.24,89.24,0,0,1-8.38-8.35Z"/>
              <path class="cls-8" d="M64.87,35a6.9,6.9,0,0,0-4,2,71.72,71.72,0,0,0-8.66,8.68c-.82,1-2.69,2.54-3.09,3.71a1.76,1.76,0,0,0-.09.55,1.27,1.27,0,0,0,.29,0,3.78,3.78,0,0,0,2.06-.66c2.87-1.7,5.07-4.3,7.22-6.85L65,35Z"/>
              <path class="cls-7" d="M75,71.53c3.73,4.21,7.23,8.92,12.29,11.36a3.89,3.89,0,0,0,2.34.51,13.21,13.21,0,0,0-2.85-4.63c-1.74-2-3.57-4-5.4-6l-7-7.57c-2.16-2.34-4.33-4.68-6.65-6.87A26.33,26.33,0,0,0,60.3,53c-1.94-.84-3.89.55-2.43,2.57A8.17,8.17,0,0,0,59.68,57c1.07.82,2.06,1.77,3.08,2.67A138,138,0,0,1,75,71.53Z"/>
              <path class="cls-9" d="M57.84,42.74c1-1.07,2.79-3,2.93-4.45-.12-.13-1.81,1.17-3.17,2.59-.72.75-1.53,1.42-2.25,2.17s-1.38,1.49-2,2.27c-.41.5-1.48,1.46-1.35,2.16.89.05,2.34-1.45,3-2A28.28,28.28,0,0,0,57.84,42.74Z"/>
            </g>
            <path class="cls-10" d="M175,142.75c-4.54-3.83-9-7.8-13.15-12l.59,1.65q1.18,3.28,2.42,6.56a60,60,0,0,0,3,7,53.66,53.66,0,0,0,7.12,9.85c1,1.16,2,2.31,3.12,3.38a39.07,39.07,0,0,0,4.64,3.78,21.61,21.61,0,0,0,2.58-3.59,108.43,108.43,0,0,1-8.11-12.56Q176,144.79,175,142.75Z"/>
            <path class="cls-10" d="M182.63,149.05c-6.1-4.87-12.09-9.91-17.75-15.3l.84,3c.47,1.65.93,3.3,1.55,4.89a41.31,41.31,0,0,0,3.06,6c3.35,5.63,7.47,11.06,12.62,15a20.72,20.72,0,0,0,3.2-5,7.92,7.92,0,0,0,.51-1.41q-1.38-3.21-3-6.32C183.32,149.61,183,149.32,182.63,149.05Z"/>
            <g>
              <path class="cls-11" d="M151.41,107.51c4.73,3.44,7.83,8.69,10,14.11s3.57,11.14,5.63,16.61c5.55,14.74,16.41,27.75,30.71,34.36.09-3.74-2.74-6.68-4.77-9.82-3.94-6.11-5.19-13.53-7.93-20.27a75.59,75.59,0,0,0-5.43-10.45A72.91,72.91,0,0,0,168,116.72C163.35,112.28,157.74,108.67,151.41,107.51Z"/>
              <path class="cls-12" d="M197.7,171.63c-.36-3.29-2.85-6-4.7-8.86-3.94-6.11-5.19-13.53-7.93-20.27a75.59,75.59,0,0,0-5.43-10.45A72.91,72.91,0,0,0,168,116.72a43.76,43.76,0,0,0-4.76-3.93c.56.6,1.13,1.19,1.68,1.79a68.6,68.6,0,0,1,9,12.87c4.69,8.4,8.15,17.39,12.36,26C187.39,155.62,193,166.71,197.7,171.63Z"/>
              <path class="cls-13" d="M161.43,121.62c2.18,5.43,3.57,11.14,5.63,16.61,4.69,12.46,13.18,23.65,24.32,30.82-.63-.46-1.25-.92-1.83-1.4-2.06-1.74-4.05-3.57-5.93-5.5a72.7,72.7,0,0,1-9.81-12.44,63.27,63.27,0,0,1-4.22-8c-2.56-5.88-4.18-12.14-6.58-18.1s-5.72-11.77-10.86-15.62c-.21-.15-.43-.29-.66-.43l-.08,0C156.14,111,159.24,116.2,161.43,121.62Z"/>
              <path class="cls-12" d="M197.65,171.11c-8-8.11-12.82-18-20-33.79-8.3-18.17-19.35-26.34-19.46-26.42s10.22,9,18.39,26.91c7.34,16.1,12.19,26.15,20.56,34.46l.64.32A8,8,0,0,0,197.65,171.11Z"/>
            </g>
          </g>
        </g>
      </g>
    </g>
  </g>
</svg>
