<svg xmlns="http://www.w3.org/2000/svg" width="224.51" height="189.46" viewBox="0 0 224.51 189.46">
  <defs>
    <style>
      .cls-1 {
        isolation: isolate;
      }

      .cls-2 {
        fill: #050505;
        opacity: 0.5;
      }

      .cls-3 {
        fill: #fff;
      }

      .cls-4 {
        fill: #3d8ea1;
      }

      .cls-5 {
        fill: #7bb8d5;
      }

      .cls-6 {
        fill: #9ad0e8;
      }

      .cls-7 {
        fill: #d8f4ff;
      }

      .cls-8 {
        fill: #fcffff;
      }

      .cls-9 {
        fill: #fffffb;
      }

      .cls-10 {
        fill: #2790ad;
      }

      .cls-11 {
        fill: #74b7d1;
      }

      .cls-12 {
        fill: #99d1ec;
      }

      .cls-13 {
        fill: #d3f5ff;
      }

      .cls-14 {
        fill: #fffcfc;
      }

      .cls-15 {
        fill: #41a022;
      }

      .cls-16, .cls-20 {
        fill: none;
        stroke-miterlimit: 10;
      }

      .cls-16 {
        stroke: #38841c;
        stroke-width: 0.65px;
      }

      .cls-17 {
        fill: #204910;
      }

      .cls-18 {
        fill: #8fc12f;
      }

      .cls-19 {
        fill: #48bc28;
      }

      .cls-20 {
        stroke: #45a525;
        stroke-width: 1.3px;
      }

      .cls-21 {
        opacity: 0.69;
        mix-blend-mode: screen;
      }

      .cls-22 {
        fill: #b0e573;
      }

      .cls-23 {
        opacity: 0.51;
      }

      .cls-24 {
        fill: #b6f261;
      }

      .cls-25 {
        opacity: 0.32;
      }

      .cls-26 {
        fill: #73b5cb;
      }

      .cls-27 {
        fill: #92ceea;
      }

      .cls-28 {
        fill: #fefefe;
      }

      .cls-29 {
        fill: #fffffa;
      }
    </style>
  </defs>
  <g class="cls-1">
    <g id="Layer_1" data-name="Layer 1">
      <g>
        <path class="cls-2" d="M197.26,188.33a25.63,25.63,0,0,1-9.14-1.71c-.63-.24-1.27-.51-1.89-.82a22.94,22.94,0,0,1-12.62-16.21,34,34,0,0,1-.55-10.65A47.86,47.86,0,0,1,160,164.66c-.66.18-1.42.37-2.19.54a4,4,0,0,1-.48.09c-1.34.22-2.67.37-4,.46-1.07.09-2.16.13-3.22.13-16,0-27.74-9.25-34.1-18.6h-1.55a116.36,116.36,0,0,1-12.43-.67,80.43,80.43,0,0,1-13-2.24,99.15,99.15,0,0,1-9.77-2.85c-9.81-2.9-34.07-12.78-52.34-42.74a110.3,110.3,0,0,1-8.78-17.22A56.53,56.53,0,0,1,12.4,60a34.78,34.78,0,0,1,.3-11,32.33,32.33,0,0,1,4.68-10.87,8.74,8.74,0,0,1-1.14.08A8,8,0,0,1,9.15,26.6l3-6.2a8,8,0,0,1,4.41-4,35.24,35.24,0,0,1,13-2.33,54.07,54.07,0,0,1,13.29,1.79c1,.25,2,.52,3,.82,3.1-4.16,8.52-7.74,16.65-9.41A51.36,51.36,0,0,1,73.66,6.13a102,102,0,0,1,26,3.89c22.09,6.77,30.28,16.05,36.61,25.88l.41.25a8,8,0,0,1,3.87,6.7c1,1.59,2,3.21,3.06,4.83.85,1.27,2.57,4.07,5.26,8.57,4,6.78,9.24,15.66,12.2,20.73a14.51,14.51,0,0,1,2.12,3.6c12.84,20.69,25.11,32.45,30,36.73,1,.78,2.07,1.62,3.16,2.55a18,18,0,0,0,2.25,1.33,8,8,0,0,1,5.43,9.49s0,.06,0,.09a8,8,0,0,1-1,2.44c5.48,4.57,16.55,13.93,18.18,27.59a8.48,8.48,0,0,1,.06.87c.19,21.65-14.36,25-19.15,26.13a21.14,21.14,0,0,1-4.8.53Z"/>
        <path class="cls-3" d="M192.26,183.33a25.63,25.63,0,0,1-9.14-1.71c-.63-.24-1.27-.51-1.89-.82a22.94,22.94,0,0,1-12.62-16.21,34,34,0,0,1-.55-10.65A47.86,47.86,0,0,1,155,159.66c-.66.18-1.42.37-2.19.54a4,4,0,0,1-.48.09c-1.34.22-2.67.37-4,.46-1.07.09-2.16.13-3.22.13-16,0-27.74-9.25-34.1-18.6h-1.55A116.36,116.36,0,0,1,97,141.62a80.43,80.43,0,0,1-13-2.24,99.15,99.15,0,0,1-9.77-2.85c-9.81-2.9-34.07-12.78-52.34-42.74a110.3,110.3,0,0,1-8.78-17.22A56.53,56.53,0,0,1,7.4,55a34.78,34.78,0,0,1,.3-11,32.33,32.33,0,0,1,4.68-10.87,8.74,8.74,0,0,1-1.14.08A8,8,0,0,1,4.15,21.6l3-6.2a8,8,0,0,1,4.41-4A35.24,35.24,0,0,1,24.57,9a54.07,54.07,0,0,1,13.29,1.79c1,.25,2,.52,3,.82C44,7.49,49.42,3.91,57.55,2.24A51.36,51.36,0,0,1,68.66,1.13,102,102,0,0,1,94.61,5c22.09,6.77,30.28,16.05,36.61,25.88l.41.25a8,8,0,0,1,3.87,6.7c1,1.59,2,3.21,3.06,4.83.85,1.27,2.57,4.07,5.26,8.57,4,6.78,9.24,15.66,12.2,20.73a14.51,14.51,0,0,1,2.12,3.6c12.84,20.69,25.11,32.45,30,36.73,1,.78,2.07,1.62,3.16,2.55a18,18,0,0,0,2.25,1.33,8,8,0,0,1,5.43,9.49s0,.06,0,.09a8,8,0,0,1-1,2.44c5.48,4.57,16.55,13.93,18.18,27.59a8.48,8.48,0,0,1,.06.87c.19,21.65-14.36,25-19.15,26.13a21.14,21.14,0,0,1-4.8.53Z"/>
        <g>
          <g>
            <path class="cls-4" d="M183.88,121.89s-8,23.87-31,30c18.3-8.44,24.76-28.73,24.76-28.73l-62.15,11-.06-.13Z"/>
            <path class="cls-5" d="M177.65,123.2s-6.46,20.29-24.76,28.73c-.6.17-1.22.32-1.85.46q-1.68.27-3.27.39c13-6.28,19.88-18.56,22.64-24.72a2.18,2.18,0,0,0-2.37-3l-52.48,9.27-.06-.12Z"/>
            <path class="cls-6" d="M170.41,128.06c-2.76,6.16-9.63,18.44-22.64,24.72-21.31,1.57-31-16.17-32.21-18.49L168,125A2.18,2.18,0,0,1,170.41,128.06Z"/>
            <path class="cls-7" d="M119.38,133.75s27.07-4.39,39.25,1.66c2.78,1.44-4.32,10.84-13.25,11.13S122.73,143.07,119.38,133.75Z"/>
            <path class="cls-8" d="M137.32,141.16s1.35-3.27,2.79-3.55,15,0,15.16,1-1.44,5.27-8.93,5.27S137.32,141.16,137.32,141.16Z"/>
            <path class="cls-9" d="M138.48,136.93s-6.34-1.73-8.26-1.34-3.84.76-4.22,1.34,7.19,3.55,9.31,4.13S138.48,136.93,138.48,136.93Z"/>
          </g>
          <g>
            <path class="cls-10" d="M208.21,156.75c.13,14.38-7.38,17-13,18.26a16.58,16.58,0,0,1-9.26-.85,15.93,15.93,0,0,0,7.13.18c5.57-1.29,13.08-3.88,12.95-18.26-1.22-10.24-10.06-18-15.52-22.52-4.35-3.51-4.8-8.53-4.35-9.9,0-.15.07-.29.09-.41l2.33-.25-.28,1.33c-.45,1.37,0,6.38,4.35,9.89C198.15,138.79,207,146.51,208.21,156.75Z"/>
            <path class="cls-11" d="M206.07,156.08c.13,14.38-7.38,17-12.95,18.26a15.93,15.93,0,0,1-7.13-.18c-.43-.17-.85-.35-1.27-.56a15.47,15.47,0,0,0,6.43,0c5.58-1.29,13.09-3.88,12.95-18.26-1.22-10.24-10-18-15.52-22.53a11.5,11.5,0,0,1-4.45-9.36l2.16-.24c0,.12,0,.26-.09.41-.45,1.37,0,6.39,4.35,9.9C196,138.12,204.85,145.84,206.07,156.08Z"/>
            <path class="cls-12" d="M204.1,155.38c.14,14.38-7.37,17-12.95,18.26a15.47,15.47,0,0,1-6.43,0,14.94,14.94,0,0,1-8.29-10.7c-2.45-11.36,3.84-21.92,6.82-28,2.53-8.35-1.68-11.16-1.68-11.16l2.56-.27a11.5,11.5,0,0,0,4.45,9.36C194.05,137.42,202.88,145.14,204.1,155.38Z"/>
            <g>
              <path class="cls-13" d="M185.22,134.71s-10.22,16.44-7,26.37,7.82,10.84,13.61,9.69,6.49-10.42,4.49-15.85S186.83,135.48,185.22,134.71Z"/>
              <path class="cls-14" d="M182.4,142.56s-9.76,18.72,1.95,26.24c1.23.66,1.86-1.65,1.83-1.83S183.49,145.26,182.4,142.56Z"/>
            </g>
          </g>
          <g>
            <path class="cls-15" d="M50.86,24.38s-21-11.76-36.53-5.52l-3,6.26S25.58,17.07,49,25Z"/>
            <path class="cls-16" d="M50.86,24.38s-21-11.76-36.53-5.52l-3,6.26S25.58,17.07,49,25Z"/>
            <path class="cls-17" d="M11.33,25.12S25.31,16.65,49,25l.86-.27s-24.66-10-37.92-.77Z"/>
            <path class="cls-18" d="M14.33,18.86s12.17-4.61,28.74,2c0,0-14.81-5.05-28.84-1.72Z"/>
            <path class="cls-19" d="M78,75.22c-45.63-43-32.08-52.38-32.08-52.38C43.4,15.12,57,2.75,92.77,13.32c27.37,8.1,31.71,22.15,52.68,58,23.57,40.24,42.44,51.67,45.78,52.56C170.47,119.47,112,107.35,78,75.22"/>
            <path class="cls-20" d="M78,75.22c-45.63-43-32.08-52.38-32.08-52.38C43.4,15.12,57,2.75,92.77,13.32c27.37,8.1,31.71,22.15,52.68,58,23.57,40.24,42.44,51.67,45.78,52.56C170.47,119.47,112,107.35,78,75.22Z"/>
            <path class="cls-15" d="M15.52,45.72c2.86-13,18.3-23.61,30.36-22.88,0,0-.53,30.2,46.73,61.43,39.07,25.8,77.34,35.2,98.1,39.56a4.27,4.27,0,0,0,.49.11c-14.83-2.27-44.74,10-80.82,10.34C36.9,134.9,11.5,64,15.52,45.72"/>
            <path class="cls-16" d="M15.52,45.72c2.86-13,18.3-23.61,30.36-22.88,0,0-.53,30.2,46.73,61.43,39.07,25.8,77.34,35.2,98.1,39.56a4.27,4.27,0,0,0,.49.11c-14.83-2.27-44.74,10-80.82,10.34C36.9,134.9,11.5,64,15.52,45.72Z"/>
            <g class="cls-21">
              <path class="cls-22" d="M105.33,134.14s-.07-.14-.27-.36l-.89-1a29.91,29.91,0,0,1-3.08-4.33,50,50,0,0,1-3.65-7.75c-1.21-3.16-2.36-6.87-3.52-11.16-.83-3-1.68-6.42-2.57-9.77S89.53,93.06,88.49,90a38,38,0,0,0-3.44-7.63,15.94,15.94,0,0,0-1.62-2.18l-.29-.31-.23-.23-.18-.18.18.19.22.22.29.32A16.19,16.19,0,0,1,85,82.41,36.9,36.9,0,0,1,88.21,90c1,3,1.82,6.32,2.64,9.66s1.62,6.69,2.43,9.75a111.78,111.78,0,0,0,3.5,11.22,47.48,47.48,0,0,0,3.81,7.92,25.6,25.6,0,0,0,3.36,4.42,13.81,13.81,0,0,0,1,.95c.23.19.35.27.37.25"/>
            </g>
            <g class="cls-21">
              <path class="cls-22" d="M57.12,54.15a18.85,18.85,0,0,0,1.1,1.9,19.6,19.6,0,0,1,1.07,2.48,31,31,0,0,1,1,3.61,81.64,81.64,0,0,1,1.39,10.63c.34,4.32.57,9.42,1.05,15.44a135.58,135.58,0,0,0,1.73,13.87A64.25,64.25,0,0,0,68.54,116a41.48,41.48,0,0,0,3,5.73,34.31,34.31,0,0,0,3.18,4.24c.48.57,1,1,1.37,1.48l1.1,1,1,.83-.94-.85-1.07-1.07c-.39-.43-.86-.92-1.34-1.49a34.59,34.59,0,0,1-3.07-4.26,40,40,0,0,1-2.88-5.71,64.19,64.19,0,0,1-3.78-13.74c-.8-4.77-1.23-9.51-1.54-13.77-.43-6-.64-11.1-1-15.44A73.3,73.3,0,0,0,61,62.19a29.71,29.71,0,0,0-1.15-3.72,17.39,17.39,0,0,0-1.27-2.56c-.84-1.3-1.45-1.8-1.5-1.76"/>
            </g>
            <g class="cls-21">
              <path class="cls-22" d="M45.17,25.19c-.11.09.33.66.55,2.12a33.6,33.6,0,0,1,.06,6.8c-.2,3.09-.62,7-1.11,11.89s-1.05,10.66-1.3,17.49a125.8,125.8,0,0,0,.36,15.63c.25,2.69.6,5.36,1.08,7.93a67.44,67.44,0,0,0,1.77,7.34,55.36,55.36,0,0,0,2.29,6.26,52.88,52.88,0,0,0,2.4,4.74c.76,1.29,1.41,2.3,1.88,3l.74,1-.7-1.06c-.46-.69-1.08-1.71-1.8-3a51.48,51.48,0,0,1-2.24-4.78A53.83,53.83,0,0,1,47,94.29,68.74,68.74,0,0,1,45.46,87c-.41-2.56-.71-5.21-.91-7.87a139.25,139.25,0,0,1-.12-15.51c.3-6.79.9-12.56,1.36-17.42s.86-8.82,1-12a25,25,0,0,0-.44-7,4.73,4.73,0,0,0-.7-1.62c-.23-.32-.4-.43-.45-.4"/>
            </g>
            <g class="cls-21">
              <path class="cls-22" d="M113.57,97.3s.22.31.68.91A22.45,22.45,0,0,1,116,101c.7,1.3,1.49,3,2.37,5s1.86,4.43,3.06,7.26c.85,2,1.82,4.24,2.92,6.48A55.2,55.2,0,0,0,128,126.2a30.4,30.4,0,0,0,2,2.69,20.71,20.71,0,0,0,1.9,2c.58.52,1.06.89,1.4,1.14l.39.27.13.09-.13-.09-.39-.28c-.33-.26-.81-.64-1.37-1.17a22.33,22.33,0,0,1-1.84-2,30.27,30.27,0,0,1-1.92-2.67,54.71,54.71,0,0,1-3.46-6.39c-1-2.22-2-4.43-2.8-6.43-1.17-2.81-2.14-5.22-3-7.26a53.77,53.77,0,0,0-2.46-5c-.38-.67-.75-1.24-1.09-1.73a12.4,12.4,0,0,0-.91-1.19c-.54-.61-.87-.85-.89-.82"/>
            </g>
            <g class="cls-21">
              <path class="cls-22" d="M147.42,112.76c-.06.06,0,.22.13.49s.15.32.27.52.23.46.34.77a13.6,13.6,0,0,1,.69,2.49c.2,1.07.34,2.38.52,3.94a24.9,24.9,0,0,0,.58,3.49,7.34,7.34,0,0,0,1.4,3,4.28,4.28,0,0,0,2,1.34l.41.11.33,0,.27,0-.26-.06-.31-.08-.39-.15a4.15,4.15,0,0,1-1.84-1.47,7.75,7.75,0,0,1-1.15-3c-.23-1.16-.33-2.39-.44-3.5a39.68,39.68,0,0,0-.48-4,10.13,10.13,0,0,0-.8-2.55,5.28,5.28,0,0,0-.45-.75,4,4,0,0,0-.4-.45c-.25-.2-.4-.27-.46-.2"/>
            </g>
            <g class="cls-21">
              <path class="cls-22" d="M56.68,52.53c-.11.14.22.54,1.31.79a13.52,13.52,0,0,0,5.72-.54A85.53,85.53,0,0,0,74.31,49c4.34-1.77,9.5-4.05,15.49-6.44a142.74,142.74,0,0,1,13.53-4.72,54.15,54.15,0,0,1,12.7-2.2,24.58,24.58,0,0,1,8.55,1.07,19.67,19.67,0,0,1,2.17.89l.75.38-.71-.43a21.52,21.52,0,0,0-2.09-1A23.3,23.3,0,0,0,116.3,35a50,50,0,0,0-12.71,1.77A120.45,120.45,0,0,0,90,41.28c-6,2.33-11.19,4.59-15.51,6.36A107.73,107.73,0,0,1,64,51.52a20.69,20.69,0,0,1-5.61,1c-1.11,0-1.6-.15-1.72,0"/>
            </g>
            <g class="cls-21">
              <path class="cls-22" d="M75.77,72c0,.06.15.1.45.13l.55,0a5.43,5.43,0,0,0,.79,0,20.87,20.87,0,0,0,5.22-1.22A61.74,61.74,0,0,0,91,67.15c3.25-1.67,7-3.81,11.46-6.11,1.59-.83,3.29-1.65,5.06-2.47S111.12,57,113,56.31a51,51,0,0,1,5.7-1.72c.94-.25,1.9-.4,2.83-.57.47-.09.94-.13,1.4-.19s.91-.13,1.37-.14c.91,0,1.78-.14,2.63-.1h1.25c.4,0,.8.06,1.19.09l1.12.1,1.05.16,1,.16.89.2c.56.15,1.07.25,1.5.38l1.1.36.94.31L136,55l-1.1-.4c-.43-.15-.94-.27-1.49-.43l-.89-.24-1-.19-1.06-.21c-.36-.06-.74-.09-1.13-.14l-1.21-.13-1.26-.06c-.87-.06-1.76,0-2.68,0-.47,0-.93.07-1.4.1s-1,.08-1.44.15c-1,.14-1.94.27-2.91.49a47.06,47.06,0,0,0-5.86,1.59c-1.94.64-3.82,1.39-5.63,2.16s-3.54,1.6-5.15,2.41c-4.55,2.27-8.3,4.39-11.52,6.06a80.4,80.4,0,0,1-8,3.8,30.4,30.4,0,0,1-4.91,1.51,6.67,6.67,0,0,1-.72.15,3.85,3.85,0,0,0-.52.11c-.26.07-.4.13-.39.2"/>
            </g>
            <g class="cls-21">
              <path class="cls-22" d="M95.12,84.41c-.23.27-.07.63.62,1a9.71,9.71,0,0,0,4.36.24,62,62,0,0,0,9.41-2.15c4-1.16,8.95-2.8,14.55-4.47a106.33,106.33,0,0,1,12.19-3,23.65,23.65,0,0,1,9.86-.08,6.81,6.81,0,0,1,4.51,3.49c.15.35.31.65.41.94s.15.58.2.81l.17.69s0-.28-.08-.77c0-.24-.07-.54-.1-.9s-.19-.66-.3-1.06A6.73,6.73,0,0,0,147,74.89c-2.27-1-5.59-1.17-9.43-.7a80.43,80.43,0,0,0-12,2.57c-5.56,1.56-10.45,3.15-14.45,4.32a92,92,0,0,1-9.44,2.4c-4.62.87-6,.31-6.54.93"/>
            </g>
            <g class="cls-21">
              <path class="cls-22" d="M146.66,111.73c0,.12.17.25.65.39a7.31,7.31,0,0,0,2.26.2,13,13,0,0,0,1.72-.2c.63-.13,1.32-.28,2.05-.5,1.47-.41,3.12-1,5.1-1.58a34.88,34.88,0,0,1,4.59-1,28.24,28.24,0,0,1,4.7-.26,34,34,0,0,1,3.64.33l1.06.18.38.07-.37-.11-1-.27a30,30,0,0,0-3.64-.63,24.63,24.63,0,0,0-4.88-.07,27.8,27.8,0,0,0-4.82.83c-2.06.54-3.73,1.12-5.15,1.53a20.27,20.27,0,0,1-3.48.77c-1.84.22-2.72.07-2.77.33"/>
            </g>
            <g class="cls-21">
              <path class="cls-22" d="M46.37,27.17c0,.14.36.41,1.33.77a16.94,16.94,0,0,0,4.72.68,41.51,41.51,0,0,0,8.23-.88c3.31-.65,7.19-1.68,11.66-3,6.36-1.88,14-4.42,20.29-5.58,1.57-.31,3.05-.5,4.37-.65.67-.06,1.3-.12,1.88-.15l1.62-.05,1.33.05c.39,0,.71.05,1,.07l.84.08-.83-.13c-.26,0-.59-.1-1-.13l-1.33-.11-1.63,0c-.58,0-1.22,0-1.9,0-1.34.09-2.83.2-4.42.45-6.38.87-14.18,3.12-20.54,4.9-4.48,1.26-8.31,2.24-11.57,2.9a48.71,48.71,0,0,1-8,1c-4.16.11-6-.61-6.08-.25"/>
            </g>
            <g class="cls-21">
              <path class="cls-22" d="M113.82,98.24c-.18.22,0,.54.61.9a8.93,8.93,0,0,0,3.84.51,49.49,49.49,0,0,0,8.1-1.2c3.45-.74,7.66-1.82,12.44-2.88a85.46,85.46,0,0,1,10.49-1.78,21.29,21.29,0,0,1,8.63.62,7.39,7.39,0,0,1,4.2,3.35c.16.31.32.58.43.85s.17.51.23.71l.2.61s0-.24-.13-.67l-.15-.79c-.09-.29-.21-.59-.33-.94a7.39,7.39,0,0,0-3.75-4,18.06,18.06,0,0,0-8.31-1.27A65.84,65.84,0,0,0,140,93.71c-4.76,1-8.94,2-12.36,2.75a76.54,76.54,0,0,1-8.11,1.43c-4,.43-5.23-.15-5.67.35"/>
            </g>
            <path class="cls-22" d="M45.88,22.84a27.76,27.76,0,0,0,.53,5.76,44.75,44.75,0,0,0,1.39,5.59,60.52,60.52,0,0,0,4.52,10.53A84.89,84.89,0,0,0,66.05,63c10.69,11,23.53,19.62,37,27,.82.49,1.67.94,2.53,1.38l2.55,1.33L110.64,94l1.27.66,1.3.63,5.22,2.47c.87.41,1.73.84,2.61,1.23l2.64,1.15,5.29,2.33c.88.4,1.77.76,2.67,1.12l2.68,1.07,5.37,2.16c1.79.7,3.61,1.35,5.41,2,14.47,5.4,29.23,10,44.09,14.51a355.75,355.75,0,0,1-45.08-11.7c-1.84-.62-3.7-1.2-5.54-1.85l-5.47-2-2.73-1c-.91-.34-1.83-.68-2.72-1.06l-5.41-2.24-2.69-1.12c-.9-.39-1.77-.82-2.66-1.23l-5.31-2.47-1.32-.62-1.3-.66-2.61-1.34-2.61-1.34c-.87-.44-1.74-.88-2.58-1.38l-5.09-2.92-1.27-.73-1.24-.78-2.48-1.57c-1.65-1-3.32-2.07-4.91-3.22s-3.23-2.21-4.79-3.4L76.74,77.1c-1.52-1.25-3-2.55-4.48-3.82-.76-.63-1.46-1.32-2.17-2l-2.13-2c-.72-.67-1.39-1.39-2.06-2.11l-2-2.15c-.69-.7-1.3-1.48-1.93-2.23l-1.9-2.26c-.61-.76-1.19-1.56-1.78-2.34L57.4,57c-.3-.39-.58-.79-.85-1.21-1.07-1.65-2.19-3.26-3.14-5s-1.88-3.45-2.76-5.21a58.63,58.63,0,0,1-3.86-11.1,34.8,34.8,0,0,1-.91-11.62"/>
            <g class="cls-23">
              <path class="cls-24" d="M45.75,20.62S91.18-2.77,123.68,39c7.17,9.19,11.55,27.19,18.62,36.46,34.79,45.51,31.95,35.09,44.18,45.8,0,0-17.26-12.38-35.56-42.13,0,0-16-27.56-19-32-9.55-14.26-12.12-26-39.6-34.45,0,0-39.66-11.93-46.56,7.94"/>
            </g>
            <g class="cls-25">
              <path class="cls-17" d="M37.3,24.59S12.57,39.85,27.53,76.72c0,0,33.46,62,91.35,54.35,0,0,55-9.4,63-7.67,0,0-12.48,1.25-33.37,6.79,0,0-44.85,9.11-67.67-.28,0,0-39.19-5.93-60.44-56.7,0,0-19.13-35.18,16.87-48.62"/>
            </g>
          </g>
          <g>
            <path class="cls-26" d="M112,65.53c-1.31,6.46-5.45,16.81-28,19.74C70.4,87,62.05,82.82,57.56,79.2a10.92,10.92,0,0,1-4-7.37c3.54,4.24,13.77,13,35.23,8C107,74.63,108.93,70.21,111,60.91A7.1,7.1,0,0,1,112,65.53Z"/>
            <path class="cls-27" d="M90,47.49C80.49,47,56.39,47,53.59,69.38a10.58,10.58,0,0,0,0,2.45c3.54,4.24,13.77,13,35.23,8C107,74.63,108.93,70.21,111,60.91h0C107.79,54.82,97.93,47.9,90,47.49Zm16.16,16.79c-8.29,9.9-34.72,10-34.72,10-4.94,1.26-11.8-1.9-13.26-5.06s-2.06-14,12.84-18.4a45.61,45.61,0,0,1,28.74.76C102,52.42,107.82,59.67,106.11,64.28Z"/>
            <path class="cls-13" d="M99.71,51.57A45.61,45.61,0,0,0,71,50.81c-14.9,4.36-14.29,15.24-12.84,18.4s8.32,6.32,13.26,5.06c0,0,26.43-.09,34.72-10C107.82,59.67,102,52.42,99.71,51.57ZM83.17,60c-3.82,2-16.67,4.17-19.51,2.65s-.4-7.25,5.27-9.62,16.73-4.77,21.15-1.28C90.08,51.71,87,58,83.17,60Zm9.69-.74C88.58,60,86.27,59.1,87,58s4.28-6.14,4.28-6.14c3,.33,6.4,1.91,6.2,3.69S97.14,58.49,92.86,59.22Z"/>
            <path class="cls-28" d="M90.08,51.71S87,58,83.17,60,66.5,64.13,63.66,62.61s-.4-7.25,5.27-9.62S85.66,48.22,90.08,51.71Z"/>
            <path class="cls-29" d="M97.47,55.53c-.2,1.78-.33,3-4.61,3.69S86.27,59.1,87,58s4.28-6.14,4.28-6.14C94.24,52.17,97.67,53.75,97.47,55.53Z"/>
          </g>
        </g>
      </g>
    </g>
  </g>
</svg>
