<svg xmlns="http://www.w3.org/2000/svg" xmlns:xlink="http://www.w3.org/1999/xlink" width="400.23" height="291.06" viewBox="0 0 400.23 291.06">
  <defs>
    <style>
      .cls-1 {
        mask: url(#mask);
        filter: url(#luminosity-noclip-5);
      }

      .cls-12, .cls-2, .cls-25, .cls-32, .cls-4, .cls-43, .cls-44, .cls-50, .cls-6, .cls-67, .cls-75, .cls-8, .cls-80 {
        mix-blend-mode: multiply;
      }

      .cls-2 {
        fill: url(#radial-gradient);
      }

      .cls-3 {
        mask: url(#mask-2);
        filter: url(#luminosity-noclip-14);
      }

      .cls-4 {
        fill: url(#radial-gradient-2);
      }

      .cls-5 {
        mask: url(#mask-3);
        filter: url(#luminosity-noclip-25);
      }

      .cls-6 {
        fill: url(#radial-gradient-3);
      }

      .cls-7 {
        mask: url(#mask-4);
        filter: url(#luminosity-noclip-8);
      }

      .cls-8 {
        fill: url(#radial-gradient-4);
      }

      .cls-9 {
        isolation: isolate;
      }

      .cls-10 {
        fill: #fffa4d;
      }

      .cls-11 {
        fill: #dcae50;
        stroke-width: 2px;
      }

      .cls-11, .cls-54 {
        stroke: #886a29;
        stroke-miterlimit: 10;
      }

      .cls-12 {
        opacity: 0.8;
      }

      .cls-13 {
        fill: url(#radial-gradient-5);
      }

      .cls-14 {
        fill: url(#radial-gradient-6);
      }

      .cls-15 {
        fill: url(#radial-gradient-7);
      }

      .cls-16 {
        fill: url(#radial-gradient-8);
      }

      .cls-17 {
        fill: url(#radial-gradient-9);
      }

      .cls-18 {
        fill: url(#radial-gradient-10);
      }

      .cls-19 {
        fill: url(#radial-gradient-11);
      }

      .cls-20 {
        fill: url(#radial-gradient-12);
      }

      .cls-21 {
        fill: url(#radial-gradient-13);
      }

      .cls-22 {
        fill: url(#radial-gradient-14);
      }

      .cls-23 {
        fill: url(#radial-gradient-15);
      }

      .cls-24 {
        mask: url(#mask-5);
      }

      .cls-25, .cls-26, .cls-29, .cls-32, .cls-33, .cls-35, .cls-37, .cls-39, .cls-43 {
        opacity: 0.7;
      }

      .cls-25 {
        fill: url(#radial-gradient-16);
      }

      .cls-26 {
        fill: url(#radial-gradient-17);
      }

      .cls-27 {
        mask: url(#mask-6);
      }

      .cls-28, .cls-65, .cls-67, .cls-75 {
        fill: #daa44b;
      }

      .cls-28 {
        opacity: 0.01;
      }

      .cls-29 {
        fill: url(#radial-gradient-18);
      }

      .cls-30 {
        mask: url(#mask-7);
      }

      .cls-31 {
        mask: url(#mask-8);
      }

      .cls-32 {
        fill: url(#radial-gradient-19);
      }

      .cls-33 {
        fill: url(#radial-gradient-20);
      }

      .cls-34 {
        mask: url(#mask-9);
      }

      .cls-35 {
        fill: url(#radial-gradient-21);
      }

      .cls-36 {
        mask: url(#mask-10);
      }

      .cls-37 {
        fill: url(#radial-gradient-22);
      }

      .cls-38 {
        mask: url(#mask-11);
      }

      .cls-39 {
        fill: url(#radial-gradient-23);
      }

      .cls-40 {
        mask: url(#mask-12);
      }

      .cls-41 {
        mask: url(#mask-13);
      }

      .cls-42 {
        mask: url(#mask-14);
      }

      .cls-43 {
        fill: url(#radial-gradient-24);
      }

      .cls-44, .cls-52 {
        opacity: 0.3;
      }

      .cls-45 {
        fill: url(#radial-gradient-25);
      }

      .cls-46, .cls-48 {
        opacity: 0.5;
      }

      .cls-46 {
        mix-blend-mode: screen;
      }

      .cls-47, .cls-54 {
        fill: #e9c05f;
      }

      .cls-49 {
        fill: #d5a13e;
      }

      .cls-50 {
        opacity: 0.2;
      }

      .cls-51, .cls-80 {
        fill: #c5923b;
      }

      .cls-53 {
        fill: #63411c;
      }

      .cls-55 {
        fill: url(#radial-gradient-26);
      }

      .cls-56 {
        fill: url(#radial-gradient-27);
      }

      .cls-57, .cls-67 {
        opacity: 0.27;
      }

      .cls-57 {
        fill: url(#radial-gradient-28);
      }

      .cls-58 {
        fill: url(#radial-gradient-29);
      }

      .cls-59 {
        fill: url(#radial-gradient-30);
      }

      .cls-60 {
        fill: url(#radial-gradient-31);
      }

      .cls-61 {
        fill: url(#radial-gradient-32);
      }

      .cls-62 {
        fill: url(#radial-gradient-33);
      }

      .cls-63 {
        fill: url(#radial-gradient-34);
      }

      .cls-64 {
        fill: url(#radial-gradient-35);
      }

      .cls-66 {
        mask: url(#mask-15);
      }

      .cls-68 {
        mask: url(#mask-16);
      }

      .cls-69 {
        mask: url(#mask-17);
      }

      .cls-70 {
        mask: url(#mask-18);
      }

      .cls-71 {
        fill: url(#radial-gradient-36);
      }

      .cls-72 {
        mask: url(#mask-19);
      }

      .cls-73 {
        mask: url(#mask-20);
      }

      .cls-74 {
        mask: url(#mask-21);
      }

      .cls-75 {
        opacity: 0.36;
      }

      .cls-76 {
        mask: url(#mask-22);
      }

      .cls-77 {
        mask: url(#mask-23);
      }

      .cls-78 {
        mask: url(#mask-24);
      }

      .cls-79 {
        mask: url(#mask-25);
      }

      .cls-81 {
        filter: url(#luminosity-noclip-24);
      }

      .cls-82 {
        filter: url(#luminosity-noclip-23);
      }

      .cls-83 {
        filter: url(#luminosity-noclip-22);
      }

      .cls-84 {
        filter: url(#luminosity-noclip-21);
      }

      .cls-85 {
        filter: url(#luminosity-noclip-20);
      }

      .cls-86 {
        filter: url(#luminosity-noclip-19);
      }

      .cls-87 {
        filter: url(#luminosity-noclip-18);
      }

      .cls-88 {
        filter: url(#luminosity-noclip-17);
      }

      .cls-89 {
        filter: url(#luminosity-noclip-16);
      }

      .cls-90 {
        filter: url(#luminosity-noclip-15);
      }

      .cls-91 {
        filter: url(#luminosity-noclip-13);
      }

      .cls-92 {
        filter: url(#luminosity-noclip-12);
      }

      .cls-93 {
        filter: url(#luminosity-noclip-11);
      }

      .cls-94 {
        filter: url(#luminosity-noclip-10);
      }

      .cls-95 {
        filter: url(#luminosity-noclip-9);
      }

      .cls-96 {
        filter: url(#luminosity-noclip-7);
      }

      .cls-97 {
        filter: url(#luminosity-noclip-6);
      }

      .cls-98 {
        filter: url(#luminosity-noclip-4);
      }

      .cls-99 {
        filter: url(#luminosity-noclip-3);
      }

      .cls-100 {
        filter: url(#luminosity-noclip-2);
      }

      .cls-101 {
        filter: url(#luminosity-noclip);
      }
    </style>
    <filter id="luminosity-noclip" x="193.99" y="-10537.23" width="10.61" height="32766" filterUnits="userSpaceOnUse" color-interpolation-filters="sRGB">
      <feFlood flood-color="#fff" result="bg"/>
      <feBlend in="SourceGraphic" in2="bg"/>
    </filter>
    <mask id="mask" x="193.99" y="-10537.23" width="10.61" height="32766" maskUnits="userSpaceOnUse">
      <g class="cls-101"/>
    </mask>
    <radialGradient id="radial-gradient" cx="167.59" cy="261.54" r="8.06" gradientTransform="translate(34.53 -84.34) scale(0.98 1.03)" gradientUnits="userSpaceOnUse">
      <stop offset="0.08" stop-color="#fff"/>
      <stop offset="1"/>
    </radialGradient>
    <filter id="luminosity-noclip-2" x="203.11" y="-10537.23" width="10.59" height="32766" filterUnits="userSpaceOnUse" color-interpolation-filters="sRGB">
      <feFlood flood-color="#fff" result="bg"/>
      <feBlend in="SourceGraphic" in2="bg"/>
    </filter>
    <mask id="mask-2" x="203.11" y="-10537.23" width="10.59" height="32766" maskUnits="userSpaceOnUse">
      <g class="cls-100"/>
    </mask>
    <radialGradient id="radial-gradient-2" cx="176.84" cy="236.36" r="8.05" xlink:href="#radial-gradient"/>
    <filter id="luminosity-noclip-3" x="173.19" y="-10537.23" width="190.02" height="32766" filterUnits="userSpaceOnUse" color-interpolation-filters="sRGB">
      <feFlood flood-color="#fff" result="bg"/>
      <feBlend in="SourceGraphic" in2="bg"/>
    </filter>
    <mask id="mask-3" x="173.19" y="-10537.23" width="190.02" height="32766" maskUnits="userSpaceOnUse">
      <g class="cls-99"/>
    </mask>
    <radialGradient id="radial-gradient-3" cx="256.66" cy="208.53" r="172.05" gradientTransform="translate(34.53 -84.34) scale(0.98 1.03)" gradientUnits="userSpaceOnUse">
      <stop offset="0.14"/>
      <stop offset="0.92" stop-color="#fff"/>
    </radialGradient>
    <filter id="luminosity-noclip-4" x="196.88" y="-10537.23" width="10.55" height="32766" filterUnits="userSpaceOnUse" color-interpolation-filters="sRGB">
      <feFlood flood-color="#fff" result="bg"/>
      <feBlend in="SourceGraphic" in2="bg"/>
    </filter>
    <mask id="mask-4" x="196.88" y="-10537.23" width="10.55" height="32766" maskUnits="userSpaceOnUse">
      <g class="cls-98"/>
    </mask>
    <radialGradient id="radial-gradient-4" cx="348.26" cy="38.39" r="7.96" gradientTransform="matrix(0.98, -0.08, 0.08, 1.03, -142.28, 78.39)" xlink:href="#radial-gradient"/>
    <radialGradient id="radial-gradient-5" cx="2363.58" cy="-543.44" r="8.88" gradientTransform="matrix(0.67, -0.76, 0.72, 0.7, -1114.42, 2309.82)" gradientUnits="userSpaceOnUse">
      <stop offset="0.14" stop-color="#daa44b"/>
      <stop offset="0.5" stop-color="#c48f40"/>
      <stop offset="0.92" stop-color="#a7722a"/>
    </radialGradient>
    <radialGradient id="radial-gradient-6" cx="-383.94" cy="663.1" r="8.9" gradientTransform="matrix(0.97, 0.19, -0.18, 1.01, 534.02, -424.1)" xlink:href="#radial-gradient-5"/>
    <radialGradient id="radial-gradient-7" cx="827.2" cy="-222.5" r="8.91" gradientTransform="matrix(0.94, -0.31, 0.3, 0.98, -608.55, 690.86)" xlink:href="#radial-gradient-5"/>
    <radialGradient id="radial-gradient-8" cx="758.14" cy="-244.35" r="5.44" gradientTransform="matrix(0.94, -0.31, 0.3, 0.98, -608.55, 690.86)" xlink:href="#radial-gradient-5"/>
    <radialGradient id="radial-gradient-9" cx="901.73" cy="-305.13" r="11.82" gradientTransform="matrix(0.94, -0.31, 0.3, 0.98, -608.55, 690.86)" xlink:href="#radial-gradient-5"/>
    <radialGradient id="radial-gradient-10" cx="-503.72" cy="1015.84" r="9.17" gradientTransform="matrix(0.93, 0.34, -0.32, 0.97, 960.2, -648.07)" xlink:href="#radial-gradient-5"/>
    <radialGradient id="radial-gradient-11" cx="-489.91" cy="1053.02" r="7.3" gradientTransform="matrix(0.93, 0.34, -0.32, 0.97, 960.2, -648.07)" xlink:href="#radial-gradient-5"/>
    <radialGradient id="radial-gradient-12" cx="281.38" cy="166.43" r="7.28" gradientTransform="matrix(0.98, -0.05, 0.05, 1.03, -84.34, 33.76)" xlink:href="#radial-gradient-5"/>
    <radialGradient id="radial-gradient-13" cx="292.34" cy="140.53" r="5.33" gradientTransform="matrix(0.98, -0.05, 0.05, 1.03, -84.34, 33.76)" xlink:href="#radial-gradient-5"/>
    <radialGradient id="radial-gradient-14" cx="264.73" cy="59.17" r="5.34" gradientTransform="matrix(0.98, -0.05, 0.05, 1.03, -84.34, 33.76)" xlink:href="#radial-gradient-5"/>
    <radialGradient id="radial-gradient-15" cx="289.31" cy="74.14" r="6.66" gradientTransform="matrix(0.98, -0.05, 0.05, 1.03, -84.34, 33.76)" xlink:href="#radial-gradient-5"/>
    <filter id="luminosity-noclip-5" x="193.99" y="175.66" width="10.61" height="18.81" filterUnits="userSpaceOnUse" color-interpolation-filters="sRGB">
      <feFlood flood-color="#fff" result="bg"/>
      <feBlend in="SourceGraphic" in2="bg"/>
    </filter>
    <mask id="mask-5" x="193.99" y="175.66" width="10.61" height="18.81" maskUnits="userSpaceOnUse">
      <g class="cls-1">
        <path class="cls-2" d="M204.61,185.06c0,5.19-2.39,9.4-5.31,9.4s-5.31-4.21-5.31-9.4,2.39-9.4,5.31-9.4S204.61,179.86,204.61,185.06Z"/>
      </g>
    </mask>
    <radialGradient id="radial-gradient-16" cx="167.59" cy="261.54" r="8.06" gradientTransform="translate(34.53 -84.34) scale(0.98 1.03)" gradientUnits="userSpaceOnUse">
      <stop offset="0.08" stop-color="#a7722a"/>
      <stop offset="1" stop-color="#daa44b"/>
    </radialGradient>
    <radialGradient id="radial-gradient-17" cx="-522.65" cy="1047.56" r="8.05" gradientTransform="matrix(0.92, 0.35, -0.34, 0.97, 998.8, -668.73)" xlink:href="#radial-gradient-16"/>
    <filter id="luminosity-noclip-6" x="157.26" y="-10537.23" width="11.69" height="32766" filterUnits="userSpaceOnUse" color-interpolation-filters="sRGB">
      <feFlood flood-color="#fff" result="bg"/>
      <feBlend in="SourceGraphic" in2="bg"/>
    </filter>
    <mask id="mask-6" x="157.26" y="-10537.23" width="11.69" height="32766" maskUnits="userSpaceOnUse">
      <g class="cls-97"/>
    </mask>
    <radialGradient id="radial-gradient-18" cx="947.37" cy="-328.82" r="10.64" gradientTransform="matrix(0.93, -0.33, 0.32, 0.98, -635.85, 737.8)" xlink:href="#radial-gradient-16"/>
    <filter id="luminosity-noclip-7" x="135.14" y="-10537.23" width="15.31" height="32766" filterUnits="userSpaceOnUse" color-interpolation-filters="sRGB">
      <feFlood flood-color="#fff" result="bg"/>
      <feBlend in="SourceGraphic" in2="bg"/>
    </filter>
    <mask id="mask-7" x="135.14" y="-10537.23" width="15.31" height="32766" maskUnits="userSpaceOnUse">
      <g class="cls-96"/>
    </mask>
    <filter id="luminosity-noclip-8" x="196.88" y="80.81" width="10.55" height="18.55" filterUnits="userSpaceOnUse" color-interpolation-filters="sRGB">
      <feFlood flood-color="#fff" result="bg"/>
      <feBlend in="SourceGraphic" in2="bg"/>
    </filter>
    <mask id="mask-8" x="196.88" y="80.81" width="10.55" height="18.55" maskUnits="userSpaceOnUse">
      <g class="cls-7">
        <path class="cls-8" d="M207.38,89.66c.36,5.13-1.66,9.47-4.55,9.7s-5.53-3.73-5.91-8.86,1.65-9.46,4.56-9.68S207,84.53,207.38,89.66Z"/>
      </g>
    </mask>
    <radialGradient id="radial-gradient-19" cx="348.26" cy="38.39" r="7.96" gradientTransform="matrix(0.98, -0.08, 0.08, 1.03, -142.28, 78.39)" xlink:href="#radial-gradient-16"/>
    <radialGradient id="radial-gradient-20" cx="2479.73" cy="-530.04" r="7.97" gradientTransform="matrix(0.64, -0.79, 0.75, 0.67, -1119.56, 2435.97)" xlink:href="#radial-gradient-16"/>
    <filter id="luminosity-noclip-9" x="50.75" y="-10537.23" width="15.16" height="32766" filterUnits="userSpaceOnUse" color-interpolation-filters="sRGB">
      <feFlood flood-color="#fff" result="bg"/>
      <feBlend in="SourceGraphic" in2="bg"/>
    </filter>
    <mask id="mask-9" x="50.75" y="-10537.23" width="15.16" height="32766" maskUnits="userSpaceOnUse">
      <g class="cls-95"/>
    </mask>
    <radialGradient id="radial-gradient-21" cx="-136.05" cy="364.61" r="7.97" gradientTransform="matrix(0.98, 0.06, -0.06, 1.03, 194.92, -200.15)" xlink:href="#radial-gradient-16"/>
    <filter id="luminosity-noclip-10" x="34.82" y="-10537.23" width="10.53" height="32766" filterUnits="userSpaceOnUse" color-interpolation-filters="sRGB">
      <feFlood flood-color="#fff" result="bg"/>
      <feBlend in="SourceGraphic" in2="bg"/>
    </filter>
    <mask id="mask-10" x="34.82" y="-10537.23" width="10.53" height="32766" maskUnits="userSpaceOnUse">
      <g class="cls-94"/>
    </mask>
    <radialGradient id="radial-gradient-22" cx="846.08" cy="-233.53" r="7.97" gradientTransform="matrix(0.94, -0.32, 0.31, 0.98, -621.4, 708.99)" xlink:href="#radial-gradient-16"/>
    <filter id="luminosity-noclip-11" x="92.59" y="-10537.23" width="11.4" height="32766" filterUnits="userSpaceOnUse" color-interpolation-filters="sRGB">
      <feFlood flood-color="#fff" result="bg"/>
      <feBlend in="SourceGraphic" in2="bg"/>
    </filter>
    <mask id="mask-11" x="92.59" y="-10537.23" width="11.4" height="32766" maskUnits="userSpaceOnUse">
      <g class="cls-93"/>
    </mask>
    <radialGradient id="radial-gradient-23" cx="559.97" cy="-130.57" r="6.72" gradientTransform="matrix(0.97, -0.17, 0.16, 1.02, -343.7, 305.65)" xlink:href="#radial-gradient-16"/>
    <filter id="luminosity-noclip-12" x="173.52" y="-10537.23" width="9.08" height="32766" filterUnits="userSpaceOnUse" color-interpolation-filters="sRGB">
      <feFlood flood-color="#fff" result="bg"/>
      <feBlend in="SourceGraphic" in2="bg"/>
    </filter>
    <mask id="mask-12" x="173.52" y="-10537.23" width="9.08" height="32766" maskUnits="userSpaceOnUse">
      <g class="cls-92"/>
    </mask>
    <filter id="luminosity-noclip-13" x="24.1" y="-10537.23" width="9.09" height="32766" filterUnits="userSpaceOnUse" color-interpolation-filters="sRGB">
      <feFlood flood-color="#fff" result="bg"/>
      <feBlend in="SourceGraphic" in2="bg"/>
    </filter>
    <mask id="mask-13" x="24.1" y="-10537.23" width="9.09" height="32766" maskUnits="userSpaceOnUse">
      <g class="cls-91"/>
    </mask>
    <filter id="luminosity-noclip-14" x="203.11" y="149.7" width="10.59" height="18.81" filterUnits="userSpaceOnUse" color-interpolation-filters="sRGB">
      <feFlood flood-color="#fff" result="bg"/>
      <feBlend in="SourceGraphic" in2="bg"/>
    </filter>
    <mask id="mask-14" x="203.11" y="149.7" width="10.59" height="18.81" maskUnits="userSpaceOnUse">
      <g class="cls-3">
        <path class="cls-4" d="M213.7,159.11c0,5.2-2.36,9.4-5.29,9.4s-5.3-4.2-5.3-9.4,2.38-9.41,5.3-9.41S213.7,153.9,213.7,159.11Z"/>
      </g>
    </mask>
    <radialGradient id="radial-gradient-24" cx="176.84" cy="236.36" r="8.05" xlink:href="#radial-gradient-16"/>
    <radialGradient id="radial-gradient-25" cx="91.95" cy="81.87" r="202.87" gradientTransform="translate(34.53 -84.34) scale(0.98 1.03)" gradientUnits="userSpaceOnUse">
      <stop offset="0" stop-color="#f6dd80"/>
      <stop offset="0.33" stop-color="#e9c05f"/>
      <stop offset="0.6" stop-color="#d5a53e"/>
      <stop offset="1" stop-color="#9b6126"/>
    </radialGradient>
    <radialGradient id="radial-gradient-26" cx="3610.32" cy="-11.66" r="11.6" gradientTransform="matrix(0.32, -0.98, 0.93, 0.33, -852.63, 3771.55)" xlink:href="#radial-gradient-5"/>
    <radialGradient id="radial-gradient-27" cx="-372.05" cy="941.99" r="10.1" gradientTransform="matrix(0.93, 0.33, -0.31, 0.98, 859.55, -676.63)" xlink:href="#radial-gradient-5"/>
    <radialGradient id="radial-gradient-28" cx="454.16" cy="22.43" r="7.38" gradientTransform="matrix(0.98, -0.1, 0.1, 1.03, -255.25, 145.37)" xlink:href="#radial-gradient-5"/>
    <radialGradient id="radial-gradient-29" cx="1389.17" cy="-326.2" r="4.09" gradientTransform="matrix(0.89, -0.45, 0.43, 0.93, -830.54, 1132.76)" xlink:href="#radial-gradient-5"/>
    <radialGradient id="radial-gradient-30" cx="-189.26" cy="723.9" r="4.1" gradientTransform="matrix(0.96, 0.22, -0.21, 1.01, 581.88, -497.5)" xlink:href="#radial-gradient-5"/>
    <radialGradient id="radial-gradient-31" cx="1562.59" cy="-380.12" r="4.1" gradientTransform="matrix(0.85, -0.51, 0.49, 0.9, -922.46, 1354.72)" xlink:href="#radial-gradient-5"/>
    <radialGradient id="radial-gradient-32" cx="2383.47" cy="-416.91" r="8.1" gradientTransform="matrix(0.82, -0.86, 0.69, 0.73, -1365.88, 2525.49)" xlink:href="#radial-gradient-5"/>
    <radialGradient id="radial-gradient-33" cx="367.4" cy="583.33" r="8.1" gradientTransform="matrix(1.15, 0.16, -0.13, 1.02, -21.41, -421.98)" xlink:href="#radial-gradient-5"/>
    <radialGradient id="radial-gradient-34" cx="2061.37" cy="-401.61" r="4.24" gradientTransform="matrix(0.93, -0.73, 0.59, 0.82, -1338.44, 2007.73)" xlink:href="#radial-gradient-5"/>
    <radialGradient id="radial-gradient-35" cx="831.25" cy="133.77" r="4.25" gradientTransform="matrix(1.15, -0.13, 0.11, 1.02, -612.23, 189.77)" xlink:href="#radial-gradient-5"/>
    <filter id="luminosity-noclip-15" x="321.44" y="-10537.23" width="10.53" height="32766" filterUnits="userSpaceOnUse" color-interpolation-filters="sRGB">
      <feFlood flood-color="#fff" result="bg"/>
      <feBlend in="SourceGraphic" in2="bg"/>
    </filter>
    <mask id="mask-15" x="321.44" y="-10537.23" width="10.53" height="32766" maskUnits="userSpaceOnUse">
      <g class="cls-90"/>
    </mask>
    <filter id="luminosity-noclip-16" x="289.31" y="-10537.23" width="14.86" height="32766" filterUnits="userSpaceOnUse" color-interpolation-filters="sRGB">
      <feFlood flood-color="#fff" result="bg"/>
      <feBlend in="SourceGraphic" in2="bg"/>
    </filter>
    <mask id="mask-16" x="289.31" y="-10537.23" width="14.86" height="32766" maskUnits="userSpaceOnUse">
      <g class="cls-89"/>
    </mask>
    <filter id="luminosity-noclip-17" x="256.58" y="-10537.23" width="9.83" height="32766" filterUnits="userSpaceOnUse" color-interpolation-filters="sRGB">
      <feFlood flood-color="#fff" result="bg"/>
      <feBlend in="SourceGraphic" in2="bg"/>
    </filter>
    <mask id="mask-17" x="256.58" y="-10537.23" width="9.83" height="32766" maskUnits="userSpaceOnUse">
      <g class="cls-88"/>
    </mask>
    <filter id="luminosity-noclip-18" x="222.38" y="-10537.23" width="6.76" height="32766" filterUnits="userSpaceOnUse" color-interpolation-filters="sRGB">
      <feFlood flood-color="#fff" result="bg"/>
      <feBlend in="SourceGraphic" in2="bg"/>
    </filter>
    <mask id="mask-18" x="222.38" y="-10537.23" width="6.76" height="32766" maskUnits="userSpaceOnUse">
      <g class="cls-87"/>
    </mask>
    <radialGradient id="radial-gradient-36" cx="2431.8" cy="-425.81" r="4.1" gradientTransform="matrix(0.67, -0.75, 0.72, 0.7, -1106.77, 2359.72)" xlink:href="#radial-gradient-5"/>
    <filter id="luminosity-noclip-19" x="211.07" y="-10537.23" width="7.9" height="32766" filterUnits="userSpaceOnUse" color-interpolation-filters="sRGB">
      <feFlood flood-color="#fff" result="bg"/>
      <feBlend in="SourceGraphic" in2="bg"/>
    </filter>
    <mask id="mask-19" x="211.07" y="-10537.23" width="7.9" height="32766" maskUnits="userSpaceOnUse">
      <g class="cls-86"/>
    </mask>
    <filter id="luminosity-noclip-20" x="245.13" y="-10537.23" width="7.4" height="32766" filterUnits="userSpaceOnUse" color-interpolation-filters="sRGB">
      <feFlood flood-color="#fff" result="bg"/>
      <feBlend in="SourceGraphic" in2="bg"/>
    </filter>
    <mask id="mask-20" x="245.13" y="-10537.23" width="7.4" height="32766" maskUnits="userSpaceOnUse">
      <g class="cls-85"/>
    </mask>
    <filter id="luminosity-noclip-21" x="328.45" y="-10537.23" width="9.5" height="32766" filterUnits="userSpaceOnUse" color-interpolation-filters="sRGB">
      <feFlood flood-color="#fff" result="bg"/>
      <feBlend in="SourceGraphic" in2="bg"/>
    </filter>
    <mask id="mask-21" x="328.45" y="-10537.23" width="9.5" height="32766" maskUnits="userSpaceOnUse">
      <g class="cls-84"/>
    </mask>
    <filter id="luminosity-noclip-22" x="355.13" y="-10537.23" width="8.07" height="32766" filterUnits="userSpaceOnUse" color-interpolation-filters="sRGB">
      <feFlood flood-color="#fff" result="bg"/>
      <feBlend in="SourceGraphic" in2="bg"/>
    </filter>
    <mask id="mask-22" x="355.13" y="-10537.23" width="8.07" height="32766" maskUnits="userSpaceOnUse">
      <g class="cls-83"/>
    </mask>
    <filter id="luminosity-noclip-23" x="212.77" y="-10537.23" width="12.28" height="32766" filterUnits="userSpaceOnUse" color-interpolation-filters="sRGB">
      <feFlood flood-color="#fff" result="bg"/>
      <feBlend in="SourceGraphic" in2="bg"/>
    </filter>
    <mask id="mask-23" x="212.77" y="-10537.23" width="12.28" height="32766" maskUnits="userSpaceOnUse">
      <g class="cls-82"/>
    </mask>
    <filter id="luminosity-noclip-24" x="261.56" y="-10537.23" width="18.69" height="32766" filterUnits="userSpaceOnUse" color-interpolation-filters="sRGB">
      <feFlood flood-color="#fff" result="bg"/>
      <feBlend in="SourceGraphic" in2="bg"/>
    </filter>
    <mask id="mask-24" x="261.56" y="-10537.23" width="18.69" height="32766" maskUnits="userSpaceOnUse">
      <g class="cls-81"/>
    </mask>
    <filter id="luminosity-noclip-25" x="173.19" y="122.15" width="190.02" height="150.49" filterUnits="userSpaceOnUse" color-interpolation-filters="sRGB">
      <feFlood flood-color="#fff" result="bg"/>
      <feBlend in="SourceGraphic" in2="bg"/>
    </filter>
    <mask id="mask-25" x="173.19" y="122.15" width="190.02" height="150.49" maskUnits="userSpaceOnUse">
      <g class="cls-5">
        <path class="cls-6" d="M273.48,262c-42.41-.7-73.38-43-72.7-64.88S190,151.25,181.26,135.75a40.56,40.56,0,0,1-4.48-13.6c-8,29.82-.9,51.72,4.69,68.13C198.53,239.62,225,267.82,268.09,272c28.71,2.83,69.73-4.37,95.12-23.94C333.64,262.6,305.7,262.47,273.48,262Z"/>
      </g>
    </mask>
  </defs>
  <g class="cls-9">
    <g id="Layer_1" data-name="Layer 1">
      <g>
        <path class="cls-10" d="M278.84,280.62l-1.92,0-1.29,0-2-.09-1,0-1.76-.11-.91-.07-2.6-.22c-27.88-2.74-50-14.74-67.26-36.62-15,17.12-33.93,28-57.45,33.19l-.23.05c-1.28.28-2.64.55-4,.81l-.11,0c-1.34.25-2.7.48-4.07.69l-.57.08c-1.31.2-2.62.39-4,.55l-.16,0c-1.34.16-2.69.31-4,.44l-.88.08c-1.34.12-2.7.24-4.08.33h-.87c-1.38-.06-2.74-.14-4.1-.23l-1-.08c-1.13-.08-2.26-.18-3.38-.28l-.71-.07q-2-.19-4-.45l-.7-.09c-1.11-.15-2.22-.3-3.33-.47l-.8-.13c-2.6-.41-5.19-.9-7.69-1.44l-.79-.17c-1.12-.25-2.25-.51-3.37-.79l-.33-.08c-1.26-.32-2.49-.64-3.7-1l-.58-.17c-1-.29-2.06-.6-3.08-.92l-.67-.22q-1.77-.56-3.51-1.17l-.17-.07c-1-.36-2.1-.76-3.17-1.18l-.78-.3c-1-.39-2-.79-2.93-1.2l-.36-.15c-1.07-.47-2.13-.94-3.17-1.43l-.75-.36c-.82-.39-1.63-.78-2.43-1.19l-.8-.4c-1-.51-2-1-2.91-1.55l-.66-.37-2.22-1.28-1-.6q-1.05-.63-2.07-1.29l-.75-.47c-.83-.55-1.65-1.1-2.47-1.67-.39-.26-.75-.53-1.13-.79l-1.48-1.07-.22-.17-.94-.7c-.7-.53-1.4-1.07-2.08-1.62-.41-.32-.81-.65-1.21-1l-.25-.21-1-.81-1.34-1.17-.84-.75c-.92-.83-1.84-1.69-2.74-2.56l-.43-.41c-.5-.49-1-1-1.5-1.52l-.45-.45c-1.65-1.72-3.25-3.5-4.77-5.31l-.05-.06C2,205.4-1.89,154.47,20.57,106.9c11.08-23.17,27.29-46,44.49-62.67,22.82-22.11,47.58-33.8,71.59-33.8,17.75,0,35.16,6.22,51.75,18.49,14.85,11,26.24,22.94,34.67,36.47a80,80,0,0,1,16.17-1.61,109.55,109.55,0,0,1,34.52,6.09c34.62,11.58,64.56,31.16,86.58,56.63,21.79,25.2,33.79,54.53,33.79,82.57q0,.33,0,.66c-2.56,30.94-28.8,54.89-72,65.72l-.22.05c-1,.25-2,.48-3,.71l-.42.1c-2.05.46-4.14.9-6.2,1.29l-.9.16-2.15.39-1,.17-2.45.39-1.21.17-2.12.3-1.35.17-1.6.19-1.4.15-1.69.17-2.23.2-1.55.12-1.5.11-1.38.08-1.48.08-1.53.06-2.2.07h-.11c-.49,0-1,0-1.48,0l-1.35,0h-2.76Z"/>
        <g id="potatao">
          <g>
            <path class="cls-11" d="M183.65,35.35C216.79,59.84,237.38,94,231.24,146.27,216.66,231.49,180.59,267.65,120,271.66c-93.62-4-127.45-86.59-92.16-161.34C51.77,60.2,114.66-15.64,183.65,35.35Z"/>
            <g class="cls-12">
              <path class="cls-13" d="M60.93,130.9c1.89,1.81,2.72,4.1,1.84,5.07s-3.1.32-5-1.5-2.72-4.09-1.84-5.08S59,129.07,60.93,130.9Z"/>
              <path class="cls-14" d="M43.22,167c-.46,2.65-1.87,4.59-3.13,4.34s-1.9-2.62-1.43-5.25,1.9-4.6,3.16-4.34S43.72,164.34,43.22,167Z"/>
              <path class="cls-15" d="M100.94,208.77c.76,2.57.41,5-.82,5.39s-2.86-1.35-3.63-3.93-.41-5,.81-5.38S100.15,206.22,100.94,208.77Z"/>
              <path class="cls-16" d="M30.06,211.38c.46,1.57.22,3-.5,3.29s-1.75-.83-2.23-2.38-.23-3,.5-3.29S29.57,209.82,30.06,211.38Z"/>
              <path class="cls-17" d="M146.09,102.19c1,3.42.53,6.6-1.11,7.16s-3.78-1.8-4.79-5.21-.53-6.61,1.08-7.14S145,98.78,146.09,102.19Z"/>
              <path class="cls-18" d="M165.57,162.84c-.87,2.63-2.59,4.36-3.84,3.92s-1.56-2.95-.68-5.56,2.6-4.39,3.84-3.93S166.43,160.23,165.57,162.84Z"/>
              <path class="cls-19" d="M165.69,205c-.68,2.06-2.06,3.46-3.06,3.11s-1.23-2.35-.56-4.44,2.08-3.48,3.08-3.11S166.38,202.92,165.69,205Z"/>
              <path class="cls-20" d="M200.71,185.45c.09,2.21-.67,4-1.72,4.07s-2-1.69-2.08-3.89.64-4,1.7-4.08S200.59,183.24,200.71,185.45Z"/>
              <path class="cls-21" d="M210.1,159.74c.08,1.61-.47,3-1.24,3s-1.45-1.22-1.54-2.86.5-2.93,1.26-3S210.05,158.14,210.1,159.74Z"/>
              <path class="cls-22" d="M179.1,77.36c.07,1.6-.49,2.94-1.26,3s-1.45-1.24-1.54-2.85.5-3,1.26-3S179,75.74,179.1,77.36Z"/>
              <path class="cls-23" d="M204.07,90.5c.11,2-.6,3.69-1.56,3.75s-1.8-1.56-1.92-3.57S201.2,87,202.17,87,204,88.5,204.07,90.5Z"/>
              <g class="cls-24">
                <path class="cls-25" d="M204.61,185.06c0,5.19-2.39,9.4-5.31,9.4s-5.31-4.21-5.31-9.4,2.39-9.4,5.31-9.4S204.61,179.86,204.61,185.06Z"/>
              </g>
              <path class="cls-26" d="M168.09,163.68c-1.68,4.88-5.28,8-8,6.92s-3.62-5.83-1.94-10.73,5.3-8,8-6.93S169.79,158.79,168.09,163.68Z"/>
              <g class="cls-27">
                <path class="cls-28" d="M168.09,163.68c-1.68,4.88-5.28,8-8,6.92s-3.62-5.83-1.94-10.73,5.3-8,8-6.93S169.79,158.79,168.09,163.68Z"/>
              </g>
              <path class="cls-29" d="M149.44,100.47c2.09,6.49.82,12.81-2.85,14.1s-8.32-2.89-10.43-9.4-.85-12.81,2.82-14.11S147.33,94,149.44,100.47Z"/>
              <g class="cls-30">
                <path class="cls-28" d="M149.44,100.47c2.09,6.49.82,12.81-2.85,14.1s-8.32-2.89-10.43-9.4-.85-12.81,2.82-14.11S147.33,94,149.44,100.47Z"/>
              </g>
              <g class="cls-31">
                <path class="cls-32" d="M207.38,89.66c.36,5.13-1.66,9.47-4.55,9.7s-5.53-3.73-5.91-8.86,1.65-9.46,4.56-9.68S207,84.53,207.38,89.66Z"/>
              </g>
              <path class="cls-33" d="M61.73,127.85c3.73,3.33,5.25,7.9,3.38,10.21s-6.42,1.49-10.16-1.83-5.26-7.88-3.4-10.19S58,124.53,61.73,127.85Z"/>
              <g class="cls-34">
                <path class="cls-28" d="M61.73,127.85c3.73,3.33,5.25,7.9,3.38,10.21s-6.42,1.49-10.16-1.83-5.26-7.88-3.4-10.19S58,124.53,61.73,127.85Z"/>
              </g>
              <path class="cls-35" d="M45.33,166.93c-.29,5.15-2.86,9.17-5.77,9s-5-4.48-4.71-9.61,2.87-9.15,5.78-9S45.62,161.8,45.33,166.93Z"/>
              <g class="cls-36">
                <path class="cls-28" d="M45.33,166.93c-.29,5.15-2.86,9.17-5.77,9s-5-4.48-4.71-9.61,2.87-9.15,5.78-9S45.62,161.8,45.33,166.93Z"/>
              </g>
              <path class="cls-37" d="M103.27,207.05c1.53,4.89.54,9.62-2.21,10.56s-6.23-2.24-7.76-7.13-.53-9.61,2.23-10.55S101.76,202.17,103.27,207.05Z"/>
              <g class="cls-38">
                <path class="cls-28" d="M103.27,207.05c1.53,4.89.54,9.62-2.21,10.56s-6.23-2.24-7.76-7.13-.53-9.61,2.23-10.55S101.76,202.17,103.27,207.05Z"/>
              </g>
              <path class="cls-39" d="M182.42,75.64c.7,4.27-.68,8.08-3.11,8.5s-4.93-2.69-5.61-7,.69-8.11,3.1-8.52S181.74,71.34,182.42,75.64Z"/>
              <g class="cls-40">
                <path class="cls-28" d="M182.42,75.64c.7,4.27-.68,8.08-3.11,8.5s-4.93-2.69-5.61-7,.69-8.11,3.1-8.52S181.74,71.34,182.42,75.64Z"/>
              </g>
              <path class="cls-28" d="M33,210.26c.7,4.3-.7,8.12-3.1,8.54s-4.93-2.69-5.63-7,.71-8.08,3.11-8.5S32.33,206,33,210.26Z"/>
              <g class="cls-41">
                <path class="cls-28" d="M33,210.26c.7,4.3-.7,8.12-3.1,8.54s-4.93-2.69-5.63-7,.71-8.08,3.11-8.5S32.33,206,33,210.26Z"/>
              </g>
              <g class="cls-42">
                <path class="cls-43" d="M213.7,159.11c0,5.2-2.36,9.4-5.29,9.4s-5.3-4.2-5.3-9.4,2.38-9.41,5.3-9.41S213.7,153.9,213.7,159.11Z"/>
              </g>
            </g>
            <g class="cls-44">
              <path class="cls-45" d="M207.64,209.58c-12,13.57-23.59,29.3-38.15,40a100.21,100.21,0,0,1-40.25,18C96.32,273.8,65.5,262.63,45,234.37,34.56,220,26.78,203.44,18.78,187.46a55,55,0,0,1-4.44-12.33c2.8,51.17,39.09,93.69,105.62,96.53,46.79-3.1,78.93-25.38,97.88-74.52C214.73,201.35,211.29,205.43,207.64,209.58Z"/>
            </g>
            <g class="cls-46">
              <path class="cls-47" d="M72.37,227.15a1.29,1.29,0,0,0-1.05,1.4,3.64,3.64,0,0,0,.89,2,1.37,1.37,0,0,0,.3.54c.36.8,1,1.38,1.8.64.93-.92.09-2.89-.51-3.77A1.68,1.68,0,0,0,72.37,227.15Z"/>
              <path class="cls-47" d="M68.39,191a.58.58,0,0,0-.75.34,4.68,4.68,0,0,0,.23,2.72,1.92,1.92,0,0,0,.6,1,.59.59,0,0,0,.88-.26c.48-.41.33-1.41.24-1.94C69.44,192.11,69.13,191.22,68.39,191Z"/>
              <path class="cls-47" d="M61,183.89a.62.62,0,0,0-.65.54c-.2,1.19.52,2.21.61,3.33a1.15,1.15,0,0,0,0,.55v.14c-.06.27.24.39.44.29a.15.15,0,0,0,.2,0c.85-.14.95-1.87.95-2.59C62.57,185.08,62.16,184.05,61,183.89Z"/>
              <path class="cls-47" d="M98.81,175a1.76,1.76,0,0,0-1.24,1.44,6.05,6.05,0,0,0-.55,2c-1.06.81-.5,2.54.54,3.91a6.53,6.53,0,0,0,2.73,2.9c2.23,1.12,3.28-2.39,3.61-3.94.39-1.76,1.26-5.54-.59-6.67C102.11,173.84,100.06,174.64,98.81,175Z"/>
              <path class="cls-47" d="M118.61,137.42c-.61.48-.34,1.28,0,1.88a3.7,3.7,0,0,0,.57.78,1.32,1.32,0,0,0,1.72.71,1.9,1.9,0,0,0,1-2c0-.69-.26-1.71-.94-2A2.6,2.6,0,0,0,118.61,137.42Z"/>
              <path class="cls-47" d="M104.92,76.35a1.2,1.2,0,0,0-.75,0c-.19.06-.27.25-.34.42a1,1,0,0,0-.29.49.75.75,0,0,0-.21.75.56.56,0,0,0,0,.69.69.69,0,0,0,.46.9h0a1.2,1.2,0,0,0,.9.26.48.48,0,0,0,.45-.53.6.6,0,0,0,.25-.75.58.58,0,0,0-.12-.68.49.49,0,0,0-.19-.52A.65.65,0,0,0,104.92,76.35Z"/>
              <path class="cls-47" d="M120,126c0,.13,0,.26-.07.37a1,1,0,0,0-.18,0,.52.52,0,0,0-.43.33.68.68,0,0,0-.5.76.67.67,0,0,0,0,.39.41.41,0,0,0-.11.28.59.59,0,0,0,.19.85,3.52,3.52,0,0,0,.72.37h0a.57.57,0,0,0,.37,0,.53.53,0,0,0,.55-.48.58.58,0,0,0,.13-.15.7.7,0,0,0,.33-1,.68.68,0,0,0,0-.28.41.41,0,0,0,.09-.26,5.51,5.51,0,0,1,.15-1C121.42,125.34,120.21,125.22,120,126Z"/>
              <path class="cls-47" d="M148.66,63.85a.68.68,0,0,0-.17.8s0,0,0,.06a1.27,1.27,0,0,0-.14.24,1.1,1.1,0,0,0,0,.78,1,1,0,0,0-.08.21.88.88,0,0,0,.2.75v.07a1.08,1.08,0,0,0,.33.7.56.56,0,0,0,.47.32.65.65,0,0,1,.19,0,1.54,1.54,0,0,0,.57,0,.53.53,0,0,0,.39-.49l.06,0c.62-.45.4-1.85.35-2.52a1.16,1.16,0,0,0-.71-1.1A1.51,1.51,0,0,0,148.66,63.85Z"/>
              <path class="cls-47" d="M136.66,28.91a3,3,0,0,0-1.66,2,3.68,3.68,0,0,0,0,1.48,1.6,1.6,0,0,0,.48,1,.54.54,0,0,0-.19.69,2.35,2.35,0,0,0,.37.71,1.35,1.35,0,0,0,.87.77c1.86.54,2.3-2.44,2.27-3.7S138.28,28.3,136.66,28.91Z"/>
              <path class="cls-47" d="M145.16,28.6a3.42,3.42,0,0,0-.55,1.78.54.54,0,0,0,.14.39,2.06,2.06,0,0,0,.5,1.43.64.64,0,0,0,1,0c.83-1,1.46-2.89.39-3.92C146.17,27.76,145.5,28.1,145.16,28.6Z"/>
              <path class="cls-47" d="M164.25,57.52c-1.29.11-1,1.84-.27,2.68a2.25,2.25,0,0,0,.91.9.67.67,0,0,0,.87-.4C166.12,59.5,165.82,57.37,164.25,57.52Z"/>
              <path class="cls-47" d="M193.53,84.13c-.93-.1-1.28,1-1.34,1.82a7.86,7.86,0,0,0,.29,2.4,3.58,3.58,0,0,0,.75,3c1.57,1.56,3.09-.77,3.41-2.26a3.34,3.34,0,0,0-1.11-2.92C195,85.61,194.35,84.23,193.53,84.13Z"/>
              <path class="cls-47" d="M181.48,132.42c-.7.84-1.51,2.26-1.23,3.42a2.33,2.33,0,0,0,1.86,2.53c.31.07.54-.18.69-.43a5.57,5.57,0,0,0-.42-5.56A.55.55,0,0,0,181.48,132.42Z"/>
              <path class="cls-47" d="M142.09,199.74c-1.05.72-.24,2.24.44,3.11.5,1.17,1.42,2.21,2.72,1.87,1.61-.44,1.21-2.86.2-3.75C144.75,200.33,143.07,199,142.09,199.74Z"/>
            </g>
            <g class="cls-48">
              <path class="cls-49" d="M82.09,143.72A8.6,8.6,0,0,1,79,148.07l1.6-1.16c2.95-1,2.31,1.59,4.1,2.44C86.67,146.89,84.71,144,82.09,143.72Z"/>
              <path class="cls-49" d="M184.55,156.09c3.3-7.11-.08-10.47-.44-17.13C184.47,145.66,178.5,151.69,184.55,156.09Z"/>
              <path class="cls-49" d="M148.37,42.89Z"/>
              <path class="cls-49" d="M141.09,43h0v0h1.56a2.18,2.18,0,0,0-.23.09c-.44,0-.86,0-1.3.05l0-.09Z"/>
            </g>
            <g class="cls-50">
              <path class="cls-51" d="M176.84,173.1a3.81,3.81,0,0,1-2.12,1.24l.86-.15c1.33.17.51,1.17,1,1.92A1.79,1.79,0,0,0,176.84,173.1Z"/>
              <path class="cls-51" d="M212.27,200.06c2.81-2.39,2.32-4.57,3.66-7.54C214.57,195.51,211,196.88,212.27,200.06Z"/>
              <path class="cls-51" d="M224.12,143.21h0C224.92,143.64,224.77,143.54,224.12,143.21Z"/>
              <path class="cls-51" d="M221.4,141.73v0h0c.2.13.41.24.58.33h-.1a4.06,4.06,0,0,0-.51-.26v-.05Z"/>
            </g>
            <g class="cls-52">
              <path class="cls-53" d="M134.3,54.88v0a.75.75,0,0,0-.42-.57h-.08a1,1,0,1,0-.76,1.95,1.27,1.27,0,0,0,1-.12A.94.94,0,0,0,134.3,54.88Z"/>
              <path class="cls-53" d="M128,97h0a.75.75,0,0,0-.42-.59l-.07,0a1.06,1.06,0,1,0-.78,2,1.18,1.18,0,0,0,1-.11A.94.94,0,0,0,128,97Z"/>
              <path class="cls-53" d="M96.49,146.52h0a.72.72,0,0,0-.41-.6l-.07,0a1.06,1.06,0,1,0-.78,2,1.24,1.24,0,0,0,1-.12A.92.92,0,0,0,96.49,146.52Z"/>
              <path class="cls-53" d="M68.31,109.48l0,0a.8.8,0,0,0-.42-.58l-.07,0a1.06,1.06,0,1,0-.78,2,1.18,1.18,0,0,0,1-.13A.92.92,0,0,0,68.31,109.48Z"/>
              <path class="cls-53" d="M116.51,188.91v0a.88.88,0,0,0-.43-.6H116a1.05,1.05,0,1,0-.78,1.95,1.24,1.24,0,0,0,1-.11A.94.94,0,0,0,116.51,188.91Z"/>
              <path class="cls-53" d="M66.67,203.18l0,0a.84.84,0,0,0-.43-.6h0a1.06,1.06,0,1,0-.79,2,1.19,1.19,0,0,0,1-.13A.93.93,0,0,0,66.67,203.18Z"/>
              <path class="cls-53" d="M48.34,188v0a.81.81,0,0,0-.43-.57h-.06a1.05,1.05,0,1,0-.78,2,1.14,1.14,0,0,0,1-.1A.94.94,0,0,0,48.34,188Z"/>
              <path class="cls-53" d="M84.05,228.45v0a.79.79,0,0,0-.44-.59.09.09,0,0,0-.06,0,1.05,1.05,0,1,0-.76,2,1.27,1.27,0,0,0,1-.12A.93.93,0,0,0,84.05,228.45Z"/>
              <path class="cls-53" d="M100.32,237.53h0a.8.8,0,0,0-.43-.59h-.07a1.05,1.05,0,1,0-.78,2,1.2,1.2,0,0,0,1-.12A.92.92,0,0,0,100.32,237.53Z"/>
              <path class="cls-53" d="M144.62,243.32h0a.76.76,0,0,0-.43-.58h-.08a1.05,1.05,0,1,0-.76,2,1.4,1.4,0,0,0,1-.12A1,1,0,0,0,144.62,243.32Z"/>
              <path class="cls-53" d="M144.62,225.93h0a.77.77,0,0,0-.43-.58.22.22,0,0,0-.08,0,1.06,1.06,0,1,0-.76,2,1.26,1.26,0,0,0,1-.14A1,1,0,0,0,144.62,225.93Z"/>
              <path class="cls-53" d="M169.31,225h0a.84.84,0,0,0-.42-.61.21.21,0,0,0-.08,0,1.05,1.05,0,1,0-.77,2,1.16,1.16,0,0,0,1-.11A.92.92,0,0,0,169.31,225Z"/>
              <path class="cls-53" d="M184.23,52.84v0a.85.85,0,0,0-.44-.58l-.06,0a1,1,0,1,0-.77,1.94,1.14,1.14,0,0,0,1-.09A.93.93,0,0,0,184.23,52.84Z"/>
              <path class="cls-53" d="M154.85,32.3h0a.76.76,0,0,0-.42-.58h-.07a1.06,1.06,0,1,0-.78,2,1.26,1.26,0,0,0,1-.12A1,1,0,0,0,154.85,32.3Z"/>
              <path class="cls-53" d="M122,41.24v0a.77.77,0,0,0-.44-.59.08.08,0,0,0,0,0,1.06,1.06,0,1,0-.78,2,1.28,1.28,0,0,0,1-.13A.93.93,0,0,0,122,41.24Z"/>
              <path class="cls-53" d="M68.8,66.22h0a.74.74,0,0,0-.41-.6l-.07,0a1,1,0,1,0-.77,2,1.21,1.21,0,0,0,1-.11A1,1,0,0,0,68.8,66.22Z"/>
              <path class="cls-53" d="M192,98.8v0a.83.83,0,0,0-.44-.58l-.06,0a1.05,1.05,0,1,0-.75,2,1.22,1.22,0,0,0,.95-.12A.94.94,0,0,0,192,98.8Z"/>
            </g>
          </g>
          <g>
            <path class="cls-54" d="M183.72,102.84s22.88-47,87.5-25.38c68.31,22.84,114.91,78,114.91,131.61-4.05,48.88-75,67.21-118,63s-69.56-32.42-86.62-81.76C174.73,170.52,165.78,142.79,183.72,102.84Z"/>
            <g>
              <path class="cls-55" d="M272.22,240.24c3.16,1.1,5.3,3.37,4.77,5s-3.54,2.08-6.72,1-5.31-3.39-4.78-5.06S269.05,239.1,272.22,240.24Z"/>
              <path class="cls-56" d="M221.88,115.63c-.91,2.91-2.79,4.85-4.15,4.38s-1.76-3.23-.86-6.12,2.8-4.86,4.19-4.37S222.81,112.74,221.88,115.63Z"/>
              <path class="cls-57" d="M191.91,115c.2,2.23-.47,4.11-1.52,4.24s-2.11-1.6-2.31-3.82.47-4.11,1.52-4.23S191.68,112.8,191.91,115Z"/>
              <path class="cls-58" d="M262.76,208c.51,1.12.49,2.23-.05,2.5s-1.38-.41-1.89-1.54-.51-2.24,0-2.5S262.24,206.9,262.76,208Z"/>
              <path class="cls-59" d="M249.8,187.28c-.23,1.23-.9,2.11-1.49,2s-.85-1.21-.6-2.43.91-2.1,1.51-2S250.07,186.08,249.8,187.28Z"/>
              <path class="cls-60" d="M227,213.42c.58,1.08.65,2.18.13,2.49s-1.41-.31-2-1.39-.66-2.19-.15-2.51S226.37,212.33,227,213.42Z"/>
              <path class="cls-61" d="M298.3,172.16c1.63,1.76,2.19,4,1.22,5s-3.09.46-4.77-1.27-2.19-4-1.22-5S296.64,170.44,298.3,172.16Z"/>
              <path class="cls-62" d="M329.43,225.3c-.29,2.43-1.63,4.24-3,4s-2.24-2.29-1.95-4.74,1.65-4.24,3-4.07S329.74,222.85,329.43,225.3Z"/>
              <path class="cls-63" d="M334.32,170.6c.75,1,.88,2.23.3,2.68s-1.64,0-2.39-1-.86-2.24-.28-2.69S333.6,169.57,334.32,170.6Z"/>
              <path class="cls-64" d="M360.54,214.44c.15,1.28-.32,2.38-1.05,2.47s-1.41-.88-1.53-2.18.33-2.38,1.06-2.46S360.43,213.15,360.54,214.44Z"/>
              <path class="cls-65" d="M331.93,224.54c-.35,5.13-2.95,9.11-5.83,8.9s-5-4.53-4.63-9.66,3-9.09,5.84-8.88S332.28,219.42,331.93,224.54Z"/>
              <g class="cls-66">
                <path class="cls-67" d="M331.93,224.54c-.35,5.13-2.95,9.11-5.83,8.9s-5-4.53-4.63-9.66,3-9.09,5.84-8.88S332.28,219.42,331.93,224.54Z"/>
              </g>
              <path class="cls-65" d="M300.3,170.2c3.61,3.48,4.93,8.11,2.95,10.34s-6.47,1.2-10.08-2.28-4.91-8.13-2.94-10.36S296.71,166.7,300.3,170.2Z"/>
              <g class="cls-68">
                <path class="cls-67" d="M300.3,170.2c3.61,3.48,4.93,8.11,2.95,10.34s-6.47,1.2-10.08-2.28-4.91-8.13-2.94-10.36S296.71,166.7,300.3,170.2Z"/>
              </g>
              <path class="cls-65" d="M265,206.2c1.91,3.41,1.89,7.14-.05,8.32s-5-.62-6.95-4.06-1.88-7.15.07-8.33S263.08,202.77,265,206.2Z"/>
              <g class="cls-69">
                <path class="cls-67" d="M265,206.2c1.91,3.41,1.89,7.14-.05,8.32s-5-.62-6.95-4.06-1.88-7.15.07-8.33S263.08,202.77,265,206.2Z"/>
              </g>
              <path class="cls-65" d="M228.15,212.6c1.31,2.34,1.31,4.9,0,5.69s-3.47-.42-4.79-2.78-1.28-4.91,0-5.72S226.84,210.23,228.15,212.6Z"/>
              <g class="cls-70">
                <path class="cls-67" d="M228.15,212.6c1.31,2.34,1.31,4.9,0,5.69s-3.47-.42-4.79-2.78-1.28-4.91,0-5.72S226.84,210.23,228.15,212.6Z"/>
              </g>
              <path class="cls-71" d="M216,224.22c.89.86,1.25,1.9.86,2.36s-1.44.13-2.3-.72-1.27-1.89-.85-2.34S215.12,223.39,216,224.22Z"/>
              <path class="cls-65" d="M216.89,223.07c1.92,1.84,2.65,4.28,1.61,5.47s-3.43.67-5.34-1.17-2.65-4.29-1.62-5.48S215,221.25,216.89,223.07Z"/>
              <g class="cls-72">
                <path class="cls-67" d="M216.89,223.07c1.92,1.84,2.65,4.28,1.61,5.47s-3.43.67-5.34-1.17-2.65-4.29-1.62-5.48S215,221.25,216.89,223.07Z"/>
              </g>
              <path class="cls-65" d="M252,188.24c-1.05,3.1-3.34,5.06-5.09,4.41s-2.26-3.72-1.2-6.81,3.37-5,5.1-4.37S253.05,185.15,252,188.24Z"/>
              <g class="cls-73">
                <path class="cls-67" d="M252,188.24c-1.05,3.1-3.34,5.06-5.09,4.41s-2.26-3.72-1.2-6.81,3.37-5,5.1-4.37S253.05,185.15,252,188.24Z"/>
              </g>
              <path class="cls-65" d="M336.23,169.26c2,3,2.31,6.37.64,7.64s-4.65-.15-6.68-3.11-2.31-6.38-.66-7.62S334.21,166.29,336.23,169.26Z"/>
              <g class="cls-74">
                <path class="cls-75" d="M336.23,169.26c2,3,2.31,6.37.64,7.64s-4.65-.15-6.68-3.11-2.31-6.38-.66-7.62S334.21,166.29,336.23,169.26Z"/>
              </g>
              <path class="cls-65" d="M363.05,214.22c.59,3.8-.63,7.19-2.78,7.54s-4.37-2.39-5-6.19.64-7.18,2.8-7.57S362.44,210.41,363.05,214.22Z"/>
              <g class="cls-76">
                <path class="cls-67" d="M363.05,214.22c.59,3.8-.63,7.19-2.78,7.54s-4.37-2.39-5-6.19.64-7.18,2.8-7.57S362.44,210.41,363.05,214.22Z"/>
              </g>
              <path class="cls-65" d="M224.31,116.26C222.7,121.54,219,125,216,124s-4.1-6.08-2.49-11.38,5.32-8.78,8.31-7.78S225.92,111,224.31,116.26Z"/>
              <g class="cls-77">
                <path class="cls-67" d="M224.31,116.26C222.7,121.54,219,125,216,124s-4.1-6.08-2.49-11.38,5.32-8.78,8.31-7.78S225.92,111,224.31,116.26Z"/>
              </g>
              <path class="cls-65" d="M272.54,237.48c5.08,1.61,8.47,5.46,7.55,8.61s-5.74,4.36-10.84,2.76-8.45-5.47-7.55-8.61S267.46,235.86,272.54,237.48Z"/>
              <g class="cls-78">
                <path class="cls-67" d="M272.54,237.48c5.08,1.61,8.47,5.46,7.55,8.61s-5.74,4.36-10.84,2.76-8.45-5.47-7.55-8.61S267.46,235.86,272.54,237.48Z"/>
              </g>
            </g>
            <g class="cls-46">
              <path class="cls-47" d="M342.28,249.49a1.31,1.31,0,0,0,.88,1.52,3.26,3.26,0,0,0,2.12-.19,1.39,1.39,0,0,0,.58-.09c.86-.07,1.6-.55,1.21-1.54-.51-1.24-2.56-1.09-3.56-.81A1.63,1.63,0,0,0,342.28,249.49Z"/>
              <path class="cls-47" d="M308.49,240.86a.62.62,0,0,0,.05.84,4.14,4.14,0,0,0,2.51.72,1.62,1.62,0,0,0,1.09-.23c.29-.24.41-.73.08-1-.18-.63-1.12-.81-1.64-.9A2,2,0,0,0,308.49,240.86Z"/>
              <path class="cls-47" d="M299.61,245.62a.63.63,0,0,0,.27.82c1,.6,2.13.25,3.16.56a1.16,1.16,0,0,0,.49.21l.12.06c.24.14.44-.09.43-.32a.4.4,0,0,0,.07-.19c.16-.92-1.35-1.62-2-1.85A1.84,1.84,0,0,0,299.61,245.62Z"/>
              <path class="cls-47" d="M304.71,205.4a1.77,1.77,0,0,0,.84,1.7,5.58,5.58,0,0,0,1.61,1.26c.38,1.33,2.11,1.38,3.69.83a6.29,6.29,0,0,0,3.54-1.68c1.79-1.8-1-4-2.26-4.9-1.45-1-4.52-3.17-6.2-1.75C304.84,201.77,304.86,204.07,304.71,205.4Z"/>
              <path class="cls-47" d="M278,172.91c.23.79,1,.81,1.68.69a3.46,3.46,0,0,0,.89-.3,1.35,1.35,0,0,0,1.23-1.44,1.81,1.81,0,0,0-1.43-1.62,2.05,2.05,0,0,0-2.11.23A2.82,2.82,0,0,0,278,172.91Z"/>
              <path class="cls-47" d="M218.53,165.2a1.22,1.22,0,0,0-.23.73.5.5,0,0,0,.28.47.71.71,0,0,0,.32.47.65.65,0,0,0,.57.48.56.56,0,0,0,.63.26.66.66,0,0,0,1-.14v0a1.29,1.29,0,0,0,.56-.78.5.5,0,0,0-.32-.61.6.6,0,0,0-.61-.54.5.5,0,0,0-.62-.1,3.48,3.48,0,0,1-1.54-.22Z"/>
              <path class="cls-47" d="M268.24,167.6l.32.19a.48.48,0,0,0-.07.18.53.53,0,0,0,.13.54.69.69,0,0,0,.51.74.47.47,0,0,0,.32.16c.08.09.13.18.22.22a.55.55,0,0,0,.85.1,4.38,4.38,0,0,0,.57-.57l0,0a.56.56,0,0,0,.13-.37.57.57,0,0,0-.27-.7.27.27,0,0,0-.08-.18c0-.39-.39-.78-.77-.65a.43.43,0,0,0-.23-.14.35.35,0,0,0-.2-.16,4.39,4.39,0,0,1-.84-.49C268.12,166,267.6,167.13,268.24,167.6Z"/>
              <path class="cls-47" d="M222.51,117.9a.67.67,0,0,0,.64.45l.07,0a.76.76,0,0,0,.18.23,1.15,1.15,0,0,0,.68.3l.17.13a.73.73,0,0,0,.74,0,.11.11,0,0,0,.06,0,.8.8,0,0,0,.74-.06.5.5,0,0,0,.45-.35,1.06,1.06,0,0,1,0-.19,1.47,1.47,0,0,0,.17-.58.59.59,0,0,0-.28-.54.13.13,0,0,1,0-.08c-.21-.75-1.52-1-2.13-1.21a1,1,0,0,0-1.23.31A1.67,1.67,0,0,0,222.51,117.9Z"/>
              <path class="cls-47" d="M187.05,117.55a3.07,3.07,0,0,0,1.23,2.33,3.54,3.54,0,0,0,1.32.55,1.46,1.46,0,0,0,1.05-.14c.09.24.18.43.56.43a2.36,2.36,0,0,0,.75-.12,1.25,1.25,0,0,0,1-.59c1.15-1.62-1.37-3.1-2.51-3.51S187.08,115.76,187.05,117.55Z"/>
              <path class="cls-47" d="M189.73,109.11a3.26,3.26,0,0,0,1.4,1.16.43.43,0,0,0,.41,0,1.8,1.8,0,0,0,1.44,0,.72.72,0,0,0,.33-1c-.61-1.15-2.07-2.43-3.37-1.75A1.1,1.1,0,0,0,189.73,109.11Z"/>
              <path class="cls-47" d="M222.25,100.38c-.34,1.31,1.32,1.6,2.31,1.21a2.1,2.1,0,0,0,1.12-.59.75.75,0,0,0-.05-1C224.66,99.25,222.66,98.76,222.25,100.38Z"/>
              <path class="cls-47" d="M256.26,80.85c-.43.88.44,1.63,1.15,2a6.4,6.4,0,0,0,2.25.54,3.21,3.21,0,0,0,2.94.33c1.95-1,.4-3.31-.83-4.14a3,3,0,0,0-3,.08C258.09,79.91,256.62,80.08,256.26,80.85Z"/>
              <path class="cls-47" d="M295.29,109.45c.52,1,1.51,2.26,2.66,2.38a2.14,2.14,0,0,0,2.89-.93.71.71,0,0,0-.14-.82,5,5,0,0,0-5.13-1.54C295.19,108.63,295.12,109.13,295.29,109.45Z"/>
              <path class="cls-47" d="M341.92,171.51c.27,1.26,1.91,1,2.94.63,1.23-.08,2.49-.63,2.6-2,.18-1.71-2.13-2.17-3.27-1.51C343.37,169.09,341.64,170.3,341.92,171.51Z"/>
            </g>
            <g class="cls-52">
              <path class="cls-53" d="M231.1,124.84h0a.71.71,0,0,0-.69,0s-.06,0-.06.05c-1.23.84-.06,2.7,1.1,1.77a1.31,1.31,0,0,0,.45-.91A.91.91,0,0,0,231.1,124.84Z"/>
              <path class="cls-53" d="M260.73,154.07h0a.7.7,0,0,0-.7,0l-.06.06c-1.23.83-.07,2.69,1.11,1.76a1.25,1.25,0,0,0,.45-.9A.92.92,0,0,0,260.73,154.07Z"/>
              <path class="cls-53" d="M260.34,178.93h0a.79.79,0,0,0-.71,0l-.05,0c-1.22.82-.06,2.7,1.11,1.78a1.38,1.38,0,0,0,.47-.9A.91.91,0,0,0,260.34,178.93Z"/>
              <path class="cls-53" d="M236.86,212.73h0a.75.75,0,0,0-.71,0l-.06,0c-1.21.83,0,2.7,1.11,1.8a1.41,1.41,0,0,0,.46-.94A.87.87,0,0,0,236.86,212.73Z"/>
              <path class="cls-53" d="M305,185.54h0a.76.76,0,0,0-.69.05s-.06,0-.06.06c-1.23.83-.08,2.67,1.11,1.75a1.16,1.16,0,0,0,.43-.89A.9.9,0,0,0,305,185.54Z"/>
              <path class="cls-53" d="M288.15,236.69h0a.71.71,0,0,0-.7.05l-.06,0c-1.23.82-.06,2.69,1.12,1.76a1.23,1.23,0,0,0,.44-.91A.91.91,0,0,0,288.15,236.69Z"/>
              <path class="cls-53" d="M265.85,244h0a.77.77,0,0,0-.69,0l-.07,0c-1.2.86-.05,2.72,1.12,1.79a1.25,1.25,0,0,0,.45-.9A.93.93,0,0,0,265.85,244Z"/>
              <path class="cls-53" d="M317.87,235.92h0a.73.73,0,0,0-.7,0l-.05.06c-1.23.84-.06,2.7,1.1,1.77a1.34,1.34,0,0,0,.46-.9A.92.92,0,0,0,317.87,235.92Z"/>
              <path class="cls-53" d="M334.23,227h0a.78.78,0,0,0-.71,0l-.05,0c-1.23.84-.06,2.72,1.1,1.79a1.41,1.41,0,0,0,.48-.9A.94.94,0,0,0,334.23,227Z"/>
              <path class="cls-53" d="M363.8,192h0a.8.8,0,0,0-.71,0s-.06,0-.06,0c-1.22.84,0,2.7,1.12,1.78a1.36,1.36,0,0,0,.44-.92A.86.86,0,0,0,363.8,192Z"/>
              <path class="cls-53" d="M350.1,182.14h0a.83.83,0,0,0-.69,0l-.07.07c-1.22.83-.06,2.71,1.11,1.76a1.29,1.29,0,0,0,.47-.9A.93.93,0,0,0,350.1,182.14Z"/>
              <path class="cls-53" d="M363.34,160.27h0a.7.7,0,0,0-.71.06s-.05,0-.05,0c-1.23.83-.08,2.7,1.11,1.77a1.29,1.29,0,0,0,.43-.9A.9.9,0,0,0,363.34,160.27Z"/>
              <path class="cls-53" d="M257.68,80.52h0a.82.82,0,0,0-.7,0l-.06.06c-1.22.82-.05,2.69,1.11,1.77a1.34,1.34,0,0,0,.46-.91A.91.91,0,0,0,257.68,80.52Z"/>
              <path class="cls-53" d="M224.89,94.35h0a.73.73,0,0,0-.7.05s-.06,0-.06,0c-1.23.82-.06,2.69,1.1,1.78a1.37,1.37,0,0,0,.45-.91A.88.88,0,0,0,224.89,94.35Z"/>
              <path class="cls-53" d="M213.42,127.75h0a.77.77,0,0,0-.72,0,.17.17,0,0,0-.06,0c-1.21.83,0,2.7,1.12,1.79a1.45,1.45,0,0,0,.46-.92A.9.9,0,0,0,213.42,127.75Z"/>
              <path class="cls-53" d="M203.05,187.88h0a.68.68,0,0,0-.69,0l-.07.05c-1.22.83-.06,2.69,1.12,1.76a1.29,1.29,0,0,0,.45-.9A.92.92,0,0,0,203.05,187.88Z"/>
              <path class="cls-53" d="M298.25,99.79h0a.76.76,0,0,0-.71,0,.11.11,0,0,0,0,0c-1.22.85-.06,2.69,1.12,1.78a1.48,1.48,0,0,0,.46-.9A.94.94,0,0,0,298.25,99.79Z"/>
            </g>
            <g class="cls-50">
              <g class="cls-79">
                <path class="cls-80" d="M273.48,262c-42.41-.7-73.38-43-72.7-64.88,1-33.82-4-33.86-19.52-61.32a40.56,40.56,0,0,1-4.48-13.6c-8,29.82-.9,51.72,4.69,68.13C198.53,239.62,225,267.82,268.09,272c28.71,2.83,69.73-4.37,95.12-23.94C333.64,262.6,305.7,262.47,273.48,262Z"/>
              </g>
            </g>
          </g>
        </g>
      </g>
    </g>
  </g>
</svg>
