<svg id="Layer_1" data-name="Layer 1" xmlns="http://www.w3.org/2000/svg" width="385.28" height="171.83" viewBox="0 0 385.28 171.83">
  <defs>
    <style>
      .cls-1 {
        fill: #fffa4d;
      }

      .cls-2 {
        fill: #f69757;
      }

      .cls-3 {
        fill: #a46032;
      }

      .cls-4 {
        fill: #de8b51;
      }

      .cls-5 {
        fill: #92562c;
      }

      .cls-6 {
        fill: #211f1f;
      }

      .cls-7 {
        fill: #fff;
      }

      .cls-8 {
        fill: #60412e;
      }

      .cls-9 {
        fill: #785134;
      }
    </style>
  </defs>
  <g>
    <path class="cls-1" d="M69.67,168.06c-12.8,0-37.25-4.73-50.81-11.07a23.85,23.85,0,0,1-6.21-4.1A9.54,9.54,0,0,1,5.73,147a10.94,10.94,0,0,1-.17-7.18,9,9,0,0,1-.12-9.93,8,8,0,0,1,2.56-8c2.83-2.44,6.19-3.37,8.64-4,.55-.15,1.08-.3,1.59-.47a30.62,30.62,0,0,1,4-1.11A17.64,17.64,0,0,0,23.89,115l.74-.64A8,8,0,0,1,28,106.88a18.25,18.25,0,0,1,6.62-2.6c.37-.09.72-.16,1-.26a43.07,43.07,0,0,1,10.92-1.75c.46,0,1,0,1.58,0,.93,0,1.88,0,2.83.05l1.46,0a10.26,10.26,0,0,1,1-2.45,9.13,9.13,0,0,1,8-4.84,11.67,11.67,0,0,1,1.18.07c1.09,0,2.19,0,3.27,0h8c1.39-3.34,4.49-5.42,8.68-5.59.62,0,1.28,0,1.94,0h1.13a8,8,0,0,1,3.48-4,12.42,12.42,0,0,1,3.38-1.3,9.57,9.57,0,0,1,2-4.61,10.31,10.31,0,0,1,4.92-3.35C102.75,52.17,122,29.8,128.29,23.07,142,8.43,175.72,6.85,189.6,6.85c25.27,0,47.77,4.45,60.21,11.92,4.12,2.47,7.62,4.68,10.71,6.64,2.56,1.62,4.77,3,6.72,4.17a28.83,28.83,0,0,0,6.93,3.31,4.22,4.22,0,0,0,.92.12c1.35,0,3.46-1.26,6.45-3.85a141.43,141.43,0,0,1,24.14-16.37,11.78,11.78,0,0,1,5.82-7.7A11.36,11.36,0,0,1,317,3.77a21.39,21.39,0,0,1,8.31,2c1-.09,2.09-.14,3.12-.14,6.92,0,13.4,2.08,20.4,6.53,1.65,1.06,3.38,2.27,5.31,3.71q.79.59,1.65,1.26c1.61,1.25,3.23,2.56,4.94,4,2.12,1.73,4.32,3.52,6.68,5.32a38.08,38.08,0,0,1,7.74,7.6A11,11,0,0,1,381.22,43a13.13,13.13,0,0,1-3.58,10.35,28.87,28.87,0,0,1-7.18,7.85c-5.4,4.41-15.31,6.55-30.28,6.55-4.11,0-7.69-.17-9.91-.31C323,74.61,316,83.66,308.45,95.61a28.2,28.2,0,0,1-6.83,7.39c-1.82,3.09-4.07,6.91-5.85,9.82a3.49,3.49,0,0,0,.15,3.16c7.8,1.15,12.09,7.79,13,12a8.36,8.36,0,0,1-1.66,7.07,8.47,8.47,0,0,1-6.65,3.09,15.12,15.12,0,0,1-3.24-.43,8.76,8.76,0,0,1-4.86,1.45,14.44,14.44,0,0,1-3.3-.46l-.36-.07c-1.12.11-2.25.18-3.36.18a34.87,34.87,0,0,1-8.22,1c-7.77,0-14.15-3-18-8.51A76.94,76.94,0,0,1,249,108.93c-.85-.32-1.64-.66-2.39-1-8.1-3.83-44.69-11.47-61.07-12.41-2.81,7.39-7.65,14.45-11.9,20,4.32,1,7,3.33,9.89,6.84,3.38,4.08,2.85,7.55,1.82,9.75a8.13,8.13,0,0,1-7.44,4.68,10.51,10.51,0,0,1-3.22-.56,8.16,8.16,0,0,1-4.87,1.57,12.12,12.12,0,0,1-4-.8,12,12,0,0,0-2.58-.65c-5.45,1.07-12.46,1.45-26.66,1.45-10.18,0-18.84-4.54-25.06-13C97,134.42,83.14,139.3,70.35,139.3c-2.16,0-4.14.07-5.91.2a80,80,0,0,1,16.1,10.37c5.32,4.66,4.28,9.48,3.58,11.33C81.54,168.06,73.23,168.06,69.67,168.06Z"/>
    <g>
      <path class="cls-2" d="M107,83.08c.15-4.74,14.47-52.21,42.75-60.92,28.64-8.82,85.42,1.35,99.42,10.5,4.6,3,9.27,6,13.63,8.43a62.65,62.65,0,0,0,8.57,4.08c5.11,1.89,9.21,2,11.41-.87,5-6.59,28-23.29,28-23.29.77-.48,1.49-1,2.19-1.42-.13-.46-.28-.91-.43-1.37-5.92,3.08-16.75,9.22-25.72,17-5.75,5-9.68,6.54-14.34,5.49-2.69-.59-5.62-2.06-9.28-4.24-4.46-2.64-10-6.34-17.46-10.83-24.28-14.57-94.76-15.11-111.56,2.9C120.79,42.84,107,64.27,107,83.08Z"/>
      <path class="cls-2" d="M307.79,22.26c5.13-4.5,17.15-7.1,27.57-3.84a33.13,33.13,0,0,1,6.49,3.16c1.34.81,2.76,1.73,4.22,2.72C350.37,27.22,355,30.77,359,34a67,67,0,0,1,9.73,9.37,14,14,0,0,0,2.48.25c-1.08-3-2.69-6.29-8.67-10.87-4.36-3.34-8.13-6.56-11.69-9.33l-1.53-1.16c-1.63-1.22-3.23-2.35-4.8-3.36-8.14-5.18-16-7.2-27.49-3.13A22.11,22.11,0,0,0,307.79,22.26Z"/>
      <path class="cls-3" d="M61.17,131.75l0,0a79,79,0,0,1,9.16-.47c13.57,0,27-6.67,37.13-13.37a119.34,119.34,0,0,0,11.29-8.43c0-1.93,0-3,0-3l-2.15-11.62c-3.87,6.24-17.86,25.67-41.93,27.23A93.14,93.14,0,0,0,61,124c-.05.6-.3,1.33-.62,2.8C59.92,128.58,59.52,130.43,61.17,131.75Z"/>
      <path class="cls-4" d="M53.45,110.34a1.59,1.59,0,0,0,.27.12c1.71.68,3.33.3,4.13,2.48a32.12,32.12,0,0,0,.59,5.79c.48.8,1,1.6,1.45,2.4C60.74,122.68,61,123.2,61,124a93.14,93.14,0,0,1,13.7-1.84c24.07-1.56,38.06-21,41.93-27.23l-2-10.57-.08-.07c-.15-.08-.53-.32-1.1-.7a4.92,4.92,0,0,1-1.27.32,41.1,41.1,0,0,1-5-.15c-1.95,0-7.52-.89-6.69,2.68.29,1.31,3.94,4.53,3,5.49-.68.74-3.19.16-4.06.16-2,0-4.58-.54-6.37.47,0,1.25.38,2.66-.08,3.84-.72,1.9-2.62,1.24-4.24,1.24-1.93,0-3.92-.12-5.85,0-1.56.07-1.82.54-1.8,2s.6,2.82-1.16,3.48a17.27,17.27,0,0,1-4.25.17c-2.79,0-5.59,0-8.4,0-1.79,0-3.59,0-5.4-.07a1.16,1.16,0,0,0-1.45.67c-1,1.53.29,3.15,1.3,4.14-.53,1.33-1.69,1.58-3.1,1.93A22.37,22.37,0,0,1,53.45,110.34Z"/>
      <path class="cls-5" d="M263,95.21c.64,11.18,6.12,23.56,11,30.5s15.14,5.14,19,3.93,8.44,1.51,8.12,0a8,8,0,0,0-7.08-5.81c-4.59-.23-8.94-8.84-5.08-15.17S299.1,91.44,299.1,91.44c2.17-6.66,1.47-10.68-.91-12.78,0,0-2.17,20.83-18.77,25.12-12.86,3.34-14.82-7.51-13.6-14.44C264,91.4,262.9,93.45,263,95.21Z"/>
      <path class="cls-5" d="M119.35,103.78c3.19,13.14,11.07,25,25.38,25s20.54-.39,25.21-1.31,10.26,3.38,7.46,0-4.36-4.6-10.05-4.6-5.82-4.91-2.39-9.22,18.35-22.4,14.31-34.07c-2.1-6.07-7.49-9.72-12.18-11.84,0,0,16.54,15.77-4,33.2s-45.62,6.86-41.79-14.16C118.7,92.86,118.22,99.11,119.35,103.78Z"/>
      <path class="cls-4" d="M107,83.08v.21a33.52,33.52,0,0,0,1.36,9.56c10.88,10.54,47-4.46,47-19.53,0-7.49,4.75-7,12.1-4.38,8.7-1.25,19.29,3.14,28,8.84,11.67,7.6,63.75,11.06,63.75,11.06s17,2.35,31.16-.45,24.08-33.72,24.08-33.72c6-8.44,12.25-12.32,17.73-12.44-3.55-10.61-12.82-23-14.88-25.67-.26-.34-.41-.52-.41-.52s-1.68.77-4.38,2.18c.15.46.3.91.43,1.37-.7.46-1.42.94-2.19,1.42,0,0-23,16.7-28,23.29-2.2,2.92-6.3,2.76-11.41.87a62.65,62.65,0,0,1-8.57-4.08c-4.36-2.44-9-5.43-13.63-8.43-14-9.15-70.78-19.32-99.42-10.5C121.42,30.87,107.1,78.34,107,83.08Z"/>
      <path class="cls-3" d="M110.17,98.92l1.08,5.87s0,.53,0,1.5c1.76-1.46,2.77-2.46,2.77-2.46,9.86,12.46,23.11,6.8,30.69,6.8,8.71,0,29.57-17.86,32.67-22.21s60.83,6.67,72.66,12.27,42.25,5.59,51.62-9.34S320.22,65,330.89,56.06c3.45-2.89,3.19-8.09,1.27-13.82-5.48.1-11.7,4-17.72,12.43,0,0-9.93,30.92-24.08,33.73s-31.16.43-31.16.43-52.08-3.45-63.75-11c-10.55-1.24-20.62-6.14-28-8.84a16.59,16.59,0,0,0-7.91,3.28c-9.33,7.3,11.21,21.31-13.07,25.74s-35.7,0-35.7,0S110.54,98.32,110.17,98.92Z"/>
      <path class="cls-3" d="M167.4,68.94c7.43,2.69,17.5,7.6,28,8.84C186.69,72.08,176.1,67.69,167.4,68.94Z"/>
      <path class="cls-4" d="M109.17,93.59l1,5.33c.37-.6.56-1,.56-1s11.43,4.43,35.7,0,3.74-18.44,13.07-25.74a16.59,16.59,0,0,1,7.91-3.28c-7.36-2.66-12.1-3.12-12.1,4.38C155.31,88,121,102.63,109.17,93.59Z"/>
      <path class="cls-3" d="M254.9,96.22c.65,11.18,6.13,23.56,11,30.5s15.15,5.14,19,3.93,8.44,1.52,8.12,0a8,8,0,0,0-7.07-5.81c-4.6-.23-8.95-8.83-5.08-15.17S291,92.45,291,92.45c2.17-6.66,1.47-10.68-.91-12.78,0,0-2.17,20.83-18.77,25.12-12.86,3.34-14.82-7.51-13.6-14.44C255.87,92.41,254.8,94.46,254.9,96.22Z"/>
      <path class="cls-3" d="M111.26,104.79c3.18,13.14,11.06,25,25.37,25s20.54-.4,25.21-1.32,10.27,3.38,7.47,0-4.36-4.6-10.06-4.6-5.81-4.91-2.39-9.22,18.36-22.4,14.32-34.07c-2.11-6.07-7.49-9.72-12.19-11.84,0,0,16.54,15.77-4,33.2s-45.63,6.86-41.8-14.16C110.6,93.87,110.12,100.12,111.26,104.79Z"/>
      <path class="cls-4" d="M271.32,104.79c16.6-4.29,18.77-25.12,18.77-25.12-6.44-5.72-25.2,2.66-32.37,10.68C256.5,97.28,258.46,108.13,271.32,104.79Z"/>
      <path class="cls-4" d="M155,101.93c20.53-17.43,4-33.2,4-33.2a37,37,0,0,0-8.05-2.59c-21.44,0-33,10.59-37.74,21.63C109.37,108.79,134.46,119.36,155,101.93Z"/>
      <path class="cls-4" d="M306.75,52.2c4.07,2.07,14.05,3.26,24.62,3.45A137.13,137.13,0,0,0,352,54.59c14.93-2.1,16.18-8.15,16.18-8.15a10.52,10.52,0,0,1,3.3-1.92,8.43,8.43,0,0,0-.26-.87,14,14,0,0,1-2.48-.25A67,67,0,0,0,359,34c-4-3.26-8.63-6.81-12.93-9.73-1.46-1-2.88-1.91-4.22-2.72a33.13,33.13,0,0,0-6.49-3.16c-10.42-3.26-22.44-.66-27.57,3.84h0l0,0C300.5,30.66,298.48,44.05,306.75,52.2Z"/>
      <path class="cls-4" d="M337.89,39.27c1,11.2,12.07,5,14.87,0A13.31,13.31,0,0,1,359,34c-4-3.26-8.63-6.81-12.93-9.73C341.53,27.49,337.28,32.46,337.89,39.27Z"/>
      <path class="cls-3" d="M325.89,59.2c.87.06,1.77.07,2.68.07,0,0,28.5,2.49,36.84-4.3,4.47-3.64,6.94-6.72,6.06-10.45a10.52,10.52,0,0,0-3.3,1.92S366.93,52.5,352,54.6a137.12,137.12,0,0,1-20.62,1,14.54,14.54,0,0,1-3.19,2.29Z"/>
      <path class="cls-3" d="M306.76,52.21c3.9,3.86,10.1,6.55,19.13,7l2.29-1.26a14.54,14.54,0,0,0,3.19-2.29C320.81,55.46,310.83,54.27,306.76,52.21Z"/>
      <path class="cls-4" d="M318.14,28.35c.41-.51.93-1.14,1.55-1.81-4.55-2.84-5-13.47,1-11.6,4.59,1.45,6.63,4,7.34,5.15.75-.4,1.54-.76,2.36-1.1-2.5-3.41-11.81-8.64-15.1-6.87C310.7,14.61,314.88,25.43,318.14,28.35Z"/>
      <path class="cls-6" d="M369.47,40.56s3.54.27,3.77,3.07-1.7,5.84-3.77,4.2S363.6,39.82,369.47,40.56Z"/>
      <path class="cls-3" d="M319.69,26.54A30.48,30.48,0,0,1,328,20.09c-.71-1.13-2.75-3.7-7.34-5.15C314.73,13.07,315.14,23.7,319.69,26.54Z"/>
      <circle class="cls-6" cx="346.03" cy="36.59" r="6.66"/>
      <path class="cls-6" d="M342.2,37.36a4.63,4.63,0,1,0,4.62-4.63A4.62,4.62,0,0,0,342.2,37.36Z"/>
      <path class="cls-7" d="M343.19,33.27a1.64,1.64,0,1,1,1.63,1.64A1.64,1.64,0,0,1,343.19,33.27Z"/>
      <path class="cls-8" d="M48.15,141.11s-3.73-7.39,13-9.34l0,0c-1.65-1.32-1.25-3.17-.84-5,.32-1.47.57-2.2.62-2.8C42.8,127.86,37.32,136.33,48.15,141.11Z"/>
      <path class="cls-9" d="M13.57,137a9.91,9.91,0,0,1,0,3.48c-.09,1.06-.88,2.47-.46,3.52.59,1.48,2.19,1,3.42,1.4a.49.49,0,0,1,.18.08,14,14,0,0,0,5.49,4.22c18.51,8.65,62.92,14.8,53,6.16-8.25-7.19-21.62-12.7-25.82-14.3l-.15-.06c-.25-.11-.5-.17-.74-.28l-.42-.15C37.32,136.33,42.8,127.86,61,124c.07-.76-.21-1.28-1.06-2.83-.49-.8-1-1.6-1.45-2.4a32.12,32.12,0,0,1-.59-5.79c-.8-2.18-2.42-1.8-4.13-2.48a1.59,1.59,0,0,1-.27-.12c-2.25,0-4.52-.16-6.65-.07a34.83,34.83,0,0,0-8.89,1.43c-1.59.47-3.94.76-5.33,1.73.61,1,2.05,1.14,2.64,2.08a2.53,2.53,0,0,1-.42,2.67c-.62.5-1.59.17-2.34.54a17.88,17.88,0,0,0-2.54,1.63c-1.83,1.56-3.51,3.29-5.93,3.78a20.77,20.77,0,0,0-3.24.89c-2.46.81-5.55,1.28-7.54,3,.47,1,2.34,2.23,1.76,3.56-.47,1-1.86,1.16-2.5,2.2C11.2,135.78,12.94,135.46,13.57,137Z"/>
    </g>
  </g>
</svg>
