<svg id="Layer_1" data-name="Layer 1" xmlns="http://www.w3.org/2000/svg" xmlns:xlink="http://www.w3.org/1999/xlink" width="187.91" height="399.61" viewBox="0 0 187.91 399.61">
  <defs>
    <style>
      .cls-1 {
        fill: none;
      }

      .cls-2 {
        fill: #fffa4d;
      }

      .cls-3 {
        fill: #e89b7c;
      }

      .cls-4 {
        fill: #81bee8;
      }

      .cls-19, .cls-31, .cls-38, .cls-4, .cls-60, .cls-7 {
        stroke: #4a2811;
      }

      .cls-19, .cls-31, .cls-38, .cls-4, .cls-60, .cls-63, .cls-7, .cls-72 {
        stroke-miterlimit: 10;
      }

      .cls-19, .cls-38, .cls-4, .cls-7 {
        stroke-width: 0.5px;
      }

      .cls-5 {
        fill: #797979;
      }

      .cls-6 {
        fill: #dd805f;
      }

      .cls-7 {
        fill: #5493b6;
      }

      .cls-8 {
        fill: #5b7d38;
      }

      .cls-9 {
        fill: #d26444;
      }

      .cls-10 {
        fill: #42602d;
      }

      .cls-11 {
        fill: #c21e6c;
      }

      .cls-12 {
        fill: #dcc13f;
      }

      .cls-13 {
        fill: #af1e52;
      }

      .cls-14 {
        fill: #ceac2b;
      }

      .cls-15 {
        fill: #a01e57;
      }

      .cls-16 {
        fill: #7b9958;
      }

      .cls-17 {
        fill: #647f40;
      }

      .cls-18 {
        fill: #8b8b8b;
      }

      .cls-19, .cls-21, .cls-60 {
        fill: #f7d8d0;
      }

      .cls-20 {
        fill: #4d4e4e;
      }

      .cls-22 {
        fill: #dc9c2a;
      }

      .cls-23 {
        fill: #5c9641;
      }

      .cls-24 {
        fill: #951a3a;
      }

      .cls-25 {
        fill: #ba932e;
      }

      .cls-26 {
        fill: #5f7e3e;
      }

      .cls-27 {
        fill: #48622d;
      }

      .cls-28 {
        fill: #2f441d;
      }

      .cls-29 {
        fill: #f2b22e;
      }

      .cls-30 {
        fill: #294720;
      }

      .cls-31, .cls-38 {
        fill: #f0cdc6;
      }

      .cls-31, .cls-63 {
        stroke-width: 0.75px;
      }

      .cls-32 {
        fill: #2a2a2a;
      }

      .cls-33 {
        fill: #427b3a;
      }

      .cls-34 {
        fill: #4a2811;
        opacity: 0.25;
      }

      .cls-35 {
        fill: #305e2e;
      }

      .cls-36 {
        fill: #26421d;
      }

      .cls-37 {
        fill: #c1472c;
      }

      .cls-39 {
        fill: #7a1125;
      }

      .cls-40 {
        fill: #b6765a;
      }

      .cls-41 {
        fill: #79ae42;
      }

      .cls-42 {
        fill: #3b5225;
      }

      .cls-43 {
        fill: #342517;
      }

      .cls-44 {
        fill: #4d3f3f;
      }

      .cls-45 {
        fill: #d9a227;
      }

      .cls-46 {
        fill: #db6537;
      }

      .cls-47 {
        fill: #5a7d38;
      }

      .cls-48 {
        fill: #dbba26;
      }

      .cls-49 {
        fill: #cc7a5e;
      }

      .cls-50 {
        fill: #c87d29;
      }

      .cls-51 {
        fill: #e29939;
      }

      .cls-52 {
        fill: #edba26;
      }

      .cls-53 {
        fill: #d1cdc9;
      }

      .cls-54, .cls-63 {
        fill: #fff;
      }

      .cls-55 {
        fill: #352a2a;
      }

      .cls-56 {
        clip-path: url(#clip-path);
      }

      .cls-57 {
        fill: #1a1723;
      }

      .cls-58 {
        fill: #e36381;
      }

      .cls-59 {
        fill: #f2bca9;
      }

      .cls-61 {
        fill: #b16b51;
      }

      .cls-62 {
        fill: #e9a597;
        opacity: 0.5;
      }

      .cls-63 {
        stroke: #3d2e17;
      }

      .cls-64 {
        fill: #3d2e17;
      }

      .cls-65 {
        fill: #8c3e36;
      }

      .cls-66 {
        fill: #7b2f2c;
      }

      .cls-67 {
        fill: #f5968e;
      }

      .cls-68 {
        fill: #f48678;
      }

      .cls-69 {
        fill: #fff6f3;
      }

      .cls-70 {
        fill: #f48a71;
      }

      .cls-71 {
        fill: #ef4b3b;
      }

      .cls-72 {
        fill: #e7d760;
        stroke: #baa63c;
      }
    </style>
    <clipPath id="clip-path">
      <path class="cls-1" d="M89.23,72.5H89c-2.73.22-4.72,4.12-4.45,8.71s2.56,7.91,5.19,7.91H90c2.73-.22,4.72-4.13,4.45-8.71s-2.56-7.91-5.19-7.91"/>
    </clipPath>
  </defs>
  <g>
    <path class="cls-2" d="M180.58,182.54s0-1.11-.05-1.3,0-.64-.06-1l0-.5c0-.3-.05-.61-.08-.91-.06-.64-.13-1.27-.22-1.9l0-.23c0-.23-.06-.46-.1-.7-.13-.89-.27-1.76-.44-2.62l-.06-.28q-.24-1.23-.54-2.43c-.05-.23-.11-.46-.17-.69l-.07-.24c-.14-.54-.28-1.08-.43-1.62-.08-.3-.3-1-.3-1-.14-.49-.29-1-.45-1.45s-.22-.69-.33-1-.31-.94-.47-1.4l-.54-1.51-.63-1.68c-.24-.64-.48-1.28-.74-1.94l-2.15-5.46-.82-2.13-.81-2.17-.74-2.12c-.31-.88-.62-1.73-.94-2.55l-.19-.48c-.33-.83-.67-1.64-1-2.46l-.07-.15c-.33-.74-.67-1.45-1.05-2.18l-.2-.4c-.38-.73-.77-1.43-1.18-2.12l-.21-.35c-.37-.61-.74-1.21-1.15-1.82l-.22-.33.05.09-.17-.26-.15-.22-.54-.72L163,132c-.19-.26-.38-.52-.57-.75s-.53-.64-.79-.95l-.22-.25-.64-.74c-.26-.28-.52-.54-.79-.81l-.24-.24c-.24-.25-.48-.49-.71-.7s-.5-.45-.75-.67l-.3-.25c-.27-.24-.54-.48-.81-.69s-.4-.31-.63-.47a28,28,0,0,0-7.3-4l-.26-.1-.91-.29-.55-.18-.55-.13-.29-.08a9.07,9.07,0,0,0,1.55-4.81s0-.08,0-.12a9.06,9.06,0,0,0-.8-3.9c0-.14,0-.64,0-.72a2.45,2.45,0,0,1,0-.27,9.54,9.54,0,0,0,2-1.77,12.35,12.35,0,0,0,2.65-7.82c3.32-3.61,4.45-7.46,5-11.95a16.36,16.36,0,0,0-1.43-9.83A48.91,48.91,0,0,0,157.46,66c0-15.33-3.5-28.45-10.13-38-6-8.55-17.71-18.75-39.79-18.75-31.83,0-51.6,20.12-51.6,52.5a53.31,53.31,0,0,0,.33,5.87c0,.45.11.89.16,1.3.2,1.43.46,2.88.79,4.32a26.07,26.07,0,0,0,.89,3.46s0,.09,0,.14c.11.35.22.71.34,1.06-1.92,2.66-3,6.42-2.39,11.27.56,4.67,1.77,8.66,5.48,12.39a12.1,12.1,0,0,0,2.57,7.13s-.05.28-.05.28c-.09.56-.17,1.16-.23,1.84l0,.24s-.05.68-.07.83a9.2,9.2,0,0,0-.79,3.9s0,.07,0,.1a9.08,9.08,0,0,0,1.35,4.52l-.39.15-.76.32c-.48.22-.95.45-1.44.72a5.12,5.12,0,0,0-.52.27,3.37,3.37,0,0,0-.32.19c-.68.39-1.36.84-2.06,1.34l-.38.27L58,124l-.27.22-.61.5-.5.43q-.18.15-.36.33l-.68.65-.44.42-.29.31-.48.5-.31.36c-.33.37-.66.75-1,1.12-.09.11-.18.21-.27.33s-.43.54-.64.81l-.12.17s-.58.79-.71,1l-1.34-.9a43.18,43.18,0,0,0-6.79-4c-2-4-6.75-5.39-9-6a39.74,39.74,0,0,0-7.74-1.5c-.43,0-.82,0-1.18,0h-.29a10.22,10.22,0,0,0-7.89,3.19A11.15,11.15,0,0,0,12.83,125a9.9,9.9,0,0,0-2.33,1.77,12.49,12.49,0,0,0-3.18,9.35c.21,6.9,3.76,10.2,5.87,11.58A13.58,13.58,0,0,0,18,149.49,13.81,13.81,0,0,0,21,152c1.93,1.12,4,1.42,8.22,2,.8.1,1.83.23,2.71.37a16.6,16.6,0,0,0,2.34,9.22l.21.32a12.64,12.64,0,0,0,2.13,2.54h0c-.21.7-.42,1.41-.6,2.09l-.08.29c-.18.67-.34,1.35-.5,2l-.16.69c-.15.67-.28,1.35-.41,2.05l-.07.34c-.14.79-.26,1.6-.37,2.42l-.1.87c0,.22-.06.44-.08.65l-.06.73,0,.21L34,179.88c0,.58-.06,1.18-.08,1.77v.23l0,.88c0,.68,0,1.37,0,2.07v.22c0,.23,0,.46,0,.7,0,1.08.09,2.1.17,3.11l0,.23c.1,1.19.22,2.39.35,3.59l.14,1.26q.15,1.35.33,2.73l.15,1.15c.15,1.21.32,2.42.49,3.65l1.23,8.5.5,3.53c.13,1,.26,1.94.38,2.93l.14,1.12c.12.92.22,1.84.33,2.78l.13,1.32c.08.72.15,1.44.21,2.17.05.48.08,1,.12,1.44.06.71.11,1.41.16,2.12l.09,1.44c0,.75.07,1.51.1,2.26,0,0,0,1,.05,1.3,0,1,0,2.05,0,3.09V236c0,1.1,0,2.2-.07,3.31l0,1.55-.06,2.1-.06,2.24-.11,6.06c0,3-.1,6.33-.15,9.78l-.11,7-.16,9.44,8,.15h-8l0,2.13L38.14,285l-.09,3.51c-.18,6.33-.38,11.63-.62,16.18,0,0-.16,2.92-.16,2.93-.18,2.86-.38,5.38-.59,7.51l-.11,1-.1.9-.11.87-.12.85-.12.77-.11.6-.11.57s-.1.46-.1.46-.08.32-.11.41a8.09,8.09,0,0,0,.25,5.21l.2.46a15.09,15.09,0,0,0,.84,1.64l.09.17.27.45c.07.12.15.23.22.34a29.89,29.89,0,0,0,10.21,9.35,8.65,8.65,0,0,1,.9.63l.29.22a23,23,0,0,1,3.64,4.39,33,33,0,0,0,4.6,5.58,2.09,2.09,0,0,0,.22.2c.36.33.74.64,1.12.93l.46.33c.34.24.69.47,1.08.7l.53.31c.4.22.81.42,1.24.61l.51.23a7.91,7.91,0,0,0,2.91.55,8.25,8.25,0,0,0,2.85-.52c.25.31.53.63.83,1l.21.25c.41.45.83.91,1.23,1.33l.27.29,1.2,1.19.29.27c.47.45.95.9,1.45,1.34l.34.28c.45.39.91.78,1.45,1.22l.22.18c.55.43,1.11.87,1.71,1.31l.38.28c.54.38,1.08.77,1.65,1.15l.24.16c.63.42,1.27.83,1.91,1.22l.5.31c.42.25.85.51,1.28.75-.26.43-.5.89-.73,1.37-2.5,5.14-3.53,12.56,1,18l.24.27c.21.24.44.47.7.72.11.11.23.21.31.28.24.22.5.43.8.67l.34.25c.27.19.56.38.8.52l.42.26c.3.17.62.33.92.47a2.63,2.63,0,0,0,.3.14c.39.18.8.34,1.17.47l.21.08.47.14a8.37,8.37,0,0,0,.82.23l.56.13.8.16.66.1.82.1.61.06.85,0,.54,0h1l.64,0,.7,0,.71-.06.74-.08.68-.1c.21,0,.42-.06.64-.11l.76-.16.56-.13.76-.22.52-.16c.34-.11.66-.23.94-.35l.32-.13c.42-.18.83-.37,1.13-.53l.44-.24.57-.33.18-.11a18.39,18.39,0,0,0,8,2.62l.42.05.6,0c.27,0,.55,0,.81,0h.4l.66,0h.51c.24,0,.48,0,.71,0h.11l.48,0,.6,0,.17,0,.56-.06.65-.1.75-.14.58-.13.57-.14.37-.11.41-.13a13.53,13.53,0,0,0,8.32-7.3c2.72-6.07.27-12.4-.92-14.85l-.36-.69-.26-.48-.11-.19.85-.49c.5-.3,1-.6,1.46-.9l.93-.59,1.4-.95.15-.11c.23-.15.45-.31.67-.47.47-.34.93-.69,1.38-1l.69-.53c.53-.42,1-.84,1.57-1.3l.36-.3c.63-.55,1.22-1.09,1.82-1.66.07-.07.14-.15.22-.22.48-.47.95-.94,1.39-1.4l.49-.53c.35-.38.69-.75,1-1.13l.74-.87a8,8,0,0,0,5.85-.07,18.55,18.55,0,0,0,7.41-5.76l.17-.21c.24-.31.49-.62.73-.95,0,0,.62-.84.78-1.07l1.28-1.81.57-.78.58-.76.22-.26.34-.4.2-.23.33-.33.2-.21c.12-.12.25-.23.38-.34l.22-.2a8.31,8.31,0,0,1,1-.72l.39-.23.64-.4.21-.13.47-.3c.34-.22.66-.44,1-.68l.92-.67.1-.07.58-.45,1-.82.2-.19c.33-.29.64-.57.91-.83s.55-.53.87-.87l.53-.54c.09-.11.19-.22.27-.33.36-.4.71-.81,1-1.22.06-.06.11-.14.17-.21l.26-.35c.14-.19.28-.38.4-.56l.17-.24.32-.49.3-.5.14-.22c.1-.17.18-.33.28-.51s.14-.25.19-.36.28-.56.28-.56.16-.35.19-.43l.15-.37a7.81,7.81,0,0,0,.26-5.07c0-.05-.09-.35-.12-.47l-.17-.77c0-.24-.09-.49-.13-.7l-.19-1.22c0-.34-.09-.69-.14-1.05,0,0-.11-.93-.15-1.32l-8,.88,7.93-1c0-.43-.09-.86-.13-1.31,0,0-.1-1-.14-1.53,0,0-.1-1.14-.13-1.58,0,0-.14-1.91-.14-1.91-.08-1.13-.15-2.31-.22-3.55V306c-.07-1.24-.14-2.52-.2-3.83v-.14c-.07-1.34-.12-2.71-.18-4.08l-.08-2.26-.08-2.17-.13-4.48-.16-6.33c-.16-7.39-.28-15.05-.38-21.81-.13-8.84-.24-16.47-.43-21.66,0-1.06-.06-2.11-.07-3.15v-.8c0-.78,0-1.56,0-2.34l0-1c0-.71.05-1.43.08-2.14l.06-1c0-.69.08-1.38.13-2.07l.07-1c.06-.69.11-1.39.18-2.08l.09-1c.07-.72.14-1.42.22-2.13l.1-.91c.08-.76.17-1.52.26-2.27l.09-.72c.11-.88.23-1.76.35-2.64l0-.34c.34-2.51.7-5,1.06-7.43l.64-4.43.43-3.06s.32-2.47.39-3l.26-2.22,0-.47c.14-1.33.28-2.67.39-4.05a.62.62,0,0,0,0-.13c.08-.94.13-1.93.17-3.05v-.47C180.61,184.42,180.61,183.48,180.58,182.54Z"/>
    <g>
      <path class="cls-3" d="M107.27,363.09a31.11,31.11,0,0,1,.29,5.23c0,.83.07,1.72.14,2.66.3,3.53-.35,11.54,10.75,11.35,9.69-.16,8.12-7.88,6.33-11.58a10.53,10.53,0,0,0-.77-1.34c-1.88-2.62-2-4-2-4l-2.22-1.93s-12.91-1.75-12.53-.39"/>
      <path class="cls-4" d="M107.56,368.32c0,.83.07,1.72.14,2.66.3,3.53-.35,11.54,10.75,11.35,9.69-.16,8.12-7.88,6.33-11.58-1.21,1.34-3.49,2.66-7.79,2.66a10.43,10.43,0,0,1-9.43-5.09"/>
      <path class="cls-3" d="M107.25,363.09a31.11,31.11,0,0,0-.29,5.23c0,.83-.07,1.72-.14,2.66-.3,3.53.35,11.54-10.75,11.35-9.68-.16-8.12-7.88-6.32-11.58a8.56,8.56,0,0,1,.77-1.34c1.87-2.62,2-4,2-4l2.23-1.93s12.9-1.75,12.52-.39"/>
      <path class="cls-5" d="M121.87,381.86a12.65,12.65,0,0,1-3.42.47h-.37a17.13,17.13,0,0,1-1.81-.09,17.52,17.52,0,0,0,1.83.09h.35a12.65,12.65,0,0,0,3.42-.47m2.17-12.4c.11.16.23.35.35.56-.12-.21-.24-.4-.35-.56m-2-4.06h0a8.61,8.61,0,0,0,1.6,3.45,8.61,8.61,0,0,1-1.6-3.45h0m-14.74-2.29a8.38,8.38,0,0,1,.21,1.68,8.36,8.36,0,0,0-.2-1.67h0"/>
      <path class="cls-6" d="M107.28,363.12a8.36,8.36,0,0,1,.2,1.67v.06c2.72.92,17,6,9.51,8.56h0c4.29,0,6.57-1.32,7.78-2.66h0a8,8,0,0,0-.38-.72c-.12-.21-.24-.4-.35-.56l0,0-.39-.55a8.61,8.61,0,0,1-1.6-3.45h0s-.25,0-.64.1a38.07,38.07,0,0,1-4.79.32c-3.16,0-6.91-.47-9-2.4h0l0,0h0v0h0l-.11-.11h0l0,0h0l0,0h0v0h0l0,0h0"/>
      <path class="cls-4" d="M107,368.32c0,.83-.07,1.72-.14,2.66-.3,3.53.35,11.54-10.75,11.35-9.68-.16-8.12-7.88-6.32-11.58,1.2,1.34,3.48,2.66,7.78,2.66a10.42,10.42,0,0,0,9.43-5.09"/>
      <path class="cls-5" d="M92.37,381.77h0m10.66-1a12,12,0,0,1-6.59,1.58h-.37a11.87,11.87,0,0,1-3.68-.56,11.87,11.87,0,0,0,3.68.56h.36a12,12,0,0,0,6.6-1.58m0,0,0,0,0,0m0,0h0M92.5,365.41h0a3.36,3.36,0,0,1-.16.65h0a2.79,2.79,0,0,0,.15-.65h0m14.75-2.32h0a7.9,7.9,0,0,0-.2,1.62,7.81,7.81,0,0,1,.2-1.62h0"/>
      <path class="cls-6" d="M107.25,363.09c-2,2.22-6,2.74-9.31,2.74a36.1,36.1,0,0,1-5.44-.42h0a2.79,2.79,0,0,1-.15.65c3.06.78,7.84,1.95,10.09,2.26,3.13.42.12,4.91-6.06,4.91a12.88,12.88,0,0,1-2-.15l.22.09a17,17,0,0,0,2.94.24,10.43,10.43,0,0,0,9.43-5.09h0c0-1.4,0-2.63.09-3.61a7.9,7.9,0,0,1,.2-1.62"/>
      <path class="cls-7" d="M107,368.32a10.43,10.43,0,0,1-9.43,5.09,17,17,0,0,1-2.94-.24,13.69,13.69,0,0,0,4.79.77,22.43,22.43,0,0,0,4.66-.5s-1.68,6.93-8.56,6.93a14.89,14.89,0,0,1-5.72-1.31l-.9-.4a5.45,5.45,0,0,0,3.51,3.11h0a11.87,11.87,0,0,0,3.68.56h.37a12,12,0,0,0,6.59-1.58h0l0,0h0c3.78-2.49,3.52-7.24,3.73-9.75.07-.92.11-1.81.14-2.65"/>
      <path class="cls-8" d="M147.83,263.71v66.85s0,19.31-25.82,31.08v3.77s-11,1.89-14.76-2.32c-3.76,4.21-14.75,2.32-14.75,2.32v-3.77c-25.82-11.77-25.82-31.08-25.82-31.08l.88-66.85h80.27"/>
      <path class="cls-9" d="M122,365.41s-.25,0-.64.1c.39-.05.62-.09.64-.1m0,0h0m-14.43-2h0m0,0h0m0,0h0m-.12-.12.11.11-.11-.11m0,0,0,0,0,0m0,0,0,0,0,0m0,0v0m0,0,0,0,0,0m0,0h0"/>
      <path class="cls-10" d="M122,362.23a34.46,34.46,0,0,1-2.88,3.5c1-.06,1.73-.15,2.23-.22s.62-.09.64-.1h0v-3.18m6-43.55c-3.65,23.57-15.33,33.72-20.77,38.7v5.71l0,0h0l0,0h0v0h0l0,0h0l0,0h0l.11.11h0v0h0l0,0h0a6.15,6.15,0,0,0,.62.5c4-2.29,19.44-11.94,23.85-26.91-2.35,10.89-5.61,18.72-9.44,24.34,14.13-6.61,20.34-15.48,23.07-22-4.1-5.52-11.07-12.56-17.66-20.67m-11-16c.4,18.18-9.82,31.91-9.82,31.91v9.33s10.45-5.07,17.34-29.64c-1.24-1.65-2.45-3.35-3.6-5.07h0c-1.41-2.13-2.73-4.31-3.92-6.53m-9.82,21.7s-15.51-20.32-7.56-44c.59,17.2,7.56,37.34,7.56,37.34v6.71m0-10.1v-9.72A66.94,66.94,0,0,1,104,271.8c.58,3.59,3.23,9.29,3.23,9.29v9.12s2.66-5.85,3.24-9.53a70.21,70.21,0,0,1-3.24,33.62m3.6-46.86H75c.11,8.38.14,16.42,0,23.31a159.65,159.65,0,0,1-4.37,34.57c-1,4.12-2,7.78-2.92,11.08,2,6.64,7.88,17.55,24.75,25.24-14.26-8.14-17.14-18.56-17.22-18.89a66.65,66.65,0,0,0,25.54,16.49c-7.65-4.87-14.33-14.29-18.37-32.49,5.09,16.82,24.8,26.75,24.8,26.75v-6.89c-7.1-6.35-24.8-21.24-21.46-62.62,5.43,41.93,21.46,49.51,21.46,49.51v-5.77a173.32,173.32,0,0,0,7-31.06,40,40,0,0,1-3-14c-.09-4.77-.24-9.93-.43-15.26"/>
      <polyline class="cls-11" points="148.35 170.42 148.35 267.44 70.54 267.44 68.68 256.51 58.09 194.38 86.67 157.96 148.35 170.42"/>
      <polyline class="cls-12" points="148.35 254.47 148.35 267.44 70.54 267.44 68.68 256.51 72.12 254.47 148.35 254.47"/>
      <path class="cls-13" d="M84.35,218.79c.11,2.52.21,4.93.3,7.2A134.3,134.3,0,0,0,99.33,236.4c5.42,3.19,11.4,10.76,5.81,18.07h5.2c-.41-9.38-.9-18.79-1.38-27.15-.59,0-1.2.05-1.82.05h0a34.76,34.76,0,0,1-20.07-6.46c-1-.7-1.9-1.42-2.72-2.12M77.06,218c-.41.36-.82.7-1.23,1a12,12,0,0,1-1.62,1c0,1.29,0,2.64.05,4l3-1.11a4.65,4.65,0,0,1,1.27-.27c-.49-1.49-1-3-1.5-4.69"/>
      <path class="cls-14" d="M110.34,254.47h-5.2c-3.73,4.86-12.57,9.61-30.11,12.88v.08h35.82c0-1.47-.1-3-.16-4.46-.11-2.81-.23-5.66-.35-8.5"/>
      <path class="cls-15" d="M107.25,355.23v7.86c-3.76,4.21-14.75,2.32-14.75,2.32v-3.77S104,359.44,107.25,355.23Z"/>
      <path class="cls-16" d="M79,213a35.41,35.41,0,0,0,28.39,14.33h-.51A35.44,35.44,0,0,0,135.28,213l-29.75-20.88L79.34,212.59,79,213"/>
      <polygon class="cls-17" points="106.89 227.37 107.15 227.37 107.4 227.37 106.89 227.37"/>
      <path class="cls-17" d="M105.53,192.16,79.34,212.58,79,213a34.78,34.78,0,0,0,56.27,0l-29.75-20.88M84.75,212.57c1.61,2.35,11.4,15.66,21.37,7.24-4.41,9.73-11.91,7.32-21.37-7.24m.92-.66s10.53,9.16,20.88,1.88c0,0-5.12,16.47-20.88-1.88"/>
      <path class="cls-11" d="M163.55,152.08l-39.05,7.66c-8.93,0-17.86,0-26.79-.09-4.46-.07-8.93-.16-13.39-.21-4.1-.06-8.21-7.66-12.3-7.82-6.38-.24-13-.85-19.32-.08L51,150.18c.1-.27.19-.53.28-.8.83-2.35,1.72-4.56,2.67-6.6,4.68-9.6,11.29-14.35,19.13-14.89l1.1-.08c2-.16,3.85-.38,5.67-.64a118.29,118.29,0,0,0,16-3.41V105.55H118v18.21a118.84,118.84,0,0,0,16.56,3.49c1.84.25,3.75.46,5.69.61l.54,0c9.34.65,16.93,7.27,21.61,21,.37,1.1.76,2.17,1.15,3.22"/>
      <path class="cls-18" d="M134.56,127.24h0c1.51.2,3.06.38,4.64.52-1.58-.14-3.13-.32-4.64-.53h0"/>
      <path class="cls-13" d="M134.56,127.25c-6.6,3.83-16.38,6.25-27.29,6.25q-2.37,0-4.65-.15a32.31,32.31,0,0,1,5.81,11.05c1.21,4.38-1.3,5.91-5.41,5.91a25.37,25.37,0,0,1-3.8-.33c3.14,3.47,5.47,5.57,7.53,6.23l.38.1h.27l.21-.05c3.51-1,7.73-6.2,15.46-15.31a51.56,51.56,0,0,1,14.17-11.59c1.82-1,2.95-1.47,2.95-1.47l.06,0-1.05-.09c-1.58-.14-3.13-.32-4.64-.52h0"/>
      <path class="cls-19" d="M134.56,127.25c-6.6,3.83-16.38,6.25-27.29,6.25s-20.83-2.45-27.44-6.33a118.29,118.29,0,0,0,16-3.41V105.55H118v18.21a118.84,118.84,0,0,0,16.56,3.49"/>
      <path class="cls-20" d="M118,116.27h0v7.49a118.84,118.84,0,0,0,16.56,3.49h0A118,118,0,0,1,118,123.76v-7.49"/>
      <path class="cls-20" d="M95.83,117.61v6.15h0s-.75.22-2.06.57h0l2.07-.58v-6.15h0"/>
      <path class="cls-21" d="M118,116.27a34.32,34.32,0,0,1-12.56,4.64,37,37,0,0,1-9.6-3.3v6.15h0l-2.07.58a58.8,58.8,0,0,1,8.85,9c1.52.1,3.07.15,4.64.15,10.92,0,20.7-2.42,27.3-6.25A118.84,118.84,0,0,1,118,123.76v-7.49"/>
      <path class="cls-22" d="M172.44,188.22c-1.29,15.72-5.61,32.46-4.91,51.35s.36,73.06,3.62,84.28c0,0-1.6,4.48-8.44,8.48s-8.06,11.38-13.49,13.59c-2.28-11.11-37.41-35.36-37.94-63.22s-3-69.25-4-81.2c0,0-32-9.23-32.89,2.73s1.14,58.65.62,86.52-7.45,44.06-9.73,55.17c-5.43-2.21-6.66-9.59-13.49-13.59s-8.45-8.48-8.45-8.48c3.28-11.22,2.92-65.38,3.63-84.28s-3.63-35.63-4.91-51.35,4.22-24.34,8.89-38c.1-.27.19-.53.28-.8.83-2.35,1.72-4.56,2.67-6.6,4.39-9.45,10.14-15.36,17.68-15.89a5.81,5.81,0,0,1,1.22.44,6.21,6.21,0,0,0,1.23.43l.1,0,.17.08A49.76,49.76,0,0,1,91.47,141c7.87,9.29,12.11,14.53,15.66,15.36h.27c3.55-.83,7.79-6.07,15.67-15.36a49.69,49.69,0,0,1,17.12-13.06l.06,0,0,0,.85.06c9.35.65,16.94,7.27,21.61,21s11,23.63,9.7,39.36"/>
      <path class="cls-23" d="M57.14,136.91c-.7,1.07-1.36,2.21-2,3.43a65.59,65.59,0,0,0,5.91,9.54,56.05,56.05,0,0,1-3.91-13"/>
      <path class="cls-18" d="M59.08,134.21l-.5.63.5-.63"/>
      <path class="cls-23" d="M60.29,132.8c-.41.45-.82.91-1.21,1.41l-.5.63-.22.3A72.67,72.67,0,0,0,70.62,153.9c0-.12,0-.24,0-.37-3-4-8.56-12.37-10.37-20.73"/>
      <path class="cls-18" d="M63,130.32c-.35.27-.69.55-1,.85.34-.3.68-.58,1-.85"/>
      <path class="cls-23" d="M63.23,130.11l-.27.21c-.35.27-.69.55-1,.85s-.71.66-1.06,1A42.71,42.71,0,0,0,72.15,145.4c.06-.28.13-.55.19-.83a73.54,73.54,0,0,1-9.11-14.46"/>
      <path class="cls-18" d="M154.87,340.6h0m5.56-6.66a32.56,32.56,0,0,0-5.54,6.64,32.89,32.89,0,0,1,5.54-6.64h0"/>
      <path class="cls-22" d="M139.81,268.5s-7,41.54,13.61,74c.49-.6,1-1.25,1.44-1.93h0l0,0a32.56,32.56,0,0,1,5.54-6.64c-14.71-16.72-20.62-65.44-20.62-65.44"/>
      <path class="cls-18" d="M162.86,332.24l-.15.09a13.83,13.83,0,0,0-1.17.76c.38-.26.76-.52,1.17-.76l.15-.09m0,0h0m5.64-4.5a21.75,21.75,0,0,1-1.8,1.75,21.94,21.94,0,0,0,1.81-1.75h0"/>
      <path class="cls-22" d="M155.54,207.21c-11,71-6.34,101.81,6,125.89h0a13.83,13.83,0,0,1,1.17-.76l.15-.09h0a27,27,0,0,0,3.84-2.75,21.75,21.75,0,0,0,1.8-1.75C143.8,291,156.16,215,155.54,207.21"/>
      <path class="cls-18" d="M73,127.39a5.61,5.61,0,0,0,1.07.37h0l.09,0-.09,0h0a5.14,5.14,0,0,1-1.07-.36m-1.36-.5h0a14.9,14.9,0,0,0-6.47,2h0a15.08,15.08,0,0,1,6.47-2h0a5.39,5.39,0,0,1,1.07.38,5.39,5.39,0,0,0-1.07-.38"/>
      <path class="cls-24" d="M137.24,129.36A51.56,51.56,0,0,0,123.07,141c-7.73,9.11-11.95,14.32-15.46,15.31,3.5-1,7.73-6.2,15.46-15.31a51.56,51.56,0,0,1,14.17-11.59"/>
      <path class="cls-13" d="M86,135.4h0A51.72,51.72,0,0,1,91.47,141c3.08,3.64,5.6,6.65,7.75,9h0c-2.14-2.38-4.67-5.39-7.75-9A49.94,49.94,0,0,0,86,135.4"/>
      <path class="cls-24" d="M99.22,150c3.14,3.47,5.47,5.57,7.53,6.23-2.06-.66-4.39-2.76-7.53-6.23h0"/>
      <path class="cls-18" d="M54.29,142c-.12.26-.24.52-.37.78-.28.6-.55,1.22-.82,1.85h0c.27-.63.54-1.25.82-1.85l0-.05.34-.73m103.07-4.2a44.34,44.34,0,0,1,5.38,11.06c1.92,5.63,4.12,10.63,5.95,15.65-1.83-5-4-10-5.94-15.65a44.69,44.69,0,0,0-5.39-11.06m0-.07,0,0,0,0m-.06-.09v0"/>
      <path class="cls-20" d="M54,142.73l0,.05c-.28.6-.55,1.22-.82,1.85h0c.27-.63.55-1.25.83-1.85l0-.05"/>
      <path class="cls-18" d="M172.55,181.65a50.32,50.32,0,0,1-.11,6.57c-.12,1.46-.26,2.93-.43,4.41.17-1.48.31-2.95.43-4.41a50.29,50.29,0,0,0,.11-6.57m-130.39-3a50.75,50.75,0,0,0-.07,9.59c.43,5.34,1.22,10.81,2,16.43-.83-5.62-1.61-11.09-2-16.43a50.75,50.75,0,0,1,.07-9.59"/>
      <path class="cls-13" d="M74.26,224h0c.12,8.92.37,19.62.57,30.43h0c-.2-10.81-.45-21.51-.57-30.43"/>
      <path class="cls-14" d="M74.83,254.47h0c0,1.24,0,2.47.07,3.71,0-1.24-.05-2.47-.07-3.71"/>
      <path class="cls-24" d="M109,227.32h0c.48,8.36,1,17.77,1.38,27.15h0c-.41-9.38-.9-18.79-1.38-27.15M74.21,220h0c0,1.29,0,2.64.05,4h0c0-1.39,0-2.74-.05-4"/>
      <path class="cls-25" d="M110.34,254.47h0c.12,2.84.24,5.69.35,8.5-.11-2.81-.23-5.66-.35-8.5"/>
      <polyline class="cls-26" points="108.96 227.31 108.96 227.31 108.96 227.32 108.97 227.32 108.96 227.31"/>
      <path class="cls-27" d="M108.7,222.66c.08,1.51.17,3.06.26,4.65h0c-.09-1.59-.18-3.14-.26-4.65"/>
      <path class="cls-18" d="M168.5,289.19c.34,12.38.88,23.79,1.84,30.5-1-6.71-1.5-18.12-1.84-30.5M46.25,279.85c-.38,19-1.09,37.88-2.88,44a8.57,8.57,0,0,0,.76,1.46h0a8.32,8.32,0,0,1-.76-1.45c1.79-6.12,2.5-25,2.88-44m.82-43.91c0,1.2,0,2.41-.07,3.63-.09,2.3-.16,5.11-.22,8.31.06-3.2.13-6,.22-8.31,0-1.22.07-2.43.07-3.63"/>
      <path class="cls-10" d="M114.78,297.93q1,2.42,2.29,4.77h0c-.83-1.56-1.6-3.15-2.29-4.76m0-.08,0,.07,0-.07"/>
      <path class="cls-28" d="M117.07,302.69h0c1.19,2.22,2.51,4.4,3.92,6.53h0c-1.41-2.13-2.73-4.31-3.92-6.54"/>
      <path class="cls-18" d="M67.75,336.4q-.73,2.66-1.37,5,.63-2.36,1.37-5h0"/>
      <path class="cls-28" d="M70.67,325.32c-1,4.12-2,7.78-2.92,11.08h0c.92-3.3,1.94-7,2.92-11.08"/>
      <path class="cls-18" d="M53.16,333.21h0c.33.23.64.48.94.73h0c-.3-.26-.61-.5-.94-.74m117-7.48c-.16.24-.35.5-.55.77h0c.2-.27.39-.53.55-.77"/>
      <path class="cls-29" d="M84.88,192.57l-2.49.57c.12,1,.23,1.89.33,2.83a15.34,15.34,0,0,1,3.3-.76l-.15-.19-2.11.57h0a5.77,5.77,0,0,1,1.12-3m19.94-21.39c-.29.38-8.76,11.62-23.57,13.95,0,.3.09.6.14.91.21,1.3.41,2.6.59,3.91,19.18-8.09,22.71-18.37,22.84-18.77m13-4.39c-.26.55-8.74,18-35.81,23.35.13,1,.26,1.9.38,2.85,1-.3,2-.61,2.89-.92,1.35-1.58,3.92-3.15,8.8-3.45,20.54-9.38,23.64-21.39,23.74-21.83m-72.73-.72a55.66,55.66,0,0,0-2.92,12.56,50.75,50.75,0,0,0-.07,9.59c.44,5.34,1.22,10.81,2,16.43,1.44,9.85,3,20.2,2.93,31.29,0,1.2,0,2.41-.07,3.63-.09,2.3-.16,5.11-.22,8.31-.17,8.76-.29,20.38-.53,32-.38,19-1.09,37.88-2.88,44a8.32,8.32,0,0,0,.76,1.45c3.48-12.81,8.27-40.25,8.86-95.14a340.14,340.14,0,0,1,.17,103c.33.24.64.48.94.74a370.72,370.72,0,0,0,6.95-59.23,329,329,0,0,1,1.7,69.56,8.53,8.53,0,0,0,2.56,1.63c.29-1.41.66-2.91,1.07-4.5s.88-3.24,1.37-5h0c.92-3.3,1.94-7,2.92-11.08A160.28,160.28,0,0,0,75,290.75c.17-9.4.06-20.94-.14-32.57,0-1.24-.05-2.47-.07-3.71-.2-10.81-.45-21.51-.57-30.43,0-1.39,0-2.74-.05-4l-.66.31a13.15,13.15,0,0,1-4.23,1l-2,.89c-3.3,1.43-6,2.43-8,2.61l-.63,0a5,5,0,0,1-1.13-.12c-2.4-.61-.32-1.73.89-2.73a6,6,0,0,1-1.87.41c-1.62,0-1-1.73,1.74-4.62,2.1-2.19,4.84-4.49,7.22-6.56-.54-.11-1.06-.25-1.59-.41-.36-.11-.73-.23-1.09-.36h0c-6.17-2.22-11.14-7.11-13-11.69l0-.06v0l0,0v0l0-.05v0l0,0v0l0-.05v0l0-.06h0a36.16,36.16,0,0,1-1.4-5c-.43-2-.81-4.27-1.16-6.78s-.64-5.17-.93-8.06c-.19-1.82-.36-3.72-.54-5.69-.1-1.17-.2-2.36-.3-3.58s-.19-2.16-.29-3.17m86.38-2.83c-6.74,16.07-11.63,20.42-33.15,26.06a5.63,5.63,0,0,1,1.69,1.37c26.63-7.63,26.28-13.76,31.46-27.43m-71.11-9.06c.06.32.11.64.16,1a7.63,7.63,0,0,1,.05.8,4.47,4.47,0,0,1-1.69,3.6l2.55,7.35.72,2.1h0c1.4,4,2.77,8,4.07,11.8h0c2.08,6.07,4,11.49,5.38,15.36.07.21.15.41.22.61s0,.14.07.2l.61,1.62,0,.08,0,.08v0a24.78,24.78,0,0,1,1.13,4l.61-.64c-.9-8.44-1.75-10.13-3.63-28.39-.26-2.55-.43-4.92-.52-7.14a62.08,62.08,0,0,1-9.8-12.46m.7-7.55a81.55,81.55,0,0,0,9,15.43c0-1.42.07-2.77.16-4.08a101,101,0,0,1-9.19-11.35m-6.6-4.94c-.05.1-.1.21-.16.31l-.34.73,0,.05c-.28.6-.56,1.22-.83,1.85.41.85.77,1.73,1.14,2.58h.12a4.82,4.82,0,0,1,2.76.93c-.95-2-1.85-4.16-2.67-6.45M146.39,129h0c-3.32,2-8.18,5.77-13.81,12.93C122,155.38,111.16,169.5,107,172.39c13.52-6.86,27.5-28.55,28.3-29.79-.64,1.14-10.87,19.55-16.62,25.45,9.62-3.28,19.93-17.65,25.53-26.49a87.9,87.9,0,0,0-8,20.67c-3.63,15.17,0,27.19-35.79,28.85a10.3,10.3,0,0,1,1.57,3.71c3.26,0,5-.11,5-.11h0s.2,3.51.44,7.55c0,.58.07,1.18.11,1.78.32,4.38.74,10.93,1.2,18.65.08,1.51.17,3.06.26,4.65h0c.48,8.36,1,17.77,1.38,27.15.12,2.84.24,5.69.35,8.5.27,6.92.48,13.64.59,19.72a40.85,40.85,0,0,0,3.47,15.16l0,.07h0c.69,1.61,1.46,3.2,2.29,4.76,1.19,2.23,2.51,4.41,3.92,6.54-1.85-25.05-5.5-79.8-4.15-106.24.82,44.34,7.24,68.1,7.24,68.1s-2.53-42.16,5.46-78c1.6,42.72,3.2,71.28,3.2,71.28S135,190.88,146.25,158c-8.69,42.51-3.69,92,0,111.84-4.84-43.65,11.85-82.25,9.29-119.92,0,0,12.49,12.4,8,58.29-4.31,44.16-5.07,80.4,6,118.33.2-.27.39-.53.55-.77a9.29,9.29,0,0,0,1-1.88,31.64,31.64,0,0,1-.81-4.16c-1-6.71-1.5-18.12-1.84-30.5-.52-18.58-.59-39.33-1-49.62-.64-17.13,2.86-32.5,4.48-46.94.17-1.48.31-2.95.43-4.41a50.32,50.32,0,0,0,.11-6.57,57.31,57.31,0,0,0-3.86-17.14c-1.83-5-4-10-5.95-15.65a44.34,44.34,0,0,0-5.38-11.06l0,0,0,0,0-.06v0A22.4,22.4,0,0,0,146.39,129m-6.1-1.14,0,0-.07,0a31.55,31.55,0,0,0-2.95,1.46A51.56,51.56,0,0,0,123.07,141c-7.73,9.11-12,14.32-15.46,15.31l-.21.05h-.27l-.38-.1c-2.06-.66-4.39-2.76-7.53-6.23-2.15-2.38-4.67-5.39-7.75-9A51.72,51.72,0,0,0,86,135.4c-.93,3.73-1.94,7.33-2.84,10.67C89,151.21,95.26,156,100.72,159c-.69-.24-7.39-2.71-18.46-9.75-.13.5-.25,1-.38,1.47C94.61,162.94,98.25,165,99,165.35a116.16,116.16,0,0,1-18.3-9.29c-.29,1.41-.54,2.68-.75,3.87,7.76,11,11,13.59,11.23,13.78a52.68,52.68,0,0,1-12-7.48,42.11,42.11,0,0,0,.25,6.44c2.14,2.05,3.58,3.18,3.76,3.33a32.35,32.35,0,0,1-3.61-1.94c.33,2.67.83,5.81,1.48,9.86,4.83-2.49,13.25-8.75,25.06-24.53-5.93,12-11.24,18.14-11.54,18.49a229.33,229.33,0,0,0,30.79-31.59c8.65-10.71,15.55-15.51,20-17.65a20.56,20.56,0,0,0-4.24-.74l-.84-.07m-68.67-.94h0a15.08,15.08,0,0,0-6.47,2c2.36,2.45,5.46,5.59,9,8.95.75-2.75,1.56-5.66,2.39-8.88-1.34-.7-2.16-1-2.16-1l-.17-.09h0l-.09,0h0a5.61,5.61,0,0,1-1.07-.37l-.15-.07-.14,0a5.39,5.39,0,0,0-1.07-.38"/>
      <path class="cls-15" d="M107.25,355.23v7.86C111,367.3,122,365.41,122,365.41v-3.77S110.5,359.44,107.25,355.23Z"/>
      <path class="cls-30" d="M107.25,267.44c.14,3.65.2,7.31.3,11l.17,11c.11,7.32.1,14.64.15,21.95s-.05,14.63-.14,21.95l-.18,11c-.1,3.66-.16,7.32-.3,11-.14-3.66-.2-7.32-.3-11l-.17-11c-.1-7.32-.09-14.63-.14-21.95s0-14.63.14-21.95l.17-11C107.05,274.75,107.11,271.09,107.25,267.44Z"/>
      <path class="cls-31" d="M67.19,211.53c-8.1-1.05-15.08-7.14-17.33-12.76-2-5.11-3.15-14.32-4.19-26-.1-1.17-.2-2.36-.3-3.58-.71-8.29-1.62-14.1-2.21-17.3a5,5,0,0,0-3.36-3.84c-1.35-.43-3-.93-4.22-1.26-2.71-.73-9.45-1.15-10.59-1.81A15.34,15.34,0,0,1,22,141.9s-3.27-.1-4.52-.9-2.12-2.49-2.21-5.1.85-4.41,2.69-4a3.89,3.89,0,0,1,4.14-3c.8-2.12,1.4-2.36,4-2.2s9.83,1.88,10,3.32a3.57,3.57,0,0,1-.8,2.67,5.9,5.9,0,0,1,2.74.16c2.86.8,5.5,2.67,7.93,4.32a23.7,23.7,0,0,1,5,4,24.3,24.3,0,0,1,3.35,6.25c1.41,3.27,2.59,6.63,3.78,10q1.66,4.71,3.28,9.46c.25.7.49,1.4.73,2.1,4.16,12,8.15,23.83,10.35,29.59,2.32,6.1,2.8,14-5.3,12.92"/>
      <path class="cls-18" d="M36.32,132.61a4.74,4.74,0,0,0-1,.1h0a4.92,4.92,0,0,1,1-.1,6.75,6.75,0,0,1,1.76.26c2.86.8,5.5,2.67,7.93,4.32a23.7,23.7,0,0,1,5,4,15.81,15.81,0,0,1,2.1,3.4h0a15.81,15.81,0,0,0-2.1-3.4,24.06,24.06,0,0,0-5-4c-2.43-1.64-5.07-3.51-7.93-4.31a6.75,6.75,0,0,0-1.76-.26m-18.41-.74.09,0h0l-.09,0m3.95-2.94h-.2l.2,0m.28,0h0m3.11-2.24c.26,0,.55,0,.86,0,2.57.16,9.83,1.88,10,3.32a3.66,3.66,0,0,1-.59,2.41,3.66,3.66,0,0,0,.59-2.41c-.2-1.44-7.46-3.17-10-3.33l-.86,0"/>
      <polyline class="cls-32" points="53.1 144.63 53.1 144.63 53.1 144.63 53.1 144.63 53.1 144.63"/>
      <path class="cls-33" d="M53.1,144.63h0c.41.85.77,1.73,1.13,2.58h0c-.37-.85-.73-1.73-1.14-2.58"/>
      <path class="cls-18" d="M42.27,149.88h0c.07.09.13.19.2.29h0l-.2-.3"/>
      <path class="cls-33" d="M72.56,198.79a24.78,24.78,0,0,1,1.13,4h0a24.78,24.78,0,0,0-1.13-4m0-.1,0,.08,0-.08M58.87,159.57h0c.85,2.44,1.7,4.9,2.54,7.35.25.7.49,1.4.73,2.1h0l-.72-2.1-2.55-7.35"/>
      <path class="cls-34" d="M35.34,132.71c-.73,0-1.45.11-2.17.21a13.25,13.25,0,0,0-2.1.43l.14-.09c-.2.3,0,.91.19,1.38a8.29,8.29,0,0,0,.85,1.43,9.58,9.58,0,0,0,1.09,1.27,3.43,3.43,0,0,0,1.25.87l-.37.1A8.52,8.52,0,0,1,37,136.64a7,7,0,0,1,3.2-.39,8.29,8.29,0,0,1,5.31,3.18,9.14,9.14,0,0,0-5.37-2.54,6.77,6.77,0,0,0-2.88.47,8.3,8.3,0,0,0-2.49,1.51l-.19.16L34.4,139a4,4,0,0,1-1.59-1.09,9.55,9.55,0,0,1-1.14-1.4,8.19,8.19,0,0,1-.86-1.6,3.68,3.68,0,0,1-.24-.91,1.41,1.41,0,0,1,.23-1l.05-.07.08,0a10.48,10.48,0,0,1,2.22-.24A17.75,17.75,0,0,1,35.34,132.71Z"/>
      <path class="cls-34" d="M18,131.89c.13.93.26,1.84.42,2.73a10,10,0,0,0,.34,1.28,7.06,7.06,0,0,0,.59,1.16c.92,1.57,1.9,3.14,2.69,4.84a23.9,23.9,0,0,1-3.37-4.45,6.42,6.42,0,0,1-.62-1.32,6.68,6.68,0,0,1-.24-1.43A11.46,11.46,0,0,1,18,131.89Z"/>
      <path class="cls-34" d="M22.14,128.92c.16,1,.34,2.06.53,3.07a14.6,14.6,0,0,0,.8,2.9A18.2,18.2,0,0,0,25,137.52l1.71,2.6a15.6,15.6,0,0,1-2.21-2.24,11.8,11.8,0,0,1-1.72-2.68,10.53,10.53,0,0,1-.68-3.13A14.42,14.42,0,0,1,22.14,128.92Z"/>
      <path class="cls-11" d="M67.19,211.53c-8.1-1.05-15.08-7.14-17.33-12.76a56,56,0,0,1-2.72-12.2c-.55-4-1-8.65-1.47-13.75,3.83,1.72,10.55,3.14,16.47-3.8,1.4,4,2.77,8,4.07,11.81,2.56,7.46,4.82,13.95,6.28,17.78,2.32,6.1,2.8,14-5.3,12.92"/>
      <path class="cls-12" d="M66.21,180.83c-5.4,5.92-13.62,6.3-19.07,5.74-.55-4-1-8.65-1.47-13.75,3.83,1.72,10.55,3.14,16.47-3.8,1.4,4,2.77,8,4.07,11.81"/>
      <path class="cls-13" d="M47.78,190.62c.08.52.18,1,.27,1.5-.09-.49-.19-1-.27-1.5"/>
      <path class="cls-35" d="M66.21,180.82h0c2.19,6.39,4.16,12.06,5.6,16-.07-.2-.15-.4-.22-.61-1.41-3.87-3.3-9.29-5.38-15.36h0"/>
      <path class="cls-35" d="M71.88,197l.61,1.62a24.81,24.81,0,0,1,1.2,4.2h0a24.78,24.78,0,0,0-1.13-4v0l0-.08,0-.08L71.88,197"/>
      <path class="cls-35" d="M62.83,210.46h0c.36.13.73.25,1.09.36-.36-.11-.73-.23-1.08-.36"/>
      <path class="cls-13" d="M66.21,180.83c-.17.18-.34.36-.52.53h0l0,0h0l0,0h0l0,0v0l0,0v0l0,0,0,0,0,0,0,0h0l0,0h0a17.24,17.24,0,0,1-6.24,3.71q.91,2.38,1.8,4.87c3.79,10.61,4.29,17,2,20.14.35.13.72.25,1.08.36.53.16,1.06.3,1.59.41a48.85,48.85,0,0,0,4.06-3.79c1.08-1.22,2.55-2.93,4.13-4.63a24.81,24.81,0,0,0-1.2-4.2L71.88,197h0l-.06-.15v-.05h0c-1.44-3.91-3.41-9.58-5.6-16"/>
      <path class="cls-14" d="M65.35,181.69l0,0,0,0m.05,0,0,0,0,0m0,0,0,0,0,0m0-.05v0m.05-.05v0m0,0h0m0-.05h0m0,0h0M54.38,174h0c1.54,3.53,3.12,7.38,4.69,11.48h0a17.24,17.24,0,0,0,6.24-3.71,17.39,17.39,0,0,1-6.24,3.71c-1.57-4.1-3.15-7.95-4.69-11.48"/>
      <path class="cls-36" d="M62.14,169h0c1.4,4,2.77,8,4.07,11.81h0c-1.3-3.75-2.67-7.77-4.07-11.8h0"/>
      <path class="cls-37" d="M61.78,169.43a13.81,13.81,0,0,1-7.4,4.54h0a13.72,13.72,0,0,0,7.4-4.54m0-.05h0"/>
      <path class="cls-24" d="M65.31,181.73h0m.06,0h0m0-.05,0,0,0,0m.06,0,0,0,0,0m0-.05,0,0,0,0m0-.06,0,0,0,0m.06-.05,0,0,0,0m0,0,0,0,0,0m.52-.54c-.17.18-.34.36-.52.53.18-.17.35-.35.52-.53h0"/>
      <path class="cls-25" d="M62.14,169l-.31.36h0l0,0a13.72,13.72,0,0,1-7.4,4.54c1.54,3.53,3.12,7.38,4.69,11.48a17.39,17.39,0,0,0,6.24-3.71h0l0,0h0l0,0,0,0,0,0,0,0v0l0,0v0l0,0h0l0,0h0l0,0h0c.18-.17.35-.35.52-.53h0c-1.3-3.76-2.67-7.77-4.07-11.81"/>
      <path class="cls-38" d="M107,194.68s.68,12.18,1.08,17.24c-11.39-.72-21.58-1.11-22.78-.83s-5.5,4.41-7.79,6.52a12.22,12.22,0,0,1-8.14,3.71c-5.38,2.4-9.39,4-11.8,3.41s-.32-1.73.89-2.73c-3.66,1.28-3.66-.52-.13-4.21s8.91-7.71,11.28-10.35,6.52-7.65,9.83-9.75,5.47-2.83,14-2.83,13.54-.18,13.54-.18"/>
      <path class="cls-33" d="M107,194.68h0s.2,3.51.44,7.55c-.24-4-.44-7.55-.44-7.55"/>
      <path class="cls-27" d="M100.4,211.47h0c2.42.13,5,.28,7.63.45h0c-2.64-.17-5.21-.32-7.63-.45"/>
      <path class="cls-24" d="M75.83,219a12,12,0,0,1-1.62,1h0a12,12,0,0,0,1.62-1"/>
      <polyline class="cls-39" points="74.21 220.01 74.21 220.01 74.21 220.01 74.21 220.01 74.21 220.01"/>
      <path class="cls-33" d="M67.3,222.21c-3.3,1.43-6,2.43-8,2.61,2-.18,4.72-1.18,8-2.61m6.91-2.2-.66.31.66-.31h0"/>
      <path class="cls-40" d="M58.41,222c1.69-1.23,3.43-2.34,5.14-3.48S67,216.24,68.62,215A17.58,17.58,0,0,1,64,219.18,25.43,25.43,0,0,1,58.41,222Z"/>
      <path class="cls-41" d="M107,194.68c2.8-.63,5.59-1.33,8.37-2.06s5.56-1.45,8.32-2.22l1-.29c.34-.11.66-.25,1-.36l1-.37.92-.51a9.91,9.91,0,0,0,1.74-1.19,12.41,12.41,0,0,0,1.53-1.46,23.08,23.08,0,0,0,4.22-7.33c1.06-2.65,1.81-5.42,2.72-8.16.21-.69.48-1.37.76-2l.51-1c.16-.31.34-.61.47-.93a24.09,24.09,0,0,0,1.14-4.1,39.12,39.12,0,0,1,2.35-8.31,17.55,17.55,0,0,1,5.33-6.7,17.43,17.43,0,0,0-5,6.82,39.06,39.06,0,0,0-2.17,8.29A21.8,21.8,0,0,1,140,167c-.14.34-.33.66-.5,1l-.47.93c-.26.65-.52,1.31-.73,2-.88,2.72-1.62,5.52-2.68,8.21a23.46,23.46,0,0,1-4.38,7.49,12.63,12.63,0,0,1-1.6,1.5,10.5,10.5,0,0,1-1.81,1.23l-1,.53-1,.37c-.35.12-.69.25-1,.35l-1,.27C118.2,192.3,112.6,193.61,107,194.68Z"/>
      <path class="cls-42" d="M66.21,180.82c.78,1.76,1.49,3.55,2.19,5.33s1.36,3.6,2,5.39,1.28,3.62,1.88,5.45,1.21,3.65,1.65,5.53l-2.09-5.37-2-5.4c-.63-1.81-1.29-3.61-1.9-5.43S66.75,182.67,66.21,180.82Z"/>
      <path class="cls-43" d="M78,87.69s3.09,22.8-1.2,39.88-8.31,25.32-6.17,46.21,3,20.1,4,32.55,7.24,22.11,6.44,28.13-1.61,17.08-.54,19.49,3,2,3,2a153.15,153.15,0,0,0,1.34-24.51c-.54-11.45-.81-28.73-3.49-45.41s-3.21-18.89-.26-32.15,11.25-35.16,7.23-50.83S78,87.69,78,87.69"/>
      <path class="cls-44" d="M85.23,112c.86,2.75.52,5.22-.78,5.51s-3-1.72-3.91-4.47-.52-5.22.78-5.51,3,1.71,3.91,4.47"/>
      <path class="cls-44" d="M87,119.72c-1.13,1.07-2.45,1.63-2.94,1.25s0-1.53,1.13-2.6,2.44-1.62,2.94-1.25S88.12,118.66,87,119.72Z"/>
      <path class="cls-44" d="M83.1,136.51c-1.13,1.06-2.45,1.62-2.95,1.25s0-1.54,1.14-2.6,2.44-1.62,2.94-1.25S84.22,135.45,83.1,136.51Z"/>
      <path class="cls-44" d="M79.9,146.28c-1.78,1.68-3.86,2.56-4.65,2s0-2.43,1.8-4.11,3.85-2.56,4.64-2S81.68,144.6,79.9,146.28Z"/>
      <path class="cls-44" d="M76.67,172c-1.78,1.68-3.86,2.57-4.65,2s0-2.43,1.8-4.11,3.85-2.56,4.64-2S78.45,170.28,76.67,172Z"/>
      <path class="cls-44" d="M79.44,195.75c-1.06,1-2.3,1.52-2.77,1.17s0-1.44,1.07-2.44S80,193,80.5,193.3,80.5,194.75,79.44,195.75Z"/>
      <path class="cls-44" d="M82.78,220.65c-1.06,1-2.3,1.52-2.76,1.17s0-1.44,1.06-2.44,2.3-1.53,2.77-1.18S83.84,219.65,82.78,220.65Z"/>
      <path class="cls-44" d="M82.55,215.42c-1.06,1-2.3,1.52-2.77,1.17s0-1.44,1.07-2.44,2.3-1.53,2.77-1.18S83.61,214.42,82.55,215.42Z"/>
      <path class="cls-44" d="M79.36,210.36c.75,1.18.9,2.34.35,2.59s-1.61-.51-2.36-1.7-.9-2.34-.34-2.58S78.62,209.18,79.36,210.36Z"/>
      <path class="cls-44" d="M83.69,124.87c.72,2.27.43,4.31-.64,4.55s-2.51-1.42-3.22-3.69-.43-4.32.63-4.55S83,122.59,83.69,124.87Z"/>
      <path class="cls-44" d="M76.25,155.25c.72,2.27.43,4.31-.64,4.55s-2.51-1.42-3.22-3.7-.43-4.31.64-4.55S75.54,153,76.25,155.25Z"/>
      <path class="cls-44" d="M76.11,178.85c.71,2.28.43,4.31-.64,4.55S73,182,72.24,179.71s-.43-4.31.64-4.55S75.39,176.58,76.11,178.85Z"/>
      <path class="cls-44" d="M77.39,188.36c.61,1.95.36,3.7-.55,3.9s-2.16-1.21-2.77-3.16-.37-3.7.55-3.9S76.77,186.41,77.39,188.36Z"/>
      <path class="cls-44" d="M81,131c.52,1.63.31,3.09-.46,3.26s-1.8-1-2.31-2.65-.31-3.09.46-3.26S80.47,129.32,81,131Z"/>
      <polygon class="cls-45" points="77.6 257.6 75.69 276.82 74.58 287.99 76.13 287.99 79.25 256.3 82.19 256.16 81.84 287.84 83.23 287.84 83.54 255.96 85.67 255.96 87.73 288.28 88.76 288.13 86.86 254.85 91.19 287.55 92.92 287.41 87.56 253.84 82.36 248.89 77.6 257.6"/>
      <path class="cls-46" d="M76.36,276.55a41.24,41.24,0,0,0-6,24.33l.92-.68.46,3.19,1-4.16.58,3.58.46-1.74,2.07,3-.69-5.33,1,2.23.35-2.61L78.21,302v-4.65l1.38,3.49.12-3.4s1.85,5.14,1.73,4.75S83.05,290.7,76.36,276.55Z"/>
      <path class="cls-11" d="M83.05,276.55a41.24,41.24,0,0,0-6,24.33l.92-.68.46,3.19,1-4.16.58,3.58.46-1.74,2.07,3-.69-5.33,1,2.23.35-2.61L84.9,302v-4.65l1.38,3.49.12-3.4s1.84,5.14,1.73,4.75S89.74,290.7,83.05,276.55Z"/>
      <path class="cls-47" d="M89.51,276.55a41.24,41.24,0,0,0-6,24.33l.92-.68.46,3.19,1-4.16.57,3.58.47-1.74,2.07,3-.69-5.33,1,2.23.34-2.61L91.36,302v-4.65l1.38,3.49.12-3.4s1.84,5.14,1.73,4.75S96.2,290.7,89.51,276.55Z"/>
      <path class="cls-41" d="M91.13,276.87a40.42,40.42,0,0,0-3.33,24.68l.84-.75.81,3.15.58-4.23,1,3.53.27-1.78,2.4,2.84-1.27-5.26,1.28,2.14.06-2.63,2,3.54-.5-4.63L97,300.84l-.26-3.39s2.4,5,2.24,4.6S99.33,290.44,91.13,276.87Z"/>
      <path class="cls-48" d="M77.6,257.6h0a2,2,0,0,1-2-2.08l2.25-17.83A2.19,2.19,0,0,1,80.32,236a2,2,0,0,1,2,2.08l-2.25,17.83A2.19,2.19,0,0,1,77.6,257.6Z"/>
      <path class="cls-48" d="M81.29,242l-3.36-.3A1.65,1.65,0,0,1,76.28,240a1.81,1.81,0,0,1,2-1.39l3.35.3a1.67,1.67,0,0,1,1.66,1.72A1.81,1.81,0,0,1,81.29,242Z"/>
      <path class="cls-48" d="M80.81,245.85l-3.36-.3a1.65,1.65,0,0,1-1.65-1.72,1.8,1.8,0,0,1,2-1.39l3.36.3a1.65,1.65,0,0,1,1.65,1.72A1.8,1.8,0,0,1,80.81,245.85Z"/>
      <path class="cls-48" d="M79.57,255.6l-3.35-.29a1.66,1.66,0,0,1-1.65-1.72,1.8,1.8,0,0,1,2-1.39l3.36.3a1.65,1.65,0,0,1,1.65,1.72A1.8,1.8,0,0,1,79.57,255.6Z"/>
      <rect class="cls-45" x="80.52" y="235.96" width="4.5" height="21.7" rx="2.06"/>
      <path class="cls-45" d="M84.78,241.84h-4a1.56,1.56,0,0,1,0-3.12h4a1.56,1.56,0,0,1,0,3.12Z"/>
      <path class="cls-45" d="M84.78,245.69h-4a1.56,1.56,0,0,1,0-3.12h4a1.56,1.56,0,0,1,0,3.12Z"/>
      <path class="cls-45" d="M84.78,255.5h-4a1.56,1.56,0,0,1,0-3.12h4a1.56,1.56,0,1,1,0,3.12Z"/>
      <path class="cls-48" d="M88.25,257.52h0A2.23,2.23,0,0,1,85.67,256l-3.49-17.68A1.94,1.94,0,0,1,84,236.11a2.22,2.22,0,0,1,2.58,1.55l3.49,17.68A2,2,0,0,1,88.25,257.52Z"/>
      <path class="cls-48" d="M86.87,241.68l-3.33.46a1.84,1.84,0,0,1-2.14-1.29,1.61,1.61,0,0,1,1.53-1.79l3.33-.47a1.86,1.86,0,0,1,2.14,1.29A1.63,1.63,0,0,1,86.87,241.68Z"/>
      <path class="cls-48" d="M87.62,245.48l-3.33.46a1.84,1.84,0,0,1-2.14-1.29,1.61,1.61,0,0,1,1.53-1.79l3.33-.47a1.86,1.86,0,0,1,2.14,1.29A1.63,1.63,0,0,1,87.62,245.48Z"/>
      <path class="cls-48" d="M89.53,255.15l-3.33.47a1.85,1.85,0,0,1-2.14-1.29,1.61,1.61,0,0,1,1.53-1.79l3.33-.47a1.86,1.86,0,0,1,2.14,1.29A1.61,1.61,0,0,1,89.53,255.15Z"/>
      <path class="cls-45" d="M87.72,235.77a1.7,1.7,0,0,1-.64,1.31,2.41,2.41,0,0,1-1.56.55H78.34a2.06,2.06,0,0,1-2.21-1.86,1.67,1.67,0,0,1,.26-.87,2.32,2.32,0,0,1,.39-.44,2.45,2.45,0,0,1,1.56-.54h7.18a2.31,2.31,0,0,1,2,1A1.66,1.66,0,0,1,87.72,235.77Z"/>
      <path class="cls-48" d="M87.47,234.9a2.32,2.32,0,0,1-.39.44,2.45,2.45,0,0,1-1.56.54H78.34a2.29,2.29,0,0,1-2-1,2.32,2.32,0,0,1,.39-.44,2.45,2.45,0,0,1,1.56-.54h7.18A2.31,2.31,0,0,1,87.47,234.9Z"/>
      <path class="cls-3" d="M81.11,98.78a7.35,7.35,0,0,1-5.71,1.54C69,99.17,64.77,88.69,66.7,85.46c.1-.16.21-.31.31-.46,2.61-3.47,7.91-1.42,7.91-1.42S90.43,92,81.11,98.78"/>
      <path class="cls-6" d="M69.4,89.44a1.83,1.83,0,0,0-.68.72c-1.2,2.13,3.07,5.84,6.26,7.2a2.46,2.46,0,0,1,.6-.07,2.7,2.7,0,0,1,2.71,2.7c0,.07,0,.13,0,.19a3.68,3.68,0,0,0,.47-.15,31.07,31.07,0,0,1-1.89-4.43l-.34-1.69c-.83-.71-1.6-1.41-2.41-2a13.05,13.05,0,0,0-2.32-1.61,6.81,6.81,0,0,0-2.39-.81m.58-6.3A4.91,4.91,0,0,0,67,85c1,.08,3.22.63,5.62,3.7a6.71,6.71,0,0,1,2.06.91A45.26,45.26,0,0,1,70,83.14"/>
      <path class="cls-49" d="M78.9,95.8c-1.84-1.31-3.27-2.73-4.79-3.94a13.05,13.05,0,0,0-2.32-1.61A7.25,7.25,0,0,0,69,89.38a4.05,4.05,0,0,1,3.38-.74,7,7,0,0,1,3.14,1.54,10.38,10.38,0,0,1,2.21,2.52,8.63,8.63,0,0,1,1.22,3.1"/>
      <path class="cls-50" d="M79.78,114.75c-2.3,1.08-5.06.85-8.08-.11,0-.27,0-.54,0-.81.08-7.67,3.39-10.89,3.9-11.34l.07-.06C80.75,106.21,79.78,114.75,79.78,114.75Z"/>
      <path class="cls-51" d="M78.37,113.54a10,10,0,0,1-6.67.29c0-.69,0-1.34.1-2,.42-4.84,2.17-7.55,3.17-8.72a5.27,5.27,0,0,1,.63-.66C79.15,106.62,78.37,113.54,78.37,113.54Z"/>
      <path class="cls-52" d="M76,111.18a8.44,8.44,0,0,1-4.18.69c.42-4.84,2.17-7.55,3.17-8.72A19.26,19.26,0,0,1,76,111.18Z"/>
      <path class="cls-53" d="M73.26,115.56a1.14,1.14,0,0,1-2.28.08v0a1.14,1.14,0,0,1,1.11-1.16h.23A1.14,1.14,0,0,1,73.26,115.56Z"/>
      <path class="cls-54" d="M72.88,115.32a1,1,0,0,1-.94,1,1,1,0,0,1-1-.7,1.14,1.14,0,0,1,1.11-1.16h.23A1,1,0,0,1,72.88,115.32Z"/>
      <path class="cls-53" d="M75.22,115.85a1.14,1.14,0,0,1-2.28.07h0a1.14,1.14,0,0,1,1.1-1.17l.23,0h0A1.14,1.14,0,0,1,75.22,115.85Z"/>
      <path class="cls-54" d="M74.84,115.6a1,1,0,0,1-1.9.31,1.14,1.14,0,0,1,1.1-1.17l.23,0h0A1,1,0,0,1,74.84,115.6Z"/>
      <path class="cls-53" d="M77.32,116.05a1.14,1.14,0,0,1-2.28.07h0a1.14,1.14,0,0,1,1.1-1.17l.23,0h0A1.14,1.14,0,0,1,77.32,116.05Z"/>
      <path class="cls-54" d="M76.94,115.8a1,1,0,0,1-1.9.31,1.14,1.14,0,0,1,1.1-1.17l.23,0h0A1,1,0,0,1,76.94,115.8Z"/>
      <path class="cls-53" d="M79.27,115.92A1.15,1.15,0,0,1,77,116h0a1.16,1.16,0,0,1,1.11-1.17l.23,0h0A1.15,1.15,0,0,1,79.27,115.92Z"/>
      <path class="cls-54" d="M78.89,115.67a1,1,0,0,1-.94,1,1,1,0,0,1-1-.7,1.16,1.16,0,0,1,1.11-1.17l.23,0h0A1,1,0,0,1,78.89,115.67Z"/>
      <path class="cls-53" d="M81.26,115.31a1.14,1.14,0,0,1-2.28.08h0a1.15,1.15,0,0,1,1.11-1.17h.24A1.16,1.16,0,0,1,81.26,115.31Z"/>
      <path class="cls-54" d="M80.88,115.07a1,1,0,0,1-.94,1,1,1,0,0,1-1-.69,1.15,1.15,0,0,1,1.11-1.17h.24A1,1,0,0,1,80.88,115.07Z"/>
      <path class="cls-50" d="M78.29,100a2.71,2.71,0,1,1-2.71-2.7,2.7,2.7,0,0,1,2.71,2.7"/>
      <path class="cls-51" d="M78,100a2.45,2.45,0,1,1-2.45-2.45A2.45,2.45,0,0,1,78,100"/>
      <path class="cls-52" d="M76.83,99.57a1.54,1.54,0,1,1-1.53-1.4A1.46,1.46,0,0,1,76.83,99.57Z"/>
      <path class="cls-3" d="M130.15,98.78a7.35,7.35,0,0,0,5.71,1.54c6.41-1.15,10.63-11.63,8.7-14.86-.1-.16-.21-.31-.31-.46-2.61-3.47-7.91-1.42-7.91-1.42s-15.51,8.46-6.19,15.2"/>
      <path class="cls-6" d="M133,99.8l-.16.33.16.05c0-.06,0-.12,0-.19s0-.13,0-.19m8.88-10.36a6.81,6.81,0,0,0-2.39.81,13.05,13.05,0,0,0-2.32,1.61c-.64.5-1.26,1-1.9,1.61l-.05,1c-.44,1.26-.91,2.46-1.41,3.61a2.66,2.66,0,0,1,1.89-.77,2.46,2.46,0,0,1,.6.07c3.19-1.36,7.46-5.07,6.26-7.2a1.83,1.83,0,0,0-.68-.72M139.74,83c-.34,0-.68,0-1,0a59.49,59.49,0,0,1-3.23,5.23l-.12,2.25.39-.33a7.22,7.22,0,0,1,2.84-1.48c2.4-3.07,4.66-3.62,5.62-3.7a5.39,5.39,0,0,0-4.51-2"/>
      <path class="cls-49" d="M132.36,95.8a8.63,8.63,0,0,1,1.22-3.1,10.38,10.38,0,0,1,2.21-2.52,7,7,0,0,1,3.14-1.54,4,4,0,0,1,3.38.74,7.25,7.25,0,0,0-2.84.87,13.05,13.05,0,0,0-2.32,1.61c-1.52,1.21-3,2.63-4.79,3.94"/>
      <path class="cls-50" d="M131.48,114.75c2.3,1.08,5.06.85,8.08-.11,0-.27,0-.54,0-.81-.08-7.67-3.39-10.89-3.9-11.34l-.07-.06C130.51,106.21,131.48,114.75,131.48,114.75Z"/>
      <path class="cls-51" d="M132.89,113.54a10,10,0,0,0,6.67.29c0-.69,0-1.34-.1-2-.42-4.84-2.17-7.55-3.17-8.72a5.27,5.27,0,0,0-.63-.66C132.11,106.62,132.89,113.54,132.89,113.54Z"/>
      <path class="cls-52" d="M135.28,111.18a8.44,8.44,0,0,0,4.18.69c-.42-4.84-2.17-7.55-3.17-8.72A19.26,19.26,0,0,0,135.28,111.18Z"/>
      <path class="cls-53" d="M138,115.56a1.14,1.14,0,0,0,2.28.08v0a1.14,1.14,0,0,0-1.11-1.16h-.23A1.14,1.14,0,0,0,138,115.56Z"/>
      <path class="cls-54" d="M138.38,115.32a1,1,0,0,0,.94,1,1,1,0,0,0,1-.7,1.14,1.14,0,0,0-1.11-1.16h-.23A1,1,0,0,0,138.38,115.32Z"/>
      <path class="cls-53" d="M136,115.85a1.14,1.14,0,0,0,2.28.07h0a1.14,1.14,0,0,0-1.1-1.17l-.23,0h0A1.14,1.14,0,0,0,136,115.85Z"/>
      <path class="cls-54" d="M136.42,115.6a1,1,0,0,0,1.9.31,1.14,1.14,0,0,0-1.1-1.17l-.23,0h0A1,1,0,0,0,136.42,115.6Z"/>
      <path class="cls-53" d="M133.94,116.05a1.14,1.14,0,0,0,2.28.07h0a1.14,1.14,0,0,0-1.1-1.17l-.23,0h0A1.14,1.14,0,0,0,133.94,116.05Z"/>
      <path class="cls-54" d="M134.32,115.8a1,1,0,0,0,1.9.31,1.14,1.14,0,0,0-1.1-1.17l-.23,0h0A1,1,0,0,0,134.32,115.8Z"/>
      <path class="cls-53" d="M132,115.92a1.15,1.15,0,0,0,2.29.07h0a1.15,1.15,0,0,0-1.11-1.17l-.23,0h0A1.15,1.15,0,0,0,132,115.92Z"/>
      <path class="cls-54" d="M132.37,115.67a1,1,0,0,0,.95,1,1,1,0,0,0,1-.7,1.15,1.15,0,0,0-1.11-1.17l-.23,0h0A1,1,0,0,0,132.37,115.67Z"/>
      <path class="cls-53" d="M130,115.31a1.15,1.15,0,0,0,2.29.08h0a1.15,1.15,0,0,0-1.11-1.17h-.24A1.16,1.16,0,0,0,130,115.31Z"/>
      <path class="cls-54" d="M130.38,115.07a1,1,0,0,0,1.91.31,1.15,1.15,0,0,0-1.11-1.17h-.24A1,1,0,0,0,130.38,115.07Z"/>
      <path class="cls-50" d="M133,100a2.71,2.71,0,1,0,2.71-2.7A2.7,2.7,0,0,0,133,100"/>
      <path class="cls-51" d="M133.23,100a2.45,2.45,0,1,0,2.45-2.45,2.45,2.45,0,0,0-2.45,2.45"/>
      <path class="cls-52" d="M134.43,99.57a1.54,1.54,0,1,0,1.53-1.4A1.47,1.47,0,0,0,134.43,99.57Z"/>
      <path class="cls-55" d="M76.86,91.74c-1-.46-13.07-12.73-12.83-29S67.1,33.48,87.34,25.12s31-5.8,40.95,3.48,16.12,22.26,16.12,35.49S134,90.35,134,90.35L76.86,91.74"/>
      <g class="cls-56">
        <rect class="cls-6" x="84.27" y="72.5" width="10.42" height="16.64"/>
      </g>
      <path class="cls-57" d="M92.87,82.65c.18,3-1.14,5.61-2.94,5.76s-3.41-2.19-3.59-5.22,1.14-5.62,2.94-5.77S92.69,79.61,92.87,82.65Z"/>
      <path class="cls-54" d="M89.07,81c.06,1-.35,1.77-.92,1.81s-1.07-.68-1.13-1.64.36-1.76.93-1.81S89,80,89.07,81Z"/>
      <path class="cls-54" d="M89.9,83.17c0,.48-.18.89-.47.91s-.54-.34-.57-.83.18-.89.47-.91S89.87,82.69,89.9,83.17Z"/>
      <path class="cls-6" d="M120.52,72.6c-2.51,0-4.79,3.22-5.2,7.47-.43,4.47,1.38,8.38,4,8.73a2.56,2.56,0,0,0,.39,0c2.51,0,4.79-3.22,5.2-7.47.43-4.47-1.38-8.38-4-8.74l-.39,0"/>
      <path class="cls-57" d="M123.11,83.19c-.28,3-1.93,5.16-3.69,4.92s-3-2.82-2.67-5.77,1.94-5.16,3.7-4.93S123.4,80.23,123.11,83.19Z"/>
      <path class="cls-54" d="M119.71,80.8c-.09.93-.61,1.62-1.16,1.55s-.92-.89-.83-1.82.6-1.62,1.16-1.54S119.8,79.87,119.71,80.8Z"/>
      <path class="cls-54" d="M120.18,83.06c-.05.47-.31.82-.59.79s-.47-.45-.42-.92.3-.82.58-.78S120.22,82.6,120.18,83.06Z"/>
      <path class="cls-49" d="M89.51,98.11a11.59,11.59,0,0,1-.89,1.42c-.14.16-.25.32-.41.51s-.32.42-.6.74a1.35,1.35,0,0,1-.44-1,1.69,1.69,0,0,1,.36-1.07,2,2,0,0,1,.88-.63,1.45,1.45,0,0,1,1.1,0"/>
      <path class="cls-49" d="M122.66,98.11a1.45,1.45,0,0,1,1.1,0,2,2,0,0,1,.89.63,1.74,1.74,0,0,1,.35,1.07,1.31,1.31,0,0,1-.44,1c-.28-.32-.43-.55-.6-.74s-.27-.35-.41-.51A11.59,11.59,0,0,1,122.66,98.11Z"/>
      <path class="cls-54" d="M116.26,101.56a15.93,15.93,0,0,1-11.4,4.57,13.65,13.65,0,0,1-11-5A45.94,45.94,0,0,0,116.26,101.56Z"/>
      <path class="cls-58" d="M98.39,101.43s5.24-5.82,14.61,0C113,101.43,102.46,103,98.39,101.43Z"/>
      <path class="cls-58" d="M111.05,111.06c0,1-2.56,1.88-5.72,1.88s-5.72-.84-5.72-1.88,2.56-1.87,5.72-1.87,5.72.84,5.72,1.87"/>
      <path class="cls-59" d="M99.79,92a9,9,0,0,1,11,.47S105.13,97.1,99.79,92Z"/>
      <polygon class="cls-49" points="109.55 88.13 111.21 92.33 111.34 92.65 110.96 92.84 105.61 95.54 105.26 95.72 104.91 95.54 99.32 92.79 98.94 92.61 99.09 92.29 100.84 88.48 99.83 92.56 99.6 92.06 105.6 93.71 104.9 93.72 110.66 92.06 110.41 92.57 109.55 88.13"/>
      <path class="cls-55" d="M115.29,62.84c-1.36,2.49-.65,3.91-.65,3.91A32.55,32.55,0,0,1,120,68.21l.43.16c.1,0,.2.08.3.12a23.53,23.53,0,0,1,3.62,1.86c.22.13.42.27.61.4l.57.41a10.62,10.62,0,0,1,1.84,1.69,12.56,12.56,0,0,0-.65-2.73,7.73,7.73,0,0,0-.32-.77c-.11-.24-.23-.48-.35-.7a9.85,9.85,0,0,0-2.52-2.94,4.35,4.35,0,0,0-.43-.32c-.14-.11-.29-.21-.43-.3A15.4,15.4,0,0,0,115.29,62.84Z"/>
      <path class="cls-44" d="M126.35,69.35a8.7,8.7,0,0,0-1.44,1.4l.57.41a7.83,7.83,0,0,1,1.19-1A7.73,7.73,0,0,0,126.35,69.35Z"/>
      <path class="cls-44" d="M123.48,65.71a8.17,8.17,0,0,0-2.8,2.78,23.53,23.53,0,0,1,3.62,1.86,10.08,10.08,0,0,1,1.7-1.7A9.85,9.85,0,0,0,123.48,65.71Z"/>
      <path class="cls-44" d="M120,68.21l.43.16a10.44,10.44,0,0,1,2.67-3c-.14-.11-.29-.21-.43-.3A10.51,10.51,0,0,0,120,68.21Z"/>
      <path class="cls-55" d="M93.59,63.05c1.26,2.61.45,4,.45,4a33.56,33.56,0,0,0-5.49,1.2l-.45.14-.31.11a23.17,23.17,0,0,0-3.8,1.7c-.23.12-.44.25-.64.37l-.6.39a10.22,10.22,0,0,0-2,1.63,12.59,12.59,0,0,1,.8-2.76c.12-.26.24-.52.37-.77s.26-.47.4-.68a10,10,0,0,1,2.73-2.87l.45-.31.46-.28A15.69,15.69,0,0,1,93.59,63.05Z"/>
      <path class="cls-44" d="M82,69.08a9.4,9.4,0,0,1,1.4,1.51l-.6.39a8.18,8.18,0,0,0-1.17-1.13C81.7,69.59,81.82,69.33,82,69.08Z"/>
      <path class="cls-44" d="M85.08,65.53a8.41,8.41,0,0,1,2.71,3,23.17,23.17,0,0,0-3.8,1.7,9.63,9.63,0,0,0-1.64-1.82A10,10,0,0,1,85.08,65.53Z"/>
      <path class="cls-44" d="M88.55,68.27l-.45.14a10.76,10.76,0,0,0-2.57-3.19l.46-.28A10.85,10.85,0,0,1,88.55,68.27Z"/>
      <path class="cls-44" d="M115.15,47.37s-6.84-7.6-21.48-2.66S69.73,74.93,69.73,74.93,80.56,16,109.83,38.44c0,0-5.51-13.68-22.43-6.27S69.54,66,69.54,66,67.11,27.69,92.72,27C115.15,26.47,115.15,47.37,115.15,47.37Z"/>
      <path class="cls-44" d="M122.75,52.88S137.44,57.06,140,76.45c0,0,4.68-16.22-8-25,0,0,6.58,2.53,9.12,7.47,0,0,.25-27.49-27.11-25.2,0,0,15.71,4.3,20.9,14.69a20.41,20.41,0,0,0-14.06-6.33s6.2,2.66,9.37,6.84l-6-2s7.22,5.19,9.25,9.63A16.62,16.62,0,0,0,122.75,52.88Z"/>
      <path class="cls-44" d="M112.11,30.46s10.07-4,18,2.85C130.16,33.31,120.85,17.73,112.11,30.46Z"/>
      <path class="cls-12" d="M42.77,161a3.86,3.86,0,0,1-1.7-1.65h0c-1.28-2.09-1.83-5.55-.09-7.83a5.19,5.19,0,0,1,1.54-1.34l.32.71s7.64,2.06,12-2.09l-.61-1.56s5.19-.52,6.32,8S45.37,162,42.77,161"/>
      <path class="cls-14" d="M54.36,147.21h-.17l.61,1.56h0a10.91,10.91,0,0,1-7.64,2.6,18.53,18.53,0,0,1-4.33-.51l-.32-.71A5.19,5.19,0,0,0,41,151.49a15.89,15.89,0,0,0,6.53,1c.89,0,1.87,0,3-.1l.92,0c3.71,0,3.83,1.75,1.85,3.5s-6.06,3.5-10.77,3.5c-.46,0-.93,0-1.4-.05a3.86,3.86,0,0,0,1.7,1.65,24.57,24.57,0,0,0,7,.85c5,0,10.81-1.2,10.8-5.85a7.63,7.63,0,0,0-.05-.8c-1-7.55-5.23-8-6.15-8"/>
      <path class="cls-12" d="M100.18,212a5,5,0,0,1-2.36,2h0c-2.88,1.35-7.46,1.6-10.19-.92a6.52,6.52,0,0,1-1.55-2.14l1-.32s3.67-9.46-1.17-15.52l-2.11.57s0-6.69,11.17-7,6.93,20.2,5.25,23.37"/>
      <path class="cls-14" d="M95.18,188.58h-.25l-.86,0c-4.88.3-7.45,1.87-8.8,3.45a5.94,5.94,0,0,0-1.51,3.52h0l2.11-.57a12.61,12.61,0,0,1,2.5,8A23,23,0,0,1,87,210.54l-1,.32A6.52,6.52,0,0,0,87.63,213c1.06-1.75,2.17-5.2,2.4-12,.12-3.5,1-5,2.24-5,2.86,0,7.23,8.52,5.55,17.88a5,5,0,0,0,2.36-2c.81-1.52,2.21-7,2.21-12.35A22.36,22.36,0,0,0,102,195c0-.08,0-.16,0-.24a10.3,10.3,0,0,0-1.57-3.71l-.33-.41a5.63,5.63,0,0,0-1.69-1.37,6.58,6.58,0,0,0-3.13-.72"/>
      <g>
        <path class="cls-43" d="M149.46,66c0,24.08-19,39.39-42.66,39.39S63.94,85.85,63.94,61.77s12.4-44.5,43.6-44.5C140.24,17.27,149.46,41.9,149.46,66Z"/>
        <g>
          <path class="cls-60" d="M74,85.18c-1.7-2.3-3.9-4.5-6.54-4.08s-3.9,2.89-3.39,7.13,1.44,6.46,4.67,9,4.92,3.82,8.32,1.53C77.64,94.09,74.83,86.71,74,85.18Z"/>
          <path class="cls-61" d="M74.94,97a9.27,9.27,0,0,1-1.1-.64,4.1,4.1,0,0,1-1.54-1.88,4,4,0,0,1-.24-2.42,4.26,4.26,0,0,1,.5-1.28c0-.08.1-.16.14-.23a.69.69,0,0,0-.07-.15c-.15-.29-.31-.57-.47-.85a16.23,16.23,0,0,0-1.65-2.29,5.29,5.29,0,0,0-2.26-1.77,1.82,1.82,0,0,0-1.46.17,1.23,1.23,0,0,0-.67,1.21,1.19,1.19,0,0,1,.77-1,1.6,1.6,0,0,1,1.25,0,5.6,5.6,0,0,1,2,1.74,26,26,0,0,1,1.7,2.18c.2.29.4.58.58.88A4,4,0,0,0,71.73,92a4,4,0,0,0,.15,2.68,4.18,4.18,0,0,0,1.78,2,9.25,9.25,0,0,0,1.2.55,2,2,0,0,0,1.3.13A2.14,2.14,0,0,1,74.94,97ZM67.5,92.67A5.11,5.11,0,0,1,67,90a20.83,20.83,0,0,1,.4-2.79A11.33,11.33,0,0,0,66.67,90a5,5,0,0,0,.43,2.88,5.63,5.63,0,0,0,2,2.1,13.39,13.39,0,0,0,2.6,1.22,26.26,26.26,0,0,1-2.4-1.5A5.73,5.73,0,0,1,67.5,92.67Z"/>
        </g>
        <g>
          <path class="cls-60" d="M139,85.32c1.72-2.33,4-4.57,6.63-4.14s4,2.93,3.45,7.24-1.46,6.55-4.74,9.13-5,3.88-8.44,1.55C135.3,94.36,138.15,86.87,139,85.32Z"/>
          <path class="cls-61" d="M136.8,97.66a2,2,0,0,0,1.32-.13,9.57,9.57,0,0,0,1.22-.56,4.22,4.22,0,0,0,1.8-2,4.07,4.07,0,0,0,.15-2.71,3.74,3.74,0,0,0-.73-1.38c.19-.3.39-.6.59-.89a26.74,26.74,0,0,1,1.73-2.21A5.65,5.65,0,0,1,144.93,86a1.64,1.64,0,0,1,1.27,0,1.22,1.22,0,0,1,.79,1,1.27,1.27,0,0,0-.68-1.22,1.84,1.84,0,0,0-1.49-.17,5.26,5.26,0,0,0-2.28,1.79,16.71,16.71,0,0,0-1.68,2.32l-.48.86-.07.16a1.76,1.76,0,0,1,.14.23,4.15,4.15,0,0,1,.51,1.3,4,4,0,0,1-.24,2.45,4.2,4.2,0,0,1-1.57,1.92,10.23,10.23,0,0,1-1.12.65A2.13,2.13,0,0,1,136.8,97.66ZM143.75,95a26.93,26.93,0,0,1-2.43,1.52A13.15,13.15,0,0,0,144,95.25,5.6,5.6,0,0,0,146,93.12a5.09,5.09,0,0,0,.43-2.92,11.21,11.21,0,0,0-.75-2.81,23.25,23.25,0,0,1,.41,2.83,5.37,5.37,0,0,1-.5,2.7A5.81,5.81,0,0,1,143.75,95Z"/>
        </g>
        <g>
          <path class="cls-60" d="M141,72.51c0,.31,3.06.63,3,.93a201.43,201.43,0,0,1-4.49,25.24,19.56,19.56,0,0,1-2.34,5.4,22.19,22.19,0,0,1-6.41,6.52,74.46,74.46,0,0,1-11.42,6.18,55.72,55.72,0,0,1-5.79,2.23,21.83,21.83,0,0,1-6.31,1.22,24.54,24.54,0,0,1-7.1-1.32,92,92,0,0,1-14.45-6.35c-4.6-2.39-10.18-7.54-11.49-13A252.16,252.16,0,0,1,69.27,74c-.46-3.45,2.5-4.8,5.34-15.06,3.81-13.76,9-19.21,30.74-19.21C143.2,39.68,142.18,61.89,141,72.51Z"/>
          <path class="cls-62" d="M71.58,87.7s3.57-23.21,11.28-29.5,8.82-10.33,8.82-10.33,2,11.75,15.32,16.78l-.58-7.06a17.21,17.21,0,0,0,7.88,7.06L113,55.74a138.2,138.2,0,0,1,19.81,9.59c9.61,5.76,9.2,24.75,9.2,24.75L138.18,50.7,105.35,37.09l-20.89-.83L70.32,55.74l2.2,15.19Z"/>
        </g>
        <g>
          <ellipse class="cls-63" cx="122.73" cy="80.27" rx="6.91" ry="7.32"/>
          <ellipse class="cls-64" cx="122.83" cy="80.19" rx="4.63" ry="4.9"/>
          <ellipse class="cls-54" cx="124.99" cy="76.25" rx="1.27" ry="1.34"/>
        </g>
        <g>
          <ellipse class="cls-63" cx="89.78" cy="81.59" rx="6.91" ry="7.32"/>
          <ellipse class="cls-64" cx="89.95" cy="81.58" rx="4.56" ry="4.82"/>
          <ellipse class="cls-54" cx="92.04" cy="77.57" rx="1.27" ry="1.34"/>
        </g>
        <path class="cls-65" d="M101.7,91.43a15.38,15.38,0,0,0,2.21,1.2,7.69,7.69,0,0,0,2,.6,6,6,0,0,0,2.06-.08,9.49,9.49,0,0,0,2.29-.88,3.67,3.67,0,0,1-1.65,2.32,4.41,4.41,0,0,1-3,.62A4.62,4.62,0,0,1,101.7,91.43Z"/>
        <g>
          <path class="cls-62" d="M94.19,98c-.53-.21-1.15-1.07-1.63-1.37a3.75,3.75,0,0,0-1.6-.53c-.73-.08-1.63.19-1.77.86A1.47,1.47,0,0,0,90,98.33a4.7,4.7,0,0,0,2.82.88A1.45,1.45,0,0,0,94,98.76a.56.56,0,0,0-.47-.87Z"/>
          <path class="cls-62" d="M117.89,99.47c.34-.38.89-1.43,1.33-1.71a2.17,2.17,0,0,1,1-.37,1.6,1.6,0,0,1,1.6,1,1.9,1.9,0,0,1-.41,1.83,3.65,3.65,0,0,1-1.73,1,2.68,2.68,0,0,1-1.37.13,1.2,1.2,0,0,1-1-.86,1.14,1.14,0,0,1,.59-1.1,3.94,3.94,0,0,1,1.32-.43Z"/>
          <g>
            <path class="cls-66" d="M120.18,98.91a11.35,11.35,0,0,1-.59,1.35c-1.31,2.63-4.42,7.48-8.36,9.28a11,11,0,0,1-9.18-.16c-3.77-1.78-5.47-3.89-7.64-7.44-.7-1.15-1.45-2.46-2.34-4,0,0-.21-.28.14-.29a2.19,2.19,0,0,1,.59.1c2.12.59,7.49,3.58,15.82,3.17,6.4-.31,9.9-1.72,11.18-2.35a.3.3,0,0,1,.38.13A.25.25,0,0,1,120.18,98.91Z"/>
            <path class="cls-67" d="M119.59,100.26c-1.31,2.63-4.42,7.48-8.36,9.28a11,11,0,0,1-9.18-.16c-3.77-1.78-5.47-3.89-7.64-7.44,2.52,2.78,6.77,6.43,11.93,6.78C113.4,109.2,118.21,102.46,119.59,100.26Z"/>
            <path class="cls-68" d="M120.18,98.75a27.23,27.23,0,0,1-14.51,3.37C98,101.8,93.6,98.74,92.21,97.69a2.19,2.19,0,0,1,.59.1c2.12.59,7.49,3.58,15.82,3.17,6.4-.31,9.9-1.72,11.18-2.35A.29.29,0,0,1,120.18,98.75Z"/>
            <path class="cls-69" d="M95.34,99.31c.16.07,9.11,5.45,21.41,1,0,0-1.77,4-9.19,4.43C99.08,105.2,95.34,99.31,95.34,99.31Z"/>
            <path class="cls-70" d="M106.37,108.62c-1.75-.1-3.93-.56-4.78-1.34,1.54-1.52,3.53-.41,5.21-.89,3.51-1,4.73.25,5.19,1A9.06,9.06,0,0,1,106.37,108.62Z"/>
          </g>
        </g>
        <path class="cls-64" d="M92.11,66.77s-6.88-1.17-10.19,3.41c-.13.18-.44.1-.42-.12.1-1.39.86-4.25,5.14-5.09C93.39,63.65,92.11,66.77,92.11,66.77Z"/>
        <path class="cls-64" d="M118.46,64s6.89-1.18,10.19,3.4a.23.23,0,0,0,.43-.12c-.11-1.39-.86-4.25-5.14-5.09C117.19,60.84,118.46,64,118.46,64Z"/>
        <path class="cls-43" d="M140.13,52.07c-3.25-17.21-9-14.57-24.32-17.8-7-1.47-7-6.54-14.11-5.84-4,.41-14.88-1.54-24.33,14.63-6,10.19-15.7,19.07-11.65,31.21,3.73,11.57,5.86,13.43,5.86,13.43l.3-1.7c.09-1.3.21-2.59.26-3.89,1-24.48,11.88-24.8,20.48-39.4a43.5,43.5,0,0,0,7.71,5.3c4.94,2.89,10,5.38,15.2,7.78s10.4,4.48,15.5,7.08c13.07,6.66,10.32,24.83,10.32,24.83-.07-.45,1.57-2.53,1.79-2.91a44.39,44.39,0,0,0,3.34-6.51C150.36,68.93,142.06,62.32,140.13,52.07Z"/>
        <path class="cls-43" d="M105.35,47.18a22.38,22.38,0,0,0,0,14.44A31.14,31.14,0,0,1,92.21,40"/>
        <path class="cls-43" d="M101.7,45.65S101.91,50.9,113,62c0,0-4.11-7.32-1.77-14.82"/>
        <path class="cls-71" d="M68.55,82.47a54.08,54.08,0,0,1-2.85-9.93,64.51,64.51,0,0,1-1.14-10.46,10.73,10.73,0,0,1,.15-2.66l.56-2.61c.35-1.75.79-3.49,1.31-5.2a44.65,44.65,0,0,1,4.38-10,37.41,37.41,0,0,1,7-8.54A42.63,42.63,0,0,1,87,27a43.75,43.75,0,0,1,21.11-4.62A46.24,46.24,0,0,1,128.88,28a37.57,37.57,0,0,1,8.82,6.63,31,31,0,0,1,3.56,4.47l.75,1.25c.24.42.43.8.64,1.21.44.79.81,1.61,1.19,2.43a52.73,52.73,0,0,1,3.38,10.19c.39,1.74.71,3.49.93,5.25l.38,2.63a12.48,12.48,0,0,1-.07,2.66,63.5,63.5,0,0,1-1.8,10.37,51.48,51.48,0,0,1-3.52,9.7,76.23,76.23,0,0,0-1.34-19.74,14.8,14.8,0,0,1-.4-2.35,23.21,23.21,0,0,0-.19-2.36c-.2-1.56-.48-3.1-.82-4.63a45.61,45.61,0,0,0-2.93-8.84c-.33-.7-.65-1.41-1-2.08-.18-.34-.35-.7-.53-1l-.54-.9a25.24,25.24,0,0,0-2.69-3.38,31.51,31.51,0,0,0-7.18-5.38,39.28,39.28,0,0,0-17.62-4.78,36.51,36.51,0,0,0-17.72,3.87,35.59,35.59,0,0,0-7.52,5.11A30,30,0,0,0,77,45.26a37.37,37.37,0,0,0-3.68,8.4,45.49,45.49,0,0,0-1.15,4.53,22.89,22.89,0,0,0-.32,2.33,13.39,13.39,0,0,1-.52,2.32A84.21,84.21,0,0,0,68.55,82.47Z"/>
        <path class="cls-72" d="M72.76,97.16s2.82,5.86-.65,6.85-2.38-5.55-2.38-5.55.9,5.53,2,2.11Z"/>
        <path class="cls-72" d="M140.84,97.53s-2.81,5.86.65,6.85,2.39-5.55,2.39-5.55-.9,5.52-2,2.11Z"/>
      </g>
    </g>
  </g>
</svg>
