<svg xmlns="http://www.w3.org/2000/svg" width="277.41" height="255.17" viewBox="0 0 277.41 255.17">
  <defs>
    <style>
      .cls-1 {
        isolation: isolate;
      }

      .cls-2 {
        fill: #fffa4d;
      }

      .cls-3 {
        fill: #a4a7a7;
      }

      .cls-3, .cls-6, .cls-7 {
        stroke: #49463e;
        stroke-miterlimit: 10;
      }

      .cls-4 {
        fill: #fff;
        opacity: 0.3;
      }

      .cls-5 {
        fill: #c5c7c9;
        mix-blend-mode: multiply;
      }

      .cls-6 {
        fill: #b26024;
      }

      .cls-7 {
        fill: #284d5e;
      }
    </style>
  </defs>
  <g class="cls-1">
    <g id="Layer_1" data-name="Layer 1">
      <g>
        <path class="cls-2" d="M24.07,253.56a12.87,12.87,0,0,1-2.77-.31l-.64,0A8,8,0,0,1,13.57,249L2.2,227.39A8,8,0,0,1,3.62,218l153-153a8,8,0,0,1,.12-11.2L189,21.56c18.41-17.69,26.65-20,31.76-20A12.17,12.17,0,0,1,229.36,5a12,12,0,0,1,4,9.51,20.8,20.8,0,0,1,11.49,6l12.42,12.42a20.79,20.79,0,0,1,6,11.48l.54,0c.33,0,.67,0,1,.05s.46,0,.74.08a10,10,0,0,1,1.23.26,6.89,6.89,0,0,1,.82.24,9,9,0,0,1,1.16.48,7.22,7.22,0,0,1,.79.39,11,11,0,0,1,1.15.74,6.44,6.44,0,0,1,.58.42,13.75,13.75,0,0,1,1.5,1.37c9.69,10.1-4.08,26.25-9.26,32.33-1.06,1.24-2.19,2.52-3.35,3.8-.68.75-1.37,1.5-2.06,2.23s-1.29,1.37-1.92,2L244,100.91l4,26.25a8,8,0,0,1-2.26,6.87,11.9,11.9,0,0,1-10.9,7.36h-.2a11.94,11.94,0,0,1-9.84,5.34h-.2a11.92,11.92,0,0,1-9.84,5.35h-.2a11.94,11.94,0,0,1-9.84,5.34h-.2a11.94,11.94,0,0,1-9.84,5.34h-.2a11.43,11.43,0,0,1-4.34,3.94,11.63,11.63,0,0,1-5.5,1.41h-.2a11.92,11.92,0,0,1-9.84,5.35h-.2a11.94,11.94,0,0,1-9.83,5.34h-.2a12,12,0,0,1-9.84,5.34h-.2a11.94,11.94,0,0,1-9.83,5.34h-.2a12,12,0,0,1-9.84,5.34h-.2a11.4,11.4,0,0,1-4.35,3.94,11.55,11.55,0,0,1-5.49,1.4h-.2a11.43,11.43,0,0,1-4.34,3.94,11.62,11.62,0,0,1-5.5,1.4h-.2a11.53,11.53,0,0,1-4.34,3.95,11.68,11.68,0,0,1-5.49,1.39h-.2a11.92,11.92,0,0,1-9.84,5.35h-.2a11.94,11.94,0,0,1-9.84,5.34h-.2a11.91,11.91,0,0,1-9.83,5.34h-.21a11.94,11.94,0,0,1-9.83,5.34H64a12,12,0,0,1-9.84,5.34H54a11.94,11.94,0,0,1-9.83,5.34H44a11.94,11.94,0,0,1-9.84,5.34h-.2a11.43,11.43,0,0,1-4.34,3.94A11.62,11.62,0,0,1,24.07,253.56Z"/>
        <g id="saw">
          <path class="cls-3" d="M9.28,223.66l11.38,21.62c1.86-.42,3,1,5.15-.18,2.51-1.33,1.38-3.45,3.89-4.79s3.64.78,6.15-.55,1.38-3.45,3.89-4.79,3.63.78,6.14-.55,1.38-3.45,3.89-4.79,3.64.79,6.15-.55,1.38-3.46,3.89-4.79,3.64.78,6.14-.55,1.39-3.46,3.9-4.79,3.63.78,6.14-.55,1.38-3.46,3.89-4.79,3.64.78,6.15-.55,1.38-3.46,3.89-4.79,3.64.78,6.15-.56,1.38-3.45,3.89-4.78,3.63.78,6.14-.56,1.39-3.45,3.89-4.79,3.64.79,6.15-.55,1.38-3.45,3.89-4.79,3.64.78,6.15-.55,1.38-3.45,3.89-4.79,3.64.78,6.15-.55,1.38-3.46,3.89-4.79,3.63.78,6.14-.55,1.38-3.45,3.89-4.79,3.64.78,6.15-.55,1.38-3.46,3.89-4.79,3.63.78,6.14-.55,1.39-3.46,3.9-4.79,3.63.78,6.14-.55,1.38-3.46,3.89-4.79,3.64.78,6.15-.56,1.38-3.45,3.89-4.79,3.64.79,6.15-.55,1.38-3.45,3.89-4.79,3.64.78,6.15-.55,1.38-3.46,3.89-4.79,3.64.78,6.15-.55,1.38-3.46,3.89-4.79,3.64.78,6.15-.56,1.38-3.45,3.89-4.79,3.64.78,6.15-.55,1.5-3.22,3.51-4.56L235.5,98.11,185.16,47.78Z"/>
          <path class="cls-4" d="M182.42,50.51l42.67,42.66-2.22,20L20,236.93c-1.53.81-2.54.32-3.68.14l4.32,8.21c1.86-.42,3,1,5.15-.18,2.51-1.33,1.38-3.45,3.89-4.79s3.64.78,6.15-.55,1.38-3.45,3.89-4.79,3.63.78,6.14-.55,1.38-3.45,3.89-4.79,3.64.79,6.15-.55,1.38-3.46,3.89-4.79,3.64.78,6.14-.55,1.39-3.46,3.9-4.79,3.63.78,6.14-.55,1.38-3.46,3.89-4.79,3.64.78,6.15-.55,1.38-3.46,3.89-4.79,3.64.78,6.15-.56,1.38-3.45,3.89-4.78,3.63.78,6.14-.56,1.39-3.45,3.89-4.79,3.64.79,6.15-.55,1.38-3.45,3.89-4.79,3.64.78,6.15-.55,1.38-3.45,3.89-4.79,3.64.78,6.15-.55,1.38-3.46,3.89-4.79,3.63.78,6.14-.55,1.38-3.45,3.89-4.79,3.64.78,6.15-.55,1.38-3.46,3.89-4.79,3.63.78,6.14-.55,1.39-3.46,3.9-4.79,3.63.78,6.14-.55,1.38-3.46,3.89-4.79,3.64.78,6.15-.56,1.38-3.45,3.89-4.79,3.64.79,6.15-.55,1.38-3.45,3.89-4.79,3.64.78,6.15-.55,1.38-3.46,3.89-4.79,3.64.78,6.15-.55,1.38-3.46,3.89-4.79,3.64.78,6.15-.56,1.38-3.45,3.89-4.79,3.64.78,6.15-.55,1.5-3.22,3.51-4.56L235.5,98.11,185.16,47.78Z"/>
          <path class="cls-5" d="M168.75,64.19,9.28,223.66l11.32,21.5C29,213.63,172.37,67.81,172.37,67.81Z"/>
          <g>
            <path class="cls-6" d="M239.16,26.07c-5-5.16-10.75-3.09-13.22-5.54-3.53-3.5,1.93-5.92-2.11-9.8-5-4.83-19.1,6.79-29.31,16.6L162.43,59.42,196.61,93.6c21.7,21.7,36.53,6.87,36.53,6.87L250.4,83.21C260.21,73,271.83,58.94,267,53.9c-3.87-4-6.29,1.42-9.79-2.11-2.45-2.47-.38-8.23-5.54-13.22ZM247,58.72a7.9,7.9,0,0,1-11.18,11.17l-28-28A7.9,7.9,0,0,1,219,30.69Z"/>
            <path class="cls-7" d="M239.16,26.07c-5-5.16-10.75-3.09-13.22-5.54-3.53-3.5,1.93-5.92-2.11-9.8-5-4.83-19.1,6.79-29.31,16.6L186,35.86s23.5,42,38.17,49.09c10.08,4.87,29-.59,42.83-31.05-3.87-4-6.29,1.42-9.79-2.11-2.45-2.47-.38-8.23-5.54-13.22ZM247,58.72a7.9,7.9,0,0,1-11.18,11.17l-28-28A7.9,7.9,0,0,1,219,30.69Z"/>
            <path class="cls-5" d="M257.69,52.23l-9,9A7.9,7.9,0,0,1,247,69.89c-2.35,2.35-5.56,1.55-8.68,1.68-9.75,26-41.75,22-41.75,22,21.7,21.7,36.53,6.87,36.53,6.87L250.4,83.21C260.21,73,271.83,58.94,267,53.9,263.3,50.05,260.93,54.82,257.69,52.23Z"/>
          </g>
        </g>
      </g>
    </g>
  </g>
</svg>
