<svg xmlns="http://www.w3.org/2000/svg" xmlns:xlink="http://www.w3.org/1999/xlink" width="3200" height="900" viewBox="0 0 3200 900">
  <defs>
    <style>
      .cls-1 {
        fill: none;
      }

      .cls-2 {
        isolation: isolate;
      }

      .cls-3 {
        clip-path: url(#clip-path);
      }

      .cls-4 {
        fill: url(#linear-gradient);
      }

      .cls-5 {
        fill: url(#linear-gradient-2);
      }

      .cls-6 {
        fill: url(#linear-gradient-3);
      }

      .cls-7 {
        fill: url(#linear-gradient-4);
      }

      .cls-8 {
        fill: url(#linear-gradient-5);
      }

      .cls-9 {
        fill: url(#linear-gradient-6);
      }

      .cls-10 {
        fill: url(#linear-gradient-7);
      }

      .cls-11 {
        fill: url(#linear-gradient-8);
      }

      .cls-12 {
        fill: url(#linear-gradient-9);
      }

      .cls-13 {
        fill: url(#linear-gradient-10);
      }

      .cls-14 {
        fill: url(#linear-gradient-11);
      }

      .cls-15 {
        fill: url(#linear-gradient-12);
      }

      .cls-16 {
        fill: url(#linear-gradient-13);
      }

      .cls-17 {
        fill: url(#linear-gradient-14);
      }

      .cls-18 {
        fill: url(#linear-gradient-15);
      }

      .cls-19 {
        fill: url(#linear-gradient-16);
      }

      .cls-20 {
        fill: url(#linear-gradient-17);
      }

      .cls-21 {
        fill: url(#linear-gradient-18);
      }

      .cls-22 {
        fill: url(#linear-gradient-19);
      }

      .cls-23 {
        fill: url(#linear-gradient-20);
      }

      .cls-24 {
        fill: url(#linear-gradient-21);
      }

      .cls-25 {
        fill: url(#linear-gradient-22);
      }

      .cls-26 {
        fill: url(#linear-gradient-23);
      }

      .cls-27 {
        fill: url(#linear-gradient-24);
      }

      .cls-28 {
        fill: url(#linear-gradient-25);
      }

      .cls-29 {
        fill: url(#linear-gradient-26);
      }

      .cls-30 {
        fill: url(#linear-gradient-27);
      }

      .cls-31 {
        fill: url(#linear-gradient-28);
      }

      .cls-32 {
        fill: url(#linear-gradient-29);
      }

      .cls-33 {
        fill: url(#linear-gradient-30);
      }

      .cls-34 {
        fill: url(#linear-gradient-31);
      }

      .cls-35 {
        fill: url(#linear-gradient-32);
      }

      .cls-36 {
        fill: url(#linear-gradient-33);
      }

      .cls-37 {
        fill: url(#linear-gradient-34);
      }

      .cls-38 {
        fill: url(#linear-gradient-35);
      }

      .cls-39 {
        fill: url(#linear-gradient-36);
      }

      .cls-40 {
        fill: url(#linear-gradient-37);
      }

      .cls-41 {
        fill: url(#linear-gradient-38);
      }

      .cls-42 {
        fill: url(#linear-gradient-39);
      }

      .cls-43 {
        fill: url(#linear-gradient-40);
      }

      .cls-44 {
        fill: url(#linear-gradient-41);
      }

      .cls-45 {
        fill: url(#linear-gradient-42);
      }

      .cls-46 {
        fill: url(#linear-gradient-43);
      }

      .cls-47 {
        fill: url(#linear-gradient-44);
      }

      .cls-48 {
        fill: #3d1c16;
      }

      .cls-49 {
        fill: #a57162;
      }

      .cls-50 {
        fill: #3beaa2;
      }

      .cls-51 {
        fill: url(#linear-gradient-45);
      }

      .cls-52 {
        fill: url(#linear-gradient-46);
      }

      .cls-53 {
        fill: url(#linear-gradient-47);
      }

      .cls-54 {
        fill: url(#linear-gradient-48);
      }

      .cls-55 {
        fill: #f5af0b;
      }

      .cls-55, .cls-56 {
        stroke: #e87e03;
      }

      .cls-55, .cls-56, .cls-57, .cls-58 {
        stroke-width: 0.15px;
      }

      .cls-56 {
        fill: #f7b800;
      }

      .cls-57 {
        fill: #d85620;
        stroke: #b03f25;
      }

      .cls-58 {
        fill: #62a402;
        stroke: #557a42;
        stroke-linecap: round;
        stroke-linejoin: round;
      }

      .cls-59, .cls-61, .cls-63, .cls-66, .cls-67, .cls-68, .cls-69, .cls-70, .cls-71 {
        mix-blend-mode: multiply;
      }

      .cls-59 {
        opacity: 0.28;
      }

      .cls-60 {
        fill: #009c5d;
      }

      .cls-61 {
        fill: #fbcc00;
        opacity: 0.47;
      }

      .cls-62 {
        fill: #ee9b00;
      }

      .cls-63 {
        opacity: 0.5;
      }

      .cls-64, .cls-66 {
        fill: #b03f25;
      }

      .cls-65 {
        fill: #ee9b15;
      }

      .cls-66, .cls-71 {
        opacity: 0.29;
      }

      .cls-67 {
        opacity: 0.4;
      }

      .cls-68 {
        opacity: 0.48;
      }

      .cls-69 {
        opacity: 0.66;
      }

      .cls-70 {
        opacity: 0.67;
      }

      .cls-72 {
        fill: url(#linear-gradient-49);
      }

      .cls-73 {
        fill: url(#linear-gradient-50);
      }

      .cls-74 {
        fill: url(#linear-gradient-51);
      }

      .cls-75 {
        fill: url(#linear-gradient-52);
      }

      .cls-76 {
        fill: url(#linear-gradient-53);
      }

      .cls-77 {
        fill: url(#linear-gradient-54);
      }

      .cls-78 {
        fill: url(#linear-gradient-55);
      }

      .cls-79 {
        fill: #185426;
      }

      .cls-80 {
        fill: #fee5d8;
      }

      .cls-81 {
        fill: #2c7138;
      }

      .cls-82 {
        fill: #e6c055;
      }

      .cls-83 {
        fill: #21602e;
      }

      .cls-84 {
        fill: url(#linear-gradient-56);
      }

      .cls-85 {
        fill: #011c24;
      }

      .cls-86 {
        fill: #042f33;
      }

      .cls-87 {
        fill: url(#linear-gradient-57);
      }

      .cls-88 {
        fill: url(#linear-gradient-58);
      }

      .cls-89 {
        fill: #e3a650;
      }

      .cls-90 {
        fill: url(#linear-gradient-59);
      }

      .cls-91 {
        fill: url(#linear-gradient-60);
      }

      .cls-92 {
        fill: url(#linear-gradient-61);
      }

      .cls-93 {
        fill: url(#linear-gradient-62);
      }

      .cls-94 {
        fill: url(#linear-gradient-63);
      }

      .cls-95 {
        fill: url(#linear-gradient-64);
      }

      .cls-96 {
        fill: url(#linear-gradient-65);
      }
    </style>
    <clipPath id="clip-path">
      <rect class="cls-1" width="3200" height="900"/>
    </clipPath>
    <linearGradient id="linear-gradient" x1="-25.22" y1="884.47" x2="1617.73" y2="884.47" gradientUnits="userSpaceOnUse">
      <stop offset="0" stop-color="#0a512e"/>
      <stop offset="0.54" stop-color="#0a512e"/>
      <stop offset="0.77" stop-color="#0a512e"/>
    </linearGradient>
    <linearGradient id="linear-gradient-2" x1="421.51" y1="839.48" x2="457.38" y2="839.48" xlink:href="#linear-gradient"/>
    <linearGradient id="linear-gradient-3" x1="414.34" y1="831.38" x2="453.54" y2="831.38" xlink:href="#linear-gradient"/>
    <linearGradient id="linear-gradient-4" x1="380.67" y1="837.23" x2="414.06" y2="837.23" xlink:href="#linear-gradient"/>
    <linearGradient id="linear-gradient-5" x1="237.58" y1="818.61" x2="297.6" y2="818.61" xlink:href="#linear-gradient"/>
    <linearGradient id="linear-gradient-6" x1="207.91" y1="803.66" x2="282.61" y2="803.66" xlink:href="#linear-gradient"/>
    <linearGradient id="linear-gradient-7" x1="193.36" y1="795.82" x2="240.42" y2="795.82" xlink:href="#linear-gradient"/>
    <linearGradient id="linear-gradient-8" x1="178.17" y1="798.57" x2="204.56" y2="798.57" xlink:href="#linear-gradient"/>
    <linearGradient id="linear-gradient-9" x1="147.31" y1="803.29" x2="176" y2="803.29" xlink:href="#linear-gradient"/>
    <linearGradient id="linear-gradient-10" x1="111.14" y1="803.27" x2="168.83" y2="803.27" xlink:href="#linear-gradient"/>
    <linearGradient id="linear-gradient-11" x1="109.52" y1="817.37" x2="165.93" y2="817.37" xlink:href="#linear-gradient"/>
    <linearGradient id="linear-gradient-12" x1="1446.24" y1="857.99" x2="1506.26" y2="857.99" xlink:href="#linear-gradient"/>
    <linearGradient id="linear-gradient-13" x1="1416.57" y1="843.03" x2="1491.26" y2="843.03" xlink:href="#linear-gradient"/>
    <linearGradient id="linear-gradient-14" x1="1402.01" y1="835.2" x2="1449.07" y2="835.2" xlink:href="#linear-gradient"/>
    <linearGradient id="linear-gradient-15" x1="1386.83" y1="837.94" x2="1413.22" y2="837.94" xlink:href="#linear-gradient"/>
    <linearGradient id="linear-gradient-16" x1="1355.96" y1="842.67" x2="1384.66" y2="842.67" xlink:href="#linear-gradient"/>
    <linearGradient id="linear-gradient-17" x1="1319.79" y1="842.65" x2="1377.49" y2="842.65" xlink:href="#linear-gradient"/>
    <linearGradient id="linear-gradient-18" x1="1318.17" y1="856.75" x2="1374.58" y2="856.75" xlink:href="#linear-gradient"/>
    <linearGradient id="linear-gradient-19" x1="984.46" y1="885.49" x2="3232.53" y2="885.49" xlink:href="#linear-gradient"/>
    <linearGradient id="linear-gradient-20" x1="2731.49" y1="883.15" x2="2768.26" y2="883.15" xlink:href="#linear-gradient"/>
    <linearGradient id="linear-gradient-21" x1="2675.42" y1="886.91" x2="2719.85" y2="886.91" xlink:href="#linear-gradient"/>
    <linearGradient id="linear-gradient-22" x1="2718.93" y1="870.09" x2="2754.33" y2="870.09" xlink:href="#linear-gradient"/>
    <linearGradient id="linear-gradient-23" x1="2036.31" y1="854.5" x2="2072.18" y2="854.5" xlink:href="#linear-gradient"/>
    <linearGradient id="linear-gradient-24" x1="2029.14" y1="846.4" x2="2068.34" y2="846.4" xlink:href="#linear-gradient"/>
    <linearGradient id="linear-gradient-25" x1="1995.47" y1="852.24" x2="2028.86" y2="852.24" xlink:href="#linear-gradient"/>
    <linearGradient id="linear-gradient-26" x1="1852.38" y1="833.63" x2="1912.4" y2="833.63" xlink:href="#linear-gradient"/>
    <linearGradient id="linear-gradient-27" x1="1822.71" y1="818.67" x2="1897.41" y2="818.67" xlink:href="#linear-gradient"/>
    <linearGradient id="linear-gradient-28" x1="1808.16" y1="810.83" x2="1855.22" y2="810.83" xlink:href="#linear-gradient"/>
    <linearGradient id="linear-gradient-29" x1="1792.98" y1="813.58" x2="1819.36" y2="813.58" xlink:href="#linear-gradient"/>
    <linearGradient id="linear-gradient-30" x1="1762.11" y1="818.3" x2="1790.8" y2="818.3" xlink:href="#linear-gradient"/>
    <linearGradient id="linear-gradient-31" x1="1725.94" y1="818.28" x2="1783.63" y2="818.28" xlink:href="#linear-gradient"/>
    <linearGradient id="linear-gradient-32" x1="1724.32" y1="832.39" x2="1780.73" y2="832.39" xlink:href="#linear-gradient"/>
    <linearGradient id="linear-gradient-33" x1="3061.04" y1="873" x2="3121.06" y2="873" xlink:href="#linear-gradient"/>
    <linearGradient id="linear-gradient-34" x1="3031.37" y1="858.04" x2="3106.07" y2="858.04" xlink:href="#linear-gradient"/>
    <linearGradient id="linear-gradient-35" x1="3016.81" y1="850.21" x2="3063.87" y2="850.21" xlink:href="#linear-gradient"/>
    <linearGradient id="linear-gradient-36" x1="3001.63" y1="852.95" x2="3028.02" y2="852.95" xlink:href="#linear-gradient"/>
    <linearGradient id="linear-gradient-37" x1="2970.76" y1="857.68" x2="2999.46" y2="857.68" xlink:href="#linear-gradient"/>
    <linearGradient id="linear-gradient-38" x1="2934.59" y1="857.66" x2="2992.29" y2="857.66" xlink:href="#linear-gradient"/>
    <linearGradient id="linear-gradient-39" x1="1140.96" y1="903.68" x2="3389.04" y2="903.68" xlink:href="#linear-gradient"/>
    <linearGradient id="linear-gradient-40" x1="2831.92" y1="881.15" x2="2876.36" y2="881.15" xlink:href="#linear-gradient"/>
    <linearGradient id="linear-gradient-41" x1="2875.44" y1="864.34" x2="2910.84" y2="864.34" xlink:href="#linear-gradient"/>
    <linearGradient id="linear-gradient-42" x1="2192.82" y1="848.74" x2="2228.69" y2="848.74" xlink:href="#linear-gradient"/>
    <linearGradient id="linear-gradient-43" x1="2185.65" y1="840.64" x2="2224.84" y2="840.64" xlink:href="#linear-gradient"/>
    <linearGradient id="linear-gradient-44" x1="2151.98" y1="846.49" x2="2185.37" y2="846.49" xlink:href="#linear-gradient"/>
    <linearGradient id="linear-gradient-45" x1="1794.67" y1="296.77" x2="1420.7" y2="-589.3" gradientTransform="translate(127.04)" gradientUnits="userSpaceOnUse">
      <stop offset="0.26" stop-color="#55b093"/>
      <stop offset="0.39" stop-color="#61c489"/>
      <stop offset="0.56" stop-color="#6ddb7d"/>
      <stop offset="0.68" stop-color="#72e379"/>
    </linearGradient>
    <linearGradient id="linear-gradient-46" x1="2396.2" y1="520.21" x2="1978.7" y2="111.32" gradientTransform="translate(127.04)" gradientUnits="userSpaceOnUse">
      <stop offset="0.23" stop-color="#2fac76"/>
      <stop offset="0.54" stop-color="#31ad79"/>
      <stop offset="0.74" stop-color="#36b281"/>
      <stop offset="0.88" stop-color="#3db98e"/>
    </linearGradient>
    <linearGradient id="linear-gradient-47" x1="1350.54" y1="339.11" x2="1226.81" y2="-105.38" xlink:href="#linear-gradient-45"/>
    <linearGradient id="linear-gradient-48" x1="1775.6" y1="450.06" x2="1588.68" y2="-193.27" gradientTransform="translate(127.04)" gradientUnits="userSpaceOnUse">
      <stop offset="0.07" stop-color="#39a57e"/>
      <stop offset="0.67" stop-color="#72e379"/>
    </linearGradient>
    <linearGradient id="linear-gradient-49" x1="1259.55" y1="873.29" x2="1333.29" y2="873.29" xlink:href="#linear-gradient"/>
    <linearGradient id="linear-gradient-50" x1="1223.1" y1="854.54" x2="1314.87" y2="854.54" xlink:href="#linear-gradient"/>
    <linearGradient id="linear-gradient-51" x1="1205.22" y1="844.71" x2="1263.04" y2="844.71" xlink:href="#linear-gradient"/>
    <linearGradient id="linear-gradient-52" x1="1186.57" y1="848.16" x2="1218.99" y2="848.16" xlink:href="#linear-gradient"/>
    <linearGradient id="linear-gradient-53" x1="1148.65" y1="854.08" x2="1183.9" y2="854.08" xlink:href="#linear-gradient"/>
    <linearGradient id="linear-gradient-54" x1="1104.21" y1="854.05" x2="1175.09" y2="854.05" xlink:href="#linear-gradient"/>
    <linearGradient id="linear-gradient-55" x1="1102.22" y1="871.73" x2="1171.53" y2="871.73" xlink:href="#linear-gradient"/>
    <linearGradient id="linear-gradient-56" x1="-57.05" y1="834.36" x2="216.36" y2="834.36" xlink:href="#linear-gradient"/>
    <linearGradient id="linear-gradient-57" x1="847.75" y1="879.73" x2="1121.16" y2="879.73" xlink:href="#linear-gradient"/>
    <linearGradient id="linear-gradient-58" x1="1760.75" y1="860.73" x2="2034.16" y2="860.73" xlink:href="#linear-gradient"/>
    <linearGradient id="linear-gradient-59" x1="597.04" y1="872.68" x2="633.22" y2="872.68" xlink:href="#linear-gradient"/>
    <linearGradient id="linear-gradient-60" x1="579.15" y1="863.48" x2="624.18" y2="863.48" xlink:href="#linear-gradient"/>
    <linearGradient id="linear-gradient-61" x1="570.38" y1="858.66" x2="598.75" y2="858.66" xlink:href="#linear-gradient"/>
    <linearGradient id="linear-gradient-62" x1="561.22" y1="860.35" x2="577.13" y2="860.35" xlink:href="#linear-gradient"/>
    <linearGradient id="linear-gradient-63" x1="542.61" y1="863.25" x2="559.91" y2="863.25" xlink:href="#linear-gradient"/>
    <linearGradient id="linear-gradient-64" x1="520.81" y1="863.24" x2="555.59" y2="863.24" xlink:href="#linear-gradient"/>
    <linearGradient id="linear-gradient-65" x1="519.83" y1="871.92" x2="553.84" y2="871.92" xlink:href="#linear-gradient"/>
  </defs>
  <g class="cls-2">
    <g id="Layer_1" data-name="Layer 1">
      <g class="cls-3">
        <g>
          <g>
            <g>
              <path class="cls-4" d="M-25.22,829.11a1814.38,1814.38,0,0,1,222.27-3.17c137.77,6.47,239.05,27,260.52,31,129.16,24.43,436.82,34.36,1156.06-7.24q2.05,37.28,4.1,74.54Q828.28,964,40.33,927.45c-21.85-1-34.66,18.61-56.51,17.51C-16.18,913.24-25.22,860.83-25.22,829.11Z"/>
              <g>
                <path class="cls-5" d="M421.51,851.54s36.87-5.44,35.85-20.42S421.51,851.54,421.51,851.54Z"/>
                <path class="cls-6" d="M414.34,857.6s20.48-37.44,35.85-47-26.63-10.3-35.85,28.89Z"/>
                <path class="cls-7" d="M412.8,852.55s10.34-29.13-28.17-30.63C367.22,821.23,412.8,852.55,412.8,852.55Z"/>
              </g>
              <g>
                <path class="cls-8" d="M248.21,824.22s14.34-9.57,42-11.94S260.5,799.71,240,824.22C240,824.22,230.8,835.11,248.21,824.22Z"/>
                <path class="cls-9" d="M209.29,825.58s42-30.64,66.58-38.81-23.56-8.85-56.34,16.68C219.53,803.45,203.14,818.77,209.29,825.58Z"/>
                <path class="cls-10" d="M197,825.58s27.9-49.7,40.58-55.83-20.1-9.53-40.58,31C197,800.73,188.8,822.18,197,825.58Z"/>
                <path class="cls-11" d="M182.15,825.58s10.75-45.61,21-52.42S164.22,780.65,182.15,825.58Z"/>
                <path class="cls-12" d="M176,825.58s.51-38-21.51-43.85S167.29,806.52,176,825.58Z"/>
                <path class="cls-13" d="M168.83,825.58S155,782,121.2,781,147.83,797,168.83,825.58Z"/>
                <path class="cls-14" d="M165.93,825.58s-18.1-17.7-48.83-16.34S158.42,820.14,165.93,825.58Z"/>
              </g>
              <g>
                <path class="cls-15" d="M1456.87,863.6s14.34-9.58,42-11.94-29.7-12.57-50.19,11.94C1448.67,863.6,1439.46,874.49,1456.87,863.6Z"/>
                <path class="cls-16" d="M1418,865s42-30.64,66.57-38.81-23.55-8.85-56.33,16.68C1428.19,842.83,1411.8,858.15,1418,865Z"/>
                <path class="cls-17" d="M1405.65,865s27.9-49.7,40.59-55.83-20.1-9.53-40.59,31C1405.65,840.11,1397.46,861.55,1405.65,865Z"/>
                <path class="cls-18" d="M1390.8,865s10.76-45.62,21-52.43S1372.88,820,1390.8,865Z"/>
                <path class="cls-19" d="M1384.66,865s.51-38-21.51-43.85S1376,845.9,1384.66,865Z"/>
                <path class="cls-20" d="M1377.49,865s-13.83-43.55-47.63-44.58S1356.49,836.36,1377.49,865Z"/>
                <path class="cls-21" d="M1374.58,865s-18.09-17.7-48.82-16.34S1367.07,859.51,1374.58,865Z"/>
              </g>
            </g>
            <g>
              <path class="cls-22" d="M984.46,890.17c52.39-2.53,734.43-52.72,827.39-49.94,137.77,4.11,239.05,17.16,260.52,19.75,129.16,15.55,436.82,21.87,1156.06-4.61q2.06,23.73,4.1,47.45-789.45,25.29-1577.4,2c-21.85-.64-35.23,6.09-56.51,11.15C1440.56,953.61,984.46,910.37,984.46,890.17Z"/>
              <g>
                <path class="cls-23" d="M2732.93,896.31s27.81-18.34,33.44-21.63c6.91-4-5.8-9.83-26.41,4.19C2740,878.87,2727.31,889,2732.93,896.31Z"/>
                <path class="cls-24" d="M2719.85,895.16s-5.6-17-36.36-16.5S2719.85,895.16,2719.85,895.16Z"/>
                <path class="cls-25" d="M2728.23,897.64s9.38-38.08,23.05-48.53c11.71-9-13.09-11.4-27,10S2728.23,897.64,2728.23,897.64Z"/>
              </g>
              <g>
                <path class="cls-26" d="M2036.31,866.56s36.87-5.45,35.85-20.43S2036.31,866.56,2036.31,866.56Z"/>
                <path class="cls-27" d="M2029.14,872.61s20.48-37.44,35.85-47-26.63-10.31-35.85,28.88Z"/>
                <path class="cls-28" d="M2027.6,867.56s10.34-29.13-28.17-30.63C1982,836.25,2027.6,867.56,2027.6,867.56Z"/>
              </g>
              <g>
                <path class="cls-29" d="M1863,839.23s14.34-9.57,42-11.93-29.71-12.58-50.19,11.93C1854.82,839.23,1845.6,850.13,1863,839.23Z"/>
                <path class="cls-30" d="M1824.09,840.59s42-30.63,66.58-38.8-23.56-8.85-56.34,16.68C1834.33,818.47,1817.94,833.79,1824.09,840.59Z"/>
                <path class="cls-31" d="M1811.8,840.59s27.9-49.7,40.58-55.82-20.1-9.54-40.58,31C1811.8,815.74,1803.6,837.19,1811.8,840.59Z"/>
                <path class="cls-32" d="M1797,840.59s10.75-45.61,21-52.42S1779,795.66,1797,840.59Z"/>
                <path class="cls-33" d="M1790.8,840.59s.51-38-21.51-43.85S1782.09,821.53,1790.8,840.59Z"/>
                <path class="cls-34" d="M1783.63,840.59S1769.8,797.05,1736,796,1762.63,812,1783.63,840.59Z"/>
                <path class="cls-35" d="M1780.73,840.59s-18.1-17.7-48.83-16.34S1773.22,835.15,1780.73,840.59Z"/>
              </g>
              <g>
                <path class="cls-36" d="M3071.67,878.61s14.34-9.58,42-11.94-29.7-12.57-50.19,11.94C3063.47,878.61,3054.26,889.5,3071.67,878.61Z"/>
                <path class="cls-37" d="M3032.75,880s42-30.64,66.57-38.81-23.55-8.85-56.33,16.68C3043,857.84,3026.6,873.16,3032.75,880Z"/>
                <path class="cls-38" d="M3020.45,880s27.91-49.7,40.59-55.83-20.1-9.53-40.59,31C3020.45,855.12,3012.26,876.57,3020.45,880Z"/>
                <path class="cls-39" d="M3005.6,880s10.76-45.62,21-52.42S2987.68,835,3005.6,880Z"/>
                <path class="cls-40" d="M2999.46,880s.51-38-21.51-43.85S2990.75,860.91,2999.46,880Z"/>
                <path class="cls-41" d="M2992.29,880s-13.83-43.55-47.63-44.58S2971.29,851.38,2992.29,880Z"/>
              </g>
            </g>
            <g>
              <path class="cls-42" d="M1141,910.84c52.4-3.88,734.44-80.56,827.39-76.31,137.78,6.29,239.06,26.23,260.52,30.18,129.16,23.76,436.83,33.42,1156.07-7q2.05,36.24,4.1,72.5-789.45,38.63-1577.4,3.08c-21.85-1-35.24,9.3-56.52,17C1597.07,1007.77,1141,941.69,1141,910.84Z"/>
              <g>
                <path class="cls-43" d="M2876.36,889.41s-5.6-17-36.37-16.5S2876.36,889.41,2876.36,889.41Z"/>
                <path class="cls-44" d="M2884.74,891.88s9.38-38.08,23.05-48.53c11.71-9-13.09-11.39-27,10S2884.74,891.88,2884.74,891.88Z"/>
              </g>
              <g>
                <path class="cls-45" d="M2192.82,860.8s36.87-5.45,35.85-20.43S2192.82,860.8,2192.82,860.8Z"/>
                <path class="cls-46" d="M2185.65,866.86s20.48-37.45,35.85-47-26.64-10.31-35.85,28.89Z"/>
                <path class="cls-47" d="M2184.11,861.81s10.34-29.13-28.17-30.64C2138.53,830.49,2184.11,861.81,2184.11,861.81Z"/>
              </g>
            </g>
          </g>
          <g>
            <path class="cls-48" d="M1997.81,868.33c.5-1.61-3.22-3-6.62-9.12-3.17-5.7-6.41-11.23-7-14.05-3-14.69-12.16-32.37-16-38.93-12.14-20.85-17.86-52.12-27.36-104-4.12-22.51-8.8-52.74-12-89.15-.68-51.74,4.95-90.74,16.57-113.24,19.48-37.75,33.12-76.8,33.12-76.8s68.21,3.9,74.05,0,22.41-22.47,19.49-70.46l1-11.55-17.54,6.19s-5.4,43-27.86,46.37c-26.78,4.67-57.4-16.05-52.9-46.37h-19.47s6,88.38-23.46,107c-22,7.34-34.94-4.27-33.94-56l1-51.74-34.93.07s2,55,0,58.34-17.47,37.34-33.94-32.68c-14-49.34-6-25.57-6-25.57l-19,.54s8.49,54.37,36.44,88.38c18.46,32.68,19,87.35,5,106.69-15,19.34-40.43,30-59.9-84.68-13-76-16.47-110.39-16.47-110.39l-27-.37s11,90.75,9,106.76c-2.49,18-3.49,73.35-62.39,50-141.23-51.09,21.21-125,1-167.37-5.77-12.09-96.66,120.09-105.17,87.73-13.33-50.66-20.62-79.73-20.62-79.73l-22-.73s-1,29.8,3.48,37.8c-7,.64-65.52-5.62-91.5-21.71-23.19-14.36-53.54-35.17-56-43.09-5.87-.3-23.79.31-29.66,0,4.57,14.71,12.12,20.55,17.71,26,21.52,20.79,67.35,48.27,145.92,62,2.58.45,12.7,1.43,18.6,3.43,0,.21.31,3.06.31,3.06s3.1,74.61,73.48,110.62c62.89,31.34,90.35,47.34,106.32,60s27,26,24.45,69.35a452.06,452.06,0,0,0,4.5,103.69c8.11,50.41,23.22,88.26,34.44,111.7,54,2.25,88.74,2.47,111,2.2,44.63-.55,70-3.47,83.4.66C1989.57,869.27,1997.15,870.5,1997.81,868.33Z"/>
            <path class="cls-49" d="M1937,679.69c-13.82,7.41-38.53,20.79-51.45,37.34-47.77,61.16-15.27,141.6-11.58,150.34l126.12,2.13c-8.3-10.79-13.68-20.32-19-35.25C1962.84,782.77,1940.56,720.5,1937,679.69Z"/>
            <path class="cls-49" d="M1782.57,436.62s23.37,115.63,41.69,114.79C1805.31,563.22,1769.93,531.15,1782.57,436.62Z"/>
            <path class="cls-50" d="M1431.77,89.29c5.43-49.87,19.72-125.15,62.71-186.65,116.14-166.13,338.56-88.82,409.71-64,175.66,61.25,289.5,208.12,345.26,293.61l27.67,27.43a1825,1825,0,0,1-441.41,46.84,1828.45,1828.45,0,0,1-384.1-47.64Z"/>
            <path class="cls-51" d="M1433.33,86.51c5.38-48,19.52-120.48,62.06-179.68,114.92-159.94,335-85.51,405.42-61.63,173.82,59,286.47,200.36,341.65,282.65l27.37,26.41a1853.94,1853.94,0,0,1-436.78,45.09A1857.3,1857.3,0,0,1,1453,153.49Z"/>
            <path class="cls-50" d="M2151.47,114.4s160.83-46.57,232.13,95.24c46.43,110.07,54.72,145.76-232.13,125.79C2103,159.22,2151.47,114.4,2151.47,114.4Z"/>
            <path class="cls-52" d="M2155.64,118.52s156.22-47.33,225.47,96.82c45.1,111.88,53.15,148.16-225.47,127.87C2108.54,164.08,2155.64,118.52,2155.64,118.52Z"/>
            <path class="cls-50" d="M1466.91,316.53c-4.84,0-145.45-12.47-145.45-12.47s-87.27-22.87-37.17-79A91.75,91.75,0,0,0,1316,191c10-18.39,7.31-27.4,13.68-44.33,20.17-53.6,87.81-71.85,87.81-71.85h0s91.73-23.65,160,22.76c7.61,5.18,11.36,8,14.26,12.8,31.57,52.52-66.61,206.13-66.61,206.13Z"/>
            <path class="cls-53" d="M1537.3,323.11c-4.68,0-265.26-6.58-265.26-6.58s-47.23-9-20.87-64.37c15.38-27.69,26.56-48.9,35.92-66.81,9.64-18.44,35.61-46.46,53.05-61.93C1383,80.51,1465.2,77.7,1465.2,77.7h0s88.6-23.73,154.53,22.83c7.36,5.19,11,8,13.78,12.83,30.49,52.69-64.34,206.77-64.34,206.77Z"/>
            <path class="cls-50" d="M1474.44,174.74s80-84,163.91-117C1730,8.37,1851.31-102,1998.44-50.92,2112-3.16,2197.2,62.73,2247.53,184.63c24.53,70.83,28.4,156.48-158.75,145l-521.42,1.05S1363.44,311.46,1474.44,174.74Z"/>
            <path class="cls-54" d="M1466.8,192.87s81-85.4,165.81-118.89C1725.31,23.74,1848-88.46,1996.88-36.55,2111.78,12,2198,79,2248.87,202.92c24.81,72,28.72,159.09-160.59,147.36l-527.48,1.07S1354.51,331.86,1466.8,192.87Z"/>
            <path class="cls-49" d="M2073.22,350.31s2.37,48.1-15.18,67.48c-5.23,6.77-9.38,6.59-15.63,6.77,0,0,17.46-7.62,21.81-33s4.75-41.23,4.75-41.23l2.83,0Z"/>
            <path class="cls-49" d="M1899.08,350.53c-.69,8.74-1.19,35.12-.91,41,1.2,25.91,2.58,55.43,15.17,63.05a13.38,13.38,0,0,0,9.45,1.59l4.76-.71c-5.86,9.66-11.1,10.48-12.79,10.59-10.41.64-22.59-17.41-25.56-46.5a235.73,235.73,0,0,1-2.09-41.8c.48-11.61,1.89-27.43,1.89-27.43h0Z"/>
          </g>
          <g>
            <g>
              <path class="cls-55" d="M1282.47,805.83s-6.12-5-7.72-5.71-3.51-3-1.2-5.16,8.32-1,10,5.59S1283.31,806.19,1282.47,805.83Z"/>
              <path class="cls-55" d="M1284.55,805.71s-4.34-13.76,4.52-13c2.61.6,3.39,4.74.24,10.39C1286.64,806.73,1284.55,807.22,1284.55,805.71Z"/>
              <path class="cls-55" d="M1286.87,805.65s6.84-11.11,15-7.26c3.45,2.16.49,6.89-5.47,7.2a36,36,0,0,0-8.32,1.8S1286.51,805.53,1286.87,805.65Z"/>
              <path class="cls-55" d="M1280.57,806.06s-5.59-2.09-9.22-1.19-7.13-.42-6.42-3.54,7.55-3.49,11.77-.9,5.65,4,5.24,5A1,1,0,0,1,1280.57,806.06Z"/>
              <path class="cls-55" d="M1265.41,812.55s-3.56-.46-3.19-2.85,2.45-4.85,9.19-5.51,8.94,1.22,8.62,2.23a2.46,2.46,0,0,1-1.88,1.62C1277.6,808.09,1266.32,811.68,1265.41,812.55Z"/>
              <path class="cls-56" d="M1269.86,816.33a22.26,22.26,0,0,0-3.64,2c-1.19,1-3.75,1.08-3.75-2s4.89-7.21,10-8.77,6.42-.41,6.42.18a2.57,2.57,0,0,1-1.32,2.22C1276.39,810.93,1269.86,816.33,1269.86,816.33Z"/>
              <path class="cls-56" d="M1287.69,807.34s7.72-3.13,15.22-.68c4.63,1.75,4.22,3.73,3.92,5.3s-2.26,3.66-10.23-.06a59.2,59.2,0,0,0-9.63-3.13Z"/>
              <path class="cls-57" d="M1280.45,803.47s1,1.46,1.44.48.15-1.22.62-.78.63.42.72-.35.33-1.05.53-.31.59,1.39.86.69.47.66.89.52.78-1.73.78-1.16-.06,1.91.65,1.21.93-.6.86.18.57,0,1-.36-.38.53-.44,1.53,1-.56.73.21,0,1.12.61.74-.51.83,0,.86.34.1.09.43.49.74,1.25.83-.71.17-.68.43.92.6,1.15.6a16.3,16.3,0,0,0-1.74.53c-.54.3-1,.3-.31.87s0,.73-.2,1.08-4.46.3-4.46.3l-6-2.08a2,2,0,0,0-2-1c-1.28.21.44-.24,1.12-.07s.78-.29.3-.42-.35-.52.36-.39,1.39.22.47-.31-.45-.52,0-.43.48-.3.3-.38-.6-.91-.12-.7,1.13.83.48.22-.24-.79.47-.54S1280.28,804.12,1280.45,803.47Z"/>
              <g>
                <path class="cls-58" d="M1268.54,881.18a1,1,0,0,1-.94-.79,36.31,36.31,0,0,1-.17-11A68.56,68.56,0,0,1,1273,850.6c1-2.32,2.15-4.64,3.26-6.87a99.65,99.65,0,0,0,4.62-10.21c2.26-6.21,2.88-13,1.64-18.15a1,1,0,0,1,.7-1.17,1,1,0,0,1,1.15.71c1.33,5.51.69,12.71-1.71,19.27a101.89,101.89,0,0,1-4.69,10.41c-1.1,2.21-2.24,4.5-3.24,6.78a67.54,67.54,0,0,0-5.42,18.27,34.69,34.69,0,0,0,.16,10.41,1,1,0,0,1-.76,1.12Z"/>
                <g class="cls-59">
                  <path class="cls-60" d="M1284.37,814.91a1,1,0,0,0-1.15-.71,1,1,0,0,0-.7,1.17c1.24,5.15.62,11.94-1.64,18.15a99.65,99.65,0,0,1-4.62,10.21c-1.11,2.23-2.25,4.55-3.26,6.87a68.56,68.56,0,0,0-5.57,18.79,36.31,36.31,0,0,0,.17,11,1,1,0,0,0,.94.79h.17a1.06,1.06,0,0,0,.25-.09c-4.51-5.92,2.38-26,5.13-31,2.85-5.21,7.14-14.74,8.4-17.78.42-1,.85-1.41,1.25-1.51A33.43,33.43,0,0,0,1284.37,814.91Z"/>
                </g>
              </g>
              <path class="cls-56" d="M1287.92,810.39s-.18-1.68,2.5-1.81a15.77,15.77,0,0,1,9.87,3.56c3.51,2.69,5.23,7,2.38,8.46s-4.11-.24-7.32-4.32-6.6-6.19-7.08-6.07Z"/>
              <path class="cls-56" d="M1268.48,817.12s-4.34,6.36-.54,8,6.9-4.2,8.09-6.18,5.11-7.57,5.7-7.87,0-1.28-.11-1.51c-.84-1.22-2.46-.55-3.59-.14a18.32,18.32,0,0,0-4.5,2.43,23.53,23.53,0,0,0-2.32,1.91A15.11,15.11,0,0,0,1268.48,817.12Z"/>
              <path class="cls-56" d="M1286.61,810.75s.3-1.26,1.66-.54a19.37,19.37,0,0,1,8.56,11.16c2,6.91-.94,8.6-2.84,8.6s-4.1-.25-4.1-6.49S1286.61,811.35,1286.61,810.75Z"/>
              <path class="cls-56" d="M1283.7,812.37s.77-2.39,2.14-2.46,2.2,1.69,3,4.74,2,7.51,2,9.74-1.31,6.66-4.1,6.66-3.39-4.39-3.33-7.44.71-7.63.66-8.72A19.52,19.52,0,0,1,1283.7,812.37Z"/>
              <path class="cls-56" d="M1281.75,810.46c.6-.53,1.31-.85,1.88-.1.82,1,.56,3.33.37,4.53-.36,2.23-2.56,15.73-8.33,14.89,0,0-3.09-1.32-1.42-7.26,1.22-4.36,3.62-7.62,6.49-11A9.56,9.56,0,0,1,1281.75,810.46Z"/>
              <path class="cls-61" d="M1279.2,809.14c-.14.14.51-.5.91.07s-.55.73,0,.73,1.16-.46.94.13-.15.79.33.62.63-1-.24-1.55A1.48,1.48,0,0,0,1279.2,809.14Z"/>
              <path class="cls-61" d="M1282.05,810.21s.8-.12.88.21.09-.41.43,0,.61.23.62.54S1283.61,809.21,1282.05,810.21Z"/>
              <path class="cls-61" d="M1288.48,810.09a1.2,1.2,0,0,1,1-1.2A1.5,1.5,0,0,0,1288,810c-.16,0-.87,0-.87.48.11.13.55-.48,1.1-.12S1288.2,810.09,1288.48,810.09Z"/>
            </g>
            <g>
              <path class="cls-55" d="M1193.37,770.36s9.06-7.38,11.43-8.46,5.19-4.43,1.78-7.63-12.33-1.52-14.8,8.26S1192.13,770.89,1193.37,770.36Z"/>
              <path class="cls-55" d="M1190.29,770.17s6.42-20.36-6.7-19.28c-3.86.89-5,7-.35,15.38C1187.2,771.68,1190.29,772.42,1190.29,770.17Z"/>
              <path class="cls-55" d="M1186.85,770.09s-10.12-16.45-22.18-10.75c-5.1,3.19-.71,10.21,8.1,10.66a53.17,53.17,0,0,1,12.33,2.67S1187.38,769.91,1186.85,770.09Z"/>
              <path class="cls-55" d="M1196.19,770.7s8.26-3.1,13.63-1.77,10.56-.62,9.51-5.23-11.18-5.17-17.42-1.34-8.36,5.95-7.75,7.46A1.49,1.49,0,0,0,1196.19,770.7Z"/>
              <path class="cls-55" d="M1218.63,780.31s5.26-.69,4.72-4.23-3.63-7.17-13.6-8.15-13.25,1.81-12.78,3.3a3.7,3.7,0,0,0,2.8,2.41C1200.58,773.7,1217.27,779,1218.63,780.31Z"/>
              <path class="cls-56" d="M1212,785.91a31.68,31.68,0,0,1,5.38,3c1.77,1.44,5.55,1.59,5.55-2.93s-7.23-10.66-14.8-13-9.5-.6-9.5.27.19,2,1.94,3.28S1212,785.91,1212,785.91Z"/>
              <path class="cls-56" d="M1185.64,772.59s-11.43-4.64-22.53-1c-6.86,2.59-6.24,5.52-5.8,7.84s3.34,5.42,15.13-.09c9.42-3.73,14.26-4.63,14.26-4.63Z"/>
              <path class="cls-57" d="M1196.35,766.93s-1.55,2.25-2.12.73-.22-1.86-.92-1.19-.93.65-1.06-.53-.49-1.61-.79-.48-.88,2.13-1.28,1.06-.69,1-1.32.8-1.14-2.65-1.14-1.78.08,2.92-1,1.85-1.37-.92-1.28.27-.84,0-1.4-.54.56.81.65,2.34-1.4-.86-1.08.32-.06,1.72-.9,1.13.75,1.27-.08,1.33-.49.15-.13.66-.72,1.12-1.84,1.26,1,.27,1,.67-1.37.92-1.71.92a21.16,21.16,0,0,1,2.58.8c.8.46,1.55.46.45,1.33s0,1.13.31,1.66,6.59.46,6.59.46l8.85-3.19s1.06-1.92,2.94-1.56-.65-.36-1.66-.1-1.14-.46-.44-.64.52-.81-.53-.61-2.06.33-.7-.47.66-.8,0-.67-.71-.46-.44-.58.88-1.39.18-1.07-1.68,1.28-.72.34.36-1.21-.7-.82S1196.61,767.93,1196.35,766.93Z"/>
              <g>
                <path class="cls-58" d="M1214,881.91a1.42,1.42,0,0,0,1.4-1.16,54,54,0,0,0,.26-16.3c-1.09-8.5-3.79-17.59-8.24-27.81-1.51-3.44-3.2-6.87-4.84-10.17a146.57,146.57,0,0,1-6.83-15.12c-3.36-9.2-4.27-19.25-2.43-26.88a1.46,1.46,0,0,0-1-1.73,1.42,1.42,0,0,0-1.7,1.06c-2,8.15-1,18.82,2.52,28.53a155.3,155.3,0,0,0,7,15.41c1.63,3.28,3.31,6.66,4.8,10,4.34,10,7,18.81,8,27.05a51.35,51.35,0,0,1-.24,15.41,1.44,1.44,0,0,0,1.13,1.66Z"/>
                <g class="cls-59">
                  <path class="cls-60" d="M1190.56,783.8a1.42,1.42,0,0,1,1.7-1.06,1.46,1.46,0,0,1,1,1.73c-1.84,7.63-.93,17.68,2.43,26.88a146.57,146.57,0,0,0,6.83,15.12c1.64,3.3,3.33,6.73,4.84,10.17,4.45,10.22,7.15,19.31,8.24,27.81a54,54,0,0,1-.26,16.3,1.42,1.42,0,0,1-1.4,1.16h-.24a1.74,1.74,0,0,1-.38-.14c6.69-8.77-3.51-38.52-7.58-45.94-4.22-7.71-10.57-21.81-12.45-26.32-.61-1.48-1.25-2.09-1.85-2.23C1189.3,799,1188.93,790.56,1190.56,783.8Z"/>
                </g>
              </g>
              <path class="cls-56" d="M1185.3,777.11s.26-2.49-3.7-2.68-9.42,1.27-14.62,5.26-7.74,10.39-3.52,12.53,6.09-.35,10.84-6.39,9.77-9.17,10.48-9Z"/>
              <path class="cls-56" d="M1214.08,787.06s6.43,9.43.79,11.83-10.2-6.23-12-9.15-7.57-11.21-8.44-11.66c-.64-.32-.07-1.89.17-2.24,1.24-1.79,3.63-.81,5.31-.2a26.67,26.67,0,0,1,6.66,3.6,33.14,33.14,0,0,1,3.44,2.83A22.11,22.11,0,0,1,1214.08,787.06Z"/>
              <path class="cls-56" d="M1187.23,777.64s-.44-1.86-2.45-.79a28.63,28.63,0,0,0-12.68,16.52c-3,10.22,1.4,12.73,4.22,12.73s6.07-.37,6.07-9.61S1187.23,778.53,1187.23,777.64Z"/>
              <path class="cls-56" d="M1191.54,780s-1.14-3.54-3.16-3.63-3.26,2.49-4.41,7-2.89,11.13-2.89,14.42,1.93,9.87,6.06,9.87,5-6.5,4.94-11-1-11.29-1-12.9S1191.71,780.85,1191.54,780Z"/>
              <path class="cls-56" d="M1194.44,777.22c-.89-.8-2-1.26-2.79-.16-1.21,1.56-.83,4.93-.55,6.71.54,3.29,3.79,23.29,12.33,22.05,0,0,4.57-2,2.11-10.76-1.81-6.45-5.36-11.27-9.61-16.24A12.47,12.47,0,0,0,1194.44,777.22Z"/>
              <path class="cls-61" d="M1198.2,775.25c.21.21-.75-.74-1.34.12s.81,1.07-.06,1.07-1.72-.69-1.39.19.22,1.17-.48.92-.94-1.42.35-2.3A2.19,2.19,0,0,1,1198.2,775.25Z"/>
              <path class="cls-61" d="M1194,776.85s-1.18-.19-1.31.3-.12-.6-.63,0-.91.34-.92.79S1191.69,775.37,1194,776.85Z"/>
              <path class="cls-61" d="M1184.47,776.66a1.76,1.76,0,0,0-1.46-1.77,2.21,2.21,0,0,1,2.11,1.66c.23.06,1.29,0,1.29.71-.17.18-.82-.71-1.63-.19S1184.88,776.66,1184.47,776.66Z"/>
            </g>
            <g>
              <g>
                <path class="cls-57" d="M1249,753.93s-10.34-8.42-13-9.63-5.93-5.07-2-8.73,14-1.71,16.87,9.44S1250.39,754.54,1249,753.93Z"/>
                <path class="cls-62" d="M1250.66,753.28a.08.08,0,0,1-.09-.07c-1.92-7.25-9-13.9-9-14s7.28,6.59,9.21,13.9a.1.1,0,0,1-.07.12Z"/>
                <g class="cls-63">
                  <path class="cls-64" d="M1250.8,745a17.22,17.22,0,0,0-2.43-5.54c.79,2,1.69,4.79,1.45,6.58-.39,3.12-1.53.2-1.93,1.49s-4-.33-6.3-1.95c-2-1.44-6.22-3.14-8.89-4.22a7.17,7.17,0,0,0,3.24,2.93c2.7,1.21,13,9.63,13,9.63C1250.39,754.54,1253.61,756.17,1250.8,745Z"/>
                </g>
              </g>
              <g>
                <path class="cls-57" d="M1252.5,753.73s-7.33-23.22,7.63-22c4.41,1,5.73,8,.4,17.53C1256,755.46,1252.5,756.26,1252.5,753.73Z"/>
                <path class="cls-62" d="M1255.26,755a.15.15,0,0,1-.14-.09c-.91-6.78,3-15.54,3-15.5s-3.63,8.88-2.75,15.46c0,0,0,.11-.11.13Z"/>
                <g class="cls-63">
                  <path class="cls-64" d="M1257.18,745.79c-3.07-2.58-1.86,4.8-4.88.46-2-2.85-1-7.81-.15-10.83-3.44,6.28.35,18.31.35,18.31,0,2.53,3.52,1.73,8-4.47a25.75,25.75,0,0,0,3.41-9.75C1262.58,743.75,1259.33,747.57,1257.18,745.79Z"/>
                </g>
              </g>
              <g>
                <path class="cls-57" d="M1256.41,753.63s11.55-18.76,25.3-12.27c5.83,3.65.81,11.66-9.23,12.16a60.58,60.58,0,0,0-14,3.05S1255.81,753.43,1256.41,753.63Z"/>
                <path class="cls-65" d="M1257.28,755.05a32.73,32.73,0,0,1,17.6-8.86c-.43.13-8.82,1-17.55,9.16A.59.59,0,0,1,1257.28,755.05Z"/>
              </g>
              <g>
                <path class="cls-57" d="M1245.77,754.33s-9.42-3.55-15.56-2-12-.71-10.84-6,12.75-5.87,19.89-1.51,9.53,6.79,8.82,8.51A1.69,1.69,0,0,1,1245.77,754.33Z"/>
                <path class="cls-62" d="M1247.59,754h-.07c-6.41-8.34-17.84-8.75-17.84-8.8s11.54.27,18,8.65a.14.14,0,0,1,0,.14.08.08,0,0,1-.05,0Z"/>
                <g class="cls-63">
                  <path class="cls-64" d="M1239.26,744.81a17.7,17.7,0,0,0-2.12-1.1,23.7,23.7,0,0,1,6,5.93c1.62,2.5-2.62.43-14.66,1.09-5,.29-7.82.81-9.23-2.13.74,3.62,5.75,5,10.91,3.71,6.14-1.53,15.56,2,15.56,2a1.69,1.69,0,0,0,2.31-1C1248.79,751.6,1246.37,749.17,1239.26,744.81Z"/>
                </g>
              </g>
              <g>
                <path class="cls-57" d="M1220.17,765.29s-6-.78-5.39-4.81,4.15-8.21,15.53-9.3,15.11,2,14.56,3.75a4.22,4.22,0,0,1-3.2,2.75C1240.77,757.76,1221.72,763.8,1220.17,765.29Z"/>
                <path class="cls-62" d="M1224.35,754.86a6,6,0,0,1,1-.4,25.42,25.42,0,0,1,19.42-.13.09.09,0,0,1,0,.13s-.07.08-.11.06C1234.44,750.25,1224.35,754.92,1224.35,754.86Z"/>
                <path class="cls-66" d="M1237.81,751.09a7.62,7.62,0,0,1,2.51,1c1.13.81-.56.79-2.1.72a4.87,4.87,0,0,1,2.37.63c.67.74.4.67-1.94.88s1.47.4,1.74.61a18.29,18.29,0,0,0-7.76,1.2c-4.29,1.83-5.57,2.58-8.78,4.07-2.15,1-4.28,3.14-6.55,4.23a10.71,10.71,0,0,0,2.87.87c1.55-1.49,20.6-7.53,21.5-7.61a4.22,4.22,0,0,0,3.2-2.75C1245.26,753.67,1243.37,751.65,1237.81,751.09Z"/>
              </g>
              <g>
                <path class="cls-57" d="M1227.67,771.67a35.62,35.62,0,0,0-6.12,3.45c-2,1.62-6.33,1.83-6.33-3.34s8.24-12.16,16.87-14.8,10.84-.72,10.84.31-.2,2.22-2.21,3.74S1227.67,771.67,1227.67,771.67Z"/>
                <path class="cls-62" d="M1224.32,765.94c0-.05,9.23-9.06,18.34-8.18a1.87,1.87,0,0,1,.27,0c-.29,0,0,.22-.06.22C1233.85,757.17,1224.34,766,1224.32,765.94Z"/>
                <g class="cls-67">
                  <path class="cls-64" d="M1232.57,756.85a11.42,11.42,0,0,1,1.93,0c3.81.35,4.41-.46,1.47,1.22s-3.62,1.35-.6.94,3.35-1.35.87,1.09-3.68,3.58-5.63,5.61c-1.22,1.28-3.84,4.88-6,7.49,1.62-.88,3.11-1.55,3.11-1.55s11-9.12,13-10.64,2.21-2.74,2.21-3.74S1240.79,754.42,1232.57,756.85Z"/>
                </g>
              </g>
              <g>
                <path class="cls-57" d="M1257.79,756.48s13-5.28,25.69-1.13c7.84,2.94,7.13,6.3,6.63,8.93s-3.82,6.18-17.26-.11c-10.74-4.25-16.27-5.27-16.27-5.27Z"/>
                <path class="cls-65" d="M1256.62,757.42s13.21-4.14,22.39,1.88c-.91-.53-7.77-5.37-22.6-1.68C1256.32,757.55,1256.62,757.42,1256.62,757.42Z"/>
                <g class="cls-68">
                  <path class="cls-64" d="M1265.21,756.33c2.36-.47,9.11.67,9.11.67-5.69-1.89-10.57-.81-7.49-2.14,1.4-.63,4.71-.92,7.89-1.06a44.53,44.53,0,0,0-16.93,2.68l-1.21,2.42s5.53,1,16.27,5.27c7.16,3.34,11.44,3.91,14,3.31-3.24-1-6.51-3.45-9.08-5C1272.45,759.3,1262.87,756.8,1265.21,756.33Z"/>
                </g>
              </g>
              <path class="cls-56" d="M1245.59,750s1.76,2.57,2.4.82.26-2.12,1.06-1.37,1.06.77,1.22-.61.54-1.81.9-.53,1,2.45,1.45,1.23.8,1.13,1.51.91,1.3-3,1.3-2.06-.11,3.35,1.1,2.13,1.57-1.07,1.46.3,1,0,1.61-.6-.65.91-.76,2.65,1.6-1,1.26.4.05,2,1,1.28-.85,1.44.1,1.51.56.15.16.77.8,1.3,2.1,1.43-1.2.32-1.16.77,1.56,1.07,2,1.07a24.83,24.83,0,0,0-3,.9c-.9.54-1.75.54-.5,1.52s0,1.28-.36,1.9-7.52.54-7.52.54l-10.09-3.66s-1.21-2.19-3.36-1.81.75-.38,1.9-.07,1.31-.53.51-.76-.61-.91.61-.69,2.34.37.8-.53-.76-.9,0-.78.79-.52.5-.67-1-1.6-.2-1.21,1.9,1.43.79.38-.39-1.38.8-.92S1245.29,751.17,1245.59,750Z"/>
              <g>
                <path class="cls-58" d="M1225.46,881.18a1.61,1.61,0,0,1-1.58-1.34,61.14,61.14,0,0,1-.3-18.58c1.24-9.69,4.31-20.08,9.4-31.72,1.72-3.93,3.67-7.83,5.53-11.61a173.4,173.4,0,0,0,7.79-17.24c3.82-10.48,4.87-22,2.76-30.66a1.61,1.61,0,0,1,1.19-1.95,1.59,1.59,0,0,1,1.93,1.18c2.25,9.31,1.18,21.49-2.87,32.55a171.08,171.08,0,0,1-7.94,17.58c-1.85,3.73-3.76,7.6-5.45,11.46-5,11.35-8,21.43-9.15,30.82a58.34,58.34,0,0,0,.27,17.61,1.6,1.6,0,0,1-1.29,1.87,1.43,1.43,0,0,1-.29,0Z"/>
                <g class="cls-59">
                  <path class="cls-60" d="M1252.18,769.26a1.59,1.59,0,0,0-1.93-1.18,1.61,1.61,0,0,0-1.19,1.95c2.11,8.71,1.06,20.18-2.76,30.66a173.4,173.4,0,0,1-7.79,17.24c-1.86,3.78-3.81,7.68-5.53,11.61-5.09,11.64-8.16,22-9.4,31.72a61.14,61.14,0,0,0,.3,18.58,1.61,1.61,0,0,0,1.58,1.34,1.43,1.43,0,0,0,.29,0,1.88,1.88,0,0,0,.42-.14c-7.63-10,4-43.93,8.67-52.42,4.81-8.79,12-24.87,14.19-30,.69-1.69,1.43-2.37,2.1-2.55C1253.62,786.64,1254,777,1252.18,769.26Z"/>
                </g>
              </g>
              <g class="cls-69">
                <path class="cls-66" d="M1264.54,752.82c-3.64-.15.87-3.46,4.37-5.11-4.08,1.59-8.27,4-7.57,1.6.53-1.84,2.5-4,4-5.4a39.47,39.47,0,0,0-9,9.72c-.6-.2,2,2.94,2,2.94a60.58,60.58,0,0,1,14-3.05,15.9,15.9,0,0,0,7.89-2.39,22,22,0,0,1-5.45.81C1270.57,752.22,1269.44,753,1264.54,752.82Z"/>
              </g>
              <g>
                <path class="cls-57" d="M1258.2,761.65s-.31-2.85,4.21-3.06,10.74,1.43,16.66,6,8.83,11.86,4,14.29-6.92-.4-12.34-7.3-11.14-10.44-11.94-10.24Z"/>
                <g class="cls-70">
                  <path class="cls-66" d="M1269.23,768.37c-2-3.51-5.62-6-4-6.57.8-.28,2.32.32,3.46.9-1.85-1.11-3.42-2.19-1.52-3.12a3.28,3.28,0,0,1,1.19-.31,21,21,0,0,0-6-.68c-4.52.21-4.21,3.06-4.21,3.06l.6-.32c.8-.2,6.52,3.35,11.94,10.24,3.23,4.11,5.28,6.78,7.44,7.76C1274.79,776.92,1270.69,770.93,1269.23,768.37Z"/>
                </g>
                <path class="cls-65" d="M1258.72,760.09c.4,0,7.44-2.33,17,8.58-.47-.89-9.3-10.11-17.1-8.44A.2.2,0,0,0,1258.72,760.09Z"/>
              </g>
              <g>
                <path class="cls-57" d="M1225.36,773s-7.33,10.75-.9,13.48,11.64-7.1,13.65-10.44,8.64-12.78,9.64-13.29c.74-.36.07-2.17-.2-2.56-1.4-2.05-4.16-.93-6.06-.23a31.2,31.2,0,0,0-7.6,4.1,39,39,0,0,0-3.92,3.24A24.86,24.86,0,0,0,1225.36,773Z"/>
                <path class="cls-62" d="M1232.44,773.69s7.59-12,14.58-13.57a.09.09,0,0,1,.12.08.08.08,0,0,1-.07.11c-6.91,1.6-14.55,13.4-14.55,13.4Z"/>
                <g class="cls-67">
                  <path class="cls-64" d="M1247.55,760.19c-.92-1.35-2.44-1.32-3.9-.94-.76.19-1.51.48-2.16.71a27.64,27.64,0,0,0-4.35,2,11.37,11.37,0,0,1,2.51-.59c1.94-.12,1.47.14.4,1.36s-.46,1,.61.48-1.14,1-2.41,2.76,2.54-2.35,4.75-3,1.41-.21.39,1.62-2.46,5-3.8,6.36c-.9.9-3.75,8.51-7.77,13.69,2.91-2.59,5.14-6.66,6.29-8.59,2-3.35,8.64-12.78,9.64-13.29C1248.49,762.39,1247.82,760.58,1247.55,760.19Z"/>
                </g>
              </g>
              <g>
                <path class="cls-57" d="M1256,762.25s.5-2.13,2.82-.92a32.93,32.93,0,0,1,14.45,18.87c3.41,11.66-1.61,14.5-4.81,14.5s-6.94-.41-6.94-11S1256,763.26,1256,762.25Z"/>
                <path class="cls-62" d="M1265.76,778.13c-.06,0-.1,0-.1-.08-1.65-12-8.53-16.92-8.6-17s-.06-.1,0-.13.1-.08.15,0,7,5,8.68,17.11a.1.1,0,0,1-.09.11Z"/>
                <g class="cls-71">
                  <path class="cls-64" d="M1261.94,774.31c-.88-3.64-3.08-9.32-1.48-8.92a2.51,2.51,0,0,1,1.57,1.35c-.16-.27.18-.87.38-1a3,3,0,0,1,2.31.22,22.16,22.16,0,0,0-5.92-4.62c-2.32-1.21-2.82.92-2.82.92,0,1,5.52,10.94,5.52,21.5,0,10,3.38,10.88,6.48,10.94C1263.34,791.07,1262.59,777.08,1261.94,774.31Z"/>
                </g>
              </g>
              <g>
                <path class="cls-57" d="M1251.06,765s1.31-4.07,3.62-4.16,3.71,2.83,5,8,3.32,12.66,3.32,16.42-2.21,11.26-6.93,11.26-5.72-7.4-5.62-12.57,1.21-12.88,1.1-14.71S1250.86,765.89,1251.06,765Z"/>
                <path class="cls-62" d="M1255.85,771.57c-.06,0-1.26-10.66-1.27-10.72a.11.11,0,0,1,.09-.13.11.11,0,0,1,.11.08c0,.07,1.12,10.77,1.07,10.77Z"/>
                <g class="cls-71">
                  <path class="cls-64" d="M1254.68,760.83c-2.31.09-3.62,4.16-3.62,4.16-.2.9.4,2.44.5,4.25a33.65,33.65,0,0,1-.24,3.71c.31-1.63.68-3.61,1.11-5.66,1.07-5.21,2.82-2,2.89.06s-.07-.34.8-2.36c.77-1.8,2.76,2.68,4.5,7.49-.32-1.29-.64-2.51-.93-3.64C1258.39,763.66,1257,760.72,1254.68,760.83Z"/>
                </g>
              </g>
              <g>
                <path class="cls-57" d="M1247.76,761.75c1-.9,2.23-1.43,3.2-.17,1.37,1.78.93,5.63.6,7.66-.6,3.76-4.31,26.57-14,25.15,0,0-5.22-2.23-2.41-12.27,2.06-7.37,6.12-12.86,11-18.54A15.1,15.1,0,0,1,1247.76,761.75Z"/>
                <path class="cls-62" d="M1242.93,778.77h0c-.05,0,3.29-14,7.38-17.81a.1.1,0,1,1,.14.14c-4.06,3.8-7.45,17.67-7.5,17.67Z"/>
              </g>
              <path class="cls-61" d="M1243.47,759.51c-.24.24.86-.81,1.53.13s-.93,1.22.08,1.22,2-.77,1.58.22-.24,1.34.56,1.07,1.07-1.62-.41-2.64A2.52,2.52,0,0,0,1243.47,759.51Z"/>
              <path class="cls-61" d="M1248.29,761.33s1.33-.2,1.46.34.15-.67.74,0,1,.41,1.06.92S1250.91,759.64,1248.29,761.33Z"/>
              <path class="cls-61" d="M1259.12,761.13a2,2,0,0,1,1.68-2,2.55,2.55,0,0,0-2.41,1.9c-.27.06-1.47,0-1.47.8.21.21.94-.8,1.88-.19S1258.66,761.13,1259.12,761.13Z"/>
            </g>
            <g>
              <path class="cls-57" d="M1909.63,762.24s-8.48-6.9-10.7-7.89-4.86-4.16-1.64-7.16,11.52-1.4,13.83,7.74S1910.78,762.74,1909.63,762.24Z"/>
              <path class="cls-57" d="M1912.51,762.08s-6-19,6.26-18c3.62.82,4.7,6.57.33,14.38C1915.4,763.5,1912.51,764.16,1912.51,762.08Z"/>
              <path class="cls-57" d="M1915.72,762s9.47-15.37,20.75-10c4.77,3,.66,9.56-7.58,10a49.6,49.6,0,0,0-11.51,2.5S1915.23,761.83,1915.72,762Z"/>
              <path class="cls-57" d="M1907,762.58s-7.73-2.92-12.76-1.66-9.88-.59-8.89-4.91,10.45-4.82,16.3-1.25,7.82,5.57,7.24,7A1.39,1.39,0,0,1,1907,762.58Z"/>
              <path class="cls-57" d="M1886,771.56s-4.93-.64-4.42-3.95,3.4-6.72,12.73-7.62,12.39,1.67,11.94,3.07a3.46,3.46,0,0,1-2.62,2.26C1902.89,765.38,1887.28,770.34,1886,771.56Z"/>
              <path class="cls-57" d="M1892.15,776.79a29.17,29.17,0,0,0-5,2.83c-1.65,1.33-5.19,1.5-5.19-2.74s6.75-10,13.83-12.14,8.89-.58,8.89.26-.17,1.82-1.81,3.07S1892.15,776.79,1892.15,776.79Z"/>
              <path class="cls-57" d="M1916.85,764.33s10.71-4.33,21.07-.92c6.42,2.41,5.85,5.16,5.44,7.32s-3.14,5.07-14.16-.09a80.67,80.67,0,0,0-13.34-4.32Z"/>
              <path class="cls-56" d="M1906.85,759s1.44,2.07,2,.67.21-1.7.87-1.1.86.62,1-.49.44-1.45.73-.43.82,2,1.19,1,.66.91,1.24.73,1.07-2.44,1.07-1.65-.09,2.68.9,1.71,1.28-.86,1.19.24.79,0,1.33-.48-.54.73-.63,2.12,1.32-.78,1,.32,0,1.57.82,1-.7,1.15.08,1.21.45.12.13.61.65,1,1.72,1.15-1,.25-1,.61,1.28.86,1.61.86a20.74,20.74,0,0,0-2.43.73c-.74.43-1.43.43-.41,1.21s0,1-.29,1.52-6.17.44-6.17.44l-8.27-2.93a2.88,2.88,0,0,0-2.76-1.45c-1.78.29.61-.31,1.56-.06s1.07-.43.41-.61-.49-.73.5-.56,1.93.3.66-.41-.62-.73,0-.63.65-.42.41-.54-.82-1.28-.16-1,1.56,1.15.65.3-.32-1.1.66-.73S1906.6,759.92,1906.85,759Z"/>
              <g>
                <path class="cls-58" d="M1890.34,866.59a1.32,1.32,0,0,1-1.29-1.1,49.83,49.83,0,0,1-.25-15.23c1-8,3.53-16.47,7.7-26,1.42-3.22,3-6.42,4.54-9.52a141.31,141.31,0,0,0,6.39-14.13c3.14-8.6,4-18,2.27-25.14a1.32,1.32,0,0,1,1-1.61,1.3,1.3,0,0,1,1.58,1c1.85,7.63,1,17.61-2.35,26.69a141,141,0,0,1-6.51,14.41c-1.52,3.06-3.09,6.24-4.47,9.4-4.07,9.31-6.52,17.58-7.5,25.27a47.56,47.56,0,0,0,.22,14.44,1.33,1.33,0,0,1-1.06,1.54l-.24,0Z"/>
                <g class="cls-59">
                  <path class="cls-60" d="M1912.25,774.82a1.3,1.3,0,0,0-1.58-1,1.32,1.32,0,0,0-1,1.61c1.72,7.14.87,16.54-2.27,25.14a141.31,141.31,0,0,1-6.39,14.13c-1.52,3.1-3.12,6.3-4.54,9.52-4.17,9.55-6.68,18.07-7.7,26a49.83,49.83,0,0,0,.25,15.23,1.32,1.32,0,0,0,1.29,1.1l.24,0a1.7,1.7,0,0,0,.34-.12c-6.25-8.21,3.29-36,7.11-43,4-7.21,9.88-20.4,11.64-24.61.57-1.39,1.18-2,1.72-2.1C1913.43,789.07,1913.77,781.14,1912.25,774.82Z"/>
                </g>
              </g>
              <path class="cls-57" d="M1917.19,768.57s-.25-2.33,3.45-2.5,8.81,1.17,13.66,4.91,7.24,9.72,3.29,11.72-5.67-.33-10.12-6-9.13-8.56-9.79-8.39Z"/>
              <path class="cls-57" d="M1890.26,777.88s-6,8.82-.74,11.06,9.55-5.83,11.19-8.57,7.09-10.48,7.91-10.89c.61-.3.06-1.78-.16-2.1-1.16-1.68-3.42-.76-5-.19a25.12,25.12,0,0,0-6.22,3.36,32.6,32.6,0,0,0-3.22,2.65A20.33,20.33,0,0,0,1890.26,777.88Z"/>
              <path class="cls-57" d="M1915.37,769.07s.41-1.75,2.31-.75a26.92,26.92,0,0,1,11.85,15.46c2.8,9.57-1.32,11.89-4,11.89s-5.68-.33-5.68-9S1915.37,769.89,1915.37,769.07Z"/>
              <path class="cls-57" d="M1911.33,771.31s1.08-3.33,3-3.41,3,2.33,4.11,6.57,2.72,10.38,2.72,13.47-1.81,9.23-5.68,9.23-4.69-6.07-4.6-10.31,1-10.56.89-12.06S1911.17,772.05,1911.33,771.31Z"/>
              <path class="cls-57" d="M1908.63,768.65c.84-.73,1.82-1.17,2.62-.13,1.13,1.46.77,4.61.49,6.28-.49,3.08-3.53,21.78-11.51,20.62,0,0-4.29-1.83-2-10.06,1.7-6.05,5-10.54,9-15.2A12.9,12.9,0,0,1,1908.63,768.65Z"/>
              <path class="cls-61" d="M1905.11,766.82c-.2.19.71-.67,1.26.11s-.77,1,.06,1,1.6-.62,1.29.19-.19,1.09.46.87.88-1.33-.33-2.16A2.06,2.06,0,0,0,1905.11,766.82Z"/>
              <path class="cls-61" d="M1909.06,768.32s1.1-.17,1.2.27.12-.55.6,0,.87.34.87.76S1911.21,766.93,1909.06,768.32Z"/>
              <path class="cls-61" d="M1917.94,768.15a1.66,1.66,0,0,1,1.38-1.67,2.1,2.1,0,0,0-2,1.56c-.21.05-1.2,0-1.2.66.17.17.77-.66,1.54-.16S1917.57,768.15,1917.94,768.15Z"/>
            </g>
            <g>
              <path class="cls-72" d="M1272.62,880.31s17.61-12,51.59-15-36.49-15.76-61.66,15C1262.55,880.31,1251.22,894,1272.62,880.31Z"/>
              <path class="cls-73" d="M1224.8,882s51.59-38.4,81.79-48.64-28.94-11.1-69.21,20.9C1237.38,854.28,1217.25,873.49,1224.8,882Z"/>
              <path class="cls-74" d="M1209.7,882s34.27-62.3,49.85-70-24.69-11.95-49.85,38.83C1209.7,850.87,1199.63,877.75,1209.7,882Z"/>
              <path class="cls-75" d="M1191.45,882s13.21-57.18,25.8-65.71S1169.43,825.7,1191.45,882Z"/>
              <path class="cls-76" d="M1183.9,882s.63-47.64-26.43-55S1173.2,858.13,1183.9,882Z"/>
              <path class="cls-77" d="M1175.09,882s-17-54.59-58.51-55.88S1149.29,846.18,1175.09,882Z"/>
              <path class="cls-78" d="M1171.53,882s-22.24-22.19-60-20.48S1162.3,875.19,1171.53,882Z"/>
            </g>
            <g>
              <path class="cls-79" d="M2989,865.47h2.72c.85-17.75.49-35.52,0-53.3-.05-1.12-1.73-1.87-1.69-.46C2990.4,829.64,2989.87,847.56,2989,865.47Z"/>
              <g>
                <path class="cls-80" d="M2987.44,771c.11,2.66,1,4.75,1.74,7.26.65,2.08,1.83,4.74,3.63,5.38a.4.4,0,0,0,.25.32c1.47.42,2.62-.16,4-.62a30.62,30.62,0,0,0,5.14-1.69,15.82,15.82,0,0,0,7.25-7.15c.59-1.29.57-3.42-1.15-3.26-1.48.12-2.12-.24-3.45.47-.09-1.26,0-2.89-.89-4-1.17-1.5-3.23-1.4-4.81-2.33-.87-.53-1.8,1-2.72.64s-1.87-2.08-2.85-1.94c-1.17.18-2,1-3.29.84-.46,0-2.34,0-2.73.4C2986.52,766.39,2987.4,769.47,2987.44,771Z"/>
                <path class="cls-80" d="M2963.78,778.46a3.69,3.69,0,0,0,2,2.85c3.76,2.46,8.5,2.93,12.75,3.34,2.59.25,9.95,2.19,9.43-3.4a28.28,28.28,0,0,0-1.83-6.44,46.07,46.07,0,0,0-2.42-6.28c-.76-2.13-2-4.8-3-3-1.44-1.15-3.47-2.5-5-1.29a3,3,0,0,0-1.15,3.24c.06.29,1.13,3.42-.47,2.55a4.8,4.8,0,0,0-1.39-.66c-.77-.13-2.34-.5-2.82.56a3.12,3.12,0,0,0-.33,1.5c0,.44.21,2.12-.58,2l-1.2-.21c-.85-.15-2,.17-2,1.37a5.26,5.26,0,0,0,1.05,2.53C2965.77,777.31,2963.76,777.09,2963.78,778.46Z"/>
                <path class="cls-81" d="M2981,793.94a6.28,6.28,0,0,0,.4,1.27c-.18-.08-.37,0-.37.34,0,.13,0,.26,0,.41a.71.71,0,0,0-.05.22c0,.36,0,.68.06,1,.09,2.29.48,4.6.77,6.83a23.51,23.51,0,0,0,1.49,6.81c1.35,2.9,3.57,5.19,6.39,5s7.17-.94,7.82-5.36c.68-4.68.18-9.43,1-14.08.08-.15.17-.31.27-.46.08.08.19.08.22-.09s.12-.42.19-.63-.29-.82-.51-.53l-.09.11s-.07,0-.1.07a.38.38,0,0,0,0,.1,13.89,13.89,0,0,0-2,3.52c-.2-1-.41-2-.66-3-.12-.49-.58-.91-.9-.43a7.19,7.19,0,0,0-.88,3c-.11.72.07,1.9-.42,1.07-.34-.55-.63-1.13-.92-1.72a12.68,12.68,0,0,0-3.25-4.77c-.29-.24-.64.06-.66.49a16.78,16.78,0,0,0,.63,4,19,19,0,0,1,.18,3.19,32.13,32.13,0,0,1-3.28-5.32c-.29-.66-1.12-.73-1,.25a18.71,18.71,0,0,0,.78,3.46c-1.44-1.69-2.66-3.82-4.17-5.38C2981.47,793,2980.9,793.24,2981,793.94Z"/>
                <path class="cls-82" d="M2985,789.38a8.89,8.89,0,0,0,7,2c1.91-.25,3.92-.47,5.29-2.09a4.67,4.67,0,0,0,.7-.52c1.45-1.34,1.48-3.5.58-5.37a12.24,12.24,0,0,0-2.4-3.46,5.25,5.25,0,0,0-3.8-1.27c-1.47-.07-2.74-1-4.19-.32a5,5,0,0,1-2.07.65,4,4,0,0,0-1.46.13C2980.61,781,2982.05,786.92,2985,789.38Z"/>
                <path class="cls-80" d="M2996.65,788.86a9,9,0,0,0,4.47,7.06c2.56,1.63,5.72,3.36,8.74,3.11,1.77-.14,2.2-1.25,1.66-2.66a17.57,17.57,0,0,0,2.81.24,5.24,5.24,0,0,0,2.29-.3c1.18-.68.9-1.94.54-3.18-.29-1-1.61-2.46-.49-3.27.49-.37,1.1-.57,1.44-1.14.51-.89-1-2.28-1.71-3a2.63,2.63,0,0,0,.6-3.2c-.67-1.41-2.6-1.55-3.8-1.49a40.6,40.6,0,0,0-6.95.6,23.94,23.94,0,0,0-3.11.77,6.92,6.92,0,0,1-3,.71c-.18,0-.12.26,0,.37A4.91,4.91,0,0,0,2996.65,788.86Z"/>
                <path class="cls-80" d="M2983.58,807.94c1.23,1.13,2.62-.69,3.67-1.19,1.57-.72,2.67,1.63,4,1a2.71,2.71,0,0,0,1.24-1.18c.18-.35.33-.71.51-1.06.54-1,1.5-.25,1.89.49.52.93,1.22,2.23,2.37,1.74.69-.28,1.15-1,1.83-1.26,1.37-.5,2,.41,3.22.54a1.38,1.38,0,0,0,1.74-1.1c.62-2.47-2-6.36-3-8.22a21,21,0,0,0-3.69-5.12,18.75,18.75,0,0,0-2.26-2.12c-2-1.82-4.75-3.24-6.9-2-3,1.79-4.65,5.23-5.22,8.94C2982.51,800.63,2981,805.54,2983.58,807.94Z"/>
                <path class="cls-80" d="M2965.53,788.65a6.59,6.59,0,0,0,1.34,2c.93.88,0,1.87-.4,2.86-1.45,3.91,1.53,4.52,3.51,4.31.58,0,3-.56,2.87,1a9.53,9.53,0,0,0-.17,2.55c.29,1.35,1,2.09,2,2,.68-.09,1.29-.74,1.92-1.09,1.1-.59.53,1.29.52,2.13,0,1.05.38,2.76,1.28,2.73,1.44-.06,2.08-2.56,2.56-4.18.81-2.78,1.82-5.46,2.48-8.33.46-2,1.85-4.39,1.55-6.53a2.72,2.72,0,0,0-2.26-2.29l-.63-.11a12.85,12.85,0,0,0-2.6-.65,36.23,36.23,0,0,0-3.88-.7c-2.07-.3-4.17-.21-6.21-.65-1-.22-2.58-.63-3.41.69A4.32,4.32,0,0,0,2965.53,788.65Z"/>
              </g>
            </g>
            <g>
              <path class="cls-57" d="M202.2,694.4s-10.34-8.42-13-9.63-5.93-5.07-2-8.73,14-1.71,16.87,9.45S203.61,695,202.2,694.4Z"/>
              <path class="cls-57" d="M205.72,694.2s-7.33-23.22,7.63-22c4.42,1,5.73,8,.4,17.54C209.24,695.93,205.72,696.74,205.72,694.2Z"/>
              <path class="cls-57" d="M209.63,694.1s11.55-18.75,25.3-12.27c5.83,3.66.81,11.67-9.23,12.16a60.76,60.76,0,0,0-14,3S209,693.9,209.63,694.1Z"/>
              <path class="cls-57" d="M199,694.81s-9.42-3.56-15.55-2-12.05-.71-10.84-6,12.74-5.88,19.88-1.52,9.53,6.79,8.82,8.52A1.7,1.7,0,0,1,199,694.81Z"/>
              <path class="cls-57" d="M173.39,705.76s-6-.78-5.39-4.81,4.15-8.21,15.53-9.3,15.11,2,14.56,3.75a4.2,4.2,0,0,1-3.2,2.75C194,698.23,174.94,704.28,173.39,705.76Z"/>
              <path class="cls-57" d="M180.89,712.14a35.62,35.62,0,0,0-6.12,3.45c-2,1.62-6.33,1.83-6.33-3.34s8.24-12.16,16.87-14.8,10.84-.71,10.84.31-.2,2.22-2.21,3.75S180.89,712.14,180.89,712.14Z"/>
              <path class="cls-57" d="M211,697s13.05-5.28,25.69-1.13c7.84,2.94,7.13,6.3,6.63,8.93s-3.82,6.18-17.26-.1c-10.74-4.26-16.27-5.28-16.27-5.28Z"/>
              <path class="cls-82" d="M194.59,699.61c1.16.28,1.31-.52.51-.74s-.61-.89.61-.68,2.35.37.8-.5-.76-.88,0-.76.79-.51.5-.66-1-1.55-.2-1.18,1.9,1.4.79.37-.39-1.34.8-.89.11-3,.41-4.13c0,0,1.76,2.51,2.4.81s.26-2.07,1.06-1.34,1.06.75,1.22-.59.54-1.77.9-.52,1,2.38,1.45,1.2.8,1.1,1.51.88,1.3-3,1.3-2-.11,3.26,1.1,2.07,1.57-1,1.46.3,1,0,1.61-.59-.65.89-.76,2.58,1.61-1,1.26.38.05,1.91,1,1.26-.85,1.39.1,1.46.56.15.16.75.8,1.26,2.1,1.39-1.2.31-1.16.75,1.56,1,2,1a24.46,24.46,0,0,0-2.95.88c-.91.52-1.76.52-.51,1.47s0,1.25-.35,1.85-7.53.53-7.53.53l-10.09-3.56"/>
              <g>
                <path class="cls-58" d="M178.68,821.65a1.61,1.61,0,0,1-1.58-1.34,61.14,61.14,0,0,1-.3-18.58c1.24-9.69,4.31-20.07,9.4-31.72,1.72-3.93,3.67-7.83,5.53-11.61a172.37,172.37,0,0,0,7.79-17.24c3.83-10.48,4.87-21.95,2.77-30.65a1.61,1.61,0,0,1,1.18-2,1.59,1.59,0,0,1,1.93,1.19c2.25,9.31,1.18,21.48-2.87,32.55a170.91,170.91,0,0,1-7.94,17.57c-1.85,3.73-3.76,7.6-5.45,11.46-5,11.36-7.95,21.44-9.14,30.82a57.7,57.7,0,0,0,.27,17.61,1.62,1.62,0,0,1-1.3,1.87,1.43,1.43,0,0,1-.29,0Z"/>
                <g class="cls-59">
                  <path class="cls-60" d="M205.4,709.74a1.59,1.59,0,0,0-1.93-1.19,1.61,1.61,0,0,0-1.18,2c2.1,8.7,1.06,20.17-2.77,30.65a172.37,172.37,0,0,1-7.79,17.24c-1.86,3.78-3.81,7.68-5.53,11.61-5.09,11.65-8.16,22-9.4,31.72a61.14,61.14,0,0,0,.3,18.58,1.61,1.61,0,0,0,1.58,1.34,1.43,1.43,0,0,0,.29,0,1.88,1.88,0,0,0,.42-.14c-7.63-10,4-43.93,8.67-52.42,4.81-8.78,12-24.87,14.19-30,.7-1.7,1.43-2.38,2.1-2.56C206.84,727.11,207.25,717.45,205.4,709.74Z"/>
                </g>
              </g>
              <path class="cls-57" d="M232.29,705.05c5.93,4.56,8.83,11.86,4,14.3s-6.92-.41-12.34-7.31S212.82,701.6,212,701.81l-.6.31s-.31-2.84,4.21-3.06"/>
              <path class="cls-57" d="M178.58,713.47s-7.33,10.75-.9,13.48,11.65-7.1,13.65-10.44S200,703.73,201,703.22c.74-.36.07-2.17-.2-2.56-1.4-2-4.16-.92-6.06-.23a31.2,31.2,0,0,0-7.6,4.1,40.1,40.1,0,0,0-3.92,3.24A24.86,24.86,0,0,0,178.58,713.47Z"/>
              <path class="cls-57" d="M209.2,702.73s.5-2.14,2.82-.92a32.85,32.85,0,0,1,14.45,18.86c3.41,11.66-1.61,14.5-4.81,14.5s-6.93-.41-6.93-10.95S209.2,703.73,209.2,702.73Z"/>
              <path class="cls-57" d="M204.28,705.46s1.32-4.07,3.62-4.16,3.71,2.83,5,8,3.32,12.67,3.32,16.43S214,737,209.3,737s-5.72-7.4-5.62-12.57,1.21-12.88,1.1-14.71S204.08,706.36,204.28,705.46Z"/>
              <path class="cls-57" d="M201,702.22c1-.9,2.23-1.43,3.2-.17,1.37,1.78.93,5.63.6,7.66-.6,3.76-4.31,26.57-14.05,25.15,0,0-5.22-2.23-2.41-12.27,2.06-7.37,6.12-12.85,11-18.54A16,16,0,0,1,201,702.22Z"/>
              <path class="cls-61" d="M196.69,700c-.24.24.86-.81,1.53.13s-.93,1.22.08,1.22,1.95-.76,1.58.22-.24,1.34.56,1.07,1.07-1.62-.4-2.64A2.53,2.53,0,0,0,196.69,700Z"/>
              <path class="cls-61" d="M201.51,701.81s1.33-.21,1.46.33.15-.67.74,0,1,.41,1.06.92S204.13,700.11,201.51,701.81Z"/>
              <path class="cls-61" d="M212.34,701.6a2,2,0,0,1,1.68-2,2.57,2.57,0,0,0-2.41,1.9c-.26.06-1.47,0-1.47.81.21.2.94-.81,1.88-.2S211.88,701.6,212.34,701.6Z"/>
            </g>
            <g>
              <g>
                <path class="cls-79" d="M273.75,845.25c.36,3.19.66,6.6,1.08,10h2.56c-.5-2.75-1.09-5.47-1.43-8.1q-1.51-11.76-2.17-23.65c-.81-14.51-1.34-29.06-1-43.61,0-1-1.21-.46-1.23.35-.42,14.6-.7,29.2.28,43.78Q272.59,834.64,273.75,845.25Z"/>
                <g>
                  <path class="cls-81" d="M285.18,813c-.68.11-1.29.79-1.95,1l.12-.28c.11-.23,0-.66-.25-.64a8.07,8.07,0,0,0-5.11,3.27,4.39,4.39,0,0,0,.07-.72c0-.34-.33-.19-.43,0-.56,1-1.39,1.76-1.92,2.82s-1,2.28-1.49,3.44a14.68,14.68,0,0,0-.9,3.16,1.33,1.33,0,0,0,.09.68,2.89,2.89,0,0,0,0,.29l-.07,0c-.15-.07-.29.23-.14.31l.11.1a.08.08,0,0,0,.05.06c0,.24,0,.48-.07.71a.36.36,0,0,0,.31.39,8,8,0,0,0,7.66-3.24,21,21,0,0,0,2.57-5.18,26.11,26.11,0,0,0,1.8-5.66C285.62,813.2,285.48,813,285.18,813Z"/>
                  <path class="cls-83" d="M282.75,816.07c-1.28,1.39-2.47,2.87-3.76,4.24a38.16,38.16,0,0,0-5.57,7.25.48.48,0,0,0,.14.05,8,8,0,0,0,7.66-3.24,21,21,0,0,0,2.57-5.18,26.11,26.11,0,0,0,1.8-5.66.59.59,0,0,0,0-.27A19.5,19.5,0,0,1,282.75,816.07Z"/>
                </g>
                <g>
                  <path class="cls-81" d="M257.29,799.44a24.86,24.86,0,0,0,3,5,18.34,18.34,0,0,0,3.58,4.27,7.57,7.57,0,0,0,8.12,1,.4.4,0,0,0,.22-.46l-.23-.68a.08.08,0,0,0,.05-.07.5.5,0,0,1,.08-.12c.13-.13-.07-.37-.2-.27l-.06,0a2.15,2.15,0,0,1-.1-.27,1.59,1.59,0,0,0-.06-.7,15.44,15.44,0,0,0-1.55-2.79c-.7-1-1.4-2-2.18-2.91s-1.71-1.34-2.47-2.18c-.13-.13-.49-.19-.42.16s.15.45.23.67a7.36,7.36,0,0,0-5.66-1.7c-.28,0-.25.49-.1.68s.12.16.18.24c-.69-.07-1.42-.54-2.11-.45C257.28,798.86,257.18,799.12,257.29,799.44Z"/>
                  <path class="cls-83" d="M260.59,801.08c1.54,1,3,2.07,4.55,3a33.73,33.73,0,0,1,6.94,5.43l-.12.09a7.57,7.57,0,0,1-8.12-1,18.34,18.34,0,0,1-3.58-4.27,24.86,24.86,0,0,1-3-5,.89.89,0,0,1,0-.27A17.49,17.49,0,0,0,260.59,801.08Z"/>
                </g>
              </g>
              <g>
                <path class="cls-80" d="M274.52,746.23c-.28-.29-1.64-.3-2-.28-.93.08-1.52-.48-2.37-.6s-1.41,1.13-2.07,1.39-1.33-.84-2-.46c-1.16.69-2.65.6-3.5,1.68a5.25,5.25,0,0,0-.65,2.93c-.95-.5-1.42-.25-2.49-.35-1.24-.11-1.25,1.44-.83,2.37a11.4,11.4,0,0,0,5.24,5.17,22.48,22.48,0,0,0,3.72,1.22,4.63,4.63,0,0,0,2.93.44.23.23,0,0,0,.17-.22c1.31-.46,2.16-2.39,2.62-3.9a19.89,19.89,0,0,0,1.27-5.23C274.67,749.29,275.3,747.07,274.52,746.23Z"/>
                <path class="cls-80" d="M289.56,754.84a3.53,3.53,0,0,0,.77-1.83c0-.86-.83-1.1-1.44-1a8.79,8.79,0,0,1-.87.15c-.59.07-.42-1.16-.42-1.47a2.36,2.36,0,0,0-.25-1.09c-.33-.77-1.48-.5-2-.4a3.17,3.17,0,0,0-1,.48c-1.15.62-.39-1.64-.34-1.84a2.19,2.19,0,0,0-.83-2.36c-1.12-.87-2.6.1-3.62.94-.73-1.27-1.65.65-2.2,2.2a34.39,34.39,0,0,0-1.75,4.54,19.63,19.63,0,0,0-1.31,4.67c-.39,4,4.95,2.64,6.83,2.46,3.06-.3,6.49-.64,9.22-2.42a2.72,2.72,0,0,0,1.45-2.06C291.78,754.82,290.32,755,289.56,754.84Z"/>
                <path class="cls-81" d="M278.67,766.57c-1.1,1.12-2,2.66-3,3.88a13.38,13.38,0,0,0,.56-2.5c.07-.69-.52-.66-.74-.18a23,23,0,0,1-2.37,3.86,12.79,12.79,0,0,1,.13-2.31,12.72,12.72,0,0,0,.46-2.9c0-.31-.28-.53-.49-.36a9.35,9.35,0,0,0-2.35,3.45,11.45,11.45,0,0,1-.66,1.25c-.35.61-.23-.25-.31-.78a5.18,5.18,0,0,0-.62-2.13c-.25-.35-.58-.05-.66.31-.18.7-.33,1.42-.48,2.13a9.62,9.62,0,0,0-1.46-2.54s0,0,0-.07a.1.1,0,0,0-.07-.06l-.07-.07c-.15-.21-.42.17-.36.39s.08.3.13.44.11.12.17.08l.18.33c.59,3.36.22,6.79.72,10.18.46,3.19,3.68,3.75,5.66,3.88s3.64-1.53,4.62-3.63a16.93,16.93,0,0,0,1.07-4.93c.21-1.61.5-3.27.56-4.93,0-.23,0-.48,0-.72a.86.86,0,0,0,0-.17c0-.11,0-.21,0-.31s-.14-.28-.27-.22a4.19,4.19,0,0,0,.29-.93C279.37,766.5,279,766.29,278.67,766.57Z"/>
                <path class="cls-82" d="M276.62,756.3a2.67,2.67,0,0,0-1.05-.1,3.7,3.7,0,0,1-1.5-.47c-1.05-.48-2,.18-3,.24a3.73,3.73,0,0,0-2.75.91,8.74,8.74,0,0,0-1.74,2.51,3.27,3.27,0,0,0,.43,3.89,3.49,3.49,0,0,0,.5.36c1,1.17,2.45,1.33,3.82,1.52a6.37,6.37,0,0,0,5.09-1.47C278.53,761.93,279.58,757.68,276.62,756.3Z"/>
                <path class="cls-80" d="M265.48,759.43c.08-.1.12-.3,0-.27a5,5,0,0,1-2.18-.52,20,20,0,0,0-2.25-.57,30.43,30.43,0,0,0-5-.42c-.87,0-2.26.05-2.74,1.07a1.91,1.91,0,0,0,.43,2.32c-.54.54-1.61,1.56-1.23,2.19.23.41.69.56,1,.83.8.59-.14,1.68-.35,2.36-.27.9-.47,1.82.37,2.31a4,4,0,0,0,1.67.21,14,14,0,0,0,2-.17c-.39,1-.08,1.82,1.19,1.92,2.18.18,4.48-1.08,6.32-2.26a6.5,6.5,0,0,0,3.24-5.09A3.52,3.52,0,0,0,265.48,759.43Z"/>
                <path class="cls-80" d="M277.85,769.56a8.86,8.86,0,0,0-3.78-6.48c-1.55-.94-3.51.1-5,1.41a18.11,18.11,0,0,0-1.63,1.53,15.45,15.45,0,0,0-2.67,3.72c-.73,1.32-2.62,4.16-2.17,5.94a1,1,0,0,0,1.25.8c.88-.1,1.35-.76,2.33-.4.49.17.83.72,1.32.92.84.35,1.35-.58,1.72-1.27.29-.52,1-1.09,1.38-.35.13.25.24.52.37.76a1.73,1.73,0,0,0,.89.86c1,.45,1.78-1.24,2.92-.72.74.36,1.76,1.68,2.64.86C279.29,775.39,278.2,771.84,277.85,769.56Z"/>
                <path class="cls-80" d="M290.16,760c-.6-1-1.73-.65-2.45-.5-1.48.31-3,.25-4.51.47-.94.13-1.87.27-2.8.49a9.19,9.19,0,0,0-1.87.49l-.46.06a2,2,0,0,0-1.63,1.66c-.24,1.56.78,3.31,1.11,4.73.48,2.08,1.21,4,1.8,6,.34,1.17.8,3,1.84,3,.67,0,.93-1.2.93-2,0-.61-.41-2,.38-1.54.46.26.9.73,1.39.8.73.07,1.21-.46,1.42-1.44a6.34,6.34,0,0,0-.12-1.84c-.11-1.1,1.67-.74,2.08-.69,1.44.13,3.59-.3,2.55-3.12-.29-.73-1-1.44-.29-2.08a5,5,0,0,0,1-1.42A3.07,3.07,0,0,0,290.16,760Z"/>
              </g>
            </g>
            <path class="cls-84" d="M107.93,901.71C84.28,914,51,907.78-40.27,885.33,14,892,38.21,892.89,45.06,890.42c-7.94-1.44-54-11.32-95.87-22.19,63.74,5.66,76.78,10.83,86.42,9-9.91-4.07-40.41-10.39-92.66-33C-4,857.06,39.71,865.33,46,863.5,28.62,860.13-9.13,837-46.83,818.05-6.48,831.38,50.64,854.91,55.25,853c-7.15-4.14-33.69-18.71-74.44-53.59,46.47,24.34,81.27,46,84.37,46.21C55.42,832.88,40.49,814.33,31.31,764c17.77,36.65,35.5,66.77,42.88,75.72,4.41-11.25,9.7-60.72,24.61-78.88,1.87,24.19-6,61.93,1,76.1,9.8-26.95,45.49-65.31,51.07-66-22.73,36.3-34.92,64.24-34.13,68.64,27-21.87,70.35-41.68,76.39-42.84C180.9,809.21,150.7,823.51,129.34,852c22.91-12.57,39.89-24.12,80.33-31.68-25.8,20-51.07,26-65.68,43.62,30.67-9.41,51.59-23,72.37-22.27C165.23,859.67,136.07,899.17,107.93,901.71Z"/>
            <g>
              <path class="cls-85" d="M52.22,903.67s-94.83,7.13-100-18,78.69-9,113.63,5.37c-109-72.71-51.45-29.8-83.51-56.14s-10.22-53,44.77-15.35C73.19,858.59,86.77,870,86.77,870S45.56,809.3,27.19,776s7.57-69.21,47.17-13.79c.65-22.12.66-24.3.66-24.3s-.11,33-1-5.21,34.38-27.71,29.83,30.5c13.78-25.64-5.15,4.61,16-23.48s57.52-18,34.6,36.83-15.64,39.08-15.64,39.08L122,850.67l54.92-48.5C215.43,773.05,238,786,197.79,833.31,170.88,859.87,147.72,881,147.72,881s26-9.75,67.81-27.53,50,19.14,1.43,35.56c-59.83,4.74-164.74,14.69-164.74,14.69"/>
              <g>
                <path class="cls-86" d="M116.17,881.86,207,798.61s-76.53,77.2-90.81,83.25"/>
                <path class="cls-86" d="M102,846.45l40.51-109.06S115.05,830.49,102,846.45"/>
                <path class="cls-86" d="M83.4,722.39S92.78,843.91,97.77,860c3.78-7.43-10.42-136.46-14.37-137.6"/>
                <path class="cls-86" d="M92.57,853.22S35.74,754,34.16,749.87s60.26,86.78,58.41,103.35"/>
                <path class="cls-86" d="M129.3,892.69s87.08-23.91,99.83-30.92-35.19,21.12-99.83,30.92"/>
                <path class="cls-86" d="M-15.3,817.19s87.86,69.66,98.77,74.94c0,0-90.24-75.92-98.77-74.94"/>
                <path class="cls-86" d="M62.57,897.59s-97.24-7.15-99.5-8.77,88.88,4.67,99.5,8.77"/>
                <path class="cls-86" d="M115,811.29l27.11-17.46s-24.22,9.69-27.11,17.46"/>
                <path class="cls-86" d="M121.48,794s-8.56-25.85-9.66-28.62,10.76,17.21,9.66,28.62"/>
                <path class="cls-86" d="M130.32,776.34s25.48-16,25.42-19.24-22.06,16.36-25.42,19.24"/>
                <path class="cls-86" d="M129.7,767.51l-7.22-21.18s9.28,11.31,7.22,21.18"/>
                <path class="cls-86" d="M133.07,866.37s8.75-28.2,12-31.3-9.67,26.51-12,31.3"/>
                <path class="cls-86" d="M150.62,853.38l33.49-13s-18.64,2.45-33.49,13"/>
                <path class="cls-86" d="M176.72,826.35s-.06-18.62,2.74-21.68.14,19-2.74,21.68"/>
                <path class="cls-86" d="M188.59,816.91l21.66-8.43s-6.66,6.29-21.66,8.43"/>
                <path class="cls-86" d="M178.81,878.57s21.5-15.67,28.24-17.64-14.2,10.93-28.24,17.64"/>
                <path class="cls-86" d="M189.67,877.78s35.47-.58,40.37-3-34.92,1.16-40.37,3"/>
                <path class="cls-86" d="M160.05,886.5l34.8,1.38s-23.3-4-34.8-1.38"/>
                <path class="cls-86" d="M94.23,796c-.15-1.47,9.43-17.66,9.43-17.66s-6.42,2.37-9.58,16.19"/>
                <path class="cls-86" d="M87.67,781.64S78.35,766.89,78,767.55s7.93,2.66,9.71,14.09"/>
                <path class="cls-86" d="M90.31,761.52l5.25-22.31s-7,8.16-5.25,22.31"/>
                <path class="cls-86" d="M72.35,808.5s-2.52-31.56-2.31-33-4.29,16.93,2.31,33"/>
                <path class="cls-86" d="M52.64,776.72s-5.31-16.84-4.46-23.07,5,17.51,4.46,23.07"/>
                <path class="cls-86" d="M58.19,792.93l-21.71-9.69a37.85,37.85,0,0,1,21.71,9.69"/>
                <path class="cls-86" d="M78.07,827.85l-20.76-5.32s12.85-.29,20.76,5.32"/>
                <path class="cls-86" d="M8.51,832S-4.18,816.31-5.32,812.32,6,820.48,8.51,832"/>
                <path class="cls-86" d="M23.84,847.9l-27.07-5.15a60,60,0,0,1,27.07,5.15"/>
                <path class="cls-86" d="M37.44,854.41c.06.05-7.62-13-6.81-19.87s4.07,13.75,6.87,19.92"/>
                <path class="cls-86" d="M56.05,869.45s-6-15.71-5.95-21,8.27,14.74,5.95,21"/>
                <path class="cls-86" d="M3.54,877.38,32.21,893.2S20.9,892,3.54,877.38"/>
                <path class="cls-86" d="M16.2,894s-25.13,6.83-30.77,7.1S.18,894.84,16.2,894"/>
              </g>
            </g>
            <path class="cls-87" d="M1012.73,947.08c-23.65,12.32-56.91,6.07-148.19-16.38,54.24,6.67,78.47,7.56,85.33,5.09-8-1.44-54-11.32-95.88-22.19,63.74,5.66,76.78,10.83,86.42,9-9.91-4.06-40.41-10.39-92.66-33,53.07,12.79,96.77,21.06,103,19.23-17.37-3.36-55.12-26.49-92.81-45.45,40.34,13.33,97.46,36.87,102.07,34.9-7.14-4.14-33.68-18.71-74.44-53.59,46.47,24.34,81.27,46,84.37,46.21-9.75-12.69-24.69-31.23-33.86-81.61C953.88,846,971.61,876.09,979,885c4.41-11.25,9.7-60.72,24.61-78.88,1.87,24.19-6,61.93,1,76.1,9.8-27,45.5-65.3,51.07-66-22.73,36.29-34.91,64.23-34.13,68.63,27-21.87,70.36-41.68,76.4-42.84-12.27,12.53-42.46,26.82-63.83,55.28,22.92-12.56,39.89-24.12,80.33-31.68-25.79,20-51.07,26-65.68,43.62,30.68-9.4,51.59-23,72.37-22.27C1070,905,1040.87,944.54,1012.73,947.08Z"/>
            <path class="cls-88" d="M1925.73,928.08c-23.65,12.32-56.91,6.07-148.19-16.38,54.24,6.67,78.47,7.56,85.33,5.09-7.95-1.44-54-11.32-95.88-22.19,63.74,5.66,76.78,10.83,86.42,9-9.91-4.06-40.41-10.39-92.66-33,53.07,12.79,96.77,21.06,103,19.23-17.37-3.36-55.12-26.49-92.81-45.45,40.34,13.33,97.46,36.87,102.07,34.9-7.14-4.14-33.68-18.71-74.44-53.59,46.47,24.34,81.27,46,84.37,46.21-9.75-12.69-24.69-31.23-33.86-81.61C1866.88,827,1884.61,857.09,1892,866c4.41-11.25,9.7-60.72,24.61-78.88,1.87,24.19-6,61.93,1,76.1,9.8-27,45.5-65.3,51.07-66-22.73,36.29-34.91,64.23-34.13,68.63,27-21.87,70.36-41.68,76.4-42.84-12.27,12.53-42.46,26.82-63.83,55.28,22.92-12.56,39.89-24.12,80.33-31.68-25.79,20-51.07,26-65.68,43.62,30.68-9.4,51.59-23,72.37-22.27C1983,886,1953.87,925.54,1925.73,928.08Z"/>
            <g>
              <path class="cls-79" d="M549.18,895.82l2.55.94c6.87-16.36,12.6-33.17,18.2-50,.34-1.07-1-2.36-1.44-1C562.79,862.69,556.16,879.33,549.18,895.82Z"/>
              <g>
                <g>
                  <path class="cls-80" d="M580.06,806.58c-.81,2.53-.7,4.79-.84,7.41-.11,2.18.09,5.09,1.56,6.32a.41.41,0,0,0,.13.39c1.23.9,2.51.75,4,.82a30.5,30.5,0,0,0,5.4.2,15.64,15.64,0,0,0,9.25-4.18c1-1,1.7-3,0-3.46-1.43-.4-1.92-1-3.41-.76.36-1.22,1-2.71.55-4.1-.58-1.82-2.56-2.44-3.72-3.87-.64-.79-2,.31-2.77-.34s-1-2.6-2-2.81c-1.16-.24-2.21.21-3.38-.36-.42-.2-2.19-.84-2.7-.58C580.75,802,580.53,805.17,580.06,806.58Z"/>
                  <path class="cls-80" d="M555.28,805.38a3.74,3.74,0,0,0,.92,3.37c2.69,3.62,7,5.71,10.82,7.58,2.35,1.14,8.6,5.52,10,.09a28.3,28.3,0,0,0,.48-6.67,47.38,47.38,0,0,0-.12-6.75c0-2.26-.25-5.2-1.79-3.91-1-1.58-2.4-3.55-4.27-3a3,3,0,0,0-2.19,2.63c0,.29-.11,3.6-1.31,2.23a4.7,4.7,0,0,0-1.08-1.1c-.68-.39-2-1.28-2.83-.45a3,3,0,0,0-.83,1.28c-.14.42-.52,2.07-1.24,1.72-.35-.19-.71-.4-1.06-.61a1.52,1.52,0,0,0-2.34.59,5.13,5.13,0,0,0,.12,2.74C557.54,805,555.74,804.08,555.28,805.38Z"/>
                  <path class="cls-81" d="M566.19,825.91a6.79,6.79,0,0,0-.06,1.34c-.14-.13-.35-.13-.47.18,0,.12-.09.25-.14.39a.62.62,0,0,0-.12.19c-.12.33-.2.65-.29,1-.7,2.19-1.13,4.49-1.61,6.69a23.62,23.62,0,0,0-.93,6.91c.28,3.19,1.58,6.12,4.29,6.92s7,1.62,9.17-2.3c2.24-4.16,3.39-8.79,5.73-12.87a4.23,4.23,0,0,1,.4-.34c.05.1.16.14.25,0s.25-.35.39-.52,0-.87-.3-.68a.76.76,0,0,1-.13.07s-.06,0-.11,0,0,.06-.07.09a13.52,13.52,0,0,0-3.1,2.59c.15-1,.29-2,.4-3,0-.5-.24-1.06-.71-.72a7.18,7.18,0,0,0-1.84,2.47c-.34.64-.57,1.81-.76.86-.12-.64-.2-1.28-.26-1.94a13.11,13.11,0,0,0-1.42-5.61c-.2-.32-.63-.16-.79.23a16.29,16.29,0,0,0-.78,4,19,19,0,0,1-.93,3.06,32,32,0,0,1-1.25-6.14c0-.73-.81-1.08-1-.12a18.57,18.57,0,0,0-.46,3.51c-.77-2.08-1.19-4.51-2.07-6.49C566.94,825.14,566.31,825.22,566.19,825.91Z"/>
                  <path class="cls-82" d="M571.48,823a9,9,0,0,0,5.92,4.34c1.87.42,3.84.91,5.68-.13a5.17,5.17,0,0,0,.83-.24c1.82-.76,2.58-2.77,2.38-4.84a12.42,12.42,0,0,0-1.07-4.08,5.28,5.28,0,0,0-3.13-2.52c-1.36-.57-2.24-1.88-3.83-1.76a5.06,5.06,0,0,1-2.16-.11,3.7,3.7,0,0,0-1.42-.38C570.2,813.67,569.54,819.68,571.48,823Z"/>
                  <path class="cls-80" d="M582.59,826.6a9,9,0,0,0,1.78,8.18c1.84,2.41,4.22,5.14,7.14,6,1.71.48,2.49-.41,2.46-1.92a16.13,16.13,0,0,0,2.56,1.2,5.2,5.2,0,0,0,2.25.53c1.34-.24,1.51-1.51,1.6-2.81,0-1-.67-2.86.65-3.24a4.16,4.16,0,0,0,1.74-.57c.79-.65-.11-2.47-.57-3.43a2.63,2.63,0,0,0,1.66-2.8c-.15-1.55-1.9-2.36-3.06-2.72a42.06,42.06,0,0,0-6.72-1.86,24.33,24.33,0,0,0-3.19-.36,6.86,6.86,0,0,1-3.09-.39c-.17-.06-.2.2-.13.34A4.86,4.86,0,0,0,582.59,826.6Z"/>
                  <path class="cls-80" d="M563.8,839.94c.77,1.49,2.69.27,3.85.17,1.72-.13,2,2.46,3.44,2.34a2.61,2.61,0,0,0,1.57-.68c.29-.27.55-.55.84-.81.86-.78,1.49.28,1.61,1.12.16,1,.38,2.51,1.63,2.46.74,0,1.43-.56,2.14-.55,1.46,0,1.75,1.09,2.85,1.63a1.36,1.36,0,0,0,2-.43c1.43-2.1.29-6.67,0-8.76a20.92,20.92,0,0,0-1.71-6.09,17.64,17.64,0,0,0-1.4-2.78c-1.3-2.43-3.35-4.7-5.81-4.23-3.41.64-6.15,3.29-7.95,6.57C565.29,832.71,562.2,836.79,563.8,839.94Z"/>
                  <path class="cls-80" d="M553.45,815.55a6.54,6.54,0,0,0,.58,2.3c.58,1.15-.66,1.75-1.35,2.55-2.7,3.17-.1,4.77,1.82,5.27.56.16,3,.53,2.37,1.91a8.73,8.73,0,0,0-1,2.34c-.19,1.36.18,2.29,1.17,2.53a6.84,6.84,0,0,0,2.18-.35c1.24-.17,0,1.39-.24,2.18-.37,1-.59,2.72.27,3,1.37.45,2.82-1.67,3.83-3,1.71-2.33,3.58-4.5,5.17-7,1.11-1.7,3.24-3.47,3.68-5.59a2.69,2.69,0,0,0-1.34-2.93c-.18-.12-.37-.22-.55-.32a12.44,12.44,0,0,0-2.21-1.53c-1.09-.75-2.25-1.37-3.41-2-1.84-1-3.84-1.65-5.6-2.77-.87-.55-2.21-1.49-3.43-.54A4.27,4.27,0,0,0,553.45,815.55Z"/>
                </g>
                <path class="cls-89" d="M584.16,820.5c.74.4.34,2.07-.56,1.57C582.86,821.69,583.27,820,584.16,820.5Z"/>
              </g>
            </g>
            <g>
              <path class="cls-90" d="M603.45,876.13s8.64-5.89,25.32-7.35-17.91-7.73-30.26,7.35C598.51,876.13,593,882.83,603.45,876.13Z"/>
              <path class="cls-91" d="M580,877s25.32-18.84,40.14-23.87-14.2-5.44-34,10.26C586.16,863.35,576.28,872.78,580,877Z"/>
              <path class="cls-92" d="M572.57,877s16.82-30.57,24.47-34.33-12.12-5.87-24.47,19C572.57,861.68,567.63,874.87,572.57,877Z"/>
              <path class="cls-93" d="M563.62,877s6.48-28.05,12.66-32.24S552.81,849.33,563.62,877Z"/>
              <path class="cls-94" d="M559.91,877s.31-23.37-13-27S554.66,865.24,559.91,877Z"/>
              <path class="cls-95" d="M555.59,877s-8.34-26.78-28.71-27.42S542.93,859.38,555.59,877Z"/>
              <path class="cls-96" d="M553.84,877s-10.91-10.88-29.43-10.05S549.31,873.61,553.84,877Z"/>
            </g>
          </g>
        </g>
      </g>
    </g>
  </g>
</svg>
