<svg id="Layer_1" data-name="Layer 1" xmlns="http://www.w3.org/2000/svg" width="512" height="512" viewBox="0 0 512 512">
  <defs>
    <style>
      .cls-1 {
        fill: #e84f4f;
      }
    </style>
  </defs>
  <path class="cls-1" d="M321,231.89h0c9.46-4.49,34.62-55.52,31.78-81.85a84.43,84.43,0,0,0-6.43-28.63,116.45,116.45,0,0,0-12-28.17H296.94a39.6,39.6,0,0,1,8.18,6.1c7.44,7.44,11.23,26.17,12.85,39.14,1.88,15.06,1.88,42.36-17.24,62.85a31.71,31.71,0,0,1-21.63,13.52q-17.6,2.7-31.44,4.39a190.1,190.1,0,0,1-22,1.69,10.17,10.17,0,0,0-11.5,8.62,10.68,10.68,0,0,0,0,2.88q0,4.73,12.85,18.93t17.58,14.19c3.6,0,32.22-9.7,58.58-9.7,49.34,38.2,51.25,81.76,23,109.87-10.61,10.73-27.31,16.95-53.22,15.18a84.62,84.62,0,0,1-56.95-24.59c-17.81-16.45-52.38-68.3-68.15-103.91l-18.25,10.14c19.83,43,54.89,101.29,78.11,123.26s48.56,33,76.06,33q40.56,0,65.91-22.35a99.88,99.88,0,0,0,26.13-109.17C371.66,275.12,350.92,242.28,321,231.89Z"/>
</svg>
