<svg id="Layer_1" data-name="Layer 1" xmlns="http://www.w3.org/2000/svg" width="512" height="512" viewBox="0 0 512 512">
  <defs>
    <style>
      .cls-1 {
        fill: #8d8e8d;
      }
    </style>
  </defs>
  <path class="cls-1" d="M308.88,252.55h0c9.46-4.49,34.62-55.52,31.77-81.85a84.53,84.53,0,0,0-6.42-28.63,116.18,116.18,0,0,0-12-28.16h80.21l-.53-41.33H109.59l0,41.33h175.2A39.61,39.61,0,0,1,293,120c7.43,7.44,11.22,26.17,12.84,39.14,1.89,15.06,1.89,42.37-17.24,62.85A31.63,31.63,0,0,1,267,235.51q-17.58,2.72-31.44,4.4a192.17,192.17,0,0,1-22,1.69,10.15,10.15,0,0,0-11.49,8.61,9.93,9.93,0,0,0,0,2.88q0,4.74,12.84,18.93t17.58,14.2c3.6,0,32.23-9.71,58.59-9.71,49.34,38.2,51.25,81.77,23,109.88-10.61,10.73-27.3,16.94-53.21,15.17A84.6,84.6,0,0,1,203.94,377c-17.81-16.45-52.38-68.29-68.15-103.91l-18.26,10.15c19.83,43,54.89,101.28,78.11,123.25s48.56,33,76.06,33q40.56,0,65.92-22.35A99.91,99.91,0,0,0,363.75,307.9C359.53,295.78,338.8,262.94,308.88,252.55Z"/>
</svg>
