<?xml version="1.0" encoding="UTF-8"?><svg id="a" xmlns="http://www.w3.org/2000/svg" viewBox="0 0 198.78 163.4"><defs><style>.b{fill:#fff;}.c{fill:#004c60;}.d{opacity:.5;}.e{fill:#f9fdfe;}.f{fill:#78c7f9;}.g{fill:#286fa1;}.h{fill:#b8eef4;}.i{fill:#529ecf;}.j{fill:#01213d;}.k{fill:#6ab8df;}.l{fill:none;stroke:#014656;stroke-miterlimit:10;}.m{fill:#a2d8ea;}.n{fill:#5cafdf;}.o{fill:#d4f2ff;}.p{fill:#327ea8;}.q{fill:#99cadd;}.r{fill:#307cb5;}.s{fill:#0f4b7d;}.t{fill:#d3e9ef;}.u{fill:#8dc1d8;}.v{fill:#4591af;}</style></defs><path class="d" d="M101.89,160.4c-1.52,0-2.96-.69-3.91-1.89L9.09,46.8c-1.43-1.79-1.45-4.32-.07-6.14L25.49,19.03c.48-.63,1.11-1.14,1.83-1.49l19.06-9.06c.67-.32,1.4-.48,2.15-.48h106.67c.74,0,1.47,.16,2.14,.48l19.12,9.06c.72,.34,1.35,.85,1.84,1.49l16.47,21.62c1.39,1.82,1.36,4.35-.07,6.14l-88.89,111.71c-.95,1.19-2.39,1.89-3.91,1.89Z"/><path class="b" d="M96.89,155.4c-1.52,0-2.96-.69-3.91-1.89L4.09,41.8c-1.43-1.79-1.45-4.32-.07-6.14L20.49,14.03c.48-.63,1.11-1.14,1.83-1.49L41.37,3.48c.67-.32,1.4-.48,2.15-.48h106.67c.74,0,1.47,.16,2.14,.48l19.12,9.06c.72,.34,1.35,.85,1.84,1.49l16.47,21.62c1.39,1.82,1.36,4.35-.07,6.14l-88.89,111.71c-.95,1.19-2.39,1.89-3.91,1.89Z"/><g><polygon class="e" points="150.19 38.68 169.32 17.06 150.19 8 124.57 17.06 150.19 38.68"/><line class="u" x1="69.21" y1="17.06" x2="96.89" y2="8"/><polygon class="k" points="150.19 8 96.89 8 124.57 17.06 150.19 8"/><polygon class="h" points="96.99 38.68 96.99 38.68 124.57 17.06 96.89 8 69.21 17.06 96.99 38.68"/><polygon class="p" points="185.78 38.68 150.19 38.68 169.32 17.06 185.78 38.68"/><polygon class="s" points="43.52 38.68 69.21 17.06 43.52 8 24.47 17.06 43.52 38.68"/><polyline class="j" points="8 38.68 24.47 17.06 43.52 38.68 8 38.68"/><polygon class="k" points="43.52 8 96.89 8 69.21 17.06 43.52 8"/><polygon class="v" points="43.52 38.68 62.32 38.68 69.21 17.06 43.52 38.68"/><polygon class="i" points="69.21 17.06 62.32 38.68 96.99 38.68 69.21 17.06"/><polygon class="q" points="96.99 38.68 131.49 38.68 124.57 17.06 96.99 38.68"/><polygon class="m" points="124.57 17.06 131.49 38.68 150.19 38.68 124.57 17.06"/><polygon class="o" points="185.78 38.68 150.19 38.68 112.29 118.12 185.78 38.68"/><polygon class="g" points="112.29 118.12 96.89 150.4 185.78 38.68 112.29 118.12"/><polygon class="r" points="81.47 118.12 43.52 38.68 8 38.68 81.47 118.12 81.47 118.12"/><polygon class="c" points="81.47 118.12 8 38.68 96.89 150.4 81.47 118.12 81.47 118.12"/><polygon class="i" points="112.29 118.12 150.19 38.68 131.49 38.68 112.29 118.12 112.29 118.12"/><polygon class="k" points="81.47 118.12 43.52 38.68 62.29 38.68 81.47 118.12 81.47 118.12"/><polygon class="f" points="112.29 118.12 96.99 38.68 81.47 118.12 96.89 150.4 112.29 118.12 112.29 118.12"/><polygon class="n" points="131.49 38.68 96.99 38.68 96.99 38.68 96.99 38.68 112.29 118.12 131.49 38.68"/><polygon class="t" points="62.29 38.68 96.99 38.68 96.99 38.68 96.99 38.68 81.49 118.12 62.29 38.68"/><path class="l" d="M169.32,17.06l-19.12-9.06H43.52l-19.06,9.06L8,38.68l88.89,111.71L185.78,38.68l-16.47-21.62ZM81.47,118.12"/></g></svg>