<?xml version="1.0" encoding="utf-8"?>
<!-- Generator: Adobe Illustrator 26.2.1, SVG Export Plug-In . SVG Version: 6.00 Build 0)  -->
<svg version="1.1" id="a" xmlns="http://www.w3.org/2000/svg" xmlns:xlink="http://www.w3.org/1999/xlink" x="0px" y="0px"
	 viewBox="0 0 273.5 259.8" style="enable-background:new 0 0 273.5 259.8;" xml:space="preserve">
<style type="text/css">
	.st0{opacity:0.5;}
	.st1{fill:#FFFFFF;}
	.st2{fill:#F4EAE1;}
	.st3{fill:#F4EAE1;stroke:#ADADAD;stroke-miterlimit:10;}
	.st4{fill:#DFA56C;}
	.st5{fill:#FDCF94;stroke:#420500;stroke-miterlimit:10;}
	.st6{fill:#F68669;}
	.st7{fill:#A95855;stroke:#420500;stroke-miterlimit:10;}
	.st8{opacity:0.11;fill:#42210B;}
	.st9{fill:#7C5E57;}
	.st10{fill:#FED095;stroke:#420500;stroke-miterlimit:10;}
	.st11{opacity:7.000000e-02;}
	.st12{opacity:0.11;fill:#2D1B0C;}
	.st13{fill:#984D4D;}
	.st14{fill:#BEB0A4;}
	.st15{fill:#E4D9D0;stroke:#420500;stroke-miterlimit:10;}
	.st16{fill:#603813;}
	.st17{fill:#381911;}
	.st18{fill:#FD9978;stroke:#874441;stroke-miterlimit:10;}
	.st19{fill:#FD9978;}
	.st20{fill:#4F372D;}
	.st21{opacity:0.12;fill:#FFFFFF;}
	.st22{opacity:0.11;fill:#160F0D;}
	.st23{fill:#E15D4E;stroke:#420500;stroke-miterlimit:10;}
	.st24{fill:#2D1B0C;}
	.st25{opacity:0.5;fill:#F68669;}
	.st26{fill:#6C332E;}
	.st27{fill:#422E26;}
	.st28{fill:#592A25;}
	.st29{fill:url(#XMLID_00000103231953942870123060000017940560740455986577_);}
	.st30{opacity:0.8;fill:#FFFFFF;}
	.st31{fill:url(#XMLID_00000061463566710557484280000014196278762687493309_);}
	.st32{opacity:0.2;}
	.st33{opacity:0.24;fill:#FFFFFF;}
	.st34{fill:#D1D1E1;stroke:#898989;stroke-width:0.25;stroke-miterlimit:10;}
</style>
<g>
	<g class="st0">
		<path d="M221.5,181.5c-0.8-5.2-1.9-10.6-3.1-16.1c-0.3-1.3-0.8-2.8-1.3-4.4c-0.4-1.3-0.9-2.7-1.2-4c-0.1-0.6-0.3-1.1-0.3-1.5
			c-0.2-1-0.1-1.4-0.1-1.5c0.9-2.5,0.6-5-0.8-6.8c0.1-0.8,0-1.6-0.2-2.5c-0.3-1.2-0.9-2.3-1.8-3.2c0-0.4,0.1-0.8,0-1.2
			c-0.3-3.4-3-5-4.2-5.6c-0.3-0.4-0.8-1.5-1.2-2.3l-0.5-1.2l-0.4-0.8l-0.2-0.4c-0.1-0.2-0.2-0.3-0.3-0.5l-0.2-0.3
			c1-1.4,1.3-3.2,0.9-4.9c0.5-0.5,1-1.2,1.4-1.8c0.6-1.1,0.8-2.4,0.6-3.6c0.9-1.8,1.1-3.9,0.6-5.8c0.2-1,0.2-2-0.1-3.2
			c-0.3-1.4-0.7-2.7-1.4-4c-0.1-0.2-0.2-0.3-0.3-0.5c0-0.5-0.1-1-0.1-1.5c-0.2-1.7-1.2-3.1-2.7-3.9l-0.5-1.2
			c-0.7-1.6-2.1-2.8-3.8-3.1c-0.2,0-0.4-0.1-0.6-0.1c-0.8-1.1-2.1-1.8-3.5-2c-0.1,0-0.1,0-0.2,0l-0.6-0.7c-1-1.1-2.3-1.7-3.7-1.7
			c-0.2,0-0.3,0-0.5,0l0,0c-0.9-0.7-1.9-1.1-2.9-1.1c-0.6-0.6-1.4-1.1-2.3-1.3c-0.4-0.1-0.8-0.1-1.2-0.1c-0.5,0-1,0.1-1.5,0.2
			c-0.2-0.1-0.5-0.3-0.7-0.4c-0.6-0.3-1.3-0.4-2-0.4c-0.4,0-0.8,0.1-1.2,0.2c0,0,0,0,0,0c-0.9-0.7-1.9-1-3-1c0,0,0,0,0,0
			c0.6-3.6,1.2-8.9,1.2-9.2c0.1-0.8,0.2-1.6,0.3-2.5l0.1-1.3c0.1-0.8,0.2-1.7,0.2-2.5c0.1-1.3,0.2-2.5,0.3-3.6
			c0.1-1.2,0.1-2.3,0.2-3.3c0-0.7,0-1.4,0-2c0-2.1-0.1-3.4-0.5-4.5c-0.3-1-0.8-1.9-1.4-2.8c-0.1-3.2-0.5-6.3-1.4-9.2
			c-0.1-0.5-0.3-0.9-0.4-1.4c-0.3-0.9-0.6-1.8-1-2.7c-0.2-0.4-0.4-0.9-0.6-1.3c-0.9-2-2-4-3.3-5.8c-0.5-0.7-1-1.4-1.5-2.1
			c-1-1.3-2.1-2.5-3.2-3.7c-0.3-0.3-0.6-0.6-0.8-0.8c-0.4-0.4-0.8-0.7-1.2-1.1c0.8-1.8,1.3-3.7,1.4-5.7c0.1-2.7-0.5-5.5-1.9-7.8
			c-1.5-2.7-3.9-4.9-6.9-6.4c-2.4-1.2-5.2-1.8-8-1.8c-1.1,0-2.3,0.1-3.4,0.3c-4.9,0.9-9.2,3.7-11.8,7.7c-0.6,0.9-1.1,1.9-1.5,2.9
			c-0.6,1.6-0.9,3.2-1,4.8c0,0.8,0,1.6,0.1,2.3c-2.5,1.2-4.8,2.6-7,4.1c-1.4,1-2.8,2-4.1,3c-5.5,4.5-9.6,9.8-12.2,15.8
			c-0.4,0.9-0.8,1.9-1.1,2.9c-0.2,0.5-0.3,0.9-0.4,1.4c-0.2,0.8-0.5,1.7-0.6,2.5c-0.2,0.7-0.3,1.4-0.4,2.1c-0.1,0.1-0.4,0.6-0.4,0.6
			c-0.2,0.2-0.3,0.5-0.5,0.7l-0.1,0.1c-0.1,0.2-0.3,0.4-0.4,0.6l-0.1,0.3c-0.1,0.2-0.2,0.4-0.3,0.6l-0.1,0.2
			c-0.1,0.2-0.2,0.4-0.3,0.6c0,0-0.1,0.2-0.1,0.2c-0.1,0.3-0.2,0.6-0.3,0.8c-0.2,0.5-0.3,1-0.5,1.6c-0.2,1-0.4,2.1-0.6,3.4
			c-0.1,0.6-0.1,1.2-0.2,1.9c-0.2,1.8-0.3,3.8-0.4,6c-0.1,1.9-0.1,3.9-0.1,5.9c0,0.9,0,1.8,0,2.7l0,0.8c0,0.5,0,1,0,1.5
			c0.1,2.3,0.2,3,0.2,3.3c0.1,0.9,0.4,1.7,0.9,2.7c0,0,0,0,0,0c-0.4-0.1-0.8-0.1-1.2-0.1c-1,0-1.9,0.3-2.8,0.8
			c-0.6,0.4-1.1,0.8-1.6,1.2c-0.3-0.1-0.7-0.1-1-0.1c-0.1,0-0.1,0-0.2,0c-1.5,0-2.9,0.7-3.8,1.8c0,0-0.2,0-0.2,0
			c-1.9,0.1-3.6,1.2-4.4,3c-0.1,0.2-0.2,0.4-0.3,0.6c-0.5,0.3-1,0.7-1.4,1.2c-0.8,0.3-1.5,0.7-2,1.4c-0.5,0.2-0.9,0.4-1.3,0.7
			c-0.7,0.5-1.2,1.2-1.5,1.9c-1.1,0.5-1.9,1.3-2.4,2.4c-0.3,0.3-0.6,0.8-0.9,1.3c-0.4,0.3-0.8,0.7-1.1,1.2c-0.7,1-0.9,2.3-0.8,3.4
			c0,0,0,0-0.1,0.1c-0.7,1-1.1,2.2-1,3.4c0,0,0,0.1,0,0.1c-0.4,0.7-0.7,1.4-0.7,2.2c-0.1,1-0.3,3.1,0.7,5.1c-0.2,1.8,0.4,3.6,1.4,5
			c0,0.2,0.1,0.4,0.2,0.6c-0.2,0.3-0.4,0.5-0.5,0.8c-0.2,0.2-0.3,0.5-0.4,0.8l-0.1,0.2c-0.1,0.1-0.2,0.3-0.2,0.4l-0.3,0.6
			c-0.3,0.5-0.5,1-0.7,1.3c-0.2,0.3-0.3,0.5-0.5,0.7c-0.2,0.1-0.5,0.2-0.8,0.4c-3,1.5-4.4,5-3.6,8.6c-0.7,0.7-1.4,1.5-1.9,2.4
			c-0.1,0.1-0.1,0.2-0.2,0.3c-0.1,0.1-0.1,0.2-0.2,0.3c-0.5,0.9-0.8,1.8-1,2.8c-0.1,0.1-0.2,0.1-0.3,0.2c-0.2,0.1-0.4,0.3-0.5,0.4
			c-0.1,0.1-0.2,0.2-0.3,0.3c-0.2,0.2-0.4,0.4-0.5,0.6c-0.1,0.1-0.2,0.2-0.3,0.4c-0.1,0.2-0.3,0.5-0.5,0.8c-1.3,2.4-0.8,4.7-0.5,6
			c0,0.2,0.1,0.4,0.1,0.6c-0.1,1.1-0.8,2.7-1.5,4.2c-0.4,0.9-0.8,1.9-1.2,2.9c-2.5,7-4.3,13.3-5.8,19.1l-0.2,0.9
			c-2.2,8.9-5.4,22.4,0.5,31.9c3,4.8,10.8,7,25,7c1,0,2,0,3.1,0c0,0.5-0.2,3.8-0.2,3.8c-0.2,3.2-0.4,6.4-0.5,9.7
			c0,0.1-0.1,2.1-0.1,2.1c-0.2,3.2-0.3,6.5-0.4,9.7c0,0-0.2,4.9-0.2,6.3c-0.1,1.4,0.5,2.7,1.4,3.7c0.9,1,2.2,1.5,3.6,1.5H194
			c2.7,0,4.9-2.2,5-4.9c0-1.7,0.1-7.2,0.1-7.2c0-3,0.1-6.2,0.1-9.3l0-1.8c0-2.4,0-4.8,0.1-7.3c2.9-0.4,4.1-0.8,4.9-1.1
			c8.3-3.2,15.4-11.8,18.4-22.5c1.8-6.5,0.5-14-0.6-20.1C221.9,183.6,221.7,182.5,221.5,181.5z"/>
		<path d="M19.5,166.5c-1-8,2-16.4,7.9-21.8c0.7-0.6,1.4-1.2,2.2-1.9c3.1-2.7,6.7-5.7,8.1-10.5c0.8-2.7,0.7-5.2,0.6-7.5
			c-0.1-1.4-0.1-2.8,0.1-3.9c0.3-1.6,1.5-3.2,2.9-3.9l0.1-0.1c1.2-0.6,4.5-2.3,4.7-6.2c0.1-1.7-0.5-3.4-1.7-4.7
			c-1.3-1.4-3.1-2.2-5-2.3l-0.3,0c-7.9,0-12,8.6-13,15.9c-0.1,0.8-0.2,1.7-0.3,2.5c-0.4,2.9-0.7,5.6-1.8,7.6
			c-0.8,1.4-2.3,2.7-3.8,4.1c-0.7,0.6-1.3,1.2-1.9,1.8c-8.5,8.2-13,20-12,31.8c0.5,5.8,2.4,10.3,5.8,13.2c0.9,0.8,2.1,1.2,3.3,1.2
			c0.5,0,1.1-0.1,1.6-0.3c1.7-0.6,2.9-2,3.3-3.7c0.2-1.2,0.4-2.5,0.3-3.8c0-1.8-0.3-3.5-0.6-5.2C19.7,167.9,19.6,167.2,19.5,166.5z"
			/>
		<path d="M58.4,130.9c0.8-2.8,0.7-5.4,0.6-7.8c-0.1-1.5-0.1-3,0.1-4.1c0.4-1.8,1.6-3.4,3.2-4.3l0.1-0.1c1.2-0.6,4.6-2.4,4.8-6.2
			c0.1-1.7-0.5-3.4-1.7-4.8c-1.3-1.4-3.2-2.3-5.1-2.3l-0.3,0c-8.1,0-12.3,8.9-13.4,16.5c-0.1,0.9-0.2,1.7-0.3,2.6
			c-0.4,3.1-0.7,6-2,8c-0.9,1.5-2.4,2.9-4.1,4.3c-0.7,0.6-1.4,1.2-2,1.9c-8.9,8.5-13.5,20.9-12.5,33.1c0.5,6,2.5,10.6,6,13.6
			c0.9,0.8,2.1,1.2,3.3,1.2c0.5,0,1.1-0.1,1.6-0.3c1.7-0.6,2.9-2,3.3-3.7c0.3-1.2,0.4-2.5,0.3-4c0-1.9-0.3-3.7-0.6-5.4
			c-0.1-0.8-0.2-1.5-0.3-2.3c-1-8.5,2.2-17.3,8.4-23.1c0.7-0.7,1.5-1.3,2.3-2C53.3,139.1,57,135.9,58.4,130.9z"/>
		<path d="M260.4,135.5c-0.6-0.6-1.3-1.2-1.9-1.8c-1.5-1.4-3-2.7-3.8-4.1c-1.2-1.9-1.5-4.7-1.8-7.6c-0.1-0.8-0.2-1.7-0.3-2.5
			c-1.1-7.3-5.1-15.9-13-15.9l-0.3,0c-1.9,0.1-3.8,0.9-5,2.3c-1.2,1.3-1.8,3-1.7,4.7c0.2,3.8,3.5,5.5,4.7,6.2l0.1,0.1
			c1.5,0.8,2.6,2.3,2.9,3.9c0.2,1.1,0.2,2.4,0.1,3.9c-0.1,2.3-0.2,4.8,0.6,7.5c1.4,4.8,5,7.9,8.1,10.5c0.8,0.7,1.5,1.3,2.2,1.9
			c5.9,5.5,8.9,13.9,7.9,21.8c-0.1,0.7-0.2,1.4-0.3,2.2c-0.3,1.6-0.5,3.4-0.6,5.2c0,1.4,0.1,2.6,0.3,3.8c0.4,1.7,1.6,3.2,3.3,3.7
			c0.5,0.2,1.1,0.3,1.6,0.3c1.2,0,2.4-0.4,3.3-1.2c3.3-2.9,5.3-7.3,5.8-13.2C273.3,155.5,268.9,143.7,260.4,135.5z"/>
		<path d="M238.2,132.7c-1.6-1.5-3.2-2.9-4.1-4.4c-1.2-2.1-1.6-5-2-8c-0.1-0.9-0.2-1.8-0.3-2.6c-1.1-7.6-5.3-16.5-13.4-16.5l-0.3,0
			c-1.9,0.1-3.8,0.9-5.1,2.3c-1.2,1.3-1.8,3-1.7,4.8c0.2,3.9,3.6,5.6,4.8,6.2l0.1,0.1c1.6,0.8,2.9,2.5,3.2,4.3
			c0.2,1.2,0.2,2.6,0.1,4.1c-0.1,2.3-0.2,5,0.6,7.8c1.5,5,5.2,8.1,8.4,10.9c0.8,0.7,1.6,1.3,2.3,2c6.2,5.8,9.4,14.7,8.4,23.1
			c-0.1,0.8-0.2,1.5-0.3,2.3c-0.3,1.7-0.6,3.5-0.6,5.4c0,1.4,0.1,2.7,0.3,4c0.4,1.7,1.6,3.2,3.3,3.7c0.5,0.2,1.1,0.3,1.6,0.3
			c1.2,0,2.4-0.4,3.3-1.2c3.4-3,5.4-7.6,6-13.7c1-12.2-3.6-24.6-12.5-33.1C239.5,134,238.9,133.4,238.2,132.7z"/>
	</g>
	<g>
		<path class="st1" d="M216.5,176.5c-0.8-5.2-1.9-10.6-3.1-16.1c-0.3-1.3-0.8-2.8-1.3-4.4c-0.4-1.3-0.9-2.7-1.2-4
			c-0.1-0.6-0.3-1.1-0.3-1.5c-0.2-1-0.1-1.4-0.1-1.5c0.9-2.5,0.6-5-0.8-6.8c0.1-0.8,0-1.6-0.2-2.5c-0.3-1.2-0.9-2.3-1.8-3.2
			c0-0.4,0.1-0.8,0-1.2c-0.3-3.4-3-5-4.2-5.6c-0.3-0.4-0.8-1.5-1.2-2.3l-0.5-1.2l-0.4-0.8l-0.2-0.4c-0.1-0.2-0.2-0.3-0.3-0.5
			l-0.2-0.3c1-1.4,1.3-3.2,0.9-4.9c0.5-0.5,1-1.2,1.4-1.8c0.6-1.1,0.8-2.4,0.6-3.6c0.9-1.8,1.1-3.9,0.6-5.8c0.2-1,0.2-2-0.1-3.2
			c-0.3-1.4-0.7-2.7-1.4-4c-0.1-0.2-0.2-0.3-0.3-0.5c0-0.5-0.1-1-0.1-1.5c-0.2-1.7-1.2-3.1-2.7-3.9l-0.5-1.2
			c-0.7-1.6-2.1-2.8-3.8-3.1c-0.2,0-0.4-0.1-0.6-0.1c-0.8-1.1-2.1-1.8-3.5-2c-0.1,0-0.1,0-0.2,0l-0.6-0.7c-1-1.1-2.3-1.7-3.7-1.7
			c-0.2,0-0.3,0-0.5,0l0,0c-0.9-0.7-1.9-1.1-2.9-1.1c-0.6-0.6-1.4-1.1-2.3-1.3c-0.4-0.1-0.8-0.1-1.2-0.1c-0.5,0-1,0.1-1.5,0.2
			c-0.2-0.1-0.5-0.3-0.7-0.4c-0.6-0.3-1.3-0.4-2-0.4c-0.4,0-0.8,0.1-1.2,0.2c0,0,0,0,0,0c-0.9-0.7-1.9-1-3-1c0,0,0,0,0,0
			c0.6-3.6,1.2-8.9,1.2-9.2c0.1-0.8,0.2-1.6,0.3-2.5l0.1-1.3c0.1-0.8,0.2-1.7,0.2-2.5c0.1-1.3,0.2-2.5,0.3-3.6
			c0.1-1.2,0.1-2.3,0.2-3.3c0-0.7,0-1.4,0-2c0-2.1-0.1-3.4-0.5-4.5c-0.3-1-0.8-1.9-1.4-2.8c-0.1-3.2-0.5-6.3-1.4-9.2
			c-0.1-0.5-0.3-0.9-0.4-1.4c-0.3-0.9-0.6-1.8-1-2.7c-0.2-0.4-0.4-0.9-0.6-1.3c-0.9-2-2-4-3.3-5.8c-0.5-0.7-1-1.4-1.5-2.1
			c-1-1.3-2.1-2.5-3.2-3.7c-0.3-0.3-0.6-0.6-0.8-0.8c-0.4-0.4-0.8-0.7-1.2-1.1c0.8-1.8,1.3-3.7,1.4-5.7c0.1-2.7-0.5-5.5-1.9-7.8
			c-1.5-2.7-3.9-4.9-6.9-6.4c-2.4-1.2-5.2-1.8-8-1.8c-1.1,0-2.3,0.1-3.4,0.3c-4.9,0.9-9.2,3.7-11.8,7.7c-0.6,0.9-1.1,1.9-1.5,2.9
			c-0.6,1.6-0.9,3.2-1,4.8c0,0.8,0,1.6,0.1,2.3c-2.5,1.2-4.8,2.6-7,4.1c-1.4,1-2.8,2-4.1,3c-5.5,4.5-9.6,9.8-12.2,15.8
			c-0.4,0.9-0.8,1.9-1.1,2.9c-0.2,0.5-0.3,0.9-0.4,1.4c-0.2,0.8-0.5,1.7-0.6,2.5c-0.2,0.7-0.3,1.4-0.4,2.1c-0.1,0.1-0.4,0.6-0.4,0.6
			c-0.2,0.2-0.3,0.5-0.5,0.7l-0.1,0.1c-0.1,0.2-0.3,0.4-0.4,0.6l-0.1,0.3c-0.1,0.2-0.2,0.4-0.3,0.6l-0.1,0.2
			c-0.1,0.2-0.2,0.4-0.3,0.6c0,0-0.1,0.2-0.1,0.2c-0.1,0.3-0.2,0.6-0.3,0.8c-0.2,0.5-0.3,1-0.5,1.6c-0.2,1-0.4,2.1-0.6,3.4
			c-0.1,0.6-0.1,1.2-0.2,1.9c-0.2,1.8-0.3,3.8-0.4,6c-0.1,1.9-0.1,3.9-0.1,5.9c0,0.9,0,1.8,0,2.7l0,0.8c0,0.5,0,1,0,1.5
			c0.1,2.3,0.2,3,0.2,3.3c0.1,0.9,0.4,1.7,0.9,2.7c0,0,0,0,0,0c-0.4-0.1-0.8-0.1-1.2-0.1c-1,0-1.9,0.3-2.8,0.8
			c-0.6,0.4-1.1,0.8-1.6,1.2c-0.3-0.1-0.7-0.1-1-0.1c-0.1,0-0.1,0-0.2,0c-1.5,0-2.9,0.7-3.8,1.8c0,0-0.2,0-0.2,0
			c-1.9,0.1-3.6,1.2-4.4,3c-0.1,0.2-0.2,0.4-0.3,0.6c-0.5,0.3-1,0.7-1.4,1.2c-0.8,0.3-1.5,0.7-2,1.4c-0.5,0.2-0.9,0.4-1.3,0.7
			c-0.7,0.5-1.2,1.2-1.5,1.9c-1.1,0.5-1.9,1.3-2.4,2.4c-0.3,0.3-0.6,0.8-0.9,1.3c-0.4,0.3-0.8,0.7-1.1,1.2c-0.7,1-0.9,2.3-0.8,3.4
			c0,0,0,0-0.1,0.1c-0.7,1-1.1,2.2-1,3.4c0,0,0,0.1,0,0.1c-0.4,0.7-0.7,1.4-0.7,2.2c-0.1,1-0.3,3.1,0.7,5.1c-0.2,1.8,0.4,3.6,1.4,5
			c0,0.2,0.1,0.4,0.2,0.6c-0.2,0.3-0.4,0.5-0.5,0.8c-0.2,0.2-0.3,0.5-0.4,0.8l-0.1,0.2c-0.1,0.1-0.2,0.3-0.2,0.4l-0.3,0.6
			c-0.3,0.5-0.5,1-0.7,1.3c-0.2,0.3-0.3,0.5-0.5,0.7c-0.2,0.1-0.5,0.2-0.8,0.4c-3,1.5-4.4,5-3.6,8.6c-0.7,0.7-1.4,1.5-1.9,2.4
			c-0.1,0.1-0.1,0.2-0.2,0.3c-0.1,0.1-0.1,0.2-0.2,0.3c-0.5,0.9-0.8,1.8-1,2.8c-0.1,0.1-0.2,0.1-0.3,0.2c-0.2,0.1-0.4,0.3-0.5,0.4
			c-0.1,0.1-0.2,0.2-0.3,0.3c-0.2,0.2-0.4,0.4-0.5,0.6c-0.1,0.1-0.2,0.2-0.3,0.4c-0.1,0.2-0.3,0.5-0.5,0.8c-1.3,2.4-0.8,4.7-0.5,6
			c0,0.2,0.1,0.4,0.1,0.6c-0.1,1.1-0.8,2.7-1.5,4.2c-0.4,0.9-0.8,1.9-1.2,2.9c-2.5,7-4.3,13.3-5.8,19.1l-0.2,0.9
			c-2.2,8.9-5.4,22.4,0.5,31.9c3,4.8,10.8,7,25,7c1,0,2,0,3.1,0c0,0.5-0.2,3.8-0.2,3.8c-0.2,3.2-0.4,6.4-0.5,9.7
			c0,0.1-0.1,2.1-0.1,2.1c-0.2,3.2-0.3,6.5-0.4,9.7c0,0-0.2,4.9-0.2,6.3c-0.1,1.4,0.5,2.7,1.4,3.7c0.9,1,2.2,1.5,3.6,1.5H189
			c2.7,0,4.9-2.2,5-4.9c0-1.7,0.1-7.2,0.1-7.2c0-3,0.1-6.2,0.1-9.3l0-1.8c0-2.4,0-4.8,0.1-7.3c2.9-0.4,4.1-0.8,4.9-1.1
			c8.3-3.2,15.4-11.8,18.4-22.5c1.8-6.5,0.5-14-0.6-20.1C216.9,178.6,216.7,177.5,216.5,176.5z"/>
		<path class="st1" d="M14.5,161.5c-1-8,2-16.4,7.9-21.8c0.7-0.6,1.4-1.2,2.2-1.9c3.1-2.7,6.7-5.7,8.1-10.5c0.8-2.7,0.7-5.2,0.6-7.5
			c-0.1-1.4-0.1-2.8,0.1-3.9c0.3-1.6,1.5-3.2,2.9-3.9l0.1-0.1c1.2-0.6,4.5-2.3,4.7-6.2c0.1-1.7-0.5-3.4-1.7-4.7
			c-1.3-1.4-3.1-2.2-5-2.3l-0.3,0c-7.9,0-12,8.6-13,15.9c-0.1,0.8-0.2,1.7-0.3,2.5c-0.4,2.9-0.7,5.6-1.8,7.6
			c-0.8,1.4-2.3,2.7-3.8,4.1c-0.7,0.6-1.3,1.2-1.9,1.8c-8.5,8.2-13,20-12,31.8c0.5,5.8,2.4,10.3,5.8,13.2c0.9,0.8,2.1,1.2,3.3,1.2
			c0.5,0,1.1-0.1,1.6-0.3c1.7-0.6,2.9-2,3.3-3.7c0.2-1.2,0.4-2.5,0.3-3.8c0-1.8-0.3-3.5-0.6-5.2C14.7,162.9,14.6,162.2,14.5,161.5z"
			/>
		<path class="st1" d="M53.4,125.9c0.8-2.8,0.7-5.4,0.6-7.8c-0.1-1.5-0.1-3,0.1-4.1c0.4-1.8,1.6-3.4,3.2-4.3l0.1-0.1
			c1.2-0.6,4.6-2.4,4.8-6.2c0.1-1.7-0.5-3.4-1.7-4.8c-1.3-1.4-3.2-2.3-5.1-2.3l-0.3,0c-8.1,0-12.3,8.9-13.4,16.5
			c-0.1,0.9-0.2,1.7-0.3,2.6c-0.4,3.1-0.7,6-2,8c-0.9,1.5-2.4,2.9-4.1,4.3c-0.7,0.6-1.4,1.2-2,1.9c-8.9,8.5-13.5,20.9-12.5,33.1
			c0.5,6,2.5,10.6,6,13.6c0.9,0.8,2.1,1.2,3.3,1.2c0.5,0,1.1-0.1,1.6-0.3c1.7-0.6,2.9-2,3.3-3.7c0.3-1.2,0.4-2.5,0.3-4
			c0-1.9-0.3-3.7-0.6-5.4c-0.1-0.8-0.2-1.5-0.3-2.3c-1-8.5,2.2-17.3,8.4-23.1c0.7-0.7,1.5-1.3,2.3-2C48.3,134.1,52,130.9,53.4,125.9
			z"/>
		<path class="st1" d="M255.4,130.5c-0.6-0.6-1.3-1.2-1.9-1.8c-1.5-1.4-3-2.7-3.8-4.1c-1.2-1.9-1.5-4.7-1.8-7.6
			c-0.1-0.8-0.2-1.7-0.3-2.5c-1.1-7.3-5.1-15.9-13-15.9l-0.3,0c-1.9,0.1-3.8,0.9-5,2.3c-1.2,1.3-1.8,3-1.7,4.7
			c0.2,3.8,3.5,5.5,4.7,6.2l0.1,0.1c1.5,0.8,2.6,2.3,2.9,3.9c0.2,1.1,0.2,2.4,0.1,3.9c-0.1,2.3-0.2,4.8,0.6,7.5
			c1.4,4.8,5,7.9,8.1,10.5c0.8,0.7,1.5,1.3,2.2,1.9c5.9,5.5,8.9,13.9,7.9,21.8c-0.1,0.7-0.2,1.4-0.3,2.2c-0.3,1.6-0.5,3.4-0.6,5.2
			c0,1.4,0.1,2.6,0.3,3.8c0.4,1.7,1.6,3.2,3.3,3.7c0.5,0.2,1.1,0.3,1.6,0.3c1.2,0,2.4-0.4,3.3-1.2c3.3-2.9,5.3-7.3,5.8-13.2
			C268.3,150.5,263.9,138.7,255.4,130.5z"/>
		<path class="st1" d="M233.2,127.7c-1.6-1.5-3.2-2.9-4.1-4.4c-1.2-2.1-1.6-5-2-8c-0.1-0.9-0.2-1.8-0.3-2.6
			c-1.1-7.6-5.3-16.5-13.4-16.5l-0.3,0c-1.9,0.1-3.8,0.9-5.1,2.3c-1.2,1.3-1.8,3-1.7,4.8c0.2,3.9,3.6,5.6,4.8,6.2l0.1,0.1
			c1.6,0.8,2.9,2.5,3.2,4.3c0.2,1.2,0.2,2.6,0.1,4.1c-0.1,2.3-0.2,5,0.6,7.8c1.5,5,5.2,8.1,8.4,10.9c0.8,0.7,1.6,1.3,2.3,2
			c6.2,5.8,9.4,14.7,8.4,23.1c-0.1,0.8-0.2,1.5-0.3,2.3c-0.3,1.7-0.6,3.5-0.6,5.4c0,1.4,0.1,2.7,0.3,4c0.4,1.7,1.6,3.2,3.3,3.7
			c0.5,0.2,1.1,0.3,1.6,0.3c1.2,0,2.4-0.4,3.3-1.2c3.4-3,5.4-7.6,6-13.7c1-12.2-3.6-24.6-12.5-33.1
			C234.5,129,233.9,128.4,233.2,127.7z"/>
	</g>
	<g>
		<g>
			<path id="XMLID_00000045594105629078959340000008969093231815649173_" class="st2" d="M185.3,93.5c0,0-0.1,0.1-0.1,0.1
				C185.3,93.6,185.3,93.5,185.3,93.5z"/>
			<path id="XMLID_00000177462751295938522550000011910911115404724395_" class="st2" d="M95.9,92.8c-0.1,0.1-0.2,0.1-0.3,0.2
				C95.7,93,95.8,92.9,95.9,92.8z"/>
			<path id="XMLID_00000101819791956905708510000015019893952175670698_" class="st3" d="M195.5,100.8c0.3-0.2,0.5-0.5,0.5-0.9
				c0-0.4-0.1-0.7-0.3-1.1c-0.4-1-0.8-1.9-1.2-2.9c-0.7,0.8-1.8,1.2-2.8,1.1c0.5-0.4,0.3-1.1,0-1.6c-0.3-0.5-0.8-0.9-1-1.5
				c-0.4,0.7-1,1.3-1.7,1.6c0.4-0.7-0.2-1.6-0.7-2.2c-0.5-0.6-1.1-1.2-1.6-1.8c-0.4,0.7-0.8,1.3-1.4,1.8c0,0.1-0.1,0.1-0.1,0.1
				c0,0,0.1-0.1,0.1-0.1c0.2-0.2,0.2-0.6,0.1-0.8c-0.1-0.3-0.4-0.6-0.7-0.8c-0.6-0.5-1.1-0.9-1.7-1.4c0,0.8-0.6,1.6-1.3,2
				c0.3-0.6-0.1-1.4-0.6-1.8c-0.5-0.5-1.1-0.9-1.4-1.5c-0.9,0.8-1.8,1.5-2.9,2c0.4-0.4,0.1-1-0.3-1.4c-0.4-0.4-0.9-0.7-1-1.2
				c-0.9,0.5-1.8,1.2-2.5,1.9c0.1-1.1-2-1.6-1.8-2.7c-0.6,0.3-0.7,1-1.1,1.4c-1.3,1.5-4.5,0.5-6.1,0.3c-7.7-0.8-15.5-1-23.3-1
				c-2.5,0-4.9,0.1-7.4,0.2c-5.7,0.2-11.3,0.5-17,1.1c-2.4,0.3-4.8,0.6-7.2,0.9c-0.6,0.1-1.2,0.1-1.7,0.3c-0.4,0.1-0.9,0.5-1.3,0.6
				c-1.1,0.2-1.3-1.3-2-2.1c-0.3,1-1,1.8-1.9,2.4c-0.1-0.8-0.5-1.7-1.1-2.2c-0.7,1-1.6,1.9-2.5,2.8c-0.1-0.7-0.2-1.4-0.5-2.1
				c-0.6,1-1.3,1.8-2.2,2.5c-0.1,0.1-0.2,0.1-0.3,0.2c0.1-0.1,0.2-0.1,0.3-0.2c0.3-0.3,0.3-0.8,0.1-1.2c-0.2-0.5-0.6-1-0.6-1.5
				c-1.6,1-2.8,2.5-3.6,4.2c-0.9-0.5-1.6-1.3-1.9-2.3c-0.3,0.7-0.9,1.1-1.3,1.7c-0.4,0.6-0.7,1.4-0.4,2c-0.9-0.3-1.7-1-2.2-1.9
				c-0.1,0.3-0.3,0.7-0.4,1c-0.3,0.9,0.1,2.3-0.6,3c-0.4-0.5-0.8-0.9-1.4-1.1c0.2,0.2,0.3,0.5,0.3,0.8c0,0.3-0.3,0.6-0.4,0.9
				c-0.1,1-1.6,1.5-2.3,2.1c-1.7,1.4-3.3,3-4.5,4.9c-1.9,3-2.5,6.6-2,10.2c0.8,5.3,4.1,10.9,8.3,14.3c7,5.7,14.2,8.5,19.5,0.8
				c5.2-7.7-2.2-17.3-2.2-17.3l72.7-5.5c0,0-3.2,3.5-7.8,11.7c-7.6,13.6-1.7,23.9,11.5,16.7c1.9-1.1,3.7-2.4,5.4-3.8
				c4.6-3.7,8.8-8.1,11.8-13.2c1.4-2.4,2.6-5.1,3.1-7.9c0.2-1.3,0.3-2.6,0.2-3.9c-0.1-0.7-0.2-1.3-0.4-1.9c-0.2-0.9,0.3-1.7,0.6-2.5
				c0.3-1,0.2-2.1,0-3.1C197.1,100.5,196.3,101,195.5,100.8z"/>
			<path id="XMLID_00000078008238185759891500000008490637537134928790_" class="st4" d="M171.4,106c-8.2-6.1-58.7-1.5-65.1,0
				c-6.5,1.5-6.1,3.5-6.1,3.5l2.9,19.3l61.1,4.4l4-23.2C168.2,109.8,173.9,107.8,171.4,106z"/>
			<g id="XMLID_00000099641051884279397300000015584047268700004541_">
				<path id="XMLID_00000181052582343253824740000005274217947850615943_" class="st5" d="M137.6,100c-33,1.1-38.4,5.3-39.3,8.8
					c-0.7,2.5,0.4,2.2,1.1,4.7l3.6-2.3c-0.2-0.7-1-1.1-0.9-1.3c0,0,1.3-4.7,35.7-5.9c29-1,31.6,2.5,31.7,2.8
					c-0.1,0.5-2.5,1.4-2.8,2.6l3.3,3.6c0.5-2.6,4.3-3.6,3.3-7.3C172.3,102.3,167.3,99,137.6,100z"/>
			</g>
			<path id="XMLID_00000147217277278773435810000018101546853159595704_" class="st6" d="M109.4,125.6l0.2,16.8h50l-0.2-18.5
				C144.3,119.5,123.8,119.5,109.4,125.6z"/>
			<path class="st7" d="M97.6,130.1l-10,118.7h93.7c-5.3-29.8-16.5-88.7-16.4-95.1c0-6.3,0.1-12.7,0.1-19c0-2,0-4,0-6
				c0-2.1,1.7-2.9,1.7-2.9c-4.2-1.7-13.9-4.2-15.3-5.3c-1.7-1.4,0.7-1.7,1.4-2.4c1-0.9,0.9-2.2,0-3.1c-1.5-1.5-4.4-2-6.4-2
				c-1.8,0-3.6,0.2-5.4,0.3c-3.8,0.3-7.5,0.5-11.3,0.8c-3.1,0.2-6.5-0.1-9.5,0.8c-0.7,0.2-1.3,0.6-1.9,1c-0.5,0.4-1.1,0.8-1.4,1.4
				c-0.3,0.6-0.4,1.3-0.1,1.9c0.6,0.9,1.6,1.4,2.8,1.6C120.6,123.2,110.1,123.1,97.6,130.1z"/>
			<path class="st5" d="M189,248.8c0.5-27,0.6-60.6-0.3-82.5c-0.4-8.8-1.5-31.7-1.5-31.7s-8.8-10.2-19.7-12.1l2.7-10.9
				c0,0,0.2-1.3-1.1-2c-1.3-0.7-2.5-0.2-2.5-0.2s-5.5,10.1-18.7,15.8c-9.7,4.2-14.9,12.9-14.9,12.9c-1.4-5.4-9.7-9.6-16.4-14.9
				c-9.9-8-13.7-12.3-13.7-12.3s-0.5-0.7-2.4-0.1c-1.6,0.5-1.4,1.7-1.4,1.7l2.6,10.2c-8,1.6-17.1,7.7-17.1,7.7s-0.1,49.3-2.3,79.7
				c-0.9,11.8-1.5,25.6-2,38.7H189z"/>
			<path id="XMLID_00000176022563669396703520000004274478907742155185_" class="st8" d="M99,218.3c0,0,3.4,4.5,8.5,5.4
				c5.1,0.9,7.6,0.8,7.6,0.8s0.7,2.3,1.7,2.4c0.9,0.2,4.9-0.8,4.9-0.8s0.3,4.7,2.3,4.5c1.7-0.2,49.8,2.9,65.2,3.2
				c0.1-7.9,0.1-16,0.2-24L99,217.6V218.3z"/>
			<path id="XMLID_00000035518945167472155850000003846465366888584862_" class="st9" d="M97,210.2c0,0,0.1,6.1,2.6,9.1
				c2.5,2.9,18,0.9,18.3,0.9l-3.3-12.1L97,210.2z"/>
			<path id="XMLID_00000173137913320418875870000007389024023389081477_" class="st4" d="M167.2,157.4c-0.5-0.4-1.6-1.3-12.9-0.8
				c-5.4,0.2-10.6,0.6-10.7,0.6l-0.8,0.1l-0.1,0.8c0,0.1-0.4,6.6-0.7,13.3c0.7,0.1,1.3,0.3,1.8,0.8c0.1,0,0.1,0.1,0.2,0.1
				c0.1-1.8,0.1-3.7,0.2-5.6l22.7,0.3c0,1.4,0.1,3,0.1,4.9c0,2,0,4-0.1,5.7c0.5,0,1,0.1,1.5,0.1c0.2,0,0.4,0.1,0.5,0.2
				c0.1-2.1,0.1-4.3,0.1-6.4C169,158.8,167.7,157.8,167.2,157.4z M144.4,164.8c0.1-1.9,0.2-3.8,0.3-5.7c9.6-0.7,19.9-1,21.3-0.2
				c0.3,0.4,0.7,2.1,0.9,6.2L144.4,164.8z"/>
			<path id="XMLID_00000031889837389171313010000006434076665867220665_" class="st4" d="M108.9,156.6c-5.6,0.2-11.1,0.6-11.2,0.6
				l-0.8,0.1l-0.1,0.8c0,0.1-0.6,7.1-1.1,14.2c-1,14.7-0.5,15.2,0,15.6c0.3,0.2,0.7,0.6,12.1,1c3.4,0.1,6.2,0.2,8.2,0.2
				c2.4,0,3.7-0.1,4.1-0.2c0.5-0.2,0.7-0.8,0.8-1c0.6-2,1.1-9.6,1.3-15.6c0.3-8.7,0.2-13.5-0.3-14.3
				C121.4,157.3,120.7,156.3,108.9,156.6z M119,187.1c-2.9,0.2-18.9-0.3-21.9-0.7c-0.3-2.2,0.3-11.4,1.1-21.2l22.2,0.4
				C120.2,173.2,119.6,184.8,119,187.1z M98.3,163.2c0.1-1.4,0.2-2.7,0.3-4.1c9.4-0.7,19.9-0.9,21.5,0c0.1,0.6,0.2,2.3,0.2,4.5
				L98.3,163.2z"/>
			<path id="XMLID_00000092415827238412050680000013342729970659149209_" class="st10" d="M208.5,161.5c-0.8-3.7-4.2-10.7-2.9-14.2
				c0.3-0.7,0.4-1.6-0.1-2.2c-0.6-0.6-1.7-0.7-1.8-1.5c0-0.4,0.4-0.8,0.6-1.1c0.6-0.9,0.2-2.3-0.7-2.8c-0.6-0.3-1.5-0.4-1.8-1
				c-0.4-1,0.9-1.9,0.8-2.9c-0.1-0.8-0.9-1.3-1.6-1.7c-3-1.6-3.4-7.1-6.4-9.3c-6.4-4.7-19,4.4-19,4.4c-4.4,6.9-1.6,56.9-2.2,57
				c-35.5,6.4-53.9,13.7-53.9,13.7l4.6,23.6c0,0,67.1-3.5,73.3-5.9c6.4-2.4,12.6-9.3,15.4-19.2c1.8-6.4-0.3-14.8-1.3-21.2
				C210.7,172,209.7,166.8,208.5,161.5z"/>
			<g id="XMLID_00000143592336935818497950000010210665481882709174_">
				<path id="XMLID_00000131338380195348401480000006174117102390695051_" class="st4" d="M174,133.8c-3.1,6.7-2.2,27.7-1.6,41.6
					c0.2,4.6,0.4,9,0.3,10.2c-1.8,0.8-12.1,2.8-21.4,4.4l0.3,1.8c0.1,0,5.4-0.9,10.7-2c11.1-2.2,11.6-2.8,11.9-3.1
					c0.5-0.6,0.5-1.8,0.1-11.5c-0.5-12.9-1.4-34.5,1.5-40.8L174,133.8z"/>
			</g>
			<path id="XMLID_00000169521917649765226820000015637385350775694500_" class="st8" d="M82.2,210.1c-0.3,3.5-0.5,7.1-0.7,10.9
				c18.4,0.3,66.8-14.9,66.8-14.9l0.7-2.6l3.2-0.7l0.7-1.6c2.3,0.2,13.6-4,14.7-7.9c1-3.9,4.5-7.5,4.5-7.5l-88.7,4.8
				C83,197.5,82.7,204.2,82.2,210.1z"/>
			<path id="XMLID_00000087376781330749793740000005025375950919252876_" class="st9" d="M162.5,172.7c-3.8-0.6-14.2,1.4-14.2,1.4
				s-0.2,24,2.8,24.4c3.1,0.4,9.2-0.6,15.4-6.7c1.7-1.7,3.8-5.1,6.3-6.3c0,0-0.2-4.7-1.1-6.3C169.6,174.9,166.9,173.4,162.5,172.7z"
				/>
			<path id="XMLID_00000178891141623194385920000005548410371779002041_" class="st11" d="M162.5,172.7c-3.8-0.6-14.2,1.4-14.2,1.4
				s-0.2,24,2.8,24.4c3.1,0.4,9.2-0.6,15.4-6.7c1.7-1.7,3.8-5.1,6.3-6.3c0,0-0.2-4.7-1.1-6.3C169.6,174.9,166.9,173.4,162.5,172.7z
				 M170.8,182.4c0,1.2-16,9.7-16,4.3c0-5.5-3.3-12-3.3-12C171.1,171.4,170.8,181.1,170.8,182.4z"/>
			<path id="XMLID_00000089554362874018120970000009817041674027853986_" class="st4" d="M149.3,173c-0.8-0.7-7,0.8-7,0.8l2.5,26.1
				l6.6-0.3C154.7,195,152,175.3,149.3,173z"/>
			<path id="XMLID_00000149359704793511262740000013092264144287429787_" class="st10" d="M142.6,173.3c-3.6-1-50.4,0.2-50.4,0.2
				l0-39.3l-8.2-9c0,0-7-3.4-9.5-0.4c-1.1,1.3-1.7,3-2.7,4.4c-1.4,2.3-0.6,1.6-3.2,2.9c-1,0.5-1.2,2-0.9,3.1c0.3,1.1,1,2.1,1.3,3.3
				c-2.6,0.4-4.6,2.8-4.7,5.4c0,0.3,0,0.7-0.1,0.9c-0.2,0.5-0.8,0.6-1.2,0.9c-2.9,1.5-1,3.6-1.2,5.7c-0.2,2.8-2,5.8-2.9,8.5
				c-2.2,6.1-4.1,12.3-5.6,18.7c-2,8.4-5.3,21-0.3,28.9c7.6,12,89.4-2.8,93.8-5C148.8,201.4,147.5,174.6,142.6,173.3z"/>
			<path id="XMLID_00000007415492605437753070000001382334808818062218_" class="st12" d="M106.3,121.5c-0.2-0.4-0.4-0.8-0.6-1.1
				c-1-1.2-3-1.2-4,0c-0.2,0.2-0.3,0.5-0.5,0.8l0.4,1.6c-5.3,1-11.1,4.1-14.4,6l-0.1-0.1c-0.9,0.6-1.7,1.2-2.6,1.8l-2.5-6
				c-2.3-0.8-5.9-1.6-7.6,0.4c-0.6,0.7-1,1.4-1.4,2.2c1.2,1.5,3.3,3.4,3.9,4c2.4,2.5,4.9,4.8,7.7,6.7c4.4,3,10.5,4.8,15.6,2.2
				c5.2-2.6,9.7-10.4,7.1-16.1C107,123,106.6,122.2,106.3,121.5z"/>
			<path id="XMLID_00000080187993018192564540000008213198231619208880_" class="st11" d="M97,210.2c0,0,0.1,6.1,2.6,9.1
				c2.5,2.9,18,0.9,18.3,0.9l-3.3-12.1L97,210.2z M102.5,218.8c-2.6-0.8-3-6.4-3-6.4s11.3-1,11.9-1c0.6,0,2.3,7.4,2.3,7.4
				S105.2,219.6,102.5,218.8z"/>
			<path id="XMLID_00000122719262314980235510000009493297947098861457_" class="st12" d="M194.6,124.8c-2.6-1.9-6.4-1.5-9.8-0.3
				c-1.8,2.7-3.3,4.9-3.3,4.9c0.3-0.5-6.3-3.9-7.1-4.2c-2.8-1.2-5.8-2.1-8.9-1.7c-5.5,0.9-12.1,5.1-10.6,11.4
				c0.8,3.3,3.4,5.8,6.3,7.5c13.4,7.7,27-3.2,36.3-13.3C196.8,127.5,196,125.8,194.6,124.8z"/>
			<path id="XMLID_00000182512688866412781010000005759413783483526583_" class="st4" d="M121.5,207l-8.1,1.3c0,0,2.4,13,3.3,13.6
				c0.8,0.6,6.8,0,6.8,0C120.8,216.6,121.5,207,121.5,207z"/>
			<path class="st4" d="M96.9,248.8h2c0.3-8.8,0.4-16.3,0.4-16.4l0-1L81,230.9c0,0.7-0.1,1.3-0.1,2l16.4,0.5c0,1.6-0.1,5.1-0.2,9.4
				l-16.6-0.3c0,0.7-0.1,1.3-0.1,2l16.6,0.3C97,246.1,96.9,247.4,96.9,248.8z"/>
			<g id="XMLID_00000161622102650537139180000008576405526063190461_">
				<path class="st4" d="M172.3,248.8c0-1.8,0-3.6,0-5.3l16.8,0.1c0-0.7,0-1.3,0-2l-16.9-0.1c0-3.2,0-6.3,0-9.1l17,0
					c0-0.6,0-1.2,0-1.8l-19,0l0,0.9c0,2.7-0.1,9.7,0,17.4H172.3z"/>
			</g>
			<path id="XMLID_00000170999714182493243670000012429700701571285121_" class="st4" d="M195.1,153.7l-0.9-4.1l11.1-4.6
				c-0.6-0.5-1.6-0.6-1.6-1.3c0,0,0-0.1,0-0.1l-11.8,4.8l1.6,7.7l12.4-2.7c-0.2-0.7-0.3-1.3-0.4-1.9L195.1,153.7z"/>
			<path id="XMLID_00000161599656216867266230000003009888957990845347_" class="st4" d="M65,141.3l6.5,1.5l-0.7,4.2l-7.2-1.7
				c-0.2,0.1-0.5,0.2-0.7,0.3c-0.7,0.4-1.1,0.8-1.4,1.2l10.9,2.5l1.3-8l-7.3-1.7C65.9,140.1,65.4,140.7,65,141.3z"/>
			<path id="XMLID_00000029027824489165817720000007051921799835413640_" class="st13" d="M151,119.8c-7.2,3.1-22.6,4.3-31.1,1.5
				c-0.2,0.5-0.9,0.9-2.1,1.3c3.5,1.5,8.5,2.3,14.3,2.3c1.7,0,3.4-0.1,5.1-0.2c5.2-0.4,11.5-1.5,15.5-3.5c-0.5-0.2-0.9-0.4-1.2-0.6
				C151.2,120.2,151,120,151,119.8z"/>
			<polygon id="XMLID_00000093137501134917831150000000168911678966238647_" class="st14" points="144.3,145.7 144.3,148.6 
				159.5,148.6 159.5,145.3 			"/>
			
				<ellipse id="XMLID_00000016041875135013937580000002565509846610914996_" transform="matrix(0.988 -0.1544 0.1544 0.988 -0.8894 22.2252)" class="st15" cx="142.6" cy="16.8" rx="12.2" ry="10.8"/>
			<g id="XMLID_00000083767156757127848440000000296647303124576164_" class="st11">
				<path id="XMLID_00000140733768479096324500000012918158835832097669_" class="st16" d="M143.1,6c-6.7,0-12.4,4.9-12.6,10.9
					c-0.2,6,5,10.9,11.7,10.9c6.7,0,12.4-4.9,12.6-10.9C155,10.8,149.8,6,143.1,6z M150.3,14.8c-0.1,1.1-0.6,2.3-1.6,2.9
					c-0.9,0.7-2.1,0.8-3.2,0.7c-2.5-0.1-5-1-7.4-0.5c-1.1,0.2-2.3,0.8-3.4,0.4c-0.8-0.3-1.4-1-1.6-1.9c-0.4-1.4-0.2-2.9,0.4-4.2
					c0.3-0.6,0.5-1.3,1-1.9c2-2.7,5.6-3.5,8.7-3.2c3.4,0.3,6.2,2.4,7.1,5.8C150.4,13.7,150.4,14.2,150.3,14.8z"/>
			</g>
			<path id="XMLID_00000093873661301285472120000005457674103922836136_" class="st6" d="M105.1,77c-0.6-2.5-2.6,3-2.6,8
				c0,4.6,0.9,9.4,4.5,8.4s6-5.5,5.4-10C111.8,78.9,105.9,80.6,105.1,77z"/>
			<path id="XMLID_00000031186768789865529620000014325395790728676231_" class="st17" d="M120.6,34.8c0,0,0-0.1,0-0.1
				C120.6,34.8,120.6,34.8,120.6,34.8z"/>
			<path id="XMLID_00000081607056733567238870000008429636252227762878_" class="st18" d="M159.6,83.5c0-11.4-1.6-25.8-4-34.3
				c-1.8-11-33-16.3-42.1-1.1c-2.9,7-7.7,20.2-9.3,33.2c0-0.1,0-0.2,0-0.2s-8.5,34.7,22.4,36.8C157.5,120.1,160.9,103.8,159.6,83.5
				L159.6,83.5z"/>
			<path id="XMLID_00000025424971933175196890000004642688819077614222_" class="st19" d="M154.4,82.3c-0.7,4.6,1.4,9.3,4.8,10.5
				c3.4,1.1,4.1-3.6,4.8-8.3c0.7-4.6-0.4-7.2-2.1-9.1C159.5,72.9,155.1,77.7,154.4,82.3z"/>
			<path id="XMLID_00000047020797639721448960000017961114094593034658_" class="st20" d="M133.9,33.7c-32,2.1-27.3,37.5-27.3,37.5
				c1.9-10.5,8.5-23.6,13.5-23.9c0,0,4.4,3.6,10.9,3.7c5.9,0.1,14-4.1,14-4.1c5.8-0.1,12.5,17.9,13.3,32.5c0.2,3.3,2.7-0.9,2.7-0.9
				s1.4-0.7,1.5-2.6C162.7,65.7,160.4,31.9,133.9,33.7z"/>
			<path id="XMLID_00000066477555438780333860000004157320013753877123_" class="st20" d="M155.9,32.1c-1.8,0.3-2.2,1.1-2.2,1.1
				c1.3-2.4,0.4-5.6,0.4-5.6c-3.5,2-3.2,4.9-3.2,4.9c-1.7-3.6-7.1-4.8-7.1-4.8c0.2,3,3.4,6.1,3.6,6.2l2.8,4.2l5.8-0.9l-0.6-2.6
				C156.2,33.2,155.9,32.1,155.9,32.1z"/>
			<path id="XMLID_00000004533024478854228640000018000329604202523777_" class="st20" d="M103.7,82.8
				C103.7,82.8,103.7,82.8,103.7,82.8C103.7,82.8,103.7,82.8,103.7,82.8z"/>
			<path id="XMLID_00000036948768975169340200000002100587994977489025_" class="st20" d="M111.3,38.7c-0.1-0.2-1.5,0.8-1.6,0.9
				c-0.5,0.4-1,1-1.3,1.6c-2.8,4.2-3.3,10-3.7,14.9c-0.3,3-0.4,6-0.4,9c0,1.4,0,2.8,0,4.2c0,0.6,0,1.3,0,1.9c0,0.9,0.3,1.4,0,2.3
				c-0.2,0.5-0.5,0.9-0.7,1.4c-0.5,1.1-0.6,2-0.2,3.1c0.4,1.4,0.4,3,0.3,4.8c0.1-0.2,1.3-1,1.3-1.1c0.1-1,0.4-6.3,0.8-7.6
				c0.4-1.4,0.8-2.9,1.3-4.3c1-3,2.1-6,3.4-8.9c1.2-2.7,2.5-5.3,4-7.8c1.1-1.8,2.3-3.7,3.9-4.9c0.5-0.4,1.1-0.8,1.8-0.8
				C120.1,47.4,115.5,44.6,111.3,38.7z"/>
			<path id="XMLID_00000007417016560945833270000016759107341196695221_" class="st21" d="M147.8,36.2L147.8,36.2
				C147.8,36.2,147.9,36.2,147.8,36.2z"/>
			<path id="XMLID_00000142153293751943823270000000786436355716592283_" class="st21" d="M147.8,36.2L147.8,36.2
				C147.8,36.2,147.8,36.2,147.8,36.2z"/>
			<path id="XMLID_00000128455096235754566210000018164893103186774713_" class="st21" d="M147.7,36.2
				C147.8,36.2,147.8,36.2,147.7,36.2L147.7,36.2L147.7,36.2z"/>
			<path id="XMLID_00000106128925268480952380000011118727015020419252_" class="st22" d="M162.8,74.7c0.1-4-0.3-11.5-2.3-18.9
				c-7.1-5.2-14-10.1-14.1-10.1c-0.2,0-24.2,4.7-38,7.4c-2.1,6.8-2.1,13.4-1.9,16.5c-0.6,2.3-1.7,2.2-2.1,4.7
				c-0.7-1.6-1.9,6.1-1.9,10.8c0,0.6,0,1.3,0.1,1.9c0.5-3.7,4.7-26.4,28.9-27.6c26.3-1.2,31.3,22.8,31.7,29.2c0,0,0,0,0,0
				c0.4-1.2,0.5-2.6,0.7-4c0.6-4.2-0.2-6.3-1.6-8C162.6,76.1,162.8,75.4,162.8,74.7z"/>
			<path id="XMLID_00000064354182337542124820000013325290871479638717_" class="st23" d="M150.9,23c-5-3.6-11.6-4.4-17.5-2.1
				c-30.3,11.8-28.9,34.2-28.9,34.2c19.6-12.4,62.2,0,62.2,0C168.2,39.1,158.7,28.6,150.9,23z"/>
			<g id="XMLID_00000141451914059468816460000002431429020403712686_" class="st11">
				<path id="XMLID_00000054238566233505470540000007293298812322577067_" class="st24" d="M150.9,23c-5-3.6-11.6-4.4-17.5-2.1
					c-30.3,11.8-28.9,34.2-28.9,34.2c19.6-12.4,62.2,0,62.2,0C168.2,39.1,158.7,28.6,150.9,23z M161.6,44.8
					c-0.5,0.6-11.8-7-26.6-6.8c-15.3,0.2-28,9.3-26.9,7.3c3.6-6.7,17.2-24.5,32.2-24C155.2,21.9,162.6,43.6,161.6,44.8z"/>
			</g>
			<path id="XMLID_00000019674953977972404740000004931200126183943561_" class="st23" d="M134.8,40.4c-20.6-0.4-31.3,11.7-33,16.7
				c-1.8,5.2-1.6,22.3-1.2,24.7c0.2,1.2,2,3.2,2,3.2s2.1-27.9,31.2-27.9c31.7,0,30,29.3,30,29.3s1.7-0.7,2.2-2.3
				c0.5-1.6,3.7-25.3,2.5-28.9C167.2,51.6,155.4,40.9,134.8,40.4z"/>
			<path id="XMLID_00000034071283615796403810000007917881344421376655_" class="st12" d="M166.2,51.9c0.3,5.8-0.1,15.6-1.4,16.9
				c-1.8,1.7-3.2-14.3-27.1-16.1c-23.9-1.8-33.5,18.7-34.8,18.2c-1-0.4,1.4-13.5,2.3-19c-1.8,2-3,3.9-3.5,5.3
				c-1.8,5.2-1.6,22.3-1.2,24.7c0.2,1.2,2,3.2,2,3.2s2.1-27.9,31.2-27.9c31.7,0,30,29.3,30,29.3s1.7-0.7,2.2-2.3
				c0.5-1.6,3.7-25.3,2.5-28.9C168.1,54.4,167.6,53.2,166.2,51.9z"/>
			<path id="XMLID_00000157302103543224161680000001026618569663477922_" class="st25" d="M111.4,69.7c-1.8,4.1-2.5,9.3-2.5,9.3
				l13.6,1.8c3.6-4.8,2.9-15.2,2.9-15.2C121.6,64.5,111.4,69.7,111.4,69.7z"/>
			<path id="XMLID_00000100356021427983359600000013329704636546036912_" class="st26" d="M142.6,93.8
				C142.6,93.8,142.6,93.8,142.6,93.8C142.6,93.8,142.6,93.8,142.6,93.8z"/>
			<path id="XMLID_00000166652774291893792860000002119518145776614078_" class="st25" d="M142,68.2c-4.1-1.3-7-5.1-7-5.1
				s-1.4,1.4,0,8.7c1.4,7.3,2.8,7.8,2.8,7.8l15.2,0.1c0,0-0.2-7.2-2.3-10.6C150,68,145.4,69.3,142,68.2z"/>
			<path id="XMLID_00000117635049025494949360000011918099008405508241_" class="st27" d="M112.2,69.1c-0.8,0.4-0.8,1.4-0.8,1.4
				c8.2,0.4,12.5-0.3,13.7-2.4c0.7-1.3-0.2-5.6-0.2-5.6C120.1,65.5,115.5,67.4,112.2,69.1z"/>
			<path id="XMLID_00000054243956111427130640000004249023948348804003_" class="st27" d="M147.9,67.7c-3.4-0.8-8.6-2.3-12.7-5
				c-0.7,1.5-1.2,4.6-0.3,5.5c1.5,1.7,8.2,2.9,16.1,1.4C150.9,69.6,151.1,68.4,147.9,67.7z"/>
			<path id="XMLID_00000067936122915763131070000003440355126715900302_" class="st28" d="M129.2,97.5c-7.7-0.2-9.3-4.2-10.9,4
				c-1,5.1,6.2,0.3,11.1,0.3c4.9,0,12,4.5,11.1-0.7C139.1,93,136.9,97.8,129.2,97.5z"/>
			<path id="XMLID_00000005237887204087467830000006753019292580781470_" class="st1" d="M129.2,97.5c-5.3-0.2-7.7-2.2-9.2-0.6
				c-0.1,2.3-0.4,4.6-1,6.9c1.9,0.7,6.8-1.9,10.4-1.9c3.5,0,8.1,2.3,10.1,1.7c-0.7-2.3-1-4.6-1.1-7.1
				C136.7,95.8,134.1,97.6,129.2,97.5z"/>
			<path id="XMLID_00000032612174223283048150000011495916541347011997_" class="st1" d="M146.1,73.6c-6.2-0.3-8.2,6-8.2,6
				s0.3,4,6.9,3.8c7.6-0.2,8.3-3.9,8.3-3.9S152.3,73.9,146.1,73.6z"/>
			<path id="XMLID_00000173856914055165856170000018305762613671672965_" class="st1" d="M119,75.9c-2.6-1.9-6.8-2.4-10.1,3.1
				c0,0-0.3,3.1,6.7,3.2c7,0.1,7-1.4,7-1.4S121.4,77.7,119,75.9z"/>
			
				<linearGradient id="XMLID_00000088828262216031823410000011047497777701692569_" gradientUnits="userSpaceOnUse" x1="114.4357" y1="86.3579" x2="118.9969" y2="75.6065">
				<stop  offset="0" style="stop-color:#5C3333"/>
				<stop  offset="1" style="stop-color:#000000"/>
			</linearGradient>
			
				<path id="XMLID_00000160188048505831019200000012268702966291038125_" style="fill:url(#XMLID_00000088828262216031823410000011047497777701692569_);" d="
				M118.1,76.5c-1.5-0.4-3.2,1.1-3.9,3.5c-0.2,0.8-0.3,1.5-0.2,2.2c0.5,0,1,0.1,1.6,0.1c1.6,0,2.8,0,3.8-0.1
				c0.1-0.2,0.1-0.4,0.2-0.6C120.2,79.1,119.5,76.9,118.1,76.5z"/>
			<path id="XMLID_00000026881700270619113790000002091633965835275394_" class="st30" d="M113.4,80l0,0.8c0,0,4.3,0,3.8-1.8
				C116.8,77.1,113.4,80,113.4,80z"/>
			
				<linearGradient id="XMLID_00000044899225264608887810000013309682183790591121_" gradientUnits="userSpaceOnUse" x1="142.4347" y1="87.5455" x2="147.3353" y2="72.6907">
				<stop  offset="0" style="stop-color:#5C3333"/>
				<stop  offset="1" style="stop-color:#000000"/>
			</linearGradient>
			
				<path id="XMLID_00000004512353718058826530000012048851945963527810_" style="fill:url(#XMLID_00000044899225264608887810000013309682183790591121_);" d="
				M146.2,75.7c-1.5-0.4-3.2,1.1-3.9,3.5c-0.5,1.6-0.3,3.2,0.4,4.2c0.6,0.1,1.3,0.1,2,0.1c0.5,0,1,0,1.4-0.1
				c0.6-0.6,1.2-1.5,1.5-2.6C148.3,78.4,147.6,76.1,146.2,75.7z"/>
			<path id="XMLID_00000014628400194010190870000011064211129444971409_" class="st30" d="M141.4,80.3l0,1.6c0,0,4.3-0.7,3.8-2.6
				C144.7,77.4,141.4,80.3,141.4,80.3z"/>
			<path id="XMLID_00000076579601284903048130000003563439639008802704_" class="st27" d="M116.1,73.2c-5.6,0.5-7.3,5.8-7.3,5.8
				s1.7-2.7,6.5-3.3c5-0.6,7.1,5.2,7.1,5.2S122.6,72.7,116.1,73.2z"/>
			<path id="XMLID_00000158734502204237077370000011146460486217367203_" class="st27" d="M145.4,72.7c-6.7-1.2-7.6,7-7.6,7
				s1.7-5.5,8.1-4.3c6.1,1.2,7.1,4.2,7.1,4.2S152.3,73.9,145.4,72.7z"/>
			<path id="XMLID_00000022551361794037752670000015603106758789855673_" class="st32" d="M130.5,107.1c-2.1-0.3-4.1,0.6-4.6,2
				c-0.5,1.4,0.9,2.7,2.9,3c2.1,0.3,4.1-0.6,4.6-2C133.9,108.7,132.6,107.4,130.5,107.1z"/>
			<path id="XMLID_00000094611053230617243960000014974161554336119706_" class="st25" d="M131.4,59.8c-1.4-0.1-1.8,7.5-1.8,7.5
				s-1.3-5-1.9-4.7c-0.6,0.4,0.7,5.9,1.8,5.9C131.1,68.6,132.8,59.9,131.4,59.8z"/>
			<path id="XMLID_00000126305924440262336350000010002115641747856778_" class="st4" d="M134.7,170.7c-4.8,0.1-11.2,0.4-17.5,0.7
				c-10.7,0.5-22.8,1-24.8,0.6c-0.1,0-0.9-0.3-0.7-4.5c0.1-3.1,0.7-7.3,1.4-11.8c1-7.1,2.1-15.1,1.9-21.6l-1.8,0.1
				c0.2,6.3-0.9,14.3-1.9,21.2c-1.7,11.6-2.4,17.7,0.8,18.4c2.3,0.5,13.5,0,25.3-0.6c10.3-0.5,23.1-1.1,25.1-0.6
				c5.5,8.1,3.8,25.7,3.4,29.4c-5.6,0.9-44.6,7.4-63.8,10.2c0,0.6-0.1,1.2-0.1,1.9c20.4-2.9,64.4-10.3,64.9-10.4l0.7-0.1l0.1-0.7
				c0.1-0.9,3-22-3.8-31.6C143.4,170.8,143.2,170.5,134.7,170.7z"/>
			<g id="XMLID_00000154426806606427243950000007820007664356907393_">
				<path id="XMLID_00000080191129867487848920000014041764165506487966_" class="st4" d="M66.3,167.4l0.1,1.8
					c0.1,0,11.5-0.6,21.6,3c-1.8,0.2-3.9,0.5-6.2,1.2c-7.3,2.1-12.4,6.4-14.6,12.5l1.7,0.6c2-5.5,6.5-9.3,13.3-11.3
					c5.2-1.5,9.8-1.3,9.8-1.3l4.4,0.2l-4-1.9C81.3,166.6,66.9,167.3,66.3,167.4z"/>
			</g>
			<g id="XMLID_00000106140591859511703470000015182803023701747082_">
				<path id="XMLID_00000079486253389583434030000017506104795032689314_" class="st4" d="M132.8,171.9c0.1,0.3,7.4,18.8,4.1,32.1
					l1.8,0.4c3.4-13.8-3.6-31.9-3.8-32.6H132.8z"/>
			</g>
			<path id="XMLID_00000012460697476101254040000015861439732689936559_" class="st4" d="M122.1,207l-1.8,0c0,0.4-0.1,10.1,3.1,16.9
				l0.3,0.6l0.6,0c0.5,0,48.4-0.6,65.2-3.5c0-0.7,0-1.3,0-2c-15.6,2.7-59,3.4-64.7,3.6C122,216.2,122.1,207.1,122.1,207z"/>
			<g id="XMLID_00000110465119849438716410000015280258190550851730_">
				<path id="XMLID_00000096047190708073991970000005169977216162819006_" class="st4" d="M182,181.5c-3.1,0.7-6.1,1.5-7.6,2.4
					c0,0.9-0.5,2.3-0.7,3.3c5.8-0.3,15.9,7.9,19.1,11.4l1.4-1.2c-0.5-0.5-9.8-10.5-17.4-12c1.4-0.7,3.4-1.5,5.7-2
					c7-1.5,14.1,0,21.1,4.6l1-1.5C195.3,180.3,187.2,180.4,182,181.5z"/>
			</g>
			<g id="XMLID_00000103962836799021967560000015240032331210660024_">
				<path id="XMLID_00000110455351949479005020000014608173106203061673_" class="st4" d="M131.2,205.6l-1.8-0.2
					c-0.1,0.5-1.3,11.7,2.9,18.3l1.6-1C129.9,216.6,131.2,205.7,131.2,205.6z"/>
			</g>
			<g id="XMLID_00000145040595079933306460000000659282105948473506_">
				<path id="XMLID_00000088819087218766307650000012100124164347681937_" class="st4" d="M125.9,134.8c-0.4-0.4-0.7-0.8-1.1-1.2
					c-3.1-3.7-20.9-16.2-21.7-16.8l-1.1,1.5c0.2,0.1,18.3,12.9,21.3,16.4c0.3,0.4,0.7,0.8,1.1,1.2c3.2,3.7,7.6,8.7,7.8,16.6
					c0.2,9-1.1,19.3-1.1,20.2l1.9-0.8c0-0.1,1.2-10.2,1-19.4C134,144,129.1,138.4,125.9,134.8z"/>
			</g>
			<g id="XMLID_00000163785730274322315180000006088803359624293811_">
				<path id="XMLID_00000052072120491655926460000008139273283424208574_" class="st4" d="M152.4,126.8c-3.9,2.1-8.3,4.5-11.6,6.6
					c-7.5,4.5-8.6,15.6-8.7,16.1l1.8,0.2c0-0.1,1-10.6,7.8-14.7c3.3-2,7.7-4.4,11.6-6.5c4.7-2.6,8.7-4.8,10.4-6l-1.1-1.5
					C161,122.1,156.8,124.4,152.4,126.8z"/>
			</g>
			<path class="st4" d="M132.3,248.8c0.3-10.7,0.7-20.2,1.6-25.5l-1.8-0.3c-0.9,5.5-1.4,15-1.6,25.8H132.3z"/>
			<path id="XMLID_00000147199769274804788260000017207513512939195792_" class="st3" d="M83.2,98.9c-0.4,0-0.6,0.1-0.9-0.1
				c-0.3-0.2-0.6-0.4-1-0.5c0.2,0.2,0.4,0.4,0.5,0.6c0,0.3-0.2,0.5-0.4,0.7c-0.2,0.2-0.5,0.3-0.7,0.5c-0.3,0.2-0.4,0.6-0.5,0.9
				c0-0.5-0.3-1.1-0.7-1.4c0.1,0.3,0,0.7-0.2,0.9c-0.2,0.3-0.5,0.4-0.7,0.7c-0.6,0.6-0.8,1.4-0.7,2.1c-0.3-0.4-0.6-0.8-0.9-1.2
				c0,0.6-0.7,0.9-0.9,1.4c-0.2,0.6,0.4,1.3,0.5,1.9c-0.6-0.2-1.3-0.3-1.9-0.2c0.5,1.3-0.7,2.8-0.1,4.1c-0.2-0.2-0.6-0.3-0.9-0.3
				c0.1,0.6-0.1,1.1-0.1,1.7c-0.1,0.6,0,1.2,0.4,1.6c-0.4,0-0.7,0-1-0.2c-0.1,1.1-0.1,2.3,0.6,3c0.3,0.3,0.8,0.5,1,0.8
				c0.2,0.3,0.3,0.8,0.4,1.1c-0.5,0.1-0.9,0-1.3-0.1c-0.3,1.3,0.7,2.8,2,3c-0.3,0.2-0.6,0.2-0.9,0.2c0.1,1.3,1.1,2.5,2.3,2.9
				c-0.4,0.1-0.8,0.1-1.2,0.1c0.2,0.4,0,0.9,0.2,1.3c0.1,0.2,0.3,0.3,0.5,0.4c0.6,0.3,1.3,0.6,2.1,0.7c-0.5,0.3-1,0.6-1.4,0.9
				c0.6,0.2,1.1,0.7,1.7,1c0.6,0.3,1.3,0.3,2,0.4c-0.6,0.4-1.3,0.5-1.9,0.4c0.1,0.6,0.7,1.1,1.2,1.3c0.6,0.2,1.2,0.2,1.8,0.2
				c0.2,0,0.5,0,0.6,0.2c-0.3,0.3-0.7,0.4-1.1,0.5c0.5,0.3,1.1,0.5,1.7,0.7c0.4,0.1,0.7,0.3,0.4,0.8c-0.2,0.3-0.4,0.6-0.5,0.9
				c0.5,0.2,1.2,0.1,1.6-0.4c0.2,0.3,0.1,0.7-0.1,1c-0.2,0.3-0.4,0.7-0.3,1c0.6-0.1,1.2,0.2,1.8,0.2c0.6,0.1,1.4-0.2,1.5-0.8
				c0.4,0.5,0.2,1.3,0.2,2c0,0.1,0,0.3,0.1,0.4c0.1,0.2,0.4,0.2,0.7,0.1c0.9-0.1,1.8-0.3,2.7-0.4c0.4-0.1,0.9-0.2,1.1-0.5
				c-0.1,0.5,0.1,1.1,0.4,1.6c0.4,0.4,0.8,0.8,1.3,1.1c-0.2-0.5,0.3-1,0.8-1.3c0.5-0.3,1-0.6,1.1-1.1c0.8,0.3,1.5,0.9,1.9,1.5
				c0.1-0.9,1.3-1.5,1.4-2.4c1.1,0.5,2.4,0.8,3.6,0.9c-0.3-0.5-0.7-1-0.7-1.6c0-0.3,0.1-0.6,0.1-0.9c0.1-0.6-0.1-1.3-0.4-1.8
				c1.2,0.7,3,0.4,3.9-0.7c-0.9-0.5-1.6-1.1-2.2-1.9c0.6,0.1,1.2-0.2,1.6-0.7c0.4-0.5,0.6-1.1,0.7-1.7c-0.4,0-1.6,0.1-1.6-0.4
				c0-0.4,0.7-0.9,1-1.2c0.4-0.6,0.6-1.3,0.8-2c-0.5,0.1-0.9,0.1-1.4-0.1c0.7-0.8,1-2,0.7-3c-0.1,0.2-0.3,0.4-0.6,0.4
				c-0.3,0-0.5,0-0.8-0.1c0.4-0.3,0.6-0.8,0.6-1.4c0-0.9-0.5-1.7-0.5-2.6c-0.4,0.5-1.1,0.5-1.7,0.5c0.4-0.8,0.3-1.9-0.3-2.6
				c-0.3,0.2-0.6,0.4-0.9,0.7c0.2-0.6-0.2-1.2-0.7-1.7s-0.9-1-0.8-1.6c-0.2,0.2-0.4,0.4-0.6,0.6"/>
			<path id="XMLID_00000098904271328497839160000010501086510139270788_" class="st2" d="M161.5,136.3c0.1,0,0.2-0.1,0.2-0.1
				C161.6,136.3,161.6,136.3,161.5,136.3z"/>
			<path id="XMLID_00000106104815385957597950000006386029224739041930_" class="st3" d="M172.2,106.3c-1,0.1-2,0.2-3,0.3
				c0.6,0.6,1,1.4,1.2,2.2c-1.4,0.2-2.7,0.8-3.9,1.5c0.8-0.1,1.6,0.4,1.9,1.2c-1.2,0-2.3,0.4-3.3,1.1c0.3,0.9,0.7,1.7,1.3,2.4
				c-0.7,0.4-1.5,0.9-2.2,1.3c-0.2,0.1-0.4,0.3-0.5,0.5c-0.3,0.7,1,1.1,1.2,1.9c-0.8,0.1-1.3,0.8-1.8,1.3c-0.5,0.6-1.2,1.2-1.9,0.9
				c-0.6,0.4-0.7,1.3-0.3,1.9c0.4,0.6,1,1,1.6,1.4c-1.6,0.8-3.1,1.5-4.7,2.3c0.8,0.4,1.4,1,2,1.8c-0.7,0.5-1.7,0.8-2.5,0.6
				c0,0.8,0,1.6,0.4,2.3c0.3,0.7,1.1,1.3,1.9,1.2c-1.9,0.6-3.1,2.9-2.4,4.7c0.1-0.9,1.2-1.2,2.1-1c0.8,0.1,1.6,0.4,2.3,0.1
				c0.1,0,0.2-0.1,0.2-0.1c-0.1,0-0.2,0.1-0.2,0.1c-0.6,0.3-0.8,1.2-0.6,1.9c0.2,0.8,0.8,1.4,1.4,1.9c0.4-0.7,1-1.3,1.7-1.8
				c-0.1,0.5,0.4,1,0.8,1.3c1.2,0.8,2.5,1.4,3.8,1.9c0.1-0.8,0.3-1.5,0.4-2.3c1,1.2,2.6,1.8,4.2,1.8c-0.1-0.8-0.1-1.6-0.1-2.5
				c1.4,0.9,3.5,0,4.9,0.9c-0.4-0.9-0.9-1.8-1.5-2.5c1.2,0.4,2.5,0.4,3.7,0.2c-0.5-0.6-0.8-1.3-0.8-2.1c1.9,0.1,3.9-0.4,5.5-1.5
				c-0.8,0-1.6-0.6-1.7-1.5c2.2,0.7,4.7-0.7,5.4-2.9c-0.7,0.1-1.5,0-2.1-0.4c0.5-0.7,1.5-1.4,2.4-1.4c0.6,0,1.3,0.1,1.9-0.2
				c0.1,0,0.1-0.1,0.2-0.1c0.1-0.1,0-0.2,0-0.3c-0.1-0.6-0.2-1.3-0.2-1.9c0.3,0.5,1.1,0.5,1.7,0.4c0.6-0.1,1.2-0.3,1.8-0.2
				c0-1.4-0.6-2.8-1.6-3.7c1.4,0.2,3-0.6,4.3-0.1c0.3-0.4,0.1-1-0.2-1.5c-0.3-0.4-0.8-0.8-1-1.2c-0.2-0.3-0.2-0.7-0.2-1
				c0-0.1,0-0.2,0.1-0.3c0.1-0.1,0.2-0.1,0.3-0.1c1.3-0.3,2.5-1.1,3.1-2.2c-0.9-0.2-1.6-0.8-1.9-1.6c0.9-0.1,1.8-0.7,2.3-1.5
				c0.5-0.8,0.5-1.9,0.1-2.8c-0.5,0.2-1.1,0.3-1.6,0.1c0.6-0.3,1.1-0.7,1.4-1.3c0.3-0.6,0.3-1.3,0.1-2c-0.2-0.9-0.5-1.8-0.9-2.6
				c-0.3-0.1-0.6,0.1-0.7,0.4c-0.2,0.2-0.3,0.5-0.5,0.8c-0.1,0.1-0.2,0.2-0.3,0.2c-0.4,0-1.2-2.4-1.5-2.8"/>
			<path id="XMLID_00000131363846703072749010000004028941967517003177_" class="st33" d="M128.3,174.9c-0.2-0.1-0.4,0.1-0.6,0.2
				c-2.9,2.2-5.7,4.4-8.6,6.6c0.4-1.6,0.7-3.3,0.9-5c0-0.3,0.1-0.7-0.1-1c-0.2-0.5-0.7-0.8-1.2-0.9c-1.9-0.6-4-0.1-5.8,0.6
				c-1.9,0.7-3.7,1.6-5.6,2.1c-0.5,0.1-1,0.2-1.4,0c-0.5-0.2-0.9-0.6-0.8-1.1c-2.9-0.3-5.4,2.3-8.4,2.3c-0.3,0-0.7,0-0.9-0.3
				c-0.2-0.3-0.1-0.8-0.1-1.2c0-0.7-0.6-1.3-1.2-1.5c-0.6-0.2-1.3-0.2-2-0.2c-1,0.1-2,0.3-3,0.6c-3.7,1.2-7.1,4.1-9.9,6.8
				c-0.9,0.9-1.8,2.1-1.4,3.3c2.7,0.5,5.4-0.7,7.9-1.9c2.5-1.2,5.1-2.6,7.8-2.5c-1.3,2.1-2.5,4.2-3.8,6.4c-0.5,0.8-1,1.7-0.9,2.6
				c0,0.4,0.2,0.8,0.6,1c0.5,0.2,1-0.3,1.3-0.8c2.9-4,6.5-7.9,11.4-8.8c0,0.6,0.2,1.1,0.5,1.6c2.7-1.2,4.9-2.5,7.9-2.2
				c0.2,0,0.5,0.1,0.7,0.2c0.2,0.2,0.2,0.5,0.2,0.8c0.1,1.1,1,2.1,2.1,2.3c1.1,0.2,2.3-0.4,2.8-1.4c0.4,0.8,0,1.9,0.7,2.5
				c0.2,0.2,0.6,0.3,0.9,0.4c1.2,0.1,2.4-0.7,3.3-1.5c1.6-1.3,3.2-2.5,4.8-3.8c-0.1,0.8,0.3,1.7,0.9,2.2c0.2,0.2,0.4,0.3,0.6,0.3
				c0.7,0.1,1.1-0.9,1.1-1.6c0.1-2.1,0.1-4.3,0-6.4C128.7,175.4,128.6,175,128.3,174.9z"/>
			<path id="XMLID_00000108993205315901063980000001139603177500681103_" class="st33" d="M57,176.2c-1.4,6.8,10.7-1.1,10.7-1.1
				s-6.9,7-4.8,8.2c2.1,1.2,10.1-9.8,15.6-11.4C78.5,171.9,58.4,169.3,57,176.2z"/>
			<path id="XMLID_00000005240209370339838340000015474509424870462886_" class="st33" d="M85,157.4c-0.8-0.3-1.5-0.6-2.3-1
				c-0.7-0.3-1.5-0.9-1.3-1.6c0.1-0.4,0.5-0.6,0.9-0.7c0.4-0.1,0.8-0.2,1.1-0.6c0.3-0.3,0.3-0.9-0.1-1c-0.1,0-0.2,0-0.3,0
				c-3.6-0.3-7.2-0.4-10.9-0.2c-0.8,0-1.8,0.2-2,1c-0.2,0.7,0.4,1.4,1.1,1.9c0.6,0.4,1.2,0.7,1.9,0.9c-2.6,1.1-5.8,0.2-8.4,1.3
				c0,0,0,0,0,0c-0.3,0.1-0.5,0.2-0.7,0.5c-0.4,0.6,0,1.4,0.5,1.9c2.2,1.9,5.4,1,7.9,2.1c-0.2,0.3-0.7,0.4-1.1,0.5
				c-0.4,0.1-0.8,0.4-0.8,0.8c0,0.5,0.6,0.6,1.1,0.7c2.3,0.3,4.6,0.6,6.9,0.5c0.6,0,1.1-0.1,1.6-0.4c0.5-0.3,0.8-0.9,0.6-1.4
				c-0.1-0.3-0.5-0.7-0.3-1c0.1-0.1,0.2-0.2,0.3-0.2c0.7-0.4,1.4-0.7,2.2-0.8c0.8-0.2,1.6-0.2,2.2-0.5c0.7-0.4,1.2-1.3,0.7-1.9
				C85.7,157.7,85.4,157.5,85,157.4z"/>
			<path id="XMLID_00000121247121988213646890000015006954214448444599_" class="st33" d="M185.1,185c0,0-0.1,0-0.1,0
				C185,185,185,185,185.1,185z"/>
			<path id="XMLID_00000128472435054381939070000010812068335233078940_" class="st33" d="M185.1,185c2.7,0.7,13,13.2,15.2,11.7
				c2.2-1.5-7-7-7-7s12.2,6.7,13.2,3C207.5,189.2,186.9,185.4,185.1,185z"/>
			<path id="XMLID_00000133500391097856550900000008124963632085615270_" class="st33" d="M197,168.3c-2-1.1-4.3-1.6-6.6-1.6
				c-0.6,0-1.5-0.1-1.5-0.8c0-0.3,0.2-0.5,0.3-0.7c1-1.2,2.5-1.9,3.6-3c0.1-0.1,0.3-0.3,0.3-0.5c0-0.4-0.5-0.6-0.9-0.6
				c-2.2-0.1-4.5-0.1-6.6,0.4c-2.3,0.6-4.5,1.8-5.7,3.8c-0.2,0.4-0.4,1-0.2,1.4c0.4,0.7,1.7,0.4,2.1,1.1c-0.8,1.1-2,1.8-3.1,2.6
				c-1.1,0.8-2.1,1.9-2.2,3.2c0,0.2,0,0.4,0.1,0.5c0.2,0.4,0.7,0.4,1.1,0.4c0.2,0,0.4,0,0.7,0c1.5-0.1,2.9-0.2,4.4-0.2
				c0.1,0.5-0.2,1.1-0.5,1.5c-0.4,0.4-0.8,0.8-1.1,1.3c-0.1,0.2-0.2,0.5,0,0.7c0.1,0.1,0.2,0.1,0.3,0.1c1.5,0.1,2.7,0.2,4.2-0.2
				c1.6-0.5,3.1-1.1,4.6-1.8c0.1-0.1,0.3-0.1,0.3-0.2c0.3-0.4-0.3-0.9-0.8-1.1c-0.5-0.2-1.1-0.6-0.9-1.1c0.1-0.2,0.4-0.3,0.7-0.4
				c2.2-0.5,4.4-1.1,6.6-1.6c0.5-0.1,1.1-0.3,1.5-0.6c0.4-0.3,0.7-0.9,0.6-1.4C198,168.9,197.5,168.6,197,168.3z"/>
		</g>
		<path class="st34" d="M10.4,169c0-2.3-0.6-4.6-0.9-6.9C8.4,152.6,12,142.6,19,136c3.3-3.1,7.6-5.8,8.9-10.2
			c1-3.5-0.1-7.3,0.6-10.9c0.6-3.1,2.7-5.9,5.5-7.4c0.9-0.5,2.1-1,2.1-2.1c0.1-0.9-0.9-1.7-1.9-1.7c-5.2-0.1-7.7,7.7-8.2,11.6
			c-0.6,4.1-0.7,8.4-2.8,11.9c-1.6,2.7-4.3,4.7-6.6,6.9c-7.4,7.1-11.3,17.6-10.4,27.7c0.3,3.6,1.3,7.4,4.1,9.8
			C10.4,170.8,10.5,169.9,10.4,169z"/>
		<path class="st34" d="M30.3,169.8c-0.1-2.4-0.6-4.8-0.9-7.2c-1.2-10,2.6-20.5,9.9-27.4c3.5-3.3,7.9-6.1,9.3-10.7
			c1.1-3.7-0.1-7.7,0.6-11.5c0.6-3.3,2.8-6.2,5.8-7.8c1-0.5,2.2-1.1,2.2-2.2c0.1-1-1-1.8-2-1.8c-5.5-0.2-8,8.1-8.6,12.2
			c-0.6,4.3-0.7,8.8-3,12.5c-1.7,2.9-4.5,4.9-6.9,7.3c-7.7,7.4-11.9,18.4-11,29.1c0.3,3.8,1.4,7.8,4.3,10.3
			C30.3,171.7,30.3,170.7,30.3,169.8z"/>
		<path class="st34" d="M258.1,169c0-2.3,0.6-4.6,0.9-6.9c1.2-9.5-2.4-19.5-9.5-26.1c-3.3-3.1-7.6-5.8-8.9-10.2
			c-1-3.5,0.1-7.3-0.6-10.9c-0.6-3.1-2.7-5.9-5.5-7.4c-0.9-0.5-2.1-1-2.1-2.1c-0.1-0.9,0.9-1.7,1.9-1.7c5.2-0.1,7.7,7.7,8.2,11.6
			c0.6,4.1,0.7,8.4,2.8,11.9c1.6,2.7,4.3,4.7,6.6,6.9c7.4,7.1,11.3,17.6,10.4,27.7c-0.3,3.6-1.3,7.4-4.1,9.8
			C258.1,170.8,258,169.9,258.1,169z"/>
		<path class="st34" d="M238.2,169.8c0.1-2.4,0.6-4.8,0.9-7.2c1.2-10-2.6-20.5-9.9-27.4c-3.5-3.3-7.9-6.1-9.3-10.7
			c-1.1-3.7,0.1-7.7-0.6-11.5c-0.6-3.3-2.8-6.2-5.8-7.8c-1-0.5-2.2-1.1-2.2-2.2c-0.1-1,1-1.8,2-1.8c5.5-0.2,8,8.1,8.6,12.2
			c0.6,4.3,0.7,8.8,3,12.5c1.7,2.9,4.5,4.9,6.9,7.3c7.7,7.4,11.9,18.4,11,29.1c-0.3,3.8-1.4,7.8-4.3,10.3
			C238.2,171.7,238.2,170.7,238.2,169.8z"/>
	</g>
</g>
</svg>
