<?xml version="1.0" encoding="utf-8"?>
<!-- Generator: Adobe Illustrator 26.2.1, SVG Export Plug-In . SVG Version: 6.00 Build 0)  -->
<svg version="1.1" id="a" xmlns="http://www.w3.org/2000/svg" xmlns:xlink="http://www.w3.org/1999/xlink" x="0px" y="0px"
	 viewBox="0 0 186.7 192.6" style="enable-background:new 0 0 186.7 192.6;" xml:space="preserve">
<style type="text/css">
	.st0{opacity:0.5;enable-background:new    ;}
	.st1{fill:#FFFFFF;}
	.st2{fill:#FCC172;}
	.st3{fill:#7B4232;}
	.st4{opacity:0.2;}
	.st5{fill:#663124;}
	.st6{fill:#98604F;}
	.st7{fill:#889138;}
	.st8{fill:#5C7835;}
	.st9{fill:#A3A84C;}
	.st10{fill:#B98D68;}
	.st11{fill:#7DAC45;}
	.st12{fill:#96BE61;}
	.st13{fill:#539242;}
	.st14{fill:#BFDA7E;}
	.st15{fill:#2C773B;}
	.st16{fill:#F3752F;}
	.st17{fill:#F05B22;}
	.st18{fill:#F58D46;}
	.st19{fill:#85A43D;}
	.st20{fill:#77903B;}
	.st21{fill:#FAB061;}
	.st22{fill:#F6F4C0;}
	.st23{fill:#FCFAE1;}
	.st24{fill:#E1DD95;}
	.st25{fill:#FCB63B;}
	.st26{fill:#FFCC6A;}
	.st27{fill:#EE9D20;}
	.st28{fill:#7F4829;}
	.st29{fill:#CB3D2D;}
	.st30{fill:#E55245;}
	.st31{fill:#B52B26;}
	.st32{fill:#F27360;}
	.st33{fill:#E9D99A;}
	.st34{fill:#F39C56;}
	.st35{fill:#DA7D35;}
</style>
<path class="st0" d="M81.2,190.6c-0.7,0-1.4-0.1-2.1-0.4s-1.3-0.5-2-0.8c-3-0.4-6-0.8-8.8-1.4c-12-2.4-22.6-7.3-31.8-14.6
	c-1.5-0.8-2.9-1.6-4.2-2.6c-1.1-0.8-1.8-1.9-2.1-3.2c-1.8-1.8-3.5-3.8-5.2-5.8c-3.9-4.7-7-10-9.4-15.6c-1.2-1-1.8-2.5-1.8-4
	c0-0.2,0-0.4,0-0.7c-1.4-4-2.3-8.1-2.9-12.2c-0.1-0.2-0.2-0.5-0.3-0.8c-0.2-0.7-0.2-1.5-0.1-2.2c-0.2-2.7-0.3-5.4-0.2-8
	c-2.2-2.8-3.4-6.3-3.4-10.1c0-3.5,1.5-9.1,10.2-11.1c-0.5-2.1-1.4-4.3-2.3-6.6c-1.3-3.1-2.6-6.3-3.1-10c-0.6-4.3,0.2-8.2,2.3-11.1
	c-0.1-0.8-0.2-1.6-0.1-2.5c0.2-2.4,1.3-4.4,3-5.6c1-0.7,2.2-1.1,3.4-1.1c2.8,0,5.2,2,5.6,4.7v0.1c1.1,0.2,2.1,0.4,3.1,0.8
	c0.1-0.8,0.2-1.6,0.3-2.4c0.9-6.2,2.8-11,6-14.5c3.9-4.4,9.2-6.5,14-8c0.7-0.2,1.4-0.4,2.1-0.7c2.5-0.8,5-1.5,7.1-2.6
	c0.3-0.6,0.7-1.2,1.1-1.7c1-1.1,2.4-1.7,3.8-1.7c0.5,0,1,0.1,1.5,0.2c0.2,0,0.3,0.1,0.5,0.1c2.3,0.6,4,2.4,4.3,4.7
	c0.1,0.6,0.1,1.2,0,1.6c1.6,0.8,3.1,1.8,4.3,3.2c0.3,0.3,0.6,0.6,0.8,1c0.9-1,1.9-2,2.9-2.9c0-0.1,0.1-0.1,0.1-0.2
	c0.8-1.9,2.5-3.2,4.5-3.6c3.2-2.3,6.6-4.2,10.1-5.6c0.7-0.3,1.4-0.5,2.1-0.8l0.5-0.2c0.7-0.2,1.4-0.5,2.1-0.7c0,0,0.1,0,0.1,0
	c0.7-0.2,1.3-0.4,2-0.6l0.4-0.1c0.9-0.5,1.9-0.8,3-0.8c0.2,0,0.4,0,0.6,0c0.2,0,0.4-0.1,0.7-0.1l0.5-0.1c0.7-0.1,1.4-0.2,2.1-0.3
	c0,0,0.2,0,0.2,0c0.7-0.1,1.3-0.1,1.9-0.2c0.1,0,0.3,0,0.5,0c0.7,0,1.3-0.1,2-0.1c0.1,0,0.3,0,0.3,0c1.1,0,2.1,0,3.2,0.1
	c0.5-0.2,1-0.3,1.5-0.4c0.3-0.2,0.5-0.3,0.8-0.5c0.6-0.3,1.3-0.4,1.9-0.4c1.2,0,2.3,0.4,3.2,1.2c0.6,0.5,1.2,1.1,1.8,1.7
	c0.4-4.6,1.2-9.2,2.3-13.7c0.6-2.3,2.6-3.8,4.8-3.8c0.4,0,0.8,0.1,1.2,0.2c2,0.5,3.5,2.2,3.7,4.2c0.4,0.8,1.3,2.3,1.8,3.2
	c0.9,1.5,1.4,2.4,1.7,3.2c0,0,0,0.1,0.1,0.1c2.5-5.5,5.6-10.6,9.1-15.4c1-1.3,2.5-2,4-2c0.5,0,1.1,0.1,1.6,0.2
	c2,0.7,3.4,2.6,3.4,4.7c0,6.7,0,13.5-0.7,20.3c3.5-2.7,7.3-4.9,11.2-6.8c0.7-0.3,1.4-0.5,2.1-0.5c1.3,0,2.5,0.5,3.5,1.4
	c1.5,1.4,1.9,3.7,1.1,5.6c-2,4.7-4,9.4-6.5,14c1.1-0.3,2.3-0.5,3.4-0.8c0.3-0.1,0.6-0.1,1-0.1c1.6,0,3.1,0.7,4,2
	c1.1,1.5,1.3,3.6,0.4,5.3c-1.4,2.7-3,5.2-4.9,7.5c0.4,3,0.3,6-0.4,8.9c1.5,1.6,2.5,3.5,3,4.8c3.3,7.7,4,16.7,2.3,26.5
	c4.3,1.8,6.8,4.6,7.4,8.2c0.4,2,0.3,5.6-3.4,9.2c0.2,6.2-1.1,17.4-5.9,28.8c0,0.1,0,0.1,0,0.1c0.5,2.5-0.8,5.1-3.1,6.3
	c-3,5.6-6.7,10.5-11,14.8c-10.4,10.4-28.9,19.1-45,21.2c-2.2,0.3-4.4,0.5-6.7,0.8c-0.5,0.1-0.9,0.2-1.4,0.2c-0.1,0-0.2,0-0.3,0
	c-4.9,0.4-9.7,0.6-14.4,0.6c-3.3,0-6.6-0.1-9.7-0.3C82.9,190.4,82.1,190.6,81.2,190.6L81.2,190.6z M41.2,75.9c0.7,0.8,1.3,1.5,2,2.2
	c1.1-1.6,2.1-3.2,3-4.8c-0.7,0.3-1.3,0.7-2,1C43.2,74.9,42.2,75.4,41.2,75.9C41.2,75.9,41.2,75.9,41.2,75.9L41.2,75.9z M88.5,67.7
	c2.8,0.3,5.5,1.1,8.2,2.2c1.2-0.9,2.5-1.8,3.9-2.4c1.2-4.8,4.9-9.1,10.2-11.2c-0.6-1.7-0.3-3.6,0.8-5c0.3-0.4,0.7-0.7,1.1-1
	c-0.6-0.1-1.1-0.2-1.7-0.2c-0.1,0-0.5,0-0.5,0c-0.9,0.5-1.9,0.7-2.9,0.7c-0.4,0-0.8,0-1.2-0.1c-1.6,0.5-3.3,1.3-5,2.3
	c-0.6,0.4-1.2,0.8-1.9,1.2c-0.2,0.9-0.7,1.8-1.4,2.5c-1,1.1-2.4,1.8-3.9,1.9c-0.5,0.5-0.9,1-1.3,1.5c-0.3,0.4-0.6,0.8-0.9,1.1
	c-0.6,0.8-1.1,1.5-1.5,2.2c0,0.9-0.3,1.8-0.7,2.6C89.3,66.8,88.9,67.3,88.5,67.7z"/>
<path class="st1" d="M76.2,185.6c-0.7,0-1.4-0.1-2.1-0.4s-1.3-0.5-2-0.8c-3-0.4-6-0.8-8.8-1.4c-12-2.4-22.6-7.3-31.8-14.6
	c-1.5-0.8-2.9-1.6-4.2-2.6c-1.1-0.8-1.8-1.9-2.1-3.2c-1.8-1.8-3.5-3.8-5.2-5.8c-3.9-4.7-7-10-9.4-15.6c-1.2-1-1.8-2.5-1.8-4
	c0-0.2,0-0.4,0-0.7c-1.4-4-2.3-8.1-2.9-12.2c-0.1-0.2-0.2-0.5-0.3-0.8c-0.2-0.7-0.2-1.5-0.1-2.2c-0.2-2.7-0.3-5.4-0.2-8
	c-2.2-2.8-3.4-6.3-3.4-10.1c0-3.5,1.5-9.1,10.2-11.1c-0.5-2.1-1.4-4.3-2.3-6.6c-1.3-3.1-2.6-6.3-3.1-10C6.1,71.4,7,67.5,9.1,64.6
	C8.9,63.8,8.9,63,9,62.2c0.2-2.4,1.3-4.4,3-5.6c1-0.7,2.2-1.1,3.4-1.1c2.8,0,5.2,2,5.6,4.7v0.1c1.1,0.2,2.1,0.5,3.1,0.8
	c0.1-0.8,0.2-1.6,0.3-2.4c0.9-6.2,2.8-11,6-14.5c3.9-4.4,9.2-6.5,14-8c0.7-0.2,1.4-0.4,2.1-0.7c2.5-0.8,5-1.5,7.1-2.6
	c0.3-0.6,0.7-1.2,1.1-1.7c1-1.1,2.4-1.7,3.8-1.7c0.5,0,1,0.1,1.5,0.2c0.2,0,0.3,0.1,0.5,0.1c2.3,0.6,4,2.4,4.3,4.7
	c0.1,0.6,0.1,1.2,0,1.6c1.6,0.8,3.1,1.8,4.3,3.2c0.3,0.3,0.6,0.6,0.8,1c0.9-1,1.9-2,2.9-2.9c0-0.1,0.1-0.1,0.1-0.2
	c0.8-1.9,2.5-3.2,4.5-3.6c3.2-2.3,6.6-4.2,10.1-5.6c0.7-0.3,1.4-0.5,2.1-0.8l0.5-0.2c0.7-0.2,1.4-0.5,2.1-0.7c0,0,0.1,0,0.1,0
	c0.7-0.2,1.3-0.4,2-0.6l0.4-0.1c0.9-0.5,1.9-0.8,3-0.8c0.2,0,0.4,0,0.6,0c0.2,0,0.4-0.1,0.7-0.1l0.5-0.1c0.7-0.1,1.4-0.2,2.1-0.3
	c0,0,0.2,0,0.2,0c0.7-0.1,1.3-0.1,1.9-0.2c0.1,0,0.3,0,0.5,0c0.7,0,1.3-0.1,2-0.1c0.1,0,0.3,0,0.3,0c1.1,0,2.1,0,3.2,0.1
	c0.5-0.2,1-0.3,1.5-0.4c0.3-0.2,0.5-0.3,0.8-0.5c0.6-0.3,1.3-0.4,1.9-0.4c1.2,0,2.3,0.4,3.2,1.2c0.6,0.5,1.2,1.1,1.8,1.7
	c0.4-4.6,1.2-9.2,2.3-13.7c0.6-2.3,2.6-3.8,4.8-3.8c0.4,0,0.8,0.1,1.2,0.2c2,0.5,3.5,2.2,3.7,4.2c0.4,0.8,1.3,2.3,1.8,3.2
	c0.9,1.5,1.4,2.4,1.7,3.2c0,0,0,0.1,0.1,0.1c2.5-5.5,5.6-10.6,9.1-15.4c1-1.3,2.5-2,4-2c0.5,0,1.1,0.1,1.6,0.2
	c2,0.7,3.4,2.6,3.4,4.7c0,6.7,0,13.5-0.7,20.3c3.5-2.7,7.3-4.9,11.2-6.8c0.7-0.3,1.4-0.5,2.1-0.5c1.3,0,2.5,0.5,3.5,1.4
	c1.5,1.4,1.9,3.7,1.1,5.6c-2,4.7-4,9.4-6.5,14c1.1-0.3,2.3-0.5,3.4-0.8c0.3-0.1,0.6-0.1,1-0.1c1.6,0,3.1,0.7,4,2
	c1.1,1.5,1.3,3.6,0.4,5.3c-1.4,2.7-3,5.2-4.9,7.5c0.4,3,0.3,6-0.4,8.9c1.5,1.6,2.5,3.5,3,4.8c3.3,7.7,4,16.7,2.3,26.5
	c4.3,1.8,6.8,4.6,7.4,8.2c0.4,2,0.3,5.6-3.4,9.2c0.2,6.2-1.1,17.4-5.9,28.8c0,0.1,0,0.1,0,0.1c0.5,2.5-0.8,5.1-3.1,6.3
	c-3,5.6-6.7,10.5-11,14.8c-10.4,10.4-28.9,19.1-45,21.2c-2.2,0.3-4.4,0.5-6.7,0.8c-0.5,0.1-0.9,0.2-1.4,0.2c-0.1,0-0.2,0-0.3,0
	c-4.9,0.4-9.7,0.6-14.4,0.6c-3.3,0-6.6-0.1-9.7-0.3C77.9,185.4,77.1,185.6,76.2,185.6L76.2,185.6z M36.2,70.9c0.7,0.8,1.3,1.5,2,2.2
	c1.1-1.6,2.1-3.2,3-4.8c-0.7,0.3-1.3,0.7-2,1C38.2,69.9,37.2,70.4,36.2,70.9C36.2,70.9,36.2,70.9,36.2,70.9L36.2,70.9z M83.5,62.7
	c2.8,0.3,5.5,1,8.2,2.2c1.2-1,2.5-1.8,3.9-2.4c1.2-4.8,4.9-9.1,10.2-11.2c-0.6-1.7-0.3-3.6,0.8-5c0.3-0.4,0.7-0.7,1.1-1
	c-0.6-0.1-1.1-0.2-1.7-0.2c-0.1,0-0.5,0-0.5,0c-0.9,0.5-1.9,0.7-2.9,0.7c-0.4,0-0.8,0-1.2-0.1c-1.6,0.5-3.3,1.3-5,2.3
	c-0.6,0.4-1.2,0.8-1.9,1.2c-0.2,0.9-0.7,1.8-1.4,2.5c-1,1.1-2.4,1.8-3.9,1.9c-0.5,0.5-0.9,1-1.3,1.5c-0.3,0.4-0.6,0.8-0.9,1.1
	c-0.6,0.8-1.1,1.5-1.5,2.2c0,0.9-0.3,1.8-0.7,2.6C84.3,61.8,83.9,62.3,83.5,62.7z"/>
<g>
	<path class="st2" d="M80.3,57.3c3.6-7,13.1-15,20.9-16.7c8.7-1.9,15.1,2.7,20.8,9.3c5.8,6.6,8.6,15.2,10.8,23.7
		c2.7,10.3,4.3,22.8,5.6,33.4c2.8-1.8,5.1,1.2,8.6-3.6c0.6-10.8-0.9-22.9-2.7-33.5s-7.1-21.2-14-29.3c-11.2-13-25.9-13.8-41.1-7.9
		C74.8,38.4,65,52.6,60.7,67.5s-3.7,30.8-2.7,46.4c5.4,1.6,11.2,1.8,16,2.2c-0.7-13.1-0.3-26.3,1.3-39.4
		C76.1,70.1,77.3,63.3,80.3,57.3L80.3,57.3z"/>
	<g>
		<path class="st3" d="M116,129.5c3.5,2.1,8.2,2.1,11.8,0.1s5.8-6.2,5.7-10.3c3.3,0.7,6.2-2.4,7.5-5.5c1.8-4.2,2.1-9.1,0.8-13.5
			c3.3-1.8,5.8-4.9,6.8-8.5c1-3.6,0.6-7.6-1.2-10.8c2.4-3.4,2.6-8.3,0.3-11.8s-6.7-5.5-10.8-4.7c0.5-1.4-0.2-2.9-1.2-3.9
			s-2.4-1.5-3.8-2c-3.4-1.2-7-2.2-10.5-2.9c-4.5-0.9-9.3-1.3-13.5,0.3c-4.3,1.6-7.9,5.7-7.6,10.3c-3.8,0.8-7.2,3.4-9,6.9
			s-2,7.7-0.4,11.3c-3.9,1.9-6.8,5.9-7.4,10.2s1,8.9,4.2,11.9c-2.2,2.8-2.8,6.8-1.4,10.1s4.7,5.7,8.3,5.9c0.5,4.4,4.4,8,8.7,9
			S112,131.4,116,129.5L116,129.5z"/>
		<path class="st4" d="M96.8,69.7c-3.2,2-5.1,5.9-4.6,9.7c0.2,1.3,0.7,2.7,1.8,3.3c1.1,0.6,2.4,0.3,3.6,0c1.8-0.5,3.6-1.1,5.1-2.1
			s2.9-2.4,3.6-4.1c0.8-2.3,0.2-5.1-1.4-6.8c-1.7-1.8-4.4-2.4-6.8-1.7C98.1,68,96.8,69.7,96.8,69.7z"/>
		<path d="M86.3,91.3c-1.6,3.3-1.3,7.4,0.6,10.5c0.8,1.2,1.9,2.3,3.4,2.2c1.7-0.1,2.7-1.9,3.2-3.5c0.6-2.2,0.7-4.6,0.8-6.9
			c0.1-1.9,0-4.2-1.6-5.3c-1.1-0.8-2.6-0.7-3.8,0C87.7,89,86.9,90.1,86.3,91.3L86.3,91.3z"/>
		<path d="M109.4,105.3c1.7-0.9,3.3-2.1,3.9-3.9c0.8-2.3-0.2-4.7-1.1-6.9c-0.9-2.1-1.9-4.2-3.9-5.3c-2.2-1.1-4.9-0.4-7.2,0.6
			c-1.4,0.6-2.8,1.5-3.4,2.9c-0.6,1.4-0.2,2.9,0.1,4.4c0.3,1.6,0.5,3.2,1,4.8s1.4,3.1,2.8,3.9C103.8,107.3,106.9,106.6,109.4,105.3
			L109.4,105.3z"/>
		<path class="st4" d="M123.3,73.3c-0.5-1.6-1.4-3.1-2.8-4c-2.2-1.4-5-0.8-7.5-0.2c-1.3,0.3-2.7,0.7-3.5,1.7c-0.9,1.1-0.9,2.6-0.8,4
			c0.2,2.4,0.8,4.7,1.7,6.9c0.5,1.3,1.3,2.6,2.6,3.1c1.3,0.5,2.8,0,4.2-0.5c2.7-1.1,5.4-2.7,6.4-5.5
			C124.1,77.1,123.9,75.1,123.3,73.3L123.3,73.3z"/>
		<path d="M132.8,93.1c0.6-2.9-1.4-6-4.2-7.2s-6-0.7-8.7,0.5c-1.5,0.7-3.1,1.7-3.5,3.3c-0.2,0.9-0.1,1.8,0.1,2.7
			c0.5,2,1.3,3.8,2.5,5.5c0.8,1.1,1.8,2.2,3.1,2.5c1.7,0.4,3.3-0.4,4.8-1.2C129.4,97.8,132.2,96,132.8,93.1z"/>
		<path class="st4" d="M143.1,93.5c1.3-1.1,2.3-2.6,2.9-4.2s0.6-3.4-0.1-5c-0.4-1-1.1-1.9-2.1-2.3c-1.1-0.5-2.3-0.3-3.4-0.2
			c-1.1,0.2-2.3,0.3-3.3,0.8c-1.1,0.4-2,1.2-2.4,2.3c-0.4,1-0.3,2-0.1,3.1c0.4,1.8,1.1,3.5,2.1,5c0.6,0.8,1.3,1.7,2.2,2
			C140.4,95.4,142,94.6,143.1,93.5L143.1,93.5z"/>
		<path class="st4" d="M135.7,79c2-0.6,3.9-1.4,5.7-2.4c1.1-0.6,2.3-1.4,2.8-2.6c0.7-1.6,0.1-3.5-1.1-4.7c-1.2-1.2-2.9-1.8-4.6-2.2
			c-2.3-0.4-4.8-0.4-7.1,0.1c-1.4,0.3-2.8,0.9-3.4,2.2c-0.6,1.3-0.1,2.9,0.4,4.2c0.3,1.1,0.6,2.1,1,3.1c0.5,1,1.2,1.9,2.2,2.3
			C132.9,79.7,134.4,79.4,135.7,79L135.7,79z"/>
		<path class="st4" d="M106,66.6c0.7,0.5,1.7,0.5,2.5,0.4c2.4-0.3,4.8-0.9,7.1-1.7c1.4-0.5,3-1.3,3.5-2.8c0.6-1.6-0.4-3.4-1.8-4.3
			s-3.2-1.1-4.8-1.2c-1.3,0-2.6,0-3.8,0.3s-2.4,1.1-3,2.2c-0.7,1.2-0.7,2.7-0.7,4.1C105,64.7,105.1,66,106,66.6L106,66.6z"/>
		<path d="M130.7,112.6c0.7,1.4,1.8,2.6,3.3,2.9c1.8,0.3,3.5-0.8,4.5-2.3c1-1.5,1.4-3.3,1.9-5c0.4-1.5,1-3.1,0.5-4.6
			c-0.5-1.6-2.1-2.7-3.8-2.8c-1.7-0.2-3.3,0.3-4.8,1.1c-1.5,0.7-3,1.9-3.2,3.5c-0.1,0.8,0,1.5,0.2,2.3
			C129.6,109.4,130,111.1,130.7,112.6L130.7,112.6z"/>
		<path d="M115.7,120.8c1.3,0.2,2.6-0.4,3.8-1c2-1,3.9-2.2,5.2-3.9s2-4.2,1.2-6.2c-0.6-1.5-2-2.7-3.5-3.3c-1.5-0.6-3.2-0.7-4.9-0.6
			c-2.2,0.2-4.4,0.8-6.4,1.8c-1,0.5-2.1,1.2-2.5,2.3c-0.3,0.9-0.1,2,0.3,2.9c0.7,1.9,1.7,3.7,2.9,5.3
			C112.7,119.4,114,120.6,115.7,120.8L115.7,120.8z"/>
		<path d="M96.9,108.2c-2.1-0.6-4.5-0.6-6.4,0.5c-1.2,0.7-2.1,1.9-2.2,3.2c-0.1,1,0.3,1.9,0.8,2.8c0.8,1.6,1.9,3.1,3.2,4.3
			c0.8,0.8,1.7,1.6,2.8,1.6c1.7,0.2,3.1-1.2,4.1-2.6c0.8-1.1,1.4-2.2,1.7-3.4c0.3-1.2,0.3-2.6-0.3-3.8
			C100,109.5,98.4,108.7,96.9,108.2L96.9,108.2z"/>
		<path d="M108.2,118.9c-1.1-0.8-2.5-1.1-3.8-0.9c-2.6,0.3-4.9,2.2-5.7,4.7c-0.3,1-0.4,2.2,0.2,3.1c0.4,0.7,1.2,1.1,2,1.5
			c1.2,0.6,2.5,1,3.8,1.4c1,0.3,2.1,0.5,3,0.2c1.8-0.6,2.6-2.7,2.7-4.6C110.5,122.3,109.8,120.1,108.2,118.9L108.2,118.9z"/>
		<path d="M119.6,123.9c-0.2,0.7-0.4,1.5-0.3,2.2s0.5,1.5,1.2,1.8c0.6,0.2,1.2,0.1,1.8,0c1.6-0.3,3.2-0.8,4.7-1.8s2.6-2.2,3.1-3.8
			c0.1-0.4,0.2-1,0.1-1.4c-0.3-0.7-1.3-0.9-2.1-0.8C125.3,120.4,121.6,122.2,119.6,123.9L119.6,123.9z"/>
		<path class="st5" d="M99.2,85.6c0-0.3-0.3-0.6-0.6-0.7c-0.7-0.2-1.6-0.1-1.9,0.6c0,0,0,0,0,0c-0.1,0-0.1,0.1-0.2,0.1
			c-0.2,0.2-0.3,0.5-0.2,0.8c0.5,0.9,2,0.5,2.6,0C99.1,86.2,99.2,86,99.2,85.6z"/>
		<g>
			<path class="st5" d="M103.2,83.9L103.2,83.9z"/>
			<path class="st5" d="M104.4,82.8c-0.1,0-0.3,0.1-0.4,0.1c-0.2,0.1-0.3,0.2-0.4,0.3c-0.1,0.1-0.1,0.2-0.2,0.3
				c-0.1,0.1-0.1,0.2-0.2,0.2l0,0.1l0,0.1l0,0c0,0.1,0,0.1,0,0c0,0.1-0.1,0.2,0,0.2c0,0.1,0.1,0.2,0.1,0.3c0.1,0.1,0.3,0.2,0.5,0.2
				c0.3-0.1,0.5-0.2,0.8-0.4c0.1-0.1,0.2-0.2,0.3-0.3c0.1-0.1,0.2-0.3,0.2-0.5C105.1,83.1,104.8,82.7,104.4,82.8L104.4,82.8z"/>
		</g>
		<path class="st5" d="M106.6,80.7c0-0.4-0.7-0.5-0.8-0.1c-0.1,0.2-0.1,0.4,0.1,0.6c0.1,0.2,0.3,0.2,0.5,0.1
			C106.5,81.1,106.6,81,106.6,80.7L106.6,80.7z"/>
		<path class="st5" d="M95.5,102.7c-0.4-0.2-0.8-0.2-1.3,0c-0.3,0.2-0.5,0.5-0.4,0.8l0,0c-0.1,0.1-0.2,0.1-0.2,0.2h0
			c-0.4,0.3-0.4,0.9,0.2,1.2c0.8,0.3,1.7-0.2,2.1-0.8C96.2,103.6,96.1,102.9,95.5,102.7L95.5,102.7z"/>
		<path class="st5" d="M95.5,99.4c-0.3,0-0.6,0.2-0.6,0.5v0.4c0,0.4,0.7,0.4,0.8,0.1l0.1-0.4C96,99.7,95.8,99.4,95.5,99.4L95.5,99.4
			z"/>
		<path class="st5" d="M113.9,125.6c0-0.3,0-0.6,0-0.9c0-0.2,0-0.4-0.2-0.6c-0.2-0.3-0.6-0.3-0.9-0.2c-0.4,0.1-0.5,0.5-0.6,0.8
			c-0.1,0.2-0.2,0.5-0.3,0.7c-0.2,0.6,0.1,1.2,0.8,1.3C113.4,126.7,114.1,126.2,113.9,125.6L113.9,125.6z"/>
		<path class="st5" d="M126.6,101.7c-0.4,0-0.6,0.1-1,0.2h0c-0.1,0-0.1,0-0.2,0c0,0-0.1,0-0.1,0c-0.1,0-0.2,0-0.3,0
			c-0.3,0.1-0.6,0.3-0.7,0.7c-0.1,0.4,0.2,0.7,0.5,0.8c0.4,0.2,0.8,0.2,1.2,0.1c0.2,0,0.4-0.1,0.6-0.2c0.3-0.1,0.5-0.3,0.7-0.6
			C127.6,102.4,127.1,101.8,126.6,101.7L126.6,101.7z"/>
		<path class="st5" d="M130.6,99.6c0-0.2-0.1-0.3-0.3-0.3c-0.1,0-0.1,0-0.2,0c-0.1,0-0.3,0-0.4,0.1c-0.3,0.1-0.4,0.4-0.3,0.7
			c0.1,0.2,0.2,0.2,0.3,0.3c0.2,0.1,0.5,0,0.6-0.2c0-0.1,0.1-0.2,0.1-0.2C130.6,99.8,130.6,99.6,130.6,99.6z"/>
		<path class="st5" d="M116.5,101.1c-0.2-0.5-1-0.5-1.2,0c0,0-0.1,0.2-0.1,0.2c0,0-0.1,0.1-0.1,0.1c0,0-0.2,0.2-0.1,0.1
			c-0.1,0.1-0.2,0.2-0.2,0.2l-0.1,0.1c0.1-0.1,0.1-0.1-0.1,0.1c-0.1,0.2-0.2,0.4-0.2,0.6c-0.1,0.4,0.3,0.8,0.7,0.9
			c0.6,0.1,1.2-0.4,1.4-0.9C116.7,102,116.7,101.5,116.5,101.1L116.5,101.1z"/>
		<path class="st5" d="M114,103.6c-0.3,0.2-0.7,0.3-0.9,0.5c-0.2,0.3,0,0.6,0.3,0.6c0.4-0.1,0.7-0.3,0.9-0.5
			C114.7,104,114.4,103.4,114,103.6z"/>
		<path class="st5" d="M126.9,80.5c0.1-0.4,0.2-0.8,0.1-1.2c0-0.3-0.2-0.5-0.4-0.6c-0.1-0.1-0.1-0.1-0.2-0.1c-0.1,0-0.1,0-0.2,0
			c-0.5-0.1-0.9,0.3-1,0.8c-0.1,0.4-0.1,0.9,0,1.3c0.1,0.4,0.5,0.7,0.9,0.7c0.3,0,0.5-0.2,0.7-0.5l0,0
			C126.9,80.6,126.9,80.5,126.9,80.5L126.9,80.5z"/>
		<path class="st5" d="M130.2,81.2c-0.1-0.2-0.3-0.3-0.5-0.3c-0.2,0-0.5,0.2-0.6,0.3c0.1-0.1,0,0-0.1,0.1c0,0,0,0,0,0
			c0,0-0.1,0-0.1,0.1c-0.2,0.1-0.3,0.3-0.2,0.5l0,0c0-0.1,0,0,0.1,0.1c0.1,0.1,0.1,0.1,0.2,0.2c0.2,0.1,0.4,0.1,0.5,0.1
			C130,82.2,130.4,81.7,130.2,81.2L130.2,81.2z"/>
		<path class="st5" d="M122.7,64.4L122.7,64.4C122.7,64.4,122.7,64.3,122.7,64.4L122.7,64.4c0-0.2-0.1-0.4-0.2-0.5
			c-0.3-0.3-0.7-0.4-1.1-0.2c-0.4,0.1-0.6,0.8-0.8,1.1c-0.5,0.7,0.2,1.5,1,1.2C122.2,65.8,122.8,65.1,122.7,64.4L122.7,64.4z"/>
		<path class="st5" d="M125,67.7c-0.1-0.2-0.3-0.4-0.6-0.4c-0.2-0.1-0.7,0-0.9,0.2c-0.2,0.2-0.3,0.4-0.2,0.6
			c0.1,0.2,0.5,0.5,0.7,0.5c0.3,0,0.6,0,0.8-0.3C125.1,68.1,125.1,67.9,125,67.7L125,67.7z"/>
		<path class="st5" d="M127.2,63.8c-0.4,0.2-0.7,0.6-0.8,1c0,0.2,0.2,0.4,0.4,0.3c0.1,0,0.2,0,0.3-0.1c0.1,0,0.2-0.1,0.3-0.2
			c0.2-0.1,0.4-0.4,0.4-0.7C127.9,63.9,127.4,63.7,127.2,63.8L127.2,63.8z"/>
		<path class="st5" d="M104,112.2c-0.3-0.4-1-0.2-1,0.3c0,0.3-0.1,0.6-0.1,0.9c-0.1,0.4-0.2,0.8-0.1,1.1c0.1,0.6,0.8,0.9,1.3,0.5
			C104.9,114.3,104.6,113,104,112.2L104,112.2z"/>
		<path class="st6" d="M105.5,91.2c-0.8,0.1-1.5,0.3-2.2,0.6c-0.5,0.2-1,0.3-1.4,0.6c-0.4,0.3-0.9,0.6-1.2,0.9
			c-0.3,0.2-0.5,0.7-0.3,1.1c0.7,1.2,2.1,1,3.3,0.8c1.1-0.2,3.2-0.7,3.7-1.9C108,91.9,106.8,91,105.5,91.2L105.5,91.2z"/>
		<path class="st6" d="M102.9,96.2c-0.4-0.3-1-0.2-1.3,0.2c-0.1,0.1-0.2,0.3-0.2,0.4c0,0,0,0-0.1,0.1c-0.2,0.2-0.2,0.5-0.1,0.7
			c0.1,0.2,0.2,0.2,0.3,0.4c0.2,0.2,0.6,0.2,0.8,0.1c0.1-0.1,0.2-0.1,0.3-0.2c0,0,0.1,0,0.1-0.1c0.2-0.1,0.3-0.2,0.4-0.3
			C103.4,97.1,103.3,96.5,102.9,96.2L102.9,96.2z"/>
		<path class="st6" d="M106.4,95.7c-0.1,0.1-0.1,0.1-0.2,0.2l-0.1,0.1c-0.3,0.1-0.2,0.5,0.1,0.6c0.1,0,0.2,0,0.4,0
			c0.2,0,0.4-0.2,0.4-0.4C107.2,95.8,106.8,95.5,106.4,95.7L106.4,95.7z"/>
		<path class="st6" d="M116.2,70.5c-2.1-0.9-4.9,1.2-5.4,3.2c0,0.1,0,0.2,0,0.2c-0.1,0.4-0.1,0.8,0,1.1c0.3,1.5,1.8,0.9,2.7,0.5
			c1.1-0.5,2.3-1.3,3.2-2.2C117.5,72.5,117.5,71,116.2,70.5L116.2,70.5z"/>
		<path class="st6" d="M120,71.9c-0.1-0.4-0.4-0.7-0.8-0.6c-0.3,0.1-0.4,0.2-0.6,0.4l0,0c-0.1,0.1-0.1,0.3,0,0.4v0.1
			c0,0.3,0.3,0.5,0.6,0.4l0.2,0C119.7,72.7,120,72.3,120,71.9z"/>
		<path class="st6" d="M118.1,74.5c0-0.2-0.2-0.4-0.3-0.3c-0.1,0-0.1,0-0.2,0c-0.4,0-0.7,0.5-0.3,0.7c0.2,0.2,0.5,0.2,0.7,0
			C118.1,74.8,118.2,74.7,118.1,74.5z"/>
		<path class="st6" d="M116.3,76.9c0-0.3-0.2-0.6-0.5-0.6c-0.3,0-0.6,0.2-0.6,0.5l-0.1,0.3c0,0.1,0,0.3,0.1,0.4
			c0,0.2,0.2,0.4,0.4,0.4c0.2,0,0.4-0.1,0.5-0.3l0.1-0.2C116.3,77.3,116.2,77.1,116.3,76.9L116.3,76.9z"/>
		<path class="st6" d="M101.7,70.4c-0.4-0.7-1-1-1.8-1.2c-1.2-0.2-3.2,0.9-3,2.2c-0.6,0.5-1,1.2-0.1,1.8c0.6,0.4,1.5,0.1,2.1,0
			c0.7-0.2,1.5-0.4,2.2-0.8C101.6,72,102.1,71.1,101.7,70.4L101.7,70.4z"/>
		<path class="st6" d="M96.8,74.2c-0.2,0-0.6,0-0.8,0.2c-0.3,0.2-0.4,0.3-0.6,0.6c-0.2,0.3,0.1,0.7,0.4,0.7c0.6,0.1,1.1-0.2,1.4-0.7
			C97.4,74.6,97.1,74.2,96.8,74.2L96.8,74.2z"/>
		<path class="st6" d="M102.2,73.4c0-0.3-0.4-0.4-0.6-0.2c-0.2,0.2-0.2,0.4-0.2,0.7c0,0.3,0.5,0.4,0.7,0.2
			C102.2,73.9,102.2,73.7,102.2,73.4L102.2,73.4z"/>
		<path class="st6" d="M112.9,59c-1.7-0.7-4.1-0.4-5.3,1.2c-0.1,0.1-0.1,0.2-0.2,0.3c-0.1,0.1-0.2,0.2-0.2,0.3
			c-0.4,0.6-0.1,1.6,0.6,1.8c1.8,0.6,4-0.7,5.2-1.8C113.7,60.1,113.7,59.3,112.9,59L112.9,59z"/>
		<path class="st6" d="M115.3,60.6L115.3,60.6c-0.2-0.2-0.4-0.1-0.4,0.1c-0.1,0.4,0.3,0.5,0.6,0.4C115.9,60.9,115.7,60.4,115.3,60.6
			L115.3,60.6z"/>
		<path class="st6" d="M125,88.3c-0.4-0.1-0.7-0.2-1.1-0.2c-0.3-0.2-0.6-0.2-1-0.1c-0.1,0-0.2,0.1-0.3,0.1c-1.7,0.3-3.1,1.6-3.6,3.5
			c-0.2,0.6,0.4,1.1,1,1.2c0.2,0.3,0.5,0.6,0.9,0.4c1.8-0.5,3.4-1.9,4.6-3.4C125.7,89.3,125.6,88.5,125,88.3L125,88.3z"/>
		<path class="st6" d="M137.5,70c-2.6-1.5-5.6-1.4-8.1,0.2c-0.7,0.4-0.5,1.6,0.3,1.8c0.2,0.1,0.3,0.1,0.5,0.1
			c0.1,0.3,0.4,0.6,0.7,0.8c0.9,0.6,2.3,0.3,3.3,0.2c1.2-0.2,2.4-0.6,3.4-1.4C138,71.2,138.1,70.4,137.5,70L137.5,70z"/>
		<path class="st6" d="M91.9,90.2c0.1-1-0.9-1.3-1.7-0.9c-0.9,0.5-1.6,1.2-2.2,2.1c-0.3,0.3-0.5,0.7-0.7,1.1
			c-0.3,0.8-0.4,1.9,0.3,2.5c0.2,0.2,0.4,0.2,0.6,0.3C90.4,96.1,91.8,91.8,91.9,90.2z"/>
		<path class="st6" d="M96.4,110.2c-1.6-0.7-4.4-0.3-5.2,1.5c-0.1,0.1-0.2,0.2-0.3,0.4c-0.3,0.7,0.3,1.3,0.9,1.6
			c0.8,0.4,1.9-0.1,2.7-0.3c0.9-0.3,1.8-0.8,2.3-1.7C97.2,111.2,97.1,110.5,96.4,110.2L96.4,110.2z"/>
		<path class="st6" d="M119.5,109.4c-1.6-3.1-6.1-0.8-7.5,1.2c-0.2,0.2-0.2,0.5-0.2,0.7c-0.2,0.4-0.3,0.8-0.4,1.3
			c-0.1,0.4,0.3,1,0.8,1C113.7,113.6,121,112.3,119.5,109.4L119.5,109.4z"/>
		<path class="st6" d="M135.9,102.4c-1.4,0.1-2.6,1-3.5,2.1c-0.8,0.6-1.3,1.6-0.9,2.3c0.9,1.8,3.9-0.2,4.9-0.9
			c0.7-0.5,1.3-1,1.4-1.9C138,103,136.9,102.3,135.9,102.4L135.9,102.4z"/>
		<path class="st6" d="M143.4,84.1c-0.5-0.6-1.4-0.6-2.1-0.5c-0.8,0.1-2,0.2-2.6,0.7c-0.3,0.2-0.5,0.5-0.6,0.7
			c-1.2,0.7-0.8,1.8-0.2,2.8c1,1.5,2.9,2.1,4.2,0.6C143,87.3,144.4,85.4,143.4,84.1L143.4,84.1z"/>
		<path class="st6" d="M132.6,74.6c-0.1,0-0.1-0.1-0.2-0.1c-0.1,0-0.2,0-0.3,0c-0.2,0.1-0.2,0.1,0,0c0,0-0.1,0-0.1,0.1
			c0,0,0,0-0.1,0c-0.1,0.1-0.2,0.2-0.2,0.3c0,0,0,0.1,0,0.1c-0.1,0.1-0.2,0.3-0.2,0.5c0,0.3,0.2,0.5,0.4,0.6h0
			c0.2,0.1,0.6,0.1,0.7-0.1c0.1-0.2,0.3-0.3,0.4-0.5C133.2,75.2,133.1,74.8,132.6,74.6L132.6,74.6z"/>
		<path class="st6" d="M140.7,70.4c-0.1-0.3-0.3-0.4-0.5-0.5c-0.4-0.2-0.7,0.2-0.6,0.6c0.1,0.2,0.3,0.4,0.5,0.5
			C140.5,71.1,140.8,70.8,140.7,70.4L140.7,70.4z"/>
		<path class="st6" d="M107.5,120.1l-0.4-0.5c-0.2-0.3-0.6-0.5-1-0.4c-1.5,0.3-2.8,1-3.8,2.1c-1.3,0.7-2,3-0.2,3.5
			c1,0.3,2.1-0.5,2.9-1c1-0.7,1.9-1.5,2.6-2.4C107.8,121,107.8,120.4,107.5,120.1L107.5,120.1z"/>
		<path class="st6" d="M125.2,121.9c-0.9,0.2-1.6,0.7-2.3,1.2c-0.5,0.4-1.4,0.9-1.4,1.6c0,0.1,0,0.2,0.1,0.2
			c0.7,0.2,1.5-0.3,2.1-0.6c0.7-0.4,1.6-0.8,2.1-1.5C126.1,122.4,125.7,121.8,125.2,121.9z"/>
		<path class="st7" d="M123.5,43.9c1.1,2.7,4.9,9,3.3,11.9c-2.7-6.1-3.2-14.2-3.3-20.8c-0.2-7.2,0.7-14.5,2.5-21.5
			c-0.3,1,3.3,6.3,3.8,7.6c1.1,2.9,2,5.9,2.6,8.9c1.1,6.1,1.2,12.4,0,18.5c-0.6,2.9-1.4,5.8-2.4,8.5c-0.9,2.5-0.5,5.5-3.4,4.2
			c-5.3-2.3-9.1-8.8-10.9-13.9c-2.1-6.1-2.4-12.8-1.9-19.2C118.5,32.1,121.1,38.1,123.5,43.9L123.5,43.9z"/>
		<path class="st7" d="M147.6,6.9c0,9.6,0,19.2-2.1,28.5s-6.5,18.4-14,24.4C130.6,41.1,136.4,22,147.6,6.9z"/>
		<path class="st7" d="M165.2,25c-3.2,7.5-6.5,15-11.4,21.6s-11.6,12-19.6,13.7C139.1,44.9,150.6,31.8,165.2,25L165.2,25z"/>
		<path class="st7" d="M134.1,61c0.2-0.3,0.5-0.6,0.8-0.8c9.6-7.5,20.9-12.7,32.8-15c-4.2,8.1-11.3,14.8-19.7,18.4
			c-4,1.7-8.9,2.8-12.5,0.4C134.4,63.3,133.5,62,134.1,61L134.1,61z"/>
		<path class="st7" d="M128,58c0.3,2.4,2.2,4.4,4.5,4.9c2.3,0.5,4.9-0.6,6.2-2.5c1.3-2,1.4-4.7,0.2-6.8c-1.2-2.1-3.5-3.4-5.9-3.4
			c-2,0-4.2,1.1-4.8,3L128,58L128,58z"/>
		<path class="st7" d="M132.6,58.5c-0.2,5.8-3.5,11.4-8.5,14.3c-0.1,0.1-0.3,0.2-0.4,0.1s-0.1-0.3-0.1-0.4c0.3-2.9,1.2-5.8,2.5-8.4
			c0.6-1.3,1.3-2.4,2.3-3.5c0.8-0.8,1.9-0.8,1.9-2.3L132.6,58.5L132.6,58.5z"/>
		<path class="st7" d="M113.1,63.2c3.1,0.7,6.4,1,9.5,0.3c3.1-0.7,6.1-2.4,7.8-5.1C124.4,56.5,117.2,58.5,113.1,63.2z"/>
		<path class="st7" d="M143.3,74.1c0.1-3-0.8-6-2.6-8.4s-4.4-4.2-7.3-4.9c-0.8,2.9,0.2,6.2,2.2,8.5
			C137.6,71.7,140.4,73.1,143.3,74.1L143.3,74.1z"/>
		<path class="st7" d="M110.4,49.6c2.4,4.8,7.3,8.1,12.6,8.7C119.9,54.1,115.4,51,110.4,49.6z"/>
		<path class="st7" d="M140.4,64.2c1,2.2,3.3,3.7,5.8,4.1s4.9-0.2,7.2-1.2C149.4,64.9,144.8,63.9,140.4,64.2z"/>
		<path class="st8" d="M132.6,49.8c0.5-2.9,1-6.4,0.2-9.3c-0.1-0.2-0.3-0.2-0.3,0c-0.6,2.8-0.4,5.7-0.9,8.5c-0.3,1.7-0.7,3.4-1.2,5
			c-0.4,1.3-1,2.6-1.1,3.9c0,0.3,0.4,0.5,0.6,0.2C131.7,56.2,132.2,52.4,132.6,49.8L132.6,49.8z"/>
		<path class="st8" d="M142.9,43.7c-1.5,3-3.2,6-4.9,9c-1.7,2.9-3.8,5.7-5.2,8.7c-0.2,0.4,0.4,0.6,0.6,0.3c2.1-2.3,3.6-5.3,5.2-8.1
			c1.8-3.2,3.2-6.4,4.6-9.7C143.3,43.6,143,43.5,142.9,43.7L142.9,43.7z"/>
		<path class="st8" d="M137.7,63.2c-5.5-1.2-10.9-2.5-15.7-5.8c-0.2-0.1-0.4,0.1-0.2,0.3c4.5,3.5,10,6.4,15.8,6
			C138,63.6,137.9,63.2,137.7,63.2L137.7,63.2z"/>
		<path class="st8" d="M149.8,50.4c-2.6,2.5-5.1,5-8.1,7.1c-3.1,2.2-6.5,3.7-9.9,5.3c-0.4,0.2-0.2,0.9,0.2,0.8
			c3.5-0.9,6.9-2.9,9.9-4.9c3.1-2.1,6.2-4.8,8.2-8C150.2,50.5,149.9,50.3,149.8,50.4L149.8,50.4z"/>
		<path class="st8" d="M130.5,60.8c-2.1-1.5-2.9-3.6-3.6-6c-0.9-3-1.8-6-2.6-9c0-0.2-0.3-0.1-0.3,0c0.6,3.3,1.4,6.6,2.4,9.9
			c0.6,2.1,1.4,4.9,3.8,5.6C130.5,61.5,130.8,61,130.5,60.8L130.5,60.8z"/>
		<path class="st8" d="M142.7,63.6c-2.3,0-4.7-0.3-7-0.9c-0.2,0-0.3,0.2-0.1,0.3c2.3,1.2,4.5,1.7,7.1,1.5
			C143.1,64.4,143.1,63.6,142.7,63.6L142.7,63.6z"/>
		<path class="st8" d="M145.5,61.7c-1.4,0-2.7,0.3-4,0.8c-0.2,0.1-0.1,0.3,0.1,0.3c1.4,0.1,2.8,0,4.1-0.3
			C146.2,62.4,146.1,61.7,145.5,61.7z"/>
		<path class="st8" d="M145.9,59.5c-0.5,0.1-1,0.3-1.4,0.7c-0.2,0.2-0.1,0.5,0.2,0.5c0.5,0,1-0.2,1.5-0.5
			C146.6,59.9,146.3,59.4,145.9,59.5z"/>
		<path class="st8" d="M151.1,58.7c-0.7,0.2-1.5,0.5-1.9,1.1c-0.1,0.2,0,0.4,0.2,0.4c0.8,0,1.5-0.4,2.1-0.7
			C151.9,59.1,151.6,58.5,151.1,58.7z"/>
		<path class="st8" d="M123.9,50.4c-0.2-0.7-0.4-1.5-1-2c-0.1-0.1-0.2,0-0.3,0.1c-0.3,0.6-0.2,1.3,0,2c0.2,0.9,0.4,1.7,0.8,2.5
			c0.2,0.3,0.8,0.3,0.8-0.1C124.2,52,124.1,51.2,123.9,50.4z"/>
		<path class="st8" d="M124.4,56.2c-0.2-0.1-0.4-0.3-0.6-0.5s-0.4-0.3-0.6-0.5c-0.1-0.1-0.3-0.1-0.4,0c-0.2,0.3-0.2,0.7,0,1
			c0.3,0.4,0.7,0.7,1.2,0.7C124.5,57.1,124.9,56.5,124.4,56.2L124.4,56.2z"/>
		<path class="st8" d="M130.9,39.2c-0.1-0.2-0.3-0.2-0.4,0c-0.6,1-0.5,2.4-0.5,3.5c0,0.5,0.9,0.5,1,0
			C131,41.6,131.4,40.2,130.9,39.2L130.9,39.2z"/>
		<path class="st8" d="M128.1,49.1c-0.1-0.4-0.1-0.8-0.1-1.3c-0.1-0.4,0-0.8-0.2-1.2c-0.1-0.2-0.3-0.3-0.5-0.1
			c-0.4,0.3-0.5,0.8-0.5,1.3c0,0.5,0.2,1,0.4,1.5C127.4,49.8,128.1,49.7,128.1,49.1z"/>
		<path class="st8" d="M128.9,53.6c0-0.4-0.1-0.8-0.2-1.2c0-0.2-0.4-0.2-0.4,0c0,0.4,0,0.8,0,1.2C128.3,54,128.9,53.9,128.9,53.6
			L128.9,53.6z"/>
		<path class="st8" d="M139.5,44.5c-0.1-0.3-0.6-0.4-0.7-0.1c-0.6,0.6-0.9,1.3-1.2,2.1c-0.5,1-0.9,1.9-1.2,2.9
			c-0.2,0.7,0.7,1.2,1.1,0.6C138.5,48.5,139.8,46.3,139.5,44.5L139.5,44.5z"/>
		<path class="st8" d="M135.2,53.8c0-0.2-0.2-0.2-0.3-0.1c-0.5,0.3-0.8,0.7-1.1,1.1c-0.4,0.5-0.8,1-0.6,1.6c0.1,0.3,0.5,0.4,0.7,0.3
			c0.6-0.2,0.8-0.8,0.9-1.3C135,54.9,135.2,54.4,135.2,53.8L135.2,53.8z"/>
		<path class="st8" d="M141.2,38.4c0-0.2-0.3-0.2-0.4,0c-0.2,0.5-0.4,1-0.4,1.6c-0.1,0.4,0.6,0.5,0.7,0.1
			C141.2,39.5,141.2,39,141.2,38.4z"/>
		<path class="st8" d="M145,51.8c-0.6,0.4-1.2,0.8-1.7,1.3c-0.5,0.5-0.9,1-1.3,1.5c-0.1,0.2,0.1,0.3,0.2,0.3
			c0.6-0.3,1.2-0.5,1.8-0.9c0.7-0.4,1.2-0.9,1.8-1.5C146.3,52.1,145.5,51.5,145,51.8L145,51.8z"/>
		<path class="st8" d="M148.8,48.7c-0.1,0.2-0.2,0.3-0.3,0.5c-0.1,0.2-0.1,0.3-0.1,0.5c0,0.1,0.1,0.2,0.2,0.1
			c0.1-0.1,0.3-0.2,0.4-0.3c0.1-0.1,0.2-0.3,0.4-0.4C149.5,48.8,149,48.4,148.8,48.7L148.8,48.7z"/>
		<path class="st8" d="M146.6,48.3c0-0.1,0-0.2,0-0.3c0-0.2-0.1-0.3,0-0.5c0.1-0.3-0.4-0.4-0.5-0.1c0,0.1-0.1,0.2-0.1,0.2
			c-0.1,0.1-0.1,0.3-0.2,0.4c-0.1,0.2-0.1,0.5-0.1,0.8c0,0.5,0.7,0.7,0.8,0.2C146.5,48.8,146.6,48.6,146.6,48.3z"/>
		<path class="st8" d="M153.1,43.6c-0.7,0.5-1.2,1.2-1.7,1.9c-0.2,0.3,0.1,0.6,0.4,0.4c0.7-0.5,1.5-1,1.9-1.7
			C154.1,43.8,153.6,43.3,153.1,43.6L153.1,43.6z"/>
		<path class="st8" d="M137.6,68.1c-0.3-0.4-0.6-0.7-1-1c-0.2-0.2-0.3-0.4-0.5-0.6c-0.2-0.2-0.4-0.4-0.5-0.7c-0.1-0.1-0.3-0.1-0.3,0
			c-0.1,0.3-0.2,0.5-0.2,0.9c0,0.4,0.1,0.7,0.3,1.1c0.4,0.6,1.1,1.1,1.9,1.1C137.6,68.8,137.8,68.4,137.6,68.1L137.6,68.1z"/>
		<path class="st8" d="M140.1,70.2c-0.1-0.1-0.2-0.2-0.3-0.2c-0.1,0-0.2-0.2-0.3-0.2c-0.1-0.2-0.4,0.1-0.3,0.2
			c0.1,0.1,0.2,0.2,0.2,0.3c0,0.1,0.1,0.2,0.2,0.3C139.9,70.9,140.4,70.5,140.1,70.2L140.1,70.2z"/>
		<path class="st8" d="M129.1,64.4c-0.1,0.2-0.3,0.4-0.5,0.6c-0.1,0.2-0.3,0.4-0.4,0.6c-0.2,0.3,0.3,0.6,0.5,0.3l0.4-0.7
			c0.1-0.2,0.2-0.5,0.3-0.7C129.5,64.4,129.2,64.3,129.1,64.4L129.1,64.4z"/>
		<path class="st8" d="M126.7,68.6c-0.2,0-0.2,0.3,0,0.3C126.8,68.9,126.9,68.6,126.7,68.6z"/>
		<path class="st8" d="M121.5,62c-0.4,0-0.8,0-1.2,0c-0.2,0-0.4,0.1-0.6,0.1c-0.2,0-0.3,0.2-0.5,0.2c-0.2,0-0.3,0.2-0.1,0.3
			c0.2,0.1,0.3,0.3,0.5,0.3c0.2,0.1,0.4,0.2,0.7,0.2c0.5,0,1-0.1,1.4-0.4C122,62.5,121.9,62.1,121.5,62z"/>
		<path class="st8" d="M124.4,60.7c-0.2,0.1-0.4,0.1-0.7,0.3c-0.1,0.1-0.2,0.2-0.2,0.3c0,0.1-0.1,0.2-0.1,0.2
			c-0.2,0.1,0,0.3,0.2,0.3c0.1,0,0.2,0,0.2,0c0.1,0,0.2,0,0.3,0c0.3-0.1,0.5-0.2,0.7-0.4C125.1,61,124.8,60.6,124.4,60.7z"/>
		<path class="st9" d="M115.4,33.9c-0.7,0.1-0.8,1-0.9,1.5c-0.2,0.9,0.1,1.8,0.5,2.6c0.2,0.5,1.1,0.4,1.2-0.2
			C116.3,37.1,116.8,33.8,115.4,33.9L115.4,33.9z"/>
		<path class="st9" d="M116.3,42c-0.1-0.2-0.3-0.1-0.3,0.1c0,0.6-0.2,1.5,0.5,1.8c0.1,0,0.2,0,0.3-0.1
			C117.2,43.3,116.6,42.6,116.3,42z"/>
		<path class="st9" d="M118.9,40.4c-0.1-0.2-0.2-0.4-0.4-0.6l-0.3-0.2c0,0-0.1,0-0.1-0.1c0,0-0.1-0.1-0.1-0.1
			c-0.2-0.2-0.5,0-0.4,0.2c0,0,0,0.2,0,0.2c0,0.1,0.1,0.2,0.1,0.3c0.1,0.3,0.2,0.5,0.5,0.6c0.2,0.1,0.4,0.1,0.6,0
			C118.9,40.8,118.9,40.6,118.9,40.4z"/>
		<path class="st9" d="M126.7,24c0-0.2-0.2-2.3-0.9-1.9c-0.8,0.5-0.8,1.5-0.9,2.4c-0.1,1.4-0.1,2.7,0.2,4c0.2,0.7,1.1,0.6,1.3,0
			C126.8,27,126.8,25.5,126.7,24z"/>
		<path class="st9" d="M126.3,33.9c0-0.2-0.1-0.4-0.2-0.6c-0.1-0.2-0.3-0.4-0.4-0.5s-0.4-0.1-0.4,0.1c0,0.2-0.1,0.4-0.2,0.5
			c-0.1,0.2-0.1,0.4-0.1,0.6c0,0.5,0.2,1.1,0.8,1C126.2,34.9,126.3,34.3,126.3,33.9L126.3,33.9z"/>
		<path class="st9" d="M128,27.6c-0.2-0.1-0.5,0-0.5,0.3c0.1,0.4,0.2,0.7,0.2,1.1c0.1,0.5,0.2,0.9,0.4,1.3c0.2,0.5,0.9,0.4,1.1-0.1
			C129.5,29.1,128.8,28.1,128,27.6L128,27.6z"/>
		<path class="st9" d="M145,15.9c-0.1-0.3-0.5-0.5-0.8-0.3c-1.2,1-1.8,2.9-2,4.3c-0.1,0.7,0.9,1.1,1.3,0.5
			C144.3,19.2,145.3,17.4,145,15.9L145,15.9z"/>
		<path class="st9" d="M145.1,23.2c0-0.2-0.2-0.4-0.3-0.6c-0.1-0.2-0.3-0.1-0.4,0c-0.1,0.1-0.2,0.2-0.3,0.3
			c-0.1,0.2-0.2,0.4-0.3,0.6c-0.2,0.5-0.4,1-0.5,1.6c-0.2,0.7,0.7,0.8,1.1,0.4c0.4-0.4,0.7-0.9,0.8-1.5
			C145.1,23.9,145.1,23.5,145.1,23.2L145.1,23.2z"/>
		<path class="st9" d="M140,27.5c0-0.1-0.2-0.2-0.3-0.1c-0.7,0.7-1.4,1.6-1.4,2.7c0,0.6,0.7,0.9,1.1,0.4
			C140,29.6,140.2,28.5,140,27.5L140,27.5z"/>
		<path class="st9" d="M152.2,35.7c-0.6,0.4-1.2,0.9-1.7,1.3c-0.2,0.2-1.3,0.9-0.9,1.3c0.4,0.5,1.3-0.1,1.8-0.3
			c0.7-0.4,1.3-0.9,1.7-1.6C153.4,35.9,152.8,35.3,152.2,35.7z"/>
		<path class="st9" d="M157.4,32.1c-0.3,0-0.6,0.2-0.9,0.4c-0.1,0.1-0.2,0.2-0.3,0.3c-0.1,0.1-0.1,0.2-0.2,0.3
			c-0.1,0.2,0,0.4,0.2,0.4c0.1,0,0.3,0,0.4,0c0.1,0,0.3-0.1,0.4-0.1c0.3-0.1,0.6-0.3,0.7-0.6C158,32.5,157.8,32.1,157.4,32.1
			L157.4,32.1z"/>
		<path class="st9" d="M155.6,37.3c-0.1,0.1-0.2,0.2-0.3,0.3c-0.1,0.1-0.2,0.2-0.3,0.3c-0.1,0.1,0,0.4,0.2,0.3
			c0.1-0.1,0.2-0.1,0.4-0.2c0.1-0.1,0.3-0.2,0.4-0.2C156.2,37.5,155.8,37.1,155.6,37.3L155.6,37.3z"/>
		<path class="st9" d="M154.4,52.7c-0.5,0.3-1.1,0.6-1.6,0.9c-0.6,0.4-1,1-1.5,1.5c-0.2,0.1,0,0.4,0.2,0.3c0.5-0.3,1.2-0.5,1.7-0.7
			c0.6-0.3,1.1-0.8,1.6-1.2C155.3,53.2,154.9,52.5,154.4,52.7L154.4,52.7z"/>
		<path class="st9" d="M160.2,49.6c-0.4,0-0.8,0.2-1.1,0.4c-0.3,0.2-0.6,0.2-0.9,0.4c-0.3,0.2-0.3,0.7,0,0.9
			c0.7,0.5,2.3,0.2,2.6-0.7C160.9,50.2,160.7,49.6,160.2,49.6L160.2,49.6z"/>
		<path class="st9" d="M118,55c-0.6-0.7-1.7-1.4-2.7-1.5c-0.3,0-0.5,0.2-0.4,0.5c0.4,0.9,1.5,1.5,2.4,1.8
			C117.8,55.9,118.4,55.4,118,55L118,55z"/>
	</g>
	<g>
		<path class="st10" d="M60.9,40.3c0.1,0,0.1,0,0.2-0.1c0.1-0.1,0-0.2,0-0.2s-0.1-0.1-0.2-0.2c-0.7-0.3-1.5-0.7-2.2-0.7
			c-0.8,0-1.6,0.4-1.9,1.1c0.7,0.3,1.4,0.4,2.1,0.4S60.2,40.4,60.9,40.3z"/>
		<path class="st10" d="M59.6,35.8c0.1-0.2,0.2-0.3,0.2-0.5c0-0.2-0.3-0.4-0.5-0.5s-0.5-0.1-0.7-0.2c-0.6,0.7-0.9,1.7-0.8,2.6
			s0.5,1.8,1.3,2.4C58.7,38.3,58.9,36.9,59.6,35.8L59.6,35.8z"/>
		<path class="st11" d="M49,61.9c0.8-4.3,0.3-8.8,1.3-13.1c1-4.3,4.1-8.7,8.5-8.9c2.5-0.1,5,1.2,6.7,3c1.7,1.8,2.9,4.1,3.9,6.4
			c2.6,6.1,4.3,12.6,7.6,18.4c2.4,4.3,5.7,8.1,8.6,12.2c2.9,4.1,5.4,8.5,6.2,13.4c0.7,4.9-0.6,10.4-4.5,13.5
			c-3.3,2.7-7.8,3.3-12.1,3.2c-4.3-0.1-8.5-0.9-12.8-0.5c-4,0.4-7.9,1.8-11.8,2.6c-4,0.8-8.3,1-11.8-0.9c-5.5-2.9-7.5-10.1-6.4-16.3
			c1.2-6.1,4.8-11.4,8.4-16.6C44.2,73.4,47.8,68,49,61.9L49,61.9z"/>
		<path class="st12" d="M84,100.1c-2.8,2.9-7.2,3.6-11.1,2.9c-3.9-0.6-7.6-2.2-11.5-3.4c-5.2-1.6-11.3-2.4-14.7-6.7
			c-2.8-3.5-2.9-8.8-0.8-12.7s6.2-6.6,10.6-7.6s9-0.4,13.3,0.9c7.5,2.4,14.6,8,16.4,15.7C87.2,93,86.7,97.3,84,100.1z"/>
		<path class="st12" d="M59.9,42.9c1.7,0.3,3,1.7,4,3.1c3.7,4.9,5.7,11.1,5.5,17.3c0,1.4-0.2,2.9-1.2,3.9c-1,1-2.6,1.1-3.9,0.6
			c-1.3-0.4-2.4-1.4-3.5-2.3C58,63,55.4,60.1,54,56.6c-1.4-3.5-1.5-7.7,0.6-10.9C55.8,43.9,57.9,42.5,59.9,42.9z"/>
		<path class="st13" d="M38.4,102c0.6,0.1,0.9,0.7,1.2,1.1c0.4,0.5,0.7,1,1,1.6c0.4,0.7-0.6,1.4-1.2,0.9c-0.7-0.5-1.1-1.1-1.4-1.9
			C38,103.2,37.6,101.9,38.4,102z"/>
		<path class="st13" d="M42.8,106.3c0.7-0.1,1.5,0.1,2,0.6c0.4,0.4,0.2,1-0.4,1c-0.7-0.1-1.4-0.4-1.8-1.1
			C42.4,106.6,42.5,106.4,42.8,106.3z"/>
		<path class="st13" d="M47.4,108.8c0.1-0.1,0.2-0.3,0.4-0.3c0.2,0,0.3,0,0.5-0.1c0.2-0.1,0.4,0.2,0.3,0.3c-0.1,0.1-0.1,0.3-0.2,0.4
			c-0.1,0.2-0.3,0.2-0.4,0.3C47.6,109.6,47,109.1,47.4,108.8L47.4,108.8z"/>
		<path class="st13" d="M39.5,108.2c0.3,0.1,0.6,0.1,0.8,0.2c0.2,0.1,0.3,0.2,0.4,0.3c0.1,0.1,0.2,0.2,0.3,0.3
			c0.2,0.2,0.1,0.4-0.2,0.4c-0.1,0-0.2,0-0.2,0.1c-0.1,0-0.3,0-0.5,0c-0.3,0-0.6-0.2-0.9-0.3c-0.2-0.1-0.3-0.3-0.3-0.5
			C39,108.4,39.2,108.2,39.5,108.2L39.5,108.2z"/>
		<path class="st13" d="M35.5,93.6c0.1-0.1,0.3-0.1,0.4,0.1c0.7,0.8,0.6,2.3,0.2,3.2c-0.2,0.7-1.2,0.4-1.3-0.2
			C34.6,95.7,34.6,94.2,35.5,93.6L35.5,93.6z"/>
		<path class="st13" d="M38.5,96.8c0-0.2,0.4-0.3,0.5-0.1c0,0.2,0.2,0.3,0.3,0.4s0.2,0.3,0.3,0.4c0.3,0.3-0.2,0.9-0.6,0.6
			c-0.2-0.2-0.3-0.3-0.4-0.6C38.5,97.3,38.5,97.1,38.5,96.8L38.5,96.8z"/>
		<path class="st13" d="M56.2,106c1-0.6,2.4-0.5,3.3,0.2c0.2,0.1,0.2,0.4,0,0.5c-0.8,0.7-2.2,0.9-3.1,0.4
			C56,106.9,55.7,106.3,56.2,106L56.2,106z"/>
		<path class="st13" d="M51,105.9c0.6,0.1,1.1,0.3,1.6,0.7c0.3,0.2,0.9,0.7,0.5,1.1c-0.3,0.3-0.8,0.2-1.1,0.1
			c-0.6-0.1-1-0.3-1.5-0.7C50.1,106.7,50.3,105.8,51,105.9L51,105.9z"/>
		<path class="st13" d="M39,90.1c0.1-0.2,0.4-0.3,0.6-0.2l0,0c0.2,0.1,0.3,0.2,0.3,0.4c0.1,0.4,0.2,0.9,0.1,1.3c0,0.7-1.1,0.6-1.2,0
			C38.8,91.1,38.8,90.6,39,90.1L39,90.1z"/>
		<path class="st13" d="M46.1,99.2c0.9,0.1,1.9,0.6,2.2,1.4c0,0.1,0,0.2-0.1,0.3c-0.9,0.3-2-0.1-2.7-0.8
			C45.2,99.8,45.6,99.2,46.1,99.2L46.1,99.2z"/>
		<path class="st13" d="M84.2,104.8c0.3-0.4,0.8-0.8,1.2-1.2c0.4-0.3,0.7-0.8,1.2-0.9c0.1,0,0.3,0,0.4,0.2l0.1,0.1
			c0.2,0.1,0.2,0.3,0.1,0.4c0,0.5-0.3,1-0.6,1.4c-0.5,0.6-1.2,0.9-2,0.9C84.1,105.7,83.9,105.1,84.2,104.8L84.2,104.8z"/>
		<path class="st13" d="M80.1,105.3c0.2-0.1,0.5-0.1,0.7,0c0,0,0,0,0,0c0,0,0,0,0.1,0c0,0,0.1,0,0.1,0c0,0,0,0,0.1,0
			c0.2,0,0.3,0.1,0.3,0.3c0.1,0.3-0.1,0.5-0.3,0.7c-0.4,0.2-1.1,0.2-1.2-0.3C79.7,105.7,79.8,105.5,80.1,105.3L80.1,105.3z"/>
		<path class="st13" d="M86.8,99.3c0.1-0.2,0.5-0.1,0.4,0.1c0,0.2,0,0.5-0.1,0.7c-0.1,0.4-0.7,0.3-0.6-0.2
			C86.6,99.7,86.7,99.5,86.8,99.3L86.8,99.3z"/>
		<path class="st13" d="M68.7,105.4c0.8-0.1,1.4,0.1,2.1,0.4c0.6,0.2,1.4,0.6,1.7,1.2c0.1,0.1,0,0.3-0.1,0.3c-0.5,0.2-1.1,0-1.6-0.1
			c-0.8-0.2-1.5-0.3-2.2-0.7C68.1,106.3,68.1,105.5,68.7,105.4L68.7,105.4z"/>
		<path class="st13" d="M73.2,70c0.7,0.1,1.2,0.3,1.8,0.7c0.5,0.3,1.1,0.6,1.3,1.1c0.1,0.2-0.1,0.4-0.3,0.5c-0.5,0.1-1-0.1-1.5-0.2
			c-0.6-0.2-1.2-0.5-1.7-1C72.4,70.7,72.6,69.9,73.2,70z"/>
		<path class="st13" d="M69.4,70c0.1-0.2,0.2-0.3,0.4-0.3c0.2-0.1,0.6,0,0.8,0c0.3,0,0.4,0.4,0.3,0.6c-0.1,0.2-0.3,0.3-0.4,0.5
			c-0.3,0.2-0.8,0.2-1-0.2C69.4,70.4,69.4,70.2,69.4,70L69.4,70z"/>
		<path class="st13" d="M71.9,65.7c0.2-0.2,0.5-0.1,0.6,0.2c0.2,0.4,0,0.9-0.2,1.3c-0.2,0.5-0.9,0.3-0.9-0.2
			C71.5,66.5,71.6,66,71.9,65.7L71.9,65.7z"/>
		<path class="st13" d="M51.7,70.2c0.4-0.4,0.8-0.6,1.4-0.7c0.4-0.1,0.9-0.1,1.3,0.1c0.1,0.1,0.1,0.2,0.1,0.2
			c-0.1,0.4-0.5,0.6-0.8,0.8c-0.5,0.3-0.9,0.5-1.5,0.4C51.7,71.2,51.4,70.6,51.7,70.2L51.7,70.2z"/>
		<path class="st13" d="M51.6,61.4c0.5,0.8,0.7,1.6,0.9,2.5c0.1,0.5-0.7,0.7-0.8,0.2c-0.3-0.9-0.5-1.7-0.5-2.6
			C51.2,61.2,51.5,61.2,51.6,61.4L51.6,61.4z"/>
		<path class="st13" d="M55.8,66.3l0.5,0.4c0.2,0.1,0.3,0.3,0.5,0.5c0.3,0.3-0.2,0.9-0.6,0.6c-0.2-0.1-0.4-0.3-0.5-0.4l-0.4-0.5
			C55.1,66.5,55.5,66.1,55.8,66.3L55.8,66.3z"/>
		<path class="st13" d="M51.7,57c0.3-0.1,0.7,0.1,0.8,0.4c0,0.2,0.1,0.4,0.1,0.6c0,0.2-0.1,0.4-0.3,0.5c-0.2,0.1-0.5,0-0.6-0.2
			c-0.1-0.2-0.2-0.4-0.2-0.5C51.3,57.4,51.4,57.1,51.7,57L51.7,57z"/>
		<path class="st14" d="M66.9,81.3c-0.5-0.2-1-0.5-1.3-0.9s-0.5-1-0.3-1.5c0.3-0.6,1-0.8,1.6-0.9c2.4-0.5,4.9-0.7,7.2,0.1
			c2.3,0.8,4.3,2.8,4.6,5.2c0,0.3,0,0.7-0.2,0.9c-0.2,0.2-0.5,0.2-0.7,0.1C73.9,84.1,70.2,83.1,66.9,81.3L66.9,81.3z"/>
		<path class="st14" d="M60.2,80.7c-1.5,0.1-2.9-0.1-4.3-0.7c-0.3-0.1-0.7-0.3-0.7-0.7c-0.1-0.4,0.3-0.7,0.6-0.9
			c0.8-0.6,1.7-1,2.7-1.2c1-0.2,2-0.1,2.9,0.5c0.5,0.3,1,0.9,0.9,1.6c0,0.5-0.4,0.9-0.8,1.1C61.2,80.6,60.7,80.7,60.2,80.7z"/>
		<path class="st14" d="M64.3,49.9c1.4,1.9,2.2,4.2,2.3,6.6c0,0.4-0.1,1-0.4,1.1c-0.3,0.1-0.7,0-0.9-0.2c-2.3-1.6-3.8-4.4-3.8-7.2
			c0-0.4,0-0.8,0.3-1.1c0.3-0.4,1-0.5,1.4-0.2S64,49.5,64.3,49.9L64.3,49.9z"/>
		<path class="st14" d="M81,85.3c0.1-0.4,0.6-0.7,1-0.4c1,0.8,1,2.2,0.3,3.1c-0.3,0.4-1.2,0.2-1.2-0.3C81.1,87,80.9,86.1,81,85.3
			L81,85.3z"/>
		<path class="st14" d="M84.6,90c0.1,0.3,0.2,0.5,0.3,0.8c0.2,0.5-0.5,0.7-0.7,0.3c-0.1-0.3-0.2-0.6-0.3-0.9
			C83.9,89.8,84.4,89.7,84.6,90L84.6,90z"/>
		<path class="st14" d="M66.9,75.6c0.8-0.3,1.7-0.2,2.4,0.1c0.3,0.1,0.3,0.5,0,0.6c-0.7,0.4-1.6,0.4-2.4,0.2
			C66.5,76.4,66.5,75.8,66.9,75.6z"/>
		<path class="st14" d="M52,78.4c0.1-0.1,0.2-0.2,0.3-0.3c0.1-0.1,0.2-0.1,0.4-0.2c0.1-0.1,0.3,0,0.3,0.2c0,0.1,0.1,0.2,0.1,0.3
			c0,0.2,0,0.4-0.1,0.5c-0.1,0.3-0.3,0.6-0.6,0.8c-0.3,0.2-0.7,0-0.7-0.4C51.7,79,51.8,78.7,52,78.4L52,78.4z"/>
		<path class="st14" d="M65.5,59.4c0.1-0.2,0.3-0.3,0.3-0.5c0.1-0.2,0.3-0.1,0.3,0.1c0,0.2,0.1,0.4,0.1,0.7s-0.1,0.4-0.2,0.6
			c-0.2,0.4-0.7,0.2-0.7-0.2C65.3,59.8,65.4,59.6,65.5,59.4z"/>
		<path class="st14" d="M60.7,46c0.2,0,0.5,0,0.7,0c0.2,0.1,0.3,0.2,0.4,0.2c0.4,0.1,0.2,0.7-0.2,0.6c-0.1,0-0.3,0.2-0.4,0.2
			c-0.3,0.2-0.5,0.3-0.9,0.3c-0.2,0-0.4-0.2-0.4-0.4C59.8,46.5,60.2,46.2,60.7,46L60.7,46z"/>
		<path class="st13" d="M29.4,59.5c0.6-4.3,1.9-8.6,4.8-11.9c3-3.4,7.4-5.2,11.8-6.6s8.8-2.5,12.7-5c-3.8,6.4-4.5,14.5-9.1,20.3
			c-2.6,3.2-6.2,5.4-9.9,7.3c-3.7,1.9-7.5,3.6-10.9,6C28.8,66.2,28.9,62.8,29.4,59.5L29.4,59.5z"/>
		<path class="st15" d="M39.2,50.6c4.9-5,11.3-9.2,17.4-12.6c0.2-0.1,0.4,0.2,0.2,0.3c-5.6,4.4-11.8,7.7-17,12.7
			c-2.2,2.2-4.2,4.7-5.8,7.4c-1.9,3.1-2.6,6.4-3.4,9.8c0,0.2-0.4,0.1-0.4-0.1C30.1,61.6,34.9,55,39.2,50.6L39.2,50.6z"/>
		<path class="st15" d="M43.6,57.7c0.3-0.3,0.5-0.5,0.8-0.8c0.2-0.2,0.5-0.6,0.8-0.7c0.2-0.1,0.3,0,0.4,0.2c0.1,0.1,0.1,0.3,0,0.4
			c-0.2,0.7-0.9,1.3-1.4,1.7C43.7,58.7,43.2,58.1,43.6,57.7z"/>
		<path class="st15" d="M39.2,60.8c0.1-0.2,0.3-0.3,0.6-0.5l0.6-0.4c0.3-0.2,0.6,0.2,0.3,0.4l-0.6,0.5c-0.2,0.2-0.4,0.3-0.6,0.4
			C39.3,61.4,39,61.1,39.2,60.8L39.2,60.8z"/>
		<path class="st15" d="M37.4,60.2l0.4-0.5c0.2-0.2,0.4-0.3,0.6-0.4c0.2-0.1,0.4,0.1,0.4,0.3s-0.2,0.4-0.3,0.6
			c-0.1,0.2-0.3,0.3-0.5,0.5c-0.2,0.2-0.4,0.2-0.5,0.1C37.3,60.6,37.2,60.4,37.4,60.2L37.4,60.2z"/>
		<path class="st15" d="M31.6,54.5c0.3-0.7,0.5-1.4,0.8-2.1c0.1-0.3,0.5-0.1,0.5,0.2c-0.2,0.7-0.4,1.4-0.7,2.1
			C32,55.1,31.4,54.9,31.6,54.5L31.6,54.5z"/>
		<path class="st15" d="M30.8,58.5c0.1-0.3,0.5-0.2,0.5,0.1c0,0.5-0.1,1-0.2,1.5c-0.1,0.3-0.7,0.2-0.6-0.2
			C30.5,59.5,30.6,59,30.8,58.5z"/>
	</g>
	<g>
		<path class="st16" d="M99.2,108.9c5.5-8.1,7-19.1,2.7-27.9c-3.7-7.6-11.6-12.9-20-13.5c-4.9-0.3-9.8,0.9-14.3,2.8
			c-3.4,1.4-6.6,3.1-9.2,5.7c-7.8,7.7-9,20.6-4,30.2c3.5,6.8,9.9,11.8,17.1,13.9C81.3,123.1,93.7,117,99.2,108.9L99.2,108.9z"/>
		<g>
			<path class="st17" d="M94.3,106.3L94.3,106.3C94.3,106.2,94.3,106.2,94.3,106.3c0.2-0.3,0.3-0.7,0.1-1c-0.2-0.3-0.6-0.5-1-0.3
				c-0.8,0.3-1.4,1.2-1.5,2.1c-0.1,0.4,0.1,0.8,0.5,1c0.5,0.2,1,0,1.3-0.5c0.1-0.1,0.1-0.2,0.2-0.3c0.2-0.2,0.3-0.4,0.4-0.6
				c0-0.1,0.1-0.2,0.1-0.3C94.3,106.3,94.3,106.3,94.3,106.3L94.3,106.3C94.3,106.3,94.3,106.3,94.3,106.3L94.3,106.3z"/>
			<polygon class="st17" points="94.3,106.3 94.3,106.3 94.3,106.3 94.3,106.2 			"/>
			<path class="st17" d="M94.3,106.3C94.3,106.3,94.3,106.2,94.3,106.3L94.3,106.3z"/>
		</g>
		<path class="st17" d="M96.5,104.7c-0.4,0-0.7,0.4-0.7,0.8c0,0.2,0,0.4,0.1,0.6c0,0.2,0.2,0.4,0.3,0.5c0.1,0.1,0.3,0.2,0.5,0.2
			c0.2,0,0.4-0.2,0.5-0.4c0.2-0.4,0.2-0.8,0.1-1.2C97.2,104.8,96.8,104.7,96.5,104.7L96.5,104.7z"/>
		<path class="st17" d="M87.9,111.1c-0.3,0-0.6,0.2-0.8,0.4c-0.1,0.1-0.5,0.2-0.7,0.4c-0.1,0.1-0.1,0.3,0,0.4
			c0.2,0.4,0.7,0.5,1.1,0.4c0.6-0.1,1.1-0.5,1.1-1.1C88.5,111.3,88.2,111.1,87.9,111.1z"/>
		<path class="st17" d="M96.6,97.6c-0.2-0.3-0.7,0-0.8,0.3c-0.1,0.2-0.1,0.4,0,0.7c0,0.1,0,0.1,0,0.2c0.1,0.3,0.4,0.5,0.8,0.4
			c0.3-0.1,0.5-0.5,0.4-0.8C96.9,98,96.7,97.8,96.6,97.6L96.6,97.6z"/>
		<path class="st17" d="M100.4,86.3c-0.1-0.2-0.2-0.4-0.4-0.6c-0.3-0.2-0.7-0.1-0.8,0.3c0,0.1,0,0.2,0,0.3c-0.3,0.3-0.4,0.7-0.2,1.1
			c0.1,0.1,0.2,0.2,0.3,0.3c0,0,0,0,0,0c0.2,0.5,1.2,0.6,1.4,0c0.2-0.4,0.1-0.7-0.1-1.1C100.6,86.5,100.5,86.4,100.4,86.3z"/>
		<path class="st18" d="M69.6,78.6c-0.7-0.5-1.3-1.1-2-1.6c-1.3-1-3.2-2-4.9-1.4c-1.8,0.6-3.5,2.8-4.4,4.3
			c-2.2,3.6-5.9,10.2-1.5,13.6c1.8,1.4,3.8,1.8,5.5,3.5c2,1.9,4.1,3.8,6.1,5.7c2.3,2.2,4.9,4.4,8,4.7c2.5,0.2,4.9-0.9,6.8-2.5
			c1.9-1.6,3.2-3.7,4.4-5.9c3-5.4,7.2-13.2,6.4-19.5c-0.2-2.1-2.3-5.5-4.8-4.9c-1.1,0.2-2.4,1.3-3.4,1.7c-1.6,0.7-3.1,1.4-4.7,2.1
			c-3,1.3-6.5,2.7-9.6,1.4C70.9,79.5,70.2,79.1,69.6,78.6L69.6,78.6z"/>
		<path class="st17" d="M89.1,106.2c-0.2-0.1-0.6-0.1-0.7,0.2c-0.1,0.1-0.2,0.2-0.2,0.3c-0.1,0.1-0.1,0.2-0.1,0.3
			c-0.1,0.3-0.2,0.8,0.1,1.1c0.2,0.2,0.4,0.3,0.6,0.2c0.6-0.3,0.8-1.1,0.7-1.7C89.4,106.4,89.3,106.3,89.1,106.2L89.1,106.2z"/>
		<path class="st17" d="M80.7,116.6c-0.1,0-0.2-0.1-0.2-0.1l0,0c-0.2,0-0.3-0.1-0.4-0.1c-0.1,0-0.3,0-0.4,0c-0.2,0-0.4,0.1-0.6,0.2
			c-0.3,0.1-0.4,0.5-0.4,0.8c0,0.4,0.3,0.7,0.7,0.8c0.1,0,0.2,0,0.3,0c0,0,0,0,0.1,0h0.1c0,0,0.1,0,0.1,0c0.1,0,0.2,0.1,0.3,0.1
			c0.4,0,0.8-0.1,1-0.5c0.1-0.2,0.1-0.5,0.1-0.7C81.1,116.9,80.9,116.6,80.7,116.6L80.7,116.6z"/>
		<path class="st17" d="M77,111.9c-0.1,0-0.2,0.1-0.3,0.2c-0.4,0.7,0.2,1.6,0.8,1.9c0.6,0.2,1.1-0.4,0.8-0.9
			C78,112.6,77.5,112,77,111.9L77,111.9z"/>
		<path class="st17" d="M85.6,115.6c-0.3-0.2-0.5-0.3-0.9-0.2c-0.3,0.1-0.6,0.3-0.6,0.6c0,0.2,0,0.3,0.1,0.4
			c0.2,0.1,0.3,0.2,0.5,0.2c0.2,0,0.3,0,0.4,0c-0.1,0-0.1,0,0.1,0l0.1-0.1h0C85.7,116.4,85.9,115.9,85.6,115.6L85.6,115.6z"/>
		<path class="st17" d="M98.7,79.8c-0.6-0.9-2.2-0.1-1.8,0.9c0.2,0.7,0.4,1.4,0.8,2.1l0,0v0c0.1,0.1,0.1,0.1,0.1,0.2
			c0.2,0.2,0.5,0.4,0.8,0.4c0.6-0.1,0.8-0.4,0.8-0.9c0-0.1,0.1-0.2,0.1-0.3C99.5,81.3,99.2,80.4,98.7,79.8z"/>
		<path class="st17" d="M98,84.1C98,84.1,97.9,84.1,98,84.1C97.9,84,97.8,84,97.7,84c0,0,0,0,0,0h0c-0.1,0-0.2,0.1-0.3,0.2
			c-0.1,0.1-0.2,0.3-0.2,0.5c-0.1,0.4,0.1,0.7,0.4,1c0.2,0.1,0.4,0.2,0.6,0c0.2-0.1,0.3-0.3,0.2-0.5c-0.1-0.2-0.1-0.3-0.2-0.5
			c0-0.1,0-0.2-0.1-0.2C98.1,84.2,98,84.2,98,84.1L98,84.1z"/>
		<path class="st17" d="M99.5,102.1L99.5,102.1c-0.1,0-0.1,0.1-0.2,0.1s-0.1,0.1-0.1,0.1c0,0,0,0,0,0h0c-0.2,0.1-0.2,0.3-0.1,0.5
			c0.2,0.2,0.3,0.2,0.6,0.2c0.3,0,0.6-0.4,0.6-0.7S99.7,101.9,99.5,102.1L99.5,102.1z"/>
		<path class="st17" d="M92.8,110.2c-1.2,0.5-2.3,1.2-3.2,2.2c-0.4,0.5-0.3,1.5,0.5,1.6c1.4,0.1,3.6-0.7,3.7-2.2
			C94.4,111.1,93.8,109.8,92.8,110.2z"/>
		<path class="st17" d="M100.4,93.5c-1.5,0.1-1.8,2.2-1.8,3.4c0,0.1,0,0.1,0,0.2c-0.1,0.5,0.1,1.1,0.6,1.3c1.4,0.6,2.4-1.1,2.6-2.3
			C102.1,95.2,101.7,93.4,100.4,93.5L100.4,93.5z"/>
		<path class="st17" d="M99.3,91.3c-0.2,0.1-0.4,0.3-0.5,0.5l0,0c0.1-0.1,0.1-0.1,0,0.1c0,0.1-0.1,0.1-0.1,0.2c0,0.1,0,0.3,0.1,0.4
			c0.2,0.2,0.5,0.2,0.7,0.1c0.4-0.2,0.7-0.5,0.5-0.9C99.9,91.3,99.6,91.2,99.3,91.3L99.3,91.3z"/>
		<path class="st17" d="M71.3,74.7c-0.2,0-0.4-0.1-0.7-0.2c-0.3-0.1-0.7-0.2-0.9,0c-0.9,0.6,1.9,2.4,2.4,2.6c1.2,0.7,2.6,1,4,1
			c1.5,0,3-0.4,4.3-1.2c0.7-0.4,1.2-0.9,1.8-1.4c0.5-0.5,1.2-0.7,1.6-1.3c0.2-0.4,0.2-0.9-0.2-1.1c-0.6-0.3-1.3,0.6-1.9,0.3
			c-0.3-0.1-0.4-0.5-0.6-0.8c-0.6-0.9-1.9-1.1-3-1.1c-1,0-2.1-0.1-3,0.2s-1.9,0.8-2.5,1.7c-0.3,0.5-0.6,1.2-1.1,1.3
			C71.4,74.7,71.4,74.7,71.3,74.7L71.3,74.7z"/>
		<path class="st19" d="M77.6,73.1c0-1.2-0.5-1.9-1.8-2.4c-0.4-0.2-0.9,0.1-1,0.5c-0.1,0.8,0,1.6,0.4,2.3c-1.4,0.3-2.9,1.1-3,2.4
			c-0.2,0.2-0.3,0.4-0.4,0.6c0.2,0.1,0.3,0.1,0.5,0.1c0.4,0.9,2.1,0.5,3.2,0c0.3,1.2,0.9,2.7,2,2.2c1.3-0.5,1.4-2,1.2-3.3
			c1.4-0.2,3.1-0.8,3-2.1C81.6,71.7,79.1,72.5,77.6,73.1L77.6,73.1z"/>
		<path class="st20" d="M77.5,74.2c-0.2,0.1-0.4,0.3-0.6,0.3c-0.2,0.1-0.3,0-0.5-0.1c-0.2-0.1-0.4-0.1-0.6,0.1
			c-0.1,0.1-0.1,0.1-0.2,0.2v0c-0.1,0.2-0.1,0.4,0,0.6c0.7,0.9,2.4,0.8,2.7-0.4C78.4,74.4,77.9,74,77.5,74.2L77.5,74.2z"/>
		<path class="st20" d="M76.3,71.4c-0.1-0.1-0.3,0.1-0.2,0.2c0.3,0.3,0.4,0.7,0.6,1.1c0.1,0.3,0.5,0.1,0.4-0.2
			C76.9,72.1,76.6,71.7,76.3,71.4L76.3,71.4z"/>
		<path class="st20" d="M79.4,73.8c-0.2,0-0.2,0.1-0.4,0.2c-0.1,0.1-0.1,0.4,0,0.5c0.1,0.1,0.2,0.1,0.3,0.1c0.2,0,0.4-0.1,0.5-0.3
			C79.9,74,79.7,73.7,79.4,73.8L79.4,73.8z"/>
		<path class="st20" d="M77.6,76.6c-0.1-0.1-0.2-0.1-0.3,0C77.1,76.7,77,76.9,77,77c0,0.2,0,0.3,0.2,0.3
			C77.6,77.5,77.9,76.9,77.6,76.6L77.6,76.6z"/>
		<path class="st20" d="M77.8,77.6c-0.1-0.1-0.3-0.2-0.5-0.1c-0.2,0.1-0.2,0.2-0.3,0.3c0,0.1,0,0.1,0,0.2c0,0.1,0.1,0.2,0.2,0.2
			c0.1,0.1,0.2,0.1,0.4,0.1C77.9,78.3,78.1,77.8,77.8,77.6L77.8,77.6z"/>
		<path class="st20" d="M74.2,75.6c-0.2,0.1-0.3,0.2-0.5,0.2c-0.1,0.1-0.2,0.2,0,0.3c0.3,0.2,0.5,0.2,0.8,0c0.1-0.1,0.2-0.2,0.1-0.3
			C74.5,75.7,74.4,75.6,74.2,75.6z"/>
		<path class="st21" d="M67.1,80.9c-0.3-0.9-1.1-1.7-2-2.2c-0.8-0.4-1.6-0.7-2.5-0.5c-0.9,0.2-1.6,1-2.1,1.8c-0.7,1.2-1.2,2.6-1.3,4
			c-0.1,0.7-0.1,1.3,0.2,1.9s0.7,1.2,1.4,1.3c0.8,0.2,1.5-0.2,2.2-0.6c1.1-0.6,2.3-1.3,3.2-2.2S67.5,82.1,67.1,80.9z"/>
		<path class="st21" d="M75.4,81.3c-1.3-0.1-2.6-0.1-3.9-0.1c-0.9,0-2.2,0.8-1.5,1.8c0.5,0.8,1.9,1.1,2.8,1.2
			c0.9,0.2,1.9,0.1,2.6-0.5c0.6-0.3,1-0.8,1-1.6C76.4,81.6,75.9,81.3,75.4,81.3L75.4,81.3z"/>
		<path class="st21" d="M80.4,80.3c-0.2-0.2-0.5-0.2-0.8-0.2c-0.2,0-0.3,0-0.5,0.1c-0.5,0.2-1,0.8-0.8,1.3c0.1,0.2,0.3,0.5,0.6,0.5
			c0.2,0,0.3,0,0.5-0.1c0.1,0,0.1,0,0.2,0l0.2,0c0,0,0.3-0.1,0.1,0c0.3-0.1,0.6-0.2,0.7-0.5C80.8,81,80.7,80.6,80.4,80.3L80.4,80.3z
			"/>
		<path class="st16" d="M71.6,98.4c-0.4,0.1-0.7,0.5-0.7,0.9c-0.1,0.4,0.1,0.8,0.4,1.1c0.2,0.3,0.5,0.6,0.9,0.9
			c0.3,0.4,0.7,0.6,1.2,0.7c0.4,0.1,1-0.2,1.1-0.7C74.5,99.8,73.2,97.9,71.6,98.4L71.6,98.4z"/>
		<path class="st16" d="M77.8,100.6c0.1,0.2,0.1,0.4,0.1,0.7c0.1,0.5-0.4,0.9-0.8,0.9c-0.4,0-0.9-0.3-0.9-0.8c0-0.2,0.1-0.5,0.2-0.7
			c0-0.1,0.1-0.2,0.2-0.2c0.2-0.2,0.6-0.3,0.9-0.2C77.6,100.4,77.7,100.4,77.8,100.6L77.8,100.6C77.8,100.5,77.8,100.6,77.8,100.6
			C77.8,100.6,77.8,100.6,77.8,100.6L77.8,100.6z"/>
		<path class="st16" d="M68.5,97c-0.2-0.1-0.5-0.1-0.7,0.1c-0.3,0.2-0.4,0.4-0.4,0.7c0,0.2-0.1,0.4-0.1,0.5c0,0.5,0.6,0.8,0.9,0.5
			c0.2-0.1,0.2-0.2,0.4-0.4c0.2-0.2,0.3-0.5,0.3-0.8C68.9,97.4,68.8,97.1,68.5,97L68.5,97z"/>
		<path class="st16" d="M86.8,90.1c-0.3-0.3-0.9-0.3-1.2-0.1c-0.7,0.5-1.2,1.1-1.4,1.9c-0.1,0.4,0.1,0.8,0.4,1
			c0.2,0.4,0.6,0.7,1.1,0.5c0.6-0.2,1.1-0.7,1.4-1.3c0.1-0.2,0.2-0.5,0.3-0.8c0.1-0.3,0-0.6-0.1-0.8C87.1,90.4,87,90.3,86.8,90.1
			L86.8,90.1z"/>
		<path class="st16" d="M83.9,89.5c-0.1,0.1-0.2,0.1-0.3,0.2c-0.1,0.1-0.2,0.3-0.2,0.4c0,0.2,0.1,0.4,0.2,0.5c0.5,0.2,1-0.2,1-0.8
			C84.6,89.5,84.2,89.2,83.9,89.5L83.9,89.5z"/>
		<path class="st16" d="M89,78.6c0.2,0.7-0.2,1.4-0.8,1.7c-0.5,0.2-1.1,0.5-1.7,0.2c-0.4-0.2-0.4-0.7-0.2-1l0,0c0,0,0.1-0.1,0.1-0.1
			c-0.1-0.5,0.3-1.1,0.7-1.4C87.7,77.6,88.8,77.9,89,78.6L89,78.6z"/>
		<path class="st16" d="M91.5,79.8c-0.1,0-0.1-0.1-0.2-0.1c0.1,0,0.1,0.1,0,0c-0.2-0.2-0.5-0.1-0.6,0.1l0,0c0.1-0.1,0.1-0.1-0.1,0.1
			c-0.1,0.1-0.2,0.2-0.2,0.3c-0.2,0.3-0.2,0.7,0,1c0.1,0.2,0.2,0.3,0.5,0.3c0.2,0,0.6-0.1,0.7-0.2c0.1-0.2,0.2-0.3,0.2-0.5
			c0.1-0.2,0-0.4-0.1-0.6C91.7,80,91.6,79.9,91.5,79.8L91.5,79.8z"/>
		<path class="st16" d="M62.9,92.1c-0.2-0.2-0.3-0.5-0.5-0.7c-0.5-0.5-1.5,0-1.4,0.7c0,0.2,0.1,0.5,0.2,0.7c0.1,0.2,0.2,0.3,0.4,0.4
			l0,0c0.1,0,0.1,0.1,0.2,0.1c0.3,0.2,0.8,0,1-0.2C63,92.9,63.1,92.4,62.9,92.1z"/>
		<g>
			<path class="st16" d="M66,91.4L66,91.4C66,91.4,66,91.4,66,91.4z"/>
			<path class="st16" d="M66.4,91.8c-0.1-0.1-0.2-0.2-0.3-0.3c0,0-0.1,0-0.1-0.1c-0.1-0.1-0.2-0.1-0.3-0.1c-0.4,0.2-0.5,0.5-0.4,0.9
				c0,0.3,0.2,0.6,0.4,0.7c0.2,0.1,0.4,0.2,0.7,0.1c0.2-0.1,0.3-0.2,0.3-0.4C66.7,92.4,66.7,92.1,66.4,91.8L66.4,91.8z"/>
		</g>
		<path class="st16" d="M74.7,87.3c-0.4,0.1-0.6,0.5-0.3,0.8c0.3,0.4,0.9,0.4,1.3,0.3c0.2-0.1,0.3-0.4,0.2-0.6
			C75.6,87.5,75.1,87.2,74.7,87.3L74.7,87.3z"/>
		<path class="st18" d="M91.8,96.8c-0.3,0-0.6,0.2-0.7,0.5c-0.2,0.4-0.5,0.8-0.6,1.2c0,0.1,0,0.2,0,0.2c-0.1,0.1-0.1,0.2-0.1,0.3
			c-0.1,0.3,0.1,0.6,0.3,0.7c0.7,0.3,1.4-0.1,1.8-0.7c0.4-0.6,0.4-1.3,0.1-1.9C92.5,96.9,92.1,96.8,91.8,96.8z"/>
		<path class="st18" d="M93.4,94.5c-0.4-0.1-0.8,0.3-0.8,0.7c0,0.2,0,0.3,0.1,0.4c0.2,0.2,0.5,0.3,0.8,0.1c0.1-0.1,0.2-0.2,0.3-0.4
			C94,95.1,93.8,94.6,93.4,94.5L93.4,94.5z"/>
		<path class="st18" d="M88.8,102.8c-0.2-0.2-0.5-0.1-0.6,0.2c-0.1,0.1,0,0.2,0,0.3c0.2,0.2,0.4,0.2,0.6,0.1S89.1,102.9,88.8,102.8
			L88.8,102.8z"/>
		<path class="st18" d="M88.2,73.3c-0.2,0.2-0.6,0.3-0.8,0.2c-0.7-0.2-1.1-1.1-0.6-1.6c0.2-0.2,0.6-0.4,0.9-0.2
			c0.2,0.1,0.3,0.2,0.4,0.4C88.4,72.3,88.5,72.9,88.2,73.3L88.2,73.3z"/>
		<path class="st18" d="M92.4,72.9c-0.2-0.1-0.5-0.2-0.7,0c-0.4,0.5,0.4,1.3,0.8,0.8C92.8,73.4,92.6,73.1,92.4,72.9z"/>
	</g>
	<g>
		<path class="st10" d="M14.9,60.6c0.5-0.3,1.1-0.2,1.2,0.4c0.1,0.8-0.2,1.7-0.1,2.5c0.1,0.9,0.7,1.6,0.7,2.5c0,0.2-0.1,0.4-0.4,0.4
			C14,66.5,13.1,61.9,14.9,60.6L14.9,60.6z"/>
		<path class="st11" d="M17,112.1c0.3-6.5,1.3-13.3,0.3-19.8c-1-6-4.7-11.4-5.6-17.4c-0.4-2.9-0.1-6.2,2.1-8.2
			c2.5-2.3,6.4-2.1,9.4-0.6c5.2,2.5,8.8,8.1,12.9,12.1c4.7,4.6,10,8.6,15.6,12.1c3.7,2.2,7.5,4.2,10.8,7c6.7,5.8,10,16.5,1.6,22.3
			c-3.9,2.7-8,2.7-12.3,4.1c-4,1.3-7.1,6-9.9,8.8c-3,3-6.9,5.7-11.1,5.4c-4.7-0.3-8.4-4.2-10.6-8.3C17.1,124.2,16.7,118.4,17,112.1
			L17,112.1z"/>
		<path class="st22" d="M26.5,70.8c5.8,6.3,12.2,12.1,19.2,17c6.8,4.8,14.3,9,19.2,15.8c1.6,2.2,2.8,4.7,2.7,7.3
			c-0.1,2.5-1.5,4.8-3.5,6.4c-1.9,1.6-4.3,2.6-6.8,3.1c-2.9,0.7-6,1-8.5,2.5c-4.5,2.7-6.1,8.7-10.6,11.4c-4.7,2.9-11.2,1-14.9-3.1
			c-3.7-4.1-4.9-9.9-5-15.4c-0.1-5.5,0.8-11,0.7-16.5c0-5.7-1-11.3-3-16.6c-1.1-3.1-2.6-6.2-2.5-9.5c0-1.6,0.5-4.9,2.6-4.7
			c0.7,0.1,1.3,0.4,1.7,1c-0.1-1,0.4-2,1.2-2.6C21.8,65.1,24.9,69.1,26.5,70.8L26.5,70.8z"/>
		<path class="st23" d="M17.5,75.1c-0.4-1.4-0.8-3.1,0.1-4.3c0.8-1.1,2.4-1.3,3.6-0.9c3.1,0.9,5.6,4.6,7.9,6.8
			c3,2.8,6.1,5.6,9.2,8.3c4.3,3.7,8.7,7.2,13.2,10.6c4,2.9,8.6,5.4,11,10c1.4,2.8,1.6,6.4-0.4,8.8c-1.5,1.8-4,2.5-6.3,2.4
			c-2.3-0.1-4.6-0.8-6.8-1.5c-7.2-2.4-14.7-5-19.6-10.7c-3-3.5-4.7-7.9-6.3-12.2C21.1,86.5,19.2,80.9,17.5,75.1L17.5,75.1z"/>
		<path class="st24" d="M34.6,116.9c-0.8-1.6-1.4-3.3-1.4-5c0-1.8,0.8-3.6,2.2-4.6c0.9-0.6,2-0.9,3-0.7c-0.6-1.1-1.2-2.2-1.8-3.2
			c-2.2-3.7-4.4-7.4-6.6-11.2c-4.5-7.6-9.6-15.1-13.2-23.2c-0.2-0.3,0.4-0.7,0.6-0.4c5,6.7,8.9,14.4,13,21.6
			c2.1,3.8,4.3,7.5,6.5,11.2c1.1,1.8,2.2,3.7,3.4,5.5c0.5-2.1,3.3-3.2,5.4-2.7c2.3,0.6,4,2.6,5.3,4.5c0.6,0.9,1.2,1.9,1.5,3.1
			s0,2.4-0.8,3.2c-1.4,1.4-3.8,0.9-5.8,1.1c0.1,0.2,0.2,0.5,0.4,0.7c0.7,1.4,1.3,2.9,1.6,4.4c0.1,0.5-0.6,0.7-0.8,0.3
			c-0.8-1.3-1.3-2.8-2-4.1c-0.2-0.3-0.3-0.6-0.5-0.9c-0.2,0.1-0.3,0.2-0.5,0.3c-1.3,0.9-1.8,2.6-3.1,3.4c-1.2,0.7-2.7,0.5-3.9-0.2
			S35.2,118.2,34.6,116.9L34.6,116.9z"/>
		<path class="st23" d="M25,107.5c-0.4-1.1,0.6-1.9,1.6-1.7c1.5,0.3,3.1,1.1,3.8,2.6c0,0.1,0.1,0.2,0,0.3c0.2,0.3,0.2,0.7,0.1,1
			l-0.2,0.3c-0.2,0.5-0.7,0.8-1.2,0.8C27.2,110.6,25.5,109.2,25,107.5z"/>
		<path class="st23" d="M27.5,113.2c0.3-0.1,0.6-0.2,0.9-0.1l0.3,0.1c0.2,0.1,0.5,0.2,0.7,0.3c0.2,0.2,0.4,0.4,0.3,0.7
			s-0.2,0.5-0.5,0.7c-0.2,0.1-0.5,0.2-0.8,0.2c-0.4,0.1-0.8,0.1-1.2-0.2C26.6,114.5,26.8,113.4,27.5,113.2L27.5,113.2z"/>
		<path class="st23" d="M23.7,111.7c-0.2-0.4-0.1-0.7,0.2-1c0.2-0.2,0.7-0.2,0.9,0.1c0.3,0.3,0.2,0.7,0,1
			C24.4,112.2,23.9,112.1,23.7,111.7z"/>
		<path class="st23" d="M34.8,127.2c0.4-0.6,1.3-0.9,1.9-0.6c0.2,0,0.4-0.1,0.7-0.1c0.9-0.2,1.6,0.9,1,1.6c-0.8,0.9-1.9,1.2-3.1,0.8
			C34.5,128.8,34.4,127.9,34.8,127.2L34.8,127.2z"/>
		<path class="st23" d="M30.1,126.8c0-0.2,0-0.5,0.2-0.7c0.2-0.3,0.5-0.4,0.9-0.4c0.4,0,0.7,0.2,0.9,0.4c0.3,0.3,0.2,0.7,0.1,1
			c-0.1,0.5-0.8,0.6-1.1,0.4C30.6,127.6,30.1,127.2,30.1,126.8L30.1,126.8z"/>
		<path class="st23" d="M32.6,131.6c0.1-0.3,0.4-0.3,0.7-0.4c0.3-0.1,0.7,0,0.9,0.1c0.2,0.1,0.4,0.3,0.3,0.6c0,0.2-0.2,0.5-0.5,0.5
			c-0.2,0-0.3,0-0.5,0c-0.2,0-0.4-0.1-0.6-0.2C32.8,132.2,32.5,131.9,32.6,131.6L32.6,131.6z"/>
		<path class="st10" d="M44.4,108.4c0.6-0.4,1.1,0,1.3,0.6c1.1,0.3,2,1.6,2.3,2.6c0.3,0.8-0.5,1.7-1.3,1.4
			C45.3,112.5,42.3,109.7,44.4,108.4z"/>
		<path class="st10" d="M38.3,115c-0.6-0.9-1.9-3.7-0.3-4.3c1.1-0.4,2,0.3,2.4,1.3c1,0.5,1.8,2.2,1.6,3.1c-0.1,0.8-0.8,1.4-1.6,1.4
			C39.5,116.4,38.8,115.7,38.3,115L38.3,115z"/>
	</g>
	<g>
		<path class="st25" d="M157.2,118.1c-4.4,6.1-10.1,11.3-16.8,14.8c-13.4,6.9-31,5.9-42.3-4c-0.5-0.4-0.9-0.9-1.1-1.4
			c-0.2-0.4-0.1-0.9,0-1.3c0.2-0.7,0.7-1.2,1.3-1.6c1-0.6,2.2-0.8,3.3-1.1c12.8-2.5,23.5-11.3,31.7-21.4
			c8.2-10.1,14.3-21.8,21.6-32.6c1.1-1.7,2.5-3.5,4.5-3.7c2.7-0.3,4.8,2.4,5.9,4.9c3.6,8.5,3.4,18.2,1.2,27.1
			C164.7,105,161.6,112,157.2,118.1L157.2,118.1z"/>
		<path class="st25" d="M155.7,69.8c1.7-1.5,1.7-4.2,1.3-6.4c-0.5-3-1.5-5.8-2.8-8.5c1-1,2-2,3.2-2.5s2.9-0.4,3.9,0.6
			c0.6,0.7,0.8,1.6,1,2.5c0.7,4.9-0.4,9.9-2.9,14.1L155.7,69.8L155.7,69.8z"/>
		<path class="st26" d="M113.4,121.2c-3.8,1.8-15.4,2.9-10.8,4.6c6.8,1.8,13.6,1.2,20.2-1.2c6.6-2.4,14.4-7.7,19.1-12.9
			c17.8-19.9,22.6-43.8,16.1-43.4c-2.2-0.9-11.5,20.3-18.7,29.4C132.1,106.8,123.9,116.1,113.4,121.2L113.4,121.2z"/>
		<path class="st26" d="M154.4,54.8c1.2,0.6,2.7,0.7,3.9,0.2c1.3-0.5,2.3-1.5,2.8-2.8c-1.2-0.4-2.6-0.4-3.8,0
			C156.1,52.7,155,53.6,154.4,54.8L154.4,54.8z"/>
		<path class="st27" d="M160.2,66.7c-0.2,0.1-0.5,0.2-0.7,0.2c-0.2,0.1-0.7,0.1-0.9,0.1c-0.1,0-0.3,0.1-0.2,0.2
			c0.1,0.1,0.2,0.3,0.4,0.4c0.2,0.1,0.5,0.2,0.7,0.2c0.5,0.1,1-0.2,1.3-0.5C161.2,66.9,160.7,66.4,160.2,66.7L160.2,66.7z"/>
		<path class="st27" d="M160.1,88.2c1.3-4.1,2.4-8.4,2.7-12.6c0.2-2.4,0.6-7.4-2.4-8.3c-0.1,0-0.2,0-0.2,0.1c0.4,1.4,1.1,2.6,1.3,4
			c0.3,1.8,0,3.7-0.1,5.5c-0.3,4-1,7.8-2.3,11.7c-2.7,7.8-6.9,15.1-12.8,20.9c-0.1,0.1,0,0.2,0.1,0.1
			C152.6,103.7,157.4,96.4,160.1,88.2L160.1,88.2z"/>
		<path class="st27" d="M144.6,111.2C144.6,111.2,144.6,111.2,144.6,111.2C144.6,111.2,144.6,111.2,144.6,111.2z"/>
		<path class="st27" d="M130.3,123.4c-2.4,1.3-4.6,2.6-7.2,3.3c-2.4,0.7-4.8,1.2-7.3,1.5c-2.7,0.3-5.3,0.2-7.9-0.2
			c-2.6-0.4-5.2-1.7-7.8-1.9c-0.5,0-0.7,0.6-0.3,0.9c2,1.5,5,1.8,7.4,2c2.7,0.3,5.5,0.2,8.2,0c5.2-0.4,10.9-2.4,15.2-5.4
			C130.6,123.5,130.4,123.3,130.3,123.4L130.3,123.4z"/>
		<path class="st27" d="M142.2,115c-3.1,2.7-6.4,5.2-9.8,7.7c-0.1,0.1,0,0.2,0.1,0.2c3.6-2.2,6.7-4.8,9.7-7.7
			C142.5,115.1,142.4,114.9,142.2,115L142.2,115z"/>
		<path class="st27" d="M109.9,128.8c-0.3,0-0.7-0.1-1-0.1C109.2,128.5,109.6,128.5,109.9,128.8z"/>
		<path class="st27" d="M157.2,118.1c-4.4,6.1-10.1,11.3-16.8,14.8c-13.4,6.9-31,5.9-42.3-4c-0.5-0.4-0.9-0.9-1.1-1.4
			c-0.2-0.4-0.1-0.9,0-1.3c3.9,1.1,7.8,2,11.8,2.5c-0.2,0.1-0.3,0.2-0.4,0.3c-0.3,0.4-0.2,1,0,1.5s0.7,0.8,1.1,1.1
			c9.5,6.6,24.5,3,33.8-2.2C148.7,126.4,153.1,122.5,157.2,118.1L157.2,118.1z"/>
		<path class="st28" d="M99.4,126.2c0.2-0.7,0.4-1.6,0-2.3c-0.3-0.4-0.9-0.6-1.3-0.3c-0.5,0.1-0.9,0.5-1.2,1c-0.7,1-0.5,2.3-0.2,3.4
			c0.2,0.8,1.4,1.2,1.8,0.4C98.9,127.7,99.2,127,99.4,126.2L99.4,126.2z"/>
		<path class="st27" d="M127.6,132.4c0.1-0.6-0.4-1.1-1-1.1c-0.2,0-0.4,0-0.7,0c-0.4,0-0.7,0-1.1,0.2c-0.8,0.4-0.7,1.4,0.1,1.8
			c0.3,0.1,0.7,0.1,1,0.1c0.2,0,0.3,0,0.5,0c0.1,0,0.1,0,0.1,0c0,0,0.1,0,0.1,0c0,0,0,0,0.1,0s0,0,0.1,0l0,0
			C127.2,133.2,127.5,132.9,127.6,132.4L127.6,132.4z"/>
		<path class="st27" d="M122.4,132.2c-0.2-0.2-0.4-0.3-0.7-0.3c-0.5,0-1,0.3-0.9,0.9c0.1,0.4,0.5,0.6,0.9,0.5
			c0.3-0.1,0.5-0.3,0.7-0.5C122.5,132.6,122.5,132.3,122.4,132.2L122.4,132.2z"/>
		<path class="st27" d="M131.4,131.2c-0.1-0.5-0.4-0.7-0.9-0.9c-0.3-0.1-0.6-0.3-0.9-0.3c-0.3,0-0.6,0.2-0.6,0.5
			c-0.1,0.9,1.2,1.9,2,1.4C131.3,131.8,131.5,131.5,131.4,131.2L131.4,131.2z"/>
		<path class="st27" d="M141.3,126.6c-0.8-0.2-1.8,0.2-2.2,0.9c0,0.1-0.1,0.2-0.1,0.2c-0.1,0.1-0.2,0.2-0.3,0.2
			c-0.8,0.6-0.1,2,0.9,1.8c1-0.2,1.9-0.8,2.5-1.6C142.6,127.5,142.1,126.8,141.3,126.6L141.3,126.6z"/>
		<path class="st27" d="M136.7,127.8c-0.1-0.2-0.3-0.2-0.4-0.2c-0.4,0.1-0.8,0.3-1,0.7c-0.1,0.3,0,0.6,0.3,0.8
			c0.3,0.2,0.8,0.1,1-0.2C136.9,128.6,136.9,128.2,136.7,127.8L136.7,127.8z"/>
		<path class="st27" d="M145.3,123.4c0-0.2-0.2-0.3-0.4-0.4c-0.4-0.1-0.7,0-1,0.2c-0.1,0.1-0.5,0.4-0.3,0.6c0.2,0.2,0.5,0.3,0.8,0.3
			c0.3,0,0.6-0.1,0.8-0.3C145.3,123.7,145.3,123.6,145.3,123.4L145.3,123.4z"/>
		<path class="st27" d="M141.6,121.2c0-0.1-0.1-0.2-0.2-0.2l0,0c-0.2-0.1-0.4,0-0.6,0.1c-0.3,0.1-0.6,0.3-0.6,0.7
			c0,0.2,0.2,0.5,0.5,0.5c0.4,0,0.6-0.2,0.8-0.5C141.6,121.6,141.6,121.4,141.6,121.2L141.6,121.2z"/>
		<path class="st27" d="M154.4,117.7c-0.2-0.4-0.6-0.5-1-0.3c-0.5,0.2-0.7,0.5-1,0.8c-0.1,0.1-0.2,0.2-0.2,0.3
			c-0.4,0.1-0.6,0.4-0.9,0.6c-0.9,0.8,0.1,2,1.1,1.6C153.5,120.3,155,119,154.4,117.7z"/>
		<g>
			<path class="st27" d="M156,114.4c-0.3-0.1-0.7-0.1-1,0.1c-0.4,0.2-0.6,0.6-0.6,1c0,0.2,0.1,0.4,0.2,0.5c0.2,0.2,0.5,0.1,0.7,0h0
				c0,0,0.1-0.1,0.1-0.1c0.1-0.1,0.2-0.2,0.4-0.2c0,0,0.2-0.2,0.2-0.2c0.1-0.1,0.2-0.2,0.2-0.3C156.4,115,156.3,114.6,156,114.4
				L156,114.4z"/>
			<path class="st27" d="M156,115.5L156,115.5C156,115.5,156,115.5,156,115.5z"/>
		</g>
		<path class="st27" d="M161.3,57.9c-0.1-0.3-0.3-0.7-0.6-0.9c-0.2-0.2-0.7-0.3-1,0c-0.4,0.4-0.3,1-0.4,1.5
			c-0.1,0.7,0.5,1.7,1.3,1.2C161.4,59.3,161.5,58.6,161.3,57.9L161.3,57.9z"/>
		<path class="st27" d="M160.8,62.2L160.8,62.2c0.1-0.1-0.1-0.3-0.2-0.2l-0.1,0c-0.7-0.1-1.2,0.7-1,1.3c0.1,0.4,0.7,0.6,1,0.2
			C160.7,63.1,160.9,62.7,160.8,62.2L160.8,62.2z"/>
		<path class="st27" d="M159.3,60.8c-0.1,0-0.1,0-0.2,0c-0.2-0.1-0.3,0.2-0.1,0.3l0.1,0c0,0,0,0.1,0.1,0.1c0.1,0.2,0.4,0.1,0.5-0.1
			C159.7,60.9,159.5,60.7,159.3,60.8L159.3,60.8z"/>
		<path class="st27" d="M166.4,88.2c-0.3-0.3-0.9-0.3-1.2,0c-0.3,0.4-0.3,0.9-0.4,1.4c-0.1,0.5-0.2,1,0,1.5s0.8,0.8,1.2,0.4
			C166.9,90.9,167.2,89.1,166.4,88.2L166.4,88.2z"/>
		<path class="st27" d="M165,86.6c0-0.2,0-0.3-0.1-0.5c0-0.1-0.1-0.2-0.3-0.1c-0.1,0-0.1,0-0.2,0c-0.1,0.1-0.2,0.1-0.3,0.2
			c-0.2,0.1-0.2,0.4-0.3,0.6c-0.2,0.5,0.5,0.8,0.8,0.4C164.8,87,164.9,86.8,165,86.6L165,86.6z"/>
		<path class="st27" d="M164.1,94.7c0-0.1,0-0.3,0.1-0.4c0-0.2,0-0.3-0.1-0.5c-0.1-0.2-0.1-0.4-0.3-0.6c0-0.1-0.2-0.2-0.3-0.1
			c-0.3,0-0.5,0.3-0.6,0.6c-0.1,0.2-0.1,0.4-0.1,0.7c0,0.2,0.2,0.4,0.3,0.6C163.4,95.4,164,95.2,164.1,94.7L164.1,94.7z"/>
		<path class="st27" d="M163.6,101.8c0-0.3-0.1-0.7-0.1-1c0-0.2-0.2-0.2-0.3-0.1c-0.1,0.2-0.4,0.4-0.6,0.6c-0.2,0.3-0.4,0.6-0.4,0.9
			c0,0.6,0.7,0.8,1.1,0.4C163.5,102.4,163.6,102.2,163.6,101.8L163.6,101.8z"/>
		<path class="st25" d="M133.9,115.8c-0.7-0.8-1.9,0-2.5,0.5c-0.4,0.4-0.5,1.1-0.1,1.5c0.4,0.5,1.1,0.5,1.6,0.1l0,0
			C133.5,117.6,134.7,116.7,133.9,115.8L133.9,115.8z"/>
		<path class="st25" d="M135.6,115.2c0-0.1,0-0.3,0-0.4c-0.1-0.3-0.7-0.5-0.8-0.1c-0.1,0.2-0.1,0.3-0.1,0.5c0,0.2,0.2,0.3,0.4,0.3
			C135.3,115.6,135.5,115.5,135.6,115.2z"/>
		<path class="st25" d="M129.4,118.3c-0.1-0.2-0.1-0.3,0-0.5c0.1-0.2-0.2-0.3-0.3-0.2c-0.5,0.3-1.2,1.1-0.5,1.7
			c0.2,0.2,0.6,0.1,0.7-0.1C129.5,118.9,129.5,118.6,129.4,118.3z"/>
		<path class="st25" d="M146.3,91.8c0.1-0.5-0.3-0.9-0.7-1.1c-0.6-0.2-1.2,0.1-1.4,0.6c-0.1,0.2-0.2,0.5-0.3,0.7
			c-0.2,0.2-0.3,0.5-0.5,0.7c-0.2,0.4-0.3,0.9,0.1,1.2c0.4,0.4,1.1,0.5,1.5,0.1C145.6,93.6,146.2,92.7,146.3,91.8L146.3,91.8z"/>
		<path class="st25" d="M147.8,89c-0.2-0.2-0.5-0.1-0.7,0c-0.5,0.4-0.5,1.2-0.2,1.7c0.2,0.3,0.8,0.5,1,0.1
			C148.3,90.3,148.4,89.5,147.8,89L147.8,89z"/>
		<path class="st25" d="M144.4,97c-0.2-0.2-0.4-0.3-0.6-0.3c-0.1,0-0.2,0-0.3,0c0.1,0,0.1,0-0.1,0c-0.1,0-0.1,0-0.2,0.1
			c-0.2,0.1-0.4,0.3-0.3,0.6c0.1,0.3,0.3,0.5,0.6,0.6c0.2,0.1,0.5,0.1,0.6,0c0.2-0.1,0.3-0.2,0.4-0.4
			C144.6,97.4,144.5,97.1,144.4,97L144.4,97z"/>
	</g>
	<g>
		<path class="st29" d="M126.6,135.3c-3.1,2.8-6.7,4.6-10.5,3.7c-2.1-0.5-3.9-2.1-6-1.9c-2.5,0.2-4.2,1.7-6.8,1.6
			c-1.9-0.1-2.9-0.5-4.4-1.6c-3.6-2.8-6.6-6.5-9.1-10.3c-5.6-8.8-8.2-20.2-6.9-30.5c0.7-5.2,4-10.4,9-11.8c3.9-1.1,8,0.2,11.8,1.4
			c2.2,0.7,4.4,1.5,6.7,1.3c1.9-0.2,3.7-1.1,5.4-1.8c8.6-3.5,19.3-2.9,24,6.1c4.9,9.2,1.8,20.2-2.7,28.9
			C135,124.3,131.3,131,126.6,135.3L126.6,135.3z"/>
		<path class="st30" d="M137.7,105.4c-1.4,5.6-4.1,10.4-10.1,11.9c-3.2,0.8-6.5,0.5-9.7-0.1c-10-1.8-20.3-6.9-24.5-16.6
			c-0.7-1.5-1.1-3.2-0.9-4.8c0.2-1.6,1-3.3,2.5-4c1.8-1,3.9-0.5,5.9-0.1c4.5,1.1,9.2,2.2,13.8,1.4c3.2-0.5,6.2-1.9,9.4-2.8
			c3.2-0.9,6.7-1.2,9.6,0.5c2.4,1.4,3.9,3.9,4.4,6.6C138.7,100,138.3,102.7,137.7,105.4L137.7,105.4z"/>
		<path class="st31" d="M105.8,87.7c2.4,0.7,4.7,0,7.1,0.3c0.3,0,0.5,0.2,0.7,0.4c1-0.5,1.9-1.1,3.1-0.6c0.1,0,0.2,0.2,0.1,0.3
			c-1,1.6-3.2,2.7-4.9,3.2c-2.4,0.6-4.9-0.7-6.9-1.8C103.8,89,104.7,87.4,105.8,87.7L105.8,87.7z"/>
		<path class="st31" d="M99.4,130.7c0.5-0.4,1.2-0.4,1.7-0.1c0.5,0.3,1,0.6,1.5,1c0.2,0.2,0.3,0.4,0.3,0.7c0.3,0.5,0.3,1.2-0.2,1.6
			c-0.8,0.7-1.8,0.2-2.4-0.4c-0.4-0.4-0.8-0.9-1.1-1.3C98.8,131.8,99,131.1,99.4,130.7L99.4,130.7z"/>
		<path class="st31" d="M96.2,128.4c0.1-0.4,0.2-0.8,0.7-0.8c0.3,0,0.5,0.2,0.7,0.3c0.2,0.2,0.5,0.4,0.7,0.7
			c0.2,0.5,0.1,1.1-0.4,1.3c-0.5,0.2-1.2,0.1-1.4-0.4c-0.1-0.2-0.2-0.4-0.2-0.7C96.2,128.7,96.2,128.6,96.2,128.4L96.2,128.4z"/>
		<path class="st31" d="M105.5,131.5c0.2,0,0.5,0.1,0.6,0.3c0.4,0.7-0.3,1.5-1.1,1.2c-0.2-0.1-0.4-0.3-0.4-0.5
			C104.6,132,105,131.6,105.5,131.5z"/>
		<path class="st31" d="M89.9,120.4c0.2-0.5,0.7-0.7,1.2-0.6c0.6,0.1,1,0.6,1.4,1.1c0.4,0.4,0.8,0.9,1.1,1.5
			c0.4,0.7,0.1,1.6-0.6,1.9c-0.8,0.4-1.5,0-2-0.7c-0.3-0.4-0.5-0.9-0.8-1.4C89.9,121.6,89.7,121,89.9,120.4L89.9,120.4z"/>
		<path class="st31" d="M89.6,116.6c0.2-0.2,0.5-0.2,0.7-0.3c0.4,0,0.9,0.3,0.8,0.7v-0.1c0,0.1,0,0.2-0.1,0.3c0,0-0.1,0.1-0.1,0.1
			c-0.1,0.1-0.2,0.3-0.3,0.4c-0.2,0.2-0.4,0.2-0.7,0.2c-0.4,0-0.6-0.3-0.7-0.6C89.3,117.1,89.4,116.7,89.6,116.6L89.6,116.6z"/>
		<path class="st31" d="M96.2,122.7c0.1-0.1,0.2-0.1,0.3-0.1h0c0,0,0,0,0.1,0c0,0,0.1,0,0.1,0c0,0,0,0,0,0c0,0,0,0,0,0c0,0,0,0,0,0
			h0c0.1,0.1,0.1,0.1,0.2,0.2c0.1,0.2,0.1,0.4,0.1,0.6c0,0.5-0.7,0.5-0.8,0.1C96,123.2,96,123,96.2,122.7L96.2,122.7z"/>
		<path class="st31" d="M119.9,133.9c0.4-0.4,1-0.4,1.5-0.6c0,0,0.1,0,0.1-0.1c0.1-0.1,0.2-0.1,0.4-0.2c-0.2,0.1,0.2-0.2,0.2-0.1
			c0.4-0.4,0.1-0.1,0.3-0.2c0.7-0.5,1.6-0.1,1.7,0.8c0.2,1.9-2.9,3.6-4.2,2C119.4,135.1,119.4,134.3,119.9,133.9L119.9,133.9z"/>
		<path class="st31" d="M114.8,134c0.2-0.7,1.2-0.9,1.6-0.3c0.1,0.2,0.2,0.3,0.3,0.5l0.1,0.2c0,0.1,0.1,0.1,0.2,0.1
			c0.2,0.1,0.1,0.4-0.1,0.4c-0.2,0-0.2,0-0.4,0.1c-0.2,0.1-0.3,0.2-0.5,0.2C115.2,135.4,114.5,134.7,114.8,134L114.8,134z"/>
		<path class="st31" d="M125.9,128.8c0.1-0.2,0.3-0.3,0.5-0.4c0,0,0.1-0.1,0.1-0.1c-0.1,0.1-0.1,0.1,0.1-0.1
			c0.3-0.1,0.8-0.5,1.1-0.2c1.1,0.9-0.3,2.9-1.5,2.1C125.8,129.8,125.7,129.2,125.9,128.8L125.9,128.8z"/>
		<path class="st31" d="M116.1,129.2c0.5,0,1,0,1.4,0.2c0.3,0.1,0.9,0.4,0.7,0.8c-0.1,0.4-0.6,0.4-1,0.5c-0.5,0-0.9-0.1-1.4-0.4
			C115.2,130.1,115.4,129.3,116.1,129.2L116.1,129.2z"/>
		<path class="st31" d="M86.4,112.5c0.1-0.3,0.2-0.6,0.4-0.8c0.1-0.1,0.2-0.1,0.3,0c0.2,0.2,0.4,0.4,0.5,0.7c0.1,0.3,0.1,0.7,0.1,1
			c-0.1,0.7-1,0.7-1.2,0.1C86.4,113.1,86.3,112.8,86.4,112.5z"/>
		<path class="st31" d="M109.1,134c0.5-0.3,1.1-0.4,1.6-0.1c0.4,0.2,0.6,0.6,0.2,1c-0.4,0.4-1,0.5-1.6,0.4c-0.3-0.1-0.6-0.2-0.6-0.5
			C108.7,134.4,108.8,134.1,109.1,134L109.1,134z"/>
		<path class="st31" d="M99.6,127.4c0.6-0.6,1.9-0.8,2.6-0.2c0.2,0.1,0.3,0.5,0.1,0.7c-0.3,0.2-0.7,0.3-1,0.5
			c-0.4,0.2-0.8,0.2-1.2,0.2C99.5,128.6,99.2,127.8,99.6,127.4L99.6,127.4z"/>
		<path class="st31" d="M91.1,112.2c1.1,0.2,2.3,1,2.6,2c0.1,0.3-0.1,0.6-0.4,0.6c-1.1,0.1-2.4-0.7-2.9-1.6
			C90.1,112.8,90.6,112.2,91.1,112.2L91.1,112.2z"/>
		<path class="st31" d="M129.7,123.6c0.6-0.2,1.1-0.5,1.5-0.8c0.2-0.2,0.6,0,0.6,0.3c0,1-1,1.7-1.9,1.6c-0.3,0-0.5-0.2-0.6-0.4
			C129.3,123.9,129.5,123.6,129.7,123.6z"/>
		<path class="st30" d="M102.2,114.9c0.6-0.4,1.3-0.5,2-0.2c0.6,0.3,1.4,0.6,1.7,1.3c0.1,0.2,0.1,0.5-0.1,0.6
			c-1.1,0.7-3.2,0.3-3.8-0.9C101.9,115.5,101.9,115,102.2,114.9z"/>
		<path class="st30" d="M100.6,112.8c0.3,0.1,0.7,0.4,0.7,0.7c0,0.3,0,0.6-0.3,0.7c-0.5,0.2-1.1-0.2-1.2-0.7
			C99.7,113,100.2,112.7,100.6,112.8z"/>
		<path class="st30" d="M88.6,95.2c0.2-0.6,0.5-1.2,1.1-1.5c0.6-0.2,1.2,0.1,1.4,0.7c0.1,0.3,0.1,0.5,0,0.8c0,0.2-0.1,0.4-0.1,0.7
			c-0.1,0.5-0.3,1-0.7,1.3c-0.4,0.3-0.9,0.3-1.3-0.1C88.5,96.5,88.4,95.8,88.6,95.2L88.6,95.2z"/>
		<path class="st30" d="M89.7,99.9c0.2-0.2,0.4-0.3,0.6-0.2c0.6,0.2,0.9,0.8,1.3,1.4c0.3,0.6-0.3,1.1-0.8,0.9
			c-0.5-0.1-0.8-0.4-1.1-0.8C89.5,100.8,89.5,100.2,89.7,99.9L89.7,99.9z"/>
		<path class="st29" d="M125,113.8c0.3-0.3,0.8-0.4,1.3-0.5c0.4-0.1,0.8-0.3,1.2-0.4c0.4,0,0.8,0.1,0.9,0.6c0.3,1.7-2.7,2.9-3.6,1.2
			C124.6,114.4,124.7,114,125,113.8z"/>
		<path class="st29" d="M121.3,113.6c0.4-0.1,0.8,0,1.1,0.3c0.2,0.2,0.3,0.4,0.3,0.6c0.1,0.2,0,0.5-0.3,0.5
			c-0.2,0.1-0.4,0.1-0.7,0.1c-0.5-0.1-0.9-0.3-1-0.8C120.8,114,121.1,113.7,121.3,113.6L121.3,113.6z"/>
		<path class="st29" d="M100.2,105.6c0.6,0,1.1,0.4,1.6,0.9c0.4,0.4,0.8,0.9,0.9,1.4c0.1,0.4-0.2,0.8-0.7,0.8
			c-0.5-0.1-1-0.3-1.5-0.6c-0.5-0.4-1.1-0.8-1.2-1.5C99.3,106,99.7,105.6,100.2,105.6L100.2,105.6z"/>
		<path class="st29" d="M97.2,101c0.3,0.1,0.6,0.1,0.8,0.4c0.2,0.3,0.3,0.7,0.1,1c-0.1,0.3-0.4,0.4-0.7,0.3c-0.4-0.2-0.8-0.5-0.8-1
			C96.6,101.5,96.8,101,97.2,101z"/>
		<path class="st29" d="M132.6,108.5c0.4-0.5,0.7-1,1.2-1.3c0.2-0.1,0.4,0,0.5,0.2c0.7,1.2-0.3,3.5-1.7,3.6c-0.5,0-0.9-0.2-0.9-0.8
			C131.7,109.5,132.1,109,132.6,108.5L132.6,108.5z"/>
		<path class="st32" d="M125.5,92.3c1.7-0.6,3.5-1.3,5.3-0.4c1.1,0.6,1.2,1.7,0.9,2.8c0.2,0.7,0.2,1.4,0,2.2
			c-0.5,1.9-2.6,2.8-4.4,2.7c-1.7-0.1-4.6-1.8-5-3.6C121.9,93.8,123.6,93,125.5,92.3L125.5,92.3z"/>
		<path class="st32" d="M111.9,95.5c1.5-0.5,3.1-0.6,4.7-0.5c1.1,0.1,1.6,1.3,1.2,2.1c0,0.3-0.1,0.6-0.3,0.8c-1.5,1.6-4.4,1.3-6,0.1
			C110.5,97.1,110.7,95.9,111.9,95.5z"/>
		<path class="st32" d="M133.3,96.7C133.3,96.7,133.4,96.7,133.3,96.7c0.1-0.1,0.1-0.2,0.2-0.3c0.2-0.3,0.4-0.4,0.8-0.4
			c0.6,0,1.1,0.5,1.2,1.1c0.1,0.4,0,0.7-0.2,1c-0.3,0.4-0.8,0.7-1.4,0.5C133.1,98.4,132.9,97.4,133.3,96.7L133.3,96.7z"/>
		<path class="st32" d="M131.3,100.6c0.1-0.2,0.2-0.4,0.4-0.5c0.2-0.1,0.4-0.1,0.7-0.1c0.2,0,0.4,0.2,0.3,0.3c0,0.2,0,0.4-0.1,0.6
			c-0.2,0.2-0.4,0.3-0.6,0.4C131.5,101.6,131.1,101.1,131.3,100.6L131.3,100.6z"/>
		<path class="st32" d="M105.6,94.7c0.4,0,0.7,0.1,1,0.3c0.1,0.1,0.2,0.2,0.3,0.4c0,0.1,0,0.2,0.1,0.1c0,0,0.1,0.4,0,0.2
			c0.1,0.2,0,0.3-0.2,0.4c0.2-0.1-0.2,0.1-0.1,0.1c-0.2,0.1-0.4,0.1-0.7,0c-0.4-0.1-0.6-0.2-0.9-0.5C104.7,95.2,105,94.7,105.6,94.7
			z"/>
		<path class="st3" d="M111.1,77.9c0.3-0.5,0.9-0.6,1.4-0.5c0.2,0,0.4,0.1,0.5,0.2l0.1,0.1c0.4,0.5,0.4,0.9,0.1,1.5
			c-1.8,3.3-2.4,6-1.9,9.7c0.1,0.4-0.5,0.6-0.7,0.2C108.8,85.9,108.9,81,111.1,77.9L111.1,77.9z"/>
	</g>
	<g>
		<path class="st29" d="M95.4,93.4c-11.5,9.1-23.6,17.3-36.3,24.7c5.7,5.1,13.4,8.4,21,8c7.7-0.4,15.3-4.7,18.8-11.5
			S101.2,98.5,95.4,93.4z"/>
		<path class="st22" d="M94.5,93.1c-0.4,0-0.8,0.2-1.1,0.3c-13.1,6.3-26,13-38.7,20c2.6,3.6,5.9,6.8,9.9,8.9
			c3.9,2.1,8.5,3.1,12.9,2.6c6.5-0.8,12.4-4.9,15.8-10.5c3.4-5.6,4.3-12.5,3.1-18.9C96.1,94.4,95.6,93.2,94.5,93.1z"/>
		<path class="st33" d="M70.2,108.5c-0.1,1.2,0.9,2.3,2,2.7c1.3,0.5,2.7,0.4,4,0c1.3-0.4,2.5-1.2,3.6-1.9c1.6-1.1,3.2-2.4,3.6-4.3
			c0.2-0.8,0.1-1.6-0.5-2.2c-0.5-0.5-1.2-0.7-1.9-0.6s-1.3,0.3-2,0.6c-2.4,1-4.9,1.9-7.1,3.4C71.2,106.7,70.3,107.4,70.2,108.5z"/>
		<path class="st3" d="M80.5,105.1c-0.2-0.7-0.8-0.9-1.5-1c-1.2-0.1-3,0.4-3.7,1.6c-0.1,0.1-0.2,0.2-0.3,0.3
			c-0.7,0.8-0.3,1.9,0.7,2.1c1.6,0.4,3.4-0.5,4.5-1.6C80.5,106.1,80.6,105.6,80.5,105.1L80.5,105.1z"/>
		<path class="st23" d="M70.9,112.8c-1.4-0.5-2.7-1.2-4.2-1.4c-1.4-0.3-3.1,0-4.1,1.1c-1.1,1.2-0.9,3.2,0,4.6
			c0.9,1.4,2.4,2.2,3.9,2.9c2.4,1,5.1,1.6,7.7,1.3c2.6-0.3,5.2-1.5,6.8-3.6c0.6-0.8,1.1-2,0.7-2.9c-0.3-0.7-1-1.1-1.8-1.2
			c-0.7-0.1-1.5-0.1-2.2,0C75.3,113.7,73,113.5,70.9,112.8L70.9,112.8z"/>
		<path class="st23" d="M87.4,108.9c-2,0.8-3.6,2.6-4,4.6c-0.1,0.5-0.1,1.1,0.2,1.5c0.3,0.2,0.7,0.3,1,0.3c2.2,0.1,4.5-1.3,5.3-3.4
			c0.2-0.5,0.4-1.1,0.3-1.7s-0.4-1.1-0.9-1.4C88.8,108.5,88.1,108.6,87.4,108.9z"/>
		<path class="st31" d="M94.3,117.7c-0.8-0.3-1.4-0.1-2,0.4c-0.5,0.4-0.9,0.8-1.1,1.4c-0.2,0.6,0.4,1,0.9,1c0.6,0,1.2-0.3,1.7-0.6
			c0.6-0.3,1.1-0.9,1-1.6C94.8,118.1,94.6,117.8,94.3,117.7z"/>
		<path class="st31" d="M95.7,115.8c-0.2,0.2-0.3,0.4-0.4,0.7c-0.1,0.2,0.2,0.3,0.4,0.2c0.2-0.2,0.4-0.3,0.4-0.6
			C96.1,115.8,95.9,115.6,95.7,115.8L95.7,115.8z"/>
		<path class="st31" d="M98.9,107c-0.2-0.3-0.7-0.3-0.9,0.1c-0.4,0.6-0.3,1.4-0.1,2c0.2,0.6,1.1,0.5,1.2-0.1
			C99.3,108.4,99.4,107.6,98.9,107z"/>
		<path class="st31" d="M96.7,111.7c-0.2,0.3-0.4,0.6-0.5,1c-0.1,0.6,0.7,0.8,1,0.3c0.2-0.3,0.2-0.7,0.3-1.1
			C97.4,111.6,96.9,111.5,96.7,111.7z"/>
	</g>
	<path class="st34" d="M64.3,178.2c-16.9-3.4-30.2-11.9-40.4-24.4s-15-28.4-13.3-43.7c52.8,7.9,107,6.3,160-0.3
		c1.5-0.2,2.1,29.4-17.9,49.3c-9.9,9.9-27.4,17.8-42.2,19.8C95.2,180.9,79.6,181.2,64.3,178.2L64.3,178.2z"/>
	<path class="st2" d="M174.7,104.3c0.6,3.7-3.5,6.5-7.1,8.2c-22.4,10.7-47.7,16.3-73.1,16.9s-50.8-4-74.3-12.6
		c-3.3-1.2-6.7-2.6-9.3-4.8c-2.6-2.2-3.9-5.4-3.9-8.6c0-4.7,4.5-6.5,10.9-6.8c-0.1,1.6-0.2,3.3-0.4,4.9c48.6,16.8,100,16.2,147-0.3
		c0.1-0.9,0.2-1.8,0.3-2.8C169,99,174,100.5,174.7,104.3L174.7,104.3z"/>
	<path class="st2" d="M106.2,29.2c-5.5,0-11.1,1.3-16.9,3.5C74.8,38.4,65,52.6,60.7,67.5s-3.7,30.8-2.7,46.4
		c5.4,1.6,11.2,1.8,16,2.2c-0.7-13.1-0.3-26.3,1.3-39.4c0.8-6.7,2-13.4,5-19.4c3.6-7,13.1-15,20.9-16.7c1.8-0.4,3.6-0.5,5.2-0.4
		C106.1,36.7,106,33,106.2,29.2z"/>
	<path class="st35" d="M77.2,178.5c-23.5-7.6-38.9-29.3-36.7-54.9c0.1-1.5-2.4-0.7-2.4,0.5c-0.8,25,14.5,47.7,37.8,56.5
		C77,181,78.7,178.9,77.2,178.5z"/>
	<path class="st35" d="M87,178.4c-10.7-14-15.5-31.7-13.4-49.2c0.2-1.5-2.4-0.7-2.4,0.5c-0.4,18.2,3.1,36.1,13.6,50.2
		C85.6,181,87.8,179.4,87,178.4L87,178.4z"/>
	<path class="st35" d="M103,178.5c22.7-8.5,37.5-30.7,36.7-54.9c-0.1-1.5,2.4-0.7,2.4,0.5c0.8,25-15.2,46.8-38.6,55.6
		C102.5,180.1,101.6,179,103,178.5L103,178.5z"/>
	<path class="st35" d="M93.3,178.4c10.7-14,16.6-32.1,14.4-49.6c-0.2-1.5,1.2-0.3,1.4,0.9c2.2,17.8-2.8,36-13.6,50.2
		C94.7,181,92.5,179.4,93.3,178.4z"/>
	<path class="st34" d="M73,112.1c-5.2,1.4-10-1.9-15.3-1.7c-0.7,0-1.5,1.3-0.5,1.3c5.4-0.2,10.2,3.2,15.6,1.7
		C73.7,113.2,74,111.8,73,112.1L73,112.1z"/>
	<path class="st34" d="M73.8,102.6c-6.5,0.2-12.5-3.3-15.6-9c-0.4-0.7-1.7,0.2-1.3,0.9c3.3,6,9.6,9.6,16.4,9.4
		C74.1,103.9,74.8,102.6,73.8,102.6z"/>
	<path class="st34" d="M74.2,90.9c-7.1-2.3-12.5-8-14.5-15.2c-0.2-0.8-1.6-0.1-1.4,0.6c2.1,7.5,7.8,13.4,15.2,15.8
		C74.1,92.4,75.1,91.2,74.2,90.9L74.2,90.9z"/>
	<path class="st34" d="M75.6,75.4c-6-4.7-9.4-11.8-9.4-19.4c0-0.9-1.5-0.4-1.5,0.3c-0.1,7.9,3.5,15.3,9.8,20.2
		C75.1,77,76.3,75.9,75.6,75.4z"/>
	<path class="st34" d="M80.3,58.2c-3.4-5.8-3.9-12.8-1.3-19.1c0.4-0.9-1.1-0.7-1.4,0c-2.7,6.6-2.2,13.9,1.4,20
		C79.3,59.8,80.7,58.9,80.3,58.2L80.3,58.2z"/>
	<path class="st34" d="M97.1,30.1c-6.1,4-9.6,11-9,18.2c0.1,0.9,1.5,0.4,1.5-0.3c-0.5-6.8,2.5-13.2,8.2-17
		C98.6,30.5,97.9,29.5,97.1,30.1z"/>
	<path class="st34" d="M111.4,28.9c-4.8,2.1-8.2,6.3-9.3,11.5c-0.2,0.9,1.3,0.4,1.5-0.3c0.9-4.5,3.9-8.2,8.1-10
		C112.5,29.7,112.4,28.5,111.4,28.9L111.4,28.9z"/>
	<path class="st34" d="M27.7,120.9c-7.3-3.4-11.1-11.2-8.9-19.1c0.3-1-1.2-0.7-1.4,0c-2.3,8.2,1.4,16.6,9.2,20.2
		C27.3,122.3,28.4,121.2,27.7,120.9z"/>
	<path class="st34" d="M46.2,125.6c-7.1-3.5-11.2-10.7-10.6-18.7c0.1-0.9-1.4-0.4-1.5,0.3c-0.7,8.2,3.6,15.8,11,19.5
		C45.8,127,46.9,125.9,46.2,125.6z"/>
	<path class="st34" d="M67.9,131.2c-5.6-4.9-12.3-11.5-9.7-19.7c0.3-0.9-1.2-0.7-1.4,0c-2.8,8.7,4,15.6,9.9,20.8
		C67.3,132.8,68.5,131.8,67.9,131.2L67.9,131.2z"/>
	<path class="st34" d="M87.5,130.1c-7.3-2.5-11.8-9.5-11.1-17.2c0.1-0.9-1.4-0.4-1.5,0.3c-0.7,8.2,4,15.5,11.8,18.2
		C87.4,131.6,88.4,130.4,87.5,130.1z"/>
	<path class="st34" d="M106.6,129.7c-5.7-3.1-9.2-9.1-8.8-15.6c0.1-0.9-1.4-0.4-1.5,0.3c-0.4,6.8,3.1,13.2,9.2,16.4
		C106.1,131.2,107.3,130,106.6,129.7z"/>
	<path class="st34" d="M130.9,129.7c-7.4-2.9-12.5-10-12.9-17.9c0-0.9-1.5-0.4-1.5,0.3c0.3,8.4,5.7,15.9,13.5,18.9
		C130.8,131.3,131.7,130.1,130.9,129.7L130.9,129.7z"/>
	<path class="st34" d="M149.4,123.5c-6.5-2-11.1-7.6-11.9-14.3c-0.1-0.8-1.5-0.1-1.4,0.6c0.8,7.1,5.8,12.9,12.6,15
		C149.3,125,150.3,123.8,149.4,123.5z"/>
	<path class="st34" d="M167.8,116.8c-6.1-1.4-10.6-6.3-11.8-12.4c-0.1-0.8-1.6-0.1-1.4,0.6c1.2,6.4,6.1,11.5,12.4,13
		C167.7,118.2,168.7,117,167.8,116.8L167.8,116.8z"/>
	<path class="st35" d="M167.9,120.2c-9.6,8.6-22,12.3-34.4,14.1c-13.8,1.9-28.1,2-42.1,2.2c-13.9,0.2-28.2,0.6-42-1.5
		c-13.3-2.1-25.6-7.8-37.7-13.4c-0.7-0.3-1.8,0.8-1.1,1.1c12.2,5.7,24.5,11.3,38,13.6c14.2,2.4,29,1.8,43.4,1.5
		c14.4-0.2,29.1-0.4,43.4-2.6c12.2-1.8,24.2-6.1,33.5-14.4C169.7,120.1,168.6,119.6,167.9,120.2L167.9,120.2z"/>
	<path class="st35" d="M164.6,142.2c-24.1,10.1-50.4,11.2-76.2,11.4c-25.3,0.2-52.9-0.2-73.5-17.1c-0.6-0.5-1.7,0.6-1.1,1.1
		c20.7,17,48.6,17.4,74.1,17.3c26-0.2,52.6-1.4,76.9-11.5C165.7,143.1,165.6,141.9,164.6,142.2L164.6,142.2z"/>
	<path class="st35" d="M134.8,169.7c-17.7,1.7-35.6,0.7-53.3,0c-8.9-0.4-17.7-0.9-26.5-1.9c-8.2-0.9-16.7-2.2-23.6-7.1
		c-0.6-0.4-1.8,0.6-1.1,1.1c6,4.3,13.1,5.9,20.3,6.8c9.4,1.3,18.9,1.8,28.3,2.2c18.4,0.8,37.1,1.9,55.5,0.1
		C135.1,171,135.8,169.6,134.8,169.7L134.8,169.7z"/>
</g>
</svg>
