<?xml version="1.0" encoding="UTF-8"?><svg xmlns="http://www.w3.org/2000/svg" viewBox="0 0 312.84 144.87"><defs><style>.b,.c{fill:#ffbdae;mix-blend-mode:overlay;}.b,.d{opacity:.4;}.e{fill:#d4804a;}.f{fill:#fff;}.g{fill:#e0a363;}.h{stroke:#9e6c3b;}.h,.i{fill:#ffc483;}.h,.j{stroke-miterlimit:10;}.k,.c{opacity:.5;}.l{isolation:isolate;}.j{fill:#d48d59;stroke:#8c552f;}.d{fill:#e8bf91;}.d,.m{mix-blend-mode:multiply;}.n{fill:#f0b974;}.m{fill:#e0ae76;opacity:.59;}</style></defs><g class="l"><g id="a"><g><path class="k" d="M98.04,142.14c-.86,0-1.71-.02-2.56-.05-.79-.03-1.6-.07-2.4-.13-2.74-.19-5.51-.54-8.23-1.04h-.06c-.97-.19-1.93-.39-2.89-.61,0,0-.03,0-.04,0-.95-.22-1.89-.45-2.83-.71-.02,0-.05-.01-.07-.02-.96-.26-1.91-.54-2.85-.84-2.27-.72-4.48-1.54-6.58-2.44l-.07-.03c-.93-.4-1.88-.83-2.89-1.32-.02,0-.08-.04-.1-.05-1.73-.84-3.49-1.78-5.19-2.79-.86-.5-1.7-1.03-2.54-1.57-.06-.04-.13-.08-.19-.12-2.19-1.42-4.35-3-6.38-4.66-.89-.73-1.79-1.5-2.74-2.36l-.47-.42c-5.45-5.03-10.07-10.82-13.74-17.24-.01-.02-.08-.13-.09-.15-2.03-3.55-3.79-7.36-5.2-11.27l-.11-.3c-.43-1.19-.79-2.3-1.11-3.35L14.08,42.11c-4.28-2-7.15-6.33-7.15-11.26v-10.29c0-6.87,5.58-12.45,12.45-12.45h21.45c.44-.1,.88-.19,1.33-.28,.33-.06,.68-.1,1.03-.1,.69,0,1.37,.13,2,.37h18.11c.44-.1,.88-.19,1.33-.28,.33-.06,.68-.1,1.04-.1,.69,0,1.37,.13,2,.37h18.11c.43-.1,.88-.19,1.33-.28,.33-.06,.68-.1,1.04-.1,.69,0,1.37,.13,2,.37h18.11c.43-.1,.88-.19,1.33-.28,.33-.06,.68-.1,1.04-.1,.69,0,1.37,.13,2,.37h18.11c.43-.1,.88-.19,1.33-.28,.33-.06,.68-.1,1.04-.1,.69,0,1.37,.13,2,.37h18.11c.43-.1,.88-.19,1.33-.28,.33-.06,.68-.1,1.04-.1,.69,0,1.37,.13,2,.37h18.11c.43-.1,.88-.19,1.33-.28,.33-.06,.68-.1,1.04-.1,.69,0,1.37,.13,2,.37h18.11c.44-.1,.88-.19,1.33-.28,.33-.06,.68-.1,1.03-.1,.69,0,1.37,.13,2,.37h18.11c.44-.1,.88-.19,1.33-.28,.33-.06,.68-.1,1.04-.1,.69,0,1.37,.13,2,.37h18.11c.43-.1,.88-.19,1.33-.28,.33-.06,.68-.1,1.04-.1,.69,0,1.37,.13,2,.37h18.11c.44-.1,.88-.19,1.33-.28,.33-.06,.68-.1,1.03-.1,.69,0,1.37,.13,2,.37h18.11c.44-.1,.88-.19,1.33-.28,.33-.06,.68-.1,1.03-.1,.69,0,1.37,.13,2,.37h6.06c6.87,0,12.45,5.58,12.45,12.45v10.29c0,4.93-2.87,9.26-7.15,11.27l-14.63,48.53c-.31,1.03-.66,2.1-1.11,3.36l-.08,.21c-1,2.79-2.16,5.49-3.47,8.08,0,.02-.02,.04-.03,.06-.45,.89-.94,1.81-1.45,2.73-.01,.02-.15,.27-.15,.27-.46,.82-.96,1.65-1.47,2.48l-.08,.14s-.08,.13-.12,.19c-.51,.81-1.02,1.6-1.55,2.37-.04,.07-.2,.29-.22,.33-.56,.81-1.14,1.62-1.73,2.41-.01,.02-.03,.03-.04,.05-3.18,4.22-6.84,8.1-10.87,11.53-1.33,1.13-2.67,2.2-3.99,3.17-.01,0-.02,.02-.03,.02-.78,.58-1.58,1.13-2.38,1.68l-.05,.03c-2.35,1.59-4.83,3.06-7.37,4.36-.02,.01-.05,.03-.08,.04-2.71,1.39-5.57,2.63-8.48,3.68l-.4,.14c-.62,.22-1.22,.43-1.83,.63l-.99,.31c-.46,.14-.92,.29-1.38,.42-.78,.23-1.57,.44-2.36,.64-1.25,.31-2.6,.61-4.12,.89l-.27,.05c-1.31,.24-2.52,.43-3.72,.59-2.27,.3-4.55,.49-6.79,.58-.9,.03-1.8,.06-2.7,.06H98.04Z"/><path class="f" d="M93.04,137.14c-.86,0-1.71-.02-2.56-.05-.79-.03-1.6-.07-2.4-.13-2.74-.19-5.51-.54-8.23-1.04h-.06c-.97-.19-1.93-.39-2.89-.61,0,0-.03,0-.04,0-.95-.22-1.89-.45-2.83-.71-.02,0-.05-.01-.07-.02-.96-.26-1.91-.54-2.85-.84-2.27-.72-4.48-1.54-6.58-2.44l-.07-.03c-.93-.4-1.88-.83-2.89-1.32-.02,0-.08-.04-.1-.05-1.73-.84-3.49-1.78-5.19-2.79-.86-.5-1.7-1.03-2.54-1.57-.06-.04-.13-.08-.19-.12-2.19-1.42-4.35-3-6.38-4.66-.89-.73-1.79-1.5-2.74-2.36l-.47-.42c-5.45-5.03-10.07-10.82-13.74-17.24-.01-.02-.08-.13-.09-.15-2.03-3.55-3.79-7.36-5.2-11.27l-.11-.3c-.43-1.19-.79-2.3-1.11-3.35L9.08,37.11c-4.28-2-7.15-6.33-7.15-11.26V15.56C1.94,8.69,7.52,3.11,14.39,3.11h21.45c.44-.1,.88-.19,1.33-.28,.33-.06,.68-.1,1.03-.1,.69,0,1.37,.13,2,.37h18.11c.44-.1,.88-.19,1.33-.28,.33-.06,.68-.1,1.04-.1,.69,0,1.37,.13,2,.37h18.11c.43-.1,.88-.19,1.33-.28,.33-.06,.68-.1,1.04-.1,.69,0,1.37,.13,2,.37h18.11c.43-.1,.88-.19,1.33-.28,.33-.06,.68-.1,1.04-.1,.69,0,1.37,.13,2,.37h18.11c.43-.1,.88-.19,1.33-.28,.33-.06,.68-.1,1.04-.1,.69,0,1.37,.13,2,.37h18.11c.43-.1,.88-.19,1.33-.28,.33-.06,.68-.1,1.04-.1,.69,0,1.37,.13,2,.37h18.11c.43-.1,.88-.19,1.33-.28,.33-.06,.68-.1,1.04-.1,.69,0,1.37,.13,2,.37h18.11c.44-.1,.88-.19,1.33-.28,.33-.06,.68-.1,1.03-.1,.69,0,1.37,.13,2,.37h18.11c.44-.1,.88-.19,1.33-.28,.33-.06,.68-.1,1.04-.1,.69,0,1.37,.13,2,.37h18.11c.43-.1,.88-.19,1.33-.28,.33-.06,.68-.1,1.04-.1,.69,0,1.37,.13,2,.37h18.11c.44-.1,.88-.19,1.33-.28,.33-.06,.68-.1,1.03-.1,.69,0,1.37,.13,2,.37h18.11c.44-.1,.88-.19,1.33-.28,.33-.06,.68-.1,1.03-.1,.69,0,1.37,.13,2,.37h6.06c6.87,0,12.45,5.58,12.45,12.45v10.29c0,4.93-2.87,9.26-7.15,11.27l-14.63,48.53c-.31,1.03-.66,2.1-1.11,3.36l-.08,.21c-1,2.79-2.16,5.49-3.47,8.08,0,.02-.02,.04-.03,.06-.45,.89-.94,1.81-1.45,2.73-.01,.02-.15,.27-.15,.27-.46,.82-.96,1.65-1.47,2.48l-.08,.14s-.08,.13-.12,.19c-.51,.81-1.02,1.6-1.55,2.37-.04,.07-.2,.29-.22,.33-.56,.81-1.14,1.62-1.73,2.41-.01,.02-.03,.03-.04,.05-3.18,4.22-6.84,8.1-10.87,11.53-1.33,1.13-2.67,2.2-3.99,3.17-.01,0-.02,.02-.03,.02-.78,.58-1.58,1.13-2.38,1.68l-.05,.03c-2.35,1.59-4.83,3.06-7.37,4.36-.02,.01-.05,.03-.08,.04-2.71,1.39-5.57,2.63-8.48,3.68l-.4,.14c-.62,.22-1.22,.43-1.83,.63l-.99,.31c-.46,.14-.92,.29-1.38,.42-.78,.23-1.57,.44-2.36,.64-1.25,.31-2.6,.61-4.12,.89l-.27,.05c-1.31,.24-2.52,.43-3.72,.59-2.27,.3-4.55,.49-6.79,.58-.9,.03-1.8,.06-2.7,.06H93.04Z"/><g><path class="j" d="M153.92,11.62H17.88c-5.61,0-9.63,5.41-8.01,10.78l18.64,61.8c8.58,28.46,34.8,47.94,64.53,47.94h121.76c29.73,0,55.95-19.48,64.53-47.94l18.64-61.8c1.62-5.37-2.4-10.78-8.01-10.78H153.92Z"/><path class="g" d="M295.88,26.62c-5.58-2.45-11.82-2.27-17.09,.49-1.17,.61-2.42,1.42-3.25,2-.75,.51-1.32,.9-1.74,1.28-3.12,2.79-7.99,6.06-13.45,5.75-1.98-.11-4.04-.69-5.94-1.67-.66-.37-3.56-2.75-4.8-3.76-1.11-.9-1.51-1.23-1.75-1.4-1.56-1.1-3.15-2-4.73-2.7-5.58-2.45-11.82-2.27-17.09,.49-1.98,1.04-3.91,2.29-5.77,3.51-4.57,2.98-8.89,5.8-13.88,5.52-1.98-.11-4.04-.69-5.94-1.67-.66-.37-3.56-2.74-4.8-3.76-1.11-.9-1.52-1.23-1.75-1.4-1.56-1.1-3.15-2.01-4.73-2.7-5.58-2.45-11.82-2.27-17.09,.49-2.14,1.12-3.8,2.59-5.41,4.01-1.18,1.05-2.3,2.04-3.54,2.83-3.6,2.28-6.89,3.31-10.07,3.13-1.98-.11-4.04-.69-5.94-1.67-.66-.37-3.56-2.74-4.8-3.76-1.11-.9-1.51-1.23-1.75-1.4-1.56-1.1-3.15-2-4.73-2.7-5.58-2.45-11.81-2.27-17.09,.49-1.98,1.04-3.91,2.29-5.77,3.51-4.57,2.98-8.89,5.8-13.88,5.52-1.98-.11-4.04-.69-5.94-1.67-.66-.37-3.56-2.74-4.8-3.76-1.11-.9-1.51-1.23-1.75-1.4-1.56-1.1-3.15-2-4.73-2.7-5.58-2.45-11.81-2.27-17.09,.49-1.17,.61-2.42,1.42-3.25,2-.75,.51-1.32,.9-1.74,1.28-3.12,2.79-7.99,6.06-13.45,5.75-1.98-.11-4.04-.69-5.94-1.67-.66-.37-3.56-2.74-4.8-3.76-1.11-.9-1.51-1.23-1.75-1.4-1.56-1.1-3.15-2-4.73-2.7-5.58-2.45-11.81-2.27-17.09,.49-.13,.07-.26,.15-.4,.22l1.51,4.99c.42-.24,.84-.47,1.25-.69,3.96-2.07,8.46-2.19,12.68-.34,1.27,.56,2.56,1.3,3.83,2.19,.16,.12,.86,.69,1.47,1.19,3.17,2.59,4.83,3.89,5.67,4.33,2.55,1.31,5.32,2.09,8.01,2.24,5.7,.32,11.63-2.12,17.13-7.05,.02-.01,.03-.03,.05-.04,.53-.4,2.4-1.73,3.91-2.52,3.96-2.07,8.46-2.19,12.68-.34,1.27,.56,2.56,1.3,3.83,2.19,.16,.12,.86,.69,1.47,1.19,3.17,2.59,4.83,3.89,5.67,4.33,2.55,1.31,5.32,2.09,8.01,2.24,6.66,.38,12.13-3.2,16.95-6.35,1.84-1.2,3.58-2.34,5.34-3.26,3.96-2.07,8.46-2.19,12.68-.34,1.27,.56,2.56,1.3,3.83,2.19,.16,.12,.86,.69,1.47,1.19,3.17,2.59,4.83,3.89,5.67,4.33,2.55,1.31,5.32,2.09,8.01,2.24,.33,.02,.67,.03,1,.03,3.94,0,7.91-1.3,12.09-3.95,1.59-1.01,2.91-2.18,4.19-3.32,1.44-1.28,2.8-2.48,4.39-3.31,3.96-2.07,8.46-2.19,12.68-.34,1.27,.56,2.56,1.29,3.83,2.19,.16,.12,.86,.69,1.47,1.19,3.17,2.59,4.82,3.89,5.66,4.33,2.55,1.31,5.32,2.09,8.01,2.24,6.66,.37,12.13-3.2,16.95-6.35,1.84-1.2,3.58-2.34,5.34-3.26,3.96-2.07,8.46-2.19,12.68-.34,1.27,.56,2.56,1.29,3.83,2.19,.16,.12,.86,.68,1.47,1.19,3.17,2.59,4.83,3.89,5.67,4.33,2.55,1.31,5.32,2.09,8.01,2.24,5.7,.32,11.63-2.12,17.13-7.05,.02-.01,.03-.03,.05-.04,.53-.4,2.4-1.73,3.91-2.52,3.96-2.07,8.46-2.19,12.68-.34,.42,.19,.85,.4,1.27,.62l1.49-4.96c-.24-.11-.48-.23-.72-.34Z"/><path class="n" d="M278.79,36.48c-1.17,.61-2.42,1.42-3.25,2-.75,.51-1.32,.9-1.74,1.28-3.12,2.79-7.98,6.05-13.45,5.75-1.98-.11-4.04-.69-5.94-1.67-.66-.37-3.56-2.75-4.8-3.76-1.1-.9-1.51-1.23-1.75-1.4-1.56-1.1-3.15-2-4.73-2.7-5.58-2.45-11.82-2.27-17.09,.49-1.98,1.04-3.91,2.29-5.77,3.51-4.57,2.98-8.89,5.8-13.88,5.52-1.98-.11-4.04-.69-5.94-1.67-.66-.37-3.56-2.75-4.8-3.76-1.11-.9-1.51-1.23-1.75-1.4-1.56-1.1-3.15-2-4.73-2.7-5.58-2.45-11.81-2.27-17.09,.49-2.14,1.12-3.8,2.59-5.41,4.01-1.18,1.05-2.3,2.04-3.54,2.83-3.6,2.29-6.89,3.31-10.07,3.13-1.98-.11-4.04-.69-5.94-1.67-.66-.37-3.56-2.74-4.8-3.76-1.11-.9-1.51-1.23-1.75-1.4-1.56-1.1-3.15-2-4.73-2.7-5.58-2.45-11.81-2.27-17.09,.49-1.98,1.04-3.91,2.29-5.77,3.51-4.57,2.98-8.89,5.8-13.88,5.52-1.98-.11-4.04-.69-5.94-1.67-.66-.37-3.56-2.74-4.8-3.76-1.11-.9-1.51-1.23-1.75-1.4-1.56-1.1-3.15-2-4.73-2.7-5.58-2.45-11.81-2.27-17.09,.49-1.17,.61-2.42,1.42-3.25,2-.75,.51-1.32,.9-1.74,1.28-3.12,2.79-7.99,6.06-13.45,5.75-1.98-.11-4.04-.69-5.94-1.67-.66-.37-3.56-2.74-4.8-3.76-1.11-.9-1.51-1.23-1.75-1.4-1.56-1.1-3.15-2-4.73-2.7-4.87-2.13-10.22-2.27-15.01-.45l1.48,4.9c3.65-1.51,7.68-1.45,11.48,.22,1.27,.56,2.56,1.29,3.83,2.19,.16,.12,.86,.68,1.47,1.19,3.17,2.59,4.83,3.89,5.67,4.33,2.55,1.31,5.32,2.09,8.01,2.24,5.7,.32,11.63-2.12,17.13-7.05,.02-.01,.03-.03,.05-.04,.53-.4,2.4-1.73,3.91-2.52,3.96-2.07,8.46-2.19,12.68-.34,1.27,.56,2.56,1.29,3.83,2.19,.16,.12,.86,.68,1.47,1.19,3.17,2.59,4.83,3.89,5.67,4.33,2.55,1.31,5.32,2.09,8.01,2.24,6.66,.38,12.13-3.2,16.95-6.35,1.84-1.2,3.58-2.34,5.34-3.26,3.96-2.07,8.46-2.19,12.68-.34,1.27,.56,2.56,1.29,3.83,2.19,.16,.12,.86,.68,1.47,1.19,3.17,2.59,4.83,3.89,5.67,4.33,2.55,1.31,5.32,2.09,8.01,2.24,.33,.02,.67,.03,1,.03,3.94,0,7.91-1.3,12.09-3.95,1.59-1.01,2.91-2.18,4.19-3.32,1.44-1.28,2.8-2.48,4.39-3.31,3.96-2.07,8.46-2.19,12.68-.34,1.27,.56,2.56,1.29,3.83,2.19,.16,.12,.86,.68,1.47,1.19,3.17,2.59,4.83,3.89,5.67,4.33,2.55,1.31,5.32,2.09,8.01,2.24,6.66,.38,12.13-3.2,16.95-6.35,1.84-1.2,3.58-2.34,5.34-3.26,3.96-2.07,8.46-2.19,12.68-.34,1.27,.56,2.56,1.3,3.83,2.19,.16,.12,.85,.68,1.47,1.18,3.17,2.59,4.83,3.9,5.67,4.33,2.55,1.31,5.32,2.09,8.01,2.24,5.7,.32,11.62-2.12,17.13-7.05,.02-.01,.03-.03,.05-.04,.53-.4,2.4-1.73,3.91-2.52,3.58-1.87,7.6-2.14,11.46-.81l1.47-4.88c-5.1-1.69-10.58-1.29-15.29,1.17Z"/><path class="g" d="M278.79,45.85c-1.17,.61-2.42,1.42-3.25,2-.75,.51-1.32,.9-1.74,1.28-3.12,2.79-7.98,6.06-13.45,5.75-1.98-.11-4.04-.69-5.94-1.67-.66-.37-3.56-2.74-4.8-3.76-1.11-.9-1.51-1.23-1.75-1.4-1.56-1.1-3.15-2-4.73-2.7-5.58-2.45-11.82-2.27-17.09,.49-1.98,1.04-3.91,2.29-5.77,3.51-4.57,2.98-8.89,5.8-13.88,5.52-1.98-.11-4.04-.69-5.94-1.67-.66-.37-3.56-2.74-4.8-3.75-1.11-.9-1.52-1.24-1.75-1.4-1.56-1.1-3.15-2-4.73-2.7-5.58-2.45-11.82-2.27-17.09,.49-2.14,1.12-3.8,2.59-5.41,4.01-1.18,1.05-2.3,2.04-3.54,2.83-3.6,2.28-6.9,3.31-10.07,3.13-1.98-.11-4.04-.69-5.94-1.67-.66-.37-3.56-2.75-4.8-3.76-1.1-.9-1.51-1.23-1.74-1.4-1.56-1.1-3.15-2-4.73-2.7-5.58-2.45-11.81-2.27-17.09,.49-1.98,1.04-3.91,2.29-5.77,3.51-4.57,2.98-8.89,5.8-13.88,5.52-1.98-.11-4.04-.69-5.94-1.67-.66-.37-3.56-2.75-4.81-3.76-1.1-.9-1.51-1.23-1.74-1.4-1.56-1.1-3.15-2-4.73-2.7-5.58-2.45-11.81-2.27-17.09,.49-1.17,.61-2.42,1.42-3.25,2-.75,.51-1.32,.9-1.74,1.28-3.12,2.79-7.99,6.06-13.45,5.75-1.98-.11-4.04-.69-5.94-1.67-.66-.37-3.56-2.75-4.81-3.76-1.1-.9-1.51-1.23-1.74-1.4-1.56-1.1-3.15-2-4.73-2.7-4.01-1.76-8.34-2.15-12.42-1.23l1.47,4.88c2.92-.6,5.98-.27,8.9,1.02,1.27,.56,2.56,1.29,3.83,2.19,.16,.12,.85,.68,1.47,1.18,3.17,2.59,4.83,3.9,5.67,4.33,2.55,1.31,5.32,2.09,8.01,2.24,5.7,.32,11.63-2.12,17.13-7.05,.02-.01,.03-.03,.05-.04,.53-.4,2.4-1.73,3.91-2.52,3.96-2.07,8.46-2.19,12.68-.34,1.27,.56,2.56,1.29,3.83,2.19,.16,.12,.85,.68,1.47,1.18,3.17,2.59,4.83,3.9,5.67,4.33,2.55,1.31,5.32,2.09,8.01,2.24,6.66,.38,12.13-3.2,16.95-6.35,1.84-1.2,3.58-2.34,5.34-3.26,3.96-2.07,8.46-2.19,12.68-.34,1.27,.56,2.56,1.29,3.83,2.19,.16,.12,.85,.68,1.47,1.18,3.17,2.59,4.83,3.9,5.67,4.33,2.55,1.31,5.32,2.09,8.01,2.24,.33,.02,.67,.03,1,.03,3.94,0,7.91-1.3,12.09-3.95,1.59-1.01,2.91-2.18,4.19-3.32,1.44-1.28,2.8-2.48,4.39-3.31,3.96-2.07,8.46-2.19,12.68-.34,1.27,.56,2.56,1.29,3.83,2.19,.16,.12,.86,.69,1.47,1.19,3.17,2.58,4.82,3.89,5.66,4.33,2.55,1.31,5.32,2.09,8.01,2.24,6.66,.38,12.13-3.2,16.95-6.35,1.84-1.2,3.58-2.34,5.34-3.26,3.96-2.07,8.46-2.19,12.68-.34,1.27,.56,2.56,1.3,3.83,2.19,.16,.12,.86,.68,1.47,1.19,3.17,2.59,4.83,3.89,5.67,4.33,2.55,1.31,5.32,2.09,8.01,2.24,5.7,.32,11.63-2.12,17.13-7.05,.02-.01,.03-.03,.05-.04,.53-.4,2.4-1.73,3.91-2.52,2.77-1.45,5.81-1.94,8.83-1.47l1.48-4.91c-4.31-.82-8.76-.19-12.67,1.86Z"/><path class="n" d="M278.79,55.22c-1.17,.61-2.42,1.42-3.25,2-.75,.51-1.32,.9-1.74,1.28-3.12,2.79-7.99,6.06-13.45,5.75-1.98-.11-4.04-.69-5.94-1.67-.66-.37-3.56-2.75-4.8-3.76-1.11-.9-1.51-1.23-1.75-1.4-1.56-1.1-3.15-2-4.73-2.7-5.58-2.45-11.82-2.27-17.09,.49-1.98,1.04-3.91,2.29-5.77,3.51-4.57,2.98-8.89,5.79-13.88,5.52-1.98-.11-4.04-.69-5.94-1.67-.66-.37-3.56-2.74-4.8-3.76-1.11-.9-1.52-1.23-1.75-1.4-1.56-1.1-3.15-2.01-4.73-2.7-5.58-2.45-11.82-2.27-17.09,.49-2.14,1.12-3.8,2.59-5.41,4.01-1.18,1.05-2.3,2.04-3.54,2.83-3.6,2.28-6.9,3.31-10.07,3.13-1.98-.11-4.04-.69-5.94-1.67-.66-.37-3.56-2.74-4.8-3.76-1.11-.9-1.51-1.23-1.75-1.4-1.56-1.1-3.15-2-4.73-2.7-5.58-2.45-11.81-2.27-17.09,.49-1.98,1.04-3.91,2.29-5.77,3.51-4.57,2.98-8.89,5.8-13.88,5.52-1.98-.11-4.04-.69-5.94-1.67-.66-.37-3.56-2.74-4.8-3.76-1.11-.9-1.51-1.23-1.75-1.4-1.56-1.1-3.15-2-4.73-2.7-5.58-2.45-11.81-2.27-17.09,.49-1.17,.61-2.42,1.42-3.25,2-.75,.51-1.32,.9-1.74,1.28-3.12,2.79-7.99,6.06-13.45,5.75-1.98-.11-4.04-.69-5.94-1.67-.66-.37-3.56-2.74-4.8-3.76-1.11-.9-1.51-1.23-1.75-1.4-1.56-1.1-3.15-2-4.73-2.7-3.13-1.37-6.47-1.92-9.72-1.65l1.51,5.02c2.06-.01,4.14,.42,6.16,1.3,1.27,.56,2.56,1.3,3.83,2.19,.16,.12,.86,.68,1.47,1.19,3.17,2.59,4.83,3.89,5.67,4.33,2.55,1.31,5.32,2.09,8.01,2.24,5.71,.32,11.63-2.12,17.13-7.05,.02-.01,.03-.03,.05-.04,.53-.4,2.4-1.73,3.91-2.52,3.96-2.07,8.46-2.19,12.68-.34,1.27,.56,2.56,1.3,3.83,2.19,.16,.12,.86,.68,1.47,1.19,3.17,2.59,4.83,3.89,5.67,4.33,2.55,1.31,5.32,2.09,8.01,2.24,6.66,.38,12.13-3.2,16.95-6.35,1.84-1.2,3.58-2.34,5.34-3.26,3.96-2.07,8.46-2.19,12.68-.34,1.27,.56,2.56,1.3,3.83,2.19,.16,.12,.86,.68,1.47,1.19,3.17,2.59,4.83,3.89,5.67,4.33,2.55,1.31,5.32,2.09,8.01,2.24,.33,.02,.67,.03,1,.03,3.94,0,7.91-1.3,12.09-3.95,1.59-1.01,2.91-2.18,4.19-3.32,1.44-1.28,2.8-2.48,4.39-3.31,3.96-2.07,8.46-2.19,12.68-.34,1.27,.56,2.56,1.29,3.83,2.19,.16,.12,.86,.69,1.47,1.19,3.17,2.59,4.82,3.89,5.66,4.33,2.55,1.31,5.32,2.09,8.01,2.24,6.66,.38,12.13-3.2,16.95-6.35,1.84-1.2,3.58-2.34,5.34-3.26,3.96-2.07,8.46-2.19,12.68-.34,1.27,.56,2.56,1.29,3.83,2.19,.16,.12,.86,.68,1.47,1.19,3.17,2.59,4.83,3.89,5.67,4.33,2.55,1.31,5.32,2.09,8.01,2.24,5.7,.32,11.63-2.12,17.13-7.05,.02-.01,.03-.03,.05-.04,.53-.4,2.4-1.73,3.91-2.52,1.92-1,3.97-1.54,6.05-1.63l1.53-5.07c-3.43-.17-6.85,.56-9.94,2.17Z"/><path class="g" d="M278.79,64.59c-1.17,.61-2.42,1.42-3.25,2-.75,.51-1.32,.9-1.74,1.28-3.12,2.79-7.98,6.05-13.45,5.75-1.98-.11-4.04-.69-5.94-1.67-.66-.37-3.56-2.75-4.8-3.76-1.1-.9-1.51-1.23-1.74-1.4-1.56-1.1-3.15-2-4.73-2.7-5.58-2.45-11.82-2.27-17.09,.49-1.98,1.04-3.91,2.29-5.77,3.51-4.57,2.98-8.89,5.8-13.88,5.52-1.98-.11-4.04-.69-5.94-1.67-.66-.37-3.56-2.75-4.8-3.76-1.1-.9-1.51-1.23-1.75-1.4-1.56-1.1-3.15-2-4.73-2.7-5.58-2.45-11.82-2.27-17.09,.49-2.14,1.12-3.8,2.59-5.41,4.01-1.18,1.05-2.3,2.04-3.55,2.83-3.6,2.29-6.89,3.31-10.07,3.13-1.98-.11-4.04-.69-5.94-1.67-.66-.37-3.56-2.75-4.8-3.76-1.11-.9-1.51-1.23-1.75-1.4-1.56-1.1-3.15-2-4.73-2.7-5.58-2.45-11.81-2.27-17.09,.49-1.98,1.04-3.91,2.29-5.77,3.51-4.57,2.98-8.89,5.79-13.88,5.52-1.98-.11-4.04-.69-5.94-1.67-.66-.37-3.56-2.75-4.8-3.76-1.11-.9-1.51-1.23-1.75-1.4-1.56-1.1-3.15-2-4.73-2.7-5.58-2.45-11.81-2.27-17.09,.49-1.17,.61-2.42,1.42-3.25,2-.75,.51-1.32,.9-1.74,1.28-3.12,2.79-7.99,6.05-13.45,5.75-1.98-.11-4.04-.69-5.94-1.67-.66-.37-3.56-2.75-4.8-3.76-1.11-.9-1.51-1.23-1.75-1.4-1.56-1.1-3.15-2-4.73-2.7-2.23-.98-4.57-1.53-6.9-1.67l1.6,5.32c1.09,.22,2.18,.56,3.25,1.03,1.27,.56,2.56,1.3,3.83,2.19,.16,.12,.86,.68,1.47,1.19,3.17,2.59,4.83,3.89,5.67,4.33,2.55,1.31,5.32,2.09,8.01,2.24,5.7,.32,11.63-2.12,17.13-7.05,.02-.01,.03-.03,.05-.04,.53-.4,2.4-1.73,3.91-2.52,3.96-2.07,8.46-2.19,12.68-.34,1.27,.56,2.56,1.3,3.83,2.19,.16,.12,.86,.68,1.47,1.19,3.17,2.59,4.83,3.89,5.67,4.33,2.55,1.31,5.32,2.09,8.01,2.24,6.66,.38,12.13-3.2,16.95-6.35,1.84-1.2,3.58-2.34,5.34-3.26,3.96-2.07,8.46-2.19,12.68-.34,1.27,.56,2.56,1.3,3.83,2.19,.16,.12,.86,.68,1.47,1.19,3.17,2.59,4.83,3.89,5.67,4.33,2.55,1.31,5.32,2.09,8.01,2.24,.33,.02,.67,.03,1,.03,3.94,0,7.91-1.3,12.09-3.95,1.59-1.01,2.91-2.18,4.19-3.32,1.44-1.28,2.8-2.48,4.39-3.31,3.96-2.07,8.46-2.19,12.68-.34,1.27,.56,2.56,1.29,3.83,2.19,.16,.12,.85,.68,1.47,1.19,3.17,2.59,4.83,3.9,5.67,4.33,2.55,1.31,5.32,2.09,8.01,2.24,6.66,.38,12.13-3.2,16.95-6.35,1.84-1.2,3.58-2.34,5.34-3.26,3.96-2.07,8.46-2.19,12.68-.34,1.27,.56,2.56,1.29,3.83,2.19,.16,.12,.85,.68,1.47,1.18,3.17,2.59,4.83,3.9,5.67,4.33,2.55,1.31,5.32,2.09,8.01,2.24,5.7,.32,11.63-2.12,17.13-7.05,.02-.01,.03-.03,.05-.04,.53-.4,2.4-1.73,3.91-2.52,1-.52,2.04-.92,3.1-1.19l1.64-5.43c-2.46,.24-4.86,.94-7.1,2.11Z"/><path class="n" d="M282.9,72.37c-1.41,.37-2.79,.9-4.11,1.59-1.17,.61-2.42,1.42-3.25,2-.75,.51-1.32,.9-1.74,1.28-3.12,2.79-7.98,6.05-13.45,5.75-1.98-.11-4.04-.69-5.94-1.67-.66-.37-3.56-2.74-4.8-3.76-1.11-.9-1.51-1.23-1.75-1.4-1.56-1.1-3.15-2-4.73-2.7-5.58-2.45-11.81-2.27-17.09,.49-1.98,1.04-3.91,2.29-5.77,3.51-4.57,2.98-8.89,5.8-13.88,5.52-1.98-.11-4.04-.69-5.94-1.67-.66-.37-3.56-2.74-4.8-3.75-1.11-.9-1.52-1.24-1.75-1.4-1.56-1.1-3.15-2-4.73-2.7-5.58-2.45-11.81-2.27-17.09,.49-2.14,1.12-3.8,2.59-5.41,4.01-1.18,1.05-2.3,2.04-3.54,2.83-3.6,2.29-6.89,3.31-10.07,3.13-1.98-.11-4.04-.69-5.94-1.67-.66-.37-3.56-2.74-4.8-3.76-1.11-.9-1.51-1.23-1.75-1.4-1.56-1.1-3.15-2-4.73-2.7-5.58-2.45-11.81-2.27-17.09,.49-1.98,1.04-3.91,2.29-5.77,3.51-4.57,2.98-8.89,5.8-13.88,5.52-1.98-.11-4.04-.69-5.94-1.67-.66-.37-3.56-2.74-4.8-3.76-1.11-.9-1.51-1.23-1.75-1.4-1.56-1.1-3.15-2-4.73-2.7-5.58-2.45-11.81-2.27-17.09,.49-1.17,.61-2.42,1.42-3.25,2-.75,.51-1.32,.9-1.74,1.28-3.12,2.79-7.99,6.06-13.45,5.75-1.98-.11-4.04-.69-5.94-1.67-.66-.37-3.56-2.74-4.8-3.76-1.11-.9-1.51-1.23-1.75-1.4-1.56-1.1-3.15-2-4.73-2.7-1.29-.57-2.62-.99-3.96-1.27l1.78,5.89s.09,.03,.13,.05c1.27,.56,2.56,1.29,3.83,2.19,.16,.12,.86,.68,1.47,1.19,3.17,2.59,4.83,3.89,5.67,4.33,2.55,1.31,5.32,2.09,8.01,2.24,5.7,.32,11.63-2.12,17.13-7.05,.02-.01,.03-.03,.05-.04,.53-.4,2.4-1.73,3.91-2.52,3.96-2.07,8.46-2.19,12.68-.34,1.27,.56,2.56,1.29,3.83,2.19,.16,.12,.86,.68,1.47,1.19,3.17,2.59,4.83,3.89,5.67,4.33,2.55,1.31,5.32,2.09,8.01,2.24,6.66,.37,12.13-3.2,16.95-6.35,1.84-1.2,3.58-2.34,5.34-3.26,3.96-2.07,8.46-2.19,12.68-.34,1.27,.56,2.56,1.29,3.83,2.19,.16,.12,.86,.68,1.47,1.19,3.17,2.59,4.83,3.89,5.67,4.33,2.55,1.31,5.32,2.09,8.01,2.24,.33,.02,.67,.03,1,.03,3.94,0,7.91-1.3,12.09-3.95,1.59-1.01,2.91-2.18,4.19-3.32,1.44-1.28,2.8-2.48,4.39-3.31,3.96-2.07,8.46-2.19,12.68-.34,1.27,.56,2.56,1.29,3.83,2.19,.16,.12,.86,.69,1.47,1.19,3.17,2.58,4.82,3.89,5.66,4.33,2.55,1.31,5.32,2.09,8.01,2.24,6.66,.37,12.13-3.2,16.95-6.35,1.84-1.2,3.58-2.34,5.34-3.26,3.96-2.07,8.46-2.19,12.68-.34,1.27,.56,2.56,1.3,3.83,2.19,.16,.12,.86,.68,1.47,1.19,3.17,2.59,4.83,3.89,5.67,4.33,2.55,1.31,5.32,2.09,8.01,2.24,5.7,.31,11.62-2.12,17.13-7.05,.02-.01,.03-.03,.05-.04,.52-.39,2.32-1.67,3.8-2.46l1.86-6.17Z"/><path class="g" d="M279.33,84.19l.4-1.33c-.32,.15-.64,.3-.95,.46-1.17,.61-2.42,1.42-3.25,2-.75,.51-1.32,.9-1.74,1.28-3.12,2.79-7.99,6.06-13.45,5.75-1.98-.11-4.04-.69-5.94-1.67-.66-.37-3.56-2.74-4.8-3.76-1.11-.9-1.51-1.23-1.75-1.4-1.56-1.1-3.15-2-4.73-2.7-5.58-2.45-11.82-2.27-17.09,.49-1.98,1.04-3.91,2.29-5.77,3.51-4.57,2.98-8.89,5.79-13.88,5.52-1.98-.11-4.04-.69-5.94-1.67-.66-.37-3.56-2.74-4.8-3.75-1.11-.9-1.52-1.24-1.75-1.4-1.56-1.1-3.15-2-4.73-2.7-5.58-2.45-11.82-2.27-17.09,.49-2.14,1.12-3.8,2.59-5.41,4.01-1.18,1.05-2.3,2.04-3.54,2.83-3.6,2.28-6.9,3.31-10.07,3.13-1.98-.11-4.04-.69-5.94-1.67-.66-.37-3.56-2.74-4.8-3.76-1.11-.9-1.51-1.23-1.75-1.4-1.56-1.1-3.15-2-4.73-2.7-5.58-2.45-11.81-2.27-17.09,.49-1.98,1.04-3.91,2.29-5.77,3.51-4.57,2.98-8.89,5.8-13.89,5.53-1.98-.11-4.04-.69-5.94-1.67-.66-.37-3.56-2.74-4.8-3.76-1.11-.9-1.51-1.23-1.75-1.4-1.56-1.1-3.15-2-4.73-2.7-5.58-2.45-11.81-2.27-17.09,.49-1.17,.61-2.42,1.42-3.25,2-.75,.51-1.32,.9-1.74,1.28-3.12,2.79-7.99,6.06-13.45,5.75-1.98-.11-4.04-.69-5.94-1.67-.66-.37-3.56-2.74-4.8-3.76-1.11-.9-1.51-1.23-1.75-1.4-1.56-1.1-3.15-2-4.73-2.7-.28-.12-.57-.24-.85-.35l.23,.75c.66,2.18,1.43,4.3,2.29,6.38,.04,.03,.08,.05,.11,.08,.16,.12,.86,.68,1.47,1.19,3.17,2.59,4.83,3.89,5.67,4.33,2.55,1.31,5.32,2.09,8.01,2.24,5.71,.32,11.63-2.12,17.13-7.05,.02-.01,.03-.03,.05-.04,.53-.4,2.4-1.73,3.91-2.52,3.96-2.07,8.46-2.19,12.68-.34,1.27,.56,2.56,1.3,3.83,2.19,.16,.12,.86,.68,1.47,1.19,3.17,2.59,4.83,3.89,5.67,4.33,2.55,1.31,5.32,2.09,8.01,2.24,6.66,.37,12.13-3.2,16.96-6.35,1.84-1.2,3.58-2.34,5.34-3.26,3.96-2.07,8.46-2.19,12.68-.34,1.27,.56,2.56,1.3,3.83,2.19,.16,.12,.86,.68,1.47,1.19,3.17,2.59,4.83,3.89,5.67,4.33,2.55,1.31,5.32,2.09,8.01,2.24,.33,.02,.67,.03,1,.03,3.94,0,7.91-1.3,12.09-3.95,1.59-1.01,2.91-2.18,4.19-3.32,1.44-1.28,2.8-2.48,4.39-3.31,3.96-2.07,8.46-2.19,12.68-.34,1.27,.56,2.56,1.29,3.83,2.19,.16,.12,.86,.69,1.47,1.19,3.17,2.58,4.82,3.89,5.66,4.33,2.55,1.31,5.32,2.09,8.01,2.24,6.66,.38,12.13-3.2,16.95-6.35,1.84-1.2,3.58-2.34,5.34-3.26,3.96-2.07,8.46-2.19,12.68-.34,1.27,.56,2.56,1.3,3.83,2.19,.16,.12,.86,.68,1.47,1.19,3.17,2.59,4.83,3.89,5.67,4.33,2.55,1.31,5.32,2.09,8.01,2.24,5.66,.32,11.53-2.09,17-6.93,.85-2.06,1.62-4.16,2.27-6.32Z"/><path class="n" d="M274.99,95.07c-.49,.34-.89,.63-1.19,.91-3.12,2.79-7.98,6.05-13.45,5.75-1.98-.11-4.04-.69-5.94-1.67-.66-.37-3.56-2.74-4.8-3.76-1.11-.9-1.51-1.23-1.75-1.4-1.56-1.1-3.15-2-4.73-2.7-5.58-2.45-11.82-2.27-17.09,.49-1.98,1.04-3.91,2.29-5.77,3.51-4.57,2.98-8.89,5.8-13.88,5.52-1.98-.11-4.04-.69-5.94-1.67-.66-.37-3.56-2.74-4.8-3.76-1.11-.9-1.52-1.23-1.75-1.4-1.56-1.1-3.15-2.01-4.73-2.7-5.58-2.45-11.82-2.27-17.09,.49-2.14,1.12-3.8,2.59-5.41,4.01-1.18,1.05-2.3,2.04-3.55,2.83-3.6,2.29-6.89,3.31-10.07,3.13-1.98-.11-4.04-.69-5.94-1.67-.66-.37-3.56-2.74-4.8-3.76-1.11-.9-1.51-1.23-1.75-1.4-1.56-1.1-3.15-2-4.73-2.7-5.58-2.45-11.81-2.27-17.09,.49-1.98,1.04-3.91,2.29-5.77,3.51-4.57,2.98-8.89,5.8-13.88,5.52-1.98-.11-4.04-.69-5.94-1.67-.66-.37-3.56-2.74-4.8-3.76-1.11-.9-1.51-1.23-1.75-1.4-1.56-1.1-3.15-2-4.73-2.7-5.58-2.45-11.81-2.27-17.09,.49-1.17,.61-2.42,1.42-3.25,2-.75,.51-1.32,.9-1.74,1.28-3.12,2.79-7.99,6.05-13.45,5.75-1.98-.11-4.04-.69-5.94-1.67-.66-.37-3.56-2.74-4.8-3.76-1.11-.9-1.51-1.23-1.75-1.4-.3-.21-.61-.41-.91-.61,2.03,4,4.43,7.75,7.16,11.21,1.95,.75,3.97,1.2,5.95,1.31,5.7,.32,11.63-2.12,17.13-7.05,.02-.01,.03-.03,.05-.04,.53-.4,2.4-1.73,3.91-2.52,3.96-2.07,8.46-2.19,12.68-.34,1.27,.56,2.56,1.3,3.83,2.19,.16,.12,.86,.68,1.47,1.19,3.17,2.59,4.83,3.89,5.67,4.33,2.55,1.31,5.32,2.09,8.01,2.24,6.66,.38,12.13-3.2,16.95-6.35,1.84-1.2,3.58-2.34,5.34-3.26,3.96-2.07,8.46-2.19,12.68-.34,1.27,.56,2.56,1.3,3.83,2.19,.16,.12,.86,.68,1.47,1.19,3.17,2.59,4.83,3.89,5.67,4.33,2.55,1.31,5.32,2.09,8.01,2.24,.33,.02,.67,.03,1,.03,3.94,0,7.91-1.3,12.09-3.95,1.59-1.01,2.91-2.18,4.19-3.32,1.44-1.28,2.8-2.48,4.39-3.31,3.96-2.07,8.46-2.19,12.68-.34,1.27,.56,2.56,1.29,3.83,2.19,.16,.12,.86,.69,1.47,1.19,3.17,2.59,4.82,3.89,5.66,4.33,2.55,1.31,5.32,2.09,8.01,2.24,6.66,.37,12.13-3.2,16.95-6.35,1.84-1.2,3.58-2.34,5.34-3.26,3.96-2.07,8.46-2.19,12.68-.34,1.27,.56,2.56,1.29,3.83,2.19,.16,.12,.86,.68,1.47,1.19,3.17,2.59,4.83,3.89,5.67,4.33,2.55,1.31,5.32,2.09,8.01,2.24,2.82,.16,5.71-.36,8.56-1.53,2.4-3.19,4.53-6.61,6.36-10.23Z"/><path class="g" d="M264.01,110.78c-1.18,.26-2.4,.39-3.66,.32-1.98-.11-4.04-.69-5.94-1.67-.66-.37-3.56-2.74-4.8-3.76-1.11-.9-1.51-1.23-1.75-1.4-1.56-1.1-3.15-2-4.73-2.7-5.58-2.45-11.82-2.27-17.09,.49-1.98,1.04-3.91,2.29-5.77,3.51-4.57,2.98-8.89,5.8-13.88,5.52-1.98-.11-4.04-.69-5.94-1.67-.66-.37-3.56-2.74-4.8-3.75-1.11-.9-1.52-1.24-1.75-1.4-1.56-1.1-3.15-2-4.73-2.7-5.58-2.45-11.81-2.27-17.09,.49-2.14,1.12-3.8,2.59-5.41,4.01-1.18,1.05-2.3,2.04-3.54,2.83-3.6,2.29-6.89,3.31-10.07,3.13-1.98-.11-4.04-.69-5.94-1.67-.66-.37-3.56-2.74-4.8-3.76-1.11-.9-1.51-1.23-1.75-1.4-1.56-1.1-3.15-2-4.73-2.7-5.58-2.45-11.81-2.27-17.09,.49-1.98,1.04-3.91,2.29-5.77,3.51-4.57,2.98-8.89,5.8-13.88,5.52-1.98-.11-4.04-.69-5.94-1.67-.66-.37-3.56-2.74-4.8-3.76-1.11-.9-1.51-1.23-1.75-1.4-1.56-1.1-3.15-2-4.73-2.7-5.58-2.45-11.81-2.27-17.09,.49-1.17,.61-2.42,1.42-3.25,2-.75,.51-1.32,.9-1.74,1.28-3.12,2.79-7.99,6.06-13.45,5.75-.49-.03-.98-.08-1.48-.17,1.73,1.77,3.56,3.43,5.47,4.99,4.34-.78,8.72-3.07,12.86-6.78,.02-.01,.03-.03,.05-.04,.53-.4,2.4-1.73,3.91-2.52,3.96-2.07,8.46-2.19,12.68-.34,1.27,.56,2.56,1.29,3.83,2.19,.16,.12,.86,.68,1.47,1.19,3.17,2.59,4.83,3.89,5.67,4.33,2.55,1.31,5.32,2.09,8.01,2.24,6.66,.37,12.13-3.2,16.95-6.35,1.84-1.2,3.58-2.34,5.34-3.26,3.96-2.07,8.46-2.19,12.68-.34,1.27,.56,2.56,1.29,3.83,2.19,.16,.12,.86,.68,1.47,1.19,3.17,2.59,4.83,3.89,5.67,4.33,2.55,1.31,5.32,2.09,8.01,2.24,.33,.02,.67,.03,1,.03,3.94,0,7.91-1.3,12.09-3.95,1.59-1.01,2.91-2.18,4.19-3.32,1.44-1.28,2.8-2.48,4.39-3.31,3.96-2.07,8.46-2.19,12.68-.34,1.27,.56,2.56,1.29,3.83,2.19,.16,.12,.86,.69,1.47,1.19,3.17,2.58,4.82,3.89,5.66,4.33,2.55,1.31,5.32,2.09,8.01,2.24,6.66,.38,12.13-3.2,16.95-6.35,1.84-1.2,3.58-2.34,5.34-3.26,3.96-2.07,8.46-2.19,12.68-.34,1.27,.56,2.56,1.3,3.83,2.19,.16,.12,.86,.68,1.47,1.19,3.17,2.59,4.83,3.89,5.67,4.33,2.06,1.06,4.27,1.76,6.46,2.08,1.93-1.64,3.76-3.4,5.5-5.25Z"/><path class="n" d="M254.41,118.8c-.66-.37-3.56-2.74-4.8-3.76-1.11-.9-1.51-1.23-1.75-1.4-1.56-1.1-3.15-2-4.73-2.7-5.58-2.45-11.82-2.27-17.09,.49-1.98,1.04-3.91,2.29-5.77,3.51-4.57,2.98-8.89,5.79-13.88,5.52-1.98-.11-4.04-.69-5.94-1.67-.66-.37-3.56-2.74-4.8-3.75-1.11-.9-1.52-1.24-1.75-1.4-1.56-1.1-3.15-2-4.73-2.7-5.58-2.45-11.82-2.27-17.09,.49-2.14,1.12-3.8,2.59-5.41,4.01-1.18,1.05-2.3,2.04-3.54,2.83-3.6,2.28-6.9,3.31-10.07,3.13-1.98-.11-4.04-.69-5.94-1.67-.66-.37-3.56-2.75-4.8-3.76-1.1-.9-1.51-1.23-1.74-1.4-1.56-1.1-3.15-2-4.73-2.7-5.58-2.45-11.81-2.27-17.09,.49-1.98,1.04-3.91,2.29-5.77,3.51-4.57,2.98-8.89,5.8-13.88,5.52-1.98-.11-4.04-.69-5.94-1.67-.66-.37-3.56-2.75-4.81-3.76-1.1-.9-1.51-1.23-1.74-1.4-1.56-1.1-3.15-2-4.73-2.7-5.58-2.45-11.81-2.27-17.09,.49-1.17,.61-2.42,1.42-3.25,2-.75,.51-1.32,.9-1.74,1.28-1.55,1.38-3.52,2.88-5.79,4.01,1.56,1.11,3.17,2.15,4.82,3.13,1.48-.94,2.94-2.05,4.37-3.33,.02-.01,.03-.03,.05-.04,.53-.4,2.4-1.73,3.91-2.52,3.96-2.07,8.46-2.19,12.68-.34,1.27,.56,2.56,1.29,3.83,2.19,.16,.12,.85,.68,1.47,1.18,3.17,2.59,4.83,3.9,5.67,4.33,2.55,1.31,5.32,2.09,8.01,2.24,6.66,.37,12.13-3.2,16.95-6.35,1.84-1.2,3.58-2.34,5.34-3.26,3.96-2.07,8.46-2.19,12.68-.34,1.27,.56,2.56,1.29,3.83,2.19,.16,.12,.85,.68,1.47,1.18,3.17,2.59,4.83,3.9,5.67,4.33,2.55,1.31,5.32,2.09,8.01,2.24,.33,.02,.67,.03,1,.03,3.94,0,7.91-1.3,12.09-3.95,1.59-1.01,2.91-2.18,4.19-3.32,1.44-1.28,2.8-2.48,4.39-3.31,3.96-2.07,8.46-2.19,12.68-.34,1.27,.56,2.56,1.29,3.83,2.19,.16,.12,.86,.69,1.47,1.19,3.17,2.58,4.82,3.89,5.66,4.33,2.55,1.31,5.32,2.09,8.01,2.24,6.66,.37,12.13-3.2,16.95-6.35,1.84-1.2,3.58-2.34,5.34-3.26,3.96-2.07,8.46-2.19,12.68-.34,1.27,.56,2.56,1.3,3.83,2.19,.16,.12,.86,.69,1.47,1.19,1.67,1.36,2.91,2.36,3.84,3.07,1.56-.97,3.09-1.99,4.57-3.08-.13-.06-.25-.12-.38-.18Z"/><path class="g" d="M247.86,123.02c-1.56-1.1-3.15-2-4.73-2.7-5.58-2.45-11.82-2.27-17.09,.49-1.98,1.04-3.91,2.29-5.77,3.51-4.57,2.98-8.89,5.8-13.88,5.52-1.98-.11-4.04-.69-5.94-1.67-.66-.37-3.56-2.74-4.8-3.76-1.11-.9-1.52-1.23-1.75-1.4-1.56-1.1-3.15-2.01-4.73-2.7-5.58-2.45-11.82-2.27-17.09,.49-2.14,1.12-3.8,2.59-5.41,4.01-1.18,1.05-2.3,2.04-3.54,2.83-3.6,2.29-6.9,3.31-10.07,3.13-1.98-.11-4.04-.69-5.94-1.67-.66-.37-3.56-2.74-4.8-3.76-1.11-.9-1.51-1.23-1.75-1.4-1.56-1.1-3.15-2-4.73-2.7-5.58-2.45-11.81-2.27-17.09,.49-1.98,1.04-3.91,2.29-5.77,3.51-4.57,2.98-8.89,5.8-13.88,5.52-1.98-.11-4.04-.69-5.94-1.67-.66-.37-3.56-2.74-4.8-3.76-1.11-.9-1.51-1.23-1.75-1.4-1.56-1.1-3.15-2-4.73-2.7-5.58-2.45-11.81-2.27-17.09,.49-1.17,.61-2.42,1.42-3.25,2-.16,.11-.31,.21-.46,.31,1.75,.94,3.54,1.82,5.37,2.6,.24-.14,.48-.27,.7-.39,3.96-2.07,8.46-2.19,12.68-.34,1.27,.56,2.56,1.3,3.83,2.19,.16,.12,.86,.69,1.47,1.19,1.37,1.12,2.44,1.98,3.3,2.65,1.53,.1,3.07,.17,4.61,.17h18.58c1.44-.84,2.82-1.74,4.14-2.6,1.84-1.2,3.58-2.34,5.34-3.26,3.96-2.07,8.46-2.19,12.68-.34,1.27,.56,2.56,1.3,3.83,2.19,.16,.12,.86,.69,1.47,1.19,1.48,1.21,2.62,2.13,3.51,2.82h22.96c.1-.06,.2-.11,.3-.18,1.59-1.01,2.91-2.18,4.19-3.32,1.44-1.28,2.8-2.48,4.39-3.31,3.96-2.07,8.46-2.19,12.68-.34,1.27,.56,2.56,1.29,3.83,2.19,.16,.12,.86,.69,1.47,1.19,2.31,1.88,3.81,3.08,4.78,3.76h17.6c.84,0,1.68-.02,2.52-.05,2.02-1.07,3.93-2.31,5.74-3.5,1.84-1.2,3.58-2.34,5.34-3.26,3.96-2.07,8.46-2.19,12.68-.34,.63,.28,1.26,.6,1.9,.96,1.78-.82,3.52-1.71,5.22-2.68-.15-.12-.26-.2-.34-.26Z"/><path class="n" d="M135.84,130.64c-5.58-2.45-11.81-2.27-17.09,.49-.61,.32-1.21,.66-1.8,1.01h21.77c-.96-.57-1.92-1.08-2.87-1.5Z"/><path class="n" d="M81.88,130.64c-2.98-1.31-6.15-1.86-9.25-1.68,3.53,1.12,7.18,1.96,10.92,2.49-.55-.29-1.11-.57-1.66-.82Z"/><path class="n" d="M193.52,132.14c-1.44-.98-2.9-1.81-4.35-2.44-5.58-2.45-11.81-2.27-17.09,.49-1.1,.58-2.08,1.25-2.98,1.96h24.43Z"/><path class="n" d="M226.04,130.18c-.81,.42-1.61,.89-2.4,1.37,4.82-.64,9.5-1.79,13.98-3.4-3.96-.52-7.99,.16-11.58,2.03Z"/><polygon class="i" points="151.37 11.62 151.37 132.14 153.92 132.14 156.47 132.14 156.47 11.62 153.92 11.62 151.37 11.62"/><path class="i" d="M275.94,11.62l-19.22,71.65c-2.79,10.42-7.24,20.29-13.21,29.34-4.56,6.91-8.73,12.83-12.32,17.51,2.85-.71,5.64-1.62,8.35-2.69,2.54-3.55,5.29-7.55,8.23-12.01,6.28-9.51,10.95-19.88,13.88-30.83l19.57-72.97h-5.28Z"/><path class="i" d="M238.14,11.62c-.06,.47-.12,.95-.18,1.45-2.69,21.71-7.7,62.13-12.33,75.92-4.7,14-13.12,28.13-25.7,43.15h6.6c11.51-14.31,19.37-27.95,23.93-41.52,4.8-14.28,9.84-55.03,12.56-76.92,.09-.71,.17-1.4,.26-2.08h-5.14Z"/><path class="i" d="M199.82,11.62c-.02,.53-.04,1.08-.07,1.64-.9,21.86-2.58,62.56-6.06,76.68-3.32,13.46-9.91,27.31-20.05,42.19h6.14c9.41-14.32,15.61-27.79,18.86-40.97,3.61-14.63,5.3-55.66,6.21-77.7,.03-.63,.05-1.25,.08-1.85h-5.11Z"/><path class="i" d="M46.19,83.19c2.94,10.95,7.61,21.32,13.88,30.83,3.49,5.29,6.71,9.94,9.63,13.94,2.69,.99,5.45,1.81,8.27,2.46-3.88-4.91-8.52-11.44-13.65-19.21-5.97-9.05-10.42-18.92-13.21-29.34L32.27,11.62h-5.28l19.2,71.57Z"/><path class="i" d="M64.82,12.29c2.71,21.89,7.76,62.64,12.56,76.92,4.71,14.02,12.93,28.1,25.07,42.92h6.64c-13.23-15.54-22.03-30.11-26.87-44.54-4.63-13.79-9.64-54.21-12.33-75.92v-.05h-5.15c.03,.23,.06,.45,.08,.68Z"/><path class="i" d="M102.99,12.07c.91,22.04,2.6,63.07,6.21,77.7,3.36,13.61,9.85,27.53,19.78,42.37h6.18c-10.69-15.41-17.58-29.71-21-43.59-3.49-14.13-5.16-54.82-6.06-76.68v-.24h-5.12l.02,.45Z"/><path class="g" d="M145.35,34.11c-1.07-.84-2.33-1.87-3.04-2.45-1.11-.9-1.51-1.23-1.75-1.4-1.56-1.1-3.15-2-4.73-2.7-5.58-2.45-11.81-2.27-17.09,.49-1.98,1.04-3.91,2.29-5.77,3.51-4.57,2.98-8.89,5.8-13.88,5.52-1.98-.11-4.04-.69-5.94-1.67-.66-.37-3.56-2.74-4.8-3.76-1.11-.9-1.51-1.23-1.75-1.4-1.56-1.1-3.15-2-4.73-2.7-1.61-.71-3.28-1.19-4.96-1.46-.06,.61-.08,1.21-.06,1.81,.09,.42,.21,.84,.34,1.25,.24,.76,.34,1.52,.32,2.26,.78,.21,1.55,.47,2.31,.81,1.27,.56,2.56,1.3,3.83,2.19,.16,.12,.86,.69,1.47,1.19,3.17,2.59,4.83,3.89,5.67,4.33,2.55,1.31,5.32,2.09,8.01,2.24,6.66,.38,12.13-3.2,16.95-6.35,1.84-1.2,3.58-2.34,5.34-3.26,3.96-2.07,8.46-2.19,12.68-.34,1.27,.56,2.56,1.3,3.83,2.19,.16,.12,.86,.69,1.47,1.19,3.13,2.55,4.78,3.86,5.63,4.31,.06-1.94,.31-3.86,.63-5.81Z"/><path class="g" d="M230.94,28.58c-.09-.51-.18-1.02-.29-1.52-.12-.54-.19-1.08-.21-1.61-1.51,.37-2.99,.91-4.4,1.65-1.98,1.04-3.91,2.29-5.77,3.51-4.57,2.98-8.89,5.8-13.88,5.52-1.98-.11-4.04-.69-5.94-1.67-.66-.37-3.56-2.74-4.8-3.76-1.11-.9-1.52-1.23-1.75-1.4-1.56-1.1-3.15-2.01-4.73-2.7-5.58-2.45-11.82-2.27-17.09,.49-2.14,1.12-3.8,2.59-5.41,4.01-1.18,1.05-2.3,2.04-3.54,2.83-.81,.51-1.6,.95-2.38,1.34,0,.02,0,.04,0,.06-.22,1.32-.46,2.64-.72,3.96,.33-1.73,0,.29-.01,.61,0,.2,.07,.9,.08,1.17,1.89-.65,3.81-1.59,5.77-2.83,1.59-1.01,2.91-2.18,4.19-3.32,1.44-1.28,2.8-2.48,4.39-3.31,3.96-2.07,8.46-2.19,12.68-.34,1.27,.56,2.56,1.29,3.83,2.19,.16,.12,.86,.69,1.47,1.19,3.17,2.59,4.82,3.89,5.66,4.33,2.55,1.31,5.32,2.09,8.01,2.24,6.66,.37,12.13-3.2,16.95-6.35,1.84-1.2,3.58-2.34,5.34-3.26,.88-.46,1.79-.82,2.71-1.08-.05-.65-.11-1.31-.18-1.96Z"/><path class="g" d="M295.88,26.62c-5.58-2.45-11.82-2.27-17.09,.49-1.17,.61-2.42,1.42-3.25,2-.75,.51-1.32,.9-1.74,1.28-3.12,2.79-7.99,6.06-13.45,5.75-1.98-.11-4.04-.69-5.94-1.67-.66-.37-3.56-2.75-4.8-3.76-1.11-.9-1.51-1.23-1.75-1.4-.49-.35-.99-.67-1.49-.98,.09,.91,.18,1.82,.25,2.73,.09,1.18-.16,2.28-.65,3.26,.14,.11,.28,.23,.41,.34,3.17,2.59,4.83,3.89,5.67,4.33,2.55,1.31,5.32,2.09,8.01,2.24,5.7,.32,11.63-2.12,17.13-7.05,.02-.01,.03-.03,.05-.04,.53-.4,2.4-1.73,3.91-2.52,3.96-2.07,8.46-2.19,12.68-.34,.42,.19,.85,.4,1.27,.62l1.49-4.96c-.24-.11-.48-.23-.72-.34Z"/><path class="g" d="M61.61,29.99l-.08,.05c-.75,.51-1.32,.9-1.74,1.28-3.12,2.79-7.99,6.06-13.45,5.75-1.98-.11-4.04-.69-5.94-1.67-.66-.37-3.56-2.74-4.8-3.76-1.11-.9-1.51-1.23-1.75-1.4-1.56-1.1-3.15-2-4.73-2.7-5.58-2.45-11.81-2.27-17.09,.49-.13,.07-.26,.15-.4,.22l1.51,4.99c.42-.24,.84-.47,1.25-.69,3.96-2.07,8.46-2.19,12.68-.34,1.27,.56,2.56,1.3,3.83,2.19,.16,.12,.86,.69,1.47,1.19,3.17,2.59,4.83,3.89,5.67,4.33,2.55,1.31,5.32,2.09,8.01,2.24,5.7,.32,11.61-2.11,17.11-7.03-.37-.58-.67-1.21-.88-1.87-.35-1.1-.56-2.2-.69-3.28Z"/><path class="n" d="M14.12,36.49l1.48,4.9c3.65-1.51,7.68-1.45,11.48,.22,.72,.32,1.45,.7,2.19,1.13,.09-1.82,.75-3.48,1.9-4.79-.68-.37-1.36-.72-2.04-1.02-4.87-2.13-10.22-2.27-15.01-.45Z"/><path class="n" d="M261.41,48.62c.19-1.06,.39-2.1,.61-3.14-.55,.04-1.1,.06-1.67,.02-1.98-.11-4.04-.69-5.94-1.67-.66-.37-3.56-2.75-4.8-3.76-1.1-.9-1.51-1.23-1.75-1.4-1.56-1.1-3.15-2-4.73-2.7-5.58-2.45-11.82-2.27-17.09,.49-1.98,1.04-3.91,2.29-5.77,3.51-2.63,1.72-5.18,3.37-7.82,4.42-.02,.12-.04,.24-.07,.35-.44,1.78-.81,3.57-1.16,5.37,4.43-1.05,8.3-3.57,11.83-5.87,1.84-1.2,3.58-2.34,5.34-3.26,3.96-2.07,8.46-2.19,12.68-.34,1.27,.56,2.56,1.3,3.83,2.19,.16,.12,.85,.68,1.47,1.18,3.17,2.59,4.83,3.9,5.67,4.33,2.55,1.31,5.32,2.09,8.01,2.24,.4,.02,.8,.03,1.2,.02-.02-.67,.02-1.35,.14-2Z"/><path class="n" d="M278.79,36.48s-.1,.05-.15,.08c.87,1.66,1.13,3.64,.73,5.49,.58-.37,1.21-.75,1.78-1.05,3.58-1.87,7.6-2.14,11.46-.81l1.47-4.88c-5.1-1.69-10.58-1.29-15.29,1.17Z"/><path class="n" d="M192,37.46c-.94-.56-1.89-1.06-2.83-1.47-5.58-2.45-11.81-2.27-17.09,.49-2.14,1.12-3.8,2.59-5.41,4.01-1.18,1.05-2.3,2.04-3.54,2.83-3.6,2.29-6.89,3.31-10.07,3.13-1.98-.11-4.04-.69-5.94-1.67-.66-.37-3.56-2.74-4.8-3.76-1.11-.9-1.51-1.23-1.75-1.4-1.56-1.1-3.15-2-4.73-2.7-5.58-2.45-11.81-2.27-17.09,.49-1.35,.71-2.68,1.52-3.97,2.35,.84,1.79,1.02,3.92,.43,5.8,.19-.12,.38-.25,.57-.37,1.84-1.2,3.58-2.34,5.34-3.26,3.96-2.07,8.46-2.19,12.68-.34,1.27,.56,2.56,1.29,3.83,2.19,.16,.12,.86,.68,1.47,1.19,3.17,2.59,4.83,3.89,5.67,4.33,2.55,1.31,5.32,2.09,8.01,2.24,.33,.02,.67,.03,1,.03,3.94,0,7.91-1.3,12.09-3.95,1.59-1.01,2.91-2.18,4.19-3.32,1.44-1.28,2.8-2.48,4.39-3.31,3.96-2.07,8.46-2.19,12.68-.34,.92,.4,1.85,.91,2.78,1.49,.13-1.85,.91-3.46,2.1-4.69Z"/><path class="n" d="M99.2,46.45s-.07,0-.11,0c-1.98-.11-4.04-.69-5.94-1.67-.66-.37-3.56-2.74-4.8-3.76-1.11-.9-1.51-1.23-1.75-1.4-1.56-1.1-3.15-2-4.73-2.7-5.58-2.45-11.81-2.27-17.09,.49-1.17,.61-2.42,1.42-3.25,2-.75,.51-1.32,.9-1.74,1.28-2.86,2.56-7.2,5.51-12.11,5.75,.77,1.58,.91,3.38,.51,5.09,5.04-.31,10.18-2.72,15-7.04,.02-.01,.03-.03,.05-.04,.53-.4,2.4-1.73,3.91-2.52,3.96-2.07,8.46-2.19,12.68-.34,1.27,.56,2.56,1.29,3.83,2.19,.16,.12,.86,.68,1.47,1.19,3.17,2.59,4.83,3.89,5.67,4.33,2.55,1.31,5.32,2.09,8.01,2.24,.26,.01,.52,.01,.78,.02-.26-1.71-.43-3.42-.38-5.11Z"/><path class="g" d="M63.79,47.35c-.84,.5-1.66,1.03-2.26,1.44-.75,.51-1.32,.9-1.74,1.28-3.12,2.79-7.99,6.06-13.45,5.75-1.98-.11-4.04-.69-5.94-1.67-.66-.37-3.56-2.75-4.81-3.76-1.1-.9-1.51-1.23-1.74-1.4-1.56-1.1-3.15-2-4.73-2.7-4.01-1.76-8.34-2.15-12.42-1.23l1.47,4.88c2.92-.6,5.98-.27,8.9,1.02,1.27,.56,2.56,1.29,3.83,2.19,.16,.12,.85,.68,1.47,1.18,3.17,2.59,4.83,3.9,5.67,4.33,2.55,1.31,5.32,2.09,8.01,2.24,5.7,.32,11.63-2.12,17.13-7.05,.02-.01,.03-.03,.05-.04,.41-.31,1.62-1.17,2.85-1.91-.05-.06-.1-.12-.16-.19-1.12-1.39-1.86-2.74-2.14-4.38Z"/><path class="g" d="M146.05,53.39c-1.16-.89-2.86-2.28-3.74-2.99-1.1-.9-1.51-1.23-1.74-1.4-1.56-1.1-3.15-2-4.73-2.7-5.58-2.45-11.81-2.27-17.09,.49-1.98,1.04-3.91,2.29-5.77,3.51-4.57,2.98-8.89,5.8-13.88,5.52-1.98-.11-4.04-.69-5.94-1.67-.66-.37-3.56-2.75-4.81-3.76-1.1-.9-1.51-1.23-1.74-1.4-1.56-1.1-3.15-2-4.73-2.7-.27-.12-.54-.22-.81-.33,.7,.95,1.34,1.93,1.89,2.98,.75,1.44,1.06,2.96,.96,4.42,.3,.24,.77,.62,1.2,.98,3.17,2.59,4.83,3.9,5.67,4.33,2.55,1.31,5.32,2.09,8.01,2.24,6.66,.38,12.13-3.2,16.95-6.35,1.84-1.2,3.58-2.34,5.34-3.26,3.96-2.07,8.46-2.19,12.68-.34,1.27,.56,2.56,1.29,3.83,2.19,.16,.12,.85,.68,1.47,1.18,3.17,2.59,4.83,3.9,5.67,4.33,.26,.13,.52,.26,.79,.38-.24-1.85-.09-3.86,.51-5.67Z"/><path class="g" d="M278.79,45.85c-1.17,.61-2.42,1.42-3.25,2-.75,.51-1.32,.9-1.74,1.28-3.12,2.79-7.98,6.06-13.45,5.75-1.98-.11-4.04-.69-5.94-1.67-.66-.37-3.56-2.74-4.8-3.76-1.11-.9-1.51-1.23-1.75-1.4-1.52-1.07-3.07-1.96-4.62-2.64,.04,1.88-.05,3.76-.16,5.64,.61,.35,1.22,.74,1.82,1.17,.16,.12,.86,.68,1.47,1.19,3.17,2.59,4.83,3.89,5.67,4.33,2.55,1.31,5.32,2.09,8.01,2.24,5.7,.32,11.63-2.12,17.13-7.05,.02-.01,.03-.03,.05-.04,.53-.4,2.4-1.73,3.91-2.52,2.77-1.45,5.81-1.94,8.83-1.47l1.48-4.91c-4.31-.82-8.76-.19-12.67,1.86Z"/><path class="g" d="M227.78,45.05c-.59,.24-1.17,.5-1.74,.8-1.98,1.04-3.91,2.29-5.77,3.51-4.57,2.98-8.89,5.8-13.88,5.52-1.98-.11-4.04-.69-5.94-1.67-.66-.37-3.56-2.74-4.8-3.75-1.11-.9-1.52-1.24-1.75-1.4-1.56-1.1-3.15-2-4.73-2.7-5.58-2.45-11.82-2.27-17.09,.49-2.14,1.12-3.8,2.59-5.41,4.01-1.18,1.05-2.3,2.04-3.54,2.83-.5,.32-.99,.6-1.48,.87,.38,1.57,.14,3.3-.56,4.84,.08,.32,.18,.64,.27,.95,1.48-.61,2.98-1.39,4.5-2.36,1.59-1.01,2.91-2.18,4.19-3.32,1.44-1.28,2.8-2.48,4.39-3.31,3.96-2.07,8.46-2.19,12.68-.34,1.27,.56,2.56,1.29,3.83,2.19,.16,.12,.86,.69,1.47,1.19,3.17,2.58,4.82,3.89,5.66,4.33,2.55,1.31,5.32,2.09,8.01,2.24,6.66,.38,12.13-3.2,16.95-6.35,1.58-1.03,3.08-2,4.59-2.84,.11-1.91,.18-3.82,.13-5.73Z"/><path class="n" d="M33.86,58.37c-1.56-1.1-3.15-2-4.73-2.7-3.13-1.37-6.47-1.92-9.72-1.65l1.51,5.02c2.06-.01,4.14,.42,6.16,1.3,1.27,.56,2.56,1.3,3.83,2.19,.16,.12,.86,.68,1.47,1.19,.58,.48,1.1,.89,1.58,1.29,.04-.49,.11-.98,.22-1.46,.27-1.2,1.02-2.4,1.95-3.35-.2-.16-.38-.31-.53-.43-1.11-.9-1.51-1.23-1.75-1.4Z"/><path class="n" d="M100.61,67.97c-.16-.92-.31-1.84-.44-2.77-.36,.01-.72,.01-1.08,0-1.98-.11-4.04-.69-5.94-1.67-.66-.37-3.56-2.74-4.8-3.76-1.11-.9-1.51-1.23-1.75-1.4-1.56-1.1-3.15-2-4.73-2.7-5.58-2.45-11.81-2.27-17.09,.49-1.17,.61-2.42,1.42-3.25,2-.75,.51-1.32,.9-1.74,1.28-2.24,2-5.38,4.24-8.99,5.24,.54,1.29,.92,2.6,1.26,3.97,.08,.31,.13,.62,.17,.93,3.71-1.04,7.42-3.17,10.96-6.34,.02-.01,.03-.03,.05-.04,.53-.4,2.4-1.73,3.91-2.52,3.96-2.07,8.46-2.19,12.68-.34,1.27,.56,2.56,1.3,3.83,2.19,.16,.12,.86,.68,1.47,1.19,3.17,2.59,4.83,3.89,5.67,4.33,2.55,1.31,5.32,2.09,8.01,2.24,.77,.04,1.51,.03,2.25-.03-.15-.76-.31-1.52-.44-2.29Z"/><path class="n" d="M255.2,62.96c-.26-.12-.53-.24-.79-.38-.66-.37-3.56-2.75-4.8-3.76-1.11-.9-1.51-1.23-1.75-1.4-1.56-1.1-3.15-2-4.73-2.7-5.58-2.45-11.82-2.27-17.09,.49-1.98,1.04-3.91,2.29-5.77,3.51-4.57,2.98-8.89,5.79-13.88,5.52-.11,0-.22-.02-.33-.03-.15,1.69-.23,3.39-.28,5.09,.11,0,.22,.02,.33,.03,6.66,.38,12.13-3.2,16.95-6.35,1.84-1.2,3.58-2.34,5.34-3.26,3.96-2.07,8.46-2.19,12.68-.34,1.27,.56,2.56,1.29,3.83,2.19,.16,.12,.86,.68,1.47,1.19,3.17,2.59,4.83,3.89,5.67,4.33,.65,.33,1.31,.63,1.99,.9,.28-1.71,.65-3.41,1.16-5.04Z"/><path class="n" d="M278.79,55.22c-1.17,.61-2.42,1.42-3.25,2-.75,.51-1.32,.9-1.74,1.28-.34,.3-.71,.62-1.09,.93,.34,1.75,.1,3.55-1,4.98-.63,.82-1.11,1.73-1.49,2.69,2.37-1.17,4.71-2.77,6.98-4.8,.02-.01,.03-.03,.05-.04,.53-.4,2.4-1.73,3.91-2.52,1.92-1,3.97-1.54,6.05-1.63l1.53-5.07c-3.43-.17-6.85,.56-9.94,2.17Z"/><path class="n" d="M190.96,61.59c.14-1.47,.31-2.95,.52-4.42,.06-.39,.16-.75,.3-1.11-.87-.51-1.74-.96-2.6-1.34-5.58-2.45-11.82-2.27-17.09,.49-2.14,1.12-3.8,2.59-5.41,4.01-1.18,1.05-2.3,2.04-3.54,2.83-3.6,2.28-6.9,3.31-10.07,3.13-1.98-.11-4.04-.69-5.94-1.67-.66-.37-3.56-2.74-4.8-3.76-1.11-.9-1.51-1.23-1.75-1.4-1.56-1.1-3.15-2-4.73-2.7-5.58-2.45-11.81-2.27-17.09,.49-1.34,.7-2.66,1.51-3.95,2.33,.28,.78,.44,1.61,.46,2.44,.02,.97,.14,2.03,.3,3.14,.07-.04,.13-.09,.2-.13,1.84-1.2,3.58-2.34,5.34-3.26,3.96-2.07,8.46-2.19,12.68-.34,1.27,.56,2.56,1.3,3.83,2.19,.16,.12,.86,.68,1.47,1.19,3.17,2.59,4.83,3.89,5.67,4.33,2.55,1.31,5.32,2.09,8.01,2.24,.33,.02,.67,.03,1,.03,3.94,0,7.91-1.3,12.09-3.95,1.59-1.01,2.91-2.18,4.19-3.32,1.44-1.28,2.8-2.48,4.39-3.31,3.96-2.07,8.46-2.19,12.68-.34,1.27,.56,2.56,1.29,3.83,2.19h0Z"/><path class="g" d="M64.78,65.53c-1.17,.61-2.42,1.42-3.25,2-.75,.51-1.32,.9-1.74,1.28-3.12,2.79-7.99,6.05-13.45,5.75-1.98-.11-4.04-.69-5.94-1.67-.66-.37-3.56-2.75-4.8-3.76-1.11-.9-1.51-1.23-1.75-1.4-1.56-1.1-3.15-2-4.73-2.7-2.23-.98-4.57-1.53-6.9-1.67l1.6,5.32c1.09,.22,2.18,.56,3.25,1.03,1.27,.56,2.56,1.3,3.83,2.19,.16,.12,.86,.68,1.47,1.19,3.17,2.59,4.83,3.89,5.67,4.33,2.55,1.31,5.32,2.09,8.01,2.24,5.7,.32,11.63-2.12,17.13-7.05,.02-.01,.03-.03,.05-.04,.52-.39,2.35-1.69,3.84-2.48-.37-1.73-.68-3.47-.87-5.22-.48,.2-.96,.42-1.42,.66Z"/><path class="g" d="M146.41,72.4c-1.13-.85-3.12-2.47-4.09-3.26-1.11-.9-1.51-1.23-1.75-1.4-1.56-1.1-3.15-2-4.73-2.7-5.58-2.45-11.81-2.27-17.09,.49-1.98,1.04-3.91,2.29-5.77,3.51-4.57,2.98-8.89,5.79-13.88,5.52-1.98-.11-4.04-.69-5.94-1.67-.66-.37-3.56-2.75-4.8-3.76-1.11-.9-1.51-1.23-1.75-1.4-1.56-1.1-3.15-2-4.73-2.7-.02,0-.03-.01-.05-.02,.14,.76,.33,1.58,.55,2.6,.3,1.35,.61,2.69,.91,4.04,.12,.08,.24,.16,.36,.24,.16,.12,.86,.68,1.47,1.19,3.17,2.59,4.83,3.89,5.67,4.33,2.55,1.31,5.32,2.09,8.01,2.24,6.66,.38,12.13-3.2,16.95-6.35,1.84-1.2,3.58-2.34,5.34-3.26,3.96-2.07,8.46-2.19,12.68-.34,1.27,.56,2.56,1.3,3.83,2.19,.16,.12,.86,.68,1.47,1.19,3.17,2.59,4.83,3.89,5.67,4.33,.48,.25,.97,.47,1.46,.68,.05-1.9,.12-3.79,.19-5.69Z"/><path class="g" d="M226.52,70.18c.34-1.57,.47-2.47,.52-4.36,0-.16-.04-1.06-.05-1.69-.32,.15-.64,.3-.95,.46-1.98,1.04-3.91,2.29-5.77,3.51-4.57,2.98-8.89,5.8-13.88,5.52-1.98-.11-4.04-.69-5.94-1.67-.66-.37-3.56-2.75-4.8-3.76-1.1-.9-1.51-1.23-1.75-1.4-1.56-1.1-3.15-2-4.73-2.7-5.58-2.45-11.82-2.27-17.09,.49-2.14,1.12-3.8,2.59-5.41,4.01-1.18,1.05-2.3,2.04-3.55,2.83-.42,.27-.84,.51-1.25,.75-.07,1.93-.14,3.85-.2,5.78,1.38-.59,2.77-1.32,4.18-2.22,1.59-1.01,2.91-2.18,4.19-3.32,1.44-1.28,2.8-2.48,4.39-3.31,3.96-2.07,8.46-2.19,12.68-.34,1.27,.56,2.56,1.29,3.83,2.19,.16,.12,.85,.68,1.47,1.19,3.17,2.59,4.83,3.9,5.67,4.33,2.55,1.31,5.32,2.09,8.01,2.24,6.66,.38,12.13-3.2,16.95-6.35,1.18-.77,2.33-1.51,3.46-2.19Z"/><path class="g" d="M278.79,64.59c-1.17,.61-2.42,1.42-3.25,2-.75,.51-1.32,.9-1.74,1.28-3.12,2.79-7.98,6.05-13.45,5.75-1.98-.11-4.04-.69-5.94-1.67-.66-.37-3.56-2.75-4.8-3.76-1.1-.9-1.51-1.23-1.74-1.4-1.56-1.1-3.15-2-4.73-2.7-.24-.1-.48-.2-.72-.29,.1,1.83,.03,3.68-.17,5.52,.89,.46,1.79,1.01,2.67,1.63,.16,.12,.85,.68,1.47,1.18,3.17,2.59,4.83,3.9,5.67,4.33,2.55,1.31,5.32,2.09,8.01,2.24,5.7,.32,11.63-2.12,17.13-7.05,.02-.01,.03-.03,.05-.04,.53-.4,2.4-1.73,3.91-2.52,1-.52,2.04-.92,3.1-1.19l1.64-5.43c-2.46,.24-4.86,.94-7.1,2.11Z"/><path class="n" d="M40.6,82.36c-.06-.03-.13-.06-.19-.09-.66-.37-3.56-2.74-4.8-3.76-1.11-.9-1.51-1.23-1.75-1.4-1.56-1.1-3.15-2-4.73-2.7-1.29-.57-2.62-.99-3.96-1.27l1.78,5.89s.09,.03,.13,.05c1.27,.56,2.56,1.29,3.83,2.19,.16,.12,.86,.68,1.47,1.19,3.17,2.59,4.83,3.89,5.67,4.33,.91,.47,1.84,.86,2.79,1.19-.24-.98-.43-1.99-.55-3.03-.1-.92,.03-1.78,.31-2.59Z"/><path class="n" d="M102.72,83.61c-1.18,.27-2.38,.4-3.63,.33-1.98-.11-4.04-.69-5.94-1.67-.66-.37-3.56-2.74-4.8-3.76-1.11-.9-1.51-1.23-1.75-1.4-1.56-1.1-3.15-2-4.73-2.7-5.58-2.45-11.81-2.27-17.09,.49-1.17,.61-2.42,1.42-3.25,2-.75,.51-1.32,.9-1.74,1.28-1.35,1.21-3.03,2.51-4.95,3.57,.46,1.01,.77,2.1,.9,3.2-.29-2.51,.07-.14,.23,.42,.13,.44,.27,.88,.41,1.32,2.31-1.16,4.59-2.73,6.81-4.71,.02-.01,.03-.03,.05-.04,.53-.4,2.4-1.73,3.91-2.52,3.96-2.07,8.46-2.19,12.68-.34,1.27,.56,2.56,1.29,3.83,2.19,.16,.12,.86,.68,1.47,1.19,3.17,2.59,4.83,3.89,5.67,4.33,2.55,1.31,5.32,2.09,8.01,2.24,1.87,.11,3.64-.11,5.34-.53-.56-1.6-1.08-3.26-1.42-4.89Z"/><path class="n" d="M189.77,79.55c.68-1.64,1.54-3.15,2.6-4.39-1.06-.65-2.13-1.23-3.19-1.69-5.58-2.45-11.81-2.27-17.09,.49-2.14,1.12-3.8,2.59-5.41,4.01-1.18,1.05-2.3,2.04-3.54,2.83-3.6,2.29-6.89,3.31-10.07,3.13-1.98-.11-4.04-.69-5.94-1.67-.66-.37-3.56-2.74-4.8-3.76-1.11-.9-1.51-1.23-1.75-1.4-1.56-1.1-3.15-2-4.73-2.7-5.58-2.45-11.81-2.27-17.09,.49-.64,.33-1.27,.69-1.89,1.06,.29,.51,.52,1.05,.68,1.61,.23,.84,.3,1.68,.25,2.49,.05,.21,.1,.43,.16,.63,.05,.16,.1,.32,.15,.48,1.01-.64,2.01-1.24,3.02-1.76,3.96-2.07,8.46-2.19,12.68-.34,1.27,.56,2.56,1.29,3.83,2.19,.16,.12,.86,.68,1.47,1.19,3.17,2.59,4.83,3.89,5.67,4.33,2.55,1.31,5.32,2.09,8.01,2.24,.33,.02,.67,.03,1,.03,3.94,0,7.91-1.3,12.09-3.95,1.59-1.01,2.91-2.18,4.19-3.32,1.44-1.28,2.8-2.48,4.39-3.31,3.96-2.07,8.46-2.19,12.68-.34,.88,.38,1.76,.86,2.65,1.41Z"/><path class="n" d="M249.61,77.57c-1.11-.9-1.51-1.23-1.75-1.4-1.56-1.1-3.15-2-4.73-2.7-5.58-2.45-11.81-2.27-17.09,.49-1.98,1.04-3.91,2.29-5.77,3.51-4.04,2.64-7.89,5.13-12.18,5.48-.25,1.74-.62,3.45-1.01,5.15,6.22,0,11.39-3.37,15.97-6.37,1.84-1.2,3.58-2.34,5.34-3.26,3.96-2.07,8.46-2.19,12.68-.34,1.27,.56,2.56,1.3,3.83,2.19,.16,.12,.86,.68,1.47,1.19,2.21,1.81,3.68,2.98,4.65,3.67,.36-1.87,.7-3.75,1.03-5.63-.92-.73-1.88-1.51-2.46-1.99Z"/><path class="n" d="M282.9,72.37c-1.41,.37-2.79,.9-4.11,1.59-1.17,.61-2.42,1.42-3.25,2-.75,.51-1.32,.9-1.74,1.28-1.71,1.53-3.94,3.19-6.51,4.34-.02,.32-.06,.64-.12,.96-.28,1.61-.57,3.21-.87,4.81,3.69-1.05,7.37-3.17,10.89-6.31,.02-.01,.03-.03,.05-.04,.52-.39,2.32-1.67,3.8-2.46l1.86-6.17Z"/><path class="g" d="M143.93,89.19c-.62-.5-1.21-.98-1.61-1.31-1.11-.9-1.51-1.23-1.75-1.4-1.56-1.1-3.15-2-4.73-2.7-5.58-2.45-11.81-2.27-17.09,.49-1.98,1.04-3.91,2.29-5.77,3.51-4.57,2.98-8.89,5.8-13.89,5.53-1.98-.11-4.04-.69-5.94-1.67-.66-.37-3.56-2.74-4.8-3.76-1.11-.9-1.51-1.23-1.75-1.4-.27-.19-.54-.37-.81-.54,1.05,2.58,2.09,5.17,3.04,7.8,.16,.43,.25,.87,.31,1.3,.74,.56,1.28,.93,1.65,1.12,2.55,1.31,5.32,2.09,8.01,2.24,6.66,.37,12.13-3.2,16.96-6.35,1.84-1.2,3.58-2.34,5.34-3.26,3.96-2.07,8.46-2.19,12.68-.34,1.27,.56,2.56,1.3,3.83,2.19,.16,.12,.86,.68,1.47,1.19,3.17,2.59,4.83,3.89,5.67,4.33,.21,.11,.43,.21,.65,.31-.44-2.44-.91-4.87-1.48-7.28Z"/><path class="g" d="M221.57,85.99c-.44,.28-.87,.57-1.3,.85-4.57,2.98-8.89,5.79-13.88,5.52-1.98-.11-4.04-.69-5.94-1.67-.66-.37-3.56-2.74-4.8-3.75-1.11-.9-1.52-1.24-1.75-1.4-1.56-1.1-3.15-2-4.73-2.7-5.58-2.45-11.82-2.27-17.09,.49-2.14,1.12-3.8,2.59-5.41,4.01-1.18,1.05-2.3,2.04-3.54,2.83-1,.63-1.97,1.16-2.93,1.6,.31,1.72,.62,3.44,.94,5.16,1.55-.62,3.12-1.43,4.72-2.45,1.59-1.01,2.91-2.18,4.19-3.32,1.44-1.28,2.8-2.48,4.39-3.31,3.96-2.07,8.46-2.19,12.68-.34,1.27,.56,2.56,1.29,3.83,2.19,.16,.12,.86,.69,1.47,1.19,3.17,2.58,4.82,3.89,5.66,4.33,2.55,1.31,5.32,2.09,8.01,2.24,5.13,.29,9.56-1.77,13.53-4.17,.62-2.44,1.27-4.86,1.94-7.29Z"/><path class="g" d="M279.33,84.19l.4-1.33c-.32,.15-.64,.3-.95,.46-1.17,.61-2.42,1.42-3.25,2-.75,.51-1.32,.9-1.74,1.28-3.12,2.79-7.99,6.06-13.45,5.75-1.98-.11-4.04-.69-5.94-1.67-.66-.37-3.56-2.74-4.8-3.76-1.11-.9-1.51-1.23-1.75-1.4-1.56-1.1-3.15-2-4.73-2.7-1.42-.62-2.87-1.07-4.35-1.36-.43,1.65-.86,3.3-1.31,4.94,1.21,.21,2.42,.57,3.61,1.09,1.27,.56,2.56,1.3,3.83,2.19,.16,.12,.86,.68,1.47,1.19,3.17,2.59,4.83,3.89,5.67,4.33,2.55,1.31,5.32,2.09,8.01,2.24,5.66,.32,11.53-2.09,17-6.93,.85-2.06,1.62-4.16,2.27-6.32Z"/><path class="g" d="M64.78,84.27c-1.17,.61-2.42,1.42-3.25,2-.75,.51-1.32,.9-1.74,1.28-3.12,2.79-7.99,6.06-13.45,5.75-1.98-.11-4.04-.69-5.94-1.67-.66-.37-3.56-2.74-4.8-3.76-1.11-.9-1.51-1.23-1.75-1.4-1.56-1.1-3.15-2-4.73-2.7-.28-.12-.57-.24-.85-.35l.23,.75c.66,2.18,1.43,4.3,2.29,6.38,.04,.03,.08,.05,.11,.08,.16,.12,.86,.68,1.47,1.19,3.17,2.59,4.83,3.89,5.67,4.33,2.55,1.31,5.32,2.09,8.01,2.24,5.71,.32,11.63-2.12,17.13-7.05,.02-.01,.03-.03,.05-.04,.53-.4,2.4-1.73,3.91-2.52,.9-.47,1.83-.84,2.78-1.1-.65-1.58-1.3-3.16-1.94-4.74-1.1,.34-2.17,.78-3.2,1.32Z"/><path class="n" d="M46.35,102.67c-1.98-.11-4.04-.69-5.94-1.67-.66-.37-3.56-2.74-4.8-3.76-1.11-.9-1.51-1.23-1.75-1.4-.3-.21-.61-.41-.91-.61,2.03,4,4.43,7.75,7.16,11.21,1.95,.75,3.97,1.2,5.95,1.31,1.22,.07,2.45,0,3.68-.18-.88-1.61-1.72-3.23-2.48-4.9-.31,0-.61,0-.92-.01Z"/><path class="n" d="M106.9,100.79c-2.5,1.24-5.05,2.03-7.81,1.88-1.98-.11-4.04-.69-5.94-1.67-.66-.37-3.56-2.74-4.8-3.76-1.11-.9-1.51-1.23-1.75-1.4-1.56-1.1-3.15-2-4.73-2.7-5.58-2.45-11.81-2.27-17.09,.49-1.17,.61-2.42,1.42-3.25,2-.17,.11-.32,.22-.47,.32,.04,.08,.08,.17,.11,.25l.02,.03c.26,.46,.47,.96,.71,1.43,.43,.82,.87,1.63,1.32,2.44,.07,.13,.15,.27,.23,.4,.71-.52,2.35-1.65,3.69-2.36,3.96-2.07,8.46-2.19,12.68-.34,1.27,.56,2.56,1.3,3.83,2.19,.16,.12,.86,.68,1.47,1.19,3.17,2.59,4.83,3.89,5.67,4.33,2.55,1.31,5.32,2.09,8.01,2.24,3.57,.2,6.8-.74,9.78-2.14-.57-1.61-1.17-3.22-1.68-4.84Z"/><path class="n" d="M187.72,91.64c-5.2-1.83-10.82-1.47-15.64,1.05-2.14,1.12-3.8,2.59-5.41,4.01-1.18,1.05-2.3,2.04-3.55,2.83-3.6,2.29-6.89,3.31-10.07,3.13-1.98-.11-4.04-.69-5.94-1.67-.66-.37-3.56-2.74-4.8-3.76-1.11-.9-1.51-1.23-1.75-1.4-1.56-1.1-3.15-2-4.73-2.7-4.81-2.11-10.1-2.27-14.85-.5,0,.13,.02,.24,.01,.37,0,.35,.17,1.31,.11,1.08,.06,.27,.12,.55,.19,.82,.24,.93,.54,1.84,.85,2.75,3.7-1.58,7.79-1.54,11.64,.15,1.27,.56,2.56,1.3,3.83,2.19,.16,.12,.86,.68,1.47,1.19,3.17,2.59,4.83,3.89,5.67,4.33,2.55,1.31,5.32,2.09,8.01,2.24,.33,.02,.67,.03,1,.03,3.94,0,7.91-1.3,12.09-3.95,1.59-1.01,2.91-2.18,4.19-3.32,1.44-1.28,2.8-2.48,4.39-3.31,3.55-1.85,7.53-2.14,11.36-.84,.6-1.59,1.24-3.17,1.92-4.73Z"/><path class="n" d="M274.99,95.07c-.49,.34-.89,.63-1.19,.91-2.7,2.41-6.69,5.17-11.26,5.68-.55,1.78-1.31,3.49-2.17,5.17,2.73,.11,5.51-.42,8.26-1.54,2.4-3.18,4.53-6.6,6.35-10.22Z"/><path class="n" d="M246.38,100.26l.04,.03c.21-.38,.41-.75,.61-1.13,.56-1.11,.4-.82,.72-1.74,.16-.79,.23-1.01,.22-.67,.03-.46,.03-.92-.01-1.38,0-.13,0-.25,0-.38-.04-.03-.07-.05-.1-.07-1.56-1.1-3.15-2-4.73-2.7-5.58-2.45-11.82-2.27-17.09,.49-1.98,1.04-3.91,2.29-5.77,3.51-4.57,2.98-8.89,5.8-13.88,5.52-1.87-.1-3.81-.63-5.61-1.51-.64,1.58-1.22,3.19-1.78,4.8,2.29,1.05,4.73,1.67,7.11,1.8,6.66,.37,12.13-3.2,16.95-6.35,1.84-1.2,3.58-2.34,5.34-3.26,3.96-2.07,8.46-2.19,12.68-.34,1.27,.56,2.56,1.29,3.83,2.19,.16,.12,.86,.68,1.47,1.19Z"/><path class="g" d="M81.88,102.53c-5.58-2.45-11.81-2.27-17.09,.49-1.17,.61-2.42,1.42-3.25,2-.75,.51-1.32,.9-1.74,1.28-3.12,2.79-7.99,6.06-13.45,5.75-.49-.03-.98-.08-1.48-.17,1.73,1.77,3.56,3.43,5.47,4.99,4.34-.78,8.72-3.07,12.86-6.78,.02-.01,.03-.03,.05-.04,.53-.4,2.4-1.73,3.91-2.52,3.96-2.07,8.46-2.19,12.68-.34,.56,.24,1.12,.53,1.68,.84-.42-1.79-.13-3.71,.71-5.35-.11-.05-.22-.11-.34-.16Z"/><path class="g" d="M143.65,108.47c-.1-.31-.17-.63-.23-.94-.43-.35-.82-.67-1.11-.91-1.11-.9-1.51-1.23-1.75-1.4-1.56-1.1-3.15-2-4.73-2.7-5.58-2.45-11.81-2.27-17.09,.49-1.98,1.04-3.91,2.29-5.77,3.51-3.62,2.36-7.07,4.6-10.83,5.31,.82,1.15,1.65,2.3,2.49,3.44,.24,.33,.43,.68,.59,1.04,3.9-1.19,7.36-3.44,10.54-5.52,1.84-1.2,3.58-2.34,5.34-3.26,3.96-2.07,8.46-2.19,12.68-.34,1.27,.56,2.56,1.29,3.83,2.19,.16,.12,.86,.68,1.47,1.19,3.17,2.59,4.83,3.89,5.67,4.33,.13,.07,.26,.12,.39,.19-.32-2.23-.77-4.44-1.49-6.62Z"/><path class="g" d="M206.29,116.2c.16-.45,.37-.9,.63-1.35,.73-1.26,1.36-2.55,1.97-3.87-.82,.12-1.66,.17-2.51,.12-1.98-.11-4.04-.69-5.94-1.67-.66-.37-3.56-2.74-4.8-3.75-1.11-.9-1.52-1.24-1.75-1.4-1.56-1.1-3.15-2-4.73-2.7-5.58-2.45-11.81-2.27-17.09,.49-2.14,1.12-3.8,2.59-5.41,4.01-1.18,1.05-2.3,2.04-3.54,2.83-1.04,.66-2.06,1.21-3.05,1.66,.3,1.73,.52,3.48,.69,5.24,1.67-.64,3.37-1.49,5.1-2.59,1.59-1.01,2.91-2.18,4.19-3.32,1.44-1.28,2.8-2.48,4.39-3.31,3.96-2.07,8.46-2.19,12.68-.34,1.27,.56,2.56,1.29,3.83,2.19,.16,.12,.86,.69,1.47,1.19,3.17,2.58,4.82,3.89,5.66,4.33,2.55,1.31,5.32,2.09,8.01,2.24,.06,0,.13,0,.19,0Z"/><path class="g" d="M264.01,110.78c-1.18,.26-2.4,.39-3.66,.32-1.98-.11-4.04-.69-5.94-1.67-.66-.37-3.56-2.74-4.8-3.76-1.11-.9-1.51-1.23-1.75-1.4-1.56-1.1-3.15-2-4.73-2.7-2.7-1.18-5.54-1.75-8.36-1.71-.46,1.75-.99,3.48-1.57,5.2,2.6-.34,5.29,.05,7.87,1.19,1.27,.56,2.56,1.3,3.83,2.19,.16,.12,.86,.68,1.47,1.19,3.17,2.59,4.83,3.89,5.67,4.33,2.06,1.06,4.27,1.76,6.46,2.08,1.93-1.64,3.76-3.4,5.5-5.25Z"/><path class="n" d="M54,119.66c1.56,1.11,3.17,2.15,4.82,3.13,.05-.03,.09-.05,.14-.08-.98-1.39-1.99-2.77-2.85-4.24-.67,.43-1.37,.83-2.1,1.19Z"/><path class="n" d="M113.49,115.56c-.17,.11-.34,.22-.51,.33-4.57,2.98-8.89,5.8-13.88,5.52-1.98-.11-4.04-.69-5.94-1.67-.66-.37-3.56-2.75-4.81-3.76-1.1-.9-1.51-1.23-1.74-1.4-1.56-1.1-3.15-2-4.73-2.7-4.01-1.76-8.35-2.16-12.43-1.22,.94,1.61,2.06,3.11,3.13,4.64,2.41-.2,4.87,.22,7.25,1.26,1.27,.56,2.56,1.29,3.83,2.19,.16,.12,.85,.68,1.47,1.18,3.17,2.59,4.83,3.9,5.67,4.33,2.55,1.31,5.32,2.09,8.01,2.24,6.49,.37,11.85-3.02,16.59-6.11-.8-1.56-1.46-3.17-1.91-4.84Z"/><path class="n" d="M177.56,114.76c1.26-1.84,2.54-3.68,3.79-5.52-3.2-.05-6.38,.69-9.27,2.2-2.14,1.12-3.8,2.59-5.41,4.01-1.18,1.05-2.3,2.04-3.54,2.83-3.6,2.28-6.9,3.31-10.07,3.13-1.98-.11-4.04-.69-5.94-1.67-.66-.37-3.56-2.75-4.8-3.76-1.1-.9-1.51-1.23-1.74-1.4-1.56-1.1-3.15-2-4.73-2.7-2.5-1.09-5.12-1.66-7.73-1.71,.4,2.01,1.18,3.63,2.23,5.32,1.16,.21,2.32,.56,3.45,1.06,1.27,.56,2.56,1.29,3.83,2.19,.16,.12,.85,.68,1.47,1.18,3.17,2.59,4.83,3.9,5.67,4.33,2.55,1.31,5.32,2.09,8.01,2.24,.33,.02,.67,.03,1,.03,3.94,0,7.91-1.3,12.09-3.95,1.59-1.01,2.91-2.18,4.19-3.32,1.44-1.28,2.8-2.48,4.39-3.31,1.01-.53,2.05-.93,3.11-1.2Z"/><path class="n" d="M235.65,114.33c.98-1.58,1.94-3.18,2.89-4.78-4.26-.77-8.64-.14-12.5,1.88-1.98,1.04-3.91,2.29-5.77,3.51-4.57,2.98-8.89,5.79-13.88,5.52-1.98-.11-4.04-.69-5.94-1.67-.61-.35-3.2-2.45-4.55-3.55-.95,1.42-1.91,2.83-2.88,4.23,2.77,2.26,4.29,3.44,5.07,3.84,2.55,1.31,5.32,2.09,8.01,2.24,6.66,.37,12.13-3.2,16.95-6.35,1.84-1.2,3.58-2.34,5.34-3.26,2.29-1.2,4.76-1.74,7.25-1.62Z"/><path class="n" d="M254.41,118.8c-.35-.2-1.31-.95-2.33-1.76-.87,1.48-1.75,2.95-2.65,4.41,.29,.23,.56,.43,.8,.62,1.56-.97,3.09-1.99,4.57-3.08-.13-.06-.25-.12-.38-.18Z"/><path class="g" d="M96.15,132.14c-.21-.65-.4-1.32-.54-2.01-.83-.26-1.66-.6-2.45-1.01-.66-.37-3.56-2.74-4.8-3.76-1.11-.9-1.51-1.23-1.75-1.4-1.56-1.1-3.15-2-4.73-2.7-5.58-2.45-11.81-2.27-17.09,.49-1.17,.61-2.42,1.42-3.25,2-.16,.11-.31,.21-.46,.31,1.75,.94,3.54,1.82,5.37,2.6,.24-.14,.48-.27,.7-.39,3.96-2.07,8.46-2.19,12.68-.34,1.27,.56,2.56,1.3,3.83,2.19,.16,.12,.86,.69,1.47,1.19,1.37,1.12,2.44,1.98,3.3,2.65,1.53,.1,3.07,.17,4.61,.17h3.11Z"/><path class="g" d="M193.9,123.02c-1.56-1.1-3.15-2.01-4.73-2.7-5.58-2.45-11.82-2.27-17.09,.49-2.14,1.12-3.8,2.59-5.41,4.01-1.18,1.05-2.3,2.04-3.54,2.83-.79,.5-1.56,.93-2.32,1.31,.21,1.04,.34,2.1,.42,3.18h4.34c.1-.06,.19-.12,.29-.18,1.59-1.01,2.91-2.18,4.19-3.32,1.44-1.28,2.8-2.48,4.39-3.31,3.96-2.07,8.46-2.19,12.68-.34,1.27,.56,2.56,1.29,3.83,2.19,.16,.12,.86,.69,1.47,1.19,1.17,.96,2.14,1.74,2.93,2.36,.97-1.4,1.91-2.83,2.86-4.25-.95-.75-1.95-1.57-2.56-2.07-1.11-.9-1.52-1.23-1.75-1.4Z"/><path class="g" d="M247.86,123.02c-1.56-1.1-3.15-2-4.73-2.7-5.58-2.45-11.82-2.27-17.09,.49-1.98,1.04-3.91,2.29-5.77,3.51-1.44,.94-2.86,1.86-4.28,2.68-.15,.88-.48,1.71-1.04,2.45-.67,.89-1.33,1.78-1.97,2.69h1.82c.83,0,1.67-.02,2.49-.05,2.03-1.07,3.94-2.31,5.76-3.5,1.84-1.2,3.58-2.34,5.34-3.26,3.96-2.07,8.46-2.19,12.68-.34,.63,.28,1.26,.6,1.9,.96,1.78-.82,3.52-1.71,5.22-2.68-.15-.12-.26-.2-.34-.26Z"/><path class="g" d="M145.35,131c-.37-1.11-.41-2.25-.2-3.34-1.02-.81-2.17-1.75-2.84-2.29-1.11-.9-1.51-1.23-1.75-1.4-1.56-1.1-3.15-2-4.73-2.7-5.58-2.45-11.81-2.27-17.09,.49-1.98,1.04-3.91,2.29-5.77,3.51-.84,.55-1.68,1.1-2.51,1.62,.15,.54,.26,1.09,.33,1.65-.22-1.85-.07-1.13,.1-.49,.07,.14,.16,.33,.29,.55,.54,.95,1.11,1.87,1.7,2.79,.99-.61,1.94-1.23,2.88-1.84,1.84-1.2,3.58-2.34,5.34-3.26,3.96-2.07,8.46-2.19,12.68-.34,1.27,.56,2.56,1.3,3.83,2.19,.16,.12,.86,.69,1.47,1.19,1.48,1.21,2.62,2.13,3.51,2.82h3.05c-.15-.32-.2-.81-.3-1.13Z"/><path class="m" d="M239.92,48.6c.33,9.76-2.66,19.55-7.42,28-4.86,8.62-11.73,15.12-19.9,20.55-27.68,18.39-62.93,21.69-95.31,20.34-16.91-.71-33.57-2.32-49.32-8.91-6.71-2.81-13.07-6.24-19.13-10.13-3.01-1.93-6.46,1.76-4.31,4.61,12.03,15.95,30.98,25.86,51.69,25.86h117.35c28.65,0,53.92-18.96,62.2-46.67l17.96-60.15c1.56-5.23-2.31-10.49-7.72-10.49H23.77c-5.41,0-9.28,5.27-7.72,10.49l3.92,13.12c1.11,3.73,4.55,6.29,8.44,6.29"/><path class="n" d="M82.9,131.12c.05,.09,.09,.17,.13,.26,.17,.03,.34,.05,.51,.07-.21-.11-.42-.23-.64-.33Z"/><path class="n" d="M116.94,132.14h21.77c-.96-.57-1.92-1.08-2.87-1.5-5.58-2.45-11.81-2.27-17.09,.49-.61,.32-1.21,.66-1.8,1.01Z"/><rect class="i" x="6.94" y="8.11" width="293.97" height="25.19" rx="7.45" ry="7.45"/><rect class="i" x="6.94" y="8.11" width="293.97" height="25.19" rx="7.45" ry="7.45"/><rect class="h" x="6.94" y="8.11" width="293.97" height="25.19" rx="7.45" ry="7.45"/><path class="e" d="M14.4,33.54c-.36,0-.64-.3-.64-.65,0-.21,.63-20.71,24.33-25.14,.35-.07,.68,.16,.74,.51,.06,.35-.16,.68-.51,.74C15.67,13.23,15.05,32.11,15.04,32.91c0,.35-.29,.63-.64,.63Z"/><path class="e" d="M7.92,12.55c-.35,.66-.62,1.38-.78,2.13,3.27-2.5,7.63-4.59,13.44-5.68,.35-.06,.57-.4,.51-.74-.01-.05-.04-.1-.06-.15h-2.37c-4.36,1-7.89,2.57-10.73,4.44Z"/><path class="e" d="M36.87,33.54c-.36,0-.64-.3-.64-.65,0-.21,.63-20.71,24.33-25.14,.35-.07,.68,.16,.74,.51,.06,.35-.16,.68-.51,.74-22.65,4.23-23.27,23.11-23.29,23.91,0,.35-.29,.63-.64,.63Z"/><path class="e" d="M59.35,33.54c-.36,0-.64-.3-.64-.65,0-.21,.63-20.71,24.33-25.14,.35-.07,.68,.16,.74,.51,.06,.35-.16,.68-.51,.74-22.68,4.24-23.28,23.71-23.29,23.91,0,.35-.29,.63-.64,.63Z"/><path class="e" d="M81.82,33.54c-.36,0-.64-.3-.64-.65,0-.21,.63-20.71,24.33-25.14,.35-.07,.68,.16,.74,.51,.06,.35-.16,.68-.51,.74-22.65,4.23-23.27,23.11-23.29,23.91,0,.35-.29,.63-.64,.63Z"/><path class="e" d="M104.29,33.54c-.36,0-.64-.3-.64-.65,0-.21,.63-20.71,24.33-25.14,.35-.07,.68,.16,.74,.51,.06,.35-.16,.68-.51,.74-22.65,4.23-23.27,23.11-23.29,23.91,0,.35-.29,.63-.64,.63Z"/><path class="e" d="M126.76,33.54c-.36,0-.64-.3-.64-.65,0-.21,.63-20.71,24.33-25.14,.35-.07,.68,.16,.74,.51s-.16,.68-.51,.74c-22.65,4.23-23.27,23.11-23.29,23.91,0,.35-.29,.63-.64,.63Z"/><path class="e" d="M149.23,33.54c-.36,0-.64-.3-.64-.65,0-.21,.63-20.71,24.33-25.14,.35-.07,.68,.16,.74,.51,.06,.35-.16,.68-.51,.74-22.65,4.23-23.27,23.11-23.29,23.91,0,.35-.29,.63-.64,.63Z"/><path class="e" d="M171.71,33.54c-.36,0-.64-.3-.64-.65,0-.21,.63-20.71,24.33-25.14,.35-.07,.68,.16,.74,.51,.06,.35-.16,.68-.51,.74-22.68,4.24-23.28,23.71-23.29,23.91,0,.35-.29,.63-.64,.63Z"/><path class="e" d="M194.18,33.54c-.36,0-.64-.3-.64-.65,0-.21,.63-20.71,24.33-25.14,.35-.07,.68,.16,.74,.51,.06,.35-.16,.68-.51,.74-22.65,4.23-23.27,23.11-23.29,23.91,0,.35-.29,.63-.64,.63Z"/><path class="e" d="M216.65,33.54c-.36,0-.64-.3-.64-.65,0-.21,.63-20.71,24.33-25.14,.35-.07,.68,.16,.74,.51s-.16,.68-.51,.74c-22.65,4.23-23.27,23.11-23.29,23.91,0,.35-.29,.63-.64,.63Z"/><path class="e" d="M239.12,33.54c-.36,0-.64-.3-.64-.65,0-.21,.63-20.71,24.33-25.14,.35-.07,.68,.16,.74,.51s-.16,.68-.51,.74c-22.65,4.23-23.27,23.11-23.29,23.91,0,.35-.29,.63-.64,.63Z"/><path class="e" d="M261.59,33.54c-.36,0-.64-.3-.64-.65,0-.21,.63-20.71,24.33-25.14,.35-.07,.68,.16,.74,.51,.06,.35-.16,.68-.51,.74-22.68,4.24-23.28,23.71-23.29,23.91,0,.35-.29,.63-.64,.63Z"/><path class="e" d="M299.42,11.73c-.25-.36-.53-.7-.84-1.02-14.69,7.17-15.15,22.01-15.16,22.18,0,.16,.06,.3,.15,.41h.97c.09-.11,.15-.24,.15-.39,0-.17,.45-14.39,14.72-21.18Z"/><path class="d" d="M300.9,24.93v-7.48c-.47,3.76-3.82,7.43-8.66,7.43H16.13c-5.06,0-8.85-3.99-9.19-7.92v7.97c0,2.56,1.15,4.85,2.96,6.38H297.94c1.81-1.54,2.96-3.82,2.96-6.38Z"/><path class="c" d="M50.89,87.8c-4.74-12.68-9.16-26.54-8.99-40.28-.18,.09-.36,.17-.55,.27-9.12,4.76-7.1,18.63-5.11,26.76,2.98,12.16,9.5,22.63,18.42,31.36,2.36,2.32,4.91,4.28,7.59,5.95-4.48-7.64-8.23-15.69-11.35-24.05Z"/><path class="c" d="M74.95,54.16c-.41-.19-.82-.38-1.23-.57-9.41-4.35-19.02-10.48-29.23-7.13-.39,13.55,3.92,27.22,8.56,39.77,3.63,9.83,8.14,19.28,13.7,28.09,9.69,4.64,20.77,6.04,31.74,6.08,.32,0,.64,0,.96,0-15.49-18.49-21.66-42.6-24.49-66.24Z"/><path class="c" d="M116.35,97.58c-3.59-8.69-5.64-17.85-6.69-27.16-3.72-1.89-7.5-3.67-11.29-5.43-6.89-3.2-13.79-6.38-20.69-9.57,2.92,23.31,9.28,47.09,25.12,64.94,6.55-.14,13.21-.74,19.45-2.6,1.45-.43,2.95-.93,4.43-1.51-4.07-5.85-7.59-12.04-10.33-18.68Z"/><path class="c" d="M118.48,96.01c2.74,6.83,6.38,13.21,10.59,19.2,2.07-1,4.01-2.23,5.59-3.81,5.33-5.35,5.5-12.65,2.56-19.15-3.52-7.79-11.98-12.95-19.08-17.18-1.88-1.12-3.8-2.18-5.73-3.21,1.05,8.27,2.95,16.39,6.07,24.16Z"/><path class="b" d="M251.32,12.89H26.3c-4.62,0-4.63,4.68,0,4.68H251.32c4.62,0,4.63-4.68,0-4.68Z"/></g></g></g></g></svg>