<?xml version="1.0" encoding="utf-8"?>
<!-- Generator: Adobe Illustrator 26.2.1, SVG Export Plug-In . SVG Version: 6.00 Build 0)  -->
<svg version="1.1" id="a" xmlns="http://www.w3.org/2000/svg" xmlns:xlink="http://www.w3.org/1999/xlink" x="0px" y="0px"
	 viewBox="0 0 199.4 161.1" style="enable-background:new 0 0 199.4 161.1;" xml:space="preserve">
<style type="text/css">
	.st0{opacity:0.5;enable-background:new    ;}
	.st1{fill:#FFFFFF;}
	.st2{fill:#F5BA5E;}
	.st3{fill:#E5894C;}
	.st4{fill:#AF621E;}
	.st5{opacity:0.78;fill:#BA522A;enable-background:new    ;}
	.st6{fill:#AD4B1F;}
	.st7{fill:#FEE3C5;}
	.st8{fill:url(#SVGID_1_);}
	.st9{opacity:0.7;fill:#EAAA63;enable-background:new    ;}
	.st10{fill:#E8A66B;}
	.st11{fill:#F4C287;}
	.st12{fill:#F2BB7E;}
	.st13{fill:url(#SVGID_00000021835974695931425540000003873994542024524205_);}
	.st14{fill:#D37039;}
	.st15{fill:#EAAF75;}
	.st16{fill:#EAA549;}
	.st17{opacity:0.37;fill:#FEE3C5;enable-background:new    ;}
	.st18{opacity:0.56;fill:#C17744;enable-background:new    ;}
	.st19{opacity:0.41;fill:#C98857;enable-background:new    ;}
	.st20{opacity:0.1;}
</style>
<path class="st0" d="M178.4,156.3c-2.2,0-4.4-0.2-6.4-0.7c-3-0.6-5.3-1.7-7.6-2.7c-0.5-0.2-1-0.5-1.6-0.7c-2.9-1.3-7.5-2.5-12.1-3.3
	c-3.6-0.6-7.5-0.9-11.6-0.9c-0.5,0-1,0-1.5,0c-1.2,0-2.4,0.1-3.8,0.2l-0.9,0.1c-1,0.1-2,0.2-2.9,0.3l-0.1,0c-0.1,0-0.2,0-0.3,0
	c-0.8,0.1-1.7,0.2-2.5,0.3c-0.9,0.1-1.9,0.3-2.8,0.4c-6.9,1.2-13.9,1.8-20.7,1.8c-1.1,0-2.2,0-3.2,0c-1.3,0-2.7-0.1-4.1-0.2
	c0,0-0.1,0-0.1,0c-1.3-0.1-2.5-0.2-3.7-0.3l-0.2,0c-1.3-0.1-2.4-0.3-3.5-0.4l-0.4-0.1c-1.1-0.2-2.2-0.3-3.3-0.5c-0.1,0-0.1,0-0.2,0
	c-0.6-0.1-1.2-0.2-1.8-0.3l-0.7-0.1c-0.4-0.1-1.3-0.3-1.3-0.3l-0.9-0.2c-1.2-0.3-2.4-0.6-3.5-0.9c-0.9-0.2-1.7-0.5-2.5-0.7
	c0,0-0.1,0-0.1,0c-0.4-0.1-0.9-0.3-1.3-0.4c0,0-0.1,0-0.1,0c-0.6-0.2-1.2-0.4-1.7-0.6l-1.3-0.4c-0.3-0.1-1.2-0.5-1.2-0.5
	c-0.4-0.1-1.2-0.5-1.2-0.5c-3.2-1.3-5.2-2.4-6-2.8c0,0-0.3-0.1-0.3-0.1c-1.2-0.7-2.3-1.3-3.4-2l-0.1-0.1c-0.9-0.6-1.8-1.1-2.6-1.6
	l-0.8-0.6c-0.4-0.2-0.7-0.5-1.1-0.7l-1.3-0.9c-3.5-2.5-6.7-5.1-9.5-7.8c0,0-0.1-0.1-0.1-0.1c-0.7-0.7-1.4-1.4-2-2
	c-8.8-9.3-13.9-20.2-14.8-31.7c-0.1-1.6-0.2-3.3-0.1-5V89c0-0.5,0-0.9,0.1-1.4c0,0,0-0.1,0-0.1c0-0.5,0.1-0.8,0.1-1.2l0-0.3
	c0-0.3,0.1-0.6,0.1-0.9l0-0.4c0-0.3,0.2-1.2,0.2-1.2l0.1-0.4c0.1-0.3,0.2-0.9,0.2-0.9c-0.3-0.2-0.5-0.4-0.8-0.6h0
	c-0.1-0.1-0.2-0.1-0.3-0.2c-0.3-0.3-0.6-0.5-0.9-0.8c-0.1-0.1-0.1-0.1-0.2-0.2c0,0-0.2-0.2-0.2-0.3c-0.1-0.1-0.2-0.2-0.3-0.3
	c-0.1-0.1-0.2-0.2-0.3-0.4c-0.1-0.1-0.1-0.2-0.2-0.3c-0.1-0.1-0.1-0.2-0.2-0.2c0,0-0.1-0.1-0.1-0.1c-0.2-0.3-0.4-0.7-0.6-1.1l0-0.1
	c-0.1-0.2-0.2-0.4-0.3-0.6c-0.1-0.1-0.1-0.3-0.2-0.4c0,0,0-0.1-0.1-0.1c0-0.1-0.1-0.2-0.1-0.4c-0.1-0.2-0.1-0.4-0.2-0.6l0.9-0.3
	c0,0,0-0.1,0-0.1l-1,0.3c0-0.2-0.1-0.3-0.1-0.5c-0.1-0.6-0.3-1.2-0.3-1.8c0,0,0-0.2,0-0.3c0-0.2,0-0.3,0-0.5c0-0.1,0-0.4,0-0.6
	c0-0.2,0-0.4,0-0.5c0-0.2,0-0.4,0-0.7c0-0.1,0-0.3,0-0.3c0-0.2,0-0.3,0-0.5c-0.4-0.4-0.7-0.8-1-1.2c-0.6-0.9-1.2-1.8-1.6-2.8
	c0-0.1-0.1-0.2-0.1-0.3c-0.1-0.4-0.3-0.7-0.4-1.1c0-0.1-0.1-0.2-0.1-0.3C17,63.7,17,63.3,16.9,63l-0.1-0.4c0-0.3-0.1-0.7-0.1-1
	l0-0.3c0-0.3,0-0.7,0-1v-0.2c0-0.6,0-1.1,0.1-1.7c0,0,0,0,0,0c-0.1-0.1-0.2-0.2-0.3-0.3c-0.1-0.1-0.2-0.2-0.3-0.3
	c-0.1-0.1-0.2-0.2-0.3-0.3c0,0-0.1-0.2-0.2-0.2c-0.1-0.2-0.3-0.4-0.4-0.6c0-0.1-0.1-0.1-0.1-0.2c-0.8-1.3-1.4-2.7-1.9-4.3v0
	c-0.1-0.2-0.1-0.4-0.2-0.7c0,0-0.1-0.5-0.1-0.6l-0.1-0.3l4.9-1.2l-4.9,1l0-0.2c-0.1-0.7-0.2-1.3-0.3-1.8c-2.3-3.1-2.7-6.1-2.7-8.2
	v-0.3l0-0.3l0-0.4c0,0,0.1-0.7,0.1-0.7c0,0,0.1-0.4,0.1-0.5c0,0,0.1-0.4,0.1-0.4c0-0.1,0.1-0.4,0.1-0.4l0-0.1
	c0.4-1.2,1.2-2.2,2.3-2.8c0.4-0.2,0.8-0.4,1.3-0.6c0.1-0.1,0.3-0.1,0.5-0.2c0.3-0.1,0.6-0.2,0.9-0.2c0.1,0,0.3-0.1,0.5-0.1
	c0.2,0,0.5-0.1,0.8-0.1c0.2,0,0.4,0,0.5-0.1c0.3,0,0.5,0,0.8,0c0.1,0,0.2,0,0.3,0h0.2c0.3,0,0.6,0,0.9,0l0.4,0c0.3,0,0.6,0,0.8,0.1
	l0.4,0c0.2,0,0.5,0.1,0.7,0.1c0.1,0,0.2,0,0.4,0.1c0.3,0,0.6,0.1,0.9,0.2c0,0,0,0,0,0l0,0c1.5,0.3,3.1,0.8,4.7,1.4
	c0.1,0.1,0.3,0.1,0.4,0.2c0.1,0,0.6-0.2,0.6-0.2c1.1-0.3,2.3-0.4,3.5-0.4s2.5,0.1,3.7,0.4c0.1,0,0.1,0,0.2,0c0,0,0.1,0,0.2,0.1
	c0.2,0,0.4,0.1,0.6,0.2l0.4,0.1l0.3,0.1c1.1,0.4,2,0.8,2.8,1.2c0.3-0.1,0.5-0.2,0.8-0.2c0,0,0.1,0,0.1,0c0.4-0.1,0.7-0.2,1.1-0.2
	c0,0,0.1,0,0.1,0c0.3-0.1,0.7-0.1,1-0.1c0,0,0.1,0,0.2,0c0.3,0,0.7,0,1,0c0,0,0.2,0,0.2,0c0.3,0,0.6,0,0.9,0c0,0,0.1,0,0.1,0
	c0.3,0,0.6,0.1,1,0.1c0,0,0.1,0,0.1,0c0.3,0,0.6,0.1,0.9,0.2c0,0,0.1,0,0.1,0c1.4,0.3,2.7,0.8,3.9,1.5c0.1,0,0.2-0.1,0.2-0.1
	c0.2-0.1,0.4-0.2,0.5-0.2c0.2-0.1,0.4-0.2,0.6-0.2c0.2-0.1,0.4-0.1,0.6-0.2c0.2,0,0.4-0.1,0.5-0.2c0.2-0.1,0.4-0.1,0.6-0.2
	c0.2,0,0.4-0.1,0.5-0.1c0.2,0,0.4-0.1,0.6-0.1c0.2,0,0.3,0,0.5,0c0.2,0,0.4,0,0.6,0c0.1,0,0.3,0,0.4,0c0.5,0,1,0.1,1.5,0.2
	c0.1,0,0.1,0,0.2,0c0.2,0,0.4,0.1,0.6,0.1c0,0,0.1,0,0.1,0c0.1,0,0.2,0.1,0.4,0.1c0.1,0,0.3,0.1,0.5,0.2c0.1,0,0.2,0.1,0.4,0.2
	c0.2,0.1,0.3,0.1,0.4,0.2c0.2,0.1,0.3,0.2,0.5,0.2c0.1,0,0.2,0.1,0.3,0.2c0.2,0.1,0.3,0.2,0.4,0.3c0,0,0.3,0.2,0.3,0.2
	c0.4-0.2,0.8-0.3,1.1-0.5l0.3-0.2c0.7-0.3,1.5-0.6,2.3-0.9c0.2-0.1,0.4-0.1,0.6-0.2c0.2-0.1,0.4-0.1,0.7-0.2
	c0.1-0.7,0.2-1.4,0.3-2.1l0-0.2c2.2-13.4,16.7-18.7,21.4-20.5c2.8-1,5.9-1.9,9-2.6c0.3-0.1,0.7-0.2,1.1-0.3c0.9-0.2,2-0.6,3.3-0.7
	c1.4-0.1,2.5-0.2,3.6-0.2c1.5,0,2.9,0.1,4.4,0.3c2.7,0.4,5.9,0.9,9.1,2.3c6.5,2.9,12.9,7,19.4,12.7c4.3,3.7,8.1,7.9,11.7,12.7
	c1.8,2.5,3.6,5,5.3,7.9c4.9,8,9.2,14.4,13.5,20c2.9,3.8,6.1,7.7,9.9,10.9c0.1,0.1,0.3,0.3,0.4,0.4c1.8,1.9,4.2,7.2,0.4,21.3
	c0.1,0.4,0.8,2.4,5.1,5.1c1.3,0.7,6.6,4,7.5,10.3c0.7,5.2-1.9,10.6-7.8,15.9c-1.7,1.5-3.6,2.9-5.6,4l0.2,0.1l-1.6,4.8l1.7-4.7
	c0,0,0.2,0.1,0.2,0.1c0.1,0,0.8,0.2,0.8,0.2l0.8,0.2l0.8,0.2l0.5,0.1l-1.4,4.8l1.5-4.8l0.2,0.1c3.5,1.1,6.2,2.6,7.9,4.4
	c0,0,0.1,0.1,0.1,0.1c0.4,0.4,0.7,0.8,1,1.2c0.1,0.1,0.1,0.2,0.2,0.2c0.7,1.1,1.2,2.2,1.3,3.5c0,0.2,0,0.4,0,0.5
	c0.1,1.9-0.4,4.6-3.3,7.4c-3.6,3.5-9,4.2-12.9,4.2l0,0L178.4,156.3z"/>
<path class="st1" d="M173.4,151.3c-2.2,0-4.4-0.2-6.4-0.7c-3-0.6-5.3-1.7-7.6-2.7c-0.5-0.2-1-0.5-1.6-0.7c-2.9-1.3-7.5-2.5-12.1-3.3
	c-3.6-0.6-7.5-0.9-11.6-0.9c-0.5,0-1,0-1.5,0c-1.2,0-2.4,0.1-3.8,0.2l-0.9,0.1c-1,0.1-2,0.2-2.9,0.3l-0.2,0c-0.1,0-0.2,0-0.3,0
	c-0.8,0.1-1.7,0.2-2.5,0.3c-0.9,0.1-1.9,0.3-2.8,0.4c-6.9,1.2-13.9,1.8-20.7,1.8c-1.1,0-2.2,0-3.2,0c-1.3,0-2.7-0.1-4.1-0.2
	c0,0-0.1,0-0.1,0c-1.3-0.1-2.5-0.2-3.7-0.3l-0.2,0c-1.3-0.1-2.4-0.3-3.5-0.4l-0.4-0.1c-1.1-0.2-2.2-0.3-3.3-0.5c-0.1,0-0.1,0-0.2,0
	c-0.6-0.1-1.2-0.2-1.8-0.3l-0.7-0.1c-0.4-0.1-1.3-0.3-1.3-0.3l-0.9-0.2c-1.2-0.3-2.4-0.6-3.5-0.9c-0.9-0.2-1.7-0.5-2.5-0.7
	c0,0-0.1,0-0.1,0c-0.4-0.1-0.9-0.3-1.3-0.4c0,0-0.1,0-0.1,0c-0.6-0.2-1.2-0.4-1.7-0.6l-1.3-0.4c-0.3-0.1-1.2-0.5-1.2-0.5
	c-0.4-0.1-1.2-0.5-1.2-0.5c-3.2-1.3-5.2-2.4-6-2.8c0,0-0.3-0.1-0.3-0.1c-1.2-0.7-2.3-1.3-3.4-2l-0.1-0.1c-0.9-0.6-1.8-1.1-2.6-1.6
	l-0.8-0.6c-0.4-0.2-0.7-0.5-1.1-0.7l-1.3-0.9c-3.5-2.5-6.7-5.1-9.5-7.8c0,0-0.1-0.1-0.1-0.1c-0.7-0.7-1.4-1.4-2-2
	c-8.8-9.3-13.9-20.2-14.8-31.7c-0.1-1.6-0.2-3.3-0.1-5V84c0-0.5,0-0.9,0.1-1.4c0,0,0-0.1,0-0.1c0-0.5,0.1-0.8,0.1-1.2l0-0.3
	c0-0.3,0.1-0.6,0.1-0.9l0-0.4c0-0.3,0.2-1.2,0.2-1.2l0.1-0.4c0.1-0.3,0.2-0.9,0.2-0.9c-0.3-0.2-0.5-0.4-0.8-0.6h0
	c-0.1-0.1-0.2-0.1-0.3-0.2c-0.3-0.3-0.6-0.5-0.9-0.8c-0.1-0.1-0.1-0.1-0.2-0.2c0,0-0.2-0.2-0.2-0.3c-0.1-0.1-0.2-0.2-0.3-0.3
	c-0.1-0.1-0.2-0.2-0.3-0.4c-0.1-0.1-0.1-0.2-0.2-0.3c-0.1-0.1-0.1-0.2-0.2-0.2c0,0-0.1-0.1-0.1-0.1c-0.2-0.3-0.4-0.7-0.6-1.1l0-0.1
	c-0.1-0.2-0.2-0.4-0.3-0.6c-0.1-0.1-0.1-0.3-0.2-0.4c0,0,0-0.1-0.1-0.1c0-0.1-0.1-0.2-0.1-0.4c-0.1-0.2-0.1-0.4-0.2-0.6l0.9-0.3
	c0,0,0-0.1,0-0.1l-1,0.3c-0.1-0.2-0.1-0.3-0.1-0.5c-0.1-0.6-0.3-1.2-0.3-1.8c0,0,0-0.2,0-0.3c0-0.2,0-0.3,0-0.5c0-0.1,0-0.4,0-0.6
	c0-0.2,0-0.4,0-0.5c0-0.2,0-0.4,0-0.7c0-0.1,0-0.3,0-0.3c0-0.2,0-0.3,0-0.5c-0.4-0.4-0.7-0.8-1-1.2c-0.6-0.9-1.2-1.8-1.6-2.8
	c-0.1-0.1-0.1-0.2-0.1-0.3c-0.1-0.4-0.3-0.7-0.4-1.1c0-0.1-0.1-0.2-0.1-0.3C12,58.7,12,58.3,11.9,58l-0.1-0.4
	c-0.1-0.3-0.1-0.7-0.1-1l0-0.3c0-0.3,0-0.7,0-1v-0.2c0-0.6,0.1-1.1,0.1-1.7c0,0,0,0,0,0c-0.1-0.1-0.2-0.2-0.3-0.3
	c-0.1-0.1-0.2-0.2-0.3-0.3c-0.1-0.1-0.2-0.2-0.3-0.3c0,0-0.1-0.2-0.2-0.2c-0.1-0.2-0.3-0.4-0.4-0.6c0-0.1-0.1-0.1-0.1-0.2
	C9.3,50,8.7,48.6,8.2,47v0c-0.1-0.2-0.1-0.4-0.2-0.7c0,0-0.1-0.5-0.2-0.6l-0.1-0.3l4.9-1.2l-4.9,1l0-0.2c-0.1-0.7-0.2-1.3-0.3-1.8
	c-2.3-3.1-2.7-6.1-2.7-8.2v-0.3l0-0.3l0-0.4c0,0,0.1-0.7,0.1-0.7c0,0,0.1-0.4,0.1-0.5c0,0,0.1-0.4,0.1-0.4c0-0.1,0.1-0.4,0.1-0.4
	l0-0.1c0.4-1.2,1.2-2.2,2.3-2.8C8,29,8.5,28.8,8.9,28.6c0.1-0.1,0.3-0.1,0.5-0.2c0.3-0.1,0.6-0.2,0.9-0.2c0.1,0,0.3-0.1,0.5-0.1
	c0.2,0,0.5-0.1,0.8-0.1c0.2,0,0.4,0,0.5-0.1c0.3,0,0.5,0,0.8,0c0.1,0,0.2,0,0.3,0h0.2c0.3,0,0.6,0,0.9,0l0.4,0c0.3,0,0.6,0,0.8,0.1
	l0.4,0c0.2,0,0.5,0.1,0.7,0.1c0.1,0,0.2,0,0.4,0.1c0.3,0,0.6,0.1,0.9,0.2c0,0,0,0,0,0l0,0c1.5,0.3,3.1,0.8,4.7,1.4
	c0.1,0.1,0.3,0.1,0.4,0.2c0.1,0,0.6-0.1,0.6-0.1c1.1-0.3,2.3-0.4,3.5-0.4s2.5,0.1,3.7,0.4c0.1,0,0.1,0,0.2,0c0,0,0.1,0,0.2,0.1
	c0.2,0,0.4,0.1,0.6,0.2l0.4,0.1l0.3,0.1c1.1,0.4,2,0.8,2.8,1.2c0.3-0.1,0.5-0.2,0.8-0.2c0,0,0.1,0,0.1,0c0.4-0.1,0.7-0.2,1.1-0.2
	c0,0,0.1,0,0.1,0c0.3-0.1,0.7-0.1,1-0.1c0,0,0.1,0,0.2,0c0.3,0,0.7,0,1,0c0,0,0.2,0,0.2,0c0.3,0,0.6,0,0.9,0c0,0,0.1,0,0.1,0
	c0.3,0,0.6,0.1,1,0.1c0,0,0.1,0,0.1,0c0.3,0,0.6,0.1,0.9,0.2c0,0,0.1,0,0.1,0c1.4,0.3,2.7,0.8,3.9,1.5c0.1,0,0.2-0.1,0.2-0.1
	c0.2-0.1,0.4-0.2,0.5-0.2c0.2-0.1,0.4-0.2,0.6-0.2c0.2-0.1,0.4-0.1,0.6-0.2c0.2,0,0.4-0.1,0.5-0.1c0.2-0.1,0.4-0.1,0.6-0.1
	c0.2,0,0.4-0.1,0.5-0.1c0.2,0,0.4-0.1,0.6-0.1c0.2,0,0.3,0,0.5,0c0.2,0,0.4,0,0.6,0c0.1,0,0.3,0,0.4,0c0.5,0,1,0.1,1.5,0.1
	c0.1,0,0.1,0,0.2,0c0.2,0,0.4,0.1,0.6,0.1c0,0,0.1,0,0.1,0c0.1,0,0.2,0.1,0.4,0.1c0.1,0,0.3,0.1,0.5,0.2c0.1,0,0.2,0.1,0.4,0.1
	c0.2,0.1,0.3,0.1,0.4,0.2c0.2,0.1,0.3,0.2,0.5,0.2c0.1,0,0.2,0.1,0.3,0.2c0.2,0.1,0.3,0.2,0.4,0.3c0,0,0.3,0.2,0.3,0.2
	c0.4-0.2,0.8-0.3,1.1-0.5l0.3-0.2c0.7-0.3,1.5-0.6,2.3-0.9c0.2-0.1,0.4-0.1,0.6-0.2c0.2-0.1,0.4-0.1,0.7-0.2
	c0.1-0.7,0.2-1.4,0.3-2.1l0-0.2c2.2-13.4,16.7-18.7,21.4-20.5c2.8-1,5.9-1.9,9-2.6c0.3-0.1,0.7-0.2,1.1-0.3c0.9-0.2,2-0.6,3.3-0.7
	c1.4-0.1,2.5-0.2,3.6-0.2c1.5,0,2.9,0.1,4.4,0.3c2.7,0.4,5.9,0.9,9.1,2.3c6.5,2.9,12.9,7,19.4,12.7c4.3,3.7,8.1,7.9,11.7,12.7
	c1.8,2.5,3.6,5,5.3,7.9c4.9,8,9.2,14.3,13.5,20c2.9,3.8,6.1,7.7,9.9,10.9c0.1,0.1,0.3,0.3,0.4,0.4c1.8,1.9,4.2,7.2,0.4,21.3
	c0.1,0.4,0.8,2.4,5.1,5.1c1.3,0.7,6.6,4,7.5,10.3c0.7,5.2-1.9,10.6-7.8,15.9c-1.7,1.5-3.6,2.8-5.6,4l0.2,0.1l-1.6,4.8l1.7-4.7
	c0,0,0.2,0.1,0.2,0.1c0.1,0,0.8,0.2,0.8,0.2l0.8,0.2l0.8,0.2l0.5,0.1l-1.4,4.8l1.5-4.8l0.2,0.1c3.5,1.1,6.2,2.6,7.9,4.4
	c0,0,0.1,0.1,0.1,0.1c0.4,0.4,0.7,0.8,1,1.2c0.1,0.1,0.1,0.2,0.2,0.2c0.7,1.1,1.2,2.2,1.3,3.5c0,0.2,0,0.4,0,0.5
	c0.1,1.9-0.4,4.6-3.3,7.4c-3.6,3.5-9,4.2-12.9,4.2l0,0L173.4,151.3z"/>
<g>
	<path class="st2" d="M68.2,36c-0.2-0.5-0.3-1.2-0.3-2c0.2-3,2.1-6.4,3.6-8.9c2.3-3.7,5.9-7.4,10.1-8.6c4.6-1.4,9.3-2.4,13.8-3.8
		c5.3-1.7,10.9-2.1,15.9-0.3c3,1.1,6.6,2.6,9.1,4.6c2.1,1.7,4.4,4.8,7.2,5.3c-0.2,0.2,5.4,4.8,6.4,6.3c1.6,2.3,3,4.4,4.9,6.4
		c2.1,2.3,4.6,4.3,6,7.3c1.6,3.4,2.9,6.9,5,10.1c2.9,4.5,5.3,9,8.5,13.3c3.5,4.8,7.3,9.4,10.7,14.3c3,4.3-1.4,8.9-0.1,14.2
		c0.5,1.8,1.7,4,2.7,5.7c1.6,2.7,5,3.7,6.5,6.3c4,7.2-7.4,15.8-12.4,18.6c-3.2,1.8-8.8,3.4-11.2,5.9c-9-4.9-15.1-14.2-21.6-21.7
		c-6.1-7.1-10.8-15.3-14.9-23.6c-3.6-7.3-7.9-14.1-11.7-21.3c-5.2-10-15.2-20.7-26.3-23.9c-2.3-0.7-4.7-1.1-7-1.7
		C71.1,38,69,37.7,68.2,36L68.2,36z"/>
	<path class="st3" d="M71.6,37c2.8-9.1,11.3-13.6,20.3-14.5c13.2-1.4,24.9,7.2,33.7,16.1c9.4,9.4,19.1,21,25.4,32.7
		c6.5,12.1,13.5,25.1,9.1,39.3c-1.4,4.7-4.6,9.6-7.6,13.5c-4.1,5.3-5.4,9.3-12.3,5.8c-4.9-2.6-8.5-6.5-12.2-10.6
		c-4.9-5.3-9.8-10.4-14-16.3c-4.8-6.6-9.3-13.4-14.4-19.8c-4.7-5.9-9.6-11.2-13.5-17.8c-3.8-6.4-7.8-12.1-10.1-19.2
		c-0.6-1.7-1-3.4-1.8-5C73.8,40.3,72.3,37.3,71.6,37L71.6,37z"/>
	<path class="st4" d="M75.3,37c0-0.5,0.3-1,1-1.7c1.5-1.4,3.8-2.6,5.7-3.2c3-1,6.9-2.2,10-1.6c7.8,1.5,14.5,5.8,20.4,11
		c8.5,7.5,13.3,18.2,18.6,28c2.9,5.4,6.7,10,10.4,14.9c3.1,4.2,8.1,8,10.3,12.6c4.3,8.7,1.5,19.1-3.9,26.5c-7.5-2.3-13.3-8-18-14.1
		c-12.5-16.1-20.8-34.8-32-51.7c-4.6-7-10.4-13.7-17.8-17.8C78.4,38.9,75.3,38.5,75.3,37L75.3,37z"/>
	<g>
		<path class="st5" d="M100.4,43.7c-0.6-1.9-0.7-4.2-1-5.2c-0.5-2-0.2-3.9-0.3-6c-0.1-3.7-0.7-8.2,1-11.6c1-2.2,4.9-6.5,5.8-1.8
			c0.3,1.6-0.9,4.1-1.3,5.7c-0.6,2.4-0.6,4.7-0.7,7.2c-0.2,3.3-0.4,6.5-0.4,9.7c0,1,1.1,4.7-0.6,4.7
			C101.6,46.3,100.9,45.2,100.4,43.7L100.4,43.7z"/>
		<path class="st5" d="M107.4,51.7c-0.2-4,3.1-9.1,5-12.5c2-3.6,4.2-8.2,7.1-11.3c1.4-1.5,5.9-2.4,7.1,0.2c1,2.1-5,8.4-6.2,10.1
			c-2.1,2.9-4.1,5.8-6.1,8.7c-0.8,1.2-1.7,2.4-2.5,3.6c-0.4,0.7-0.9,2.7-1.6,3.1C109.1,54.2,107.4,52.7,107.4,51.7L107.4,51.7z"/>
		<path class="st5" d="M115.5,61.9c1.1-1.4,3.2-2,4.7-3c2.3-1.4,4.4-2.9,6.8-4.2c5.1-2.8,9.9-3.9,15.8-4.1c1.5,0,3-0.3,3.7,1.1
			c0.8,1.5-0.4,3.6-1.6,4.5c-1.7,1.1-4.3,1.1-6.2,1.5c-3.4,0.9-7.1,1.3-10.4,2.4C127.2,60.6,114.8,66.7,115.5,61.9z"/>
		<path class="st5" d="M129.9,84.6c3.3,3.7,8.6,3.8,13.2,3.5c4.5-0.2,8.7,0.4,13-1.2c2.9-1.1,7.9-4.2,4.4-7.5
			c-3.1-2.9-4.5-0.1-7.1,1c-2.9,1.3-6,1.9-9.1,2.2c-3.2,0.4-6.5,0-9.6-0.2c-1.5-0.1-5-0.8-5.6,0.8C129.3,83.7,129.6,84.2,129.9,84.6
			L129.9,84.6z"/>
	</g>
	<path class="st6" d="M87.8,38.2c14.4,1.2,25.3,16,31.6,27.2c5.6,9.8,14.2,17.5,19.9,27.3c2.8,4.9,7,18.9-3.6,17.2
		c-4.5-0.7-8.1-5-11.2-8c-8.3-7.9-13.9-17-21.2-25.7c-5-5.9-9-12-11.9-19.1C89.7,53,83.9,42.3,87.8,38.2
		C88.3,38.7,88.3,38.3,87.8,38.2z"/>
	<path class="st7" d="M142.5,35.9c1.8,2.4,3.5,4.9,5.1,7.5c4.3,7,8.8,13.9,13.8,20.4c3.2,4.2,6.6,8.3,10.6,11.7
		c0,0,2.9,3.1-0.8,16.9c0,0-1.8,4.8,7.6,10.5c0,0,12.1,6.1-1.2,18.1c-2.9,2.6-6.5,4.6-10.1,5.8c-3.3,1.1-6.8,1.9-10.2,2.4
		c0,0-0.1-0.1-0.4-0.4c3-2.2,5.9-4.5,8.8-6.9c3.5-3,8.4-6.7,9.9-11.2c1.3-3.7-1.2-5.8-3.5-8.6c-3.3-3.9-5.4-6.7-4.8-12.1
		c0.3-2.9,2.2-6.3,1-9.1c-1-2.2-4.1-3.8-5.9-5.5c-8.3-7.7-12.1-20.3-17.4-30.2C137.7,32,124.3,20,110.2,14.2c-9-3.8-19.7,0.8-28,4.4
		c-3.4,1.5-7.4,2.3-9.4,5.8c-1.9,3.3-1.8,7.3-3.6,10.7c-0.2,0-0.5-0.1-0.7-0.1c-1.1-0.1-0.1-4.6,0-5.3C70,20.8,79,16,86.7,13.2
		c2.7-1,5.5-1.8,8.3-2.4c1.2-0.3,2.5-0.7,3.7-0.8c2.4-0.2,4.5-0.2,6.9,0.1c2.7,0.4,5.3,0.8,7.8,1.9c6.6,2.9,12.7,7.2,18.1,11.9
		C135.7,27.5,139.3,31.5,142.5,35.9L142.5,35.9z"/>
	
		<linearGradient id="SVGID_1_" gradientUnits="userSpaceOnUse" x1="-1593.9513" y1="3493.3298" x2="-1494.9313" y2="3523.9099" gradientTransform="matrix(0.5438 -0.8392 -0.8392 -0.5438 3880.1445 704.2815)">
		<stop  offset="0.27" style="stop-color:#F9BF78"/>
		<stop  offset="0.53" style="stop-color:#F9CD90"/>
		<stop  offset="0.94" style="stop-color:#F9D3A0"/>
	</linearGradient>
	<path class="st8" d="M97.3,43.2c7.6,6.1,11.8,13.2,11.8,13.2c13.1,15.5,26.6,43.2,26.6,43.2c1,2.2,2.2,4.3,3.4,6.3
		c13,21,35.4,27.9,35.4,27.9c1.6,0.4,4.1,1,6.2,2.1c1.4,0.7,2.6,1.6,3.3,2.6h0c0.3,0.4,0.4,0.9,0.5,1.3l0,0c0.1,1.1-0.3,2.3-1.7,3.6
		c-3.4,3.3-10.5,3.2-14.8,2.3c-3-0.6-5.4-1.9-8.2-3.1c-3.9-1.7-9.1-3-13.3-3.7c-4.6-0.8-9.3-1-14-0.9c-2.9,0.1-5.7,0.2-8.5,0.6
		c0,0,0,0,0,0c-1.9,0.2-3.7,0.5-5.6,0.8c-8.4,1.4-16.1,1.9-22.9,1.7c-0.9,0-1.8-0.1-2.6-0.1c-21.9-1.2-34.2-8.8-34.2-8.8
		c-8.6-4.7-15-9.8-19.9-14.9C29,107,25.8,96.6,25.2,88.6c-0.7-8.5,1.5-14.2,1.5-14.2c-0.1,0-0.2-0.1-0.3-0.1
		c-0.4-0.2-0.8-0.3-1.2-0.5c-6.7-3-4.6-9.9-4.4-10.8c0-0.1,0-0.1,0-0.1c-0.2-0.2-0.4-0.3-0.6-0.5c-5.7-4.6-2.7-11.2-2.7-11.2
		c0,0-0.1,0-0.1-0.1c-0.9-0.4-1.7-1-2.3-1.7c-2.1-2.5-2.5-6.4-2.6-7.7c0-0.3,0-0.4,0-0.4c-3.6-4.1-2.3-7.8-2.3-7.8
		c3.8-2.1,10.6,0.7,12.5,1.5c0.3,0.1,0.5,0.2,0.5,0.2c2.5-1.1,4.9-1.1,6.9-0.6c2.2,0.5,3.9,1.6,4.7,2.1c0.3,0.2,0.5,0.3,0.5,0.3
		c4.5-2.5,8-1.1,9.9,0.1c1.1,0.7,1.7,1.4,1.7,1.4l0.2-0.2c4.8-3.7,7.9-1.9,9.4-0.5c0.6,0.6,0.9,1.2,0.9,1.2c0.1,0,0.1-0.1,0.2-0.1
		C61.3,37,65,35.7,68.5,35c5.7-1.1,10.8-0.6,15.4,0.8C89.2,37.5,93.7,40.2,97.3,43.2L97.3,43.2z"/>
	<path class="st9" d="M174.5,133.8c2.6,0.6,7.8,2.1,9.5,4.7h0c0.3,0.4,0.4,0.9,0.5,1.3l0,0c0.1,1.1-0.3,2.3-1.7,3.6
		c-3.4,3.3-10.5,3.2-14.8,2.3c-3-0.6-5.4-1.9-8.2-3.1c-3.9-1.7-9.1-3-13.3-3.7c-4.6-0.8-9.3-1-14-0.9c-4.8,0.1-9.5,0.6-14.2,1.4
		c-8.4,1.4-16.1,1.9-22.9,1.7c-0.9,0-1.8-0.1-2.6-0.1c3.1-0.7,6.3-1.7,7.4-1.9c4.5-1.1,9.2-1.3,13.6-2.4c7.6-1.9,14.7-8.9,18-15.9
		c1-2,1.7-4,2.1-6.2c0.4-2.2-0.2-5.6,0.9-7.5c1-1.8,2.6-1.8,4.3-1.1C152.1,126.9,174.5,133.8,174.5,133.8L174.5,133.8z"/>
	<path class="st10" d="M22.5,35c-2.9,3.9-7.1,5.8-10.1,6.7c0-0.3,0-0.4,0-0.4c-0.4-0.5-0.8-0.9-1.1-1.4c-2.3-3.5-1.2-6.4-1.2-6.4
		c3.1-1.7,8.2-0.2,10.9,0.9C21.6,34.7,22.2,34.9,22.5,35L22.5,35z"/>
	<path class="st2" d="M68.5,35c0.9,16.6-11.9,35.4-11.9,35.4C40.7,88,29.6,89.1,25.2,88.6c-0.3-3.8,0-7.1,0.3-9.5
		c0.5-3,1.1-4.7,1.1-4.7c-0.1,0-0.2-0.1-0.3-0.1c-0.4-0.2-0.8-0.3-1.2-0.5C44.7,62.7,53.5,44.7,56.2,38c0.1,0.1,0.2,0.2,0.2,0.2
		c0.1,0.1,0.2,0.2,0.3,0.4c0.3,0.3,0.4,0.6,0.4,0.6c0.1,0,0.1-0.1,0.2-0.1c0.5-0.3,1.1-0.6,1.6-0.8C62.3,36.7,65.4,35.6,68.5,35
		L68.5,35z"/>
	<path class="st11" d="M55.7,37.6c1,0.8,1.5,1.6,1.5,1.6c0.1,0,0.1-0.1,0.2-0.1C53,53.4,44.4,62.5,37.1,68
		c-4.4,3.3-8.4,5.3-10.8,6.3c-0.4-0.2-0.8-0.3-1.2-0.5c-0.2-0.1-0.5-0.2-0.7-0.3c-0.2-0.1-0.4-0.2-0.6-0.4c-0.3-0.2-0.5-0.4-0.8-0.6
		c-0.1-0.1-0.1-0.1-0.2-0.2c-0.2-0.2-0.4-0.3-0.5-0.5c-0.3-0.3-0.5-0.6-0.7-0.9c-0.1-0.2-0.3-0.4-0.4-0.6c0-0.1-0.1-0.2-0.1-0.2
		c-0.1-0.2-0.2-0.3-0.2-0.5c-0.2-0.6-0.4-1.1-0.4-1.7l-0.1-0.6c-0.1-0.6,0-1.1,0-1.6c0-0.2,0-0.4,0.1-0.7c0-0.5,0.1-1,0.2-1.3
		c0-0.1,0.1-0.2,0.1-0.3c0-0.2,0.1-0.3,0.1-0.4c0-0.1,0-0.1,0-0.1c-0.2-0.2-0.4-0.3-0.6-0.5c2.7-1.8,5.1-3.6,7.3-5.3
		c9.8-7.8,14.9-15,17.5-19.9c1.1,0.7,1.7,1.4,1.7,1.4l0.2-0.2C51.2,35.2,54.1,36.3,55.7,37.6L55.7,37.6z"/>
	<path class="st12" d="M45.3,37.5c0.9,0.6,1.3,1.2,1.3,1.2l0.2-0.2C41.3,53.2,27.6,60.3,20.8,63c0-0.1,0-0.1,0-0.1
		c-1-0.7-1.8-1.5-2.4-2.3c-3.1-4.3-0.9-9.3-0.9-9.3c0,0-0.1,0-0.1-0.1c-0.9-0.4-1.7-1-2.3-1.7c3.2-3.4,6.6-7.4,7-8
		c0.4-0.6,4.4-4,7.9-6.9c2.2,0.5,3.9,1.6,4.7,2.1c0.3,0.2,0.5,0.3,0.5,0.3C39.8,34.5,43.5,36.2,45.3,37.5L45.3,37.5z"/>
	<g>
		
			<linearGradient id="SVGID_00000016794855370369225390000007833973727255920799_" gradientUnits="userSpaceOnUse" x1="-1596.7119" y1="3511.3682" x2="-1503.132" y2="3534.1382" gradientTransform="matrix(0.5438 -0.8392 -0.8392 -0.5438 3880.1445 704.2815)">
			<stop  offset="0" style="stop-color:#D9705E"/>
			<stop  offset="0.52" style="stop-color:#F4925D"/>
			<stop  offset="1" style="stop-color:#F4925D"/>
		</linearGradient>
		<path style="fill:url(#SVGID_00000016794855370369225390000007833973727255920799_);" d="M97.3,43.2c1.5,3.8,2.4,8,2.8,10.8
			c2.4,14.6,0.4,30.9-3.7,44.9c-4.6,15.6-11.8,27.6-1,42.2c-5.5-0.2-10.4-0.7-14.7-1.5c-2.8-0.5-5.4-1.1-7.8-1.7
			c-9.4-2.6-14.4-5.6-14.4-5.6c-1.2-0.7-2.4-1.4-3.5-2c-1.5-0.9-2.9-1.8-4.2-2.7c-4.9-3.3-8.9-6.7-12.1-10.2
			c3.9-7.5,9.4-14.9,14.8-21.1c9.6-10.9,19-20.1,26.3-32.7c2.9-5,4.7-9,5.7-14.7c0.6-3.2-1.6-10-1.5-12.9
			C89.2,37.4,93.7,40.2,97.3,43.2L97.3,43.2z"/>
	</g>
	<path class="st14" d="M93.1,82.2c-0.8,6.5-4.3,13.2-7.1,19c-4.7,9.7-6,20.6-5.9,31.4c0,2,0.5,4.5,0.7,7c-2.8-0.5-5.4-1.1-7.8-1.7
		c-9.4-2.6-14.4-5.6-14.4-5.6c-1.2-0.7-2.4-1.4-3.5-2c-1.5-0.9-2.9-1.8-4.2-2.7c-0.1-5,7.5-14.7,9.3-17.6
		c5.9-9.3,13.2-17.3,19.6-26.3c1.8-2.5,3.1-5.2,4.5-7.9c1.2-2.4,3.5-8.8,6.4-4.1C92.4,74.4,93.5,78.7,93.1,82.2L93.1,82.2z"/>
	<path class="st15" d="M34.6,36.8c-6.7,10.2-13.5,13.4-17.3,14.5c-1.1-0.4-1.9-1.2-2.6-2c-1.9-2.5-2.3-6.2-2.4-7.4
		c3.1-0.9,7.3-2.8,10.1-6.7c0.3,0.1,0.5,0.2,0.5,0.2c4-1.8,7.6-0.6,9.8,0.5C33.6,36.1,34.2,36.5,34.6,36.8L34.6,36.8z"/>
	<path class="st16" d="M58.9,38.3c0,0,1.1,8.1-11.9,26c0,0-8.2,10.9-21.5,14.9c0.5-3,1.1-4.7,1.1-4.7c-0.1,0-0.2-0.1-0.3-0.1
		c6.3-2.8,24.1-12.3,31-35.2C57.9,38.8,58.4,38.6,58.9,38.3L58.9,38.3z"/>
	<path class="st14" d="M57.2,39.2c0.1,0,0.1-0.1,0.2-0.1c-6.9,22.9-24.7,32.4-31,35.2c-2.3-0.8-3.7-1.9-4.6-3.2
		c4-0.9,24.2-6.9,34-33.6C56.7,38.3,57.2,39.2,57.2,39.2z"/>
	<path class="st14" d="M46.6,38.7l0.2-0.2C41.3,53.2,27.6,60.3,20.8,63c0-0.1,0-0.1,0-0.1c-1-0.7-1.8-1.5-2.4-2.3
		c3.6-1.1,16.9-6.1,27-23.1C46.2,38.1,46.6,38.7,46.6,38.7L46.6,38.7z"/>
	<path class="st4" d="M34.6,36.8c-6.7,10.2-13.5,13.4-17.3,14.5c-1.1-0.4-1.9-1.2-2.6-2c2.4-0.6,11.9-3.4,18-13.5
		C33.6,36.1,34.2,36.5,34.6,36.8z"/>
	<path class="st4" d="M22.5,35c-2.9,3.9-7.1,5.8-10.1,6.7c0-0.3,0-0.4,0-0.4c-0.4-0.5-0.8-0.9-1.1-1.4c1.9-0.6,5.5-2.1,9.7-5.5
		C21.6,34.7,22.2,34.9,22.5,35L22.5,35z"/>
	<path class="st17" d="M97.3,43.2c7.6,6.1,11.8,13.2,11.8,13.2c13.1,15.5,26.6,43.2,26.6,43.2c11.9,25.9,38.8,34.2,38.8,34.2
		c2.6,0.6,7.8,2.1,9.5,4.7c-1.9-1.1-4.6-2-4.6-2c-7.1-0.9-15.4-4.8-15.4-4.8c-8.4-3.3-21.8-15.2-21.8-15.2
		c-6.1-5-12.8-17.9-12.8-17.9c-5.7-10.9-19.6-30.5-19.6-30.5C99.3,52.8,85.4,46,85.4,46c-12.7-7.3-30.3-0.8-30.3-0.8
		c-4.1-4.3-10.5-1.9-10.5-1.9c-3.4-5.6-13-2.5-13-2.5c-4.6-5.2-11.1-3.5-11.1-3.5c-4.2-3.6-10.5-3.7-10.5-3.7
		c3.8-2.1,10.6,0.7,12.5,1.5c0.3,0.1,0.5,0.2,0.5,0.2c2.5-1.1,5-1.1,7-0.6c2.2,0.5,3.9,1.6,4.7,2.1c0.3,0.2,0.5,0.3,0.5,0.3
		c4.5-2.5,8-1.1,9.9,0.1c1.1,0.7,1.7,1.4,1.7,1.4l0.2-0.2c4.8-3.7,7.9-1.9,9.4-0.5c0.6,0.6,0.9,1.2,0.9,1.2c0.1,0,0.1-0.1,0.2-0.1
		C61.2,37,65,35.7,68.5,35c5.7-1.1,10.8-0.6,15.4,0.8C89.1,37.5,93.6,40.2,97.3,43.2L97.3,43.2z"/>
	<path class="st2" d="M82.5,96.3c-6.6,13.4-9.4,27-9.6,41.5c-9.4-2.6-14.4-5.6-14.4-5.6c-1.2-0.7-2.4-1.4-3.5-2
		c0.6-5.1,3.9-11.3,5.8-14.5c5.9-10,13.2-18.8,19.5-28.4c1.5-2.2,3.2-4.3,4.6-6.6c0.7-1.1,1.3-2.3,1.8-3.5c0.4-1,0.3-4,1.9-3
		c0.6,0.4,0.8,1.2,1,1.8c0.4,1.8-0.1,3.9-0.5,5.6c-1.2,4.3-3.2,8.4-5.3,12.4C83.3,94.8,82.9,95.6,82.5,96.3L82.5,96.3z"/>
	<path class="st18" d="M184.5,139.8c0.1,1.1-0.3,2.3-1.7,3.6c-3.4,3.3-10.5,3.2-14.8,2.3c-3-0.6-5.4-1.9-8.2-3.1
		c-3.9-1.7-9.1-3-13.3-3.7c-4.6-0.8-9.3-1-14-0.9c-4.8,0.1-9.5,0.6-14.2,1.4c-8.4,1.4-16.1,1.9-22.9,1.7
		c-23.6-0.7-36.8-8.9-36.8-8.9c-8.6-4.7-15-9.8-19.9-14.9C28.9,107,25.8,96.6,25.2,88.6c-0.7-8.5,1.5-14.2,1.5-14.2
		c-0.1,0-0.2-0.1-0.3-0.1c2.4-1,6.3-3,10.7-6.3c0.1,0.1-0.1,3.9-0.1,4.2c0.1,3.6,0.7,7.1,1.5,10.6c1.2,4.8,3.2,9.4,5.9,13.6
		c12.6,19.5,37,30,59,34.1c4.3,0.8,8.1,1.7,12.5,1.5c5.7-0.2,11.5-0.4,17.2-0.1c11.2,0.6,22.4,2.9,32.2,8.6
		C171.1,143.9,179.7,146,184.5,139.8L184.5,139.8z"/>
	<path class="st19" d="M16.2,40.3c0,0-0.7,5,6.8,8.4c0,0-0.5,5.3,4.5,8.5c0.7,0.4,1.5,0.8,2.4,1.2c0,0-1.1,6.5,7.2,9.6
		c-4.4,3.3-8.4,5.3-10.8,6.3c-0.4-0.2-0.8-0.3-1.2-0.5c-0.2-0.1-0.5-0.2-0.7-0.3c-0.2-0.1-0.4-0.2-0.6-0.4c-0.3-0.2-0.5-0.4-0.8-0.6
		c-0.1-0.1-0.1-0.1-0.2-0.2c-0.2-0.2-0.4-0.3-0.5-0.5c-0.3-0.3-0.5-0.6-0.7-0.9c-0.1-0.2-0.3-0.4-0.4-0.6c0-0.1-0.1-0.2-0.1-0.2
		c-0.1-0.2-0.2-0.3-0.2-0.5c-0.2-0.6-0.4-1.1-0.4-1.7l-0.1-0.6c-0.1-0.6,0-1.1,0-1.6c0-0.2,0-0.4,0.1-0.7c0-0.5,0.1-1,0.2-1.3
		c0-0.1,0.1-0.2,0.1-0.3c0-0.2,0.1-0.3,0.1-0.4c0-0.1,0-0.1,0-0.1c-0.2-0.2-0.4-0.3-0.6-0.5c-5.7-4.6-2.7-11.2-2.7-11.2
		c0,0-0.1,0-0.1-0.1c-0.9-0.4-1.7-1-2.3-1.7c-2.1-2.5-2.5-6.4-2.6-7.7c0-0.3,0-0.4,0-0.4c-3.6-4.1-2.3-7.8-2.3-7.8
		S12.1,39.1,16.2,40.3L16.2,40.3z"/>
	<path class="st20" d="M59.7,51.1c0-0.2-0.1-0.3-0.1-0.5c-0.1-2.3,1.9-4.7,3.1-6.5c2.6-3.7,6.5-7.3,11.3-7.3
		c4.6-0.1,7.2,1.1,11.3,2.8c1.5,0.6,8,3,5.5,5.5c-1.2,1.2-4.1-0.1-5.4-0.6c-2.9-0.9-5.8-1.6-8.9-0.7c-3.9,1.1-6.9,4.3-10.2,6.7
		C64.5,51.6,60.3,54,59.7,51.1L59.7,51.1z"/>
	<path class="st4" d="M184,138.5L184,138.5c0.3,0.4,0.5,0.9,0.5,1.3l0,0c0.1,1.1-0.3,2.3-1.7,3.6c-3.4,3.3-10.5,3.2-14.8,2.3
		c-3-0.6-5.4-1.9-8.2-3.1c-3.9-1.7-9.1-3-13.3-3.7c-4.6-0.8-9.3-1-14-0.9c-2.9,0.1-5.7,0.2-8.5,0.6c1.1-0.5,2.2-1.1,3.2-1.6
		c5.8-3.4,10.9-2,17.1-2.1c5.8-0.1,11.6,1.8,17,3.7c4.2,1.5,9.3,2.4,13.8,0.8c2.1-0.7,3.9-2.4,5.7-3.5
		C182.1,136.6,183.3,137.5,184,138.5L184,138.5z"/>
	<path class="st20" d="M44.5,46.6c-0.3-1,1.8-3.6,2.1-4.2c0.8-1.6,1.7-3.2,3.5-4c0.9-0.4,3.5,0,3.1,1.6c-0.2,0.8-1.3,0.7-1.9,1
		c-1,0.6-1.7,1.8-2.5,2.8c-0.8,1-1.9,2.9-3.3,3.1C44.9,47,44.6,46.9,44.5,46.6L44.5,46.6z"/>
	<path class="st20" d="M32.6,42.3c0.5-1.1,2.1-2.6,2.5-2.9c1-0.9,2.1-1.8,3.5-2.2c1.1-0.2,3.2,0.2,2.5,1.8c-0.7,1.4-3.4,1-4.5,1.8
		c-0.8,0.6-2.3,2.9-3.4,2.8C32.5,43.5,32.4,42.8,32.6,42.3z"/>
	<path class="st20" d="M22.2,39.1c0-0.1-0.1-0.2-0.1-0.4c0-0.6,1.2-1.8,1.7-2.2c0.9-0.7,2.2-1.3,3.4-1c1.2,0.3,1.2,1.4,0.3,2
		c-0.8,0.6-2.2,0.7-3.2,1.2C23.8,39,22.6,39.8,22.2,39.1L22.2,39.1z"/>
	<path class="st20" d="M14.5,35.1c0.9,0.2,2.7,0,1.9-1.2c-0.5-0.7-1.7-0.7-2.4-0.4C12.6,34.1,13.4,34.8,14.5,35.1z"/>
</g>
</svg>
