<?xml version="1.0" encoding="UTF-8"?><svg id="a" xmlns="http://www.w3.org/2000/svg" viewBox="0 0 233.45 128.47"><defs><style>.b,.c{fill:#fff;}.d,.e{fill:#bbbab9;}.f{opacity:.5;}.g{fill:#5a5f5f;}.c,.e,.h{isolation:isolate;}.c,.i{opacity:.4;}.j,.e,.h{opacity:.6;}.h{fill:#aaa9a8;}.k{fill:#898e90;}.l{fill:#a39fa2;}</style></defs><path class="f" d="M16.44,125.06c-4.43,0-8.03-3.45-8.03-7.68,0-1.72,.59-3.33,1.62-4.64v-10.41c0-17.29,7.93-27.39,14.59-32.83,10.68-8.71,23.55-10.21,30.27-10.33,.14,0,.26,0,.37,0,2.01-2.53,4.57-4.66,7.53-6.27,2.45-3.3,6.22-5.62,10.56-6.56v-13.82s-17.27,1.4-17.27,1.4c-2.59,1.6-5.67,2.46-8.84,2.46-8.6,0-15.6-6.27-15.6-13.98s7-13.98,15.6-13.98c4.33,0,8.41,1.6,11.33,4.37,0,0,14.72,1.55,14.75,1.55,.72,.09,1.41,.17,2.06,.24,2.41-2.03,5.59-3.18,9-3.18s6.61,1.16,9.02,3.21h.03c.7-.08,1.44-.16,2.23-.26,.03,0,14.75-1.55,14.75-1.55,2.92-2.77,7-4.37,11.33-4.37,8.6,0,15.6,6.27,15.6,13.98s-7,13.98-15.6,13.98c-3.17,0-6.25-.87-8.84-2.46l-17.21-1.39v13.72c4.8,.92,8.99,3.54,11.49,7.23,2.57,1.54,4.8,3.48,6.58,5.72h103.22c1.39-1.06,3.15-1.68,5.01-1.68,4.43,0,8.03,3.45,8.03,7.68v24.72c0,4.24-3.6,7.68-8.03,7.68-2.05,0-3.94-.73-5.37-1.96H115.61c-4.36,7.46-12.98,12.27-22.48,12.27h-17.22c-9.42,0-17.97-4.73-22.37-12.08-1.21,.24-1.98,.59-2.31,.86-.45,.37-1.29,2.01-1.29,5.64v9.48c1.55,1.41,2.49,3.39,2.49,5.57,0,4.24-3.6,7.68-8.03,7.68H16.44Z"/><path class="b" d="M11.44,120.06c-4.43,0-8.03-3.45-8.03-7.68,0-1.72,.59-3.33,1.62-4.64v-10.41c0-17.29,7.93-27.39,14.59-32.83,10.68-8.71,23.55-10.21,30.27-10.33,.14,0,.26,0,.37,0,2.01-2.53,4.57-4.66,7.53-6.27,2.45-3.3,6.22-5.62,10.56-6.56v-13.82s-17.27,1.4-17.27,1.4c-2.59,1.6-5.67,2.46-8.84,2.46-8.6,0-15.6-6.27-15.6-13.98s7-13.98,15.6-13.98c4.33,0,8.41,1.6,11.33,4.37,0,0,14.72,1.55,14.75,1.55,.72,.09,1.41,.17,2.06,.24,2.41-2.03,5.59-3.18,9-3.18s6.61,1.16,9.02,3.21h.03c.7-.08,1.44-.16,2.23-.26,.03,0,14.75-1.55,14.75-1.55,2.92-2.77,7-4.37,11.33-4.37,8.6,0,15.6,6.27,15.6,13.98s-7,13.98-15.6,13.98c-3.17,0-6.25-.87-8.84-2.46l-17.21-1.39v13.72c4.8,.92,8.99,3.54,11.49,7.23,2.57,1.54,4.8,3.48,6.58,5.72h103.22c1.39-1.06,3.15-1.68,5.01-1.68,4.43,0,8.03,3.45,8.03,7.68v24.72c0,4.24-3.6,7.68-8.03,7.68-2.05,0-3.94-.73-5.37-1.96H110.61c-4.36,7.46-12.98,12.27-22.48,12.27h-17.22c-9.42,0-17.97-4.73-22.37-12.08-1.21,.24-1.98,.59-2.31,.86-.45,.37-1.29,2.01-1.29,5.64v9.48c1.55,1.41,2.49,3.39,2.49,5.57,0,4.24-3.6,7.68-8.03,7.68H11.44Z"/><g><g><rect class="k" x="73.36" y="19.43" width="12.35" height="36.8"/><rect class="g" x="73.36" y="19.43" width="5.67" height="36.8"/><path class="d" d="M73.36,24.37v-4.94h12.35v4.84c-3.07,2.75-9.22,3.02-12.35,.1Z"/><rect class="d" x="73.36" y="44.73" width="12.35" height="11.5"/><g><path class="g" d="M82.5,18.16c0,3.42,2.29,3.61,8.57,4.38l22.31,1.8c4.8,0,8.68-2.77,8.68-6.18h0c0-3.42-3.89-6.19-8.68-6.19l-22.07,2.32c-5.43,.69-8.8,.45-8.8,3.87h0Z"/><path class="d" d="M106.42,12.7l6.95-.73c4.8,0,8.68,2.77,8.68,6.19s-3.89,6.18-8.68,6.18l-5.82-.47c-3.03-2.96-3.65-7.85-1.13-11.17Z"/><path class="d" d="M87.64,14.7c1.21,2.37,1.46,5.08,.2,7.42-3.86-.56-5.35-1.21-5.35-3.97,0-2.57,1.9-3.07,5.15-3.46Z"/><path class="g" d="M106.15,17.4c0,4.96,4.75,8.98,10.6,8.98s10.6-4.02,10.6-8.98-4.74-8.98-10.6-8.98c-5.85,0-10.6,4.02-10.6,8.98Z"/><g class="i"><path class="b" d="M116.01,10.06c-2.33-.02-4.61,.74-6.45,2.17,1.93-1.84,4.51-2.85,7.17-2.81,5.2,0,9.42,3.58,9.42,7.99-.05,2.29-1.14,4.43-2.97,5.81,1.41-1.35,2.22-3.22,2.25-5.17,0-4.41-4.22-7.98-9.42-7.98Z"/></g></g><g><path class="g" d="M76.5,18.16c0,3.42-2.29,3.61-8.57,4.38l-22.31,1.8c-4.8,0-8.68-2.77-8.68-6.18h0c0-3.42,3.89-6.19,8.68-6.19l22.07,2.32c5.43,.69,8.8,.45,8.8,3.87Z"/><path class="d" d="M52.58,12.7l-6.95-.73c-4.8,0-8.68,2.77-8.68,6.19s3.89,6.18,8.68,6.18l5.82-.47c3.03-2.96,3.65-7.85,1.13-11.17Z"/><path class="d" d="M71.35,14.7c-1.21,2.37-1.46,5.08-.2,7.42,3.86-.56,5.35-1.21,5.35-3.97,0-2.57-1.9-3.07-5.15-3.46Z"/><path class="g" d="M52.84,17.4c0,4.96-4.74,8.98-10.6,8.98s-10.6-4.02-10.6-8.98,4.74-8.98,10.6-8.98c5.85,0,10.6,4.02,10.6,8.98Z"/></g><path class="g" d="M71.15,18.35c0,3.85,3.68,6.97,8.23,6.97s8.23-3.12,8.23-6.97-3.68-6.97-8.23-6.97-8.23,3.12-8.23,6.97Z"/><g class="i"><path class="b" d="M78.88,12.7c-1.83-.02-3.61,.58-5.06,1.71,1.51-1.45,3.53-2.24,5.63-2.21,4.08,0,7.39,2.81,7.39,6.27-.04,1.8-.9,3.48-2.33,4.56,1.11-1.06,1.75-2.52,1.76-4.06,0-3.46-3.31-6.27-7.39-6.27Z"/></g><g class="i"><path class="b" d="M41.71,10.06c-2.33-.02-4.61,.74-6.45,2.17,1.93-1.84,4.5-2.85,7.17-2.81,5.2,0,9.42,3.58,9.42,7.99-.05,2.29-1.14,4.43-2.97,5.81,1.41-1.35,2.23-3.22,2.25-5.17,0-4.41-4.22-7.98-9.42-7.98Z"/></g></g><path class="l" d="M59.97,56.23c0,5.72,5.72,10.35,12.77,10.35h14.09c7.06,0,12.78-4.63,12.78-10.35h0c0-5.71-5.72-10.35-12.78-10.35h-14.09c-7.06,0-12.77,4.63-12.77,10.35h0Z"/><g><path class="d" d="M39.93,97.34v13.41H10.04v-13.41c0-15.33,6.93-24.21,12.75-28.95,11.27-9.2,25.62-9.33,29.45-9.18H217.28v26.45H51.84l-1.2-.04s-4.85,0-7.58,2.22c-2.59,2.11-3.13,6.34-3.13,9.51Z"/><path class="g" d="M39.93,97.34v13.41H10.04v-13.41c0-15.33,6.93-24.21,12.75-28.95,11.27-9.2,25.62-9.33,29.45-9.18H217.28v26.45H51.84l-1.2-.04s-4.85,0-7.58,2.22c-2.59,2.11-3.13,6.34-3.13,9.51Z"/><g class="j"><path class="d" d="M80.22,79.32l137.06-.8v7.13H51.84l-1.2-.04s-4.85,0-7.58,2.22c-2.59,2.11-3.13,6.34-3.13,9.51v13.41h-7.26l.33-18.4c.22-19.55,47.22-13.03,47.22-13.03Z"/></g><rect class="e" x="10.04" y="108.07" width="29.89" height="2.68"/><rect class="e" x="212.51" y="59.2" width="4.76" height="26.45"/><path class="h" d="M52.24,59.2h57.61v26.45H51.84l-1.2-.04c-.54,0-1.08,.03-1.61,.1v-26.5c1.38-.05,2.49-.04,3.21,0Z"/><path class="g" d="M70.91,49.62h17.22c11.3,0,20.47,8.11,20.47,18.11v12.07c0,10-9.17,18.11-20.47,18.11h-17.22c-11.3,0-20.47-8.11-20.47-18.11v-12.07c0-10,9.17-18.11,20.47-18.11Z"/><path class="c" d="M105.58,69.55c0-8.89-8.51-15.78-18.54-16.77-2.93-.29-18.34-1.05-13.18-1.05h14.99c9.84,0,17.82,7.08,17.82,15.81v10.54c0,2.61-.72,5.16-2.07,7.39,.65-1.65,.98-3.41,.99-5.18v-10.73Z"/><path class="e" d="M53.15,78.92c0,8.93,8.76,16.17,19.57,16.17h16.46c4.21,.03,8.34-1.13,11.91-3.36-3.88,3.35-8.85,5.16-13.97,5.09h-16.05c-10.54,0-19.08-7.11-19.08-15.88v-10.58c0-2.68,1.16,8.56,1.16,8.56Z"/><path class="k" d="M217.01,87.61c1.68,0,3.03-1.2,3.03-2.68v-24.72c0-1.48-1.36-2.68-3.03-2.68h0c-1.67,0-3.03,1.2-3.03,2.68v24.72c0,1.48,1.36,2.68,3.03,2.68Z"/><path class="g" d="M8.41,112.38c0,1.48,1.36,2.68,3.03,2.68h27.94c1.67,0,3.03-1.2,3.03-2.68h0c0-1.48-1.36-2.68-3.03-2.68H11.44c-1.67,0-3.03,1.2-3.03,2.68Z"/></g></g></svg>