<?xml version="1.0" encoding="UTF-8"?><svg id="a" xmlns="http://www.w3.org/2000/svg" viewBox="0 0 315.8 151.57"><defs><style>.b{fill:#c02e23;}.c{fill:#302c29;}.d{fill:#c72929;}.e,.f,.g,.h,.i{fill:#fff;}.j{fill:#728b90;}.k{fill:#8b98a1;}.f,.l{opacity:.9;}.m{fill:#1b2226;}.n,.g{opacity:.5;}.o{fill:#8acbd9;}.p{fill:#ab2727;}.q{fill:#565d64;}.r{fill:#ff6252;}.h{opacity:.7;}.s{opacity:.3;}.t{fill:#51575d;}.u{fill:#a4c8cf;}.v{fill:#f3422f;}.w{fill:#b62219;}.i{opacity:.2;}.x{fill:#6c5e55;}.y{fill:#dc3428;}.a`{fill:#454a50;}.aa{fill:#f1a03e;}.l{fill:#8c8c8c;}.ab{fill:#373f43;}.ac{fill:#453e3b;}.ad{fill:#2b3236;}.ae{fill:#172026;}.af{fill:#d4dee6;}.ag{fill:#292523;}</style></defs><path class="n" d="M207.07,148.57c-6.63,0-12.99-3.35-17.44-9.2l-.21-.27c-.62-.81-1.29-1.67-1.91-2.83h-56.31c-3.36,6.89-8.71,11.28-14.78,11.96-.56,.06-1.1,.1-1.64,.1-.07,0-.2,0-.29,0h-1.76c-.09,0-.18,0-.27,0h-13.22c-.09,0-.18,0-.26,0h-1.61c-.1,0-.19,0-.28,0-.64,0-1.3-.04-2.03-.11-.03,0-.07,0-.1,0-.7-.08-1.36-.18-2-.31-.02,0-.04,0-.07-.01-1.29-.28-2.58-.69-3.83-1.23l-.2-.09c-1.14-.51-2.29-1.14-3.38-1.88-.02-.01-.1-.07-.12-.08-.53-.36-1.05-.76-1.56-1.17-.02-.02-.09-.07-.11-.09-.94-.77-1.86-1.66-2.72-2.62l-.26-.29c-.37-.43-.73-.86-1.07-1.31-.02-.03-.04-.05-.06-.08-4.03,5.47-9.67,8.89-15.9,9.46-.14,.01-.29,.02-.43,.02l-13.22,.06h-2.17c-6.64,0-13-3.36-17.45-9.21l-.21-.28c-.61-.78-1.34-1.72-2.01-2.99-3.59-.47-7.02-1.87-10.04-4.12-.03-.03-.07-.05-.1-.08-.41-.3-.82-.63-1.25-1-.12-.1-.22-.2-.33-.3-.34-.31-.65-.59-.94-.89-.12-.12-.25-.25-.37-.38l-.08-.09c-.26-.28-.52-.56-.77-.85-.11-.13-.44-.53-.44-.53-.14-.16-.27-.32-.4-.49-.02-.03-.41-.56-.41-.56-2.75-3.79-4.44-8.29-4.92-13.06-.25-2.53-.16-5.1,.28-7.63,.56-3.18,1.35-5.98,2.34-8.34,.17-.43,.4-.91,.62-1.35,.62-1.24,1.32-2.35,2.1-3.3,.6-2.88,1.34-5.63,2.22-8.23-.57-3.14-.04-6.47,1.54-9.74,1.18-2.46,3.02-4.98,5.33-7.27,.45-.45,.9-.86,1.34-1.25,.13-.12,.48-.41,.48-.41,.29-.25,.59-.5,.89-.73,.15-.12,.31-.24,.47-.36,.32-.24,.62-.46,.92-.67,.18-.13,.29-.2,.4-.28,.32-.21,.64-.41,.95-.59,.12-.08,.24-.15,.35-.21,.29-.17,.57-.3,.84-.43,.09-.05,.26-.13,.26-.13,.25-.11,.46-.2,.68-.28,.23-.09,.43-.16,.6-.22,.16-.05,.31-.09,.45-.12,.19-.15,.38-.3,.57-.44,.25-.19,.51-.38,.77-.56l.23-.17c.23-.17,.46-.33,.69-.49,.3-.21,.6-.4,.9-.59l.14-.09c.22-.15,.45-.29,.67-.43,.28-.17,.55-.34,.83-.5,0,0,.71-.42,.91-.53,.27-.15,.54-.3,.81-.44,0,0,.74-.4,.94-.5,.27-.14,.56-.28,.84-.42,0,0,.72-.35,.9-.44,.28-.13,.56-.25,.83-.38,0,0,.74-.33,.92-.41,.26-.11,.53-.22,.81-.34l.91-.37c.29-.11,.56-.21,.83-.31l.93-.35c.26-.09,1.73-.6,1.73-.6,.26-.09,1.02-.33,1.02-.33l.66-.21c.29-.09,1.67-.49,1.67-.49,.33-.09,1.67-.46,1.67-.46,.38-.1,1.59-.41,1.59-.41l1.61-.4c.48-.12,.99-.24,1.5-.36l1.85-.43c1.78-.41,3.48-.8,5.02-1.21,1.1-.93,2.16-1.8,3.21-2.63C107.56,14.76,159.33,8,195.65,8c11.38,0,29.02,.68,48.48,3.94l.72,.12c.42,.07,.81,.16,1.18,.28,9.78,1.67,16.96,3.83,20.45,4.87,.73,.22,1.29,.39,1.66,.49,4.44,1.17,6.5,3.7,7.44,5.62,1.16,2.35,1.34,5.19,.54,8.16,2.23,1.86,4.39,3.77,6.45,5.71,9.04,8.54,16.17,17.77,21.22,27.46,.64,.24,1.26,.57,1.85,.97,4,2.53,6.2,8.11,6.72,17.05,.17,2.71-.1,5.3-.35,6.96,.6,4.04,.87,8.13,.79,12.17,0,.18-.04,1.47-.05,1.71,0,.17-.08,1.45-.09,1.69-.06,.9-.14,1.78-.23,2.64,0,0-.08,.72-.08,.78-1.35,11.42-5.16,19.79-8.27,23.81-.11,.14-.2,.24-.28,.34-.11,.13-.22,.27-.34,.4,0,0-.32,.36-.32,.36-.25,.27-.49,.5-.72,.71-.04,.04-.16,.14-.2,.18-.3,.25-.58,.47-.85,.65-.05,.03-.14,.09-.14,.09-.36,.23-.75,.44-1.15,.6-.14,.06-.28,.11-.42,.16-.15,.05-.3,.09-.46,.13-.34,.09-.66,.14-.97,.17-.17,.02-.33,.03-.5,.03h-6.8c-4.03,6.9-10.38,11.3-17.49,11.96-.31,.06-.62,.09-.95,.09h-12.78c-.1,0-.2,0-.3,0h-1.49c-.13,0-.24,0-.36,0-.14,0-.27,0-.41-.01h-.15c-.17,0-.35,0-.51-.03-6.31-.34-12.11-3.58-16.37-9.17-.23-.31-.46-.62-.68-.93-4.04,5.95-9.96,9.71-16.5,10.31-.14,.01-.29,.02-.43,.02,0,0-13.23,.06-13.24,.06h-2.15Z"/><path class="e" d="M202.07,143.57c-6.63,0-12.99-3.35-17.44-9.2l-.21-.27c-.62-.81-1.29-1.67-1.91-2.83h-56.31c-3.36,6.89-8.71,11.28-14.78,11.96-.56,.06-1.1,.1-1.64,.1-.07,0-.2,0-.29,0h-1.76c-.09,0-.18,0-.27,0h-13.22c-.09,0-.18,0-.26,0h-1.61c-.1,0-.19,0-.28,0-.64,0-1.3-.04-2.03-.11-.03,0-.07,0-.1,0-.7-.08-1.36-.18-2-.31-.02,0-.04,0-.07-.01-1.29-.28-2.58-.69-3.83-1.23l-.2-.09c-1.14-.51-2.29-1.14-3.38-1.88-.02-.01-.1-.07-.12-.08-.53-.36-1.05-.76-1.56-1.17-.02-.02-.09-.07-.11-.09-.94-.77-1.86-1.66-2.72-2.62l-.26-.29c-.37-.43-.73-.86-1.07-1.31-.02-.03-.04-.05-.06-.08-4.03,5.47-9.67,8.89-15.9,9.46-.14,.01-.29,.02-.43,.02l-13.22,.06h-2.17c-6.64,0-13-3.36-17.45-9.21l-.21-.28c-.61-.78-1.34-1.72-2.01-2.99-3.59-.47-7.02-1.87-10.04-4.12-.03-.03-.07-.05-.1-.08-.41-.3-.82-.63-1.25-1-.12-.1-.22-.2-.33-.3-.34-.31-.65-.59-.94-.89-.12-.12-.25-.25-.37-.38l-.08-.09c-.26-.28-.52-.56-.77-.85-.11-.13-.44-.53-.44-.53-.14-.16-.27-.32-.4-.49-.02-.03-.41-.56-.41-.56-2.75-3.79-4.44-8.29-4.92-13.06-.25-2.53-.16-5.1,.28-7.63,.56-3.18,1.35-5.98,2.34-8.34,.17-.43,.4-.91,.62-1.35,.62-1.24,1.32-2.35,2.1-3.3,.6-2.88,1.34-5.63,2.22-8.23-.57-3.14-.04-6.47,1.54-9.74,1.18-2.46,3.02-4.98,5.33-7.27,.45-.45,.9-.86,1.34-1.25,.13-.12,.48-.41,.48-.41,.29-.25,.59-.5,.89-.73,.15-.12,.31-.24,.47-.36,.32-.24,.62-.46,.92-.67,.18-.13,.29-.2,.4-.28,.32-.21,.64-.41,.95-.59,.12-.08,.24-.15,.35-.21,.29-.17,.57-.3,.84-.43,.09-.05,.26-.13,.26-.13,.25-.11,.46-.2,.68-.28,.23-.09,.43-.16,.6-.22,.16-.05,.31-.09,.45-.12,.19-.15,.38-.3,.57-.44,.25-.19,.51-.38,.77-.56l.23-.17c.23-.17,.46-.33,.69-.49,.3-.21,.6-.4,.9-.59l.14-.09c.22-.15,.45-.29,.67-.43,.28-.17,.55-.34,.83-.5,0,0,.71-.42,.91-.53,.27-.15,.54-.3,.81-.44,0,0,.74-.4,.94-.5,.27-.14,.56-.28,.84-.42,0,0,.72-.35,.9-.44,.28-.13,.56-.25,.83-.38,0,0,.74-.33,.92-.41,.26-.11,.53-.22,.81-.34l.91-.37c.29-.11,.56-.21,.83-.31l.93-.35c.26-.09,1.73-.6,1.73-.6,.26-.09,1.02-.33,1.02-.33l.66-.21c.29-.09,1.67-.49,1.67-.49,.33-.09,1.67-.46,1.67-.46,.38-.1,1.59-.41,1.59-.41l1.61-.4c.48-.12,.99-.24,1.5-.36l1.85-.43c1.78-.41,3.48-.8,5.02-1.21,1.1-.93,2.16-1.8,3.21-2.63C102.56,9.76,154.33,3,190.65,3c11.38,0,29.02,.68,48.48,3.94l.72,.12c.42,.07,.81,.16,1.18,.28,9.78,1.67,16.96,3.83,20.45,4.87,.73,.22,1.29,.39,1.66,.49,4.44,1.17,6.5,3.7,7.44,5.62,1.16,2.35,1.34,5.19,.54,8.16,2.23,1.86,4.39,3.77,6.45,5.71,9.04,8.54,16.17,17.77,21.22,27.46,.64,.24,1.26,.57,1.85,.97,4,2.53,6.2,8.11,6.72,17.05,.17,2.71-.1,5.3-.35,6.96,.6,4.04,.87,8.13,.79,12.17,0,.18-.04,1.47-.05,1.71,0,.17-.08,1.45-.09,1.69-.06,.9-.14,1.78-.23,2.64,0,0-.08,.72-.08,.78-1.35,11.42-5.16,19.79-8.27,23.81-.11,.14-.2,.24-.28,.34-.11,.13-.22,.27-.34,.4,0,0-.32,.36-.32,.36-.25,.27-.49,.5-.72,.71-.04,.04-.16,.14-.2,.18-.3,.25-.58,.47-.85,.65-.05,.03-.14,.09-.14,.09-.36,.23-.75,.44-1.15,.6-.14,.06-.28,.11-.42,.16-.15,.05-.3,.09-.46,.13-.34,.09-.66,.14-.97,.17-.17,.02-.33,.03-.5,.03h-6.8c-4.03,6.9-10.38,11.3-17.49,11.96-.31,.06-.62,.09-.95,.09h-12.78c-.1,0-.2,0-.3,0h-1.49c-.13,0-.24,0-.36,0-.14,0-.27,0-.41-.01h-.15c-.17,0-.35,0-.51-.03-6.31-.34-12.11-3.58-16.37-9.17-.23-.31-.46-.62-.68-.93-4.04,5.95-9.96,9.71-16.5,10.31-.14,.01-.29,.02-.43,.02,0,0-13.23,.06-13.24,.06h-2.15Z"/><g><path class="c" d="M29.4,125.69h44.14c-.11,.28-.23,.56-.35,.83-3,6.73-8.53,11.4-14.96,11.99l-13.22,.06h-2.15c-5.29,0-10.07-2.77-13.47-7.23-1.11-1.44-2.27-2.73-2.84-5.64h2.84Z"/><path class="c" d="M188.6,125.69h44.13c-.11,.28-.22,.56-.34,.83-3,6.73-8.52,11.4-14.95,11.99l-13.21,.06h-2.15c-5.29,0-10.06-2.77-13.47-7.23-1.11-1.44-2.01-2.48-2.66-5.07l2.66-.58Z"/><path class="r" d="M8.11,108.24c.39,3.84,1.75,7.53,3.97,10.59,.12,.16,.22,.31,.34,.46,1.11,1.43,2.35,2.66,3.73,3.67h0c2.87,2.14,6.27,3.31,9.77,3.31H250.07v-56.74l-48.15-41.47s44.77-14.82,37.13-16.07c-7.48-1.21-106.77-19.52-173.77,33.87-1.32,1.04-2.62,2.12-3.92,3.24-2.42,.68-5.16,1.28-8.11,1.97-7.95,1.88-17.3,4.41-25.13,11.03-2.24,1.89-4.36,4.12-6.28,6.77-1.5,2.05-2.87,4.34-4.1,6.92-.66,1.37-1.26,2.82-1.82,4.36h0c-1.13,3.09-2.07,6.51-2.79,10.32-.85,.79-1.61,1.88-2.26,3.2-.17,.34-.33,.69-.48,1.06-.87,2.07-1.55,4.55-2.02,7.24-.36,2.09-.44,4.2-.23,6.27Z"/><path class="p" d="M150.31,20.97l-.33-.84c.26-.1,25.58-9.97,38.14-10.09v.9c-12.38,.12-37.55,9.93-37.81,10.03Z"/><path class="v" d="M62.36,126.27h230.34c.11,0,.22-.02,.34-.07,.56-.2,1.27-.81,2.06-1.83,4.01-5.16,9.92-20.4,6.86-39.68-2.34-14.81-9.97-32-27.82-48.86-2.76-2.6-5.75-5.2-9-7.78,0,0,.29-.5,.62-1.28,1.02-2.42,2.34-7.6-3.88-9.24-7.49-1.97-80.26-28.48-148.35,31.57-14.5,4.11-41.43,5.22-48.25,41.36-6.19,5.69-7.36,27.87-2.9,35.8Z"/><path class="o" d="M106.31,49.03c.65,0,1.27-.24,1.76-.68l1.64-1.46c1.16-1.03,1.54-1.38,1.71-1.51h-.01c9.03-7.87,20.69-15.33,34.68-22.15,2.95-1.44,5.98-2.85,9.04-4.19l-32.16-.22c-23.88,4.52-54.52,26.53-59.23,30l42.57,.22Z"/><path class="a`" d="M110.03,47.25s-13.38-7.12-39.62-3.13c-.29,.19-7.04,5.17-7.04,5.17l43.84-.46,2.81-1.59Z"/><path class="a`" d="M89.19,47.31c.55-3.08,4.32-5.47,8.89-5.47s8.33,2.39,8.89,5.47h-17.78Z"/><path class="ab" d="M123.06,19.29l29.84,.21c-2.38,1.07-4.73,2.17-7.03,3.3-14.02,6.84-25.72,14.32-34.78,22.23h0c-.23,.19-.67,.58-1.7,1.51l-1.03,.92-.61,.54c-.41,.36-.91,.56-1.45,.56l-33.14-.17-7.97-.04c7.31-5.28,35.5-24.79,57.86-29.05h0Zm-.09-.96c-23.82,4.5-54.35,26.27-59.82,30.32-.11,.09-.17,.25-.13,.39,.05,.14,.18,.24,.34,.25l9.79,.05,33.11,.17h.04c.77,0,1.51-.29,2.08-.79,.48-.43,1.08-.97,1.64-1.47,.88-.8,1.66-1.5,1.7-1.5,10.13-8.85,22.54-16.22,34.57-22.1,3.78-1.84,7.51-3.54,11.12-5.08l-34.43-.24h0Z"/><path class="b" d="M74.94,113.45v12.81h57.33c.59,0,1.45-.65,2.4-1.89v-10.92c0-17.82-13.4-32.33-29.87-32.33-7.08,0-13.95,2.74-19.33,7.71-6.69,6.15-10.53,15.13-10.53,24.62Z"/><path class="y" d="M78.63,113.45v12.81h52.35v-12.81c0-15.78-11.74-28.62-26.18-28.62-6.41,0-12.29,2.53-16.83,6.73-5.71,5.25-9.34,13.11-9.34,21.89Z"/><path class="ab" d="M131.86,49.72c-1.39,0-2.61-.93-2.99-2.28-.38-1.34,.27-2.66,1.37-3.52,31.13-24.16,59.41-29.47,91.69-27.41,30.19,1.92,39.98,23.05,42.52,30.57,.2,.61,.1,1.29-.27,1.81-.37,.52-.97,.83-1.61,.83H131.86Z"/><path class="q" d="M259.67,47.25c.51,0,.99-.26,1.27-.69,.28-.43,.32-.97,.13-1.45-1.16-2.72-2.98-6.22-5.76-9.76-7.8-9.94-19.08-15.45-33.52-16.37-4.22-.27-8.14-.4-11.99-.4-29.64,0-53.71,8.42-78.05,27.3-.29,.22-.59,.59-.5,.89,.07,.28,.33,.48,.62,.48h127.81Z"/><path class="m" d="M78.63,113.45v17.63c3.4,4.46,8.17,7.24,13.47,7.24,.73,0,1.45-.05,2.15-.16v.16h13.22v-.06c6.43-.58,11.96-5.26,14.95-11.99h8.56v-12.81c0-15.78-11.74-28.62-26.18-28.62-6.41,0-12.29,2.53-16.83,6.73-5.71,5.25-9.34,13.11-9.34,21.89Z"/><path class="ac" d="M75.78,126.27c.52,1.17,1.12,2.27,1.78,3.3,.25,.4,.52,.78,.8,1.16,.08,.12,.17,.24,.25,.35,.63,.83,1.31,1.6,2.03,2.3,.02,.03,.05,.05,.07,.07,3.15,3.06,7.09,4.86,11.36,4.86,.73,0,1.45-.05,2.15-.16,1.69-.24,3.33-.77,4.85-1.55,3.4-1.73,6.3-4.69,8.36-8.44,.34-.61,.66-1.24,.94-1.9,.77-1.71,1.37-3.55,1.78-5.47,.41-1.96,.63-4.03,.63-6.15,0-1.63-.13-3.22-.39-4.76-.52-3.2-1.54-6.17-2.97-8.76-1.7-3.07-3.95-5.61-6.58-7.38-.57-.39-1.17-.74-1.78-1.05-.5-.25-1.01-.48-1.52-.68-.13-.05-.27-.1-.41-.15-.95-.34-1.92-.58-2.92-.72-.71-.11-1.43-.16-2.15-.16-1.41,0-2.8,.2-4.12,.58-5.71,5.25-9.34,13.11-9.34,21.89v11.01c0,.46-.18,.93-.53,1.28-.35,.36-.8,.53-1.27,.53h-1.05Z"/><polygon class="ac" points="92.09 90.98 92.09 138.31 109.78 138.31 110.18 120.79 110.43 109.89 110.84 92.04 110.87 91.05 92.09 90.98"/><path class="ag" d="M108.67,93.4c-.93-.11-1.87-.16-2.81-.15-1.28-.09-19.21-.38-27.07,17.14,.73-7.54,4.15-14.2,9.19-18.83,1.33-.38,2.71-.58,4.12-.58l18.78,.06-.03,.99-2.17,1.37Z"/><path class="x" d="M94.73,114.65c0,4.22,.7,8.19,1.94,11.62,.91,2.57,2.13,4.84,3.57,6.7,1.17,1.51,2.48,2.74,3.91,3.64,1.74,1.11,3.64,1.72,5.63,1.72,.37,0,.73-.02,1.09-.06,5.17-.58,9.62-5.26,12.02-11.99,1.24-3.43,1.95-7.4,1.95-11.62,0-12.49-6.16-22.72-13.96-23.6-.36-.04-.72-.06-1.09-.06-1.99,0-3.89,.6-5.63,1.71-1.42,.91-2.74,2.14-3.91,3.64-3.36,4.34-5.51,10.93-5.51,18.31Z"/><path class="b" d="M235.37,113.45v12.81h57.33c.59,0,1.44-.65,2.39-1.89v-10.92c0-17.82-13.39-32.33-29.86-32.33-7.08,0-13.96,2.74-19.33,7.71-6.69,6.15-10.53,15.13-10.53,24.62Z"/><path class="ae" d="M239.05,113.45v17.63c3.4,4.46,8.17,7.24,13.47,7.24,.73,0,1.45-.05,2.15-.16v.16h12.27l.95-.06c6.43-.58,11.96-5.26,14.95-11.99h8.56v-12.81c0-15.78-11.74-28.62-26.17-28.62-6.41,0-12.29,2.53-16.84,6.73-5.71,5.25-9.34,13.11-9.34,21.89Z"/><path class="ac" d="M236.21,126.27c.77,1.76,1.73,3.37,2.84,4.82,3.4,4.46,8.17,7.24,13.47,7.24,.73,0,1.45-.05,2.15-.16,1.7-.24,3.33-.77,4.86-1.55,3.4-1.73,6.3-4.69,8.36-8.44,.34-.61,.66-1.24,.94-1.9,1.54-3.43,2.42-7.4,2.42-11.62,0-5.02-1.24-9.68-3.36-13.51-2.06-3.75-4.96-6.71-8.36-8.44-1.53-.78-3.16-1.31-4.86-1.56-.7-.11-1.42-.16-2.15-.16-1.41,0-2.8,.2-4.12,.58-5.71,5.25-9.34,13.11-9.34,21.89v11.06c0,.97-.78,1.76-1.74,1.76h-1.1Z"/><polygon class="ac" points="253.52 91.02 251.96 138.31 267.45 138.32 267.89 90.99 253.52 91.02"/><path class="x" d="M247.81,114.65c0,4.22,.87,8.19,2.42,11.62,1.14,2.57,2.66,4.84,4.45,6.7,1.45,1.51,3.08,2.74,4.85,3.64,2.16,1.11,4.53,1.72,7.01,1.72,.46,0,.91-.02,1.35-.06,6.43-.58,11.96-5.26,14.95-11.99,1.54-3.43,2.42-7.4,2.42-11.62,0-12.49-7.66-22.72-17.37-23.6-.44-.04-.9-.06-1.35-.06-2.48,0-4.85,.6-7.01,1.71-1.77,.91-3.4,2.14-4.85,3.64-4.19,4.34-6.87,10.93-6.87,18.31Z"/><path class="v" d="M13.12,90.47h0l53.52,.52s7.79-4.34,2.09-12.59c-29.94,18.57-51.85,8.77-52.82,1.76-1.13,3.09-2.07,6.5-2.79,10.31Z"/><path class="y" d="M42.01,90.98l1.28-.15c-.67,.04-1.13,.12-1.28,.15Z"/><path class="v" d="M12.42,119.29c1.11,1.43,2.35,2.66,3.73,3.67h0c2.87,2.14,6.27,3.31,9.77,3.31h42.77l2.12-38.78-27.47,3.33c4.15-.29,16.86-.9,16.33,18.53-.55,20.06-43.83,13.03-47.25,9.95Z"/><g><path class="u" d="M76.99,63.33c.41,.05,.78,.29,1,.64,.22,.36,.26,.79,.12,1.19-1.89,5.15-9.35,21.17-29.86,22.28-.5,.03-.94-.35-.98-.86-.93-10.48,12.11-25.33,29.72-23.25Z"/><path class="j" d="M48.21,87.82c-.68,0-1.25-.53-1.31-1.21-.41-4.62,1.82-10.08,5.97-14.62,6.13-6.7,15.14-10.1,24.16-9.03,.52,.06,1,.37,1.27,.82,.28,.45,.33,1,.15,1.51-1.83,5-9.41,21.4-30.19,22.52h-.07Zm25.46-24.31c-7.64,0-15.02,3.28-20.24,8.99-4.01,4.38-6.17,9.64-5.78,14.05,.02,.29,.27,.52,.56,.52v.37l.03-.38c20.32-1.1,27.73-17.14,29.52-22.03,.1-.29,.07-.61-.09-.87-.16-.25-.43-.43-.72-.47-1.09-.13-2.19-.19-3.28-.19Z"/></g><path class="u" d="M15.91,80.16c.34,1.08,.91,2.15,1.76,3.19,0,0,4.42-3.52,7.52-9.74,1.58-3.17,2.8-7.05,2.93-11.51-.3-.24-1.16,.02-2.3,.66-1.33,.76-3.06,2.04-4.72,3.68-1.68,1.67-3.3,3.7-4.35,5.9-1.2,2.47-1.71,5.17-.84,7.82Z"/><path class="j" d="M15.81,79.86v.02c0,1.48,.75,2.88,1.48,3.77,.16,.21,.46,.24,.66,.08,.18-.15,4.49-3.62,7.58-9.78,.03-.04,.05-.09,.06-.12,1.88-3.76,2.87-7.7,2.99-11.71v-.25l-.1-.09c-.13,.11-.26,.21-.38,.32-.09-.06-.23-.09-.41-.08-.07,.18-.12,.5-.09,.49-.16,3.67-1.09,7.28-2.79,10.74-.03,.04-.04,.1-.07,.15-2.19,4.41-5.09,7.47-6.52,8.81-.14,.13-.33,.2-.51,.19-.19,0-.37-.08-.5-.22-.57-.62-.97-1.29-1.19-1.76-.02-.04-.04-.1-.08-.19-.01-.02-.03-.05-.03-.07-.03-.07-.06-.14-.1-.24-.01-.02-.01-.03-.02-.05Z"/><path class="o" d="M142.86,37.98s31.66-27.97,88.97-17.5c0,0,16.03,16.47,15.98,22.85-.05,0-104.95,0-104.95,0v-5.36Z"/><path class="i" d="M261.07,45.11c-1.16-2.72-2.98-6.22-5.76-9.76-4.34-5.52-9.75-9.67-16.17-12.43-3.78,8.16-7.7,16.28-11.77,24.33h32.3c.51,0,.99-.26,1.27-.69,.28-.43,.32-.97,.13-1.45Z"/><path class="d" d="M276.44,69.18c0,1.82-1.46,3.3-3.26,3.31-10.45,.08-42.51,3.45-44.49,41.97-.12,2.43-2.1,4.34-4.51,4.36-15.67,.14-65.22,0-81.69-.06-2.88,0-5.23-2.33-5.3-5.23-.23-10.23-2.78-32.55-20.18-39.83-1.73-.72-2.86-2.42-2.86-4.31v-2.65c0-1.99,1.61-3.61,3.59-3.61h155.32c1.86,0,3.36,1.51,3.36,3.38v2.66Z"/><polygon class="ab" points="142.86 37.98 142.86 48.69 131.22 48.69 129.03 46.22 142.86 37.98"/><path class="y" d="M223.86,99.03c-.03,.14-.05,.28-.07,.41-2.25,12.14-11.88,13.13-19.09,13.05l-65.93-.88-1.64-12.58h86.74Z"/><path class="p" d="M205.36,113.22c-.23,0-.45,0-.67,0l-63.85-.92-.09-.61c-3.39-23.88-3.68-45.12-.87-63.11l1.43,.22c-2.76,17.69-2.5,38.57,.79,62.06l62.6,.9c7.92,.11,16.3-1.31,18.37-12.46,3.49-18.83-3.7-49.12-3.78-49.42l1.41-.34c.07,.31,7.34,30.89,3.79,50.03-2.21,11.93-11.26,13.65-19.14,13.65Z"/><path class="v" d="M51.87,108.01c0,3.59,2.15,6.49,4.8,6.49s4.81-2.91,4.81-6.49-2.15-6.49-4.81-6.49-4.8,2.9-4.8,6.49Z"/><polygon class="v" points="62.07 114.42 56.67 114.5 56.67 101.51 62.07 101.51 62.07 114.42"/><g><path class="u" d="M57.27,108.01c0,3.14,1.88,5.69,4.21,5.69s4.21-2.55,4.21-5.69-1.88-5.7-4.21-5.7-4.21,2.55-4.21,5.7Z"/><path class="j" d="M61.48,114.03c-2.5,0-4.53-2.7-4.53-6.02s2.03-6.02,4.53-6.02,4.54,2.7,4.54,6.02-2.04,6.02-4.54,6.02Zm0-11.39c-2.14,0-3.88,2.41-3.88,5.37s1.74,5.36,3.88,5.36,3.88-2.41,3.88-5.36-1.74-5.37-3.88-5.37Z"/></g><path class="i" d="M21.1,66.44c.14,.79,.38,1.6,.74,2.43,.61,1.43,1.57,2.89,3,4.38,.12,.13,.23,.24,.36,.36,.11,.12,.23,.23,.35,.35,.75,.72,1.6,1.45,2.58,2.18,14.34,10.72,60.83-22.9,60.83-22.9,0,0-18.93-1.51-35.7-2.16-7.83,1.85-17,4.33-24.75,10.71-.13,.1-.26,.21-.38,.32-.09-.07-.23-.1-.41-.08-1.14,.08-3.96,1.8-6.61,4.42Z"/><path class="u" d="M302.37,77.97c-.34-5.78-1.62-12.85-5.77-13.68-.24-.07-.53-.1-.91-.1-1.83,.03-2.96,1.12-3.19,3.07-.66,5.6,5.8,16.98,9.34,17.9,0,0,.76-3.52,.53-7.19Z"/><path class="j" d="M292.03,67.21c.24-2.08,1.46-3.31,3.33-3.47,.14,.32,.17,.15,.33,.45-7.31,.11,1.71,19.58,6.15,20.97,.02,.3,.06,.1,.06,.4,0,.04,.01,.08,.01,.12l-.19-.05c-4.09-1.06-10.34-12.93-9.69-18.42Z"/><path class="b" d="M293.04,126.2c.56-.2,1.27-.81,2.05-1.83,4.01-5.16,9.93-20.39,6.86-39.68h0s-.93,21.69-7.89,26.88c-.3,3.39-.8,10.81-1.03,14.62Z"/><path class="x" d="M251.22,97.59c0,.8,.64,1.45,1.44,1.45h4.04c.78,0,1.43-.65,1.43-1.45h0c0-.79-.65-1.44-1.43-1.44h-4.04c-.8,0-1.44,.65-1.44,1.44h0Z"/><path class="x" d="M248.25,103c0,.8,.64,1.45,1.43,1.45h4.04c.79,0,1.44-.65,1.44-1.45h0c0-.8-.65-1.44-1.44-1.44h-4.04c-.79,0-1.43,.64-1.43,1.44h0Z"/><path class="x" d="M246.61,108.93c0,.8,.64,1.44,1.43,1.44h4.05c.79,0,1.43-.64,1.43-1.44h0c0-.8-.64-1.45-1.43-1.45h-4.05c-.79,0-1.43,.65-1.43,1.45h0Z"/><path class="x" d="M94.14,98.02c0,.8,.64,1.44,1.44,1.44h4.04c.79,0,1.44-.64,1.44-1.44h0c0-.79-.65-1.44-1.44-1.44h-4.04c-.8,0-1.44,.65-1.44,1.44h0Z"/><path class="x" d="M91.17,103.44c0,.8,.64,1.45,1.43,1.45h4.05c.79,0,1.43-.65,1.43-1.45h0c0-.8-.64-1.44-1.43-1.44h-4.05c-.79,0-1.43,.64-1.43,1.44h0Z"/><path class="x" d="M89.53,109.37c0,.8,.64,1.44,1.43,1.44h4.04c.79,0,1.44-.64,1.44-1.44h0c0-.8-.64-1.44-1.44-1.44h-4.04c-.79,0-1.43,.65-1.43,1.44h0Z"/><path class="i" d="M8.11,108.24c.39,3.84,1.75,7.53,3.97,10.59,1.18,1.63,2.55,3.02,4.07,4.13-2.27-3.92-2.41-8.72-.41-12.77,2.01-4.06,5.92-6.82,10.37-7.35l7.74-.93c1.89-.23,3.31-1.83,3.31-3.75v-1.11c0-1.87-1.5-3.38-3.35-3.38H10.85c-.17,.34-.33,.69-.48,1.06-.87,2.07-1.55,4.55-2.02,7.24-.36,2.09-.44,4.2-.23,6.27Z"/><path class="h" d="M149.41,24.89s-16.39,5.77-28.12,18.44c7.29-4.73,28.12-18.44,28.12-18.44Z"/><path class="ad" d="M99.96,48.83s-17.75-5.51-24.68-3.55c-6.94,1.97-5.06,3.42-2.89,3.43,2.17,0,27.57,.11,27.57,.11Z"/><g class="s"><path class="e" d="M63.03,49.04c.05,.14,.18,.24,.34,.25l9.79,.05c20.45-12.28,58.33-22.14,73.13-25.69,3.78-1.84,7.51-3.54,11.12-5.08l-34.43-.24c-23.82,4.5-54.35,26.27-59.82,30.32-.11,.09-.17,.25-.13,.39Z"/></g><path class="f" d="M74.92,69c.5-.89,.43-2-.18-2.82-.61-.82-1.64-1.2-2.64-.96-5.04,1.18-15.46,4.54-20.21,12.87-.39,.69-.34,1.55,.14,2.19,.49,.63,1.28,.8,2.07,.71,5.74-.69,17.81-6.59,20.82-11.99Z"/><path class="f" d="M16.75,72.33c.37,1.77,.94,3.19,1.56,3.72,2.43,2.13,8.52-9.22,7.52-13.3-1.33,.76-3.06,2.04-4.72,3.68-1.68,1.67-3.3,3.7-4.35,5.9Z"/><path class="g" d="M58.78,106.88c0,1.45,.74,2.63,1.65,2.63s1.65-1.18,1.65-2.63-.74-2.63-1.65-2.63-1.65,1.18-1.65,2.63Z"/><path class="f" d="M301.89,77.43c-.32-5.48-1.52-12.47-5.39-13.24-1.31,1.95-1.72,5.93,5.39,13.24Z"/><path class="aa" d="M126.76,70.27c0,1.11,.9,2.02,2,2.02s2-.9,2-2.02-.9-2.02-2-2.02-2,.91-2,2.02Z"/><path class="h" d="M156.95,41.8c1.03-.16,6.69,.76,5.82-1.32-1.26-3-7.52-2.5-8.74,.31-1,2.3,1.68,1.2,2.92,1.01Z"/><path class="af" d="M266.54,132.13c.28,0,.54-.01,.76-.03,4.08-.37,7.78-3.49,9.94-8.36,1.23-2.74,1.88-5.87,1.88-9.09,0-9.02-5.29-16.85-11.78-17.43-.26-.03-.52-.04-.8-.04-1.45,0-2.87,.35-4.22,1.04-1.16,.59-2.24,1.41-3.23,2.43-3.26,3.38-5.12,8.48-5.12,14,0,3.22,.64,6.35,1.87,9.06,.86,1.93,1.94,3.59,3.26,4.95,.99,1.02,2.07,1.84,3.22,2.43,1.36,.69,2.78,1.04,4.23,1.04Z"/><path class="t" d="M255.97,114.65c0,2.78,.53,5.48,1.54,7.84,.04,.11,.08,.23,.14,.35,.62,1.41,1.39,2.65,2.29,3.71,.17,.23,.37,.44,.57,.65,.83,.86,1.72,1.54,2.68,2.02,1.08,.55,2.2,.83,3.33,.83,.21,0,.4,0,.57-.03,1.48-.13,2.91-.74,4.2-1.72,1.16-.88,2.2-2.05,3.08-3.5,.37-.61,.71-1.25,1.02-1.94,1.11-2.46,1.69-5.3,1.69-8.22v-.25c-.02-1.64-.25-3.25-.62-4.75-1.06-4.21-3.4-7.71-6.28-9.37-.96-.56-1.98-.9-3.04-1-.22-.02-.41-.03-.62-.03-.15,0-.31,0-.46,0-.98,.08-1.95,.36-2.87,.82-.96,.49-1.86,1.18-2.68,2.03-1.3,1.34-2.36,3.01-3.12,4.9-.58,1.43-1,3-1.22,4.63-.14,.98-.21,1.99-.21,3.01Z"/><path class="af" d="M109.78,132.13c.23,0,.43-.01,.61-.03,3.28-.37,6.26-3.49,7.99-8.36,.99-2.74,1.51-5.87,1.51-9.09,0-9.02-4.25-16.85-9.47-17.43-.21-.03-.41-.04-.64-.04-1.17,0-2.31,.35-3.39,1.04-.94,.59-1.8,1.41-2.6,2.43-2.62,3.38-4.12,8.48-4.12,14,0,3.22,.52,6.35,1.5,9.06,.68,1.93,1.57,3.59,2.62,4.95,.8,1.02,1.67,1.84,2.59,2.43,1.09,.69,2.23,1.04,3.4,1.04Z"/><path class="t" d="M109.78,130.21c.14,0,.27,0,.38-.02,2.51-.28,4.97-3,6.43-7.1,.92-2.53,1.4-5.45,1.4-8.44,0-8.64-4.1-15.12-7.78-15.53-.15-.02-.29-.02-.43-.02-.8,0-1.6,.25-2.38,.74-.75,.48-1.46,1.15-2.11,2-2.36,3.05-3.72,7.72-3.72,12.82,0,2.99,.48,5.9,1.39,8.41,.62,1.74,1.4,3.23,2.33,4.42,.66,.85,1.36,1.52,2.11,1.99,.78,.5,1.58,.75,2.38,.75Z"/><path class="af" d="M260.1,119.17l-2.69,3.4c.04,.11,.09,.24,.14,.35,.63,1.43,1.4,2.68,2.31,3.75l3.39-4.26c.69-.87,1.74-1.37,2.85-1.24,1.1,.15,2.03,.89,2.55,1.91l2.7,5.36c1.17-.88,2.22-2.08,3.11-3.53l-2.13-4.23c-.51-1.03-.61-2.32-.15-3.48,.47-1.17,1.36-1.94,2.38-2.18l2.64-.63c-.02-1.66-.25-3.28-.63-4.8l-2.89,.69c-1.01,.25-2.12-.05-2.94-.91-.83-.85-1.19-2.08-1.08-3.24l.57-6.01c-.97-.56-2-.91-3.07-1-.22-.02-.42-.03-.63-.03-.15,0-.31,.01-.47,.01l-.62,6.5c-.12,1.18-.7,2.28-1.68,2.91-.97,.63-2.1,.66-3.04,.18l-3.43-1.76c-.59,1.45-1.01,3.03-1.24,4.67l2.93,1.51c.96,.48,1.69,1.45,1.92,2.7,.22,1.25-.09,2.47-.8,3.35Z"/><path class="k" d="M264.69,114.65c0,1.92,1.2,3.48,2.68,3.48s2.68-1.56,2.68-3.48-1.2-3.47-2.68-3.47-2.68,1.56-2.68,3.47Z"/><path class="af" d="M104.44,118.9l-2.3,3.28c.03,.11,.08,.23,.13,.34,.53,1.37,1.19,2.58,1.97,3.62l2.89-4.11c.59-.84,1.49-1.32,2.44-1.19,.95,.14,1.74,.85,2.18,1.83l2.3,5.17c1-.85,1.9-2,2.66-3.4l-1.82-4.07c-.44-1-.52-2.23-.13-3.35,.4-1.13,1.16-1.87,2.03-2.1l2.25-.61c-.02-1.59-.21-3.16-.53-4.62l-2.46,.66c-.87,.24-1.81-.05-2.52-.88-.71-.82-1.02-2-.93-3.13l.49-5.78c-.83-.54-1.35-1.82-2.26-1.91-.19-.02-.86,0-1.04,0-.13,0,.13,0,0,0l-.78,7.18c-.09,1.14-.6,2.2-1.43,2.8-.83,.61-1.79,.64-2.6,.17l-2.93-1.69c-.5,1.4-.86,2.91-1.05,4.51l2.5,1.44c.81,.47,1.44,1.41,1.63,2.62,.2,1.2-.08,2.38-.68,3.23Z"/><path class="k" d="M107.33,114.65c0,1.92,1.19,3.48,2.68,3.48s2.68-1.56,2.68-3.48-1.2-3.47-2.68-3.47-2.68,1.56-2.68,3.47Z"/><path class="e" d="M181.43,24.54h-.03s.03,0,.03,0h0Z"/><path class="ad" d="M138.36,45.7l.5-.24,10.14-4.84,4.8,12.53h-10.29c-6,0-5.16-7.46-5.16-7.46Z"/><path class="y" d="M147.61,43.72v3.4c0,1.07,.28,2.1,.8,3,.27,.49,.62,.95,1.03,1.34,1.17,1.13,2.74,1.75,4.37,1.7l8.86-.3c2.27-.07,4.41-1.43,5.4-3.67,.97-2.23,.53-4.74-.95-6.49l-1.75-2.07h0l-1.9-2.24c-1.64-1.95-4.38-2.56-6.7-1.51l-6.76,3.09c-1.46,.66-2.4,2.12-2.4,3.74Z"/><path class="w" d="M148.41,50.12c.27,.49,.62,.95,1.03,1.34,1.17,1.13,2.74,1.75,4.37,1.7l8.86-.3c2.27-.07,4.41-1.43,5.4-3.67,.97-2.23,.53-4.74-.95-6.49l-1.75-2.07,.3,3.78c.21,2.68-2.83,5.01-6.8,5.2l-10.45,.51Z"/><path class="v" d="M38.9,111.5c0,.19-.07,.39-.22,.53-.14,.15-.33,.22-.52,.22H13.99c-.22,0-.45-.09-.62-.26-.17-.17-.26-.4-.26-.63v-11.1c0-.21,.08-.41,.23-.57,.15-.16,.36-.23,.56-.23h24.18c.21,0,.42,.08,.58,.24,.16,.16,.24,.37,.24,.59v11.21Z"/><path class="l" d="M37.96,110.48c0,.18-.07,.35-.2,.49-.13,.14-.31,.2-.49,.2H14.73c-.21,0-.42-.08-.58-.24-.16-.16-.24-.37-.24-.58v-10.16c0-.19,.07-.38,.21-.52,.14-.14,.33-.21,.52-.21h22.55c.19,0,.39,.07,.54,.22,.15,.15,.22,.34,.22,.54v10.26Z"/><path class="f" d="M37.16,110.48c0,.18-.07,.35-.2,.49s-.31,.2-.49,.2H13.93c-.21,0-.42-.08-.58-.24-.16-.16-.24-.37-.24-.58v-10.16c0-.19,.07-.38,.21-.52,.14-.14,.33-.21,.52-.21h22.55c.19,0,.39,.07,.54,.22,.15,.15,.22,.34,.22,.54v10.26Z"/></g></svg>