<?xml version="1.0" encoding="UTF-8"?><svg id="a" xmlns="http://www.w3.org/2000/svg" viewBox="0 0 220.21 251.14"><defs><style>.b{fill:#fff;}.c{opacity:.5;}.d{fill:#fc0;}.d,.e,.f,.g{stroke-miterlimit:10;}.d,.f,.g{stroke:#e8880a;}.e{stroke:#b76706;}.h{fill:#ffeb00;}.i{fill:#cf7100;}.f{fill:#efad1b;}.j{fill:#ffc400;}.g,.k{fill:#ff8500;}.l{fill:#ffa400;}</style></defs><path class="c" d="M209.53,249.86c-3.59,0-7.18-1.96-10.39-5.68-.07-.08-.6-.74-.93-1.15l-.2-.25L80.03,98.9c-2.23,.84-4.43,2.46-6.58,4.86-1.38,1.57-2.76,3.47-4.06,5.61-1.4,2.35-2.71,5.06-3.75,7.79-.74,1.99-2.69,3.35-4.83,3.35s-4.17-1.43-4.87-3.55c-.62-1.86-1.34-4.15-1.91-6.63-.94,.19-1.96,.37-3.04,.46-.78,.07-1.56,.1-2.31,.1-5.4,0-10.1-1.72-13.61-4.96-7.27-6.73-9.35-16.47-11.18-25.06-.19-.91-.38-1.8-.58-2.68-2.55-11.29-5.76-22.69-14.22-27.04-2.12-1.1-3.21-3.5-2.67-5.84,.54-2.32,2.57-3.97,4.93-4.02h.33c6.86,0,13.01,4.87,16.06,7.77,2.78,2.64,5.32,5.76,7.61,9.32-.05-9.69-2.6-18.81-7.36-26.1-.37-.57-.73-1.11-1.08-1.54-1.29-1.57-1.56-3.66-.71-5.47,.85-1.8,2.71-2.96,4.73-2.96,1.54,0,2.99,.66,3.98,1.81,1.24,1.44,2.89,2.75,4.35,3.85,4.11,3.1,8.78,5.54,13.88,7.24,2.42,.81,4.98,1.45,7.62,1.9-3.17-2.88-5.84-5.94-8.01-9.16-2.41-3.58-6.24-10.62-4.89-17.49,.46-2.41,2.61-4.17,5.11-4.17,2.3,0,4.3,1.45,4.99,3.62,2.87,9.08,13.57,14.16,24.28,18.59,.81,.33,1.66,.67,2.52,1.01,8.16,3.26,17.41,6.95,22.82,15.25,3,4.6,3.73,10.31,2.11,16.51-.12,.45-.25,.89-.4,1.33-.16,.52-.34,1.04-.55,1.59,2.34,.97,4.48,2.07,6.22,3,1.9,1,2.99,3.13,2.67,5.29-.33,2.17-2.02,3.9-4.21,4.3-2.78,.55-5.66,1.38-8.25,2.38-2.3,.91-4.41,1.96-6.24,3.08-2.87,1.81-4.92,3.86-6.08,6.08l121.77,140.93c5.24,6.07,5.76,14.05,1.17,18.18-1.77,1.59-3.94,2.43-6.27,2.43h0ZM40.86,68.82c2.3,4.88,4.8,9.7,8.31,13.35,1.61,1.67,4.03,3.67,6.42,3.67,.24,0,.49-.02,.73-.06,1.43-.24,2.54-.7,3.29-1.36,.51-.45,1.04-.89,1.59-1.3-.75-1-1.12-2.26-1.02-3.52,.08-.98,.44-1.9,1.02-2.67l-4.91-5.82c-2.12-2.51-4.11-4.87-6.5-6.37-.92-.58-1.81-.91-2.43-.91-.28,0-.54,.06-.89,.35-.56,.46-1.07,1.1-1.35,1.71-.78,1.66-2.42,2.79-4.26,2.94Zm36.1-3.81c1.44,0,2.78,.6,3.74,1.66,.5-.48,1.02-.93,1.56-1.36,.78-.62,1.42-1.64,1.9-3.01,.87-2.51-.8-5.54-2.35-7.65-3-4.06-7.31-7.33-11.72-10.42-.47,1.71-1.81,3.11-3.61,3.61-.47,.13-2.82,.9-2.4,2.97,.57,2.82,2.67,5.5,5.16,8.44l5.36,6.35c.73-.38,1.56-.6,2.37-.6Z"/><path class="b" d="M204.53,244.86c-3.59,0-7.18-1.96-10.39-5.68-.07-.08-.6-.74-.93-1.15l-.2-.25L75.03,93.9c-2.23,.84-4.43,2.46-6.58,4.86-1.38,1.57-2.76,3.47-4.06,5.61-1.4,2.35-2.71,5.06-3.75,7.79-.74,1.99-2.69,3.35-4.83,3.35s-4.17-1.43-4.87-3.55c-.62-1.86-1.34-4.15-1.91-6.63-.94,.19-1.96,.37-3.04,.46-.78,.07-1.56,.1-2.31,.1-5.4,0-10.1-1.72-13.61-4.96-7.27-6.73-9.35-16.47-11.18-25.06-.19-.91-.38-1.8-.58-2.68-2.55-11.29-5.76-22.69-14.22-27.04-2.12-1.1-3.21-3.5-2.67-5.84,.54-2.32,2.57-3.97,4.93-4.02h.33c6.86,0,13.01,4.87,16.06,7.77,2.78,2.64,5.32,5.76,7.61,9.32-.05-9.69-2.6-18.81-7.36-26.1-.37-.57-.73-1.11-1.08-1.54-1.29-1.57-1.56-3.66-.71-5.47,.85-1.8,2.71-2.96,4.73-2.96,1.54,0,2.99,.66,3.98,1.81,1.24,1.44,2.89,2.75,4.35,3.85,4.11,3.1,8.78,5.54,13.88,7.24,2.42,.81,4.98,1.45,7.62,1.9-3.17-2.88-5.84-5.94-8.01-9.16-2.41-3.58-6.24-10.62-4.89-17.49,.46-2.41,2.61-4.17,5.11-4.17,2.3,0,4.3,1.45,4.99,3.62,2.87,9.08,13.57,14.16,24.28,18.59,.81,.33,1.66,.67,2.52,1.01,8.16,3.26,17.41,6.95,22.82,15.25,3,4.6,3.73,10.31,2.11,16.51-.12,.45-.25,.89-.4,1.33-.16,.52-.34,1.04-.55,1.59,2.34,.97,4.48,2.07,6.22,3,1.9,1,2.99,3.13,2.67,5.29-.33,2.17-2.02,3.9-4.21,4.3-2.78,.55-5.66,1.38-8.25,2.38-2.3,.91-4.41,1.96-6.24,3.08-2.87,1.81-4.92,3.86-6.08,6.08l121.77,140.93c5.24,6.07,5.76,14.05,1.17,18.18-1.77,1.59-3.94,2.43-6.27,2.43h0ZM35.86,63.82c2.3,4.88,4.8,9.7,8.31,13.35,1.61,1.67,4.03,3.67,6.42,3.67,.24,0,.49-.02,.73-.06,1.43-.24,2.54-.7,3.29-1.36,.51-.45,1.04-.89,1.59-1.3-.75-1-1.12-2.26-1.02-3.52,.08-.98,.44-1.9,1.02-2.67l-4.91-5.82c-2.12-2.51-4.11-4.87-6.5-6.37-.92-.58-1.81-.91-2.43-.91-.28,0-.54,.06-.89,.35-.56,.46-1.07,1.1-1.35,1.71-.78,1.66-2.42,2.79-4.26,2.94Zm36.1-3.81c1.44,0,2.78,.6,3.74,1.66,.5-.48,1.02-.93,1.56-1.36,.78-.62,1.42-1.64,1.9-3.01,.87-2.51-.8-5.54-2.35-7.65-3-4.06-7.31-7.33-11.72-10.42-.47,1.71-1.81,3.11-3.61,3.61-.47,.13-2.82,.9-2.4,2.97,.57,2.82,2.67,5.5,5.16,8.44l5.36,6.35c.73-.38,1.56-.6,2.37-.6Z"/><g><path class="f" d="M77.41,78.88L205.85,227.52c3.39,3.93,4.11,8.94,1.61,11.19-2.5,2.25-6.15,1.13-9.54-2.8-.09-.1-.94-1.18-1.02-1.28L72.53,82.97c-1.71-2.1-1.97-4.68-.58-5.76,1.35-1.05,3.76-.29,5.46,1.67Z"/><g><g><path class="g" d="M23.33,72c-2.76-12.38-7.3-25.87-16.89-30.51,0,0,13.35-.43,24.05,23.04,9.03,19.79,17.5,24.9,26.84,19.49,5.24-5.65,13.47-5.57,13.47-5.57l8.2,9.58c-14.46-.7-23.17,22.27-23.17,22.27-1.53-4.43-2.34-8.25-2.62-11.54-2.11,.78-4.37,1.38-6.8,1.73-17.18,2.44-20.33-16.1-23.09-28.49Z"/><path class="d" d="M6.9,41.5c2.42,.17,14.05,2.11,23.59,23.02,9.03,19.79,17.5,24.9,26.84,19.49,3.03-3.27,7.07-4.62,9.93-5.18,2.06,1.84,3.32,2.96,3.32,2.96,0,0-10.22,10.86-20.07,11.85-4.7,.47-8.84-.53-12.3-3.65-11.33-10.23-10.09-25.67-20.4-40.42-3.3-4.72-7.98-7.03-10.91-8.07Z"/><path class="h" d="M70.58,81.8c-1.33,1.51-2.78,2.91-4.3,4.24-1.52,1.33-3.11,2.58-4.78,3.73-1.68,1.13-3.46,2.15-5.34,2.97-1.87,.82-3.9,1.41-5.97,1.61-2.06,.21-4.18,.14-6.23-.38-2.05-.51-4-1.49-5.65-2.81-3.22-2.66-5.7-6.06-7.57-9.7-1.86-3.66-3.16-7.52-4.43-11.33-1.24-3.82-2.51-7.61-4.07-11.27-.78-1.83-1.65-3.62-2.61-5.36-.48-.87-.98-1.73-1.51-2.57-.53-.84-1.07-1.67-1.69-2.44-1.21-1.55-2.67-2.92-4.29-4.08-1.62-1.15-3.38-2.12-5.24-2.89,3.84,1.18,7.43,3.37,10.17,6.43,2.62,3.15,4.65,6.68,6.38,10.36,1.74,3.67,3.05,7.51,4.38,11.3,1.31,3.79,2.61,7.57,4.41,11.07,1.76,3.51,4.13,6.72,7.07,9.23,1.46,1.22,3.17,2.12,5.01,2.62,1.84,.5,3.79,.63,5.73,.5,1.94-.11,3.83-.62,5.67-1.32,1.84-.7,3.61-1.61,5.31-2.64,3.43-2.04,6.59-4.53,9.53-7.26Z"/><path class="e" d="M23.47,71.9c-1.71-7.56-3.86-15.15-7.9-21.84-1.64-2.71-3.74-5.12-6.24-7.05-.93-.72-1.77-1.32-2.87-1.31,.18,0,.37,.01,.55,.03,7.9,.63,14.32,7.8,18.41,13.87,6.38,9.48,9.29,24.02,20.4,29.53,3.15,1.56,6.64,1.32,9.8-.02,2.81-1.19,4.7-3.59,7.56-4.85,2.31-1.01,4.94-1.54,7.45-1.61,.65-.02,2.34,2.59,2.77,3.09,1.54,1.8,3.08,3.6,4.62,5.4,.2,.23,.39,.46,.59,.68,.52,.61,.16-.03-.24-.04-1.3-.03-2.6,.22-3.84,.56-2.92,.78-5.48,2.64-7.68,4.64-4.01,3.65-6.98,8.48-9.38,13.3-.61,1.22-1.17,2.47-1.68,3.74-.02,.06-.05,.12-.07,.18,.37-.97-.68-2.99-.94-3.93-.7-2.47-1.15-5.01-1.39-7.56,0-.08-.07-.2-.17-.16-8.68,3.06-17.33,2.67-22.77-5.48-4.12-6.18-5.38-14.05-6.96-21.16-.06-.27-.32,0-.27,.2,1.91,8.62,3.47,18.85,10.28,25.16,3.31,3.06,7.73,3.93,12.09,3.55,1.32-.11,2.62-.4,3.91-.69,.97-.22,1.91-.52,2.85-.83,1.13-.36,.95,1.35,1.02,1.88,.44,3.15,1.34,6.22,2.35,9.23,.06,.18,.22,.11,.28-.03,3.63-9.48,11.53-22.4,23.01-22.13,.19,0,.2-.28,.11-.39-2.16-2.53-4.32-5.05-6.49-7.58-.25-.29-1.36-2.03-1.78-2.03-1.62,0-3.24,.3-4.81,.67-3.02,.72-5.76,2.19-8.07,4.25-1.63,1.45-3.67,2.21-5.81,2.56-4.55,.75-8.55-1.95-11.56-5.07-4.65-4.84-7.62-11.2-10.41-17.21-2.69-5.8-6.22-11.34-10.87-15.77-3.22-3.06-8.13-6.51-12.84-6.39-.19,0-.23,.33-.07,.41,10.8,5.55,14.35,19.51,16.81,30.41,.06,.27,.32,0,.27-.2Z"/><path class="e" d="M42.46,99.99c3.03,1.24,7.22-.08,10.04-1.2,3.69-1.47,7.12-3.61,10.23-6.08,2.17-1.72,4.11-3.74,6.36-5.36,2.19-1.58,4.6-2.33,7.3-2.38,.19,0,.27,.24,.05,.24-2.94,.05-5.42,.99-7.72,2.8-2.39,1.87-4.53,4.03-6.97,5.84-4.69,3.48-10.64,6.87-16.68,6.77-.89-.01-1.88-.07-2.72-.41-.21-.08-.05-.28,.13-.21h0Z"/></g><g><path class="g" d="M75.22,28.22c-11.74-4.81-24.27-11.56-27.23-21.79,0,0-2.68,13.08,18.66,27.59,17.99,12.23,21.59,21.44,14.69,29.74-6.45,4.21-7.76,12.34-7.76,12.34l8.06,9.69c1.75-14.37,25.86-19.09,25.86-19.09-4.11-2.25-7.74-3.7-10.93-4.52,1.12-1.94,2.1-4.07,2.85-6.41,5.3-16.53-12.45-22.75-24.19-27.56Z"/><path class="d" d="M47.93,6.89c-.24,2.42-.29,14.21,18.72,27.13,17.99,12.23,21.59,21.44,14.69,29.74-3.74,2.44-5.75,6.19-6.78,8.92,1.46,2.34,2.36,3.77,2.36,3.77,0,0,12.42-8.24,15.06-17.79,1.26-4.55,.97-8.8-1.52-12.73-8.18-12.89-23.6-14.27-36.4-26.92-4.09-4.05-5.58-9.05-6.12-12.11Z"/><path class="h" d="M76.92,76.45c1.71-1.06,3.34-2.25,4.9-3.53,1.56-1.27,3.07-2.63,4.48-4.09,1.4-1.47,2.7-3.04,3.83-4.76,1.12-1.71,2.05-3.61,2.59-5.61,.55-2,.85-4.09,.67-6.21-.16-2.11-.79-4.19-1.82-6.04-2.08-3.62-5.01-6.64-8.29-9.1-3.3-2.45-6.88-4.38-10.42-6.27-3.56-1.87-7.08-3.75-10.42-5.91-1.67-1.08-3.29-2.24-4.84-3.48-.78-.62-1.54-1.26-2.28-1.92-.74-.67-1.47-1.34-2.12-2.07-1.32-1.46-2.43-3.12-3.3-4.91-.86-1.79-1.52-3.69-1.96-5.66,.51,3.99,2.07,7.89,4.62,11.11,2.67,3.11,5.8,5.71,9.13,8.04,3.33,2.33,6.89,4.27,10.4,6.22,3.52,1.93,7.02,3.85,10.17,6.22,3.16,2.32,5.93,5.2,7.91,8.53,.96,1.64,1.56,3.48,1.74,5.38,.19,1.9-.02,3.85-.47,5.73-.44,1.89-1.26,3.67-2.26,5.37-1,1.69-2.2,3.28-3.5,4.79-2.58,3.03-5.58,5.73-8.76,8.17Z"/><path class="e" d="M75.1,28.34c-7.17-2.96-14.28-6.36-20.2-11.47-2.4-2.07-4.41-4.55-5.9-7.34-.55-1.04-1.01-1.97-.8-3.05-.03,.18-.05,.36-.07,.55-.71,7.89,5.27,15.43,10.57,20.48,8.27,7.88,22.11,13.2,25.67,25.08,1.01,3.36,.18,6.77-1.67,9.66-1.64,2.56-4.33,4.03-6.05,6.64-1.38,2.1-2.34,4.61-2.84,7.07-.13,.64,2.16,2.74,2.58,3.25,1.51,1.82,3.03,3.64,4.54,5.46,.19,.23,.38,.46,.58,.69,.51,.62-.06,.16,0-.25,.19-1.29,.66-2.52,1.2-3.7,1.26-2.74,3.52-4.96,5.87-6.79,4.28-3.34,9.54-5.45,14.69-7.01,1.31-.39,2.63-.74,3.97-1.03,.06-.01,.12-.02,.19-.04-1.02,.2-2.83-1.17-3.72-1.59-2.32-1.1-4.74-1.98-7.22-2.65-.08-.02-.18-.11-.13-.2,4.48-8.04,5.56-16.63-1.57-23.36-5.4-5.1-12.94-7.67-19.69-10.42-.26-.11,.05-.31,.24-.24,8.18,3.34,18,6.59,23.06,14.37,2.46,3.77,2.57,8.28,1.46,12.52-.33,1.28-.83,2.51-1.34,3.73-.38,.92-.84,1.79-1.29,2.67-.55,1.05,1.17,1.16,1.68,1.32,3.03,.97,5.91,2.37,8.7,3.87,.17,.09,.07,.24-.08,.27-9.96,1.98-24.02,7.59-25.69,18.96-.03,.19-.31,.15-.4,.04-2.13-2.56-4.25-5.11-6.38-7.67-.24-.29-1.77-1.69-1.7-2.1,.27-1.6,.84-3.15,1.47-4.63,1.22-2.86,3.13-5.31,5.55-7.24,1.7-1.36,2.8-3.25,3.51-5.29,1.51-4.36-.48-8.76-3.05-12.25-3.98-5.4-9.75-9.4-15.21-13.16-5.27-3.63-10.13-8.04-13.71-13.37-2.48-3.69-5.04-9.11-4.14-13.73,.04-.18,.37-.17,.42,0,3.66,11.58,16.81,17.43,27.14,21.7,.26,.11-.05,.32-.24,.24Z"/><path class="e" d="M99.87,51.75c.61,2.73-.81,6.03-2.03,8.37-1.75,3.35-4.2,6.34-6.88,9-2.2,2.18-4.67,4-7.01,6.01-2.43,2.09-3.99,4.47-4.6,7.65-.03,.16-.36,.1-.33-.06,.45-2.39,1.42-4.5,3.09-6.28,1.88-1.99,4.19-3.55,6.25-5.34,4.8-4.17,9.81-9.79,11.04-16.25,.19-.98,.35-2.1,.13-3.09-.04-.17,.3-.15,.33,0h0Z"/></g></g><g><path class="d" d="M72.6,83.29s-16.81-19.93-18.45-21.87c-1.64-1.94-5.55-6.44-10-7.63-5.79-1.55-8.77,4.86-8.77,4.86,1.91-22.54-9.44-36.21-9.44-36.21,0,0,11.57,13.49,34.1,15.4,0,0-6.82,1.85-6.27,7.82,.42,4.59,4.2,9.21,5.83,11.15,1.64,1.94,18.45,21.87,18.45,21.87l-5.45,4.6Z"/><path class="k" d="M53.77,45.68c.42,4.59,4.2,9.21,5.83,11.15,1.64,1.94,18.45,21.87,18.45,21.87l-2.73,2.3L25.94,22.45s11.57,13.49,34.1,15.4c0,0-6.82,1.85-6.27,7.82Z"/><path class="h" d="M75.33,80.99s-.18-.24-.53-.68c-.34-.44-.85-1.09-1.49-1.92-1.29-1.65-3.15-4-5.4-6.79-1.13-1.4-2.34-2.91-3.65-4.51-1.3-1.59-2.67-3.28-4.1-5-1.43-1.73-2.9-3.52-4.42-5.33-1.51-1.81-3.05-3.64-4.59-5.47-1.55-1.82-3.1-3.65-4.62-5.44-1.52-1.8-3.05-3.55-4.5-5.25-1.46-1.7-2.89-3.34-4.24-4.89-1.35-1.55-2.64-3.01-3.83-4.36-2.38-2.69-4.38-4.92-5.79-6.47-.71-.77-1.26-1.38-1.64-1.79l-.58-.63s.18,.24,.53,.68c.34,.44,.85,1.09,1.49,1.92,1.29,1.65,3.15,4,5.4,6.8,1.12,1.4,2.34,2.91,3.65,4.51,1.3,1.59,2.67,3.28,4.1,5,1.43,1.73,2.9,3.52,4.42,5.33,1.51,1.81,3.05,3.64,4.59,5.47,1.55,1.82,3.1,3.65,4.62,5.44,1.52,1.8,3.05,3.55,4.51,5.25,1.46,1.7,2.89,3.34,4.24,4.89,1.35,1.55,2.64,3.01,3.83,4.36,2.38,2.69,4.38,4.92,5.79,6.47,.71,.77,1.26,1.38,1.64,1.8l.58,.63Z"/><path class="e" d="M72.41,83.38c-3.66-4.34-7.32-8.68-10.98-13.01l-6.32-7.49c-2.29-2.72-4.61-5.47-7.65-7.38-2.93-1.84-6.31-2.54-9.16-.19-1.11,.91-2.08,2.13-2.7,3.44-.08,.18-.47,.07-.45-.12,.95-11.76-1.46-24.12-7.97-34.09-.44-.68-.9-1.36-1.42-1.99-.19-.23,.23-.34,.37-.17,1.49,1.73,3.32,3.21,5.13,4.58,4.62,3.48,9.83,6.16,15.31,7.99,4.38,1.46,8.91,2.35,13.51,2.76,.2,.02,.29,.26,.07,.33-3.98,1.11-6.81,4.55-5.96,8.77,.83,4.11,3.6,7.56,6.24,10.68,4.46,5.29,8.92,10.58,13.38,15.86,1.48,1.76,2.96,3.51,4.45,5.27,.05,.06,.07,.15,0,.21l-5.45,4.6c-.16,.13-.58-.07-.38-.24,1.34-1.13,2.67-2.25,4.01-3.38,.33-.28,.67-.56,1-.85,.21-.18,.39-.5,.44-.17-.02-.15-.35-.41-.44-.52-2.42-2.87-4.84-5.74-7.26-8.61-2.92-3.47-5.85-6.93-8.77-10.4-2.67-3.16-5.49-6.31-7.01-10.21-1.13-2.89-1.33-6.07,.87-8.5,1.22-1.34,2.95-2.36,4.7-2.85l.07,.33c-11.84-1.05-23.7-5.55-32.5-13.71-.61-.56-1.22-1.14-1.76-1.77,.12-.06,.25-.12,.37-.17,1.5,1.82,2.69,3.94,3.76,6.02,2.7,5.26,4.48,11,5.33,16.84,.65,4.46,.75,8.98,.39,13.47-.15-.04-.3-.08-.45-.12,1.4-2.96,4.42-5.48,7.83-5.16,4.7,.45,8.56,4.62,11.42,8.01,4.46,5.27,8.91,10.56,13.36,15.84,1.67,1.98,3.34,3.96,5.01,5.94,.19,.22-.23,.34-.37,.17Z"/></g><g><path class="i" d="M68.25,68.98c1.47,1.6,1.03,2.85,.04,3.68-.99,.84-2.28,1.06-3.62-.66-1.54-1.97-1.4-5.29-1.4-5.29,0,0,3.29,.43,4.98,2.26Z"/><path class="l" d="M66.65,71.47c-.31,.18-1.03,.6-2.1-.78-.81-1.04-1.11-2.65-1.2-3.77,1.01,.25,2.58,.79,3.52,1.81,.35,.38,.76,.95,.73,1.49-.02,.34-.23,.68-.61,1.01-.11,.1-.23,.18-.34,.24Z"/><path class="j" d="M65.37,69.68c-.16,.09-.4,.24-1.03-.57-.45-.57-.7-1.37-.85-2.08,.68,.26,1.42,.65,1.91,1.19,.42,.46,.52,.77,.52,.88,0,.08-.09,.23-.32,.43-.08,.06-.15,.12-.22,.16Z"/><g><path class="i" d="M65.38,73.1c2.17,.1,2.74,1.28,2.63,2.57-.11,1.29-.87,2.36-3.03,2.09-2.48-.3-4.73-2.75-4.73-2.75,0,0,2.63-2.03,5.12-1.92Z"/><path class="l" d="M65.76,76.7c-.34,.2-.86,.26-1.51,.18-1.3-.16-2.66-1.09-3.51-1.82,.04-.02,.08-.05,.12-.07,.77-.45,2.27-1.19,3.65-1.13,.52,.02,1.21,.14,1.57,.54,.23,.26,.32,.64,.28,1.14-.07,.86-.47,1.09-.6,1.17Z"/><path class="j" d="M63.96,75.87c-.13,.08-.46,.14-.99,.07-.72-.09-1.46-.47-2.07-.87,.65-.28,1.46-.54,2.19-.51,.62,.03,.91,.17,.99,.26,.05,.06,.1,.23,.08,.53-.01,.16-.06,.45-.19,.52Z"/><path class="i" d="M69.21,69.86c-.27,2.16,.81,2.92,2.1,3.02,1.29,.11,2.47-.46,2.57-2.63,.11-2.49-1.92-5.12-1.92-5.12,0,0-2.44,2.25-2.74,4.73Z"/><path class="l" d="M72.41,71.03c-.25,.14-.58,.2-.98,.16-.5-.04-.86-.2-1.08-.46-.34-.42-.33-1.12-.27-1.64,.16-1.31,1.09-2.66,1.82-3.51,.54,.89,1.27,2.38,1.21,3.77-.04,.87-.27,1.44-.7,1.68h0Z"/><path class="j" d="M72.09,69.04s-.17,.08-.5,.05c-.3-.03-.46-.1-.51-.16-.07-.08-.17-.39-.09-1.01,.09-.72,.48-1.47,.87-2.07,.3,.67,.54,1.46,.51,2.19-.03,.68-.19,.96-.29,1.01Z"/></g><g><g><path class="i" d="M66.01,77.77c2.15-.34,2.94,.71,3.09,1.99,.15,1.28-.38,2.49-2.55,2.66-2.49,.19-5.18-1.75-5.18-1.75,0,0,2.17-2.51,4.64-2.9Z"/><path class="l" d="M66.94,81.37c-.3,.17-.71,.28-1.23,.32-1.31,.1-2.82-.54-3.8-1.08,.42-.38,1.01-.86,1.68-1.25,.63-.36,1.22-.59,1.77-.68,.51-.08,1.22-.11,1.65,.21,.27,.21,.44,.57,.5,1.06,.11,.91-.27,1.24-.56,1.42Z"/><path class="j" d="M65.24,80.84c-.11,.06-.36,.17-.88,.21-.72,.06-1.53-.17-2.2-.44,.18-.12,.36-.25,.56-.36,.54-.31,1.04-.51,1.49-.58,.62-.1,.93-.01,1.02,.05,.06,.05,.14,.21,.18,.5,.06,.48-.07,.55-.16,.61Z"/></g><g><path class="i" d="M73.71,71.27c-.7,2.06,.21,3.02,1.45,3.38,1.24,.36,2.52,.04,3.04-2.07,.61-2.42-.86-5.4-.86-5.4,0,0-2.84,1.72-3.63,4.09Z"/><path class="l" d="M76.83,73.02c-.3,.17-.69,.19-1.18,.05-.48-.14-.81-.37-.97-.67-.25-.47-.1-1.16,.06-1.66,.44-1.31,1.66-2.44,2.48-3.08,.35,.98,.77,2.58,.43,3.93-.13,.5-.37,1.16-.84,1.43h0Z"/><path class="j" d="M76.78,71.05c-.07,.04-.24,.05-.53-.03-.29-.08-.43-.19-.47-.26-.05-.1-.08-.42,.12-1.01,.23-.69,.75-1.34,1.27-1.86,.16,.72,.24,1.54,.06,2.25-.15,.61-.36,.86-.45,.92Z"/></g></g><path class="e" d="M68.2,69.09c.94,1.11,1.23,2.4,.06,3.47-.49,.45-1.12,.65-1.78,.6-2.02-.18-2.79-3.15-3.03-4.74-.08-.51-.1-1.04-.1-1.56,.02-.13,0-.13-.06,0,.15,.02,.3,.05,.45,.08,1.64,.31,3.25,.97,4.45,2.16,.1,.1,.18-.13,.11-.21-1.33-1.31-3.19-2.03-5.02-2.29-.06,0-.1,.07-.1,.12-.07,2.34,.6,6.02,3.28,6.69,1.07,.27,2.14-.7,2.62-1.55,.59-1.04-.11-2.18-.78-2.97-.09-.1-.18,.12-.11,.21Z"/><g><path class="e" d="M65.37,73.22c1.26,.11,2.37,.54,2.56,1.93,.17,1.25-.56,2.22-1.75,2.49-1.8,.4-3.71-.85-5.02-1.94-.28-.23-.54-.48-.8-.74-.1-.1-.13,.21,0,.12,.14-.1,.29-.2,.43-.3,1.36-.9,2.94-1.58,4.59-1.56,.12,0,.14-.25,.02-.25-1.85-.01-3.7,.82-5.17,1.93-.06,.05-.07,.16-.02,.21,1.43,1.53,4.43,3.72,6.63,2.58,1.01-.53,1.31-1.51,1.27-2.6-.06-1.49-1.43-2.02-2.71-2.13-.12,0-.14,.24-.02,.25Z"/><path class="e" d="M69.12,69.85c-.11,1.26,.1,2.44,1.36,2.98,.96,.41,2.44,.22,2.99-.76,1.26-2.25-.04-5.18-1.46-7.05-.03-.04-.08-.02-.11,0-1.35,1.27-2.48,2.97-2.78,4.82-.02,.15,.15,.17,.17,.02,.24-1.52,1.08-2.82,2.07-3.97,.2-.23,.41-.45,.63-.66-.11,.1,.36,.66,.45,.81,1.01,1.63,1.8,3.73,1.03,5.62-.41,1-1.5,1.17-2.43,1.05-1.49-.18-1.86-1.54-1.75-2.86,.01-.15-.16-.17-.17-.02Z"/></g><g><path class="e" d="M66.03,77.89c1.25-.14,2.4,.05,2.88,1.36,.57,1.53-.43,2.66-1.85,2.99-1.57,.36-3.27-.34-4.63-1.06-.32-.17-.64-.37-.94-.57-.12-.08-.1,.22,.02,.08,.11-.12,.23-.24,.35-.36,1.15-1.16,2.57-2.11,4.18-2.44,.11-.02,.1-.27-.02-.24-1.83,.37-3.46,1.54-4.68,2.93-.05,.06-.05,.16,.02,.21,1.66,1.18,5.42,2.92,7.2,1.05,.78-.83,.82-1.93,.43-2.96-.46-1.25-1.84-1.35-2.97-1.22-.11,.01-.1,.26,.02,.24Z"/><path class="e" d="M73.63,71.23c-.36,1.23-.38,2.43,.76,3.22,1.05,.73,2.44,.57,3.25-.38,1.56-1.8,.69-5.08-.23-6.97-.02-.04-.07-.05-.1-.03-1.58,.97-3.02,2.41-3.68,4.16-.05,.13,.1,.23,.16,.08,.56-1.49,1.69-2.63,2.94-3.57,.19-.14,.61-.35,.55-.46,.16,.33,.29,.68,.41,1.03,.63,1.77,.94,3.92-.16,5.58-.6,.9-1.7,.86-2.6,.56-1.41-.47-1.52-1.87-1.14-3.14,.04-.13-.12-.24-.16-.08Z"/></g><path class="l" d="M76.41,73.14c2.39,2.49,.89,5.14-1.6,7.24-2.49,2.1-5.34,3.13-7.41,.36-2.37-3.17-.56-9.79-.56-9.79,0,0,6.81-.67,9.56,2.18Z"/><path class="i" d="M76.68,73.45c1.55,3.84-5.76,7.25-7.79,4.44-1.78-2.47-1.15-6.11-1.15-6.11,1.34-.24,5.27-.21,5.97-.2-3.07-1-6.86-.62-6.86-.62,0,0-1.81,6.62,.56,9.79,2.06,2.77,4.92,1.74,7.41-.36,2.38-2.01,3.85-4.53,1.87-6.93Z"/><path class="e" d="M76.36,73.24c3.13,3.52-1.32,7.74-4.71,8.87-4.58,1.53-5.54-4.53-5.3-7.64,.08-1.11,.28-2.22,.54-3.3,.06-.23-.09-.09,.11-.11,.38-.03,.76-.04,1.14-.05,2.77-.07,6.12,.22,8.22,2.23,.1,.1,.19-.13,.11-.21-2.4-2.3-6.46-2.5-9.6-2.21-.05,0-.08,.04-.09,.08-.94,3.51-1.73,10.62,3.14,11.6,2.55,.51,5.31-2.06,6.72-3.86,1.42-1.83,1.37-3.89-.16-5.61-.09-.1-.18,.13-.11,.21Z"/><path class="j" d="M69.55,72.16s3.39-.37,5.26,.83c2.05,1.31,1.3,3.51-.54,4.19-1.84,.68-.42-1.2-.48-2.31-.07-1.15-2.73-2.49-4.23-2.71Z"/><g><path class="l" d="M81.65,77.35c.56,.8,.5,1.78-.13,2.22-3.05,2.13-5.81,4.63-8.23,7.48-.5,.58-1.47,.54-2.18-.13-.09-.08-.17-.16-.26-.24-.71-.66-.87-1.73-.34-2.35,2.56-3,5.47-5.64,8.69-7.89,.67-.47,1.68-.18,2.25,.62,.07,.1,.14,.19,.2,.29Z"/><path class="i" d="M81.65,77.35s-.03-.05-.05-.08c-1.93,3.07-10.26,8.96-9.06,6.32,1.29-2.84,7.25-7.23,7.25-7.23,0,0-.05-.05-.16-.11-.15,.04-.3,.09-.43,.18-3.22,2.25-6.13,4.89-8.69,7.89-.53,.63-.37,1.69,.34,2.35,.09,.08,.17,.16,.26,.24,.71,.67,1.68,.71,2.18,.13,1.82-2.13,3.97-3.97,6.14-5.7,.73-.58,1.33-1.24,2.09-1.78,.63-.44,.7-1.42,.13-2.22Z"/><path class="e" d="M81.55,77.41c1.06,2.16-4.06,5.06-5.05,5.98-.73,.67-4.21,5.11-5.31,3.42-1.86-2.87,2.04-5.15,3.22-6.26,.83-.78,5.25-5.8,7.16-3.1,.17,.24,.28-.05,.16-.22-.67-.94-1.18-1.15-2.03-1.21-.72-.06-1.39,.8-1.86,1.14-1.05,.78-2.05,1.62-3.03,2.48-1.58,1.39-3.03,2.92-4.41,4.51-.31,.36-.59,1.37-.05,2.07,.83,1.08,1.01,1.48,2.08,1.47,.33,0,.79-.28,.98-.49,1.04-1.2,2.13-2.35,3.28-3.44,1.52-1.46,3.58-2.45,4.96-4.03,.58-.67,.7-1.28,.12-2.46-.13-.27-.31-.07-.21,.13Z"/></g></g></g></svg>