<?xml version="1.0" encoding="UTF-8"?><svg id="a" xmlns="http://www.w3.org/2000/svg" viewBox="0 0 228.9 188.89"><defs><style>.b{stroke:#f2a396;}.b,.c,.d,.e,.f,.g,.h,.i,.j{stroke-miterlimit:10;}.b,.d,.e,.f,.h,.i{stroke-width:.5px;}.b,.e,.f,.g,.h,.i,.j{fill:none;}.k,.c{fill:#fff;}.l{fill:#654eea;}.m{opacity:.5;}.c{stroke:#3d2e17;}.c,.g,.j{stroke-width:.25px;}.d{fill:#5d42ce;}.d,.e{stroke:#2b1daa;}.n{fill:#342517;}.o{fill:#f3a097;}.p{fill:#eeb637;}.f{stroke:#ee5ba0;}.g{stroke:#1d1c1a;}.h{stroke:#7fa43f;}.q{fill:#f05e63;}.r{fill:#d2414d;}.s{fill:#8eb856;}.t{fill:#2723cc;}.i{stroke:#d2414d;}.j{stroke:#424127;}.u{fill:#3d2e17;}.v{fill:#ee5ba0;}.w{fill:#f2a396;}.x{fill:#f49fc3;}.y{fill:#f9d1c6;}</style></defs><path class="m" d="M152.48,186.1c-2.64,0-4.84-2.07-4.99-4.72-.14-2.58,.03-5.2,.52-7.78,.41-2.13,1.02-4.2,1.82-6.18-.42-4.39-.08-8.78,1.01-13.1,.93-3.66,2.29-6.76,3.68-9.26-1.55-1.29-3-2.73-4.34-4.3-1.64-1.36-3.17-2.9-4.55-4.59-1.39-1.69-2.62-3.52-3.68-5.45-4.93,7.67-11.4,15.05-19.29,22.02,7.28,3.3,13.92,10.88,16.24,24.69,.05,.27,.07,.55,.07,.83v2.83c0,2.76-2.24,5-5,5h-22.28c-1.72,0-3.31-.88-4.23-2.33-1.53-2.43-3.48-4.19-4.87-5.26-1.67,.49-3.33,.82-4.96,.97-.05,0-.1,0-.16,.01-.69,.06-1.38,.09-2.05,.09-1.5,0-2.97-.14-4.38-.43-.08,.02-.16,.04-.24,.05-.35,.08-.71,.11-1.06,.11-1.33,0-2.6-.54-3.53-1.46-2.54,.29-5.02,.47-7.39,.54-.05,0-.09,0-.14,0,0,0-.28,0-.32,0-.88,.03-1.73,.04-2.58,.04-5.82,0-11.44-.66-16.71-1.96-4.99-1.22-9.53-2.97-13.89-5.33-16.91-9.2-28.73-26.71-34.17-50.64-4.47-19.65-4.24-42.16,.63-61.76,2.17-8.72,5.4-17.25,9.63-25.36,.17-.33,.38-.64,.62-.93,2.05-2.42,4.49-4.26,7.24-5.47,1.13-.5,4.03-1.64,6.58-1.64,0,0,.27,0,.39,0,1.29,0,2.32,.29,3.13,.69,1.08-.72,2.38-1.1,3.8-1.1,.11,0,.38,0,.4,0,2.52,0,4.98,1.2,6.44,2.32,1.79,1.38,3.09,3.32,3.76,5.6,.35,1.21,.24,2.51-.32,3.64-1.62,3.26-2.86,5.87-3.8,7.96,.61-.1,1.17-.15,1.7-.15,.17,0,.33-.01,.49-.01,.96,0,1.85,.15,2.67,.44,2.85-1.61,5.81-2.47,8.6-2.47,0,0,.28,0,.39,0,2.96,0,5.55,1.01,7.28,2.85,1.14,1.21,2.32,3.2,2.41,6.29,1.08,.75,2.19,1.88,3.21,3.61,.66,1.12,2.13,4.11,1.5,7.88-.6,3.56-2.67,5.62-4.49,7.44-.27,.27-.56,.56-.86,.87-1.02,1.05-1.96,2.3-2.96,3.63-.75,1-1.53,2.04-2.4,3.06-2.13,2.51-6.27,8.71-10.05,22.04-1.54,5.43-2.52,11.08-2.91,16.8l1.89,10.97c.36,1.13,.75,2.25,1.17,3.33,2.59,6.76,4.64,12.1,9.32,15.29,1.63,1.11,3.48,1.91,5.53,2.41,.14-.23,.3-.45,.46-.68,2.61-3.91,7.54-7.15,14.67-9.64,.05-.07,.1-.14,.15-.2,2.99-4.21,5.59-7.61,7.73-10.38,1.07-1.37,2.01-2.55,2.86-3.61,1.41-1.76,2.52-3.14,3.44-4.44,1.06-1.53,1.85-2.95,2.6-4.71,.29-.68,.72-1.94,1.14-3.23,.06-.82,.32-1.6,.73-2.27l.6-1.89c1.5-4.72,2.61-8.4,3.33-10.84-.03-.28-.04-.57-.05-.88-.03-1.74,.42-3.74,.85-5.48v-.03c-.01-9.95,2.22-17.2,4.26-21.73-1.67-.97-2.62-1.76-3.2-2.4-.23-.16-.46-.32-.69-.48-3.64-2.57-5.54-7.94-7.07-12.25-.18-.5-.34-.97-.5-1.4-.14-.38-.24-.64-.31-.82-3.88-3.41-5.56-6.99-6.26-9.03-.01-.02-.09-.1-.12-.13-.1-.11-.24-.27-.38-.44-.36-.44-.68-.86-.95-1.27-.02-.02-.06-.09-.07-.11-.13-.21-.26-.42-.37-.63l-.09-.16c-.14-.27-.25-.5-.34-.74-.03-.07-.06-.15-.09-.21-.15-.4-.26-.77-.34-1.14-.03-.13-.06-.33-.08-.48-.04-.29-.07-.57-.07-.85,0-.17,0-.34,0-.52h0c0-.24,.03-.48,.06-.7,0-.03,0-.05,.01-.08-.11-.19-.21-.39-.31-.59-.02-.04-.05-.1-.07-.15-.16-.34-.3-.69-.43-1.05,0-.02-.04-.11-.04-.13-.52-1.57-.57-3.21-.17-4.72,.04-.17,.1-.36,.17-.55,0-.12,0-.25,0-.39-.01-.43-.02-.99,0-1.59,0-.05,0-.17,0-.3,.03-.93,.12-1.81,.25-2.65l.05-.33c.04-.22,.08-.43,.13-.64,.04-.17,.08-.35,.12-.53,.05-.2,.1-.38,.16-.57,.07-.22,.14-.44,.22-.66,.06-.18,.13-.35,.2-.51,.12-.27,.24-.52,.36-.76,.1-.2,.19-.36,.28-.51,.21-.34,.41-.61,.58-.82,.14-.18,.28-.35,.43-.51,.44-.47,.93-.88,1.45-1.2,1.04-.65,2.9-1.48,3.92-1.91,.58-.25,1.22-.51,1.92-.79,.69-.27,1.43-.55,2.21-.84,3.36-1.22,8.55-2.86,14.18-3.75,2.74-.43,5.35-.65,7.78-.65,4.47,0,8.43,.75,11.75,2.22,.33,.15,.65,.33,.95,.55,.46,.34,.89,.72,1.33,1.18,.1,.1,.19,.21,.29,.32,.32,.36,.58,.69,.81,1.02,.09,.12,.17,.23,.24,.35,.28,.43,.52,.86,.73,1.28,.06,.13,.12,.26,.17,.39,.11,.24,.24,.55,.35,.86,.07,.19,.13,.37,.18,.54,.07,.22,.13,.43,.18,.64,.21,.8,.35,1.56,.44,2.24,.03,.03,.27,.23,.36,.31,.14,.13,.27,.27,.4,.4,.05,.05,.09,.1,.13,.14,.23-.02,.47-.02,.71-.02,1.51,0,3.02,.32,4.49,.95,2.82,1.23,7.7,3.95,8.94,8.47,.34,1.24,.38,2.49,.12,3.71,.91,2.04,1.44,4.15,1.59,6.28,.13,2.02-.08,3.99-.64,5.92,7.96,4.61,15.14,10.36,21.37,17.14,8.19,8.89,14.45,19.17,18.64,30.59,4.13,1.95,7.68,4.84,10.37,8.44,2.17,2.91,3.48,5.87,4.26,8.44,2.37,.48,4.28,1.6,5.62,3.3,2.04,2.6,2.43,6.35,1.18,9.95,1.81,3.58,3.03,7.42,3.54,11.25,.87,6.53-.45,11.55-1.65,15.98-.01,.06-.03,.13-.05,.19-1.06,3.92-2.06,7.63-1.99,12.68,.06,4.35,.98,8.84,2.73,13.34,.59,1.51,.41,3.21-.48,4.56-.89,1.35-2.38,2.19-4,2.25l-67.69,2.47c-.06,0-.12,0-.19,0Z"/><path class="k" d="M147.48,181.1c-2.64,0-4.84-2.07-4.99-4.72-.14-2.58,.03-5.2,.52-7.78,.41-2.13,1.02-4.2,1.82-6.18-.42-4.39-.08-8.78,1.01-13.1,.93-3.66,2.29-6.76,3.68-9.26-1.55-1.29-3-2.73-4.34-4.3-1.64-1.36-3.17-2.9-4.55-4.59-1.39-1.69-2.62-3.52-3.68-5.45-4.93,7.67-11.4,15.05-19.29,22.02,7.28,3.3,13.92,10.88,16.24,24.69,.05,.27,.07,.55,.07,.83v2.83c0,2.76-2.24,5-5,5h-22.28c-1.72,0-3.31-.88-4.23-2.33-1.53-2.43-3.48-4.19-4.87-5.26-1.67,.49-3.33,.82-4.96,.97-.05,0-.1,0-.16,.01-.69,.06-1.38,.09-2.05,.09-1.5,0-2.97-.14-4.38-.43-.08,.02-.16,.04-.24,.05-.35,.08-.71,.11-1.06,.11-1.33,0-2.6-.54-3.53-1.46-2.54,.29-5.02,.47-7.39,.54-.05,0-.09,0-.14,0,0,0-.28,0-.32,0-.88,.03-1.73,.04-2.58,.04-5.82,0-11.44-.66-16.71-1.96-4.99-1.22-9.53-2.97-13.89-5.33-16.91-9.2-28.73-26.71-34.17-50.64-4.47-19.65-4.24-42.16,.63-61.76,2.17-8.72,5.4-17.25,9.63-25.36,.17-.33,.38-.64,.62-.93,2.05-2.42,4.49-4.26,7.24-5.47,1.13-.5,4.03-1.64,6.58-1.64,0,0,.27,0,.39,0,1.29,0,2.32,.29,3.13,.69,1.08-.72,2.38-1.1,3.8-1.1,.11,0,.38,0,.4,0,2.52,0,4.98,1.2,6.44,2.32,1.79,1.38,3.09,3.32,3.76,5.6,.35,1.21,.24,2.51-.32,3.64-1.62,3.26-2.86,5.87-3.8,7.96,.61-.1,1.17-.15,1.7-.15,.17,0,.33-.01,.49-.01,.96,0,1.85,.15,2.67,.44,2.85-1.61,5.81-2.47,8.6-2.47,0,0,.28,0,.39,0,2.96,0,5.55,1.01,7.28,2.85,1.14,1.21,2.32,3.2,2.41,6.29,1.08,.75,2.19,1.88,3.21,3.61,.66,1.12,2.13,4.11,1.5,7.88-.6,3.56-2.67,5.62-4.49,7.44-.27,.27-.56,.56-.86,.87-1.02,1.05-1.96,2.3-2.96,3.63-.75,1-1.53,2.04-2.4,3.06-2.13,2.51-6.27,8.71-10.05,22.04-1.54,5.43-2.52,11.08-2.91,16.8l1.89,10.97c.36,1.13,.75,2.25,1.17,3.33,2.59,6.76,4.64,12.1,9.32,15.29,1.63,1.11,3.48,1.91,5.53,2.41,.14-.23,.3-.45,.46-.68,2.61-3.91,7.54-7.15,14.67-9.64,.05-.07,.1-.14,.15-.2,2.99-4.21,5.59-7.61,7.73-10.38,1.07-1.37,2.01-2.55,2.86-3.61,1.41-1.76,2.52-3.14,3.44-4.44,1.06-1.53,1.85-2.95,2.6-4.71,.29-.68,.72-1.94,1.14-3.23,.06-.82,.32-1.6,.73-2.27l.6-1.89c1.5-4.72,2.61-8.4,3.33-10.84-.03-.28-.04-.57-.05-.88-.03-1.74,.42-3.74,.85-5.48v-.03c-.01-9.95,2.22-17.2,4.26-21.73-1.67-.97-2.62-1.76-3.2-2.4-.23-.16-.46-.32-.69-.48-3.64-2.57-5.54-7.94-7.07-12.25-.18-.5-.34-.97-.5-1.4-.14-.38-.24-.64-.31-.82-3.88-3.41-5.56-6.99-6.26-9.03-.01-.02-.09-.1-.12-.13-.1-.11-.24-.27-.38-.44-.36-.44-.68-.86-.95-1.27-.02-.02-.06-.09-.07-.11-.13-.21-.26-.42-.37-.63l-.09-.16c-.14-.27-.25-.5-.34-.74-.03-.07-.06-.15-.09-.21-.15-.4-.26-.77-.34-1.14-.03-.13-.06-.33-.08-.48-.04-.29-.07-.57-.07-.85,0-.17,0-.34,0-.52h0c0-.24,.03-.48,.06-.7,0-.03,0-.05,.01-.08-.11-.19-.21-.39-.31-.59-.02-.04-.05-.1-.07-.15-.16-.34-.3-.69-.43-1.05,0-.02-.04-.11-.04-.13-.52-1.57-.57-3.21-.17-4.72,.04-.17,.1-.36,.17-.55,0-.12,0-.25,0-.39-.01-.43-.02-.99,0-1.59,0-.05,0-.17,0-.3,.03-.93,.12-1.81,.25-2.65l.05-.33c.04-.22,.08-.43,.13-.64,.04-.17,.08-.35,.12-.53,.05-.2,.1-.38,.16-.57,.07-.22,.14-.44,.22-.66,.06-.18,.13-.35,.2-.51,.12-.27,.24-.52,.36-.76,.1-.2,.19-.36,.28-.51,.21-.34,.41-.61,.58-.82,.14-.18,.28-.35,.43-.51,.44-.47,.93-.88,1.45-1.2,1.04-.65,2.9-1.48,3.92-1.91,.58-.25,1.22-.51,1.92-.79,.69-.27,1.43-.55,2.21-.84,3.36-1.22,8.55-2.86,14.18-3.75,2.74-.43,5.35-.65,7.78-.65,4.47,0,8.43,.75,11.75,2.22,.33,.15,.65,.33,.95,.55,.46,.34,.89,.72,1.33,1.18,.1,.1,.19,.21,.29,.32,.32,.36,.58,.69,.81,1.02,.09,.12,.17,.23,.24,.35,.28,.43,.52,.86,.73,1.28,.06,.13,.12,.26,.17,.39,.11,.24,.24,.55,.35,.86,.07,.19,.13,.37,.18,.54,.07,.22,.13,.43,.18,.64,.21,.8,.35,1.56,.44,2.24,.03,.03,.27,.23,.36,.31,.14,.13,.27,.27,.4,.4,.05,.05,.09,.1,.13,.14,.23-.02,.47-.02,.71-.02,1.51,0,3.02,.32,4.49,.95,2.82,1.23,7.7,3.95,8.94,8.47,.34,1.24,.38,2.49,.12,3.71,.91,2.04,1.44,4.15,1.59,6.28,.13,2.02-.08,3.99-.64,5.92,7.96,4.61,15.14,10.36,21.37,17.14,8.19,8.89,14.45,19.17,18.64,30.59,4.13,1.95,7.68,4.84,10.37,8.44,2.17,2.91,3.48,5.87,4.26,8.44,2.37,.48,4.28,1.6,5.62,3.3,2.04,2.6,2.43,6.35,1.18,9.95,1.81,3.58,3.03,7.42,3.54,11.25,.87,6.53-.45,11.55-1.65,15.98-.01,.06-.03,.13-.05,.19-1.06,3.92-2.06,7.63-1.99,12.68,.06,4.35,.98,8.84,2.73,13.34,.59,1.51,.41,3.21-.48,4.56-.89,1.35-2.38,2.19-4,2.25l-67.69,2.47c-.06,0-.12,0-.19,0Z"/><g><path class="n" d="M134.31,34.07c-.87,1.49-5.47,5.19-5.57,3.32-.32-5.74-4.26-8.45-4.26-8.45,.02-1.34-1.9-2.34-3.58-2.94h-.02c-.35-.13-.7-.24-1.01-.33,1.46-.14,2.47-.16,2.86-.16,1.85,.03,11.19,2.09,11.36,2.2,.02-.02,.03-.03,.05-.03,.06,.08,.13,.16,.19,.25,1.33,1.85,.76,4.81-.03,6.14Z"/><path class="o" d="M122.77,48.41c-.23,.44-4.06,7.33-10.67,7.32,.44-.77,.84-1.81,1.95-1.89,1.11-.1,2.95-1.68,3.1-2,.13-.24,2.18-2.31,5.63-3.43Z"/><path class="x" d="M206.43,109.95c-1.16,1.95-3.07,4.6-6.04,7.12-3.96,3.35-7.97,4.89-10.41,5.6-1.93,2.55-6.8,8.24-15.25,11.42-10.54,3.96-19.76,1.41-22.61,.51-1-.62-2.17-1.39-3.39-2.4-1.38-1.11-2.83-2.5-4.22-4.19-4.41-5.36-5.87-10.96-6.41-13.91,2.36-4.15,4.32-7.77,4.52-8.15,2.72-5.02,4.89-9.32,6.42-12.45-3.37,.06-7.69-.27-12.5-1.6-2.31-.63-4.38-1.41-6.17-2.22-.59-.25-1.14-.52-1.66-.78,.47-.68,1.03-1.57,1.55-2.66,.36-.74,.71-1.58,.98-2.52-.95-2.63-1.46-4.97-1.68-7.06v-.02c-.3-2.9-.06-5.27,.32-7.14,2.5-12.37,14.6-18.64,19.52-26.79,6.33,3.24,15.43,8.89,24.1,18.32,10.76,11.68,15.89,23.73,18.34,30.95,1.95,.73,6.66,2.75,10.35,7.69,3.05,4.1,3.94,8.2,4.24,10.25Z"/><path class="l" d="M114.67,176.1h-7.97c-3.07-4.86-7.33-7.53-8.37-8.13,.02-.02,.05-.02,.06-.03,.21-.08,.4-.17,.6-.25,7.53-3.21,8.94-9.48,9.11-13.04,.9,.27,2.88,1,4.81,2.69,1.25,1.06,2.47,2.53,3.37,4.53,1.95,6.44-.82,12.55-1.61,14.24Z"/><path class="l" d="M128.97,173.27v2.83h-12.02c1.46-6.47,.81-11.03-.66-14.24-.9-1.99-2.12-3.47-3.37-4.53-1.93-1.69-3.91-2.42-4.81-2.69,.05-1.16-.03-2.01-.06-2.42-.03-.16-.16-.73-.17-1.5,3.48-.11,17.47,.89,21.11,22.55Z"/><path class="g" d="M119.88,25.67h-.02c-5.4,.47-16.76,2.36-23.51,9.18,0,0,.02,.11,.08,.33,6.76-6.76,18.05-8.62,23.43-9.1h.02c.36-.03,.7-.06,1.01-.08-.35-.13-.7-.24-1.01-.33Zm19.7,1.14l-.02-.02c-1.69-.84-3.92-.43-5.41,.89,.06,.08,.13,.16,.19,.25,1.47-1.19,3.59-1.53,5.22-.73l.02,.02c.03-.13,.05-.25,.06-.38-.02-.02-.05-.02-.06-.03Z"/><path class="y" d="M139.52,26.79c-.02,.13-.03,.25-.06,.38l-.02-.02c-1.63-.81-3.75-.46-5.22,.73,1.33,1.85,.76,4.81-.03,6.14-.87,1.49-5.47,5.19-5.57,3.32-.32-5.74-4.26-8.45-4.26-8.45,.02-1.34-1.9-2.34-3.58-2.94h-.02c-.32,.02-.65,.05-1.01,.08h-.02c-5.38,.47-16.68,2.34-23.43,9.1,.29,1.08,1.5,4.64,5.57,7.96,.05,.03,.08,.08,.11,.13,.3,.35,.63,1.17,1.03,2.25,1.25,3.4,3.05,9.38,5.81,11.33,.46,.33,.93,.65,1.39,.97-3.13-3.02-.25-6.38,.7-6.74,.93-.36,2.1-.32,2.1-.32,1.22-2.85,4.56-4.38,8.48-4.65,3.94-.27,4.84,1.42,4.05,1.77-1.06,.13-2.02,.35-2.9,.65l-.02,.02c-.55,1.05-1.45,2.45-2.89,3.76-2.98,2.71-6.37,3.32-7.8,3.49,.02,.95,.17,2.39,.96,2.7,.02,0,.03,.01,.05,.02-2.13-.77-2.67-.8-2.73-.67-.14,.29,1.8,1.76,6.31,3.75,.82,.36,1.57,.62,2.18,.73,.46,.08,1.36-.22,2.52-.79,3.1-1.5,8.01-4.92,11.15-8.07,.02,0,.02-.02,.02-.02,1.41-1.39,2.47-2.72,2.85-3.81,.08-.21,.14-.41,.19-.63,1.25-4.4,.05-10.63-1.91-11.98,.54,.19,5.05,.06,7.2-2.42,.66-.76,1.11-1.76,1.12-3.04,.03-2.5-.98-4-2.34-4.7Z"/><path class="g" d="M125,20.89c9.43-1.99,14.3,5.49,14.56,5.9"/><path class="q" d="M139.58,26.8l-.02-.02c-1.69-.84-3.92-.43-5.41,.89-.02,0-.03,.02-.05,.03-.17-.11-9.51-2.17-11.36-2.2-.4,0-1.41,.02-2.86,.16h-.02c-5.4,.47-16.76,2.36-23.51,9.18,0,0-4.54-3.89-1.42-5.27,.11-.08-3.66-3.24-1.77-5.95-.03-.06-.7-7.12,1.77-8.65,2.47-1.55,24.26-11.08,37.09-5.4,3.37,2.48,2.77,7.88,2.77,7.88,0,0,3.23,.36,2.9,4.03,0,.09-.02,.21-.03,.32,.05,.59,2.63,1.98,1.93,5Z"/><path class="r" d="M92.98,23.45c2.65-2.43,5.43-4.75,8.63-6.41,1.07-.51,2.24-.98,3.44-.85-2.43-.06-4.47,1.59-6.37,2.91-1.89,1.44-3.68,3.03-5.35,4.7l-.35-.36h0Z"/><path class="r" d="M94.74,29.4c2.74-2.72,5.62-6.06,9.56-6.85-3.86,.94-6.59,4.38-9.18,7.18l-.38-.33h0Z"/><path class="r" d="M134.58,17.7c-4.64-2.16-10.15-3.68-15.2-2.03,5.05-1.82,10.64-.47,15.42,1.58l-.22,.45h0Z"/><path class="r" d="M137.63,22.3c-4.64-2.16-10.15-3.68-15.2-2.03,5.05-1.82,10.64-.47,15.42,1.58l-.22,.45h0Z"/><path class="w" d="M137.14,29.73s3.53-.28,3.49,1.32c-.03,1.59-3.92,3.21-4.94,2.7"/><path class="w" d="M109.01,42.55c.44,2.27-.27,4.68-1.55,6.57-.31,.65,1.15,1.07,1.7,1.08,2.82,.08,5.19-1.88,7.22-3.67-1.21,1.43-2.65,2.74-4.41,3.55-1.41,.67-4.49,1.23-5.03-.8,0-.18,.08-.36,.2-.48l-.03,.04c1.25-1.85,2.04-4.02,1.9-6.28h0Z"/><path class="u" d="M125.48,47.86c-1.06,.13-2.02,.35-2.9,.65l-.02,.02c-3.39,1.11-5.4,3.13-5.52,3.37-.14,.32-1.95,1.87-3.04,1.96-1.09,.08-1.49,1.09-1.91,1.85s.85,2.77,.85,2.77c0,0-1.35,.28-2.78-.66,0-.02-.02-.02-.02-.02-3.13-3.02-.25-6.38,.7-6.74,.93-.36,2.1-.32,2.1-.32,1.22-2.85,4.56-4.38,8.48-4.65,3.94-.27,4.84,1.42,4.05,1.77Z"/><path class="j" d="M120.94,54.19c-.47,1.12-1.09,1.67-1.58,1.98-.92,.57-2.37,.84-2.37,.84h0"/><path class="x" d="M122.9,92.64c-4.72-3.8-11.8-1.55-12.99-1.14h-.02c-.11,.05-.16,.06-.16,.06-.35-1.53,.73-5.09,.79-5.57-.16-14.41,4.79-22.52,6.14-24.43,.82,.36,1.57,.62,2.18,.73,.46,.08,1.36-.22,2.52-.79-.71,4.75-1.17,10.71-.66,17.53,.38,5.19,1.23,9.76,2.2,13.61Z"/><path class="g" d="M126.87,98.78c.46,.71,1.03,1.57,1.03,1.57l1.88,.68"/><path class="g" d="M126.44,97.48l-.14,.43"/><path class="y" d="M126.27,98.43c-1.16,3.58-2.77,7.85-5.06,12.48-1.71,3.1-3.23,5.51-5.57,9.79-.02,.05-.05,.08-.08,.13-1.87,2.88-4.02,5.79-6.46,8.69-4.81,5.71-9.75,10.13-14.11,13.51l.28,.52c-1.2,.47-2.47,1.08-3.75,1.88-1.46,.9-2.69,1.88-3.73,2.88-2.77,.52-5.36-1.63-5.33-1.85-1.6,4.43-10.79,4.56-11.95,2.77-.06-.11-.11-.24-.11-.38,.87-5.97,9.73-9.6,14.92-11.25t-.02-.03c3.48-4.98,6.52-8.94,8.65-11.69,5.22-6.68,7.63-9.07,9.84-14.27,.46-1.08,1.08-2.93,2.18-6.41v-.02c.14-.44,.29-.9,.44-1.39,1.55-4.87,2.77-8.91,3.59-11.72h.02c1.17-.4,8.2-2.63,12.86,1.14,.49,.38,.93,.84,1.36,1.36,.81,.98,1.47,2.23,1.98,3.8l.03,.06Z"/><path class="g" d="M109.97,91.26c-.02,.08-.05,.16-.06,.24"/><path class="w" d="M105.29,107.11c.09,2.42,.16,4.84,.49,7.25-.5-2.38-.74-4.8-.99-7.21l.5-.03h0Z"/><path class="v" d="M168.26,80.17c.57-1.02,1.55-2.87-.53-1.66-.18,.08-.31,.24-.54,.25,.72-1.29,1.9-3.83,.03-4.56-1.5,.07-2.98,.55-4.25,1.34-2.96,1.78-5.48,5.05-7.39,8.1-1.94,3.19-3.88,6.47-4.98,10.05h-.17l-1.39,.05v-.5l1.37-.02-.22,.17c.57-1.8,1.39-3.48,2.27-5.12,2.73-4.8,5.65-9.99,10.49-12.91,1.04-.7,2.84-1.25,4.27-1.28,2.01,.75,.81,3.39,.02,4.67,2.27-1.44,2.08-.36,1.02,1.42h0Z"/><path class="v" d="M131,83.66c1.26-3.42,.37-6.99,.68-10.52,.41-3.6,2.55-6.73,5.21-9.09-2.58,2.4-4.64,5.55-4.96,9.11-.22,3.52,.75,7.17-.45,10.64l-.48-.14h0Z"/><path class="r" d="M146.76,26.6c-.8,.3-5,1.17-3.66,2.41,1.42,.91,3.56,1.18,5.17,.58,.3-.21,.79-.63,1.1-.99-.26,.44-.6,.83-.98,1.19-.87,.47-1.88,.58-2.84,.51-1.11-.04-4.23-.85-2.88-2.46,1.16-.93,2.68-1.06,4.09-1.25h0Z"/><path class="y" d="M149.04,93.5c-1.53,3.13-3.7,7.44-6.42,12.45-.21,.38-2.17,4-4.52,8.15-1.76,3.07-3.72,6.41-5.33,8.92-3.94,6.12-11.3,15.76-24.84,26.33v.02c-.06,.51-.08,.98-.05,1.38,.02,.78,.14,1.34,.17,1.5,.03,.41,.11,1.27,.06,2.42-.17,3.56-1.58,9.83-9.11,13.04-.21,.08-.4,.17-.6,.25-.02,.02-.05,.02-.06,.03h-.02c-2.25,.89-4.29,1.34-6.14,1.52h-.02c-2.67,.24-4.86-.09-6.49-.59h-.02c-1.42-.43-2.42-.95-2.88-1.28-.19-.13-.3-.22-.3-.27,12.78-5.13,10.32-15.63,9.51-15.41-2.61,2.45-8.34,4.02-9.07,2.34,.71-1.31,2.14-3.65,4.59-5.97,1.04-1,2.28-1.98,3.73-2.88,1.28-.81,2.55-1.41,3.75-1.88,2.53-1.01,4.79-1.38,6.34-1.53l.02-.02c2.1-2.1,5.06-5.41,7.91-9.94,1.66-2.61,2.47-4.37,4.32-7.94,.7-1.34,1.34-2.53,1.91-3.61,.03-.05,.06-.08,.08-.13,2.21-3.4,4.08-6.72,5.62-9.89,1.65-2.99,3.62-6.87,5.68-11.74,1.16-2.72,2.34-5.74,3.5-9.1,1.79,.81,3.86,1.58,6.17,2.22,4.81,1.33,9.13,1.66,12.5,1.6Z"/><path class="y" d="M101.35,142.04l-.13,.13s.08-.09,.11-.13h.02Z"/><path class="w" d="M137.24,108.6c1.27,3.37-.63,7.17-3.77,8.72-.44,.21-.88,.4-1.34,.56,.34-.35,.71-.65,1.06-.96,2.52-2.13,3.95-5.01,4.05-8.32h0Z"/><path class="v" d="M183.32,89.21c2.99,.45,6,1.05,8.66,2.6l-.28,.42c-2.48-1.64-5.48-2.42-8.38-3.02h0Z"/><path class="v" d="M189.75,122.54c2.12-3.67,4.11-7.63,4.52-11.91-.25,4.32-2.09,8.38-4.09,12.17l-.43-.26h0Z"/><path class="v" d="M160.22,56.67c4.15,6.58,5.5,15.7,1.06,22.46,.2-.47,.72-1.56,.92-2,2.62-6.68,1.16-14.21-1.98-20.46h0Z"/><path class="v" d="M167.06,65.27c1.2,4.12,.14,8.91-2.8,12.06,2.33-3.55,3.29-7.85,2.8-12.06h0Z"/><path class="g" d="M148.72,132.2c-.06-.08-.13-.14-.19-.22"/><path class="s" d="M165.9,159.97c-3.04-.43-2.33-3.99-2.33-3.99-.08-1.74-.71-11.85-.93-15.24,.98,.08,1.95,.05,2.93-.05-.27,3.4,1.76,13.62,1.9,14.29,.14,.66,1.46,5.41-1.57,4.98Z"/><path class="s" d="M163.58,155.98s-2.8-.85-3.09-.9c-.25-.05-.06-11.5-.02-14.65,.73,.17,1.46,.27,2.17,.32,.22,3.39,.85,13.5,.93,15.24Z"/><path class="s" d="M211.65,118.59c-.76,1.27-1.87,2.48-3.37,3.53-.76,.54-2.04,1.42-3.64,2.47-9.3,6.11-21.01,12.34-34.64,15.36-1.5,.33-2.97,.62-4.43,.74-.98,.09-1.95,.13-2.93,.05-.71-.05-1.44-.14-2.17-.32-.76-.16-1.52-.41-2.29-.73-.68-.28-1.3-.6-1.87-.93-3.53-2.1-6.03-4.67-7.59-6.57,1.22,1.01,2.39,1.79,3.39,2.4,2.85,.9,12.07,3.45,22.61-.51,8.45-3.18,13.32-8.88,15.25-11.42,2.44-.71,6.46-2.25,10.41-5.6,2.97-2.52,4.89-5.17,6.04-7.12,.44-.05,4.1-.47,5.71,1.58,1.22,1.55,1.17,4.38-.49,7.06Z"/><path class="q" d="M214.27,144.51v-.02c1.2-4.45,2.31-8.62,1.57-14.18-.7-5.16-2.67-9.21-4.19-11.72-.76,1.27-1.87,2.48-3.37,3.53-.76,.54-2.04,1.42-3.64,2.47-9.3,6.11-21.01,12.34-34.64,15.36-1.5,.33-2.97,.62-4.43,.74-.27,3.4,1.76,13.62,1.9,14.29,.14,.66,1.46,5.41-1.57,4.98-3.04-.43-2.33-3.99-2.33-3.99,0,0-2.8-.85-3.09-.9-.25-.05-.06-11.5-.02-14.65-.76-.16-1.52-.41-2.29-.73-.68-.28-1.3-.6-1.87-.93-1.76,2.34-4.22,6.33-5.62,11.79-1.34,5.33-1.11,9.86-.74,12.63-.73,1.6-1.52,3.73-2.03,6.36-.49,2.58-.54,4.84-.44,6.57,22.56-.82,45.13-1.65,67.69-2.47-2.52-6.47-3.02-11.72-3.07-15.08-.08-5.74,1.08-10.02,2.17-14.05Zm-34.57,22.63v-.02h.02l-.02,.02Z"/><path class="r" d="M207.53,153.61c2.86-2.5,5.16-5.62,6.51-9.19l.46,.19c-1.52,3.55-3.97,6.61-6.97,9h0Z"/><path class="r" d="M149.72,163.09c.79-1.67,1.68-3.36,3.08-4.6,.47-.39,1.08-.71,1.7-.58-.63-.08-1.19,.27-1.62,.67-1.28,1.29-2.05,3.02-2.7,4.68l-.47-.18h0Z"/><path class="r" d="M193.48,162.85c3.16-2.3,5.43-5.73,6.38-9.49l.18,.08c-2.16,3.56-5.39,6.34-9.18,8.05l-10.88,5.69c-.06,.05-.14,.08-.21,.1v-.37c2.07-1.47,4.94-3.53,7.12-5.41,6.99-5.55,12.09-13.14,14.03-21.9l.39,.15c-7.13,13.16-19.81,23.04-34.25,26.88,3.57-1.04,7.04-2.43,10.34-4.13,10.41-5.31,19.03-13.94,24.31-24.37l-.38,1.57c-1.39,5.77-3.81,11.43-7.75,15.94-1.95,2.26-4.14,4.29-6.42,6.19-2.32,1.92-4.72,3.74-7.23,5.39-.25,.14-.14,.02-.16-.31,0-.02,0-.03,0-.03l-.05,.03c2.74-1.43,8.25-4.27,11-5.69,3.97-1.74,7.24-4.7,9.5-8.4-.96,4.01-3.35,7.67-6.72,10.02h0Z"/><path class="l" d="M82.47,167.35s.11,.14,.3,.27c-3.21,.44-6.25,.7-9.08,.78h-.03c-7.14,.24-13.12-.57-17.99-1.77-5.74-1.41-9.94-3.37-12.71-4.87C8.57,143.04,3.23,89.79,11.89,54.95c2.63-10.57,6.39-18.84,9.21-24.26,1.06-1.25,2.82-2.97,5.44-4.13,1.66-.73,5.08-1.85,5.79-.79,.73,1.09-1.79,3.92-2.2,4.38,1.04,.21,2.72,.4,4.7,0,1.22-.25,2.22-.66,2.96-1.04-.93-1.44-1.23-2.99-.62-3.72,.87-1.01,3.29-.24,4.67,.82,1.31,1.01,1.82,2.39,2.01,3.04-8.54,17.14-7.2,18.12-7.2,18.12,.57,.43,1.46-.68,5.95-2.18,3.54-1.17,4.89-1.11,5.65-.43,.51,.44,.68,1.08,.74,1.58,5.3-4.54,10.92-5.05,13.02-2.82,1.5,1.6,1,4.43,.84,5.25-.47,.7-1.03,1.61-.82,1.8,.21,.21,.87-.54,1.79-.55,1.63-.06,2.9,2.09,3.15,2.52s1.25,2.23,.87,4.51c-.4,2.33-1.93,3.51-4,5.65-2.07,2.14-3.67,4.68-5.59,6.95-6.39,7.53-10.14,20.73-11.04,23.91-1.42,5.03-2.96,12.15-3.26,20.89,.51,3.32,1.49,8.02,3.54,13.37,2.82,7.34,5.21,13.56,11.17,17.63,3.83,2.61,7.99,3.56,11.57,3.8,1.16,1.79,10.35,1.66,11.95-2.77-.03,.22,2.56,2.37,5.33,1.85-2.45,2.31-3.88,4.65-4.59,5.96,.73,1.68,6.46,.11,9.07-2.34,.81-.22,3.28,10.28-9.51,15.41Z"/><path class="e" d="M82.09,167.36s.11,.14,.3,.27c-3.21,.44-6.25,.7-9.08,.78h-.03c-7.14,.24-13.12-.57-17.99-1.77-5.74-1.41-9.94-3.37-12.71-4.87C8.18,143.04,2.85,89.8,11.5,54.96c2.63-10.57,6.39-18.84,9.21-24.26,1.06-1.25,2.82-2.97,5.44-4.13,1.66-.73,5.08-1.85,5.79-.79,.73,1.09-1.79,3.92-2.2,4.38,1.04,.21,2.72,.4,4.7,0,1.22-.25,2.22-.66,2.96-1.04-.93-1.44-1.23-2.99-.62-3.72,.87-1.01,3.29-.24,4.67,.82,1.31,1.01,1.82,2.39,2.01,3.04-8.54,17.14-7.2,18.12-7.2,18.12,.57,.43,1.46-.68,5.95-2.18,3.54-1.17,4.89-1.11,5.65-.43,.51,.44,.68,1.08,.74,1.58,5.3-4.54,10.92-5.05,13.02-2.82,1.5,1.6,1,4.43,.84,5.25-.47,.7-1.03,1.61-.82,1.8,.21,.21,.87-.54,1.79-.55,1.63-.06,2.9,2.09,3.15,2.52s1.25,2.23,.87,4.51c-.4,2.33-1.93,3.51-4,5.65-2.07,2.14-3.67,4.68-5.59,6.95-6.39,7.53-10.14,20.73-11.04,23.91-1.42,5.03-2.96,12.15-3.26,20.89,.51,3.32,1.49,8.02,3.54,13.37,2.82,7.34,5.21,13.56,11.17,17.63,3.83,2.61,7.99,3.56,11.57,3.8"/><path class="g" d="M82.9,167.61s-.08,.02-.13,.02"/><path class="t" d="M30.59,30.36c-4.76,11.75-8.51,24.37-7.94,37.17-.76-9.62,1.2-19.24,3.89-28.44,.92-3.08,1.94-6.12,3.13-9.12l.92,.39h0Z"/><path class="t" d="M38.2,29.41c-5.64,8.17-9.61,17.58-11.39,27.36,1.08-7.44,3.48-14.66,6.84-21.38,1.13-2.25,2.34-4.44,3.74-6.56l.81,.58h0Z"/><path class="t" d="M37.1,47.61c-12.24,22.84-13.51,51.03-3.56,74.94-7.65-17.91-9.23-38.35-4.27-57.2,1.65-6.29,3.97-12.41,6.94-18.21l.89,.46h0Z"/><path class="t" d="M49.38,46.67c-6.69,8.55-10.94,18.99-12.73,29.67,1.09-8.14,3.63-16.09,7.54-23.32,1.31-2.42,2.72-4.76,4.42-6.99l.77,.64h0Z"/><path class="t" d="M62.37,50.96c-7.62,7.33-13.27,16.95-15.31,27.38,1.74-10.61,7.14-20.45,14.63-28.11l.68,.74h0Z"/><path class="t" d="M36.66,68.84c-1.93,13.52-1.85,27.45,1.85,40.66,1.21,4.25,2.94,8.97,5.67,12.27l1.95,2.12-2.11-1.97-.03-.07c0,.08,.01,.05,0,.03-.02-.03-.09-.09-.11-.12-3.06-3.39-4.77-7.74-6.18-12.02-3.94-13.24-4.06-27.46-1.03-40.89h0Z"/><path class="t" d="M28.92,106.62c4.76,9,11.46,16.94,19.51,23.07l-.62,.78c-7.95-6.48-14.43-14.7-18.89-23.85,0,0,4.46,9.15,0,0Z"/><path class="t" d="M34.5,120.5c4.09,6.89,9.99,12.62,16.91,16.47l-.51,.86c-6.9-4.23-12.61-10.28-16.41-17.33,0,0,3.79,7.05,0,0Z"/><path class="t" d="M42.77,136.81c3.68,3.52,8.51,5.71,13.47,6.16l-.13,.99c-5.14-.81-9.91-3.4-13.35-7.16,0,0,3.44,3.75,0,0Z"/><path class="t" d="M34.5,123.52c2.21,5.27,4.73,10.41,7.62,15.34,2.88,4.81,6.09,9.73,10.56,13.17l-.6,.8c-4.53-3.7-7.58-8.71-10.4-13.72-2.75-5.02-5.12-10.25-7.18-15.58h0Z"/><path class="t" d="M84.03,152.18c-12.58,.69-25.43,.62-37.62-2.82,9.15,2.42,18.7,2.64,28.11,2.41,3.13-.1,6.31-.26,9.38-.58l.14,.99h0Z"/><path class="t" d="M87,157.41c-3.21,6.12-9.71,9.81-16.21,11.52l-.22-.97c6.47-1.36,12.99-4.69,16.44-10.54h0Z"/><path class="t" d="M75.35,159.14c-5.53,7.26-15.91,7.77-24.26,6.71l.16-.99c8.19,1.37,18.4,1.24,24.11-5.72h0Z"/><path class="t" d="M70.12,158.04c-8.44,5.38-19.27,4.91-28.81,3.44l.19-.98c9.39,1.78,20.09,2.59,28.62-2.46h0Z"/><path class="t" d="M40.24,140.78c-9.19-4.81-16.53-13.18-20.12-22.91,.64,1.13,1.25,2.26,1.94,3.35,4.6,7.72,10.88,14.34,18.18,19.56h0Z"/><path class="t" d="M37.32,134.14c-8.39-7.93-15.4-17.37-20.58-27.69l2.43,3.58c5.58,8.35,11.75,16.37,18.16,24.11h0Z"/><path class="t" d="M30.01,122.55c-7.07-7.09-12.21-16.16-14.66-25.87,3.76,9.23,8.66,17.91,14.66,25.87h0Z"/><path class="g" d="M98.33,167.97h-.02c-.14-.08-.22-.13-.22-.13"/><path class="t" d="M115.46,156.75c7.82,1.55,8.8,12.64,8.96,19.11-.43-6.01-1.77-16.8-8.97-18.11v-1h0Z"/><path class="t" d="M111.25,173.77c.03-.25,.19-.51,.3-.73,2.68-5.23,3.54-11.71,.7-17.05,2.42,4.06,2.73,9.06,1.52,13.57-.36,1.42-.87,2.81-1.46,4.15l-.05,.11c.11-.11-.81-.03-1.01-.05h0Z"/><path class="p" d="M116.29,161.86c-.64-.98-1.06-1.94-1.31-3.09,.85,.8,1.33,1.92,1.31,3.09h0Z"/><path class="d" d="M116.95,176.1h-2.28c.79-1.69,3.56-7.8,1.61-14.24,1.47,3.21,2.12,7.77,.66,14.24Z"/><path class="e" d="M114.94,176.1h-7.97c-3.07-4.86-7.33-7.53-8.37-8.13,.02-.02,.05-.02,.06-.03,.21-.08,.4-.17,.6-.25,7.53-3.21,8.94-9.48,9.11-13.04,.9,.27,2.88,1,4.81,2.69,1.25,1.06,2.47,2.53,3.37,4.53,1.95,6.44-.82,12.55-1.61,14.24Z"/><path class="e" d="M128.97,173.27v2.83h-12.02c1.46-6.47,.81-11.03-.66-14.24-.9-1.99-2.12-3.47-3.37-4.53-1.93-1.69-3.91-2.42-4.81-2.69,.05-1.16-.03-2.01-.06-2.42-.03-.16-.16-.73-.17-1.5,3.48-.11,17.47,.89,21.11,22.55Z"/><path class="y" d="M101.35,142.04l-.13,.13s.08-.09,.11-.13h.02Z"/><path class="w" d="M100.37,163.31c-1.82,3.41-5.61,5.49-9.37,5.95,3.57-1.15,6.99-2.98,9.37-5.95h0Z"/><path class="w" d="M96.23,162.03c-2.3,4.13-6.89,6.64-11.48,7.29,4.4-1.33,8.62-3.6,11.48-7.29h0Z"/><path class="v" d="M131.09,83.61c4.1-2.16,8.48-4.29,13.18-4.47-4.66,.34-8.94,2.61-12.92,4.9l-.26-.43h0Z"/><path class="f" d="M206.43,109.95c-1.16,1.95-3.07,4.6-6.04,7.12-3.96,3.35-7.97,4.89-10.41,5.6-1.93,2.55-6.8,8.24-15.25,11.42-10.54,3.96-19.76,1.41-22.61,.51-1-.62-2.17-1.39-3.39-2.4-1.38-1.11-2.83-2.5-4.22-4.19-4.41-5.36-5.87-10.96-6.41-13.91,2.36-4.15,4.32-7.77,4.52-8.15,2.72-5.02,4.89-9.32,6.42-12.45-3.37,.06-7.69-.27-12.5-1.6-2.31-.63-4.38-1.41-6.17-2.22-.59-.25-1.14-.52-1.66-.78,.47-.68,1.03-1.57,1.55-2.66,.36-.74,.71-1.58,.98-2.52-.95-2.63-1.46-4.97-1.68-7.06v-.02c-.3-2.9-.06-5.27,.32-7.14,2.5-12.37,14.6-18.64,19.52-26.79,6.33,3.24,15.43,8.89,24.1,18.32,10.76,11.68,15.89,23.73,18.34,30.95,1.95,.73,6.66,2.75,10.35,7.69,3.05,4.1,3.94,8.2,4.24,10.25Z"/><path class="q" d="M149.4,42.74c-4.92,8.15-17.02,14.41-19.52,26.79-.38,1.87-.62,4.24-.32,7.14v.02c.22,2.09,.73,4.43,1.68,7.06-.27,.93-.62,1.77-.98,2.52-.52,1.09-1.08,1.98-1.55,2.66,.52,.25,1.08,.52,1.66,.78-1.16,3.35-2.34,6.38-3.5,9.1-.27-.4-.49-.74-.57-.87l-.03-.06c-.51-1.58-1.19-2.83-1.99-3.83-.6-2.85-.24-19.83,1.06-26.28,.97-4.75,4.98-10.85,7.18-14.3,.02,0,.02-.02,.02-.02,1.41-1.39,2.47-2.72,2.85-3.81,.08-.21,.14-.41,.19-.63,2.64-4.11,4.64-11.68,5.28-14.4,.66-.76,1.11-1.76,1.12-3.04,.03-2.5-.98-4-2.34-4.7-.02-.02-.05-.02-.06-.03,.03-.16,.06-.3,.08-.46,.02-.11,.03-.21,.03-.32v-.09c.02-.46-.05-.89-.16-1.27-.02-.02-.02-.05-.02-.06-.08-.21-.16-.4-.24-.57-.05-.09-.11-.19-.16-.28-.05-.08-.09-.17-.16-.25-.03-.05-.06-.08-.08-.13-.1-.13-.19-.24-.28-.35-.03-.05-.06-.08-.1-.13-.13-.16-.25-.28-.36-.41-.22-.24-.4-.43-.46-.57v-.02s-.03-.06-.03-.09c.02-.11,.03-.22,.03-.32,.02,0,.02-.02,.03-.02,.95-.76,3.16-1.99,6.11-.73,3.56,1.55,7.86,4.65,5.55,7.86,.81,1.34,1.9,3.56,2.09,6.34,.19,2.88-.63,5.41-2.06,7.78Z"/><path class="q" d="M125.34,67.74c-1.3,6.46-1.66,23.43-1.06,26.28-.43-.52-.89-.98-1.38-1.38-.96-3.84-1.82-8.42-2.2-13.61-.51-6.82-.05-12.78,.66-17.53,3.1-1.5,8.01-4.92,11.15-8.07-2.2,3.45-6.22,9.56-7.18,14.3Z"/><path class="r" d="M124.5,94.02c-.46-6.13,1.68-12.28,5.06-17.34-2.79,5.42-4.82,11.2-5.06,17.34h0Z"/><path class="i" d="M125.34,67.74c-1.3,6.46-1.66,23.43-1.06,26.28-.43-.52-.89-.98-1.38-1.38-.96-3.84-1.82-8.42-2.2-13.61-.51-6.82-.05-12.78,.66-17.53,3.1-1.5,8.01-4.92,11.15-8.07-2.2,3.45-6.22,9.56-7.18,14.3Z"/><path class="i" d="M214.27,144.51v-.02c1.2-4.45,2.31-8.62,1.57-14.18-.7-5.16-2.67-9.21-4.19-11.72-.76,1.27-1.87,2.48-3.37,3.53-.76,.54-2.04,1.42-3.64,2.47-9.3,6.11-21.01,12.34-34.64,15.36-1.5,.33-2.97,.62-4.43,.74-.27,3.4,1.76,13.62,1.9,14.29,.14,.66,1.46,5.41-1.57,4.98-3.04-.43-2.33-3.99-2.33-3.99,0,0-2.8-.85-3.09-.9-.25-.05-.06-11.5-.02-14.65-.76-.16-1.52-.41-2.29-.73-.68-.28-1.3-.6-1.87-.93-1.76,2.34-4.22,6.33-5.62,11.79-1.34,5.33-1.11,9.86-.74,12.63-.73,1.6-1.52,3.73-2.03,6.36-.49,2.58-.54,4.84-.44,6.57,22.56-.82,45.13-1.65,67.69-2.47-2.52-6.47-3.02-11.72-3.07-15.08-.08-5.74,1.08-10.02,2.17-14.05Zm-34.57,22.63v-.02h.02l-.02,.02Z"/><path class="u" d="M111.24,32.39s1.7-7.13,9.84-1.77c0,0-6.03-2.09-9.84,1.77Z"/><path class="u" d="M99.36,40.15s-2.09-5.22,5.7-6.17c0,0-4.92,1.85-5.7,6.17Z"/><path class="h" d="M211.65,118.59c-.76,1.27-1.87,2.48-3.37,3.53-.76,.54-2.04,1.42-3.64,2.47-9.3,6.11-21.01,12.34-34.64,15.36-1.5,.33-2.97,.62-4.43,.74-.98,.09-1.95,.13-2.93,.05-.71-.05-1.44-.14-2.17-.32-.76-.16-1.52-.41-2.29-.73-.68-.28-1.3-.6-1.87-.93-3.53-2.1-6.03-4.67-7.59-6.57,1.22,1.01,2.39,1.79,3.39,2.4,2.85,.9,12.07,3.45,22.61-.51,8.45-3.18,13.32-8.88,15.25-11.42,2.44-.71,6.46-2.25,10.41-5.6,2.97-2.52,4.89-5.17,6.04-7.12,.44-.05,4.1-.47,5.71,1.58,1.22,1.55,1.17,4.38-.49,7.06Z"/><path class="b" d="M140.78,34.53c-2.15,2.48-6.66,2.61-7.2,2.42,1.96,1.34,3.16,7.58,1.91,11.98-.05,.22-.11,.43-.19,.63-.38,1.09-1.44,2.42-2.85,3.81,0,0,0,.02-.02,.02-3.15,3.15-8.05,6.57-11.15,8.07-1.16,.57-2.06,.87-2.52,.79-.62-.11-1.36-.36-2.18-.73-1.82-.82-6.31-3.75-6.31-3.75l-.02-.02s-.93-.63-1.39-.97c-2.75-1.95-4.56-7.93-5.81-11.33-.4-1.08-.73-1.9-1.03-2.25-.03-.05-.06-.09-.11-.13-4.07-3.32-5.28-6.88-5.57-7.96,6.76-6.76,18.05-8.62,23.43-9.1h.02c.36-.03,.7-.06,1.01-.08h.02"/><path class="i" d="M139.64,26.42c-.02,.13-.03,.25-.06,.38l-.02-.02c-1.63-.81-3.75-.46-5.22,.73-.06,.05-.13,.11-.19,.16-.02,0-.03,.02-.05,.03-.17-.11-9.51-2.17-11.36-2.2-.3,0-.93,.02-1.84,.08h-.02c-.32,.02-.65,.05-1.01,.08h-.02c-5.38,.47-16.68,2.34-23.43,9.1l-.08,.08s-2.74-2.34-2.5-4.03v-.03c.08-.49,.4-.9,1.08-1.2,0-.03-.08-.13-.22-.28-.55-.6-2.2-2.37-2.06-4.21,.02-.49,.17-.98,.51-1.46,0,0-.02-.13-.05-.33-.02-.3-.05-.81-.05-1.41-.02-.41-.02-.85,0-1.33,.08-2.14,.49-4.73,1.87-5.59,2.47-1.55,24.26-11.08,37.09-5.4,2.29,1.69,2.75,4.73,2.82,6.5v.19c0,.32-.02,.57-.02,.78-.02,.25-.03,.41-.03,.41,0,0,2.78,.32,2.91,3.29v.06c0,.09,.02,.16,.02,.25,0,.14-.02,.28-.03,.43v.02c0,.09-.02,.19-.03,.3,.05,.51,1.9,1.57,2.04,3.72v.09c.02,.25,.02,.52-.05,.81Z"/><g><ellipse class="c" cx="105.2" cy="41.75" rx="3.34" ry="4.12" transform="translate(-7.78 34.95) rotate(-18.2)"/><ellipse class="u" cx="106.24" cy="41.12" rx="2.1" ry="2.67" transform="translate(-7.53 35.19) rotate(-18.18)"/><circle class="k" cx="104.24" cy="39.81" r=".67"/></g><g><ellipse class="c" cx="116.99" cy="36.59" rx="3.34" ry="4.12" transform="translate(-5.58 38.37) rotate(-18.2)"/><ellipse class="u" cx="118.03" cy="35.96" rx="2.1" ry="2.67" transform="translate(-5.33 38.62) rotate(-18.18)"/><circle class="k" cx="116.03" cy="34.65" r=".67"/></g><path class="f" d="M122.9,92.64c-4.72-3.64-11.8-1.49-12.99-1.09h-.02c-.11,.05-.16,.06-.16,.06-.35-1.47,.73-4.89,.79-5.34-.16-13.83,4.79-21.6,6.14-23.44,.82,.35,1.57,.59,2.18,.7,.46,.08,1.36-.21,2.52-.76-.71,4.55-1.17,10.28-.66,16.82,.38,4.98,1.23,9.37,2.2,13.06Z"/><path class="i" d="M149.4,42.74c-4.92,8.15-17.02,14.41-19.52,26.79-.38,1.87-.62,4.24-.32,7.14v.02c.22,2.09,.73,4.43,1.68,7.06-.27,.93-.62,1.77-.98,2.52-.52,1.09-1.08,1.98-1.55,2.66,.52,.25,1.08,.52,1.66,.78-1.16,3.35-2.34,6.38-3.5,9.1-.27-.4-.49-.74-.57-.87l-.03-.06c-.51-1.58-1.19-2.83-1.99-3.83-.6-2.85-.24-19.83,1.06-26.28,.97-4.75,4.98-10.85,7.18-14.3,.02,0,.02-.02,.02-.02,1.41-1.39,2.47-2.72,2.85-3.81,.08-.21,.14-.41,.19-.63,2.64-4.11,4.64-11.68,5.28-14.4,.66-.76,1.11-1.76,1.12-3.04,.03-2.5-.98-4-2.34-4.7-.02-.02-.05-.02-.06-.03,.03-.16,.06-.3,.08-.46,.02-.11,.03-.21,.03-.32v-.09c.02-.46-.05-.89-.16-1.27-.02-.02-.02-.05-.02-.06-.08-.21-.16-.4-.24-.57-.05-.09-.11-.19-.16-.28-.05-.08-.09-.17-.16-.25-.03-.05-.06-.08-.08-.13-.1-.13-.19-.24-.28-.35-.03-.05-.06-.08-.1-.13-.13-.16-.25-.28-.36-.41-.22-.24-.4-.43-.46-.57v-.02s-.03-.06-.03-.09c.02-.11,.03-.22,.03-.32,.02,0,.02-.02,.03-.02,.95-.76,3.16-1.99,6.11-.73,3.56,1.55,7.86,4.65,5.55,7.86,.81,1.34,1.9,3.56,2.09,6.34,.19,2.88-.63,5.41-2.06,7.78Z"/><path class="b" d="M125.98,98.84c-1.16,3.58-2.77,7.85-5.06,12.48-1.71,3.1-3.23,5.51-5.57,9.79-.02,.05-.05,.08-.08,.13-1.87,2.88-4.02,5.79-6.46,8.69-4.81,5.71-9.75,10.13-14.11,13.51l.28,.52c-1.2,.47-2.47,1.08-3.75,1.88-1.46,.9-2.69,1.88-3.73,2.88-2.77,.52-5.36-1.63-5.33-1.85-1.6,4.43-10.79,4.56-11.95,2.77-.06-.11-.11-.24-.11-.38,.87-5.97,9.73-9.6,14.92-11.25t-.02-.03c3.48-4.98,6.52-8.94,8.65-11.69,5.22-6.68,7.63-9.07,9.84-14.27,.46-1.08,1.08-2.93,2.18-6.41v-.02c.14-.44,.29-.9,.44-1.39,1.55-4.87,2.77-8.91,3.59-11.72h.02c1.17-.4,8.2-2.63,12.86,1.14,.49,.38,.93,.84,1.36,1.36,.81,.98,1.47,2.23,1.98,3.8l.03,.06Z"/><path class="b" d="M149.04,93.5c-1.53,3.13-3.7,7.44-6.42,12.45-.21,.38-2.17,4-4.52,8.15-1.76,3.07-3.72,6.41-5.33,8.92-3.94,6.12-11.3,15.76-24.84,26.33v.02c-.06,.51-.08,.98-.05,1.38,.02,.78,.14,1.34,.17,1.5,.03,.41,.11,1.27,.06,2.42-.17,3.56-1.58,9.83-9.11,13.04-.21,.08-.4,.17-.6,.25-.02,.02-.05,.02-.06,.03h-.02c-2.25,.89-4.29,1.34-6.14,1.52h-.02c-2.67,.24-4.86-.09-6.49-.59h-.02c-1.42-.43-2.42-.95-2.88-1.28-.19-.13-.3-.22-.3-.27,12.78-5.13,10.32-15.63,9.51-15.41-2.61,2.45-8.34,4.02-9.07,2.34,.71-1.31,2.14-3.65,4.59-5.97,1.04-1,2.28-1.98,3.73-2.88,1.28-.81,2.55-1.41,3.75-1.88,2.53-1.01,4.79-1.38,6.34-1.53l.02-.02c2.1-2.1,5.06-5.41,7.91-9.94,1.66-2.61,2.47-4.37,4.32-7.94,.7-1.34,1.34-2.53,1.91-3.61,.03-.05,.06-.08,.08-.13,2.21-3.4,4.08-6.72,5.62-9.89,1.65-2.99,3.62-6.87,5.68-11.74,1.16-2.72,2.34-5.74,3.5-9.1,1.79,.81,3.86,1.58,6.17,2.22,4.81,1.33,9.13,1.66,12.5,1.6Z"/></g></svg>