<?xml version="1.0" encoding="UTF-8"?><svg xmlns="http://www.w3.org/2000/svg" xmlns:xlink="http://www.w3.org/1999/xlink" viewBox="0 0 259 260"><defs><style>.l{fill:#fff;}.m{fill:#e4f9f5;opacity:.43;}.n,.o{opacity:.5;}.p{fill:url(#i);opacity:.28;}.p,.q,.r{mix-blend-mode:soft-light;}.s{isolation:isolate;}.q{fill:url(#g);}.t{clip-path:url(#b);}.r{fill:url(#h);opacity:.37;}.u{clip-path:url(#d);}.v{fill:url(#e);}.o{fill-rule:evenodd;}.w{fill:none;}.x{fill:url(#f);mix-blend-mode:multiply;opacity:.2;}.y{fill:url(#j);}</style><clipPath id="b"><rect class="w" x="7.52" y="8.02" width="238.96" height="238.96" rx="26.15" ry="26.15"/></clipPath><clipPath id="d"><rect class="w" x="-299.49" y="2.06" width="741.55" height="366.94"/></clipPath><linearGradient id="e" x1="126.18" y1="253.87" x2="126.18" y2="8.65" gradientTransform="matrix(1, 0, 0, 1, 0, 0)" gradientUnits="userSpaceOnUse"><stop offset="0" stop-color="#c5f3ff"/><stop offset=".1" stop-color="#a7e7f9"/><stop offset=".34" stop-color="#68ceee"/><stop offset=".45" stop-color="#50c5ea"/><stop offset=".58" stop-color="#41b3de"/><stop offset=".85" stop-color="#1a86c1"/><stop offset="1" stop-color="#0269af"/></linearGradient><linearGradient id="f" x1="-299.66" y1="286.6" x2="480.51" y2="286.6" gradientTransform="matrix(1, 0, 0, 1, 0, 0)" gradientUnits="userSpaceOnUse"><stop offset="0" stop-color="#5c3856"/><stop offset=".26" stop-color="#645277"/><stop offset=".57" stop-color="#6d6d99"/><stop offset=".83" stop-color="#737ead"/><stop offset="1" stop-color="#7584b5"/></linearGradient><linearGradient id="g" x1="588.98" y1="419.32" x2="588.98" y2="365.79" gradientTransform="translate(-417.48 -246.38) rotate(-11.7)" gradientUnits="userSpaceOnUse"><stop offset="0" stop-color="#e0ffce"/><stop offset="1" stop-color="#6ed3f1"/></linearGradient><linearGradient id="h" x1="-3818.86" y1="2750.64" x2="-3818.86" y2="2689.26" gradientTransform="translate(-3834.11 2410.76) rotate(114.69) scale(1 -1)" xlink:href="#g"/><linearGradient id="i" x1="-10.3" y1="82.69" x2="-10.3" y2="1.41" gradientTransform="matrix(1, 0, 0, 1, 0, 0)" xlink:href="#g"/><linearGradient id="j" x1="90.42" y1="409.85" x2="90.42" y2="249" gradientTransform="matrix(1, 0, 0, 1, 0, 0)" gradientUnits="userSpaceOnUse"><stop offset=".01" stop-color="#d1c27c"/><stop offset=".26" stop-color="#6ddbb3"/><stop offset=".6" stop-color="#00b6db"/><stop offset="1" stop-color="#3baeec"/></linearGradient></defs><g class="s"><g id="a"><g><rect class="n" x="6.52" y="7.02" width="250.96" height="250.96" rx="32.14" ry="32.14" transform="translate(264.5 .5) rotate(90)"/><rect class="l" x="1.52" y="2.02" width="250.96" height="250.96" rx="32.14" ry="32.14" transform="translate(254.5 .5) rotate(90)"/><g class="t"><g id="c"><g class="u"><g><rect class="v" x="-10.66" y="1.41" width="273.7" height="263.47"/><polygon class="x" points="-299.66 307.02 49.29 307.02 -60.73 312.05 -82.95 317.2 186.94 300.47 75 295.97 183.75 290.82 192.94 290.82 303.62 267.01 1.98 267.01 82.62 272.16 -74.44 275.59 -17.07 270.23 -299.66 273.88 -299.66 249 480.51 249 480.09 277.31 252.64 283.1 316.42 288.46 242.41 286.75 205.59 295.33 452.83 316.98 -117.62 324.2 -88.43 314.2 -299.66 307.02"/><g><path class="m" d="M8.8,228.09s.15,1.11-.6,1.84c-.57-.24-.38-.49-.38-.49,0,0,.91-1.19,.64-1.33s.34-.02,.34-.02Z"/><path class="m" d="M245.71,172.21s-10.76-5.51-17.25,0c-5.51,5.38,.15,7.67,3.86,7.46,5.73-.08,12.75-.67,12.75-.67,0,0,7.78-1.66,.64-6.78Z"/><path class="m" d="M79.97,141.74s-10.76-5.51-17.25,0c-5.51,5.38,.15,7.67,3.86,7.46,5.73-.08,12.75-.67,12.75-.67,0,0,7.78-1.66,.64-6.78Z"/><path class="m" d="M313.48,266.5c.68-5.98,1.47-17.65-1.86-26.69-.19-.5-.63-1.66-1.32-3.04-.48-.96-6.23-12.17-11.2-9.2-3.11,1.86-4.3,8.28-4.59,10.03-.76-2.94-2.74-5.08-5.07-5.47-3.36-.56-5.45,2.86-5.54,3.02,.03-.63,.15-4.76-2.22-7.61-2.35-2.83-6.19-3.23-9.31-.77-.62-4.92-3.47-8.83-7.01-9.74-4.18-1.07-8.55,2.24-9.96,7.93-3.72-5.61-9.63-6.76-13.39-3.44-4.04,3.57-3.78,10.69-3.76,11.1-2.6-4.66-7.08-6.9-11.26-5.65-3.82,1.14-6.82,5-7.8,9.99-2.19-2.83-5.36-3.37-7.47-1.57-2.11,1.79-2.31,5.15-2.33,5.61-.62-.16-2.38-.49-4.26,.67-2.44,1.5-3.29,4.38-3.46,5.01,.53-8.42-4.9-9-8.11-6.65,2.46-5.44-5.02-20.43-13.32-7.72-.25-.62-1.73-4.18-4.69-5.06-3.26-.97-7.02,1.69-8.62,6.72-1.35-1.57-4.01-4.16-7.78-4.96-.72-.15-7.67-1.51-10.56,3.59-.82,1.44-1.12,3.04-1.34,4.28-1.76,9.92-1.05,23.77-.64,29.86l.68,10.27c35.18-3.03,70.37-5.31,105.57-6.86,16.3-.72,32.59-1.27,48.89-1.67,3.91-.65,7.83-1.31,11.74-1.96Z"/><path class="m" d="M215.59,281.72c.54-5.78,1.7-35.01-4.17-46.82-.83-1.67-1.86-3.22-1.96-3.36-.71-1.06-9.16-13.39-15.77-9.46-4.13,2.46-5.4,9.98-5.7,12.03-1.2-3.31-4.02-5.57-7.2-5.78-4.61-.31-7.27,3.85-7.39,4.04,0-.72-.05-5.5-3.45-8.55-3.36-3.02-8.61-3.09-12.73,.06-1.11-5.61-5.21-9.82-10.08-10.5-5.75-.81-11.53,3.46-13.13,10.15-5.37-6.09-13.49-6.81-18.43-2.6-5.31,4.53-4.56,12.71-4.51,13.18-3.8-5.11-10.02-7.22-15.65-5.36-5.14,1.7-9.02,6.46-10.08,12.31-3.13-3.03-7.48-3.33-10.27-1.05-2.77,2.27-2.86,6.18-2.86,6.7-.85-.12-3.26-.32-5.77,1.21-3.24,1.97-4.24,5.39-4.44,6.12,.26-9.76-7.17-9.88-11.41-6.83,3.05-6.52-7.96-23.04-18.57-7.53-.37-.68-2.59-4.64-6.67-5.36-4.49-.79-9.47,2.67-11.37,8.62-1.93-1.68-5.69-4.39-10.88-4.93-.99-.1-10.53-.95-14.19,5.22-1.04,1.75-1.36,3.62-1.59,5.07-1.85,11.61-.13,27.5,.76,34.47-.66,1.62-1.32,3.23-1.99,4.85,50.81-5.48,113-.91,168.68-1.18,18.48-.09,31.43-.15,49.34,.39,4.8-1.38,6.68-3.73,11.48-5.11Z"/></g><path class="q" d="M215.27,50.83s18.86-15.65,38.9-49.57c2.72-4.61,5.46-9.55,8.18-14.83l-9.62,14.62s-5.35,1.32-10.06,8.02c-4.71,6.7-5.83,16.08-5.83,16.08,0,0-11.39,16.48-21.57,25.69Z"/><path class="r" d="M177.37,123.22s25.65-24.28,44.68-51.83c0,0-.31,3.69-2.72,8.77,0,0,21.16-27.87,41.36-61.53,0,0,.49,16.15-9.34,35.17,0,0,8.45-7.63,9.31-5.8,.86,1.83-10.19,19.42-10.19,19.42,0,0,2.61-2.65,3.06-1.8,.45,.84-4.87,8.01-4.87,8.01,0,0,17.72-21.01,18.98-20.86,1.26,.15-6.82,16.24-6.82,16.24,0,0,14.13-17.41,25.58-36.01,0,0-19.43,33.48-39.85,57.43-20.42,23.95-43.52,33.85-44.07,32.95-.55-.91,4.66-10.04,4.66-10.04,0,0-6.04,4.49-7.25,2.61-1.21-1.88,1.64-6.44,1.64-6.44,0,0-17.91,11.62-24.17,13.72Z"/><path class="p" d="M17.13,1.41s39.03,43.75,57.67,57.26c0,0-16.33-9.65-20.8-14.58,0,0,3.03,6.22,1.01,7.72-2.02,1.5-11.56-4.93-11.56-4.93,0,0,15.89,25.09,4.33,27.45-11.56,2.36-52.44-29.6-52.44-29.6,0,0,18.35,18.23,17.77,22.95-.58,4.72-8.67-1.29-8.67-1.29,0,0,10.69,9.65,21.38,16.3,0,0-51.72-13.94-78.59-37.75,0,0,5.49,10.72,12.42,18.02,0,0-20.52-15.44-30.34-28.95,0,0,10.4,5.15,14.16,8.04,0,0-29.04-30.56-38.86-40.64H-39.19S-15.36,30.57-3.08,38.51L-25.32,1.41H17.13Z"/><rect class="y" x="-299.66" y="249" width="780.17" height="160.86"/><g/></g></g></g><path class="o" d="M111.09,134.95c-1.56,1.84-4.5,1.89-5.51,4.45-.17,1.09,1.13,1.03,1.03,2.06-.88,.36-1.32,.47-2.38,.13-.23-3.1-3.15-3.06-6.17-3.79,1.77-1.94,4.83,.66,6.45-.04,1.25-2.15,3.4-3.15,6.58-2.81Z"/><path class="o" d="M209.94,138.67c-2.65,6.67-9.9,12.34-16.05,16.41-.12,2.75,1.95,3.8,3.85,4.98-1.51,2.24-4.55,2.5-7.8,2.5,1.09-11.13-14.36-4.48-21.76-9.25,5.55-1.02,10.38-2.96,17.67-1.74,1.95-.37,.17-2.02,1.42-3.31,2.14-.03,1.8,1.85,3.74,1.97,5.53-4.85,13.17-6.98,18.92-11.55Z"/><path class="o" d="M176.66,88.22c-1.02,.42-4.79,1.51-7.3,1.65-.36,1.17,1.44,1.45,.79,2.25-1.61,1.08-1.94-1-3.04-1.46-2.61,.64-5.05,1.51-7.96,1.78,2.27-1.75,5.05-2.82,7.43-4.42,3.35,.06,6.89,.36,10.07,.21Z"/></g></g><g id="k"><g/></g></g></g></svg>