<?xml version="1.0" encoding="UTF-8"?><svg id="a" xmlns="http://www.w3.org/2000/svg" viewBox="0 0 342.07 216.52"><defs><style>.b{fill:#bb85c4;}.c{fill:#fff;}.d{fill:#589400;}.e{fill:#9eb4ca;}.f{opacity:.5;}.g{fill:#467500;}.h{fill:#7e96ad;}.i{fill:#ffd888;stroke:#d6a651;}.i,.j,.k,.l,.m{stroke-miterlimit:10;}.n{fill:#fff8b6;}.j{stroke:#989898;}.j,.k{stroke-width:.25px;}.j,.o{fill:#ccc;}.p{fill:#f29a8d;}.k{stroke:#4d2656;}.k,.l{fill:#63326c;}.q{fill:#c28649;}.r{fill:#e8e8e8;}.l,.m{stroke:#431e4c;stroke-width:.5px;}.m{fill:#4f2857;}.s{fill:#805c39;}</style></defs><path class="f" d="M29.28,213.52c-2.76,0-5-2.24-5-5v-5.34c-3.86-5.55-5.7-12.59-4.73-18.4,.6-3.6,2.22-6.66,4.72-8.98v-9.71c0-.11,0-.21,0-.31v-3.53c0-.1,0-.21,0-.31v-14.31c0-.11,0-.21,0-.31v-3.53c0-.1,0-.21,0-.31v-14.31c0-.11,0-.21,0-.31v-3.53c0-.1,0-.21,0-.31v-14.31c0-.11,0-.21,0-.31v-3.53c0-.1,0-.21,0-.31v-13.46H13c-2.76,0-5-2.24-5-5v-4.2c0-1.92,1.1-3.67,2.83-4.51l44.84-21.55v-14.89c0-2.76,2.24-5,5-5h36.39l31.99-15.38c.68-.33,1.42-.49,2.17-.49h29.46c-.48-.77-.75-1.67-.75-2.64v-6.41c0-2.76,2.24-5,5-5h15.56c2.76,0,5,2.24,5,5v6.41c0,.97-.28,1.87-.75,2.64h33.92c.78,0,1.54,.18,2.23,.53l30.72,15.34h36.83c2.76,0,5,2.24,5,5v15.89l41.22,20.59c2.07,1.04,3.16,3.36,2.63,5.62-.08,.36-.21,.7-.36,1.02v2.03c0,2.76-2.24,5-5,5h-10.78v11.76c.47,1.04,.81,2.11,1.02,3.2,9.63,1.85,16.91,10.06,16.91,19.87,0,3.39-.86,6.64-2.5,9.57,2.3,4.97,2.64,10.21,.94,15.04-2.39,6.78-8.47,11.61-16.37,13.25v42.77c0,2.76-2.24,5-5,5H29.28Z"/><path class="c" d="M24.28,208.52c-2.76,0-5-2.24-5-5v-5.34c-3.86-5.55-5.7-12.59-4.73-18.4,.6-3.6,2.22-6.66,4.72-8.98v-9.71c0-.11,0-.21,0-.31v-3.53c0-.1,0-.21,0-.31v-14.31c0-.11,0-.21,0-.31v-3.53c0-.1,0-.21,0-.31v-14.31c0-.11,0-.21,0-.31v-3.53c0-.1,0-.21,0-.31v-14.31c0-.11,0-.21,0-.31v-3.53c0-.1,0-.21,0-.31v-13.46H8c-2.76,0-5-2.24-5-5v-4.2c0-1.92,1.1-3.67,2.83-4.51l44.84-21.55v-14.89c0-2.76,2.24-5,5-5h36.39l31.99-15.38c.68-.33,1.42-.49,2.17-.49h29.46c-.48-.77-.75-1.67-.75-2.64v-6.41c0-2.76,2.24-5,5-5h15.56c2.76,0,5,2.24,5,5v6.41c0,.97-.28,1.87-.75,2.64h33.92c.78,0,1.54,.18,2.23,.53l30.72,15.34h36.83c2.76,0,5,2.24,5,5v15.89l41.22,20.59c2.07,1.04,3.16,3.36,2.63,5.62-.08,.36-.21,.7-.36,1.02v2.03c0,2.76-2.24,5-5,5h-10.78v11.76c.47,1.04,.81,2.11,1.02,3.2,9.63,1.85,16.91,10.06,16.91,19.87,0,3.39-.86,6.64-2.5,9.57,2.3,4.97,2.64,10.21,.94,15.04-2.39,6.78-8.47,11.61-16.37,13.25v42.77c0,2.76-2.24,5-5,5H24.28Z"/><g><g><rect class="m" x="55.67" y="37.92" width="55.27" height="25.33"/><rect class="m" x="228.17" y="37.92" width="55.27" height="25.33"/><g><rect class="j" x="161.25" y="10.58" width="12.92" height="30.64"/><rect class="s" x="159.93" y="8" width="15.56" height="6.41"/></g><g><rect class="r" x="24.28" y="178.93" width="286.86" height="6.12"/><rect class="r" x="24.28" y="190.74" width="286.86" height="6.12"/><rect class="o" x="24.28" y="184.7" width="286.86" height="6.12"/></g><path class="d" d="M104.62,196.76c5.44-4.32,9.01-18-4.58-18s-10.02,13.68-4.58,18h9.16Z"/><rect class="i" x="24.28" y="78.77" width="286.86" height="100.15"/><polygon class="l" points="126.22 22.05 213.65 22.05 327.41 78.87 8 78.87 126.22 22.05"/><g><g><path class="s" d="M255.56,104.69h-5.61c-9.7,0-17.59,7.94-17.59,17.7v47.04h40.78v-47.04c0-9.76-7.89-17.7-17.59-17.7Z"/><path class="e" d="M270.14,169.44h-34.78v-47.09c0-8.08,6.55-14.63,14.63-14.63h5.51c8.08,0,14.63,6.55,14.63,14.63v47.09Z"/><path class="h" d="M241.41,124.94c0-8.08,6.55-14.63,14.63-14.63h5.51c.88,0,1.74,.09,2.58,.24-2.42-1.77-5.4-2.83-8.63-2.83h-5.51c-8.08,0-14.63,6.55-14.63,14.63v47.09h6.04v-44.5Z"/><rect class="s" x="250.61" y="107.71" width="4.61" height="61.72"/><rect class="s" x="233.11" y="120.62" width="39.61" height="1.66"/></g><rect class="s" x="232.36" y="166" width="40.78" height="3.44"/></g><g><g><path class="s" d="M85.46,104.69h-5.61c-9.7,0-17.59,7.94-17.59,17.7v47.04h40.78v-47.04c0-9.76-7.89-17.7-17.59-17.7Z"/><path class="e" d="M100.04,169.44h-34.78v-47.09c0-8.08,6.55-14.63,14.63-14.63h5.51c8.08,0,14.63,6.55,14.63,14.63v47.09Z"/><path class="h" d="M71.31,124.94c0-8.08,6.55-14.63,14.63-14.63h5.51c.88,0,1.74,.09,2.58,.24-2.42-1.77-5.4-2.83-8.63-2.83h-5.51c-8.08,0-14.63,6.55-14.63,14.63v47.09h6.04v-44.5Z"/><rect class="s" x="80.51" y="107.71" width="4.61" height="61.72"/><rect class="s" x="63.01" y="120.62" width="39.61" height="1.66"/></g><rect class="s" x="62.26" y="166" width="40.78" height="3.44"/></g><rect class="d" x="24.28" y="196.58" width="286.86" height="6.95"/><rect class="b" x="8" y="78.87" width="128.72" height="4.2"/><rect class="b" x="198.2" y="78.87" width="128.72" height="4.2"/><g><path class="c" d="M203.11,83.07h-70.82s-4.55-37.55,35.41-37.55,35.41,37.55,35.41,37.55Z"/><path class="b" d="M132.29,83.07s.24-37.55,35.41-37.55,35.41,37.55,35.41,37.55h7.57s.88-45.09-42.94-45.09-43,45.09-43,45.09h7.56Z"/></g><rect class="c" x="132.29" y="83.03" width="12.21" height="113.54"/><rect class="c" x="190.89" y="83.03" width="12.21" height="113.54"/><rect class="c" x="207.8" y="83.03" width="12.21" height="113.54"/><rect class="c" x="115.93" y="83.03" width="12.21" height="113.54"/><rect class="s" x="149.99" y="104.65" width="35.44" height="74.28"/><rect class="q" x="156.01" y="110.16" width="23.38" height="63.07"/><rect class="n" x="24.27" y="87.23" width="24.3" height="14.31"/><rect class="n" x="24.27" y="105.7" width="24.3" height="14.31"/><rect class="n" x="24.27" y="124.17" width="24.3" height="14.31"/><rect class="n" x="24.27" y="142.64" width="24.3" height="14.31"/><rect class="n" x="24.27" y="161.11" width="24.3" height="14.31"/><rect class="n" x="286.84" y="87.23" width="24.3" height="14.31"/><rect class="n" x="286.84" y="105.7" width="24.3" height="14.31"/><rect class="n" x="286.84" y="124.17" width="24.3" height="14.31"/><rect class="n" x="286.84" y="142.64" width="24.3" height="14.31"/><rect class="n" x="286.84" y="161.11" width="24.3" height="14.31"/><g><g><path class="s" d="M170.51,53.08h-5.61c-9.7,0-17.59,7.94-17.59,17.7v6.75h40.78v-6.75c0-9.76-7.89-17.7-17.59-17.7Z"/><path class="e" d="M185.1,77.54h-34.78v-6.8c0-8.08,6.55-14.63,14.63-14.63h5.51c8.08,0,14.63,6.55,14.63,14.63v6.8Z"/><path class="h" d="M156.36,73.33c0-8.08,6.55-14.63,14.63-14.63h5.51c.88,0,1.74,.09,2.58,.24-2.42-1.77-5.4-2.83-8.63-2.83h-5.51c-8.08,0-14.63,6.55-14.63,14.63v6.8h6.04v-4.21Z"/><rect class="s" x="165.57" y="56.1" width="4.61" height="21.43"/></g><rect class="s" x="147.31" y="74.1" width="40.78" height="3.44"/></g><path class="d" d="M41.27,199.18c8.55-6.79,14.14-28.27-7.19-28.27s-15.74,21.48-7.19,28.27h14.38Z"/><path class="d" d="M69.88,199.18c6.82-5.42,6.79-22.57-10.24-22.57s-17.06,17.15-10.24,22.57h20.48Z"/><g><rect class="s" x="294.8" y="136.19" width="3.38" height="46.55"/><rect class="s" x="286" y="129.83" width="3.38" height="37.66" transform="translate(-36.06 155.88) rotate(-28.61)"/><polygon class="k" points="307.3 174.99 285.73 174.99 289.97 196.58 303.05 196.58 307.3 174.99"/><rect class="b" x="285.73" y="174.99" width="21.57" height="4.38"/><ellipse class="d" cx="306.37" cy="138.29" rx="17.42" ry="22.71" transform="translate(74.07 381.24) rotate(-70.58)"/><ellipse class="d" cx="282.67" cy="125.79" rx="23.72" ry="18.87" transform="translate(-26.44 138.95) rotate(-26.43)"/><ellipse class="d" cx="297.73" cy="105.8" rx="14.69" ry="11.75"/><ellipse class="d" cx="313.04" cy="122.9" rx="16.03" ry="15.26"/></g></g><g><path class="g" d="M306.2,105.63s.31,3.27-1.52,5.1-5.09,1.53-5.09,1.53c0,0-.31-3.27,1.52-5.1,1.83-1.83,5.09-1.53,5.09-1.53Z"/><circle class="p" cx="297.33" cy="116.75" r="5.57"/></g><g><path class="g" d="M288.06,119.5s.31,3.27-1.52,5.1c-1.83,1.83-5.09,1.53-5.09,1.53,0,0-.31-3.27,1.52-5.1,1.83-1.83,5.09-1.53,5.09-1.53Z"/><circle class="p" cx="279.19" cy="130.62" r="5.57"/></g><g><path class="g" d="M314.51,125.77s.31,3.27-1.52,5.1c-1.83,1.83-5.09,1.53-5.09,1.53,0,0-.31-3.27,1.52-5.1s5.09-1.53,5.09-1.53Z"/><circle class="p" cx="305.64" cy="136.89" r="5.57"/></g></g></svg>