<?xml version="1.0" encoding="UTF-8"?><svg id="a" xmlns="http://www.w3.org/2000/svg" viewBox="0 0 176.4 278.48"><defs><style>.b{fill:#432b22;}.c{fill:#9d9d9d;}.d{fill:#371e0f;}.e{fill:#2a2420;}.f{fill:#1c1712;}.g{fill:#0f0a09;}.h{fill:#cac9c7;}.i{fill:#845c3e;}.j{fill:#4d4b4b;}.k{fill:#2e2925;}.l{fill:#58381c;}.m{fill:#503017;}.n{fill:#2f1612;}.o{fill:#56371c;}.p{fill:#3d2311;}.q{fill:#1e0d0e;}.r{fill:#543736;}.s{fill:#35312e;}.t{fill:#f9f8f8;}.u{fill:#4c2f1f;}.v{fill:#fff;}.w{fill:#472514;}.x{fill:#7c5537;}.y{fill:#3d2017;}.a`{fill:#424142;}.aa{fill:#482a14;}.ab{fill:#815d42;}.ac{fill:#5e4128;}.ad{fill:#301b0e;}.ae{fill:#110f0f;}.af{fill:#4f2e1f;}.ag{fill:#dbdbdb;}.ah{fill:#512c1e;}.ai{fill:#393838;}.aj{fill:#403c39;}.ak{fill:#5a3d25;}.al{fill:#47301f;}.am{fill:#402218;}.an{fill:#462626;}.ao{fill:#2e2d2d;}.ap{fill:#f6f6f6;}.aq{opacity:.5;}.ar{fill:#a07b59;}.as{fill:#d2d0cf;}.at{fill:#605a51;}.au{fill:#3f2121;}.av{fill:#3c1b18;}.aw{fill:#0c0c0c;}.ax{fill:#4c2617;}.ay{fill:#e2e2e2;}.b`{fill:#361714;}.ba{fill:#2f1c0e;}.bb{fill:#4d3829;}.bc{fill:#331c0f;}.bd{fill:#472a14;}.be{fill:#4b2a1c;}.bf{fill:#593c2e;}.bg{fill:#422012;}.bh{fill:#4c4a4a;}.bi{fill:#c7a17b;}.bj{fill:#323232;}.bk{fill:#3b2011;}.bl{fill:#56392b;}.bm{fill:#6e342f;}.bn{fill:#392619;}.bo{fill:#381e11;}.bp{fill:#543829;}.bq{fill:#464544;}.br{fill:#2f2c2a;}.bs{fill:#442215;}.bt{fill:#825b3c;}.bu{fill:#240e0e;}.bv{fill:#705038;}.bw{fill:#321812;}.bx{fill:#624831;}.by{fill:#f49398;}.c`{fill:#593c26;}.ca{fill:#adabab;}.cb{fill:#593d2e;}.cc{fill:#6c483b;}.cd{fill:#341c0e;}.ce{fill:#514e4c;}.cf{fill:#4b3520;}.cg{fill:#33302e;}.ch{fill:#3a200f;}.ci{fill:#1e1412;}.cj{fill:#6e6d6e;}.ck{fill:#412121;}.cl{fill:#5d422d;}.cm{fill:#a27e5a;}.cn{fill:#805637;}.co{fill:#333;}.cp{fill:#46271a;}.cq{fill:#23201d;}.cr{fill:#381a11;}.cs{fill:#44281d;}.ct{fill:#614033;}.cu{fill:#24211e;}.cv{fill:#4a4848;}.cw{fill:#523527;}.cx{fill:#401f12;}.cy{fill:#271110;}.d`{fill:#4a2d16;}.da{fill:#3f2713;}.db{fill:#36302b;}.dc{fill:#382111;}.dd{fill:#311d0f;}.de{fill:#2a180c;}.df{fill:#342d28;}.dg{fill:#341c0f;}.dh{fill:#3c1915;}.di{fill:#674528;}.dj{fill:#55361d;}.dk{fill:#4e2f17;}.dl{fill:#361d0e;}.dm{fill:#402613;}.dn{fill:#211d1b;}.do{fill:#2a2623;}.dp{fill:#3a1f11;}.dq{fill:#402322;}.dr{fill:#181818;}.ds{fill:#58392d;}.dt{fill:#3b200f;}.du{fill:#414141;}.dv{fill:#4e4e4f;}.dw{fill:#481f14;}.dx{fill:#55361b;}.dy{fill:#3d2211;}.e`{fill:#211612;}.ea{fill:#553022;}.eb{fill:#442712;}.ec{fill:#0c0d17;}.ed{fill:#321b0f;}.ee{fill:#b2b0b0;}.ef{fill:#323131;}.eg{fill:#575656;}.eh{fill:#504f4f;}.ei{fill:#3d3d3c;}.ej{fill:#2e1a0e;}.ek{fill:#4e2f16;}.el{fill:#373636;}.em{fill:#573f31;}.en{fill:#b0adac;}.eo{fill:#171717;}.ep{fill:#464646;}.eq{fill:#a17c5a;}.er{fill:#614c3e;}.es{fill:#0e0e0e;}.et{fill:#845d3e;}.eu{fill:#3b1d14;}.ev{fill:#745036;}.ew{fill:#432712;}.ex{fill:#191311;}.ey{fill:#555454;}.f`{fill:#7e5a3f;}.fa{fill:#281d15;}.fb{fill:#341d0f;}.fc{fill:#36190f;}.fd{fill:#3a2011;}.fe{fill:#412511;}.ff{fill:#373737;}.fg{fill:#c19c78;}.fh{fill:#492816;}.fi{fill:#4d4c4d;}.fj{fill:#41403f;}.fk{fill:#3f2615;}.fl{fill:#1c1b1b;}.fm{fill:#391d10;}.fn{fill:#939292;}.fo{fill:#431d11;}.fp{fill:#361716;}.fq{fill:#513534;}.fr{fill:#503525;}.fs{fill:#805c41;}.ft{fill:#2a0f0f;}.fu{fill:#292929;}.fv{fill:#78543a;}.fw{fill:#0b0b0b;}.fx{fill:#222120;}.fy{fill:#321e0f;}.g`{fill:#301610;}.ga{fill:#c7a17c;}.gb{fill:#3d1e1c;}.gc{fill:#413c39;}.gd{fill:#341910;}.ge{fill:#503117;}.gf{fill:#361717;}.gg{fill:#280e0e;}.gh{fill:#4f2f16;}.gi{fill:#4f4e4e;}.gj{fill:#351e10;}.gk{fill:#502f20;}.gl{fill:#3f2613;}.gm{fill:#545454;}.gn{fill:#53392a;}.go{fill:#23211f;}.gp{fill:#4f3119;}.gq{fill:#523628;}.gr{fill:#351810;}.gs{fill:#4d3123;}.gt{fill:#3d2111;}.gu{fill:#3f2219;}.gv{fill:#805737;}.gw{fill:#674931;}.gx{fill:#5e4133;}.gy{fill:#442519;}.h`{fill:#845c3d;}.ha{fill:#0e0e0d;}.hb{fill:#3a3939;}.hc{fill:#3b1e15;}.hd{fill:#363330;}.he{fill:#583c25;}.hf{fill:#eabc95;}.hg{fill:#646565;}.hh{fill:#533736;}.hi{fill:#484646;}.hj{fill:#351d0e;}.hk{fill:#83807e;}.hl{fill:#421e19;}.hm{fill:#141412;}.hn{fill:#5c3d2e;}.ho{fill:#53341a;}.hp{fill:#3c1d15;}.hq{fill:#371e0e;}.hr{fill:#4d2e15;}.hs{fill:#533635;}.ht{fill:#280f0e;}.hu{fill:#4c3525;}.hv{fill:#5a3c2d;}.hw{fill:#654324;}.hx{fill:#513218;}.hy{fill:#983341;}.i`{fill:#4b3019;}.ia{fill:#c59f7a;}.ib{fill:#704f38;}.ic{fill:#2c190d;}.id{fill:#949393;}.ie{fill:#dfdfdf;}.if{fill:#1d1613;}</style></defs><path class="aq" d="M172.95,127.26c-.41-1.08-1.18-1.97-2.17-2.54-.09-1.51-.76-2.94-1.94-3.96-.48-.42-1.03-.75-1.61-.97-.05-.97-.2-1.91-.45-2.82-.03-.41-.12-.8-.26-1.2l-.04-.14c-.14-.49-.45-1.6-1.28-2.68-.19-.38-.44-.77-.76-1.17-.56-1.11-1.44-2-2.52-2.56-.22-.14-.46-.26-.71-.36-.61-.25-1.28-.39-1.94-.39-2.25,0-4.21,1.43-4.89,3.61-.38,1.27-.39,2.57-.03,3.84-.08,3.12-1.34,4.57-4.56,5.41-.22,.06-.46,.11-.71,.15-.29-.26-.59-.5-.91-.72-1.98-2.04-4.39-3.68-7.35-4.99-3.4-1.51-6.77-2.27-10.01-2.27-3.62,0-7.07,.95-10.24,2.81-7.79,4.58-14.78,7.27-22,8.46-.54,.09-.95,.13-1.25,.13-.08,0-.14,0-.18,0-.05-.05-.12-.13-.22-.27-.84-1.16-1.72-2.19-2.57-3.2-1.54-1.81-2.87-3.37-3.43-5.01-.45-1.33-.87-2.64-1.26-3.94,.77,.46,2.1,1.21,3.86,1.29,.63,.22,1.31,.33,2.03,.33,.21,0,.43-.01,.7-.03h2.33c.26,.04,.52,.05,.77,.05,.81,0,1.58-.17,2.27-.47,1.93-.26,3.22-1.38,4.03-2.36,.82-.61,1.59-1.54,2.15-2.92l-2.98-1.21v-.05l3.03,1.16c1.29-3.16,1.39-6.48,.28-9.61-.82-3.43-2.58-6.14-5.24-8.04-.2-.16-.39-.32-.59-.48-.58-.48-1.25-1.03-2.04-1.54-.39-.6-.8-1.06-1.11-1.4-1.49-2.69-2.78-5.59-3.88-8.12-.88-2.03-2.16-4.61-4.25-6.86-.67-.97-1.41-1.75-2.25-2.36-.91-1-1.94-1.6-2.77-2,0,0-.91-.54-.94-.56,2.4-1.9,4.84-4.15,6.95-6.95,1.7-1.86,3.1-3.89,4.15-6.05,.19-.25,.4-.57,.59-.96,6.16-12.86,7.26-25.94,3.27-38.88-.39-1.26-1.04-3.37-3.02-5.16-.94-.85-2.14-1.29-3.36-1.29-.71,0-1.43,.15-2.1,.46-1.82,.84-2.96,2.69-2.9,4.7,.15,4.88,.15,10.11-.93,15.28-2.22,10.65-7.33,18.35-15.58,23.42,.01-.23,.01-.43,.02-.61,.08-.19,.14-.38,.19-.58,.17-.43,.3-.87,.39-1.32l.95-1.98c.8-1.66,.61-3.63-.48-5.12-.95-1.29-2.45-2.04-4.03-2.04-.24,0-.47,.02-.71,.05l-1.29,.19c-3.63,.45-6.1,2.37-7.82,4.39-.2-.14-.4-.27-.61-.39,1.12-8.6,4.91-16.84,11.75-25.65,1.47-1.9,1.39-4.57-.2-6.37-.98-1.11-2.36-1.69-3.75-1.69-.87,0-1.75,.23-2.55,.7-13.41,7.95-22.16,20.31-26.7,37.76-.46,.29-.92,.68-1.33,1.19-1.45,1.06-2.28,2.35-2.66,2.99-1.08,1.64-1.26,3.59-.47,5.29,.1,.22,.27,.53,.5,.85-.34,.69-.57,1.48-.68,2.37v.07c-.04,.14-.06,.28-.08,.41-.13,1.11-.27,2.31-.02,3.49-.25,.38-.48,.75-.71,1.12-.37,.58-.72,1.14-1.07,1.66-.69,.54-1.28,1.19-1.75,1.9-1.87,1.89-3.37,4.24-4.71,7.32-.53,1.22-1.01,2.44-1.47,3.62-1.19,3.04-2.32,5.92-4.07,8.22l-2.42,2.79-1.86,1.62-.59,.38c-1.14,.63-2.11,1.49-2.88,2.52-.7,.66-1.33,1.59-1.71,2.91-.39,.74-.6,1.46-.72,2.06-.37,.7-.58,1.5-.58,2.34v1.03c0,.74,.16,1.45,.46,2.1,.08,.49,.21,.92,.37,1.31,.29,1.37,.91,2.38,1.52,3.09,.76,1.21,1.72,2.15,2.86,2.8,1.39,1.13,2.92,1.35,3.58,1.44l.33,.05c.59,.09,1.32,.2,2.17,.2,1.01,0,1.97-.17,2.86-.5,2.12-.25,3.53-1.41,4.26-2.02l.61-.43c.29-.12,.71-.3,1.18-.59,.89-.23,1.72-.55,2.48-.97,.78-.17,1.77-.48,2.72-1.1,.11,.43,.28,.85,.5,1.23l.15,.27c.18,.71,.47,1.39,.86,2.06,.21,.47,.56,1.23,1.2,1.99,.4,.64,.89,1.21,1.47,1.69,.28,.35,.59,.67,.94,.95,.77,.98,1.77,1.74,2.95,2.24,.15,.1,.29,.19,.43,.27,.53,1.04,1.3,1.77,2.14,2.25,.98,1.3,2.08,2.02,3.14,2.4-.38,1.77-1.44,3.04-3.44,4.22-1.89,1.11-2.83,3.32-2.33,5.45,.5,2.13,2.33,3.69,4.52,3.84,.8,.06,1.46,.08,2.07,.08,.05,0,.11,0,.16,0-.47,2.16-1.35,3.9-2.72,5.43l-1.29,.96c-1.65,1.23-2.38,3.35-1.83,5.33,.54,1.98,2.25,3.43,4.29,3.65,.91,.1,1.73,.14,2.5,.14,2.55,0,4.76-.54,6.73-1.65,1.68-.73,3.02-1.68,4.07-2.9,.36,2.5,.69,4.89,.79,7.26-.26,1.15-.44,2.4-.32,3.77-.16,3.4-.15,6.51,.02,9.46-.06,.92-.05,2.04,.25,3.24,0,.96,.04,2.14,.41,3.43,.65,6.87,2.38,13.32,3.84,18.21,.88,2.97,1.9,5.88,2.89,8.7,1.49,4.25,2.89,8.27,3.86,12.43,2.71,11.67,3.34,20.88,1.99,29.43-3.25,1.79-5.27,4.44-6.59,6.47-1.64,2.52-2.71,5.11-3.74,7.62l-.18,.43c-1.09,2.64-.33,4.61,.22,5.54,.67,1.14,2.03,2.56,4.72,2.87,2.07,.24,3.83,.42,5.66,.49,1.07,.04,2.13,.06,3.2,.06,3.07,0,6.39-.17,10.38-.53,.52,2.26,2.22,3.9,4.78,4.47,3.09,.69,6.11,.97,8.64,1.11,.57,.23,1.19,.35,1.83,.35h1.72c.64,0,1.26-.12,1.83-.35,2.91-.15,6.01-.5,9.42-1.07,3.26-.55,5.33-2.87,5.52-6.21,.32-5.6-1.16-10.54-4.27-14.29-1.76-2.12-1.98-3.58-1.76-5.13,.02-.13,.03-.27,.04-.4l.12-2.07c.09-1.55,.19-3.11,.26-4.66,.33-6.89,1.16-14.15,4.94-20.59,3.07-5.24,4.34-10.62,3.78-16.04,2.07-.24,4.05-.67,5.89-1.21,.04,.19,.08,.38,.12,.57,.36,1.57,.84,3.08,1.21,4.22,2.71,8.29,3.62,17.26,2.71,26.65-.15,1.49-.37,3-.61,4.59-.27,1.8-.55,3.64-.72,5.55-3.08,1.85-5.42,4.48-6.83,7.66-1.08,2-1.32,4-1.5,5.48l-.05,.45c-.31,2.51,.58,4.19,1.38,5.16,.8,.96,2.27,2.15,4.77,2.31,.39,.03,.87,.1,1.37,.17,.91,.14,1.95,.29,3.12,.29,.24,0,.47,0,.7-.02,1.1,.17,2.18,.26,3.24,.26s2.14-.09,3.18-.26c.14,0,.28,0,.42,0,1.2,0,2.24-.2,3.08-.36,.3-.06,.6-.12,.91-.16,3.55-.46,5.87-3.17,5.91-6.91,.03-2.68-.45-5.32-1.43-7.84-.58-1.94-1.65-3.35-2.59-4.43,.02-.13,.04-.26,.06-.39,.57-3.55,.75-7.06,.93-10.45,.16-3.06,.32-5.96,.73-8.81,1.48-10.17,3.76-18.3,7.17-25.61,5.07-10.83,7.73-22.42,7.92-34.43,.13-8.29-1.13-16.48-3.76-24.43,.13-.02,.25-.05,.38-.08,.97-.09,1.92-.36,2.81-.79,.51-.17,.99-.42,1.43-.75,1.58-.95,3.74-2.35,4.97-5.03,.39-.53,.96-1.36,1.32-2.47,.23-.45,.41-.96,.53-1.56,.61-1.56,.62-3.23,.02-4.82Zm-81.55,121.68c-.26-.43-.53-.86-.83-1.28,0,0,.36-2.81,.36-2.81,.38-1.13,.42-2.17,.39-2.94l.02-.38c.25-.86,.35-1.76,.31-2.74l.06-1.09c.25-.98,.34-2.01,.28-3.12l.09-2.58c.4-3.51,.39-6.66,0-9.62l-.07-1.51c.03-.77,0-1.82-.38-2.96-.14-1.05-.35-2.03-.54-2.91-.23-1.05-.42-1.96-.46-2.76,.03-.99-.05-1.88-.24-2.72-.01-.07-.03-.14-.04-.21l-.09-3.69v-2.93l.03-.95c2.04,.79,4.06,1.27,6.11,1.46,.45,.04,.48,.05,.88,.58l.13,.17c1.41,1.91,2.21,3.05,2.22,4.28,.1,8.53,.07,18.44-1.68,28-.72,3.96-1.5,7.48-3.54,10.17-1.12,.74-2.13,1.59-3.01,2.54Z"/><path class="v" d="M167.95,122.26c-.41-1.08-1.18-1.97-2.17-2.54-.09-1.51-.76-2.94-1.94-3.96-.48-.42-1.03-.75-1.61-.97-.05-.97-.2-1.91-.45-2.82-.03-.41-.12-.8-.26-1.2l-.04-.14c-.14-.49-.45-1.6-1.28-2.68-.19-.38-.44-.77-.76-1.17-.56-1.11-1.44-2-2.52-2.56-.22-.14-.46-.26-.71-.36-.61-.25-1.28-.39-1.94-.39-2.25,0-4.21,1.43-4.89,3.61-.38,1.27-.39,2.57-.03,3.84-.08,3.12-1.34,4.57-4.56,5.41-.22,.06-.46,.11-.71,.15-.29-.26-.59-.5-.91-.72-1.98-2.04-4.39-3.68-7.35-4.99-3.4-1.51-6.77-2.27-10.01-2.27-3.62,0-7.07,.95-10.24,2.81-7.79,4.58-14.78,7.27-22,8.46-.54,.09-.95,.13-1.25,.13-.08,0-.14,0-.18,0-.05-.05-.12-.13-.22-.27-.84-1.16-1.72-2.19-2.57-3.2-1.54-1.81-2.87-3.37-3.43-5.01-.45-1.33-.87-2.64-1.26-3.94,.77,.46,2.1,1.21,3.86,1.29,.63,.22,1.31,.33,2.03,.33,.21,0,.43-.01,.7-.03h2.33c.26,.04,.52,.05,.77,.05,.81,0,1.58-.17,2.27-.47,1.93-.26,3.22-1.38,4.03-2.36,.82-.61,1.59-1.54,2.15-2.92l-2.98-1.21v-.05l3.03,1.16c1.29-3.16,1.39-6.48,.28-9.61-.82-3.43-2.58-6.14-5.24-8.04-.2-.16-.39-.32-.59-.48-.58-.48-1.25-1.03-2.04-1.54-.39-.6-.8-1.06-1.11-1.4-1.49-2.69-2.78-5.59-3.88-8.12-.88-2.03-2.16-4.61-4.25-6.86-.67-.97-1.41-1.75-2.25-2.36-.91-1-1.94-1.6-2.77-2,0,0-.91-.54-.94-.56,2.4-1.9,4.84-4.15,6.95-6.95,1.7-1.86,3.1-3.89,4.15-6.05,.19-.25,.4-.57,.59-.96,6.16-12.86,7.26-25.94,3.27-38.88-.39-1.26-1.04-3.37-3.02-5.16-.94-.85-2.14-1.29-3.36-1.29-.71,0-1.43,.15-2.1,.46-1.82,.84-2.96,2.69-2.9,4.7,.15,4.88,.15,10.11-.93,15.28-2.22,10.65-7.33,18.35-15.58,23.42,.01-.23,.01-.43,.02-.61,.08-.19,.14-.38,.19-.58,.17-.43,.3-.87,.39-1.32l.95-1.98c.8-1.66,.61-3.63-.48-5.12-.95-1.29-2.45-2.04-4.03-2.04-.24,0-.47,.02-.71,.05l-1.29,.19c-3.63,.45-6.1,2.37-7.82,4.39-.2-.14-.4-.27-.61-.39,1.12-8.6,4.91-16.84,11.75-25.65,1.47-1.9,1.39-4.57-.2-6.37-.98-1.11-2.36-1.69-3.75-1.69-.87,0-1.75,.23-2.55,.7-13.41,7.95-22.16,20.31-26.7,37.76-.46,.29-.92,.68-1.33,1.19-1.45,1.06-2.28,2.35-2.66,2.99-1.08,1.64-1.26,3.59-.47,5.29,.1,.22,.27,.53,.5,.85-.34,.69-.57,1.48-.68,2.37v.07c-.04,.14-.06,.28-.08,.41-.13,1.11-.27,2.31-.02,3.49-.25,.38-.48,.75-.71,1.12-.37,.58-.72,1.14-1.07,1.66-.69,.54-1.28,1.19-1.75,1.9-1.87,1.89-3.37,4.24-4.71,7.32-.53,1.22-1.01,2.44-1.47,3.62-1.19,3.04-2.32,5.92-4.07,8.22l-2.42,2.79-1.86,1.62-.59,.38c-1.14,.63-2.11,1.49-2.88,2.52-.7,.66-1.33,1.59-1.71,2.91-.39,.74-.6,1.46-.72,2.06-.37,.7-.58,1.5-.58,2.34v1.03c0,.74,.16,1.45,.46,2.1,.08,.49,.21,.92,.37,1.31,.29,1.37,.91,2.38,1.52,3.09,.76,1.21,1.72,2.15,2.86,2.8,1.39,1.13,2.92,1.35,3.58,1.44l.33,.05c.59,.09,1.32,.2,2.17,.2,1.01,0,1.97-.17,2.86-.5,2.12-.25,3.53-1.41,4.26-2.02l.61-.43c.29-.12,.71-.3,1.18-.59,.89-.23,1.72-.55,2.48-.97,.78-.17,1.77-.48,2.72-1.1,.11,.43,.28,.85,.5,1.23l.15,.27c.18,.71,.47,1.39,.86,2.06,.21,.47,.56,1.23,1.2,1.99,.4,.64,.89,1.21,1.47,1.69,.28,.35,.59,.67,.94,.95,.77,.98,1.77,1.74,2.95,2.24,.15,.1,.29,.19,.43,.27,.53,1.04,1.3,1.77,2.14,2.25,.98,1.3,2.08,2.02,3.14,2.4-.38,1.77-1.44,3.04-3.44,4.22-1.89,1.11-2.83,3.32-2.33,5.45,.5,2.13,2.33,3.69,4.52,3.84,.8,.06,1.46,.08,2.07,.08,.05,0,.11,0,.16,0-.47,2.16-1.35,3.9-2.72,5.43l-1.29,.96c-1.65,1.23-2.38,3.35-1.83,5.33,.54,1.98,2.25,3.43,4.29,3.65,.91,.1,1.73,.14,2.5,.14,2.55,0,4.76-.54,6.73-1.65,1.68-.73,3.02-1.68,4.07-2.9,.36,2.5,.69,4.89,.79,7.26-.26,1.15-.44,2.4-.32,3.77-.16,3.4-.15,6.51,.02,9.46-.06,.92-.05,2.04,.25,3.24,0,.96,.04,2.14,.41,3.43,.65,6.87,2.38,13.32,3.84,18.21,.88,2.97,1.9,5.88,2.89,8.7,1.49,4.25,2.89,8.27,3.86,12.43,2.71,11.67,3.34,20.88,1.99,29.43-3.25,1.79-5.27,4.44-6.59,6.47-1.64,2.52-2.71,5.11-3.74,7.62l-.18,.43c-1.09,2.64-.33,4.61,.22,5.54,.67,1.14,2.03,2.56,4.72,2.87,2.07,.24,3.83,.42,5.66,.49,1.07,.04,2.13,.06,3.2,.06,3.07,0,6.39-.17,10.38-.53,.52,2.26,2.22,3.9,4.78,4.47,3.09,.69,6.11,.97,8.64,1.11,.57,.23,1.19,.35,1.83,.35h1.72c.64,0,1.26-.12,1.83-.35,2.91-.15,6.01-.5,9.42-1.07,3.26-.55,5.33-2.87,5.52-6.21,.32-5.6-1.16-10.54-4.27-14.29-1.76-2.12-1.98-3.58-1.76-5.13,.02-.13,.03-.27,.04-.4l.12-2.07c.09-1.55,.19-3.11,.26-4.66,.33-6.89,1.16-14.15,4.94-20.59,3.07-5.24,4.34-10.62,3.78-16.04,2.07-.24,4.05-.67,5.89-1.21,.04,.19,.08,.38,.12,.57,.36,1.57,.84,3.08,1.21,4.22,2.71,8.29,3.62,17.26,2.71,26.65-.15,1.49-.37,3-.61,4.59-.27,1.8-.55,3.64-.72,5.55-3.08,1.85-5.42,4.48-6.83,7.66-1.08,2-1.32,4-1.5,5.48l-.05,.45c-.31,2.51,.58,4.19,1.38,5.16,.8,.96,2.27,2.15,4.77,2.31,.39,.03,.87,.1,1.37,.17,.91,.14,1.95,.29,3.12,.29,.24,0,.47,0,.7-.02,1.1,.17,2.18,.26,3.24,.26s2.14-.09,3.18-.26c.14,0,.28,0,.42,0,1.2,0,2.24-.2,3.08-.36,.3-.06,.6-.12,.91-.16,3.55-.46,5.87-3.17,5.91-6.91,.03-2.68-.45-5.32-1.43-7.84-.58-1.94-1.65-3.35-2.59-4.43,.02-.13,.04-.26,.06-.39,.57-3.55,.75-7.06,.93-10.45,.16-3.06,.32-5.96,.73-8.81,1.48-10.17,3.76-18.3,7.17-25.61,5.07-10.83,7.73-22.42,7.92-34.43,.13-8.29-1.13-16.48-3.76-24.43,.13-.02,.25-.05,.38-.08,.97-.09,1.92-.36,2.81-.79,.51-.17,.99-.42,1.43-.75,1.58-.95,3.74-2.35,4.97-5.03,.39-.53,.96-1.36,1.32-2.47,.23-.45,.41-.96,.53-1.56,.61-1.56,.62-3.23,.02-4.82Zm-81.55,121.68c-.26-.43-.53-.86-.83-1.28,0,0,.36-2.81,.36-2.81,.38-1.13,.42-2.17,.39-2.94l.02-.38c.25-.86,.35-1.76,.31-2.74l.06-1.09c.25-.98,.34-2.01,.28-3.12l.09-2.58c.4-3.51,.39-6.66,0-9.62l-.07-1.51c.03-.77,0-1.82-.38-2.96-.14-1.05-.35-2.03-.54-2.91-.23-1.05-.42-1.96-.46-2.76,.03-.99-.05-1.88-.24-2.72-.01-.07-.03-.14-.04-.21l-.09-3.69v-2.93l.03-.95c2.04,.79,4.06,1.27,6.11,1.46,.45,.04,.48,.05,.88,.58l.13,.17c1.41,1.91,2.21,3.05,2.22,4.28,.1,8.53,.07,18.44-1.68,28-.72,3.96-1.5,7.48-3.54,10.17-1.12,.74-2.13,1.59-3.01,2.54Z"/><g><path class="ah" d="M8.66,102.11c-.61-.44,.02-1.35-.67-1.76v-1.03c.41-.06,.28-.44,.39-.68,.63,0,.6,.53,.74,.91,.12,.68,.38,1.36,.13,2.07-.12,.25-.32,.42-.59,.48Z"/><path class="h" d="M97.57,265.48c-.02-.09-.03-.18-.02-.27,.58-.6,1.17-.59,1.76,0,0,.09,0,.19-.02,.28h-1.72Z"/><path class="hf" d="M54.48,47.26l.75,1.09c.35,.73,.51,1.51,.68,2.27,1.06-2.77,1.96-5.61,3.92-7.91,.79-.93,1.58-1.97,3.07-1.67,.34,.5,.07,.95-.13,1.4-.37,.58-.17,1.25-.33,1.87l.06,.09-.06,.08c-.59,.52-.44,1.28-.61,1.94-.11,1.83-.11,3.66,0,5.49,.19,.66,.17,1.38,.46,2.02,.74,.76,1.99,1.2,1.73,2.62-.72,1.41-2.06,1.94-3.42,2.46-.88,.4-1.83,.59-2.73,.92-.29,.13-.58,.25-.9,.27-.69-.09-1.34,.17-2.01,.24-.45,.05-.87,.21-1.3,.35-1.28,.32-2.38,.96-3.37,1.83-.96,.87-1.86,1.82-2.77,2.75-.46,.44-.73,1-1.02,1.55-.49,.31-.56,1.88-1.59,.52-.2-.78-.11-1.58-.13-2.38,0-.26,.02-.52,.06-.78,.02-.17,.06-.33,.11-.49,.46-1.28,.85-2.59,1.55-3.76-.32-.44-.59,.15-.89,.05-.9,.19-1.74,.54-2.56,.96-.99,.43-1.84,1.07-2.59,1.84-.15,.07-.31,.09-.47,.08-.25-.07-.42-.24-.5-.49-.12-.51,.09-.95,.29-1.4,.25-.47,.49-.96,.73-1.44,.22-.4,.45-.8,.71-1.18,.42-.66,.91-1.26,1.46-1.81,.39-.41,.82-.79,1.16-1.03-2.11,1.12-4.32,2.39-6.83,2.99-.68,.25-1.29,.69-2.04,.74-.5-.03-.96,.19-1.45,.23-.16-.03-.31-.09-.44-.2-.37-1,.3-1.62,.87-2.23,1.75-1.86,3.52-3.71,5.79-4.97,.32-.18,.76-.28,.83-.75,0-.04-.05-.1-.09-.13-.04-.03-.1-.05-.17-.06-2.3,.36-4.61,.32-6.92,.35-.67-.27-.44-.68-.14-1.06,.31-.4,.7-.74,1.06-1.1,.37-.29,.74-.59,1.14-.84,.41-.17,.69-.53,1.09-.72,.32-.16,.59-.41,.95-.5,.28-.1,.56-.19,.83-.31,.14-.07,.29-.12,.44-.17,.87-.31,1.79-.38,2.67-.65,1.58-.19,3.14-.15,4.69,.25,1.05,.21,2.12,.39,3.17,.58,.23,.03,.17-.34,.14-.12-.01,.07-.06,.07-.13,.08-.37,.05-.68-.11-.94-.31-2.18-1.7-4.72-2.5-7.39-2.98-.19-.1-.28-.25-.28-.46,1.68-1.44,3.67-.84,5.56-.84,.4,0,.77,.21,1.17,.25,.63,.1,1.14,.52,1.76,.64,.95,.29,1.87,.64,2.65,1.28,.46,.21,.69,.65,1.05,.97,.21-.06,.29,.01,.26,.23,.49,.46,.95,.95,1.35,1.49Z"/><path class="by" d="M94.97,103.48c.09,.16,.02,.23-.14,.26-1.62,.14-3.24,.1-4.86,0-1.07-.37-2.23-.46-3.23-1.06-.62-.22-1.09-.67-1.64-1-.47-.26-.81-.69-1.29-.94-.61-.4-1.2-.83-1.44-1.58-.47-.39-.79-.91-1.15-1.39-.26-.37-.55-.72-.79-1.11-.29-.45-.46-.97-.73-1.43-.55-.79-.93-1.66-1.27-2.55-.38-.67-.43-1.46-.76-2.15-.34-1.04-.33-2.13-.43-3.21,0-.37,0-.74,0-1.11-.01-1.03-.12-2.05-.38-3.06-.1-.39-.2-.78-.24-1.18-.18-1.59,.86-3.42,2.02-3.59,1.17-.17,2.26,.88,2.66,2.66,.3,1.34,.3,2.72,.56,4.08,.64,3.38,3.15,7.01,7.85,7.5,2.34,.25,4.61,.86,6.71,1.99,.71,.38,1.42,.76,1.76,1.56,.71,1.55,.38,3.1,0,4.65-.22,.59-.61,1.09-.96,1.61l.04-.03c-.66,.57-1.35,1.08-2.28,1.07Z"/><path class="cd" d="M63.69,56.55c.16-1.26-.92-1.7-1.6-2.4-.13-.36,.03-.42,.34-.34,.74,.73,1.46,.32,2.2-.01,12.82-5.73,20.13-15.77,22.95-29.35,1.12-5.38,1.21-10.82,1.03-16.46,.96,.86,1.28,1.92,1.59,2.93,3.74,12.15,2.44,23.88-3,35.25-.07,.15-.21,.27-.32,.4-.33,.1-.46-.11-.56-.36-.07-1.36,.98-2.32,1.25-3.56,.45-1.11,.96-2.2,1.27-3.36,.83-2.75,1.36-5.57,1.87-8.39,.25-3.24,.89-6.45,.33-9.71-.18-2.79-.7-5.51-1.36-8.19,.52,11.43-3.44,26.07-14,35.21-2.66,2.3-5.57,4.22-8.75,5.75-.45,.22-1.14,.3-1.21,.85-.08,.62,.68,.66,1.07,.95,.51,.37,1.05,.7,1.57,1.05,1.04,.81,2.16,1.53,3.05,2.51,.67,.74,1.31,.71,2.11,.18,1.59-1.05,2.97-2.35,4.48-3.49,.8-.62,1.46-1.38,2.17-2.1,.96-.69,1.41-1.96,2.66-2.31,.24,.1,.43,.24,.28,.55-2.54,3.45-5.83,6.09-9.3,8.52-.82,.57-1.36,1.01-.48,1.92,.07,.08,.12,.2,.15,.31,.47,2.22,1.96,3.33,4.08,3.76,.02,.31-.19,.43-.44,.51-1.03-.15-1.49,.09-1.07,1.26,.61,1.72,.56,3.64,1.58,5.24,.19,.3,.21,.66-.11,.93-.38,.14-.52,.41-.42,.8,.47,1.82,.05,3.63-.33,5.36-.25,1.11,.59,2.25-.26,3.25-.62,.48-.35,1.17-.35,1.76,.1,9.38,2,18.46,5.01,27.29,1.27,3.72,4.41,6.38,6.69,9.53,1.77,2.45,3.8,2.6,6.52,2.15,8.55-1.41,16.29-4.71,23.72-9.08,5.03-2.96,10.44-2.61,15.7-.28,2.31,1.02,4.43,2.38,6.15,4.29,.08,.36-.14,.48-.44,.53-1.01-.19-1.69-.94-2.46-1.52-4-2.99-8.47-4.21-13.42-3.66-2.15,.24-4.08,1.1-5.9,2.24-7.49,4.55-15.52,7.61-24.24,8.77-.74,0-1.43,.3-2.17,.31-.48,.01-.95-.04-1.4-.23-5.06-4.69-9.43-9.8-11.23-16.74-2.14-8.25-3.95-16.51-3.67-25.11,.04-1.27,.38-2.49,.35-3.76,.18-5.24,.05-10.41-2.14-15.34-1.58-3.57-4.04-6.2-7.44-8.03-.52-.28-1.06-.43-1.65-.36-.19,0-.34-.07-.48-.19Z"/><path class="hw" d="M77.55,74.43c-1.57-2.38-1.46-5.25-2.41-7.84,.86-.26,1.41,.31,2.07,.36,.43,.11,.86,.21,1.19,.53,.66,.37,1.23,.85,1.79,1.36,.76,.45,1.19,1.22,1.81,1.82,1.81,2.1,3.02,4.55,4.06,7.08,1.07,2.59,2.34,5.07,3.73,7.49,.48,.59,.81,1.32,1.53,1.69,.06,.08,.09,.18,.06,.28,.96,1.07,2.24,1.73,3.32,2.65,.99,.72,1.74,1.66,2.35,2.7,.27,.46,.71,1.02-.12,1.43-.85,.06-1.46-.44-2.08-.89-1.25-.96-2.77-.98-4.22-1.24-.42-.02-.85-.05-1.26-.16-1.54-.26-2.85-1.1-4.21-1.79-.22-.14-.41-.32-.55-.54-.5-1.18-1.35-2.19-1.62-3.48-.38-1.06-.25-2.21-.57-3.29-.1-.57-.25-1.13-.4-1.69-.66-2.26-1.89-4.13-3.79-5.55-.34-.22-.64-.48-.68-.92Z"/><path class="cd" d="M132.67,241.65c.22-3.78,1.04-7.49,1.41-11.25,.95-9.75,.13-19.34-2.93-28.69-.41-1.25-.8-2.51-1.09-3.79-.24-1.06-.38-2.14-.49-3.22-.11-1.08,.09-2.15,.44-3.37-4.23,1.84-8.37,3.23-12.82,3.51-.29,.02-.57,.03-.86,.04-3.01,.05-3.17,.09-2.53,2.94,1.25,5.54,0,10.72-2.73,15.38-4.18,7.14-5.23,14.89-5.62,22.88-.11,2.23-.25,4.46-.38,6.69-.24,1.37-.03,2.75-.12,4.12-.02,.4,.23,.97-.48,1.09-.4-.32-.46-.78-.47-1.24-.18-8.1,.23-16.16,1.77-24.14,.77-3.98,3.04-7.29,4.71-10.85,2.2-4.68,2.93-9.43,2-14.55-.58-3.15-.49-6.4,.1-9.59,.94-5.02,1.97-10.03,3.62-14.87,1.09-3.2,1.06-6.55,1.54-9.83,.07-.51,.03-1.04,.38-1.47,1.34-.09,1.24,.96,1.24,1.74,.01,2.7-.29,5.37-.96,8-.46,1.78-1.07,3.51-1.54,5.28-1.22,3.85-1.92,7.81-2.65,11.77-.03,.28-.09,.55-.16,.82-.77,4.36-.21,5.12,4.1,4.55,5.52-.73,10.76-2.37,15.21-5.92,3.33-2.66,5.19-6.21,6.08-10.32,1.03-4.71,.93-9.45,.16-14.18-.11-.37-.14-.76-.17-1.14,0-.45,.15-.81,.66-.83,.47-.02,.73,.29,.88,.7,.36,.98,.53,2.01,.61,3.03,.44,5.69,.59,11.35-1.72,16.78-1.41,3.33-3.49,6.1-6.5,8.05-2.04,1.32-2.84,3.03-2.58,5.37,.2,1.78,.52,3.53,1.13,5.21,3.3,9.07,4.12,18.48,3.62,28.01-.24,4.52-1.24,8.98-1.75,13.49-.06,.52-.26,1-.73,1.31-.9-.29-.47-.93-.39-1.49Z"/><path class="cg" d="M104.41,247.89c.75-.97,.23-2.1,.38-3.15,.1-.66-.21-1.38,.29-1.99-.48,3.47,.59,6.27,2.87,9.01,2.51,3.02,3.35,6.82,3.12,10.81-.06,.96-.35,1.4-1.35,1.57-3.45,.58-6.91,.98-10.41,1.06-.59,0-1.18,0-1.76,0-3.14-.12-6.27-.37-9.35-1.06-.87-.19-1.1-.5-1.03-1.36,.2-2.25,.93-4.34,1.85-6.53-1.89,.14-2.02-.9-1.84-2.33,.49-3.81,2.22-6.78,5.58-8.73,.33,.09,.66-.06,.99,.03,1.2,.44,2.47,.47,3.71,.65,.4,.12,.8,.24,1.13,.52,.32,.5,.05,1.09,.23,1.61,.95,.89,2.04,.44,3.08,.3,.68-.23,1.33-.58,2.07-.62,.17,.02,.31,.09,.43,.2Z"/><path class="fb" d="M141.69,121.37l.66,.44c.48,.14,.73,.54,1.04,.88,2.07,2.19,3.49,4.82,4.97,7.4,.19,.4,.43,.76,.62,1.15,.11,.28-.01,.55-.07,.82,4.32,9.55,6.51,19.56,6.34,30.04-.18,11.31-2.65,22.13-7.45,32.39-4.01,8.58-6.23,17.66-7.59,27-.93,6.37-.64,12.83-1.65,19.19-.14,.91-.27,1.82-.41,2.72-.24,.21-.48,.19-.73,.02-.11-.15-.19-.32-.23-.5-.06-.38-.03-.75,.06-1.12,.26-2.79,.79-5.57,.81-8.37,.05-10.02,1.88-19.74,4.74-29.29,1.27-4.24,3.04-8.29,4.82-12.34,5.02-11.35,7.06-23.29,6.21-35.61-.75-10.97-3.75-21.34-10.11-30.53-.87-1.26-2.14-2.26-2.59-3.82,.04-.32,.13-.58,.53-.5Z"/><path class="id" d="M148.86,131.41c-.34-.26-.68-.52-.73-1,.24-.34,.59-.34,.93-.28,2.84,.47,5.68,.67,8.23,.2-.86,.03-2.03,.18-3.21,.12-.76-.04-1.49-.13-2.13-.58-.62-.43-1.24-.92-1.2-1.77,.04-.82,.74-1.12,1.37-1.39,1.59-.68,3.06-1.55,4.41-2.66-1.66,.26-3.24,.84-4.9,1-.77,.07-1.58,.18-2.03-.57-.51-.84,.24-1.39,.73-1.9,.96-.99,1.85-2.03,2.7-3.12,1.45-1.85,2.09-3.93,1.94-6.26,.01-.53-.04-1.05-.19-1.55,.32-.76-.87-1.69,.27-2.35,.19,.48,.85,.7,.72,1.34,.49,.5,.33,1.36,1,1.76v.39c-.18,1.22,.4,2.4,.18,3.62-.17,.92-.35,1.83-.59,2.73-.29,.87-.88,1.64-.91,2.6l-.04-.04c.58,.37,1.16,.2,1.73-.02-.05-.11-.04-.21,.01-.31,.63-.25,1.29-.41,1.83-.85,.24-.2,.61-.38,.93-.1,.3,.26,.27,.61,.11,.94-.32,.66-.5,1.39-.96,1.99-.73,1.09-1.29,2.3-2.27,3.21l-.35,.34c-.36,.59-1.12,.66-1.55,1.16,.62,1.13,1.51,.45,2.32,.36,1.14-.16,2.17-.64,3.22-1.07,.52-.17,.86-.91,1.56-.53,.42,.78-.29,1.21-.55,1.78-.66,1.54-2.25,2.2-3.25,3.43l-.12,.11h-.16c-.96,0-1.86,.33-2.8,.48-2.18,.06-4.3-.21-6.28-1.21Z"/><path class="hj" d="M37.62,47.59l-1,.45c-.16-.14-.17-.3-.04-.46,3.62-15.48,10.84-28.5,24.94-36.85-7.35,9.47-12.54,19.78-13.11,32.02-.64,.28-.78-.25-1.02-.62-.1-.27-.14-.54-.14-.83,.12-.9,.29-1.79,.27-2.71,.43-2.62,.88-5.23,1.8-7.74,.32-.9,.53-1.84,.94-2.7,1.49-3.76,3.3-7.37,5.31-10.88,.38-.63,.78-1.24,1.16-1.87,.09-.15,.31-.36,.28-.41-.12-.2-.19,.05-.26,.1-3.53,2.89-6.63,6.16-9.21,9.94-4.42,6.47-7.56,13.5-9.59,21.05-.26,.47-.07,1.04-.33,1.5Z"/><path class="hy" d="M84.79,89.27l.43,.43c1.29,.69,2.48,1.61,3.99,1.8,.51,.14,1.04,.03,1.55,.08,1.46,.45,3.05,.43,4.4,1.26l1.7,.97c.97,.29,1.27,1.04,1.33,1.96-.04,.17-.13,.31-.25,.44-2.1-2.02-4.85-2.54-7.53-3.03-6.2-1.12-8.98-4.16-9.33-10.51-.06-1.04-.15-2.07-.73-2.97-.93-1.44-2.09-1.37-2.83,.16-.43,.89-.67,1.79-.31,2.81,.41,1.15,.5,2.35,.32,3.57-.14,.09-.27,.07-.38-.04-.1-.48,.04-1.06-.53-1.35-.03-.28-.06-.56-.09-.85-.22-2.2,.06-4.37,.28-6.55,.09-.88-.15-1.79-.21-2.69-.09-1.33,.57-.43,.97-.32,.25,.26,.5,.51,.74,.77,1.95,1.41,3.15,3.35,3.92,5.6-.02,.6,.47,1.09,.37,1.71,.35,1.05,.22,2.19,.58,3.24,.16,1.35,1.12,2.33,1.62,3.53Z"/><path class="dl" d="M34.88,59.04l2-.77c.39-.19,.72-.21,.84,.32-.48,1.02-1.49,1.55-2.25,2.31-4.43,4.4-6.44,9.6-5.39,15.86,.09,.51,.07,1.03,.09,1.54,.62,4.73,1.93,9.29,3.51,13.78,.29,.81,.5,1.64,.72,2.47,.12,.33,.23,.67,.28,1.02-.09,.79-.3,1.53-.88,2.11-.33,0-.46-.18-.48-.48-.08-.69,.15-1.4-.16-2.07-.37-3.09-1.88-5.84-2.56-8.84-.1-.44-.18-.89-.27-1.34-.42-.43-.7-.96-.93-1.51-.75-1.51-.21-3.35-1.25-4.79,.52-1.85-.04-3.71,0-5.57,.04-1.6,.19-3.16,.72-4.67,.07-.41,.37-.74,.43-1.15,1.82-2.51,3.15-5.38,5.46-7.53,0-.23-.05-.46,.1-.67Z"/><path class="ef" d="M141.29,247.91c.8,1.98,1.2,4.03,1.18,6.18-.01,1.14-.38,1.86-1.56,2.01-1.34,.17-2.66,.62-4.04,.43-1.98,.26-3.95,.25-5.93,0-1.72,.22-3.38-.28-5.07-.39-1.05-.07-1.67-.58-1.51-1.87,.19-1.5,.29-2.99,1.08-4.33,.35-.1,.5,.11,.62,.38,.17,1.06-.36,2.01-.5,3.02-.14,1.06,.11,1.66,1.24,1.75,1.07,.08,2.35,.79,2.86-.88,.27-.87,.4-1.78,.7-2.65,.21-.59,.35-1.22,.66-1.77,.46-.81,.85-2.14,1.92-1.82,.96,.29,.28,1.51,.26,2.32-.02,.86-.27,1.69-.33,2.55-.2,2.71-.08,2.85,2.57,2.84,.79,.01,1.59,.08,2.36-.16,1.14-.26,2.34-.27,3.4-.85,.66-.97,.37-1.98,.14-2.99-.25-1.11-.79-2.17-.63-3.36,.11-.27,.25-.48,.59-.43Z"/><path class="bi" d="M41.03,50.73c.85,.87,.02,1.17-.55,1.46-2.54,1.3-4.46,3.34-6.4,5.35-.49,.5-.87,1.06-.93,1.78-.92-.08-.35-.79-.5-1.19,.19-.66,.42-1.3,.71-1.92,.13-.51,.6-.79,.83-1.23,.24-.91,1-1.36,1.69-1.87,1.39-1.51,3.27-1.98,5.17-2.39Z"/><path class="fg" d="M62.85,41.01c-3.29,1.24-4.3,4.3-5.57,7.12-.48,1.07-.63,2.3-1.09,3.38-.34,.79-.48,.12-.6-.21,.5-1-.72-2.34,.61-3.19-.67-1.22,.07-2.4,.58-3.21,1.4-2.18,3.14-4.16,6.01-4.5,.17,.19,.17,.39,.05,.6Z"/><path class="hd" d="M125.82,250.33l-.4-.38c1.11-2.63,3-4.58,5.45-5.9,1.07-.58,1.58-1.31,1.79-2.4,.17,.46-.14,1.05,.37,1.43,.41-.04,.73,.19,1.05,.39,.76,.37,1.53,.24,2.3,.05,.37-.11,.75-.16,1.14-.09,.21,0,.42,0,.63,0,1.11,1.45,2.64,2.6,3.13,4.49l-.32,.36c-1.16-.19-1.27-1.35-1.85-2.06-.82-.99-1.59-1.75-3.02-1.16-.74,.3-1.61,.29-2.35-.04-1.16-.52-2.09-.14-3.04,.5-1.44,.98-2.62,2.19-3.6,3.63-.32,.48-.44,1.24-1.28,1.2Z"/><path class="ei" d="M155.07,109.3c-.58,.82,.25,1.62,.04,2.44,.28,.7-.15,1.38-.02,2.08-.46,3.1-2.22,5.35-4.81,6.9-2.21,1.32-4.64,2.14-7.28,2.04l-.65-.95c1.24-.21,2.5-.32,3.71-.63,5.72-1.5,8.46-5.21,8.29-11.13-.14-.49-.21-.98,.05-1.45,.39,.08,.58,.34,.67,.71Z"/><path class="gr" d="M17.61,87.88c3.02-3.89,4.34-8.6,6.26-13.03,.99-2.29,2.23-4.47,4.1-6.21,.16-.15,.3-.13,.43,.04,.14,.7-.3,1.19-.67,1.69-1.96,2.63-3.4,5.52-4.44,8.63-.95,2.82-2.24,5.49-3.91,7.97-.38,.56-.69,1.2-1.42,1.42-.29-.06-.5-.16-.35-.51Z"/><path class="gr" d="M89.65,85.53c-2.48-3.77-3.77-8.13-6.02-12.01-.57-.98-1.27-1.87-1.91-2.81-.08-.32,.02-.46,.35-.35,1.62,1.64,2.68,3.64,3.59,5.72,1.34,3.07,2.71,6.11,4.36,9.03,.13,.37-.05,.46-.37,.42Z"/><path class="ew" d="M41.03,50.73c-1.72,.8-3.44,1.59-5.17,2.39,.43-.85,.59-1.49-.78-1.33-.71,.09-1.45,.02-2.17-.02-.41-.03-.85-.14-.42-.71,.38-.2,.5,.21,.75,.31,2.6-.21,5.2-.43,7.79-.64Z"/><path class="fj" d="M158.85,123.38c.21-.96,1.05-1.72,1.01-2.9-.97,.27-1.63,1.24-2.68,.89,.82-.56,1.64-1.13,2.47-1.67,.27-.18,.58-.46,.92-.17,.22,.19,.28,.49,.17,.79-.43,1.28-.65,2.66-1.82,3.56-.19-.15-.21-.32-.08-.51Z"/><path class="dm" d="M86.52,46.19l.36,.38c-.93,2.08-2.2,3.92-3.75,5.58l-.37-.4c.15-1.9,1.87-2.9,2.55-4.51,.2-.48,.49-1.06,1.21-1.05Z"/><path class="hi" d="M148.86,131.41c2.14,.48,4.28,.98,6.49,.96,.35-.1,.75-.31,.77,.34-2.48,.67-4.83-.16-7.21-.64-.47-.18-.07-.44-.05-.66Z"/><path class="fc" d="M98,95.81c-.03-.87-.73-1.35-1.15-2,.21-1.9-1.26-2.74-2.38-3.81-.04-.32,.04-.5,.41-.36,1.91,1.33,2.94,3.22,3.42,5.45,.08,.32,.33,.71-.31,.72Z"/><path class="gs" d="M98,95.81l.31-.72c.82,2.11,.75,4.21-.1,6.29-.33,.02-.5-.09-.34-.44,.39-1.57,.54-3.15,.07-4.73,.02-.13,.05-.27,.07-.4Z"/><path class="bo" d="M12.48,93.12l2.39-2.08c.31-.13,.43,.06,.52,.3-.75,1.29,.89,.55,.97,1.14,.02,.18-.02,.33-.13,.47-.99,.78-2.2,.63-3.34,.76-.27-.1-.49-.24-.41-.59Z"/><path class="di" d="M61.66,52.24c-.41-2.03-.44-4.07,.02-6.1,.41,.28,.07,.8,.35,1.12v3.81c-.29,.33,.08,.88-.37,1.17Z"/><path class="a`" d="M160.58,127.51c-1.03,.64-2.1,1.15-3.35,1.15-.41,.05-.92,.45-1.08-.32l4.03-1.14c.34-.16,.44-.02,.4,.31Z"/><path class="cr" d="M15.22,91.34l-.36-.3,2.74-3.17,.35,.41c-.4,1.48-1.24,2.56-2.74,3.05Z"/><path class="ea" d="M89.66,103.63c1.73-.19,3.45-.24,5.17,.1-.19,.62-.68,.34-1.07,.36-.91-.2-1.81-.19-2.72,0-.53,.04-1.08,.16-1.37-.49v.04Z"/><path class="hb" d="M158.23,132.03c.63-1.49,2.33-2.02,3.07-3.41,.13-.15,.26-.14,.39,.01-.6,1.7-2.03,2.54-3.46,3.4Z"/><path class="eu" d="M94.88,89.64l-.41,.36c-1.01-.96-2.53-1.35-3.09-2.81,1.34,.56,2.37,1.57,3.5,2.44Z"/><path class="bx" d="M62.85,41.01l-.05-.6,1.34-.19-1.29,2.71c-.23-.07-.25-.31-.37-.47l.38-1.44Z"/><path class="em" d="M89.66,103.63v-.04c-1.25,.6-2.14-.28-3.13-.79-.13-.16-.12-.31,.04-.44,1.02,.44,2.22,.45,3.09,1.27Z"/><path class="he" d="M56.2,48.12c-.53,1,.04,2.21-.61,3.19,.16-1.02-.97-1.88-.37-2.95,.33-.08,.65-.16,.98-.23Z"/><path class="hd" d="M130.94,256.54h5.93c-1.98,.41-3.95,.37-5.93,0Z"/><path class="bq" d="M158.85,123.38l.08,.51c-.43,1.1-.72,2.32-2.11,2.67,.4-1.24,1.36-2.12,2.03-3.18Z"/><path class="el" d="M156.78,116.48c.3-1.23-.68-2.46,.02-3.69,.51,1.45,.55,2.93,.31,4.44-.63-.02-.42-.41-.33-.75Z"/><path class="eh" d="M156.15,128.35c.28,.37,.71,.25,1.08,.32-.66,.52-1.44,.33-2.16,.26-.7-.06-.98-.42-.31-.99,.15-.17,.28-.16,.41,.03,.18,.51,.66,.22,.98,.38Z"/><path class="dy" d="M141.69,121.37l-.39,.39c-1.07-.09-1.65-.67-1.74-1.74l.39-.38c.74,.42,1.3,1.01,1.74,1.73Z"/><path class="hu" d="M77.54,87.27c.2,1.12-.03,2.29,.42,3.37,.12,.34,.31,.71-.31,.74-.32-.85-.54-1.71-.47-2.62,0-.52-.5-1.17,.36-1.49Z"/><path class="hi" d="M156.78,116.48l.33,.75c-.03,.86-.27,1.66-.66,2.42-.31,.03-.52-.01-.34-.4l.68-2.77Z"/><path class="ak" d="M51.77,44.8l-2.46-1.3c.08-.15,.2-.25,.36-.31,.94,.21,1.77,.63,2.46,1.31-.08,.16-.2,.26-.36,.31Z"/><path class="u" d="M78.56,92.79c.67,.69,.92,1.6,1.34,2.42-.05,.17-.06,.36-.29,.39-.67-.84-1.2-1.74-1.31-2.84,.1-.11,.19-.1,.26,.03Z"/><path class="d`" d="M33.24,51.37l-.75-.31c.51-.85,1.11-1.61,2.06-2.02,.18,.13,.18,.26,0,.39-.3,.74-1.34,.97-1.31,1.93Z"/><path class="bs" d="M9.7,95.48c.4-.74,.98-1.29,1.72-1.68q.51,.11,.21,.83c-.67,.51-.88,1.64-2.02,1.55-.12-.25-.08-.48,.08-.7Z"/><path class="y" d="M80.05,68.97l-1.8-1.35c.03-.22,.23-.25,.37-.34,.68,.31,1.32,.69,1.73,1.34,.13,.31,.02,.42-.29,.34Z"/><path class="gd" d="M80.05,68.97l.29-.34c.76,.39,1.28,1.03,1.73,1.73l-.35,.35c-.56-.58-1.11-1.16-1.67-1.74Z"/><path class="eg" d="M161.99,126.22c0-.58,.39-.96,.7-1.38,.69,0,.45,.44,.39,.8-.05,.34,.01,.71-.35,.93-.22,.18-.45,.23-.71,.09-.1-.09-.13-.19-.11-.29,.02-.1,.05-.15,.08-.15Z"/><path class="gp" d="M32.91,57.97c.07,.45-.35,.99,.24,1.36l.36,.08c.17,.08,.38,.1,.45,.32q-1.73,.6-1.45-1.78c.14-.11,.27-.1,.4,.01Z"/><path class="ac" d="M61.66,52.24c.1-.4-.01-.87,.38-1.17l.39,2.75-.34,.34c-.65-.53-.32-1.27-.43-1.92Z"/><path class="j" d="M156.1,119.26l.34,.4c-.09,.8-.62,1.4-.97,2.08-.61-1.03,.38-1.66,.62-2.48Z"/><path class="du" d="M162,126.59l.74-.02c-.03,.85-.6,1.43-1.05,2.06h-.39c.18-.62,.72-1.07,.7-1.75-.09-.06-.12-.13-.09-.19,.03-.06,.06-.1,.09-.1Z"/><path class="fi" d="M156.13,132.72c-.18-.29-.48-.3-.77-.34,.84-.3,1.67-.71,2.59-.24-.55,.37-1.15,.58-1.82,.59Z"/><path class="gu" d="M89.65,85.53l.37-.42c.47,.57,1.06,1.06,1.3,1.8-1.12,.22-1.1-.94-1.67-1.39Z"/><path class="gn" d="M8.74,99.76c-.09-.38,.03-.83-.35-1.12,.06-.65,.16-1.28,.6-1.8,.28,.08,.46,.27,.54,.55-.1,.84,.26,1.84-.79,2.37Z"/><path class="fr" d="M94.97,103.48c.76-.36,1.52-.71,2.28-1.07-.52,.87-1.04,1.74-2.28,1.07Z"/><path class="o" d="M62.04,47.26c-.39-.29-.25-.74-.35-1.12,.18-.58-.42-1.5,.73-1.65-.45,.88-.18,1.86-.38,2.77Z"/><path class="gq" d="M81.31,97.61c.5,.41,1,.83,1.06,1.54-.82,.03-1-.68-1.35-1.19-.21-.37,0-.38,.29-.36Z"/><path class="hq" d="M49.67,43.18l-.36,.31-1.69-.43c-.2-.16-.26-.37-.23-.61,.05-.15,.13-.27,.27-.35l.74,.65,1.26,.43Z"/><path class="cv" d="M162,126.59c0,.1,0,.19,0,.29-.59-.05-.91,.5-1.42,.63-.13-.1-.27-.21-.4-.31,.55-.43,1.05-.94,1.82-.98v.37Z"/><path class="c`" d="M32.91,57.97h-.4c.14-.63,.03-1.37,.78-1.7h-.02c.15,.62-.03,1.17-.36,1.7Z"/><path class="gm" d="M155.17,127.96l-.41-.03c.5-.47,.96-.98,1.71-1.04-.03,.84-.58,1.06-1.3,1.06Z"/><path class="bm" d="M77.54,87.27c-.47,.41-.21,1-.36,1.49-.28-.71-.3-1.45-.21-2.2,.04-.16,.14-.28,.3-.35,.09,0,.17,.02,.26,.03,0,.35,.01,.69,.02,1.04Z"/><path class="bp" d="M86.57,102.36l-.04,.44c-.67-.2-1.3-.48-1.76-1.04,.03-.21,.22-.24,.37-.31l1.43,.91Z"/><path class="ct" d="M78.56,92.79h-.13l-.13-.03c-.57-.3-.46-.91-.65-1.39l.31-.74c.34,.68,.62,1.37,.6,2.15Z"/><path class="bb" d="M11.45,94.45c.04-.22,.38-.44-.02-.65l1.05-.68,.35,.36c.13,.5-.27,.7-.53,.98-.29,.19-.57,.31-.85-.01Z"/><path class="g`" d="M28.31,68.64h-.33c.28-.62,.75-1.06,1.34-1.39,.42,.21,.08,.47,.04,.71-.31,.28-.36,.97-1.05,.68Z"/><path class="de" d="M91.04,104.08c.91-.39,1.82-.4,2.72,0h-2.72Z"/><path class="dj" d="M54.48,47.26c-.79-.19-1.07-.84-1.35-1.49,.95,.04,1.29,.64,1.35,1.49Z"/><path class="ad" d="M79.61,95.61l.29-.39,.73,1.36c-.05,.16-.15,.28-.3,.35-.49-.3-.55-.85-.73-1.32Z"/><path class="de" d="M9.31,97.24l-.32-.39c.09-.54,.11-1.1,.72-1.37l.03,.76c.31,.53,.1,.82-.42,.99Z"/><path class="ey" d="M156.79,112.4c-1.03-.19-.79-1.1-1-1.76,.74,.35,.77,1.11,1,1.76Z"/><path class="hq" d="M36.58,47.58l.04,.46c-.27,.34-.63,.54-1.05,.64-.09-.09-.13-.17-.1-.27,.03-.09,.05-.14,.08-.14,.21-.43,.52-.72,1.03-.7Z"/><path class="i`" d="M33.96,59.74l-.45-.32,1.38-.37c.08,.24,.4,.52-.1,.67l-.82,.02Z"/><path class="hq" d="M35.55,48.28l.02,.41c-.34,.25-.68,.5-1.02,.75v-.39c.17-.46,.42-.84,1-.77Z"/><path class="bx" d="M62.47,42.45l.37,.47c0,.5-.15,.97-.42,1.39-.27-.63-.33-1.25,.05-1.87Z"/><path class="de" d="M80.34,96.92l.3-.35,.68,1.04-.29,.36c-.48-.18-.4-.73-.69-1.04Z"/><path class="cr" d="M78.62,67.28l-.37,.34c-.35-.23-.7-.45-1.05-.68l.37-.29,1.05,.63Z"/><path class="gm" d="M157.17,121.69c-.57,.55-1.15,.66-1.73,.02,.58,.13,1.15-.37,1.73-.02Z"/><path class="cj" d="M163.09,125.64c-.07-.29-.05-.64-.39-.8,.13-.3,.19-.64,.58-.79,.22,.58,.11,1.1-.19,1.59Z"/><path class="gw" d="M33.27,56.26h.02c-.15-.73,.17-1.14,.9-1.26-.13,.54-.32,1.05-.91,1.26Z"/><path class="gj" d="M85.15,101.45l-.37,.31c-.44-.23-.9-.44-.96-1.03,.62-.09,.92,.41,1.33,.72Z"/><path class="cw" d="M97.86,100.94l.34,.44c-.2,.48-.35,.99-.99,1.06-.05-.61,.31-1.05,.65-1.5Z"/><path class="dg" d="M77.27,86.21c-.1,.12-.2,.23-.3,.35-.12-.57-.24-1.14-.36-1.71,.95,.1,.54,.86,.66,1.37Z"/><path class="eb" d="M51.77,44.8l.36-.31c.44,.21,.86,.44,.74,1.05-.37-.25-.73-.5-1.1-.74Z"/><path class="c" d="M154.41,108.59l-.05,1.45c-.24-.49-.33-.99-.17-1.52,0-.03,.09-.05,.12-.04,.05,.02,.08,.07,.11,.11Z"/><path class="by" d="M9.31,97.24l.42-.99c.57-.6,1.15-1.2,1.72-1.8,.23-.08,.46-.16,.68-.25,1.77-.94,3.8-.69,5.66-1.21,.99-.28,2.01-.47,2.99-.82,1.61-.57,2.76-1.54,3.34-3.21,.55-1.58,1.39-3.03,2.31-4.42,.36-.54,.78-1.05,1.51-.96,.82,.11,1.05,.78,1.25,1.46,.61,2.04,.07,4.11,.17,6.17,0,.28,0,.55,0,.83-.01,.45-.21,.87-.19,1.32-.13,.85-.37,1.68-.5,2.53-.1,.59-.43,1.11-.55,1.69-.31,.6-.43,1.28-.82,1.84-.14,.54-.37,1.03-.92,1.28-.76,.62-1.75,.82-2.53,1.4l.02-.02c-.93,.04-1.74,.36-2.41,1l-.37,.05c-.55,.23-1.15,.36-1.63,.74-.39,.37-.9,.54-1.33,.85-.62,.43-1.26,.83-1.94,1.17l-.11,.07-.11-.08c-.89,.15-1.79,.24-2.7,.13-.63-.18-1.3-.26-1.89-.57-.85-.54-1.48-1.3-2.13-2.04-.09-.55-.55-1.05-.25-1.66-.08-.66-.17-1.32-.25-1.99,.19-.84,.38-1.68,.57-2.53Z"/><path class="cd" d="M93.48,245.5l-.72-.29c3.23-3.76,4.25-8.42,5.1-13.08,1.75-9.57,1.88-19.26,1.76-28.96-.04-2.97-1.69-5.13-3.32-7.35-1.12-1.52-2.37-2.4-4.44-2.59-3.75-.35-7.15-1.98-10.25-4.1-.93-.64-.94-.12-1.02,.54-.26,.93,.11,1.91-.23,2.83l-.1,5.1c-.18,1.03-.16,2.05,0,3.08l.11,4.41c.33,.69-.04,1.46,.26,2.15,.05,2.34,.9,4.55,1.11,6.87,.35,.54-.02,1.2,.27,1.75l.09,1.99c.23,2.93,.23,5.86,0,8.79l-.11,3.03c-.25,.71,.06,1.48-.23,2.19l-.11,1.94c-.25,.56,.08,1.21-.25,1.76l-.08,1.34c-.29,.55,.08,1.2-.27,1.74l-.7,5.49c-.5,.11-.76-.14-.88-.6,.22-3.81,.92-7.57,1.25-11.38,.11-1.25,.06-2.51,.3-3.74,.22-.67,.27-1.36,.19-2.06,.15-5.57-.17-11.09-1.37-16.55-.32-1.46-.42-2.94-.36-4.44,.09-.71,0-1.41-.2-2.1-.26-1.85-.1-3.71-.14-5.57,.1-.99-.03-2,.14-2.98,.24-.71,.28-1.44,.26-2.18,.37-2.74-.46-4.73-2.65-6.71-5.72-5.17-9.25-11.92-12.4-18.85-1.58-3.47-3.1-6.99-3.3-11.15-.27,.99,.92,2.01-.58,2.42-.12-.53-.04-1.07-.06-1.61-.28-1.08,.61-2.09,.21-3.18-.14-5.3-1.33-10.48-1.82-15.75-.29-.23-.52-.5-.54-.9,.03-.41,.2-.7,.64-.76,.19,0,.36,.08,.5,.21,1.11,2.16,.81,4.59,1.27,6.87,.87,4.27,.8,8.68,1.74,12.94,1.88,8.54,5.97,16.08,10.78,23.26,4.82,6.71,10.94,11.47,19.45,12.79-4.5-7.9-7.77-16.23-9.84-25.02-1.14-4.23-1.8-8.53-2.2-12.89-.06-.61-.23-1.44,.62-1.54,.89-.1,1.08,.72,1.13,1.43,.55,6.97,2.14,13.72,4.21,20.36,2.19,7.01,5.13,13.73,9.69,19.48,3.23,4.08,5.26,8.46,5.98,13.49,.52,3.63,.5,7.28,.25,10.98-.57,8.72-1.77,17.35-3.24,25.95-.13,.77-.14,1.62-.88,2.16-.35,0-.71,.06-.95-.29-.19-.69-.02-1.37,.1-2.04,1.39-7.86,2.5-15.77,3.08-23.72,.36-4.91,.33-9.84-.04-13.45,.41,9.09-.12,19.42-2.56,29.58-.58,2.41-1.44,4.72-2.66,6.89-.48,.86-1.01,1.68-2.02,2.01Z"/><path class="id" d="M58.9,136.16l-.31,.68c-.06,.25-.15,.48-.47,.49-.69-.3-.4-1.02-.66-1.51-.05-.22-.12-.44-.18-.66-.24-.81-.43-1.96-1.3-1.98-.71-.01-.58,1.18-.8,1.84-.87,2.55-1.95,4.96-3.95,6.86-.86,.96-1.93,1.62-3.08,2.16-1.33,.35-2.6,1.41-4.04,.31,.09-.62,.56-.88,1.05-1.13,2.05-.47,3.65-1.66,4.91-3.27,2.47-3.13,3.59-6.74,3.65-10.72,.01-.81-.36-1.99,.63-2.27,.85-.24,1.15,.93,1.66,1.51,.23,.26,.42,.54,.67,.78,.61,.58,1.09,.48,1.1-.38,.03-3.32,.39-6.66-.7-9.91-.35-1.04-.78-1.37-1.88-.84-1.45,.71-3.03,1.13-4.67,.84-1.09-.19-1.8-.08-1.87,1.23-.02,.39-.08,.98-.8,.8-.25-.82-.06-1.65-.01-2.47-.36,.56,.37,1.43-.52,1.84-.43-1.11,.64-2.56-.78-3.44,1.49-.47,3.05-.27,4.56-.52,.77-.03,1.5-.28,2.24-.47,1.11-.26,2.08-.84,3.09-1.36,.51-.2,.93-.69,1.57-.49,.43,.56,.65,1.27,1.2,1.76,.45,.71,.69,1.5,.85,2.31,.06,.48,.07,.96,.22,1.42,.14,.54,.21,1.09,.43,1.6,.11,.31,.2,.63,.18,.97-.14,.7,.01,1.36,.2,2.03,.32,3.38-.13,6.68-1.02,9.94-.21,.77-.49,1.52-1.17,2.03Z"/><path class="cg" d="M79.68,243.76l.66,.36c3.69,4.12,4.3,9.05,3.77,14.28-.12,1.2-1.09,1.08-1.8,1.14-4.44,.41-8.89,.67-13.37,.49-1.78-.07-3.53-.26-5.29-.46-.94-.11-1.34-.46-.89-1.54,1.02-2.48,2.01-4.96,3.49-7.23,1.7-2.6,3.76-4.75,6.84-5.67,.32-.04,.64-.02,.95,.06,1.7,.51,3.22,.06,4.64-.89,.33-.18,.62-.44,1-.54Z"/><path class="dd" d="M73.76,245.49c-.28,0-.52-.1-.67-.36,2.38-11.49,1.06-22.81-1.55-34.09-1.7-7.33-4.69-14.24-6.82-21.42-1.73-5.83-3.19-11.72-3.7-17.8-.09-.55-.45-1.15,.29-1.54,.64,.45,.65,1.19,.84,1.85,1.19,8.8,3.54,17.29,6.58,25.63,3.56,9.75,5.97,19.74,6.69,30.16,.33,4.74,.07,9.39-.5,14.06-.15,1.22-.14,2.56-1.15,3.52Z"/><path class="ee" d="M45.35,116.21h.05c-1.26,.2-2.02-.65-2.85-1.35l-.45-.41c-.4-.42-.76-.87-.91-1.44-.14-.33-.29-.65-.64-.82-.58-.15-1.12-.4-1.62-.74-.08-.14-.12-.29-.12-.45,.03-.16,.11-.3,.23-.41,.51-.23,.96,.02,1.42,.19,.38,.16,.79,.28,1.14,.52,2.42,3.19,5.75,3.57,9.3,2.84,5.61-1.15,9.4-4.77,12.35-9.47,.55-.88,.78-2.09,2.04-2.38,.75,.35,.64,.99,.55,1.62-.23,.66-.69,1.17-1.05,1.75-1.41,2.32-3.36,4.25-4.8,6.55-.19,.37-.48,.66-.85,.85-.94,.44-1.75,1.11-2.65,1.61-1.1,.62-2.25,1.15-3.47,1.51-.96,.34-1.98,.36-2.98,.55-1.61,.25-3.19,.2-4.69-.52Z"/><path class="ai" d="M45.21,143.46l-1,.7c-.29,.12-.38-.02-.37-.29,4.21-4.47,5.06-9.89,4.67-16.06-2.2,1.94-4.46,2.02-7.21,1.83,3.75-2.21,5.75-5.2,6.04-9.25,.31-.31,.26-.72,.27-1.1,0-.32,0-.64,0-1.46,.63,1.37,.2,2.33,.4,3.23,.67,2.26-.78,3.9-1.67,5.71-.23,.46-.71,.74-1.01,1.37,.73-.05,1.18-.43,1.67-.76,1.47-1,2.25-.71,2.62,1.04,.31,1.47,.28,2.99,.1,4.46-.35,2.92-1.01,5.78-2.46,8.37-.49,.89-.96,1.86-2.06,2.21Z"/><path class="hb" d="M58.26,137.2c.11-.12,.22-.24,.33-.36l.34,.86c-.44,.6-.86,1.21-1.32,1.78-.24,.31-.55,.73-.98,.47-.49-.29-.13-.72,.05-1.04,1.06-1.97,.51-3.73-.63-5.65-1.03,3.37-1.96,6.56-4.64,8.82-.14-.07-.23-.18-.27-.33,2.37-2.77,3.71-6.04,4.46-9.77,1.39,1.14,1.96,2.38,2.07,3.86,.38,.37-.42,1.25,.59,1.35Z"/><path class="en" d="M39.02,110.66l-.03,.41c-.79,.22-1.24-.44-1.83-.72-.43-.19-.75-.49-.91-.94-.19-.51-.63-.85-.9-1.31-.23-.39-.45-.79-.63-1.21-.24-.49-.52-.95-.72-1.46-.25-.51-.59-.99-.45-1.6,.05-.16,.13-.3,.24-.42,.72-.07,.79,.56,.98,.99,.77,1.75,1.84,3.28,3.26,4.57,.36,.41,.78,.77,1.05,1.25,.06,.15,.04,.3-.06,.44Z"/><path class="ei" d="M43.84,143.86l.37,.29c1.45,.92,2.71-.17,4.05-.39,.37-.18,.42,.03,.38,.33-1.9,1.15-3.95,1.29-6.47,1.02l1.67-1.25Z"/><path class="an" d="M33.84,103.46l-.09,.38c-.15,.23-.02,.68-.51,.65-.39-2.39-.31-4.78-.08-7.18,.05-.12,.13-.18,.26-.18l.35,.45c.52,1.95,.27,3.91,.06,5.87Z"/><path class="ba" d="M60.72,156.6v1.69c.99,1.79,.32,3.73,.51,5.59-.09,.71,.03,1.45-.29,2.12-.11,.21-.28,.27-.5,.18-.2-3.21-.18-6.42-.02-9.63,.12-.15,.23-.14,.3,.04Z"/><path class="gf" d="M45.35,116.21c1.63,.31,3.28,.38,4.94,.32,.41-.05,.93-.47,1.09,.32-1.6,.22-3.21,.41-4.83,.09-.49-.1-1.16,.09-1.21-.74Z"/><path class="fy" d="M82.09,226.61c0-2.93,0-5.86,0-8.79,.42,2.93,.34,5.86,0,8.79Z"/><path class="da" d="M60.7,166.17l.02-2.07c.61,.05,.73,.54,.75,.98,.07,1.75,.33,3.52-.11,5.26-.48,.4-.21,.98-.35,1.46-.4-1.01-.34-2.08-.33-3.13-.2-.84-.25-1.67,.02-2.5Z"/><path class="er" d="M29.7,83.45c.41,.41,.72,.86,.63,1.49-.7,1.42,.02,3.03-.59,4.47-.63-.52-.26-1.3-.51-1.92,.49-1.3-.56-2.79,.46-4.03Z"/><path class="hi" d="M48.64,144.09l-.38-.33c.96-.67,1.92-1.34,2.88-2.02,.09,.11,.18,.22,.27,.33-.7,.98-1.67,1.58-2.77,2.01Z"/><path class="dw" d="M29.42,87.64c.43,.53,.12,1.19,.33,1.76-.04,1.15,.11,2.33-.35,3.44-.31-.16-.14-.52-.32-.74l.02-.72c.31-1.23-.22-2.53,.32-3.74Z"/><path class="ck" d="M42.55,114.85c.95,.45,1.9,.91,2.85,1.36-1.52,.75-2.26-.16-2.85-1.36Z"/><path class="gx" d="M23.84,102.1c.44-1.2,1.62-1.05,2.53-1.4-.48,1.12-1.52,1.24-2.53,1.4Z"/><path class="hv" d="M21.45,103.08c.47-1.15,1.34-1.32,2.41-1-.71,.55-1.53,.85-2.41,1Z"/><path class="cb" d="M28.39,95.9c.18-.84,.12-1.73,.57-2.51,.34,.14,.16,.52,.34,.74-.09,.85-.15,1.7-.61,2.46-.28-.15-.11-.49-.3-.68Z"/><path class="de" d="M13.2,105.84c.92,.02,1.84,.03,2.77,.05-1.11,.72-2.29,.43-3.47,.26,0-.63,.37-.43,.7-.31Z"/><path class="hs" d="M37.16,110.35c.77-.17,1.21,.51,1.83,.72,.02,.1,.02,.2,.02,.29,.09,.09,.11,.18,.08,.26-.03,.08-.06,.13-.09,.13-.82-.19-1.46-.62-1.83-1.4Z"/><path class="bv" d="M60.72,156.6c-.1-.04-.2-.05-.3-.04-.15-1.07,.07-2.1,.33-3.12,.75,1.06-.22,2.11-.03,3.17Z"/><path class="fk" d="M9.41,103.39l2.02,1.83c.08,.28,.02,.43-.3,.3-.84-.3-1.36-.94-1.75-1.7-.16-.16-.15-.3,.04-.42Z"/><path class="al" d="M16.19,105.89c.32-.84,1.17-.95,1.83-1.33,.17,.04,.29,.14,.36,.29-.64,.53-1.26,1.11-2.19,1.04Z"/><path class="bl" d="M27.29,99.42c.03-.68,.13-1.34,.7-1.82,.09-.17,.19-.17,.29-.01,.07,.82-.2,1.47-.99,1.83Z"/><path class="fy" d="M80.26,200.67c-.42-1.03-.43-2.06,0-3.08v3.08Z"/><path class="r" d="M39,111.75l.02-.39c.6,.18,1.25,.23,1.74,.69-.02,.22-.22,.24-.36,.32-.53-.06-1.04-.17-1.4-.62Z"/><path class="fq" d="M34.11,105.53c.56,.29,.63,.85,.76,1.38-.15,.19-.32,.21-.51,.06-.29-.44-.5-.91-.51-1.44,.09-.11,.18-.1,.27,0Z"/><path class="gg" d="M34.11,105.53l-.13-.04-.14,.03-.59-1.03,.51-.65,.35,1.69Z"/><path class="bf" d="M11.12,105.51l.3-.3c.59,.21,1.19,.41,1.78,.62-.23,.1-.47,.21-.7,.31-.52-.08-1.04-.16-1.38-.64Z"/><path class="fy" d="M80.37,192.48c.06-.94-.29-1.92,.23-2.83,.1,.96-.01,1.89-.23,2.83Z"/><path class="gg" d="M41.33,112.78c.18,.59,.76,1,.76,1.66-1.06,.11-.74-.85-1.03-1.33-.19-.33,0-.36,.26-.34Z"/><path class="ed" d="M9.41,103.39l-.04,.42c-.55-.44-.71-1.04-.71-1.7l.33-.37c.16,.54,.53,1.03,.41,1.64Z"/><path class="de" d="M19.37,103.81c.48-.46,1-.83,1.72-.67-.43,.57-1.17,.64-1.72,1.03-.11-.08-.15-.16-.11-.24,.04-.08,.07-.12,.11-.12Z"/><path class="ej" d="M28.28,97.59h-.29l.4-1.68,.3,.68c.09,.42-.22,.68-.4,1Z"/><path class="cf" d="M60.7,166.17l-.02,2.5c-.32-.81-.32-1.64-.25-2.49,.09,0,.18-.01,.27-.02Z"/><path class="hh" d="M34.35,106.97l.51-.06,.65,1.05c-.06,.16-.16,.28-.32,.35-.45-.34-.62-.86-.85-1.34Z"/><path class="de" d="M19.37,103.81v.35l-.99,.7-.36-.29,1.35-.76Z"/><path class="v" d="M33.43,97.14c-.09,.06-.17,.12-.26,.18v-2.2c.46,.63,.24,1.34,.26,2.02Z"/><path class="ic" d="M29.29,94.13c-.11-.25-.22-.49-.34-.74,.04-.43,.08-.86,.13-1.29,.11,.25,.21,.49,.32,.74l-.11,1.29Z"/><path class="fy" d="M80.63,207.22c-.52-.66-.21-1.43-.26-2.15,.25,.7,.29,1.42,.26,2.15Z"/><path class="fy" d="M81.76,231.84c.04-.73-.27-1.51,.23-2.19,.06,.75,.02,1.48-.23,2.19Z"/><path class="fp" d="M35.2,108.31l.32-.35c.26,.48,.91,.76,.73,1.46-.5-.22-.85-.59-1.05-1.1Z"/><path class="fy" d="M82,215.84c-.48-.52-.22-1.16-.27-1.75,.3,.55,.31,1.15,.27,1.75Z"/><path class="fy" d="M81.39,235.54c.04-.59-.21-1.23,.25-1.76,.05,.61,.03,1.2-.25,1.76Z"/><path class="fy" d="M81.04,238.63c.05-.59-.21-1.22,.27-1.74,.04,.6,.03,1.2-.27,1.74Z"/><path class="gg" d="M41.33,112.78l-.26,.34-.67-.74,.36-.32c.41,.07,.6,.31,.58,.72Z"/><path class="gv" d="M29.75,78.29c-.82-4.74-.51-9.31,2.05-13.53,1.49-2.46,3.31-4.63,5.81-6.14,1.37-.82,2.79-1.51,4.36-1.86,.58,.83-.56,1-.61,1.59-.3,.45-.54,.93-.8,1.41-.05,.49-.69,.8-.42,1.39l-.48,1.31c-.27,.87-.15,1.88-.88,2.59-.28,.1-.56,.07-.84,.03-3.69-.42-4.83,.17-6.65,3.46-.14,.19,.26,.18,.05,.1-1.17-.41,4.3-3.33,6.58-3.5,.7,.1,1.22,0,1.35-.86,.09-.55,.3-1.11,.78-1.48,.08-.06,.17-.07,.27-.03,.88-.72,1.78-1.42,2.83-1.88,.87-.45,1.78-.81,2.76-.97,.17-.04,.31,0,.44,.11,.05,1.39-1.25,2.41-1.08,3.83,.03,.11,0,.22-.07,.31-.57,1.36-.42,2.72-.05,4.21,.76-.32,.78-1.06,1.23-1.44,.33-.54,.6-1.11,1.03-1.57,.86-1.05,1.81-2.01,2.87-2.86,1.09-.87,2.26-1.57,3.61-1.94,.39-.12,.78-.21,1.19-.21,.64-.1,1.24-.39,1.9-.39l.59-.34c1.09-.05,2.15-.24,3.11-.81,1.38-.4,2.55-1.15,3.47-2.26,.47-1.31,1.15-.23,1.55-.03,4.5,2.22,7.27,5.87,8.83,10.6,1.43,4.32,1.51,8.74,1.3,13.2-.96-.19-.68-.99-.6-1.51,.23-1.52,.03-3.03,.11-4.03,.07,5.12-.43,10.74-.39,16.37,0,.76-.24,1.46-.54,2.15-1.56,3.51-3.91,6.46-6.49,9.24-.49,.53-1.19,1.74-2.06,.26-.21-.57-.64-1.02-.85-1.58-.07-.14-.13-.29-.18-.44-.21-.67-.57-1.23-1.23-1.54-.5-.27-.88-.68-1.16-1.17-1.15-1.64-3.17-2.02-4.63-3.22-.64-1.84-2.42-1.75-3.84-2.28-.49-.05-.98-.08-1.45-.24-.58-.31-1.18-.55-1.84-.61-.64-.19-1.3-.25-1.95-.39-.33-.08-.66-.14-1-.17-.52-.03-1.05,0-1.57,0-.79,0-1.58,0-2.37,0-.62,0-1.27-.1-1.84,.27-.32,.14-.71-.09-1.01,.18-.61,.15-1.23,.03-1.84,.16-.91-.02-1.78,.33-2.68,.27-1.18-.45-.62-1.12-.2-1.74,1.27-1.9,2.65-3.72,4.05-5.52,.14-.18,.02,.07,.1-.14,.12-.32-.16-.09-.25-.14-.5,.02-.96-.02-1.27-.49-.06-.16-.09-.32-.09-.49,.27-.83,.92-1.31,1.6-1.77,.63-.28,1.11-.72,1.42-1.33,.21-.41,.31-.85,.43-1.29,.43-1.22,.58-2.45,.16-3.7-.06-.78-.41-1.45-.85-2.08-.69-.8-1.35-1.63-2.36-2.07-.63-.12-1.02-.78-1.71-.75-.5,0-1.01-.01-1.71,0,.79,.02,1.38-.02,1.98,.03,.29,.12,.42,.29,.23,.59-.83,.52-1.74,.34-2.63,.32-.88-.18-1.69-.14-2.2,.75-.46,.6-.94,1.17-1.43,1.74-.49,.48-.68,1.11-.86,1.75-.06,.22-.12,.44-.19,.66-.23,.6-.08,1.28-.44,1.85-.13,.13-.27,.14-.43,.06Z"/><path class="cl" d="M47.93,38.63c.11,.95-.05,1.87-.31,2.77-.69,.51-1.43,.08-2.14,.11-1.32,.06-2.59,.25-3.72,1.01-.2,.44-1.28-.09-.99,.9,.09,.04,.18,.06,.27,.08,.29,.23,.89,.1,.84,.73-.28,.68-.3,1.45-.73,2.08-.28,.17-.58,.27-.92,.26-.71,.04-1.36,.24-1.9,.72h.01c-.75,0-.99-.36-.72-1.06,1.9-8.33,5.59-15.84,10.54-22.76,2.42-3.38,5.34-6.28,8.56-8.88,.42-.34,.9-.61,1.79-1.2-.61,1.07-.88,1.73-1.49,2.18-.48,.5-.94,1.02-1.33,1.6-1.59,2.23-3.49,4.21-5.06,6.46-.85,1.22-1.74,2.4-2.49,3.9,.91,.15,1.92-.1,2.52,.74l-.95,2.47c-3.18-.54-4.53,1.29-5.29,4-.34,1.2-1.02,2.3-1.22,3.68,1.64,.06,3.25-.7,4.74,.22Z"/><path class="ia" d="M41.73,44.17c-.23-.22-.47-.45-.7-.67,2.93-.02,6.18,1.42,8.32,3.7-1.1,.21-2.14,.05-3.17-.31-.57-.49-1.27-.72-1.97-.97-.94-.42-1.94-.76-2.48-1.75Z"/><path class="ek" d="M42.04,56.95c-1.48,.56-2.96,1.12-4.43,1.68l-.73-.35c2.69-.87,5.21-2.16,7.93-3.17l-2.01,1.82c-.25,.19-.5,.21-.76,.03Z"/><path class="bd" d="M40.77,43.42c-.22,.36-.49,.44-.79,.1-.18-.2-.12-.45,.11-.55,.44-.22,.91-.38,1.37-.57,2.06-.85,4.11-1.22,6.16,.03v.63c-2.29-.22-4.61-.67-6.85,.36Z"/><path class="bd" d="M44.52,45.59c.57,.4,1.57,.27,1.66,1.29-1.66-.36-3.35-.3-5.04-.28-.43,.06-.98,.49-1.1-.37l1.05-.05c.97-1.22,2.29-.39,3.43-.6Z"/><path class="bd" d="M46.61,66.94l-1.22,2.28c-1.17-1.87-1.22-3.78-.2-5.05v.67c-.26,.92-.25,1.84,0,2.77,.77,.09,.62-.79,1.08-1.03,.31-.07,.48,0,.35,.36Z"/><path class="ge" d="M64.14,56.57c-.48,1.7-1.99,1.98-3.37,2.44-.39,.21-.42-.02-.41-.32,1.18-.6,2.5-.98,3.33-2.13h.45Z"/><path class="m" d="M53.86,60.75l-3.51,1.99c-.15-.09-.35-.12-.39-.34,.99-.99,2.19-1.62,3.53-1.98,.13,.1,.34,.12,.37,.33Z"/><path class="p" d="M40.03,62.8c-.38,1.12-.23,2.66-2.06,2.65-.08-.55,.52-.32,.69-.59,.73-.63-.13-1.92,.99-2.39l.38,.33Z"/><path class="hx" d="M45.25,63.86c-.66-.8,.11-1.42,.3-2.11,.16-.58,.64-1.05,.65-1.7,.23-.23,.47-.24,.71-.03l-1.66,3.84Z"/><path class="fe" d="M49.96,62.4c.13,.11,.26,.23,.39,.34-1,.85-1.96,1.73-2.73,2.8-.32,.07-.48-.02-.36-.37,.72-1.1,1.63-2.01,2.71-2.76Z"/><path class="gh" d="M43.17,61.08c-.99,.52-1.72,1.45-2.87,1.69,.41-1.21,1.51-1.54,2.5-2.01,.15,.08,.34,.11,.37,.32Z"/><path class="ch" d="M60.36,58.68c.14,.11,.27,.21,.41,.32-.98,.66-2.02,1.03-3.21,.63l2.8-.95Z"/><path class="aa" d="M43.17,61.08l-.37-.32c.85-.52,1.76-.9,2.76-1.03,.15,.06,.27,.16,.35,.31l-2.74,1.04Z"/><path class="dk" d="M40.04,46.24c.27,.42,.71,.31,1.1,.37-.94,.23-1.88,.45-2.82,.68,.18-1,1.08-.81,1.72-1.05Z"/><path class="dt" d="M56.97,59.97c-.47,.59-1.23,.35-1.81,.63-.24-.07-.38-.2-.3-.47,.7,0,1.36-.71,2.1-.16Z"/><path class="l" d="M47.25,65.16l.36,.37c-.34,.47-.67,.93-1.01,1.4-.12-.12-.23-.24-.35-.36,.22-.55,.5-1.06,.99-1.42Z"/><path class="dx" d="M42.04,56.95l.76-.03-1.36,1.77c-.22-.04-.25-.24-.34-.38l.95-1.36Z"/><path class="gv" d="M45.18,67.61c-.53-.92-.54-1.85,0-2.77,0,.92,0,1.84,0,2.77Z"/><path class="hq" d="M45.91,60.04l-.35-.31c.43-.12,.86-.35,1.28-.33,.74,.04,.14,.39,.08,.62-.24,.01-.47,.02-.71,.03-.1,0-.19-.01-.29-.01Z"/><path class="dt" d="M54.87,60.13c.1,.16,.2,.31,.3,.47-.44,.05-.87,.1-1.31,.15-.12-.11-.25-.22-.37-.33l1.38-.29Z"/><path class="ho" d="M40.13,61.15c-.64-.64,.16-1,.3-1.49,.12-.13,.24-.12,.34,.02-.1,.54-.25,1.05-.63,1.46Z"/><path class="hr" d="M40.77,59.69c-.11-.01-.23-.02-.34-.02,.22-.45,.44-.91,.67-1.36,.12,.13,.23,.26,.34,.38-.18,.36-.26,.79-.67,1Z"/><path class="dk" d="M37.61,46.23c.02,.5,.25,.86,.72,1.06-.18,.25-.42,.34-.72,.31-.18-.45-.6-.91,0-1.37Z"/><path class="gv" d="M98.52,246.52c1.3-6.97,2.39-13.98,3.06-21.03,.77-8.03,1.68-16.09-1.16-23.97-.73-2.02-1.69-3.92-3.04-5.55-6.67-8.11-10.33-17.62-12.91-27.63-1.21-4.72-2.15-9.48-2.45-14.35-.03-.43,.02-1.12-.57-1.04-.63,.08-.29,.72-.25,1.13,.4,4.45,1.24,8.82,2.17,13.18-.9,.06-1.3-.63-1.75-1.21-4.62-6.02-7.34-12.81-8.3-20.33-.91-7.17-1.01-14.42-1.97-21.59-.74-5.52-2.21-10.79-5.05-15.63-.32-.54-.69-1.07-.72-1.73,.41-1.58,1.69-2.55,2.68-3.7,1.94-2.27,3.71-4.65,5.06-7.33,.25-.49,.39-1.31,1.05-1.16,.61,.14,.52,.94,.54,1.5,.21,4.96,1.28,9.75,2.86,14.44,2.23,6.61,6.17,11.82,12.24,15.36l1.34,.03c1.4,.2,2.69,.7,3.89,1.31-.5-.58-1.86-.33-1.79-1.63,8.65-1.16,16.59-4.28,24.08-8.65,1.27-.64,2.58-.3,3.88-.12,7.48,1.03,14.16,3.8,19.55,9.25,3.37,3.41,5.22,7.66,6.49,12.19,2.12,7.61,3.43,15.35,3.31,23.28-.07,4.7,.16,9.4-.48,14.1-.8,5.83-2.9,11.17-5.31,16.48-3.94,8.66-5.8,17.89-6.61,27.33-.51,5.94-.93,11.89-.53,17.87,.11,1.57-.04,3.19-.29,4.77l-.02,1c-.33,.67-1.11,.5-1.61,.86-.72-.07-1.47,.2-2.17-.17-.23-.22-.47-.45-.7-.67,1.23-8.2,2.58-16.39,2.04-24.74-.44-6.78-2.05-13.31-4.14-19.75-.26-.81-.46-1.66-.58-2.5-.4-2.84,.06-5.13,2.86-6.88,4.67-2.91,6.81-7.62,7.69-12.88,.78-4.66,.68-9.35-.27-14-.09-.42,.05-1.02-.7-.83-.07,.02-.04,.41-.05,.62-1.24,4.08-3.96,7.03-7.36,9.37-4.21,2.89-8.92,4.58-14,5.17-.68-.12-1.41,.42-2.06-.16,.65-2.52,1.4-5.03,1.91-7.58,.39-1.99,.59-4.04,.54-6.09-.01-.58,.02-1.16-.64-1.45-.56,2.09-1.3,4.14-1.7,6.27-1.49,7.97-5,15.01-10.01,21.29-2.5,3.14-1.76,5.31,.09,7.75,.8,1.06,1.69,2.08,2.76,2.82,2.02,1.39,2.3,3.28,1.94,5.47-.5,3.04-1.52,5.96-3.19,8.5-5.45,8.29-5.57,17.38-4.46,26.72,.3,2.54,.89,5.07,.4,7.66-.69,.25-1.38,.5-2.07,.75-1.29,.23-2.58,.36-3.77-.38l.26-1.71Z"/><path class="bv" d="M137.54,242.06c.16-4.24-.54-8.46-.36-12.7,.52-12.26,1.96-24.34,6.57-35.86,1.34-3.35,3.23-6.45,4.26-9.94,1.35-4.57,2.17-9.22,2.26-13.97,.07-3.96,.23-7.94-.03-11.88-.57-8.63-1.84-17.14-5.4-25.13-2.83-6.34-7.98-10.19-14.14-12.84-4.18-1.8-8.61-2.61-13.14-2.83,4.73-3.2,9.78-3.12,14.92-1.31,2.68,.94,4.92,2.65,7.1,4.43,.48,.68,1.06,1.26,1.74,1.74,7.16,8.44,10.86,18.36,12.42,29.16,2.22,15.41-.4,30.08-6.98,44.14-3.44,7.36-5.42,15.19-6.78,23.17-.92,5.42-1.41,10.88-1.47,16.39-.03,2.47-.27,5-.95,7.43Z"/><path class="cl" d="M89.23,39.64l-1.31,3.15c-2.26-1.11-2.23-1.09-3.91,1.26-1.26,1.77-2.56,3.53-4.38,4.79-.91,.63-1.12,1.25-.36,2.26,.64,.85,1.55,1.75,1.07,3.05-.55,.83-1.23,1.54-2.08,2.06-.87-.6-.65-1.65-1-2.46-.69-1.6-1.07-1.66-2.39-.63-2.04,1.59-3.83,3.61-6.55,4.12l-3.99-2.45c8.49-3.86,15.24-9.4,19.52-17.63,4.2-8.07,5.82-16.68,5.43-25.8,.6,.24,.67,.66,.69,1.11-.25,1.14,.06,2.26,.22,3.35,.4,2.79,.02,5.56-.03,8.34-.01,.58-.21,1.24,.4,1.8,.8-1.6-.33-3.48,.85-4.93,.6,1.19,.27,2.46,.29,3.69,.03,2.14-.22,4.27-.65,6.38-.5-.25-.37-1.25-1.12-1.11-.79,.15-.65,.98-.78,1.55-.26,1.11-.36,2.28-.85,3.3-.91,1.89-.74,3.47,.93,4.81Z"/><path class="bv" d="M90.02,125.85c-3.79-1.24-6.36-4-8.55-7.11-4.01-5.7-5.78-12.23-6.67-19.06-.21-1.59-.36-3.17-.45-4.86-1.97,4.57-5.43,8.01-8.49,11.76-.79,1.33-1.87,2.38-3.13,3.26-.25,.06-.48,.03-.69-.13,.5-1.55,1.8-2.59,2.59-3.96,.37-.54,.75-1.06,1.05-1.65,.15-.56-.22-1.19,.25-1.7,.3,.49,.43,1.19,1.22,.31,2.77-3.07,5.38-6.24,7.04-10.08,.15-.36,.3-.77,.28-1.15-.19-3.56,.35-7.09,.36-10.64,0-2.34,.62-4.63,.45-6.99,.56,2.13-.18,4.36,.55,6.47-.36,2.96-.5,5.94-.28,8.91,.62,8.3,2.17,16.44,5.06,24.25,1.4,3.79,4.35,6.69,6.94,9.74,.78,.91,1.65,1.75,2.48,2.62Z"/><path class="i" d="M80.34,54.15c-.35-1.22-.83-2.39-1.75-3.28-.64-.61-.73-1.12,0-1.67,2.74-2.05,4.79-4.69,6.5-7.62,.44-.75,1.04-.65,1.58-.19,.47,.4,.84,.92,1.25,1.39-.47,1.13-.93,2.27-1.4,3.4-1.25,1.85-2.51,3.71-3.76,5.56-.81,.8-1.41,1.8-2.42,2.4Z"/><path class="et" d="M68.31,57.24c2.58-1.44,5-3.09,7.08-5.2,.7-.71,1.05-.28,1.49,.22,.99,1.13,1.04,2.59,1.38,3.96-1.54,1.51-3.28,2.77-5.04,4.01-.72,.51-1.17,.45-1.7-.2-.9-1.11-2.1-1.9-3.2-2.78Z"/><path class="h`" d="M89.23,39.64c-2.19-1.06-2.38-1.55-1.71-3.75,.5-1.63,.86-3.3,1.31-4.95,.19-.68-.1-1.7,1.22-1.62,1.36,.08,.83,1.09,1,1.77-.26,2.92-1.05,5.74-1.82,8.55Z"/><path class="bt" d="M91.41,21.03c-.01,1.6-.03,3.2-.04,4.8,0,.65-.13,1.13-.95,1.08-.73-.04-.82-.51-.78-1.07,.11-1.7-.11-3.4,.24-5.12,.43-2.14-.51-4.3-.23-6.47,.08-.6-.24-1.27,.32-1.78,.77,2.8,1.48,5.62,1.44,8.56Z"/><path class="hn" d="M93.46,125.55c.53,.98,1.89,.93,2.51,2.06-1.69-.43-3.21-.92-4.61-1.74,.7-.11,1.4-.22,2.1-.33Z"/><path class="fd" d="M82.08,80.71c-.94-2.06-2.23-3.87-3.78-5.51,.83-.46,.92,.44,1.25,.76,1.37,1.32,2.35,2.9,2.84,4.76-.11,.15-.21,.16-.31-.01Z"/><path class="bk" d="M88.98,91.69c-1.46-.27-2.76-.85-3.76-1.99,1.5,.23,2.64,1.35,4.11,1.67-.07,.15-.19,.25-.34,.31Z"/><path class="w" d="M95.16,92.84l-4.49-1.13c-.11-.07-.14-.14-.11-.2,.03-.07,.07-.1,.1-.1,1.54,.34,3.24,.19,4.49,1.43Z"/><path class="fh" d="M83.04,85.89c-.38-1.13-.61-2.28-.58-3.48,.09-.13,.19-.14,.27,0,.6,1.08,.21,2.36,.69,3.47-.13,.18-.26,.19-.39,0Z"/><path class="d" d="M83.04,85.89h.39c.09,1.26,1.38,2.06,1.35,3.38-.89-.97-1.6-2.02-1.74-3.38Z"/><path class="de" d="M82.74,82.41h-.28c-.09-.58-.51-1.08-.38-1.71,.1,0,.2,0,.31,.01,.12,.57,.24,1.13,.35,1.7Z"/><path class="de" d="M90.67,91.41c0,.1,0,.21,0,.31-.56-.01-1.13-.02-1.69-.03l.34-.31c.45,.01,.9,.03,1.34,.04Z"/><path class="ga" d="M118.6,176.24c7.43-1.17,14.08-3.8,18.76-10.07,.95-1.27,1.69-2.69,2.52-4.04l.09,.92c.79,6.3,.19,12.34-3.37,17.81-3.9,6-9.63,8.76-16.59,9.25-1.65,.12-3.32,.08-4.98-.02-.69-.04-1.63,.02-1.34-1.2l.09-.62c1.24-3.31,2.44-6.63,3.08-10.12,.18-.98,.43-1.93,1.74-1.91Z"/><path class="bv" d="M104.11,247.86c.15-3.28-.85-6.43-1.12-9.67-.37-4.46-.43-8.89,.22-13.33,.6-4.04,2.25-7.6,4.29-11.09,1.9-3.26,3.45-6.72,3.51-10.64,.02-1.25-.44-2.12-1.48-2.89-1.85-1.37-3.45-3.06-4.5-5.12-.86-1.7-.98-3.47,.26-5.18,2.25-3.1,4.5-6.19,6.38-9.54,2.54-4.51,3.55-9.51,4.82-14.43,.41-1.6,.84-3.19,1.77-4.59-.04,5.72-1.5,11.16-3.04,16.63-1.56,5.54-2.98,11.19-2.49,17.06,.14,1.7,.51,3.39,.68,5.09,.39,3.99-.56,7.73-2.28,11.31-.79,1.65-1.49,3.34-2.43,4.92-2.48,4.15-3.04,8.82-3.53,13.49-.64,5.99-.81,11.99-.76,18.01-.1,0-.2-.01-.3-.03Z"/><path class="eq" d="M113.7,188.88c.11,.41,.3,.73,.8,.75,5.75,.29,11.37-.1,16.31-3.47,5.18-3.53,7.74-8.68,8.81-14.73,.49-2.8,.22-5.6,.36-8.39,1.39,8.8,1.45,17.38-5.46,24.21-3.91,3.87-9.08,5.41-14.35,6.52-1.81,.38-3.64,.34-5.47,.41-1.09,.04-1.43-.39-1.33-1.4,.13-1.3-.18-2.63,.33-3.9Z"/><path class="ar" d="M118.6,176.24c-1.21,.4-1.18,1.51-1.39,2.47-.74,3.33-1.47,6.67-3.42,9.56,.65-3.98,1.31-7.95,2.67-11.77,.73,0,1.39-.48,2.14-.26Z"/><path class="bh" d="M98.63,253.49c-2.83,2.82-3.74,6.12-4.13,9.62-.1,.92-.15,1.34-1.27,1.06-1.2-.3-2.48-.29-3.73-.44-1.22-.15-1.81-.73-1.53-2.07,1.06-5,3.69-8.94,7.89-11.82,.85-.58,1.65-.92,2.83-.43,1.51,.62,3.14,.24,4.67-.4,.69-.29,1.36-.5,1.98,.28,2.94,3.7,5.26,7.61,5.01,12.6-.05,1.05-.28,1.46-1.4,1.62-3.22,.47-6.42,.95-9.68,.96-1.05,0-1.39-.35-1.39-1.39,0-2.52,.27-5.01,.62-7.49,.08-.6,.07-1.21,.12-2.1Z"/><path class="ib" d="M93.48,245.5c3.6-4.41,4.56-9.79,5.44-15.16,1.23-7.53,1.51-15.14,1.41-22.77-.01-.91,0-1.83,.09-2.76,.62,1.41,.84,2.91,.92,4.41,.5,9.18-.56,18.24-1.98,27.28-.47,2.99-.96,5.98-1.45,8.96-.04,.26-.23,.51-.34,.76-1.4-.04-2.82,0-4.09-.74Z"/><path class="bh" d="M87.88,254.1c.3-3.02,1.62-5.47,3.91-7.41,.44-.38,.95-.49,1.59-.26,1.07,.39,2.17,.73,3.32,.78,.34,.01,.73,.02,.79,.47,.05,.43-.32,.57-.62,.73-.65,.35-1.36,.62-1.88,1.18-.11,.12-.39,.27-.42,.23-1.58-1.57-1.64,.57-2.06,1.03-1.02,1.13-1.74,2.53-2.56,3.84-.37,.6-.82,.96-1.55,.72-.7-.23-.35-.87-.52-1.32Z"/><path class="dc" d="M98.26,248.23c1.24,.32,2.5,.4,3.77,.38-1.31,.36-2.63,.89-3.77-.38Z"/><path class="as" d="M143,122.76c1.14-.69,2.48-.61,3.71-.97,4.14-1.23,7.01-3.68,8.09-7.98,.27-.16-.07-.9,.62-.66,.41,3.82-1.68,6.51-4.09,9.07-.6,.63-1.9,1.19-1.5,2.06,.5,1.09,1.79,.32,2.67,.17,1.72-.3,3.4-.85,5.21-1.32,.05,.96-.62,1.29-1.13,1.64-1.47,1-2.98,1.92-4.67,2.53-1.24,.45-1.1,1.12-.27,1.88,.72,.66,1.58,.88,2.54,.86,1.32-.02,2.64,0,4.01,0-1.62,1.28-4,1.36-10.07,.39-1.6-2.63-3.06-5.35-5.13-7.66Z"/><path class="gl" d="M136.13,243.75c.47-.23,.93-.46,1.4-.69v.36c-.24,.4-.65,.33-1.03,.34-.13,.13-.25,.13-.37-.01Z"/><path class="ca" d="M155.42,113.15l-.62,.66c.1-.69,.21-1.38,.31-2.07,.49,.38,.3,.92,.31,1.41Z"/><path class="ab" d="M47.93,38.63c-1.58,.07-3.19-.17-4.72,.48-.71,.3-.81-.14-.63-.69,.81-2.55,1.67-5.14,3.1-7.37,.88-1.37,2.62-.79,4.02-.32-.59,2.63-1.18,5.27-1.77,7.9Z"/><path class="fs" d="M50.65,28.26c-1.04-.3-2.08-.47-3.52,.15,2.4-4.51,5.34-8.04,8.41-11.49,.33-.07,.51,0,.37,.39-1.82,3.62-3.8,7.16-5.27,10.95Z"/><path class="f`" d="M47.61,42.43c-2.05-.32-4.1-.31-6.16-.03,1.83-1.71,3.98-1.49,6.17-1,.02,.23,.03,.46,.05,.69-.03,.11-.04,.22-.06,.34Z"/><path class="fv" d="M55.91,17.32l-.37-.39c.36-.6,.79-1.11,1.46-1.37-.2,.68-.63,1.23-1.08,1.76Z"/><path class="hw" d="M28.31,68.64c.35-.23,.7-.45,1.05-.68-.71,2.96-1.06,5.94-.37,8.96,.19,.85-.67,1.3-.67,2.06-.03,.07-.07,.14-.1,.21-.75,.65-1.36,1.42-1.77,2.33-.55,.75-.98,1.55-1.25,2.45-.39,.86-.69,1.76-1.06,2.63-.27,.57-.42,1.2-.76,1.74-.67,.88-1.53,1.58-2.18,2.47-.24,.22-.52,.37-.82,.49-.6,.2-1.18,.45-1.76,.72-.78,.18-1.49,.75-2.36,.42l-2.13,.23c.06-.71,1.01-.67,1.09-1.33,.91-1.02,1.83-2.04,2.74-3.06,2.13-2.87,3.77-6,4.91-9.39,1.12-3.33,2.64-6.46,4.87-9.2,.25-.3,.38-.7,.57-1.06Z"/><path class="v" d="M33.84,103.46c-.64-1.95-.22-3.91-.06-5.87l.62-2.08c-.06-.35-.06-.72,.37-.79,.48-.08,.7,.29,.85,.66,.52,1.24,.92,2.53,1.79,3.6,.7,.82,1.46,1.58,2.27,2.28,1.17,1.03,2.54,1.74,4.02,2.14,1.34,.36,2.03,1.11,2.13,2.46,.15,.75,.23,1.52,.5,2.25,.09,.35,.18,.7,.08,1.06-1.23,1.7-2.98,1.35-4.65,1.1-1.02-.15-1.92-.7-2.84-1.14-.25,.03-.5-.57-.75,.02-.04,.13-.12,.23-.22,.3-2.04-1.54-3.06-3.78-4.12-5.99Z"/><path class="cn" d="M29.75,78.29c.1,0,.2,0,.31,0,.15-.1,.29-.1,.43,0,.37,.53,.39,1.19,.62,1.77,.13,.43,.3,.83,.59,1.18,.66,.7,1.23,1.51,2.19,1.85,.08,.14,.11,.3,.1,.46-.21,.56-.65,.39-.94,.39,2.19-.22,4.48,.09,6.76,.39,.7,.61,.02,.96-.28,1.34-1.19,1.54-2.28,3.14-3.34,4.77-.35,.55-.59,1.1-.68,1.73-.35,.93-.03,2.19-1.34,2.63-1.94-5.38-3.77-10.8-4.42-16.53Z"/><path class="hy" d="M20.34,91.08c.17-.3,.47-.36,.77-.42,.56-.81,1.32-1.43,1.99-2.13,.41-.56,.61-1.22,.86-1.85,.31-.97,.73-1.91,1.1-2.86,.29-.92,.75-1.74,1.37-2.48,.33-1.03,1.03-1.76,1.9-2.36h0c.33-.13,.63-.3,.71,.29,.2,1.4,.44,2.79,.67,4.19-.12,1.4,.21,2.82-.28,4.19-.21,1.24,.21,2.53-.32,3.74-.18-2.16,.2-4.36-.41-6.49-.12-.44-.16-.96-.71-1.06-.54-.09-.82,.33-1.04,.74-.79,1.46-1.77,2.86-2.29,4.41-.71,2.09-2.15,3.13-4.08,3.8-2.73,.95-5.62,.98-8.43,1.43,.23-.24,.46-.48,.69-.72,1.15-.26,2.3-.51,3.44-.77,.69-.39,1.44-.62,2.2-.8,.64-.24,1.23-.61,1.88-.83Z"/><path class="ht" d="M34.17,94.82c.92-.7,.36-1.95,1.01-2.76,.28-.36,.73-.12,1.07-.29,1.02-.15,2.01-.58,3.08-.36-.11,.94-.97,.82-1.55,1.09-1.89,.5-1.95,.68-1.56,2.58,.28,1.36,1.22,2.43,1.53,3.77-.06,.27-.23,.45-.49,.52-1.08-1.09-1.55-2.49-2.03-3.89-.08-.23,.05-.63-.39-.61-.38,.02-.28,.44-.44,.64l-.23-.69Z"/><path class="bh" d="M125.82,250.33c1.3-2.1,2.74-4.08,4.91-5.38,.39-.23,.84-.64,1.22-.59,1.99,.25,3.97,.19,5.96,.19,1.11,0,1.89,1.82,2.56,3.03,.13,.24,.33,.46,.5,.68,.24,1.15,.47,2.29,.71,3.44,.24,1.15,.28,2.3-.02,3.44-1.22,.44-2.48,.68-3.78,.7-.76,.42-1.66-.12-2.42,.33-3.49-.1-3.12,.73-3.05-3.25,.02-1.57,.41-3.13,.69-5.09-1.94,1.74-2.24,3.82-2.81,5.79-.22,.76,.09,1.94-.97,2.15-1.4,.28-2.82-.15-4.17-.56-.41-.13-.32-.64-.21-1.06,.32-1.26,.6-2.54,.89-3.81Z"/><path class="hd" d="M141.66,255.14c0-1.15,.01-2.29,.02-3.44,.51,1.15,.54,2.3-.02,3.44Z"/><path class="hd" d="M135.45,256.17c.73-.63,1.61-.22,2.42-.33-.73,.65-1.61,.21-2.42,.33Z"/><path class="bn" d="M136.13,243.75h.37c-.92,.54-1.84,.56-2.76,0,.8,0,1.59,0,2.39,0Z"/><path class="bc" d="M18.67,92.04c-.8,.23-1.6,.45-2.4,.68,0-.09,0-.18,0-.28,.77-.35,1.55-.68,2.41-.73,.1,.07,.13,.15,.1,.22-.04,.07-.07,.11-.1,.11Z"/><path class="ga" d="M62.13,109.72l.64-.06c1.4,2.14,1.98,4.61,2.73,7.01,2.03,6.48,3.49,13.09,4.15,19.84,.33,3.36,.62,6.73,.49,10.13-.32,8.22,2.56,15.39,7.25,21.97,1.77,2.49,3.92,4.64,6.07,6.79,1.66,1.66,1.61,2.47-.31,3.82-2.2,1.55-4.52,2.75-7.37,1.94-1.03-.29-1.87-.84-2.65-1.52-6.14-8.8-10.9-18.14-11.82-29.1-.4-4.79-1.29-9.54-1.96-14.31,.42-2.21,1.23-4.32,1.49-6.6,.24-2.12,.25-4.17-.08-6.24,.04-.45-.25-.9-.03-1.36l-.35-.63c.18-.59-.35-1.1-.19-1.69-.4-.41-.2-1.02-.5-1.47l-.74-2.43c-.67-.37-.53-1.11-.78-1.68-.27-.74,.46-.91,.76-1.33,.38-.15,.65-.42,.81-.79,.89-.68,1.23-1.92,2.41-2.29Z"/><path class="cm" d="M73.12,179.64c2.02,.72,3.94,1.96,6.24,1.05,.42-.17,.87-.29,1.28-.49,4.28-2.04,4.4-2.6,1.15-5.81-5.81-5.73-9.83-12.47-11.57-20.5-.41-1.91-.62-3.83-.57-5.79,.28-11.74-1.82-23.1-5.51-34.21-.47-1.4-1.31-2.69-1.37-4.23,.88-1.17,1.91-2.2,3.09-3.07,2.03,3.83,4.04,7.67,4.97,11.96,.81,3.74,1.25,7.51,1.6,11.32,.7,7.53,.61,15.17,2.75,22.52,1.61,5.55,4.17,10.62,8.18,14.87,1.61,6.1,3.51,12.09,6.31,17.76,1.26,2.55,2.66,5.03,4.18,7.88-9.19-1.28-15.73-6.05-20.75-13.26Z"/><path class="bv" d="M61.37,170.35c-.55-1.39-.2-2.84-.32-4.26-.06-.67,.2-1.39-.32-1.98,0-1.94,0-3.87-.01-5.81,.62-.72,.06-1.68,.47-2.53,2.43,10.13,7.04,19.09,13.44,27.15,1.03,1.29,2.16,2.61,3.51,3.51,1.64,1.09,2.08,2.42,1.86,4.2-.07,.56-.01,1.14-.02,1.72-.11,.14-.2,.29-.26,.46-.12,1.58-.46,3.16-.1,4.75l.08,5.9c.33,.54-.09,1.2,.3,1.73-.2,2.82,.58,5.51,1.04,8.24,.73,4.34,.73,8.71,.68,13.09-.38,.53,.02,1.19-.29,1.73-.24,5.21-.8,10.39-1.74,15.52-.04,.42-.23,.7-.68,.71-1.31,.52-1.37-.29-1.23-1.21,.21-1.36,.56-2.69,.72-4.07,.82-7.38,.06-14.66-1.21-21.92-1.28-7.3-2.27-14.63-2.95-22.01-.13-1.43-.62-2.57-1.72-3.6-5.66-5.37-9-12.08-10.85-19.58-.33-.53-.36-1.13-.39-1.72Z"/><path class="aj" d="M60.97,123.15c.72,4.52,.31,8.89-1.64,13.07-.14-.02-.29-.04-.43-.06,1.46-3.98,2.01-8.09,1.77-12.31-.11-.32-.34-.7,.3-.7Z"/><path class="x" d="M79.61,197.55c-.45-1.72-.58-3.44,.05-5.14,.25,.68,.21,1.36,.03,2.04l-.09,3.1Z"/><path class="fy" d="M79.7,194.45c-.01-.68-.02-1.36-.03-2.04,.1-.01,.21-.03,.31-.06-.07,.7,.27,1.46-.27,2.1Z"/><path class="fy" d="M81.42,228.23c.02-.59-.2-1.22,.29-1.73-.06,.58,.22,1.22-.29,1.73Z"/><path class="fy" d="M79.99,205.18c-.49-.51-.27-1.14-.3-1.73,.52,.5,.23,1.15,.3,1.73Z"/><path class="as" d="M45.21,143.46c3.42-4.27,4.35-9.25,4.06-14.55-.04-.66-.02-1.53-.69-1.85-.75-.35-.96,.61-1.46,.93-.88,.55-1.79,.92-3.17,.84,2.37-2.25,3.72-4.77,4.07-7.77,.71-.78-.25-2.19,.72-2.62,.73-.32,1.78,.17,2.68,.15,1.5-.03,2.96-.32,4.23-1.19,.71-.49,1.17-.54,1.54,.4,1.52,3.86,1.25,7.88,1.01,11.88-.05,.91-.6,1.14-1.38,.41-.93-.86-1.5-1.99-2.49-3.17-.22,2.13-.04,4.06-.48,5.93-1.05,4.46-2.95,8.31-7.29,10.45-.38,.19-.81,.81-1.33,.15Z"/><path class="au" d="M53.13,115.92l3.41-1.51c.16,.15,.18,.31,.05,.49-.85,.77-1.87,1.17-2.98,1.38-.35,.14-.5,0-.47-.36Z"/><path class="gb" d="M56.59,114.89l-.05-.48c.76-.58,1.32-1.46,2.37-1.61,.16,.61-.64,.78-.6,1.33-.13,.16-.29,.19-.47,.08l-1.24,.68Z"/><path class="dq" d="M53.13,115.92c.16,.12,.32,.24,.47,.36-.69,.39-1.45,.5-2.23,.57-.29-.37-.72-.25-1.09-.32,.95-.2,1.9-.4,2.85-.61Z"/><path class="gc" d="M57.84,114.22c.16-.03,.31-.06,.47-.08,.46,.46,.34,1.15,.62,1.68-.97-.12-.86-.97-1.09-1.59Z"/><path class="gi" d="M60.97,123.15c-.1,.23-.2,.47-.3,.7-.33-.61-.54-1.23,.04-1.82l.26,1.12Z"/><path class="cj" d="M58.26,137.2c-.17,.28-.35,.92-.62,.11-.14-.44,.01-.97,.03-1.46,.48,.33,.06,1.05,.59,1.35Z"/><path class="ce" d="M60.29,119.67c-.18,.58,.7,1.12,.07,1.72-.27-.55-.42-1.11-.31-1.73,.09-.14,.17-.13,.24,.01Z"/><path class="at" d="M60.29,119.67c-.08,0-.16,0-.24-.01-.52-.37-.35-.92-.38-1.43,.48,.36,.39,.97,.62,1.44Z"/><path class="gv" d="M61.75,172.07c1.33,2.96,2.26,6.09,3.77,8.98,2.19,4.18,4.63,8.14,8.41,11.13,.95,.75,.78,2.08,.87,3.19,.41,5.11,1.28,10.16,1.87,15.24,.66,5.65,2.05,11.17,2.38,16.9,.3,5.4,.36,10.71-.88,15.98-.22,.92,.15,.98,.82,.97-1.54,1.36-3.27,1.81-5.23,1.02,1.08-4.94,1.57-9.95,1.34-14.99-.39-8.36-1.81-16.56-4.19-24.59-2.42-8.16-5.9-15.99-7.57-24.39-.62-3.13-1.38-6.24-1.58-9.44Z"/><path class="bh" d="M73.45,251.03c-1.8,1.52-2.35,3.62-2.72,5.71-.46,2.59-.69,2.87-3.26,2.5-.34-.05-.66-.2-1-.26q-3.25-.54-1.77-3.57c1.48-3.04,2.9-6.12,5.79-8.16,1.1-.78,2.16-1.28,3.66-.85,1.56,.45,3.19,.15,4.6-.81,1.06-.72,1.68-.32,2.36,.68,2.37,3.49,2.47,7.41,2.34,11.4-.02,.66-.34,.86-.95,.94-2.6,.36-5.21,.61-7.84,.68-1.06,.03-1.23-.5-1.21-1.38,.03-2.29,.01-4.59,.01-6.88Z"/><path class="v" d="M62.77,97.95c.22,.47,.56,.81,1.03,1.03,.5,.56,.92,1.18,1.37,1.78-.02,.07-.04,.15-.03,.22,.05,.48,.59,.94,.04,1.43-1.86,2.8-3.49,5.77-6.09,8.01-3.34,2.87-7.1,4.64-11.57,4.37-2.51-.15-4.89-.79-6.08-3.42,.09-.12,.21-.2,.36-.26,.29-.08,.59-.06,.88,0,.14,.03,.28,.06,.42,.1,.56,.16,1.12,.11,1.66-.07,.34-.1,.67-.2,.97-.4,.48-.31,.82-.86,1.48-.88,.22,.05,.41,.17,.59,.3,.45,.38,.93,.7,1.54,.77,.83,.24,1.66,.2,2.48-.02,.67-.12,1.3-.34,1.82-.8,.57-.39,1.13-.8,1.75-1.11,.67-.24,1.14-.73,1.61-1.23,.32-.32,.56-.7,.86-1.03,.39-.32,.82-.59,1.05-1.07,.09-.2,.2-.39,.33-.56,.56-.15,.68-.7,.97-1.09,.25-.45,.52-.9,.72-1.38,.17-.33,.08-.76,.48-1-.54,.19-.32,.7-.55,1.02-.17,.44-.4,.86-.64,1.27-.3,.37-.36,.94-.92,1.09-1.98,2.58-4.5,4.26-7.74,4.87-1.54,.29-2.93-.13-4.34-.57-.17-.07-.32-.16-.46-.27-.37-.4-.58-.89-.73-1.41-.3-1.03-.61-2.06-.33-3.16,.83-.95,2.12-.82,3.14-1.32,4.24-1.1,7.13-3.7,8.71-7.78,.89-.47,1.54,.2,2.21,.55,1.06,.56,2.05,1.24,3,1.99Z"/><path class="b`" d="M62.13,109.72c-.76,.81-1.21,1.94-2.41,2.29,1.32-2.35,3.25-4.27,4.72-6.51,.35-.09,.51,.01,.41,.39l-2.72,3.83Z"/><path class="ft" d="M65.18,102.42c.28-.49-.48-.94-.04-1.43,.58,.3,.63,.9,.8,1.43-.03,.68-.06,1.37-.09,2.05-.31,.04-.49-.03-.36-.39-.13-.55,.23-1.19-.31-1.66Z"/><path class="av" d="M65.49,104.08l.36,.39c-.33,.47-.66,.95-.99,1.42l-.41-.39,1.05-1.42Z"/><path class="ag" d="M39.02,110.66c-.01-.1-.03-.19-.05-.28,.06-.25,.22-.41,.46-.49,.52,.01,.93,.19,1.11,.72,0,.16-.05,.31-.16,.43l-1.36-.38Z"/><path class="ie" d="M40.38,111.04v-.4c.74-.24,1.29-.17,1.36,.76h-.3c-.4,.02-.8,.04-1.05-.36Z"/><path class="ay" d="M39.36,109.97l-.39,.41c-.34-.31-.67-.62-1.01-.93,.01-.18,.02-.35,.03-.53,.5-.12,.8,.23,1.16,.47,.16,.16,.28,.33,.21,.57Z"/><path class="ds" d="M37.65,92.1c.57-.21,1.23-.2,1.68-.69,.58-.44,1.16,.11,1.74-.02,.42,.58,.36,1.31,.61,1.95,.69,1.81,2.34,3.08,4.11,3.14,1.89,.06,4-1.22,4.77-2.84,.27-.56,.2-1.1,.06-1.67,0-.18,.08-.3,.24-.38,.62-.12,1.13,.15,1.61,.49l1.73,.03c.26,.7,1.25,.48,1.5,1.19,0,2.43-1.16,4.29-3.03,5.68-3.31,2.47-6.82,3.75-10.75,1.25-2.33-1.48-3.91-3.48-4.52-6.2-.15-.67-.33-1.36,.25-1.94Z"/><path class="v" d="M56.87,75.53l.06-.49c.79-.96,1.7-1.79,2.76-2.44,.69-.34,1.44-.48,2.18-.67,.79-.09,1.56,.07,2.34,.16,.44,.06,.88,.13,1.29,.3,.07,.1,.17,.12,.28,.06,.56,.52,1.28,.84,1.79,1.43-.03,.1,0,.19,.07,.27,.36,.29,.72,.58,.93,1.01,.4,.68,.72,1.4,.88,2.18,.04,.32,.19,.62,.19,.95,0,.25,0,.49,0,.74,.04,.42-.12,.81-.19,1.22-.15,.64-.35,1.25-.7,1.82-.59,1.09-1.45,1.91-2.49,2.57-.36,.2-.78,.3-1.1,.58-.45,.35-.99,.31-1.51,.32-1.14-.09-2.34,.28-3.42-.38-.49-.16-.91-.45-1.29-.8-.66-.36-1.22-.82-1.61-1.48-.34-.58-.85-1.06-.99-1.75-.51-1.18-.57-2.4-.3-3.65,.14-.7,.32-1.38,.81-1.94Z"/><path class="v" d="M33.83,83.15c-.09-.03-.19-.05-.29-.07-.84-.49-1.48-1.18-2.02-1.98-.29-.42-.51-.88-.66-1.37-.52-1.29-.57-2.62-.29-3.97,.3-.64,.4-1.36,.81-1.95l1.45-1.74c.58-.6,1.34-.83,2.12-1.02l2.97-.07c.53-.3,.94,.09,1.39,.25,1.03,.45,1.72,1.27,2.36,2.15,.35,.68,.8,1.33,.79,2.15,.55,1.21,.22,2.4-.11,3.59-.14,.4-.23,.81-.41,1.19-.29,.68-.82,1.19-1.27,1.76-.91,.02-1.03,1.03-1.7,1.35-.52,.36-1.13,.4-1.73,.48-1.19-.01-2.44,.26-3.41-.75Z"/><path class="cc" d="M50.72,91.76c.53,.43,.72,.84,.45,1.6-.81,2.24-3.85,4.02-6.22,3.51-2.38-.51-4.08-2.91-3.88-5.48,.23-.39,.46-.04,.68,0,.51-.51,1.16-.55,1.82-.51,.83,0,1.66,0,2.5,0,.62-.07,1.27,.17,1.86-.16,.29,0,.55,.04,.71,.31,.64,.39,1.54,.03,2.08,.73Z"/><path class="ec" d="M69.21,68.7c-2.47-1.35-4.85-2.88-8.08-2.38,.83-1.42,2.03-1.83,3.23-1.74,2.51,.18,3.8,2.03,4.85,4.12Z"/><path class="ec" d="M38.66,64.85c-.23,.2-.46,.4-.69,.59-2.95,.41-5.32,1.84-7.2,4.32,.39-4.18,3.57-6.09,7.89-4.91Z"/><path class="bu" d="M55.48,93.15c-.53-.22-1.25-.21-1.29-1.04,.89,.32,1.76,.67,2.66,.95,.9,.27,1.26,.83,1.13,1.74,.22,.41-.28,.56-.31,.89-1.2,4.4-4.43,6.59-8.53,7.83-.29,.12-.48,.03-.58-.26,.37-.84,1.22-.96,1.94-1.26,2.24-.91,3.99-2.41,5.31-4.41,1.32-2,1.24-2.72-.33-4.44Z"/><path class="am" d="M36.25,91.77c-.28,.37-.68,.31-1.07,.29,1.04-2.89,2.91-5.25,4.85-7.56,.08-.14,.2-.24,.34-.31l.83-.56,.22,.17c-1.62,2.25-3.25,4.49-4.86,6.75-.25,.35-.97,.62-.32,1.22Z"/><path class="b" d="M40.37,84.19l-.34,.31c-2.75,.18-5.46-.35-8.27-.39,.58-.72,1.84,.27,2.07-.97,1.25,.25,2.5,.52,3.8,.37,.4,.28,.94-.12,1.31,.26,.37,.52,.94,.32,1.43,.41Z"/><path class="cs" d="M60,84.9l3.83,.35c.51,.23,.97,.1,1.4-.18,.16-.03,.27,.03,.34,.17-.03,.22,.74,.64,0,.61-2.42-.1-4.81,.57-7.28,.3,.35-.84,1.35-.35,1.73-.98-.12-.05-.16-.1-.13-.16,.04-.06,.07-.09,.11-.09Z"/><path class="dh" d="M57.68,95.69c.1-.3,.2-.59,.31-.89,1.75,.81,3.67,1.36,4.78,3.15-1.39-.1-2.12-1.44-3.37-1.8-.57-.17-1.02-.77-1.72-.46Z"/><path class="cp" d="M57.59,89.7c-.55-1.7-.77-3.44-.9-5.21,.79,1.29,1.23,2.66,1.23,4.16-.3,.29,.01,.78-.33,1.05Z"/><path class="if" d="M42.15,79.33c.01-1.27,.65-2.53,0-3.8,.15-.21,.24-.53,.6-.32,.38,1.41,.52,2.8-.26,4.13-.12,.17-.23,.16-.34,0Z"/><path class="f" d="M56.29,77.38c-.05,1.33-.17,2.67,.31,3.97,.2,.36,0,.4-.29,.36-.67-1.55-.9-3.13-.4-4.78,.37-.05,.53,.06,.39,.45Z"/><path class="do" d="M66.17,84.47l2.4-2.41c.11-.15,.21-.14,.32,0-.26,1.36-1.33,2.03-2.36,2.72-.14-.09-.35-.09-.36-.32Z"/><path class="fx" d="M59.75,72.82c-1.08,.57-1.64,1.79-2.82,2.22,.34-1.3,1.35-1.95,2.43-2.53,.16,.06,.36,.08,.39,.31Z"/><path class="fw" d="M30.81,75.56c-.01,1.47-.33,2.95,.32,4.37,.16,.37,0,.45-.34,.38-.23-.64-.49-1.27-.45-1.97-.18-.71-.21-1.43,.02-2.14l.11-.67c.12-.13,.24-.11,.34,.02Z"/><path class="hm" d="M41.45,73.46l-2.13-1.98c-.13-.16-.12-.3,.03-.44,1.13,.31,1.77,1.19,2.42,2.07,.15,.36-.02,.41-.32,.35Z"/><path class="e" d="M41.45,73.46l.32-.35c.54,.6,.89,1.29,.98,2.1l-.6,.32c0-.77-.5-1.37-.7-2.07Z"/><path class="br" d="M34.96,71.07c-.69,.38-1.29,.95-2.12,1.02,.35-1.08,1.09-1.37,2.12-1.02Z"/><path class="ae" d="M59.75,72.82c-.13-.1-.26-.21-.39-.31,.63-.39,1.31-.64,2.05-.7,.15,.09,.36,.11,.41,.32l-2.08,.69Z"/><path class="db" d="M67.58,73.89c-.75-.28-1.58-.47-1.79-1.43,.87,.14,1.62,.42,1.79,1.43Z"/><path class="s" d="M69.29,77.31l-.95-2.14c.07-.16,.11-.36,.34-.37,.49,.51,.73,1.15,.93,1.81-.2,.19-.03,.55-.32,.69Z"/><path class="fw" d="M61.83,72.13c-.14-.11-.28-.21-.41-.32,.91-.15,1.82-.15,2.73,0,.2,.18,.2,.36,0,.54l-2.32-.23Z"/><path class="hl" d="M65.17,100.77c-.89-.26-1.17-.99-1.37-1.78,.91,.24,1.26,.92,1.37,1.78Z"/><path class="dn" d="M57.57,82.78l1.39,1.38c-.05,.15-.16,.25-.31,.31-.62-.28-1.04-.77-1.41-1.33-.17-.37,.02-.41,.32-.37Z"/><path class="df" d="M56.29,77.38l-.39-.45c.11-.62,.15-1.28,.97-1.39,0,.68-.25,1.27-.58,1.84Z"/><path class="fa" d="M69.39,78.99v-.71c.17-.22,0-.58,.32-.74,.46,.84,.43,1.68-.01,2.51-.36-.28-.07-.75-.3-1.06Z"/><path class="e" d="M68.89,82.07h-.32l.69-1.8c.22,.05,.24,.27,.35,.4-.04,.57-.15,1.11-.73,1.4Z"/><path class="cu" d="M57.57,82.78l-.32,.37c-.31-.48-.63-.96-.94-1.44,.1-.12,.19-.24,.29-.36l.97,1.44Z"/><path class="ha" d="M39.35,71.04l-.03,.44c-.46-.16-.92-.32-1.39-.48-.1-.12-.2-.25-.31-.37v-.17c.63,.03,1.23,.16,1.73,.59Z"/><path class="eo" d="M40.68,82.08c.15-.71,.61-1.24,1.05-1.78,.21,.03,.24,.22,.3,.38-.23,.68-.69,1.14-1.35,1.4Z"/><path class="hp" d="M46.22,91.02h-2.74c-.12-.06-.15-.13-.12-.2,.04-.07,.08-.1,.12-.1l2.73,.02c.12,.06,.16,.13,.12,.19-.04,.06-.08,.1-.12,.1Z"/><path class="fw" d="M30.81,75.56l-.34-.02c.23-.61,.17-1.38,.92-1.71,.02,.65-.25,1.2-.58,1.74Z"/><path class="be" d="M43.49,90.72c0,.1,0,.21,0,.31-.58,.12-1.16,.24-1.73,.36,.23-1.12,1.12-.54,1.73-.67Z"/><path class="gy" d="M57.59,89.7c.03-.37-.06-.79,.33-1.05,0,.8,0,1.6,0,2.39-.1,.16-.2,.16-.3,0l-.04-1.34Z"/><path class="fw" d="M37.62,70.45c0,.06,0,.12,0,.17-.72,0-1.43,0-2.45,0,1.01-.37,1.73-.28,2.45-.17Z"/><path class="bw" d="M50.72,91.76c-.66-.34-1.51-.14-2.08-.73,.71,.02,1.44-.06,2.07,.38,.11,.07,.15,.13,.11,.19-.04,.06-.08,.09-.12,.09v.08Z"/><path class="dl" d="M30.36,76.21c0,.71-.01,1.42-.02,2.13-.09-.02-.19-.04-.28-.05,.11-.69-.22-1.45,.3-2.08Z"/><path class="fw" d="M58.65,84.47l.31-.31c.35,.25,.69,.49,1.04,.74-.01,.09,0,.17,.02,.26-.57,0-.94-.4-1.36-.69Z"/><path class="es" d="M64.15,72.37v-.54c.53,0,1.02,.11,1.36,.57l-1.36-.03Z"/><path class="n" d="M50.71,91.68c0-.09,0-.18,0-.28,.68-.03,1.39-.15,1.74,.68-.58-.13-1.17-.27-1.75-.4Z"/><path class="fw" d="M42.03,80.68l-.3-.38c-.05-.41,.19-.69,.43-.97,.11,0,.22,0,.34,0,.02,.51-.16,.94-.46,1.34Z"/><path class="fw" d="M66.17,84.47l.36,.32c-.32,.15-.64,.3-.96,.45-.13-.03-.25-.06-.38-.09v-.24l.98-.44Z"/><path class="es" d="M69.71,77.54l-.32,.74-.1-.97c.11-.23,.21-.46,.32-.69,.03,.31,.06,.62,.1,.93Z"/><path class="gk" d="M46.22,91.02c0-.1,0-.19,0-.29,.57,0,1.14-.01,1.71-.02-.49,.57-1.13,.25-1.71,.31Z"/><path class="af" d="M57.63,91.04c.1,0,.2,0,.3,0,0,.45,0,.89,0,1.34h-.3v-1.34Z"/><path class="fw" d="M69.62,80.67l-.35-.4,.13-1.28c.34,.29,.23,.7,.3,1.06-.02,.21-.05,.41-.08,.62Z"/><path class="cq" d="M38.94,83.78c-.45-.02-.95,.19-1.31-.26,.44-.16,.87-.39,1.35-.1-.01,.12-.02,.24-.03,.36Z"/><path class="eo" d="M68.68,74.81l-.34,.37c-.23-.34-.46-.68-.7-1.02,.54-.08,.81,.24,1.03,.65Z"/><path class="ev" d="M44.52,45.59c-1.07,.65-2.34,.12-3.43,.6,.01-.74-.28-1.57,.64-2.02,1,.34,1.72,1.21,2.79,1.42Z"/><path class="bg" d="M23.16,88.64c-.54,.82-1.22,1.49-2.04,2.02,.24-1.17,1.24-1.69,2.04-2.38,.1,.08,.13,.16,.1,.24-.03,.08-.06,.12-.1,.12Z"/><path class="dp" d="M28.32,78.98l-1.77,2.41c-.11,.13-.21,.14-.32,0,.31-1.13,.79-2.13,2.09-2.41Z"/><path class="fm" d="M25.19,83.81l-1.04,3.08c-.3,.08-.47,.02-.32-.33l1.05-2.75c.1-.16,.21-.16,.31,0Z"/><path class="gt" d="M25.19,83.81h-.31c.25-.92,.53-1.82,1.35-2.42,.11,0,.21,0,.32,0-.45,.81-.91,1.61-1.36,2.42Z"/><path class="ax" d="M23.83,86.56l.32,.33c-.27,.62-.46,1.28-1,1.75v-.36c.15-.6,.23-1.23,.67-1.72Z"/><path class="cx" d="M18.67,92.04c0-.11,0-.22,0-.32,.45-.49,1-.73,1.67-.63-.45,.51-1.09,.69-1.68,.96Z"/><path class="fn" d="M39.36,109.97l-.4-.36c-.12-.32-.54-.54-.31-.97,1,.38,1.97,.85,3,1.12,1.62,.42,3.25,.62,4.59-.78,.22-.21,.44-.19,.66,0l.06-.06c.45,.4,.77,.82,.28,1.41l-1.35,.72c-1,.33-2.03,.37-3.07,.33-.36,.01-.71,.02-1.07,.03-.36-.41-.79-.7-1.34-.76-.34-.23-.69-.45-1.03-.68Z"/><path class="cy" d="M48.65,103.12l.5,.4c-.99,.64-2.17,.62-3.24,1-.5,.38,.1,1.07-.41,1.44-.01-1.13-.43-1.77-1.66-2.07-1.69-.42-3.29-1.18-4.56-2.47,.11-.15,.26-.24,.44-.28,.55-.08,.99,.2,1.44,.45,2.13,1.17,4.3,2.18,6.83,1.4,.22-.07,.45,0,.66,.13Z"/><path class="dr" d="M36.18,104.7c.59-1.07-2.17-2.27,.45-3.45-.67,1.25-.01,2.37-.45,3.45Z"/><path class="aw" d="M45.5,105.96c.27-.44-.32-1.13,.41-1.44-.07,1.14-.03,2.27,.37,3.36,.17,.38-.03,.43-.34,.38-.33-.73-.5-1.49-.44-2.3Z"/><path class="q" d="M39.7,101.39l-.43,.03c-.84-.51-1.5-1.21-2.02-2.04l.36-.4c1.01,.53,1.99,1.09,2.09,2.41Z"/><path class="co" d="M37.7,107.78c-1.12-.87-1.38-1.64-1.31-2.92,.68,.95,.97,1.71,1.31,2.92Z"/><path class="dv" d="M38.65,108.64c.15,.31,.46,.57,.31,.97l-.96-.69c-.01-.24-.44-.43-.14-.68,.54-.47,.41,.49,.8,.4Z"/><path class="ep" d="M45.94,108.26l.34-.38c.2,.36,.41,.73,.61,1.09h-.66l-.3-.71Z"/><path class="go" d="M31.76,81.05c.59,.68,1.19,1.35,1.78,2.03-1.19,.06-1.51-1-2.14-1.67-.13-.36,.03-.44,.36-.36Z"/><path class="k" d="M31.76,81.05l-.36,.36c-.35-.29-.51-.68-.62-1.1l.34-.38,.63,1.12Z"/><path class="hc" d="M39.7,101.39c-.7-.8-1.39-1.61-2.09-2.41-.75-1.2-1.49-2.38-1.8-3.82-.54-2.48-.59-2.46,1.83-3.06,.06,5.45,4.1,8.55,8.35,9.16,3.75,.53,8.54-3.63,9.25-7.46,.04-.22,.15-.43,.23-.65,2.06,.91,2.21,1.15,1.43,3.2-1,2.63-2.97,4.4-5.41,5.66-.9,.47-1.9,.74-2.85,1.1-2.49,1.26-4.74,.38-6.99-.72-.66-.32-1.16-.94-1.95-1.01Z"/><path class="id" d="M47.23,110.32c-.09-.47-.19-.94-.28-1.4,4.46,1.59,8.05,0,11.26-3.05,.37-.35,.76-.67,1.14-1,.14,.18,.13,.36-.04,.52,.31,.18,.21,.35-.02,.51-.49,.29-.9,.7-1.35,1.04,.32,.57,.06,.86-.49,1-.82,.19-1.21,.99-1.9,1.36-.51,.47-1.07,.85-1.74,1.06-.57,.47-1.31,.53-1.95,.85-.91,.04-1.82,.05-2.73,0-.59-.25-1.11-.64-1.72-.83h-.09l-.08-.04Z"/><path class="ep" d="M60.67,102.76q-.21-1.84,1.92-1.06c-.7,.26-1.32,.44-1.56,1.07-.12,.12-.24,.11-.36,0Z"/><path class="es" d="M48.99,111.02l3.1,.1v.19c-1.04,.29-2.06,.28-3.08-.01-.1-.06-.14-.12-.11-.18,.03-.07,.06-.1,.09-.1Z"/><path class="hg" d="M42.81,111.37c.97-.61,2.05-.22,3.07-.33-.23,.37-.6,.38-.97,.39-.7,.17-1.41,.25-2.1-.06h0Z"/><path class="fu" d="M55.56,109.3c.45-.71,.94-1.37,1.9-1.36-.55,.57-.95,1.35-1.9,1.36Z"/><path class="ef" d="M52.08,111.31c-.02-.06-.02-.13,.01-.19,.42-.6,1.11-.61,1.73-.77-.32,.79-1.07,.8-1.74,.95Z"/><path class="ff" d="M60.67,102.76h.36c-.04,.56-.2,1.06-.65,1.42-.15-.08-.25-.19-.3-.36,.13-.39,.2-.81,.59-1.06Z"/><path class="ao" d="M48.99,111.02c.04,.09,.04,.18,.02,.28-.65-.11-1.19-.41-1.6-.94,.65-.08,1.18,.15,1.58,.66Z"/><path class="fn" d="M42.81,111.37c.7,.02,1.4,.04,2.1,.06-.71,.37-1.42,.53-2.1-.06Z"/><path class="fl" d="M60.08,103.82l.3,.36c-.16,.57-.42,1.05-1.06,1.21l.04-.52,.73-1.04Z"/><path class="bj" d="M57.95,106.94c.3-.54,.58-1.11,1.35-1.04-.32,.51-.54,1.17-1.35,1.04Z"/><path class="ci" d="M66.71,76.28c1.12,2.28,.96,4.1-.48,5.52-1.23,1.21-3.18,1.54-4.78,.8-1.91-.89-2.83-3.16-2.12-5.23,.74-2.17,2.78-3.09,5.47-2.5,.08,.32-.12,.46-.35,.59-.91,.29-1.94,.07-2.79,.69-1.31,.93-1.87,2.41-1.33,3.73,.57,1.4,2.06,2.27,3.42,2,1.6-.32,2.72-1.69,2.69-3.29,0-.4-.13-.79-.2-1.18,0-.44-.1-.92,.47-1.12Z"/><path class="t" d="M66.71,76.28l-.26,1.27c-.2,.84-.83,1.05-1.56,.93-.72-.12-1.25-.57-1.4-1.32-.16-.8,0-1.48,.89-1.77,.48-.09,.95-.08,1.42,.04,.18,.42,.48,.7,.91,.86Z"/><path class="ex" d="M65.19,84.91c0,.08,0,.16,0,.24-.41,.56-.87,.5-1.36,.11l1.36-.34Z"/><path class="hk" d="M65.81,75.43l-1.33,.09c-.1-.11-.12-.18-.05-.23,.04-.03,.09-.05,.16-.05l.23-.37c.45-.04,.66,.36,.99,.55Z"/><path class="e`" d="M40.42,78.43c-.4,1.97-2.11,3.23-4,2.93-1.97-.31-3.47-2.37-3.2-4.39,.38-2.84,2.4-4.15,5.43-3.51,.09,.31-.1,.47-.33,.6-.59,.24-1.24,.16-1.84,.36-1.36,.45-2.23,1.59-2.16,2.95,.07,1.3,.62,2.35,1.95,2.73,1.45,.41,2.37-.37,3.11-1.53,.25-.4,.24-1.25,1.12-.89,.05,.26,0,.5-.09,.75Z"/><path class="ap" d="M38.38,73.86c.22-.04,.38-.12,.27-.39,.79,.32,1.52,.7,1.39,1.76,.19,.25,.16,.51,.04,.78-.4,.75-1.04,1.02-1.84,.82-.67-.17-1.04-.68-1.09-1.35-.07-.87,.47-1.33,1.22-1.61Z"/><path class="g" d="M39.99,75.79l.06-.57c.62,1.01,1.17,2.03,.37,3.21l-.06-.83c-.56-.51-.66-1.12-.37-1.81Z"/><path class="fo" d="M64.58,75.24c-.04,.09-.07,.18-.1,.27-.87,.62-1.02,1.43-.31,2.18,.73,.78,1.55,.45,2.28-.15,.81,1.62,.46,2.97-1.06,4.13-1.4,1.08-3.2,.97-4.51-.28-1.39-1.33-1.65-3.07-.67-4.48,1.08-1.54,2.57-1.98,4.36-1.69Z"/><path class="fo" d="M39.99,75.79c.13,.6,.25,1.2,.38,1.81-.15,.3-.3,.6-.44,.9-.75,1.66-2.2,2.51-3.68,2.15-1.42-.35-2.49-1.93-2.41-3.55,.08-1.59,1.39-3.04,3-3.26,.51-.07,1.03,0,1.54,.01-.84,.67-1.38,1.5-.5,2.42,.81,.85,1.52,.21,2.1-.48Z"/></g></svg>