<?xml version="1.0" encoding="UTF-8"?><svg id="a" xmlns="http://www.w3.org/2000/svg" viewBox="0 0 316.59 205.16"><defs><style>.b{stroke-width:.07px;}.b,.c,.d,.e,.f,.g{fill:#fff;}.b,.d,.e,.f,.h,.i,.j,.k,.g,.l,.m,.n,.o{stroke-miterlimit:10;}.b,.d,.g,.m{stroke:#020b3f;}.d{opacity:.1;stroke-width:.12px;}.p{opacity:.76;}.p,.q{fill:#ffde8c;}.r{opacity:.5;}.e{stroke-width:.64px;}.e,.f{stroke:#4f2102;}.f{stroke-width:.61px;}.s{fill:#f5a954;}.h{stroke-width:.71px;}.h,.i,.j,.k,.l,.n{stroke:#5b1b02;}.h,.k,.l,.n,.t{fill:#ff8a00;}.i{fill:#c66c0a;}.i,.j,.l{stroke-width:.75px;}.j{fill:none;}.k{stroke-width:.48px;}.u{fill:#130d14;}.g{stroke-width:.07px;}.v{fill:#ddb966;}.w{fill:#60110e;}.m{fill:#4f2305;stroke-width:.35px;}.x{fill:#ba6304;}.y{fill:#fbffff;}.a`{fill:#471201;}.aa{fill:#ff7a75;}.ab{fill:#6d1f0d;}.n{stroke-width:.51px;}.ac{fill:#590e0e;}.ad{fill:#091204;}.o{fill:#6b0a0a;stroke:#2d0901;stroke-width:.5px;}.ae{fill:#160b0c;}.af{fill:#b70f0f;}</style></defs><path class="r" d="M116.45,202.13c-1.19,0-2.14-.08-2.66-.14h-3.28c-.06,0-.12,0-.19,0-.55-.02-1.08-.06-1.66-.14-.19-.02-.38-.04-.57-.08-5.06-.79-7.68-3.6-8.55-6.11-1.5,2.13-3.94,4.04-7.76,4.82-4.2,.86-7.21,1.04-9,1.04-.2,0-.39,0-.56,0-.6,.12-1.25,.18-1.98,.18-.63,0-1.33-.05-2.09-.14-.46,.07-1.01,.12-1.62,.12-3.85,0-7.01-2.13-8.46-5.69-.06-.14-.11-.28-.15-.42-1.6-5.25-.35-12.15,6.19-14.9l.95-.4c.68-.29,1.42-.59,1.97-.84,0-.08,0-.17-.01-.26-.12-1.01-1.56-5.19-2.71-8.56-2.28-6.66-5.34-15.58-6.65-23.09-2.07-1.81-3.77-3.69-5.05-5.61-1.52,.99-2.62,2.12-3.29,3.36,0,0-.05,.09-.05,.09-.08,.15-.13,.27-.18,.39-.05,.12-.09,.23-.13,.33-.04,.11-.08,.24-.12,.37l-.07,.24c-.03,.13-.07,.3-.1,.47l-.02,.14c-.02,.15-.03,.28-.04,.4,0,.07-.01,.2,0,.34,0,.25,.03,.42,.06,.58,.02,.09,.03,.18,.04,.27,.29,2.38-1.15,4.65-3.44,5.38-.51,.16-1.03,.24-1.54,.24-1.78,0-3.48-.95-4.37-2.59,0,0-.82-1.48-2.02-3.05-1.1-1.11-2.56-2.35-4.34-3.68-.36-.25-.71-.53-1.06-.84-3.41-2.89-5.54-6.69-6.88-10.29-.18,.03-.32,.05-.43,.06-.16,.01-.32,.02-.48,.02-1.21,0-2.39-.44-3.31-1.25-1.04-.92-1.65-2.22-1.69-3.61l-.23-8.58c-.09-.53-.2-1-.32-1.38-.16-.33-.38-.66-.67-.98-.33-.25-.68-.5-1.04-.76-.4-.29-.81-.58-1.23-.89-1.11-.78-4.05-3.05-5.73-6.32-.06,0-.12,0-.18,0-1.14,0-2.27-.39-3.18-1.14-1.49-1.23-2.14-3.21-1.67-5.09,0,0,1.03-4.46-.85-8.08l-.56-1.08c-3.02-5.78-7.59-14.5-4.95-23.23,.85-2.81,1.85-5.43,2.78-7.64-1.28-.86-2.12-2.28-2.2-3.88-.11-2.04,1.03-3.94,2.88-4.81,1.14-.54,4.55-2.5,6.49-4.95,.22-.28,.55-.76,1.02-1.61-1.26-3.29-1.45-6.35-1.47-6.77-.18-3.08,1.1-6.33,3.51-8.89,1.95-2.06,4.43-3.42,7.02-3.88,2.87-4.86,6.47-8.86,10.61-11.84-.29-.61-.53-1.28-.68-2.01-.38-1.81,.26-3.68,1.68-4.87,.92-.77,2.06-1.17,3.21-1.17,.63,0,1.27,.12,1.87,.37h0s1.87,.71,3.87,.71c.91,0,1.67-.16,2.2-.45,2.38-1.33,5.36-2.05,8.4-2.05s9.54,.84,14.7,7.17c2.96-2.55,7.25-4.54,13.18-4.54,1.39,0,2.86,.11,4.36,.33,.15,.02,.29,.05,.44,.08,.92,.22,9.1,2.41,14.32,12.17,.3,.36,1.25,1.34,2.65,1.34,.43,0,.91-.08,1.42-.25,.51-.17,1.03-.25,1.55-.25,1.35,0,2.67,.55,3.63,1.56,1.33,1.4,1.73,3.44,1.04,5.24-.37,.97-1.03,1.99-1.97,2.92,1.74,2.48,3.28,5.66,3.65,9.4,.08,.82,.2,1.79,.35,2.88,1.64,1.12,3.02,2.77,4,4.84,1.91,4.01,1.87,8.65-.1,12.11-.15,.27-.31,.53-.48,.79,1.12,4.58,2.25,8.35,3.31,10.99,1.55,3.85,2.38,9.13,2.31,14.52,10.25,8.01,25.1,13.99,27.5,14.93,3.34,.72,25.16,5.58,34.78,10.97,2.56,1.43,4.72,2.9,6.54,4.45,2.52-.38,5.08-.57,7.63-.57,3.77,0,7.62,.41,11.45,1.23,14.3,3.05,22.31,9.52,29.38,15.22,6.43,5.19,12.05,9.72,21.91,11.95,3-2.25,8.13-5.13,14.79-5.13,3.81,0,7.62,.95,11.32,2.83,.15,.08,.3,.16,.44,.25,4.26,2.73,12.35,7.31,15.9,7.95,1.58,.29,2.93,1.32,3.62,2.77s.64,3.15-.13,4.56c-1.77,3.23-7.42,8.87-17.36,9.61-1.4,.18-2.85,.27-4.32,.27-1.59,0-3.25-.11-4.92-.32-.27-.03-.52-.07-.77-.11l-.3-.04c-3.9-.42-13.2-1.87-18.18-6.37-.71-.55-1.34-1.12-1.89-1.72-9-.81-21.03-4.31-31.33-15.55-5.99-6.53-16.48-10.75-26.73-10.75-.23,0-.47,0-.7,0,.22,.5,.46,1.01,.71,1.52,2.18,4.37,6.86,5.71,13.22,7.13,.95,.21,1.87,.42,2.73,.63,7.02,1.76,9.14,6.59,9.39,9.92l7.16,17.12c1.37,2.57,6.52,12.96,4.34,20.39-1.42,4.84-5.43,7.87-10.73,8.11-.03,0-.06,0-.1,0-.21,0-.42,.01-.62,.01-.5,0-.97-.02-1.39-.06-1.95,.9-4,1.36-6.14,1.36s-3.72-.43-4.83-.83h-1.24c-.52,0-1.04-.08-1.54-.24-4.4-1.42-6.15-4.27-6.85-6.41-1.69-5.19,1.46-10.71,2.81-12.74,1.19-3.44,.21-6.91-.08-7.82-2.71-4.4-11.03-8.31-20.46-9.59-.71-.1-1.43-.21-2.16-.33,.12,2.55,.91,5.42,1.75,6.4,4.3,2.58,5.45,6.33,5.12,8.97-.14,1.77-1.12,7.88-7.86,14.99-5.02,5.3-10.09,6.42-13.46,6.42-.81,0-1.54-.07-2.15-.16-1.65,.6-3.26,.91-4.81,.91s-2.91-.33-3.87-.71c-3.92-.21-6.26-1.89-7.55-3.32-2.83-3.13-2.6-6.99-2.52-7.73,.81-6.83,5.32-9.81,9.31-11.21-12.04-3.12-18.36-11.52-21.37-17.25-.72,.06-1.44,.12-2.17,.17-4.98,.48-9,.79-11.99,.9,.53,10.59,1.53,30.29,1.53,30.29,.04,.83-.12,1.67-.49,2.42-2.19,4.57-7.15,7.09-13.94,7.09Zm-15.03-17.9c1.48-1.75,3.32-2.82,4.87-3.48-1.39-3.32-3.36-9.29-5.97-18.13l1.1,21.61Z"/><path class="c" d="M111.45,197.13c-1.19,0-2.14-.08-2.66-.14h-3.28c-.06,0-.12,0-.19,0-.55-.02-1.08-.06-1.66-.14-.19-.02-.38-.04-.57-.08-5.06-.79-7.68-3.6-8.55-6.11-1.5,2.13-3.94,4.04-7.76,4.82-4.2,.86-7.21,1.04-9,1.04-.2,0-.39,0-.56,0-.6,.12-1.25,.18-1.98,.18-.63,0-1.33-.05-2.09-.14-.46,.07-1.01,.12-1.62,.12-3.85,0-7.01-2.13-8.46-5.69-.06-.14-.11-.28-.15-.42-1.6-5.25-.35-12.15,6.19-14.9l.95-.4c.68-.29,1.42-.59,1.97-.84,0-.08,0-.17-.01-.26-.12-1.01-1.56-5.19-2.71-8.56-2.28-6.66-5.34-15.58-6.65-23.09-2.07-1.81-3.77-3.69-5.05-5.61-1.52,.99-2.62,2.12-3.29,3.36,0,0-.05,.09-.05,.09-.08,.15-.13,.27-.18,.39-.05,.12-.09,.23-.13,.33-.04,.11-.08,.24-.12,.37l-.07,.24c-.03,.13-.07,.3-.1,.47l-.02,.14c-.02,.15-.03,.28-.04,.4,0,.07-.01,.2,0,.34,0,.25,.03,.42,.06,.58,.02,.09,.03,.18,.04,.27,.29,2.38-1.15,4.65-3.44,5.38-.51,.16-1.03,.24-1.54,.24-1.78,0-3.48-.95-4.37-2.59,0,0-.82-1.48-2.02-3.05-1.1-1.11-2.56-2.35-4.34-3.68-.36-.25-.71-.53-1.06-.84-3.41-2.89-5.54-6.69-6.88-10.29-.18,.03-.32,.05-.43,.06-.16,.01-.32,.02-.48,.02-1.21,0-2.39-.44-3.31-1.25-1.04-.92-1.65-2.22-1.69-3.61l-.23-8.58c-.09-.53-.2-1-.32-1.38-.16-.33-.38-.66-.67-.98-.33-.25-.68-.5-1.04-.76-.4-.29-.81-.58-1.23-.89-1.11-.78-4.05-3.05-5.73-6.32-.06,0-.12,0-.18,0-1.14,0-2.27-.39-3.18-1.14-1.49-1.23-2.14-3.21-1.67-5.09,0,0,1.03-4.46-.85-8.08l-.56-1.08c-3.02-5.78-7.59-14.5-4.95-23.23,.85-2.81,1.85-5.43,2.78-7.64-1.28-.86-2.12-2.28-2.2-3.88-.11-2.04,1.03-3.94,2.88-4.81,1.14-.54,4.55-2.5,6.49-4.95,.22-.28,.55-.76,1.02-1.61-1.26-3.29-1.45-6.35-1.47-6.77-.18-3.08,1.1-6.33,3.51-8.89,1.95-2.06,4.43-3.42,7.02-3.88,2.87-4.86,6.47-8.86,10.61-11.84-.29-.61-.53-1.28-.68-2.01-.38-1.81,.26-3.68,1.68-4.87,.92-.77,2.06-1.17,3.21-1.17,.63,0,1.27,.12,1.87,.37h0s1.87,.71,3.87,.71c.91,0,1.67-.16,2.2-.45,2.38-1.33,5.36-2.05,8.4-2.05s9.54,.84,14.7,7.17c2.96-2.55,7.25-4.54,13.18-4.54,1.39,0,2.86,.11,4.36,.33,.15,.02,.29,.05,.44,.08,.92,.22,9.1,2.41,14.32,12.17,.3,.36,1.25,1.34,2.65,1.34,.43,0,.91-.08,1.42-.25,.51-.17,1.03-.25,1.55-.25,1.35,0,2.67,.55,3.63,1.56,1.33,1.4,1.73,3.44,1.04,5.24-.37,.97-1.03,1.99-1.97,2.92,1.74,2.48,3.28,5.66,3.65,9.4,.08,.82,.2,1.79,.35,2.88,1.64,1.12,3.02,2.77,4,4.84,1.91,4.01,1.87,8.65-.1,12.11-.15,.27-.31,.53-.48,.79,1.12,4.58,2.25,8.35,3.31,10.99,1.55,3.85,2.38,9.13,2.31,14.52,10.25,8.01,25.1,13.99,27.5,14.93,3.34,.72,25.16,5.58,34.78,10.97,2.56,1.43,4.72,2.9,6.54,4.45,2.52-.38,5.08-.57,7.63-.57,3.77,0,7.62,.41,11.45,1.23,14.3,3.05,22.31,9.52,29.38,15.22,6.43,5.19,12.05,9.72,21.91,11.95,3-2.25,8.13-5.13,14.79-5.13,3.81,0,7.62,.95,11.32,2.83,.15,.08,.3,.16,.44,.25,4.26,2.73,12.35,7.31,15.9,7.95,1.58,.29,2.93,1.32,3.62,2.77s.64,3.15-.13,4.56c-1.77,3.23-7.42,8.87-17.36,9.61-1.4,.18-2.85,.27-4.32,.27-1.59,0-3.25-.11-4.92-.32-.27-.03-.52-.07-.77-.11l-.3-.04c-3.9-.42-13.2-1.87-18.18-6.37-.71-.55-1.34-1.12-1.89-1.72-9-.81-21.03-4.31-31.33-15.55-5.99-6.53-16.48-10.75-26.73-10.75-.23,0-.47,0-.7,0,.22,.5,.46,1.01,.71,1.52,2.18,4.37,6.86,5.71,13.22,7.13,.95,.21,1.87,.42,2.73,.63,7.02,1.76,9.14,6.59,9.39,9.92l7.16,17.12c1.37,2.57,6.52,12.96,4.34,20.39-1.42,4.84-5.43,7.87-10.73,8.11-.03,0-.06,0-.1,0-.21,0-.42,.01-.62,.01-.5,0-.97-.02-1.39-.06-1.95,.9-4,1.36-6.14,1.36s-3.72-.43-4.83-.83h-1.24c-.52,0-1.04-.08-1.54-.24-4.4-1.42-6.15-4.27-6.85-6.41-1.69-5.19,1.46-10.71,2.81-12.74,1.19-3.44,.21-6.91-.08-7.82-2.71-4.4-11.03-8.31-20.46-9.59-.71-.1-1.43-.21-2.16-.33,.12,2.55,.91,5.42,1.75,6.4,4.3,2.58,5.45,6.33,5.12,8.97-.14,1.77-1.12,7.88-7.86,14.99-5.02,5.3-10.09,6.42-13.46,6.42-.81,0-1.54-.07-2.15-.16-1.65,.6-3.26,.91-4.81,.91s-2.91-.33-3.87-.71c-3.92-.21-6.26-1.89-7.55-3.32-2.83-3.13-2.6-6.99-2.52-7.73,.81-6.83,5.32-9.81,9.31-11.21-12.04-3.12-18.36-11.52-21.37-17.25-.72,.06-1.44,.12-2.17,.17-4.98,.48-9,.79-11.99,.9,.53,10.59,1.53,30.29,1.53,30.29,.04,.83-.12,1.67-.49,2.42-2.19,4.57-7.15,7.09-13.94,7.09Zm-15.03-17.9c1.48-1.75,3.32-2.82,4.87-3.48-1.39-3.32-3.36-9.29-5.97-18.13l1.1,21.61Z"/><g><path class="h" d="M162.99,135.77s17.76-21.76,46.95-15.53c29.18,6.23,28.86,27.17,62.76,28.62l-.76,2.81s-22.17,4.95-39.12-13.53c-12.44-13.57-44.19-21.05-64.36,4.97l-4.09,.75-3.69-5.72,2.32-2.37Z"/><path class="i" d="M140.76,148.56s4,16.29,21.12,20.29c0,0,8.69,2.07,11.04,3.86v2.76s-2.29,.45-5,1.33c-2.71,.88-11.42,.44-12.37,8.42,0,0-.59,5.78,6.29,5.56,0,0,2.34,1.83,7.03-.44,0,0,6,2.34,12.44-4.46,6.44-6.81,6.51-12.08,6.51-12.08,0,0,.44-2.34-2.85-4.25s-5.64-12.08-2.78-16.83c2.85-4.76-1.52-9.27-1.52-9.27l-19.26-3.59-13.52,1.84-7.12,6.85Z"/><path class="i" d="M89.67,144.83l2,39.34s.14,5.19-5.87,6.42c-6.01,1.23-9.15,.9-9.15,.9,0,0-.69,.49-3.62,0,0,0-3.84,1.22-5.3-2.37,0,0-2.01-6.58,3.35-8.83,5.36-2.25,6.15-2.31,5.97-6.33-.18-4.02-9.44-24.97-9.99-37.03l22.61,7.92Z"/><path class="l" d="M56.57,116.98s-.62,17.54,17.81,27.44c18.44,9.9,54.83,7.52,54.83,7.52,0,0,34.36-4.41,39.49-3.1,0,0,9.43,4.06,20.05,5.49,10.62,1.43,20.76,5.97,24.34,12.41,0,0,2.51,6.09,0,12.29,0,0-6.9,9.46,1.11,12.05h2.01c.14,0,.27,.03,.4,.09,.87,.39,4.69,1.82,8.89-.8,0,0,7.16,1.79,8.95-4.3,1.79-6.09-4.06-16.82-4.06-16.82l-7.64-18.26s.6-4.53-5.61-6.09c-6.2-1.55-15.27-2.51-19.21-10.38-3.94-7.87-3.31-13.35-15.03-19.93-9.66-5.42-33.77-10.53-33.77-10.53,0,0-28.25-10.66-37.39-24.17,0,0-55.38,27.2-55.17,37.08Z"/><g><g><path class="k" d="M24.73,47.62s5.7-4.64,8.18-8.9c0,0,.77-7.08-5.43-9.22-4.83-1.66-9.67,3.25-9.44,7.36,0,0,.44,9.43,6.69,10.76Z"/><path class="aa" d="M23.56,33.14s4.86-2.02,8.16,7.07c0,0-2.94,2.72-6.31,3.19,0,0-6.71-7.33-1.85-10.26Z"/></g><path class="x" d="M23.19,33.33s5.13-1.13,7.01,6.84c0,0,.64-.39,1.11-.88,0,0-1.12-2.56-1.99-3.94-.64-1.02-3.07-4.15-6.13-2.03Z"/><path class="x" d="M18.86,34.14s-.17,4.37,2.09,9.02l-.88,.52s-.97-1.92-1.31-3.57c0,0-1.29-4.21,.11-5.97Z"/></g><path class="ab" d="M69,19.51s2.72-10.68,17.25-8.57c0,0,6.92,1.64,11.23,9.98,0,0,3.4,5.28,9.87,3.17,0,0-1.13,2.93-6.01,2.82,0,0,6.69,4.79,7.37,11.78,.68,6.99,3.89,24.21,7.42,32.99,3.53,8.78,4.32,33.4-15.69,42.3,0,0-2.84,5.63-8.77,7.06,0,0-17.66,3.86-22.66,12.05,0,0-.92-3.75,1.38-5.72,0,0-3.05,2.37-9.72,3.06-6.68,.69-13.1,7.5-11.89,14.11,0,0-3.42-6.28-7.28-8.07-3.86-1.78-8.87-13.28-8.71-20.33,.16-7.05,1.41,6.72-3.6,8.02,0,0,.94-11.18-2.35-14.09-3.29-2.92-9.55-4.74-9.08-16.38,0,0,0,5.3-2.98,6.71,0,0,1.57-6.17-1.25-11.61-2.82-5.45-7.36-13.32-5.17-20.56,2.19-7.24,5.48-13.24,5.48-13.24,0,0-3.76,.32-4.7,0,0,0,5.17-2.41,8.3-6.39,3.13-3.97,7.36-16.12,9.87-20.66,2.51-4.54,7.16-11.02,15.25-14.42,0,0-3.56-1.3-4.15-4.05,0,0,6.01,2.43,10.37,0,4.36-2.43,15.12-3.22,20.23,10.06Z"/><path class="ac" d="M63.92,30.41s-12.18-12.53-21.92-1.04c-9.74,11.48-5.22,19.84-16.36,27.14,0,0,3.13,.35,6.44-2.09,0,0-11.31,6.44-3.13,29.58,0,0,2.44-4.52,2.44-8.18,0,0-.17,4.87,4.35,8.18,4.52,3.31,4,10.96,2.96,13.57,0,0,2.44-.87,3.31-4.35l18.97,4.35,10.44-.87s-3.83,6.79-2.44,10.96c0,0,3.83-7.13,7.31-8.18,3.48-1.04,8.7-4.35,8.7-4.35,0,0-1.74,8.35-4.35,10.61,0,0,10.96-6.26,12.88-16.53l1.91-10.27h0s1.39,1.91,1.22,4,1.74-7.66-1.57-12.35c-3.31-4.7-2.44-10.09-2.44-10.09,0,0,2.26,9.22,7.13,11.14l-1.04-2.96s6.26,7.13,10.96,8c0,0,.52-2.44-3.65-5.92-4.18-3.48-9.22-7.83-9.74-14.44,0,0-1.04,4.7,1.22,8.35,0,0-5.92-6.26-5.92-13.57s1.74-17.57-5.39-23.49c-7.13-5.92-14.09,1.39-14.09,1.39,0,0,.52-2.26,2.44-3.13l-2.26,.17s1.69-2.44,3-3.94c0,0-3.48,2.37-5.05,5.67,0,0,3.14-3.77,.7-5.85,0,0-.89,3.12-1.94,4.68l-1.04-5.31s.8,4.61-1.03,5.13c0,0-2.1-4.78-3.49-5.82,0,0,2.23,2.13,1.71,7.18,0,0-1.39-1.74-1.91-3.31,0,0-.52,3.13,.7,5.92Z"/><path class="t" d="M39.93,54.51s-1.46-21.93,19.77-23.57c.63-.05,2.6,0,4.13,.89,.93,.55,2.5,1.93,4.01,2.05,3.13,.25,6.87-.45,6.87-.45,0,0,11.45-1.88,14.48,12.91,2.19,10.69-3.62,21.43-3.62,21.43,0,0,11.95,14.78-7.61,25.21,0,0-10.87,2.75-13.4,9.3l-18.7-2.89-2.5-7.7s.86-4.43-3.42-7.51-10.63-12.13-7.94-19.44c2.69-7.31,7.94-10.23,7.94-10.23Z"/><path class="q" d="M44.84,87.73s-.59,6.13,4.55,6.93c5.15,.79,9.5,.79,13.26-4.35,3.76-5.15,8.31-13.06,8.31-13.06,0,0-4.35,11.08-4.55,18.6s-4.35,12.47-14.84,12.27c0,0-8.43-.53-10.61-6.86,0,0-1.1-4.53,1.41-9,0,0,2.19-3.24,2.47-4.52Z"/><path class="y" d="M46.76,83.75s3.34,2.48,11.37,1.46c8.04-1.02,7.47-5.21,7.47-5.21h-14.3l-5.11,.39,.56,3.36Z"/><path class="u" d="M44.69,83.75l.63,5.78,2.63,3.88h7.26l5.48-1.18,3.54-4.49s5.38-8.37,6.04-10.08l-2.55-.41-13.54,.41s-10.72,1.25-9.47,6.09Z"/><path class="q" d="M43.75,68.41s-6.3,2.7-3.92,8.84c2.38,6.14,9.39,5.43,10.82,3.41v-2.5s-.71,4.99,3.33,5.47c4.04,.48,9.63-.16,16.29-6.38,0,0-2.29-5.27-10-4.44l-10.93-1.19-5.59-3.21Z"/><path class="o" d="M45.09,65.76s4.52,4.92,16.61,3.59c0,0,1.29,3.42-5.33,6.01,0,0-2.23,1.45-3.47,2.27-3,1.99-4.47-.38-4.47-.38,0,0-1.2-2.94-2.15-3.75-.95-.81-3.72-5.33-1.18-7.73Z"/><path class="p" d="M67.67,66.83s-8.84-10.5,3.29-20.12c0,0,5.96-2.07,6.81,3.58,2.18,14.38-3.07,13.43-4.72,15.91l-5.39,.64Z"/><path class="ad" d="M70.97,46.71s5.2-.98,7.15,6.19c0,0,1.63-6.52-2.61-8.96-4.24-2.44-4.54,2.77-4.54,2.77Z"/><path class="p" d="M40.72,55.38s-.26-7.06,4.92-12.9c5.17-5.83,9.13,.15,9.13,.15,0,0,.23,13.92-4.92,16.29l-9.12-3.55Z"/><path class="q" d="M73.79,127.08s.6,9.13,36.88,12.8c36.27,3.66,51.36,3.65,51.36,3.65l6.68,5.32s-7.28-.44-18.48,.74c-11.2,1.18-25.88,3.05-31.28,2.61-5.4-.44-24.85-.71-31.64-3.15,0,0-15.05-2.95-24.44-13.76,0,0-2.45-2.09-3.5-6.4l6.25-.62,8.18-1.18Z"/><path class="ad" d="M54.77,42.63s1.11-2.77,0-4.73c-1.11-1.96-8.11,0-9.42,4.73,0,0,7.1-4.07,9.42,0Z"/><path class="af" d="M47.95,89.65s5.02-5.28,13.84-3.68c0,0,2.26,.26,1.23,2.63-1.03,2.37-9.37,4.08-9.37,4.08l-5.7-.45v-2.58Z"/><path class="ad" d="M43.55,81.39s1.57,4.08,1.28,7.28c0,0-.85,6.02,6.23,6.21,7.08,.19,9.05-.7,12.24-5.47,3.18-4.78,7.67-12.17,7.67-12.17h-.7s-5.6,10.65-9.36,13.3-9.97,3.77-14.14,.23c0,0-.73-3.81-.73-5.42s-2.48-3.96-2.48-3.96Z"/><path class="y" d="M43.55,81.39l2.57,5.31s1.2,2,.94-4.61c0,0-2.38-.02-3.52-.69Z"/><path class="y" d="M56.57,83.74l1.23,4.58s.9,2.06,1.88-4.98c0,0-2.43,.41-3.12,.4Z"/><path class="y" d="M46.76,90.77s.37-3.28,1.27-4.11,1.12,5.57,1.12,5.57c0,0-2.26-.8-2.39-1.46Z"/><path class="y" d="M56.02,92.68s.32-4,.55-4.82c.23-.82,1.65,2.62,2.03,3.97,0,0-1.01,.59-2.58,.85Z"/><path class="y" d="M46.38,88.6s5.17,5.05,15.41,0c0,0,1.63-1.22,2.14-2.53l.29,.91s-2.26,3.75-5.62,4.85c-2.58,.85-5.89,1.88-9.46,.4,0,0-3.82-.93-2.76-3.63Z"/><ellipse class="e" cx="71.61" cy="58.47" rx="7.73" ry="6.16" transform="translate(1.51 118.75) rotate(-79.92)"/><ellipse class="f" cx="46.64" cy="52.9" rx="7.44" ry="5.75" transform="translate(-17.28 82.7) rotate(-73.6)"/><ellipse class="m" cx="71.43" cy="59.41" rx="4.26" ry="3.45" transform="translate(.44 119.35) rotate(-79.92)"/><ellipse class="ad" cx="71.47" cy="59.74" rx="2.44" ry="2.07" transform="translate(-3.99 114.36) rotate(-75.79)"/><ellipse class="b" cx="69.45" cy="58.63" rx=".77" ry=".73" transform="translate(3.51 121.19) rotate(-83.66)"/><circle class="d" cx="72.59" cy="57.15" r="1.28"/><g><ellipse class="m" cx="47.45" cy="54.99" rx="4.1" ry="3.22" transform="translate(-18.7 84.99) rotate(-73.6)"/><ellipse class="ad" cx="47.58" cy="55.29" rx="2.56" ry="1.9" transform="translate(-18.89 85.32) rotate(-73.6)"/><ellipse class="g" cx="45.94" cy="53.91" rx=".74" ry=".7" transform="translate(-12.72 93.61) rotate(-83.66)"/><circle class="d" cx="48.54" cy="52.51" r="1.28"/></g><path class="x" d="M56.23,69.39s5.47-1.98,6.18-5.17c0,0,.4,3.59-.51,4.99,0,0-4.98,.35-5.67,.18Z"/><path class="x" d="M66.49,94.53s3.4-3.07,8.42-4.63,13.23-6.23,13.58-16.38c0,0,2.73,7.63-2.42,13.07-5.15,5.44-6.79,5.91-11.75,7.63-4.96,1.72-8.09,4.95-8.7,6.38,0,0,1.13-4.69,.87-6.07Z"/><path class="x" d="M43.17,91.02s1.53-2.31,1.67-3.28-.77-5.33-1.3-6.34c-.38-.73-.9,.42-3.36-3.55-.56-.89-7.56-4.32-8.8-8.27,0,0,.05,2.88,2.09,6.75,2.04,3.86,4.88,6.83,7.76,9,2.3,1.74,1.93,5.69,1.93,5.69Z"/><path class="q" d="M45.19,65.45s1.27-4.83,7.25-6.78c0,0-6.22,4.54-7.25,6.78Z"/><path class="ae" d="M65.95,67.28s7.25-.74,11.33-1.31c0,0-7.46-.39-11.33,1.31Z"/><path class="ae" d="M39.25,57.67s5.44,2.99,8.6,4.53c0,0-4.93-4-8.6-4.53Z"/><path class="w" d="M9.7,54.77s6.93-1.39,9.28-3.96c0,0-1.4,2.93-5.25,3.96,0,0-3.54,.51-4.03,0Z"/><path class="ac" d="M14.76,100.39s3.64-4.84,1.89-13.9c0,0,1.43,4.03,3.29,11.96,1.87,7.93,7.86,9.11,7.86,9.11,0,0,2.12,.67,2.4,7.72s-1.03,8.87-1.03,8.87c0,0,.53-8.25-.88-11.61-1.41-3.36-4.65-4.86-4.65-4.86,0,0-3.85-2.55-4.75-5.82-.9-3.27-1.16-8.18-1.16-8.18,0,0,.11,5.07-2.98,6.71Z"/><path class="ac" d="M24.81,100.01s-.41,3.57,1.76,7.63l1.62,2.03,.73,5.37,.25,9.12s2.81-.26,3.65-6.43c0,0,.35,12.65,8.1,18.41,7.75,5.76,7.84,8.4,7.84,8.4,0,0-2.03-8.49,9.41-13.58,0,0,7.89-.86,12.2-3.59,0,0-2.45,1.53-1.38,5.72,0,0,4.01-6.1,15.06-9.79s13.48-3.3,16.38-9.32c0,0,11.97-2.26,16.27-19.55,0,0-5.95,11.09-11.78,12.56,0,0,5.67-9.09,5.03-14.15,0,0-3.86,13.16-10.15,14.89,0,0,1.17-.87,1.57-4.46,.41-3.59-.81,8.32-8.75,11.42,0,0,1.15-1.62,1.32-2.74s-2.38,5.25-7.66,6.73c-5.28,1.48-11.4,4-13.62,5.47,0,0,2.72-2.45,2.96-4.76,0,0-4.64,6.37-11.99,7.44-7.36,1.08-11.1,2.29-14.29,7.83,0,0,.92-5.32,3.41-7.3,0,0-4.41,2.3-4.64,5.95,0,0-.8-7.39-4.56-9.64,0,0,2.43,5.53,1.39,10,0,0-5.94-2.84-9.04-10.39,0,0-3.03-6.5-2.87-8.64,.16-2.14-3-7.47-2.21-12.78,0,0-1.72,4.05-.34,9.14,.03,.12,.07,.25,.11,.37,1.57,5.27-5.41-9.35-5.76-11.36Z"/><path class="s" d="M40.72,78.68s6.18,3.31,9.85-.06c0,0,3.56,5,14,2.84,0,0-4.07,2.75-8.95,2.69-4.21-.05-4.46-1.38-4.92-3.85,0,0-.11,2.48-5.38,1.67-3.71-.57-4.6-3.29-4.6-3.29Z"/><path class="s" d="M42.32,103.73s15.35,3.56,19.47-2.43c4.13-5.99,4.56-15.21,7.38-18.91,0,0-2.38,8.03-2.6,11.19-.21,3.16-.05,9.27-4.78,12.12-4.73,2.85-14.59,4.49-19.47-1.97Z"/><g><g><path class="n" d="M99.38,49.74s-.12,8.37,4,11.63c0,0,6.75,.26,10.22-5.82,2.36-4.14-.48-10.91-4.51-11.12,0,0-7.92-.48-9.7,5.3Z"/><path class="aa" d="M110.82,51.01s1.45,6.76-8.63,8.88c0,0-2.43-3.52-2.41-7.14,0,0,8.69-7.31,11.05-1.74Z"/><path class="x" d="M100.41,56.01s.94-1.46,3.36-2.21c0,0-1.26-.72-2.74,0,0,0,6.44-6.58,9.83-2.92,0,0-.76-3.38-5.05-1.75,0,0-4.65,1.62-5.99,3.49,0,0-.1,2.27,.59,3.38Z"/></g><path class="x" d="M103.08,60.53c.04,.11-.26,.08,.1,.34l.34,.33c2.18-.15,1.97-.03,5.19-1.35,3.04-1.25,4.49-5.15,4.49-5.15-3.17,5.07-8.91,5.7-10.13,5.83Z"/></g><path class="v" d="M60.19,130.68s13.16,12.7,39.56,14.51c26.4,1.81,65.73,.69,65.73,.69l3.23,2.95s-10.87,.1-16.37,.78c-5.5,.68-29.17,3.56-33.39,2.58l-20.21-.7s-22.72-2.4-32.63-12.96c0,0-4.5-3.62-5.92-7.86Z"/><path class="l" d="M91.24,124.16s10.78,41.14,14.97,50.36c0,0,1.14,4.05-1.02,5.24,0,0-8.12,1.3-5.96,9.1,0,0,.54,2.92,6.28,3.14h3.57s9.2,1.3,11.8-4.11c0,0-1.73-34.11-1.84-36.71s.65-32.27-3.25-37.25"/><path class="j" d="M221.93,181.23s-2.62,8.36,6.35,9.36"/><path class="j" d="M215.08,182.05s-3.35,8.38,4.4,9.81"/><path class="j" d="M109.15,182.58s-6.04,4.44-.53,9.32"/><path class="j" d="M105.28,181.99s-6.38,4.07-1.2,9.88"/><path class="j" d="M77.91,182.58s-5.8,3.33-1.27,8.9"/><path class="j" d="M74.92,180.69s-4.4,1.89-3.99,5.88,2.1,4.91,2.1,4.91"/><path class="j" d="M170.81,180.33s-6.96,2.46-1.94,10.02"/><path class="j" d="M164.75,179.15s-4.33,1.67-4.25,6.19,1.34,5.45,1.34,5.45"/><path class="l" d="M158.21,139.16s7.3,8.79,13.25,10.75"/><path class="j" d="M60.19,130.68s1.3,8.37,19.17,16.06c0,0,14.18,4.86,19.37,4.75"/><path class="j" d="M118.94,152.19s16.76-.15,29.67-2.09c14.24-2.13,20.1-1.27,20.1-1.27"/><path class="a`" d="M263.08,148.43s9.62-10.57,23.04-3.75c0,0,11.84,7.61,17.71,8.67,0,0-6.03,8.96-21.6,7.01-15.57-1.96-21.6-7.79-19.15-11.92Z"/><path class="ae" d="M262.73,149.21s3.12,6.09,18.77,8.37c15.65,2.28,22.33-4.24,22.33-4.24,0,0-3.48,6.33-13.43,7.04-9.96,.71-20.76-1.71-24.73-5.35-3.97-3.64-3.29-5.04-2.94-5.82Z"/><path class="ae" d="M263.62,147.89s6.8,2.78,10.95,2.53c0,0-3.94,3.46-12.02-.79,0,0,.06-.87,1.06-1.74Z"/></g></svg>