<?xml version="1.0" encoding="UTF-8"?><svg xmlns="http://www.w3.org/2000/svg" viewBox="0 0 139.26 224.73"><defs><style>.b{fill:#fff;}.c{fill:#ffc36b;}.d{opacity:.5;}.e{fill:#ffd481;}.f{isolation:isolate;}.g{fill:#d77938;}.h,.i{fill:#ac6233;}.j{fill:#ffa44f;}.i{mix-blend-mode:color-dodge;}.i,.k{opacity:.3;}.l{fill:#c38222;}.m{fill:#985033;}.n{fill:#a96b13;}.k{fill:#fdac4b;mix-blend-mode:multiply;}</style></defs><g class="f"><g id="a"><g><path class="d" d="M60.76,221.72c-.53-.02-1.06-.04-1.6-.1-.11-.01-.23-.03-.34-.04-.55-.07-1.03-.22-1.52-.46l-4.28-2.07c-.28-.13-.55-.3-.8-.48-.2-.15-.4-.3-.61-.44-.24-.05-.46-.1-.69-.17-.28-.08-.55-.18-.81-.31l-1.54-.74c-.24-.12-.47-.25-.69-.4-.21-.14-.42-.3-.63-.46-.47-.08-.94-.22-1.37-.43l-13.96-6.74c-.64-.31-1.2-.75-1.65-1.28-.48-.21-1.05-.48-1.65-.88-.18-.12-.39-.28-.62-.46-.27,0-.54-.02-.8-.05-.14-.01-.33-.04-.52-.08-.5-.07-.89-.21-1.35-.43l-5.73-2.77c-.42-.2-.82-.47-1.17-.78-.24-.22-.48-.44-.72-.66l-.03-.03c-.38-.05-.75-.11-1.12-.18-.43-.08-.84-.22-1.23-.41l-3.68-1.78c-.58-.28-1.1-.67-1.53-1.15-.36-.4-.7-.83-1.04-1.27-.47-.61-.79-1.31-.94-2.06-.05-.23-.09-.44-.11-.65-.12-.97,.04-1.94,.47-2.82,8.43-17.19,20.21-31.24,31.87-38.13,.39-.59,.88-1.09,1.45-1.49,3.2-6.01,9.52-9.89,16.36-10.01,.09-.24,.19-.48,.31-.7,.19-.52,.46-1.01,.79-1.44,.1-.33,.23-.65,.4-.96,.27-.5,.6-.95,.99-1.33l.02-.05c.43-.89,1.05-1.63,1.8-2.19L122.1,11.44c1.02-2.12,3.16-3.44,5.56-3.44,.96,0,1.94,.22,2.81,.65l2.18,1.05c1.41,.68,2.52,1.84,3.12,3.27,.69,1.63,.65,3.46-.11,5.03l-59.6,123.43c.03,.93-.16,1.88-.58,2.75l-.14,.3c-.08,.67-.28,1.34-.61,1.96l-.04,.06c-.1,.24-.22,.47-.35,.69-.16,.45-.37,.87-.63,1.25-.04,.18-.09,.36-.15,.54,.03,.04,.05,.07,.08,.11,.05,.07,.11,.15,.16,.22,3.93,5.43,4.7,12.46,2.05,18.58,.06,.72-.03,1.46-.28,2.17,1.84,13.46-1.87,31.47-10.15,48.81-.83,1.74-2.59,2.85-4.51,2.85-.05,0-.1,0-.15,0Z"/><path class="b" d="M55.76,216.72c-.53-.02-1.06-.04-1.6-.1-.11-.01-.23-.03-.34-.04-.55-.07-1.03-.22-1.52-.46l-4.28-2.07c-.28-.13-.55-.3-.8-.48-.2-.15-.4-.3-.61-.44-.24-.05-.46-.1-.69-.17-.28-.08-.55-.18-.81-.31l-1.54-.74c-.24-.12-.47-.25-.69-.4-.21-.14-.42-.3-.63-.46-.47-.08-.94-.22-1.37-.43l-13.96-6.74c-.64-.31-1.2-.75-1.65-1.28-.48-.21-1.05-.48-1.65-.88-.18-.12-.39-.28-.62-.46-.27,0-.54-.02-.8-.05-.14-.01-.33-.04-.52-.08-.5-.07-.89-.21-1.35-.43l-5.73-2.77c-.42-.2-.82-.47-1.17-.78-.24-.22-.48-.44-.72-.66l-.03-.03c-.38-.05-.75-.11-1.12-.18-.43-.08-.84-.22-1.23-.41l-3.68-1.78c-.58-.28-1.1-.67-1.53-1.15-.36-.4-.7-.83-1.04-1.27-.47-.61-.79-1.31-.94-2.06-.05-.23-.09-.44-.11-.65-.12-.97,.04-1.94,.47-2.82,8.43-17.19,20.21-31.24,31.87-38.13,.39-.59,.88-1.09,1.45-1.49,3.2-6.01,9.52-9.89,16.36-10.01,.09-.24,.19-.48,.31-.7,.19-.52,.46-1.01,.79-1.44,.1-.33,.23-.65,.4-.96,.27-.5,.6-.95,.99-1.33l.02-.05c.43-.89,1.05-1.63,1.8-2.19L117.1,6.44c1.02-2.12,3.16-3.44,5.56-3.44,.96,0,1.94,.22,2.81,.65l2.18,1.05c1.41,.68,2.52,1.84,3.12,3.27,.69,1.63,.65,3.46-.11,5.03l-59.6,123.43c.03,.93-.16,1.88-.58,2.75l-.14,.3c-.08,.67-.28,1.34-.61,1.96l-.04,.06c-.1,.24-.22,.47-.35,.69-.16,.45-.37,.87-.63,1.25-.04,.18-.09,.36-.15,.54,.03,.04,.05,.07,.08,.11,.05,.07,.11,.15,.16,.22,3.93,5.43,4.7,12.46,2.05,18.58,.06,.72-.03,1.46-.28,2.17,1.84,13.46-1.87,31.47-10.15,48.81-.83,1.74-2.59,2.85-4.51,2.85-.05,0-.1,0-.15,0Z"/><g><path class="m" d="M62.64,142.37c-.28,.58-1.04,.79-1.7,.47l-2.18-1.05c-.66-.32-.97-1.04-.69-1.62L121.6,8.62c.28-.58,1.04-.79,1.7-.47l2.18,1.05c.66,.32,.96,1.04,.69,1.62L62.64,142.37Z"/><path class="h" d="M66.46,122.81l-8.45,17.49c-.24,.5,.1,1.16,.75,1.48l2.18,1.05c.66,.32,1.39,.17,1.63-.33l8.45-17.49-4.56-2.2Z"/><path class="i" d="M64.57,135.23c-.17,.35-.55,.52-.86,.37s-.41-.55-.25-.9L123.29,10.81c.17-.35,.56-.52,.86-.37s.41,.55,.24,.9l-59.82,123.88Z"/><path class="l" d="M62.25,144.74c-.24,.49-.85,.68-1.36,.43l-3.9-1.88c-.52-.25-.75-.85-.51-1.34l3.73-7.73c.24-.49,.85-.68,1.36-.43l3.9,1.88c.52,.25,.75,.85,.51,1.34l-3.73,7.73Z"/><path class="c" d="M49.3,208.91c.3,.21,.6,.43,.89,.65l4.28,2.07c.06,0,.12,.02,.18,.02,.42,.04,.84,.06,1.26,.08,8.76-18.34,11.86-36.58,9.24-48.75,.32-.49,.61-1,.87-1.53,3.34-6.91,.44-15.22-6.47-18.55-6.91-3.34-15.21-.44-18.55,6.47-.26,.54-.48,1.08-.66,1.63-11.12,5.5-23.43,19.19-32.34,37.35,.01,.09,.03,.19,.05,.28,.26,.34,.51,.66,.79,.97l3.68,1.78c.87,.17,1.77,.25,2.67,.27,.51,.01,.74,.52,.63,.89,.33,.31,.65,.61,.98,.9l5.73,2.77c.08,.01,.16,.03,.24,.04,.57,.06,1.16-.08,1.68,.14,.68,0,1.51,.87,2.01,1.21,.76,.52,2.24,.81,2.62,1.68,.02,.03,.02,.07,.03,.11l13.96,6.74c.73,0,1.43,.28,2.02,.79,.23,.19,.44,.36,.66,.51l1.54,.74c.5,.14,1.04,.22,1.69,.25,.24,.01,.36,.28,.31,.5Z"/><g><path class="j" d="M28.8,198.88c2.34-4.53,5.03-8.92,7.04-13.54,.05-.11-.11-.19-.17-.08-2.1,4.45-5,8.76-7.36,13.25,.18,.11,.34,.23,.48,.36Z"/><path class="j" d="M48.99,208.41c.14,0,.24,.11,.29,.23,1.43-3.14,2.26-6.56,3.03-9.94,.04-.18-.22-.22-.27-.05-.98,3.34-2.16,6.56-3.53,9.72,.16,.02,.31,.03,.48,.04Z"/><path class="j" d="M15.83,192.54c.07,.06,.13,.12,.2,.18,1.84-3.43,3.78-6.82,5.87-10.12,3.74-5.92,7.1-12.15,12.02-17.21,.13-.13-.08-.3-.21-.18-5.04,4.69-8.64,10.5-12.36,16.23-2.18,3.36-4.33,6.72-6.22,10.21,.02,0,.05,0,.07,0,.51,.01,.74,.52,.63,.89Z"/><path class="j" d="M43.82,206.23c.34,.09,.67,.25,.98,.46,1.68-3.7,3.21-7.46,4.66-11.24,2.65-6.93,4.12-14.08,5.84-21.27,.05-.21-.27-.27-.33-.06-2.03,7.35-3.92,14.64-6.68,21.77-1.36,3.51-2.91,6.92-4.46,10.34Z"/><path class="j" d="M24.45,196.39c.28,0,.58,.13,.87,.33,1.58-3.22,3.21-6.42,4.84-9.61,3.88-7.56,7.78-15.13,12.48-22.21,.07-.11-.08-.25-.16-.14-4.96,6.64-8.94,13.74-12.86,21.03-1.87,3.48-3.66,6.99-5.3,10.56,.04,.01,.08,.03,.12,.05Z"/></g><g><path class="j" d="M58.18,143.84c-.43,.9-1,1.83-1.19,2.82,0,.05,.05,.09,.09,.06,.71-.53,1.19-1.38,1.6-2.15,.29-.55,.59-1.11,.86-1.68-.26-.12-.51-.24-.77-.34-.2,.43-.39,.87-.59,1.29Z"/><path class="j" d="M44.64,148.23c2.92-3.4,6.5-5.97,10.65-6.6-.5-.07-1.01-.1-1.51-.11-3.6,1.01-6.67,3.38-9.21,6.66-.04,.05,.03,.11,.07,.06Z"/><path class="j" d="M50.24,147.58c1.14-1.58,2.46-2.97,4.1-4.04,1.12-.73,2.31-1.05,3.52-1.33-.56-.18-1.11-.33-1.68-.44-2.59,1.11-4.81,3.49-6.04,5.75-.03,.06,.06,.12,.1,.07Z"/><path class="j" d="M52.24,149.52c.88-1.41,1.77-2.81,2.8-4.12,1.04-1.33,2.25-2.15,3.63-2.9-.22-.09-.43-.17-.65-.24-2.79,1.35-4.5,4.6-5.94,7.18-.06,.11,.1,.18,.17,.08Z"/><path class="j" d="M60.23,150.78c-.01,.1,.14,.16,.17,.06,.62-1.83,1.12-3.69,1.2-5.63,0-.13,.01-.27,.02-.41,.28,.73,.5,1.51,.56,2.41,.2,2.73-.06,5.6-.7,8.25,0,.04,.05,.05,.06,.01,.8-2.58,1.71-6.63,1.17-9.99,.37,.54,.71,1.09,.99,1.7,.91,1.97,.71,4.46,.8,6.57,0,.02,.03,.02,.03,0,.3-2.25,.72-4.45,.09-6.66-1.1-1.47-2.5-2.74-4.18-3.71,.58,2.37,.02,5.05-.22,7.4Z"/></g><path class="k" d="M49.3,208.91c.3,.21,.6,.43,.89,.65l4.28,2.07c.06,0,.12,.02,.18,.02,.42,.04,.84,.06,1.26,.08,8.76-18.34,11.86-36.58,9.24-48.75,.32-.49,.61-1,.87-1.53,3.34-6.91,.44-15.22-6.47-18.55-6.91-3.34-15.21-.44-18.55,6.47-.26,.54-.48,1.08-.66,1.63-11.12,5.5-23.43,19.19-32.34,37.35,.01,.09,.03,.19,.05,.28,.26,.34,.51,.66,.79,.97l3.68,1.78c.87,.17,1.77,.25,2.67,.27,.51,.01,.74,.52,.63,.89,.33,.31,.65,.61,.98,.9l5.73,2.77c.08,.01,.16,.03,.24,.04,.57,.06,1.16-.08,1.68,.14,.68,0,1.51,.87,2.01,1.21,.76,.52,2.24,.81,2.62,1.68,.02,.03,.02,.07,.03,.11l13.96,6.74c.73,0,1.43,.28,2.02,.79,.23,.19,.44,.36,.66,.51l1.54,.74c.5,.14,1.04,.22,1.69,.25,.24,.01,.36,.28,.31,.5Zm-3.45-6.34c0-.63,.06-1.26,.15-1.88-.63,1.23-1.49,2.3-2.84,2.83-1.43,.56-2.77,.04-2.75-1.52,0-.25,.05-.46,.11-.62-.02,.02-.04,.04-.07,.07-.51,.5-1.08,.95-1.83,1.05-2.22,.29-4.46-.97-6.29-2.09-1.84-1.13-2.83-2.36-3.04-4.4-2.67,1.01-3.18-1.54-2.38-3.95,.45-1.36,.95-2.7,1.5-4.03-.19,.32-.39,.64-.58,.96-1,1.73-2.2,4.14-4.27,4.74-1.78,.52-1.7-1.49-1.21-3.52-.49,.65-1.03,1.21-1.62,1.56-1.05,.63-1.67-.12-1.61-1.25,.13-2.87,1.61-5.7,3.54-7.81-.73,.8-1.67,1.3-2.31,2.21-.51,.73-.96,1.52-1.5,2.23-.97,1.25-1.97,2.37-3.4,3.09-.3,.15-.65,.14-.85-.17-1.98-2.97,.78-7.4,2.34-9.93,2.39-3.88,5.17-7.52,8.19-10.92,4.8-5.4,9.21-10.19,14.93-14.54,2.64-2.01,4.67-4.89,7.36-6.92,2.75-2.08,6.1-5.64,12.4-2.33,7.19,3.78,4.8,12.94,4.04,16.92,3.33,10.59-3.26,35.38-6.93,43.6-.58,1.3-2.6,4.81-4.38,2.88-.53-.57-.69-1.43-.66-2.34-.53,.73-1.27,1.11-2.48,.51-1.9-.94-3.56-2.16-3.55-4.47Z"/><path class="e" d="M46.4,193.38c1.59-3.83,3.04-7.71,4.41-11.62,1.21-3.44,2.42-6.91,3.37-10.43,.86-3.17,2.4-7.11,1.69-10.42-.04-.17-.26-.17-.36-.07-2.31,2.37-3.17,6.48-4.28,9.52-1.32,3.59-2.51,7.21-3.86,10.79-1.34,3.58-2.79,7.11-4.32,10.61-.67,1.55-1.34,3.1-2.02,4.65-.61,1.39-1.31,2.52-1.06,4.06,.16,1,1.27,1.72,2.19,1.06,2.3-1.64,3.18-5.61,4.24-8.15Z"/><path class="e" d="M44.13,182.93c2.21-5.25,4.43-10.49,5.93-15.99,.05-.18-.21-.23-.29-.09-2.92,4.84-5.57,9.85-8.2,14.85-2.74,5.2-4.85,10.74-7.67,15.89-1.03,1.88,1.95,3.3,2.98,1.44,2.84-5.1,4.99-10.71,7.25-16.09Z"/><path class="e" d="M55.96,189.44c.79-2.66,1.56-5.34,2.09-8.06,1.01-5.21,1.62-10.48,1.68-15.78,0-.15-.21-.14-.24-.01-1.36,5.11-2.66,10.23-4.11,15.31-.68,2.38-1.27,4.77-1.94,7.15-.62,2.21-1.49,4.3-.95,6.6,.06,.27,.48,.41,.69,.23,1.66-1.44,2.18-3.39,2.78-5.44Z"/><path class="e" d="M59.44,190.04c1.36-5.67,3.49-11.64,2.52-17.53-.01-.06-.11-.08-.12,0-.69,6.21-2.52,12.15-4.18,18.14-.94,3.41-1.82,6.88-2.99,10.22-.75,2.14-2.07,4.14-1.27,6.43,.15,.42,.77,.47,.96,.06,2.51-5.42,3.69-11.54,5.08-17.32Z"/><path class="e" d="M49.74,159.5c-2.92,2.28-4.94,5.56-6.84,8.7-2.14,3.55-4.4,7.17-5.16,11.29-.08,.43,.48,.7,.77,.37,2.56-2.91,4.14-6.46,5.94-9.86,1.83-3.45,3.71-6.87,5.47-10.35,.05-.1-.08-.23-.18-.15Z"/><path class="e" d="M46.62,156.53c-2.74,1.37-4.65,4.1-6.62,6.38-2.47,2.85-4.67,5.91-6.82,9-2.03,2.93-3.99,5.92-5.9,8.93-1.79,2.82-4.3,5.96-4.61,9.36-.04,.39,.42,.85,.8,.53,2.25-1.91,3.42-4.78,4.94-7.26,1.97-3.23,4.12-6.32,6.18-9.49,3.79-5.86,7.73-11.89,12.21-17.24,.11-.13-.05-.27-.18-.2Z"/><path class="j" d="M49.02,149.26c.05-.06-.03-.14-.09-.08-1.37,1.31-2.29,2.91-3.08,4.62-1.21,.23-2.15,1.09-3.05,1.9-1.44,1.29-2.84,2.58-3.92,4.2-.07,.11,.07,.25,.16,.14,1.97-2.18,4.36-4.32,6.95-5.72,.11,.03,.23,0,.29-.14,.74-1.71,1.56-3.48,2.75-4.92Z"/><path class="j" d="M52.14,156.71s0-.06,0-.08c1.51-2.44,2.41-5.29,3.54-7.91,.04-.09-.09-.15-.14-.07-1.32,2.5-2.79,5.04-3.74,7.71-.1,0-.2,.05-.25,.16-1.6,3.43-2.75,7.07-4.14,10.59-.02,.06,.05,.09,.08,.04,1.92-3.2,3.68-6.83,4.64-10.44Z"/><path class="j" d="M55.06,156.01c.48-1.37,.97-2.74,1.46-4.11,.03-.07-.07-.12-.11-.05-.61,1.2-1.22,2.4-1.83,3.61-.31,.61-.96,1.39-.91,2.1,.01,.19,.2,.29,.37,.24,.7-.2,.82-1.17,1.03-1.78Z"/><path class="j" d="M64.15,155.28c0-.09-.13-.09-.15,0-.35,1.72-.75,3.41-1.33,5.07-.15,.43-.6,1.37,.18,1.37,.14,0,.31-.11,.36-.25,.68-1.93,1.16-4.14,.94-6.19Z"/><path class="j" d="M62.34,167.43c.03-1.87,.17-3.79-.14-5.65-.08-.5-.88-.44-.79,.06,.27,1.52,.18,3.02,.2,4.55,.02,1.63,.14,3.3-.25,4.9-.03,.1,.13,.15,.17,.06,.56-1.26,.79-2.54,.81-3.91Z"/><path class="j" d="M58.72,162.68c.12-.76,.41-1.82-.04-2.49-.07-.11-.26-.11-.32,.02-.26,.62-.25,1.44-.24,2.11,0,1.16-.09,2.34-.34,3.47-.02,.07,.09,.1,.12,.04,.43-1.02,.65-2.07,.83-3.16Z"/><path class="g" d="M65.31,163.66l-25.58-12.35c-.2-.09-.28-.33-.18-.52s.33-.28,.52-.18l25.58,12.35c.2,.09,.28,.33,.18,.52s-.33,.28-.52,.18Z"/><path class="n" d="M64.7,139.29s-5.41-2.89-5.41-2.89c-.23-.12-.31-.4-.19-.63,.12-.23,.43-.32,.63-.19l5.4,2.88c.23,.12,.31,.4,.19,.63-.12,.22-.39,.31-.61,.2Z"/><path class="n" d="M58.43,138.1c-.2-.1-.31-.33-.25-.55,.07-.25,.33-.39,.58-.32l6.03,1.69c.25,.07,.39,.33,.32,.58-.07,.25-.33,.39-.58,.32l-6.03-1.69s-.05-.02-.08-.03Z"/><path class="n" d="M58.13,138.78c-.21-.1-.32-.35-.24-.57,.08-.24,.35-.37,.59-.29l5.84,2.04c.25,.09,.37,.35,.29,.59-.09,.24-.35,.37-.59,.29l-5.84-2.04s-.03-.01-.05-.02Z"/><path class="n" d="M63.17,142.7s-5.58-2.8-5.58-2.8c-.23-.12-.32-.4-.21-.63s.39-.32,.63-.21l5.58,2.8c.23,.12,.32,.4,.21,.63-.11,.23-.39,.32-.62,.21Z"/><path class="n" d="M62.68,143.76l-.03-.02-5.56-3.19c-.22-.13-.3-.41-.17-.64,.13-.22,.41-.29,.64-.17l5.56,3.19c.22,.13,.3,.41,.17,.64-.12,.21-.39,.29-.61,.19Z"/></g></g></g></g></svg>