<?xml version="1.0" encoding="UTF-8"?><svg id="a" xmlns="http://www.w3.org/2000/svg" xmlns:xlink="http://www.w3.org/1999/xlink" viewBox="0 0 213.27 186.2"><defs><style>.i{fill:#2d251e;}.i,.j,.k,.l,.m,.n,.o,.p,.q,.r,.s,.t,.u,.v,.w,.x,.y,.a`,.aa,.ab,.ac,.ad,.ae,.af,.ag,.ah,.ai{fill-rule:evenodd;}.j{fill:#552d1d;}.k{fill:#302824;stroke:#351d13;}.k,.n,.w,.y,.aj,.a`,.af,.ai,.ak{stroke-miterlimit:10;}.l{fill:#f7efeb;}.m{fill:#ecdbd2;}.n{fill:url(#c);stroke:#5e5a58;}.n,.y,.a`,.af,.ai{stroke-width:.5px;}.o{fill:url(#g);}.p{fill:#fff;}.q{fill:#776a66;}.r{fill:#fdfdfb;}.s{fill:url(#h);}.t{opacity:.31;}.u{fill:url(#f);}.v{fill:#42251c;}.w{fill:url(#b);stroke:#301f18;}.x{fill:#3f251d;opacity:.47;}.y{fill:#b2694a;stroke:#7c4633;}.aj{fill:#3a1b07;}.aj,.ak{stroke:#1e0f03;stroke-width:2px;}.a`{fill:#302d2d;}.a`,.ai{stroke:#282423;}.aa{opacity:.5;}.ab{fill:#23110a;}.ac{fill:url(#e);}.ad{fill:#9b6a59;}.ae{fill:url(#d);}.af{fill:#ec916c;stroke:#ba694d;}.ag{fill:#bf9a8c;opacity:.42;}.ah{fill:#323232;}.ai{fill:#4c4b4b;}.al{fill:#4c250f;}.ak{fill:#2d1305;}</style><linearGradient id="b" x1="120.17" y1="71.44" x2="198.64" y2="71.44" gradientTransform="translate(10.07 46.44) rotate(4.69)" gradientUnits="userSpaceOnUse"><stop offset=".59" stop-color="#86491a"/><stop offset=".73" stop-color="#9b632f"/><stop offset=".9" stop-color="#b17f45"/><stop offset="1" stop-color="#ba8a4e"/></linearGradient><linearGradient id="c" x1="58.94" y1="54.18" x2="116.57" y2="-18.62" gradientTransform="translate(10.07 46.44) rotate(4.69)" gradientUnits="userSpaceOnUse"><stop offset=".07" stop-color="#ded7cc"/><stop offset=".11" stop-color="#d7c7b0"/><stop offset=".18" stop-color="#ceae85"/><stop offset=".24" stop-color="#c79d67"/><stop offset=".3" stop-color="#c39254"/><stop offset=".34" stop-color="#c28f4e"/><stop offset=".4" stop-color="#c28f4e"/></linearGradient><linearGradient id="d" x1="69.75" y1="38.46" x2="147.44" y2="38.46" xlink:href="#b"/><linearGradient id="e" x1="71.9" y1="34.97" x2="140.57" y2="34.97" xlink:href="#b"/><linearGradient id="f" x1="80.8" y1="30.2" x2="134.08" y2="30.2" xlink:href="#b"/><linearGradient id="g" x1="96.85" y1="27.02" x2="129.03" y2="27.02" xlink:href="#b"/><linearGradient id="h" x1="45.29" y1="4.6" x2="154.99" y2="48.91" gradientTransform="translate(10.07 46.44) rotate(4.69)" gradientUnits="userSpaceOnUse"><stop offset=".07" stop-color="#86491a"/><stop offset=".33" stop-color="#9b632f"/><stop offset=".66" stop-color="#b17f45"/><stop offset=".86" stop-color="#ba8a4e"/></linearGradient></defs><path class="aa" d="M134.22,183.2c-.41,0-.83-.05-1.24-.16-12.54-3.21-23.18-5.84-31.62-7.83-7.86-1.8-13.85-3.09-17.77-3.84-1.37-.25-2.82-.48-4.27-.7-6.57-.75-21.71-1.46-36.37-2.15-6.73-.32-13.5-.63-19.58-.96h-.21c-3.7-.15-7.04-.3-10.19-.47-1.43-.08-2.75-.76-3.64-1.88-.89-1.12-1.26-2.56-1.01-3.97,.73-4.21,1.41-8.71,2.12-14.19,.33-2.5,2.46-4.35,4.95-4.35,.11,0,.23,0,.34,.01,4.38,.29,8.83,.45,13.22,.45,11.66,0,23.43-1.05,34.96-3.13,1.84-.33,3.9-.55,6.24-.68,.26-.22,.56-.44,.89-.65,2.01-1.28,5.15-2.04,6.06-2.24,1.27-.28,2.34-.41,3.47-.41,.24,0,.5,0,.76,.02,.34-.17,.67-.34,.97-.5,.71-.37,1.29-.69,1.75-.97,.02-.07,.04-.14,.06-.22-4.42-1.72-9.37-4.79-15.75-9.74-7.61-5.9-17.94-15.07-24.55-21.79-6.44-6.55-10.18-11.53-12.9-17.17-2.03-4.22-3.39-8.54-4.26-13.55-.41-1.75-.88-3.73-1.27-6.99-.21-1.73-.4-3.83-.58-5.87-.15-1.61-.29-3.2-.44-4.55-.3-2.74-.6-4.35-1.16-6.15-.47-1.52-1.13-3.26-1.72-4.79l-.44-1.16c-.45-1.18-.81-2.2-1.12-3.12-1.69-.63-3.15-1.35-4.22-1.9-1.49-.76-2.88-1.55-3.79-2.15-1.48-.38-2.4-1.24-2.94-1.99-.97-1.33-1.23-3.07-.72-4.65,.59-1.79,2-3.02,4.24-4.54,1.54-1.04,3.95-2.53,6.75-3.74,.99-2.65,3.47-5.89,9.43-8.25,1.74-.75,3.73-1.45,5.92-2.09,1.34-.39,2.82-.77,4.29-1.09,1.08-.26,1.99-.45,2.77-.55,.85-.23,2.37-.54,4.42-.54,1.04,0,2.1,.08,3.16,.24,1.87,.23,3.66,.72,5.48,1.51,.12,.05,.26,.12,.39,.18,2.67,1.13,5.35,2.82,7.89,4.99,.41,.32,.82,.65,1.23,.99,2.08,1.73,4,3.57,5.71,5.46l.05,.06c.88,.98,1.68,1.94,2.36,2.85,.18,.24,.36,.49,.54,.74,.99,1.17,1.93,2.72,2.87,4.73,.51,1,.98,2.03,1.39,3.05,.97,2.4,1.5,4.4,1.96,6.18,.07,.19,.23,.6,.25,.65,.29,.26,.8,.63,1.88,1.29,.89,.55,2.05,1.22,3.38,1.99,2.17,1.26,4.87,2.83,7.59,4.54,5.05,3.18,9.67,6.54,15.43,11.25,5.7,4.66,12.23,10.39,16.18,14.01,.03,.03,.11,.1,.12,.11,.81,.74,1.55,1.43,2.18,2.03,2.07,1.97,3.59,3.47,4.38,5,3.68,3.33,7.81,7.61,10.47,10.6,2.85,3.2,3.84,4.75,4.3,6.06,.08,.2,.16,.4,.22,.6,2.42,1.8,3.93,3.08,4.54,4.66,.72,.47,1.37,.91,1.99,1.33,1.28,.87,2.97,2.02,3.83,3.64,1.05,.51,1.97,1.01,2.76,1.52,1.54,.98,3.66,2.59,4.13,5.22,.15,.8,.12,1.61-.07,2.39,2.64,1.83,5.23,3.6,7.88,5.4l.19,.13c9.99,6.81,22.42,15.28,29.23,21,7.01,5.88,10.28,11.49,10.27,17.63,.12,1.76-.02,3.43-.14,4.9-.15,1.83-1.29,3.42-2.96,4.17-.65,.29-1.34,.43-2.02,.43-1.09,0-2.16-.35-3.05-1.04-.88-.68-1.95-1.63-3.42-2.96-2.07-1.85-4.9-4.39-8.39-7.17-2.09-1.62-4.39-3.32-6.98-5.17l-.7-.5c-3.31-2.25-8.06-5.59-13.62-9.51-2.52-.3-5.3-.62-9.96-1.06l-1.06-.1c-5.32-.49-12.6-1.16-18.55-2.77-3.28-.89-6.07-2.03-8.52-3.04-2.25-.93-4.19-1.72-6.08-2.16-1.5-.35-3.17-.52-5.12-.52-2.53,0-5.28,.29-7.65,.57-2.34,.27-4.69,.57-6.93,.86l-.03,.12c-.28,1.06-.61,2.02-.99,2.88,.28,.2,.54,.43,.79,.67,.43,.1,.88,.24,1.34,.42,1.86,.72,3.56,2.05,4.77,3.69,.84,.19,1.75,.39,2.71,.6,9.4,1.54,20.05,3.55,31.65,5.96,1.8,.38,3.26,1.71,3.78,3.48,.52,1.77,.03,3.68-1.28,4.97-.23,.23-.47,.5-.77,.85-.19,.23-.38,.48-.56,.74l-.18,.26c-.25,.38-.43,.69-.59,.99-.35,.69-.68,1.38-1.01,2.07l-.31,.68c-.22,.48-.43,.95-.64,1.43l-.33,.78c-.19,.46-.38,.93-.56,1.4l-.29,.75c-.84,2.21-1.61,4.56-2.29,6.97-.36,1.27-.7,2.6-1.05,4.07l-.14,.58c-.3,1.31-1.12,2.45-2.27,3.15-.79,.48-1.69,.73-2.6,.73Z"/><path class="p" d="M129.22,178.2c-.41,0-.83-.05-1.24-.16-12.54-3.21-23.18-5.84-31.62-7.83-7.86-1.8-13.85-3.09-17.77-3.84-1.37-.25-2.82-.48-4.27-.7-6.57-.75-21.71-1.46-36.37-2.15-6.73-.32-13.5-.63-19.58-.96h-.21c-3.7-.15-7.04-.3-10.19-.47-1.43-.08-2.75-.76-3.64-1.88-.89-1.12-1.26-2.56-1.01-3.97,.73-4.21,1.41-8.71,2.12-14.19,.33-2.5,2.46-4.35,4.95-4.35,.11,0,.23,0,.34,.01,4.38,.29,8.83,.45,13.22,.45,11.66,0,23.43-1.05,34.96-3.13,1.84-.33,3.9-.55,6.24-.68,.26-.22,.56-.44,.89-.65,2.01-1.28,5.15-2.04,6.06-2.24,1.27-.28,2.34-.41,3.47-.41,.24,0,.5,0,.76,.02,.34-.17,.67-.34,.97-.5,.71-.37,1.29-.69,1.75-.97,.02-.07,.04-.14,.06-.22-4.42-1.72-9.37-4.79-15.75-9.74-7.61-5.9-17.94-15.07-24.55-21.79-6.44-6.55-10.18-11.53-12.9-17.17-2.03-4.22-3.39-8.54-4.26-13.55-.41-1.75-.88-3.73-1.27-6.99-.21-1.73-.4-3.83-.58-5.87-.15-1.61-.29-3.2-.44-4.55-.3-2.74-.6-4.35-1.16-6.15-.47-1.52-1.13-3.26-1.72-4.79l-.44-1.16c-.45-1.18-.81-2.2-1.12-3.12-1.69-.63-3.15-1.35-4.22-1.9-1.49-.76-2.88-1.55-3.79-2.15-1.48-.38-2.4-1.24-2.94-1.99-.97-1.33-1.23-3.07-.72-4.65,.59-1.79,2-3.02,4.24-4.54,1.54-1.04,3.95-2.53,6.75-3.74,.99-2.65,3.47-5.89,9.43-8.25,1.74-.75,3.73-1.45,5.92-2.09,1.34-.39,2.82-.77,4.29-1.09,1.08-.26,1.99-.45,2.77-.55,.85-.23,2.37-.54,4.42-.54,1.04,0,2.1,.08,3.16,.24,1.87,.23,3.66,.72,5.48,1.51,.12,.05,.26,.12,.39,.18,2.67,1.13,5.35,2.82,7.89,4.99,.41,.32,.82,.65,1.23,.99,2.08,1.73,4,3.57,5.71,5.46l.05,.06c.88,.98,1.68,1.94,2.36,2.85,.18,.24,.36,.49,.54,.74,.99,1.17,1.93,2.72,2.87,4.73,.51,1,.98,2.03,1.39,3.05,.97,2.4,1.5,4.4,1.96,6.18,.07,.19,.23,.6,.25,.65,.29,.26,.8,.63,1.88,1.29,.89,.55,2.05,1.22,3.38,1.99,2.17,1.26,4.87,2.83,7.59,4.54,5.05,3.18,9.67,6.54,15.43,11.25,5.7,4.66,12.23,10.39,16.18,14.01,.03,.03,.11,.1,.12,.11,.81,.74,1.55,1.43,2.18,2.03,2.07,1.97,3.59,3.47,4.38,5,3.68,3.33,7.81,7.61,10.47,10.6,2.85,3.2,3.84,4.75,4.3,6.06,.08,.2,.16,.4,.22,.6,2.42,1.8,3.93,3.08,4.54,4.66,.72,.47,1.37,.91,1.99,1.33,1.28,.87,2.97,2.02,3.83,3.64,1.05,.51,1.97,1.01,2.76,1.52,1.54,.98,3.66,2.59,4.13,5.22,.15,.8,.12,1.61-.07,2.39,2.64,1.83,5.23,3.6,7.88,5.4l.19,.13c9.99,6.81,22.42,15.28,29.23,21,7.01,5.88,10.28,11.49,10.27,17.63,.12,1.76-.02,3.43-.14,4.9-.15,1.83-1.29,3.42-2.96,4.17-.65,.29-1.34,.43-2.02,.43-1.09,0-2.16-.35-3.05-1.04-.88-.68-1.95-1.63-3.42-2.96-2.07-1.85-4.9-4.39-8.39-7.17-2.09-1.62-4.39-3.32-6.98-5.17l-.7-.5c-3.31-2.25-8.06-5.59-13.62-9.51-2.52-.3-5.3-.62-9.96-1.06l-1.06-.1c-5.32-.49-12.6-1.16-18.55-2.77-3.28-.89-6.07-2.03-8.52-3.04-2.25-.93-4.19-1.72-6.08-2.16-1.5-.35-3.17-.52-5.12-.52-2.53,0-5.28,.29-7.65,.57-2.34,.27-4.69,.57-6.93,.86l-.03,.12c-.28,1.06-.61,2.02-.99,2.88,.28,.2,.54,.43,.79,.67,.43,.1,.88,.24,1.34,.42,1.86,.72,3.56,2.05,4.77,3.69,.84,.19,1.75,.39,2.71,.6,9.4,1.54,20.05,3.55,31.65,5.96,1.8,.38,3.26,1.71,3.78,3.48,.52,1.77,.03,3.68-1.28,4.97-.23,.23-.47,.5-.77,.85-.19,.23-.38,.48-.56,.74l-.18,.26c-.25,.38-.43,.69-.59,.99-.35,.69-.68,1.38-1.01,2.07l-.31,.68c-.22,.48-.43,.95-.64,1.43l-.33,.78c-.19,.46-.38,.93-.56,1.4l-.29,.75c-.84,2.21-1.61,4.56-2.29,6.97-.36,1.27-.7,2.6-1.05,4.07l-.14,.58c-.3,1.31-1.12,2.45-2.27,3.15-.79,.48-1.69,.73-2.6,.73Z"/><g><g><path class="aj" d="M136.26,153.32c.81-1.59,1.84-2.96,3.03-4.14-34.49-7.16-65.39-11.78-79.49-9.24-18.52,3.34-35.24,3.71-49.4,2.76-.63,4.82-1.32,9.62-2.15,14.4,28.52,1.53,51.85,.57,73.08,4.68,9.85,1.91,27.6,6.23,47.91,11.42,1.58-6.82,3.77-13.48,7.03-19.88Z"/><path class="al" d="M132.75,161.32c1.01-2.7,2.17-5.37,3.51-8,.58-1.14,1.28-2.17,2.06-3.09-20.13-4.66-37.28-8.54-40.58-9.11-8.21-1.42-31.24-2.73-37.66-.76-6.42,1.97-27.13,3-27.13,3-9.63,.14-16.63-.09-22.57-.55-.25,1.88-.5,3.77-.77,5.65,25.73,3.7,41.16-2.34,68.1-3.51,29.73-1.3,48.84,8.14,48.84,8.14,0,0-.16,4.61,6.21,8.23Z"/><path class="ak" d="M130.49,168.25c-23.15-5.58-44.41-10.39-50.74-11.53-13.9-2.49-31.99-1.22-70.94-3.1-.18,1.13-.37,2.26-.57,3.39,3.65,.2,7.14,.38,10.39,.56,19.98,1.07,47.36,2.06,56.7,3.19,7.28,.88,39.93,8.71,53.95,12.11,.36-1.55,.76-3.09,1.19-4.62Z"/></g><g><path class="w" d="M125.79,105.58c18.11,12.05,44.18,30.91,54.56,37.95,10.38,7.05,17.1,13.94,19.75,15.98-.76-3.06,3.42-8.41-8.36-18.3-6.65-5.59-18.97-13.98-29.02-20.82-10.04-6.85-17.74-12.24-25.43-17.64,.09,2.66-11.59,.17-11.5,2.83Z"/><path class="v" d="M80.47,146.25c.78,.02,2.6-.12,4.19,.41,1.59,.53,2.95,1.73,3.55,2.94,.59,1.2,.41,2.41,.23,3.62-.87-1.43-1.73-2.85-3.34-3.52-1.61-.66-3.95-.56-6.3-.46,.46-1.13,.93-2.26,1.03-2.73,.11-.47-.15-.28,.63-.25Z"/><path class="v" d="M95.84,138.28c1.2,0,2.39-.02,3.51,.42,1.12,.44,2.16,1.32,2.81,2.36,.65,1.04,.89,2.25,1.14,3.45-.59-1.03-1.19-2.06-2.4-2.68-1.21-.62-3.04-.82-4.32-.91-1.28-.09-2.01-.07-2.05-.49-.03-.42,.64-1.28,1.31-2.15Z"/><path class="v" d="M47.09,144.6c-1.46-.53-2.92-1.06-4.27-.48-1.36,.58-2.61,2.27-3.22,3.47-.61,1.2-.57,1.91-.54,2.61,.86-.91,1.72-1.83,2.85-2.29,1.13-.47,2.54-.48,3.95-.5,.41-.94,.82-1.87,1.23-2.81Z"/><path class="v" d="M68.49,141.26c-1.61,.64-3.21,1.28-5.22,1.3-2.01,.02-4.42-.58-6.25-.88-1.83-.3-3.08-.31-3.99,.08-.92,.39-1.5,1.18-1.76,1.98-.26,.8-.19,1.6-.12,2.4,2.96-.08,5.91-.15,8.87-.23,1.93-.68,3.86-1.36,5.79-2.04,.9-.87,1.79-1.74,2.69-2.61Z"/><path class="y" d="M87.68,123.85c-.69,1.13-.52,12.11-.29,12.68,.23,.57-1.2,.56,.36,.43,1.56-.12,3.53-.39,5-.5,1.47-.11,2.44-.07,3.21,.43,.77,.5,1.34,1.47,1.26,2.51s-.83,2.18-1.76,2.65c-.93,.46-2.04,.25-3.07-.22-1.02-.47-1.96-1.2-3.52-1.41-1.56-.21-3.73,.09-5.9-.13-2.16-.22-4.31-.95-6.45-1.69-1.97,.41-3.95,.82-5.92,1.23-.92-.02-1.83-.04-2.32-.36-.49-.32-.54-.93,.44-1.56,.98-.62,3-1.26,4.46-1.58,1.46-.33,2.37-.34,3.76-.22,1.39,.13,3.27,.4,5.15,.67,.7-.93,3.1-11.68,3.8-12.61,.59-.11,1.19-.22,1.78-.33Z"/><path class="af" d="M96.25,123.08c-.3,2.02-.6,4.04-1.04,5.72-.44,1.68-1.03,3.01-1.81,3.9-.78,.89-1.74,1.35-3.2,1.76-1.46,.41-3.4,.78-6.25,1.99-2.85,1.2-6.6,3.23-9.01,4.74-2.41,1.5-3.47,2.48-3.81,3.08-.34,.6,.04,.81,1.62,.8,1.58-.02,4.37-.27,6.14-.21,1.78,.05,2.54,.41,2.86,1.39,.32,.98,.19,2.59-1.07,3.33-1.26,.73-3.64,.59-6.33,.04-2.69-.55-5.7-1.52-7.99-2.04-2.3-.52-3.88-.6-5.51-.43-1.62,.17-5.95-.54-7.3-.81-1.35-.27-4.43,.42-5.54,.66-1.11,.24-2.04,.94-2.75,1.1-.7,.17-1.18-.19-1.11-1.09,.07-.9,.7-2.33,2.29-3.08,1.59-.75,4.15-.8,6.66-.73,2.52,.07,5,.28,6.91,.12,1.91-.16,3.26-.69,6.8-2.27,3.55-1.58,9.29-4.22,12.79-6.05,3.5-1.83,4.75-2.84,5.12-4.48,.37-1.64-.13-3.92-.63-6.19,4.05-.41,8.09-.82,12.14-1.24Z"/><path class="t" d="M124.39,104.86c15.89,10.39,46.64,32.01,56.78,39.25,10.14,7.24,14.54,11.32,18.94,15.4,.18-2.22,.36-4.44-.26-6.51-.63-2.07-2.06-4-12.66-11.27-10.59-7.27-35.82-24.62-55.57-37.24,.72,2.29-7.95-1.92-7.23,.37Z"/><path class="n" d="M18.63,20.03c.45-1.64,1.17-3.23,2.39-4.56,1.23-1.33,2.96-2.41,6.15-3.64,3.18-1.23,7.81-2.6,11.68-3.08,3.87-.48,6.97-.07,10.77,2.16,3.8,2.23,8.31,6.26,11.39,9.6,3.08,3.34,4.72,5.97,5.94,8.65,1.22,2.68,2,5.4,2.71,7.19,.7,1.79,1.33,2.63,5.08,5.15,3.75,2.51,10.64,6.69,18.13,11.91,7.49,5.21,15.59,11.46,24.2,20.22,8.61,8.76,17.73,20.03,21.73,27.67,4,7.64-12.12,.07-13.23,4.08,8.29,5.46,31.57,22.5,39.86,27.96-2.87-.35-5.73-.69-10.97-1.17-5.23-.48-12.84-1.11-18.77-2.71-5.93-1.6-10.18-4.18-14.77-5.25-4.59-1.07-9.52-.62-14.48-.05-4.96,.58-9.97,1.28-13.83,1.71-3.86,.43-6.59,.58-10.31-.63-3.73-1.21-8.46-3.78-15.86-9.51-7.4-5.74-17.46-14.64-24.06-21.35-6.6-6.71-9.74-11.22-11.96-15.84-2.23-4.62-3.54-9.35-4.26-15.07-.73-5.72-.87-12.43-1.62-17.14-.76-4.71-2.13-7.43-3.35-10.64-1.23-3.21-2.3-6.91-2.75-9.61-.44-2.69-.25-4.38,.2-6.02Z"/><path class="i" d="M54.12,31.66c.56,1.63,.83,3.84,.66,5.89-.17,2.05-.79,3.92-1.9,5.28-1.1,1.36-2.69,2.2-4.33,2.53-1.64,.33-3.34,.15-4.65-.3-1.31-.45-2.24-1.18-3.14-2.18-.91-1-1.8-2.29-2.69-3.57,2.41-.89,4.82-1.78,6.81-3.21,1.99-1.42,3.56-3.38,4.65-4.83,1.09-1.45,1.7-2.38,2.43-2.33,.73,.05,1.59,1.09,2.16,2.72Z"/><path class="j" d="M43.84,26.18c1.62-.52,3.37-.83,5.45-.58,2.08,.25,4.48,1.06,6.09,2.69,1.61,1.63,2.42,4.09,2.69,6.08,.28,1.99,.02,3.51-.28,4.67-.29,1.16-.63,1.96-.43,2.36,.19,.4,.91,.41,2.23,.05,1.32-.36,3.24-1.08,4.96-2.14,1.72-1.06,3.24-2.46,4.77-3.86-.46-1.8-.93-3.59-1.82-5.79-.89-2.19-2.2-4.79-4.16-7.39-1.96-2.61-4.56-5.22-7.32-7.52-2.76-2.3-5.68-4.28-8.29-5.41-2.61-1.13-4.91-1.41-7.74-1.17-2.83,.24-6.19,1-8.99,1.81-2.8,.81-5.03,1.68-6.75,2.53-1.71,.85-2.9,1.68-3.77,2.59-.87,.91-1.43,1.9-1.68,2.86-.24,.96-.17,1.88-.1,2.8,.55,3.87,1.09,7.74,2.25,11.08,1.15,3.34,2.92,6.14,4.13,7.05,1.21,.91,1.88-.07,2.62-1.83,.74-1.75,1.54-4.28,3.48-5.89,1.94-1.62,5.01-2.32,7.29-3.04,2.28-.72,3.76-1.45,5.38-1.96Z"/><path class="t" d="M68.44,86.5c21.15,8.78,42.29,17.56,54.64,24.14,12.35,6.58,15.92,10.96,19.48,15.34,2.32-.32,11.89-.15,12.19-.93,.3-.78-18.23-11.22-19.95-12.47,6.51,3.68,22.61,15.61,29.11,19.29-6.02-7.5-10.11-14.27-16.13-21.77-10.22-5.39-22.41-11.05-35.31-14.94-12.9-3.89-28.47-6.27-44.04-8.65Z"/><path class="ae" d="M77,86.66c7.14,3.38,14.28,6.75,22.2,9.93,7.93,3.18,16.64,6.15,25.41,8.52,8.78,2.37,17.61,4.13,22.34,4.89,4.72,.76,5.33,.52,5.68,.04,.36-.48,.47-1.18-1.71-2.57-2.18-1.39-6.65-3.45-16.51-6.16-9.86-2.71-25.12-6.07-35.49-10.28-10.37-4.22-15.85-9.29-21.34-14.36-.19,3.33-.39,6.67-.58,10Z"/><path class="ac" d="M79.4,80.64c7.41,4.59,14.82,9.19,26.51,13.42,11.69,4.23,27.67,8.09,35,9.54,7.34,1.45,6.03,.49,3.28-1.38-2.76-1.87-6.97-4.66-16.54-9.14-9.57-4.48-24.51-10.65-39.44-16.82-2.94,1.46-5.87,2.92-8.81,4.38Z"/><path class="u" d="M88.63,77.01c9.26,4.67,18.53,9.33,26.49,12.99,7.97,3.66,14.63,6.3,18.76,7.65,4.13,1.35,5.72,1.4,6.26,1.16,.54-.24,.02-.76-4.14-3.8-4.17-3.04-11.98-8.6-18.11-12.73-6.13-4.13-10.58-6.83-15.03-9.54-4.74,1.42-9.48,2.84-14.22,4.25Z"/><path class="o" d="M104.9,75c8.36,5.23,16.71,10.46,21.72,13.67,5,3.21,6.65,4.39,7.66,4.97,1.01,.57,1.37,.54,1.37,.04,0-.5-.38-1.46-3.44-4.9-3.06-3.44-8.81-9.37-12.94-12.66-4.13-3.29-6.64-3.94-9.15-4.59-1.74,1.16-3.49,2.32-5.23,3.48Z"/><g><path class="ab" d="M87.26,91.27l1.31-.73s37.08,17.29,59.01,17.96l4.31-.07s2,1.35-.15,1.87c0,0-5.24,.12-25.63-5,0,0-19.91-4.74-38.84-14.03Z"/><path class="ab" d="M85.39,79.72s12.61,14.52,55.92,22.45l3.23,.44s1.76,1.21,1.74,1.41c0,0,.74,.84-8.97-1.27,0,0-26.5-5.09-48.68-16.59l-6.35-5.61,3.12-.82Z"/><path class="ab" d="M139.5,97.97s-22.45-5.77-34.6-15.03l.09,2.05s20.97,10.24,27.9,12.32c0,0,9.74,2.72,6.62,.65Z"/><path class="ab" d="M134.87,93.93l-24.9-15.88,1.88-1.43,23.75,16.74s.61,1.12-.73,.58Z"/></g><path class="k" d="M21.96,19.76c.97-.73,1.58-2.1,3.47-2.54,1.89-.44,5.06,.05,7.53,.07,2.48,.02,4.82,.66,6.56,1.4,1.74,.74,2.88,1.57,3.85,2.61,.97,1.03,1.77,2.27,1.93,3.47,.15,1.2-.34,2.35-1.33,3.55-.99,1.19-2.47,2.43-4.34,3.02-1.87,.59-4.12,.54-5.69,1.03-1.57,.5-2.45,1.54-2.84,3.2-.39,1.66-.28,3.92,.4,6,.68,2.08,1.93,3.96,2.42,6.47,.49,2.51,.2,5.65-.49,8.36-.69,2.71-1.78,4.98-3,6.52-1.22,1.54-2.57,2.33-3.91,3.13-.41-1.74-.82-3.47-1.18-6.48-.36-3.01-.67-7.29-1.01-10.37-.34-3.08-.7-4.97-1.35-7.07-.65-2.1-1.57-4.41-2.27-6.25-.7-1.84-1.17-3.23-1.54-4.51-.37-1.29-.63-2.48-.57-3.87,.06-1.4,.45-3,1.03-4.39,.58-1.39,1.35-2.58,2.32-3.31Z"/><path class="a`" d="M9.35,26.06c.59,.42,2,1.24,3.65,2.09,1.65,.85,3.55,1.72,5.59,2.29,2.04,.57,4.22,.82,6.04,.76,1.81-.06,3.25-.45,4.12-.99,.87-.54,1.16-1.23,1.46-1.93-2.2-1.08-4.39-2.17-6.76-2.8-2.37-.63-4.9-.81-7.3-.72-2.4,.1-4.66,.47-6.92,.85-.23,0-.47,.02,.12,.44Z"/><path class="s" d="M70.2,37.51c-.43,1.33-.86,2.66-2.7,4.07-1.83,1.41-5.06,2.9-7.9,5.1-2.84,2.2-5.28,5.11-6.28,8.19-1,3.08-.55,6.33,.73,8.33,1.27,1.99,3.36,2.72,3.5,2.88,.13,.16-1.69-.26-3.52-.67-.54,.41-1.08,.82-1.04,1.44,.04,.63,.66,1.48,1.66,2.16,.99,.68,2.36,1.19,3.73,1.7-.98-.08-1.95-.16-2.26,.04-.31,.2,.05,.68,.69,1.01,.64,.33,1.55,.51,2.47,.69-1.09,.28-2.17,.57-2.7,1.36-.53,.79-.5,2.1,.23,3.19,.73,1.1,2.18,1.99,3.53,2.48,1.35,.5,2.62,.6,3.89,.7-.86,.14-1.72,.28-1.77,.55-.05,.26,.72,.64,1.51,.87,.79,.22,1.61,.29,2.43,.36-.65,1.17-1.31,2.34,.41,3.59,1.72,1.26,5.81,2.6,9.13,3.71,3.32,1.11,5.88,1.98,7.95,2.18,2.07,.2,3.65-.29,4.55-1,.9-.71,1.11-1.65,.66-3.08-.44-1.43-1.53-3.35-2.33-4.68-.79-1.33-1.29-2.06-1.79-2.79,3.21,2.28,6.43,4.57,9.66,6.02,3.23,1.45,6.48,2.06,8.55,2.1,2.07,.04,2.96-.5,3.17-1.12,.21-.62-.26-1.32-.74-2.03,1.05,.54,2.09,1.08,2.94,.93,.85-.14,1.5-.97,1.48-1.86-.02-.89-.71-1.85-1.4-2.81,1.41,.99,2.81,1.98,4.11,2.12,1.29,.13,2.47-.6,2.49-1.39,.03-.8-1.1-1.66-2.22-2.52,1.55,.85,3.1,1.69,4.13,1.71,1.02,.02,1.51-.79,1.39-1.67-.13-.87-.87-1.81-1.62-2.75,1.49,.51,2.98,1.01,3.79,1.04,.81,.03,.94-.43-3.02-4.19-3.95-3.76-11.98-10.82-18.2-15.9-6.21-5.08-10.61-8.18-14.93-10.89-4.32-2.71-8.55-5.04-10.93-6.51-2.38-1.46-2.89-2.06-3.41-2.65Z"/><g><path class="q" d="M30.8,21.25c-1.1,2.17-.15,4.88,2.14,6.06,2.28,1.17,5.03,.36,6.13-1.81,1.1-2.17,.15-4.88-2.14-6.06-2.28-1.17-5.03-.36-6.13,1.81Z"/><path class="ah" d="M31.79,21.76c-.86,1.7-.12,3.82,1.67,4.74,1.79,.92,3.94,.28,4.8-1.42,.86-1.7,.12-3.82-1.67-4.74-1.79-.92-3.94-.28-4.8,1.42Z"/><path class="r" d="M31.81,21.02c-.44,.86-.14,1.9,.66,2.31,.8,.41,1.81,.05,2.25-.82,.44-.86,.14-1.9-.66-2.31-.8-.41-1.81-.05-2.25,.82Z"/></g><path class="ai" d="M23.98,17.57c-2.64,.74-5.28,1.48-7.67,2.51-2.4,1.03-4.55,2.34-6,3.32-1.45,.98-2.19,1.64-2.3,1.96-.11,.32,.43,.31,1.21,.26,.79-.06,1.83-.16,3.9-.08,2.07,.08,5.16,.33,8.17,.82,3.02,.49,5.96,1.21,8.9,1.93-.35-.88-.71-1.76-2.08-2.95-1.38-1.19-3.78-2.69-4.64-4.03-.86-1.35-.18-2.54,.51-3.73Z"/><path class="m" d="M61.86,71.7c1.37,1.03,3.36,2.41,6.51,3.96,3.16,1.56,7.49,3.29,10.35,4.19,2.86,.89,4.26,.94,4.39,.08,.13-.86-1-2.63-.6-2.51,.4,.12,2.34,2.13,4.8,4.23,2.46,2.1,5.45,4.3,8.33,5.49,2.89,1.19,5.67,1.37,7.51,1.15,1.84-.22,2.74-.84,2.76-1.48,.02-.65-.85-1.32-2.88-2.53-2.03-1.21-5.23-2.95-8.43-4.7,2.02,2.25,4.04,4.49,6.06,6.74-1.06-.6-2.13-1.2-3.45-1.96-1.33-.75-2.92-1.66-3.65-1.92-.73-.26-.6,.13-.46,.47,.14,.35,.3,.65-1.18-.46-1.48-1.12-4.58-3.65-7.8-5.83-3.22-2.18-6.54-3.99-9.86-5.81,.74,1.48,1.48,2.96,2.25,4.22,.76,1.26,1.55,2.29,1.1,1.99-.45-.3-2.12-1.94-4.34-3.62-2.22-1.68-4.98-3.39-7.74-5.1,.3,.83,.59,1.65,.93,2.55,.34,.89,.72,1.86,.68,1.91-.04,.05-.5-.8-1.05-1.29-.54-.5-1.17-.63-1.48-.47-.3,.17-.29,.63-.58,.26-.29-.37-.89-1.59-1.78-2.06-.89-.47-2.07-.2-3.26,.07,.74,.69,1.48,1.39,2.85,2.42Z"/><path class="ab" d="M63.77,46.45c1.62,.13,4.23,.64,6.92,1.64,2.69,1,5.46,2.48,6.55,4.23,1.09,1.75,.5,3.76-.71,4.38-1.21,.61-3.04-.17-4.8-1.66-1.76-1.48-3.45-3.66-5.24-5.15-1.79-1.49-3.68-2.28-5.57-3.07,.62-.25,1.23-.49,2.85-.36Z"/><path class="ab" d="M79.57,55.75c1.31,.18,3.79,.85,6.41,2.27,2.62,1.42,5.37,3.58,6.52,5.61,1.15,2.03,.7,3.93-.37,4.42-1.07,.5-2.76-.41-4.87-2.5-2.1-2.1-4.62-5.39-6.24-7.15-1.62-1.76-2.35-1.99-3.07-2.22,.15-.31,.31-.61,1.62-.43Z"/><path class="ab" d="M92.65,69c2.91,.8,5.82,1.6,8.18,2.83,2.36,1.23,4.16,2.89,4.51,4.27,.35,1.38-.74,2.47-1.67,2.21-.93-.26-1.69-1.88-2.98-3.45-1.28-1.57-3.09-3.11-4.51-4.08-1.43-.97-2.48-1.37-3.53-1.78Z"/><path class="ab" d="M76.38,46.46c1.35,.11,3.54,.54,5.79,1.37,2.25,.83,4.57,2.07,5.48,3.53,.91,1.46,.42,3.15-.59,3.66-1.01,.51-2.54-.15-4.01-1.39-1.47-1.24-2.89-3.06-4.38-4.31-1.5-1.24-3.08-1.91-4.66-2.57,.51-.21,1.03-.41,2.38-.3Z"/><path class="ab" d="M89.95,55.2c1.31,.18,3.79,.85,6.4,2.27,2.62,1.42,5.37,3.58,6.52,5.61,1.15,2.03,.7,3.93-.37,4.42-1.07,.5-2.76-.41-4.87-2.5-2.1-2.1-4.62-5.39-6.24-7.15-1.62-1.76-2.35-1.99-3.07-2.22,.15-.31,.31-.61,1.62-.43Z"/><path class="ab" d="M103.03,68.45c2.91,.8,5.82,1.6,8.18,2.83,2.36,1.23,4.16,2.89,4.51,4.27,.35,1.38-.74,2.47-1.67,2.21-.93-.26-1.69-1.88-2.98-3.45-1.28-1.57-3.09-3.11-4.51-4.08-1.43-.97-2.48-1.37-3.53-1.78Z"/><path class="ab" d="M60.52,53.67c1.31,.18,3.79,.85,6.41,2.27,2.62,1.42,5.37,3.58,6.52,5.61,1.15,2.03,.7,3.93-.37,4.42-1.07,.5-2.76-.41-4.87-2.5-2.1-2.1-4.62-5.39-6.24-7.15-1.62-1.76-2.35-1.99-3.07-2.22,.15-.31,.31-.61,1.62-.43Z"/><path class="ab" d="M75.94,64.81c2.91,.8,5.82,1.6,8.18,2.83,2.36,1.23,4.16,2.89,4.51,4.27,.35,1.38-.74,2.47-1.67,2.21-.93-.26-1.69-1.88-2.98-3.45-1.28-1.57-3.09-3.11-4.51-4.08-1.43-.97-2.48-1.37-3.53-1.78Z"/><path class="l" d="M41.13,50.06c2.25-.43,5.4,.51,6.89,3.56,1.49,3.06,1.32,8.23,1.56,13.84,.24,5.61,.89,11.66,4.3,16.55,3.4,4.89,9.56,8.63,16.07,10.95,6.51,2.32,13.36,3.22,18.57,7.43,5.21,4.21,8.76,11.73,7.75,15.94-1.01,4.2-6.59,5.09-13.42,3.02-6.83-2.07-14.91-7.1-22.63-13.19-7.72-6.09-15.09-13.24-19.8-20.03-4.72-6.79-6.78-13.21-7.05-18.82-.26-5.61,1.28-10.42,2.72-13.72,1.44-3.31,2.78-5.11,5.03-5.54Z"/><path class="x" d="M57.73,41.66s5.49,.07,11.59-6.21c0,0-2.91-10.57-6.03-12.97l-5.22,11.89s.46,3.06-.46,5.36c0,0-.72,1.92,.12,1.93Z"/><path class="ad" d="M18.64,19.18s-.81-4.23,6.93-7.29c0,0,8.62-3.09,12.11-3.45,0,0,7.68-2.75,17.1,5.3l6.5,6.04-7.24-5.72s-7.37-6.04-16.05-4.81c0,0-16.3,2.23-19.36,9.92Z"/><path class="ag" d="M70.24,37.92s2.1,1.91,7.02,4.61c0,0,16.45,9.53,22.96,15.84l15.26,13.07s4.95,4.79,5.23,5.46c0,0,1.48,1.26-1.69,.3,0,0-22.47-23.94-50.09-37.02,0,0,.7-.29,1.31-2.26Z"/></g></g></svg>