<?xml version="1.0" encoding="UTF-8"?><svg id="a" xmlns="http://www.w3.org/2000/svg" viewBox="0 0 213.14 206.52"><defs><style>.b{fill:#ffb800;}.c{fill:#fff;}.d{fill:#ffca00;}.e{opacity:.5;}.f{fill:#bda000;}.g{fill:#fb4600;}.h{fill:#c41b00;}.i{fill:#601900;}.j{fill:#c31b00;}.k{fill:#ff5600;}.l{fill:#ffe100;}.m{fill:#832400;}</style></defs><path class="e" d="M137.99,205.17c-5.77,0-11.08-2.66-14.57-7.3l-.63-.84c-2.57-3.45-1.87-8.33,1.55-10.91,1.2-.9,2.62-1.43,4.09-1.53,.14-.01,.37-.02,.6-.02,.35,0,.71,.02,1.06,.07,2.09,.3,3.91,1.38,5.15,3.05l.62,.83c.51,.68,1.29,1.08,2.12,1.08,.31,0,.62-.05,.92-.16,.15-.06,.24-.1,.29-.13,1.2-.64,1.73-2.16,1.26-3.48l-3.23-9.06c-.2-.57-.3-1.16-.29-1.73l-26.78-75.13c-17.66,4.67-31.72,12.49-31.87,12.57-.75,.42-1.6,.64-2.45,.64-.28,0-.55-.02-.83-.07h0s-1.71-.27-4.73-.27c-6.44,0-19.66,1.23-35.87,9.44-.72,.36-1.49,.54-2.26,.54-1.29,0-2.57-.5-3.52-1.45-.4-.17-2.06-.74-6.5-.74-4.99,0-10.17,.71-10.22,.72-.23,.03-.46,.05-.69,.05-1.15,0-2.27-.4-3.17-1.13-1.08-.88-1.74-2.18-1.82-3.57-.08-1.35,.13-2.77,.65-4.31,6.14-30.64,24.18-53.66,38.29-67.6,10.66-11.24,20.17-17.14,22.62-18.57,1.19-1.04,4.14-3.12,13.57-7.39l-.93-2.99c-1.16-3.74,.82-7.7,4.51-9.02,.79-.28,1.61-.42,2.44-.42,.16,0,.32,0,.48,.02,2.76,.17,5.24,1.96,6.27,4.55l1.12,2.77c.25-.04,.51-.09,.78-.13,6.44-1.17,19.55-3.13,35.32-3.13,22.97,0,55.29,4.28,78.82,24.69,1.38,1.2,2,3.06,1.61,4.84-.39,1.79-1.72,3.22-3.48,3.73-15.47,4.53-33.9,28.08-34.08,28.32-.68,.87-1.62,1.5-2.69,1.77-29.69,7.72-39.91,20.82-40.01,20.95-.86,1.13-2.18,1.88-3.59,1.99-.91,.08-1.84,.17-2.78,.28l26.14,73.32c.26,.36,.47,.77,.62,1.21l3.21,9.02c1.63,4.58,1.4,9.55-.65,14.01-1.79,3.9-4.85,7.04-8.63,8.84-.52,.25-1.08,.49-1.69,.71-.04,.01-.08,.03-.12,.04-1.99,.69-4.01,1.03-6.05,1.03Z"/><path class="c" d="M132.99,200.17c-5.77,0-11.08-2.66-14.57-7.3l-.63-.84c-2.57-3.45-1.87-8.33,1.55-10.91,1.2-.9,2.62-1.43,4.09-1.53,.14-.01,.37-.02,.6-.02,.35,0,.71,.02,1.06,.07,2.09,.3,3.91,1.38,5.15,3.05l.62,.83c.51,.68,1.29,1.08,2.12,1.08,.31,0,.62-.05,.92-.16,.15-.06,.24-.1,.29-.13,1.2-.64,1.73-2.16,1.26-3.48l-3.23-9.06c-.2-.57-.3-1.16-.29-1.73l-26.78-75.13c-17.66,4.67-31.72,12.49-31.87,12.57-.75,.42-1.6,.64-2.45,.64-.28,0-.55-.02-.83-.07h0s-1.71-.27-4.73-.27c-6.44,0-19.66,1.23-35.87,9.44-.72,.36-1.49,.54-2.26,.54-1.29,0-2.57-.5-3.52-1.45-.4-.17-2.06-.74-6.5-.74-4.99,0-10.17,.71-10.22,.72-.23,.03-.46,.05-.69,.05-1.15,0-2.27-.4-3.17-1.13-1.08-.88-1.74-2.18-1.82-3.57-.08-1.35,.13-2.77,.65-4.31,6.14-30.64,24.18-53.66,38.29-67.6,10.66-11.24,20.17-17.14,22.62-18.57,1.19-1.04,4.14-3.12,13.57-7.39l-.93-2.99c-1.16-3.74,.82-7.7,4.51-9.02,.79-.28,1.61-.42,2.44-.42,.16,0,.32,0,.48,.02,2.76,.17,5.24,1.96,6.27,4.55l1.12,2.77c.25-.04,.51-.09,.78-.13,6.44-1.17,19.55-3.13,35.32-3.13,22.97,0,55.29,4.28,78.82,24.69,1.38,1.2,2,3.06,1.61,4.84-.39,1.79-1.72,3.22-3.48,3.73-15.47,4.53-33.9,28.08-34.08,28.32-.68,.87-1.62,1.5-2.69,1.77-29.69,7.72-39.91,20.82-40.01,20.95-.86,1.13-2.18,1.88-3.59,1.99-.91,.08-1.84,.17-2.78,.28l26.14,73.32c.26,.36,.47,.77,.62,1.21l3.21,9.02c1.63,4.58,1.4,9.55-.65,14.01-1.79,3.9-4.85,7.04-8.63,8.84-.52,.25-1.08,.49-1.69,.71-.04,.01-.08,.03-.12,.04-1.99,.69-4.01,1.03-6.05,1.03Z"/><g><g><path class="k" d="M70.85,103.12s25.22-14.18,51.67-16.38l-11.47-43.54-51.98,21.94,11.78,37.98Z"/><path class="g" d="M122.52,86.74s10.58-14.43,42.75-22.8c0,0-14.76-30.17-21.97-32.75-7.21-2.58-31.83,14.89-31.83,14.89l11.04,40.66Z"/><path class="j" d="M165.28,63.94s19.39-25.01,36.63-30.05c0,0-35.42-13.41-61.49-10.07,0,0,16.18,33.11,24.86,40.12Z"/><path class="g" d="M70.85,103.12s-18.5-3.12-43.69,9.65c0,0-2.36-18.82,6.04-35.26,8.41-16.44,28.38-13.87,28.38-13.87l9.26,39.47Z"/><path class="h" d="M6.24,111.34s17.57-2.45,20.93,1.42c0,0-1.32-17.36,7.61-33.07,0,0-29.1,22.34-28.54,31.65Z"/></g><g><path class="i" d="M82.53,6.35c-.85,.53-1.26,1.59-.95,2.59l2.92,9.39-1.32,.47-.02-.06-2.94-9.45c-.36-1.17,.25-2.41,1.41-2.82,.3-.11,.61-.15,.9-.13Z"/><path class="m" d="M88.23,17l-3.73,1.33-2.92-9.39c-.31-1,.1-2.06,.95-2.59,.85,.05,1.63,.58,1.97,1.42l3.72,9.23Z"/></g><g><rect class="m" x="111.58" y="11.69" width="5.09" height="171.72" transform="translate(-26.13 43.98) rotate(-19.62)"/><rect class="i" x="111.67" y="12.18" width="2.18" height="171.72" transform="translate(-26.37 43.56) rotate(-19.62)"/></g><g><path class="b" d="M55.35,85.23s22.01-26.09,52.62-25.11L87.81,14.29s-18.64,7.58-22.01,10.92c-3.37,3.34-16.24,42.55-10.45,60.01Z"/><path class="l" d="M201.91,33.89s-23.92-6.67-46.12,6.25L87.81,14.29S159.93-2.51,201.91,33.89Z"/><path class="d" d="M87.81,14.29s42.88-11.61,67.98,25.85c0,0-23.19-1.97-47.82,19.98L87.81,14.29Z"/><path class="l" d="M6.24,111.34s1.98-3.92,6.04-5.3l14.42-32.71L65.79,25.22S15.68,56.05,6.24,111.34Z"/><path class="d" d="M12.28,106.05s10.25-20.97,43.07-20.82c0,0-1.84-33.01,10.45-60.01,0,0-43.23,23.56-53.51,80.83Z"/></g><g><path class="f" d="M138.51,169.53l3.21,9c1.45,4.06-.58,8.53-4.52,9.97l-.06,.02c-.17,.06-.34,.11-.52,.16,3.31-1.76,4.9-5.83,3.57-9.55l-3.23-9.06,1.55-.55Z"/><path class="l" d="M142.21,168.21l3.21,9.02c1.19,3.34,1.02,6.98-.48,10.25-1.32,2.87-3.5,5.11-6.24,6.41-.4,.19-.81,.36-1.23,.51h0c-5.5,1.96-11.54,.14-15.04-4.53l-.63-.84c-.92-1.23-.67-2.98,.56-3.91,.43-.32,.93-.51,1.46-.55,.2-.02,.41-.01,.61,.01,.74,.11,1.39,.49,1.84,1.09l.63,.84c2.04,2.71,5.53,3.76,8.72,2.62l.06-.02c.33-.12,.65-.26,.95-.43,.17-.05,.35-.1,.52-.16l.06-.02c3.94-1.44,5.97-5.92,4.52-9.97l-3.21-9,3.7-1.32Z"/></g></g></svg>