<?xml version="1.0" encoding="UTF-8"?><svg id="a" xmlns="http://www.w3.org/2000/svg" viewBox="0 0 113.65 252.27"><defs><style>.b{fill:#fff;}.c{fill:#ef9659;}.d{opacity:.5;}.e{fill:#d67f43;}.f{fill:#ffb67c;}</style></defs><path class="d" d="M41.43,249.27c-1.33,0-2.6-.53-3.54-1.46-.94-.94-1.46-2.21-1.46-3.54v-62.57c-2.82-3.37-9.63-12.12-15.51-24.46-.04-.08-.08-.17-.12-.25-2.24-4.74-4.13-9.55-5.6-14.31-.09-.29-.17-.59-.23-.92-7.27-19.64-7.05-22.1-6.92-23.58l.06-.68c1.06-11.58,1.54-16.87,1-28.5-.01-.23-.03-.49-.04-.76-.19-3.06-.51-8.18,3.3-11.18,1.39-1.09,3.14-1.67,5.06-1.67,2.02,0,8.26,.82,13.14,10.11,.15-21.3,1.55-41.02,4.23-59.99,.31-3.1,1.58-5.98,3.58-8.13,2.04-2.19,4.68-3.39,7.43-3.39,.38,0,.77,.02,1.14,.07,2.24,.27,4.32,1.36,5.94,3.06,1.28-5.32,5.37-9.11,10.36-9.11,5.4,0,9.76,4.46,10.62,10.49,1.96-2.75,4.92-4.47,8.27-4.47,6.01,0,10.72,5.51,10.77,12.56l.44,9.75c1.12-.7,2.38-1.15,3.69-1.29,.31-.03,.61-.05,.91-.05,2.51,0,4.89,1.09,6.72,3.06,1.74,1.9,2.82,4.39,3.06,7.05,2.7,20.96,3.53,41.58,2.48,61.3,.17,44.25-7.71,64.87-10.16,70.22,.3,5.28,1.29,26.1,1.29,67.65,0,2.76-2.24,5-5,5H41.43Z"/><path class="b" d="M36.43,244.27c-1.33,0-2.6-.53-3.54-1.46-.94-.94-1.46-2.21-1.46-3.54v-62.57c-2.82-3.37-9.63-12.12-15.51-24.46-.04-.08-.08-.17-.12-.25-2.24-4.74-4.13-9.55-5.6-14.31-.09-.29-.17-.59-.23-.92-7.27-19.64-7.05-22.1-6.92-23.58l.06-.68c1.06-11.58,1.54-16.87,1-28.5-.01-.23-.03-.49-.04-.76-.19-3.06-.51-8.18,3.3-11.18,1.39-1.09,3.14-1.67,5.06-1.67,2.02,0,8.26,.82,13.14,10.11,.15-21.3,1.55-41.02,4.23-59.99,.31-3.1,1.58-5.98,3.58-8.13,2.04-2.19,4.68-3.39,7.43-3.39,.38,0,.77,.02,1.14,.07,2.24,.27,4.32,1.36,5.94,3.06,1.28-5.32,5.37-9.11,10.36-9.11,5.4,0,9.76,4.46,10.62,10.49,1.96-2.75,4.92-4.47,8.27-4.47,6.01,0,10.72,5.51,10.77,12.56l.44,9.75c1.12-.7,2.38-1.15,3.69-1.29,.31-.03,.61-.05,.91-.05,2.51,0,4.89,1.09,6.72,3.06,1.74,1.9,2.82,4.39,3.06,7.05,2.7,20.96,3.53,41.58,2.48,61.3,.17,44.25-7.71,64.87-10.16,70.22,.3,5.28,1.29,26.1,1.29,67.65,0,2.76-2.24,5-5,5H36.43Z"/><g><path class="f" d="M36.44,174.84s-14.32-15.62-21.47-38.64c-1.71-5.51,3.69-25.56,10.12-32.65-.12,6.75,3.57,15.04,3.57,15.04,1.57-.43,2.43-14.43,2.08-30.24l69.24,.84c2.1,59.87-10,81.44-10,81.44,0,0,1.36,20.49,1.36,68.66H36.43v-64.43Z"/><path class="f" d="M50.44,107.62c-3.35-23.03-4.91-46.41-4.7-69.68,.05-5.24,.24-10.47,.51-15.7,.19-2.08-.22-4.03-1.11-5.52-.88-1.49-2.22-2.52-3.8-2.71-1.58-.19-3.11,.49-4.31,1.77-1.19,1.28-2.08,3.16-2.27,5.31-3.33,23.51-4.47,47.21-4.16,70.94,.08,5.79,.25,11.59,.56,17.37,.7,7.66,20.03,5.51,19.28-1.78Z"/><path class="f" d="M86.82,108.5l-3.91-86.8c0-4.25-2.58-7.69-5.77-7.69s-5.77,3.44-5.77,7.69l-3.91,86.8c-.04,7.5,19.4,7.5,19.36,0Z"/><path class="f" d="M67.92,102.49l-3.91-86.8c0-4.25-2.59-7.69-5.77-7.69s-5.77,3.44-5.77,7.69l-3.91,86.8c-.04,7.5,19.4,7.5,19.36,0Z"/><path class="f" d="M99.59,110.21c1.95-23.17,1.14-46.53-1.84-69.57-.13-1.69-.82-3.17-1.76-4.19-.94-1.02-2.16-1.57-3.42-1.44-1.27,.14-2.35,.93-3.07,2.09-.73,1.16-1.08,2.69-.95,4.34,.83,22.34-.42,44.81-4.33,66.84-.78,5.66,14.61,7.97,15.37,1.92Z"/><path class="f" d="M20.37,149.97s-12.74-32.06-12.35-36.33c1.12-12.22,1.65-17.66,1.08-29.87-.1-2.22-.63-6.22,1.35-7.78,2.18-1.71,8.58-.31,12.7,11.58,2.28,6.59,2.04,12.1,1.9,17.1-.13,4.53-.29,9.74,.79,18.21-.79,5.68-5.47,27.1-5.47,27.1Z"/><path class="c" d="M35.55,113.73c-2.03,.93,9.94,4.5,6.84,4.37s-14.39-.83-5.5,1.42c8.89,2.25,17.1,12.25,19.68,15.7,2.99,3.99,9.56,17.68,8.97,11.98-.59-5.7-1.64-9.16-2.62-14.23-.97-5.07,6.75-2.78,11.1-1.41,4.35,1.37-7.15-7.71-3.62-9.79,3.53-2.08,19.87-4.13,12.14-5.45-7.73-1.32-44.97-3.53-47-2.59Z"/><g><path class="e" d="M24.38,106.59c.13,.18-.31,.75-1.22,1.44-.45,.34-1.03,.7-1.69,1.04-.67,.33-1.44,.65-2.27,.9-.83,.25-1.64,.4-2.39,.5-.75,.08-1.42,.1-1.99,.07-1.13-.07-1.81-.31-1.81-.53,.02-.48,2.66-.68,5.7-1.62,3.05-.9,5.37-2.18,5.65-1.79Z"/><path class="e" d="M64.83,157.17c-.3,.04-.71-2.89-2.11-7.38-.71-2.24-1.68-4.87-3.06-7.63-1.37-2.77-3.14-5.68-5.38-8.44-.29-.34-.55-.69-.85-1.02-.29-.33-.58-.65-.87-.98-.6-.62-1.18-1.25-1.79-1.81-1.21-1.15-2.44-2.2-3.68-3.11-.15-.12-.31-.23-.46-.35-.16-.11-.31-.22-.47-.32-.31-.21-.61-.43-.91-.63-.62-.39-1.21-.78-1.81-1.11-1.18-.7-2.33-1.26-3.38-1.76-2.13-.97-3.94-1.57-5.2-1.96-.63-.22-1.12-.34-1.46-.47-.33-.12-.5-.22-.49-.28,0-.06,.2-.09,.56-.09,.36,.01,.88,.02,1.55,.13,1.34,.18,3.26,.6,5.54,1.45,1.13,.44,2.36,.95,3.63,1.62,.64,.32,1.28,.7,1.94,1.08,.33,.19,.65,.41,.98,.62,.16,.11,.33,.21,.5,.32,.16,.11,.33,.23,.49,.35,1.33,.91,2.64,1.99,3.93,3.18,.65,.59,1.27,1.23,1.9,1.88,.3,.34,.61,.68,.91,1.02,.31,.34,.59,.71,.89,1.06,2.35,2.89,4.15,5.96,5.48,8.87,1.35,2.91,2.21,5.68,2.78,8.02,1.11,4.71,1.05,7.72,.83,7.73Z"/><path class="e" d="M85.56,120.25c0,.21-2.82,.54-7.42,.65-1.15,.03-2.41,.05-3.76,.03-1.35,0-2.79-.05-4.31-.09-3.04-.12-6.37-.34-9.86-.7-3.49-.37-6.8-.83-9.8-1.34-1.5-.26-2.92-.51-4.24-.79-1.33-.26-2.55-.54-3.67-.8-4.47-1.05-7.18-1.95-7.12-2.16,.06-.23,2.85,.26,7.35,1.01,1.13,.19,2.36,.39,3.69,.59,1.32,.22,2.74,.41,4.24,.63,2.99,.42,6.27,.83,9.73,1.2,3.46,.35,6.76,.62,9.77,.82,1.5,.09,2.93,.19,4.28,.24,1.34,.08,2.59,.12,3.73,.17,4.56,.19,7.4,.27,7.4,.52Z"/><path class="e" d="M85.31,172.78c.03,.18-2.41,.77-6.42,1.37-1,.15-2.1,.3-3.28,.44-1.18,.15-2.45,.27-3.78,.4-2.67,.24-5.61,.43-8.7,.52-3.09,.09-6.04,.07-8.72,0-1.34-.05-2.61-.1-3.8-.18-1.19-.07-2.3-.16-3.3-.24-4.04-.36-6.51-.8-6.49-.99,.02-.21,2.52-.13,6.55-.02,1.01,.02,2.11,.05,3.29,.07,1.18,.03,2.45,.03,3.78,.04,2.66,0,5.58-.02,8.65-.1,3.07-.09,5.99-.24,8.64-.4,1.33-.09,2.59-.17,3.77-.27,1.18-.08,2.28-.18,3.28-.26,4.01-.34,6.5-.57,6.53-.36Z"/><path class="e" d="M83.81,180.25c0,.4-9.47,.94-21.16,1.22-11.7,.28-21.19,.18-21.2-.22,0-.4,9.47-.94,21.16-1.22,11.7-.28,21.19-.18,21.2,.22Z"/></g><g><path class="e" d="M46.87,88.48c-.12,.47-3.25-.09-7.03,.44-3.78,.47-6.69,1.78-6.92,1.35-.1-.19,.51-.78,1.69-1.43,.3-.16,.63-.33,.99-.48,.36-.16,.76-.3,1.18-.45,.85-.27,1.81-.51,2.84-.64,1.03-.13,2.01-.15,2.91-.11,.89,.06,1.69,.18,2.34,.35,1.31,.33,2.05,.75,1.99,.96Z"/><path class="e" d="M43.84,37.38c-.17,.38-2.28-.24-4.91-.4-2.64-.18-4.81,.16-4.93-.23-.05-.18,.45-.52,1.35-.81,.9-.28,2.21-.48,3.66-.39,1.45,.09,2.73,.46,3.58,.85,.86,.4,1.31,.79,1.24,.97Z"/><path class="e" d="M44.02,60.82c-.14,.39-2.62-.24-5.68-.13-3.07,.07-5.5,.84-5.67,.46-.07-.17,.46-.61,1.47-1.04,.5-.22,1.12-.41,1.83-.57,.71-.15,1.5-.26,2.33-.29,.83-.02,1.63,.04,2.34,.15,.71,.12,1.34,.28,1.86,.46,1.03,.37,1.59,.77,1.52,.95Z"/></g><g><path class="e" d="M65.23,88.07c-.11,.46-3.22,.04-7.02,.16-3.8,.09-6.88,.69-7.02,.24-.06-.21,.65-.65,1.9-1.06,.63-.21,1.39-.4,2.25-.55,.86-.15,1.82-.25,2.82-.28,1.01-.03,1.97,.02,2.83,.12,.87,.1,1.64,.25,2.28,.42,1.28,.34,2.01,.73,1.96,.95Z"/><path class="e" d="M63.01,31.68c-.12,.39-2.37,0-5.12-.05-2.75-.08-5.02,.19-5.12-.21-.04-.19,.48-.51,1.41-.78,.93-.27,2.26-.48,3.74-.44,1.48,.04,2.8,.31,3.71,.63,.91,.32,1.43,.67,1.37,.85Z"/><path class="e" d="M63.52,57.3c-.16,.38-2.64-.38-5.75-.41-3.11-.07-5.61,.62-5.76,.23-.07-.18,.49-.59,1.53-.98,.52-.2,1.16-.37,1.88-.5,.72-.12,1.53-.19,2.38-.18,.85,.02,1.65,.12,2.37,.26,.72,.15,1.35,.34,1.86,.56,1.03,.42,1.57,.85,1.5,1.03Z"/></g><g><path class="e" d="M83.76,88.82c-.17,.44-2.83-.25-6.12-.39-3.3-.17-6,.28-6.13-.18-.06-.21,.57-.61,1.69-.96,.56-.17,1.24-.32,2.01-.42,.77-.09,1.62-.14,2.51-.1,.89,.04,1.74,.17,2.5,.33,.76,.17,1.42,.38,1.96,.6,1.08,.45,1.67,.9,1.59,1.11Z"/><path class="e" d="M81.59,36.67c-.14,.39-2.2-.04-4.74-.13-2.54-.12-4.63,.14-4.74-.26-.05-.19,.44-.5,1.3-.77,.86-.27,2.11-.46,3.49-.4,1.38,.06,2.61,.35,3.45,.69,.84,.34,1.3,.69,1.24,.87Z"/><path class="e" d="M82.52,60.45c-.15,.39-2.61-.32-5.68-.29-3.07,0-5.52,.71-5.68,.33-.07-.18,.47-.6,1.49-1,.51-.2,1.13-.39,1.84-.53,.71-.13,1.5-.22,2.34-.23,.84,0,1.63,.08,2.34,.21,.71,.14,1.34,.32,1.85,.52,1.02,.4,1.57,.82,1.5,.99Z"/></g><g><path class="e" d="M99.03,90.2c-.15,.44-2.35,.06-5.02-.18-2.67-.26-4.9-.3-4.97-.76-.03-.22,.51-.51,1.44-.71,.93-.21,2.24-.31,3.68-.18,1.44,.14,2.71,.48,3.58,.86,.87,.37,1.35,.75,1.28,.97Z"/><path class="e" d="M97.34,53.75c-.1,.18-.57,.12-1.26,.02-.35-.05-.75-.1-1.2-.14-.45-.03-.94-.05-1.46-.04-.52,.02-1,.06-1.45,.12-.44,.06-.85,.13-1.19,.2-.69,.13-1.16,.22-1.26,.04-.1-.16,.21-.57,.89-.98,.34-.21,.78-.4,1.28-.55,.51-.14,1.08-.24,1.69-.26,.61-.01,1.19,.06,1.7,.17,.51,.13,.96,.29,1.31,.48,.7,.38,1.03,.77,.94,.94Z"/><path class="e" d="M99.18,69.94c-.13,.39-2.12,.06-4.55-.03-2.43-.11-4.45,.06-4.54-.34-.04-.19,.43-.48,1.26-.73,.83-.24,2.02-.42,3.34-.36,1.32,.06,2.49,.32,3.3,.64,.81,.31,1.25,.64,1.2,.83Z"/></g></g></svg>