<?xml version="1.0" encoding="UTF-8"?><svg id="a" xmlns="http://www.w3.org/2000/svg" viewBox="0 0 296.23 203.36"><defs><style>.b{fill:#857d75;}.c{fill:#fff;}.d{fill:#b4a063;}.e{opacity:.5;}.f{fill:#3a454a;}.g{fill:#aca094;}.h{fill:#64737b;}.i{fill:#4a565d;}.j{fill:#5a6159;}.k{fill:#897478;}.l{fill:#e1c88c;}.m{fill:#878680;}.n{fill:#97a0aa;}</style></defs><path class="e" d="M169.32,201.81c-1.27,0-2.43-.1-3.53-.29-4.37-.78-7.8-3.4-9.54-7.17-.15-.15-.3-.3-.43-.47-.58-.67-1.02-1.48-1.29-2.38-.12-.07-.23-.14-.34-.22-1.73-1.1-2.67-2.99-2.96-4.42-.04-.22-.08-.45-.11-.69-.02-.1-.03-.2-.05-.3-.01-.11-.02-.23-.03-.35-.01-.17-.03-.37-.03-.57-.01-.28-.01-.56,0-.84,0-.25,.02-.49,.04-.73,.03-.34,.09-.71,.17-1.07,.04-.21,.08-.41,.14-.61,.03-.09,.05-.18,.08-.27,.04-1.18,.37-2.37,.96-3.5,.24-.46,.49-.84,.71-1.14,0-.45,0-.9,.04-1.35,.01-.21,.05-1.1,.07-1.34,0-.8,.02-1.59,.05-2.38l.02-.65c.06-1.98,.12-3.78,.11-5.59-.02-2.84-.48-5.69-1.34-8.47-1.17-1.59-2.77-3.77-3.15-6.79-.46-3.67-.27-7.28-.1-10.77l.07-1.48c.16-3.4,.19-6.23,.1-8.81-.25-.14-.78-.36-1.89-.65-2.54-.66-5.02-1.02-7.39-1.05-.3,0-.61,0-.91,0-6.55,0-11.38,1.1-14.78,3.37-.51,.34-.99,.7-1.48,1.06-2.18,1.61-4.9,3.61-8.88,3.89-.36,.02-.71,.04-1.06,.04-4.46,0-7.96-1.96-10.5-3.66-1.53-1.02-2.92-2.11-4.27-3.17-1.25-.98-2.44-1.91-3.65-2.72-.66-.44-1.3-.86-1.92-1.19-.55,.3-1.18,.61-1.92,.86-.41,.14-.81,.27-1.21,.38-.06,.02-.16,.04-.24,.06-.34,.09-.69,.18-1.04,.24-.14,.03-.29,.06-.44,.08-.5,.08-.98,.13-1.45,.15-.98,3.34-3.23,4.45-4.54,4.82-.59,.17-1.21,.26-1.82,.26-.28,0-.56-.02-.84-.06-.72,1.84-1.59,3.54-2.39,5.11-.73,1.43-1.42,2.78-1.95,4.1-1.6,4.05-1.06,9.13-.33,12.68,.93,4.49,2.44,9.11,4.51,13.72,.89,1.99,1.99,3.59,3.47,5.06,.29,.29,.62,.58,.95,.88,1.39,1.26,3.22,2.92,4.27,5.25,2.87,1.58,6.09,4.08,6.8,8.55,.22,1.39-.12,2.79-.96,3.94-.85,1.16-2.19,1.99-3.62,2.25-.06,.02-.13,.04-.19,.07-.19,.06-.4,.14-.65,.21-.36,.22-.76,.42-1.19,.6-.41,.2-.85,.37-1.3,.5-2.33,.96-4.73,1.19-6.98,1.36-1.01,.07-2.19,.15-3.4,.15-2.87,0-5.21-.44-7.37-1.4-1-.44-3.35-1.48-4.71-3.9-.06-.1-.12-.23-.18-.34-.04-.09-.08-.17-.12-.26-.29-.67-.47-1.38-.54-2.1-1.98-.46-3.59-1.94-4.44-4.14-.97-2.5-.98-5.07-.03-7.44,.1-.5,.22-.94,.32-1.3,.03-.1,.06-.21,.09-.31-.03-.08-.12-.38-.12-.38-.35-.84-.68-1.72-1.04-2.76-.04-.1-.08-.2-.11-.3l-.13-.41c-.12-.35-.22-.68-.32-1-.1-.33-.2-.66-.3-.99-.1-.32-.19-.65-.28-.98-.09-.33-.31-1.14-.31-1.14l-.21-.82c-.08-.29-.48-1.94-.48-1.94l-.17-.73c-.29-1.25-.56-2.48-.83-3.72-.22-.99-.43-1.98-.66-2.96,0,0-.31-1.34-.41-1.76,0,0-.34-1.38-.44-1.75l-.19-.7c-.09-.33-.19-.67-.29-1.02-.07-.24-.14-.47-.21-.7-.1-.33-.2-.66-.31-.98-.07-.23-.15-.45-.22-.68-.11-.33-.23-.66-.35-.99l-.23-.62c-.13-.35-.28-.69-.42-1.04l-.21-.51c-.22-.5-.45-1-.7-1.5-.33-.67-.77-1.37-1.23-2.12-.62-1-1.29-2.09-1.86-3.32-.36,.63-.72,1.26-1.06,1.89-1.28,2.38-2.36,4.81-3.31,7.44-.25,.7-.5,1.41-.73,2.12l-.11,.36c-.2,.62-.4,1.23-.58,1.85l-.07,.24c-.2,.66-.39,1.34-.58,2.02-.21,.79-.41,1.53-.59,2.27-.63,2.54-1.19,5.2-1.67,7.91-.84,4.78-1.43,9.33,.62,12.52,.18,.27,.48,.65,.81,1.05,.93,1.13,2.19,2.69,2.8,4.8,.03,.1,.06,.21,.08,.33,0,.03,.01,.05,.02,.08,.48,.64,.92,1.28,1.34,1.9,.84,1.23,1.99,2.92,2.51,5,.95,3.77-.7,5.82-1.91,6.77-.54,.65-1.21,1.19-1.98,1.58-1.89,.94-3.72,1.01-5.06,1.06h-.18c-.74,.04-1.47,.06-2.21,.06-.56,0-1.12-.01-1.67-.05-2.12-.13-4.39-.32-6.65-.74-2.88-.53-6.62-1.85-8.44-5.08-.22-.32-.41-.66-.58-1-.23-.48-.4-.96-.52-1.45-.06-.23-.1-.48-.13-.73-.04-.23-.06-.46-.07-.69-.01-.25,0-.5,.02-.76,0-.17,.02-.35,.04-.52,.02-.15,.05-.32,.08-.49-.37-.11-.73-.26-1.08-.44-1.58-.82-2.6-2.31-2.83-4.01-.41-1.95,.11-3.97,.78-5.52,0-.08,0-.16,.01-.23,.02-.27,.06-.53,.12-.79,.03-.13,.06-.27,.1-.42,.18-.59,.43-1.14,.77-1.65,.42-.65,.86-1.21,1.25-1.7,.3-.38,.63-.8,.79-1.08,.14-1.34,.29-2.68,.44-4.03,.32-2.89,.65-5.89,.92-8.81,.04-.37,.07-.74,.1-1.09-.25-.07-.49-.15-.72-.25-.22,.03-.45,.04-.68,.04-1.87,0-3.57-.94-4.54-2.51-.3-.49-.6-1.03-.91-1.64-.08-.16-.15-.3-.21-.45l-.05-.12c-.16-.35-.33-.7-.48-1.06l-.26-.64c-.13-.32-.25-.63-.37-.95-.08-.22-.37-1.03-.37-1.03-.03-.07-.09-.26-.09-.26-.06-.18-.12-.35-.18-.53-.34-1.02-.62-2.07-.84-3.13-.78-.73-1.34-1.71-1.58-2.84-1.42-6.99,.37-14.19,2.12-19,1.4-3.85,3.26-7.46,5.05-10.95,.72-1.4,1.44-2.8,2.13-4.21l.06-.13c2.34-4.82,4.76-9.8,6.17-14.75,1.1-3.88,1.47-7.99,1.86-12.35l.09-.98c-.04-.68-.09-1.36-.13-2.04-.15-2.26-.3-4.6-.35-6.96-.03-1.37,0-2.83,.06-4.56,0-.06,0-.13,0-.19,0-.03,0-.18,.01-.21,.04-.85,.08-1.66,.12-2.46l.02-.44c.05-.92,.12-1.85,.18-2.79l.03-.46c.2-3.08,.41-6.26,1.23-9.54,1.07-4.32,2.7-7.65,4.97-10.18,1.13-1.26,2.39-2.08,3.58-2.81,1.79-1.1,3.62-2.14,5.39-3.15,1.57-.9,3.2-1.82,4.74-2.76,4.28-2.59,8.6-5.42,12.85-8.39,1.88-1.84,4.37-4.01,7.46-5.25,.65-.26,1.34-.49,2.05-.68,.17-.04,.32-.08,.48-.11,.54-.13,1.01-.22,1.47-.29,.05,0,.1-.02,.15-.02,.1-.02,.2-.03,.31-.04,.77-.1,1.55-.15,2.32-.15,.09-.02,.18-.04,.28-.05,1.93-.33,3.91-.49,5.88-.49,1.87,0,3.81,.15,5.77,.44,.66,.01,1.26,.05,1.85,.09,.53,.03,1.06,.07,1.59,.07,.39,0,.68-.02,.92-.07,.65-.13,1.39-.35,2.18-.59,1.41-.43,3-.91,4.81-1.08,.36-.03,.71-.05,1.06-.05,3.66,0,6.39,1.78,8.38,3.09,.61,.4,1.19,.78,1.7,1.05,.8,.43,1.97,.65,3.32,.9,.35,.06,.69,.13,1.04,.2,2.1,.42,4.2,.83,6.31,1.23l.9,.17c2.91,.55,5.91,1.12,8.89,1.91,3.55-.49,7.06-1.34,9.78-2.05l.47-.12c6.55-1.7,13.31-3.45,20.36-4.14,2.52-.25,4.83-.37,7.06-.37,1.38,0,2.75,.05,4.05,.14,4.01,.29,7.73,1.06,10.84,1.78,4.75,1.09,9.51,2.32,14.11,3.5,2.21,.57,4.41,1.13,6.62,1.69,2.79,.7,5.81,1.13,8.98,1.27-.53-3.25,.15-6.62,2.05-9.61,2.12-3.35,5.13-5.48,8.51-6.05,.91-.27,1.84-.4,2.79-.4,.62,0,1.25,.06,1.86,.18,2.64,.52,4.95,1.92,6.5,3.84,4.05-3.11,8.81-4.96,13.54-5.16,.3-.01,.6-.02,.9-.02,.71,0,1.43,.04,2.15,.11,2.62-1.88,5.7-2.86,9.02-2.86,.36,0,.73,.01,1.1,.04,3.77,.25,7.23,1.69,9.56,3.96,1.26,1.02,2.3,2.21,3.1,3.53,1.95,3.22,2.55,6.91,1.68,10.19,.74-.07,1.49-.1,2.25-.1,1.39,0,2.81,.12,4.21,.35,6.23,1.04,10.94,3.34,14,6.84,2.69,3.07,3.47,6.11,2.33,9.02-1.6,4.06-5.66,4.71-7.61,5.02-.27,.04-.53,.08-.75,.13-1.49,.41-3.09,1.46-4.79,2.57-.8,.53-1.63,1.07-2.51,1.58,.06,.05,.12,.11,.18,.16,.13,.03,.27,.06,.4,.1,4.14,1.07,5.53,3.69,5.99,5.16,.43,1.4,.52,2.87,.26,4.33,.43,.7,.93,1.65,1.13,2.86,.06,.34,.09,.72,.1,1.11,0,.13,0,.31-.02,.46,0,.19-.03,.43-.06,.66-.02,.14-.06,.34-.09,.49-.04,.2-.09,.39-.15,.57-.04,.13-.12,.35-.17,.48-.09,.24-.17,.42-.27,.6-.06,.13-.15,.28-.24,.44-.15,.25-.27,.43-.41,.62-.09,.13-.21,.27-.34,.41-.17,.19-.34,.37-.53,.54-.16,.14-.3,.25-.44,.36-.26,.19-.47,.33-.69,.45l-.08,.05c-.37,.25-.71,.46-.99,.62l-.37,.22h0c-.8,.5-1.6,.87-2.4,1.1-.25,.39-.53,.74-.83,1.07-.26,.28-.58,.61-1,.94-1.58,1.33-3.37,1.75-4.45,2,0,0-.37,.09-.5,.12l-.23,.06c-1.18,.31-2.64,.7-4.35,.7-.13,0-.27,0-.41,0-2.24-.08-4.1-.61-5.82-1.68-.42,.05-.82,.08-1.22,.08-.76,0-1.5-.09-2.2-.27-.54-.14-1.07-.34-1.6-.61-.07-.04-.39-.21-.44-.24-.12-.07-.24-.15-.36-.23-.26-.17-.5-.36-.73-.56-.07-.06-.15-.13-.21-.19,0,0-.13-.13-.2-.19-.18-.18-.34-.36-.5-.55-.47-.02-.94-.03-1.41-.03-.19,0-.38,0-.57,.01-.45,.02-.89,.05-1.34,.08-.71,.05-1.44,.1-2.21,.11-2.72,2-5.95,4.51-8.91,7.35l-1.14,1.09c-3.17,3.05-6.46,6.2-9.9,9.18-1.29,1.11-2.6,2.19-3.91,3.27-2.39,1.96-4.65,3.82-6.71,5.84-1.37,1.35-2.93,2.89-3.91,4.41-.41,.64-.65,1.17-.74,1.62-.05,.29-.09,.58-.13,.87-.09,.67-.19,1.42-.4,2.25-.91,3.6-2.14,6.66-3.77,9.36-.61,1-1.24,1.89-1.85,2.75-.3,.42-.59,.83-.88,1.25l-.24,.36c-.27,.39-.71,1.03-.84,1.34-.03,.25-.04,.5-.06,.74-.08,1.13-.18,2.67-.85,4.36-.57,1.44-1.26,2.96-2.39,4.37-1.21,1.51-2.66,2.85-4.25,3.94h0c-.1,.33-.2,.66-.29,.99l-.07,.28c-.09,.34-.18,.68-.25,1.02l-.07,.34c-.07,.32-.14,.66-.2,1l-.1,.61c-.04,.24-.08,.49-.12,.73,0,0-.14,1.23-.16,1.36-.02,.25-.04,.5-.06,.75l-.05,.62c-.02,.44-.04,.88-.04,1.33-.02,1.03,0,1.86,.12,2.56,.2,1.18,.47,2.8,.27,4.59-.14,1.33-.46,2.5-.74,3.53-.26,.95-.48,1.76-.47,2.36,.06,3.93,1.27,8.08,2.32,11.26,.57,1.73,1.16,3.52,1.92,5.1,.41,.85,.77,1.48,1.13,2.01,.17,.25,.36,.48,.54,.72,.32,.41,.7,.9,1.08,1.47,1.46,.76,2.87,1.76,4.2,3.01,4.22,3.92,5.35,7.63,3.35,11.02-.55,.93-1.38,1.67-2.36,2.13-.38,.24-.79,.44-1.21,.58-3.96,1.33-8.67,2.68-13.55,2.68h-.36c-2.01-.03-4.54-.06-6.98-1.08-.15,.19-.3,.38-.46,.56-1.12,1.21-2.65,2.02-4.25,2.29-1.92,1.03-4.13,1.27-5.82,1.33-.46,.02-.93,.02-1.39,.03-.61,0-1.18,.01-1.67,.06-1,.09-1.91,.13-2.75,.13Zm4.6-38.82c-.07,.32-.14,.64-.2,.97-.14,.77-.03,1.96,.06,2.92,.2,2.16,.62,4.44,1.3,6.99,.08,.31,.17,.63,.27,.94,.25,.86,.54,1.84,.72,2.93l.02-.1c.08-.4,.2-.8,.35-1.23,.01-.03,.02-.06,.03-.09,.08-.21,.17-.43,.26-.64-.03-.44-.14-2.07-.14-2.07l-.13-2.27c-.04-.64-.08-1.28-.12-1.91l-.05-.6c-.03-.44-.07-.89-.12-1.34-.02-.24-.05-.45-.07-.67-.05-.42-.1-.85-.16-1.27l-.08-.57c-.09-.58-.2-1.16-.32-1.73-.15-.68-.33-1.36-.54-2.07-.01,.02-.47,.8-.47,.8-.21,.35-.41,.69-.61,1.04Z"/><path class="c" d="M164.32,196.81c-1.27,0-2.43-.1-3.53-.29-4.37-.78-7.8-3.4-9.54-7.17-.15-.15-.3-.3-.43-.47-.58-.67-1.02-1.48-1.29-2.38-.12-.07-.23-.14-.34-.22-1.73-1.1-2.67-2.99-2.96-4.42-.04-.22-.08-.45-.11-.69-.02-.1-.03-.2-.05-.3-.01-.11-.02-.23-.03-.35-.01-.17-.03-.37-.03-.57-.01-.28-.01-.56,0-.84,0-.25,.02-.49,.04-.73,.03-.34,.09-.71,.17-1.07,.04-.21,.08-.41,.14-.61,.03-.09,.05-.18,.08-.27,.04-1.18,.37-2.37,.96-3.5,.24-.46,.49-.84,.71-1.14,0-.45,0-.9,.04-1.35,.01-.21,.05-1.1,.07-1.34,0-.8,.02-1.59,.05-2.38l.02-.65c.06-1.98,.12-3.78,.11-5.59-.02-2.84-.48-5.69-1.34-8.47-1.17-1.59-2.77-3.77-3.15-6.79-.46-3.67-.27-7.28-.1-10.77l.07-1.48c.16-3.4,.19-6.23,.1-8.81-.25-.14-.78-.36-1.89-.65-2.54-.66-5.02-1.02-7.39-1.05-.3,0-.61,0-.91,0-6.55,0-11.38,1.1-14.78,3.37-.51,.34-.99,.7-1.48,1.06-2.18,1.61-4.9,3.61-8.88,3.89-.36,.02-.71,.04-1.06,.04-4.46,0-7.96-1.96-10.5-3.66-1.53-1.02-2.92-2.11-4.27-3.17-1.25-.98-2.44-1.91-3.65-2.72-.66-.44-1.3-.86-1.92-1.19-.55,.3-1.18,.61-1.92,.86-.41,.14-.81,.27-1.21,.38-.06,.02-.16,.04-.24,.06-.34,.09-.69,.18-1.04,.24-.14,.03-.29,.06-.44,.08-.5,.08-.98,.13-1.45,.15-.98,3.34-3.23,4.45-4.54,4.82-.59,.17-1.21,.26-1.82,.26-.28,0-.56-.02-.84-.06-.72,1.84-1.59,3.54-2.39,5.11-.73,1.43-1.42,2.78-1.95,4.1-1.6,4.05-1.06,9.13-.33,12.68,.93,4.49,2.44,9.11,4.51,13.72,.89,1.99,1.99,3.59,3.47,5.06,.29,.29,.62,.58,.95,.88,1.39,1.26,3.22,2.92,4.27,5.25,2.87,1.58,6.09,4.08,6.8,8.55,.22,1.39-.12,2.79-.96,3.94-.85,1.16-2.19,1.99-3.62,2.25-.06,.02-.13,.04-.19,.07-.19,.06-.4,.14-.65,.21-.36,.22-.76,.42-1.19,.6-.41,.2-.85,.37-1.3,.5-2.33,.96-4.73,1.19-6.98,1.36-1.01,.07-2.19,.15-3.4,.15-2.87,0-5.21-.44-7.37-1.4-1-.44-3.35-1.48-4.71-3.9-.06-.1-.12-.23-.18-.34-.04-.09-.08-.17-.12-.26-.29-.67-.47-1.38-.54-2.1-1.98-.46-3.59-1.94-4.44-4.14-.97-2.5-.98-5.07-.03-7.44,.1-.5,.22-.94,.32-1.3,.03-.1,.06-.21,.09-.31-.03-.08-.12-.38-.12-.38-.35-.84-.68-1.72-1.04-2.76-.04-.1-.08-.2-.11-.3l-.13-.41c-.12-.35-.22-.68-.32-1-.1-.33-.2-.66-.3-.99-.1-.32-.19-.65-.28-.98-.09-.33-.31-1.14-.31-1.14l-.21-.82c-.08-.29-.48-1.94-.48-1.94l-.17-.73c-.29-1.25-.56-2.48-.83-3.72-.22-.99-.43-1.98-.66-2.96,0,0-.31-1.34-.41-1.76,0,0-.34-1.38-.44-1.75l-.19-.7c-.09-.33-.19-.67-.29-1.02-.07-.24-.14-.47-.21-.7-.1-.33-.2-.66-.31-.98-.07-.23-.15-.45-.22-.68-.11-.33-.23-.66-.35-.99l-.23-.62c-.13-.35-.28-.69-.42-1.04l-.21-.51c-.22-.5-.45-1-.7-1.5-.33-.67-.77-1.37-1.23-2.12-.62-1-1.29-2.09-1.86-3.32-.36,.63-.72,1.26-1.06,1.89-1.28,2.38-2.36,4.81-3.31,7.44-.25,.7-.5,1.41-.73,2.12l-.11,.36c-.2,.62-.4,1.23-.58,1.85l-.07,.24c-.2,.66-.39,1.34-.58,2.02-.21,.79-.41,1.53-.59,2.27-.63,2.54-1.19,5.2-1.67,7.91-.84,4.78-1.43,9.33,.62,12.52,.18,.27,.48,.65,.81,1.05,.93,1.13,2.19,2.69,2.8,4.8,.03,.1,.06,.21,.08,.33,0,.03,.01,.05,.02,.08,.48,.64,.92,1.28,1.34,1.9,.84,1.23,1.99,2.92,2.51,5,.95,3.77-.7,5.82-1.91,6.77-.54,.65-1.21,1.19-1.98,1.58-1.89,.94-3.72,1.01-5.06,1.06h-.18c-.74,.04-1.47,.06-2.21,.06-.56,0-1.12-.01-1.67-.05-2.12-.13-4.39-.32-6.65-.74-2.88-.53-6.62-1.85-8.44-5.08-.22-.32-.41-.66-.58-1-.23-.48-.4-.96-.52-1.45-.06-.23-.1-.48-.13-.73-.04-.23-.06-.46-.07-.69-.01-.25,0-.5,.02-.76,0-.17,.02-.35,.04-.52,.02-.15,.05-.32,.08-.49-.37-.11-.73-.26-1.08-.44-1.58-.82-2.6-2.31-2.83-4.01-.41-1.95,.11-3.97,.78-5.52,0-.08,0-.16,.01-.23,.02-.27,.06-.53,.12-.79,.03-.13,.06-.27,.1-.42,.18-.59,.43-1.14,.77-1.65,.42-.65,.86-1.21,1.25-1.7,.3-.38,.63-.8,.79-1.08,.14-1.34,.29-2.68,.44-4.03,.32-2.89,.65-5.89,.92-8.81,.04-.37,.07-.74,.1-1.09-.25-.07-.49-.15-.72-.25-.22,.03-.45,.04-.68,.04-1.87,0-3.57-.94-4.54-2.51-.3-.49-.6-1.03-.91-1.64-.08-.16-.15-.3-.21-.45l-.05-.12c-.16-.35-.33-.7-.48-1.06l-.26-.64c-.13-.32-.25-.63-.37-.95-.08-.22-.37-1.03-.37-1.03-.03-.07-.09-.26-.09-.26-.06-.18-.12-.35-.18-.53-.34-1.02-.62-2.07-.84-3.13-.78-.73-1.34-1.71-1.58-2.84-1.42-6.99,.37-14.19,2.12-19,1.4-3.85,3.26-7.46,5.05-10.95,.72-1.4,1.44-2.8,2.13-4.21l.06-.13c2.34-4.82,4.76-9.8,6.17-14.75,1.1-3.88,1.47-7.99,1.86-12.35l.09-.98c-.04-.68-.09-1.36-.13-2.04-.15-2.26-.3-4.6-.35-6.96-.03-1.37,0-2.83,.06-4.56,0-.06,0-.13,0-.19,0-.03,0-.18,.01-.21,.04-.85,.08-1.66,.12-2.46l.02-.44c.05-.92,.12-1.85,.18-2.79l.03-.46c.2-3.08,.41-6.26,1.23-9.54,1.07-4.32,2.7-7.65,4.97-10.18,1.13-1.26,2.39-2.08,3.58-2.81,1.79-1.1,3.62-2.14,5.39-3.15,1.57-.9,3.2-1.82,4.74-2.76,4.28-2.59,8.6-5.42,12.85-8.39,1.88-1.84,4.37-4.01,7.46-5.25,.65-.26,1.34-.49,2.05-.68,.17-.04,.32-.08,.48-.11,.54-.13,1.01-.22,1.47-.29,.05,0,.1-.02,.15-.02,.1-.02,.2-.03,.31-.04,.77-.1,1.55-.15,2.32-.15,.09-.02,.18-.04,.28-.05,1.93-.33,3.91-.49,5.88-.49,1.87,0,3.81,.15,5.77,.44,.66,.01,1.26,.05,1.85,.09,.53,.03,1.06,.07,1.59,.07,.39,0,.68-.02,.92-.07,.65-.13,1.39-.35,2.18-.59,1.41-.43,3-.91,4.81-1.08,.36-.03,.71-.05,1.06-.05,3.66,0,6.39,1.78,8.38,3.09,.61,.4,1.19,.78,1.7,1.05,.8,.43,1.97,.65,3.32,.9,.35,.06,.69,.13,1.04,.2,2.1,.42,4.2,.83,6.31,1.23l.9,.17c2.91,.55,5.91,1.12,8.89,1.91,3.55-.49,7.06-1.34,9.78-2.05l.47-.12c6.55-1.7,13.31-3.45,20.36-4.14,2.52-.25,4.83-.37,7.06-.37,1.38,0,2.75,.05,4.05,.14,4.01,.29,7.73,1.06,10.84,1.78,4.75,1.09,9.51,2.32,14.11,3.5,2.21,.57,4.41,1.13,6.62,1.69,2.79,.7,5.81,1.13,8.98,1.27-.53-3.25,.15-6.62,2.05-9.61,2.12-3.35,5.13-5.48,8.51-6.05,.91-.27,1.84-.4,2.79-.4,.62,0,1.25,.06,1.86,.18,2.64,.52,4.95,1.92,6.5,3.84,4.05-3.11,8.81-4.96,13.54-5.16,.3-.01,.6-.02,.9-.02,.71,0,1.43,.04,2.15,.11,2.62-1.88,5.7-2.86,9.02-2.86,.36,0,.73,.01,1.1,.04,3.77,.25,7.23,1.69,9.56,3.96,1.26,1.02,2.3,2.21,3.1,3.53,1.95,3.22,2.55,6.91,1.68,10.19,.74-.07,1.49-.1,2.25-.1,1.39,0,2.81,.12,4.21,.35,6.23,1.04,10.94,3.34,14,6.84,2.69,3.07,3.47,6.11,2.33,9.02-1.6,4.06-5.66,4.71-7.61,5.02-.27,.04-.53,.08-.75,.13-1.49,.41-3.09,1.46-4.79,2.57-.8,.53-1.63,1.07-2.51,1.58,.06,.05,.12,.11,.18,.16,.13,.03,.27,.06,.4,.1,4.14,1.07,5.53,3.69,5.99,5.16,.43,1.4,.52,2.87,.26,4.33,.43,.7,.93,1.65,1.13,2.86,.06,.34,.09,.72,.1,1.11,0,.13,0,.31-.02,.46,0,.19-.03,.43-.06,.66-.02,.14-.06,.34-.09,.49-.04,.2-.09,.39-.15,.57-.04,.13-.12,.35-.17,.48-.09,.24-.17,.42-.27,.6-.06,.13-.15,.28-.24,.44-.15,.25-.27,.43-.41,.62-.09,.13-.21,.27-.34,.41-.17,.19-.34,.37-.53,.54-.16,.14-.3,.25-.44,.36-.26,.19-.47,.33-.69,.45l-.08,.05c-.37,.25-.71,.46-.99,.62l-.37,.22h0c-.8,.5-1.6,.87-2.4,1.1-.25,.39-.53,.74-.83,1.07-.26,.28-.58,.61-1,.94-1.58,1.33-3.37,1.75-4.45,2,0,0-.37,.09-.5,.12l-.23,.06c-1.18,.31-2.64,.7-4.35,.7-.13,0-.27,0-.41,0-2.24-.08-4.1-.61-5.82-1.68-.42,.05-.82,.08-1.22,.08-.76,0-1.5-.09-2.2-.27-.54-.14-1.07-.34-1.6-.61-.07-.04-.39-.21-.44-.24-.12-.07-.24-.15-.36-.23-.26-.17-.5-.36-.73-.56-.07-.06-.15-.13-.21-.19,0,0-.13-.13-.2-.19-.18-.18-.34-.36-.5-.55-.47-.02-.94-.03-1.41-.03-.19,0-.38,0-.57,.01-.45,.02-.89,.05-1.34,.08-.71,.05-1.44,.1-2.21,.11-2.72,2-5.95,4.51-8.91,7.35l-1.14,1.09c-3.17,3.05-6.46,6.2-9.9,9.18-1.29,1.11-2.6,2.19-3.91,3.27-2.39,1.96-4.65,3.82-6.71,5.84-1.37,1.35-2.93,2.89-3.91,4.41-.41,.64-.65,1.17-.74,1.62-.05,.29-.09,.58-.13,.87-.09,.67-.19,1.42-.4,2.25-.91,3.6-2.14,6.66-3.77,9.36-.61,1-1.24,1.89-1.85,2.75-.3,.42-.59,.83-.88,1.25l-.24,.36c-.27,.39-.71,1.03-.84,1.34-.03,.25-.04,.5-.06,.74-.08,1.13-.18,2.67-.85,4.36-.57,1.44-1.26,2.96-2.39,4.37-1.21,1.51-2.66,2.85-4.25,3.94h0c-.1,.33-.2,.66-.29,.99l-.07,.28c-.09,.34-.18,.68-.25,1.02l-.07,.34c-.07,.32-.14,.66-.2,1l-.1,.61c-.04,.24-.08,.49-.12,.73,0,0-.14,1.23-.16,1.36-.02,.25-.04,.5-.06,.75l-.05,.62c-.02,.44-.04,.88-.04,1.33-.02,1.03,0,1.86,.12,2.56,.2,1.18,.47,2.8,.27,4.59-.14,1.33-.46,2.5-.74,3.53-.26,.95-.48,1.76-.47,2.36,.06,3.93,1.27,8.08,2.32,11.26,.57,1.73,1.16,3.52,1.92,5.1,.41,.85,.77,1.48,1.13,2.01,.17,.25,.36,.48,.54,.72,.32,.41,.7,.9,1.08,1.47,1.46,.76,2.87,1.76,4.2,3.01,4.22,3.92,5.35,7.63,3.35,11.02-.55,.93-1.38,1.67-2.36,2.13-.38,.24-.79,.44-1.21,.58-3.96,1.33-8.67,2.68-13.55,2.68h-.36c-2.01-.03-4.54-.06-6.98-1.08-.15,.19-.3,.38-.46,.56-1.12,1.21-2.65,2.02-4.25,2.29-1.92,1.03-4.13,1.27-5.82,1.33-.46,.02-.93,.02-1.39,.03-.61,0-1.18,.01-1.67,.06-1,.09-1.91,.13-2.75,.13Zm4.6-38.82c-.07,.32-.14,.64-.2,.97-.14,.77-.03,1.96,.06,2.92,.2,2.16,.62,4.44,1.3,6.99,.08,.31,.17,.63,.27,.94,.25,.86,.54,1.84,.72,2.93l.02-.1c.08-.4,.2-.8,.35-1.23,.01-.03,.02-.06,.03-.09,.08-.21,.17-.43,.26-.64-.03-.44-.14-2.07-.14-2.07l-.13-2.27c-.04-.64-.08-1.28-.12-1.91l-.05-.6c-.03-.44-.07-.89-.12-1.34-.02-.24-.05-.45-.07-.67-.05-.42-.1-.85-.16-1.27l-.08-.57c-.09-.58-.2-1.16-.32-1.73-.15-.68-.33-1.36-.54-2.07-.01,.02-.47,.8-.47,.8-.21,.35-.41,.69-.61,1.04Z"/><g><path class="h" d="M283.08,29.64c-2.71-3.1-7.06-4.53-11.05-5.2-4.04-.67-8.43-.2-11.99,1.98,.04-1.57-.42-3.16-1.16-4.66,1.3-.63,2.29-2.48,2.63-3.62,.66-2.21,.07-4.59-1.07-6.48-.56-.93-1.31-1.72-2.16-2.38-1.64-1.71-4.21-2.55-6.55-2.71-3.19-.21-6.07,.89-8.29,3.11-1.41-.29-2.86-.42-4.34-.36-5.79,.24-11.33,3.73-14.86,8.25-.67,.86-1.3,1.78-2.2,2.42,.65-1.84,.74-3.98,.24-5.78-.55-1.97-2.46-3.27-4.4-3.65-.87-.17-1.75-.09-2.56,.2-2.28,.26-4.16,1.84-5.42,3.83-1.83,2.89-1.92,6.25-.24,9.11,.63,1.07,1.47,1.99,2.44,2.77-.07,.04-.15,.07-.22,.11h-.02c-.93,0-1.87,.03-2.82,.04-1.8,.02-3.59-.01-5.38-.08-3.45-.14-6.9-.59-10.23-1.42-6.88-1.72-13.72-3.57-20.63-5.16-3.34-.77-6.64-1.41-10.08-1.66-3.41-.25-6.85-.12-10.26,.21-6.81,.66-13.43,2.41-20.05,4.12-3.76,.97-7.55,1.83-11.38,2.29-3.39-.95-6.93-1.6-10.38-2.26-2.12-.4-4.24-.82-6.35-1.24-1.97-.39-3.95-.65-5.72-1.58-2.69-1.43-4.98-3.84-8.33-3.53-2.21,.21-4.31,1.16-6.47,1.6-1.85,.37-3.83,0-5.69,0-.01,0-.02,0-.03,0-3.44-.55-6.88-.62-10.42-.02-.12,.02-.22,.08-.3,.14-1.93-.09-3.87,.17-5.73,.91-2.3,.92-4.31,2.67-6.1,4.46-4.39,3.08-8.89,6.04-13.48,8.82-3.34,2.02-6.79,3.86-10.11,5.89-.89,.54-1.78,1.11-2.47,1.88-2,2.23-3.15,5.25-3.84,8.05-.75,3-.92,6.07-1.12,9.13-.23,3.41-.45,6.82-.39,10.23,.06,3.06,.31,6.12,.49,9.18-.45,4.9-.8,9.85-2.15,14.62-1.54,5.42-4.08,10.61-6.55,15.7-2.36,4.86-5.13,9.63-6.97,14.68-1.84,5.05-3,11-1.92,16.28,.12,.59,1.07,0,1.09-.41,0-.09,.01-.17,.02-.26,0,.09,.01,.17,.02,.26,.14,1.97,.51,3.93,1.13,5.8,.62,1.87,1.39,3.92,2.44,5.62,.2,.32,.89,.03,.8-.32-.51-2.01-1.12-4.01-1.31-6.09-.11-1.16-.21-2.33-.28-3.51,.13,1.08,.3,2.15,.59,3.18,.28,.99,.57,1.99,1.03,2.92,.41,.83,.93,1.57,1.23,2.45,.02,.06,.07,.09,.14,.11,.18,.52,.36,1.04,.56,1.56,.23,.59,1.25-.03,1.16-.52-.45-2.37-1.11-4.7-1.4-7.09-.3-2.45-.1-4.98,.1-7.43,.12-1.43,.32-2.84,.61-4.22,0,.05,.02,.09,.03,.14,.45,2.15,1.22,4.25,1.8,6.37,.32,1.19,.62,2.38,.88,3.59,.51,2.35,.83,4.74,.94,7.14,.13,2.88-.04,5.77-.31,8.64-.42,4.53-.96,9.05-1.44,13.57-.02,.07-.04,.13-.06,.2-.55,1.62-1.79,2.73-2.7,4.13-.33,.51-.2,.83,.11,1.05-.67,.85-1.51,3.02-1.12,4.01-.02,.14,.01,.3,.15,.37,.97,.49,1.86-.11,2.68-.59,.28-.17,.59-.39,.86-.5h.02c.09,.1,.18,.22,.26,.3,.03,.03,.05,.05,.08,.07-.04,.18-.07,.36-.07,.52,0,.49,.49,.87,.77,1.21,.63,.75,.21,2.11-.14,2.86-.49,1.07-1.14,2.29-.58,3.45,.1,.21,.22,.4,.35,.57,.79,1.64,3.29,2.46,5.09,2.8,2,.37,4.03,.53,6.05,.66,1.12,.07,2.25,.03,3.37-.01,1.09-.04,2.22-.06,3.2-.55,.31-.16,.52-.47,.59-.8h0c.16-.03,.32-.09,.49-.21,.53-.38,.31-1.16,.18-1.66-.3-1.2-1.09-2.37-1.79-3.39-.65-.96-1.34-1.94-2.09-2.84,.08-.24,.08-.55-.02-.9-.5-1.73-2.06-3.05-3.01-4.53-3.1-4.82-2.27-10.77-1.33-16.08,1.04-5.92,2.49-11.92,4.55-17.61,1.01-2.78,2.2-5.47,3.6-8.1,1.44-2.69,3.18-5.28,4.31-8.11,.02-.05,.03-.09,.04-.13,.75-1.28,1.53-2.55,2.36-3.79,1.81-2.73,4.08-5.16,6.32-7.57,.54-.58,1.11-1.16,1.7-1.72-.33,1.29-.66,2.59-1.12,3.85-.85,2.33-2.32,4.42-3.41,6.65-1.14,2.34-1.58,5.3-.77,7.77,.79,2.42,2.46,4.45,3.6,6.72,4.82,9.59,4.94,20.7,9.07,30.52,.12,.38,.25,.76,.36,1.15,.43,1.49-.43,2.76-.52,4.17-.05,.04-.09,.08-.11,.13-.57,1.31-.52,2.6-.01,3.92,.33,.84,.87,1.41,1.76,.92,.3-.06,.58-.24,.63-.48,.02-.14,.08-.27,.15-.41,.08-.07,.18-.13,.29-.14,1.19-.2,1.77,.79,2.02,1.72,.05,.19,.1,.38,.14,.58,.03,.55,.04,1.11,.07,1.66-.01,.06-.02,.12-.04,.19-.02,.09-.05,.18-.07,.27-.3,.6-.27,1.4,.02,1.91,.49,.88,1.46,1.38,2.37,1.78,2.67,1.18,5.53,1.04,8.39,.83,1.8-.13,3.77-.31,5.46-1,.09-.04,.18-.07,.28-.11,.28-.08,.56-.18,.82-.31,.44-.18,.88-.41,1.19-.71,.66-.05,1.36-.44,2.01-.54,.2-.03,.59-.25,.55-.49-.51-3.19-3.71-4.75-6.45-6.04,.19-.21,.3-.47,.23-.69-.63-2.08-2.88-3.67-4.38-5.17-1.95-1.94-3.41-4.09-4.52-6.57-2.12-4.73-3.8-9.7-4.85-14.76-1.02-4.95-1.32-10.71,.58-15.52,1.61-4.09,4.29-7.77,5.22-12.07,1.38,.8,2.48-.57,2.89-1.74,.08-.22,.14-.44,.19-.67,.13,.6,.33,1.17,.61,1.65,.29,.5,.85,.59,1.38,.44,.74-.21,1.03-1.07,1.18-1.71,.18-.76,.26-1.54,.45-2.3,.12-.47,.29-1.06,.84-1.21,.72-.19,1.73,.15,2.47,.2,1.32,.09,2.47-.22,3.71-.65,1.13-.39,1.99-1.09,3.02-1.62,.02-.01,.04-.02,.06-.04,.55,.16,1.09,.34,1.62,.56,1.26,.51,2.41,1.25,3.53,2,2.74,1.83,5.18,4.06,7.92,5.89,2.56,1.72,5.23,3.01,8.43,2.79,3.27-.23,5.38-2.42,7.93-4.11,5.32-3.55,12.31-4.29,18.54-4.2,2.91,.04,5.78,.48,8.58,1.21,1.92,.5,4.17,1.26,5.1,3.12,.2,.4,.37,.8,.48,1.23,.17,3.39,.1,6.75-.06,10.17-.17,3.76-.47,7.67,0,11.41,.22,1.79,1.28,3.17,2.32,4.59,.12,.16,.25,.33,.37,.49,1.18,3.47,1.81,7.06,1.85,10.76,.02,1.93-.05,3.86-.11,5.79-.03,.97-.08,1.99-.07,3-.04,.53-.05,1.06-.08,1.54-.04,.66-.02,1.32-.04,1.98-.04,1.11-.8,1.61-1.27,2.5-.33,.63-.5,1.34-.33,1.98-.6,1.07-.6,2.5-.37,3.65,.08,.39,.43,1.08,.86,1.25,.09,.1,.22,.16,.37,.17,1.19,.06,1.84-1.32,2.42-2.14-.03,.05-.02,.04,.01,0,.17,.15,.32,.31,.49,.47-.11,.42-.26,.83-.47,1.26-.24,.48-.51,.97-.58,1.51-.11,.81-.12,2.42,.98,2.53,.04,0,.07,0,.11,0,.8,3.01,3.04,5.07,6.35,5.66,1.63,.29,3.33,.25,4.96,.1,1.1-.1,2.2-.06,3.3-.1,1.26-.05,3.45-.22,4.4-1.32,.75,.25,1.7-.15,2.21-.7,.89-.96,.52-1.92-.26-2.8-.94-1.06-1.9-2.09-2.97-3.02-.62-.54-1.26-1.06-1.9-1.58-.4-.33-.79-.7-1.21-1.03,.14-.29,.16-.66-.09-.89-.26-1.84-1.95-2.16-2.93-3.57-.65-.94-.86-1.91-1.04-3.03-.19-1.19-.59-2.33-.9-3.49-.68-2.57-1.21-5.17-1.45-7.82-.13-1.4-.25-2.88,0-4.27,.11-.62,.26-1.24,.4-1.86,.44-.84,.95-1.65,1.45-2.51,1.11-1.9,1.42-4.05,1.36-6.2-.08-2.77-.31-5.52-.3-8.3,.01-2.66,.03-5.33,.18-7.99,.12-2.13,.44-4.18,.98-6.22,.27,.05,.53,.13,.78,.24,.51,.21,1.01,.44,1.5,.68,.29,.67,.5,1.38,.67,2.03,.42,1.62,.52,3.32,.56,4.98,.1,3.73-.69,7.49-.33,11.21,.22,2.22,1.3,4.19,2.15,6.22,.92,2.2,1.7,4.45,2.22,6.78,1.05,4.72,.94,9.59,1.4,14.38-.27,.7-.69,1.39-.84,2.11-.05,.24-.02,.53,.11,.74-.59,1.34-.13,3.41,.46,4.54,.19,.36,.48,.82,.9,.83,.22,.08,.59-.04,.71-.17,.48-.47,.87-1.27,1.49-1.56,.03-.02,.07-.02,.1-.03,.09,.15,.02,0,.06,.15,.05,.17,.08,.35,.1,.53,.07,.49,.21,1,.44,1.44,.02,.03,.04,.06,.06,.09-.14,.73-.32,1.45-.34,2.19-.02,.59-.01,1.32,.13,1.99,0,.22-.01,.44,.01,.65,.04,.46,.09,1.17,.39,1.53,.25,.31,.7,.52,1.03,.74,1.74,1.16,4.06,1.18,6.09,1.2,4.19,.06,8.33-1.1,12.25-2.42,.12-.04,.27-.15,.35-.29,.19,0,.44-.1,.51-.23,.97-1.65-1.34-3.81-2.44-4.83-1.35-1.25-2.9-2.3-4.64-2.89,.03-.17,0-.33-.06-.46,0-.07,0-.14-.05-.22-.5-.88-1.2-1.62-1.78-2.46-.58-.85-1.07-1.75-1.52-2.68-.89-1.84-1.53-3.78-2.17-5.72-1.34-4.07-2.5-8.42-2.57-12.74-.04-2.28,1-4.3,1.24-6.52,.12-1.08-.06-2.16-.23-3.22-.19-1.14-.2-2.3-.19-3.45,.06-4.11,.79-8.4,2.24-12.28,1.74-.93,3.28-2.23,4.51-3.76,.74-.92,1.22-2.01,1.65-3.1,.53-1.32,.44-2.59,.6-3.95,.16-1.36,1.15-2.68,1.9-3.79,.86-1.27,1.8-2.47,2.6-3.79,1.5-2.49,2.5-5.21,3.2-8.01,.23-.91,.28-1.88,.45-2.81,.23-1.23,.77-2.35,1.45-3.41,1.24-1.94,2.97-3.65,4.6-5.27,3.39-3.34,7.25-6.21,10.86-9.33,3.74-3.24,7.27-6.67,10.84-10.1,3.36-3.23,7.01-6.05,10.8-8.78,.06,0,.12,.01,.19,.01,1.58,.1,3.15-.1,4.73-.17,.85-.04,1.69,0,2.54,.03,1.01,.04,2.01,.28,3.02,.26,0,.11,0,.22,.01,.33,.09,1.09,.9,1.88,1.92,2.14,.75,.19,1.52,.12,2.28-.05,.18,.05,.36,.07,.57,.08,.72,.04,1.25,.3,1.83,.68,1.1,.71,2.18,.97,3.5,1.01,1.23,.04,2.35-.28,3.53-.59,1.03-.27,2.25-.43,3.07-1.17,.18-.14,.35-.31,.5-.47,.19-.21,.34-.43,.46-.65,.22-.3,.38-.62,.51-.99,.61-.21,1.21-.45,1.79-.74,.51-.07,1.07-.35,1.47-.61,.04-.03,.09-.05,.13-.08,.06-.04,.12-.07,.18-.11,.37-.22,.76-.44,1.1-.71,.83-.29,1.22-1.28,1.08-2.1-.2-1.2-1.56-2.1-1.5-3.36,.02-.05,.04-.09,.06-.14,.4-.98,.52-2.04,.21-3.04-.33-1.06-1.48-1.55-2.45-1.8-.51-.13-1.04-.24-1.56-.35h0c-1.05-1.07-2.26-1.93-3.27-3.06-1.08-1.22-2.03-2.56-3.01-3.86-.37-.5-.76-.99-1.14-1.49,1.04,.39,2.12,.73,3.25,.73,1.29,0,2.53-.62,3.63-1.26,2.85-1.64,5.54-3.92,8.74-4.8,1.53-.42,4.31-.31,5.03-2.16,.56-1.43-.57-2.9-1.44-3.89ZM25.59,104.43c-.26,4.72-1.09,9.6-3.63,13.76-1.24,2.03-3.02,3.51-4.81,5.08-.13,.11-.25,.23-.37,.34,.36-.92,.74-1.83,1.16-2.74,1.93-4.21,4.14-8.3,5.9-12.59,.7-1.72,1.26-3.48,1.82-5.24-.02,.46-.03,.92-.06,1.39ZM217.71,19.99c-.71-.43-1.16-1.21-1.18-2.04-.04-1.25,1.23-1.53,2.13-.95,1.09,.7,1.63,2.33,1.64,3.61-.92,.06-1.89-.19-2.59-.61Zm35.79-5c-.79-.72-1.63-1.39-2.51-1.99,.65,.25,1.27,.4,1.86,.77,.63,.45,1.1,1.03,1.22,1.77-.19-.19-.39-.37-.58-.54Z"/><path class="j" d="M178.38,138.83c-.54,9.13,2.64,18.51-1.92,27.21,.1,1.82,.2,3.65,.37,5.46-.27,.7-.69,1.39-.84,2.11-.05,.24-.02,.53,.11,.74-.59,1.34-.13,3.41,.46,4.54,.19,.36,.48,.82,.9,.83,.22,.08,.59-.04,.71-.17,.48-.47,.87-1.27,1.49-1.56,.03-.02,.07-.02,.1-.03,.09,.15,.02,0,.06,.15,.05,.17,.08,.35,.1,.53,.07,.49,.21,1,.44,1.44,.02,.03,.04,.06,.06,.09-.14,.73-.32,1.45-.34,2.19-.02,.59-.01,1.32,.13,1.99,0,.22-.01,.44,.01,.65,.04,.46,.09,1.17,.39,1.53,.25,.31,.7,.52,1.03,.74,1.74,1.16,4.06,1.18,6.09,1.2,4.19,.06,8.33-1.1,12.25-2.42,.12-.04,.27-.15,.35-.29,.19,0,.44-.1,.51-.23,.97-1.65-1.34-3.81-2.44-4.83-1.35-1.25-2.9-2.3-4.64-2.89,.03-.17,0-.33-.06-.46,0-.07,0-.14-.05-.22-.5-.88-1.2-1.62-1.78-2.46-.58-.85-1.07-1.75-1.52-2.68-.89-1.84-1.53-3.78-2.17-5.72-1.34-4.07-2.5-8.42-2.57-12.74-.04-2.28,1-4.3,1.24-6.52,.12-1.08-.06-2.16-.23-3.22-.19-1.14-.2-2.3-.19-3.45,.06-4.09,.78-8.37,2.22-12.24-2.39,1.2-4.98,2.1-7.66,2.85-2.03,.87-2.61,4.94-2.61,7.84Z"/><g><path class="i" d="M157.76,157.99c-1.45-6.1-6.68-10.74-4.65-17.13,1.45-5.52,3.77-11.03,1.74-16.26-5.23-12.48-.58-24.68-3.48-36.87-.87-2.61-5.52,1.45-7.26,3.77-4.36,5.52-7.55,12.19-13.94,14.23-14.81,4.94-29.62-2.9-42.68-11.32-13.65-8.71-34.55-6.39-41.81,8.13-7.83,15.43-13.53,31.83-15.83,48.73,.78-3.17,1.71-6.31,2.82-9.36,1.01-2.78,2.2-5.47,3.6-8.1,1.44-2.69,3.18-5.28,4.31-8.11,.02-.05,.03-.09,.04-.13,.75-1.28,1.53-2.55,2.36-3.79,1.81-2.73,4.08-5.16,6.32-7.57,.54-.58,1.11-1.16,1.7-1.72-.33,1.29-.66,2.59-1.12,3.85-.85,2.33-2.32,4.42-3.41,6.65-1.14,2.34-1.58,5.3-.77,7.77,.79,2.42,2.46,4.45,3.6,6.72,4.35,8.65,4.87,18.53,7.96,27.59,.4-8.54-1.69-16.86-2.58-25.35-1.16-10.16,1.16-23.23,12.19-26.13,5.65-1.41,10.68,.06,14.86,3.15,.65-.12,1.28-.31,1.94-.54,1.13-.39,1.99-1.09,3.02-1.62,.02-.01,.04-.02,.06-.04,.55,.16,1.09,.34,1.62,.56,1.26,.51,2.41,1.25,3.53,2,2.74,1.83,5.18,4.06,7.92,5.89,2.56,1.72,5.23,3.01,8.43,2.79,3.27-.23,5.38-2.42,7.93-4.11,5.32-3.55,12.31-4.29,18.54-4.2,2.91,.04,5.78,.48,8.58,1.21,1.92,.5,4.17,1.26,5.1,3.12,.2,.4,.37,.8,.48,1.23,.17,3.39,.1,6.75-.06,10.17-.17,3.76-.47,7.67,0,11.41,.22,1.79,1.28,3.17,2.32,4.59,.12,.16,.25,.33,.37,.49,1.18,3.47,1.81,7.06,1.85,10.76,.02,1.93-.05,3.86-.11,5.79-.03,.97-.08,1.99-.07,3-.04,.53-.05,1.06-.08,1.54-.04,.66-.02,1.32-.04,1.98-.04,1.11-.8,1.61-1.27,2.5-.33,.63-.5,1.34-.33,1.98-.5,.89-.58,2.03-.46,3.05,1.13-1.99,2.26-3.97,3.24-6.02,2.61-5.23,4.65-10.45,3.48-16.26Z"/><path class="i" d="M251.26,57.24c-.58-.58-1.74-.58-2.32-1.16-.87-.58-1.74-1.16-2.61-1.45-4.36-1.74-9-2.03-13.07-4.36-3.48-1.74-4.06-6.1-6.68-9-1.74,5.23,.58,10.45,.29,15.68-.58,10.74-9,16.84-17.71,21.2-2.61,1.16-6.39-2.9-7.55,.58-1.16,2.9,.58,6.1,.87,9.29,.87,7.55-8.42,10.16-11.9,15.68-1.45,2.32-2.61,4.65-4.36,6.68-3.48,4.36-9.29,2.32-13.36,4.65-4.44,2.54-5.49,7.38-5.51,12.29,.14-.78,.32-1.56,.52-2.33,.27,.05,.53,.13,.78,.24,.51,.21,1.01,.44,1.5,.68,.29,.67,.5,1.38,.67,2.03,.42,1.62,.52,3.32,.56,4.98,.1,3.73-.69,7.49-.33,11.21,.22,2.22,1.3,4.19,2.15,6.22,.92,2.2,1.7,4.45,2.22,6.78,.66,2.93,.86,5.93,1.03,8.92,4.57-8.71,1.39-18.08,1.92-27.21,0-2.9,.58-6.97,2.61-7.84,2.68-.75,5.27-1.66,7.66-2.85v-.04c1.76-.93,3.3-2.23,4.53-3.76,.74-.92,1.22-2.01,1.65-3.1,.53-1.32,.44-2.59,.6-3.95,.16-1.36,1.15-2.68,1.9-3.79,.86-1.27,1.8-2.47,2.6-3.79,1.5-2.49,2.5-5.21,3.2-8.01,.23-.91,.28-1.88,.45-2.81,.23-1.23,.77-2.35,1.45-3.41,1.24-1.94,2.97-3.65,4.6-5.27,3.39-3.34,7.25-6.21,10.86-9.33,3.74-3.24,7.27-6.67,10.84-10.1,3.36-3.23,7.01-6.05,10.8-8.78,.06,0,.12,.01,.19,.01,1.58,.1,3.15-.1,4.73-.17,.85-.04,1.69,0,2.54,.03,1.01,.04,2.01,.28,3.02,.26,0,.11,0,.22,.01,.33,.06,.8,.52,1.43,1.15,1.82,.73-2.65,.39-5.12-2.5-7.05Z"/><path class="i" d="M33.2,45.34c5.23-4.65,12.48-5.52,17.71-10.45,4.99-5.24,8.27-11.98,13.69-16.72-1.02,.14-2.03,.4-3.02,.79-2.3,.92-4.31,2.67-6.1,4.46-4.39,3.08-8.89,6.04-13.48,8.82-3.34,2.02-6.79,3.86-10.11,5.89-.89,.54-1.78,1.11-2.47,1.88-2,2.23-3.15,5.25-3.84,8.05-.75,3-.92,6.07-1.12,9.13-.13,1.92-.25,3.83-.33,5.75,1.49-6.69,3.7-13,9.07-17.6Z"/><path class="i" d="M19.85,169.03c3.48-11.61,1.16-23.23,1.45-34.55,0-8.42,7.84-14.52,10.16-22.94,2.9-11.32-2.03-21.78-4.65-32.23,0,6.68,.87,13.07-2.9,19.16-9.05,13.93-17.17,29.89-14.43,45.53,.58,1.66,1.28,3.41,2.19,4.89,.2,.32,.89,.03,.8-.32-.51-2.01-1.12-4.01-1.31-6.09-.11-1.16-.21-2.33-.28-3.51,.13,1.08,.3,2.15,.59,3.18,.28,.99,.57,1.99,1.03,2.92,.41,.83,.93,1.57,1.23,2.45,.02,.06,.07,.09,.14,.11,.18,.52,.36,1.04,.56,1.56,.23,.59,1.25-.03,1.16-.52-.45-2.37-1.11-4.7-1.4-7.09-.3-2.45-.1-4.98,.1-7.43,.12-1.43,.32-2.84,.61-4.22,0,.05,.02,.09,.03,.14,.45,2.15,1.22,4.25,1.8,6.37,.32,1.19,.62,2.38,.88,3.59,.51,2.35,.83,4.74,.94,7.14,.13,2.88-.04,5.77-.31,8.64-.42,4.53-.96,9.05-1.44,13.57-.02,.07-.04,.13-.06,.2-.55,1.62-1.79,2.73-2.7,4.13-.15,.22-.2,.41-.19,.57,2.73-.89,5.15-2.29,6.01-5.23Zm-2.7-45.75c-.13,.11-.25,.23-.37,.34,.36-.92,.74-1.83,1.16-2.74,1.93-4.21,4.14-8.3,5.9-12.59,.7-1.72,1.26-3.48,1.82-5.24-.02,.46-.03,.92-.06,1.39-.26,4.72-1.09,9.6-3.63,13.76-1.24,2.03-3.02,3.51-4.81,5.08Z"/></g><g><path class="n" d="M264.21,41.44c-2.15-2.6-5.11-4.73-6.6-7.82-2.6-5.4,.09-12.09-3.26-17.18-3.79-5.77-12.09-6.79-18.28-5.34-2.11,.49-4.04,1.57-5.68,2.97-.62,.53-1.25,.98-1.68,1.69-2.87,4.85,7.95,1.52,10.55,2.52,7.08,2.72,8.55,7.09,9.78,14.03,.63,3.57,2.01,4.28,4.8,6.37,4.32,3.23,8.24,7.23,13.01,9.8-.11-.25-.2-.5-.29-.75-.74-2.13-.84-4.44-2.36-6.28Z"/><path class="n" d="M205.91,29.18c-4.91-.06-9.97-.09-14.84-.89-2.13-.35-4.27-.56-6.39-.98-2.41-.48-4.7-1.67-7.05-2.44-2.21-.73-4.36-1.57-6.52-2.42-2.31-.91-5.14-1.04-7.59-1.28-4.41-.44-8.97-.05-13.36,.46-4.46,.52-8.89,1.38-13.27,2.38-2.03,.47-4.04,1.04-6.09,1.42-2.28,.42-4.58,.63-6.88,.9-4.39,.51-8.84,.59-13.21,1.27-4.31,.67-8.5,2.05-12.63,3.42-4.82,1.6-10.06,2.19-15.12,1.8-2.41-.19-4.77-.67-7.07-1.42-2.29-.75-4.51-1.69-6.88-2.2-6.01-1.28-10.61,2.57-14.74,6.37-1.77,1.63-3.54,3.28-5.3,4.95-3.78,2.18-7.6,4.23-9.96,8.1-2.99,4.92-3.12,11.03-3.87,16.58-.51,3.79,.48,7.51,1.48,11.13,.44,1.58,4.16-.04,4.36-1.27,1.86-11.64,8.54-20.72,18.28-27.19,5.83-3.87,13.03-5.77,19.8-7.93,.82-.26,1.62-.53,2.42-.8,.35,.02,.7,.04,1.05,.05-1.53,.92-3.02,2-4.46,3.29-3.31,2.95-6.17,6.63-7.73,10.8-1.3,3.48-2.65,10.7-.84,14.22,2.74,5.31,10.87-7.27,14.95-6.63,4.4,.68,8.17,3.2,12.78,3.17,4.44-.04,9.26-1.59,13.31-3.33,8.5-3.65,15.61-10.07,23.35-15.01,13.86-8.84,28.94-8.24,44.69-8.57,7.94-.16,17.01-1.04,23.48-6.15-.1-.16-.21-.3-.34-.41,1.81-.16,3.62-.36,5.45-.43,1.07-.04-.84-.96-1.27-.97Z"/><path class="n" d="M111.27,109.78c-3.24-.55-6.32-.81-9.43-1.96-2.57-.95-5.12-1.69-7.56-2.98-5.05-2.66-10.1-5.32-15.2-7.88-4.65-2.34-9.68-3.94-14.92-4-3.18-.03-6.55,.95-9.5,2.04-1.1,.4-2.27,.92-3.29,1.5-.97,.55-1.74,1.56-2.66,2.22-.11,.08,.69,.75,.89,.68,1.19-.4,2.38-.74,3.43-1.43,1.75-1.15,3.65-1.54,5.78-1.45,2.47,.11,5.11,.58,7.51,1.15,2.27,.55,4.48,1.43,6.65,2.27,2.21,.86,4.56,1.29,6.81,2.05,4.95,1.67,9.61,4.03,14.62,5.57,3.04,.93,6.1,1.57,9.24,2.05,1.38,.21,2.77,.39,4.16,.56,1.32,.16,2.81,.43,4.14,.21,.12-.02-.49-.58-.66-.61Z"/></g><path class="k" d="M54.3,108.73s4.45-5.71,15.78-3c11.32,2.71,19.55,6.28,19.55,6.28,0,0-1.79,2.4-4.57,3.29s-5.34,.44-6.77,.89c-1.43,.44-2.11,.5-2.35,2.04-.24,1.54,.04,3.44-.77,3.18-.81-.25-1.22-.67-1.37-.81s-.52-2.48-.52-2.48c0,0-.49,2.95-1.31,3.31-.82,.37-1.69,0-1.69,0l-.39-2.15v-2.73l-.58-1.62-1.35-.26-.42,2.87-.2,2.03s-.14,1.21-1.34,.78c-1.2-.44-1.81-5.04-1.81-5.04l-.68-.68s-.48-.28-.48,0v2.81l-.72,2.8-1.68,.97-1.16-1.16s-1.89-4.35-1.97-6.1c-.08-1.74-.85-3.21-1.48-3.49-.63-.28-1.7-1.74-1.7-1.74Z"/><path class="d" d="M223.65,18.33c-.48,.61-.98,1.21-1.61,1.66,.65-1.84,.74-3.98,.24-5.78-.55-1.97-2.46-3.27-4.4-3.65-.87-.17-1.75-.09-2.56,.2-2.28,.26-4.16,1.84-5.42,3.83-1.83,2.89-1.92,6.25-.24,9.11,.63,1.07,1.47,1.99,2.44,2.77-.07,.04-.15,.07-.22,.11h-.06c2.34,.95,5.15,1.22,7.5,1.04,2.9,0,6.1,0,8.13-2.32,.17-.22,.33-.45,.49-.69-.41-2.6-2.04-5.01-4.28-6.28Zm-5.94,1.65c-.71-.43-1.16-1.21-1.18-2.04-.04-1.25,1.23-1.53,2.13-.95,1.09,.7,1.63,2.33,1.64,3.61-.92,.06-1.89-.19-2.59-.61Z"/><path class="c" d="M232.82,29.08s2.27-1.72,4.16-1.3c1.89,.43,4.43,3.06,4.43,3.06,0,0-1.06,.53-2.11,.87-1.04,.34-3.12-.17-3.97-.75s-2.52-1.89-2.52-1.89Z"/><path class="k" d="M204.53,50.37s2.29-5.77,6.49-11.09,6.14-7.19,9.12-7.22c2.97-.03,4.74-.12,5.3-.68,.56-.56,1.12,1.49,1.36,4.45,.24,2.95-.36,11-3.89,13.32-3.53,2.32-6.69,1.52-8.67,1.23-1.98-.29-4.25,.07-5.77,.37-1.53,.31-3.13,1.32-3.59,.87s-.34-1.24-.34-1.24Z"/><path class="k" d="M283.08,29.64c-2.71-3.1-7.06-4.53-11.05-5.2-4.04-.67-8.43-.2-11.99,1.98,0-.14,0-.28,0-.42-3.96,5.81-.13,11.55,4.24,15.54-.13-.17-.27-.35-.4-.52,1.04,.39,2.12,.73,3.25,.73,1.29,0,2.53-.62,3.63-1.26,2.85-1.64,5.54-3.92,8.74-4.8,1.53-.42,4.31-.31,5.03-2.16,.56-1.43-.57-2.9-1.44-3.89Z"/><path class="b" d="M276.53,58.12c-.2-1.2-1.56-2.1-1.5-3.36,.02-.05,.04-.09,.06-.14,.4-.98,.52-2.04,.21-3.04-.33-1.06-1.48-1.55-2.45-1.8-.51-.13-1.04-.24-1.56-.35h0c-.1-.1-.19-.2-.29-.29-7.67,1.16-19.42-.27-15.95,10.13,0,.58-.29,1.74-.58,1.74-.76,.55-1.32,1.17-1.78,1.84,.22,.89,.96,1.53,1.86,1.76,.75,.19,1.52,.12,2.28-.05,.18,.05,.36,.07,.57,.08,.72,.04,1.25,.3,1.83,.68,1.1,.71,2.18,.97,3.5,1.01,1.23,.04,2.35-.28,3.53-.59,1.03-.27,2.25-.43,3.07-1.17,.18-.14,.35-.31,.5-.47,.19-.21,.34-.43,.46-.65,.22-.3,.38-.62,.51-.99,.61-.21,1.21-.45,1.79-.74,.51-.07,1.07-.35,1.47-.61,.04-.03,.09-.05,.13-.08,.06-.04,.12-.07,.18-.11,.37-.22,.76-.44,1.1-.71,.83-.29,1.22-1.28,1.08-2.1Z"/><path class="m" d="M36.37,187.24c-.3-1.2-1.09-2.37-1.79-3.39-.65-.96-1.34-1.94-2.09-2.84,.07-.21,.07-.47,0-.77-.06,.03-.11,.07-.17,.1-4.76,2.14-10.69,1.94-15.4,4.37-.15,.58-.17,1.16,.11,1.74,.1,.21,.22,.4,.35,.57,.79,1.64,3.29,2.46,5.09,2.8,2,.37,4.03,.53,6.05,.66,1.12,.07,2.25,.03,3.37-.01,1.09-.04,2.22-.06,3.2-.55,.31-.16,.52-.47,.59-.8h0c.16-.03,.32-.09,.49-.21,.53-.38,.31-1.16,.18-1.66Z"/><path class="m" d="M17.52,175.12c-.88-1.03-2.37-1.31-3.69-.96-.03,.25,.1,.43,.3,.58-.67,.85-1.51,3.02-1.12,4.01-.02,.14,.01,.3,.15,.37,.97,.49,1.86-.11,2.68-.59,.28-.17,.59-.39,.86-.5h.02c.09,.1,.18,.22,.26,.3,.03,.03,.05,.05,.08,.07-.04,.18-.07,.36-.07,.52,0,.03,0,.06,.01,.1,.76-1.29,1.5-2.53,.52-3.9Z"/><path class="m" d="M154.7,185.73c.13,.11,.3,.18,.51,.2,.04,0,.07,0,.11,0,.8,3.01,3.04,5.07,6.35,5.66,1.63,.29,3.33,.25,4.96,.1,1.1-.1,2.2-.06,3.3-.1,1.26-.05,3.45-.22,4.4-1.32,.75,.25,1.7-.15,2.21-.7,.89-.96,.52-1.92-.26-2.8-.94-1.06-1.9-2.09-2.97-3.02-.62-.54-1.26-1.06-1.9-1.58-.4-.33-.79-.7-1.21-1.03,.13-.27,.15-.6-.04-.83-3.89,1.71-8.78,1.4-12.99,2.95-1.14,.29-2,1.27-2.48,2.47Z"/><path class="m" d="M180.41,174.83c-.85-1.36-2.71-2.13-4.27-1.76-.07,.18-.12,.36-.16,.54-.05,.24-.02,.53,.11,.74-.59,1.34-.13,3.41,.46,4.54,.19,.36,.48,.82,.9,.83,.22,.08,.59-.04,.71-.17,.48-.47,.87-1.27,1.49-1.56,.03-.02,.07-.02,.1-.03,.09,.15,.02,0,.06,.15,.05,.17,.08,.35,.1,.53,0,.03,0,.05,.01,.08,.79-1.23,1.31-2.63,.47-3.89Z"/><path class="m" d="M198.4,180.73c-1.35-1.25-2.9-2.3-4.64-2.89,0-.06,.01-.12,0-.18-3.43,2.37-7.17,4.37-11.61,3.56-.6-.12-1.31-.14-1.95,.05-.06,.36-.11,.72-.13,1.09-.02,.59-.01,1.32,.13,1.99,0,.22-.01,.44,.01,.65,.04,.46,.09,1.17,.39,1.53,.25,.31,.7,.52,1.03,.74,1.74,1.16,4.06,1.18,6.09,1.2,4.19,.06,8.33-1.1,12.25-2.42,.12-.04,.27-.15,.35-.29,.19,0,.44-.1,.51-.23,.97-1.65-1.34-3.81-2.44-4.83Z"/><path class="m" d="M62.24,175.12c-.58-1.45-2.03-2.32-3.77-2.03-.08,.03-.15,.06-.23,.09,0,.04,0,.08-.01,.12-.05,.04-.09,.08-.11,.13-.57,1.31-.52,2.6-.01,3.92,.33,.84,.87,1.41,1.76,.92,.3-.06,.58-.24,.63-.48,.02-.14,.08-.27,.15-.41,.08-.07,.18-.13,.29-.14,.54-.09,.95,.06,1.27,.34,.22-.79,.28-1.62,.04-2.45Z"/><path class="m" d="M63.05,183.5s.01,.03,.02,.05c.49,.88,1.46,1.38,2.37,1.78,2.67,1.18,5.53,1.04,8.39,.83,1.8-.13,3.77-.31,5.46-1,.09-.04,.18-.07,.28-.11,.28-.08,.56-.18,.82-.31,.44-.18,.88-.41,1.19-.71,.66-.05,1.36-.44,2.01-.54,.2-.03,.59-.25,.55-.49-.51-3.19-3.71-4.75-6.45-6.04l.02-.03c-2.56,1.27-6.3,.94-9.09,1.69-2.66,.66-4.3,2.68-5.58,4.89Z"/><path class="d" d="M259.03,21.69c1.22-.7,2.15-2.44,2.47-3.54,.66-2.21,.07-4.59-1.07-6.48-.56-.93-1.31-1.72-2.16-2.38-1.64-1.71-4.21-2.55-6.55-2.71-3.19-.21-6.07,.89-8.29,3.11-.15-.03-.3-.06-.45-.09,6.3,2.75,12.6,6.22,16.06,12.08Zm-5.54-6.7c-.79-.72-1.63-1.39-2.51-1.99,.65,.25,1.27,.4,1.86,.77,.63,.45,1.1,1.03,1.22,1.77-.19-.19-.39-.37-.58-.54Z"/><path class="l" d="M224.55,22.91c-.85-.23-1.76-.15-2.62-.05-1.66,.2-3.02,.09-4.39-1.04-1.47-1.21-2.4-3.12-2.45-5.17-.03-1.27,.21-4.03,1.79-3.88,.31,.03-.54-.75-.74-.81-2.92-.78-4.74,3.86-3.98,6.62,1.32,4.83,5.64,6.37,9.64,5.97,.83-.08,1.61-.23,2.44-.37,.39-.07,1.04-.02,1.37-.32,.45-.41-.91-.91-1.06-.95Z"/><path class="l" d="M259.02,15.28c-.31-1.63-.89-3.18-1.48-4.72-.6-.67-1.27-1.28-2.02-1.77l-.04-.02c-.32-.16-1.24-.46-2.3-.7-.01,.04-.03,.06-.07,.05-1.3-.29-2.6-.17-3.91-.12-.05,.03-.1,.07-.15,.11-.06,.1-.1,.2-.13,.31,2.03-.12,4,.36,5.28,2.02,.35,.29,.66,.62,.89,1,.54,.9,.87,2.05,1.14,3.05,.31,1.16,.39,1.45,1.58,1.84,.14,.05,.46,.15,.78,.2,.1-.1,.19-.2,.28-.3,.08-.3,.13-.6,.17-.91,0-.02-.01-.03-.02-.05Z"/><g><path class="f" d="M219.24,47.38c.02,.56,1.04,.18,1.09-.26,.24-2.07,1.02-4.28,2.01-6.14,.52-.97,1.14-1.94,1.87-2.77,.29-.33,.66-1.02,.49-1.46-.01-.07-.04-.14-.08-.2-.1-.17-.15-.25-.16-.25-.05-.16-.13-.3-.23-.43-.3-.36-.8-.5-1.24-.63-.74-.22-1.68-.08-2.43,.09-1.86,.41-3.4,1.45-4.88,2.62-2.62,2.08-5.15,5.08-6.41,8.16-.08,.19,.37,.19,.46,.08,1.75-2.3,4.13-4.25,6.53-5.87,.98-.66,2.01-1.22,3.09-1.66-.1,.12-.2,.24-.31,.36-1.72,2.09-2.51,4.57-3.65,6.96-.26,.55,.83,.35,1.03,.03,1.05-1.62,2.36-3.09,3.55-4.61,.24-.31,.51-.61,.78-.89-.04,.1-.08,.19-.11,.26-.92,2.16-1.52,4.28-1.42,6.6Z"/><path class="f" d="M264.57,55.22c-.56-.17-1.42-.02-1.74-.52-.35-.55-.5-1.21-.89-1.72-.05-.07-.29-.08-.33,.02-.47,1.09-.08,2.82,.86,3.5,.46,.33,1,.57,1.51,.81,.7,.32,1.04,.82,1.53,1.37,.7,.8,1.96-.29,1.68-1.18-.38-1.18-1.46-1.92-2.61-2.27Z"/><path class="f" d="M283.08,29.64c-2.71-3.1-7.06-4.53-11.05-5.2-4.04-.67-8.43-.2-11.99,1.98,.04-1.57-.42-3.16-1.16-4.66,1.3-.63,2.29-2.48,2.63-3.62,.66-2.21,.07-4.59-1.07-6.48-.56-.93-1.31-1.72-2.16-2.38-1.64-1.71-4.21-2.55-6.55-2.71-3.19-.21-6.07,.89-8.29,3.11-1.41-.29-2.86-.42-4.34-.36-5.79,.24-11.33,3.73-14.86,8.25-.67,.86-1.3,1.78-2.2,2.42,.65-1.84,.74-3.98,.24-5.78-.55-1.97-2.46-3.27-4.4-3.65-.87-.17-1.75-.09-2.56,.2-2.28,.26-4.16,1.84-5.42,3.83-1.83,2.89-1.92,6.25-.24,9.11,.63,1.07,1.47,1.99,2.44,2.77-.07,.04-.15,.07-.22,.11h-.02c-.93,0-1.87,.03-2.82,.04-1.8,.02-3.59-.01-5.38-.08-3.45-.14-6.9-.59-10.23-1.42-6.88-1.72-13.72-3.57-20.63-5.16-3.34-.77-6.64-1.41-10.08-1.66-3.41-.25-6.85-.12-10.26,.21-6.81,.66-13.43,2.41-20.05,4.12-3.76,.97-7.55,1.83-11.38,2.29-3.39-.95-6.93-1.6-10.38-2.26-2.12-.4-4.24-.82-6.35-1.24-1.97-.39-3.95-.65-5.72-1.58-2.69-1.43-4.98-3.84-8.33-3.53-2.21,.21-4.31,1.16-6.47,1.6-1.85,.37-3.83,0-5.69,0-.01,0-.02,0-.03,0-3.44-.55-6.88-.62-10.42-.02-.12,.02-.22,.08-.3,.14-1.93-.09-3.87,.17-5.73,.91-2.3,.92-4.31,2.67-6.1,4.46-4.39,3.08-8.89,6.04-13.48,8.82-3.34,2.02-6.79,3.86-10.11,5.89-.89,.54-1.78,1.11-2.47,1.88-2,2.23-3.15,5.25-3.84,8.05-.75,3-.92,6.07-1.12,9.13-.23,3.41-.45,6.82-.39,10.23,.06,3.06,.31,6.12,.49,9.18-.45,4.9-.8,9.85-2.15,14.62-1.54,5.42-4.08,10.61-6.55,15.7-2.36,4.86-5.13,9.63-6.97,14.68-1.84,5.05-3,11-1.92,16.28,.12,.59,1.07,0,1.09-.41,0-.09,.01-.17,.02-.26,0,.09,.01,.17,.02,.26,.14,1.97,.51,3.93,1.13,5.8,.62,1.87,1.39,3.92,2.44,5.62,.2,.32,.89,.03,.8-.32-.51-2.01-1.12-4.01-1.31-6.09-.11-1.16-.21-2.33-.28-3.51,.13,1.08,.3,2.15,.59,3.18,.28,.99,.57,1.99,1.03,2.92,.41,.83,.93,1.57,1.23,2.45,.02,.06,.07,.09,.14,.11,.18,.52,.36,1.04,.56,1.56,.23,.59,1.25-.03,1.16-.52-.45-2.37-1.11-4.7-1.4-7.09-.3-2.45-.1-4.98,.1-7.43,.12-1.43,.32-2.84,.61-4.22,0,.05,.02,.09,.03,.14,.45,2.15,1.22,4.25,1.8,6.37,.32,1.19,.62,2.38,.88,3.59,.51,2.35,.83,4.74,.94,7.14,.13,2.88-.04,5.77-.31,8.64-.42,4.53-.96,9.05-1.44,13.57-.02,.07-.04,.13-.06,.2-.55,1.62-1.79,2.73-2.7,4.13-.33,.51-.2,.83,.11,1.05-.67,.85-1.51,3.02-1.12,4.01-.02,.14,.01,.3,.15,.37,.97,.49,1.86-.11,2.68-.59,.28-.17,.59-.39,.86-.5h.02c.09,.1,.18,.22,.26,.3,.03,.03,.05,.05,.08,.07-.04,.18-.07,.36-.07,.52,0,.49,.49,.87,.77,1.21,.63,.75,.21,2.11-.14,2.86-.49,1.07-1.14,2.29-.58,3.45,.1,.21,.22,.4,.35,.57,.79,1.64,3.29,2.46,5.09,2.8,2,.37,4.03,.53,6.05,.66,1.12,.07,2.25,.03,3.37-.01,1.09-.04,2.22-.06,3.2-.55,.31-.16,.52-.47,.59-.8h0c.16-.03,.32-.09,.49-.21,.53-.38,.31-1.16,.18-1.66-.3-1.2-1.09-2.37-1.79-3.39-.65-.96-1.34-1.94-2.09-2.84,.08-.24,.08-.55-.02-.9-.5-1.73-2.06-3.05-3.01-4.53-3.1-4.82-2.27-10.77-1.33-16.08,1.04-5.92,2.49-11.92,4.55-17.61,1.01-2.78,2.2-5.47,3.6-8.1,1.44-2.69,3.18-5.28,4.31-8.11,.02-.05,.03-.09,.04-.13,.75-1.28,1.53-2.55,2.36-3.79,1.81-2.73,4.08-5.16,6.32-7.57,.54-.58,1.11-1.16,1.7-1.72-.33,1.29-.66,2.59-1.12,3.85-.85,2.33-2.32,4.42-3.41,6.65-1.14,2.34-1.58,5.3-.77,7.77,.79,2.42,2.46,4.45,3.6,6.72,4.82,9.59,4.94,20.7,9.07,30.52,.12,.38,.25,.76,.36,1.15,.43,1.49-.43,2.76-.52,4.17-.05,.04-.09,.08-.11,.13-.57,1.31-.52,2.6-.01,3.92,.33,.84,.87,1.41,1.76,.92,.3-.06,.58-.24,.63-.48,.02-.14,.08-.27,.15-.41,.08-.07,.18-.13,.29-.14,1.19-.2,1.77,.79,2.02,1.72,.05,.19,.1,.38,.14,.58,.03,.55,.04,1.11,.07,1.66-.01,.06-.02,.12-.04,.19-.02,.09-.05,.18-.07,.27-.3,.6-.27,1.4,.02,1.91,.49,.88,1.46,1.38,2.37,1.78,2.67,1.18,5.53,1.04,8.39,.83,1.8-.13,3.77-.31,5.46-1,.09-.04,.18-.07,.28-.11,.28-.08,.56-.18,.82-.31,.44-.18,.88-.41,1.19-.71,.66-.05,1.36-.44,2.01-.54,.2-.03,.59-.25,.55-.49-.51-3.19-3.71-4.75-6.45-6.04,.19-.21,.3-.47,.23-.69-.63-2.08-2.88-3.67-4.38-5.17-1.95-1.94-3.41-4.09-4.52-6.57-2.12-4.73-3.8-9.7-4.85-14.76-1.02-4.95-1.32-10.71,.58-15.52,1.61-4.09,4.29-7.77,5.22-12.07,1.38,.8,2.48-.57,2.89-1.74,.08-.22,.14-.44,.19-.67,.13,.6,.33,1.17,.61,1.65,.29,.5,.85,.59,1.38,.44,.74-.21,1.03-1.07,1.18-1.71,.18-.76,.26-1.54,.45-2.3,.12-.47,.29-1.06,.84-1.21,.72-.19,1.73,.15,2.47,.2,1.32,.09,2.47-.22,3.71-.65,1.13-.39,1.99-1.09,3.02-1.62,.02-.01,.04-.02,.06-.04,.55,.16,1.09,.34,1.62,.56,1.26,.51,2.41,1.25,3.53,2,2.74,1.83,5.18,4.06,7.92,5.89,2.56,1.72,5.23,3.01,8.43,2.79,3.27-.23,5.38-2.42,7.93-4.11,5.32-3.55,12.31-4.29,18.54-4.2,2.91,.04,5.78,.48,8.58,1.21,1.92,.5,4.17,1.26,5.1,3.12,.2,.4,.37,.8,.48,1.23,.17,3.39,.1,6.75-.06,10.17-.17,3.76-.47,7.67,0,11.41,.22,1.79,1.28,3.17,2.32,4.59,.12,.16,.25,.33,.37,.49,1.18,3.47,1.81,7.06,1.85,10.76,.02,1.93-.05,3.86-.11,5.79-.03,.97-.08,1.99-.07,3-.04,.53-.05,1.06-.08,1.54-.04,.66-.02,1.32-.04,1.98-.04,1.11-.8,1.61-1.27,2.5-.33,.63-.5,1.34-.33,1.98-.6,1.07-.6,2.5-.37,3.65,.08,.39,.43,1.08,.86,1.25,.09,.1,.22,.16,.37,.17,1.19,.06,1.84-1.32,2.42-2.14-.03,.05-.02,.04,.01,0,.17,.15,.32,.31,.49,.47-.11,.42-.26,.83-.47,1.26-.24,.48-.51,.97-.58,1.51-.11,.81-.12,2.42,.98,2.53,.04,0,.07,0,.11,0,.8,3.01,3.04,5.07,6.35,5.66,1.63,.29,3.33,.25,4.96,.1,1.1-.1,2.2-.06,3.3-.1,1.26-.05,3.45-.22,4.4-1.32,.75,.25,1.7-.15,2.21-.7,.89-.96,.52-1.92-.26-2.8-.94-1.06-1.9-2.09-2.97-3.02-.62-.54-1.26-1.06-1.9-1.58-.4-.33-.79-.7-1.21-1.03,.14-.29,.16-.66-.09-.89-.26-1.84-1.95-2.16-2.93-3.57-.65-.94-.86-1.91-1.04-3.03-.19-1.19-.59-2.33-.9-3.49-.68-2.57-1.21-5.17-1.45-7.82-.13-1.4-.25-2.88,0-4.27,.11-.62,.26-1.24,.4-1.86,.44-.84,.95-1.65,1.45-2.51,1.11-1.9,1.42-4.05,1.36-6.2-.08-2.77-.31-5.52-.3-8.3,.01-2.66,.03-5.33,.18-7.99,.12-2.13,.44-4.18,.98-6.22,.27,.05,.53,.13,.78,.24,.51,.21,1.01,.44,1.5,.68,.29,.67,.5,1.38,.67,2.03,.42,1.62,.52,3.32,.56,4.98,.1,3.73-.69,7.49-.33,11.21,.22,2.22,1.3,4.19,2.15,6.22,.92,2.2,1.7,4.45,2.22,6.78,1.05,4.72,.94,9.59,1.4,14.38-.27,.7-.69,1.39-.84,2.11-.05,.24-.02,.53,.11,.74-.59,1.34-.13,3.41,.46,4.54,.19,.36,.48,.82,.9,.83,.22,.08,.59-.04,.71-.17,.48-.47,.87-1.27,1.49-1.56,.03-.02,.07-.02,.1-.03,.09,.15,.02,0,.06,.15,.05,.17,.08,.35,.1,.53,.07,.49,.21,1,.44,1.44,.02,.03,.04,.06,.06,.09-.14,.73-.32,1.45-.34,2.19-.02,.59-.01,1.32,.13,1.99,0,.22-.01,.44,.01,.65,.04,.46,.09,1.17,.39,1.53,.25,.31,.7,.52,1.03,.74,1.74,1.16,4.06,1.18,6.09,1.2,4.19,.06,8.33-1.1,12.25-2.42,.12-.04,.27-.15,.35-.29,.19,0,.44-.1,.51-.23,.97-1.65-1.34-3.81-2.44-4.83-1.35-1.25-2.9-2.3-4.64-2.89,.03-.17,0-.33-.06-.46,0-.07,0-.14-.05-.22-.5-.88-1.2-1.62-1.78-2.46-.58-.85-1.07-1.75-1.52-2.68-.89-1.84-1.53-3.78-2.17-5.72-1.34-4.07-2.5-8.42-2.57-12.74-.04-2.28,1-4.3,1.24-6.52,.12-1.08-.06-2.16-.23-3.22-.19-1.14-.2-2.3-.19-3.45,.06-4.11,.79-8.4,2.24-12.28,1.74-.93,3.28-2.23,4.51-3.76,.74-.92,1.22-2.01,1.65-3.1,.53-1.32,.44-2.59,.6-3.95,.16-1.36,1.15-2.68,1.9-3.79,.86-1.27,1.8-2.47,2.6-3.79,1.5-2.49,2.5-5.21,3.2-8.01,.23-.91,.28-1.88,.45-2.81,.23-1.23,.77-2.35,1.45-3.41,1.24-1.94,2.97-3.65,4.6-5.27,3.39-3.34,7.25-6.21,10.86-9.33,3.74-3.24,7.27-6.67,10.84-10.1,3.36-3.23,7.01-6.05,10.8-8.78,.06,0,.12,.01,.19,.01,1.58,.1,3.15-.1,4.73-.17,.85-.04,1.69,0,2.54,.03,1.01,.04,2.01,.28,3.02,.26,0,.11,0,.22,.01,.33,.09,1.09,.9,1.88,1.92,2.14,.75,.19,1.52,.12,2.28-.05,.18,.05,.36,.07,.57,.08,.72,.04,1.25,.3,1.83,.68,1.1,.71,2.18,.97,3.5,1.01,1.23,.04,2.35-.28,3.53-.59,1.09-.29,2.41-.45,3.22-1.31,.18-.2,.11-.5-.17-.51-.48-.03-.95,.13-1.43,.2-.61,.09-1.22,.11-1.83,.17-1.19,.12-2.35,.3-3.55,.26-1.03-.04-1.76-.44-2.58-.88,1.13-.28,2.26-.45,3.45-.42,1.85,.05,3.55,.19,5.38-.22,1.82-.42,3.49-1,5.08-2.01,.34-.21,.43-.87-.13-.72-.83,.21-1.66,.42-2.5,.6-1.31-.07-2.64,.3-3.95,.38-1.39,.09-2.77-.36-4.13-.55-1.54-.22-3.12,.46-4.58,.9-.78,.24-1.58,.45-2.4,.43-1.41-.03-.73-1.76-.47-2.56,.36-1.08,.03-2.07-.31-3.11-.5-1.51-.17-2.39,.76-3.66,.26-.25,.56-.47,.89-.67,.21-.13-.14-.2-.23-.18-1.42,.27-2.29,1.18-3,2.41-.7,1.21-.35,2.6-.32,3.88,.02,.71-.36,1.47-.58,2.15-1.18-.53-2.61-.7-3.84-.84-1.79-.2-3.58-.09-5.37-.13-2.77-.07-5.58-.65-8.06-1.83-2.52-1.2-4.62-2.94-6.01-5.36-1.5-2.61-2.04-5.52-2.53-8.45-.09-.73-.14-1.47-.12-2.22,.02-.56-.02-1.12-.01-1.67v-.09s.01-.07,0-.1c0-.06,0-.11,0-.17,.05-.62,.15-1.2,.1-1.82-.03-.31-.51-.08-.59,.09-.42,.85-.71,1.87-.82,2.89-1.17,4.14-2.86,9.15-7.76,9.79-1.49,.19-2.81-.26-4.19-.69-1.43-.44-2.8-.59-4.29-.2-1.13,.3-2.22,1.08-3.37,1.26-.55,.09-.56-.49-.51-.88,.21-1.54,1.16-3.06,1.93-4.39,.64-1.11,1.3-2.29,2.13-3.28,1.68-1.98,3.11-4.14,4.87-6.06,1.39-1.51,3.4-3.31,5.58-3.2,1.07,.05,6.06,.88,5.39-1.57-.11-.39-.93-.1-.96,.24-.06,.74-1.85,.33-2.37,.27-.76-.09-1.57-.29-2.35-.2-2.23,.25-4.24,1.88-5.77,3.41-1.79,1.79-3.17,3.92-4.7,5.91-.84,1.1-1.62,2.17-2.34,3.35-.87,1.42-1.67,2.88-2.26,4.43-.3,.79-.81,2.34,.19,2.84,.54,.27,1.21,.1,1.78,0,.08-.01,.16-.03,.24-.05,.52,.02,1.06-.02,1.65-.09,1.52-.17,2.9-.21,4.36,.22,2.2,.66,4.33,1.45,6.69,.94,2.09-.45,3.85-2.02,5.16-3.63,.51-.63,.91-1.35,1.24-2.08,.02,.35,.05,.69,.09,1.04,.22,1.83,.86,3.44,1.56,5.11,1.18,2.79,3.46,4.98,6.04,6.49,2.16,1.27,4.69,1.99,7.22,2.3-1.15,.62-2.28,1.22-3.37,2-1.28,.91-2.52,1.87-3.73,2.88,0,0,0-.02-.01-.03-.35-.67-.93-1-1.53-1.43-.77-.55-1.47-1.2-2.12-1.87-1.04-1.07-2.11-2.22-3-3.42-1.79-2.4-3.1-5.21-4.24-7.96-.07-.16-.55-.06-.5,.12,.9,3.48,2.07,6.97,4.21,9.89,.89,1.21,1.81,2.39,2.85,3.47,.73,.76,2,2.15,3.2,2.22-2.23,1.97-4.31,4.12-6.5,6.13-5.14,4.73-10.74,8.95-15.85,13.7-2.3,2.14-4.56,4.48-6.39,7.03-.86,1.2-1.56,2.48-1.98,3.89-.44,1.51-.53,3.09-.97,4.61-.83,2.89-2.18,5.59-4.02,8-.83,1.08-1.61,2.24-2.28,3.43-.36,.64-.69,1.28-.96,1.97-.27,.69-.29,1.44-.51,2.15-1.13,3.77-4.41,6.39-8.1,7.61-2.68,.88-6.02,1.11-8.55-.25-.94-.5-1.88-.99-2.84-1.45-1.15-.55-2.47-1.26-3.76-1.44-.47-.07-.99-.15-1.48-.15,.21-.63,.42-1.26,.65-1.88,.07-.05,.11-.1,.12-.16,.1-.82,1.43-.27,1.98-.09,.79,.26,1.53,.62,2.28,.96,.96,.43,2.36,1.44,3.47,1.26,.22-.04,.57-.33,.36-.56-.52-.55-1.33-.95-1.99-1.32-1.01-.57-2.07-1.05-3.17-1.43-.65-.22-1.67-.4-2.46-.24,.17-.47,.34-.95,.52-1.42,.73-.9,1.62-1.52,2.78-2.07,1.39-.66,2.92-1,4.37-1.49,3.15-1.08,5.76-3.45,8.22-5.6,.32-.28-.09-.51-.38-.38-1.56,.71-2.98,1.7-4.52,2.45-1.74,.84-3.59,1.37-5.43,1.95-1.35,.43-2.71,.87-3.87,1.66,.48-1.58,.89-3.19,1.11-4.82,.32-2.34,.04-4.4-.66-6.63-.07-.22-.64-.16-.59,.06,.44,2.15,.16,4.51-.21,6.67-.43,2.5-1.22,4.94-2.07,7.33-.76,2.12-1.6,4.22-2.3,6.36-.81,2.48-1.26,4.97-1.45,7.55-.37,5.17-.36,10.46,0,15.62,.17,2.47,.05,4.76-1.22,6.98-.52,.92-1.1,1.76-1.46,2.75-.27,.77-.32,1.49-.37,2.26-.19,1.03-.16,2.13-.11,3.15,.13,2.67,.58,5.31,1.2,7.91,.3,1.25,.67,2.49,1.05,3.73,.33,1.05,.29,2.18,.73,3.21,.57,1.33,1.71,2.07,2.69,3-.99,.09-2,.39-2.79,.64-1.85,.58-3.51,1.38-5.48,1.5-1.27,.08-2.71,.56-3.69,1.38-.05,.04-.11,.1-.16,.15,.07-.44,.23-.88,.49-1.4,.2-.41,.64-1.27,.7-1.97,.1-.23,.15-.48,.08-.68-.16-.5-.48-.95-.88-1.23-.33-.38-.78-.64-1.23-.87-.44-.22-1.43-.43-1.57-.98-.12-.47,.63-1.19,.91-1.54,.57-.69,.83-1.44,.97-2.23,.11-.13,.19-.27,.21-.38,.47-2.15,.4-4.46,.48-6.65,.08-2.16,.12-4.31,.03-6.47-.07-1.78-.28-3.53-.66-5.26,.77,.2,1.38-.77,1.34-1.44-.08-1.56-1.64-3.24-2.55-4.45-1.08-1.44-2.12-2.65-2.28-4.49-.33-3.68-.06-7.44,.08-11.12,.08-1.95,.13-3.91,.1-5.86-.05-2.44-.39-4.84-.62-7.27-.16-1.73-.46-3.45-.65-5.18-.16-1.45-.52-2.95-1.55-4.04-.33-.35-1.22,.16-1.05,.61,.58,1.6,.59,3.31,.55,4.99,0,.16,0,.33,0,.5-.34-.73-.68-1.47-.97-2.21-.86-2.19-.88-4.52-.86-6.85,.03-2.75,.35-5.53,1.08-8.2,.69-2.54,2.08-5.07,2.28-7.71,.04-.47-.83-.21-.95,.07-1.03,2.4-2.15,4.78-3.08,7.22-.93,2.43-1.27,5.05-1.49,7.61-.02,.21-.03,.42-.05,.63-1.2-3.25-2.07-6.58-1.9-10.18,.19-3.93,.88-7.57,2.46-11.21,1.31-3.03,3.02-5.85,4.15-8.96,.17-.47-.7-.35-.85-.04-1.62,3.15-3.7,6.06-5.29,9.22-1.64,3.28-2.34,6.88-2.67,10.46-.56,6.05,1.41,12.23,4.39,17.51v.04c.31,1.23,.75,2.46,1.28,3.65-1.68-.64-3.51-1.02-5-1.32-3.36-.67-6.8-.69-10.23-.49-3.16,.18-6.23,.71-9.24,1.71-2.77,.92-5.35,2.46-7.61,4.25-1.26,1-2.43,1.95-3.99,2.46-1.49,.49-3.06,.45-4.57,.1-3.09-.71-5.91-3.01-8.38-4.84-2.28-1.69-4.59-3.61-7.31-4.62-1.73-.64-3.65-.97-5.5-.89-.14,0-.52,.23-.22,.32,.58,.17,1.16,.32,1.73,.47-.39,.21-.77,.46-1.17,.64-1.32,.6-2.73,.66-4.16,.6-1.65-.07-3.45-.43-4.37,1.27-.33,.61-.49,1.28-.63,1.95-.07,.36-.14,.71-.19,1.07-.02,.16-.13,1.26-.41,1-1.06-.99-.42-2.9-1.11-4.09,.12-.33,.28-.64,.5-.92,1.46-1.88,5.05-1.5,7.15-2.01,.33-.08,.37-.46-.02-.42-3.48,.39-8.09,.21-8.86,4.42-.15,.79-.27,1.58-.49,2.36-.17,.59-.76,2.03-1.42,.84-.47-.86-.28-2.3-.37-3.25-.14-1.44-.31-2.91-1.17-4.13-.98-1.4-3.29-2.22-4.93-1.41-.74,.36-1.14,1.04-1.34,1.79-.34,1.32-.25,2.8-.5,4.15-.1,.55-.08,1.17-.39,1.66-.6,.95-1.24-.38-1.35-.64-.17-.38-.25-.79-.34-1.19-.31-1.44-.49-2.84-.94-4.25-.5-1.57-1.27-3.68-2.63-4.93,.2-.08,.41-.16,.62-.24,3.13-1.09,6.39-1.5,9.69-1.38,6.62,.23,12.99,2.65,19.07,4.91,3.05,1.13,6.05,2.23,9.26,2.92,3.19,.69,6.45,1.39,9.7,1.81,3.41,.43,6.89,.39,10.3-.07,3.29-.44,6.34-1.35,9.47-2.39,.42-.14,.88-.9,.13-.82-7.21,.78-14.68,1.37-21.8-.11-3.22-.66-6.46-1.28-9.62-2.14-3.12-.84-6.1-2.12-9.13-3.22-6.04-2.2-12.31-4.12-18.86-4.06-3.28,.03-6.48,.68-9.55,1.84-2.93,1.11-5.34,3.33-7.45,5.53-2.56,2.67-4.77,5.77-6.64,8.9-1.9,3.16-3.28,6.55-4.84,9.86-1.87,3.37-3.61,6.81-4.98,10.37-2.02,5.23-3.33,10.67-4.5,16.11-1.1,5.08-2.22,10.59-.92,15.71,.56,2.21,1.68,4.27,3.22,5.99,.44,.49,.83,.99,1.2,1.53,.06,.09,.11,.18,.17,.26-.2,.68-.5,.9-1.41,.93-.8,.02-1.59-.03-2.39,.07-1.73,.23-3.31,1.14-5.05,1.37-1.15,.15-2.3,.11-3.34,.61,.02-.03,.04-.06,.05-.09,.31-.55,.51-1.19,.53-1.82,.02-.62-.04-1.25-.35-1.8-.15-.27-.32-.49-.54-.73-.21-.23,.03-.66,.12-.92,.43-1.21-.26-2.58-1.24-3.32-.5-.38-1.22-.51-1.83-.61-.07,0-.14-.02-.22-.02,.25-.3,.49-.59,.74-.88,.9-1.06,1.61-2.23,2.04-3.53,.03-.05,.06-.1,.07-.15,.02-.09,.04-.18,.06-.26,.41-1.39,.82-2.79,.95-4.22,1.55-7.53,2.39-15.34,1.23-22.89-.25-1.64-.61-3.27-1.02-4.88-.67-2.68-1.63-5.3-2.18-8-.25-1.2-.11-2.11,.74-3.05,.81-.9,1.83-1.65,2.75-2.45,1.8-1.57,3.19-3.58,4.23-5.67,2.21-4.44,2.9-9.45,3.13-14.29,.25-5.56-.23-11.1-.53-16.64-.19-3.44-.37-6.88-.55-10.32-.2-3.58-.54-7.16-.54-10.75,0-3.41,.27-6.81,.48-10.22,.19-3.06,.52-6.14,1.45-9.11,.56-1.78,1.41-3.64,2.66-5.1h0s.03-.03,.06-.05c.12-.11,.24-.21,.37-.31,.28-.22,.57-.43,.87-.63,1.83-1.25,3.78-2.34,5.68-3.48,4.61-2.78,9.06-5.72,13.31-8.94-1.4,1.68-2.74,3.39-4.2,5.02-.22,.25,.45,.26,.61,.1,2.09-2.15,4.15-4.34,6.23-6.52,2.1-2.21,4.55-4.71,7.42-5.96,2.67-1.17,5.72-.87,8.43-.22,2.78,.67,5.32,2.12,8.14,2.61,.48,.08,1.54-.63,.92-1.06-2.44-1.71-5.54-2.71-8.48-3.38-.26-.06-.52-.11-.78-.16,3.58-.01,7.18,.76,10.6,1.54,1.89,.43,3.77,.92,5.65,1.37,1.91,.46,3.96,.96,5.96,.72,.2-.02,.76-.36,.39-.55-1.78-.92-4.05-1.2-6.01-1.66-1.22-.29-2.44-.58-3.66-.87,.06,0,.11,0,.17,0,1.95-.02,3.8-.65,5.69-1.07,.95-.21,2.03-.36,2.98-.14,.89,.21,1.7,.65,2.47,1.1,1.41,.83,2.7,1.83,4.17,2.57,1.54,.77,3.33,.98,5.02,1.32,2.11,.41,4.22,.81,6.34,1.21,2.65,.49,5.33,.98,8.02,1.36-1.17,.06-2.35,.07-3.53,.02-2.9-.1-5.8-.23-8.7-.35-3.03-.12-6.09-.23-9.07-.7-.26-.04-.72,.27-.29,.37,6.62,1.6,13.52,2.44,20.4,2.37,6.83-.06,13.58-1.79,20.2-3.47,6.63-1.69,13.3-3.02,20.13-3.25,3.51-.12,7.01,.1,10.45,.68,3.49,.59,6.93,1.55,10.35,2.41,6.01,1.52,11.99,3.47,18.1,4.59,2.73,.5,5.54,.65,8.33,.63h0c-.73,1.01-1,2.35-1.15,3.53-.34,2.65,.19,5.31-.15,7.94-.04,.29,.57,.18,.62-.05,.42-2.15,.29-4.37,.46-6.53,.1-1.21,.26-2.44,.73-3.58,.18-.43,.43-.81,.77-1.14,.07-.07,.14-.13,.22-.18,.66-.01,1.32-.03,1.99-.05-.49,.9-.67,1.97-.77,2.95-.28,2.71,.15,5.27,.38,7.94,.02,.26,.66,.1,.67-.14,0-2.1-.1-4.2-.02-6.3,.05-1.23,.19-2.49,.63-3.65,.2-.53,.49-.75,.81-.9,.55-.04,1.1-.09,1.64-.16-.14,.39-.24,.79-.31,1.16-.26,1.39-.26,2.83-.22,4.23,.03,.98,.29,2.08,.06,3.05-.06,.27,.51,.17,.58-.03,.64-1.75,.43-3.86,.62-5.68,.1-.9,.21-1.91,.69-2.71,.08-.14,.18-.23,.29-.29,.15-.03,.29-.06,.44-.09,.14,0,.26,.02,.38,.05-.15,.5-.25,1.02-.31,1.47-.19,1.42-.27,3.02,.2,4.37,.12,.35,.73,.02,.78-.24,.32-1.57,.17-3.19,.55-4.75,.06-.23,.12-.48,.22-.72,1.18,.55,2.44,.93,3.69,1.13,1.69,.27,3.41,.14,5.06-.36,1.01-.3,1.87-.9,2.64-1.61,.74-.69,1.88-1.49,2.32-2.39,.08-.16-.03-.25-.19-.27-.47-.06-.78,.13-1.21,.34-.87,.43-1.85,.68-2.79,.88-1.42,.31-2.79,.63-4.25,.57-2.85-.11-5.6-1.34-7.55-3.34-1.63-1.66-2.41-3.67-1.97-6.01,.3-1.64,1.19-3.27,2.47-4.41-1.39,1.89-.99,4.31-.36,6.35,.02,.05,.18,.05,.17,0-.44-2.21-.51-5.03,1.34-6.73,1.31-1.21,3.27-.98,4.74-.37,3.62,1.51,3.33,5.41,2.35,8.63-.2,.06-.41,.1-.63,.13,.11-1.83-.63-4.42-2.84-4.4-1.37,.02-2.01,1.37-1.86,2.55,.25,2.03,2.46,2.78,4.25,2.83,2.3,.07,3.7-1.92,4.99-3.52,3.87-4.8,10.06-7.9,16.2-7.37,5.79,.5,10.82,4.2,14.29,8.56,1.4,1.76,2.56,3.72,3.03,5.86-.28,.11-.57,.32-.72,.44-.49,.41-1.37,1.43-1.18,2.1,.05,.17,.36,.07,.42-.05,.27-.53,.61-1.02,1.04-1.44,.11-.1,.22-.2,.33-.3,.06-.05,.12-.09,.18-.14,0,0,.02-.01,.03-.02,.05,.33,.09,.66,.1,1-.08,.05-.14,.13-.19,.21-.16,.09-.3,.22-.45,.34-.48,.43-.8,.98-1.05,1.57-.05,.12-.1,.26-.15,.42-.05,.06-.09,.12-.13,.18-.18,.32-.21,.72-.19,1.08,0,.29,.07,.72,.21,1.09,.05,.21,.12,.4,.22,.57,0,.04,0,.07,0,.1,.02,.24,.19,.51,.37,.76,.04,.08,.09,.15,.15,.21,.07,.09,.14,.18,.19,.25h0c.06,.18,.15,.34,.29,.45,.38,.61,.76,1.31,1.24,1.8,.47,.78,.94,1.57,1.49,2.31,1.14,1.54,2.27,3.09,3.41,4.64,.98,1.34,1.91,2.72,2.97,4.01,.61,.74,1.3,1.55,2.1,2.18-.41-.17-.81-.35-1.24-.5-.05-.02-.36,.02-.26,.13,.99,1.07,2.02,1.41,3.41,1.8,1.31,.36,3,.72,3.3,2.26,.23,1.18-.57,2.37-.91,3.45-.27,.84-.07,2.08,.21,2.88,.04,.12,.32,.1,.34-.03,.15-.8,.07-1.63,.23-2.43,.05-.24,.14-.48,.25-.71,.06,.43,.24,.86,.47,1.31,.2,.39,.42,.77,.58,1.19,.29,.73-.25,1.12-.62,1.67-.16,.24,.05,.44,.29,.39,.94-.21,1.4-1.27,1.25-2.15-.2-1.2-1.56-2.1-1.5-3.36,.02-.05,.04-.09,.06-.14,.4-.98,.52-2.04,.21-3.04-.33-1.06-1.48-1.55-2.45-1.8-.51-.13-1.04-.24-1.56-.35h0c-1.05-1.07-2.26-1.93-3.27-3.06-1.08-1.22-2.03-2.56-3.01-3.86-.37-.5-.76-.99-1.14-1.49,1.04,.39,2.12,.73,3.25,.73,1.29,0,2.53-.62,3.63-1.26,2.85-1.64,5.54-3.92,8.74-4.8,1.53-.42,4.31-.31,5.03-2.16,.56-1.43-.57-2.9-1.44-3.89Zm-104.61,146.81c-.41,.36-.81,.95-1.04,1.58-.11-.31-.18-.64-.24-.92-.18-.76-.38-1.72-.27-2.55,1-.04,1.88,.49,2.53,1.26-.37,.15-.71,.39-.99,.63Zm1.24,1.46h0Zm17.02,2.91c.79,.61,1.49,1.32,2.12,2.09,.37,.44,1.13,1.28,1.3,2.01-.51-.88-1.71-1.72-2.31-2.26-1.1-.99-2.33-2.18-3.75-2.7-.21-.08-1.02,.25-.69,.51,1.04,.85,2.16,1.61,3.25,2.39,.63,.45,2.21,1.53,2.54,2.5-1.4,.1-2.8,0-4.22-.02-1.83-.02-3.63,.06-5.47,.19-1.88,.13-3.69,.04-5.57-.11-.61-.05-1.53-.2-1.97-.7-.04-.88-.19-1.73-.26-2.61,.33-.03,.69,0,.97,0,1.27,.04,2.46,.32,3.73,.09,1.14-.21,2.29-1.03,3.35-1.5,1.2-.53,2.6-1.31,3.57-2.2,1.13,.76,2.3,1.46,3.38,2.3Zm-21.27-51.99c3.47,1.92,8.18,1.36,11.77-.07-.73,1.33-1.01,2.99-1.33,4.38-.53,2.28-.85,4.61-.98,6.94-.07,1.17-.05,2.34,.03,3.51,.09,1.23,.41,2.4,.33,3.65-.07,1.16-.56,2.32-.84,3.45-.24,1-.36,2.01-.39,3.03-.08,2.2,.49,4.57,.92,6.73,.44,2.24,1.08,4.39,1.79,6.56,.67,2.05,1.39,4.09,2.33,6.03,.68,1.41,1.59,3.3,2.88,4.38-.98,.41-1.88,1.18-2.79,1.62-.63,.3-1.26,.55-1.86,.9-.85,.48-1.61,.57-2.58,.53-.91-.04-2.06-.16-2.98,.18,.08-.76,.18-1.48,.2-2.21,.04-.39,.03-.79-.05-1.16-.04-.27-.09-.53-.18-.81-.55-1.84-2.12-3.51-4.06-3.6l.02-.08c.44-.14,.89-.56,.91-.96,.26-5.16,.34-10.42-.72-15.49-.48-2.28-1.26-4.49-2.15-6.64-.95-2.29-2.18-4.38-2.42-6.88-.22-2.22,.09-4.48,.13-6.71,.03-1.55-.02-3.1-.13-4.65-.1-1.38-.28-2.87-.73-4.23,.96,.54,1.93,1.08,2.89,1.61Zm-6.35,53.06c.61,.6,1.33,1.12,1.96,1.67,.94,.8,1.87,1.59,2.72,2.48,.62,.64,1.28,1.37,1.65,2.18,.11,.24-.41,.45-.68,.54-.17-1.29-1.52-2.49-2.35-3.34-.72-.73-1.49-1.38-2.3-2.01-.73-.57-1.33-1.14-2.2-1.48,.42-.05,.82-.07,1.2-.04Zm-12.98,2.74c.4-.35,1.06-.51,1.57-.64,1.15-.29,2.29-.11,3.46-.26,1.16-.15,2.28-.53,3.38-.92,.88-.31,1.96-.66,3.01-.83,.18,.53,.52,.91,.84,1.37,.53,.76,.98,1.5,1.63,2.19,1.04,1.12,2.34,2.11,3.06,3.49,.33,.64-.12,.66-.78,.83-.86,.22-1.8,.23-2.68,.25-2.28,.07-4.6,.4-6.88,.19-3.2-.29-5.66-2.13-6.81-4.99,.01-.26,.05-.54,.2-.68Zm-2.71-5.81c-.48,.62-.82,1.38-1.14,2.09-.12-.53-.13-1.18-.14-1.43-.02-.41,.06-.81,.15-1.2,.35,.23,.73,.39,1.13,.54Zm-92.72-4.3c-.86,.24-1.44,1.18-1.62,2.12-.03-.08-.05-.15-.07-.22-.28-.83-.4-1.75-.23-2.62,.93-.11,1.57,.1,2.12,.68-.07,.01-.13,.03-.2,.05Zm18.3,9.36c-.24,.07-.48,.14-.71,.21-.08,0-.15,0-.21,.01-1.58,.16-3.14,.34-4.73,.37-1.94,.04-3.82,.09-5.68-.45-.74-.21-1.47-.49-2.12-.89-.68-.41-.94-.76-.83-1.4,.45-.79,1.29-1.28,2.15-1.65,1.23-.53,2.79-.86,4.11-.99,1.36-.13,3.19-.08,4.58-.65,.91,.44,1.61,1.25,2.35,1.91,.72,.64,1.47,1.33,2.06,2.09,.69,.89-.16,1.19-.97,1.44Zm-1.95-6.59c.09,0,.19-.03,.29-.08,1.03,.69,2.05,1.41,3.03,2.16,1.15,.88,2.22,2.01,2.57,3.41-.32,.05-.64,.12-.95,.21-.07-.85-.96-1.69-1.75-2.32-.13-.11-.25-.22-.37-.33-.48-.42-.95-.76-1.43-1.04-.65-.48-1.34-.95-2.05-1.33,.25-.19,.47-.41,.65-.68Zm-10.6-64.42c.84,.26,1.41,.82,1.8,1.5-.69,.54-.93,1.39-1.11,2.26-.11,.54-.22,1.09-.33,1.63-.13,.64-.59,1.93-1.1,.79-.65-1.45,0-5.03-1.85-5.7,.43-.85,1.63-.77,2.59-.48Zm-12.44-.76c.08-.45,.16-.92,.19-1.39,.17,.09,.33,.2,.49,.31,.54,.39,1.04,.81,1.49,1.29,.72,.76,.83,2.31,1.03,3.28,.27,1.27,.95,5.06,2.7,5.74,.53,.35,1.21,.39,2.08-.12,1.07-.62,1.32-1.85,1.42-2.93,.11-1.14,.19-2.26,.25-3.4,.13,.28,.24,.58,.31,.91,.17,.75,.18,1.52,.28,2.28,.11,.84,.28,1.85,1.04,2.36,.95,.63,1.96-.6,2.26-1.32,.49-1.16,.25-2.91,1.05-3.96,.13,.36,.22,.74,.28,1.12,.21,1.23,.21,2.48,.25,3.72,.01,.39,.05,.88,.19,1.31-1.2,4.85-4.16,8.99-5.91,13.64-.87,2.33-.98,4.77-1.08,7.21-.1,2.6,.18,5.2,.65,7.75,.96,5.23,2.8,10.36,4.88,15.26,1.02,2.39,2.42,4.43,4.13,6.41,1.32,1.53,3.14,2.91,4.23,4.65-.3,.11-.58,.28-.95,.48-.72,.37-1.5,.59-2.3,.67-1.52,.15-2.84,.23-4.31,.72-1.38,.46-2.57,.98-3.68,1.9-.15,.12-.3,.27-.45,.43,0-.75-.05-1.49-.16-2.26-.15-1.09-.27-2.1-.96-3-.5-.66-1.15-1.42-1.8-1.95-.68-.56-1.52-.57-2.33-.38,.16-.57,.43-1.14,.56-1.72,.13-.56,.13-1.17,.05-1.74-.07-.55-.25-1.1-.48-1.63-1.32-5.29-2.46-10.62-3.62-15.94-1.11-5.09-2.38-10.28-4.56-15.04-1-2.18-2.47-4.11-3.4-6.32-.61-1.44-.55-2.7,.17-4.11,.32-.63,.8-1.17,1.14-1.8,.34-.64,.71-1.28,1.05-1.92,1.12-2.08,2.26-4.16,2.92-6.42,.39-1.33,.6-2.73,.85-4.09Zm-22.77,69.67c.07-.04,.14-.09,.21-.15,.05,0,.1,0,.15,0,.8,1.09,1.67,2.13,2.41,3.27-.11-.13-.22-.26-.33-.38-.77-.89-1.68-1.92-2.76-2.59,.11-.05,.21-.1,.32-.15Zm-8.94,1.66c1.84-.22,3.53-1.25,5.41-1.22,.49,0,.99,.04,1.48,.03,.66,1.1,1.71,1.98,2.6,2.92,.64,.68,1.73,1.75,2.14,2.82-1.43,.02-2.95,.36-4.34,.41-1.89,.07-3.74-.02-5.61-.24-1.37-.17-2.68-.38-3.93-.98-1.16-.56-1.45-1.38-1.95-2.41,.88-1.29,2.55-1.12,4.2-1.32Zm-6.65-8.17c.42,.14,.76,.35,1.03,.62-.28,.09-.55,.23-.77,.36-.69,.4-1.23,1.02-1.85,1.51,0-.01-.01-.02-.02-.04,0-.27,.04-.56,.14-.9,.18-.62,.47-1.19,.75-1.76,.27,.08,.53,.13,.72,.2Zm9.93-70.84c-.26,4.72-1.09,9.6-3.63,13.76-1.24,2.03-3.02,3.51-4.81,5.08-.13,.11-.25,.23-.37,.34,.36-.92,.74-1.83,1.16-2.74,1.93-4.21,4.14-8.3,5.9-12.59,.7-1.72,1.26-3.48,1.82-5.24-.02,.46-.03,.92-.06,1.39Zm-1.13-1.96c-.84,2.25-1.73,4.49-2.72,6.68-1.9,4.25-4.18,8.35-6.04,12.61-1.84,4.21-2.86,8.6-3.2,13.11-.16,2.1-.27,4.22-.07,6.31-.27-1.49-.41-2.98-.55-4.5-.17-1.84-.2-3.67-.09-5.52,.15-2.36,.68-4.66,.94-7,.04-.37-.7-.15-.78,.09-.02,.07-.05,.14-.07,.21-.1,.02-.19,.07-.22,.11-.98,1.96-1.21,4.24-1.67,6.34-.43,1.97-.62,4.02-.61,6.02,.01,1.32,.17,2.66,.37,4-.2-.79-.37-1.58-.48-2.4-.3-2.14-.34-4.35-.21-6.51,.06-.99,.2-1.98,.28-2.98,.07-.85,.11-1.72,.41-2.53,.06-.17-.36-.16-.43-.03-.05,.1-.09,.2-.14,.29,.42-1.83,.98-3.63,1.65-5.4,1.94-5.16,4.84-10.03,7.2-15.03,2.34-4.95,4.59-10.02,5.95-15.3,.52-2,.82-4.01,1.02-6.04,.05,1.04,.11,2.08,.16,3.12,.19,3.51,.44,7.01,.5,10.52-.3,1.28-.74,2.54-1.21,3.81ZM217.71,19.99c-.71-.43-1.16-1.21-1.18-2.04-.04-1.25,1.23-1.53,2.13-.95,1.09,.7,1.63,2.33,1.64,3.61-.92,.06-1.89-.19-2.59-.61Zm35.79-5c-.79-.72-1.63-1.39-2.51-1.99,.65,.25,1.27,.4,1.86,.77,.63,.45,1.1,1.03,1.22,1.77-.19-.19-.39-.37-.58-.54Zm4.77,3.5c-.28,.33-.64,.5-.98,.69-.46-.63-.94-1.23-1.44-1.79,.04-.09,.07-.18,.06-.29-.03-1.41-.52-2.79-1.5-3.79-1.02-1.04-3.46-2.2-4.86-1.23-1.8-1.05-3.75-1.85-5.78-2.31,2.42-2.18,5.37-3.1,8.64-2.7,.28,.03,.56,.09,.84,.15-2.16-.15-4.23,.69-6.26,1.68-.19,.09,.06,.18,.17,.13,2.19-.91,4.59-1.3,6.85-.67,1.14,.32,2.19,.86,3.11,1.55,.42,.56,.86,1.09,1.23,1.68l.03,.04c.18,.28,.34,.57,.47,.88,.45,1.02,.63,2.19,.51,3.32-.1,.97-.46,1.9-1.1,2.65Zm1.37,16.27h0c-.05-.26-.11-.51-.17-.76h0s.03,.04,.04,.05c.02,.19,.09,.38,.19,.57-.03,.04-.05,.09-.07,.14Zm23.88-1.3c-.18,.69-1.43,.77-1.96,.86-1.24,.21-2.46,.38-3.65,.84-2.3,.91-4.52,2.44-6.58,3.79-1.21,.8-2.47,1.54-3.93,1.75-1.33,.2-2.63-.08-3.92-.35-.04,0-.09,0-.14,0-.52-.66-1.03-1.33-1.54-1.99-.48-.64-.94-1.29-1.4-1.94h.02s.07,.01,.1,.02c.41,.06,.82-.18,1.08-.53,1.52-.07,3.03,.2,4.56,.18,1.09-.01,2.13-.2,3.2-.36,.26-.04,.51-.41,.12-.44-1.45-.12-2.82-.81-4.21-1.19-.93-.25-1.9-.46-2.87-.56,.14-.04,.28-.08,.42-.11,.88-.23,1.78-.33,2.68-.42,2.51-.23,5.05-.01,7.56,.07,.33,.01,.86-.45,.32-.51-1.99-.23-3.8-1.12-5.8-1.39-1.09-.15-2.21-.14-3.31-.1-.58,.02-1.19,.07-1.79,.18,.06-.05,.12-.11,.19-.16,1.11-.87,2.5-1.39,3.84-1.73,1.63-.42,3.33-.39,4.99-.37,1.78,.02,3.87,.44,5.46,1.17,.24,.11,1.13-.22,.78-.5-3.13-2.54-7.51-3.61-11.56-2.84-1.64,.31-3.27,.94-4.63,1.94-.93,.68-2.23,2.16-2.48,3.55-.08-.45-.12-.9-.1-1.35,.04-.69,.4-1.43,.55-2.12h0s.04-.07,.05-.1c.21-.54,.34-1.1,.4-1.65,3.72-2.45,7.96-3.04,12.32-2.04,3.49,.8,7.01,2.46,9.5,5.05,.74,.77,2.03,2.15,1.72,3.36Z"/><path class="f" d="M232.38,27.54c.56-.38,1.01-.87,1.61-1.2,.78-.44,1.68-.5,2.54-.49,1.81,0,3.35,.7,4.8,1.67,.18,.12,.72-.1,.47-.29-1.7-1.34-3.34-2.1-5.54-2.25-1.79-.12-3.69,.65-4.55,2.32-.24,.47,.41,.41,.65,.25Z"/><path class="f" d="M230.43,28.68c.75,.33,1.5,.74,2.35,.73,.05,0,.09,0,.14,0,1.21,.7,1.93,1.88,3.14,2.63,.62,.38,1.37,.42,2.09,.36,1.01-.09,2.45-1.41,3.38-1.04,.04,.02,.1,.02,.17,0,.46,.1,.93,.07,1.44-.16,.09-.04,.1-.13,.01-.16-.92-.42-1.68-.62-2.47-1.3-.79-.68-1.38-1.55-2.34-2.02-.86-.42-1.7-.51-2.65-.34-.66,.12-1.24,.52-1.86,.78-.94,.4-2.12,.35-3.09,.2-.14-.02-.58,.21-.32,.33Zm9.71,1.9c.13,.1,.27,.19,.41,.27-.21,.06-.41,.12-.61,.19,.09-.15,.17-.31,.21-.47Zm-3.23-1.12s.03-.02,.04-.03c.1-.03,.23-.04,.36-.05h.03c.28,.08,.55,.33,.69,.49,.17,.2,.4,.17,.6,.02,.08-.06,.18-.15,.26-.26,.13,.1,.26,.2,.39,.3-.07,.03-.13,.06-.16,.09-.21,.17-.47,.25-.72,.32-.49,0-1.01-.11-1.43-.32-.14-.21-.22-.45-.06-.57Zm-2.77-.28c.01,.16,.04,.31,.08,.46-.22-.12-.46-.22-.7-.3,.21-.04,.42-.09,.62-.16Z"/><path class="f" d="M256.16,27.66c.2-1.39,.09-2.68,.72-4,.09-.18-.27-.16-.34-.04-.68,1.18-1.05,2.76-.75,4.08,.03,.13,.34,.09,.36-.04Z"/></g><path class="c" d="M258.85,28.5c-.02-.09-.06-.12-.1-.11-.03,.02-.05,.04-.07,.07,0,.1-.05,.12-.1,.09-.03,.03-.07,.06-.1,.09-.03,.04-.06,.09-.09,.14-.15,.34-.21,.69-.2,1.05,.04,.02,.08,.04,.13,.06,.14-.15,.27-.32,.37-.5,.09-.17,.17-.35,.19-.54,.02-.11,.01-.23-.02-.34Z"/><path class="g" d="M269.66,50.81c-1.44,.15-2.91,.07-4.36,.06-.59,0-3.03,.32-4.46,1.06,1.22-.04,5.03,1.08,6.38,1.43,2.27,.59,4.83,.19,4.01-2.84-.04,0-1.07,.24-1.57,.29Z"/></g></svg>