<?xml version="1.0" encoding="UTF-8"?><svg id="a" xmlns="http://www.w3.org/2000/svg" viewBox="0 0 283.42 228.51"><defs><style>.b{fill:#db19c0;}.c,.d,.e{fill:#fff;}.f{fill:#4c4c4c;}.g{opacity:.5;}.h{fill:#c98f32;}.i{fill:#e230a2;}.j{fill:blue;}.d{opacity:.61;}.e{opacity:.72;}.k{fill:#efbe67;}.l{fill:#b933cc;}</style></defs><path class="g" d="M278.8,9.66c-2.88-2.88-6.4-4.41-10.16-4.41-3.11,0-6.37,1.05-9.42,3.04-.31,.2-.84,.55-3.54,2.84-.79,.2-1.55,.6-2.19,1.19l-3.08,2.87c-.44,.41-.8,.9-1.06,1.43-7.74,6.8-19.56,17.41-29.94,27.05-17.86,16.59-20.51,19.84-20.68,22.23-20.32,19.63-46.57,45.34-61.02,60.88-1.23,1.32-1.61,3.13-1.15,4.76-1.08,1.17-2.15,2.33-3.2,3.48-5.59,6.1-10.88,11.87-17.03,16.81-1.47,1.17-2.37,2.89-2.47,4.72-.03,.5,0,1,.09,1.48-4.93,3.59-10.81,6.99-13.95,8.81-1.1,.64-1.92,1.67-2.28,2.88-1.02,3.36-1.77,6.25-2.57,9.31-.61,2.35-1.24,4.76-2.01,7.45-2-.09-4.75-.17-7.9-.17-28.4,0-33.04,6.82-34.57,9.06-2.04,2.99-2.35,6.67-.9,10.36,.2,.52,.5,1,.86,1.43,.4,.46,3.5,3.91,10.82,7.73-6.52,.75-33.16,2.35-46.53,2.35-1.84,0-3.31-.03-4.37-.09-.1,0-.2,0-.3,0-2.61,0-4.81,2.02-4.98,4.66-.19,2.74,1.87,5.11,4.61,5.32,.6,.05,14.91,1.13,30.32,1.13,26.06,0,33.46-3.07,36.76-5.37,3.81-2.66,4.38-5.58,4.2-7.56-.48-5.04-5.63-7.34-11.59-10-2.49-1.11-5.43-2.42-7.47-3.77,4.46-2.14,15.96-4.95,30.56-4.95,1.13,0,2.24,.02,3.35,.06,.06,0,.12,0,.18,0,.8,0,1.55-.21,2.23-.55,.18-.03,.36-.07,.54-.12,3.88-1.18,7.14-2.03,10.29-2.85,3.06-.8,5.95-1.55,9.32-2.57,1.21-.37,2.24-1.18,2.88-2.28,1.95-3.37,5.25-9.07,8.77-13.91,.39,.08,.8,.12,1.21,.12,1.96,0,3.81-.9,5.07-2.47,4.95-6.17,10.69-11.43,16.77-17,1.16-1.06,2.34-2.14,3.52-3.24,.46,.13,.93,.2,1.4,.2,1.23,0,2.45-.45,3.41-1.35,15.73-14.7,41.32-40.84,60.82-61.02,2.38-.15,5.14-2.13,28.39-27.55,10.27-10.13,20.59-20.7,27.62-28.29,1.11-1.2,1.52-2.8,1.25-4.29,.13-.17,.22-.3,.29-.42,6.31-9.6,1.99-16.29-1.15-19.43Z"/><path class="c" d="M273.8,4.66c-2.88-2.88-6.4-4.41-10.16-4.41-3.11,0-6.37,1.05-9.42,3.04-.31,.2-.84,.55-3.54,2.84-.79,.2-1.55,.6-2.19,1.19l-3.08,2.87c-.44,.41-.8,.9-1.06,1.43-7.74,6.8-19.56,17.41-29.94,27.05-17.86,16.59-20.51,19.84-20.68,22.23-20.32,19.63-46.57,45.34-61.02,60.88-1.23,1.32-1.61,3.13-1.15,4.76-1.08,1.17-2.15,2.33-3.2,3.48-5.59,6.1-10.88,11.87-17.03,16.81-1.47,1.17-2.37,2.89-2.47,4.72-.03,.5,0,1,.09,1.48-4.93,3.59-10.81,6.99-13.95,8.81-1.1,.64-1.92,1.67-2.28,2.88-1.02,3.36-1.77,6.25-2.57,9.31-.61,2.35-1.24,4.76-2.01,7.45-2-.09-4.75-.17-7.9-.17-28.4,0-33.04,6.82-34.57,9.06-2.04,2.99-2.35,6.67-.9,10.36,.2,.52,.5,1,.86,1.43,.4,.46,3.5,3.91,10.82,7.73-6.52,.75-33.16,2.35-46.53,2.35-1.84,0-3.31-.03-4.37-.09-.1,0-.2,0-.3,0-2.61,0-4.81,2.02-4.98,4.66-.19,2.74,1.87,5.11,4.61,5.32,.6,.05,14.91,1.13,30.32,1.13,26.06,0,33.46-3.07,36.76-5.37,3.81-2.66,4.38-5.58,4.2-7.56-.48-5.04-5.63-7.34-11.59-10-2.49-1.11-5.43-2.42-7.47-3.77,4.46-2.14,15.96-4.95,30.56-4.95,1.13,0,2.24,.02,3.35,.06,.06,0,.12,0,.18,0,.8,0,1.55-.21,2.23-.55,.18-.03,.36-.07,.54-.12,3.88-1.18,7.14-2.03,10.29-2.85,3.06-.8,5.95-1.55,9.32-2.57,1.21-.37,2.24-1.18,2.88-2.28,1.95-3.37,5.25-9.07,8.77-13.91,.39,.08,.8,.12,1.21,.12,1.96,0,3.81-.9,5.07-2.47,4.95-6.17,10.69-11.43,16.77-17,1.16-1.06,2.34-2.14,3.52-3.24,.46,.13,.93,.2,1.4,.2,1.23,0,2.45-.45,3.41-1.35,15.73-14.7,41.32-40.84,60.82-61.02,2.38-.15,5.14-2.13,28.39-27.55,10.27-10.13,20.59-20.7,27.62-28.29,1.11-1.2,1.52-2.8,1.25-4.29,.13-.17,.22-.3,.29-.42,6.31-9.6,1.99-16.29-1.15-19.43Z"/><g><g><g><path class="k" d="M92.48,186.21c7.65-2.33,12.81-3.36,19.61-5.42,3.34-5.77,8.85-15.16,14.1-20.41l-8.3-8.3c-5.25,5.25-14.64,10.77-20.41,14.1-2.06,6.8-3.09,11.97-5.42,19.62l.42,.42Z"/><path class="h" d="M123.71,157.9c-5.78,5.9-14.14,17.17-17.29,24.03,1.09-.29,2.19-.59,3.33-.91,3.81-6.81,9.66-16.08,15.26-21.82l-1.3-1.3Z"/><rect class="f" x="89.48" y="179.06" width="19.02" height=".45" transform="translate(-97.8 122.57) rotate(-45.02)"/><polygon class="f" points="105.39 170.83 105.01 173.26 107.44 172.88 105.39 170.83"/><path class="e" d="M116.48,156.47c-5.68,4.64-13.04,9.15-18.75,12.26-.31,1.17-.59,2.3-.87,3.42,5.85-2.6,14.77-8.86,21.04-14.26l-1.42-1.42Z"/></g><path class="l" d="M141.16,123.72c-9.03,9.03-16.8,19.05-26.74,27.04-.71,.57-.81,1.52-.18,2.15,3.73,3.73,7.45,7.45,11.18,11.18,.63,.63,1.58,.53,2.15-.18,7.98-9.94,17.93-17.64,27.04-26.75l-13.44-13.44Z"/><path class="i" d="M247.02,46.41c.61-.73,.46-1.39-.06-1.9-.52-.52-12.64-12.64-13.18-13.18-.53-.54-1.23-.65-1.89-.04-.66,.61-68.63,64.97-95.54,93.91,6.2,6.2,10.6,10.6,16.8,16.8,29.12-27.23,93.25-94.85,93.87-95.58Z"/><path class="d" d="M150.09,123.76c-2.19,1.8-5.07-1.16-3.25-3.25,15.06-17.3,61.56-61.76,75.88-74.76,1.93-1.75,5,.87,2.93,2.93-2.06,2.06-73.37,73.28-75.56,75.08Z"/><g><path class="b" d="M198.75,61.59c-.32-2.61,54.76-51.88,58.19-54.1,3.43-2.23,8.69-3.93,13.32,.71,4.64,4.64,2.92,9.46,.5,13.14-2.32,3.51-51.76,58.57-54,58.3l-18.01-18.05Z"/><path class="d" d="M210.43,63.82c-1.28,.84-4.95-3.02-3.96-4.14,7.55-8.54,33.27-31.44,41.95-38.86,1.07-.91,3.67,1.39,2.44,2.65-1.09,1.12-39.15,39.51-40.43,40.35Z"/><path class="k" d="M248.81,13.86l15.66,15.66c1.08-1.16,2.02-2.18,2.86-3.09l-15.44-15.44c-.9,.84-1.92,1.79-3.08,2.87Z"/><path class="d" d="M252.11,17.15l2.35,2.35,2.96-2.99-2.32-2.32c-.88,.87-1.87,1.85-2.99,2.96Z"/><path class="k" d="M269.73,25.4l-1.69-1.69c-12.59,12.08-32.64,32.07-44.47,44.47l1.69,1.69c12.75-11.81,32.66-31.73,44.47-44.47Z"/><path class="d" d="M266.95,26.39l-.42-.41c-11.48,11.1-29.81,29.4-40.69,40.69l.41,.41c.69-.65,39.9-39.85,40.69-40.69Z"/></g></g><path class="j" d="M5.24,217.15s53.2,4.07,63.84-3.36c8.55-5.97-11.52-8.64-17.52-15.36-6-6.72,19.2-12.48,39.6-11.76,0,0-48-3.6-41.76,12.24,0,0,4,4.65,14.82,9.09,9,3.69-.9,5.76-5.76,6.66-4.86,.9-43.02,3.09-53.22,2.49Z"/></g></svg>