<?xml version="1.0" encoding="UTF-8"?><svg id="a" xmlns="http://www.w3.org/2000/svg" viewBox="0 0 225.25 150.02"><defs><style>.b,.c,.d,.e{fill:#fff;}.f{fill:#dd4747;stroke:#933;stroke-miterlimit:10;}.g{opacity:.5;}.c{opacity:.23;}.d{opacity:.42;}.h{opacity:.45;}.i{fill:#892c2c;}.e{opacity:.37;}.j{fill:#9e3838;}.k{fill:#3785a0;}.l{fill:#f98282;}.m{fill:#420606;opacity:.25;}</style></defs><path class="g" d="M120.27,146.14c-2.9,0-5.66-.34-8.46-1.03-9.9-2.46-14.5-8-19.82-14.42-4.2-5.07-8.9-10.73-17.64-16.8-19.02,19.55-27.07,22.98-33.14,24.61-2.68,.72-7.17,1.93-12.08,1.93-5.51,0-10.08-1.54-13.58-4.58-8.57-7.45-7.29-20.83-5.18-27.56,1.74-5.54,5.1-10.51,10.01-14.75,1.78-1.64,3.52-3.13,5.32-4.55l.29-.22c.49-.38,.99-.76,1.51-1.14,2.54-1.89,5.28-3.68,8.11-5.3,.59-.35,1.24-.7,1.9-1.05,.52-.28,1.1-.59,1.7-.9,1.02-.51,3.63-1.82,7.41-3.24,.69-.26,1.43-.53,2.21-.81,.72-.26,1.51-.52,2.34-.78,.76-.24,1.57-.49,2.41-.72,1.41-.4,2.86-.78,4.33-1.12C69.66,36.34,104.47,9.52,141.8,9.52c4.76,0,9.48,.45,14.06,1.35,2.18-1.24,4.87-1.98,7.43-1.98,1.45,0,2.84,.23,4.14,.67,.66,.22,1.35,.53,2.07,.93,2.97,1.7,5.32,4.57,6.4,7.55,34.22,18.28,58.27,66.42,38.21,114.52-.56,1.33-1.66,2.36-3.04,2.82-.51,.17-1.05,.26-1.58,.26-.34,0-.68-.03-1.01-.1-3.26,.18-6.56,.27-9.81,.27-11.71,0-23.44-1.17-34.87-3.48-1.13-.23-2.29-.47-3.55-.76-6.21,4.49-12.95,7.97-20.07,10.34-6.22,2.08-12.65,4.23-19.91,4.23Z"/><path class="b" d="M115.27,141.14c-2.9,0-5.66-.34-8.46-1.03-9.9-2.46-14.5-8-19.82-14.42-4.2-5.07-8.9-10.73-17.64-16.8-19.02,19.55-27.07,22.98-33.14,24.61-2.68,.72-7.17,1.93-12.08,1.93-5.51,0-10.08-1.54-13.58-4.58-8.57-7.45-7.29-20.83-5.18-27.56,1.74-5.54,5.1-10.51,10.01-14.75,1.78-1.64,3.52-3.13,5.32-4.55l.29-.22c.49-.38,.99-.76,1.51-1.14,2.54-1.89,5.28-3.68,8.11-5.3,.59-.35,1.24-.7,1.9-1.05,.52-.28,1.1-.59,1.7-.9,1.02-.51,3.63-1.82,7.41-3.24,.69-.26,1.43-.53,2.21-.81,.72-.26,1.51-.52,2.34-.78,.76-.24,1.57-.49,2.41-.72,1.41-.4,2.86-.78,4.33-1.12C64.66,31.34,99.47,4.52,136.8,4.52c4.76,0,9.48,.45,14.06,1.35,2.18-1.24,4.87-1.98,7.43-1.98,1.45,0,2.84,.23,4.14,.67,.66,.22,1.35,.53,2.07,.93,2.97,1.7,5.32,4.57,6.4,7.55,34.22,18.28,58.27,66.42,38.21,114.52-.56,1.33-1.66,2.36-3.04,2.82-.51,.17-1.05,.26-1.58,.26-.34,0-.68-.03-1.01-.1-3.26,.18-6.56,.27-9.81,.27-11.71,0-23.44-1.17-34.87-3.48-1.13-.23-2.29-.47-3.55-.76-6.21,4.49-12.95,7.97-20.07,10.34-6.22,2.08-12.65,4.23-19.91,4.23Z"/><g><g><path class="i" d="M203.72,125.51h-.04c-11.55,.67-26.66,.39-43.88-3.09-12.78-2.57-23.66-6.28-32.4-9.94,.47-.81,5.89-9.82,15.86-15.96,5.05-3.12,11.27-5.51,18.6-5.71,18.89-.5,36.89,13.72,41.86,34.68Z"/><path class="i" d="M203.72,125.51h-.04c-8.93-3.92-20.41-7.48-33.93-8.35-7.14-.45-13.61-.07-19.21,.67-3.86-7.69-6.4-15.14-7.29-21.3,5.05-3.12,11.27-5.51,18.6-5.71,18.89-.5,36.89,13.72,41.86,34.68Z"/><path class="j" d="M84.75,84.39c-3.63,4.33-9.11,10.67-16.11,18.04-20.25,21.31-28.05,24.72-33.72,26.25-4.53,1.22-14.68,3.96-21.07-1.6-6.39-5.55-5.54-16.37-3.69-22.29,4.13-13.18,19.63-22.33,39.03-23.71,11.86,1.1,23.71,2.21,35.57,3.31Z"/><path class="l" d="M204.5,125.63c-3.82-2.25-7.89-4.57-12.23-6.9-7.41-4-15.59-8.06-24.5-12.01-11.13-4.95-23.43-9.71-36.85-13.96-28.55-9.02-54.23-13.17-74.78-15.04h0c-.15-.02-.29-.03-.45-.05C66.24,30.02,112.42,2.31,151.71,11.15h0c.48,.11,.95,.22,1.42,.34,2.44,.61,4.84,1.36,7.18,2.24,38.91,14.53,63.74,64.98,44.17,111.9Z"/><path class="c" d="M151.71,11.15c-9.87,.46-47.46,3.75-70.65,33.94-7.7,10.01-11.73,20.28-13.95,28.43-3.78,1.76-7.47,3.16-10.97,4.19h0c-.15-.02-.29-.03-.45-.05C66.24,30.02,112.42,2.31,151.71,11.15Z"/><path class="f" d="M168.01,107.22c-4.74,6.17-15.83,18.75-34.41,24.94-8.17,2.73-16.22,5.41-25.59,3.09-16.14-4-15.42-17.73-39.38-32.83-12.68-7.98-21.43-10.13-24.39-10.71-10.7-2.09-19.83-.76-25.52,.56,1.43-1.32,3.12-2.81,5.08-4.35,.53-.41,1.07-.84,1.65-1.25,2.24-1.66,4.79-3.36,7.65-5,.57-.34,1.16-.66,1.76-.98,.53-.29,1.07-.57,1.63-.85,1.03-.52,3.42-1.7,6.91-3.02,.66-.25,1.35-.51,2.09-.76,.69-.25,1.42-.49,2.19-.73,.73-.23,1.49-.46,2.27-.68,5.18-1.48,11.57-2.78,18.78-3.12,7.81-.37,18.66,.65,51.54,13.54,6.96,2.73,14.79,6.01,23.3,9.95,.29,.13,.59,.27,.88,.4,1.78,.82,3.58,1.68,5.41,2.56,.28,.13,.57,.26,.85,.41,1.36,.66,2.74,1.33,4.14,2.02,.27,.13,.55,.27,.83,.41,1.52,.76,3.06,1.54,4.62,2.34,.27,.14,.54,.28,.81,.41,2.26,1.18,4.57,2.4,6.9,3.65Z"/><path class="l" d="M204.5,125.63c-10.34-6.11-22.6-12.65-36.73-18.91,4.41-8.33,12.06-26.18,9.76-49.26-2.17-21.83-12.12-37.02-17.21-43.73,38.91,14.53,63.74,64.98,44.17,111.9Z"/><path class="d" d="M162.02,18.45c-.02-.58-.92-.46-.9,.12,.01,.36,.11,.7,.22,1.03,.12,.36,.38,.67,.46,1.04,.12,.57,1.02,.45,.9-.12-.15-.73-.64-1.29-.68-2.07Z"/><path class="d" d="M164.65,23.73c-.13-.26-.23-.53-.33-.79-.21-.55-1.05-.2-.84,.35,.1,.27,.21,.54,.33,.79,.25,.52,1.09,.18,.84-.35Z"/><path class="d" d="M166.58,27.75c-.17-.44-.38-.9-.41-1.37-.04-.58-.94-.46-.9,.13,.03,.42,.19,.81,.34,1.2,.06,.16,.11,.32,.18,.48,.05,.12,.18,.3,.17,.43-.05,.58,.85,.69,.9,.11,.03-.36-.14-.65-.27-.97Z"/><path class="d" d="M168.61,32.26c-.04-.11-.07-.21-.1-.32-.05-.24-.04-.38-.18-.58-.13-.19-.13-.28-.2-.5-.09-.27-.31-.39-.3-.71,.02-.58-.88-.7-.9-.11-.02,.42,.07,.8,.35,1.1,.14,.53,.39,.99,.53,1.54,.06,.21,.18,.35,.39,.39l.13,.03c.51,.1,.65-.59,.28-.83Z"/><path class="d" d="M170.58,36.34c-.14-.19-.26-.39-.41-.57-.07-.08-.34-.27-.32-.37,.1-.57-.8-.68-.9-.11-.06,.3,.07,.56,.27,.79,.23,.27,.44,.52,.64,.81,.35,.47,1.07-.08,.72-.55Z"/><path class="d" d="M171.94,40.63c-.18-.2-.24-.51-.37-.75-.15-.27-.21-.47-.21-.79-.01-.58-.91-.45-.9,.13,0,.37,.08,.67,.26,.99,.18,.32,.25,.7,.5,.97,.39,.43,1.12-.12,.72-.55Z"/><path class="d" d="M173.17,44.38c-.21-.29-.29-.51-.29-.87,0-.58-.91-.69-.9-.11,0,.3,0,.6,.09,.89,.04,.12,.09,.23,.16,.35,.03,.06,.27,.3,.26,.36-.05,.58,.85,.69,.9,.11,.03-.29-.05-.49-.22-.72Z"/><path class="d" d="M174.24,48.01c-.12-.57-1.02-.45-.9,.12,.11,.53,.54,1.09,.51,1.63-.03,.58,.87,.7,.9,.11,.03-.68-.38-1.23-.51-1.87Z"/><path class="d" d="M175.48,54.36c-.06-.37-.02-.75-.02-1.13,0-.58-.9-.69-.9-.11,0,.4-.04,.8,0,1.2,.04,.39,.17,.76,.2,1.15,.04,.58,.94,.46,.9-.13-.03-.34-.12-.66-.17-.99Z"/><path class="d" d="M174.98,58.84l.03,1.92c.01,.58,.91,.45,.9-.12l-.03-1.92c-.01-.58-.91-.45-.9,.12Z"/><path class="d" d="M176.13,64.36c.27-.28,.11-.87-.36-.76l-.13,.03c-.21,.05-.35,.18-.39,.39-.1,.49,.02,.97-.04,1.46-.05,.46-.11,.89-.1,1.35,0,.58,.9,.45,.9-.13,0-.45,.09-.86,.13-1.3,.03-.35-.03-.7-.01-1.05Z"/><path class="d" d="M175.34,69.92c0,.52-.21,1.05-.26,1.57-.02,.23-.02,.43-.08,.65-.07,.23-.11,.39-.1,.63,.04,.58,.94,.46,.9-.13-.01-.17,.13-.36,.16-.53,.04-.23,.02-.47,.05-.71,.05-.46,.23-.92,.23-1.38,0-.58-.9-.69-.9-.11Z"/><path class="d" d="M175.11,75.33c0,.15-.14,.36-.16,.53-.03,.3,0,.58-.06,.88-.08,.48-.22,1-.21,1.48,.02,.58,.92,.45,.9-.12,0-.25,.13-.52,.16-.77,.03-.24,.07-.48,.1-.73,.03-.24-.03-.51,.03-.75,.06-.25,.15-.38,.14-.65-.02-.58-.92-.46-.9,.13Z"/><path class="d" d="M174.48,80.76l-.13,.03c-.21,.05-.35,.18-.39,.39-.09,.47-.26,.92-.39,1.38-.11,.39-.21,.79-.47,1.11-.36,.46,.36,1.01,.72,.56,.3-.39,.46-.85,.59-1.31,.12-.45,.27-.89,.38-1.35,.33-.26,.18-.92-.31-.81Z"/><path class="d" d="M172.95,86.82c-.06,.15-.12,.32-.15,.48-.01,.06-.01,.12-.01,.19-.22,.17-.33,.4-.38,.73-.03,.22-.03,.42-.12,.63-.09,.22-.14,.37-.12,.62,.05,.58,.94,.46,.9-.13,0-.11,.14-.33,.17-.46,.04-.18,0-.51,.11-.67,.11-.17,.25-.19,.31-.42,.06-.22,.05-.41,.13-.63,.2-.55-.64-.89-.84-.35Z"/><path class="d" d="M171.03,92.2c-.26,.38-.45,.77-.56,1.22-.09,.4-.07,.87-.36,1.2-.38,.44,.34,1,.72,.56,.24-.28,.38-.69,.45-1.05,.1-.51,.17-.93,.47-1.37,.33-.48-.39-1.04-.72-.56Z"/><path class="d" d="M169.33,97.03l-.13,.03c-.2,.05-.36,.18-.39,.39-.11,.75-.69,1.42-.63,2.18,.05,.58,.95,.46,.9-.13-.02-.29,.25-.67,.35-.94,.09-.25,.17-.49,.22-.75,.32-.27,.17-.91-.32-.8Z"/><path class="d" d="M166.98,102.46c-.16,.41-.26,1-.55,1.35-.38,.45,.34,1,.72,.56,.35-.42,.48-1.06,.68-1.56,.21-.54-.63-.89-.84-.35Z"/><path class="d" d="M166.94,20.71c-.47-.5-.77-1.19-.91-1.85-.12-.57-1.02-.45-.9,.12,.17,.81,.52,1.67,1.09,2.28,.4,.42,1.12-.12,.72-.55Z"/><path class="d" d="M168.6,23.88c-.15-.16-.16-.37-.25-.56-.07-.14-.34-.39-.33-.53,.02-.58-.88-.7-.9-.11-.02,.39,.12,.58,.32,.89,.18,.28,.2,.62,.43,.86,.4,.42,1.12-.12,.72-.55Z"/><path class="d" d="M170.51,27.46c-.1-.42-.4-.74-.5-1.15-.14-.56-1.04-.44-.9,.13,.1,.38,.32,.67,.46,1.03,.08,.2,.09,.43,.17,.64,.04,.12,.21,.32,.21,.44-.02,.58,.88,.7,.9,.11,.01-.43-.23-.79-.34-1.2Z"/><path class="d" d="M173.29,32.06c-.26-.66-.77-1.23-.81-1.95-.03-.58-.92-.46-.9,.13,.04,.82,.58,1.44,.87,2.18,.21,.54,1.05,.19,.84-.35Z"/><path class="d" d="M174.61,35.36c-.03-.1-.07-.21-.12-.31-.07-.14-.17-.27-.24-.41,.13-.3-.05-.72-.45-.63l-.14,.03c-.24,.05-.43,.26-.39,.51,.07,.45,.41,.78,.51,1.22,.05,.21,.18,.35,.39,.39l.13,.02c.5,.09,.65-.59,.29-.83Z"/><path class="d" d="M175.76,39.34c-.04-.17-.08-.34-.15-.5-.06-.13-.27-.35-.26-.5,.05-.58-.85-.69-.9-.11-.03,.4,.17,.62,.32,.96,.09,.18,.1,.38,.15,.58,.05,.21,.22,.49,.21,.7-.02,.58,.88,.7,.9,.11,.02-.43-.18-.82-.27-1.24Z"/><path class="d" d="M177.52,45.12c-.26-.52-.31-1.07-.32-1.64-.01-.58-.91-.45-.9,.12,.02,.64,.09,1.29,.38,1.87,.26,.52,1.1,.17,.84-.35Z"/><path class="d" d="M178.37,48.01c.2-.55-.63-.89-.84-.35-.25,.66-.05,1.17,0,1.84,.04,.58,.94,.46,.9-.13-.03-.47-.23-.91-.06-1.37Z"/><path class="d" d="M179.55,54.11c-.16-.17-.16-.51-.22-.73-.08-.32-.17-.64-.21-.97-.07-.58-.97-.46-.9,.13,.05,.42,.19,.82,.27,1.24,.07,.32,.1,.64,.33,.89,.4,.42,1.12-.13,.72-.55Z"/><path class="d" d="M180.17,57.03c-.02-.58-.92-.45-.9,.12,.01,.32,.09,.63,.16,.94,.06,.27,.21,.58,.2,.86-.03,.58,.87,.7,.9,.11,.03-.69-.33-1.34-.36-2.03Z"/><path class="d" d="M179.22,63.25l.03,1.6c.01,.58,.91,.45,.9-.13l-.03-1.6c-.01-.58-.91-.45-.9,.13Z"/><path class="d" d="M179.15,68.69l.03,1.76c.01,.58,.91,.45,.9-.13l-.03-1.76c-.01-.58-.91-.45-.9,.13Z"/><path class="d" d="M179.27,72.94c-.2,.55-.2,1.08-.18,1.65,.02,.68-.09,1.32-.11,1.99-.01,.58,.89,.7,.9,.11,.01-.54,.13-1.08,.13-1.62,0-.61-.11-1.2,.1-1.79,.2-.55-.64-.9-.84-.35Z"/><path class="d" d="M178.07,79.44c0,.1-.09,.26-.12,.37-.04,.2-.02,.39-.02,.59,0,.45-.13,.89-.14,1.33-.02,.58,.89,.7,.9,.11,.01-.45,.14-.89,.14-1.35,0-.22,0-.42,.06-.63,.06-.2,.09-.33,.08-.54-.03-.58-.93-.46-.9,.12Z"/><path class="d" d="M177.52,84.62c-.08,.5-.35,.97-.47,1.46-.12,.49-.35,.94-.44,1.44-.1,.57,.8,.68,.9,.11,.18-.99,.75-1.9,.91-2.9,.09-.58-.81-.69-.9-.11Z"/><path class="d" d="M175.87,91.05c-.04,.3-.1,.61-.16,.91-.04,.2-.05,.48-.19,.64-.39,.43,.33,.99,.72,.56,.22-.24,.27-.57,.33-.88,.08-.37,.15-.74,.21-1.12,.08-.58-.82-.69-.9-.11Z"/><path class="d" d="M174.14,96.14c-.28,.42-.39,.85-.54,1.32-.13,.43-.36,.81-.31,1.27,.06,.58,.96,.46,.9-.13-.03-.3,.21-.66,.29-.94,.1-.34,.18-.67,.38-.97,.33-.48-.39-1.04-.72-.56Z"/><path class="d" d="M172.34,101.48c-.45,.15-.6,.66-.69,1.08-.12,.55-.34,1.13-.34,1.7,0,.58,.89,.7,.9,.11,0-.47,.19-.9,.28-1.35,.03-.15,.06-.65,.2-.7,.56-.18,.2-1.02-.35-.84Z"/><path class="d" d="M170.32,106.14c-.31,.4-.4,.81-.39,1.31,0,.58,.91,.45,.9-.12,0-.25,.06-.43,.21-.63,.36-.46-.36-1.02-.72-.56Z"/><path class="e" d="M161.11,103.57c-4.85,6.54-10.78,11.94-17.68,16.06-4.27,2.56-13.63,8.16-24.54,8.35-1.45,.03-2.92-.04-4.42-.23-6.92-.85-10.46-3.73-16.87-8.97-2.87-2.35-6.45-5.27-11.2-8.73-15.14-11.02-29.44-21.41-46.64-23.09-5.2-.51-10.54-.18-15.96,.97,.53-.41,1.07-.84,1.65-1.25,4.88-.87,9.7-1.08,14.41-.62,17.43,1.7,31.83,12.18,47.08,23.27,4.77,3.48,8.35,6.4,11.24,8.75,6.49,5.3,9.75,7.96,16.41,8.78,12.44,1.53,23.62-5.14,28.39-8,6.75-4.03,12.57-9.31,17.33-15.69,.27,.14,.54,.28,.81,.41Z"/><g class="h"><path class="b" d="M155.68,100.82c-4.43,5.12-10.77,10.76-19.41,14.8-4.89,2.29-11.32,5.3-18.91,5.44-1.3,.03-2.61-.03-3.98-.19-7.58-.9-11.58-4.47-17.63-9.87-4.37-3.9-9.81-8.75-18.55-14.53-9.01-5.95-16.79-11.1-27.95-13.53-5.26-1.14-10.65-1.56-16.15-1.26,.57-.34,1.16-.66,1.76-.98,4.95-.13,9.82,.31,14.58,1.35,11.33,2.46,19.18,7.65,28.27,13.65,8.8,5.81,14.26,10.7,18.66,14.62,6.13,5.48,9.83,8.78,17.13,9.65,9.08,1.07,16.78-2.53,22.4-5.17,8.4-3.93,14.59-9.39,18.95-14.39,.27,.13,.55,.27,.83,.41Z"/></g><g class="h"><path class="b" d="M150.71,98.38c-2.5,2.72-5.21,5.21-8.11,7.46-5.41,4.18-11.54,8.93-20.27,9.42-.33,.02-.65,.03-.98,.04-2.68,.05-5.39-.32-8.47-1.16-9.6-2.61-15.63-7.87-22.01-13.43-1.81-1.57-3.67-3.2-5.66-4.8-5.52-4.47-18.45-14.92-34.32-18.12-2.47-.5-4.97-.82-7.5-.95,.66-.25,1.35-.51,2.09-.76,1.88,.17,3.75,.45,5.6,.83,16.07,3.25,29.13,13.81,34.7,18.31,2.01,1.62,3.87,3.24,5.69,4.83,6.3,5.49,12.25,10.69,21.65,13.24,3.36,.92,6.27,1.27,9.16,1.1,8.45-.48,14.45-5.12,19.76-9.23,2.79-2.16,5.41-4.54,7.82-7.15,.28,.13,.57,.26,.85,.41Z"/></g><path class="e" d="M144.45,95.41c-8.34,8.81-16.78,13.34-25.16,13.49h0c-9.75,.17-16.61-5.53-24.57-12.14-6.92-5.76-14.77-12.28-26.36-16.76-6.52-2.51-13.43-4.08-20.67-4.67,.73-.23,1.49-.46,2.27-.68,6.53,.72,12.78,2.22,18.72,4.52,11.74,4.54,19.64,11.1,26.63,16.9,8.13,6.76,14.55,12.1,23.97,11.93h0c8.05-.14,16.2-4.51,24.29-12.99,.29,.13,.59,.27,.88,.4Z"/><path class="m" d="M204.5,125.63c-3.82-2.25-7.89-4.57-12.23-6.9,1.46-3.97,19.28-54.41-9.34-87.95-4.4-5.17-11.5-11.79-22.6-17.04,38.91,14.53,63.74,64.98,44.17,111.9Z"/></g><path class="k" d="M166.28,17.47c-1.17,1.9-6.63,.11-8.49-.5-1.19-.39-3.14-1.02-4.63-1.86-1.22-.68-2.13-1.49-2.08-2.39,.14-2.08,5.48-4.9,9.74-3.44,.44,.15,.86,.35,1.25,.57,3.27,1.87,5.19,6.05,4.21,7.62Z"/><path class="m" d="M162.07,9.85c-.77-.16-1.61-.23-2.49-.17-1.38,.08-4.16,.24-5.61,2.45-.66,.99-.82,2.07-.82,2.98-1.22-.68-2.13-1.49-2.08-2.39,.14-2.08,5.48-4.9,9.74-3.44,.44,.15,.86,.35,1.25,.57Z"/></g></svg>