<?xml version="1.0" encoding="UTF-8"?><svg id="a" xmlns="http://www.w3.org/2000/svg" viewBox="0 0 234.84 130.16"><defs><style>.b{fill:#873108;}.c{fill:#fff;}.d{fill:#7a2c07;}.e{fill:#be450a;}.f{fill:#f4f1ae;}.g{fill:#ffeaa0;}.h{opacity:.5;}.i{fill:#6d700e;}.j{fill:#d84e0b;}.k{fill:#802e08;}.l{fill:#fff5d2;}.m{fill:#532908;}.n{fill:#ffeccb;}.o{fill:#612a0e;}.p{fill:#aa3e09;}.q{fill:#ffe9c5;}.r{fill:#dd500c;}.s{fill:#ffc94a;}.t{fill:#bf450a;}.u{fill:#903408;}.v{fill:#8f3408;}.w{fill:#a7530f;}.x{fill:#fff1bf;}.y{fill:#fea;}.a`{fill:#84420c;}.aa{fill:#7c2d07;}.ab{fill:#ffcc5c;}.ac{fill:#923509;}.ad{fill:#898c11;}.ae{fill:#ffe589;}.af{fill:#dac152;}.ag{fill:#ffe179;}.ah{fill:#ffe793;}.ai{fill:#ffe385;}.aj{fill:#a13a09;}.ak{fill:#ffefd1;}</style></defs><path class="h" d="M115.96,125.93c-24.35,0-48.06-6.57-66.75-18.51-20.48-13.07-33.84-31.64-38.69-53.73-.98-1.88-1.4-3.9-1.25-5.93,0-.34,.01-.7,.08-1.08,.03-.96,.34-1.88,.86-2.66,.14-.32,.29-.64,.45-.95C17.94,29.17,61.15,13.04,114.14,10.93c.78-.44,1.66-.83,2.66-1.08,1.66-.41,3.45-.62,5.32-.62,1.56,0,3.16,.14,4.9,.42,1.57,.21,3.23,.58,4.93,1.1,42.43,.92,83.16,11.29,94.94,24.2,2.4,2.63,3.62,5.39,3.63,8.2,.27,1.69-.19,3.25-.52,4.35-.05,.16-.1,.32-.14,.47-.02,.43-.09,.85-.22,1.26-.06,.21-.14,.42-.22,.64-.5,4.99-1.54,9.89-3.11,14.58-.02,.08-.05,.16-.08,.24-.03,.09-.07,.19-.1,.28-.32,.95-.72,2.01-1.14,3.07l-.16,.4c-.42,1.02-.86,2.04-1.38,3.14l-.28,.59c-.51,1.07-1.02,2.07-1.54,3.03l-.2,.37c-.54,.98-1.1,1.95-1.66,2.88l-.18,.3c-.56,.9-1.17,1.84-1.86,2.86-.06,.09-.12,.19-.18,.28-.07,.1-.13,.19-.2,.28-.55,.79-1.1,1.56-1.67,2.31-.01,.02-.6,.77-.6,.77-.42,.54-.84,1.08-1.27,1.6l-1,1.21c-.31,.37-.65,.75-.98,1.13l-.43,.49c-.25,.28-.5,.55-.76,.83l-.67,.73-.56,.6-.43,.44c-.4,.41-.82,.84-1.25,1.26,0,0-1.44,1.4-1.49,1.44l-.15,.14c-.44,.41-.86,.8-1.29,1.19-.01,.01-.08,.07-.09,.08l-.29-.32c-.05,.02-.1,.03-.15,.05l.33,.38-.73,.64c-.48,.42-.95,.82-1.42,1.22l-.47,.4-.3,.25c-.46,.38-.86,.7-1.27,1.03l-.94,.74-1.74,1.32-1.44,1.05c-.24,.17-.47,.34-.71,.51-.02,.02-1.78,1.22-1.78,1.22l-1.81,1.19-.8,.51-.64,.4c-.47,.29-.92,.57-1.37,.84l-.61,.37-.32,.19c-.55,.32-1.08,.63-1.62,.93l-1.23,.69c-.5,.28-.99,.54-1.48,.8l-.25,.14-2.39,1.22-1.76,.86-1.48,.69c-.42,.19-.85,.39-1.27,.58l-2.19,.96-1.31,.55c-.68,.28-1.29,.53-1.91,.77-.05,.02-1,.39-1,.39l-.39,.15c-.55,.21-1.12,.43-1.7,.64-.03,.01-1.72,.61-1.72,.61l-1.79,.61-1.54,.5-.86,.27c-.46,.14-1.92,.58-1.92,.58l-.96,.28c-.49,.14-.97,.27-1.44,.4l-.76,.21c-.43,.11-1.88,.49-1.88,.49l-1.07,.27-.8,.19c-.46,.11-.93,.22-1.39,.33l-1.59,.35-.97,.2-1.94,.39-1.6,.29c-.47,.08-2.17,.37-2.17,.37l-.44,.07c-.62,.1-1.26,.19-1.9,.28,0,0-.67,.1-.69,.1,0,0-2.15,.27-2.53,.32l-2.17,.23-2,.18-1.64,.12-1.25,.08-1.61,.08-1.45,.06-1.07,.03c-.8,.02-1.58,.03-2.37,.03-2.92,.19-5.88,.29-8.81,.29Z"/><path class="c" d="M110.96,120.93c-24.35,0-48.06-6.57-66.75-18.51C23.73,89.34,10.36,70.78,5.51,48.69c-.98-1.88-1.4-3.9-1.25-5.93,0-.34,.01-.7,.08-1.08,.03-.96,.34-1.88,.86-2.66,.14-.32,.29-.64,.45-.95C12.94,24.17,56.15,8.04,109.14,5.93c.78-.44,1.66-.83,2.66-1.08,1.66-.41,3.45-.62,5.32-.62,1.56,0,3.16,.14,4.9,.42,1.57,.21,3.23,.58,4.93,1.1,42.43,.92,83.16,11.29,94.94,24.2,2.4,2.63,3.62,5.39,3.63,8.2,.27,1.69-.19,3.25-.52,4.35-.05,.16-.1,.32-.14,.47-.02,.43-.09,.85-.22,1.26-.06,.21-.14,.42-.22,.64-.5,4.99-1.54,9.89-3.11,14.58-.02,.08-.05,.16-.08,.24-.03,.09-.07,.19-.1,.28-.32,.95-.72,2.01-1.14,3.07l-.16,.4c-.42,1.02-.86,2.04-1.38,3.14l-.28,.59c-.51,1.07-1.02,2.07-1.54,3.03l-.2,.37c-.54,.98-1.1,1.95-1.66,2.88l-.18,.3c-.56,.9-1.17,1.84-1.86,2.86-.06,.09-.12,.19-.18,.28-.07,.1-.13,.19-.2,.28-.55,.79-1.1,1.56-1.67,2.31-.01,.02-.6,.77-.6,.77-.42,.54-.84,1.08-1.27,1.6l-1,1.21c-.31,.37-.65,.75-.98,1.13l-.43,.49c-.25,.28-.5,.55-.76,.83l-.67,.73-.56,.6-.43,.44c-.4,.41-.82,.84-1.25,1.26,0,0-1.44,1.4-1.49,1.44l-.15,.14c-.44,.41-.86,.8-1.29,1.19-.01,.01-.08,.07-.09,.08l-.29-.32c-.05,.02-.1,.03-.15,.05l.33,.38-.73,.64c-.48,.42-.95,.82-1.42,1.22l-.47,.4-.3,.25c-.46,.38-.86,.7-1.27,1.03l-.94,.74-1.74,1.32-1.44,1.05c-.24,.17-.47,.34-.71,.51-.02,.02-1.78,1.22-1.78,1.22l-1.81,1.19-.8,.51-.64,.4c-.47,.29-.92,.57-1.37,.84l-.61,.37-.32,.19c-.55,.32-1.08,.63-1.62,.93l-1.23,.69c-.5,.28-.99,.54-1.48,.8l-.25,.14-2.39,1.22-1.76,.86-1.48,.69c-.42,.19-.85,.39-1.27,.58l-2.19,.96-1.31,.55c-.68,.28-1.29,.53-1.91,.77-.05,.02-1,.39-1,.39l-.39,.15c-.55,.21-1.12,.43-1.7,.64-.03,.01-1.72,.61-1.72,.61l-1.79,.61-1.54,.5-.86,.27c-.46,.14-1.92,.58-1.92,.58l-.96,.28c-.49,.14-.97,.27-1.44,.4l-.76,.21c-.43,.11-1.88,.49-1.88,.49l-1.07,.27-.8,.19c-.46,.11-.93,.22-1.39,.33l-1.59,.35-.97,.2-1.94,.39-1.6,.29c-.47,.08-2.17,.37-2.17,.37l-.44,.07c-.62,.1-1.26,.19-1.9,.28,0,0-.67,.1-.69,.1,0,0-2.15,.27-2.53,.32l-2.17,.23-2,.18-1.64,.12-1.25,.08-1.61,.08-1.45,.06-1.07,.03c-.8,.02-1.58,.03-2.37,.03-2.92,.19-5.88,.29-8.81,.29Z"/><g><path class="j" d="M220.51,38.56c-1.11,15.42-54.04,24.77-108.25,25.5-56.51,.77-110.52-7.75-102.18-23.67,6.1-11.64,48.49-28.12,102.91-29.6,58.24-1.58,108.41,15.29,107.51,27.77Z"/><path class="e" d="M219.53,36.99c.53-1.58-24.46-17.68-70.09-22.36-17.67-1.81-38.58-2.52-62.14,.59-34.17,4.51-57.24,14.09-67.51,19.46-16.29,8.5-8.33,9.73-10.08,7.02l2.86,2.85s102.58-32.22,205-4.59l1.96-2.97Z"/><path class="aj" d="M113.85,16.62c-50.68,1.93-87.42,14.59-103.25,26.39,12.22,12.93,56.55,21.66,101.65,21.05,46.9-.64,95.6-10.88,106.58-23.67-4.03-9.18-57.37-25.58-104.99-23.77Z"/><path class="u" d="M100.5,30.17c-1.85,0-3.71,.02-5.57,.06-30.48,.68-57.81,7.66-76.93,15.73,18.47,10.32,56.44,18.61,94.26,18.1,30.95-.42,62.08-5.14,82.83-11.98-16.25-12.32-54.38-21.91-94.59-21.91Z"/><path class="y" d="M11.77,43.63s16.55-11.31,25.65-10.48c9.1,.83,11.86-8.83,20.69-8.83s12.7-7.86,24.27-6.9c22.79,1.9,26.26-6.66,30.61-7.72,10.63-2.61,24.35,6.31,36.41,8.83,17.22,3.6,25.24,3.46,31.36,6.1,14.75,6.35,22.95,7.84,27.35,10.66,3.29,.62,7.45,2.9,7.84,5.08,.19,1.07-1.47,2.11-2.71,2.92-4.47,3.64-37.2,21.41-102.19,21.86-65.97,.45-99.34-21.17-99.29-21.51Z"/><path class="ai" d="M71.62,30.12c-24.55,12.41,8.27,16,14.07,17.1,5.79,1.1,20.96-1.93,26.75-3.03,5.79-1.1,5.52-4.14,19.31-3.31,13.79,.83,40.27-8.27,40.27-8.27,0,0-32.55,9.93-43.58,9.93s-6.07,7.17-41.65,7.17-35.3-15.72-15.17-19.58Z"/><path class="ai" d="M126.18,51.98c19.5,2.34,13.65-2.34,30.42-5.85,16.77-3.51,10.53-14.43,3.51-14.82-7.02-.39-9.75,.78-13.65-1.95-3.9-2.73-10.53-8.58-10.53-8.58,0,0,10.14,7.02,17.94,7.8,7.8,.78,12.87-.39,15.6,5.07,2.73,5.46,4.29,9.75-5.85,14.43-10.14,4.68-11.7,.39-20.28,4.68-8.58,4.29-17.16-.78-17.16-.78Z"/><path class="ai" d="M29.7,41.98c-5.52,4.69,2.76,5.24,16,10.2,13.24,4.96,16.27,5.79,23.44,5.24,7.17-.55,5.24-1.38,11.86,.28,6.62,1.65,29.51,.83,38.34,1.93,8.83,1.1,22.89-1.65,22.89-1.65,0,0-12.96,4.14-25.37,3.86-12.41-.28-24-2.48-32.82-2.21-8.83,.28-4.69,.83-16.82-1.1-12.14-1.93-12.14-2.76-27.31-6.34-15.17-3.59-21.24-8.83-10.2-10.2Z"/><path class="ai" d="M87.96,24.87c-2.93,1.37-1.76,1.95,6.83,4.29,8.58,2.34,3.32,3.9,11.9,.98,8.58-2.93,10.53-5.27,15.41-5.46,4.88-.2,8.97-1.95,9.17-4.1,.2-2.15,2.73-5.66,2.73-5.66,0,0-.78,.78-1.17,2.93-.39,2.15,0,1.56-1.76,3.71-1.76,2.15-1.17,2.54-5.85,4.29-4.68,1.76-2.34-1.37-9.75,2.34-7.41,3.71-15.21,5.27-17.55,5.27s-1.56-1.56-9.75-4.1c-8.19-2.54-5.07-5.07-4.88-6.05,.2-.98-2.15-.2-.2-1.95,1.95-1.76-3.32-2.15-3.32-2.15,0,0,.39-1.17,2.73-.39,2.34,.78,3.71,.39,3.51,1.37-.2,.98-.78-2.93-.2,1.37,.59,4.29-4.29,1.37,2.15,3.32Z"/><path class="ai" d="M193.66,36.38c-4.68,5.07-1.17,5.46-7.02,9.75-5.85,4.29-13.26,4.68-15.21,5.85-1.95,1.17-3.9,.78-10.92,2.73-7.02,1.95-15.21,.78-15.21,.78h21.06c5.46,0,2.73-3.12,11.31-5.07,8.58-1.95,8.58-2.34,11.31-2.73,2.73-.39,5.07-5.85,5.07-5.85,0,0-5.07-3.9-.39-5.46Z"/><path class="y" d="M110.23,16.74c-4.28,1.38-2.21,0-5.38,2.62-3.17,2.62-3.72,1.24-6.9,1.93-3.17,.69-9.79-.83-9.79,.14s4.55,2.48,2.07,3.45c-2.48,.97,.55,2.07,3.45,2.76,2.9,.69,.97-.41,4.14,1.1,3.17,1.52,.55,4.14,4.28,1.52,3.72-2.62,7.72,.97,12.83-3.59,5.1-4.55,2.07-4.69,5.93-4.83,3.86-.14,2.34,2.34,5.1-.69,2.76-3.03,2.62-1.79,4.14-4.41,1.52-2.62,1.38-3.17,.14-3.17s-2.62-2.62-5.24-2.48c-2.62,.14-2.62-.41-4.41,.28-1.79,.69-2.34,0-4,.14-1.65,.14-.28-1.24-2.48,.97-2.21,2.21,.55,3.17-3.86,4.28Z"/><path class="x" d="M121.68,11.77c-3.24,1.1-3.65,.28-5.65,2.83-2,2.55,.21,2.07-4.48,4.07-4.69,2-5.1,1.59-7.86,2.41-2.76,.83-.21,.14-5.93,1.03-5.72,.9-3.17-.21-6.21,.97-3.03,1.17-2.21,.62-3.38,.28-1.17-.34-.41-.48-.21-1.38,.21-.9-.28-2.28-1.03-2.76-.76-.48,1.59-.76,4-.55,2.41,.21,8.76-.83,11.65-2.28,2.9-1.45,4.9-2.9,6.55-3.52,1.65-.62,2.76-2.76,5.24-2.62,2.48,.14,3.59-.28,4.83-.28s.21-.62,2.28,.14c2.07,.76,8.55,1.31,9.79,2.21,1.24,.9,2.62,1.17,3.45,1.65,.83,.48,2.41,1.24,2.9,1.52,.48,.28-.55-.28-3.59-.62-3.03-.34-3.38-1.17-5.79-1.52-2.41-.34-2.14-.48-4.07-1.03-1.93-.55-2.14-.76-2.48-.55Z"/><path class="x" d="M135.05,23.91c-.97,.83-.28,1.1-4.14,3.03-3.86,1.93-5.93-.83-8.55,2.48-2.62,3.31-3.59,1.65-9.65,3.86-6.07,2.21-3.17,2.62-8.41,3.03-5.24,.41,.28-3.03-10.62-.97-10.89,2.07-10.2-5.38-14.48-7.31-4.28-1.93-3.72-5.38-5.1-5.38s-6.34-.41-7.58-.28c-1.24,.14,4.28-2.9,6.21-3.31,1.93-.41,6.76-.55,7.72,3.45,.97,4,2.34,6.34,5.79,7.72,3.45,1.38,7.03,3.59,13.51,3.59s9.79-1.79,13.51-3.45c3.72-1.65,2.9-1.93,7.86-3.03,4.96-1.1,5.65-.97,8.27-2.76,2.62-1.79,4.28-1.93,5.24-4.83,.97-2.9,2.48-4.41,4.69-4.28,2.21,.14,8.55,2.9,7.31,2.76-1.24-.14-4.28-1.1-6.62-.28-2.34,.83-3.45,.55-3.72,1.65-.28,1.1-.69,1.93-1.24,4.28Z"/><path class="x" d="M59.87,27.61c-4.68,1.56-7.61,6.83-9.75,10.73-2.15,3.9-7.22,3.71-4.88,6.24,2.34,2.54,8.19,.59,9.36,4.68,1.17,4.1,8.58,2.93,17.36,4.29,8.78,1.37,.59,4.29,14.82,1.95,14.24-2.34,22.62-.78,29.84-1.95,7.22-1.17,8.39-3.32,16.58-4.68,8.19-1.37,13.26-1.95,19.7-4.88,6.44-2.93,12.09-4.49,12.09-4.49,0,0-9.95-.2-14.24,.98-4.29,1.17-12.87,3.51-18.33,4.29-5.46,.78-7.22,.59-15.41,3.12-8.19,2.54-6.05,2.54-15.21,3.32-9.17,.78-15.21,2.73-18.53,.98-3.32-1.76-8.78-1.37-16.19-3.9-7.41-2.54-12.09-2.34-10.73-8.97,1.37-6.63,1.17-8.78,5.27-9.17,4.1-.39,4.68-2.73,6.24-4.88,1.56-2.15-1.17-1.37-8,2.34Z"/><path class="x" d="M146.09,23.08c4.69,1.79,4.41,3.72,10.34,3.72s8.83-2.07,11.17,.55c2.34,2.62,6.07,4.14,6.48,9.24,.41,5.1,3.72,4.41-.14,7.45-3.86,3.03,0,4.55-8.96,5.79-8.96,1.24-18.48,3.86-16.82,3.72,1.65-.14,6.76-1.52,12.96-.97,6.21,.55,16.13-3.45,18.48-4.55,2.34-1.1,2.21-5.93,5.38-7.03,3.17-1.1,3.86-4.41-1.52-6.76-5.38-2.34-4.14-4.14-6.9-5.24-2.76-1.1-5.52-.97-7.03-2.07-1.52-1.1,1.52-1.52-7.03-3.31-8.55-1.79-7.86-1.65-10.2-1.65s-4.28-1.1-6.07-1.1-8-.97-6.34-.69c1.65,.28,2.34,2.62,6.21,2.9Z"/><path class="x" d="M32.04,34.67c-1.1,.69,3.72,4,1.65,6.76-2.07,2.76-5.65,3.03-.83,4.41,4.83,1.38,6.21,2.34,11.17,3.72,4.96,1.38,4.83,2.21,9.79,3.86,4.96,1.65,12.14,2.62,14.89,2.34,2.76-.28,.55-.28-.97-.55-1.52-.28-9.1-.69-13.51-2.76-4.41-2.07-.28-2.62-5.1-3.86-4.83-1.24-7.72,.55-7.45-2.76,.28-3.31,.14-2.9,2.62-5.52,2.48-2.62,3.31-3.59,4.14-6.48,.83-2.9,3.17-4.69,.28-2.76-2.9,1.93-4,3.31-5.93,3.31s-.28-.55-2.62-.28c-2.34,.28-5.93-1.1-8.14,.55Z"/><path class="x" d="M73.69,33.29c-5.79,2.76-5.1,4.96-2.34,8,2.76,3.03,8.55,2.76,12.69,2.76s9.52,2.21,14.48,1.1c4.96-1.1,4.28-1.93,11.31-2.76,7.03-.83,8.96-4,14.62-4s8.27,.55,15.58-.55c7.31-1.1,15.72-4,13.51-3.59-2.21,.41-10.48-.69-18.76,.97-8.27,1.65-16,.69-18.62,1.65-2.62,.97-5.65,3.17-13.79,3.86-8.14,.69-5.79-.14-15.03-.55-9.24-.41-14.2,.55-12.41-1.79,1.79-2.34,3.31-3.03,1.52-3.45-1.79-.41,0-2.48-2.76-1.65Z"/><path class="ab" d="M81.42,19.12c1.71,0,3.32,.78,3.17,1.46-.15,.68,.88,1.17,.29,2-.59,.83-1.22,2.34-.1,2.83,1.12,.49,1.27,.49,1.07,1.41-.2,.93,.88,1.41,1.32,1.41s5.22,1.12,8.19,2.44c2.97,1.32,5.41,1.71,6.53,1.46,1.12-.24,9.65-2.58,10.87-3.27,1.22-.68,5.56-3.07,9.31-3.41,3.75-.34,4.05-.93,5.51-1.46,1.46-.54,4-2.83,4.63-4.68,.63-1.85,.59-1.8,.59-1.8,0,0-1.32,5.56-5.61,7.31-4.29,1.76-4.63-.15-8.87,1.61-4.24,1.76-6.34,3.46-8.73,4.05-2.39,.59-6.83,1.95-9.51,2.15-2.68,.2-6.24-2.44-7.85-2.73-1.61-.29-5.9-.83-6.87-1.9-.98-1.07,.34-1.02-.83-2.39-1.17-1.37-.54-2.54-.15-3.46,.39-.93-.1-.88-.39-1.66-.29-.78-1.12-1.17-2.58-1.37Z"/><path class="ab" d="M141.12,24.6c3.45,2.07,5.93,4.28,13.51,5.1,7.58,.83,14.48,1.79,15.45,8.14,.97,6.34-3.45,7.31-9.65,8.96-6.21,1.65-9.65,2.21-13.79,4.14-4.14,1.93-10.48,4-15.45,2.62-4.96-1.38-3.86-1.38-3.86-1.38,0,0,4.28,1.24,8.83,1.1,4.55-.14,16.27-5.1,20.69-6.48,4.41-1.38,10.48-1.93,11.45-5.1,.97-3.17,1.1-8-3.45-9.1-4.55-1.1-6.48-2.07-12.55-2.62-6.07-.55-11.17-5.38-11.17-5.38Z"/><path class="ab" d="M66.6,32.09c-3.8,2.05-7.31,5.46-3.9,10.04,3.41,4.58,26.33,7.9,37.74,5.17,11.41-2.73,16.19-3.61,20.77-4.97,4.58-1.37,5.07,.2,14.43-1.17l9.36-1.37s-4.68,1.27-11.99,1.85c-7.31,.59-10.14,.39-14.43,1.76-4.29,1.37-12.58,5.66-25.35,5.46-12.77-.2-25.74-.68-30.52-5.36-4.78-4.68-2.34-8.19,3.9-11.41Z"/><path class="ab" d="M28.38,42.13c-.39,.39-3.41,3.32,2.83,6.05,6.24,2.73,24.18,8.09,33.84,9.26,9.65,1.17,19.02,1.37,26.23,1.95,7.22,.59,21.16,.2,26.82,.59,5.66,.39,22.04-1.46,22.04-1.46,0,0-6.05,2.15-21.65,1.85-15.6-.29-32.96-1.56-38.91-1.17-5.95,.39-22.33-2.54-30.42-4.68-8.09-2.15-29.64-7.51-20.77-12.38Z"/><path class="ab" d="M192.49,37.55c-1.46,1.56,.59,4.49-2.63,7.12-3.22,2.63-11.21,5.27-15.41,6.63-4.19,1.37-8.68,3.32-11.8,3.71-3.12,.39-9.17,.78-9.17,.78,0,0,7.51,.2,12.48-1.07,4.97-1.27,11.02-4,15.02-5.17,4-1.17,9.07-3.8,10.34-5.27,1.27-1.46,.29-5.46,1.17-6.73Z"/><path class="l" d="M132.72,13.56c-3.12-.2-8.29-5.17-15.7-2.34-7.41,2.83-8,5.95-15.8,8.29-7.8,2.34-12.87,.98-13.65,.39-.78-.59,8.97,.78,14.33-2.15,5.36-2.93,8.97-6.83,12.87-7.8,3.9-.98,8.97-.98,17.94,3.61Z"/><path class="l" d="M70.7,20.19c1.66-.68,6.44-2.24,8.48,2.15,2.05,4.39,2.63,7.7,8.48,9.46,5.85,1.76,5.17,2.88,3.8,3.02-1.37,.15-3.56,.88-7.02-2.58-3.46-3.46-5.41-6.48-7.95-9.07-2.54-2.58-6.44-1.9-7.36-1.85-.93,.05,.44-.88,1.56-1.12Z"/><path class="l" d="M138.71,16.46c-1.31,.48-2.55,1.45-4,4.48-1.45,3.03-4.48,4.83-8.07,5.38-3.59,.55-8.83,1.72-11.24,3.31-2.41,1.59-9.31,4.07-11.86,4.41-2.55,.34-.55,1.59,2.76,.83,3.31-.76,8.69-5.31,11.86-5.86,3.17-.55,4.83-.97,6.14-1.79,1.31-.83,4.28,.21,6.9-1.24,2.62-1.45,5.17-8.76,7.52-9.52Z"/><path class="g" d="M91.34,25.15c7.45,1.1,23.17-4.69,27.86-7.72,4.69-3.03,6.48-4,9.1-1.52,2.62,2.48,1.79,3.45,0,5.38-1.79,1.93-9.52,1.65-14.76,4.14-5.24,2.48-10.76,4.41-14.89,3.86-4.14-.55-10.2-4.14-7.31-4.14Z"/><path class="l" d="M73.92,35.31c-1.95,.98-4.1,5.46,.98,6.73,5.07,1.27,12.87,.49,17.75,1.76,4.88,1.27,11.99-1.07,15.99-2.05,4-.98,10.24-4,9.56-3.9-.68,.1-12.97,5.07-20.67,4.58-7.7-.49-11.21-2.05-17.26-2.15-6.05-.1-7.12-.78-4.97-3.51,2.15-2.73-1.37-1.46-1.37-1.46Z"/><path class="l" d="M126.38,36.87c3.41-.49,18.53-1.85,21.84-1.95,3.32-.1-13.07,3.32-21.84,1.95Z"/><path class="l" d="M145.88,21.95c5.17,1.66,5.95,3.02,9.85,3.12,3.9,.1,9.07-.29,10.73,.88,1.66,1.17,3.22,3.22,5.75,4.19,2.54,.98,4.19,6.44,4.68,8.78,.49,2.34,12.97,2.05,7.12-2.34-5.85-4.39-10.43-6.73-12.68-8.48-2.24-1.76-4.29-2.83-7.41-3.51-3.12-.68-7.61-.49-10.53-1.46-2.93-.98-8-1.17-7.51-1.17Z"/><path class="l" d="M177.12,44.18c-2.41,2.62-4.34,5.72-10.89,5.93-6.55,.21-11.79,2.07-11.03,1.93,.76-.14,9.58-1.1,11.72-.83,2.14,.28,6.9-3.31,9.52-3.31s5.24-4.83,5.17-5.38c-.07-.55-3.86-.34-4.48,1.65Z"/><path class="l" d="M64.26,27.51c-2.05,.49-4.78-.68-8.09,4.49-3.32,5.17-7.02,10.53-8.58,11.31-1.56,.78,6.53,.68,8.09,3.9,1.56,3.22,1.27,3.32,7.51,3.51,6.24,.2,9.85,1.07,12.38,2.73,2.54,1.66,7.02,1.07,9.17,.78,2.15-.29-6.44-1.66-12.48-3.51-6.05-1.85-11.6-1.46-14.92-4.19-3.32-2.73-1.27-5.75-2.15-8.39-.88-2.63,3.71-9.36,6.05-9.36s4.19-1.07,3.02-1.27Z"/><path class="l" d="M156.51,40.48c-2.93,0-10.43,1.76-14.33,3.51-3.9,1.76-14.92,2.15-23.6,4.49-8.68,2.34-17.55,4.49-14.53,4.39,3.02-.1,13.65,.1,17.75-2.34,4.1-2.44,10.24-4.78,14.82-4.68,4.58,.1,18.53-3.9,19.89-5.36Z"/><path class="l" d="M37.28,35.98c-.76,5.17,.14,5.65-1.93,7.1-2.07,1.45,1.79,2.07,3.45,2.76,1.65,.69,1.45,1.45,3.31,2.55,1.86,1.1,6.27,1.17,8.21,2.41,1.93,1.24,2,2.34,6.07,3.1,4.07,.76-2.34-.48-4.41-2.07-2.07-1.59,.21-2.21-3.45-2.76-3.65-.55-8.07-.07-7.58-4.07,.48-4,1.03-4.62,3.17-7.17,2.14-2.55-6.96-3.93-6.83-1.86Z"/><path class="g" d="M136.71,25.65c-10.34,5.75-11.31,4.29-15.89,6.53-4.58,2.24-9.65,3.41-13.36,4.49-3.71,1.07-6.24-1.07-9.46-.39-3.22,.68-15.21,.98-17.36-2.15-2.15-3.12-3.32-4.78-5.66-4.88-2.34-.1,1.56,1.66,2.24,4.39,.68,2.73-.2,3.9,3.9,4.68,4.1,.78,16.48,2.05,19.89,1.27,3.41-.78,10.73-1.76,12.87-2.24,2.15-.49,7.8-3.61,11.6-3.61s16.28-.78,18.14-1.95c1.85-1.17-3.22-6.63-6.92-6.14Z"/><path class="ah" d="M171.6,24.05c6.76,3.03,6.76,7.45,14.62,9.1,7.86,1.65,10.48,1.79,10.62,5.38,.14,3.59-1.65,8.27-5.65,10.34-4,2.07-8.41,.69-12.96,3.17-4.55,2.48-8.83,5.65-16.41,6.76-7.58,1.1-14.34,2.76-12.55,2.62,1.79-.14,21.24-1.93,34.61-7.58,13.38-5.65,16.41-4.14,22.48-9.38,6.07-5.24-4.96-10.2-10.34-11.86-5.38-1.65-6.48,.55-12.27-4-5.79-4.55-12.14-4.55-12.14-4.55Z"/><path class="ae" d="M30.25,39.22c-6.34,1.52-10.62,5.65-5.93,8.55,4.69,2.9,27.86,9.79,35.44,10.89,7.58,1.1,47.44,3.72,53.65,4.69,6.21,.97,24.96-1.79,24.96-1.79,0,0-17.38,4.83-47.72,1.79-30.34-3.03-46.89-5.38-60.95-12.14-14.07-6.76-16.41-6.9-14.89-7.86,1.52-.97,24-12.69,15.45-4.14Z"/><path class="ae" d="M93.41,56.73c9.24,.69,25.51-2.07,30.75-1.93,5.24,.14,10.07,1.24,14.2,.97,4.14-.28,12.55-3.31,15.31-2.9,2.76,.41-.83,.14-4.83,1.24-4,1.1-4.14,1.52-2.07,1.93,2.07,.41,9.79,1.52,5.93,1.52s-12.55-.69-19.86,0c-7.31,.69-28.55,1.38-39.44-.83Z"/><path class="ae" d="M92.74,26.04c2,.54,9.22,.73,14.82-.93,5.61-1.66,16.53-6.44,19.21-6.87,2.68-.44,3.41,.54,2.19,2.1-1.22,1.56-8.82,2.78-13.07,4.14-4.24,1.37-11.95,4.73-14.92,4.83-2.97,.1-11.51-2.88-8.24-3.27Z"/><path class="ae" d="M142.47,29.26c-1.07,.68-15.99,2.83-21.06,4-5.07,1.17-14.82,4.88-20.28,5.17-5.46,.29-18.92-2.05-21.36-2.73-2.44-.68-1.76,1.37,1.56,2.15,3.32,.78,12.19,1.85,17.36,1.56,5.17-.29,14.53-2.15,17.06-3.12,2.54-.98,9.26-3.32,11.9-3.22,2.63,.1,12.58-.1,14.53-.98,1.95-.88,2.54-2.93,.29-2.83Z"/><path class="ag" d="M172.7,24.39c1.95,.29,6.34,2.93,11.21,5.56,4.88,2.63,9.85,2.63,13.16,4.49,3.32,1.85,7.7,4.97,6.44,8.39-1.27,3.41-8.29,6.83-13.65,8.19-5.36,1.37-12.58,4.1-15.31,4.97-2.73,.88-19.41,4.68-18.92,4.58,.49-.1,20.77-4.19,23.01-4.88,2.24-.68,12.09-4.39,16.19-5.56,4.1-1.17,11.9-4.39,12.77-8.29,.88-3.9-8.09-7.9-12.58-8.87-4.49-.98-8.19-2.05-11.41-4.49-3.22-2.44-10.92-4.1-10.92-4.1Z"/><path class="n" d="M151.21,73.47c-4,3.8-2.54,2.94-4.44,5.05-1.9,2.11-3.15,1.67-3.31,2.22-.15,.54-1.66,.44-4.21-.73-2.54-1.17-2.69,.04-.59,.08,2.1,.03,1.86,1.71,4.33,1.09,2.46-.61,3.66-.62,4.82-2.63,1.16-2.02,2.17-2.3,2.73-3.19,.56-.89,.65-.16-.47,1.63-1.12,1.79-1.62,1.4-1.93,3.01-.32,1.61-1.27,2.33-.8,1.9,.47-.43,.67-.01,1.88-2.26,1.21-2.25,1.27-2.33,1.91-3.16,.64-.83,.86-1.46,1.28-2.86,.42-1.4,1.34-2.94,1.9-3.31,.55-.37,2.12-1.54,.55-.37-1.57,1.17-1.77,.23-2.31,1.79-.55,1.57-1.35,1.74-1.35,1.74Z"/><path class="ak" d="M119.33,76.79c2.21,3.83,2.04,4.23,4,4.95,1.96,.72,1.88-.54,3.43,1.06,1.55,1.6,4.03,1.65,5.39,1.78,1.36,.13,2.43-.91,4.07-1.49,1.65-.58,4.02-.74,1.64-.06-2.38,.68-1.44,1.01-3.69,1.52-2.25,.51-1.62,.21-5.26-.75-3.64-.96-5.91-1.79-4.64-1.2,1.27,.59,.48-1.48,1.67,.76,1.18,2.24,4.11,4.11,4.53,4.43,.41,.32-.23,1.15-1.71-.53-1.49-1.68-.17-1.32-2.25-2.4-2.08-1.08-.84-.12-2.68-1.68-1.84-1.56-.66-1.04-2.43-2.01-1.77-.97-2.58-1.47-3.08-1.85-.5-.39-.27-.34-.88-1.61-.61-1.27-1.91-2.67-2.74-3.31,0,0,1.7,.72,2.49,2.19,.79,1.47,.82,2.03,1.65,2.67,.83,.64,2.54,1.43,1.95,.91-.59-.52-.67-.85-1.16-1.76-.49-.91-.28-1.61-.28-1.61Z"/><path class="n" d="M105.5,71.15c.83,3.17,.93,3.16,2.26,3.62,1.33,.46,1.24,.58,2.5,1.74,1.26,1.16,.71,.17,1.24,1.43,.53,1.25-.47,0,.48,1.31,.96,1.31,1.44,.08,.96,1.31-.48,1.22,.24,1.64,.5,1.84,.26,.2-.33,0-.55-.45-.22-.45-.18-.65-.16-.92,.02-.27,.4-1,.16-1.05-.24-.05-.3,.12-.62-.27-.31-.38-.87-.88-.84-1,.02-.12,.46,.07,0-.66-.46-.73-.41-.83-.65-1.01-.23-.18-.86-.74-1.76-1.34-.9-.6-.79-.92-1.16-.9-.37,.02-1.82-1.01-1.81-.81,.01,.2,.23,.25,.31,.81,.08,.56-.14,.57,.14,.97,.28,.4,.33,.18,.59,.76,.26,.58,.49,.7,.59,.93,.11,.22,.17,.36,.03,.17-.13-.19-.04-.13-.36-.56-.32-.44-.77-1.09-1.04-1.32-.27-.23,0-.75-.31-1.27-.3-.52-.18-.68-.12-.84,.06-.17,.41,.74,.17,.06-.25-.68-.38-1.3-.46-1.74-.08-.44-.36-.63-.28-.94,.08-.31,.04-1.02,.06-1.38,.02-.36,.1-.79,.09-.12,0,.68-.03,1.13-.02,1.32,.01,.2,.04,.31,.04,.31Z"/><path class="n" d="M144.13,83.03c-1.24,.63-2.52,1.8-3.65,2.05-1.13,.25-.46-.26-2.02,.31-1.57,.57-2.54,.85-3.49,.87-.95,.02-1.3-.26-3.73-.63-2.43-.38-2.07-.48-1.14-.22,.93,.25,1.56,1.02,3.06,.77,1.5-.24,3.01-.01,4.62-.27,1.61-.26,2.68-.55,1.87-.24-.81,.31-1.05,.87-2.42,.94-1.37,.07-1.89,.14-1.09,.19,.8,.06,1.61,.22,2.78-.57,1.17-.78,1.29-1.06,2.05-1.32,.76-.26,1.98-.62,2.27-.87,.29-.25,.88-1.01,.88-1.01Z"/><path class="ak" d="M34.69,58.56c2.21,3.83,2.04,4.23,4,4.95,1.96,.72,1.88-.54,3.43,1.06,1.55,1.6,4.03,1.65,5.39,1.78,1.36,.13,2.43-.91,4.07-1.49,1.65-.58,4.02-.74,1.64-.06-2.38,.68-1.44,1.01-3.69,1.52-2.25,.51-1.62,.21-5.26-.75-3.64-.96-5.91-1.79-4.64-1.2,1.27,.59,.48-1.48,1.67,.76,1.18,2.24,4.11,4.11,4.53,4.43,.41,.32-.23,1.15-1.71-.53-1.49-1.68-.17-1.32-2.25-2.4-2.08-1.08-.84-.12-2.68-1.68-1.84-1.56-.66-1.04-2.43-2.01-1.77-.97-2.58-1.47-3.08-1.85-.5-.39-.27-.34-.88-1.61-.61-1.27-1.91-2.67-2.74-3.31,0,0,1.7,.72,2.49,2.19,.79,1.47,.82,2.03,1.65,2.67,.83,.64,2.54,1.43,1.95,.91-.59-.52-.67-.85-1.16-1.76-.49-.91-.28-1.61-.28-1.61Z"/><path class="n" d="M59.5,64.8c-1.24,.63-2.52,1.8-3.65,2.05-1.13,.25-.46-.26-2.02,.31-1.57,.57-2.54,.85-3.49,.87-.95,.02-1.3-.26-3.73-.63-2.43-.38-2.07-.48-1.14-.22,.93,.25,1.56,1.02,3.06,.77,1.5-.24,3.01-.01,4.62-.27,1.61-.26,2.68-.55,1.87-.24-.81,.31-1.05,.87-2.42,.94-1.37,.07-1.89,.14-1.09,.19,.8,.06,1.61,.22,2.78-.57,1.17-.78,1.29-1.06,2.05-1.32,.76-.26,1.98-.62,2.27-.87,.29-.25,.88-1.01,.88-1.01Z"/><path class="q" d="M56.97,61.44c2.28,6.27,1.29,4.28,2.05,8.62,.77,4.34,.53,4.53,1.7,5.44,1.17,.91,3.44-2.5,4.13,2.91,.69,5.41-2.2,4.3,.69,5.41,2.89,1.11,3.13,1.29,3.13,1.29,0,0-4.24-.46-4.66-2.1-.42-1.64,1.03-.61,.67-3.05-.36-2.44-.54-4.27-1.23-4.23-.68,.03-.52,1.28-1.3,.59-.78-.69-1.63-2.38-1.6-3.39,.03-1.01,1.65-1.95,1.82-2.66,.17-.71,1.9-3.37,.39-1.16-1.52,2.2-1.69,2.54-2.03,2.74-.34,.2-.18,.67-.36-.31-.18-.98-.2-1.38-.53-2.66-.32-1.28-.22-2.39-1.01-3.67-.8-1.27-1.45-3.46-1.86-3.78Z"/><path class="n" d="M101.65,74.68c-4,3.8-2.54,2.94-4.44,5.05-1.9,2.11-3.15,1.67-3.31,2.22-.15,.54-1.66,.44-4.21-.73-2.54-1.17-2.69,.04-.59,.08,2.1,.03,1.86,1.71,4.33,1.09,2.46-.61,3.66-.62,4.82-2.63,1.16-2.02,2.17-2.3,2.73-3.19,.56-.89,.65-.16-.47,1.63-1.12,1.79-1.62,1.4-1.93,3.01-.32,1.61-1.27,2.33-.8,1.9,.47-.43,.67-.01,1.88-2.26,1.21-2.25,1.27-2.33,1.91-3.16,.64-.83,.86-1.46,1.28-2.86,.42-1.4,1.34-2.94,1.9-3.31,.55-.37,2.12-1.54,.55-.37-1.57,1.17-1.77,.23-2.31,1.79-.55,1.57-1.35,1.74-1.35,1.74Z"/><path class="ak" d="M69.77,78c2.21,3.83,2.04,4.23,4,4.95,1.96,.72,1.88-.54,3.43,1.06,1.55,1.6,4.03,1.65,5.39,1.78,1.36,.13,2.43-.91,4.07-1.49,1.65-.58,4.02-.74,1.64-.06-2.38,.68-1.44,1.01-3.69,1.52-2.25,.51-1.62,.21-5.26-.75-3.64-.96-5.91-1.79-4.64-1.2,1.27,.59,.48-1.48,1.67,.76,1.18,2.24,4.11,4.11,4.53,4.43,.41,.32-.23,1.15-1.71-.53-1.49-1.68-.17-1.32-2.25-2.4-2.08-1.08-.84-.12-2.68-1.68-1.84-1.56-.66-1.04-2.43-2.01-1.77-.97-2.58-1.47-3.08-1.85-.5-.39-.27-.34-.88-1.61-.61-1.27-1.91-2.67-2.74-3.31,0,0,1.7,.72,2.49,2.19,.79,1.47,.82,2.03,1.65,2.67,.83,.64,2.54,1.43,1.95,.91-.59-.52-.67-.85-1.16-1.76-.49-.91-.28-1.61-.28-1.61Z"/><path class="q" d="M81.42,78.2c-2.13,1.47-1.05,2.9-2.96,2.02-1.91-.88-.58-.45-2.84-1.47-2.26-1.02-2.36-1.49-2.98-1.98-.62-.48-1.81-4.52-1.81-4.18,0,.34,.17,2.52,.38,2.94,.2,.42,.92,.78,1.19,1.38,.26,.6,.45,.62,1.72,1.46,1.27,.85,2.34,1.01,2.86,1.28,.52,.27,1.5,.63,.42,.39-1.08-.24-.51-.2-1.57-.29-1.06-.09-.97,.05-1.6-.24-.64-.29-.75-.58-1.32-.69-.58-.11-1.09-.31-.57-.04,.52,.27,.43,.13,1.27,.59,.84,.45,.74,.5,1.39,.61,.65,.1,.88,.15,1.37,.2,.49,.05,.84,.72,1.62,.39,.78-.32,1.1,.25,1.75-.07,.65-.33,.48-.75,.77-1.16,.28-.41,.27-.52,.5-.61,.23-.09,.11-.18,.65-.49,.54-.31,.61-.79,.36-.55-.25,.24-.59,.51-.59,.51Z"/><path class="n" d="M55.93,72.36c.83,3.17,.93,3.16,2.26,3.62,1.33,.46,1.24,.58,2.5,1.74,1.26,1.16,.71,.17,1.24,1.43,.53,1.25-.47,0,.48,1.31,.96,1.31,1.44,.08,.96,1.31-.48,1.22,.24,1.64,.5,1.84,.26,.2-.33,0-.55-.45-.22-.45-.18-.65-.16-.92,.02-.27,.4-1,.16-1.05-.24-.05-.3,.12-.62-.27-.31-.38-.87-.88-.84-1,.02-.12,.46,.07,0-.66-.46-.73-.41-.83-.65-1.01-.23-.18-.86-.74-1.76-1.34-.9-.6-.79-.92-1.16-.9-.37,.02-1.82-1.01-1.81-.81,.01,.2,.23,.25,.31,.81,.08,.56-.14,.57,.14,.97,.28,.4,.33,.18,.59,.76,.26,.58,.49,.7,.59,.93,.11,.22,.17,.36,.03,.17-.13-.19-.04-.13-.36-.56-.32-.44-.77-1.09-1.04-1.32-.27-.23,0-.75-.31-1.27-.3-.52-.18-.68-.12-.84,.06-.17,.41,.74,.17,.06-.25-.68-.38-1.3-.46-1.74-.08-.44-.36-.63-.28-.94,.08-.31,.04-1.02,.06-1.38,.02-.36,.1-.79,.09-.12,0,.68-.03,1.13-.02,1.32,.01,.2,.04,.31,.04,.31Z"/><path class="n" d="M94.57,84.24c-1.24,.63-2.52,1.8-3.65,2.05-1.13,.25-.46-.26-2.02,.31-1.57,.57-2.54,.85-3.49,.87-.95,.02-1.3-.26-3.73-.63-2.43-.38-2.07-.48-1.14-.22,.93,.25,1.56,1.02,3.06,.77,1.5-.24,3.01-.01,4.62-.27,1.61-.26,2.68-.55,1.87-.24-.81,.31-1.05,.87-2.42,.94-1.37,.07-1.89,.14-1.09,.19,.8,.06,1.61,.22,2.78-.57,1.17-.78,1.29-1.06,2.05-1.32,.76-.26,1.98-.62,2.27-.87,.29-.25,.88-1.01,.88-1.01Z"/><path class="ac" d="M219.74,35.76c-8.47,25.65-64.92,28.86-107.02,28.93-41.37,0-88.67,3.95-103.38-22.86,7.35,50.93,59.81,77.17,110.26,73.81,46.42-.04,101.83-29.54,100.14-79.88Z"/><path class="aa" d="M220.53,38.76c-2.7,14.68-53.7,28.03-105.84,28.73-49.06,.66-98.41-11.79-105.09-25.95-3.52,15.52,51.27,31.32,105.7,30.59,54.21-.73,100.41-15.88,104.57-29.35-.09-.96,1.03-3.06,.67-4.02Z"/><path class="p" d="M219.74,35.76c-2.7,14.68-55.34,27.6-107.48,28.3-49.06,.66-95.5-9.51-102.18-23.67-3.52,15.52,48.35,29.04,102.78,28.3,54.21-.73,108.96-14.67,107.56-30.06-.09-.96-.32-1.92-.69-2.88Z"/><path class="v" d="M216.51,58.07c-54.92,35.64-121.71,44.09-155.54,46.1,18.07,8.65,38.67,12.8,58.63,11.47,39.07-.03,84.51-20.94,96.91-57.57Z"/><path class="b" d="M208.42,74.08c-46.66,25.48-98.64,33.8-130.96,36.52,13.62,4.19,28.04,5.98,42.14,5.04,32.96-.03,70.46-14.91,88.82-41.56Z"/><path class="d" d="M197.83,86.34c-37.22,17.27-76.11,24.73-104.66,27.96,8.75,1.45,17.65,1.93,26.42,1.34,27.5-.02,58.16-10.39,78.23-29.3Z"/><path class="t" d="M10.11,41.78s33.54,30.57,133.87,21.5c0,0-99.42,16.98-133.87-21.5Z"/><path class="r" d="M16.45,47.13s33.85,17.97,77.16,17.77c0,0-50.06-1.75-77.16-17.77Z"/><path class="k" d="M207.89,54.17c-1.14,.57-29.63,23.93-133.06,17.67,109.98,11.68,133.06-17.67,133.06-17.67Z"/><g><path class="s" d="M158.51,38.21c.96-.29,3.33,.05,4.77,1.45,1.45,1.4,2.6-.05,2.41,1.54-.19,1.59-.53,1.4-1.54,2.41-1.01,1.01-.05,.72-1.88,1.16-1.83,.43,.29,.29-2.36,.63-2.65,.34-.34,.82-3.95-.05-3.61-.87-3.08-1.98-4-2.55-.92-.58-1.49-.96-.43-1.69,1.06-.72,1.3-.24,2.26-1.4,.96-1.16,2.02-1.16,2.7-.96,.67,.19,.72-.82,2.02-.53Z"/><path class="o" d="M161.53,44.13c2.09-.81,1.8-.32,2.51-1.36,.71-1.04,.15-.47-.41-1.4-.56-.93-.83-.85-2.04-1.72-1.21-.87-1.91-.98-3.48-.77-1.57,.21-2.41,1.36-3.65,1.56-1.24,.2-3.48,.83-2.44,1.92,1.05,1.1,.1,.95,1.54,1.41,1.45,.45,2.2,.94,4.55,.76,2.35-.18,3,.3,3.42-.4Z"/><path class="a`" d="M161.16,43.71c1.77-.68,1.55-.28,2.12-1.13,.57-.85,.11-.39-.4-1.13-.52-.75-.75-.68-1.82-1.37-1.07-.69-1.68-.77-3.03-.59-1.35,.19-2.03,1.13-3.1,1.31-1.06,.17-2.98,.71-2.03,1.59,.94,.88,.12,.77,1.38,1.12,1.26,.35,1.93,.74,3.95,.57,2.02-.17,2.6,.21,2.93-.36Z"/><path class="m" d="M162.27,42.73c.21-.17,.43-1.13,.1-.52-.79,.02-.98,.48-1.8,.42-1.68-.38-3.17-.24-3.79,.37-.36,.39-2.67-.47-2.13,.3,.69-.14,1.89,.06,2.42-.27,.41-.35,1.14-.52,2.13-.39,1,.2,2.09,.48,2.56,.12,.19,.02,.41,.04,.51-.03Z"/><path class="m" d="M160.04,42.21c2-1.07,.9-.6,.03-.39-.88,.21-.73-.4-1.91-.29-1.18,.1-.7,.13-1.92,.21-1.22,.08-1.7,.1-1.86,.3-.16,.2-.16,1.03,.1,.57,.26-.46-.46-.36,.45-.5,.9-.14,1.33,.07,1.94-.22,.61-.29,.52-.24,1.39-.08,.87,.16,.86,.29,1.17,.19,.31-.1,.12,.4,.6,.21Z"/><path class="m" d="M161.88,41.25c-.11-.57-1.5-.8-2.04-.71-.53,.09-1.23-.62-2.04-.34-.81,.28-1.34,.72-2.26,.8-.92,.09-.88-.14-1.63,.4-.75,.54-.42,1.01-.23,1.31,.19,.3-.12-.28-.03-.63,.08-.35,.34-.68,.74-.83,.41-.15,1.28,.08,2.38-.45,1.1-.52,1.22-.68,1.61-.54,.39,.15,.57,.39,1.19,.39,.62,0,.44-.15,1.09,.02,.66,.16,1.26,.87,1.21,.56Z"/><path class="w" d="M160.8,41.27c-1.42-.49-1.84-.31-2.32-.43-.48-.12-2.24,.46-2.92,.54-.68,.08-1.41,.21-1.55,.51-.14,.29,.08-.06,.46-.09,.38-.03,1.78-.39,2.49-.39,.71,0,1.26-.2,1.86-.1,.6,.11,1.1,.12,1.41,.08,.3-.04,1.29,.26,.58-.11Z"/><path class="w" d="M159.06,42.16c-.48-.12-1.29-.28-1.61-.12-.32,.15-1.48,.23-1.88,.25-.4,.02-.85,.2-.82,.41,.04,.21,1.15,.16,1.63,.05,.48-.1,.71-.42,1.4-.46,.69-.04,1.9,.07,1.27-.13Z"/><path class="w" d="M161.22,43.18c-1.42-.11-2.36-.72-2.98-.45-.62,.27-1.3,.76-2.22,.7-.92-.06-1.16,0-.89,.13,.27,.14,2.95,.19,3.69,.17,.73-.02,1.86-.14,2.34-.24,.48-.1,1.08-.29,1.45-.44,.37-.16-.01,0-.58-.01-.57-.02-.61,.04-.8,.13Z"/><path class="w" d="M161.89,40.75c-.39-.23-1.16-.77-1.76-.97-.6-.19-2.04-.38-2.45-.2-.41,.17-1.25,.61-1.52,.89-.27,.27-.06,.3,.28,.18,.34-.12,1.41-.63,2.03-.65,.61-.02,1.13,.23,2,.38,.87,.15,2.25,1,1.42,.38Z"/></g><g><path class="s" d="M68.85,41.69c.96-.29,3.33,.05,4.77,1.45,1.45,1.4,2.6-.05,2.41,1.54-.19,1.59-.53,1.4-1.54,2.41-1.01,1.01-.05,.72-1.88,1.16-1.83,.43,.29,.29-2.36,.63-2.65,.34-.34,.82-3.95-.05-3.61-.87-3.08-1.98-4-2.55-.92-.58-1.49-.96-.43-1.69,1.06-.72,1.3-.24,2.26-1.4,.96-1.16,2.02-1.16,2.7-.96,.67,.19,.72-.82,2.02-.53Z"/><path class="o" d="M71.87,47.61c2.09-.81,1.8-.32,2.51-1.36,.71-1.04,.15-.47-.41-1.4-.56-.93-.83-.85-2.04-1.72-1.21-.87-1.91-.98-3.48-.77-1.57,.21-2.41,1.36-3.65,1.56-1.24,.2-3.48,.83-2.44,1.92,1.05,1.1,.1,.95,1.54,1.41,1.45,.45,2.2,.94,4.55,.76,2.35-.18,3,.3,3.42-.4Z"/><path class="a`" d="M71.5,47.19c1.77-.68,1.55-.28,2.12-1.13,.57-.85,.11-.39-.4-1.13-.52-.75-.75-.68-1.82-1.37-1.07-.69-1.68-.77-3.03-.59-1.35,.19-2.03,1.13-3.1,1.31-1.06,.17-2.98,.71-2.03,1.59,.94,.88,.12,.77,1.38,1.12,1.26,.35,1.93,.74,3.95,.57,2.02-.17,2.6,.21,2.93-.36Z"/><path class="m" d="M72.61,46.21c.21-.17,.43-1.13,.1-.52-.79,.02-.98,.48-1.8,.42-1.68-.38-3.17-.24-3.79,.37-.36,.39-2.67-.47-2.13,.3,.69-.14,1.89,.06,2.42-.27,.41-.35,1.14-.52,2.13-.39,1,.2,2.09,.48,2.56,.12,.19,.02,.41,.04,.51-.03Z"/><path class="m" d="M70.38,45.69c2-1.07,.9-.6,.03-.39-.88,.21-.73-.4-1.91-.29-1.18,.1-.7,.13-1.92,.21-1.22,.08-1.7,.1-1.86,.3-.16,.2-.16,1.03,.1,.57,.26-.46-.46-.36,.45-.5,.9-.14,1.33,.07,1.94-.22,.61-.29,.52-.24,1.39-.08,.87,.16,.86,.29,1.17,.19,.31-.1,.12,.4,.6,.21Z"/><path class="m" d="M72.22,44.73c-.11-.57-1.5-.8-2.04-.71-.53,.09-1.23-.62-2.04-.34-.81,.28-1.34,.72-2.26,.8-.92,.09-.88-.14-1.63,.4-.75,.54-.42,1.01-.23,1.31,.19,.3-.12-.28-.03-.63,.08-.35,.34-.68,.74-.83,.41-.15,1.28,.08,2.38-.45,1.1-.52,1.22-.68,1.61-.54,.39,.15,.57,.39,1.19,.39,.62,0,.44-.15,1.09,.02,.66,.16,1.26,.87,1.21,.56Z"/><path class="w" d="M71.14,44.75c-1.42-.49-1.84-.31-2.32-.43-.48-.12-2.24,.46-2.92,.54-.68,.08-1.41,.21-1.55,.51-.14,.29,.08-.06,.46-.09,.38-.03,1.78-.39,2.49-.39,.71,0,1.26-.2,1.86-.1,.6,.11,1.1,.12,1.41,.08,.3-.04,1.29,.26,.58-.11Z"/><path class="w" d="M69.4,45.64c-.48-.12-1.29-.28-1.61-.12-.32,.15-1.48,.23-1.88,.25-.4,.02-.85,.2-.82,.41,.04,.21,1.15,.16,1.63,.05,.48-.1,.71-.42,1.4-.46,.69-.04,1.9,.07,1.27-.13Z"/><path class="w" d="M71.56,46.66c-1.42-.11-2.36-.72-2.98-.45-.62,.27-1.3,.76-2.22,.7-.92-.06-1.16,0-.89,.13,.27,.14,2.95,.19,3.69,.17,.73-.02,1.86-.14,2.34-.24,.48-.1,1.08-.29,1.45-.44,.37-.16-.01,0-.58-.01-.57-.02-.61,.04-.8,.13Z"/><path class="w" d="M72.23,44.23c-.39-.23-1.16-.77-1.76-.97-.6-.19-2.04-.38-2.45-.2-.41,.17-1.25,.61-1.52,.89-.27,.27-.06,.3,.28,.18,.34-.12,1.41-.63,2.03-.65,.61-.02,1.13,.23,2,.38,.87,.15,2.25,1,1.42,.38Z"/></g><g><path class="s" d="M103.3,23.37c.95,.34,2.65,2,3,3.98,.34,1.98,2.13,1.5,1.03,2.67-1.09,1.17-1.25,.81-2.67,1.03-1.41,.22-.47,.55-2.2-.18-1.73-.73,.06,.4-2.28-.89-2.34-1.29-.76,.46-3.16-2.37-2.4-2.84-1.32-3.42-1.72-4.42-.4-1.01-.64-1.66,.65-1.62,1.28,.04,1.19,.57,2.65,.21,1.46-.36,2.32,.26,2.75,.82,.43,.55,1.07-.23,1.95,.77Z"/><path class="o" d="M102.25,29.94c2.16,.58,1.64,.81,2.83,.39,1.19-.42,.4-.29,.5-1.37,.1-1.08-.17-1.18-.63-2.59-.46-1.41-.96-1.92-2.35-2.68-1.39-.76-2.75-.32-3.87-.9-1.12-.57-3.3-1.39-3.1,.11,.2,1.5-.48,.83,.42,2.05,.9,1.22,1.22,2.06,3.22,3.3,2,1.24,2.24,2.02,2.99,1.7Z"/><path class="a`" d="M102.2,29.37c1.83,.5,1.41,.69,2.38,.34,.97-.35,.32-.24,.35-1.15,.03-.91-.2-.99-.66-2.18-.46-1.19-.9-1.62-2.1-2.27-1.2-.65-2.31-.29-3.27-.78-.96-.49-2.82-1.19-2.58,.08,.24,1.27-.36,.69,.45,1.72,.81,1.03,1.12,1.74,2.85,2.79,1.73,1.05,1.97,1.71,2.58,1.44Z"/><path class="m" d="M103.67,29.24c.27-.02,1.02-.66,.39-.36-.65-.45-1.07-.2-1.7-.73-1.13-1.3-2.41-2.06-3.27-1.94-.52,.1-1.88-1.95-1.89-1.01,.63,.3,1.49,1.16,2.11,1.21,.54-.04,1.23,.25,1.94,.95,.69,.75,1.4,1.62,1.99,1.61,.14,.13,.31,.28,.43,.28Z"/><path class="m" d="M102.18,27.5c2.25,.31,1.08,.05,.25-.3-.83-.35-.35-.75-1.37-1.37-1.01-.61-.64-.31-1.67-.97-1.03-.65-1.43-.92-1.68-.85-.24,.07-.74,.74-.26,.52,.48-.21-.15-.56,.66-.14,.81,.42,1.03,.84,1.7,.97,.67,.13,.56,.11,1.17,.76,.61,.65,.52,.75,.83,.84,.31,.1-.14,.39,.36,.53Z"/><path class="m" d="M104.23,27.82c.24-.52-.74-1.53-1.22-1.78-.48-.24-.63-1.22-1.45-1.48-.82-.25-1.5-.21-2.3-.69-.8-.48-.63-.63-1.55-.64-.93,0-.93,.57-.96,.92-.03,.36,.07-.29,.34-.53,.28-.23,.67-.35,1.09-.23,.42,.12,.98,.82,2.18,1.05,1.2,.23,1.39,.17,1.61,.52,.23,.35,.23,.65,.73,1.02,.5,.36,.44,.14,.87,.66,.43,.52,.5,1.45,.65,1.17Z"/><path class="w" d="M103.35,27.19c-.85-1.23-1.3-1.33-1.62-1.72-.32-.38-2.08-.95-2.68-1.29-.59-.34-1.26-.66-1.55-.5-.28,.16,.1,0,.42,.2,.33,.2,1.67,.74,2.24,1.15,.57,.41,1.13,.58,1.56,1.02,.43,.44,.82,.75,1.09,.89,.27,.15,.88,.97,.53,.25Z"/><path class="w" d="M101.42,26.88c-.32-.38-.88-.99-1.23-1.05-.35-.07-1.33-.69-1.66-.91-.33-.22-.8-.34-.9-.15-.09,.19,.83,.81,1.28,1.01,.45,.2,.82,.08,1.41,.46,.58,.38,1.49,1.18,1.1,.65Z"/><path class="w" d="M102.56,28.98c-1.08-.93-1.48-1.98-2.14-2.12-.66-.15-1.5-.15-2.21-.75-.71-.59-.93-.69-.8-.42,.14,.27,2.27,1.9,2.87,2.32,.6,.42,1.58,.99,2.03,1.19,.45,.2,1.04,.41,1.44,.5,.4,.09-.01,0-.46-.36-.45-.35-.51-.33-.73-.37Z"/><path class="w" d="M104.54,27.42c-.18-.42-.48-1.31-.85-1.82-.37-.51-1.42-1.51-1.86-1.61-.44-.1-1.37-.24-1.75-.18-.38,.06-.23,.2,.13,.31,.35,.1,1.51,.33,2.02,.67,.51,.34,.78,.85,1.39,1.48,.61,.63,1.22,2.14,.92,1.15Z"/></g><g><path class="s" d="M102.44,42.46c-.96,.67-4,3.04-3.47,4.29,.53,1.25,5.2,.72,8.63-1.25,3.42-1.98,3.04-5.25,2.07-5.11-.96,.14-2.99-.14-7.23,2.07Z"/><path class="i" d="M110.13,41.04s-4.54,8.08-11.29,5.88c2.57-5.51,11.4-6.13,11.29-5.88Z"/><path class="ad" d="M110.04,41.21s-4.47,7.43-11.05,5.77c2.31-4.33,11.05-5.77,11.05-5.77Z"/><path class="af" d="M109.77,41.47s-2.72,3.8-5.62,4.92c-2.9,1.12-5,.57-5,.57,0,0,1.95-2.91,10.62-5.49Z"/><path class="f" d="M109.59,41.65s-3.4,3.86-5.42,4.55c-2.03,.7-4.66,.73-4.66,.73,0,0,8.67-4.95,10.09-5.29Z"/></g><g><path class="s" d="M144.8,22.71c-1.13-.34-4.86-1.25-5.52-.06-.65,1.19,2.66,4.53,6.33,5.99,3.67,1.46,6-.88,5.29-1.54-.71-.67-1.74-2.43-6.11-4.38Z"/><path class="i" d="M150.69,27.86s-9.15,1.45-11.62-5.21c5.91-1.4,11.88,5.14,11.62,5.21Z"/><path class="ad" d="M150.49,27.89s-8.6,1.11-11.38-5.08c4.83-.88,11.38,5.08,11.38,5.08Z"/><path class="af" d="M150.13,27.84s-4.67,.22-7.34-1.36c-2.67-1.58-3.55-3.57-3.55-3.57,0,0,3.49-.28,10.9,4.92Z"/><path class="f" d="M149.88,27.81s-5.13-.27-6.94-1.43c-1.8-1.16-3.47-3.2-3.47-3.2,0,0,9.26,3.72,10.4,4.63Z"/></g><g><path class="s" d="M45.41,36.06c-.86-.26-3.72-.96-4.22-.05-.5,.91,2.04,3.47,4.85,4.58,2.81,1.11,4.59-.67,4.05-1.18-.54-.51-1.33-1.86-4.67-3.35Z"/><path class="i" d="M49.92,40s-7,1.11-8.89-3.98c4.52-1.07,9.09,3.93,8.89,3.98Z"/><path class="ad" d="M49.77,40.02s-6.58,.85-8.71-3.89c3.7-.67,8.71,3.89,8.71,3.89Z"/><path class="af" d="M49.49,39.98s-3.57,.17-5.62-1.04c-2.04-1.21-2.72-2.73-2.72-2.73,0,0,2.67-.21,8.33,3.77Z"/><path class="f" d="M49.3,39.96s-3.93-.21-5.31-1.09c-1.38-.88-2.65-2.45-2.65-2.45,0,0,7.09,2.85,7.96,3.54Z"/></g><g><path class="s" d="M189.95,35.44c-.86-.26-3.72-.96-4.22-.05-.5,.91,2.04,3.47,4.85,4.58,2.81,1.11,4.59-.67,4.05-1.18-.54-.51-1.33-1.86-4.67-3.35Z"/><path class="i" d="M194.45,39.37s-7,1.11-8.89-3.98c4.52-1.07,9.09,3.93,8.89,3.98Z"/><path class="ad" d="M194.3,39.4s-6.58,.85-8.71-3.89c3.7-.67,8.71,3.89,8.71,3.89Z"/><path class="af" d="M194.03,39.36s-3.57,.17-5.62-1.04c-2.04-1.21-2.72-2.73-2.72-2.73,0,0,2.67-.21,8.33,3.77Z"/><path class="f" d="M193.83,39.34s-3.93-.21-5.31-1.09c-1.38-.88-2.65-2.45-2.65-2.45,0,0,7.09,2.85,7.96,3.54Z"/></g></g></svg>