<?xml version="1.0" encoding="UTF-8"?><svg id="a" xmlns="http://www.w3.org/2000/svg" viewBox="0 0 209.11 156.61"><defs><style>.b{fill:#2d871f;}.c,.d,.e,.f{fill:#fff;}.g,.d{opacity:.56;}.g,.h{fill:#c2ffd6;}.i{fill:#a80100;}.j{fill:#30cf64;}.k{opacity:.5;}.l{fill:#d5e876;}.m{fill:#eb1413;}.n{fill:#ff6c6b;}.o{fill:#2ec45f;}.p{fill:#becf69;}.q{fill:#870100;}.r{fill:#fa5150;}.e{opacity:.6;}.f{opacity:.69;}.s{fill:#319422;}.t{fill:#d60100;}.h{opacity:.7;}.u{fill:#2e8a20;}</style></defs><path class="k" d="M147.51,154.15c-17.38,0-31.96-4.57-42.42-13.26-8.31,3.35-18.07,5.37-29.06,6.03-1.29,.08-2.6,.12-3.89,.12-31.32,0-65.12-23.77-65.12-62.17,0-21.86,12.12-41.8,31.24-52.99-.31-.47-.54-.99-.68-1.56-.56-2.34,.61-4.75,2.81-5.74,.47-.21,4.75-2.06,10.08-2.06,.97,0,1.91,.06,2.82,.18-.13-.39-.21-.8-.24-1.21-.37-5.3,5.52-10.14,10.53-13.28,.81-.5,1.73-.76,2.65-.76,.75,0,1.5,.17,2.2,.51,3.54,1.74,6.05,6.26,8.12,14.86,4.76,.3,9.52,1.08,14.22,2.31,7.7-2.39,13.5-2.46,13.76-2.46h.04c2.45,0,4.54,1.78,4.93,4.2,.31,1.92-.51,3.78-2.02,4.86,6.83,3.7,12.97,8.41,18.01,13.84v-.02c.3-1,.52-1.6,.57-1.73,.76-1.97,2.64-3.2,4.66-3.2,.45,0,.91,.06,1.37,.19,3.86,1.09,6.48,2.44,7.81,3.99,.01,.02,.03,.03,.04,.05,1.85-.16,3.72-.24,5.58-.24,3.43-3,6.74-5.47,6.9-5.59,.89-.67,1.94-.99,2.99-.99,1.2,0,2.39,.43,3.34,1.28,1.77,1.59,2.18,4.21,.97,6.26-.09,.15-.17,.29-.26,.44l.46,.09c.14,.03,.28,.06,.41,.1,27.55,6.01,46.76,28.09,46.76,53.82,0,30.45-18.36,50.48-49.1,53.58-3.55,.36-7.08,.54-10.49,.54h0Z"/><path class="c" d="M142.51,149.15c-17.38,0-31.96-4.57-42.42-13.26-8.31,3.35-18.07,5.37-29.06,6.03-1.29,.08-2.6,.12-3.89,.12-31.32,0-65.12-23.77-65.12-62.17,0-21.86,12.12-41.8,31.24-52.99-.31-.47-.54-.99-.68-1.56-.56-2.34,.61-4.75,2.81-5.74,.47-.21,4.75-2.06,10.08-2.06,.97,0,1.91,.06,2.82,.18-.13-.39-.21-.8-.24-1.21-.37-5.3,5.52-10.14,10.53-13.28,.81-.5,1.73-.76,2.65-.76,.75,0,1.5,.17,2.2,.51,3.54,1.74,6.05,6.26,8.12,14.86,4.76,.3,9.52,1.08,14.22,2.31,7.7-2.39,13.5-2.46,13.76-2.46h.04c2.45,0,4.54,1.78,4.93,4.2,.31,1.92-.51,3.78-2.02,4.86,6.83,3.7,12.97,8.41,18.01,13.84v-.02c.3-1,.52-1.6,.57-1.73,.76-1.97,2.64-3.2,4.66-3.2,.45,0,.91,.06,1.37,.19,3.86,1.09,6.48,2.44,7.81,3.99,.01,.02,.03,.03,.04,.05,1.85-.16,3.72-.24,5.58-.24,3.43-3,6.74-5.47,6.9-5.59,.89-.67,1.94-.99,2.99-.99,1.2,0,2.39,.43,3.34,1.28,1.77,1.59,2.18,4.21,.97,6.26-.09,.15-.17,.29-.26,.44l.46,.09c.14,.03,.28,.06,.41,.1,27.55,6.01,46.76,28.09,46.76,53.82,0,30.45-18.36,50.48-49.1,53.58-3.55,.36-7.08,.54-10.49,.54h0Z"/><g><g><path class="i" d="M130.74,78.11c0,32.07-16.39,56.2-60.01,58.82-32.01,1.92-63.71-22.14-63.71-57.06,0-32.07,27.95-57.19,60.02-57.19s63.71,23.36,63.71,55.42Z"/><path class="t" d="M125.66,77.61c0,29.55-18.71,49.26-56.79,52.21-29.33,2.28-59.91-21.38-59.91-50.93S37.06,24.22,66.47,24.22s59.19,23.84,59.19,53.39Z"/><path class="m" d="M120.59,66.2c0,24.71-21.66,43.85-56.62,46.32-26.92,1.9-54.74-13.81-54.74-38.51S34.76,24.66,61.76,24.22c29.92-.49,58.83,17.27,58.83,41.98Z"/><path class="q" d="M49.33,26s1.07-2.15,5.46,.98c4.83,3.44,11.12,10.61,14.15,8,14.09-12.17,21.99-8.01,21.99-8.01,0,0-10.18,5.15-13.74,13.45-1.61,3.76,20.54,1.19,16.73,17.39,0,0-.46-2.83-4.1-5.85-5.78-4.81-13.92-6.46-20.88-5.36-8.39,1.33-20.22,8.53-19.01,24.35,0,0-8.71-21.63,9.44-26.61,0,0-8.58-1.14-14.65-.37-3.2,.41-12.17,4.19-15.21,11.49,0,0,3.3-13.58,14.66-15.73,3.49-.66,11.39-2.12,11.39-2.12,0,0,.51-2.93-4.1-9.07-2.63-3.51-2.15-2.54-2.15-2.54Z"/><path class="s" d="M37.42,24.15s10.25-4.59,17.27,1.66c4.43,3.94,11.22,11.79,14.25,9.17,14.09-12.17,30.64-12.29,30.64-12.29,0,0-22.64,7.32-23.51,16.43-.39,4.07,25.27,.55,21.07,20.16,0,0-2.45-9.22-9.54-11.96-9.1-3.51-14.1-2.18-20.9-.34-9.95,2.7-22,10.53-20.78,26.35,0,0-4.68-24,13.47-28.98,0,0-4.98-2.63-12.88-2.74-3.23-.04-19.5,3.05-22.54,10.35,0,0,5.82-13.14,21.95-14.93,5.27-.59,12.88,2.05,12.88,2.05,0,0-2.37-4.66-7.32-10.54-4.2-4.98-14.05-4.39-14.05-4.39Z"/><path class="j" d="M47.23,24.29s3.21-1.07,10.24,5.17c4.43,3.94,5.31,12.26,9.07,8.88,13.85-12.44,23.69-13.06,23.69-13.06,0,0-15.19,5.72-16.21,14.82-.29,2.61,19.51,1.21,20.98,11.56,0,0-1.32-1.86-5.33-4.12-7.23-4.08-18.53-4.16-23.12-2.91-9.95,2.72-14.01,7.28-19.9,16.1,0,0,2.05-12.81,16.98-16.69,0,0-7.32-3.84-15.22-3.95-3.23-.04-7.61-.78-16.1,3.95,0,0,5.26-6.27,13.9-6.15,5.82,.08,14.34,2.2,14.34,2.2,0,0-1.55-3.91-6.15-10.83-3.6-5.42-7.17-4.98-7.17-4.98Z"/><path class="b" d="M71.82,39.64c1.23,1.64-1.12,4.37-4.07,5.45-2.95,1.08-6.86,.51-6.63-1.53,.41-3.57,3.38-4.45,5.42-5.22,2.94-1.11,3.74-.75,5.28,1.3Z"/><path class="u" d="M53.03,16.15s9.83,11.48,9.74,25.58c0,0,5.1,2.97,7.26-1.39,0,0-2.6-29.83-8.8-32.87,0,0-8.44,5.27-8.2,8.68Z"/><path class="e" d="M54.3,16.05s10.3,12.13,9.96,26.2c0,0,.76-.42,1.65-1.41-1.22-9.61-3.73-20.62-8.16-29.01-1.31,.91-2.65,2.25-3.45,4.22Z"/><path class="o" d="M61.53,10.1s-1.86,.39-3.78,1.73c4.43,8.39,6.95,19.4,8.16,29.01,.78-.81,1.55-2.75,2-4.59,0,0,0-19.52-6.38-26.15Z"/><path class="u" d="M61.91,9.51c.35,.46,.92,3.51-2.29,5.46-2.82,1.71-4.86,1.77-5.21,1.31-.35-.46-1.09-1.64,2.56-4.58,1.73-1.4,4.59-2.66,4.94-2.2Z"/><path class="l" d="M61.46,10.1c-.28-.38-1.99,.49-3.78,1.82-.96,.72-1.97,1.75-2.65,2.61,1.95-.09,3.86-.9,5.68-1.98,.61-1.14,.9-2.24,.74-2.45Z"/><path class="p" d="M55.04,14.53c-.58,.74-.93,1.35-.8,1.52,.28,.38,2.85,.13,4.63-1.2,.76-.57,1.4-1.45,1.85-2.3-1.82,1.07-3.73,1.89-5.68,1.98Z"/><path class="n" d="M21.91,52.84s2.34,6.73,10.39,7.9c0,0-13.56,12.95-5.2,36.88,0,0-19.25-16.1-5.2-44.79Z"/><path class="r" d="M110.31,52.84s-1.76,8.49-8.49,10.54c0,0,13.17,19.91,2.34,45.67,0,0,16.98-11.42,14.05-33.81-2.66-20.38-7.9-22.39-7.9-22.39Z"/><path class="f" d="M106.98,66.86c1.15,3.15,.55,6.26-1.34,6.95-1.89,.69-4.36-1.29-5.52-4.44-1.15-3.15-.55-6.26,1.34-6.95,1.89-.69,4.36,1.29,5.52,4.44Z"/><path class="f" d="M111.23,81.41c.4,1.74-.44,3.41-1.87,3.74-1.43,.33-2.91-.81-3.31-2.55-.4-1.74,.44-3.41,1.87-3.74,1.43-.33,2.91,.81,3.31,2.55Z"/><path class="h" d="M53.71,25.92c1.08,.84,1.62,1.95,1.2,2.48-.41,.53-1.62,.28-2.7-.56s-1.62-1.95-1.2-2.48c.41-.53,1.62-.28,2.7,.56Z"/><path class="h" d="M58.33,29.96c.53,.53,.61,1.32,.17,1.76-.44,.44-1.23,.36-1.76-.17-.53-.53-.61-1.32-.17-1.76,.44-.44,1.23-.36,1.76,.17Z"/></g><g><path class="i" d="M197.1,95.03c0,21.82-10.79,45.2-44.6,48.6-36.76,3.7-65.59-12.54-64.5-49.14,.85-28.38,21.78-49.86,52.71-49.86s56.39,22,56.39,50.4Z"/><path class="t" d="M192.16,92.35c0,23.32-12.29,41.46-43.93,46.64-28.81,4.72-60.16-13.27-59.13-47.14,.8-26.27,20.57-46.15,49.79-46.15s53.27,20.36,53.27,46.64Z"/><path class="m" d="M187.16,81.99c0-4.53-.71-8.88-2.05-12.98-9.22-14.06-26.56-23.29-46.23-23.29-29.22,0-48.99,19.88-49.79,46.15-.17,5.53,.52,10.51,1.91,14.98,10.04,13.78,29.61,18.4,49.61,18.4,29.22,0,46.55-26.45,46.55-43.25Z"/><path class="q" d="M99.94,93.24s.08-9.69,6.01-11.91c5.93-2.22,10.95-8.54,10.95-8.54,0,0,4.55-5.11-3.64-11.95-8.4-7.02-.09-4.59-.09-4.59l11.64,10.56s4.28,1.73,9.95-7.9c6.65-11.3,17.62-13.19,17.62-13.19l1.56,.31s-11.33,3.83-13.75,16.65c-1.41,7.46,0,4.15,0,4.15,0,0,6.84-1.31,11.26,.86,5.92,2.9,3.78,2.19,3.78,2.19,0,0-12.65-2.2-15.73,2.92-1.31,2.18-.89,8.52,2.05,12.25,2.95,3.73,3.4,4.37,3.4,4.37,0,0-16.87-8.34-21.16-8.67-5.47-.42-17.18,.48-23.87,12.5Z"/><path class="s" d="M150.42,38.05c-4.98,8.47-4.97,8.44-7.22,13.44-2.2,4.88-4.4,12.26-3.5,13.75,.89,1.49,3.5,.5,4.93,.35,1.43-.15,5.8-.61,5.8-.61,0,0-6.91,3.82-8.94,5.88-2.57,2.6-2.45,6.62-2.15,8.07,.54,2.53-3.19,2.83-3.19,2.83,0,0-3.78,1.49-9.5-1.12-5.68-2.59-8.76-2.09-16.81,0-8.05,2.09-13,5.66-16.99,9.6-2.12,2.1,3.13-4.97,3.13-4.97,0,0,1.98-2.07,6.14-5.45,7.51-6.1,11.73-6.57,17.8-8.65,2.22-.76-2.04-4.76-3.83-7.42-1.74-2.59-4.09-3.93-6.83-5.15-2.37-1.05-8.19-1.85-8.19-1.85,0,0,6.39-2.67,12.58-1.29,2.77,.62,6.1,2.95,8.52,4.71,2.29,1.66,5.59,5.38,6.89,4.88,4.25-1.66,3.83-9.56,9.37-16.33,3.65-4.46,11.98-10.67,11.98-10.67Z"/><path class="j" d="M146.13,43.36s-3.88,6.79-5.45,9.67c-1.9,3.49-3.96,11.99-3.07,13.48,.89,1.49,3.15,.14,4.58,0,1.43-.15,2.5,.23,2.5,.23,0,0-2.08,.91-4.11,2.97-2.57,2.6-3.17,6.89-2.86,8.33,.54,2.53-4.29-2.23-4.29-2.23,.23-.59-.07,6.5-5.54,3.42-4.09-2.3-3.45-3.77-15.38-.74-8.06,2.05-12.32,4.72-12.32,4.72,0,0-.45-.8,4.09-3.83,6.12-4.08,13.37-5.96,18.38-7.52,1.76-.55-2.47-5.37-4.21-8-2.68-4.07-10.51-7.47-10.51-7.47,0,0,6.27-1.21,13.52,4.56,2.2,1.75,7.57,8.9,9.2,6.72,2.17-2.89,4.38-11.61,8.08-16.82,3.29-4.65,7.38-7.48,7.38-7.48Z"/><path class="b" d="M135.43,70.83c-.13-1.14-2.29-1.83-4.82-1.54-2.53,.29-5.91,3.7-5.78,4.84,.34,3.01,3.38,2.41,5.65,1.36,5.22-2.42,5.09-3.52,4.96-4.66Z"/><path class="u" d="M132.15,70.09s-3.14-6.23-2-14.38c.68-4.81,3.06-8.9,3.06-8.9,0,0,.41-.8-2.1-3.74-1.01-1.19-5.37-2.42-5.37-2.42,0,0-2.2,5.6-1.91,14.72,.21,6.51,3.81,19.21,3.81,19.21,0,0,4.5,1.4,4.5-4.49Z"/><path class="g" d="M128.62,44.11l-2.54-1.38s-1.26,5.2-1.26,10.91c0,3.81,.61,9.37,1.7,14.03-.57-8.05-1.46-16.33,2.11-23.56Z"/><path class="j" d="M128.52,57.69c.37-6.86,3.63-11.67,3.63-11.67l-3.52-1.91c-3.56,7.23-2.68,15.51-2.11,23.56,.54,2.33,1.2,4.44,1.97,5.98,0,0,.84-5.97,.74-7.36-.18-2.67-1.05-2.16-.71-8.59Z"/><path class="l" d="M126.08,42.73c0,.21,.08,.41,.23,.61,1.32,.3,2.64,.45,3.96,.53-2.45-2.43-4.13-2.53-4.18-1.14Z"/><path class="p" d="M130.27,43.87c-1.32-.07-2.64-.22-3.96-.53,1.1,1.46,5.84,2.68,5.84,2.68-.66-.86-1.29-1.57-1.88-2.15Z"/><path class="u" d="M126,41.86s1.81,2.58,3.02,3.19c1.21,.61,3.18,1.02,3.18,1.02v.63s-2.97,.36-5.31-1.72c-1.2-1.07-1.83-2.39-1.83-2.39l.93-.73Z"/><path class="r" d="M107.13,86.52s1.46,4.7,8.61,5.74c0,0-12.04,11.49-4.61,32.73,0,0-16.47-13.02-4-38.48Z"/><path class="r" d="M169.81,64.35s2.96,6.93-3.23,12.9c0,0,24.28,15.99,4.1,49.05,0,0,18.76-13.66,16.48-33.57-2.81-24.64-17.35-28.38-17.35-28.38Z"/><path class="f" d="M177.12,85.69c.76,2.08,.36,4.13-.89,4.59-1.25,.46-2.88-.85-3.64-2.93-.76-2.08-.36-4.13,.89-4.59,1.25-.46,2.88,.85,3.64,2.93Z"/><path class="d" d="M168.41,78.19c.28,1.23-.31,2.41-1.32,2.65-1.01,.23-2.06-.58-2.34-1.8-.28-1.23,.31-2.41,1.32-2.65,1.01-.23,2.06,.58,2.34,1.8Z"/><path class="h" d="M140.65,67.89c-.64,.36-1.09,.9-1.61,.6-.52-.3-.65-1.06-.28-1.69,.37-.63,1.09-.9,1.61-.6,.52,.3,1.26,1.15,.28,1.69Z"/><path class="h" d="M143.89,67.14c-.33,.2-.58,.48-.85,.32s-.34-.56-.15-.9c.19-.34,.58-.48,.85-.32,.28,.16,.74,.54,.15,.9Z"/></g></g></svg>