<?xml version="1.0" encoding="UTF-8"?><svg id="a" xmlns="http://www.w3.org/2000/svg" viewBox="0 0 172.76 218.4"><defs><style>.b{fill:#fff;}.c{opacity:.5;}.d{fill:#91623a;}.d,.e{stroke:#5b1e00;stroke-miterlimit:10;}.e{fill:#ff641b;}</style></defs><path class="c" d="M19.76,217.49c-4.33,0-7.86-3.53-7.86-7.86,0-.14,0-.29,.02-.43,5.22-60.63,5.46-118.85,.74-177.87-4.1-2.4-6.75-6.84-6.75-11.77,0-7.53,6.12-13.65,13.65-13.65s13.65,6.12,13.65,13.65c0,2.04-.45,3.99-1.27,5.76,5.98,2,12.5,2.98,19.73,2.98,13.54,0,28.1-3.49,42.17-6.87,14.64-3.51,29.78-7.14,44.5-7.14,11.27,0,21.13,2.1,30.14,6.43,2.1,1.01,3.42,3.16,3.36,5.49-.05,2.32-1.47,4.41-3.61,5.32-21.9,9.31-31.43,20.4-30.89,35.97,.51,14.73,9.43,22.91,20.73,33.27,3.42,3.14,6.96,6.38,10.43,9.99,1.65,1.72,2.12,4.24,1.19,6.42-.94,2.2-3.08,3.62-5.45,3.62h0c-.8,0-1.59-.16-2.34-.48-7.08-3.02-14.78-4.48-23.54-4.48-13.1,0-26.48,3.19-40.63,6.57-14.14,3.38-28.77,6.87-43.15,6.87-8.91,0-16.99-1.33-24.5-4.06-.15,28-.98,56.41-2.47,84.56-.09,4.26-3.58,7.7-7.86,7.7Z"/><path class="b" d="M14.76,212.49c-4.33,0-7.86-3.53-7.86-7.86,0-.14,0-.29,.02-.43,5.22-60.63,5.46-118.85,.74-177.87C3.56,23.93,.91,19.49,.91,14.56,.91,7.03,7.03,.91,14.56,.91s13.65,6.12,13.65,13.65c0,2.04-.45,3.99-1.27,5.76,5.98,2,12.5,2.98,19.73,2.98,13.54,0,28.1-3.49,42.17-6.87,14.64-3.51,29.78-7.14,44.5-7.14,11.27,0,21.13,2.1,30.14,6.43,2.1,1.01,3.42,3.16,3.36,5.49-.05,2.32-1.47,4.41-3.61,5.32-21.9,9.31-31.43,20.4-30.89,35.97,.51,14.73,9.43,22.91,20.73,33.27,3.42,3.14,6.96,6.38,10.43,9.99,1.65,1.72,2.12,4.24,1.19,6.42-.94,2.2-3.08,3.62-5.45,3.62h0c-.8,0-1.59-.16-2.34-.48-7.08-3.02-14.78-4.48-23.54-4.48-13.1,0-26.48,3.19-40.63,6.57-14.14,3.38-28.77,6.87-43.15,6.87-8.91,0-16.99-1.33-24.5-4.06-.15,28-.98,56.41-2.47,84.56-.09,4.26-3.58,7.7-7.86,7.7Z"/><g><path class="e" d="M158.87,110.73c-44.09-18.79-94.55,24.29-138.64,1.96-.37-.19-.57-.61-.49-1.02,5.26-25.94,4.61-53.45-2.5-88.35-.15-.76,.62-1.36,1.31-1.03C63.15,43.84,116.73-1.18,161.32,20.23c.72,.35,.7,1.39-.04,1.7-16.28,6.92-34.71,18.24-33.93,40.74,.75,21.76,17.72,31.14,32.55,46.55,.7,.73-.11,1.9-1.04,1.5Z"/><path class="d" d="M14.76,207.49h0c-1.58,0-2.86-1.28-2.86-2.86,5.2-60.43,5.76-122.79,0-187.77,0-1.58,1.28-2.86,2.86-2.86h0c1.58,0,2.86,1.28,2.86,2.86,3.49,65.79,3.16,128.07,0,187.77,0,1.58-1.28,2.86-2.86,2.86Z"/><circle class="d" cx="14.56" cy="14.56" r="8.65"/></g></svg>