<?xml version="1.0" encoding="UTF-8"?><svg xmlns="http://www.w3.org/2000/svg" viewBox="0 0 156.18 177.16"><defs><style>.b,.c,.d{opacity:.4;}.b,.c,.e,.f,.g,.h{mix-blend-mode:multiply;}.i{opacity:.7;}.j{fill:#fff;}.k{opacity:.5;}.c,.l,.m{fill:#312f30;}.n{fill:#2d292d;}.o{fill:#3d231b;}.p{isolation:isolate;}.q{fill:#555657;}.d{fill:#747578;}.d,.l,.r{mix-blend-mode:screen;}.s{fill:#c8c6c6;}.t{fill:#871b25;}.u{fill:#2b2829;}.e{fill:#211411;}.e,.f{opacity:.57;}.f{fill:#492c22;}.v{fill:#373537;}.w,.g{fill:#4a2c22;}.x{opacity:.1;}.y{fill:#73695f;}.a`{fill:#1a1517;}.r{fill:#472c23;}.aa{fill:#461318;}.ab{fill:#f3f3f3;}.ac{fill:#341d10;opacity:.3;}</style></defs><g class="p"><g id="a"><g><path class="k" d="M58.56,174.09c-2.66,0-5.42-1.06-8.44-3.24-.3-.21-.59-.46-.9-.73-1.15-.56-2.08-1.57-2.52-2.86-.04-.1-.07-.2-.1-.31-.17-.26-.32-.52-.47-.78l-.2-.35c-.23-.41-.44-.81-.64-1.24l-.13-.29c-.18-.39-.33-.71-.47-1.04-.07-.16-.14-.34-.22-.52-.13-.33-.27-.68-.41-1.04l-.21-.57c-.13-.35-.26-.72-.38-1.1l-.21-.63c-.09-.29-.19-.59-.28-.9l-.19-.64c-.12-.42-.25-.88-.38-1.35,0,0-.34-1.3-.41-1.6,0,0-.24-1-.25-1.03-.89-3.82-1.69-8.32-2.37-13.45-1.05-.03-2.01-.28-2.88-.76-1.06-.59-1.88-1.54-2.31-2.69-.05-.13-.09-.25-.13-.38-.04-.14-.07-.28-.1-.42-.08-.41-.12-.82-.11-1.23v-.08c0-.17,.03-.34,.05-.52,0-.03,0-.07,.02-.1,.05-.3,.11-.6,.21-.88,.57-1.82,1.76-3.15,3.53-3.95,.16-.07,.33-.14,.49-.21-.42-4.6-.77-9.59-1.08-15.16-.39-7.07-.02-15.62,1.03-24.01-.34-.04-.71-.08-1.1-.11-.95-.08-2-.18-3.19-.47l-.3-.02c-.37-.03-.73-.05-1.09-.09-.19,.1-.41,.21-.65,.33-.21,.12-.44,.24-.71,.38-.02,0-.46,.24-.46,.24-1.33,.71-2.56,.9-3.38,1.02-.02,0-.05,0-.07,.01-.27,.17-.52,.32-.75,.46-.79,.53-2.2,1.43-4.02,1.63-.59,.44-1.35,1.02-1.63,1.37-.8,2.41-2.87,3.95-5.35,3.95-1.21,0-2.14-.37-2.7-.59l-.1-.04s-.38-.13-.4-.14l-.25-.09-.31-.13c-.08-.04-.25-.12-.33-.16-.19-.09-.32-.17-.45-.24-.1-.06-.23-.14-.33-.21l-.06-.04c-.21-.14-.41-.3-.6-.47,0,0-.13-.12-.19-.18-.35-.34-.65-.72-.9-1.13h0c-.14-.23-.26-.47-.37-.72-.1-.23-.19-.48-.26-.71-.01-.04-.02-.08-.03-.12-.03-.12-.06-.25-.08-.38-.13-.78-.11-1.52,.05-2.25,.36-1.63,1.53-3.75,5-4.59h.03c.54-.24,1.27-.96,2.05-1.71,.29-.28,.58-.57,.88-.84,.08-.2,.17-.39,.27-.57,.03-.06,.06-.12,.1-.17,.06-.11,.13-.22,.21-.34,.11-.17,.24-.34,.38-.5,.29-.36,.59-.66,.92-.93,.04-.03,.07-.06,.11-.09,.6-.48,1.3-.88,2.09-1.19,.07-.03,.16-.06,.24-.09,.23-.08,.42-.15,.62-.21,.5-.15,.97-.26,1.38-.35l.24-.05c.9-.22,1.8-.74,2.93-1.39,.77-.45,1.65-.96,2.64-1.42,.44-.21,.92-.38,1.44-.51,.11-.03,.32-.07,.43-.09,.33-.06,.65-.1,.96-.11,.12,0,.25-.01,.37-.01,.03,0,.06,0,.08,0,.08-.03,.16-.05,.24-.08,.38-.11,.74-.18,1.1-.23,.37-.04,.72-.07,1.08-.07,1.92,0,3.54,.61,4.75,1.11-.07-.19-.13-.38-.19-.56-.11-.33-.22-.67-.31-1-.35-.2-.71-.44-1.06-.7l-.25-.17c-.85-.59-1.68-1.23-2.4-1.79-2.22-1.59-6.26-4.65-8.7-6.87-.55-.44-1.19-1.02-1.78-1.72-.04-.03-.08-.05-.12-.08-1.55-.93-2.33-2.27-2.67-2.94-.7-1.18-1.23-2.48-1.49-3.38-.12-.31-.24-.62-.34-.94-.09-.28-.17-.56-.25-.83-.17-.58-.29-1-.46-1.34-.1-.2-.19-.4-.28-.59-.67-.18-1.48-.31-2.24-.31-.51,0-.74,.06-.75,.06-.48,.12-.98,.19-1.47,.19-1.57,0-3.04-.62-4.14-1.75-1.93-1.97-2.14-4.74-2.08-7.43v-.15c0-.61,.11-1.22,.33-1.82,.07-.19,.15-.38,.24-.57,.05-.1,.1-.2,.16-.3,.41-.71,.97-1.31,1.63-1.76,.61-.42,1.32-.71,2.08-.82,.25-.04,.52-.06,.77-.06,1.25,0,2.52,.5,3.44,1.34h0c.55,.5,.95,1.03,1.25,1.51,.94,.1,2.05,.27,3.25,.72,.22,.08,.45,.17,.68,.27l.56,.25c.21,.1,.43,.19,.65,.28,0,0,.17,.06,.17,.06,.06,0,.11,0,.17,0,.47,0,.93,.05,1.39,.15,.19,.03,.38,.08,.56,.13,.2,.06,.43,.15,.65,.24,.23,.1,.45,.2,.66,.31,.21,.11,.4,.23,.6,.37,.08,.04,.15,.08,.22,.12,.13,.07,.34,.2,.46,.29,.18,.12,.42,.3,.66,.51,.11,.1,.28,.25,.43,.42,.14,.15,.3,.34,.46,.54,.11,.15,.21,.29,.29,.42,.09,.13,.17,.27,.24,.4,.05,.1,.1,.2,.15,.3,.05,.1,.1,.21,.15,.32,.05-.14,.1-.28,.16-.42,.05-.15,.11-.3,.18-.45,.01-.03,.03-.06,.04-.1,.1-.25,.19-.47,.3-.69,.94-1.9,2.18-3.72,3.68-5.39-.03-.02-.21-.18-.28-.25-.64-.62-1.11-1.38-1.37-2.22-.06-.18-.1-.37-.14-.56-.09-.47-.11-.96-.07-1.44,.04-.43,.13-.85,.27-1.26,.22-.62,.54-1.21,.96-1.76,.96-1.27,2.11-1.8,2.9-2.03,.34-.1,.73-.17,1.1-.19,.13-.02,.25-.05,.38-.06,.62-.22,1.26-.33,1.9-.33,.05,0,.11,0,.17,0,.14-.01,.29-.02,.43-.02,.17,0,.34,0,.51,.02h.04c.44,0,.84,.05,1.2,.13,.15,0,.29,.02,.44,.05,.21,.03,.42,.07,.61,.12,.32,.04,.64,.11,.96,.21,.17,.02,.34,.04,.52,.08,.12-.06,.25-.13,.39-.19,.03-.02,.06-.03,.08-.04,.08-.17,.16-.33,.25-.47,.11-.3,.24-.58,.39-.85,.09-.22,.2-.44,.32-.66,.05-.09,.1-.17,.15-.26,.2-.47,.46-.88,.74-1.22,.15-.22,.31-.44,.48-.64,.34-.49,.84-1.03,1.54-1.49,.09-.09,.18-.17,.27-.26,.29-.33,.58-.58,.83-.77,.65-.48,1.77-1.07,3.35-1.07,.69,0,1.35,.1,1.96,.29,.45,.14,.88,.35,1.28,.61,.36,.24,.7,.53,.99,.85h0c.09,.1,.18,.21,.26,.31,.59,.76,.96,1.67,1.07,2.63,0,.03,0,.06,0,.09,.98-.11,1.97-.17,2.93-.17,1.24,0,2.47,.09,3.65,.28,.63,.1,1.24,.24,1.84,.41-.06-.12-.12-.24-.17-.36-.05-.13-.11-.27-.16-.41-.05-.13-.08-.24-.12-.36-.09-.31-.14-.54-.18-.78-.03-.16-.05-.35-.07-.53,0-.05,0-.09,0-.14-.02-.27-.01-.54,0-.8,0-.04,0-.09,0-.14,0-.08,.02-.23,.04-.38,0-.07,.02-.15,.04-.23,.01-.25,.03-.47,.07-.69,.03-.22,.08-.45,.14-.69,.04-.18,.1-.42,.21-.69,.07-.18,.15-.36,.23-.53,.22-.48,.5-.92,.81-1.32,0,0,.06-.2,.07-.22,.05-.18,.1-.42,.16-.65l.12-.52c.08-.32,.14-.55,.2-.76,.37-1.24,.9-2.22,1.39-3.03-.2-.53-.38-1.17-.45-1.91h0c-.14-1.58,.48-3.2,1.66-4.26,.47-.42,1.01-.75,1.59-.97,.59-.23,1.23-.35,1.88-.35,.22,0,.45,.01,.67,.04,.27,.03,.54,.08,.8,.16,.06,.02,.12,.03,.17,.05,.61,.19,1.15,.46,1.63,.83l.11,.08c1.51,1.09,4.65,3.35,4.73,6.87,.05,1.82-.76,3.53-2.21,4.69-.45,.36-1.17,1.46-1.61,2.53,.1,.18,.21,.38,.31,.58,.17,.34,.44,.7,.8,1.19,.17,.22,.34,.45,.51,.69,.19,.27,.37,.55,.55,.84,.56,.75,1.27,1.95,1.79,3.22,.33,.68,.93,2.11,.74,3.91v.15c.2,.91,.26,1.76,.28,2.42,.3,3.29,.31,8.39,.24,11.13,.01,.91,.02,1.96-.02,3.02v.27c-.01,.58-.06,1.12-.14,1.64-.02,.11-.05,.25-.08,.38,.08,.12,.17,.24,.25,.36,.22,.32,.43,.64,.64,.96,.04-.15,.08-.3,.12-.45,.41-1.56,.98-3.69,2.75-5.53,.26-.27,.53-.51,.85-.75,.07-.05,.14-.1,.21-.15,.08-.11,.17-.23,.27-.34,.21-.26,.45-.5,.7-.74,.06-.06,.17-.16,.3-.26,.44-.36,.86-.63,1.31-.86,.94-.5,1.87-.89,2.7-1.24,1.21-.51,2.16-.91,2.88-1.5l.18-.15c.32-.27,.69-.58,1.1-.88,.18-.13,.38-.26,.58-.39,.05-.04,.16-.1,.16-.1,.3-.19,.61-.35,.93-.5,.03-.02,.07-.03,.1-.04,.35-.16,.71-.29,1.08-.39,.09-.03,.26-.07,.26-.07,.41-.1,.82-.15,1.26-.17,.11,0,.22-.01,.33-.01,.06,0,.13,0,.2,0,.15,0,.29,.02,.41,.04,.12,.01,.24,.03,.36,.05,.19,.03,.38,.07,.56,.12,.4-.07,.8-.13,1.2-.19,1.06-.16,2.07-.31,2.59-.61h.02c.63-.53,2.12-1.75,4.31-1.75,.83,0,1.63,.17,2.38,.52,.69,.32,1.29,.75,1.79,1.29,0,0,.13,.15,.2,.23,.04,.05,.08,.1,.12,.15,.17,.22,.32,.44,.45,.68,.13,.22,.24,.45,.34,.69,.31,.82,.44,1.63,.4,2.49,0,.1-.01,.25-.02,.33,0,.04,0,.07-.01,.11-.02,.13-.04,.27-.06,.4,0,.03-.08,.42-.09,.45l-.06,.24-.1,.35s-.16,.51-.16,.51c-1.17,4.27-4.3,4.73-5.59,4.73-.64,0-1.29-.11-1.93-.32-.5,.03-1.35,.26-2.09,.48-.9,.92-2.13,1.66-3.7,2.22-.25,.1-.53,.21-.84,.33l-.05,.05c-.59,.58-1.49,1.46-2.86,2.08l-.46,.21c-.27,.14-.51,.25-.74,.35-.25,.12-.47,.23-.67,.32-.2,.32-.4,.64-.61,.96l-.14,.21c-.48,1.12-1.04,2.03-1.55,2.83-.21,.34-.4,.65-.57,.95,7.32,4.22,14.37,9.09,19.78,13.66,4.25,3.6,8.02,6.9,11.44,10,.72-.27,1.44-.41,2.19-.41s1.46,.13,2.21,.4c.24,.08,.55,.22,.86,.39,.06,.03,.13,.07,.19,.11,.08,.05,.14,.09,.23,.15,.05,.03,.1,.07,.15,.11,.32,.23,.62,.5,.88,.8,.06,.07,.12,.14,.18,.21,.11,.14,.22,.29,.31,.44,.67,1.05,.94,2.31,.75,3.54-.07,.5-.2,.96-.38,1.4,3.97,3.89,7.3,7.47,9.95,10.66,.01,.02,.61,.75,.61,.75,.22,.27,.42,.52,.61,.76l.44,.55c.3,.39,.6,.78,.89,1.17l.33,.45c.21,.29,.67,.94,.68,.95l.27,.39c.27,.39,.52,.77,.76,1.14l.15,.23c.26,.41,.48,.77,.7,1.14l.24,.41c.2,.35,.39,.7,.57,1.04l.12,.23c.24,.47,.44,.9,.62,1.31l.11,.24c.16,.37,.28,.68,.39,.98,.06,.08,.12,.17,.17,.25,.77,1.14,1.01,2.49,.77,3.75,.04,.43,.05,.8,.04,1.16-.24,11.38-7.84,12.61-11.1,12.61h0c-3.62,0-8.19-1.25-15.28-4.18-2.07-.85-4.23-1.7-6.52-2.59-2.38-.93-4.83-1.88-7.24-2.88-.57-.13-1.12-.36-1.62-.68-.72-.3-1.41-.6-2.07-.9-.13,12.82-1.8,21.44-8.59,24.75l-.03,.02c-.4,.21-.83,.39-1.31,.56-.14,.05-.27,.09-.41,.14-.31,.1-.67,.2-1.04,.28-.12,.03-.24,.06-.36,.08-.44,.08-.89,.14-1.37,.17-.14,0-.27,.01-.41,.02-.17,0-.31,0-.45,0-.2,0-.41,0-.61-.01-.21,0-.35-.02-.5-.03-.39-.03-.83-.08-1.28-.16-.12-.02-.26-.05-.39-.08l-.1-.02c-.18-.03-.37-.07-.55-.11-.13-.03-.27-.07-.39-.11-3.91-1-8.44-3.43-14.65-7.93-.05,.19-.09,.38-.14,.57-.04,.59-.19,1.17-.44,1.71-.66,2.53-1.38,5.07-2.07,7.53-.67,2.36-1.3,4.59-1.86,6.74-2.54,9.71-5.72,19.2-14.2,19.2ZM45.65,41.97h0Z"/><path class="j" d="M53.56,169.09c-2.66,0-5.42-1.06-8.44-3.24-.3-.21-.59-.46-.9-.73-1.15-.56-2.08-1.57-2.52-2.86-.04-.1-.07-.2-.1-.31-.17-.26-.32-.52-.47-.78l-.2-.35c-.23-.41-.44-.81-.64-1.24l-.13-.29c-.18-.39-.33-.71-.47-1.04-.07-.16-.14-.34-.22-.52-.13-.33-.27-.68-.41-1.04l-.21-.57c-.13-.35-.26-.72-.38-1.1l-.21-.63c-.09-.29-.19-.59-.28-.9l-.19-.64c-.12-.42-.25-.88-.38-1.35,0,0-.34-1.3-.41-1.6,0,0-.24-1-.25-1.03-.89-3.82-1.69-8.32-2.37-13.45-1.05-.03-2.01-.28-2.88-.76-1.06-.59-1.88-1.54-2.31-2.69-.05-.13-.09-.25-.13-.38-.04-.14-.07-.28-.1-.42-.08-.41-.12-.82-.11-1.23v-.08c0-.17,.03-.34,.05-.52,0-.03,0-.07,.02-.1,.05-.3,.11-.6,.21-.88,.57-1.82,1.76-3.15,3.53-3.95,.16-.07,.33-.14,.49-.21-.42-4.6-.77-9.59-1.08-15.16-.39-7.07-.02-15.62,1.03-24.01-.34-.04-.71-.08-1.1-.11-.95-.08-2-.18-3.19-.47l-.3-.02c-.37-.03-.73-.05-1.09-.09-.19,.1-.41,.21-.65,.33-.21,.12-.44,.24-.71,.38-.02,0-.46,.24-.46,.24-1.33,.71-2.56,.9-3.38,1.02-.02,0-.05,0-.07,.01-.27,.17-.52,.32-.75,.46-.79,.53-2.2,1.43-4.02,1.63-.59,.44-1.35,1.02-1.63,1.37-.8,2.41-2.87,3.95-5.35,3.95-1.21,0-2.14-.37-2.7-.59l-.1-.04s-.38-.13-.4-.14l-.25-.09-.31-.13c-.08-.04-.25-.12-.33-.16-.19-.09-.32-.17-.45-.24-.1-.06-.23-.14-.33-.21l-.06-.04c-.21-.14-.41-.3-.6-.47,0,0-.13-.12-.19-.18-.35-.34-.65-.72-.9-1.13h0c-.14-.23-.26-.47-.37-.72-.1-.23-.19-.48-.26-.71-.01-.04-.02-.08-.03-.12-.03-.12-.06-.25-.08-.38-.13-.78-.11-1.52,.05-2.25,.36-1.63,1.53-3.75,5-4.59h.03c.54-.24,1.27-.96,2.05-1.71,.29-.28,.58-.57,.88-.84,.08-.2,.17-.39,.27-.57,.03-.06,.06-.12,.1-.17,.06-.11,.13-.22,.21-.34,.11-.17,.24-.34,.38-.5,.29-.36,.59-.66,.92-.93,.04-.03,.07-.06,.11-.09,.6-.48,1.3-.88,2.09-1.19,.07-.03,.16-.06,.24-.09,.23-.08,.42-.15,.62-.21,.5-.15,.97-.26,1.38-.35l.24-.05c.9-.22,1.8-.74,2.93-1.39,.77-.45,1.65-.96,2.64-1.42,.44-.21,.92-.38,1.44-.51,.11-.03,.32-.07,.43-.09,.33-.06,.65-.1,.96-.11,.12,0,.25-.01,.37-.01,.03,0,.06,0,.08,0,.08-.03,.16-.05,.24-.08,.38-.11,.74-.18,1.1-.23,.37-.04,.72-.07,1.08-.07,1.92,0,3.54,.61,4.75,1.11-.07-.19-.13-.38-.19-.56-.11-.33-.22-.67-.31-1-.35-.2-.71-.44-1.06-.7l-.25-.17c-.85-.59-1.68-1.23-2.4-1.79-2.22-1.59-6.26-4.65-8.7-6.87-.55-.44-1.19-1.02-1.78-1.72-.04-.03-.08-.05-.12-.08-1.55-.93-2.33-2.27-2.67-2.94-.7-1.18-1.23-2.48-1.49-3.38-.12-.31-.24-.62-.34-.94-.09-.28-.17-.56-.25-.83-.17-.58-.29-1-.46-1.34-.1-.2-.19-.4-.28-.59-.67-.18-1.48-.31-2.24-.31-.51,0-.74,.06-.75,.06-.48,.12-.98,.19-1.47,.19-1.57,0-3.04-.62-4.14-1.75-1.93-1.97-2.14-4.74-2.08-7.43v-.15c0-.61,.11-1.22,.33-1.82,.07-.19,.15-.38,.24-.57,.05-.1,.1-.2,.16-.3,.41-.71,.97-1.31,1.63-1.76,.61-.42,1.32-.71,2.08-.82,.25-.04,.52-.06,.77-.06,1.25,0,2.52,.5,3.44,1.34h0c.55,.5,.95,1.03,1.25,1.51,.94,.1,2.05,.27,3.25,.72,.22,.08,.45,.17,.68,.27l.56,.25c.21,.1,.43,.19,.65,.28,0,0,.17,.06,.17,.06,.06,0,.11,0,.17,0,.47,0,.93,.05,1.39,.15,.19,.03,.38,.08,.56,.13,.2,.06,.43,.15,.65,.24,.23,.1,.45,.2,.66,.31,.21,.11,.4,.23,.6,.37,.08,.04,.15,.08,.22,.12,.13,.07,.34,.2,.46,.29,.18,.12,.42,.3,.66,.51,.11,.1,.28,.25,.43,.42,.14,.15,.3,.34,.46,.54,.11,.15,.21,.29,.29,.42,.09,.13,.17,.27,.24,.4,.05,.1,.1,.2,.15,.3,.05,.1,.1,.21,.15,.32,.05-.14,.1-.28,.16-.42,.05-.15,.11-.3,.18-.45,.01-.03,.03-.06,.04-.1,.1-.25,.19-.47,.3-.69,.94-1.9,2.18-3.72,3.68-5.39-.03-.02-.21-.18-.28-.25-.64-.62-1.11-1.38-1.37-2.22-.06-.18-.1-.37-.14-.56-.09-.47-.11-.96-.07-1.44,.04-.43,.13-.85,.27-1.26,.22-.62,.54-1.21,.96-1.76,.96-1.27,2.11-1.8,2.9-2.03,.34-.1,.73-.17,1.1-.19,.13-.02,.25-.05,.38-.06,.62-.22,1.26-.33,1.9-.33,.05,0,.11,0,.17,0,.14-.01,.29-.02,.43-.02,.17,0,.34,0,.51,.02h.04c.44,0,.84,.05,1.2,.13,.15,0,.29,.02,.44,.05,.21,.03,.42,.07,.61,.12,.32,.04,.64,.11,.96,.21,.17,.02,.34,.04,.52,.08,.12-.06,.25-.13,.39-.19,.03-.02,.06-.03,.08-.04,.08-.17,.16-.33,.25-.47,.11-.3,.24-.58,.39-.85,.09-.22,.2-.44,.32-.66,.05-.09,.1-.17,.15-.26,.2-.47,.46-.88,.74-1.22,.15-.22,.31-.44,.48-.64,.34-.49,.84-1.03,1.54-1.49,.09-.09,.18-.17,.27-.26,.29-.33,.58-.58,.83-.77,.65-.48,1.77-1.07,3.35-1.07,.69,0,1.35,.1,1.96,.29,.45,.14,.88,.35,1.28,.61,.36,.24,.7,.53,.99,.85h0c.09,.1,.18,.21,.26,.31,.59,.76,.96,1.67,1.07,2.63,0,.03,0,.06,0,.09,.98-.11,1.97-.17,2.93-.17,1.24,0,2.47,.09,3.65,.28,.63,.1,1.24,.24,1.84,.41-.06-.12-.12-.24-.17-.36-.05-.13-.11-.27-.16-.41-.05-.13-.08-.24-.12-.36-.09-.31-.14-.54-.18-.78-.03-.16-.05-.35-.07-.53,0-.05,0-.09,0-.14-.02-.27-.01-.54,0-.8,0-.04,0-.09,0-.14,0-.08,.02-.23,.04-.38,0-.07,.02-.15,.04-.23,.01-.25,.03-.47,.07-.69,.03-.22,.08-.45,.14-.69,.04-.18,.1-.42,.21-.69,.07-.18,.15-.36,.23-.53,.22-.48,.5-.92,.81-1.32,0,0,.06-.2,.07-.22,.05-.18,.1-.42,.16-.65l.12-.52c.08-.32,.14-.55,.2-.76,.37-1.24,.9-2.22,1.39-3.03-.2-.53-.38-1.17-.45-1.91h0c-.14-1.58,.48-3.2,1.66-4.26,.47-.42,1.01-.75,1.59-.97,.59-.23,1.23-.35,1.88-.35,.22,0,.45,.01,.67,.04,.27,.03,.54,.08,.8,.16,.06,.02,.12,.03,.17,.05,.61,.19,1.15,.46,1.63,.83l.11,.08c1.51,1.09,4.65,3.35,4.73,6.87,.05,1.82-.76,3.53-2.21,4.69-.45,.36-1.17,1.46-1.61,2.53,.1,.18,.21,.38,.31,.58,.17,.34,.44,.7,.8,1.19,.17,.22,.34,.45,.51,.69,.19,.27,.37,.55,.55,.84,.56,.75,1.27,1.95,1.79,3.22,.33,.68,.93,2.11,.74,3.91v.15c.2,.91,.26,1.76,.28,2.42,.3,3.29,.31,8.39,.24,11.13,.01,.91,.02,1.96-.02,3.02v.27c-.01,.58-.06,1.12-.14,1.64-.02,.11-.05,.25-.08,.38,.08,.12,.17,.24,.25,.36,.22,.32,.43,.64,.64,.96,.04-.15,.08-.3,.12-.45,.41-1.56,.98-3.69,2.75-5.53,.26-.27,.53-.51,.85-.75,.07-.05,.14-.1,.21-.15,.08-.11,.17-.23,.27-.34,.21-.26,.45-.5,.7-.74,.06-.06,.17-.16,.3-.26,.44-.36,.86-.63,1.31-.86,.94-.5,1.87-.89,2.7-1.24,1.21-.51,2.16-.91,2.88-1.5l.18-.15c.32-.27,.69-.58,1.1-.88,.18-.13,.38-.26,.58-.39,.05-.04,.16-.1,.16-.1,.3-.19,.61-.35,.93-.5,.03-.02,.07-.03,.1-.04,.35-.16,.71-.29,1.08-.39,.09-.03,.26-.07,.26-.07,.41-.1,.82-.15,1.26-.17,.11,0,.22-.01,.33-.01,.06,0,.13,0,.2,0,.15,0,.29,.02,.41,.04,.12,.01,.24,.03,.36,.05,.19,.03,.38,.07,.56,.12,.4-.07,.8-.13,1.2-.19,1.06-.16,2.07-.31,2.59-.61h.02c.63-.53,2.12-1.75,4.31-1.75,.83,0,1.63,.17,2.38,.52,.69,.32,1.29,.75,1.79,1.29,0,0,.13,.15,.2,.23,.04,.05,.08,.1,.12,.15,.17,.22,.32,.44,.45,.68,.13,.22,.24,.45,.34,.69,.31,.82,.44,1.63,.4,2.49,0,.1-.01,.25-.02,.33,0,.04,0,.07-.01,.11-.02,.13-.04,.27-.06,.4,0,.03-.08,.42-.09,.45l-.06,.24-.1,.35s-.16,.51-.16,.51c-1.17,4.27-4.3,4.73-5.59,4.73-.64,0-1.29-.11-1.93-.32-.5,.03-1.35,.26-2.09,.48-.9,.92-2.13,1.66-3.7,2.22-.25,.1-.53,.21-.84,.33l-.05,.05c-.59,.58-1.49,1.46-2.86,2.08l-.46,.21c-.27,.14-.51,.25-.74,.35-.25,.12-.47,.23-.67,.32-.2,.32-.4,.64-.61,.96l-.14,.21c-.48,1.12-1.04,2.03-1.55,2.83-.21,.34-.4,.65-.57,.95,7.32,4.22,14.37,9.09,19.78,13.66,4.25,3.6,8.02,6.9,11.44,10,.72-.27,1.44-.41,2.19-.41s1.46,.13,2.21,.4c.24,.08,.55,.22,.86,.39,.06,.03,.13,.07,.19,.11,.08,.05,.14,.09,.23,.15,.05,.03,.1,.07,.15,.11,.32,.23,.62,.5,.88,.8,.06,.07,.12,.14,.18,.21,.11,.14,.22,.29,.31,.44,.67,1.05,.94,2.31,.75,3.54-.07,.5-.2,.96-.38,1.4,3.97,3.89,7.3,7.47,9.95,10.66,.01,.02,.61,.75,.61,.75,.22,.27,.42,.52,.61,.76l.44,.55c.3,.39,.6,.78,.89,1.17l.33,.45c.21,.29,.67,.94,.68,.95l.27,.39c.27,.39,.52,.77,.76,1.14l.15,.23c.26,.41,.48,.77,.7,1.14l.24,.41c.2,.35,.39,.7,.57,1.04l.12,.23c.24,.47,.44,.9,.62,1.31l.11,.24c.16,.37,.28,.68,.39,.98,.06,.08,.12,.17,.17,.25,.77,1.14,1.01,2.49,.77,3.75,.04,.43,.05,.8,.04,1.16-.24,11.38-7.84,12.61-11.1,12.61h0c-3.62,0-8.19-1.25-15.28-4.18-2.07-.85-4.23-1.7-6.52-2.59-2.38-.93-4.83-1.88-7.24-2.88-.57-.13-1.12-.36-1.62-.68-.72-.3-1.41-.6-2.07-.9-.13,12.82-1.8,21.44-8.59,24.75l-.03,.02c-.4,.21-.83,.39-1.31,.56-.14,.05-.27,.09-.41,.14-.31,.1-.67,.2-1.04,.28-.12,.03-.24,.06-.36,.08-.44,.08-.89,.14-1.37,.17-.14,0-.27,.01-.41,.02-.17,0-.31,0-.45,0-.2,0-.41,0-.61-.01-.21,0-.35-.02-.5-.03-.39-.03-.83-.08-1.28-.16-.12-.02-.26-.05-.39-.08l-.1-.02c-.18-.03-.37-.07-.55-.11-.13-.03-.27-.07-.39-.11-3.91-1-8.44-3.43-14.65-7.93-.05,.19-.09,.38-.14,.57-.04,.59-.19,1.17-.44,1.71-.66,2.53-1.38,5.07-2.07,7.53-.67,2.36-1.3,4.59-1.86,6.74-2.54,9.71-5.72,19.2-14.2,19.2ZM40.65,36.97h0Z"/><g><g><g><g><g><g><g><path class="m" d="M41.64,124.05c-.7-.27-1.19,.48-1.5,1.22-.86,1.05-1.73,2.06-3,2.69-.8,.4-1.65,.64-2.45,1-.46,.21-.66,.43-.81,.9-.03,.11-.09,.34,.05,.42,.85,.47,2.89-.42,3.64-.85,.56-.32,1.39-.54,1.84-.99,.81-.81,1.35-1.89,2.05-2.8,.22-.29,.83-1.33,.18-1.59Z"/><path class="m" d="M47.56,113.27c-.34-.55,.53-.1-.2,.05-.75-.18-1.36,.1-1.98,.93-.54,.73-.85,1.68-1.29,2.47-.7,1.24-1.2,2.27-2.08,3.38-.97,1.22-2.4,2.51-2.49,4.13-.07,1.21,.11,2.1,1.33,1.8,1.3-.32,2.03-3.39,2.54-4.29,1.14-2,2.59-4.17,3.94-6.03,.6-.83,.84-1.46,.24-2.44Z"/><path class="m" d="M46.18,96.6c-.26-.08-.43,.43-.34,.68-.75,.24-1.5,.73-1.5,1.6,0,2.46,.3,4.93,.37,7.39,.03,.97,.11,1.94,.17,2.92,.09,1.42-.17,2.82-.13,4.23,.04,1.22,1.67,3.4,2.3,2.29,1.65-2.9,.18-6.71,.05-9.26-.12-2.21,.77-3.78,.26-5.94-.39-1.67,.58-3.36-1.19-3.9Z"/><path class="m" d="M54.35,88.3c-.02-.07-.06-.11-.12-.03-1.52,1.63-3.17,3.08-4.93,4.45-.91,.7-1.8,1.39-2.78,1.98-.56,.34-1.14,.77-1.49,1.33-.96,1.52,.21,4,1.95,2.97,1.31-.77,2.13-2.24,2.93-3.48,.74-1.14,1.57-2,2.67-2.79,.61-.44,1.32-.91,1.75-1.54,.74-1.08,1.96-1.14,1.56-2.36-.28-.85-.96-.92-1.53-.51Z"/></g><path class="c" d="M54.35,88.3c-.02-.07-.06-.11-.12-.03-.29,.31-.59,.61-.89,.91,.3,.92-.5,1.1-1,2.06-.84,1.6-2.37,2.68-3.62,3.93-.44,.44-1.47,2.75-1.67,3.19-.32,.71,.24,1.53-.57,1.38-.83-.15-1.47-.76-1.89-1.54,.06,.17,.12,.35,.21,.51,.36,.65,.9,.93,1.52,1.29,.71,.41,.58,.97,.61,1.8,.05,1.14-.73,5.46-.51,6.4,.27,1.12,1.29,4.44,.93,5.13-.58,1.12-1.3,1.8-2.24,1.29h0c-.13,.22-.24,.45-.35,.68,.43,.6,1.1,.99,1.95,.93,.12,0-1.06-1.13-1.1-1.01-.94,2.98-2.39,6.13-3.59,8.98-.03,.08-.16,.15-.24,.08-.12-.1-.25-.2-.37-.3,0,.43,.05,.85,.11,1.27,.02,.1-.06,.19-.17,.19-.8-.02-1.38-.24-1.8-.65,.06,.28,.18,.54,.34,.77-.2,.24-.4,.47-.61,.7,.21,1.23-1.14,2.28-2.1,2.82-.84,.47-2.23,1.14-3.35,1,0,.08,.02,.16,.09,.2,.85,.47,2.89-.42,3.64-.85,.56-.32,1.39-.54,1.84-.99,.61-.62,1.07-1.39,1.56-2.12,.23,.05,2.5-4.88,3.02-5.79,1.14-2,1.45-1.83,3.4-5,.46-.76,.61-1.04,.36-1.94,.93-1.99-1.6-6.26-.24-11.2,.06-.23-.16-3.41-.22-3.64,.99-.82,3.9-5.18,5-5.97,.61-.44,4-2.75,3.59-3.97-.28-.85-.96-.92-1.53-.51Z"/><path class="l" d="M41.71,120.94c1.21-1.65,3.08-3.5,3.07-5.68-.24,.49-.45,1-.71,1.46-.7,1.24-1.59,2.37-2.47,3.49-.97,1.22-2,2.4-2.09,4.02-.02,.43,.1,.85,.31,1.2-.36-1.59,1.01-3.3,1.89-4.5Z"/><path class="l" d="M45.96,114.64c-1.2-2.37,.19-4.89-.11-7.41-.24-2.03-.96-3.97-1.42-5.95,.09,1.66,.25,3.33,.3,4.99,.03,.97,.11,1.94,.17,2.92,.09,1.39-.15,2.75-.13,4.13,.25,.59,.62,1.1,1.2,1.32Z"/></g><path class="l" d="M44.82,96.65c.13,.55,.32,1.08,.65,1.55,.16-2.26,1.9-3.54,3.65-4.85,1.34-1,3.2-2.24,3.93-3.89-1.18,1.15-2.44,2.22-3.75,3.24-.91,.7-1.8,1.39-2.78,1.98-.56,.34-1.14,.77-1.49,1.33-.11,.18-.18,.4-.2,.63Z"/><path class="l" d="M39.21,126.36c-.59,.63-1.24,1.2-2.06,1.61-.8,.4-1.65,.64-2.45,1-.46,.21-.66,.43-.81,.9-.01,.04-.03,.11-.04,.18,1.27-1.74,4.66-1.53,5.36-3.68Z"/></g><g><g><path class="m" d="M16.92,81.28c-.63-.27-1.46,.4-1.99,.85-1.69,1.47-3.11,3.34-5.28,4.11-.53,.19-1.56,.24-1.72,.95-.18,.79,.94,1.02,1.47,1.23,.69,.27,1.33,.59,1.58-.29,.58-2.02,3.22-3.55,4.83-4.83,.66-.53,1.94-.33,2-1.45,.03-.55-.44-.62-.89-.56Z"/><path class="m" d="M27,75.98c-.06-.02-.11,0-.15,.04-.48-.16-1.01-.13-1.62,.15-2.25,1.06-4.04,2.54-6.53,3.15-.91,.22-2.89,.53-3.15,1.72-.26,1.19-.68,1.37,.22,2.09,1.27,1.01,2.92-.76,4.23-1.45,.93-.49,2.85-.66,3.8-1.13,1.19-.59,1.51-1,2.75-1.37,2.77-.83,3.15-2.48,.43-3.2Z"/><path class="m" d="M39.49,79.36c-1.34-1.51-3.48-1.86-5.36-2.22-1.95-.38-3.76-1.79-5.78-1.55-1.08,.13-2.19,1.16-2.25,2.27-.04,.68,.25,.69,.7,1.21,.05,.19,1.21-.2,2.06,.14,2.02,.82,3.8,.58,5.92,1.02,1.12,.24,4.03,2.09,5.02,1.08,.96-.98,.45-1.09-.31-1.95Z"/><path class="m" d="M51.69,80.73c-1.1-1.26-2.97-1.69-4.56-1.96-1.89-.32-3.74,.34-5.6-.29-1.08-.37-2.37-.36-2.86,.86-.41,1.01,.35,.85,.9,1.67,.94,1.42,2.76,.6,4.07,.26,1.74-.45,3.65,.89,5.46,.98,.7,.25,1.66,.47,2.2,.1,.44-.3,.82-1.13,.38-1.63Z"/></g><path class="c" d="M51.69,80.73c-1.1-1.26-2.97-1.69-4.56-1.96-1.48-.25-2.93,.1-4.38-.04,.64,.62,1.29,1.22,1.97,1.8,.09,.08,.1,.28-.06,.29-.5,.04-4.6,.6-5.09,.2-.6-.48-.63-1.33-.43-2.1-.49,.43-.86,.95-.89,1.63-.02,.34-5.44-1.39-6.49-1.51-1.39-.17-3.22,.2-4.42-.14-.95-.27-.45-2.19-.06-2.91-.03,.02-.06,.03-.08,.05-.07-.02-.14-.05-.21-.07-.06-.02-.11,0-.15,.04-.13-.04-.26-.07-.39-.09-.71,.76-1.11,1.77-.93,2.88,.01,.06-.02,.15-.08,.17-.23,.08-.43,.12-.65,.13,.3,.28-1.33,.84-1.66,.54-.53-.48-1.79-.4-5.98,3.18-.75,.64-1.37-1.21-1.48-2.09-.05,.09-.09,.19-.11,.29-.05,.22-.06,.43-.05,.63-.21,.15-.41,.32-.58,.46,0,.37-.06,.72-.28,1.03-.28,.39-.81,.64-1.19,.92-.53,.39-1.06,.8-1.49,1.3-.63,.73-1.14,2.09-2.16,2.37-.63,.18-1.28,.02-1.87-.25,.15,.54,1.02,.73,1.46,.91,.69,.27,1.33,.59,1.58-.29,.58-2.02,3.22-3.55,4.83-4.83,.1-.07,.2-.13,.32-.19,.23,.29,.46,.84,3.73-1.3,.88-.58,2.22-.34,3.35-.94,2.68-1.43,3.41-1.71,3.58-1.8,.37,.28,1.35,.3,2.65,.39,10,.77,8,3.07,10.36,1.85,1.03,.85,2.9,.25,4.05-.04,1.74-.45,3.44,.92,5.25,1,.7,.25,1.66,.47,2.2,.1,.44-.3,.82-1.13,.38-1.63Z"/><path class="l" d="M8.03,87.63c.51-.58,1.55-.65,2.19-1.03,1.27-.75,2.33-1.8,3.42-2.78,.42-.38,.94-.76,1.2-1.27,.08-.15,.13-.31,.18-.47-.02,.02-.05,.04-.08,.06-1.69,1.47-3.11,3.34-5.28,4.11-.53,.19-1.56,.24-1.72,.95-.04,.19,0,.34,.07,.48,0-.01,.01-.02,.02-.03Z"/><path class="l" d="M17.52,80.06c1.33-.31,2.48-.87,3.7-1.46,1.11-.53,2.33-.98,3.35-1.66,.59-.39,1.13-.78,1.76-1.02-.33-.01-.69,.07-1.08,.25-2.25,1.06-4.04,2.54-6.53,3.15-.91,.22-2.86,.53-3.14,1.7,.54-.5,1.19-.78,1.95-.96Z"/><path class="l" d="M28.8,75.95c1.07,.57,2.24,.73,3.42,.97,1.19,.24,2.34,.57,3.49,.97,.6,.21,1.34,.61,1.98,.64,.24,.01,.46-.03,.68-.09-1.26-.77-2.83-1.03-4.24-1.31-1.95-.38-3.76-1.79-5.78-1.55-.11,.01-.22,.04-.33,.07,.26,.06,.52,.16,.78,.3Z"/><path class="l" d="M39.48,78.47c-.39,.5-.67,1.06-.68,1.7,.73-1.03,1.87-1.36,3.19-1.14,.75,.13,1.55,.4,2.31,.27,.63-.11,1.21-.34,1.77-.62-1.52-.03-3.02,.32-4.53-.19-.69-.23-1.46-.31-2.06-.02Z"/></g><g><g><path class="m" d="M34.61,59.14c-.05-.02-.09,0-.11,.06-.72-.46-1.51-.85-2.37-1.22-2.55-1.1-4.93-1.81-6.96-4.1-.72-.81-2.41-1.46-2.98-.38-.77,1.48,1.37,2.99,2.35,3.75,2.25,1.76,4.47,3.57,6.72,5.32,1.11,.87,2.22,1.75,3.37,2.55,.63,.44,1.51,1.14,2.25,1.02,1.18-.19,1.88-1.44,1.67-2.81-.34-2.2-2.16-3.46-3.94-4.2Z"/><path class="m" d="M17.86,43.47c-1.34,.11-2.65-.72-3.87-1.18-1.29-.48-2.6-.43-3.94-.66-1.35-.24-1.29-1.75-2.19-2.56-.15-.14-.28,.2-.28,.3,0,.68-.26,4.73,1.46,4.29,2.13-.54,5.76-.03,7.93,1.22,0,0,0,.01,0,.02,.88,1.17,1.98,1.11,2.5-.35,.03-.09,.07-.26,0-.34-.42-.47-.98-.78-1.61-.73Z"/><path class="m" d="M17.89,44.02c-.06,.02-.11,.12-.12,.23-.15,.17-.27,.4-.32,.54-.19,.67,.26,1.69,.58,2.34,.48,.97,.67,1.88,.99,2.89,.26,.84,.65,1.62,1.02,2.44,.59,1.31,.81,2.15,2.19,2.28,2.32,.22-.06-3.46-.6-4.81-.64-1.6-.88-3.28-1.54-4.85-.49-1.16-1.41-1.27-2.19-1.06Z"/></g><path class="c" d="M34.61,59.14c.36,.41,.53,.55,.59,1.08,.14,1.24-1.33,1.83-2.44,1.6,.41,.36,.86,.66,1.27,1.03,.13,.12-.03,.29-.17,.26-1.11-.28-2.01-1.07-2.97-1.66-1.24-.75-1.9-1.68-3.15-2.4-1.14-.65-1.34-1.28-3.97-3.41-.07-.05-1.47-.41-1.38-.42,.93-.19,.93-.83,.84-1.52-.05-.04-.1-.08-.16-.12-.05-.38-.19-.81-.36-1.25-.11,.68-.14,1.8-.73,1.75-1.18-.1-1.55-1.44-1.8-2.37-.32-1.17-.44-2.37-.85-3.51-.32-.88-1.27-1.5-1.23-2.46,.06-1.6,1.03-1.55,2.11-.99-.22-.4-.54-.63-.9-.73-.24-.22-.51-.39-.81-.48-.57,.03-1.08,.22-1.67,.3-.55,.08-1,0-1.51-.2-1.55-.57-3.08-.88-4.73-.77-.89,.06-1.82,.07-2.39-.74-.6-.86-.15-2.03-.56-2.93-.03,.06-.04,.12-.04,.15,0,.68-.26,4.73,1.46,4.29,2.13-.54,5.76-.03,7.93,1.22,0,0,0,.01,0,.02,.01,.02,.03,.03,.04,.05-.02,.03-.08,.08-.05,.1,.63,.47,.98,1.85,1.3,2.51,.47,.98,.84,2.37,1.1,3.42,.22,.87,1.6,4.15,2.86,3.79-.08,1.25,10.18,8.84,11.4,9.55,.67,.39,2.17,2.22,3.61,1.79,1.3-.38,1.51-1.74,1.38-3.1-.18-1.82-2.43-3.18-4-3.84Z"/><path class="l" d="M7.78,39.03c.42,1.02,.85,2.19,1.74,2.77,.89,.58,1.91,.54,2.91,.77,1.73,.4,3.49,1.24,5.26,.9-1.28,.03-2.54-.75-3.71-1.19-1.29-.48-2.6-.43-3.94-.66-1.35-.24-1.29-1.75-2.19-2.56-.03-.03-.06-.03-.08-.03Z"/><path class="l" d="M19.37,44.05c.67,1.1,.93,2.35,1.25,3.66,.45,1.88,1.2,3.64,2.3,5.21-.33-1.08-1.08-2.3-1.32-2.98-.59-1.62-.67-3.39-1.29-4.98-.2-.51-.54-.79-.93-.92Z"/><path class="l" d="M25.89,56.17c1.05,.57,2.17,1.18,3.27,1.64,1.27,.53,2.46,.52,3.8,.56,.06,0,.13,0,.2,0-.69-.34-1.43-.63-2.24-.89-2.64-.87-5.12-1.41-7.16-3.32,.39,.89,1.25,1.52,2.13,2Z"/></g></g><g><g><g><g><path class="m" d="M117.34,87.89c1.15-.01,2.34,.21,3.47,.05,.63-.08,1.31-.62,1.9-.87,.8-.34,2.74-1.43,2.88-2.39,.02-.15-.2-.25-.31-.29-.46-.17-.77-.14-1.21,.1-.77,.42-1.47,.95-2.27,1.35-1.26,.63-2.59,.71-3.95,.77-.78-.2-1.68-.27-1.88,.46-.19,.68,1.01,.82,1.37,.82Z"/><path class="m" d="M105.89,86.58c2.29,.05,4.9,.2,7.18,.5,1.03,.13,3.92,1.4,4.95,.56,.97-.8,.37-1.47-.64-2.15-1.35-.9-3.23-.54-4.79-.51-1.42,.03-2.54-.2-3.95-.38-.89-.12-1.84-.45-2.75-.46-1.04,0-1.63,.32-1.94,1.02-.56,.49-.4-.47-.16,.13,.42,1.07,1.06,1.26,2.09,1.28Z"/><path class="m" d="M93.73,77.44c1.42,1.71,3.2,1.95,4.89,3.38,1.96,1.65,4.1,5.12,7.41,5.55,1.27,.17,.52-2.45-.43-3.22-1.11-.89-2.37-1.52-3.45-2.45-.74-.63-1.46-1.28-2.22-1.89-1.92-1.55-3.71-3.27-5.67-4.76-.7-.53-1.53-.23-2.18,.23-.14-.23-.65-.39-.74-.14-.64,1.73,1.3,1.99,2.39,3.3Z"/><path class="m" d="M79.26,77.18c.73,1.06,1.51,.12,2.82,.18,.77,.03,1.57-.24,2.29-.47,1.3-.4,2.49-.55,3.84-.45,1.48,.11,3.14,.34,4.54-.23,1.87-.77,.6-3.19-1.19-3.35-.66-.06-1.35,.14-1.96,.39-1.06,.43-2.15,.73-3.26,1.02-2.15,.58-4.3,1.02-6.52,1.25-.1,.01-.09,.07-.05,.12-.66,.21-1.02,.8-.51,1.53Z"/></g><path class="c" d="M79.78,75.65c-.04-.05-.05-.11,.05-.12,.42-.04,.84-.1,1.26-.16,.55,.8,1.18,.27,2.25,.45,1.78,.3,3.57-.27,5.32-.52,.61-.08,3.08,.49,3.55,.59,.76,.17,1.07,1.11,1.45,.38,.38-.75,.28-1.63-.09-2.44,.11,.15,.2,.31,.28,.48,.31,.68,.2,1.28,.11,1.99-.1,.82,.42,1.05,1.07,1.58,.88,.73,4.8,2.71,5.41,3.45,.74,.89,2.77,3.7,3.53,3.83,1.25,.21,2.22,.05,2.38-1h0c.25,.04,.5,.08,.75,.13,.22,.71,.13,1.47-.44,2.11-.08,.09-.26-1.53-.14-1.48,2.94,1.05,6.33,1.79,9.32,2.56,.09,.02,.22-.03,.21-.14,0-.16-.01-.32-.01-.48,.34,.26,.64,.55,.95,.86,.07,.08,.19,.07,.25-.02,.47-.65,.65-1.25,.57-1.83,.18,.22,.33,.47,.41,.73,.31-.01,.62-.03,.93-.06,.86,.91,2.5,.47,3.52,.03,.88-.38,2.25-1.09,2.81-2.07,.07,.05,.12,.11,.11,.19-.13,.96-2.08,2.05-2.88,2.39-.59,.25-1.27,.79-1.9,.87-.86,.12-1.75,.02-2.64-.03-.1,.22-5.4-.95-6.43-1.08-2.28-.3-2.34,.05-6.04-.31-.88-.09-1.2-.14-1.77-.88-2.15-.46-4.03-5.05-8.79-6.95-.22-.09-2.63-2.18-2.77-2.37-1.25,.3-6.48-.01-7.78,.39-.72,.22-4.61,1.53-5.33,.47-.5-.74-.15-1.32,.51-1.53Z"/><path class="l" d="M113.44,85.25c-2.04-.03-4.65,.35-6.38-.97,.54,.11,1.07,.24,1.59,.31,1.41,.19,2.85,.16,4.27,.13,1.56-.03,3.12-.15,4.47,.76,.36,.24,.62,.59,.77,.98-1.05-1.24-3.24-1.18-4.72-1.21Z"/><path class="l" d="M105.85,84.84c-1.17-2.39-4.01-2.8-5.84-4.56-1.47-1.42-2.59-3.16-3.88-4.72,1.27,1.08,2.51,2.2,3.8,3.24,.76,.61,1.48,1.26,2.22,1.89,1.05,.91,2.28,1.53,3.37,2.39,.32,.55,.5,1.16,.33,1.75Z"/></g><path class="l" d="M92.19,73.08c.36,.44,.67,.91,.84,1.46-1.9-1.24-3.97-.62-6.07-.02-1.61,.46-3.72,1.2-5.47,.79,1.63-.25,3.24-.61,4.85-1.04,1.11-.3,2.19-.59,3.26-1.02,.61-.24,1.3-.44,1.96-.39,.22,.02,.43,.1,.63,.22Z"/><path class="l" d="M119.27,86.52c.86-.09,1.71-.27,2.52-.67,.8-.4,1.5-.93,2.27-1.35,.44-.24,.75-.27,1.21-.1,.04,.02,.11,.04,.16,.08-2.15-.04-4.03,2.8-6.17,2.05Z"/></g><g><g><path class="m" d="M98.03,41.94c.94,.63,1.54-.51,2.37-.72,1.99-.51,4.81-1.69,6.76-.94,.86,.33,.99-.37,1.19-1.09,.15-.54,.64-1.58-.09-1.91-.66-.3-1.33,.49-1.79,.8-1.92,1.27-4.28,1.27-6.46,1.73-.68,.15-1.71,.4-1.88,1.07-.32,.33-.55,.74-.09,1.05Z"/><path class="m" d="M90.63,47.31c1.04-.77,1.57-.78,2.75-1.37,.94-.47,2.24-1.9,3.19-2.35,1.35-.63,3.75-.88,3.71-2.5-.03-1.15-.42-.92-1.53-1.44-1.1-.51-2.54,.88-3.27,1.47-1.98,1.62-4.24,2.15-6.44,3.31-.59,.31-.94,.72-1.1,1.2-.05,0-.1,.03-.12,.09-1.07,2.6,.48,3.3,2.81,1.59Z"/><path class="m" d="M84.35,59.15c1.41-.18,1.68-3.62,2.17-4.65,.92-1.96,2.19-3.23,2.75-5.34,.24-.89,1.25-1.58,1.13-1.73-.14-.67,.02-.9-.54-1.28-.92-.63-2.41-.36-3.17,.43-1.41,1.47-1.38,3.76-2.26,5.54-.84,1.71-1.85,3.63-1.46,5.61,.22,1.13,.01,1.6,1.37,1.43Z"/><path class="m" d="M78.24,68.96c.62-.21,1.03-1.11,1.25-1.82,1.03-1.5,1.11-3.83,2.52-4.95,1.05-.84,2.81-1.8,2.24-3.4-.33-.93,.27-1.44-.79-1.72-1.27-.34-2.05,.67-2.41,1.76-.62,1.86-2.26,2.93-3.15,4.64-.74,1.43-1.53,3.18-1.19,4.82,.13,.65,1.02,.85,1.53,.68Z"/></g><path class="c" d="M76.72,68.28c-.34-1.64,.45-3.39,1.19-4.82,.69-1.33,1.84-2.28,2.61-3.52,.11,.88,.2,1.76,.25,2.65,0,.12,.16,.25,.26,.13,.34-.37,3.25-3.31,3.23-3.94-.02-.76-.69-1.3-1.42-1.61,.64-.13,1.27-.11,1.83,.27,.28,.19,2.18-5.18,2.71-6.09,.7-1.21,2.1-2.45,2.55-3.6,.36-.92-1.47-1.68-2.28-1.8,.03-.01,.06-.02,.09-.03,.02-.07,.05-.14,.08-.21,.02-.06,.07-.08,.12-.09,.04-.13,.1-.25,.17-.37,1.04-.11,2.08,.18,2.86,1,.05,.05,.13,.08,.19,.04,.2-.13,.35-.27,.5-.44,.04,.41,1.47-.55,1.44-1-.06-.71,.76-1.67,6.14-2.86,.97-.21-.14-1.83-.78-2.44,.1,.02,.2,.04,.3,.09,.2,.09,.38,.21,.53,.34,.25-.08,.5-.14,.72-.19,.3,.22,.61,.39,.99,.4,.48,.01,1-.26,1.45-.39,.63-.18,1.28-.36,1.93-.4,.96-.06,2.35,.35,3.2-.29,.52-.4,.79-1.01,.94-1.64,.34,.44-.03,1.25-.16,1.72-.2,.71-.34,1.41-1.19,1.09-1.96-.75-4.78,.43-6.76,.94-.12,.03-.23,.08-.34,.14,.09,.36,.39,.87-3.29,2.19-.99,.35-1.6,1.56-2.77,2.1-2.76,1.27-3.42,1.69-3.59,1.77,0,.46-.58,1.26-1.28,2.35-5.42,8.44-2.37,8.23-4.77,9.37,.06,1.34-1.55,2.47-2.48,3.2-1.41,1.12-1.34,3.29-2.37,4.79-.22,.71-.63,1.61-1.25,1.82-.51,.17-1.39-.03-1.53-.68Z"/><path class="l" d="M108.56,37.62c-.77,.06-1.45,.84-2.15,1.13-1.36,.56-2.84,.78-4.28,1.05-.55,.1-1.17,.29-1.74,.19-.17-.03-.33-.08-.48-.14,.03,0,.07-.02,.09-.02,2.19-.46,4.54-.46,6.46-1.73,.47-.31,1.14-1.1,1.79-.8,.17,.08,.28,.2,.34,.34-.01,0-.03,0-.04,0Z"/><path class="l" d="M96.79,40.62c-1.05,.87-2.19,1.45-3.39,2.07-1.09,.56-2.18,1.27-3.35,1.67-.67,.23-1.3,.43-1.87,.79,.19-.27,.47-.51,.85-.71,2.2-1.16,4.46-1.68,6.44-3.31,.72-.59,2.15-1.96,3.25-1.48-.72,.13-1.34,.48-1.94,.98Z"/><path class="l" d="M86.71,47.14c-.19,1.2-.77,2.23-1.29,3.31-.53,1.09-.96,2.21-1.33,3.37-.2,.61-.32,1.43-.69,1.96-.13,.2-.3,.35-.48,.49,.15-1.47,.88-2.88,1.52-4.17,.87-1.78,.84-4.08,2.26-5.54,.08-.08,.17-.15,.26-.22-.11,.24-.19,.51-.24,.8Z"/><path class="l" d="M82.28,57.17c.64-.01,1.25,.1,1.76,.49-1.26-.04-2.21,.68-2.83,1.86-.35,.67-.61,1.48-1.18,2-.47,.44-1,.76-1.56,1.04,.9-1.23,2.08-2.22,2.58-3.73,.23-.69,.63-1.35,1.22-1.65Z"/></g><g><g><path class="m" d="M70.77,47.31c.97,.99,2.39,1.19,3.25,.36,.55-.52,.52-1.64,.55-2.41,.06-1.4,.02-2.82,0-4.23-.04-2.85-.15-5.71-.19-8.57-.02-1.23,.07-3.85-1.58-4.13-1.2-.2-1.71,1.54-1.5,2.6,.6,3-.27,5.33-.93,8.02-.22,.91-.39,1.77-.46,2.62-.05,0-.1,0-.11,.05-.48,1.86-.58,4.08,.97,5.67Z"/><path class="m" d="M67.01,20.55c.02,.11,.17,.18,.27,.21,1.47,.47,2.18-.38,1.78-1.79,0,0,0-.01,0-.02,.3-2.49,2.09-5.69,3.81-7.06,1.39-1.11-2-3.34-2.54-3.76-.08-.06-.43-.15-.41,.05,.11,1.2,1.35,2.07,.73,3.29-.62,1.21-1.46,2.22-1.85,3.54-.37,1.25-.49,2.8-1.39,3.8-.42,.47-.51,1.11-.39,1.73Z"/><path class="m" d="M67.34,21.57c.85,1.47,2.05,2.68,2.94,4.16,.75,1.24,2.26,5.36,3.48,3.38,.73-1.18,.19-1.86-.5-3.12-.43-.78-.82-1.56-1.33-2.28-.62-.87-1.22-1.57-1.71-2.53-.33-.65-.88-1.62-1.52-1.87-.14-.05-.4-.1-.62-.07-.1-.06-.2-.08-.25-.04-.65,.49-1.11,1.3-.48,2.39Z"/></g><path class="c" d="M69.8,41.64c.11,.53,.12,.76,.5,1.12,.9,.86,2.26,.04,2.75-.98,.04,.54,0,1.09,.05,1.63,.01,.17,.25,.15,.31,.02,.45-1.06,.35-2.25,.47-3.37,.15-1.44-.19-2.53,0-3.96,.17-1.31-.21-1.84-.33-5.22,0-.09,.56-1.42,.49-1.36-.72,.63-1.22,.24-1.72-.25,0-.07,0-.13,0-.2-.28-.27-.54-.64-.78-1.04,.61,.32,1.52,.97,1.84,.47,.64-1-.22-2.1-.81-2.87-.74-.96-1.62-1.78-2.29-2.8-.51-.78-.43-1.92-1.22-2.46-1.31-.91-1.86-.11-2.06,1.09-.19-.41-.18-.8-.04-1.16-.03-.32,0-.65,.1-.94,.37-.44,.82-.73,1.25-1.15,.39-.39,.6-.8,.75-1.33,.48-1.58,1.16-2.98,2.24-4.24,.58-.68,1.15-1.41,.85-2.35-.32-1-1.53-1.34-2-2.21,.06,.01,.12,.04,.15,.06,.54,.41,3.93,2.64,2.54,3.76-1.71,1.37-3.5,4.58-3.81,7.06,0,0,0,.01,0,.02,0,.02,0,.04,.01,.06,.04,0,.11-.02,.11,.02,0,.78,.89,1.9,1.22,2.55,.49,.97,1.39,2.1,2.06,2.94,.56,.69,2.35,3.78,1.29,4.57,1.05,.69,.91,13.45,.74,14.85-.09,.77,.46,3.07-.75,3.96-1.09,.81-2.3,.15-3.3-.78-1.34-1.24-1.07-3.85-.65-5.51Z"/><path class="l" d="M69.94,8.11c.56,.95,1.24,2,1.16,3.06-.08,1.06-.72,1.85-1.14,2.79-.72,1.62-1.12,3.53-2.45,4.74,.8-1,.93-2.48,1.29-3.68,.39-1.32,1.23-2.33,1.85-3.54,.62-1.22-.61-2.09-.73-3.29,0-.04,0-.06,.03-.08Z"/><path class="l" d="M66.95,20.38c.47,1.2,1.31,2.16,2.17,3.21,1.23,1.49,2.18,3.15,2.77,4.98-.66-.92-1.18-2.25-1.57-2.85-.94-1.45-2.3-2.57-3.19-4.03-.28-.47-.31-.91-.17-1.3Z"/><path class="l" d="M72.69,32.89c-.18,1.18-.37,2.45-.66,3.6-.34,1.33-1.07,2.28-1.84,3.37-.04,.05-.07,.11-.11,.16,.14-.75,.36-1.52,.64-2.32,.89-2.63,1.97-4.93,1.67-7.72,.48,.85,.46,1.92,.31,2.91Z"/></g></g><g><path class="q" d="M86.06,79.98c-9.26-8.55-16.6-3.29-16.6-3.29l-1.06,.53-6.11,3.04-1.06,.53s-8.63,2.69-7.39,15.23c1.23,12.54,5.63,21.31,18.17,30.89,11.13,8.51,17.57,11.39,21.83,9.18h.03l.03-.03c4.33-2.07,5.92-8.94,5.85-22.95-.08-15.78-4.42-24.58-13.68-33.12Z"/><path class="v" d="M92.68,91.87c-.05,.14-.29,.15-.31-.02-.05-.37-.16-.71-.31-1.04-.14,.74-.26,1.48-.48,2.2-.05,.15-.28,.14-.31-.02-.14-.72-.16-1.44-.3-2.15-1.55,6.8-8.66,10.29-14.44,13.03-4.57,2.17-11.17,5.53-15.85,2.14,.26,.42,.49,.85,.66,1.32,.04,.12-.05,.28-.19,.22-.2-.08-.39-.19-.57-.3,.11,.23,.2,.47,.25,.74,.03,.12-.09,.21-.21,.18-.78-.2-1.46-.73-1.99-1.38,.23,.61,.44,1.23,.63,1.86,.04,.14-.14,.23-.24,.16-1.11-.67-2.21-1.56-3.14-2.58,.83,2.52,1.92,4.9,3.32,7.21-.08-.21-.16-.43-.24-.65-.07-.19,.18-.32,.29-.14,.46,.74,.92,1.48,1.47,2.15-.33-.8-.6-1.62-.9-2.43-.03-.08-.01-.18,.07-.21,3.31-1.48,6.81-2.46,10.24-3.6,3.65-1.21,7.08-2.81,10.5-4.56,3.43-1.76,6.82-3.63,10.01-5.82,.84-.57,1.67-1.16,2.48-1.78,.38-.28,.73-.66,1.14-.88,.47-.25,.78-.11,1,.2,.03-.21,.06-.41,.05-.62,0-.12,.16-.2,.25-.12,.89,.7,1.57,1.55,2.12,2.5-1.03-3.35-2.46-6.32-4.28-9.08-.07,1.25-.33,2.47-.71,3.48Z"/><path class="v" d="M56.42,91.37c.07-.18,.31-.12,.31,.06,.03,1.93-.02,3.86,.18,5.78,.33-2.09,.5-4.21,1.22-6.22,.05-.14,.29-.15,.31,.02,.11,.91,.07,1.84,.27,2.74,.47-.97,.55-2.12,1.25-2.99,.08-.1,.21-.09,.28,.02,.12,.21,.23,.39,.33,.6,.25-.32,.54-.62,.71-1,.05-.11,.18-.15,.27-.06,1.97,2.05,5.73,0,7.8-.92,3.54-1.56,6.31-4.18,7.59-7.88,.04-.12,.18-.14,.27-.06,.62,.59,1.14,1.26,1.67,1.94-.17-.36-.32-.74-.42-1.13-.04-.16,.17-.25,.28-.14,.28,.29,.54,.61,.78,.93-.19-.5-.45-.98-.58-1.5-.04-.15,.17-.26,.28-.14,.34,.4,.64,.84,.96,1.25-.23-.6-.47-1.2-.75-1.78-.06-.12,.06-.28,.19-.22,.88,.36,1.37,1.22,2.09,1.8,.02-1.21-.96-2.17-1.25-3.33-.02-.1,.07-.2,.17-.19,1.51,.1,2.94,.74,4.27,1.45,1.37,.73,2.75,1.51,4.02,2.41-.89-.95-1.84-1.88-2.85-2.81-9.26-8.55-16.6-3.29-16.6-3.29l-8.23,4.09s-8.63,2.69-7.39,15.23c.2,2.04,.49,3.97,.87,5.83-.03-3.59,.54-7.19,1.71-10.48Z"/><path class="v" d="M96.82,112.22c-3.41,2.9-7.59,4.71-11.62,6.54-2.27,1.03-4.51,2.14-6.79,3.17-2.07,.93-4.24,1.92-6.46,2.39-1.11,.24-2.16,.21-3.16-.01,1.01,.86,2.07,1.72,3.21,2.59,11.13,8.51,17.57,11.39,21.83,9.18h.03l.03-.03c4.33-2.07,5.92-8.94,5.85-22.95,0-1.32-.04-2.59-.11-3.82-.83,1.1-1.81,2.09-2.81,2.93Z"/><g><path class="u" d="M54.62,101.43s15.56-13.61,35.03-17.83c0,0-20.24,2.95-35.03,17.83Z"/><g><path class="u" d="M98.64,100.9c-13.55,10.94-30.31,16-35.44,17.37,.1,.02,.2,.05,.31,.07,18.2-3.42,31.78-14.44,35.12-17.36,0-.03,0-.05,0-.08Z"/><path class="u" d="M99.1,111.9c-10.35,7.33-21.73,11.55-28.17,13.56,.32,.06,.65,.11,.97,.16,12.13-3.16,21.81-9.4,27.13-13.41,.02-.1,.05-.2,.07-.31Z"/><path class="u" d="M99.43,119.82c-8.06,5.23-16.43,8.67-22.39,10.72,.19,.14,.38,.27,.58,.41,9.12-2.79,16.68-7.19,21.78-10.72,.01-.13,.02-.27,.03-.4Z"/><path class="u" d="M98.44,128.35c-4.86,2.79-9.66,4.96-13.83,6.59,.28,.14,.56,.27,.84,.41,4.89-1.89,9.21-4.16,12.79-6.34,.07-.22,.13-.44,.19-.66Z"/></g><path class="u" d="M58,111.37s21.49-4.83,37.8-18.4c0,0-15.77,14.96-37.8,18.4Z"/><path class="u" d="M98.58,101.04c-.04-.19-.08-.38-.12-.56-.33,.48-.68,.95-1.04,1.41,.39-.28,.78-.56,1.16-.85Z"/></g></g><path class="c" d="M86.06,79.98c-9.26-8.55-16.6-3.29-16.6-3.29l-8.23,4.09s-8.63,2.69-7.39,15.23c1.23,12.54,5.63,21.31,18.17,30.89,11.13,8.51,17.57,11.39,21.83,9.18h.03l.03-.03c4.33-2.07,5.92-8.94,5.85-22.95-.08-15.78-4.42-24.58-13.68-33.12Zm.64,26.8c1.94,4.21,3.55,8.64,4.29,13.22,.55,3.38,1.1,7.71-.97,10.74-2.21,3.23-6.11,2.04-9.01,.47-3.53-1.92-6.9-4.39-9.95-7-3.09-2.65-5.93-5.66-8.3-8.97-4.26-5.96-7.11-13.02-6.84-20.38-.07-.45-.1-.9-.09-1.35,.03-.95,.33-2,1.27-2.42,1.28-.57,2.95,.48,4.18,.74,2.31,.48,4.95,.26,7.19-.44,1.5-.47,2.86-1.3,4.37-1.75,1.35-.41,2.8-.55,4.03,.27,1.4,.93,2.24,2.58,3.04,4.01,2.38,4.22,4.76,8.47,6.79,12.87Z"/><path class="c" d="M86.06,79.98c-2.51-2.32-4.88-3.62-7-4.28,.21,.15,.42,.31,.62,.47,1.11,.89,2.12,1.87,3.12,2.88,.75,.76,1.52,1.55,1.92,2.55,1,2.51-2.8,3.43-4.43,4.02-1.46,.52-2.84,1.34-4.18,2.11-.98,.56-1.95,1.16-2.88,1.8,.42-.11,.84-.18,1.26-.21,2.66-1.25,5.12-3.1,8.21-2.89,3.07,.21,4.99,2.17,6.72,4.52,.69,.94,1.51,2.09,1.5,3.31-.02,1.37-1.16,2.39-2.12,3.24-1.33,1.17-2.79,2.18-4.28,3.12,.96-.06,1.9-.38,2.82-.76,.83-.35,1.86-.96,2.79-.88,1.53,.13,2.57,1.97,2.54,3.41-.04,1.61-1.26,3.05-2.34,4.13-.57,.58-1.18,1.13-1.82,1.63,.79-.37,1.53-.9,2.3-1.35,.71-.42,1.54-.91,2.41-.78,1.43,.21,1.54,2.6,1.59,3.65,.07,1.85-.28,3.76-1.37,5.29-.65,.92-1.48,1.64-2.4,2.22,.48-.15,.96-.35,1.45-.54,.55-.21,1.3-.56,1.9-.38,1.05,.33,1.05,2.12,1.11,2.99,.14,2.08-.86,3.84-2.42,4.91,1.05-.21,2.05-.28,2.23,.91,.15,1.03,0,2.09-.16,3.1-.16,1.09-.29,2.2-.55,3.27-.3,1.23-.79,2.38-1.79,3.2-.92,.76-2,1.31-3.16,1.62-.39,.1-.79,.18-1.19,.24,2.14,.5,3.9,.35,5.39-.42h.03l.03-.03c4.33-2.07,5.92-8.94,5.85-22.95-.08-15.78-4.42-24.58-13.68-33.12Z"/><g><g><path class="o" d="M64.5,30.81c-1.04-1.04-2.35-1.72-3.77-2.05-1.52-.35-3.11-.46-4.67-.36-2.84,.19-10.48,1.04-13.13,2.07-.14,.06-.32,.14-.52,.26-.21,.09-.39,.18-.52,.26-2.41,1.49-7.7,7.08-9.57,9.23-1.02,1.18-1.89,2.51-2.53,3.94-.6,1.33-.85,2.79-.64,4.24,.83,5.86,5.03,7.48,10.01,8.05,2.57,.3,7.72-3.76,12.87-6.4,5.21-2.52,11.55-4.18,12.87-6.4,2.54-4.31,3.78-8.64-.39-12.84Z"/><g><path class="t" d="M39.7,45.89c-.95-1.89-3.72-2.7-3.88-4.98-.08-1.1,.38-2.16,.91-3.14,.2-.36,.41-.75,.51-1.15,.12-.46,.04-1.16-.54-1.2-1.49,1.48-2.81,2.84-3.6,3.71-1.22,1.33-2.26,2.82-3.05,4.41-.73,1.48-1.07,3.09-.88,4.68,.45,3.78,2.29,5.89,4.9,7.09,4.07-.34,7.41-5.89,5.64-9.41Z"/><path class="aa" d="M36.7,35.43c-1.49,1.48-2.81,2.84-3.6,3.71-1.22,1.33-2.26,2.82-3.05,4.41-.73,1.48-1.07,3.09-.88,4.68,.45,3.78,2.29,5.89,4.9,7.09,4.07-.34,7.41-5.89,5.64-9.41-.95-1.89-3.72-2.7-3.88-4.98-.08-1.1,.38-2.16,.91-3.14,.2-.36,.41-.75,.51-1.15,.12-.46,.04-1.16-.54-1.2Zm-2.39,4.59c.07,.68-.17,1.42-.03,2.09,.2,.99,.96,1.71,1.63,2.42,.79,.84,1.44,1.69,1.45,2.88,.02,1.76-.47,4.41-2.07,5.64-1.99,1.53-3.84-.66-4.51-2.25-1.08-2.57-1.19-5.48,.42-8.05,.02-.04,.05-.06,.08-.07,.61-1.14,1.52-2.13,2.76-2.78,.1-.05,.25,0,.26,.12Z"/></g><g><path class="t" d="M55.83,37.09c-.88-1.77,.21-4.36-1.44-5.74-.8-.67-1.9-.9-2.99-1.03-.4-.05-.83-.1-1.2-.24-.43-.16-.92-.61-.6-1.08,2.06-.34,3.93-.6,5.09-.74,1.78-.21,3.58-.19,5.28,.08,1.59,.25,3.05,.87,4.16,1.89,2.64,2.42,3.14,5.01,2.45,7.68-2.77,2.96-9.12,2.48-10.75-.83Z"/><path class="aa" d="M50.2,30.08c.37,.14,.8,.19,1.2,.24,1.08,.13,2.19,.36,2.99,1.03,1.66,1.38,.57,3.97,1.44,5.74,1.63,3.31,7.98,3.79,10.75,.83,.69-2.67,.19-5.26-2.45-7.68-1.11-1.02-2.56-1.64-4.16-1.89-1.71-.27-3.51-.28-5.28-.08-1.16,.14-3.03,.4-5.09,.74-.32,.46,.17,.91,.6,1.08Zm4.49-.65c1.27-.6,2.59-.75,3.85-.6,.03-.02,.06-.03,.1-.02,2.98,.17,5.16,1.85,6.48,4.11,.81,1.39,1.36,4.03-1.05,4.72-1.93,.56-4.28-.53-5.63-1.51-.91-.67-1.16-1.64-1.33-2.71-.14-.91-.23-1.9-.87-2.59-.43-.47-1.15-.69-1.63-1.12-.08-.07-.03-.21,.07-.26Z"/></g><g><g><path class="w" d="M40.98,32.03c-.44-.15-.89-.27-1.34-.38-.16-.04-.29-.09-.43-.19-.06-.04-.12-.07-.17-.08-.06,0-.13,.09-.14,.14-.1,.31-.17,.66,.25,.66,.07,0,.19-.04,.26-.05,.03,0,.05,0,.08-.01,.08-.02,.15-.03,.23-.03,.43,.04,.86,.22,1.26,.38,.72,.28,1.41,.61,2.09,.97h0c.1,0,.16-.06,.18-.12-.72-.49-1.44-1-2.27-1.29Z"/><path class="g" d="M42.22,32.8c-.43-.26-.88-.49-1.36-.66-.22-.08-.45-.16-.69-.2-.21-.04-.45,0-.65-.07-.24-.08-.29-.39-.49-.49h0c-.06,0-.13,.09-.14,.14-.1,.31-.17,.66,.25,.66,.07,0,.19-.04,.26-.05,.03,0,.05,0,.08-.01,.08-.02,.15-.03,.23-.03,.43,.04,.86,.22,1.26,.38,.72,.28,1.41,.61,2.09,.97h0s.03,0,.05,0c-.25-.26-.59-.45-.89-.63Z"/><path class="w" d="M39.01,32.03c.14-.1,.1-.31,.02-.5h-.01c-.07-.1-.18-.24-.31-.2-.06,.02-.12,.05-.18,.05-.01,0-.02,0-.03,0h-.02s-.09-.03-.13-.06c-.06,0-.12,0-.18,.02,0,0-.28-.18-.31-.19-.09-.04-.19-.06-.28-.04-.06,.01-.12,.03-.18,.05,0,0-.05-.07-.06-.08-.11-.08-.22-.09-.35-.11-.08,0-.16,.02-.24,.03-.06,.05-.13,.07-.2,.03-.23-.13-.42-.28-.68-.12-.01,0-.03,0-.03,0-.02-.02-.05-.03-.07-.04-.05-.01-.1-.03-.1-.03-.09-.03-.21-.01-.29,.01-.05,.02-.1,.03-.15,.06,0,0-.17-.06-.2-.07-.2-.03-.42,.08-.59,.19-.1,.07-.17,0-.29,.03-.09,.03-.15,.07-.21,.13-.08-.05-.15-.07-.28-.06-.02,0-.05,0-.07,.01-.07,.04-.13,.09-.18,.16-.01,.02-.03,.02-.05,.01-.12-.06-.28-.12-.41-.08-.12,.04-.23,.15-.3,.25-.09,.13-.18,.26-.23,.41,0,.14,.04,.27,.22,.24,.26-.04,.43-.25,.62-.42v.02s.05,.04,.08,.04c.11,0,.23-.06,.31-.15,.16,0,.38-.1,.52-.16,.2,.1,.51,.02,.67-.17,.2,.07,.39-.01,.58-.11,.18,.11,.28,.1,.43,0,.01,0,.02,0,.04,0-.06,0,.07,.06,.08,.07,.05,.03,.12,.07,.19,.07,.12,0,.21,0,.3-.05,.14,.14,.37,.16,.56,.14,.13-.02,.06-.02,.16,.03,.14,.08,.3,.13,.47,.15,.04,0,.34-.04,.35,0,.03,.1,.13,.13,.21,.14,.05,0,.15,0,.25-.02,.06,.13,.26,.22,.37,.27,.07,.03,.15,.06,.23,.07Z"/><g class="h"><path class="w" d="M39.03,31.53h-.01c-.04-.07-.1-.14-.17-.18,0,.07,0,.14-.04,.2-.06,.09-.16,.11-.25,.05-.11-.07-.07-.16,0-.23-.01,0-.03,0-.04,0-.01,0-.02,0-.03,0h-.03s-.02,.03-.03,.04c-.06,.06-.15,.12-.24,.1-.04,0-.08-.04-.08-.08,0-.04,.01-.08,.04-.1-.01,0-.04-.02-.07-.04-.02,.03-.06,.06-.11,.07-.22,.05-.44,.02-.63-.09-.03-.02-.03-.06-.01-.08,.02-.02,.03-.03,.05-.05-.01-.02-.05-.07-.06-.07-.02-.01-.04-.02-.06-.03-.01,.08-.11,.15-.2,.17-.17,.05-.39,.04-.53-.08-.02-.02-.02-.05,0-.07,0,0,.01-.01,.02-.02-.01,0-.02,0-.03-.01-.03-.02-.07-.04-.1-.06-.02,.04-.06,.07-.1,.09-.16,.08-.35,.02-.51-.02-.03,0-.05-.05-.03-.07,.01-.02,.03-.03,.04-.05,0,0-.01,0-.02,0-.02-.02-.05-.03-.07-.04h0c-.11,.2-.48,.34-.66,.25-.03-.02-.03-.06-.01-.08,.04-.04,.08-.09,.12-.13,0,0-.08-.03-.13-.05-.05,.16-.27,.29-.39,.35-.06,.03-.18,.09-.24,.02-.04-.05-.05-.1-.05-.16-.05,.18-.32,.33-.48,.35-.04,0-.08-.02-.06-.06,.02-.06,.04-.13,.06-.19-.03-.02-.06-.03-.08-.04-.05,.19-.24,.36-.4,.44-.03,.02-.07,0-.08-.04,0-.08,.01-.15,.03-.23,0,0-.01,0-.02,0-.05-.02-.1-.05-.16-.07-.03,.19-.03,.37-.19,.52-.11,.1-.25,.22-.39,.27-.07,.02-.16,.02-.2-.04,.02,.09,.08,.16,.21,.14,.26-.04,.43-.25,.62-.42v.02s.05,.04,.08,.04c.11,0,.23-.06,.31-.15,.16,0,.38-.1,.52-.16,.2,.1,.51,.02,.67-.17,.2,.07,.39-.01,.58-.11,.18,.11,.28,.1,.43,0,.01,0,.02,0,.04,0-.06,0,.07,.06,.08,.07,.05,.03,.12,.07,.19,.07,.12,0,.21,0,.3-.05,.14,.14,.37,.16,.56,.14,.13-.02,.06-.02,.16,.03,.14,.08,.3,.13,.47,.15,.04,0,.34-.04,.35,0,.03,.1,.13,.13,.21,.14,.05,0,.15,0,.25-.02,.06,.13,.26,.22,.37,.27,.07,.03,.15,.06,.23,.07,.14-.1,.1-.31,.02-.5Z"/></g></g><g><path class="w" d="M44.01,30.52c.14-.44,.32-.87,.5-1.3,.07-.15,.1-.29,.11-.45,0-.07,.02-.13,.04-.19,.04-.05,.15-.05,.2-.03,.31,.1,.63,.26,.37,.6-.04,.05-.15,.13-.2,.17-.02,.02-.04,.04-.05,.05-.06,.05-.12,.1-.16,.17-.23,.37-.34,.82-.46,1.23-.21,.74-.36,1.49-.49,2.25h0c-.07,.08-.14,.1-.21,.08,.04-.87,.07-1.75,.34-2.59Z"/><path class="g" d="M43.87,31.98c.06-.5,.15-1,.29-1.48,.07-.23,.15-.45,.25-.67,.09-.19,.26-.36,.33-.56,.09-.24-.13-.47-.09-.69h0c.04-.05,.15-.05,.2-.03,.31,.1,.63,.26,.37,.6-.04,.05-.15,.13-.2,.17-.02,.02-.04,.04-.05,.05-.06,.05-.12,.1-.16,.17-.23,.37-.34,.82-.46,1.23-.21,.74-.36,1.49-.49,2.25h0s-.03,.03-.04,.04c-.05-.36,0-.74,.03-1.09Z"/><path class="w" d="M45.2,28.95c-.17,.05-.3-.11-.41-.28v-.02c-.03-.11-.07-.28,.03-.36,.05-.04,.11-.07,.15-.12,0,0,.01-.02,.02-.03h.01s0-.02,0-.02c.02-.04,.03-.09,.04-.14,.03-.05,.07-.09,.13-.13,0,0,.03-.33,.03-.36,.02-.09,.06-.19,.14-.25,.05-.04,.09-.08,.15-.11,0,0-.03-.08-.03-.1,0-.13,.06-.23,.12-.35,.05-.06,.11-.12,.17-.17,.07-.02,.14-.06,.15-.15,.03-.27,.03-.5,.32-.62,.01,0,.02-.02,.02-.03,0-.03,0-.06,0-.08,.02-.05,.04-.1,.03-.1,.03-.08,.12-.18,.19-.23,.04-.03,.09-.06,.14-.09,0,0,.05-.18,.07-.2,.1-.18,.32-.29,.51-.35,.12-.04,.1-.14,.2-.21,.08-.06,.15-.08,.23-.09,0-.1,.03-.16,.12-.26,.02-.02,.03-.03,.05-.04,.07-.03,.15-.05,.23-.05,.02,0,.03-.01,.04-.03,.02-.13,.07-.29,.18-.38,.1-.08,.25-.09,.38-.09,.16,0,.32,.02,.47,.06,.12,.08,.19,.19,.06,.32-.19,.18-.46,.19-.71,.24h0s0,.07-.01,.09c-.07,.09-.19,.14-.31,.15-.1,.13-.31,.24-.44,.32-.04,.22-.3,.42-.54,.43-.06,.2-.24,.31-.44,.39-.02,.21-.09,.28-.26,.34,0,.01,0,.02-.02,.04,.04-.05,0,.1,0,.11,0,.06-.02,.14-.06,.19-.07,.1-.13,.16-.22,.21,.03,.2-.09,.39-.23,.53-.09,.09-.06,.04-.07,.14-.02,.16-.08,.32-.16,.46-.02,.04-.24,.25-.21,.28,.06,.08,.03,.18-.02,.25-.03,.05-.09,.12-.17,.18,.07,.13,.02,.34,0,.46-.02,.08-.05,.15-.08,.23Z"/><g class="h"><path class="w" d="M44.79,28.66v-.02c-.02-.07-.04-.16-.03-.24,.05,.05,.12,.08,.18,.09,.1,0,.18-.07,.19-.17,0-.13-.08-.15-.19-.13,.01,0,.02-.02,.03-.03,0,0,.01-.02,.02-.03h.01s0-.02,0-.02h0s.04,0,.05,0c.08-.01,.19-.05,.23-.13,.02-.04,.01-.08-.01-.12-.03-.03-.07-.03-.11-.03,0-.01,0-.05,0-.08,.04,0,.08,0,.12-.04,.17-.14,.28-.34,.31-.55,0-.03-.03-.06-.06-.06-.02,0-.05,0-.07,.01,0-.02-.02-.08-.02-.09,0-.02,0-.04,0-.07,.07,.04,.18,0,.26-.05,.14-.11,.26-.29,.25-.47,0-.03-.03-.05-.06-.04,0,0-.02,0-.03,0,0-.01,0-.02,0-.04,0-.04,0-.08,.01-.11,.04,0,.09,0,.14-.03,.16-.08,.22-.27,.29-.42,.01-.03,0-.07-.04-.07-.02,0-.04,0-.06,0,0,0,0-.01,0-.02,0-.03,0-.06,0-.08h0c.23,.04,.56-.18,.59-.38,0-.03-.03-.06-.06-.06-.06,0-.12,.01-.18,.02,0,0,.02-.08,.04-.13,.16,.06,.4-.04,.52-.1,.06-.03,.18-.09,.16-.18-.01-.06-.06-.1-.1-.14,.17,.07,.45-.06,.57-.17,.03-.03,.03-.07-.01-.09-.06-.02-.12-.04-.19-.06,0-.03,.01-.06,.02-.09,.19,.07,.43,.02,.6-.05,.04-.02,.04-.06,.01-.09-.06-.05-.13-.09-.2-.11,0,0,0-.01,.01-.02,.01-.05,.02-.11,.04-.17,.17,.09,.32,.2,.52,.16,.14-.03,.33-.07,.45-.15,.06-.04,.11-.12,.09-.18,.06,.07,.08,.16-.02,.25-.19,.18-.46,.19-.71,.24h0s0,.07-.01,.09c-.07,.09-.19,.14-.31,.15-.1,.13-.31,.24-.44,.32-.04,.22-.3,.42-.54,.43-.06,.2-.24,.31-.44,.39-.02,.21-.09,.28-.26,.34,0,.01,0,.02-.02,.04,.04-.05,0,.1,0,.11,0,.06-.02,.14-.06,.19-.07,.1-.13,.16-.22,.21,.03,.2-.09,.39-.23,.53-.09,.09-.06,.04-.07,.14-.02,.16-.08,.32-.16,.46-.02,.04-.24,.25-.21,.28,.06,.08,.03,.18-.02,.25-.03,.05-.09,.12-.17,.18,.07,.13,.02,.34,0,.46-.02,.08-.05,.15-.08,.23-.17,.05-.3-.11-.41-.28Z"/></g></g></g><ellipse class="f" cx="47.61" cy="42.18" rx="6.94" ry="8.81" transform="translate(-13.8 25.62) rotate(-26.45)"/><path class="e" d="M44.33,34.58s12.14,7.65,7.28,14.63c0,0,8.04-10.82-7.28-14.63Z"/></g><g><path class="r" d="M30.6,45.48c-.02-.13-.14-.06-.15,.03-.36,2.44-.31,5.94,2.46,6.99,.16,.06,.21-.29,.15-.37-.7-1.09-1.54-1.96-1.98-3.2-.4-1.11-.33-2.3-.48-3.45Z"/><path class="r" d="M33.71,52.62s-.06,0-.09,0c-.15,.02-.19,.39-.02,.37,.03,0,.06,0,.09,0,.15-.02,.19-.39,.02-.37Z"/><path class="r" d="M41.11,37.74c-.05-.17-.17,.06-.17,.14,.06,1.89-.08,6.73,1.91,7.69,.2,.1,.3-.28,.21-.41-.48-.71-.91-2.84-1.35-3.59-.48-.81-.32-2.97-.59-3.83Z"/><path class="r" d="M62.83,31.24c-.4-.39-2.08-1.58-2.68-1.1-.06,.05-.15,.33,0,.3,.19-.04,.84,.6,.97,.7,.45,.33,.93,.63,1.31,1.04,.39,.42,.79,.81,1.11,1.29,.27,.41,.36,.8,.7,1.16,.18,.19,.33-.3,.31-.4-.23-1.28-.84-2.09-1.74-2.98Z"/></g></g><path class="a`" d="M73.98,73.26l-17.16,8.54-3.71,1.85s4.69,5.5,15.6,1.7l.93-.46c9.62-6.41,8.06-13.46,8.06-13.46l-3.71,1.85Z"/><path class="v" d="M75.47,50.95c-4.79-6.97-12.43-10.01-20.66-9.9-5.81,.07-10.31,3.42-13.56,8.1-2.51,3.61-3.84,7.36-4.26,11.75-.28,2.95,.21,5.82,1.14,8.62,5.11,15.4,17.67,15.8,24.33,12.49l1.43-.71,5.42-2.7,1.43-.71c6.67-3.32,13.92-13.58,4.72-26.94Z"/><path class="n" d="M79.22,62.64c-.08,7.05-4.7,12.21-9.06,14.38l-8.29,4.12c-5.06,2.52-13.53,2.89-19.54-3.83-.05-.87-.03-1.74,.05-2.62,.42-4.4,1.75-8.14,4.26-11.75,3.25-4.68,7.75-8.03,13.56-8.1,7.35-.09,14.22,2.32,19.02,7.8Z"/><g class="x"><path class="y" d="M66.21,79.88l-17.77-33.2s1.7-4.32,3.51-1.48l14.26,34.68Z"/><path class="y" d="M66.13,79.64l-19.35-32.3s-4.58-.76-3.08,2.25l22.42,30.06Z"/><path class="y" d="M66.35,79.47l-13.59-35.12s2.22-4.08,3.66-1.04l9.93,36.16Z"/><path class="y" d="M66.61,80.32l-23.47-28.22s-4.52-.04-2.63,2.63l26.09,25.59Z"/><path class="y" d="M66.12,79.8l-8.35-35.74s2.69-3.63,3.68-.51l4.67,36.25Z"/><path class="y" d="M66.17,80.19l-25.23-22.57s-3.75,.56-1.62,2.74l26.85,19.83Z"/><path class="y" d="M66.75,80.65l-27.05-17.98s-3.47,1.15-1.16,2.94l28.21,15.04Z"/><path class="y" d="M66.45,80.05l-2.78-33.73s2.7-2.65,3.16,.35l-.38,33.38Z"/><path class="y" d="M66.47,80.79l1.98-32.42s3.02-2.07,3.04,.85l-5.02,31.57Z"/></g><path class="c" d="M37.25,58.94s13.73-20.6,25.68-12.51c0,0,19.7,13.12,6.39,32.17,0,0,22.52-10.5,2.25-31.99,0,0-25.04-18.46-34.32,12.32Z"/></g><path class="d" d="M73.71,90.19c-3.58,1.16-6.73,3.13-9.88,5.13-1.35,.86-2.56,1.99-3.79,3.01-1.24,1.03-2.41,2.2-3.03,3.71-.04,.11,0,.36,.13,.27h0c2.37-1.74,4.38-3.97,6.85-5.61,3.16-2.1,6.59-3.8,9.73-5.92,.14-.1,.26-.68-.02-.59Z"/><path class="d" d="M77.96,106.34c-1.17,.27-2.27,.78-3.37,1.25-1.65,.7-3.31,1.21-5.01,1.76-2.24,.72-4.7,1.29-6.81,2.35-.16,.08-.24,.55,.02,.53,5.24-.41,10.92-1.86,15.19-5.11,.17-.13,.37-.86-.02-.77Z"/><path class="d" d="M80.55,114.41c-2.2,.5-4.3,1.36-6.44,2.05-1.1,.36-2.23,.67-3.34,1-.7,.21-2.11,1.02-2.83,.95-.14-.01-.23,.29-.11,.35,.51,.24,1.23,.03,1.76-.04,1.32-.17,2.6-.34,3.9-.66,2.48-.61,4.87-1.65,7.1-2.89,.21-.12,.34-.85-.02-.77Z"/><path class="d" d="M85.21,121.95c-1.59,.1-3.1,1.01-4.56,1.6-1.74,.71-3.76,2.1-5.63,2.34-.15,.02-.23,.4-.06,.43,1.77,.25,3.55-.55,5.17-1.16,1.78-.67,3.39-1.54,5.1-2.38,.25-.13,.37-.85-.03-.83Z"/><path class="d" d="M87.59,127.98c-1.95,.01-3.45,1.65-5.26,2.16-.19,.05-.26,.43-.07,.52,.75,.35,1.94-.27,2.65-.55,.95-.38,1.98-.68,2.77-1.35,.2-.17,.27-.78-.1-.78Z"/></g><g><g><g class="i"><path class="ab" d="M45.5,66.23c-1.67-.03-3.84,2.33-4.6,4.61-1.82,5.47-4.67,22.92-3.84,37.91,.83,14.99,3.12,47.34,11,53.04,7.88,5.7,11.28,.58,14.87-13.17,3.59-13.74,9.99-31.03,4.55-39.81-5.45-8.78-17.15-24.15-18.81-31-.67-2.77-.84-5.6-1.13-8.43-.23-2.25-1.04-3.13-2.04-3.15Z"/></g><path class="ac" d="M66.25,110.5c-1.02-1.13-2.16-2.12-3.26-3.16-.05,.01-.11,0-.16-.05-2.66-2.88-5.42-5.8-7.13-9.37-.9-1.39-1.77-2.79-2.63-4.18-2.6-4.17-4.62-8.37-5.76-13.17-.58-2.45-1.13-4.92-1.43-7.43-.2-1.64,.01-3.9-.71-5.41-.03-.06-.07-.02-.1,.04,0-.04,.01-.08,.02-.12,0-.04,.01-.11-.04-.13-.1-.03-.19-.07-.29-.1-.09-.03-.14,.18-.06,.22,.43,.17,.09,.64,.02,1.05-.14,.89-.24,1.78-.3,2.68-.11,1.66-.06,3.33-.04,5,.04,3.13,.09,6.26,.25,9.38-.43,.85-1.18,1.67-1.59,2.5-.54,1.11-1.25,2.32-1.6,3.51-.63,2.08-1.21,4.09-1.58,6.21,.02-1.93,.1-3.86,.23-5.8,.52-7.76,1.27-15.6,2.5-23.28,.01-.08-.07-.07-.09,0-.03-.03-.07-.04-.12,.01-.2,.24-.25,.5-.34,.8-.14,.49-.24,.99-.4,1.48-.04,.14-.08,.27-.11,.41-.03,0-.07,.01-.08,.07-1.76,7.35-3.13,14.75-3.58,22.3-.44,7.52-.19,15.1,.48,22.59,.67,7.51,1.84,15.01,3.26,22.42,.72,3.75,1.73,7.42,2.6,11.14,.81,3.5,1.04,7.12,2.21,10.52-.07-.69-.15-1.38-.22-2.08-.3-1.25-.59-2.67-.62-2.9-.26-1.57-.5-3.12-.81-4.68-.73-3.57-1.62-7.09-2.33-10.66-1.5-7.54-2.71-15.17-3.48-22.82-.77-7.64-1.02-15.34-.71-23,.29-7.11,1.43-14.12,2.94-21.07,.07-.19,.22-.4,.28-.57,.15-.43,.19-.88,.35-1.31,.22-.61,.36-1.24,.54-1.85-1.38,7.43-2.13,15.05-2.7,22.57-.3,3.99-.35,7.95-.17,11.9h0v.04c.18,3.82,.56,7.64,1.13,11.47,.59,3.96,1.3,7.89,2.04,11.82,.75,4,1.82,7.92,2.53,11.93,.68,3.83,1.27,7.67,1.59,11.55,.15,1.86,.05,3.71,.09,5.58,0,.29,.02,.57,.05,.84,.04,.17,.07,.33,.1,.5,.03,.02,.06,.05,.07,.1,.3,1.19,.41,2.45,.95,3.55,.02-.07,.04-.13,.02-.19-.47-2.05-.82-3.92-.75-6.03,.05-1.74,.03-3.45-.1-5.18-.19-2.55-.55-5.09-.96-7.62,.33,.79,.69,1.57,1.03,2.36,.57,1.32,1.45,2.51,2.19,3.74,.75,1.23,1.86,2.28,2.79,3.36,.95,1.1,2.18,1.91,3.07,3.04,0,.03,.01,.05,.02,.08,.38,1.7,1,3.22,1.73,4.74,.32,.48,.68,.92,1.1,1.32,0-.01,0-.02,0-.03-.43-1.04-.88-2.07-1.29-3.1,.04-.07,.09-.21,0-.22-.03,0-.05,0-.07,0,.04-.09,.09-.2,.22-.32,.26-.25,.49-.5,.75-.75,.57-.55,.96-1.26,1.33-1.95,.87-1.65,1.33-3.59,1.49-5.46,.37,.54,.81,1,1.44,1.3,.04,.02,.08,0,.11-.02-.7-.88-1.37-1.79-1.87-2.79-.16-.28-.31-.57-.47-.83-.49-.83-1-1.65-1.5-2.47,.35-.15,.5-.75,.62-1.05,.6-1.39,1.56-2.64,2.28-3.98,.8-1.49,1.72-2.91,2.49-4.42,.6-1.18,1.47-2.39,1.96-3.64,.51,.7,1.01,1.41,1.48,2.14,0,0,0,0,.01,.01-.37-1.07-.91-2.09-1.52-3.06,0,0-.02,.01-.03,.02-.1-.13-.2-.26-.3-.4-.88-1.18-1.57-2.5-2.51-3.65-.94-1.15-1.6-2.51-2.52-3.67-.78-1-1.24-2.41-2.25-3.24,.04,.04,.07-.07,.05-.09-.06-.12-.06-.13-.13-.14,.26-.14,.52-.35,.77-.67,.47-.62,.57-1.54,.68-2.28,.21-1.4,.37-2.83,.5-4.24,.23-2.39,.44-4.85,.15-7.25,.04,.04,.07,.09,.11,.14,1.3,1.64,2.76,3.15,4.38,4.47,.83,.68,1.57,1.47,2.28,2.26,.97,1.08,2.06,1.89,2.66,3.27,.02,.03,.03,.05,.05,.06-.09-.46-.22-.92-.36-1.37-.75-1.21-1.96-2.16-2.9-3.2Zm-12.97,41.79c-1.23-1.3-2.48-2.7-3.52-4.16-.91-1.28-1.78-2.66-2.46-4.07-.42-.87-.75-2.02-1.29-2.87-.12-.68-.23-1.37-.35-2.05-.64-3.64-1.6-7.2-2.32-10.82-.82-4.1-1.53-8.21-2.17-12.34-.41-2.64-.72-5.27-.94-7.9,1.96,8.52,5.91,16.5,8.93,24.67,1.79,4.84,3.2,9.81,4.43,14.81,.54,2.19,1.04,4.39,1.53,6.58-.57-.65-1.22-1.22-1.84-1.87Zm4.83,3.29c-.31,.48-1.13,1.08-1.52,1.73-.19-.52-.37-1.05-.53-1.59,.03-.07,.04-.16,0-.21-.04-.08-.09-.16-.14-.24-.05-.2-.11-.41-.16-.62-.54-2.3-1.04-4.61-1.6-6.9-1.21-5-2.66-9.95-4.41-14.79-3.13-8.64-7.52-16.9-9.61-25.87-.2-2.67-.29-5.34-.29-8.02,.5-2.61,1.15-5.14,2.14-7.61,.47-1.16,1.09-2.28,1.62-3.42,.28-.62,.72-1.2,1.04-1.82,.03,.47,.05,.93,.08,1.4,.54,7.9,2.61,15.56,4.06,23.31,.15,.82,.31,1.63,.48,2.44-.01,.05,0,.11,.03,.13,.58,2.8,1.2,5.6,1.7,8.42,.58,3.31,1.14,6.63,1.86,9.91-.16,.01-.3,.06-.46-.1-.02-.02-.05-.03-.08-.02-.42,.15-.82,.04-1.26,.06-.31,.02-.62,.07-.93,.05-.14,0-.3,.09-.43,0-.02-.02-.05-.02-.07,0-.06,.03-.1,.09-.15,.13-.04,.03-.06,.15,.01,.15,.17,0,.49,.09,.67,.15,.44,.14,1.06,.01,1.52,.07,.3,.04,.54-.02,.84,.05,.17,.04,.31-.04,.43-.16,.07,.31,.14,.63,.21,.94,.82,3.5,1.98,6.78,3.67,9.95,.88,1.65,1.94,3.18,2.89,4.78,.22,.37,.43,.75,.65,1.11-.45,2.3-.95,4.6-2.26,6.59Zm1.63-32.81c.72,1.29,1.58,2.53,2.4,3.77,1.01,1.53,2.13,2.99,3.21,4.47-.98,2.32-2.45,4.56-3.66,6.77-.77,1.41-1.46,2.84-2.31,4.2-.42,.67-.62,1.83-1.19,2.34-.35-.57-.69-1.15-1.01-1.74-1.8-3.29-2.89-6.77-3.75-10.41-.86-3.66-1.44-7.38-2.09-11.09-.43-2.45-.98-4.87-1.49-7.3,.66,.59,1.69,1.89,1.96,2.15,.98,.98,2.01,1.93,3.17,2.7,.91,.6,1.84,1.08,2.69,.8,0,.03,0,.06,.01,.07,.56,1.16,1.43,2.15,2.06,3.27Zm-.74-6.34c-.16,1.42-.93,2.96-2.6,2.41-.76-.25-1.6-.89-2.22-1.39-1.56-1.25-3.02-2.63-4.41-4.07-.19-.9-.37-1.8-.54-2.7-1.33-7.14-3.28-14.22-3.93-21.48-.12-1.3-.2-2.6-.28-3.91h0c.01-.06,0-.1-.01-.13-.13-2.27-.22-4.55-.27-6.83-.08-3.46-.34-6.99,.29-10.41h0c.37,.86,.3,2.1,.38,3.02,.1,1.19,.2,2.37,.34,3.56,.26,2.15,.75,4.29,1.22,6.4,.99,4.43,2.73,8.45,5.11,12.3,2.36,3.8,4.76,7.59,7.5,11.13,.3,4.07-.14,8.05-.6,12.1Z"/><g class="b"><path class="s" d="M45.5,66.23c-1.67-.03-3.84,2.33-4.6,4.61-.48,1.44-1.03,3.73-1.57,6.58,.25-.42,.55-.79,.91-1.05,2.47-1.78,3.26,4.78,3.47,5.94,.4,2.19,.7,4.41,1.2,6.58,.51,2.21,1.25,4.31,2.22,6.36,1.89,3.98,4.26,7.69,6.49,11.48,2.07,3.52,4.04,7.16,5.15,11.11,.57,2.01,.94,4.08,1.04,6.17,.1,2.19-.07,4.39-.23,6.58-.34,4.63-.83,9.3-1.97,13.8-.48,1.91-1.04,3.85-2,5.59-.85,1.54-2.03,3.2-3.75,3.83-4.37,1.58-7.96-2.49-10.22-5.95,1.57,6.65,3.64,11.93,6.41,13.93,7.88,5.7,11.28,.58,14.87-13.17,3.59-13.74,9.99-31.03,4.55-39.81-5.45-8.78-17.15-24.15-18.81-31-.67-2.77-.84-5.6-1.13-8.43-.23-2.25-1.04-3.13-2.04-3.15Z"/></g><path class="a`" d="M47.27,60.86c-.32-.24-.72-.4-1.2-.44-1.98-.18-3.52,2.62-4.52,3.95-1.23,1.63-2.44,3.7-1.61,5.79,.73,1.83,4.33,.71,5.58,.27,1.54-.53,2.61-1.74,2.84-3.37,.27-1.9,.69-4.85-1.09-6.2Z"/></g><g><g class="i"><path class="ab" d="M68.89,54.59c.98-1.35,4.18-1.66,6.46-.89,5.46,1.85,21.1,10.1,32.55,19.8,11.45,9.7,35.87,31.04,35.67,40.77-.21,9.73-6.35,9.35-19.47,3.92-13.13-5.42-30.77-10.75-34.49-20.39-3.72-9.64-8.91-28.25-13.38-33.7-1.81-2.21-3.96-4.05-6.04-5.99-1.66-1.54-1.87-2.72-1.28-3.53Z"/></g><path class="ac" d="M92.48,102.1c.28,.38,.57,.76,.88,1.11,0-.02,0-.04-.02-.08-.75-1.31-.73-2.66-1.01-4.09-.2-1.05-.39-2.11-.43-3.18-.07-2.09-.4-4.16-.92-6.19-.02-.06-.03-.11-.05-.17,1.74,1.68,3.83,3,5.87,4.25,1.21,.74,2.44,1.48,3.68,2.16,.66,.36,1.46,.84,2.23,.83,.4,0,.73-.08,1-.21-.03,.07-.02,.07,.03,.2,.01,.03,.11,.07,.11,.02,.05,1.31,.9,2.53,1.23,3.75,.38,1.44,1.06,2.78,1.41,4.23,.35,1.44,.98,2.78,1.4,4.2,.05,.16,.09,.32,.14,.48-.02,0-.03,0-.04,.01,.41,1.07,.89,2.12,1.52,3.06v-.02c-.3-.82-.56-1.64-.82-2.47,1.29,.36,2.79,.4,4.09,.63,1.66,.3,3.36,.42,5.02,.68,1.5,.24,3.08,.23,4.55,.58,.31,.08,.88,.32,1.21,.13,.35,.9,.7,1.8,1.07,2.69,.12,.29,.25,.58,.38,.88,.5,1,.82,2.08,1.1,3.17,.04-.01,.08-.04,.09-.08,.15-.68,.04-1.31-.16-1.94,1.58,1,3.41,1.8,5.25,2.1,.77,.13,1.58,.23,2.36,.12,.35-.05,.7-.09,1.05-.14,.17-.03,.29,0,.39,.02-.01,.02-.03,.03-.04,.06-.05,.08,.09,.13,.17,.14,.58,.95,1.12,1.93,1.69,2.9,0,0,.02,.02,.02,.02-.07-.57-.2-1.13-.39-1.67-.77-1.5-1.61-2.91-2.74-4.24-.02-.02-.04-.04-.05-.06-.37-1.39-.28-2.86-.58-4.28-.3-1.4-.47-2.92-1-4.26-.53-1.34-.96-2.75-1.66-4-.42-.75-.83-1.5-1.26-2.24,1.77,1.86,3.58,3.67,5.5,5.37,1.31,1.15,2.66,2.2,4.07,3.21,1.72,1.22,3.01,2.63,4.36,4.24,.03,.04,.1,.07,.16,.1-.55-1.09-1.49-1.94-2.26-2.89-.03-.04-.04-.08-.03-.11-.11-.13-.22-.26-.33-.39-.21-.19-.42-.37-.65-.55-1.46-1.16-3-2.19-4.39-3.43-2.9-2.59-5.61-5.38-8.25-8.23-2.76-2.99-5.25-6.2-7.99-9.21-2.69-2.96-5.4-5.9-8.2-8.75-2.71-2.77-5.52-5.37-8.47-7.81l-.02-.02h-.01c-3.05-2.53-6.23-4.88-9.6-7.05-6.35-4.09-12.87-8.09-19.63-11.47,.6,.23,1.18,.49,1.8,.69,.43,.14,.82,.38,1.26,.51,.17,.05,.43,.06,.62,.12,6.45,2.99,12.72,6.31,18.58,10.37,6.31,4.37,12.3,9.22,17.92,14.44,5.64,5.23,10.99,10.8,16.1,16.54,2.42,2.72,4.69,5.56,7.09,8.29,1.05,1.19,2.15,2.32,3.24,3.47,.16,.17,1.12,1.26,1.93,2.25,.51,.47,1.02,.95,1.53,1.42-2.01-2.99-4.76-5.35-7.06-8.11-2.44-2.93-4.76-5.96-7.32-8.79-5.05-5.6-10.33-11.06-15.92-16.12-5.58-5.05-11.47-9.83-17.73-14.01-6.29-4.2-13.02-7.57-19.94-10.6-.06-.02-.09,0-.1,.02-.13-.06-.26-.11-.39-.16-.48-.17-.94-.4-1.42-.58-.29-.11-.53-.23-.84-.21-.07,0-.09,.04-.08,.08-.06-.02-.12,.04-.05,.08,6.86,3.66,13.57,7.78,20.08,12.05,1.63,1.07,3.21,2.17,4.76,3.32-1.9-.98-3.86-1.73-5.9-2.49-1.16-.43-2.55-.6-3.77-.84-.9-.18-2.02-.08-2.95-.24-2.4-2.01-4.86-3.94-7.33-5.86-1.31-1.02-2.62-2.07-4.01-2.98-.76-.49-1.52-.96-2.32-1.38-.37-.19-.95-.2-.82-.65,.03-.09-.18-.17-.21-.09-.03,.1-.06,.19-.09,.29-.02,.05,.04,.09,.08,.11,.04,.02,.07,.04,.11,.05-.07-.01-.12,0-.09,.06,.77,1.49,2.7,2.68,3.89,3.83,1.81,1.75,3.45,3.68,5.06,5.62,3.15,3.8,5.27,7.94,7.03,12.54,.58,1.53,1.17,3.07,1.74,4.62,1.81,3.52,2.47,7.48,3.17,11.34,.01,.07-.02,.12-.06,.15,.17,1.5,.27,3.01,.56,4.51,.26,1.38,.3,2.92,.8,4.24Zm40.73,13.21c-1.46-1.72-2.91-3.44-4.33-5.19-3.25-4-6.36-8.12-9.14-12.47-4.69-7.34-8.68-15.31-14.29-22.01,1.96,1.76,3.87,3.6,5.73,5.51,2.91,3,5.76,6.05,8.53,9.17,2.45,2.76,4.71,5.67,7.23,8.38,.47,.51,.94,1.01,1.42,1.52,.36,.95,1.08,1.9,1.52,2.76,.71,1.4,1.29,2.92,1.76,4.42,.54,1.71,.9,3.54,1.2,5.31,.15,.89,.21,1.75,.38,2.6Zm-7.29,1.07c-.15-.4-.33-.79-.49-1.19-.71-1.72-1.29-3.49-2.07-5.19-1.51-3.26-3.43-6.16-5.73-8.93-.2-.25-.41-.49-.62-.74,.16-.02,.31-.09,.38-.25,.13-.28,.31-.44,.47-.7,.23-.4,.71-.82,.86-1.26,.06-.18,.18-.49,.28-.62,.05-.06-.07-.11-.11-.1-.07,.01-.13,.02-.2,.04-.02,.01-.04,.03-.04,.06,0,.16-.18,.23-.26,.34-.17,.26-.4,.47-.6,.71-.28,.33-.44,.72-.81,.97-.02,.02-.03,.05-.03,.08,.03,.22-.1,.31-.2,.43-2.18-2.56-4.49-5-6.78-7.46-1.95-2.1-3.8-4.28-5.69-6.43,0-.04-.04-.08-.09-.1-.55-.62-1.1-1.24-1.66-1.86-5.3-5.83-10.17-12.11-16.14-17.3-.35-.31-.71-.6-1.07-.9,.69,.11,1.42,.12,2.08,.26,1.22,.27,2.5,.45,3.7,.77,2.57,.7,4.98,1.71,7.36,2.88,2.14,1.61,4.21,3.3,6.22,5.07,5.89,7.08,9.83,15.57,14.83,23.27,2.8,4.32,5.88,8.46,9.14,12.44,1.49,1.83,3.03,3.62,4.54,5.43,.14,.16,.27,.33,.4,.5,.04,.09,.07,.17,.11,.26,.02,.05,.1,.09,.17,.12,.33,.45,.64,.92,.94,1.38-.75-.08-1.72,.21-2.3,.17-2.37-.16-4.51-1.14-6.62-2.17Zm-21.9-19.93s-.03-.03-.05-.05c.74-.51,.92-1.53,.99-2.63,.09-1.38-.05-2.78-.24-4.16-.05-.37-.47-1.98-.54-2.86,1.63,1.87,3.23,3.77,4.92,5.59,2.56,2.75,5.18,5.46,7.58,8.36,2.39,2.88,4.51,5.84,6.04,9.27,.27,.61,.53,1.23,.77,1.85-.75,.15-1.8-.39-2.58-.46-1.6-.14-3.16-.45-4.75-.69-2.49-.37-5.16-.55-7.61-1.17-.53-1.76-1.02-3.53-1.63-5.26-.49-1.4-.96-2.84-1.56-4.19-.52-1.18-.78-2.46-1.36-3.61Zm-13.26-7.62c-1.17-4.32-2.74-8.52-4.35-12.7-1.63-4.23-3.79-8.04-6.73-11.5-1.4-1.65-2.82-3.33-4.37-4.84-.86-.83-1.75-1.62-2.63-2.42-.69-.62-1.72-1.31-2.17-2.12h0c3.11,1.54,5.77,3.88,8.48,6.03,1.78,1.42,3.55,2.86,5.29,4.34,.01,.03,.04,.06,.09,.08h.01c.99,.85,1.98,1.71,2.95,2.59,5.4,4.9,9.87,10.72,14.76,16.09,.62,.68,1.23,1.37,1.83,2.06,.32,1.98,.53,3.97,.59,5.97,.02,.8,.03,1.85-.23,2.61-.57,1.66-2.26,1.34-3.49,.62-3.51-2.07-6.95-4.13-10.02-6.82Z"/><g class="b"><path class="s" d="M68.89,54.59c.98-1.35,4.18-1.66,6.46-.89,1.44,.49,3.6,1.43,6.19,2.71-.48-.05-.96-.03-1.39,.1-2.91,.9,1.85,5.48,2.65,6.35,1.51,1.64,3.09,3.22,4.53,4.93,1.46,1.74,2.68,3.6,3.73,5.61,2.04,3.91,3.56,8.04,5.24,12.11,1.56,3.77,3.28,7.54,5.76,10.81,1.26,1.66,2.68,3.21,4.29,4.55,1.69,1.4,3.54,2.59,5.38,3.78,3.9,2.52,7.92,4.94,12.2,6.76,1.82,.77,3.7,1.49,5.66,1.77,1.74,.25,3.78,.32,5.31-.68,3.89-2.53,2.82-7.85,1.42-11.74,4.36,5.26,7.32,10.1,7.25,13.51-.21,9.73-6.35,9.35-19.47,3.92-13.13-5.42-30.77-10.75-34.49-20.39-3.72-9.64-8.91-28.25-13.38-33.7-1.81-2.21-3.96-4.05-6.04-5.99-1.66-1.54-1.87-2.72-1.28-3.53Z"/></g><path class="a`" d="M67.82,57.38c1.44,.8,3.05,.68,4.41-.23,1.1-.74,4.17-2.93,3.15-4.62-1.16-1.93-3.55-2.21-5.59-2.21-1.66,0-4.82-.46-5.88,1.23-.26,.41-.37,.83-.37,1.23,0,2.23,2.61,3.68,4.29,4.61Z"/></g></g></g></g></g></g></svg>