<?xml version="1.0" encoding="UTF-8"?><svg id="a" xmlns="http://www.w3.org/2000/svg" viewBox="0 0 216.92 173.89"><defs><style>.b{fill:#fff;}.c{opacity:.5;}.d{fill:#ce1527;}.e{fill:#c4121b;}.f{fill:#d8dc3a;}.g{fill:#d82a2b;}.h{fill:#0b4712;}.i{fill:#feffff;}.j{fill:#052d05;}.k{fill:#330e0b;}.l{fill:#511918;}.m{fill:#063508;}.n{fill:#6da541;}.o{fill:#a06665;}.p{fill:#5c8c31;}.q{fill:#547c29;}.r{fill:#e8363f;}.s{fill:#c6d62b;}</style></defs><path class="c" d="M138.36,170.89c-5.85,0-15.59-.9-29.21-5.08-1.35,.48-2.68,.91-3.97,1.29-5.12,1.51-10.39,2.5-15.66,2.92-1.99,.16-4,.24-6,.24-3.39,0-6.8-.24-10.15-.7l-.7-.1c-1.56-.23-3.13-.51-4.66-.84-1.59-.34-3.22-.74-4.81-1.2-2.2-.63-4.4-1.37-6.54-2.2-2.93-1.14-5.81-2.48-8.56-3.97-1.48-.81-2.93-1.66-4.3-2.53-1.54-.97-3.09-2.04-4.61-3.18l-.29-.22c-5.84-4.4-11.04-9.68-15.42-15.68-.81-1.1-1.61-2.26-2.37-3.43-.74-1.13-1.47-2.32-2.17-3.53-4.48-7.73-7.64-16.18-9.38-25.11-3.09-15.79-1.57-32.22,4.38-47.54,.01-.03,.02-.06,.04-.09h0c7.72-19.78,22.12-35.81,40.55-45.14,1.33-.67,2.66-1.29,3.95-1.83,.93-.39,1.9-.77,2.95-1.16,.26-.1,.52-.18,.78-.27l.32-.11c.62-.21,1.25-.43,1.89-.62,.32-.1,.64-.19,.95-.28l.33-.09c.58-.16,1.16-.33,1.74-.47,.42-.11,.84-.2,1.25-.3l.45-.11c.24-.06,.47-.11,.71-.16,.16-.03,.31-.06,.46-.09,0,0,.09-.02,.1-.02,.68-.14,1.36-.26,2.04-.37l.16-.03c.39-.07,.79-.13,1.18-.19,.71-.1,1.42-.19,2.13-.26l.3-.04c.32-.04,.65-.08,.97-.11,.78-.07,1.56-.12,2.35-.16l.33-.02c.24-.02,.48-.03,.72-.04,.95-.04,1.89-.06,2.84-.06h.58c4.67,.04,9.54,.56,14.47,1.54,2.28,.45,4.6,1.01,6.91,1.66,2.74,.77,5.57,1.69,8.39,2.74,.49,.18,1,.37,1.5,.57,1.76,.69,3.46,1.4,5.08,2.12,1.94,.86,3.87,1.8,5.74,2.78,1.55,.82,3.04,1.65,4.44,2.49,6.29,3.77,11.81,8.16,16.38,13.06l.06,.07c5.47,5.86,9.71,12.57,12.6,19.94,.12,.31,.25,.65,.38,.99,4.22,11.3,5.92,23.59,4.96,35.82l44.72,6.42c1.32,.19,2.5,.89,3.3,1.96,.79,1.07,1.13,2.41,.94,3.72-.79,5.28-2.1,10.48-3.92,15.45-.21,.59-.43,1.17-.66,1.75-2.11,6.31-5.54,11.74-8.31,15.78-.36,.57-.74,1.12-1.12,1.66-2.26,3.22-4.92,6.25-8.15,9.25-.42,.4-.91,.87-1.41,1.33-2.36,2.19-4.76,4.21-7.44,6.44-.1,.09-.21,.17-.32,.25-.08,.06-.15,.12-.22,.17-.58,.41-1.18,.8-1.78,1.18-.17,.1-.39,.26-.67,.45-3.29,2.22-13.31,8.99-29.76,11.83-.29,.05-.56,.11-.84,.17l-.67,.14c-1.84,.36-3.49,.65-5.07,.88-.6,.09-2.33,.31-5.18,.31Z"/><path class="b" d="M133.36,165.89c-5.85,0-15.59-.9-29.21-5.08-1.35,.48-2.68,.91-3.97,1.29-5.12,1.51-10.39,2.5-15.66,2.92-1.99,.16-4,.24-6,.24-3.39,0-6.8-.24-10.15-.7l-.7-.1c-1.56-.23-3.13-.51-4.66-.84-1.59-.34-3.22-.74-4.81-1.2-2.2-.63-4.4-1.37-6.54-2.2-2.93-1.14-5.81-2.48-8.56-3.97-1.48-.81-2.93-1.66-4.3-2.53-1.54-.97-3.09-2.04-4.61-3.18l-.29-.22c-5.84-4.4-11.04-9.68-15.42-15.68-.81-1.1-1.61-2.26-2.37-3.43-.74-1.13-1.47-2.32-2.17-3.53-4.48-7.73-7.64-16.18-9.38-25.11-3.09-15.79-1.57-32.22,4.38-47.54,.01-.03,.02-.06,.04-.09h0C16.69,35.15,31.09,19.11,49.52,9.78c1.33-.67,2.66-1.29,3.95-1.83,.93-.39,1.9-.77,2.95-1.16,.26-.1,.52-.18,.78-.27l.32-.11c.62-.21,1.25-.43,1.89-.62,.32-.1,.64-.19,.95-.28l.33-.09c.58-.16,1.16-.33,1.74-.47,.42-.11,.84-.2,1.25-.3l.45-.11c.24-.06,.47-.11,.71-.16,.16-.03,.31-.06,.46-.09,0,0,.09-.02,.1-.02,.68-.14,1.36-.26,2.04-.37l.16-.03c.39-.07,.79-.13,1.18-.19,.71-.1,1.42-.19,2.13-.26l.3-.04c.32-.04,.65-.08,.97-.11,.78-.07,1.56-.12,2.35-.16l.33-.02c.24-.02,.48-.03,.72-.04,.95-.04,1.89-.06,2.84-.06h.58c4.67,.04,9.54,.56,14.47,1.54,2.28,.45,4.6,1.01,6.91,1.66,2.74,.77,5.57,1.69,8.39,2.74,.49,.18,1,.37,1.5,.57,1.76,.69,3.46,1.4,5.08,2.12,1.94,.86,3.87,1.8,5.74,2.78,1.55,.82,3.04,1.65,4.44,2.49,6.29,3.77,11.81,8.16,16.38,13.06l.06,.07c5.47,5.86,9.71,12.57,12.6,19.94,.12,.31,.25,.65,.38,.99,4.22,11.3,5.92,23.59,4.96,35.82l44.72,6.42c1.32,.19,2.5,.89,3.3,1.96,.79,1.07,1.13,2.41,.94,3.72-.79,5.28-2.1,10.48-3.92,15.45-.21,.59-.43,1.17-.66,1.75-2.11,6.31-5.54,11.74-8.31,15.78-.36,.57-.74,1.12-1.12,1.66-2.26,3.22-4.92,6.25-8.15,9.25-.42,.4-.91,.87-1.41,1.33-2.36,2.19-4.76,4.21-7.44,6.44-.1,.09-.21,.17-.32,.25-.08,.06-.15,.12-.22,.17-.58,.41-1.18,.8-1.78,1.18-.17,.1-.39,.26-.67,.45-3.29,2.22-13.31,8.99-29.76,11.83-.29,.05-.56,.11-.84,.17l-.67,.14c-1.84,.36-3.49,.65-5.07,.88-.6,.09-2.33,.31-5.18,.31Z"/><g><g><path class="j" d="M149.58,109.7c-1.84,4.74-4.08,9.22-6.65,13.39-7.15,11.62-16.88,20.9-27.99,27.29-5.13,2.95-10.56,5.28-16.17,6.93-4.78,1.41-9.68,2.33-14.65,2.73-4.99,.4-10.03,.27-15.06-.43-.22-.03-.44-.06-.66-.1-1.45-.21-2.89-.47-4.33-.78-1.5-.32-3-.69-4.49-1.12-2.04-.58-4.08-1.27-6.1-2.05-2.77-1.08-5.44-2.32-7.99-3.7-1.37-.75-2.71-1.53-4.01-2.36-1.48-.93-2.91-1.92-4.3-2.96-.08-.06-.17-.13-.25-.19-5.54-4.17-10.37-9.12-14.42-14.66-.77-1.05-1.51-2.12-2.22-3.21-.71-1.08-1.38-2.19-2.03-3.31h0c-4.18-7.22-7.16-15.19-8.8-23.57h0c-2.81-14.34-1.67-29.86,4.13-44.77l.03-.08h0c7.53-19.3,21.49-34.06,38.15-42.5,1.2-.61,2.41-1.17,3.63-1.69,3.43-1.45,6.93-2.53,10.47-3.28,4.3-.91,8.67-1.31,13.08-1.27,4.48,.04,9,.54,13.54,1.44,2.17,.43,4.35,.95,6.53,1.57,2.66,.74,5.33,1.62,7.99,2.61,.48,.18,.96,.36,1.44,.55,1.64,.64,3.26,1.31,4.84,2.02,1.87,.83,3.68,1.71,5.45,2.64,1.43,.75,2.83,1.54,4.19,2.35,5.78,3.46,10.96,7.52,15.36,12.25h0c4.91,5.26,8.85,11.35,11.6,18.36,.12,.3,.24,.6,.35,.91,6.53,17.45,6.81,37.73-.68,57Z"/><path class="h" d="M140.12,105.85c-1.76,4.52-3.89,8.78-6.33,12.76-.94,1.53-1.93,3.01-2.96,4.45-6.44,9-14.59,16.3-23.72,21.55-2,1.15-4.06,2.21-6.15,3.15-3.01,1.37-6.1,2.52-9.26,3.45-.41,.12-.82,.24-1.23,.35-4.16,1.15-8.42,1.91-12.72,2.25-1.43,.11-2.86,.18-4.29,.2-3.35,.05-6.71-.15-10.06-.61-.21-.03-.42-.06-.63-.09-.27-.04-.55-.08-.82-.13-1.1-.18-2.21-.38-3.31-.62-1.43-.31-2.86-.66-4.28-1.07-1.95-.55-3.89-1.21-5.81-1.95-.62-.24-1.23-.49-1.83-.74-1.99-.84-3.92-1.77-5.78-2.79-1.07-.58-2.12-1.19-3.14-1.82-.23-.14-.45-.28-.68-.43-1.41-.89-2.77-1.83-4.09-2.82-.08-.06-.16-.12-.24-.18-4.72-3.55-8.89-7.7-12.48-12.3-.71-1.08-1.38-2.19-2.03-3.31h0c-4.18-7.22-7.16-15.19-8.8-23.57h0c-2.81-14.34-1.67-29.86,4.13-44.77l.03-.08h0c7.53-19.3,21.49-34.06,38.15-42.5,1.2-.61,2.41-1.17,3.63-1.69,3.43-1.45,6.93-2.53,10.47-3.28,2.3-.25,4.62-.36,6.94-.34,4.27,.04,8.58,.51,12.9,1.37,2.07,.41,4.15,.91,6.22,1.49,1.62,.45,3.23,.95,4.85,1.5,.92,.31,1.85,.64,2.77,.99,.46,.17,.92,.34,1.37,.52,.04,.02,.08,.03,.11,.04,1.53,.6,3.03,1.22,4.5,1.88,.45,.2,.89,.4,1.33,.61,1.31,.61,2.6,1.25,3.87,1.91,.02,0,.04,.02,.06,.03,1.15,.61,2.28,1.23,3.39,1.89,.18,.11,.36,.22,.55,.32,.54,.33,1.08,.65,1.61,.99,1.83,1.15,3.58,2.38,5.27,3.67,2.8,2.14,5.4,4.48,7.76,7.02h0c1.3,1.4,2.54,2.86,3.69,4.38,2.99,3.94,5.47,8.3,7.36,13.12,.11,.29,.22,.58,.33,.87,.63,1.67,1.19,3.38,1.7,5.1h0c4.5,15.41,4.07,32.7-2.35,49.22Z"/><path class="n" d="M127.5,73.91c-1.5,8,1.73,15.28-3.62,22.32,.13-.17-.25,.64-.23,.56-4.05,9.91-.8,22.24-7.69,32.24-2.25,3.24-5.05,7.29-7.9,10-2.32,2.11-4.9,4.21-6.41,6.96-.34,.6-.55,1.19-.68,1.77-3.01,1.37-6.1,2.52-9.26,3.45-.41,.12-.82,.24-1.23,.35,.36-.58,.62-1.17,.76-1.8,1.61-7.44,7.24-10.69,9.99-17.77,2.09-6.39,2.56-10.96,4.89-17.43,2.05-5.83-1.56-12.64,3.93-17.03,2.05-1.73,2.59-3.96,1.13-6.22-1.68-5.58,1.04-5.77,3.77-10.7,2.24-2.71-2.05-6.64-2.31-9.37-.21-2.34,1.55-4.64,2.5-6.66,1.25-2.65,1.63-4.51-.43-7.25-3.1-4.9,1.72-7.52,.14-11.21-.52-1.56-2.74-10.2-3.24-14.36-.2-1.64-.13-2.59,.41-2.13,.75,.64,1.54,1.48,2.34,2.48,5,6.23,10.52,18.58,9.51,25.81,0,5.53,4.11,10.04,3.63,15.99Z"/><path class="p" d="M63.4,153.41c3.35,.47,6.72,.67,10.06,.61-1.28,1.68-2.92,3.85-4.39,5.59-.22-.03-.44-.06-.66-.1-1.45-.21-2.89-.47-4.33-.78-1.5-.32-3-.69-4.49-1.12,.71-1.33,1.57-2.87,2.37-4.41,.27,.04,.55,.09,.82,.13,.21,.03,.42,.06,.63,.09Z"/><path class="p" d="M100.96,147.76c-.69,3.03,.78,5.87-1.66,8.9-.13,.17-.31,.39-.53,.63-4.78,1.41-9.68,2.33-14.65,2.73,.75-3.15,4.6-5.61,6.34-8.47,.41-.11,.82-.23,1.23-.35,3.15-.93,6.25-2.08,9.26-3.45Z"/><path class="n" d="M106.13,53.45c.09,3.56,1.25,10.71,2.5,13.96,1.16,3.22-3.92,10.41-4.95,13.53-2.27,5.52,1.03,6.25-.96,12.39-1.36,3.09-6.72,3.49-7.22,14.16-.79,12.97-3.92,16.47-7.72,22.68-6.48,10.36-9.66,18.03-12.79,21.88-.39,.48-.92,1.17-1.53,1.97-3.35,.05-6.71-.15-10.06-.61-.21-.03-.42-.06-.63-.09-.27-.04-.55-.08-.82-.13,.77-1.51,1.47-3.03,1.89-4.38,.99-2.73,3.63-4.98,4.48-7.76,1.04-2.54,3.94-3.47,5.35-5.92,2.44-4.23-1.22-12.57,2.36-15.28,4.08-3.12,8.8-2.26,5.75-9.06-1.5-3.26,.84-5.83,2.4-8.35,2.5-4.06-1.92-7.59,.54-11.22,2.56-3.86,3.31-1.84,3.74-6.9,.26-3.38,.76-6.78,2.17-9.88,2.26-4.99,4.53-6.11,4.85-11.52,.32-6.26,1.8-12.55,6.24-18.2,3.68-4.67,3.74-10.84,4.36-14.61,.01-.08,.03-.16,.04-.25,.42-2.4,1-1.41,1.53,.81h0c.88,3.69,1.64,10.78,1.41,11.65-.58,3.65-3,7.4-2.94,11.09Z"/><path class="n" d="M110.81,19.28c-.64,.83-1.17,1.57-1.51,2.18-.02,.03-.04,.07-.05,.1-1.27,2.15-1.92,1.26-2.2-.86-.12-.93-.17-2.11-.16-3.36,1.31,.61,2.6,1.25,3.87,1.91,.02,0,.04,.02,.06,.03Z"/><path class="p" d="M46.72,148.8c-.3,1.14-.68,2.15-1.22,3.05-1.37-.75-2.71-1.53-4.01-2.36-1.48-.93-2.91-1.92-4.3-2.96,.18-.74,.38-1.54,.6-2.33,1.02,.63,2.07,1.24,3.14,1.82,1.86,1.01,3.79,1.95,5.78,2.79Z"/><path class="n" d="M100.84,27.52c-1.6,1.78-5.56,4.84-6.53,8.19-.14,.47-.28,.93-.44,1.38h0c-2.43,7.13-6.94,12.17-10.75,18.27-3.42,5.5-1.71,13.27-7.23,17.53-2.22,1.73-4.65,3.67-5.71,6.35-.6,1.52-.24,3.11,.04,4.65,.32,1.78,.54,3.49-.91,4.93,0,0,0,.01-.02,.02h0s-.02,.02-.03,.03c-.02,.02-.04,.03-.06,.05-6.04,4.59-6.04,8.35-7.3,15.72-1.3,8.16-4.65,9.89-10.17,15.3-3.86,4.25-.27,11.67-2.04,16.65-1.82,5.11-2.14,9.14-2.97,12.23-1.99-.84-3.92-1.77-5.78-2.79-1.07-.58-2.12-1.19-3.14-1.82,.79-2.83,1.77-5.69,2.3-6.39,3.86-5.7-3.75-9.66-1.36-15.81,1.91-4.82,2.73-10.2,4.79-14.61,1.29-2.75,4.68-3.86,5.72-6.63,.83-2.18-.06-4.3-.77-6.45-.48-1.45-.87-2.92-.58-4.43,.56-2.91,5.6-4.08,7.26-6.41,1.95-2.72,2.75-6.07,3.49-9.29,1.48-6.47,3.47-11.67,7.87-16.81,1.93-2.26,3.93-5.61,6-7.59,2.61-2.49,6.79-2.67,8.45-6.02,1.09-2.96,6.22-8.6,11.07-12.76,2.63-2.25,5.17-4.06,6.94-4.77,.54-.22,1.01-.33,1.38-.32,1.52,.03,1.36,.63,.47,1.62Z"/><path class="n" d="M96.8,24.04c-1.5,.8-4.41,1.87-6.99,3.13-1.15,.56-2.23,1.15-3.1,1.77-5.17,3.8-6.97,7.22-12.3,10.76-.72,1.08-1.22,2.25-1.52,3.51-1.2,3.65-4.53,4.89-7.16,7.2-3.57,3.03-6.01,12.34-9.48,15.5,0,0-.01,.01-.02,.02-1.5,.79-2.88,1.75-4.1,2.84-.41,.37-.8,.75-1.18,1.14-1.24,1.25-2.55,2.27-3.37,3.8-.29,.55-.56,1.1-.82,1.66-.26,.56-.52,1.13-.84,1.69-.41,.51-.81,1.02-1.2,1.53-.39,.51-.78,1.03-1.16,1.55-3,4.14-5.88,8.37-8.06,13-.24,.55-.61,1.06-1.03,1.55-1.21,1.41-2.85,2.73-3.16,4.78-.12,.62-.21,1.25-.27,1.9-.4,3.89-.17,7.98-4.14,11.91-3.57,3.65-4.26,4.84-3.34,11.15,.32,2.19,0,5.02-1.02,7.24-1.53-2.09-2.95-4.27-4.25-6.52h0c.1-1.52,.26-3.13,.49-4.75,.92-7.62,3.2-15.47,3.15-17.09-.27-5.5-.72-8.92,2.19-13.4,.06-.09,.11-.17,.17-.26,.48-.7,.94-1.48,1.37-2.29,1.77-4.89,4.67-9.14,7.1-13.62,1.32-2.27,1.94-4.8,2.33-7.31,.11-.76,.2-1.52,.27-2.31,.03-1.5,.94-2.79,2.22-3.29,.87-.43,1.67-.75,2.39-1.02,5.15-1.88,6.71,.19,7.78-7.42,.76-5.04,3.85-8.72,9.12-9.92,7.75-1.69,9.16-5.31,13.61-11.03,2.45-3.34,9.08-6.63,15.53-8.21,3.67-.9,7.29-1.25,10.05-.74,.52,.09,1,.22,1.46,.38,.67,.26,.28,.66-.69,1.17Z"/><path class="n" d="M96.29,21.06s-.04-.01-.06-.02c-1.57-.4-9.18-1.12-14.72-.5-1.53,.17-2.91,.44-3.95,.86-3.23,1.27-6.02,1.98-7.69,1.84-6.99-.08-10.74,4.86-16.31,7.26-4.83,2.21-5.32,4.44-8.95,8.25-2.22,2.41-4.85,4.35-7.49,6.25-3.89,2.91-2.04,2.42-4.04,6.3-1.75,3.69-6.24,2.71-8.11,6.98-1.13,2.65-1.77,5.81-4.7,7.07-6.08,2.8-3.12,5.33-2.8,10.01,.07,.79-.15,1.6-.54,2.42-1.59,3.34-6.12,6.94-6.64,10.97-.38,2.85,1.02,5.17,.55,7.89-.41,1.64-.93,3.29-1.37,4.96-2.81-14.34-1.67-29.85,4.13-44.77l.03-.08h0c.78-.91,1.63-1.86,2.58-2.86,7.87-7.55,6.38-11.36,8.48-14.34,4.61-5.1,6.3-3.02,10.53-7.6,2.4-2.41,8.02-9.67,11.49-10.02,3.4-.41,10.67-1.75,14.2-2.86,19.36-6.06,27.96-.24,31.84-.08,1.65,.04,3.35,.65,4.42,1.24,1.45,.8,1.73,1.56-.88,.84Z"/><path class="n" d="M103.39,19.86c.11,.99-.21,1.27-1.01-.14-.1-.17-.2-.37-.32-.6-.4-.8-2.57-3.23-5.25-5.82,.92,.31,1.85,.64,2.77,.99,.46,.17,.92,.34,1.37,.52,.04,.02,.08,.03,.11,.04,.06,.09,.12,.17,.19,.25,1.28,1.5,2.01,3.61,2.14,4.76Z"/><path class="p" d="M147.7,98.39c.14,2.92,2.83,6.67,1.77,9.61-1.38,3.76-5.21,4.8-6.34,8.65-.65,2.11-.15,4.24-.19,6.43-7.15,11.62-16.88,20.9-27.99,27.29,.03-.05,.06-.1,.09-.14,1.99-3.12,4.17-6.29,5.05-7.53,3.04-4.15,9.66-6.99,10.44-12.61,.21-2.82,.2-5.01,.32-7.03,1.03-1.44,2.02-2.92,2.96-4.45,2.45-3.97,4.58-8.24,6.33-12.76,6.42-16.52,6.85-33.8,2.35-49.22,.71,.76,1.37,1.58,1.9,2.57,1.4,2.62,2.39,6.63,3.38,9.56,2.27,6.69,2.28,12.67,1.1,19.4-.59,3.35-1.31,6.79-1.16,10.23Z"/><path class="n" d="M140.12,105.85c-1.76,4.52-3.89,8.78-6.33,12.76-.94,1.53-1.93,3.01-2.96,4.45,.18-3.31,.66-6.13,2.83-10.45,2.96-6.39,4.68-9.68,2.54-16.36,0-.01,0-.03,0-.04-.76-3.47,2.71-5.14,2.94-8.57,.17-2.8-.96-5.5-2.08-7.86-2.81-5.76-1.17-10.68-2.97-16.81-2.27-7.19-4.95-11.11-7.76-18.64-1.87-5-6.13-9.58-8.87-12.41-1.86-1.92-3.03-3.04-2.26-2.93,.83,.13,2.33,.88,4.11,1.99,4.57,2.85,11.01,8.05,12.86,10.92,2.63,3.99,5.31,6.22,5.97,8.91,.8,2.6,2.66,4.04,4.31,5.81h0c4.5,15.41,4.07,32.7-2.35,49.22Z"/><path class="p" d="M108.47,14.16c1.64,.64,3.26,1.31,4.84,2.02-.9,1.1-1.77,2.16-2.5,3.1-.02-.01-.04-.02-.06-.03-1.26-.66-2.55-1.3-3.87-1.91,0-1.21,.06-2.5,.14-3.72,.48,.18,.96,.36,1.44,.55Z"/><path class="p" d="M122.95,21.18c-2.39,.3-4.68,.81-6.6,1.3-.53-.34-1.07-.66-1.61-.99-.18-.11-.37-.22-.55-.32,1.3-.75,2.88-1.56,4.56-2.34,1.43,.75,2.83,1.54,4.19,2.35Z"/><path class="p" d="M99.03,11.01c.82,1.67,1.4,2.99,2.02,3.85-.04-.02-.08-.03-.11-.04-.46-.18-.92-.35-1.37-.52-.92-.34-1.85-.67-2.77-.99-1.36-1.31-2.85-2.67-4.3-3.86,2.17,.43,4.35,.95,6.53,1.57Z"/><path class="n" d="M116.36,22.48c-1.16,.29-2.18,.58-3.02,.81-1.73,.46-2.65,.67-2.27,.17,.19-.25,.51-.54,.92-.86,.57-.43,1.33-.92,2.21-1.44,.18,.11,.36,.22,.55,.32,.54,.33,1.08,.65,1.61,.99Z"/><path class="p" d="M149.92,51.79c-.2-.06-.41-.12-.62-.2-3.82-1.27-5.13-9.3-9.5-11.87-2.21-1.31-4.58-1.15-6.72-2.17-1.16-1.52-2.39-2.98-3.69-4.38h0c-2.36-2.54-4.96-4.87-7.76-7.02,2.41,.65,4.78,1.42,6.24,2,2.56,.79,6.16,2.67,10.45,5.27h0c4.91,5.26,8.85,11.35,11.6,18.36Z"/><path class="n" d="M133.08,37.55c-.26-.12-.51-.26-.75-.42-2.34-1.76-4.54-3.85-7.16-5.36-2.19-1.28-4.08-2.32-5.65-3.16-5.9-3.14-7.51-3.51-5.13-3.7,.46-.03,1.03,0,1.69,.08,1.56,.18,3.57,.63,5.56,1.17,2.8,2.14,5.4,4.48,7.76,7.02h0c1.3,1.4,2.54,2.86,3.69,4.38Z"/><path class="n" d="M100.2,20.32c-.14,.13-.62-.15-1.41-.59-1-.54-2.5-1.32-4.5-1.8-3.59-.9-7.28-1.96-8.74-2.4-4.9-1.57-12.59-5.23-18.16-4.18-6.27,1.6-6.92,1.88-11.98,1.21,7.6-3.21,15.5-4.62,23.55-4.55,4.53,2.09,8.36,4.68,12.53,5.39,3.77,.64,8.14,4.48,8.76,6.22,.11,.31,.1,.56-.06,.7Z"/><path class="j" d="M119.68,30.41c-.08,.21-.2,.4-.35,.57-1.78-1.11-3.27-1.87-4.11-1.99-.77-.11,.39,1.01,2.26,2.93-.86,.2-1.91,.26-3.12,.19-.8-1-1.59-1.84-2.34-2.48-.54-.47-.61,.48-.41,2.13-1.25-.24-2.58-.59-3.95-1.05h0c-.53-2.23-1.1-3.21-1.53-.82-.01,.08-.03,.16-.04,.25-1.96-.76-3.74-1.66-5.24-2.61,.89-.99,1.05-1.59-.47-1.62-.38,0-.84,.11-1.38,.32-.93-.73-1.67-1.47-2.19-2.18,.97-.51,1.36-.91,.69-1.17-.45-.16-.94-.28-1.46-.38-.1-.42-.08-.81,.06-1.17,.04-.1,.09-.2,.14-.29,.02,0,.04,.01,.06,.02,2.61,.72,2.33-.04,.88-.84,.44-.22,.98-.39,1.61-.49,.79,.43,1.26,.72,1.41,.59,.16-.15,.17-.39,.06-.7,.65-.01,1.36,.03,2.12,.11,.8,1.41,1.13,1.13,1.01,.14,1.15,.18,2.38,.46,3.66,.85,.27,2.12,.92,3.01,2.2,.86,.02-.03,.04-.07,.05-.1,.08,.03,.16,.06,.25,.09,.85,.33,1.67,.68,2.44,1.05-.41,.32-.73,.61-.92,.86-.38,.5,.54,.29,2.27-.17,1.01,.54,1.92,1.11,2.73,1.69-.66-.08-1.23-.11-1.69-.08-2.38,.19-.76,.56,5.13,3.7,.31,.66,.37,1.27,.17,1.81Z"/><path class="q" d="M113.34,23.29c-1.73,.46-2.65,.67-2.27,.17,.19-.25,.51-.54,.92-.86,.46,.22,.92,.45,1.35,.68Z"/><path class="q" d="M96.8,24.04c-.39-.54-.65-1.06-.76-1.55,.52,.09,1,.22,1.46,.38,.67,.26,.28,.66-.69,1.17Z"/><path class="q" d="M96.29,21.06s-.04-.01-.06-.02c.2-.33,.52-.61,.94-.82,1.45,.8,1.73,1.56-.88,.84Z"/><path class="q" d="M100.84,27.52c-.68-.43-1.3-.86-1.85-1.3,.54-.22,1.01-.33,1.38-.32,1.52,.03,1.36,.63,.47,1.62Z"/><path class="q" d="M98.79,19.73c.45-.07,.94-.11,1.47-.12,.11,.31,.1,.56-.06,.7-.14,.13-.62-.15-1.41-.59Z"/><path class="q" d="M102.37,19.72c.33,.04,.67,.08,1.01,.14,.11,.99-.21,1.27-1.01-.14Z"/><path class="q" d="M107.65,30.7c-.47-.16-.95-.33-1.43-.51-.05-.02-.09-.03-.14-.05,.01-.08,.03-.16,.04-.25,.42-2.4,1-1.41,1.53,.81Z"/><path class="m" d="M107.05,20.71c.74,.22,1.49,.47,2.25,.76-.02,.03-.04,.07-.05,.1-1.27,2.15-1.92,1.26-2.2-.86Z"/><path class="q" d="M112.02,29.62c.75,.64,1.54,1.48,2.34,2.48-.85-.05-1.78-.17-2.75-.36-.2-1.64-.13-2.59,.41-2.13Z"/><path class="q" d="M119.51,28.61c-5.9-3.14-7.51-3.51-5.13-3.7,.46-.03,1.03,0,1.69,.08,1.71,1.22,2.92,2.49,3.44,3.62Z"/><path class="q" d="M115.22,28.99c.83,.13,2.33,.88,4.11,1.99-.4,.44-1.03,.75-1.85,.94-1.86-1.92-3.03-3.04-2.26-2.93Z"/></g><g><g><path class="j" d="M203.92,98.14c-.75,5.03-1.99,9.87-3.67,14.47-.22,.59-.44,1.17-.67,1.75-1.75,5.31-4.55,10.03-7.77,14.72-.34,.53-.69,1.05-1.04,1.56-2.14,3.05-4.64,5.83-7.46,8.45-.46,.45-.93,.89-1.4,1.32-2.35,2.18-4.82,4.25-7.24,6.27-.52,.36-1.04,.71-1.57,1.04-2.13,1.34-11.61,8.64-28.62,11.58-.55,.09-1.08,.22-1.63,.33-1.62,.32-3.23,.6-4.83,.84-.48,.07-12.81,1.98-36.12-5.88-6.12-2.07-11.4-5.92-16.33-9.86-.52-.41-1.03-.84-1.54-1.26-1.6-1.53-3.14-3.13-4.65-4.75-.38-.41-.76-.81-1.13-1.22-.35-.41-.7-.81-1.06-1.22-.36-.4-.72-.81-1.08-1.21-.36-.43-.72-.86-1.07-1.3-.35-.44-.7-.87-1.04-1.32-1.27-1.47-2.52-2.96-3.7-4.49-.39-.51-.78-1.03-1.16-1.56-.98-1.18-8.65-16.68-9.36-22.94-.07-.65-.25-1.29-.36-1.95-.75-3.54-1.39-7.11-1.66-10.7-.05-.6-.08-1.2-.1-1.8-.08-3.14,.15-6.26,.57-9.37,.09-.63,.18-1.26,.28-1.91,.02-.16,.04-.32,.06-.48l145.37,20.88Z"/><path class="f" d="M200.77,100.03c-.08,.45-.16,.88-.25,1.32-.26,1.31-.56,2.6-.9,3.88-.17,.64-.34,1.28-.52,1.91-.16,.61-.33,1.23-.52,1.84-.73,1.55-1.4,3.13-2.08,4.72-.22,.53-.45,1.06-.67,1.59-2.25,5.71-5.32,11.1-9.15,15.89-.31,.41-.62,.82-.93,1.23-.31,.41-.63,.82-.94,1.22-.38,.47-.77,.94-1.16,1.41-1.17,1.4-2.39,2.78-3.64,4.13-.41,.4-.82,.78-1.25,1.16-2.14,1.88-19.25,12.67-20.35,12.68-.53,.13-1.08,.24-1.62,.33-2.74,.46-12.46,3.45-14.03,3.68-.69,.12-1.38,.22-2.08,.31-4.16,.55-8.43,.74-12.74,.53-.37-.02-.73-.04-1.1-.06-5.23-1.25-10.66-1.95-15.96-3.21-.59-.14-1.17-.31-1.77-.44-4.69-1.04-12.63-3.67-17.86-8.01-.48-.36-.95-.73-1.42-1.09-.47-.36-.95-.73-1.42-1.09-.51-.42-1-.84-1.48-1.27-1.94-1.73-3.77-3.62-5.6-5.51-.46-.46-.91-.92-1.35-1.39-.88-.94-1.74-1.89-2.56-2.87-.45-.53-.89-1.07-1.32-1.61-1.22-1.64-2.21-3.26-3.12-5.17-.18-.38-.36-.77-.54-1.18-1.21-1.5-2.33-3.05-3.33-4.65-.34-.54-.66-1.08-.98-1.65-.87-1.79-1.69-3.62-2.45-5.47-.25-.62-.5-1.24-.74-1.86-.92-3.07-2.01-6.1-2.88-9.16-.17-.62-.33-1.24-.47-1.86-.99-6.01-1.01-12.01-.68-17.95,.04-.56,.09-1.12,.14-1.68,.09-1,.21-2.01,.35-3.01l139.78,20.08c-.03,.77-.26,1.56-.4,2.29Z"/><path class="i" d="M194.76,110.72c-.26,.55-.54,1.09-.84,1.62-.89,1.6-1.93,3.15-3.08,4.66-.3,.54-.59,1.09-.89,1.63-.98,1.81-1.95,3.62-2.91,5.44-.24,.45-.48,.91-.72,1.37-.57,1.15-1.19,2.26-1.86,3.32-.33,.53-.68,1.06-1.04,1.57-1.75,2.38-3.77,4.55-5.97,6.5-.44,.39-.89,.77-1.34,1.15-.62,.71-1.58,1.28-2.35,1.7-2.21,1.16-4.32,2.32-6.35,3.49-.51,.29-5.51,5.75-18.28,8.99-.46,.12-.92,.24-1.38,.34-.46,.1-.92,.18-1.39,.24-.56,.12-1.12,.25-1.67,.36-2.69,.59-5.4,1.01-8.14,1.21-.59,.04-1.18,.08-1.77,.1-4.13,.18-8.26-.07-12.3-.53-.63-.08-1.25-.16-1.87-.25-5.53-.82-10.96-2.35-15.65-5.2-.49-.27-.99-.53-1.48-.78-3.45-1.75-7.04-3.09-10.5-4.61-.51-.29-.99-.59-1.47-.91-4.23-2.85-7.37-6.98-10.62-11.01-.38-.44-.76-.88-1.14-1.32-1.13-1.32-2.26-2.63-3.38-3.91-.31-.53-.61-1.06-.9-1.59-.3-.53-.59-1.06-.89-1.59-.29-.53-.58-1.06-.87-1.6-1.05-2.22-2.2-4.41-3.3-6.62-.28-.55-.55-1.11-.8-1.68-.43-1.03-.83-1.97-.87-2.86-.26-1.89-.63-3.67-1.09-5.41-.16-.58-.32-1.15-.5-1.74-1.06-2.08-1.84-4.21-2.37-6.37-.13-.54-.25-1.08-.35-1.63-.27-.88-.29-1.94-.14-2.98,0-4.7,1.06-8.93,.72-13.65l132.59,19.04c-.8,4.54-.65,9.35-2.85,13.49Z"/><path class="g" d="M186.68,107.73c-.21,.43-.19,.93-.29,1.4-.47,2.32-.96,4.57-2.42,6.49-.33,.51-.68,1.02-1.04,1.51-1.09,1.49-2.28,2.91-3.44,4.34-.3,.44-.6,.88-.89,1.32-.87,1.33-1.66,2.71-2.3,4.2-.54,1.33-1.58,2.42-2.85,3.2-.49,.39-.99,.76-1.5,1.13-1.53,1.11-5.29,4.37-5.67,4.85-.43,.39-.88,.74-1.33,1.07-3.19,2.28-7.07,3.59-10.67,5.28-.56,.29-1.11,.57-1.66,.84-1.11,.54-2.24,1.03-3.39,1.46-.59,.15-1.19,.27-1.79,.38-1.2,.21-2.43,.35-3.69,.42-.68,.09-1.34,.18-2,.26-1.96,.24-3.93,.42-5.88,.64-.56,.08-1.11,.15-1.67,.22-1.67,.2-3.35,.36-5.02,.46-.66-.03-1.32-.08-1.97-.16-2.6-.31-5.12-1.02-7.49-2.32-.55-.21-1.09-.42-1.64-.61-2.84-1-5.76-1.69-8.77-2.29-.5-.1-1.01-.2-1.52-.3-2.94-.35-5.59-1.3-8-2.68-.48-.28-.95-.57-1.41-.86-.29-.18-.64-.35-.97-.54-.34-.19-.56-.53-.88-.71-7.47-4.1-13.79-12.22-13.99-12.69-.98-2.34-4.9-8.84-5.2-9.37-2.57-3.04-2.79-6.92-3.69-10.67-.13-.54-.24-1.08-.33-1.65-.46-1.77-.93-3.53-1.31-5.31-.13-.59-.24-1.18-.35-1.77-.27-.98-.29-2.05-.32-3.11-.02-2.95,.79-5.65,1.13-8.4,.07-.55,.11-1.11,.13-1.67-.13-.95-.18-1.89-.17-2.82l117.53,16.88c-.63,3.4-1.74,8.4-3.26,11.6Z"/><path class="r" d="M182.54,96.75c-.1,.42-.24,.83-.4,1.23-.83,2.02-2.36,3.84-3.43,5.65-.21,.32-.42,.64-.61,.97-.19,.33-.36,.67-.5,1.04-.84,2.17-.08,4.23-.03,6.35,.07,.72-.35,1.19-.62,1.84-.28,.28-.58,.52-.89,.75-2.15,1.59-4.78,2.35-5.87,4.78-.19,.36-.38,.73-.56,1.1-.56,1.11-1.09,2.24-1.64,3.4-.27,.31-.56,.61-.86,.88-1.81,1.67-4.13,2.78-6.4,4-.35,.29-.7,.58-1.05,.88-1.05,.91-2.08,1.88-3.09,3.01-.22,.32-.82,.77-1.58,1.01-.4,.19-.82,.35-1.24,.5-2.12,.73-4.49,1.05-6.76,1.69-.41,.12-.83,.22-1.25,.3-.41,.11-.82,.22-1.23,.32-.34,.09-.69,.17-1.03,.25-.35,.08-.69,.16-1.04,.24-5.44,2.93-11.17,1.04-16.74,1.05-.46,0-.91,0-1.36-.03-4.46-.19-8.72-1.54-12.93-3.23-.38-.15-.77-.31-1.15-.47-2.92-1.83-5.14-4.8-8.3-5.84-.34-.08-.68-.15-1.03-.23-1.04-.22-2.09-.44-3.09-.84-1.47-.52-2.71-1.37-3.74-2.48-.51-.55-.97-1.17-1.37-1.85-1.11-1.52-1.21-3.29-1.65-5.12-.39-2.17-2.07-4-4.18-4.83-.38-.17-.74-.35-1.08-.58-.34-.22-.65-.47-.91-.78-.43-3.03-1.97-5.52-3.14-8.18-.17-.38-.32-.76-.46-1.16-.44-.6-.51-1.32-.24-1.98,.97-3.32,1.28-6.22,.69-9.15-.09-.42-.19-.84-.31-1.27-1.58-3.08-2.08-6.32-1.61-9.5,0-.06,.02-.13,.03-.19l102.84,14.77c0,.59-.08,1.17-.18,1.66Z"/><path class="g" d="M170.32,94.15c-.12,.35-.27,.69-.43,1.03-.48,1.02-1.08,2.02-1.34,3.09-.16,.46-.31,.91-.48,1.34-1.02,3.01-3.27,5.43-7.08,6.12-.74,.25-1.21,1.06-1.51,1.9-.09,.43-.13,.86-.14,1.29-.06,2.15,.63,4.3-.24,6.19-.23,.47-.51,.84-.82,1.16-.82,.81-1.86,1.26-2.99,1.58-.38,.11-.76,.2-1.16,.29-4.89-1.92-8.08,.63-10.33,4.9-.47,.53-1.02,.99-1.73,1.33-.2,.19-.44,.3-.7,.36-.38,.08-.82,.04-1.25-.04-1.87-.2-3.57-1.04-5.29-1.78-.34-.15-.69-.29-1.04-.43-.75-.45-1.61-.58-2.18-.31-3.31,1.5-5.86,3.2-8.48,2.64-.37-.09-.75-.23-1.12-.47-.79-.92-1.53-2.04-2.31-3.1-.26-.35-.53-.7-.81-1.02-2.01-2.47-5.64-1.75-8.53-1.29-1.37,.17-2.53-1.16-3.41-2.77-.18-.32-.34-.66-.5-.99-1.07-4.55-4.14-9.05-9.1-10.12-.55-.17-.96-.39-1.25-.66-.53-.48-.6-1.19-.68-1.91,.08-2.99,1.39-5.98,.7-8.55-.12-.37-.23-.73-.33-1.09-.11-.39-.21-.77-.3-1.15-.98-2.58-.06-5.27-.18-8.11,0-.27-.09-.52-.21-.77-.05-.11-.11-.22-.18-.33l75.6,10.86c-.02,.26-.07,.53-.21,.81Z"/><path class="r" d="M149.52,99.09c-.53,.47-2.02,.55-2.83,1.2-.33,.13-.65,.25-.96,.4-1.83,.84-2.97,2.39-2.95,5.26-.05,.35-.59,.44-.94,.39-.47-.18-.91-.28-1.33-.31-2.97,.75-4.99-2.36-7.83-2.24-.33,.04-.61,.15-.86,.31-.25,.16-.46,.37-.66,.62-1.05,1-1.77,3.54-2.86,2.5-2.59-2.84-4.57-3.83-8.25-4.01-1.24,0,.89-2.52,.69-4.29-.05-.28-.2-.56-.49-.82-1.97-2.2-5.01-.7-7.11-2.06-1.78-1.14-1.04-3.86-2.15-5.58-.15-.27-.31-.54-.48-.8-.34-.54-.71-1.07-.97-1.73-.39-1.18-.01-2.26,.49-3.27l40.11,5.76c-1.23,2.26-1.22,5.44-.45,8.04,.09,.28,.02,.48-.16,.63Z"/></g><g><path class="j" d="M203.71,98.29c-.75,5.03-1.99,9.87-3.67,14.47-.21,.59-.44,1.17-.67,1.75-1.75,5.31-4.55,10.03-7.77,14.72-.34,.53-.69,1.05-1.04,1.56-2.14,3.05-4.64,5.83-7.46,8.45-.46,.45-.93,.89-1.4,1.32-2.35,2.18-4.82,4.25-7.24,6.27-.52,.36-1.04,.71-1.57,1.04-2.13,1.34-11.61,8.64-28.62,11.58-.55,.09-1.08,.22-1.63,.33-1.62,.32-3.23,.6-4.83,.84-.48,.07-12.81,1.98-36.12-5.88-6.12-2.06-11.4-5.92-16.33-9.86-.52-.41-1.03-.84-1.54-1.26-1.6-1.53-3.14-3.13-4.65-4.75-.38-.41-.76-.81-1.13-1.22-.35-.41-.7-.81-1.06-1.22-.36-.4-.72-.81-1.08-1.21-.36-.43-.72-.86-1.07-1.3-.35-.44-.7-.87-1.04-1.32-1.27-1.47-2.52-2.96-3.7-4.49-.39-.51-.78-1.03-1.16-1.56-.98-1.18-8.65-16.68-9.36-22.94-.07-.65-.25-1.29-.36-1.95-.75-3.54-1.39-7.11-1.66-10.7-.05-.6-.08-1.2-.1-1.8-.08-3.14,.15-6.26,.57-9.37,.09-.63,.18-1.26,.28-1.91,.02-.16,.04-.32,.06-.48l145.37,20.88Z"/><path class="s" d="M200.56,100.19c-.08,.45-.16,.88-.25,1.32-.26,1.31-.56,2.6-.9,3.88-.17,.64-.34,1.28-.52,1.91-.16,.61-.33,1.23-.52,1.84-.73,1.55-1.4,3.13-2.08,4.72-.22,.53-.45,1.06-.67,1.59-2.25,5.71-5.32,11.1-9.15,15.89-.31,.41-.62,.82-.93,1.23-.31,.41-.63,.82-.94,1.22-.38,.47-.77,.94-1.16,1.41-1.17,1.4-2.39,2.78-3.64,4.13-.41,.4-.82,.78-1.25,1.16-2.14,1.88-19.25,12.67-20.35,12.68-.53,.13-1.08,.24-1.62,.33-2.74,.46-12.46,3.45-14.03,3.68-.69,.12-1.38,.22-2.08,.31-4.16,.55-8.43,.74-12.74,.53-.37-.02-.73-.04-1.1-.06-5.23-1.25-10.66-1.95-15.96-3.21-.59-.14-1.17-.31-1.77-.44-4.69-1.04-12.63-3.67-17.86-8.01-.48-.36-.95-.73-1.42-1.09-.47-.36-.95-.73-1.42-1.09-.51-.42-1-.84-1.48-1.27-1.94-1.73-3.77-3.62-5.6-5.51-.46-.46-.91-.92-1.35-1.39-.88-.93-1.74-1.89-2.56-2.87-.45-.53-.89-1.07-1.32-1.61-1.22-1.64-2.21-3.26-3.12-5.17-.18-.38-.36-.77-.54-1.18-1.21-1.5-2.33-3.05-3.33-4.65-.34-.54-.66-1.08-.98-1.65-.87-1.79-1.69-3.62-2.45-5.47-.25-.62-.5-1.24-.74-1.86-.92-3.07-2.01-6.1-2.88-9.16-.17-.62-.33-1.24-.47-1.86-.99-6.01-1.01-12.01-.68-17.95,.04-.56,.09-1.12,.14-1.68,.09-1,.21-2.01,.35-3.01l139.78,20.08c-.03,.77-.26,1.56-.4,2.29Z"/><path class="i" d="M194.55,110.88c-.26,.55-.54,1.09-.84,1.62-.89,1.6-1.93,3.15-3.08,4.66-.3,.54-.59,1.09-.89,1.63-.98,1.81-1.95,3.62-2.91,5.44-.24,.45-.48,.91-.72,1.37-.57,1.15-1.19,2.26-1.86,3.32-.33,.53-.68,1.05-1.04,1.57-1.75,2.38-3.77,4.55-5.97,6.5-.44,.39-.89,.77-1.34,1.15-.62,.71-1.58,1.28-2.35,1.7-2.21,1.16-4.32,2.32-6.35,3.49-.51,.29-5.51,5.75-18.28,8.99-.46,.12-.92,.24-1.38,.34-.46,.1-.92,.18-1.39,.24-.56,.12-1.12,.25-1.67,.36-2.69,.59-5.4,1.01-8.14,1.21-.59,.04-1.18,.08-1.77,.1-4.13,.18-8.26-.07-12.3-.53-.63-.08-1.25-.16-1.87-.25-5.53-.82-10.96-2.35-15.65-5.2-.49-.27-.99-.53-1.48-.78-3.45-1.74-7.04-3.09-10.5-4.61-.51-.29-.99-.59-1.47-.91-4.23-2.85-7.37-6.98-10.62-11.01-.38-.44-.76-.88-1.14-1.32-1.13-1.32-2.26-2.63-3.38-3.91-.31-.53-.61-1.06-.91-1.59-.3-.53-.59-1.06-.89-1.59-.29-.53-.58-1.06-.87-1.6-1.05-2.22-2.2-4.41-3.3-6.62-.28-.55-.55-1.11-.8-1.68-.43-1.03-.83-1.97-.88-2.86-.26-1.89-.63-3.67-1.09-5.41-.16-.58-.32-1.15-.5-1.74-1.06-2.08-1.84-4.21-2.37-6.37-.13-.54-.25-1.08-.35-1.63-.27-.88-.29-1.94-.14-2.98,0-4.7,1.06-8.93,.72-13.65l132.59,19.04c-.8,4.54-.65,9.35-2.85,13.49Z"/><path class="e" d="M186.47,107.89c-.21,.43-.19,.93-.29,1.4-.47,2.32-.96,4.57-2.42,6.49-.33,.51-.68,1.02-1.04,1.51-1.09,1.49-2.28,2.91-3.44,4.34-.3,.44-.6,.88-.89,1.32-.87,1.33-1.66,2.71-2.3,4.2-.54,1.33-1.58,2.42-2.85,3.2-.49,.39-.99,.76-1.5,1.13-1.53,1.11-5.29,4.37-5.67,4.85-.43,.39-.88,.74-1.33,1.07-3.19,2.28-7.07,3.59-10.67,5.28-.56,.29-1.11,.57-1.66,.84-1.11,.54-2.24,1.03-3.39,1.46-.59,.15-1.19,.27-1.79,.38-1.2,.21-2.43,.35-3.69,.42-.68,.09-1.34,.18-2,.26-1.96,.24-3.93,.42-5.88,.64-.56,.08-1.11,.15-1.67,.22-1.67,.2-3.35,.36-5.02,.46-.66-.03-1.32-.08-1.97-.16-2.6-.31-5.12-1.02-7.49-2.32-.55-.21-1.09-.42-1.64-.61-2.84-1-5.76-1.69-8.77-2.29-.5-.1-1.01-.2-1.52-.3-2.94-.35-5.6-1.3-8-2.68-.48-.28-.95-.57-1.41-.86-.29-.18-.64-.35-.97-.54-.34-.19-.56-.53-.88-.71-7.47-4.1-13.79-12.22-13.99-12.69-.98-2.34-4.9-8.84-5.21-9.37-2.57-3.04-2.79-6.92-3.69-10.67-.13-.54-.24-1.08-.33-1.65-.46-1.77-.93-3.53-1.31-5.31-.13-.59-.24-1.18-.35-1.77-.27-.98-.29-2.05-.32-3.11-.02-2.95,.79-5.65,1.13-8.4,.07-.55,.11-1.11,.13-1.67-.13-.95-.18-1.89-.17-2.82l117.53,16.88c-.63,3.4-1.74,8.4-3.26,11.6Z"/><path class="r" d="M182.33,96.91c-.1,.42-.24,.83-.4,1.23-.83,2.02-2.36,3.84-3.43,5.65-.21,.32-.42,.64-.61,.97-.19,.33-.36,.67-.5,1.04-.84,2.17-.08,4.23-.03,6.35,.07,.72-.35,1.19-.62,1.84-.28,.28-.58,.52-.89,.75-2.15,1.59-4.78,2.35-5.87,4.78-.19,.36-.38,.73-.56,1.1-.56,1.11-1.09,2.24-1.64,3.4-.27,.31-.56,.61-.86,.88-1.81,1.67-4.13,2.78-6.4,4-.35,.29-.7,.58-1.05,.88-1.05,.91-2.08,1.88-3.09,3.01-.22,.32-.82,.77-1.58,1.01-.4,.19-.82,.35-1.24,.5-2.12,.73-4.49,1.05-6.76,1.69-.41,.12-.83,.22-1.25,.3-.41,.11-.82,.22-1.23,.32-.34,.09-.69,.17-1.03,.25-.35,.08-.69,.16-1.04,.24-5.44,2.93-11.17,1.04-16.74,1.05-.46,0-.91,0-1.36-.03-4.46-.19-8.72-1.54-12.93-3.23-.38-.15-.77-.31-1.15-.47-2.92-1.83-5.14-4.8-8.3-5.84-.34-.08-.68-.15-1.03-.23-1.04-.22-2.09-.44-3.09-.84-1.47-.52-2.71-1.37-3.74-2.48-.51-.55-.97-1.17-1.38-1.85-1.11-1.52-1.21-3.29-1.65-5.12-.39-2.17-2.07-4-4.18-4.83-.38-.17-.74-.35-1.08-.58-.34-.22-.65-.47-.91-.78-.43-3.03-1.97-5.52-3.14-8.18-.17-.38-.32-.76-.46-1.16-.44-.6-.51-1.32-.24-1.98,.97-3.32,1.28-6.22,.69-9.15-.09-.42-.19-.84-.31-1.27-1.58-3.08-2.08-6.32-1.61-9.5,0-.06,.02-.13,.03-.19l102.84,14.77c0,.59-.08,1.17-.18,1.66Z"/><path class="d" d="M170.11,94.31c-.12,.35-.27,.69-.43,1.03-.48,1.02-1.08,2.02-1.34,3.09-.16,.46-.31,.91-.48,1.34-1.02,3.01-3.27,5.43-7.08,6.12-.74,.25-1.21,1.06-1.51,1.9-.09,.43-.13,.86-.14,1.29-.06,2.15,.63,4.3-.24,6.19-.23,.47-.51,.84-.82,1.16-.82,.81-1.86,1.26-2.99,1.58-.38,.11-.76,.2-1.16,.29-4.89-1.92-8.08,.63-10.33,4.9-.47,.53-1.02,.99-1.73,1.33-.2,.19-.44,.3-.7,.36-.38,.08-.82,.04-1.25-.04-1.87-.2-3.57-1.04-5.29-1.78-.34-.15-.69-.29-1.04-.43-.75-.45-1.61-.58-2.18-.31-3.31,1.5-5.86,3.2-8.48,2.64-.37-.09-.75-.23-1.12-.47-.79-.91-1.53-2.04-2.31-3.1-.26-.35-.53-.7-.81-1.02-2.01-2.47-5.64-1.75-8.53-1.29-1.37,.17-2.53-1.16-3.41-2.77-.18-.32-.34-.65-.5-.99-1.07-4.55-4.14-9.05-9.1-10.12-.55-.17-.96-.39-1.25-.66-.53-.48-.6-1.19-.68-1.91,.08-2.99,1.39-5.98,.7-8.55-.12-.37-.23-.73-.33-1.09-.11-.39-.21-.77-.3-1.15-.98-2.58-.06-5.27-.18-8.11,0-.27-.09-.52-.21-.77-.05-.11-.11-.22-.18-.33l75.6,10.86c-.02,.26-.08,.53-.21,.81Z"/><path class="r" d="M149.31,99.24c-.53,.47-2.02,.55-2.83,1.2-.33,.13-.65,.25-.96,.4-1.83,.84-2.97,2.39-2.95,5.26-.05,.35-.59,.44-.94,.39-.47-.18-.91-.28-1.33-.31-2.97,.75-4.99-2.36-7.83-2.24-.33,.04-.61,.15-.86,.31-.25,.16-.46,.37-.66,.62-1.05,.99-1.77,3.54-2.86,2.5-2.59-2.84-4.57-3.83-8.25-4.01-1.24,0,.89-2.52,.69-4.29-.05-.29-.2-.56-.49-.82-1.97-2.2-5.01-.7-7.11-2.06-1.78-1.14-1.03-3.86-2.15-5.58-.15-.27-.31-.54-.48-.8-.34-.53-.71-1.07-.97-1.73-.39-1.18-.01-2.26,.49-3.27l40.11,5.76c-1.23,2.26-1.22,5.44-.45,8.04,.09,.28,.02,.48-.16,.63Z"/></g><g><path class="e" d="M96.78,119.84c1.45-1.6,2.86-4.68,3.17-6.15,.08-.38,.08-.65,0-.76,0,0-.01-.01-.02-.02l-.02-.02c-.44-.52-5.03,.54-7.32,2.03-.78,.51-1.28,1.06-1.56,1.63-.61,1.22-.2,2.5,.58,3.42l.02,.02,.02,.02c1.15,1.35,3.17,2.01,5.14-.17Z"/><g><path class="k" d="M91.66,119.28l-.02-.02-.02-.02c-.72-.84-1.07-2.02-.48-3.17,.28-.53,.75-1.06,1.5-1.55,2.17-1.43,6.5-2.51,6.91-2.04l.02,.02,.02,.02c.08,.1,.07,.35,0,.71-.31,1.37-1.7,4.27-3.09,5.79-1.89,2.07-3.77,1.49-4.82,.26Z"/><path class="l" d="M92.2,118.34l-.02-.02-.02-.02c-.22-.26-.43-.55-.57-.86-.18-.39-.27-.81-.15-1.22,.15-.55,.68-1.03,1.37-1.5,2.01-1.4,6.09-2.51,6.48-2.07h0v.02l.02,.02c.08,.09,.08,.33,.02,.67-.46,1.39-1.55,3.56-2.66,4.78-1.74,1.91-3.49,1.36-4.48,.21Z"/><path class="o" d="M94.34,115.17c-1.18,.79-1.29,1.2-1.52,1.95-.15,.47-.75,.58-.94,.23-.16-.35-.24-.74-.13-1.12,.15-.5,.63-.95,1.27-1.39,1.87-1.31,5.62-2.36,5.98-1.96h0c.14,.17-.37,.42-.78,.57-1.1,.4-2.23,.61-3.9,1.72Z"/></g></g><g><path class="e" d="M114.58,115.01c.99-1.93,1.55-5.27,1.47-6.76-.02-.39-.09-.65-.2-.73,0,0-.02,0-.02-.01l-.02-.02c-.56-.38-4.72,1.83-6.54,3.86-.62,.69-.96,1.36-1.08,1.98-.27,1.34,.45,2.46,1.45,3.15l.02,.02,.02,.02c1.46,1,3.58,1.12,4.92-1.49Z"/><g><path class="k" d="M109.49,115.79h-.02l-.02-.03c-.91-.63-1.56-1.67-1.28-2.94,.13-.59,.45-1.22,1.04-1.89,1.73-1.95,5.63-4.11,6.14-3.76l.02,.02h.02c.11,.09,.16,.33,.18,.7,.05,1.4-.54,4.56-1.49,6.39-1.29,2.49-3.26,2.42-4.59,1.5Z"/><path class="l" d="M109.77,114.74h-.02l-.02-.03c-.28-.19-.56-.42-.78-.69-.28-.33-.47-.71-.46-1.14,0-.57,.39-1.17,.93-1.81,1.58-1.88,5.23-4,5.73-3.68h.01v.02h.03c.1,.08,.17,.31,.19,.66-.08,1.46-.58,3.84-1.34,5.3-1.19,2.29-3.02,2.22-4.27,1.36Z"/><path class="o" d="M111.01,111.13c-.94,1.06-.93,1.5-.96,2.28-.02,.49-.57,.75-.85,.46-.25-.3-.42-.65-.41-1.05,.01-.52,.37-1.08,.87-1.67,1.46-1.74,4.81-3.74,5.27-3.44h.01c.18,.13-.25,.5-.6,.75-.96,.67-1.99,1.17-3.32,2.67Z"/></g></g><g><path class="e" d="M115.86,132.85c.45-2.11,.14-5.49-.33-6.91-.12-.37-.26-.61-.39-.66,0,0-.02,0-.03,0,0,0-.02,0-.03-.01-.64-.23-4.09,2.99-5.32,5.42-.42,.83-.57,1.56-.53,2.19,.09,1.36,1.07,2.26,2.21,2.67h.03l.03,.02c1.67,.59,3.75,.15,4.37-2.72Z"/><g><path class="k" d="M111.14,134.93h-.02l-.02-.02c-1.04-.37-1.94-1.21-2-2.51-.03-.6,.12-1.3,.52-2.09,1.17-2.33,4.38-5.43,4.96-5.22h.02l.02,.02c.12,.04,.24,.27,.35,.62,.41,1.34,.66,4.55,.22,6.56-.6,2.73-2.52,3.18-4.05,2.64Z"/><path class="l" d="M111.14,133.84h-.02l-.02-.02c-.32-.11-.65-.26-.93-.46-.35-.25-.64-.57-.74-.98-.14-.55,.08-1.23,.43-1.99,1.04-2.22,4.02-5.22,4.58-5.03h.02s.02,.01,.02,.01c.12,.04,.24,.25,.35,.58,.3,1.43,.43,3.86,.08,5.47-.55,2.52-2.34,2.93-3.78,2.42Z"/><path class="o" d="M111.41,130.03c-.63,1.27-.51,1.69-.34,2.45,.11,.48-.36,.87-.7,.67-.32-.23-.57-.52-.67-.9-.13-.51,.08-1.14,.4-1.84,.96-2.06,3.68-4.85,4.2-4.69h.01c.2,.07-.11,.54-.39,.87-.76,.89-1.62,1.64-2.51,3.44Z"/></g></g><g><path class="e" d="M130.81,122.6c-.11-2.16-1.29-5.34-2.11-6.59-.21-.33-.4-.52-.54-.53,0,0-.02,0-.03,0h-.03c-.68-.06-3.17,3.94-3.74,6.61-.19,.91-.15,1.66,.05,2.26,.44,1.29,1.62,1.91,2.83,2h.05c1.77,.14,3.66-.82,3.51-3.75Z"/><g><path class="k" d="M126.79,125.83h-.05c-1.1-.09-2.18-.67-2.58-1.91-.18-.57-.22-1.28-.04-2.15,.52-2.55,2.82-6.37,3.44-6.33h.03s.02,0,.02,0c.13,.01,.3,.2,.5,.51,.75,1.19,1.81,4.22,1.91,6.28,.13,2.8-1.61,3.72-3.22,3.6Z"/><path class="l" d="M126.51,124.78h-.05c-.34-.03-.69-.09-1.02-.21-.4-.15-.76-.38-.97-.76-.28-.49-.25-1.21-.1-2.03,.43-2.42,2.53-6.08,3.12-6.05,0,0,0,0,.01,0h0s.02,0,.02,0c.12,0,.29,.18,.49,.46,.66,1.31,1.42,3.62,1.5,5.26,.12,2.58-1.51,3.43-3.02,3.31Z"/><path class="o" d="M125.78,121.03c-.28,1.39-.06,1.76,.3,2.45,.23,.44-.12,.94-.5,.83-.37-.13-.69-.35-.88-.7-.25-.46-.22-1.12-.09-1.88,.4-2.24,2.3-5.64,2.84-5.62h.01c.22,.01,.03,.55-.15,.94-.5,1.06-1.14,2.01-1.54,3.98Z"/></g></g><g><path class="e" d="M140.63,135.37c-.66-2.06-2.63-4.82-3.74-5.82-.29-.26-.53-.4-.66-.37h-.05c-.67,.13-2.05,4.64-1.9,7.36,.05,.93,.28,1.64,.63,2.17,.76,1.14,2.06,1.42,3.25,1.2h.05c1.74-.33,3.32-1.75,2.42-4.55Z"/><g><path class="k" d="M137.58,139.52h-.05c-1.09,.21-2.28-.07-2.98-1.16-.32-.51-.54-1.18-.6-2.07-.15-2.6,1.08-6.89,1.69-7h.03s.02,0,.02,0c.13-.02,.34,.11,.61,.36,1.03,.96,2.84,3.61,3.47,5.57,.85,2.67-.59,4.01-2.18,4.31Z"/><path class="l" d="M137.04,138.59h-.05c-.33,.07-.69,.1-1.04,.07-.43-.04-.83-.17-1.13-.48-.4-.4-.55-1.1-.62-1.93-.21-2.45,.87-6.53,1.45-6.65h.02s.01,0,.02-.01c.12-.03,.33,.09,.59,.32,.97,1.09,2.31,3.13,2.81,4.7,.78,2.46-.57,3.71-2.06,3.98Z"/><path class="o" d="M135.36,135.15c.09,1.42,.4,1.72,.93,2.29,.34,.36,.13,.93-.27,.93-.39-.04-.76-.16-1.03-.45-.36-.38-.5-1.02-.57-1.8-.2-2.27,.76-6.05,1.29-6.16,0,0,0,0,.01,0,.21-.04,.17,.52,.09,.95-.21,1.15-.58,2.23-.45,4.24Z"/></g></g><g><path class="e" d="M148.4,117.23c-1.17-1.82-3.78-3.98-5.12-4.65-.35-.18-.61-.25-.74-.19h-.02s-.02,.02-.03,.02c-.61,.29-.78,5,.07,7.6,.29,.88,.7,1.51,1.17,1.93,1.03,.9,2.36,.84,3.45,.32h.02l.03-.02c1.6-.76,2.76-2.54,1.17-5.01Z"/><g><path class="k" d="M146.53,122.03h-.02l-.02,.02c-1,.48-2.23,.51-3.19-.36-.44-.4-.83-1-1.11-1.85-.82-2.47-.74-6.93-.18-7.2,0,0,.02,0,.02,0,0,0,.01,0,.02-.01,.12-.06,.36,.02,.68,.19,1.24,.66,3.68,2.75,4.79,4.49,1.51,2.36,.47,4.03-.99,4.73Z"/><path class="l" d="M145.77,121.26h-.02l-.02,.02c-.3,.15-.64,.27-.98,.33-.42,.08-.85,.05-1.22-.17-.49-.29-.81-.92-1.1-1.71-.83-2.31-.85-6.53-.32-6.8h.02s.01-.02,.02-.02c.11-.06,.34,0,.66,.16,1.22,.8,3.04,2.42,3.93,3.81,1.39,2.17,.41,3.73-.96,4.38Z"/><path class="o" d="M143.26,118.38c.45,1.34,.83,1.56,1.49,1.97,.42,.26,.36,.87-.02,.97-.38,.07-.77,.04-1.11-.17-.45-.27-.75-.86-1.01-1.59-.78-2.14-.83-6.04-.35-6.28h.01c.19-.1,.3,.45,.34,.89,.1,1.17,.02,2.31,.66,4.21Z"/></g></g><g><path class="e" d="M160.24,125.08c-1.6-1.45-4.68-2.86-6.15-3.17-.38-.08-.65-.08-.76,0,0,0-.01,.01-.02,.02,0,0-.02,.01-.02,.02-.52,.44,.54,5.03,2.03,7.32,.51,.78,1.06,1.28,1.63,1.56,1.22,.61,2.5,.2,3.42-.58,0,0,.01-.01,.02-.02l.02-.02c1.35-1.15,2.01-3.17-.17-5.14Z"/><g><path class="k" d="M159.68,130.2l-.02,.02-.02,.02c-.84,.72-2.02,1.07-3.17,.48-.53-.28-1.06-.75-1.55-1.5-1.43-2.17-2.51-6.5-2.04-6.91,0,0,.01-.01,.02-.02,0,0,.01-.01,.02-.02,.1-.08,.35-.07,.71,0,1.37,.31,4.27,1.7,5.79,3.09,2.07,1.89,1.49,3.77,.26,4.82Z"/><path class="l" d="M158.74,129.66l-.02,.02-.02,.02c-.26,.22-.55,.43-.86,.58-.39,.18-.81,.27-1.22,.15-.55-.15-1.03-.68-1.5-1.37-1.4-2.01-2.51-6.09-2.07-6.48h.01v-.02s.02-.01,.02-.02c.09-.08,.33-.08,.67-.02,1.39,.46,3.56,1.55,4.78,2.66,1.91,1.74,1.36,3.49,.21,4.48Z"/><path class="o" d="M155.57,127.53c.79,1.18,1.2,1.29,1.95,1.52,.47,.15,.58,.75,.23,.94-.35,.16-.74,.24-1.12,.13-.5-.15-.95-.63-1.39-1.27-1.31-1.87-2.36-5.62-1.96-5.98h.01c.16-.15,.41,.36,.56,.77,.4,1.1,.61,2.23,1.73,3.9Z"/></g></g><g><path class="e" d="M171.35,112.16c-1.92-.99-5.27-1.55-6.76-1.47-.39,.02-.65,.09-.73,.2,0,0,0,.02-.01,.02l-.02,.02c-.38,.56,1.83,4.72,3.86,6.54,.69,.62,1.36,.96,1.98,1.08,1.34,.27,2.46-.45,3.15-1.45v-.02l.03-.02c1-1.46,1.12-3.58-1.49-4.92Z"/><g><path class="k" d="M172.14,117.25v.02l-.03,.02c-.63,.91-1.67,1.56-2.94,1.28-.59-.13-1.22-.45-1.88-1.04-1.95-1.73-4.11-5.63-3.76-6.14,0,0,.01-.01,.02-.02v-.02c.09-.11,.33-.16,.7-.18,1.4-.05,4.56,.54,6.39,1.49,2.49,1.29,2.42,3.26,1.5,4.59Z"/><path class="l" d="M171.09,116.97v.02l-.03,.02c-.19,.28-.42,.56-.69,.78-.33,.28-.71,.47-1.14,.46-.57,0-1.17-.39-1.81-.93-1.88-1.58-4-5.23-3.68-5.73h0v-.02s.01-.01,.02-.02c.07-.1,.3-.17,.65-.19,1.46,.08,3.84,.58,5.3,1.34,2.29,1.19,2.22,3.02,1.36,4.27Z"/><path class="o" d="M167.48,115.73c1.06,.94,1.5,.93,2.28,.96,.49,.02,.75,.57,.46,.85-.3,.25-.65,.42-1.05,.41-.52,0-1.08-.37-1.67-.87-1.74-1.46-3.74-4.81-3.44-5.27h0c.12-.19,.49,.24,.74,.59,.67,.96,1.17,1.99,2.67,3.32Z"/></g></g><g><path class="e" d="M170.96,97.39c-2.11-.45-5.49-.14-6.91,.33-.37,.12-.61,.26-.66,.39v.03l-.02,.03c-.23,.64,2.99,4.09,5.42,5.32,.83,.42,1.56,.57,2.19,.53,1.36-.09,2.26-1.07,2.67-2.21v-.03l.02-.03c.59-1.67,.15-3.75-2.72-4.37Z"/><g><path class="k" d="M173.03,102.11v.02l-.02,.02c-.37,1.04-1.21,1.94-2.51,2-.6,.03-1.3-.12-2.09-.52-2.33-1.17-5.43-4.38-5.22-4.96,0,0,0-.02,0-.02v-.02c.05-.12,.27-.24,.62-.35,1.34-.41,4.55-.66,6.56-.22,2.74,.6,3.18,2.52,2.64,4.05Z"/><path class="l" d="M171.95,102.11v.02l-.02,.02c-.11,.32-.26,.65-.46,.93-.25,.35-.57,.63-.98,.74-.55,.14-1.23-.08-1.99-.43-2.22-1.04-5.22-4.02-5.03-4.58h0v-.02s0-.02,0-.02c.04-.12,.25-.24,.58-.35,1.43-.3,3.86-.43,5.47-.08,2.52,.55,2.93,2.34,2.42,3.78Z"/><path class="o" d="M168.14,101.84c1.27,.63,1.69,.51,2.45,.34,.48-.11,.87,.36,.67,.7-.23,.32-.52,.57-.9,.67-.51,.13-1.14-.08-1.84-.4-2.06-.96-4.85-3.68-4.69-4.2h0c.07-.22,.54,.1,.87,.38,.89,.76,1.64,1.62,3.44,2.51Z"/></g></g><g><path class="e" d="M83.39,96.37c2.06-.66,4.82-2.63,5.82-3.74,.26-.29,.4-.53,.37-.66,0,0,0-.02,0-.03,0,0,0-.02,0-.03-.12-.67-4.63-2.05-7.36-1.9-.93,.05-1.64,.28-2.17,.63-1.14,.76-1.42,2.06-1.2,3.25,0,0,0,.02,0,.03v.03c.33,1.74,1.75,3.32,4.54,2.42Z"/><g><path class="k" d="M79.24,93.33v-.05c-.21-1.09,.07-2.28,1.16-2.99,.51-.32,1.18-.54,2.07-.59,2.6-.15,6.89,1.08,7,1.69,0,0,0,.02,0,.03,0,0,0,.02,0,.02,.02,.13-.11,.34-.36,.61-.96,1.03-3.61,2.84-5.57,3.47-2.67,.85-4.01-.59-4.31-2.18Z"/><path class="l" d="M80.17,92.78s0-.02,0-.02v-.02c-.07-.33-.1-.69-.07-1.03,.04-.43,.17-.83,.48-1.13,.4-.4,1.1-.55,1.94-.62,2.45-.21,6.53,.87,6.65,1.45h0v.02s0,.01,0,.02c.03,.12-.09,.33-.32,.59-1.09,.97-3.13,2.31-4.69,2.81-2.46,.78-3.71-.57-3.98-2.06Z"/><path class="o" d="M83.61,91.11c-1.42,.09-1.72,.4-2.29,.93-.36,.34-.93,.13-.93-.27,.04-.39,.16-.76,.45-1.03,.38-.36,1.02-.5,1.79-.57,2.27-.2,6.05,.76,6.16,1.29,0,0,0,0,0,.01,.04,.21-.52,.17-.95,.09-1.15-.21-2.23-.58-4.24-.45Z"/></g></g><g><path class="e" d="M97.76,103.75c1.82-1.17,3.98-3.78,4.65-5.12,.18-.35,.25-.61,.19-.74,0,0,0-.02-.01-.02,0,0,0-.02,0-.03-.29-.61-5-.78-7.6,.07-.88,.29-1.51,.7-1.93,1.17-.9,1.03-.84,2.36-.32,3.45,0,0,0,.02,.01,.02v.03c.77,1.6,2.56,2.76,5.02,1.17Z"/><g><path class="k" d="M92.96,101.88v-.02l-.02-.02c-.48-1-.51-2.23,.36-3.19,.4-.44,1-.83,1.85-1.11,2.47-.82,6.93-.74,7.2-.18,0,0,0,.02,0,.02,0,0,0,.01,.01,.02,.06,.12-.02,.36-.19,.68-.66,1.24-2.75,3.68-4.49,4.79-2.36,1.51-4.03,.47-4.73-.99Z"/><path class="l" d="M93.72,101.11s0-.02-.01-.02v-.02c-.15-.3-.28-.64-.34-.98-.08-.42-.05-.85,.17-1.22,.29-.49,.92-.82,1.71-1.1,2.31-.83,6.53-.85,6.8-.32h0v.02s.01,.01,.02,.02c.06,.11,0,.34-.16,.66-.8,1.22-2.42,3.04-3.81,3.93-2.17,1.39-3.73,.41-4.38-.96Z"/><path class="o" d="M96.61,98.61c-1.34,.45-1.56,.83-1.97,1.49-.26,.42-.87,.37-.97-.02-.07-.38-.04-.77,.17-1.11,.27-.45,.86-.75,1.59-1.01,2.14-.78,6.04-.83,6.28-.35h0c.1,.21-.46,.31-.89,.35-1.17,.1-2.31,.02-4.21,.66Z"/></g></g></g></g></svg>