<?xml version="1.0" encoding="UTF-8"?><svg xmlns="http://www.w3.org/2000/svg" viewBox="0 0 335.06 136.09"><defs><style>.b{fill:#df570e;}.c,.d{fill:#fff;}.e{fill:#aab0b5;}.f{fill:#a33b04;}.f,.g{opacity:.5;}.f,.h{mix-blend-mode:multiply;}.i{fill:#eae9d6;}.j{isolation:isolate;}.k{opacity:.7;}.k,.l{fill:#efeff0;mix-blend-mode:screen;}.m{fill:#dcdce2;}.n{fill:#a6a6aa;}.o{fill:#dadadc;}.p{fill:#bcbdbf;}.q{fill:#484954;}.d{opacity:.6;}.r{fill:#454545;}.s{fill:#a8a8a8;}.h,.t{fill:#ccd4d8;}.u{fill:#97978e;}.v{fill:#702b00;}</style></defs><g class="j"><g id="a"><g><path class="g" d="M198.89,130.37c-6.89,0-20.45-4.24-22.39-4.86-7.23-2.03-11.72-5.97-12.22-6.42,0,0-1.77-1.56-4.6-4.09-1.87,2.5-3.95,3.75-6.22,3.75-.18,0-.37,0-.55-.03-17.72-.28-31.26-3.67-31.83-3.82h-.04c-5.25-1.32-5-8.02-4.91-10.23,.13-3.46,.81-7.86,1.92-12.39l-2.87-.59c-19.06-3.95-37.51-8.37-54.86-13.14C29.5,70.1,8.12,49.38,10.97,37.88c.12-.48,.28-.96,.49-1.47,3.24-7.77,15.37-10.37,19.48-11.04,4.55-2.38,8.58-4.37,12.28-6.08,3.49-1.72,6.08-2.84,7.91-3.4,9.08-3.58,16.34-5.18,23.5-5.18,8.12,0,15.69,2.09,25.28,4.73,1.25,.34,2.54,.7,3.88,1.06,14.2,3.86,42.47,12.1,69.81,20.06,22.93,6.68,44.6,12.99,56.97,16.44,4.33,1.21,8.99,2.53,13.89,3.95,.05-.04,.33-.3,.44-.4,.33-.29,.68-.58,1.06-.88,1.26-.98,2.42-1.38,15.57-4.82,4.82-1.26,11.98-3.13,13.91-3.84,7.42-5.79,15.44-12.09,23.84-18.73,.1-.08,.2-.16,.31-.23,.35-.23,.68-.5,1.01-.77,.67-.53,1.44-1.14,2.37-1.69,.03-.02,.18-.11,.18-.11,.27-.16,.67-.39,1.18-.61,1.16-.49,2.38-.74,3.62-.74,1.93,0,3.48,.59,4.72,1.06,.24,.09,.49,.19,.74,.27l.08,.03c.47,.16,.92,.4,1.32,.69l7.16,5.22c.89,.65,1.55,1.58,1.85,2.65,.13,.46,.25,.95,.35,1.49,.33,1.77,.36,3.62,.09,5.64-.06,.43-.17,.84-.33,1.24l-15.75,38.02c.74,.43,1.48,.87,2.21,1.31,1.08,.6,5.57,3.13,7.85,5.1,2.08,1.79,2.84,4.62,2.08,7.78-.01,.05-.02,.11-.04,.16-.02,.09-.05,.19-.08,.29-.38,1.34-1,2.67-1.81,3.92,0,.01-.06,.09-.07,.11-.3,.45-.57,.82-.86,1.18l-.12,.15c-.33,.4-.67,.79-1.03,1.15,0,0-.23,.23-.28,.28,5.36,5.38,9.2,9.12,10.83,10.52,3.3,2.83,2.47,5.98,2.14,6.87-1.55,4.2-6.63,4.55-11.26,4.55h0c-1.9,0-3.62-.09-4.42-.14-.55,.05-1.12,.07-1.7,.07-5.79,0-11.59-2.41-12.23-2.69-.08-.03-.16-.07-.23-.11-.09-.04-8.83-4.34-17.47-8.78-.11,0-.23,.02-.34,.03-.23,.02-.48,.03-.76,.04,0,0-1.2,.03-1.22,.03-.25,0-1,0-1,0h-1.13c-12.29-.14-43.09-2.14-81.05-7.04,4.39,7.18,7.5,12.08,9.13,14.36,.27,.38,.5,.75,.71,1.15,.09,.17,.13,.26,.18,.36,.17,.37,.31,.72,.41,1.07,.05,.16,.09,.32,.13,.47,.15,.68,.19,1.33,.13,1.96-.02,.21-.06,.47-.11,.69-.11,.5-.28,1-.52,1.46-.11,.22-.24,.44-.39,.65-.02,.03-.04,.06-.06,.09-.27,.38-.6,.74-.96,1.05-.25,.22-.53,.43-.83,.61-.27,.17-.54,.31-.83,.44-.19,.09-.45,.18-.71,.27-.11,.04-.28,.09-.46,.14-.71,.19-1.5,.3-2.39,.34-.03,0-.05,0-.08,0-.2,0-.41,.01-.62,.01Z"/><path class="c" d="M193.89,125.37c-6.89,0-20.45-4.24-22.39-4.86-7.23-2.03-11.72-5.97-12.22-6.42,0,0-1.77-1.56-4.6-4.09-1.87,2.5-3.95,3.75-6.22,3.75-.18,0-.37,0-.55-.03-17.72-.28-31.26-3.67-31.83-3.82h-.04c-5.25-1.32-5-8.02-4.91-10.23,.13-3.46,.81-7.86,1.92-12.39l-2.87-.59c-19.06-3.95-37.51-8.37-54.86-13.14C24.5,65.1,3.12,44.38,5.97,32.88c.12-.48,.28-.96,.49-1.47,3.24-7.77,15.37-10.37,19.48-11.04,4.55-2.38,8.58-4.37,12.28-6.08,3.49-1.72,6.08-2.84,7.91-3.4,9.08-3.58,16.34-5.18,23.5-5.18,8.12,0,15.69,2.09,25.28,4.73,1.25,.34,2.54,.7,3.88,1.06,14.2,3.86,42.47,12.1,69.81,20.06,22.93,6.68,44.6,12.99,56.97,16.44,4.33,1.21,8.99,2.53,13.89,3.95,.05-.04,.33-.3,.44-.4,.33-.29,.68-.58,1.06-.88,1.26-.98,2.42-1.38,15.57-4.82,4.82-1.26,11.98-3.13,13.91-3.84,7.42-5.79,15.44-12.09,23.84-18.73,.1-.08,.2-.16,.31-.23,.35-.23,.68-.5,1.01-.77,.67-.53,1.44-1.14,2.37-1.69,.03-.02,.18-.11,.18-.11,.27-.16,.67-.39,1.18-.61,1.16-.49,2.38-.74,3.62-.74,1.93,0,3.48,.59,4.72,1.06,.24,.09,.49,.19,.74,.27l.08,.03c.47,.16,.92,.4,1.32,.69l7.16,5.22c.89,.65,1.55,1.58,1.85,2.65,.13,.46,.25,.95,.35,1.49,.33,1.77,.36,3.62,.09,5.64-.06,.43-.17,.84-.33,1.24l-15.75,38.02c.74,.43,1.48,.87,2.21,1.31,1.08,.6,5.57,3.13,7.85,5.1,2.08,1.79,2.84,4.62,2.08,7.78-.01,.05-.02,.11-.04,.16-.02,.09-.05,.19-.08,.29-.38,1.34-1,2.67-1.81,3.92,0,.01-.06,.09-.07,.11-.3,.45-.57,.82-.86,1.18l-.12,.15c-.33,.4-.67,.79-1.03,1.15,0,0-.23,.23-.28,.28,5.36,5.38,9.2,9.12,10.83,10.52,3.3,2.83,2.47,5.98,2.14,6.87-1.55,4.2-6.63,4.55-11.26,4.55h0c-1.9,0-3.62-.09-4.42-.14-.55,.05-1.12,.07-1.7,.07-5.79,0-11.59-2.41-12.23-2.69-.08-.03-.16-.07-.23-.11-.09-.04-8.83-4.34-17.47-8.78-.11,0-.23,.02-.34,.03-.23,.02-.48,.03-.76,.04,0,0-1.2,.03-1.22,.03-.25,0-1,0-1,0h-1.13c-12.29-.14-43.09-2.14-81.05-7.04,4.39,7.18,7.5,12.08,9.13,14.36,.27,.38,.5,.75,.71,1.15,.09,.17,.13,.26,.18,.36,.17,.37,.31,.72,.41,1.07,.05,.16,.09,.32,.13,.47,.15,.68,.19,1.33,.13,1.96-.02,.21-.06,.47-.11,.69-.11,.5-.28,1-.52,1.46-.11,.22-.24,.44-.39,.65-.02,.03-.04,.06-.06,.09-.27,.38-.6,.74-.96,1.05-.25,.22-.53,.43-.83,.61-.27,.17-.54,.31-.83,.44-.19,.09-.45,.18-.71,.27-.11,.04-.28,.09-.46,.14-.71,.19-1.5,.3-2.39,.34-.03,0-.05,0-.08,0-.2,0-.41,.01-.62,.01Z"/><g><g><g><path class="b" d="M314.03,30.47l-7.16-5.22s-.03-.01-.05-.02c-1.86-.64-3.48-1.59-5.53-.72-1.48,.63-2.61,1.85-3.9,2.72-9.92,7.84-17.93,14.12-24.29,19.08-1.52,1.18-27.71,7.29-29.05,8.32-11.12,8.64,8.07,9.51,7.47,10.16-1.97,2.11,37.09,9.69,45.06,13.56l17.74-42.82c.23-1.72,.21-3.41-.28-5.06Z"/><g><path class="b" d="M307.73,26.74s.03,.01,.05,.02l6.47,4.73c-.06-.34-.13-.67-.23-1l-7.16-5.22s-.03-.01-.05-.02c-.25-.08-.49-.17-.73-.27,.51,.83,1.03,1.55,1.65,1.77Z"/><path class="k" d="M244.95,56.14c1.34-1.04,27.53-7.14,29.05-8.32,6.36-4.96,14.37-11.24,24.29-19.08,.67-.45,1.46-2.19,2.27-3.83-1.14,.67-2.12,1.61-3.19,2.33-9.92,7.84-17.93,14.12-24.29,19.08-1.52,1.18-27.71,7.29-29.05,8.32-4.04,3.14-4.07,5.25-2.51,6.7-.26-1.31,.6-3.01,3.42-5.2Z"/></g></g><path class="m" d="M27.52,25.19c37.07-19.46,44.03-15.91,69.97-8.85,25.94,7.05,99.46,28.89,126.75,36.49,27.32,7.6,55.64,16.59,58.23,17.5,0,0,9.03,3.93,20.43,10.78,0,0,5.01,2.76,7.08,4.55,1.96,1.69-.8,7.55-4.97,9.4-.98,.44-11.71,3.91-11.71,3.91,0,0-5.54,2.37-17.32,3.25-10.13,.76-115.28-4.87-219.33-33.48C26.97,60.59,9.06,41.22,10.83,34.08c1.7-6.84,16.7-8.89,16.7-8.89Z"/><g><path class="q" d="M73.09,32.7c2.04-2.19,3.68-4.66,5.23-7.19,.54-1.31,.63-2.64-.45-3.63-2.44-.78-5.17-1.61-8.17-2.47-.85-.25-1.7-.49-2.46-.7l-15.58,12.47c3.95,1.5,7.99,2.83,11.8,3.76,4.05,.95,6.59,1.04,9.64-2.24Z"/><path class="q" d="M31.1,23.71s13.59-7.63,17.5-8.28c.94-.17,4.2-.57,17.16,2.73l-15.18,12.5c-5.46-1.9-13.29-4.46-19.48-6.94Z"/></g><path class="n" d="M102.16,59.33c-.51-.13-.84-.27-.85-.28l-8.73-2.44c-3.63-2.42-2.05-7.25-2.03-7.3,.15-.58,3.91-14.51,5.36-17.91,1.22-2.84,3.71-2.57,4.74-2.32,.3,.07,.49,.15,.49,.15l5.18,1.54,5.28,1.51h.06c.57,.15,1.01,.49,1.3,1.01,1.05,1.87-.08,5.57-.13,5.73-.14,.54-3.49,13.74-5.32,17.73-1.44,3.15-4.22,2.85-5.35,2.57Zm-9.33-3.17l8.66,2.41s.34,.15,.79,.26c1.25,.3,3.53,.41,4.77-2.3,1.81-3.95,5.26-17.52,5.3-17.65,.01-.05,1.13-3.67,.18-5.35-.23-.4-.55-.65-.98-.76l-.08-.02-5.29-1.51-5.2-1.55s-.19-.07-.45-.14c-1.11-.27-3.13-.37-4.16,2.03-1.43,3.36-5.3,17.71-5.34,17.85-.02,.06-1.47,4.5,1.79,6.71Z"/><g><g><path class="s" d="M126.75,47.66c-.13-.03-.21-.07-.21-.07l-2.33-.56-.04-.02c-.91-.57-.86-1.69-.71-2.2,.03-.14,.91-3.89,1.27-4.82,.3-.79,1.01-.93,1.56-.79,.07,.02,.12,.04,.12,.04l2.78,.71h0c.24,.06,.41,.19,.52,.38,.33,.57,.07,1.59,.04,1.7-.03,.14-.81,3.69-1.27,4.78-.3,.73-.95,1.05-1.73,.86Z"/><path class="r" d="M126.73,47.17c-.12-.03-.19-.06-.19-.06l-2.05-.49-.04-.02c-.8-.5-.76-1.48-.62-1.93,.03-.13,.8-3.41,1.12-4.23,.27-.7,.89-.82,1.37-.7,.07,.02,.1,.03,.1,.03l2.44,.63h0c.21,.05,.36,.16,.46,.33,.3,.5,.06,1.39,.03,1.49-.03,.12-.71,3.24-1.11,4.2-.27,.64-.83,.92-1.52,.75Z"/></g><g><path class="s" d="M134.88,49.64c-.13-.03-.21-.07-.21-.07l-2.33-.56-.04-.03c-.92-.57-.86-1.68-.71-2.19,.03-.14,.91-3.89,1.27-4.82,.31-.79,1.01-.93,1.56-.8,.07,.02,.12,.04,.12,.04l2.78,.71h0c.24,.06,.41,.19,.52,.38,.34,.57,.07,1.58,.04,1.7-.03,.13-.81,3.69-1.27,4.78-.3,.73-.95,1.05-1.73,.86Z"/><path class="r" d="M134.85,49.16c-.12-.03-.19-.06-.19-.06l-2.05-.5-.04-.02c-.8-.5-.76-1.48-.62-1.93,.03-.13,.8-3.41,1.12-4.23,.26-.7,.88-.82,1.37-.7,.07,.02,.1,.03,.1,.03l2.44,.63h0c.21,.05,.36,.16,.46,.33,.29,.5,.06,1.39,.03,1.49-.03,.12-.71,3.24-1.12,4.2-.27,.64-.83,.92-1.52,.76Z"/></g><g><path class="s" d="M143,51.62c-.13-.03-.22-.07-.22-.07l-2.33-.56-.04-.03c-.91-.57-.86-1.69-.71-2.2,.03-.14,.91-3.88,1.27-4.82,.31-.79,1.01-.93,1.56-.79,.07,.02,.11,.04,.11,.04l2.78,.71h0c.24,.06,.41,.19,.52,.38,.33,.57,.07,1.58,.03,1.7-.03,.13-.8,3.69-1.27,4.78-.31,.72-.95,1.05-1.73,.86Z"/><path class="r" d="M142.97,51.14c-.11-.03-.18-.06-.18-.06l-2.05-.49-.04-.02c-.8-.5-.76-1.48-.62-1.93,.03-.13,.8-3.41,1.11-4.23,.27-.7,.89-.82,1.37-.7,.07,.02,.1,.03,.1,.03l2.44,.63h0c.21,.05,.36,.16,.45,.33,.3,.5,.06,1.39,.04,1.49-.03,.12-.71,3.24-1.12,4.2-.27,.64-.83,.92-1.52,.76Z"/></g><g><path class="s" d="M151.13,53.61c-.13-.03-.22-.07-.22-.07l-2.33-.56-.04-.03c-.91-.57-.86-1.68-.71-2.19,.03-.14,.91-3.89,1.27-4.82,.31-.79,1.01-.93,1.56-.79,.08,.02,.12,.04,.12,.04l2.78,.71h0c.24,.06,.41,.19,.52,.38,.34,.57,.07,1.58,.04,1.7-.03,.13-.81,3.69-1.27,4.78-.3,.73-.95,1.05-1.73,.86Z"/><path class="r" d="M151.1,53.12c-.11-.03-.19-.06-.19-.06l-2.05-.49-.04-.02c-.8-.5-.76-1.48-.62-1.93,.03-.13,.8-3.41,1.12-4.23,.27-.7,.89-.82,1.37-.7,.07,.02,.1,.03,.1,.03l2.44,.63h0c.21,.05,.36,.16,.46,.33,.29,.5,.05,1.39,.03,1.49-.02,.12-.71,3.24-1.12,4.2-.27,.64-.83,.92-1.52,.75Z"/></g><g><path class="s" d="M159.24,55.59c-.13-.03-.21-.07-.21-.07l-2.33-.56-.04-.03c-.91-.57-.86-1.68-.71-2.2,.04-.14,.91-3.89,1.27-4.82,.3-.79,1.01-.93,1.56-.79,.08,.02,.12,.04,.12,.04l2.78,.71h0c.24,.06,.41,.19,.53,.38,.33,.57,.06,1.58,.03,1.7-.03,.13-.8,3.69-1.27,4.78-.3,.72-.95,1.05-1.73,.86Z"/><path class="r" d="M159.22,55.11c-.12-.03-.19-.06-.19-.06l-2.05-.5-.04-.02c-.8-.5-.76-1.48-.62-1.93,.03-.13,.8-3.41,1.12-4.23,.27-.7,.88-.82,1.37-.7,.07,.02,.11,.03,.11,.03l2.44,.63h0c.21,.05,.36,.16,.46,.33,.29,.5,.06,1.39,.03,1.49-.03,.12-.71,3.23-1.12,4.2-.27,.64-.84,.92-1.52,.76Z"/></g><g><path class="s" d="M167.37,57.57c-.13-.03-.21-.07-.21-.07l-2.33-.56-.05-.03c-.91-.56-.86-1.68-.71-2.19,.04-.14,.92-3.88,1.28-4.82,.3-.79,1.01-.93,1.56-.8,.08,.02,.12,.04,.12,.04l2.78,.71h0c.24,.06,.41,.19,.52,.38,.34,.57,.07,1.58,.03,1.7-.03,.13-.8,3.69-1.27,4.78-.3,.73-.95,1.05-1.73,.86Z"/><path class="r" d="M167.34,57.09c-.12-.03-.19-.06-.19-.06l-2.04-.49-.04-.02c-.8-.5-.76-1.48-.62-1.93,.03-.12,.8-3.41,1.12-4.23,.27-.69,.88-.82,1.37-.7,.07,.02,.1,.03,.1,.03l2.44,.63h0c.21,.05,.36,.16,.46,.33,.29,.5,.05,1.39,.03,1.49-.03,.12-.71,3.23-1.11,4.2-.27,.64-.84,.92-1.52,.76Z"/></g><g><path class="s" d="M175.49,59.56c-.13-.03-.21-.07-.21-.07l-2.33-.56-.04-.02c-.92-.57-.86-1.69-.71-2.2,.03-.14,.91-3.89,1.27-4.82,.31-.79,1.01-.93,1.56-.8,.08,.02,.12,.04,.12,.04l2.78,.71h0c.24,.06,.41,.19,.52,.38,.34,.57,.07,1.58,.04,1.7-.03,.13-.81,3.69-1.27,4.78-.3,.73-.95,1.05-1.73,.86Z"/><path class="r" d="M175.47,59.07c-.12-.03-.19-.06-.19-.06l-2.04-.5-.04-.02c-.8-.5-.76-1.48-.62-1.93,.03-.13,.8-3.41,1.12-4.23,.27-.7,.89-.82,1.38-.7,.06,.01,.09,.03,.09,.03l2.45,.63h0c.21,.05,.36,.16,.46,.33,.29,.5,.06,1.39,.03,1.49-.03,.12-.71,3.24-1.11,4.2-.27,.64-.84,.92-1.52,.76Z"/></g><g><path class="s" d="M183.61,61.54c-.13-.03-.21-.07-.21-.07l-2.33-.56-.04-.03c-.92-.57-.86-1.68-.71-2.19,.03-.14,.91-3.89,1.27-4.82,.3-.79,1-.93,1.56-.8,.08,.02,.12,.04,.12,.04l2.78,.71h0c.24,.06,.41,.19,.52,.38,.33,.57,.06,1.58,.04,1.7-.03,.14-.81,3.69-1.27,4.78-.31,.72-.95,1.05-1.73,.86Z"/><path class="r" d="M183.59,61.06c-.11-.03-.18-.06-.18-.06l-2.05-.5-.04-.02c-.8-.5-.76-1.48-.62-1.93,.03-.13,.8-3.41,1.11-4.23,.27-.69,.89-.81,1.37-.7,.07,.02,.1,.03,.1,.03l2.44,.63h0c.21,.05,.36,.17,.46,.33,.29,.5,.06,1.39,.03,1.49-.03,.12-.71,3.24-1.12,4.2-.26,.64-.83,.92-1.52,.76Z"/></g><g><path class="s" d="M191.74,63.52c-.13-.03-.21-.07-.21-.07l-2.33-.56-.04-.03c-.91-.57-.86-1.68-.71-2.19,.04-.14,.91-3.89,1.28-4.82,.3-.79,1.01-.93,1.56-.8,.08,.02,.12,.04,.12,.04l2.78,.71h0c.24,.06,.41,.19,.52,.38,.34,.57,.07,1.58,.04,1.7-.03,.13-.81,3.69-1.27,4.78-.3,.73-.95,1.05-1.73,.86Z"/><path class="r" d="M191.71,63.04c-.12-.03-.19-.06-.19-.06l-2.04-.49-.04-.02c-.8-.5-.76-1.48-.62-1.93,.03-.13,.8-3.41,1.12-4.23,.27-.69,.89-.82,1.37-.7,.06,.02,.1,.03,.1,.03l2.44,.62h0c.21,.05,.35,.16,.45,.33,.3,.5,.06,1.39,.04,1.49-.03,.12-.71,3.24-1.12,4.2-.27,.64-.84,.92-1.52,.76Z"/></g><g><path class="s" d="M199.86,65.51c-.13-.03-.21-.07-.21-.07l-2.33-.56-.04-.03c-.91-.57-.86-1.68-.71-2.19,.03-.14,.91-3.89,1.27-4.82,.31-.79,1.01-.93,1.56-.79,.08,.02,.12,.04,.12,.04l2.78,.71h0c.24,.06,.41,.19,.52,.38,.34,.57,.07,1.58,.04,1.7-.03,.13-.81,3.69-1.27,4.78-.3,.73-.95,1.05-1.72,.86Z"/><path class="r" d="M199.83,65.02c-.12-.03-.19-.06-.19-.06l-2.04-.49-.04-.02c-.8-.5-.75-1.48-.62-1.93,.03-.13,.8-3.41,1.12-4.23,.27-.69,.88-.82,1.37-.7,.06,.02,.1,.03,.1,.03l2.44,.62h0c.21,.05,.36,.16,.46,.33,.29,.5,.06,1.39,.03,1.49-.03,.12-.71,3.24-1.12,4.2-.27,.64-.84,.92-1.52,.75Z"/></g><g><path class="s" d="M207.98,67.49c-.13-.03-.21-.07-.21-.07l-2.33-.56-.04-.03c-.91-.57-.86-1.68-.71-2.19,.03-.14,.91-3.89,1.27-4.82,.3-.79,1.01-.93,1.56-.79,.08,.02,.11,.04,.11,.04l2.78,.71h0c.24,.06,.41,.19,.52,.38,.33,.57,.07,1.59,.03,1.7-.03,.13-.81,3.69-1.27,4.78-.31,.72-.95,1.05-1.73,.86Z"/><path class="r" d="M207.95,67.01c-.11-.03-.18-.06-.18-.06l-2.05-.5-.04-.02c-.8-.5-.75-1.48-.62-1.93,.03-.13,.8-3.41,1.11-4.23,.27-.7,.89-.82,1.37-.7,.07,.02,.1,.03,.1,.03l2.44,.63h0c.21,.05,.36,.16,.46,.33,.3,.5,.06,1.39,.03,1.49-.02,.12-.71,3.24-1.12,4.2-.26,.64-.83,.92-1.52,.76Z"/></g><g><path class="s" d="M216.1,69.48c-.13-.03-.21-.07-.21-.07l-2.33-.56-.04-.03c-.91-.57-.86-1.69-.71-2.19,.04-.14,.91-3.89,1.27-4.82,.31-.79,1.01-.93,1.56-.8,.07,.02,.12,.04,.12,.04l2.78,.71h0c.24,.06,.41,.19,.52,.38,.33,.57,.06,1.58,.03,1.7-.03,.13-.8,3.69-1.27,4.78-.3,.73-.95,1.05-1.73,.86Z"/><path class="r" d="M216.08,68.99c-.12-.03-.19-.06-.19-.06l-2.05-.49-.03-.02c-.8-.5-.76-1.48-.62-1.93,.03-.12,.8-3.41,1.12-4.23,.27-.7,.89-.82,1.37-.7,.06,.02,.1,.03,.1,.03l2.44,.63h0c.21,.05,.36,.16,.46,.33,.29,.5,.05,1.39,.03,1.49-.03,.12-.71,3.23-1.12,4.2-.26,.64-.83,.92-1.51,.76Z"/></g><g><path class="s" d="M224.22,71.46c-.13-.03-.21-.07-.21-.07l-2.34-.56-.04-.02c-.91-.57-.86-1.69-.71-2.2,.03-.14,.91-3.89,1.27-4.82,.31-.79,1.01-.93,1.56-.8,.08,.02,.12,.04,.12,.04l2.78,.71h0c.24,.06,.41,.19,.52,.38,.33,.57,.06,1.58,.03,1.7-.03,.13-.81,3.69-1.27,4.78-.3,.73-.95,1.05-1.73,.86Z"/><path class="r" d="M224.2,70.97c-.12-.03-.19-.06-.19-.06l-2.05-.49-.04-.02c-.8-.5-.75-1.48-.62-1.93,.03-.13,.8-3.41,1.12-4.23,.27-.7,.89-.82,1.37-.7,.06,.01,.1,.03,.1,.03l2.44,.63h0c.21,.05,.35,.16,.46,.33,.29,.49,.06,1.39,.03,1.49-.02,.12-.71,3.24-1.11,4.2-.27,.64-.84,.92-1.52,.76Z"/></g><g><path class="s" d="M232.34,73.44c-.13-.03-.21-.07-.21-.07l-2.33-.56-.04-.03c-.91-.57-.86-1.69-.71-2.19,.04-.14,.91-3.89,1.27-4.82,.3-.79,1.01-.93,1.56-.8,.07,.02,.12,.04,.12,.04l2.78,.71h0c.24,.06,.41,.19,.52,.38,.33,.57,.07,1.58,.03,1.7-.03,.14-.81,3.69-1.27,4.78-.3,.72-.95,1.05-1.73,.86Z"/><path class="r" d="M232.32,72.96c-.12-.03-.19-.06-.19-.06l-2.05-.49-.04-.02c-.8-.5-.76-1.48-.62-1.93,.03-.13,.8-3.41,1.12-4.23,.27-.7,.89-.82,1.37-.7,.06,.02,.1,.03,.1,.03l2.44,.63h0c.21,.05,.36,.16,.46,.33,.3,.5,.06,1.39,.03,1.49-.03,.12-.71,3.24-1.11,4.2-.27,.64-.83,.92-1.52,.76Z"/></g><g><path class="s" d="M240.47,75.42c-.13-.03-.21-.07-.21-.07l-2.33-.56-.04-.03c-.91-.57-.86-1.68-.71-2.19,.03-.14,.91-3.89,1.27-4.82,.3-.79,1.01-.93,1.56-.8,.08,.02,.12,.04,.12,.04l2.78,.71h0c.24,.06,.41,.19,.52,.38,.34,.57,.07,1.58,.04,1.7-.03,.13-.81,3.69-1.27,4.78-.3,.72-.95,1.05-1.73,.86Z"/><path class="r" d="M240.44,74.94c-.12-.03-.19-.06-.19-.06l-2.04-.49-.04-.02c-.8-.5-.76-1.48-.62-1.93,.03-.13,.8-3.41,1.12-4.23,.27-.69,.89-.81,1.37-.7,.07,.02,.1,.03,.1,.03l2.44,.63h0c.21,.05,.36,.17,.46,.33,.3,.5,.06,1.39,.03,1.49-.03,.12-.71,3.23-1.11,4.2-.27,.64-.84,.92-1.52,.76Z"/></g><g><path class="s" d="M248.59,77.41c-.13-.03-.21-.07-.21-.07l-2.33-.56-.04-.03c-.91-.57-.86-1.68-.71-2.19,.03-.14,.91-3.89,1.27-4.82,.31-.79,1.01-.93,1.56-.8,.07,.02,.12,.04,.12,.04l2.78,.71h0c.25,.06,.42,.19,.52,.38,.33,.57,.07,1.59,.04,1.7-.03,.13-.81,3.69-1.27,4.78-.3,.73-.95,1.05-1.73,.86Z"/><path class="r" d="M248.56,76.92c-.11-.03-.18-.06-.18-.06l-2.05-.49-.04-.02c-.8-.5-.76-1.48-.62-1.93,.03-.13,.8-3.41,1.11-4.23,.27-.7,.89-.82,1.37-.7,.07,.02,.1,.03,.1,.03l2.44,.63h0c.21,.05,.36,.16,.46,.33,.3,.5,.06,1.39,.03,1.49-.03,.12-.71,3.24-1.11,4.2-.27,.64-.84,.92-1.52,.75Z"/></g></g><path class="b" d="M40.04,44.61c-16.32-6.42-23.97-10.72-27.57-13.34-.78,.83-1.39,1.76-1.65,2.81-1.77,7.14,16.14,26.51,45.82,34.67,104.05,28.61,209.2,34.24,219.33,33.48,11.78-.89,17.32-3.25,17.32-3.25,0,0,10.74-3.47,11.71-3.91,2.71-1.2,4.81-4.1,5.42-6.44-84.12,13.03-239.74-31.95-270.39-44.01Z"/><g><path class="f" d="M183.08,92.49c-2.91-3.9-5.29-8.2-7.66-12.47-21.53-4.01-42.5-8.73-61.4-13.47-1.45,4.98-2.26,10.1-2.83,15.26,26.01,5.39,50.97,9.46,73.28,12.49-.47-.6-.93-1.21-1.39-1.82Z"/><path class="f" d="M252.24,90.16c2.79,3.77,6.87,6.93,10.45,9.69,1.01,.78,2.05,1.53,3.09,2.25,5.21,.21,8.72,.24,10.19,.13,11.78-.89,17.32-3.25,17.32-3.25,0,0,10.74-3.47,11.71-3.91,2.71-1.2,4.81-4.1,5.42-6.44-17.02,2.64-36.96,2.89-58.19,1.54Z"/></g><g><path class="v" d="M293.44,89.84l-25.86-3.37s-2.99-.21-4.97,1.41c-1.32,1.09-2.53,3.63-.82,5.24,3.07,2.9,34.57,18.36,34.57,18.36,0,0,6.58,2.82,11.87,2.19,0,0,14.52,1.1,10.36-2.47-4.16-3.58-18.63-18.4-18.63-18.4,0,0-3.33-2.82-6.53-2.96Z"/><path class="b" d="M293.44,89.84l-25.86-3.37s-8.23,.14-3.97,4.15c3.07,2.9,32.81,19.34,32.81,19.34,0,0,2.89,1.62,7.14,2.08,0,0,19.2,2.74,15.04-.84-4.16-3.58-18.63-18.4-18.63-18.4,0,0-3.33-2.82-6.53-2.96Z"/></g><g><g><path class="e" d="M154.55,83.06s-18.08-7.31-29.52-9.56l-6.28,28.61-.05,.09-1.38,2.89s13.48,3.42,30.96,3.67c1.58,.38,4.82-4.48,6.55-11.58,1.73-7.09,1.29-13.72-.28-14.11Z"/><path class="h" d="M126.88,91.72c4.14,1.14,8.3,2.07,12.37,3.46,4.9,1.68,9.83,3.31,14.61,5.28,.35-1.03,.68-2.13,.96-3.29,1.73-7.09,1.29-13.72-.28-14.11,0,0-18.08-7.31-29.52-9.56l-3.63,16.54c1.83,.5,3.61,1.18,5.48,1.69Z"/><path class="i" d="M124.37,90.07c-2.13,8.72-5.3,15.44-7.09,15-1.78-.44-1.51-7.86,.62-16.58,2.13-8.72,5.31-15.44,7.09-15,1.79,.44,1.51,7.86-.63,16.58Z"/><g><path class="u" d="M123.9,78.88c-.08-.49-.22-.79-.42-.84-.95-.23-2.91,4.47-4.38,10.5-1.47,6.03-1.9,11.1-.95,11.33,.25,.06,.56-.22,.92-.76-.27-1.7,.23-5.8,1.38-10.5,1.09-4.46,2.45-8.19,3.46-9.74Z"/><path class="u" d="M123.9,78.88c-1.01,1.54-2.37,5.27-3.46,9.74-1.15,4.69-1.65,8.79-1.38,10.5,1.01-1.55,2.38-5.27,3.46-9.74,1.15-4.69,1.65-8.8,1.38-10.5Z"/></g></g><g><path class="t" d="M164.3,73.47l-39.23-9.58s-10.34-1.66-6.74,4.43c3.6,6.09,44.31,42.07,44.31,42.07,0,0,3.94,3.57,10.3,5.34,0,0,28.59,9.15,23.32,1.79-5.28-7.36-22.86-37.27-22.86-37.27,0,0-4.24-5.81-9.09-6.77Z"/><path class="o" d="M164.3,73.47l-39.23-9.58s-10.34-1.66-6.74,4.43c3.6,6.09,44.31,42.07,44.31,42.07,0,0,3.94,3.57,10.3,5.34,0,0,28.59,9.15,23.32,1.79-5.28-7.36-22.86-37.27-22.86-37.27,0,0-4.24-5.81-9.09-6.77Z"/><path class="p" d="M196.25,117.51c-5.28-7.36-22.86-37.27-22.86-37.27,0,0-4.24-5.81-9.09-6.77l-4.61-1.13c4.59,3.07,7.89,7.31,11.23,12.1,4.81,6.91,9.4,13.99,14.29,20.85,1.98,2.78,4.02,5.52,5.7,8.5,.94,1.67,2.06,3.45,1.44,5.4-.13,.41-.34,.75-.6,1.04,3.93,.42,6.39-.09,4.5-2.73Z"/><path class="d" d="M130.8,66.5s-11.83-3.29-8.58,1.54c3.26,4.83,36.75,36.66,36.75,36.66,0,0,7.17,8.07,14.43,9.17,0,0-7.98-4.77-11.52-9.53-3.54-4.76-30.77-32.51-30.77-32.51,0,0-5.5-4.98-.31-5.32Z"/></g></g><path class="l" d="M55.22,14.45s11-3.76,24.92-1.31c13.92,2.46,120.21,33.92,120.21,33.92L80.75,16.11s-5.43-1.99-9.21,1.92l-16.33-3.59Z"/></g><path class="l" d="M117.24,48.81s106.28,23.18,141.26,28.95c0,0-77.2-6.03-141.26-28.95Z"/></g></g></g></g></svg>