<?xml version="1.0" encoding="UTF-8"?><svg id="a" xmlns="http://www.w3.org/2000/svg" viewBox="0 0 121.31 226.33"><defs><style>.b{fill:#b06137;}.b,.c,.d,.e,.f,.g,.h,.i,.j,.k,.l,.m,.n{fill-rule:evenodd;}.c{fill:#c67b41;}.d{fill:#77787b;}.e{fill:#fff;}.f{fill:#5c5d60;}.g{fill:#9e572f;}.h{fill:#4b4b4d;}.i{fill:#85401d;}.j{fill:#de8c50;}.k{opacity:.5;}.l{fill:#b36b47;}.m{fill:#b66e32;}.n{fill:#323232;}</style></defs><path class="k" d="M17.82,224.65c-1.74,0-3.64-.52-5.38-1.47-4.6-2.32-6.72-6.61-5.16-10.49,.06-.16,.13-.31,.21-.46l4.8-9.11c.2-.38,.45-.74,.75-1.06,.49-.53,1.04-1.05,1.57-1.5L98.52,41.23c4.51-8.17,3.83-11.38,2.93-13.08-1.14-2.16-3.71-3.92-6.26-4.28-.28-.04-.57-.06-.84-.06-3.57,0-6.21,3.36-6.88,6.52-.33,1.55-.39,3.56-.4,5.14-.01,1.32-.55,2.59-1.49,3.52-1.77,1.74-4.22,2.7-6.91,2.7-3.47,0-6.7-1.6-8.22-4.08-.51-.83-.77-1.79-.74-2.77,.27-8.9,2.97-16.21,7.82-21.13,3.09-3.14,7.01-5.31,11.66-6.47,1.54-.37,3.14-.56,4.79-.56,9.58,0,19.67,6.11,23.5,14.22,3.66,7.42,2.45,16.69-3.7,28.36L29.87,208.58c-.1,.97-.28,1.82-.35,2.14-.1,.43-.25,.84-.45,1.23l-4.8,9.11c-.08,.15-.17,.3-.26,.44-1.33,2.01-3.59,3.16-6.19,3.16h0Z"/><path class="e" d="M12.82,219.65c-1.74,0-3.64-.52-5.38-1.47-4.6-2.32-6.72-6.61-5.16-10.49,.06-.16,.13-.31,.21-.46l4.8-9.11c.2-.38,.45-.74,.75-1.06,.49-.53,1.04-1.05,1.57-1.5L93.52,36.23c4.51-8.17,3.83-11.38,2.93-13.08-1.14-2.16-3.71-3.92-6.26-4.28-.28-.04-.57-.06-.84-.06-3.57,0-6.21,3.36-6.88,6.52-.33,1.55-.39,3.56-.4,5.14-.01,1.32-.55,2.59-1.49,3.52-1.77,1.74-4.22,2.7-6.91,2.7-3.47,0-6.7-1.6-8.22-4.08-.51-.83-.77-1.79-.74-2.77,.27-8.9,2.97-16.21,7.82-21.13,3.09-3.14,7.01-5.31,11.66-6.47,1.54-.37,3.14-.56,4.79-.56,9.58,0,19.67,6.11,23.5,14.22,3.66,7.42,2.45,16.69-3.7,28.36L24.87,203.58c-.1,.97-.28,1.82-.35,2.14-.1,.43-.25,.84-.45,1.23l-4.8,9.11c-.08,.15-.17,.3-.26,.44-1.33,2.01-3.59,3.16-6.19,3.16h0Z"/><g><path class="i" d="M104.35,41.94c4.35-8.24,7.03-17,3.62-23.85-3.46-7.39-14.3-12.99-22.58-10.99-3.9,.97-6.98,2.76-9.3,5.12-4.33,4.4-6.17,10.89-6.38,17.78,1.04,1.7,5.18,2.57,7.36,.43,.02-2.15,.12-4.28,.51-6.13,1.31-6.19,6.77-11.31,13.33-10.37,4.11,.59,8.06,3.27,9.97,6.9,2.27,4.31,1.54,9.65-2.93,17.74-27.93,53.04-61.72,117.2-89.66,170.24-.83,2.35,4.97,5.49,6.4,3.37,27.93-53.04,61.72-117.2,89.66-170.24h0Z"/><path class="m" d="M103.58,41.53c4.35-8.24,6.93-16.39,3.64-23.17-3.52-7.27-13.86-12.31-21.78-10.41-10.94,2.72-14.48,12.06-14.83,21.96,1.51,.99,3.63,1.39,5.63,.21,.07-6.16,.88-11.3,7.01-15.35,6.13-4.06,14.51-.76,18.1,5.17,2.9,4.78,1.84,10.93-2.63,19.03-27.93,53.04-61.62,117.01-89.56,170.05-.42,1.59,3.84,3.91,4.87,2.57,27.93-53.04,61.62-117.01,89.56-170.05h0Z"/><path class="c" d="M103.2,41.33c4.35-8.24,6.52-15.62,3.23-22.4-3.53-7.27-12.13-11.88-20.05-9.99-10.91,2.71-14,11.86-14.26,21.68,1.14,.34,2.43,.33,3.69-.28,0-6.47,.61-12.22,6.86-16.36,6.13-4.06,15.48-.74,19.07,5.19,2.89,4.78,2.58,12.31-1.88,20.4-27.93,53.04-61.62,117.01-89.56,170.05-.42,1.59,2.49,2.62,3.34,1.76,27.93-53.04,61.62-117.01,89.56-170.05h0Z"/><path class="j" d="M102.75,41.09c4.35-8.24,6.38-16.03,3.09-22.81-3.53-7.27-11.32-9.94-19.24-8.04-9.67,1.96-12.97,10.85-13.32,20.59,.78,.05,1.6-.07,2.4-.43,0-6.17,.7-12.26,6.36-16.01,6.13-4.06,17.12-1.5,20.71,4.43,2.89,4.77,2.28,13.03-2.19,21.12-12.22,23.2-50.58,97-90.12,171.09,.62,.43,1.37,.77,2.04,.9C51.51,137.64,90.53,64.28,102.75,41.09h0Z"/><path class="g" d="M10.22,210.87c.15,.12,.31,.23,.48,.33,3.1-7.18,7.09-17.25,9.7-23.53l-3.14,5.97c-1.51,4.23-5,12.41-7.03,17.23h0Zm25.16-51.64l-7.02,13.33c6.71-10.79,27.97-47.87,33.42-58.69,3.7-7.34,15.01-25.45,18.58-32.81-4.08,5.9-17.35,28.98-19.38,32.99-3.96,7.87-16.48,29.7-25.6,45.17h0Z"/><path class="l" d="M67.5,110.04c3.58-7.45,9.01-19.12,10.95-23.58-3.98,7.19-10.33,21.53-14.21,28.79-1.64,3.06-4.24,8.4-7.24,14.72l10.5-19.93h0Z"/><path class="l" d="M23.84,192.74c-2.67,3.19-4.08,1.69-3.45-2.06,.33-1.97,1.5-4.74,2.76-7.39,2.23-4.71,5.62-10.76,9.78-16.57-2.5,4.43-7.41,12.44-9.75,17.93-1.22,2.85-1.76,4.83-1.88,6.15-.26,2.92,1.51,2.71,2.54,1.95h0Z"/><path class="g" d="M30.23,172.91c-1.73,2.28-5.69,9.89-6.45,11.67-2.1,4.91-.49,5.41,.07,5.23,1.99-.65,6.25-10.21,9.04-14.94,2.65-4.51,6.28-14.62,14.28-29.47-8.54,13.15-10.83,21.81-13.82,27.04-3.43,6-6.96,14.26-8.98,15.96-.6,.5-1.25-.37-.1-3.65,.61-1.72,4.12-8.64,5.96-11.85h0Z"/><path class="l" d="M25.88,184.21c4.95-8.11,7.34-15.99,10.63-22.87,2.25-4.71,22.22-37.25,32.13-59.03-10.1,24.54-29,53.94-31.66,59.32-4.45,9-7.97,18.98-11.1,22.58h0Z"/><path class="l" d="M86.18,62.76c-4.85,10-13.94,27.35-18.44,35.41-.71,1.27-2.56,4.61-4.72,8.56l-9.09,17.26c-.13,.27-.24,.52-.34,.74,3.53-6.08,11.05-19.73,14.49-25.89,5.3-9.49,17.28-31.25,20.61-39.42,1.35-3.31,3.55-7.95,6.26-13.31l-8.78,16.66h0Z"/><path class="l" d="M101.97,31.64c-.35,1.11-.8,2.27-1.33,3.47,2.42-4.57,5.12-9.59,3.53-14.6,.44,4.86-1.52,9.88-2.2,11.13h0Z"/><path class="g" d="M65.92,111.38c4.24-11.82,22.81-42.67,28.41-54.1,4.23-8.64,9.49-17.61,11.89-26.33,1.16-4.22,1.54-8.3,.79-12.32,4.93,11.14-10.06,34.55-12.14,38.79-5.39,11-24.02,43.47-28.95,53.96h0Z"/><path class="m" d="M99.77,43.03c-9.04,17.71-18.26,35.35-24.44,45.08,5.74-10.78,14.8-28.57,23.75-46.09,3.25-6.35,9.48-16.14,4.76-25.27,6.17,8.42-2.06,22.35-4.07,26.29h0Z"/><path class="m" d="M12.28,211.88c2.74-4.9,6.97-13.4,7.8-17.07-1.62,4.15-5.93,12.39-8.49,16.84,.23,.1,.47,.17,.69,.23h0Z"/><path class="b" d="M75.97,30.26c-.03-6.66,.84-12.21,7.11-16.55,5.42-3.75,13.83-.95,18.02,3.76-4.65-7.12-14.75-7.28-18.63-4.6-6.46,4.47-7.2,10.66-7.11,17.65,.2-.07,.4-.16,.6-.27h0Z"/><path class="m" d="M76.75,17.36c1.05-2.98,4.01-4.33,6.64-6.08,3.68-2.44,8.77-1.4,12.68,.51,4.7,2.29,6.96,7,7.44,11.68,.1-6.71-3.12-10.34-7.47-12.46-4.16-2.02-8.77-2.78-12.95,0-1.02,.67-6.47,3.51-6.34,6.37h0Z"/><path class="l" d="M73.96,30.83c-.02-2.78-.07-7.48,1.57-12.14-2.29,3.36-2.17,8.1-2.15,11.61v.53c.19,0,.38,0,.58,0h0Z"/><path class="g" d="M71.7,30.47c.61-7.56,2.73-13.59,4.27-16.93-.41,.47-.8,.97-1.15,1.48-1.54,3.53-3.5,9.18-3.62,15.22,.16,.08,.33,.16,.5,.22h0Z"/><path class="b" d="M84.09,8.33c4.35-.28,9.91,.85,12.66,2.19,4.7,2.29,8.72,6.24,9.36,9.38-.47-5.13-4.81-8.12-9.16-10.24-2.24-1.09-6.01-1.92-9.65-2.03-.63,.07-1.25,.17-1.85,.31-.46,.12-.91,.24-1.35,.38h0Z"/><path class="l" d="M74.4,19.4c2.93-6.36,7.69-9.66,11.98-10.61-6.99,.62-10.52,5.4-11.98,10.61h0Z"/><path class="n" d="M14.85,213.72c1.87-3.54,2.93-5.56,4.8-9.11,.18-.79,.3-1.74,.29-2.33-1-.02-2.33-.49-3.52-1.14-1.22-.61-2.35-1.44-2.93-2.26-.5,.33-1.21,.96-1.76,1.56-1.87,3.54-2.93,5.56-4.8,9.11-.62,1.54,.95,3.26,2.85,4.2,1.85,1.04,4.15,1.35,5.07-.03h0Z"/><path class="h" d="M14.48,212.97l4.09-7.77c-1.77-.14-4.16-1.4-5.77-2.73l-4.75,9.01c.47,.63,1.2,1.19,2,1.58,1.6,.9,3.61,1.15,4.42-.08h0Z"/><path class="f" d="M14.51,203.67l-4.84,9.18c.12,.07,.25,.14,.37,.2,.8,.45,1.71,.74,2.52,.76l4.68-8.89c-.9-.27-1.85-.72-2.74-1.26h0Z"/><path class="h" d="M18.92,204.69c.18-.73,.23-1.44,.23-1.98-1.31-.16-3.4-1.15-4.71-2.18l-1.35,1.56c1.54,1.2,4.31,2.66,5.84,2.61h0Z"/><path class="f" d="M18.1,202.46c-.73-.24-1.55-.61-2.3-1.03-.21,.42-.69,1.13-.99,1.79,.9,.52,1.88,.98,2.75,1.24l.55-2h0Z"/><path class="d" d="M17.68,202.32c-.28-.11-.58-.23-.87-.36-.22,.62-.73,1.76-.79,1.91,.37,.17,.74,.33,1.09,.46,.19-.67,.38-1.34,.56-2h0Z"/><path class="d" d="M15.72,204.32l-4.81,9.13c.39,.15,.78,.26,1.16,.31l4.73-8.99c-.36-.13-.72-.28-1.09-.46h0Z"/></g></svg>