<?xml version="1.0" encoding="utf-8"?>
<!-- Generator: Adobe Illustrator 26.2.1, SVG Export Plug-In . SVG Version: 6.00 Build 0)  -->
<svg version="1.1" id="a" xmlns="http://www.w3.org/2000/svg" xmlns:xlink="http://www.w3.org/1999/xlink" x="0px" y="0px"
	 viewBox="0 0 253 255" style="enable-background:new 0 0 253 255;" xml:space="preserve">
<style type="text/css">
	.st0{opacity:0.5;}
	.st1{clip-path:url(#SVGID_00000083805180310559826810000014092327228728712633_);}
	.st2{fill:url(#SVGID_00000044864384561803356900000003357703900823955622_);}
	.st3{fill-rule:evenodd;clip-rule:evenodd;fill:#9DC2D4;}
	.st4{fill-rule:evenodd;clip-rule:evenodd;fill:#A1C96D;}
	.st5{fill:none;}
	.st6{clip-path:url(#SVGID_00000061469801141362670220000015274041466462093753_);}
	.st7{fill-rule:evenodd;clip-rule:evenodd;fill:#5C6163;}
	.st8{fill:#818F96;}
	.st9{fill:#73828A;}
	.st10{fill:#63747D;}
	.st11{opacity:0.63;}
	.st12{fill:#3D8723;}
	.st13{opacity:0.3;fill:#000B19;enable-background:new    ;}
	.st14{fill:#091E28;}
	.st15{fill:#0C2635;}
	.st16{fill:#F0F2F8;}
	.st17{fill:#A6B3C6;}
	.st18{fill:#56595B;}
	.st19{fill:#225EC4;}
	.st20{fill:#6C8094;}
	.st21{fill:#153B4F;}
	.st22{opacity:0.1;fill:#231F20;enable-background:new    ;}
	.st23{fill:#EE252C;}
	.st24{fill:#FFFFFF;}
	.st25{opacity:0.4;fill:#FFFFFF;enable-background:new    ;}
	.st26{fill:#647A7A;}
	.st27{fill:none;stroke:#404041;stroke-width:0.65;stroke-linejoin:round;}
	.st28{opacity:0.1;fill:#0C1B24;enable-background:new    ;}
	.st29{fill:#A6A8AB;}
	.st30{fill-rule:evenodd;clip-rule:evenodd;fill:#0C2635;}
	.st31{fill-rule:evenodd;clip-rule:evenodd;fill:#F0F2F8;}
	.st32{fill:#CCCCCC;}
</style>
<g>
	<path class="st0" d="M209.2,6.6H44.9c-22,0-40,17.9-40,40v164.3c0,24.2,19.6,43.8,43.8,43.8h160.4c24.2,0,43.8-19.6,43.8-43.8V50.4
		C253,26.3,233.4,6.6,209.2,6.6L209.2,6.6z M245.9,210.9c0,20.3-16.4,36.7-36.7,36.7H48.7c-20.3,0-36.7-16.4-36.7-36.7V49.2
		c0-19.6,15.9-35.5,35.5-35.5h161.6c20.3,0,36.7,16.5,36.7,36.7V210.9z"/>
	<g>
		<defs>
			<path id="SVGID_1_" d="M33.2,7.3h181.8c14.4,0,26.1,11.7,26.1,26.1v181.8c0,14.4-11.7,26.1-26.1,26.1H33.2
				C18.7,241.4,7,229.7,7,215.2V33.5C7,19,18.7,7.3,33.2,7.3z"/>
		</defs>
		<clipPath id="SVGID_00000049195141500441521060000008051773179371112889_">
			<use xlink:href="#SVGID_1_"  style="overflow:visible;"/>
		</clipPath>
		<g style="clip-path:url(#SVGID_00000049195141500441521060000008051773179371112889_);">
			<g>
				
					<linearGradient id="SVGID_00000083069527855668574650000009695469826538140335_" gradientUnits="userSpaceOnUse" x1="-124.5401" y1="-314.5649" x2="365.4899" y2="543.195" gradientTransform="matrix(1 0 0 -1 0 256)">
					<stop  offset="0.2" style="stop-color:#C5F7FD"/>
					<stop  offset="0.34" style="stop-color:#B2EFFD"/>
					<stop  offset="0.66" style="stop-color:#8EE0FD"/>
					<stop  offset="0.83" style="stop-color:#80DBFD"/>
				</linearGradient>
				
					<rect x="-221.8" y="-135" style="fill:url(#SVGID_00000083069527855668574650000009695469826538140335_);" width="849.2" height="265.3"/>
				<g>
					<path class="st3" d="M9,47.2V34.9H7.3v10.9l-0.7-0.6v18.2H3.2v47.7l-5.4,7.2h-4.4l-29.1-19.7V81.1l-22,12.8v8.2h-4.2v2.7h3.2
						v0.7H-59v0.5h0.5v1H-65v3.3h-1.3v-5.1h1.7v-0.8h-1.7v-5.1h1.7v-0.8h-1.7v-5.1h1.7v-0.8h-1.7v-5.1h1.7v-0.8h-1.7v-5.1h1.7v-0.8
						h-1.7v-5.1h1.7v-0.8h-1.7V70h1.7l0.1-12.7h-18.3l-6.2,4.4h-31.4V70h1.5v4.7h-1.4v0.8h1.4v5.1h-1.4v0.8h1.4v5.1h-1.4v0.8h1.4
						v5.1h-1.4v0.8h1.4v5.1h-1.4v0.8h1.4v5.1h-1.4v0.8h1.4v5.1h-1.4v0.8h1.4v5.1h-1.4v0.8h1.4v5.1h-1.4v0.8h1.4v1.8h-1.3v-0.2h-0.4
						v-2.6h0.4v-0.4h-0.4v-2.6h0.4v-0.4h-0.4v-2.6h0.4v-0.4h-0.4v-2.6h0.4v-0.4h-0.4v-2.3h0.1v-3.4h-4v-3.3h-32.5v3.3h-4v3.4h0.1
						v2.3h-0.4v0.4h0.4v2.6h-0.4v0.4h0.4v2.6h-0.4v0.4h0.4v2.6h-0.4v0.4h0.4v1.1h-3.9v-2.1h0.3v-0.4h-0.3v-2h0.1v-2.9h-2.9v-2.8
						h-23.9v2.8h-2.9v2.9h0.1v2h-0.3v0.4h0.3v2.2h-0.3v0.4h0.3v2.2h-0.3v0.4h0.3v2.2h-0.3v0.4h0.3v2.2h-0.3v0.4h0.3v2.2h-0.3v0.4
						h0.3v2.2h-0.3v0.4h0.3v2.2h-0.3v0.4h0.3v2.2h-0.3v0.4h0.3v2.2h-0.3v0.4h0.3v2.2h-0.3v0.4h0.3v2.2h-0.3v0.4h0.3v2.2h-0.3v0.4
						h0.3v2.2h-0.3v0.4h0.3v2.5h-1.9v2.7h1.9v1.7h-1.9v2.7h78.2v-2.1h53.6v-1.9h2.9v3.4h24.4l-0.9,4.9h37.5l-1.2-6.5h2.1v-1.5h3.1
						v4.1h44.4l-0.1-0.6h43.8v-1.7h2v1h103.5v1h7.6c-0.1,0.2-0.2,0.4-0.3,0.5h99.7c-5.8-11.7-23.8-20.5-45.6-21.6v-0.1h0.2v-0.4
						h-0.2v-2.7h0.2v-0.4h-0.2v-2.7h0.2v-0.4h-0.2v-2.7h0.2v-0.4h-0.2v-2.7h0.2v-0.4h-0.2v-2.7h0.2v-0.4h-0.2V124h0.2v-0.4h-0.2
						v-2.7h0.2v-0.4h-0.2v-2.7h0.2v-0.4h-0.2v-2.7h0.2v-0.4h-0.2v-2.7h0.2V111h-0.2v-2.4h0v-3.5H256v-3.4H239v-3.4h-18.9v3.6h-0.6
						v-0.2h-18.9v3.4h-2.3v3.5h0.1v2.4h-0.2v0.4h0.2v2.7h-0.2v0.4h0.2v2.7h-0.2v0.4h0.2v2.7h-0.2v0.4h0.2v1.9h-3.7v-12l-20.8-12.1
						v24h-2.1v-12.5h-34.1v-2.8h-35.9v-9.3H50.8v9.3H39.9L36.3,81c-2.7-10.8-8.5-16.3-16.8-17.6H18v-8.2L9,47.2L9,47.2L9,47.2z
						 M-35.6,102.1L-35.6,102.1C-27.5,102.1-27.5,102.1-35.6,102.1L-35.6,102.1z M-65,151.6v-5.1h-1.3v5.1H-65z M-65,145.7v-5.1
						h-1.3v5.1H-65z M-65,139.8v-5.1h-1.3v5.1H-65z M-65,133.9v-5.1h-1.3v5.1H-65z M-65,127.9v-5.1h-1.3v5.1H-65z M-65,122v-5.1
						h-1.3v5.1H-65z M-65,116.1V111h-1.3v5.1H-65z M42.3,125.2v-2.4H42l-0.3-2.1h0.9v6.9L42.3,125.2L42.3,125.2L42.3,125.2z
						 M42.6,117.3h-1.4l-0.9-6.5h2.3V117.3L42.6,117.3z M7.7,24.5h0.9v10.4H7.7V24.5C7.7,24.5,7.7,24.5,7.7,24.5z"/>
					<path class="st3" d="M455.8,37.6V25.3h-1.6v10.9l-0.6-0.6v18.2h-3.5v47.7l-5.4,7.2h-4.4L411.2,89V71.5l-22,12.8v8.2h-4.1v2.7
						h3.2v0.7h-0.5v0.5h0.5v1h-6.5v3.3h-1.3v-5.1h1.7v-0.8h-1.7v-5.1h1.7v-0.8h-1.7v-5.1h1.7v-0.8h-1.7v-5.1h1.7v-0.8h-1.7v-5.1h1.7
						v-0.8h-1.7v-5.1h1.7V65h-1.7v-4.7h1.7l0.1-12.7H364l-6.2,4.4h-31.4v8.2h1.5V65h-1.4v0.8h1.4v5.1h-1.4v0.8h1.4v5.1h-1.4v0.8h1.4
						v5.1h-1.4v0.8h1.4v5.1h-1.4v0.8h1.4v5.1h-1.4v0.8h1.4v5.1h-1.4v0.8h1.4v5.1h-1.4v0.8h1.4v5.1h-1.4v0.8h1.4v1.8h-1.3v-0.2h-0.4
						v-2.6h0.4v-0.4h-0.4v-2.6h0.4v-0.4h-0.4V106h0.4v-0.4h-0.4v-2.6h0.4v-0.4h-0.4v-2.3h0.1v-3.4h-4v-3.3h-32.5v3.3h-4v3.4h0.1v2.3
						h-0.4v0.4h0.4v2.6h-0.4v0.4h0.4v2.6h-0.4v0.4h0.4v2.6h-0.4v0.4h0.4v1.1h-3.9v-2.1h0.3v-0.4h-0.3v-2h0.1v-2.9h-2.9v-2.8h-23.9
						v2.8h-2.9v2.9h0.1v2H252v0.4h0.3v2.2H252v0.4h0.3v2.2H252v0.4h0.3v2.2H252v0.4h0.3v2.2H252v0.4h0.3v2.2H252v0.4h0.3v2.2H252
						v0.4h0.3v2.2H252v0.4h0.3v2.2H252v0.4h0.3v2.2H252v0.4h0.3v2.2H252v0.4h0.3v2.2H252v0.4h0.3v2.2H252v0.4h0.3v2.2H252v0.4h0.3
						v2.5h-1.9v2.7h1.9v1.7h-1.9v2.7h78.2v-2.1h53.6v-1.9h2.9v3.4h24.4l-0.9,4.9h37.5l-1.2-6.5h2.1v-1.5h3.1v4.1h44.4l-0.1-0.6h43.8
						v-1.7h2v1h103.5v1h7.5c-0.1,0.2-0.2,0.4-0.3,0.5h99.7c-5.8-11.7-23.8-20.5-45.6-21.6v-0.1h0.2v-0.4h-0.2v-2.7h0.2v-0.4h-0.2
						v-2.7h0.2v-0.4h-0.2v-2.7h0.2v-0.4h-0.2v-2.7h0.2v-0.4h-0.2v-2.7h0.2v-0.4h-0.2v-2.7h0.2v-0.4h-0.2v-2.7h0.2v-0.4h-0.2v-2.7
						h0.2v-0.4h-0.2v-2.7h0.2v-0.4h-0.2v-2.7h0.2v-0.4h-0.2V99h0v-3.5h-2.3v-3.4h-16.9v-3.4H667v3.6h-0.6v-0.2h-18.9v3.4h-2.3V99h0
						v2.4H645v0.4h0.2v2.7H645v0.4h0.2v2.7H645v0.4h0.2v2.7H645v0.4h0.2v1.9h-3.7v-12l-20.8-12.1v24h-2.1v-12.5h-34.1v-2.8h-35.9
						v-9.3h-50.9v9.3h-10.9l-3.6-26.4c-2.7-10.8-8.5-16.3-16.8-17.6h-1.5v-8.2L455.8,37.6L455.8,37.6L455.8,37.6z M411.2,92.5
						L411.2,92.5C419.4,92.5,419.4,92.5,411.2,92.5L411.2,92.5z M381.9,142v-5.1h-1.3v5.1H381.9z M381.9,136.1V131h-1.3v5.1H381.9z
						 M381.9,130.2v-5.1h-1.3v5.1H381.9z M381.9,124.3v-5.1h-1.3v5.1H381.9z M381.9,118.3v-5.1h-1.3v5.1H381.9z M381.9,112.4v-5.1
						h-1.3v5.1H381.9z M381.9,106.5v-5.1h-1.3v5.1H381.9z M489.2,115.6v-2.4h-0.3l-0.3-2.1h0.9v6.9L489.2,115.6L489.2,115.6
						L489.2,115.6z M489.5,107.7h-1.4l-0.9-6.5h2.3V107.7L489.5,107.7z M454.5,14.9h0.9v10.4h-0.9V14.9L454.5,14.9z"/>
					<polygon class="st4" points="611.4,285.4 -209.3,285.4 -209.3,125 611.4,125 611.4,285.4 					"/>
					<polygon class="st5" points="611.4,285.4 -209.3,285.4 -209.3,125 611.4,125 611.4,285.4 					"/>
					<g>
						<defs>
							<polygon id="SVGID_00000106847951324674717870000002777138988534005381_" points="611.4,285.4 -209.3,285.4 -209.3,125 
								611.4,125 611.4,285.4 							"/>
						</defs>
						<clipPath id="SVGID_00000031174860628208705700000004151674690937878151_">
							<use xlink:href="#SVGID_00000106847951324674717870000002777138988534005381_"  style="overflow:visible;"/>
						</clipPath>
						<g style="clip-path:url(#SVGID_00000031174860628208705700000004151674690937878151_);">
							<path class="st7" d="M-284.1,143.7c266.1-2.2,751.6,26.1,812.7,151.5H118.7c-54.1-136-250-132.4-403.2-141.2
								c0-1.1,0.3-1.4,0.3-2.5v-1.2l-0.4,0l-0.1-5.6l0.6,0L-284.1,143.7L-284.1,143.7L-284.1,143.7z"/>
							<path class="st5" d="M-284.1,143.7c266.1-2.2,751.6,26.1,812.7,151.5H118.7c-54.1-136-250-132.4-403.2-141.2
								c0-1.1,0.3-1.4,0.3-2.5v-1.2l-0.4,0l-0.1-5.6l0.6,0L-284.1,143.7L-284.1,143.7L-284.1,143.7z"/>
						</g>
					</g>
					<path class="st8" d="M246.3,215.7c20.7,8.1,39.8,16.9,56.6,26.6h-14c-16.4-9.3-34.9-17.9-54.9-25.7L246.3,215.7L246.3,215.7
						L246.3,215.7z"/>
					<path class="st5" d="M246.3,215.7c20.7,8.1,39.8,16.9,56.6,26.6h-14c-16.4-9.3-34.9-17.9-54.9-25.7L246.3,215.7L246.3,215.7
						L246.3,215.7z"/>
					<path class="st9" d="M184.7,195.2c16,4.6,31.5,9.5,46.3,14.8h-14.6c-13.8-4.9-28.1-9.5-42.9-13.8l11.2-0.8L184.7,195.2
						L184.7,195.2z"/>
					<path class="st5" d="M184.7,195.2c16,4.6,31.5,9.5,46.3,14.8h-14.6c-13.8-4.9-28.1-9.5-42.9-13.8l11.2-0.8L184.7,195.2
						L184.7,195.2z"/>
					<path class="st10" d="M122.8,179.7c15.1,3.3,30,6.9,44.5,10.8h-14.6c-14.4-3.8-29.2-7.4-44.2-10.8
						C108.6,179.7,122.8,179.7,122.8,179.7z"/>
					<path class="st5" d="M122.8,179.7c15.1,3.3,30,6.9,44.5,10.8h-14.6c-14.4-3.8-29.2-7.4-44.2-10.8
						C108.6,179.7,122.8,179.7,122.8,179.7z"/>
					<polygon class="st7" points="-156.7,144.5 611.2,144.5 611.2,164.3 -156.7,144.5 					"/>
					<polygon class="st5" points="-156.7,144.5 611.2,144.5 611.2,164.3 -156.7,144.5 					"/>
				</g>
				<g class="st11">
					<path class="st12" d="M16.6,215.3c0,0,3.4-2.9,9.9-3.7c6.5-0.7-7-3.9-11.8,3.7C14.6,215.3,12.5,218.7,16.6,215.3z"/>
					<path class="st12" d="M7.4,215.7c0,0,9.9-9.4,15.7-11.9c5.8-2.5-5.6-2.7-13.3,5.1C9.8,208.9,6,213.6,7.4,215.7z"/>
					<path class="st12" d="M4.5,215.7c0,0,6.6-15.3,9.6-17.2s-4.7-2.9-9.6,9.5C4.5,208.1,2.6,214.7,4.5,215.7z"/>
					<path class="st12" d="M1,215.7c0,0,2.5-14,4.9-16.1C8.4,197.5-3.2,201.9,1,215.7z"/>
				</g>
				<g class="st11">
					<path class="st12" d="M213.2,163.2c0,0,1.7-1.5,5-1.9c3.3-0.4-3.5-1.9-6,1.9C212.2,163.2,211.1,164.9,213.2,163.2z"/>
					<path class="st12" d="M208.5,163.4c0,0,5-4.8,7.9-6s-2.8-1.4-6.7,2.6C209.8,160,207.8,162.4,208.5,163.4L208.5,163.4z"/>
					<path class="st12" d="M207.1,163.4c0,0,3.3-7.7,4.8-8.7s-2.4-1.5-4.8,4.8C207.1,159.6,206.1,162.9,207.1,163.4L207.1,163.4z"/>
					<path class="st12" d="M205.3,163.4c0,0,1.3-7.1,2.5-8.1C209,154.2,203.2,156.4,205.3,163.4z"/>
					<path class="st12" d="M204.6,163.4c0,0,0.1-5.9-2.6-6.8C199.4,155.7,203.5,160.5,204.6,163.4z"/>
					<path class="st12" d="M203.7,163.4c0,0-1.6-6.8-5.7-6.9S201.2,159,203.7,163.4z"/>
					<path class="st12" d="M203.4,163.4c0,0-2.1-2.8-5.8-2.5S202.5,162.6,203.4,163.4z"/>
				</g>
				<g class="st11">
					<path class="st12" d="M101.6,142.4c0,0,1.4-1.3,4.2-1.6c2.8-0.3-3-1.6-5.1,1.6C100.8,142.4,99.9,143.8,101.6,142.4L101.6,142.4
						z"/>
					<path class="st12" d="M97.7,142.6c0,0,4.2-4,6.7-5.1s-2.4-1.2-5.7,2.2C98.7,139.7,97.1,141.7,97.7,142.6L97.7,142.6z"/>
					<path class="st12" d="M96.4,142.6c0,0,2.8-6.5,4.1-7.3c1.3-0.8-2-1.2-4.1,4.1C96.4,139.3,95.6,142.1,96.4,142.6L96.4,142.6z"/>
					<path class="st12" d="M94.9,142.6c0,0,1.1-6,2.1-6.9C98.1,134.8,93.1,136.7,94.9,142.6z"/>
					<path class="st12" d="M94.3,142.6c0,0,0.1-5-2.2-5.8S93.5,140.1,94.3,142.6z"/>
					<path class="st12" d="M93.6,142.6c0,0-1.4-5.7-4.8-5.9C85.4,136.6,91.5,138.8,93.6,142.6z"/>
					<path class="st12" d="M93.3,142.6c0,0-1.8-2.3-4.9-2.1C85.3,140.6,92.6,141.8,93.3,142.6z"/>
				</g>
				<path class="st13" d="M55.1,194.8c-0.3,0-0.6,0.3,1.2,0.7c9.5,2.6,35.1,8.5,44.8,10.7c11.8,2.6,20.3,2.9,30.1,2.9
					s41.1-2.2,45.5-3c4.4-0.8-6.4-4.6-18-5.7s-63.1-8.7-63.1-8.7S56.7,194.6,55.1,194.8L55.1,194.8z"/>
				<g>
					<path class="st14" d="M55,182.9l11.9,5.7l26.6,3.5l20.1,1l31.3-1.6l-9.1-23.5l-76.6,2.1c0,0-3.2,2.5-4,5.5S55,182.9,55,182.9
						L55,182.9z"/>
					<g>
						<path class="st15" d="M115.2,190.4c0,8-2.8,14.4-6.3,14.4s-6.3-6.5-6.3-14.4s2.8-14.4,6.3-14.4S115.2,182.4,115.2,190.4z"/>
						<polygon class="st15" points="108.8,176 100.9,176 100.7,205.2 108.8,204.8 						"/>
						<path class="st15" d="M107.3,190.6c0,8.1-2.9,14.6-6.6,14.6s-6.6-6.5-6.6-14.6s2.9-14.6,6.6-14.6S107.3,182.5,107.3,190.6z"/>
						<path class="st16" d="M105.2,190.6c0,6.2-2.2,11.2-4.9,11.2s-4.9-5-4.9-11.2s2.2-11.2,4.9-11.2S105.2,184.4,105.2,190.6
							L105.2,190.6z"/>
						<path class="st16" d="M104.5,190.6c0,5.6-1.9,10.1-4.3,10.1s-4.3-4.5-4.3-10.1s1.9-10.1,4.3-10.1S104.5,185,104.5,190.6
							L104.5,190.6z"/>
						<polygon class="st16" points="99.6,179.8 100.5,188.9 96.1,185.6 95.7,187.5 100.3,191 96.6,197.2 97.2,198.9 101,192.5 
							102.5,200.3 103.3,198.9 101.9,190.9 105,188.7 104.7,186.4 101.7,188.7 100.9,179.6 						"/>
						<path class="st17" d="M102.4,190.6c0,1.8-0.6,3.2-1.4,3.2s-1.4-1.4-1.4-3.2s0.6-3.2,1.4-3.2S102.4,188.8,102.4,190.6z"/>
						<path class="st16" d="M102.2,190.6c0,0.9-0.3,1.5-0.7,1.5s-0.7-0.7-0.7-1.5s0.3-1.5,0.7-1.5S102.2,189.7,102.2,190.6z"/>
					</g>
					<g>
						<path class="st15" d="M69.5,184.5c0,6-1.9,10.9-4.3,10.9s-4.3-4.9-4.3-10.9s2-10.9,4.3-10.9C67.5,173.5,69.5,178.4,69.5,184.5
							z"/>
						<polygon class="st15" points="65.2,173.5 59.7,173.5 59.6,195.6 65.2,195.4 						"/>
						<path class="st15" d="M64.1,184.6c0,6.1-2,11.1-4.5,11.1s-4.5-4.9-4.5-11.1s2-11.1,4.5-11.1S64.1,178.5,64.1,184.6z"/>
						<path class="st16" d="M62.6,184.6c0,4.7-1.5,8.5-3.3,8.5s-3.3-3.8-3.3-8.5s1.5-8.5,3.3-8.5S62.6,179.9,62.6,184.6z"/>
						<path class="st16" d="M62.2,184.6c0,4.2-1.3,7.6-2.9,7.6s-2.9-3.4-2.9-7.6s1.3-7.6,2.9-7.6S62.2,180.4,62.2,184.6z"/>
						<polygon class="st16" points="58.8,176.4 59.4,183.3 56.4,180.8 56.2,182.3 59.3,184.9 56.8,189.6 57.2,190.8 59.8,186 
							60.8,191.9 61.4,190.9 60.4,184.9 62.5,183.2 62.3,181.4 60.3,183.2 59.7,176.3 						"/>
						<path class="st17" d="M60.7,184.6c0,1.4-0.4,2.4-1,2.4s-1-1.1-1-2.4s0.4-2.4,1-2.4S60.7,183.2,60.7,184.6z"/>
						<path class="st16" d="M60.6,184.6c0,0.6-0.2,1.2-0.5,1.2s-0.5-0.5-0.5-1.2s0.2-1.2,0.5-1.2S60.6,183.9,60.6,184.6z"/>
					</g>
					<g>
						<ellipse class="st15" cx="164.1" cy="188.5" rx="6.9" ry="13.2"/>
						<polygon class="st15" points="164.1,175.3 155.4,175.3 155.2,202 164.1,201.7 						"/>
						<path class="st15" d="M162.5,188.7c0,7.4-3.2,13.3-7.2,13.3s-7.2-6-7.2-13.3s3.2-13.3,7.2-13.3S162.5,181.3,162.5,188.7z"/>
						<path class="st18" d="M160.1,188.7c0,5.6-2.4,10.2-5.3,10.2s-5.3-4.6-5.3-10.2s2.4-10.2,5.3-10.2S160.1,183,160.1,188.7z"/>
						<path class="st18" d="M159.4,188.7c0,5.1-2.1,9.2-4.7,9.2s-4.7-4.1-4.7-9.2s2.1-9.2,4.7-9.2S159.4,183.6,159.4,188.7z"/>
						<polygon class="st18" points="154,178.8 155,187.1 150.2,184.1 149.8,185.8 154.8,189 150.8,194.7 151.4,196.2 155.6,190.4 
							157.2,197.5 158.1,196.2 156.5,189 159.9,186.9 159.6,184.9 156.3,187 155.4,178.7 						"/>
						<path class="st17" d="M157.1,188.7c0,1.6-0.7,2.9-1.5,2.9s-1.5-1.3-1.5-2.9s0.7-2.9,1.5-2.9S157.1,187,157.1,188.7z"/>
						<path class="st16" d="M156.9,188.7c0,0.8-0.3,1.4-0.7,1.4s-0.7-0.6-0.7-1.4s0.3-1.4,0.7-1.4S156.9,187.9,156.9,188.7z"/>
					</g>
					<path class="st19" d="M55,182.9l0-2.6c0,0,1-8,4.2-8.5c3.9-0.6,5.3,4.3,5.8,8s1.3,9,3.3,9.3c4.3,0.7,9.3,1.3,13.8,1.8
						c4.5,0.4,11.4,1.3,11.4,1.3s-0.8-1.3-0.9-3.7s-1.3-16.5,7.7-17.2c6.9-0.6,9,8.9,9.9,13s2,8.2,3.4,8.9c1.3,0.8,8,0.8,13.6,0.5
						c5.5-0.3,40-1.6,43.5-2.1c3.5-0.4,6.8-1.7,7.8-5.8s2.5-9.6,1.4-11.6c-1.1-2-4.9-17.8-4.9-17.8l1.1-2.4c0,0-3.3-2.2-4.5-3
						c-3.7-2.7-17.2-7.8-20.5-9.5c-6.8-3.5-7.9-4.1-17.5-4.6s-19.3-0.3-28.9,0.3c-9.4,0.6-20.2,5.3-25.3,10s-13.2,15.2-13.2,15.2
						s-5.3,1.9-7.5,3.9s-2.7,2.9-3.2,5.1C54,177.4,54.2,179.8,55,182.9L55,182.9z"/>
					<path class="st20" d="M67.2,162.4c0,0,29.7-9.1,36.2-10.8c6.3-1.7,7.9-2.9,5.3-5.3c-5.4-5-8.5-6.4-14.8-5.2
						c-5,1-10.7,3.4-14.4,6.8C74.7,152.2,67.2,162.3,67.2,162.4L67.2,162.4z"/>
					<path class="st15" d="M108.7,146.3c-4.2-3.9-7-5.6-11-5.6c-1.1,0-2.4,0.1-3.8,0.4c-5,1-10.7,3.4-14.4,6.8
						c-4.8,4.4-12.3,14.5-12.3,14.5s29.7-9.1,36.2-10.8C109.6,149.9,111.3,148.7,108.7,146.3z M108.9,148.2c0,0-0.1,0.4-1.3,0.9
						c-0.9,0.4-2.4,0.9-4.5,1.5c-5.2,1.4-25.5,7.5-33.2,9.9c2.5-3.3,7.1-8.9,10.3-11.9c3.2-3,8.6-5.5,13.9-6.5
						c1.4-0.3,2.5-0.4,3.6-0.4c3.5,0,6,1.3,10.3,5.3C109,147.9,108.9,148.2,108.9,148.2L108.9,148.2z"/>
					<path class="st21" d="M67.2,162.4c0,0,29.7-9.1,36.2-10.8c6.3-1.7,7.9-2.9,5.3-5.3c-10.1-0.4-15.9,1.1-21.9,3.4
						C72.1,155.2,67.2,162.4,67.2,162.4L67.2,162.4z"/>
					<path class="st22" d="M64.2,169.5l-0.8-1.8c0,0,28.6-7.2,39-9.8c10.7-2.6,15.1-4.5,24.7-4.9c9.3-0.4,21.8-0.4,29.3-0.1
						c10.2,0.4,19.7,1.2,19.7,1.2l-1.1,2.4c0,0-9.8-0.9-19.6-1.3c-9.8-0.4-29.8-0.4-36.2,0.6c-6.4,1-53.6,12.6-53.6,12.6l0.6,5.3
						L64.2,169.5L64.2,169.5z"/>
					<g>
						<path class="st23" d="M140,159.9l6.6-4.6c0,0-14-0.4-25.3,0.7c-5.1,0.5-7.8,3.9-10.8,7.9C118.3,161.1,140,159.9,140,159.9
							L140,159.9z"/>
						<path class="st23" d="M161.2,155.7l5.8,4.6c4.5,0.7,7.1,1.1,9.3,1.7l-1.3-5.5c0,0-1.1,0-3.8-0.2
							C166.3,155.8,161.2,155.7,161.2,155.7L161.2,155.7z"/>
						<path class="st23" d="M140,159.9c0,0,8.9-0.4,15.5-0.2c6.2,0.1,11.6,0.6,11.6,0.6l-5.8-4.6c0,0-2.6-0.2-6.4-0.3
							s-8.1-0.1-8.1-0.1L140,159.9L140,159.9z"/>
					</g>
					<polygon class="st24" points="145.7,166 164.2,166 163.2,161.2 144.9,160.9 					"/>
					<path class="st25" d="M80.1,184.7c5.4,0,12.8,1.1,11.3,1.9c-1.5,0.8-10.1,0.6-14.2,0.5c-4.1-0.1-12-0.7-8.8-1.3
						C72,185.1,75.9,184.7,80.1,184.7z"/>
					<path class="st26" d="M171.6,151c0,0-7.4-0.5-17.5-0.9c-11.3-0.4-21.8-0.6-29.3-0.5c-6.4-4.9-14.3-12.7-20-12.4
						c0,0,14.7-1.1,22.9-0.8c7.7,0.3,12.5,0.7,15.1,1C150.2,138.4,158.5,143.4,171.6,151L171.6,151z"/>
					<path class="st20" d="M142.8,137.6c-2.6-0.3-7.4-0.8-15.1-1c-1,0-2.2-0.1-3.3-0.1c-8.3,0-19.6,0.8-19.6,0.8c0.1,0,0.2,0,0.4,0
						c5.7,0,13.3,7.5,19.7,12.4c1.3,0,2.6,0,4,0c7,0,15.9,0.2,25.3,0.5c10.1,0.4,17.5,0.9,17.5,0.9
						C158.5,143.4,150.1,138.4,142.8,137.6L142.8,137.6z M128.8,148.6c-1.3,0-2.5,0-3.7,0c-1.2-0.9-2.5-2-3.8-3.1
						c-3.5-2.9-7.1-5.8-10.5-7.6c3.9-0.2,9.2-0.4,13.6-0.4c1.2,0,2.3,0,3.3,0.1c5.9,0.2,10.9,0.6,15,1c6.4,0.7,13.9,4.9,24.8,11.2
						c-3.2-0.2-7.9-0.4-13.3-0.6C145.1,148.8,136.1,148.6,128.8,148.6L128.8,148.6z"/>
					<path class="st25" d="M140,159.9l4.8,6.6c0.2,0.2,0.5,0.4,0.8,0.4h18.6c0.4,0,0.8-0.3,0.9-0.7l1.9-6l-3.9,1l-18.1-0.3
						L140,159.9L140,159.9z"/>
					<path class="st22" d="M163.2,161.2l3.9-1c0,0-4.7-0.8-11.6-1c-6.9-0.2-15.5,0.7-15.5,0.7l4.9,1L163.2,161.2L163.2,161.2z"/>
					<g>
						<path class="st15" d="M113.6,193.7c-0.8-0.9-1.4-1.9-1.7-3.5c0,0,13.1-0.4,13.8-1.1c2.2-2.3,3.8-3.4,4.9-4.1
							c1.2-0.8,3.9-1.2,7-1.3c3.1-0.1,34.7-1.2,37.5-1.1c2.8,0.1,2.3,5.3,2.3,6.2s-3,2.7-5.7,3.1c-7.4,1.1-30.1,2-35.9,2.3
							C130,194.3,113.6,193.7,113.6,193.7L113.6,193.7z"/>
						<path class="st21" d="M66.7,187.4c0,0,6.4,0.8,12.4,1.2c6,0.5,13.7,0.4,13.7,0.4s0.6,2.2,0.7,2.5c0.2,0.5,0.8,0.6,0.8,0.6
							l0,0.9c0,0-11.1-1.8-15.1-2.3c-9.2-1.1-10.8-0.3-11.4-0.9S66.7,187.4,66.7,187.4L66.7,187.4z"/>
					</g>
					<g>
						<path class="st27" d="M105,172.6c0,0,3.3-5.3,5.7-9"/>
						<path class="st27" d="M124.8,149.7l3.2,3.4l-1.1,2.6c0,0,0.5,12.1,0.9,15.4c0.2,2.4,0.8,4.4,4.4,4.4c14.6,0,37.1-0.2,41.8-0.6
							c2.3-0.2,2.4-1.7,2.3-4.2c-0.1-2.5-2.3-14.4-2.3-14.4l0.6-2.4l-2.9-2.8"/>
						<polyline class="st27" points="102.4,141.7 103.1,151.7 101,158.2 100.7,160.9 97,172.3 						"/>
						<path class="st27" d="M69,190.1l-1.5-2.8v-1.5c0,0-1.5-11.9-1.7-15c-0.2-2.8-0.4-3.7-0.4-3.7l1.7-4.8"/>
						<path class="st27" d="M88.5,142.6l-6.2,15.2l-1.6,5.5l0.1,2.7c0,0-1.1,7.9-0.9,11.1s0.5,7.7,0.1,8.7s-0.9,1.3-0.9,1.3
							s-0.2,0.4,0.2,1.9c0.5,1.5,0.5,1.8,0.5,1.8"/>
					</g>
					<path class="st25" d="M175,156.5l-4.8-0.3c0,0,1.5,8.7,2.1,10.8c1.8,6.1,5.5,2.3,6.9,5.8C177.7,167.5,175,156.5,175,156.5
						L175,156.5z"/>
					<path class="st28" d="M172.5,173.6c-0.2-2.4-2.2-17.4-2.2-17.4c-15.1-0.8-25.9-1.2-43.4-0.6c0,0,0.7,14.9,1.3,17.6
						c0.6,2.8,4.3,2.4,4,5.1c-0.3,2.7-1.4,8.2-2.6,10s-4.9,4.9-9.8,4.8c-4.9,0-6.1,0-6.1,0l1.2,0.6c4,0.1,16.1,0.5,20.9,0.3
						c5.8-0.2,28.5-1.2,35.9-2.3c0.8-0.1,1.7-0.4,2.5-0.7c2.6-1.5,3-9.3,3-12.7C177.1,175.8,172.7,176,172.5,173.6L172.5,173.6z"/>
					<path class="st28" d="M122,175.3c-1-5.4-1.9-10.5-4.5-12.1c-2.2-1.4-12.1,0.3-15.8,1.1c-1.7,0.4-34.3,9.4-34.3,9.4
						s0.3,0.9,1,4.3c0.3,1.4,0.6,3.5,0.7,4.9c0.1,1,0.6,1.6,1,1.6l19.2,0c0.8-0.1,1.5-1,1.9-2.5c0.4-1.7,0.9-5,1.5-6.8
						c1.4-4.4,4-6.9,6.7-7.6c5.1-1.3,10.4,1.1,14.5,10.5c0.4,0.9,0.7,1.7,0.9,2.4c0.4,1.1,1.7,7.6,2.8,7.6s5.7-3.6,5.6-7.3
						C123.1,179.2,122.7,178.7,122,175.3L122,175.3z"/>
					<path class="st29" d="M156.6,157.1c0.2,0.7-0.2,1.4-0.8,1.6s-1.3-0.3-1.4-1c-0.2-0.7,0.2-1.4,0.8-1.6S156.4,156.4,156.6,157.1z
						"/>
					<path class="st25" d="M157.5,174.2c13.9,0.1,18.7,0.1,21.7,0.6c3.9,0.8-10.7,1.6-21.3,1.6c-18.1,0.1-29,0.3-32.8-1
						C120.8,174,145.4,174.1,157.5,174.2z"/>
					<path class="st25" d="M127.1,153c9.3-0.4,49.1,1,49.1,1l-4.5-3c0,0-17.5-0.9-22-1c-6.2-0.1-25.2-0.9-30.3,0
						c-3.5,0.6-22.3,5.7-28.5,7.4c-5.7,1.5-20.9,5.8-29.2,8.6c-3.9,1.4-5.1,2.8-5.1,2.8s5.2-2.3,6.9-1.1c0,0,28.6-7.2,38.9-9.8
						C113,155.3,117.4,153.4,127.1,153L127.1,153z"/>
					<g>
						<polygon class="st30" points="100.4,158.4 95.3,159.7 95.6,158.7 100.6,157.4 						"/>
						<polygon class="st31" points="100.3,158.2 95.3,159.5 95.5,158.5 100.6,157.2 						"/>
					</g>
					<g>
						<polygon class="st30" points="80.1,163.5 75.5,164.7 75.8,163.7 80.3,162.5 						"/>
						<polygon class="st31" points="80,163.4 75.5,164.5 75.7,163.5 80.3,162.4 						"/>
					</g>
					<path class="st32" d="M68.4,158c0.1-0.3,0.1-0.6-0.1-0.9c-0.2-0.3-0.5-0.4-0.8-0.4c-1.9,0.1-5,0.2-5.6,0.7
						c-0.7,0.5-2.4,1.8-1.2,2.7s5.4,1.4,5.4,1.4l1.6,1.7c0,0,0.9,0.2,1.2-0.6c0.3-0.8-1.3-2.2-1.3-2.2L68.4,158L68.4,158z"/>
					<path class="st22" d="M68.2,157.9c0.1-0.2,0.1-0.5-0.1-0.7c-0.1-0.2-0.4-0.3-0.6-0.3c-1.7,0-4.8,0.1-5.5,0.6
						c-0.7,0.5-2.4,1.7-1.2,2.5s5.2,1.4,5.2,1.4l1.6,1.7c0,0,0.9,0.2,1.2-0.6c-1-0.8-1.8-1.5-1.8-1.5S68.2,157.9,68.2,157.9z"/>
					<path class="st21" d="M66.6,160.9l1.4-3.1c0.1-0.1,0.1-0.3,0-0.5c-0.1-0.1-0.2-0.2-0.4-0.2c-1.5,0-4.6,0.1-5.5,0.7
						c-1.2,0.8-1.8,1.9,0,2.3C64.1,160.6,66.6,160.9,66.6,160.9L66.6,160.9z"/>
					<path class="st21" d="M171.6,151c0,0-7.4-0.5-17.5-0.9c-11.3-0.4-21.8-0.6-29.3-0.5c-7.3-6.1-14.5-11.1-20-12.4
						C111.8,136.9,150.2,138.5,171.6,151z"/>
				</g>
			</g>
		</g>
	</g>
	<path class="st24" d="M204.3,0.3H40c-22,0-40,17.9-40,40v164.3c0,24.2,19.6,43.8,43.8,43.8h160.4c24.2,0,43.8-19.6,43.8-43.8V44.1
		C248.1,20,228.4,0.3,204.3,0.3z M241,204.6c0,20.3-16.4,36.7-36.7,36.7H43.8c-20.3,0-36.7-16.4-36.7-36.7V42.9
		C7.1,23.3,23,7.4,42.6,7.4h161.6c20.3,0,36.7,16.5,36.7,36.7V204.6L241,204.6z"/>
</g>
</svg>
