<?xml version="1.0" encoding="UTF-8"?><svg id="a" xmlns="http://www.w3.org/2000/svg" viewBox="0 0 233.92 132.85"><defs><style>.b{fill:#fff;}.c{fill:#ad680f;}.d{opacity:.5;}.e{fill:#ca8835;}.f{fill:#bd7211;}.g{fill:#b56c10;}.h{fill:#cf7d15;}.i{fill:#c47a1d;}.j{fill:#b86f12;}.k{fill:#a86512;}</style></defs><path class="d" d="M129.33,131.2c-2.41,0-4.76-1.11-6.27-2.97-1.46-1.8-2.03-4.16-1.55-6.48,.28-1.37,.61-2.5,1.03-3.55,5.96-14.95,23.91-15.13,29.81-15.19,.38,0,.76,0,1.14,0,4.64,0,9.28,.28,13.77,.56,4.34,.27,8.83,.54,13.17,.54,2.66,0,5.06-.1,7.33-.31,5.07-.46,8.6-1.5,11.1-3.27,.96-.67,2.02-1.87,2.59-2.9,.51-.92,.67-1.31,.94-2.2,.11-.36,.23-.79,.31-1.17,.04-.18,.07-.35,.1-.53h0c.21-2.44-.47-4.38-2.21-6.32-2.39-2.67-5.46-4.78-10.27-7.06-11.48-5.44-24.8-7.79-33.82-9.08-5.81-.83-13.45-1.79-21.04-1.79-.98,0-1.95,.02-2.89,.05-.1,.1-.2,.2-.3,.3-1.63,1.56-3.82,2.5-6.06,2.63-1.48,.87-3.06,1.33-4.65,1.33-.21,0-.42,0-.63-.02-.29-.02-.57-.06-.83-.1-.74,.4-1.51,.76-2.3,1.06-1.04,.4-2.1,.6-3.17,.6-.75,0-1.48-.1-2.18-.3-.7,.15-1.41,.22-2.11,.22-1.65,0-3.22-.41-4.54-1.16-.3,.18-.6,.38-.92,.58-6.18,3.9-12.25,8.33-18.12,12.61-1.45,1.06-2.9,2.11-4.35,3.16l-.66,.48c-5.93,4.29-12.05,8.72-19.45,11.46-6.52,2.41-12.72,3.64-18.43,3.64-2.1,0-4.17-.17-6.13-.5-3.02-.51-5.95-1.58-8.57-3.13-.42-.02-.81-.04-1.19-.08-9.19-.78-16.51-5.56-19.58-12.8-2.73-6.44-2.21-13.61,1.47-20.18,.92-1.64,2-3.22,3.28-4.8,.1-5.42,2.61-10.85,7.21-15.51,6.2-6.27,14.77-11.05,25.46-14.23,11.22-3.33,22.82-5,33.73-6.42,7.08-.92,14.23-1.62,21.3-2.07,.79-1.28,1.98-2.3,3.41-2.97,1.47-2.4,4.4-3.94,7.49-3.94,.57,0,1.14,.05,1.7,.15,1.29-.72,2.83-1.12,4.44-1.12,1.26,0,2.47,.25,3.59,.73,.72-.2,1.46-.3,2.2-.3,1.49,0,2.95,.41,4.24,1.19,.14,.08,.27,.16,.4,.25,8.16-2.93,16.17-5.6,23.83-7.95,9.49-2.91,17.55-4.96,26.05-5.5,1.5-.1,3-.14,4.44-.14,4.65,0,9.04,.5,13.05,1.5,5.6,1.39,11.86,3.46,15.87,8.31,1.31,1.58,2.2,3.36,2.65,5.25,6.44,1.92,11.12,4.72,14.3,8.53,4.6,5.51,5,13.55,.96,19.54-1.8,2.67-4.2,4.89-7.16,6.62-.05,3.73-1.24,7-3.53,9.59-3.34,3.79-8.09,5.28-12.51,5.84,9.8,7.37,13.95,17.38,11.16,27.28-1.82,6.47-5.83,11.84-11.28,15.12-4.64,2.79-10.21,4.38-17.52,5.01-2.48,.21-5.08,.32-7.93,.32-4.62,0-9.25-.28-13.72-.54-4.33-.26-8.8-.53-13.13-.53-.47,0-.94,0-1.4,0-2.78,.04-5.34,.2-6.85,.44-1.25,.2-2.23,.4-3.1,.64-.42,.12-.83,.24-1.24,.38-.34,.12-.58,.21-.7,.26-1.67,.77-2.04,1.08-2.77,1.95l-.08,.1c-.04,.06-.13,.19-.21,.32-.16,.26-.28,.5-.39,.72l-.1,.23c-.05,.14-.1,.28-.14,.42-.12,.41-.22,.82-.32,1.26-.74,3.57-3.66,5.97-7.26,5.97ZM34.68,86.55h0ZM213.5,37.89c1.2,.97,2.27,2.03,3.23,3.17,.09-.21,.14-.43,.12-.64-.04-.36-.94-1.41-3.34-2.52Z"/><path class="b" d="M124.33,126.2c-2.41,0-4.76-1.11-6.27-2.97-1.46-1.8-2.03-4.16-1.55-6.48,.28-1.37,.61-2.5,1.03-3.55,5.96-14.95,23.91-15.13,29.81-15.19,.38,0,.76,0,1.14,0,4.64,0,9.28,.28,13.77,.56,4.34,.27,8.83,.54,13.17,.54,2.66,0,5.06-.1,7.33-.31,5.07-.46,8.6-1.5,11.1-3.27,.96-.67,2.02-1.87,2.59-2.9,.51-.92,.67-1.31,.94-2.2,.11-.36,.23-.79,.31-1.17,.04-.18,.07-.35,.1-.53h0c.21-2.44-.47-4.38-2.21-6.32-2.39-2.67-5.46-4.78-10.27-7.06-11.48-5.44-24.8-7.79-33.82-9.08-5.81-.83-13.45-1.79-21.04-1.79-.98,0-1.95,.02-2.89,.05-.1,.1-.2,.2-.3,.3-1.63,1.56-3.82,2.5-6.06,2.63-1.48,.87-3.06,1.33-4.65,1.33-.21,0-.42,0-.63-.02-.29-.02-.57-.06-.83-.1-.74,.4-1.51,.76-2.3,1.06-1.04,.4-2.1,.6-3.17,.6-.75,0-1.48-.1-2.18-.3-.7,.15-1.41,.22-2.11,.22-1.65,0-3.22-.41-4.54-1.16-.3,.18-.6,.38-.92,.58-6.18,3.9-12.25,8.33-18.12,12.61-1.45,1.06-2.9,2.11-4.35,3.16l-.66,.48c-5.93,4.29-12.05,8.72-19.45,11.46-6.52,2.41-12.72,3.64-18.43,3.64-2.1,0-4.17-.17-6.13-.5-3.02-.51-5.95-1.58-8.57-3.13-.42-.02-.81-.04-1.19-.08-9.19-.78-16.51-5.56-19.58-12.8-2.73-6.44-2.21-13.61,1.47-20.18,.92-1.64,2-3.22,3.28-4.8,.1-5.42,2.61-10.85,7.21-15.51,6.2-6.27,14.77-11.05,25.46-14.23,11.22-3.33,22.82-5,33.73-6.42,7.08-.92,14.23-1.62,21.3-2.07,.79-1.28,1.98-2.3,3.41-2.97,1.47-2.4,4.4-3.94,7.49-3.94,.57,0,1.14,.05,1.7,.15,1.29-.72,2.83-1.12,4.44-1.12,1.26,0,2.47,.25,3.59,.73,.72-.2,1.46-.3,2.2-.3,1.49,0,2.95,.41,4.24,1.19,.14,.08,.27,.16,.4,.25,8.16-2.93,16.17-5.6,23.83-7.95,9.49-2.91,17.55-4.96,26.05-5.5,1.5-.1,3-.14,4.44-.14,4.65,0,9.04,.5,13.05,1.5,5.6,1.39,11.86,3.46,15.87,8.31,1.31,1.58,2.2,3.36,2.65,5.25,6.44,1.92,11.12,4.72,14.3,8.53,4.6,5.51,5,13.55,.96,19.54-1.8,2.67-4.2,4.89-7.16,6.62-.05,3.73-1.24,7-3.53,9.59-3.34,3.79-8.09,5.28-12.51,5.84,9.8,7.37,13.95,17.38,11.16,27.28-1.82,6.47-5.83,11.84-11.28,15.12-4.64,2.79-10.21,4.38-17.52,5.01-2.48,.21-5.08,.32-7.93,.32-4.62,0-9.25-.28-13.72-.54-4.33-.26-8.8-.53-13.13-.53-.47,0-.94,0-1.4,0-2.78,.04-5.34,.2-6.85,.44-1.25,.2-2.23,.4-3.1,.64-.42,.12-.83,.24-1.24,.38-.34,.12-.58,.21-.7,.26-1.67,.77-2.04,1.08-2.77,1.95l-.08,.1c-.04,.06-.13,.19-.21,.32-.16,.26-.28,.5-.39,.72l-.1,.23c-.05,.14-.1,.28-.14,.42-.12,.41-.22,.82-.32,1.26-.74,3.57-3.66,5.97-7.26,5.97ZM29.68,81.55h0ZM208.5,32.89c1.2,.97,2.27,2.03,3.23,3.17,.09-.21,.14-.43,.12-.64-.04-.36-.94-1.41-3.34-2.52Z"/><g><path class="k" d="M127.75,42.05c9.58-2.28,19.23-4.32,28.99-5.62,11.77-1.57,24.52-2.67,36,.36,4.51,1.19,8.45,3.03,11.37,6.6,1.05,1.29,1.93,3.29,2.41,5.36,.25,1.1,.35,1.78,.31,3.07-.02,.76-.17,1.2-.69,2.01-.4,.62,.36-.4-.13,.15-.15,.17-.32,.33-.49,.48-.56,.51,.45-.3-.18,.15-.2,.14-.41,.26-.62,.39-.22,.13-.44,.24-.67,.35-.75,.37,.49-.18-.31,.13-.61,.24-1.24,.41-1.87,.57-2.45,.61-5,.66-7.73,.6-5.91-.12-11.78-1.12-17.57-2.26-7.22-1.42-14.38-2.81-21.68-3.77-5.5-.73-11.04-1.29-16.59-1.47-4.16-.13-9-.29-12.91,1.34-1.38,.57-2.35,1.8-1.92,3.38,.36,1.31,1.99,2.49,3.38,1.92,2.44-1.01,4.71-1.08,7.34-1.16,3.61-.11,7.22,.11,10.82,.4,6.57,.53,13.11,1.44,19.61,2.55,10.3,1.76,20.42,4.56,30.95,4.57,4.87,0,11.02-.55,14.47-4.46,3.6-4.09,2.37-10.24,.23-14.73-4.73-9.9-17.31-12.46-27.15-13.22-10.88-.84-21.9,.41-32.63,2.1-8.13,1.28-16.19,3.01-24.19,4.92-3.44,.82-1.98,6.11,1.46,5.29h0Z"/><path class="g" d="M124.77,29.58c11.02-3.51,21.96-7.17,33.33-9.41,6.32-1.25,12.81-2.08,19.26-1.68,2.61,.16,5.12,.61,7.67,1.53,1.91,.69,3.7,1.85,5.16,3.53,1.16,1.32,2.18,3.69,2.21,5.68,.02,1.64-.97,2.97-2.44,3.95-4.22,2.79-10.22,3.22-15.3,3.47-6.64,.32-13.29-.09-19.93,.02-9.69,.17-19.57,1.13-28.52,5.07-1.37,.6-1.68,2.58-.98,3.75,.82,1.4,2.39,1.59,3.76,.98,15.13-6.67,32.1-3.3,48.05-4.49,5.79-.43,12.25-1.33,16.97-5,4.88-3.8,4.63-10.22,1.67-15.17-6.36-10.65-22.04-9.46-32.5-8.03-12.42,1.69-24.48,5.48-36.36,9.37-1.16,.38-2.33,.77-3.5,1.14-3.36,1.07-1.92,6.37,1.46,5.29h0Z"/><path class="i" d="M128.33,50.26c20.9-5.6,42.48,1.53,63.61,1.34,5.31-.05,10.65-.6,15.83-1.81,4.99-1.16,9.65-3.48,12.57-7.81,2.81-4.17,2.55-9.7-.65-13.54-3.22-3.86-8.25-5.96-12.99-7.25-6.52-1.78-13.47-1.89-20.18-2.05-7.07-.17-14.15-.02-21.2,.52-14.31,1.1-28.4,4.07-41.6,9.8-.84,.36-1.38,1.5-1.36,2.37l.04,1.55c.09,3.53,5.58,3.54,5.49,0-.01-.52-.03-1.04-.04-1.55-.45,.79-.91,1.58-1.36,2.37,20.28-8.8,42.82-10.26,64.65-9.42,5.16,.2,10.3,.6,15.28,2.05,3.73,1.09,9.95,3.53,10.4,8.1,.49,4.98-4.73,7.88-8.73,9.11-4.98,1.53-10.32,1.96-15.51,2.08-21.96,.5-43.94-6.97-65.71-1.14-3.42,.92-1.96,6.21,1.46,5.29h0Z"/><path class="e" d="M124.54,25.95c11.02-4,22.18-7.86,33.51-10.88,10.58-2.82,21.76-4.28,32.43-1.1,2.65,.79,10.62,3.23,8.12,7.28-1.03,1.66-3.37,2.61-5.09,3.29-2.63,1.04-5.4,1.69-8.18,2.15-11.35,1.91-23-.41-34.42,.31-11.22,.71-22.14,4.65-31.22,11.28-1.21,.88-1.8,2.36-.98,3.76,.7,1.19,2.54,1.87,3.75,.98,8.56-6.25,18.58-9.91,29.16-10.57,11.53-.73,23.02,1.27,34.53-.36,5.01-.71,10.54-2.16,14.6-5.31,3.87-3.01,5.3-8.11,1.98-12.13-3.13-3.78-8.63-5.51-13.22-6.64-5.2-1.29-10.65-1.56-15.97-1.22-8.5,.54-16.8,2.8-24.91,5.29-8.58,2.63-17.09,5.51-25.53,8.57-3.3,1.2-1.88,6.5,1.46,5.29h0Z"/><path class="j" d="M122.71,59.78c9.75-.91,19.85,.13,29.5,1.52,11.96,1.72,24.33,4.34,35.25,9.51,4.57,2.16,8.58,4.59,11.85,8.24,2.54,2.83,3.81,6.13,3.47,10.07-.07,.85,.1-.55-.03,.31-.04,.27-.09,.53-.15,.79-.11,.55-.26,1.08-.42,1.62-.38,1.28-.7,2.01-1.35,3.19-.99,1.79-2.6,3.52-4.08,4.57-3.88,2.74-8.85,3.74-13.53,4.17-11.92,1.09-23.89-.88-35.82-.76-9.79,.1-21.15,1.82-25.22,12.04-.35,.88-.59,1.79-.78,2.72-.72,3.45,4.57,4.92,5.29,1.46,.12-.57,.26-1.12,.42-1.68,.08-.26,.17-.52,.26-.78,0-.03,.35-.84,.13-.33,.21-.47,.46-.92,.72-1.37,.13-.22,.27-.42,.41-.63,.09-.14,.19-.27,.29-.4-.18,.23-.17,.22,.03-.02,1.38-1.67,2.48-2.37,4.6-3.35,.13-.06,.49-.2,1.06-.4,.52-.18,1.04-.34,1.57-.48,1.2-.34,2.44-.57,3.67-.77,2.05-.32,5.07-.47,7.55-.5,11.94-.17,23.88,1.78,35.82,.76,5.32-.46,10.74-1.53,15.37-4.31,4.54-2.73,7.62-7.13,9.05-12.19,2.86-10.13-3.65-18.42-11.78-23.6-10.08-6.43-22.37-9.55-33.99-11.77-11.09-2.12-22.51-3.45-33.81-3.33-1.78,.02-3.57,.09-5.35,.25-3.49,.32-3.53,5.82,0,5.49h0Z"/><path class="k" d="M113.69,34.76c-20.37-1.43-40.44,2.36-60.11,7.35-9.96,2.52-19.93,5.03-28.93,10.15-6.12,3.48-11.95,8.27-15.43,14.49-2.76,4.93-3.46,10.54-1.23,15.79,2.62,6.17,9.08,9.23,15.41,9.77,7.67,.65,15.6-2,22.64-4.74,7.53-2.94,14.74-6.6,21.98-10.17,6.72-3.32,12.9-7.69,19.31-11.56,4.48-2.7,9.01-5.33,13.65-7.73,3.83-1.99,7.78-3.93,11.98-5.01,3.43-.88,1.97-6.17-1.46-5.29-6.53,1.68-12.68,5.12-18.52,8.38-6.32,3.53-12.46,7.36-18.58,11.19-4.27,2.67-8.53,4.97-13.05,7.21-7.29,3.61-14.64,7.17-22.39,9.71-6.39,2.09-13.86,3.94-20.38,1.38-2.39-.94-4.3-2.95-5.48-5.15-.93-1.73-1.17-3.58-.92-5.93,.05-.44,.51-2.16,.84-3.06,.37-1.01,1.15-2.4,1.84-3.49,1.72-2.69,4.07-4.95,6.52-6.96,6.93-5.69,15.65-8.88,24.19-11.19,22.27-6,44.91-11.27,68.13-9.64,3.53,.25,3.51-5.24,0-5.49h0Z"/><path class="i" d="M111.29,31.01c-12.03-.65-24.16,.31-36.07,1.96-12.4,1.72-25.11,4.35-36.42,9.9-8.24,4.04-16.25,10.93-14.7,20.99,.78,5.05,4.39,10.83,8.58,13.68,6.31,4.29,15.74,1.95,22.35-.23,10.11-3.34,18.81-9.47,28.1-14.5,9.7-5.24,19.75-10.37,30.28-13.73,3.36-1.07,1.92-6.37-1.46-5.29-8.37,2.67-16.41,6.5-24.25,10.45-4.36,2.19-8.67,4.51-12.91,6.91-3.65,2.07-7.17,4.38-10.87,6.37-6.85,3.69-14.92,6.92-22.82,6.79-3.02-.05-5.52-.95-7.46-3.3-.77-.93-1.46-1.95-2.09-2.99-.62-1.02-1.21-2.26-1.47-2.95-.35-.94-.59-1.92-.74-2.92,.09,.61-.03-.68-.03-.9-.01-.53,.02-1.05,.08-1.58-.08,.69,.14-.58,.19-.79,.11-.43,.25-.85,.4-1.27,.26-.7-.24,.52,.07-.17,.09-.21,.2-.41,.3-.61,.25-.48,.53-.93,.83-1.38,.4-.6,.75-1.03,1.57-1.87,.36-.37,.73-.72,1.11-1.06,.2-.18,.4-.35,.6-.52,.07-.06,.84-.68,.5-.41,1.96-1.5,4.11-2.74,6.31-3.85,10.87-5.49,23.72-7.87,35.8-9.54,11.27-1.56,22.84-2.33,34.21-1.71,3.54,.19,3.52-5.3,0-5.49h0Z"/><path class="j" d="M112.46,38.77c-21.6,.55-43.72,4.29-63.68,12.77-7.64,3.24-15.09,7.35-21.35,12.86-5.25,4.62-9.44,10.87-8.32,18.14,1.11,7.19,7.69,11.89,14.45,13.03,7.35,1.24,15.09-.34,22-2.9,7.01-2.6,12.9-6.95,18.92-11.3,7.5-5.42,14.9-11,22.73-15.95,4.54-2.87,9.33-5.7,14.52-7.19,3.4-.97,1.95-6.27-1.46-5.29-7.72,2.21-14.7,6.86-21.28,11.32-7.6,5.15-14.88,10.75-22.39,16.02-5.76,4.04-11.46,7.16-18.32,8.93-6.21,1.59-13.87,2.47-19.53-1.21-2.25-1.46-4.03-4.26-4.35-6.89-.35-2.92,.8-5.54,2.43-7.95,4.26-6.3,11.77-10.52,18.37-13.9,8.33-4.26,17.27-7.13,26.32-9.44,11.15-2.86,22.56-4.55,34.04-5.25,2.3-.14,4.6-.23,6.9-.28,3.53-.09,3.54-5.58,0-5.49h0Z"/><path class="e" d="M109.12,25.7c-11.35,.26-22.68,1.15-33.94,2.61-11.01,1.43-22.29,3.09-32.95,6.25-8.47,2.51-17.05,6.6-23.33,12.95-4.81,4.86-7.58,11.55-4.46,18.07,2.99,6.23,9.23,8.13,15.65,7.69,7.87-.55,15.58-3.27,22.88-6.09,7.37-2.85,14.48-6.27,21.69-9.5,8.21-3.68,16.63-6.93,25.16-9.79,3.04-1.02,6.1-1.98,9.2-2.79,1.13-.3,2.28-.56,3.43-.77,.25-.05,.51-.09,.76-.13-.66,.1,.05,0,.16,0,.35-.03,.7-.04,1.05-.02,3.54,.2,3.52-5.29,0-5.49-2.27-.13-4.68,.57-6.86,1.12-3.59,.92-7.12,2.07-10.63,3.27-8.65,2.95-17.18,6.33-25.52,10.07-7.08,3.18-14.06,6.52-21.32,9.28-6.93,2.63-14.42,5.32-21.91,5.44-1.37,.02-2.42-.06-3.65-.35-1.13-.26-2.03-.71-2.58-1.19-2.18-1.9-3.54-4.33-3.44-7.04,.23-6.41,8.07-11.57,13.15-14.41,9.02-5.05,19.28-6.99,29.33-8.83,11.24-2.05,22.61-3.41,34-4.2,4.7-.33,9.42-.53,14.13-.64,3.53-.08,3.54-5.57,0-5.49h0Z"/><path class="f" d="M116.45,23.3c5.82,3.51,7.3,11.88,7.54,18.19,.14,3.66-.19,7.32-1.06,10.87-.69,2.81-1.78,5.62-3.62,7.37-2.57,2.45,1.94,3.89,4.5,1.45,5.65-5.4,6.68-12.8,6.4-20.13-.31-8.19-2.37-17.25-9.88-21.77-3.04-1.83-6.91,2.19-3.89,4.02h0Z"/><path class="c" d="M109.72,21.48c6.81,4.75,9.56,14.49,9.59,22.26,.02,4.05-.54,8.09-1.77,11.96-.49,1.54-.96,2.63-1.83,4.08-.59,.98-2.94,3.7,.6,3.97,2.38,.18,4.98-2.35,6.2-5.64,1.63-4.41,2.88-8.89,2.94-13.57,.14-10.01-1.66-19.45-10.25-25.43-2.91-2.03-7.5,.73-4.62,2.74l-.87-.36Z"/><path class="f" d="M106.37,23.82c7.59,1.16,9.08,10.27,9.51,16.62,.32,4.8-.13,9.58-1.78,14.11-.95,2.62-2.96,5.99-5.42,6.93-3.27,1.26-.99,4.81,2.32,3.54,9.84-3.78,10.88-15.49,10.37-24.58-.49-8.66-3.62-18.74-13.66-20.97-3.29-.73-6.27,2.52-3.11,3.84l1.77,.51Z"/><path class="h" d="M100.21,26.05c3.84-.18,7.71,3.31,8.75,6.15,1.34,3.64,1.87,7.67,1.91,11.53,.05,5.45-1.51,16.72-8.83,18.55-.55,2.38,2.98,3.96,6.04,2.2,4.76-2.74,8.35-13.13,8.27-21.25-.04-4.87-.16-8.48-2.05-12.97-1.89-4.47-5.31-7.43-10.06-7.87-3.53-.32-5.31,2.01-4.03,3.66Z"/></g></svg>