<?xml version="1.0" encoding="utf-8"?>
<!-- Generator: Adobe Illustrator 26.2.1, SVG Export Plug-In . SVG Version: 6.00 Build 0)  -->
<svg version="1.1" id="Layer_1" xmlns="http://www.w3.org/2000/svg" xmlns:xlink="http://www.w3.org/1999/xlink" x="0px" y="0px"
	 viewBox="0 0 240 241" style="enable-background:new 0 0 240 241;" xml:space="preserve">
<style type="text/css">
	.st0{opacity:0.5;}
	.st1{clip-path:url(#SVGID_00000129164959074889145900000014759842731054853295_);}
	.st2{clip-path:url(#XMLID_00000055680323983915416830000009560996712125624983_);}
	.st3{fill:url(#SVGID_00000075851734453138817510000017721835770085682308_);}
	.st4{fill:#C4E6EA;}
	.st5{opacity:0.59;fill:#C4E6EA;}
	.st6{fill:url(#SVGID_00000065056512000751405560000014088842680949859987_);}
	.st7{fill:#268441;}
	.st8{fill:#75C289;}
	.st9{fill:#41B049;}
	.st10{fill:url(#SVGID_00000133517750685027019360000008219309475465290148_);}
	.st11{opacity:0.3;}
	.st12{fill:#90C856;}
	.st13{fill:#54A364;}
	.st14{fill:#258F45;}
	.st15{opacity:0.5;fill:#60833A;}
	.st16{fill:url(#SVGID_00000163031564470928311850000004185605376513105840_);}
	.st17{fill:url(#SVGID_00000175286150279182612810000015842975747297343915_);}
	.st18{fill:url(#SVGID_00000019648878246271380300000001581498085003355827_);}
	.st19{fill:url(#SVGID_00000171694123883883336460000009819012086356202882_);}
	.st20{fill:url(#SVGID_00000040562491348116586420000009422531016177127591_);}
	.st21{fill:url(#SVGID_00000176034200572244577040000011954723686647234494_);}
	.st22{fill:url(#SVGID_00000157271320448685463820000013923484301086481338_);}
	.st23{fill:url(#SVGID_00000061453944956484845990000009406350093737286821_);}
	.st24{fill:url(#SVGID_00000052819143408190689210000001075244399836491929_);}
	.st25{fill:url(#SVGID_00000174601500986451957580000017383531550519866282_);}
	.st26{opacity:0.18;fill:#60833A;}
	.st27{fill:#3192B8;}
	.st28{fill:#50ABD0;}
	.st29{fill:#61BBD7;}
	.st30{fill:#3997BD;}
	.st31{fill:#2884A6;}
	.st32{fill:#288098;}
	.st33{fill:#FFFFFF;}
</style>
<g>
	<path class="st0" d="M198.3,6H42.7C21.9,6,4.9,23,4.9,43.9v155.6c0,22.9,18.6,41.5,41.5,41.5h151.9c22.9,0,41.5-18.6,41.5-41.5
		V47.5C239.8,24.7,221.2,6,198.3,6z M233.1,199.4c0,19.2-15.6,34.8-34.8,34.8H46.4c-19.2,0-34.8-15.6-34.8-34.8V46.4
		c0-18.6,15.1-33.6,33.6-33.6h153.1c19.2,0,34.8,15.6,34.8,34.8V199.4z"/>
	<g>
		<defs>
			<path id="SVGID_1_" d="M202.3,228.3H33c-14.4,0-26.1-11.7-26.1-26.1V32.9C6.9,18.4,18.6,6.7,33,6.7h169.3
				c14.4,0,26.1,11.7,26.1,26.1v169.3C228.5,216.6,216.8,228.3,202.3,228.3z"/>
		</defs>
		<clipPath id="SVGID_00000149370604707742711780000002424488923000066220_">
			<use xlink:href="#SVGID_1_"  style="overflow:visible;"/>
		</clipPath>
		<g style="clip-path:url(#SVGID_00000149370604707742711780000002424488923000066220_);">
			<defs>
				<rect id="XMLID_1_" x="-114.5" y="-38.2" width="376.9" height="376.9"/>
			</defs>
			<clipPath id="XMLID_00000123430106816638769070000005543887194048913068_">
				<use xlink:href="#XMLID_1_"  style="overflow:visible;"/>
			</clipPath>
			<g style="clip-path:url(#XMLID_00000123430106816638769070000005543887194048913068_);">
				
					<linearGradient id="SVGID_00000153687023111157558250000001237486454176342441_" gradientUnits="userSpaceOnUse" x1="84.2795" y1="294.488" x2="84.2795" y2="-28.9796">
					<stop  offset="0" style="stop-color:#E9F6FD"/>
					<stop  offset="0.1376" style="stop-color:#CFF4FD"/>
					<stop  offset="0.4825" style="stop-color:#94EEFE"/>
					<stop  offset="0.7371" style="stop-color:#6FEAFF"/>
					<stop  offset="0.8716" style="stop-color:#61E9FF"/>
				</linearGradient>
				
					<rect x="-105.9" y="-45.1" style="fill:url(#SVGID_00000153687023111157558250000001237486454176342441_);" width="380.3" height="375.7"/>
				<g>
					<path class="st4" d="M222.9-319.6c0,0,1-10.7,13.6-18.1c12.6-7.3,23.1-11.3,34-2.8c10.9,8.5,8.6,27.7,6.3,29.9
						c-4.5,4.4-14.2,10.2-40,4.5C221.2-309.4,222.9-319.6,222.9-319.6z"/>
					<path class="st4" d="M165.2-327c0,0,3.5-16.2,27.8-25.7c24.3-9.5,40.1-14.1,53.7,1.4c13.6,15.6,6.8,41.7-2.8,45
						c-9.6,3.3-49.4,5.9-73.4-4.6C170.5-310.9,162-315.7,165.2-327z"/>
					<path class="st5" d="M-260.9-218.2c0,0,1-10.7,13.6-18.1c12.6-7.3,23.1-11.3,34-2.8c10.9,8.5,8.6,27.7,6.3,29.9
						c-4.5,4.4-14.2,10.2-40,4.5C-262.6-208-260.9-218.2-260.9-218.2z"/>
					<path class="st5" d="M-318.6-225.6c0,0,3.5-16.2,27.8-25.7c24.3-9.5,40.1-14.1,53.7,1.4c13.6,15.6,6.8,41.7-2.8,45
						c-9.6,3.3-49.4,5.9-73.4-4.6C-313.3-209.5-321.8-214.3-318.6-225.6z"/>
					<path class="st4" d="M405.6-264.7c0,0,1.9-18,26.1-30.4c24.2-12.3,44.6-19,65.6-4.7c21,14.2,16.6,46.5,12.1,50.3
						c-8.7,7.4-27.3,17.1-77,7.6C402.5-247.6,405.6-264.7,405.6-264.7z"/>
				</g>
				
					<linearGradient id="SVGID_00000171706883350122397750000007388860158241403818_" gradientUnits="userSpaceOnUse" x1="-1037.9753" y1="503.0974" x2="1599.8708" y2="-217.297">
					<stop  offset="1.065083e-02" style="stop-color:#80C572"/>
					<stop  offset="0.6627" style="stop-color:#94CB7E"/>
					<stop  offset="1" style="stop-color:#95CC80"/>
				</linearGradient>
				<path style="fill:url(#SVGID_00000171706883350122397750000007388860158241403818_);" d="M-418.9,234.3l870.6-2.2
					c-0.1-0.3-0.1-0.5-0.2-0.8c-2.1-10.8-1.6-21.6-1-32.4c-23.7,0.1-43,0.1-57,0.2c-272,1.5-544.1,1.5-816.4,0.2
					C-422,211-420.5,222.6-418.9,234.3z"/>
				<path class="st7" d="M248.8,351.1c0,0-11.9-10.5-17.8-12.7c-5.9-2.2,27.4-3.7,41.5,9.7c-18.5-15.7-24.5-19.5-24.5-19.5
					c-17.1-12,14.1-13.5,42.3,15c4.4,6,4.4,6,4.4,6s-3-11,16.7-29.1c19.7-18.1,15.2-12.1,15.2-12.1s-18.5,24-15.6,39.7
					c18.5-22.5,30.4-38.2,62.3-33.7c0,0.7,0,0.7,0,0.7s-29.6,13.5-34.4,36c8.1-4.5,33-32.2,67.1-18c0,0-21.2,0-36.6,18
					C348.4,351.1,248.8,351.1,248.8,351.1z"/>
				<path class="st7" d="M-416.4,304.7c11.4-6,21.6-6,21.6-6c-7.8-3.3-15.2-4.3-21.9-3.9C-416.6,298.1-416.5,301.4-416.4,304.7z"/>
				<path class="st7" d="M-301.2,283.8c0,0,0,0,0-0.7c-31.9-4.5-43.8,11.2-62.3,33.7c-3-15.7,15.6-39.7,15.6-39.7s4.4-6-15.2,12.1
					c-19.7,18.1-16.7,29.1-16.7,29.1s0,0-4.4-6c-11.5-11.6-23.5-18.3-32.6-21.2c0.2,4.6,0.3,9.3,0.5,13.9c3.1,2.5,7.1,5.8,12.1,10
					c-3.4-2.6-7.6-4.6-12-6c0.1,3.6,0.3,7.2,0.4,10.8h80.2C-330.8,297.3-301.2,283.8-301.2,283.8z"/>
				<path class="st7" d="M-335.7,319.8h30.5c15.3-18,36.6-18,36.6-18C-302.7,287.6-327.6,315.3-335.7,319.8z"/>
				<g>
					<path class="st7" d="M489.3,438.9c-2-2.9-3.8-5.7-5.4-8.9c-1.2-2.4-17.4-35.2-21-51.7c-2.4-11-4-22.5-5.4-34
						c-295.7,12.5-428.7-20.9-873.7-35c1.7,47.7,3.2,95.4,3.9,143.1c227.5-0.9,455.1-1.7,682.6-2.6l225.8-1.6
						C493.8,445.2,491.5,442,489.3,438.9z"/>
					<g>
						<g>
							<g>
								<path class="st7" d="M-416.9,289.6c0.3,7.4,0.5,14.9,0.8,22.3c2.6,6.2,5.7,11,5.7,11S-409.4,279.2-416.9,289.6z"/>
							</g>
							<g>
								<g>
									<path class="st7" d="M157.3,353c0,0-14.8-25.9-5.6-44.4C151.7,308.6,155.9,343.8,157.3,353z"/>
									<path class="st7" d="M160.9,353c0,0-15.5-63.6,28.1-94.6C189,258.4,165.8,298.6,160.9,353z"/>
									<path class="st7" d="M163,353c0,0,8.4-57.7,35.2-72.8C198.1,280.2,169.3,328.7,163,353z"/>
								</g>
							</g>
							<g>
								<g>
									<path class="st7" d="M283.8,350.1c0,0-25.7-9-19.7-32.6C268.3,300.8,283.8,350.1,283.8,350.1z"/>
									<path class="st7" d="M289.1,347.6c0,0-14.4-28.5-5.3-40.2C293,295.7,289.1,347.6,289.1,347.6z"/>
								</g>
							</g>
							<g>
								<g>
									<path class="st7" d="M337.1,355.7c0,0-25.3-6.7-24.6-25.1S337.1,355.7,337.1,355.7z"/>
									<path class="st7" d="M343.5,355.7c0,0-14.1-46-24.6-57.7c-10.6-11.7,18.3-12.7,24.6,35.5V355.7z"/>
									<path class="st7" d="M346.6,355.7c0,0-7.1-35.8,19.3-37.7C377.9,317.2,346.6,355.7,346.6,355.7z"/>
									<path class="st7" d="M366.7,346.5c0,0,4.2-26.8,20.4-28.5C403.3,316.3,366.7,346.5,366.7,346.5z"/>
								</g>
							</g>
						</g>
					</g>
				</g>
				<path class="st7" d="M114.8,361c0,0,9.5-70.4,47.3-79C162.1,282,148.5,335.4,114.8,361z"/>
				<path class="st7" d="M129.8,376c0,0-53-31.6-54.9-53.8C73,300,105,308.2,129.8,376z"/>
				<path class="st8" d="M-419.2,225h870.9c0-0.1-0.1-0.2-0.1-0.3c-1.6-4.5-1.7-8.9-1.3-13.4c-36.3,0.3-64.8,0.6-79.5,0.7
					c-14.7,0.1-34.5,0.9-60,0.4c-57.8-1-64.1-6.4-126.8-9c-36.4-1.5-70.2-1.2-95.7-1c-63,0.5-79.3,3.1-136.4,3.6
					c-44.4,0.4-74.5-0.7-103.8-1.5c-116.2-3-181.8,1-271.1,2.4C-422.3,213-420.8,219-419.2,225z"/>
				<path class="st9" d="M455,282.3c-1.6-7.7-2.7-15.5-3.5-23.2c-1.6-15.9-1.7-31.8-1.4-47.7c-0.6,0.2-0.9,0.4-1,0.7
					c-5.6-0.5-13,0.1-15.9,1.1c-3.7-2.5-15.9-5-28.9-3c-6.3,1-7.1,2.3-4.8,3.4c-6.7,0.1-16.6,1.2-20,1c-4.3-0.2-3.2-1.2,0-2.3
					c3.2-1.1,8.9-2.5,3.9-3.4c-4.9-0.9-15,0.2-15.4,0.2c9.9-3.8,17-7.7,5.3-8.9c-12-1.2-24.9,2.1-34.1,5.7c0,0,1.7-2.6-5.6-3.3
					c-8.4-0.8-13.9,0.3-17.4,1.4c3.4-2.3-5.8-3-11.4-2.5c10.7-3.2,12.9-8-1-9.1c-13.9-1.1-25.3,2.7-32.8,4.8c0,0-8.8-5-22-3.5
					c-13.2,1.4-12.3,4.4-11,6.6c-9.6-1.6-20.8,0-21.3,0c3.5-1.9,4-6.5-10-6.6c-14-0.2-16.7,3.1-15.1,4.9c-8.5-1.5-16.6-2-21-0.9
					c-4.4,1-0.7,3.4,4.9,4.3c-7.8-0.1-18.1,0.2-24.9,1c-6.8,0.8-10.1,3.2-11.1,4.1c-3.8-1.4-11.5-2.6-19-0.3
					c-2.9-1.8-7-4.2-16.9-3.9c-9.9,0.3-12.3,2.8-11.2,4.2c-7.3-1.7-15.6-4.3-27.5-2.6c-0.8,0.1-1.5,0.2-2.1,0.3
					c-4.3-2-16.2-1.8-23.8-0.2c2.5-2-2.7-4.2-14.1-3.4c-11.2,0.8-12.5,2.8-10.8,4.8c-4.1-0.2-7.7,0.7-10,1.2
					c0.1-1.8-4.9-4.9-16.5-3.3c3.3-2.4-0.2-6.4-15.8-6.4c-7.4,0-12.8,1.2-14.3,2.6c-4.9-1.6-14.4-1.2-19.7,0.1
					c-5.1,1.2-4.5,2.7-0.5,4c-6.1-0.1-11.7,0.7-14.6,1.7c-0.8-1.6-2-3.4-8.1-4.6c-5.2-1-15.3-1.3-20.1,0c-6,1.6-1.5,3.9,3.4,5.3
					c-5.7-0.4-12.5,0.3-13.1,1.6c-5.6-0.5-13,0.1-15.9,1.1c-3.6-2.5-15.9-5-28.9-3c-9.2,1.4-6.6,3.5-0.2,4.9c-0.4,0-0.8,0-1.3,0
					c-2.2,0-4.6,0.1-6,0.4c0.2-0.9-3.5-1.8-8-1.9c-4.5-0.1-9.2,0.5-10.3,1.4l-1.3-0.1c0.4-0.3,0.1-0.6-0.5-0.9
					c-0.6-0.3-1.6-0.5-2.6-0.8c-1.1-0.3-2.2-0.6-3.8-0.7l0.3-0.1c2.1,0.2,4.2,0.4,6.5,0.4c2,0,3.8-0.2,5.6-0.3
					c3.5-0.3,7.1-0.7,8.9-1.4c0.7-0.3,1-0.6,0.6-0.9c-0.5-0.3-2-0.6-3.5-0.8c-1.7-0.2-3.6-0.4-5.5-0.5l0-0.1c3.1,0.1,6.2,0.1,9.2,0
					c3.1-0.1,6.1-0.4,7.9-0.9c0.6-0.2,1-0.3,1.1-0.5c0.2-0.4-1.1-0.7-2.7-0.9c-1.6-0.2-3.5-0.3-5.3-0.4c-1.1,0-2.1-0.1-3.2-0.1
					c1.6-0.1,3.1-0.2,4.3-0.5c1.4-0.3,2.3-0.6,2.9-1c0.3-0.1,0.5-0.3,0.5-0.5c0.2-0.5-1.8-1.1-4.4-1.3c-2.5-0.2-5.4-0.2-8,0l0,0
					c2.5-0.3,4.3-0.8,5.7-1.3c0.8-0.3,1.6-0.6,1.7-1c0.4-0.9-3.1-1.6-6.9-2c-4.8-0.5-10.6-0.6-15.8-0.3c-5.1,0.4-9.4,1.2-10.8,2.3
					c-0.5,0.4-0.7,0.8-0.8,1.2c-2.2-0.8-7.9-1.1-12.4-0.8c-4.6,0.3-8,1.1-10.3,2c-2.2-0.9-7.9-1.3-12.2-0.9l-0.6,0
					c0.1-0.2,0.1-0.3-0.2-0.5c-0.8-0.6-4-0.9-6.9-0.9c-3,0-5.7,0.4-7.5,0.9c-1.3,0.3-2.3,0.7-2.8,1.2c-0.4-0.3-0.9-0.7-1.7-1
					c-0.4-0.2-0.8-0.3-1.5-0.5c-2.1-0.4-5.5-0.2-7.5,0.2c-1.9,0.4-2.7,1-3.6,1.5c-0.1,0-0.2,0.1-0.3,0.1c-0.2,0-0.5,0-0.7,0
					c-2-0.1-4.1-0.2-6.2-0.2c-2.1,0-4.2,0.1-5.7,0.4c-1.5,0.3-2.1,0.7-2,1.2c0.1,0.4,0.9,0.7,1.8,1.1l-0.1,0
					c-5.5,0.1-10.8,0.6-14.6,1.4c0.6-0.2,0.7-0.4,0.9-0.6c0.2-0.4,0.4-0.8,0-1.2c-0.5-0.4-1.6-0.8-2.7-1.1c-1.2-0.4-2.6-0.8-4.7-1
					c-1.6-0.1-3.3-0.1-4.8,0.1c-1.5,0.1-2.8,0.3-4.1,0.5l-0.3,0c2-0.6,3.6-1.3,4.5-1.9c0.8-0.6,1.2-1.2-0.1-1.8
					c-1.4-0.5-4.4-0.9-7.4-0.9c-3,0-6,0.2-8.5,0.5c-3.1,0.4-5.7,0.9-7.5,1.5c0.7-0.7-0.9-1.6-3.9-2.1c-3.2-0.5-7.8-0.7-11.9-0.5
					c-1.9,0.1-3.7,0.3-5.1,0.5c-2.3,0.5-3,1.2-2.5,1.8c0.5,0.6,2.1,1.2,3.8,1.8h-1.1c-3.5-0.1-7.3,0-10.2,0.4
					c-3,0.4-5.1,1.1-5.1,1.8c0,0.7,2.2,1.4,5,1.9l-0.3,0.1c-5-0.2-10.5,0.4-12.5,1.3c-0.5-0.7-3-1.4-5.8-1.8
					c-2.1-0.4-4.8-0.7-7.5-0.6c-1,0.1-1.9,0.2-2.7,0.3c-1.8,0.3-3.5,0.5-5.3,0.8l-0.3,0c0.5-0.2,0.9-0.4,1.2-0.7
					c1-0.7,1.9-1.4,1.3-2c-0.6-0.7-3-1.4-6.5-1.4c-2.8-0.1-5.5,0.3-7.5,0.7c-4.7,0.9-7.2,2.3-6.7,3.6c-0.9-0.2-2.5-0.3-4-0.3
					c0,0-0.1,0-0.1,0c1.3,30.5,3.7,61,5.9,91.5H455C455.4,290.1,455.9,286.2,455,282.3z"/>
				
					<linearGradient id="SVGID_00000017485565923475998790000015761527000411675827_" gradientUnits="userSpaceOnUse" x1="-380.9181" y1="274.3472" x2="445.0667" y2="274.3472">
					<stop  offset="0.3935" style="stop-color:#62BB54"/>
					<stop  offset="0.4875" style="stop-color:#68BD53"/>
					<stop  offset="0.6154" style="stop-color:#7AC14E"/>
					<stop  offset="0.7341" style="stop-color:#90C749"/>
				</linearGradient>
				<polygon style="fill:url(#SVGID_00000017485565923475998790000015761527000411675827_);" points="-380.9,172.9 445.1,199 
					438.2,375.8 -380.9,375.8 				"/>
				<g class="st11">
					<g>
						<path class="st12" d="M-413.2,407h886.4c-4.3-10-8.7-21-10.3-28.6c-3.9-18-5.8-37.5-7.7-55.8c-0.6-5.7-0.8-11.4-0.7-17.1
							c0.2-11.8,1.7-23.7,0.5-35.5c-1.6-15.7-2.7-31.5-3.5-47.3c-0.3-6.7-0.6-13.3-0.8-20C222.2,200,54.7,198.5,43.2,200
							c-5.6,1.4-11.2,2.9-16.9,4.3c-22.8,5.6-47,10.2-73.6,13.5c-54.7,6.7-115.3,6.8-168.2,15.2c32,1.7,64.8,0.9,97-0.1
							c22.4-0.7,44.9-1.2,67.3-1.9c17.4-0.5,34.9-1.2,52.3-1.2c12.9,0,31.2-0.3,42.2,2.4c8.9,2.2,5.7,5.7-0.1,8.2
							c-9.5,4.1-23.6,7-36.9,9.5c-17.7,3.3-36.5,6.1-55.7,8.2c-18.2,2-37.2,3.7-56.5,4.2c-12.7,0.3-28.1,0.3-38.7-2.4
							c-0.6-0.2-0.7-0.4-0.2-0.6c11.8-4.8,34.6-4.8,44.7-10c-25-3.4-54.8-1.6-80.7-0.7c-32.6,1.1-65.3,2.5-98.1,2.8
							c-46.8,0.5-93.1-2.3-139.6-4.1C-416.5,300.5-414.5,353.8-413.2,407z"/>
					</g>
				</g>
				<g>
					<g>
						<g>
							<path class="st13" d="M-352.7,235.9c-9.1,1.6-18.6,2.7-27.8,3.8c-12.6,1.6-25.3,2.8-38,3.7c1.6,43.8,3.2,87.6,4.5,131.5
								l877.6,6.2c-0.3-0.9-0.5-1.8-0.7-2.7c-3.9-18-5.8-37.5-7.7-55.8c-0.6-5.7-0.8-11.4-0.7-17.1c0.2-11.8,1.7-23.7,0.5-35.5
								c-1.6-15.7-2.7-31.5-3.5-47.3c-0.5-10.4-0.9-20.9-1.1-31.3c-122.9-0.9-240.2-1.7-344.8-2.4c-6,0-11.9-0.1-17.8-0.1
								c-245.8-1.6-417.7-2.5-420.7-1.6c-10.4,3-21.9,6.1-30.8,11c-2,1.1-5.4,2.9-5.1,5c0.5,3.6,7.5,6.3,11.4,8
								c8.3,3.7,23.1,9.2,19.1,17.5C-340.4,233-346.7,234.9-352.7,235.9z"/>
							<path class="st14" d="M-419.4,221.8c2.8-0.4,5.5-1,8-1.9c2.3-0.8,4.5-1.7,6.2-2.9c2.1-1.5,1.5-2.2-1.3-2.8
								c-3.9-0.8-8.1-0.9-12.2-0.7c-0.3,0-0.6,0.1-0.9,0.1C-419.5,216.3-419.4,219.1-419.4,221.8z"/>
						</g>
					</g>
				</g>
				<g>
					<path class="st15" d="M418.2,201.6c-1.5,0-3.6,0.1-5.6,0.2c-4,0.2-7.6,0.6-8.5,1.6c-0.1,0.1-0.1,0.2,0.1,0.3
						c3.9,1.8,11.7,1.3,17,1c1.9-0.1,12.8-0.3,12.2-1.8C432.7,201.2,421.3,201.5,418.2,201.6z"/>
				</g>
				
					<linearGradient id="SVGID_00000122706819589684872890000006142177389787059376_" gradientUnits="userSpaceOnUse" x1="-1428.1003" y1="506.7961" x2="-1179.1146" y2="-55.1255" gradientTransform="matrix(-1 0 0 1 -1758.0491 0)">
					<stop  offset="0" style="stop-color:#0C512E"/>
					<stop  offset="0.5369" style="stop-color:#0C512E"/>
					<stop  offset="0.7671" style="stop-color:#0C512E"/>
				</linearGradient>
				<path style="fill:url(#SVGID_00000122706819589684872890000006142177389787059376_);" d="M-295.2,415.1c-1.3-12-2.5-24.3-5-32.2
					c-11.2-35.4-53.6-3.5-73-41.6c-10.6-20.7-7.1-48.4-19.8-56.5c-4.4-2.8-9.9-2.9-16.6,1.3c22.3,37.8,21.2,61.5,21.2,61.5
					s-12.2-29-27.9-42.4c0.3,9.1,0.6,18.2,0.9,27.3c8.1,9.4,16.8,16.1,16.8,24.5c0,2.5-7.7-7.6-16.5-14.4
					c1.9,56.9,3.3,113.7,3.2,170.6c62.8-1.9,105.8-9.1,111.6-25.5c6.2-17.4,6.6-36.4,6.6-36.4C-292.9,437.5-294.1,425.4-295.2,415.1
					z"/>
				<g>
					
						<linearGradient id="SVGID_00000044868137053312423910000016617101582645857446_" gradientUnits="userSpaceOnUse" x1="-420.1841" y1="325.4169" x2="-398.6268" y2="325.4169">
						<stop  offset="0" style="stop-color:#0C512E"/>
						<stop  offset="0.5369" style="stop-color:#0C512E"/>
						<stop  offset="0.7671" style="stop-color:#0C512E"/>
					</linearGradient>
					<path style="fill:url(#SVGID_00000044868137053312423910000016617101582645857446_);" d="M-414.8,350.3
						c13.5-13.6,16.2-49.7,16.2-49.7c-8.9,2-14.2,9.1-17.3,17.4C-415.5,328.7-415.2,339.5-414.8,350.3z"/>
					
						<linearGradient id="SVGID_00000026856040762237137850000015882657998808489870_" gradientUnits="userSpaceOnUse" x1="-398.6268" y1="324.1425" x2="-354.9476" y2="324.1425">
						<stop  offset="0" style="stop-color:#0C512E"/>
						<stop  offset="0.5369" style="stop-color:#0C512E"/>
						<stop  offset="0.7671" style="stop-color:#0C512E"/>
					</linearGradient>
					<path style="fill:url(#SVGID_00000026856040762237137850000015882657998808489870_);" d="M-398.6,352.2
						c0,0,13.3-47.5,43.7-56.1C-354.9,296.1-385.3,351.3-398.6,352.2z"/>
				</g>
				<g>
					
						<linearGradient id="SVGID_00000137098204978797549980000006882491743316335027_" gradientUnits="userSpaceOnUse" x1="-338.5258" y1="347.5203" x2="-286.2527" y2="347.5203">
						<stop  offset="0" style="stop-color:#0C512E"/>
						<stop  offset="0.5369" style="stop-color:#0C512E"/>
						<stop  offset="0.7671" style="stop-color:#0C512E"/>
					</linearGradient>
					<path style="fill:url(#SVGID_00000137098204978797549980000006882491743316335027_);" d="M-329.3,352.4c0,0,12.5-8.3,36.6-10.4
						c24.1-2.1-25.9-11-43.7,10.4C-336.4,352.4-344.4,361.9-329.3,352.4z"/>
					
						<linearGradient id="SVGID_00000116236009497936744230000011136090941186299810_" gradientUnits="userSpaceOnUse" x1="-364.3649" y1="334.4938" x2="-299.31" y2="334.4938">
						<stop  offset="0" style="stop-color:#0C512E"/>
						<stop  offset="0.5369" style="stop-color:#0C512E"/>
						<stop  offset="0.7671" style="stop-color:#0C512E"/>
					</linearGradient>
					<path style="fill:url(#SVGID_00000116236009497936744230000011136090941186299810_);" d="M-363.2,353.6c0,0,36.6-26.7,58-33.8
						c21.4-7.1-20.5-7.7-49.1,14.5C-354.2,334.3-368.5,347.7-363.2,353.6z"/>
					
						<linearGradient id="SVGID_00000096055606605319546010000015620640089104192701_" gradientUnits="userSpaceOnUse" x1="-377.0404" y1="327.6688" x2="-336.0565" y2="327.6688">
						<stop  offset="0" style="stop-color:#0C512E"/>
						<stop  offset="0.5369" style="stop-color:#0C512E"/>
						<stop  offset="0.7671" style="stop-color:#0C512E"/>
					</linearGradient>
					<path style="fill:url(#SVGID_00000096055606605319546010000015620640089104192701_);" d="M-373.9,353.6
						c0,0,24.3-43.3,35.3-48.6s-17.5-8.3-35.3,27C-373.9,331.9-381,350.6-373.9,353.6z"/>
					
						<linearGradient id="SVGID_00000013904054491091318710000005585914401544548245_" gradientUnits="userSpaceOnUse" x1="-390.2618" y1="330.0604" x2="-367.2802" y2="330.0604">
						<stop  offset="0" style="stop-color:#0C512E"/>
						<stop  offset="0.5369" style="stop-color:#0C512E"/>
						<stop  offset="0.7671" style="stop-color:#0C512E"/>
					</linearGradient>
					<path style="fill:url(#SVGID_00000013904054491091318710000005585914401544548245_);" d="M-386.8,353.6c0,0,9.4-39.7,18.3-45.7
						C-359.6,302-402.4,314.5-386.8,353.6z"/>
					
						<linearGradient id="SVGID_00000099647962310606979670000007754825888403032757_" gradientUnits="userSpaceOnUse" x1="-417.1458" y1="334.1795" x2="-392.1549" y2="334.1795">
						<stop  offset="0" style="stop-color:#0C512E"/>
						<stop  offset="0.5369" style="stop-color:#0C512E"/>
						<stop  offset="0.7671" style="stop-color:#0C512E"/>
					</linearGradient>
					<path style="fill:url(#SVGID_00000099647962310606979670000007754825888403032757_);" d="M-410.9,315.4
						c-2.5-0.7-4.1-0.8-5.1-0.5c0.1,1.7,0.1,3.4,0.2,5.2c4.4,7.9,18.8,22.8,23.7,33.5C-392.2,353.6-391.7,320.5-410.9,315.4z"/>
					
						<linearGradient id="SVGID_00000103962207657918289160000001691810807034696079_" gradientUnits="userSpaceOnUse" x1="-448.647" y1="339.6075" x2="-398.4001" y2="339.6075">
						<stop  offset="0" style="stop-color:#0C512E"/>
						<stop  offset="0.5369" style="stop-color:#0C512E"/>
						<stop  offset="0.7671" style="stop-color:#0C512E"/>
					</linearGradient>
					<path style="fill:url(#SVGID_00000103962207657918289160000001691810807034696079_);" d="M-415.6,325.6
						c0.1,4.1,0.3,8.2,0.4,12.3c6.5,4.6,12.6,9.9,16.8,15.6C-398.4,353.6-403.6,337.1-415.6,325.6z"/>
					
						<linearGradient id="SVGID_00000085214505910938424570000003871843483399307656_" gradientUnits="userSpaceOnUse" x1="-450.0567" y1="349.1331" x2="-400.9276" y2="349.1331">
						<stop  offset="0" style="stop-color:#0C512E"/>
						<stop  offset="0.5369" style="stop-color:#0C512E"/>
						<stop  offset="0.7671" style="stop-color:#0C512E"/>
					</linearGradient>
					<path style="fill:url(#SVGID_00000085214505910938424570000003871843483399307656_);" d="M-415,344.7c0.1,1.6,0.1,3.1,0.1,4.7
						c6.7,1.5,12.2,3,13.9,4.2C-400.9,353.6-405.9,348.7-415,344.7z"/>
				</g>
				<path class="st26" d="M-87,185c0,0-221.9,26.7-156.4,39.6c65.5,12.9,184.7,16.8,243.5,19.9c58.8,3.1,213.3-3.2,204.9-4.3
					s-67.1-9.8-111.7-6.3s-203.7,1.5-235.8-9.4c-32.1-10.9-12.3-21,40.7-21s230.9,5.8,213.4,5.4s-41.1-7.7-111.6-11.7
					C-70.4,193.4-87,185-87,185z"/>
				<path class="st26" d="M451.9,229.4c-84.9-6.1-210.5-15.6-210.5-15.6c65,26.1,143.7,33.7,211.7,34.1
					C452.6,241.7,452.2,235.5,451.9,229.4z"/>
				<g>
					<path class="st27" d="M-131.2,186.6c0,0,42-25.8,48.2-28.2c6.2-2.3,21.3-9.9,26.4-13.1c5.2-3.3,10.9-6.1,21.8-9.4
						s23.8-9.9,28.5-11.7s9.8-7,13-9.4s8.8-4.2,14.5-6.1s16.1-9.4,18.1-12.7s5.7-8,10.4-9.4c4.7-1.4,17.6-12.2,22.8-13.1
						c5.2-0.9,12.4,2.3,17.1,7c4.7,4.7,19.7,20.7,30.1,28.2c10.4,7.5,84,77.9,106.3,81.7c0,0,8.3,0.5,12.4,1.9h-382L-131.2,186.6z"
						/>
					<path class="st28" d="M80.3,75.2c0,0-5.3,3.6-3.6,7.2s2.2,4.8,2.2,4.8s1.8,5.6-1.8,3.2c-3.6-2.4-7.1-4.4-7.1-4.4
						s-3.1,2.8-0.4,6.4c2.7,3.6,3.6,5.2,5.3,7.2c1.8,2,4.4,5.2,7.1,6.8c2.7,1.6,4,0.4,4,2.8c0,2.4,5.8,5.2-1.3,5.2
						c-7.1,0,2.7,2,3.6,4c0.9,2,0,4,1.3,4s5.3-0.4,5.3-0.4s1.3,0.8,0.4,2.8c-0.9,2-0.9,4.4,3.6,6s3.6,5.6,10.2,6
						c6.7,0.4,8.4-0.8,12.4-1.6c4-0.8,8.9-2,10.2-3.6s4.9-4,4-5.2c-0.9-1.2,0-4.4-2.2-5.6c-2.2-1.2-4-4-4-4s-28.4-21.3-40.9-35.4
						C88.8,81.7,81.2,72.8,80.3,75.2z"/>
					<path class="st29" d="M81.6,79c3.5-1,20.2,22.5,29.9,28.5s24.7,20.7,24.7,20.7s13.3,20.5,6,17.4c-7.4-3.2-33.4-12-38.1-18.7
						S87.8,96.3,85.8,92.8C83.9,89.3,77.8,80.1,81.6,79z"/>
					<path class="st30" d="M33.4,187.5c0,0,20.6-15.1,35.4-22.5s25.3-13.4,29.5-19.7s28-20.4,31.1-21.8c3.1-1.4,17.9-11.6,23.7-10.2
						c5.8,1.4,4.5,5.9,10.5,11.6c5.4,5.1,26,20.4,30.7,24.3c4.7,3.9,23.3,15.5,35.8,21.1s21.1,12.8,31.3,15.7
						c12.1,3.4,21.1,7.3,32.7,7.3c0,0-14.4,0.8-32.7,0C167.1,189.4,32.7,188,33.4,187.5z"/>
					<path class="st28" d="M153,114.4c-2-1.4-6.6-0.2-9.7,2.8s-3.9,10.8-7,11c-3.1,0.2-6.5,2.6-4.9,4c1.6,1.4,8,5.9,10.4,5.6
						c2.3-0.2,4.7,0.2,3.6,2.3s0.5,0.9,7,5.9s10.1,5.9,10.5,8.3c0.4,2.5,2.7,6.3,9.3,10.2c6.6,3.9,12.1,10.6,14,12
						c1.9,1.4,38,11.5,53.5,13.4s30.6,2.8,50.3,3.8c0,0-43.1-9.4-62.8-23.5s-13.5-9.4-25.4-15c-11.9-5.6-45.7-34.5-47.1-36.2
						C153.9,118,154.1,115.1,153,114.4z"/>
					<path class="st31" d="M-86.8,159.7c0,0,32.3-15.5,37.7-16.9c5.4-1.4,6.2,0,8.2,4.2c1.9,4.2,2.7,6.7,5.1,8.4
						c2.3,1.8,17.5,5.6,22.5,5.6s13.6-4.6,20.2-5.3c6.6-0.7,14-4.2,15.2-6.3s10.1-4.9,12.1-5.6c1.9-0.7,3.9-2.8,5.1-1.4
						c1.2,1.4,3.1,4.9,3.9,8.1c0.8,3.2,2.3,5.3,11.3,7c8.9,1.8,13.2,6,22.5,2.5c9.3-3.5,9.5-12.2,14.8-11c4.7,1,5,11.7,12.4,12.8
						s9.3-2.1,14.4,0.7c5.1,2.8,22.9,6.7,28,8.8s23.3,4.9,29.9,7.7s14,4.2,29.5,9.2c15.5,4.9,28.4,2.5,30.7,2.5h-347.1L-86.8,159.7z
						"/>
					<path class="st30" d="M90.9,155c1.5,0.4,6.2,12,16.1,12s17.4,3.5,22.5,6.1c5.2,2.6,45.1,8.2,50.3,10.1c5.2,1.9,30.8,5.6,33.2,7
						H97.4c0,0-11.1-4.2-9.3-25.6C88.1,164.6,86.9,153.8,90.9,155z"/>
					<path class="st32" d="M-88.7,160.8c0,0,23.8-8,30.6-9.9c6.7-1.9,11.4-7.5,11.9,0c0.5,7.5,5.2,7.5,8.8,8.9s9.3,6.6,6.7,9.9
						c-2.6,3.3-4.7,10.8-13,14.5s-2.6,10.3-33.2,8.4s-39.4-1.9-39.4-1.9L-88.7,160.8z"/>
					<path class="st32" d="M37.4,143.9c-1.7,0.4-1.4,1.3-4.7,3.1s-6.2,1.4-7.9,5.3c-1.7,3.9-7.1,5.8-7.4,7.2
						c-0.3,1.4,1.2,3.9-2.1,4.7s-6.2,3.4-7.3,4.8s-8.1,6.3-11.7,5.8c-3.6-0.5-9,3.1-9,3.1s-2.2,1.6-6.4,5.3
						c-4.1,3.8-8.6,6.1-9.3,6.3c-0.7,0.2-2.1,1.3-2.1,1.3s24.5-0.5,31.6-0.5s18.7,0.3,19.2-5.3s8.5-7.2,6.2-13s-2.2-7.7,0.2-10.3
						s6.7-7.4,6.7-7.8c0-0.5,1.9-5,2.8-6.1S40.7,143.2,37.4,143.9z"/>
					<path class="st29" d="M148.7,118.4c0,0-6.7,4-6.5,6.3c0.3,2.3-3.6,8.2-2.6,9.2c1,0.9,11.1,3.8,13.2,6.1
						c2.1,2.3,17.4,14.1,19.2,16.4s6.5,6.8,10.4,11s9.6,9.9,17.6,10.6s24.1,6.3,28.2,7.5c4.1,1.2,13.2,2.3,20.2,3.1
						c7,0.7,12.2,1.9,13.5,1.9c1.3,0,10.6,0.2,10.6,0.2s-21.8-5.6-32.1-9.6c-10.4-4-15.5-6.8-22-10.3c-6.5-3.5-12.4-1.9-17.9-5.9
						c-5.4-4-7.8-6.1-10.6-10.8s-4.4-6.1-10.1-9.2c-5.7-3.1-10.9-4-14.3-7.7c-3.4-3.8-11.9-8.9-12.7-12.7
						C152.1,120.7,152.1,116.9,148.7,118.4z"/>
				</g>
			</g>
		</g>
	</g>
	<path class="st33" d="M193.6,0.1H38.1c-20.9,0-37.8,17-37.8,37.8v155.6c0,22.9,18.6,41.5,41.5,41.5h151.9
		c22.9,0,41.5-18.6,41.5-41.5V41.6C235.1,18.7,216.5,0.1,193.6,0.1z M228.4,193.5c0,19.2-15.6,34.8-34.8,34.8H41.7
		c-19.2,0-34.8-15.6-34.8-34.8V40.4C6.9,21.8,22,6.8,40.6,6.8h153.1c19.2,0,34.8,15.6,34.8,34.8V193.5z"/>
</g>
</svg>
