<?xml version="1.0" encoding="UTF-8"?><svg id="a" xmlns="http://www.w3.org/2000/svg" viewBox="0 0 198.23 195.11"><defs><style>.b{opacity:.7;}.c{fill:#fff;}.d{fill:#ff472b;}.e{opacity:.5;}.f{opacity:.6;}.g{fill:#ffb3a1;}.h{fill:#ff612c;}.i{fill:#ff4516;}.j{opacity:.4;}.k{fill:#e51800;}.l{fill:#f12701;}.m{fill:#de1900;}.n{fill:#ff6e6a;}.o{fill:#ffaa96;}.p{fill:#b80901;}.q{fill:#d41600;}</style></defs><path class="e" d="M162.59,192.11c-.29,0-.6,0-.94-.01-.04,0-.08,0-.12,0-.63-.02-1.42-.06-2.32-.13-.01,0-.03,0-.04,0-.42-.03-.87-.08-1.35-.13-.54-.06-1.04-.11-1.55-.18-.04,0-.11-.01-.11-.01-.51-.06-1.05-.14-1.62-.22l-.14-.02c-.56-.08-1.18-.18-1.82-.29h-.08c-11.78-2-28.17-6.66-48.75-13.89-1.99,.79-5.49,2.14-10.01,3.7,0,0-1.8,.61-1.8,.62-.5,.17-1.84,.61-1.84,.61l-1.61,.52c-.63,.2-2.04,.65-2.04,.65l-1.88,.58c-.56,.17-1.86,.56-1.88,.56-.59,.17-2.15,.62-2.15,.62-.58,.16-1.82,.51-1.84,.51-.61,.17-2.35,.63-2.35,.63-.54,.14-1.97,.5-1.97,.5-.61,.15-1.25,.31-1.9,.46l-.44,.1c-.53,.13-1.07,.25-1.6,.37l-.37,.08c-.74,.17-1.39,.31-2.05,.45,0,0-1.45,.3-2.01,.41l-.53,.1c-.67,.13-1.33,.26-2,.38,0,0-.04,0-.06,.01-.65,.12-1.29,.23-1.94,.33l-.5,.08c-.6,.1-1.19,.19-1.77,.27l-.27,.04c-.69,.1-1.35,.19-2,.27l-.52,.06c-.52,.06-1.06,.12-1.6,.18l-.45,.05c-.66,.07-1.31,.13-1.96,.18l-.42,.03c-.54,.04-1.08,.08-1.61,.11l-.52,.03c-.64,.03-1.29,.06-1.93,.08h-.21c-.54,.02-1.07,.02-1.6,.02h-.67c-.57,0-1.16-.02-1.74-.04h-.17c-.63-.03-1.26-.07-1.88-.11l-.47-.04c-.53-.04-1.04-.09-1.54-.15l-.39-.04c-.59-.07-1.19-.15-1.79-.25l-.4-.07c-.5-.09-.98-.18-1.46-.28l-.45-.09c-.58-.13-1.16-.27-1.73-.42l-.25-.07c-.52-.15-1-.3-1.48-.45l-.47-.16c-.55-.19-1.11-.4-1.65-.63-.5-.21-.96-.5-1.37-.86-.25-.22-.5-.44-.75-.68,0,0-.58-.56-.75-.73l-.74-.78-.73-.81s-.63-.73-.75-.87l-.72-.88-.71-.91-.7-.93-.71-.99c-.14-.2-.69-1.01-.69-1.01-.14-.21-.5-.76-.5-.76l-.82-1.29c-.16-.26-.67-1.1-.67-1.1-.15-.25-.61-1.05-.61-1.05-.16-.29-.6-1.07-.6-1.07-.17-.32-.33-.62-.48-.91l4.38-2.41-4.43,2.32-.09-.18c-.14-.27-.3-.58-.45-.89l-.1-.19c-.15-.31-.3-.61-.44-.92,0-.01-.11-.22-.11-.23-.14-.31-.28-.62-.42-.93l-.12-.28c-.1-.23-.23-.53-.35-.84-.01-.03-.07-.17-.07-.17-.15-.38-.27-.67-.38-.97-.02-.04-.1-.26-.1-.26-.11-.28-.21-.58-.32-.87l4.67-1.81-4.71,1.68-.14-.42-.28-.88c-.09-.3-.18-.58-.25-.86,0-.02-.09-.32-.09-.32-.08-.28-.15-.56-.21-.83l-.07-.32c-.07-.3-.13-.57-.18-.84l-.06-.33c-.06-.32-.11-.58-.15-.83l-.08-.61c-.02-.19-.05-.37-.07-.55-.01-.13-.08-.92-.08-.99v-.16c-.02-.19-.02-.34-.02-.5v-.1c0-.27-.01-.44-.01-.61,0-.04,.03-.66,.03-.67,0-.21,.02-.36,.03-.5,0-.11,.02-.21,.03-.31l-.16-.31c-.26-.52-.51-1.05-.74-1.6-.01-.03-.04-.1-.05-.12-.21-.48-.41-1-.61-1.52l-.14-.38c-.2-.56-.4-1.11-.58-1.66,0-.03-.04-.14-.05-.17-.16-.49-.31-1.01-.46-1.53l-.11-.38c-.15-.55-.29-1.12-.43-1.68,0-.01-.03-.11-.03-.13-.13-.56-.24-1.08-.34-1.61l-.06-.32c-.11-.57-.21-1.14-.3-1.71,0-.03-.02-.12-.02-.15-.08-.54-.16-1.08-.22-1.62l-.02-.15c-.08-.64-.13-1.22-.18-1.79v-.12c-.05-.53-.08-1.08-.11-1.62v-.04c-.03-.66-.05-1.23-.05-1.79,0-1.7,.07-3.28,.25-4.74,0-.03,0-.06,.01-.09,.07-.53,.14-1.05,.23-1.54l.02-.11c.09-.5,.18-.93,.28-1.35l.02-.07c.11-.44,.23-.85,.35-1.25,.03-.08,.05-.17,.08-.25,0-.01,.03-.08,.06-.16,.08-.24,.16-.44,.24-.63l.1-.23s.12-.29,.14-.33c.06-.13,.23-.48,.25-.52-.01-.17-.08-1.05-.08-1.05-.05-.71-.09-1.41-.12-2.1l-.02-.69c0-.36-.02-.72-.02-1.06v-.94l.02-1.23c.01-.3,.07-1.47,.07-1.47,.02-.36,.05-.7,.08-1.03l.03-.39s.04-.38,.04-.41c.03-.31,.07-.62,.1-.92l.06-.42c.05-.36,.1-.66,.15-.95,0,0,.19-1.02,.19-1.04,.02-.09,.17-.78,.17-.78,.07-.29,.15-.58,.23-.87,.05-.18,.08-.29,.11-.39,.12-.4,.25-.8,.39-1.18l.12-.3c.1-.25,.19-.49,.3-.72,.02-.05,.23-.48,.23-.48l.79,.37v-.11l-.74-.37c.07-.15,.14-.29,.21-.42,.05-.09,.12-.21,.18-.3,0,0,.15-.24,.21-.35,.07-.11,.13-.22,.2-.32,0-.09,.04-.6,.04-.6,.06-.68,.14-1.36,.25-2.04l.07-.39c.11-.67,.25-1.33,.4-1.97,0-.04,.04-.16,.05-.2,.16-.63,.34-1.29,.55-1.95,.24-.75,.47-1.4,.71-2.04l4.71,1.69-4.64-1.86c.26-.67,.53-1.29,.81-1.91,.02-.05,.05-.1,.06-.13,.32-.69,.67-1.4,1.04-2.09l.02-.04c2.07-3.83,4.95-7.65,8.33-11.04l.06-.06c1.07-1.07,2.19-2.1,3.3-3.04,.02-.01,.29-.24,.38-.31,0,0,.1-.28,.1-.29l.23-.63c.22-.57,.44-1.13,.7-1.75,0-.02,.03-.07,.03-.07,.26-.62,.56-1.3,.9-2.03l.05-.11c.33-.7,.71-1.48,1.14-2.31l.03-.06c.7-1.34,1.47-2.69,2.28-4.01,0-.01,.02-.03,.03-.04,.28-.45,.56-.91,.86-1.36l-12.23-22.62c-.6-1.12-.76-2.42-.44-3.65,0-.03,.07-.26,.09-.31,.02-.06,.13-.4,.13-.42,.4-1.19,1.32-3.48,3.07-5.79l.05-.06c3.31-4.34,7.9-6.63,13.26-6.63,1,0,2.04,.08,3.09,.25,.14,.02,.32,.05,.5,.08,.25,.04,.49,.09,.73,.15,.23,.05,.48,.11,.72,.17,0,0,.43,.11,.59,.15,.46,.12,.92,.26,1.4,.42,.24,.08,.47,.18,.69,.29,.46,.23,.9,.36,1.25,.36h.17s.14-.06,.17-.07c.1-.06,.15-.09,.19-.12,.07-.05,.12-.1,.16-.14l.05-.06c.08-.08,.15-.15,.22-.24l.25-.31,.28-.4,.28-.44,.32-.53,.36-.63c1.2-2.08,2.7-4.67,5.62-6.43,2.05-1.23,4.39-1.88,6.75-1.88,2.07,0,4.14,.5,6,1.46,1.54,.79,2.68,1.86,3.59,2.73,.33,.32,.82,.77,1.1,.98l.07-.03,.08-.06,.06-.05s.06-.05,.1-.09c0,0,.15-.15,.21-.22,.13-.15,.22-.25,.3-.36,.41-.53,.83-1.19,1.28-1.89,.53-.83,1.09-1.7,1.75-2.55,.06-.07,.13-.16,.2-.24,2.71-3.31,6.9-5.34,11.25-5.43h.24c3.96,0,6.75,2.01,8.52,3.55,.02,.02,.04,.04,.06,.05,.42,.37,.84,.75,1.25,1.15,1.08,1.02,1.93,1.68,2.75,2.13,.15,.08,.31,.16,.47,.23,.02,0,.04,.02,.07,.03,.16,.07,.3,.12,.44,.17l.2,.06c.17,.05,.29,.09,.43,.12h.02c.12-.03,.25-.08,.39-.12l.23-.07c.12-.04,.26-.1,.4-.16,.03-.01,.06-.03,.09-.04,.19-.09,.33-.16,.47-.23,.83-.45,1.68-1.1,2.76-2.13,.41-.39,.83-.78,1.25-1.15,.02-.02,.04-.04,.06-.05,1.76-1.54,4.55-3.55,8.52-3.55h.24c4.35,.09,8.54,2.11,11.24,5.42,.08,.09,.16,.19,.23,.28,.54,.69,1.03,1.44,1.44,2.07l.29,.46c.26,.42,.53,.83,.81,1.24,.09,.14,.2,.29,.31,.44l.15,.19c.09,.11,.17,.22,.27,.32,0,0,.16,.18,.23,.24,.08,.08,.12,.11,.16,.14,0,0,.12,.08,.13,.09l.04,.02c.33-.24,.72-.61,1.11-.97,.73-.69,1.63-1.55,2.78-2.26,.26-.17,.53-.32,.81-.46,1.87-.96,3.94-1.46,6.01-1.46,2.37,0,4.7,.65,6.75,1.88,2.93,1.76,4.42,4.35,5.62,6.43l.49,.83,.34,.55,.29,.44,.13,.18,.26,.32c.06,.07,.13,.15,.21,.22,.02,.02,.05,.05,.07,.07,0,0,.06,.06,.12,.11,.07,.05,.12,.08,.17,.11l.09,.06-.88,4.93,.98-4.9h.14l-.13,5.01,.24-5c.29,0,.74-.13,1.2-.36,.22-.11,.45-.21,.69-.29,.48-.16,.94-.3,1.4-.42,.16-.04,.58-.15,.59-.15,.24-.06,.49-.12,.72-.17,.24-.05,.48-.1,.72-.14,.2-.04,.37-.06,.54-.09,1.02-.16,2.06-.24,3.07-.24,5.36,0,9.95,2.29,13.26,6.63l.05,.06c1.75,2.31,2.67,4.61,3.06,5.77,0,.02,.17,.53,.18,.56l.05,.19c.32,1.22,.17,2.54-.44,3.65l-12.55,23.21c3.37,5.5,5.11,10.15,5.83,12.4,.73,.88,1.47,2.1,2.14,3.81v.02c.11,.26,.21,.53,.3,.82l.04,.13c.09,.27,.18,.56,.27,.86,0,.02,.02,.06,.02,.07,.09,.3,.17,.63,.26,.96l.05,.22c.07,.27,.15,.61,.22,.97v.06c.46,2.15,.77,4.63,.92,7.41,.43,.51,.89,1.05,1.36,1.63,.18,.22,.58,.72,.59,.73,.3,.38,.6,.77,.9,1.18l.14,.19c.35,.48,.72,1,1.09,1.54,.14,.21,.46,.7,.47,.7,.26,.4,.54,.83,.81,1.28,.02,.02,.03,.05,.04,.07,.26,.43,.52,.88,.78,1.33l.09,.17c.23,.42,.48,.88,.72,1.35,0,0,.06,.12,.07,.13,.26,.51,.52,1.04,.77,1.59l.1,.23c.2,.42,.42,.94,.64,1.47,0,0,.09,.22,.1,.23,.24,.58,.47,1.17,.7,1.79,0,.02,.08,.23,.08,.23,.18,.49,.38,1.07,.58,1.67l.1,.3c.22,.67,.42,1.35,.62,2.05,0,.03,.02,.08,.03,.13,.18,.65,.36,1.32,.53,2.01l.09,.36c.23,.97,.45,1.97,.64,2.99,0,.03,.01,.06,.02,.08,.1,.53,.2,1.08,.3,1.63l.08,.46c.25,1.54,.46,3.04,.62,4.59l.19,2c.06,.68,.11,1.36,.16,2.05,.68,7.87,.09,14.96-1.77,21.08-.17,.54-.34,1.07-.52,1.58l-.08,.23c-1.43,4-3.44,7.48-5.86,10.18-.22,1.72-.7,3.68-1.45,5.86-2.3,6.71-6.76,14.67-11.09,19.8l-.16,.18c-2.3,2.7-4.45,4.47-6.55,5.39-.1,.04-.2,.09-.31,.12-.06,.02-.16,.05-.22,.07-.07,.02-.31,.09-.36,.1-.06,.02-.37,.09-.5,.11,0,0-.5,.09-.54,.09-.31,.05-.72,.09-1.24,.13-.02,0-.04,0-.06,0-.21,.01-.45,.03-.7,.04-.03,0-.1,0-.1,0-.24,0-.5,.01-.79,.01h-.08Z"/><path class="c" d="M157.59,187.11c-.29,0-.6,0-.94-.01-.04,0-.08,0-.12,0-.63-.02-1.42-.06-2.32-.13-.01,0-.03,0-.04,0-.42-.03-.87-.08-1.35-.13-.54-.06-1.04-.11-1.55-.18-.04,0-.11-.01-.11-.01-.51-.06-1.05-.14-1.62-.22l-.14-.02c-.56-.08-1.18-.18-1.82-.29h-.08c-11.78-2-28.17-6.66-48.75-13.89-1.99,.79-5.49,2.14-10.01,3.7,0,0-1.8,.61-1.8,.62-.5,.17-1.84,.61-1.84,.61l-1.61,.52c-.63,.2-2.04,.65-2.04,.65l-1.88,.58c-.56,.17-1.86,.56-1.88,.56-.59,.17-2.15,.62-2.15,.62-.58,.16-1.82,.51-1.84,.51-.61,.17-2.35,.63-2.35,.63-.54,.14-1.97,.5-1.97,.5-.61,.15-1.25,.31-1.9,.46l-.44,.1c-.53,.13-1.07,.25-1.6,.37l-.37,.08c-.74,.17-1.39,.31-2.05,.45,0,0-1.45,.3-2.01,.41l-.53,.1c-.67,.13-1.33,.26-2,.38,0,0-.04,0-.06,.01-.65,.12-1.29,.23-1.94,.33l-.5,.08c-.6,.1-1.19,.19-1.77,.27l-.27,.04c-.69,.1-1.35,.19-2,.27l-.52,.06c-.52,.06-1.06,.12-1.6,.18l-.45,.05c-.66,.07-1.31,.13-1.96,.18l-.42,.03c-.54,.04-1.08,.08-1.61,.11l-.52,.03c-.64,.03-1.29,.06-1.93,.08h-.21c-.54,.02-1.07,.02-1.6,.02h-.67c-.57,0-1.16-.02-1.74-.04h-.17c-.63-.03-1.26-.07-1.88-.11l-.47-.04c-.53-.04-1.04-.09-1.54-.15l-.39-.04c-.59-.07-1.19-.15-1.79-.25l-.4-.07c-.5-.09-.98-.18-1.46-.28l-.45-.09c-.58-.13-1.16-.27-1.73-.42l-.25-.07c-.52-.15-1-.3-1.48-.45l-.47-.16c-.55-.19-1.11-.4-1.65-.63-.5-.21-.96-.5-1.37-.86-.25-.22-.5-.44-.75-.68,0,0-.58-.56-.75-.73l-.74-.78-.73-.81s-.63-.73-.75-.87l-.72-.88-.71-.91-.7-.93-.71-.99c-.14-.2-.69-1.01-.69-1.01-.14-.21-.5-.76-.5-.76l-.82-1.29c-.16-.26-.67-1.1-.67-1.1-.15-.25-.61-1.05-.61-1.05-.16-.29-.6-1.07-.6-1.07-.17-.32-.33-.62-.48-.91l4.38-2.41-4.43,2.32-.09-.18c-.14-.27-.3-.58-.45-.89l-.1-.19c-.15-.31-.3-.61-.44-.92,0-.01-.11-.22-.11-.23-.14-.31-.28-.62-.42-.93l-.12-.28c-.1-.23-.23-.53-.35-.84-.01-.03-.07-.17-.07-.17-.15-.38-.27-.67-.38-.97-.02-.04-.1-.26-.1-.26-.11-.28-.21-.58-.32-.87l4.67-1.81-4.71,1.68-.14-.42-.28-.88c-.09-.3-.18-.58-.25-.86,0-.02-.09-.32-.09-.32-.08-.28-.15-.56-.21-.83l-.07-.32c-.07-.3-.13-.57-.18-.84l-.06-.33c-.06-.32-.11-.58-.15-.83l-.08-.61c-.02-.19-.05-.37-.07-.55-.01-.13-.08-.92-.08-.99v-.16c-.02-.19-.02-.34-.02-.5v-.1c0-.27-.01-.44-.01-.61,0-.04,.03-.66,.03-.67,0-.21,.02-.36,.03-.5,0-.11,.02-.21,.03-.31l-.16-.31c-.26-.52-.51-1.05-.74-1.6-.01-.03-.04-.1-.05-.12-.21-.48-.41-1-.61-1.52l-.14-.38c-.2-.56-.4-1.11-.58-1.66,0-.03-.04-.14-.05-.17-.16-.49-.31-1.01-.46-1.53l-.11-.38c-.15-.55-.29-1.12-.43-1.68,0-.01-.03-.11-.03-.13-.13-.56-.24-1.08-.34-1.61l-.06-.32c-.11-.57-.21-1.14-.3-1.71,0-.03-.02-.12-.02-.15-.08-.54-.16-1.08-.22-1.62l-.02-.15c-.08-.64-.13-1.22-.18-1.79v-.12c-.05-.53-.08-1.08-.11-1.62v-.04c-.03-.66-.05-1.23-.05-1.79,0-1.7,.07-3.28,.25-4.74,0-.03,0-.06,.01-.09,.07-.53,.14-1.05,.23-1.54l.02-.11c.09-.5,.18-.93,.28-1.35l.02-.07c.11-.44,.23-.85,.35-1.25,.03-.08,.05-.17,.08-.25,0-.01,.03-.08,.06-.16,.08-.24,.16-.44,.24-.63l.1-.23s.12-.29,.14-.33c.06-.13,.23-.48,.25-.52-.01-.17-.08-1.05-.08-1.05-.05-.71-.09-1.41-.12-2.1l-.02-.69c0-.36-.02-.72-.02-1.06v-.94l.02-1.23c.01-.3,.07-1.47,.07-1.47,.02-.36,.05-.7,.08-1.03l.03-.39s.04-.38,.04-.41c.03-.31,.07-.62,.1-.92l.06-.42c.05-.36,.1-.66,.15-.95,0,0,.19-1.02,.19-1.04,.02-.09,.17-.78,.17-.78,.07-.29,.15-.58,.23-.87,.05-.18,.08-.29,.11-.39,.12-.4,.25-.8,.39-1.18l.12-.3c.1-.25,.19-.49,.3-.72,.02-.05,.23-.48,.23-.48l.79,.37v-.11l-.74-.37c.07-.15,.14-.29,.21-.42,.05-.09,.12-.21,.18-.3,0,0,.15-.24,.21-.35,.07-.11,.13-.22,.2-.32,0-.09,.04-.6,.04-.6,.06-.68,.14-1.36,.25-2.04l.07-.39c.11-.67,.25-1.33,.4-1.97,0-.04,.04-.16,.05-.2,.16-.63,.34-1.29,.55-1.95,.24-.75,.47-1.4,.71-2.04l4.71,1.69-4.64-1.86c.26-.67,.53-1.29,.81-1.91,.02-.05,.05-.1,.06-.13,.32-.69,.67-1.4,1.04-2.09l.02-.04c2.07-3.83,4.95-7.65,8.33-11.04l.06-.06c1.07-1.07,2.19-2.1,3.3-3.04,.02-.01,.29-.24,.38-.31,0,0,.1-.28,.1-.29l.23-.63c.22-.57,.44-1.13,.7-1.75,0-.02,.03-.07,.03-.07,.26-.62,.56-1.3,.9-2.03l.05-.11c.33-.7,.71-1.48,1.14-2.31l.03-.06c.7-1.34,1.47-2.69,2.28-4.01,0-.01,.02-.03,.03-.04,.28-.45,.56-.91,.86-1.36l-12.23-22.62c-.6-1.12-.76-2.42-.44-3.65,0-.03,.07-.26,.09-.31,.02-.06,.13-.4,.13-.42,.4-1.19,1.32-3.48,3.07-5.79l.05-.06c3.31-4.34,7.9-6.63,13.26-6.63,1,0,2.04,.08,3.09,.25,.14,.02,.32,.05,.5,.08,.25,.04,.49,.09,.73,.15,.23,.05,.48,.11,.72,.17,0,0,.43,.11,.59,.15,.46,.12,.92,.26,1.4,.42,.24,.08,.47,.18,.69,.29,.46,.23,.9,.36,1.25,.36h.17s.14-.06,.17-.07c.1-.06,.15-.09,.19-.12,.07-.05,.12-.1,.16-.14l.05-.06c.08-.08,.15-.15,.22-.24l.25-.31,.28-.4,.28-.44,.32-.53,.36-.63c1.2-2.08,2.7-4.67,5.62-6.43,2.05-1.23,4.39-1.88,6.75-1.88,2.07,0,4.14,.5,6,1.46,1.54,.79,2.68,1.86,3.59,2.73,.33,.32,.82,.77,1.1,.98l.07-.03,.08-.06,.06-.05s.06-.05,.1-.09c0,0,.15-.15,.21-.22,.13-.15,.22-.25,.3-.36,.41-.53,.83-1.19,1.28-1.89,.53-.83,1.09-1.7,1.75-2.55,.06-.07,.13-.16,.2-.24,2.71-3.31,6.9-5.34,11.25-5.43h.24c3.96,0,6.75,2.01,8.52,3.55,.02,.02,.04,.04,.06,.05,.42,.37,.84,.75,1.25,1.15,1.08,1.02,1.93,1.68,2.75,2.13,.15,.08,.31,.16,.47,.23,.02,0,.04,.02,.07,.03,.16,.07,.3,.12,.44,.17l.2,.06c.17,.05,.29,.09,.43,.12h.02c.12-.03,.25-.08,.39-.12l.23-.07c.12-.04,.26-.1,.4-.16,.03-.01,.06-.03,.09-.04,.19-.09,.33-.16,.47-.23,.83-.45,1.68-1.1,2.76-2.13,.41-.39,.83-.78,1.25-1.15,.02-.02,.04-.04,.06-.05,1.76-1.54,4.55-3.55,8.52-3.55h.24c4.35,.09,8.54,2.11,11.24,5.42,.08,.09,.16,.19,.23,.28,.54,.69,1.03,1.44,1.44,2.07l.29,.46c.26,.42,.53,.83,.81,1.24,.09,.14,.2,.29,.31,.44l.15,.19c.09,.11,.17,.22,.27,.32,0,0,.16,.18,.23,.24,.08,.08,.12,.11,.16,.14,0,0,.12,.08,.13,.09l.04,.02c.33-.24,.72-.61,1.11-.97,.73-.69,1.63-1.55,2.78-2.26,.26-.17,.53-.32,.81-.46,1.87-.96,3.94-1.46,6.01-1.46,2.37,0,4.7,.65,6.75,1.88,2.93,1.76,4.42,4.35,5.62,6.43l.49,.83,.34,.55,.29,.44,.13,.18,.26,.32c.06,.07,.13,.15,.21,.22,.02,.02,.05,.05,.07,.07,0,0,.06,.06,.12,.11,.07,.05,.12,.08,.17,.11l.09,.06-.88,4.93,.98-4.9h.14l-.13,5.01,.24-5c.29,0,.74-.13,1.2-.36,.22-.11,.45-.21,.69-.29,.48-.16,.94-.3,1.4-.42,.16-.04,.58-.15,.59-.15,.24-.06,.49-.12,.72-.17,.24-.05,.48-.1,.72-.14,.2-.04,.37-.06,.54-.09,1.02-.16,2.06-.24,3.07-.24,5.36,0,9.95,2.29,13.26,6.63l.05,.06c1.75,2.31,2.67,4.61,3.06,5.77,0,.02,.17,.53,.18,.56l.05,.19c.32,1.22,.17,2.54-.44,3.65l-12.55,23.21c3.37,5.5,5.11,10.15,5.83,12.4,.73,.88,1.47,2.1,2.14,3.81v.02c.11,.26,.21,.53,.3,.82l.04,.13c.09,.27,.18,.56,.27,.86,0,.02,.02,.06,.02,.07,.09,.3,.17,.63,.26,.96l.05,.22c.07,.27,.15,.61,.22,.97v.06c.46,2.15,.77,4.63,.92,7.41,.43,.51,.89,1.05,1.36,1.63,.18,.22,.58,.72,.59,.73,.3,.38,.6,.77,.9,1.18l.14,.19c.35,.48,.72,1,1.09,1.54,.14,.21,.46,.7,.47,.7,.26,.4,.54,.83,.81,1.28,.02,.02,.03,.05,.04,.07,.26,.43,.52,.88,.78,1.33l.09,.17c.23,.42,.48,.88,.72,1.35,0,0,.06,.12,.07,.13,.26,.51,.52,1.04,.77,1.59l.1,.23c.2,.42,.42,.94,.64,1.47,0,0,.09,.22,.1,.23,.24,.58,.47,1.17,.7,1.79,0,.02,.08,.23,.08,.23,.18,.49,.38,1.07,.58,1.67l.1,.3c.22,.67,.42,1.35,.62,2.05,0,.03,.02,.08,.03,.13,.18,.65,.36,1.32,.53,2.01l.09,.36c.23,.97,.45,1.97,.64,2.99,0,.03,.01,.06,.02,.08,.1,.53,.2,1.08,.3,1.63l.08,.46c.25,1.54,.46,3.04,.62,4.59l.19,2c.06,.68,.11,1.36,.16,2.05,.68,7.87,.09,14.96-1.77,21.08-.17,.54-.34,1.07-.52,1.58l-.08,.23c-1.43,4-3.44,7.48-5.86,10.18-.22,1.72-.7,3.68-1.45,5.86-2.3,6.71-6.76,14.67-11.09,19.8l-.16,.18c-2.3,2.7-4.45,4.47-6.55,5.39-.1,.04-.2,.09-.31,.12-.06,.02-.16,.05-.22,.07-.07,.02-.31,.09-.36,.1-.06,.02-.37,.09-.5,.11,0,0-.5,.09-.54,.09-.31,.05-.72,.09-1.24,.13-.02,0-.04,0-.06,0-.21,.01-.45,.03-.7,.04-.03,0-.1,0-.1,0-.24,0-.5,.01-.79,.01h-.08Z"/><g><path class="l" d="M184.97,122.5c-1.43-22.03-9.38-29.84-13.36-34.64-.38-12.73-3.73-14.6-3.73-14.6,0,0-11.02-43.73-69.26-43.73S28.36,73.26,28.36,73.26c-5.77,4.4-15.5,14.6-15.5,26.87-2.78,2.42-3.71,10.54-2.69,19.28-3.3,3.69-3.18,19.37,2.69,29.58-2.06,8.06,7.1,23.64,13.68,29.41,22.24,9.37,72.07-11.53,72.07-11.53,52.23,18.49,61.86,14.97,61.86,14.97,6.31-2.77,16.56-21.46,16.39-28.84,4.87-4.5,9.54-14.24,8.11-30.51Z"/><g><path class="o" d="M102.42,161.16c16.43,9.31,47.65,15.37,61.78,17.76,.72-.76,1.45-1.62,2.19-2.57-12.99-2.16-46.03-8.35-62.54-17.7l-1.42,2.51Z"/><path class="o" d="M126.61,147.06l-1,2.7c16.8,6.2,38.4,9.62,49.41,11.07,.37-.96,.69-1.89,.95-2.78-10.69-1.39-32.51-4.77-49.37-10.99Z"/></g><g class="f"><path class="p" d="M110.67,108.79s-.37,0-1.06,.02c-.69,0-1.7,.03-2.98,0-1.28-.02-2.84-.03-4.61-.09-1.78-.08-3.78-.09-5.97-.3-2.19-.22-4.56-.49-7.07-.8-1.26-.16-2.55-.33-3.87-.5-1.31-.21-2.63-.5-3.99-.76-1.35-.26-2.73-.55-4.12-.84-1.39-.29-2.81-.55-4.2-.98-2.8-.79-5.65-1.57-8.47-2.48-1.39-.52-2.78-1.04-4.17-1.55-.69-.26-1.38-.52-2.07-.78l-1.03-.4c-.34-.14-.67-.31-1-.46-1.33-.61-2.65-1.24-3.94-1.86-.65-.31-1.29-.62-1.93-.93-.62-.36-1.23-.71-1.84-1.07-1.21-.72-2.4-1.4-3.55-2.1-1.13-.75-2.2-1.54-3.24-2.3-.52-.38-1.03-.76-1.54-1.13-.48-.4-.95-.81-1.41-1.22-.9-.82-1.81-1.56-2.6-2.37-.77-.83-1.5-1.63-2.2-2.39-.36-.37-.64-.79-.94-1.18-.29-.39-.57-.77-.85-1.14-.56-.72-1-1.46-1.39-2.16-.2-.34-.39-.67-.57-.98-.17-.32-.3-.64-.45-.94-.59-1.17-.86-2.17-1.06-2.83-.17-.68-.2-1.04-.2-1.04,0,0,.04,.08,.12,.24l.39,.67c.36,.58,.92,1.39,1.73,2.35,.2,.24,.39,.5,.62,.76,.24,.25,.49,.51,.76,.78,.53,.53,1.05,1.14,1.73,1.69,.67,.56,1.29,1.21,2.07,1.79,.77,.58,1.57,1.19,2.41,1.83,.85,.62,1.81,1.19,2.75,1.82,.47,.31,.96,.63,1.44,.95,.52,.28,1.04,.57,1.57,.87,1.07,.57,2.12,1.22,3.25,1.81,1.16,.53,2.33,1.11,3.52,1.68,.59,.29,1.19,.58,1.79,.87,.62,.25,1.25,.51,1.89,.77,1.27,.51,2.54,1.04,3.82,1.59,.32,.13,.64,.28,.96,.4l1,.34c.66,.24,1.33,.47,2,.71,1.33,.48,2.67,.96,4,1.44,1.33,.49,2.72,.85,4.07,1.28,1.36,.41,2.7,.85,4.04,1.27,2.68,.86,5.39,1.47,7.97,2.23,1.3,.37,2.57,.73,3.82,1.08,1.26,.3,2.49,.6,3.68,.89,2.39,.6,4.66,1.19,6.76,1.76,1.04,.31,2.07,.5,3.04,.74,.97,.23,1.89,.45,2.75,.66,1.73,.42,3.23,.83,4.47,1.15,1.24,.32,2.2,.62,2.87,.8,.66,.2,1.01,.3,1.01,.3Z"/></g><g class="f"><path class="q" d="M115.36,92.8c-17.22,.92-39.69-1.73-50.97-16.38-4.94-6.42-6.87-14.36-6.52-22.37,.12-2.88,.7-10.46,2.11-16.24-25.36,12.68-31.62,35.45-31.62,35.45-3.55,2.71-8.6,7.62-11.96,13.85,16.64,12.23,46.84,31.37,49.67,32.3,3.9,1.29,69.65-20.02,84.72-31.55-11.59,2.31-23.62,4.31-35.43,4.94Z"/></g><path class="i" d="M12.86,100.13c-2.26,1.98-3.3,7.73-3.05,14.52,25.95,1.33,74.4,2.4,100.86-5.86C34.99,100.1,28.36,73.26,28.36,73.26l-11.2,12.5c-2.51,4.21-4.3,9.1-4.3,14.37Z"/><g class="b"><path class="o" d="M98.5,111.12l4.53-1.43c-35.93-2.58-59.26-12.71-68.89-19.54-6.12-4.35-9.3-8.51-10.89-11.19l-2.04,2.28c5.31,8.45,22.77,25.97,77.28,29.88Z"/></g><g class="j"><path class="q" d="M28.36,109.68l38.19,5.07-26.9-8.3c-26.89-8.3-14.03-30.13-14.03-30.14l-8.46,9.44c-2.51,4.21-4.3,9.1-4.3,14.37-1.13,.98-1.95,2.9-2.46,5.41l17.96,4.14Z"/></g><g class="f"><path class="p" d="M104.93,107.64s-.36,.09-1.03,.27c-.67,.16-1.65,.43-2.9,.71-1.25,.29-2.77,.66-4.52,1.03-.88,.19-1.8,.4-2.79,.6-1,.16-2.04,.33-3.13,.5-2.19,.34-4.57,.69-7.09,1.04-2.52,.23-5.19,.46-7.96,.67-.69,.05-1.39,.13-2.09,.15-.7,.02-1.41,.03-2.13,.05-1.43,.03-2.87,.06-4.33,.09-.73,.01-1.46,.02-2.19,.03-.73,0-1.47-.04-2.21-.07-1.47-.06-2.95-.12-4.43-.17-.74-.04-1.48-.05-2.22-.12-.74-.07-1.47-.14-2.21-.21-1.47-.15-2.93-.29-4.38-.44-1.45-.15-2.88-.41-4.3-.62-1.41-.24-2.82-.4-4.18-.71-2.72-.58-5.36-1.1-7.81-1.82-1.23-.35-2.43-.63-3.57-1.02-1.14-.38-2.24-.74-3.29-1.09-1.05-.35-2.04-.77-2.99-1.13-.94-.37-1.83-.73-2.65-1.11-.82-.38-1.6-.7-2.3-1.05-.69-.36-1.33-.69-1.91-.99-.58-.29-1.07-.6-1.51-.85-.44-.25-.8-.47-1.09-.66-.59-.37-.88-.59-.88-.59,0,0,.34,.14,.99,.37,.64,.25,1.61,.54,2.82,.94,.61,.19,1.29,.39,2.02,.61,.74,.2,1.54,.42,2.4,.66,.85,.25,1.77,.46,2.74,.69,.97,.21,1.97,.51,3.04,.71,1.06,.22,2.17,.46,3.32,.7,1.14,.25,2.34,.42,3.57,.65,2.44,.49,5.05,.79,7.72,1.21,2.69,.35,5.47,.64,8.3,.94,1.42,.11,2.85,.22,4.28,.33l2.16,.18c.72,.06,1.44,.06,2.17,.1,1.44,.07,2.89,.14,4.33,.21,.72,.04,1.44,.07,2.15,.11,.72,0,1.43,.02,2.15,.02,1.43,.02,2.84,.04,4.24,.07,.7,.01,1.39,.03,2.08,.04,.69,0,1.38-.02,2.06-.03,2.72-.05,5.35-.08,7.85-.09,2.49-.12,4.84-.21,7.03-.28,1.09-.03,2.14-.06,3.14-.08,1-.04,1.95-.12,2.84-.17,1.78-.12,3.35-.19,4.63-.25,1.28-.07,2.3-.08,2.99-.11,.69-.02,1.06-.02,1.06-.02Z"/></g><g><path class="k" d="M10.17,119.41c-1.28,1.43-2.04,4.66-2.16,8.67,25.1-1.29,82.44-5.81,96.92-20.44-61.29,9.93-92.07-7.51-92.07-7.51l-1.84,3.14c-1.29,3.75-1.59,9.78-.84,16.14Z"/><g class="b"><path class="o" d="M10.5,105.12c-.2,.9-.36,1.88-.48,2.93,9.31,3.1,27.84,7.71,55.71,7.71,6.36,0,13.22-.24,20.55-.79l6.54-3.37c-39.18,2.96-71.34-2.82-82.32-6.47Z"/></g><g class="f"><path class="q" d="M47.82,118.59c-26.9,1.44-26.42-14.88-26.42-14.88-5.69-1.97-8.54-3.58-8.54-3.58l-1.84,3.14c-1.29,3.75-1.59,9.78-.84,16.14-.48,.54-.89,1.32-1.21,2.31,14.52,.39,36.32,.37,38.86-3.13Z"/></g></g><g class="f"><path class="p" d="M167.87,73.26s-.43,.51-1.23,1.45c-.82,.94-1.97,2.34-3.59,4.01-.79,.85-1.68,1.79-2.69,2.76-.99,1-2.09,2.05-3.33,3.11-2.4,2.21-5.32,4.47-8.64,6.78-3.34,2.26-7.12,4.49-11.24,6.58-4.13,2.04-8.58,4-13.23,5.84-4.65,1.82-9.49,3.6-14.43,5.27-2.47,.85-4.95,1.7-7.46,2.51l-1.88,.61-.47,.15-.12,.04-.24,.07-.24,.07-.95,.26-3.82,1.05-3.82,1.03c-1.27,.34-2.54,.69-3.85,.98-2.59,.6-5.18,1.2-7.74,1.79-2.56,.59-5.13,1.03-7.65,1.52-1.26,.23-2.51,.49-3.77,.7-1.26,.19-2.5,.38-3.74,.57-2.47,.36-4.89,.77-7.29,.99-1.2,.13-2.38,.26-3.55,.39-1.17,.14-2.32,.26-3.47,.32-2.29,.14-4.51,.35-6.67,.42-2.16,.05-4.24,.13-6.24,.14-2-.03-3.92-.01-5.74-.09-1.82-.12-3.55-.19-5.17-.33-1.62-.17-3.13-.26-4.53-.48-1.39-.22-2.67-.36-3.82-.6-1.15-.21-2.17-.39-3.05-.62-.88-.2-1.63-.39-2.22-.57-1.2-.33-1.82-.59-1.82-.59,0,0,.65,.13,1.88,.26,1.22,.16,3.04,.28,5.33,.38,2.3,.1,5.09,.07,8.28,0,1.6-.05,3.3-.17,5.08-.25,1.78-.14,3.66-.28,5.62-.43,1.95-.19,3.99-.45,6.09-.68,2.1-.25,4.26-.59,6.49-.89,2.23-.29,4.5-.74,6.83-1.11,2.33-.37,4.7-.84,7.1-1.32,1.2-.23,2.42-.47,3.64-.71,1.22-.24,2.44-.54,3.68-.81,1.23-.28,2.47-.55,3.72-.83,1.25-.28,2.51-.52,3.75-.85,2.49-.62,5.01-1.24,7.53-1.86,1.26-.29,2.53-.64,3.8-1l3.82-1.05,3.82-1.02,.96-.26,.24-.06c.13-.04-.11,.04-.07,.02l.06-.02,.12-.04,.47-.15,1.88-.6c2.5-.79,4.99-1.59,7.46-2.37,2.46-.8,4.9-1.59,7.32-2.36,2.41-.78,4.77-1.61,7.09-2.38,4.63-1.61,9.06-3.27,13.19-4.98,4.1-1.76,7.91-3.58,11.32-5.46,.85-.48,1.66-.98,2.46-1.45,.4-.24,.8-.47,1.19-.7,.38-.25,.76-.49,1.14-.73,.75-.48,1.48-.95,2.19-1.4,.69-.48,1.37-.95,2.02-1.41,.65-.47,1.3-.89,1.88-1.35,.6-.45,1.17-.88,1.72-1.3,1.12-.82,2.11-1.61,3-2.34,1.8-1.43,3.2-2.61,4.14-3.41,.96-.79,1.47-1.22,1.47-1.22Z"/></g><path class="l" d="M98.61,109.68c-61.85,17.74-88.43,9.73-88.43,9.73l-1.75,4.48c-1.16,6.41-.03,17.33,4.44,25.11-.99,3.89,.63,9.55,3.32,15h30.44L176.86,97.24s0-1.06-.05-2.73c-1.92-2.91-3.81-4.97-5.21-6.65-.38-12.73-3.73-14.6-3.73-14.6-18.47,18.78-31.91,24.44-69.26,36.42Z"/><g class="f"><path class="q" d="M8.43,123.88c-1.16,6.41-.03,17.33,4.44,25.11-.71,2.77-.08,6.42,1.3,10.27,19.78-8.27,52.05-21.76,78.07-32.63-80.95,23.88-83.81-2.74-83.81-2.74Z"/><path class="q" d="M156.85,97.24c-11.04,8.41,7.51,.67,7.51,.67l9.1-7.83c-.68-.82-1.31-1.55-1.87-2.22-.38-12.73-3.73-14.6-3.73-14.6-1.48,1.51-2.93,2.92-4.36,4.27h0s4.38,11.3-6.65,19.71Z"/></g><g class="f"><path class="q" d="M150.79,148.57c5.94,4.04,8.47,7.49,7.51,18.3-.96,10.81-11.93,13.94-11.93,13.94,11.2,2.09,14.09,1.03,14.09,1.03,6.31-2.77,16.56-21.46,16.39-28.84,.61-.56,1.21-1.2,1.8-1.93-6.78-1.5-17.22-3.19-27.87-2.51Z"/></g><g><g><path class="k" d="M184.97,122.5c-.17-2.7-.45-5.18-.8-7.47-20.74,2.72-57.45,27.41-37.5,32.51,25.84,6.61,30.19,5.47,30.19,5.47,4.87-4.5,9.54-14.24,8.11-30.51Z"/><g class="b"><path class="o" d="M183.4,141.74c-7.19,.05-18.06-.83-28.61-5.41l-1.15,2.64c10.59,4.59,21.29,5.64,28.72,5.67,.37-.91,.72-1.88,1.03-2.91Z"/></g><g class="f"><path class="q" d="M184.97,122.5c-.17-2.7-.45-5.18-.8-7.47-1.26,.17-2.59,.41-3.95,.73,.06,.66,.11,1.33,.15,2.02,1.43,16.27-3.24,26.01-8.11,30.51,0,0-4.35,1.14-30.19-5.47-.41-.1-.79-.22-1.15-.34,.05,2.25,1.77,4.05,5.75,5.07,25.84,6.61,30.19,5.47,30.19,5.47,4.87-4.5,9.54-14.24,8.11-30.51Z"/></g></g><g class="f"><path class="q" d="M176.86,153.01c4.87-4.5,9.54-14.24,8.11-30.51-.17-2.7-.45-5.18-.8-7.47-.31,.04-.63,.09-.95,.14l-16.86,21.61s6.69-1.98,10.09,5.36c2.11,4.56,.6,8.46-1.39,10.94,1.38,.05,1.8-.06,1.8-.06Z"/></g></g><g class="f"><path class="p" d="M171.6,87.86s-.1,.13-.3,.39c-.21,.25-.53,.62-.94,1.1-.87,.92-2.14,2.29-3.92,3.85-.86,.82-1.88,1.64-2.98,2.55-.55,.45-1.13,.92-1.73,1.41-.6,.48-1.26,.93-1.92,1.43-1.34,.96-2.73,2.05-4.27,3.07-1.54,1.03-3.18,2.07-4.89,3.18-.85,.57-1.75,1.07-2.66,1.61-.91,.54-1.84,1.08-2.78,1.64-.95,.55-1.91,1.11-2.89,1.68-.98,.57-2.01,1.07-3.04,1.62-2.07,1.07-4.19,2.17-6.36,3.29-2.19,1.09-4.47,2.09-6.77,3.16-4.58,2.19-9.45,4.12-14.38,6.11-1.23,.5-2.47,.99-3.72,1.49-1.26,.45-2.52,.91-3.79,1.36-2.53,.9-5.08,1.81-7.62,2.71-1.28,.44-2.54,.91-3.83,1.32-1.29,.4-2.57,.8-3.85,1.21-2.57,.79-5.12,1.58-7.66,2.36-1.27,.39-2.53,.77-3.79,1.16-1.25,.39-2.53,.7-3.78,1.04-2.51,.66-5,1.32-7.44,1.96-2.45,.63-4.85,1.25-7.2,1.85-1.17,.31-2.35,.58-3.51,.83-1.16,.25-2.3,.51-3.43,.75-4.52,.99-8.8,1.88-12.76,2.68-3.94,.88-7.61,1.38-10.84,1.94-3.23,.55-6.06,.97-8.39,1.33-2.32,.37-4.16,.61-5.41,.79-1.25,.17-1.92,.26-1.92,.26,0,0,.64-.2,1.85-.58,1.21-.36,2.97-.93,5.23-1.59,2.26-.66,4.99-1.49,8.14-2.36,1.57-.44,3.25-.92,5.01-1.42,.88-.24,1.79-.49,2.72-.75,.92-.28,1.87-.56,2.83-.85,3.85-1.16,8.02-2.4,12.44-3.67,2.2-.66,4.5-1.23,6.79-1.98,2.31-.71,4.66-1.44,7.06-2.18,4.79-1.49,9.77-2.89,14.75-4.58,2.5-.81,5.02-1.63,7.55-2.45,1.27-.4,2.53-.81,3.8-1.22,1.27-.42,2.51-.89,3.77-1.32,2.52-.88,5.04-1.76,7.54-2.63,1.26-.43,2.51-.87,3.76-1.3,1.23-.47,2.46-.94,3.69-1.4,2.45-.92,4.89-1.84,7.3-2.75,.6-.23,1.2-.45,1.8-.67,.6-.23,1.18-.48,1.76-.72,1.17-.48,2.34-.96,3.49-1.43,2.31-.95,4.59-1.85,6.81-2.79,2.19-.98,4.34-1.93,6.43-2.86,1.04-.47,2.09-.89,3.09-1.38,1-.48,1.98-.96,2.95-1.43,.97-.46,1.93-.92,2.86-1.37,.94-.45,1.87-.87,2.74-1.36,1.76-.93,3.44-1.84,5.07-2.68,1.62-.84,3.08-1.74,4.5-2.54,.7-.41,1.4-.79,2.04-1.19,.64-.4,1.26-.79,1.85-1.17,1.19-.74,2.31-1.41,3.25-2.1,.95-.68,1.84-1.24,2.56-1.79,.72-.55,1.35-1.01,1.84-1.4,.48-.4,.85-.71,1.1-.92l.37-.33Z"/></g><g class="f"><path class="p" d="M98.61,166.87s.35-.17,.99-.5c.65-.31,1.59-.8,2.81-1.37,2.42-1.17,5.88-2.82,10.04-4.74,4.15-1.91,8.99-4.14,14.18-6.53,2.58-1.19,5.25-2.42,7.97-3.67,2.7-1.27,5.45-2.54,8.18-3.85,2.74-1.29,5.46-2.62,8.13-3.93,2.67-1.32,5.28-2.63,7.79-3.94,2.51-1.3,4.93-2.59,7.2-3.84,2.27-1.25,4.41-2.46,6.35-3.63,.99-.56,1.9-1.15,2.79-1.69,.44-.27,.87-.53,1.29-.79,.41-.27,.81-.53,1.2-.78,.78-.5,1.51-.98,2.18-1.41,.66-.45,1.27-.87,1.82-1.25,1.11-.75,1.94-1.4,2.53-1.81,.59-.42,.91-.64,.91-.64,0,0-.24,.31-.68,.88-.23,.28-.5,.64-.83,1.05-.32,.42-.71,.89-1.17,1.38-.46,.5-.96,1.06-1.51,1.67-.55,.61-1.2,1.21-1.87,1.88-.67,.68-1.41,1.35-2.21,2.06-.79,.71-1.63,1.45-2.53,2.18-3.58,2.98-8.01,6.15-12.96,9.19-1.23,.77-2.5,1.53-3.8,2.26-.65,.37-1.3,.75-1.95,1.12-.66,.36-1.33,.72-2,1.08-2.67,1.46-5.44,2.82-8.22,4.17-1.39,.66-2.8,1.29-4.2,1.93-1.4,.63-2.81,1.22-4.2,1.82-1.4,.59-2.79,1.17-4.17,1.7-1.38,.55-2.75,1.09-4.1,1.58-2.7,1.02-5.34,1.92-7.85,2.75-2.51,.82-4.9,1.55-7.12,2.19-2.22,.63-4.27,1.18-6.09,1.62-1.82,.46-3.42,.8-4.74,1.08-1.32,.29-2.37,.47-3.08,.6-.71,.12-1.1,.18-1.1,.18Z"/></g><g><path class="i" d="M171.6,87.86s-28.95,33.89-158.74,61.13c-2.06,8.06,7.1,23.64,13.68,29.41,15.97,6.73,46.17-2.15,61.93-7.69l10.14-3.83s61.88-19.57,86.36-44.37c-1.43-22.03-9.38-29.84-13.36-34.64Z"/><g><path class="o" d="M176.49,94.03c-.67-.98-1.33-1.87-1.96-2.67-4.48,11.31-25.3,22.41-76.26,41.34-41.48,15.41-71.92,21.04-85.18,22.95,.21,.91,.47,1.84,.79,2.8,13.64-1.99,44.11-7.71,85.39-23.04,49.95-18.55,71.22-29.67,77.22-41.37Z"/><path class="o" d="M105.4,158.46c21.26-7.2,63.15-25.42,78.9-42.53-.18-1.26-.38-2.47-.6-3.62-13.53,16.87-58.25,36.31-79.25,43.43-44.73,16.37-71.83,17.52-82.92,17.01,.81,1.09,1.62,2.11,2.42,3.02,.64,.01,1.3,.02,2.01,.02,13.33,0,39.23-2.62,79.45-17.33Z"/></g></g><g class="f"><path class="q" d="M26.54,178.4c15.97,6.73,46.17-2.15,61.93-7.69l10.14-3.83s9.27-2.93,22.05-7.97c-7.84,3-48.27,13.93-72.84,11.57-24.98-2.4-25.94-23.42-25.94-23.42l-9.14,2.51c-1.51,8.2,7.37,23.2,13.8,28.83Z"/><path class="q" d="M154.72,143.44h0c8.78-4.67,17.18-9.84,24.01-15.35,2.23-1.92,4.31-3.85,6.22-5.73-1.07-16.15-5.65-24.63-9.58-29.89,0,0,9.87,31.62-20.65,50.97Z"/></g><path class="h" d="M14.68,150.15s.64-.18,1.85-.51c1.21-.33,2.98-.81,5.23-1.42,4.5-1.21,10.94-2.94,18.66-5.01,3.85-1.04,8.03-2.17,12.45-3.36,2.21-.57,4.47-1.23,6.78-1.88,2.31-.66,4.68-1.29,7.08-1.95,4.81-1.31,9.72-2.87,14.76-4.26,2.51-.72,5.01-1.55,7.53-2.32,1.26-.39,2.52-.79,3.79-1.19l1.9-.59,.95-.3,.24-.07,.08-.03,.12-.04,.47-.17,3.77-1.32,1.88-.66c.62-.23,1.22-.47,1.83-.71,2.43-.97,4.87-1.84,7.26-2.89,2.4-1.01,4.78-2,7.11-3.05,1.17-.52,2.33-1.03,3.48-1.55,1.14-.53,2.28-1.07,3.4-1.59,1.12-.53,2.24-1.05,3.34-1.57,1.1-.54,2.18-1.07,3.26-1.59,1.08-.52,2.15-1.04,3.2-1.54,1.05-.53,2.08-1.05,3.1-1.56,1.02-.51,2.02-1.02,3.02-1.52,.98-.51,1.95-1.01,2.91-1.51,1.92-.97,3.76-1.92,5.52-2.86,1.77-.92,3.45-1.83,5.06-2.69,1.61-.85,3.13-1.66,4.56-2.44,2.85-1.55,5.34-2.91,7.38-4.03,4.08-2.26,6.42-3.56,6.42-3.56,0,0-.54,.4-1.54,1.14-1.02,.73-2.5,1.82-4.42,3.14-1.92,1.33-4.26,2.94-6.99,4.72-2.72,1.79-5.81,3.79-9.23,5.86-1.7,1.06-3.49,2.14-5.35,3.24-1.85,1.11-3.8,2.22-5.8,3.34-1,.56-2.02,1.14-3.04,1.72-1.04,.56-2.09,1.13-3.15,1.71-1.06,.58-2.14,1.16-3.23,1.73-1.1,.56-2.21,1.12-3.33,1.69-1.12,.56-2.25,1.13-3.39,1.71-1.15,.55-2.31,1.11-3.48,1.67-1.17,.55-2.33,1.14-3.53,1.67-1.2,.53-2.41,1.06-3.62,1.59-2.4,1.09-4.92,2.06-7.42,3.06-.63,.24-1.26,.51-1.88,.74l-1.88,.66-3.77,1.33-.47,.16-.28,.09-.24,.07-.96,.29-1.92,.58c-1.28,.39-2.56,.77-3.84,1.16-2.56,.76-5.09,1.57-7.63,2.27-2.54,.7-5.06,1.37-7.56,2.02-2.5,.65-4.95,1.33-7.39,1.9-4.87,1.18-9.58,2.31-14.06,3.28-4.48,.98-8.72,1.89-12.66,2.65-7.85,1.56-14.43,2.69-19.04,3.44-4.61,.74-7.26,1.09-7.26,1.09Z"/><path class="h" d="M10.4,123.88s.65,.09,1.86,.19c1.21,.11,2.99,.23,5.26,.31,.57,.02,1.16,.04,1.79,.06,.63,0,1.28,0,1.96,.01,1.36,.02,2.84,0,4.42-.03,1.57,0,3.25-.11,5.01-.19,1.76-.06,3.62-.23,5.55-.36,3.86-.31,8.03-.78,12.42-1.37,2.2-.25,4.44-.69,6.73-1.05,2.3-.36,4.63-.83,7-1.28,1.18-.24,2.38-.44,3.58-.71,1.2-.28,2.4-.55,3.61-.83,1.21-.28,2.43-.56,3.65-.84,1.22-.29,2.44-.62,3.67-.94,1.23-.32,2.46-.64,3.7-.96l1.86-.48,1.84-.55c2.46-.73,4.92-1.47,7.39-2.21,4.95-1.56,9.89-3.13,14.77-4.67,4.85-1.57,9.63-3.09,14.2-4.69,2.29-.78,4.51-1.64,6.71-2.4,2.16-.85,4.32-1.6,6.34-2.48,4.09-1.67,7.85-3.47,11.22-5.31,3.37-1.84,6.34-3.78,8.94-5.55,1.3-.89,2.5-1.75,3.61-2.55,1.12-.79,2.14-1.52,3.06-2.2,1.85-1.33,3.3-2.38,4.29-3.09,1-.71,1.53-1.08,1.53-1.08,0,0-.48,.44-1.37,1.28-.9,.82-2.2,2.05-3.9,3.57-1.7,1.52-3.75,3.38-6.22,5.4-.61,.52-1.25,1.03-1.92,1.55-.67,.52-1.35,1.07-2.07,1.61-1.45,1.06-2.99,2.16-4.67,3.21-.42,.27-.83,.54-1.26,.82-.43,.26-.87,.52-1.32,.78-.89,.51-1.78,1.08-2.72,1.57-.94,.5-1.9,1-2.88,1.51-.98,.5-1.99,.96-3.01,1.45-2.03,1-4.17,1.87-6.33,2.84-1.09,.46-2.2,.9-3.32,1.34-1.12,.44-2.25,.91-3.4,1.33-4.59,1.73-9.33,3.47-14.2,5.1-4.87,1.66-9.82,3.23-14.77,4.8-2.52,.73-5.04,1.45-7.55,2.17l-1.88,.54-1.89,.47c-1.26,.31-2.52,.62-3.77,.94-1.25,.3-2.49,.64-3.74,.91-1.25,.25-2.5,.5-3.74,.75-1.24,.25-2.47,.49-3.69,.74-1.22,.24-2.45,.41-3.66,.62-2.43,.38-4.8,.83-7.16,1.06-2.35,.26-4.64,.59-6.89,.74-4.48,.42-8.74,.6-12.67,.65-3.93,.06-7.53-.06-10.71-.28-1.59-.11-3.08-.2-4.45-.37-.68-.07-1.34-.15-1.97-.22-.63-.09-1.22-.17-1.79-.25-1.13-.14-2.14-.32-3.01-.48-.87-.15-1.61-.31-2.21-.43-1.2-.26-1.82-.44-1.82-.44Z"/><path class="h" d="M19.47,85.12s.09,.1,.27,.28c.16,.18,.45,.43,.75,.76,.66,.64,1.58,1.54,2.69,2.55,.27,.26,.57,.51,.87,.78,.31,.26,.59,.56,.93,.83,.65,.56,1.32,1.14,2.04,1.72,.69,.6,1.47,1.16,2.21,1.76,.75,.59,1.56,1.15,2.33,1.74,.8,.56,1.61,1.11,2.39,1.67,.82,.51,1.6,1.05,2.37,1.57,.8,.47,1.55,.96,2.27,1.44,.72,.48,1.44,.86,2.08,1.28,.65,.41,1.23,.82,1.78,1.13,.54,.32,1.01,.64,1.39,.89,.39,.25,.69,.48,.9,.62,.21,.15,.32,.23,.32,.23,0,0-.13,0-.39,0-.25,0-.62,0-1.09-.04-.47-.03-1.04-.06-1.69-.13-.66-.05-1.37-.2-2.15-.38-.78-.19-1.64-.36-2.51-.65-.87-.3-1.78-.64-2.72-1.01-.91-.42-1.85-.89-2.78-1.39-.92-.53-1.81-1.14-2.71-1.74-.84-.68-1.72-1.31-2.5-2.04-.78-.73-1.54-1.45-2.19-2.24-.68-.75-1.26-1.55-1.8-2.31-.53-.76-.97-1.53-1.36-2.24-.37-.73-.69-1.39-.92-2.02-.25-.61-.4-1.18-.53-1.62-.24-.92-.28-1.47-.28-1.47Z"/><path class="h" d="M171.62,164.95s-.12,.05-.34,.12c-.22,.07-.55,.19-.97,.28-.84,.23-2.05,.48-3.51,.65-1.46,.16-3.16,.25-4.99,.17-.91-.02-1.85-.11-2.81-.23-.96-.09-1.91-.3-2.88-.46-.96-.21-1.91-.44-2.84-.71-.46-.14-.92-.3-1.37-.46-.45-.16-.9-.29-1.32-.49-.85-.37-1.68-.72-2.43-1.13-.75-.43-1.45-.83-2.07-1.24-.61-.45-1.15-.87-1.62-1.25-.48-.37-.83-.81-1.13-1.11-.31-.31-.52-.59-.67-.76l-.23-.28s.13,.02,.36,.07c.23,.06,.57,.11,.98,.23,.42,.1,.89,.26,1.47,.37,.57,.12,1.2,.27,1.87,.45,.68,.15,1.43,.29,2.19,.48,.77,.18,1.6,.32,2.42,.52,1.68,.35,3.47,.72,5.26,1.09,3.59,.74,7.22,1.51,9.98,2.26,1.38,.36,2.54,.72,3.35,.99,.41,.12,.73,.25,.95,.32l.34,.13Z"/><g><g><path class="d" d="M157.4,24.09c-2.4,1.23-5.07,1.35-7.23-.42-2.95-2.42-3.6-6.74-6.95-8.75-2.44-1.46-5.38-1.55-7.91-.26-2.38,1.22-3.78,4.22-6.72,4.28-4.34,.08-5.83-4.33-8.05-7.19-1.78-2.29-4.73-3.68-7.61-3.74-2.78-.06-4.63,1.57-6.53,3.38-2.3,2.19-4.54,3.77-7.8,4.19-3.26-.42-5.5-2-7.8-4.19-1.9-1.8-3.74-3.43-6.53-3.38-2.88,.06-5.83,1.46-7.61,3.74-2.22,2.86-3.71,7.27-8.05,7.19-2.94-.05-4.34-3.05-6.72-4.28-2.53-1.29-5.47-1.2-7.91,.26-3.35,2.01-4,6.33-6.95,8.75-2.15,1.76-4.82,1.64-7.23,.42-13.73-4.56-17.21,8.53-17.21,8.53l34.42,63.65,14.82,13.44,26.77-.03,26.77,.03,14.82-13.44,34.42-63.65s-3.49-13.09-17.21-8.53Z"/><path class="g" d="M152.65,72.56c-.39-.14-.76-.35-1.1-.63-1.05-.86-1.79-2.15-2.58-3.52-1.09-1.89-2.33-4.03-4.62-5.41-3.07-1.84-6.81-1.97-10-.33-1.18,.61-2.11,1.49-2.93,2.26-1.15,1.09-1.9,1.76-2.84,1.78-1.99,.03-3.11-1.51-4.72-4.03-.5-.78-1.01-1.59-1.59-2.33-2.14-2.75-5.69-4.5-9.27-4.58-.06,0-.12,0-.19,0-3.7,0-6.11,2.29-7.88,3.97-2.01,1.91-3.78,3.18-6.32,3.57-2.54-.39-4.31-1.66-6.31-3.57-1.77-1.68-4.18-3.98-7.88-3.98-.06,0-.12,0-.18,0-3.58,.07-7.13,1.83-9.27,4.58-.58,.74-1.09,1.55-1.59,2.33-1.61,2.52-2.69,4.05-4.72,4.03-.94-.02-1.69-.69-2.84-1.77-.82-.78-1.75-1.66-2.94-2.26-3.19-1.63-6.93-1.51-10,.33-2.3,1.38-3.53,3.52-4.62,5.41-.79,1.37-1.54,2.66-2.58,3.52-.34,.28-.71,.49-1.1,.63l.73,2.03,1.03,1.91c.74-.3,1.44-.71,2.08-1.23,1.66-1.36,2.68-3.13,3.59-4.7,.95-1.64,1.77-3.06,3.1-3.86,1.78-1.07,3.95-1.14,5.81-.19,.63,.32,1.26,.92,1.93,1.55,1.37,1.3,3.07,2.91,5.74,2.96,.05,0,.1,0,.15,0,4.44,0,6.66-3.48,8.28-6.02,.47-.73,.9-1.42,1.36-2,1.34-1.72,3.67-2.86,5.95-2.91,1.86-.03,3.2,1.08,4.99,2.78,2.28,2.17,4.95,4.25,9.02,4.77l.27,.03,.27-.03c4.07-.52,6.74-2.6,9.02-4.77,1.79-1.71,3.09-2.83,4.99-2.78,2.27,.05,4.61,1.19,5.95,2.91,.45,.58,.89,1.27,1.36,2,1.64,2.58,3.9,6.13,8.44,6.02,2.66-.05,4.37-1.66,5.73-2.96,.67-.63,1.3-1.23,1.93-1.55,1.85-.95,4.03-.88,5.81,.19,1.34,.8,2.16,2.22,3.1,3.86,.9,1.57,1.93,3.35,3.59,4.7,.64,.52,1.34,.93,2.08,1.23l1.03-1.91,.73-2.03Z"/><path class="g" d="M156.72,40.71l-.3,.13c-1.31,.67-3.23,1.19-4.87-.16-1.05-.86-1.79-2.15-2.58-3.52-1.09-1.89-2.33-4.03-4.62-5.41-3.07-1.84-6.81-1.97-10-.33-1.18,.61-2.11,1.49-2.93,2.26-1.15,1.09-1.9,1.76-2.84,1.77-1.99,.02-3.11-1.51-4.72-4.03-.5-.78-1.01-1.59-1.59-2.33-2.14-2.75-5.69-4.5-9.27-4.58-.06,0-.12,0-.19,0-3.7,0-6.11,2.29-7.88,3.97-2.01,1.91-3.78,3.18-6.32,3.57-2.54-.39-4.31-1.66-6.31-3.57-1.77-1.68-4.18-3.98-7.88-3.98-.06,0-.12,0-.18,0-3.58,.07-7.13,1.83-9.27,4.58-.58,.74-1.09,1.55-1.59,2.33-1.61,2.52-2.69,4.06-4.72,4.03-.94-.02-1.69-.69-2.84-1.77-.82-.78-1.75-1.66-2.94-2.26-3.19-1.63-6.93-1.51-10,.33-2.3,1.38-3.53,3.52-4.62,5.41-.79,1.37-1.54,2.66-2.58,3.52-1.65,1.35-3.56,.83-4.87,.16l-.3-.13c-5.02-1.67-9.42-1.4-13.09,.79l1.03,1.9,1.12,1.85c2.52-1.53,5.69-1.7,9.43-.48,1.46,.72,2.94,1.08,4.35,1.08,1.85,0,3.59-.61,5.07-1.83,1.66-1.36,2.68-3.13,3.59-4.7,.95-1.64,1.77-3.06,3.1-3.86,1.78-1.07,3.95-1.14,5.81-.19,.63,.32,1.26,.92,1.93,1.55,1.37,1.3,3.07,2.91,5.74,2.96,.05,0,.1,0,.15,0,4.44,0,6.66-3.48,8.28-6.02,.47-.73,.9-1.42,1.36-2,1.34-1.72,3.67-2.86,5.95-2.91,1.86-.05,3.2,1.08,4.99,2.78,2.28,2.17,4.95,4.25,9.02,4.77l.27,.03,.27-.03c4.07-.52,6.74-2.6,9.02-4.77,1.79-1.7,3.09-2.83,4.99-2.78,2.27,.05,4.61,1.19,5.95,2.91,.45,.58,.89,1.27,1.36,2,1.64,2.58,3.9,6.12,8.44,6.02,2.66-.05,4.37-1.66,5.73-2.96,.67-.63,1.3-1.23,1.93-1.55,1.85-.95,4.03-.88,5.81,.19,1.34,.8,2.16,2.22,3.1,3.86,.9,1.57,1.93,3.35,3.59,4.7,2.62,2.14,6.04,2.41,9.42,.75,3.74-1.21,6.91-1.05,9.43,.49l1.12-1.84,1.03-1.9c-3.67-2.19-8.07-2.46-13.09-.79Z"/><g><g><g><g class="f"><path class="m" d="M50.67,18.63c-1.07,1.79-2,3.7-3.63,5.04-2.15,1.76-4.82,1.64-7.23,.42-1.36-.45-2.61-.72-3.78-.86,5.42,12.24,32.69,73.54,40.93,86.48h9.86c-.34-.84-.7-1.72-1.09-2.67-9.02-21.98-28.12-70.64-35.07-88.41Z"/></g><g class="f"><path class="m" d="M76.74,11.66s-.05,.05-.07,.08c-2.22,2.86-3.71,7.27-8.05,7.19-2.94-.05-4.34-3.05-6.72-4.28-.07-.04-.15-.06-.22-.1l29.85,95.12h.14l4.72-.81L76.74,11.66Z"/></g><g class="f"><path class="m" d="M22.6,32.62l34.42,63.65,5.14,4.66L25.08,27.8c-1.83,2.4-2.48,4.82-2.48,4.82Z"/></g></g><g class="f"><path class="m" d="M48.12,22.59c-.33,.39-.68,.75-1.08,1.08-1.29,1.06-2.77,1.44-4.27,1.3l37.95,83.9L48.12,22.59Z"/><path class="m" d="M73.64,16.18c-1.23,1.58-2.72,2.8-5.02,2.76l24.11,85.09L73.64,16.18Z"/></g></g><g><g class="f"><path class="m" d="M146.55,18.63c1.07,1.79,2,3.7,3.63,5.04,2.15,1.76,4.82,1.64,7.23,.42,1.36-.45,2.61-.72,3.78-.86-5.42,12.24-32.69,73.54-40.93,86.48h-9.86c.34-.84,.7-1.72,1.09-2.67,9.02-21.98,28.12-70.64,35.07-88.41Z"/></g><g class="f"><path class="m" d="M120.47,11.66s.05,.05,.07,.08c2.22,2.86,3.71,7.27,8.05,7.19,2.94-.05,4.34-3.05,6.72-4.28,.07-.04,.15-.06,.22-.1l-29.85,95.12h-.14l-4.72-.81L120.47,11.66Z"/></g><g><g class="f"><path class="m" d="M89.68,10.35l6.7,98.52h2.23V15.57c-3.26-.42-5.5-2-7.8-4.19-.37-.35-.74-.7-1.12-1.03Z"/></g><g class="f"><path class="m" d="M106.41,11.38c-2.3,2.19-4.54,3.77-7.8,4.19V108.87h2.23l6.7-98.52c-.38,.33-.75,.67-1.12,1.03Z"/></g></g><g class="f"><path class="m" d="M174.62,32.62l-34.42,63.65-5.14,4.66L172.14,27.8c1.83,2.4,2.48,4.82,2.48,4.82Z"/></g></g><g class="f"><path class="m" d="M149.09,22.59c.33,.39,.68,.75,1.08,1.08,1.29,1.06,2.77,1.44,4.27,1.3l-37.95,83.9L149.09,22.59Z"/><path class="m" d="M123.58,16.18c1.23,1.58,2.72,2.8,5.02,2.76l-24.11,85.09L123.58,16.18Z"/><g><path class="m" d="M98.61,100.13V15.57c-1.51-.19-2.8-.64-3.98-1.28l3.98,85.84Z"/><path class="m" d="M98.61,15.57V100.13l3.98-85.84c-1.18,.64-2.47,1.09-3.98,1.28Z"/></g></g></g><g class="f"><path class="m" d="M54.7,91.99l2.32,4.28,14.82,13.44,26.77-.03,26.77,.03,14.82-13.44,3.91-7.24c-15.76,6.18-29.82,11.09-45.5,11.09s-34.45-5.04-43.9-8.14Z"/></g></g><g class="b"><path class="n" d="M31.97,29.52s.56,.8,1.48,2.23c.92,1.43,2.2,3.49,3.66,6,2.95,5,6.58,11.83,9.95,18.78,3.36,6.95,6.47,14.02,8.57,19.45,1.07,2.7,1.89,4.98,2.44,6.59,.56,1.61,.83,2.54,.83,2.54,0,0-.56-.8-1.48-2.23-.92-1.43-2.21-3.49-3.66-6-2.96-5-6.58-11.83-9.95-18.78-3.36-6.95-6.47-14.03-8.56-19.45-1.07-2.7-1.89-4.98-2.44-6.59-.56-1.61-.84-2.54-.84-2.54Z"/></g><g class="b"><path class="n" d="M56.48,18.21s.15,.2,.41,.57c.25,.38,.65,.92,1.1,1.63,.92,1.42,2.15,3.47,3.47,5.99,1.33,2.51,2.76,5.49,4.14,8.72,.36,.81,.69,1.63,1.03,2.47,.34,.84,.68,1.69,1,2.55,.67,1.72,1.29,3.49,1.91,5.25,.59,1.78,1.18,3.55,1.7,5.32,.27,.88,.53,1.76,.76,2.63,.24,.87,.49,1.73,.7,2.59,.88,3.41,1.57,6.64,2.05,9.44,.48,2.8,.76,5.18,.9,6.86,.08,.84,.09,1.51,.12,1.97,.02,.46,.02,.7,.02,.7,0,0-.15-.2-.41-.57-.25-.38-.65-.92-1.1-1.63-.92-1.42-2.15-3.47-3.48-5.98-1.33-2.51-2.76-5.49-4.14-8.72-.36-.81-.69-1.64-1.03-2.47-.35-.84-.68-1.69-1-2.55-.67-1.72-1.28-3.49-1.9-5.25-.58-1.78-1.18-3.55-1.7-5.32-.27-.88-.52-1.76-.76-2.63-.24-.87-.49-1.73-.7-2.59-.88-3.41-1.57-6.64-2.05-9.44-.48-2.8-.76-5.18-.9-6.86-.08-.84-.1-1.51-.13-1.97-.02-.46-.02-.7-.02-.7Z"/></g><g class="b"><path class="n" d="M83.6,12.45s.21,.64,.52,1.77c.31,1.13,.73,2.75,1.15,4.7,.89,3.9,1.79,9.12,2.48,14.38,.68,5.26,1.13,10.55,1.26,14.54,.09,1.99,.09,3.66,.08,4.84-.01,1.17-.05,1.84-.05,1.84,0,0-.21-.64-.52-1.77-.31-1.13-.73-2.75-1.15-4.7-.89-3.9-1.79-9.13-2.47-14.38-.67-5.26-1.12-10.55-1.25-14.54-.09-1.99-.09-3.66-.08-4.83,.01-1.17,.05-1.84,.05-1.84Z"/><path class="n" d="M113.63,12.45s-.01,1.05-.09,2.88c-.08,1.83-.21,4.44-.45,7.57-.11,1.56-.24,3.26-.41,5.04-.16,1.79-.32,3.67-.54,5.62-.22,1.94-.4,3.96-.66,6-.25,2.04-.51,4.11-.76,6.18-.29,2.07-.58,4.13-.86,6.17-.27,2.04-.62,4.03-.91,5.96-.29,1.93-.62,3.8-.93,5.57-.29,1.77-.61,3.44-.9,4.98-.58,3.08-1.12,5.64-1.52,7.43-.4,1.79-.66,2.81-.66,2.81,0,0,.01-1.05,.09-2.88,.08-1.83,.21-4.44,.45-7.57,.11-1.56,.24-3.26,.41-5.04,.16-1.79,.32-3.67,.54-5.62,.22-1.94,.4-3.96,.66-5.99,.25-2.04,.51-4.11,.76-6.18,.29-2.07,.58-4.13,.86-6.17,.27-2.04,.62-4.03,.91-5.96,.29-1.93,.62-3.8,.93-5.57,.29-1.77,.61-3.44,.9-4.98,.58-3.08,1.12-5.64,1.52-7.43,.4-1.79,.66-2.81,.66-2.81Z"/><path class="n" d="M140.91,20.13s-.16,.75-.49,2.05c-.33,1.3-.83,3.14-1.5,5.32-.33,1.09-.69,2.28-1.11,3.52-.41,1.24-.83,2.55-1.31,3.9-.94,2.69-1.99,5.54-3.09,8.37-.56,1.41-1.11,2.82-1.69,4.2-.56,1.38-1.14,2.74-1.71,4.04-.56,1.31-1.14,2.56-1.68,3.75-.53,1.19-1.07,2.31-1.57,3.34-.99,2.06-1.87,3.75-2.51,4.93-.63,1.18-1.03,1.84-1.03,1.84,0,0,.16-.75,.49-2.05,.33-1.3,.83-3.14,1.5-5.32,.33-1.09,.69-2.28,1.11-3.52,.41-1.24,.83-2.55,1.31-3.9,.47-1.34,.96-2.73,1.49-4.13,.51-1.4,1.06-2.82,1.61-4.24,1.11-2.83,2.27-5.64,3.4-8.25,.56-1.31,1.14-2.56,1.68-3.75,.53-1.19,1.07-2.31,1.57-3.34,.99-2.06,1.87-3.75,2.5-4.93,.63-1.18,1.03-1.84,1.03-1.84Z"/><path class="n" d="M163.41,30.59s-.32,.95-.93,2.59c-.61,1.64-1.51,3.96-2.65,6.72-.57,1.38-1.18,2.88-1.87,4.44-.68,1.57-1.38,3.23-2.16,4.92-.78,1.69-1.54,3.46-2.39,5.23-.84,1.77-1.69,3.57-2.54,5.36-.88,1.78-1.76,3.57-2.63,5.32-.85,1.76-1.77,3.46-2.61,5.12-.84,1.66-1.7,3.25-2.51,4.75-.8,1.51-1.59,2.92-2.32,4.23-1.45,2.61-2.72,4.76-3.62,6.25-.9,1.5-1.45,2.34-1.45,2.34,0,0,.32-.95,.93-2.59,.61-1.64,1.5-3.96,2.65-6.72,.57-1.38,1.18-2.88,1.87-4.44,.68-1.57,1.39-3.23,2.17-4.92,.78-1.69,1.54-3.46,2.39-5.23,.84-1.77,1.69-3.57,2.54-5.36,.88-1.78,1.76-3.56,2.63-5.32,.86-1.76,1.77-3.46,2.61-5.12,.84-1.66,1.71-3.25,2.51-4.75,.8-1.51,1.59-2.92,2.32-4.23,1.45-2.61,2.72-4.76,3.62-6.25,.9-1.5,1.45-2.34,1.45-2.34Z"/></g></g><path class="o" d="M169.78,76.24c-17.34,20.69-49.09,31.35-77.73,39.73-49.78,13.46-74.46,11.43-83.85,9.5-.1,.92-.17,1.91-.19,2.96,3.56,.72,8.92,1.4,16.53,1.4,14.13,0,35.98-2.34,68.29-11.08,28.4-8.31,59.81-18.85,77.9-39.19-.29-1.38-.62-2.46-.95-3.31Z"/></g></svg>