<?xml version="1.0" encoding="UTF-8"?><svg id="a" xmlns="http://www.w3.org/2000/svg" viewBox="0 0 194.95 207.64"><defs><style>.b{fill:#c82c1d;}.c{fill:#fff;}.d,.e{fill:#6f839c;}.d,.f,.g,.h,.i{stroke:#3d2c2c;stroke-miterlimit:10;}.d,.g,.h,.i{stroke-width:.25px;}.j{fill:#868f9e;}.k{opacity:.5;}.l,.h{fill:#f56461;}.m{fill:#4d2317;}.f{fill:#c0bfd1;stroke-width:.5px;}.n{fill:#5a6270;}.o{fill:#9c9cbc;}.p{fill:#4b5063;}.q{fill:#b1aca8;}.r{fill:#d0cedc;}.s,.i{fill:#d83c2d;}.t{fill:#1a3641;}.u{fill:#1d2a3a;}.v{fill:#1e191d;}.w{fill:#f6c4a3;}.g{fill:#969daf;}.x{fill:#656c7c;}.y{fill:#6d7588;}.a`{fill:#333232;}</style></defs><path class="k" d="M49.12,204.65c-1.27,0-2.52-.31-3.65-.89-.86,.56-1.87,.86-2.92,.86-1.53,0-2.99-.65-4.01-1.78-1.59-.06-3.07-.8-4.09-2.04-.9-1.1-1.34-2.5-1.23-3.9-.33-.94-.41-1.96-.21-2.96,.47-2.31,1.61-4.39,3.31-6.03,2.18-2.11,5.05-3.28,8.09-3.28,2.06,0,4.1,.56,5.87,1.59,2.38,.42,4.51,.62,6.52,.62,1.88,0,3.58-.18,5.17-.54,.12-.1,.26-.23,.42-.39,.62-.61,1.63-1.77,2.83-3.7l.07-.11c-2.85-3.92-8.97-12.85-9.98-18.79-.63-3.7-3.84-7.62-5.03-8.83-.13-.13-.26-.28-.37-.42-.31-.39-.59-.77-.86-1.14-12.86-8.81-35.52-24.91-35.52-53.1,0-.35,0-.71,.02-1.07,0,0,0-.36,0-.43,0-.04,0-.12,0-.18,.08-3.98,.47-8.32,1.15-12.86l.04-.27c.41-2.72,.93-5.53,1.54-8.37l.06-.27c.29-1.34,.59-2.65,.9-3.95l.12-.48c.6-2.47,1.28-5,2-7.51l.17-.61c.17-.58,.73-2.45,.73-2.45,.19-.63,.64-2.07,.64-2.07l.1-.31c.24-.76,.48-1.51,.72-2.24v-.02c.52-1.55,1.02-3.02,1.51-4.42,0-.02,.02-.05,.03-.07,.23-.65,.46-1.29,.68-1.91l.81-2.22,.69-1.83,.47-1.22c.15-.38,.27-.73,.39-1.07,0-.02,.05-.16,.06-.17,.08-.24,.16-.49,.23-.74,0-.03,.03-.12,.04-.14,.04-.15,.08-.34,.11-.53,.03-.2,.04-.3,.05-.4,0-2.37-1.93-4.3-4.3-4.3-.23,0-.46,.02-.69,.06-.07,.01-.14,.02-.21,.03-.62,.08-3.03,.39-5.97,.45-.32,0-.6,0-.87,0h-.38c-2.47-.03-4.58-1.26-5.64-3.3-1.45-2.76-.5-5.92,.87-7.95,1.58-2.35,3.77-3.8,5.81-4.91,1.03-1.9,2.75-3.6,4.91-4.49,4.32-5.96,11.3-9.59,18.72-9.59,.68,0,1.39,.04,2.16,.11l.29,.03c.66,.07,1.33,.17,2,.31l.39,.08c.65,.14,1.29,.3,1.89,.49l.28,.09c.75,.24,1.37,.47,1.94,.71,.06,.02,.17,.07,.22,.1,.47,.2,1.03,.47,1.61,.78l.33,.17c.52,.29,1.05,.61,1.58,.96,.13,.09,.27,.18,.4,.27,.5,.34,.98,.7,1.44,1.07,.11,.09,.22,.18,.33,.27,.54,.46,.97,.85,1.37,1.25l.23,.23c.42,.43,.79,.84,1.14,1.25,.1,.11,.26,.31,.28,.32,2.2,2.52,3.99,5.64,5.46,9.51,.32,.83,.62,1.72,.91,2.64,1.84,5.84,2.81,12.31,3.85,19.17,.61,4.05,1.25,8.24,2.07,12.25l.7,3.4c.12,.54,.42,1.93,.42,1.93,.13,.58,.27,1.16,.4,1.74l.06,.26c.15,.6,.28,1.12,.42,1.63l.04,.16c.16,.59,.32,1.13,.48,1.68l.08,.27c.18,.58,.35,1.11,.53,1.63,0,.02,.03,.09,.04,.11,.17,.49,.37,1.02,.58,1.55l.14,.34c.21,.51,.42,1.02,.66,1.54,.28,.56,.61,1.21,.94,1.84,.08,.04,.4,.18,.4,.18,.38,.16,.75,.33,1.12,.51,.24,.11,.49,.24,.73,.36,.34,.17,.67,.34,.99,.52,.28,.15,.5,.27,.72,.4,.35,.2,.7,.41,1.04,.62l.14,.08c.15,.09,.31,.19,.46,.28,.5,.32,.98,.66,1.46,1,.17,.12,.34,.25,.51,.38l.27,.21c.15,.11,.3,.22,.44,.34,.09,.07,.18,.15,.27,.23,1.79,1.45,3.37,3.03,4.71,4.7,1.37,1.62,11.5,10.47,28.08,20.13l1.17,.68c.89,.51,1.81,1.03,2.75,1.55l1.03,.56c.68,.37,1.36,.74,2.05,1.12l1.19,.63c7.24,3.82,14.77,7.29,22.37,10.32,.29,.11,1.48,.57,1.48,.57,.83,.33,1.67,.65,2.52,.97,.49,.19,1.79,.66,1.79,.66,.78,.29,1.56,.57,2.35,.85,.62,.22,1.25,.44,1.88,.66,.58,.2,1.16,.4,1.75,.59l.21,.07c1.11,.37,2.23,.73,3.36,1.09,.61,.19,1.23,.39,1.85,.58,1.13,.35,2.28,.69,3.43,1.02l.51,.15c.46,.13,.91,.27,1.37,.4,1.23,.35,2.48,.68,3.73,1.01,0,0,1.35,.36,1.7,.45,1.94,.49,3.74,.93,5.5,1.33,.03,0,.07,.02,.1,.03h0c1.66,.41,2.98,1.37,3.8,2.72,.8,1.32,1.03,2.93,.64,4.41-.36,1.34-1.19,2.47-2.33,3.19-.35,.22-.74,.43-1.19,.64-.13,.06-.26,.12-.4,.17-.28,.12-.53,.22-.8,.32-.11,.04-.49,.17-.49,.17-.27,.09-.51,.17-.77,.25l-.56,.17c-.28,.08-.53,.15-.81,.22-.17,.05-.37,.1-.57,.15-.33,.08-.61,.15-.91,.22l-.69,.16c-.3,.07-.6,.13-.91,.19l-.76,.15c-.32,.06-.64,.12-.97,.19l-.8,.15c-.35,.06-1.9,.32-1.9,.32l-2.01,.31-2.12,.29-2.21,.28c-.6,.07-1.22,.14-1.84,.21l-.87,.1c-.63,.07-1.26,.13-1.9,.2l-2.44,.23-1.19,.1c.36,.17,1.63,.76,1.63,.76,.44,.2,.9,.41,1.37,.62l.66,.29c.47,.21,2.1,.91,2.1,.91,.7,.3,1.43,.6,2.18,.91l1.7,.7c1.06,.42,2.2,.88,3.33,1.37l.04,.02-.82,1.85-1.06,2.78,1.91-4.62,4.12,1.72,3.32,1.42,2.17,.96,2.38,1.08,1.97,.93,.92,.45s.85,.42,.87,.44c.29,.15,1.03,.53,1.03,.53l.83,.45,.76,.43,.67,.39s.8,.51,.83,.52c.12,.08,.6,.41,.6,.41,.22,.16,.43,.32,.61,.46,0,0,.13,.1,.18,.15,.16,.13,.31,.27,.45,.4,.06,.06,.19,.19,.25,.25,.1,.11,.21,.23,.32,.35,.06,.07,.25,.3,.25,.3,.08,.11,.16,.22,.23,.33,.13,.2,.25,.4,.35,.58,.08,.15,.19,.39,.25,.55,.12,.31,.21,.6,.27,.9,.07,.32,.12,.65,.13,.97,0,.05,0,.1,0,.16,0,.26-.02,.52-.06,.78-.05,.35-.14,.69-.26,1.02-.12,.34-.28,.69-.46,.99-.38,.64-.91,1.21-1.55,1.66-.53,.37-1.13,.64-1.81,.82-.09,.02-.19,.05-.27,.07-.05,.01-.2,.04-.23,.04-.23,.04-.49,.08-.8,.1-.06,0-.27,.02-.27,.02-.18,0-.37,.02-.58,.02h-.35c-.16,0-.68-.01-.69-.01l.12-5-.26,4.99-1.29-.07-1.28-.1-2.69-.26-1.76-.19,.39-4.99-.56,4.97s-3.27-.39-3.3-.4l-3.38-.44-1.71-.23,.55-4.97-.08,.57-.5,4.39s-1.89-.26-1.89-.26l.55-4.97-.68,4.95-1.7-.24,.53-4.98-.69,4.95-2-.28c-1.19-.17-3.85-.56-3.85-.56-1.23-.18-2.47-.36-3.71-.55-1.94-.29-3.8-.57-5.6-.85l-.15-.02c-2.37-.36-4.63-.71-6.68-1.03-.02,0-.05,0-.07-.01-5.25-.82-9.11-1.45-10.01-1.6-.44-.04-1.58-.13-3.22-.25l.21-5-.38,4.99c-2.84-.21-7.22-.53-11.92-.82l-1.78-.11c-1.2-.07-2.4-.14-3.6-.2-1.79-.09-3.58-.18-5.28-.24-1.13-.04-2.22-.08-3.27-.11-.52-.01-1.03-.02-1.52-.03-.48,0-.95-.01-1.41-.02h-1.3c-.41,0-.79,0-1.16,.02-.37,0-.69,.02-.97,.03-.31,.6-.61,1.19-.9,1.75-.73,1.41-1.42,2.69-2.08,3.87-.74,1.38-1.64,2.92-2.63,4.49-.27,.44-.57,.91-.85,1.36l-.47,.72c-1.38,2.11-2.53,3.69-3.54,5.08l-.28,.38c-.84,1.19-1.55,2.19-1.98,2.87,.62,0,1.04-.03,1.25-.03,.34-.04,.68-.06,1.02-.06,1.44,0,2.87,.35,4.14,1.02,1.03,.52,1.94,1.24,2.71,2.16,1.05,1.27,1.74,2.8,1.97,4.44,.01,.08,.02,.17,.03,.26,.03,.27,.03,.54,.02,.81,.11,.39,.2,.79,.26,1.19,.01,.1,.03,.2,.03,.3,.13,1.44-.33,2.88-1.28,3.97-1.02,1.18-2.5,1.86-4.07,1.86-.07,0-.15,0-.23,0-1.57,1.19-3.55,1.88-5.43,1.88-3.61,0-5.56-1.02-6.49-1.52l-.14-.07c-.67-.33-1.88-.93-2.57-1.01-.06,.04-.11,.08-.17,.12-.39,.27-.75,.52-.95,.63-.35,.2-.72,.38-1.13,.55-2.4,1.15-4.87,1.4-6.53,1.4-.16,0-.3,0-.42,0l-13.58-.02c-.59,0-1.19-.08-1.8-.24-.27,.07-.54,.13-.82,.18-.41,.07-.84,.1-1.26,.1Z"/><path class="c" d="M44.12,199.65c-1.27,0-2.52-.31-3.65-.89-.86,.56-1.87,.86-2.92,.86-1.53,0-2.99-.65-4.01-1.78-1.59-.06-3.07-.8-4.09-2.04-.9-1.1-1.34-2.5-1.23-3.9-.33-.94-.41-1.96-.21-2.96,.47-2.31,1.61-4.39,3.31-6.03,2.18-2.11,5.05-3.28,8.09-3.28,2.06,0,4.1,.56,5.87,1.59,2.38,.42,4.51,.62,6.52,.62,1.88,0,3.58-.18,5.17-.54,.12-.1,.26-.23,.42-.39,.62-.61,1.63-1.77,2.83-3.7l.07-.11c-2.85-3.92-8.97-12.85-9.98-18.79-.63-3.7-3.84-7.62-5.03-8.83-.13-.13-.26-.28-.37-.42-.31-.39-.59-.77-.86-1.14-12.86-8.81-35.52-24.91-35.52-53.1,0-.35,0-.71,.02-1.07,0,0,0-.36,0-.43,0-.04,0-.12,0-.18,.08-3.98,.47-8.32,1.15-12.86l.04-.27c.41-2.72,.93-5.53,1.54-8.37l.06-.27c.29-1.34,.59-2.65,.9-3.95l.12-.48c.6-2.47,1.28-5,2-7.51l.17-.61c.17-.58,.73-2.45,.73-2.45,.19-.63,.64-2.07,.64-2.07l.1-.31c.24-.76,.48-1.51,.72-2.24v-.02c.52-1.55,1.02-3.02,1.51-4.42,0-.02,.02-.05,.03-.07,.23-.65,.46-1.29,.68-1.91l.81-2.22,.69-1.83,.47-1.22c.15-.38,.27-.73,.39-1.07,0-.02,.05-.16,.06-.17,.08-.24,.16-.49,.23-.74,0-.03,.03-.12,.04-.14,.04-.15,.08-.34,.11-.53,.03-.2,.04-.3,.05-.4,0-2.37-1.93-4.3-4.3-4.3-.23,0-.46,.02-.69,.06-.07,.01-.14,.02-.21,.03-.62,.08-3.03,.39-5.97,.45-.32,0-.6,0-.87,0h-.38c-2.47-.03-4.58-1.26-5.64-3.3-1.45-2.76-.5-5.92,.87-7.95,1.58-2.35,3.77-3.8,5.81-4.91,1.03-1.9,2.75-3.6,4.91-4.49C19.62,6.63,26.61,3,34.02,3c.68,0,1.39,.04,2.16,.11l.29,.03c.66,.07,1.33,.17,2,.31l.39,.08c.65,.14,1.29,.3,1.89,.49l.28,.09c.75,.24,1.37,.47,1.94,.71,.06,.02,.17,.07,.22,.1,.47,.2,1.03,.47,1.61,.78l.33,.17c.52,.29,1.05,.61,1.58,.96,.13,.09,.27,.18,.4,.27,.5,.34,.98,.7,1.44,1.07,.11,.09,.22,.18,.33,.27,.54,.46,.97,.85,1.37,1.25l.23,.23c.42,.43,.79,.84,1.14,1.25,.1,.11,.26,.31,.28,.32,2.2,2.52,3.99,5.64,5.46,9.51,.32,.83,.62,1.72,.91,2.64,1.84,5.84,2.81,12.31,3.85,19.17,.61,4.05,1.25,8.24,2.07,12.25l.7,3.4c.12,.54,.42,1.93,.42,1.93,.13,.58,.27,1.16,.4,1.74l.06,.26c.15,.6,.28,1.12,.42,1.63l.04,.16c.16,.59,.32,1.13,.48,1.68l.08,.27c.18,.58,.35,1.11,.53,1.63,0,.02,.03,.09,.04,.11,.17,.49,.37,1.02,.58,1.55l.14,.34c.21,.51,.42,1.02,.66,1.54,.28,.56,.61,1.21,.94,1.84,.08,.04,.4,.18,.4,.18,.38,.16,.75,.33,1.12,.51,.24,.11,.49,.24,.73,.36,.34,.17,.67,.34,.99,.52,.28,.15,.5,.27,.72,.4,.35,.2,.7,.41,1.04,.62l.14,.08c.15,.09,.31,.19,.46,.28,.5,.32,.98,.66,1.46,1,.17,.12,.34,.25,.51,.38l.27,.21c.15,.11,.3,.22,.44,.34,.09,.07,.18,.15,.27,.23,1.79,1.45,3.37,3.03,4.71,4.7,1.37,1.62,11.5,10.47,28.08,20.13l1.17,.68c.89,.51,1.81,1.03,2.75,1.55l1.03,.56c.68,.37,1.36,.74,2.05,1.12l1.19,.63c7.24,3.82,14.77,7.29,22.37,10.32,.29,.11,1.48,.57,1.48,.57,.83,.33,1.67,.65,2.52,.97,.49,.19,1.79,.66,1.79,.66,.78,.29,1.56,.57,2.35,.85,.62,.22,1.25,.44,1.88,.66,.58,.2,1.16,.4,1.75,.59l.21,.07c1.11,.37,2.23,.73,3.36,1.09,.61,.19,1.23,.39,1.85,.58,1.13,.35,2.28,.69,3.43,1.02l.51,.15c.46,.13,.91,.27,1.37,.4,1.23,.35,2.48,.68,3.73,1.01,0,0,1.35,.36,1.7,.45,1.94,.49,3.74,.93,5.5,1.33,.03,0,.07,.02,.1,.03h0c1.66,.41,2.98,1.37,3.8,2.72,.8,1.32,1.03,2.93,.64,4.41-.36,1.34-1.19,2.47-2.33,3.19-.35,.22-.74,.43-1.19,.64-.13,.06-.26,.12-.4,.17-.28,.12-.53,.22-.8,.32-.11,.04-.49,.17-.49,.17-.27,.09-.51,.17-.77,.25l-.56,.17c-.28,.08-.53,.15-.81,.22-.17,.05-.37,.1-.57,.15-.33,.08-.61,.15-.91,.22l-.69,.16c-.3,.07-.6,.13-.91,.19l-.76,.15c-.32,.06-.64,.12-.97,.19l-.8,.15c-.35,.06-1.9,.32-1.9,.32l-2.01,.31-2.12,.29-2.21,.28c-.6,.07-1.22,.14-1.84,.21l-.87,.1c-.63,.07-1.26,.13-1.9,.2l-2.44,.23-1.19,.1c.36,.17,1.63,.76,1.63,.76,.44,.2,.9,.41,1.37,.62l.66,.29c.47,.21,2.1,.91,2.1,.91,.7,.3,1.43,.6,2.18,.91l1.7,.7c1.06,.42,2.2,.88,3.33,1.37l.04,.02-.82,1.85-1.06,2.78,1.91-4.62,4.12,1.72,3.32,1.42,2.17,.96,2.38,1.08,1.97,.93,.92,.45s.85,.42,.87,.44c.29,.15,1.03,.53,1.03,.53l.83,.45,.76,.43,.67,.39s.8,.51,.83,.52c.12,.08,.6,.41,.6,.41,.22,.16,.43,.32,.61,.46,0,0,.13,.1,.18,.15,.16,.13,.31,.27,.45,.4,.06,.06,.19,.19,.25,.25,.1,.11,.21,.23,.32,.35,.06,.07,.25,.3,.25,.3,.08,.11,.16,.22,.23,.33,.13,.2,.25,.4,.35,.58,.08,.15,.19,.39,.25,.55,.12,.31,.21,.6,.27,.9,.07,.32,.12,.65,.13,.97,0,.05,0,.1,0,.16,0,.26-.02,.52-.06,.78-.05,.35-.14,.69-.26,1.02-.12,.34-.28,.69-.46,.99-.38,.64-.91,1.21-1.55,1.66-.53,.37-1.13,.64-1.81,.82-.09,.02-.19,.05-.27,.07-.05,.01-.2,.04-.23,.04-.23,.04-.49,.08-.8,.1-.06,0-.27,.02-.27,.02-.18,0-.37,.02-.58,.02h-.35c-.16,0-.68-.01-.69-.01l.12-5-.26,4.99-1.29-.07-1.28-.1-2.69-.26-1.76-.19,.39-4.99-.56,4.97s-3.27-.39-3.3-.4l-3.38-.44-1.71-.23,.55-4.97-.08,.57-.5,4.39s-1.89-.26-1.89-.26l.55-4.97-.68,4.95-1.7-.24,.53-4.98-.69,4.95-2-.28c-1.19-.17-3.85-.56-3.85-.56-1.23-.18-2.47-.36-3.71-.55-1.94-.29-3.8-.57-5.6-.85l-.15-.02c-2.37-.36-4.63-.71-6.68-1.03-.02,0-.05,0-.07-.01-5.25-.82-9.11-1.45-10.01-1.6-.44-.04-1.58-.13-3.22-.25l.21-5-.38,4.99c-2.84-.21-7.22-.53-11.92-.82l-1.78-.11c-1.2-.07-2.4-.14-3.6-.2-1.79-.09-3.58-.18-5.28-.24-1.13-.04-2.22-.08-3.27-.11-.52-.01-1.03-.02-1.52-.03-.48,0-.95-.01-1.41-.02h-1.3c-.41,0-.79,0-1.16,.02-.37,0-.69,.02-.97,.03-.31,.6-.61,1.19-.9,1.75-.73,1.41-1.42,2.69-2.08,3.87-.74,1.38-1.64,2.92-2.63,4.49-.27,.44-.57,.91-.85,1.36l-.47,.72c-1.38,2.11-2.53,3.69-3.54,5.08l-.28,.38c-.84,1.19-1.55,2.19-1.98,2.87,.62,0,1.04-.03,1.25-.03,.34-.04,.68-.06,1.02-.06,1.44,0,2.87,.35,4.14,1.02,1.03,.52,1.94,1.24,2.71,2.16,1.05,1.27,1.74,2.8,1.97,4.44,.01,.08,.02,.17,.03,.26,.03,.27,.03,.54,.02,.81,.11,.39,.2,.79,.26,1.19,.01,.1,.03,.2,.03,.3,.13,1.44-.33,2.88-1.28,3.97-1.02,1.18-2.5,1.86-4.07,1.86-.07,0-.15,0-.23,0-1.57,1.19-3.55,1.88-5.43,1.88-3.61,0-5.56-1.02-6.49-1.52l-.14-.07c-.67-.33-1.88-.93-2.57-1.01-.06,.04-.11,.08-.17,.12-.39,.27-.75,.52-.95,.63-.35,.2-.72,.38-1.13,.55-2.4,1.15-4.87,1.4-6.53,1.4-.16,0-.3,0-.42,0l-13.58-.02c-.59,0-1.19-.08-1.8-.24-.27,.07-.54,.13-.82,.18-.41,.07-.84,.1-1.26,.1Z"/><g><g><path class="i" d="M84.85,188.05c-.9-1.09-2.27-1.56-3.58-1.36,0,0-2.39,.15-6.31-.05-4.69-.24-5.17-3.4-5.17-3.4l-.87,1.41c-.06-.12-.11-.23-.18-.35-1.36-2.34-4.36-2.04-6.66-.55-2.04,1.32-2.81,3-1.68,5.15,1.27,2.42,4.1,3.56,6.43,2.2,.3-.17,1.15-.83,1.49-1,2.42-1.19,5.34,.3,6.94,1.09,.71,.35,1.75,1.07,4.41,1.07,1.36,0,3.46-1.15,3.46-2.58,0-.25-.04-.49-.1-.72,.76,.2,1.46,.63,2,1.28h0c.24,.3,.72,.11,.66-.26-.1-.69-.38-1.36-.86-1.93Z"/><path class="a`" d="M44.19,186.65c-2.55-2.64-6.76-2.7-9.4-.15-1,.97-1.63,2.17-1.88,3.44-.11,.53,.56,.88,.93,.48,.08-.08,.15-.16,.23-.24,2.04-1.98,3.85-1.37,6.16-.13,.2,.11,.45,.08,.63-.08,.96-.87,2.84-2.37,3.73-2.87-.13-.16-.26-.31-.4-.46Z"/><path class="h" d="M68.36,176.55c-1.99-.33-2.81,1.52-3.89,3.27-2.98,4.82-5.33,6.07-5.33,6.07-4.98,1.38-10.45,1.13-16.18-.02h-.01c-.4-.08-.83-.08-1.13-.07-1.59,.12-3.42,1.63-3.42,3.2s1.62,1.59,3.26,1.59c.76,0,1.63-.17,2.34-.51,1,1.13,2.51,2.26,3.69,2.26,4.77,0,13.33,0,13.33,0,0,0,4.33,.4,6.8-2.12,1.35-1.37,2.24-4.21,4.17-8.46,2.18-4.79-3.63-5.22-3.63-5.22Z"/><path class="s" d="M60.93,184.44c-1.11,1.08-1.78,1.46-1.78,1.46-4.98,1.38-10.45,1.13-16.18-.02h-.01c-.4-.08-.83-.08-1.13-.07-1.56,.12-3.35,1.57-3.41,3.11,.98-.4,2.08-.28,3.05-.28,3.96-.16,7.91,.41,11.87,.24,2.23-.1,4.53-.35,6.57-1.31,.92-.43,2.14-1.1,2.73-1.97,.66-.97,.62-3.44-1.71-1.15Z"/><path class="a`" d="M44.92,189.27c-1.9-1.84-4.94-1.79-6.79,.11-.7,.72-1.12,1.6-1.28,2.52-.07,.39,.42,.62,.68,.32,.05-.06,.11-.12,.16-.18,1.43-1.48,2.74-1.08,4.45-.24,.15,.07,.33,.05,.45-.07,.67-.65,2-1.77,2.62-2.16-.09-.11-.19-.22-.3-.32Z"/><path class="l" d="M46.79,188.9c.26,1.64-.86,3.19-2.5,3.45-1.64,.26-3.19-.86-3.45-2.5-.26-1.64,.94-2.94,2.59-3.2,1.64-.26,3.1,.6,3.37,2.25Z"/><path class="l" d="M61.29,186.86l.36,5.5s-12.84-.01-13.49-.01c-1.66,0-3.19-.86-3.45-2.5-.26-1.64,.92-2.24,.92-2.24,5.94,.83,11.49,.92,15.66-.75Z"/><path class="p" d="M83.01,188.95c.76,.2,1.47,.64,2.02,1.29h0c.24,.3,.73,.11,.67-.27-.1-.7-.39-1.37-.87-1.95-.9-1.09-2.08-1.37-3.39-1.19,.87,.49,1.33,1.13,1.56,2.12Z"/></g><path class="x" d="M48.83,145.95s5.36,5.36,6.41,11.51c1.05,6.15,10.2,18.18,10.2,18.18,0,0-.52,4.84,.92,4.97s9.55,.26,5.76-19.75c-3.79-20.01-25.24-19.62-25.24-19.62,0,0-1.05,.92,1.96,4.71Z"/><g><g><circle class="b" cx="33.8" cy="17.57" r="3.55"/><path class="m" d="M33.8,22.46c-2.7,0-4.9-2.2-4.9-4.9s2.2-4.9,4.9-4.9,4.9,2.2,4.9,4.9-2.2,4.9-4.9,4.9Zm0-7.1c-1.22,0-2.2,.99-2.2,2.2s.99,2.2,2.2,2.2,2.2-.99,2.2-2.2-.99-2.2-2.2-2.2Z"/></g><path class="i" d="M85.15,190.31c-.9-1.09-2.27-1.56-3.58-1.36,0,0-2.39,.15-6.31-.05-4.69-.24-5.17-3.4-5.17-3.4l-.87,1.41c-.06-.12-.11-.23-.18-.35-1.36-2.34-4.36-2.04-6.66-.55-2.04,1.32-2.81,3-1.68,5.15,1.27,2.42,4.1,3.56,6.43,2.2,.3-.17,1.15-.83,1.49-1,2.42-1.19,5.34,.3,6.94,1.09,.71,.35,1.75,1.07,4.41,1.07,1.36,0,3.46-1.15,3.46-2.58,0-.25-.04-.49-.1-.72,.76,.2,1.46,.63,2,1.28h0c.24,.3,.72,.11,.66-.26-.1-.69-.38-1.36-.86-1.93Z"/><path class="n" d="M156.19,151.99c-10.77-4.39-17.41-8.45-17.41-8.45,0,0-21.75-18.48-48.12-40.22-26.37-21.74-28.17-31.71-31.36-47.27-3.19-15.56-3.41-32.42-11.18-41.31-7.77-8.89-19.93,20.77-19.93,20.77,0,0-14.66,32.84-14.66,59.3s22.24,41.42,36.6,51.19c14.36,9.77,16.61,28.07,16.61,28.07l.56,1.85c-.13,.4-.42,1.88-.42,2.32,0,2.2,1.79,4.1,3.99,3.99,2.4-.12,2.74-.31,4.33-2.92,2.71-4.47,6.44-7.68,13.73-22.54,1.54-1.91,39.59,1.2,39.59,1.2,0,0,51.25,8.38,53.25,6.98,2.24-1.57-14.79-8.57-25.56-12.96Z"/><path class="y" d="M156.19,151.99c-3.39-1.38-6.36-2.73-8.85-3.93-7.51,2.93-15.01-.39-22.21-3.18-1.24,.09-2.54,.18-3.9,.26,2.78,6.06,7.54,10.51,13.23,13.77,13.57,2.16,45.72,7.12,47.29,6.02,2.24-1.57-14.79-8.57-25.56-12.96Z"/><path class="g" d="M121.23,145.16c-21.19,1.31-56.41,1.32-75.97-10.51-18.53-11.2-25.18-18.98-23.82-37.97-2.57,.07-7.26-2.84-7.84-3.56-.05,.55-.07,1.11-.07,1.7,0,26.46,22.24,41.42,36.6,51.19,6.12,4.17,7.57,11.34,10.13,17.14,3.44,7.79,6.49,11.12,6.49,11.12l.56,1.67c-.13,.4-.42,1.88-.42,2.32,0,2.2,1.79,4.1,3.99,3.99,2.4-.12,2.74-.31,4.33-2.92,2.71-4.47,6.44-7.68,13.73-22.54,1.54-1.91,39.59,1.2,39.59,1.2,0,0,2.31,.38,5.96,.96-5.69-3.26-10.46-7.72-13.23-13.77Z"/><path class="u" d="M147.34,148.07c-5.43-2.61-8.55-4.52-8.55-4.52,0,0-5.35,.73-13.66,1.35,7.2,2.79,14.7,6.1,22.21,3.18Z"/><path class="u" d="M160.91,153.93c2.74,1.65,10.78,6.87-4.79,5.86-5.18-.62-1.72,2.23,4.32,3.08,10.84,1.53,20.47,2.68,21.31,2.09,1.94-1.35-10.48-6.75-20.84-11.03Z"/><path class="u" d="M156.75,152.23c8.74,4.53,3.86,5.09-3.34,4.58-6.84-.48-1.52,2.08,5.89,3.69,11.2,2.43,20.44,4.08,21.47,3.86,2.22-.46-8.74-5.61-19.65-10.35-1.47-.64-2.97-1.22-4.37-1.78Z"/><path class="e" d="M34.02,8c-10,0-18.1,8.1-18.1,18.1,0,.58,.03,1.16,.08,1.73,.48-.08,.98-.12,1.49-.12,5.13,0,9.3,4.16,9.3,9.3,0,1.83-.81,3.86-1.79,6.38-.19,.49,4.98,.88,5.42,.91,8.27,.56,16.96-3.36,20.32-11.28,.92-2.18,1.39-4.55,1.39-6.91,0-10-8.1-18.1-18.1-18.1Zm-.31,12.54c-1.62,0-2.94-1.32-2.94-2.94s1.32-2.94,2.94-2.94,2.94,1.32,2.94,2.94-1.32,2.94-2.94,2.94Z"/><path class="d" d="M64.24,73.42c-2.43-5.32-3.52-10.42-4.72-16.28-.07-.35-.15-.71-.22-1.07-3.19-15.56-3.41-32.42-11.18-41.31l-.02-.02c-3.32-4.1-8.39-6.73-14.08-6.73-10,0-18.1,8.1-18.1,18.1,0,.58,.03,1.16,.08,1.73,.48-.08,.98-.12,1.49-.12,5.13,0,9.3,4.16,9.3,9.3,0,1.45-.51,3.01-1.2,4.85-.18,.47-.37,.95-.56,1.46l-.02,.06h0c-1.68,4.42-3.79,10.4-5.75,17.14-2.93,10.14-5.5,22-5.71,32.91,17.25,15.04,53.1-15.43,53.1-15.43,0,0-1.49-2.7-2.42-4.58ZM33.72,14.66c1.62,0,2.94,1.32,2.94,2.94s-1.32,2.94-2.94,2.94-2.94-1.32-2.94-2.94,1.32-2.94,2.94-2.94Z"/><path class="p" d="M9.42,28.25c-2.11-.02-1.46-2.3-.68-3.46,1.39-2.07,3.87-3.23,6.02-4.33,1.14-.58,2.3-1.13,3.47-1.65,.2-.09,.85-2.48,1.5-.65,1.3,3.65,5.53,5.04,5.53,5.04-3.96,1.01-8.3,2.3-9.26,4.62,0,0-2.42,.36-5.49,.42-.42,0-.78,0-1.1,0Z"/><path class="a`" d="M44.5,188.91c-2.55-2.64-6.76-2.7-9.4-.15-1,.97-1.63,2.17-1.88,3.44-.11,.53,.56,.88,.93,.48,.08-.08,.15-.16,.23-.24,2.04-1.98,3.85-1.37,6.16-.13,.2,.11,.45,.08,.63-.08,.96-.87,2.84-2.37,3.73-2.87-.13-.16-.26-.31-.4-.46Z"/><path class="h" d="M68.67,178.81c-1.99-.33-2.81,1.52-3.89,3.27-2.98,4.82-5.33,6.07-5.33,6.07-4.98,1.38-10.45,1.13-16.18-.02h-.01c-.4-.08-.83-.08-1.13-.07-1.59,.12-3.42,1.63-3.42,3.2s1.62,1.59,3.26,1.59c.76,0,1.63-.17,2.34-.51,1,1.13,2.51,2.26,3.69,2.26,4.77,0,13.33,0,13.33,0,0,0,4.33,.4,6.8-2.12,1.35-1.37,2.24-4.21,4.17-8.46,2.18-4.79-3.63-5.22-3.63-5.22Z"/><path class="s" d="M61.23,186.7c-1.11,1.08-1.78,1.46-1.78,1.46-4.98,1.38-10.45,1.13-16.18-.02h-.01c-.4-.08-.83-.08-1.13-.07-1.56,.12-3.35,1.57-3.41,3.11,.98-.4,2.08-.28,3.05-.28,3.96-.16,7.91,.41,11.87,.24,2.23-.1,4.53-.35,6.57-1.31,.92-.43,2.14-1.1,2.73-1.97,.66-.97,.62-3.44-1.71-1.15Z"/><path class="a`" d="M45.22,191.53c-1.9-1.84-4.94-1.79-6.79,.11-.7,.72-1.12,1.6-1.28,2.52-.07,.39,.42,.62,.68,.32,.05-.06,.11-.12,.16-.18,1.43-1.48,2.74-1.08,4.45-.24,.15,.07,.33,.05,.45-.07,.67-.65,2-1.77,2.62-2.16-.09-.11-.19-.22-.3-.32Z"/><path class="l" d="M47.09,191.16c.26,1.64-.86,3.19-2.5,3.45-1.64,.26-3.19-.86-3.45-2.5-.26-1.64,.94-2.94,2.59-3.2,1.64-.26,3.1,.6,3.37,2.25Z"/><path class="l" d="M61.59,189.12l.36,5.5s-12.84-.01-13.49-.01c-1.66,0-3.19-.86-3.45-2.5-.26-1.64,.92-2.24,.92-2.24,5.94,.83,11.49,.92,15.66-.75Z"/><path class="f" d="M79.08,86.06c-5.78-7.21-15.93-11.51-26.03-10.81-8.88,.62-16.56,5.02-21.5,11.46-4.11-.25-7.52,1.38-9.55,6.32-4.78,11.61,3.97,25.65,14.64,32.93h0c14.48,9.83,30.06,13.52,35.17,14.14,12.8,1.55,25.11,.97,33.36-2.15,20.85,4.31,63.6,.2,69.44-3.51,.33-.21,.3-1.03-.61-1.24-56.54-12.83-92.17-43.73-94.91-47.15Z"/><path class="u" d="M173.99,133.21c-8.1-1.84-15.77-4.05-22.97-6.49-12.25,5.6-26.76,9.47-40.67,12.09,22.04,2.83,58.87-.94,64.26-4.36,.33-.21,.3-1.03-.61-1.24Z"/><path class="e" d="M151.02,126.71c-12.25,5.6-26.76,9.47-40.67,12.09,19.88,.99,43.53-2.54,48.91-5.96,.33-.21-1.03-3.68-8.24-6.13Z"/><path class="t" d="M136.16,121.1c-23.96,10.72-56.17,14.91-75.82,16.3,16.69,5.44,33.02,4.6,50.01,1.4,13.92-2.62,28.42-6.49,40.67-12.09-5.2-1.77-10.16-3.65-14.86-5.61Z"/><path class="q" d="M83.13,133.71s-.05,.02-.08,.04c.03-.02,.05-.03,.08-.04Z"/><path class="w" d="M21.31,19.74c.27,1.13,1.28,1.6,1.28,1.92,0,.87-2.7,1.38-4.09,1.52-1.72,.17-3.99-.21-4.16-1.93-.17-1.72,1.9-4.32,4.24-4.3,1.73,.01,2.33,1.12,2.73,2.8Z"/><path class="c" d="M33.73,21.81c-2.3,0-4.18-1.87-4.18-4.18s1.87-4.18,4.18-4.18,4.18,1.87,4.18,4.18-1.87,4.18-4.18,4.18Zm0-7.1c-1.61,0-2.92,1.31-2.92,2.92s1.31,2.92,2.92,2.92,2.92-1.31,2.92-2.92-1.31-2.92-2.92-2.92Z"/><circle cx="33.73" cy="17.53" r="1.47"/><circle class="c" cx="34" cy="16.97" r=".66"/><path class="v" d="M15.42,23.19s-.83,.26-1.43,.09c-.6-.17-.82-.44-.74-.71s.42-.44,1.02-.27c.6,.17,1.15,.89,1.15,.89Z"/><circle class="c" cx="29.55" cy="18.72" r="1.25"/><path class="o" d="M72.69,136.29c-2.84-.77-5.69-2.15-8.55-4.51,5.38,2.09,10.05,3.4,13.97,3.87l-5.42,.64Z"/><path class="o" d="M84.98,134.65c-3.22-.88-6.87-3.69-8.14-5.45,6.84,3.34,9.66,3.97,14.45,4.52l-6.31,.94Z"/><path class="o" d="M97.74,132.53c-2.64-.89-7.32-3.34-9.43-6.68,5.87,3.34,11.16,4.87,15.61,5.41l-6.18,1.28Z"/><path class="o" d="M111.05,129.57c-3.83-.95-8.8-4.17-12.08-7.68,5.37,3.1,11.69,5.48,17.61,6.19l-5.53,1.49Z"/><path class="o" d="M124.52,125.62c-3.83-.95-10.88-4.72-13.69-9.22,6.19,4.27,13.7,6.77,18.81,7.39-1.48,.57-3.58,1.33-5.12,1.83Z"/><path class="u" d="M151.11,161.5c-8.05-1.57-18.6-5.72-22.68-12.18,15.63,6.07,25.52,7.76,32.17,7.29,2,.47,1.42,6.46,1.42,6.46,0,0-7.55-1.08-10.91-1.58Z"/><path class="o" d="M51.02,127.95c-2.57-.44-6.03-2.33-8.35-4.33,6.39,2.02,10.14,3.07,13.8,3.09l-5.45,1.24Z"/><path class="o" d="M62.86,125.11c-2.92-.49-7.51-3.87-8.41-5.46,5.94,2.51,9.85,3.87,14.32,3.85l-5.91,1.61Z"/><path class="o" d="M75.2,121.57c-2.36-.57-7.42-3.18-8.84-6.24,5.02,2.62,10.84,4.16,14.99,4.17l-6.14,2.06Z"/><path class="j" d="M87.79,155.44c-1.57,3.16-3.54,6.14-5.59,8.6,.82-2.46,1.58-5.65,1.17-8.06-1.36,2.66-2.87,5.25-4.4,7.45,.22-2.27,.34-4.98-.16-7.3-1.37,2.67-2.69,5.41-3.94,7.64-.28-2.42-.57-5.46-1.27-8.24-1.3,2.58-2.25,5.45-3.06,7.73-.82-2.58-1.59-5.8-2.45-8.91-1.09,2.26-1.55,5.08-1.82,7.37-1.23-2.68-2.36-5.89-3.3-9.07-.88,2.01-.86,4.91-.61,7.32-1.57-2.83-2.97-6.12-3.95-9.41-.59,1.6-.29,4.17,.32,6.54,.4,1.04,.27,2.43,.6,3.46,1.98,6.3,7.41,13.71,7.41,13.71l.56,1.67c-.13,.4-.42,1.88-.42,2.32,0,2.2,1.79,4.1,3.99,3.99,2.4-.12,2.74-.31,4.33-2.92,1.93-3.17,8.23-10.85,11.45-18.39,.79-1.95,1.32-3.97,1.16-5.48Z"/><path class="o" d="M88.31,116.84c-3.49-.49-8.57-3.59-11.08-6.67,4.58,2.43,10.91,4.31,16.43,4.34l-5.35,2.33Z"/><path class="o" d="M100.67,110.89c-3.49-.49-9.56-3.4-11.44-7.52,5.16,3.5,11.89,5.09,16.65,5.11-1.51,.73-3.65,1.73-5.21,2.41Z"/><path class="t" d="M107.32,106.67c-15.97,11.61-42.72,18.7-64.65,23.02,2.49,1.4,4.97,2.64,7.37,3.72,31.7-2.24,55.02-13.45,67.85-20.86-3.78-1.97-7.31-3.95-10.58-5.88Z"/><path class="r" d="M53.05,75.25c-8.88,.62-16.56,5.02-21.5,11.46-4.11-.25-7.52,1.38-9.55,6.32-.64,1.56-1.03,3.16-1.22,4.78,2.31-4.39,6.83-7.37,12.03-7.37,1.44,0,2.83,.23,4.13,.65,6.38-6.98,15.55-11.37,25.75-11.37,4.29,0,8.4,.78,12.2,2.2-5.86-4.65-13.87-7.22-21.85-6.67Z"/><path class="p" d="M83.31,191.21c.76,.2,1.47,.64,2.02,1.29h0c.24,.3,.73,.11,.67-.27-.1-.7-.39-1.37-.87-1.95-.9-1.09-2.08-1.37-3.39-1.19,.87,.49,1.33,1.13,1.56,2.12Z"/></g></g></svg>