<?xml version="1.0" encoding="UTF-8"?><svg id="a" xmlns="http://www.w3.org/2000/svg" viewBox="0 0 262.01 143.93"><defs><style>.b{fill:#050505;}.b,.c{opacity:.5;}.d{fill:#fff;}.e{fill:#e2a225;}.f{fill:#dbdbdb;}.g{fill:#fbdd91;}.h{fill:#0c8743;}.i{stroke-width:.07px;}.i,.j,.k,.l{fill:none;}.i,.l{stroke:#000;}.j{stroke-width:2.09px;}.j,.k{stroke:#204f26;}.m{fill:#069046;}.n{fill:#fbde95;}.k{stroke-width:1.36px;}.o{fill:#fde2a1;}.p{fill:#9c722a;}.q{fill:#fafcff;}.r{fill:#f1ac31;}.s{fill:#0b8040;}.t{fill:#f5c674;}.l{stroke-width:.11px;}.u{fill:#c28b2c;}.v{fill:#ffecbf;}</style></defs><path class="c" d="M133.51,141.77c-32.91,0-63.91-4.06-87.3-11.42-25.54-8.04-39.04-19.03-39.04-31.78s13.5-23.74,39.04-31.78c8.72-2.74,18.68-5.06,29.63-6.89,3.38-2.73,6.63-5.39,8.45-7.02,9.13-8.16,48.21-43.47,48.6-43.82,.62-.56,1.36-.95,2.17-1.15l.16-.04c1.2-.29,2.83-.69,4.95-.69,5.49,0,13.84,2.25,34.21,18.97,9.85,8.08,20.56,19.81,31.83,34.85,.65,.78,1.29,1.55,1.92,2.3,4.49,1.07,8.75,2.25,12.69,3.48,25.54,8.04,39.04,19.03,39.04,31.78,0,28.06-65.09,43.2-126.34,43.2Z"/><path class="q" d="M128.51,136.77c-32.91,0-63.91-4.06-87.3-11.42C15.67,117.31,2.17,106.31,2.17,93.56s13.5-23.74,39.04-31.78c8.72-2.74,18.68-5.06,29.63-6.89,3.38-2.73,6.63-5.39,8.45-7.02,9.13-8.16,48.21-43.47,48.6-43.82,.62-.56,1.36-.95,2.17-1.15l.16-.04c1.2-.29,2.83-.69,4.95-.69,5.49,0,13.84,2.25,34.21,18.97,9.85,8.08,20.56,19.81,31.83,34.85,.65,.78,1.29,1.55,1.92,2.3,4.49,1.07,8.75,2.25,12.69,3.48,25.54,8.04,39.04,19.03,39.04,31.78,0,28.06-65.09,43.2-126.34,43.2Z"/><g><path class="b" d="M249.84,93.56c0,21.1-54.33,38.2-121.34,38.2-32.18,0-63.04-4.03-85.8-11.19-22.76-7.16-35.54-16.88-35.54-27.01,0-10.13,12.78-19.85,35.54-27.01,22.76-7.16,53.62-11.19,85.8-11.19,32.18,0,63.04,4.03,85.8,11.19,22.76,7.16,35.54,16.88,35.54,27.01Z"/><ellipse class="d" cx="128.55" cy="90.19" rx="34.01" ry="115.84" transform="translate(38.18 218.62) rotate(-89.92)"/><path class="f" d="M131.24,7.76s-39.38,35.57-48.62,43.84c-9.24,8.26-49.82,38.81-49.02,43.48,.8,4.67,0,14.73,44.6,16.89,44.6,2.16,70.32,.36,65.49,3.23-4.82,2.87-6.03,7.19,5.22,6.11,11.25-1.08,8.44-3.23,16.07-1.08,7.63,2.16,10.85-2.87,7.23-5.75-3.62-2.87,11.65-3.23,27.32-6.11,15.67-2.87,20.49-12.94,18.08-18.33-2.41-5.39-26.92-44.92-51.43-65.04-24.51-20.12-30.54-18.33-34.96-17.25Z"/><path class="r" d="M125.95,13.38S45.18,86.67,36.91,90.96c-9.97,5.17,10.75,14.18,47.54,18.62,36.99,4.47,100.35,4.13,121.62-6.48,14.3-7.13,11.9-10.91,10.64-14.35-1.69-4.63-10.13-5.83-20.48-19.23C178.2,46.14,139.06-.5,125.95,13.38Z"/><path class="g" d="M129.15,10.23S47.31,84.7,38.78,89.08c-8.52,4.38,3.41,13.14,41.77,18.25,38.36,5.11,93.77,2.19,117.64-5.11,23.87-7.3,23.87-12.41,5.11-35.78C184.56,43.08,142.79-3.65,129.15,10.23Z"/><path class="e" d="M93.63,102.4c-5.65-.39-43.9-11.23-47.24-8.39-3.33,2.84,21.16,9.16,31.3,10.71,10.14,1.55,46.8,3.74,51.15,4.65,4.35,.9-21.88,2.07-35.21-.13-13.33-2.19-44.92-4.39-52.89-12.78-7.97-8.39,2.9-7.62,13.62-4.9,10.72,2.71,37.67,8.26,41.3,9.29,3.62,1.03,14.92,2.32-2.03,1.55Z"/><path class="e" d="M59.83,77.67c-10.69,2.94-16.33,8.45-9.1,5.51,7.22-2.94,14.45-3.46,24.56-1.92,10.11,1.54,77.88,17.54,95.07,18.05,17.19,.51,20.95-2.18,19.94-2.18s-12.43,3.2-48.69-3.84c-36.27-7.04-54.86-12.05-69.5-15.62-5.78-1.41-12.28,0-12.28,0Z"/><path class="r" d="M41.61,94.92c-1.74-5.16,2.32-7.23,24.92,.52,22.6,7.74,86.36,12.91,115.34,8.26,28.98-4.65,34.03-11.74,34.65-13.74,.61-2.01-9.43,17.16-71.11,14.42-61.68-2.74-92.62-16.06-97.13-16.06s-12.98,1.26-12.98,4.18c0,2.22,6.14,6.88,7.68,6.08,.49-.26-1.05-2.45-1.37-3.65Z"/><path class="r" d="M45.31,84.21s8.76-9.17,19.19-9.69c10.43-.52,106.36,33.82,130.41,20.14,15.56-8.85,19.56-10.63,20.41-10.74,.07,0,.08,.06,.1,.08,.05,.07,.06,.13,.05,.14-.05,.05-.18,.16-.23,.2-.31,.14-16.07,10.57-26.09,13.51-9.14,2.68-41.28-1.69-53.67-4.79-12.4-3.1-61.37-15.13-74.08-15.42-7.04-.16-19.33,10.21-17.46,7.73,.17-.23,.97-.69,1.38-1.15Z"/><path class="t" d="M151.29,14.38s-9.78,6.91-25.5,9.72c-15.72,2.81,5.24,1.3,15.72-3.89,10.48-5.19,10.59-5.61,10.59-5.61l-.8-.23Z"/><path class="t" d="M100.38,37.02s2.67,2.71,16.93,5.43c14.25,2.71,19.3,4.98,19.3,4.98,0,0-31.51-5.88-37.18-9.96,0,0-.19-.18,.95-.45Z"/><path class="t" d="M96.67,39.98s28.94,14.87,32.71,16.87c3.77,2,6.77,2.96,6.77,2.96,0,0-4.57-.71-13.92-5.82-9.35-5.1-22.99-11.21-24.51-11.95-1.52-.73-3.86-.77-1.06-2.07Z"/><path class="t" d="M93,43.8s17.94,13.24,21.97,15.82c4.04,2.59,3.94,4.78,1.6,1.79-2.35-2.99-12.11-7.26-15.5-9.85-3.38-2.59-10.05-7.07-10.05-7.07,0,0,.28-.5,1.97-.7Z"/><path class="o" d="M151.15,18.76c-19.26,6.94-15.16,9.49-31.56,11.68-16.39,2.19-2.05,11.68,13.11,11.68s22.13,4.75,9.02,6.94c-13.11,2.19-20.9-2.19-14.75,2.19,6.15,4.38,25.41,12.78,13.93,14.24-11.48,1.46-22.13-13.51-18.44-6.57,3.69,6.94,4.92,14.6-5.33,9.13-10.25-5.48-17.62-17.16-28.28-13.14-10.66,4.02-22.13,13.87-12.7,16.79,9.43,2.92,68.85,22.27,84.43,22.63,15.57,.37,0-18.62,9.84-17.89,9.84,.73,4.51-18.25,9.84-20.08,5.33-1.83-1.64-13.87-11.89-24.1-10.25-10.22-8.2-14.97-17.21-13.51Z"/><path class="n" d="M181.58,44.84c2.32,12.39,6.38,5.16,1.74,13.42-4.64,8.26,0,12.65-5.51,16.01-5.51,3.36-5.8,4.39-7.24,11.87-1.45,7.49-6.96,10.07-2.03,10.07s21.16,1.03,31.88-6.2c10.72-7.23,15.07-4.65,6.96-16.52-8.11-11.87-23.47-27.88-25.79-28.65Z"/><path class="o" d="M177.38,101.63c-45.08-7.3-88.93-18.25-109.84-18.62-20.9-.37-32.79,2.92,.82,8.76,33.61,5.84,62.29,10.59,73.77,10.95,11.48,.37,47.13,.37,35.25-1.1Z"/><path class="o" d="M47.06,95.79c2.87,3.65,2.87,3.29,17.62,6.57,14.75,3.29,58.2,7.67,76.23,6.57,18.03-1.1,9.84-1.83-6.56-2.19-16.39-.37-64.75-6.57-76.23-10.95-11.48-4.38-15.16-2.56-11.07,0Z"/><path class="n" d="M151.74,27.8c-37.09,.52-6.96,10.33,4.06,10.33s17.97,12.39-3.48,12.91c-21.44,.52,18.55,5.16,8.69,13.42-9.85,8.26,8.69,13.94-19.71,11.87-28.4-2.07-44.63-4.13-22.02,2.07,22.6,6.2,22.6,13.94,31.88,11.87,9.27-2.07-2.9-4.13,6.96-7.74,9.85-3.61,1.16-12.39,7.53-13.94,6.38-1.55-2.9-16.52,3.48-20.65,6.38-4.13-2.32-9.81-8.69-13.94-6.38-4.13,10.43-8.26-8.69-6.2Z"/><path class="v" d="M190.91,77.54c-9.43,.73-6.56,1.1-2.46,2.56,4.1,1.46,2.87,6.57,6.97,1.1,4.1-5.48-.82-3.29-4.51-3.65Z"/><path class="v" d="M184.76,58.56c0,1.46-2.05,9.49,2.87,4.38,4.92-5.11,4.51-9.13-2.87-4.38Z"/><path class="v" d="M83.94,61.11s5.33,3.29,3.28,5.48c-2.05,2.19,.82,2.92,.82,2.92,0,0-4.51-4.38-8.2-3.29-3.69,1.1-4.92-11.32,4.1-5.11Z"/><path class="v" d="M96.24,73.52c0,2.92,8.2,4.38,8.2,4.38,0,0-2.87-2.56-.41-4.02,2.46-1.46-1.23-1.83-4.1-1.1-2.87,.73-2.87-2.56-3.69,.73Z"/><path class="v" d="M123.7,80.83c-2.46,4.75,2.46,4.75,5.74,4.75s3.69-1.1,4.1-2.92c.41-1.83-5.33-2.92-5.74-.37-.41,2.56-1.64-2.19-4.1-1.46Z"/><path class="v" d="M151.56,87.76c11.07,.37,16.8-4.02,12.7-.37-4.1,3.65-11.89,1.83-11.89,1.83,0,0,8.61,4.02,1.64,2.56-6.97-1.46-7.79-3.65-2.46-4.02Z"/><path class="v" d="M161.81,37.75c-.41,7.3,6.56,8.4,6.56,8.4,0,0-5.33-1.46-3.28-2.19,2.05-.73,2.87-4.75,.82-5.11-2.05-.37-1.23-4.75-4.1-1.1Z"/><path class="v" d="M150.74,52.71s5.33,4.38-.82,5.11c-6.15,.73-5.74-1.1-2.87,2.92,2.87,4.02,2.05,4.75,4.51,1.83,2.46-2.92,3.28-1.1,4.1-3.65,.82-2.56,3.69-6.57-4.92-6.21Z"/><path class="v" d="M122.88,34.83c-2.87,1.46-.41,5.11,2.05,5.48,2.46,.37,3.69,1.46,3.69-1.1s0-6.21-5.74-4.38Z"/><path class="e" d="M148.26,23.93c-1.74,2.32-1.74,4.39,.58,2.58,2.32-1.81,2.61-3.1-.58-2.58Z"/><path class="e" d="M114.93,29.09c-2.9,1.03-.58,1.81-2.61,3.1-2.03,1.29,2.03,2.58,2.32,1.29,.29-1.29,3.77-4.65,.29-4.39Z"/><path class="e" d="M121.02,29.35c-1.16,2.07,1.16,3.1,2.61,.77,1.45-2.32-3.48-3.87-2.61-.77Z"/><path class="e" d="M163.91,53.61c-.87,4.13,3.48,4.13,3.48,4.13,0,0,.29,.77,.29-1.29s-3.77-2.84-3.77-2.84Z"/><path class="e" d="M181.58,91.3c-3.48,3.61,1.45,5.16,1.74,3.87,.29-1.29-1.16-2.84,.29-3.36,1.45-.52,.29-1.55-2.03-.52Z"/><path class="e" d="M98.7,64.2c.29,2.32-1.74,3.36,1.74,2.32,3.48-1.03,3.48-1.81,3.48-1.81,0,0-4.06,.77-5.22-.52Z"/><path class="e" d="M70.01,70.39s1.45,.77,3.19,.77-2.32,1.81,1.16,2.58c3.48,.77,4.93,1.55,4.06,0-.87-1.55-2.32-2.58-2.61-3.61-.29-1.03-2.61-1.81-3.19-.77-.58,1.03-3.19-1.03-2.61,1.03Z"/><path class="u" d="M162.02,72.72c-9.74,.77-8.15,1.29-7.16,2.07,.99,.77-.2,2.58,1.59,1.55,1.79-1.03,.4-1.29,1.79-1.03,1.39,.26,1.79,.26,1.79,.26,0,0,4.97-1.03,1.99-2.84Z"/><path class="e" d="M195.49,71.43c-4.35,.77-4.06,2.32-1.45,2.32s2.03,1.55,2.61,0c.58-1.55,1.16-2.84-1.16-2.32Z"/><path class="e" d="M204.48,82.53c-4.64,.52-4.64,4.39-3.19,4.13,1.45-.26,0-1.29,2.9-2.58,2.9-1.29,1.74-1.03,.29-1.55Z"/><path class="u" d="M132.32,73.23c-2.61,.52,.29,0,.87,1.29,.58,1.29,.58,2.84,2.32,1.55,1.74-1.29,.87-.26,1.74-1.81,.87-1.55,2.03-2.58,.87-2.84-1.16-.26-3.48-.77-3.48,1.29s-.29,0-2.32,.52Z"/><path class="p" d="M143.16,37.2c-.82,.73-.61,3.65,.61,2.74,1.23-.91,.2-2.56-.61-2.74Z"/><path class="p" d="M133.12,52.53c0,2.74,.61,3.29,.61,1.64s.82-1.46-.61-1.64Z"/><path class="p" d="M97.88,57.09c-1.43,.18-.41,5.11,.82,3.47,1.23-1.64,2.25-2.01,1.23-2.19-1.02-.18-1.84-.73-2.05-1.28Z"/><path class="p" d="M175.33,67.68c-1.84,2.01-2.87,2.92-1.43,2.37,1.43-.55,2.66-1.28,1.43-2.37Z"/><path class="p" d="M170.42,82.47c0,1.83,0,4.56,1.84,1.46,1.84-3.1-1.02-1.28-1.84-1.46Z"/><path class="p" d="M163.45,32.09c-1.64,0-2.05,.91,0,1.1,2.05,.18,3.28-1.1,2.05-1.1h-2.05Z"/><path class="s" d="M160.34,114.07s2.07,4.04-6,4.88c-8.07,.83-10.39,.76-10.39,.76,0,0-.88-5.22,5.65-6.96,6.53-1.73,6.43,2.51,10.74,1.32Z"/><path class="h" d="M159.63,114.27s1.84,3.6-5.34,4.35c-7.19,.74-9.26,.68-9.26,.68,0,0-.78-4.65,5.03-6.2,5.81-1.54,5.73,2.24,9.57,1.18Z"/><path class="m" d="M158.64,115.35c-.21,.69-.81,1.03-3.72,2.15-2.92,1.12-4.78-.21-7.98,.64-3.21,.85,.62-.19,.69-1.27,.06-1.08,2.04-3.92,5.32-2.85,3.29,1.07,3.76,1.93,5.7,1.33Z"/><path class="j" d="M160.31,114.1s-2.65,1.47-5.35,1.94c-2.7,.47-11.02,3.68-11.02,3.68"/><path class="l" d="M144.08,117.58s.73-.11,1.64,.1c.9,.22,3.14,.13,3.14,.13,0,0-.75,1.39-.3,1.31,.45-.07,.27,.22,.27,.22"/><path class="l" d="M144.57,116.45s3.04-.16,4.01,.3c.98,.46,2.25,.47,2.25,.47,0,0-.33,1.21,.05,1.54,.38,.32-.43,.58-.43,.58"/><path class="l" d="M153.05,116.59s-3.94-1.82-5.61-1.53c-1.67,.29-2.1,.14-2.1,.14"/><path class="l" d="M153.23,116.68s-.29,.93-.14,1.13c.15,.19-.67,1.15-.67,1.15l.16,.23"/><path class="l" d="M146.72,114s1.84-.05,2.69-.16c.85-.12,2.97,.16,3.76,.7s2.32,1.41,2.32,1.41c0,0,1.2,.97,1,1.49-.2,.52,.47,1.08,.47,1.08"/><path class="s" d="M161.71,115.13s-1.21,2.92,3.5,3.52c4.7,.6,6.06,.55,6.06,.55,0,0,.51-3.77-3.29-5.02-3.81-1.25-3.75,1.81-6.26,.95Z"/><path class="h" d="M162.12,115.27s-1.07,2.6,3.11,3.14c4.19,.54,5.4,.49,5.4,.49,0,0,.46-3.36-2.93-4.47-3.39-1.11-3.34,1.61-5.58,.85Z"/><path class="m" d="M162.7,116.05c.12,.5,.47,.74,2.17,1.55,1.7,.81,2.78-.15,4.65,.46,1.87,.61-.36-.13-.4-.91-.04-.78-1.19-2.83-3.1-2.06-1.92,.77-2.19,1.39-3.32,.96Z"/><path class="k" d="M161.72,115.15s1.55,1.06,3.12,1.4c1.57,.34,6.43,2.65,6.43,2.65"/><path class="i" d="M171.18,117.67s-.43-.08-.95,.07c-.53,.16-1.83,.09-1.83,.09,0,0,.44,1,.17,.95-.26-.05-.16,.16-.16,.16"/><path class="i" d="M170.9,116.85s-1.77-.12-2.34,.22c-.57,.33-1.31,.34-1.31,.34,0,0,.19,.88-.03,1.11-.22,.23,.25,.42,.25,.42"/><path class="i" d="M165.96,116.95s2.3-1.31,3.27-1.11c.97,.21,1.22,.1,1.22,.1"/><path class="i" d="M165.85,117.02s.17,.67,.08,.81c-.09,.14,.39,.83,.39,.83l-.09,.17"/><path class="i" d="M169.65,115.08s-1.07-.03-1.57-.12c-.49-.09-1.73,.12-2.19,.5-.46,.39-1.35,1.01-1.35,1.01,0,0-.7,.7-.58,1.07,.12,.37-.27,.78-.27,.78"/></g></svg>