<?xml version="1.0" encoding="UTF-8"?><svg id="a" xmlns="http://www.w3.org/2000/svg" xmlns:xlink="http://www.w3.org/1999/xlink" viewBox="0 0 200 201"><defs><style>.d{fill:#a66;}.e{fill:#fff;}.f{opacity:.5;}.g{fill:#e5c9a8;}.h{clip-path:url(#b);}.i{fill:#d66969;}.j{clip-path:url(#c);}.k{fill:#a19687;}.l{fill:#935151;}.m{fill:none;}.n{fill:#f99191;}</style><clipPath id="b"><rect class="m" x="5.89" y="5.85" width="184.33" height="184.33" rx="26.14" ry="26.14"/></clipPath><clipPath id="c"><rect class="m" x="2.36" y="1.69" width="191.39" height="191.39"/></clipPath></defs><path class="f" d="M165.13,5.29H35.72c-17.35,0-31.47,14.12-31.47,31.47V166.17c0,19.03,15.48,34.51,34.51,34.51h126.37c19.03,0,34.51-15.48,34.51-34.51V39.8c0-19.03-15.48-34.51-34.51-34.51Zm28.93,160.88c0,15.98-12.95,28.93-28.93,28.93H38.75c-15.98,0-28.93-12.95-28.93-28.93V38.84c0-15.45,12.53-27.98,27.98-27.98h127.32c15.98,0,28.93,12.95,28.93,28.93v126.37Z"/><g class="h"><g class="j"><g><polygon class="k" points="425.89 213.39 -225.25 213.39 -28.38 78.15 229.02 78.15 425.89 213.39"/><path class="g" d="M8.46,85.63H-3.91c-.78,0-1.16-.23-.84-.51L0,80.92c.29-.25,1.12-.46,1.85-.46H13.53c.74,0,1.14,.2,.9,.46l-4.05,4.2c-.27,.28-1.12,.51-1.91,.51Z"/><path class="g" d="M24.5,85.63H12.13c-.78,0-1.2-.23-.93-.51l4.02-4.2c.24-.25,1.04-.46,1.78-.46h11.67c.74,0,1.18,.2,.98,.46l-3.32,4.2c-.22,.28-1.04,.51-1.82,.51Z"/><path class="g" d="M40.53,85.63h-12.37c-.78,0-1.24-.23-1.02-.51l3.28-4.2c.2-.25,.96-.46,1.7-.46h11.67c.74,0,1.21,.2,1.06,.46l-2.59,4.2c-.17,.28-.95,.51-1.73,.51Z"/><path class="g" d="M56.57,85.63h-12.37c-.78,0-1.28-.23-1.11-.51l2.55-4.2c.15-.25,.88-.46,1.62-.46h11.67c.74,0,1.25,.2,1.14,.46l-1.85,4.2c-.12,.28-.86,.51-1.64,.51Z"/><path class="g" d="M72.61,85.63h-12.37c-.78,0-1.32-.23-1.2-.51l1.81-4.2c.11-.25,.8-.46,1.54-.46h11.67c.74,0,1.28,.2,1.22,.46l-1.12,4.2c-.07,.28-.77,.51-1.55,.51Z"/><path class="g" d="M88.64,85.63h-12.37c-.78,0-1.36-.23-1.29-.51l1.08-4.2c.06-.25,.72-.46,1.46-.46h11.67c.74,0,1.32,.2,1.3,.46l-.38,4.2c-.03,.28-.68,.51-1.46,.51Z"/><path class="g" d="M104.68,85.63h-12.37c-.78,0-1.4-.23-1.38-.51l.34-4.2c.02-.25,.64-.46,1.38-.46h11.67c.74,0,1.36,.2,1.38,.46l.35,4.2c.02,.28-.59,.51-1.38,.51Z"/><path class="g" d="M120.72,85.63h-12.37c-.78,0-1.44-.23-1.46-.51l-.39-4.2c-.02-.25,.56-.46,1.3-.46h11.67c.74,0,1.39,.2,1.46,.46l1.09,4.2c.07,.28-.5,.51-1.29,.51Z"/><path class="g" d="M136.75,85.63h-12.37c-.78,0-1.48-.23-1.55-.51l-1.12-4.2c-.07-.25,.48-.46,1.22-.46h11.67c.74,0,1.43,.2,1.54,.46l1.82,4.2c.12,.28-.41,.51-1.2,.51Z"/><path class="g" d="M152.79,85.63h-12.37c-.78,0-1.52-.23-1.64-.51l-1.86-4.2c-.11-.25,.4-.46,1.14-.46h11.67c.74,0,1.46,.2,1.62,.46l2.55,4.2c.17,.28-.33,.51-1.11,.51Z"/><path class="g" d="M168.83,85.63h-12.37c-.78,0-1.56-.23-1.73-.51l-2.59-4.2c-.16-.25,.32-.46,1.06-.46h11.67c.74,0,1.5,.2,1.7,.46l3.29,4.2c.22,.28-.24,.51-1.02,.51Z"/><path class="g" d="M184.86,85.63h-12.37c-.78,0-1.6-.23-1.82-.51l-3.33-4.2c-.2-.25,.24-.46,.98-.46h11.67c.74,0,1.53,.2,1.78,.46l4.02,4.2c.27,.28-.15,.51-.93,.51Z"/><path class="g" d="M200.9,85.63h-12.37c-.78,0-1.64-.23-1.91-.51l-4.06-4.2c-.24-.25,.16-.46,.9-.46h11.67c.74,0,1.57,.2,1.86,.46l4.76,4.2c.32,.28-.06,.51-.84,.51Z"/><path class="g" d="M216.94,85.63h-12.37c-.78,0-1.68-.23-2-.51l-4.8-4.2c-.29-.25,.08-.46,.82-.46h11.67c.74,0,1.6,.2,1.94,.46l5.49,4.2c.37,.28,.03,.51-.75,.51Z"/><path class="g" d="M2.31,91.9H-10.9c-.84,0-1.22-.26-.86-.58l5.4-4.77c.32-.29,1.22-.52,2.01-.52H8.07c.79,0,1.2,.23,.92,.52l-4.61,4.77c-.31,.32-1.24,.58-2.07,.58Z"/><path class="g" d="M19.44,91.9H6.23c-.84,0-1.27-.26-.96-.58l4.57-4.77c.27-.29,1.13-.52,1.92-.52h12.42c.79,0,1.24,.23,1.01,.52l-3.78,4.77c-.25,.32-1.14,.58-1.97,.58Z"/><path class="g" d="M36.58,91.9h-13.21c-.84,0-1.31-.26-1.06-.58l3.73-4.77c.22-.29,1.04-.52,1.83-.52h12.42c.79,0,1.28,.23,1.11,.52l-2.94,4.77c-.2,.32-1.03,.58-1.87,.58Z"/><path class="g" d="M53.71,91.9h-13.21c-.84,0-1.36-.26-1.16-.58l2.9-4.77c.17-.29,.95-.52,1.74-.52h12.42c.79,0,1.32,.23,1.2,.52l-2.11,4.77c-.14,.32-.93,.58-1.77,.58Z"/><path class="g" d="M70.84,91.9h-13.21c-.84,0-1.4-.26-1.26-.58l2.06-4.77c.12-.29,.86-.52,1.65-.52h12.42c.79,0,1.36,.23,1.29,.52l-1.27,4.77c-.08,.32-.83,.58-1.67,.58Z"/><path class="g" d="M87.98,91.9h-13.21c-.84,0-1.45-.26-1.37-.58l1.23-4.77c.07-.29,.77-.52,1.56-.52h12.42c.79,0,1.4,.23,1.38,.52l-.44,4.77c-.03,.32-.73,.58-1.57,.58Z"/><path class="g" d="M105.11,91.9h-13.21c-.84,0-1.49-.26-1.47-.58l.39-4.77c.02-.29,.68-.52,1.47-.52h12.42c.79,0,1.44,.23,1.47,.52l.4,4.77c.03,.32-.63,.58-1.47,.58Z"/><path class="g" d="M122.24,91.9h-13.21c-.84,0-1.54-.26-1.57-.58l-.44-4.77c-.03-.29,.59-.52,1.38-.52h12.42c.79,0,1.48,.23,1.56,.52l1.23,4.77c.08,.32-.53,.58-1.37,.58Z"/><path class="g" d="M139.37,91.9h-13.21c-.84,0-1.58-.26-1.67-.58l-1.28-4.77c-.08-.29,.5-.52,1.29-.52h12.42c.79,0,1.52,.23,1.65,.52l2.07,4.77c.14,.32-.43,.58-1.26,.58Z"/><path class="g" d="M156.51,91.9h-13.21c-.84,0-1.63-.26-1.77-.58l-2.11-4.77c-.13-.29,.41-.52,1.19-.52h12.42c.79,0,1.56,.23,1.74,.52l2.9,4.77c.19,.32-.33,.58-1.16,.58Z"/><path class="g" d="M173.64,91.9h-13.21c-.84,0-1.68-.26-1.87-.58l-2.95-4.77c-.18-.29,.32-.52,1.1-.52h12.42c.79,0,1.6,.23,1.83,.52l3.74,4.77c.25,.32-.22,.58-1.06,.58Z"/><path class="g" d="M190.77,91.9h-13.21c-.84,0-1.72-.26-1.97-.58l-3.78-4.77c-.23-.29,.23-.52,1.01-.52h12.42c.79,0,1.65,.23,1.92,.52l4.57,4.77c.31,.32-.12,.58-.96,.58Z"/><path class="g" d="M207.9,91.9h-13.21c-.84,0-1.77-.26-2.07-.58l-4.62-4.77c-.28-.29,.14-.52,.92-.52h12.42c.79,0,1.69,.23,2.01,.52l5.41,4.77c.36,.32-.02,.58-.86,.58Z"/><path class="g" d="M-4.74,99.09h-14.18c-.9,0-1.29-.3-.87-.67l6.2-5.48c.37-.33,1.35-.59,2.19-.59H1.87c.84,0,1.27,.26,.95,.59l-5.29,5.48c-.35,.37-1.37,.67-2.27,.67Z"/><path class="g" d="M13.65,99.09H-.53c-.9,0-1.34-.3-.99-.67l5.24-5.48c.31-.33,1.25-.59,2.09-.59h13.27c.84,0,1.31,.26,1.05,.59l-4.33,5.48c-.29,.37-1.26,.67-2.15,.67Z"/><path class="g" d="M32.04,99.09h-14.18c-.9,0-1.39-.3-1.1-.67l4.28-5.48c.26-.33,1.14-.59,1.98-.59h13.27c.84,0,1.36,.26,1.16,.59l-3.37,5.48c-.23,.37-1.14,.67-2.04,.67Z"/><path class="g" d="M50.43,99.09h-14.18c-.9,0-1.44-.3-1.22-.67l3.32-5.48c.2-.33,1.04-.59,1.88-.59h13.27c.84,0,1.41,.26,1.26,.59l-2.41,5.48c-.16,.37-1.02,.67-1.92,.67Z"/><path class="g" d="M68.82,99.09h-14.18c-.9,0-1.5-.3-1.34-.67l2.36-5.48c.14-.33,.94-.59,1.78-.59h13.27c.84,0,1.45,.26,1.36,.59l-1.46,5.48c-.1,.37-.91,.67-1.8,.67Z"/><path class="g" d="M87.21,99.09h-14.18c-.9,0-1.55-.3-1.45-.67l1.41-5.48c.08-.33,.83-.59,1.67-.59h13.27c.84,0,1.5,.26,1.47,.59l-.5,5.48c-.03,.37-.79,.67-1.69,.67Z"/><path class="g" d="M105.6,99.09h-14.18c-.9,0-1.6-.3-1.57-.67l.45-5.48c.03-.33,.73-.59,1.57-.59h13.27c.84,0,1.54,.26,1.57,.59l.46,5.48c.03,.37-.67,.67-1.57,.67Z"/><path class="g" d="M123.99,99.09h-14.18c-.9,0-1.65-.3-1.69-.67l-.51-5.48c-.03-.33,.63-.59,1.47-.59h13.27c.84,0,1.59,.26,1.67,.59l1.42,5.48c.09,.37-.56,.67-1.45,.67Z"/><path class="g" d="M142.38,99.09h-14.18c-.9,0-1.71-.3-1.8-.67l-1.47-5.48c-.09-.33,.52-.59,1.36-.59h13.27c.84,0,1.64,.26,1.78,.59l2.37,5.48c.16,.37-.44,.67-1.34,.67Z"/><path class="g" d="M160.77,99.09h-14.18c-.9,0-1.76-.3-1.92-.67l-2.42-5.48c-.14-.33,.42-.59,1.26-.59h13.27c.84,0,1.68,.26,1.88,.59l3.33,5.48c.22,.37-.32,.67-1.22,.67Z"/><path class="g" d="M179.16,99.09h-14.18c-.9,0-1.81-.3-2.04-.67l-3.38-5.48c-.2-.33,.32-.59,1.16-.59h13.27c.84,0,1.73,.26,1.98,.59l4.29,5.48c.29,.37-.21,.67-1.1,.67Z"/><path class="g" d="M197.55,99.09h-14.18c-.9,0-1.86-.3-2.15-.67l-4.34-5.48c-.26-.33,.21-.59,1.05-.59h13.27c.84,0,1.77,.26,2.09,.59l5.25,5.48c.35,.37-.09,.67-.99,.67Z"/><path class="g" d="M215.94,99.09h-14.18c-.9,0-1.92-.3-2.27-.67l-5.3-5.48c-.32-.33,.11-.59,.95-.59h13.27c.84,0,1.82,.26,2.19,.59l6.2,5.48c.42,.37,.03,.67-.87,.67Z"/><path class="g" d="M6.94,107.41H-8.37c-.97,0-1.42-.35-1.01-.78l6.07-6.35c.36-.38,1.38-.68,2.29-.68H13.23c.9,0,1.39,.3,1.09,.68l-5.02,6.35c-.34,.43-1.4,.78-2.37,.78Z"/><path class="g" d="M26.79,107.41H11.48c-.97,0-1.48-.35-1.15-.78l4.96-6.35c.3-.38,1.26-.68,2.17-.68h14.25c.9,0,1.45,.3,1.21,.68l-3.91,6.35c-.26,.43-1.26,.78-2.23,.78Z"/><path class="g" d="M46.63,107.41h-15.31c-.97,0-1.54-.35-1.28-.78l3.85-6.35c.23-.38,1.15-.68,2.05-.68h14.25c.9,0,1.5,.3,1.33,.68l-2.8,6.35c-.19,.43-1.13,.78-2.1,.78Z"/><path class="g" d="M66.48,107.41h-15.31c-.97,0-1.6-.35-1.42-.78l2.74-6.35c.16-.38,1.03-.68,1.93-.68h14.25c.9,0,1.55,.3,1.45,.68l-1.69,6.35c-.11,.43-.99,.78-1.96,.78Z"/><path class="g" d="M86.32,107.41h-15.31c-.97,0-1.67-.35-1.56-.78l1.63-6.35c.1-.38,.91-.68,1.81-.68h14.25c.9,0,1.61,.3,1.57,.68l-.58,6.35c-.04,.43-.86,.78-1.83,.78Z"/><path class="g" d="M106.17,107.41h-15.31c-.97,0-1.73-.35-1.69-.78l.52-6.35c.03-.38,.79-.68,1.69-.68h14.25c.9,0,1.66,.3,1.69,.68l.53,6.35c.04,.43-.72,.78-1.69,.78Z"/><path class="g" d="M126.01,107.41h-15.31c-.97,0-1.79-.35-1.83-.78l-.59-6.35c-.04-.38,.67-.68,1.57-.68h14.25c.9,0,1.71,.3,1.81,.68l1.64,6.35c.11,.43-.58,.78-1.55,.78Z"/><path class="g" d="M145.86,107.41h-15.31c-.97,0-1.85-.35-1.96-.78l-1.7-6.35c-.1-.38,.55-.68,1.45-.68h14.25c.9,0,1.77,.3,1.93,.68l2.75,6.35c.19,.43-.45,.78-1.42,.78Z"/><path class="g" d="M165.7,107.41h-15.31c-.97,0-1.91-.35-2.1-.78l-2.81-6.35c-.17-.38,.43-.68,1.33-.68h14.25c.9,0,1.82,.3,2.05,.68l3.86,6.35c.26,.43-.31,.78-1.28,.78Z"/><path class="g" d="M185.55,107.41h-15.31c-.97,0-1.97-.35-2.23-.78l-3.92-6.35c-.23-.38,.31-.68,1.21-.68h14.25c.9,0,1.87,.3,2.17,.68l4.97,6.35c.33,.43-.18,.78-1.15,.78Z"/><path class="g" d="M205.39,107.41h-15.31c-.97,0-2.03-.35-2.37-.78l-5.03-6.35c-.3-.38,.19-.68,1.09-.68h14.25c.9,0,1.93,.3,2.29,.68l6.08,6.35c.41,.43-.04,.78-1.01,.78Z"/><path class="g" d="M-.92,117.17H-17.55c-1.05,0-1.51-.41-1.03-.91l7.11-7.44c.42-.44,1.55-.8,2.52-.8H6.45c.97,0,1.48,.35,1.14,.8l-5.88,7.44c-.4,.5-1.58,.91-2.63,.91Z"/><path class="g" d="M20.63,117.17H4c-1.05,0-1.58-.41-1.19-.91l5.81-7.44c.34-.44,1.41-.8,2.39-.8h15.39c.97,0,1.55,.35,1.27,.8l-4.58,7.44c-.31,.5-1.42,.91-2.47,.91Z"/><path class="g" d="M42.18,117.17H25.56c-1.05,0-1.66-.41-1.35-.91l4.51-7.44c.27-.44,1.27-.8,2.25-.8h15.39c.97,0,1.61,.35,1.41,.8l-3.28,7.44c-.22,.5-1.26,.91-2.31,.91Z"/><path class="g" d="M63.73,117.17h-16.62c-1.05,0-1.73-.41-1.51-.91l3.21-7.44c.19-.44,1.13-.8,2.11-.8h15.39c.97,0,1.67,.35,1.55,.8l-1.98,7.44c-.13,.5-1.1,.91-2.15,.91Z"/><path class="g" d="M85.28,117.17h-16.62c-1.05,0-1.8-.41-1.67-.91l1.91-7.44c.11-.44,.99-.8,1.97-.8h15.39c.97,0,1.73,.35,1.69,.8l-.68,7.44c-.05,.5-.94,.91-1.99,.91Z"/><path class="g" d="M106.83,117.17h-16.62c-1.05,0-1.87-.41-1.83-.91l.61-7.44c.04-.44,.86-.8,1.83-.8h15.39c.97,0,1.79,.35,1.83,.8l.62,7.44c.04,.5-.78,.91-1.83,.91Z"/><path class="g" d="M128.38,117.17h-16.62c-1.05,0-1.94-.41-1.99-.91l-.69-7.44c-.04-.44,.72-.8,1.69-.8h15.39c.97,0,1.86,.35,1.97,.8l1.92,7.44c.13,.5-.62,.91-1.67,.91Z"/><path class="g" d="M149.94,117.17h-16.62c-1.05,0-2.02-.41-2.15-.91l-1.99-7.44c-.12-.44,.58-.8,1.55-.8h15.39c.97,0,1.92,.35,2.11,.8l3.22,7.44c.22,.5-.46,.91-1.51,.91Z"/><path class="g" d="M171.49,117.17h-16.62c-1.05,0-2.09-.41-2.31-.91l-3.29-7.44c-.19-.44,.44-.8,1.41-.8h15.39c.97,0,1.98,.35,2.25,.8l4.53,7.44c.31,.5-.3,.91-1.35,.91Z"/><path class="g" d="M193.04,117.17h-16.62c-1.05,0-2.16-.41-2.47-.91l-4.59-7.44c-.27-.44,.3-.8,1.27-.8h15.39c.97,0,2.04,.35,2.39,.8l5.83,7.44c.39,.5-.14,.91-1.19,.91Z"/><path class="g" d="M214.59,117.17h-16.62c-1.05,0-2.23-.41-2.63-.91l-5.89-7.44c-.35-.44,.16-.8,1.13-.8h15.39c.97,0,2.1,.35,2.53,.8l7.13,7.44c.48,.5,.02,.91-1.03,.91Z"/><path class="g" d="M13.31,128.76H-4.88c-1.15,0-1.7-.49-1.23-1.09L.8,118.83c.41-.52,1.59-.94,2.65-.94H20.17c1.06,0,1.66,.42,1.34,.94l-5.44,8.84c-.37,.6-1.61,1.09-2.76,1.09Z"/><path class="g" d="M36.89,128.76H18.7c-1.15,0-1.79-.49-1.42-1.09l5.36-8.84c.32-.52,1.43-.94,2.49-.94h16.72c1.06,0,1.73,.42,1.5,.94l-3.9,8.84c-.27,.6-1.42,1.09-2.57,1.09Z"/><path class="g" d="M60.47,128.76h-18.19c-1.15,0-1.87-.49-1.61-1.09l3.82-8.84c.22-.52,1.26-.94,2.32-.94h16.72c1.06,0,1.81,.42,1.67,.94l-2.35,8.84c-.16,.6-1.22,1.09-2.38,1.09Z"/><path class="g" d="M84.04,128.76h-18.19c-1.15,0-1.96-.49-1.8-1.09l2.27-8.84c.13-.52,1.1-.94,2.16-.94h16.72c1.06,0,1.88,.42,1.83,.94l-.81,8.84c-.05,.6-1.03,1.09-2.18,1.09Z"/><path class="g" d="M107.62,128.76h-18.19c-1.15,0-2.04-.49-1.99-1.09l.73-8.84c.04-.52,.94-.94,1.99-.94h16.72c1.06,0,1.95,.42,2,.94l.74,8.84c.05,.6-.84,1.09-1.99,1.09Z"/><path class="g" d="M131.2,128.76h-18.19c-1.15,0-2.13-.49-2.19-1.09l-.82-8.84c-.05-.52,.77-.94,1.83-.94h16.72c1.06,0,2.02,.42,2.16,.94l2.29,8.84c.16,.6-.65,1.09-1.8,1.09Z"/><path class="g" d="M154.78,128.76h-18.19c-1.15,0-2.22-.49-2.38-1.09l-2.37-8.84c-.14-.52,.61-.94,1.67-.94h16.72c1.06,0,2.1,.42,2.32,.94l3.83,8.84c.26,.6-.46,1.09-1.61,1.09Z"/><path class="g" d="M178.36,128.76h-18.19c-1.15,0-2.3-.49-2.57-1.09l-3.91-8.84c-.23-.52,.44-.94,1.5-.94h16.72c1.06,0,2.17,.42,2.49,.94l5.38,8.84c.37,.6-.27,1.09-1.42,1.09Z"/><path class="g" d="M201.94,128.76h-18.19c-1.15,0-2.39-.49-2.76-1.09l-5.46-8.84c-.32-.52,.28-.94,1.34-.94h16.72c1.06,0,2.24,.42,2.65,.94l6.92,8.84c.47,.6-.08,1.09-1.23,1.09Z"/><path class="g" d="M225.52,128.76h-18.19c-1.15,0-2.47-.49-2.95-1.09l-7-8.84c-.41-.52,.11-.94,1.17-.94h16.72c1.06,0,2.32,.42,2.82,.94l8.47,8.84c.58,.6,.11,1.09-1.04,1.09Z"/><path class="g" d="M4.47,142.76H-15.6c-1.27,0-1.83-.6-1.26-1.33l8.35-10.68c.49-.62,1.82-1.13,2.98-1.13H12.77c1.16,0,1.79,.5,1.4,1.13l-6.58,10.68c-.45,.73-1.85,1.33-3.12,1.33Z"/><path class="g" d="M30.5,142.76H10.43c-1.27,0-1.94-.6-1.49-1.33l6.48-10.68c.38-.62,1.62-1.13,2.78-1.13h18.3c1.16,0,1.88,.5,1.6,1.13l-4.71,10.68c-.32,.73-1.62,1.33-2.89,1.33Z"/><path class="g" d="M56.53,142.76h-20.07c-1.27,0-2.04-.6-1.73-1.33l4.61-10.68c.27-.62,1.43-1.13,2.58-1.13h18.3c1.16,0,1.96,.5,1.8,1.13l-2.84,10.68c-.19,.73-1.38,1.33-2.66,1.33Z"/><path class="g" d="M82.55,142.76h-20.07c-1.27,0-2.15-.6-1.96-1.33l2.74-10.68c.16-.62,1.23-1.13,2.39-1.13h18.3c1.16,0,2.05,.5,2,1.13l-.97,10.68c-.07,.73-1.15,1.33-2.42,1.33Z"/><path class="g" d="M108.58,142.76h-20.07c-1.27,0-2.25-.6-2.19-1.33l.88-10.68c.05-.62,1.03-1.13,2.19-1.13h18.3c1.16,0,2.14,.5,2.19,1.13l.89,10.68c.06,.73-.92,1.33-2.19,1.33Z"/><path class="g" d="M134.61,142.76h-20.07c-1.27,0-2.36-.6-2.42-1.33l-.99-10.68c-.06-.62,.83-1.13,1.99-1.13h18.3c1.16,0,2.23,.5,2.39,1.13l2.76,10.68c.19,.73-.69,1.33-1.96,1.33Z"/><path class="g" d="M160.63,142.76h-20.07c-1.27,0-2.46-.6-2.66-1.33l-2.86-10.68c-.17-.62,.64-1.13,1.8-1.13h18.3c1.16,0,2.32,.5,2.59,1.13l4.63,10.68c.32,.73-.45,1.33-1.72,1.33Z"/><path class="g" d="M186.66,142.76h-20.07c-1.27,0-2.57-.6-2.89-1.33l-4.73-10.68c-.28-.62,.44-1.13,1.6-1.13h18.3c1.16,0,2.4,.5,2.78,1.13l6.5,10.68c.45,.73-.22,1.33-1.49,1.33Z"/><path class="g" d="M212.69,142.76h-20.07c-1.27,0-2.67-.6-3.12-1.33l-6.59-10.68c-.39-.62,.24-1.13,1.4-1.13h18.3c1.16,0,2.49,.5,2.98,1.13l8.37,10.68c.57,.73,.01,1.33-1.26,1.33Z"/><path class="g" d="M-6.41,160.01H-28.81c-1.42,0-1.98-.75-1.27-1.66l10.29-13.16c.6-.76,2.11-1.38,3.39-1.38H3.81c1.28,0,1.94,.61,1.47,1.38l-8.11,13.16c-.56,.91-2.17,1.66-3.59,1.66Z"/><path class="g" d="M22.63,160.01H.23c-1.42,0-2.12-.75-1.56-1.66l7.99-13.16c.46-.76,1.87-1.38,3.15-1.38H30.02c1.28,0,2.05,.61,1.71,1.38l-5.8,13.16c-.4,.91-1.88,1.66-3.3,1.66Z"/><path class="g" d="M51.67,160.01H29.27c-1.42,0-2.25-.75-1.85-1.66l5.68-13.16c.33-.76,1.63-1.38,2.91-1.38h20.21c1.28,0,2.15,.61,1.95,1.38l-3.5,13.16c-.24,.91-1.59,1.66-3.01,1.66Z"/><path class="g" d="M80.71,160.01h-22.4c-1.42,0-2.38-.75-2.14-1.66l3.38-13.16c.2-.76,1.39-1.38,2.67-1.38h20.21c1.28,0,2.26,.61,2.19,1.38l-1.2,13.16c-.08,.91-1.3,1.66-2.72,1.66Z"/><path class="g" d="M109.76,160.01h-22.4c-1.42,0-2.51-.75-2.43-1.66l1.08-13.16c.06-.76,1.15-1.38,2.43-1.38h20.21c1.28,0,2.37,.61,2.43,1.38l1.1,13.16c.08,.91-1.01,1.66-2.43,1.66Z"/><path class="g" d="M138.8,160.01h-22.4c-1.42,0-2.64-.75-2.72-1.66l-1.22-13.16c-.07-.76,.91-1.38,2.19-1.38h20.21c1.28,0,2.48,.61,2.67,1.38l3.4,13.16c.24,.91-.72,1.66-2.14,1.66Z"/><path class="g" d="M167.84,160.01h-22.4c-1.42,0-2.77-.75-3.01-1.66l-3.52-13.16c-.2-.76,.67-1.38,1.95-1.38h20.21c1.28,0,2.58,.61,2.91,1.38l5.71,13.16c.39,.91-.43,1.66-1.85,1.66Z"/><path class="g" d="M196.88,160.01h-22.4c-1.42,0-2.9-.75-3.3-1.66l-5.83-13.16c-.34-.76,.43-1.38,1.71-1.38h20.21c1.28,0,2.69,.61,3.15,1.38l8.01,13.16c.55,.91-.14,1.66-1.56,1.66Z"/><path class="g" d="M225.92,160.01h-22.4c-1.42,0-3.03-.75-3.59-1.66l-8.13-13.16c-.47-.76,.19-1.38,1.47-1.38h20.21c1.28,0,2.8,.61,3.39,1.38l10.31,13.16c.71,.91,.15,1.66-1.27,1.66Z"/><path class="g" d="M12.7,181.77H-12.64c-1.6,0-2.33-.95-1.62-2.12l10.09-16.62c.58-.95,2.2-1.72,3.63-1.72H22.03c1.43,0,2.25,.76,1.83,1.72l-7.33,16.62c-.51,1.16-2.23,2.12-3.84,2.12Z"/><path class="g" d="M45.55,181.77H20.21c-1.6,0-2.49-.95-1.99-2.12l7.18-16.62c.41-.95,1.9-1.72,3.33-1.72h22.57c1.43,0,2.38,.76,2.13,1.72l-4.42,16.62c-.31,1.16-1.86,2.12-3.47,2.12Z"/><path class="g" d="M78.39,181.77h-25.33c-1.6,0-2.66-.95-2.36-2.12l4.27-16.62c.24-.95,1.6-1.72,3.03-1.72h22.57c1.43,0,2.52,.76,2.43,1.72l-1.52,16.62c-.11,1.16-1.49,2.12-3.1,2.12Z"/><path class="g" d="M111.24,181.77h-25.33c-1.6,0-2.83-.95-2.73-2.12l1.36-16.62c.08-.95,1.3-1.72,2.73-1.72h22.57c1.43,0,2.65,.76,2.73,1.72l1.39,16.62c.1,1.16-1.12,2.12-2.73,2.12Z"/><path class="g" d="M144.09,181.77h-25.33c-1.6,0-2.99-.95-3.1-2.12l-1.54-16.62c-.09-.95,1-1.72,2.43-1.72h22.57c1.43,0,2.79,.76,3.03,1.72l4.3,16.62c.3,1.16-.75,2.12-2.36,2.12Z"/><path class="g" d="M176.93,181.77h-25.33c-1.6,0-3.16-.95-3.47-2.12l-4.45-16.62c-.26-.95,.7-1.72,2.13-1.72h22.57c1.43,0,2.92,.76,3.33,1.72l7.21,16.62c.5,1.16-.38,2.12-1.99,2.12Z"/><path class="g" d="M209.78,181.77h-25.33c-1.6,0-3.33-.95-3.84-2.12l-7.36-16.62c-.42-.95,.4-1.72,1.83-1.72h22.57c1.43,0,3.05,.76,3.63,1.72l10.11,16.62c.71,1.16-.01,2.12-1.62,2.12Z"/><path class="g" d="M-.23,210.09H-29.38c-1.85,0-2.58-1.26-1.64-2.8l13.14-21.65c.74-1.22,2.65-2.2,4.27-2.2H11.94c1.62,0,2.5,.98,1.96,2.2l-9.55,21.65c-.68,1.54-2.73,2.8-4.58,2.8Z"/><path class="g" d="M37.57,210.09H8.42c-1.85,0-2.8-1.26-2.13-2.8l9.35-21.65c.53-1.22,2.26-2.2,3.88-2.2h25.56c1.62,0,2.67,.98,2.34,2.2l-5.76,21.65c-.41,1.54-2.24,2.8-4.09,2.8Z"/><path class="g" d="M75.37,210.09h-29.15c-1.85,0-3.02-1.26-2.62-2.8l5.56-21.65c.31-1.22,1.88-2.2,3.5-2.2h25.56c1.62,0,2.84,.98,2.73,2.2l-1.97,21.65c-.14,1.54-1.75,2.8-3.6,2.8Z"/><path class="g" d="M113.17,210.09h-29.15c-1.85,0-3.24-1.26-3.11-2.8l1.78-21.65c.1-1.22,1.49-2.2,3.11-2.2h25.56c1.62,0,3.01,.98,3.11,2.2l1.81,21.65c.13,1.54-1.26,2.8-3.11,2.8Z"/><path class="g" d="M150.97,210.09h-29.15c-1.85,0-3.46-1.26-3.6-2.8l-2.01-21.65c-.11-1.22,1.11-2.2,2.73-2.2h25.56c1.62,0,3.18,.98,3.5,2.2l5.6,21.65c.4,1.54-.77,2.8-2.62,2.8Z"/><path class="g" d="M188.77,210.09h-29.15c-1.85,0-3.68-1.26-4.09-2.8l-5.79-21.65c-.33-1.22,.72-2.2,2.34-2.2h25.56c1.62,0,3.36,.98,3.89,2.2l9.38,21.65c.67,1.54-.28,2.8-2.13,2.8Z"/><path class="g" d="M226.57,210.09h-29.15c-1.85,0-3.9-1.26-4.58-2.8l-9.58-21.65c-.54-1.22,.34-2.2,1.95-2.2h25.56c1.62,0,3.53,.98,4.27,2.2l13.17,21.65c.93,1.54,.21,2.8-1.64,2.8Z"/><g><rect class="n" x="-48.04" y="-80.5" width="274.88" height="163.98"/><rect class="d" x="-48.04" y="77.61" width="274.88" height="8.77"/></g></g><polygon class="i" points="212.64 191.37 180.48 182.73 139.46 86.23 139.46 6.57 212.64 6.09 212.64 191.37"/></g><polygon class="l" points="139.9 77.58 188.64 179.85 185.4 194.07 139.9 86.31 139.42 77.59 139.9 77.58"/><polygon class="d" points="139.42 77.58 188.16 179.85 184.92 194.07 139.42 86.31 139.42 77.58"/></g><path class="e" d="M161.25,.33H31.84C14.48,.33,.37,14.44,.37,31.8V161.2c0,19.03,15.48,34.51,34.51,34.51h126.37c19.03,0,34.51-15.48,34.51-34.51V34.83C195.75,15.81,180.27,.33,161.25,.33Zm28.93,160.88c0,15.98-12.95,28.93-28.93,28.93H34.87c-15.98,0-28.93-12.95-28.93-28.93V33.88c0-15.45,12.53-27.98,27.98-27.98h127.32c15.98,0,28.93,12.95,28.93,28.93v126.37Z"/></svg>