<?xml version="1.0" encoding="UTF-8"?><svg id="a" xmlns="http://www.w3.org/2000/svg" viewBox="0 0 225.18 269.76"><defs><style>.b{fill:#fff;}.c{fill:#c86935;}.d{opacity:.5;}.e{fill:#7c7c7b;}.f{fill:#787878;}.g{fill:#72341e;}.h{fill:#0fd174;}.i{fill:#dc9d6f;}.j{fill:#aa5530;}.k{fill:#912a14;}.l{fill:#b1b1b1;}.m{fill:#d4855a;}.n{fill:#474745;}.o{fill:#655a84;}</style></defs><path class="d" d="M217.18,8h-5c-.41,0-.82,.05-1.22,.15l-68.62,17.24c-.09,0-.17-.03-.26-.03H13c-2.76,0-5,2.24-5,5V247.35c0,.32,.03,.63,.09,.94v2.94c0,2.76,2.24,5,5,5H142.08c.13,0,.26-.03,.39-.04l68.45,10.38c.43,.12,.89,.19,1.36,.19h4.9c2.76,0,5-2.29,5-5.05V13c0-2.76-2.24-5-5-5Z"/><path class="b" d="M212.18,3h-5c-.41,0-.82,.05-1.22,.15l-68.62,17.24c-.09,0-.17-.03-.26-.03H8c-2.76,0-5,2.24-5,5V242.35c0,.32,.03,.63,.09,.94v2.94c0,2.76,2.24,5,5,5H137.08c.13,0,.26-.03,.39-.04l68.45,10.38c.43,.12,.89,.19,1.36,.19h4.9c2.76,0,5-2.29,5-5.05V8c0-2.76-2.24-5-5-5Z"/><g><rect class="h" x="12.53" y="28.16" width="118.08" height="215.28"/><polygon class="g" points="10.24 27.6 10.24 242.18 17.25 242.36 19.13 242.18 19.13 34.68 124.17 34.68 124.17 242.18 126.57 242.35 134.27 242.18 134.27 27.6 10.24 27.6"/><g><g><polygon class="m" points="207.18 256.71 212.18 256.71 212.18 8 207.18 8 137.97 25.39 137.97 246.21 207.18 256.71"/><polyline class="i" points="212.18 256.76 207.28 256.76 207.28 8 212.18 8"/><polygon class="c" points="196.51 23.6 192.62 28.54 151.27 39.53 147.7 36.17 193.06 24.5 196.51 23.6"/><polygon class="i" points="196.51 23.6 196.36 157.6 192.59 153.8 192.59 28.49 196.51 23.6"/><polygon class="k" points="192.59 28.41 192.59 153.72 151.15 153.79 151.15 39.4 192.59 28.41"/><polygon class="c" points="196.28 169.65 192.62 173.37 151.28 172.54 147.25 168.68 150.55 168.65 196.28 169.65"/><polygon class="i" points="196.36 169.63 196.51 238.8 192.59 234.24 192.59 173.35 196.36 169.63"/><polygon class="i" points="196.51 238.8 193.06 238.17 147.62 230.99 151.27 227.72 192.62 234.24 196.51 238.8"/><polygon class="k" points="192.59 173.29 192.59 234.3 151.15 227.77 151.15 172.39 192.59 173.29"/><path class="m" d="M151.15,172.39v55.38l41.44,6.53v-61.01l-41.44-.9Zm0-133.07v114.4l41.44-.07V28.33l-41.44,10.99Z"/><g><path class="n" d="M204.56,154.72l-5.85,.21c-.26,0-.47-.2-.47-.47v-21.96c0-.13,.05-.25,.13-.34h0c.09-.09,.2-.15,.32-.15l5.85-.21c.26,0,.47,.2,.47,.47v21.96c0,.13-.05,.25-.13,.34h0c-.09,.09-.2,.15-.32,.15Z"/><path class="e" d="M199.09,155.11l5.84-.21c.26,0,.47-.24,.47-.51v-22.61c0-.27-.21-.48-.47-.47l-5.84,.21c-.26,0-.47,.24-.47,.51v22.61c0,.27,.21,.48,.47,.47Z"/><g><polygon class="f" points="203.7 145.23 199.75 145.37 199.75 140.74 199.95 140.53 203.89 140.39 203.89 145.01 203.7 145.23"/><polygon class="l" points="199.75 145.27 203.89 145.12 203.89 140.26 199.75 140.41 199.75 145.27"/><polygon class="n" points="202.39 143.86 202.39 144.26 187.32 144.81 187.32 144.41 187.32 141.89 187.32 141.49 202.39 140.94 202.39 141.34 202.39 143.86"/><polygon class="e" points="187.32 144.41 202.39 143.86 202.39 140.94 187.32 141.49 187.32 144.41"/></g><path class="n" d="M202.02,151.7c-.04,.18-.28,.19-.32,.01l-.44-1.84c0-.66,1.2-.7,1.2-.04l-.44,1.87Z"/></g><polygon class="i" points="196.18 157.36 150.55 157.76 147.7 157.67 151.33 153.72 192.72 153.65 196.18 157.36"/></g><polygon class="c" points="151.15 172.26 151.15 228.06 147.38 231.36 147.25 168.49 151.15 172.26"/><polygon class="c" points="151.6 39.27 151.6 153.95 147.83 157.76 147.83 36.31 151.6 39.27"/></g><polygon class="j" points="8 25.36 8 242.35 17.25 242.35 17.25 32.52 126.57 32.52 126.57 242.35 137.09 242.35 137.09 25.36 8 25.36"/><rect class="o" x="136.96" y="70.24" width=".9" height="17.02"/><rect class="o" x="136.96" y="181.73" width=".9" height="17.02"/><polygon class="g" points="17.25 242.35 126.57 242.35 124.17 242.18 19.13 242.18 17.25 242.35"/><rect class="j" x="8.09" y="242.36" width="129" height="3.87"/></g></svg>