<?xml version="1.0" encoding="UTF-8"?><svg id="a" xmlns="http://www.w3.org/2000/svg" viewBox="0 0 175.29 244.13"><defs><style>.b{fill:#cb7a35;}.c{fill:#9d6635;}.d{fill:#fbd780;}.e{fill:#aa6b2a;}.f{fill:#9d6532;}.g{fill:#f9f8f8;}.h{fill:#e5a66a;}.i{fill:#fff;}.j{fill:#a36f3e;}.k{fill:#4b2221;}.l{fill:#dfa063;}.m{fill:#21140a;}.n{fill:#9c642f;}.o{fill:#935e2b;}.p{fill:#f5ce7c;}.q{fill:#a87546;}.r{fill:#dd995b;}.s{fill:#e35a59;}.t{fill:#6a2f19;}.u{fill:#9d652e;}.v{fill:#791416;}.w{fill:#5d3632;}.x{fill:#a27044;}.y{opacity:.5;}.a`{fill:#2b1b10;}.aa{fill:#de8a4c;}.ab{fill:#50534e;}.ac{fill:#d99257;}.ad{fill:#ab7444;}.ae{fill:#526e3b;}.af{fill:#4c1312;}.ag{fill:#4e514d;}.ah{fill:#cb7935;}.ai{fill:#9c6735;}.aj{fill:#311313;}.ak{fill:#603730;}.al{fill:#bb7233;}.am{fill:#243a1a;}.an{fill:#da9657;}.ao{fill:#fbd680;}.ap{fill:#351515;}.aq{fill:#f5b576;}.ar{fill:#353432;}.as{fill:#cbc8c5;}.at{fill:#a87140;}.au{fill:#e9e2e2;}.av{fill:#9b6531;}.aw{fill:#f4b576;}.ax{fill:#301110;}.ay{fill:#9d6937;}.b`{fill:#e7a566;}.ba{fill:#b32726;}.bb{fill:#e8a768;}.bc{fill:#9b6430;}.bd{fill:#522926;}.be{fill:#6b3019;}.bf{fill:#a87241;}.bg{fill:#9b632f;}.bh{fill:#795823;}.bi{fill:#9f6a38;}.bj{fill:#f0b272;}.bk{fill:#3a1211;}.bl{fill:#e8e0e0;}.bm{fill:#d49457;}.bn{fill:#f2b274;}.bo{fill:#a37144;}.bp{fill:#491212;}.bq{fill:#725622;}.br{fill:#e8b262;}.bs{fill:#dc9b5e;}.bt{fill:#7c5a24;}.bu{fill:#663f18;}.bv{fill:#a87547;}.bw{fill:#9b6229;}.bx{fill:#9a6430;}.by{fill:#935c2a;}.c`{fill:#9e6732;}.ca{fill:#af7b4b;}.cb{fill:#9b6432;}.cc{fill:#9f6a39;}.cd{fill:#a6764b;}.ce{fill:#5d3530;}.cf{fill:#a2734a;}.cg{fill:#a26e3d;}.ch{fill:#5d322b;}.ci{fill:#f4b475;}.cj{fill:#6e431e;}.ck{fill:#381212;}.cl{fill:#506c39;}.cm{fill:#e8a263;}.cn{fill:#23160c;}.co{fill:#935d2b;}.cp{fill:#551412;}.cq{fill:#9a6634;}.cr{fill:#d89c65;}.cs{fill:#efaf71;}.ct{fill:#589241;}.cu{fill:#e1a46b;}.cv{fill:#323130;}.cw{fill:#a4764c;}.cx{fill:#935d2c;}.cy{fill:#4b2917;}.d`{fill:#926327;}.da{fill:#6d5948;}.db{fill:#a26d3e;}.dc{fill:#725522;}.dd{fill:#45652f;}.de{fill:#dd894c;}.df{fill:#925c2a;}.dg{fill:#653f17;}.dh{fill:#a06e3e;}.di{fill:#f5b577;}.dj{fill:#4b3624;}.dk{fill:#a37042;}.dl{fill:#a46a32;}.dm{fill:#9c6530;}.dn{fill:#cb7a36;}.do{fill:#5c332d;}.dp{fill:#ac7b4d;}.dq{fill:#caaf99;}.dr{fill:#5d1b14;}.ds{fill:#a46e36;}.dt{fill:#25170d;}.du{fill:#22150b;}.dv{fill:#ad7646;}.dw{fill:#dc9c5d;}.dx{fill:#20130a;}.dy{fill:#e7a162;}.e`{fill:#e89623;}.ea{fill:#a97445;}.eb{fill:#5d352f;}.ec{fill:#501412;}.ed{fill:#d18848;}.ee{fill:#f8a71a;}.ef{fill:#f7f2f3;}.eg{fill:#59493a;}.eh{fill:#a57143;}</style></defs><path class="y" d="M102.76,241.63c-1.24,0-4.31-.39-6.1-4.04-1.13-2.3-1.21-4.59-1.27-6.26-.23-6.43,1.05-12.77,3.91-19.45,1.48-3.45,3.03-6.91,4.62-10.31,.31-1.64,.86-3.06,1.36-4.34,.14-.35,.27-.7,.4-1.05,.73-1.99,1.49-3.97,2.25-5.95,1.04-2.7,2.11-5.49,3.06-8.24,.06-.16,.1-.29,.13-.39-.72-.65-1.42-1.32-2.11-1.99-1.14,4.47-3.4,8.2-6.81,11.28-4.94,4.47-10.84,7.55-18.03,9.42-2.04,.53-4.1,.8-6.13,.8-5.22,0-10.24-1.71-15.33-5.23-3.19-2.25-6.23-4.69-9.07-7.29-1.05-.94-2.1-1.37-3.37-1.37-.56,0-1.18,.08-1.85,.25-1.79,.41-3.42,1.02-4.96,1.84-2.86,1.61-3.5,3.44-3.72,4.85-.11,.72-.04,1.58,1.26,3.02,.19,.21,.49,.48,.81,.77,.08,.07,.15,.14,.23,.2l.56,.34c.68,.42,1.37,.84,2.06,1.24,1.55,.95,3.13,1.66,4.78,2.17,2.3,.65,4.51,1.77,6.47,3.29,.61,.47,2.51,1.94,2.79,4.56,.28,2.63-1.28,4.48-1.79,5.09-1.91,2.27-4.49,3.52-7.26,3.52-1.72,0-3.47-.47-5.2-1.4-2.08-1.16-3.94-2.53-5.6-4.13-1.59-1.41-3.1-2.95-4.47-4.57-2.26-2.46-5.38-6.3-6.72-11.57-1.34-5.25-.11-10.21,3.46-13.98,5.3-5.59,11.62-8.49,18.79-8.62h.3c4.64,0,8.34,2.02,10.72,3.55,1.74,1.11,3.3,2.33,4.81,3.51,.8,.63,1.6,1.25,2.43,1.85,.03,.02,.06,.04,.09,.06,1.54,1.17,3.22,2.14,5.01,2.87,1.4,.52,2.87,.78,4.36,.78,.93,0,1.86-.1,2.76-.31,.04,0,.07-.02,.1-.02,3.7-.75,7.26-2.33,10.31-4.57,4.55-3.36,6.12-7.86,4.64-13.37l-.05-.18c-.07-.24-.14-.48-.19-.72-.01-.05-.02-.1-.03-.14-.17-.82-.68-1.53-1.41-1.95-.05-.03-.09-.05-.14-.08-4.43-2.7-8.36-5.94-12.02-9.16-.46,.44-.89,.92-1.28,1.43-.04,.06-.09,.11-.13,.16-1.52,1.84-2.9,3.82-4.09,5.89-1.07,2.19-3.27,3.59-5.74,3.59-.37,0-.74-.03-1.1-.1-2.04-.26-4.09-.51-6.13-.76-3.23-.39-6.57-.8-9.86-1.25-4.71-.65-9.47-1.37-14.08-2.06-1.82-.27-3.64-.55-5.46-.82l-1.59,.15-3.14,.56c-.46,.1-.94,.16-1.41,.19,.29,.85,.41,1.86,.11,3.02-.66,2.59-2.82,3.54-3.98,4.05-.94,.41-1.91,.84-3.21,.84-3.69,0-5.01-3.11-5.5-4.28-.16-.38-.33-.74-.49-1.1-1.93-2.25-2.84-4.81-3.41-7.35-.63-.55-1.19-1.18-1.66-1.87-.54-.64-.85-1.29-1.04-1.75-.57-.82-.88-1.81-.88-2.84v-1.94c0-1.02,.31-1.99,.86-2.8,.17-.34,.36-.67,.58-.98,.03-.06,.07-.12,.11-.18,.08-1.46,.55-2.88,1.37-4.08,.03-.72,.14-1.43,.33-2.13,.97-3.23,3.42-5.68,6.57-6.63,.14-.04,.27-.08,.41-.1,.64-.13,1.3-.2,1.96-.2,.69,0,1.38,.07,2.05,.22,.13,.03,.26,.06,.39,.1,2.06-.94,4.27-1.52,6.52-1.72,.18-.05,.35-.1,.53-.14-1.91-2.39-2.98-5.46-2.99-8.95,0-2.2,.65-4.08,1.83-5.49-.34-.95-.6-1.96-.79-3.02-.12-.08-.24-.17-.35-.26-1.93-.33-3.49-1.76-3.99-3.66-.34-1.29-.35-2.48-.23-3.52-1.53-1.39-2.42-3.8-1.13-6.46,.34-.82,.69-1.61,1.06-2.37-.77-1.25-1.39-3.31,.02-6.05l.05-.09c1.47-3.2,3.77-5.93,6.67-7.9,4.67-3.28,10.17-5.54,15.86-6.5,2.97-.56,5.99-.86,8.87-.86,6.02,0,11.74,1.27,17,3.79,4.23,2.02,7.63,4.56,10.31,7.71,.15-2.79,.11-5.66,.06-8.62v-.13c-.08-5.52-.43-11.39-1.14-19.04-.14-1.53-.28-3.07-.43-4.6-1.93-.71-4.1-1.84-5.97-3.8-1.93-1.92-2.87-4.67-2.52-7.37,.08-.6,.21-1.17,.38-1.7-2.96-3.07-6.2-6.5-9.23-9.95-5.24-5.96-9.28-10.98-12.73-15.77-.43-.52-1.4-1.73-1.54-3.59-.17-2.31,1.26-4.44,3.47-5.14,.21-.07,.43-.12,.65-.16,.85-.16,1.75-.23,2.81-.23,.41,0,.82,.01,1.23,.02,.32,0,.63,.02,.95,.02,.39,0,.67-.02,.9-.05,.52-.07,1.03-.11,1.53-.11,4.61,0,7.06,3.19,7.86,4.24,4.51,5.76,9.46,11.35,14.67,16.57,.4,.41,.76,.79,1.12,1.17,1.56-1,3.37-1.52,5.33-1.52,.74,0,1.51,.08,2.29,.23,1.93,.37,3.39,1.25,4.39,2.62,1.77,.4,3.4,1.43,4.7,2.98,.65,.77,1.66,2.29,1.85,4.37,1.8,1.62,2.78,3.83,2.7,6.13-.05,1.39-.48,2.72-1.23,3.88,2.84,2.43,5.72,4.75,8.48,6.95,.72,.57,1.43,1.15,2.15,1.73,1.92,1.56,3.74,3.03,5.63,4.37,1.06,.75,2.11,1.51,3.16,2.27,2.02,1.47,3.94,2.85,5.92,4.16l.23,.15c1.47,.97,2.94,1.95,4.4,2.93l.04,.03c.42,.21,.84,.49,1.25,.86,.35,.18,.7,.41,1.06,.7l2.64,1.83c.67,.23,1.39,.62,2.08,1.28,2.59,1.55,4.74,2.88,6.72,4.16,2.1,1.35,4.36,2.64,6.55,3.88l.76,.43c3.79,2.16,8.79,4.94,13.95,7.37,2.78,1.07,4.52,3.83,4.25,6.81-.06,1.61-.05,3.24-.04,4.95,0,.74,0,1.49,0,2.23,0,1.97-1.08,3.73-2.83,4.58-.16,.08-.32,.15-.49,.21-.48,.17-.98,.28-1.49,.32-.12,0-.25,.01-.37,.01-.66,0-1.32-.13-1.93-.39-3.09-1.3-5.99-2.85-8.79-4.34l-1.58-.85c-20.24-10.73-39.45-23.56-57.13-38.13,.89,3.46,1.94,6.85,2.98,10.13,1.71,5.38,3.28,9.69,4.93,13.56,1.2,2.81,.94,5.46,.59,7.73-.23,1.55-1.18,2.9-2.56,3.65-1.03,2.27-2.96,3.17-4.6,3.27-1.98,3.67-2.83,7.13-2.65,10.67,.33,6.42,2.09,12.2,5.33,17.49,.12-2.71,.4-5.41,1.09-8.13,.39-1.79,1.19-3.49,2.33-4.93,.04-.06,.09-.11,.14-.17,1.8-2.11,3.8-2.55,5.16-2.55,1.2,0,3,.36,4.77,2.06,.05,.05,.1,.1,.15,.16,1.67,1.75,2.96,3.78,3.85,6.03,2.83,6.42,4.51,13.2,5.99,19.19,1.78-3.46,3.88-6.83,6.64-9.93,1.94-2.23,4.45-4.05,7.22-5.23,1.46-.6,2.86-.9,4.22-.9,4.44,0,7.74,3.08,8.39,7.84,.54,3.91,.8,9.65-2.91,14.86-.27,.5-.6,.97-.99,1.38-.87,1.33-1.82,2.63-2.82,3.86l-.73,.99-.67,.87-1.09,1.48-1.27,1.65c-.28,.49-.62,.95-1.02,1.36-.05,.06-.09,.11-.14,.16l-.08,.1-.03,.04c-.28,.5-.62,.96-1.01,1.37-.22,.37-.48,.71-.77,1.03-.17,.26-.37,.5-.57,.74-.26,.41-.57,.79-.92,1.13-.71,1.01-1.48,1.98-2.29,2.9-.32,.5-.7,.96-1.14,1.36-.34,.54-.74,1.04-1.18,1.49-.28,.39-.6,.75-.97,1.07-.78,.94-1.69,1.78-2.69,2.47l.32,.56c1.5,2.66,2,7.09-.04,10.08-.2,.3-.44,.57-.69,.81-.33,.69-.77,1.41-1.4,2.11-.53,.59-1.18,1.03-1.9,1.31l-.48,.91c-2.01,4.12-4.21,8.21-6.21,11.9-.09,.83-.24,1.59-.38,2.28-.14,.7-.27,1.36-.28,1.85-.16,7.34-1.52,14.6-4.05,21.54-.94,2.52-2,5.16-3.99,7.59-1.01,1.27-2.32,2.31-3.79,3-1.11,.49-2.14,.72-3.15,.72Zm-58.92-92.76c2.04,.39,4.13,.59,6.21,.59,2.88,0,5.72-.37,8.49-1.1-.38-.34-.71-.72-1-1.14-1.33-1.56-2.08-3.24-2.63-4.79-2.21-.44-4.41-1.15-6.47-2.41-1.99,.84-4.16,1.3-6.37,1.34-.15,0-.29,.01-.44,.01-2.06,0-3.91-.94-5.11-2.46-.07,.38-.17,.74-.31,1.1,.07,.09,.13,.19,.19,.27,.65,.7,1.14,1.52,1.45,2.42,1,1.7,1.27,3.42,1.46,4.64l.03,.21,3.28,1.09c.42,.03,.82,.11,1.22,.24Z"/><path class="i" d="M97.76,236.63c-1.24,0-4.31-.39-6.1-4.04-1.13-2.3-1.21-4.59-1.27-6.26-.23-6.43,1.05-12.77,3.91-19.45,1.48-3.45,3.03-6.91,4.62-10.31,.31-1.64,.86-3.06,1.36-4.34,.14-.35,.27-.7,.4-1.05,.73-1.99,1.49-3.97,2.25-5.95,1.04-2.7,2.11-5.49,3.06-8.24,.06-.16,.1-.29,.13-.39-.72-.65-1.42-1.32-2.11-1.99-1.14,4.47-3.4,8.2-6.81,11.28-4.94,4.47-10.84,7.55-18.03,9.42-2.04,.53-4.1,.8-6.13,.8-5.22,0-10.24-1.71-15.33-5.23-3.19-2.25-6.23-4.69-9.07-7.29-1.05-.94-2.1-1.37-3.37-1.37-.56,0-1.18,.08-1.85,.25-1.79,.41-3.42,1.02-4.96,1.84-2.86,1.61-3.5,3.44-3.72,4.85-.11,.72-.04,1.58,1.26,3.02,.19,.21,.49,.48,.81,.77,.08,.07,.15,.14,.23,.2l.56,.34c.68,.42,1.37,.84,2.06,1.24,1.55,.95,3.13,1.66,4.78,2.17,2.3,.65,4.51,1.77,6.47,3.29,.61,.47,2.51,1.94,2.79,4.56,.28,2.63-1.28,4.48-1.79,5.09-1.91,2.27-4.49,3.52-7.26,3.52-1.72,0-3.47-.47-5.2-1.4-2.08-1.16-3.94-2.53-5.6-4.13-1.59-1.41-3.1-2.95-4.47-4.57-2.26-2.46-5.38-6.3-6.72-11.57-1.34-5.25-.11-10.21,3.46-13.98,5.3-5.59,11.62-8.49,18.79-8.62h.3c4.64,0,8.34,2.02,10.72,3.55,1.74,1.11,3.3,2.33,4.81,3.51,.8,.63,1.6,1.25,2.43,1.85,.03,.02,.06,.04,.09,.06,1.54,1.17,3.22,2.14,5.01,2.87,1.4,.52,2.87,.78,4.36,.78,.93,0,1.86-.1,2.76-.31,.04,0,.07-.02,.1-.02,3.7-.75,7.26-2.33,10.31-4.57,4.55-3.36,6.12-7.86,4.64-13.37l-.05-.18c-.07-.24-.14-.48-.19-.72-.01-.05-.02-.1-.03-.14-.17-.82-.68-1.53-1.41-1.95-.05-.03-.09-.05-.14-.08-4.43-2.7-8.36-5.94-12.02-9.16-.46,.44-.89,.92-1.28,1.43-.04,.06-.09,.11-.13,.16-1.52,1.84-2.9,3.82-4.09,5.89-1.07,2.19-3.27,3.59-5.74,3.59-.37,0-.74-.03-1.1-.1-2.04-.26-4.09-.51-6.13-.76-3.23-.39-6.57-.8-9.86-1.25-4.71-.65-9.47-1.37-14.08-2.06-1.82-.27-3.64-.55-5.46-.82l-1.59,.15-3.14,.56c-.46,.1-.94,.16-1.41,.19,.29,.85,.41,1.86,.11,3.02-.66,2.59-2.82,3.54-3.98,4.05-.94,.41-1.91,.84-3.21,.84-3.69,0-5.01-3.11-5.5-4.28-.16-.38-.33-.74-.49-1.1-1.93-2.25-2.84-4.81-3.41-7.35-.63-.55-1.19-1.18-1.66-1.87-.54-.64-.85-1.29-1.04-1.75-.57-.82-.88-1.81-.88-2.84v-1.94c0-1.02,.31-1.99,.86-2.8,.17-.34,.36-.67,.58-.98,.03-.06,.07-.12,.11-.18,.08-1.46,.55-2.88,1.37-4.08,.03-.72,.14-1.43,.33-2.13,.97-3.23,3.42-5.68,6.57-6.63,.14-.04,.27-.08,.41-.1,.64-.13,1.3-.2,1.96-.2,.69,0,1.38,.07,2.05,.22,.13,.03,.26,.06,.39,.1,2.06-.94,4.27-1.52,6.52-1.72,.18-.05,.35-.1,.53-.14-1.91-2.39-2.98-5.46-2.99-8.95,0-2.2,.65-4.08,1.83-5.49-.34-.95-.6-1.96-.79-3.02-.12-.08-.24-.17-.35-.26-1.93-.33-3.49-1.76-3.99-3.66-.34-1.29-.35-2.48-.23-3.52-1.53-1.39-2.42-3.8-1.13-6.46,.34-.82,.69-1.61,1.06-2.37-.77-1.25-1.39-3.31,.02-6.05l.05-.09c1.47-3.2,3.77-5.93,6.67-7.9,4.67-3.28,10.17-5.54,15.86-6.5,2.97-.56,5.99-.86,8.87-.86,6.02,0,11.74,1.27,17,3.79,4.23,2.02,7.63,4.56,10.31,7.71,.15-2.79,.11-5.66,.06-8.62v-.13c-.08-5.52-.43-11.39-1.14-19.04-.14-1.53-.28-3.07-.43-4.6-1.93-.71-4.1-1.84-5.97-3.8-1.93-1.92-2.87-4.67-2.52-7.37,.08-.6,.21-1.17,.38-1.7-2.96-3.07-6.2-6.5-9.23-9.95-5.24-5.96-9.28-10.98-12.73-15.77-.43-.52-1.4-1.73-1.54-3.59-.17-2.31,1.26-4.44,3.47-5.14,.21-.07,.43-.12,.65-.16,.85-.16,1.75-.23,2.81-.23,.41,0,.82,.01,1.23,.02,.32,0,.63,.02,.95,.02,.39,0,.67-.02,.9-.05,.52-.07,1.03-.11,1.53-.11,4.61,0,7.06,3.19,7.86,4.24,4.51,5.76,9.46,11.35,14.67,16.57,.4,.41,.76,.79,1.12,1.17,1.56-1,3.37-1.52,5.33-1.52,.74,0,1.51,.08,2.29,.23,1.93,.37,3.39,1.25,4.39,2.62,1.77,.4,3.4,1.43,4.7,2.98,.65,.77,1.66,2.29,1.85,4.37,1.8,1.62,2.78,3.83,2.7,6.13-.05,1.39-.48,2.72-1.23,3.88,2.84,2.43,5.72,4.75,8.48,6.95,.72,.57,1.43,1.15,2.15,1.73,1.92,1.56,3.74,3.03,5.63,4.37,1.06,.75,2.11,1.51,3.16,2.27,2.02,1.47,3.94,2.85,5.92,4.16l.23,.15c1.47,.97,2.94,1.95,4.4,2.93l.04,.03c.42,.21,.84,.49,1.25,.86,.35,.18,.7,.41,1.06,.7l2.64,1.83c.67,.23,1.39,.62,2.08,1.28,2.59,1.55,4.74,2.88,6.72,4.16,2.1,1.35,4.36,2.64,6.55,3.88l.76,.43c3.79,2.16,8.79,4.94,13.95,7.37,2.78,1.07,4.52,3.83,4.25,6.81-.06,1.61-.05,3.24-.04,4.95,0,.74,0,1.49,0,2.23,0,1.97-1.08,3.73-2.83,4.58-.16,.08-.32,.15-.49,.21-.48,.17-.98,.28-1.49,.32-.12,0-.25,.01-.37,.01-.66,0-1.32-.13-1.93-.39-3.09-1.3-5.99-2.85-8.79-4.34l-1.58-.85c-20.24-10.73-39.45-23.56-57.13-38.13,.89,3.46,1.94,6.85,2.98,10.13,1.71,5.38,3.28,9.69,4.93,13.56,1.2,2.81,.94,5.46,.59,7.73-.23,1.55-1.18,2.9-2.56,3.65-1.03,2.27-2.96,3.17-4.6,3.27-1.98,3.67-2.83,7.13-2.65,10.67,.33,6.42,2.09,12.2,5.33,17.49,.12-2.71,.4-5.41,1.09-8.13,.39-1.79,1.19-3.49,2.33-4.93,.04-.06,.09-.11,.14-.17,1.8-2.11,3.8-2.55,5.16-2.55,1.2,0,3,.36,4.77,2.06,.05,.05,.1,.1,.15,.16,1.67,1.75,2.96,3.78,3.85,6.03,2.83,6.42,4.51,13.2,5.99,19.19,1.78-3.46,3.88-6.83,6.64-9.93,1.94-2.23,4.45-4.05,7.22-5.23,1.46-.6,2.86-.9,4.22-.9,4.44,0,7.74,3.08,8.39,7.84,.54,3.91,.8,9.65-2.91,14.86-.27,.5-.6,.97-.99,1.38-.87,1.33-1.82,2.63-2.82,3.86l-.73,.99-.67,.87-1.09,1.48-1.27,1.65c-.28,.49-.62,.95-1.02,1.36-.05,.06-.09,.11-.14,.16l-.08,.1-.03,.04c-.28,.5-.62,.96-1.01,1.37-.22,.37-.48,.71-.77,1.03-.17,.26-.37,.5-.57,.74-.26,.41-.57,.79-.92,1.13-.71,1.01-1.48,1.98-2.29,2.9-.32,.5-.7,.96-1.14,1.36-.34,.54-.74,1.04-1.18,1.49-.28,.39-.6,.75-.97,1.07-.78,.94-1.69,1.78-2.69,2.47l.32,.56c1.5,2.66,2,7.09-.04,10.08-.2,.3-.44,.57-.69,.81-.33,.69-.77,1.41-1.4,2.11-.53,.59-1.18,1.03-1.9,1.31l-.48,.91c-2.01,4.12-4.21,8.21-6.21,11.9-.09,.83-.24,1.59-.38,2.28-.14,.7-.27,1.36-.28,1.85-.16,7.34-1.52,14.6-4.05,21.54-.94,2.52-2,5.16-3.99,7.59-1.01,1.27-2.32,2.31-3.79,3-1.11,.49-2.14,.72-3.15,.72Zm-58.92-92.76c2.04,.39,4.13,.59,6.21,.59,2.88,0,5.72-.37,8.49-1.1-.38-.34-.71-.72-1-1.14-1.33-1.56-2.08-3.24-2.63-4.79-2.21-.44-4.41-1.15-6.47-2.41-1.99,.84-4.16,1.3-6.37,1.34-.15,0-.29,.01-.44,.01-2.06,0-3.91-.94-5.11-2.46-.07,.38-.17,.74-.31,1.1,.07,.09,.13,.19,.19,.27,.65,.7,1.14,1.52,1.45,2.42,1,1.7,1.27,3.42,1.46,4.64l.03,.21,3.28,1.09c.42,.03,.82,.11,1.22,.24Z"/><g><path class="cq" d="M7.68,144.98c.05-.39,.22-.75,.47-1.05,.21-.04,.28,.09,.33,.27-.38,1.28-.29,2.65,.23,3.88,0,.11,0,.22-.05,.32-.04,.09-.15,.12-.23,.08-.01,0-.03-.02-.04-.03-.5-.38-.38-1.13-.89-1.51v-.22c.27-.56-.03-1.18,.18-1.75Z"/><path class="dq" d="M7.68,144.98c-.05,.58,.23,1.2-.18,1.75v-1.72c.06-.02,.12-.03,.18-.03Z"/><path class="cy" d="M115.02,156.2l-.08-.43c-.03-1.03-.52-1.92-.85-2.86-1.52-4.31-2.97-8.65-4.59-12.92-.05-.12-.05-.28-.25-.34-.67,4.42-2.04,8.65-3.52,12.84-.25,.51-.12,1.13,.3,1.5,2.52,2.75,4.54,5.88,6.54,9.01,2.52,3.95,4.61,8.15,7.03,12.16,.38,.58,.55,1.26,.5,1.94-.04,.35,0,.8-.61,.53-.35-.15-.23,.14-.22,.27,0,.21,0,.43-.03,.64-.05,.57-.16,1.01-.78,.37-.17-.13-.36-.23-.56-.31-.33-.49-.1-.98,.02-1.45,.34-1.26,.15-2.6-.54-3.71-3.56-6.19-7.72-12-11.7-17.92-.25-.38-.48-.98-1.16-.52-.72,.49-.34,.94,0,1.44,4.13,5.82,7.83,11.94,11.06,18.3,.59,1.04,.72,2.27,.36,3.41-1.77,5.46-3.9,10.79-6.37,15.96-.04,.09-.07,.21-.18,.25,.51-.37,.35-1.35,1.25-1.38,.24,.33,.07,.64-.1,.9-.9,1.39-1.47,2.95-2.33,4.35-.35,.39-.48,.91-.81,1.31-.14,.07-.3,.07-.44,0-.46-.54-.61-.17-.76,.25-.1,.29-.06,.73-.46,.76-.38-.01-.69-.29-.75-.66-.17-.8-1.18-.93-1.31-1.73h.04c1.22-3.54,2.53-7.05,3.89-10.54,1.33-3.43,2.7-6.85,3.7-10.4,.14-.52,.17-1.05,.35-1.56,.13-.46-.04-.96-.44-1.23-2.34-2.17-4.39-4.63-6.66-6.88-1.78-1.77-3.6-3.5-5.26-5.38-1.94-2.16-4.22-3.99-6.74-5.43-3.68-2.15-6.98-4.85-10.26-7.56-1.54-1.28-3.11-2.52-4.54-3.92-.43-.41-1.08-.48-1.58-.16-.79,.34-1.52,.81-2.16,1.38-2.96,2.66-5.23,5.86-7.27,9.25-.84,1.4-.92,1.38-2.59,1.18-2.05-.25-4.1-.47-6.15-.72-2.58-.32-5.15-.66-7.73-1.02-2.22-.31-4.44-.63-6.66-.91-2.19-.27-4.36-.64-6.55-.94-2.6-.36-5.19-.82-7.8-1.16-.44-.27-.56-.78-.87-1.15-.06-.09-.11-.18-.16-.28-.72-1.44-.65-1.59,.94-1.73,.13,0,.26-.06,.35-.15,0-.41-.37-.69-.55-1.05-.19-.39-.68-.76-.3-1.23,.36-.45,.87-.17,1.3-.06,.75,.21,1.5,.46,2.22,.74,.73,.35,1.49,.63,2.27,.85,2.55,1.46,5.36,2.24,8.17,2.93,3.45,.86,6.99,1.27,10.54,1.23,7.21-.1,12.33-5.17,12.35-12.39,0-.32,0-.65-.03-.99-.61,1.9-1.52,3.69-2.69,5.31-.78,1.08-1.71,2.03-2.77,2.83-.3,.23-.6,.54-1.06,.39-.29-.67,.35-.86,.65-1.18,2.33-2.47,4.35-5.14,5.18-8.51,.42-1.72,.51-3.52,1.04-5.23,.24-.67,.41-1.37,.52-2.07,.2-.3,.48-.54,.82-.67,3.85-2.13,7.06-5.25,9.28-9.05,1.68-2.9,2.58-6.19,2.63-9.54,0-.18,.01-.36,0-.54-.18-1.92,.27-3.84,1.28-5.49,2.12-3.45,2.33-7.23,.95-11.07-.22-.57-.49-1.11-.81-1.63-.18-.31-.54-.63-.17-1.05,.86-2.79,1.05-5.68,1.18-8.56,.11-2.43,.18-4.87,.14-7.31-.08-4.62-.27-9.23-.57-13.84-.23-3.45-.59-6.9-.86-10.35-.12-1.53-.45-3.04-.39-4.58,.12-.35,.49-.53,.84-.42h.02c.68,.21,1.23-.1,1.82-.31,.75-.1,1.17,.44,1.61,.89,.58,.47,1.08,1.03,1.48,1.67,.19,5.56,1.52,10.92,2.94,16.26,1.81,6.66,3.96,13.21,6.43,19.65,.35,.94,.74,1.86,1.16,2.77,.41,.96,.58,2,.47,3.04-.03,.47-.18,.82-.73,.48-.58-.36-.64-.03-.7,.44-.08,.65,.08,1.39-.57,1.85-.11-.03-.22-.09-.29-.19-.65-.87-.91-.88-1.56,.02-.5,.69-1.04,1.36-1.49,2.1-.16,.27-.32,.6-.74,.39-.12-.35-.04-.73,.19-1.01,.77-1.46,1.74-2.81,2.89-4,.8-.75,1.13-1.87,.88-2.94-.37-1.76-.96-3.46-1.77-5.06-2.63-5.89-4.25-12.1-5.65-18.38-.83-3.71-1.47-7.46-2.19-11.21-.29,1.37-.35,2.77-.17,4.16,.63,6.18,1.72,12.29,2.63,18.42,.5,3.34,.93,6.69,.73,10.07-.22,3.79-.48,7.58-.95,11.35-.35,2.73-.44,5.49-1.14,8.16,.03,.15,.21,.02,.07,.05-.05,0-.06-.02-.06-.09,.23-1.38,.67-2.71,1.3-3.96,.67-1.43,1.39-2.83,2.11-4.24,.2-.4,.36-.89,.96-.89,.31,.47-.04,.8-.23,1.17-1.83,3.52-3.05,7.32-3.61,11.24-.27,1.8,0,3.64,.22,5.45,.49,3.89,1.49,7.7,2.97,11.33,.29,.71,.86,1.33,.76,2.18-.68,.37-.78-.3-.96-.62-1.87-3.14-3.39-6.47-4.55-9.94-.36-1.06-.58-2.17-.63-3.3,.09,5.47,1.63,10.44,5.08,14.75,.83,1.03,1.69,2.03,2.62,2.98,.27,.34,.64,.58,1.06,.68,1.08,1.2,1.86,2.62,2.86,3.88,1.47,1.76,3.04,3.43,4.71,5.01,.37,.37,.57,.3,.73-.2,.19-.84,.3-1.69,.33-2.55,.47-3.58,.49-7.2,.7-10.81,.09-2.46,.53-4.9,1.33-7.24,.05-.14,.12-.26,.18-.39,.98-2.08,2.04-2.28,3.57-.6,1.35,1.48,2.11,3.31,2.84,5.14,1.79,4.59,3.27,9.31,4.41,14.1,.15,.33,.15,.7,0,1.03-.74,.1-.65-.54-.75-.91-.57-2.07-1.14-4.15-1.79-6.2-1.22-3.83-2.52-7.62-4.51-11.14-.33-.6-.72-1.16-1.18-1.66-.25-.27-.51-.56-.92-.37-.54,.24-.9,.76-.94,1.35-.06,.38,.19,.73,.56,.8,1.23,.32,1.85,1.26,2.38,2.31,1.69,3.32,2.57,6.91,3.58,10.46,1.54,5.41,2.87,10.89,5.01,16.11,.27,.67,.57,1.31,.92,1.94,.27,.48,.11-.22,.28-.13,.44-.16,.43,.19,.5,.44,.08,.52,.26,1.02,.53,1.47,.23,.62-.15,1.1-.38,1.62-.07,.17-.29,.38-.4,.31-.83-.54-.68,.22-.81,.59-.29,.82-.47,.89-1.22,.41-.2-.15-.42-.27-.66-.36Z"/><path class="am" d="M85.44,48.5c-1.01-.7-1.64-1.84-2.77-2.39-1.57-3.99-4.7-6.39-8.39-8.22-.2-.07-.38-.21-.5-.39-4.24-4.36-8.48-8.72-12.49-13.29-4.37-4.98-8.6-10.06-12.47-15.45-.22-.31-.54-.57-.57-.99,1.6-.21,3.21-.05,4.81-.09,.47-.01,.68,.34,.89,.68,1.32,2.04,2.87,3.94,4.6,5.65,4.02,4.14,8.34,7.95,12.7,11.73,2.6,2.25,5.02,4.7,7.24,7.32,.18,.59-.1,1.13-.17,1.69-.04,.35-.12,.7-.14,1.06-.13,1.99,.5,3.12,2.65,1.71,.28-.18,.63-.46,.97-.15,.27,.25,.12,.61,.04,.92-.18,.73-.51,1.52,.18,2.1,.67,.57,1.42,.11,2.14-.07,.53-.13,1.14-.72,1.59-.25,.45,.47-.26,.94-.44,1.4-.46,1.14-.1,1.72,1.14,1.76,.94,.04,1.81-.47,2.76-.31,1.96,1.45,3.7,3.16,5.55,4.74,4.96,4.23,10.02,8.36,15.16,12.38,10.04,7.83,20.34,15.31,30.9,22.42,6.69,4.51,13.45,8.92,20.37,13.06,1.04,.62,1.64,1.26,1.44,2.52-.12,.77,.08,1.57-.1,2.35-3.43-1.44-6.68-3.25-9.96-4.99-20.45-10.85-39.73-23.78-57.53-38.6-2.92-2.43-5.76-4.96-8.65-7.42-.11-.09-.33-.81-.59-.06-.56-.08-.05-.64-.38-.83Z"/><path class="b" d="M131.76,154.81s0,.07-.02,.09c0,0-.02,0-.03,0-.2,.22-.59,.29-.54,.7,0,.07-.05,.12-.11,.16-.25,.2-.53,.38-.59,.74l-.2,.14c-.31,.29-.54,.65-.69,1.05h0c-.26,.22-.55,.39-.6,.76,.01,.05-.01,.1-.06,.12-.27,.16-.48,.42-.58,.72-.81,1.19-1.69,2.31-2.65,3.38-.27,.17-.47,.41-.58,.71l-.51,.59c-.46,.31-.82,.75-1.04,1.27v.02c-.25,.19-.48,.39-.7,.6-.89,.92-1.75,1.87-2.95,2.43-1.17,.54-1.57,.42-2.08-.74-.24-.52-.37-1.08-.4-1.65,.69-1.54,1.13-3.17,1.66-4.76,2.05-6.26,4.51-12.38,7.36-18.33,1.7-3.51,3.58-6.95,6.23-9.87,.95-1.04,1.94-2.11,3.51-2.23,.36,.41-.04,.66-.23,.91-2.58,3.47-4.89,7.13-6.91,10.95-.26,.45-.48,.93-.64,1.42,.23-.68,.56-1.31,1-1.87,.3-.3,.54-.65,.72-1.04,.28-.39,.54-.79,.78-1.21,1.63-2.62,3.31-5.19,4.97-7.79,.19-.24,.35-.51,.47-.79,.18-.41,.37-.82,.87-.93,.79-.17,1.62-.08,2.36,.26,.46,.51-.03,.85-.25,1.21-2.61,4.25-5.01,8.63-7.18,13.12-.14,.29-.25,.59-.37,.89,.57-1.39,1.23-2.75,1.96-4.07,.38-.36,.67-.79,.85-1.28,.22-.31,.23-.72,.47-1.01,.29-.24,.45-.6,.44-.98,.09-.37,.29-.71,.58-.96,.33-.24,.57-.6,.67-1,.84-2.02,1.98-3.9,3.37-5.59,.85,.54,1.45,1.41,1.63,2.4,.04,.13-.07,.39,.24,.21,.39,.89,.3,1.91-.24,2.72-2.36,3.71-4.87,7.31-7.37,10.92,2.19-3.12,4.34-6.26,6.45-9.44,.2-.31,.28-.89,.9-.66,.18,.33,.26,.71,.24,1.08-.25,2.06-1,4.02-2.17,5.73-.16,.27-.46,.45-.5,.8-.87,1.39-1.84,2.72-2.88,3.98-.28,.25-.62,.46-.74,.85-.22,.29-.55,.51-.66,.88-.23,.28-.54,.5-.65,.87-.22,.29-.55,.49-.65,.87-.34,.32-.63,.68-.86,1.09-.3,.19-.33,.54-.5,.81h0c-.26,.21-.56,.4-.61,.77Z"/><path class="cy" d="M74.05,87.9l.22,.25c-.03,.4-.36,.42-.62,.45-5.96,.61-7.53,6.02-6.95,10.35,.07,.53,.13,1.07,.21,1.6,.04,.25,.05,.54-.2,.68-.34,.19-.54-.12-.7-.33-.83-1.08-1.67-2.16-2.57-3.17-2.52-2.83-5.29-5.37-8.76-7.01-2.73-1.29-5.53-1.8-8.41-.47-2.04,.87-3.6,2.6-4.26,4.72-1.03,3.17-.64,6.3,0,9.46,.12,.58,.63,1.4,.12,1.7-.63,.37-1.06-.52-1.49-.95-.98-1-2.09-1.86-3.3-2.57-4.17-2.37-6.75-.72-8.48,3.27-.23,.61-.37,1.24-.44,1.88-.01,.47-.17,.92-.45,1.3-.28,.03-.37-.15-.43-.38-.58-2.61-.63-5.3-.14-7.93-.29,.49-.83,.99-1.18,1.62-.12,.22-.3,.49-.57,.37-.31-.13-.3-.48-.25-.76,.2-.99,.56-1.93,1.08-2.79,.72-1.45,1.77-2.71,3.06-3.69,.29-.2,.55-.48,.96-.33,.25,.48-.15,.74-.4,.99-.91,.89-1.74,1.85-2.5,2.86,.15-.07,.25-.31,.46-.42,.28-.15,.58-.37,.89-.15,.28,.2,.16,.53,.11,.8-.16,.69-.19,1.4-.1,2.1,1.35-1.12,3.02-1.77,4.76-1.87,1.75-.11,3.51,.11,5.18,.64-.06-1.04-.01-2.08,.14-3.12,1.63-8.45,9.72-11.05,16.1-8.4,2.2,.98,4.23,2.31,6,3.94,1.61,1.4,1.7,1.35,2.42-.57,.93-2.51,2.88-4.09,5.12-5.3,1.86-1.01,1.27-1.1,.09-1.98-4.74-3.54-10.34-5.75-16.23-6.4-8.81-1.04-16.84,1.31-24.36,5.76-.25,.15-.5,.28-.75,.41,4.34-2.19,8.86-3.59,13.79-3.29,.75,.05,1.5,.18,2.22,.39,.36,.11,.9,.21,.84,.68-.06,.42-.59,.46-.97,.52-.5,.08-1,.03-1.5,.11-6.47,1.06-12.39,4.25-16.84,9.06-.24,.25-.42,.61-.87,.48-.31-.51,.13-.83,.35-1.14,3.09-4.39,7.17-7.33,12.45-8.53,1.32-.3,2.67-.52,4.02-.65-3.4,.29-6.72,1.21-9.79,2.71-2.62,1.24-5.13,2.7-7.49,4.39-.34,.25-.75,.79-1.21,.42-.47-.37-.03-.87,.15-1.26,1.05-2.17,2.64-4.03,4.62-5.4,3.94-2.89,8.44-4.48,13.13-5.58,4.01-.9,8.15-1.13,12.24-.69,4.03,.34,7.95,1.43,11.58,3.21,3.68,1.78,6.91,4.4,9.42,7.63,.14,.18,.24,.35,.48,.37Z"/><path class="ct" d="M162.55,100.41c-.02-1.22,.31-2.61-.17-3.6-.48-1-1.94-1.36-2.97-2-15.59-9.61-30.66-19.98-45.22-31.11-5.78-4.4-11.45-8.95-17-13.65-2.67-2.27-5.39-4.49-7.92-6.93,.2-.62,.61-.67,1.13-.44,4.32,3.98,8.87,7.69,13.46,11.35,2.65,2.11,5.24,4.32,8.01,6.27,3.07,2.17,6.07,4.44,9.21,6.52,1.53,1.01,3.07,2.03,4.59,3.06,.1,.07,.15,.22,.22,.33,.26,.18,.53,.33,.82,.46l.48,.41c.25,.04,.36,.41,.68,.28l3.63,2.53c.26,.17,.53,.32,.81,.45,2.43,1.45,4.86,2.93,7.23,4.46,2.46,1.59,5.02,3.02,7.54,4.46,4.75,2.7,9.56,5.33,14.52,7.65,.78,.24,1.28,1.02,1.17,1.83-.1,2.51-.04,5.02-.04,7.53,0,.03,0,.09-.03,.1-.05,.02-.1,.03-.16,.03Z"/><path class="df" d="M27.96,109.03c.13-1.97,.78-3.86,1.87-5.5,1.87-2.67,4.65-2.81,7.29-1.38,.95,.5,1.84,1.11,2.65,1.83,.76,.7,1.42,1.5,2.23,2.18-.54-2.69-1.08-5.32-.88-8.01,.17-2.24,.62-4.43,2.24-6.13,2.51-2.63,5.56-3.35,9.04-2.43,3.28,.87,5.94,2.8,8.4,5.03,2.13,2,4.1,4.16,5.9,6.47-.1-.74-.23-1.47-.29-2.22-.29-3.22,.12-6.24,2.61-8.61,1.24-1.11,2.81-1.78,4.46-1.91,.28-.03,.58,.07,.8-.2,.86,.33,1.8,.34,2.66,.7,1.32,.55,2.28,1.55,3.3,2.48,.08,.03,.13,.12,.1,.2,0,.01,0,.02-.02,.03,3.25,4.59,2.68,10.76-.4,15.08-.35,.45-.52,1.01-.49,1.57,.1,3.01-.02,5.98-.99,8.89-1.95,5.84-5.93,9.91-11.11,12.96-.27,.16-.55,.32-.82,.49-.06,.21-.18,.33-.41,.24-1.62,.66-3.27,1.23-4.94,1.72-.42-.2-.63-.48-.41-.95,2.48-.57,4.86-1.55,7.01-2.91,5.36-3.59,9.25-8.24,10.38-14.79,.3-1.75,.61-3.54,.22-5.34-.16-.93,.1-1.89,.72-2.62,2.79-4.02,3.34-8.25,1.07-12.68-.69-1.4-1.82-2.54-3.21-3.23-4.31-2.1-9.2,.95-9.46,5.89-.16,2.19,.06,4.39,.63,6.51,.08,.24,.13,.49,.13,.74,.04,.33-.16,.65-.47,.77-.33,.12-.55-.1-.72-.34-.53-.72-1.03-1.47-1.57-2.19-2.87-3.82-6.09-7.26-10.3-9.63-2.49-1.4-5.15-2.03-7.96-1.07-2.43,.76-4.24,2.79-4.71,5.3-.78,3.5-.15,6.91,.78,10.29,.03,.1,.07,.2,.1,.31,.11,.53,.6,1.18-.05,1.57-.71,.42-1.04-.35-1.45-.76-.48-.7-1.07-1.32-1.76-1.83-.51-.34-.88-.84-1.39-1.19-1.08-.9-2.32-1.57-3.65-1.99-1.28-.45-2.71-.1-3.65,.89-2.43,2.41-3,5.92-1.5,9.45,.36,.86,.8,1.68,1.24,2.5,.18,.36,.4,.7,.65,1.02,.26,.32,.49,.66,.76,.97,.89,1.12,1.84,2.2,2.84,3.22,.31,.32,.63,.64,.54,1.11-.19,.99-.05,2.02-.23,3-.29,1.56,.07,3.07,.27,4.59,.01,.67,.57,1.2,1.23,1.18,.09,0,.18-.01,.26-.03,3.14-.28,5.92-1.13,7.28-4.4,.62-1.41,1.36-2.77,2.2-4.07,1.77-2.85,4.54-3.89,7.71-4.25,1.46-.17,2.93-.24,4.39-.43,2.72-.35,4.54-1.97,6.12-4.01,.34-.44,.35-.76-.19-1.02-.2-.09-.38-.21-.53-.36-.21-.2-.45-.39-.24-.73,.14-.26,.45-.39,.74-.31,.18,.03,.35,.09,.51,.17,.91,.52,1.91,.84,2.95,.92,.46,.02,.86,.27,.8,.81-.05,.36-.38,.61-.74,.56-.06,0-.11-.02-.17-.05-1.29-.38-1.92,.43-2.54,1.3-.05,.09-.12,.18-.2,.25-2.01,1.47-2.77,3.6-3.25,5.92-.26,1.13-.76,2.18-1.46,3.1-.21,.28-.34,.77-.88,.57-.21-.36-.25-.78-.12-1.17,.52-1.28,1.3-2.45,1.58-3.83,.14-.45,.19-.92,.16-1.4-1.56,.72-3.16,.69-4.73,.91-1.32,.16-2.64,.27-3.94,.48-2.21,.31-4.12,1.7-5.11,3.7-.49,.92-.94,1.85-1.38,2.8-.21,.41-.41,.83-.65,1.22-.41,.66-.16,.91,.53,.9,2.02-.04,4.06,.16,6.07-.26,.47-.19,1-.16,1.45,.08,.2,.33,.06,.59-.17,.82-1.07,.57-2.23,.59-3.39,.61-1.5-.05-3,0-4.67-.03,.81,.69,1.75,1.22,2.76,1.56,1.33,.54,2.72,.9,4.14,1.09,.43,0,.86,.13,1.2,.4,.19,.24,.35,.49,.1,.79-3.48-.4-6.87-1.07-9.54-3.61-.42-.4-.63-.07-.9,.1-1.95,1.23-4.2,1.89-6.5,1.91-.81,.1-1.56-.46-1.68-1.27-.26-.93-.42-1.89-.47-2.86-.02-.55-.21-.69-.74-.78-4.88-.81-7.73-4.17-7.73-9.05,0-2.12,.98-3.16,3.16-3.26-.3-.94-.69-1.84-1.15-2.71,.05-.35-.02-.71-.2-1.02-.11-.46-.46-.9-.04-1.38Z"/><path class="dx" d="M29.22,152.09c1.08-.25,2.12,.12,3.15,.28,5.42,.82,10.84,1.67,16.28,2.35,4.8,.6,9.6,1.28,14.4,1.89,.64,.03,1.28,.1,1.91,.22,.68,.18,1.04-.24,1.36-.77,1.31-2.3,2.81-4.48,4.5-6.52,1.55-1.77,3.05-3.63,5.3-4.62,.65-.37,1.48-.24,1.98,.33,5.45,4.85,11.06,9.49,17.49,13.04,1.66,.92,2.84,2.52,4.1,3.92,1.94,2.17,4.1,4.11,6.06,6.25,1.84,2.01,3.74,3.95,5.69,5.86,.45,.43,.61,1.07,.41,1.66-.93,4.21-2.65,8.15-4.16,12.16-1.19,3.18-2.52,6.31-3.49,9.57-.08,.27-.15,.47-.46,.48,.21-1.87,1.02-3.57,1.65-5.31,1.74-4.77,3.67-9.47,5.33-14.27,.79-2.27,.77-3.92-1.23-5.73-3.42-3.1-6.49-6.59-9.71-9.91-.04-.04-.13-.04-.31-.1,.22,1.44,.36,2.88,.43,4.33-.04,5.79-1.61,10.94-6.05,14.96-4.59,4.16-9.97,6.74-15.93,8.28-6.43,1.67-12.08-.06-17.36-3.71-2.99-2.11-5.84-4.4-8.55-6.87-2.89-2.59-6.15-3.18-9.8-2.28-2.13,.48-4.19,1.25-6.12,2.28-3.34,1.87-5.68,4.58-6.3,8.48-.44,2.8,.66,5.13,2.5,7.15,.53,.58,1.14,1.09,1.72,1.63,.09,.15,.07,.34-.06,.46-.33,.05-.66-.06-.89-.29-2.56-2.22-4.2-4.91-4.09-8.4,.09-2.64,1.36-4.8,3.07-6.72,3.09-3.46,7.26-4.72,11.61-5.58,4.02-.79,7.04,1.1,9.9,3.6,3.27,2.85,6.61,5.61,10.43,7.75,4.56,2.55,9.28,2.98,14.25,1.67,5.02-1.29,9.72-3.62,13.78-6.84,3.97-3.02,6.5-7.56,6.96-12.53,.24-2.18,.19-4.37-.16-6.53-.14-1.15-.7-2.21-1.58-2.97-.73-.63-1.3-1.43-2.32-2.07,.23,.76,.45,1.33,.64,1.92,1.45,4.56,1.63,9.08-.33,13.56-1.29,2.86-3.32,5.33-5.88,7.15-3.87,2.83-8.3,4.78-12.99,5.73-5.41,1.13-10.3-.19-14.82-3.17-2.31-1.52-4.41-3.33-6.64-4.96-2.53-1.85-5.15-3.53-8.35-4.01-1.17-.19-2.36-.19-3.53,0-.71,.09-1.38,.34-2.08,.49-1.26,.06-2.36,.63-3.45,1.14-2.94,1.38-5.71,3.02-7.71,5.68-1.71,2.18-2.32,5.03-1.66,7.72,.72,3.2,2.42,5.87,4.55,8.31,.36,.51,.87,.97,.45,1.69-2.55-2.76-4.68-5.78-5.63-9.49-.89-3.5-.21-6.71,2.24-9.3,4.12-4.34,9.16-6.95,15.26-7.06,3.04-.06,5.71,1.15,8.22,2.76,2.45,1.57,4.64,3.48,6.99,5.19,1.91,1.46,4,2.65,6.23,3.55,3.21,1.21,6.7,1.45,10.04,.69,4.44-.9,8.62-2.76,12.27-5.44,6.23-4.6,8.51-11.22,6.51-18.7-.06-.24-.14-.48-.2-.72-.45-2.25-1.85-4.19-3.84-5.32-4.78-2.92-9.03-6.58-13.2-10.31-.58-.66-1.57-.76-2.27-.23-1.7,1.08-3.19,2.45-4.41,4.05-1.76,2.13-3.33,4.4-4.69,6.8-.25,.63-.93,.99-1.6,.84-5.37-.69-10.74-1.28-16.1-2.03-6.7-.93-13.39-1.97-20.09-2.96,0-.31,.16-.31,.38-.19Z"/><path class="be" d="M58.96,147.37c1.46-.63,2.48-1.8,3.42-3,1.32-1.66,2.29-3.57,2.86-5.61,.09-.26,.19-.52,.32-.77h.29c0,.98,.07,1.95-.01,2.91-.45,5.06-2.89,8.73-7.65,10.73-1.36,.55-2.8,.85-4.27,.9-6.21,.3-12.13-1.06-17.88-3.3-.58-.23-1.24-.4-1.62-.99,.93-.29,1.67,.55,2.57,.44,.13-.1,.31-.1,.44,0,.54,.45,1.22,.36,1.85,.46,6.23,1.02,12.61,.46,18.57-1.63,.35-.13,.7-.42,1.11-.14Z"/><path class="dx" d="M27.96,109.03c-.04,.51,.05,1.02,.24,1.5,.08,.2,.17,.41-.18,.42-1.04-2.51-1.37-5.64-.96-9.28-.89,.93-1.16,2.09-1.97,3.11-.32-1.52,.04-2.76,.42-4.01,.39-1.27,1.19-2.33,1.77-3.51-2.04,1.76-3.23,4.13-4.52,6.45-.34-1.3,.03-2.49,.36-3.66,1.19-4.16,3.8-7.32,7.15-9.93,.51-.4,1.04-.76,1.56-1.14,.04-.07,.14-.15,.03-.23-.08-.06-.18-.02-.27,.02-3.33,1.6-5.91,4.12-8.32,6.84-.52,.59-1.01,1.21-1.52,1.81-.18,.2-.35,.57-.67,.37-.31-.2-.05-.54,.05-.77,1.47-3.62,3.42-6.93,6.36-9.57,.18-.16,.38-.3,.6-.48-.37-.31-.54-.06-.71,.05-1.31,.87-2.61,1.77-3.93,2.62-.45,.28-.95,.98-1.47,.51-.47-.43,.03-1.08,.25-1.59,1.08-2.36,2.79-4.38,4.93-5.84,4.15-2.91,8.89-4.86,13.88-5.71,7.84-1.48,15.55-.99,22.87,2.51,4.06,1.94,7.57,4.61,10.14,8.38-.33,.39-.47,.06-.64-.17-4.68-6.08-11.03-9.34-18.44-10.54-8.46-1.42-17.16,.02-24.71,4.1-2.87,1.51-5.45,3.43-7.09,6.36-.41,.62-.67,1.33-.74,2.07,3.08-2.07,5.99-4.15,9.3-5.5,3.29-1.34,6.64-2.5,10.26-2.32l.06,.3c-.77,.11-1.54,.24-2.31,.32-6.71,.74-11.9,3.96-15.6,9.6-.04,.1-.07,.2-.07,.31,0,.05,0,.1,0,.15-.39,.93-1.03,1.72-1.42,2.68,3.6-4.28,7.82-7.61,13.38-8.91,.37-.09,.85-.31,1.02,.21,.14,.43-.33,.6-.64,.74-2.44,1.14-4.73,2.57-6.82,4.28-2.83,2.31-4.88,5.44-5.86,8.96,1.34-2.35,3.18-4.72,6.02-6.11,.47-.23,1.22-.76,1.53,.3-.14,.29-.43,.48-.76,.48-2.78,1.68-4.32,4.19-4.91,7.34,.8-.71,1.16-1.77,2.14-2.46-.37,1.74-.51,3.52-.43,5.29,.11,1.22,.04,2.49,.63,3.63Z"/><path class="dx" d="M85.44,48.5c.35,.18,.09,.63,.38,.83,.71,8.26,3.02,16.16,5.52,24.02,1.51,4.74,3.14,9.43,5.1,14.01,.68,1.59,.51,3.27,.25,5.02-.7-.33-.35-1.28-1.15-1.41-.09,1.17-.39,2.32-.88,3.39-.14,.28-.2,.84-.66,.66-.37-.14-.09-.56-.02-.85,.02-.07,.04-.14,.06-.21,.06-.49,.26-1.12-.24-1.39-.58-.3-.74,.42-.97,.74-3.79,5.28-6.32,11.09-5.98,17.66,.6,11.58,5.45,21.3,13.77,29.32,.1,.1,.21,.19,.33,.28,.1,.04,.2,.07,.3,.09,.23-3.01,.78-5.97,.83-8.98,.06-3.51,.17-7.03,1.05-10.45,.23-1.09,.7-2.12,1.39-3,.87-1.02,1.69-1.07,2.66-.14,1.24,1.3,2.21,2.84,2.86,4.51,2.64,5.95,4.21,12.23,5.76,18.52,.92,3.72,1.77,7.45,2.44,11.23,.35,.39,.57,.79,.15,1.26-.23,.11-.37,.11-.41-.22-.03-.6-.17-1.18-.41-1.72-.29-.32-.47-.73-.49-1.16-.73-3.2-1.26-6.45-2.29-9.58-.18-.55-.48-1.15-.03-1.74-.23-2.04-.91-3.96-1.46-5.92-.99-3.66-2.25-7.25-3.76-10.73-.65-1.6-1.61-3.05-2.84-4.26-.31-.42-.91-.52-1.34-.2-.09,.06-.16,.14-.22,.23-1.38,1.38-1.69,3.21-1.98,5-.43,3.18-.66,6.39-.69,9.61-.13,2.63-.4,5.26-.82,7.86-.03,.23,.1,.57-.2,.66-.33,.1-.48-.25-.68-.43-2.86-2.61-5.37-5.57-7.48-8.82-.08-.11-.17-.22-.27-.32-.58-.25-.76-.82-1.04-1.3-.41-.71-.82-1.41-1.28-2.09-.23-.33-.58-.67-.26-1.14-.08-1.03-.74-1.84-1.08-2.78-1.39-3.79-2.34-7.72-2.84-11.72-.65-5.27,.87-10.02,2.91-14.72,.41-.71,.75-1.46,1.02-2.24-.02-.17,.07-.34,.22-.42,.8-.78,1.28-1.79,1.96-2.66,.85-1.08,1.31-1.08,2.06,.11,.43-.53,.23-1.17,.29-1.76,.04-.34-.19-.79,.19-.99,.41-.22,.61,.25,.88,.44,.08,.06,.17,.11,.36,.22,.18-1.14,.05-2.3-.38-3.37-2.58-6.29-4.82-12.72-6.7-19.25-1.25-4.14-2.28-8.34-3.08-12.59-.43-2.35-.88-4.71-.77-7.12Z"/><path class="ct" d="M78.33,33c-1.81-1.78-3.64-3.55-5.44-5.35-2.76-2.77-5.93-5.07-8.73-7.79-3.75-3.63-7.75-7.05-10.53-11.56-.22-.37-.65-.57-1.07-.5-1.43,0-2.87-.02-4.3-.03,1.91-.36,3.85,.06,5.74-.21,2.13-.31,3.43,.55,4.71,2.22,4.69,5.98,9.73,11.68,15.1,17.06,1.62,1.66,3.18,3.4,4.96,4.91,.24,.43,.08,.97-.35,1.2-.03,.02-.06,.03-.09,.04Z"/><path class="co" d="M118.36,153.61c.16-.45-.22-.83-.15-1.26,1.02,.56,.85-.57,1.23-.95,.54,.49,.24,1.23,.67,1.68,.52-.03,.19-.56,.43-.75h-.01c.33-.27,.27-.71,.44-1.06,2.67-6.38,5.34-12.75,10.02-18.01,1.49-1.71,3.35-3.06,5.44-3.95,3.01-1.25,5.27-.17,5.71,3.01,.56,4.07,.39,8.11-2.27,11.6-.05,.09-.1,.09-.15,0,.16-.94,.91-1.59,1.21-2.46,.41-1.09,.72-2.22,.91-3.36-.24-.33,.12-.77-.2-1.08-1.71,2.5-3.42,5-5.13,7.5-.66,.97-1.32,1.95-2,2.91-.15,.21-.24,.55-.7,.41,.17-.57,.46-1.09,.87-1.52,2.38-3.35,4.69-6.74,6.88-10.22,.56-.72,.68-1.68,.33-2.52-.37-.7-.43-1.5-.71-2.23-.24-.61-.56-.66-1.05-.35-1.21,1.78-2.28,3.64-3.19,5.59-.31,.32-.38,.79-.71,1.09-.28,.22-.49,.52-.59,.87-.02,.41-.19,.8-.5,1.07-.12,.28-.03,.66-.36,.85-.37,.38-.41,.97-.86,1.29-.77,1.63-1.54,3.26-2.31,4.89,.03-1.54,.84-2.78,1.47-4.08,.66-1.35,1.38-2.67,2.1-3.99,.72-1.32,1.44-2.64,2.19-3.94,.76-1.3,1.56-2.57,2.34-3.85-.24-.34,.45-.85-.19-1.1-.59-.22-1.18-.29-1.63,.3-.22,.23-.47,.42-.75,.57-.47,.1-.35,.63-.64,.86-.17,.29-.48,.48-.59,.82-1.76,2.44-3.35,5-4.91,7.57-.2,.39-.44,.77-.7,1.13-.32,.37-.38,.91-.75,1.25l-1.34,2.51-.3-.18c2.24-4.89,5.03-9.51,8.34-13.75-.07-.19,.13-.64-.41-.35-1.51,.76-2.87,1.78-4.04,3-2.09,2.32-3.88,4.9-5.32,7.67-2.7,4.99-4.85,10.26-6.4,15.71-.33,1.17-.8,2.31-1.09,3.49-.03,.14-.08,.28-.15,.4-.15,.3-.33,.63-.71,.51-.44-.13-.3-.53-.21-.82,.37-1.16,.71-2.33,1.06-3.5,.27-.9,.82-1.76,.46-2.85-.21,1.06-1.05,1.68-1.41,2.57-.08,.25-.3,.43-.56,.45-.39,0-.22-.45-.39-.61,.11,.64-.12,1.29-.61,1.72-.55-.02-.32-.6-.58-.81,.18,.33,.21,.73,.41,1.06,.57,2.14,.9,4.33,1.4,6.49,.08,.32,.03,.65-.12,.94,.55,2.97,1.25,3.25,3.61,1.41,.62-.48,1.16-1.06,1.74-1.59,.06,.04,.08,.1,.07,.17-.02,.06-.04,.09-.06,.09-.74,1.01-1.69,1.84-2.8,2.43-1.37,.77-2.17,.51-2.56-1.01-.64-2.52-1.16-5.07-1.74-7.61-.27-1.18-.54-2.35-.81-3.52,.72-.57,.82,.49,1.4,.47,.38-.58,.33-1.35,.55-2.04,.47,.09,.38,.61,.76,.82,.37-.55,.59-1.19,.64-1.85Z"/><path class="by" d="M103.69,198.19c1.03,.41,1.38,1.43,2.02,2.43,.16-.56,.24-.94,.39-1.3,.12-.28,.28-.67,.65-.58,.34,.08,.16,.48,.23,.74,.13,.18,.27,.18,.4,0-.03-.53,.23-1.03,.68-1.31,.11-.1,.29-.09,.39,.02h.01c-.03,1.85-.69,3.59-.74,5.43-.15,6.82-1.41,13.57-3.75,19.98-.81,2.19-1.69,4.34-3.19,6.17-.53,.68-1.22,1.23-2,1.59-1.22,.54-2.05,.22-2.64-.99-.67-1.36-.71-2.84-.76-4.3-.22-6.02,1.15-11.72,3.51-17.23,1.53-3.58,3.13-7.13,4.79-10.66Z"/><path class="by" d="M78.33,33l.43-1.24c.32-.72,.73-1.4,1.22-2.02,1.38-1.62,3.17-2.02,5.16-1.64,1.39,.27,1.77,.96,1.89,3,1.7-.91,3.16-.47,4.32,.92,1.11,1.32,.8,2.72-.14,4.19,.87,0,1.63,0,2.29,.52,1.7,1.35,1.65,3.45-.14,4.69-.9,.62-2,.77-2.94,1.27-.41,.03-.81,.18-1.13,.44-.81,.13-1.61,.3-2.43,.38-.72,.07-1.5,.1-1.92-.65-.38-.69,.03-1.31,.37-1.9,.14-.25,.29-.49,.49-.81-.7-.07-1.17,.38-1.73,.52-.79,.19-1.61,.62-2.33-.08-.71-.69-.38-1.52-.18-2.32,.07-.27,.29-.51,.13-.9-.55,.31-1.08,.66-1.64,.9-1.19,.52-2.02-.03-2.14-1.34-.13-1.35,.33-2.62,.43-3.93Z"/><path class="aq" d="M28.21,139.69l-.03,.02c.42,1.21,.96,2.38,1.03,3.69,.06,.23-.05,.46-.25,.58-.8-.16-1.03-.93-1.49-1.45-.45-.55-.95-1.07-1.49-1.53-.53-.41-.92-.44-1.25,.27-.33,.72-.53,1.48-.81,2.21-.61,1.61-1.54,2.98-3.34,3.46-1.18-.5-1.43-1.08-.84-2.12,.51-.97,.9-2.01,1.14-3.09,.2-.87,.14-1.78,.38-2.65,.38-1.37,.89-2.64,2.28-3.32,1.77-.17,2.52,1.25,3.52,2.28,.13,.17,.25,.35,.36,.53,.3,.34,.5,.77,.8,1.11Z"/><path class="m" d="M117.96,178.61c.77-.89,.59,.3,.94,.42,.35-.66-.03-1.33-.04-1.97,.47-.1,.63,.3,.96,.5,.18-.73,.05-1.51-.36-2.15-3.79-6.52-7.22-13.26-11.87-19.24-.45-.65-.96-1.25-1.52-1.79-.73-.63-.83-1.21-.5-2.14,1.39-3.68,2.47-7.46,3.24-11.32,.06-.5,.1-.99,.1-1.49,.01-.22,.04-.49,.28-.52,.26-.04,.31,.23,.38,.43,.4,1.15,.82,2.29,1.22,3.44,1.41,4.02,2.81,8.03,4.2,12.05,.1,.28,.6,.68-.06,.94-1.65-4.6-3.29-9.21-4.94-13.81-.17-.47-.33-.93-.56-1.55-.45,1.86-.8,3.58-1.29,5.26-.69,2.37-1.49,4.7-2.24,7.05-.1,.32-.29,.6,.06,.96,3.39,3.51,5.87,7.66,8.35,11.82,1.87,3.13,3.64,6.32,5.44,9.5,.81,1.43,.89,3.76,.18,4.79-.4-.36-.04-.91-.39-1.33-.33,1.24-.27,2.59-1.29,3.73-.27-1.01,.27-1.79,.06-2.75-1.1,2.09-2.14,4.07-3.19,6.06-.21,.02-.28-.11-.31-.28,.56-1.53,1.23-3.03,2-4.46,.37-.72,.44-1.6,1.14-2.13Z"/><path class="o" d="M33.12,199.95c.01-.58-.22-1.13-.63-1.54,.1-.66,.15-.74,.92-.5,.45,.14,.54,.02,.57-.35,.01-.14,.03-.28,.04-.41,1.04,.63,2.07,1.27,3.11,1.89,1.83,1.12,3.8,2.01,5.85,2.64,1.76,.5,3.41,1.34,4.86,2.46,1.12,.87,1.16,1.38,.24,2.49-1.62,1.93-3.77,2.27-6.28,.93-1.66-.92-3.19-2.06-4.56-3.39-1.47-1.3-2.85-2.71-4.12-4.21Z"/><path class="cn" d="M80.3,91.57l-.08-.23c1.4-5.75,1.3-11.6,1.21-17.44-.09-6.49-.56-12.97-1.15-19.43-.22-2.43-.45-4.86-.68-7.28-.04-.34-.27-.83,.45-.59,.29,3.05,.59,6.1,.85,9.15,.19,2.2,.31,4.41,.46,6.62,.24,3.6,.29,7.21,.5,10.81,.15,3.99,.06,7.99-.25,11.98-.09,1.96-.38,3.9-.85,5.81-.07,.27-.03,.6-.44,.62Z"/><path class="by" d="M80.05,46.59c-.53-.09-.33,.37-.45,.59-.08-.62-.48-.82-1.05-.96-2.28-.57-4.42-1.44-6.07-3.2-.87-.83-1.28-2.03-1.13-3.22,.21-1.56,.83-2.14,2.44-2.29,2.24,.47,3.85,1.97,5.46,3.43,.94,.82,1.81,1.73,2.58,2.72,.6,.68,.9,1.56,.85,2.46-.72,1.01-1.73,.4-2.62,.48Z"/><path class="b" d="M8.59,148.44v-.23c-.37-2.36,1.14-3.8,3.55-3.31,2.48,.44,4.78,1.6,6.61,3.32,.35,.26,.6,.62,.72,1.04,0,.11-.03,.22-.09,.32-.53,.35-1,.07-1.47-.14-.37-.2-.75-.36-1.15-.48-.36-.09-.7-.26-.99-.5-.44-.35-.94-.6-1.48-.74-.63-.25-1.28-.44-1.95-.56-1.55-.35-1.9,0-1.56,1.54-.08,.54,.39,1.29-.56,1.51-.05,.02-.1,0-.12-.05h0c-.42-.65-1.11-1.04-1.5-1.71Z"/><path class="ax" d="M60.73,131.63l.39,.89c.52,1.35,1.25,2.62,1.11,4.16-.05,.85-.3,1.68-.72,2.43-1.02,1.73-2.69,2.02-4.3,.76-.08-.21,.05-.3,.22-.36,.14-.03,.29-.01,.42,.05,1.84,1.06,3.34-.58,3.58-2.39,.17-1.04,.01-2.1-.44-3.05-.47-.93-.8-1.92-1.19-2.88-.25-.62-.42-1.28-.49-1.95,0-1.71-.47-3.41-.03-5.13,.05-.19,.06-.47-.16-.57-.21-.07-.44,0-.58,.18-.56,.55-1.21,1.02-1.91,1.38-1.79,.87-2.2,2.51-2.34,4.26-.24,2.99,.67,5.7,2.05,8.29,.28,.37,.47,.8,.56,1.26-.05,.18-.13,.32-.36,.24-1.41-1.51-1.94-3.43-2.54-5.32-.1-.3-.17-.62-.25-.93l-.19-.66c-.59-.99-.2-2.08-.29-3.12,0-.27,.09-.53,.27-.74l.22-.64c-.25-1.55,.74-2.51,1.81-3.24,.82-.55,1.7-1.02,2.47-1.66,.33-.28,.74-.46,1.17-.49,.45-.02,.87,.05,.83,.66l-.03,1.25c.14,.17,.2,.39,.15,.61-.11,1.61,.01,3.23,.36,4.81,0,.64,.47,1.23,.19,1.89Z"/><path class="du" d="M58.96,147.37c-3.93,1.52-8.1,2.34-12.32,2.41-2.88,.08-5.75-.15-8.58-.67-.28-.06-.59-.03-.63-.43,6.94,1.41,14.13,.87,20.77-1.57,.4-.17,.75-.42,1.03-.75,3-3.14,5.4-6.56,5.82-11.08,.24-1.52,.57-3.01,1.01-4.49,.14-.08,.28-.16,.41-.24,.16,.1,.21,.3,.12,.46-.76,2.08-1.02,4.28-1.46,6.43-.68,3.35-2.65,6.02-4.88,8.51-.43,.48-.87,.94-1.31,1.41Z"/><path class="cc" d="M29.05,143.47c.05-1.33-.75-2.47-.88-3.76,.92,1.1,1.05,2.51,1.27,3.82,.29,1.78,1.31,2.84,2.82,3.59,.06,.04,.08,.11,.06,.17-.02,.06-.04,.09-.06,.09-1.03,.01-1.91-.56-2.89-.73-.21-.04-.41-.19-.58,.03-.18,.24,.05,.39,.16,.56,.29,.45,.59,.9,.88,1.35,.33,.5,.28,.8-.41,.74-.07,0-.14,0-.21,0q-1.34,.01-.76,1.2c.07,.16,.13,.33,.18,.5l-.15,.07c-.74-.38-1.14-1.2-1-2.01,.45-.39,1.04-.12,1.63-.33-.31-.73-.82-1.33-1.17-2.01-.13-.25-.34-.53-.18-.8,.21-.35,.57-.14,.88-.11,.35,.03,.66,.27,1.04,.2-.13-.47-.59-.61-.86-.93-.17-.31,.11-.54,.15-.82,.07-.26,.28-.51,.08-.8Z"/><path class="dt" d="M114.94,185.29l.19,.21c-2.09,4.31-4.37,8.51-6.66,12.72l-.4-.03,2.56-5.15c.1-1.03,.74-1.83,1.19-2.69,.77-1.48,1.67-2.9,2.41-4.4,.14-.29,.23-.71,.72-.65Z"/><path class="cv" d="M16.28,157.66c.3,.39,.61,.79,.91,1.18q.94,1.23-.51,1.87c-1.48,.65-1.48,.65-2.1-.83-.28-.65-.58-1.29-.87-1.93,.09-.17,.24-.3,.42-.36,.09-.04,.17-.06,.27-.08,.23-.04,.45-.09,.66-.17,.26-.1,.54-.16,.81-.18,.32,.02,.32,.3,.41,.51Z"/><path class="dg" d="M14.19,157.75c-.16,.07-.32,.14-.48,.2-1.91-1.91-2.53-4.37-3.01-6.9-.1-.23-.12-.44,.21-.5,.2,.11,.35,.29,.42,.5,.38,1.33,.68,2.69,1.19,3.99,.4,1.02,1.26,1.72,1.67,2.71Z"/><path class="c`" d="M15.67,132.99l1.95,.61c.17,.1,.39,.02,.56,.11,.94,.56,1.83,1.19,2.66,1.88,.14,.13,.27,.28,.42,.4,.32,.3,.76,.52,.72,1.06-.07,.14-.2,.24-.36,.26-.81-.21-1.21-.96-1.83-1.42-1.33-.97-2.63-1.96-4.27-2.35-.14-.04-.25-.14-.31-.27,.02-.32,.31-.18,.47-.29Z"/><path class="ar" d="M24.3,131.46c.18,0,.35-.03,.53-.08,1.03-.41,1.49-.09,1.73,1.02,.17,.77,0,1.03-.68,1.17-.31,.06-.62,.17-.92,.26-.44,.06-.43-.33-.57-.57-.03-.09-.06-.19-.08-.28-.03-.14-.04-.29-.06-.43-.03-.24-.11-.47-.12-.7,0-.15,.06-.29,.17-.38Z"/><path class="bu" d="M24.3,131.46v.39c-.13,.16-.33,.27-.54,.3-1.72,.28-3.39,.81-4.96,1.58-.23,.1-.48,.14-.73,.1-.18-.02-.35-.03-.45-.22,2.02-1.24,4.31-1.98,6.68-2.14Z"/><path class="u" d="M16.71,148.67c.94,.07,1.61,1,2.63,.85,.07-.07,.19-.06,.25,.01h0c-.03,.4-.34,.4-.62,.44-.83,.07-1.45,.8-1.38,1.64,.02,.2,.08,.4,.17,.58,.05,.13,.13,.24,.08,.39-.09,.05-.2,.05-.29,0-.22-.05-.44,.04-.56,.23-.2-.1-.34-.29-.4-.5-.04-.48,.01-.96,.17-1.41,.31-.71,.29-1.52-.07-2.21Z"/><path class="bq" d="M16.77,152.33c.2,.09,.19,.3,.24,.47-.2,1.63-.73,3.21-.72,4.86-.15-.14-.3-.27-.45-.41-.18-.23-.25-.52-.19-.8,.18-1.12,.35-2.24,.62-3.34,.05-.32,.23-.61,.51-.78Z"/><path class="a`" d="M32.26,147.37v-.26l4.73,1.57c-.94,.32-1.69-.43-2.57-.44-.77-.18-1.59-.22-2.16-.88Z"/><path class="bx" d="M9.86,139.38c.54-.45,.76-1.18,.56-1.86-.03-.45,.02-.91,.14-1.34,.2-.02,.29,.11,.36,.27,.07,.4,.12,.81,.13,1.22,.2,.38,.48,.15,.73,.09,.36-.15,.77-.12,1.11,.07,.06,.08,.08,.19,.05,.29-.98,.46-1.94,.98-2.85,1.56-.17-.03-.31-.08-.21-.3Z"/><path class="j" d="M10.75,136.42l-.19-.24c.46-1.54,1.66-2.74,3.2-3.2,.15,.06,.28,.12,.25,.32-1.17,.85-2.35,1.69-2.98,3.07-.08,.07-.18,.09-.28,.05Z"/><path class="ay" d="M27.33,138.74c-.5-.75-1.08-1.43-1.75-2.04-.49-.53-1.2-.82-1.93-.78-.06-.26,.12-.34,.31-.41,.05,0,.1,0,.15,0,1.64,.42,2.56,1.68,3.43,2.99,.08,.22-.03,.27-.22,.24Z"/><path class="cf" d="M29.22,152.09l-.38,.2-2.4,.22c-.06-.08-.06-.19-.02-.28,.26-.29,.65-.44,1.04-.38,.5,.01,.96-.31,1.11-.79l.04-.05c.34,.26,.56,.65,.6,1.08Z"/><path class="dh" d="M26.45,152.32c0,.06,0,.13,0,.19l-3.45,.61c-.07-.1-.08-.24-.02-.35,1.09-.65,2.23-.98,3.48-.45Z"/><path class="cd" d="M17.57,152.57l.25-.04c1.16-.36,2.27-.07,3.37,.3,.11,.06,.16,.2,.11,.32-1.27,.07-2.53-.13-3.72-.57Z"/><path class="c" d="M9.02,143.09l.02-1.53c.08-.06,.19-.05,.27,.02,.16,.95,1.14,.68,1.65,1.11-.38,.63-1.04,.65-1.66,.75-.17-.05-.3-.13-.28-.34Z"/><path class="dc" d="M24.56,133.16c.23,.17,.09,.55,.39,.67-.28,.56-.56,1.12-.84,1.69h-.06c-.12,.13-.32,.13-.44,.02,.09-.86,.42-1.68,.95-2.37Z"/><path class="bw" d="M10.94,150.61c-.08,.15-.16,.3-.24,.45-.17-.28-.19-.64-.49-.85,.59-.5,.18-1.17,.3-1.75-.01-.3,.11-.31,.32-.15,.23,.76,.63,1.51,.11,2.3Z"/><path class="bo" d="M9.23,141.56h-.19c-.03-.81,.27-1.59,.82-2.18l.2,.23c.2,.38-.16,.62-.24,.93-.12,.27-.12,.57-.23,.84-.08,.14-.18,.24-.36,.18Z"/><path class="ai" d="M8.59,148.44c.56,.51,1.25,.91,1.5,1.69-.71-.4-1.3-.98-1.7-1.69,.07,0,.13,0,.2,0Z"/><path class="ca" d="M9.02,143.09l.23,.21c-.04,.55-.29,.88-.88,.84l-.21-.22c.17-.38,.48-.68,.86-.84Z"/><path class="eh" d="M132.81,153.18c.07-.53,.47-.8,.85-1.07,.07-.1,.13-.11,.19,0l-1.02,1.33c-.07-.03-.11-.12-.08-.19,.01-.03,.03-.05,.06-.07Z"/><path class="ad" d="M123.54,165.22c0-.61,.43-1.14,1.04-1.27-.25,.49-.61,.92-1.04,1.27Z"/><path class="dp" d="M27.33,138.74l.22-.24c.37,.29,.6,.72,.66,1.19-.49-.13-.65-.57-.88-.95Z"/><path class="bx" d="M14.01,133.19l-.25-.21c.63-.13,1.28-.13,1.92,.01l-.45,.17c-.34,.32-.86,.33-1.21,.02Z"/><path class="cx" d="M21.29,153.15c0-.05,0-.11,0-.16,.48-.43,1.21-.43,1.7,0,0,.05,0,.09,0,.14-.56,.13-1.14,.14-1.71,.02Z"/><path class="bk" d="M57.48,139.61l-.25,.25c-.29-.14-.52-.37-.67-.66l.26-.25c.47-.03,.68,.19,.66,.65Z"/><path class="bv" d="M135.61,149.52c.03-.44,.37-.8,.81-.86-.27,.36-.54,.73-.81,1.09-.07-.05-.09-.1-.07-.15,.02-.05,.04-.08,.06-.08Z"/><path class="bf" d="M129.57,157.69c-.05-.47,.24-.91,.69-1.05-.1,.42-.35,.79-.69,1.05Z"/><path class="db" d="M133.85,152.11c-.06,0-.13,0-.19,0,.05-.38,.3-.71,.65-.86,.06-.1,.12-.1,.17,0l-.64,.86Z"/><path class="cg" d="M135.61,149.52v.23l-.64,.85c-.06-.05-.09-.09-.07-.14,.02-.05,.04-.07,.06-.07,.04-.39,.29-.72,.65-.87Z"/><path class="cg" d="M131.17,155.61c-.29-.6,.22-.58,.54-.7-.18,.23-.36,.47-.54,.7Z"/><path class="da" d="M120.97,151.27c0,.42,.06,.85-.44,1.06,.02-.39,.18-.77,.44-1.06Z"/><path class="eg" d="M120.55,152.32c-.14,.25,.35,.87-.43,.75l.43-.75Z"/><path class="cl" d="M126.72,70.68c-.35,.07-.69-.12-.82-.46,.41-.1,.62,.18,.82,.46Z"/><path class="cb" d="M134.96,150.39c0,.07,0,.14,0,.21l-.48,.65c-.06,0-.12,0-.17,0,.04-.38,.29-.71,.64-.86Z"/><path class="as" d="M31.59,88.76c.21-.27,.51-.31,.93-.46-.1,.33-.37,.59-.7,.67l-.23-.21Z"/><path class="ae" d="M132.32,74.34c-.34,.07-.68-.12-.81-.45,.41-.1,.62,.16,.81,.45Z"/><path class="q" d="M130.47,156.5c-.08-.32,.12-.64,.44-.72,.05-.01,.1-.02,.15-.02-.11,.3-.32,.56-.59,.74Z"/><path class="dd" d="M127.87,71.37c-.4,.33-.51-.03-.68-.28,.33-.16,.46,.17,.68,.28Z"/><path class="x" d="M139.71,143.91c.05,0,.1,0,.15,0-.11,.3-.31,.57-.57,.76-.07-.32,.11-.65,.41-.77Z"/><path class="at" d="M128.97,158.45c-.08-.33,.12-.66,.45-.73,.05-.01,.1-.02,.15-.02-.12,.3-.33,.56-.6,.75Z"/><path class="ea" d="M128.32,159.29c-.07-.32,.13-.63,.45-.7,.04,0,.09-.01,.13-.01-.11,.29-.32,.55-.58,.72Z"/><path class="dv" d="M125.08,163.37c-.06-.32,.14-.63,.47-.7,.04,0,.08-.01,.11-.01-.12,.29-.32,.54-.58,.71Z"/><path class="cw" d="M122.92,165.92v-.25c.09-.26,.33-.43,.61-.43-.12,.29-.34,.53-.61,.68Z"/><path class="dk" d="M132.81,153.18l.02,.26-.45,.6c-.07-.35,.11-.7,.44-.86Z"/><path class="dj" d="M28.01,110.95c.06-.14,.12-.28,.18-.42,.24,.3,.32,.6,0,.9l-.19-.47Z"/><path class="bi" d="M131.76,154.81c-.08-.33,.12-.67,.45-.75,.05-.01,.1-.02,.15-.02-.12,.31-.34,.58-.61,.77Z"/><path class="aq" d="M8.37,144.15c.29-.28,.59-.56,.88-.84,.57-.22,1.14-.44,1.71-.66,.04-.04,.08-.08,.12-.12,1.94-.34,3.62,.34,5.24,1.3,.33,.21,.64,.45,.93,.72,.91,.66,1.7,1.46,2.34,2.38,.29,.36,.49,.79,.58,1.24,.07,.6,.02,1.16-.81,1.14-2.05-2.53-4.82-3.75-7.94-4.24-1.31-.16-2.5,.76-2.66,2.07-.03,.21-.02,.42,0,.62,.02,.19,.04,.35-.15,.46-.72-1.32-.95-2.67-.23-4.07Z"/><path class="be" d="M90.62,95.46l-.22,.42c-.23,.11-.4,.31-.49,.55-1.43,2.92-3.07,5.74-4.06,8.9,.16-1.35,.3-2.7,.47-4.05,.28-2.3,.64-4.59,.82-6.89,.29-3.77,.73-7.54,.67-11.33-.06-3.5-.65-6.95-1.16-10.4-.55-3.7-1.21-7.38-1.65-11.09-.3-2.52-.72-5.02-.63-7.56-.02-.84,.23-1.65,.71-2.34,.43,2.37,.84,4.55,1.22,6.74,.83,4.74,1.91,9.44,3.23,14.07,1.11,4.04,2.58,7.96,4.39,11.74,.51,1.18,.84,2.44,.99,3.72,.16,.94-.17,1.89-.87,2.52-1.47,1.42-2.62,3.12-3.41,5.01Z"/><path class="ah" d="M102.88,154.48c-1.83,2-4.79,2.47-7.49,1.19-3.55-1.71-6.86-3.88-9.85-6.45-3.44-2.92-6.75-5.98-9.46-9.62-1.12-1.45-1.9-3.13-2.28-4.92-.19-1.21-.39-2.43,.16-3.61,.48-.27,.52,.22,.68,.43,5.01,6.97,11.37,12.86,18.71,17.31,3.11,1.92,6.5,3.34,10.05,4.21,.31,.66-.25,1.01-.52,1.46Z"/><path class="be" d="M114.94,185.29c-1.17,2.12-2.34,4.24-3.51,6.36-.26,.47-.53,.93-.8,1.39-.64,.44-.81,1.24-1.43,1.74,.62-1.51,1.23-3.03,1.87-4.53,1.66-3.88,3.26-7.78,4.55-11.81,.42-1.18,.32-2.48-.26-3.59-3.32-6.54-7.14-12.82-11.44-18.76-.81-1.13,.44-1.02,.7-1.46,.4-.67,.7-.06,.92,.25,2.2,3.21,4.39,6.44,6.58,9.66,2.03,2.99,3.95,6.05,5.76,9.17,.53,.95,.68,2.06,.43,3.12-.2,.57-.31,1.17-.33,1.78-.84,2.3-1.98,4.46-3.02,6.67Z"/><path class="t" d="M114.73,139.19c.07,1.7,.94,3.19,1.24,4.83,.46,2.56,1.2,5.06,1.58,7.64-.06,.3,.09,.63-.18,1.01-.93-1.53-1.68-3.16-2.22-4.86-1.89-5.21-3.18-10.6-4.72-15.91-.87-2.98-1.68-5.99-3.17-8.76-.51-.95-1.06-1.79-2.28-1.86-.38-.02-.53-.28-.58-.65-.06-.95,.47-1.84,1.34-2.24,.43-.13,.64,.15,.88,.43,1.82,2.05,2.78,4.56,3.78,7.04,1.58,4.02,2.89,8.15,3.92,12.34,.03,.36,.18,.69,.41,.97Z"/><path class="df" d="M102.88,154.48c.08-.52,.63-.91,.41-1.51-.14-.22-.14-.49,0-.71,.81-2,.42-3.87-.65-5.65-1.42-2.24-3.03-4.35-4.79-6.33-1.91-2.32-3.96-4.53-6.14-6.6-2.42-2.23-4.88-4.43-7.82-6-.66-.36-1.35-.67-2.05-.92-3.08-1.08-5.8,.17-7.06,3.22-.15,.36-.19,.78-.55,1.02-.45,1.19-.41,2.44-.41,3.68-1.28-3.58,.26-7.43,3.66-8.9,2.05-.89,4.07-.33,6,.57,2.51,1.24,4.82,2.83,6.87,4.74,4.87,4.33,9.2,9.23,12.91,14.59,1.89,2.73,1.93,5.89,.26,8.23-.14,.25-.36,.45-.62,.57Z"/><path class="t" d="M90.4,127.34l2.58,4.53c-.4,.39-.57-.06-.76-.24-4.04-3.94-6.94-8.54-7.77-14.21-.21-1.46-.71-3.01,.03-4.58,.58,4.29,2.26,8.08,4.31,11.74,.52,.93,.84,1.98,1.61,2.77Z"/><path class="cj" d="M107.39,199.49c-.03,.17,.13,.47-.16,.47-.24,0-.24-.27-.24-.47,.13,0,.27,0,.4,0Z"/><path class="aq" d="M117.57,165.85c-.5-2.5-1.01-4.99-1.51-7.49,.08-.17,.28-.12,.39-.24,.23-.67,.46-1.34,.76-2.21l.25,1.27c.59-1.51,1.78-2.41,1.99-3.9,.42,.78,.5,1.7,.21,2.53-.6,1.71-1.11,3.45-1.7,5.34,.79-.25,.72-.84,.85-1.24,1.28-4.02,2.41-8.1,4.1-11.99,2.23-5.11,4.63-10.11,8.38-14.32,1.52-1.73,3.42-3.08,5.55-3.96,.06,.63-.4,.79-.57,1.12-2.42,.76-3.82,2.68-5.18,4.61-3.06,4.32-5.23,9.11-7.27,13.97-2.16,5.11-4,10.34-5.71,15.61-.1,.32-.09,.74-.51,.89Z"/><path class="cs" d="M130.86,139.81c1.44-2.71,3.11-5.29,4.99-7.72,.06-.09,.13-.1,.21,0-1.33,2.44-2.97,4.69-4.41,7.06-.19,.3-.38,.6-.57,.9-.19,.04-.32,0-.22-.23Z"/><path class="bn" d="M137.13,130.57c.48-.63,.78-1.45,1.85-1.31,1.3,.17,1.46,.43,.73,1.54-.84-.22-1.71-.3-2.57-.23Z"/><path class="bj" d="M140.12,131c.19-.26,.25-.6,.63-.79,.75,.96,1.15,2.15,1.13,3.37-.02,.07-.03,.16-.07,.2-.13,.1-.16-.02-.18-.12-.21-1.05-.89-1.84-1.51-2.66Z"/><path class="bm" d="M133.91,141.76c.28-.43,.33-1.02,.86-1.29-.18,.5-.21,1.11-.86,1.29Z"/><path class="bb" d="M130.86,139.81l.22,.23c-.2,.43-.48,.81-.84,1.11-.06-.03-.08-.1-.07-.17,.02-.06,.04-.09,.06-.09l.63-1.09Z"/><path class="dw" d="M130.23,140.9v.25c-.01,.45-.28,.85-.68,1.05,.12-.48,.36-.92,.68-1.3Z"/><path class="r" d="M135.13,139.62c.16-.36,.33-.72,.49-1.07,.26,.56-.07,.83-.49,1.07Z"/><path class="an" d="M136.21,137.68c.15-.42,.24-.88,.71-1.09-.12,.44-.21,.9-.71,1.09Z"/><path class="ed" d="M141.63,137.01c.05-.09,.13-.36,.2-.1,.05,.39,.05,.78,0,1.17-.33-.31-.13-.72-.2-1.08Z"/><path class="bs" d="M136.06,132.08c-.07,0-.14,0-.21,0,.11-.3,.34-.54,.63-.66,0,.29-.16,.55-.43,.65Z"/><path class="be" d="M30.53,95.22c.12-.25,.37-.41,.64-.42,.3-.47,.74-.84,1.26-1.04-1.98,.21-3.83,1.09-5.26,2.49-.34,.32-.65,.67-.99,.98-.22,.21-.48,.57-.79,.3-.29-.25-.04-.61,.12-.88,1.08-1.74,2.41-3.3,3.95-4.65,2.56-2.35,5.55-4.04,8.64-5.56,.36-.18,.76-.21,1.15-.43-.27,.13-.56,.2-.86,.22-5.01,.27-9.07,2.55-12.61,5.93-.34,.32-.7,.61-1.06,.9-.16,.16-.41,.18-.6,.05-.24-.19-.19-.44-.03-.67h0c1.71-1.92,3.65-3.62,5.78-5.06,3.58-2.46,7.66-4.11,11.94-4.82,.77-.13,1.59,.12,2.49-.43-3.12-1.06-6.13-.86-9.13-.21-2.96,.68-5.82,1.72-8.53,3.1,.89-.89,1.93-1.62,3.07-2.16,4.33-2.47,9.1-4.09,14.04-4.79,6.34-.9,12.81,0,18.66,2.61,2.58,1.15,5.02,2.59,7.27,4.31,1.06,.8,1.04,.9-.12,1.52-2.27,1.21-4.37,2.61-5.51,5.06-.21,.49-.38,1-.52,1.52-.27,.95-.71,1.13-1.52,.54-.81-.59-1.57-1.24-2.34-1.87-2.28-1.86-4.75-3.4-7.72-3.73-6.12-.69-11.23,2.35-12.6,8.94-.26,1.14-.26,2.33,0,3.48-.63,.08-1.16-.24-1.72-.35-2.47-.49-4.9-.58-7.22,.62-.25,.14-.49,.29-.72,.46-.3,.23-.55,.74-.96,.54-.32-.16-.08-.65-.13-.99-.11-.72,.25-1.39,.28-2.14-.89,.07-1.21,.94-2.04,1.39,.85-2.03,2.49-3.21,3.68-4.73Z"/><path class="di" d="M60.28,129.92c-.48-1.83-.56-3.74-.24-5.6,1.63-1.97,2.37-4.3,2.73-6.77,0-.39,.18-.77,.48-1.02,1.22-.94,2.28-2.08,3.14-3.36,.21-.39,.67-.58,1.09-.43,.27,.08,.56,.13,.84,.13,.28,0,.72,.16,.72-.36,0-.4-.35-.41-.63-.41-1.15-.05-2.27-.41-3.23-1.05-.26-.14-.58-.44-.82,0-.25,.48,.27,.52,.48,.66,1.19,.79,1.18,.76,.31,1.92-1.78,2.5-4.65,3.98-7.71,3.99-1.61,.09-3.2,.29-4.78,.6-2.73,.47-4.56,2.09-5.89,4.4-.67,1.11-1.26,2.25-1.77,3.44-1.3,3.17-4.01,4.11-7.02,4.48-1.98,.24-2.14,0-2.46-1.98-.28-2.2-.25-4.44,.09-6.63,.11-.52-.07-1.05-.48-1.39-1.08-1-2.04-2.12-2.88-3.32-.11-.21,.02-.26,.19-.29,.24,.08,.46,.22,.62,.41,.82,.77,1.77,1.38,2.81,1.81,.47,.2,.98,.26,1.45,.47,1.39,.49,2.93,.31,4.17-.48,.41-.23,.83-.48,1.19,.09,.15,.32,.34,.62,.55,.9-.87-1.31-.85-1.54,.43-2.69,.17-.16,.18-.27,.03-.43-.07-.97,.27-1.89,.2-2.87-.16-2.39-1.13-4.49-2.23-6.56-.02-.22-.1-.47,.27-.47,.44,.28,.59,1.25,1.25,.86,.55-.32-.03-.96-.16-1.43-.78-2.88-1.35-5.76-1.12-8.78,.46-5.93,5.23-9.17,10.93-7.32,3.54,1.16,6.3,3.5,8.87,6.09,1.99,2.02,3.78,4.23,5.33,6.6,.17,.25,.25,.82,.73,.59,.49-.23,.19-.68,.09-1.04-.72-2.66-1.07-5.35-.49-8.07,.68-3.16,2.71-5,5.85-5.51,2.86-.46,5.02,.87,6.63,3.12,2.85,3.99,2.55,10.05-.6,13.84-.85,.79-1.72,.4-2.67,.02,.33,2.75,.09,5.53-.7,8.18-1.56,5.55-5.1,10.34-9.94,13.47-1.36,.94-2.85,1.68-4.42,2.18-.4,.12-.81,.36-1.22,.01Z"/><path class="b" d="M60.28,129.92c2.64-.49,4.89-1.83,6.94-3.45,5.03-3.98,8.19-9.08,9.01-15.54,.25-1.84,.22-3.71-.09-5.54,.82,.8,2.02,1.06,3.09,.67-.9,1.09-.52,2.33-.49,3.57,.07,3.89-.69,7.63-2.76,10.98-3.15,5.11-7.48,8.8-13.26,10.66-.63,.27-1.31,.39-1.99,.35-.15-.57-.3-1.14-.45-1.71Z"/><path class="ck" d="M60.07,123.07c-.14-.38-.56-.58-.94-.45-.08,.03-.15,.07-.21,.12-1.27,.73-2.42,1.63-3.65,2.43-.83,.64-1.36,1.58-1.48,2.62-2.54,.39-5.11,.53-7.68,.42-1.35-.05-1.37-.07-.71-1.21,.27-.46,.54-.92,.81-1.38,.82,.39,1.54,.17,2.32-.23,1.49-.78,2.9-1.69,4.22-2.72,.45-.24,.7-.75,.61-1.25-.12-.65,.36-1.19,.89-1.04,.98,.28,1.26-.42,1.72-.9,.29-.31,.42-.75,.83-.96,1.72-.25,3.48-.23,5.21-1.1-.16,2.02-.82,3.96-1.93,5.65Z"/><path class="ef" d="M56.78,118.52c-.32,.76-.79,1.44-1.37,2.02-.28,.34-.51,.65-.84,.06-.18-.32-.43-.22-.59,.02-.16,.25-.8,.34-.39,.8,.44,.49,.14,.75-.2,1.05-1.67,1.4-3.51,2.59-5.48,3.54-.57,.36-1.33,.19-1.7-.38,.46-1.12,.99-2.2,1.58-3.26,1.15-1.98,3.21-3.27,5.49-3.45,1.17-.1,2.34-.27,3.5-.4Z"/><path class="bp" d="M30.09,116.54c.46-.03,.91,.2,1.15,.59,.92,1.32,1.97,2.54,3.14,3.63,.36,.3,.54,.77,.46,1.24-.12,.86-.02,1.76-.46,2.57-.21,.15-.49,.16-.72,.03-2.62-1.13-4.62-2.83-5.22-5.79-.13-.68,.07-1.38,.52-1.9,.27-.34,.62-.62,1.11-.37Z"/><path class="aw" d="M31.01,115.46c-1.26-2.11-2.26-4.3-2.22-6.84,.03-2.29,1.06-4.45,2.82-5.92,.89-.77,2.11-1.02,3.23-.67,1.53,.41,2.93,1.18,4.1,2.25,.04,.34-.21,.37-.44,.42-1.09-.22-2.13-.68-3.3-.59-.88,.01-1.74,.28-2.47,.79-1.65,1.08-2.23,2.72-2.43,4.57-.16,.56-.16,1.15,0,1.7,.06,.26,.09,.53,.11,.8,.06,1.14,.77,2.1,.94,3.22-.05,.16-.12,.31-.33,.27Z"/><path class="aq" d="M30.09,116.54c-1.11,.43-1.53,1.12-1.34,2.32,.37,2.22,1.84,3.63,3.61,4.8,.61,.43,1.3,.74,2.03,.92,.29,.29,.35,.74,.15,1.1-.21,.34-.59,.05-.88,0-4.3-.79-6.98-4.18-6.78-8.56,.06-1.45,1.17-2.46,2.42-2.23,.62,.11,.85,.59,1.13,1.05,.26,.43-.19,.44-.34,.63Z"/><path class="ah" d="M53.54,129.07c.01,1.07,.03,2.15,.04,3.22-1.08-.22-2.16-.39-3.23-.65-1.74-.4-3.4-1.12-4.89-2.11-.24-.16-.57-.3-.44-.64,.16-.44,.49-.06,.73-.06,1.46,0,2.93,.03,4.39,.05-.25,.65-.83,.41-1.28,.46-.52,.03-1.05-.01-1.56-.13,1.42,.19,2.79,.64,4.21,.84,.82,.12,1.59,.3,1.75-.86,.01-.1,.16-.13,.27-.12Z"/><path class="ci" d="M53.54,129.07c-.42,1.48-.43,1.52-2.03,1.27-1.64-.21-3.24-.61-4.78-1.19,1.26-.23,2.37,.13,3.42-.26,1.15-.03,2.29-.18,3.41-.45l-.02,.63Z"/><path class="ac" d="M41.92,107.11c-.17,.08-.18,.22-.16,.38l-.13,.08c-.83-.38-1.25-1.14-1.69-1.87,.01-.18,.14-.26,.29-.33,.67,.47,1.24,1.07,1.7,1.74Z"/><path class="dy" d="M40.23,105.37l-.24,.22c-.68,0-1.28-.44-1.49-1.08,.18,.01,.35-.07,.45-.22l1.29,1.08Z"/><path class="cu" d="M32.43,117.01l-.17,.21-.65-.85c-.12-.2,0-.25,.16-.3,.15,.02,.29,.09,.4,.19,.16,.22,.51,.38,.26,.74Z"/><path class="cr" d="M31.78,116.14l-.18,.23c-.2-.3-.4-.6-.6-.9l.2-.22c.09-.04,.19-.04,.27,.02,.19,.26,.54,.47,.31,.88Z"/><path class="cy" d="M33.98,197.56l.42,.9c-.49,.06-.76-.3-1.13-.39-.34-.08-.73-.26-.78,.34-1.18-.97-1.86-2.33-2.66-3.58-1.31-1.97-2.09-4.25-2.25-6.62-.12-2.2,.56-4.37,1.93-6.1,2.09-2.76,4.95-4.47,8.03-5.88,1.06-.48,2.1-1.08,3.33-1.08-.03,.54-.51,.53-.85,.67-1.5,.64-2.99,1.28-4.47,1.97,2.9-1.42,5.91-2.36,9.18-2.27,3.37,.05,6.6,1.35,9.07,3.63,4.16,3.72,8.56,7.11,14.03,8.75,2.99,.94,6.18,1.07,9.24,.36,4.03-.94,7.79-2.46,11.06-5.05,1.41-1.2,2.74-2.5,3.97-3.89-5.6,5.26-12.11,8.5-19.92,8.57-4.05,.04-7.72-1.42-11.11-3.59-2.04-1.34-3.96-2.84-5.76-4.49-3.22-2.87-6.87-4.8-11.32-4.82-.36,.07-.73-.04-1-.28,1.9-.52,3.75-.15,5.56,.41,3.18,.98,5.75,3.01,8.34,4.98,2.78,2.13,5.5,4.32,8.8,5.68,4.27,1.76,8.54,1.72,12.89,.44,3.7-1.03,7.19-2.7,10.31-4.94,4.08-2.98,6.68-6.84,7.34-11.97,.46-3.6-.36-6.95-1.53-10.28-.08-.23-.3-.42-.14-.78,.47,.1,.91,.33,1.25,.68,.28,.33,.59,.63,.92,.91,2.27,1.59,2.56,4.01,2.67,6.47,.11,2.65-.21,5.3-.97,7.84-1.2,4.14-3.9,7.12-7.23,9.6-3.87,2.85-8.25,4.94-12.9,6.15-5.6,1.53-10.81,.65-15.72-2.4-3.36-2.08-6.35-4.62-9.35-7.17-1.38-1.18-2.76-2.39-4.51-3.05-2-.69-4.16-.76-6.21-.21-2.98,.69-5.93,1.57-8.35,3.49-2.93,2.32-5.14,5.2-4.91,9.19,.2,3.34,1.91,5.93,4.7,7.78Z"/><path class="t" d="M43.02,174.72c5.21-.23,9.35,2.01,13.09,5.41,3.79,3.45,7.99,6.24,13.18,7.21,3.39,.59,6.88,.32,10.13-.81,4.83-1.56,9.23-3.87,12.75-7.64,.13-.14,.23-.37,.6-.32-1.36,2.11-3.11,3.94-5.15,5.4-3.61,2.61-7.8,4.29-12.21,4.91-3.31,.44-6.68-.05-9.72-1.42-4.69-1.95-8.62-5.02-12.37-8.36-3.11-2.77-6.76-3.61-10.85-3.17-2.67,.29-5.06,1.42-7.59,2.17,1.88-1.24,3.97-2.03,6-2.94,.71-.16,1.38-.54,2.14-.45Z"/><path class="cy" d="M24.07,92.44c0,.53,.1,.78,.66,.33,1.61-1.29,3.05-2.8,4.85-3.86,2.71-1.6,5.57-2.74,8.75-2.93,.5-.03,.95-.37,1.63-.1-5.92,2.59-11.19,5.85-14.51,11.54,2.14-1.93,4.26-3.89,7.55-3.93-.52,.72-1.28,.87-1.83,1.31-.13-.66-.55-.41-.91-.28-1.98,.69-3.36,2.15-4.63,3.7-.85,1.04-1.54,2.21-2.43,3.53,.68-3.86,2.56-6.78,5.1-9.32,2.49-2.5,5.51-4.21,8.62-5.81-6.25,.98-10.72,4.74-14.66,9.36,.3-1.31,.93-2.53,1.82-3.54Z"/><path class="h" d="M116.45,158.13c-.06,.19-.22,.23-.39,.24-.07-.37-.33-.71-.22-1.14,.45,.16,.22,.74,.61,.9Z"/><path class="di" d="M103.33,200.37c.69-.1,.27,.96,1.03,.83,.2-.2-.11-.61,.14-.91,.45,.11,.61,.57,.95,.82,.23,.17,.46,.42,.76,.32,.4-.13,.07-.49,.14-.74,.04-.17,.07-.35,.09-.52,.85,.81,.87,1.68,.8,2.72-.14,3.29-.45,6.57-.92,9.83-.78,4.85-2.22,9.57-4.26,14.03-.2,.42-.45,.82-.68,1.22-.08,.13-.2,.23-.34,.29,.47-2.1,1.31-4.1,1.58-6.23l-.29-.08c-.36,1.24-.71,2.48-1.08,3.72-.34,1.13-.75,2.24-1.05,3.38-.33,1.25-1.18,1.79-2.52,2.03,1.21-3.99,2.73-7.8,3.12-11.89-1.01,3.95-2.21,7.84-3.61,11.66-.7-.83-1.04-1.56-.8-2.54,.9-3.61,1.77-7.23,2.64-10.84,.08-.32,.38-.66,.02-.99-.43-.4-.22-.87-.1-1.3,1.36-4.96,2.77-9.91,4.38-14.8Z"/><path class="b" d="M103.33,200.37c-.3,2.35-1.18,4.55-1.82,6.81-.8,2.85-1.62,5.7-2.41,8.55-.04,.24-.06,.49-.05,.74-.27,.33-.43,.74-.47,1.17-.82,3.25-1.63,6.5-2.45,9.75-.49-.12-.33-.47-.33-.71-.1-6.22,.83-12.23,3.61-17.88,1.21-2.47,2.25-5.03,3.37-7.54,.09-.35,.28-.66,.55-.9Z"/><path class="aq" d="M84.37,28.68c1.88,.35,2.55,1.44,1.52,2.88-1.55,2.31-3.51,4.31-5.79,5.9-.22,.12-.45,.21-.68,.29-.59-.08-.42-.53-.31-.82,.98-2.73,1.95-5.47,4.09-7.57,.31-.35,.72-.59,1.18-.68Z"/><path class="aq" d="M92.34,36.87c.98,.21,1.69,1.05,1.75,2.04,.08,.97-.5,1.87-1.41,2.19-1.75,.82-3.6,1.41-5.5,1.75-.51,.18-1.08,.12-1.55-.17-.07-.21-.02-.44,.13-.6,1.74-2.03,3.46-4.1,6.05-5.11,.17-.07,.34-.1,.52-.1Z"/><path class="aq" d="M90.19,31.9c1.43,1.23,1.59,2.78,.16,4.04-2.17,2.04-4.81,3.53-7.68,4.33-.47-.22-.27-.53-.06-.77,1.97-2.48,4.11-4.82,6.4-7.01,.32-.29,.64-.7,1.19-.59Z"/><path class="b" d="M90.19,31.9c-2.97,2.2-5.08,5.21-7.54,7.9-.15,.17-.07,.33,.02,.48-1.12-.2-.69-1.05-.56-1.61,.37-1.32,1.01-2.54,1.88-3.59,1.04-1.36,2.08-2.75,3.69-3.53,.9-.44,1.78-.53,2.52,.35Z"/><path class="b" d="M84.37,28.68c-2.88,2.17-3.96,5.41-5.12,8.61-.06,.18,0,.37,.16,.47-.56,.41-.65-.09-.82-.42-.51-1.02-.19-2.06,.03-3.04,.29-1.44,.87-2.81,1.72-4.01,.9-1.21,2.74-1.95,4.02-1.6Z"/><path class="dn" d="M92.34,36.87c-2.68,1.35-4.98,3.35-6.7,5.82-.55-.28-.26-.73-.1-1,1.5-2.43,3.46-4.3,6.34-4.99,.18-.05,.37,.02,.46,.18Z"/><path class="b" d="M29.24,144.34c.07,.35-.28,.42-.42,.63-.49,.14-.72-.19-.97-.51-.46-.87-1.35-1.36-1.97-2.25-.2,.67-.84,.96-.97,1.62-.03,.1-.07,.2-.11,.29-.49,1.35-1.57,2.41-2.92,2.88-.42,.15-.95,.45-1.24-.24,1.56-.68,2.7-2.05,3.1-3.7,.27-.85,.6-1.67,1-2.47,.24-.62,.66-.31,1.03-.08,1.32,.85,2.14,2.16,3.07,3.38,.17,.11,.31,.26,.41,.44Z"/><path class="n" d="M20.64,146.77c1.15,.3,2.72-.54,3.48-1.86,.19-.33,.27-.74,.6-.99,.26,.29,.16,.6,.05,.91-.72,1.98-2.9,3.02-4.9,2.34-.14-.09-.27-.2-.37-.33-.06-.08-.11-.17-.15-.27-.2-.45-.21-.96-.38-1.42-.07-.13-.11-.27-.13-.42,0-.1,.04-.19,.12-.25,.64-.2,1.11-.74,1.22-1.4,.22-.52,.16-1.16,.68-1.56,.19,0,.32,.06,.23,.29-.14,1.06-.49,2.08-1.04,3-.59,1.05-.52,1.35,.6,1.97Z"/><path class="dm" d="M21.08,141.8l-.21-.24c-.56-.92-1.55-1.37-2.25-2.15-.01-.1,.01-.2,.08-.28,.47-.21,.82,.09,1.16,.31,.58,.38,.97,.42,1.03-.42,.02-.14,.06-.28,.11-.41,.2-.47,.24-1.02,.7-1.36l.24-.23c.31-.79,.65-1.54,1.69-1.5h.42c-.13,.13-.27,.27-.4,.41-1.66,1.05-2.16,2.71-2.35,4.53-.05,.45,.07,.93-.23,1.34Z"/><path class="b`" d="M29.24,144.34c-.2-.06-.36-.23-.41-.43,.18-.09,.19-.27,.22-.44,.25,.25,.18,.57,.19,.87Z"/><path class="aq" d="M33.62,198.95c.48,.17,.48,.6,.72,.85,.51-.29,.39-.88,.68-1.35,1,.58,1.97,1.17,2.96,1.73,1.59,.89,3.28,1.59,5.04,2.09,1.54,.48,2.99,1.21,4.29,2.17,1.03,.75,1.05,.93,.24,1.93-1.15,1.44-3.04,1.78-5.06,.84-2.34-1.08-4.2-2.82-6.05-4.57-.75-.71-1.41-1.52-2.14-2.25-.42-.36-.67-.89-.69-1.44Z"/><path class="aq" d="M72.35,39.01c.51-1.03,1.37-.74,2.15-.51,1.15,.42,2.19,1.08,3.07,1.93,1.39,1.13,2.65,2.41,3.76,3.82,.37,.4,.6,.9,.66,1.44-.26,.21-.62,.23-.9,.06-3.48-1.34-6.22-3.67-8.66-6.43-.06-.09-.09-.2-.08-.3Z"/><path class="b" d="M72.35,39.01c1.57,1.46,3,3.07,4.79,4.28,1.51,1.02,3.01,2.06,4.85,2.39-.39,.74-1.1,.51-1.61,.39-2.5-.57-4.93-1.36-7-2.97-1.36-1.05-1.8-2.76-1.02-4.1Z"/><path class="br" d="M16.71,148.67c.99,.6,.66,1.39,.31,2.18-.93-.51-2-.65-2.94-1.14-.3-.68-.05-1.29,.23-1.89,.65-.25,1.07,.28,1.59,.48,.22,.21,.51,.35,.81,.38Z"/><path class="e" d="M10.71,148.24l-.2,.22c-.45-1.26-.19-1.78,1-1.7,1.02,0,2.02,.28,2.89,.82-.02,.05-.04,.09-.06,.14-.1,.26-.22,.49-.55,.28-.53-.35-1.14-.55-1.78-.56-.67-.07-1.21-.02-1.3,.81Z"/><path class="bc" d="M19.56,146.73l.22,.23c1.04,1.13,.95,2.15-.22,2.57h-.23v-.23c1.27-.79,.27-1.57,.01-2.36-.08-.23,.02-.26,.21-.21Z"/><path class="dl" d="M15.9,148.3l-1.48-.46c-.12-.07-.13-.15-.03-.25v-.02c.59,0,1.14,.27,1.51,.72Z"/><path class="ba" d="M57.48,139.61l-.66-.65c-2-2.83-2.99-6.26-2.81-9.72,.05-1.3,.53-2.55,1.34-3.56,.32-.39,.65-.79,1.24-.7,.15,.33-.02,.63-.12,.92-.76,2.22-.31,4.35,.48,6.44,.13,.34,.18-.14,.32-.1,.58,.19,.49,.74,.59,1.16,.26,1.45,.66,2.87,1.21,4.23,.19,.41,.33,.96,.92,.91,.55-.05,.66-.6,.82-1.03,.3-.89,.29-1.86-.02-2.75-.2-.73-.48-1.43-.74-2.14-.16-.46-.42-.94-.02-1.42,.65,1.82,1.93,3.44,1.75,5.53-.04,.68-.22,1.34-.55,1.94-.73,1.28-1.95,2.12-3.76,.92Z"/><path class="s" d="M60.03,131.22c.07,1.46,.97,2.68,1.21,4.1,.2,1.03,.04,2.09-.44,3.01-.19,.37-.4,.66-.88,.66-.49,0-.67-.33-.86-.69-.89-1.7-1.2-3.58-1.59-5.43-.04-.21-.02-.43-.2-.59-.23-.22-.37-.53-.38-.86-.26-1.7-.28-3.42-.07-5.12,.08-.87,.51-1.66,1.19-2.2,.32-.25,.61-.53,1.04-.3,.4,.21,.32,.58,.28,.94-.12,1.52-.02,3.05,.28,4.55l.42,1.93Z"/><path class="v" d="M59.61,129.29c-.56-1.43-.41-2.93-.42-4.42,0-.33,.2-.77-.25-.95-.5-.19-.81,.19-1.06,.52-.56,.79-.85,1.74-.84,2.71-.08,1.71,0,3.42,.23,5.11-.02,.31-.05,.62-.07,.94-1.31-2.67-2.06-5.37-.6-8.22,.65-.54,1.29-1.09,1.97-1.61,.24-.19,.54-.42,.87-.25,.32,.16,.23,.52,.18,.77-.4,1.8,0,3.6,0,5.4Z"/><path class="b" d="M19.57,149.53c1.2-.76,.52-1.68,.22-2.57,2.51,.62,4.53-.63,4.95-3.04h0c.03-.71,.74-.94,1.06-1.46,.11-.18,.32-.04,.45,.09,.29,.3,.67,.53,.79,.96-.47,1.96-1.59,3.7-3.17,4.95-.7,.64-1.46,1.19-2.28,1.66,1.59-.01,3.17-.31,4.65-.89,.41-.17,.82-.51,1.3-.16,.17,.75,.54,1.43,1.07,1.98,.32,.62,.03,.89-.57,1-.52,.1-1.08-.07-1.56,.26-1.19-.07-2.38,.15-3.46,.66-.57,0-1.13,0-1.7,0-1.16-.15-2.32-.3-3.48-.45-.53-.27-.81-.62-.46-1.24,.13-.25,.22-.52,.24-.8,.07-.7,.34-1.01,1.09-.76,.3,.13,.66,.05,.88-.19Z"/><path class="aw" d="M27.51,149.08c-1.43,.41-2.78,1.09-4.3,1.23-.68,.08-1.36,.06-2.04-.06,2.52-1.75,4.74-3.72,5.71-6.73,.61-.03,.77,.49,1.06,.86,.29,.2,.58,.4,.87,.6,.78,.16,1.14,.75,1.57,1.58l-2.68-.7,1.93,3.23h-2.14Z"/><path class="d" d="M14.2,149.75c1.06,.05,2.1,.16,2.81,1.1-.08,.49-.16,.99-.24,1.48-.42,1.62-.73,3.26-.93,4.92-.22,.25-.53,.24-.82,.32-.6-.08-.69-.57-.78-1.02-.46-1.9-.64-3.86-.52-5.81,.12-.35,.14-.74,.47-.99Z"/><path class="ee" d="M14.19,157.75c-1.17-.81-1.68-2.06-2.16-3.32-.45-1.08-.74-2.21-.88-3.37-.21-.54,.14-.83,.54-.99,.67-.25,1.33-.74,2.1-.28-.13,2.49,.09,4.98,.67,7.4,.07,.16,.04,.36-.08,.49-.06,.02-.12,.04-.18,.06Z"/><path class="ab" d="M15.45,157.94c.42-.02,1.98,1.43,1.84,1.82-.2,.56-.91,.54-1.36,.83-.27,.17-.53,.19-.68-.2-.17-.43-.39-.84-.56-1.26-.34-.83-.13-1.14,.76-1.19Z"/><path class="bt" d="M14.36,157.69c-.6-2.3-.87-4.67-.81-7.04-.02-.31,.04-.63,.16-.92l.17-.03c.32,.29,.17,.63,.11,.96-.08,2.01,.12,4.02,.57,5.97,.09,.34,.1,.72,.45,.93-.19,.19-.43,.12-.66,.12Z"/><path class="e`" d="M13.71,149.73c-.58,.16-1.16,.3-1.73,.49-.41,.13-.81,.31-.84,.84-.07-.15-.14-.3-.21-.46l-.23-2.37c-.24-.97,.22-1.26,1.1-1.09,.78,.15,1.75-.17,2.17,.87,.31,.63-.04,1.18-.22,1.75l-.06-.03Z"/><path class="aq" d="M21.71,137.25l-.45,1.48c-.65,.35-.97-.25-1.37-.52-1.99-1.35-4.11-2.27-6.58-2.2-.75-.02-1.49,.2-2.11,.63-.19,.01-.34-.02-.27-.27,.42-1.65,1.66-2.5,3.08-3.18,.4,0,.81-.01,1.21-.02,2.6,.66,4.58,2.32,6.49,4.09Z"/><path class="ee" d="M18.07,133.82c1.91-1.11,4.04-1.79,6.24-1.97,.06,.21,.11,.42,.17,.62-1.12,1.19-2.34,2.29-3.63,3.29-.97-.58-1.9-1.23-2.77-1.94Z"/><path class="ao" d="M23.64,135.52c-.77,.26-1.14,.98-1.69,1.5l-.85-.85c.66-1.47,1.88-2.61,3.39-3.18,.01,.06,.04,.12,.08,.17,.03,.92-.66,1.56-.92,2.36Z"/><path class="bh" d="M24.49,132.99c-1.32,.84-2.46,1.92-3.39,3.18-.17-.06-.27-.23-.25-.41,1.08-1.24,2.16-2.48,3.63-3.29v.52Z"/><path class="ag" d="M24.92,132.34c-.17-.6,.16-.66,.55-.68,.68-.04,.55,.55,.64,.9,.17,.66-.47,.68-.8,.68-.71,0-.18-.67-.39-.9Z"/><path class="aq" d="M18.7,139.36c.57,.4,1.14,.8,1.71,1.21,.33,.22,.51,.6,.46,.99-.16,.56-.32,1.13-.48,1.69-.46,.36-.73-.06-1.01-.28-2.18-1.7-4.72-2.34-7.4-2.62-.69-.07-1.33,.26-2.02,.27-.11-.01-.22-.06-.3-.14l.4-.87c.72-.85,1.72-1.4,2.83-1.54,1.61-.63,4.65,.04,5.82,1.28Z"/><path class="b" d="M11.13,136.58c.29-.82,1.02-.79,1.68-.84,2.94-.22,5.44,.88,7.73,2.61,.22,.17,.39,.43,.73,.39-.35,.42,.09,1.24-.47,1.39-.46,.12-.95-.4-1.4-.69-.22-.11-.45-.2-.69-.26-1.79-.93-3.8-1.38-5.82-1.29-.49-.05-.98,.05-1.41,.27-.33,.18-.69,.32-.72-.29,.24-.4-.12-.97,.38-1.29Z"/><path class="f" d="M12.88,137.89c1.6-.5,3.07,.14,4.55,.59,.44,.13,1.02,.17,1.27,.7,0,.06,0,.12,0,.18-1.79-.94-3.8-1.38-5.82-1.28,0-.06,0-.12,0-.19Z"/><path class="cm" d="M11.13,136.58c-.26,.39-.04,.92-.38,1.29,0-.48,0-.96,0-1.45,.06-.02,.12-.04,.18-.05l.2,.21Z"/><path class="b" d="M9.88,140.49c2.46-.93,4.75-.07,7.04,.72,1.29,.44,2.29,1.39,3.47,2.03-.29,.67-.43,1.5-1.48,1.32-.55,.05-1.11-.04-1.61-.28-1.51-.71-2.93-1.68-4.68-1.74-.56-.1-1.14-.07-1.68,.09h.02c-.14-.03-.28-.03-.42,0-1.02,.34-1.32-.18-1.31-1.08l.21-.22c.21-.25,.01-.71,.44-.84Z"/><path class="l" d="M9.88,140.49l-.44,.84c.03-.3-.08-.63,.22-.86l.22,.02Z"/><path class="bg" d="M10.94,142.64c1.38-.52,2.73-.24,4.03,.24,.84,.36,1.66,.78,2.44,1.25,.07,.05,.1,.13,.07,.21-.14,.1-.1,.22-.02,.33-.05,.13-.11,.23-.26,.11-1.75-1.47-3.98-2.24-6.27-2.14Z"/><path class="av" d="M17.21,144.78l.2-.16c.38-.23,.57,.12,.79,.29,.14,.16,.38,.17,.54,.03,.03-.03,.06-.07,.08-.11,.04-.02,.08-.04,.13-.06l.18,.22c.2,.49-.11,1.12,.43,1.52v.22l-.21,.21-2.14-2.16Z"/><path class="di" d="M74.22,130.99c.81-3.98,4.26-5.88,8.03-4.39,2.81,1.11,5.17,2.92,7.42,4.87,4.61,4.1,8.76,8.69,12.37,13.68,1.17,1.58,2.04,3.27,1.94,5.34-.1,.85-.33,1.69-.69,2.47-.36,.32-.73,.14-1.11,.03-5.54-1.65-10.44-4.51-14.96-8.05-4.77-3.75-9-8.12-12.6-13-.24-.26-.39-.59-.41-.95Z"/><path class="bp" d="M76.48,103.02c-.02-.39-.02-.79-.08-1.17-.07-.48-.42-.86-.89-.98-.47-.14-.97,.06-1.2,.49-.52,.73-.99,1.49-1.54,2.2-.39,.51-.87,.61-1.11-.12-.9-2.7-1.59-5.44-.92-8.32,.39-1.68,1.24-3.05,3-3.46,1.8-.44,3.69,.21,4.83,1.67,1.69,1.94,1.9,4.26,1.5,6.69-.21,1.49-.63,2.95-1.27,4.31-.31,.63-.63,1.47-1.52,1.24-.82-.22-.79-1.09-.87-1.8-.01-.25-.02-.5,0-.75h.08Z"/><path class="aa" d="M48.22,94.65c1.28-1.07,2.95-1.52,4.59-1.23,4.54,.74,7.46,3.86,8.29,8.57,.28,1.24,.37,2.52,.26,3.8-.37,2.72-2.27,4.98-4.88,5.82-1.79,.51-3.55,.73-5.28-.22,.31-.29,.66-.18,1.01-.13,4.34,.68,7.21-2.97,7.33-6.3,.23-3.23-1.09-6.38-3.54-8.5-1.73-1.67-4.19-2.36-6.55-1.84-.4,.09-.82,.32-1.24,.04Z"/><path class="k" d="M48.22,94.65c5.97-2.22,11.17,3.3,11.6,8.56,.17,2.05-.1,4.02-1.37,5.72-1.42,2.07-3.94,3.08-6.4,2.57-.28-.05-.57-.07-.85-.11-3.77-1.49-6.05-4.23-6.71-8.21-.6-3.6,.46-6.56,3.72-8.52Z"/><path class="de" d="M41.76,107.49c1.82,2.84,3.02,5.81,2.06,9.27-.02,.08,.07,.18,.11,.27-.6,.7-1.36,1.3-1.38,2.34-.31-.5-.6-.2-.94,0-1.4,.81-2.85,1.13-4.41,.45,.15-.18,.37-.29,.6-.29,2.68-.11,4.88-2.17,5.16-4.84,.3-2.03-.05-4.1-1.01-5.91-.19-.37-.48-.74-.28-1.21l.09-.09Z"/><path class="ec" d="M49.08,116.89c.03,.53-.12,.83-.58,.8-.52-.02-.94-.44-.95-.96-.05-.4,.09-.76,.53-.75,.53-.02,.97,.39,1,.91Z"/><path class="af" d="M45.49,119.36c0,.45-.16,.7-.57,.7-.55,.03-1.02-.39-1.06-.94v-.05c-.07-.28,.11-.56,.38-.62,.06-.01,.11-.02,.17-.01,.54-.01,1,.39,1.07,.92Z"/><path class="dr" d="M46.21,116.32c.09-.9,.8-1.62,1.7-1.72,.88-.12,1.67,.55,2.15,1.83-.8-.39-1.03-1.39-1.95-1.42-.95-.03-1.27,.86-1.9,1.32Z"/><path class="cp" d="M42.55,119.37c-.25-1.2,.46-1.83,1.38-2.34,.17,0,.38-.07,.51,0,.18,.11,.02,.26-.1,.32-.65,.31-1.4,.56-1.46,1.41-.05,.78,.61,1.25,1.01,1.83,.02,.04-.03,.12-.07,.3-.57-.37-1.01-.91-1.27-1.53Z"/><path class="do" d="M35.71,119.34c-1.09-.36-2.05-1.03-2.77-1.92,.02-.15,.15-.27,.3-.28,.93,.53,1.79,1.18,2.56,1.93,.01,.1-.02,.2-.09,.27Z"/><path class="ch" d="M35.71,119.34l.04-.3c.84-.29,1.63,.03,2.43,.18,.4,.46-.11,.41-.3,.54l-.67,.06-1.49-.48Z"/><path class="ce" d="M33.13,117.2l-.19,.21-.51-.41c-.13-.21-.26-.42-.39-.64-.1-.21,.03-.28,.2-.33,.54,.12,.92,.61,.89,1.16Z"/><path class="bd" d="M37.87,119.76l.42-.36c.16-.24,.42-.4,.7-.45,3.02-.85,3.73-3.75,3.67-5.79-.02-2.61-1.13-5.1-3.07-6.86-1.83-1.68-3.84-2.25-6.2-1.33-.2,.09-.41,.13-.63,.11-.17-.05-.31-.13-.29-.34,1.95-1.44,3.96-1.12,6-.24,.5,.36,1,.72,1.49,1.08,.56,.66,1.13,1.32,1.69,1.98,.95,1.57,1.52,3.33,1.68,5.15,.18,3.18-1.31,6.25-4.31,6.94-.38,.11-.77,.14-1.17,.1Z"/><path class="eb" d="M32.49,104.75l.25,.21c.03,.25-.07,.51-.27,.67-1.44,1.48-2.13,3.54-1.86,5.59-.07,.32,.04,.75-.47,.82l-.06-.76c-.13-.63-.13-1.28,0-1.91,0-1.84,.89-3.56,2.4-4.61Z"/><path class="ak" d="M30.14,112.03c.28-.25,.14-.6,.21-.9,.19,0,.35,.13,.37,.32,.26,1.19,.59,2.36,.99,3.5-.03,.17-.16,.31-.33,.36-.05-.03-.11-.06-.17-.08-.51-1.01-.87-2.09-1.06-3.21Z"/><path class="ak" d="M30.08,109.37v1.91c-.21-.62-.21-1.29,0-1.91Z"/><path class="w" d="M31.38,115.32l.22-.26c.46,.08,.77,.52,.69,.98,0,.03-.01,.07-.02,.1l-.23,.24-.25-.23c-.14-.27-.27-.55-.41-.82Z"/><path class="n" d="M27.95,144.37l-1.06-.86c-.95-1.25-1.12-1.21-2.16,.41,.03-.3-.04-.6,.24-.88,.61-.62,.59-.64,.76-1.59,.57,1.27,1.86,1.7,2.23,2.91Z"/><path class="al" d="M19.56,146.51c-.84-.31-.45-.96-.43-1.52,.35,.45,.2,1.04,.43,1.52Z"/><path class="ds" d="M17.4,144.33c0-.07,0-.13,.01-.2,.53,.03,1.04,.18,1.5,.44,0,.07,.01,.14,.03,.21h-.03c-.65,.36-1.05-.14-1.51-.44Z"/><path class="d`" d="M13.77,149.76c.07-.58,.15-1.16,.22-1.75l.4-.42c0,.08,.02,.17,.03,.25,0,.64-.35,1.25-.22,1.91-.07,.3-.14,.61-.21,.91-.09-.3,.08-.66-.23-.9Z"/><path class="p" d="M17.4,144.33l1.51,.46c-.01,.6-.05,1.11-.77,.41-.23-.21-.48-.4-.74-.57-.14-.1-.22-.19,0-.29Z"/><path class="ef" d="M59.42,104.16c0,3.64-2.01,6.38-5.19,6.92-2.06,.33-4.15-.31-5.68-1.73-2.95-2.51-4.28-5.7-3.57-9.57,.78-4.29,5.04-6.39,8.97-4.49,3.34,1.7,5.44,5.12,5.47,8.87Z"/><path class="ef" d="M32.26,116.14l-.67-1.08c-.59-1.24-1.01-2.56-1.25-3.92-.14-2.43,.49-4.55,2.39-6.18,2.51-1.39,4.81-.87,6.82,.94,2.87,2.61,4.04,5.86,3.03,9.69-.45,2.07-2.19,3.61-4.3,3.81-.86-.03-1.71-.15-2.55-.36-1.01-.42-1.75-1.23-2.62-1.84l-.87-1.07Z"/><path class="aj" d="M51.75,103.66c.1-2.14,1.6-3.67,3.49-3.56,1.95,.12,3.53,2.09,3.4,4.24-.12,2.09-1.59,3.58-3.44,3.5-1.96-.08-3.55-2.01-3.45-4.19Z"/><path class="ap" d="M42.28,112.56c0,1.83-.91,3.15-2.19,3.42-1.37,.29-2.69-.54-3.32-2.1-.31-.69-.43-1.44-.34-2.19,.26-1.65,1.17-2.71,2.46-2.84,1.22-.12,2.51,.82,3.04,2.27,.15,.47,.26,.95,.34,1.44Z"/><path class="bp" d="M52.29,103.79c0-1.89,1.02-3.14,2.58-3.16,1.71-.07,3.16,1.26,3.23,2.98,0,.05,0,.09,0,.14,.09,.64,.01,1.29-.22,1.89-.53,1.33-1.97,2.04-3.34,1.65-1.01-.2-2.17-1.62-2.24-2.75-.02-.25,0-.5,0-.75Z"/><path class="bp" d="M39.12,109.25c.82-.06,1.31,.48,1.8,1.01,1.03,1.19,1.24,2.88,.52,4.28-.64,1.07-2.03,1.41-3.1,.77-.23-.14-.44-.32-.61-.54-1.09-1.3-1.22-3.15-.33-4.59,.4-.55,1.03-.89,1.71-.93Z"/><path class="g" d="M57.48,102.79c.04,.47-.31,.87-.78,.91-.03,0-.07,0-.1,0-.5,.02-.93-.36-.95-.86s.36-.93,.86-.95c.48-.05,.9,.29,.96,.76,0,.05,0,.09,0,.14Z"/><path class="au" d="M56.95,105.03c-.13,.2-.23,.39-.44,.34-.16-.04-.34-.18-.3-.36,.04-.15,.17-.36,.38-.28,.14,.05,.24,.21,.35,.3Z"/><path class="g" d="M41.13,111.21c-.05,.53-.29,.86-.8,.84-.42,0-.75-.34-.75-.76,0-.03,0-.06,0-.09-.06-.41,.22-.79,.63-.85,.04,0,.07,0,.11,0,.55-.01,.77,.4,.81,.87Z"/><path class="bl" d="M40.61,113.58c-.18-.05-.32-.16-.26-.35,.03-.11,.19-.28,.25-.26,.18,.03,.3,.19,.28,.37,0,.14-.13,.25-.27,.25Z"/></g></svg>