<?xml version="1.0" encoding="UTF-8"?><svg xmlns="http://www.w3.org/2000/svg" xmlns:xlink="http://www.w3.org/1999/xlink" viewBox="0 0 143.21 333.96"><defs><style>.c{fill:#442a19;}.d{fill:#f97a98;}.e,.f,.g,.h,.i,.j,.k,.l,.m{stroke-miterlimit:10;}.e,.f,.j,.k,.l{stroke:#ba9b9b;}.e,.k{fill:#f7f5f5;}.n,.o,.p,.q,.r,.s,.t,.u,.v{mix-blend-mode:multiply;}.n,.p{fill:#644f43;}.n,.t{opacity:.3;}.w{fill:#fff;}.f{stroke-width:.75px;}.f,.o,.j,.x{fill:#eeeded;}.g{stroke:#2c9b59;}.g,.y{fill:#b9c0b0;}.a`,.u{fill:#78c8c1;}.h{stroke:#878e6f;}.h,.aa{fill:none;}.ab,.p,.s{opacity:.5;}.ac,.s{fill:#7e4f25;}.ad{fill:#342517;}.ae{fill:#097cc1;}.af{fill:#6b6f70;}.ag{fill:#9f9f9f;}.ah{fill:#5ebeb6;}.ai{fill:#3093e6;}.aj{isolation:isolate;}.ak,.m{fill:#fbd1b5;}.al,.r{fill:#afb0b0;}.q{opacity:.4;}.q,.am{fill:#4b5157;}.an{fill:#f2f0e9;}.ao{fill:#aa7959;}.ap{fill:#db9d8e;}.aq{fill:#f58778;}.i{stroke:#5b4343;}.i,.t{fill:#717070;}.ar{fill:#808588;}.as{opacity:.11;}.at{fill:#c2c3c3;}.au{fill:#60201e;}.j,.k,.l{stroke-width:2px;}.av{fill:#dadada;}.aw{clip-path:url(#b);}.ax{fill:#b3b2b2;}.ay{fill:#a3a3a3;}.b`{fill:#878787;}.ba{fill:#cca183;}.bb{fill:#899497;}.bc{fill:#585857;}.bd{fill:#f4a198;}.be{fill:#3d2e17;}.bf{fill:#eac1a4;}.bg{fill:#2d2b21;}.l{fill:#a58484;}.bh{fill:#fff7f4;}.bi{fill:#ead3d3;}.m{stroke:#cca183;}</style><clipPath id="b"><path class="aa" d="M21.88,181.14s6.21-.9,8.37-.69c0,0,2.1,3.98,5,2.89,2.9-1.09,3.3-2.95,.55-6.61-2.75-3.67-5.88-9.19-11.49-8.31-5.61,.87-2.43,12.72-2.43,12.72Z"/></clipPath></defs><g class="aj"><g id="a"><g><path class="ab" d="M66.57,332.68c-15.06,0-29.26-1.07-39.99-3.01-14.23-2.57-20.3-6.16-20.3-11.99,0-4.9,3.55-10.29,29.44-13.33-.88-2.12-1.34-4.79,.39-6.89-.5-5.06-2.1-18.78-2.64-22.38-.41-2.71-.23-7.6-.07-12.33,.08-2.35,.19-5.47,.13-6.75-.03-.06-.07-.13-.1-.19-.66-1.22-2.19-4.04-.43-7.39-.08-.58-.25-1.55-.43-2.56l-.09-.5c-.48-2.72-1.81-9.25-2.88-14.33-3.4-.37-5.63-.69-5.66-.69l-.21-.03c-2.4-.37-4.19-2.41-4.24-4.85v-.15c-.01-.52-.2-12.25-.2-19.19v-.23c0-5.63,.65-14.23,.96-17.98-.21-.26-.39-.53-.54-.82-.01-.02-.05-.1-.06-.12-.13-.26-.25-.53-.38-.84-.03-.07-.06-.14-.08-.21-3.04-7.62-4.34-28.93-4.01-37.64,.41-10.75,7.41-35.63,10.02-42.04,2.91-7.12,8.88-8.37,13.68-9.38,1.07-.22,2.15-.45,3.19-.73,.62-.17,1.32-.39,2.07-.66,1.01-.83,2.14-1.56,3.39-2.2-5.41-4.21-9.18-9.81-11.01-16.44-2.97-1.31-5.42-4.04-6.79-7.76-.34-.93-3.26-9.22,.2-14.18,.35-.5,.75-.95,1.2-1.34-.82-4.53-.99-10.06,.74-17.24,.43-1.78,.93-3.45,1.51-5-.1-.93,.04-1.91,.43-2.87,.02-.05,.04-.09,.06-.13,4.5-10.38,10.31-13.18,14.21-13.76,4.32-5.37,11.98-8.29,21.95-8.29,2.07,0,4.18,.13,6.27,.38,18.89,2.25,25.36,21.04,25.62,21.84,.23,.68,.3,1.38,.23,2.05,2.98,8.18,1.72,15.95,.99,19.05-.07,2.61-.39,5.13-.68,6.96,1.04,.63,1.91,1.52,2.55,2.63,2.61,4.56,.14,11.19-1.74,14.38-1.93,3.29-4.79,5.59-8.02,6.56-2.26,5.78-5.51,10.44-9.61,13.83,1.03,.39,2.08,1.02,2.83,2,.16,.21,.3,.42,.44,.64,4.63,2,6.55,2.79,7.34,3.1,.33,.13,.64,.25,.93,.36,3.69,1.39,6.43,2.81,8.13,8.44,.22,.73,.5,1.69,.81,2.79,.18-.51,.45-1,.8-1.43,.31-.38,.67-.72,1.06-.99-.36-2.05-.51-2.2-1-2.68-2.48-2.48-2.56-4.81-2.2-6.32,.39-1.65,1.53-3.03,3.04-3.76,1.21-.64,2.48-.96,3.78-.96,1.2,0,2.37,.28,3.45,.82,2.29-8.58,4.48-13.22,8.85-13.22,.93,0,1.84,.26,2.63,.75,1.08,.67,1.89,1.55,2.46,2.55,.8-.35,1.62-.52,2.51-.52,1.3,0,2.55,.42,3.61,1.22,1.84,1.38,2.62,3.28,2.64,5.13,1.11,.37,2.08,1.08,2.77,2.06,1.24,1.75,1.41,3.96,.5,6.57-.21,.59-.51,1.21-.88,1.84,1.11,1.05,1.79,2.53,1.82,4.21,.1,5.56-5.35,7.65-10.19,8.98-.75,1.07-1.84,2.35-3.3,3.51,1.17,3.25,1.3,6.17,1.31,7.1v.21c.01,1.22-.42,2.39-1.2,3.3-2.54,5.79-12.42,26.5-24.42,28.52-.6,.1-1.22,.15-1.82,.15-3.54,0-6.28-1.61-8.41-3.96-.22,1.65-.34,2.95-.36,3.87-.04,1.59,.27,2.33,1.35,4.65,1.28,2.76,3.03,6.53,4.63,13.83,2.92,13.27,5.75,43.8,5.87,45.09,.22,2.36-1.26,4.56-3.53,5.24-.18,.06-.37,.11-.55,.17,.03,.81,.08,2.47,.08,2.47,.01,.21,.02,.39,.03,.53,0,.07,0,.15,0,.22,.19,5.8,.4,12.23,.77,14.19,2.12,3.36,1.1,6.8,.5,8.76-.2,1.34,.58,5.92,1.21,9.61,.25,1.44,.51,2.96,.76,4.54,.5,3.13,1.03,7.06,1.54,10.86,.57,4.25,1.35,10.07,1.7,11.24,.47,1.51,.55,2.79,.6,3.74,1.54,1.44,2.08,2.98,2.25,4.09,.22,1.43-.03,2.83-.75,4.19,0,.08,.01,.15,.02,.22,.09,.89,.24,2.42-.37,3.89,0,.18,0,.36-.01,.53,12,2.52,17.2,6.01,17.2,11.38,0,4.95-3.62,10.41-30.39,13.44-1.7,.4-3.49,.61-5.21,.61-.28,0-.55,0-.83-.02-7.51,.64-15.53,.96-23.86,.96Zm0-29.99c4.21,0,8.38,.08,12.44,.25-.33-1.51,.05-2.84,.46-3.75-.2-.98-.64-2.67-.85-3.49-1.17-4.46-6.62-26.42-7.65-32.49-.41-2.44-.7-5.04-.96-7.34-.21-1.88-.49-4.4-.72-5.32-.05-.09-.1-.17-.15-.26-.77-1.26-2.8-4.62-.14-8.34l.02-.03c-.12-.39-.26-.85-.4-1.28-.4-1.27-.92-2.92-1.5-4.88-.35-.51-.62-1.09-.77-1.72l-.11-.46c-.15,.72-.45,1.38-.86,1.95-.17,1.77-.19,2.35-.19,2.51,0,1.96-.24,3.59-.42,4.78-.02,.14-.04,.3-.07,.45,1.58,2.07,1.94,4.51,1.01,6.89,.11,.61,.31,1.52,.46,2.18,.27,1.17,.54,2.39,.72,3.58,.31,2.11-.08,8.33-1.74,27.76-.32,3.69-.58,6.79-.7,8.46-.19,2.75-.14,5.26-.09,7.27,.03,1.23,.05,2.31,0,3.28,.74,0,1.47,0,2.21,0Z"/><path class="w" d="M61.57,327.68c-15.06,0-29.26-1.07-39.99-3.01-14.23-2.57-20.3-6.16-20.3-11.99,0-4.9,3.55-10.29,29.44-13.33-.88-2.12-1.34-4.79,.39-6.89-.5-5.06-2.1-18.78-2.64-22.38-.41-2.71-.23-7.6-.07-12.33,.08-2.35,.19-5.47,.13-6.75-.03-.06-.07-.13-.1-.19-.66-1.22-2.19-4.04-.43-7.39-.08-.58-.25-1.55-.43-2.56l-.09-.5c-.48-2.72-1.81-9.25-2.88-14.33-3.4-.37-5.63-.69-5.66-.69l-.21-.03c-2.4-.37-4.19-2.41-4.24-4.85v-.15c-.01-.52-.2-12.25-.2-19.19v-.23c0-5.63,.65-14.23,.96-17.98-.21-.26-.39-.53-.54-.82-.01-.02-.05-.1-.06-.12-.13-.26-.25-.53-.38-.84-.03-.07-.06-.14-.08-.21-3.04-7.62-4.34-28.93-4.01-37.64,.41-10.75,7.41-35.63,10.02-42.04,2.91-7.12,8.88-8.37,13.68-9.38,1.07-.22,2.15-.45,3.19-.73,.62-.17,1.32-.39,2.07-.66,1.01-.83,2.14-1.56,3.39-2.2-5.41-4.21-9.18-9.81-11.01-16.44-2.97-1.31-5.42-4.04-6.79-7.76-.34-.93-3.26-9.22,.2-14.18,.35-.5,.75-.95,1.2-1.34-.82-4.53-.99-10.06,.74-17.24,.43-1.78,.93-3.45,1.51-5-.1-.93,.04-1.91,.43-2.87,.02-.05,.04-.09,.06-.13,4.5-10.38,10.31-13.18,14.21-13.76,4.32-5.37,11.98-8.29,21.95-8.29,2.07,0,4.18,.13,6.27,.38,18.89,2.25,25.36,21.04,25.62,21.84,.23,.68,.3,1.38,.23,2.05,2.98,8.18,1.72,15.95,.99,19.05-.07,2.61-.39,5.13-.68,6.96,1.04,.63,1.91,1.52,2.55,2.63,2.61,4.56,.14,11.19-1.74,14.38-1.93,3.29-4.79,5.59-8.02,6.56-2.26,5.78-5.51,10.44-9.61,13.83,1.03,.39,2.08,1.02,2.83,2,.16,.21,.3,.42,.44,.64,4.63,2,6.55,2.79,7.34,3.1,.33,.13,.64,.25,.93,.36,3.69,1.39,6.43,2.81,8.13,8.44,.22,.73,.5,1.69,.81,2.79,.18-.51,.45-1,.8-1.43,.31-.38,.67-.72,1.06-.99-.36-2.05-.51-2.2-1-2.68-2.48-2.48-2.56-4.81-2.2-6.32,.39-1.65,1.53-3.03,3.04-3.76,1.21-.64,2.48-.96,3.78-.96,1.2,0,2.37,.28,3.45,.82,2.29-8.58,4.48-13.22,8.85-13.22,.93,0,1.84,.26,2.63,.75,1.08,.67,1.89,1.55,2.46,2.55,.8-.35,1.62-.52,2.51-.52,1.3,0,2.55,.42,3.61,1.22,1.84,1.38,2.62,3.28,2.64,5.13,1.11,.37,2.08,1.08,2.77,2.06,1.24,1.75,1.41,3.96,.5,6.57-.21,.59-.51,1.21-.88,1.84,1.11,1.05,1.79,2.53,1.82,4.21,.1,5.56-5.35,7.65-10.19,8.98-.75,1.07-1.84,2.35-3.3,3.51,1.17,3.25,1.3,6.17,1.31,7.1v.21c.01,1.22-.42,2.39-1.2,3.3-2.54,5.79-12.42,26.5-24.42,28.52-.6,.1-1.22,.15-1.82,.15-3.54,0-6.28-1.61-8.41-3.96-.22,1.65-.34,2.95-.36,3.87-.04,1.59,.27,2.33,1.35,4.65,1.28,2.76,3.03,6.53,4.63,13.83,2.92,13.27,5.75,43.8,5.87,45.09,.22,2.36-1.26,4.56-3.53,5.24-.18,.06-.37,.11-.55,.17,.03,.81,.08,2.47,.08,2.47,.01,.21,.02,.39,.03,.53,0,.07,0,.15,0,.22,.19,5.8,.4,12.23,.77,14.19,2.12,3.36,1.1,6.8,.5,8.76-.2,1.34,.58,5.92,1.21,9.61,.25,1.44,.51,2.96,.76,4.54,.5,3.13,1.03,7.06,1.54,10.86,.57,4.25,1.35,10.07,1.7,11.24,.47,1.51,.55,2.79,.6,3.74,1.54,1.44,2.08,2.98,2.25,4.09,.22,1.43-.03,2.83-.75,4.19,0,.08,.01,.15,.02,.22,.09,.89,.24,2.42-.37,3.89,0,.18,0,.36-.01,.53,12,2.52,17.2,6.01,17.2,11.38,0,4.95-3.62,10.41-30.39,13.44-1.7,.4-3.49,.61-5.21,.61-.28,0-.55,0-.83-.02-7.51,.64-15.53,.96-23.86,.96Zm0-29.99c4.21,0,8.38,.08,12.44,.25-.33-1.51,.05-2.84,.46-3.75-.2-.98-.64-2.67-.85-3.49-1.17-4.46-6.62-26.42-7.65-32.49-.41-2.44-.7-5.04-.96-7.34-.21-1.88-.49-4.4-.72-5.32-.05-.09-.1-.17-.15-.26-.77-1.26-2.8-4.62-.14-8.34l.02-.03c-.12-.39-.26-.85-.4-1.28-.4-1.27-.92-2.92-1.5-4.88-.35-.51-.62-1.09-.77-1.72l-.11-.46c-.15,.72-.45,1.38-.86,1.95-.17,1.77-.19,2.35-.19,2.51,0,1.96-.24,3.59-.42,4.78-.02,.14-.04,.3-.07,.45,1.58,2.07,1.94,4.51,1.01,6.89,.11,.61,.31,1.52,.46,2.18,.27,1.17,.54,2.39,.72,3.58,.31,2.11-.08,8.33-1.74,27.76-.32,3.69-.58,6.79-.7,8.46-.19,2.75-.14,5.26-.09,7.27,.03,1.23,.05,2.31,0,3.28,.74,0,1.47,0,2.21,0Z"/><g><ellipse class="as" cx="61.57" cy="312.69" rx="55.29" ry="10"/><g><g><path class="m" d="M69.4,86.28c-2.32,.99-4.33,2.98-6.68,3.89-.79,.31-2-.26-2.88-.32-.85-.06-1.61-.34-2.44-.53-1.14-.27-2.82-1.66-3.92-1.97-.02,1.27-1.78,3.79-1.89,5.04-.1,1.22-.79,.5-.94,1.72,0,0,2.65,1.98,2.66,1.97,.89,.67,1.89,1.18,2.89,1.7,1.12,.58,2,1.41,3.08,2.01,1.91,1.06,4-.6,5.65-1.47,1.03-.55,2.03-1.15,3.07-1.69,.66-.34,1.79-2.32,2.21-2.9-.11-3.01-.71-4.44-.82-7.46Z"/><path class="g" d="M68.04,91.38c-.86,.47-1.73,.93-2.65,1.33-1.09,.46-2.56,1.38-3.82,1.27-1.41-.12-2.69-.76-3.91-1.39-.93-.48-2-.85-2.86-1.45h-2.81s-9.58,4.95-17.32,7.71l10.36,67.28,27.55-.73,6.17-70.03s-5.58-1.25-10.71-3.98Z"/><path class="ai" d="M68.85,142.97c-.27-2.91-6.31-39.32-6.78-40.65-.38-.21-.79-.37-1.22-.42-.74-.1-1.33,.05-1.95,.26-.54,1.8-.84,3.7-1.17,5.53-.4,2.16-.7,4.34-.98,6.52-.54,4.25-3.32,31.57-3.32,35.64,1.23,1.66,5.69,7.3,7.18,7.22,1.16-.07,6.6-6.45,8.91-8.66-.11-1.82-.5-3.65-.66-5.43Z"/><path class="ae" d="M54.65,97.64c.41,1.03,1.34,2.55,1.9,3.29,.95,1.25,1.86,2.1,2.26,2.1,1.27,0,3.16-.03,3.37-.09,.89-.3,1.58-1.31,2.18-2.19,.18-.26,.35-.51,.51-.72,.25-.32,.42-.64,.6-.99,.1-.2,.21-.4,.33-.6-.25-.39-.27-.96-.29-1.51,0-.12,0-.24-.02-.36-.5-.69-1-1.22-1.54-1.63-.63,.07-1.23,.11-1.79,.13-1.26,.04-2.55-.1-3.66-.4-.89,.53-1.62,1.25-2.33,1.94-.25,.24-.49,.48-.73,.71-.05,.05-.1,.1-.15,.15l-.05,.04c0,.05-.03,.1-.07,.13-.11,.12-.32,.09-.52,0Z"/><g><path class="y" d="M48.82,95.56c.35,.3,.71,.61,1.08,.94,.24,.18,.57,.45,.9,.76,1.18,1.15,2.18,2.24,3.04,3.32,.11,.13,.22,.26,.34,.4l.05,.06c.25-.87,.59-1.65,1.03-2.33,.35-.58,.81-1.09,1.26-1.59l.29-.32c1.71-1.94,3.15-2.57,4.01-2.78-.21-.07-.42-.15-.62-.23-.39-.16-.78-.33-1.18-.5-.45-.19-.89-.38-1.34-.57-1.8-.75-3.31-1.52-4.62-2.35l-.13-.11c-.17-.15-.33-.31-.5-.46-.7,.73-1.29,1.62-1.79,2.4-.12,.2-.24,.41-.37,.6l-.16,.25c-.56,.91-.98,1.73-1.28,2.51Zm13.35-1.42c2.38,1.16,4.18,4.87,4.9,6.59,.93-.62,1.83-1.35,2.76-2.23,.78-.73,1.53-1.52,2.16-2.19,.12-.13,.25-.26,.39-.4,.51-.51,1.04-1.05,1.26-1.66-.43-.43-.75-.77-1.05-1.1-.48-.53-.94-1.08-1.38-1.61-.48-.59-.99-1.19-1.51-1.76,0,.22,.02,.44,.05,.66v.13l-.11,.06c-.58,.27-1.15,.61-1.69,.94-.54,.32-1.09,.65-1.67,.93-1.21,.58-2.52,1.11-4.11,1.64Z"/><path class="h" d="M48.82,95.56c.35,.3,.71,.61,1.08,.94,.24,.18,.57,.45,.9,.76,1.18,1.15,2.18,2.24,3.04,3.32,.11,.13,.22,.26,.34,.4l.05,.06c.25-.87,.59-1.65,1.03-2.33,.35-.58,.81-1.09,1.26-1.59l.29-.32c1.71-1.94,3.15-2.57,4.01-2.78-.21-.07-.42-.15-.62-.23-.39-.16-.78-.33-1.18-.5-.45-.19-.89-.38-1.34-.57-1.8-.75-3.31-1.52-4.62-2.35l-.13-.11c-.17-.15-.33-.31-.5-.46-.7,.73-1.29,1.62-1.79,2.4-.12,.2-.24,.41-.37,.6l-.16,.25c-.56,.91-.98,1.73-1.28,2.51Zm13.35-1.42c2.38,1.16,4.18,4.87,4.9,6.59,.93-.62,1.83-1.35,2.76-2.23,.78-.73,1.53-1.52,2.16-2.19,.12-.13,.25-.26,.39-.4,.51-.51,1.04-1.05,1.26-1.66-.43-.43-.75-.77-1.05-1.1-.48-.53-.94-1.08-1.38-1.61-.48-.59-.99-1.19-1.51-1.76,0,.22,.02,.44,.05,.66v.13l-.11,.06c-.58,.27-1.15,.61-1.69,.94-.54,.32-1.09,.65-1.67,.93-1.21,.58-2.52,1.11-4.11,1.64Z"/></g></g><path class="x" d="M63.38,165.26c-.85-.38-1.84-.28-2.76-.22-1.26,.09-2.49,.14-3.75,.32-.03,0-.04,.05,0,.06,2.12,.28,4.31-.14,6.45,.02,.1,0,.17-.13,.06-.18Z"/><path class="x" d="M64.19,165.63c-.1-.12-.22-.22-.39-.22-.07,0-.12,.05-.1,.11,.04,.14,.14,.23,.26,.31,.13,.09,.34-.07,.23-.2Z"/><path class="t" d="M56.2,183.54c.52,5.68,.9,11.61,3.89,16.71,.43-1.31-.09-2.81-.34-4.11-.3-1.52-.34-3.09-.51-4.62-.37-3.49-.77-6.98-.75-10.49,.02-4.24,.51-8.45,1.28-12.61l-3.55,.04c-1.57,4.81-.46,10.2-.02,15.09Z"/><g><g><path class="ad" d="M54.43,301.69c-.15-1.44-.2-4.09-1.16-5.28-.03-.05-.35,1.17-.38,1.13-.06-.08-.13-.14-.21-.19-.02-.02-.04-.05-.06-.08-.04-.04-.09-.04-.13-.02-.16-.05-.34-.05-.55-.03-1.03,.11-2.01,.24-3.06,.27-2.18,.07-4.36,.3-6.54,.35-.99,.02-2.71,.35-3.59-.19,0,0,0-.02,0-.03-.01-.07-.08-.08-.14-.05-.11-.05-.24,.05-.2,.15,.02,.07,.06,.13,.11,.18-.34,1.99-2.44,3.76-4.06,5.09-1.95,1.59-4.27,3.03-6.64,4.15-2.26,1.07-4.73,1.78-7.06,2.73-1.94,.79-2.71,2.05-2.96,3.8-.2,1.41-.27,3.13,1.44,3.89,2.26,1.02,4.88,.97,7.36,.85,2.66-.12,5.35-.22,7.99-.49,1.61-.16,3.23-.44,4.77-.88,1.95-.54,3.83-1.44,5.36-2.59,1.51-1.14,2.66-2.55,3.95-3.87,1.3-1.31,3-1.59,4.73-2.31,1.22-.5,1.51-1.14,1.48-2.24-.04-1.44-.29-2.94-.44-4.38Z"/><path class="p" d="M36.8,300.89c2.31,.4,4.44,1.5,6.84,1.55,2.11,.03,3.99-.81,5.93-1.39,1.19-.35,2.89-.86,4.08-.23,.31,.16,.55,.36,.75,.57-.13-1.48-.24-3.87-1.13-4.97-.03-.05-.35,1.17-.38,1.13-.06-.08-.13-.14-.21-.19-.02-.02-.04-.05-.06-.08-.04-.04-.09-.04-.13-.02-.16-.05-.34-.05-.55-.03-1.03,.11-2.01,.24-3.06,.27-2.18,.07-4.36,.3-6.54,.35-.99,.02-2.71,.35-3.59-.19,0,0,0-.02,0-.03-.01-.07-.08-.08-.14-.05-.11-.05-.24,.05-.2,.15,.02,.07,.06,.13,.11,.18-.18,1.06-.86,2.07-1.71,2.97Z"/><path class="n" d="M53.08,306.86c-.92,.5-1.91,.88-2.93,1.22-1.48,.49-2.25,1.37-3.25,2.34-1.65,1.61-3.45,3.2-5.73,4.18-2.19,.95-4.61,1.6-7.01,2.03-2.64,.47-5.33,.59-8.03,.5-2.32-.08-4.61-.21-6.76-1.02-.84-.32-1.38-.75-1.7-1.25,0,1.09,.29,2.17,1.54,2.73,2.26,1.02,4.88,.97,7.36,.85,2.66-.12,5.35-.22,7.99-.49,1.61-.16,3.23-.44,4.77-.88,1.95-.54,3.83-1.44,5.36-2.59,1.51-1.14,2.66-2.55,3.95-3.87,1.3-1.31,3-1.59,4.73-2.31,1.22-.5,1.51-1.14,1.48-2.24,0-.16-.02-.32-.03-.48-.55,.51-1.17,.94-1.76,1.27Z"/></g><g><path class="ad" d="M99.22,299.37c-.42-.67-.84-1.15-.86-1.95-.02-.68,.23-1.38,.4-2.04,.01-.03,0-.05-.03-.07,0-.04,0-.08,0-.12,0-.15-.17-.27-.35-.25-1.41,.18-2.73,.58-4.12,.81-1.44,.25-2.88,.49-4.31,.74-1.5,.26-3.02,.45-4.53,.67-1.47,.21-2.86,.63-4.37,.57-.19,0-.27,.22-.07,.26,.06,.01,.12,.02,.17,.03,.21,1.05,.47,2.1,.62,3.16,.17,1.31-.03,2.62-.33,3.91-.73,3.15-2,6.17-2.47,9.37-.32,2.2-.42,5.06,2.24,6.29,3.14,1.46,7.71,1.14,10.88-.04,.91-.34,1.83-.77,2.63-1.26,4.04-2.49,4.59-6.87,4.55-10.74-.02-2.38-.14-4.69,.29-7.05,.16-.89,.15-1.49-.36-2.31Z"/><path class="p" d="M80.99,298.01c.06,.01,.12,.02,.17,.03,.21,1.05,.47,2.1,.62,3.16,.04,.36,.06,.72,.06,1.09,1.54,1.03,3.46,1.82,5.38,2.12,2.79,.44,4.86-.61,7.23-1.67,1.12-.5,2.34-.94,3.41-1.52,.61-.33,1.13-.77,1.7-1.15-.07-.22-.18-.45-.33-.7-.42-.67-.84-1.15-.86-1.95-.02-.68,.23-1.38,.4-2.04,.01-.03,0-.05-.03-.07,0-.04,0-.08,0-.12,0-.15-.17-.27-.35-.25-1.41,.18-2.73,.58-4.12,.81-1.44,.25-2.88,.49-4.31,.74-1.5,.26-3.02,.45-4.53,.67-1.47,.21-2.86,.63-4.37,.57-.19,0-.27,.22-.07,.26Z"/><path class="n" d="M99.22,299.37c-.16-.25-.31-.48-.45-.7-.16,1.22-.36,2.44-.44,3.67-.16,2.63-.2,5.27-.54,7.89-.49,3.76-1.37,8.13-5.98,9.86-3.45,1.3-8.74,2.03-12.04-1.06-.78-.74-.89-1.75-.93-3.02-.08,1.85,.32,3.8,2.39,4.76,3.14,1.46,7.71,1.14,10.88-.04,.91-.34,1.83-.77,2.63-1.26,4.04-2.49,4.59-6.87,4.55-10.74-.02-2.38-.14-4.69,.29-7.05,.16-.89,.15-1.49-.36-2.31Z"/></g><g><path class="l" d="M53.07,217.57s2.65-3,6.95-2.74c4.3,.26,8.41,.7,8.41,.7v-32.37h-17.91l2.55,34.42Z"/><path class="at" d="M52.91,218.05l-2.6-35.07h18.31v32.76l-.22-.02s-4.16-.44-8.4-.7c-4.13-.26-6.76,2.65-6.78,2.68l-.31,.36Zm-2.18-34.71l2.51,33.8c.83-.78,3.25-2.7,6.79-2.49,3.69,.23,7.29,.59,8.2,.68v-31.99h-17.5Z"/></g><path class="i" d="M31.68,168.68l50.4-.47s8.66,37.06,9.12,50.78c.47,13.72,.57,21.74,1.55,23.02,.98,1.28,.89,2.54,.13,5-.76,2.46,.62,8.77,1.84,16.33,1.22,7.57,2.63,20.32,3.4,22.78,.76,2.46-.11,4.37,1.52,5.56,1.63,1.19,1.31,2.23,.6,3.19-.71,.96,.22,3.69-.27,4.06-.49,.36-8.23,4.15-11.33,4.42-3.11,.27-5.56-1.78-6.48-2.05-.93-.28-.71-2.05-1.91-2.92-1.2-.87-1.74-1.46-1.09-2.37,.65-.91,.6-1.55-.71-6.56-1.31-5.01-6.6-26.41-7.56-32.06-.96-5.65-1.24-12.52-2.11-14.04-.87-1.52-1.6-2.25-.73-3.47,.88-1.21,1.17-1.88,1.17-2.79s-3.73-10.57-6.21-23.79c-1.5-8.01-3.97-11.04-3.97-11.04,0,0-3.86,26.81-3.85,30.82,.02,4.01-1.32,6.44,0,7.66,1.32,1.21,1.18,2.19,.6,3.16-.58,.97,.73,4.86,1.16,7.78,.43,2.92-2.04,28.92-2.48,35.12-.43,6.2,.29,11.18-.36,11.73-.65,.55-9.26,3.37-10.78,3.28-1.52-.09-6.35-1.7-6.79-2.19-.44-.49-1.96-3.59-1.53-4.01,.44-.43,1.09-.97,1.24-1.4,.14-.43-2.18-20.47-2.83-24.85-.65-4.37,.59-18.35-.07-19.86-.65-1.52-1.67-2.43-.87-3.83,.8-1.4,.72-1.58-.07-6.14-.8-4.56-3.78-18.71-4.21-20.47-.43-1.76-4.55-21.34-3.22-50.36h6.71Z"/><g><path class="bc" d="M59.78,200.17c.08-.07,.16-.15,.24-.24-.22-4.56-.79-9.05-1.11-13.58-.35-5.03-.18-10.08-.33-15.12,0-.14-.1-.1-.11,.02-.05,5.04-.06,10.12,.2,15.15,.24,4.61,.78,9.16,1.11,13.76Z"/><path class="bc" d="M59.64,200.17c.09-.06,.18-.12,.26-.19-1.1-4.18-1.36-8.49-1.7-13.11-.38-5.18-.53-10.25-.34-15.46,0-.2-.15-.16-.17,0-.75,5.4-.23,11.37,.17,16.84,.28,3.7,.43,8.81,1.77,11.93Z"/></g><path class="t" d="M66.23,227.91c1.58,.11,23.58-2.37,25.19-2.58-.03-1.83-1.78-14.24-1.69-16.06,.17-3.45-19.34,2.08-19.33-1.37,.05-13.24-.88-26.48-3.1-39.57l-16.46,.17c.24,3.24,.45,6.48,.63,9.72,.26,4.53,.58,9.09,.69,13.63,.09,3.26-.13,6.46-.93,9.6,.24,4.1-24.62,2.51-24.55,6.64,.06,3.43,3.73,15.65,3.89,19.1,1.39,.17,24.38,.66,25.78,.4,1.03-9.21,3.04-25.33,3.04-25.33,0,0,2.23,3.03,3.59,11.04,.66,3.9,2.51,11.46,3.25,14.61Z"/></g><g><g><rect class="ac" x="51.89" y="166.22" width="16.53" height="4.02"/><path class="c" d="M68.62,170.42h-16.92v-4.38h16.92v4.38Zm-16.53-.37h16.14v-3.65h-16.14v3.65Z"/></g><path class="s" d="M51.89,166.22v4.02h16.53v-4.02h-16.53Zm12.64,1.67c-.06,.69,.31,1.08-.4,1.5-.82,.48-2.7,.37-3.58,.33-1.49-.08-5.44,.51-5.29-1.7,.05-.72,.38-1.34,1.29-1.27,.07,0,.14,0,.21,.01,1.22-.04,2.42-.12,3.64-.1,1.01-.05,2.08,0,2.99,.11,.76,.09,1.22,.32,1.15,1.11Z"/><g><path class="bi" d="M62.79,164.99h-5.5c-2.08,0-2.25,1.44-2.25,3.21s.18,3.21,2.25,3.21h5.5c2.08,0,2.19-1.44,2.19-3.21s-.11-3.21-2.19-3.21Zm-.67,5.39h-4.17c-1.57,0-1.71-.97-1.71-2.17s.13-2.18,1.71-2.18h4.17c1.57,0,1.66,.97,1.66,2.18s-.08,2.17-1.66,2.17Z"/><path class="b`" d="M62.12,170.56h-4.17c-1.9,0-1.9-1.42-1.9-2.36s0-2.36,1.9-2.36h4.17c1.85,0,1.85,1.31,1.85,2.36s0,2.36-1.85,2.36Zm-4.17-4.35c-1.28,0-1.51,.64-1.51,2s.22,1.99,1.51,1.99h4.17c1.36,0,1.46-.75,1.46-1.99s-.1-2-1.46-2h-4.17Z"/></g><g class="v"><path class="ax" d="M56.25,168.21s0-.04,0-.06c-.03,.07-.05,.14-.07,.21-.11,.59-.12,1.21,.03,1.7,.18,.32,.5,.57,1.04,.69,.66,.14,1.32,.17,1.99,.19,1.01,.03,2.06,.03,3.04-.21,1.24-.3,1.63-1.11,1.49-2.13-.03,1.01-.25,1.78-1.65,1.78h-4.17c-1.57,0-1.71-.97-1.71-2.17Z"/><path class="ax" d="M63.26,166.04c-.28-.25-.63-.26-1-.3-.75-.08-1.51-.09-2.27-.07-.69,.02-1.49,.02-2.25,.14-.4,.13-.74,.31-.97,.55,.26-.21,.63-.33,1.18-.33h4.17c1.17,0,1.51,.54,1.62,1.31-.02-.47-.06-.92-.48-1.3Z"/></g></g><path class="j" d="M43.33,222.2h0c-11.15,0-23.55-1.77-23.67-1.79l-.17-.03v-.15c0-.12-.2-12.3-.2-19.33s1.07-19.21,1.09-19.34v-.12l1.85-.63-.13-.85c-.38,.19-.79,.28-1.23,.28-.92,0-1.65-.42-1.68-.43l-.05-.03-.03-.05c-2.64-5.27-4.33-26.33-3.95-36.26,.38-10.05,7.2-34.33,9.66-40.33,1.91-4.67,5.7-5.46,10.09-6.38,1.13-.24,2.3-.48,3.47-.8,5.57-1.53,12.68-5.38,12.75-5.42l.3-.16v.32c0,.33-1.27,.27-1.36,.39-.27,.54-.95,4.6-.53,8.29,.26,2.35,.54,5.41,.77,8.11l1.3,6.45c.85,10.09,4.15,35.38,4.4,49.86,.26,15.26,0,56.61,0,57.03v.14l-.14,.04c-3,.79-7.21,1.19-12.52,1.19Z"/><path class="j" d="M22.24,201.28h0c-.86,0-1.79-.04-2.77-.12h-.18v-.24c0-7.04,1.07-19.21,1.09-19.34v-.12l1.43-.49c.33-.08,.66-.16,.99-.22,1.41-.26,2.87-.32,4.29-.38l.75-.03c1.94-.09,3.79-.09,5.53,0h.18v.18c.09,2.18,.17,4.53,.15,6.91v.7c-.02,2.71-.03,5.79-1.21,8.37-1.45,3.17-4.9,4.78-10.25,4.78Z"/><g><path class="av" d="M22.24,179.67l.15,.96c.54-.12,1.08-.24,1.62-.29,1.56-.16,3.14-.23,4.71-.28,1.54-.05,3.08-.05,4.62,.03-.03-.66-.05-1.33-.08-1.99h0c-.33-.78-.88-1.46-1.32-2.22-.15-.26-.36-.57-.35-.87,.02-.47,.22-1.09-.07-1.5-.63-.91-1.52-1.61-2.37-2.36-.97-.86-2.14-1.77-3.58-1.35-2.06,.6-3.87,2.58-5.02,4.22-.93,1.33-1.84,3.39-1.51,5.12,.08,.2,.16,.38,.24,.55,0,0,1.58,.91,2.95,0Z"/><path class="av" d="M22.23,180.86l-.14-.88c-.37,.19-.79,.28-1.23,.28h0c-.92,0-1.65-.42-1.68-.43l-.05-.03-.03-.05c-.09-.17-.17-.36-.25-.56-.34-1.79,.57-3.9,1.54-5.28,.91-1.31,2.8-3.61,5.12-4.29,.26-.08,.53-.11,.79-.11,1.19,0,2.16,.77,2.99,1.5,.14,.12,.27,.24,.41,.35,.71,.62,1.44,1.25,1.99,2.03,.25,.36,.19,.83,.14,1.24-.02,.13-.03,.25-.04,.37-.01,.22,.14,.47,.27,.69l.05,.09c.16,.27,.33,.53,.5,.78,.3,.46,.62,.94,.84,1.46l.02,.09,.09,2.17h-.22c-1.44-.08-2.97-.09-4.6-.04-1.39,.04-3.04,.11-4.7,.28-.55,.05-1.11,.18-1.6,.29l-.21,.05Zm.16-1.51l.16,1.06c.45-.1,.95-.2,1.44-.25,1.67-.17,3.33-.24,4.72-.28,1.56-.05,3.04-.04,4.42,.02l-.07-1.77c-.21-.47-.49-.91-.79-1.37-.17-.26-.34-.53-.51-.8l-.05-.09c-.15-.25-.33-.56-.32-.88,0-.12,.02-.26,.04-.4,.05-.37,.1-.75-.07-1-.52-.75-1.24-1.37-1.93-1.97-.14-.12-.27-.24-.41-.36-.77-.68-1.67-1.4-2.71-1.4-.22,0-.45,.03-.67,.1-2.29,.67-4.2,3.12-4.91,4.14-.93,1.33-1.8,3.33-1.49,4.99,.06,.14,.13,.3,.2,.45,.17,.08,.75,.35,1.42,.35h0c.47,0,.89-.13,1.26-.37l.26-.17Z"/></g><path class="e" d="M42.54,104.83c.17,.07,.33,.13,.5,.18,.91,.3,4.08,2.97,4.43,3.88,.05,.14,.05,.25,0,.34-.27,.42-1.16,.97-2.11,1.54-.89,.54-2.1,1.28-2.15,1.62,0,.02,0,.03,.02,.05,2.71,2.78,8.23,16.54,9.4,19.81,.44,1.23,.98,2.75,1.52,4.35-.83-11.65-1.79-23.06-2.21-28.06l-.13-1.59c-.23-2.7-.53-5.36-.79-7.7-.52-4.59-.77-7.01-.46-7.64,0-.02,.06-.1,.14-.22,.18-.27,.54-.81,.73-1.15-.25,.03-.64,.17-1.08,.41-.23,.13-.52,.27-.82,.43-1.16,.6-3.1,1.6-3.17,2.15-.19,.56-.39,1.1-.58,1.61-.24,.62-.48,1.27-.69,1.91-.33,1.02-.64,2.05-.95,3.06-.15,.5-.31,1.01-.46,1.52-.29,.96-.56,1.81-.86,2.68-.14,.4-.22,.65-.29,.81Z"/><path class="ax" d="M30.13,102.59c-.04-.07-.16-.03-.13,.05,.54,1.29,1.11,2.57,1.63,3.87,.52,1.3,.92,2.64,1.47,3.92,.03,.07,.15,.04,.14-.03-.43-2.69-1.91-5.34-3.11-7.81Z"/><path class="ay" d="M38.46,160.54c-.06-.19-.13-.38-.19-.57-.73-2.67-1.2-5.43-2.22-8.02-.03-.07-.14-.02-.12,.04,.53,1.51,.85,3.07,1.21,4.63-.87-2.52-1.84-5.03-3.13-7.36-.04-.06-.14,0-.12,.06,1.59,3.86,3.04,7.72,4.36,11.66,1.3,3.85,2.6,7.69,4.51,11.32,.02,.04,.1,0,.08-.04-1.71-3.82-3.07-7.76-4.39-11.71Z"/><path class="ay" d="M33.91,112.23c-.01-.07-.12-.05-.12,.01,.04,2.68-.16,5.32-.33,7.99-.18,2.81-.14,5.64-.26,8.45-.22,5.03-.93,10.02-1.25,15.04-.13-.13-.27-.26-.42-.39-2.15-2.53-4.69-4.71-8.08-5.64-.07-.02-.13,.08-.05,.1,1.71,.55,3.18,1.39,4.53,2.49,.71,.58,1.34,1.22,1.98,1.87-1.28-.78-2.74-1.4-4.07-1.78-2.18-.62-4.49-.32-6.1,1.26-.03,.03,.02,.09,.05,.06,2.01-1.58,4.31-1.67,6.7-.85,1.88,.64,3.33,1.8,4.96,2.78,.01,.01,.03,.02,.04,.03,0,0,.02,0,.04,0,.13,.08,.26,.16,.39,.23-.03,.5-.06,.99-.08,1.49-.25,5.62-.26,11.27-.29,16.89-.02,4.26,1.52,8.93-.22,13.03-.08,.19,.2,.31,.3,.12,.92-1.77,.93-3.84,.85-5.76-.09-2.17-.44-4.32-.48-6.49-.06-2.83,.07-5.67,.13-8.5,.06-2.88,.03-5.76,.13-8.64,.2-5.7,1.03-11.37,1.25-17.07,.11-2.82,.08-5.64,.21-8.45,.12-2.76,.63-5.57,.18-8.32Z"/><path class="ax" d="M30.94,184.59c-.48,1.69-.96,3.38-1.68,5-.77,1.72-1.85,3.23-3.06,4.7-.09,.11,.06,.22,.16,.13,2.81-2.42,4.09-6.41,4.7-9.81,.02-.08-.1-.09-.12-.01Z"/><g><path class="k" d="M71.57,91.69s2.33,.78,1.41,4.87c-.92,4.09-7.15,37.17-7.69,42.01-.53,4.84-.71,76.28,.87,82.23,0,0,15.61,.61,29.26-3.53,0,0-2.88-31.35-5.77-44.47-2.88-13.12-6.23-13.83-6.1-19.66,.13-5.83,3.47-21.41,3.47-21.41,0,0,2.62,17.98,11.28,16.52,8.66-1.46,18.5-19.68,21.25-26.97,0,0,.13-14.34-13.64-13.13l-5.9,13.37s-3.28-12.46-4.53-16.59c-1.25-4.13-2.69-4.25-6.1-5.59-3.41-1.34-17.82-7.66-17.82-7.66Z"/><path class="o" d="M70.78,219.56c-3.04-1.76-3.56-5.55-4.04-8.57-.56-3.6-1.08-7.21-1.55-10.82,.17,10.57,.47,18.78,.97,20.64,0,0,3.17,.12,7.9-.12-1.16-.22-2.28-.55-3.28-1.12Z"/><path class="j" d="M76.35,181.18c0,.05,0,.11,0,.16,.03,.84,.1,1.75,.22,2.87,.09,.82,.16,1.66,.23,2.47,.08,.91,.15,1.84,.26,2.76,.37,3.23,.83,7.26,4.23,9.19,1.8,1.02,3.86,1.58,5.8,1.58,1.39,0,2.68-.28,3.84-.83,.78-.37,1.54-.84,2.25-1.4-.86-7.33-1.69-13.49-2.47-18.31-1.04,.16-2.12,.21-3.16,.26-.74,.03-1.44,.07-2.1,.13-.72,.07-1.45,.14-2.18,.21-1.86,.17-3.78,.34-5.62,.66-.44,.08-.88,.16-1.31,.25Z"/><g class="v"><path class="al" d="M106.45,109.94c.34,1.17,.82,2.3,1.37,3.41,.82,1.67,1.77,3.27,3.22,4.54,2.44,2.15,5.38,3.01,8.51,3.32-.01-1.07-.43-14.16-13.55-13.06,.1,.65,.3,1.31,.44,1.79Z"/><path class="ag" d="M119.76,121.42l-.22-.02c-3.69-.37-6.44-1.44-8.63-3.37-1.54-1.36-2.52-3.09-3.26-4.6-.63-1.27-1.07-2.36-1.38-3.43l-.04-.12c-.13-.46-.32-1.08-.41-1.68l-.03-.19,.21-.02c5.67-.48,9.86,1.69,12.09,6.21,1.56,3.16,1.67,6.4,1.68,7.02v.2Zm-13.53-13.1c.09,.52,.25,1.03,.37,1.45l.04,.12c.31,1.06,.74,2.13,1.36,3.38,.73,1.48,1.68,3.17,3.18,4.49,2.09,1.83,4.69,2.87,8.18,3.25-.03-.94-.24-3.84-1.63-6.67-2.16-4.38-6.02-6.42-11.49-6.02Z"/></g><path class="r" d="M117.44,118.26c-1.16-2.13-2.59-4.3-4.63-5.81-1.86-1.36-4.05-1.9-6.3-2.32,.34,1.11,.79,2.17,1.31,3.22,.82,1.67,1.77,3.27,3.22,4.54,2.25,1.98,4.92,2.86,7.78,3.24-.42-.98-.88-1.94-1.39-2.87Z"/><g><path class="a`" d="M116.48,113.49c-.24-1.05-.68-1.94-1.25-2.77-1.57-1.38-3.7-2.39-6.61-2.59-.44,.76-.99,1.49-1.44,2.2-.13,.21-.26,.41-.39,.62,.3,.82,.65,1.61,1.04,2.4,.82,1.67,1.77,3.27,3.22,4.54,.98,.87,2.05,1.52,3.17,2.01,.36-.66,.72-1.33,1.06-2.01,.44-.88,.93-1.74,1.44-2.58-.02-.62-.09-1.24-.23-1.83Z"/><path class="ah" d="M114.3,120.15l-.18-.08c-1.21-.53-2.26-1.2-3.22-2.05-1.54-1.36-2.52-3.09-3.26-4.6-.42-.85-.77-1.65-1.05-2.42l-.03-.08,.44-.7c.18-.29,.38-.58,.58-.87,.29-.43,.59-.87,.85-1.32l.06-.1h.13c2.69,.2,4.95,1.08,6.73,2.65l.03,.03c.64,.91,1.06,1.84,1.29,2.83,.13,.57,.21,1.18,.24,1.87v.05l-.03,.04c-.55,.92-1.03,1.76-1.43,2.57-.37,.72-.74,1.42-1.07,2.01l-.08,.16Zm-7.31-9.18c.27,.74,.6,1.49,1,2.3,.73,1.48,1.68,3.17,3.18,4.49,.88,.77,1.85,1.4,2.94,1.9,.3-.55,.64-1.19,.97-1.84,.41-.8,.87-1.63,1.42-2.54-.03-.65-.1-1.22-.22-1.75-.21-.94-.61-1.82-1.21-2.69-1.68-1.47-3.82-2.32-6.35-2.52-.25,.42-.53,.83-.8,1.23-.2,.29-.39,.58-.57,.86l-.35,.55Z"/></g><path class="u" d="M116.71,115.32c-.02-.62-.09-1.24-.23-1.83-.24-1.05-.68-1.94-1.25-2.77-1.57-1.38-3.7-2.39-6.61-2.59-.27,.47-.59,.94-.9,1.39-.05,.63,.01,1.25,.41,1.88,.7,1.12,1.88,1.92,2.98,2.67,1.17,.79,2.44,1.9,3.99,1.87"/><path class="f" d="M65.16,141.34l.03-.86c.03-.94,.07-1.58,.11-1.91,.5-4.59,5.72-37.87,6.68-42.14,.87-3.85-.45-4.54-.46-4.55l-.3-.15,.29-.17s.21-.12,.61-.12c.22,0,.46,.03,.71,.1,2.7,.68,4.12,1.25,4.42,2.51,.53,1.63,1.03,3.31,1.51,4.93,.29,.97,.63,1.94,.97,2.89,.54,1.53,1.1,3.1,1.43,4.72l.04,.17-.19,.04c-1.21,.23-2.3,.81-3.36,1.36-.8,.42-1.62,.85-2.51,1.15-.02,0-.03,.01-.03,.03,.27,.3,.53,.56,.79,.83,1.21,1.23,2.47,2.51,3.34,4.03l.09,.15-.16,.09c-1.48,.86-2.28,2.68-2.93,4.14l-.11,.23c-.35,.79-.7,1.59-1.04,2.38-.73,1.67-1.48,3.4-2.3,5.09-2.57,5.28-4.93,9.95-7.19,14.28l-.4,.77Z"/><path class="ay" d="M90.6,104.37c-1.38,1.76-2.52,3.71-3.67,5.61-1.11,1.83-2.63,3.52-3.18,5.58-.02,.06,.08,.09,.11,.03,.16-.36,.34-.71,.54-1.05,.7,3.9,1.32,7.76,1.56,11.71,.24,3.98,.25,7.96,.39,11.95,0,.05,.09,.04,.09-.01,.14-3.99,.07-7.99-.17-11.97-.23-3.92-.61-8.04-1.79-11.83h0c.78-1.37,1.77-2.63,2.55-3.99,1.15-2.03,2.47-3.98,3.63-6,.02-.04-.04-.07-.06-.04Z"/><path class="ax" d="M100.55,120.68s-.02-.03-.03-.01c-.82,1.32-1.46,2.72-1.95,4.17-1.05,1.5-2.23,2.77-2.97,4.45-.71,1.6-1.03,3.4-.93,5.13,0,.13,.19,.09,.2-.02,.13-1.84,.38-3.56,1.12-5.28,.6-1.37,1.63-2.48,2.41-3.73-.12,.37-.23,.75-.33,1.14-.51,1.98-.81,4.23-.26,6.23,.03,.11,.22,.06,.21-.05-.22-2.09-.15-4.08,.34-6.14,.48-2.03,1.3-3.97,2.19-5.87Z"/></g><g class="aw"><g><path class="ak" d="M21.5,173.21c.13,.7,1.47,10.6,1.69,14.37,.23,3.76,1.69,6.53,4.18,6.87,2.48,.34,1.35-14.51,2.37-14.97,1.02-.47,2.55,3.93,4.94,3.09,2.39-.83-2.91-6.76-3.61-8.03-.7-1.27-2.37-1.84-2.45-3.11-.08-1.26-1.84-1.97-3.39-1.5-1.55,.47-3.86,2.59-3.73,3.3Z"/><path class="m" d="M27.45,194.63s-.08,0-.11,0c-2.48-.34-4.1-2.97-4.34-7.04-.22-3.73-1.56-13.67-1.69-14.35-.16-.83,2.26-3.02,3.86-3.5,.34-.1,.69-.15,1.05-.15,1.42,0,2.54,.79,2.6,1.82,.04,.66,.56,1.11,1.16,1.63,.47,.41,.95,.83,1.27,1.4,.15,.28,.55,.81,1.02,1.43,1.44,1.93,3.63,4.85,3.17,6.21-.11,.31-.33,.53-.68,.65-.22,.08-.45,.12-.67,.12-1.25,0-2.21-1.18-2.99-2.13-.45-.54-.91-1.1-1.19-1.1-.03,0-.05,0-.07,.01-.29,.24-.37,2.85-.44,5.15-.18,5.77-.42,9.85-1.93,9.85Z"/></g><path class="bf" d="M31.38,180.55c-.68-1.39-1.83-3.01-3.7-2.41-.05,.02-.04,.09,.02,.08,1.3-.17,1.94,.4,2.53,1.13-.66-.38-1.52-.42-2.3-.33-.04,0-.06,.08,0,.08,1.1,.03,1.92,.28,2.75,.96,.03,.03,.07,.02,.1,.01,.15,.19,.3,.38,.46,.56,.06,.06,.19,0,.16-.08Z"/></g><g><g><g><path class="af" d="M45.84,154.27c-1.02-.06-1.78-.35-2.18-.83-1.03-1.26-2.46-4.87-2.53-5.02l.86-.29s1.45,3.64,2.39,4.8c.8,.97,4.77,.72,9.17-1.9l.49,.71c-3.16,1.88-6.19,2.66-8.21,2.53Z"/><path class="am" d="M52.61,150.43s-.09,1.37,1.02,2.52c0,0,.81,.78,3.74-1.65,0,0,.03-1.21-.84-2.1,0,0-3.25,.05-3.92,1.23Z"/></g><g><path class="ar" d="M45.07,154.17c1-.18,1.72-.55,2.05-1.08,.85-1.37,1.77-5.12,1.82-5.28l-.89-.19s-.94,3.78-1.72,5.04c-.65,1.06-4.63,1.27-9.36-.81l-.39,.76c3.39,1.5,6.5,1.91,8.5,1.55Z"/><path class="am" d="M37.82,151.15s.28,1.35-.67,2.62c0,0-.7,.87-3.92-1.19,0,0-.2-1.2,.54-2.18,0,0,3.23-.33,4.05,.75Z"/></g><path class="am" d="M44.8,93.88c.91-.66,1.74-1.42,2.54-2.22-2.85,.99-5.35,2.43-7.18,4.94-3.74,5.12-2.45,12.68-1.59,17.69,.13,.79,.26,1.52,.36,2.17,.35,2.4,.62,3.9,.8,4.81-.09,.03-.18,.07-.26,.1-2.19,1-3.56,4.05-3.68,8.16-.15,5.32,4.99,17.79,5.21,18.32l1.7-.61c-.05-.13-5.23-12.68-5.09-17.67,.1-3.37,.82-5.6,2.34-6.3,.93-.42,2.71-.17,4.11,.77,4.42,2.98,5.13,17.78,3.53,23.09l1.76,.46c1.57-5.21,1.11-21.5-4.5-25.27-1.29-.87-2.39-1.22-3.31-1.29-.17-.85-.45-2.32-.81-4.8-.1-.67-.22-1.41-.36-2.21-.86-5.02-2.03-11.9,1.3-16.47,.42-.58,.89-1.09,1.41-1.54"/><path class="am" d="M40.67,116.22s.76,4.6,.84,5.01c.09,.41,.21,.58,.84,.79,0,0,.3,.03,.16,.37-.13,.35-.32,1.11-.3,1.48,.02,.37,.08,.52-.21,.49-.3-.03-1.42-.46-2.23,.16-.28,.21-.34,.17-.54-.23-.2-.39-.64-1.39-.69-1.63-.05-.23,.35-.28,.55-.39,.21-.12,.4-.15,.28-.91-.13-.76-.77-4.54-.83-4.94-.05-.39,.39-.47,.89-.62,.49-.14,1.2,.03,1.24,.4Z"/><path class="bb" d="M40.06,121.89s.01-.04,0-.06c-.02-.11,.43-.14,.46,0,0,.04,.01,.07-.02,.11-.09,.1-.51,.04-.44-.03Z"/></g><g><g><path class="am" d="M79.89,142.18c-1.09,3.2-4.77,4.98-8.23,3.97-3.45-1.01-5.38-4.42-4.29-7.62,1.09-3.2,4.77-4.98,8.23-3.97,3.46,1.01,5.38,4.42,4.28,7.62Z"/><path class="q" d="M79.14,137.06c.34,.86,.42,1.87,.37,2.73-.13,2.16-1.03,3.9-3.24,4.84-2.39,1.01-5.41,.32-7.41-1.11-.86-.61-1.39-1.41-1.71-2.29,.36,2.22,2.03,4.18,4.51,4.91,3.45,1.01,7.14-.77,8.23-3.97,.61-1.79,.27-3.65-.75-5.11Z"/><path class="bb" d="M75.4,140.73c-.32,.95-1.42,1.48-2.45,1.18-1.03-.3-1.6-1.32-1.27-2.27,.32-.95,1.42-1.48,2.45-1.18,1.03,.3,1.6,1.32,1.28,2.27Z"/></g><path class="am" d="M79.45,93.98c-.27-.35-1.67-.73-2.05-.49-.38,.24-.2,.31,.67,1.38,3.54,4.34-2.01,32.33-4.35,42.32-.03,.11-.02,.23,0,.33,.04-.04,.09-.07,.14-.08,.52-.08,.95,.11,1.34,.38,.07-.09,.12-.19,.15-.3,.02-.09,2.14-9.2,3.71-18.89,.8-4.92,3.25-20.82,.38-24.65Z"/></g></g><g><g><path class="m" d="M116.54,111.99c4.86-1.13,6.98-5.77,6.98-5.77,7.89-2.04,8.43-3.38,8.41-4.57s-1.41-.93-1.41-.93l-6.73,1.7s6.4-5.49,7.48-8.57c1.08-3.08-.92-2.84-3.48-.46-2.56,2.38-5.01,4.51-5.01,4.51,0,0-.81-.02-.22-1.14s4.81-8.69,4.81-8.69c0,0,.96-1.4-.29-2.33s-3.06,.95-8.4,9.2c0,0-.37-1.02,1.15-6.61,0,0,1.09-4.32-.96-5.59,0,0-1.58,0-4.34,10.71,0,0-1.58,5.12-3.14,6.13,0,0-.23,.46-1.27-1.59s-2.9-3.67-5.12-2.4c0,0-1.19,.39,.48,2.06,1.67,1.67,2.01,3.14,2.47,5.83s.45,2.69,1.88,5.31l-1.71,2.61s4.13,4.51,6.97,4.54l1.2-3.53"/><g><path class="ak" d="M115.36,93.15s9.3,3.12,8.62,10.1"/><path class="ba" d="M115.36,93.15c4.56,.86,9.86,4.95,8.62,10.1-.31-4.96-4.69-7.85-8.62-10.1h0Z"/></g></g><path class="m" d="M110.94,99.35s3.55,1.9,4.05,5.44"/></g><g><path class="m" d="M93.93,66.04c-2.49,4.26-7.02,5.71-10.4,3.73-3.38-1.98-1.85-4.34,.64-8.59s2.55-3.74,6.21-5.12c8.03-3.04,6.05,5.73,3.55,9.99Z"/><path class="ap" d="M91.52,58.07c.56-.13,1.21-.08,1.64,.3,.58,.51,.59,1.41,.46,2.17-.45,2.68-1.99,5.1-3.97,6.97-.32,.3-.67,.6-1.09,.74-.42,.14-.93,.09-1.24-.22-.34-.36-.33-.94-.16-1.4,.43-1.19,1.6-1.89,2.58-2.69,.27-.22,.53-.45,.68-.76s.17-.7-.04-.98c-.16-.21-.43-.32-.69-.39-.55-.15-1.08-.13-1.63-.15-.16-.83,.57-1.54,1.09-2.07,.66-.68,1.42-1.3,2.36-1.51Z"/></g><g><path class="m" d="M29.4,62.35c1.66,4.49,5.34,6.42,8.41,4.81,3.07-1.61,2.03-4.11,.37-8.61-1.66-4.49-1.76-3.98-4.72-5.75-6.48-3.87-5.72,5.06-4.06,9.55Z"/><path class="ap" d="M32.28,54.69c-.46-.19-1.01-.21-1.42,.12-.55,.44-.65,1.34-.62,2.11,.1,2.71,1.14,5.28,2.62,7.35,.24,.34,.5,.67,.84,.85s.78,.19,1.07-.09c.33-.32,.38-.9,.29-1.38-.24-1.22-1.16-2.05-1.9-2.95-.2-.24-.4-.51-.49-.83s-.07-.72,.14-.97c.16-.2,.4-.27,.63-.31,.48-.09,.92-.02,1.4,.02,.23-.81-.32-1.59-.7-2.17-.48-.74-1.07-1.44-1.84-1.75Z"/></g><path class="m" d="M91.02,47.91c1.52-16.36-6.56-27.77-25.16-29.05-18.06-1.24-29.2,7.39-30.72,23.75-.7,7.56,.1,20.77,.12,21.19,1.24,23.78,25.04,27.16,26.11,26.97,3.75-.68,20.42,.1,26.04-23.37,.1-.4,2.91-11.92,3.61-19.48Z"/><path class="ad" d="M54.63,46.07c-2.04-.67-9.36-1.07-11.41,3.25,0,0,5.94-1.9,10.91-.9,0,0,1.54-2.01,.5-2.35Z"/><path class="ad" d="M70.22,46.23c2.1-.47,9.42-.18,11.05,4.32,0,0-5.73-2.46-10.78-1.94,0,0-1.34-2.15-.28-2.39Z"/><path class="ap" d="M44.49,34.79s1.04,2.52,12.69,4.21c5.51,.8,11.13,.2,16.34-1.76l4.13-1.55s5.29-5.68,7.61,11.36l3.34,14.68,.45-30.53-42.51-6.75-7.01,6.43-5.1,8.16s.18,13.24,.5,18.99l3.11-12.67s4.77-.39,6.45-10.58Z"/><path class="ad" d="M84.75,35.18l.02,2.08,3.83,24.48s2.5-5.39,3.41-8.41c0,0,1.77-7.79,.84-13.44,0,0-.18,1.74,.15,4.48,0,0,4.52-14.58-5.67-25.33,0,0,.81,3.58,4.81,6.05,0,0-5.52-16.55-21.47-18.46-8.34-.99-20.55-.21-24.94,7.91,0,0-6.84-1.8-12.31,10.79,0,0-1.47,3.69,6.65-6.28,0,0-5.41,1.25-8.37,13.48-2.79,11.55-.28,18.32,2.94,26.81,0,0,.1-9.59,3.14-16.52l.13,1.55s2.84,0,5.94-11.87c0,0-1.21,1.87,7.18,4.23,9.57,2.69,19.72,2.56,29.27-.23l4.46-1.3Z"/><g><g><ellipse class="w" cx="73.37" cy="59.07" rx="5.66" ry="5.43" transform="translate(10.21 128.95) rotate(-86.73)"/><path class="be" d="M78.83,59.38c-.05,2.93-2.61,5.73-5.8,5.69-8.04-.38-7.34-12.55,.69-12.01,3.17,.32,5.39,3.4,5.11,6.32h0Zm-.07,0c.16-7.41-10.06-8-10.72-.61-.18,7.42,10.04,7.99,10.72,.61h0Z"/></g><ellipse class="bg" cx="73.38" cy="58.83" rx="3.52" ry="3.38" transform="translate(10.46 128.74) rotate(-86.73)"/><ellipse class="an" cx="74.71" cy="57.18" rx="1.02" ry=".98" transform="translate(13.35 128.51) rotate(-86.73)"/></g><g><g><ellipse class="w" cx="50.99" cy="57.72" rx="5.65" ry="5.43" transform="translate(-9.55 105.33) rotate(-86.73)"/><path class="be" d="M56.44,58.03c-.05,2.92-2.62,5.73-5.8,5.69-8.04-.38-7.34-12.53,.69-11.99,3.16,.32,5.39,3.39,5.11,6.31h0Zm-.07,0c.16-7.4-10.06-7.99-10.72-.61-.18,7.41,10.04,7.98,10.72,.61h0Z"/></g><ellipse class="bg" cx="51" cy="57.48" rx="3.51" ry="3.38" transform="translate(-9.29 105.11) rotate(-86.73)"/><ellipse class="an" cx="52.5" cy="56.17" rx="1.02" ry=".98" transform="translate(-6.58 105.38) rotate(-86.73)"/></g><g><path class="bd" d="M51.67,73.3s4.27,9.24,10.08,9.62c6.57,.43,9.77-9.29,9.77-9.29,0,0-9.67,3.11-19.86-.33Z"/><path class="au" d="M52.72,73.97s4.39,6.88,10.21,6.51c4.8-.3,7.4-6.74,7.4-6.74,0,0-7.42,3.66-17.6,.23Z"/><path class="bh" d="M54.31,74.06s2.09,4.57,9.37,3.72c0,0,3.98-.22,5.21-3.19,0,0-8.04,2.41-14.58-.53Z"/><path class="aq" d="M50.19,72.79s.08,.1,.28,.19c4.52,2.16,15.54,5.35,21.77-.75,0,0-2.88,2.56-9.03,2.9-6.15,.33-13.02-2.33-13.02-2.33Z"/><path class="d" d="M58.52,79.44s1.3-1,3.41-.52c0,0,1.61-1.01,4.22,.36,0,0-3.42,2.85-7.63,.16Z"/></g><path class="ad" d="M61.75,68.79s5.9,5.61-1.84,5.42c-3.21-.08-9.1-.77-9.1-.77l.58,1.74-1.15-1.61c-.82-1.15,0-2.74,1.41-2.74h0c7.18-2.13,8.44-2.81,10.09-2.03h0Z"/><path class="ad" d="M61.92,68.7s-5.01,5.52,1.76,5.42c3.07-.04,8.72-.77,8.72-.77l-.56,1.74,1.15-1.69c.77-1.13-.04-2.66-1.41-2.66h0c-3.65-.97-6.16-1.84-9.67-2.03h0Z"/><g><path class="ak" d="M57.62,66.29s1.41,1.63,3.42,2.31c2.02,.67,5.16-1.81,5.16-1.81"/><path class="ao" d="M57.62,66.29c2.05,1.33,3.92,2.59,6.32,1.43,.74-.28,1.48-.61,2.25-.94-.53,.66-1.18,1.2-1.91,1.64-2.49,1.73-5.32,.24-6.66-2.13h0Z"/></g><path class="f" d="M31.75,165.32l.68,8.62c-10.34,1.66-13.25,5.88-13.25,5.88,0,0-1.46-2.84-2.14-10.45"/></g></g></g></g></g></svg>