<?xml version="1.0" encoding="UTF-8"?><svg xmlns="http://www.w3.org/2000/svg" xmlns:xlink="http://www.w3.org/1999/xlink" viewBox="0 0 233.25 216.01"><defs><style>.e{fill:url(#d);}.e,.f{stroke:#3d2c4f;}.e,.f,.g,.h{stroke-miterlimit:10;}.e,.i,.j{mix-blend-mode:screen;}.f,.k{fill:#605448;}.i{fill:#fff;}.l,.m{opacity:.4;}.l,.m,.h,.k{mix-blend-mode:multiply;}.l,.h{fill:#7f2811;}.n{isolation:isolate;}.m{fill:#b26e36;}.g{fill:url(#c);}.g,.h{stroke:#5b180b;}.h{opacity:.6;}.o{fill:url(#b);}.k,.j{opacity:.5;}</style><linearGradient id="b" x1="-1275.18" y1="3472.23" x2="-1203.46" y2="3472.23" gradientTransform="translate(-1542.01 -3081.1) rotate(-47.71)" gradientUnits="userSpaceOnUse"><stop offset="0" stop-color="#ffc871"/><stop offset="1" stop-color="#efb560"/></linearGradient><linearGradient id="c" x1="-1275.18" y1="3375.97" x2="-1203.46" y2="3375.97" xlink:href="#b"/><linearGradient id="d" x1="-1246.13" y1="3447.15" x2="-1239.66" y2="3447.15" gradientTransform="translate(1414.67 -3289.34)" xlink:href="#b"/></defs><g class="n"><g id="a"><g><path class="i" d="M199.72,208.91c-1.23,0-2.43-.45-3.37-1.3l-25.94-23.59c-.87-.79-1.44-1.87-1.59-3.04l-2.24-16.8L29.59,39.57l-2.99,3.29c-.96,1.05-2.3,1.64-3.7,1.64-.24,0-.48-.02-.72-.05-1.64-.24-3.06-1.28-3.78-2.77L3.6,11.07c-.89-1.84-.57-4.03,.8-5.54,.97-1.06,2.32-1.64,3.7-1.64,.58,0,1.17,.1,1.74,.31l31.86,11.84c1.56,.58,2.72,1.89,3.12,3.51,.39,1.61-.04,3.32-1.16,4.54l-2.99,3.29,136.99,124.6,16.94,.64c1.18,.04,2.3,.5,3.17,1.3l6.16,5.6c.98,.89,1.57,2.14,1.63,3.46,0,.14,0,.28,0,.42l.2-.02c.15-.01,.31-.02,.46-.02,1.24,0,2.44,.46,3.36,1.3l14.12,12.85c1.35,1.23,1.92,3.1,1.5,4.87-.43,1.78-1.79,3.18-3.55,3.65l-6.55,1.78c.12,.32,.21,.63,.29,.94,.04,.14,.06,.23,.08,.32,.1,.45,.16,.96,.18,1.45v.31c0,.51-.04,1.04-.14,1.55-.01,.07-.04,.21-.06,.27-.13,.56-.32,1.07-.54,1.54-.05,.1-.13,.25-.18,.34-.24,.44-.56,.9-.92,1.31-.06,.07-.15,.16-.23,.24-.16,.17-.31,.32-.48,.45-.2,.17-.4,.32-.62,.45-1.27,.87-2.81,1.34-4.42,1.34-.64,0-1.41-.07-2.26-.29l-1.15,6.69c-.31,1.8-1.58,3.29-3.3,3.88-.53,.18-1.08,.27-1.62,.27Z"/><g><polygon class="o" points="173.78 180.32 199.71 203.91 202.8 185.99 220.35 181.22 206.23 168.38 194.93 169.43 200.57 163.23 194.41 157.63 170.63 156.73 173.78 180.32"/><polygon class="h" points="173.78 180.32 199.71 203.91 202.8 185.99 220.35 181.22 206.23 168.38 194.93 169.43 200.57 163.23 194.41 157.63 170.63 156.73 173.78 180.32"/><polygon class="l" points="185.42 190.91 199.71 203.91 202.8 185.99 220.35 181.22 212.23 173.84 192.59 176.7 183.44 168.38 185.42 190.91"/><path class="g" d="M208.32,186.64c5.2,4.73,.85,9.51-4.35,4.78L26.03,29.57l4.35-4.78L208.32,186.64Z"/><polygon class="m" points="34.16 36.97 42.09 35.44 30.38 24.79 26.03 29.57 34.16 36.97"/><path class="l" d="M209.85,192.76c1.3-1.12,1.21-3.63-1.53-6.13L30.38,24.79l-2.36,2.59L209.85,192.76Z"/><polygon class="f" points="8.1 8.9 22.9 39.5 31.43 30.12 39.96 20.74 8.1 8.9"/><polygon class="k" points="39.96 20.74 8.1 8.9 31.43 30.12 39.96 20.74"/><rect class="e" x="168.55" y="155.49" width="6.47" height="4.57" transform="translate(-60.52 178.69) rotate(-47.71)"/></g><path class="j" d="M204.72,213.91c-1.23,0-2.43-.45-3.37-1.3l-25.94-23.59c-.87-.79-1.44-1.87-1.59-3.04l-2.24-16.8L34.59,44.57l-2.99,3.29c-.96,1.05-2.3,1.64-3.7,1.64-.24,0-.48-.02-.72-.05-1.64-.24-3.06-1.28-3.78-2.77L8.6,16.07c-.89-1.84-.57-4.03,.8-5.54,.97-1.06,2.32-1.64,3.7-1.64,.58,0,1.17,.1,1.74,.31l31.86,11.84c1.56,.58,2.72,1.89,3.12,3.51,.39,1.61-.04,3.32-1.16,4.54l-2.99,3.29,136.99,124.6,16.94,.64c1.18,.04,2.3,.5,3.17,1.3l6.16,5.6c.98,.89,1.57,2.14,1.63,3.46,0,.14,0,.28,0,.42l.2-.02c.15-.01,.31-.02,.46-.02,1.24,0,2.44,.46,3.36,1.3l14.12,12.85c1.35,1.23,1.92,3.1,1.5,4.87-.43,1.78-1.79,3.18-3.55,3.65l-6.55,1.78c.12,.32,.21,.63,.29,.94,.04,.14,.06,.23,.08,.32,.1,.45,.16,.96,.18,1.45v.31c0,.51-.04,1.04-.14,1.55-.01,.07-.04,.21-.06,.27-.13,.56-.32,1.07-.54,1.54-.05,.1-.13,.25-.18,.34-.24,.44-.56,.9-.92,1.31-.06,.07-.15,.16-.23,.24-.16,.17-.31,.32-.48,.45-.2,.17-.4,.32-.62,.45-1.27,.87-2.81,1.34-4.42,1.34-.64,0-1.41-.07-2.26-.29l-1.15,6.69c-.31,1.8-1.58,3.29-3.3,3.88-.53,.18-1.08,.27-1.62,.27Z"/></g></g></g></svg>