<?xml version="1.0" encoding="utf-8"?>
<!-- Generator: Adobe Illustrator 26.2.1, SVG Export Plug-In . SVG Version: 6.00 Build 0)  -->
<svg version="1.1" id="a" xmlns="http://www.w3.org/2000/svg" xmlns:xlink="http://www.w3.org/1999/xlink" x="0px" y="0px"
	 viewBox="0 0 271 272" style="enable-background:new 0 0 271 272;" xml:space="preserve">
<style type="text/css">
	.st0{opacity:0.5;enable-background:new    ;}
	.st1{clip-path:url(#SVGID_00000059273589781610826250000013603559521444787345_);}
	.st2{clip-path:url(#SVGID_00000132059249527992752950000015047682824668187784_);}
	.st3{fill:url(#SVGID_00000023981626472633731790000011216318900003393702_);}
	.st4{fill:url(#SVGID_00000010993064496017997460000002699416241731275914_);}
	.st5{fill:url(#SVGID_00000047765403398008933680000005817107746981266854_);}
	.st6{fill:url(#SVGID_00000137092239137740654200000008870120405790654851_);}
	.st7{fill:#81BFE0;}
	.st8{fill:#B3D6D8;}
	.st9{fill:url(#SVGID_00000142151840180262426290000000894447664990206631_);}
	.st10{fill:url(#SVGID_00000002384921286114519290000008373564113243540401_);}
	.st11{fill:url(#SVGID_00000060749220280036477970000002419765148172882073_);}
	.st12{fill:url(#SVGID_00000045595536860045521790000008592764511689773751_);}
	.st13{fill:#61A6BC;}
	.st14{fill:url(#SVGID_00000158721704132632757180000011836839174493023909_);}
	.st15{fill:url(#SVGID_00000147192837825737335070000001188027975877614253_);}
	.st16{fill:url(#SVGID_00000132088353776895353510000008654896206435180170_);}
	.st17{fill:url(#SVGID_00000165935046339539302990000002474331122110532237_);}
	.st18{fill:url(#SVGID_00000007413468412233606620000013752235938370830246_);}
	.st19{fill:url(#SVGID_00000142152165351921615500000004201965110900797353_);}
	.st20{fill:url(#SVGID_00000102515402174268357800000014791131532033879197_);}
	.st21{fill:url(#SVGID_00000156548235445346714970000013063352032911006088_);}
	.st22{fill:#95CECE;}
	.st23{fill:url(#SVGID_00000111903648711956177120000017697989202608655261_);}
	.st24{fill:#6FA68C;}
	.st25{fill:url(#SVGID_00000014592849815784758940000011791776091658857353_);}
	.st26{fill:#85A13D;}
	.st27{fill:url(#SVGID_00000035492202545894400220000017736166252233481350_);}
	.st28{fill:#61833A;}
	.st29{fill:#A2C83A;}
	.st30{fill:#84A73E;}
	.st31{fill:#6A808C;}
	.st32{fill:url(#SVGID_00000060717486869784283370000015836097198337329339_);}
	.st33{fill:url(#SVGID_00000018232767067121781030000011888751971055100592_);}
	.st34{fill:url(#SVGID_00000165213460737003037780000005053934695485948598_);}
	.st35{fill:url(#SVGID_00000168117354606389788810000008174686750725261212_);}
	.st36{fill:url(#SVGID_00000108302442927696933800000008996100275634914957_);}
	.st37{fill:#5B5B5D;}
	.st38{fill:url(#SVGID_00000025401907521957604460000002399411376385323658_);}
	.st39{fill:url(#SVGID_00000092423343499826825550000012036880321642458770_);}
	.st40{fill:url(#SVGID_00000048470469272857981570000003926982680173459103_);}
	.st41{fill:url(#SVGID_00000122722225829986772450000003057425872880271039_);}
	.st42{fill:url(#SVGID_00000025423339555939199880000016027945378053759676_);}
	.st43{fill:#535149;}
	.st44{fill:url(#SVGID_00000042730264759206004440000009934532403295256465_);}
	.st45{fill:url(#SVGID_00000058558084546485234510000016408638157714573699_);}
	.st46{fill:#615E5E;}
	.st47{fill:url(#SVGID_00000140693254101330654260000009855292925753445803_);}
	.st48{fill:url(#SVGID_00000068637827241151425670000014663220945455615406_);}
	.st49{fill:url(#SVGID_00000013879545036602939870000004749791261137585027_);}
	.st50{fill:#FFFFFF;}
</style>
<path class="st0" d="M223.8,6.9H48.3C24.8,6.9,5.6,26,5.6,49.5v175.5c0,25.8,21,46.8,46.8,46.8h171.4c25.8,0,46.8-21,46.8-46.8V53.7
	C270.6,27.9,249.6,6.9,223.8,6.9L223.8,6.9z M263.1,225.1c0,21.7-17.6,39.2-39.2,39.2H52.4c-21.7,0-39.2-17.6-39.2-39.2V52.4
	c0-21,17-37.9,38-37.9h172.7c21.7,0,39.2,17.6,39.2,39.2V225.1z"/>
<g>
	<defs>
		<path id="SVGID_1_" d="M34,7.6h197.7c14.4,0,26.1,11.7,26.1,26.1v197.8c0,14.4-11.7,26.1-26.1,26.1H34
			c-14.4,0-26.1-11.7-26.1-26.1V33.8C7.9,19.3,19.6,7.6,34,7.6z"/>
	</defs>
	<clipPath id="SVGID_00000166641240651598135820000002807396132792377234_">
		<use xlink:href="#SVGID_1_"  style="overflow:visible;"/>
	</clipPath>
	<g style="clip-path:url(#SVGID_00000166641240651598135820000002807396132792377234_);">
		<g>
			<g>
				<defs>
					<rect id="SVGID_00000160154357144206986080000006863327558645709701_" x="-103.7" y="-1.2" width="468.1" height="263.3"/>
				</defs>
				<clipPath id="SVGID_00000145737026646630211530000009669220366201895557_">
					<use xlink:href="#SVGID_00000160154357144206986080000006863327558645709701_"  style="overflow:visible;"/>
				</clipPath>
				<g style="clip-path:url(#SVGID_00000145737026646630211530000009669220366201895557_);">
					<g>
						
							<linearGradient id="SVGID_00000067204990323710506440000000253795533483781531_" gradientUnits="userSpaceOnUse" x1="131.0025" y1="113.76" x2="133.1525" y2="353.35" gradientTransform="matrix(1 0 0 -1 0 274)">
							<stop  offset="0.2" style="stop-color:#FAF6BE"/>
							<stop  offset="0.35" style="stop-color:#DDE9CE"/>
							<stop  offset="0.62" style="stop-color:#B1D7E6"/>
							<stop  offset="0.75" style="stop-color:#A1D0F0"/>
						</linearGradient>
						<path style="fill:url(#SVGID_00000067204990323710506440000000253795533483781531_);" d="M372.7,98.1
							c0.4-9.7,0.9-19.3,1.8-28.9v-83.6h-484.5v167.3h482.5C372,134.6,372,116.3,372.7,98.1L372.7,98.1z"/>
						
							<linearGradient id="SVGID_00000083073281636458787480000005398654906814889376_" gradientUnits="userSpaceOnUse" x1="126.56" y1="224.71" x2="126.56" y2="152.81" gradientTransform="matrix(1 0 0 -1 0 274)">
							<stop  offset="2.000000e-02" style="stop-color:#BEE4F8"/>
							<stop  offset="0.6" style="stop-color:#E9F5F8"/>
							<stop  offset="0.97" style="stop-color:#F9FAEE"/>
						</linearGradient>
						<path style="fill:url(#SVGID_00000083073281636458787480000005398654906814889376_);" d="M372.3,98.2
							c0.4-12.1,1.2-24.2,2.4-36.2c-4.3,0.7-8.8,1.7-12.9,3.2c-13.3,4.8-48,9.7-55.9,4c-4.8-3.4-9.2-7.4-16.9-10.5
							c-20.4,1.4-55.6,23.9-84.9,17.9c-29.2-6-73.8-4.5-99.4-14.3c-9-3.4-36.3-11-43-13.4c-12.5-4.4-24.7-6.3-24.7-6.3
							S8.5,59.4,3.7,62.1c-4.8,2.7-80.7,14.2-117.2,7.9c-2.2,1-4.9,1.9-8.1,2.7c0.2,18,0.6,36,0.9,53.9c0,0.7,0,1.3,0,2l492.5,9.7
							C371.7,125,371.8,111.6,372.3,98.2L372.3,98.2z"/>
						
							<linearGradient id="SVGID_00000027580926901653936410000006240685844294594493_" gradientUnits="userSpaceOnUse" x1="125.605" y1="222.02" x2="125.605" y2="102.51" gradientTransform="matrix(1 0 0 -1 0 274)">
							<stop  offset="0" style="stop-color:#A6BADF"/>
							<stop  offset="0.9" style="stop-color:#E3F3F7"/>
						</linearGradient>
						<path style="fill:url(#SVGID_00000027580926901653936410000006240685844294594493_);" d="M372.6,98.1c0.1-3.1,0.2-6.3,0.4-9.4
							c-13,2.8-16.1-0.7-24.1-4.3c-4.9-2.2-28.8,8.9-36.6,6.8c-28-13.7-67.4-25.2-94.1-39.2c-37.7,8.2-75.1,27.2-102.2,26.5
							c-9.5-0.3-35.5,12.2-43.8,11.8c-13.1-0.7-36.4,10.9-36.4,10.9s-40-18-62.6-16.9c-5.3,0.2-48.5,16.2-75.9,16.2
							c-2.1,0-9.4-0.6-19-1.5c0.2,9.2,0.3,18.4,0.5,27.6c0.1,7,0.2,14.1,0.3,21.1l493.4,6.3C372,135.3,372,116.7,372.6,98.1
							L372.6,98.1z"/>
						
							<linearGradient id="SVGID_00000043433701401616207640000012808061279614817454_" gradientUnits="userSpaceOnUse" x1="124.5683" y1="129.9898" x2="139.1584" y2="-15.1802" gradientTransform="matrix(1 0 0 -1 0 274)">
							<stop  offset="0" style="stop-color:#FAF6BE"/>
							<stop  offset="4.000000e-02" style="stop-color:#F8F5C0"/>
							<stop  offset="0.2" style="stop-color:#D9E7D0"/>
							<stop  offset="0.38" style="stop-color:#C0DDDE"/>
							<stop  offset="0.57" style="stop-color:#AED5E8"/>
							<stop  offset="0.77" style="stop-color:#A4D1EE"/>
							<stop  offset="1" style="stop-color:#A1D0F0"/>
						</linearGradient>
						<path style="fill:url(#SVGID_00000043433701401616207640000012808061279614817454_);" d="M375.6,260.5
							c-0.2-26.7-1.5-53.4-2.4-80c-0.4-10.3-0.7-20.7-0.9-31h-484.2v81.3c0.8,13.9,1.6,27.8,2.2,41.6h485.4
							C375.7,268.4,375.6,264.5,375.6,260.5L375.6,260.5z"/>
						<path class="st7" d="M195.4,259C192.2,259.7,191.7,260.4,195.4,259L195.4,259z"/>
						<path class="st7" d="M176,240.9c18.8,0-20.5,7.3,9.8,7.3s-2,7.2,2.1,7.1s17.3,0.1,8.5,3.5c-0.4,0.1-0.7,0.3-1,0.4
							c3.6-0.7,10.9-1.3,19.3,1.7c16.2,5.8-5.4,1.1,0.4,5.8c5.8,4.7,7.8,0,13.6,4.7c5.8,4.7-6.1,4.4,1.8,6.4
							c3.4,0.9,4.1,1.6,3.1,2.2c5.2-0.1,10.4-0.2,15.6-0.3c35.9-0.7,71.9-1.8,107.8-2.8L176,231.1C176,231.1,157.1,240.8,176,240.9
							L176,240.9z"/>
						<path class="st8" d="M109.8,156.6c0,0-11.7,0.8,0.6,1.4c12.3,0.6-8.2,2.5,8.7,2.5s-13.7,0,2.9,1.5s-7.2-0.3,14,2.5
							c21.2,2.7-6.6,2.8,14.5,5.5c21.1,2.8-24.1,2.3,2.9,2.3s-10.1-3.8,16.4-0.8c26.6,3.1-11-1,3.5,3.9s-11.2,1.9,6,4.2
							s-18,0.7-7,2.2c11,1.5-19.6-0.2-12.5,1.2c7.1,1.4,3.6,3.7,3.6,3.7l-7.5,1.5c0,0,101.1-9.9,76.1-19.5S109.8,156.7,109.8,156.6
							L109.8,156.6z"/>
						
							<linearGradient id="SVGID_00000052066247189003861030000003723429029650293934_" gradientUnits="userSpaceOnUse" x1="6710.7944" y1="86.1713" x2="6707.7344" y2="99.5313" gradientTransform="matrix(-1.08 0 0 -1 7417.5596 274)">
							<stop  offset="0" style="stop-color:#FDFCED"/>
							<stop  offset="0.99" style="stop-color:#DBF0F8"/>
						</linearGradient>
						<path style="fill:url(#SVGID_00000052066247189003861030000003723429029650293934_);" d="M155.1,164.7c0,0,75.3,5.6,39,12.5
							c-36.3,6.9-62.2,10.9-62.2,10.9s90.8-12.1,78.7-16c-12.2-3.9-46.7-6.5-46.7-6.5L155.1,164.7z"/>
						
							<linearGradient id="SVGID_00000067921153147960610040000001428117910558713009_" gradientUnits="userSpaceOnUse" x1="6754.2563" y1="112.6237" x2="6752.5864" y2="119.8837" gradientTransform="matrix(-1.08 0 0 -1 7417.5596 274)">
							<stop  offset="2.000000e-02" style="stop-color:#FFFFFF"/>
							<stop  offset="0.99" style="stop-color:#BBE4EF"/>
						</linearGradient>
						<path style="fill:url(#SVGID_00000067921153147960610040000001428117910558713009_);" d="M139.1,151.2c0,0-29.3,3.3-37.4,4.9
							c-8,1.6,0.8,2.5,10,3.3c9.1,0.9,35.2,3.4,35.2,3.4s-43.5-5.5-40.2-6.6s24.6-4.2,26.6-4.2s17.7-1,17.7-1L139.1,151.2
							L139.1,151.2L139.1,151.2z"/>
						
							<linearGradient id="SVGID_00000155136852377420709120000018395624403370106539_" gradientUnits="userSpaceOnUse" x1="6774.8159" y1="111.6774" x2="6773.146" y2="118.9374" gradientTransform="matrix(-1.08 0 0 -1 7417.5596 274)">
							<stop  offset="2.000000e-02" style="stop-color:#FFFFFF"/>
							<stop  offset="0.99" style="stop-color:#BBE4EF"/>
						</linearGradient>
						<path style="fill:url(#SVGID_00000155136852377420709120000018395624403370106539_);" d="M116.9,152.1c0,0-29.3,3.3-37.4,4.9
							c-8,1.6,0.8,2.5,10,3.3c9.1,0.9,35.2,3.4,35.2,3.4s-43.5-5.5-40.2-6.6s24.6-4.2,26.6-4.2s17.7-1,17.7-1L116.9,152.1
							L116.9,152.1L116.9,152.1z"/>
						
							<linearGradient id="SVGID_00000028327040857362874590000003681818587796735378_" gradientUnits="userSpaceOnUse" x1="108.61" y1="170.83" x2="188.5499" y2="170.83">
							<stop  offset="0" style="stop-color:#FDFCED"/>
							<stop  offset="0.99" style="stop-color:#DBF0F8"/>
						</linearGradient>
						<path style="fill:url(#SVGID_00000028327040857362874590000003681818587796735378_);" d="M108.6,160c0,0,69.2,8.1,78.1,10.6
							s-16.6,8.1-23.5,9.4s-10.5,1.8-10.5,1.8s37.7-6.9,27.4-10.4s-35.2-6.2-42.6-7.1C129.9,163.3,108.6,160,108.6,160L108.6,160z"
							/>
						<path class="st13" d="M116.2,218.4c-8,0,9.6,1.8,14.7,1.8s9.7,4.1,16.4,4.1s-2.1,3.8,6.4,1.4s12,0.6,7.9,0.6
							c-5.4,0,0,1.9-1.8,3.4c-2.6,2.1,34.7,8.5,25.9,9.5c-8.8,1.1,25.3,7.5,33.7,7.5s14.1,5.9,14.1,5.9s24.3,1.8,21.2,2.1
							c-10.7,1-2.6,2-2.6,3.9c4.3,0,22.1,3.3,16.7,2.5c-5.4-0.7,3.5,3.3,3.5,3.3l10.1,1.5c0,0-0.3,2.5,8.6,3.5
							c5.4,0.6,6.9,1.8,9.1,2.8c-3.5,1,6.6,3.1,11.9,3.1c3,0,10.6,1.3,15.1,2.4c16.2-0.5,32.4-0.9,48.6-1.4c0-0.4,0-0.7,0-1.1
							c-35.5-8.9-76.1-19-81.6-20.1c-9.7-1.9-83-20.3-85.7-21.2c-2.7-1-39.8-11.1-44.1-13.1c-3.6-1.6-51.4-14.7-58.2-17.7
							c1.1,1.1,2.2,3.5-4.4,3.5c-4.5,0,0.2,3.1,2.1,1.6c1.9-1.5,1.1,0.3,1.8,0.4c3.7,0.7,5.5,1.9,1.7,2.4c-4.9,0.7,5.4,1.6,0.9,2.8
							c-4.5,1.2-0.9,3.1-0.9,3.1S124.1,218.4,116.2,218.4L116.2,218.4z"/>
						
							<linearGradient id="SVGID_00000090982117462109665310000012494281355567091354_" gradientUnits="userSpaceOnUse" x1="6753.3901" y1="70.8096" x2="6753.1802" y2="56.6196" gradientTransform="matrix(-1.08 0 0 -1 7417.5596 274)">
							<stop  offset="0" style="stop-color:#E5F2E7"/>
							<stop  offset="0.99" style="stop-color:#7DD1F5"/>
						</linearGradient>
						<path style="fill:url(#SVGID_00000090982117462109665310000012494281355567091354_);" d="M106.8,204.2c0,0,12.3,7.7,19.9,9.2
							s20.4,3.4,20.4,3.4s-27.7-5.1-40.4-10.9S106.8,204.2,106.8,204.2L106.8,204.2z"/>
						
							<linearGradient id="SVGID_00000106853523265541058860000016700105770571495315_" gradientUnits="userSpaceOnUse" x1="6761.686" y1="69.3441" x2="6761.4561" y2="54.6441" gradientTransform="matrix(-1.08 0 0 -1 7417.5596 274)">
							<stop  offset="0" style="stop-color:#E5F2E7"/>
							<stop  offset="0.98" style="stop-color:#AFD9F4"/>
						</linearGradient>
						<path style="fill:url(#SVGID_00000106853523265541058860000016700105770571495315_);" d="M96.1,204.2c0,0-12.3,1,11.3,6.8
							c23.6,5.8,32.7,7.7,32.7,7.7S69.6,206.7,96.1,204.2z"/>
						
							<linearGradient id="SVGID_00000166636110933248544340000003657541665836759705_" gradientUnits="userSpaceOnUse" x1="6896.3892" y1="88.732" x2="6896.3491" y2="86.712" gradientTransform="matrix(-1.08 0 0 -1 7417.5596 274)">
							<stop  offset="0" style="stop-color:#E5F2E7"/>
							<stop  offset="0.98" style="stop-color:#AFD9F4"/>
						</linearGradient>
						
							<ellipse style="fill:url(#SVGID_00000166636110933248544340000003657541665836759705_);" cx="-30.5" cy="186.7" rx="60.2" ry="0.6"/>
						
							<linearGradient id="SVGID_00000002374150372305285640000013220883617793000328_" gradientUnits="userSpaceOnUse" x1="6864.2412" y1="66.9802" x2="6864.1914" y2="63.8002" gradientTransform="matrix(-1.08 0 0 -1 7417.5596 274)">
							<stop  offset="0" style="stop-color:#E5F2E7"/>
							<stop  offset="0.98" style="stop-color:#AFD9F4"/>
						</linearGradient>
						<path style="fill:url(#SVGID_00000002374150372305285640000013220883617793000328_);" d="M-92.8,208.9c0-0.5,43.4-0.9,97-0.9
							s97,0.4,97,0.9s-43.4,0.9-97,0.9S-92.8,209.4-92.8,208.9z"/>
						
							<linearGradient id="SVGID_00000002374372324768254790000015438133585639951493_" gradientUnits="userSpaceOnUse" x1="6881.7271" y1="60.1236" x2="6881.687" y2="57.4636" gradientTransform="matrix(-1.08 0 0 -1 7417.5596 274)">
							<stop  offset="0" style="stop-color:#E5F2E7"/>
							<stop  offset="0.98" style="stop-color:#AFD9F4"/>
						</linearGradient>
						<path style="fill:url(#SVGID_00000002374372324768254790000015438133585639951493_);" d="M-87.6,215.5
							c0-0.5,32.6-0.9,72.9-0.9s72.9,0.4,72.9,0.9s-32.6,0.9-72.9,0.9S-87.6,216-87.6,215.5z"/>
						
							<linearGradient id="SVGID_00000134967753394162290870000017253409265368338856_" gradientUnits="userSpaceOnUse" x1="6843.4595" y1="38.8931" x2="6843.3994" y2="35.2531" gradientTransform="matrix(-1.08 0 0 -1 7417.5596 274)">
							<stop  offset="0" style="stop-color:#E5F2E7"/>
							<stop  offset="0.98" style="stop-color:#AFD9F4"/>
						</linearGradient>
						<path style="fill:url(#SVGID_00000134967753394162290870000017253409265368338856_);" d="M-90.5,237.2
							c0-0.5,52.5-0.9,117.1-0.9s117.1,0.4,117.1,0.9s-52.4,0.9-117.1,0.9S-90.5,237.7-90.5,237.2z"/>
						
							<linearGradient id="SVGID_00000072966709828933186350000002244210985247074198_" gradientUnits="userSpaceOnUse" x1="6875.2769" y1="32.595" x2="6875.2271" y2="28.965" gradientTransform="matrix(-1.08 0 0 -1 7417.5596 274)">
							<stop  offset="0" style="stop-color:#E5F2E7"/>
							<stop  offset="0.98" style="stop-color:#AFD9F4"/>
						</linearGradient>
						
							<ellipse style="fill:url(#SVGID_00000072966709828933186350000002244210985247074198_);" cx="-7.7" cy="243.4" rx="116.8" ry="0.9"/>
						
							<linearGradient id="SVGID_00000098937269384641358590000004520729481965545131_" gradientUnits="userSpaceOnUse" x1="6837.2593" y1="43.956" x2="6837.2095" y2="40.756" gradientTransform="matrix(-1.08 0 0 -1 7417.5596 274)">
							<stop  offset="0" style="stop-color:#E5F2E7"/>
							<stop  offset="0.98" style="stop-color:#AFD9F4"/>
						</linearGradient>
						<path style="fill:url(#SVGID_00000098937269384641358590000004520729481965545131_);" d="M-64.7,231.9
							c0-0.5,43.9-0.9,98.1-0.9s98.1,0.4,98.1,0.9s-43.9,0.9-98.1,0.9S-64.7,232.4-64.7,231.9z"/>
						<path class="st22" d="M-84.2,140.2c0.1,0.1,2.2-0.7,3.5-1.4c0.8-0.4,0.8-1,1-0.8c0.3,0.3,1.9-0.4,2-0.1
							c0.2,0.5-1.4,1.8-0.5,1.5c1.3-0.4-3.5,1.4-2.3,1.5c0.8,0.6,2.6,0.2,2.8-0.1c-0.2-0.5,0.6-0.9,1.5-1.4c0.8,0.2,1.3,0.6,1.4,1.1
							c0,0,1.2-1.9-0.2-1.7c-1.5,0.1-0.8-2.3,0-2.1s1.3,1,1.3,0.4c0.1-0.6,0.5-1.3-0.6-1.3c-1.1,0-1.5-0.6-1.5-0.6s0.4-1.1,1.4-0.6
							c0.9,0.4,2.9-0.9,2.9-0.9c0.4,0,0.7,0,1.1,0c0,0-2.2-0.7-0.1-1.2s3.1-1.4,2.3-0.5s-0.5,1.3-0.5,1.3s1.1-2.1,1.9-1.5
							c0.8,0.6,0.8,0.9,0.8,0.9c0.4-0.1,0.8-0.3,1.2-0.4c-0.2-0.2-0.4-0.5-0.7-0.7c0,0,0.8-1.1,1.7-0.8c0.8,0.3,1.3,0.1,1,0.5
							s0.9-0.3,0.9-0.3s3-0.8,1.9-1.2c-1.1-0.4-2.3-1.2-0.7-1.4c1.6-0.2,1.9-0.2,1.9-0.2l0.4,0.4c0,0,2.3-3.3,2.8-2.5
							c0.5,0.8-0.4,1.1,0.3,1.1c0.7,0,1.2-0.5,1.2-0.5l1.3-1l0.8,0.6l1.1-1.7l1.9-1.1c0,0,0.9,0.4,0.1,1.2s0,0.7,0,0.7s1-1.5,1.8-1
							c0.8,0.5,0.7,1,0.7,1l2.4-0.7c0,0-2.1-0.6-1-0.9c1.1-0.4,2-0.7,2-0.7s-0.3,0.2,0.2,0.6c0.5,0.4,1.2,0.2,1.2,0.2l1.1-0.4
							l0.8,0.5c0,0-2.7,0.6-1.6,0.9c1.1,0.4,0.5,0.4,1.8,0.2c1.4-0.3,1.1,1,1.8-0.3c0.7-1.4,0.8-1.5,1.6-0.9s-1.5,2.1,0.2,1.4
							s0.7-1.4,2-1.3c1.3,0.1,2.3-1.6,1.9-0.5c-0.4,1.1-0.9,1.6-0.9,1.6l1.5-0.3l0.4,0.3c0,0-1.5,0.7-1.3,1.1
							c0.3,0.4,0.4,0.3,0.4,0.3s1.9-1.1,1.6-0.2c-0.3,0.9-1.6,1.6-1.6,1.6s2-1.7,2.4-1.1c0.4,0.6-0.6,0.7-0.4,1.5
							c0.3,0.8,1.1,0,1.1,0s2.2,0.3,1.5-0.4c-0.7-0.8-0.6-1.3-0.6-1.3l0.9-0.6c0,0,1.3-0.8,1.1,0c-0.2,0.7-0.1,0.9-0.1,0.9
							s1.4,0.8,1.2-0.4c-0.1-1.2,0.1-1.8,0.1-1.8s1.6-0.8,1.6-0.3c-0.1,0.6-0.5,0.9-0.5,0.9s0.8-0.8,1.8-0.6c1,0.2,0,0.7,0,0.7
							s0,0.1,1.2-0.2c1.1-0.3,2.9-1.9,2.5-0.9c-0.4,1.1-1,1.4-1,1.4l1.2-0.1l0.4,0.7l-1.4,0.3c0,0-1.8,0.3-1.3,0.7
							c0.4,0.3,1.4,0.1,0.5,0.5c-0.9,0.4-2.1,0.4-2.1,0.4l-0.2,1c0.1,0.8-1.1,0.9-0.5,1.3s0.8,0.5,0.8,0.5l1.3-0.4l-0.1,1.2
							c0,0,2.7-1,2.3-1.5s0.4-1.1,0.4-1.1s1.1,0,1.7-0.1c0.6-0.1,2.3-0.5,1.7-1.2c-0.7-0.7,0.2-1.3,0.2-1.3s3.7-1.8,2.6-0.8
							c-1.1,0.9-0.9,2-0.9,2S-8,124.8-9,126c-0.9,1.3-1.2,1.8-1.2,1.8s1.4,0.1,1.5-0.4c0.1-0.6,1.3-1.1,1.3-1.1l0.2,1l1.6,0.1
							l0.5-0.9L-4,127l-0.8,1.2l1.9-0.8c0,0,1-0.1,0.5,0.6s-0.8,1.1-0.8,1.1s1.3-0.8,2.2-0.4c0.8,0.4,0.4,1,0.4,1s2.3-0.4,1.6-0.7
							s0.3-2.1,0.3-2.1s1.4-0.3,1.1,0.5c-0.3,0.8-0.4,1.1-0.4,1.1s0.7-0.8,2-1.1c1.3-0.3,0.3-0.8,0.3-0.8s-1.5-1-0.7-0.9
							c0.8,0,1.9-0.5,1.9-0.5l0.6,0.5l1.5-0.4c0,0,1.4-0.4,0.6-0.5c-0.8-0.1,0.6-1.4,0.6-1.4s1.8-0.9,1.7-0.4c-0.1,0.5,0,1.2,0,1.2
							s0.4-0.7,1.6-0.8c1.1-0.1,1,0.4,1,0.4l-0.9,1.1c0,0,0.9,0.1,1.7-0.2c0.8-0.3,0.7-0.8,0.7-0.8s-0.2-0.9,0.5-1.1
							c0.7-0.2,1.5,1,0.9,1.4c-0.6,0.4-0.8,0.8-0.8,0.8s0.8-0.9,1.5-0.3c0.7,0.6,0.9,0.8,0.9,0.8s1.3-0.5,0.9-0.7
							c-0.4-0.2,0.7-1.2,0.7-1.2l1.3-0.1c0,0,0.2,0.3,0.1,0.8c-0.1,0.4-0.3,0.7-0.3,0.7s0.5-1.1,1.7-0.7c1.2,0.4,1.4,0.6,1.4,0.6
							s-0.6,0.2-1,0.5c-0.4,0.3-0.7,0.2-0.7,0.2s-1.8,1-1,1c0.8,0,1.6,0.1,1.6,0.1l-1,0.9l-1.1,0.1c0,0-0.5-0.6-1-0.3
							c-0.5,0.3-1,0.6-1,0.6s-0.3-0.4-0.7-0.2c-0.4,0.2-1.6,1-0.6,0.9c1-0.1,2-0.5,2-0.5l0.1,0.9c0,0,0.5,0.3,1.8-0.1
							c1.4-0.5,1.4,0.1,2-0.8s0.5-1.4,1.2-1.5s0.6,0.3,0.6,0.3l-1.2,1.1c0,0,1.3-1.1,1.6-0.8c0.2,0.4-0.1,1.1-1.4,1.5
							c-1.3,0.4-1.5,0.7-1.5,0.7s0.8-0.2,1,0.2c0.1,0.4,0,0,1.2,0c1.2,0,2-0.1,2-0.1s-1.1,0.2-0.5-0.7c0.5-0.9,1.3-1.2,1.3-1.2
							s1-0.4,0.7,0.3c-0.3,0.7-0.5,0.8-0.5,0.8s1.3-1,1.8-0.5c0.5,0.5-0.2,0.9-0.2,0.9s-1.3,0.4-0.8,0.5c0.5,0.1,1.3-0.4,1.2,0
							c-0.1,0.4-0.9,0.9-0.9,0.9s-1.4-0.1-1.4,0.3c0,0.4,0.2,0.5,0.2,0.5s1.7-1.2,1.3-0.2s-0.9,1.3-0.9,1.3L29,132c0,0-1-0.4,0-0.9
							c1-0.5,2.2-0.8,2.2-0.8s1.7-0.8,1.1-0.2c-0.6,0.6-1.3,1.2-1.3,1.2l0.5,0.2l-0.6,0.8l0.7,0c0,0,1.3-0.9,1.1-0.2
							s-1.5,1.3-1.1,1.4c0.3,0.1,0.7,0.4,0.7,0.4l-2.2,0.4l-0.6,0.2c0,0,0.2,0.2,0.2,0.9c0,0.7-0.4,0.7,0.3,0.6s2.2-1.6,2.4-1.2
							c0.2,0.4-0.9,1.2-0.9,1.2l0.7,0.1c0,0,1.3-0.8,1.2-0.2c-0.1,0.6-1,1.1-1,1.1l0.2,0.3c0,0,0.8-0.4,1.4-0.4
							c0.6,0,0.4,0.7,0.7,0.9s1.4-0.3,1.4-0.3s-0.9,0.2-0.5-0.2c0.4-0.4,1.2-1,1.2-1s0,0.2,0,0.6c0,0.4,0.1,0.6,0.1,0.6
							s1.2-0.8,1.2-0.2c0,0.6,0,0.8,0,0.8l1.4-0.5c0,0-0.6,0,0.1-0.6c0.7-0.6,1.7-1.8,1.9-1.4c0.2,0.3,0.1,0.7,0.1,0.7l0.2,0.3
							c0,0,0.7-1.3,1.5-1.2c0.8,0.1,0,1.1,0,1.1l1.6-0.4c0,0-0.9,0.5-1,0.9c-0.1,0.4,1.5,0.1,1.5,0.1s1.5-0.9,1.5-0.5
							c0,0.4-0.1,0.8-0.1,0.8s-0.4,0.2,0,0.3c0.3,0.1,1.9,0.1,1.2,0.4c-0.6,0.3-1.1,0.6-1.1,0.6l0.2,0.6c0,0-0.2-0.5,0.7-0.1
							c0.9,0.4,0.4,0.8,0.4,0.8s-0.1,0.4,0.8,0.5s0.8,0.5,0.8,0.5l-0.2,0.5c0,0,0.5-0.8,1.5-0.5c1,0.3,0.3,1,0.3,1l0,0.5l1.9-0.5
							c0,0-0.8,0.2-1,0.9c-0.2,0.7,0,0.7,0,0.7s0.2,0.2-0.7,0.5c-0.9,0.3,0.9,1.9,0.9,1.9l3.1,2.4l6.7,1.7c0,0-168,0.5-172.2,1.4
							c-4.2,0.9,21.5-6.4,26.5-11.3C-83.7,140.2-84,140.2-84.2,140.2L-84.2,140.2L-84.2,140.2z"/>
						
							<linearGradient id="SVGID_00000037694724339504252720000004443860628481449629_" gradientUnits="userSpaceOnUse" x1="6084.4526" y1="520.095" x2="6070.4126" y2="551.725" gradientTransform="matrix(-1.2394 3.786775e-02 -1.908481e-02 -1.22 7725.7271 547.5661)">
							<stop  offset="0" style="stop-color:#749CB5"/>
							<stop  offset="0.96" style="stop-color:#73A6A2"/>
						</linearGradient>
						<path style="fill:url(#SVGID_00000037694724339504252720000004443860628481449629_);" d="M97.9,133c2.5,2-2.8-2.1-0.3-1.5
							c2.5,0.5,3.8,1.1,3.8,1.1s-1.1-2.1-3.4-3.2s-2.2-2-2.2-2s1.6-0.9,3.5-0.2c1.9,0.7,3.6,0.9,3.6,0.9s-1.1-1.9,0.4-2.5
							c1.6-0.7,2.7-0.5,2.7-0.5l0.5,2c0,0,3.2-0.5,2.3-1.9s-1-3.8-1-3.8s3.6,0.5,3.4,1.7c-0.2,1.3,2.3,1.8,2.3,1.8l2.3-1.9l2.4,1.2
							c0,0,1.3-2.4-0.1-2.4c-1.4,0-4-3.1-4-3.1s0.6-1.9,2.2-0.8c1.5,1.1,2.5,0.5,2.5,0.5s-2-1.8-0.4-2.6c1.6-0.9,2.7-2,2.7-2
							l1.7,1.7l0.3,1.3c0,0,0.6-1.7,2.2-0.8c1.6,0.8,0.9,2.7,0.9,2.7s0.6-0.1,3.1,0.4c2.5,0.5,2.5,2.2,2.5,2.2l2.5,0.3
							c0,0-2.4-0.9-1-2.3s2.4-2.1,2.4-2.1l1.5,2.6l1.1,1.9c0,0,4.6-0.1,3.3-0.9c-1.3-0.8-1.3-2.5-1.3-2.5l4.7,1l0.9,2.7l1.6-2.8
							l0.7-2.5c0,0,0.1-0.4-1.4-0.2c-1.5,0.2-4-1.8-4-1.8s0.5-1.2,3.3-0.7c2.8,0.6,4-0.2,4-0.2s-1.3-3.8,0.1-3.7
							c1.4,0.2,0-1.7-2.4-1.2c-2.4,0.6-3.7-1.8-3.7-1.8s3.3-2.6,4.6-1.6c1.2,1,2.2,2,2.2,2s1.5-2.2,3.5-2.1s1.7,1.9,1.7,1.9l2.4,1.2
							c0,0,0.9-0.3,2.5-1c1.6-0.7,3.2-0.2,3.2-0.2l1.4,3.2l4.5,2.3c0,0,0.1-0.4,1.1-1.6c1.1-1.2-1.3-0.8-1-2.3
							c0.3-1.5,1.1-2.7,1.1-2.7s2.3,0.1,2.9,1.7c0.6,1.6,1.8,2.6,1.8,2.6s-0.1-2.8,3.3-2.2c3.3,0.6,3.1,1.9,3.1,1.9l6.3,0.1l0.2,2
							c0,0,0.7,0.7,2.6,0.1c1.8-0.6,4.5,0.6,4.5,0.6s-2.9,1.8-1.6,2.6c1.3,0.8,5.2-1.7,7.8,1.2c2.6,2.9,2.5,3.5,2.5,3.5l2.6,0.9
							c0,0,5.5,0.3,4.9,2c-0.6,1.7,0.5,2,0.5,2s3.4-3,5.1-2.8c1.7,0.2,10.3,1.7,9.2,2.9s2.1,2.8,2.1,2.8l6.4,1c0,0,6.1,2.9,3.6,3.7
							c-2.4,0.8,0.6,3.1,3.2,3c2.6-0.1,11.3-0.8,10.9,1.4c-0.4,2.1,11.7,5.1,11.7,5.1s-132.8-1.2-137.6-1.4
							c-4.8-0.2-38.8-5.1-38.8-5.1S95.4,130.9,97.9,133L97.9,133L97.9,133z"/>
						<path class="st24" d="M5.6,149.4c2.4,1.4,1.5-2.9,3.7-2.7c2.2,0.2,0.9-0.9,0.9-0.9s1.3-0.1-0.9-0.9c-2.2-0.8-0.5-1-0.5-1
							s-0.4-1.3,1.3-0.9s3.2,0.4,3.2,0.4s-1.2-1.4,0.1-2.1c1.2-0.7,2.2-0.6,2.2-0.6l0.7,1.6c0,0,2.7-0.6,1.8-1.7c-1-1.1-1.4-3-1.4-3
							s3.2,0.1,3.2,1.1c0,1.1,2.2,1.3,2.2,1.3l1.8-1.7l2.2,0.8c0,0,0.8-2.1-0.4-1.9c-1.2,0.1-3.9-2.2-3.9-2.2s0.3-1.6,1.7-0.8
							c1.5,0.7,2.2,0.2,2.2,0.2s-1.9-1.3-0.7-2.1c1.3-0.8,2-1.9,2-1.9l1.7,1.3l0.5,1.1c0,0,0.3-1.4,1.8-0.8c1.5,0.6,1.2,2.1,1.2,2.1
							s0.5-0.2,2.7,0.1c2.2,0.2,2.4,1.6,2.4,1.6l2.2,0.1c0,0-2.2-0.6-1.2-1.8s1.8-1.9,1.8-1.9l1.7,2l1.2,1.4c0,0,4-0.4,2.7-1
							s-1.4-1.9-1.4-1.9l4.2,0.4l1.2,2.1l1.1-2.4l0.3-2.1c0,0,0-0.4-1.2,0c-1.2,0.3-3.7-1.1-3.7-1.1s0.3-1,2.7-0.8s3.5-0.4,3.5-0.4
							s-1.6-3-0.4-3c1.2,0-0.2-1.4-2.2-0.8c-2,0.7-3.4-1.1-3.4-1.1s2.5-2.4,3.7-1.7c1.2,0.7,2.2,1.4,2.2,1.4s1-1.9,2.8-2
							s1.7,1.4,1.7,1.4l2.2,0.8c0,0,0.7-0.3,2-1c1.2-0.7,2.7-0.5,2.7-0.5l1.6,2.5l4.1,1.5c0,0,0-0.3,0.8-1.4s-1.2-0.6-1.2-1.8
							c0-1.2,0.6-2.3,0.6-2.3s2-0.1,2.7,1.1s1.9,2,1.9,2s-0.4-2.3,2.5-2c2.9,0.2,2.9,1.3,2.9,1.3l5.4-0.4l0.4,1.6
							c0,0,0.7,0.6,2.2-0.1c1.5-0.7,3.9,0.1,3.9,0.1s-2.3,1.7-1.1,2.2c1.2,0.6,4.2-1.8,6.9,0.3c2.6,2.1,2.6,2.7,2.6,2.7l2.3,0.5
							c0,0,4.8-0.2,4.5,1.2c-0.3,1.4,0.7,1.6,0.7,1.6s2.6-2.7,4-2.7c1.5,0,9.1,0.6,8.3,1.6c-0.8,1,2.1,2.1,2.1,2.1l5.6,0.3
							c0,0,5.6,1.9,3.6,2.7c-2,0.8,0.9,2.5,3.1,2.2s9.6-1.5,9.6,0.2c-0.1,1.8,10.7,3.2,10.7,3.2S40.2,151.8,36,152
							c-4.2,0.2-35.7,0.6-35.7,0.6s2-3.4,4.4-1.9L5.6,149.4L5.6,149.4z"/>
						
							<linearGradient id="SVGID_00000183952798168624502400000014886625486851950500_" gradientUnits="userSpaceOnUse" x1="157.8072" y1="122.49" x2="157.5472" y2="142.59" gradientTransform="matrix(1 0 0 -1 0 274)">
							<stop  offset="0" style="stop-color:#628F62"/>
							<stop  offset="0.99" style="stop-color:#8CA17E"/>
						</linearGradient>
						<path style="fill:url(#SVGID_00000183952798168624502400000014886625486851950500_);" d="M285.8,140.8c-1.2-0.8-2.2-1.5-5-0.9
							c0.5-1.9,35.8-8.9,35.8-7.8c-1.2-0.7-110-0.6-141.8,0c-8.4,0.2-3.8,1.8-10.1,1.5c-17.6-0.6-29,2.3-39,2.6
							c-13.6,0.4-25.1-1.4-39.5-0.3C71.9,137-1.2,152.8-1.2,152.8l114.3-2.4c0,0,53.5,4.4,56.3,4.6s51.5-7.6,51.5-7.6l33.7-6.4
							c0,0,22.4,0.4,32.5-0.2L285.8,140.8L285.8,140.8z"/>
						<path class="st26" d="M224.1,176.4c61.6-4.7,110.2-7.5,148.7-9c-0.5-15.4-0.7-30.7-0.6-46.1c-15.6,1.7-43.4,6.1-54.5,7.5
							c-14.4,1.9-49.7,8.7-59.2,8.7c-17.3,0-17.8,1.7-34.8,3.1c-22.4,1.9-44.7,8.8-67.9,9.6c-27,0.9-40.1,4-41.9,4.4
							c-1.8,0.4-2.1,1.4-1.5,0.9c0.5-0.5-0.8,0.8-0.8,0.8s4.2,1.4,9,2.2c4.8,0.7,19.9,2.9,23.9,2.9s39.9,5.2,47,5.2
							s29.5,3.7,38.3,4.4C238.5,171.6,224.1,176.4,224.1,176.4L224.1,176.4z"/>
						
							<linearGradient id="SVGID_00000033353060667640899710000010711535678412700811_" gradientUnits="userSpaceOnUse" x1="169.4988" y1="65.9689" x2="197.7488" y2="37.3589" gradientTransform="matrix(1 0 0 -1 0 274)">
							<stop  offset="0" style="stop-color:#80A242"/>
							<stop  offset="0.98" style="stop-color:#61833A"/>
						</linearGradient>
						<path style="fill:url(#SVGID_00000033353060667640899710000010711535678412700811_);" d="M116.3,155.2
							c0.9-0.2,1.7-0.3,1.7-0.3S116.8,155,116.3,155.2z"/>
						<path class="st28" d="M372.5,156c-8.8,0.4-19.1,1-19.1,1s-24.9,2.5-29.6,2.5s-20,1.6-35.4,3.9c-15.4,2.3-44.2,7.4-52.4,7.4
							c16.9-4.2,12.7-5,12.7-5s2.9-0.3,14.9-2.5c21.9-4.1,30.3-5.6,10.9-5.2c-9,0.2-23.7,0.4-29.1,0.5c-5.4,0.1-10.9,0.4-19.2,0.4
							s-9.3,0.7-14.7,0.6c-5.4-0.1-8.8,0,2-2.1c10.9-2.1,36.8-4.1,36.8-4.1s-11.8-0.3-28.1,1.1c-16.3,1.4-25.2,0.2-37.4,2.1
							c-4.6,0.7-6.9,0.5-8.3,0.7c-22.1,3.2-2.1-0.6-3.4-0.9c-0.9-0.2-2.1-0.5-4.1-0.6c-7.9-0.5-6.5,1.7-20,0.3s-27.1-0.7-27.1-0.7
							s2,0.4,8.6,0.6c6.6,0.2,14,0.9,14,0.9s-5.6,0.2-19.7-0.5c-8.3-0.4-9.2-0.9-8.4-1.1c-0.7,0.1-1.5,0.3-2.2,0.4
							c-1.6,0.3-0.7,0.3-1.8,0.2c-1.1-0.1-1.3,0.6,0.4,1.1c1.8,0.4,1.6,0.8,4.3,1.1s7.9,1.1,14.2,0.9c6.3-0.1,10.4,1.7,14.5,2.1
							c4.1,0.4,13.8,0.7,19.7,1.1s14,1.5,16.5,1.5s-1.1,0.4-3.8,0.3c-2.7-0.1,8.6,0.8,14.5,1.5c5.9,0.6,10.3,1.6,16.9,2.3
							c5,0.5,10,2.2,14,3.5c1.3,0.4,1.6,1,1.7,1.6c0.1,0.9-0.7,1.8,0.4,1.9c4.3,0.2,10.4-1.7,11.6-2.1c1.1-0.4,3.4-0.6,3.4-0.6
							s14-0.5,33.7-1.9c15.1-1.1,73.1-8.9,98.4-12.5C372.5,156.9,372.5,156.5,372.5,156L372.5,156z"/>
						<path class="st29" d="M373.2,180.5c-0.3-8.3-0.5-16.7-0.7-25c-3.8,0.1-7.1,0.2-7.1,0.2l-14.2,1.5c0,0-103.4,12.9-107.6,13.4
							c-4.1,0.5-10.9-0.3-12.9,0.4c-1.9,0.8-35,9.7-38.9,10.7c-3.8,1-27.9,4.8-32,5.7c-4.1,0.9-24.6,4.1-28.2,4.9
							c-3.6,0.9-17.8,4.7-17.8,4.7s-13.2,9.3,41.7,13.5c32.6,2.5,137.1-1,218.6-4.2C373.8,197.8,373.5,189.1,373.2,180.5
							L373.2,180.5z"/>
						<path class="st30" d="M373.2,180.5c-0.2-4.8-0.3-9.5-0.5-14.3c-21.3-0.4-49.3-0.2-54.4,0.2c-7.7,0.6-10.4,0.5-17.2,1.6
							s-17.5,4.3-27.6,4.7c-10.1,0.4-11.8-0.1-21.9,0.1c-10.1,0.2-10.7-1.3-17.2-0.4s-17.5,3.3-20.8,4.2s-35.8,8.5-42.1,9.4
							c-6.3,0.9-44.1,7-46.6,7.5c-2.5,0.5,26.3-2.3,37.6-4.2c11.2-1.9,53.5-13.3,65.6-14.1c12-0.8-23.3,7.4-22,7.4
							c38.5,0-18.3,7.9-43.6,10.9c-8.8,1-20.2,2.4-20.2,2.4s30.1-1.9,44.3-2.7c14.2-0.8,32-0.9,35.3,0.2s25.4,1.9,33,2.1
							s-11.1,4.9-12,2.9c-0.4-1-21.3,0.1-20.5,2.6c0.2,0.6-29.4,2-17.1,1.6c15.8-0.5,34.1,0.1,36.4,0c3-0.1-22.8,1.3-41.5,2.9
							c-30.1,2.6-68.9,10.9-63.4,10.4c17.2-1.3,115.7-8.7,109.7-8.1c-3.9,0.4,42.7-3,80.4-6.4c20.8-1.9,38.4-4.5,44.4-4.7
							c0.8,0,1.6,0,2.6-0.1C373.6,191.5,373.4,186,373.2,180.5L373.2,180.5z"/>
						<path class="st31" d="M178.7,147.5c0,0-34.1,0.7-42.4,0.7c-5.3,0-16.2,0.6-31.3,1c-5,0.1,30.5,2.3,26.3,2.6
							c-2.9,0.2-53.7,1-55.8,1c-18.3,0-76.8,0.1-76.8,0.1s59.8-3.4,67-4.7s67.3-1,77.3-1s69.6-5.4,69.6-5.4L178.7,147.5L178.7,147.5
							z"/>
						
							<linearGradient id="SVGID_00000148659739363269890660000001792762955534771868_" gradientUnits="userSpaceOnUse" x1="6745.7031" y1="65.0844" x2="6758.7832" y2="46.7644" gradientTransform="matrix(-1.08 0 0 -1 7417.5596 274)">
							<stop  offset="0" style="stop-color:#526B31"/>
							<stop  offset="0.99" style="stop-color:#495E2B"/>
						</linearGradient>
						<path style="fill:url(#SVGID_00000148659739363269890660000001792762955534771868_);" d="M110.1,198.7c0,0-4.8,0.2-5.6,2.9
							c-0.3,0.9-1.2,3.6,1.1,4.2c2.3,0.6,3.2,2.2,7.9,4c4.6,1.8,11.6,5.1,13.1,5.4s13.4-0.9,18.3-0.9s19.8-4.4,19.8-4.4
							c-6-2,2.5-2.5,2.5-2.8c0-1.2-4.7-5.2-9.1-5.2s-16.8-0.4-23.8-1.9c-7-1.5-20.3-2.4-20.3-2.4L110.1,198.7L110.1,198.7z"/>
						
							<linearGradient id="SVGID_00000035522011023797191040000012566274536821223343_" gradientUnits="userSpaceOnUse" x1="6635.5659" y1="30.7085" x2="6592.2461" y2="128.3185" gradientTransform="matrix(-1.08 0 0 -1 7417.5596 274)">
							<stop  offset="1.000000e-02" style="stop-color:#567033"/>
							<stop  offset="0.78" style="stop-color:#84A13D"/>
							<stop  offset="1" style="stop-color:#A0C13A"/>
						</linearGradient>
						<path style="fill:url(#SVGID_00000035522011023797191040000012566274536821223343_);" d="M125.6,214.3
							c2.6,0.8,8.6,2.6,11.9,3.1c3.2,0.6,7,2,8.1,2.7c1.2,0.7-0.6-1.5-0.6-1.5c0.9,0.6,1.8,1.2,2.6,1.8c0.8,0.4,1.6,0.7,2.4,1.1
							c0,0-1.2-2-0.3-1.4s2.6,1.6,2.6,1.6c0.9-0.1-1.5,0.6-0.6,0.5c0,0,2.8-0.1,3.5,0.2c0.5,0.2-1.2,0.6-0.7,0.7
							c1.4,0.2,2.5,0,2.3,0.4c-0.3,0.7,2.8-1,2.8-1c-0.4,0.6-0.8,1.2-1.2,1.8c1.6,0.2,2.6,0,3.6-0.2c-0.2,0.2,0.3,0.7,0.2,1.3
							c1.1,0.3,0.5-1,1.6-0.8c1.9,0.2,2.1,1.4,2.5,0c0.3-0.6-0.7-1.3-1.5-1.9c-0.2-0.1,1-0.4,3.5,3l-0.6,1.6c1-0.1,2-0.2,2.9-0.3
							c-0.3-0.4-0.6-0.9-0.9-1.4c0,0,2.1,2,2.4,3.1c0.3,1.1,2.4,2.2,2.4,2.2s-0.3-1.5-0.3-2.3c0.8-0.1,1.8-2,1.8-2
							c0.2,1.9,0.4,3.7,0.6,5.6c0.8-1,1.6-2.1,2.4-3.1c0.1,1.1,0.2,2.2,0.3,3.3c0.9-0.5,1.8-1,2.6-1.5v1.8c1.2,0.2,2.4,0.4,3.5,0.7
							c-0.2-0.4-0.4-0.9-0.6-1.4v-0.7c0.9,0.4,1.8,0.9,2.6,1.4c-0.3,0.4-0.6,0.7-0.9,1.1c0.9,0.4,1.8,0.8,2.6,1.2
							c0.4-0.4,0.8-0.7,1.2-1.1c0.2,0.8,1.9,1.2,2.1,2c0.8,0.2,0.1,0.8,0.9,1c0.7,0,1.4-0.1,2.1-0.1c0,0,1.1,0.7,2.9,1.4
							c1.8,0.7,3.6,1.2,3.6,1.2s1.2,0.1,4.1,1.1c2.9,0.9-0.3-2,2.4-0.5c0.9,0.5,0.8,0.6,0.5,0.6c0.5,0.1,1.3,0.4,2.8,0.8
							c6.8,2,7.1,1.8,9.4,2.4c2.4,0.7,2.1,0.6,4.1,1.6c2.1,1.1,2.6-0.8,4.7,0.5c2.1,1.4,3.5,1.1,4.4,1.8c0.9,0.7,0,0,2.9,1.1
							s2.1,0.4,4.1,1.4c2.1,0.9,0.6,0,2.6,0.8c2.1,0.8,2.9-0.3,2.9-0.3c-0.1,0.7-0.2,1.4-0.3,2c0,0,1.8-2,1.8-1.4s1.8,1.6,1.8,1.6
							c0.5-0.7,1-1.4,1.5-2c0.2,0.8,0.4,1.6,0.6,2.4c0,0,1.2-3.3,1.8-1.8s0.6,2.3,0.6,2.3c0.2,0.3,0.4,0.6,0.6,0.8c0,0-0.6-3,0-2.3
							c0.6,0.7,2.4,3.1,2.4,3.1c1-1.5,2.3-2.7,5-2.9c-2.6,1.4-2.1,2.1-1.2,2.7c-0.2,0.9,4.4-1.1,5-1.4c-0.6,1-3.2,2.8-3.2,2.8
							c2.1-0.5,4.1-0.9,6.2-1.4c-0.4,0.6-0.8,1.2-1.2,1.8c0.3,0.7,3.7-1.6,4.8-2.6c-0.7,1.5-0.7,3.9-0.7,3.9s3-4,2.7-3.2
							c-0.3,0.8,1.7,3.1,1.7,3.1c0,0,0.1,0,0.1-0.1c0.2,0.8,1.5,1.2,2,1.7c1-0.9,3.2-1.4,5.9-1.6c-0.6,0.5-1.2,1-1.8,1.5
							c1.5,3.8,2.1,3.1,2.6,1.8c0,0,3.2-2.9,3.2-1.6c-3.1,2-0.7,4.3-0.3,4.2c0.6-0.6,1.2-1.3,1.8-1.9c0.6,0.6,1.2,1.2,1.8,1.8
							c0.5-0.1,1-0.3,1.5-0.4c0.6,0.3,1.2,0.5,1.8,0.8c1-0.3,2-0.5,2.9-0.8c0.2,0.3,0.4,0.5,0.6,0.8c0.7,0.3,1.4,0.6,2.1,1
							c0,0,6.5,0.5,7.9,1.2c1.5,0.7-2.4,1.6,0,1.8c2.4,0.1,10.3,1.4,12,1.4s2.9,0.8,5.6,1c2.6,0.1,4.4,0.5,6.5,1
							c2.1,0.4,2.9,0.4,4.7,0.7s0,1.4,3.5,2c3.5,0.7,10.3,1.8,12,2c0.3,0,0.8,0.2,1.5,0.4c7.1-0.2,14.1-0.4,21.2-0.6
							c0-5.3,0-10.5-0.1-15.8c-0.2-23.6-1.2-47.3-2.1-70.9c-1.7,0.1-2.9-0.8-4.3-1.3c-1.8-0.7-1.4,0.6-1.4,0.6l-1.8-0.1l-2.6,0.3
							c0,0-4.6,1.6-4.6,0.5s-2.2-3-2.2-3s0.6,2.1,1.2,2.7l0,0c-0.5-0.3-1.3-0.6-2.3-0.7c-2.4-0.3-3.5-0.5-3.5-0.5l3.2,1.5
							c-0.5,0.2,0.5,1.3,0.1,1.5s-2.5-0.7-3-0.5l-1.5-1.2l-2.6-0.8c0,0-0.1,0.3,1.7,1.1c1.8,0.8,1.3,1.9,1.3,1.9s-1.2,0.3-2.9,0
							s-2.4-0.3-2.4-0.3s-5.3,0.3-4.9,0.7c0.1,0.1,2.6-0.2,3.1-0.1c2.4-0.4,5.2,0.9,5,1c-0.8,0.2-1.5,0-2,0.2
							c-0.4,0.1-0.5,0.8-1.1,0.9c0.4-0.8-1.2-2.6-4-0.7c-2.1,0.5-7.2,0.5-7.2,0.5c0.7,0.2,5,0.1,5.7,0.4c0,0,2.7-1,3.3-0.2
							c0.2,0.2-3.5,0.5-3.5,0.7c-0.1,0.4,3.2,0.6,3.2,0.6c-1.2,0.2-2.4,0.4-3.5,0.6c-0.1,0.6-4.3,0.3-5-0.2
							c-0.6-0.5,1.7,1.9,1.4,2.2c-0.2,0.4-1.4,0.5-2.3,0.1c-0.4-0.1-0.7-0.9-0.9-0.9c-0.6,0,0,1.4-0.3,1.7c-0.2,0.2-1.3,1.6-2.1,1.2
							c-0.4-0.2-0.4-2.2-0.8-2.2s-0.7,3.1-1,3c-0.8-0.2-1.2-2.8-1.2-2.8c-0.6,0.3-0.5,2.7-1.1,2.9c-0.5,0.2-1.6-1.8-2.1-1.6
							c-0.4,0.4-0.8,0.9-1.2,1.4c0,0-0.9,0.3-2.6-0.3c-1.8-0.6-5-0.3-7.3-0.6c-2.4-0.3-3.4,1.3-3.4,1.3s-1.8-0.3-3.2,0.1
							s-4.1,0.5-4.1,1.2s-1.8,1.9-3.2,0.9s-5.9-0.9-5.9-0.9s-1.8-0.4-1.8-1.1s-1.2,1.4-1.2,1.4c-0.5,0.5-1,1-1.5,1.5
							c0,0-0.9-1.2-1.8,0.1c-0.6,0.9-1.9,1.6-2.7,1.9c0.2-0.2,0.1-0.6-1.8-1.4c-3.2-1.4-3.8-2.3-3.8-2.3v1.5
							c-0.7-0.1-1.4-0.2-2.1-0.3c0,0-5.7-1.1-8.1-0.5c-2.4,0.7-1.8,0.5-1.8,0.5s0.5-0.9-2.6-1.8c-2.1,0.7,2.2,1.7,0.2,2
							c-2.3,0.5-2-0.7-3.5-2c-0.9-0.2,0.8,1.5,0.3,1.3c-0.5-0.2-1.7-0.6-2.6-1.2c-0.6-0.5-1-1.1-1-1.1s-0.7,0.5,0,1.3
							c0.3,0.3,2.3,0.8,2.3,1.2c0,1.2-1.8,1.5-1.8,1.5c-0.2-1.4,0.2-2.1-0.2-1.6c-0.7,0.8-2.9,1.7-3.4,1.6c0,0,1.2-1.4-0.9-0.7
							c-0.3,0.1-0.8,1.3-1.5,1c-0.5-0.1-1.4-1.8-1.4-1.6c-0.1,0.5,1.4,3.2-1.2,0.6c-0.5-0.5-0.9,0.6-1.1,1c-0.2-0.1-0.8-0.2-2.4-0.4
							c-0.4,0,0.1-1.5-0.5-1.4c-0.3,0.1-1,2-1.4,2.3c-0.3,0.2-0.3-1.4-0.6-1.2c-0.7,0.5-1.4,0.9-1.8,0.9c-0.3,0-0.5-0.1-0.8-0.1
							c-0.2-0.1-0.4,1-0.6,0.8c-0.2-0.1-0.5-1.4-0.7-1.6c-0.4-0.3-0.5,1.5-0.8,1.4c-0.3,0-0.9-1.8-1.1-1.6c-0.2,0.3-0.4,0.7-0.4,0.7
							c-0.1,0-0.9,0.9-1.6,0.9c-0.3,0-0.7-0.3-1.1-0.7c-0.4-0.3-0.4,1.4-0.9,1.5c-0.1,0-0.7-1.6-0.9-1.3c-0.2,0.4-0.5,0.9-0.7,1
							c-1,0.6-1.7,0.4-2.3,0.4c-1.1,0-0.6-0.9-0.9-0.6c-1.2,1-3.2-0.1-3.2-0.1c-0.3,0-1.1,1.1-1.9,0.8c-0.4-0.1-0.6-1.8-1-1.8
							c-0.5,0.1-0.9,1.4-1.2,1.4c-0.9,0.1-0.4,0.9-1.1,0.9c-0.2,0-0.2-1.8-0.6-0.7c-0.1,0.2-0.6,0.6-1.1,0.6c-0.4,0-0.7-0.5-0.9-0.6
							c-0.4-0.1,0-0.7-0.6-0.7c0,0-0.5,0.7-0.9,0.6c-0.3,0-0.4-0.8-0.7-0.8c-0.7,0.2-1.3,1.1-1.9,1.1c-1,0.1-0.8-0.8-2-0.5
							c-0.4,0.1-0.7,0.9-0.9,0.3c-0.2-0.6,0.2,0.9-2.3,0.9c-0.2,0-0.1-0.7-0.4-0.7c-0.3,0.2-0.9,1.3-1.3,1.1
							c-0.2-0.1-0.2-1.5-0.4-1.4c-0.5,0.2-0.9,1.8-1.2,1.5c-0.1-0.1-0.1-1.5-0.6-1.1c-0.2,0.2-0.4,0.4-0.6,0.4c-0.8,0.4-1.3,0-1.6,0
							c-0.5,0-0.9,0.8-1.1,0.8c-0.4-0.1-0.4-1.1-0.4-1.2c-0.1-0.1-0.6,0.9-1.2,0.9c-0.6,0-0.9-1.4-0.9-1.2c-0.5,1.2-1,1.6-0.8,1
							c0.1-0.2,0.1-1.6,0.1-1.6c-0.3,0.1-0.7,1.9-1.1,2c-0.1,0-0.2-1.6-0.4-1.6c-1.5,2.7-2,1.8-2.1,0.8c0,0-1.3,0.8-2.2,0.9
							c-0.4,0-0.5-0.5-0.9-0.6c-0.4-0.1,0.1,1.6-0.4,0.7c-0.1-0.3-1.2-1.4-1.5-1.1c-0.1,0.1,0,1.1-0.3,0.9s-1-1.6-1.2-1.4
							c-0.3,0.3,0.1,1.1-0.2,1.3c-0.5,0.2-0.8-0.2-1.6-0.1c-0.2,0-0.4-1.7-0.7-1.9s-0.6,2.6-0.8,2.7c-0.3,0.1-0.7-1.4-0.9-1.4
							c-0.2,0-0.8-0.9-0.9-0.8c-0.5,0.4,0.9,1.8-0.2,1.6c-1.5-0.3-1,0.8-1,0.8c-0.7,0.1-1.4,0.2-2.1,0.3c-0.9,0.4,3.6,0.3,1.3,0.7
							c-4.1,1.4-10.7,0.5-14,1.7c-1.2,0.5-2.5,1.3-2.6,0.9c-0.4-1.1-1.8-0.3-4.3,0.3c-0.8,0.2-1.6-0.1-2.8,0.1
							c-7.1,0.1-7.6-0.3-9.4,0.3c-1.8,0.6-0.6-0.1-5-0.1s-5,0.1-5.9,0.8c-0.9-0.2-3.4-0.2-5.5,0c-2.1,0.3-5.2-0.1-5.2-0.1
							S123,213.5,125.6,214.3L125.6,214.3z M277,257.3c-0.1,0.1-0.2,0.3-0.2,0.4C276.8,257.6,276.8,257.5,277,257.3z"/>
						<g>
							
								<linearGradient id="SVGID_00000012430224617259448110000015775423323867234730_" gradientUnits="userSpaceOnUse" x1="6716.9092" y1="66.1717" x2="6716.1289" y2="72.8017" gradientTransform="matrix(-1.08 0 0 -1 7417.5596 274)">
								<stop  offset="1.000000e-02" style="stop-color:#324C32"/>
								<stop  offset="0.99" style="stop-color:#666D80"/>
							</linearGradient>
							<path style="fill:url(#SVGID_00000012430224617259448110000015775423323867234730_);" d="M175.4,204
								c-1.2-0.8-3.9-4.9-7.4-5.7c-3.5-0.9-13.8,1.5-15.2,2.1c-1.4,0.5,0.3,3.3,4.4,4.7c4.1,1.4,11.3,2.9,13.3,3
								C172.5,208.2,176.6,204.7,175.4,204L175.4,204L175.4,204z"/>
							
								<linearGradient id="SVGID_00000005981431775178438410000005579894557477408670_" gradientUnits="userSpaceOnUse" x1="6716.5898" y1="66.0143" x2="6715.8896" y2="71.9643" gradientTransform="matrix(-1.08 0 0 -1 7417.5596 274)">
								<stop  offset="1.000000e-02" style="stop-color:#323F38"/>
								<stop  offset="0.99" style="stop-color:#51565C"/>
							</linearGradient>
							<path style="fill:url(#SVGID_00000005981431775178438410000005579894557477408670_);" d="M172.8,205.3
								c-1.7-0.1-3.2-1.9-5.7-3.4s0.7-2.7-1.4-3c-2-0.3-11.3,0.8-12.5,1.7c-1.2,1,2.7,3.9,6.8,4.7s8.6,2.4,9.9,2.6
								c1.4,0.2,3.2-0.8,3.9-1.3c0.7-0.5,1.8-2.2,1.8-2.2S174.5,205.4,172.8,205.3L172.8,205.3L172.8,205.3z"/>
							
								<linearGradient id="SVGID_00000003797272868499115410000014005606186354687914_" gradientUnits="userSpaceOnUse" x1="6716.959" y1="64.8883" x2="6716.5088" y2="68.7583" gradientTransform="matrix(-1.08 0 0 -1 7417.5596 274)">
								<stop  offset="1.000000e-02" style="stop-color:#3D4938"/>
								<stop  offset="0.99" style="stop-color:#434343"/>
							</linearGradient>
							<path style="fill:url(#SVGID_00000003797272868499115410000014005606186354687914_);" d="M165.9,204.3
								c-0.7-0.5-0.8-0.2-3.8-1.7c-3-1.5-8.6-1.7-8.6-1.7s6.8,4.4,8.4,5.1c1.7,0.6,7.4,2.5,8.6,2.3c1.2-0.2,4-2.3,4-2.3
								s-2.5,1.1-4.5,0.6l-1.6-1.2L165.9,204.3L165.9,204.3z"/>
							<path class="st37" d="M171.3,210.9c-1.2,0.9-11.6,0.3-18.7,1c-7.1,0.6-10.8,1.6-12.7,0.9c-1.9-0.8-3.4-4-4.4-4.9
								c-1-0.9-7.3-1.5-10.6-1.7c-3.4-0.2-7.8-0.9-8.6-2.2c-0.8-1.3-4.2-5-3.5-5.6c0.7-0.6,4.1-0.4,9.1-1.6s8.9-2.4,12.7-3
								c3.7-0.6,8.9,0.3,10.5,1c1.5,0.6,6.8,3.4,8.3,3.9c1.5,0.4,2.4,4,2.4,4s11.1,2.9,13,3.2C170.5,206.1,172.5,210,171.3,210.9
								L171.3,210.9L171.3,210.9z"/>
							
								<linearGradient id="SVGID_00000174603315866595977540000009898676507171984013_" gradientUnits="userSpaceOnUse" x1="6738.0142" y1="60.7483" x2="6736.624" y2="72.6483" gradientTransform="matrix(-1.08 0 0 -1 7417.5596 274)">
								<stop  offset="1.000000e-02" style="stop-color:#3D4938"/>
								<stop  offset="0.98" style="stop-color:#382B23"/>
							</linearGradient>
							<path style="fill:url(#SVGID_00000174603315866595977540000009898676507171984013_);" d="M150.1,203.3
								c-1.9,0.1-2.2-0.1-4.7,1.3c-2.5,1.4-5.7,2.4-5.2,3.6s1.7,1.8,5.6,2.1s11.3-1.1,15.4-0.3s6.8,0.8,7.8,0.8s2.5-1.2,2.5-1.2
								s1,1.6-2.9,2.1c-3.9,0.4-16.5,2.2-18.7,2.4s-11.3,1.7-12.6,0.4s-8.5-2.8-9.4-3.4s-11.1,1.5-9.4-1.3c-9-1-7.1-11.6-5.6-11.2
								s3.8,0.6,8.3,2.1s7.7,0.3,4.7,0.1c1.2-0.2-7.1-2.6-4.7-2.2c2.4,0.4,9.5,2.3,12.5,4.1c3,1.8,4.2,1.2,6.1,1s0.2-3.1,4.6-3.8
								c4.4-0.6,9.3-0.9,7.1-0.3s-5.4,2.1-5.4,2.1s1,0.3,3,0.4c2,0.1,5.2-2.6,5.2-2.6s2.1,3,1.5,3.3c-2.2,0-4.9,1.5-4.9,1.5
								S151.9,203.3,150.1,203.3L150.1,203.3z"/>
						</g>
						
							<linearGradient id="SVGID_00000037657414155007722290000011494779372547415433_" gradientUnits="userSpaceOnUse" x1="6700.0928" y1="53.5585" x2="6666.6426" y2="128.9385" gradientTransform="matrix(-1.08 0 0 -1 7417.5596 274)">
							<stop  offset="0" style="stop-color:#465E2B"/>
							<stop  offset="0.99" style="stop-color:#78923B"/>
						</linearGradient>
						<path style="fill:url(#SVGID_00000037657414155007722290000011494779372547415433_);" d="M176.5,230.9
							c0.5,0.2,0.5,0.2,0.3,0.1C176,230.6,175.7,230.5,176.5,230.9z"/>
						
							<linearGradient id="SVGID_00000047040083404123394810000017554988214681599397_" gradientUnits="userSpaceOnUse" x1="6632.6797" y1="23.6413" x2="6599.2295" y2="99.0213" gradientTransform="matrix(-1.08 0 0 -1 7417.5596 274)">
							<stop  offset="0" style="stop-color:#465E2B"/>
							<stop  offset="0.99" style="stop-color:#78923B"/>
						</linearGradient>
						<path style="fill:url(#SVGID_00000047040083404123394810000017554988214681599397_);" d="M373.7,194.7
							c-2.9-0.1-4.6-0.4-3.6-1.2c3.3-2.7-15.4-0.7-25.3-0.7s-27.3,5.8-27.3,5.8c0,0-2.5,1-5,1.4c-0.4,0.1-0.6,0-1-0.3
							c-0.2-0.1-0.2,1.1-0.6,0.9c-0.3-0.1-1.1-1.8-1.2-1.7c-0.7,0.2,0.8,2,0.1,2.1c-0.3,0.1-0.9-1.2-1.1-1.1c-0.5,0.1-0.7,1.6-1,1.6
							s-1.2-1.1-1.1-1.2c0.1-1.5-0.4,1.3-0.6,1.2c-0.5-0.1-1,0.1-1.4,0c-0.3-0.1-0.5-0.6-0.7-0.7s-0.2-0.2-0.2-0.2s-0.7,1.1-1.2,1.1
							c-1.1,0.4-1.6-0.7-1.7-1.1c-0.9,0-0.8,1.2-1.9,1.2c-1,0.1-3.1-1-4.1-0.9c-0.2,0,1.3,1.3,1.1,1.3c-0.6-0.2-3.7-1.5-4.1-1
							c0.9,0.2,2.1,1.7,0.9,1.6c-0.6,0.2-3-1-3.5-1.4c-0.2,0-0.5,1.1-0.7,1.1c-0.5,0-0.9-1-1.2-1c-0.4,0-0.7,0.1-0.7,0.1
							c-0.1,0,1.2,1.4,1.2,1.7c-0.1,0.3-1.7-0.6-2.1-0.3c-0.2,0.2,0.8,0.9-0.7,0.6c-0.2,0,0.9,1,0.4,1.2c-0.2,0.1-2.1-0.7-2.1-0.5
							c0,0.3,1.3,1.1,1.1,1.1c-0.2,0.1-1.2-0.4-1.6-0.3c-0.3,0.1-0.1,0.7-0.4,0.8c-0.4,0.1-0.8-0.9-1.2-0.8c-0.5,0.1-1.3,1-1.9,0.9
							c-0.6-0.1-1.1-1.1-1.8-1.2c-0.7-0.1-0.5,1.1-1.4,1c-0.8,0-2.1-0.5-2.5-1c-0.1-0.2-0.1,0.8-0.1,0.9c0.5,1.6-1.2-1.3-1.4-1.3
							c-0.4,0,0.3,1.5,0,1.6c-2.8,0.3-5.3-0.9-5.9-0.6c-0.4,0.2,5,1.2,5.1,1.4c0.1,0.4-4-0.1-4.8-0.3c0.5,0.3,1.1,0.7,1.5,0.8
							c0.4,0.1,1.9,0.7,0.5,0.5c-1.4,0.1-3.4-0.5-3.6-0.5c-0.2,0.2,1.3,0.8,1.5,1.1c0.2,0.3-0.9,0.4-1.1,0.5
							c0.7,1.5-0.4,0.6-1.9-0.1c-0.1,0.3-0.8,0.3-2.1-0.2c-0.3,0.1,1,0.7,1.2,0.9c0.1,0.3-0.5,0.9-0.5,1c0,0.1-0.6-0.5-1.3-0.7
							c-0.7-0.2-0.9-0.2-0.9-0.2s0.2,0.3,0.4,0.5c0.2,0.2,1.3,1.4,1.1,1.6c-0.2,0.2-1.8-0.7-2.9-0.7c-1.1,0,1.8,1,1.8,1.2
							c0,0.1-0.4,0.5-0.9,0.5c-0.8-0.1-1.9-0.7-1.6-0.5c0.8,0.6,0.9,1.6-0.3,1.1c-0.1,0-1-1.2-1.1-1.4c-1-1.4,0.1,1.4-0.4,1.3
							c-0.7-0.2-0.9-1.2-1.3-1.1c-0.5,0.1-2.8-0.1-3.2,0c-0.2,0-4.6-1.3-4.9-1.4c-0.5-0.2-0.6,1.4-0.8,1.5c-0.8,0.4,0.2,2.5-2.6,1
							c-4.1-2.2,1.4,2.4-1.4,1.3c-2.7-1.1,1.8,2-2.2,0c-0.6-0.3-0.7,1-1.1,0.9c-0.7-0.2-1.5-1.6-1.8-1.4c-0.8,0.5-0.7,1.7-1.6,1.4
							c-2.7-0.9,0,0.6-2.7,0c-0.5-0.1-0.9,0.2-1.3,0.4c-0.4,0.3-0.7,0.6-0.9,0.6c-0.9,0-1.4-1.2-1.4-1.2s-0.8,1-1.4,1.2
							c-0.5,0.1-0.8-0.5-1.4-0.4c-0.6,0.1,1.3,0.5-1.1,0.3c-7.6-0.7,0.7,3.5,0.7,3.5s-5.9,2-10.4,1.1c-4.5-0.9-15.8,0-18-0.2
							s-7.3,2.5-11.4,1.9c-1-0.1-1.6-1.3-2.1-1.3c-0.4,0-1.2-0.9-1.5-0.6c-0.2,0.1,1,1.8,0.8,2.1c-0.2,0.4-1.6-0.5-2-0.6
							c-0.6-0.2-0.2-0.6-1.1-1.3c-0.8-0.6,0.7,1.7,0.9,2.4c0.1,0.4-2.8-1.7-2.6-1.2c0.3,0.8,1.9,2.1,1.5,1.8
							c-0.2-0.1-1.2,0.1-1.8-0.3c-0.4-0.2-0.5-1.1-0.7-1.2c-0.6-0.1-1.3,0.9-1.6,1.1c-0.9,0.4-1.1-1.3-2.5-1.4
							c-0.2,0-0.3,1.8-0.6,1.7c-1-0.1-2.2,0.7-2.2,1.1c0.2,1.6-0.9-1.5-1.2-1.4c-0.9,0.1-0.4,1.4-1.5,1.3c-0.4,0-2.1-1.4-2.5-1.5
							c-0.4,0-0.3,2.1-0.7,1.9c-1.5-0.5-2.8-1.6-2.9-1c0,0.3-1.1,1.4-1,1.7c0.3,0.9,2,0.7,2,0.1c0-0.5,1.8,0.7,3,1
							c0.7,0.2,0.8-0.6,1.4-0.5c2,0.4,4.1,1.5,3.2,1c-1.5-0.9,5.7,2.6,6.6,3.2c1.9,0.6,6.4,2.2,6.4,1.6c0-0.9,8.1,3.5,6.3,1.3
							c-1.8-2.2,6.8,3.1,6.3,0.6s9.9,4,9,2.7s12.1,2.7,12.1,2.7s68-10.1,71.1-10.4c0.3,0,2.1,0,4.7,0.1s6.3-0.3,9.9,0.2
							c3.2,0.4,3.8,2.8,11.9,0c1.5-0.5,3.9-0.1,5.7-0.2c1.8-0.1,2.2,1.1,3.7,0.9c0.6-0.1,2.5-1.4,3-1.5c0.6-0.1,1.2-0.1,1.8-0.2
							c1.1-0.1,2.2-0.3,3.2-0.5c1.8-0.3,4.1,0.5,5.5,0.2c1.4-0.3,1.8-1.8,2.9-2.1c2.3-0.7,3.8-1.4,4.9-1.9c1-0.5,1.4-0.8,1.4-0.8
							H357c0,0,8.5,0.7,5.9-0.7c-2.7-1.5,3.1,1.3,0-0.9c-3.1-2.2,5.9,1.6,7.6-1.5c1.8-3.1,3.1,1.8,3.1-0.4c0-0.6,0.4-0.8,1-0.8
							C374.3,211.1,374,202.9,373.7,194.7L373.7,194.7z"/>
						
							<linearGradient id="SVGID_00000098901573436612778090000014556601742173103513_" gradientUnits="userSpaceOnUse" x1="6565.9683" y1="529.4885" x2="6585.9985" y2="501.4585" gradientTransform="matrix(-1.189 4.817204e-02 -4.885606e-02 -1.1289 8085.666 475.5985)">
							<stop  offset="2.000000e-02" style="stop-color:#365427"/>
							<stop  offset="0.99" style="stop-color:#495E2B"/>
						</linearGradient>
						<path style="fill:url(#SVGID_00000098901573436612778090000014556601742173103513_);" d="M263.8,222.4
							c-11.9,1.8-50.6-4.4-56-3.1c-5.4,1.3-6.8,9-12.6,9.2c-5.8,0.2-7.9-2.9-7.9-2.9s-7.9,1.7-7.1,3.3c0.8,1.6-2.4,3.3,1.3,3.7
							c3.6,0.4,5.8,0.3,8.8,2.4c3,2,1.4-0.3,5.5,0.3c3,0.5,6.8,3.4,8.6,3.9c0.6,0.2-0.1-1.1,0.7-0.9c0.8,0.2,0.5-1.1,1-1.3
							s-0.2,1.8,0.2,1.5c0.3-0.2,1.6-2.7,2-2.8c0.6-0.2,0.1,3.2,2.8-0.2c1,0.1,2.4,4.3,3.4,0.2c0.2,4.1,1.5,0,2.3,0.1
							c0.2,3.5,3.9-0.9,3.8,0.1c-0.4,4,2,0.1,2.9,0.1c0.2,3.4,1.6,0.1,2.3,0.2c1,0.1,0.3,4.1,2.6,0.4c0.5,0.1-0.5,3.6,3.2,1.5
							c0.7,0.3,1.2,0.6,1.4,0.6c1.5,0,2.5-0.7,3-2.1c1.4,0.4,0.1,4.3,5.2,0.9c0.2,3.6,4.3,0.4,4.3,0.4s2.1,2.9,3.2-0.5
							c2.2-0.3,4.1,3.6,5.8-0.3c1.2,0.3,1.7-1.1,3.7-2.1c-1.8,4.4,2.2-0.8,4.2-0.8c1.4-1.7,2.3-2.6,2.9-3.1
							c-0.9,2.3,1.4,2.2,2.2,1.6c0.7-0.5,1.3-2.3,2-3.5c0.8-1.2,1.7-1.9,3.1,0c4.6-1.8-1.1-0.6,1.3-2.6c1.9-1.5-4.5,0.4-1.2-2.2
							c0.9,0.6,2.3,1.7,6.3,2.3c0.6-0.2-4.2-2.3-3.2-2.3C274.9,220.9,275.7,220.6,263.8,222.4L263.8,222.4z"/>
						
							<linearGradient id="SVGID_00000000195755040098827830000002661600282838533288_" gradientUnits="userSpaceOnUse" x1="140.3344" y1="130.981" x2="134.5744" y2="156.411" gradientTransform="matrix(1 0 0 -1 0 274)">
							<stop  offset="4.000000e-02" style="stop-color:#639179"/>
							<stop  offset="0.98" style="stop-color:#99C182"/>
						</linearGradient>
						<path style="fill:url(#SVGID_00000000195755040098827830000002661600282838533288_);" d="M2.8,152c0,0,71.4-18.1,87.4-17.4
							c16,0.7,8.6,2.8,18.8,1.4c7.1-1,29.2-0.2,32.1-0.2c2.9,0,24.8-5.5,28.6-5.1c3.8,0.3,20.1,1.5,20.1,1.5s37.9-0.5,31.6-0.5
							s-3.9,0.2-15.6,1.8c20.2,0,76.3-1.2,71.3-1.2c-6,0-60,9.2-96,7.7c-43.7-1.9-52.6-2.4-68.3,1.7c-11.3,3-62.9,6.2-68.2,8.3
							c-2.5,0.9,45.8-8,40.1-8s-37.5,4.5-39.4,4.5S2.8,152,2.8,152L2.8,152z"/>
						<g>
							<path class="st43" d="M273.1,220.1c0,0-6-1.8-10.1-4.7c-4.1-2.9-10.8-3.9-12.5-4.8s-3.9-4.2-4.5-5s-5-1.7-7.1-1.9
								c-2.2-0.2-10.4-0.2-10.4-0.2s-9.3-3-14.3-3s-6.5,3.2-8.6,4c-2.2,0.8-4.1,7.8-4.1,7.8l2.2,2.9c0,0,29.6,7.8,30.9,8.2
								c1.3,0.4,17.7,1,20.8,0.7c3-0.2,14.5-1,16-0.9c-1.5-0.1,4.3-1,4.3-1L273.1,220.1L273.1,220.1z"/>
							
								<linearGradient id="SVGID_00000065790178858496259870000009622295088408993926_" gradientUnits="userSpaceOnUse" x1="6646.7461" y1="54.0629" x2="6647.2158" y2="69.2929" gradientTransform="matrix(-1.08 0 0 -1 7417.5596 274)">
								<stop  offset="1.000000e-02" style="stop-color:#3D4938"/>
								<stop  offset="0.99" style="stop-color:#4C5854"/>
							</linearGradient>
							<path style="fill:url(#SVGID_00000065790178858496259870000009622295088408993926_);" d="M264.5,222.5
								c-2.6-0.3-6.7-4.8-10.8-6.6c-4.1-1.8-1.1-3.3-4.5-3.8c-3.5-0.4-3.5-4.7-5.6-5.9c-2.2-1.2-9.1-1.2-11.5-1.2s-7.1,0.9-11.2,0.1
								c-4.1-0.8-3.9-4.1-5.8-4.1s-8.2,3.9-9.5,4.9s-2.8,4.2-3.2,5.1c-0.4,0.9,1.9,4,1.9,4s22.3,6.9,23.4,7.1
								c1.1,0.2,12.5,1.8,12.3,1.1c-0.2-0.7-13.4-5.2-13-7.5c0.4-2.2,3.7-4.7-0.4-4.6c-4.1,0.1-3.9-1.3-5.6-2.3s-4.8-0.8-5.4-1.4
								c-0.6-0.7-2.6-1.9-0.9-1.8c1.7,0.1,14.7,3.1,16.2,3.3s6.3,6.2,8.6,8.8c2.4,2.6,7.4,2.8,8.9,3.4c1.5,0.7-7.1,2.7-5,3.1
								c2.2,0.4,22.1-0.6,25.5-1c3.5-0.4,6.9-1.1,6.9-1.1S267.1,222.8,264.5,222.5L264.5,222.5L264.5,222.5z"/>
							
								<linearGradient id="SVGID_00000132793930446050289060000002278249779830014133_" gradientUnits="userSpaceOnUse" x1="6626.9561" y1="54.3003" x2="6627.146" y2="60.2503" gradientTransform="matrix(-1.08 0 0 -1 7417.5596 274)">
								<stop  offset="1.000000e-02" style="stop-color:#3D4938"/>
								<stop  offset="0.99" style="stop-color:#4C5854"/>
							</linearGradient>
							<path style="fill:url(#SVGID_00000132793930446050289060000002278249779830014133_);" d="M271.4,221.8c0,0-14.3-7.8-18.2-8.7
								c-3.9-0.9-4.8,0.6-2.8,1.4c1.9,0.9,7.3,4.6,9.7,5.6S271.4,221.8,271.4,221.8L271.4,221.8z"/>
						</g>
						<g>
							<path class="st46" d="M246,228c-2.5-0.9-12.4-9-23-12.3s-42.6-10.5-49.2-9.5c-6.6,0.9-2.5,9.5,0.9,12.1c3.4,2.6,7,3.7,7,3.7
								s-4.3,3.9-1.6,6.1c2.7,2.2,6.4,5.4,8.4,5.7c2,0.3,21.2-0.2,25.2,0.2s13.6-1.1,14.5-1.1s11.1-1.6,13.3-1.6S248.5,229,246,228
								L246,228L246,228z"/>
							
								<linearGradient id="SVGID_00000037685282241518433960000015477089792498900124_" gradientUnits="userSpaceOnUse" x1="6674.3032" y1="45.0373" x2="6674.853" y2="62.8273" gradientTransform="matrix(-1.08 0 0 -1 7417.5596 274)">
								<stop  offset="1.000000e-02" style="stop-color:#3D4938"/>
								<stop  offset="0.99" style="stop-color:#4C5854"/>
							</linearGradient>
							<path style="fill:url(#SVGID_00000037685282241518433960000015477089792498900124_);" d="M237.2,229.8
								c-2.9-0.1-11.7-9.8-19.8-11.7s-10.1-3.1-9.2-2.2c0.9,0.9,3.1,3.1,5.4,4.5c2.3,1.4,4.9,1.9,1.8,1.8c-3.1-0.1-5.9-4.5-14.5-6.4
								c-8.6-1.9-18.5-3.9-22.4-5s-0.7-3.3-0.7-3.3s-4.5-0.9-5.7-0.3c-1.3,0.7-0.8,9,2.9,11.4c3.8,2.3,6.8,3.5,6.8,3.5
								s4.1-3.4,10.4-2.2c6.3,1.2,7,3.3,7,3.3s-13.8-0.9-15.4,1.9s10.4,7.4,11.1,8s-15.7-6.8-15.3-5.5c1.3,4.2,10.1,6.7,11,6.9
								c0.9,0.1,13.3,0,18.9,0s15.6-2.4,17.8-2.4s12,1.2,14.9-0.1c2.9-1.4,4.5-3.1,4.5-3.1S240.1,229.9,237.2,229.8L237.2,229.8
								L237.2,229.8z"/>
							
								<linearGradient id="SVGID_00000160872617721032250990000014212340114603426485_" gradientUnits="userSpaceOnUse" x1="6671.0132" y1="42.6876" x2="6670.1035" y2="50.5076" gradientTransform="matrix(-1.08 0 0 -1 7417.5596 274)">
								<stop  offset="1.000000e-02" style="stop-color:#3D4938"/>
								<stop  offset="0.99" style="stop-color:#434343"/>
							</linearGradient>
							<path style="fill:url(#SVGID_00000160872617721032250990000014212340114603426485_);" d="M225.6,232.7c0,0-1.1-0.8-12.9-6
								c-11.9-5.2-16-6.3-19.8-6.9c-3.8-0.5-9.1,1-9.1,1s8.1-5.9,19.3-0.4c7,3.4,8.4,2.2,9.5,2.9c1.1,0.7,10.1,4.2,10.1,4.2
								l-6.5-4.1c0,0,5.2,1.1,7.4,2.4s6.1,3.4,9.1,4.4c3.1,0.9,10.6,0.6,10.6,0.6s-5.9,2-10.4,2.3
								C228.4,233.3,225.6,232.7,225.6,232.7L225.6,232.7L225.6,232.7z"/>
							
								<linearGradient id="SVGID_00000155131727494280470630000000232701903713932981_" gradientUnits="userSpaceOnUse" x1="6677.0337" y1="36.3708" x2="6676.394" y2="41.9308" gradientTransform="matrix(-1.08 0 0 -1 7417.5596 274)">
								<stop  offset="1.000000e-02" style="stop-color:#3D4938"/>
								<stop  offset="0.98" style="stop-color:#382B23"/>
							</linearGradient>
							<path style="fill:url(#SVGID_00000155131727494280470630000000232701903713932981_);" d="M220.7,230.3
								c-0.4,0.1-7-0.1-13.1,0.2s-12.2,1.5-15.6,0.1c-3.4-1.4-7.8-3.7-7.8-3.7s4.6,4.6,6.7,5.2c2.1,0.7-5.2-0.1-4.1,1
								c1.1,1.1,10.5,2.8,12.8,2.9c2.3,0.1,16.6-1.9,18.1-1.9s12.9-1.5,12.9-1.5s-6.8-1.3-7.2-1.2L220.7,230.3L220.7,230.3z"/>
						</g>
					</g>
				</g>
			</g>
		</g>
	</g>
</g>
<path class="st50" d="M218.6,0.1H43C19.5,0.1,0.4,19.3,0.4,42.8v175.5c0,25.8,21,46.8,46.8,46.8h171.4c25.8,0,46.8-21,46.8-46.8
	V46.9C265.4,21.1,244.4,0.1,218.6,0.1z M257.8,218.3c0,21.7-17.6,39.2-39.2,39.2H47.2c-21.7,0-39.2-17.6-39.2-39.2V45.6
	c0-21,17-38,38-38h172.7c21.7,0,39.2,17.6,39.2,39.2V218.3L257.8,218.3z"/>
</svg>
