<?xml version="1.0" encoding="UTF-8"?><svg id="a" xmlns="http://www.w3.org/2000/svg" viewBox="0 0 222.76 213.93"><defs><style>.b{fill:#fff;}.c{fill:#fcc99e;}.d{fill:#f6efd2;}.e{fill:#fde349;}.f{fill:#f58c6d;stroke:#d76c4f;}.f,.g,.h,.i,.j,.k,.l,.m{stroke-linecap:round;stroke-linejoin:round;}.n{fill:#f79e77;}.o{opacity:.5;}.p{fill:#aa5834;}.g{fill:#834229;}.g,.i{stroke:#5b2b1a;}.q{fill:#ffdfb4;}.r{fill:#d68d51;}.s{fill:#fbb345;}.h{fill:#c8ba7f;stroke:#785f3e;}.i{fill:#9a663a;}.j{fill:#e9ddab;stroke:#927951;}.k{fill:#dcad80;stroke:#a46938;}.t{fill:#b39761;}.l{fill:#f37e5b;stroke:#984225;}.m{fill:#d86c27;stroke:#993120;}</style></defs><path class="o" d="M24.02,212.81c-7.9,0-13.1-1.36-15.91-4.15-2.28-2.27-2.1-5.5-1.85-7.22-.41-6.45,5.06-19.72,12.78-27.29,5.15-5.05,13.8-12.92,14.17-13.25,.95-.86,2.16-1.3,3.36-1.3h.04c2.64-3.01,5.16-6.02,6.66-8.19-7.03-7.86-10.17-21.84-10.54-23.62-.43-2.05,.46-4.16,2.24-5.27l1.42-.89c-4.67-17.54-4.47-19.51-4.38-20.38,.21-2.08,1.68-4.69,4.38-7.78-4.49-13.04-5.89-34.63-3.98-61.69-.82-.25-1.59-.51-2.32-.76-2.08-.73-3.43-2.75-3.33-4.95,.09-2.04,.28-5.07,.61-9.83,.12-1.69,.24-3.51,.38-5.46,.19-2.62,2.36-4.65,4.99-4.65H206.12c2.69,0,4.9,2.13,5,4.82,.22,6.01,.33,11.35,.33,15.87,0,1.98-1.17,3.78-2.99,4.58-3.72,1.64-8.62,3.09-14.57,4.32-2.55,36.87-7.83,54.99-10.48,62.06,1.37,1.48,2.77,3.41,3.31,5.55,1.39,5.46-3.64,17.47-7.64,25.76,1.22,1.74,2.35,3.96,2.38,6.26,.04,3.28-4.01,14.07-6.99,20.59,4.8,4.21,10.21,8.45,15.46,12.14,.57-.22,1.17-.32,1.77-.32,1.36,0,2.71,.55,3.69,1.62,4.14,4.52,12.2,6.85,17.01,8.24,3.4,.98,5.27,1.52,6.69,2.78,2.08,1.84,2.91,4.55,2.38,7.3,.26,1.24,.21,2.55-.15,3.87-1.04,3.76-4.45,7.02-10.12,9.69-6.65,3.14-13.09,4.66-19.69,4.66h0c-6.89,0-14.16-1.7-21.59-5.04-14.3-6.44-18.38-6.88-26.5-7.77l-2.16-.24c-9.07-1.02-17.39-2.48-19.6-9.02-.04-.12-.08-.25-.11-.38-.36-1.41-.47-3.02-.33-4.78-.65-4.81,.31-15.01,3.52-20.12,.57-2.11,1.22-4.2,1.86-6.23,.4-1.27,.78-2.51,1.14-3.72-7.01-5.09-13.14-15.2-18.31-30.19-7.3,18.09-15.93,30.2-26.12,36.69,2.01,4.85,2.87,12.45,2.24,16.79,.48,3.41-.55,6.38-2.87,8.08-.66,.49-1.45,.91-2.54,1.51-2.82,1.53-7.53,4.1-9.51,7.73-2.74,5.03-11.1,17.19-29.46,21.62-5.13,1.24-11.54,1.97-17.15,1.97Z"/><path class="b" d="M19.02,207.81c-7.9,0-13.1-1.36-15.91-4.15-2.28-2.27-2.1-5.5-1.85-7.22-.41-6.45,5.06-19.72,12.78-27.29,5.15-5.05,13.8-12.92,14.17-13.25,.95-.86,2.16-1.3,3.36-1.3h.04c2.64-3.01,5.16-6.02,6.66-8.19-7.03-7.86-10.17-21.84-10.54-23.62-.43-2.05,.46-4.16,2.24-5.27l1.42-.89c-4.67-17.54-4.47-19.51-4.38-20.38,.21-2.08,1.68-4.69,4.38-7.78-4.49-13.04-5.89-34.63-3.98-61.69-.82-.25-1.59-.51-2.32-.76-2.08-.73-3.43-2.75-3.33-4.95,.09-2.04,.28-5.07,.61-9.83,.12-1.69,.24-3.51,.38-5.46,.19-2.62,2.36-4.65,4.99-4.65H201.12c2.69,0,4.9,2.13,5,4.82,.22,6.01,.33,11.35,.33,15.87,0,1.98-1.17,3.78-2.99,4.58-3.72,1.64-8.62,3.09-14.57,4.32-2.55,36.87-7.83,54.99-10.48,62.06,1.37,1.48,2.77,3.41,3.31,5.55,1.39,5.46-3.64,17.47-7.64,25.76,1.22,1.74,2.35,3.96,2.38,6.26,.04,3.28-4.01,14.07-6.99,20.59,4.8,4.21,10.21,8.45,15.46,12.14,.57-.22,1.17-.32,1.77-.32,1.36,0,2.71,.55,3.69,1.62,4.14,4.52,12.2,6.85,17.01,8.24,3.4,.98,5.27,1.52,6.69,2.78,2.08,1.84,2.91,4.55,2.38,7.3,.26,1.24,.21,2.55-.15,3.87-1.04,3.76-4.45,7.02-10.12,9.69-6.65,3.14-13.09,4.66-19.69,4.66h0c-6.89,0-14.16-1.7-21.59-5.04-14.3-6.44-18.38-6.88-26.5-7.77l-2.16-.24c-9.07-1.02-17.39-2.48-19.6-9.02-.04-.12-.08-.25-.11-.38-.36-1.41-.47-3.02-.33-4.78-.65-4.81,.31-15.01,3.52-20.12,.57-2.11,1.22-4.2,1.86-6.23,.4-1.27,.78-2.51,1.14-3.72-7.01-5.09-13.14-15.2-18.31-30.19-7.3,18.09-15.93,30.2-26.12,36.69,2.01,4.85,2.87,12.45,2.24,16.79,.48,3.41-.55,6.38-2.87,8.08-.66,.49-1.45,.91-2.54,1.51-2.82,1.53-7.53,4.1-9.51,7.73-2.74,5.03-11.1,17.19-29.46,21.62-5.13,1.24-11.54,1.97-17.15,1.97Z"/><g><g><path class="h" d="M139.9,92.09c-.05,1.91-.11,3.82-.19,5.73h0c-.09,2.33-.2,4.65-.33,6.96-.18,3.19-.39,6.36-.65,9.5h0c-.23,2.77-.48,5.52-.77,8.23-.27,2.46-.56,4.89-.88,7.28,0,.02,0,.03,0,.05-.29,2.14-.6,4.25-.94,6.33-.34,2.11-.71,4.18-1.11,6.22-2.24,.22-4.39-.18-6.46-1.13-10.12-4.62-18.14-22.26-23.7-43.95-.12-.46-.24-.92-.35-1.38-.88-3.51-1.69-7.12-2.44-10.8-.52-2.55-1.01-5.13-1.46-7.73-.03-.16-.06-.33-.08-.49-.08-.47-.16-.95-.24-1.42-.02-.14-.05-.29-.07-.44-.02-.09-.03-.18-.04-.27-.01-.07-.02-.14-.04-.21-.12-.75-.24-1.5-.36-2.25-.03-.2-.06-.39-.09-.59,0-.04-.01-.07-.02-.11-.24-1.51-.46-3.03-.68-4.54h0c-.06-.42-.12-.84-.17-1.25h0c-.19-1.39-.38-2.78-.55-4.17-.04-.34-.09-.68-.13-1.03-.14-1.12-.27-2.23-.39-3.34-.03-.3-.07-.6-.1-.91-.1-.93-.2-1.86-.29-2.79h0c-.31-3.15-.58-6.26-.79-9.32h0c-.21-3.01-.37-5.97-.48-8.86-.07-1.77-.12-3.51-.15-5.23,0-.32-.01-.64-.02-.95-.02-1.62-.03-3.2-.02-4.75,.05-6.91,.44-13.16,1.18-18.38h39.33c.06,.59,.12,1.21,.18,1.85,.52,5.42,1.14,12.61,1.72,20.99,.04,.51,.07,1.03,.11,1.55,.13,1.88,.25,3.82,.37,5.81,.25,4.25,.48,8.74,.68,13.39h0c.19,4.45,.34,9.05,.45,13.75,.04,1.93,.08,3.87,.11,5.82h0c.1,7.46,.08,15.12-.13,22.79Z"/><path class="t" d="M100.04,74.79c5.64,16.61,17.67,58.51,40.13,54.78,22.47-3.73-27.71-82.72-27.71-82.72l-12.42,27.94Z"/></g><path class="f" d="M71.56,145.02c-.43,4.67,3.2,15.97,1.13,20.74-2.07,4.77-11.14,7.59-12.96,10.01-1.82,2.43-7.74,11.12-10.1,14.04-2.35,2.92-12.32,6.21-16.78,6.46-4.46,.24-17.44-9.7-16.88-14.85,.56-5.15,27.33-29.48,28.56-36.51,1.23-7.03,27.78-8.18,27.02,.11Z"/><g><path class="l" d="M154.5,142.48c3.5,6.51,31.95,31.09,50.26,37.17,8.42,8.04-14.12,14.27-28.19,10.44-14.07-3.84-18.7-12.92-28.93-13.27-10.23-.36-22.21,1.75-24.23-8.05-2.03-9.79,4.29-20.98,5.87-31.02,1.68-10.66,1.52-23.88,1.52-23.88"/><path class="n" d="M149.83,139.28c5.07,3.79,10.2,12.63,25.11,23.83,14.9,11.2,26.14,15.22,27.91,16.56,4.91,3.71-14.94,10.01-28.76,3.47-9.74-4.61-19.67-14.48-27.87-14.56-13.69-.13-19.4-3.95-12.02-22.49,5.64-14.15,13.48-8.43,15.64-6.81Z"/></g><path class="n" d="M63.04,150.95c-2.43,5.52-19.18,33.71-21.44,36.68-2.27,2.96-8.25,6.61-11.68,7.67-3.42,1.06-11.81-10.04-11.83-14.69-.02-4.65,26.98-29.28,28.38-34.22,1.4-4.94,18.7-.27,16.57,4.57Z"/><path class="j" d="M185.06,6.12c-.17,5.99-.41,11.61-.7,16.87-.07,1.19-.14,2.37-.21,3.52-3.21,51.89-11.72,67.55-11.72,67.55,0,0,3.77,2.85,4.45,5.49,1.34,5.25-8.72,25.22-8.72,25.22,0,0,3.28,3.29,3.31,5.63,.03,2.24-5.03,16.12-8.14,21.72-.14,.24-.27,.47-.39,.67-2.39,.62-7.94-.32-14.45-4.66-3.2-2.13-6.62-5.08-10.02-9.06-.68-.8-1.37-1.64-2.05-2.53-.09-.12-.19-.25-.28-.37-.18-.24-.37-.49-.55-.74-1.25-1.71-2.56-3.95-3.9-6.65h0c-.41-.82-.81-1.67-1.22-2.57h0c-6.34-13.94-13.12-37.38-17.24-62.09-.2-1.23-.4-2.45-.59-3.69h0c-.13-.87-.26-1.72-.39-2.59h0c-.39-2.68-.75-5.36-1.08-8.05-.29-2.4-.54-4.79-.77-7.18-.06-.58-.11-1.16-.16-1.74h0c-.03-.33-.06-.66-.08-.99-.06-.65-.11-1.31-.16-1.96h0c-.01-.14-.02-.28-.03-.42h0c-.02-.28-.04-.56-.06-.83h0s0-.04,0-.06c0-.01,0-.02,0-.03,0-.03,0-.06,0-.08,0,0,0-.01,0-.01-.08-1.1-.15-2.19-.21-3.28h0c-.05-.87-.1-1.73-.13-2.59-.02-.34-.03-.68-.05-1.02-.04-.97-.07-1.94-.1-2.9-.02-.82-.04-1.64-.05-2.45,0-.23,0-.46-.01-.69,0-.72-.01-1.44-.01-2.16,0-.25,0-.5,0-.75,0-.57,0-1.13,.02-1.7,0-.22,0-.44,0-.66v-.07c.07-4.04,.12-8.07,.15-12.1h75.57Z"/><path class="d" d="M133.62,36.35c16.19,.17,42.41-2.26,47.72-5.09,0,11.97-3.35,45.83-8.09,52.06-15.91-.75-33.9-30.09-39.63-46.96Z"/><path class="d" d="M127.58,40.44c2.69,22.88,28.92,49.5,32.27,52.79,3.35,3.3-2.37,19.81-2.37,19.81l9.8,8.43s9.11-16.1,8.38-22.19c-13.57-11.96-35.69-27.3-48.07-58.84Z"/><path class="d" d="M119.88,50.88c2.85,24.99,17.79,57.44,35.16,74.01,.62,3.45-3.92,20.76-3.74,22.02,.18,1.25,7.82,4.42,10.46,3.76,2.64-.66,9.59-18.38,7.99-22.14-1.6-3.75-26.2-17.33-49.88-77.65Z"/><path class="j" d="M116.81,6.12c-.84,4.9-1.77,9.74-2.78,14.51-.1,.51-.21,1.01-.32,1.51-.04,.21-.09,.41-.13,.61-.11,.54-.23,1.09-.35,1.63-.19,.88-.39,1.75-.59,2.62h0c-.2,.88-.4,1.75-.6,2.61-.08,.35-.16,.7-.25,1.04-.1,.43-.21,.86-.31,1.29h0c-.24,1.03-.5,2.05-.75,3.07-.17,.69-.35,1.38-.52,2.07h0c-.07,.29-.14,.57-.22,.84h0c-.21,.82-.42,1.64-.64,2.45-.12,.45-.24,.91-.36,1.36-.13,.48-.26,.96-.39,1.44-.9,3.32-1.84,6.58-2.8,9.8-.07,.24-.15,.49-.22,.73-.16,.53-.32,1.07-.48,1.6-.08,.24-.15,.48-.22,.73-.27,.88-.55,1.76-.83,2.63-.2,.64-.4,1.27-.61,1.9-.47,1.47-.95,2.93-1.44,4.37-.21,.64-.43,1.27-.65,1.9-.25,.74-.51,1.47-.76,2.2-.07,.21-.15,.41-.22,.62h0c-.23,.66-.46,1.32-.7,1.97l-.02,.06c-.05,.13-.09,.26-.14,.39-.24,.66-.48,1.32-.72,1.97-.04,.13-.09,.26-.14,.39-.24,.66-.48,1.31-.73,1.96-.05,.13-.09,.25-.14,.37-.87,2.31-1.75,4.58-2.64,6.8-.95,2.36-1.9,4.68-2.87,6.94-.11,.25-.22,.51-.33,.76-.34,.79-.68,1.57-1.02,2.34-.15,.34-.3,.67-.45,1h0c-1.84,4.12-3.71,8.05-5.59,11.77h0c-.15,.31-.3,.61-.46,.91-.5,.97-.99,1.92-1.49,2.86-.09,.17-.18,.34-.27,.52-2.72,5.09-5.45,9.74-8.16,13.87-.26,.39-.51,.77-.76,1.15-.73,1.08-1.45,2.13-2.17,3.14-1.59,2.23-3.16,4.27-4.71,6.11-.22,.26-.43,.51-.65,.76,0,0,0,0,0,0-.03,.03-.05,.06-.08,.09h0c-.89,1.03-1.77,2-2.65,2.89-.23,.23-.46,.47-.69,.69-2.43,2.4-4.77,4.26-7,5.53h0c-2.73,1.56-5.27,2.23-7.57,1.91-.57-.08-1.12-.22-1.65-.41l-.09-.03h0c-.48-.19-.95-.42-1.41-.69h0c-.12-.08-.24-.15-.36-.23-.08-.05-.16-.11-.24-.16-8.03-5.55-11.84-23.55-11.84-23.55l4.56-2.86s-5.42-19.97-5.19-22.14c.22-2.17,5.19-7.17,5.19-7.17-4.76-10.98-7.19-33.08-4.47-66.53,.25-3.08,.54-6.26,.89-9.54,.03-.34,.07-.68,.11-1.03,.21-1.94,.4-4.06,.57-6.37H116.81Z"/><path class="m" d="M121.73,6.12c-.49,4.66-1,9.19-1.53,13.58-.41,3.37-.83,6.67-1.27,9.89-.05,.38-.1,.76-.16,1.14-.51,3.74-1.04,7.37-1.59,10.89h0c-.54,3.49-1.09,6.87-1.66,10.16-.74,4.27-1.51,8.38-2.3,12.33-2.15,10.7-4.48,20.23-6.97,28.68-.46,1.54-.91,3.05-1.38,4.52-9.44,29.88-20.96,45.16-33.2,50.73l-.17,.08s-.03,.01-.04,.02c-1.06,.5-3.94,.88-7.49,.98-.32,0-.64,.01-.97,.02-2.06,.03-4.3-.04-6.5-.24-3.82-.34-7.52-1.05-9.98-2.3-.03-.02-.06-.03-.09-.04-.2-.1-.39-.21-.57-.32-.28-.17-.54-.35-.78-.54h0c.45,.09,.89,.17,1.34,.21,.09,.01,.17,.02,.26,.03,2.24,.18,4.54-.29,6.89-1.46,2.22-1.1,4.48-2.84,6.77-5.23,.92-.97,1.85-2.05,2.78-3.23,3.32-4.25,6.66-9.92,9.97-17.13,8.18-17.82,16.15-45.03,23.03-83.43,.3-1.7,.61-3.43,.91-5.18,.05-.31,.11-.63,.16-.95h0c.27-1.61,.55-3.24,.82-4.9,.96-5.85,1.9-11.95,2.82-18.29h20.92Z"/><g><path class="s" d="M107.87,35.79c.13-.12,.26-.26,.38-.42-.05,.13-.11,.27-.18,.4,.25-.27,.47-.61,.61-1.01,.31-.93,.36-1.8,.27-2.51-.05-.36-.13-.68-.28-.98-.14-.29-.34-.59-.7-.72-.04-.02-.09-.02-.14-.03-.28-.06-.57,.08-.77,.28-.21,.19-.36,.43-.49,.66-.25,.48-.42,.99-.54,1.52-.11,.53-.17,1.09-.12,1.64,.05,.53,.21,1.13,.7,1.34,.05,.02,.09,.03,.13,.03h.16l.06,.02h.06c.03-.13-.25,1.17-.13,.62h0c.01-.05,.02-.1,.03-.14,.01-.08,.01-.14,0-.18,0-.01,0-.03,0-.04h0l.02-.4h0s0-.03,0-.03c0,.14-.02,.29-.02,.43h0v.02s0,.04,0,.06c0,.05,0,.12-.02,.22v.05h-.01c.09-.41-.19,.91,.19-.91h-.06l-.13-.03h-.07l-.04-.05s-.06-.04-.1-.06c-.34-.22-.41-.65-.43-1.01-.02-.38,.03-.75,.12-1.08,.08-.33,.21-.63,.38-.84,.16-.2,.42-.38,.68-.14,.26,.26,.25,.75,.19,1.09-.07,.36-.21,.65-.35,.81-.07,.09-.21,.16-.25,.16-.05,0,.03-.03,.06,.12,.02,.07,.02,.17,0,.28,0,.03-.01,.06-.02,.09v.05h-.01l-.34,.03h-.03c-.07-.36,.45,3.18,.24,1.68h0s0-.02,0-.02c.14-2.9,.04-.8,.07-1.45h-.01l-.02,.02-.02,.02s-.03,.03-.04,.05c-.02,.03-.03,.06-.04,.1,0,.06,.04,.13,.11,.19h0c-.02,.48,.05-1.05-.05,1.07h0v.02h0c-.25-1.71-.06-.47-.11-.86h.28s0,0,0,0h.02l.02,.03s.06,.04,.1,.06c.29,.14,.79-.1,1.13-.69,0,0-.11,.14-.24,.25-.12,.11-.24,.2-.24,.2Z"/><path class="s" d="M109.09,37.51c.29-.33,.58-.68,.81-1.07-.13,.29-.29,.58-.47,.87,.54-.66,.97-1.44,1.29-2.31,.73-2.06,.97-4.07,.88-5.91-.05-.92-.18-1.82-.48-2.67-.14-.42-.34-.83-.6-1.21-.26-.38-.61-.71-1.05-.91-.11-.07-.23-.08-.35-.12-.7-.23-1.46,.13-1.98,.6-.53,.48-.93,1.09-1.27,1.7-.66,1.25-1.09,2.59-1.38,3.97-.28,1.37-.42,2.8-.3,4.2,.06,.7,.19,1.4,.45,2.04,.25,.64,.68,1.24,1.3,1.54,.12,.06,.25,.08,.36,.12l.08,.02s.09,0,.13,0c.04,0,.08,0,.12-.01,.14-.02,.21-.05,.2-.1-.01-.05-.1-.12-.22-.16-.02,0-.01,0-.07-.02-.04,0-.11-.02-.12-.03-.05-.02-.09-.05-.14-.07-.1-.04-.21-.08-.31-.15-.54-.32-.89-.89-1.09-1.47-.21-.59-.3-1.21-.34-1.83-.08-1.24,.07-2.48,.32-3.65,.27-1.17,.66-2.3,1.24-3.26,.29-.48,.63-.93,1.07-1.24,.43-.31,1.03-.48,1.56-.2,.28,.11,.51,.34,.71,.58,.18,.26,.34,.53,.44,.84,.22,.6,.3,1.23,.32,1.84,.05,1.23-.14,2.39-.42,3.41-.15,.53-.36,.97-.58,1.55-.31,.81-.61,1.56-1.05,2.18-.22,.31-.47,.57-.71,.76-.06,.04-.12,.08-.17,.12l-.08,.06h0s-.1,.01-.15,.02c-.03,0-.01,0-.02,.01l-.02,.02c-.04,.06-.08,.13-.12,.2-.17,.12-.17,.25-.02,.38,.05,.06,.11,.11,.21,.17l.08,.04c.12,0,.11,0,.13,0h.06c.07,.02,.16,.02,.25,.03,.35-.01,.8-.17,1.25-.52,.45-.35,.88-.89,1.25-1.55,0,0-.06,.08-.14,.2-.08,.12-.2,.28-.32,.43-.11,.15-.25,.29-.34,.39-.1,.1-.16,.17-.16,.17Z"/><path class="s" d="M110.48,39.47c.52-.52,1-1.09,1.4-1.75-.12,.25-.25,.49-.4,.71-.15,.23-.28,.48-.46,.68,.93-1.05,1.66-2.38,2.13-3.83,.55-1.71,.8-3.35,.88-4.82,.08-1.48-.02-2.8-.24-3.99-.22-1.18-.57-2.23-1.08-3.19-.25-.49-.57-.94-.95-1.36-.38-.42-.87-.8-1.47-1.03-.14-.07-.31-.11-.46-.17-.46-.09-.95-.14-1.4-.05-.46,.07-.85,.27-1.23,.47-.73,.44-1.31,1.02-1.83,1.66-1.03,1.31-1.87,2.92-2.51,4.94-.32,1-.57,2.11-.74,3.28-.17,1.17-.25,2.43-.14,3.69,.1,1.25,.38,2.51,.93,3.55,.54,1.03,1.34,1.87,2.37,2.29,.2,.08,.41,.13,.59,.18,.04,.01,.09,.02,.13,.03,0,0,0,0,.02-.01,.1,0,.18,.01,.26,.02,.32,0,.49-.03,.45-.08-.02-.05-.24-.12-.56-.2-.03,0-.11-.03-.1-.03l-.05-.02c-.08-.03-.16-.06-.24-.1-.17-.06-.36-.12-.54-.23-1.9-.97-2.69-3.35-2.79-5.63-.12-2.3,.29-4.48,.84-6.33,.57-1.86,1.32-3.4,2.27-4.68,.48-.63,1.02-1.21,1.7-1.64,.18-.1,.34-.21,.54-.28,.1-.04,.19-.08,.29-.11l.31-.07c.1-.03,.21-.04,.32-.03,.11,0,.22,0,.32,0l.32,.05c.05,0,.11,.02,.16,.02l.15,.05c.45,.14,.83,.41,1.18,.69,.32,.32,.6,.67,.8,1.06,.43,.77,.67,1.63,.82,2.51,.29,1.76,.19,3.67-.18,5.5-.19,.95-.49,1.78-.88,2.95-.57,1.62-1.23,3.19-2.18,4.3-.46,.55-.98,.95-1.44,1.22-.12,.06-.23,.11-.33,.16-.05,.03-.1,.05-.15,.08h-.02s.03,.01,.04,.01h-.03l-.08,.04c-.2,.07-.37,.14-.49,.21-.17,.12-.17,.26-.02,.38,.11,.06,.3,.12,.54,.16,.06,0,.13,.02,.2,.03-.17,.03-.08,.02-.06,.02h.09c.13,0,.26,0,.4,0,.57-.05,1.31-.26,2.07-.8,.76-.52,1.52-1.39,2.15-2.5,0,0-.09,.14-.23,.34-.13,.21-.34,.46-.54,.71-.19,.26-.42,.47-.59,.64-.16,.16-.27,.27-.27,.27Z"/><path class="s" d="M111.91,41.49c.75-.71,1.45-1.51,2.01-2.46-.09,.17-.18,.34-.27,.51-.1,.16-.21,.32-.32,.48-.22,.31-.41,.67-.67,.93,1.34-1.44,2.34-3.35,2.97-5.39,.72-2.4,.98-4.66,.98-6.62,0-1.96-.27-3.62-.72-4.97-.45-1.37-1.06-2.42-1.84-3.32-.38-.46-.83-.86-1.34-1.23-.25-.18-.54-.35-.84-.51-.32-.14-.64-.28-1-.39l-.54-.18c-.55-.06-1.12-.16-1.64-.13-.54,.02-1,.12-1.44,.24-.87,.27-1.6,.67-2.31,1.2-1.38,1.09-2.7,2.73-3.76,5.34-.53,1.26-.97,2.79-1.28,4.45-.07,.42-.16,.82-.2,1.27l-.14,1.33c-.03,.91-.08,1.83,0,2.77,.13,1.86,.6,3.73,1.49,5.15,.88,1.42,2.11,2.45,3.56,2.96,.29,.1,.57,.16,.82,.22,.06,.01,.12,.03,.18,.04-.02,0-.08-.02-.1-.03,.15,.02,.29,.03,.41,.04,.5,.03,.76,0,.7-.06-.04-.05-.38-.12-.9-.24l-.1-.02h.04l-.04-.02c-.11-.03-.23-.07-.35-.11-.25-.08-.52-.15-.78-.28-1.36-.58-2.48-1.63-3.25-3.04-.78-1.42-1.15-3.22-1.22-4.96-.07-1.74,.08-3.48,.4-5,.32-1.52,.73-2.93,1.22-4.12,.5-1.17,1.05-2.2,1.64-3.01,.6-.81,1.21-1.47,1.87-1.99,.66-.52,1.35-.92,2.17-1.18,.21-.06,.41-.13,.65-.16l.34-.06,.36-.02c.49-.01,1,.08,1.51,.17,.52,.19,1,.4,1.44,.66,.41,.29,.79,.59,1.1,.95,.63,.69,1.08,1.49,1.43,2.39,.35,.89,.59,1.9,.72,2.99,.12,1.11,.12,2.32,.01,3.57-.12,1.3-.39,2.5-.87,4.33-.36,1.29-.82,2.58-1.41,3.75-.16,.28-.3,.58-.47,.84-.17,.26-.34,.53-.51,.78-.19,.23-.38,.46-.56,.69-.18,.23-.39,.4-.57,.6-.79,.73-1.6,1.2-2.29,1.48-.17,.06-.34,.11-.5,.17-.08,.03-.15,.05-.23,.08h-.02s.05,0,.1,0h.14s-.03,0-.05,0l-.14,.04c-.36,.09-.66,.16-.86,.22-.17,.12-.17,.25-.02,.39,.17,.06,.49,.12,.88,.15,.1,0,.21,.01,.32,.02,.07,0-.13,.02-.23,.03h-.09s0,0,0,0h.2c.18,0,.36,0,.56,0,.79-.07,1.82-.33,2.91-1.03,1.09-.69,2.19-1.9,3.07-3.47,0,0-.13,.2-.32,.49-.17,.3-.47,.66-.76,1.01-.15,.17-.27,.36-.43,.5-.15,.14-.29,.28-.41,.39-.24,.23-.4,.38-.4,.38Z"/></g><path class="s" d="M93.51,79.92c-.76,5.73,9.47,5.86,10.94,4.6,1.47-1.26,7.33-24.07,11.38-41.86-3.48,14.23-9.08,77.86-38.83,100.62,7.26-7.19,13.26-17.56,12.42-23.37,0,0-3.79-3.71-9.4,.05-6.59,13.6-16.19,24.42-23.77,25.89,17.75-10.52,32.7-60.08,41.49-107.8,2.51,1.47-1.99,24.9-4.24,41.86Z"/><g><path class="e" d="M90.08,107.75c.15-.1,.3-.21,.44-.35-.07,.12-.15,.25-.24,.37,.29-.23,.56-.53,.77-.9,.46-.87,.65-1.72,.67-2.44,0-.36-.02-.7-.12-1.02-.09-.31-.25-.64-.58-.82-.04-.03-.09-.04-.13-.06-.26-.11-.58,0-.81,.15-.23,.16-.42,.36-.59,.58-.33,.43-.58,.91-.78,1.41-.2,.51-.34,1.05-.38,1.6-.03,.53,.03,1.14,.47,1.43,.04,.03,.09,.04,.13,.05h.03l.12,.03,.06,.02h.06c.05-.11-.43,1.13-.23,.6h0c.02-.05,.04-.09,.05-.13,.02-.08,.03-.14,.04-.17,0-.01,0-.03,0-.04h0l.08-.39h0s0-.02,0-.03c-.03,.14-.06,.28-.09,.42h0v.02s0,.04-.01,.06c0,.05-.02,.12-.06,.21v.03l-.02,.02h0c.15-.39-.34,.86,.34-.86h-.03l-.03-.02-.13-.04-.06-.02h0l-.04-.04s-.06-.04-.09-.07c-.3-.27-.3-.71-.26-1.07,.04-.38,.15-.73,.29-1.04,.14-.31,.31-.59,.51-.77,.19-.17,.47-.31,.69-.03,.22,.3,.13,.78,0,1.11-.13,.34-.31,.61-.48,.75-.09,.08-.23,.13-.27,.12-.05,0,.03-.02,.04,.12,0,.07-.01,.17-.05,.28-.01,.03-.02,.06-.03,.08l-.02,.04h0l-.34-.03h-.03c0-.37-.06,3.21-.04,1.69h0s0-.02,0-.02c.6-2.84,.17-.79,.3-1.42h-.02l-.02,.02-.03,.02s-.04,.03-.05,.04c-.03,.03-.04,.06-.05,.09-.01,.06,.01,.13,.08,.21h0c-.1,.47,.22-1.03-.22,1.05h0v.02h0c.03-1.73,.02-.48,.03-.86h.04l.16,.03h.08s0,.01,0,.01h.01l.02,.03s.06,.05,.09,.07c.26,.18,.79,.03,1.23-.5,0,0-.13,.12-.27,.2-.13,.09-.27,.16-.27,.16Z"/><path class="e" d="M91.01,109.64c.34-.28,.68-.58,.97-.92-.18,.27-.39,.53-.61,.78,.63-.57,1.19-1.26,1.65-2.07,1.05-1.92,1.6-3.87,1.82-5.7,.1-.92,.11-1.82-.04-2.71-.07-.44-.2-.88-.4-1.29-.19-.41-.49-.8-.89-1.06-.09-.08-.22-.12-.32-.17-.66-.34-1.46-.11-2.05,.27-.6,.39-1.09,.93-1.52,1.48-.85,1.13-1.49,2.38-1.99,3.7-.5,1.31-.87,2.7-.97,4.1-.05,.7-.04,1.41,.12,2.09,.15,.67,.47,1.33,1.04,1.72,.11,.08,.23,.12,.33,.17l.08,.03s.09,.02,.13,.03c.04,0,.08,0,.12,0,.14,0,.22-.01,.21-.07,0-.05-.07-.13-.19-.2-.02-.01,0-.01-.07-.03-.04-.02-.11-.04-.12-.05-.04-.03-.08-.06-.13-.09-.09-.06-.2-.11-.28-.2-.48-.4-.74-1.02-.84-1.62-.11-.62-.1-1.24-.04-1.86,.12-1.24,.46-2.43,.9-3.55,.45-1.11,1.02-2.16,1.74-3.02,.36-.43,.77-.81,1.26-1.05,.47-.24,1.09-.31,1.57,.05,.26,.15,.45,.42,.61,.68,.14,.28,.25,.58,.3,.9,.12,.62,.1,1.26,.02,1.87-.15,1.22-.52,2.34-.96,3.3-.23,.5-.51,.9-.82,1.44-.44,.75-.85,1.44-1.39,1.99-.26,.27-.55,.48-.82,.64-.07,.03-.13,.06-.19,.1l-.09,.05h-.01s-.1,0-.15,0c-.03,0-.01,0-.02,0l-.02,.02c-.05,.05-.1,.11-.15,.18-.19,.09-.21,.22-.09,.38,.04,.06,.09,.13,.18,.2l.07,.05c.12,.02,.1,.02,.12,.03l.05,.02c.07,.02,.15,.04,.24,.06,.35,.04,.82-.04,1.32-.32,.5-.27,1.01-.74,1.48-1.33,0,0-.07,.07-.17,.18-.1,.11-.24,.24-.39,.37-.14,.13-.29,.24-.4,.33-.11,.08-.19,.14-.19,.14Z"/><path class="e" d="M92.06,111.8c.59-.43,1.17-.91,1.66-1.5-.15,.22-.32,.44-.51,.64-.19,.2-.35,.43-.56,.6,1.09-.89,2.02-2.08,2.72-3.44,.81-1.6,1.32-3.18,1.64-4.62,.31-1.45,.43-2.77,.4-3.97-.03-1.21-.2-2.29-.56-3.32-.17-.52-.41-1.02-.72-1.49-.31-.48-.73-.93-1.28-1.25-.13-.09-.29-.16-.43-.24-.44-.17-.92-.29-1.38-.27-.47,0-.88,.13-1.29,.27-.79,.32-1.45,.8-2.07,1.35-1.22,1.13-2.32,2.58-3.27,4.48-.48,.93-.9,1.99-1.26,3.12-.36,1.13-.63,2.36-.73,3.62-.1,1.25-.02,2.54,.35,3.65,.37,1.1,1.02,2.06,1.97,2.64,.19,.12,.38,.19,.55,.27,.04,.02,.08,.03,.12,.05,0,0,0,0,.02,0,.09,.02,.18,.04,.26,.06,.31,.06,.49,.05,.45,0-.01-.05-.22-.16-.52-.29-.03-.01-.1-.04-.09-.04l-.04-.03c-.07-.04-.15-.09-.22-.13-.16-.09-.34-.18-.5-.31-1.73-1.26-2.12-3.74-1.85-6,.25-2.29,1-4.38,1.84-6.12,.86-1.74,1.85-3.15,2.99-4.25,.57-.55,1.2-1.04,1.94-1.35,.19-.07,.37-.15,.58-.18,.1-.02,.2-.05,.3-.06l.32-.02c.11-.01,.21,0,.32,.02,.11,.02,.21,.03,.32,.05l.31,.1c.05,.02,.1,.04,.16,.05l.14,.08c.42,.21,.75,.54,1.05,.88,.26,.37,.49,.76,.62,1.18,.3,.83,.4,1.72,.41,2.61,0,1.79-.4,3.66-1.06,5.4-.34,.91-.77,1.68-1.34,2.77-.82,1.51-1.73,2.95-2.83,3.89-.54,.47-1.12,.78-1.61,.97-.12,.04-.24,.07-.36,.1-.05,.02-.11,.03-.16,.05h-.02s.03,.01,.04,.02h-.03l-.08,.02c-.21,.04-.39,.08-.52,.13-.19,.1-.21,.22-.09,.38,.1,.08,.27,.16,.51,.24,.06,.02,.13,.04,.19,.06-.17,0-.08,0-.06,.01l.09,.02c.13,.02,.26,.04,.4,.07,.57,.04,1.33-.05,2.17-.46,.84-.39,1.72-1.13,2.52-2.12,0,0-.11,.12-.28,.3-.16,.19-.41,.4-.65,.62-.23,.22-.49,.4-.68,.54-.19,.13-.32,.22-.32,.22Z"/><path class="e" d="M93.15,114.02c.85-.59,1.67-1.26,2.38-2.1-.12,.15-.23,.31-.35,.46-.12,.15-.26,.28-.39,.42-.27,.27-.51,.59-.81,.81,1.56-1.21,2.85-2.93,3.8-4.85,1.1-2.25,1.71-4.45,2.03-6.37,.31-1.93,.31-3.61,.09-5.02-.22-1.42-.66-2.56-1.29-3.57-.3-.51-.68-.98-1.13-1.43-.22-.22-.48-.43-.74-.64-.29-.19-.59-.38-.92-.55l-.51-.27c-.54-.14-1.08-.34-1.6-.4-.53-.07-1-.04-1.46,0-.9,.12-1.69,.4-2.47,.81-1.54,.85-3.11,2.26-4.56,4.67-.73,1.16-1.41,2.6-1.98,4.18-.13,.41-.29,.79-.41,1.23l-.35,1.29c-.18,.9-.38,1.79-.44,2.73-.17,1.86,0,3.77,.65,5.32,.64,1.55,1.69,2.75,3.04,3.49,.27,.15,.54,.25,.78,.35,.06,.02,.12,.05,.17,.07-.02,0-.07-.04-.09-.05,.14,.04,.28,.08,.4,.11,.48,.11,.75,.12,.7,.06-.03-.06-.36-.18-.85-.38l-.09-.04-.05-.02h.02l.05,.02h.02l-.04-.02c-.1-.05-.21-.11-.33-.17-.23-.12-.48-.23-.72-.4-1.25-.79-2.19-2-2.73-3.53-.54-1.52-.62-3.36-.41-5.09,.21-1.73,.64-3.42,1.19-4.88,.56-1.45,1.19-2.78,1.87-3.87,.68-1.08,1.39-2,2.1-2.71,.71-.7,1.43-1.25,2.16-1.66,.73-.41,1.48-.69,2.33-.82,.22-.02,.43-.06,.66-.05h.34l.36,.03c.48,.07,.98,.24,1.46,.41,.49,.27,.92,.56,1.31,.88,.36,.35,.69,.71,.93,1.11,.51,.79,.83,1.65,1.03,2.59,.2,.94,.28,1.96,.23,3.07-.06,1.11-.25,2.31-.56,3.52-.33,1.26-.78,2.4-1.55,4.14-.56,1.22-1.22,2.42-1.99,3.48-.2,.25-.39,.52-.6,.76-.21,.23-.42,.46-.63,.69-.22,.2-.44,.4-.66,.59-.21,.19-.45,.34-.66,.5-.89,.59-1.77,.92-2.5,1.1-.18,.03-.35,.06-.52,.09-.08,.02-.15,.03-.23,.04h-.03s.05,.01,.09,.02h.14s-.03,.01-.05,.02h-.14c-.37,.04-.67,.06-.88,.09-.19,.09-.21,.22-.09,.38,.16,.09,.46,.2,.85,.29,.1,.02,.2,.04,.31,.06,.07,0-.13,0-.23,0h-.09s0,0,0,0h.07l.12,.03c.18,.02,.36,.05,.55,.08,.79,.06,1.85-.04,3.03-.55,1.18-.5,2.46-1.53,3.58-2.93,0,0-.16,.17-.39,.43-.22,.27-.57,.58-.91,.88-.17,.15-.33,.32-.5,.43-.17,.12-.33,.23-.47,.32-.27,.19-.45,.31-.45,.31Z"/></g><g><path class="s" d="M102.1,70.19c.14-.12,.28-.24,.4-.39-.06,.13-.13,.26-.2,.39,.27-.25,.51-.58,.68-.97,.37-.91,.48-1.78,.44-2.49-.02-.36-.09-.69-.21-1-.12-.3-.31-.61-.66-.76-.04-.02-.09-.03-.14-.04-.27-.08-.58,.05-.79,.23-.22,.18-.39,.4-.53,.63-.28,.46-.49,.96-.64,1.48-.15,.52-.24,1.08-.22,1.63,.02,.53,.14,1.14,.61,1.38,.04,.02,.09,.03,.13,.04h.03l.12,.02h.1l.02,.02h0c.04-.13-.33,1.15-.17,.61h0c.02-.05,.03-.1,.04-.14,.02-.08,.02-.14,.02-.18,0-.01,0-.03,0-.04h0l.04-.39h0v-.03c-.02,.14-.03,.28-.05,.43h0v.02s0,.04,0,.06c0,.05-.01,.12-.04,.21v.03l-.02,.02h0c.11-.4-.25,.89,.25-.89h-.06l-.13-.04h-.06v-.02l-.04-.03s-.06-.04-.09-.06c-.32-.24-.36-.68-.36-1.04,0-.38,.08-.74,.19-1.07,.11-.33,.25-.61,.43-.81,.17-.19,.44-.35,.68-.09,.24,.28,.2,.77,.11,1.1-.09,.35-.25,.63-.4,.79-.08,.09-.22,.15-.26,.15-.05,0,.03-.02,.05,.12,.01,.07,0,.17-.02,.28,0,.03-.02,.06-.03,.09v.04h-.39c-.04-.36,.24,3.21,.13,1.69h0s0-.02,0-.02c.32-2.89,.09-.8,.16-1.44h-.02l-.02,.02-.03,.02s-.03,.03-.04,.05c-.02,.03-.04,.06-.04,.09,0,.06,.03,.13,.1,.2h0c-.05,.48,.12-1.05-.12,1.06h0v.02h0c-.13-1.72-.03-.47-.05-.86h.28s0,.01,0,.01h.02l.02,.03s.06,.04,.1,.06c.28,.15,.79-.05,1.17-.61,0,0-.12,.13-.25,.23-.12,.11-.25,.18-.25,.18Z"/><path class="s" d="M103.2,71.99c.32-.31,.62-.64,.88-1.01-.15,.28-.33,.56-.53,.83,.58-.63,1.06-1.37,1.44-2.22,.86-2.01,1.23-4,1.27-5.84,.01-.92-.06-1.83-.3-2.69-.11-.43-.28-.86-.52-1.25-.23-.39-.56-.75-.99-.97-.1-.07-.23-.09-.34-.14-.69-.27-1.46,.04-2.01,.47-.56,.45-1,1.03-1.37,1.62-.74,1.2-1.26,2.52-1.63,3.87-.37,1.35-.6,2.77-.58,4.18,.02,.7,.1,1.41,.31,2.07,.21,.65,.59,1.28,1.19,1.62,.12,.07,.24,.1,.35,.14l.08,.02s.09,0,.13,.02c.04,0,.08,0,.12,0,.14,0,.22-.04,.21-.09,0-.05-.09-.12-.21-.18-.02,0,0-.01-.07-.02-.04-.01-.11-.03-.12-.04-.04-.02-.09-.05-.14-.08-.1-.05-.21-.1-.3-.17-.52-.35-.83-.94-1-1.54-.17-.6-.22-1.23-.22-1.85,0-1.24,.23-2.47,.56-3.62,.34-1.15,.81-2.25,1.45-3.17,.32-.46,.69-.88,1.15-1.17,.45-.28,1.06-.41,1.56-.1,.27,.13,.49,.38,.67,.62,.16,.27,.3,.55,.38,.86,.18,.61,.22,1.25,.2,1.86-.03,1.23-.29,2.38-.64,3.37-.18,.52-.43,.95-.68,1.51-.36,.78-.71,1.51-1.19,2.11-.24,.29-.51,.53-.76,.72-.06,.04-.13,.08-.18,.11l-.08,.06h0s-.1,0-.15,0c-.03,0-.01,0-.02,0l-.02,.02c-.05,.05-.09,.12-.13,.19-.18,.11-.19,.24-.05,.38,.04,.06,.1,.12,.2,.18l.08,.05c.12,.01,.11,.01,.13,.02h.05c.07,.02,.16,.04,.25,.05,.35,0,.82-.11,1.28-.44,.47-.32,.93-.83,1.35-1.47,0,0-.06,.08-.15,.19-.09,.12-.22,.26-.35,.4-.13,.14-.27,.27-.37,.37-.1,.09-.17,.16-.17,.16Z"/><path class="s" d="M104.46,74.03c.55-.49,1.07-1.02,1.51-1.66-.13,.24-.28,.47-.44,.69-.16,.22-.31,.46-.5,.65,1-.99,1.81-2.27,2.37-3.69,.66-1.67,1.01-3.29,1.19-4.75,.17-1.47,.17-2.8,.02-3.99-.15-1.2-.42-2.26-.87-3.25-.22-.5-.51-.97-.86-1.42-.35-.45-.82-.85-1.4-1.12-.14-.08-.3-.13-.45-.19-.46-.13-.94-.2-1.4-.14-.46,.04-.87,.21-1.26,.39-.75,.39-1.37,.93-1.94,1.54-1.11,1.24-2.06,2.79-2.83,4.77-.39,.98-.71,2.07-.95,3.23-.25,1.15-.4,2.41-.38,3.67,.01,1.26,.22,2.53,.7,3.6,.47,1.06,1.21,1.95,2.22,2.44,.2,.1,.4,.15,.57,.21,.04,.01,.09,.03,.13,.04,0,0,0,0,.02-.01,.09,.01,.18,.03,.26,.03,.32,.03,.49,0,.45-.05-.02-.05-.23-.13-.54-.24-.03,0-.11-.03-.1-.03l-.05-.02c-.08-.04-.15-.07-.24-.11-.17-.07-.35-.14-.53-.26-1.84-1.09-2.47-3.52-2.42-5.8,.03-2.3,.58-4.45,1.25-6.27,.69-1.82,1.54-3.31,2.57-4.52,.52-.6,1.09-1.14,1.81-1.53,.18-.09,.35-.19,.56-.24,.1-.03,.2-.07,.3-.09l.31-.05c.1-.02,.21-.02,.32-.01,.11,0,.22,0,.32,.02l.32,.07c.05,.01,.11,.03,.16,.03l.15,.06c.44,.17,.8,.46,1.13,.77,.29,.34,.56,.71,.73,1.11,.38,.8,.57,1.67,.66,2.56,.18,1.78-.05,3.68-.54,5.48-.25,.93-.6,1.74-1.07,2.88-.68,1.58-1.44,3.1-2.45,4.14-.5,.52-1.04,.89-1.52,1.12-.12,.05-.23,.09-.34,.14-.05,.02-.11,.05-.16,.07h-.02s.03,.01,.04,.01h-.03l-.08,.03c-.21,.06-.38,.12-.5,.18-.18,.11-.19,.24-.05,.38,.1,.07,.29,.14,.53,.19,.06,.01,.13,.03,.2,.04-.17,.02-.08,.01-.06,.02h.09c.13,.02,.26,.03,.4,.04,.57-.01,1.32-.18,2.11-.66,.8-.47,1.61-1.29,2.3-2.35,0,0-.1,.13-.25,.33-.14,.2-.37,.44-.59,.67-.21,.25-.45,.45-.63,.6-.18,.15-.29,.25-.29,.25Z"/><path class="s" d="M105.76,76.14c.79-.67,1.54-1.41,2.17-2.32-.1,.16-.2,.33-.3,.49-.11,.16-.23,.31-.35,.46-.24,.3-.45,.64-.73,.88,1.44-1.35,2.56-3.19,3.32-5.19,.88-2.35,1.28-4.59,1.41-6.54,.12-1.95-.04-3.62-.4-5.01-.36-1.39-.91-2.49-1.63-3.43-.35-.48-.77-.91-1.26-1.31-.24-.2-.52-.38-.8-.57-.31-.16-.62-.32-.97-.46l-.53-.22c-.55-.09-1.11-.23-1.63-.24-.54-.02-1,.06-1.46,.15-.89,.21-1.64,.56-2.38,1.05-1.45,1-2.88,2.55-4.1,5.08-.61,1.23-1.15,2.72-1.57,4.35-.09,.42-.22,.81-.29,1.26l-.23,1.32c-.09,.91-.2,1.82-.18,2.76,.01,1.86,.36,3.76,1.15,5.23,.79,1.48,1.94,2.58,3.36,3.19,.28,.12,.56,.2,.81,.28,.06,.02,.12,.04,.18,.05-.02,0-.08-.03-.09-.04,.15,.03,.28,.05,.4,.07,.49,.07,.76,.05,.7-.01-.03-.06-.38-.15-.88-.3l-.1-.03h.04l-.04-.02c-.11-.04-.22-.09-.34-.14-.24-.09-.51-.18-.76-.33-1.32-.66-2.37-1.79-3.05-3.25-.69-1.46-.94-3.29-.89-5.03,.05-1.75,.31-3.46,.72-4.97,.41-1.5,.91-2.88,1.49-4.03,.57-1.14,1.19-2.12,1.83-2.9,.65-.77,1.3-1.39,1.99-1.86,.69-.48,1.4-.83,2.24-1.04,.22-.04,.42-.1,.66-.11l.34-.03h.37c.48,.02,1,.15,1.49,.27,.51,.22,.98,.47,1.39,.75,.39,.32,.75,.64,1.03,1.02,.58,.74,.98,1.56,1.27,2.48,.29,.92,.46,1.93,.52,3.03,.05,1.11-.03,2.32-.22,3.56-.21,1.29-.55,2.47-1.15,4.27-.44,1.26-.99,2.52-1.65,3.65-.18,.27-.34,.56-.52,.81-.19,.25-.38,.5-.56,.75-.2,.22-.4,.44-.6,.65-.19,.21-.41,.38-.61,.56-.83,.68-1.68,1.09-2.38,1.33-.18,.05-.35,.09-.51,.14-.08,.02-.15,.04-.23,.07h-.03s.05,.01,.09,.01h.15s-.03,0-.05,0l-.14,.02c-.37,.07-.67,.11-.87,.17-.18,.11-.19,.24-.05,.38,.17,.08,.48,.15,.87,.21,.1,.01,.21,.02,.31,.04,.07,0-.13,.01-.23,.02h-.09s0,0,0,0h.07l.12,.02c.18,0,.36,.02,.56,.03,.8-.02,1.84-.22,2.97-.84,1.13-.61,2.31-1.75,3.28-3.26,0,0-.14,.19-.35,.47-.2,.29-.51,.63-.82,.96-.16,.16-.3,.34-.46,.48-.16,.13-.31,.26-.43,.36-.25,.21-.42,.35-.42,.35Z"/></g><g><path class="s" d="M73.82,138.34c.17-.06,.33-.13,.5-.23-.09,.1-.2,.19-.31,.28,.33-.15,.66-.37,.93-.66,.62-.7,.97-1.43,1.14-2.06,.08-.32,.12-.63,.09-.93-.03-.29-.12-.61-.41-.84-.03-.03-.08-.05-.12-.08-.24-.14-.57-.11-.82,0-.26,.1-.48,.25-.69,.41-.41,.33-.74,.71-1.03,1.12-.29,.42-.54,.88-.68,1.36-.13,.47-.2,1.03,.18,1.36,.04,.03,.08,.05,.12,.07h.03l.11,.06,.06,.02h.03v.02h.02c.07-.1-.64,.92-.34,.49h0s.06-.08,.07-.11c.04-.06,.06-.12,.07-.15,0-.01,0-.02,.01-.03h0l.15-.33h0s0-.02,0-.03c-.06,.12-.11,.24-.17,.36h0v.02s-.02,.03-.02,.05c-.02,.04-.05,.1-.1,.18l-.02,.03v.02h-.01c.22-.32-.5,.71,.5-.72h-.03l-.03-.03-.12-.06-.06-.03h0l-.03-.05s-.05-.05-.07-.08c-.24-.29-.15-.69-.05-1,.12-.33,.29-.63,.49-.88,.2-.26,.42-.47,.65-.6,.22-.12,.52-.19,.68,.1,.15,.31-.03,.72-.21,.99-.19,.28-.42,.49-.61,.58-.1,.05-.25,.07-.29,.06-.05-.01,.03-.01,.01,.12,0,.06-.04,.15-.1,.24-.02,.03-.03,.05-.05,.07l-.03,.04h0l-.33-.09h-.03c.07-.34-.69,2.85-.36,1.5h0s0-.02,0-.02c1.14-2.43,.31-.67,.57-1.21h-.04l-.03,.02s-.04,.02-.05,.03c-.03,.02-.05,.04-.07,.07-.03,.05-.01,.12,.03,.2h0c-.18,.4,.42-.88-.42,.9h0c.37-1.52,.11-.41,.2-.75h.04l.15,.06,.08,.02s0,0,0,0h0v.02l.02,.02s.04,.05,.07,.08c.22,.21,.77,.17,1.3-.23,0,0-.15,.08-.31,.13-.15,.06-.3,.09-.3,.09Z"/><path class="s" d="M74.36,140.2c.39-.19,.77-.39,1.13-.65-.22,.21-.48,.4-.75,.59,.73-.39,1.41-.92,2.02-1.56,1.4-1.53,2.33-3.17,2.89-4.77,.28-.8,.47-1.61,.49-2.43,.02-.41-.03-.82-.14-1.23-.11-.4-.32-.8-.67-1.11-.08-.09-.19-.14-.29-.21-.58-.42-1.41-.35-2.06-.12-.67,.24-1.25,.63-1.78,1.05-1.05,.86-1.93,1.87-2.67,2.95-.74,1.09-1.38,2.26-1.75,3.5-.18,.62-.31,1.25-.29,1.89,.02,.63,.2,1.27,.68,1.73,.09,.09,.2,.15,.29,.21l.07,.04s.08,.03,.12,.05c.04,.01,.08,.02,.11,.03,.14,.03,.22,.03,.22-.03,0-.05-.05-.13-.15-.21-.02-.02,0-.01-.06-.04-.03-.02-.1-.05-.1-.06-.04-.03-.07-.07-.11-.1-.08-.07-.17-.14-.24-.23-.4-.45-.52-1.04-.51-1.6,.01-.57,.14-1.13,.32-1.67,.36-1.08,.92-2.09,1.58-3.02,.66-.91,1.42-1.75,2.3-2.39,.44-.32,.91-.59,1.44-.72,.51-.13,1.13-.08,1.53,.32,.23,.18,.36,.46,.47,.72,.08,.28,.13,.56,.12,.85,0,.58-.15,1.15-.34,1.68-.38,1.06-.97,2-1.58,2.78-.32,.4-.68,.71-1.09,1.14-.57,.59-1.11,1.14-1.75,1.53-.31,.2-.64,.33-.93,.43-.07,.02-.14,.03-.21,.05l-.1,.03h-.01s-.1-.02-.14-.03c-.03,0-.01,0-.02,0h-.02c-.06,.05-.12,.09-.18,.14-.2,.05-.25,.16-.16,.32,.02,.06,.07,.13,.14,.21l.06,.06c.11,.04,.1,.04,.12,.05l.05,.02c.07,.03,.14,.06,.23,.1,.34,.1,.81,.11,1.36-.05,.54-.16,1.13-.48,1.71-.93,0,0-.08,.05-.2,.13-.12,.08-.29,.17-.45,.26-.16,.09-.33,.17-.46,.22-.13,.05-.21,.09-.21,.09Z"/><path class="s" d="M74.98,142.32c.67-.28,1.32-.61,1.93-1.05-.2,.17-.4,.34-.62,.48-.22,.15-.43,.32-.66,.44,1.24-.6,2.38-1.51,3.33-2.6,1.11-1.28,1.92-2.6,2.51-3.84,.59-1.24,.96-2.4,1.17-3.48,.2-1.08,.25-2.08,.1-3.07-.06-.49-.2-.98-.42-1.47-.21-.48-.54-.96-1.01-1.35-.11-.11-.25-.19-.38-.29-.4-.23-.84-.42-1.3-.49-.46-.08-.89-.04-1.31,.01-.83,.14-1.58,.45-2.3,.84-1.42,.79-2.78,1.89-4.08,3.42-.65,.75-1.28,1.62-1.84,2.57-.57,.94-1.08,2-1.42,3.11-.35,1.1-.52,2.27-.37,3.32,.15,1.05,.6,2.02,1.42,2.71,.16,.14,.34,.24,.49,.34,.04,.02,.08,.05,.11,.07,0,0,0,0,.02,0,.09,.04,.17,.07,.24,.1,.29,.11,.47,.13,.45,.07,0-.05-.18-.18-.45-.35-.02-.02-.09-.06-.08-.05l-.04-.03c-.06-.05-.13-.11-.19-.16-.14-.11-.3-.22-.43-.37-1.45-1.44-1.35-3.72-.65-5.7,.69-2,1.83-3.74,3-5.14,1.18-1.4,2.43-2.48,3.77-3.27,.67-.39,1.38-.71,2.17-.86,.2-.03,.39-.07,.6-.06,.1,0,.21,0,.31,0l.31,.04c.11,0,.21,.04,.31,.08,.1,.03,.2,.06,.3,.1l.28,.15s.09,.05,.14,.07l.13,.09c.37,.26,.64,.61,.86,.97,.18,.37,.33,.76,.38,1.16,.13,.8,.06,1.61-.11,2.41-.34,1.6-1.11,3.2-2.09,4.64-.51,.75-1.08,1.36-1.86,2.23-1.1,1.2-2.27,2.33-3.54,2.97-.63,.32-1.25,.5-1.77,.58-.13,.01-.25,.02-.37,.03-.06,0-.12,.01-.17,.02h-.02s.03,.01,.04,.02c0,0-.02,0-.04,0h-.08c-.21,0-.4,0-.53,.02-.21,.05-.25,.16-.16,.32,.08,.09,.24,.19,.45,.31,.06,.03,.12,.06,.18,.09-.16-.03-.08-.01-.06,0l.08,.03c.12,.04,.25,.08,.38,.13,.55,.14,1.32,.19,2.21-.02,.9-.2,1.91-.7,2.89-1.45,0,0-.13,.09-.34,.22-.19,.14-.48,.29-.76,.44-.27,.16-.56,.27-.77,.36-.21,.09-.35,.14-.35,.14Z"/><path class="s" d="M75.61,144.5c.95-.37,1.89-.83,2.74-1.46-.15,.12-.29,.23-.43,.35-.15,.11-.31,.21-.46,.31-.32,.19-.62,.44-.96,.58,1.76-.81,3.37-2.12,4.67-3.66,1.51-1.82,2.55-3.67,3.23-5.34,.68-1.67,1.01-3.17,1.06-4.48,.06-1.31-.15-2.41-.57-3.42-.2-.51-.48-.99-.83-1.48-.17-.24-.39-.47-.61-.71-.25-.22-.5-.44-.8-.65l-.44-.33c-.5-.22-.99-.49-1.49-.64-.51-.15-.98-.21-1.44-.25-.91-.05-1.74,.06-2.59,.29-1.68,.49-3.49,1.47-5.39,3.36-.94,.91-1.88,2.07-2.75,3.39-.21,.34-.44,.65-.64,1.02l-.6,1.09c-.35,.77-.72,1.53-.97,2.37-.53,1.63-.74,3.37-.4,4.87,.33,1.5,1.12,2.76,2.3,3.66,.24,.18,.48,.32,.69,.45,.05,.03,.11,.06,.16,.09-.02-.01-.07-.05-.08-.06,.13,.06,.26,.12,.37,.17,.45,.19,.72,.24,.67,.17-.02-.06-.32-.23-.76-.49l-.08-.05-.04-.02h.02l.04,.03h.02l-.03-.02c-.09-.06-.19-.14-.29-.21-.2-.15-.43-.29-.63-.49-1.08-.93-1.76-2.18-1.99-3.64-.24-1.46,.05-3.11,.59-4.62,.55-1.51,1.29-2.94,2.12-4.15,.83-1.2,1.71-2.27,2.58-3.13,.88-.84,1.75-1.54,2.59-2.05,.84-.5,1.64-.87,2.44-1.1,.8-.24,1.58-.36,2.45-.32,.22,.02,.43,.02,.66,.07l.34,.06,.35,.1c.46,.14,.91,.39,1.35,.63,.43,.33,.8,.66,1.12,1.02,.28,.38,.54,.76,.69,1.16,.34,.79,.49,1.62,.51,2.5,.01,.87-.11,1.81-.38,2.78-.27,.99-.7,2.02-1.23,3.05-.57,1.07-1.24,2.01-2.33,3.42-.79,.99-1.67,1.94-2.63,2.75-.25,.19-.48,.4-.73,.57-.25,.17-.5,.34-.75,.51-.26,.14-.51,.27-.76,.41-.25,.13-.5,.22-.75,.33-.99,.37-1.92,.51-2.67,.54-.18,0-.36-.01-.53-.01-.08,0-.16,0-.24,0h-.03s.05,.02,.09,.03l.14,.03s-.03,0-.05,0h-.14c-.37-.05-.67-.09-.88-.1-.21,.05-.25,.16-.16,.32,.14,.11,.41,.26,.77,.41,.09,.04,.19,.08,.29,.12,.07,.01-.13-.02-.23-.05l-.08-.02s0,0,0,0h.01l.06,.02,.12,.04c.17,.05,.34,.11,.52,.17,.77,.19,1.82,.29,3.08,.04,1.26-.24,2.71-.93,4.08-1.99,0,0-.19,.13-.47,.32-.27,.2-.67,.41-1.06,.62-.2,.1-.38,.22-.58,.29-.19,.07-.37,.15-.52,.2-.3,.12-.5,.2-.5,.2Z"/></g><path class="d" d="M36.78,46.85c-1.43-2.66-.28,27.23,4.74,30.22,5.02,2.99,30.38-16.27,38.63-27.71-21.61,34.33-44.4,44.64-46.18,46.97-1.78,2.32,10.62-.19,19.55-5.86,2.79,.47,3.33,12.84,3.33,12.84,0,0,27.81-20.46,36.66-68.46-27.7,.28-52.53-5.3-52.53-5.3,4.16,20.09,5.49,34.33,27.43,12.28-18.25,23.86-26.67,14.27-31.64,5.02Z"/><path class="d" d="M34.81,121.92c18.99-9.77,36.84-23.49,48.01-44.3-2.07,21.37-20.09,54.17-29.3,59.14-9.21,4.97-21.07-11.81-18.71-14.84Z"/><path class="k" d="M201.45,21.81c-4.3,1.89-10.21,3.45-17.3,4.71-5.42,.97-11.52,1.75-18.1,2.38-.65,.06-1.31,.13-1.98,.18-8.01,.71-16.67,1.18-25.65,1.44-3.16,.09-6.36,.15-9.58,.19-3.34,.04-6.7,.05-10.08,.03l-2.23-.02c-.3,0-.61,0-.91-.01-.3,0-.59,0-.89,0-.24,0-.48,0-.72-.01-.54,0-1.07-.01-1.61-.02-.21,0-.42,0-.64-.01-.06,0-.12,0-.18,0-.47,0-.95-.02-1.42-.03-.22,0-.43,0-.65-.01-.49,0-.98-.02-1.47-.03h0c-.22,0-.44,0-.66-.01-.82-.02-1.63-.04-2.44-.06-.15,0-.3,0-.45-.01-.59-.02-1.18-.03-1.77-.05-.17,0-.34-.01-.51-.02-.66-.02-1.31-.04-1.97-.06-.17,0-.34-.01-.52-.02-.91-.03-1.82-.07-2.73-.1-.35-.01-.71-.03-1.06-.04-1.08-.04-2.15-.09-3.23-.14-3.34-.15-6.65-.33-9.9-.54-13.07-.82-25.25-2.04-35.39-3.6-1.39-.21-2.74-.43-4.05-.66-3.96-.68-7.54-1.42-10.67-2.21-2.23-.56-4.22-1.15-5.95-1.76,.1-2.23,.32-5.54,.6-9.72,.11-1.68,.24-3.5,.38-5.45H201.12c.21,5.82,.33,11.08,.33,15.68Z"/><path class="c" d="M198.34,17.77c-3.12,1.96-7.93,3.71-13.98,5.23-5.18,1.3-11.28,2.42-18.03,3.36-.67,.09-1.34,.18-2.02,.27-7.96,1.04-16.76,1.83-25.99,2.33-3.14,.17-6.32,.31-9.54,.41-3.25,.11-6.54,.18-9.85,.22-.77,0-1.55,.01-2.32,.02-.34,0-.67,0-1.01,0h-.72c-.27,0-.54,0-.81,0-.5,0-1,0-1.5,0-.18,0-.35,0-.53,0h-.4c-.47,0-.94,0-1.42-.01-.24,0-.48,0-.72,0-1.41-.01-2.83-.03-4.25-.06-.17,0-.34,0-.51-.01-.6-.01-1.2-.03-1.79-.04h0c-.18,0-.35-.01-.53-.01-.66-.02-1.32-.04-1.98-.06-.17,0-.35-.01-.52-.02-.91-.03-1.83-.06-2.74-.1h0c-.41-.02-.82-.03-1.23-.05-1.03-.04-2.06-.09-3.09-.14-3.33-.16-6.63-.36-9.89-.6-12.88-.96-25.04-2.55-35.41-4.86-1.4-.31-2.76-.64-4.09-.97-3.41-.86-6.59-1.82-9.49-2.86,.2-1.88,.41-3.91,.63-6.05,.24-2.4,.49-4.96,.74-7.65H198.08c.36,6.33,.48,10.44,.26,11.64Z"/><path class="q" d="M138.67,6.12c-.67,.62-1.36,1.23-2.07,1.85-2.27,1.97-4.71,3.91-7.18,5.72-3.13,2.29-6.31,4.37-9.22,6.01-1.53,.86-2.99,1.59-4.33,2.18-.25,.11-.5,.21-.74,.31-.41,.16-.8,.31-1.18,.44-.13,.04-.25,.08-.37,.12-.34,.11-.67,.21-.99,.29-.32,.08-.63,.15-.92,.2-.63,.1-1.41,.21-2.34,.32-1.16,.14-2.54,.27-4.1,.4-.22,.02-.45,.04-.68,.05h0c-.75,.06-1.55,.12-2.37,.17-.22,.01-.44,.03-.66,.04-1.12,.07-2.3,.14-3.52,.19-.68,.03-1.37,.07-2.07,.09-.86,.04-1.74,.07-2.64,.09-3.13,.1-6.45,.15-9.86,.14-13.08-.05-27.3-1.08-35.61-4.25-1.59-.61-2.97-1.29-4.08-2.07-1.26-.88-2.17-1.87-2.67-2.98-.06-.13-.11-.28-.16-.44-.47-1.5-.76-4.56-.87-8.86h98.65Z"/><g><path class="i" d="M74.72,170.94c-1.8,1.32-10.05,4.59-13.48,10.88-3.43,6.29-11.33,15.56-26.25,19.16-9.49,2.29-24.6,2.89-28.37-.86-1.96-1.95,2.09-12.55,5.72-15.62,3.63-3.07,16.02,9.16,29.09,1.48,13.06-7.68,32.8-22.53,33.64-20.38,.84,2.15,.88,4.44-.35,5.34Z"/><path class="g" d="M31.56,159.6c-3.17,5.25-5.22,9-1.68,9.39,3.54,.38,8-2.07,8-2.07,0,0-1.82,5.27,1.09,8.32,6.21,6.51,32.34-17.3,34.16-24.37,2.43,4.27,3.39,15.27,1.93,16.89-1.46,1.62-11.79,5.53-15.13,11.67-3.35,6.14-11.06,15.19-25.62,18.7-9.26,2.23-24.01,2.82-27.69-.84-1.92-1.91,2.87-16.67,10.9-24.56,5.14-5.04,14.03-13.12,14.03-13.12Z"/><path class="p" d="M27.43,164.76c-.28,2.99-.81,7.4,8.67,3.77-2.67,8.82,5.14,11.49,13.4,6.29,5.56-3.5,18.4-14.1,22.17-19.27-5.02,9.21-19.49,20.24-26.63,27.77-7.14,7.53-33.01,11.56-34.91,8.57-1.33-2.09,2.37-16.95,17.3-27.14Z"/><path class="r" d="M9.88,199.9c-2.43-.4-1.27,1.47,5.52,2.15,6.78,.68,24.85-2.13,30.77-7.54-14.34,5.65-26.42,7.01-36.29,5.39Z"/></g><g><path class="i" d="M210.78,182.31c1.88,1.67,1.16,5.71-6.7,9.42-9.09,4.29-20.83,6.91-37.1-.42-16.27-7.33-20.44-7.32-30.15-8.42-9.72-1.1-14.38-2.56-15.42-5.65-.52-2.09,0-4.7,0-4.7,0,0,13.5-5.02,30.66,4.5,17.16,9.52,22.5,12.35,36,9.73,13.5-2.62,22.71-4.46,22.71-4.46Z"/><path class="g" d="M124.35,155.69c5.22,5.23,14.43,8.37,26.36,9.83,11.93,1.47,15.91,4.96,22.81,8.55,6.91,3.59,17.79,.7,13.19-6.33,7.33,7.99,22.19,9.71,24.07,11.38,1.88,1.67,1.16,5.71-6.7,9.42-9.09,4.29-20.83,6.91-37.1-.42-16.27-7.33-20.44-7.32-30.15-8.41-9.72-1.1-14.38-2.56-15.42-5.65-1.05-3.1,.02-14.81,2.94-18.37Z"/><path class="p" d="M131.52,162.25c6.56,8.23,17.72,6.28,28.61,12.28,10.88,6,16.76,9.56,23.16,10.88,9.14,1.88,27.49-.14,26.79-5.44-.34-1.39-14.58-3.14-21.63-9.49,1.05,4.47-7.66,9.04-17.93,3-9.84-5.78-14.02-6.07-22.67-7.19-8.65-1.12-13.4-2.79-16.33-4.05Z"/><path class="r" d="M169.44,190.12c11.13,5.34,30.56,4.92,40.66-5.02-12.09,12.04-29.98,12.56-40.66,5.02Z"/></g></g></svg>