<?xml version="1.0" encoding="UTF-8"?><svg id="a" xmlns="http://www.w3.org/2000/svg" viewBox="0 0 222.98 152.74"><defs><style>.b{fill:#988e80;}.c{fill:#fff;}.d{opacity:.5;}.e{fill:#dd8f6c;}.f{fill:#43474f;}.g{fill:#bd9e7d;}.h{fill:#a79d90;}.i{fill:#91633a;}.j{fill:#a07347;}.k{fill:#ddcbb3;stroke-width:.75px;}.k,.l{stroke:#323232;stroke-miterlimit:10;}.m,.l{fill:#eae2d6;}.n{fill:#363a41;}.o{fill:#e89c7c;}.p{fill:#c8ac8d;}.l{stroke-width:.5px;}</style></defs><path class="d" d="M123.91,151.89c-.95,0-1.91-.01-2.85-.02h-1.24c-1.31-.03-2.61-.05-3.89-.08v-5l-.12,5c-1.25-.03-2.49-.07-3.71-.11l-1.18-.04c-.89-.03-1.77-.07-2.64-.1l-1.22-.05c-.93-.04-1.86-.09-2.78-.14l-.86-.04c-1.18-.07-2.34-.14-3.48-.21,0,0-2.6-.18-3.45-.24l-1.08-.08c-.84-.07-3.39-.28-3.39-.28-1.08-.09-2.14-.19-3.18-.29-.01,0-.09,0-.1-.01-1.03-.1-2.02-.2-2.99-.3,0,0-2.37-.26-3.06-.34l-.93-.11c-1.05-.12-2.09-.25-3.1-.38-1.08-.14-2.05-.27-3-.4l-.79-.11c-.82-.11-1.63-.23-2.42-.35l-.46-.07c-.92-.14-1.82-.28-2.7-.42l-3.32-.55c-.82-.14-1.62-.28-2.41-.42l-2.93-.55c-.74-.14-1.45-.28-2.14-.42-4.97-1.01-8.54-1.88-10.66-2.43-.52-.13-1.07-.26-1.67-.39-1.07,.33-2.15,.55-3.21,.66-.59,.06-1.19,.09-1.78,.09-16.59,0-31.51-24.44-34.69-56.86C3.11,52.71,13.7,25.6,31.11,23.79c.57-.06,1.16-.09,1.73-.09,.67,0,1.36,.04,2.04,.12,.06-.02,.12-.04,.17-.06,5.5-2.06,11.25-3.98,17.07-5.69,.03-.01,.07-.02,.1-.03C85.58,8.21,118.12,5.99,139.55,5.86c.85,0,1.69,0,2.53,0,5.59,0,11.23,.14,16.75,.4,1.35,.06,2.65,.14,3.89,.21,.79,.05,1.56,.1,2.31,.15l3.79,.28,1.61,.13,1.52,.14-.33,4.99,.46-4.98,3.06,.3,2.18,.24-.46,4.98,.57-4.97,2.93,.37c.45-.03,.91-.05,1.36-.05,18.96,0,36.04,28.25,39.72,65.72,1.76,17.87,.14,35.09-4.55,48.48-5.1,14.55-13.37,23.18-23.31,24.31-8.31,1.28-16.84,2.35-25.34,3.19-6.57,.65-13.24,1.16-19.82,1.5-1.51,.08-3.01,.15-4.5,.22l-1.36,.06c-1.06,.04-2.11,.08-3.15,.12l-1.44,.05c-1.12,.03-2.22,.06-3.32,.09l-1.01,.02c-1.42,.03-2.82,.05-4.21,.06h-.99c-1.01,.01-2.02,.02-3.02,.02h-1.51Z"/><path class="c" d="M118.91,146.89c-.95,0-1.91-.01-2.85-.02h-1.24c-1.31-.03-2.61-.05-3.89-.08v-5l-.12,5c-1.25-.03-2.49-.07-3.71-.11l-1.18-.04c-.89-.03-1.77-.07-2.64-.1l-1.22-.05c-.93-.04-1.86-.09-2.78-.14l-.86-.04c-1.18-.07-2.34-.14-3.48-.21,0,0-2.6-.18-3.45-.24l-1.08-.08c-.84-.07-3.39-.28-3.39-.28-1.08-.09-2.14-.19-3.18-.29-.01,0-.09,0-.1-.01-1.03-.1-2.02-.2-2.99-.3,0,0-2.37-.26-3.06-.34l-.93-.11c-1.05-.12-2.09-.25-3.1-.38-1.08-.14-2.05-.27-3-.4l-.79-.11c-.82-.11-1.63-.23-2.42-.35l-.46-.07c-.92-.14-1.82-.28-2.7-.42l-3.32-.55c-.82-.14-1.62-.28-2.41-.42l-2.93-.55c-.74-.14-1.45-.28-2.14-.42-4.97-1.01-8.54-1.88-10.66-2.43-.52-.13-1.07-.26-1.67-.39-1.07,.33-2.15,.55-3.21,.66-.59,.06-1.19,.09-1.78,.09-16.59,0-31.51-24.44-34.69-56.86C-1.89,47.71,8.7,20.6,26.11,18.79c.57-.06,1.16-.09,1.73-.09,.67,0,1.36,.04,2.04,.12,.06-.02,.12-.04,.17-.06,5.5-2.06,11.25-3.98,17.07-5.69,.03-.01,.07-.02,.1-.03C80.58,3.21,113.12,.99,134.55,.86c.85,0,1.69,0,2.53,0,5.59,0,11.23,.14,16.75,.4,1.35,.06,2.65,.14,3.89,.21,.79,.05,1.56,.1,2.31,.15l3.79,.28,1.61,.13,1.52,.14-.33,4.99,.46-4.98,3.06,.3,2.18,.24-.46,4.98,.57-4.97,2.93,.37c.45-.03,.91-.05,1.36-.05,18.96,0,36.04,28.25,39.72,65.72,1.76,17.87,.14,35.09-4.55,48.48-5.1,14.55-13.37,23.18-23.31,24.31-8.31,1.28-16.84,2.35-25.34,3.19-6.57,.65-13.24,1.16-19.82,1.5-1.51,.08-3.01,.15-4.5,.22l-1.36,.06c-1.06,.04-2.11,.08-3.15,.12l-1.44,.05c-1.12,.03-2.22,.06-3.32,.09l-1.01,.02c-1.42,.03-2.82,.05-4.21,.06h-.99c-1.01,.01-2.02,.02-3.02,.02h-1.51Z"/><g><path class="e" d="M36.07,33.9c1.18-2.01,2.48-3.81,3.68-5.68,.62-.92,1.18-1.86,1.7-2.83,.5-.97,.99-1.95,1.21-3.11,.33,1.15,.08,2.41-.29,3.53-.37,1.14-.93,2.19-1.56,3.16-.65,.97-1.35,1.88-2.14,2.71-.79,.83-1.63,1.6-2.6,2.22"/><path class="e" d="M46.99,24.63c.79,.76,1.19,1.92,1.3,3.08,.11,1.18-.14,2.37-.57,3.44-.42,1.09-1.08,2.03-1.79,2.89-.38,.4-.77,.79-1.18,1.15-.44,.33-.87,.66-1.34,.94,.27-.5,.58-.94,.88-1.39,.29-.45,.56-.91,.85-1.34,.5-.92,1.05-1.8,1.39-2.75,.77-1.87,1.07-3.89,.46-6.02"/><path class="e" d="M47.91,28.84c1.33-.79,2.86-1.32,4.51-1.14,.84,.13,1.64,.41,2.32,1.28,.56,1.04,.33,1.97,.2,2.8-.4,1.66-1.08,3.12-1.86,4.51-.78,1.39-1.67,2.71-2.72,3.9,.59-1.49,1.22-2.93,1.82-4.37,.58-1.44,1.18-2.89,1.5-4.32,.17-.69,.22-1.46,.02-1.82l-.08-.12-.16-.15c-.1-.11-.23-.2-.36-.28-.26-.17-.56-.28-.88-.38-1.31-.34-2.83-.17-4.31,.09"/><path class="e" d="M53.68,33.75c.33-.65,.84-1.16,1.42-1.56,.58-.41,1.27-.67,2-.76,.73-.08,1.5,.09,2.12,.49,.64,.37,1.06,1.01,1.3,1.68-.64-.28-1.16-.58-1.71-.7-.54-.12-1.06-.19-1.61-.12-1.09,.11-2.21,.54-3.51,.97Z"/><path class="o" d="M50.35,24.89c1.98,.23,4.04-.5,5.28-1.57l-.61-.24s-1.45,1.69-4.67,1.81"/><path class="l" d="M6.44,81.36c2.98,30.34,16.85,53.75,30.98,52.28,14.13-1.47,23.16-27.26,20.18-57.6-2.98-30.34-16.85-53.75-30.98-52.28-14.13,1.47-23.16,27.26-20.18,57.6"/><path class="j" d="M14.75,107.23h0c.34,.94,.7,1.85,1.07,2.73,.11,.26,.22,.53,.34,.78,1.74,4.06,3.71,7.67,5.85,10.7,.84,1.22,1.73,2.35,2.64,3.38h0c3.16,3.63,6.6,6.04,10.13,6.95,.52,.14,1.05,.25,1.57,.31,2.6,.35,5.19,.77,7.73,1.42,2.53,.66,6,1.48,10.39,2.37,17,3.42,47.57,7.62,88.69,5.39,6.29-.33,12.82-.81,19.59-1.49,8.04-.79,16.42-1.83,25.12-3.16L175.24,8.13s-6.63-1-17.83-1.68c-1.22-.07-2.5-.15-3.83-.21-5.51-.27-11.9-.44-19-.39-23.41,.15-54.41,2.68-86.03,12.01h-.01c-5.57,1.64-11.16,3.49-16.72,5.58-1.69,.63-3.44,1.11-5.17,1.61l-.07,.02c-5.17,1.47-9.53,6.36-12.69,13.57-.45,1.01-.87,2.08-1.27,3.17-1.34,3.77-2.42,8.02-3.14,12.65-.14,.82-.26,1.65-.36,2.5-.59,4.54-.86,9.39-.78,14.46,0,.8,.03,1.59,.06,2.39,.08,2.36,.24,4.76,.48,7.2,.26,2.61,.6,5.18,1.02,7.69,.14,.85,.3,1.7,.46,2.53,1.09,5.77,2.59,11.16,4.41,16.01"/><path class="f" d="M143.16,141.27c6.29-.33,12.82-.81,19.59-1.49-10.67-9.5-27.1-29.51-29.77-66.13-2.58-35.23,11.46-57.09,20.6-67.4-5.51-.27-11.9-.44-19-.39-8.87,12.69-21.13,37.23-15.66,71.02,5.21,32.18,16.58,53.24,24.24,64.39"/><path class="f" d="M34.78,131.77c.52,.14,1.05,.25,1.57,.31,2.6,.35,5.19,.77,7.73,1.42,2.53,.66,6,1.48,10.39,2.37-9.39-11.36-19.54-29.87-21.31-58.27-1.76-28.26,7.04-47.82,15.37-59.74-5.57,1.64-11.16,3.48-16.72,5.57-1.69,.63-3.44,1.11-5.17,1.61-6.28,13.57-11.09,32.37-7.57,55.64,3.35,22.12,9.65,39.03,15.71,51.09"/><path class="p" d="M22.65,35.14c-2.97,1.1-5.89,2.26-8.77,3.49h0c-.45,1.01-.87,2.08-1.27,3.17,2.99-1.33,6.04-2.59,9.14-3.76,.29-.98,.59-1.95,.91-2.9M127.55,17.71c-23.69,.62-55.47,3.22-85.55,11.31-.45,.92-.89,1.87-1.31,2.84,29.91-8.32,61.78-11.04,85.7-11.73,.38-.83,.77-1.63,1.17-2.42m24.05-.01c-1.93-.05-4.04-.09-6.32-.12-.46,.77-.93,1.56-1.38,2.38,2.28,.02,4.41,.06,6.37,.1,.46-.8,.91-1.59,1.34-2.36"/><path class="h" d="M145.28,17.58c-5.14-.06-11.12-.04-17.73,.13-.39,.79-.78,1.59-1.17,2.42,6.49-.19,12.39-.22,17.51-.18,.46-.82,.92-1.61,1.38-2.38"/><path class="h" d="M41.99,29.02c-6.56,1.77-13.05,3.79-19.34,6.12-.31,.95-.62,1.92-.91,2.9,6.15-2.34,12.5-4.39,18.93-6.18,.43-.97,.87-1.92,1.31-2.84"/><path class="p" d="M18.67,52.69c-3.03,.56-6.1,1.14-9.2,1.76h0c-.14,.82-.26,1.65-.36,2.5,3.12-.63,6.21-1.22,9.27-1.79,.09-.83,.18-1.66,.29-2.47m100.44-9.67c-21.06,.13-50.13,1.63-84.16,6.92-.17,.82-.33,1.65-.47,2.48,34.05-5.33,63.14-6.86,84.23-7.01,.13-.81,.26-1.6,.4-2.39"/><path class="h" d="M134.8,43.17c-4.56-.12-9.81-.19-15.69-.16-.14,.79-.28,1.59-.4,2.39,5.27-.04,10.04,.01,14.26,.11,.62-.79,1.23-1.57,1.83-2.35"/><path class="h" d="M34.95,49.93c-5.31,.82-10.74,1.74-16.28,2.76-.1,.81-.2,1.64-.29,2.47,5.47-1.01,10.85-1.92,16.09-2.75,.15-.84,.31-1.67,.47-2.48"/><path class="p" d="M18.07,71.27l-9.74,.14c0,.8,.03,1.59,.06,2.39l9.86-.14c-.07-.8-.13-1.6-.17-2.39m91.9-1.33l-77.03,1.12c0,.79,.02,1.59,.04,2.39l74.18-1.07c.95-.81,1.88-1.62,2.8-2.44"/><path class="h" d="M32.94,71.06l-14.87,.22c.05,.79,.11,1.59,.17,2.39l14.74-.21c-.02-.81-.03-1.6-.04-2.39"/><path class="p" d="M9.88,88.68c.14,.85,.3,1.7,.46,2.53,3.45,.71,7.14,1.34,11.02,1.89-.18-.82-.35-1.64-.52-2.48-3.87-.56-7.54-1.2-10.95-1.94m64.88,5.41c-13.57-.16-27.3-.69-39.84-1.84,.15,.82,.31,1.63,.47,2.43,11.12,.99,23.02,1.51,34.59,1.73,1.62-.76,3.21-1.53,4.78-2.33"/><path class="h" d="M34.93,92.25c-2.52-.23-5-.48-7.41-.77-2.28-.27-4.52-.56-6.68-.87,.17,.83,.35,1.66,.52,2.48,1.93,.27,3.89,.52,5.9,.76,2.65,.31,5.37,.59,8.14,.83-.16-.8-.32-1.61-.47-2.43"/><path class="p" d="M14.75,107.24c.34,.93,.7,1.84,1.07,2.72,.82,.2,1.65,.39,2.49,.58,2.53-.26,5.01-.56,7.46-.92-3.78-.69-7.47-1.48-11.02-2.38"/><path class="i" d="M159.84,20.4c-2.4-.12-5.64-.25-9.59-.34-3.85,6.67-8.84,14.46-15.09,22.63-.04,.16-.08,.33-.11,.49,8.06,.22,13.93,.62,17.25,.89,1.45-9.39,4.05-17.52,7.53-23.67m12.01-12.7c-2.23-.26-5.52-.6-9.69-.92-1.48-.11-3.06-.22-4.75-.32h0c-1.42,3.01-3.35,6.84-5.82,11.24,4.13,.11,7.41,.25,9.67,.37,3.83-5.79,8.58-9.37,13.95-9.94-.17-.03-1.33-.19-3.36-.43"/><path class="n" d="M135.17,42.69c-.12,.16-.25,.32-.37,.48h.26c.04-.16,.07-.32,.11-.48"/><path class="i" d="M117.59,62.76c-2.43,2.42-4.97,4.82-7.63,7.18l8.05-.12c-.23-2.41-.36-4.76-.42-7.06m34.37-16.32c-3.36-.27-9.29-.67-17.42-.89-1.42,7.14-2.14,15.14-1.8,24.05l18.42-.27c-.44-8.09-.14-15.82,.79-22.9"/><path class="n" d="M134.55,45.56c-.52-.01-1.05-.03-1.59-.04-4.51,5.69-9.62,11.52-15.37,17.24,.06,2.3,.19,4.65,.42,7.06l14.74-.21c-.35-8.91,.38-16.92,1.8-24.05"/><path class="i" d="M118.27,72.22l-11.11,.16c-9.38,7.99-20.15,15.48-32.4,21.71,17,.2,33.75-.19,47.56-.72-1.3-5.13-2.45-10.63-3.4-16.49-.25-1.57-.47-3.13-.65-4.66m33.06-.48l-18.46,.27c.03,.54,.07,1.09,.11,1.64,.51,6.96,1.51,13.32,2.88,19.12,9.01-.45,15.57-.89,18.36-1.08-1.15-5.14-2.02-10.57-2.58-16.21-.12-1.25-.23-2.5-.32-3.74"/><path class="n" d="M132.87,72.01l-14.6,.21c.18,1.53,.4,3.09,.65,4.66,.95,5.86,2.1,11.36,3.4,16.49,4.93-.19,9.48-.39,13.54-.6-1.37-5.8-2.37-12.16-2.88-19.12-.04-.55-.08-1.1-.11-1.64"/><path class="i" d="M25.78,109.61h0m97.16-13.86c-6.87,.27-14.48,.51-22.47,.65-9.29,.17-19.75,.22-30.49,.01-9.54,4.46-19.94,8.15-31.24,10.75,.53,1.58,1.09,3.12,1.67,4.6,23.65,2.75,49.12,2.49,68.66,1.56,6.8-.33,13.24-.75,19.12-1.21-1.88-4.96-3.66-10.41-5.26-16.37m31.83-1.7c-2.49,.18-9.1,.63-18.32,1.1,1.51,5.83,3.39,11.07,5.49,15.77,8.43-.83,14.64-1.61,17.54-1.99-1.82-4.55-3.41-9.55-4.71-14.87"/><path class="n" d="M136.45,95.15c-4.04,.21-8.59,.42-13.51,.61,1.59,5.96,3.38,11.41,5.26,16.37,5.03-.39,9.64-.81,13.74-1.21-2.1-4.7-3.98-9.94-5.49-15.77"/><path class="n" d="M38.75,107.17c-4.2,.97-8.52,1.79-12.96,2.44h0c4.73,.87,9.62,1.58,14.58,2.16h.05c-.58-1.48-1.14-3.01-1.67-4.59"/><path class="i" d="M18.31,110.54c-.71,.07-1.43,.14-2.15,.2,1.74,4.06,3.71,7.67,5.85,10.7h0c2.91,1.01,6,1.93,9.23,2.75-1.58-3.66-3.14-7.66-4.61-12-2.83-.5-5.61-1.05-8.33-1.66m110.79,3.92c-6.1,.48-12.8,.93-19.9,1.27-19.28,.93-44.3,1.19-67.76-1.42,2.13,5,4.51,9.4,6.97,13.26,2.42,.36,4.87,.68,7.37,.97,26.68,3.1,57.15,2.49,80.36,1.17-2.34-4.38-4.75-9.45-7.05-15.25m31.33-3.24c-2.49,.33-8.71,1.13-17.43,2,2.9,6.05,6.15,11.14,9.4,15.39,7.77-.61,13.82-1.22,17.35-1.59-3.45-4.16-6.62-9.52-9.32-15.8"/><path class="n" d="M143,113.21c-4.12,.41-8.8,.84-13.9,1.24,2.3,5.8,4.71,10.87,7.05,15.25,5.96-.34,11.44-.72,16.25-1.1-3.25-4.24-6.5-9.34-9.4-15.39"/><path class="n" d="M26.63,112.19c1.47,4.34,3.03,8.34,4.61,12,5.37,1.36,11.14,2.47,17.18,3.36-2.47-3.86-4.85-8.26-6.97-13.26-.44-.05-.87-.1-1.3-.15-4.59-.53-9.11-1.18-13.51-1.95"/><path class="i" d="M24.65,124.83c3.16,3.61,6.6,6.02,10.13,6.94-.77-1.53-1.54-3.13-2.3-4.81-2.71-.65-5.32-1.36-7.82-2.13m112.77,7.19c-23.46,1.36-54.65,2.05-81.97-1.13-1.77-.21-3.52-.43-5.25-.67,1.42,2.05,2.86,3.94,4.28,5.65h0c6.07,1.22,13.86,2.54,23.25,3.63,16.92,1.97,39,3.19,65.44,1.76-1.76-2.56-3.71-5.63-5.74-9.25m34.28-2.82c-2.9,.32-9.09,.97-17.51,1.65,3.01,3.66,5.96,6.61,8.56,8.93h0c8.04-.79,16.42-1.83,25.12-3.16h0c-1.05,.11-2.11,.1-3.16-.02-4.5-.52-8.92-3.13-13.01-7.39"/><path class="n" d="M154.19,130.85c-4.91,.4-10.57,.81-16.77,1.17,2.03,3.61,3.98,6.69,5.74,9.25h0c6.29-.33,12.82-.81,19.59-1.49-2.61-2.32-5.55-5.26-8.56-8.93"/><path class="n" d="M32.47,126.96c.77,1.68,1.54,3.29,2.3,4.81h0c.52,.14,1.05,.25,1.57,.31,2.6,.35,5.19,.77,7.73,1.42,2.53,.66,6,1.48,10.39,2.37-1.42-1.72-2.86-3.6-4.28-5.65-6.2-.85-12.16-1.93-17.72-3.26"/><path class="g" d="M161.27,18.07c-2.26-.12-5.54-.27-9.67-.37-.43,.77-.88,1.56-1.34,2.36,3.95,.09,7.19,.22,9.59,.34,.46-.81,.93-1.59,1.42-2.33"/><path class="g" d="M152.31,44.07c-3.32-.27-9.19-.66-17.25-.89-.18,.78-.34,1.57-.5,2.38,8.13,.22,14.06,.61,17.42,.89,.11-.8,.22-1.59,.34-2.38"/><path class="b" d="M135.06,43.18h-.26c-.6,.77-1.21,1.55-1.83,2.34,.54,.01,1.07,.03,1.59,.04,.16-.81,.33-1.6,.5-2.38"/><path class="g" d="M118.02,69.82l-8.05,.12c-.92,.82-1.85,1.63-2.8,2.44l11.11-.16c-.09-.8-.18-1.6-.25-2.39m33.16-.48l-18.42,.27c.03,.79,.07,1.59,.12,2.4l18.46-.27c-.06-.8-.11-1.6-.15-2.4"/><path class="b" d="M132.75,69.61l-14.74,.21c.07,.79,.16,1.59,.25,2.39l14.6-.21c-.05-.81-.09-1.61-.12-2.4"/><path class="g" d="M122.32,93.37c-13.81,.53-30.56,.92-47.56,.72-1.57,.8-3.16,1.58-4.78,2.33,10.74,.2,21.2,.15,30.49-.01,7.99-.15,15.6-.38,22.47-.65-.21-.79-.42-1.58-.62-2.39m31.9-1.68c-2.79,.2-9.35,.63-18.36,1.08,.19,.8,.39,1.6,.59,2.38,9.22-.47,15.83-.92,18.32-1.1-.19-.78-.37-1.57-.55-2.36"/><path class="b" d="M135.86,92.77c-4.06,.2-8.61,.41-13.54,.6,.2,.8,.41,1.6,.62,2.39,4.92-.19,9.46-.4,13.51-.61-.2-.78-.4-1.57-.59-2.38"/><path class="g" d="M25.77,109.61c-2.45,.36-4.93,.67-7.46,.92,2.72,.61,5.49,1.16,8.33,1.66-.29-.85-.57-1.71-.85-2.58h-.01m102.43,2.51c-5.89,.46-12.33,.88-19.12,1.21-19.53,.93-45,1.19-68.66-1.56,.34,.86,.68,1.7,1.03,2.52,23.45,2.61,48.47,2.35,67.76,1.42,7.09-.34,13.8-.79,19.9-1.27-.3-.76-.6-1.54-.9-2.33m31.28-3.21c-2.9,.38-9.11,1.16-17.54,1.99,.35,.78,.7,1.55,1.06,2.3,8.71-.87,14.93-1.67,17.43-2-.32-.75-.64-1.51-.95-2.29"/><path class="b" d="M141.94,110.91c-4.1,.4-8.72,.82-13.74,1.21,.3,.79,.6,1.56,.9,2.33,5.1-.4,9.78-.83,13.9-1.24-.36-.75-.71-1.52-1.06-2.3"/><path class="b" d="M25.78,109.62c.28,.87,.56,1.73,.85,2.58,4.4,.77,8.92,1.42,13.51,1.95,.44,.05,.87,.1,1.3,.15-.35-.82-.69-1.67-1.03-2.52h-.05c-4.96-.58-9.85-1.29-14.58-2.16"/><path class="g" d="M22.01,121.44c.84,1.22,1.73,2.35,2.64,3.38h0c2.5,.79,5.12,1.49,7.82,2.14-.41-.9-.82-1.82-1.23-2.77-3.23-.82-6.32-1.73-9.23-2.75m114.14,8.26c-23.21,1.32-53.68,1.93-80.36-1.17-2.49-.29-4.95-.61-7.37-.97,.59,.92,1.18,1.81,1.77,2.66,1.73,.24,3.48,.46,5.25,.67,27.33,3.18,58.52,2.5,81.97,1.13-.42-.75-.85-1.52-1.27-2.32m33.6-2.69c-3.53,.38-9.58,.98-17.35,1.59,.6,.78,1.19,1.53,1.79,2.26,8.42-.68,14.62-1.33,17.51-1.65-.66-.69-1.31-1.42-1.95-2.19"/><path class="b" d="M152.4,128.6c-4.82,.38-10.29,.76-16.25,1.1,.43,.8,.85,1.57,1.27,2.32,6.2-.36,11.86-.77,16.77-1.17-.59-.72-1.19-1.48-1.79-2.26"/><path class="b" d="M31.24,124.19c.41,.95,.82,1.87,1.23,2.77,5.56,1.33,11.52,2.4,17.72,3.26-.59-.86-1.19-1.74-1.77-2.66-6.03-.89-11.81-2-17.18-3.36"/><path class="k" d="M151.64,75.48c3.49,35.48,19.71,62.85,36.23,61.14,16.52-1.72,27.09-31.87,23.6-67.35-3.49-35.48-19.71-62.85-36.23-61.14-16.52,1.72-27.09,31.87-23.6,67.35"/><path class="m" d="M154.48,75.18c3.16,32.11,17.84,56.89,32.79,55.33,14.95-1.55,24.52-28.85,21.36-60.96-3.16-32.11-17.84-56.89-32.79-55.33-14.95,1.55-24.52,28.85-21.36,60.96"/><path class="f" d="M175.84,72.68c1.25,12.73,7.07,22.54,12.99,21.93,5.93-.62,9.72-11.43,8.46-24.16-1.25-12.73-7.07-22.54-12.99-21.93-5.93,.62-9.72,11.43-8.46,24.16"/></g></svg>