<?xml version="1.0" encoding="UTF-8"?><svg id="a" xmlns="http://www.w3.org/2000/svg" xmlns:xlink="http://www.w3.org/1999/xlink" viewBox="0 0 141.6 210.3"><defs><style>.i{fill:#ffa64d;}.j{fill:#fffef3;}.k{fill:#fff;}.l{fill:#ffdd4d;}.m{stroke:#700;}.m,.n,.o{stroke-miterlimit:10;stroke-width:2px;}.m,.p{fill:#ed152e;}.q{fill:#f4bf3b;isolation:isolate;opacity:.96;}.r{clip-path:url(#h);}.s{opacity:.5;}.t{opacity:.49;}.n{fill:#bbefff;stroke:#008e87;}.u{opacity:.65;}.v{opacity:.29;}.w{fill:#ddbd58;}.x{fill:#dda758;}.y{opacity:.21;}.a`{clip-path:url(#c);}.aa{clip-path:url(#e);}.ab{clip-path:url(#d);}.ac{fill:none;}.ad{clip-path:url(#f);}.ae{fill:#e7242b;}.af{opacity:.12;}.o{fill:#efe800;stroke:#938c00;}.ag{opacity:.46;}.ah{clip-path:url(#g);}.ai{fill:#ff0;}.aj{opacity:.43;}</style><clipPath id="c"><path class="ac" d="M52.23,113.22l3.86-.19L51.26,13.42c-.13-1.95-1.65-3.5-3.57-3.6h-.16l-35.75,.52,.06,3.86,33.96-.49c.91,0,1.65,.68,1.69,1.59l4.74,97.93Z"/></clipPath><clipPath id="d"><path class="ac" d="M52.23,113.22l3.86-.19L51.26,13.42c-.13-1.95-1.65-3.5-3.57-3.6h-.16l-35.75,.52,.06,3.86,33.96-.49c.91,0,1.65,.68,1.69,1.59l4.74,97.93Z"/></clipPath><clipPath id="e"><path class="ac" d="M47.95,170.41h0v6.81c0,2.69,1.69,5.12,4.25,5.97,2.21,.71,5.48,1.33,10.41,1.39,3.7,.06,6.45-.32,8.47-.91,3.15-.91,5.25-3.86,5.25-7.1v-6.13h0c0-7.27,1.27-33.31,7.07-64.45,5.12-27.41,11.74-41.26,11.74-41.26H29.17s6.62,13.85,11.74,41.26c5.77,31.11,7.04,57.15,7.04,64.42Z"/></clipPath><clipPath id="f"><path class="ac" d="M47.95,170.41h0v6.81c0,2.69,1.69,5.12,4.25,5.97,2.21,.71,5.48,1.33,10.41,1.39,3.7,.06,6.45-.32,8.47-.91,3.15-.91,5.25-3.86,5.25-7.1v-6.13h0c0-7.27,1.27-33.31,7.07-64.45,5.12-27.41,11.74-41.26,11.74-41.26H29.17s6.62,13.85,11.74,41.26c5.77,31.11,7.04,57.15,7.04,64.42Z"/></clipPath><clipPath id="g"><path class="ac" d="M47.95,170.41h0v6.81c0,2.69,1.69,5.12,4.25,5.97,2.21,.71,5.48,1.33,10.41,1.39,3.7,.06,6.45-.32,8.47-.91,3.15-.91,5.25-3.86,5.25-7.1v-6.13h0c0-7.27,1.27-33.31,7.07-64.45,5.12-27.41,11.74-41.26,11.74-41.26H29.17s6.62,13.85,11.74,41.26c5.77,31.11,7.04,57.15,7.04,64.42Z"/></clipPath><clipPath id="h"><path class="ac" d="M47.95,170.41h0v6.81c0,2.69,1.69,5.12,4.25,5.97,2.21,.71,5.48,1.33,10.41,1.39,3.7,.06,6.45-.32,8.47-.91,3.15-.91,5.25-3.86,5.25-7.1v-6.13h0c0-7.27,1.27-33.31,7.07-64.45,5.12-27.41,11.74-41.26,11.74-41.26H29.17s6.62,13.85,11.74,41.26c5.77,31.11,7.04,57.15,7.04,64.42Z"/></clipPath></defs><path class="s" d="M45.55,205.48c-2.23,0-4.19-1.47-4.8-3.62-.2-.68-1.8-6.78,2.37-10.95,.63-.62,1.17-1.06,1.6-1.42,.13-.11,.3-.25,.42-.35,.06-.25,.16-.86,.19-2.18,0-8.43-.53-39.04-7.34-75.54-5.77-31-16.03-47.04-16.14-47.19-1-1.54-1.08-3.5-.21-5.12,.87-1.61,2.56-2.62,4.39-2.62h23.21l-1.58-32.74s-30.79,.44-30.81,.44c-2.72,0-4.95-2.18-5-4.92l-.06-3.86c-.02-1.33,.49-2.61,1.41-3.56s2.19-1.5,3.52-1.52l35.98-.52c.08,0,.17,0,.25,0,4.44,.22,8.01,3.78,8.3,8.26l1.86,38.41h19.31c2.34-12.2,13.09-21.44,25.96-21.44,14.57,0,26.43,11.86,26.43,26.43s-11.86,26.43-26.43,26.43c-2.03,0-4.02-.23-5.97-.69-2.48,7.56-4.54,15.68-6.14,24.2-6.81,36.5-7.34,67.12-7.34,75.63,.02,1.23,.12,1.83,.18,2.07,.11,.1,.28,.24,.41,.35,.44,.36,.98,.82,1.61,1.44,4.17,4.17,2.57,10.27,2.37,10.95-.62,2.14-2.58,3.62-4.8,3.62H45.55Z"/><path class="k" d="M40.55,200.48c-2.23,0-4.19-1.47-4.8-3.62-.2-.68-1.8-6.78,2.37-10.95,.63-.62,1.17-1.06,1.6-1.42,.13-.11,.3-.25,.42-.35,.06-.25,.16-.86,.19-2.18,0-8.43-.53-39.04-7.34-75.54-5.77-31-16.03-47.04-16.14-47.19-1-1.54-1.08-3.5-.21-5.12,.87-1.61,2.56-2.62,4.39-2.62h23.21l-1.58-32.74s-30.79,.44-30.81,.44c-2.72,0-4.95-2.18-5-4.92l-.06-3.86c-.02-1.33,.49-2.61,1.41-3.56s2.19-1.5,3.52-1.52l35.98-.52c.08,0,.17,0,.25,0,4.44,.22,8.01,3.78,8.3,8.26l1.86,38.41h19.31c2.34-12.2,13.09-21.44,25.96-21.44,14.57,0,26.43,11.86,26.43,26.43s-11.86,26.43-26.43,26.43c-2.03,0-4.02-.23-5.97-.69-2.48,7.56-4.54,15.68-6.14,24.2-6.81,36.5-7.34,67.12-7.34,75.63,.02,1.23,.12,1.83,.18,2.07,.11,.1,.28,.24,.41,.35,.44,.36,.98,.82,1.61,1.44,4.17,4.17,2.57,10.27,2.37,10.95-.62,2.14-2.58,3.62-4.8,3.62H40.55Z"/><g><g><circle class="o" cx="103.38" cy="56.48" r="21.43"/><circle class="j" cx="103.38" cy="56.48" r="19.77" transform="translate(31.07 149.48) rotate(-80.78)"/><g><path class="ai" d="M103.47,54.15s-1.06-3.6-.78-9.04c.25-5.47-.84-6.91,1.87-6.82,2.69,.09,4.22,.84,5.63,1.63,1.41,.78,2.82,1.75,1.53,3.35-1.28,1.6-5.5,8.73-6.41,9.85-.9,1.12-1.53,2.06-1.84,1.03Z"/><path class="ai" d="M100.93,58.06s-12.45,4.1-13.1,5.66c-.69,1.53,1.25,4.44,2.69,5.57,1.44,1.16,2.94,2.1,3.6,1.47,.69-.6,8.82-13.35,6.81-12.7Z"/><path class="ai" d="M106.16,56.72c-.56-.19-.69-.91-.25-1.31,.34-.31,.88-.66,1.72-1.09,2.59-1.25,9.88-4.47,11.04-4.13,1.19,.34,2.1,.13,2.53,3.38,.41,3.25,.41,4.44-1.03,4.35s-8.41-.53-10.26-.63c-1.47-.06-2.75-.22-3.75-.56Z"/><path class="ai" d="M93.81,42.11s1.47,2.28,3.07,5.1c1.6,2.82,3.78,6.63,4.5,7.04,.72,.38,1.19-.44,1.06-1.91-.12-1.47-.56-12.38-.97-12.91-.38-.56-2.38-.69-3.88-.03-1.5,.63-3.56,2-3.79,2.72Z"/><path class="ai" d="M86.14,53.28s-1.41,3.63-.5,6.19c.91,2.57,.94,3.69,2.66,2.88,1.72-.81,11.04-4.82,12.29-4.91,1.25-.09,.63-1.47-.34-1.56-.94-.09-12.79-3.13-14.1-2.59Z"/><path class="ai" d="M102.9,58.84s-.25-.97-1.25,.09c-1,1.06-5.85,11.07-6.25,11.82-.41,.78,.81,2.63,2.72,2.94,1.91,.31,4.94,1.31,5.44,.25,.5-1.03-.68-13.79-.66-15.1Z"/><path class="ai" d="M92.81,42.86s-5.16,3.07-6,6.41c-.84,3.38-1.09,3.22,2.25,3.78,3.35,.53,9.44,1.53,10.85,2.03,1.44,.5-1.53-4.69-3-6.94-1.41-2.22-3.07-5.16-4.1-5.28Z"/><path class="ai" d="M105.63,57.25s7.04,.63,9.72,1c2.69,.38,5.88-.38,5.5,2.59-.38,2.94-1.13,2.75-1.66,4s-2.72,4.88-3.6,4.75c-.88-.13-4.88-5.25-6.63-7.13-1.75-1.9-4.53-5.35-3.34-5.22Z"/><path class="ai" d="M105.5,54.81c-.44,.09-.75-.41-.5-.78,1.22-1.66,4.88-6.6,5.66-7.82,.94-1.47,2.16-4.16,3.63-3.38,1.47,.78,2.78,2.31,3.81,4.1,1.03,1.78,1,1.81-.41,2.84-1.41,1.06-9.22,3.47-10.6,4.31-.69,.44-1.22,.63-1.6,.72Z"/><path class="ai" d="M104.56,58.06s-.63-.81-.66,1.81,.66,5.91,.53,7.22c-.16,1.31,.06,4.88,.31,5.82,.25,.94,1.19,2.16,2.88,1.63,1.69-.53,7.76-2.84,7.22-3.94-.47-1.13-9.41-11.13-10.29-12.54Z"/></g></g><path class="ae" d="M103.25,56.49H21.03s10.8,16.45,16.87,49.01c6.91,37.01,7.43,67.92,7.43,76.55h0c-.1,5.48-1.46,5.22-3.67,7.4-2.21,2.21-1.1,6.03-1.1,6.03h43.14s1.1-3.83-1.1-6.03c-2.21-2.21-3.57-1.91-3.67-7.4h0c0-8.63,.52-39.54,7.43-76.55,6.1-32.57,16.9-49.01,16.9-49.01Z"/><g><g><g><path id="b" class="m" d="M52.23,113.22l3.86-.19L51.26,13.42c-.13-1.95-1.65-3.5-3.57-3.6h-.16l-35.75,.52,.06,3.86,33.96-.49c.91,0,1.65,.68,1.69,1.59l4.74,97.93Z"/><g class="a`"><g class="aj"><path class="p" d="M54.96,114.26l3.89,.75L54.08,10.66c-.13-1.95-1.65-3.5-3.57-3.6h-.16l-41.32,.13-.42,4.15,39.05-.29c.91,0,2.24,1.14,2.27,2.04l5.03,101.17Z"/></g></g><g class="ab"><g class="af"><path class="k" d="M49.57,115.88l3.86-.19-4.83-99.61c-.13-1.95-.13-3.57-2.04-3.7-.03,0-42.98,.23-42.98,.23l.06,3.86,38.89,.42c.91,0,1.65,.68,1.69,1.59l5.35,97.41Z"/></g></g></g><g class="y"><path class="k" d="M41.43,12.74c-3.41,.94-7.98,.26-12.2,.45-4.83,.19-10.87,1.3-15.47-.06-.68-.19-.81-1.33-.03-1.46,7.01-.97,20.14-.88,27.86-.32,1.72,.13,.13,1.3-.16,1.39Z"/></g><g class="y"><path class="k" d="M50.16,21.49c1.3,3.47,1.01,7.69,1.23,11.32,.23,3.92,1.23,9.11,.62,13.04-.13,.75-1.52,.36-1.85-.26-1.46-2.63-.78-6.68-1.01-9.67-.49-6.2-1.27-9.5-.84-14.05,.23-2.59,1.85-.39,1.85-.39Z"/></g><g><g/><g/><g/><g/><g/><g/><g/><g/><g/><g/><g/><g/><g/><g/></g></g><g><path class="n" d="M103.25,56.49H21.03s10.8,16.45,16.87,49.01c6.91,37.01,7.43,67.92,7.43,76.55h0c-.1,5.48-1.46,5.22-3.67,7.4-2.21,2.21-1.1,6.03-1.1,6.03h43.14s1.1-3.83-1.1-6.03c-2.21-2.21-3.57-1.91-3.67-7.4h0c0-8.63,.52-39.54,7.43-76.55,6.1-32.57,16.9-49.01,16.9-49.01Z"/><path class="q" d="M47.95,170.41h0v6.81c0,2.69,1.69,5.12,4.25,5.97,2.21,.71,5.48,1.33,10.41,1.39,3.7,.06,6.45-.32,8.47-.91,3.15-.91,5.25-3.86,5.25-7.1v-6.13h0c0-7.27,1.27-33.31,7.07-64.45,5.12-27.41,11.74-41.26,11.74-41.26H29.17s6.62,13.85,11.74,41.26c5.77,31.11,7.04,57.15,7.04,64.42Z"/><g class="t"><path class="k" d="M24.47,58.67c5.64,.71,11.29,.68,16.96,.88,2.82,.1,5.64,.36,8.5,.42,3.08,.06,6.23,.97,9.18-.16,.36-.13,.42-.65,0-.78-5.87-1.69-13.01-1.23-19.14-1.43-3.21-.1-6.42-.03-9.63,.1-2.11,.06-4.09-.32-6,.58-.19,.06-.06,.36,.13,.39h0Z"/></g><g class="t"><path class="k" d="M70.3,59.41c5.12,.68,10.22,.94,15.37,1.14,3.63,.13,9.73,1.65,12.78-.81,.23-.19,.16-.62-.1-.75-1.3-.71-2.04-.52-3.57-.45-2.5,.1-5.09-.26-7.59-.36-5.64-.26-11.16-.36-16.77,.36-.49,.06-.68,.81-.13,.88h0Z"/></g><g class="t"><path class="k" d="M71.92,191.14c-3.83-.29-7.62-.42-11.48-.39-2.11,.03-4.18,.06-6.29-.23-2.34-.32-4.35-1.72-6.49-2.59-2.76-1.14-3.99,3.41-1.23,4.48,8.37,3.24,17.16,2.3,25.69,.06,.75-.19,.52-1.27-.19-1.33h0Z"/></g><g class="t"><path class="k" d="M76.85,192.18c.13,0,.26,0,.42,.03-.29-.06-.58-.16-.88-.23,.16,.1,.13,.06-.13-.1,.36,.32,.52,.42,.97,.58,.52,.19,1.07,.23,1.62,.06,1.65-.55,1.95-2.69,.49-3.63-.62-.39-1.39-.49-2.11-.29-.42,.13-.84,.39-1.23,.65-.58,.42-.94,1.07-.75,1.82,.23,.62,.88,1.14,1.59,1.1h0Z"/></g><g class="v"><path class="k" d="M68.06,189.52c-2.66,.13-5.29-.97-7.88-1.56-2.82-.65-5.22-2.01-7.88-3.02-3.89-1.49-6.16,4.54-2.76,6.55,4.96,2.98,14.01,2.69,19.01-.23,.75-.45,.45-1.78-.49-1.75h0Z"/></g><g class="v"><path class="k" d="M66.89,59.77c6.2,1.23,14.3,2.69,20.37,.39,.49-.19,.49-.78,0-.97-2.95-1.17-6.26-1.04-9.41-1.17-3.63-.16-7.4-.49-10.96,.19-.78,.13-.78,1.39,0,1.56h0Z"/></g><path class="k" d="M77.24,59.96c5.77,.62,13.01,2.82,18.46-.03,.45-.23,.16-.78-.23-.84-2.76-.36-5.61,.03-8.4,.03-3.31,0-6.52,.03-9.83,.29-.36,0-.32,.49,0,.55h0Z"/><path class="k" d="M56.84,190.91c-.45-.06-.88-.49-1.3-.65-.62-.26-1.23-.52-1.85-.75-.58-.23-1.17-.49-1.69-.81-.49-.26-.52-.65-.94-1.04-.71-.58-1.88-.62-2.37,.29-1.1,2.04,1.2,3.41,2.82,3.96,.94,.32,1.98,.42,2.95,.42,.78,0,1.52-.36,2.24-.39,.55,0,.75-.94,.13-1.04h0Z"/><g><g class="aa"><g class="u"><path class="w" d="M64.88,184.65l.1,.1c-.81,2.04-1.65,4.05-2.47,6.1,3.31-2.27,4.93-2.89,5.64-6.58,1.17-5.9,.06-14.79-.19-20.66-.58-12.13,.06-24.2,.16-36.3,.03-5.94,2.11-28.8,3.24-34.19,1.33-6.39,2.01-12.94,2.82-19.4,.39-3.08,.75-6.13,.49-9.24-.26-3.31-1.3-6.49-1.46-9.8-.26-5.35-4.28-9.83-9.83-9.83-5.16,0-41.16,8.73-40.9,14.08,.16,3.24,4.41,5.42,5.06,8.6,.52,2.59,6.68,35.39,6.16,42.23-.49,6.42,6.97,13.85,6.84,20.27-.29,12.97,4.7,26.14,6.65,39.15,.84,5.58-4.18,10.7-2.82,15.7,.68,2.53,9.05,4.51,11.39,5.87,1.04,.58,2.47,.97,3.67,.97,4.74,0-3.7,.19,1.39,.06,3.54-.13,5.84-3.99,4.05-7.14h0Z"/></g></g><g class="ad"><g class="u"><path class="x" d="M61.02,181.34l.1,.1-1.46,6.42c2.89-2.79-6.23-91.44-6-96.92,.26-6.52-1.46-14.05-1.72-20.56-.13-3.11-.29-6.2-1.04-9.21-.81-3.21-2.37-6.2-3.08-9.41-1.14-5.22-5.84-8.98-11.32-8.08-5.09,.84-39.18,15.37-38.05,20.6,.68,3.15,5.25,4.61,6.39,7.66,.94,2.47,12.42,33.8,13.04,40.64,.58,6.42,9.18,12.52,10.09,18.88,1.88,12.88,8.92,25.01,13.01,37.53,1.75,5.35-2.34,11.22-.19,15.96,1.07,2.37,9.67,2.95,12.2,3.92,1.1,.42,2.59,.55,3.8,.36,4.67-.78-3.6,.78,1.36-.16,3.54-.75,5.19-4.9,2.89-7.72h0Z"/></g></g><g class="ah"><g class="ag"><path class="l" d="M107.67,47.12c-4.67-3.21-11.64,.26-14.21,3.63-3.41,4.44-7.72,22.9-8.3,24.52-1.75,4.61-3.02,9.41-4.18,14.17-2.43,9.96-3.11,17.22-6,29.58-.94,3.99-1.78,17.16-2.59,22.06-.78,4.67-.91,15.05-1.36,19.79-.39,4.41,.49,22.77,.94,26.86,.68,6,7.33,9.99,13.85,9.99,5.55,0,5.19-4.93,4.41-10.93-.36-2.89-1.52-5.97-4.38-7.3-.91-.42-1.78-.81-2.72-1.17-7.23-1.98,.75,.81,.39,.55,1.17,1.17,2.34,2.34,3.54,3.54,1.85,3.02,.65,4.02,.88,.88,.1-1.23,.65-2.72,.94-3.96,.81-3.63,1.1-7.33,1.3-11.03,.32-6.42,.94-12.84,2.04-19.17,1.27-7.3,3.11-14.34,3.6-21.76,.49-7.1,.58-14.11,1.65-21.15,1.04-6.88,1.72-13.75,3.18-20.56,.97-4.48,2.4-8.76,3.08-13.3,.58-3.99,1.1-7.98,2.08-11.87,.42-1.75,.75-3.57,1.17-5.32,.23-1.01,1.23-1.36,2.14-2.72,1.2-1.85,.19-4.18-1.43-5.32h0Z"/></g></g><g class="r"><g class="ag"><path class="i" d="M110.26,47.12c-4.67-3.21-11.64,.26-14.21,3.63-3.41,4.44-7.72,22.9-8.3,24.52-1.75,4.61-3.02,9.41-4.18,14.17-2.43,9.96-3.11,17.22-6,29.58-.94,3.99-1.78,17.16-2.59,22.06-.78,4.67-.91,15.05-1.36,19.79-.39,4.41,.49,22.77,.94,26.86,.68,6,7.33,9.99,13.85,9.99,5.55,0,5.19-4.93,4.41-10.93-.36-2.89-1.52-5.97-4.38-7.3-.91-.42-1.78-.81-2.72-1.17-7.23-1.98,.75,.81,.39,.55,1.17,1.17,2.34,2.34,3.54,3.54,1.85,3.02,.65,4.02,.88,.88,.1-1.23,.65-2.72,.94-3.96,.81-3.63,1.1-7.33,1.3-11.03,.32-6.42,.94-12.84,2.04-19.17,1.27-7.3,3.11-14.34,3.6-21.76,.49-7.1,.58-14.11,1.65-21.15,1.04-6.88,1.72-13.75,3.18-20.56,.97-4.48,2.4-8.76,3.08-13.3,.58-3.99,1.1-7.98,2.08-11.87,.42-1.75,.75-3.57,1.17-5.32,.23-1.01,1.23-1.36,2.14-2.72,1.23-1.85,.19-4.18-1.43-5.32h0Z"/></g></g></g><path class="k" d="M83.69,74.88c-3.89,6.42-4.83,15.6-6.65,22.74-1.59,6.26-2.92,12.33-3.76,18.75-1.14,8.4-1.95,16.8-2.56,25.27-.49,6.55-1.1,13.33-.42,19.88,.19,1.98,3.31,2.04,3.15,0-1.17-14.56,1.07-29.81,2.82-44.28,.78-6.45,2.04-12.59,3.54-18.88,1.07-4.61,1.72-9.34,2.76-13.95,.68-2.98,1.78-6.36,1.49-9.44-.06-.19-.26-.26-.36-.1h0Z"/></g></g></g></svg>