<?xml version="1.0" encoding="UTF-8"?><svg id="a" xmlns="http://www.w3.org/2000/svg" viewBox="0 0 194.45 243.47"><defs><style>.b{fill:#fff;}.c{opacity:.5;}.d{fill:#969595;}.e{fill:#a0a0a0;}.f{fill:#b7b6b6;}.g{fill:#382a1b;}.h{fill:#4c3622;}</style></defs><path class="c" d="M183.64,242.15c-2.5,0-4.82-1.13-6.34-3.11l-3.13-4.05c-.18-.17-.34-.35-.5-.55l-2.55-3.3c-.15-.2-.29-.41-.41-.62l-.33-.42c-.18-.17-.34-.35-.49-.55l-.52-.67c-.15-.2-.29-.41-.41-.62l-.35-.46c-.18-.17-.34-.35-.49-.55l-2.55-3.29c-.15-.2-.29-.41-.41-.62l-12.98-16.79c-.18-.17-.34-.35-.49-.55l-2.55-3.29c-.15-.2-.29-.4-.41-.62l-.33-.43c-.18-.17-.34-.35-.49-.55l-.52-.67c-.15-.2-.29-.4-.41-.62l-.35-.46c-.18-.17-.34-.35-.5-.55l-2.55-3.3c-.15-.2-.29-.4-.41-.61L40.56,62.16s-.08,0-.12,0c-2.21,0-4.26-1-5.62-2.76L8.52,25.38c-1.72-2.23-2.47-4.99-2.11-7.78,.36-2.79,1.78-5.28,4.01-7l2.69-2.08c1.83-1.42,4.12-2.2,6.44-2.2,3.29,0,6.33,1.49,8.34,4.09l26.31,34.03c1.65,2.13,1.89,4.91,.87,7.22L191.45,228.09c1.31,1.69,1.88,3.8,1.61,5.92-.27,2.12-1.35,4.02-3.05,5.33l-.14,.11c-.11,.11-.23,.22-.36,.32-.15,.12-.43,.34-.83,.59l-.14,.11c-1.4,1.08-3.14,1.68-4.91,1.68h0Z"/><path class="b" d="M178.64,237.15c-2.5,0-4.82-1.13-6.34-3.11l-3.13-4.05c-.18-.17-.34-.35-.5-.55l-2.55-3.3c-.15-.2-.29-.41-.41-.62l-.33-.42c-.18-.17-.34-.35-.49-.55l-.52-.67c-.15-.2-.29-.41-.41-.62l-.35-.46c-.18-.17-.34-.35-.49-.55l-2.55-3.29c-.15-.2-.29-.41-.41-.62l-12.98-16.79c-.18-.17-.34-.35-.49-.55l-2.55-3.29c-.15-.2-.29-.4-.41-.62l-.33-.43c-.18-.17-.34-.35-.49-.55l-.52-.67c-.15-.2-.29-.4-.41-.62l-.35-.46c-.18-.17-.34-.35-.5-.55l-2.55-3.3c-.15-.2-.29-.4-.41-.61L35.56,57.16s-.08,0-.12,0c-2.21,0-4.26-1-5.62-2.76L3.52,20.38c-1.72-2.23-2.47-4.99-2.11-7.78,.36-2.79,1.78-5.28,4.01-7l2.69-2.08c1.83-1.42,4.12-2.2,6.44-2.2,3.29,0,6.33,1.49,8.34,4.09l26.31,34.03c1.65,2.13,1.89,4.91,.87,7.22L186.45,223.09c1.31,1.69,1.88,3.8,1.61,5.92-.27,2.12-1.35,4.02-3.05,5.33l-.14,.11c-.11,.11-.23,.22-.36,.32-.15,.12-.43,.34-.83,.59l-.14,.11c-1.4,1.08-3.14,1.68-4.91,1.68h0Z"/><g><rect class="g" x="-42.41" y="117.23" width="277.52" height="7.89" rx="3.02" ry="3.02" transform="translate(59.42 271.51) rotate(-127.71)"/><path class="h" d="M11.57,11.33L181.33,230.92s-1.09,.92-2.58,.88c-1.72-.05-2.84-1.26-2.84-1.26L11.19,17.47s-1.4-1.27-1.22-3.42c.14-1.72,1.6-2.73,1.6-2.73Z"/><rect class="e" x="172.41" y="218.32" width="4.16" height="7.95" transform="translate(105.35 496.31) rotate(-127.71)"/><rect class="e" x="166.86" y="211.14" width="4.16" height="7.95" transform="translate(102.08 480.33) rotate(-127.71)"/><rect class="e" x="171.3" y="214.75" width=".85" height="7.95" transform="translate(103.72 488.36) rotate(-127.71)"/><rect class="e" x="150.42" y="189.88" width="4.16" height="7.95" transform="translate(92.42 433.07) rotate(-127.71)"/><rect class="e" x="144.87" y="182.69" width="4.16" height="7.95" transform="translate(89.15 417.1) rotate(-127.71)"/><rect class="e" x="149.32" y="186.3" width=".85" height="7.95" transform="translate(90.79 425.12) rotate(-127.71)"/><path class="d" d="M2.08,21.32H45.09c3.05,0,5.53,2.48,5.53,5.53v3.4c0,3.05-2.48,5.53-5.53,5.53H2.08c-1.16,0-2.1-.94-2.1-2.1v-10.28c0-1.16,.94-2.1,2.1-2.1Z" transform="translate(18.19 66.04) rotate(-127.71)"/><path class="f" d="M40.77,48.6l-3.53,2.73c-1.2,.93-2.92,.71-3.84-.49L8.52,18.67c-2.44-3.16-1.86-7.7,1.3-10.15h0l30.95,40.08Z"/></g></svg>