<?xml version="1.0" encoding="UTF-8"?><svg xmlns="http://www.w3.org/2000/svg" viewBox="0 0 140.59 283.7"><defs><style>.b{fill:#fff;}.c{fill:#bb5d27;}.d{fill:#f47e20;}.e{opacity:.5;}.f{fill:#7fd1e9;}.g{isolation:isolate;}.h{fill:#c7e7f9;}.h,.i{mix-blend-mode:multiply;}.i{fill:#dad9d8;}.j{fill:#3c3c3b;}.j,.k{mix-blend-mode:screen;}.k{fill:#575756;}</style></defs><g class="g"><g id="a"><g><path class="e" d="M73.27,278.7c-.16,0-.33,0-.5-.01-.17,0-.33,.01-.49,.01-4.17,0-6.65-2.28-7.98-3.51-.04-.04-.08-.08-.12-.12-3.93-1.1-4.68-5.46-5.02-7.41v-.09c-4.09-2.11-9.21-7.15-9.66-14.75-.19-3.25-.12-5.55,2.4-7.96,1.52-1.44,3.31-6.61,4.54-10.69,5.06-16.76,2.08-34.73,1.09-37.12-1.43-2.85-1.17-5.46,.84-7.9,.05-.06,.1-.11,.15-.19h0s.46-.95,.19-4.47c-.52-6.68-6.95-11.03-7.75-11.55-9.69-5.12-16.68-10.35-20.79-15.55-6.37-8.06-7.55-15.77-8.42-21.4-.65-4.22-1.05-6.48-2.53-7.8-6.14-5.49-10.47-18.98-8.9-27.77,.86-4.81,3.42-8.28,7.22-9.78,2.2-.87-.77-11.41-2.2-16.48-.6-2.14-1.23-4.35-1.78-6.57-1.95-7.72-.19-15.43,4.83-21.14,3.61-4.11,8.28-6.47,12.82-6.47,.24,0,.48,0,.72,.02,2.25-1.36,7.18-7.96,10.18-11.98,7.29-9.76,12.1-15.79,17.52-17.27,1.91-.52,3.79-.79,5.58-.79,3.2,0,5.71,.82,7.58,1.81,1.87-.99,4.38-1.82,7.58-1.82,1.79,0,3.67,.27,5.58,.79,5.41,1.48,10.23,7.51,17.51,17.27,3.02,4.04,7.94,10.63,10.17,11.98,.24-.01,.48-.02,.72-.02,4.54,0,9.21,2.36,12.82,6.47,5.01,5.71,6.77,13.41,4.83,21.14-.55,2.2-1.18,4.41-1.78,6.54-1.44,5.1-4.4,15.64-2.2,16.51,3.8,1.5,6.36,4.98,7.22,9.79,1.57,8.78-2.76,22.28-8.9,27.77-1.48,1.32-1.88,3.58-2.53,7.8-.86,5.63-2.04,13.34-8.42,21.4-4.11,5.2-11.12,10.44-20.81,15.56-.8,.51-7.2,4.79-7.73,11.53-.28,3.52,.19,4.47,.19,4.48,.04,.06,.1,.12,.14,.17,2.01,2.44,2.27,5.05,.8,7.98-.96,2.31-3.94,20.28,1.12,37.04,1.23,4.08,3.02,9.25,4.54,10.69,2.53,2.41,2.59,4.71,2.41,7.96-.44,7.6-5.57,12.64-9.64,14.75v.08c-.35,1.95-1.1,6.31-5.03,7.42-.04,.04-.08,.08-.13,.12-1.33,1.23-3.81,3.51-8.01,3.51h0Z"/><path class="b" d="M68.27,273.7c-.16,0-.33,0-.5-.01-.17,0-.33,.01-.49,.01-4.17,0-6.65-2.28-7.98-3.51-.04-.04-.08-.08-.12-.12-3.93-1.1-4.68-5.46-5.02-7.41v-.09c-4.09-2.11-9.21-7.15-9.66-14.75-.19-3.25-.12-5.55,2.4-7.96,1.52-1.44,3.31-6.61,4.54-10.69,5.06-16.76,2.08-34.73,1.09-37.12-1.43-2.85-1.17-5.46,.84-7.9,.05-.06,.1-.11,.15-.19h0s.46-.95,.19-4.47c-.52-6.68-6.95-11.03-7.75-11.55-9.69-5.12-16.68-10.35-20.79-15.55-6.37-8.06-7.55-15.77-8.42-21.4-.65-4.22-1.05-6.48-2.53-7.8-6.14-5.49-10.47-18.98-8.9-27.77,.86-4.81,3.42-8.28,7.22-9.78,2.2-.87-.77-11.41-2.2-16.48-.6-2.14-1.23-4.35-1.78-6.57-1.95-7.72-.19-15.43,4.83-21.14,3.61-4.11,8.28-6.47,12.82-6.47,.24,0,.48,0,.72,.02,2.25-1.36,7.18-7.96,10.18-11.98,7.29-9.76,12.1-15.79,17.52-17.27,1.91-.52,3.79-.79,5.58-.79,3.2,0,5.71,.82,7.58,1.81,1.87-.99,4.38-1.82,7.58-1.82,1.79,0,3.67,.27,5.58,.79,5.41,1.48,10.23,7.51,17.51,17.27,3.02,4.04,7.94,10.63,10.17,11.98,.24-.01,.48-.02,.72-.02,4.54,0,9.21,2.36,12.82,6.47,5.01,5.71,6.77,13.41,4.83,21.14-.55,2.2-1.18,4.41-1.78,6.54-1.44,5.1-4.4,15.64-2.2,16.51,3.8,1.5,6.36,4.98,7.22,9.79,1.57,8.78-2.76,22.28-8.9,27.77-1.48,1.32-1.88,3.58-2.53,7.8-.86,5.63-2.04,13.34-8.42,21.4-4.11,5.2-11.12,10.44-20.81,15.56-.8,.51-7.2,4.79-7.73,11.53-.28,3.52,.19,4.47,.19,4.48,.04,.06,.1,.12,.14,.17,2.01,2.44,2.27,5.05,.8,7.98-.96,2.31-3.94,20.28,1.12,37.04,1.23,4.08,3.02,9.25,4.54,10.69,2.53,2.41,2.59,4.71,2.41,7.96-.44,7.6-5.57,12.64-9.64,14.75v.08c-.35,1.95-1.1,6.31-5.03,7.42-.04,.04-.08,.08-.13,.12-1.33,1.23-3.81,3.51-8.01,3.51h0Z"/><g><path class="d" d="M121.09,90.6c-8.01-3.16-2.37-16.71,.79-29.27,3.16-12.56-6.63-21.75-13.35-20.96-6.72,.79-20.67-27.19-28.97-29.47-8.31-2.27-11.77,2.57-11.77,2.57,0,0-3.46-4.85-11.77-2.57-8.31,2.27-22.25,30.26-28.97,29.47-6.72-.79-16.51,8.41-13.35,20.96,3.16,12.56,8.8,26.11,.79,29.27-8.01,3.16-3.26,22.84,3.26,28.68,6.53,5.83,1.48,17.11,11.57,29.86,4.3,5.44,11.94,10.37,19.28,14.24h0s9.6,5.64,10.39,15.73c.79,10.09-3.26,7.52-1.68,10.68,1.58,3.16,4.65,22.94-.79,40.94-5.44,18-7.12,9.99-6.72,16.81,.4,6.82,6.23,10.48,8.11,10.88,1.88,.4,1.09,6.43,2.97,6.63,1.88,.2,2.97,3.66,6.92,3.36,3.96,.3,5.04-3.16,6.92-3.36,1.88-.2,1.09-6.23,2.97-6.63,1.88-.4,7.71-4.05,8.11-10.88,.4-6.82-1.29,1.19-6.72-16.81-5.44-18-2.37-37.77-.79-40.94,1.58-3.16-2.47-.59-1.68-10.68,.79-10.09,10.39-15.73,10.39-15.73h0c7.34-3.86,14.97-8.79,19.28-14.24,10.09-12.76,5.04-24.03,11.57-29.86,6.53-5.83,11.27-25.51,3.26-28.68Z"/><path class="c" d="M67.28,268.7c-2.22,0-3.52-1.2-4.59-2.18-.66-.61-1.23-1.13-1.85-1.2-1.17-.12-1.45-1.77-1.75-3.5-.24-1.39-.51-2.97-1.25-3.12-1.72-.36-7.92-3.92-8.34-11.15-.17-2.94,.04-3.26,.86-4.05,.91-.86,2.79-2.65,5.88-12.87,5.5-18.21,2.28-37.78,.81-40.72-.69-1.38-.4-1.85,.19-2.56,.72-.87,1.92-2.34,1.46-8.23-.77-9.82-10.15-15.44-10.24-15.49-9.14-4.81-15.66-9.63-19.36-14.31-5.55-7.02-6.58-13.7-7.4-19.06-.7-4.58-1.25-8.19-4.14-10.77-4.89-4.37-8.58-16.06-7.31-23.16,.55-3.08,1.98-5.16,4.14-6.01,6.4-2.53,3.67-12.22,.78-22.49-.6-2.11-1.21-4.3-1.75-6.44-1.54-6.1-.18-12.16,3.74-16.62,2.89-3.29,6.7-5.1,9.93-4.72,3.26,.39,8.74-6.93,14.03-14.01,5.25-7.03,10.68-14.31,14.83-15.44,7.2-1.97,10.91,1.37,11.85,2.4,.94-1.03,4.64-4.37,11.85-2.4,4.15,1.14,9.58,8.41,14.83,15.44,5.29,7.08,10.75,14.4,14.03,14.01,3.24-.38,7.05,1.43,9.93,4.72,3.91,4.46,5.27,10.51,3.74,16.62-.54,2.14-1.15,4.32-1.75,6.44-2.89,10.26-5.62,19.96,.78,22.48,2.16,.85,3.59,2.93,4.14,6.01,1.27,7.1-2.42,18.79-7.31,23.16-2.88,2.58-3.44,6.19-4.14,10.77-.82,5.36-1.84,12.03-7.4,19.06-3.7,4.68-10.22,9.5-19.37,14.31-.37,.22-9.46,5.73-10.23,15.49-.46,5.89,.74,7.35,1.46,8.23,.58,.71,.88,1.18,.19,2.56-1.47,2.94-4.69,22.51,.81,40.72,3.09,10.21,4.97,12.01,5.88,12.87,.82,.78,1.03,1.11,.86,4.05-.42,7.23-6.63,10.79-8.34,11.15-.74,.16-1.01,1.73-1.25,3.12-.3,1.74-.58,3.38-1.75,3.5-.62,.07-1.19,.59-1.85,1.2-1.14,1.05-2.56,2.36-5.12,2.17-.17,.01-.33,.02-.49,.02Zm.49-.61c2.35,.18,3.61-.99,4.72-2.01,.74-.68,1.37-1.26,2.19-1.35,.72-.08,.99-1.64,1.23-3.02,.28-1.65,.58-3.37,1.71-3.6,1.56-.33,7.48-3.81,7.87-10.6,.16-2.79-.02-2.95-.68-3.58-1.02-.97-2.91-2.76-6.04-13.13-5.55-18.36-2.26-38.17-.77-41.16,.55-1.11,.37-1.33-.12-1.92-.78-.94-2.08-2.52-1.6-8.65,.79-10.12,10.43-15.9,10.53-15.96,9.09-4.79,15.55-9.55,19.2-14.16,5.46-6.9,6.46-13.49,7.27-18.78,.69-4.51,1.29-8.4,4.33-11.12,4.77-4.26,8.36-15.67,7.12-22.61-.52-2.91-1.79-4.78-3.77-5.57-6.9-2.73-4.1-12.67-1.13-23.2,.59-2.11,1.21-4.29,1.75-6.42,1.49-5.91,.17-11.77-3.61-16.08-2.76-3.15-6.37-4.88-9.42-4.52-3.63,.43-8.94-6.7-14.57-14.25-5.19-6.95-10.56-14.15-14.51-15.23-7.99-2.19-11.31,2.27-11.45,2.46l-.24,.33-.24-.33c-.14-.19-3.46-4.65-11.45-2.46-3.95,1.08-9.32,8.27-14.51,15.23-5.64,7.55-10.96,14.68-14.57,14.25-3.05-.36-6.66,1.37-9.42,4.52-3.78,4.31-5.1,10.17-3.61,16.08,.54,2.13,1.15,4.31,1.75,6.42,2.97,10.53,5.77,20.47-1.13,23.2-1.98,.78-3.25,2.66-3.77,5.57-1.24,6.94,2.36,18.35,7.12,22.61,3.04,2.72,3.64,6.61,4.33,11.12,.81,5.29,1.82,11.88,7.27,18.78,3.65,4.61,10.1,9.38,19.18,14.16,.41,.24,9.75,5.88,10.54,15.96,.48,6.13-.82,7.71-1.6,8.65-.49,.59-.67,.81-.12,1.92,1.49,2.98,4.78,22.79-.77,41.16-3.13,10.36-5.02,12.16-6.04,13.13-.66,.63-.84,.8-.68,3.58,.39,6.79,6.32,10.28,7.87,10.6,1.13,.24,1.43,1.95,1.71,3.6,.24,1.38,.51,2.94,1.23,3.02,.82,.09,1.46,.67,2.19,1.35,1.11,1.02,2.37,2.19,4.68,2.01Z"/><ellipse class="f" cx="67.79" cy="89.11" rx="44.89" ry="66.96"/><path class="i" d="M69.08,22.15c-.21,0-.43,0-.64,.01,24.5,.51,44.25,30.29,44.25,66.95s-19.75,66.43-44.25,66.95c.21,0,.43,.01,.64,.01,24.79,0,44.89-29.98,44.89-66.96S93.87,22.15,69.08,22.15Z"/><path class="h" d="M67.79,22.15c-.16,0-.31,0-.47,0,24.58,.38,44.42,30.2,44.42,66.95s-19.85,66.57-44.42,66.95c.16,0,.31,0,.47,0,24.79,0,44.89-29.98,44.89-66.96S92.59,22.15,67.79,22.15Z"/><path class="i" d="M22.9,89.11c0-36.51,19.59-66.19,43.95-66.94-.31,0-.63-.02-.94-.02-24.79,0-44.89,29.98-44.89,66.96s20.1,66.96,44.89,66.96c.31,0,.63,0,.94-.02-24.36-.75-43.95-30.43-43.95-66.94Z"/><path class="h" d="M24.98,90c0-36.98,20.1-66.96,44.89-66.96,3.94,0,7.75,.76,11.39,2.18-4.25-1.99-8.77-3.07-13.47-3.07-24.79,0-44.89,29.98-44.89,66.96,0,31.11,14.23,57.26,33.5,64.78-18.21-8.53-31.43-33.91-31.43-63.89Z"/><path class="k" d="M85.33,27.46L25.54,66.46c-1.7,7.07-2.64,14.7-2.64,22.65,0,6.87,.7,13.51,1.99,19.75L106.64,55.53c-4.86-12.47-12.33-22.39-21.31-28.07Z"/><path class="k" d="M34.33,133.74l78.16-50.99c-.41-6.46-1.43-12.66-2.99-18.46L27.26,117.94c1.85,5.77,4.24,11.08,7.06,15.8Z"/><path class="j" d="M67,13.51s-2.97-2.91-8.57-2.32c-5.6,.59-11.64,7.86-10.49,7.75,1.15-.11,5.97-5.64,13.87-5.34,5.17,.19,6.19,.89,5.19-.09Z"/><path class="j" d="M27.09,41.13s-4.03-1.16-9.07,4.18c-5.04,5.34-3.93,15.94-2.34,20.17,1.59,4.23-1.63-11.53,4.45-17.98,5.6-5.94,8.62-5.86,6.96-6.37Z"/><path class="j" d="M60.28,216.66c0-.5,2.13,11.93-.1,18.06-2.22,6.13-6.25,8.7-5.22,13.1,1.04,4.4,6.45,9.99,5.17,9.94-1.29-.05-7.19-2.2-8.48-5.61-1.29-3.41-2.13-6.33-.3-8.01,1.83-1.68,8.78-13.93,8.92-27.48Z"/><path class="j" d="M16.73,90.08s-.94,.9-2.37,1.49-3.3,3.62-3.4,6.98c-.1,3.36,.84,11.01,4.18,16.14,2.51,3.86,4.67,4.77,5.61,7.19,.94,2.42,1.8,8.45,1.95,9,.15,.54-.1-8.8-.59-11.52-.49-2.72-7.07-8.04-7.86-15.03-1.33-11.82,4.15-15.25,2.48-14.26Z"/><path class="j" d="M45.84,149.92s9.65,9.67,21.95,9.45c12.31-.22,18.01-8.1,18.01-8.1,0,0-16.38,12.84-39.96-1.35Z"/></g></g></g></g></svg>