<?xml version="1.0" encoding="UTF-8"?><svg xmlns="http://www.w3.org/2000/svg" viewBox="0 0 150.38 219.78"><defs><style>.b{opacity:.66;}.b,.c,.d,.e{mix-blend-mode:multiply;}.f{fill:#a85a00;}.g{fill:#fff;}.h{fill:#db7b0d;}.i{opacity:.5;}.j{fill:#c27005;}.k{fill:#ffd880;}.l{fill:#e2810e;}.m{isolation:isolate;}.n{opacity:.65;}.o,.d{opacity:.35;}.p{fill:#ffc533;}.c{opacity:.57;}.q{fill:#212121;}.r{fill:#353535;}.s{fill:#efad1b;}</style></defs><g class="m"><g id="a"><g><path class="i" d="M39.84,214.35c-16.22,0-29.42-13.2-29.42-29.42V109.24c0-11.05,6.29-21.16,15.97-26.16v-22.51c0-27.65,22.49-50.14,50.14-50.14h.74c27.65,0,50.14,22.49,50.14,50.14v21.77c10.48,4.66,17.53,15.23,17.53,26.9v75.69c0,16.22-13.2,29.42-29.42,29.42H39.84ZM100.56,79.82v-19.25c0-12.83-10.44-23.28-23.28-23.28h-.74c-12.83,0-23.28,10.44-23.28,23.28v19.25h47.3Z"/><path class="g" d="M34.84,209.35c-16.22,0-29.42-13.2-29.42-29.42V104.24c0-11.05,6.29-21.16,15.97-26.16v-22.51c0-27.65,22.49-50.14,50.14-50.14h.74c27.65,0,50.14,22.49,50.14,50.14v21.77c10.48,4.66,17.53,15.23,17.53,26.9v75.69c0,16.22-13.2,29.42-29.42,29.42H34.84ZM95.56,74.82v-19.25c0-12.83-10.44-23.28-23.28-23.28h-.74c-12.83,0-23.28,10.44-23.28,23.28v19.25h47.3Z"/><g><g><path class="j" d="M108.99,109.54H34.83c-4.15,0-7.51-3.36-7.51-7.51V55.57c0-24.38,19.84-44.22,44.22-44.22h.74c24.38,0,44.22,19.84,44.22,44.22v46.46c0,4.15-3.36,7.51-7.51,7.51Zm-66.65-15.02h59.14V55.57c0-16.1-13.1-29.2-29.2-29.2h-.74c-16.1,0-29.2,13.1-29.2,29.2v38.95Z"/><path class="f" d="M108.99,110.46H34.83c-4.65,0-8.43-3.78-8.43-8.43V55.57c0-24.89,20.25-45.14,45.14-45.14h.74c24.89,0,45.14,20.25,45.14,45.14v46.46c0,4.65-3.78,8.43-8.43,8.43ZM71.54,12.27c-23.87,0-43.3,19.42-43.3,43.3v46.46c0,3.63,2.95,6.58,6.58,6.58H108.99c3.63,0,6.58-2.95,6.58-6.58V55.57c0-23.87-19.42-43.3-43.3-43.3h-.74Zm29.94,83.17H42.34c-.51,0-.92-.41-.92-.92V55.57c0-16.61,13.51-30.13,30.13-30.13h.74c16.61,0,30.13,13.51,30.13,30.13v38.95c0,.51-.41,.92-.92,.92Zm-58.22-1.85h57.3V55.57c0-15.59-12.69-28.28-28.28-28.28h-.74c-15.59,0-28.28,12.69-28.28,28.28v38.03Z"/></g><g class="d"><path class="j" d="M116.49,54.48c0-.12,0-.25-.01-.37,0-.24-.02-.48-.03-.72,0-.14-.02-.29-.03-.43-.01-.22-.02-.43-.04-.64-.01-.16-.03-.31-.04-.47-.02-.2-.03-.4-.05-.6-.02-.16-.03-.32-.05-.48-.02-.19-.04-.39-.06-.58-.02-.16-.04-.32-.06-.49-.03-.19-.05-.38-.08-.57-.02-.16-.05-.33-.08-.49-.03-.19-.06-.37-.09-.56-.03-.16-.06-.33-.09-.49-.03-.18-.07-.37-.1-.55-.03-.17-.07-.33-.1-.5-.04-.18-.07-.36-.11-.54-.04-.17-.08-.33-.12-.5-.04-.17-.08-.35-.12-.52-.04-.17-.08-.33-.13-.5-.04-.17-.09-.34-.13-.51-.05-.17-.09-.33-.14-.5-.05-.17-.1-.34-.15-.5-.05-.17-.1-.33-.15-.5-.05-.16-.1-.33-.16-.49-.05-.17-.11-.33-.17-.5-.05-.16-.11-.32-.17-.48-.06-.17-.12-.33-.18-.5-.06-.16-.12-.32-.17-.47-.06-.17-.13-.33-.19-.5-.06-.15-.12-.31-.18-.46-.07-.17-.14-.33-.21-.5-.06-.15-.13-.3-.19-.45-.07-.17-.14-.33-.22-.5-.07-.15-.13-.29-.2-.44-.08-.17-.15-.33-.23-.5-.07-.14-.14-.29-.21-.43-.08-.17-.16-.33-.25-.5-.07-.14-.14-.28-.21-.42-.09-.17-.17-.33-.26-.49-.07-.14-.15-.27-.22-.41-.09-.17-.18-.33-.27-.49-.07-.13-.15-.26-.22-.39-.1-.17-.19-.33-.29-.49-.08-.13-.15-.25-.23-.38-.1-.17-.2-.33-.31-.5-.08-.12-.15-.24-.23-.36-.11-.17-.21-.33-.32-.5-.08-.12-.16-.23-.23-.35-.11-.17-.22-.33-.34-.5-.08-.11-.16-.22-.23-.33-.12-.17-.24-.33-.36-.5-.08-.11-.15-.21-.23-.32-.12-.17-.25-.34-.38-.5-.08-.1-.15-.2-.23-.3-.13-.17-.26-.34-.4-.51-.07-.09-.15-.18-.22-.27-.14-.17-.28-.34-.42-.52-.07-.08-.14-.17-.21-.25-.15-.18-.3-.35-.45-.52-.07-.08-.13-.15-.2-.22-.16-.18-.32-.36-.48-.53-.06-.06-.12-.13-.18-.19-.17-.18-.34-.37-.52-.55-.05-.05-.1-.1-.15-.16-.19-.19-.37-.38-.56-.57-.04-.04-.07-.07-.11-.11-.21-.2-.41-.4-.62-.6l-.05-.05c-3.14-2.97-6.71-5.48-10.62-7.44l-.03-.02c-.28-.14-.57-.28-.86-.42l-.07-.03c-.28-.13-.56-.26-.84-.39-.03-.01-.06-.03-.09-.04-.28-.12-.56-.24-.83-.36-.04-.02-.07-.03-.11-.05-.27-.11-.55-.23-.83-.33-.04-.02-.08-.03-.13-.05-.27-.11-.55-.21-.83-.31-.05-.02-.09-.03-.14-.05-.27-.1-.55-.19-.83-.29-.05-.02-.1-.03-.15-.05-.27-.09-.55-.18-.83-.27-.05-.02-.11-.03-.16-.05-.27-.08-.55-.17-.83-.25-.06-.02-.11-.03-.17-.05-.27-.08-.55-.15-.83-.23-.06-.02-.12-.03-.18-.05-.28-.07-.55-.14-.83-.21-.06-.01-.12-.03-.18-.04-.28-.06-.56-.13-.84-.19-.06-.01-.12-.03-.19-.04-.28-.06-.56-.11-.84-.17-.06-.01-.13-.02-.19-.04-.28-.05-.56-.1-.85-.15-.06-.01-.13-.02-.19-.03-.28-.04-.57-.09-.85-.13-.06,0-.13-.02-.19-.03-.28-.04-.57-.07-.86-.11-.06,0-.13-.01-.19-.02-.29-.03-.58-.06-.86-.09-.03,0-.05,0-.08,0h0c-.58-.05-1.16-.09-1.74-.12v.31c-21.73,2.78-38.58,21.38-38.58,43.86v46.46c0,4.15,3.36,7.51,7.51,7.51H108.99c4.15,0,7.51-3.36,7.51-7.51V55.57c0-.37,0-.73-.01-1.09Zm-6.47,40.05H42.34V55.57c0-16.1,13.1-29.2,29.2-29.2h.74c.98,0,1.96,.05,2.92,.15h.07c.27,.04,.55,.07,.82,.1,14.31,1.87,25.39,14.14,25.39,28.95v37.68h8.53v1.27Z"/></g><g class="n"><path class="h" d="M32.27,69.91c-.77,0-1.39-.62-1.39-1.39v-11.78c0-.77,.62-1.39,1.39-1.39s1.39,.62,1.39,1.39v11.78c0,.77-.62,1.39-1.39,1.39Z"/></g><g class="n"><path class="h" d="M32.27,52.01c-.76,0-1.38-.61-1.39-1.37,0-.43-.02-10.57,9.1-21.47,.49-.59,1.37-.66,1.95-.17,.59,.49,.66,1.37,.17,1.95-8.47,10.12-8.46,19.56-8.46,19.66,0,.77-.6,1.39-1.37,1.4h-.02Z"/></g><g class="d"><path class="j" d="M27.32,71.3v15.85l5.75,2.1,9.26,3.69v-16.86c-7.53-1.55-12.32-3.45-15.02-4.78Z"/><path class="j" d="M116.5,71.28c-2.68,1.33-7.47,3.24-15.02,4.79v18.45H46.32l11.59,4.62,33.62,1.85,24.97-12.86v-16.85Z"/></g><g><rect class="p" x="11.35" y="80.75" width="122.68" height="122.68" rx="23.49" ry="23.49"/><path class="s" d="M110.54,204.35H34.84c-13.46,0-24.42-10.95-24.42-24.42V104.24c0-13.46,10.95-24.42,24.42-24.42H110.54c13.46,0,24.42,10.95,24.42,24.42v75.69c0,13.46-10.95,24.42-24.42,24.42ZM34.84,81.67c-12.44,0-22.57,10.12-22.57,22.57v75.69c0,12.44,10.12,22.57,22.57,22.57H110.54c12.44,0,22.57-10.12,22.57-22.57V104.24c0-12.44-10.12-22.57-22.57-22.57H34.84Z"/></g><g class="b"><rect class="p" x="25.56" y="94.96" width="94.26" height="94.26" rx="18.05" ry="18.05"/><path class="s" d="M101.77,190.14H43.61c-10.46,0-18.98-8.51-18.98-18.98v-58.16c0-10.46,8.51-18.98,18.98-18.98h58.16c10.46,0,18.98,8.51,18.98,18.98v58.16c0,10.46-8.51,18.98-18.98,18.98ZM43.61,95.88c-9.44,0-17.13,7.68-17.13,17.13v58.16c0,9.44,7.68,17.13,17.13,17.13h58.16c9.44,0,17.13-7.68,17.13-17.13v-58.16c0-9.44-7.68-17.13-17.13-17.13H43.61Z"/></g><path class="l" d="M101.77,94.96h-5.75c-.96,2.45-1.49,5.12-1.49,7.91,0,11.93,9.67,21.6,21.6,21.6,1.26,0,2.5-.11,3.7-.32v-11.15c0-9.97-8.08-18.05-18.05-18.05Z"/><path class="l" d="M29.4,161.73c-1.31,0-2.59,.12-3.84,.34v9.1c0,9.97,8.08,18.05,18.05,18.05h6.58c.53-1.87,.81-3.85,.81-5.89,0-11.93-9.67-21.6-21.6-21.6Z"/><path class="l" d="M119.82,162.04c-1.2-.21-2.44-.32-3.7-.32-11.93,0-21.6,9.67-21.6,21.6,0,2.04,.28,4.02,.81,5.89h6.43c9.97,0,18.05-8.08,18.05-18.05v-9.13Z"/><path class="l" d="M25.56,113.01v11.12c1.25,.22,2.53,.34,3.84,.34,11.93,0,21.6-9.67,21.6-21.6,0-2.79-.53-5.46-1.49-7.91h-5.9c-9.97,0-18.05,8.08-18.05,18.05Z"/><g><circle class="p" cx="116.13" cy="102.87" r="5.89"/><path class="s" d="M116.13,109.68c-3.76,0-6.82-3.06-6.82-6.82s3.06-6.82,6.82-6.82,6.82,3.06,6.82,6.82-3.06,6.82-6.82,6.82Zm0-11.78c-2.74,0-4.97,2.23-4.97,4.97s2.23,4.97,4.97,4.97,4.97-2.23,4.97-4.97-2.23-4.97-4.97-4.97Z"/></g><g><circle class="p" cx="29.4" cy="183.33" r="5.89" transform="translate(-151.22 140.33) rotate(-67.5)"/><path class="s" d="M29.4,190.14c-3.76,0-6.82-3.06-6.82-6.82s3.06-6.82,6.82-6.82,6.82,3.06,6.82,6.82-3.06,6.82-6.82,6.82Zm0-11.78c-2.74,0-4.97,2.23-4.97,4.97s2.23,4.97,4.97,4.97,4.97-2.23,4.97-4.97-2.23-4.97-4.97-4.97Z"/></g><g><circle class="p" cx="116.13" cy="183.33" r="5.89" transform="translate(-95.62 135.81) rotate(-45)"/><path class="s" d="M116.13,190.14c-3.76,0-6.82-3.06-6.82-6.82s3.06-6.82,6.82-6.82,6.82,3.06,6.82,6.82-3.06,6.82-6.82,6.82Zm0-11.78c-2.74,0-4.97,2.23-4.97,4.97s2.23,4.97,4.97,4.97,4.97-2.23,4.97-4.97-2.23-4.97-4.97-4.97Z"/></g><g><path class="p" d="M79.98,139.83c-.16-.76,.12-1.53,.74-2.02,3.31-2.61,5.16-6.68,4.94-10.89-.34-6.69-5.86-12.1-12.56-12.31-7.36-.23-13.41,5.69-13.41,12.99,0,3.99,1.79,7.7,4.92,10.18,.64,.51,.94,1.3,.78,2.05l-4.27,19.93c-.58,2.69,.04,5.56,1.61,7.5,1.2,1.48,2.83,2.3,4.6,2.3h10.72c1.76,0,3.4-.82,4.6-2.3,1.57-1.94,2.18-4.82,1.61-7.5l-4.27-19.93Z"/><path class="s" d="M78.05,170.49h-10.72c-2.05,0-3.94-.94-5.31-2.64-1.74-2.15-2.43-5.32-1.79-8.28l4.27-19.93c.09-.41-.09-.84-.45-1.13-3.35-2.66-5.27-6.63-5.27-10.91,0-7.82,6.49-14.16,14.37-13.91,7.18,.23,13.09,6.02,13.46,13.19,.23,4.51-1.75,8.87-5.3,11.66-.34,.27-.5,.69-.41,1.1l4.27,19.93c.63,2.95-.05,6.13-1.79,8.28-1.38,1.7-3.27,2.64-5.31,2.64Zm-5.35-54.96c-6.66,0-12.08,5.42-12.08,12.07,0,3.7,1.67,7.15,4.57,9.46,.92,.73,1.35,1.87,1.11,2.97l-4.27,19.93c-.52,2.42,.03,5,1.42,6.73,1.02,1.26,2.4,1.96,3.88,1.96h10.72c1.48,0,2.86-.7,3.88-1.96,1.4-1.73,1.94-4.31,1.42-6.73l-4.27-19.93c-.24-1.1,.18-2.23,1.08-2.94,3.08-2.42,4.79-6.2,4.59-10.11-.32-6.22-5.44-11.24-11.67-11.44-.13,0-.26,0-.38,0Z"/></g><g><circle class="p" cx="29.4" cy="102.87" r="5.89"/><path class="s" d="M29.4,109.68c-3.76,0-6.82-3.06-6.82-6.82s3.06-6.82,6.82-6.82,6.82,3.06,6.82,6.82-3.06,6.82-6.82,6.82Zm0-11.78c-2.74,0-4.97,2.23-4.97,4.97s2.23,4.97,4.97,4.97,4.97-2.23,4.97-4.97-2.23-4.97-4.97-4.97Z"/></g><g><path class="r" d="M78,134.97c2.11-1.66,3.42-4.28,3.27-7.2-.23-4.43-3.87-8-8.3-8.14-4.87-.15-8.87,3.75-8.87,8.59,0,2.73,1.27,5.16,3.25,6.73,1.49,1.18,2.22,3.09,1.82,4.95l-3.85,19.58c-.54,2.51,.74,5.06,2.54,5.06h9.66c1.8,0,3.08-2.55,2.54-5.06l-3.85-19.58c-.4-1.85,.31-3.76,1.79-4.93Z"/><path class="q" d="M77.52,165.47h-9.66c-.91,0-1.78-.45-2.43-1.26-1.01-1.24-1.39-3.13-1.01-4.92l3.85-19.57c.33-1.52-.25-3.06-1.49-4.05-2.29-1.82-3.6-4.53-3.6-7.45,0-5.35,4.43-9.68,9.82-9.51,4.91,.15,8.95,4.11,9.2,9.01,.16,3.08-1.2,6.07-3.62,7.97-1.22,.96-1.78,2.5-1.46,4.01l3.86,19.6c.38,1.77,0,3.66-1.01,4.9-.66,.81-1.52,1.26-2.43,1.26Zm-4.83-44.91c-4.23,0-7.67,3.44-7.67,7.67,0,2.35,1.06,4.54,2.9,6.01,1.8,1.42,2.62,3.67,2.15,5.87l-3.85,19.57c-.26,1.23,0,2.59,.64,3.38,.21,.26,.55,.57,.99,.57h9.66c.44,0,.78-.31,.99-.57,.64-.8,.9-2.15,.64-3.37l-3.86-19.6c-.47-2.19,.35-4.43,2.13-5.83,1.95-1.54,3.04-3.94,2.92-6.43-.2-3.95-3.45-7.14-7.41-7.26-.08,0-.17,0-.25,0Z"/></g><g class="e"><path class="r" d="M68.61,164.54c.3-5.07,2.28-31.22,11.11-41.23-1.51-2.15-3.98-3.59-6.76-3.67-4.87-.15-8.87,3.75-8.87,8.59,0,2.73,1.27,5.16,3.25,6.73,1.49,1.18,2.22,3.09,1.82,4.95l-3.85,19.58c-.54,2.51,.74,5.06,2.54,5.06h.76Z"/></g><g class="c"><path class="p" d="M34.84,203.43H110.54c12.97,0,23.49-10.52,23.49-23.49v-13.62c-81.04,.74-122.68-60.09-122.68-60.09v73.71c0,12.97,10.52,23.49,23.49,23.49Z"/></g><g class="o"><path class="k" d="M30.44,151.99c-.01,2.14-1.75,3.86-3.89,3.85-2.14-.01-3.86-1.75-3.85-3.89,.01-2.14,1.75-3.86,3.89-3.85,2.14,.01,3.86,1.75,3.85,3.89Z"/></g></g></g></g></g></svg>