<?xml version="1.0" encoding="utf-8"?>
<!-- Generator: Adobe Illustrator 26.2.1, SVG Export Plug-In . SVG Version: 6.00 Build 0)  -->
<svg version="1.1" id="Layer_1" xmlns="http://www.w3.org/2000/svg" xmlns:xlink="http://www.w3.org/1999/xlink" x="0px" y="0px"
	 viewBox="0 0 316.6 254" style="enable-background:new 0 0 316.6 254;" xml:space="preserve">
<style type="text/css">
	.st0{opacity:0.5;enable-background:new    ;}
	.st1{fill:#FFFFFF;}
	.st2{fill:url(#SVGID_1_);}
	.st3{fill:#888F9C;}
	.st4{fill:#9AA2B0;}
	.st5{fill:#C3CBD9;}
	.st6{fill:#A3ABBA;}
	.st7{fill:#AAB3C2;}
	.st8{fill:#7C838F;}
	.st9{fill:#9DA3AA;}
	.st10{fill:#B6BFCF;}
	.st11{fill:#E8E8E8;}
	.st12{fill:#818894;}
	.st13{fill:#CBD7E8;}
	.st14{fill:#C9C9C9;}
	.st15{fill:#8E97A5;}
	.st16{fill:url(#SVGID_00000043419419188377439630000004941932565034317746_);}
	.st17{opacity:0.2;fill:#FAFFC5;}
	.st18{opacity:0.2;}
	.st19{fill:#FAFFC5;}
	.st20{opacity:0.5;fill:#DBEDFC;}
	.st21{fill:#EDF7FF;}
	.st22{fill:#9FD3FC;}
	.st23{fill:#8DCCFC;}
	.st24{fill:#CCD945;}
	.st25{fill:#A7B339;}
	.st26{fill:#B1BD3C;}
	.st27{fill:#81C6FC;}
</style>
<g>
	<path class="st0" d="M219.1,249c-5.6,0-11.6-0.2-17.9-0.7c-20.8-1.5-32.8-5.1-41.5-7.7c-0.9-0.3-1.8-0.5-2.6-0.8
		c-5.6-1.6-9.5-2.5-14.1-2.5c-3.7,0-7.6,0.6-12.4,1.8c-0.9,0.2-1.8,0.5-2.9,0.8c-3.4,0.9-7.6,2.1-12.7,3.1
		c-6.6,1.3-13.1,1.9-19.7,1.9c-1.7,0-3.4,0-5.1-0.1c-11.6-0.6-20.4-2.9-24.6-4.2c-9.3-2.9-13.1-6-12.8-10.2
		c0.4-5.3,5.8-5.8,11.1-6.2c1.1-0.1,2.2-0.2,3.4-0.3c4.6-0.5,6.2-1.2,6.7-1.6c-0.1-0.4-0.5-1.5-1.8-3.1c-1.5-2-3.2-3.5-3.4-3.7
		c-3.3-3-6.6-4.2-10.9-4.2c-2.6,0-5.3,0.4-8.2,0.9c-3.2,0.5-6.5,1-9.9,1c-6.8,0-12.7-2.2-17.9-6.8c-1.3-1.1-2.4-2.3-3.4-3.4
		c-1.2-1.4-2.2-2.8-3.1-4.3c-1-1.7-1.9-3.7-2.7-5.7c-1.5-4-2.4-8.1-2.6-12.2c0-0.3-0.1-2.7,0.3-6.3c0.5-4.9,1.7-9.6,3.6-14
		c0.1-0.3,0.3-0.7,0.4-1c0.1-0.3,0.2-0.6,0.4-0.8l3.7-16.9c0.1-0.6,0.4-1.3,0.8-1.8l8.7-13c0.9-1.4,2.5-2.2,4.1-2.2
		c0.3,0,0.6,0,0.9,0.1l12.4,1.8c1.4,0.2,2.7,1,3.5,2.1l4,5.9l13.9-16c1-1.1,2.3-1.7,3.8-1.7c0.1,0,0.2,0,0.2,0c0.7,0,1.4,0.2,2,0.5
		l1.5-13.6l-0.2-20.6l-3.2-11.1c-0.2-0.8-0.2-1.6-0.1-2.3l6.5-31c0.1-0.5,0.3-1,0.6-1.5l8.8-14.7c0.5-0.8,1.1-1.4,1.9-1.8l8-4.6
		c0.7-0.4,1.5-0.6,2.4-0.6h2.4l8-3.5c0.6-0.3,1.3-0.4,2-0.4c0.9,0,1.8,0.2,2.5,0.7l8.1,4.8l10.5-5c0.7-0.3,1.4-0.5,2.1-0.5h11.9
		c0.6,0,1.1,0.1,1.7,0.3c0.8-0.3,1.7-0.4,2.5-0.4c2.3,0,4.2,1,5.6,1.8l0.4,0.2c0.9,0.5,1.5,0.8,2,0.8c0.2,0,0.5-0.1,0.8-0.2l0.3-0.1
		c0.7-0.2,1.7-0.6,2.9-0.9c0.8-0.1,1.6-0.2,2.3-0.2c1.4,0,2.7,0.2,4,0.7c0.9,0.3,1.5,0.6,1.9,0.9c0.8,0.2,1.5,0.4,2.1,0.6
		c0.1,0,0.2,0,0.3,0c0.4,0,0.8,0,1.2-0.1c0.9-0.2,1.4-0.5,1.8-0.8l0.3-0.2c0.8-0.6,2.2-1.5,4.2-1.5h0.1c0.8-0.5,1.8-0.9,2.8-0.9
		c0.4,0,0.7,0,1.1,0.1l9.6,2.1c0.4,0.1,0.8,0.2,1.1,0.4l1.5-1.3c0.7-0.6,1.5-1,2.4-1.2l7.8-1.5c0.3-0.1,0.6-0.1,1-0.1
		c1.6,0,3.1,0.8,4.1,2.1l2.4,3.4h3.9c0.8,0,1.6,0.2,2.3,0.5l9.6,4.9c1.3,0.6,2.2,1.8,2.6,3.2l2.2,8.2l6.8,12.5
		c0.3,0.6,0.5,1.3,0.6,2l1.6,19.8c0,0.3,0,0.5,0,0.8l-1.1,13.9l4.9,4.8c1,0.9,1.5,2.2,1.5,3.6v12.9l5.9,7.2c0.5,0.6,0.9,1.3,1,2.1
		l4.4,20.5l16.7,11.9c0.7-0.3,1.4-0.5,2.1-0.5c0.6,0,1.3,0.1,1.9,0.4l4.6,1.9c1.5,0.6,2.6,1.8,3,3.4l3.8,14.5c1,3.5-1.2,6.4-2.3,7.8
		l-0.1,0.1c1.7,1,4.5,2.1,6.3,2.9l0.3,0.1c6.8,2.8,13.8,5.8,14.2,11.9c0.4,6.8-7.8,11.1-17.6,15.5c-0.8,0.3-1.5,0.7-2.3,1
		c3.4,0.7,6.6,2.3,7.5,6.2c1.1,4.5-2.1,9.7-9.9,16.3c-5.9,5-13.7,10-21.4,13.8c-4.7,2.3-11.4,5.2-22.1,7.2
		C238,248.3,229,249,219.1,249z"/>
	<path class="st1" d="M214.1,244c-5.6,0-11.6-0.2-17.9-0.7c-20.8-1.5-32.8-5.1-41.5-7.7c-0.9-0.3-1.8-0.5-2.6-0.8
		c-5.6-1.6-9.5-2.5-14.1-2.5c-3.7,0-7.6,0.6-12.4,1.8c-0.9,0.2-1.8,0.5-2.9,0.8c-3.4,0.9-7.6,2.1-12.7,3.1
		c-6.6,1.3-13.1,1.9-19.7,1.9c-1.7,0-3.4,0-5.1-0.1c-11.6-0.6-20.4-2.9-24.6-4.2c-9.3-2.9-13.1-6-12.8-10.2
		c0.4-5.3,5.8-5.8,11.1-6.2c1.1-0.1,2.2-0.2,3.4-0.3c4.6-0.5,6.2-1.2,6.7-1.6c-0.1-0.4-0.5-1.5-1.8-3.1c-1.5-2-3.2-3.5-3.4-3.7
		c-3.3-3-6.6-4.2-10.9-4.2c-2.6,0-5.3,0.4-8.2,0.9c-3.2,0.5-6.5,1-9.9,1c-6.8,0-12.7-2.2-17.9-6.8c-1.3-1.1-2.4-2.3-3.4-3.4
		c-1.2-1.4-2.2-2.8-3.1-4.3c-1-1.7-1.9-3.7-2.7-5.7c-1.5-4-2.4-8.1-2.6-12.2c0-0.3-0.1-2.7,0.3-6.3c0.5-4.9,1.7-9.6,3.6-14
		c0.1-0.3,0.3-0.7,0.4-1c0.1-0.3,0.2-0.6,0.4-0.8l3.7-16.9c0.1-0.6,0.4-1.3,0.8-1.8l8.7-13c0.9-1.4,2.5-2.2,4.1-2.2
		c0.3,0,0.6,0,0.9,0.1l12.4,1.8c1.4,0.2,2.7,1,3.5,2.1l4,5.9l13.9-16c1-1.1,2.3-1.7,3.8-1.7c0.1,0,0.2,0,0.2,0c0.7,0,1.4,0.2,2,0.5
		l1.5-13.6l-0.2-20.6l-3.2-11.1c-0.2-0.8-0.2-1.6-0.1-2.3l6.5-31c0.1-0.5,0.3-1,0.6-1.5l8.8-14.7c0.5-0.8,1.1-1.4,1.9-1.8l8-4.6
		c0.7-0.4,1.5-0.6,2.4-0.6h2.4l8-3.5c0.6-0.3,1.3-0.4,2-0.4c0.9,0,1.8,0.2,2.5,0.7l8.1,4.8l10.5-5c0.7-0.3,1.4-0.5,2.1-0.5h11.9
		c0.6,0,1.1,0.1,1.7,0.3c0.8-0.3,1.7-0.4,2.5-0.4c2.3,0,4.2,1,5.6,1.8l0.4,0.2c0.9,0.5,1.5,0.8,2,0.8c0.2,0,0.5-0.1,0.8-0.2l0.3-0.1
		c0.7-0.2,1.7-0.6,2.9-0.9c0.8-0.1,1.6-0.2,2.3-0.2c1.4,0,2.7,0.2,4,0.7c0.9,0.3,1.5,0.6,1.9,0.9c0.8,0.2,1.5,0.4,2.1,0.6
		c0.1,0,0.2,0,0.3,0c0.4,0,0.8,0,1.2-0.1c0.9-0.2,1.4-0.5,1.8-0.8l0.3-0.2c0.8-0.6,2.2-1.5,4.2-1.5h0.1c0.8-0.5,1.8-0.9,2.8-0.9
		c0.4,0,0.7,0,1.1,0.1l9.6,2.1c0.4,0.1,0.8,0.2,1.1,0.4l1.5-1.3c0.7-0.6,1.5-1,2.4-1.2l7.8-1.5c0.3-0.1,0.6-0.1,1-0.1
		c1.6,0,3.1,0.8,4.1,2.1l2.4,3.4h3.9c0.8,0,1.6,0.2,2.3,0.5l9.6,4.9c1.3,0.6,2.2,1.8,2.6,3.2l2.2,8.2l6.8,12.5
		c0.3,0.6,0.5,1.3,0.6,2l1.6,19.8c0,0.3,0,0.5,0,0.8l-1.1,13.9l4.9,4.8c1,0.9,1.5,2.2,1.5,3.6v12.9l5.9,7.2c0.5,0.6,0.9,1.3,1,2.1
		l4.4,20.5l16.7,11.9c0.7-0.3,1.4-0.5,2.1-0.5c0.6,0,1.3,0.1,1.9,0.4l4.6,1.9c1.5,0.6,2.6,1.8,3,3.4l3.8,14.5c1,3.5-1.2,6.4-2.3,7.8
		l-0.1,0.1c1.7,1,4.5,2.1,6.3,2.9l0.3,0.1c6.8,2.8,13.8,5.8,14.2,11.9c0.4,6.8-7.8,11.1-17.6,15.5c-0.8,0.3-1.5,0.7-2.3,1
		c3.4,0.7,6.6,2.3,7.5,6.2c1.1,4.5-2.1,9.7-9.9,16.3c-5.9,5-13.7,10-21.4,13.8c-4.7,2.3-11.4,5.2-22.1,7.2
		C233,243.3,224,244,214.1,244z"/>
	<g>
		
			<linearGradient id="SVGID_1_" gradientUnits="userSpaceOnUse" x1="156.044" y1="130.0127" x2="156.044" y2="6.4324" gradientTransform="matrix(1 0 0 -1 0 256)">
			<stop  offset="0" style="stop-color:#B4EDFC"/>
			<stop  offset="1" style="stop-color:#0094EF"/>
		</linearGradient>
		<path class="st2" d="M272.3,201.2c0.2,1.5,4.2,1.4,8.2,1.6c4.1,0.2,8.2,0.6,8.8,2.9c0.6,2.5-2.8,6.7-8.2,11.3
			c-5.4,4.6-12.9,9.5-20.4,13.2c-4.3,2.1-10.7,4.9-20.8,6.7c-10.1,1.9-24,2.8-43.3,1.4c-22.4-1.7-33.9-5.6-43.1-8.3
			c-9.2-2.7-16.1-4.1-29.1-0.8c-3.7,1-8.8,2.5-15.2,3.8c-6.5,1.2-14.4,2.1-23.6,1.7c-9.3-0.4-17.5-2.1-23.4-4s-9.4-3.9-9.3-5.1
			c0.1-1.4,5-1.4,10.1-1.9c5.1-0.6,10.3-1.7,11.1-5.3c0.5-2.3-1-5.1-2.7-7.3c-1.7-2.3-3.7-4-4.1-4.4c-7.8-7-15.5-5.7-23.3-4.5
			c-7.8,1.3-15.6,2.5-23.7-4.6c-1-0.9-2-1.9-2.9-2.9c-0.9-1.1-1.8-2.2-2.5-3.6c-0.3-0.5-1.3-2.3-2.3-5s-2-6.4-2.3-10.7
			c0,0-0.1-2.1,0.2-5.5c0.4-3.3,1.2-7.8,3.2-12.6c0.1-0.3,0.2-0.6,0.4-0.9c0.1-0.3,0.3-0.6,0.4-0.9c0,0,0-0.1,0.1-0.1
			c0,0,0-0.1,0.1-0.1l0,0l0,0c0.2-0.5,0.5-0.9,0.8-1.4s0.6-0.9,0.9-1.3c6.5-8.6,22.5-12.8,40.9-14.8s39.1-1.8,55.2-1.5
			c17.9,0.3,35.8,2.4,53.7,4s35.8,2.7,53.6,0.7c0,0,4.2-0.5,12.6,0.5c8.4,1,21,3.3,38,9c0.8,0.3,2.8,1,5,2c2.2,1.1,4.7,2.5,6.2,4.2
			c0.5,0.6,0.9,1.3,1.2,1.9c0.3,0.6,0.4,1.1,0.4,1.1c0.1,0.2,0.1,0.3,0.2,0.4c0,0.1,0.1,0.2,0.1,0.2c0.3,1.1-0.5,2.3-1.4,3.5
			s-2,2.5-2,3.6c-0.2,2.7,5.2,4.8,10.6,7.1s10.9,4.6,11.1,7.6c0.2,3.6-7.2,7.3-14.7,10.7C279.4,196.1,272,199.1,272.3,201.2z"/>
		<path class="st3" d="M246.9,108l-3.6-4.3l-3.6-4.3l0,0l0,0V92v-7.3l-3.3-3.2l-3.3-3.2l0.7-8.1l0.7-8.1L229,41.3l-5.5-20.8
			l-4.8-2.4l-4.8-2.4h-3.2h-3.2l-2-2.8l-2-2.8l-3.9,0.8l-3.9,0.8l-2.8,2.6l-2.8,2.6l-0.7-1.5l-0.7-1.5l-4.8-1.1l-4.8-1.1l-0.7,1.3
			l-0.7,1.3l0,0l0,0l0,0l0,0c-0.6-0.1-1,0.1-1.7,0.5c-0.7,0.3-1.6,0.8-3.3,1c-2,0.3-3.4,0-4.9-0.5c-1.4-0.5-2.9-1-5.1-1.2
			c-3.1-0.2-4.6,0.1-6,0.4c-1.4,0.3-2.8,0.6-5.7,0.4h-0.1h-0.1c-0.1,0-0.3,0-0.4,0c-0.1,0-0.3,0-0.4,0h-0.1h-0.1c-0.1,0-0.2,0-0.3,0
			s-0.2,0-0.3,0h-0.1H149c-0.1,0-0.2,0-0.4-0.1c-0.1,0-0.2,0-0.3-0.1c-0.1,0-0.2,0-0.2,0c-0.1,0-0.1,0-0.2,0c-0.1,0-0.1,0-0.2,0
			c-0.1,0-0.1,0-0.2,0c-0.1,0-0.2,0-0.3-0.1c-0.1,0-0.2,0-0.3-0.1c-0.1,0-0.1,0-0.2,0c-0.1,0-0.1,0-0.2,0c-0.1,0-0.1,0-0.2,0
			c-0.1,0-0.1,0-0.2,0c-0.1,0-0.2,0-0.3,0s-0.2,0-0.3,0c-0.2,0-0.5-0.1-0.7-0.1s-0.4,0-0.6,0h-0.1H144h-0.1h-0.1c0,0,0,0-0.1,0
			c0,0,0,0-0.1,0s-0.1,0-0.2,0c-0.1,0-0.1,0-0.2,0h-0.1H143h-0.1c0,0,0,0-0.1,0c0,0,0,0-0.1,0c0,0,0,0-0.1,0c0,0,0,0-0.1,0
			c0,0,0,0-0.1,0l-0.6-1.4l-0.6-1.4h-6h-6l-6.5,3.1l-6.5,3.1l-5.1-3l-5.1-3l-0.1-0.1l-0.1-0.1l-3,1.3l-3,1.3l-1.5,0.7l-1.5,0.7l0,0
			l0,0h-1.7h-1.7l-0.1,0.1l-0.1,0.1L91.7,17l-2.3,1.3l-1.6,0.9l-1.6,0.9l0,0l0,0l-4.4,7.3l-4.4,7.3v0.2v0.2l-0.6,3.1L76,41.4
			l-2.5,12.1L71,65.6l8.6-10.1l8.6-10.1l-8.6,10.2L71,65.8l1.7,5.9l1.7,5.9l0.1,10.8l0.1,10.8l-1.3,11.3L72,121.8v5.7v5.7l2.5,0.8
			l2.5,0.8l2.8-4.5l2.8-4.5l0,0l0,0v0.1v0.1l2.8-2.7l2.8-2.7l0.1-1.2l0.1-1.2l0,0l0,0l7.9-6.7l7.9-6.7l2.6,2.7l2.6,2.7l0.9,0.9
			l0.9,0.9l1,1.1l1,1l-0.4-2.1l-0.4-2.1l-0.3-1.6l-0.3-1.6h1.2h1.2l6,0.1l6,0.1l0.1,1.7l0.1,1.7v-0.7v-0.7l0.1-0.7l0.1-0.7l2.7,3
			l2.7,3c0.1,1.4,0.2,2.8,0.3,4.3c0.1,1.4,0.2,2.9,0.3,4.3c0,0.4,0.1,0.7,0.1,1.1s0.1,0.7,0.1,1.1c0.1,1.1,0.2,2.1,0.3,3.2
			s0.2,2.1,0.3,3.2c0.1,0.7,0.1,1.4,0.2,2.1c0.1,0.7,0.1,1.4,0.2,2c0,0.2,0,0.4,0.1,0.6c0,0.2,0,0.4,0.1,0.6c0,0.3,0.1,0.6,0.1,1
			c0,0.3,0.1,0.6,0.1,1c0,0.1,0,0.3,0,0.4c0,0.1,0,0.3,0,0.4c0.1,0.6,0.1,1.2,0.2,1.8c0.1,0.6,0.1,1.2,0.2,1.7
			c0,0.3,0.1,0.5,0.1,0.8s0.1,0.5,0.1,0.8l0,0l0,0c0,0.2,0,0.4,0.1,0.6c0,0.2,0,0.4,0.1,0.6c0,0.1,0,0.2,0,0.3s0,0.2,0,0.3
			s0,0.1,0,0.2c0,0.1,0,0.1,0,0.2c0,0.2,0.1,0.5,0.1,0.7s0.1,0.5,0.1,0.7c0,0,0,0,0,0.1c0,0,0,0,0,0.1c0,0.2,0,0.4,0.1,0.6
			c0,0.2,0,0.4,0.1,0.6c0,0.1,0,0.2,0,0.3s0,0.2,0,0.3c0.1,0.5,0.1,1.1,0.2,1.6c0.1,0.5,0.1,1,0.2,1.5c0.1,0.4,0.1,0.7,0.1,1.1
			c0.1,0.4,0.1,0.7,0.1,1l22.9,0.4l22.9,0.4c0.1-1.9,0.3-3.9,0.4-5.8c0.1-1.9,0.2-3.8,0.4-5.6c0.1-1,0.1-2,0.2-3c0.1-1,0.1-2,0.2-3
			l0,0l0,0l0,0l0,0l6.4-3.5l6.4-3.5l7.6-3.8l7.6-3.8l2.4,0.6l2.4,0.6l2.8,0.7l2.8,0.7h0.1h0.1l1.2,0.3l1.2,0.3l2.1,0.5l2.1,0.5
			l2.2-1.8l2.2-1.8l0.4-0.3l0.4-0.3l3.1,0.6l3.1,0.6l2.3,1.8l2.3,1.8h1.9h1.9l1.7,1.2l1.7,1.2l-2.4-11.3L246.9,108z"/>
		<polygon class="st4" points="92.8,32.7 92.7,33.4 92.7,34.1 92.5,37.3 92.2,40.6 92.2,40.6 92.2,40.6 92.2,40.7 92.2,40.7 
			91.7,48.5 91.2,56.3 90.7,63.2 90.2,70.2 90.7,82.8 91.2,95.5 90.5,100.8 89.9,106.2 89.2,112.2 88.5,118.2 88.5,118.2 
			88.5,118.2 88.3,119.4 88.2,120.6 85.3,123.3 82.5,126 82.5,125.9 82.5,125.8 82.5,125.8 82.5,125.8 82.5,125.8 82.5,125.8 
			82.7,124.1 82.9,122.5 82.9,122.5 82.9,122.5 83.5,118 84,113.5 84.2,112.5 84.3,111.5 84.3,111.5 84.3,111.5 85.2,103.7 
			86.2,95.9 85.2,84.7 84.2,73.5 86.2,59.4 88.2,45.4 88.2,45.4 88.2,45.4 90.5,39 		"/>
		<polygon class="st5" points="95.8,40.6 94.3,40.7 92.9,40.7 92.8,40.7 92.6,40.7 92.4,40.7 92.2,40.7 92.2,40.8 92.1,40.8 
			84,41.1 76,41.4 76.6,38.3 77.3,35.2 77.3,35 77.4,34.8 81.8,27.5 86.2,20.1 86.2,20.1 86.2,20.1 87.8,19.2 89.4,18.3 91.2,24.4 
			92.9,30.6 93.3,31.8 93.6,33 94.7,36.8 		"/>
		<polygon class="st5" points="96.9,15.5 95.3,24.3 93.6,33 92.9,36.8 92.3,40.5 92.2,40.6 92.2,40.6 92.2,40.5 92.2,40.5 
			89.2,30.3 86.2,20.1 87.8,19.2 89.4,18.3 91.7,17 93.9,15.7 94.1,15.6 94.2,15.5 95.5,15.5 		"/>
		<polygon class="st6" points="84.2,73.5 85.2,84.7 86.2,95.9 80.3,97.5 74.4,99.1 74.3,88.3 74.3,77.5 79.2,75.5 		"/>
		<polygon class="st7" points="95,41.5 93.8,41.1 92.6,40.7 92.4,40.7 92.2,40.6 92.2,40.7 92.1,40.8 81.5,53.2 70.9,65.7 
			73.4,53.5 76,41.4 76.6,38.3 77.3,35.2 84.7,37.8 92.2,40.5 92.2,40.5 92.2,40.5 92.2,40.5 92.3,40.5 92.6,40.6 92.9,40.7 
			93.9,41.1 		"/>
		<polygon class="st7" points="107.2,77.5 99.2,66.9 91.2,56.3 91.7,48.5 92.2,40.7 92.2,40.7 92.2,40.6 92.2,40.6 92.2,40.5 
			92.6,35.5 92.9,30.6 93.4,23.1 93.9,15.7 94.1,15.6 94.2,15.5 95.9,15.5 97.5,15.5 97.6,15.5 97.6,15.5 99.1,14.8 100.6,14.2 
			103.9,45.8 		"/>
		<polygon class="st7" points="116.9,17.7 113.2,32 109.4,46.3 108,28.9 106.5,11.5 106.5,11.5 106.5,11.5 106.6,11.6 106.7,11.6 
			111.8,14.6 		"/>
		<polygon class="st4" points="82.9,122.5 82.9,123.8 82.9,125.1 82.7,125.5 82.5,125.8 82.5,125.8 82.5,125.8 82.5,125.8 
			82.5,125.8 79.7,130.3 76.8,134.7 74.4,133.9 71.9,133.1 71.9,127.4 71.9,121.7 74.6,121.9 77.2,122.1 80.1,122.3 		"/>
		<polygon class="st7" points="74.3,77.5 79.2,75.5 84.2,73.5 88.2,57.1 92.1,40.8 81.5,53.2 70.9,65.7 72.6,71.6 		"/>
		<polygon class="st6" points="74.4,99.1 73.1,110.4 71.9,121.7 77.4,122.1 82.9,122.5 84.6,109.2 86.2,95.9 80.3,97.5 		"/>
		<polygon class="st7" points="104.4,104.7 96.4,111.4 88.5,118.2 88.5,118.2 88.5,118.2 89.2,112.2 89.9,106.2 90.5,100.8 
			91.2,95.5 93.8,96.8 96.5,98.1 98,98.8 99.5,99.6 101.9,102.1 		"/>
		<polygon class="st7" points="113.3,114.1 112.3,113 111.3,112 110.4,111 109.5,110.1 106.9,107.4 104.4,104.7 101.9,102.1 
			99.5,99.6 100.5,96.6 101.5,93.7 103.6,87.9 105.6,82.2 106.4,79.8 107.2,77.5 108.6,85.6 109.9,93.7 110,94.4 110.1,95 
			111.1,100.8 112.1,106.6 112.3,108.2 112.6,109.8 113,111.9 		"/>
		<polygon class="st8" points="79.1,66.3 78.1,71.3 77.1,76.4 78.6,81.9 80.2,87.4 79.6,81.5 79.1,75.6 79.1,70.9 		"/>
		<polygon class="st5" points="79.5,75.4 79.3,70.9 79.1,66.3 78.7,71.1 78.4,75.9 79.3,81.7 80.2,87.4 79.8,81.4 		"/>
		<polygon class="st6" points="84.2,73.5 82.6,85.5 81,97.5 82.7,104.5 84.3,111.5 85.2,103.7 86.2,95.9 85.2,84.7 		"/>
		<polygon class="st7" points="91.2,56.3 90.7,63.2 90.2,70.2 98.7,73.8 107.2,77.5 99.2,66.9 		"/>
		<polygon class="st7" points="90.2,70.2 90.7,82.8 91.2,95.5 95.3,97.5 99.5,99.6 103.4,88.5 107.2,77.5 98.7,73.8 		"/>
		<polygon class="st9" points="97.6,15.5 94.9,28.1 92.2,40.7 84.7,38 77.3,35.2 81.7,27.7 86.2,20.1 90.2,17.8 94.2,15.5 
			95.9,15.5 		"/>
		<polygon class="st7" points="106.5,11.5 102.1,13.5 97.6,15.5 94.9,28.1 92.2,40.7 100.1,34.4 107.9,28.1 107.2,19.8 		"/>
		<polygon class="st7" points="107.9,28.1 105.2,30.2 102.5,32.4 104.8,54.9 107.2,77.5 108.3,61.9 109.4,46.3 108.7,37.2 		"/>
		<polygon class="st5" points="106.5,11.5 102.1,13.5 97.6,15.5 94.9,28.1 92.2,40.7 104.6,29.2 116.9,17.7 116.9,17.7 116.9,17.7 
			111.7,14.6 		"/>
		<polygon class="st10" points="201.3,86.3 198.7,108.6 196.2,130.9 192.7,133.8 189.3,136.7 186.4,137.8 183.4,138.9 183.4,138.9 
			183.4,138.9 183.4,138.9 183.4,138.9 178.3,141.2 173.3,143.5 176.5,116.8 179.8,90.1 180.5,90 181.2,89.8 183.1,89.5 185,89.2 
			186.1,89 187.1,88.8 194.2,87.5 		"/>
		<polygon class="st11" points="116.2,98.2 116.6,100.4 116.9,102.6 115.7,104.6 114.5,106.6 113.6,108.2 112.6,109.8 112,110.9 
			111.3,112 110.7,113 110.1,114.1 109.8,112.1 109.5,110.1 108.4,101.9 107.2,93.7 106.4,87.9 105.6,82.2 105.3,80.4 105,78.6 
			105.1,77.6 105.2,76.6 105.3,75.8 105.3,75 105.7,70.7 106,66.4 106.9,56.1 107.7,45.8 108.4,43.8 109.1,41.8 113,29.7 
			116.9,17.7 114.5,39.2 112,60.8 111.7,63.5 111.4,66.3 112.9,76.4 114.5,86.6 115.4,92.4 		"/>
		<polygon class="st10" points="122.8,44.5 116.1,45.4 109.4,46.3 109.1,51.3 108.7,56.3 117.2,67.8 125.6,79.3 124.2,61.9 		"/>
		<polygon class="st5" points="141.8,11.5 132.3,28 122.8,44.5 124.8,77.4 126.8,110.2 128.4,81.4 130,52.5 135.9,32 		"/>
		<polygon class="st7" points="141.8,11.5 134.9,31 128.1,50.4 127.5,75.8 127,101.2 126.8,104 126.6,106.8 126.7,107 126.9,107.2 
			126.9,108 126.9,108.7 126.9,108 127,107.3 131.6,109.4 136.2,111.5 136.1,82.5 136,53.5 140,35.1 144.1,16.7 142.9,14.1 		"/>
		<polygon class="st10" points="108.7,56.3 108,66.9 107.2,77.5 108.6,86.3 110.1,95.1 115.7,84.3 121.2,73.4 115,64.9 		"/>
		<polygon class="st10" points="187.1,31 183.4,24.3 179.8,17.7 181.6,55.1 183.4,92.5 192.3,89.4 201.3,86.3 197.8,58.6 194.3,31 
			190.7,31 		"/>
		<polygon class="st5" points="188.7,13.7 183.9,12.6 179.1,11.5 178.5,12.8 177.8,14.1 182.5,22.5 187.1,31 190.7,31 194.3,31 
			192.2,23.9 190.1,16.7 189.4,15.2 		"/>
		<polygon class="st7" points="187.1,31 187.1,61.1 187.1,91.2 185.3,114.6 183.4,137.9 183.4,137.8 183.4,137.6 182.3,113.7 
			181.2,89.8 179.5,52 177.8,14.1 178.5,12.8 179.1,11.5 183.1,21.2 		"/>
		<polygon class="st5" points="129.8,11.5 123.4,14.6 116.9,17.7 113.2,32 109.4,46.3 116.1,45.4 122.8,44.5 132.3,28 141.8,11.5 
			135.8,11.5 		"/>
		<polygon class="st10" points="126.6,106.8 120.5,106.7 114.5,106.6 113.3,106.6 112.1,106.6 112,106.6 112,106.6 111,100.8 
			110.1,95.1 110.1,95.1 110.1,95 110.5,94.4 110.8,93.7 112.6,90.1 114.5,86.6 117.9,80 121.2,73.4 123,75.8 124.8,78.3 
			125.5,88.3 126.1,98.2 126.3,102.5 		"/>
		<g>
			<g>
				<polygon class="st5" points="51.1,155.3 32.7,155.3 14.4,155.3 14.4,155.2 14.4,155.2 16.3,146.5 18.2,137.9 18.2,137.8 
					18.2,137.7 22.7,131.2 27.1,124.8 27.1,124.8 27.2,124.8 27.7,124.8 28.3,124.9 33.9,125.7 39.5,126.6 39.7,126.6 39.8,126.6 
					39.9,126.8 40,126.9 43.6,132.2 47.2,137.4 47.9,138.4 48.6,139.5 48.7,139.5 48.7,139.6 49.9,147.3 51,155 51,155.2 				"/>
				<polygon class="st4" points="30.7,138.6 34.2,135.5 37.7,132.4 38.1,133.4 38.5,134.3 38.8,134.8 39,135.3 41.4,140.7 
					43.8,146.2 44.4,150.7 45,155.3 39.1,155.3 33.2,155.3 31.9,147 				"/>
				<path class="st12" d="M51,155c-0.1,0-0.2,0.1-0.3,0.1s-0.2,0.1-0.3,0.1h-2.8h-2.8c-0.2-1.2-0.4-2.9-0.6-4.5
					c-0.2-1.7-0.4-3.3-0.5-4.6c-0.1-0.7-0.1-1.2-0.2-1.6c0-0.4-0.1-0.6-0.1-0.6l1.9-3.3l1.9-3.3l0.7,1l0.7,1v0.1v0.1l1.2,7.7L51,155
					z"/>
				<polygon class="st3" points="48.6,139.5 46.2,142.9 43.8,146.3 43.8,146.2 43.8,146.2 41.4,140.9 39,135.7 38.7,135.2 
					38.5,134.7 39,130.6 39.5,126.6 39.7,126.6 39.8,126.6 39.9,126.8 40,126.9 43.6,132.2 47.2,137.4 47.9,138.4 				"/>
				<polygon class="st5" points="30.7,138.6 24.4,138.3 18.2,137.9 18.2,137.8 18.2,137.7 22.7,131.2 27.1,124.8 27.1,124.8 
					27.2,124.8 27.7,124.8 28.3,124.9 29.5,131.8 				"/>
				<polygon class="st7" points="40,126.9 39.5,131.3 39,135.7 38.9,135.8 38.9,135.9 34.8,137.2 30.7,138.6 28.9,131.7 27.2,124.8 
					33.3,125.7 39.5,126.6 39.7,126.6 39.8,126.6 39.9,126.8 				"/>
				<polygon class="st10" points="33.8,155.3 24.1,155.3 14.4,155.3 14.4,155.2 14.4,155.2 22.5,146.9 30.7,138.6 32.2,147 				"/>
			</g>
			<polygon class="st4" points="43.5,145.6 40.5,145.6 37.5,145.6 40.3,150.4 43.1,155.3 48.5,155.3 53.8,155.3 48.6,150.4 			"/>
			<polygon class="st4" points="108.3,143.3 105.4,149.3 102.6,155.3 95.7,155.3 88.7,155.3 94.9,141.6 101.1,127.9 104.7,135.6 			
				"/>
			<polygon class="st7" points="127,129.3 124,142.3 121,155.3 110.5,155.3 100.1,155.3 101.1,149.4 102.1,143.5 101.6,135.7 
				101.1,127.9 102.4,118.7 103.7,109.4 113.3,112.3 123,115.1 125,122.2 			"/>
			<polygon class="st4" points="155.7,155.3 137.4,155.3 119.1,155.3 120.9,137.6 122.8,119.9 131.5,114.1 140.3,108.3 142,111.1 
				143.8,113.9 143.8,113.9 143.8,114 149.1,125.8 154.4,137.5 155.1,146.4 			"/>
			<polygon class="st10" points="143.8,113.9 133.3,116.9 122.8,119.9 113.7,115.4 104.6,110.8 104.1,103.7 103.7,96.6 107.4,96.6 
				111.1,96.6 113,98.9 115,101.1 115,101.1 115,101.2 125.5,101.2 135.9,101.2 139.8,107.5 			"/>
			<polygon class="st10" points="103.4,96.6 102.2,112.3 101.1,127.9 97.9,135.1 94.6,142.2 87.9,142.8 81.2,143.3 77.5,135.9 
				73.8,128.4 80,120.6 86.2,112.7 92.8,104.7 99.4,96.6 101.4,96.6 			"/>
			<polygon class="st8" points="110.5,103.5 107.5,107.2 104.6,110.8 102.8,119.4 101.1,127.9 101.6,118 102.1,108.1 105.1,105.2 
				108.2,102.3 109.3,102.9 			"/>
			<polygon class="st7" points="115,101.1 108.5,104.6 102.1,108.1 100.8,102.3 99.5,96.6 105.3,96.6 111.1,96.6 113,98.9 			"/>
			<polygon class="st3" points="154.7,142.1 136.9,148.7 119.1,155.3 131.5,134.6 143.8,114 149.1,125.8 154.4,137.5 154.4,137.5 
				154.4,137.5 154.6,139.8 			"/>
			<polygon class="st12" points="155.7,155.3 137.4,155.3 119.1,155.3 136.7,146.4 154.4,137.5 154.4,137.5 154.4,137.5 
				155.1,146.4 			"/>
			<polygon class="st7" points="73.8,128.4 87.5,128.2 101.1,127.9 94.9,141.6 88.7,155.3 83.2,155.3 77.8,155.3 75.8,141.9 			"/>
			<polygon class="st10" points="102.1,143.5 103.3,127.1 104.6,110.8 102.8,119.4 101.1,127.9 101.6,135.7 			"/>
			<polygon class="st8" points="65.6,116.9 63.5,125.8 61.3,134.6 63.1,140.5 64.8,146.4 64.5,140.1 64.1,133.7 67.7,129.2 
				71.2,124.8 68.4,120.8 			"/>
			<polygon class="st10" points="45.5,140 53.4,137.3 61.3,134.6 63.5,125.8 65.6,116.9 55.6,128.5 			"/>
			<polygon class="st7" points="61.3,134.6 53.4,137.3 45.5,140 49.7,147.7 53.8,155.3 58.4,155.3 62.9,155.3 63.9,150.9 
				64.8,146.4 63.1,140.5 			"/>
			<polygon class="st10" points="71.2,124.8 67.7,129.2 64.1,133.7 69,131.1 73.8,128.4 72.5,126.6 			"/>
			<polygon class="st4" points="73.8,128.4 75.8,141.9 77.8,155.3 71.3,150.9 64.8,146.4 64.5,140.1 64.1,133.7 69,131.1 			"/>
			<polygon class="st3" points="64.8,146.4 63.9,150.9 62.9,155.3 70.3,155.3 77.8,155.3 71.3,150.9 			"/>
			<polygon class="st8" points="64.8,146.4 63.9,150.9 62.9,155.3 64.8,155.3 66.7,155.3 65.8,150.9 			"/>
			<polygon class="st10" points="33.9,140 35.7,142.8 37.5,145.6 40.5,145.6 43.5,145.6 44.5,142.8 45.5,140 39.7,140 			"/>
			<polygon class="st5" points="33.9,140 31.3,147.7 28.6,155.3 33.1,150.4 37.5,145.6 35.7,142.8 			"/>
			<polygon class="st8" points="45.5,140 44.5,142.8 43.5,145.6 48.6,150.4 53.8,155.3 49.7,147.7 			"/>
			<polygon class="st7" points="37.5,145.6 40.3,150.4 43.1,155.3 35.9,155.3 28.6,155.3 33.1,150.4 37.5,145.6 			"/>
			<polygon class="st8" points="53.5,137.3 54.4,135.5 55.2,133.7 55,135.3 54.7,136.9 55.8,146.1 56.8,155.3 55.2,146.3 			"/>
			<polygon class="st13" points="103.7,108.5 102.4,118.2 101.1,127.9 102.8,119.4 104.6,110.8 107.5,107.2 110.5,103.5 107.1,106 
							"/>
			<polygon class="st13" points="55.2,133.7 55.2,135.2 55.2,136.7 56,146 56.8,155.3 55.7,146.1 54.6,136.9 54.9,135.3 			"/>
		</g>
		<g>
			<polygon class="st14" points="154.7,142.1 154.7,142.1 154.7,142.1 154.6,139.8 154.4,137.5 149.1,125.8 143.8,114 143.8,113.9 
				143.8,113.9 139.8,107.5 135.9,101.2 125.5,101.2 115,101.2 115,101.1 115,101.1 113,98.9 111.1,96.6 107.4,96.6 103.7,96.6 
				103.6,96.6 103.4,96.6 101.4,96.6 99.5,96.6 99.5,96.6 99.4,96.6 92.8,104.7 86.2,112.7 80,120.6 73.8,128.4 72.5,126.6 
				71.2,124.8 67.7,129.2 64.1,133.7 64.5,140.1 64.8,146.4 71.3,150.9 77.8,155.3 83.2,155.3 88.7,155.3 94.8,141.9 100.9,128.4 
				101,128.2 101.1,127.9 101.1,127.9 101.1,127.9 94.9,141.6 88.7,155.3 94.4,155.3 100.1,155.3 101.3,155.3 102.6,155.3 
				110.8,155.3 119.1,155.3 120,155.3 121,155.3 138.4,155.3 155.7,155.3 155.2,148.7 			"/>
			<polygon class="st14" points="71.2,124.8 68.4,120.8 65.6,116.9 56.6,127.4 47.5,137.8 47.4,137.6 47.2,137.4 46.9,136.9 
				46.5,136.3 43.3,131.6 40,126.9 39.9,126.8 39.8,126.6 39.8,126.6 39.8,126.6 39.8,126.6 39.8,126.6 39.7,126.6 39.7,126.6 
				39.6,126.6 39.5,126.6 33.5,125.7 27.5,124.8 27.4,124.8 27.3,124.8 27.3,124.8 27.2,124.8 27.1,124.8 27.1,124.8 22.7,131.2 
				18.2,137.7 18.2,137.8 18.2,137.8 18.2,137.8 18.2,137.9 18.2,137.9 18.2,137.9 18.2,137.9 18.2,137.9 16.3,146.5 14.4,155.2 
				14.4,155.2 14.4,155.3 21.5,155.3 28.6,155.3 28.6,155.3 28.6,155.3 35.9,155.3 43.1,155.3 43.1,155.3 43.1,155.3 48.5,155.3 
				53.8,155.3 58.4,155.3 62.9,155.3 64.8,155.3 66.7,155.3 72.2,155.3 77.8,155.3 71.3,150.9 64.8,146.4 64.5,140.1 64.1,133.7 
				67.7,129.2 			"/>
		</g>
		<polygon class="st6" points="120.4,44.8 124.3,40 128.1,35.2 125.5,39.9 122.8,44.5 123.3,52.4 123.7,60.4 122.1,52.6 		"/>
		<polygon class="st13" points="128.1,35.2 125.5,39.9 122.8,44.5 123.3,52.4 123.7,60.4 123.6,52.8 123.4,45.2 125.8,40.2 		"/>
		<polygon class="st5" points="207.5,15.5 205.6,12.8 203.6,10 199.7,10.8 195.8,11.5 192.9,14.1 190.1,16.7 192.6,23.9 195,31 
			202.5,30.1 210,29.2 208.8,22.4 		"/>
		<polygon class="st10" points="210,29.2 202.5,30.1 195,31 198.1,58.6 201.3,86.3 198.7,108.6 196.2,130.9 203.8,127.1 
			211.4,123.3 213.4,103 215.3,82.7 212.7,55.9 		"/>
		<polygon class="st7" points="190.1,16.7 194.8,23.6 199.5,30.4 200.4,58.4 201.3,86.3 197.8,58.6 194.3,31 192.2,23.9 		"/>
		<polygon class="st3" points="197.7,31 193.9,23.9 190.1,16.7 192.2,23.9 194.3,31 197.8,58.6 201.3,86.3 199.5,58.6 		"/>
		<polygon class="st5" points="223.6,20.4 218.8,18 214,15.5 210.8,15.5 207.5,15.5 208.8,22.4 210,29.2 215.4,30.9 220.8,32.5 
			223.3,30.9 225.9,29.2 224.7,24.8 		"/>
		<polygon class="st10" points="220.8,32.5 215.4,30.9 210,29.2 212.7,55.9 215.3,82.7 213.4,103 211.4,123.3 215.7,127.1 
			220,130.9 221.7,106.2 223.3,81.4 222,57 		"/>
		<polygon class="st10" points="225.9,29.2 223.3,30.9 220.8,32.5 222,57 223.3,81.4 221.7,106.2 220,130.9 224.4,130.9 
			228.9,130.9 231.7,96.5 234.5,62 230.2,45.6 		"/>
		<polygon class="st5" points="233.2,78.3 232.5,86.7 231.8,95.2 233.4,98.6 235,102.1 237.4,100.8 239.8,99.4 239.8,92 239.8,84.7 
			236.5,81.5 		"/>
		<polygon class="st7" points="235,102.1 233.4,98.6 231.8,95.2 230.5,111.1 229.2,127.1 232.9,131.4 236.7,135.7 235.9,118.9 		"/>
		<polygon class="st7" points="235,102.1 235.2,105.5 235.4,108.8 241.1,108.4 246.9,108 243.4,103.7 239.8,99.4 		"/>
		<polygon class="st7" points="246.9,108 241.1,108.4 235.4,108.8 236,120.6 236.6,132.5 244.1,131.6 251.7,130.7 249.3,119.3 		"/>
		<polygon class="st15" points="210,29.2 204.8,29.8 199.5,30.4 200.4,58.4 201.3,86.3 201.3,109.9 201.3,133.5 206.4,128.4 
			211.4,123.3 213.4,103 215.3,82.7 212.7,55.9 		"/>
		<polygon class="st4" points="220.8,32.5 221.7,50.8 222.7,69 224.3,49.1 225.9,29.2 223.3,30.9 		"/>
		<polygon class="st5" points="232.9,42.2 229.4,35.7 225.9,29.2 224.6,44.8 223.4,60.4 225.6,62.5 227.8,64.6 231.2,63.3 234.5,62 
			233.7,52.1 		"/>
		<polygon class="st3" points="229.6,55.9 228.7,60.2 227.8,64.6 228.7,73.6 229.6,82.6 229.4,73.3 229.2,64 229.4,60 		"/>
		<polygon class="st13" points="229.6,55.9 229.4,60 229.2,64 229.4,73.1 229.6,82.2 229.8,73 229.9,63.8 229.8,59.8 		"/>
		<polygon class="st4" points="222.7,69 223,74.5 223.4,80.1 221.4,104.4 219.4,128.8 221.4,129.3 223.4,129.7 223.8,104.9 
			224.2,80.1 223.4,74.5 		"/>
		<polygon class="st3" points="210,29.2 208.8,22.4 207.5,15.5 209.8,22.7 212.1,29.9 211.8,37.4 211.6,44.9 210.8,37.1 		"/>
		<polygon class="st7" points="207.5,15.5 210.2,22.8 212.9,30.1 212.2,37.5 211.6,44.9 211.8,37.6 212.1,30.2 209.8,22.9 		"/>
		<g>
			<polygon class="st7" points="283.3,160.3 227.7,160.3 172.1,160.3 173.3,157.8 174.5,155.3 174.5,151.9 174.5,148.5 178,143.7 
				181.6,138.9 185,137.7 188.3,136.4 190.8,134 193.3,131.5 194.3,131 195.2,130.5 199.5,128.4 203.7,126.3 204.9,125.7 
				206.2,125.1 208.5,123.9 210.7,122.8 213.2,123.4 215.7,124 218.5,124.7 221.2,125.4 221.4,125.4 221.5,125.5 222.7,125.8 
				223.9,126.1 226,126.6 228.2,127.1 230.4,125.3 232.6,123.4 233,123.1 233.3,122.8 236.5,123.4 239.7,124 242,125.9 244.2,127.8 
				246.1,127.8 248,127.8 249.8,129 251.5,130.3 262.2,137.8 272.8,145.4 273.9,144.6 275,143.9 277.3,144.8 279.5,145.7 281.4,153 
							"/>
			<polygon class="st10" points="228.2,127.1 227.1,143.7 226,160.3 219.3,160.3 212.7,160.3 211.4,151.6 210.1,142.8 219.1,135 			
				"/>
			<polygon class="st5" points="210.7,122.8 202,127.1 193.3,131.5 190.8,134 188.3,136.4 190.1,137.9 191.9,139.4 201,141.1 
				210.1,142.8 219.1,135 228.2,127.1 219.5,125 			"/>
			<polygon class="st5" points="239.7,124 236.5,123.4 233.3,122.8 230.8,125 228.2,127.1 231.2,130.7 234.1,134.3 239.2,131 
				244.2,127.8 242,125.9 			"/>
			<polygon class="st5" points="248,127.8 246.1,127.8 244.2,127.8 246.7,134 249.2,140.2 261,142.8 272.8,145.4 260.4,136.6 			"/>
			<polygon class="st5" points="275,143.9 273.9,144.6 272.8,145.4 273.9,147.7 275.1,150 277.3,147.9 279.5,145.7 277.2,144.8 			
				"/>
			<polygon class="st7" points="234.1,134.3 231.2,130.7 228.2,127.1 227.1,143.7 226,160.3 231.9,160.3 237.8,160.3 235.9,147.3 
							"/>
			<polygon class="st10" points="244.2,127.8 241,144 237.8,160.3 243.5,150.3 249.2,140.2 246.7,134 			"/>
			<polygon class="st10" points="279.5,145.7 277.3,147.9 275.1,150 275.3,155.2 275.6,160.3 279.4,160.3 283.3,160.3 281.4,153 			
				"/>
			<polygon class="st4" points="275.1,150 273.9,147.7 272.8,145.4 272.4,148.1 271.9,150.8 273.8,155.5 275.6,160.3 275.3,155.2 
							"/>
			<polygon class="st10" points="273.3,150.5 273.1,148 272.8,145.4 261,142.8 249.2,140.2 251.6,150.3 254.1,160.3 264.8,160.3 
				275.6,160.3 274.5,155.4 			"/>
			<polygon class="st5" points="188.3,136.4 185,137.7 181.6,138.9 178,143.7 174.5,148.5 179.5,148.1 184.5,147.7 188.2,143.6 
				191.9,139.4 190.1,137.9 			"/>
			<polygon class="st7" points="210.1,142.8 201,141.1 191.9,139.4 188.2,143.6 184.5,147.7 184.9,154 185.3,160.3 199,160.3 
				212.7,160.3 211.4,151.6 			"/>
			<polygon class="st13" points="275.1,150 273.9,147.7 272.8,145.4 273.4,147.7 274,150 274.8,155.2 275.6,160.3 275.3,155.2 			
				"/>
			<polygon class="st4" points="251.6,136.6 252.1,138.8 252.6,141 252.4,146.6 252.1,152.2 253.2,146.8 254.3,141.3 253,139 			"/>
			<polygon class="st13" points="251.6,136.6 252.6,138.9 253.6,141.2 252.9,146.7 252.1,152.2 253.5,146.8 254.9,141.5 253.2,139 
							"/>
			<polygon class="st4" points="234.1,134.3 234.9,139.7 235.6,145.1 235.9,139 236.2,133 237,130.8 237.8,128.6 235.9,131.4 			"/>
			<polygon class="st13" points="237.8,128.6 235.7,131.2 233.7,133.8 234.7,139.5 235.6,145.1 235.2,139.5 234.7,133.9 
				236.2,131.2 			"/>
			<polygon class="st4" points="191.9,139.4 190.1,137.9 188.3,136.4 192.2,138.3 196.1,140.2 194.2,150.3 192.4,160.3 192.2,149.9 
							"/>
		</g>
		<polygon class="st14" points="279.5,145.7 277.7,145 275.9,144.3 275.5,144.1 275,143.9 274.2,144.4 273.5,144.9 273.2,145.2 
			272.8,145.4 263.1,138.5 253.5,131.7 250.8,129.7 248,127.8 246.1,127.8 244.2,127.8 243.6,127.2 242.9,126.7 241.3,125.4 
			239.7,124 236.5,123.4 233.3,122.8 233.3,122.8 233.2,122.9 232.9,123.1 232.6,123.4 230.4,125.3 228.2,127.1 226,126.6 
			223.9,126.1 222.7,125.8 221.5,125.5 221.4,125.4 221.2,125.4 218.5,124.7 215.7,124 213.7,123.5 211.7,123 211.2,122.9 
			210.7,122.8 207.3,124.5 203.8,126.2 203.8,126.3 203.7,126.3 203.7,126.3 203.7,126.3 198.5,128.9 193.4,131.4 193.4,131.4 
			193.3,131.5 193.3,131.5 193.3,131.5 193.3,131.5 193.3,131.5 192.9,131.9 192.4,132.4 190.4,134.4 188.3,136.4 185,137.7 
			181.6,138.9 178,143.7 174.5,148.5 174.5,151.9 174.5,155.3 173.3,157.8 172.1,160.3 178.7,160.3 185.3,160.3 199,160.3 
			212.7,160.3 219.3,160.3 226,160.3 231.9,160.3 237.8,160.3 245.9,160.3 254.1,160.3 264.8,160.3 275.6,160.3 279.4,160.3 
			283.3,160.3 281.4,153 		"/>
		<g>
			
				<linearGradient id="SVGID_00000142861310988162007530000013691238387377358744_" gradientUnits="userSpaceOnUse" x1="158.95" y1="247.2327" x2="158.95" y2="51.0668" gradientTransform="matrix(1 0 0 -1 0 256)">
				<stop  offset="3.494339e-03" style="stop-color:#6CE3FF"/>
				<stop  offset="1" style="stop-color:#0094EF"/>
			</linearGradient>
			<path style="fill:url(#SVGID_00000142861310988162007530000013691238387377358744_);" d="M188.6,175.1c-0.1,0-0.1,0-0.2,0
				c-0.1,0-0.1,0-0.2,0c-0.4,0-0.8,0.1-1.1,0.1c-0.4,0-0.8,0.1-1.1,0.1h-0.1h-0.1c-0.1,0-0.2,0-0.4,0.1c-0.1,0-0.2,0.1-0.3,0.2
				c-0.1,0.1-0.3,0.3-0.4,0.5c-0.1,0.2-0.2,0.4-0.2,0.7c-3.8,0.3-7.8,0.4-11.8,0.5s-8.1,0.1-12.3,0.1h-0.1h-0.1c-0.3,0-0.6,0-0.9,0
				c-0.3,0-0.6,0-0.9,0c-4.8-0.1-9.5-0.4-14.1-0.7s-9-0.8-13.4-1.3c0-0.1-0.1-0.1-0.1-0.2c0-0.1-0.1-0.1-0.1-0.2
				c-0.1-0.1-0.1-0.2-0.2-0.3c-0.1-0.1-0.1-0.2-0.2-0.3c-0.2-0.2-0.3-0.3-0.5-0.5c-0.2-0.1-0.4-0.3-0.5-0.4c0.2-1.6,0.3-3.2,0.5-4.8
				s0.3-3.2,0.5-4.9c0.4-4.3,0.8-8.6,1.2-13s0.8-8.9,1.1-13.4c0.3-3.3,0.5-6.5,0.7-9.9c0.2-3.3,0.4-6.7,0.7-10.1
				c0.7-11.3,1.2-22.3,1.6-33c0.4-10.6,0.6-20.9,0.6-30.8l0,0l0,0c0.1,0,0.2-9.4,1.2-19.3c1-10,3.1-20.5,7.1-22.6
				c1.8-1,3.3,0.1,5.1,1c1.8,1,3.9,1.9,6.9,0.9c0.6-0.2,1.5-0.6,2.5-0.8c1.1-0.2,2.3-0.2,3.7,0.3c0.6,0.2,0.9,0.4,1.3,0.6
				c0.4,0.2,0.8,0.4,1.5,0.7c0.3,0.1,0.9,0.3,1.8,0.4c0.9,0.1,2.1,0.1,3.4-0.1c1.8-0.3,2.9-1,3.7-1.5s1.3-1,1.9-0.9
				c2.2,0.3,4.4,7.8,6,20.9s2.7,31.6,2.6,53.9c0,11-0.3,17.4-0.5,23.2c-0.2,5.8-0.3,11.1,0,20.1c0.1,3,0.3,6,0.4,8.8
				c0.2,2.9,0.4,5.6,0.6,8.3c0.2,2.3,0.4,4.5,0.6,6.6c0.2,2.1,0.4,4.2,0.6,6.1c0.3,2.8,0.6,5.5,1,7.9
				C188,170.7,188.3,173,188.6,175.1z"/>
			<path class="st17" d="M144,17.7c-0.7,0.9-1.2,2.3-1.6,4.1c-0.3,1.8-0.5,3.9-0.7,6.2c-0.2,3.3-0.2,6.4-0.2,8.6
				c0,2.2,0.2,3.7,0.2,3.7c0.1,0,0-1,0.1-2.6c0-1.7,0.1-4,0.5-6.8c0.3-2.7,0.8-5,1.2-6.6c0.4-1.7,0.7-2.6,0.8-2.6s-0.2,1.2-0.5,3.1
				s-0.6,4.5-0.6,7.5c0,2.9,0.2,5.4,0.5,7.2s0.5,2.9,0.6,2.9s-0.1-0.9-0.2-2.3c-0.1-1.5-0.2-3.5,0-5.8c0.1-1.8,0.4-3.5,0.7-4.8
				s0.6-2.1,0.7-2.1c0.2,0.1,0.3,1.5,0.3,3s0,2.9,0.1,2.9s0.1-1,0.2-2.6c0.1-1.6,0.2-3.8,0.4-6.1c0.1-1.5,0.4-2.7,0.6-3.6
				c0.2-1,0.3-1.7,0-2.5c-0.2-0.4-0.4-0.8-0.7-1.1c-0.3-0.3-0.6-0.4-1-0.5c-0.4,0-0.7,0.1-1,0.3C144.3,17.3,144.1,17.5,144,17.7z"/>
			<path class="st17" d="M149.1,17.3c-0.2,2.5-0.5,3.1-0.8,4.4c-0.3,1.2-0.6,3.1-0.9,8c-0.3,5.1-0.5,14.5-0.5,22.6
				c-0.1,8.1,0,14.9,0.2,14.9c0.1,0,0.1-0.5,0.2-2.4c0.1-1.9,0.2-5.2,0.5-10.6c0,0,0.1-2.5,0.4-6.9c0.3-4.3,0.8-10.4,1.5-17.5
				c0.2-2.4,0.4-4.2,0.6-5.4c0.2-1.2,0.4-1.8,0.6-1.8c0.3,0,0.5,1.1,0.7,2.5c0.2,1.5,0.3,3.3,0.4,4.7c0.1,2.2,0,4-0.1,5.8
				s-0.4,3.7-0.6,6.3c-0.2,2.8-0.4,6-0.5,8.5s-0.1,4.3,0.1,4.4c0.2,0,0.5-1.6,0.9-4s0.9-5.6,1.2-8.8c0.6-5.2,0.9-9.7,1-12.9
				c0.2-3.2,0.2-5.1,0.2-5.1c0.1,0,0.1,4.4,0.1,9.9c0,5.4,0,11.9-0.1,16c-0.1,12.9-0.1,20.3-0.1,24.6c0,4.3,0.1,5.3,0.3,5.3
				c0.3,0,0.7-2.4,1.2-6.2c0.4-3.8,0.9-8.9,1.1-14.1c0.2-4.4,0.1-7.3,0.1-10.7s-0.1-7.3,0.1-13.6c0.1-2.8,0.2-5.9,0.3-8.4
				s0.3-4.2,0.4-4.2c0.1,0,0.2,1.5,0.2,4c0,2.6,0,6.2,0.1,10.6c0,15.5-0.1,27.5-0.1,35.6s0,12.3,0.2,12.3c0.1,0,0.3-1.5,0.4-3.5
				c0.1-2,0.3-4.4,0.4-6.1c0.1-2.2,0.3-5,0.4-8.5c0.1-3.5,0.2-7.6,0.2-12.5c0-2.4,0-3.6-0.1-5.9c0-2.3-0.1-5.7-0.2-12.6
				c-0.1-4.7-0.1-7.6-0.1-9.3c0-1.7,0.1-2.2,0.1-2.3c0.1,0,0.4,1.3,0.6,3.3c0.2,2,0.5,4.7,0.6,7.5c0.2,3.8,0.1,6.9,0.1,9.1
				c-0.1,2.2-0.2,3.5-0.1,3.5c0.1,0,0.4-1.4,0.6-3.7c0.3-2.3,0.5-5.6,0.6-9.2c0.1-3.8,0-6.9-0.1-9.2c-0.1-2.2-0.2-3.5-0.1-3.5
				c0.1,0,0.4,1.3,0.7,3.4s0.5,5.1,0.6,8.3c0.1,2.8,0,5.2-0.1,6.8s-0.2,2.5-0.1,2.6c0.1,0,0.5-1.4,0.8-3.7c0.4-2.3,0.7-5.5,0.7-9.1
				c0-2.8-0.2-4.1-0.6-5.8c-0.4-1.8-0.9-4-1.5-8.7c0-0.2-0.1-0.6-0.2-1c-0.1-0.4-0.3-0.8-0.5-1c-0.4-0.3-0.7-0.2-1.2,0.2
				c-0.5,0.3-1,0.8-1.7,1.2c-0.5,0.2-1.1,0.3-2,0.2s-2-0.3-3.4-0.6c-0.8-0.2-1.4-0.3-1.9-0.3s-0.9,0.2-1.2,0.7
				c-0.2,0.3-0.3,0.7-0.4,1C149.2,16.8,149.1,17.1,149.1,17.3z"/>
			<path class="st17" d="M164.1,15.8c0.2-0.2,0.5,0,0.7,0.2c0.3,0.2,0.6,0.5,1.1,0.4c0.4-0.1,0.6-0.3,0.8-0.5
				c0.2-0.2,0.4-0.5,0.7-0.5c0.5-0.1,0.9,0.3,1.3,0.8c0.4,0.5,0.6,1.1,0.8,1.4c0.9,2,1,6.2,0.7,10.5c-0.2,4.2-0.8,8.5-1,10.5
				c-0.1,0.6-0.2,3.6-0.4,9s-0.4,13.4-0.7,23.9c-0.2,6.2-0.3,10.9-0.4,14.1c-0.1,3.2-0.2,4.8-0.3,4.8s-0.3-1.3-0.4-3
				c-0.1-1.8-0.2-4-0.3-5.9c-0.1-5.3,0-8.6,0.2-11.8c0.2-3.2,0.5-6.3,0.5-11.1c0-4.6-0.1-6.9-0.3-9.4c-0.2-2.4-0.4-4.9-0.3-9.8
				c0-4.5,0.3-8.4,0.6-11.2c0.2-2.8,0.4-4.6,0.3-4.6c-0.1,0-0.4,0.7-0.6,1.9c-0.3,1.2-0.6,2.8-0.8,4.4c-0.6,4.1-0.7,7.3-0.6,10.6
				c0.1,3.2,0.3,6.5,0.4,10.5c0.1,5.6-0.2,10.5-0.5,14c-0.3,3.5-0.7,5.7-0.7,5.7s0-1.2,0.1-3.3c0.1-2.1,0.2-5.1,0.2-8.9
				c0-4.5-0.1-6.7-0.2-8.9c-0.1-2.1-0.2-4.1-0.1-8c0.1-5.2,0.3-7.8,0.4-9.6c0.1-1.8,0.1-2.7-0.3-4.5c-0.6-2.3-0.9-3.9-1-5.3
				c-0.2-1.4-0.2-2.5-0.3-4.1c0-0.2,0-0.7,0-1.2C163.8,16.5,163.9,16,164.1,15.8z"/>
			<path class="st17" d="M171.7,18.6c-0.1,0,0,2.1,0,5.5c0.1,3.4,0.1,8.3-0.1,13.9c-0.2,4.7-0.4,7.7-0.6,10.5
				c-0.3,2.8-0.5,5.4-0.8,9.2c-0.7,9.9-0.5,18.5-0.2,24.7c0.3,6.2,0.8,9.9,0.9,9.9c0,0-0.1-2.5-0.2-6.7c0-4.2,0.1-10,0.7-16.6
				c0.2-2.3,0.5-4.7,0.8-6.6s0.5-3.2,0.7-3.1c0.3,0,0.3,2.5,0.4,5c0,2.5,0,4.9,0.2,4.9c0.1,0,0.3-1.3,0.5-3.5c0.2-2.1,0.4-5,0.4-8.1
				c0.1-3.5-0.1-6-0.3-8.9s-0.6-6.1-1-10.8c-0.5-5.9-0.8-10.7-1-14C171.9,20.4,171.8,18.6,171.7,18.6z"/>
			<path class="st17" d="M173.1,15.6c0.5-0.3,1.3,0.6,2.1,2.2s1.7,3.8,2.3,6.1c1,3.6,1.3,6.7,1.2,10.2c0,3.5-0.4,7.3-0.6,12.2
				c-0.4,8.6-0.1,15.8,0.1,20.8c0.3,5,0.5,7.9,0.2,7.9c-0.2,0-0.6-1.3-0.9-3.3c-0.4-2-0.7-4.8-0.9-7.5c-0.4-5.2-0.1-8.7,0.2-12.1
				c0.3-3.4,0.8-6.8,0.7-11.9c-0.1-5.2-0.6-10-1.3-13.5c-0.6-3.5-1.3-5.7-1.5-5.6s-0.3,1.6-0.3,3.5s0.1,4,0.1,5.2
				c0.1,4.3,0.4,7.9,0.7,10.4c0.2,2.5,0.4,4,0.3,4c-0.1,0-0.4-1.1-0.7-3.1c-0.4-1.9-0.8-4.7-1.2-7.7c-0.3-2-0.8-6.2-1.1-10.1
				C172.4,19.5,172.3,16.1,173.1,15.6z"/>
			<path class="st17" d="M180.6,40.2c0.3,4.7,0.5,8.8,0.6,12.1c0.1,3.2,0.1,5.6,0.1,6.7c0.1,8,0.8,12.5,1.4,16.9
				c0.6,4.4,1.1,8.6,0.7,15.8c-0.1,2.4-0.3,4.7-0.5,6.4c-0.2,1.7-0.4,2.8-0.5,2.7c-0.1,0-0.1-1.5-0.1-4.2s0-6.5-0.2-11.1
				c-0.2-3.6-0.4-6.5-0.5-8.5c-0.2-2-0.3-3-0.3-3s0.2,1.8,0.4,4.8s0.2,7-0.2,11.5c-0.3,2.9-0.7,5.5-1.1,7.4c-0.4,1.9-0.8,3.1-0.9,3
				c-0.2-0.1-0.1-1.5,0.1-4c0.2-2.5,0.4-6.1,0.4-10.6c0-1.5,0-2.6-0.1-4.1c0-1.5-0.1-3.4-0.3-6.5c-0.2-6-0.4-10.5-0.5-13.9
				s-0.2-5.7-0.2-7.3c0-4.8,0.2-9.7,0.4-13.4c0.3-3.7,0.6-6.1,0.8-6.1c0.1,0,0.2,0.2,0.3,1C180.4,36.7,180.5,38,180.6,40.2z"/>
			<path class="st17" d="M175.4,67.9c0.2-0.1,0.7,1.4,1.1,3.5c0.4,2.1,0.9,4.8,1.2,7.2c0.7,6.1,0.6,11.9,0.3,16.1s-0.9,7-1,6.9
				c-0.1,0,0.1-1.2,0.3-3.2c0.1-2,0.2-4.9,0-8.4c-0.3-3.2-0.8-5.8-1.2-8.7c-0.4-2.9-0.8-6-0.9-10.2c0-1.5,0-2.3,0.1-2.7
				C175.3,68,175.3,67.9,175.4,67.9z"/>
			<path class="st17" d="M161.7,50.8c-0.5,4.1-0.6,7.8-0.5,10.7s0.3,5,0.4,5.7c0.8,7.8,1.2,15.1,1.4,20.4s0.2,8.7,0.3,8.7
				c0,0,0.1-0.3,0-1.9c0-1.6-0.1-4.5-0.1-9.9c0-3.8-0.1-7.5-0.2-11.3c-0.1-3.8-0.1-7.5-0.1-11.3c0-5.1,0-9-0.1-11.6
				c0-2.6-0.1-3.9-0.3-3.9s-0.4,0.9-0.5,1.9C161.8,49.3,161.7,50.4,161.7,50.8z"/>
			<path class="st17" d="M140,40.5c-0.1,0-0.2,0.6-0.5,4.4c-0.3,3.8-0.7,10.8-1.6,23.4c-0.4,6.3-0.7,10.9-0.9,15.1
				c-0.2,4.1-0.3,7.8-0.4,12.1c0,0.4,0,4.7,0,8.9c0,4.3,0.2,8.4,0.6,8.5c0.2,0,0.5-1.6,0.7-3.4s0.4-3.7,0.5-4.3
				c0.5-5.4,0.6-9.2,0.5-12.9c-0.1-3.7-0.2-7.2-0.2-11.9c0.1-5.5,0.4-8.2,0.8-11.2c0.4-3,0.7-6.3,0.9-13.1c0.1-3.7,0.1-7.6,0-10.6
				C140.3,42.6,140.2,40.5,140,40.5z"/>
			<path class="st17" d="M131.9,172.6c0-1.7,0-3.8,0-6.2c0.1-2.4,0.2-5.1,0.4-8.1c0.3-4.1,0.8-7.9,1.2-10.7s0.8-4.6,0.9-4.6
				c0.1,0,0,1.4-0.2,3.7s-0.4,5.5-0.4,9.1c0,5.4,0.3,10.2,0.7,13.7s0.8,5.6,0.9,5.5c0.1,0-0.1-1.4-0.2-3.7c-0.1-2.3-0.2-5.6,0.1-9.5
				c0.2-3.7,0.7-7,1.1-9.4c0.4-2.4,0.8-3.8,1-3.8c0.1,0-0.1,1.2-0.2,3.3c-0.2,2.1-0.4,5-0.3,8.4c0.1,4,0.6,7.9,1.2,10.7
				c0.6,2.8,1.2,4.6,1.6,4.6c0.2-0.1,0.4-0.9,0.5-2.1c0.1-1.2,0.1-2.8,0.2-4.2c0.1-2.3,0-3.7,0-5c-0.1-1.2-0.1-2.3,0-3.9
				c0.2-2.1,0.5-4.1,0.9-5.5s0.7-2.2,0.8-2.2c0.1,0.1,0,1-0.1,2.4c-0.2,1.4-0.3,3.4-0.4,5.5c0,4.2,0.5,8,1.2,10.9
				c0.7,2.8,1.4,4.6,1.7,4.4c0.2-0.1,0.2-0.8,0.2-2.2s0-3.5,0.2-6.4c0.2-2.3,0.5-4.5,0.7-6.1c0.3-1.6,0.5-2.6,0.7-2.6
				c0.1,0,0.1,1,0.1,2.6s0,4,0.2,6.8c0.1,1.6,0.3,4,0.7,6c0.3,2,0.8,3.7,1.6,3.9c0.5,0.1,1-0.3,1.4-1s0.8-1.6,1.1-2.4
				c0.7-2,0.7-3.8,0.5-5.9c-0.2-2.1-0.6-4.5-0.8-7.5c-0.3-4-0.2-7.6,0.1-10.2c0.2-2.6,0.6-4.2,0.7-4.2c0.2,0,0.4,2.9,0.7,6.8
				c0.3,3.9,0.6,8.9,0.8,13.1c0.1,2.4,0.3,4.9,0.6,6.9c0.4,2,0.9,3.7,1.9,4.4c0.5,0.4,0.9,0.5,1.3,0.5c0.4,0,0.6-0.1,0.7-0.1
				c1.1-0.4,2-1.8,2.5-3.3c0.6-1.5,0.9-3.1,1-3.8c0.2-1.2,0.4-2.5,0.4-4.5s-0.2-4.7-0.6-8.8c-0.4-4.3-0.8-7.4-1.1-9.4
				s-0.4-3-0.2-3.1s0.9,1.1,1.6,3.3c0.7,2.2,1.5,5.2,1.9,8.7c0.3,2.7,0.2,4.8,0.2,7.1s0.1,4.7,0.8,7.8c0.4,2.2,0.8,3.3,1.1,3.9
				c0.3,0.6,0.6,0.7,0.7,0.7c0.5,0.1,1.1-0.8,1.5-1.9c0.4-1.1,0.8-2.5,1.1-3.5c0.6-2.4,0.6-4.6,0.6-6.2c0-1.6-0.2-2.7,0-2.8
				c0.1,0,0.4,0.6,0.7,1.5c0.3,1,0.6,2.3,0.7,3.8c0.3,2.2,0.3,4,0.3,5.3c0.1,1.4,0.2,2.4,0.7,3.2c0.2,0.3,0.5,0.6,0.7,0.8
				c0.3,0.2,0.6,0.3,0.8,0.1c0.4-0.3,0.5-1.1,0.4-2.9c0-1.7-0.2-4.4-0.5-8.2s-0.4-6-0.4-7.2c0-1.3,0-1.6,0.1-1.6
				c0.1-0.1,0.4,0.6,0.7,1.6s0.6,2.4,0.9,3.8c0.5,3,0.4,5.2,0.4,7.1c0,1.8,0,3.3,0.7,4.7c0.3,0.6,0.8,1.2,1.2,1.6
				c0.4,0.4,0.9,0.5,1.2,0.3c0.2-0.2,0.4-0.5,0.5-2s0.1-4.2-0.3-8.9c-0.2-3.5-0.5-6.1-0.7-7.9c-0.2-1.8-0.2-2.7-0.1-2.8
				c0.1-0.1,0.5,0.8,1,2.1c0.4,1.4,0.9,3.3,1.2,5.5c0.4,3.3,0.3,6,0.3,8.1s0,3.6,0.8,4.7c0.3,0.4,0.7,0.7,1,0.8
				c0.4,0.1,0.7,0.1,1-0.1c0.4-0.4,0.5-1.1,0.5-2.4c0-1.2-0.1-2.9-0.3-5c-0.4-4.6-0.6-7.5-0.8-9.2c-0.1-1.7-0.1-2.3-0.1-2.3
				c0.1,0,0.3,1,0.6,2.8c0.4,1.8,0.9,4.3,1.7,7.1c0.3,1,0.5,1.8,0.8,2.6c0.2,0.8,0.5,1.4,0.6,2l-1.2,2.8l-1.2,2.8l-2.4,0.7l-2.4,0.7
				H174h-4.5l-4.9,0.6l-4.9,0.6h-3.8h-3.8h-1.8h-1.8l-1.2-1.4l-1.2-1.5l-3.6,0.3l-3.6,0.3c-1-0.3-2-0.7-3-1s-2-0.7-3-1L131.9,172.6z
				"/>
			<path class="st17" d="M143.2,41.2c-0.1,0-0.2,1.9-0.2,3.9s-0.1,4.1-0.1,4.4c0,4.6,0,9.4,0.2,13.1c0.1,3.7,0.3,6.2,0.4,6.2
				c0.1,0,0.2-2.3,0.3-5.7c0.1-3.4,0-7.9-0.1-12.2c-0.1-2-0.1-4.4-0.2-6.3C143.4,42.6,143.2,41.2,143.2,41.2z"/>
			<path class="st17" d="M190.9,167.3c-0.1,0.7-0.3,1.2-0.5,1.8s-0.5,1.1-0.6,1.8c-0.1,0.6-0.1,1.4-0.1,2.1c0,0.7-0.1,1.3-0.4,1.7
				c-0.1,0.1-0.2,0.2-0.3,0.3s-0.2,0.1-0.3,0.1s-0.1,0-0.2,0c-0.1,0-0.1,0-0.2,0c-0.4,0-0.8,0.1-1.1,0.1c-0.4,0-0.8,0.1-1.1,0.1H186
				h-0.1c-0.1,0-0.2,0-0.4,0.1c-0.1,0-0.2,0.1-0.3,0.2c-0.1,0.1-0.3,0.3-0.4,0.5c-0.1,0.2-0.2,0.4-0.2,0.7c-0.1,0.2-0.1,0.4-0.2,0.7
				c-0.1,0.2-0.1,0.4-0.2,0.7v0.1v0.1c-0.1,0.4-0.4,0.8-0.6,1c-0.3,0.2-0.5,0.2-0.7-0.1c-0.1-0.1-0.1-0.3-0.2-0.4
				c-0.1-0.1-0.1-0.3-0.2-0.4c-0.2-0.2-0.4-0.1-0.5,0c-0.2,0.1-0.4,0.4-0.5,0.6c-0.6,0.9-1.4,1.3-2.2,1.5s-1.7,0.1-2.5-0.2
				c-0.8-0.2-1.6-0.6-2.5-0.9c-0.8-0.3-1.6-0.5-2.5-0.4c-1.2,0.1-2.2,0.7-3.3,1.4s-2.1,1.5-3.3,2c-0.6,0.2-1.1,0.4-1.7,0.4
				c-0.6,0-1.1-0.2-1.7-0.6c-0.1-0.1-0.3-0.3-0.4-0.4c-0.1-0.1-0.3-0.2-0.4-0.3c-0.6-0.2-1.1,0.3-1.5,1s-0.9,1.6-1.3,2.2
				c-0.6,0.8-1.5,1-2.2,0.7c-0.8-0.3-1.5-1.1-1.8-2.3c-0.1-0.3-0.2-0.7-0.2-1c-0.1-0.3-0.2-0.6-0.3-0.9c-0.2-0.4-0.6-0.5-0.9-0.5
				c-0.3,0-0.7,0.2-1,0.4c-0.3,0.3-0.6,0.6-0.9,0.9c-0.3,0.3-0.6,0.6-0.9,0.8c-0.3,0.2-0.7,0.2-1,0.1c-0.3-0.1-0.6-0.5-0.7-1
				c-0.1-0.3-0.1-0.7-0.1-1s0-0.7,0.1-1c0-0.3-0.1-0.7-0.2-1c-0.1-0.3-0.3-0.5-0.5-0.5c-0.1,0-0.2,0.1-0.3,0.1
				c-0.1,0.1-0.2,0.1-0.2,0.2c-0.9,0.7-1.8,0.4-2.8,0s-2-1-3-0.8c-0.5,0.1-1.1,0.5-1.6,0.7s-1,0.4-1.5,0c-0.1-0.1-0.2-0.2-0.3-0.2
				c-0.1-0.1-0.2-0.1-0.3-0.1s-0.3,0.1-0.4,0.2c-0.1,0.1-0.2,0.2-0.3,0.3c-0.7,0.7-1.6,1-2.4,0.7c-0.8-0.2-1.6-0.9-2.1-2
				c-0.1-0.1-0.1-0.2-0.1-0.3s-0.1-0.2-0.1-0.4c-0.1-0.3-0.2-0.6-0.3-0.9c-0.1-0.3-0.2-0.6-0.3-0.9c0-0.1-0.1-0.1-0.1-0.2
				c0-0.1-0.1-0.1-0.1-0.2c-0.1-0.1-0.1-0.2-0.2-0.3c-0.1-0.1-0.1-0.2-0.2-0.3c-0.2-0.2-0.3-0.3-0.5-0.5c-0.2-0.1-0.4-0.3-0.5-0.4
				c-0.2-0.2-0.4-0.3-0.6-0.6c-0.2-0.2-0.3-0.5-0.4-0.8c-0.1-0.4-0.1-0.8,0-1.2c0-0.4,0.1-0.9,0.2-1.3c0.1-0.7,0.1-1.4,0.1-2.1
				c0-0.7-0.1-1.4-0.3-2c0.2,0.2,0.5,0.1,0.7,0c0.2-0.2,0.5-0.4,0.7-0.7l0.1-0.1l0.1-0.1c0.1-0.1,0.1-0.2,0.2-0.3
				c0.1-0.1,0.2-0.2,0.2-0.3c0.2-0.2,0.4-0.3,0.6-0.3c0.2,0,0.4,0,0.6,0.3c0.2,0.3,0.2,0.6,0.2,1s-0.1,0.8-0.3,1
				c-0.2,0.3-0.4,0.5-0.6,0.6c-0.2,0.1-0.5,0.2-0.7,0.3c0,0.4,0.2,0.8,0.4,1s0.5,0.4,0.7,0.3c-0.2,0.2-0.3,0.4-0.5,0.6
				c-0.2,0.2-0.3,0.4-0.5,0.6c0,0.3,0.1,0.5,0.3,0.6s0.4,0.1,0.6,0.1c0.8-0.2,1.6-0.3,2.5-0.5c0.8-0.2,1.6-0.3,2.5-0.5l0.2,0.3
				l0.2,0.3c0.3,0.1,0.6,0.3,0.8,0.4c0.3,0.1,0.6,0.3,0.8,0.4c-0.3,0.2-0.5,0.8-0.5,1.4c0,0.6,0.2,1.2,0.5,1.6
				c0.3,0.3,0.7,0.5,1,0.5c0.4,0,0.8-0.2,1.1-0.4s0.7-0.5,1-0.8s0.7-0.5,1.1-0.6c-0.1,0.6-0.1,1.1-0.2,1.7c-0.1,0.6-0.1,1.1-0.2,1.7
				c0.7-0.4,1.3-0.8,2-1s1.4-0.3,2.1-0.2c0.3,0.1,0.6,0.2,0.9,0.4c0.3,0.2,0.5,0.4,0.8,0.7c0.2,0.2,0.4,0.5,0.6,0.7
				c0.2,0.2,0.4,0.4,0.6,0.6c0.2,0.1,0.5,0.2,0.7,0.2s0.5-0.2,0.6-0.5c0.1-0.2,0.2-0.5,0.2-0.8s0-0.6,0-0.9c0-0.6,0-1.3,0.1-2
				c0.1-0.6,0.2-1.2,0.5-1.7c0.3-0.4,0.8-0.5,1.1-0.4c0.4,0.2,0.7,0.6,0.7,1.3c0,0.3-0.1,0.5-0.2,0.7c-0.1,0.2-0.2,0.5-0.2,0.7
				c-0.1,0.7,0.1,1.3,0.4,1.7c0.3,0.5,0.8,0.7,1.2,0.7c0.4-0.1,0.8-0.3,1.2-0.7s0.7-0.9,1-1.4c0.1-0.2,0.2-0.4,0.3-0.5
				s0.3-0.2,0.4-0.1c0.3,0.1,0.4,0.7,0.4,1.3s0,1.2,0.3,1.5c0.4-0.7,1.1-0.7,1.6-0.3s0.9,1.2,0.9,2.1l0,0l0,0h0.1h0.1
				c0.3-0.1,0.5-0.7,0.7-1.3c0.2-0.5,0.5-1.1,0.8-1.1c0.1,0,0.2,0.1,0.4,0.2c0.1,0.1,0.2,0.2,0.3,0.3c0.6,0.5,1.3,0.3,1.8-0.3
				s0.9-1.6,0.7-2.6c0-0.3-0.1-0.5-0.1-0.8c-0.1-0.3-0.1-0.5-0.1-0.8c0-0.5,0.1-0.9,0.3-1.3c0.2-0.4,0.4-0.7,0.7-0.8s0.6,0,0.9,0.2
				c0.3,0.2,0.5,0.6,0.6,1c0.1,0.3,0.1,0.7,0.1,1.1c0,0.4,0,0.7,0,1.1c0.1,0.8,0.5,1.5,0.9,1.9c0.5,0.4,1,0.5,1.5,0.2
				c0.1-0.1,0.2-0.2,0.3-0.2c0.1-0.1,0.2-0.1,0.3-0.2c0.3-0.1,0.5,0.1,0.8,0.4c0.2,0.3,0.5,0.7,0.7,0.9c0.2,0.3,0.6,0.4,0.9,0.4
				c0.3,0,0.5-0.3,0.5-0.7c0.1,0.2,0.1,0.5,0.2,0.7c0.1,0.2,0.2,0.4,0.3,0.6c0.1,0.1,0.3,0.2,0.5,0.1c0.2-0.1,0.3-0.2,0.3-0.5
				c0-0.1,0-0.2,0-0.3s0-0.2,0-0.3c-0.1-0.7-0.2-1.4-0.3-2.1c-0.1-0.7-0.2-1.4-0.3-2.1c0.1-0.3,0.3-0.3,0.4-0.2
				c0.2,0.1,0.4,0.3,0.5,0.5s0.3,0.5,0.5,0.6s0.3,0.2,0.5,0c0.2-0.3,0.1-0.6,0-1c-0.2-0.4-0.4-0.7-0.5-1.1c-0.2-0.4-0.1-1,0.1-1.4
				c0.2-0.4,0.5-0.8,0.8-0.8c0.3-0.1,0.6,0.1,0.9,0.4c0.3,0.3,0.5,0.7,0.7,1.1c0.1,0.3,0.2,0.7,0.4,1.1c0.1,0.3,0.3,0.6,0.5,0.8
				c0.3,0.2,0.6,0,0.9-0.1c0.3-0.1,0.6-0.2,0.8,0.1c0.2,0.2,0.2,0.5,0.3,0.7c0.1,0.3,0.1,0.6,0.3,0.8c0.2,0.3,0.4,0.5,0.6,0.6
				c0.3,0.1,0.5,0.1,0.8,0.2c0.3,0.1,0.5,0.2,0.8,0.4c0.2,0.2,0.4,0.6,0.4,1c0.5-0.6,0.8-1.5,0.9-2.4c0.1-0.9,0-1.9-0.3-2.7
				c0.5,0.2,0.9,0.3,1.2,0.2s0.4-0.2,0.6-0.4c0.3-0.5,0.3-1.2,0.2-2.3s-0.2-2.4,0-4.2c0.1-0.6,0.1-1.3,0.2-1.8
				c0.1-0.6,0.2-1,0.3-1.2c0,0,0-0.1,0.1-0.1c0,0,0,0,0.1,0l0,0l0,0c0.1,0,0.2,0.4,0.3,0.9s0.1,1.2,0.2,1.8c0.4,0.1,0.9,0.2,1.3,0.3
				c0.4,0.1,0.8,0.4,1.2,0.7s0.7,0.8,0.9,1.4C190.8,166,190.9,166.6,190.9,167.3z"/>
			<g class="st18">
				<path class="st19" d="M155.2,154.4c-0.2,2.2-0.1,4.6,0.1,6.9c0.2,2.3,0.4,4.7,0.7,6.9c0.2,2.2,0.5,4.3,0.8,6.5
					c0.3,2.1,0.8,4.3,1.4,6.3c0,0.1,0.1,0.1,0.1,0.1s0.1,0,0.1-0.1c-0.2-2.2-0.5-4.3-0.8-6.5c-0.3-2.1-0.6-4.3-0.9-6.4
					c-0.3-2.3-0.4-4.6-0.6-6.9c-0.2-2.3-0.3-4.6-0.6-6.9c0-0.1-0.1-0.2-0.2-0.2C155.3,154.2,155.2,154.3,155.2,154.4L155.2,154.4
					L155.2,154.4z"/>
			</g>
			<g class="st18">
				<path class="st19" d="M158.6,156.9c-0.1,1.1-0.1,2.1,0,3.2c0,1.1,0.1,2.2,0.1,3.2c0,1.1,0,2.3,0,3.4c0,1.1-0.1,2.3-0.1,3.4
					c-0.1,2.2-0.3,4.4-0.5,6.5c-0.2,2.2-0.5,4.3-0.7,6.5c0,0.1,0,0.1,0.1,0.1c0,0,0.1,0,0.1-0.1c0.6-2.1,0.9-4.3,1.2-6.5
					s0.4-4.4,0.5-6.6c0.1-2.1,0.2-4.4,0.2-6.7s-0.2-4.6-0.7-6.6c0-0.1-0.1-0.1-0.1-0.1C158.6,156.8,158.6,156.8,158.6,156.9
					L158.6,156.9L158.6,156.9z"/>
			</g>
			<g class="st18">
				<path class="st19" d="M167.2,156.6c0.1,1,0.3,2,0.4,3c0.1,1,0.2,2,0.2,3c0,0.9,0,1.9,0,2.8c0,0.9-0.1,1.9-0.1,2.8
					c-0.1,2.1-0.4,4.2-0.7,6.3s-0.6,4.2-0.9,6.3c0,0.1,0,0.1,0.1,0.2c0,0,0.1,0,0.1-0.1c0.7-2,1.1-4.2,1.4-6.4
					c0.3-2.2,0.5-4.5,0.6-6.7c0.1-1.7,0.2-3.8,0.2-5.9c-0.1-2.1-0.3-4.1-1.2-5.5c0-0.1-0.1-0.1-0.1,0
					C167.2,156.5,167.2,156.6,167.2,156.6L167.2,156.6L167.2,156.6z"/>
			</g>
			<path class="st20" d="M141.8,125.2c0.1-3.5,0.3-6.6,0.5-9.4s0.5-5.3,0.8-7.6c0.4-2.8,0.8-5.5,1.2-7.5s0.7-3.2,1-3.2
				c0.3,0.1,0.2,2.5,0.3,5.2s0.4,5.6,1.6,6.6c0.5,0.4,1.1,0.5,1.7,0.3c0.6-0.2,1.2-0.6,1.6-1.1c1-1.2,1.5-3,1.7-4.6s0.3-2.9,0.5-2.9
				c0.3,0,0.5,2.2,0.7,4.4c0.2,2.2,0.5,4.4,0.9,4.4c0.4,0.1,0.6-1.5,1-3.1s0.8-3.2,1.6-3.4c0.7-0.1,1.4,0.9,1.9,2.2
				c0.5,1.2,0.9,2.5,1,2.8c0.2,0.5,0.5,1.8,0.7,4.3c0.2,2.4,0.3,6-0.2,11.2c-0.1,1.5-0.4,4.1-0.7,6.2c-0.3,2.2-0.8,3.9-1.3,4
				c-0.5,0-1-1.5-1.4-3.1s-0.9-3.1-1.4-3c-0.4,0.1-0.7,1.5-0.9,2.8c-0.2,1.4-0.4,2.7-0.7,2.8c-0.5,0-0.9-2.9-1.4-5.9
				c-0.5-3-1-6-1.5-6c-0.6,0-1,3.1-1.4,6.3s-0.9,6.3-1.6,6.4c-0.6,0-1.1-2.2-1.6-4.4s-1-4.4-1.7-4.4s-1.3,2.7-1.7,5.4
				s-0.8,5.4-1.1,5.3c-0.2,0-0.3-1.5-0.3-3.6C141.7,130.2,141.8,127.5,141.8,125.2z"/>
			<path class="st20" d="M139.5,115.6c0-4.3,0.8-7.4,1.3-10s0.8-4.7,0-6.7c-0.1-0.2-0.2-0.6-0.5-1c-0.2-0.4-0.5-0.7-0.8-0.6
				c-0.8,0.2-1.2,3.5-1.4,6.7s-0.3,6.4-0.6,6.4c-0.2,0-0.3-1.8-0.4-3.7c-0.1-1.8-0.3-3.7-0.4-3.7c-0.2,0-0.4,1.8-0.6,4.7
				c-0.2,2.9-0.4,6.8-0.4,10.9c-0.1,5.2,0,9.8,0.2,13.2s0.4,5.5,0.6,5.5c0.3,0,0.4-3.6,0.6-7.3c0.2-3.7,0.6-7.3,1.3-7.4
				c0.3,0,0.5,0.5,0.7,1s0.4,1,0.6,1c0.2-0.1,0.2-1.2,0.1-2.8C139.6,120,139.4,117.9,139.5,115.6z"/>
			<path class="st20" d="M164.9,107.2c-0.5,0-1.1,1.5-1.5,3.8c-0.5,2.3-0.8,5.4-1.1,8.5c-0.4,5.5-0.2,10.5,0.2,14.2
				c0.4,3.6,0.9,5.9,1.1,5.9c0.2,0,0.1-1.8,0.2-4.8c0.1-3,0.4-7.2,1.4-11.9c0.1-0.4,0.4-2,0.8-3.4c0.4-1.5,0.9-2.8,1.2-2.7
				c0.6,0.2,0.5,5.5,0.4,10.8s-0.2,10.6,0.4,10.8c0.4,0.1,1-2.4,1.6-4.8c0.6-2.5,1.4-5,2.1-4.9c0.7,0.1,1.1,2.3,1.5,4.6
				c0.4,2.2,0.7,4.4,1.3,4.5c0.7,0,1.4-2.7,1.9-5.4c0.6-2.7,1-5.5,1.3-5.4c0.2,0.1,0.1,1.5,0,3.8c0,2.3,0,5.6,0.4,9.2
				c0.1,0.7,0.2,2.1,0.4,3.2c0.2,1.2,0.4,2.2,0.7,2.2s0.7-1.6,0.9-3.6c0.3-2,0.5-4.6,0.6-6.5c0.2-2.8,0.1-5.2,0.2-6.8
				c0-1.7,0-2.6,0.2-2.7c0.3-0.1,0.6,1.7,1,3.4s0.7,3.5,0.9,3.4s0.2-1.7,0-4.7c-0.1-2.9-0.4-7-0.6-11.9c-0.2-4.6-0.2-8.4-0.3-11.1
				c-0.1-2.6-0.2-4.1-0.4-4.1c-0.3,0-0.6,3.1-1,6.2s-0.7,6.2-1.2,6.2c-0.4,0-0.5-2.4-0.7-4.9c-0.2-2.4-0.5-4.9-1.1-5
				s-1.3,2.3-1.9,4.7c-0.6,2.4-1.2,4.8-1.8,4.7c-0.7-0.1-1-4.3-1.1-8.4c-0.2-4.1-0.2-8.2-0.5-8.3c-0.3,0-0.6,4.1-1,8.2
				s-0.9,8.3-1.5,8.3c-0.4,0-0.7-1.7-1-3.4c-0.3-1.7-0.6-3.4-1-3.3c-0.3,0-0.4,1.4-0.5,2.7c-0.1,1.3-0.3,2.7-0.7,2.8
				c-0.3,0.1-0.6-0.9-0.9-1.9C165.6,108.2,165.3,107.2,164.9,107.2z"/>
			<g class="st18">
				<path class="st19" d="M171.1,156.5c0.3,1.9,0.6,3.8,0.8,5.7s0.4,3.8,0.4,5.8c0.1,1.8,0,3.7-0.1,5.5s-0.2,3.7-0.2,5.5
					c0,0.1,0,0.1,0.1,0.1c0,0,0.1,0,0.1-0.1c0.5-1.8,0.7-3.7,0.8-5.7c0.1-1.9,0-3.9-0.1-5.8c-0.1-1.9-0.2-3.8-0.5-5.7
					s-0.6-3.8-1.1-5.5c0-0.1-0.1-0.1-0.2-0.1C171.1,156.3,171,156.4,171.1,156.5L171.1,156.5L171.1,156.5z"/>
			</g>
			<g class="st18">
				<path class="st19" d="M176.1,157.2c0.5,2.9,0.7,5.9,0.8,8.8c0.1,2.9,0.1,5.9,0.3,8.9c0,0.1,0,0.1,0.1,0.1c0,0,0.1,0,0.1-0.1
					c0.2-1.7,0.3-3.4,0.3-5.1c0-1.7-0.1-3.4-0.2-5.2c-0.1-1.2-0.1-2.6-0.2-3.9c-0.1-1.3-0.4-2.6-1-3.6h-0.1
					C176.1,157.1,176,157.1,176.1,157.2L176.1,157.2L176.1,157.2z"/>
			</g>
			<g class="st18">
				<path class="st19" d="M181.9,161.7c0.1,1.4,0.1,2.8,0.1,4.2s0,2.8-0.1,4.2s-0.3,2.8-0.5,4.1c-0.2,1.4-0.4,2.8-0.4,4.2
					c0,0.1,0,0.1,0.1,0.1c0,0,0.1,0,0.1-0.1c0.8-2.4,1.3-5.4,1.5-8.3c0.2-2.9,0-5.9-0.5-8.5c0-0.1-0.1-0.1-0.2-0.1
					C181.9,161.5,181.9,161.6,181.9,161.7L181.9,161.7L181.9,161.7z"/>
			</g>
			<g class="st18">
				<path class="st19" d="M149,160.3c-0.4,3-0.3,6.3,0.2,9.5c0.4,3.2,1.2,6.4,2,9.2c0,0.1,0.1,0.1,0.1,0.1s0.1-0.1,0.1-0.2
					c-0.2-1.5-0.4-3-0.7-4.5c-0.2-1.5-0.5-3-0.7-4.5c-0.2-1.6-0.4-3.2-0.5-4.9c-0.1-1.6-0.2-3.2-0.3-4.9
					C149.2,160.2,149.1,160.2,149,160.3C149,160.2,149,160.2,149,160.3L149,160.3L149,160.3z"/>
			</g>
			<g class="st18">
				<path class="st19" d="M143.9,158.6c-0.3,1.5-0.4,3.2-0.3,4.8c0,1.6,0.2,3.3,0.3,4.8c0.1,1.4,0.3,3,0.5,4.5s0.5,3,1,4.3l0.1,0.1
					c0,0,0.1,0,0.1-0.1c0.2-1.2,0-2.6-0.2-3.9c-0.3-1.3-0.6-2.7-0.8-3.9c-0.2-1.8-0.3-3.5-0.3-5.3s0-3.5-0.1-5.3
					c0-0.1-0.1-0.2-0.1-0.2C144,158.4,143.9,158.4,143.9,158.6L143.9,158.6L143.9,158.6z"/>
			</g>
			<g class="st18">
				<path class="st19" d="M140,175.8c-0.2-1.7-0.5-3.3-0.7-5c-0.3-1.7-0.5-3.3-0.6-5c-0.1-1.6-0.2-3.2-0.2-4.8s0-3.2,0.1-4.8
					c0-0.1,0-0.1-0.1-0.1c0,0-0.1,0-0.1,0.1c-0.4,3.1-0.6,6.6-0.4,10c0.2,3.4,0.7,6.8,1.8,9.7c0,0.1,0.1,0.1,0.1,0.1
					C140,175.9,140,175.9,140,175.8L140,175.8L140,175.8z"/>
			</g>
			<g class="st18">
				<path class="st19" d="M135.8,172.3c-0.5-2.9-0.7-5.7-0.8-8.5s0-5.6,0.2-8.6c0-0.1,0-0.1-0.1-0.1c0,0-0.1,0-0.1,0.1
					c-0.5,2.7-0.9,5.7-0.9,8.7s0.4,5.9,1.4,8.5c0,0.1,0.1,0.1,0.2,0.1C135.8,172.5,135.8,172.4,135.8,172.3L135.8,172.3L135.8,172.3
					z"/>
			</g>
			<g class="st18">
				<path class="st19" d="M144.7,177c-0.1-1-0.4-2-0.6-2.9c-0.3-1-0.5-1.9-0.7-3c-0.2-1.2-0.3-2.3-0.5-3.5c-0.1-1.2-0.3-2.4-0.3-3.6
					c0-0.1-0.1-0.1-0.1-0.1s-0.1,0-0.1,0.1c0,1.2,0,2.5,0,3.7c0.1,1.2,0.2,2.4,0.4,3.6c0.1,0.9,0.3,2.1,0.5,3.1c0.3,1,0.6,2,1.2,2.7
					h0.1C144.7,177.1,144.7,177,144.7,177L144.7,177L144.7,177z"/>
			</g>
			<g class="st18">
				<path class="st19" d="M150.2,178.7c-0.5-0.5-0.8-1.7-1-2.9c-0.2-1.3-0.3-2.6-0.4-3.3c-0.1-1.1-0.2-2.2-0.3-3.4
					c-0.1-1.1-0.2-2.2-0.3-3.4c0-0.1-0.1-0.1-0.1-0.1s-0.1,0-0.1,0.1c0,1.4-0.1,2.7,0,4.1c0,1.3,0.1,2.7,0.3,4
					c0.1,0.7,0.2,1.8,0.4,2.9c0.2,1,0.6,2,1.1,2.4h0.1c0.1,0,0.1,0,0.1-0.1c0,0,0,0,0.1-0.1C150.1,178.9,150.1,178.9,150.2,178.7
					L150.2,178.7C150.3,178.8,150.2,178.7,150.2,178.7L150.2,178.7L150.2,178.7z"/>
			</g>
			<g class="st18">
				<path class="st19" d="M156.3,178.6c-0.2-2.3-0.5-4.5-0.7-6.8s-0.5-4.5-0.8-6.8c0-0.1-0.1-0.1-0.1-0.1l-0.1,0.1
					c0,2.2,0,4.6,0.2,7s0.5,4.7,1.3,6.7c0,0.1,0.1,0.1,0.2,0.1C156.3,178.8,156.3,178.7,156.3,178.6L156.3,178.6L156.3,178.6z"/>
			</g>
			<g class="st18">
				<path class="st19" d="M158.1,178.4c0.2-1.2,0.3-2.4,0.3-3.7s-0.1-2.5-0.1-3.8c0-1.4,0-2.8-0.1-4.1c0-1.4-0.1-2.7-0.2-4.1
					c0-0.1,0-0.1-0.1-0.1s-0.1,0-0.1,0.1c-0.1,1.4-0.1,2.8-0.1,4.1c0,1.4,0,2.7,0,4.1c0,1.2,0,2.5,0,3.8s0.1,2.5,0.3,3.7
					C158,178.5,158,178.5,158.1,178.4C158.1,178.5,158.1,178.5,158.1,178.4L158.1,178.4L158.1,178.4z"/>
			</g>
			<g class="st18">
				<path class="st19" d="M158.5,181c0.7-0.1,1.1-1,1.4-2c0.3-1,0.5-2.2,0.6-2.9c0.2-1.4,0.3-2.8,0.4-4.2c0.1-1.4,0-2.8,0-4.2
					c0-0.1,0-0.1-0.1-0.1s-0.1,0-0.1,0.1c-0.1,1.1-0.2,2.3-0.3,3.4c-0.1,1.1-0.2,2.3-0.4,3.4c-0.1,1-0.3,2.2-0.5,3.3s-0.6,2.2-1.1,3
					v0.1C158.4,181,158.4,181,158.5,181L158.5,181L158.5,181z"/>
			</g>
			<g class="st18">
				<path class="st19" d="M165.5,177.8c0.5-0.6,0.8-1.4,0.9-2.2c0.1-0.8,0.2-1.7,0.2-2.6c0-1.3,0-2.6-0.1-4
					c-0.1-1.3-0.3-2.6-0.5-3.9c0-0.1-0.1-0.1-0.1-0.1l-0.1,0.1c0,2,0.2,4.2,0.3,6.3c0,2.1-0.1,4.3-0.7,6.2c0,0.1,0,0.1,0,0.1
					C165.4,177.9,165.5,177.9,165.5,177.8L165.5,177.8L165.5,177.8z"/>
			</g>
			<g class="st18">
				<path class="st19" d="M187.8,169.4c-0.3-0.9-0.6-1.7-0.9-2.6c-0.3-0.9-0.6-1.7-0.9-2.6c-0.3-0.9-0.5-1.9-0.7-2.8
					c-0.2-1-0.4-1.9-0.6-2.9c0-0.1-0.1-0.1-0.1-0.1s-0.1,0-0.1,0.1c0,1.9,0.2,4,0.7,6s1.2,3.8,2.3,5.2c0.1,0.1,0.1,0.1,0.2,0
					C187.8,169.6,187.8,169.5,187.8,169.4L187.8,169.4L187.8,169.4z"/>
			</g>
			<path class="st17" d="M145.2,78.7c-0.6,8.3-0.7,15.8-0.6,22c0.1,6.2,0.3,11,0.5,14.1c0.5,11,0.7,19,0.8,24.3s0.1,7.8,0.4,7.8
				c0.3,0,0.6-3.9,0.8-9.6c0.2-5.7,0.4-13.1,0.5-19.9c0.1-11.1-0.1-22.2-0.4-30.5c-0.3-8.3-0.8-13.8-1.2-13.8c-0.1,0-0.2,0.2-0.3,1
				C145.5,75,145.3,76.4,145.2,78.7z"/>
			<path class="st17" d="M154.3,87.7c-0.7,6.6-1.1,12.6-1.2,17.5c-0.1,5,0,9,0,11.7c0.1,4.3,0.3,12.2,0.5,19s0.5,12.6,0.8,12.6
				c0.2,0,0.2-2.1,0.2-6.7c0-4.6,0.1-11.8,0.3-22c0.2-12.6,0.5-22.5,0.6-29.2s0.2-10.3-0.1-10.3c-0.2,0-0.4,1.2-0.6,2.7
				C154.7,84.5,154.4,86.4,154.3,87.7z"/>
			<path class="st17" d="M164.6,81.9c-0.2,0.1,0,3.2,0.4,8.9c0.4,5.7,0.8,13.8,1.1,23.8c0.4,14,0.2,25.1,0,32.6
				c-0.2,7.6-0.5,11.6-0.2,11.7c0.3,0,1.2-5.3,1.9-13.9c0.7-8.6,1.1-20.4,0.4-33.3c-0.4-8-1.2-15.5-2-21
				C165.5,85.2,164.8,81.8,164.6,81.9z"/>
			<path class="st17" d="M173.1,84.5c-0.3,0-0.3,4.7-0.2,11.4c0.1,6.7,0.2,15.3,0.4,23.1s0.3,16.4,0.5,22.9s0.4,11.1,0.7,11.1
				c0.2,0,0.5-4.2,0.7-10.5c0.2-6.4,0.3-14.9,0.1-23.8s-0.6-17.5-1-23.8C173.8,88.6,173.3,84.5,173.1,84.5z"/>
		</g>
		<path class="st21" d="M130.5,178.7c-0.2,0.1,0,0.1,0.2,0s0.5-0.4,0.3-0.6c-0.2-0.3-0.4-0.4-0.6-0.5c-0.2-0.1-0.4-0.2-0.6-0.4
			c-0.3-0.3-0.8-0.4-1.2-0.5c-0.4,0-0.9,0-1.3-0.1c-0.6-0.1-1.2-0.3-1.7-0.7s-0.9-1-1-1.8c-0.1-0.5-0.1-1-0.1-1.4c0-0.5,0-1-0.1-1.4
			c-0.1-0.5-0.4-1-0.7-1.3c-0.3-0.3-0.8-0.6-1.2-0.7c-0.4-0.1-0.9-0.1-1.3,0s-0.9,0.2-1.3,0.4c-0.1,0-0.1,0-0.2,0.1
			c-0.1,0-0.1,0.1-0.2,0.1c-0.2,0.2-0.2,0.5-0.1,0.8s0.2,0.6,0.4,0.9c-0.4,0.1-0.7,0.4-0.9,0.9c-0.2,0.5-0.2,1,0,1.5
			c0.3,0.8,1,0.9,1.7,1.1c0.7,0.1,1.4,0.2,1.9,0.8c0.1,0.2,0.2,0.3,0.3,0.5s0.2,0.4,0.3,0.5c0.3,0.5,0.7,0.8,1.1,1s0.9,0.4,1.3,0.5
			c0.2,0.1,0.4,0.1,0.6,0.2c0.2,0,0.4,0.1,0.6,0.1c0.5,0.1,1,0.2,1.5,0.3c0.5,0.1,1,0.2,1.5,0.3c0.1,0,0.2,0,0.3,0s0.2,0,0.2-0.1
			c0.1,0,0.1-0.1,0.2-0.3C130.5,178.9,130.5,178.8,130.5,178.7L130.5,178.7z"/>
		<path class="st21" d="M141.2,182c-0.1-0.4-0.3-0.7-0.5-0.9s-0.5-0.4-0.8-0.4s-0.6,0-0.9,0.1c-0.3,0.1-0.5,0.3-0.8,0.5
			c-0.2,0.2-0.5,0.5-0.6,0.8s-0.2,0.7-0.1,1.1c0.1,0.4,0.4,0.5,0.6,0.7c0.3,0.1,0.6,0.1,0.9,0.1c-0.1,0.2-0.2,0.3-0.3,0.5
			s-0.2,0.3-0.2,0.5c-0.1,0.4,0,0.8,0.3,1.2c0.2,0.3,0.6,0.6,0.9,0.7c0.4,0.1,0.9,0.2,1.4,0.1c0.5-0.1,0.9-0.3,1.3-0.6
			c0.2-0.2,0.4-0.4,0.7-0.5c0.2-0.1,0.5-0.2,0.7-0.1c0.2,0.1,0.3,0.3,0.5,0.4c0.1,0.2,0.3,0.3,0.5,0.3c0.1,0,0.2-0.1,0.3-0.2
			c0.1-0.1,0.2-0.2,0.3-0.3c0.2-0.1,0.4-0.2,0.6-0.1c0.2,0,0.4,0.2,0.5,0.4s0.2,0.5,0.2,0.7c0,0.3,0,0.5-0.2,0.7
			c0.4,0.1,1,0,1.4-0.2s0.8-0.6,0.9-1.2c0.1-0.5,0-1-0.3-1.4c-0.2-0.4-0.6-0.7-1-0.9s-0.8-0.2-1.2-0.3c-0.4,0-0.8-0.1-1.2-0.1
			c-0.4-0.1-0.8-0.3-1.1-0.6s-0.6-0.7-0.7-1.2c-0.3-0.2-0.6-0.2-0.8-0.1c-0.3,0.1-0.6,0.2-0.8,0.5L141.2,182z"/>
		<path class="st21" d="M156.4,189.2c-0.1,0.2-0.2,0.3-0.4,0.4c-0.2,0.1-0.4,0-0.5-0.1c-0.2-0.1-0.3-0.3-0.4-0.5
			c-0.1-0.2-0.2-0.4-0.3-0.6c-0.1-0.2-0.1-0.4-0.3-0.6c-0.1-0.2-0.2-0.3-0.4-0.3c-0.1,0-0.1,0-0.2,0c-0.1,0-0.1,0.1-0.2,0.1
			c-0.2,0.1-0.3,0.3-0.5,0.5c-0.1,0.2-0.2,0.5-0.3,0.7c0,0.1,0,0.2-0.1,0.3c0,0.1-0.1,0.2-0.1,0.2c-0.1,0-0.1,0-0.2,0
			c-0.1,0-0.2-0.1-0.2-0.1c-0.2-0.1-0.5,0.1-0.7,0.3s-0.3,0.6-0.2,0.9c0,0.3,0.2,0.6,0.4,0.9c0.2,0.2,0.4,0.4,0.7,0.5
			c0.2,0.1,0.5,0.1,0.8,0.1s0.5-0.1,0.8-0.1s0.5-0.1,0.8-0.1s0.5,0,0.8,0.1s0.5,0.2,0.7,0.4s0.5,0.3,0.7,0.5
			c0.2,0.1,0.5,0.2,0.8,0.2s0.5-0.1,0.7-0.3c0.1-0.2,0.3-0.4,0.4-0.7c0.1-0.2,0.2-0.4,0.4-0.5c0.3-0.1,0.6,0.2,0.8,0.6
			c0.2,0.3,0.5,0.7,0.8,0.6c0.3,0,0.6-0.5,0.8-0.8c0.2-0.4,0.4-0.8,0.8-0.7c0.1,0,0.2,0.1,0.3,0.2c0.1,0.1,0.2,0.2,0.3,0.3
			c0.3,0.2,0.6,0.3,1,0.3c0.3,0,0.7-0.2,1-0.3c0.2-0.1,0.4-0.2,0.6-0.3c0.2-0.1,0.4-0.3,0.5-0.5c0.2-0.5,0.2-1,0-1.5s-0.6-0.9-1-1.1
			c-0.3-0.1-0.6-0.2-0.8-0.2c-0.3,0-0.6,0.1-0.8,0.3c-0.1,0.1-0.2,0.2-0.3,0.4c-0.1,0.1-0.2,0.3-0.3,0.4c-0.3,0.3-0.7,0.5-1.1,0.5
			c-0.4,0-0.8-0.1-1.1-0.4c-0.1-0.1-0.2-0.2-0.3-0.3s-0.2-0.2-0.3-0.3c-0.3-0.1-0.6-0.1-0.8,0.1c-0.3,0.2-0.6,0.4-0.8,0.5
			c-0.3,0.2-0.7,0.3-1.1,0.3c-0.4,0-0.7-0.2-1.1-0.4L156.4,189.2z"/>
		<path class="st21" d="M193.6,177.6c-0.4,0.5-0.8,0.9-1.3,1.3c-0.5,0.4-0.9,0.7-1.4,1.1c0.5,0.6,1.1,0.9,1.7,0.9
			c0.6,0,1.3-0.1,2-0.4c0.1,0,0.2-0.1,0.3-0.2c0.1-0.1,0.2-0.2,0.3-0.3s0.1-0.3,0.1-0.4c0-0.1,0.1-0.3,0.1-0.4
			c0.1-0.2,0.3-0.4,0.5-0.4c0.2-0.1,0.4,0,0.6,0c0.3,0.1,0.6,0.2,0.9,0.3c0.3,0.1,0.6,0.2,0.9,0.3c0.3,0.1,0.6,0.1,0.9,0.1
			c0.3,0,0.6-0.1,0.9-0.4c0.3-0.2,0.5-0.6,0.5-1c0.1-0.4,0.1-0.8-0.1-1.1c0-0.1-0.1-0.1-0.1-0.2c0-0.1-0.1-0.2-0.1-0.2
			c0-0.1,0-0.2,0.1-0.3s0.1-0.2,0.2-0.2c0.2-0.3,0.3-0.6,0.3-1s-0.1-0.7-0.2-1.1c-0.1-0.3-0.3-0.6-0.5-0.8s-0.4-0.4-0.7-0.6
			c-0.2-0.1-0.3-0.3-0.5-0.5c-0.1-0.2-0.2-0.4-0.3-0.6c-0.1-0.3,0-0.7,0.1-1.1c0.1-0.4,0.1-0.7,0-1c0-0.1-0.1-0.2-0.2-0.3
			c-0.1-0.1-0.2-0.2-0.2-0.2c-0.4-0.3-0.7-0.6-1.1-0.9c-0.4-0.3-0.8-0.5-1.2-0.6s-0.9-0.1-1.3,0c-0.4,0.1-0.8,0.3-1.2,0.7
			c0-0.2,0-0.4-0.1-0.5c-0.1-0.2-0.2-0.3-0.4-0.3c-0.1,0-0.3,0-0.4,0c-0.1,0.1-0.3,0.2-0.4,0.3c-0.4,0.5-0.6,1.2-0.6,1.9
			s0.3,1.4,0.7,1.8c0.4,0.4,0.9,0.5,1.4,0.5c0.5,0.1,1,0.1,1.4,0.4c0.2,0.1,0.5,0.4,0.6,0.6c0.2,0.3,0.3,0.6,0.3,1s0,0.7-0.2,1
			c-0.1,0.3-0.3,0.6-0.6,0.6c-0.2,0.1-0.3,0-0.5,0s-0.3,0-0.5,0s-0.3,0.1-0.5,0.2c-0.1,0.1-0.3,0.3-0.3,0.5L193.6,177.6z"/>
		<path class="st21" d="M175.1,185.5c0.1-0.5,0.4-0.9,0.7-1.2s0.7-0.4,1.1-0.4c0.2,0,0.4,0.1,0.7,0.1c0.2,0,0.4,0.1,0.7,0.1
			s0.5-0.2,0.8-0.3c0.2-0.2,0.5-0.3,0.7-0.5c0.6-0.3,1.2-0.4,1.8-0.3c0.6,0,1.3,0.2,1.9,0.4c0-0.2,0-0.4,0.1-0.6
			c0-0.2,0-0.4,0.1-0.6c0.3-0.1,0.7,0,1,0.2s0.5,0.6,0.5,1c0,0.5-0.3,0.8-0.6,1s-0.7,0.3-1.1,0.3c-1.4,0.1-2.8,0.3-4.1,0.7
			c-1.4,0.3-2.7,0.8-4,1.3c-0.2,0.1-0.4,0.2-0.6,0.2c-0.2,0.1-0.4,0.1-0.6,0.1c-0.2,0-0.4,0-0.6-0.1c-0.2,0-0.4-0.1-0.6-0.1
			c-0.6-0.1-1.2,0-1.8,0.1s-1.2,0.2-1.8,0.1c-0.8-0.1-1.6-0.5-2.4-0.8c-0.8-0.3-1.6-0.5-2.3-0.1c0.1-0.4,0.3-0.7,0.6-1
			s0.6-0.4,0.9-0.6c1.2-0.5,2.4-0.3,3.6,0.1c1.2,0.3,2.5,0.7,3.7,0.7c0.3,0,0.6,0,0.8-0.1c0.3,0,0.6,0,0.8,0L175.1,185.5z"/>
		<path class="st21" d="M191.9,158.1c-0.1-0.6,0-1.3,0.2-1.9c0.2-0.6,0.5-1.1,0.9-1.6c0-0.1,0.1-0.1,0.2-0.1c0.1,0,0.1-0.1,0.2-0.1
			c0.1,0,0.2,0.1,0.3,0.2c0.1,0.1,0.1,0.3,0.1,0.4c0,0.1,0,0.3-0.1,0.4c-0.1,0.1-0.1,0.2-0.2,0.4c-0.2,0.3-0.6,0.7-0.9,1.1
			C192.3,157.2,192,157.6,191.9,158.1L191.9,158.1z"/>
		<path class="st21" d="M189.6,159.8c-0.3-0.7-0.5-1.5-0.5-2.3s0.1-1.6,0.3-2.4c0.1-0.2,0.1-0.4,0.2-0.5c0.1-0.2,0.2-0.3,0.3-0.4
			c0.1-0.1,0.3-0.2,0.4-0.2c0.2,0,0.3,0,0.4,0.1c0.2,0.2,0.3,0.4,0.3,0.7s0,0.6-0.1,0.9c-0.1,0.3-0.2,0.5-0.4,0.7
			c-0.1,0.2-0.3,0.4-0.4,0.7c-0.2,0.3-0.3,0.8-0.5,1.3C189.7,158.9,189.6,159.4,189.6,159.8L189.6,159.8z"/>
		<path class="st21" d="M190.4,163.1c-0.1-0.5,0-0.9,0-1.4c0.1-0.5,0.2-0.9,0.4-1.3c0.1-0.2,0.3-0.4,0.4-0.5
			c0.2-0.1,0.3-0.2,0.5-0.1c0.2,0.1,0.3,0.2,0.4,0.5c0.1,0.2,0.1,0.5,0.1,0.7s-0.1,0.4-0.2,0.6c-0.1,0.2-0.2,0.3-0.3,0.5
			c-0.3,0.2-0.5,0.3-0.7,0.5C190.7,162.6,190.5,162.7,190.4,163.1L190.4,163.1z"/>
		<path class="st21" d="M124.4,167.2c0-0.1,0-0.2-0.1-0.2c0-0.1,0-0.2-0.1-0.2c-0.1-0.2-0.1-0.4-0.2-0.6c-0.1-0.2-0.1-0.4-0.2-0.5
			c-0.2-0.5-0.5-1-0.9-1.3c-0.3-0.4-0.7-0.7-1.2-0.8c-0.1,0-0.2-0.1-0.3-0.1c-0.1-0.1-0.2-0.1-0.3-0.2c-0.2-0.2-0.2-0.6-0.1-0.9
			c0.1-0.3,0.3-0.6,0.6-0.6c0.2-0.1,0.5,0,0.7,0.2s0.4,0.4,0.6,0.7s0.3,0.6,0.4,0.9c0.1,0.3,0.2,0.6,0.3,0.9
			c0.2,0.5,0.4,0.9,0.6,1.4s0.3,1,0.2,1.5V167.2z"/>
		<path class="st21" d="M126.2,162.4c-0.1-0.5-0.3-1-0.5-1.4s-0.5-0.9-0.8-1.2c-0.2-0.3-0.5-0.5-0.7-0.7c-0.3-0.2-0.5-0.5-0.7-0.8
			s-0.4-0.7-0.5-1.1c-0.1-0.4-0.1-0.8,0.1-1.2s0.5-0.7,0.8-0.7c0.3-0.1,0.7,0,1,0.2s0.5,0.6,0.7,1s0.3,0.8,0.4,1.3
			c0.2,0.7,0.3,1.5,0.3,2.4C126.5,160.9,126.5,161.8,126.2,162.4L126.2,162.4z"/>
		<path class="st21" d="M126.2,170c0-0.3-0.1-0.6-0.1-0.9c-0.1-0.3-0.1-0.6-0.3-0.9c-0.1-0.3-0.2-0.5-0.3-0.7
			c-0.1-0.3-0.2-0.5-0.2-0.8s0.1-0.6,0.2-0.8s0.3-0.3,0.5-0.3c0.2,0.1,0.3,0.2,0.4,0.4s0.1,0.5,0.1,0.7c0,0.6,0.1,1.2,0,1.7
			C126.5,169,126.4,169.5,126.2,170L126.2,170z"/>
		<g>
			<polygon class="st5" points="266.1,181.8 248.9,181.8 231.8,181.8 231.8,181.8 231.8,181.8 232.1,180.5 232.3,179.2 233.9,172.2 
				235.4,165.1 235.4,165.1 235.4,165 239.3,159.1 243.3,153.1 243.5,152.8 243.7,152.6 243.7,152.6 243.7,152.6 243.7,152.6 
				243.8,152.6 244.1,152.6 244.5,152.7 244.6,152.7 244.8,152.7 250,153.5 255.3,154.3 255.3,154.3 255.4,154.3 255.5,154.3 
				255.6,154.3 255.6,154.3 255.6,154.3 255.7,154.5 255.8,154.6 255.8,154.7 255.8,154.7 259.1,159.7 262.5,164.7 262.5,164.7 
				262.5,164.7 262.5,164.7 262.5,164.7 262.5,164.8 262.6,164.9 263.2,165.8 263.8,166.7 263.8,166.7 263.8,166.7 263.8,166.7 
				263.9,166.8 264.8,173 265.7,179.2 265.9,180.4 266,181.6 266.1,181.7 			"/>
			<polygon class="st4" points="260.4,181.8 254.9,181.8 249.4,181.8 249.3,181.2 249.2,180.6 248.1,173.2 247,165.9 247,165.9 
				247,165.9 247,165.9 247,165.9 247,165.9 247,165.9 250.3,162.9 253.6,159.9 254,160.8 254.4,161.7 254.4,161.7 254.4,161.7 
				254.6,162.2 254.8,162.7 254.8,162.7 254.8,162.7 257,167.8 259.2,173 259.2,173 259.3,173.1 259.7,176.2 260.1,179.3 
				260.2,180.5 			"/>
			<path class="st12" d="M266,181.6c-0.1,0-0.2,0.1-0.3,0.1c-0.1,0-0.2,0.1-0.3,0.1h-2.6h-2.6c-0.1-0.4-0.1-0.8-0.2-1.2
				s-0.1-0.9-0.2-1.3c-0.1-1.1-0.3-2.2-0.4-3.3s-0.2-2.1-0.3-2.9l0,0l0,0c-0.1-0.6-0.1-1.2-0.2-1.5c0-0.4-0.1-0.6-0.1-0.6l1.7-3.1
				l1.7-3.1l0.1,0.1l0.1,0.1l0.6,0.9l0.6,0.9l0,0l0,0l0,0l0,0l0.9,6.2l0.9,6.2l0.2,1.2L266,181.6z"/>
			<polygon class="st3" points="263.8,166.7 261.5,169.9 259.3,173.2 259.3,173.1 259.3,173.1 257,168.1 254.8,163.1 254.5,162.6 
				254.3,162.1 254.8,158.2 255.3,154.3 255.4,154.3 255.6,154.3 255.7,154.5 255.8,154.6 259.1,159.7 262.5,164.7 263.1,165.7 			
				"/>
			<polygon class="st5" points="247,165.9 241.2,165.5 235.4,165.1 235.4,165.1 235.4,165 239.5,158.8 243.7,152.6 243.7,152.6 
				243.8,152.6 244.3,152.7 244.8,152.7 245.9,159.3 			"/>
			<polygon class="st7" points="255.8,154.6 255.3,158.9 254.8,163.1 254.7,163.1 254.7,163.2 250.9,164.5 247,165.9 245.4,159.2 
				243.8,152.6 249.5,153.4 255.3,154.3 255.4,154.3 255.6,154.3 255.7,154.5 			"/>
			<polygon class="st10" points="249.9,181.8 240.9,181.8 231.8,181.8 231.8,181.8 231.8,181.8 233.2,180.3 234.6,178.9 
				240.8,172.4 247,165.9 247,165.9 247,165.9 247,165.9 247,165.9 248.4,173.3 249.7,180.7 249.8,181.3 			"/>
		</g>
		<path class="st22" d="M268.7,182.1h-19.8h-19.8l0,0l0,0l0.3-1.5l0.3-1.5c0.4-0.1,0.8-0.2,1.2-0.2c0.4-0.1,0.9-0.1,1.3-0.2
			c1.5-0.2,3.1-0.3,4.7-0.3c1.6,0,3.3,0.1,4.9,0.4c1.8,0.3,3.1,0.6,4.2,1c1.1,0.4,2,0.7,3.1,0.9c0.1,0,0.2,0,0.3,0.1
			c0.1,0,0.2,0,0.3,0.1c0.5,0.1,1,0.1,1.5,0.1s1.2,0,1.8-0.1c1.5-0.2,2.7-0.5,4-0.8s2.6-0.7,4.5-0.9c0,0,0,0,0.1,0c0,0,0,0,0.1,0
			c0.3,0,0.7-0.1,1.1-0.1s0.8-0.1,1.2-0.1c0.6,0,1.3-0.1,2,0c0.7,0,1.5,0.1,2.2,0.2l0.2,1.4l0.2,1.4L268.7,182.1L268.7,182.1z"/>
		<g>
			<polygon class="st5" points="51.4,186.8 40.8,186.8 30.3,186.8 30.3,186.7 30.3,186.7 30.4,185.9 30.6,185.2 31.5,180.8 
				32.4,176.5 32.5,176.4 32.5,176.4 34.9,172.7 37.3,169.1 37.5,168.9 37.6,168.7 37.6,168.7 37.6,168.7 37.6,168.7 37.6,168.7 
				37.9,168.8 38.1,168.8 38.2,168.8 38.3,168.8 41.5,169.3 44.7,169.8 44.8,169.8 44.8,169.8 44.9,169.8 44.9,169.8 44.9,169.8 
				44.9,169.8 45,169.9 45,170 45,170 45,170 47.1,173.1 49.2,176.2 49.2,176.2 49.2,176.2 49.2,176.2 49.2,176.2 49.2,176.3 
				49.2,176.3 49.6,176.9 50,177.4 50,177.4 50,177.4 50,177.4 50,177.5 50.6,181.3 51.1,185.1 51.2,185.9 51.3,186.6 51.4,186.7 
							"/>
			<polygon class="st4" points="47.9,186.8 44.5,186.8 41.1,186.8 41,186.4 41,186 40.3,181.5 39.6,176.9 39.6,176.9 39.6,176.9 
				39.6,176.9 39.6,176.9 39.6,176.9 39.6,176.9 41.7,175.1 43.7,173.3 43.9,173.8 44.2,174.4 44.2,174.4 44.2,174.4 44.3,174.7 
				44.4,175 44.4,175 44.4,175 45.8,178.1 47.1,181.3 47.2,181.3 47.2,181.4 47.4,183.3 47.7,185.2 47.8,186 			"/>
			<path class="st12" d="M51.3,186.6c-0.1,0-0.1,0-0.2,0.1c-0.1,0-0.1,0-0.2,0.1h-1.6h-1.6c0-0.2-0.1-0.5-0.1-0.7
				c0-0.3-0.1-0.5-0.1-0.8c-0.1-0.6-0.2-1.3-0.2-2c-0.1-0.7-0.1-1.3-0.2-1.8l0,0l0,0c0-0.4-0.1-0.7-0.1-0.9s0-0.4,0-0.4l1.1-1.9
				l1.1-1.9v0.1v0.1l0.4,0.6l0.4,0.6l0,0l0,0l0,0l0,0l0.6,3.8l0.6,3.8l0.1,0.7V186.6z"/>
			<polygon class="st3" points="50,177.4 48.6,179.4 47.2,181.4 47.2,181.4 47.2,181.4 45.8,178.3 44.4,175.2 44.3,174.9 
				44.1,174.6 44.4,172.2 44.7,169.8 44.8,169.8 44.9,169.8 45,169.9 45,170 47.1,173.1 49.2,176.2 49.6,176.8 			"/>
			<polygon class="st5" points="39.6,176.9 36,176.7 32.4,176.5 32.5,176.4 32.5,176.4 35,172.6 37.6,168.7 37.6,168.7 37.6,168.7 
				37.9,168.8 38.3,168.8 38.9,172.9 			"/>
			<polygon class="st7" points="45,170 44.7,172.6 44.4,175.2 44.4,175.2 44.4,175.3 42,176.1 39.6,176.9 38.6,172.8 37.6,168.7 
				41.2,169.3 44.7,169.8 44.8,169.8 44.9,169.8 45,169.9 			"/>
			<polygon class="st10" points="41.4,186.8 35.8,186.8 30.3,186.8 30.3,186.7 30.3,186.7 31.1,185.8 32,184.9 35.8,180.9 
				39.6,176.9 39.6,176.9 39.6,176.9 39.6,176.9 39.6,176.9 40.5,181.5 41.3,186.1 41.4,186.4 			"/>
		</g>
		<path class="st23" d="M53,186.9H40.8H28.6l0,0l0,0l0.2-0.9l0.2-0.9c0.2-0.1,0.5-0.1,0.8-0.1s0.5-0.1,0.8-0.1
			c0.9-0.1,1.9-0.2,2.9-0.2s2,0.1,3,0.2c1.1,0.2,1.9,0.4,2.6,0.6c0.7,0.2,1.3,0.4,1.9,0.6c0.1,0,0.1,0,0.2,0c0.1,0,0.1,0,0.2,0
			c0.3,0,0.6,0.1,0.9,0.1c0.3,0,0.7,0,1.1-0.1c0.9-0.1,1.7-0.3,2.5-0.5s1.6-0.4,2.8-0.6l0,0l0,0c0.2,0,0.4,0,0.7-0.1
			c0.2,0,0.5,0,0.7,0c0.4,0,0.8,0,1.2,0s0.9,0,1.3,0.1l0.1,0.9l0.1,0.9L53,186.9L53,186.9z"/>
		<g>
			<g>
				<path class="st24" d="M41.5,176.9c0.3,0.4,0.6,0.8,0.9,1.1c0.3,0.4,0.6,0.8,0.9,1.2c0.3,0.4,0.5,0.9,0.7,1.4s0.3,1,0.4,1.5
					c0.1,0.6,0.2,1.2,0.2,1.8s0,1.2,0,1.8c0,0.5,0,1,0,1.5c0.1,0.5,0.2,0.9,0.5,1.3c0.1,0.2,0.4,0.2,0.6,0.2c0.2,0,0.4-0.1,0.5-0.3
					c0.3-0.5,0.3-1,0.3-1.6c-0.1-0.6-0.2-1.2-0.3-1.7c-0.1-0.6-0.2-1.3-0.3-1.9c-0.1-0.6-0.2-1.3-0.4-1.9c-0.2-0.9-0.6-1.9-1.2-2.8
					c-0.6-0.9-1.3-1.6-2.2-2c-0.2-0.1-0.3,0-0.5,0.1C41.4,176.5,41.4,176.7,41.5,176.9L41.5,176.9L41.5,176.9z"/>
			</g>
			<g>
				<path class="st25" d="M50,170.9c-0.5,0.4-0.9,1-1.3,1.6c-0.4,0.6-0.7,1.3-1,1.9c-0.3,0.7-0.6,1.4-0.9,2.1
					c-0.3,0.7-0.5,1.4-0.7,2.1c-0.2,0.7-0.3,1.4-0.5,2.1c-0.1,0.7-0.2,1.5-0.3,2.2c-0.1,0.5-0.2,1.3-0.1,2c0,0.7,0.2,1.4,0.6,1.7
					c0.1,0.1,0.2,0.1,0.3,0.1s0.2,0,0.3-0.1c0.3-0.4,0.4-1,0.4-1.5c0-0.6-0.1-1.2-0.1-1.7c0-0.7,0-1.5,0.1-2.2s0.2-1.4,0.4-2.2
					c0.2-0.7,0.4-1.3,0.6-2c0.2-0.7,0.5-1.3,0.8-1.9c0.3-0.6,0.7-1.3,1.1-1.9c0.4-0.6,0.8-1.2,1-1.9c0.1-0.2,0-0.4-0.1-0.6
					C50.4,170.8,50.2,170.8,50,170.9L50,170.9L50,170.9z"/>
			</g>
			<g>
				<path class="st26" d="M49.5,180.5c-1.1,0.7-2,1.7-2.7,2.9s-1.2,2.5-1.4,3.8c-0.1,0.4,0.2,0.7,0.5,0.8s0.7,0,0.8-0.5
					c0.3-1.3,0.8-2.4,1.3-3.5c0.6-1.1,1.2-2.1,1.9-3.2c0.1-0.1,0-0.2,0-0.3C49.7,180.4,49.6,180.4,49.5,180.5L49.5,180.5L49.5,180.5
					z"/>
			</g>
		</g>
		<g>
			<g>
				<path class="st24" d="M53.2,168.5c0.4,0.5,0.8,1,1.2,1.5s0.8,1,1.2,1.5c0.3,0.6,0.6,1.2,0.9,1.8c0.2,0.6,0.4,1.3,0.5,1.9
					c0.2,0.8,0.2,1.6,0.2,2.4s0,1.6,0,2.4c0,0.7-0.1,1.3,0,1.9c0.1,0.6,0.2,1.2,0.7,1.7c0.2,0.2,0.5,0.3,0.7,0.2
					c0.3,0,0.5-0.2,0.6-0.4c0.4-0.6,0.4-1.4,0.3-2.1c-0.1-0.8-0.3-1.5-0.4-2.2c-0.2-0.8-0.3-1.7-0.4-2.5c-0.1-0.8-0.3-1.7-0.5-2.5
					c-0.3-1.1-0.8-2.5-1.6-3.6c-0.7-1.2-1.7-2.1-2.8-2.6c-0.2-0.1-0.4,0-0.6,0.1C53.1,168,53,168.2,53.2,168.5L53.2,168.5
					L53.2,168.5z"/>
			</g>
			<g>
				<path class="st25" d="M62.4,166.1c-0.5,0.4-0.9,1-1.3,1.6c-0.4,0.6-0.7,1.3-1,1.9c-0.3,0.7-0.6,1.4-0.9,2.1
					c-0.3,0.7-0.5,1.4-0.7,2.1c-0.2,0.7-0.3,1.4-0.5,2.1c-0.1,0.7-0.2,1.5-0.3,2.2c-0.1,0.5-0.2,1.3-0.1,2c0,0.7,0.2,1.4,0.6,1.7
					c0.1,0.1,0.2,0.1,0.3,0.1s0.2,0,0.3-0.1c0.3-0.4,0.4-1,0.4-1.5c0-0.6-0.1-1.2-0.1-1.7c0-0.7,0-1.5,0.1-2.2s0.2-1.4,0.4-2.2
					c0.2-0.7,0.4-1.3,0.6-2c0.2-0.7,0.5-1.3,0.8-1.9c0.3-0.6,0.7-1.3,1.1-1.9c0.4-0.6,0.8-1.2,1-1.9c0.1-0.2,0-0.4-0.1-0.6
					C62.8,165.9,62.6,165.9,62.4,166.1L62.4,166.1L62.4,166.1z"/>
			</g>
			<g>
				<path class="st26" d="M61.9,175.6c-1.1,0.7-2,1.7-2.8,2.9c-0.7,1.2-1.2,2.5-1.4,3.8c-0.1,0.4,0.2,0.7,0.5,0.8s0.7,0,0.8-0.5
					c0.3-1.3,0.8-2.4,1.3-3.5c0.6-1.1,1.2-2.1,1.9-3.2c0.1-0.1,0-0.2,0-0.3C62.1,175.6,62,175.6,61.9,175.6L61.9,175.6L61.9,175.6z"
					/>
			</g>
		</g>
		<g>
			<polygon class="st5" points="62.2,188 54.6,188 46.9,188 46.9,188 46.9,187.9 47,187.4 47.1,186.8 47.8,183.7 48.5,180.5 
				48.5,180.5 48.5,180.4 50.3,177.8 52,175.1 52.1,175 52.2,174.9 52.2,174.9 52.2,174.9 52.2,174.9 52.2,174.9 52.4,174.9 
				52.6,174.9 52.6,174.9 52.7,174.9 55,175.3 57.4,175.6 57.4,175.7 57.5,175.7 57.5,175.7 57.5,175.7 57.5,175.7 57.5,175.7 
				57.6,175.7 57.6,175.8 57.6,175.8 57.6,175.8 59.1,178.1 60.6,180.3 60.6,180.3 60.6,180.3 60.6,180.3 60.6,180.3 60.7,180.3 
				60.7,180.4 60.9,180.8 61.2,181.2 61.2,181.2 61.2,181.2 61.2,181.2 61.2,181.2 61.6,184 62.1,186.8 62.1,187.3 62.2,187.9 
				62.2,187.9 			"/>
			<polygon class="st4" points="59.7,188 57.2,188 54.8,188 54.7,187.7 54.7,187.4 54.2,184.1 53.7,180.8 53.7,180.8 53.7,180.8 
				53.7,180.8 53.7,180.8 53.7,180.8 53.7,180.8 55.2,179.5 56.6,178.2 56.8,178.6 57,179 57,179 57,179 57.1,179.2 57.2,179.4 
				57.2,179.4 57.2,179.4 58.2,181.7 59.2,184 59.2,184 59.2,184.1 59.4,185.4 59.5,186.8 59.6,187.4 			"/>
			<path class="st12" d="M62.2,187.9L62.2,187.9c-0.1,0-0.2,0-0.2,0.1h-1.2h-1.2c0-0.2,0-0.3-0.1-0.5c0-0.2-0.1-0.4-0.1-0.6
				c-0.1-0.5-0.1-1-0.2-1.5c-0.1-0.5-0.1-0.9-0.1-1.3l0,0l0,0c0-0.3-0.1-0.5-0.1-0.7s0-0.3,0-0.3l0.8-1.4l0.8-1.4l0,0l0,0l0.3,0.4
				l0.3,0.4l0,0l0,0l0,0l0,0l0.4,2.8l0.4,2.8l0.1,0.5L62.2,187.9z"/>
			<polygon class="st3" points="61.2,181.2 60.2,182.6 59.2,184.1 59.2,184.1 59.2,184.1 58.2,181.8 57.2,179.6 57.1,179.4 
				57,179.1 57.2,177.4 57.4,175.6 57.5,175.7 57.5,175.7 57.6,175.7 57.6,175.8 59.1,178.1 60.6,180.3 60.9,180.7 			"/>
			<polygon class="st5" points="53.7,180.8 51.1,180.7 48.5,180.5 48.5,180.5 48.5,180.4 50.3,177.6 52.2,174.9 52.2,174.9 
				52.2,174.9 52.5,174.9 52.7,174.9 53.2,177.9 			"/>
			<polygon class="st7" points="57.6,175.8 57.4,177.7 57.2,179.6 57.2,179.6 57.2,179.6 55.4,180.2 53.7,180.8 53,177.9 
				52.2,174.9 54.8,175.3 57.4,175.6 57.5,175.7 57.5,175.7 57.6,175.7 			"/>
			<polygon class="st10" points="55,188 50.9,188 46.9,188 46.9,188 46.9,187.9 47.5,187.3 48.1,186.6 50.9,183.7 53.7,180.8 
				53.7,180.8 53.7,180.8 53.7,180.8 53.7,180.8 54.3,184.2 54.9,187.5 55,187.7 			"/>
		</g>
		<path class="st23" d="M63.4,188.1h-8.8h-8.8l0,0l0,0l0.1-0.7l0.1-0.7c0.2,0,0.4-0.1,0.6-0.1c0.2,0,0.4-0.1,0.6-0.1
			c0.7-0.1,1.4-0.1,2.1-0.1c0.7,0,1.5,0.1,2.2,0.2c0.8,0.1,1.4,0.3,1.9,0.4c0.5,0.2,0.9,0.3,1.4,0.4h0.1H55c0.2,0,0.4,0.1,0.7,0.1
			c0.2,0,0.5,0,0.8,0c0.7-0.1,1.2-0.2,1.8-0.4c0.6-0.1,1.2-0.3,2-0.4l0,0l0,0c0.2,0,0.3,0,0.5,0s0.3,0,0.5,0c0.3,0,0.6,0,0.9,0
			c0.3,0,0.7,0,1,0.1l0.1,0.6L63.4,188.1L63.4,188.1L63.4,188.1z"/>
		<g>
			<g>
				<path class="st24" d="M255.8,170.4c0.3,0.4,0.6,0.8,0.9,1.1c0.3,0.4,0.6,0.7,0.9,1.2c0.3,0.4,0.5,0.9,0.7,1.4s0.3,1,0.4,1.5
					c0.1,0.6,0.2,1.2,0.2,1.8s0,1.2,0,1.8c0,0.5,0,1,0,1.5c0.1,0.5,0.2,0.9,0.5,1.3c0.1,0.2,0.4,0.2,0.6,0.2s0.4-0.1,0.5-0.3
					c0.3-0.5,0.3-1,0.3-1.6c-0.1-0.6-0.2-1.2-0.3-1.7c-0.1-0.6-0.2-1.3-0.3-1.9c-0.1-0.6-0.2-1.3-0.4-1.9c-0.2-0.9-0.6-1.9-1.2-2.8
					c-0.6-0.9-1.3-1.7-2.2-2c-0.2-0.1-0.3,0-0.5,0.1C255.8,170.1,255.7,170.2,255.8,170.4L255.8,170.4L255.8,170.4z"/>
			</g>
			<g>
				<path class="st25" d="M264.3,164.5c-0.5,0.4-0.9,1-1.3,1.6s-0.7,1.3-1,1.9c-0.3,0.7-0.6,1.4-0.9,2.1c-0.3,0.7-0.5,1.4-0.7,2.1
					c-0.2,0.7-0.3,1.4-0.5,2.1c-0.1,0.7-0.2,1.5-0.3,2.2c-0.1,0.5-0.2,1.3-0.1,2c0,0.7,0.2,1.4,0.6,1.7c0.1,0.1,0.2,0.1,0.3,0.1
					c0.1,0,0.2,0,0.3-0.1c0.3-0.4,0.4-1,0.4-1.5c0-0.6-0.1-1.2-0.1-1.7c0-0.7,0-1.5,0.1-2.2s0.2-1.4,0.4-2.1c0.2-0.7,0.4-1.3,0.6-2
					s0.5-1.3,0.8-1.9c0.3-0.6,0.7-1.3,1.1-1.9c0.4-0.6,0.8-1.2,1-1.9c0.1-0.2,0-0.4-0.1-0.6C264.7,164.3,264.5,164.3,264.3,164.5
					L264.3,164.5L264.3,164.5z"/>
			</g>
			<g>
				<path class="st26" d="M263.9,174c-1.1,0.7-2,1.7-2.8,2.9c-0.7,1.2-1.2,2.5-1.4,3.8c-0.1,0.4,0.2,0.7,0.5,0.8s0.7,0,0.8-0.5
					c0.3-1.3,0.8-2.4,1.3-3.5c0.6-1.1,1.2-2.1,1.9-3.2c0.1-0.1,0-0.2,0-0.3C264.1,174,264,173.9,263.9,174L263.9,174L263.9,174z"/>
			</g>
		</g>
		<g>
			<path class="st22" d="M257.7,182.7c0.7,0,1.4,0,2,0c0.7,0,1.3,0.1,2,0.3c0-0.4,0-0.7,0-1.1c0-0.4,0-0.7,0-1.1
				c-0.5,0-0.9-0.1-1.3-0.1c-0.4-0.1-0.9-0.1-1.3-0.2c0,0.3,0.1,0.7,0.1,1s0.1,0.7,0.1,1c0.2-0.2,0.5-0.2,0.7-0.2c0.3,0,0.5,0,0.8,0
				c0.4,0,0.7-0.5,0.8-1c0.1-0.5-0.1-1-0.6-1.2c-0.4-0.1-0.7-0.2-1.1-0.2s-0.7,0-1.1,0c0,0.4,0.1,0.7,0.1,1.1c0,0.4,0.1,0.7,0.1,1.1
				c0.3-0.1,0.6-0.1,0.8-0.2c0.3-0.1,0.6-0.1,0.8-0.2c0.2,0,0.5-0.1,0.7-0.2c0.3-0.1,0.6-0.1,0.7,0c0.5,0.3,0.9,0,1.2-0.5
				c0.2-0.5,0.2-1.1-0.3-1.4c-0.6-0.4-1.4-0.4-2.2-0.2c-0.8,0.2-1.6,0.5-2.2,0.6c-0.5,0.1-0.6,0.7-0.6,1.2c0.1,0.5,0.3,1,0.8,1
				c0.3,0,0.6,0,0.9,0s0.6,0.1,0.9,0.1c0-0.4,0.1-0.7,0.1-1.1c0-0.4,0.1-0.7,0.1-1.1c-0.4,0-0.8,0.1-1.2,0.1
				c-0.4,0.1-0.8,0.2-1.1,0.5c-0.3,0.2-0.4,0.7-0.4,1.1c0,0.4,0.2,0.8,0.6,0.9c0.5,0.1,1,0.2,1.6,0.3c0.5,0.1,1,0.1,1.6,0.2
				c0.6,0,0.8-0.5,0.8-1s-0.3-1.1-0.8-1.2c-0.7-0.1-1.3-0.2-2-0.2s-1.3-0.1-2,0c-0.5,0-0.8,0.6-0.8,1.1
				C256.8,182.2,257.1,182.7,257.7,182.7L257.7,182.7L257.7,182.7z"/>
		</g>
		<g>
			<path class="st23" d="M43.8,189.4c0.4-0.1,0.8-0.2,1.1-0.3c0.4-0.1,0.8-0.3,1.1-0.4c0.1,0,0.1-0.2,0.2-0.3c0-0.1,0-0.2-0.2-0.3
				c-0.1,0-0.2-0.1-0.4-0.1c-0.1,0-0.2,0-0.4,0c-0.1,0-0.3,0-0.4,0c-0.2,0-0.4,0-0.4-0.1c0,0.1,0,0.2,0,0.2c0,0.1,0,0.2,0,0.2
				c0.2,0,0.4-0.2,0.5-0.4c0.2-0.2,0.3-0.4,0.5-0.4c0.1,0,0.2,0,0.2,0c0.1,0,0.2,0,0.2-0.1c0.1-0.1,0.2-0.1,0.3-0.2
				c0.1-0.1,0.2-0.1,0.3-0.1s0.2-0.2,0.2-0.3s-0.1-0.3-0.2-0.3c-0.4,0-0.8-0.1-1.2-0.1s-0.8,0.1-1.1,0.4c-0.1,0.1-0.1,0.3-0.1,0.4
				c0.1,0.1,0.2,0.2,0.3,0.1c0.3-0.3,0.6-0.4,1-0.3c0.4,0,0.7,0.1,1.1,0.1c0-0.1,0-0.2,0-0.3s0-0.2,0-0.3c-0.2,0-0.4,0.1-0.6,0.2
				c-0.2,0.1-0.4,0.2-0.6,0.2c-0.1,0-0.1,0-0.2,0.1c-0.1,0-0.1,0.1-0.2,0.1c-0.1,0.1-0.2,0.2-0.3,0.4c-0.1,0.1-0.2,0.2-0.3,0.3
				c-0.1,0-0.1,0.1-0.1,0.2c0,0.1,0,0.2,0.1,0.3s0.1,0.1,0.2,0.2c0.1,0,0.2,0,0.3,0c0.2,0,0.4,0,0.7,0c0.2,0,0.4,0,0.7,0.1
				c0-0.1,0-0.2,0-0.3s0-0.2,0-0.3c-0.4,0.2-0.7,0.3-1.1,0.4c-0.4,0.1-0.8,0.2-1.1,0.3c-0.1,0-0.2,0.2-0.1,0.3
				C43.6,189.4,43.7,189.5,43.8,189.4L43.8,189.4L43.8,189.4z"/>
		</g>
		<g>
			<path class="st23" d="M44.8,188.3c0.2,0,0.4,0,0.6,0.1c0.2,0.1,0.4,0.2,0.6,0.2c0-0.1,0-0.2,0-0.3s0-0.2,0-0.3
				c-0.2,0-0.4-0.1-0.5-0.3c-0.2-0.2-0.4-0.4-0.5-0.5c0,0.1,0,0.2,0,0.3s0,0.2,0,0.3c0.1,0,0.2,0,0.3,0.1s0.2,0.1,0.3,0.2
				c0.1,0.1,0.3,0.2,0.4,0.2c0.1,0.1,0.3,0.2,0.4,0.3c0-0.1,0-0.2,0-0.3s0-0.2,0-0.3c-0.1,0-0.2-0.1-0.3-0.1
				c-0.1-0.1-0.3-0.2-0.3-0.2c-0.1-0.1-0.2-0.1-0.3-0.2c-0.1-0.1-0.2-0.1-0.3-0.2c0,0.1-0.1,0.2-0.1,0.3s-0.1,0.2-0.1,0.3
				c0.1,0,0.2,0.1,0.4,0.1c0.1,0,0.2,0.1,0.4,0.1c0.1,0,0.2,0,0.2-0.2c0-0.1,0-0.3-0.1-0.4c0,0-0.3-0.2-0.5-0.3s-0.5-0.3-0.5-0.2
				c0,0,0.2,0,0.5-0.1s0.5-0.2,0.5-0.2c0.4-0.1,0.7,0,1,0s0.5-0.2,0.5-0.8c0-0.1,0-0.2,0-0.2c0-0.1-0.1-0.1-0.2-0.1
				c-0.1,0-0.2,0.1-0.3,0.1s-0.2,0.1-0.3,0.1c-0.2,0.1-0.3,0.1-0.5,0.1s-0.3,0-0.5,0s-0.5,0.1-0.7,0.1c-0.2,0.1-0.4,0.2-0.7,0.3
				c-0.1,0.1-0.1,0.2-0.1,0.4c0.1,0.1,0.2,0.2,0.3,0.1c0.3-0.2,0.5-0.3,0.8-0.3c0.3-0.1,0.5-0.1,0.8-0.1c0.2,0,0.4-0.1,0.7-0.1
				c0.2-0.1,0.4-0.1,0.6-0.2c0-0.1-0.1-0.1-0.1-0.2c0-0.1-0.1-0.1-0.1-0.2c0,0.3-0.1,0.4-0.2,0.4c-0.1,0-0.3,0-0.4,0
				c-0.1,0-0.2,0-0.3,0s-0.2,0-0.3,0.1c-0.2,0.1-0.3,0.1-0.5,0.1s-0.3,0.1-0.5,0.1c-0.1,0-0.1,0-0.2,0c-0.1,0-0.1,0.1-0.2,0.1
				c-0.3,0.4,0,0.7,0.4,0.9s0.9,0.4,1,0.5c0-0.1,0.1-0.2,0.1-0.3s0.1-0.2,0.1-0.3c-0.1,0-0.2-0.1-0.4-0.1c-0.1,0-0.2-0.1-0.4-0.1
				c-0.1,0-0.2,0.1-0.2,0.2c0,0.1,0,0.3,0.1,0.3c0.2,0.1,0.5,0.4,0.8,0.5c0.3,0.2,0.6,0.3,0.8,0.3c0.1,0,0.1-0.1,0.2-0.2
				c0-0.1,0-0.2-0.1-0.3c-0.2-0.1-0.5-0.4-0.8-0.6c-0.3-0.2-0.7-0.3-0.9-0.2c-0.1,0-0.1,0.1-0.1,0.2c0,0.1,0,0.2,0.1,0.3
				c0.2,0.2,0.4,0.4,0.6,0.6c0.2,0.2,0.4,0.3,0.7,0.3c0.1,0,0.2-0.1,0.2-0.3c0-0.1-0.1-0.3-0.2-0.3c-0.1,0-0.2-0.1-0.4-0.1
				c-0.1-0.1-0.2-0.1-0.3-0.2c-0.1,0-0.2,0-0.3,0s-0.2,0-0.3,0s-0.2,0.2-0.1,0.3C44.6,188.2,44.7,188.3,44.8,188.3L44.8,188.3
				L44.8,188.3z"/>
		</g>
		<path class="st27" d="M283.3,160.3c-0.1,0-0.5,0.1-0.9,0.1c-0.4,0.1-0.8,0.1-0.9,0.1c-2.4,0.4-3.6,0.5-4.3,0.7
			c-0.7,0.1-0.9,0.1-1.1,0.2c-0.3,0.1-0.6,0.1-0.9,0.2c-0.3,0.1-0.5,0.1-0.8,0.2c0.1-0.4,0.1-0.8,0.2-1.2s0.1-0.9,0.2-1.3
			c0-0.2,0.1-0.4,0.1-0.6c0-0.2,0.1-0.4,0.1-0.6c2,0.4,3.9,0.9,5.4,1.3C281.9,159.9,282.9,160.2,283.3,160.3z"/>
		<path class="st27" d="M22.7,152.6c-0.1,0.2-0.3,0.5-0.5,0.8s-0.3,0.6-0.5,0.9c-0.1,0.2-0.2,0.4-0.3,0.7c-0.1,0.2-0.2,0.4-0.3,0.6
			c-0.2,0.4-0.3,0.7-0.5,1c-0.1,0.3-0.2,0.6-0.3,0.8l-2.6,0.6l-2.6,0.6c-0.3-0.2-0.6-0.5-0.9-0.7c-0.3-0.2-0.5-0.4-0.7-0.6
			c0.1-0.3,0.2-0.6,0.4-0.9c0.1-0.3,0.3-0.6,0.4-0.9c0,0,0-0.1,0.1-0.1c0,0,0-0.1,0.1-0.1c0.2-0.2,0.5-0.5,0.8-0.8s0.7-0.6,1.2-0.8
			c0.5-0.3,1-0.5,1.5-0.7c0.5-0.1,0.9-0.2,1.3-0.3c0.5-0.1,1-0.1,1.6-0.2C21.4,152.6,22.1,152.6,22.7,152.6z"/>
	</g>
</g>
</svg>
