<?xml version="1.0" encoding="UTF-8"?><svg id="a" xmlns="http://www.w3.org/2000/svg" viewBox="0 0 268.6 208.72"><defs><style>.b{fill:#d1d3d3;}.c{fill:#262626;}.d{fill:#fff;}.e{fill:#fbd81e;}.f{fill:#bfbfbf;}.g{opacity:.5;}.h{fill:#dd971b;}.i{fill:#363838;}.j{fill:#227f04;}.k{fill:#36c108;}.l{fill:#8a561f;}.m{fill:#aed8e5;}.n{fill:#444647;}.o{fill:#c8e5e8;}.p{fill:#333;}.q{fill:#676566;}.r{fill:#a3ced8;}.s{fill:#4f4f4f;}.t{fill:#dee2e3;}.u{fill:#28ae02;}.v{fill:#28201d;}.w{fill:#3d2503;}</style></defs><path class="g" d="M39.21,205.16c-2.13,0-4.26-.29-6.32-.87-.5-.14-1-.3-1.56-.51-1-.15-1.99-.35-2.95-.62-6.54-1.83-11.89-6.31-15.06-12.62-3.09-6.15-3.74-13.33-1.81-20.21,.77-2.74,1.9-5.3,3.36-7.63l-2.68-.76c-1.42-.41-2.6-1.42-3.2-2.78-.6-1.35-.57-2.91,.08-4.24,.35-.71,7.83-15.54,23.53-19.4-1.4-4.82-1.95-9.9-2.15-13.47-.48-.76-.94-1.4-1.36-1.9-1.04-1.23-1.85-2.78-2.49-4.73-1.52-2.78-1.94-6.36-2.05-8.35-.12-2.17,0-4.24,.37-6.04,.01-4.18,.31-7.43,.32-7.57,.15-1.68,1.14-3.17,2.63-3.96,.63-.34,1.67-.87,2.85-1.4-.31-2.63-.63-5.66-.63-6.91,0-2.25,1.1-3.94,2.61-5.2-.31-1.17-.2-2.42,.35-3.52L53.1,30.12c-.52-.88-.76-1.93-.66-3,.19-1.98,1.53-3.64,3.38-4.27,.64-1.89,1.63-3.47,2.22-4.33,.69-.99,1.71-1.7,2.88-2,1.21-.31,29.9-7.58,44.39-7.58h.19c.57-.23,1.18-.35,1.8-.36,0,0,1.92-.02,5.31-.02,31.63,0,107.08,1.54,124.59,15.76,16.08,13.07,17.48,40.65,18.41,58.91,.25,4.99,.51,10.14,1.07,11.88,.14,.43,.21,.87,.23,1.31l1.32,32.28c4.22,6.09,3.94,15.93,3.82,18-.06,1.07-.45,2.06-1.1,2.87l3.94,15.97c.37,1.51,.02,3.1-.95,4.32-.95,1.19-2.39,1.88-3.91,1.88-.03,0-.06,0-.09,0,0,0-1.79-.03-4.75-.11-2.86,8.24-8.56,14.12-14.98,15.34-.47,.22-.98,.37-1.52,.43-.13,.02-1.33,.15-3.07,.15h0c-8.02,0-14.13-2.7-17.2-7.61-1.8-2.88-3.11-6.4-3.82-10.2-9.46-.77-13.93-1.59-16.34-2.47l-18.7,3.4c-1.32,2.18-3.72,3.2-4.86,3.58-.19,.06-.39,.12-.59,.16-1.47,.3-36.21,7.36-45.41,8.58-1.4,.19-2.82,.28-4.22,.28-6.12,0-10.69-1.76-12.92-2.85-1.37,.03-3.7,.06-6.59,.06-31.65,0-35.03-4.01-36.65-5.93-.83-.99-1.49-1.9-2.03-2.75-.26,.04-.52,.06-.78,.06-.2,0-.41-.01-.61-.04,.81,4.24,.65,8.75-.58,13.15-3.32,11.88-13.66,20.18-25.14,20.18ZM201.22,61.81c-.61,2.2-2.05,7.33-1.06,8.96,.21,.34,.86,.54,1.37,.64,2.68,.54,6.19,.97,10.31,1.27,.17-4.11,.24-7.88,.21-11.29-1.97-.16-4.08-.28-6.06-.28-2.46,0-3.89,.18-4.68,.34-.03,.12-.06,.23-.1,.35Zm-78.49-13.91c.12,6.07,.27,13.31,.54,21.91,1.71-.09,3.77-.17,6-.22,2.5-15,3.51-21.68,3.91-24.65-1.88-.54-5.35-1.17-10.55-1.6,.03,1.45,.06,2.97,.09,4.56Z"/><path class="d" d="M34.21,200.16c-2.13,0-4.26-.29-6.32-.87-.5-.14-1-.3-1.56-.51-1-.15-1.99-.35-2.95-.62-6.54-1.83-11.89-6.31-15.06-12.62-3.09-6.15-3.74-13.33-1.81-20.21,.77-2.74,1.9-5.3,3.36-7.63l-2.68-.76c-1.42-.41-2.6-1.42-3.2-2.78-.6-1.35-.57-2.91,.08-4.24,.35-.71,7.83-15.54,23.53-19.4-1.4-4.82-1.95-9.9-2.15-13.47-.48-.76-.94-1.4-1.36-1.9-1.04-1.23-1.85-2.78-2.49-4.73-1.52-2.78-1.94-6.36-2.05-8.35-.12-2.17,0-4.24,.37-6.04,.01-4.18,.31-7.43,.32-7.57,.15-1.68,1.14-3.17,2.63-3.96,.63-.34,1.67-.87,2.85-1.4-.31-2.63-.63-5.66-.63-6.91,0-2.25,1.1-3.94,2.61-5.2-.31-1.17-.2-2.42,.35-3.52L48.1,25.12c-.52-.88-.76-1.93-.66-3,.19-1.98,1.53-3.64,3.38-4.27,.64-1.89,1.63-3.47,2.22-4.33,.69-.99,1.71-1.7,2.88-2,1.21-.31,29.9-7.58,44.39-7.58h.19c.57-.23,1.18-.35,1.8-.36,0,0,1.92-.02,5.31-.02,31.63,0,107.08,1.54,124.59,15.76,16.08,13.07,17.48,40.65,18.41,58.91,.25,4.99,.51,10.14,1.07,11.88,.14,.43,.21,.87,.23,1.31l1.32,32.28c4.22,6.09,3.94,15.93,3.82,18-.06,1.07-.45,2.06-1.1,2.87l3.94,15.97c.37,1.51,.02,3.1-.95,4.32-.95,1.19-2.39,1.88-3.91,1.88-.03,0-.06,0-.09,0,0,0-1.79-.03-4.75-.11-2.86,8.24-8.56,14.12-14.98,15.34-.47,.22-.98,.37-1.52,.43-.13,.02-1.33,.15-3.07,.15h0c-8.02,0-14.13-2.7-17.2-7.61-1.8-2.88-3.11-6.4-3.82-10.2-9.46-.77-13.93-1.59-16.34-2.47l-18.7,3.4c-1.32,2.18-3.72,3.2-4.86,3.58-.19,.06-.39,.12-.59,.16-1.47,.3-36.21,7.36-45.41,8.58-1.4,.19-2.82,.28-4.22,.28-6.12,0-10.69-1.76-12.92-2.85-1.37,.03-3.7,.06-6.59,.06-31.65,0-35.03-4.01-36.65-5.93-.83-.99-1.49-1.9-2.03-2.75-.26,.04-.52,.06-.78,.06-.2,0-.41-.01-.61-.04,.81,4.24,.65,8.75-.58,13.15-3.32,11.88-13.66,20.18-25.14,20.18ZM196.22,56.81c-.61,2.2-2.05,7.33-1.06,8.96,.21,.34,.86,.54,1.37,.64,2.68,.54,6.19,.97,10.31,1.27,.17-4.11,.24-7.88,.21-11.29-1.97-.16-4.08-.28-6.06-.28-2.46,0-3.89,.18-4.68,.34-.03,.12-.06,.23-.1,.35Zm-78.49-13.91c.12,6.07,.27,13.31,.54,21.91,1.71-.09,3.77-.17,6-.22,2.5-15,3.51-21.68,3.91-24.65-1.88-.54-5.35-1.17-10.55-1.6,.03,1.45,.06,2.97,.09,4.56Z"/><g><g><path class="v" d="M249.89,140.89l5.14,20.84s-59.01-1.08-61.18-4.87c-2.17-3.79,28.42-28.42,28.42-28.42,0,0,24.63-7.04,27.61,12.45Z"/><path class="v" d="M233.11,177.43s-11.37,1.35-15.43-5.14c-4.06-6.5-4.87-16.78-1.89-24.09,2.98-7.31,16.78-10.56,16.78-10.56l.54,39.79Z"/><path class="w" d="M158.39,24.42c-61.52,.61-47.51,8.53-47.51,8.53,0,0,22.54,.61,22.54,4.87s-10.96,67-10.96,67l29.84,4.26,67-9.14,4.26-57.86s-3.65-18.27-65.17-17.66Zm37.15,46.9c-9.14-1.83-4.87-12.79-3.65-17.66,1.22-4.87,24.36-1.22,24.36-1.22l2.44,20.71s-14.01,0-23.15-1.83Zm-29.22-51.2"/><path class="n" d="M204.68,102.38s-60.91-6.7-61.52,1.83c-.61,8.53,43.24,7.31,43.24,7.31l18.27-9.14Z"/><path class="v" d="M141.34,70.71s12.18-2.44,10.96,9.14c-1.22,11.57-2.44,21.32-8.53,21.93-6.09,.61-29.84-1.22-32.28-4.26-2.44-3.05,29.84-26.8,29.84-26.8Z"/><path class="n" d="M113.93,70.1s29.24-2.44,31.67,3.05c2.44,5.48,.61,25.58-6.09,26.8-6.7,1.22-24.97,0-28.02-2.44-3.05-2.44,2.44-27.41,2.44-27.41Z"/><polygon class="u" points="168.14 109.08 170.58 25.03 173.62 25.03 171.79 112.13 168.14 109.08"/><path class="e" d="M209.56,97.51s6.7-57.86-1.83-63.95c-8.53-6.09-96.23-3.65-96.23-3.65l-9.14-21.32s107.2-1.22,126.69,14.62c19.49,15.84,15.02,59.49,17.87,68.42l-37.36,5.89Z"/><polygon class="j" points="160.83 106.24 111.5 103.19 109.67 121.26 135.25 159.63 160.83 163.09 166.31 157.2 160.83 106.24"/><path class="h" d="M107.77,170.4s6.16,3.86,15.29,2.64c9.14-1.22,45.07-8.53,45.07-8.53,0,0,3.65-1.22,1.83-3.05-1.83-1.83-53.6,4.26-53.6,4.26l-9.75-9.14,1.15,13.81Z"/><path class="c" d="M143.17,153.54s15.84-4.67,17.66,9.54c0,0-47.51,12.38-49.94,3.86-2.44-8.53-1.22-15.23-1.22-15.23l33.5,1.83Z"/><path class="v" d="M140.73,122.48s3.65-3.05,4.26,15.23c.61,18.27,3.05,21.32-.61,21.93-3.65,.61-25.58,6.09-34.11-.61-8.53-6.7-4.26-35.94-4.26-35.94l34.72-.61Z"/><path class="n" d="M112.1,117s34.72-9.14,36.54-3.05c1.83,6.09-5.48,9.14-14.62,9.75-9.14,.61-22.54,1.83-23.75,0-1.22-1.83,1.83-6.7,1.83-6.7Z"/><path class="c" d="M170.58,108.47l36.54-7.92,3.65,25.58s-8.53,27.41-25.58,30.45c-17.05,3.05-24.97-17.05-14.62-48.12Z"/><path class="u" d="M30.35,114.09s0,14.62,5.14,21.93c5.14,7.31,21.93,17.6,25.45,20.3,3.52,2.71,1.89,4.87,6.23,10.02,4.33,5.14,40.61,4.06,40.61,4.06,0,0,8.12-40.33,5.96-92.85-2.17-52.52,.54-63.61-7.31-67.68-7.85-4.06-49.27,6.5-49.27,6.5,0,0-2.44,3.52-1.89,5.68,.54,2.17,2.98,16.51,2.98,16.51l-23.28,34.38s-4.87,1.35-4.87,3.25,1.08,10.29,1.08,10.29l-.81,27.61Z"/><path class="l" d="M59.86,143.32l-13.26-8.39,2.74,13.33c5.09,3.66,9.9,6.75,11.6,8.06,1.44,1.11,2.02,2.12,2.5,3.29l-3.58-16.29Z"/><ellipse class="s" cx="30.67" cy="172.09" rx="22.07" ry="20.1" transform="translate(-143.32 155.26) rotate(-74.37)"/><ellipse class="i" cx="35.18" cy="173.21" rx="22.07" ry="20.1" transform="translate(-141.11 160.43) rotate(-74.37)"/><path class="p" d="M25.21,88.91s4.06-2.17,5.96-2.44c0,0,2.71,.81,5.68,4.87,0,0,6.5,1.62,8.66,1.62s5.14-2.44,7.85-2.44,44.4-3.25,42.23,2.17c-2.17,5.41-54.95,13.26-54.95,13.26l-13.26-8.12-2.17-8.93Z"/><path class="c" d="M32.52,69.69l2.44,3.25s51.97,2.03,60.5,.81c8.53-1.22,12.18-4.06,11.78-14.21-.41-10.15-1.62-34.92-1.62-34.92,0,0-1.22-8.53-14.62-7.72-13.4,.81-38.58,5.68-38.58,5.68l2.03,.81v24.67l-21.93,21.62Z"/><path class="q" d="M59.86,143.32s-22.2-10.83-23.01-12.99c-.81-2.17-4.6-13.26-8.93-18.41-4.33-5.14-2.71-23.01-2.71-23.01,0,0,2.98,2.44,5.14,5.96,2.17,3.52,13.54,3.25,13.54,3.25,0,0,4.33-3.79,8.39-4.33,4.06-.54,42.23-1.89,42.23-1.89l-31.13,25.45s-15.7,1.35-3.52,25.99Z"/><path class="m" d="M104.8,64.01s0,6.49-12.99,7.31c-2.15,.13-5.21,.18-8.81,.16-2.21-.01-4.62-.04-7.16-.1-8.84-.18-19.2-.58-27.56-.94-2.57-.11-4.94-.22-7.04-.32-5.27-.25-8.72-.43-8.72-.43L54.44,23.4l6.54-.91,8.06-1.13,20.32-2.83s4.23-1.21,8.17,.69c1.98,.95,3.88,2.68,5.15,5.73,1.28,3.09,1.91,7.53,1.29,13.88l.82,25.18Z"/><path class="r" d="M102.69,24.95l-19.7,46.53c-2.21-.01-4.62-.04-7.16-.1,5.61-13.65,16-38.85,21.71-52.17,1.98,.95,3.88,2.68,5.15,5.73Z"/><path class="o" d="M69.05,21.36l-20.78,49.08c-2.57-.11-4.94-.22-7.04-.32,4.58-11.14,13.51-32.82,19.75-47.63l8.06-1.13Z"/><path class="p" d="M48.76,98.93s1.89,14.89,5.14,17.05c3.25,2.17,37.9-2.71,40.33-4.33,2.44-1.62,2.44-19.22,.27-19.76-2.17-.54-44.4,2.71-45.75,7.04Z"/><path class="c" d="M62.16,96.7l21.52-1.29s-15.43,.27-15.7,4.33c-.27,4.06-.27,12.99,3.25,13.54,3.52,.54,14.35-1.08,14.35-1.08,0,0-15.7,3.11-23.42,2.37v-17.87Z"/><ellipse class="f" cx="62.16" cy="105.63" rx="4.74" ry="8.93"/><path class="v" d="M79.08,114.63s-25.18,0-27.07,7.85c-1.89,7.85,1.08,13.26,1.08,13.26l6.77,7.58s-4.33-17.87-.54-21.93c3.79-4.06,19.76-6.77,19.76-6.77Z"/><path class="u" d="M14.25,153.75l-5.68-1.62s11.37-23.15,35.33-16.24l-29.64,17.87Z"/><path class="k" d="M60.54,161.87s-2.44-21.93-16.65-25.99c-14.21-4.06-29.64,17.87-29.64,17.87,0,0,6.9,2.84,17.46,.41,10.56-2.44,28.83,7.72,28.83,7.72Z"/><ellipse class="q" cx="35.74" cy="172.65" rx="13.6" ry="12.38" transform="translate(-140.15 160.56) rotate(-74.37)"/><path class="f" d="M29.67,101.49c.24,4.25-.71,7.77-2.13,7.85-1.42,.08-2.76-3.3-3-7.56-.24-4.25,.71-7.77,2.13-7.85,1.42-.08,2.76,3.3,3,7.56Z"/><circle class="t" cx="74.32" cy="130.44" r="6.36"/><circle class="b" cx="74.32" cy="130.44" r="4.71"/><polygon class="b" points="31.16 74.84 59.32 77.27 58.78 90.27 32.25 87.02 31.16 74.84"/><path class="u" d="M160.83,106.24v56.85l53.6-9.75s0-27.61,20.3-28.42l13.81,6.5-1.62-39.79s-37.36-1.62-39.79,8.93c-2.44,10.56-5.68,35.73-8.93,43.04-3.25,7.31-22.74,14.62-26.8,4.06-4.06-10.56,0-41.42,0-41.42h-10.56Z"/><path class="k" d="M214.16,150.09s8.39,2.71,11.1-1.89c2.71-4.6,0-8.12,9.47-10.83,9.47-2.71,11.64-2.71,11.91,1.89,.27,4.6,5.41,2.17,5.41,2.17,0,0,.81-14.89-5.96-17.32-6.77-2.44-31.13-1.62-31.94,25.99Z"/><ellipse class="i" cx="234.33" cy="157.54" rx="19.79" ry="12.64" transform="translate(46.11 368.01) rotate(-82.11)"/><path class="q" d="M241.43,158.52c-.85,6.15-4.72,10.69-8.65,10.14-3.92-.54-6.42-5.97-5.56-12.11,.85-6.15,4.72-10.69,8.65-10.14,3.92,.54,6.42,5.97,5.56,12.11Z"/></g><path class="c" d="M39.04,154.61l-6.82,18.18s-.38,6.82,6.82,3.79l8.71-20.46-8.71-1.52Z"/><path class="c" d="M228.08,140.97l9.09,13.64s-.38,10.23-4.17,5.68c-3.79-4.55-7.75-12.09-7.75-12.09l2.82-7.23Z"/></g></svg>