<?xml version="1.0" encoding="utf-8"?>
<!-- Generator: Adobe Illustrator 26.2.1, SVG Export Plug-In . SVG Version: 6.00 Build 0)  -->
<svg version="1.1" id="Layer_1" xmlns="http://www.w3.org/2000/svg" xmlns:xlink="http://www.w3.org/1999/xlink" x="0px" y="0px"
	 viewBox="0 0 220.8 160.8" style="enable-background:new 0 0 220.8 160.8;" xml:space="preserve">
<style type="text/css">
	.st0{opacity:0.5;fill:#020202;enable-background:new    ;}
	.st1{fill:#FFFFFF;}
	.st2{fill:#E8940F;}
	.st3{fill:#231F20;}
	.st4{fill:#8E3411;}
	.st5{fill:url(#SVGID_1_);}
	.st6{opacity:0.6;}
	.st7{fill:#FFD073;}
	.st8{fill:url(#SVGID_00000176723192135919168730000012416799033559109032_);}
	.st9{fill:url(#SVGID_00000140010863133358055820000012228784647490364037_);}
	.st10{fill:#C97506;}
	.st11{fill:#DA5232;}
	.st12{fill:#FFFFFF;stroke:#8E8E8E;stroke-width:0.5;stroke-miterlimit:10;}
	.st13{fill:#CC5729;stroke:#1D1D1B;stroke-width:0.5;stroke-miterlimit:10;}
	
		.st14{fill:url(#SVGID_00000183227250973590586480000004012498178356829089_);stroke:#1D1D1B;stroke-width:0.5;stroke-miterlimit:10;}
	.st15{fill:none;stroke:#000000;stroke-width:0.1424;stroke-miterlimit:10;}
	.st16{opacity:0.4;fill:#ABADAF;enable-background:new    ;}
	.st17{opacity:0.4;fill:#ABADAF;stroke:#1D1D1B;stroke-width:0.25;stroke-miterlimit:10;enable-background:new    ;}
	.st18{fill:#EE982A;}
	.st19{fill:url(#SVGID_00000089551446379607137530000011162434668917300866_);}
	.st20{fill:url(#SVGID_00000176753937579080228160000007581849772256903565_);}
	.st21{opacity:0.6;fill:#DA713B;enable-background:new    ;}
	.st22{opacity:0.5;fill:#FFFAC4;enable-background:new    ;}
	.st23{opacity:0.5;fill:#FFFFFF;enable-background:new    ;}
	.st24{fill:url(#SVGID_00000072282252779723230770000015300488717799187080_);}
	.st25{opacity:0.4;fill:#000068;enable-background:new    ;}
	.st26{fill:#C97506;stroke:#1D1D1B;stroke-width:0.25;stroke-miterlimit:10;}
	.st27{fill:#773413;}
</style>
<g>
	<path class="st0" d="M217.2,94.8c0-0.1-0.1-0.3-0.1-0.4c-4.8-13.3-4.1-15.4-2-21.6c0.3-0.9,0.6-1.8,0.9-2.8c0-0.1,0.1-0.2,0.1-0.3
		c2.6-10.3-0.6-18.2-3.8-23c-2-3-6.3-8-9.6-8.6c-0.3-0.1-0.7-0.1-1-0.1c-2.3,0-3.9,1.4-4.4,1.8c-1.3,1.2-3.2,3.5-8.5,11.1
		c0,0.1-0.1,0.1-0.1,0.2c-0.9,1.3-1.9,2.7-3,4.3c-1.9,2.8-3.5,5-4.8,6.7c-2.2,2.9-3.5,4.1-4.2,4.6c-0.5-0.4-1.2-1-1.8-1.7
		c-0.2-0.3-0.4-0.6-0.7-0.9c-0.2-0.3-0.5-0.5-0.7-0.7c-0.6-0.6-1.2-1.2-1.8-1.9l-0.7-0.7c-2.4-3.4-4.7-7.3-7-11.5
		c-1.8-3.4-3.1-6.2-4.8-9.7c-1.9-4-4.2-9.1-8.1-16.6c-1.3-2.6-5.4-10.4-12.8-10.4c-6.2,0-10.8,5.5-14.4,10c-0.1,0.2-0.3,0.3-0.4,0.5
		c-0.2-0.3-0.3-0.7-0.5-1.1c-0.4-0.9-0.8-1.8-1.4-2.8c-1.1-1.8-2.6-3.3-4.5-4.4c-2.3-1.5-4.9-2.3-7.7-2.3c-2.1,0-4.3,0.5-6.3,1.4
		c-1.6,0.8-2.9,1.1-3.7,1.1c-0.2,0-0.3,0-0.4-0.1c-0.2-0.1-0.4-0.3-0.6-0.5c-0.4-0.4-0.7-0.8-1-1.2c-0.3-0.3-0.5-0.7-0.8-0.9
		c-0.1-0.1-0.5-0.5-0.5-0.5c-0.4-0.5-0.8-0.9-1.3-1.3c-0.1-0.1-0.1-0.1-0.2-0.2c-0.1,0-0.4-0.3-0.5-0.4c-0.1-0.1-0.3-0.2-0.4-0.3
		s-0.2-0.2-0.4-0.3C93,9.2,92.9,9.1,92.7,9c-0.1-0.1-0.2-0.1-0.3-0.2c-0.2-0.1-0.4-0.2-0.6-0.3c-0.1-0.1-0.2-0.1-0.2-0.1
		c-0.2-0.1-0.5-0.2-0.6-0.3C91,8,90.9,8,90.8,8c-1.5-0.6-3-1-4.6-1c-6.1,0-10.7,4.8-12.9,7.1c-0.7,0.8-1.4,1.5-1.8,2
		c-0.2,0.3-0.5,0.6-0.7,0.8c-0.1,0-0.2-0.1-0.4-0.1c-0.9-0.3-1.9-0.4-2.8-0.4c-3.4,0-6.5,1.7-8.2,4.4c-1.5,2.2-1.8,4.9-1.1,7.5
		C33.8,39.2,19.9,57.6,15.4,64.2c-5.6,0.6-7.7,4.3-7.8,7.5c-0.1,1.9,0.7,3.3,1.3,4.4c-1.8,5.1,2.1,9.3,3.7,11.1
		c0.3,0.3,0.6,0.7,0.9,1c2.8,7.9,7.8,14.7,14.8,20.5c1.1,1.4,3.2,3.1,7.3,5.1c5.2,3.1,11.3,5.9,18.1,8.2c0.7,0.2,1.4,0.5,2.1,0.7
		c-1.9,5-2.9,9.4-2.8,13c-0.3,6.3,2.1,9.8,4.2,11.7c3.1,2.7,6.8,4.2,10.5,4.2c4.5,0,8.7-2,12.1-4.8c0.5,1.3,1.1,2.6,1.8,3.7
		c3,5.8,7,7.7,9.8,8.2c1.2,0.2,2.4,0.3,3.6,0.3c4.7,0,8.8-1.9,12-5.4c4.9-5.5,6.6-14.2,6-19.9c-0.1-1-0.3-2-0.5-2.9
		c5.2-0.3,10.2-1,15.1-2.1c0.6-0.1,1.2-0.3,1.7-0.4l0,0c7.6,2,14.5,4.5,18.5,6.7c2,1.1,9.1,4.7,15.9,4.7c5.8,0,10-2.8,11.7-7.7
		l0.1-0.3c0.1-0.2,0.1-0.3,0.2-0.5c0.1-0.4,0.2-0.8,0.3-1.3c0.1-0.7,0.2-1.4,0.2-2.2c0-0.2,0-0.5,0-0.7v-0.4c0-0.3,0-0.6,0-1
		s0-0.9-0.1-1.3v-0.2c0-0.2,0-0.3,0-0.5c0-0.6-0.1-1.2-0.2-1.8c0-0.1,0-0.1,0-0.2c-0.3-2.6-0.9-5.1-1.4-7.3c-0.5-2.4-1.3-6-1-7
		c0.7-1.4,1.2-2.7,1.5-4.1c0.7-0.6,1.3-1.3,1.9-1.8c1.7,2.8,3.9,5.4,6.8,7.9c0.6,0.5,1.2,1,1.8,1.4l0.1,0.1c1.7,1.3,3.6,2.5,5.6,3.6
		c0,0,0,0,0.1,0c4.3,2.4,8.3,3.9,10.3,4.6c3.8,1.3,5,1.3,5.5,1.3c0.3,0,0.7,0,1-0.1c0.2,0,0.4-0.1,0.7-0.2
		C212.5,118.5,221.3,110.3,217.2,94.8z"/>
	<path class="st1" d="M212.2,89.8c0-0.1-0.1-0.3-0.1-0.4c-4.8-13.3-4.1-15.4-2-21.6c0.3-0.9,0.6-1.8,0.9-2.8c0-0.1,0.1-0.2,0.1-0.3
		c2.6-10.3-0.6-18.2-3.8-23c-2-3-6.3-8-9.6-8.6c-0.3-0.1-0.7-0.1-1-0.1c-2.3,0-3.9,1.4-4.4,1.8c-1.3,1.2-3.2,3.5-8.5,11.1
		c0,0.1-0.1,0.1-0.1,0.2c-0.9,1.3-1.9,2.7-3,4.3c-1.9,2.8-3.5,5-4.8,6.7c-2.2,2.9-3.5,4.1-4.2,4.6c-0.5-0.4-1.2-1-1.8-1.7
		c-0.2-0.3-0.4-0.6-0.7-0.9c-0.2-0.3-0.5-0.5-0.7-0.7c-0.6-0.6-1.2-1.2-1.8-1.9l-0.7-0.7c-2.4-3.4-4.7-7.3-7-11.5
		c-1.8-3.4-3.1-6.2-4.8-9.7c-1.9-4-4.2-9.1-8.1-16.6c-1.3-2.6-5.4-10.4-12.8-10.4c-6.2,0-10.8,5.5-14.4,10c-0.1,0.2-0.3,0.3-0.4,0.5
		c-0.2-0.3-0.3-0.7-0.5-1.1c-0.4-0.9-0.8-1.8-1.4-2.8c-1.1-1.8-2.6-3.3-4.5-4.4c-2.3-1.5-4.9-2.3-7.7-2.3c-2.1,0-4.3,0.5-6.3,1.4
		c-1.6,0.8-2.9,1.1-3.7,1.1c-0.2,0-0.3,0-0.4-0.1c-0.2-0.1-0.4-0.3-0.6-0.5c-0.4-0.4-0.7-0.8-1-1.2c-0.3-0.3-0.5-0.7-0.8-0.9
		c-0.1-0.1-0.5-0.5-0.5-0.5c-0.4-0.5-0.8-0.9-1.3-1.3c-0.1-0.1-0.1-0.1-0.2-0.2c-0.1,0-0.4-0.3-0.5-0.4s-0.3-0.2-0.4-0.3
		c-0.1-0.1-0.2-0.2-0.4-0.3C88,4.2,87.9,4.1,87.7,4c-0.1-0.1-0.2-0.1-0.3-0.2c-0.2-0.1-0.4-0.2-0.6-0.3c-0.1-0.1-0.2-0.1-0.2-0.1
		c-0.2-0.1-0.5-0.2-0.6-0.3C86,3,85.9,3,85.8,3c-1.5-0.6-3-1-4.6-1c-6.1,0-10.7,4.8-12.9,7.1c-0.7,0.8-1.4,1.5-1.8,2
		c-0.2,0.3-0.5,0.6-0.7,0.8c-0.1,0-0.2-0.1-0.4-0.1c-0.9-0.3-1.9-0.4-2.8-0.4c-3.4,0-6.5,1.7-8.2,4.4c-1.5,2.2-1.8,4.9-1.1,7.5
		C28.8,34.2,14.9,52.6,10.4,59.2c-5.6,0.6-7.7,4.3-7.8,7.5c-0.1,1.9,0.7,3.3,1.3,4.4c-1.9,5.1,2,9.3,3.7,11c0.3,0.3,0.6,0.7,0.9,1
		c2.8,7.9,7.8,14.7,14.8,20.5c1.1,1.4,3.2,3.1,7.3,5.1c5.2,3.1,11.3,5.9,18.1,8.2c0.7,0.2,1.4,0.5,2.1,0.7c-1.9,5-2.9,9.4-2.8,13
		c-0.3,6.3,2.1,9.8,4.2,11.7c3.1,2.7,6.8,4.2,10.5,4.2c4.5,0,8.7-2,12.1-4.8c0.5,1.3,1.1,2.6,1.8,3.7c3,5.8,7,7.7,9.8,8.2
		c1.2,0.2,2.4,0.3,3.6,0.3c4.7,0,8.8-1.9,12-5.4c4.9-5.5,6.6-14.2,6-19.9c-0.1-1-0.3-2-0.5-2.9c5.2-0.3,10.2-1,15.1-2.1
		c0.6-0.1,1.2-0.3,1.7-0.4l0,0c7.6,2,14.5,4.5,18.5,6.7c2,1.1,9.1,4.7,15.9,4.7c5.8,0,10-2.8,11.7-7.7l0.1-0.3
		c0.1-0.2,0.1-0.3,0.2-0.5c0.1-0.4,0.2-0.8,0.3-1.3c0.1-0.7,0.2-1.4,0.2-2.2c0-0.2,0-0.5,0-0.7v-0.4c0-0.3,0-0.6,0-1s0-0.9-0.1-1.3
		V119c0-0.2,0-0.3,0-0.5c0-0.6-0.1-1.2-0.2-1.8c0-0.1,0-0.1,0-0.2c-0.3-2.6-0.9-5.1-1.4-7.3c-0.5-2.4-1.3-6-1-7
		c0.7-1.4,1.2-2.7,1.5-4.1c0.7-0.6,1.3-1.3,1.9-1.8c1.7,2.8,3.9,5.4,6.8,7.9c0.6,0.5,1.2,1,1.8,1.4l0.1,0.1c1.7,1.3,3.6,2.5,5.6,3.6
		c0,0,0,0,0.1,0c4.3,2.4,8.3,3.9,10.3,4.6c3.8,1.3,5,1.3,5.5,1.3c0.3,0,0.7,0,1-0.1c0.2,0,0.4-0.1,0.7-0.2
		C207.5,113.5,216.3,105.3,212.2,89.8z"/>
	<g>
		<g>
			<g>
				<g>
					<path class="st2" d="M69.8,32.6c0,0-0.7-0.9-8-6.6c-7.3-5.6-2-10.3,2.3-9c4.3,1.2,4.7-0.7,7.9-4c3.2-3.3,10.2-10.1,16.5-0.7
						c3.1,4.2,6.6,3.8,11.4,1.7s10.7-0.8,13.2,5.9c1.7,4.1,4.3,5,9.4,6c5.1,0.9,9.9,2.4,6.9,5.2C129,31.4,98,20.8,69.8,32.6z"/>
					<path class="st3" d="M70.1,32.5c-0.5-0.7-1.4-1.3-2.1-1.9c-1.3-1.1-2.6-2.1-3.9-3.1c-2-1.5-4.2-3-5.2-5.3
						c-0.6-1.4-0.4-2.9,0.6-3.9c1.7-1.8,3.9-1,5.9-0.7c3,0.5,4.6-2.1,6.4-4c1.9-2,4-4,6.5-5.2c4.1-1.8,7.5,0.8,9.8,4.1
						c1.7,2.4,4.3,3.6,7.1,3.2c3.8-0.6,6.8-3.1,10.8-2.2c1.8,0.4,3.3,1.5,4.6,2.8c1.4,1.5,1.9,3.5,2.9,5.3c1.6,2.8,4.8,3.7,7.7,4.3
						c2.4,0.5,4.8,0.8,7.1,1.8c0.9,0.4,1.8,1,1.6,2.1c-0.1,0.4-0.4,1.2-0.8,1.1c-1.5-0.3-2.9-0.7-4.3-1c-14.7-3.3-30.2-4.1-44.9-0.7
						c-3.6,0.8-7.1,2-10.4,3.4c-0.4,0.2,0.2,0.2,0.4,0.2c16.4-6.7,34.7-6.7,52-3.2c2,0.4,3.9,0.9,5.8,1.3c0.4,0.1,1.6,0.6,2,0.2
						c2.9-3-2.2-4.3-4.4-4.8c-3.7-0.9-8.1-1-10.6-4.3c-1.1-1.4-1.5-3.3-2.5-4.8c-0.9-1.4-2.2-2.6-3.7-3.3c-2.4-1.2-5.3-1.1-7.8-0.2
						c-1.9,0.7-3.6,1.6-5.6,1.8c-2.2,0.3-4.1-0.8-5.5-2.4c-1.3-1.5-2.3-3.1-3.9-4.3c-1-0.7-2.2-1.1-3.5-1.3
						C77,6.9,72.7,12,69.7,15.4c-0.9,1-1.8,1.9-3.3,1.9c-0.9,0-1.8-0.4-2.6-0.5c-1.1-0.1-2.1,0-3.1,0.4c-2.3,0.9-3.1,3.3-2.1,5.5
						c0.8,1.9,2.6,3.1,4.2,4.3s3.1,2.4,4.6,3.7c0.8,0.6,1.7,1.3,2.3,2.1C69.6,32.9,70.2,32.7,70.1,32.5z"/>
				</g>
				<g>
					<path class="st4" d="M69.3,23.4c0,0,0.4,0.3,0.9,0.7c0.5,0.4,1.2,1.1,1.8,1.7c0.6,0.7,1.2,1.4,1.6,2s0.6,1,0.6,1
						s-0.4-0.3-0.9-0.7c-0.5-0.5-1.2-1.1-1.8-1.8c-0.6-0.7-1.2-1.4-1.6-2C69.5,23.8,69.3,23.4,69.3,23.4z"/>
					<path class="st4" d="M73,21.2c0,0,0.3,0.3,0.7,0.8c0.4,0.5,0.9,1.2,1.3,1.9c0.4,0.7,0.8,1.5,1.1,2.1c0.3,0.6,0.4,1,0.4,1
						s-0.3-0.3-0.7-0.8c-0.4-0.5-0.9-1.2-1.3-1.9c-0.4-0.7-0.8-1.5-1.1-2.1C73.2,21.6,73,21.2,73,21.2z"/>
					<path class="st4" d="M82.1,18.9c0,0,0.2,0.4,0.5,0.9c0.3,0.6,0.6,1.3,0.9,2.1c0.3,0.8,0.5,1.6,0.6,2.2s0.1,1.1,0.1,1.1
						s-0.2-0.4-0.5-0.9c-0.3-0.6-0.6-1.3-0.8-2.2c-0.3-0.8-0.5-1.6-0.6-2.2C82.1,19.3,82.1,18.9,82.1,18.9z"/>
					<path class="st4" d="M87,19.4c0,0,0.2,0.3,0.3,0.8c0.1,0.5,0.3,1.1,0.4,1.8c0.1,0.6,0.1,1.3,0.1,1.8s-0.1,0.8-0.1,0.8
						s-0.2-0.3-0.3-0.8c-0.2-0.5-0.3-1.1-0.4-1.8c-0.1-0.6-0.1-1.3-0.1-1.8C86.9,19.7,87,19.4,87,19.4z"/>
				</g>
				<g>
					
						<radialGradient id="SVGID_1_" cx="2978.2461" cy="-407.0731" r="50.4728" gradientTransform="matrix(1.0093 -0.1599 -0.1722 -1.0361 -2995.9626 67.0189)" gradientUnits="userSpaceOnUse">
						<stop  offset="0" style="stop-color:#FFEB60"/>
						<stop  offset="0.126" style="stop-color:#FEE459"/>
						<stop  offset="0.3099" style="stop-color:#FAD245"/>
						<stop  offset="0.5281" style="stop-color:#F5B326"/>
						<stop  offset="0.7347" style="stop-color:#EE9001"/>
						<stop  offset="0.7398" style="stop-color:#DD5536"/>
					</radialGradient>
					<path class="st5" d="M122.6,25.7c-5.1-0.9-7.7-2-9.4-6.1c-2.5-6.8-8.4-8.2-13.2-6c-4.8,2.2-8.3,2.6-11.4-1.7
						c-2.7-4-5.5-5.1-8-4.8c2.3,0.3,4.7,1.5,6.3,4.1c3.6,5.7,5.8,6.7,13,4.8c11.2-3.8,16.5,10.4,7.2,7.6c-9.3-2.9-18.2,0.9-18.9-2.2
						s-2.3-6.8-1.9-2.9s-0.5,7.7-2.5,2.9c-2-4.9-4.1-6.8-2.7-1.2c1.4,5.5-0.6,7.5-3.7,4.6s-6.7-6.9-4.7-3.5c1.9,3.5,3.5,7.2,1.6,5.4
						c-1.9-1.8-7-7.4-5.7-4.9c1.2,2.5,5.7,6.3,3.3,6.7c-1.3,0.2-3.2,1-4.7,1.7c2.4,2,2.7,2.4,2.7,2.4c28.1-12,59.1-1.2,59.5-1.6
						C132.4,28.1,127.7,26.7,122.6,25.7z"/>
				</g>
				<g class="st6">
					<path class="st7" d="M64.9,19.2c8.2-0.2,8.5-3.7,11-7.3c2.5-3.5,5.2-6.7,10.2-2.9c-5.7-5-11.3,0.6-14.2,3.6
						c-3.2,3.3-3.6,5.3-7.9,4.1c-3.9-1.1-8.5,2.5-4.1,7.4C59.3,23,58,19.4,64.9,19.2z"/>
				</g>
			</g>
			<g>
				<path class="st3" d="M115.4,31.1c0,0,1.4-3.1,7.1-10.1c5.8-7,11.9-14,18.9-0.5c7.2,13.8,8.9,18.8,13,26.4
					c6.3,11.7,11.4,17.4,11.4,17.4l-8.4,15.4L115.4,31.1z"/>
				
					<linearGradient id="SVGID_00000152227637157691691100000007377409102752166528_" gradientUnits="userSpaceOnUse" x1="-4654.2539" y1="1183.0624" x2="-4605.3467" y2="1183.0624" gradientTransform="matrix(-0.999 4.359056e-02 -4.359056e-02 -0.999 -4433.8101 1430.964)">
					<stop  offset="0.5674" style="stop-color:#DA5934"/>
					<stop  offset="0.8652" style="stop-color:#DE6435"/>
					<stop  offset="0.9944" style="stop-color:#BF6B4E"/>
				</linearGradient>
				<path style="fill:url(#SVGID_00000152227637157691691100000007377409102752166528_);" d="M114.8,31.9c0,0,1.4-3.1,7.1-10.1
					c5.8-7,11.9-14,18.9-0.5c7.2,13.8,8.9,18.8,13,26.4c6.3,11.7,11.4,17.4,11.4,17.4l-8.4,15.4L114.8,31.9z"/>
				<path class="st4" d="M146.4,43.8c2.8,0.9,5.3,2.2,6.8,3c-0.6-1.1-1.1-2.2-1.6-3.2c-2.3-1-5.9-2.4-9-2.3
					c-5,0.1-14.9,0.8-14.9,0.8S141.7,42.3,146.4,43.8z M157.3,53.9c-0.7-1.2-1.4-2.4-2.2-3.8c-2.8-1.4-7.1-3.3-10.1-3.4
					c-4.9-0.2-11.2-0.3-11.2-0.3s12.6,1.7,17.1,4.2C153.1,51.7,155.4,53,157.3,53.9z M131.7,19.3c2-1,4.2-2,5.8-2.7
					c-1.1-1.2-2.2-1.9-3.2-2.3c-1.8,1.2-4.7,3.4-6.9,6.7c-3.5,5.2-9.3,13.3-9.3,13.3S127.7,21.3,131.7,19.3z M141.9,23.5
					c-0.3-0.6-0.6-1.2-0.9-1.8c-0.3-0.5-0.5-1-0.8-1.4c-2.3,0.1-6.1,0.7-8.3,3c-3.3,3.5-13.9,11.1-13.9,11.1s13.5-8.5,18.6-10
					C138.7,23.8,140.5,23.6,141.9,23.5z M159.4,57.4c-2.2-1.3-5.7-3.2-8.3-4c-4.2-1.2-10.3-1.5-10.3-1.5s7.4,1.3,11.1,3.1
					c2.3,1.2,6.6,3.5,9.3,5C160.6,59.2,160,58.3,159.4,57.4z M146.4,32.5c-0.6-1.2-1.2-2.4-1.8-3.8c-2.5-0.6-6.1-1.1-8.4,0.3
					c-3.9,2.2-16.3,6.4-16.3,6.4s14.1-4.6,18.1-3.9C140.8,31.9,144.5,32.3,146.4,32.5z M142.1,38.2c3.3,1,6.3,2.2,8.3,2.9
					c-0.4-1-0.9-1.9-1.4-3c-2.7-0.9-7.7-2.2-12.4-2c-6.8,0.3-13.7,1.6-13.7,1.6S136.7,36.5,142.1,38.2z"/>
			</g>
			<g>
				<path class="st3" d="M64.7,102.6c0,0-18.5,27.9-9.3,35.9s19.3-2.1,22.2-8.6c4.2-9.2-1-15.9-1-15.9L64.7,102.6z"/>
				
					<linearGradient id="SVGID_00000151526566206913290690000010864762817376501895_" gradientUnits="userSpaceOnUse" x1="-4565.9917" y1="1112.9807" x2="-4539.187" y2="1112.9807" gradientTransform="matrix(-0.999 4.359056e-02 -4.359056e-02 -0.999 -4433.8101 1430.964)">
					<stop  offset="0.5674" style="stop-color:#DA5934"/>
					<stop  offset="0.8652" style="stop-color:#DE6435"/>
					<stop  offset="0.9944" style="stop-color:#BF6B4E"/>
				</linearGradient>
				<path style="fill:url(#SVGID_00000151526566206913290690000010864762817376501895_);" d="M64.8,101.3c0,0-18.5,27.9-9.3,35.9
					c9.2,8,19.3-2.1,22.2-8.6c4.2-9.2-1-15.9-1-15.9L64.8,101.3z"/>
				<path class="st10" d="M58.8,120.5c1.6-6.5,5.8-17.7,6.2-19l0,0c-0.6,1.2-6.7,13.4-9.5,24.1c-1.1,4.1-1.5,7.3-1.7,9.6
					c0.4,0.6,0.8,1.2,1.4,1.7c0.7,0.6,1.3,1,2,1.4C56.7,135.4,56.5,129.7,58.8,120.5z M76.6,130c-1.2-0.6-2.7-2-3.6-4.2
					c-1.3-3.1-4.1-18.5-4.1-18.5s0.6,17.9,1.6,20.2c0.8,1.8,2,5.7,2.4,7.2C74.4,133.2,75.7,131.6,76.6,130z M66.3,103.6
					c0,0-4.4,15.4-5,23.4c-0.4,5.8-1.2,10.4-1.5,12.5c1.6,0.5,3.2,0.5,4.8,0.1c-0.5-1.6-1.8-6.8-1.4-12.8
					C63.7,119.4,66.3,103.6,66.3,103.6z M67.6,105.1c0,0-1.8,12.8-2.2,21.7c-0.3,6.5,0.7,10.5,1.2,12.2c1.7-0.6,3.2-1.6,4.7-2.8
					c-0.7-1-2.4-3.5-3-6.2C66.5,122.6,67.6,105.1,67.6,105.1z M77.9,127.3c0.7-1.9,1.1-3.6,1.2-5.2c-0.9-0.7-1.9-1.6-2.8-2.9
					c-2.5-3.4-4.9-9.4-4.9-9.4s0.8,6.5,2.1,10.5C74.5,123.4,76.9,126.2,77.9,127.3z"/>
			</g>
			<g>
				<path class="st11" d="M125.3,112.4c0,0,13.7,9.3,19.9,12.6c6.2,3.3,19.2,8.2,20.6-1.2c1.5-9.3-4.3-19.3-1.8-24.1
					c2.5-4.8,1-8,1-8L125.3,112.4z"/>
				<path class="st4" d="M143,112.3c-0.4,4.6-1.1,8-1.8,10.4c1.4,0.9,2.7,1.6,3.8,2.2c-0.2-0.5-0.4-1-0.5-1.6
					C143.1,118.7,143,112.3,143,112.3z M136.5,119.7c0.4,0.2,0.8,0.5,1.2,0.7c-0.1-3.1,0.5-7.2,0.5-7.2
					C137.5,115.4,137,117.7,136.5,119.7z M165.8,123.9c0.4-2.3,0.3-4.7,0-7c-1,0-2.7-0.2-4.5-2c-2.8-2.7-7.2-7.7-7.2-7.7
					s6,7.3,7.2,9.4c0.9,1.6,3,7,3.9,9.5C165.4,125.5,165.7,124.8,165.8,123.9z M147.3,110.8c0,0,2.1,9.8,1.1,15.8
					c1.6,0.7,3.4,1.4,5.2,1.9c-1.1-2.9-3.2-8.3-4-10.5C148.5,114.8,147.3,110.8,147.3,110.8z M150.9,109c0,0,3.7,8.8,5.2,12.9
					c0.7,2,1.1,5.1,1.2,7.3c2.4,0.3,4.7,0,6.2-1.2c-1.2-1.8-5.2-7.5-7.4-10.9C153.7,113.3,150.9,109,150.9,109z"/>
				<path class="st3" d="M165.8,123.9c1.5-9.3-4.3-19.3-1.8-24.1s1-8,1-8c-5.1,3.6-8.6,8.8-7.1,12c2.8,5.7,7.2,10.7,7.3,15.4
					c0.2,11.3-16.1,8.1-20.9,4.9c-5.4-3.6-15.5-14.4-15.5-14.4s-8,7.4-3.2,8.7c7.7,2,15.1,4.7,19.5,7.1
					C151.3,128.7,164.4,133.2,165.8,123.9z"/>
				<path class="st3" d="M155,100.4c0,0,2,7.7,6.3,11.4c0,0-5.6-2.9-8-11.3L155,100.4z"/>
				<path class="st3" d="M150.5,103.4c0,0,7.5,13.5,11.2,18c0,0-9.7-9.5-12-17.9L150.5,103.4z"/>
				<path class="st3" d="M147.8,102.3c0,0,4.4,14.8,7,20c0,0-7.4-11.4-7.8-20H147.8z"/>
				<path class="st3" d="M145.6,102.1c0,0,0.1,15.4,1.2,21.1c0,0-3.9-13-1.9-21.4L145.6,102.1z"/>
				<path class="st3" d="M143,99c0,0-2.5,15.2-2.4,21c0,0-1.6-13.5,1.8-21.4L143,99z"/>
				<path class="st3" d="M138.2,95.4c0,0-2.5,15.2-2.4,21c0,0-1.6-13.5,1.8-21.4L138.2,95.4z"/>
			</g>
			<g>
				<g>
					<g>
						<path class="st12" d="M181.2,81.2c2.1-7.9-0.1-16.5-1.5-20.9c-7.3,9.5-9.2,7.7-14.1,2.7c0.3,2,0.4,4.7,0.5,9.2
							c0,8.6,2.4,12.7,2.8,19.4c2.7-3,4.3-5.3,4.7-6.3c0.5,6.1,4,11,8.4,14.7C180.7,96.1,179.3,88.8,181.2,81.2z"/>
					</g>
				</g>
				<g>
					<g>
						<path class="st12" d="M149.1,58.7c1.5-4.1,2.1-7.7,2.4-10.2c-1.7-1.8-3.5-3.6-5.3-5.3c-6.3-6.3-13-11.8-21-15.4
							c-0.6,4.7-1.8,12-4.2,17.2c-3.9,8.3-4.9,12.2-1.7,24.8c3.2,12.6-0.8,27.8-1.1,30.3c-0.2,2.1,0.5,11.6,3.2,17.9
							c15-3.2,26.8-8.9,35.3-15.3c-1.9-5.5-0.4-12.1-3.6-18.3C149.2,77,146.3,66.6,149.1,58.7z"/>
					</g>
				</g>
				<g>
					<g>
						<path class="st12" d="M104.4,77.3c-1.2-6.9-2.6-12.4-3.1-22.8S90,34.9,83.9,28.2c-3-3.3-6.5-5.2-9.3-6.2
							c-6.4,1.1-12.4,3.2-17.8,5.4c2.7,0.1,6.8,1,11.3,5.2c8.2,7.6,10.8,14.8,10.4,22.7s2.8,12.6,3.7,17c0.9,4.4-3.5,10.9-12.9,18.7
							C60,98.7,59,101,58.9,103.5c0,1.7-5.2,4.9-8.5,8.2c10.9,3.7,23.2,6.4,35.8,8.1c2.6,0.3,5.2,0.6,7.6,0.7
							c3.2-6.5,3.7-16.7,3.7-23.6C97.6,89.3,105.6,84.1,104.4,77.3z"/>
					</g>
				</g>
				<g>
					<path class="st13" d="M118.1,100c0.3-2.5,4.3-17.7,1.1-30.3c-3.2-12.6-2.2-16.5,1.7-24.8c2.5-5.2,3.7-12.5,4.2-17.2
						c-0.2-0.1-0.5-0.2-0.7-0.3c-8-3.5-16.9-5.3-25.6-6.2C90,20.3,81.9,20.6,74.5,22c2.7,1,6.2,2.9,9.3,6.2
						c6.1,6.7,17,15.8,17.5,26.2s1.8,15.9,3.1,22.8c1.2,6.9-6.8,12.1-6.8,19.8c0,6.8-0.5,17.1-3.7,23.6c10.2,0.6,19.4-0.2,27.6-2
						C118.7,112.3,117.9,102.1,118.1,100z"/>
				</g>
				<g>
					<path class="st13" d="M58.9,103.5C59,101,60,98.7,69.4,90.9c9.4-7.7,13.8-14.3,12.9-18.7s-4.1-9.1-3.7-17s-2.2-15.1-10.4-22.7
						c-4.5-4.1-8.5-5.2-11.2-5.4c-29.6,12.6-43.8,37-43.8,37s-5.5-0.6-5.6,2.7c0,1.3,1.3,2.2,1.9,4.3c-3.2,4,1.4,6.7,3.4,9.5
						c5.4,15.8,19.4,25.4,37.4,31.5C53.6,108.8,58.8,105.2,58.9,103.5z"/>
				</g>
				<g>
					
						<linearGradient id="SVGID_00000067956224761574695440000002372004356732584067_" gradientUnits="userSpaceOnUse" x1="3546.2446" y1="1153.9672" x2="3685.1196" y2="1153.9672" gradientTransform="matrix(0.999 -4.359056e-02 -4.359056e-02 -0.999 -3385.6602 1385.228)">
						<stop  offset="0.5268" style="stop-color:#B05439"/>
						<stop  offset="0.8645" style="stop-color:#624229"/>
					</linearGradient>
					
						<path style="fill:url(#SVGID_00000067956224761574695440000002372004356732584067_);stroke:#1D1D1B;stroke-width:0.5;stroke-miterlimit:10;" d="
						M202.6,90.1c-3.7-12.2-5.8-12.3,0.2-29.1c4.3-11.9-3.7-19.5-7.3-22.3c-1.3,1.2-4,4.6-10.8,14.7c-1.9,2.8-3.6,5.1-5,7
						c1.4,4.4,3.6,13,1.5,20.9c-2,7.6-0.6,14.9,0.7,18.9c5.4,4.6,12.1,7.5,16.3,8.9C202.8,105.9,205.6,99.7,202.6,90.1z"/>
				</g>
				<path class="st3" d="M206.1,63.6c4-15.8-8.4-25.3-9.4-25.4c-0.3,0-0.6,0-1.3,0.5c3.6,2.8,11.6,10.4,7.3,22.3
					c-6,16.8-4,16.9-0.2,29.1c2.9,9.6,0.2,15.7-4.4,18.9c2.2,0.7,3.7,1,4,1c1.3-0.4,8.5-6.2,5.2-18.9
					C201.4,74.4,203.4,72.6,206.1,63.6z"/>
				<g>
					<path class="st13" d="M166,72.3c0-4.5-0.3-7.5-0.5-9.5c-0.2-0.2-0.4-0.4-0.7-0.7c-4.5-4.5-8.9-9.1-13.3-13.6
						c-0.3,2.5-0.9,6.1-2.4,10.2c-2.8,7.8,0,18.3,3.9,25.7c3.3,6.2,1.8,12.8,3.6,18.3c5.3-3.9,9.3-7.8,12.1-11
						C168.5,84.9,166.1,80.9,166,72.3z"/>
				</g>
				<path class="st15" d="M156.9,56.2"/>
				<path class="st16" d="M181.9,77.3c-6.1,10.9-3.2-5.8-8,2.9c-1.1,2-3,4.4-5.7,6.9c0.3,1.5,0.5,3,0.6,4.7c2.7-3,4.3-5.3,4.7-6.3
					c0.5,6.1,4,11,8.4,14.7c-1.3-4-2.7-11.4-0.7-18.9C181.6,79.9,181.8,78.6,181.9,77.3z"/>
				<path class="st16" d="M118.7,107.6c0.5,3.7,1.4,7.9,2.8,11.1c15-3.2,26.8-9.6,35.3-16c-0.7-2.1-0.9-4.3-1.1-6.6
					C146.2,101.4,133.7,106,118.7,107.6z"/>
				<path class="st16" d="M77.2,85.6c7.6-9.8,5.1-13.9,4.5-16.4c0.2,0.6,0.3,1.3,0.3,2.1c0.1,0.3,0.2,0.6,0.2,0.9
					c0.9,4.4-3.5,10.9-12.9,18.7C60,98.7,59,101,58.9,103.5c0,1.7-5.3,5.3-8.6,8.6c10.9,3.7,23.2,6.1,35.9,7.8
					c2.6,0.3,5.2,0.6,7.6,0.7c1.8-3.6,2.7-8.4,3.2-13.2C76.2,104.7,71,93.7,77.2,85.6z"/>
				<path class="st17" d="M27.4,100.7c-0.9-0.7,9.4,10.1,35.3,7.7s24.6,8.2,47.2,5.7s58.8-21.1,63.5-27.2
					c-6.6,8.5-32.7,34.3-72.3,33.5C62.2,119.5,36.7,107.7,27.4,100.7z"/>
			</g>
			<g>
				<path class="st3" d="M76.8,111.1c0,0-2,35,10.5,37.4s16.4-12.1,15.6-19.5c-1.1-10.6-9.3-13.8-9.3-13.8L76.8,111.1z"/>
				<path class="st18" d="M76.2,109.9c0,0-2,35,10.5,37.4c12.5,2.4,16.4-12.1,15.6-19.5C101.2,117.2,93,114,93,114L76.2,109.9z"/>
				
					<linearGradient id="SVGID_00000054952895793655385620000013678675023804065937_" gradientUnits="userSpaceOnUse" x1="89.8814" y1="171.144" x2="112.988" y2="171.144" gradientTransform="matrix(0.9879 -0.1549 -0.1549 -0.9879 16.5572 312.3861)">
					<stop  offset="0.5674" style="stop-color:#DA5934"/>
					<stop  offset="0.8652" style="stop-color:#DE6435"/>
					<stop  offset="0.9944" style="stop-color:#BF6B4E"/>
				</linearGradient>
				<path style="fill:url(#SVGID_00000054952895793655385620000013678675023804065937_);" d="M80.9,130.5c-2-6.8-4.1-19.1-4.4-20.5
					l0,0c0.1,1.4,1,15.6,4.1,26.8c1.2,4.3,2.5,7.4,3.6,9.6c0.7,0.4,1.4,0.7,2.1,0.8c0.9,0.2,1.7,0.2,2.5,0.2
					C86.9,145.1,83.7,140.1,80.9,130.5z M102,129.7c-1.4,0.1-3.5-0.4-5.5-1.9c-2.8-2.2-13.5-14.6-13.5-14.6s10,15.9,12.1,17.5
					c1.7,1.3,4.8,4.1,6,5.2C101.8,133.8,102,131.6,102,129.7z M78.8,111.2c0,0,4.2,16.3,7.9,23.8c2.7,5.5,4.4,10.1,5.2,12.1
					c1.7-0.5,3.2-1.3,4.4-2.4c-1.3-1.2-5.2-5.2-8-10.9C84.8,126.9,78.8,111.2,78.8,111.2z M80.8,111.9c0,0,5.1,12.6,9.5,20.8
					c3.2,6,6.1,9.1,7.5,10.4c1.2-1.5,2.1-3.2,2.7-5c-1.2-0.5-4-2-6-4C89,128.3,80.8,111.9,80.8,111.9z M101.8,126.5
					c-0.3-2.1-1-3.9-1.7-5.4c-1.1-0.2-2.5-0.5-4.1-1.2c-4-1.8-9.4-5.9-9.4-5.9s4.2,5.4,7.5,8.4C96.6,124.8,100.3,126,101.8,126.5z"
					/>
			</g>
			<g>
				<path class="st3" d="M73.8,72.6c0,0-2,35,10.5,37.4s16.4-12.1,15.6-19.5c-1.1-10.6-9.3-13.8-9.3-13.8L73.8,72.6z"/>
				<path class="st18" d="M73.1,71.4c0,0-2,35,10.5,37.4S100,96.7,99.2,89.3C98.1,78.8,90,75.5,90,75.5L73.1,71.4z"/>
				
					<linearGradient id="SVGID_00000148641470541306437200000014217954066651302319_" gradientUnits="userSpaceOnUse" x1="92.8479" y1="209.6452" x2="115.9545" y2="209.6452" gradientTransform="matrix(0.9879 -0.1549 -0.1549 -0.9879 16.5572 312.3861)">
					<stop  offset="0.5674" style="stop-color:#DA5934"/>
					<stop  offset="0.8652" style="stop-color:#DE6435"/>
					<stop  offset="0.9944" style="stop-color:#BF6B4E"/>
				</linearGradient>
				<path style="fill:url(#SVGID_00000148641470541306437200000014217954066651302319_);" d="M77.9,92c-2-6.8-4.1-19.1-4.4-20.5l0,0
					c0.1,1.4,1,15.6,4.1,26.8c1.2,4.3,2.5,7.4,3.6,9.6c0.7,0.4,1.4,0.7,2.1,0.8c0.9,0.2,1.7,0.2,2.5,0.2
					C83.9,106.6,80.6,101.6,77.9,92z M99,91.2c-1.4,0.1-3.5-0.4-5.5-1.9C90.7,87.1,80,74.7,80,74.7s10,15.9,12.1,17.5
					c1.7,1.3,4.8,4.1,6,5.2C98.8,95.3,99,93.1,99,91.2z M75.8,72.7c0,0,4.2,16.3,7.9,23.8c2.7,5.5,4.4,10.1,5.2,12.1
					c1.7-0.5,3.2-1.3,4.4-2.4c-1.3-1.2-5.2-5.2-8-10.9C81.8,88.4,75.8,72.7,75.8,72.7z M77.7,73.4c0,0,5.1,12.6,9.5,20.8
					c3.2,6,6.1,9.1,7.5,10.4c1.2-1.5,2.1-3.2,2.7-5c-1.2-0.5-4-2-6-4C86,89.8,77.7,73.4,77.7,73.4z M98.7,88c-0.3-2.1-1-3.9-1.7-5.4
					c-1.1-0.2-2.5-0.5-4.1-1.2c-4-1.8-9.4-5.9-9.4-5.9s4.2,5.4,7.5,8.4C93.6,86.3,97.3,87.6,98.7,88z"/>
			</g>
			<path class="st21" d="M112.7,108c-5.9,0.3-11.1,0-15.6-0.6c-0.5,4.7-1.4,9.5-3.2,13.2c10.2,0.6,19.4-0.2,27.6-2
				c-1.4-3.2-2.3-7.4-2.8-11.1C116.7,107.8,114.7,107.9,112.7,108z"/>
			<path class="st21" d="M155.6,96.1c0.2,2.3,0.4,4.5,1.1,6.6c5.3-3.9,9.3-7.8,12.1-11c-0.1-1.7-0.3-3.2-0.6-4.7
				C165.1,90,160.8,93.2,155.6,96.1z"/>
			<path class="st22" d="M19.2,59.3c0,0,15-21.9,38.7-32.5C54.1,27.5,29.5,46.5,19.2,59.3z"/>
			<path class="st23" d="M66.7,27.7c0,0,50.8-14.8,94.2,34.2C154.8,53.2,113.6,8,66.7,27.7z"/>
			<path class="st22" d="M194.5,42.5c0,0-6.1,6.2-5.7,7.6c0.4,1.3,5.6-3.7,7.1-5.5C197.4,42.7,195.4,41.5,194.5,42.5z"/>
			<path class="st22" d="M198.1,51.2c0,0-2,1.8-3.4,3.6s2.3,1.1,4.1-1.5C200.5,50.8,199.4,50,198.1,51.2z"/>
			<path class="st22" d="M198.7,57.1c0,0-1.6,0.6-3.2,1.2c-1.6,0.6-0.9,1.8,2.1,0.9C200.7,58.2,199.6,56.9,198.7,57.1z"/>
			<path class="st22" d="M200.5,97.6c0,0-1.2-1.2-2.5-2.4c-1.2-1.2-2,0,0.2,2.3C200.5,99.9,201.1,98.3,200.5,97.6z"/>
			<path class="st22" d="M196.7,104.7c0,0-1.5-0.8-3-1.6c-1.5-0.8-1.9,0.5,0.8,2.2C197.2,107,197.5,105.3,196.7,104.7z"/>
			<path class="st22" d="M196.4,88.4c0.8,0.2,5,3.4,4.2,5.2C199.7,95.4,193.7,87.8,196.4,88.4z"/>
			<g>
				
					<linearGradient id="SVGID_00000011748992118526426750000005866077017719448499_" gradientUnits="userSpaceOnUse" x1="3575.0103" y1="1151.4034" x2="3730.1211" y2="1151.4034" gradientTransform="matrix(0.999 -4.359056e-02 -4.359056e-02 -0.999 -3385.6602 1385.228)">
					<stop  offset="1.117318e-02" style="stop-color:#CCE0F4"/>
					<stop  offset="4.619665e-02" style="stop-color:#CDD9EB"/>
					<stop  offset="0.1045" style="stop-color:#CFC6D1"/>
					<stop  offset="0.1788" style="stop-color:#D2A8A8"/>
					<stop  offset="0.2653" style="stop-color:#D67E6F"/>
					<stop  offset="0.3515" style="stop-color:#DB4F2F"/>
					<stop  offset="0.5674" style="stop-color:#1E9CD7"/>
					<stop  offset="0.9944" style="stop-color:#A85338"/>
				</linearGradient>
				<path style="fill:url(#SVGID_00000011748992118526426750000005866077017719448499_);" d="M187.1,96c-3.5-5.8,6.9-7.2,1.4-13.7
					s7.5-11.4,2.7-12.2c-4.8-0.8-7-4.8-4.7-10.8c1.4-3.7,1.2-7.5,1.1-10.3c-0.9,1.3-1.9,2.7-3,4.3c-1.9,2.8-3.6,5.1-5,7
					c1.4,4.4,3.6,13,1.5,20.9c-2,7.6-0.6,14.9,0.7,18.9c2.1,1.8,4.4,3.4,6.7,4.6C188.1,101.7,189.2,99.4,187.1,96z"/>
			</g>
			<g>
				<path class="st25" d="M28.4,62.6c0.2,5.2,4.7,9.2,9.9,9s9.3-4.6,9.1-9.8c-0.2-5.2-4.7-9.2-9.9-9C32.3,53.1,28.2,57.5,28.4,62.6z
					"/>
				<g>
					<path class="st1" d="M28.1,60.9c0.2,4.6,4.1,8.1,8.8,7.9s8.3-4.1,8.1-8.7s-4.1-8.2-8.8-7.9C31.5,52.4,27.9,56.3,28.1,60.9z"/>
					<path d="M29.8,60.8c0.2,3.6,3.3,6.5,7,6.3c3.7-0.2,6.6-3.2,6.4-6.9c-0.2-3.7-3.3-6.5-7-6.3S29.7,57.2,29.8,60.8z"/>
					<g>
						<path class="st1" d="M42,59.7c-0.1-1.7-0.8-3.3-1.9-4.4c1.4,1.1,2.4,2.8,2.5,4.8c0.2,3.5-2.5,6.5-5.9,6.7
							c-1.7,0.1-3.3-0.6-4.5-1.8c1.1,0.9,2.5,1.4,4,1.3C39.5,66.3,42.2,63.3,42,59.7z"/>
					</g>
					<path class="st1" d="M32.5,56.2c0.1,1.5,1.4,2.7,2.9,2.6c1.5-0.1,2.7-1.3,2.6-2.8c-0.1-1.5-1.3-2.7-2.9-2.6
						C33.6,53.4,32.4,54.7,32.5,56.2z"/>
					<path class="st1" d="M32.1,60.3c0,0.5,0.4,0.9,0.9,0.9s0.9-0.4,0.9-0.9s-0.4-0.9-1-0.9C32.4,59.4,32.1,59.8,32.1,60.3z"/>
				</g>
			</g>
			<path class="st26" d="M45,46.7c0,0,12.9,8.2,11.3,24.2c-1,9.2-9.3,14.9-11.3,15.2c4.7,1.1,14.1-2.1,14.8-16.3
				C60.4,55.6,48.8,47.6,45,46.7z"/>
			<g>
				<path class="st27" d="M9.7,71.2c2.8,2.8,6.4,4.6,10.2,5.5c1.3,0.3,2.6,0.5,3.9,0.7c-0.7,0.1-1.3,0.1-2,0.2
					C17.1,77.6,12.1,75.4,9.7,71.2L9.7,71.2z"/>
			</g>
		</g>
	</g>
</g>
</svg>
