<?xml version="1.0" encoding="UTF-8"?><svg id="a" xmlns="http://www.w3.org/2000/svg" xmlns:xlink="http://www.w3.org/1999/xlink" viewBox="0 0 273.16 141.59"><defs><style>.d{fill:#fff;}.e{fill:#c12530;}.f{opacity:.5;}.g{fill:#3f2311;}.h{fill:url(#c);}.i{fill:#593315;}.j{fill:url(#b);}.k{fill:#7c181f;}.l{fill:#686867;}.m{fill:#4f4f4e;}.n{fill:#a31e22;}</style><linearGradient id="b" x1="-312.98" y1="10101.4" x2="-277.73" y2="10101.4" gradientTransform="translate(10526.77 -406.54) rotate(86.34) scale(.73 1.04)" gradientUnits="userSpaceOnUse"><stop offset="0" stop-color="#404041"/><stop offset=".11" stop-color="#454546"/><stop offset=".26" stop-color="#555557"/><stop offset=".42" stop-color="#6f7072"/><stop offset=".51" stop-color="#808184"/><stop offset=".7" stop-color="#6a6a6c"/><stop offset="1" stop-color="#404041"/></linearGradient><linearGradient id="c" x1="205.49" y1="4342.89" x2="240.74" y2="4342.89" gradientTransform="translate(-4260.79 -406.54) rotate(93.66) scale(.73 -1.04)" xlink:href="#b"/></defs><path class="f" d="M146.01,138.59c-2.25,0-4.55-.05-6.87-.15-2.31,.1-4.62,.15-6.87,.15-18.73,0-35.12-3.6-48.72-10.69-11.84-6.17-21.68-15.03-29.24-26.33-4.81-7.18-8.71-15.39-11.6-24.38-.55-1.7-1.06-3.45-1.54-5.23-1.78,2.4-4.16,2.76-5.39,2.76-.06,0-.18,0-.24,0-8.88-.31-17.07-3.21-22.47-7.96-5.91-5.2-5.9-12.12-3.71-24.71v-.08c1.27-7.19,6.49-11.31,14.33-11.31,5.85,0,11.44,2.28,12.06,2.53,.37,.16,.72,.35,1.04,.59,.06-1.76,.15-2.82,.17-3.03,.05-.55,.15-1.12,.31-1.71,.56-2.4,1.78-4.52,3.61-6.32,1.43-1.4,3.26-2.63,5.59-3.75,3.53-1.7,8.46-3.24,14.66-4.6,.54-.12,1.15-.25,1.94-.41,18.47-3.78,46.23-5.95,76.17-5.95,18.34,0,36.19,.82,51.6,2.38,1.41,.14,2.83,.3,4.35,.47,2.78,.32,5.53,.67,8.15,1.04,0,0,2.41,.35,2.45,.36,3.5,.54,6.77,1.11,9.7,1.72,1.9,.39,3.72,.8,5.42,1.23,5.21,1.31,9.36,2.79,12.34,4.4,5.77,3.12,7.72,7.19,8.19,10.55,.3-.21,.62-.4,.97-.54,.62-.26,6.2-2.54,12.06-2.54,7.84,0,13.06,4.12,14.32,11.31,0,.02,0,.05,.01,.08,2.19,12.6,2.2,19.51-3.71,24.71-5.39,4.75-13.58,7.65-22.46,7.96-.06,0-.18,0-.24,0-1.06,0-2.94-.26-4.57-1.82-3.11,12.68-8.03,23.92-14.68,33.49-7.61,10.95-17.43,19.53-29.18,25.5-13.44,6.83-29.57,10.29-47.94,10.29Z"/><path class="d" d="M141.01,133.59c-2.25,0-4.55-.05-6.87-.15-2.31,.1-4.62,.15-6.87,.15-18.73,0-35.12-3.6-48.72-10.69-11.84-6.17-21.68-15.03-29.24-26.33-4.81-7.18-8.71-15.39-11.6-24.38-.55-1.7-1.06-3.45-1.54-5.23-1.78,2.4-4.16,2.76-5.39,2.76-.06,0-.18,0-.24,0-8.88-.31-17.07-3.21-22.47-7.96-5.91-5.2-5.9-12.12-3.71-24.71v-.08c1.27-7.19,6.49-11.31,14.33-11.31,5.85,0,11.44,2.28,12.06,2.53,.37,.16,.72,.35,1.04,.59,.06-1.76,.15-2.82,.17-3.03,.05-.55,.15-1.12,.31-1.71,.56-2.4,1.78-4.52,3.61-6.32,1.43-1.4,3.26-2.63,5.59-3.75,3.53-1.7,8.46-3.24,14.66-4.6,.54-.12,1.15-.25,1.94-.41,18.47-3.78,46.23-5.95,76.17-5.95,18.34,0,36.19,.82,51.6,2.38,1.41,.14,2.83,.3,4.35,.47,2.78,.32,5.53,.67,8.15,1.04,0,0,2.41,.35,2.45,.36,3.5,.54,6.77,1.11,9.7,1.72,1.9,.39,3.72,.8,5.42,1.23,5.21,1.31,9.36,2.79,12.34,4.4,5.77,3.12,7.72,7.19,8.19,10.55,.3-.21,.62-.4,.97-.54,.62-.26,6.2-2.54,12.06-2.54,7.84,0,13.06,4.12,14.32,11.31,0,.02,0,.05,.01,.08,2.19,12.6,2.2,19.51-3.71,24.71-5.39,4.75-13.58,7.65-22.46,7.96-.06,0-.18,0-.24,0-1.06,0-2.94-.26-4.57-1.82-3.11,12.68-8.03,23.92-14.68,33.49-7.61,10.95-17.43,19.53-29.18,25.5-13.44,6.83-29.57,10.29-47.94,10.29Z"/><g><g><g><path class="j" d="M46.95,47.28l-.7-9.4-16.74-2.53s-8.81,2.92-8.05,13.36c.76,10.44,9.93,12.35,9.93,12.35l16.23-4.37-.68-9.4Zm-21.29,1.19c-.46-6.26,2.85-9.18,4.66-10.3l11.86,1.79,.56,7.55,.54,7.56-11.5,3.1c-1.91-.9-5.67-3.46-6.13-9.7Z"/><path class="n" d="M32.2,61.3s-3.95-7.35-4.1-12.68c-.15-5.32,3.37-12.84,3.37-12.84,0,0-3.55-2.49-9.24-1.67,0,0-6.55,4.36-6.25,14.77,.3,10.41,7.08,14.48,7.08,14.48,5.73,.58,9.13-2.06,9.13-2.06Z"/></g><g><path class="e" d="M28.81,32.79s-17.36-7.29-19.51,5.02c-2.15,12.32-1.78,16.79,2.08,20.18,3.86,3.4,15.72,6.72,20.03,5.78,4.32-.94,2.38-26.3-2.6-30.98Z"/><path class="n" d="M11.38,57.99c3.86,3.4,10.6,6.41,19.34,6.72,2.8,.1,3.33-6.11,2.33-16.37-2.44,1.47-6.98,1.28-14.19-1.23-10.74-3.73-9.56-9.3-9.56-9.3-2.15,12.32-1.78,16.79,2.08,20.18Z"/><path class="k" d="M30.13,37.11s-12.68-4.55-13.67,.79c-.99,5.35,9.31,6.49,13.16,6.76,2.25,.16,2.71,.56,2.71,.56l-2.2-8.11Z"/></g></g><g><g><path class="h" d="M220.54,53.1l16.23,4.37s9.17-1.92,9.93-12.35c.76-10.44-8.05-13.36-8.05-13.36l-16.74,2.53-.7,9.4-.68,9.4Zm15.83,1.48l-11.5-3.1,.54-7.56,.56-7.55,11.86-1.79c1.82,1.12,5.12,4.05,4.66,10.3s-4.21,8.79-6.13,9.7Z"/><path class="n" d="M235.95,57.72s3.95-7.35,4.1-12.68c.15-5.32-3.37-12.84-3.37-12.84,0,0,3.55-2.49,9.24-1.67,0,0,6.55,4.36,6.25,14.77-.3,10.41-7.08,14.48-7.08,14.48-5.73,.58-9.13-2.06-9.13-2.06Z"/></g><g><path class="e" d="M239.35,29.21s17.36-7.29,19.51,5.02c2.15,12.32,1.78,16.79-2.08,20.18-3.86,3.4-15.72,6.72-20.03,5.78-4.32-.94-2.38-26.3,2.6-30.98Z"/><path class="n" d="M256.78,54.41c-3.86,3.4-10.6,6.41-19.34,6.72-2.8,.1-3.33-6.11-2.33-16.37,2.44,1.47,6.98,1.28,14.19-1.23,10.74-3.73,9.56-9.3,9.56-9.3,2.15,12.32,1.78,16.79-2.08,20.18Z"/><path class="k" d="M238.02,33.52s12.68-4.55,13.67,.79c.99,5.35-9.31,6.49-13.16,6.76-2.25,.16-2.71,.56-2.71,.56l2.2-8.11Z"/></g></g><path class="m" d="M176.5,119.21c-2.84,1.01-5.84,1.91-8.99,2.66-3.66,.88-7.54,1.57-11.66,2.07-6.62,.79-13.83,2.5-21.7,2.14-21.57,1-38.23-4.14-51.1-10.6C34.34,91.05,40.01,26.96,40.01,26.96h0c0,2.14,2.86,4.17,8.01,6.01,2.11,.75,4.61,1.47,7.46,2.16,.96,.22,1.95,.45,2.98,.66,3.08,.66,6.49,1.27,10.19,1.84,1.16,.17,2.35,.34,3.56,.51,16.57,2.29,38.28,3.68,62.03,3.68,13.17,0,25.71-.43,37.09-1.19,4.95-.33,9.68-.73,14.15-1.19,5.63-.58,10.85-1.24,15.56-1.99,.77-.12,1.52-.24,2.26-.37,3.53-.6,6.75-1.25,9.62-1.93h0c.92-.22,1.8-.44,2.65-.67,7.37-1.98,11.92-4.25,12.76-6.68,.48,8.01,2.59,71.99-51.84,91.42Z"/><path class="g" d="M231.42,27.16c-.11-1.86-1.15-3.39-2.54-3.71-.18-.04-.36-.06-.54-.06-1.13,0-2.19,.83-2.73,2.18-.28,.35-2.17,2.31-10.65,4.59-.8,.22-1.64,.43-2.58,.65-.04,0-.07,.02-.11,.03-2.79,.66-5.94,1.29-9.36,1.87-17.66,2.99-42.68,4.71-68.66,4.71-22.74,0-44.66-1.3-61.71-3.65-1.2-.17-2.39-.34-3.53-.51-3.7-.57-7.08-1.18-10.05-1.81-.91-.19-1.83-.4-2.93-.66-9.66-2.31-12.37-4.42-13.01-5.07-.32-1.81-1.55-3.16-3.01-3.16h0c-1.57,0-2.89,1.56-3.07,3.62-.03,.39-.83,9.75,.79,22.73,.95,7.61,2.55,14.93,4.74,21.75,2.75,8.55,6.45,16.34,11,23.13,7.09,10.59,16.31,18.89,27.4,24.68,12.88,6.72,28.49,10.12,46.41,10.12,2.24,0,4.55-.05,6.87-.16,2.32,.11,4.63,.16,6.87,.16,17.57,0,32.94-3.28,45.67-9.75,11-5.59,20.2-13.63,27.34-23.9,18.82-27.08,17.79-61.21,17.4-67.78Zm-90.41,97.32c-2.24,0-4.88,.41-7.23,.3-2.34,.11-4.28-.3-6.51-.3C31.34,124.49,40.01,26.66,40.01,26.66h0c0,3.02,5.69,5.82,15.47,8.16,.96,.23,1.95,.45,2.98,.67,3.08,.66,6.49,1.27,10.19,1.84,1.16,.17,2.35,.35,3.56,.51,16.58,2.29,38.28,3.67,62.03,3.67,27.28,0,51.85-1.83,69.06-4.74,3.53-.6,6.75-1.25,9.62-1.93h0c.92-.22,1.8-.44,2.65-.67,7.37-1.98,11.92-4.25,12.76-6.68,.57,9.46,3.4,97-87.33,97Z"/><ellipse class="l" cx="134.25" cy="26.96" rx="94.24" ry="14.86"/><path class="i" d="M225.88,18.99c-2.61-1.41-6.37-2.74-11.17-3.94-1.63-.41-3.39-.8-5.21-1.18-2.85-.58-6.04-1.15-9.47-1.67h-.04c-.19-.03-.38-.06-.56-.09h-.01c-.58-.09-1.17-.17-1.77-.26-2.57-.36-5.26-.71-8.01-1.02-1.5-.17-2.9-.32-4.29-.46-15.25-1.54-32.92-2.36-51.1-2.36-29.61,0-57.02,2.13-75.18,5.85-.76,.15-1.33,.28-1.87,.4-5.82,1.27-10.39,2.7-13.57,4.22-1.83,.88-3.22,1.8-4.26,2.81-2.03,1.99-2.45,4.19-2.45,5.68,0,5.03,4.54,7.38,6.04,8.16,2.8,1.45,6.83,2.81,11.98,4.04,1.14,.27,2.11,.49,3.04,.68,3.05,.65,6.52,1.28,10.32,1.86,1.17,.18,2.38,.35,3.6,.52,17.26,2.38,39.41,3.69,62.35,3.69,26.23,0,51.54-1.74,69.45-4.78,3.57-.61,6.85-1.27,9.77-1.96,.04,0,.08-.02,.11-.03,.94-.23,1.8-.44,2.61-.66,4.35-1.17,7.77-2.45,10.14-3.81,1.3-.74,5.24-3,5.24-7.73s-4.28-7.21-5.69-7.97Zm-10.31,15.48c-.85,.23-1.73,.45-2.65,.67h0c-2.87,.68-6.09,1.33-9.62,1.93-17.21,2.92-41.78,4.74-69.06,4.74-23.75,0-45.46-1.39-62.03-3.67-1.22-.17-2.4-.34-3.56-.51-3.7-.57-7.11-1.18-10.19-1.84-1.03-.22-2.02-.44-2.98-.67-9.78-2.34-15.47-5.15-15.47-8.16,0-3.24,6.56-6.23,17.7-8.67,.6-.13,1.21-.26,1.83-.39,17.23-3.53,44.29-5.8,74.71-5.8,18.73,0,36.19,.86,50.86,2.35,1.45,.15,2.87,.3,4.26,.46,2.77,.31,5.42,.65,7.95,1.01,.59,.09,1.18,.17,1.76,.26,.2,.03,.4,.06,.6,.09,3.37,.52,6.49,1.07,9.35,1.65,1.82,.37,3.52,.76,5.11,1.16,9.09,2.28,14.35,4.99,14.35,7.89,0,2.74-4.7,5.31-12.91,7.51Z"/></g></svg>