<?xml version="1.0" encoding="UTF-8"?><svg id="a" xmlns="http://www.w3.org/2000/svg" viewBox="0 0 202.14 145.7"><defs><style>.b{fill:#fff;}.c{opacity:.5;}.d{fill:#bec2ce;}.e{fill:#dadff2;}.f{fill:none;}.g{fill:#edc600;}.h{fill:#9da0a8;}</style></defs><path class="c" d="M136.11,144.11c-4.12,0-8.12-.86-11.9-2.57-10.32-4.65-17.01-14.98-17.06-26.3,0-1.1,.06-2.21,.18-3.29,.36-7.46,0-9.19-.02-9.26-.35-1.42-.75-3.03-6.03-5.41l-10.16-4.58c-1.21-.55-2.15-1.55-2.62-2.79-.47-1.24-.43-2.62,.12-3.83l1.14-2.53c-1.53-.68-3.48-1.52-5.21-2.23-1.38-.57-2.44-1.73-2.88-3.16l-2.19-7.18-1.92-.87-1.83,.79c-.63,.27-1.3,.4-1.97,.4-.75,0-1.5-.17-2.18-.5-1.3-.63-2.27-1.8-2.65-3.21l-1.62-6.07-1.5-.68-6.52,2.87c-.64,.28-1.33,.42-2.02,.42-.73,0-1.45-.16-2.12-.47-1.31-.61-2.29-1.76-2.68-3.15l-.27-.93-2.09-.94-6.95,3.04c-.65,.29-1.33,.42-2,.42-1.84,0-3.6-1.02-4.47-2.76l-.39-.79-2.36-1.06-1.04,.24c-.38,.09-.76,.13-1.14,.13-2.08,0-4-1.3-4.71-3.34l-2.61-7.4-7.15-3.23c-1.21-.55-2.15-1.55-2.62-2.79l-4.65-12.3c-.04-.1-.07-.21-.11-.31l-2.25-7.41-.26-.67c-.47-1.24-.43-2.62,.12-3.83l1.19-2.63c.5-1.11,1.39-2,2.5-2.5l2.85-1.29c.11-.05,.22-.09,.33-.13l6.71-3c.65-.29,1.35-.44,2.04-.44s1.4,.15,2.06,.44L121.65,50.55c.24,.11,.47,.23,.69,.38h0s1.63,.95,3.81,.95c2.12,0,4.1-.88,6.04-2.69,7.56-7.03,12.14-9.28,13.59-9.88,3.99-1.96,8.42-3,12.85-3,4.12,0,8.12,.86,11.89,2.57,13.5,6.09,20.08,21.32,15.72,35.12,12.26,7.5,17.33,23.18,11.27,36.61-.18,.41-.39,.83-.61,1.27-.18,.46-.37,.91-.57,1.37-4.68,10.37-15.05,17.06-26.42,17.06-2.86,0-5.66-.42-8.38-1.24-5.05,9.21-14.79,15.05-25.42,15.05Z"/><path class="b" d="M131.11,139.11c-4.12,0-8.12-.86-11.9-2.57-10.32-4.65-17.01-14.98-17.06-26.3,0-1.1,.06-2.21,.18-3.29,.36-7.46,0-9.19-.02-9.26-.35-1.42-.75-3.03-6.03-5.41l-10.16-4.58c-1.21-.55-2.15-1.55-2.62-2.79-.47-1.24-.43-2.62,.12-3.83l1.14-2.53c-1.53-.68-3.48-1.52-5.21-2.23-1.38-.57-2.44-1.73-2.88-3.16l-2.19-7.18-1.92-.87-1.83,.79c-.63,.27-1.3,.4-1.97,.4-.75,0-1.5-.17-2.18-.5-1.3-.63-2.27-1.8-2.65-3.21l-1.62-6.07-1.5-.68-6.52,2.87c-.64,.28-1.33,.42-2.02,.42-.73,0-1.45-.16-2.12-.47-1.31-.61-2.29-1.76-2.68-3.15l-.27-.93-2.09-.94-6.95,3.04c-.65,.29-1.33,.42-2,.42-1.84,0-3.6-1.02-4.47-2.76l-.39-.79-2.36-1.06-1.04,.24c-.38,.09-.76,.13-1.14,.13-2.08,0-4-1.3-4.71-3.34l-2.61-7.4-7.15-3.23c-1.21-.55-2.15-1.55-2.62-2.79l-4.65-12.3c-.04-.1-.07-.21-.11-.31l-2.25-7.41-.26-.67c-.47-1.24-.43-2.62,.12-3.83l1.19-2.63c.5-1.11,1.39-2,2.5-2.5l2.85-1.29c.11-.05,.22-.09,.33-.13l6.71-3c.65-.29,1.35-.44,2.04-.44s1.4,.15,2.06,.44L116.65,45.55c.24,.11,.47,.23,.69,.38h0s1.63,.95,3.81,.95c2.12,0,4.1-.88,6.04-2.69,7.56-7.03,12.14-9.28,13.59-9.88,3.99-1.96,8.42-3,12.85-3,4.12,0,8.12,.86,11.89,2.57,13.5,6.09,20.08,21.32,15.72,35.12,12.26,7.5,17.33,23.18,11.27,36.61-.18,.41-.39,.83-.61,1.27-.18,.46-.37,.91-.57,1.37-4.68,10.37-15.05,17.06-26.42,17.06-2.86,0-5.66-.42-8.38-1.24-5.05,9.21-14.79,15.05-25.42,15.05Z"/><g><circle class="f" cx="163.28" cy="92.95" r="9.28" transform="translate(-4.34 177.81) rotate(-56.5)"/><circle class="f" cx="163.28" cy="92.95" r="9.28" transform="translate(-4.34 177.81) rotate(-56.5)"/><path class="e" d="M142.82,38.88h0s-4.19,1.49-12.22,8.97c-8.04,7.47-16,2.25-16,2.25L18.13,6.59l-7.01,3.14h-.01l-2.85,1.28,.25,.8L112.03,58.51l-2.45,5.43L10.87,19.41l1.31,3.47,.59,1.56,2.75,7.27,9.1,4.11,3.32,9.41,2.69-.63,5.52,2.49,1.19,2.37,8.98-3.93,6.23,2.81,.9,3.16,8.56-3.77,5.7,2.57,2.24,8.36,3.86-1.65,5.99,2.7,2.85,9.34s7.33,3.02,8.52,3.84c1.19,.82,.74,1.96,.74,1.96l-2.54,5.64,10.16,4.58c6.7,3.02,8.11,5.85,8.83,8.79,.48,1.97,.31,7.44,.15,10.85-.11,.96-.17,1.91-.16,2.87h0c.04,9.1,5.28,17.78,14.12,21.77,12.07,5.44,26.26,.07,31.7-11.99,.35-.78,.66-1.58,.92-2.38,.38,.2,.77,.39,1.17,.56,12.07,5.44,26.26,.07,31.7-11.99,5.44-12.07,.07-26.26-11.99-31.7-.37-.17-.74-.32-1.11-.47,.21-.41,.41-.82,.61-1.24,5.44-12.07,.07-26.26-11.99-31.7-6.86-3.1-14.41-2.69-20.65,.45Zm24.22,45.69c4.67,2.11,6.75,7.6,4.64,12.27-2.11,4.67-7.6,6.75-12.27,4.64-4.67-2.11-6.75-7.6-4.64-12.27,2.11-4.67,7.6-6.75,12.27-4.64Z"/><g><polygon class="d" points="112.03 58.51 8.57 11.84 10.87 19.41 109.59 63.93 112.03 58.51"/><path class="g" d="M153.9,117.61c-.12,.35-.24,.7-.37,1.05,.17-.32,.33-.65,.49-.99-.04-.02-.08-.04-.12-.06Z"/><path class="h" d="M186.77,106.18c.2-.44,.38-.89,.55-1.33-5.85,11.15-19.44,15.94-31.07,10.7-.4-.18-.78-.37-1.17-.56-.26,.8-.57,1.59-.92,2.38-.05,.11-.1,.21-.15,.31,.34,.18,.69,.35,1.05,.51,12.07,5.44,26.26,.07,31.7-11.99Z"/><path class="h" d="M121.27,131.98c12.07,5.44,26.26,.07,31.7-11.99,.2-.44,.38-.89,.55-1.33-5.85,11.14-19.44,15.93-31.07,10.69-8.84-3.99-14.08-12.66-14.12-21.76h0c0-.96,.05-1.91,.16-2.87,.17-3.41,.33-8.88-.15-10.85-.72-2.94-2.13-5.77-8.83-8.79l-10.16-4.58-1.19,2.63,10.16,4.58c6.7,3.02,8.11,5.85,8.83,8.79,.48,1.97,.31,7.44,.15,10.85-.11,.96-.17,1.91-.16,2.87h0c.04,9.1,5.28,17.78,14.12,21.77Z"/><path class="h" d="M90.72,77.49l1.19-2.63s.44-1.14-.74-1.96c-1.19-.82-8.52-3.84-8.52-3.84l-2.85-9.34-5.99-2.7-3.86,1.65-2.24-8.36-5.7-2.57-8.56,3.77-.9-3.16-6.23-2.81-8.98,3.93-1.19-2.37-5.52-2.49-2.69,.63-3.32-9.41-9.1-4.11-2.75-7.27-.59-1.56-1.31-3.47-1.96-6.45-.04,.02-.61-1.96-1.19,2.63,.31,.83,2.3,7.57,1.31,3.47,.59,1.56,2.75,7.27,9.1,4.11,3.32,9.41,2.69-.63,5.52,2.49,1.19,2.37,8.98-3.93,6.23,2.81,.9,3.16,8.56-3.77,5.7,2.57,2.24,8.36,3.86-1.65,5.99,2.7,2.85,9.34s7.33,3.02,8.52,3.84c1.19,.82,.74,1.96,.74,1.96Z"/></g><g><path class="h" d="M139.51,69.11h0c1.75,.79,2.59,2.75,1.87,4.35l.88-1.96c.79-1.75,0-3.83-1.75-4.62h0c-1.75-.79-3.83,0-4.62,1.75l-.88,1.96c.72-1.6,2.75-2.27,4.5-1.48Z"/><path class="g" d="M128.67,93.13c1.75,.79,3.78,.13,4.5-1.48l.12-.27c-.79,1.75-2.87,2.54-4.62,1.75Z"/><path class="g" d="M126.92,88.51l-.12,.27c-.72,1.6,.12,3.56,1.87,4.35-1.75-.79-2.54-2.87-1.75-4.62Z"/><path class="d" d="M133.29,91.38l8.09-17.93c.72-1.6-.12-3.56-1.87-4.35h0c-1.75-.79-3.78-.13-4.5,1.48l-8.09,17.93c-.79,1.75,0,3.83,1.75,4.62h0c1.75,.79,3.83,0,4.62-1.75Z"/></g><polygon class="h" points="110.76 58.99 108.71 63.54 109.59 63.93 112.03 58.51 8.51 11.81 8.89 13.04 110.76 58.99"/><path class="h" d="M166.63,85.51c4.5,2.03,6.59,7.2,4.86,11.75,.09-.16,.17-.33,.25-.5,2.11-4.67,.03-10.17-4.64-12.27-4.67-2.11-10.17-.03-12.27,4.64-.08,.17-.15,.35-.21,.52,2.26-4.31,7.53-6.17,12.03-4.14Z"/></g></svg>