<?xml version="1.0" encoding="UTF-8"?><svg id="a" xmlns="http://www.w3.org/2000/svg" viewBox="0 0 188.62 237.6"><defs><style>.b{fill:#e4ae31;}.c{fill:#fff;}.d{fill:#8c3600;}.e{opacity:.5;}.f{fill:#de8600;}.g{fill:#dedede;}.h{fill:#281005;}.i{fill:#703711;}.j{fill:#772f07;}.k{fill:#964508;}.l{fill:#894416;}.m{fill:#ad6e3e;}.n{fill:#964816;}</style></defs><path class="e" d="M68.23,235.51c-31.28,0-52.6-25.48-55.17-28.71-.73-.87-1.41-1.8-2.02-2.76-.23-.35-.48-.75-.67-1.09-5.36-9.55-4.18-21.78,3.34-34.44,11.05-18.61,34.13-34.81,57.9-40.82l24.16-37.26c-2.58-.7-4.82-2.4-6.17-4.79-2.72-4.84-.99-10.98,3.85-13.7,1.04-.59,2.18-.98,3.36-1.17-.88-4.19,.99-8.65,4.92-10.86,1.09-.61,2.28-1.01,3.51-1.19-.62-1.88-.67-3.9-.12-5.85,.73-2.59,2.42-4.74,4.76-6.05,1.46-.82,3.11-1.26,4.77-1.29-.95-2.13-1.12-4.51-.48-6.78,.73-2.59,2.42-4.74,4.76-6.05,.61-.34,1.26-.62,1.93-.83-.2-1.38-.11-2.79,.28-4.17,.73-2.59,2.42-4.74,4.76-6.05,1.5-.84,3.2-1.29,4.92-1.29,3.1,0,6,1.43,7.89,3.81l1.68-2.59c.09-.14,.19-.28,.3-.42,3.4-4.23,12.08-14.07,19.08-14.07,.43,0,.85,.03,1.26,.1,1.86,.29,3.47,1.16,4.73,2.54,.19,.18,.37,.38,.53,.59,.68,.88,4.84,6.53,5.82,13.11,3.57,.06,6.85,2.02,8.6,5.14,2.72,4.84,.99,10.98-3.85,13.7-.87,.49-1.81,.84-2.78,1.06,.63,1.89,.68,3.93,.13,5.89-.73,2.59-2.42,4.74-4.76,6.05-.66,.37-1.36,.67-2.09,.88,.19,.12,.37,.23,.56,.34,7.19,.91,13.04,4.57,16.17,10.15,3.13,5.58,3.25,12.29,.34,18.91-2.7,6.14-7.75,11.52-14.23,15.16-5.25,2.94-10.98,4.5-16.56,4.5h0c-7.44,0-13.91-2.83-17.91-7.7l-19.49,36c1.87,1.6,3.46,3.41,4.77,5.42,.16,.22,.31,.45,.44,.69,1.9,3.12,3.09,6.61,3.53,10.36,3.39,13.23,10.79,56.07-27.5,77.56-9.44,5.29-19.28,7.98-29.26,7.98Z"/><path class="c" d="M63.23,230.51c-31.28,0-52.6-25.48-55.17-28.71-.73-.87-1.41-1.8-2.02-2.76-.23-.35-.48-.75-.67-1.09C.01,188.4,1.2,176.17,8.72,163.51c11.05-18.61,34.13-34.81,57.9-40.82l24.16-37.26c-2.58-.7-4.82-2.4-6.17-4.79-2.72-4.84-.99-10.98,3.85-13.7,1.04-.59,2.18-.98,3.36-1.17-.88-4.19,.99-8.65,4.92-10.86,1.09-.61,2.28-1.01,3.51-1.19-.62-1.88-.67-3.9-.12-5.85,.73-2.59,2.42-4.74,4.76-6.05,1.46-.82,3.11-1.26,4.77-1.29-.95-2.13-1.12-4.51-.48-6.78,.73-2.59,2.42-4.74,4.76-6.05,.61-.34,1.26-.62,1.93-.83-.2-1.38-.11-2.79,.28-4.17,.73-2.59,2.42-4.74,4.76-6.05,1.5-.84,3.2-1.29,4.92-1.29,3.1,0,6,1.43,7.89,3.81l1.68-2.59c.09-.14,.19-.28,.3-.42,3.4-4.23,12.08-14.07,19.08-14.07,.43,0,.85,.03,1.26,.1,1.86,.29,3.47,1.16,4.73,2.54,.19,.18,.37,.38,.53,.59,.68,.88,4.84,6.53,5.82,13.11,3.57,.06,6.85,2.02,8.6,5.14,2.72,4.84,.99,10.98-3.85,13.7-.87,.49-1.81,.84-2.78,1.06,.63,1.89,.68,3.93,.13,5.89-.73,2.59-2.42,4.74-4.76,6.05-.66,.37-1.36,.67-2.09,.88,.19,.12,.37,.23,.56,.34,7.19,.91,13.04,4.57,16.17,10.15,3.13,5.58,3.25,12.29,.34,18.91-2.7,6.14-7.75,11.52-14.23,15.16-5.25,2.94-10.98,4.5-16.56,4.5h0c-7.44,0-13.91-2.83-17.91-7.7l-19.49,36c1.87,1.6,3.46,3.41,4.77,5.42,.16,.22,.31,.45,.44,.69,1.9,3.12,3.09,6.61,3.53,10.36,3.39,13.23,10.79,56.07-27.5,77.56-9.44,5.29-19.28,7.98-29.26,7.98Z"/><g><path class="m" d="M116.4,32.06c-2.44,1.37-3.31,4.45-1.94,6.89s4.45,3.31,6.89,1.94c2.44-1.37,3.31-4.45,1.94-6.89-1.37-2.44-4.45-3.31-6.89-1.94Z"/><path class="m" d="M123.37,21.01c-2.44,1.37-3.31,4.45-1.94,6.89,1.37,2.44,4.45,3.31,6.89,1.94s3.31-4.45,1.94-6.89c-1.37-2.44-4.45-3.31-6.89-1.94Z"/><circle class="m" cx="109.82" cy="50.6" r="5.06" transform="translate(-4.89 88.83) rotate(-43.17)"/><path class="m" d="M99.19,59.27c-2.44,1.37-3.31,4.45-1.94,6.89s4.45,3.31,6.89,1.94c2.44-1.37,3.31-4.45,1.94-6.89-1.37-2.44-4.45-3.31-6.89-1.94Z"/><path class="m" d="M90.91,71.3c-2.44,1.37-3.31,4.45-1.94,6.89s4.45,3.31,6.89,1.94,3.31-4.45,1.94-6.89-4.45-3.31-6.89-1.94Z"/><ellipse class="j" cx="154.01" cy="75.72" rx="23.79" ry="17.91" transform="translate(-17.35 85.05) rotate(-29.3)"/><path class="l" d="M112.15,49.34h-.02c-.31,0-.62,.21-.86,.61-.49,.83-.51,2.18-.04,3.03,.23,.41,.53,.62,.84,.63h.01s.02,0,.02,0l9.73,.14,.15-4.27-9.84-.14h-.01Z"/><path class="n" d="M158.42,55.49c-8.87-.11-19.73,5.99-24.26,13.61-4.53,7.63-1.01,13.9,7.86,14,8.87,.11,19.73-5.99,24.26-13.61,4.53-7.63,1.01-13.9-7.86-14Z"/><path class="m" d="M129.94,50.65c5.6,9.98,2.39,24.75,3.73,27.14,1.34,2.39,4.27,3.9,8.46,3.95,8.38,.1,18.64-5.65,22.92-12.86,2.14-3.6,2.38-6.88,1.03-9.28-1.34-2.4-12.99-5.46-20.03-18-7.04-12.54-21.72-.94-16.12,9.04Z"/><path class="l" d="M95.72,74.45h-.02c-.31,0-.62,.21-.86,.61-.49,.83-.51,2.18-.04,3.03,.23,.41,.53,.62,.84,.63h.01s.02,0,.02,0l9.73,.14,.15-4.27-9.84-.14h-.01Z"/><path class="l" d="M104,62.43h-.02c-.31,0-.62,.21-.86,.61-.49,.83-.51,2.18-.04,3.03,.23,.41,.53,.62,.84,.63h.01s.02,0,.03,0l9.73,.14,.15-4.27-9.84-.14h-.01Z"/><path class="l" d="M128.18,24.16h-.02c-.31,0-.62,.21-.86,.61-.49,.83-.51,2.18-.04,3.03,.23,.41,.53,.62,.84,.63h.01s.02,0,.02,0l9.73,.14,.15-4.27-9.84-.14h-.01Z"/><path class="l" d="M121.21,35.21h-.02c-.31,0-.62,.21-.86,.61-.49,.83-.51,2.18-.04,3.03,.23,.41,.53,.62,.84,.63h.01s.02,0,.02,0l9.73,.14,.15-4.27-9.84-.14h-.01Z"/><path class="d" d="M143.06,25.46l-69.87,107.79,29.61,.36s54.55-100.75,58.43-107.93c3.89-7.18-3.89-17.32-3.89-17.32l-14.27,17.1Z"/><path class="k" d="M139.61,19.29L69.73,127.08l29.61,.36L157.77,19.52s2.73-11.57-2.5-12.39c-5.23-.81-15.67,12.17-15.67,12.17Z"/><path class="j" d="M9.73,195.5c4.26,7.6,39.12,45.78,80.32,22.67,41.19-23.11,25.65-73.74,21.98-81.24-4-8.17-106.56,50.98-102.3,58.57Z"/><ellipse class="m" cx="61.14" cy="166.65" rx="58.95" ry="34.04" transform="translate(-73.73 51.24) rotate(-29.3)"/><path class="k" d="M80,133.12c-21.55-.28-47.92,14.52-58.9,33.05-10.99,18.54-2.43,33.79,19.12,34.07,21.54,.28,47.92-14.52,58.9-33.05,10.99-18.54,2.43-33.79-19.12-34.07Z"/><polygon class="h" points="78.96 124.19 93.77 124.37 151.83 26.58 137.02 26.4 78.96 124.19"/><polygon class="f" points="41.16 181.29 42.48 183.65 64.91 183.92 69.03 176.98 67.71 174.63 46.6 176.71 41.16 181.29"/><polygon class="b" points="41.16 181.29 63.59 181.56 67.71 174.63 45.28 174.35 41.16 181.29"/><g><path class="g" d="M59.45,179.07h.44c29.77-49.56,59.18-99.01,89.86-151.17h-.44c-30.68,52.15-60.09,101.6-89.86,151.17Z"/><path class="g" d="M57.4,179.05h.44c29.05-49.6,58.41-99.02,89.86-151.17h-.44c-31.45,52.14-60.82,101.59-89.86,151.17Z"/><path class="g" d="M53.94,179.01h.44c29.05-49.57,58.42-99.02,89.86-151.17h-.44c-31.44,52.14-60.81,101.59-89.86,151.17Z"/><path class="g" d="M50.35,178.96h.44c29.84-49.56,59.26-99.01,89.86-151.17h-.44L50.35,178.96Z"/><path class="g" d="M47.56,178.93h.44c29.57-49.57,58.97-99.02,89.86-151.17h-.44c-30.89,52.15-60.29,101.6-89.86,151.17Z"/></g><path class="i" d="M148.97,39.54h-.02c-.31,0-.62,.21-.86,.61-.49,.83-.51,2.18-.04,3.03,.23,.41,.53,.62,.84,.63h.01s.02,0,.02,0l9.73,.14,.15-4.27-9.84-.14h-.01Z"/><path class="m" d="M157.07,37.07c-2.44,1.37-3.31,4.45-1.94,6.89s4.45,3.31,6.89,1.94,3.31-4.45,1.94-6.89c-1.37-2.44-4.45-3.31-6.89-1.94Z"/><path class="i" d="M156.38,26.55h-.02c-.31,0-.62,.21-.86,.61-.49,.83-.51,2.18-.04,3.03,.23,.41,.53,.62,.84,.63h.01s.02,0,.03,0l9.73,.14,.15-4.27-9.84-.14h-.01Z"/><path class="m" d="M164.47,24.08c-2.44,1.37-3.31,4.45-1.94,6.89s4.45,3.31,6.89,1.94,3.31-4.45,1.94-6.89c-1.37-2.44-4.45-3.31-6.89-1.94Z"/></g><path class="n" d="M141.96,88.11c-6.06-.07-10.89-2.53-13.25-6.74-2.36-4.21-1.94-9.61,1.16-14.82,5.35-9,17.79-16.06,28.32-16.06h.3c6.06,.08,10.89,2.53,13.25,6.74,2.36,4.21,1.94,9.61-1.16,14.82-5.35,9-17.79,16.06-28.32,16.06h-.3Z"/><path class="n" d="M158.42,55.49c-8.87-.11-19.73,5.99-24.26,13.61-4.53,7.63-1.01,13.9,7.86,14,8.87,.11,19.73-5.99,24.26-13.61,4.53-7.63,1.01-13.9-7.86-14Z"/></svg>