<?xml version="1.0" encoding="UTF-8"?><svg id="a" xmlns="http://www.w3.org/2000/svg" viewBox="0 0 238.12 131.23"><defs><style>.b{fill:#e77d0e;}.c{fill:#5f991e;}.d{fill:#fff;}.e{opacity:.5;}.f{fill:#b4bbb6;}.g{fill:#f4d29a;}.h{fill:#fbe5ba;}.i{fill:#f5ba18;}.j{fill:#f5cf18;}.k{fill:#5eb52c;}.l{fill:#cadbde;}.m{fill:#f59b18;}.n{fill:#becfd2;}.o{fill:#9b9b95;}.p{fill:#7a8886;}</style></defs><path class="e" d="M122.31,128.33c-27.72,0-54.28-4.37-74.8-12.29-21.16-8.18-34.43-19.66-37.44-32.39-1.44-3.32-2.17-6.74-2.17-10.16,0-22.8,32.15-42.05,80.32-48.31,.51-1.12,1.04-2.3,1.48-3.35,1.72-4.09,5.68-6.46,9.52-8.76,1.12-.67,2.19-1.31,3.15-1.96,.62-.41,1.13-.73,1.58-.98,1.75-.99,3.25-1.41,5.14-1.41,.22,0,.46,0,.71,.01,.2,0,.43,.01,.68,.01,.77,0,1.93-.06,4.06-.52,.96-.21,1.97-.31,3.01-.31,9.57,0,20.15,8.66,23.43,13.07,.86,1.16,1.5,2.16,1.99,3.07,48.94,4.19,84.84,21.58,90.08,43.75,1.44,3.32,2.17,6.74,2.17,10.16,0,14.26-12.31,27.29-34.67,36.69-20.98,8.82-48.77,13.68-78.24,13.68Z"/><path class="d" d="M117.31,123.33c-27.72,0-54.28-4.37-74.8-12.29-21.16-8.18-34.43-19.66-37.44-32.39-1.44-3.32-2.17-6.74-2.17-10.16,0-22.8,32.15-42.05,80.32-48.31,.51-1.12,1.04-2.3,1.48-3.35,1.72-4.09,5.68-6.46,9.52-8.76,1.12-.67,2.19-1.31,3.15-1.96,.62-.41,1.13-.73,1.58-.98,1.75-.99,3.25-1.41,5.14-1.41,.22,0,.46,0,.71,.01,.2,0,.43,.01,.68,.01,.77,0,1.93-.06,4.06-.52,.96-.21,1.97-.31,3.01-.31,9.57,0,20.15,8.66,23.43,13.07,.86,1.16,1.5,2.16,1.99,3.07,48.94,4.19,84.84,21.58,90.08,43.75,1.44,3.32,2.17,6.74,2.17,10.16,0,14.26-12.31,27.29-34.67,36.69-20.98,8.82-48.77,13.68-78.24,13.68Z"/><g><ellipse class="p" cx="117.31" cy="72.96" rx="107.91" ry="45.37"/><ellipse class="n" cx="115.81" cy="68.48" rx="107.91" ry="45.37"/><g><ellipse class="f" cx="117.31" cy="68.03" rx="79.85" ry="32.98"/><ellipse class="l" cx="116.86" cy="69.37" rx="73.73" ry="30.45"/></g><g><path class="o" d="M59.55,57.73s-17.31,2.69-17.61,16.72c-.3,14.03,20,18.21,28.95,17.91,8.95-.3,8.36,11.64,31.34,11.64s28.66-4.48,32.83-11.34c4.18-6.87,1.79-6.57,1.79-6.57,0,0,15.38,6.85,33.06-8.21,17.68-15.07-110.37-20.14-110.37-20.14Z"/><g><g><g><path class="m" d="M103.99,69.89c-1.54,2.3-2.28,5.28-4.57,8.08-1.05,1.29-2.45,2.55-4.39,3.68-6.15,3.58-22.16,5.92-30.79-1.9-8.61-7.84-7.27-6.72-8.96-13.43-1.67-6.71,0-14.89,0-14.89,0,0,2.36-4.81,3.81-8.27,1.46-3.48,6.72-5.71,10.86-8.51,.46-.3,.86-.56,1.21-.75,2.82-1.6,2.74,.01,9.21-1.38,7.27-1.56,18.13,6.5,21.38,10.86,3.25,4.36,2.13,5.15,4.26,9.74,2.12,4.59,.22,13.43-2.02,16.78Z"/><path class="b" d="M100.43,77.01c-1.05,1.25-2.45,2.46-4.39,3.55-6.15,3.46-22.16,5.72-30.79-1.84-8.61-7.58-7.27-6.5-8.96-12.98-1.67-6.48,0-14.39,0-14.39,0,0,2.36-4.65,3.81-7.99,1.46-3.36,6.72-5.52,10.86-8.22,.46-.29,.86-.54,1.21-.72-1.57,1.69-15.81,17.61-6.91,34.79,8.07,15.59,29.29,9.78,35.18,7.81Z"/></g><g><g><path class="k" d="M85.77,35.73c0,.88-1.32,1.6-2.96,1.6-1.48,0-2.7-.58-2.93-1.34-.03-.08-.04-.16-.04-.25,0-.88,1.86-1.21,3.5-1.21,1.34,0,2.12,.23,2.33,.8,.06,.11,.09,.25,.09,.41Z"/><path class="c" d="M85.77,35.73c0,.88-1.32,1.6-2.96,1.6-1.48,0-2.7-.58-2.93-1.34,.8,.46,2.31,1.03,4.25,.41,.96-.3,1.41-.69,1.55-1.07,.06,.11,.09,.25,.09,.41Z"/></g><g><path class="k" d="M83.28,39.7c0,.89-1.23,1.62-2.75,1.62-1.38,0-2.52-.59-2.73-1.36-.02-.08-.04-.17-.04-.26,0-.89,1.74-1.22,3.26-1.22,1.25,0,1.97,.23,2.17,.81,.06,.12,.08,.26,.08,.41Z"/><path class="c" d="M83.28,39.7c0,.89-1.23,1.62-2.75,1.62-1.38,0-2.52-.59-2.73-1.36,.74,.46,2.15,1.04,3.96,.41,.9-.31,1.31-.69,1.44-1.08,.06,.12,.08,.26,.08,.41Z"/></g><g><path class="k" d="M77.28,36.19c.04,.57-.72,1.1-1.7,1.17-.89,.06-1.65-.26-1.82-.75-.02-.05-.03-.11-.03-.16-.04-.57,1.06-.86,2.04-.93,.81-.06,1.28,.06,1.44,.42,.04,.07,.07,.16,.07,.26Z"/><path class="c" d="M77.28,36.19c.04,.57-.72,1.1-1.7,1.17-.89,.06-1.65-.26-1.82-.75,.5,.26,1.43,.57,2.57,.08,.56-.24,.81-.51,.88-.76,.04,.07,.07,.16,.07,.26Z"/></g><g><g><path class="h" d="M66.64,47.4c-1.56-.1-2.4-.85-2.4-1.54,0-.32,.18-.63,.56-.85,1.21-.71,1.13-1.13,1.54-2.13,.41-1,1.53-1.31,1.53-1.31,1.34-.09,2.32,.53,2.98,1.27,0,.01,.01,.03,.01,.03,.43,.51,.71,1.07,.85,1.51,.33,1.08-2.8,3.17-5.07,3.02Z"/><path class="g" d="M66.64,47.4c-1.56-.1-2.4-.85-2.4-1.54,.53,.49,1.55,1.05,3.29,.79,2.88-.44,3.55-2.13,3.55-2.13,0,0,.27-.74-.22-1.65,.43,.51,.71,1.07,.85,1.51,.33,1.08-2.8,3.17-5.07,3.02Z"/></g><g><path class="h" d="M76.67,41.39s0,.06-.01,.09c-.06,.62-.89,1.1-1.88,1.1-.93,0-1.7-.43-1.85-.99-.01-.06-.03-.14-.03-.2,0-.66,.84-1.19,1.88-1.19s1.89,.53,1.89,1.19Z"/><path class="g" d="M75.18,41.94c.76-.11,1.22-.29,1.48-.47-.06,.62-.89,1.1-1.88,1.1-.93,0-1.7-.43-1.85-.99,.42,.29,1.12,.53,2.25,.36Z"/><path class="g" d="M76.99,40.85l-.09-.25s.08,.14,.09,.25Z"/></g><g><path class="h" d="M65.52,41.95s0,.06-.01,.09c-.06,.62-.89,1.1-1.88,1.1-.93,0-1.7-.43-1.85-.99-.01-.06-.03-.14-.03-.2,0-.66,.84-1.19,1.88-1.19s1.89,.53,1.89,1.19Z"/><path class="g" d="M64.02,42.5c.76-.11,1.22-.29,1.48-.47-.06,.62-.89,1.1-1.88,1.1-.93,0-1.7-.43-1.85-.99,.42,.29,1.12,.53,2.25,.36Z"/><path class="g" d="M65.84,41.41l-.09-.25s.08,.14,.09,.25Z"/></g><g><path class="h" d="M72.63,38.01c.06,.29-.04,.65-.32,1.03-1.27,1.75-2.21,.15-2.21,.15-2.23,.25-3.29-.27-3.62-.6-.06-.06-.06-.13-.03-.2,.18-.33,1.22-.74,1.22-.74h.15c2.59-1.17,4.64-.74,4.8,.36Z"/><path class="g" d="M72.63,38.01c.06,.29-.04,.65-.32,1.03-1.27,1.75-2.21,.15-2.21,.15-2.23,.25-3.29-.27-3.62-.6-.06-.06-.06-.13-.03-.2,.46,.11,1.18,.24,2.18,.2,1.84-.08,1.98,.37,1.98,.37,0,0,1.15,.85,2-.95Z"/></g></g><g><g><path class="h" d="M91.87,40.7c1.51-.41,2.18-1.31,2.05-1.98-.06-.31-.3-.59-.71-.72-1.32-.46-1.33-.88-1.93-1.79-.6-.9-1.76-.98-1.76-.98-1.34,.18-2.17,.98-2.67,1.83,0,.01,0,.03,0,.03-.32,.58-.49,1.18-.54,1.65-.11,1.12,3.37,2.56,5.57,1.96Z"/><path class="g" d="M91.87,40.7c1.51-.41,2.18-1.31,2.05-1.98-.42,.59-1.31,1.34-3.07,1.42-2.91,.13-3.9-1.39-3.9-1.39,0,0-.41-.67-.11-1.66-.32,.58-.49,1.18-.54,1.65-.11,1.12,3.37,2.56,5.57,1.96Z"/></g><g><path class="h" d="M84.68,41.65s0,.06,.01,.09c.06,.62,.89,1.1,1.88,1.1,.93,0,1.7-.43,1.85-.99,.01-.06,.03-.14,.03-.2,0-.66-.84-1.19-1.88-1.19s-1.89,.53-1.89,1.19Z"/><path class="g" d="M86.18,42.21c-.76-.11-1.22-.29-1.48-.47,.06,.62,.89,1.1,1.88,1.1,.93,0,1.7-.43,1.85-.99-.42,.29-1.12,.53-2.25,.36Z"/><path class="g" d="M84.36,41.11l.09-.25s-.08,.14-.09,.25Z"/></g><g><path class="h" d="M95.13,41.54s0,.06,.01,.09c.06,.62,.89,1.1,1.88,1.1,.93,0,1.7-.43,1.85-.99,.01-.06,.03-.14,.03-.2,0-.66-.84-1.19-1.88-1.19-1.04,0-1.89,.53-1.89,1.19Z"/><path class="g" d="M96.62,42.09c-.76-.11-1.22-.29-1.48-.47,.06,.62,.89,1.1,1.88,1.1,.93,0,1.7-.43,1.85-.99-.42,.29-1.12,.53-2.25,.36Z"/><path class="g" d="M94.81,41l.09-.25s-.08,.14-.09,.25Z"/></g><g><path class="h" d="M90.11,44.09c-.06,.29,.04,.65,.32,1.03,1.27,1.75,2.21,.15,2.21,.15,2.23,.25,3.29-.27,3.62-.6,.06-.06,.06-.13,.03-.2-.18-.33-1.22-.74-1.22-.74h-.15c-2.59-1.17-4.64-.74-4.8,.36Z"/><path class="g" d="M90.11,44.09c-.06,.29,.04,.65,.32,1.03,1.27,1.75,2.21,.15,2.21,.15,2.23,.25,3.29-.27,3.62-.6,.06-.06,.06-.13,.03-.2-.46,.11-1.18,.24-2.18,.2-1.84-.08-1.98,.37-1.98,.37,0,0-1.15,.85-2-.95Z"/></g></g></g></g><g><g><path class="m" d="M177.87,67.21c-1.54,2.3-2.28,5.28-4.57,8.08-1.05,1.29-2.45,2.55-4.39,3.68-6.15,3.58-22.16,5.92-30.79-1.9-8.61-7.84-7.27-6.72-8.96-13.43-1.67-6.71,0-14.89,0-14.89,0,0,2.36-4.81,3.81-8.27,1.46-3.48,6.72-5.71,10.86-8.51,.46-.3,.86-.56,1.21-.75,2.82-1.6,2.74,.01,9.21-1.38,7.27-1.56,18.13,6.5,21.38,10.86s2.13,5.15,4.26,9.74c2.12,4.59,.22,13.43-2.02,16.78Z"/><path class="b" d="M174.31,74.32c-1.05,1.25-2.45,2.46-4.39,3.55-6.15,3.46-22.16,5.72-30.79-1.84-8.61-7.58-7.27-6.5-8.96-12.98-1.67-6.48,0-14.39,0-14.39,0,0,2.36-4.65,3.81-7.99,1.46-3.36,6.72-5.52,10.86-8.22,.46-.29,.86-.54,1.21-.72-1.57,1.69-15.81,17.61-6.91,34.79,8.07,15.59,29.29,9.78,35.18,7.81Z"/></g><g><g><path class="k" d="M159.65,33.04c0,.88-1.32,1.6-2.96,1.6-1.48,0-2.7-.58-2.93-1.34-.03-.08-.04-.16-.04-.25,0-.88,1.86-1.21,3.5-1.21,1.34,0,2.12,.23,2.33,.8,.06,.11,.09,.25,.09,.41Z"/><path class="c" d="M159.65,33.04c0,.88-1.32,1.6-2.96,1.6-1.48,0-2.7-.58-2.93-1.34,.8,.46,2.31,1.03,4.25,.41,.96-.3,1.41-.69,1.55-1.07,.06,.11,.09,.25,.09,.41Z"/></g><g><path class="k" d="M157.16,37.01c0,.89-1.23,1.62-2.75,1.62-1.38,0-2.52-.59-2.73-1.36-.02-.08-.04-.17-.04-.26,0-.89,1.74-1.22,3.26-1.22,1.25,0,1.97,.23,2.17,.81,.06,.12,.08,.26,.08,.41Z"/><path class="c" d="M157.16,37.01c0,.89-1.23,1.62-2.75,1.62-1.38,0-2.52-.59-2.73-1.36,.74,.46,2.15,1.04,3.96,.41,.9-.31,1.31-.69,1.44-1.08,.06,.12,.08,.26,.08,.41Z"/></g><g><path class="k" d="M151.16,33.5c.04,.57-.72,1.1-1.7,1.17-.89,.06-1.65-.26-1.82-.75-.02-.05-.03-.11-.03-.16-.04-.57,1.06-.86,2.04-.93,.81-.06,1.28,.06,1.44,.42,.04,.07,.07,.16,.07,.26Z"/><path class="c" d="M151.16,33.5c.04,.57-.72,1.1-1.7,1.17-.89,.06-1.65-.26-1.82-.75,.5,.26,1.43,.57,2.57,.08,.56-.24,.81-.51,.88-.76,.04,.07,.07,.16,.07,.26Z"/></g><g><g><path class="h" d="M140.52,44.71c-1.56-.1-2.4-.85-2.4-1.54,0-.32,.18-.63,.56-.85,1.21-.71,1.13-1.13,1.54-2.13,.41-1,1.53-1.31,1.53-1.31,1.34-.09,2.32,.53,2.98,1.27,0,.01,.01,.03,.01,.03,.43,.51,.71,1.07,.85,1.51,.33,1.08-2.8,3.17-5.07,3.02Z"/><path class="g" d="M140.52,44.71c-1.56-.1-2.4-.85-2.4-1.54,.53,.49,1.55,1.05,3.29,.79,2.88-.44,3.55-2.13,3.55-2.13,0,0,.27-.74-.22-1.65,.43,.51,.71,1.07,.85,1.51,.33,1.08-2.8,3.17-5.07,3.02Z"/></g><g><path class="h" d="M150.55,38.7s0,.06-.01,.09c-.06,.62-.89,1.1-1.88,1.1-.93,0-1.7-.43-1.85-.99-.01-.06-.03-.14-.03-.2,0-.66,.84-1.19,1.88-1.19s1.89,.53,1.89,1.19Z"/><path class="g" d="M149.06,39.26c.76-.11,1.22-.29,1.48-.47-.06,.62-.89,1.1-1.88,1.1-.93,0-1.7-.43-1.85-.99,.42,.29,1.12,.53,2.25,.36Z"/><path class="g" d="M150.87,38.17l-.09-.25s.08,.14,.09,.25Z"/></g><g><path class="h" d="M139.4,39.26s0,.06-.01,.09c-.06,.62-.89,1.1-1.88,1.1-.93,0-1.7-.43-1.85-.99-.01-.06-.03-.14-.03-.2,0-.66,.84-1.19,1.88-1.19s1.89,.53,1.89,1.19Z"/><path class="g" d="M137.9,39.82c.76-.11,1.22-.29,1.48-.47-.06,.62-.89,1.1-1.88,1.1-.93,0-1.7-.43-1.85-.99,.42,.29,1.12,.53,2.25,.36Z"/><path class="g" d="M139.71,38.73l-.09-.25s.08,.14,.09,.25Z"/></g><g><path class="h" d="M146.51,35.32c.06,.29-.04,.65-.32,1.03-1.27,1.75-2.21,.15-2.21,.15-2.23,.25-3.29-.27-3.62-.6-.06-.06-.06-.13-.03-.2,.18-.33,1.22-.74,1.22-.74h.15c2.59-1.17,4.64-.74,4.8,.36Z"/><path class="g" d="M146.51,35.32c.06,.29-.04,.65-.32,1.03-1.27,1.75-2.21,.15-2.21,.15-2.23,.25-3.29-.27-3.62-.6-.06-.06-.06-.13-.03-.2,.46,.11,1.18,.24,2.18,.2,1.84-.08,1.98,.37,1.98,.37,0,0,1.15,.85,2-.95Z"/></g></g><g><g><path class="h" d="M165.75,38.01c1.51-.41,2.18-1.31,2.05-1.98-.06-.31-.3-.59-.71-.72-1.32-.46-1.33-.88-1.93-1.79-.6-.9-1.76-.98-1.76-.98-1.34,.18-2.17,.98-2.67,1.83,0,.01,0,.03,0,.03-.32,.58-.49,1.18-.54,1.65-.11,1.12,3.37,2.56,5.57,1.96Z"/><path class="g" d="M165.75,38.01c1.51-.41,2.18-1.31,2.05-1.98-.42,.59-1.31,1.34-3.07,1.42-2.91,.13-3.9-1.39-3.9-1.39,0,0-.41-.67-.11-1.66-.32,.58-.49,1.18-.54,1.65-.11,1.12,3.37,2.56,5.57,1.96Z"/></g><g><path class="h" d="M158.56,38.96s0,.06,.01,.09c.06,.62,.89,1.1,1.88,1.1,.93,0,1.7-.43,1.85-.99,.01-.06,.03-.14,.03-.2,0-.66-.84-1.19-1.88-1.19s-1.89,.53-1.89,1.19Z"/><path class="g" d="M160.05,39.52c-.76-.11-1.22-.29-1.48-.47,.06,.62,.89,1.1,1.88,1.1,.93,0,1.7-.43,1.85-.99-.42,.29-1.12,.53-2.25,.36Z"/><path class="g" d="M158.24,38.43l.09-.25s-.08,.14-.09,.25Z"/></g><g><path class="h" d="M169.01,38.85s0,.06,.01,.09c.06,.62,.89,1.1,1.88,1.1,.93,0,1.7-.43,1.85-.99,.01-.06,.03-.14,.03-.2,0-.66-.84-1.19-1.88-1.19s-1.89,.53-1.89,1.19Z"/><path class="g" d="M170.5,39.41c-.76-.11-1.22-.29-1.48-.47,.06,.62,.89,1.1,1.88,1.1,.93,0,1.7-.43,1.85-.99-.42,.29-1.12,.53-2.25,.36Z"/><path class="g" d="M168.69,38.32l.09-.25s-.08,.14-.09,.25Z"/></g><g><path class="h" d="M163.99,41.41c-.06,.29,.04,.65,.32,1.03,1.27,1.75,2.21,.15,2.21,.15,2.23,.25,3.29-.27,3.62-.6,.06-.06,.06-.13,.03-.2-.18-.33-1.22-.74-1.22-.74h-.15c-2.59-1.17-4.64-.74-4.8,.36Z"/><path class="g" d="M163.99,41.41c-.06,.29,.04,.65,.32,1.03,1.27,1.75,2.21,.15,2.21,.15,2.23,.25,3.29-.27,3.62-.6,.06-.06,.06-.13,.03-.2-.46,.11-1.18,.24-2.18,.2-1.84-.08-1.98,.37-1.98,.37,0,0-1.15,.85-2-.95Z"/></g></g></g></g><g><g><path class="i" d="M134.21,45.49c-1.54,2.3-2.28,5.28-4.57,8.08-1.05,1.29-2.45,2.55-4.39,3.68-6.15,3.58-22.16,5.92-30.79-1.9-8.61-7.84-7.27-6.72-8.96-13.43-1.67-6.71,0-14.89,0-14.89,0,0,2.36-4.81,3.81-8.27,1.46-3.48,6.72-5.71,10.86-8.51,.46-.3,.86-.56,1.21-.75,2.82-1.6,2.74,.01,9.21-1.38,7.27-1.56,18.13,6.5,21.38,10.86,3.25,4.36,2.13,5.15,4.26,9.74,2.12,4.59,.22,13.43-2.02,16.78Z"/><path class="m" d="M130.65,52.6c-1.05,1.25-2.45,2.46-4.39,3.55-6.15,3.46-22.16,5.72-30.79-1.84-8.61-7.58-7.27-6.5-8.96-12.98-1.67-6.48,0-14.39,0-14.39,0,0,2.36-4.65,3.81-7.99,1.46-3.36,6.72-5.52,10.86-8.22,.46-.29,.86-.54,1.21-.72-1.57,1.69-15.81,17.61-6.91,34.79,8.07,15.59,29.29,9.78,35.18,7.81Z"/></g><g><g><path class="k" d="M115.99,11.33c0,.88-1.32,1.6-2.96,1.6-1.48,0-2.7-.58-2.93-1.34-.03-.08-.04-.16-.04-.25,0-.88,1.86-1.21,3.5-1.21,1.34,0,2.12,.23,2.33,.8,.06,.11,.09,.25,.09,.41Z"/><path class="c" d="M115.99,11.33c0,.88-1.32,1.6-2.96,1.6-1.48,0-2.7-.58-2.93-1.34,.8,.46,2.31,1.03,4.25,.41,.96-.3,1.41-.69,1.55-1.07,.06,.11,.09,.25,.09,.41Z"/></g><g><path class="k" d="M113.5,15.3c0,.89-1.23,1.62-2.75,1.62-1.38,0-2.52-.59-2.73-1.36-.02-.08-.04-.17-.04-.26,0-.89,1.74-1.22,3.26-1.22,1.25,0,1.97,.23,2.17,.81,.06,.12,.08,.26,.08,.41Z"/><path class="c" d="M113.5,15.3c0,.89-1.23,1.62-2.75,1.62-1.38,0-2.52-.59-2.73-1.36,.74,.46,2.15,1.04,3.96,.41,.9-.31,1.31-.69,1.44-1.08,.06,.12,.08,.26,.08,.41Z"/></g><g><path class="k" d="M107.51,11.79c.04,.57-.72,1.1-1.7,1.17-.89,.06-1.65-.26-1.82-.75-.02-.05-.03-.11-.03-.16-.04-.57,1.06-.86,2.04-.93,.81-.06,1.28,.06,1.44,.42,.04,.07,.07,.16,.07,.26Z"/><path class="c" d="M107.51,11.79c.04,.57-.72,1.1-1.7,1.17-.89,.06-1.65-.26-1.82-.75,.5,.26,1.43,.57,2.57,.08,.56-.24,.81-.51,.88-.76,.04,.07,.07,.16,.07,.26Z"/></g><g><g><path class="h" d="M96.86,23c-1.56-.1-2.4-.85-2.4-1.54,0-.32,.18-.63,.56-.85,1.21-.71,1.13-1.13,1.54-2.13,.41-1,1.53-1.31,1.53-1.31,1.34-.09,2.32,.53,2.98,1.27,0,.01,.01,.03,.01,.03,.43,.51,.71,1.07,.85,1.51,.33,1.08-2.8,3.17-5.07,3.02Z"/><path class="g" d="M96.86,23c-1.56-.1-2.4-.85-2.4-1.54,.53,.49,1.55,1.05,3.29,.79,2.88-.44,3.55-2.13,3.55-2.13,0,0,.27-.74-.22-1.65,.43,.51,.71,1.07,.85,1.51,.33,1.08-2.8,3.17-5.07,3.02Z"/></g><g><path class="h" d="M106.9,16.98s0,.06-.01,.09c-.06,.62-.89,1.1-1.88,1.1-.93,0-1.7-.43-1.85-.99-.01-.06-.03-.14-.03-.2,0-.66,.84-1.19,1.88-1.19s1.89,.53,1.89,1.19Z"/><path class="g" d="M105.4,17.54c.76-.11,1.22-.29,1.48-.47-.06,.62-.89,1.1-1.88,1.1-.93,0-1.7-.43-1.85-.99,.42,.29,1.12,.53,2.25,.36Z"/><path class="g" d="M107.22,16.45l-.09-.25s.08,.14,.09,.25Z"/></g><g><path class="h" d="M95.74,17.54s0,.06-.01,.09c-.06,.62-.89,1.1-1.88,1.1-.93,0-1.7-.43-1.85-.99-.01-.06-.03-.14-.03-.2,0-.66,.84-1.19,1.88-1.19s1.89,.53,1.89,1.19Z"/><path class="g" d="M94.24,18.1c.76-.11,1.22-.29,1.48-.47-.06,.62-.89,1.1-1.88,1.1-.93,0-1.7-.43-1.85-.99,.42,.29,1.12,.53,2.25,.36Z"/><path class="g" d="M96.06,17.01l-.09-.25s.08,.14,.09,.25Z"/></g><g><path class="h" d="M102.85,13.61c.06,.29-.04,.65-.32,1.03-1.27,1.75-2.21,.15-2.21,.15-2.23,.25-3.29-.27-3.62-.6-.06-.06-.06-.13-.03-.2,.18-.33,1.22-.74,1.22-.74h.15c2.59-1.17,4.64-.74,4.8,.36Z"/><path class="g" d="M102.85,13.61c.06,.29-.04,.65-.32,1.03-1.27,1.75-2.21,.15-2.21,.15-2.23,.25-3.29-.27-3.62-.6-.06-.06-.06-.13-.03-.2,.46,.11,1.18,.24,2.18,.2,1.84-.08,1.98,.37,1.98,.37,0,0,1.15,.85,2-.95Z"/></g></g><g><g><path class="h" d="M122.09,16.29c1.51-.41,2.18-1.31,2.05-1.98-.06-.31-.3-.59-.71-.72-1.32-.46-1.33-.88-1.93-1.79-.6-.9-1.76-.98-1.76-.98-1.34,.18-2.17,.98-2.67,1.83,0,.01,0,.03,0,.03-.32,.58-.49,1.18-.54,1.65-.11,1.12,3.37,2.56,5.57,1.96Z"/><path class="g" d="M122.09,16.29c1.51-.41,2.18-1.31,2.05-1.98-.42,.59-1.31,1.34-3.07,1.42-2.91,.13-3.9-1.39-3.9-1.39,0,0-.41-.67-.11-1.66-.32,.58-.49,1.18-.54,1.65-.11,1.12,3.37,2.56,5.57,1.96Z"/></g><g><path class="h" d="M114.9,17.24s0,.06,.01,.09c.06,.62,.89,1.1,1.88,1.1,.93,0,1.7-.43,1.85-.99,.01-.06,.03-.14,.03-.2,0-.66-.84-1.19-1.88-1.19s-1.89,.53-1.89,1.19Z"/><path class="g" d="M116.4,17.8c-.76-.11-1.22-.29-1.48-.47,.06,.62,.89,1.1,1.88,1.1,.93,0,1.7-.43,1.85-.99-.42,.29-1.12,.53-2.25,.36Z"/><path class="g" d="M114.59,16.71l.09-.25s-.08,.14-.09,.25Z"/></g><g><path class="h" d="M125.35,17.13s0,.06,.01,.09c.06,.62,.89,1.1,1.88,1.1,.93,0,1.7-.43,1.85-.99,.01-.06,.03-.14,.03-.2,0-.66-.84-1.19-1.88-1.19s-1.89,.53-1.89,1.19Z"/><path class="g" d="M126.85,17.69c-.76-.11-1.22-.29-1.48-.47,.06,.62,.89,1.1,1.88,1.1,.93,0,1.7-.43,1.85-.99-.42,.29-1.12,.53-2.25,.36Z"/><path class="g" d="M125.03,16.6l.09-.25s-.08,.14-.09,.25Z"/></g><g><path class="h" d="M120.33,19.69c-.06,.29,.04,.65,.32,1.03,1.27,1.75,2.21,.15,2.21,.15,2.23,.25,3.29-.27,3.62-.6,.06-.06,.06-.13,.03-.2-.18-.33-1.22-.74-1.22-.74h-.15c-2.59-1.17-4.64-.74-4.8,.36Z"/><path class="g" d="M120.33,19.69c-.06,.29,.04,.65,.32,1.03,1.27,1.75,2.21,.15,2.21,.15,2.23,.25,3.29-.27,3.62-.6,.06-.06,.06-.13,.03-.2-.46,.11-1.18,.24-2.18,.2-1.84-.08-1.98,.37-1.98,.37,0,0-1.15,.85-2-.95Z"/></g></g></g></g><g><g><path class="i" d="M138.91,88.03c-1.54,2.3-2.28,5.28-4.57,8.08-1.05,1.29-2.45,2.55-4.39,3.68-6.15,3.58-22.16,5.92-30.79-1.9-8.61-7.84-7.27-6.72-8.96-13.43-1.67-6.71,0-14.89,0-14.89,0,0,2.36-4.81,3.81-8.27,1.46-3.48,6.72-5.71,10.86-8.51,.46-.3,.86-.56,1.21-.75,2.82-1.6,2.74,.01,9.21-1.38,7.27-1.56,18.13,6.5,21.38,10.86s2.13,5.15,4.26,9.74c2.12,4.59,.22,13.43-2.02,16.78Z"/><path class="m" d="M135.35,95.14c-1.05,1.25-2.45,2.46-4.39,3.55-6.15,3.46-22.16,5.72-30.79-1.84-8.61-7.58-7.27-6.5-8.96-12.98-1.67-6.48,0-14.39,0-14.39,0,0,2.36-4.65,3.81-7.99,1.46-3.36,6.72-5.52,10.86-8.22,.46-.29,.86-.54,1.21-.72-1.57,1.69-15.81,17.61-6.91,34.79,8.07,15.59,29.29,9.78,35.18,7.81Z"/></g><g><g><path class="k" d="M120.7,53.86c0,.88-1.32,1.6-2.96,1.6-1.48,0-2.7-.58-2.93-1.34-.03-.08-.04-.16-.04-.25,0-.88,1.86-1.21,3.5-1.21,1.34,0,2.12,.23,2.33,.8,.06,.11,.09,.25,.09,.41Z"/><path class="c" d="M120.7,53.86c0,.88-1.32,1.6-2.96,1.6-1.48,0-2.7-.58-2.93-1.34,.8,.46,2.31,1.03,4.25,.41,.96-.3,1.41-.69,1.55-1.07,.06,.11,.09,.25,.09,.41Z"/></g><g><path class="k" d="M118.2,57.83c0,.89-1.23,1.62-2.75,1.62-1.38,0-2.52-.59-2.73-1.36-.02-.08-.04-.17-.04-.26,0-.89,1.74-1.22,3.26-1.22,1.25,0,1.97,.23,2.17,.81,.06,.12,.08,.26,.08,.41Z"/><path class="c" d="M118.2,57.83c0,.89-1.23,1.62-2.75,1.62-1.38,0-2.52-.59-2.73-1.36,.74,.46,2.15,1.04,3.96,.41,.9-.31,1.31-.69,1.44-1.08,.06,.12,.08,.26,.08,.41Z"/></g><g><path class="k" d="M112.21,54.32c.04,.57-.72,1.1-1.7,1.17-.89,.06-1.65-.26-1.82-.75-.02-.05-.03-.11-.03-.16-.04-.57,1.06-.86,2.04-.93,.81-.06,1.28,.06,1.44,.42,.04,.07,.07,.16,.07,.26Z"/><path class="c" d="M112.21,54.32c.04,.57-.72,1.1-1.7,1.17-.89,.06-1.65-.26-1.82-.75,.5,.26,1.43,.57,2.57,.08,.56-.24,.81-.51,.88-.76,.04,.07,.07,.16,.07,.26Z"/></g><g><g><path class="h" d="M101.56,65.53c-1.56-.1-2.4-.85-2.4-1.54,0-.32,.18-.63,.56-.85,1.21-.71,1.13-1.13,1.54-2.13,.41-1,1.53-1.31,1.53-1.31,1.34-.09,2.32,.53,2.98,1.27,0,.01,.01,.03,.01,.03,.43,.51,.71,1.07,.85,1.51,.33,1.08-2.8,3.17-5.07,3.02Z"/><path class="g" d="M101.56,65.53c-1.56-.1-2.4-.85-2.4-1.54,.53,.49,1.55,1.05,3.29,.79,2.88-.44,3.55-2.13,3.55-2.13,0,0,.27-.74-.22-1.65,.43,.51,.71,1.07,.85,1.51,.33,1.08-2.8,3.17-5.07,3.02Z"/></g><g><path class="h" d="M111.6,59.52s0,.06-.01,.09c-.06,.62-.89,1.1-1.88,1.1-.93,0-1.7-.43-1.85-.99-.01-.06-.03-.14-.03-.2,0-.66,.84-1.19,1.88-1.19s1.89,.53,1.89,1.19Z"/><path class="g" d="M110.1,60.08c.76-.11,1.22-.29,1.48-.47-.06,.62-.89,1.1-1.88,1.1-.93,0-1.7-.43-1.85-.99,.42,.29,1.12,.53,2.25,.36Z"/><path class="g" d="M111.92,58.99l-.09-.25s.08,.14,.09,.25Z"/></g><g><path class="h" d="M100.44,60.08s0,.06-.01,.09c-.06,.62-.89,1.1-1.88,1.1-.93,0-1.7-.43-1.85-.99-.01-.06-.03-.14-.03-.2,0-.66,.84-1.19,1.88-1.19s1.89,.53,1.89,1.19Z"/><path class="g" d="M98.95,60.64c.76-.11,1.22-.29,1.48-.47-.06,.62-.89,1.1-1.88,1.1-.93,0-1.7-.43-1.85-.99,.42,.29,1.12,.53,2.25,.36Z"/><path class="g" d="M100.76,59.55l-.09-.25s.08,.14,.09,.25Z"/></g><g><path class="h" d="M107.55,56.15c.06,.29-.04,.65-.32,1.03-1.27,1.75-2.21,.15-2.21,.15-2.23,.25-3.29-.27-3.62-.6-.06-.06-.06-.13-.03-.2,.18-.33,1.22-.74,1.22-.74h.15c2.59-1.17,4.64-.74,4.8,.36Z"/><path class="g" d="M107.55,56.15c.06,.29-.04,.65-.32,1.03-1.27,1.75-2.21,.15-2.21,.15-2.23,.25-3.29-.27-3.62-.6-.06-.06-.06-.13-.03-.2,.46,.11,1.18,.24,2.18,.2,1.84-.08,1.98,.37,1.98,.37,0,0,1.15,.85,2-.95Z"/></g></g><g><g><path class="h" d="M126.79,58.83c1.51-.41,2.18-1.31,2.05-1.98-.06-.31-.3-.59-.71-.72-1.32-.46-1.33-.88-1.93-1.79-.6-.9-1.76-.98-1.76-.98-1.34,.18-2.17,.98-2.67,1.83,0,.01,0,.03,0,.03-.32,.58-.49,1.18-.54,1.65-.11,1.12,3.37,2.56,5.57,1.96Z"/><path class="g" d="M126.79,58.83c1.51-.41,2.18-1.31,2.05-1.98-.42,.59-1.31,1.34-3.07,1.42-2.91,.13-3.9-1.39-3.9-1.39,0,0-.41-.67-.11-1.66-.32,.58-.49,1.18-.54,1.65-.11,1.12,3.37,2.56,5.57,1.96Z"/></g><g><path class="h" d="M119.6,59.78s0,.06,.01,.09c.06,.62,.89,1.1,1.88,1.1,.93,0,1.7-.43,1.85-.99,.01-.06,.03-.14,.03-.2,0-.66-.84-1.19-1.88-1.19s-1.89,.53-1.89,1.19Z"/><path class="g" d="M121.1,60.34c-.76-.11-1.22-.29-1.48-.47,.06,.62,.89,1.1,1.88,1.1,.93,0,1.7-.43,1.85-.99-.42,.29-1.12,.53-2.25,.36Z"/><path class="g" d="M119.29,59.25l.09-.25s-.08,.14-.09,.25Z"/></g><g><path class="h" d="M130.05,59.67s0,.06,.01,.09c.06,.62,.89,1.1,1.88,1.1,.93,0,1.7-.43,1.85-.99,.01-.06,.03-.14,.03-.2,0-.66-.84-1.19-1.88-1.19s-1.89,.53-1.89,1.19Z"/><path class="g" d="M131.55,60.23c-.76-.11-1.22-.29-1.48-.47,.06,.62,.89,1.1,1.88,1.1,.93,0,1.7-.43,1.85-.99-.42,.29-1.12,.53-2.25,.36Z"/><path class="g" d="M129.73,59.14l.09-.25s-.08,.14-.09,.25Z"/></g><g><path class="h" d="M125.03,62.23c-.06,.29,.04,.65,.32,1.03,1.27,1.75,2.21,.15,2.21,.15,2.23,.25,3.29-.27,3.62-.6,.06-.06,.06-.13,.03-.2-.18-.33-1.22-.74-1.22-.74h-.15c-2.59-1.17-4.64-.74-4.8,.36Z"/><path class="g" d="M125.03,62.23c-.06,.29,.04,.65,.32,1.03,1.27,1.75,2.21,.15,2.21,.15,2.23,.25,3.29-.27,3.62-.6,.06-.06,.06-.13,.03-.2-.46,.11-1.18,.24-2.18,.2-1.84-.08-1.98,.37-1.98,.37,0,0-1.15,.85-2-.95Z"/></g></g></g></g><path class="j" d="M125.59,26.46s4.7,6.72,2.69,12.54-2.69-12.54-2.69-12.54Z"/><path class="j" d="M132.98,67.88s4.7,6.72,2.69,12.54c-2.01,5.82-2.69-12.54-2.69-12.54Z"/></g></g></g></svg>