<?xml version="1.0" encoding="UTF-8"?><svg id="a" xmlns="http://www.w3.org/2000/svg" viewBox="0 0 191.4 197.85"><defs><style>.b{fill:#d87556;opacity:.31;}.b,.c,.d,.e,.f,.g,.h,.i,.j{fill-rule:evenodd;}.k{fill:#fff;}.l,.m,.g{fill:#f5916a;}.n,.m{opacity:.5;}.o{fill:#a35e40;}.o,.p,.q,.r,.s,.t{stroke-miterlimit:10;}.o,.p,.q,.s,.t{stroke:#9b372d;}.c{fill:#ffc7c0;}.p{fill:#f45c4d;}.u{fill:#9b372d;}.d{fill:#ffd4cc;}.e{fill:#d67254;}.v{fill:#6b3632;}.w{fill:#ffc7ab;}.f{fill:#f2aa86;}.g{opacity:.43;}.h{fill:#f9b690;}.i{fill:#d88866;}.q{fill:#e58361;}.x{opacity:.42;}.r{fill:none;stroke:#a35e40;stroke-width:2px;}.s{fill:#ff7d50;}.t{fill:#f26f51;}.j{fill:#e29a76;}</style></defs><path class="n" d="M132.42,194.85c-2.82-.05-5.54-.83-7.99-2.27-.35,.04-.7,.06-1.06,.08-.28,.01-.58,.02-.88,.02-6.35,0-12.16-3.12-18.89-6.72-2.48-1.33-5.04-2.7-7.87-4.06-6.49-3.11-13.88-4.79-18.93-5.64-.81-.14-1.68-.27-2.6-.41-7.15-1.11-16.95-2.62-22.92-8.24-8.36-7.87-3.83-16.19-.83-21.69,.79-1.45,1.53-2.81,2.1-4.14,.16-.37,.41-1.03,.7-2.1,.06-.2,.11-.4,.16-.61-14.25,2.95-24.95,4.44-31.88,4.44-4.6,0-10.19-.53-12.58-4.63-.6-1.03-1.33-2.92-.71-5.38-.03-.12-.05-.25-.07-.37-.17-.94-.17-1.69-.14-2.06l.04-.88c-.07-.55-.04-1.12,.08-1.66L13.99,12.75c.13-2.67,2.34-4.75,4.99-4.75,.05,0,.56,.02,.67,.02H174.81c2.75,0,4.98,2.22,5,4.97l.46,71.4c0,.18,0,.35-.02,.53-.2,2.65-1.94,6.27-11.66,12.77-6.82,4.56-16.01,9.45-26.66,14.19-.07,.08-.14,.16-.22,.24-5.24,5.35-10.41,7.61-15,8.52,0,0,.21,.33,.28,.43l.17,.26,.44,.61c.1,.13,.47,.61,.47,.61,.13,.17,.5,.61,.5,.61,.25,.29,.44,.52,.64,.74,0,0,.47,.52,.65,.7l.67,.7,.72,.71,.75,.72,.8,.74,1.2,1.06,.85,.73,.85,.71c.34,.28,.65,.53,.96,.78l1.48,1.17,1.82,1.38,1.57,1.15,1.47,1.05,1.04,.73c.69,.48,1.39,.96,2.1,1.43l2.44,1.61,2.21,1.42c.08,.01,.49,.06,.62,.08,.17,.01,.35,.02,.54,.03h.4c.26,.01,.52,0,.79-.01,.48-.04,.94-.07,1.38-.1,0,0,1-.06,1.28-.07,0,0,.94-.03,1.17-.04,0,0,.51,0,.53,0,.27,0,.45,0,.62,0h.41c.24,.02,.45,.03,.66,.04l.43,.03c.19,.02,.42,.04,.65,.07,0,0,.45,.06,.51,.07,.06,0,.11,0,.16,0,.94,0,1.87,.24,2.69,.69,.33,.18,.67,.41,1,.66,.12,.1,.29,.25,.4,.35l-.04-.03c.21,.2,.39,.38,.54,.56,.03,.03,.05,.06,.08,.09,.29,.02,.52,.04,.74,.06l.34,.04c.21,.03,.4,.06,.59,.09,.84,.05,1.67,.29,2.41,.7,.16,.09,.31,.17,.45,.26,.88,.48,1.63,1.11,2.23,1.89,.09,0,.18,.02,.26,.03,.18,.02,.34,.04,.5,.06,.16,.02,.33,.05,.49,.08,.19,.04,.37,.07,.53,.11,.2,.05,.39,.1,.57,.16,.17,.05,.33,.1,.48,.16,.23,.09,.4,.16,.58,.24,.19,.08,.36,.17,.52,.26,.36,.2,.71,.43,1.02,.68,.13,.11,.3,.26,.43,.39,.2,.19,.38,.38,.54,.57,.14,.17,.27,.35,.39,.54,.11,.16,.25,.38,.37,.61,.05,.08,.09,.17,.13,.26,.07,.01,.14,.03,.2,.04,.16,.03,.33,.08,.49,.12,.2,.06,.35,.1,.5,.15,.02,0,.08,.03,.1,.03,.15,.05,.31,.11,.45,.16,.21,.08,.38,.16,.55,.25,.19,.09,.35,.17,.5,.26,.34,.2,.62,.4,.89,.62,.2,.17,.34,.3,.48,.43,.16,.15,.39,.39,.64,.71,.11,.13,.22,.3,.33,.47,.13,.2,.27,.43,.38,.67,.07,.14,.15,.32,.22,.5,.1,.26,.17,.48,.24,.7,.04,.14,.08,.31,.12,.49,.03,.15,.06,.3,.08,.46,.09,.07,.27,.21,.27,.21,.07,.05,.13,.11,.19,.16,.23,.19,.44,.4,.64,.62,.07,.08,.14,.15,.2,.23,.22,.26,.41,.52,.59,.79,.05,.08,.11,.17,.16,.26h0c.23,.39,.42,.8,.57,1.22,.03,.08,.06,.18,.09,.27,.1,.29,.18,.66,.25,1.04,.01,.08,.04,.25,.05,.42,.03,.25,.05,.59,.04,.93,0,.07,0,.29,0,.33-.02,.42-.08,.83-.16,1.24-.01,.06-.03,.14-.05,.21-.07,.31-.16,.64-.27,.98,0,0-.1,.28-.1,.29-.11,.29-.23,.59-.37,.89l-.1,.22c-.16,.33-.34,.67-.54,1.02h0c-.1,.21-.23,.43-.37,.66-.06,.1-.13,.21-.21,.33-.21,.32-.45,.66-.74,1.02-.44,.55-1,1-1.63,1.32-.32,.17-.67,.32-1.03,.47-.22,.11-.45,.21-.68,.3-.1,.04-.22,.09-.34,.13-.13,.05-.32,.12-.54,.19-.1,.03-.22,.07-.33,.1-.22,.06-.38,.11-.55,.16l-.3,.07-1.28-4.84,1.13,4.87c-.16,.04-.31,.07-.48,.1,0,0-.36,.07-.37,.07-.17,.03-.34,.06-.51,.09l-.38,.06c-.18,.03-.37,.05-.56,.07l-.39,.04c-.16,.02-.35,.04-.54,.05l-.39,.03c-.16,.39-.36,.8-.61,1.22-.07,.12-.14,.24-.22,.36-.29,.46-.62,.93-.98,1.35-.04,.05-.1,.11-.15,.17-.31,.35-.66,.71-1.05,1.07-.09,.08-.16,.14-.23,.21-.37,.32-.77,.64-1.17,.93-.04,.03-.07,.06-.11,.08-.17,.13-.37,.27-.56,.41l-.23,.16c-.27,.18-.51,.33-.74,.46-.06,.04-.15,.09-.24,.14-.61,.35-1.27,.67-1.95,.94l-.28,.11c-.26,.1-.51,.18-.75,.26-.11,.04-.22,.07-.34,.1-.19,.06-.36,.1-.52,.14-1.01,1.32-2.87,2.96-6.03,3.52-1.5,1.86-3.95,3.38-7.59,3.85-1.82,1.4-5,3.27-9.11,3.3,0,0-.47,0-.63,0-3.17,2-6.6,3.05-10.05,3.05,0,0-.32,0-.36,0Z"/><path class="k" d="M127.42,189.85c-2.82-.05-5.54-.83-7.99-2.27-.35,.04-.7,.06-1.06,.08-.28,.01-.58,.02-.88,.02-6.35,0-12.16-3.12-18.89-6.72-2.48-1.33-5.04-2.7-7.87-4.06-6.49-3.11-13.88-4.79-18.93-5.64-.81-.14-1.68-.27-2.6-.41-7.15-1.11-16.95-2.62-22.92-8.24-8.36-7.87-3.83-16.19-.83-21.69,.79-1.45,1.53-2.81,2.1-4.14,.16-.37,.41-1.03,.7-2.1,.06-.2,.11-.4,.16-.61-14.25,2.95-24.95,4.44-31.88,4.44-4.6,0-10.19-.53-12.58-4.63-.6-1.03-1.33-2.92-.71-5.38-.03-.12-.05-.25-.07-.37-.17-.94-.17-1.69-.14-2.06l.04-.88c-.07-.55-.04-1.12,.08-1.66L8.99,7.75c.13-2.67,2.34-4.75,4.99-4.75,.05,0,.56,.02,.67,.02H169.81c2.75,0,4.98,2.22,5,4.97l.46,71.4c0,.18,0,.35-.02,.53-.2,2.65-1.94,6.27-11.66,12.77-6.82,4.56-16.01,9.45-26.66,14.19-.07,.08-.14,.16-.22,.24-5.24,5.35-10.41,7.61-15,8.52,0,0,.21,.33,.28,.43l.17,.26,.44,.61c.1,.13,.47,.61,.47,.61,.13,.17,.5,.61,.5,.61,.25,.29,.44,.52,.64,.74,0,0,.47,.52,.65,.7l.67,.7,.72,.71,.75,.72,.8,.74,1.2,1.06,.85,.73,.85,.71c.34,.28,.65,.53,.96,.78l1.48,1.17,1.82,1.38,1.57,1.15,1.47,1.05,1.04,.73c.69,.48,1.39,.96,2.1,1.43l2.44,1.61,2.21,1.42c.08,.01,.49,.06,.62,.08,.17,.01,.35,.02,.54,.03h.4c.26,.01,.52,0,.79-.01,.48-.04,.94-.07,1.38-.1,0,0,1-.06,1.28-.07,0,0,.94-.03,1.17-.04,0,0,.51,0,.53,0,.27,0,.45,0,.62,0h.41c.24,.02,.45,.03,.66,.04l.43,.03c.19,.02,.42,.04,.65,.07,0,0,.45,.06,.51,.07,.06,0,.11,0,.16,0,.94,0,1.87,.24,2.69,.69,.33,.18,.67,.41,1,.66,.12,.1,.29,.25,.4,.35l-.04-.03c.21,.2,.39,.38,.54,.56,.03,.03,.05,.06,.08,.09,.29,.02,.52,.04,.74,.06l.34,.04c.21,.03,.4,.06,.59,.09,.84,.05,1.67,.29,2.41,.7,.16,.09,.31,.17,.45,.26,.88,.48,1.63,1.11,2.23,1.89,.09,0,.18,.02,.26,.03,.18,.02,.34,.04,.5,.06,.16,.02,.33,.05,.49,.08,.19,.04,.37,.07,.53,.11,.2,.05,.39,.1,.57,.16,.17,.05,.33,.1,.48,.16,.23,.09,.4,.16,.58,.24,.19,.08,.36,.17,.52,.26,.36,.2,.71,.43,1.02,.68,.13,.11,.3,.26,.43,.39,.2,.19,.38,.38,.54,.57,.14,.17,.27,.35,.39,.54,.11,.16,.25,.38,.37,.61,.05,.08,.09,.17,.13,.26,.07,.01,.14,.03,.2,.04,.16,.03,.33,.08,.49,.12,.2,.06,.35,.1,.5,.15,.02,0,.08,.03,.1,.03,.15,.05,.31,.11,.45,.16,.21,.08,.38,.16,.55,.25,.19,.09,.35,.17,.5,.26,.34,.2,.62,.4,.89,.62,.2,.17,.34,.3,.48,.43,.16,.15,.39,.39,.64,.71,.11,.13,.22,.3,.33,.47,.13,.2,.27,.43,.38,.67,.07,.14,.15,.32,.22,.5,.1,.26,.17,.48,.24,.7,.04,.14,.08,.31,.12,.49,.03,.15,.06,.3,.08,.46,.09,.07,.27,.21,.27,.21,.07,.05,.13,.11,.19,.16,.23,.19,.44,.4,.64,.62,.07,.08,.14,.15,.2,.23,.22,.26,.41,.52,.59,.79,.05,.08,.11,.17,.16,.26h0c.23,.39,.42,.8,.57,1.22,.03,.08,.06,.18,.09,.27,.1,.29,.18,.66,.25,1.04,.01,.08,.04,.25,.05,.42,.03,.25,.05,.59,.04,.93,0,.07,0,.29,0,.33-.02,.42-.08,.83-.16,1.24-.01,.06-.03,.14-.05,.21-.07,.31-.16,.64-.27,.98,0,0-.1,.28-.1,.29-.11,.29-.23,.59-.37,.89l-.1,.22c-.16,.33-.34,.67-.54,1.02h0c-.1,.21-.23,.43-.37,.66-.06,.1-.13,.21-.21,.33-.21,.32-.45,.66-.74,1.02-.44,.55-1,1-1.63,1.32-.32,.17-.67,.32-1.03,.47-.22,.11-.45,.21-.68,.3-.1,.04-.22,.09-.34,.13-.13,.05-.32,.12-.54,.19-.1,.03-.22,.07-.33,.1-.22,.06-.38,.11-.55,.16l-.3,.07-1.28-4.84,1.13,4.87c-.16,.04-.31,.07-.48,.1,0,0-.36,.07-.37,.07-.17,.03-.34,.06-.51,.09l-.38,.06c-.18,.03-.37,.05-.56,.07l-.39,.04c-.16,.02-.35,.04-.54,.05l-.39,.03c-.16,.39-.36,.8-.61,1.22-.07,.12-.14,.24-.22,.36-.29,.46-.62,.93-.98,1.35-.04,.05-.1,.11-.15,.17-.31,.35-.66,.71-1.05,1.07-.09,.08-.16,.14-.23,.21-.37,.32-.77,.64-1.17,.93-.04,.03-.07,.06-.11,.08-.17,.13-.37,.27-.56,.41l-.23,.16c-.27,.18-.51,.33-.74,.46-.06,.04-.15,.09-.24,.14-.61,.35-1.27,.67-1.95,.94l-.28,.11c-.26,.1-.51,.18-.75,.26-.11,.04-.22,.07-.34,.1-.19,.06-.36,.1-.52,.14-1.01,1.32-2.87,2.96-6.03,3.52-1.5,1.86-3.95,3.38-7.59,3.85-1.82,1.4-5,3.27-9.11,3.3,0,0-.47,0-.63,0-3.17,2-6.6,3.05-10.05,3.05,0,0-.32,0-.36,0Z"/><g><path class="q" d="M148.09,8.02l-5.25,69.63s-1.76,8.35,27.43,1.77l-.46-71.4h-21.72Z"/><path class="q" d="M14.65,8.02c-.22,0-.44-.01-.67-.02l-5.97,118.32s-1.15,13.03,32.95,3.09l-2.13-121.4H14.65Z"/><path class="o" d="M104.69,77.87S22.64,106.5,22.07,109.02c-.08,.36,1.5,.19,5.22-.68,29.76-6.92-12.02,14.56-13.81,15.52-1.89,1.01-28.05,20.57,53.4,.89,81.46-19.68,116.36-49.42,99.07-46.44-21.25,3.67-37.99,2.5-.39-15.21,10.48-4.94-9.86-8.89-60.87,14.76Z"/><g><path class="i" d="M152.84,145.13s6,5.71,13.72,5.08c7.72-.63,9.11,.23,8.84,3.03-.27,2.81-11.85,2.73-11.85,2.73,0,0-11.55-1.98-11.65-2.84s.93-8,.93-8Z"/><path class="i" d="M147.13,141.7s6.14,5.55,13.84,4.71,9.11-.02,8.91,2.79c-.2,2.81-11.77,3.05-11.77,3.05,0,0-11.59-1.67-11.71-2.53s.73-8.02,.73-8.02Z"/><path class="j" d="M139.79,138.22s7.42,5.67,15.15,5.04,9.11,.23,8.84,3.03-11.85,2.73-11.85,2.73c0,0-11.55-1.98-11.65-2.84s-.49-7.96-.49-7.96Z"/><path class="j" d="M134.8,135.68s6,5.71,13.72,5.08,9.11,.23,8.84,3.03c-.27,2.81-11.85,2.73-11.85,2.73,0,0-11.55-1.98-11.65-2.84s.93-8,.93-8Z"/><path class="i" d="M139.8,138.31s7.42,5.67,15.15,5.04c7.72-.63,9.11,.23,8.84,3.03-.27,2.81-11.85,2.73-11.85,2.73,0,0-11.55-1.98-11.65-2.84s-.49-7.96-.49-7.96Z"/><path class="i" d="M134.81,135.77s6,5.71,13.72,5.08c7.72-.63,9.11,.23,8.84,3.03-.27,2.81-11.85,2.73-11.85,2.73,0,0-11.55-1.98-11.65-2.84s.93-8,.93-8Z"/><path class="f" d="M120.99,14s-9.71,87.02-5.02,101.18,45.1,35.16,45.1,35.16c0,0,9.27,4.96,10.53,4.4s10.14-.89,5.49,6.11c-4.64,7.01-50.15-4.43-50.42-5.22s-33.03-20.04-33.31-21.36-4.8-117.03-4.8-117.03c0,0,26.97-9.22,32.44-3.25Z"/><path class="b" d="M108.2,12.41s-9.56,79.13-8.72,94.07c.93,16.46,15.96,29.89,35.54,40.94,7.74,4.37,22.97,12.24,31.76,11.74,1.14-.06,8.32-.67,8.36-.96,1.52-.48,3.99,.2,1.45,3.36-11.16,5.71-53.81-5.32-53.29-5.89,.55-.61-31.14-17.8-31.43-19.12s-4.8-117.03-4.8-117.03c0,0,15.65-13.09,21.12-7.12Z"/><path class="c" d="M174.14,152.96c-.39,.03-.87,.06-1.29,.1-.46,.04-.86-.29-.98-.75s-.44-.84-.92-1.19c-.13-.09-.07-.3,.08-.31l2.24-.14c.15,0,.3,.03,.43,.1,.62,.34,.95,.79,1.08,1.33,.1,.43-.21,.84-.63,.87Z"/><path class="c" d="M175.95,158.18c-.62,.04-1.39,.1-2.05,.15-.73,.06-1.36-.44-1.56-1.14-.2-.68-.7-1.28-1.47-1.81-.2-.14-.11-.46,.13-.47l3.56-.22c.24-.01,.48,.04,.69,.15,.99,.52,1.52,1.2,1.72,2.02,.16,.65-.34,1.28-1.01,1.33Z"/><path class="c" d="M169.04,148.87c-.39,.03-.87,.06-1.29,.1-.46,.04-.86-.29-.98-.75s-.44-.84-.92-1.19c-.13-.09-.07-.3,.08-.31l2.24-.14c.15,0,.3,.03,.43,.1,.62,.34,.95,.79,1.08,1.33,.1,.43-.21,.84-.63,.87Z"/><path class="c" d="M162.74,145.6c-.39,.03-.87,.06-1.29,.1-.46,.04-.86-.29-.98-.75s-.44-.84-.92-1.19c-.13-.09-.07-.3,.08-.31l2.24-.14c.15,0,.3,.03,.43,.1,.62,.34,.95,.79,1.08,1.33,.1,.43-.21,.84-.63,.87Z"/><path class="c" d="M156.54,142.51c-.29,.02-.65,.05-.97,.07-.35,.03-.64-.22-.74-.56s-.33-.63-.69-.9c-.1-.07-.05-.23,.06-.23l1.68-.11c.11,0,.22,.02,.32,.07,.47,.25,.72,.6,.81,1,.08,.32-.16,.63-.48,.65Z"/><path class="v" d="M169.37,150.05c-.6,.5-1.4,.37-2.11,.5l-2.13,.11c-1.44,.14-2.83,.15-4.23-.36v-.1c.7-.29,1.41-.41,2.12-.47,1.23-.06,2.99,.26,4.24,.32,.64,.02,1.46,.25,2.02-.05l.09,.05h0Z"/><path class="v" d="M164.13,146.2c-1.64,.49-3.41,.42-5.09,.42-1.71,.08-3.32,.18-5.04-.16v-.1c1.6-.75,3.37-.81,5.08-.54,1.7,.18,3.34,.48,5.03,.28l.02,.1h0Z"/><path class="v" d="M157.41,143.18c-2.77,.72-5.71,.68-8.52,.22l-.02-.1c.67-.38,1.4-.54,2.13-.61,2.15-.03,4.23,.71,6.38,.4l.02,.1h0Z"/><path class="r" d="M88.59,18.34c-.03-.72-.04-1.1-.04-1.1,0,0,1.07-.37,2.83-.9,5.05-3.43,13.19-7.89,16.83-3.92h0c5.59-.76,10.72-.67,12.78,1.58,0,0-9.71,87.02-5.02,101.18,2.61,7.9,16.34,17.93,27.98,25.25,1.43,.31,2.97,.46,4.59,.33,3.38-.28,5.54-.27,6.89,.06l.47-.03c.11,0,.22,.02,.32,.07,.39,.22,.63,.49,.75,.81,.3,.37,.42,.85,.43,1.42,1.98-.09,3.39-.02,4.37,.21h.09c.15-.02,.3,.02,.43,.09,.1,.05,.18,.11,.27,.17,.9,.41,1.23,1.08,1.25,2.04,0,.17,0,.35,0,.55,5.23-.33,6.26,.61,6.09,3.04-.02,.31-.18,.59-.44,.83,5.2-.18,6.19,.79,5.96,3.21-.05,.5-.46,.91-1.1,1.25,2.62,.17,5.72,1.41,3.13,5.78-.18,.38-.45,.81-.85,1.3-.26,.14-.55,.26-.84,.38-1.26,.64-3.15,.99-5.47,1.11-15.92,1.34-47.42-6.89-46.97-7.38,.55-.61-31.14-17.8-31.43-19.12-.29-1.31-4.8-117.03-4.8-117.03,0,0,.56-.47,1.51-1.19Z"/></g><path class="l" d="M151.54,173.21c3.69,1.28,5.66-1.06,6.09-2.87,0,0,3.49,.52,6.64-3.13,1.39-.07,.18,.61,1.46-.04-1.37,2.37-4.65,4.25-7.76,4.41-.32,1.05-1.27,3.61-6.09,3.24,.15-.81-.36-1.57-.34-1.61Z"/><g><path class="h" d="M97.48,12.79L49.81,29.95l6.17,66.19c.86,19.48-1.32,36.69-3.83,42.59-3.03,7.11-9.54,13.55-2.44,20.23,5.54,5.21,16.38,6.26,22.93,7.37,5.05,.85,13.12,2.63,20.27,6.06,11.44,5.49,18.89,11.34,26.71,10.13l.97-.19c4.94,3.87,11.06,3.03,15.9-.71,5.3,1.12,9.05-3.01,9.01-2.96,6.32-.16,6.45-3.8,6.48-3.86,4.37,.23,5.75-2.1,6.09-3.21,3.49-.18,7.19-2.52,8.17-5.29,.89-2.49-.65-4.72-2.85-5.3-1.19-.32-2.53-.34-3.57-.43-5.2-.46-13.39-4.17-18.36-5.17-6.17-1.23-17.13-9.18-21.64-12.32-9.47-6.6-11.69-8.55-19.43-13.84-14.82-4.39-6.8-91.7-2.91-116.45Z"/><path class="m" d="M52.19,138.72c2.52-5.9,4.69-23.11,3.83-42.59l-6.17-66.19,3.84-1.38,5.99,64.3c.86,19.48-1.32,36.69-3.83,42.59-3.03,7.11-9.54,13.55-2.44,20.23,5.54,5.21,16.38,6.26,22.93,7.37,5.05,.85,13.12,2.63,20.27,6.06,11.44,5.49,18.89,11.34,26.71,10.13l.97-.19c4.94,3.87,7.41,5.19,12.24,1.45,5.3,1.12,9.04-3.2,9-3.15,.84,.8,5.19-.54,6.45-2.34-.16,.8-1.02,3.5-6.44,3.63,.04-.05-3.71,4.08-9.01,2.96-4.84,3.74-10.96,4.58-15.9,.71l-.97,.19c-7.82,1.21-15.28-4.64-26.71-10.13-7.15-3.43-15.22-5.21-20.27-6.06-6.55-1.1-17.38-2.15-22.93-7.37-7.1-6.68-.59-13.13,2.44-20.23Z"/><path class="w" d="M160.27,163.85c-1.19-.32-2.53-.34-3.57-.43-5.2-.46-13.39-4.17-18.36-5.17-6.17-1.23-17.13-9.18-21.64-12.32-9.47-6.6-11.69-8.55-19.43-13.84-14.82-4.39-6.8-91.7-2.91-116.45l-43.82,15.78-.18-1.88L98.03,12.38c-3.89,24.75-11.91,112.06,2.91,116.45,7.74,5.29,9.96,7.24,19.43,13.84,4.51,3.14,15.46,11.09,21.64,12.32,4.97,.99,13.16,4.71,18.36,5.17,1.03,.09,2.38,.11,3.57,.43,2.19,.59,3.73,2.81,2.85,5.3-.59,1.67-2.17,3.17-4.08,4.15,.17-.29,.31-.58,.41-.88,.89-2.49-.65-4.72-2.85-5.3Z"/><path class="r" d="M52.14,138.72c2.52-5.9,4.69-23.11,3.83-42.59l-6.17-66.19,.57-.21-.02-.2L98.03,12.38c-3.89,24.75-11.91,112.06,2.91,116.45,7.74,5.29,9.96,7.24,19.43,13.84,4.51,3.14,15.46,11.09,21.64,12.32,4.97,.99,13.16,4.71,18.36,5.17,1.03,.09,2.38,.11,3.57,.43,2.19,.59,3.73,2.81,2.85,5.3-.46,1.29-1.51,2.49-2.86,3.42-1.61,1.29-3.78,2.17-5.87,2.28-.34,1.11-1.72,3.44-6.09,3.21-.03,.06-.16,3.7-6.48,3.86,.04-.05-3.71,4.08-9.01,2.96-4.84,3.74-10.96,4.58-15.9,.71l-.97,.19c-7.82,1.21-15.28-4.64-26.71-10.13-7.15-3.43-15.22-5.21-20.27-6.06-6.55-1.1-17.38-2.15-22.93-7.37-7.1-6.68-.59-13.13,2.44-20.23Z"/><path class="g" d="M58.6,30.16c1.43,11.86,7.23,62.56,5.64,93.03,.9,.48,1.78,1.01,2.64,1.57,.27-3.5,.5-7.03,.66-10.53,1.34-28.83,.68-77.52-.33-87.17l-8.61,3.1h0Zm3.32,109.21c-.38,1.62-.58,4.22,1.41,5.57,3.03,2.06,8.24,1.08,12.82,5.37-.92-3.05-8.55-5.46-10.71-6.96-1.36-.95-1.58-2.2-1.47-3.22,.39-3.37-1.54-2.95-2.05-.77Z"/><path class="e" d="M135.24,177.79c-.61-.27-3.15-.54-3.71-.73-.93-.33-4.57-1.53-4.57-1.53,0,0,1.99,.98,2.96,1.52,1.05,.66,2.17,.91,3.17,1.27,.54,.19,1.1,.39,1.64,.64,.49,.22,.92,.54,1.12,1.04,.2,.49,.21,1.17-.09,2.15,1.97-1.37,1.32-3.52-.53-4.35h0Zm9.53,1.53c.85-.68,1.06-1.46,1.06-2.29,.02-1.58-.74-2.61-3.09-2.72-3.64,.1-6.12-.61-7.48-2.1,0,0-.08,.99,1.24,1.46,1.36,.6,3.38,1.24,5.7,1.34h0c3.39,.15,2.58,4.07,2.58,4.08-.02,.08-.02,.15,0,.23h0Zm6.9-3.5c.07-.87,.14-4.25-3.34-4.41h0c-.42-.02-.84-.05-1.25-.1-.4-.05-.8-.11-1.2-.18-2.01-.36-3.53-1.19-4.68-1.67-.3-.13-1.05-.69-1.05-.69,0,0,1.13,.32,1.43,.45,1.1,.46,1.91,.43,3.81,.78,.36,.07,1.24,.15,1.63,.2,.38,.04,1.01-.05,1.41-.03h0c3.07,.14,4.51,3.01,3.24,5.67h0Zm2.97-9.61c-2.89-.13-5.31-.63-6.66-.94-.88-.2-1.71-.56-2.46-1.07l-.05-.03h0c.15,.55,.53,1.01,1.04,1.24,1.42,.65,4.55,1.9,8.03,2.06,3.21,.24,2.99,4.24,2.92,5.29,1.22-1.67,1.1-4.06-.16-5.45-.62-.68-1.58-1.05-2.66-1.1Z"/><path class="d" d="M164.64,162.34c-.67,.32-1.79,1.09-3.08,2.95-.22,.31-.56,.49-.93,.48-1.26-.03-4.12-.22-4.99-1.29s2.01-2.81,3.2-3.43c.32-.17,.67-.23,1.02-.2,.97,.1,3.09,.36,4.75,.98,.22,.08,.24,.41,.03,.51Z"/><path class="d" d="M155.73,168.52c-.65,.16-1.55,.53-2.15,1.42-.19,.28-.53,.4-.84,.3l-1.15-.37c-.56-.18-.71-.93-.26-1.32s1.11-.81,2.03-.99c.3-.06,.6-.03,.89,.07l1.51,.52c.18,.06,.17,.33-.02,.38Z"/><path class="d" d="M149.96,172.63c-.65,.16-1.55,.53-2.15,1.42-.19,.28-.53,.4-.84,.3l-1.15-.37c-.56-.18-.71-.93-.26-1.32s1.11-.81,2.03-.99c.3-.06,.6-.03,.89,.07l1.51,.52c.18,.06,.17,.33-.02,.38Z"/><path class="d" d="M143.39,176.15c-.65,.16-1.55,.53-2.15,1.42-.19,.28-.53,.4-.84,.3l-1.15-.37c-.56-.18-.71-.93-.26-1.32s1.11-.81,2.03-.99c.3-.06,.6-.03,.89,.07l1.51,.52c.18,.06,.17,.33-.02,.38Z"/><path class="d" d="M135.18,179.24c-.65,.16-1.55,.53-2.15,1.42-.19,.28-.53,.4-.84,.3l-1.15-.37c-.56-.18-.71-.93-.26-1.32s1.11-.81,2.03-.99c.3-.06,.6-.03,.89,.07l1.51,.52c.18,.06,.17,.33-.02,.38Z"/></g><path class="s" d="M20.74,8.02l1.33,101.01c20.92-9.37,143.3-54.7,146.16-48.32l-1.8-52.69H20.74Z"/><path class="p" d="M68.97,8.02l-4.28,83.72c8.7-4.05,19.72,4.18,40.94-6.7l-4.46-77.02h-32.21Z"/><path class="t" d="M78.78,8.02l-4.9,95.83c9.49-3.56,21.25,4.2,40.94-6.7l-5.16-89.13h-30.89Z"/><path class="t" d="M103.3,8.02l-3.99,78.04c34.34,7.8,30.67-5.62,40.94-6.7l-4.13-71.34h-32.83Z"/><path class="s" d="M97.42,8.02l-5.23,102.29c16.81-1.71,28.22,6.3,40.94-6.7l-5.53-95.59h-30.19Z"/><g><path class="u" d="M36.2,107.05c-6.6,5.12-13.86,9.18-21.13,13.23-1.2,.68-2.41,1.33-3.6,2.02-.6,.33-1.18,.69-1.76,1.06-.55,.37-1.16,.73-1.54,1.28l-.14-.04c.28-.67,.84-1.13,1.35-1.61,.52-.46,1.07-.89,1.63-1.31,3.37-2.45,6.96-4.59,10.54-6.71,3.47-2.02,7.35-4.17,10.9-6.1,1.22-.65,2.45-1.3,3.68-1.95l.07,.13h0Z"/><path class="u" d="M21.94,102.56c2.23-1.91,4.88-3.27,7.46-4.65,3.46-1.77,7.02-3.35,10.63-4.78,8.09-3.22,16.44-5.98,24.97-7.81l.05,.14c-12.75,4.53-25.55,9-37.9,14.53-.75,.35-1.88,.89-2.61,1.26-.85,.45-1.72,.89-2.51,1.43l-.09-.11h0Z"/><path class="u" d="M65.06,83.42c.24-1.02,1.25-1.64,2.17-1.99,2.54-.87,5.44-.26,7.47,1.46,.09,.08,.18,.16,.26,.25l-.04,.14c-.83-.18-1.65-.36-2.49-.51-1.65-.27-3.36-.45-5.02-.21-.4,.06-.83,.17-1.21,.31-.37,.14-.77,.33-1.04,.63l-.12-.08h0Z"/><path class="u" d="M74.2,96.32c-.08-1.52,2.55-2.25,3.74-2.42,1.85-.3,3.8-.19,5.65,.08,1.63,.24,3.23,.63,4.78,1.16,1.56,.52,3.06,1.18,4.51,2.06l-.04,.14c-3.1-.72-6.32-1.5-9.46-1.93-1.15-.18-2.44-.34-3.59-.4-1.57-.06-3.25-.14-4.7,.53-.32,.16-.67,.42-.74,.79h-.14Z"/><path class="u" d="M92.68,103.88c4.16-1.3,8.61-1.69,12.96-1.58,8.06,.22,14.67,1.57,22.33-1.94,1.56-.66,3.06-1.48,4.59-2.31l.09,.11c-5.96,4.67-11.82,6.37-19.35,5.94-3.45-.17-6.87-.57-10.31-.67-3.44-.12-6.89,.07-10.29,.59l-.02-.14h0Z"/><path class="u" d="M140.03,71.11c-1.7,.96-3.08,1.74-4.65,2.73-1.27,.76-2.4,1.58-3.78,2.2l-.12-.08c.35-.51,.74-1.08,1.17-1.54,.13-.15,.3-.34,.44-.47,1.5-1.56,3.5-2.64,5.65-2.94,.43-.05,.86-.07,1.3-.04v.14h-.01Z"/><path class="u" d="M139.14,60.63c6.43-4.61,19.16-9.82,27.06-7.94,.64,.16,1.25,.42,1.81,.76l-.05,.13c-1.17-.42-2.44-.49-3.68-.46-2.5,.07-4.97,.6-7.4,1.21-3.64,.97-7.2,2.18-10.72,3.53-2.34,.91-4.66,1.86-6.95,2.89l-.06-.13h0Z"/><path class="u" d="M146.26,73.79c4.45-1.03,8.85-1.56,13.32-2.28,1.47-.21,3.02-.46,4.51-.56,2.03-.17,4.59-.09,6.05,1.61l-.08,.12c-.41-.28-.86-.49-1.34-.64-1.45-.43-2.97-.2-4.44,.03-1.98,.34-3.95,.77-5.95,1.08-3.98,.61-8.04,.86-12.07,.78v-.14h0Z"/></g><g class="x"><path class="u" d="M36.27,109.79c-6.6,5.12-13.86,9.18-21.13,13.23-1.2,.68-2.41,1.33-3.6,2.02-.6,.33-1.18,.69-1.76,1.06-.55,.37-1.16,.73-1.54,1.28l-.14-.04c.28-.67,.84-1.13,1.35-1.61,.52-.46,1.07-.89,1.63-1.31,3.37-2.45,6.96-4.59,10.54-6.71,3.47-2.02,7.35-4.17,10.9-6.1,1.22-.65,2.45-1.3,3.68-1.95l.07,.13h0Z"/><path class="u" d="M22.01,105.3c2.23-1.91,4.88-3.27,7.46-4.65,3.46-1.77,7.02-3.35,10.63-4.78,8.09-3.22,16.44-5.98,24.97-7.81l.05,.14c-12.75,4.53-25.55,9-37.9,14.53-.75,.35-1.88,.89-2.61,1.26-.85,.45-1.72,.89-2.51,1.43l-.09-.11h0Z"/><path class="u" d="M65.13,86.16c.24-1.02,1.25-1.64,2.17-1.99,2.54-.87,5.44-.26,7.47,1.46,.09,.08,.18,.16,.26,.25l-.04,.14c-.83-.18-1.65-.36-2.49-.51-1.65-.27-3.36-.45-5.02-.21-.4,.06-.83,.17-1.21,.31-.37,.14-.77,.33-1.04,.63l-.12-.08h0Z"/><path class="u" d="M74.27,99.06c-.08-1.52,2.55-2.25,3.74-2.42,1.85-.3,3.8-.19,5.65,.08,1.63,.24,3.23,.63,4.78,1.16,1.56,.52,3.06,1.18,4.51,2.06l-.04,.14c-3.1-.72-6.32-1.5-9.46-1.93-1.15-.18-2.44-.34-3.59-.4-1.57-.06-3.25-.14-4.7,.53-.32,.16-.67,.42-.74,.79h-.14Z"/><path class="u" d="M92.75,106.62c4.16-1.3,8.61-1.69,12.96-1.58,8.06,.22,14.67,1.57,22.33-1.94,1.56-.66,3.06-1.48,4.59-2.31l.09,.11c-5.96,4.67-11.82,6.37-19.35,5.94-3.45-.17-6.87-.57-10.31-.67-3.44-.12-6.89,.07-10.29,.59l-.02-.14h0Z"/><path class="u" d="M140.1,73.85c-1.7,.96-3.08,1.74-4.65,2.73-1.27,.76-2.4,1.58-3.78,2.2l-.12-.08c.35-.51,.74-1.08,1.17-1.54,.13-.15,.3-.34,.44-.47,1.5-1.56,3.5-2.64,5.65-2.94,.43-.05,.86-.07,1.3-.04v.14h-.01Z"/><path class="u" d="M139.21,63.36c6.43-4.61,19.16-9.82,27.06-7.94,.64,.16,1.25,.42,1.81,.76l-.05,.13c-1.17-.42-2.44-.49-3.68-.46-2.5,.07-4.97,.6-7.4,1.21-3.64,.97-7.2,2.18-10.72,3.53-2.34,.91-4.66,1.86-6.95,2.89l-.06-.13h0Z"/><path class="u" d="M146.33,76.53c4.45-1.03,8.85-1.56,13.32-2.28,1.47-.21,3.02-.46,4.51-.56,2.03-.17,4.59-.09,6.05,1.61l-.08,.12c-.41-.28-.86-.49-1.34-.64-1.45-.43-2.97-.2-4.44,.03-1.98,.34-3.95,.77-5.95,1.08-3.98,.61-8.04,.86-12.07,.78v-.14h0Z"/></g></g></svg>