<?xml version="1.0" encoding="UTF-8"?><svg id="a" xmlns="http://www.w3.org/2000/svg" viewBox="0 0 283.46 229.19"><defs><style>.b{fill:#6d0004;}.c{fill:#fff;}.d{fill:#bfbfbf;}.e{fill:#9c9c9c;}.f{opacity:.5;}.g{fill:#e2e2e2;}.h{fill:#703100;}.i{fill:#bfbbbb;}.j{fill:#323232;}.k{fill:#ff7676;}.l{fill:#676565;}.m{fill:#542000;}.n{fill:#1e1d22;}.o{fill:#e55757;}.p{fill:#ea7572;}.q{opacity:.3;}.r{fill:#bf2028;}.s{fill:#c5c6c4;}.t{fill:#37363b;}.u{fill:#231103;}.v{fill:#515151;}.w{fill:#383838;}.x{fill:#370002;}.y{fill:#ff999a;}</style></defs><path class="f" d="M149.15,224.42c-.52,0-1.09-.01-1.66-.03l-.58-.02c-.46-.02-.92-.05-1.38-.08-.09,0-.17,0-.26-.01,0,0-.8-.06-.82-.06l-1.36-.13c-.52-.06-.97-.11-1.4-.17-.74-.1-1.46-.22-2.15-.35-.18-.03-.37-.07-.56-.11l-.24-.05c-.34-.07-.63-.14-.91-.21l-.12-.03c-2.23-.56-5-1.53-6.44-4.02-.22-.38-.41-.79-.56-1.22-.14-.02-.29-.04-.43-.07-.44-.07-.85-.16-1.25-.26-.09-.02-.2-.05-.31-.08-.33-.09-.63-.18-.92-.27l-.31-.11c-.35-.13-.65-.25-.94-.38l-.28-.13c-.36-.18-.68-.36-.99-.55,0,0-.08-.05-.15-.09-1.23-.82-2.18-1.82-2.85-3-.28-.49-.5-1.02-.69-1.61-.01-.03-.08-.24-.08-.24-.04-.15-.08-.29-.11-.44-.48-2.09-.22-4.36,.78-6.93,.48-1.23,.15-2.82-.54-5.77-.31-1.35-.7-3.03-1-4.89-.15-.89-.28-1.68-.41-2.41-.73-4.19-1.16-6.72-1.16-15.22,0-4.82-1.02-10.07-1.82-13.48-11.11-9.65-17.02-19.84-20.05-26.8-1.33-3.06-2.42-6.17-3.25-9.29-5.04-.52-9.25-1.84-12.35-2.81-2.01-.63-4.09-1.28-5.16-1.28-.15,0-.2,.01-.2,.01-1.16,.34-2.4,.8-3.59,1.25-3.01,1.13-6.41,2.4-10.45,2.52-.18,0-.35,0-.51,0-3.47,0-6.04-1.1-7.64-3.29-2.53-3.45-1.2-7.68-.56-9.71,.18-.56,.37-1.18,.57-1.83-.62,.03-1.24,.05-1.85,.05-11.85,0-22.92-5.51-30.39-15.11-11.65-14.98-15.06-34.15-9.61-53.96,.51-1.87,1.5-5.43,1.98-8.06-2.48-.85-4.26-2.75-4.79-5.31-.47-2.24,.08-4.05,.91-5.51-1.35-1.56-2.6-3.64-2.45-6.34,.22-3.91,3.75-6.75,8.38-6.75,1.79,0,8.03,.55,13.27,7.58,5.52,7.41,4.98,13.61,4.3,21.47-.13,1.55-.27,3.12-.38,4.88-.62,9.71-.38,16.18,2.71,20.5,1.08,1.51,2.92,3.3,5.6,3.3,1.78,0,3.69-.79,5.68-2.35,3.41-2.66,6.44-6.51,9.64-10.58,3.23-4.1,6.56-8.33,10.71-11.94,2.08-1.81,4.27-3.27,6.4-4.45,.01-1.42,.63-2.81,1.76-3.76l.68-.58c1.05-.89,2.18-1.64,3.39-2.25,.25-1.75,1.42-3.27,3.11-3.93l.88-.35c2-.79,4-1.25,5.96-1.36,.12-.25,.27-.48,.43-.71,.96-1.32,2.47-2.06,4.04-2.06,.51,0,1.03,.08,1.53,.24l.89,.29c4.52,1.45,8.23,4.38,11.26,8.92,.96,.18,1.92,.4,2.89,.64,2.62-1.27,5.79-1.97,9.04-1.97,8.6,0,10.91,6.84,11.9,9.76v.02c1.35-.17,2.72-.25,4.15-.25,4.51,0,9.35,.84,14.78,2.57,8.38,2.79,12.4,10.56,15.64,16.8,.37,.71,.72,1.4,1.08,2.06,.92,1.73,2.17,3.53,3.33,5.17,12.34-4.15,23.6-6.25,33.52-6.25,3.82,0,7.49,.32,10.9,.94,13.98,2.56,26.42,10.84,35.05,23.31,7.86,11.37,12.04,25.6,11.48,39.04v.04l.02,.16c.17,1.51,.31,2.99,.44,4.55,.61,6.85,1.18,13.26,5.16,21.5,.62,1.29,1.13,2.45,1.53,3.49,2.71,1.56,4.98,4.68,6.5,9.02,2.03,5.79,2.09,13.14,2.09,13.96,0,2.46,.35,3.71,.52,4.17l.81,.73c1.83,1.63,2.2,4.35,.89,6.41-.9,1.42-2.43,2.25-4.02,2.31-.85,3.66-2.46,6.06-2.58,6.24l-.44,.65c-.51,.75-1.19,1.32-1.97,1.69-1.82,3.71-4.55,5.66-5.78,6.39l-.79,.46c-.79,.47-1.67,.7-2.54,.7-1.2,0-2.39-.43-3.33-1.27-1.62-1.45-2.12-3.79-1.23-5.78l.37-.83c1.68-3.75,1.37-4.41-1.07-9.56-.65-1.37-1.37-2.9-2.16-4.73-4.75-11.08-.36-18.14,2-21.93l.28-.46c.38-.62,.64-1.22,.84-1.83-1.48-2.12-2.83-4.53-4.04-7-3.87,7.29-8.15,12.97-10.6,16.24-.42,.56-.94,1.25-1.33,1.78,.43,3.05,2.76,11.77,5.72,18.94,3.69,8.94,4.54,20.97-1.14,25.66-.14,.11-.28,.22-.43,.32-.15,.1-.36,.23-.52,.31-.82,.42-1.7,.79-2.74,1.16-.18,.08-.36,.15-.55,.21l-.36,.11c-.11,.04-.23,.07-.35,.1-.77,.23-1.53,.44-2.27,.6-.16,.04-.34,.07-.51,.1l-.13,.02c-.65,.13-1.28,.24-1.92,.34-.29,.04-.59,.08-.9,.12-.9,.11-1.7,.19-2.46,.24l-.44,.02c-1.01,.06-1.98,.09-2.89,.09s-1.78-.02-2.69-.07c-.07,0-.91-.05-.91-.05-.08,0-.15-.01-.23-.02-4.42-.3-9.91-1.08-12.87-3.06h-.08c-.27,.06-.56,.11-.84,.15-.25,.04-.51,.08-.77,.11-.32,.04-.65,.08-.98,.11-.19,.02-.38,.03-.58,.05-.19,.03-.37,.04-.56,.05,0,0-.88,.04-.93,.04,0,0-1.02,.03-1.08,.03-.13,0-.27,0-.4-.02-3.35-.05-6.54-.61-9.27-1.62-.43-.16-.85-.33-1.25-.51l-.23-.11c-2.28-1.03-3.45-3.57-2.74-5.97l.07-.24c.12-.41,.22-.81,.32-1.2l.08-.34c.06-.28,.12-.54,.17-.8l.07-.39c.04-.26,.08-.51,.11-.76l.05-.34c.59-5.03-.94-9.09-2.88-14.23-.4-1.05-.77-2.06-1.15-3.09-1.35-3.76-2.26-7.97-2.86-11.69-1.32,.1-2.64,.15-3.95,.15-5.98,0-11.22-1.02-15.19-2.14-.36,1.38-.8,2.98-1.31,4.81-2.18,7.78-.88,19.88,.05,24.2,.29,1.36,.7,2.36,1.12,3.42,.77,1.91,1.74,4.29,1.47,7.81-.19,2.5-1.62,6.94-9.05,8.97-.18,.07-.37,.12-.57,.17l-.35,.08c-.71,.16-1.5,.31-2.49,.46-.26,.04-.48,.07-.71,.1-.27,.04-.54,.07-.83,.1-.34,.04-.7,.07-1.07,.11l-.66,.06c-.6,.05-1.22,.09-1.87,.12-.03,0-.1,0-.13,0-.64,.03-1.4,.05-2.19,.05h-.26Z"/><path class="c" d="M144.15,219.42c-.52,0-1.09-.01-1.66-.03l-.58-.02c-.46-.02-.92-.05-1.38-.08-.09,0-.17,0-.26-.01,0,0-.8-.06-.82-.06l-1.36-.13c-.52-.06-.97-.11-1.4-.17-.74-.1-1.46-.22-2.15-.35-.18-.03-.37-.07-.56-.11l-.24-.05c-.34-.07-.63-.14-.91-.21l-.12-.03c-2.23-.56-5-1.53-6.44-4.02-.22-.38-.41-.79-.56-1.22-.14-.02-.29-.04-.43-.07-.44-.07-.85-.16-1.25-.26-.09-.02-.2-.05-.31-.08-.33-.09-.63-.18-.92-.27l-.31-.11c-.35-.13-.65-.25-.94-.38l-.28-.13c-.36-.18-.68-.36-.99-.55,0,0-.08-.05-.15-.09-1.23-.82-2.18-1.82-2.85-3-.28-.49-.5-1.02-.69-1.61-.01-.03-.08-.24-.08-.24-.04-.15-.08-.29-.11-.44-.48-2.09-.22-4.36,.78-6.93,.48-1.23,.15-2.82-.54-5.77-.31-1.35-.7-3.03-1-4.89-.15-.89-.28-1.68-.41-2.41-.73-4.19-1.16-6.72-1.16-15.22,0-4.82-1.02-10.07-1.82-13.48-11.11-9.65-17.02-19.84-20.05-26.8-1.33-3.06-2.42-6.17-3.25-9.29-5.04-.52-9.25-1.84-12.35-2.81-2.01-.63-4.09-1.28-5.16-1.28-.15,0-.2,.01-.2,.01-1.16,.34-2.4,.8-3.59,1.25-3.01,1.13-6.41,2.4-10.45,2.52-.18,0-.35,0-.51,0-3.47,0-6.04-1.1-7.64-3.29-2.53-3.45-1.2-7.68-.56-9.71,.18-.56,.37-1.18,.57-1.83-.62,.03-1.24,.05-1.85,.05-11.85,0-22.92-5.51-30.39-15.11C5.17,75.71,1.76,56.55,7.21,36.74c.51-1.87,1.5-5.43,1.98-8.06-2.48-.85-4.26-2.75-4.79-5.31-.47-2.24,.08-4.05,.91-5.51-1.35-1.56-2.6-3.64-2.45-6.34,.22-3.91,3.75-6.75,8.38-6.75,1.79,0,8.03,.55,13.27,7.58,5.52,7.41,4.98,13.61,4.3,21.47-.13,1.55-.27,3.12-.38,4.88-.62,9.71-.38,16.18,2.71,20.5,1.08,1.51,2.92,3.3,5.6,3.3,1.78,0,3.69-.79,5.68-2.35,3.41-2.66,6.44-6.51,9.64-10.58,3.23-4.1,6.56-8.33,10.71-11.94,2.08-1.81,4.27-3.27,6.4-4.45,.01-1.42,.63-2.81,1.76-3.76l.68-.58c1.05-.89,2.18-1.64,3.39-2.25,.25-1.75,1.42-3.27,3.11-3.93l.88-.35c2-.79,4-1.25,5.96-1.36,.12-.25,.27-.48,.43-.71,.96-1.32,2.47-2.06,4.04-2.06,.51,0,1.03,.08,1.53,.24l.89,.29c4.52,1.45,8.23,4.38,11.26,8.92,.96,.18,1.92,.4,2.89,.64,2.62-1.27,5.79-1.97,9.04-1.97,8.6,0,10.91,6.84,11.9,9.76v.02c1.35-.17,2.72-.25,4.15-.25,4.51,0,9.35,.84,14.78,2.57,8.38,2.79,12.4,10.56,15.64,16.8,.37,.71,.72,1.4,1.08,2.06,.92,1.73,2.17,3.53,3.33,5.17,12.34-4.15,23.6-6.25,33.52-6.25,3.82,0,7.49,.32,10.9,.94,13.98,2.56,26.42,10.84,35.05,23.31,7.86,11.37,12.04,25.6,11.48,39.04v.04l.02,.16c.17,1.51,.31,2.99,.44,4.55,.61,6.85,1.18,13.26,5.16,21.5,.62,1.29,1.13,2.45,1.53,3.49,2.71,1.56,4.98,4.68,6.5,9.02,2.03,5.79,2.09,13.14,2.09,13.96,0,2.46,.35,3.71,.52,4.17l.81,.73c1.83,1.63,2.2,4.35,.89,6.41-.9,1.42-2.43,2.25-4.02,2.31-.85,3.66-2.46,6.06-2.58,6.24l-.44,.65c-.51,.75-1.19,1.32-1.97,1.69-1.82,3.71-4.55,5.66-5.78,6.39l-.79,.46c-.79,.47-1.67,.7-2.54,.7-1.2,0-2.39-.43-3.33-1.27-1.62-1.45-2.12-3.79-1.23-5.78l.37-.83c1.68-3.75,1.37-4.41-1.07-9.56-.65-1.37-1.37-2.9-2.16-4.73-4.75-11.08-.36-18.14,2-21.93l.28-.46c.38-.62,.64-1.22,.84-1.83-1.48-2.12-2.83-4.53-4.04-7-3.87,7.29-8.15,12.97-10.6,16.24-.42,.56-.94,1.25-1.33,1.78,.43,3.05,2.76,11.77,5.72,18.94,3.69,8.94,4.54,20.97-1.14,25.66-.14,.11-.28,.22-.43,.32-.15,.1-.36,.23-.52,.31-.82,.42-1.7,.79-2.74,1.16-.18,.08-.36,.15-.55,.21l-.36,.11c-.11,.04-.23,.07-.35,.1-.77,.23-1.53,.44-2.27,.6-.16,.04-.34,.07-.51,.1l-.13,.02c-.65,.13-1.28,.24-1.92,.34-.29,.04-.59,.08-.9,.12-.9,.11-1.7,.19-2.46,.24l-.44,.02c-1.01,.06-1.98,.09-2.89,.09s-1.78-.02-2.69-.07c-.07,0-.91-.05-.91-.05-.08,0-.15-.01-.23-.02-4.42-.3-9.91-1.08-12.87-3.06h-.08c-.27,.06-.56,.11-.84,.15-.25,.04-.51,.08-.77,.11-.32,.04-.65,.08-.98,.11-.19,.02-.38,.03-.58,.05-.19,.03-.37,.04-.56,.05,0,0-.88,.04-.93,.04,0,0-1.02,.03-1.08,.03-.13,0-.27,0-.4-.02-3.35-.05-6.54-.61-9.27-1.62-.43-.16-.85-.33-1.25-.51l-.23-.11c-2.28-1.03-3.45-3.57-2.74-5.97l.07-.24c.12-.41,.22-.81,.32-1.2l.08-.34c.06-.28,.12-.54,.17-.8l.07-.39c.04-.26,.08-.51,.11-.76l.05-.34c.59-5.03-.94-9.09-2.88-14.23-.4-1.05-.77-2.06-1.15-3.09-1.35-3.76-2.26-7.97-2.86-11.69-1.32,.1-2.64,.15-3.95,.15-5.98,0-11.22-1.02-15.19-2.14-.36,1.38-.8,2.98-1.31,4.81-2.18,7.78-.88,19.88,.05,24.2,.29,1.36,.7,2.36,1.12,3.42,.77,1.91,1.74,4.29,1.47,7.81-.19,2.5-1.62,6.94-9.05,8.97-.18,.07-.37,.12-.57,.17l-.35,.08c-.71,.16-1.5,.31-2.49,.46-.26,.04-.48,.07-.71,.1-.27,.04-.54,.07-.83,.1-.34,.04-.7,.07-1.07,.11l-.66,.06c-.6,.05-1.22,.09-1.87,.12-.03,0-.1,0-.13,0-.64,.03-1.4,.05-2.19,.05h-.26Z"/><g><g><path class="d" d="M247.25,130.75s4.6,16.62,11.38,24.17c1.41,.77,2.24-.42-.9-6.91-5.37-11.13-5.15-19.57-6.09-27.75-2.86,3.96-4.39,10.49-4.39,10.49Z"/><path class="e" d="M247.25,130.75s4.6,16.62,11.38,24.17c.77,.42,1.36,.25,1.24-1.03-5.63-6.1-10.26-21.28-10.55-29.34-1.36,3.18-2.07,6.2-2.07,6.2Z"/><path class="v" d="M259.28,155.41h0c-.23,0-.5-.08-.79-.24l-.08-.06c-6.74-7.51-11.4-24.12-11.44-24.28l-.02-.07,.02-.07c.06-.27,1.58-6.62,4.44-10.59l.43-.6,.08,.74c.17,1.49,.3,2.95,.44,4.49,.62,6.93,1.25,14.1,5.63,23.16,1.87,3.87,2.54,6.27,1.99,7.15-.15,.24-.4,.38-.7,.38Zm-.48-.72c.23,.12,.39,.15,.48,.15h0c.1,0,.16-.03,.21-.11,.15-.25,.46-1.45-2.02-6.59-4.42-9.16-5.06-16.38-5.68-23.36-.11-1.27-.22-2.49-.35-3.71-2.37,3.67-3.73,9-3.9,9.68,.34,1.19,4.85,16.77,11.26,23.94Z"/></g><g><path class="t" d="M259.01,153.51c-1.18,.49-.9,3.32-2.94,6.65-2.05,3.32-5.75,8.57-1.92,17.52,3.84,8.95,6.52,11.13,3.2,18.54,3.45-2.05,6.52-7.16,4.09-16.11,1.79,2.56,2.43,8.95,2.43,8.95,0,0,4.35-6.39,.77-13.56,2.69,3.58,4.48,4.35,4.48,4.35,0,0-1.79-1.53-1.79-7.67,0-2.86-.41-8.27-1.79-12.21-1.59-4.53-4.3-7.38-6.52-6.46Z"/><path class="n" d="M263.49,170.26c-.77,2.69-.77,5.75-.77,8.44-1.15-1.53-2.59-4.78-3.74-6.31,.38,2.69,.67,6.7-.1,9.38-1.92-5.37-5.75-10.74-3.07-16.88,1.47-3.66,3.28-7.33,3.1-11.33-1.07,.61-.86,3.37-2.85,6.59-2.05,3.32-5.75,8.57-1.92,17.52,3.84,8.95,6.52,11.13,3.2,18.54,3.45-2.05,6.52-7.16,4.09-16.11,1.79,2.56,2.43,8.95,2.43,8.95,0,0,4.35-6.39,.77-13.56,2.69,3.58,4.48,4.35,4.48,4.35,0,0-.21-.18-.49-.67-2.56-1.92-3.42-6.06-5.14-8.92Z"/><path d="M256.71,196.93l.37-.83c2.62-5.85,1.45-8.33-1.12-13.75-.62-1.32-1.33-2.81-2.08-4.56-3.72-8.68-.49-13.88,1.65-17.32l.29-.46c1.02-1.65,1.44-3.16,1.78-4.37,.34-1.22,.59-2.1,1.3-2.39,.31-.13,.64-.19,.97-.19,2.15,0,4.48,2.68,5.93,6.82,1.43,4.07,1.81,9.65,1.81,12.31,0,5.88,1.67,7.44,1.69,7.46l1.31,1.17-1.62-.69c-.06-.03-1.34-.6-3.34-2.88,2.12,6.46-1.51,11.93-1.55,11.99l-.45,.65-.08-.79s-.37-3.59-1.28-6.4c1.54,9.17-3.2,12.83-4.81,13.78l-.78,.46Zm3.16-43.31c-.26,0-.51,.05-.75,.15-.45,.19-.67,.96-.96,2.02-.33,1.18-.78,2.79-1.84,4.52l-.29,.47c-2.08,3.34-5.21,8.38-1.61,16.79,.75,1.74,1.45,3.23,2.07,4.54,2.43,5.14,3.72,7.85,1.51,13.32,2.08-1.6,5.7-5.89,3.16-15.25l-.43-1.59,.95,1.35c1.43,2.05,2.13,6.37,2.38,8.22,.98-1.85,3.1-6.99,.33-12.53l.49-.3c1.36,1.82,2.5,2.9,3.26,3.52-.52-1.13-1.1-3.17-1.1-6.67,0-2.62-.37-8.12-1.77-12.12-1.35-3.85-3.52-6.44-5.39-6.44Z"/></g><g><path class="d" d="M186.37,161.95s.64,10.74,3.58,18.93c2.94,8.18,6.27,14.45,3.32,24.43,5.12,2.3,13.81,2.43,19.69-.9,1.66-12.66-1.79-19.95-5.24-25.96-3.45-6.01-6.52-19.18-6.52-19.18l-14.83,2.69Z"/><path class="g" d="M187.14,165.66c-.2-.79-.49-1.67-.68-2.61,.25,2.94,1.12,11.21,3.5,17.82,2.94,8.18,6.27,14.45,3.32,24.43,.62,.28,1.29,.52,2.01,.74,6.36-12.42-4.49-22.04-8.15-40.38Z"/><path class="e" d="M207.73,178.45c-3.45-6.01-6.52-19.18-6.52-19.18l-5.18,.94c1.67,8.52,2.93,17.29,6.46,25.41,3.14,6.98,3.42,16.83-3.79,21.14,4.68,.61,10.16-.02,14.27-2.34,1.66-12.66-1.79-19.95-5.24-25.96Z"/><path class="v" d="M202.11,207.26h0c-3.34,0-6.51-.6-8.95-1.7l-.23-.1,.07-.24c2.54-8.62,.34-14.46-2.2-21.23-.37-.98-.75-1.99-1.12-3.02-2.92-8.13-3.59-18.9-3.6-19.01l-.02-.25,15.35-2.78,.06,.27c.03,.13,3.1,13.2,6.49,19.1,3.43,5.97,6.95,13.41,5.28,26.14l-.02,.14-.13,.07c-2.97,1.68-6.88,2.6-11.01,2.6Zm-8.48-2.12c2.33,1,5.33,1.55,8.48,1.55,3.97,0,7.73-.87,10.6-2.46,1.6-12.47-1.85-19.77-5.23-25.64-3.16-5.5-6.03-17.09-6.49-18.99l-14.31,2.59c.12,1.67,.9,11.23,3.55,18.59,.37,1.03,.75,2.03,1.12,3.01,2.56,6.8,4.77,12.67,2.28,21.35Z"/></g><path class="v" d="M188.12,173.57l-.4-.41c1.09-1.07,2.51-1.61,3.8-1.86,1.74-.35,3.27,.4,3.27,.4-.04,0-4.28-.46-6.66,1.87Z"/><path class="v" d="M190.33,175.29c3.4,.67,5.95-1.18,5.98-1.19,0,0-.32,.95-1.34,1.34-.66,.25-1.49,.6-2.45,.56-1.37-.07-2.18-.7-2.18-.7Z"/><path class="v" d="M192.05,179.84c-.82,0-1.71-.06-2.65-.21l.09-.57c5.44,.87,9.04-1.35,9.08-1.37,0,0-2.38,2.15-6.52,2.15Z"/><g><polygon points="202.03 207.27 202.97 206.57 203.23 206.72 203.87 207.21 202.03 207.27"/><g><path class="c" d="M206.96,200.44c-3.58,.83-3.96,6.47-3.96,6.47,.02,.01,.04,.03,.05,.04,3.42-.12,6.91-.89,9.76-2.46-.05-.1-2.31-4.87-5.85-4.05Z"/><path class="i" d="M208.04,200.36c.49,1.26,.97,2.63,.2,3.66-.71,1.42-3.11,2.83-5.23,2.74-.01,.1-.01,.15-.01,.15,.02,.01,.04,.03,.05,.04,3.42-.12,6.91-.89,9.76-2.46-.04-.09-1.85-3.91-4.77-4.13Z"/><path class="l" d="M202.96,207.24l-.08-.06,.17-.23-.19,.22-.16-.12v-.15c.03-.24,.45-5.86,4.2-6.73,.29-.07,.59-.1,.88-.1,3.23,0,5.21,4.13,5.29,4.31l.11,.24-.24,.13c-2.73,1.5-6.15,2.37-9.89,2.5h-.1Zm4.82-6.61c-.25,0-.5,.03-.75,.09-2.89,.67-3.58,4.81-3.71,5.93,3.43-.15,6.57-.94,9.11-2.29-.46-.86-2.19-3.73-4.65-3.73Z"/></g><g><path class="c" d="M197.28,199.1c-1.09,0-2.13,.66-3.02,1.5-.17,1.48-.49,3.04-.98,4.7,2.58,1.16,6.07,1.77,9.66,1.66,.02-.02,.04-.03,.06-.05-.32-1.07-1.66-7.82-5.72-7.81Z"/><path class="i" d="M199.64,200c.8,4.79-2.49,5.94-6.11,5.4,2.55,1.09,5.93,1.66,9.41,1.56,.02-.02,.04-.03,.06-.05-.25-.83-1.11-5.04-3.36-6.91Z"/><path class="l" d="M202.11,207.26h0c-3.34,0-6.52-.6-8.95-1.7l-.23-.1,.07-.24c.47-1.6,.79-3.12,.97-4.65v-.1l.09-.07c1.1-1.05,2.18-1.58,3.22-1.58,3.91,0,5.4,5.72,5.89,7.6,.05,.18,.08,.32,.11,.42l.06,.19-.27,.2-.12,.02c-.28,0-.56,.01-.84,.01Zm-8.48-2.12c2.33,1,5.33,1.54,8.48,1.54h0c.18,0,.35,0,.53,0l-.03-.12c-.46-1.77-1.86-7.17-5.32-7.17-.86,0-1.79,.46-2.75,1.35-.18,1.45-.47,2.9-.9,4.4Z"/></g></g><g><path class="d" d="M115.98,150.5s3.39,10.42,3.39,19.95c0,9.53,.54,10.91,1.5,16.77,.96,5.86,2.78,9.51,1.25,13.44-1.53,3.93-.46,6.21,4.05,6.98,4.51,.77,7.49-1.13,9.25-3.72,1.76-2.59-3.8-28.2-3.8-28.2l-1.73-15.05-13.91-10.17Z"/><path class="g" d="M123.54,191.98c-2.3-8.82-1.62-17.89-2.39-26.71-.33-4.92-2.34-9.57-4.36-14.17l-.82-.6s3.39,10.42,3.39,19.95c0,9.53,.54,10.91,1.5,16.77,.96,5.86,2.78,9.51,1.25,13.44-.85,2.19-1.16,3.2-.26,4.39,2.53-4.28,3.06-8.5,1.69-13.07Z"/><path class="e" d="M131.61,175.72l-1.73-15.05-6.65-4.86c.09,.34,.17,.68,.22,1.03,2.41,9.4,2.76,20.79,4.51,30.82,2.97,17.01-2.79,17.83-6.11,17.65,.63,1.18,2.03,1.96,4.31,2.34,4.51,.77,7.49-1.13,9.25-3.72,1.76-2.59-3.8-28.2-3.8-28.2Z"/><path class="v" d="M128.12,208.11h0c-.64,0-1.32-.06-2.01-.18-2.31-.39-3.78-1.19-4.48-2.42-.69-1.21-.62-2.83,.21-4.95,1.06-2.72,.45-5.37-.32-8.72-.31-1.35-.67-2.88-.94-4.57-.15-.91-.29-1.71-.42-2.46-.7-4.06-1.09-6.29-1.09-14.36,0-9.37-3.34-19.76-3.37-19.86l-.28-.85,14.73,10.77,1.74,15.18c.57,2.61,5.53,25.78,3.76,28.4-1.24,1.83-3.56,4.02-7.53,4.02Zm-11.62-56.86c.79,2.67,3.15,11.29,3.15,19.21,0,8.02,.38,10.24,1.08,14.26,.13,.74,.27,1.55,.42,2.46,.27,1.67,.62,3.19,.93,4.53,.8,3.45,1.42,6.17,.3,9.06-.76,1.95-.84,3.41-.24,4.46,.61,1.07,1.94,1.77,4.07,2.14,.65,.11,1.3,.17,1.91,.17,3.72,0,5.89-2.05,7.05-3.77,1.39-2.04-2.31-20.89-3.85-27.98l-1.72-14.95-13.11-9.58Z"/></g><path class="v" d="M123.95,188.88c-.94,0-2.01-.18-3.1-.72l.26-.52c2.92,1.45,5.83,.02,5.86,0,0,0-.84,1.06-2.31,1.2-.23,.02-.46,.03-.71,.03Z"/><path class="v" d="M120.29,182.46l-.49-.3c.95-1.58,2.41-2.3,3.75-2.61,1.67-.39,3.08,.44,3.08,.44-.04,0-4.41-.75-6.33,2.47Z"/><path class="v" d="M120.82,186.08l-.37-.44c.89-.74,2.2-1.03,3.39-1.13,1.48-.12,2.78,.66,2.78,.66-.04,0-4.02-.58-5.8,.91Z"/><g><path class="c" d="M127.1,201.98c-2.8-.13-4.6,1.6-5.48,2.74,.45,1.51,1.91,2.48,4.54,2.93,2.79,.48,5-.07,6.7-1.18-.63-1.28-2.48-4.34-5.76-4.49Z"/><path class="i" d="M130.05,203.02c.44,2.32-4.18,4.8-8.4,1.67l-.02,.03c.45,1.51,1.91,2.48,4.54,2.93,2.79,.48,5-.07,6.7-1.18-.41-.83-1.33-2.4-2.82-3.45Z"/><path class="l" d="M128.12,208.11h0c-.64,0-1.32-.06-2-.18-2.72-.46-4.28-1.49-4.77-3.13l-.04-.14,.09-.12c.85-1.11,2.75-2.99,5.72-2.85,3.43,.16,5.34,3.31,6,4.65l.11,.23-.21,.14c-1.42,.93-3.07,1.4-4.9,1.4Zm-6.18-3.33c.47,1.33,1.87,2.18,4.27,2.59,2.39,.41,4.51,.07,6.27-1-.71-1.35-2.46-3.97-5.4-4.1-2.61-.13-4.32,1.48-5.15,2.51Z"/></g><g><path class="s" d="M92.51,110.42s.51,30.05,34.78,51.02c15.09,1.79,30.44,0,30.44,0,0,0,18.18,9.31,38.13,.84-.33,3.62-.85,7.31,3.18,12.39,4.03,5.08,11.38,16.43,12.4,21.04,.9,3.45-1.41,9.85-.9,11.38,.51,1.53,17.65,4.86,27.11,0,2.94-2.43,2.94-11.51-.38-19.57-3.32-8.06-6.65-20.08-6.14-22.38,.51-2.3,19.44-21.36,20.46-45.91,1.02-24.55-15.09-51.98-42.2-56.94-27.11-4.96-62.37,13.05-71.61,18.64-9.24,5.59-45.27,29.48-45.27,29.48Z"/><g><path class="g" d="M208.5,183.94c-4.43-6.67-10.23-12.72-10.23-18.11,0-11.49,5.11-31.12,11.55-46.83-5.79,10.5-10.03,20.57-11.18,25.94-1,6-2.92,17.39-2.79,17.34-.33,3.62-.85,7.31,3.18,12.39,4.03,5.08,11.38,16.43,12.4,21.04,.9,3.45-1.41,9.85-.9,11.38,.1,.3,.82,.66,1.98,1.02,3.54-11.18,1.93-15.2-4.02-24.17Z"/><path class="g" d="M137.78,80.94c-1.41,.85-3.45,2.14-5.89,3.7,3.17,.31,6.21,2.44,8.45,.84,24.94-18.8,62.24-26.45,82.1-17.65,1.28,.57,2.68,.82,4.03,1.27-5.04-3.27-10.76-5.64-17.07-6.8-27.11-4.96-62.37,13.05-71.61,18.64Z"/></g><g><path class="e" d="M162.97,144.17c-.77,5.75-6.91,8.82-11.89,9.97-9.97,2.3-22.63,.77-28.77-9.21-3.43,8.23-13.91,.36-16.67-2.5,5.04,6.47,12.01,13.09,21.66,19,15.09,1.79,30.44,0,30.44,0,0,0,17.96,9.19,37.76,.99,.89-8.62,3.48-16.89,5.84-25.16-9.21,11.13-26.47,17.26-38.36,6.91Z"/><path class="e" d="M119.79,114.83s16.58,5.44,20.8-3.39c1.15-2.69,1.28-7.93,2.43-10.23,5.7-9.27,13.72-18.21,12.06-28.97-7.91,3.41-14.13,6.78-17.3,8.7-9.24,5.59-45.27,29.48-45.27,29.48,0,0,.06,3.35,1.41,8.59,7.96,1.95,16.29,1.25,25.87-4.18Z"/><path class="e" d="M251.59,119.24c.77-18.54-8.22-38.71-24.34-49.61,17.95,14.58,21.46,64.87-5.51,96.17,2.72,9.69,6.94,18.48,8.75,28.64,.93,5.56-1.63,10.13-2.86,15.1,3.59-.25,7.16-.97,10.02-2.44,2.94-2.43,2.94-11.51-.38-19.57-3.32-8.06-6.65-20.08-6.14-22.38,.51-2.3,19.44-21.36,20.46-45.91Z"/></g><path class="v" d="M224.55,209.92c-6.89,0-13.88-1.54-14.28-2.74-.24-.71,.04-2.19,.39-4.05,.45-2.41,1.01-5.4,.5-7.35-.99-4.47-8.09-15.55-12.35-20.93-3.92-4.95-3.61-8.6-3.28-12.12-5.47,2.25-11.31,3.4-17.36,3.4-11.18,0-19.59-3.95-20.49-4.39-.82,.09-7.39,.79-15.79,.79h0c-5.25,0-10.17-.27-14.63-.8h-.06l-.05-.04c-17.77-10.87-26.32-24.22-30.36-33.5-4.38-10.07-4.56-17.68-4.56-17.75v-.16l.13-.09c.36-.24,36.14-23.96,45.28-29.49,11.17-6.76,38.47-19.53,61.81-19.53,3.52,0,6.89,.29,10,.86,12.66,2.32,23.97,9.86,31.84,21.24,7.25,10.49,11.12,23.61,10.6,35.99-.81,19.51-12.94,35.64-18.11,42.53-1.26,1.68-2.26,3.01-2.35,3.43-.49,2.19,2.83,14.23,6.12,22.21,3.3,8,3.44,17.3,.3,19.9l-.05,.03c-4.14,2.13-9.48,2.57-13.23,2.57Zm-28.37-48.09l-.08,.91c-.32,3.43-.64,6.97,3.16,11.76,4.29,5.42,11.45,16.62,12.46,21.15,.53,2.06-.04,5.13-.5,7.59-.31,1.64-.6,3.19-.41,3.76,.29,.7,6.36,2.35,13.74,2.35,3.68,0,8.9-.43,12.94-2.5,2.61-2.21,2.96-10.87-.49-19.21-3.1-7.52-6.71-20.04-6.15-22.55,.12-.52,.88-1.55,2.46-3.65,5.15-6.85,17.19-22.88,18-42.21,1-23.89-14.43-51.61-41.96-56.64-3.08-.56-6.41-.85-9.9-.85-23.22,0-50.39,12.72-61.51,19.45-8.84,5.35-42.7,27.78-45.12,29.39,.05,1.13,.52,8.23,4.52,17.41,4.01,9.19,12.47,22.4,30.06,33.18,4.42,.52,9.3,.79,14.5,.79,8.9,0,15.74-.79,15.8-.79h.09l.08,.03c.09,.04,8.67,4.37,20.31,4.37,6.14,0,12.05-1.19,17.58-3.53l.44-.19Z"/></g><path class="v" d="M195.9,165.48l-.57-.03c.78-13.26,4.32-25,7.64-33.4,3.26-8.23,6.86-13.05,6.86-13.05-.12,.2-12.38,20.39-13.93,46.48Z"/><path class="v" d="M198.27,170.57s.04-1.49,1.41-2.66c1.03-.88,2.52-1.72,4.58-2,1.24-.17,4.23,.8,4.23,.8-7.72-1.65-10.13,3.64-10.23,3.86Z"/><path class="v" d="M200.89,171.63s.83-1.39,1.45-1.75c1.32-.79,2.65-1.25,3.81-1.52,1.92-.45,3.43,.21,3.43,.21-.05,0-4.86-.27-8.68,3.06Z"/><path class="v" d="M204.72,175.22c-.44,0-.89-.02-1.36-.07-.88-.09-2.57-1.14-2.57-1.14,4.94,1.67,9.52-.54,9.56-.56,0,0-1.03,1.14-2.84,1.49-.82,.16-1.76,.28-2.79,.28Z"/><g><path d="M210.21,206.94c-.02-.11-.03-.23-.03-.36l.57-.03,.03,.32-.57,.07Z"/><g><path class="c" d="M227.62,202.68c-3.36,.38-5.96,6.87-5.96,6.87,4.28,.25,9.1,0,13.15-1.3h0s-3.84-5.95-7.2-5.57Z"/><path class="i" d="M228.42,202.71c1.02,.95,2.11,2.45,1.3,4.23-.67,1.47-5.06,2.4-7.99,2.1-.03,.07-.08,.51-.08,.51,4.28,.25,9.1,0,13.15-1.3,0,0-3.25-5.04-6.39-5.54Z"/><path class="l" d="M224.55,209.92h0c-.95,0-1.93-.03-2.91-.08l-.4-.02,.15-.37c.11-.27,2.73-6.65,6.19-7.05,3.49-.4,7.31,5.46,7.47,5.7l.2,.32-.36,.11c-2.9,.93-6.38,1.4-10.34,1.4Zm-2.47-.64c.83,.04,1.66,.06,2.47,.06,3.73,0,7.03-.42,9.8-1.26-.84-1.21-3.99-5.44-6.71-5.12-2.36,.27-4.58,4.06-5.56,6.32Z"/></g><g><path class="c" d="M221.66,209.55s-2.23-7.89-5.55-8.02c-3.32-.13-5.64,5.04-5.64,5.04h0l.03,.32c.01,.07,.03,.14,.05,.2,.27,.81,5.16,2.12,11.12,2.46Z"/><path class="i" d="M221.66,209.55s-2.01-7.11-5.06-7.94c1.2,1.05,1.56,3.18,.53,4.54-1.04,1.37-3.97,1.44-6.55,1.01,.5,.81,5.29,2.06,11.08,2.39Z"/><path class="l" d="M221.95,209.85l-.3-.02c-5.7-.33-11.01-1.57-11.37-2.65-.02-.07-.04-.16-.06-.24l-.03-.34c0-.26,2.36-5.36,5.8-5.36,.04,0,.09,0,.13,0,3.56,.14,5.83,8.23,5.83,8.31v.3Zm-11.18-3.23l.02,.24s.02,.09,.03,.13c.23,.56,4.46,1.85,10.45,2.24-.73-2.36-2.75-7.33-5.17-7.42-.04,0-.07,0-.11,0-2.85,0-4.95,4.23-5.22,4.81Z"/></g></g><g><path class="d" d="M162.82,144.22l-39.93,.52s2.3,11.8,3.84,19.47c1.53,7.67,2.11,19.66,3.45,24.74,1.34,5.08,3.45,12.41,3.45,14.07-2.49,2.71-3.84,6.65-2.78,8.47,1.05,1.82,9.59,2.88,15.63,2.59,6.04-.29,12.28-1.44,12.56-5.27,.29-3.84-1.53-5.24-2.49-9.72-.96-4.48-2.53-17.59,.03-26.73,2.56-9.14,3.1-12.27,3.1-12.27,0,0,5.44-3.09,3.14-15.87Z"/><path class="g" d="M136.43,203.48c-.38-.62-2.9-7.51-4.53-17.4-2.14-12.97-2.07-23.4-8.67-39.59,.7,3.56,2.32,11.85,3.5,17.72,1.53,7.67,2.11,19.66,3.45,24.74,1.34,5.08,3.45,12.41,3.45,14.07-2.42,2.63-3.74,6.39-2.87,8.28,.91-2.91,3.38-5.89,5.67-7.83Z"/><path class="e" d="M162.82,144.22s-.87,7.88-5.1,1.08c.94,6.23-1.68,13.75-4.55,20.18-3.71,8.3-5.1,14.65-3.91,23.4,1.7,12.6,2.26,16.57-2.77,25.21,5.27-.46,12.31-1.91,12.56-5.27,.29-3.84-1.53-5.24-2.49-9.72-.96-4.48-2.53-17.59,.03-26.73,2.56-9.14,3.1-12.27,3.1-12.27,0,0,5.44-3.09,3.14-15.87Z"/><path class="v" d="M144.45,214.42c-5.58,0-12.8-.94-13.86-2.78-1.09-1.89,.16-5.86,2.74-8.72-.07-1.41-1.35-6.15-2.49-10.34-.33-1.23-.66-2.44-.95-3.54-.7-2.64-1.19-7.13-1.71-11.87-.49-4.52-1.01-9.18-1.75-12.89-1.52-7.59-3.81-19.35-3.84-19.47,0,0,1.28,3.54,2.16,8.02,.72,3.66,1.56,7.92,2.24,11.34,.75,3.73,1.26,8.41,1.76,12.94,.52,4.73,1.01,9.19,1.69,11.79,.29,1.1,.62,2.31,.95,3.54,1.23,4.56,2.51,9.27,2.51,10.6v.11l-.08,.08c-2.43,2.65-3.72,6.45-2.74,8.13,.96,1.67,9.26,2.74,15.37,2.45,7.94-.38,12.07-2.06,12.29-5.01,.17-2.22-.38-3.58-1.08-5.3-.48-1.17-1.01-2.5-1.41-4.34-.84-3.93-2.64-17.3,.04-26.87,2.52-9.01,3.08-12.21,3.09-12.24l.02-.14,.12-.07c.05-.03,5.51-3.22,3.28-15.62,0,0,1.19,4.92,1.09,6.85-.34,6.51-3.31,8.78-3.97,9.2-.13,.68-.83,4.12-3.08,12.17-2.45,8.76-1.08,21.7-.03,26.59,.38,1.79,.91,3.09,1.38,4.25,.7,1.72,1.3,3.21,1.12,5.56-.25,3.28-4.57,5.15-12.84,5.54-.64,.03-1.33,.05-2.04,.05Z"/></g><path class="v" d="M159.96,160.13l-.57-.06c.86-8.13-1.65-14.7-1.67-14.77,0,0,1.47,2.23,2.02,5.91,.37,2.49,.58,5.58,.23,8.91Z"/><g><g><path class="c" d="M145.76,206.66c-4.08,.48-5.46,7.32-5.46,7.32,2.1,.16,4.27,.2,6.18,.11,2.32-.11,4.66-.35,6.69-.82,0-.01-3.33-7.1-7.41-6.62Z"/><path class="i" d="M147.47,206.89c1.37,2.05,2.26,4.17,.15,5.57-2.2,1.47-4.76,1.18-7.33,1.49v.03c2.09,.16,4.26,.2,6.18,.11,2.32-.11,4.66-.35,6.69-.82,0-.01-2.44-5.19-5.69-6.39Z"/><path class="l" d="M144.41,214.43h0c-1.35,0-2.74-.05-4.14-.16l-.31-.02,.05-.31c.01-.07,1.43-7.05,5.71-7.56,4.22-.49,7.57,6.49,7.7,6.78l.15,.32-.35,.08c-1.82,.42-4.09,.7-6.74,.82-.66,.03-1.36,.05-2.07,.05Zm-3.76-.71c1.27,.09,2.54,.13,3.76,.13h0c.71,0,1.4-.02,2.05-.05,2.44-.12,4.55-.36,6.28-.73-.71-1.36-3.61-6.53-6.95-6.13-3.34,.39-4.81,5.44-5.14,6.77Z"/></g><g><path class="c" d="M130.84,211.5c.72,1.24,4.93,2.13,9.45,2.48,0,0-1.53-8.12-4.8-8.61-1.33-.24-3.86,1.71-4.97,3.9-.1,.89,0,1.67,.32,2.24Z"/><path class="i" d="M135.82,205.44c.96,1.41,2.19,3.64,1.2,5.29-1.37,1.91-5.92,.62-6.46-.02,.06,.29,.15,.55,.29,.78,.72,1.24,4.93,2.13,9.45,2.48,0,0-1.43-7.58-4.48-8.54Z"/><path class="l" d="M140.64,214.29l-.37-.03c-2-.15-8.62-.79-9.68-2.62-.35-.61-.47-1.43-.36-2.42l.03-.1c1.16-2.27,3.79-4.31,5.28-4.05,3.49,.53,5.02,8.77,5.03,8.85l.06,.36Zm-9.84-4.95c-.09,.83,.01,1.53,.29,2.01,.57,.99,4.11,1.91,8.85,2.3-.51-2.42-2.1-7.65-4.49-8.01-.07-.01-.13-.02-.19-.02-1.15,0-3.38,1.65-4.46,3.71Z"/></g></g><path class="v" d="M131.22,183.94s.35-1.27,1.86-1.93c.98-.42,2.26-.75,3.84-.68,.9,.04,2.82,1.1,2.82,1.1-5.64-1.78-8.49,1.48-8.52,1.51Z"/><path class="v" d="M137.11,191.05c-1.15,0-2.36-.17-3.55-.65-.95-.38-2.36-2.19-2.36-2.19,4.72,4.47,11.56,.95,11.62,.91,0,0-1,1.16-2.79,1.58-.87,.2-1.86,.35-2.92,.35Z"/><path class="v" d="M134.93,187.51c-.61,0-1.75-.78-1.75-.78,3.35,.81,6.46-1.1,6.49-1.12,0,0-.47,.96-1.56,1.34-.82,.28-1.85,.53-2.99,.55-.06,0-.13,0-.19,0Z"/><g><g><path class="d" d="M123.05,43.39s-.03-2.38-1.13-5.64c-1.18-3.49-2.46-6.15-6.87-6.15s-8.2,1.64-9.74,3.79c3.08,2.36,17.74,8,17.74,8Z"/><path class="e" d="M121.92,37.75c-1.1-3.26-2.3-5.8-6.05-6.12,1.52,2.89,2.24,6.68,.92,9.25,3.43,1.42,6.26,2.51,6.26,2.51,0,0-.03-2.38-1.13-5.64Z"/><path class="v" d="M123.36,43.84l-.42-.16c-.6-.23-14.74-5.68-17.82-8.04l-.24-.18,.17-.24c1.68-2.35,5.69-3.92,9.99-3.92,4.63,0,5.99,2.88,7.16,6.36,1.11,3.27,1.14,5.64,1.14,5.74v.45Zm-17.61-8.51c3.12,2.16,14.57,6.67,16.97,7.6-.06-.84-.29-2.74-1.09-5.08-1.14-3.37-2.35-5.94-6.58-5.94-3.96,0-7.64,1.37-9.31,3.42Z"/></g><g><path class="s" d="M56.7,98.93s-1.91,6.35-3.14,10.25c-1.23,3.9-1.16,6.22,3.49,6.08,4.65-.14,8.48-2.32,12.72-3.56,4.24-1.23,10.32,3.01,20.07,3.93,9.74,.92,23.28,2.15,32.3-16.51,9.02-18.66,1.23-56.41,1.23-56.41,0,0-9.85-8.47-23.48-10.25-3.28-5.85-6.77-7.79-9.64-8.72,1.85,2.56,3.9,6.26,3.9,6.26,0,0-4.61-6.15-13.18-2.77,2,.51,8.34,3.9,8.34,3.9,0,0-8.08-3.49-14.23,1.74,2.36-.1,8.61,.92,8.61,.92,0,0-9.56,.99-17.41,7.83-7.85,6.84-13.05,16.82-20.57,22.7-7.52,5.88-14.77,3.69-18.87-2.05-4.1-5.74-4.38-13.26-3.69-23.93,.68-10.67,2.32-15.86-2.87-22.84-5.2-6.97-11.96-6.08-12.1-3.69-.14,2.39,3.83,4.58,4.03,5.74-1.5,1.91-2.94,3.08-2.6,4.72,.34,1.64,2.53,1.85,4.58,1.3,1.37,2.12,.21,7.11-1.85,14.56-2.05,7.45-6.91,29.25,8.68,49.29,9.48,12.19,24.61,15.39,35.69,11.49Z"/><path class="g" d="M91.72,33.34c-2.05-3.75-3.66-4.74-6.92-6.2,1.54-.21,2.84-.33,4.29-.44-2.09-.64-4.82-.77-8.14,.55,2,.51,8.34,3.9,8.34,3.9,0,0-8.08-3.49-14.23,1.74,2.36-.1,8.61,.92,8.61,.92,0,0-9.56,.99-17.41,7.83-7.85,6.84-13.05,16.82-20.57,22.7-7.52,5.88-14.77,3.69-18.87-2.05-4.1-5.74-4.38-13.26-3.69-23.93,.66-10.35,2.23-15.54-2.42-22.21-.14-.21-.29-.41-.45-.62-4.66-6.25-10.58-6.18-11.85-4.38,1.94-1.06,5.34,.68,7.27,2.05,3.77,2.64,5.74,6.29,6.43,10.83,1.28,13.73-4.69,25.04,1.98,37.99,2.46,4.92,8.32,8.99,14.56,7.75,9.27-1.84,14.1-7.05,19.02-14.02,7.38-10.67,16.56-19.48,31.23-20.8-2.05-2.05-5.04-2.48-7.5-3.3,3.69-.41,7.03,.48,10.32,1.71Z"/><path class="e" d="M90.24,67.75c-1.04,7.39-6.53,12.72-12.27,11.92-5.74-.81-9.55-7.45-8.52-14.83,1.04-7.39,6.53-12.72,12.27-11.91,5.74,.81,9.55,7.45,8.52,14.83Z"/><path class="e" d="M98.95,110.01c-6.35,.42-11.32-.05-17.57-.96-3.2-.47-6.09-1.31-9.31-.92-6.27,.78-13.53,7.33-19.11,5.21,.31,1.31,1.48,2,4.07,1.92,4.65-.14,8.48-2.32,12.72-3.56,4.24-1.23,10.32,3.01,20.07,3.93,7.86,.74,18.2,1.68,26.64-7.8-2.18-3.06-3.99-6.26-4.16-10.38-1.36,10.66-10.69,12.37-13.35,12.54Z"/><g><path class="e" d="M56.59,99.3c5.98-2.94,11.9-5.69,17.13-9.81-1.23-1.23-2.46-2.87-2.87-2.87-11.08,6.97-24.25,8.34-35.33,4.65-12.31-4.1-21.28-18.19-24.16-30.49-.44-2.09-.91-4.13-1.4-6.13-.06,9.55,2.22,21.45,11.04,32.79,9.48,12.19,24.61,15.39,35.69,11.49l-.11,.37Z"/><path class="e" d="M17.52,19.75c-2.31,1.93-5.35,2.04-7.75,1.03-.21,.48-.29,.96-.18,1.5,.2,.98,1.08,1.45,2.18,1.55,2.71-.15,5.75-1.1,5.75-4.08Z"/><path class="e" d="M97.82,33.08s21.9,6.99,12,20.31c4.7-2.09,9.9-2.35,14.76-3.54-.65-4.38-1.22-7.14-1.22-7.14,0,0-9.85-8.47-23.48-10.25-3.09-5.5-6.36-7.55-9.13-8.54,3.84,2.83,5.23,5.26,7.08,9.16Z"/></g><path class="v" d="M97.03,116.39c-2.58,0-5.05-.23-7.24-.44-4.68-.44-8.57-1.66-11.7-2.64-2.58-.81-4.82-1.51-6.65-1.51-.59,0-1.11,.07-1.6,.21-1.35,.39-2.68,.89-3.96,1.37-2.76,1.03-5.62,2.1-8.83,2.2-2.04,.05-3.31-.34-3.97-1.24-.91-1.24-.45-3.26,.18-5.25,1-3.17,2.47-8.02,2.97-9.68-2.83,.93-5.86,1.39-9.02,1.39h0c-10.29,0-19.93-4.8-26.44-13.18-10.66-13.71-13.76-31.31-8.74-49.56,1.83-6.65,3.14-11.93,1.99-14.13-.62,.15-1.23,.22-1.78,.22-1.63,0-2.71-.66-2.95-1.82-.3-1.45,.61-2.52,1.76-3.88,.26-.3,.53-.62,.8-.97-.16-.36-.75-.91-1.32-1.45-1.24-1.17-2.78-2.63-2.68-4.25,.07-1.2,1.46-2.04,3.39-2.04,1.2,0,5.42,.4,9.26,5.56,4.38,5.88,3.98,10.46,3.32,18.04-.14,1.57-.28,3.19-.39,5-.69,10.83-.32,18.19,3.64,23.73,2.49,3.48,5.92,5.4,9.67,5.4,2.92,0,5.87-1.15,8.76-3.41,3.88-3.03,7.09-7.11,10.49-11.42,3.08-3.91,6.27-7.96,10.06-11.26,5.75-5,12.47-6.91,15.68-7.58-2.03-.29-5.17-.7-6.67-.63l-.9,.04,.68-.58c2.31-1.96,5.13-2.96,8.38-2.96,1.17,0,2.25,.13,3.17,.3-1.96-.99-4.44-2.18-5.53-2.46l-.92-.24,.88-.35c1.74-.69,3.46-1.04,5.1-1.04,3.14,0,5.43,1.25,6.82,2.33-.76-1.28-1.8-2.96-2.77-4.32l-.55-.76,.89,.29c2.52,.81,6.26,2.59,9.74,8.73,13.5,1.81,23.39,10.21,23.49,10.3l.08,.07,.02,.1c.08,.38,7.71,38.07-1.25,56.61-7.42,15.35-18.04,17.12-25.37,17.12Zm-25.59-5.21c1.93,0,4.2,.71,6.84,1.54,3.1,.97,6.96,2.18,11.58,2.62,2.17,.21,4.63,.44,7.18,.44,7.78,0,17.63-1.91,24.82-16.78,8.64-17.88,1.67-53.9,1.23-56.11-.96-.8-10.5-8.45-23.24-10.11l-.15-.02-.08-.13c-3-5.35-6.19-7.33-8.57-8.26,1.67,2.46,3.35,5.46,3.36,5.5l-.51,.33s-2.82-3.66-7.95-3.66c-1.3,0-2.66,.23-4.05,.69,1.25,.48,3.08,1.36,4.63,2.13,1.54,.78,2.79,1.78,2.79,1.78,0,0-1.53-.32-3.55-.63-.76-.12-1.61-.2-2.51-.2-2.79,0-5.24,.76-7.3,2.27,2.73,.1,7.56,.89,7.78,.92l2.27,.37-2.28,.24c-.09,0-9.56,1.06-17.24,7.75-3.75,3.26-6.92,7.29-9.99,11.18-3.42,4.35-6.66,8.45-10.6,11.53-3,2.35-6.08,3.54-9.14,3.54-3.95,0-7.56-2.01-10.17-5.65-4.06-5.69-4.45-13.16-3.75-24.13,.12-1.82,.26-3.44,.39-5.01,.65-7.44,1.04-11.93-3.21-17.62-3.68-4.93-7.64-5.32-8.77-5.32-1.56,0-2.73,.61-2.78,1.46-.08,1.33,1.35,2.68,2.49,3.76,.81,.76,1.44,1.36,1.54,1.91l.02,.14-.09,.11c-.31,.4-.62,.77-.92,1.11-1.08,1.28-1.86,2.2-1.62,3.35,.24,1.15,1.57,1.33,2.35,1.33,.57,0,1.21-.09,1.85-.26l.22-.06,.12,.19c1.48,2.29,.18,7.58-1.81,14.81-4.97,18.06-1.91,35.47,8.63,49.02,6.4,8.22,15.86,12.94,25.96,12.94h0c3.3,0,6.46-.52,9.39-1.55l.57-.2-.17,.58c-.02,.06-1.93,6.4-3.15,10.25-.78,2.48-.86,3.89-.27,4.7,.52,.72,1.65,1.04,3.45,.98,3.11-.09,5.92-1.14,8.63-2.16,1.3-.49,2.64-.99,4.01-1.39,.54-.16,1.12-.23,1.77-.23Z"/></g><g><path class="j" d="M71.62,63.79l17.98,4.56s1.14-9.88-6.03-11.99c-6.39-1.87-11.01,4.55-11.95,7.43Z"/><path class="c" d="M88.8,70.76c-1.64,6.01-6.92,9.81-11.79,8.48-4.87-1.33-7.49-7.28-5.85-13.29,1.64-6.01,6.92-9.81,11.79-8.48,4.87,1.33,7.49,7.28,5.85,13.29Z"/><path class="c" d="M71,66.63c-1.27,5.77,1.33,11.33,6.02,12.61,4.55,1.24,9.45-1.99,11.42-7.32-4.35,3.57-15.42,4.67-17.43-5.29Z"/><g><path class="h" d="M85.53,70.44c-.73,3.66-3.5,6.15-6.2,5.57-2.7-.58-4.3-4.02-3.58-7.68,.73-3.66,3.5-6.15,6.2-5.57,2.7,.58,4.3,4.02,3.58,7.68Z"/><path class="m" d="M78.91,71.71c-1.43-.61-2.42-1.65-3.24-2.86-.48,3.45,1.09,6.59,3.66,7.15,2.67,.58,5.41-1.85,6.17-5.44-1.8,1.63-4.27,1.87-6.59,1.15Z"/><path class="j" d="M84.24,71.61c-.5,2.52-2.34,4.26-4.11,3.88-1.77-.38-2.8-2.74-2.3-5.26,.5-2.52,2.34-4.26,4.11-3.88,1.77,.38,2.8,2.74,2.3,5.26Z"/><path class="c" d="M83.3,68.79c-.29,1-1.34,1.55-2.34,1.23-1-.32-1.58-1.39-1.28-2.39,.29-1,1.34-1.55,2.34-1.23,1,.32,1.58,1.39,1.28,2.39Z"/><g class="q"><path class="c" d="M79.65,73.46c-.13,.46-.62,.71-1.08,.57-.46-.15-.73-.64-.59-1.1,.14-.46,.62-.71,1.08-.56,.46,.15,.73,.64,.59,1.1Z"/></g><path class="u" d="M78.88,76.23c-2.65-.85-4.17-4.35-3.45-7.98,.76-3.83,3.71-6.45,6.58-5.83,2.88,.63,4.58,4.28,3.83,8.08-.76,3.83-3.71,6.45-6.59,5.83-.13-.03-.25-.06-.38-.1Zm3.33-13.07c-.11-.03-.21-.06-.32-.09-2.52-.54-5.13,1.84-5.82,5.31-.68,3.44,.78,6.74,3.33,7.28,2.52,.54,5.13-1.84,5.82-5.31,.65-3.29-.67-6.45-3.01-7.2Z"/></g><path class="j" d="M79,79.81c-.7,0-1.39-.09-2.06-.28-2.45-.67-4.42-2.46-5.57-5.06-1.13-2.57-1.31-5.63-.5-8.61,1.42-5.2,5.67-8.97,10.1-8.97,.7,0,1.39,.09,2.06,.28,2.45,.67,4.42,2.46,5.57,5.06,1.13,2.57,1.31,5.63,.5,8.61-1.42,5.2-5.67,8.97-10.1,8.97Zm1.97-22.3c-4.16,0-8.16,3.58-9.51,8.52-.77,2.84-.61,5.75,.47,8.2,1.07,2.42,2.9,4.1,5.17,4.72,.62,.17,1.26,.25,1.9,.25,4.16,0,8.16-3.58,9.51-8.52,.77-2.84,.61-5.75-.47-8.2-1.07-2.42-2.9-4.1-5.17-4.72-.62-.17-1.26-.25-1.9-.25Z"/></g><path class="v" d="M87.08,56.03c-5.27-5.95-11.12-1.1-11.36-.89,0,0,.86-1.52,2.71-2.15,1.66-.57,3.83-.83,6.07,.25,1.02,.49,2.59,2.8,2.59,2.8Z"/><g><path class="w" d="M92.39,50.93s-4.82-6.05-14.56-5.03c2.77-4.61,10.26-5.23,14.56,5.03Z"/><path class="j" d="M93.52,52.85l-1.38-1.72c-.04-.05-4.11-5.03-12.13-5.03-.71,0-1.43,.04-2.16,.12l-.61,.06,.32-.53c1.25-2.09,3.39-3.34,5.71-3.34,3.73,0,7.15,3.06,9.4,8.4l.85,2.04Zm-13.51-7.37c5.77,0,9.57,2.5,11.38,4.05-2.11-4.16-5.02-6.51-8.13-6.51-1.91,0-3.67,.93-4.84,2.52,.53-.04,1.06-.06,1.58-.06Z"/></g><path class="v" d="M52.96,100.25l-.12-.6c.13-.03,12.88-2.63,20.45-10.76l.45,.42c-7.7,8.28-20.65,10.92-20.78,10.95Z"/><path class="v" d="M76.01,91.59c-1.14-.87-2.3-1.89-3.26-2.78-1.28-1.19-1.86-2.68-1.86-2.68,.05,.05,4.59,4.77,7.59,6.37,0,0-1.72-.33-2.48-.91Z"/><g><path class="b" d="M73.49,89.11c-3.92,4.2-9.15,6.93-13.37,8.59-1.17,3.41-4.09,12.13-3.43,12.29,.82,.21,8.61-5.44,13.13-10.67,4.51-5.23,6.09-8.2,6.09-8.2l-2.42-2.02Z"/><path class="x" d="M73.49,89.11c-2.23,2.4-4.9,4.31-7.55,5.82-1.31,2.96-1.63,6.26-1.15,9.36,1.79-1.56,3.58-3.28,5.03-4.97,4.51-5.23,6.09-8.2,6.09-8.2l-2.42-2.02Z"/><g><path class="k" d="M69.82,99.33c.63-.73,1.19-1.41,1.71-2.05-1.95-.54-5.27-.98-8.33,.88-4.7,2.87-6.51,11.83-6.51,11.83,.82,.21,8.61-5.44,13.13-10.67Z"/><path class="o" d="M66.81,96.91c.53,3.86-2.36,6.2-5.13,8.57-1.39,.83-2.83,2.46-4.47,2.51-.35,1.2-.52,2-.52,2,.82,.21,8.61-5.44,13.13-10.67,.63-.73,1.19-1.41,1.71-2.05-1.19-.33-2.89-.62-4.72-.38Z"/><path class="r" d="M56.75,110.31h0s-.09,0-.12-.01l-.29-.07,.06-.29c.08-.37,1.89-9.12,6.65-12.03,1.52-.93,3.25-1.4,5.15-1.4,1.12,0,2.27,.16,3.42,.48l.45,.13-.3,.37c-.57,.7-1.13,1.37-1.72,2.05-4.43,5.14-12.11,10.78-13.31,10.78Zm11.45-13.18c-1.79,0-3.41,.44-4.83,1.31-3.92,2.39-5.81,9.26-6.26,11.14,1.74-.81,8.31-5.61,12.48-10.44,.48-.56,.94-1.11,1.4-1.67-.94-.23-1.88-.34-2.79-.34Z"/></g><path class="v" d="M56.75,110.31h0s-.09,0-.12-.01c-.11-.03-.2-.1-.25-.2-.12-.23-.5-.92,3.47-12.49l.05-.13,.13-.05c3.84-1.52,9.26-4.23,13.25-8.52l.2-.21,2.83,2.36-.12,.22c-.07,.12-1.65,3.06-6.13,8.26-4.43,5.14-12.11,10.78-13.31,10.78Zm3.63-12.37c-2.55,7.43-3.45,10.88-3.47,11.72,1.35-.46,8.33-5.47,12.69-10.53,3.76-4.35,5.48-7.16,5.93-7.93l-2-1.67c-4.01,4.2-9.32,6.88-13.15,8.41Z"/></g><path class="v" d="M13.65,24.02l-.15-.6c2.26-.58,3.68-1.7,3.68-1.7-.04,.07-1.03,1.65-3.52,2.29Z"/><path class="v" d="M19.38,40.93c-2.31,0-4.03-1.36-4.03-1.36,.04,.02,3.91,1.9,7.55,0l.26,.56c-1.27,.6-2.59,.79-3.78,.79Z"/><path class="v" d="M15.78,53.51c.14,.05,3.5,1.14,7.11-2.31l.43,.44c-4.3,3.8-7.53,1.87-7.53,1.87Z"/><path class="v" d="M20.19,69.5s4.64-1.12,6.58-7l.58,.19c-2.05,6.22-7.16,6.81-7.16,6.81Z"/><path class="v" d="M34.32,79.96c.02-.07,2.18-6.71-.77-12.4l.55-.28c3.07,5.93,.22,12.69,.22,12.69Z"/><path class="v" d="M52.6,80.3c0-.1,.72-10.16-8.05-14.97l.3-.54c9.13,5.01,7.75,15.51,7.75,15.51Z"/><path class="v" d="M66.2,62.34c-.03-.07-3.24-6.54-11.6-7.14l.04-.61c8.73,.62,11.56,7.75,11.56,7.75Z"/><g><path class="d" d="M157.92,59.75c-3.18-5.95-6.56-13.95-13.64-16.31-20-6.36-27.07,1.95-33.53,6.56-6.77,.51-9.43,6.77-9.43,6.77l11.79,46.64c10.94,15.43,22.97,10.07,25.54,4.54,2.56-5.54,2.15-8.51,9.43-8.92,7.28-.41,9.13-4.2,10.97-12.1,1.85-7.9,6.46-9.64,6.97-12.82,.51-3.18-4.92-8.41-8.1-14.36Z"/><path class="g" d="M144.28,43.44c-20-6.36-27.07,1.95-33.53,6.56-4.53,.34-7.22,3.26-8.51,5.15,1.21-.63,5.42-4.45,4.84-.1,5.62-5.05,9.68-8.16,15.66-10.14,8.81-2.92,21.54-1.47,26.66,4.99,4.92,6.15,9.23,16.27,16.19,21.86-1.32-3.14-5.19-7.35-7.68-12.01-3.18-5.95-6.56-13.95-13.64-16.31Z"/><path class="e" d="M158.65,82.45c-1.59,5.26-2.27,13.39-9.78,14.11-2.55,.75-5.7,.75-7.46,2.77-2.46,2.05-3.46,5.99-4.92,7.79-2.35,2.9-6.55,4.46-10.11,3.36-3.9-1.2-7.42-4.15-10.03-7.21-1.54-1.8-4.42-5.81-4.42-5.81,.16,4.12,.72,7.97,4.54,10.38,.05-.06,.11-.12,.17-.18,9.87,10.03,19.72,5.23,22.01,.29,2.56-5.54,2.15-8.51,9.43-8.92,7.28-.41,9.13-4.2,10.97-12.1,1.63-6.98,5.43-9.16,6.64-11.76-2.89,1.63-5.68,4.07-7.04,7.29Z"/><path class="v" d="M128.78,113.85c-3.08,0-7.9-1.13-13.01-6.64-.97-1.04-2.42-3.98-2.42-3.98,6.64,9.37,13.18,10.26,16.49,9.95,4.35-.4,7.41-2.98,8.51-5.37,.47-1.01,.84-1.94,1.17-2.77,1.49-3.73,2.38-5.99,8.53-6.33,6.91-.39,8.81-3.82,10.69-11.86,1.12-4.79,3.29-7.41,4.88-9.32,1.06-1.28,1.9-2.29,2.09-3.48,.3-1.84-1.64-4.56-3.88-7.71-1.39-1.95-2.97-4.17-4.19-6.45-.37-.68-.73-1.39-1.11-2.12-2.91-5.62-6.21-11.99-12.36-14.04-17.53-5.57-24.98,.18-30.97,4.8-.79,.61-1.54,1.19-2.29,1.73l-.07,.05h-.09c-6.51,.5-9.15,6.53-9.18,6.59,0,0,.29-2.2,2.18-4.02,1.55-1.49,3.8-2.92,6.87-3.17,.72-.52,1.44-1.07,2.2-1.66,6.1-4.71,13.69-10.57,31.53-4.89,6.39,2.13,9.75,8.62,12.71,14.34,.37,.72,.74,1.43,1.11,2.11,1.2,2.25,2.77,4.45,4.15,6.39,2.32,3.26,4.32,6.07,3.99,8.17-.22,1.36-1.11,2.43-2.23,3.78-1.63,1.97-3.66,4.41-4.75,9.06-1.92,8.2-4,11.93-11.26,12.34-5.75,.32-6.5,2.2-7.99,5.95-.33,.83-.71,1.78-1.18,2.8-1.18,2.54-4.42,5.3-9.01,5.72-.34,.03-.72,.05-1.12,.05Z"/></g><path class="v" d="M107.08,55.05s.6-2.25,2.41-4.15c.63-.66,1.35-1.33,2.14-1.93l.37,.49c-2.98,2.28-4.91,5.56-4.92,5.59Z"/><g><path class="y" d="M144.28,49.97c-5.74-3.69-16.14-2.19-24.2,4.93-8.07,7.11-14.05,24.6-14.05,24.6l2.7-6.62s3.35,5.64,5.5,17.84c2.15,12.2,6.46,14.97,10.97,16.61,4.51,1.64,10.15,.92,11.38-3.92,1.23-4.84,3.38-7.16,9.85-7.77,6.77-.62,7.79-3.69,8.92-7.38,1.13-3.69,2.87-11.62,4.65-14.53-5.2-4.54-9.98-20.07-15.72-23.76Z"/><path class="p" d="M118.33,93.08c-.93-11.56-2.22-14.47,1.47-24.73,3.28-8.61,14.94-16.58,22.73-13.3,6.69,2.76,12.68,15.29,17.14,18.37-5.07-4.89-9.78-19.84-15.4-23.46-5.74-3.69-16.14-2.19-24.2,4.93-8.07,7.11-14.05,24.6-14.05,24.6l2.7-6.62s3.35,5.64,5.5,17.84c2.15,12.2,6.46,14.97,10.97,16.61,4.26,1.55,9.53,.99,11.14-3.15-4.11,8.55-16.98,1.66-18.01-11.1Z"/><path class="v" d="M129.56,108.43c-1.45,0-2.98-.27-4.46-.81-4.43-1.61-8.95-4.24-11.17-16.85-1.77-10.05-4.38-15.66-5.21-17.26-1.51,3.49-2.38,6.02-2.4,6.09,0,0,.26-2.63,1.68-5.95,2.47-5.79,6.77-14.48,11.88-18.99,7.76-6.84,18.32-8.97,24.57-4.95,3.16,2.03,6,7.49,8.75,12.78,2.39,4.6,4.65,8.94,7.01,11.01l.2,.17-.14,.22c-1.27,2.07-2.54,6.83-3.56,10.66-.38,1.43-.74,2.78-1.05,3.79-1.09,3.58-2.13,6.96-9.19,7.6-6.6,.63-8.46,3.13-9.57,7.54-.45,1.78-1.53,3.16-3.12,4-1.18,.62-2.64,.94-4.21,.94Zm-20.53-35.64c.4,.71,3.49,6.5,5.5,17.87,2.17,12.29,6.51,14.83,10.78,16.38,2.92,1.06,6.05,1.03,8.17-.1,1.45-.77,2.4-1.98,2.81-3.61,1.19-4.68,3.15-7.34,10.11-8,6.65-.6,7.58-3.65,8.66-7.17,.31-1,.67-2.35,1.05-3.77,1-3.74,2.23-8.36,3.5-10.6-2.38-2.2-4.61-6.48-6.96-11.02-2.71-5.21-5.52-10.61-8.54-12.55-6.03-3.87-16.27-1.77-23.83,4.9-4.71,4.16-8.74,11.98-11.25,17.66Z"/></g><g><path class="d" d="M67.68,76.7l8.62,5.27,9.38-1.4c-7.28-5.03-18-3.86-18-3.86Z"/><path class="v" d="M86.06,80.82c-7.1-4.9-18.45-4.06-18.57-4.05,0,0,1.9-.76,4.62-.6,3.29,.19,7.78,.82,11.69,2.66,.91,.43,2.26,1.99,2.26,1.99Z"/></g></g></g></svg>