<?xml version="1.0" encoding="UTF-8"?><svg id="a" xmlns="http://www.w3.org/2000/svg" viewBox="0 0 186.77 164.56"><defs><style>.b{fill:#e23939;stroke:#b72c2c;stroke-miterlimit:10;stroke-width:2px;}.c{fill:#fff;}.d{opacity:.5;}</style></defs><path class="d" d="M13,161.56c-1.79,0-3.44-.95-4.33-2.5s-.89-3.45,0-5L91.55,10.5c.89-1.55,2.54-2.5,4.33-2.5s3.44,.95,4.33,2.5l82.88,143.56c.89,1.55,.89,3.45,0,5s-2.54,2.5-4.33,2.5H13Z"/><path class="c" d="M8,156.56c-1.79,0-3.44-.95-4.33-2.5s-.89-3.45,0-5L86.55,5.5c.89-1.55,2.54-2.5,4.33-2.5s3.44,.95,4.33,2.5l82.88,143.56c.89,1.55,.89,3.45,0,5s-2.54,2.5-4.33,2.5H8Z"/><polygon class="b" points="90.88 8 132.33 79.78 173.77 151.56 90.88 151.56 8 151.56 49.44 79.78 90.88 8"/></svg>