<?xml version="1.0" encoding="UTF-8"?><svg id="a" xmlns="http://www.w3.org/2000/svg" viewBox="0 0 178.9 245.08"><defs><style>.b{fill:#fff;}.c{opacity:.5;}.d{fill:#ef8245;}.e{fill:#a35020;}.f{fill:#fed952;}.g{fill:#f5ac4e;}.h{fill:#ffd953;}</style></defs><path class="c" d="M106.01,243.08c-.86,0-1.72,0-2.55-.02-9.65-.12-17.4-.9-19.58-1.14-.99,.07-2.07,.1-3.24,.1-17.41,0-50.6-6.75-64.54-32.03-7.35-13.34-10.38-28.29-8.52-42.1,1.87-13.9,8.66-25.28,18.62-31.23,3.1-1.85,6.21-3.56,9.21-5.22,13.52-7.45,25.19-13.88,29.1-28.83,.32-1.23,.58-2.39,.78-3.49-.44-.36-.85-.74-1.23-1.12-4.15-4.26-3.47-7.97-2.7-9.81,.19-.44,.41-.86,.67-1.25-.26-.52-.48-1.09-.64-1.7-.28-1.09-.35-2.19-.19-3.26-.14-.2-.29-.4-.43-.6-2.19-3.03-4.67-6.46-6.59-11.26-1.55-3.87-7.5-8.57-12.75-12.72-4.9-3.87-9.52-7.53-12.58-11.64-6.08-8.2-2.9-14.67-.47-17.79,4.41-5.65,10.33-8.64,17.13-8.64s12.84,2.96,16.11,4.55c.5,.24,.93,.45,1.29,.61,2.9,1.29,5.09,4.12,7.24,7.66-1.3-14.32,4.36-18.94,6.2-20.04,.7-.42,1.47-.69,2.27-.8,1.47-.2,2.91-.3,4.29-.3,6.62,0,12.32,2.39,16.48,6.9,3.46,3.76,5.45,8.49,6.57,13.01,14.32-16.07,25.56-23.92,34.2-23.92,3.39,0,9.54,1.21,13.05,9.25,1.2,2.19,3.66,8.55-.09,19.36-4.68,13.49-17.29,29.19-37.51,46.72,4.65,.5,9.92,1.48,14.27,3.33,5.97,2.55,10.73,5.54,13.05,7.1,6.21,4.19,7.68,6.51,8.05,8.91,.19,1.24,.6,5.54-2.07,8.65-1.51,1.76-3.64,2.73-5.99,2.73-1.29,0-2.64-.3-3.99-.89-.86-.37-1.71-.89-2.66-1.53,1.54,2.89,2.7,5.85,3.18,8.72,.07,.42,.1,.85,.08,1.28-.14,3.03-1.15,5.52-2.75,7.17,.05,.05,.1,.1,.14,.15,12.76,13.67,28.64,30.68,35.54,40.71,13.22,19.23-6.16,49.13-21.49,63.46-5.33,4.99-13.76,8.2-25.78,9.81-.92,.12-1.85,.24-2.79,.34-2.2,.24-4.54,.43-6.96,.56-.46,.03-.92,.05-1.38,.07-1.75,.08-3.58,.14-5.43,.16-.89,.01-1.77,.02-2.63,.02Z"/><path class="b" d="M101.01,238.08c-.86,0-1.72,0-2.55-.02-9.65-.12-17.4-.9-19.58-1.14-.99,.07-2.07,.1-3.24,.1-17.41,0-50.6-6.75-64.54-32.03-7.35-13.34-10.38-28.29-8.52-42.1,1.87-13.9,8.66-25.28,18.62-31.23,3.1-1.85,6.21-3.56,9.21-5.22,13.52-7.45,25.19-13.88,29.1-28.83,.32-1.23,.58-2.39,.78-3.49-.44-.36-.85-.74-1.23-1.12-4.15-4.26-3.47-7.97-2.7-9.81,.19-.44,.41-.86,.67-1.25-.26-.52-.48-1.09-.64-1.7-.28-1.09-.35-2.19-.19-3.26-.14-.2-.29-.4-.43-.6-2.19-3.03-4.67-6.46-6.59-11.26-1.55-3.87-7.5-8.57-12.75-12.72-4.9-3.87-9.52-7.53-12.58-11.64-6.08-8.2-2.9-14.67-.47-17.79,4.41-5.65,10.33-8.64,17.13-8.64s12.84,2.96,16.11,4.55c.5,.24,.93,.45,1.29,.61,2.9,1.29,5.09,4.12,7.24,7.66-1.3-14.32,4.36-18.94,6.2-20.04,.7-.42,1.47-.69,2.27-.8,1.47-.2,2.91-.3,4.29-.3,6.62,0,12.32,2.39,16.48,6.9,3.46,3.76,5.45,8.49,6.57,13.01C115.28,9.85,126.52,2,135.16,2c3.39,0,9.54,1.21,13.05,9.25,1.2,2.19,3.66,8.55-.09,19.36-4.68,13.49-17.29,29.19-37.51,46.72,4.65,.5,9.92,1.48,14.27,3.33,5.97,2.55,10.73,5.54,13.05,7.1,6.21,4.19,7.68,6.51,8.05,8.91,.19,1.24,.6,5.54-2.07,8.65-1.51,1.76-3.64,2.73-5.99,2.73-1.29,0-2.64-.3-3.99-.89-.86-.37-1.71-.89-2.66-1.53,1.54,2.89,2.7,5.85,3.18,8.72,.07,.42,.1,.85,.08,1.28-.14,3.03-1.15,5.52-2.75,7.17,.05,.05,.1,.1,.14,.15,12.76,13.67,28.64,30.68,35.54,40.71,13.22,19.23-6.16,49.13-21.49,63.46-5.33,4.99-13.76,8.2-25.78,9.81-.92,.12-1.85,.24-2.79,.34-2.2,.24-4.54,.43-6.96,.56-.46,.03-.92,.05-1.38,.07-1.75,.08-3.58,.14-5.43,.16-.89,.01-1.77,.02-2.63,.02Z"/><g><path class="g" d="M78.99,230.9s48,5.76,62.88-8.16c14.88-13.92,31.2-40.32,20.64-55.68-10.56-15.36-44.16-48.96-51.36-58.08-7.2-9.12-17.76-24-8.64-32.64,9.12-8.64,48.48-42.72,40.32-62.4-8.16-19.68-36.96,14.88-46.56,26.88,0,0,2.64-31.92-21.84-28.56,0,0-4.8,2.88-3.12,16.08s2.16,17.52-2.16,15.36-9.36-16.8-13.68-18.72-18-10.32-27.36,1.68,21.36,23.04,26.64,36.24c5.28,13.2,16.08,15.12,10.56,36.24-5.52,21.12-23.76,27.36-41.04,37.68-17.28,10.32-22.08,39.6-7.92,65.28,14.16,25.68,51.36,29.76,62.64,28.8Z"/><path class="d" d="M162.51,167.06c-10.56-15.36-44.16-48.96-51.36-58.08-7.2-9.12-18.28-24.58-8.64-32.64,52.8-44.16,40.32-62.4,40.32-62.4,0,0-20.01,12.72-41.52,41.76-4.8,6.48-11.73,26.78-10.44,30.53,5,14.56,27.72,47.71,39.72,85.15,12.3,38.37-52.24,59.57-51.6,59.52,0,0,48,5.76,62.88-8.16,14.88-13.92,31.2-40.32,20.64-55.68Z"/><path class="f" d="M48.27,163.94s6.72-6.48,13.2-9.36c6.48-2.88,11.76-12.96,6-14.4-5.76-1.44-12,.96-15.36,1.44s-12.72-.24-15.6-.96c-2.88-.72-14.88-.48-21.6,12.72-6.72,13.2-1.2,25.2,5.04,36.48,6.24,11.28,18,31.92,37.92,32.4,19.92,.48,13.44-3.6,9.36-8.88-4.08-5.28-22.08-14.64-23.04-25.2s-1.68-19.68,4.08-24.24Z"/><path class="e" d="M65.76,81.86s-7.32-2.76-1.2-7.08c0,0,.72-1.32,4.8,2.28,4.08,3.6,21.72,5.76,23.04,5.76s2.88-5.16,6.84,0c0,0,14.28-.48,23.28,3.36s17.28,9.84,17.52,11.4c.24,1.56,.12,5.76-3.72,4.08s-14.64-12.96-26.28-12.6c0,0,16.56,14.88,18.48,26.28,0,0-.36,7.56-5.28,.84-4.92-6.72-6.48-17.52-22.68-25.8,0,0-1.08,6.6-9.6,6.48-8.52-.12-23.04-3.36-27.6-8.04-4.56-4.68,2.16-4.92,2.88-4.68s10.08,7.8,20.04,7.2,9.96-2.16,10.08-2.64-1.8-.96-5.4-.48c-3.6,.48-21.84-3.24-25.2-6.36Z"/><path class="h" d="M41.31,30.26s18.24,30.72,28.8,34.56c0,0,16.8,20.64-.48,5.76-17.28-14.88-31.68-30.24-33.12-36-1.44-5.76,4.8-4.32,4.8-4.32Z"/><path class="h" d="M83.43,29.42s4.68-10.44-.36-10.8c-5.04-.36-5.4,10.44-5.4,15.48s2.88,28.8,2.52,32.76,.36,6.48,.36,6.48c0,0,4.32-9.72,2.16-20.52s.72-23.4,.72-23.4Z"/><path class="h" d="M91.17,65.78c-2.32,.38-6.12,1.62-1.44-5.58s27.06-36.54,34.98-40.5c7.92-3.96,6.12,5.04,2.52,6.48-3.6,1.44-19.03,14.5-24.18,20.52-3.74,4.37-10.18,18.8-11.88,19.08Z"/></g></svg>