<?xml version="1.0" encoding="UTF-8"?><svg id="a" xmlns="http://www.w3.org/2000/svg" xmlns:xlink="http://www.w3.org/1999/xlink" viewBox="0 0 168.65 217.75"><defs><style>.c{fill:#fff;}.d{opacity:.5;}.e{fill:url(#b);}</style><linearGradient id="b" x1="7.02" y1="106.38" x2="156.63" y2="106.38" gradientTransform="matrix(1, 0, 0, 1, 0, 0)" gradientUnits="userSpaceOnUse"><stop offset="0" stop-color="#c6ba66"/><stop offset=".49" stop-color="#ffffca"/><stop offset="1" stop-color="#c6ba66"/></linearGradient></defs><path class="d" d="M12.02,215.73c-1.64,0-3.18-.81-4.11-2.15-.93-1.35-1.15-3.07-.57-4.61L82.14,10.26c.73-1.95,2.6-3.24,4.68-3.24s3.95,1.29,4.68,3.24l74.81,198.72c.58,1.54,.37,3.26-.57,4.61-.93,1.35-2.47,2.15-4.11,2.15H12.02Z"/><path class="c" d="M7.02,210.73c-1.64,0-3.18-.81-4.11-2.15-.93-1.35-1.15-3.07-.57-4.61L77.14,5.26c.73-1.95,2.6-3.24,4.68-3.24s3.95,1.29,4.68,3.24l74.81,198.72c.58,1.54,.37,3.26-.57,4.61-.93,1.35-2.47,2.15-4.11,2.15H7.02Z"/><polygon class="e" points="7.02 205.73 81.82 7.02 156.63 205.73 7.02 205.73"/></svg>