<?xml version="1.0" encoding="UTF-8"?><svg id="a" xmlns="http://www.w3.org/2000/svg" viewBox="0 0 228.92 227.49"><defs><style>.b{fill:#ca3727;}.c{fill:#fff;}.d{fill:#bc8e60;}.e{opacity:.5;}.f{fill:#a06f35;}.g{fill:#986632;}.h{fill:#715f2b;}.i{fill:#c6996b;}.j{fill:#f6d158;}.k{fill:#e25626;}.l{fill:#7b5226;}.m{fill:#333;}.n{fill:#f5d055;}.o{fill:#c6996c;}.p{fill:#ffd740;}.q{fill:#6f5f2c;}.r{fill:#4e2f13;}.s{fill:#ffd741;}.t{fill:#ac7e4f;}.u{fill:#ffcc05;}.v{fill:#f8ba1e;}.w{fill:#603b16;}.x{fill:#d3ab29;}.y{fill:#ffcc09;}.a`{fill:#1a1a1a;}.aa{fill:#fdcb0a;}.ab{fill:#93792c;}.ac{fill:#fde78c;}</style></defs><path class="e" d="M194.94,226.92c-1.12,0-2.73-.29-4.3-1.56-1.42-.22-2.72-.88-3.77-1.92-.19-.16-.37-.34-.55-.55-.59-.2-1.15-.47-1.68-.83-.96-.65-1.61-1.36-2.06-2.08-.1-.02-.19-.04-.29-.07-.88-.21-1.86-.43-2.88-.78-1.53-.28-2.97-.65-4.37-1.02-.52-.13-1.03-.27-1.55-.4-12.16-3.01-24.31-6.03-36.47-9.05l-68.81-17.1c-.97,1.59-2.29,2.57-2.9,3.02-.26,.19-.72,.53-1.35,.84-.58,1.09-1.36,2.09-2.37,3.04-1.03,.97-2.27,1.64-3.67,1.99-.52,.13-1.05,.19-1.59,.19-2.43,0-4.65-1.33-5.79-3.46-.7-1.32-1.05-2.73-1.04-4.19,0-.46,0-.91,0-1.36-.01-.9-.02-1.83,.03-2.81,.01-.21,0-.45,0-.7-1.11-.41-2.12-1.09-2.95-2-.7-.77-1.22-1.66-1.55-2.6-.51,0-1.02,0-1.53,.02-.65,0-1.29,.02-1.93,.02-.31,0-.63,0-.94,0-1.3-.02-2.4-.18-3.45-.5-1.85-.57-3.32-1.78-4.13-3.4-.82-1.63-.91-3.54-.25-5.38,.64-1.79,1.77-3.27,3.29-4.28,.42-.29,.92-.6,1.49-.91,.49-1.16,1.37-2.4,2.86-3.51,.3-.23,.66-.48,1.07-.73-.2-.84-.43-1.7-.67-2.59-.17-.65-.34-1.29-.51-1.94-4.01-15.78-8.04-31.55-12.07-47.33L13.19,54.04c-.07-.27-.12-.55-.17-.83-.39-1.12-.64-2.19-.86-3.15-.02-.08-.04-.15-.05-.23-.87-.78-1.49-1.77-1.82-2.88-.2-.18-.4-.38-.58-.59-.84-.92-1.63-2.17-1.89-3.72-1.78-2.14-2.05-4.82-.75-7.45-.95-5.96,.29-11.84,3.7-17.5,2.86-4.75,6.65-8.18,11.26-10.18,2.94-1.28,5.88-1.92,8.74-1.92,1.71,0,3.43,.23,5.1,.69,8.07,2.21,11.53,9.72,10.77,15.99-.19,1.6-1.14,3-2.54,3.78-.75,.42-1.58,.62-2.42,.62-.73,0-1.46-.16-2.13-.48-1.29-.61-2.25-1.63-2.86-3.04-.33-.63-.6-1.05-.86-1.35-.82-.93-1.41-1.05-1.93-1.05-.31,0-.67,.05-1.07,.16-3.08,.83-6.05,4.14-6.55,7.28,1.72,1.13,2.4,2.73,2.67,3.81,.69,.74,1.12,1.56,1.38,2.27,.03,.07,.06,.13,.09,.2,.59,.6,.98,1.25,1.24,1.79,.14,.25,.27,.52,.38,.81,.88,.62,1.82,1.09,2.83,1.43,1.51,.49,3.26,.75,5.67,.83,.5,.02,1,.02,1.51,.02,3.39,0,6.82-.36,10.01-.75,4.36-.53,8.71-1.08,13.06-1.64,3.36-.44,6.49-.77,9.56-1,2.89-.22,5.5-.33,7.98-.33,4.76,0,9.06,.4,13.14,1.23,6.81,1.39,12.62,4.83,17.76,10.54,3.49,3.87,6.48,8.05,9.37,12.09l.97,1.35c2.11,2.94,4.12,5.74,6.35,8.3,.26-.02,.52-.04,.78-.04,1.68,0,3.28,.51,4.77,1.52,2.26,1.54,4.56,3.27,7.02,5.29,.7,.57,1.39,1.15,2.07,1.74,3.67-3.67,7.35-7.35,11.02-11.02-1.28-1.29-2.56-2.58-3.84-3.87-.42-.38-1.41-1.27-1.96-2.82-.88-2.49,.34-5.24,2.78-6.26l32.95-13.86c.17-.07,.34-.14,.52-.2,.12-.07,.25-.14,.38-.2,.78-.46,1.68-.71,2.62-.71,1.04,0,2.05,.31,2.92,.89,1.48,.99,2.37,2.77,2.25,4.54-.05,.78-.28,1.53-.66,2.19l-1.13,2.72c-.96,2.32-1.92,4.63-2.89,6.94-2.93,6.98-5.87,13.96-8.8,20.94l-.96,2.27c-.13,.31-.28,.63-.43,.95l-.14,.3c-.83,1.79-2.61,2.9-4.54,2.9-.23,0-.46-.02-.7-.05-2.18-.31-3.39-1.67-3.8-2.13-1.25-1.24-2.49-2.48-3.74-3.73l-.04-.04-11.01,11c2.6,2.99,4.86,5.94,6.92,8.98,1.22,1.81,1.74,3.76,1.56,5.66,2.69,2.33,5.64,4.44,8.73,6.64l1.11,.79c3.19,2.27,6.49,4.62,9.62,7.23,2.51,2.1,4.64,4.18,6.5,6.38,3.18,3.75,5.27,8.23,6.38,13.7,1.07,5.23,1.41,10.95,1.05,17.48-.2,3.55-.52,7.23-1,11.26-.24,2.04-.51,4.08-.78,6.12-.14,1.07-.44,3.39-.44,3.39-.5,3.93-.98,7.65-1.22,11.42-.12,1.84-.16,3.5-.13,5.08,.03,1.44,.19,2.92,.49,4.52,.27,1.44,.84,2.78,1.78,4.13,.45,.16,.89,.38,1.3,.65,.46,.26,.88,.57,1.24,.92,.39,.14,.77,.32,1.14,.55,.36,.2,.79,.48,1.22,.86,.44,.12,.88,.29,1.29,.51,.85,.38,1.87,1.06,2.67,2.25,1.35-.16,3.17-.8,5.36-3.14,1.16-1.25,1.83-2.53,2.05-3.94,.14-.89,.03-1.54-.95-2.42-.33-.3-.78-.59-1.37-.89-.44-.19-1.52-.66-2.5-1.77-1.19-1.34-1.57-3.22-.99-4.92s2.02-2.96,3.78-3.3c.62-.12,1.27-.18,1.93-.18,1.29,0,2.38,.23,3.26,.41,6.97,1.47,11.55,6.87,11.98,14.11,.42,7.06-2.27,13.41-7.77,18.36-4.24,3.82-9.15,6.14-14.6,6.91-1.15,.16-2.32,.24-3.48,.24-1.21,0-2.43-.09-3.64-.27-1.02,.53-2.09,.8-3.2,.8Zm-115.21-45.96c12.95,3.23,25.91,6.45,38.87,9.66l56.04,13.91c-.33-1.25-.6-2.55-.8-3.92-.71-4.88-.54-9.57-.31-13.12,.29-4.5,.86-8.95,1.41-13.27,.2-1.57,.4-3.14,.59-4.71,.39-3.28,.78-6.78,.99-10.22,.16-2.57,.19-4.65,.12-6.55-.15-4.06-.73-7.29-1.81-10.17-.95-2.53-2.57-4.3-5.07-5.56-2.37-1.19-5.03-1.91-7.54-2.5-1.36-.32-2.72-.61-4.08-.9-2.48-.53-5.04-1.08-7.61-1.81-2.82-.8-6.43-1.99-9.89-4.12-.69,.15-1.36,.22-2.03,.22-4.48,0-6.88-3.39-7.66-4.51-1.15-1.63-2.55-3.58-4.15-5.55-12.77,12.79-25.55,25.57-38.34,38.34,.3,4.21,.21,8.35,.11,12.36-.08,3.58-2.5,7.1-5.77,8.71-.67,1.29-1.6,2.45-2.77,3.46-.08,.07-.18,.16-.3,.26ZM27.79,58.39c2.79,10.97,5.59,21.95,8.39,32.92l15.82,61.97c.89-1.2,2.13-2.2,3.71-2.99,1.6-3.42,4.84-5.56,8.84-5.78,1.56-.08,3.19-.12,5.14-.12,1.58,0,3.15,.03,4.73,.05l1.68,.03c.38,0,.73,.03,1.06,.07,12.7-12.71,25.4-25.41,38.11-38.11-1.42-1.13-2.88-2.23-4.4-3.37l-1-.75c-1.21-.92-4.91-3.7-4.39-8.88,.02-.24,.05-.49,.1-.75-1.3-2.1-2.39-4.48-3.36-7.33-1.15-3.4-1.88-6.81-2.59-10.11l-.42-1.95c-.69-3.11-1.34-5.89-2.41-8.45-1.19-2.86-2.62-4.61-4.62-5.67-1.22-.65-2.63-1.16-4.3-1.57-2.75-.67-5.72-.98-9.33-.98-.36,0-.73,0-1.1,0-3.22,.05-6.75,.32-10.79,.8-1.58,.19-3.17,.38-4.75,.58-3.9,.48-7.93,.97-11.92,1.41-3.47,.38-6.61,.56-9.58,.56-1.07,0-2.14-.02-3.18-.07-3.14-.15-5.94-.56-8.55-1.25-.3-.08-.59-.16-.89-.25Z"/><path class="c" d="M189.94,221.92c-1.12,0-2.73-.29-4.3-1.56-1.42-.22-2.72-.88-3.77-1.92-.19-.16-.37-.34-.55-.55-.59-.2-1.15-.47-1.68-.83-.96-.65-1.61-1.36-2.06-2.08-.1-.02-.19-.04-.29-.07-.88-.21-1.86-.43-2.88-.78-1.53-.28-2.97-.65-4.37-1.02-.52-.13-1.03-.27-1.55-.4-12.16-3.01-24.31-6.03-36.47-9.05l-68.81-17.1c-.97,1.59-2.29,2.57-2.9,3.02-.26,.19-.72,.53-1.35,.84-.58,1.09-1.36,2.09-2.37,3.04-1.03,.97-2.27,1.64-3.67,1.99-.52,.13-1.05,.19-1.59,.19-2.43,0-4.65-1.33-5.79-3.46-.7-1.32-1.05-2.73-1.04-4.19,0-.46,0-.91,0-1.36-.01-.9-.02-1.83,.03-2.81,.01-.21,0-.45,0-.7-1.11-.41-2.12-1.09-2.95-2-.7-.77-1.22-1.66-1.55-2.6-.51,0-1.02,0-1.53,.02-.65,0-1.29,.02-1.93,.02-.31,0-.63,0-.94,0-1.3-.02-2.4-.18-3.45-.5-1.85-.57-3.32-1.78-4.13-3.4-.82-1.63-.91-3.54-.25-5.38,.64-1.79,1.77-3.27,3.29-4.28,.42-.29,.92-.6,1.49-.91,.49-1.16,1.37-2.4,2.86-3.51,.3-.23,.66-.48,1.07-.73-.2-.84-.43-1.7-.67-2.59-.17-.65-.34-1.29-.51-1.94-4.01-15.78-8.04-31.55-12.07-47.33L8.19,49.04c-.07-.27-.12-.55-.17-.83-.39-1.12-.64-2.19-.86-3.15-.02-.08-.04-.15-.05-.23-.87-.78-1.49-1.77-1.82-2.88-.2-.18-.4-.38-.58-.59-.84-.92-1.63-2.17-1.89-3.72-1.78-2.14-2.05-4.82-.75-7.45-.95-5.96,.29-11.84,3.7-17.5,2.86-4.75,6.65-8.18,11.26-10.18,2.94-1.28,5.88-1.92,8.74-1.92,1.71,0,3.43,.23,5.1,.69,8.07,2.21,11.53,9.72,10.77,15.99-.19,1.6-1.14,3-2.54,3.78-.75,.42-1.58,.62-2.42,.62-.73,0-1.46-.16-2.13-.48-1.29-.61-2.25-1.63-2.86-3.04-.33-.63-.6-1.05-.86-1.35-.82-.93-1.41-1.05-1.93-1.05-.31,0-.67,.05-1.07,.16-3.08,.83-6.05,4.14-6.55,7.28,1.72,1.13,2.4,2.73,2.67,3.81,.69,.74,1.12,1.56,1.38,2.27,.03,.07,.06,.13,.09,.2,.59,.6,.98,1.25,1.24,1.79,.14,.25,.27,.52,.38,.81,.88,.62,1.82,1.09,2.83,1.43,1.51,.49,3.26,.75,5.67,.83,.5,.02,1,.02,1.51,.02,3.39,0,6.82-.36,10.01-.75,4.36-.53,8.71-1.08,13.06-1.64,3.36-.44,6.49-.77,9.56-1,2.89-.22,5.5-.33,7.98-.33,4.76,0,9.06,.4,13.14,1.23,6.81,1.39,12.62,4.83,17.76,10.54,3.49,3.87,6.48,8.05,9.37,12.09l.97,1.35c2.11,2.94,4.12,5.74,6.35,8.3,.26-.02,.52-.04,.78-.04,1.68,0,3.28,.51,4.77,1.52,2.26,1.54,4.56,3.27,7.02,5.29,.7,.57,1.39,1.15,2.07,1.74,3.67-3.67,7.35-7.35,11.02-11.02-1.28-1.29-2.56-2.58-3.84-3.87-.42-.38-1.41-1.27-1.96-2.82-.88-2.49,.34-5.24,2.78-6.26l32.95-13.86c.17-.07,.34-.14,.52-.2,.12-.07,.25-.14,.38-.2,.78-.46,1.68-.71,2.62-.71,1.04,0,2.05,.31,2.92,.89,1.48,.99,2.37,2.77,2.25,4.54-.05,.78-.28,1.53-.66,2.19l-1.13,2.72c-.96,2.32-1.92,4.63-2.89,6.94-2.93,6.98-5.87,13.96-8.8,20.94l-.96,2.27c-.13,.31-.28,.63-.43,.95l-.14,.3c-.83,1.79-2.61,2.9-4.54,2.9-.23,0-.46-.02-.7-.05-2.18-.31-3.39-1.67-3.8-2.13-1.25-1.24-2.49-2.48-3.74-3.73l-.04-.04-11.01,11c2.6,2.99,4.86,5.94,6.92,8.98,1.22,1.81,1.74,3.76,1.56,5.66,2.69,2.33,5.64,4.44,8.73,6.64l1.11,.79c3.19,2.27,6.49,4.62,9.62,7.23,2.51,2.1,4.64,4.18,6.5,6.38,3.18,3.75,5.27,8.23,6.38,13.7,1.07,5.23,1.41,10.95,1.05,17.48-.2,3.55-.52,7.23-1,11.26-.24,2.04-.51,4.08-.78,6.12-.14,1.07-.44,3.39-.44,3.39-.5,3.93-.98,7.65-1.22,11.42-.12,1.84-.16,3.5-.13,5.08,.03,1.44,.19,2.92,.49,4.52,.27,1.44,.84,2.78,1.78,4.13,.45,.16,.89,.38,1.3,.65,.46,.26,.88,.57,1.24,.92,.39,.14,.77,.32,1.14,.55,.36,.2,.79,.48,1.22,.86,.44,.12,.88,.29,1.29,.51,.85,.38,1.87,1.06,2.67,2.25,1.35-.16,3.17-.8,5.36-3.14,1.16-1.25,1.83-2.53,2.05-3.94,.14-.89,.03-1.54-.95-2.42-.33-.3-.78-.59-1.37-.89-.44-.19-1.52-.66-2.5-1.77-1.19-1.34-1.57-3.22-.99-4.92s2.02-2.96,3.78-3.3c.62-.12,1.27-.18,1.93-.18,1.29,0,2.38,.23,3.26,.41,6.97,1.47,11.55,6.87,11.98,14.11,.42,7.06-2.27,13.41-7.77,18.36-4.24,3.82-9.15,6.14-14.6,6.91-1.15,.16-2.32,.24-3.48,.24-1.21,0-2.43-.09-3.64-.27-1.02,.53-2.09,.8-3.2,.8Zm-115.21-45.96c12.95,3.23,25.91,6.45,38.87,9.66l56.04,13.91c-.33-1.25-.6-2.55-.8-3.92-.71-4.88-.54-9.57-.31-13.12,.29-4.5,.86-8.95,1.41-13.27,.2-1.57,.4-3.14,.59-4.71,.39-3.28,.78-6.78,.99-10.22,.16-2.57,.19-4.65,.12-6.55-.15-4.06-.73-7.29-1.81-10.17-.95-2.53-2.57-4.3-5.07-5.56-2.37-1.19-5.03-1.91-7.54-2.5-1.36-.32-2.72-.61-4.08-.9-2.48-.53-5.04-1.08-7.61-1.81-2.82-.8-6.43-1.99-9.89-4.12-.69,.15-1.36,.22-2.03,.22-4.48,0-6.88-3.39-7.66-4.51-1.15-1.63-2.55-3.58-4.15-5.55-12.77,12.79-25.55,25.57-38.34,38.34,.3,4.21,.21,8.35,.11,12.36-.08,3.58-2.5,7.1-5.77,8.71-.67,1.29-1.6,2.45-2.77,3.46-.08,.07-.18,.16-.3,.26ZM22.79,53.39c2.79,10.97,5.59,21.95,8.39,32.92l15.82,61.97c.89-1.2,2.13-2.2,3.71-2.99,1.6-3.42,4.84-5.56,8.84-5.78,1.56-.08,3.19-.12,5.14-.12,1.58,0,3.15,.03,4.73,.05l1.68,.03c.38,0,.73,.03,1.06,.07,12.7-12.71,25.4-25.41,38.11-38.11-1.42-1.13-2.88-2.23-4.4-3.37l-1-.75c-1.21-.92-4.91-3.7-4.39-8.88,.02-.24,.05-.49,.1-.75-1.3-2.1-2.39-4.48-3.36-7.33-1.15-3.4-1.88-6.81-2.59-10.11l-.42-1.95c-.69-3.11-1.34-5.89-2.41-8.45-1.19-2.86-2.62-4.61-4.62-5.67-1.22-.65-2.63-1.16-4.3-1.57-2.75-.67-5.72-.98-9.33-.98-.36,0-.73,0-1.1,0-3.22,.05-6.75,.32-10.79,.8-1.58,.19-3.17,.38-4.75,.58-3.9,.48-7.93,.97-11.92,1.41-3.47,.38-6.61,.56-9.58,.56-1.07,0-2.14-.02-3.18-.07-3.14-.15-5.94-.56-8.55-1.25-.3-.08-.59-.16-.89-.25Z"/><g><path class="b" d="M161.59,65.36c-.3,.32-.6,.64-.91,.95-5.34,5.34-10.69,10.67-16.03,16.01-.28,.28-.54,.59-.81,.89-.11,.48-.34,.87-.69,1.22-1.83,1.8-3.61,3.64-5.45,5.42-1.69,1.69-3.36,3.41-5.08,5.08-2.05,2.07-4.1,4.13-6.16,6.18-.64,.64-1.27,1.31-1.97,1.89-.3,.46-.82,.71-1.13,1.17-.31,.45-.86,.67-1.14,1.17-14.73,14.75-29.47,29.5-44.22,44.22-.81,.67-1.42,1.56-2.27,2.19-.85,.9-1.67,1.85-2.64,2.64-.66,.67-1.23,1.43-1.99,2-.85,.9-1.66,1.85-2.63,2.63-.66,.67-1.23,1.43-1.99,2-.85,.9-1.66,1.85-2.63,2.63-.6,.59-1.1,1.27-1.75,1.82-1.02,.88-1.79,2-2.87,2.81-.6,.6-1.1,1.27-1.75,1.82-.99,.9-1.82,1.98-2.87,2.82-.57,.63-1.13,1.27-1.78,1.81-.65,.63-1.22,1.33-1.89,1.93-.3,.27-.59,.54-1.02,.58-.11-.01-.2-.05-.29-.12-.24-.27-.24-.59-.26-.92-.11-1.56-.88-2.31-2.43-2.35-.33,0-.66,.05-.94-.18-.16-.19-.12-.4-.04-.61,.66-1,1.57-1.76,2.44-2.56,.66-.82,1.46-1.49,2.22-2.21,.72-.9,1.58-1.64,2.42-2.42,.6-.87,1.54-1.4,2.17-2.24,.78-.84,1.61-1.62,2.45-2.39,.6-.87,1.54-1.4,2.17-2.24,.77-.85,1.63-1.59,2.42-2.42,.65-.83,1.57-1.38,2.2-2.21,.76-.85,1.63-1.59,2.42-2.42,.61-.72,1.35-1.31,2.02-1.97,.73-.88,1.56-1.67,2.42-2.43,.72-.91,1.65-1.61,2.4-2.49,14.43-14.43,28.85-28.86,43.29-43.29,.31-.31,.64-.6,.97-.89,.34-.43,.74-.8,1.16-1.15,.35-.41,.75-.78,1.14-1.16,2.56-2.69,5.23-5.28,7.87-7.9,1.68-1.71,3.34-3.43,5.1-5.06,1.79-1.95,3.71-3.76,5.58-5.63,.29-.29,.61-.55,1.06-.46,.36-.13,.58-.44,.84-.69,5.48-5.47,10.95-10.95,16.43-16.43,.26-.26,.48-.55,.72-.82,.29-.38,.5,0,.65,.13,.52,.43,.99,.92,1.41,1.46,.63,.68,1.64,1.07,1.65,2.21Z"/><path class="g" d="M153.54,99.67c3.56,3.48,7.6,6.34,11.63,9.22,3.47,2.47,6.95,4.92,10.22,7.65,2.12,1.77,4.1,3.66,5.89,5.77,2.83,3.34,4.43,7.23,5.3,11.46,1.09,5.36,1.26,10.76,.96,16.21-.2,3.66-.54,7.31-.97,10.95-.36,3.09-.79,6.18-1.19,9.27-.51,3.96-1.02,7.93-1.27,11.92-.12,1.83-.18,3.66-.14,5.5,.03,1.8,.24,3.58,.58,5.35,.59,3.13,2.11,5.76,4.19,8.11,.2,.17,.21,.4,.09,.59-.6,.99-.84,2.26-2.11,2.73-1.2-.22-1.65-1.3-2.27-2.11-2.31-3.02-3.52-6.46-3.87-10.25-.37-4.1-.2-8.19,.19-12.28,.62-6.63,1.68-13.21,2.42-19.83,.38-3.34,.57-6.71,.78-10.07,.29-4.79-.06-9.51-.93-14.2-.8-4.31-2.6-8.12-5.54-11.43-2.95-3.32-6.43-5.98-9.96-8.6-4.36-3.23-8.92-6.17-13.11-9.64-1.21-1-2.47-1.96-3.44-3.23-.07-1.4,1.34-3.11,2.54-3.09Z"/><path class="g" d="M22.14,34.49c1.77,1.71,3.8,2.98,6.14,3.74,2.29,.75,4.67,.99,7.05,1.07,4.12,.14,8.21-.26,12.3-.76,4.37-.53,8.74-1.08,13.1-1.65,3.09-.4,6.19-.74,9.3-.98,6.61-.51,13.19-.51,19.74,.82,6.09,1.24,10.94,4.44,15.04,8.99,3.67,4.08,6.8,8.57,9.99,13.01,2.74,3.82,5.48,7.64,8.79,11,.07,.13,.13,.27,.09,.42-.28,.91-2.13,2.17-3.15,2.13-2.27-1.9-3.98-4.3-5.75-6.63-3.55-4.67-6.72-9.62-10.42-14.17-3.07-3.77-6.36-7.31-10.87-9.41-3.02-1.41-6.26-2.04-9.54-2.46-3.09-.39-6.21-.6-9.32-.44-4.02,.21-8.03,.5-12.03,.99-4.25,.52-8.5,1.09-12.74,1.64-3.34,.43-6.69,.83-10.05,1-5.09,.26-10.21,.36-15.06-1.68-2.08-.88-3.88-2.21-5.59-3.66-.26-.22-.44-.49-.49-.84-.01-.27,.06-.53,.28-.67,.81-.53,1.61-1.07,2.47-1.51,.24-.12,.49-.1,.72,.05Z"/><path class="r" d="M153.54,99.67c-.26,.05-.45,.19-.61,.4-.62,.83-1.25,1.65-1.87,2.48,.08,.81-.56,1.22-.95,1.77-.25,.36-.69,.55-.89,.96-1.26,1.53-2.54,3.04-4,4.38-2.27,2.08-4.54,4.17-7,6.03-.29,.22-.56,.47-.9,.62-.33,.14-.58,.4-.83,.65-.12,.11-.23,.22-.37,.3-2.78,1.19-4.32,.74-6.08-1.76-2.23-3.16-4.55-6.25-7.17-9.12-.36-.4-.76-.8-.85-1.38,.32-.42,.7-.78,1.13-1.09,.88-.43,1.29,.29,1.7,.78,1.71,2.01,3.39,4.05,4.9,6.21,.44,.63,.88,1.26,1.35,1.87,1.16,1.54,2.49,1.75,4.09,.74,4.01-2.51,7.2-5.84,9.86-9.73,.9-1.31,.91-2.5,.03-3.75-1.73-2.46-3.53-4.86-5.52-7.12-.61-.69-1.16-1.41-1.81-2.07-.32-.33-.68-.72-.3-1.25,2.06-2.21,4.21-4.32,6.39-6.41,.82,.93,1.64,1.86,2.46,2.79,2.57,2.91,4.96,5.94,7.13,9.16,.86,1.27,1.04,2.56,.18,3.9-.13,.2-.18,.39-.07,.61Z"/><path class="r" d="M120.72,72.21c.99-.79,2.14-1.39,2.88-2.48,.31,.03,.56-.11,.82-.25,1.22-.62,2.39-.52,3.52,.25,2.3,1.56,4.51,3.25,6.66,5.02,1.47,1.21,2.9,2.45,4.34,3.69,.36,.31,.73,.62,.94,1.06-1.1,1.33-2.4,2.46-3.6,3.69-.9,.92-1.83,1.79-2.75,2.69-.54,.17-.91-.15-1.27-.47-2.91-2.58-5.92-5.03-9.14-7.23-1.41-.96-2.3-.93-3.72,.04-3.73,2.56-6.89,5.69-9.44,9.43-1.28,1.88-1.06,3.37,.79,4.71,2.73,1.98,5.42,4.02,7.97,6.24,.41,.36,.88,.71,.68,1.38-.31,.41-.66,.78-1.08,1.08-.49,.19-.85-.07-1.18-.38-2.92-2.67-6.1-5.01-9.25-7.39-1.45-1.09-2.63-2.36-2.42-4.39,.06-.63,.17-1.23,.55-1.75,.14-.22,.35-.4,.47-.64,.09-.19,.23-.35,.36-.51,3.19-4.29,6.76-8.22,10.8-11.71,.11-.1,.24-.17,.37-.24,.55-.37,.9-.95,1.44-1.34,.39-.28,.74-.62,1.28-.52Z"/><path class="x" d="M161.59,65.36l-1.84-2.01c-.07-.55,.31-.88,.65-1.21,7.25-7.27,14.52-14.52,21.78-21.79,.47-.47,1.11-.71,1.49-1.28,.1-.18,.28-.19,.45-.23,.12-.06,.22-.04,.31,.07-1.41,3.38-2.81,6.77-4.22,10.14-3.25,7.74-6.5,15.47-9.76,23.2-.15,.36-.33,.72-.5,1.08-.46-.06-.65-.41-.9-.66-2.21-2.2-4.41-4.41-6.62-6.61-.26-.26-.47-.57-.83-.7Z"/><path class="u" d="M183.66,39.08c.11,.12,.15,.26,.03,.39-.2,.22-.4,.43-.61,.64-7.51,7.5-15.01,15.01-22.52,22.51-.26,.26-.54,.49-.81,.74-.62-.6-1.25-1.19-1.87-1.79-2.43-2.45-4.87-4.89-7.3-7.35-.28-.28-.63-.5-.79-.96,1.32-.56,2.64-1.11,3.95-1.66,9.66-4.06,19.33-8.13,28.99-12.19,.3-.13,.62-.22,.93-.33Z"/><path class="a`" d="M50.84,168.53c-.66,.8-1.39,1.53-2.19,2.19-2.12,.03-4.23,.08-6.35-.11-2.08-.19-4.17-.1-6.25-.04-.15,0-.29,.04-.43,.09-.49,.22-1.18,.37-1.05,1.06,.11,.6,.76,.42,1.21,.46,3.03,.25,6.06,.23,9.09,.25,.54,0,1.23-.14,1.34,.73l-.23,.4c-.02,.21-.15,.33-.33,.4-.09,.02-.18,.01-.27-.01-.08-.03-.17-.07-.26-.09-3.13-.5-6.29-.24-9.44-.29-.7-.01-1.39-.08-2.06-.28-1.11-.34-1.54-1.22-1.15-2.33,.26-.74,.69-1.36,1.36-1.81,.7-.47,1.43-.9,2.25-1.14,.56-.16,.84-.44,.87-1.07,.04-1.02,.67-1.77,1.45-2.35,.7-.53,1.46-.99,2.34-1.17,.54-.12,.8-.41,.83-.98,.02-.51,.16-1.01,.25-1.51,.27-.7,.69-1.27,1.41-1.57,.4-.43,.96-.53,1.46-.75,.58-.29,.94-.69,1.1-1.39,.39-1.71,1.72-2.6,3.22-3.19,.78-.31,1.24-.66,1.46-1.55,.36-1.51,1.59-2.34,2.93-2.92,.83-.36,1.34-.83,1.66-1.71,.8-2.16,2.62-3.22,4.76-3.34,3.73-.2,7.48-.09,11.22-.04,.69,0,1.37,.2,2.07,.26,.41,.04,.78,.22,.94,.66-.78,.86-1.58,1.71-2.48,2.45-3.88-.04-7.75-.36-11.64-.22-.66,.02-1.33,0-1.91,.39-.28,.19-.56,.41-.46,.79,.08,.34,.39,.41,.69,.45,.26,.03,.51,.04,.77,.03,2.93-.1,5.85,.34,8.78,.25,.53-.02,1.24-.14,1.34,.72-.6,.72-1.25,1.38-1.97,1.97-.59,.26-1.22,.28-1.84,.21-3.48-.39-6.97-.1-10.45-.17-.6-.01-1.18,.09-1.64,.51-.46,.43-.35,.88,.25,1.06,.39,.11,.8,.09,1.2,.08,2.94-.13,5.86,.21,8.79,.24,.47,0,.98-.03,1.25,.49-.66,.81-1.4,1.54-2.2,2.21-.75,.41-1.51,0-2.27,.01-2.31,.02-4.62,.01-6.93,0-.84,0-1.68,.01-2.52-.14-.67-.12-1.31,.07-1.9,.42-.32,.19-.66,.41-.58,.85,.08,.46,.49,.48,.86,.52,.29,.03,.59,.02,.88,.03,2.89,.04,5.79-.13,8.68,.23,.5,.06,1.05-.07,1.36,.5-.66,.81-1.41,1.54-2.21,2.22-.8,.24-1.6,0-2.4,0-2.96,.01-5.93,.08-8.89-.2-.73-.07-1.47,0-2.15,.33-.4,.2-.82,.44-.71,.98,.11,.49,.56,.53,.97,.55,1.9,.06,3.81,.02,5.71,.03,1.1,0,2.2-.03,3.3,.03,.65,.03,1.32,.07,1.75,.7-.67,.81-1.41,1.54-2.21,2.22-2.63,.05-5.27,.12-7.89-.09-1.5-.12-3-.1-4.5-.06-.29,0-.58,.1-.85,.21-.41,.16-.9,.34-.88,.86,.02,.63,.61,.51,1.02,.57,3.06,.43,6.14,.09,9.21,.23,.56,.02,1.32-.21,1.45,.73Z"/><path class="a`" d="M66.25,160.78c.58-.74,1.25-1.39,1.98-1.99,.74,.08,.69,.68,.68,1.16-.06,2.75,.38,5.48,.25,8.23,0,.18-.02,.37,0,.55,.07,.51-.19,1.3,.56,1.34,.76,.05,1.01-.72,1.03-1.33,.09-3.11,.2-6.22-.05-9.33-.09-1.1-.21-2.19,.18-3.26,.59-.74,1.25-1.39,1.98-1.99,.56,0,.61,.43,.66,.83,.06,.47,.06,.95,.04,1.43-.13,2.68,.27,5.33,.24,8.01,0,.42-.05,.98,.55,1.04,.52,.05,.73-.42,.9-.83,.23-.52,.18-1.08,.19-1.63,.07-3.18-.05-6.36-.22-9.54-.03-.66,.03-1.32,.27-1.95,.66-.81,1.41-1.54,2.2-2.21,.48,.18,.62,.58,.66,1.04,.4,4.35,.3,8.71,.2,13.07-.05,2.05-1.87,4.16-3.79,4.64-.58,.15-.86,.48-1.04,1-.39,1.14-1.07,2.07-1.98,2.86-.28,.24-.56,.55-.91,.58-1.18,.1-1.6,.92-2.04,1.85-.7,1.47-1.71,2.64-3.41,3.01-.53,.11-.74,.56-.96,.98-.16,.54-.37,1.04-.75,1.46-.33,.68-.89,1.11-1.55,1.43-.15,.02-.29,.04-.44,.05-1.23,.07-2.08,.47-2.4,1.86-.24,1.04-1.1,1.81-1.96,2.45-.38,.28-.83,.58-1.31,.5-.71-.11-.89,.29-1.02,.82-.3,1.18-.97,2.12-1.84,2.94-.42,.39-.9,.64-1.44,.77-.71,.17-1.43-.13-1.77-.78-.3-.56-.46-1.15-.45-1.8,.01-1.32-.05-2.65,.01-3.96,.09-1.73-.28-3.43-.24-5.16,0-.36-.09-.66-.48-.76-.04-.67,.29-1,.94-1.05,.07,0,.14-.01,.21-.02,.81,.1,.67,.76,.68,1.27,.05,2.23,.03,4.47,.02,6.71,0,.89,.13,1.75,.24,2.62,.04,.29,.07,.62,.41,.71,.39,.1,.61-.18,.8-.46,.23-.34,.38-.72,.4-1.13,.06-1.54,.12-3.07-.04-4.61-.24-2.34-.13-4.68-.08-7.02,0-.26,.06-.51,.22-.73,.52-.66,1.11-1.24,1.77-1.77,.95,.08,.89,.83,.91,1.47,.05,2.49,.01,4.98,.02,7.47,0,.44-.01,.88,.04,1.32,.04,.37,.12,.77,.54,.87,.48,.11,.73-.26,.93-.61,.33-.56,.41-1.18,.36-1.81-.29-3.39-.17-6.8-.23-10.2,0-.48-.01-.95,.28-1.37,.52-.66,1.12-1.24,1.77-1.77,.67,.06,.62,.6,.7,1.05,.42,2.44,.15,4.9,.23,7.35,.02,.66-.02,1.32,.04,1.98,.03,.38,.12,.77,.56,.84,.44,.07,.65-.27,.82-.6,.31-.59,.51-1.23,.43-1.9-.37-3.03-.12-6.08-.17-9.12-.01-.82-.33-1.69,.25-2.45,.53-.65,1.12-1.24,1.77-1.77,.84,.15,.64,.84,.69,1.38,.27,2.81,.23,5.64,.25,8.46,0,.54-.21,1.38,.62,1.4,.75,.02,.96-.77,.97-1.39,.09-3.52,.14-7.04-.03-10.56-.03-.67-.1-1.31,.14-1.94Z"/><path class="p" d="M43.32,159.66c-.52,.39-.86,1-1.5,1.25-.44-2.31-1.1-4.56-1.68-6.83-4.67-18.36-9.35-36.71-14.04-55.06-4.36-17.07-8.72-34.15-13.07-51.22-.07-.28-.1-.57-.15-.86-.29-1.45-.71-2.87-1.04-4.32-.25-1.1-.18-1.25,.97-1.58,.13,.01,.25,.05,.36,.12,.1,.08,.19,.17,.24,.28,1.62,4.76,2.64,9.68,3.89,14.54,2.84,11,5.62,22.02,8.43,33.03,2.71,10.62,5.41,21.24,8.13,31.86,2.74,10.69,5.47,21.38,8.18,32.07,.43,1.71,.88,3.41,1.32,5.11,.14,.56,.18,1.08-.06,1.61Z"/><path class="p" d="M62.13,181.23c.18-.69,.84-.99,1.23-1.51,.56-.35,1.13-.17,1.7-.02,11.72,2.87,23.41,5.82,35.13,8.71,12.96,3.2,25.89,6.48,38.85,9.65,11.01,2.69,21.98,5.5,32.99,8.21,2.88,.71,5.79,1.29,8.61,2.25,.75,.38,1.41,.83,1.54,1.75-.19,.63-.6,.42-1.05,.32-1.82-.41-3.6-1-5.46-1.28-2.03-.34-4-.92-5.99-1.42-16.19-4.01-32.37-8.03-48.55-12.05-14.65-3.64-29.31-7.28-43.96-10.92-4.8-1.19-9.6-2.39-14.4-3.58-.21-.05-.43-.06-.65-.09Z"/><path class="g" d="M7.36,31.2c-1.42-5.7-.3-11,2.68-15.94,2.17-3.6,5.05-6.47,8.97-8.17,3.4-1.48,6.9-1.99,10.53-1,5.68,1.56,7.58,6.83,7.13,10.57-.31-.15-.37-.45-.49-.7-.46-.88-.96-1.73-1.62-2.48-2.18-2.48-4.88-3.26-8.05-2.41-5.09,1.37-9.53,6.38-10.23,11.58-.13,.98-.13,1.98,.05,2.96,.19,1.05,.19,1.05,1.21,1.36-.06,.13-.14,.3-.27,.31-1.3,.16-2.54,.72-3.89,.58-.53-.32-.65-.83-.7-1.41-.34-3.8,.78-7.18,3.01-10.2,1.97-2.68,4.49-4.69,7.61-5.93,1.98-.78,3.96-1.01,6.01-.42,.14,.05-.04-.03,.1,.01,.11,.03,.18,.11,.28,.13-.1-.02-.16-.11-.26-.13-2.51-.56-5-1.02-7.6-.41-4.21,.99-7.43,3.32-9.92,6.78-2.92,4.06-4.23,8.56-3.76,13.55,.03,.33,.04,.66-.05,.98-.16,.28-.36,.51-.74,.37Z"/><path class="g" d="M196.32,205.74c.13,.76,.6,1.02,1.35,1.11,4.69,.57,8.36-1.38,11.43-4.68,1.73-1.85,2.93-4.02,3.33-6.58,.43-2.78-.49-5.05-2.54-6.9-.74-.67-1.58-1.19-2.47-1.64-.32-.16-.69-.25-1.01-.61,1.15-.22,2.21,0,3.25,.22,4.99,1.05,7.7,4.75,7.98,9.51,.34,5.76-1.87,10.52-6.13,14.35-3.41,3.07-7.38,5.03-11.95,5.67-2.23,.31-4.46,.25-6.68-.19-.29-.06-.58-.11-.86-.16-.04-.27,.07-.47,.28-.62,.86-.26,1.71-.2,2.6-.13,2.65,.22,5.18-.4,7.61-1.38,4.16-1.68,7.6-4.29,9.76-8.3,1.61-2.98,2.31-6.16,1.53-9.55-.08-.36-.09-.73-.17-.92,.46,2.56-.42,4.98-1.8,7.21-2.5,4.05-5.95,6.93-10.67,8.06-1.25,.3-2.52,.47-3.81,.36-.69-.06-1.4-.09-1.9-.69-.07-1.46,.09-2.88,.88-4.16Z"/><path class="s" d="M192.37,202.6c.87,.4,1.07,1.16,1.07,2.02,.27,.21,.31,.49,.23,.78-.52,1.78-1.09,3.54-1.96,5.18-.12,.23-.28,.43-.55,.48-.63-.27-.41-.77-.3-1.21,.13-.53,.4-1.03,.35-1.86-1.24,2.27-2.53,4.25-3.85,6.29,.58,.13,1-.27,1.43,.02,.26,.36,.09,.59-.24,.77-.15,.04-.32,.03-.46,.09-1.02,.35-2.01,.52-2.83-.42-.39-.72-.14-1.34,.3-1.92,2.2-2.87,4.27-5.81,5.43-9.29,.2-.62,.61-1.1,1.39-.93Z"/><path class="s" d="M18.48,29.82c.97,.06,1.88,.21,2.18,1.35-.17,.66-.62,1.02-1.26,1.24-3.03,1.06-5.73,2.69-8.2,4.73-.76,.63-1.57,1.39-2.74,.91-.88-.93-.96-1.66-.36-2.92,.11-.03,.2-.02,.29,.05,.25,.53,.5,.82,1.13,.36,1.75-1.27,3.62-2.36,5.66-3.52-1.03,0-1.76,.37-2.52,.67-.45,.17-.95,.54-1.37-.08,0-.4,.29-.56,.58-.72,1.8-.99,3.75-1.61,5.69-2.26,.35-.11,.64-.08,.9,.19Z"/><path class="s" d="M196.32,205.74c.1,1.45-.36,2.8-.69,4.18,.21,1.02-.19,1.77-1.05,2.31-.11,.02-.22,0-.32-.04-.62-.68,.05-1.4-.08-2.21-1.16,1.97-2.24,3.86-3.5,5.63,.28,.39,.78,.11,1,.46-1.17,1.06-2.19,1.13-3.14,.2-.31-.81,.33-1.3,.69-1.84,1.47-2.14,2.85-4.32,3.71-6.79,.29-.82,.5-1.67,.8-2.49,.25-.68,.65-1.13,1.45-1,.77,.25,.98,.89,1.11,1.59Z"/><path class="s" d="M13.35,27.63c1.37-.39,2.74-.76,4.18-.66,.76,.18,1.43,.47,1.56,1.36-.26,.78-.85,1.13-1.59,1.34-3.34,.92-6.37,2.46-9.05,4.66-.45,.37-.93,.53-1.5,.41-.87-.8-.93-1.55-.19-2.74,.43,.51,.84,.62,1.45,.16,1.51-1.13,3.17-2.02,4.88-3.07-.76-.11-1.38,.4-2.02,.07-.15-.1-.24-.24-.23-.42,.64-1,1.42-1.34,2.52-1.11Z"/><path class="s" d="M184.82,213.02c-.07-.01-.14,0-.2,.03-.1,.03-.18,.11-.29,.13-.66,.11-1.32,.13-1.9-.26-.35-.24-.73-.51-.71-1.02,.05-.52,.24-1,.6-1.38,2.5-2.6,4.59-5.5,6.4-8.61,.25-.42,.52-.92,1.16-.83,.76,.35,.84,1.05,.9,1.76,.04,.06,.11,.13,.1,.19-.31,1.96-.95,3.77-2.42,5.18-.69-.38-.26-.96-.28-1.72-1.49,2.07-2.99,3.9-4.51,5.82,.86,.17,1.33-.78,2.08-.41,.28,.54-.07,.83-.44,1.1-.16,.07-.33,.06-.5,.03Z"/><path class="k" d="M49.73,177.12c-.28,.38-.52,.8-.94,1.05-.2,.08-.4,.17-.61,.25-1.09,.4-2.19,.16-2.92-.64-.74-.81-.87-2.03-.34-3.08,.12-.23,.24-.45,.36-.68l.05-.12c.08-.03,.16-.06,.24-.1l.42-.24c.78-.23,1.54-.35,2.32,.06,1.15,.59,1.65,1.53,1.46,2.85-.03,.21-.02,.43-.03,.65Z"/><path class="s" d="M10.86,41.39c-.58-.29-.87-.76-.86-1.42,.72-.2,1.27-.66,1.83-1.14,1.49-1.3,3.08-2.47,4.78-3.71-.42-.18-.93-.05-1.11-.5,.5-1.09,3.75-2.5,4.89-2.12,.82,.01,1.54,.19,1.81,1.1-.06,.41-.36,.6-.69,.78-3.22,1.82-6.15,4.03-8.89,6.5-.52,.47-1.04,.79-1.75,.5Z"/><path class="ac" d="M15.55,34.71c.48,.03,.91-.28,1.4-.19,.26,.05,.53,.12,.59,.41,.06,.28-.23,.33-.41,.44-2.03,1.37-3.96,2.87-5.78,4.51-.67,.6-.68,.59-1.35,.1-.17-.28-.11-.55,.03-.82,.8-2.41,2.9-3.4,4.89-4.53,.16-.03,.32,0,.48,.04,.05,.01,.1,.03,.15,.04Z"/><path class="ac" d="M191.69,216.07c-.31,.11-.61,.23-.92,.34-.3,.1-.59,.11-.78-.19-.17-.27,0-.49,.15-.69,.76-1.03,1.45-2.1,2.11-3.19,.59-.97,1.17-1.93,1.67-2.95,.09-.19,.16-.45,.44-.41,.31,.05,.35,.34,.38,.59,.08,.63-.09,1.23-.29,1.82-.08,.24-.13,.49-.2,.74,.2,.48-.14,.85-.25,1.27-.03,.09-.07,.18-.12,.26-.14,.19-.23,.4-.33,.61-.09,.16-.2,.32-.26,.5-.18,.39-.62,.43-.92,.66-.11,.15-.23,.29-.34,.44-.11,.08-.22,.15-.33,.22Z"/><path class="ac" d="M11.15,29c.64-.14,1.24-.48,1.92-.47,.29,0,.59-.04,.86,.13,.22,.15,.28,.34,.05,.53-.11,.09-.24,.16-.37,.23-1.96,1.02-3.8,2.21-5.62,3.45-.18,.12-.36,.26-.55,.36-.42,.21-.62,.11-.68-.35-.03-.29,0-.59,0-.88,.08-.36,.44-.51,.61-.8,.22-.09,.41-.23,.53-.44,.08-.23,.19-.45,.33-.66,.06-.08,.14-.15,.22-.2,.08-.06,.17-.1,.27-.13,.24-.06,.42-.25,.66-.31,.61-.12,1.14-.53,1.79-.47Z"/><path class="aa" d="M189.89,201.08c-.46,.34-.68,.85-.97,1.31-1.8,2.89-3.73,5.69-6.14,8.12-.42,.42-.65,.97-1.06,1.39-.39-.29,.2-.84-.23-1.06-.35-.18-.78-.2-1.16-.31-1.54-.46-3.14-.69-4.65-1.24,.47-.06,.93,.01,1.4,.13,1.37,.35,2.74,.68,4.11,1.02,.34,.08,.65,.18,.78-.28,.11-.14,.15-.32,.26-.47,.15-.18,.31-.35,.43-.55,.55-.84,1.22-1.59,1.89-2.33,.42-.62,.86-1.23,1.28-1.85,.24-.36,.52-.69,.99-.74,.78-.97,1.35-2.06,1.92-3.15,.39-.28,.77-.33,1.16,0Z"/><path class="y" d="M15.11,34.92c-1.5,.78-2.82,1.81-4.07,2.94-.41,.38-.63,.89-1.01,1.29l.1-.83c-.61,.12-1.22,.31-1.67-.27,1.03,.07,1.69-.64,2.38-1.2,2.53-2.03,5.28-3.66,8.33-4.77,.57-.21,.99-.62,1.49-.91,.38,.54-.2,.89-.28,1.33-1.35,.35-2.61,.94-3.87,1.52-.36,.16-.75,.3-.96,.69h0c-.12,.14-.32,.09-.44,.21Z"/><path class="aa" d="M10.86,41.39c.72,.01,1.18-.44,1.68-.89,2.95-2.67,6.1-5.08,9.66-6.9,.32,.32,.09,.6-.05,.88-1.12,.63-2.27,1.2-3.28,2.02-.4,1.19-1.65,1.44-2.44,2.19-.78,.7-1.62,1.32-2.43,1.99-.28,.32-.69,.42-1.03,.62-1.21,.41-1.22,.41-.93,1.6,.23,.95,.46,1.91,.71,2.85,.1,.39,.19,.78,.13,1.18-.56-1.46-.82-3-1.22-4.51-.13-.5-.34-.85-.8-1.05Z"/><path class="y" d="M188.33,208.14c.95-1.26,1.47-2.73,2.04-4.18,.15-.37,.28-.75,.42-1.12,.49-.32,.98-.68,1.58-.23-.64,.13-.86,.66-1.04,1.17-.7,1.97-1.66,3.81-2.79,5.56-.77,1.2-1.58,2.37-2.5,3.45-.48,.57-.89,1.16-.79,1.96-.47-.32-.45-.81-.42-1.29,.17-.18,.04-.43,.15-.63,.36-.22,.67-.48,.7-.94-.19-.4,.03-.71,.24-1,.65-.87,1.23-1.8,1.95-2.62,.09-.06,.19-.1,.29-.13,.05,0,.11,0,.16,0Z"/><path class="y" d="M6.95,34.74c.36-.08,.69-.23,.98-.47,2.72-2.23,5.79-3.83,9.15-4.86,.75-.23,1.41-.59,2.01-1.08,.31,.71-.27,1.05-.61,1.49-2.19,.57-4.33,1.28-6.36,2.31-.29,.15-.6,.28-.76,.6,0,.05-.01,.1-.02,.15-.04,.15-.1,.29-.2,.42-.92,.67-1.59,1.73-2.86,1.87-.06-.01-.12-.02-.18-.04-.08-.29-.31-.2-.51-.2-.23,0-.49,.06-.65-.19Z"/><path class="y" d="M195.21,204.15c-.71,.17-.96,.73-1.16,1.34-.46,1.39-.96,2.76-1.55,4.11-.79,1.79-1.84,3.41-2.96,4.99-.37,.53-.95,.94-.98,1.67-.37-.3-.18-.69-.19-1.06-.02-.1-.02-.2-.02-.3,.2-.16,.43-.29,.42-.6,0-.05,0-.09,0-.14,.06-.28,.26-.5,.35-.76,.04-.08,.1-.16,.16-.23,.28-.2,.34-.53,.44-.82,.17-.42,.39-.8,.71-1.12,.11-.1,.25-.17,.4-.21,.05,0,.1-.01,.15-.02,.84-1,1.21-2.24,1.63-3.44,.34-.96,.56-1.96,.84-2.95,.54-.36,1-1,1.77-.47Z"/><path class="q" d="M184.99,212.83c.09,.24,.04,.46-.15,.63v-.44l.15-.19Z"/><path class="ab" d="M184.41,38.91l-.31-.07c.08-.15,.21-.19,.35-.1,.07,.05,.04,.13-.04,.17Z"/><path class="h" d="M188.36,214.91c.12,.09,.24,.19,.02,.3l-.29-.05,.27-.25Z"/><path class="k" d="M45.12,173.85l.09,.03c.12-.04,.15,0,.1,.11l-.03,.03-.16-.16Z"/><path class="q" d="M184.34,213.18c.06-.11,.16-.16,.29-.13-.06,.12-.15,.17-.29,.13Z"/><path class="w" d="M137.45,89.62c.03,.31,.22,.53,.43,.75,2.77,2.89,5.2,6.05,7.51,9.31,1.04,1.48,1.31,2.64,.08,4.33-1.7,2.34-3.4,4.69-5.59,6.62-1.57,1.38-3.28,2.58-5.05,3.69-1.3,.81-2.93,.31-4.05-1.13-.45-.58-.86-1.18-1.27-1.79-1.5-2.22-3.24-4.25-4.93-6.32-.38-.47-.75-1.02-1.43-1.15,.29-.44,.68-.79,1.11-1.1,.87-.19,1.24,.5,1.67,1,1.47,1.69,2.82,3.46,4.09,5.3,.27,.39,.53,.79,.88,1.12,1.09,1.06,1.98,1.16,3.23,.29,1.64-1.14,3.02-2.55,4.19-4.16,.84-1.17,.86-1.89,.03-3.11-1.66-2.41-3.48-4.7-5.44-6.89-.43-.48-1.04-.91-.52-1.69,1.63-1.76,3.31-3.46,5.08-5.07Z"/><path class="w" d="M119.4,100c-.62-1-1.63-1.59-2.49-2.31-2.14-1.78-4.4-3.41-6.63-5.08-1.63-1.21-2.34-3.03-.87-4.97,1.7-2.25,3.32-4.57,5.46-6.45,1.57-1.38,3.23-2.66,4.98-3.8,1.04-.68,2.21-.57,3.21,.15,2.98,2.13,5.96,4.26,8.62,6.8,.58,.56,1.24,1.03,1.86,1.54-1.65,1.74-3.33,3.43-5.08,5.07-.57,.25-.98-.04-1.38-.39-2.13-1.91-4.38-3.67-6.7-5.36-1.57-1.14-2.32-1.16-3.84,0-1.34,1.03-2.47,2.28-3.58,3.56-1.44,1.67-.64,3.17,.58,4.05,1.28,.93,2.53,1.88,3.79,2.84,.82,.62,1.59,1.3,2.39,1.94,.4,.32,.79,.68,.79,1.26-.3,.45-.68,.81-1.1,1.13Z"/><path class="l" d="M132.36,94.69c-.01,.35,.13,.63,.37,.88,2.12,2.19,3.97,4.61,5.74,7.08,.21,.3,.45,.59,.61,.91,.43,.91,.5,1.81-.13,2.7-1.3,1.84-2.85,3.45-4.7,4.74-1.32,.92-2.41,.8-3.57-.29-.78-.74-1.31-1.67-1.92-2.54-1.05-1.5-2.26-2.89-3.41-4.31-.32-.39-.68-.78-1.12-1.05,.46-.66,1.09-1.18,1.66-1.74,2.16-2.13,4.23-4.35,6.47-6.39Z"/><path class="l" d="M120.5,98.87c-1.94-1.61-3.89-3.21-5.92-4.7-.35-.26-.7-.53-1.07-.76-.41-.26-.75-.58-1.07-.94-.95-1.08-1.04-2.36-.19-3.52,1.27-1.72,2.78-3.21,4.48-4.49,1.06-.79,2.19-.83,3.27-.07,1.46,1.03,2.91,2.09,4.3,3.23,1.19,.97,2.42,1.89,3.49,3,.18,.19,.42,.29,.67,.35-2.61,2.68-5.23,5.34-7.95,7.9Z"/><path class="m" d="M55.49,163.88c-3.51-.44-7.04-.15-10.56-.24-.51-.01-1.03,.02-1.49-.28-.55-.36-.65-.73-.31-1.3,.53-.87,1.39-1.21,2.33-1.25,1.06-.05,2.13-.13,3.18,.13,.35,.08,.73,.06,1.1,.06,2.06,0,4.11,.02,6.17,0,.72,0,1.39,.08,2,.48-.75,.86-1.55,1.67-2.41,2.41Z"/><path class="m" d="M60.12,159.25c-3.66-.2-7.32-.29-10.98-.24-.63,0-1.36,.02-1.54-.73-.18-.74,.36-1.21,.96-1.57,.78-.47,1.63-.67,2.53-.48,.55,.12,1.09,.14,1.64,.14,2.31,0,4.62,.02,6.93,0,1-.01,1.97,.04,2.89,.47-.75,.86-1.55,1.67-2.42,2.41Z"/><path class="m" d="M46.22,173.16c-.3-.29-.67-.25-1.04-.26-.84,0-1.69-.04-2.53,0-2.6,.13-5.19-.24-7.79-.22-.47,0-.88-.1-1.07-.59-.2-.5,.08-.86,.4-1.17,.53-.54,1.17-.9,1.95-.88,2.34,.07,4.68-.13,7.02,.16,1.26,.16,2.56,.06,3.85,.04,.61,0,1.17,.07,1.65,.47-.75,.88-1.56,1.69-2.43,2.44Z"/><path class="m" d="M50.84,168.53c-.37-.34-.83-.25-1.26-.25-2.2,0-4.4-.05-6.6,0-1.25,.03-2.48-.19-3.72-.25-.92-.05-1.2-.69-.68-1.45,.54-.8,1.37-1.15,2.27-1.15,1.68,0,3.36-.06,5.05,.12,1.78,.18,3.59,.08,5.39,.06,.72,0,1.39,.08,2,.48-.75,.87-1.56,1.68-2.44,2.44Z"/><path class="m" d="M69.14,150.24c-.29-.28-.67-.27-1.03-.26-3.29,.14-6.58-.34-9.87-.22-.15,0-.29,0-.44,0-.44-.01-.79-.19-.95-.61-.17-.46-.04-.87,.31-1.2,.53-.48,1.13-.83,1.86-.83,2.71,0,5.42-.08,8.13,.04,1.13,.05,2.26,.16,3.39,.17,.43,0,.8,.09,1.03,.49-.74,.87-1.54,1.69-2.43,2.41Z"/><path class="m" d="M64.74,154.62c-3.63,.04-7.25-.38-10.88-.24-.15,0-.29,0-.44,0-.53-.05-1.08-.12-1.22-.73-.13-.56,.19-1,.62-1.32,.51-.37,1.08-.6,1.74-.6,3.16,.02,6.31-.03,9.47,.04,1.05,.02,2.12,.12,3.14,.44-.75,.86-1.55,1.68-2.43,2.41Z"/><path class="m" d="M61.83,165.18c.44,3.02,.14,6.06,.23,9.1,.02,.66,.02,1.31,.16,1.96,.21,1.04-.03,2.04-.56,2.95-.09,.16-.19,.32-.32,.44-.74,.72-1.56,.51-1.83-.48-.09-.35-.09-.72-.09-1.09,0-2.05-.04-4.1,0-6.15,.03-1.18-.27-2.32-.27-3.49,0-.13-.12-.26-.18-.39,.89-1.01,1.85-1.96,2.86-2.86Z"/><path class="m" d="M57.2,169.81c.37,1.63,.25,3.28,.21,4.92-.07,2.35,.25,4.67,.24,7.01,0,.8-.19,1.51-.66,2.16-.2,.28-.45,.48-.77,.58-.65,.21-1.02,.02-1.27-.64-.17-.46-.16-.93-.16-1.41,0-2.75,0-5.49,0-8.24,0-.55,.02-1.11-.43-1.53,.89-1.01,1.85-1.96,2.86-2.86Z"/><path class="m" d="M75.5,151.52c.12,.27,.21,.55,.22,.85,.06,3.85,.35,7.69,.22,11.54-.03,.89-.33,1.66-1.12,2.14-.75,.46-1.39,.13-1.51-.73-.02-.11-.01-.22-.01-.33,.04-3.19-.36-6.37-.23-9.56,.02-.43,.1-.89-.21-1.27,.82-.94,1.7-1.83,2.65-2.64Z"/><path class="m" d="M52.58,174.44c.19,.6,.23,1.22,.23,1.84-.01,1.14,0,2.27,0,3.41,.02,2.23,.32,4.45,.23,6.68-.03,.8-.19,1.51-.67,2.16-.2,.28-.45,.48-.77,.58-.71,.23-1.15-.04-1.21-.78-.11-1.42-.27-2.83-.24-4.27,.05-1.94,.01-3.88,0-5.82,0-.4,.08-.81-.21-1.16,.81-.95,1.7-1.83,2.64-2.65Z"/><path class="m" d="M70.88,156.15c.12,.27,.21,.55,.21,.85,.03,2.16,.31,4.31,.23,6.48-.06,1.65-.02,3.3,0,4.95,0,.78-.25,1.45-.77,2-.34,.35-.78,.6-1.29,.39-.48-.19-.59-.62-.59-1.09,0-.11,0-.22,0-.33,.15-3.23-.32-6.44-.22-9.67,0-.33,.02-.67-.22-.94,.82-.94,1.7-1.83,2.65-2.64Z"/><path class="m" d="M66.25,160.78c.26,.88,.43,1.78,.43,2.7,0,3.12,0,6.24,.02,9.36,0,.69-.12,1.31-.5,1.88-.36,.55-.93,.85-1.37,.73-.49-.13-.77-.55-.78-1.31-.02-1.8,0-3.6-.02-5.4-.02-1.57-.32-3.14-.22-4.72,.01-.23-.06-.43-.21-.61,.82-.94,1.7-1.83,2.65-2.64Z"/><path class="t" d="M186.81,204.23c-.58,1-1.21,1.96-2,2.8-.87,.03-1.28-.66-1.74-1.2-3.17-3.75-5-8.04-5.37-12.97-.31-4.07-.17-8.11,.2-12.17,.56-6.05,1.51-12.06,2.2-18.09,.44-3.82,.77-7.64,1.01-11.48,.34-5.47-.09-10.82-1.38-16.13-1.15-4.74-4.03-8.3-7.54-11.48-5.54-5.01-11.97-8.83-17.82-13.43-1.56-1.22-3.13-2.42-4.57-3.78-.38-.36-.71-.74-.87-1.25,.71-.83,1.41-1.66,2.12-2.49,.34,.07,.59,.28,.83,.51,2.94,2.84,6.23,5.23,9.55,7.59,3.56,2.53,7.16,4.99,10.56,7.73,2.91,2.35,5.66,4.88,7.83,7.98,1.9,2.7,3,5.71,3.65,8.89,.54,2.62,.88,5.26,.96,7.95,.04,1.31,.21,2.63,.15,3.95-.11,2.27-.19,4.53-.37,6.8-.15,1.93-.31,3.87-.51,5.8-.21,2.04-.5,4.07-.76,6.1-.25,1.96-.52,3.92-.77,5.88-.28,2.21-.54,4.43-.82,6.65-.1,.84-.15,1.68-.24,2.51-.34,3.18-.42,6.38-.22,9.56,.19,3.15,.74,6.27,2.36,9.08,.99,1.72,2.05,3.39,3.56,4.72Z"/><path class="t" d="M16.17,38.44c.79-.79,1.74-1.37,2.69-1.94,1.22,1.23,2.63,2.21,4.09,3.13,2.68,1.68,5.66,2.3,8.76,2.62,2.13,.22,4.25,.17,6.37,.17,1.54,0,3.06-.23,4.59-.35,1.64-.13,3.28-.29,4.92-.5,1.52-.2,3.05-.38,4.58-.57,2-.25,3.99-.51,5.99-.76,1.38-.17,2.76-.34,4.14-.5,2.07-.25,4.15-.45,6.22-.64,1.57-.14,3.14-.22,4.71-.32,2.37-.15,4.76-.16,7.14,.06,1.71,.16,3.43,.26,5.13,.52,4.21,.66,8.27,1.73,11.73,4.38,1.69,1.29,3.25,2.71,4.71,4.27,4.24,4.51,7.56,9.72,11.21,14.67,2.22,3.01,4.36,6.08,7.03,8.73,.24,.24,.45,.48,.51,.83-.83,.71-1.65,1.41-2.48,2.12-.87-.25-1.38-.96-1.93-1.59-3.16-3.62-5.94-7.54-8.7-11.47-2.7-3.84-5.47-7.63-8.65-11.09-3.92-4.28-8.81-6.73-14.55-7.5-3.53-.47-7.07-.81-10.63-.65-3.95,.17-7.89,.53-11.82,.98-3.75,.42-7.48,.94-11.22,1.43-3.01,.39-6.03,.76-9.06,1-5.97,.48-11.93,.8-17.73-1.26-2.82-1-5.13-2.8-7.4-4.67-.33-.27-.5-.63-.38-1.08Z"/><path class="o" d="M148.94,105.03c.32,.03,.53,.23,.74,.44,2.8,2.66,5.91,4.93,9.02,7.19,3.62,2.63,7.35,5.1,10.84,7.9,2.89,2.32,5.63,4.8,7.79,7.87,1.31,1.86,2.21,3.89,2.79,6.06,.81,2.98,1.27,6.01,1.44,9.1,.1,1.8,.24,3.59,.14,5.38-.11,2.01-.17,4.02-.35,6.03-.16,1.82-.34,3.64-.52,5.46-.2,2.04-.5,4.07-.76,6.1-.25,2-.51,3.99-.76,5.99-.27,2.14-.52,4.29-.8,6.43-.12,.91-.14,1.82-.24,2.73-.35,3.21-.42,6.45-.23,9.67,.17,2.97,.69,5.89,1.9,8.65,.76,1.73,1.86,3.24,2.95,4.76,.58,.81,1.31,1.48,1.93,2.25-.57,.9-1.25,1.7-2.02,2.44-.44,.15-.67-.16-.94-.41-3.99-3.72-6.35-8.28-6.92-13.7-.45-4.27-.25-8.55,.1-12.83,.49-6.03,1.45-11.99,2.11-18,.56-5.07,1.03-10.14,.84-15.24-.19-5.03-.89-10-3.09-14.6-1.54-3.21-3.92-5.7-7.04-7.48-4.3-2.46-9.06-3.51-13.82-4.55-3.87-.84-7.75-1.62-11.47-3-1.79-.67-3.53-1.44-5.09-2.56-.37-.26-.79-.48-.44-1.03,4.33-3.3,8.31-6.96,11.93-11.03Z"/><path class="t" d="M137.01,116.06c.03,.49,.45,.64,.77,.86,1.94,1.3,4.09,2.15,6.29,2.86,4.48,1.45,9.13,2.19,13.69,3.29,3.69,.89,7.28,2.04,10.56,4.01,3.6,2.16,6.07,5.25,7.61,9.13,1.06,2.67,1.67,5.46,2.08,8.3,.57,3.95,.46,7.91,.38,11.86-.05,2.08-.36,4.15-.58,6.23-.23,2.19-.46,4.37-.72,6.55-.24,1.96-.54,3.92-.79,5.88-.2,1.56-.32,3.13-.53,4.69-.31,2.25-.45,4.52-.58,6.78-.14,2.45-.17,4.91,.07,7.37,.16,1.65,.39,3.27,.75,4.88,.64,2.93,2.03,5.48,3.96,7.76,.88,1.04,1.77,2.05,2.81,2.94-.07,.21-.21,.36-.4,.45-1.37-.78-2.47-1.84-3.36-3.14-.58-1.11-1.45-2.02-2.08-3.1-1.61-2.78-2.4-5.79-2.83-8.94-.48-3.51-.4-7.03-.26-10.53,.11-2.75,.43-5.51,.77-8.27,.38-3.19,.79-6.38,1.2-9.57,.4-3.12,.78-6.24,1.01-9.37,.28-3.86,.45-7.74,.02-11.63-.36-3.33-.95-6.57-2.16-9.71-1.65-4.26-4.71-7.07-8.8-8.89-3.74-1.67-7.72-2.53-11.7-3.37-4.55-.97-9.11-1.94-13.38-3.87-1.63-.74-3.23-1.57-4.52-2.87,.19-.27,.41-.49,.73-.62Z"/><path class="g" d="M136.28,116.68c4.11,3.05,8.9,4.42,13.78,5.53,3.5,.79,7.04,1.45,10.5,2.43,2.83,.8,5.56,1.82,8.07,3.43,3.05,1.96,5.16,4.62,6.45,7.98,1.09,2.82,1.74,5.74,2.05,8.75,.26,2.52,.55,5.04,.38,7.56-.13,1.9-.15,3.8-.33,5.7-.18,1.86-.34,3.72-.53,5.57-.26,2.51-.65,5.01-.96,7.51-.27,2.14-.54,4.28-.77,6.43-.23,2.07-.42,4.15-.62,6.22-.03,.33-.04,.66-.04,.99,0,2.39-.04,4.77,0,7.16,.05,3.71,.76,7.29,2.32,10.66,.71,1.54,1.78,2.86,2.76,4.23,.08,.12,.06,.23-.04,.33-.37,.16-.73,.25-.84-.31,.12-.06,.35-.07,.28-.24-.09-.23-.26-.44-.42-.64-2.6-3.24-3.93-7.01-4.52-11.07-.58-4.02-.53-8.04-.27-12.08,.38-5.93,1.27-11.81,1.97-17.71,.42-3.49,.8-6.99,1.01-10.51,.14-2.35,.22-4.7,.13-7.04-.15-4.01-.7-7.95-2.13-11.75-1.42-3.77-3.94-6.48-7.5-8.27-2.74-1.38-5.67-2.2-8.64-2.91-3.82-.9-7.69-1.58-11.47-2.65-3.3-.94-6.49-2.11-9.36-4.04-.49-.33-.95-.68-1.43-1.03l.18-.24Z"/><path class="o" d="M16.17,38.44c1.35,1.42,2.94,2.54,4.57,3.59,2.97,1.92,6.3,2.69,9.77,3.07,2.39,.27,4.77,.24,7.15,.14,2.19-.09,4.38-.31,6.57-.54,2.08-.22,4.15-.47,6.22-.74,1.96-.25,3.92-.53,5.88-.77,2.22-.27,4.43-.53,6.65-.78,1.89-.21,3.79-.4,5.68-.59,.15-.02,.29-.04,.44-.05,2.93-.09,5.86-.39,8.8-.22,4.29,.25,8.54,.71,12.64,2.14,2.3,.81,4.27,2.11,6.1,3.66,3.65,3.08,6.5,6.85,9.28,10.68,2.52,3.48,5,6.98,7.56,10.43,1.29,1.73,2.67,3.4,4.18,4.96,.25,.26,.56,.49,.6,.89-4.1,3.65-7.79,7.68-11.18,11.99-.7,.17-.88-.44-1.14-.83-1.51-2.32-2.49-4.88-3.28-7.53-1.21-4.08-1.9-8.29-2.91-12.42-.91-3.75-2.07-7.4-4.1-10.73-2.39-3.93-5.94-6.26-10.22-7.65-5.16-1.68-10.47-1.98-15.84-1.87-5.5,.11-10.94,.83-16.4,1.49-5.19,.63-10.37,1.4-15.61,1.67-2.35,.12-4.7,.22-7.03,.1-5.85-.3-11.25-1.85-15.46-6.26-.53-.56-1.45-.83-1.32-1.86,.69-.81,1.53-1.44,2.42-2.01Z"/><path class="t" d="M13.75,40.45c1.31,1.71,3.01,2.98,4.73,4.23,2.48,1.8,5.34,2.55,8.29,3.03,2.83,.46,5.7,.56,8.55,.42,2.37-.12,4.75-.28,7.11-.55,2.11-.24,4.22-.49,6.33-.74,2.11-.26,4.21-.55,6.32-.79,2.4-.27,4.8-.55,7.2-.8,4.1-.43,8.2-.52,12.3-.37,4.79,.18,9.48,1.04,13.86,3.09,3.61,1.69,6.29,4.38,8.19,7.87,1.71,3.16,2.73,6.56,3.57,10.02,.98,4.03,1.65,8.12,2.84,12.1,.79,2.65,1.73,5.23,3.29,7.54,.2,.3,.36,.64,.71,.82l-.27,.41c-.71,.25-.87-.37-1.13-.75-2-2.94-3.22-6.23-4.16-9.64-1.2-4.35-1.88-8.81-3.08-13.16-.65-2.37-1.45-4.68-2.53-6.9-2.14-4.36-5.64-6.99-10.2-8.38-3.45-1.05-6.97-1.47-10.57-1.67-2.98-.16-5.94,0-8.89,.2-3.67,.25-7.33,.73-10.99,1.2-2.71,.34-5.43,.66-8.15,1-4.8,.59-9.6,.95-14.44,.84-3.68-.08-7.27-.59-10.73-1.95-2.36-.93-4.3-2.46-6.28-3.98-.91-.69-1.65-1.55-2.55-2.25h-.15c.06-.47,.46-.63,.79-.85Z"/><path class="g" d="M13.11,41.3c.48-.3,.66,.15,.89,.38,1.11,1.12,2.29,2.16,3.54,3.12,2.72,2.1,5.84,3.18,9.16,3.78,4.11,.75,8.27,.5,12.4,.38,2.55-.07,5.1-.45,7.64-.75,3.24-.38,6.46-.83,9.7-1.21,2.29-.27,4.58-.55,6.87-.78,1.31-.13,2.62-.35,3.94-.29,.99,.04,1.98-.16,2.96-.18,4.59-.08,9.16,.16,13.63,1.33,2.06,.54,4.05,1.27,5.92,2.33,2.78,1.57,4.75,3.87,6.22,6.65,1.59,3.01,2.56,6.23,3.34,9.53,1.14,4.81,1.92,9.72,3.57,14.41,.74,2.09,1.71,4.05,2.92,5.9,.24,.37,.46,.76,.97,.81-.08,.22-.24,.35-.44,.45-2.05-2.52-3.37-5.41-4.39-8.46-1.27-3.76-2.02-7.66-2.87-11.53-.7-3.16-1.42-6.3-2.67-9.3-1.44-3.44-3.51-6.36-6.89-8.16-1.73-.92-3.57-1.55-5.46-2.01-3.84-.94-7.76-1.18-11.7-1.11-3.78,.06-7.55,.39-11.3,.84-5.54,.67-11.07,1.37-16.61,1.98-3.98,.43-7.98,.65-11.99,.47-2.53-.12-5.04-.43-7.5-1.08-3.03-.8-5.76-2.18-8.18-4.17-.54-.44-1.08-.88-1.63-1.31-.6,.25-.94-.14-1.24-.55-.3-.4-.52-.85-.76-1.29,0-.06-.02-.12-.04-.18Z"/><path class="u" d="M13.15,41.48c.67,.61,1.33,1.22,2,1.84,.23,1.67,.76,3.28,1.17,4.91,4.07,16.01,8.16,32.02,12.25,48.04,3.85,15.09,7.7,30.18,11.55,45.26,1.49,5.82,2.98,11.64,4.46,17.46-.42,.22-.84,.45-1.27,.67-.24-.88-.48-1.77-.71-2.66-2.05-8.04-4.09-16.07-6.14-24.11-1.74-6.83-3.5-13.65-5.24-20.48-1.86-7.29-3.71-14.58-5.57-21.87-1.81-7.11-3.64-14.22-5.45-21.33-1.86-7.29-3.7-14.58-5.58-21.87-.5-1.95-1.05-3.9-1.48-5.87Z"/><path class="v" d="M45.31,173.99s-.06-.08-.1-.11c.12-.03,.24-.05,.35-.08-.05,.1-.13,.18-.26,.19Z"/><path class="u" d="M178.44,206.85c.23,.23,.56,.2,.84,.29,.57,.46,1.2,.87,1.32,1.68-1.92-.47-3.85-.92-5.77-1.4-11.43-2.84-22.85-5.68-34.28-8.52-10.86-2.7-21.71-5.39-32.57-8.09-11.04-2.74-22.07-5.48-33.11-8.22-3.56-.88-7.12-1.75-10.68-2.63-.28-.07-.56-.17-.84-.26,.23-.43,.46-.85,.7-1.28,.05,.03,.1,.03,.15-.01,.22,.15,.51,.01,.72,.19,2.24,.7,4.54,1.18,6.81,1.75,14.4,3.59,28.81,7.17,43.21,10.75,21.09,5.24,42.19,10.47,63.28,15.7,.07,.02,.14,.02,.22,.04Z"/><path class="f" d="M180.61,208.83c-.35-.63-1.02-1.01-1.32-1.69l.04-.32c.69,.4,.97,1.17,1.55,1.67,.52,.45,.93,1.02,1.52,1.41-.08,.18-.25,.22-.42,.25-.42-.48-.85-.95-1.36-1.33Z"/><path class="t" d="M8.57,30.3c-.2,.19-.41,.37-.69,.47-.68-3.45-.23-6.79,1.01-10.05,1.06-2.79,2.74-5.2,4.79-7.32,1.86-1.92,4.15-3.26,6.74-4.02,2.43-.72,4.89-.97,7.38-.25,.68,.2,1.32,.43,1.85,.91h0c-1.32,.05-2.64-.13-3.95,.1-2.21,.4-4.17,1.38-5.95,2.69-2.41,1.77-4.22,4.04-5.46,6.77-1.17,2.58-1.52,5.25-.95,8.04-.8,.41-1.67,.67-2.41,1.19-.19,.21-.39,.33-.66,.13-.34-.32-.44-.73-.48-1.19-.28-3,.21-5.84,1.75-8.46,.19-.42,.49-.77,.72-1.14-.01,.02-.02,0-.03,.01-.18,.36-.47,.62-.61,.98-1.64,3.14-2.59,6.46-2.59,10.03,0,.35-.07,.64-.28,.91l-.04,.05c-.08,.03-.12,.08-.14,.16Z"/><path class="t" d="M29.65,10.04l.2,.05c-.11,.15-.13-.03-.19-.06h0Z"/><path class="t" d="M192.37,215.41c.14-.35,.43-.6,.66-.89,.57-.4,1.22-.45,1.89-.45,3.23,0,6.17-1.08,8.44-2.13-2.2,1.18-5.13,1.94-8.31,1.31-.3-.06-.57-.12-.78-.36-.17-.33-.04-.57,.23-.76,.38-.74,.76-1.47,1.14-2.21,.69,.07,1.38,.2,2.07,.21,3.19,.05,6.08-.94,8.65-2.76,2.3-1.63,4.18-3.69,5.51-6.19,1.21-2.3,1.66-4.76,1.34-7.35-.01-.11-.04-.21-.04-.32,0-.03,.03-.05,.11-.17,.57,.82,.86,1.72,1.05,2.64,.57,2.74,.19,5.39-.83,7.97-1.57,3.96-4.43,6.74-8.02,8.89-2.7,1.62-5.64,2.41-8.73,2.78-.61,.07-1.26,.1-1.86-.02-.84-.16-1.68-.14-2.52-.19Z"/><path class="ac" d="M190.75,211.45c-.26,.34-.52,.68-.65,1.09-.16,.34-.45,.59-.65,.9h0c-.2,.31-.45,.58-.67,.87h0c-.5,.21-.88,.69-1.48,.67-.22,0-.46,0-.59-.21-.14-.23,0-.42,.12-.6,.72-1.11,1.45-2.21,2.16-3.32,.67-1.05,1.31-2.12,1.85-3.25,.09-.19,.17-.45,.44-.43,.3,.02,.38,.31,.47,.55,.14,.33,.02,.66-.07,.97-.22,.77-.47,1.54-.7,2.31h0c-.12,.13-.07,.35-.23,.45Z"/><path class="ac" d="M8.28,35.17c.73-.91,1.77-1.45,2.65-2.19,.1-.17,.32-.11,.43-.25h0c1.05-.31,1.96-1,3.07-1.15,.25-.03,.5-.13,.75-.12,.33,.02,.72,.09,.81,.45,.1,.38-.33,.42-.57,.55-1.86,.96-3.61,2.09-5.35,3.25-.24,.16-.48,.34-.73,.49-.33,.19-.62,.64-1.06,.32-.36-.27-.12-.67-.05-1.02,.02-.11,.02-.22,.04-.33Z"/><path class="n" d="M194.49,212.13l-.18,.65c.01,.46-.12,.77-.67,.68,.07-.51,.32-.93,.62-1.33h.24Z"/><path class="j" d="M10.48,28.95c.15-.04,.3-.09,.46-.13l.21,.18c-.57,.4-1.17,.75-1.86,.89,.02-.8,.45-1.07,1.19-.94Z"/><path class="ac" d="M188.16,208.38c-.65,1.29-1.59,2.37-2.47,3.5-.29,.22-.56,.47-.87,.67-.37,.24-.76,.46-1.22,.45-.26,0-.53-.05-.65-.32-.1-.24,.09-.41,.23-.58,.63-.76,1.25-1.52,1.88-2.29,1-1.21,1.96-2.45,2.81-3.78,.12-.18,.21-.43,.47-.39,.31,.05,.36,.34,.41,.58,.06,.29,0,.58-.1,.86-.13,.34-.31,.67-.32,1.04h0c-.06,.09-.12,.17-.18,.25Z"/><path class="s" d="M15.11,34.92c.11-.14,.26-.2,.44-.21-.11,.15-.26,.21-.44,.21Z"/><path class="i" d="M193.64,213.45c.33-.12,.4-.5,.67-.68,.77-.06,1.52,.19,2.29,.21,1.66,.06,3.28-.21,4.87-.65,.99-.27,1.94-.65,2.85-1.13,.24-.13,.46-.36,.92-.22-3.71,2.69-7.72,3.91-12.2,3.53,.06-.11,.11-.22,.17-.33,.12-.27,.27-.51,.45-.74h0Z"/><path class="n" d="M193.64,213.45c-.01,.33-.22,.55-.45,.74,0-.33,.14-.59,.45-.74Z"/><path class="i" d="M10.48,28.95c-.37,.34-.88,.51-1.19,.94-.18,.07-.35,.13-.53,.2-.52-1.8-.1-3.57,.26-5.31,.45-2.13,1.37-4.09,2.56-5.92,.2-.06,.3,0,.24,.22-.49,1.29-1.04,2.56-1.32,3.92-.4,1.98-.37,3.97-.03,5.96Z"/><path class="i" d="M8.57,30.3c.05-.05,.1-.11,.14-.16-.05,.05-.1,.11-.14,.16Z"/><path class="s" d="M188.16,208.38l.18-.24-.18,.24Z"/><path class="s" d="M11.36,32.73c-.11,.15-.26,.22-.43,.25,.1-.16,.25-.23,.43-.25Z"/><path class="s" d="M189.45,213.45c.06-.41,.32-.68,.65-.9-.02,.44-.28,.71-.65,.9Z"/><path class="s" d="M188.77,214.32c.08-.4,.33-.68,.67-.88-.04,.43-.3,.7-.67,.88Z"/><path class="s" d="M190.75,211.45c.02-.18,.09-.33,.23-.44,0,.19-.07,.34-.23,.44Z"/><path class="a`" d="M64.92,178.62c-.26,.02-.52,.01-.72-.19,.27-.03,.52,0,.72,.19Z"/><path class="d" d="M11.82,19.08l-.24-.22c.33-.47,.55-1.04,1.1-1.33h0c-.1,.62-.49,1.08-.86,1.55Z"/><path class="d" d="M12.68,17.52c.03-.11,.04-.22,.09-.31,.04-.09,.12-.2,.24-.08,.02,.03-.02,.14-.07,.19-.07,.08-.17,.14-.26,.2h0Z"/></g></svg>