<?xml version="1.0" encoding="UTF-8"?><svg id="a" xmlns="http://www.w3.org/2000/svg" viewBox="0 0 199.36 232.72"><defs><style>.b{fill:#fff;}.c{fill:#fee600;stroke:#dbc105;}.c,.d,.e,.f{stroke-miterlimit:10;}.c,.d,.f{stroke-width:.5px;}.d{fill:#f55b9c;}.d,.f{stroke:#a02d61;}.e{stroke:#cea809;stroke-width:.25px;}.e,.g{fill:#f2c900;}.h{opacity:.5;}.f{fill:#d80e82;}</style></defs><g class="h"><path d="M173.85,16.48c-7.15-6.19-16.67-9.61-26.8-9.61-3.73,0-7.42,.47-10.97,1.4-.86,.18-1.69,.39-2.48,.61-16.18,4.58-20.45,18.98-22.49,32.47-1,6.58-1.52,12.39-1.61,17.73-.07,2.83-.03,5.58,.14,8.36h0c-13.83,20.15-6.12,43.29-5.59,44.8,1.2,4.16,3.33,8.83,4.92,12.02l.39,.79c1.53,3.1,3.23,6.53,5.83,9.52-.21,1.48-.46,3.08-.73,4.83-.46,2.98-.98,6.36-1.58,10.62,0,.04-.01,.09-.02,.13-.3,2.64-.87,5.62-1.47,8.78-1.87,9.8-3.98,20.9-.02,30.35,1.23,3.39,3.11,6.38,5.58,8.9,2.08,2.76,10.48,12.33,26.83,12.33h0c.75,0,1.52-.02,2.32-.06,1.94-.11,3.94-.35,5.95-.73,25.83-4.81,28.27-28.84,30.23-48.14l.47-4.71c1.53-15.39,3.12-31.31,7.62-46.07,4.06-13.31,6.27-27.49,6.76-43.35,.58-18.52-8.34-38.06-23.28-50.99Z"/><path d="M94.72,87.76c.17-2.78,.21-5.52,.14-8.31-.08-5.39-.61-11.2-1.61-17.78-2.04-13.49-6.31-27.89-22.49-32.47-.8-.23-1.61-.43-2.48-.61-3.55-.93-7.25-1.4-10.97-1.4-10.14,0-19.66,3.41-26.8,9.6C15.57,49.73,6.65,69.27,7.23,87.79c.49,15.86,2.71,30.04,6.76,43.35,4.5,14.75,6.08,30.66,7.62,46.06,.16,1.57,.31,3.14,.47,4.71,1.96,19.31,4.4,43.33,30.23,48.14,2.01,.37,4.01,.62,5.95,.73,.79,.04,1.56,.06,2.32,.06,16.35,0,24.75-9.57,26.83-12.33,2.48-2.52,4.35-5.51,5.58-8.89,3.96-9.46,1.84-20.56-.02-30.36-.6-3.16-1.17-6.15-1.47-8.78,0-.04-.01-.09-.02-.13-.6-4.26-1.12-7.64-1.58-10.62-.27-1.76-.52-3.36-.73-4.84,2.6-2.99,4.3-6.42,5.83-9.52l.4-.8c1.59-3.2,3.73-7.86,4.92-12.02,.75-2.21,8.01-24.97-5.59-44.78v-.02Z"/></g><g><path class="b" d="M168.85,11.48c-7.15-6.19-16.67-9.61-26.8-9.61-3.73,0-7.42,.47-10.97,1.4-.86,.18-1.69,.39-2.48,.61-16.18,4.58-20.45,18.98-22.49,32.47-1,6.58-1.52,12.39-1.61,17.73-.07,2.83-.03,5.58,.14,8.36h0c-13.83,20.15-6.12,43.29-5.59,44.8,1.2,4.16,3.33,8.83,4.92,12.02l.39,.79c1.53,3.1,3.23,6.53,5.83,9.52-.21,1.48-.46,3.08-.73,4.83-.46,2.98-.98,6.36-1.58,10.62,0,.04-.01,.09-.02,.13-.3,2.64-.87,5.62-1.47,8.78-1.87,9.8-3.98,20.9-.02,30.35,1.23,3.39,3.11,6.38,5.58,8.9,2.08,2.76,10.48,12.33,26.83,12.33h0c.75,0,1.52-.02,2.32-.06,1.94-.11,3.94-.35,5.95-.73,25.83-4.81,28.27-28.84,30.23-48.14l.47-4.71c1.53-15.39,3.12-31.31,7.62-46.07,4.06-13.31,6.27-27.49,6.76-43.35,.58-18.52-8.34-38.06-23.28-50.99Z"/><path class="b" d="M89.72,82.76c.17-2.78,.21-5.52,.14-8.31-.08-5.39-.61-11.2-1.61-17.78-2.04-13.49-6.31-27.89-22.49-32.47-.8-.23-1.61-.43-2.48-.61-3.55-.93-7.25-1.4-10.97-1.4-10.14,0-19.66,3.41-26.8,9.6C10.57,44.73,1.65,64.27,2.23,82.79c.49,15.86,2.71,30.04,6.76,43.35,4.5,14.75,6.08,30.66,7.62,46.06,.16,1.57,.31,3.14,.47,4.71,1.96,19.31,4.4,43.33,30.23,48.14,2.01,.37,4.01,.62,5.95,.73,.79,.04,1.56,.06,2.32,.06,16.35,0,24.75-9.57,26.83-12.33,2.48-2.52,4.35-5.51,5.58-8.89,3.96-9.46,1.84-20.56-.02-30.36-.6-3.16-1.17-6.15-1.47-8.78,0-.04-.01-.09-.02-.13-.6-4.26-1.12-7.64-1.58-10.62-.27-1.76-.52-3.36-.73-4.84,2.6-2.99,4.3-6.42,5.83-9.52l.4-.8c1.59-3.2,3.73-7.86,4.92-12.02,.75-2.21,8.01-24.97-5.59-44.78v-.02Z"/></g><g><g><path class="f" d="M165.58,15.26c-9.13-7.91-22.55-10.29-34.22-6.89-14.45,4.21-18.4,17.14-20.33,29.76-3.21,21.02-1.08,31.47,2.78,50.44,.42,2.08,.87,4.26,1.33,6.57,2.21,24.57,1.78,27.38-.31,40.79-.46,2.97-.99,6.34-1.59,10.62-.31,2.73-.89,5.77-1.5,8.99-2.21,11.63-4.98,25.55,4.02,34.39,.93,1.31,8.71,11.45,25.07,10.54,1.68-.09,3.45-.3,5.31-.65,22.07-4.11,24.17-23.99,26.17-43.73,.16-1.56,.31-3.13,.47-4.7,1.56-15.64,3.17-31.8,7.81-47.03,3.93-12.88,6.07-26.63,6.55-42.05,.53-17.05-7.73-35.08-21.55-47.06Z"/><path class="d" d="M182.15,62.36c.58-17.23-7.68-34.9-20.29-46.46-8.03-7.36-20.43-10.45-31.91-7.2-13.61,3.85-17.1,16.43-18.91,28.41-3.5,23.08-.65,33.25,3.8,56.8,2.53,30.21,1.37,27.77-2.02,51.83-1.48,12.93-8.58,31.66,2,42.48,0,0,8.61,13.38,28.18,9.96,19.57-3.42,22.22-20.19,24.46-42.21,1.77-17.39,3.21-35.13,8.25-51.94,4.08-13.6,5.96-27.52,6.43-41.67Z"/><path class="e" d="M108.44,117.05c2.08,4.19,4.2,8.88,8.28,11.83,.37,.27,.76,.53,1.22,.63,4.42,1,3.88-5.86,3.61-7.86-.23-1.67-.44-3.38-1.12-4.96-.7-1.64-2.02-2.89-3.03-4.37l-.1-.15c-1.33-1.98-2.81-3.93-4.25-5.81-2.65-3.49-5.19-6.83-6.37-9.88-2.8-6.84-3.56,2.85-3.35,4.62,.55,4.57,4.24,13.23,4.24,13.23l.85,2.73Z"/><path class="e" d="M170.24,97.46s-1.48,5.12-1.49,5.13c-1.25,4.31-3,8.47-4.99,12.53-1.83,3.73-5.05,7.81-5.59,11.91-.25,1.91,.32,4.28,2.76,4.48,8.04,.64,7.63-7.87,8.9-12.74,.22-.85,.82-4.68,1.01-5.59,1.85-8.37,.45-26.28-.61-15.73Z"/><rect class="g" x="135.32" y="35.63" width="4.29" height="7.06" rx="1.66" ry="1.66" transform="translate(4.49 -13.25) rotate(5.61)"/><path class="c" d="M108.42,116.93c-1.18-3.78-2.05-7.83-2.6-12.43-.37-3.06-.33-8.74,.24-11.53,.14-1.43,.62-2.82,1.1-4.18l.21-.6c.61-1.78,1.35-3.55,2.18-5.25,5.1-10.4,13.62-19.56,21.51-27.93,1.76-1.87,4.28-3.77,6.39-3.61,.51,.04,3.21,.16,12.3,10.88,10.45,11.4,17.32,24.64,19.53,31.94,1.13,4.01,1.31,5.43,1.94,10.53,.63,5.12-.57,9.59-.57,9.59,0,0,2.83-12.04,3.1-15.43,1.02-13.19-1.64-19.9-4.84-26.04-3.86-7.42-12.25-22-27.13-31.49-1.07-.68-2.32-1.09-3.63-1.18-1.36-.09-2.73,.16-3.95,.74-4.84,2.3-16.94,9.22-25.32,24.14-.02,.03-.03,.05-.05,.08-12.71,18.36-5.35,39.69-5.04,40.56,0,.02,.01,.04,.02,.06,.91,3.18,2.59,7.19,4.62,11.27l-.02-.12Z"/></g><g><path class="f" d="M28.78,35.57c9.13-7.91,22.55-10.29,34.22-6.89,14.45,4.21,18.4,17.14,20.33,29.76,3.21,21.02,1.08,31.47-2.78,50.44-.42,2.08-.87,4.26-1.33,6.57-2.21,24.57-1.78,27.38,.31,40.79,.46,2.97,.99,6.34,1.59,10.62,.31,2.73,.89,5.77,1.5,8.99,2.21,11.63,4.98,25.55-4.02,34.39-.93,1.31-8.71,11.45-25.07,10.54-1.68-.09-3.45-.3-5.31-.65-22.07-4.11-24.17-23.99-26.17-43.73-.16-1.56-.31-3.13-.47-4.7-1.56-15.64-3.17-31.8-7.81-47.03-3.93-12.88-6.07-26.63-6.55-42.05-.53-17.05,7.73-35.08,21.55-47.06Z"/><path class="d" d="M12.2,82.67c-.58-17.23,7.68-34.9,20.29-46.46,8.03-7.36,20.43-10.45,31.91-7.2,13.61,3.85,17.1,16.43,18.91,28.41,3.5,23.08,.65,33.25-3.8,56.8-2.53,30.21-1.37,27.77,2.02,51.83,1.48,12.93,8.58,31.66-2,42.48,0,0-8.61,13.38-28.18,9.96-19.57-3.42-22.22-20.19-24.46-42.21-1.77-17.39-3.21-35.13-8.25-51.94-4.08-13.6-5.96-27.52-6.43-41.67Z"/><path class="e" d="M85.92,137.36c-2.08,4.19-4.2,8.88-8.28,11.83-.37,.27-.76,.53-1.22,.63-4.42,1-3.88-5.86-3.61-7.86,.23-1.67,.44-3.38,1.12-4.96,.7-1.64,2.02-2.89,3.03-4.37l.1-.15c1.33-1.98,2.81-3.93,4.25-5.81,2.65-3.49,5.19-6.83,6.37-9.88,2.8-6.84,3.56,2.85,3.35,4.62-.55,4.57-4.24,13.23-4.24,13.23l-.85,2.73Z"/><path class="e" d="M24.11,117.77s1.48,5.12,1.49,5.13c1.25,4.31,3,8.47,4.99,12.53,1.83,3.73,5.05,7.81,5.59,11.91,.25,1.91-.32,4.28-2.76,4.48-8.04,.64-7.63-7.87-8.9-12.74-.22-.85-.82-4.68-1.01-5.59-1.85-8.37-.45-26.28,.61-15.73Z"/><rect class="g" x="54.75" y="55.94" width="4.29" height="7.06" rx="1.66" ry="1.66" transform="translate(119.34 113.1) rotate(174.39)"/><path class="c" d="M85.94,137.23c1.18-3.78,2.05-7.83,2.6-12.43,.37-3.06,.33-8.74-.24-11.53-.14-1.43-.62-2.82-1.1-4.18l-.21-.6c-.61-1.78-1.35-3.55-2.18-5.25-5.1-10.4-13.62-19.56-21.51-27.93-1.76-1.87-4.28-3.77-6.39-3.61-.51,.04-3.21,.16-12.3,10.88-10.45,11.4-17.32,24.64-19.53,31.94-1.13,4.01-1.31,5.43-1.94,10.53-.63,5.12,.57,9.59,.57,9.59,0,0-2.83-12.04-3.1-15.43-1.02-13.19,1.64-19.9,4.84-26.04,3.86-7.42,12.25-22,27.13-31.49,1.07-.68,2.32-1.09,3.63-1.18,1.36-.09,2.73,.16,3.95,.74,4.84,2.3,16.94,9.22,25.32,24.14,.02,.03,.03,.05,.05,.08,12.71,18.36,5.35,39.69,5.04,40.56,0,.02-.01,.04-.02,.06-.91,3.18-2.59,7.19-4.62,11.27l.02-.12Z"/></g></g></svg>