<?xml version="1.0" encoding="UTF-8"?><svg id="a" xmlns="http://www.w3.org/2000/svg" viewBox="0 0 221.31 197.82"><defs><style>.b,.c{fill:#fff;}.d{fill:#ccad56;}.d,.e,.f,.g,.h,.i,.j{stroke-miterlimit:10;}.d,.e,.f,.g,.j{stroke-width:.75px;}.d,.f{stroke:#d8a209;}.k{opacity:.5;}.c{opacity:.17;}.e{stroke:#665222;}.e,.f{fill:#7f6634;}.g{fill:#af924b;stroke:#bf9222;}.h{fill:#bc8813;stroke:#996b10;}.h,.i{stroke-width:.5px;}.i{fill:#fac213;stroke:#c48d05;}.j{fill:#9e8346;stroke:#967012;}</style></defs><path class="k" d="M113.15,194.82c-27.05,0-52.54-2.01-71.75-5.67-22.79-4.34-33.4-10.18-33.4-18.39,0-.05,0-.11,0-.16,0-.25,.02-.5,.05-.76,.2-1.9,1-3.69,2.38-5.34,.1-.19,.42-.75,.42-.75,.22-.39,.43-.77,.66-1.15,.14-.23,.28-.47,.43-.71,.25-.41,.47-.76,.69-1.11,.16-.26,.33-.51,.49-.75,.22-.34,.45-.67,.68-1,.17-.25,.34-.49,.51-.72,.23-.32,.46-.64,.7-.96,0,0,.36-.49,.52-.69,.24-.31,.48-.63,.73-.94l.5-.63c.26-.32,.53-.64,.8-.96l.46-.54c.33-.38,.66-.74,.99-1.1l.28-.32c.44-.48,.87-.93,1.31-1.37l.32-.32c.33-.33,.66-.66,.99-.98l.48-.46c.28-.26,.55-.52,.83-.77l.54-.48c.26-.23,.52-.46,.79-.69l.56-.47c.26-.22,.52-.43,.77-.64l.55-.44c.26-.2,.51-.4,.77-.6l.55-.42c.26-.19,1.31-.96,1.31-.96,.27-.19,1.29-.9,1.29-.9,.29-.2,.58-.39,.87-.58l.38-.25c.42-.27,.84-.54,1.25-.79l.03-.02c.4-.25,.8-.49,1.19-.72,0,0,.93-.54,1.19-.69l1.14-.63,1.11-.58,1.07-.54,1.47-.7,.95-.43,.54-.23c.07-.14,.38-.78,.38-.78,.38-.75,.76-1.45,1.15-2.14l.2-.35c.81-1.39,1.68-2.72,2.6-3.97l.23-.32c.44-.59,.88-1.16,1.33-1.7l.18-.21c.51-.61,.96-1.13,1.42-1.63,.04-.04,.06-.07,.1-.11,.42-.46,.9-.95,1.38-1.43l.27-.27c.47-.45,.93-.89,1.4-1.31l.17-.15c.5-.44,.94-.82,1.39-1.19l.17-.14c.44-.36,.9-.72,1.37-1.07l.23-.17c.5-.37,.95-.69,1.39-1l.17-.11c.43-.29,.84-.56,1.25-.82l.18-.12c.43-.27,.84-.52,1.25-.76l.17-.1c.48-.28,.88-.5,1.26-.71,.02-.01,.08-.04,.1-.06,.38-.2,.73-.38,1.07-.56l.14-.07s.29-.42,.29-.42c.06-.1,.48-.79,.48-.79,.07-.12,.12-.23,.18-.33l.31-.59,.5-1.06c.06-.12,.48-1.14,.48-1.14,.06-.16,.48-1.26,.48-1.26,.11-.29,.21-.58,.31-.87,.15-.45,.28-.82,.4-1.2l.23-.73,.46-1.55,.46-1.62,.45-1.7,.45-1.77,.44-1.83,.89-3.86,2.55-11.45,.52-2.26,.53-2.25,.55-2.29,.57-2.29,.59-2.3,.62-2.31,.65-2.32c.11-.38,.68-2.32,.68-2.32,.13-.45,.72-2.32,.72-2.32,.24-.77,.5-1.54,.75-2.31,3.9-11.62,10.69-17.78,17.29-21.01-1.83-3.13-2.84-6.73-2.84-10.43,0-11.4,9.27-20.68,20.68-20.68s20.68,9.27,20.68,20.68c0,3.71-1.01,7.31-2.85,10.44,6.44,3.16,13.37,9.27,17.3,20.99,3.28,9.78,5.53,19.98,7.51,28.98,2.45,11.09,4.76,21.59,8.03,26.17,5.85,2.92,15.2,9.19,20.98,21.25,7.53,3.24,22.06,11.33,31.1,28.03,1.33,1.59,2.11,3.33,2.33,5.16,.06,.34,.08,.69,.07,1.03v.02c0,8.21-10.61,14.05-33.4,18.39-19.21,3.66-44.7,5.67-71.75,5.67Zm0-171.49c-2.95,0-5.35,2.4-5.35,5.35s2.4,5.35,5.35,5.35,5.35-2.4,5.35-5.35-2.4-5.35-5.35-5.35Z"/><path class="b" d="M108.15,189.82c-27.05,0-52.54-2.01-71.75-5.67-22.79-4.34-33.4-10.18-33.4-18.39,0-.05,0-.11,0-.16,0-.25,.02-.5,.05-.76,.2-1.9,1-3.69,2.38-5.34,.1-.19,.42-.75,.42-.75,.22-.39,.43-.77,.66-1.15,.14-.23,.28-.47,.43-.71,.25-.41,.47-.76,.69-1.11,.16-.26,.33-.51,.49-.75,.22-.34,.45-.67,.68-1,.17-.25,.34-.49,.51-.72,.23-.32,.46-.64,.7-.96,0,0,.36-.49,.52-.69,.24-.31,.48-.63,.73-.94l.5-.63c.26-.32,.53-.64,.8-.96l.46-.54c.33-.38,.66-.74,.99-1.1l.28-.32c.44-.48,.87-.93,1.31-1.37l.32-.32c.33-.33,.66-.66,.99-.98l.48-.46c.28-.26,.55-.52,.83-.77l.54-.48c.26-.23,.52-.46,.79-.69l.56-.47c.26-.22,.52-.43,.77-.64l.55-.44c.26-.2,.51-.4,.77-.6l.55-.42c.26-.19,1.31-.96,1.31-.96,.27-.19,1.29-.9,1.29-.9,.29-.2,.58-.39,.87-.58l.38-.25c.42-.27,.84-.54,1.25-.79l.03-.02c.4-.25,.8-.49,1.19-.72,0,0,.93-.54,1.19-.69l1.14-.63,1.11-.58,1.07-.54,1.47-.7,.95-.43,.54-.23c.07-.14,.38-.78,.38-.78,.38-.75,.76-1.45,1.15-2.14l.2-.35c.81-1.39,1.68-2.72,2.6-3.97l.23-.32c.44-.59,.88-1.16,1.33-1.7l.18-.21c.51-.61,.96-1.13,1.42-1.63,.04-.04,.06-.07,.1-.11,.42-.46,.9-.95,1.38-1.43l.27-.27c.47-.45,.93-.89,1.4-1.31l.17-.15c.5-.44,.94-.82,1.39-1.19l.17-.14c.44-.36,.9-.72,1.37-1.07l.23-.17c.5-.37,.95-.69,1.39-1l.17-.11c.43-.29,.84-.56,1.25-.82l.18-.12c.43-.27,.84-.52,1.25-.76l.17-.1c.48-.28,.88-.5,1.26-.71,.02-.01,.08-.04,.1-.06,.38-.2,.73-.38,1.07-.56l.14-.07s.29-.42,.29-.42c.06-.1,.48-.79,.48-.79,.07-.12,.12-.23,.18-.33l.31-.59,.5-1.06c.06-.12,.48-1.14,.48-1.14,.06-.16,.48-1.26,.48-1.26,.11-.29,.21-.58,.31-.87,.15-.45,.28-.82,.4-1.2l.23-.73,.46-1.55,.46-1.62,.45-1.7,.45-1.77,.44-1.83,.89-3.86,2.55-11.45,.52-2.26,.53-2.25,.55-2.29,.57-2.29,.59-2.3,.62-2.31,.65-2.32c.11-.38,.68-2.32,.68-2.32,.13-.45,.72-2.32,.72-2.32,.24-.77,.5-1.54,.75-2.31,3.9-11.62,10.69-17.78,17.29-21.01-1.83-3.13-2.84-6.73-2.84-10.43,0-11.4,9.27-20.68,20.68-20.68s20.68,9.27,20.68,20.68c0,3.71-1.01,7.31-2.85,10.44,6.44,3.16,13.37,9.27,17.3,20.99,3.28,9.78,5.53,19.98,7.51,28.98,2.45,11.09,4.76,21.59,8.03,26.17,5.85,2.92,15.2,9.19,20.98,21.25,7.53,3.24,22.06,11.33,31.1,28.03,1.33,1.59,2.11,3.33,2.33,5.16,.06,.34,.08,.69,.07,1.03v.02c0,8.21-10.61,14.05-33.4,18.39-19.21,3.66-44.7,5.67-71.75,5.67Zm0-171.49c-2.95,0-5.35,2.4-5.35,5.35s2.4,5.35,5.35,5.35,5.35-2.4,5.35-5.35-2.4-5.35-5.35-5.35Z"/><g><path class="i" d="M108.16,8c-8.66,0-15.68,7.02-15.68,15.68s7.02,15.68,15.68,15.68,15.68-7.02,15.68-15.68-7.02-15.68-15.68-15.68Zm0,26.03c-5.72,0-10.35-4.64-10.35-10.35s4.64-10.35,10.35-10.35,10.35,4.64,10.35,10.35-4.64,10.35-10.35,10.35Z"/><path class="d" d="M138.54,56.7c-6.51-19.4-22.05-21.1-28-21.01-1.59,.03-3.17,.03-4.76,0-5.96-.09-21.5,1.61-28,21.01-8.13,24.25-9.76,51.16-18.04,58.56h96.85c-8.28-7.39-9.91-34.31-18.04-58.56Z"/><path class="g" d="M153.83,113.49c-5.96-3.71-24.09-6.4-45.53-6.4s-38.56,2.55-45.01,6.1c-3.33,1.2-16.55,6.83-23.09,22.3H176.12c-6.1-14.44-18.01-20.3-22.29-22Z"/><path class="j" d="M175.47,135.16c-8.79-5.13-35.5-8.86-67.1-8.86s-56.83,3.53-66.33,8.44c-4.91,1.66-24.4,9.44-34.03,30.85H208.32c-8.98-19.97-26.54-28.08-32.85-30.42Z"/><path class="c" d="M64.59,129.04c2.95-17.21,17.92-20.51,17.92-20.51,.6-54.02,25.98-68.14,36.67-71.69-3.49-1-6.61-1.17-8.63-1.14-1.59,.03-3.17,.03-4.76,0-5.96-.09-21.5,1.61-28,21.01-7.8,23.26-9.62,48.96-17.05,57.55-5.17,2.4-15.07,8.43-20.47,21.13-6.76,2.62-23.53,10.83-32.24,30.19H40.52l.94-14.04c3.48-20.54,23.13-22.5,23.13-22.5Z"/><g><ellipse class="f" cx="108.15" cy="165.76" rx="100.15" ry="19.06"/><path class="e" d="M199.1,157.77c-15.88-6.53-50.63-11.07-90.95-11.07s-75.07,4.53-90.95,11.07c15.88,6.53,50.63,11.07,90.95,11.07s75.07-4.53,90.95-11.07Z"/><path class="h" d="M89.74,161.02c0,10.17,8.25,18.42,18.42,18.42s18.42-8.25,18.42-18.42c0-5.71-2.6-10.81-6.68-14.19-3.85-.09-7.77-.13-11.74-.13s-7.89,.04-11.74,.13c-4.08,3.38-6.68,8.48-6.68,14.19Z"/></g></g></svg>