<?xml version="1.0" encoding="UTF-8"?><svg id="a" xmlns="http://www.w3.org/2000/svg" xmlns:xlink="http://www.w3.org/1999/xlink" viewBox="0 0 184.02 259.95"><defs><style>.f{fill:#e1b18c;}.g,.h{fill:#f6931b;}.i,.j{fill:#fff;}.k{opacity:.5;}.l{fill:#e2976d;}.m{fill:#4b4b4b;}.n{fill:url(#c);}.o{fill:#323232;}.p{fill:#d6a98a;}.q{fill:none;}.q,.h,.r,.s,.j{stroke-miterlimit:10;}.q,.h,.s{stroke:#51331e;}.t{fill:#d87912;}.u{fill:#e44030;}.v{fill:url(#b);}.w{fill:#b77c5c;}.x{fill:url(#d);}.y{fill:url(#e);}.r{fill:#f7ccb0;stroke:#965e38;}.s{fill:#ad5e09;}.a`{fill:#4c1b1b;}.j{stroke:#4c1b1b;stroke-width:.5px;}.aa{fill:#f279ef;}.ab{fill:#e2b49a;}.ac{fill:#3a0b0b;}</style><linearGradient id="b" x1="87.35" y1="211.82" x2="90.82" y2="132.3" gradientTransform="matrix(1, 0, 0, 1, 0, 0)" gradientUnits="userSpaceOnUse"><stop offset="0" stop-color="#f15b3a"/><stop offset=".58" stop-color="#f47256"/><stop offset="1" stop-color="#f8856d"/></linearGradient><linearGradient id="c" x1="79.89" y1="168.4" x2="97.77" y2="292.58" gradientTransform="matrix(1, 0, 0, 1, 0, 0)" gradientUnits="userSpaceOnUse"><stop offset="0" stop-color="#f15b3a"/><stop offset=".74" stop-color="#d45035"/><stop offset="1" stop-color="#ca4d34"/></linearGradient><linearGradient id="d" x1="90.92" y1="88.44" x2="91.25" y2="96.18" gradientTransform="matrix(1, 0, 0, 1, 0, 0)" gradientUnits="userSpaceOnUse"><stop offset="0" stop-color="#e8d9d7"/><stop offset=".4" stop-color="#efe5e3"/><stop offset="1" stop-color="#fff"/></linearGradient><linearGradient id="e" x1="64.39" y1="28.17" x2="58.12" y2="59.76" gradientTransform="matrix(1, 0, 0, 1, 0, 0)" gradientUnits="userSpaceOnUse"><stop offset="0" stop-color="#673024"/><stop offset=".34" stop-color="#52261c"/><stop offset=".68" stop-color="#462017"/><stop offset="1" stop-color="#421f16"/></linearGradient></defs><path class="k" d="M41.09,257.94c-1.36,0-2.66-.56-3.61-1.54s-1.44-2.31-1.39-3.67l.97-23.5v-.21c-7.02,5.18-8.73,5.59-9.96,5.72-.07,.01-.15,.02-.22,.03-.2,.03-.46,.05-.76,.05-.44,0-.88-.05-1.37-.15-3.09-.5-6.41-2.65-7.61-3.48-3.51-2.1-5.91-3.99-7.13-5.62l3.94-3.08-4,3c-.54-.72-1.96-2.61-1.89-5.89-.01-1.15,0-2.38,.07-3.76,.1-2.12,.28-4.45,.59-7.33-1.48-1.27-2.09-3.29-1.54-5.18,8.44-29.19,10.99-37.92,10.99-37.92,.06-.2,.13-.4,.21-.59,2.87-6.61,12.8-28.51,19.88-32.83,4.8-2.92,17.52-7.37,27.41-10.61l9.88-3.96c.17-.07,.35-.13,.53-.19,.04-.52,.09-1.25,.13-2.27,.01-.34,.03-.69,.04-1.05-2.92-2.91-8.91-9.08-10.12-11.87-.35-.81-.78-2.08-1.42-6.54-4.34-3.04-6.15-10.36-6.9-13.73-.93-2.11-2.61-7-.26-10.76,.37-.59,.96-1.35,1.87-2.01-.5-5.9-1.01-11.47-1.17-12.52-.27-1.2-.42-2.36-.48-3.56-.3-4.56,.85-7.62,2.23-9.62-.38-2.21-.17-4.37,.01-5.54,.91-5.94,4.25-11.17,9.02-14.21,8.38-10.98,27.27-15.81,29.45-16.34,.27-.07,.55-.11,.83-.13,.77-.05,1.53-.08,2.26-.08,4.06,0,8.61,.85,12.15,3.82,.89,.19,1.73,.62,2.43,1.29,5.67,5.47,9.02,11.61,10.72,14.82,.18,.13,.35,.28,.51,.45,2.9,2.92,10.19,15.25,7.29,27.53-.04,2.21-.19,4.7-.37,7.56-.12,1.95-.25,4.08-.36,6.43,1,.69,1.64,1.51,2.03,2.12,2.35,3.76,.67,8.65-.26,10.76-.82,3.69-2.93,12.15-8.41,14.47-.42,1.89-.77,3.38-.98,4.18-.62,2.37-4.7,7.57-8.47,12,.02,.82,.05,1.63,.08,2.39,.05,1.23,.11,2.07,.15,2.61,.05,.02,9,4.01,9,4.01,.2,.09,.4,.19,.58,.31,8.8,3.48,23.37,9.41,28.31,12.42,2.76,1.68,5.43,4.64,8.13,9.03,.33,.34,.62,.73,.85,1.16l1.93,3.65c7.35,13.89,13.28,34.76,15.1,53.18,.14,1.42-.33,2.83-1.3,3.88-.65,.7-1.47,1.2-2.37,1.44,.46,8.59-.62,14.37-3.32,18-2.93,3.93-9.59,6.66-21.37,8.7l1.11,19.43c.08,1.37-.41,2.72-1.36,3.72-.94,1-2.26,1.57-3.64,1.57H41.09Z"/><path class="i" d="M36.09,252.94c-1.36,0-2.66-.56-3.61-1.54s-1.44-2.31-1.39-3.67l.97-23.5v-.21c-7.02,5.18-8.73,5.59-9.96,5.72-.07,.01-.15,.02-.22,.03-.2,.03-.46,.05-.76,.05-.44,0-.88-.05-1.37-.15-3.09-.5-6.41-2.65-7.61-3.48-3.51-2.1-5.91-3.99-7.13-5.62l3.94-3.08-4,3c-.54-.72-1.96-2.61-1.89-5.89-.01-1.15,0-2.38,.07-3.76,.1-2.12,.28-4.45,.59-7.33-1.48-1.27-2.09-3.29-1.54-5.18,8.44-29.19,10.99-37.92,10.99-37.92,.06-.2,.13-.4,.21-.59,2.87-6.61,12.8-28.51,19.88-32.83,4.8-2.92,17.52-7.37,27.41-10.61l9.88-3.96c.17-.07,.35-.13,.53-.19,.04-.52,.09-1.25,.13-2.27,.01-.34,.03-.69,.04-1.05-2.92-2.91-8.91-9.08-10.12-11.87-.35-.81-.78-2.08-1.42-6.54-4.34-3.04-6.15-10.36-6.9-13.73-.93-2.11-2.61-7-.26-10.76,.37-.59,.96-1.35,1.87-2.01-.5-5.9-1.01-11.47-1.17-12.52-.27-1.2-.42-2.36-.48-3.56-.3-4.56,.85-7.62,2.23-9.62-.38-2.21-.17-4.37,.01-5.54,.91-5.94,4.25-11.17,9.02-14.21,8.38-10.98,27.27-15.81,29.45-16.34,.27-.07,.55-.11,.83-.13,.77-.05,1.53-.08,2.26-.08,4.06,0,8.61,.85,12.15,3.82,.89,.19,1.73,.62,2.43,1.29,5.67,5.47,9.02,11.61,10.72,14.82,.18,.13,.35,.28,.51,.45,2.9,2.92,10.19,15.25,7.29,27.53-.04,2.21-.19,4.7-.37,7.56-.12,1.95-.25,4.08-.36,6.43,1,.69,1.64,1.51,2.03,2.12,2.35,3.76,.67,8.65-.26,10.76-.82,3.69-2.93,12.15-8.41,14.47-.42,1.89-.77,3.38-.98,4.18-.62,2.37-4.7,7.57-8.47,12,.02,.82,.05,1.63,.08,2.39,.05,1.23,.11,2.07,.15,2.61,.05,.02,9,4.01,9,4.01,.2,.09,.4,.19,.58,.31,8.8,3.48,23.37,9.41,28.31,12.42,2.76,1.68,5.43,4.64,8.13,9.03,.33,.34,.62,.73,.85,1.16l1.93,3.65c7.35,13.89,13.28,34.76,15.1,53.18,.14,1.42-.33,2.83-1.3,3.88-.65,.7-1.47,1.2-2.37,1.44,.46,8.59-.62,14.37-3.32,18-2.93,3.93-9.59,6.66-21.37,8.7l1.11,19.43c.08,1.37-.41,2.72-1.36,3.72-.94,1-2.26,1.57-3.64,1.57H36.09Z"/><g><path class="r" d="M116.92,121.02s-6.8,10.25-23.55,10.25c-.17,0-4.37-.02-4.49-.02,0-.01,0-.02,0-.03-15.35-.74-21.63-10.2-21.63-10.2,0,0,7.74-4.28,8.5-6.18,.23-.59,.38-2.42,.48-4.66,.21-5.03,.15-12.14,.15-12.14h31.4s-.06,6.98,.15,12c.09,2.31,.24,4.2,.48,4.81,.76,1.9,8.5,6.18,8.5,6.18Z"/><path class="ab" d="M107.69,110.03l-9.46,8.02-11.76-.16-9.94-7.71c.21-5.03,.15-12.14,.15-12.14h30.86s-.06,6.98,.15,12Z"/><path class="v" d="M47.77,154.06c4.58-7.38,78.99-3.78,83.76,1.51,2.65,2.94-3.37,49.08-5.11,51.74-1.74,2.66-71.41,.88-73.31-1.8-1.9-2.68-8.38-46.54-5.33-51.45Z"/><path class="s" d="M111.19,117.07s1.93,5.28-7.65,8.96c-7.55,2.89-18.94,.47-20.85-.29-9.53-3.8-10.26-8.66-10.26-8.66l-10.03,4.02s5.72,7.67,14.56,10.66c11.55,3.9,27.22,1.15,30.39,0,8.77-3.18,12.69-10.73,12.69-10.73l-8.84-3.95Z"/><path class="n" d="M45.28,247.94h35.59c5.29-.71,9.26-1.28,9.26-1.28l21.44-6.84s19.99,.43,29.31-.73l-.68-13.54-51.54,7.51-50.2-3.25,.52,16.17s2.76,.93,6.3,1.96Z"/><path class="h" d="M37.09,208.73v.5l-.03,15.11-.97,23.6h108.66l-1.27-22.14-.04-20.04-.07-39.53,16.8-14.67s-5.52-14.28-11.8-18.11c-6.28-3.83-31.27-13.5-31.27-13.5,0,0-5.71,13.37-25.21,13.25-18.32-.11-25.95-13.25-25.95-13.25,0,0-23.77,7.49-30.05,11.32-6.28,3.83-17.9,30.55-17.9,30.55,0,0-2.55,8.73-10.99,37.91l11.8-6.47,18.29,15.46Z"/><g><g><path class="r" d="M123.78,67.51c6.04-.29,2.16,7.67,2.16,7.67-2.28,10.34-5.23,11.67-6.63,11.68-3.99,.02,.16-19.14,4.47-19.35Z"/><path class="p" d="M120.27,82.38s1.9-1.79,1.78-5.67c-.29-9.17,5.42-9.25,3.49-3.2,0,0-.48-2.98-1.28-2.18-.99,.99,.77,1.75-.65,6.33-.74,2.38-3.34,4.72-3.34,4.72Z"/></g><g><path class="r" d="M59.74,67.51c-6.04-.29-2.16,7.67-2.16,7.67,2.28,10.34,5.24,11.88,6.63,11.68,5.2-.74-.16-19.14-4.47-19.35Z"/><path class="p" d="M63.25,82.38s-1.9-1.79-1.78-5.67c.29-9.17-5.42-9.25-3.49-3.2,0,0,.48-2.98,1.28-2.18,.99,.99-.77,1.75,.65,6.33,.74,2.38,3.34,4.72,3.34,4.72Z"/></g><path class="r" d="M60.42,45.75s1.88,23.41,2.18,25.94c.31,2.53,1.97,20.67,3.14,23.37,1.17,2.69,16.17,18.28,20.27,19.47,4.1,1.2,9.47,1.07,12.65,0,3.05-1.03,17.21-18.04,17.82-20.36,.73-2.8,3.38-14.86,3.99-21.6,.61-6.74-.12-24.75-.73-26.48-.61-1.73-2.11-20.15-32.83-18.83-22.13,.95-26.49,18.49-26.49,18.49Z"/><path class="l" d="M76.24,91.38s2.75,2.18,4.2,5.33c1.45,3.15,5.9,5.17,11.56,5.09,5.66-.08,9.05-2.83,9.94-5.25,.89-2.42,4.67-5.75,4.67-5.75,0,0-16.47,5.27-30.37,.58Z"/><path class="ac" d="M98.82,59.65c-.22,.79-.05,1.5,.37,2.24-.19-.8,.35-2.08,.82-2.74,3.6-.05,6.84-.66,12.39,1.3,1.65,.59,3.15,3.21,3.15,3.21,0,0-1.41-1.26-5.75-1.45-3.78-.17-9.31,1.02-11.23,.76,0,0-.88-1.9,.25-3.33Z"/><path class="ac" d="M84.7,59.47c.24,.79,.08,1.5-.32,2.24,.17-.8-.4-2.07-.88-2.72-3.6,.02-6.85-.5-12.36,1.58-1.64,.62-3.08,3.29-3.08,3.29,0,0,.88-1.21,5.21-1.49,3.78-.24,9.83,.72,11.75,.42,0,0,.83-1.92-.33-3.32Z"/><g><path class="w" d="M92.55,87.85c2.98-.83,4.55-1.15,4.55-1.15-2.67-2.12-4.55,1.15-4.55,1.15Z"/><path class="w" d="M84.55,86.42s2.2,.57,4.54,1.46c0,0-1.76-3.25-4.54-1.46Z"/></g><g><path class="f" d="M104.7,91.38l1.9-.58s-.24,.76-.5,.98-3.26,.91-3.26,.91l1.86-1.31Z"/><path class="f" d="M77.67,91.57l-1.9-.58s.24,.76,.5,.98,3.26,.91,3.26,.91l-1.86-1.31Z"/><path class="ac" d="M76.48,91.36c.16,.17,.28,.4,.49,.49,3.81,1.69,3.86,3.29,5.49,4.18,5.79,3.12,12.53,2.36,17.07-.15,2.61-1.44,2.95-3.12,6.07-4.34,.42-.16,.5-.49,.5-.49-16.7,4.08-29.62,.31-29.62,.31Z"/><path class="i" d="M83.4,94.9c-.7-.13-1.01,1.1-1.01,1.1,2.12,1.55,4.68,2.13,8.76,2.16,5.45,.04,8.46-2.32,8.46-2.32,0,0-.77-1.19-1.66-1.01-1.53,.31-4.42,.89-7.06,.89-2.91,0-5.87-.53-7.48-.83Z"/><path class="x" d="M80.26,92.16s.05,1.43,1.51,2.06c.84,.36,2.73,1.8,10.08,1.58,7.35-.22,8.8-2,9.13-2.31,.62-.58,.91-1.55,.91-1.55,0,0-11.07,2.16-21.63,.23Z"/><path class="l" d="M75.57,90.91s1.07,.62,.91,.45c0,0,12.92,3.77,29.62-.31l.91-.45c-9.07,1.51-31.43,.31-31.43,.31Z"/></g><path class="y" d="M61.07,39.43s-4.8,1.69-2.91,11.04c0,0,1.64-9.79,7.26-10.8l-4.34-.25Z"/><path class="ac" d="M118.83,25.91c.17,3.01-2.71-7.04-11.15-15.2,0,0,4.04,6.47,2.06,9.55-.38-3.06-.12-14.24-15.07-13.19,0,0-32.62,7.88-29.46,25.1,0,0,1.74-3.88,2.22-9.82-7.98,4.44-8.78,15.08-6.58,17.26-.91,.75-4.25,4.02-2.69,10.87,.28,1.25,1.59,17.03,1.59,17.03,0,0,2.84,1.17,3.98,5.48,0-1.1,0-2.73,0-4.64,0-.02,.93-13.77,1.07-14.36,.12-.49,3.42-11.84,5.65-12.79,2.23-.94,11.28,1.57,17.6,1.56,6.32-.01,20.82-3.27,22.42-2.32,1.61,.95,7.38,12.51,7.7,13.18,.47,.99,2.1,15.24,2.1,15.24,0,0,0-.15,0-.41,.15,1.64,.25,2.98,.28,3.83,0,.1,0,.19,0,.28,.91-4.11,3.23-5.06,3.23-5.06,.28-7.96,.83-13.61,.89-17.94h0s-.05-.12,0-.3c2.72-10.27-3.69-21.19-5.85-23.36Z"/></g><path class="t" d="M42.94,210.13l4.72-8.39s0-7.72-.17-8.89c-.17-1.17-7.55-29.05-7.55-29.05-2.47,24.69,.44,34.97-1.83,42.37-1.87,6.12-11.54,8.18-11.54,8.18,0,0,3.93-.36,5.37-.24,4.72-2,2.64-.79,7.35-2.7l3.64-1.28Z"/><g><ellipse class="j" cx="104.88" cy="71.83" rx="6.3" ry="5.91"/><g><ellipse class="a`" cx="104.9" cy="71.8" rx="4.08" ry="3.83"/><ellipse class="i" cx="106.58" cy="69.58" rx="1.12" ry="1.05"/></g></g><g><ellipse class="j" cx="78.43" cy="71.91" rx="6.21" ry="5.83"/><g><ellipse class="a`" cx="78.45" cy="71.88" rx="4.02" ry="3.77"/><ellipse class="i" cx="80.11" cy="69.7" rx="1.1" ry="1.03"/></g></g><polygon class="g" points="155.88 147.85 157.48 151.04 158.85 156.97 145.17 168.37 143.11 152.41 155.88 147.85"/><path class="q" d="M40.75,202.44s-1.5-32.62-2.47-46.68"/><g><polygon class="u" points="138.2 174.11 87.08 138.72 33.78 209.37 85.8 246 138.2 174.11"/><g><polygon class="aa" points="143.37 179.46 95 140.41 36.64 206.95 85.83 247.3 143.37 179.46"/><rect class="o" x="97.81" y="168.58" width=".77" height="20.38" transform="translate(-103.91 151.24) rotate(-53.46)"/><polygon class="o" points="106.15 194.08 82.67 176.01 83.13 175.41 106.62 193.48 106.15 194.08"/><polygon class="o" points="102.35 198.5 78.86 180.43 79.33 179.83 102.82 197.9 102.35 198.5"/></g><path class="r" d="M141.66,198.92s-45.12,10.35-54.08,9.86c-3.17-.17-8.19-3.85-13.09-4.85-3.54-.72-9.45,1.15-12.93,.48-8.41-1.62-8.93,1.81-7.44,3.39,3.07,3.25,16.42,2.31,11.58,5.89-4.84,3.58-15.27,5.01-16.18,7.73-1.26,3.76-.63,3.27,3.87,4.82,2.57,.88,.89,3.05,3.07,5.33,2.18,2.29,4.01,3.11,7.4,4.81,3.39,1.69,5.38,4.19,11.43,1.33,6.05-2.86,12.68-8.65,16.81-9.86,3.53-1.03,66.13-.91,73.88-11.32,7.75-10.41-5.5-54.96-5.5-54.96,0,0-5.9,11.63-17.74,11.52l-1.09,25.83Z"/><path class="o" d="M88.83,208.42s1.97,10.24,2.01,14.32c.01,1.17,.79,5.68,.79,5.68,0,0,5.48-.43,7.6-.97,0,0-.72-10.95-2.72-20.25l-7.69,1.22Z"/><rect class="m" x="89.6" y="213.49" width="9.04" height="9.04" transform="translate(-23.41 11.68) rotate(-6.32)"/></g><g><path class="r" d="M96.12,169.15c-.04,.1-.07,.19-.1,.25-.39,.77-2.21,2.85-2.83,3.31-.62,.46-6.8,5.07-8.04,5.99-.05,.04-.12,.07-.18,.11h.02s-.07,.03-.11,.05c-.04,.02-.09,.04-.13,.06-2.38,1.04-7.51,1.83-8.66,2.46-.11,.06-.59,.45-.59,.45,0,0-33.13,27.76-33.47,28.03-.6,.48-17.83,14.67-20.62,14.94h-.03s-.1,.03-.14,.03c-.14,.02-.33,0-.57-.06-2.37-.32-5.77-2.75-5.78-2.76-2.5-1.48-4.96-3.23-5.84-4.41-.37-.5-1.01-1.24-.95-2.94-.02-1.13,0-2.32,.07-3.57,.16-3.59,.61-7.73,1.24-12.69,1.72-2.62,12.09-11.61,26.15-16.33-.02,.06-.05,.12-.07,.19,4.74-2.46,9.05-4.36,11.54-5.41,2.31-1.32,4.25-2.52,5.59-3.37l2.66-2,6.64-5.15s1.13-8.38,1.01-10.37c-.09-1.36-.68-7.03-.68-7.03l-.12-9.1c-.06-.45-.13-.81-.19-1.01,0,0-2.59-4.33-2.02-5.39,.06-.12,.15-.2,.25-.25,.24-.29,.7-.62,1.33-.76h0s.02,0,.03,0c0,0,.02,0,.02,0,.28-.05,1.65-.63,4.34,1.7,2.09,1.81,3.47,3.9,4.17,7.96,.26,1.53,.77,4.8,1.23,5.41,.44,.59,3.07,1.22,3.35,1.29l1.74-.27s1.3-.7,2.84-1.52c.59-.32,4.26-2.33,4.98-2.64,.78-.34,2.31-.24,3.41,1.02,.62,.7,.96,1.59,1.1,2.37h0s.14,.59,.05,1.15h0c-.02,.11-.04,.22-.08,.32,0,0,1.61,0,2.73,2.05,.05,.09,.08,.17,.12,.26,.07,.13,.14,.26,.2,.4,.29,.64,.45,1.2,.55,1.66,0,0,0,.05,.03,.12,.02,.1,.03,.19,.04,.27,.01,.09,.03,.18,.04,.28h0c.02,.19,.03,.36,.02,.52,0,.05,0,.08,0,.08,0,0,.09,0,.24,.04,.5,.11,1.71,.52,2.34,2.12,.28,.71,.4,1.37,.44,1.92h0s.02,.23,0,.57c0,.09,0,.16-.01,.24,0,.02,0,.03,0,.05-.04,.53-.14,.85-.14,.85,0,0,.94,.95,1.55,1.72,.2,.25,.36,.47,.45,.64,.34,.66-.53,4.67-1.11,6.19Z"/><path class="ab" d="M96.45,169.17c-.04,.1-.07,.19-.1,.24-.39,.76-2.21,2.82-2.83,3.28-.62,.46-6.8,5.03-8.04,5.94-.05,.03-.12,.07-.18,.11h.02s-.07,.03-.11,.05c-.04,.02-.09,.04-.13,.06-2.38,1.03-7.51,1.81-8.66,2.43-.11,.06-.59,.44-.59,.44,0,0-33.13,27.51-33.47,27.78-.6,.47-17.83,14.53-20.62,14.81h-.03s-.1,.03-.14,.03c-.14,.02-.33,0-.57-.06-2.37-.32-5.77-2.73-5.78-2.73-2.5-1.47-4.96-3.2-5.84-4.37-.37-.5-1.01-1.23-.95-2.92-.02-1.12,0-2.3,.07-3.54,6.19,12.3,18.11,5.96,18.11,5.96,0,0,44.47-35.7,47.51-37.37,3.04-1.68,9.12-2.46,9.12-2.46,0,0,6.53-4.46,9.57-6.25,2.3-1.35,3.76-6.01,4.33-8.21,.2,.24,.36,.47,.45,.64,.34,.65-.53,4.63-1.11,6.14Z"/></g><path class="h" d="M155.54,141.72l1.93,3.65c7.69,14.52,12.93,34.98,14.55,51.33h0l-30.55-.48-5.22-39.16"/><path class="r" d="M141.66,198.92s6.87-.48,10.27,4.04"/></g></svg>