<?xml version="1.0" encoding="UTF-8"?><svg xmlns="http://www.w3.org/2000/svg" viewBox="0 0 205.97 204.05"><defs><style>.b{fill:#c13352;}.c{fill:#d32d50;}.d,.e,.f{fill:#89b979;}.g,.h,.i{fill:#f4a8b3;}.j{fill:#639a26;}.k{fill:#fff;}.l{opacity:.5;}.m,.n,.o{fill:#d4688c;}.p{isolation:isolate;}.q{fill:#e94e6a;}.n{stroke:#893354;}.n,.r,.h,.s,.i{stroke-miterlimit:10;}.r{stroke:#c61738;}.r,.t,.u,.s,.v,.w{fill:#f088a1;}.h{stroke:#aa3047;}.e,.o,.t,.v{mix-blend-mode:multiply;}.x{fill:#d33356;}.t{opacity:.4;}.u,.f{mix-blend-mode:screen;}.y{fill:#c61e4b;}.s{stroke:#ce3e3e;}.i{stroke:#db2e58;}.v{opacity:.8;}</style></defs><g class="p"><g id="a"><g><path class="l" d="M108.15,201.05c-2.2,0-4.16-.31-5.84-.93-1.96-.72-3.33-2.46-3.56-4.55-.05-.48-.04-.74-.04-.74l-1-75.39c-6.08,5.48-13.47,9.37-19.73,10.95-3.24,.81-6.69,1.23-10.28,1.23-5.83,0-11.51-1.09-16.43-3.14-4.26-1.78-8.3-4.22-12.34-7.46-.76-.61-1.52-1.29-2.33-2.01-1.47-1.31-3.12-2.78-4.63-3.7-1.03-.34-1.99-.58-2.93-.73-1.93-.28-3.55-1.63-4.17-3.51-.79-2.41,.33-4.65,1.54-5.83,2.04-2.03,4.23-3.9,6.55-5.61-5.02-2.25-9.46-4.98-13.24-8.17-.91-.77-1.87-1.63-2.93-2.64l-.5-.48c-1-.97-1.89-1.9-2.72-2.82-.05-.05-.16-.18-.17-.19-.52-.58-1.03-1.17-1.52-1.78-.04-.04-.48-.49-.48-.49-.99-1-2.34-2.36-3.06-4.23-.92-2.41,.13-5.12,2.44-6.27,3.19-1.58,6.6-2.26,9.55-2.77,4.91-.85,9.87-1.4,14.74-1.63,1.68-.08,3.41-.13,5.14-.14-1.35-2.51-2.59-5.14-3.72-7.87-2.34-5.66-3.88-11.64-4.58-17.77-.37-3.32-.53-6.63-.69-9.83-.05-1-.09-1.99-.15-2.98-.14-2.56,1.68-4.81,4.21-5.21,.22-.03,.44-.06,.67-.08l.19-.02c.81-.1,1.7-.15,2.6-.15,1.22,0,2.51,.09,3.82,.28,.04,0,.12,.02,.16,.02,.39,.06,.86,.13,1.33,.22l.28,.06s.11,.02,.17,.03c.37,.07,.69,.13,1,.2,.21,.05,1.41,.33,1.41,.33,.48,.12,.95,.24,1.43,.37,4.42,1.19,8.33,2.64,11.87,4.4,.26-.51,.54-1.02,.84-1.51,.03-.04,.05-.09,.08-.13,.16-.25,.32-.5,.48-.74,.97-1.37,2.51-2.12,4.09-2.12,.8,0,1.6,.19,2.35,.59,.8,.43,1.52,.82,2.18,1.19,1.27-4.11,2.93-7.88,4.95-11.26,.17-.29,.36-.62,.56-.98,.87-1.55,2.07-3.66,3.62-5.38,.98-1.09,2.34-1.65,3.72-1.65,.99,0,1.99,.29,2.86,.9,1.45,1.01,3,2.11,4.54,3.31,3.5,2.72,6.58,6.1,9.68,10.63,1.1,1.61,2.2,3.33,3.28,5.15,.48-.42,.95-.85,1.43-1.28l.28-.26c1.02-.93,2.34-1.44,3.71-1.44,.1,0,.23,0,.32,0,.05,0,.1,0,.15,.01,1.41,.12,2.72,.79,3.65,1.85,3.49-4.76,7.48-8.93,11.91-12.45,1.24-.98,3.11-2.47,5.71-2.47,1.81,0,4.39,.71,6.38,4.07,1.72,2.89,3.21,6.11,4.21,9.1,1.32,.29,2.51,1.06,3.31,2.18,.43,.6,.81,1.25,1.16,1.89,2.58-1.83,5.15-3.51,7.69-5.02l.88-.53c2.59-1.55,5.53-3.31,8.78-4.48l.09-.04c1.5-.66,2.76-.96,3.98-.96s2.31,.31,3.26,.9c2.76,1.74,3.19,4.52,3.36,5.57,.01,.08,.02,.16,.04,.24,1.85,7.58,2.25,14.57,1.19,21.31-.23,1.46-.48,3-.79,4.6,4.32-1.13,8.51-1.71,12.42-1.71,4.77,0,9.19,.85,13.13,2.52,1.81,.73,3,2.42,3.19,4.32,.04,.24,.06,.48,.07,.73,.05,1.86-.88,3.47-1.78,4.35-1.16,1.19-2.38,2.46-3.59,3.73-7.74,8.07-15.74,16.41-25.81,22.23-.41,.24-.83,.47-1.24,.7,.86,.69,1.71,1.34,2.57,1.93,1.3,.89,2.12,2.31,2.25,3.88,.14,1.65-.53,3.38-1.8,4.61-5.21,5.15-11.72,10.8-20.26,13.44-7.37,2.28-14.83,3.39-22.81,3.39-.65,0-1.3,0-1.95-.02-3.37-.08-6.44-.36-9.28-.84,1.07,69.14,1.04,79.41,.92,81-.18,2.32-1.8,4.28-4.03,4.88-2.71,.73-5.55,1.13-7.99,1.13Z"/><path class="k" d="M103.15,196.05c-2.2,0-4.16-.31-5.84-.93-1.96-.72-3.33-2.46-3.56-4.55-.05-.48-.04-.74-.04-.74l-1-75.39c-6.08,5.48-13.47,9.37-19.73,10.95-3.24,.81-6.69,1.23-10.28,1.23-5.83,0-11.51-1.09-16.43-3.14-4.26-1.78-8.3-4.22-12.34-7.46-.76-.61-1.52-1.29-2.33-2.01-1.47-1.31-3.12-2.78-4.63-3.7-1.03-.34-1.99-.58-2.93-.73-1.93-.28-3.55-1.63-4.17-3.51-.79-2.41,.33-4.65,1.54-5.83,2.04-2.03,4.23-3.9,6.55-5.61-5.02-2.25-9.46-4.98-13.24-8.17-.91-.77-1.87-1.63-2.93-2.64l-.5-.48c-1-.97-1.89-1.9-2.72-2.82-.05-.05-.16-.18-.17-.19-.52-.58-1.03-1.17-1.52-1.78-.04-.04-.48-.49-.48-.49-.99-1-2.34-2.36-3.06-4.23-.92-2.41,.13-5.12,2.44-6.27,3.19-1.58,6.6-2.26,9.55-2.77,4.91-.85,9.87-1.4,14.74-1.63,1.68-.08,3.41-.13,5.14-.14-1.35-2.51-2.59-5.14-3.72-7.87-2.34-5.66-3.88-11.64-4.58-17.77-.37-3.32-.53-6.63-.69-9.83-.05-1-.09-1.99-.15-2.98-.14-2.56,1.68-4.81,4.21-5.21,.22-.03,.44-.06,.67-.08l.19-.02c.81-.1,1.7-.15,2.6-.15,1.22,0,2.51,.09,3.82,.28,.04,0,.12,.02,.16,.02,.39,.06,.86,.13,1.33,.22l.28,.06s.11,.02,.17,.03c.37,.07,.69,.13,1,.2,.21,.05,1.41,.33,1.41,.33,.48,.12,.95,.24,1.43,.37,4.42,1.19,8.33,2.64,11.87,4.4,.26-.51,.54-1.02,.84-1.51,.03-.04,.05-.09,.08-.13,.16-.25,.32-.5,.48-.74,.97-1.37,2.51-2.12,4.09-2.12,.8,0,1.6,.19,2.35,.59,.8,.43,1.52,.82,2.18,1.19,1.27-4.11,2.93-7.88,4.95-11.26,.17-.29,.36-.62,.56-.98,.87-1.55,2.07-3.66,3.62-5.38,.98-1.09,2.34-1.65,3.72-1.65,.99,0,1.99,.29,2.86,.9,1.45,1.01,3,2.11,4.54,3.31,3.5,2.72,6.58,6.1,9.68,10.63,1.1,1.61,2.2,3.33,3.28,5.15,.48-.42,.95-.85,1.43-1.28l.28-.26c1.02-.93,2.34-1.44,3.71-1.44,.1,0,.23,0,.32,0,.05,0,.1,0,.15,.01,1.41,.12,2.72,.79,3.65,1.85,3.49-4.76,7.48-8.93,11.91-12.45,1.24-.98,3.11-2.47,5.71-2.47,1.81,0,4.39,.71,6.38,4.07,1.72,2.89,3.21,6.11,4.21,9.1,1.32,.29,2.51,1.06,3.31,2.18,.43,.6,.81,1.25,1.16,1.89,2.58-1.83,5.15-3.51,7.69-5.02l.88-.53c2.59-1.55,5.53-3.31,8.78-4.48l.09-.04c1.5-.66,2.76-.96,3.98-.96s2.31,.31,3.26,.9c2.76,1.74,3.19,4.52,3.36,5.57,.01,.08,.02,.16,.04,.24,1.85,7.58,2.25,14.57,1.19,21.31-.23,1.46-.48,3-.79,4.6,4.32-1.13,8.51-1.71,12.42-1.71,4.77,0,9.19,.85,13.13,2.52,1.81,.73,3,2.42,3.19,4.32,.04,.24,.06,.48,.07,.73,.05,1.86-.88,3.47-1.78,4.35-1.16,1.19-2.38,2.46-3.59,3.73-7.74,8.07-15.74,16.41-25.81,22.23-.41,.24-.83,.47-1.24,.7,.86,.69,1.71,1.34,2.57,1.93,1.3,.89,2.12,2.31,2.25,3.88,.14,1.65-.53,3.38-1.8,4.61-5.21,5.15-11.72,10.8-20.26,13.44-7.37,2.28-14.83,3.39-22.81,3.39-.65,0-1.3,0-1.95-.02-3.37-.08-6.44-.36-9.28-.84,1.07,69.14,1.04,79.41,.92,81-.18,2.32-1.8,4.28-4.03,4.88-2.71,.73-5.55,1.13-7.99,1.13Z"/><g><g><g><path class="d" d="M109.71,189.64c.41-5.44-2-148.12-2-148.12l-10.5-.5,1.98,148.81s0,.06,0,.15c2.88,1.06,7.19,.55,10.51-.34Z"/><path class="j" d="M103.15,191.05h0c-1.61,0-2.99-.21-4.12-.62-.17-.06-.29-.22-.31-.4-.01-.13-.01-.2-.01-.2l-1.98-148.81c0-.13,.05-.26,.15-.35,.09-.09,.23-.14,.35-.13l10.5,.5c.25,.01,.45,.22,.46,.48,.02,3.8,2.4,142.76,2,148.15-.02,.2-.16,.37-.35,.43-2.29,.61-4.67,.95-6.68,.95Zm-3.48-1.41c2.27,.72,5.93,.56,9.59-.37,.35-7.77-1.99-140.36-2.02-147.29l-9.55-.45,1.98,148.11Z"/></g><path class="e" d="M106.98,189.75c.86-.16,1.49-.27,2.27-.48,.41-5.44-1.54-147.74-1.54-147.74l-10.5-.5v39.14c1.29-1.22,2.45-2.5,3.91-3.64,.39-.31,5.28,97.81,5.86,113.22Z"/><path class="f" d="M100.17,130.14c-.29-10.07-.55-20.14-.72-30.21-.17-10.19-.42-20.39-.3-30.59,.11-9.4,.35-18.8,.3-28.21l-2.25-.11s2.46,148.51,2.47,148.6c.95,.35,2.06,.41,3.23,.46-.16-3.57-2.63-56.4-2.73-59.94Z"/></g><path class="n" d="M192.9,51.64c.05-.18,.03-.34-.15-.42-11.04-4.68-24.75-.89-34.91,4.23-5.69,2.87-10.84,6.55-15.54,10.84-2.24,2.05-4.3,4.28-6.17,6.67-.33,.42-3.44,5.77-3.57,6.04-.06-.05-.13-.09-.2-.13-.23-.17-.59,.13-.69,.42-.48-.15-.94-.35-1.39-.61-.15-.08-.4,.22-.26,.32,.63,.45,1.32,.75,2.06,.93,9.73,7.55,22.54,3.27,32.19-2.3,11-6.34,19.62-16.18,28.38-25.17,.15-.15,.43-.65,.23-.83Z"/><path class="m" d="M132.91,79.24c4.82-10.87,17.17-19.08,27.49-24,8.92-4.25,20.64-6.49,30.37-3.55-9.21,.9-18.65,6.2-26.35,10.76-5.08,3-9.92,6.44-14.8,9.76-4.03,2.75-10.51,7.86-16.12,7.44-.2-.13-.4-.27-.6-.41Z"/><path class="o" d="M178.35,54.35c-7.12,2.43-13.61,6.3-20.39,9.5-.31,.14-.75-.1-.62-.48,1.06-3.21,2.9-6.34,5.22-9.08-.73,.31-1.46,.63-2.16,.96-10.32,4.92-22.67,13.13-27.49,24,.2,.14,.4,.28,.6,.41,5.61,.42,12.09-4.69,16.12-7.44,4.87-3.32,9.72-6.76,14.8-9.76,6.29-3.72,13.74-7.94,21.28-9.86-2.5,.35-4.96,.93-7.36,1.75Z"/><path class="g" d="M167.68,74.36c-9.33,6.42-22.78,11.84-33.37,5.78,2.63-.1,5.44-1.2,7.5-2.15,4.99-2.32,9.46-6.07,14.09-9.02,5.81-3.7,11.39-7.47,17.63-10.46,5.45-2.61,11.71-5.39,17.85-5.8-7.47,7.69-14.83,15.55-23.7,21.66Z"/><path class="t" d="M178.68,63.74c-6,5.25-13.42,10.4-21.25,12.35-.49,.12-.7-.5-.33-.77,3.42-2.48,6.47-5.41,9.69-8.14-4.85,2.53-9.47,5.49-14.32,8.03-.42,.22-.85-.31-.51-.66,3.33-3.49,6.87-6.73,10.54-9.81-2.2,1.38-4.39,2.81-6.61,4.22-4.63,2.95-9.1,6.7-14.09,9.02-2.06,.95-4.87,2.05-7.5,2.15,10.59,6.06,24.04,.64,33.37-5.78,8.7-5.99,15.94-13.66,23.26-21.21-4.54,2.78-8.16,6.99-12.26,10.59Z"/><path class="y" d="M100.08,89.39c-.06,.13-.13,.26-.19,.4-.03,.01-.06,.02-.1,.04-.05,.03-.1,.06-.15,.09-.01-.12,0-.24-.02-.37-.04-.54-.79,.09-.82,.4-.01,.13-.03,.26-.05,.39-3.22,1.27-6.8-.08-10.07-.66-3.57-.63-7.11-1.4-10.65-2.16-6.79-1.46-13.71-.57-20.5,.55-12.53,2.06-23.56,6.7-32.61,15.72-.13,.13-.55,.78-.11,.84,1.48,.23,2.89,.62,4.26,1.1,2.98,1.67,5.84,4.64,7.99,6.38,3.44,2.76,7.08,5.05,11.15,6.75,7.1,2.97,16.1,3.55,23.55,1.68,12.16-3.06,27.84-15.48,27.92-29.32,.11-.22,.21-.45,.31-.69,.15-.15,.23-.39,.22-.56,.08-.2,.16-.39,.23-.59,.11-.32-.28-.15-.36,.03Z"/><path class="m" d="M64.8,88.07c7.59-.78,14.41,.96,21.8,2.31,3.85,.7,8.27,2.32,12.05,.84-.05,.4-.12,.8-.19,1.2-6.79,11.04-21.42,18.27-33.57,20.24-6.83,1.1-14.29,.7-20.95-1.14-5.28-1.45-9.48-4.88-14.47-6.78-.61-.27-1.21-.47-1.82-.6-.53-.15-1.07-.29-1.62-.4,10.71-10.24,24.2-14.17,38.77-15.67Z"/><path class="v" d="M86.6,90.37c-7.39-1.35-14.21-3.09-21.8-2.31-10.16,1.05-19.8,3.29-28.33,8.01,4.58-.66,9.3-.24,14.03,.58,9.6,1.67,19.16,2.64,28.91,1.98,.35-.02,.58,.49,.3,.72-3.59,2.9-7.96,5.19-12.62,6.77,4.85-1.42,9.65-3.25,14.52-4.53,.33-.09,.7,.31,.47,.62-3.79,5.25-9.59,8.35-15.75,10.15,11.84-2.28,25.59-9.36,32.11-19.97,.07-.4,.13-.8,.19-1.2-3.78,1.48-8.19-.14-12.05-.84Z"/><path class="g" d="M63.74,120.38c-8.52,.33-16.74-2.58-23.6-7.48-1.55-1.1-3.46-2.97-5.53-4.71,4.15,2.12,8.22,4.5,12.91,5.42,7.51,1.46,15.16,1.28,22.56-.65,10.09-2.63,22.12-9.37,28.01-18.82-3.65,15.22-18.93,25.64-34.36,26.24Z"/><g><g><path class="w" d="M77.59,73.87c-.15,0-.37,.38-.23,.38,.15,0,.37-.38,.23-.38Z"/><path class="q" d="M77.36,74.72c-.13,0-.27-.07-.36-.16-.09-.09-.16-.23-.16-.36,0-.32,.32-.81,.75-.81,.13,0,.27,.07,.36,.16,.09,.09,.16,.23,.16,.36,0,.32-.32,.81-.75,.81Z"/></g><g><path class="w" d="M134.38,41.66c-.36-6.49-1.29-13.29-3.3-19.49-.92-2.81-2.31-5.79-3.82-8.33-1.28-2.15-2.24-1.49-3.97-.11-9.63,7.64-16.8,18.7-20.65,30.34-2.44,7.37-3.5,15.03-3.3,22.78,.1,3.85,.73,7.55,1.73,11.26,.52,1.91,1.12,3.79,1.84,5.64,.12,.3,.24,.65,.39,1,.23,1.44,.7,2.81,1.65,4.01,1.46,1.81,4.93,2.01,6.89,1.17,5.41-2.3,9.82-6.68,13.26-11.35,7.63-10.36,9.97-24.33,9.28-36.92Z"/><path class="c" d="M109.25,90.89h0c-2,0-3.75-.68-4.67-1.83-.91-1.14-1.48-2.52-1.75-4.23-.05-.1-.13-.3-.2-.49l-.16-.41c-.7-1.82-1.32-3.73-1.85-5.69-1.08-4-1.66-7.73-1.75-11.37-.21-7.94,.91-15.66,3.32-22.95,4.06-12.28,11.45-23.14,20.8-30.57,1.05-.83,1.8-1.38,2.6-1.38,1.01,0,1.67,.93,2.08,1.62,1.6,2.69,2.97,5.68,3.87,8.43,1.79,5.52,2.91,12.12,3.32,19.61,.47,8.52-.13,24.68-9.38,37.23-4.12,5.59-8.65,9.46-13.45,11.51-.77,.33-1.76,.51-2.78,.51ZM125.59,12.93c-.48,0-1.14,.49-2,1.17-9.21,7.32-16.49,18.01-20.49,30.12-2.38,7.18-3.48,14.8-3.27,22.62,.09,3.57,.65,7.22,1.71,11.15,.52,1.92,1.13,3.8,1.82,5.59l.16,.42c.07,.18,.14,.38,.22,.57,.27,1.65,.78,2.89,1.58,3.89,.74,.92,2.21,1.47,3.93,1.47h0c.89,0,1.75-.16,2.41-.44,4.65-1.98,9.04-5.75,13.06-11.2,9.06-12.31,9.65-28.22,9.19-36.61-.41-7.41-1.51-13.93-3.27-19.37-.87-2.68-2.22-5.6-3.78-8.24-.61-1.03-1.01-1.15-1.26-1.15Z"/></g><path class="v" d="M134.38,41.66c-.36-6.49-1.29-13.29-3.3-19.49-.23-.71-.49-1.43-.78-2.14-.87,2.13-2.06,4.14-3.29,5.87-3.21,4.5-7.76,9.12-13.08,10.97-.26,.09-.65-.1-.69-.4-.75-5.35,.28-10.65,2.49-15.48-5.86,6.7-10.33,14.74-13.09,23.09-2.44,7.37-3.5,15.03-3.3,22.78,.1,3.85,.73,7.55,1.73,11.26,.52,1.91,1.12,3.79,1.84,5.64,.12,.3,.24,.65,.39,1,.23,1.44,.7,2.81,1.65,4.01,1.46,1.81,4.93,2.01,6.89,1.17,5.41-2.3,9.82-6.68,13.26-11.35,7.63-10.36,9.97-24.33,9.28-36.92Z"/><g><path class="w" d="M163.41,21.15c-.21-.87-.14-1.9-.95-2.41-.6-.37-2.05,.41-2.5,.57-3.11,1.1-5.99,2.92-8.81,4.6-5.62,3.34-11.13,7.4-16.1,11.64-7.58,6.48-15.02,13.58-20.33,22.1-2.65,4.27-4.73,8.94-6.57,13.61-.86,2.17-1.56,4.39-2.12,6.64-.12,.49-.23,.99-.32,1.49-.01,.01-.02,.03-.03,.05-.75,2.42-2.1,4.98-1.62,7.55,.54,2.89,5.06,2.74,7.13,2.68,6.22-.17,12.62-2.73,18.11-5.55,11.72-6.02,22.26-13.48,29.28-24.86,3.6-5.84,4.88-12.21,5.93-18.89,1.02-6.47,.43-12.9-1.11-19.21Z"/><path class="b" d="M109.96,90.17c-1.43,0-5.77,0-6.35-3.09-.39-2.11,.34-4.14,1.05-6.1,.21-.57,.41-1.13,.58-1.68,0-.02,.02-.04,.03-.07,.09-.48,.19-.97,.31-1.44,.58-2.32,1.3-4.58,2.14-6.7,2.27-5.76,4.3-9.98,6.61-13.69,5.58-8.97,13.45-16.26,20.42-22.21,5.24-4.48,10.83-8.52,16.16-11.69l.89-.53c2.54-1.52,5.18-3.1,8-4.1,.07-.03,.18-.07,.31-.13,.73-.32,1.97-.78,2.6-.39,.8,.51,.94,1.35,1.05,2.09,.03,.21,.06,.41,.11,.61,1.7,6.97,2.07,13.32,1.12,19.4-.99,6.35-2.27,13.05-5.99,19.07-6.19,10.02-15.28,17.74-29.47,25.04-7.05,3.62-13.04,5.45-18.31,5.6-.38,.01-.8,.02-1.26,.02ZM162.04,19.12c-.44,0-1.13,.3-1.55,.48-.15,.07-.28,.12-.37,.16-2.74,.97-5.33,2.52-7.83,4.02l-.9,.54c-5.29,3.14-10.83,7.15-16.03,11.59-6.91,5.9-14.72,13.14-20.23,21.99-2.27,3.66-4.29,7.83-6.53,13.53-.82,2.08-1.53,4.3-2.1,6.58-.12,.48-.22,.97-.31,1.46-.01,.07-.04,.13-.08,.18-.14,.48-.35,1.06-.56,1.64-.67,1.84-1.36,3.75-1.01,5.6,.29,1.56,2.07,2.31,5.42,2.31,.45,0,.86-.01,1.21-.02,5.15-.14,11.01-1.94,17.93-5.5,14.03-7.21,23-14.82,29.1-24.69,3.63-5.87,4.88-12.46,5.86-18.72,.93-5.95,.57-12.18-1.1-19.02-.05-.22-.09-.45-.13-.69-.11-.72-.21-1.18-.61-1.43,0,0-.05-.03-.17-.03Z"/></g><path class="t" d="M163.41,21.15c-.2-.83-.15-1.83-.88-2.35-1.62,3.65-2.96,7.41-4.76,10.98-1.98,3.92-4.44,7.64-7.08,11.15-5.11,6.81-11.06,13.01-17.26,18.85-6.12,5.76-12.62,11.13-19.35,16.17-3.07,2.3-6.21,4.53-9.46,6.56-.48,1.47-.83,2.97-.55,4.47,.54,2.89,5.06,2.74,7.13,2.68,6.22-.17,12.62-2.73,18.11-5.55,11.72-6.02,22.26-13.48,29.28-24.86,3.6-5.84,4.88-12.21,5.93-18.89,1.02-6.47,.43-12.9-1.11-19.21Z"/><path class="t" d="M163.41,21.15c-.18-.74-.16-1.61-.67-2.16,.09,19.73-8.28,38.95-22.68,52.48-.5,.47-1.13-.12-.89-.68,2.54-5.96,3.1-12.53,2.19-18.9-2.57,2.71-5.22,5.34-7.94,7.89-6.12,5.76-12.62,11.13-19.35,16.17-3.07,2.3-6.21,4.53-9.46,6.56-.48,1.47-.83,2.97-.55,4.47,.54,2.89,5.06,2.74,7.13,2.68,6.22-.17,12.62-2.73,18.11-5.55,11.72-6.02,22.26-13.48,29.28-24.86,3.6-5.84,4.88-12.21,5.93-18.89,1.02-6.47,.43-12.9-1.11-19.21Z"/><path class="r" d="M102.68,42.76c-3.17-7.58-7.01-15.3-11.65-22.09-2.45-3.58-5.18-6.84-8.62-9.51-1.41-1.1-2.87-2.14-4.34-3.16-1.52,1.69-2.78,4.2-3.6,5.58-3.33,5.57-5.31,11.87-6.32,18.24-2.11,13.34,1.49,26.64,9.73,37.26,3.01,3.88,6.95,7.46,11.09,10.08,4.58,2.89,9.51,4.16,14.75,5.27,2.23,.48,5.72,1.3,8.14,.22-.33-14.33-3.7-28.77-9.19-41.89Z"/><path class="v" d="M102.68,42.76c-3.17-7.58-7.01-15.3-11.65-22.09-2.45-3.58-5.18-6.84-8.62-9.51-.63-.49-1.27-.96-1.92-1.43,5.44,9.97,7.32,22.51,4.07,32.97-.14,.46-.79,.57-1.03,.14-2.51-4.39-5.26-8.72-8.62-12.52-1.49-1.69-3.03-3.38-4.75-4.84-.16-.14-.34-.29-.53-.45-.63,2.24-1.12,4.51-1.48,6.79-2.11,13.34,1.49,26.64,9.73,37.26,3.01,3.88,6.95,7.46,11.09,10.08,4.58,2.89,9.51,4.16,14.75,5.27,2.23,.48,5.72,1.3,8.14,.22-.33-14.33-3.7-28.77-9.19-41.89Z"/><path class="n" d="M87.58,79.15c-8.61-4.43-18.04-7.38-27.57-9.03-9.72-1.68-19.83-2.47-29.69-2-4.73,.23-9.46,.76-14.13,1.57-2.79,.48-5.64,1.06-8.17,2.32,.49,1.28,2.07,2.53,2.74,3.35,2.15,2.63,4.59,5.06,7.19,7.25,10.32,8.69,24.76,12.62,37.96,13.88,11.71,1.11,23.96,.24,35.21-3.32,3.76-1.18,7.99-2.33,11.57-4.24-4.8-3.62-9.75-7.03-15.1-9.78Z"/><path class="h" d="M59.23,86.51c-4.18-1.39-8.3-2.96-12.33-4.74-4.71-2.08-9.22-4.63-13.99-6.57-4.88-1.98-9.67-2.9-14.93-2.99-3.15-.05-6.44-.06-9.57,.54,.68,1.01,1.8,1.95,2.34,2.61,2.15,2.63,4.59,5.06,7.19,7.25,10.32,8.69,24.76,12.62,37.96,13.88,11.71,1.11,23.96,.24,35.21-3.32,3.76-1.18,7.99-2.33,11.57-4.24-.04-.03-.08-.06-.11-.09-13.86,4.64-29.64,2.18-43.33-2.34Z"/><path class="t" d="M21.08,74.82c4.31,1.35,8.37,3.37,12.33,5.53,7.48,4.09,14.94,7.98,23.22,10.21,10.9,2.93,22.56,3.53,33.33,.65-10.34,.64-21.06-1.51-30.73-4.7-4.18-1.39-8.3-2.96-12.33-4.74-4.71-2.08-9.22-4.63-13.99-6.57-4.88-1.98-9.67-2.9-14.93-2.99-2.69-.05-5.49-.06-8.2,.31,3.7,1.02,7.6,1.15,11.3,2.3Z"/><path class="v" d="M87.58,79.15c-8.61-4.43-18.04-7.38-27.57-9.03-5.87-1.01-11.89-1.7-17.9-1.98,4.61,9.39,13.61,17.08,23.38,20.31,.49,.16,.58,.97,0,1.09-12.15,2.49-24.8,.89-36.3-3.64-5.39-2.13-10.43-4.83-15.38-7.82-.54-.33-1.06-.66-1.58-.99,1.77,1.97,3.69,3.83,5.71,5.53,10.32,8.69,24.76,12.62,37.96,13.88,11.71,1.11,23.96,.24,35.21-3.32,3.76-1.18,7.99-2.33,11.57-4.24-4.8-3.62-9.75-7.03-15.1-9.78Z"/><path class="s" d="M90.65,83.98c-.83-4.32-1.79-8.72-3.15-12.9-2.9-8.88-6.91-17.31-13.2-24.29-5.67-6.29-12.26-12.42-19.73-16.49-3.98-2.16-8.16-3.69-12.53-4.87-3.58-.97-7.3-1.73-10.97-1.16,.23,4.18,.34,8.37,.81,12.52,.65,5.66,2.06,11.16,4.24,16.43,3.8,9.18,9.49,18.38,17.07,24.93,8.43,7.28,19.07,9.25,29.95,9.05,2.33-.04,5.06,.05,7.84-.03-.04-1.08-.12-2.15-.32-3.19Z"/><path class="v" d="M90.65,83.98c-.83-4.32-1.79-8.72-3.15-12.9-2.9-8.88-6.91-17.31-13.2-24.29-5.67-6.29-12.26-12.42-19.73-16.49-3.98-2.16-8.16-3.69-12.53-4.87-3.37-.91-6.87-1.62-10.32-1.23,1.73,10.33,4.95,20.41,10.16,29.53,2.95,5.15,6.16,10.38,10.29,14.68,3.52,3.65,7.43,6.92,10.53,10.95,.28,.36-.1,.85-.49,.86-3.21,.08-6.26-1.8-8.87-3.47-1.6-1.03-3.22-2.05-4.76-3.16,1.45,1.62,2.99,3.16,4.62,4.56,8.43,7.28,19.07,9.25,29.95,9.05,2.33-.04,5.06,.05,7.84-.03-.04-1.08-.12-2.15-.32-3.19Z"/><path class="s" d="M52.03,63.95c5.22,6.52,11.12,12.34,18.73,15.98,3.75,1.8,7.66,2.99,11.55,4.43,2.81,1.05,5.69,2.21,8.66,2.71-.04-1.05-.12-2.08-.31-3.1-.83-4.32-1.79-8.72-3.15-12.9-2.9-8.88-6.91-17.31-13.2-24.29-5.67-6.29-12.26-12.42-19.73-16.49-3.98-2.16-8.16-3.69-12.53-4.87-3.39-.92-6.91-1.63-10.38-1.22,4.8,14.15,11.02,28.06,20.38,39.75Z"/><path class="v" d="M90.65,83.98c-.83-4.32-1.79-8.72-3.15-12.9-2.9-8.88-6.91-17.31-13.2-24.29-5.67-6.29-12.26-12.42-19.73-16.49-3.98-2.16-8.16-3.69-12.53-4.87-1.18-.32-2.37-.61-3.57-.84,3.14,1.68,6.02,3.77,8.13,6.44,2.96,3.74,6.5,9.87,4.78,14.79-.14,.4-.62,.55-.95,.25-2.47-2.37-4.48-5.08-6.21-7.98,2.43,6.98,5.03,13.9,8.66,20.38,.31,.56-.43,1.15-.89,.69-5.21-5.29-8.87-11.29-12.79-17.53-.76-1.21-1.54-2.43-2.3-3.67,3.97,9.27,8.84,18.14,15.13,26,5.22,6.52,11.12,12.34,18.73,15.98,3.75,1.8,7.66,2.99,11.55,4.43,2.81,1.05,5.69,2.21,8.66,2.71-.04-1.05-.12-2.08-.31-3.1Z"/><path class="i" d="M87.35,54.96c-3.78-6.67-8.19-13.39-13.24-19.17-2.67-3.05-5.56-5.76-9.03-7.85-1.43-.86-2.89-1.66-4.37-2.44-1.23,1.73-2.1,4.2-2.72,5.57-2.47,5.53-3.6,11.59-3.83,17.6-.48,12.59,4.34,24.5,13.15,33.42,3.22,3.26,7.26,6.14,11.39,8.1,4.56,2.17,9.27,2.8,14.25,3.25,2.12,.2,5.44,.57,7.57-.7-1.9-13.23-6.63-26.24-13.16-37.77Z"/><path class="t" d="M87.35,54.96c-3.78-6.67-8.19-13.39-13.24-19.17-2.67-3.05-5.56-5.76-9.03-7.85-1.43-.86-2.89-1.66-4.37-2.44-.11,.16-.22,.33-.33,.5,1.05,2.07,2.11,4.14,2.95,6.31,1.63,4.2,3.09,8.58,4.26,12.93,2.06,7.65,3.67,15.71,2.67,23.65-.06,.43-.6,.81-.96,.4-4.81-5.51-7.43-12.84-8.56-20.2,.04,10.86,3.39,21.79,9.45,30.73,.3,.45-.32,1.12-.78,.77-7.12-5.46-11.61-14.11-13.49-22.78-1.55-7.12-1.12-14.09,.04-21.04-1.08,3.87-1.64,7.88-1.79,11.88-.48,12.59,4.34,24.5,13.15,33.42,3.22,3.26,7.26,6.14,11.39,8.1,4.56,2.17,9.27,2.8,14.25,3.25,2.12,.2,5.44,.57,7.57-.7-1.9-13.23-6.63-26.24-13.16-37.77Z"/><g><path class="g" d="M108.39,54.96c3.78-6.67,8.19-13.39,13.24-19.17,2.67-3.05,5.56-5.76,9.03-7.85,1.43-.86,2.9-1.66,4.37-2.44,1.23,1.73,2.11,4.2,2.72,5.57,2.47,5.53,3.61,11.59,3.83,17.6,.48,12.59-4.34,24.5-13.15,33.42-3.22,3.26-7.26,6.14-11.39,8.1-4.56,2.17-9.27,2.8-14.25,3.25-2.12,.2-5.45,.57-7.57-.7,1.89-13.23,6.62-26.24,13.16-37.77Z"/><path class="q" d="M99.5,94.11c-1.94,0-3.42-.32-4.51-.97-.16-.1-.25-.29-.23-.48,1.83-12.81,6.4-25.93,13.22-37.94,4.39-7.74,8.74-14.04,13.3-19.25,3.07-3.51,5.98-6.04,9.15-7.94,1.54-.92,3.08-1.75,4.39-2.45,.21-.11,.48-.05,.62,.15,.98,1.39,1.75,3.24,2.31,4.59,.16,.39,.31,.75,.45,1.06,2.32,5.19,3.63,11.17,3.87,17.77,.48,12.62-4.24,24.61-13.28,33.77-3.27,3.31-7.36,6.22-11.53,8.19-4.77,2.27-9.74,2.87-14.41,3.29l-.28,.03c-.88,.08-1.97,.18-3.07,.18Zm-3.74-1.64c.92,.46,2.15,.69,3.74,.69,1.06,0,2.12-.1,2.98-.18l.28-.03c4.59-.41,9.45-1,14.09-3.2,4.06-1.93,8.06-4.77,11.25-8,8.86-8.97,13.48-20.71,13.01-33.06-.24-6.48-1.52-12.34-3.79-17.42-.14-.31-.29-.68-.46-1.08-.53-1.26-1.17-2.81-1.98-4.05-1.21,.65-2.59,1.41-3.97,2.23-3.08,1.85-5.91,4.32-8.92,7.75-4.51,5.16-8.83,11.4-13.19,19.09-6.7,11.81-11.21,24.69-13.06,37.28Z"/></g><path class="t" d="M141.58,48.66c-.22-6.01-1.36-12.07-3.83-17.6-.39-.86-.88-2.16-1.5-3.44,.73,5.56,.67,11.2-.15,16.78-.61,4.1-1.68,8.08-2.86,12.05-.73,2.47-1.58,4.92-3.46,6.76-.36,.35-.95,.09-.97-.41-.22-5.43,.71-10.79,.77-16.22,.04-3.54-.07-7.07,.4-10.57-2.46,3.23-5.03,6.39-7.29,9.77-.29,.44-1.08,.32-1.06-.28,.39-6.64,3.76-12.12,8.01-16.92-3.03,1.99-5.62,4.46-8.02,7.2-5.05,5.78-9.46,12.5-13.24,19.17-6.54,11.53-11.27,24.54-13.16,37.77,2.12,1.27,5.45,.89,7.57,.7,4.98-.45,9.68-1.08,14.25-3.25,4.13-1.96,8.17-4.84,11.39-8.1,8.8-8.92,13.62-20.82,13.15-33.42Z"/><g><g><path class="g" d="M109.56,92.73c2.39-.5,4.73-1.25,7-2.28,4.73-2.16,9.15-7.4,10.53-12.34,1.78-6.42,0-13.34-2.41-19.34-2.43-6.06-5.62-11.81-8.92-17.44-3.38-5.76-7.86-10.61-11.91-15.83-.1,.1-.2,.19-.29,.26-2.96,2.7-6.04,5.25-8.97,7.98-8.33,7.76-16.05,18.69-18.84,29.81-2.32,9.24-1.13,20.05,7.67,25.42,4.09,2.49,10.27,4.54,15.09,4.66,3.74,.09,7.45-.13,11.06-.89Z"/><path class="q" d="M100.04,94.12h0c-.52,0-1.03,0-1.55-.02-4.65-.12-10.95-2.06-15.32-4.73-7.82-4.78-10.77-14.47-7.88-25.95,2.54-10.1,9.63-21.33,18.98-30.04,1.61-1.51,3.3-2.98,4.93-4.4,1.36-1.18,2.71-2.37,4.04-3.58l.29-.26c.1-.09,.23-.13,.36-.12,.13,.01,.25,.08,.34,.18,1.16,1.5,2.35,2.96,3.55,4.43,2.93,3.6,5.96,7.32,8.39,11.46,3.16,5.38,6.44,11.23,8.95,17.5,3.13,7.82,3.93,14.25,2.43,19.65-1.42,5.12-5.96,10.44-10.79,12.65-2.23,1.02-4.61,1.79-7.1,2.32-2.95,.62-6.09,.92-9.62,.92Zm3.75-67.93c-1.3,1.19-2.63,2.35-3.96,3.51-1.62,1.42-3.3,2.89-4.91,4.38-9.22,8.59-16.21,19.64-18.71,29.57-4.12,16.37,4.66,23.19,7.45,24.9,4.24,2.59,10.35,4.48,14.85,4.59,.51,.01,1.02,.02,1.53,.02,3.46,0,6.54-.3,9.42-.9,2.42-.51,4.74-1.26,6.9-2.25,4.59-2.1,8.91-7.16,10.26-12.03,1.44-5.19,.66-11.42-2.4-19.04-2.49-6.22-5.75-12.02-8.89-17.37-2.39-4.07-5.4-7.77-8.31-11.34-1.09-1.34-2.18-2.68-3.24-4.04Z"/></g><path class="t" d="M124.67,58.76c-2.43-6.06-5.62-11.81-8.92-17.44-3.38-5.76-7.86-10.61-11.91-15.83-.05,.04-.09,.08-.13,.12,1.36,2.84,2.84,5.62,4,8.55,1.63,4.11,2.63,8.53,3.21,12.9,.97,7.26,1.36,15.66-2.73,22.1-.25,.4-.91,.36-1.03-.13-.92-3.62-1.15-7.32-1.34-11.04-.83,4.33-2.17,8.57-3.78,12.66-1.33,3.36-3.54,10.44-8.05,10.68-8.3,.44-8.81-10.31-8.55-17.45-1.71,5.46-2.22,11.1-1.19,16.85,.11,.59-.74,1.05-1.04,.43-4.61-9.54-5.18-20.38-1.22-30.26,1.13-2.81,2.61-5.48,4.29-8.03-4.81,6.26-8.72,13.42-10.54,20.65-2.32,9.24-1.13,20.05,7.67,25.42,4.09,2.49,10.27,4.54,15.09,4.66,3.74,.09,7.45-.13,11.06-.89,2.39-.5,4.73-1.25,7-2.28,4.73-2.16,9.15-7.4,10.53-12.34,1.78-6.42,0-13.34-2.41-19.34Z"/><path class="t" d="M124.67,58.76c-2.43-6.06-5.62-11.81-8.92-17.44-.54-.92-1.12-1.81-1.71-2.69,3.33,6.19,6.02,12.79,6.67,19.86,1.05,11.42-3.1,25.29-14.26,30.59-10.68,5.08-24.71,.05-29.43-10.99-1.62-3.79-2.11-7.92-1.81-12.01-1.5,8.61,.2,18.01,8.2,22.89,4.09,2.49,10.27,4.54,15.09,4.66,3.74,.09,7.45-.13,11.06-.89,2.39-.5,4.73-1.25,7-2.28,4.73-2.16,9.15-7.4,10.53-12.34,1.78-6.42,0-13.34-2.41-19.34Z"/></g><g><path class="u" d="M84.51,53.23c1.03-3.24,2.49-6.36,4.78-9.41,.26-.34,.54-.69,.81-1.03,2.02-3.23,4.22-6.39,6.5-9.5-9.07,8.53-17.48,19.36-15.91,32.16,.78-4.27,2.11-8.32,3.82-12.22Z"/><path class="u" d="M157.66,22.12c-3.23,1.04-6.24,2.97-9.03,4.83-2.67,1.78-5.84,3.81-7.59,6.59,2.41-1.4,11.91-7.63,16.62-11.42Z"/><path class="u" d="M58.61,45.27c.32-3.05,.67-6.05,.74-9.13,.02-.8,.23-2.56,.1-3.98-3.33,10.11-4.84,21.01,.12,30.84-1.15-5.82-1.58-11.84-.96-17.73Z"/><path class="u" d="M16.6,71.78c1.6-.13,5.12,.26,5.12,.26,3.25,.34,6.04,.57,9.18,.56,4.44-.01,8.87-.01,13.31,.09-9.25-4.09-20.23-3.71-29.28-.95,.55-.01,1.11,.08,1.68,.03Z"/></g></g><path class="x" d="M165.27,88.72c-5.31-3.66-9.94-8.92-15.82-11.72-1.54-.73-3.76-2.65-5.65-1.71-2.97,1.45-6.54,5.92-10.23,5.25-4.3-1.41-8.71-2.55-13.07-2.72-5.79-.23-10.76,1.05-15.5,4.39-1.02,.72-1.94,1.55-2.83,2.43-1.91,2.54-3.49,6.11-2.7,9.11,.82,3.11,3.48,5.05,6.07,6.69,2.05,1.3,4.21,2.25,6.45,3.04,3.77,.94,7.66,1.33,11.65,1.42,7.95,.18,15.59-.8,23.17-3.14,7.26-2.25,12.93-6.99,18.25-12.24,.15-.14,.48-.6,.2-.79Z"/><path class="m" d="M138.3,79.8c1.79-.97,5.16-3.95,6.96-3.62,2.13,.4,4.91,2.46,6.69,3.65,3.85,2.57,7.32,5.84,10.91,8.74,.04,.03,.07,.06,.1,.09-7.47-.24-13.63-2.58-20.71-5.08-2.33-.83-4.74-1.72-7.18-2.56,1.14-.16,2.29-.7,3.24-1.22Z"/><path class="o" d="M151.22,84.06c-3.41-2.32-7.03-4.27-10.85-5.61-.78,.54-1.5,1.05-2.07,1.35-.96,.52-2.1,1.06-3.24,1.22,2.45,.84,4.85,1.73,7.18,2.56,5.69,2.02,10.79,3.91,16.44,4.71-2.57-1.06-5.01-2.56-7.46-4.23Z"/><path class="g" d="M160.75,92.55c-2.34,2.04-4.89,3.81-7.57,5.36-8.98,5.21-20.4,5.68-30.5,5.46-4.97-.11-10.66-.82-15.14-3.08-2.3-1.16-5.3-2.69-7.02-4.85-.46-1.83-.47-3.68-.15-5.63,.32-1.94,1.67-3.25,2.32-4.91,3.28-2.89,7.52-4.91,11.27-5.7,6.1-1.29,12.56,.63,18.36,2.4,10.11,3.09,20.34,8.65,31.13,7.68,.53,1.2-1.45,2.17-2.7,3.26Z"/><path class="t" d="M140.39,99.43c-7.74,.63-15.23-.09-22.68-2.29-5.2-1.54-10.3-3.98-12.55-9.23-.12-.28,.02-.64,.37-.64,2.69,0,5.55-.28,8.22,.15,2.26,.36,4.62,1.07,6.94,1.05-4.41-1.87-9.17-3.34-13.99-2.68-.43,.06-.8-.55-.33-.77,4.59-2.18,9.25-4.18,14.3-4.99,1.82-.3,3.63-.3,5.43-.17-4.01-.96-8.15-1.49-12.13-.65-3.75,.79-8,2.81-11.27,5.7-.65,1.66-2,2.97-2.32,4.91-.32,1.94-.31,3.8,.15,5.63,1.72,2.16,4.72,3.69,7.02,4.85,4.48,2.26,10.17,2.97,15.14,3.08,10.1,.22,21.52-.25,30.5-5.46,.28-.16,.55-.33,.82-.5-4.5,.97-9.09,1.65-13.61,2.02Z"/><path class="u" d="M153.69,95.35c-8.83,3.62-18.94,4.68-28.41,4.08-.1,0-.23,.24-.11,.25,9.28,.91,20.02,.28,28.52-3.94,.15-.08,.26-.49,0-.39Z"/><g><path class="u" d="M136.27,80.74s-.01,0,0,.01c.07,.07,.14,.14,.21,.21,0,0,.01,0,0-.01-.07-.07-.14-.14-.21-.21Z"/><path class="u" d="M101.94,28.55c-9.81,12.12-19.59,29.82-15.34,46.04,.07,.28,.47-.06,.42-.26-3.98-16.67,6.55-32.47,15.15-45.67,.13-.21-.11-.27-.23-.11Z"/><path class="u" d="M102.43,30.05c-3.09,7.84-4.54,15.47-5.52,23.83-.03,.24,.28,.03,.31-.11,1.6-8.07,3.25-15.87,5.57-23.75,.09-.32-.28-.16-.35,.03Z"/><path class="u" d="M96.79,39.31c-4.32,10.44-8.02,20.5-6.59,31.97,.03,.25,.38-.04,.39-.19,.14-4.46-.03-8.81,.64-13.25,.98-6.45,3.63-12.47,5.83-18.55,.08-.23-.21-.12-.26,.02Z"/><path class="u" d="M104.31,28.67c-.04-.21-.33,.05-.32,.2,.66,7.95,.76,15.96,1.12,23.93,0,.2,.31-.02,.32-.15,.29-7.9,.34-16.18-1.12-23.97Z"/><path class="u" d="M107,34.28c-.06-.13-.29,.09-.24,.21,3.56,8.6,5.49,18.04,6.83,27.23,.03,.23,.36-.04,.34-.21-1.13-9.24-3.05-18.73-6.93-27.24Z"/><path class="u" d="M113.01,43.02c-.09-.17-.37,.13-.31,.27,1.15,2.62,1.56,5.52,2.52,8.21,.09,.25,.53-.15,.48-.35-.76-2.7-1.44-5.61-2.69-8.13Z"/><path class="u" d="M68.18,69.36c-6.48-13.25-8.38-26.83-7.46-41.44,.01-.2-.24-.03-.26,.09-1.82,13.97-.68,29.61,7.28,41.73,.15,.23,.54-.18,.44-.38Z"/><path class="u" d="M66.56,47.5c-1.6-4.07-2.59-8.32-4.15-12.38-.06-.14-.29,.1-.25,.22,1.38,4.17,2.1,8.49,4.06,12.46,.09,.19,.4-.13,.34-.3Z"/><path class="u" d="M61.87,28.24c-.09-.11-.33,.15-.25,.26,5.36,7.83,9.2,17.22,12.61,26.02,.06,.17,.36-.11,.32-.24-2.52-8.94-6.83-18.75-12.68-26.04Z"/><path class="u" d="M72.08,40.93c-.91-2.11-2.55-4.16-4.21-5.74-.11-.1-.32,.17-.22,.28,1.54,1.76,2.79,3.85,4,5.84,.15,.24,.52-.18,.43-.38Z"/><path class="u" d="M77.08,11.76c-1.34,5.4-2.66,10.38-2.64,16,0,.46,.73-.11,.73-.45,.04-5.46,1.28-10.3,2.21-15.62,.04-.22-.27-.06-.31,.07Z"/><path class="u" d="M78.95,13.77c-.05-.19-.3,.04-.28,.17,1.5,8.26,2.74,16.38,4.92,24.51,.1,.36,.6-.08,.55-.33-1.6-8.04-3.05-16.45-5.19-24.34Z"/><path class="u" d="M83.31,21.06c-.52-1.59-1.16-3.12-1.73-4.7-.05-.15-.32,.11-.28,.25,.51,1.6,1.08,3.19,1.64,4.78,.07,.21,.42-.14,.36-.32Z"/><path class="u" d="M79.58,10.1c-.15-.11-.42,.23-.28,.35,6.48,5.58,10.57,14.27,13.61,22.12,.09,.24,.5-.15,.45-.33-2.2-8.27-6.96-16.83-13.78-22.14Z"/><path class="u" d="M123.77,14.83c-4.2,4.43-8.12,8.48-10.86,14.03-.21,.43,.26,.43,.44,.11,3.01-5.23,6.73-9.44,10.62-13.98,.17-.2-.03-.34-.2-.16Z"/><path class="u" d="M122.68,18.03c-1.6,2.4-2.64,5.12-3.82,7.73-1.6,3.54-3.36,7.09-4.37,10.86-.15,.57,.51,.3,.64-.05,2.24-6.18,4.74-12.65,7.81-18.47,.13-.25-.15-.24-.26-.07Z"/><path class="u" d="M125.08,18.54c-.14,2.26-.76,4.73-1.39,6.91-.09,.31,.29,.17,.35-.03,.65-2.21,1.25-4.68,1.34-6.99,0-.23-.3-.04-.31,.11Z"/><path class="u" d="M134.77,29.19c-.06-.17-.37,.11-.33,.24,1.9,6.56,1.92,13.97,1.68,20.73-.02,.43,.52,.07,.55-.2,.8-6.81,.41-14.28-1.91-20.78Z"/><path class="u" d="M132.97,34.13c-.33,3.49-1.26,6.88-1.9,10.32-.05,.24,.29,.07,.32-.08,.88-3.42,1.7-6.82,1.9-10.36,.02-.25-.31-.04-.33,.12Z"/><path class="u" d="M132.54,28.56c-5.21,4.04-9.35,8.77-12.1,14.8-.2,.43,.37,.27,.51,.04,1.55-2.51,2.89-5.12,4.69-7.47,2.01-2.62,4.67-4.8,7.04-7.08,.18-.17,.12-.48-.14-.28Z"/><path class="u" d="M127.74,35.65c-1.49,1.89-2.78,3.93-4.09,5.94-.22,.33,.19,.47,.38,.19,1.37-1.94,2.54-4.02,3.96-5.93,.19-.25-.05-.45-.25-.2Z"/><path class="u" d="M161.12,21.83c-4.52,8.47-11.47,15.58-16.02,24.07-.25,.47,.28,.46,.49,.13,5.11-7.92,12.06-15.47,15.79-24.18,.09-.22-.19-.16-.27-.02Z"/><path class="u" d="M159.13,28.95c-1.48,6.02-4.99,11.47-7.76,16.96-.18,.36,.21,.36,.38,.1,3.15-5.15,6.42-11.19,7.62-17.15,.03-.18-.21-.02-.24,.09Z"/><path class="u" d="M160.87,31.92c-.61,11.78-6.47,23.1-12.65,32.85-.17,.27,.14,.36,.3,.15,7.02-9.35,12.4-21.26,12.66-33.11,0-.24-.31-.04-.32,.11Z"/><path class="u" d="M153.28,28.37c-1.23,1.12-2.46,2.24-3.69,3.35-.18,.16-.09,.49,.14,.27,1.23-1.13,2.45-2.25,3.68-3.38,.16-.15,.09-.43-.12-.24Z"/><path class="u" d="M160.81,90.97c-10.83,1.94-22.05-4-32.87-4.34-.14,0-.34,.34-.17,.36,6.27,.56,12.32,2.56,18.46,3.89,4.55,.99,9.91,1.94,14.46,.6,.17-.05,.42-.56,.13-.51Z"/><path class="u" d="M153,93.65c-3.46,.61-6.83,.68-10.33,.68-.16,0-.34,.35-.13,.35,3.49,.05,6.85,.05,10.3-.59,.19-.03,.41-.49,.16-.44Z"/><path class="u" d="M151.94,94.94c-1.25,.23-2.45,.63-3.7,.88-.13,.02-.28,.34-.11,.31,1.23-.22,2.44-.6,3.67-.81,.16-.03,.34-.42,.13-.38Z"/><path class="u" d="M190.74,53.19c-7.26,1.39-13.77,4.67-20.15,8.28-.19,.11-.24,.52,.05,.36,4.57-2.55,9.17-4.67,14.03-6.28-8.2,3.45-16.15,8.37-22.64,14.3-.15,.14-.08,.4,.11,.23,7.66-6.73,16.73-10.7,25.77-15.18,.12-.06,.23-.25,.26-.42,.79-.21,1.59-.42,2.39-.61,.26-.06,.55-.76,.17-.69Z"/><path class="v" d="M58.78,106.43c-5.73-.77-11.12-1.93-16.69-3.48-4.92-1.38-9.93-1.53-14.63,.66-.15,.07-.31,.49-.05,.38,5.69-2.4,11.43-1.07,17.09,.63,4.57,1.38,9.21,2.26,13.98,2.46,.24,0,.61-.6,.29-.64Z"/><path class="v" d="M66.51,106.37c-8.92,2.07-17.64,.82-26.47-1.08-.18-.04-.43,.34-.22,.39,8.68,2.02,17.78,4.23,26.59,1.45,.33-.11,.65-.88,.1-.76Z"/><path class="v" d="M66.64,107.58c-3.59,.87-7.22,2.18-10.94,1.96-.11,0-.27,.28-.13,.29,3.69,.38,7.45-.73,10.99-1.68,.26-.07,.49-.67,.08-.57Z"/></g></g></g></g></g></svg>