<?xml version="1.0" encoding="UTF-8"?><svg id="a" xmlns="http://www.w3.org/2000/svg" viewBox="0 0 185.03 208.94"><defs><style>.b{fill:#b26f48;}.c{fill:#d28a88;}.d,.e{fill:#fff;}.f{fill:#9d9fa2;}.g,.h{fill:#da9571;}.i{fill:#0c0a0a;}.j{fill:#38120d;}.k{fill:#a1162a;}.l{fill:#c37777;}.m{fill:#b8ab91;}.n{opacity:.5;}.o{fill:#c7c9ca;}.p{fill:#c94427;}.q{fill:#e2b08e;}.r{fill:#d12f47;}.s{fill:#0a0808;}.t,.u{fill:#aa6b50;}.v{fill:#ef643d;}.w{fill:#ba906c;}.h,.u{stroke:#a06060;stroke-width:.25px;}.h,.u,.e{stroke-miterlimit:10;}.x{fill:#683b11;}.y{fill:#e8b894;}.a`{fill:#b02f40;}.aa{fill:#918079;}.ab{fill:#b41e2d;}.e{stroke:#3d2d16;stroke-width:.1px;}.ac{fill:#d9a581;}.ad{fill:#6d081b;}.ae{fill:#ce8a60;}.af{fill:#3d2d16;}.ag{fill:#d81315;}.ah{fill:#e75a29;}</style></defs><path class="n" d="M161.17,204.27c-1.77,0-3.41-.94-4.31-2.46-.56-.95-1.22-1.98-1.97-3.08-.45-.67-.9-1.49-1.35-2.44,.16,.6,.31,1.22,.46,1.85,.34,1.49,0,3.05-.96,4.24-.95,1.19-2.39,1.89-3.91,1.89H72.34c-1.47,0-2.86-.64-3.81-1.76-.95-1.12-1.36-2.6-1.12-4.04,1.4-8.55,3.35-14.22,5.02-17.83l-.1-.34c-.03-.11-.21-.76-.21-.78l-.18-.76-.21-1.05s-.11-.63-.11-.63l4.91-.94-4.93,.81s-.14-1.02-.15-1.04l-.06-.51-.09-.88-.04-.48,4.97-.53-4.98,.43-.02-.3-.06-1.04v-.36c-.06,.05-.11,.1-.15,.15-1.78,2.21-7.21,7.95-37.05,10.12v16.76c0,2.76-2.24,5-5,5h-6.4c-2.76,0-5-2.24-5-5v-16.38h-.02c-1.76-.47-4.92-1.96-6.21-6.77-1.55-5.72,.18-14.85,3.42-18.08,.74-.74,1.67-1.37,2.82-1.91V63.67c-2.23-1.72-2.46-3.95-2.46-4.78,0-.34,.03-.69,.09-1.03l-4.17-4.38c-1.25-1.32-1.69-3.21-1.15-4.94L21,13.17c.65-2.08,2.59-3.5,4.77-3.5s4.12,1.42,4.77,3.5l11.1,35.36c.54,1.73,.11,3.63-1.15,4.94l-4.17,4.38c.06,.34,.09,.68,.09,1.03,0,.83-.23,3.06-2.46,4.78v86.91c.08,.04,.16,.09,.24,.14,1.37,.87,2.24,2.35,2.32,3.97,0,.21,.02,.42,.02,.62l10.86-3.43c.27-2.22,.75-4.83,1.46-7.91,.13-.59,.27-1.17,.42-1.76,.49-2,1.07-4.22,1.78-6.78,.29-1.06,.58-2.07,.85-3.02l.75-2.59c.61-2.13,1.13-4.66,1.62-7.07l.23-1.14c1.18-5.88,2.52-12.55,5.28-19.41,.22-.54,.49-1.09,.83-1.7,.08-.13,.16-.27,.25-.41,.28-.45,.52-.81,.79-1.17,.11-.15,.23-.31,.35-.47,.29-.37,.62-.76,.97-1.13,.03-.04,.1-.12,.18-.2,.4-.42,.82-.83,1.3-1.26,.09-.08,.19-.17,.29-.25,.4-.35,.75-.64,1.12-.93l.44-.34c.37-.28,.76-.56,1.15-.84l.31-.22c.5-.34,1.01-.67,1.54-1l.21-.12c.49-.3,.93-.55,1.38-.81,.03-.02,.13-.08,.16-.1,.08-.04,.15-.08,.23-.12,5.99-3.3,13.05-5.66,17.28-6.92,1.11-1.29,2.74-2.24,4.77-2.24,.17,0,.33,0,.5,.02,.31-.7,.55-1.4,.74-2.06-.61-.96-1.18-2.37-1.83-4.76-.61-.23-1.23-.55-1.82-.97-2.06-1.47-2.99-3.77-3.89-5.99-.26-.64-.51-1.25-.75-1.78-1.95-4.1-1.09-6.96-.03-8.64,.17-.27,.36-.53,.57-.77-.45-1.25-.76-2.53-.97-3.77-3.8-1.94-6.95-4.86-9.23-8.59-.18-.25-.34-.52-.48-.81-1.51-2.71-2.55-5.78-2.93-8.71,0-.05-.07-.65-.09-.83l-.03-.3c-.02-.27-.03-.52-.04-.76v-.15c-.02-.67,0-1.29,.08-1.86,0-.06,.02-.19,.03-.24,.03-.21,.07-.44,.11-.65l.06-.28c.07-.29,.13-.53,.21-.75,0-.03,.05-.14,.08-.25,.1-.28,.2-.51,.31-.73,.05-.1,.11-.23,.17-.34,.28-.48,.58-.89,.91-1.24,.53-.56,1.17-1.02,1.91-1.35,.22-.1,.45-.19,.68-.26,.39-.13,.76-.22,1.13-.28,.18-.03,.37-.05,.58-.07,.22-.02,.47-.03,.73-.03h.22c.15,0,.3,0,.46,.02,.27,.02,.58,.05,.9,.1,.08,0,.16,.02,.25,.03,.4,.07,.77,.14,1.16,.24l.24,.06c.32,.08,.58,.15,.85,.23,0,0,.37,.11,.38,.11,.24,.07,1.06,.34,1.06,.34,.26,.09,1.05,.36,1.05,.36,.57,.2,1.18,.42,1.78,.64l1.42,.51,.86,.3c.21,.07,.73,.24,.75,.24,.92,.28,1.25,.32,1.29,.32h0c.36,0,.88-.24,1.73-.77,.35-.22,.71-.45,1.08-.69,.46-.3,.87-.56,1.31-.83,0,0,.09-.06,.1-.06,.5-.31,1.02-.61,1.57-.91l.04-.02c.71-.38,1.35-.68,2.01-.96,.37-.16,.76-.28,1.19-.4,.13-.03,.23-.06,.34-.08,.28-.06,.56-.12,.84-.16l.33-.05c.28-.03,.57-.06,.87-.07,.05,0,.11,0,.15,0,.23,0,.41-.01,.59-.01,.16,0,.33,0,.5,0h.28c.27,.02,.53,.04,.79,.06l.33,.03c.26,.02,.53,.06,.81,.09l.24,.03c.31,.04,.64,.09,.99,.15l.24,.04c.29,.05,.55,.1,.81,.15l.33,.07c.26,.05,1.02,.22,1.02,.22,.35,.08,.69,.16,1.02,.25l1.34,.36c.25,.07,1.01,.29,1.01,.29,.32,.09,.65,.19,.97,.29l1.19,.38,.94,.31c1.21,.41,3.02,1.04,5.13,1.87,.18-.08,.37-.16,.57-.25,.3-.14,2.24-1.05,2.26-1.06,.38-.18,.76-.35,1.16-.53l.3-.13c.52-.23,1.01-.44,1.53-.65,.04-.01,.07-.03,.1-.04,.44-.18,.96-.38,1.51-.58l.44-.16c.58-.21,1.19-.42,1.83-.63,.39-.13,.77-.23,1.14-.31,.1-.02,.21-.05,.33-.07,.3-.06,.58-.1,.84-.14,.13-.02,.28-.03,.42-.04,.25-.02,.52-.04,.79-.04,0,0,.34,0,.38,0,.38,0,.75,.04,1.09,.08h.08c.39,.07,.77,.15,1.17,.26,.11,.03,.23,.07,.35,.11,.27,.09,.52,.18,.77,.29,.15,.07,.27,.12,.39,.18,.23,.11,.47,.25,.7,.39,.08,.05,.17,.1,.26,.16,.34,.23,.61,.43,.86,.65,.04,.03,.07,.06,.1,.09,.27,.24,.52,.5,.77,.78,.05,.05,.14,.16,.23,.28,.12,.15,.28,.35,.42,.56,.06,.09,.12,.18,.19,.28,.14,.22,.26,.43,.37,.64,.06,.1,.12,.21,.17,.32,.12,.23,.25,.53,.38,.85,.11,.28,.21,.58,.31,.89,.02,.05,.06,.2,.07,.25,.06,.22,.11,.43,.16,.64l.07,.32c.04,.21,.08,.42,.11,.63l.03,.17c.43,3.39-.32,7.02-2,9.8-4.75,7.9-7.69,11.67-9.71,13.47-.18,.57-.38,1.14-.59,1.68,.26,.31,.49,.63,.7,.98,.99,1.66,1.77,4.48-.14,8.48-.27,.57-.51,1.18-.75,1.77-.9,2.22-1.83,4.52-3.89,5.99-.59,.42-1.21,.73-1.82,.97-.99,3.6-1.78,4.97-2.79,5.94,.07,.19,.14,.38,.22,.56,.08,0,.16,.01,.21,.02,.07,0,.21,.02,.35,.04,.11,.02,.32,.06,.43,.08,.17,.04,.36,.09,.54,.15,.14,.04,.35,.13,.49,.18,.18,.07,.39,.18,.61,.3,.15,.09,.35,.21,.51,.33h0c.22,.16,.43,.33,.63,.52,.02,.02,.05,.05,.07,.07,.13,.13,.31,.33,.42,.48,.1,.12,.18,.24,.26,.35,.33,.09,.68,.2,1.05,.3,1.29-1.17,2.7-1.77,4.23-1.77,1.91,0,3.6,.96,4.66,2.55,.58,.28,1.12,.65,1.6,1.1,.22,.05,.42,.1,.63,.16,.1,.03,.21,.06,.3,.09,2.1,.69,3.97,2.13,4.81,2.85,.9,.62,1.81,1.56,2.46,2.85,12.38,9.67,15.96,26.75,16.94,33.81,1.86,13.45,2.77,16.58,8.28,32.22,5.84,16.58,6.19,39.82,6.2,40.8,.02,1.34-.5,2.62-1.44,3.57s-2.22,1.49-3.56,1.49h-14.2Zm-14.4-22.7c1.29,1.6,2.44,3.45,3.47,5.55-.83-2.83-1.62-5.87-2.34-8.88,0,0-.15,.55-.21,.77l-.09,.3c-.07,.24-.16,.52-.25,.78l-.11,.29c-.08,.21-.14,.39-.21,.57,0,0-.21,.52-.26,.62Z"/><path class="d" d="M156.17,199.27c-1.77,0-3.41-.94-4.31-2.46-.56-.95-1.22-1.98-1.97-3.08-.45-.67-.9-1.49-1.35-2.44,.16,.6,.31,1.22,.46,1.85,.34,1.49,0,3.05-.96,4.24-.95,1.19-2.39,1.89-3.91,1.89H67.34c-1.47,0-2.86-.64-3.81-1.76-.95-1.12-1.36-2.6-1.12-4.04,1.4-8.55,3.35-14.22,5.02-17.83l-.1-.34c-.03-.11-.21-.76-.21-.78l-.18-.76-.21-1.05s-.11-.63-.11-.63l4.91-.94-4.93,.81s-.14-1.02-.15-1.04l-.06-.51-.09-.88-.04-.48,4.97-.53-4.98,.43-.02-.3-.06-1.04v-.36c-.06,.05-.11,.1-.15,.15-1.78,2.21-7.21,7.95-37.05,10.12v16.76c0,2.76-2.24,5-5,5h-6.4c-2.76,0-5-2.24-5-5v-16.38h-.02c-1.76-.47-4.92-1.96-6.21-6.77-1.55-5.72,.18-14.85,3.42-18.08,.74-.74,1.67-1.37,2.82-1.91V58.67c-2.23-1.72-2.46-3.95-2.46-4.78,0-.34,.03-.69,.09-1.03l-4.17-4.38c-1.25-1.32-1.69-3.21-1.15-4.94L16,8.17c.65-2.08,2.59-3.5,4.77-3.5s4.12,1.42,4.77,3.5l11.1,35.36c.54,1.73,.11,3.63-1.15,4.94l-4.17,4.38c.06,.34,.09,.68,.09,1.03,0,.83-.23,3.06-2.46,4.78v86.91c.08,.04,.16,.09,.24,.14,1.37,.87,2.24,2.35,2.32,3.97,0,.21,.02,.42,.02,.62l10.86-3.43c.27-2.22,.75-4.83,1.46-7.91,.13-.59,.27-1.17,.42-1.76,.49-2,1.07-4.22,1.78-6.78,.29-1.06,.58-2.07,.85-3.02l.75-2.59c.61-2.13,1.13-4.66,1.62-7.07l.23-1.14c1.18-5.88,2.52-12.55,5.28-19.41,.22-.54,.49-1.09,.83-1.7,.08-.13,.16-.27,.25-.41,.28-.45,.52-.81,.79-1.17,.11-.15,.23-.31,.35-.47,.29-.37,.62-.76,.97-1.13,.03-.04,.1-.12,.18-.2,.4-.42,.82-.83,1.3-1.26,.09-.08,.19-.17,.29-.25,.4-.35,.75-.64,1.12-.93l.44-.34c.37-.28,.76-.56,1.15-.84l.31-.22c.5-.34,1.01-.67,1.54-1l.21-.12c.49-.3,.93-.55,1.38-.81,.03-.02,.13-.08,.16-.1,.08-.04,.15-.08,.23-.12,5.99-3.3,13.05-5.66,17.28-6.92,1.11-1.29,2.74-2.24,4.77-2.24,.17,0,.33,0,.5,.02,.31-.7,.55-1.4,.74-2.06-.61-.96-1.18-2.37-1.83-4.76-.61-.23-1.23-.55-1.82-.97-2.06-1.47-2.99-3.77-3.89-5.99-.26-.64-.51-1.25-.75-1.78-1.95-4.1-1.09-6.96-.03-8.64,.17-.27,.36-.53,.57-.77-.45-1.25-.76-2.53-.97-3.77-3.8-1.94-6.95-4.86-9.23-8.59-.18-.25-.34-.52-.48-.81-1.51-2.71-2.55-5.78-2.93-8.71,0-.05-.07-.65-.09-.83l-.03-.3c-.02-.27-.03-.52-.04-.76v-.15c-.02-.67,0-1.29,.08-1.86,0-.06,.02-.19,.03-.24,.03-.21,.07-.44,.11-.65l.06-.28c.07-.29,.13-.53,.21-.75,0-.03,.05-.14,.08-.25,.1-.28,.2-.51,.31-.73,.05-.1,.11-.23,.17-.34,.28-.48,.58-.89,.91-1.24,.53-.56,1.17-1.02,1.91-1.35,.22-.1,.45-.19,.68-.26,.39-.13,.76-.22,1.13-.28,.18-.03,.37-.05,.58-.07,.22-.02,.47-.03,.73-.03h.22c.15,0,.3,0,.46,.02,.27,.02,.58,.05,.9,.1,.08,0,.16,.02,.25,.03,.4,.07,.77,.14,1.16,.24l.24,.06c.32,.08,.58,.15,.85,.23,0,0,.37,.11,.38,.11,.24,.07,1.06,.34,1.06,.34,.26,.09,1.05,.36,1.05,.36,.57,.2,1.18,.42,1.78,.64l1.42,.51,.86,.3c.21,.07,.73,.24,.75,.24,.92,.28,1.25,.32,1.29,.32h0c.36,0,.88-.24,1.73-.77,.35-.22,.71-.45,1.08-.69,.46-.3,.87-.56,1.31-.83,0,0,.09-.06,.1-.06,.5-.31,1.02-.61,1.57-.91l.04-.02c.71-.38,1.35-.68,2.01-.96,.37-.16,.76-.28,1.19-.4,.13-.03,.23-.06,.34-.08,.28-.06,.56-.12,.84-.16l.33-.05c.28-.03,.57-.06,.87-.07,.05,0,.11,0,.15,0,.23,0,.41-.01,.59-.01,.16,0,.33,0,.5,0h.28c.27,.02,.53,.04,.79,.06l.33,.03c.26,.02,.53,.06,.81,.09l.24,.03c.31,.04,.64,.09,.99,.15l.24,.04c.29,.05,.55,.1,.81,.15l.33,.07c.26,.05,1.02,.22,1.02,.22,.35,.08,.69,.16,1.02,.25l1.34,.36c.25,.07,1.01,.29,1.01,.29,.32,.09,.65,.19,.97,.29l1.19,.38,.94,.31c1.21,.41,3.02,1.04,5.13,1.87,.18-.08,.37-.16,.57-.25,.3-.14,2.24-1.05,2.26-1.06,.38-.18,.76-.35,1.16-.53l.3-.13c.52-.23,1.01-.44,1.53-.65,.04-.01,.07-.03,.1-.04,.44-.18,.96-.38,1.51-.58l.44-.16c.58-.21,1.19-.42,1.83-.63,.39-.13,.77-.23,1.14-.31,.1-.02,.21-.05,.33-.07,.3-.06,.58-.1,.84-.14,.13-.02,.28-.03,.42-.04,.25-.02,.52-.04,.79-.04,0,0,.34,0,.38,0,.38,0,.75,.04,1.09,.08h.08c.39,.07,.77,.15,1.17,.26,.11,.03,.23,.07,.35,.11,.27,.09,.52,.18,.77,.29,.15,.07,.27,.12,.39,.18,.23,.11,.47,.25,.7,.39,.08,.05,.17,.1,.26,.16,.34,.23,.61,.43,.86,.65,.04,.03,.07,.06,.1,.09,.27,.24,.52,.5,.77,.78,.05,.05,.14,.16,.23,.28,.12,.15,.28,.35,.42,.56,.06,.09,.12,.18,.19,.28,.14,.22,.26,.43,.37,.64,.06,.1,.12,.21,.17,.32,.12,.23,.25,.53,.38,.85,.11,.28,.21,.58,.31,.89,.02,.05,.06,.2,.07,.25,.06,.22,.11,.43,.16,.64l.07,.32c.04,.21,.08,.42,.11,.63l.03,.17c.43,3.39-.32,7.02-2,9.8-4.75,7.9-7.69,11.67-9.71,13.47-.18,.57-.38,1.14-.59,1.68,.26,.31,.49,.63,.7,.98,.99,1.66,1.77,4.48-.14,8.48-.27,.57-.51,1.18-.75,1.77-.9,2.22-1.83,4.52-3.89,5.99-.59,.42-1.21,.73-1.82,.97-.99,3.6-1.78,4.97-2.79,5.94,.07,.19,.14,.38,.22,.56,.08,0,.16,.01,.21,.02,.07,0,.21,.02,.35,.04,.11,.02,.32,.06,.43,.08,.17,.04,.36,.09,.54,.15,.14,.04,.35,.13,.49,.18,.18,.07,.39,.18,.61,.3,.15,.09,.35,.21,.51,.33h0c.22,.16,.43,.33,.63,.52,.02,.02,.05,.05,.07,.07,.13,.13,.31,.33,.42,.48,.1,.12,.18,.24,.26,.35,.33,.09,.68,.2,1.05,.3,1.29-1.17,2.7-1.77,4.23-1.77,1.91,0,3.6,.96,4.66,2.55,.58,.28,1.12,.65,1.6,1.1,.22,.05,.42,.1,.63,.16,.1,.03,.21,.06,.3,.09,2.1,.69,3.97,2.13,4.81,2.85,.9,.62,1.81,1.56,2.46,2.85,12.38,9.67,15.96,26.75,16.94,33.81,1.86,13.45,2.77,16.58,8.28,32.22,5.84,16.58,6.19,39.82,6.2,40.8,.02,1.34-.5,2.62-1.44,3.57s-2.22,1.49-3.56,1.49h-14.2Zm-14.4-22.7c1.29,1.6,2.44,3.45,3.47,5.55-.83-2.83-1.62-5.87-2.34-8.88,0,0-.15,.55-.21,.77l-.09,.3c-.07,.24-.16,.52-.25,.78l-.11,.29c-.08,.21-.14,.39-.21,.57,0,0-.21,.52-.26,.62Z"/><g><path class="h" d="M160.44,194.27h8.44c-.96-2.67-1.15-6.97-1.44-12.82l-12.99-4.37c2.27,5.89,4.55,10.41,5.51,12.93,.4,1.07,.52,2.56,.48,4.27Z"/><path class="u" d="M26.53,149.94s-11.2,4.62-10.82,6.25c.38,1.63,11.25,2.45,10.82-6.25Z"/><path class="h" d="M124.06,86.17c-10.14-1.45-10.58-14.37-10.58-14.37l-3.1-.57c-.06-1.36-.08-2.21-.08-2.21l-5.98,1.1-5.99-1.1s-.02,.86-.08,2.21l-3.1,.57s-.45,12.92-10.58,14.37c-10.14,1.45,.67,15.82,.67,15.82l11.43,4.91c-.15,3.95-.24,6.67-.24,6.67l7.89-3.39,7.89,3.39s-.1-2.72-.24-6.67l11.43-4.91s10.8-14.37,.67-15.82Z"/><path class="ah" d="M62.27,164.08c4.27-4.29,6.16-14.1,6.8-20.18,.8-7.62,3.48-14.43,3.48-14.43,0,0,3.21,3.81,2.77,12.7-.45,8.89-2.32,14.97-1.61,15.88,.71,.91,.54,15.79,.54,15.79,0,0-4.36,4.86-6.9,20.43h76.79c-1.79-7.72-4.62-14.03-9.27-17.55,0,0,6.15-10.83,0-23.1l2.37-27.67,6.63,27.19s5.44,30.79,10.18,37.77c.87,1.28,1.57,2.39,2.14,3.35h14.2c0-.32-.28-23.19-5.92-39.2-5.68-16.12-6.63-19.49-8.52-33.2-1.89-13.71-8.52-30.55-23.91-35.12-15.39-4.57-13.49-3.85-13.49-3.85l-12.55,19.49-17.27-19.36s-25.26,6.08-29.28,16.06c-4.02,9.98-4.91,19.96-6.96,27.13-1.8,6.27-5.3,18.1-5.31,24.42l-30.32,9.57,2.53,12.82s36.54-.9,42.91-8.94Z"/><path class="p" d="M75.31,142.18c-.45,8.89-2.32,14.97-1.61,15.88,.71,.91,.54,15.79,.54,15.79,0,0-4.36,4.86-6.9,20.43h10.77c1.5-5.09,3.56-9.08,5.49-11.09,5.04-5.26,8.33-5.7,18.84-8.33,10.52-2.63,4.16-18.41-5.04-18.19-9.2,.22-24.1-.88-9.2-7.89,14.9-7.01,31.55-32.21,20.82-22.13-10.74,10.08-17.97,4.38-26.73-4.16-7.86-7.67-9.55,4.59-9.82,7.2,.05-.13,.08-.21,.08-.21,0,0,3.21,3.81,2.77,12.7Z"/><path class="p" d="M80.53,179.46s44.92,3.72,50.18-.44c5.26-4.16-3.94-5.7-13.58-5.7s-36.59,6.14-36.59,6.14Z"/><path class="p" d="M80.09,156.89s44.92-6.79,50.18-2.63c5.26,4.16-3.94,5.7-13.58,5.7s-36.59-3.07-36.59-3.07Z"/><path class="ab" d="M128.23,83.66s-9.77,36.52-54.82,49.65c0,0-3.89,4.21,.08,6.44,0,0-4.95,4.39,.16,7.62-.55,1.58-3.86,4.1-.53,6.93,1.85,1.57,39.77-22.41,56.12-42.9,15.98-20.02,9.25-22.84,9.25-22.84,0,0-3.47-3.22-5.45-2.1,0,0-.57-2.81-2.69-1.31,0,0,.14-4.13-2.13-1.5Z"/><path class="ab" d="M134.86,153.63s-57.5,5-61.15,4.43c-3.64-.57-3.03,14.85-.58,18.16,2.45,3.31,58.88,2.33,62.19,.86,3.31-1.47,6.43-18.36-.46-23.44"/><path class="t" d="M94.83,75.23s2.66,5.52,8.66,6.19c5.99,.67,10.02-3.77,10.53-5.42l-.78-3.58-17.84-1.14-.57,3.95Z"/><g><g><g><path class="g" d="M121.16,54.14s5.61-.22,3.03,5.2c-1.05,2.22-1.78,4.95-3.03,5.84-1.25,.89-3.61,.79-3.79,.42-.18-.37,1.96-10.95,2.01-11.46,.04-.51,1.78,0,1.78,0Z"/><path class="b" d="M120.58,58.99s.22,1.07-.31,1.78c-.53,.71-.85,1.62-.53,1.52,.31-.09,1.47-.3,2.23-1.65,.76-1.34,.85-2.5,.36-3.22-.49-.71-2.01-.36-1.74,1.56Z"/></g><g><path class="g" d="M88.82,54.14s-5.61-.22-3.03,5.2c1.05,2.22,1.78,4.95,3.03,5.84,1.25,.89,3.61,.79,3.79,.42,.18-.37-1.96-10.95-2.01-11.46-.04-.51-1.78,0-1.78,0Z"/><path class="b" d="M89.4,58.99s-.22,1.07,.31,1.78c.54,.71,.85,1.62,.54,1.52-.31-.09-1.47-.3-2.23-1.65-.76-1.34-.85-2.5-.36-3.22,.49-.71,2.01-.36,1.74,1.56Z"/></g></g><path class="y" d="M121.12,39.26c-.06-1.6-12.4-2.19-15.39-1.48-2.99-.71-16.8-.12-16.86,1.48-.07,1.81-.07,8.03,.48,12.85,.55,4.82,3.15,19.1,4.67,20.47,5.92,5.35,6.42,6.95,10.27,6.91,.14,.02,1.27,.02,1.41,0,3.85,.03,4.35-1.56,10.27-6.91,1.52-1.38,4.13-15.66,4.67-20.47,.55-4.82,.55-11.04,.48-12.85Z"/><path class="i" d="M94.02,54.73s2.49-1.62,4.67-1.1c2.17,.52,3.96,1.67,4.28,1.1,.32-.57,.42-1.51,0-1.82-.42-.32-1.74,.12-3.46-.38-1.72-.5-2.69-.74-3.48,0-.79,.74-2.01,2.21-2.01,2.21Z"/><path class="s" d="M98.55,56.75c.6,0,1.09-.39,1.09-.87,0-.16-.06-.32-.16-.45-.67-.19-1.39-.06-2,.17-.04,.09-.06,.18-.06,.28,0,.48,.49,.86,1.1,.87h.03Z"/><g><path class="c" d="M109.17,70.02s-2.6,0-4.09,0c-1.49,0-4.09,0-4.09,0l-1.12,.08s.77,1.1,1.96,1.67c.61,.29,1.64,.4,2.51,.43h0s.3,.02,.74,.01c.44,0,.74-.01,.74-.01h0c.86-.04,1.9-.14,2.51-.43,1.19-.57,1.96-1.67,1.96-1.67l-1.12-.08Z"/><path class="l" d="M109.25,69.4c-.88-.36-2.42-.83-3.55-1.16,0,0-.29-.32-.71-.2-.42-.12-.71,.2-.71,.2-1.13,.33-2.68,.8-3.55,1.16-1.5,.62-.93,.61-.93,.61h10.38s.57,0-.93-.61Z"/></g><path class="i" d="M115.74,54.73s-2.49-1.62-4.67-1.1c-2.17,.52-3.96,1.67-4.28,1.1-.32-.57-.42-1.51,0-1.82,.42-.32,1.74,.12,3.46-.38,1.72-.5,2.69-.74,3.48,0,.79,.74,2.01,2.21,2.01,2.21Z"/><path class="s" d="M111.21,56.75c-.6,0-1.09-.39-1.09-.87,0-.16,.06-.32,.16-.45,.67-.19,1.39-.06,2,.17,.04,.09,.06,.18,.06,.28,0,.48-.49,.86-1.1,.87h-.03Z"/><path class="i" d="M115.34,66.66c-1.97-.5-2.22,.75-2.22,.75,1.22-.79,2.2,.48,1.51,1.24-.68,.77-1.62,.58-3.57-1.72-1.95-2.3-3.4-2.18-3.4-2.18-1.65,.04-2.82,.93-2.82,.93v.09c-.02-.06-.03-.09-.03-.09,0,0-1.17-.9-2.82-.93,0,0-1.45-.12-3.4,2.18-1.95,2.3-2.88,2.49-3.57,1.72-.68-.77,.29-2.03,1.51-1.24,0,0-.25-1.24-2.22-.75-1.97,.5-1.82,3.81-.29,4.81,1.53,.99,4.37-.91,5.83-1.47,1.24-.48,4.07-1.08,4.97-1.38,.9,.31,3.73,.9,4.97,1.38,1.45,.56,4.29,2.47,5.82,1.47,1.53-.99,1.68-4.31-.29-4.81Z"/><path class="q" d="M108.47,62.04c-.55-.9-1.05-.17-1.05-.17,0,0-.3-1.59-.68-3.28-.38-1.69-.22-2.88-.48-4.05-.2-.95-.98-.59-1.27-.42-.29-.17-1.06-.53-1.27,.42-.25,1.17-.1,2.36-.48,4.05-.38,1.69-.68,3.28-.68,3.28,0,0-.5-.74-1.05,.17,0,0-.51,1.35-.41,2.17,.09,.82,.58,.85,1.08,.87,.5,.02,.97-.3,1.39,.15,.29,.31,.75,.54,1.16,.61h.01c.07,.02,.15,.03,.24,.03,.09,0,.17,0,.24-.02h.01c.41-.08,.87-.3,1.17-.62,.42-.45,.89-.13,1.39-.15,.5-.02,.99-.05,1.08-.87,.09-.82-.41-2.17-.41-2.17Z"/><path class="y" d="M108.3,62.04c-.53-.9-1-.17-1-.17,0,0-.29-1.59-.65-3.28-.36-1.69-.21-2.88-.45-4.05-.19-.95-.93-.59-1.21-.42-.27-.17-1.01-.53-1.21,.42-.24,1.17-.09,2.36-.45,4.05-.36,1.69-.65,3.28-.65,3.28,0,0-.48-.74-1,.17,0,0-.48,1.35-.39,2.17,.09,.82,.55,.85,1.03,.87,.48,.02,.92-.3,1.32,.15,.28,.31,.72,.54,1.11,.61h.01c.07,.02,.15,.03,.23,.03,.08,0,.16,0,.23-.02h.01c.39-.08,.83-.3,1.11-.62,.4-.45,.84-.13,1.32-.15,.48-.02,.94-.05,1.03-.87,.09-.82-.39-2.17-.39-2.17Z"/><g><path class="ae" d="M106.2,54.55c.24,1.17,.09,2.36,.45,4.05,.36,1.69,.65,3.28,.65,3.28,0,0,.03-.05,.09-.11-.07-.39-.34-1.74-.66-3.17-.38-1.69-.22-2.88-.48-4.05-.11-.49-.16-.47-.06,0Z"/><path class="ae" d="M102.68,61.87s.29-1.59,.65-3.28c.36-1.69,.21-2.88,.45-4.05,.1-.47,.05-.49-.06,0-.25,1.17-.1,2.36-.48,4.05-.32,1.42-.58,2.78-.66,3.17,.06,.06,.09,.11,.09,.11Z"/><path class="ae" d="M101.29,64.21c-.09-.82,.39-2.17,.39-2.17,.17-.3,.34-.42,.49-.44-.18-.03-.41,.05-.65,.44,0,0-.51,1.35-.41,2.17,.09,.82,.58,.85,1.08,.87,.03,0,.07,0,.1,0-.47-.02-.91-.07-1-.87Z"/><path class="ae" d="M108.47,62.04c-.24-.39-.47-.48-.65-.44,.15,.03,.32,.14,.49,.44,0,0,.48,1.35,.39,2.17-.09,.8-.53,.85-1,.87,.03,0,.07,0,.1,0,.5-.02,.99-.05,1.08-.87,.09-.82-.41-2.17-.41-2.17Z"/><path class="ae" d="M106.34,65.23c-.28,.31-.72,.54-1.11,.61h-.01c-.07,.02-.15,.03-.23,.03,.09,0,.17,0,.24-.02h.01c.41-.08,.87-.3,1.17-.62,.16-.17,.33-.23,.51-.24-.2,0-.39,.04-.57,.24Z"/><path class="ae" d="M104.75,65.85c-.39-.07-.83-.3-1.11-.61-.18-.21-.37-.25-.57-.24,.18,0,.34,.07,.51,.24,.29,.31,.75,.54,1.16,.61h.01c.07,.02,.15,.03,.24,.03-.08,0-.16,0-.23-.02h-.01Z"/></g><path class="ae" d="M108.88,63.97c-.09,.82-.58,.85-1.08,.87-.5,.02-.97-.3-1.39,.15-.29,.31-.75,.54-1.17,.61,0,0,0,0-.01,0-.07,.02-.15,.02-.24,.02-.08,0-.17,0-.24-.02h-.01c-.41-.08-.87-.3-1.16-.62-.42-.45-.89-.13-1.39-.15-.5-.02-.99-.05-1.08-.87,0-.03,0-.07,0-.1,0,.12,0,.24,0,.35,.09,.82,.58,.85,1.08,.87,.5,.02,.97-.3,1.39,.15,.29,.31,.75,.54,1.16,.61h.01c.07,.02,.15,.03,.24,.03,.09,0,.17,0,.24-.02h.01c.41-.08,.87-.3,1.17-.62,.42-.45,.89-.13,1.39-.15,.5-.02,.99-.05,1.08-.87,.01-.11,.01-.23,0-.35,0,.03,0,.07,0,.1Z"/><path class="b" d="M103.07,63.83s.18-2.23,.52-3.93c.29-1.5,.56-3.51,.03-4.68-.11,.97-.06,2.01-.37,3.38-.38,1.69-.68,3.28-.68,3.28,0,0-.22-.32-.53-.28,.27,.29,.63,.79,.83,1.53l.2,.7Z"/><path class="b" d="M106.94,63.83s-.18-2.23-.52-3.93c-.29-1.5-.56-3.51-.03-4.68,.11,.97,.06,2.01,.37,3.38,.38,1.69,.68,3.28,.68,3.28,0,0,.22-.32,.53-.28-.28,.29-.63,.79-.83,1.53l-.2,.7Z"/><path class="j" d="M102.91,64.27c-.37-.18-.85,0-.96,.3-.06,.17,.03,.32,.12,.42h.04c.5,.02,.97-.27,1.39,.14,.07,.06,.14,.12,.22,.18-.27-.41-.56-.91-.82-1.03Z"/><path class="j" d="M107.07,64.06c.37-.18,.85,0,.96,.3,.06,.17-.03,.32-.12,.42h-.04c-.5,.02-.97-.27-1.39,.14-.07,.06-.14,.12-.22,.18,.27-.41,.56-.91,.82-1.03Z"/><path class="ac" d="M105.21,72.15c-3.07,0-5.69,1.94-6.69,4.66,2.15,2.01,3.23,2.7,5.77,2.68,.14,.02,1.27,.02,1.41,0,2.67,.02,3.73-.73,6.09-2.98-1.08-2.56-3.62-4.36-6.58-4.36Z"/><path class="x" d="M98.57,56.32c-.33,0-.61-.25-.65-.57,0,.03,0,.05,0,.08,0,.36,.29,.65,.65,.65s.65-.29,.65-.65c0-.03,0-.05,0-.08-.04,.32-.31,.57-.65,.57Z"/><path class="d" d="M99.03,55.74c0,.08-.07,.15-.15,.15s-.15-.07-.15-.15,.07-.15,.15-.15,.15,.07,.15,.15Z"/><path class="x" d="M111.34,56.4c-.33,0-.61-.25-.65-.57,0,.03,0,.05,0,.08,0,.36,.29,.65,.65,.65s.65-.29,.65-.65c0-.03,0-.05,0-.08-.04,.32-.31,.57-.65,.57Z"/><path class="d" d="M111.8,55.82c0,.09-.07,.15-.16,.15s-.15-.07-.15-.15,.07-.15,.15-.15,.16,.07,.16,.15Z"/><path class="ag" d="M105.78,52.07c0,.47-.35,.86-.79,.86s-.79-.38-.79-.86,.35-6.47,.79-6.47,.79,5.99,.79,6.47Z"/><path class="i" d="M124.64,45.14c.08-4.54-22.43-10.95-39.19-1.86,0,0-.29,7.84,3.58,10.91l1.7,5.97s.92-8.17,1.05-10.39c.06-.15,.26-1.69,.38-1.94,1.19-2.53,3.98-5.37,7.53-5.59,15.24-.95,16.96,1.48,18.06,5.82,.93,3.62,1.74,11.91,1.74,11.91l1.32-4.64c1.24-1.84,3.77-6.29,3.83-10.19Z"/><g><path class="p" d="M85.71,44.95s18.61-1.96,24.24-1.23c5.64,.73,13.94,3.22,14.92,3.28,.98,.06,6.61-8.23,9.29-12.68,2.68-4.46,1.82-12.94-5.13-10.69-6.95,2.24-10.24,5.07-12,4.36-1.76-.71-15.13-6.13-19.53-4.28-4.4,1.85-6.58,4.85-10.12,4.62-3.55-.24-11.93-4.95-13.73-3.06-1.8,1.89-.08,15.65,12.07,19.7Z"/><path class="v" d="M111.94,26.06c-4.8-1.66-11.56-3.59-14.45-2.37-2.22,.93-3.88,2.16-5.43,3.12,4.85,1.79,14.08,.41,19.88-.75Z"/><path class="v" d="M135.54,28.37c-.21-3.37-2.18-6.15-6.52-4.75-5.17,1.67-8.31,3.66-10.31,4.27-5.08,2.85-14.47,3.18-22.37,3.05-3.33-.06-7.58-1.5-11.39-3.16-4.03-1.24-9.85-4.07-11.31-2.53-.54,.56-.76,2.19-.48,4.3,4.1-3.53,6.88,.67,18.75,4.84,13.54,4.76,36.35-4.75,39.68-6.29,1.62-.75,2.92-.28,3.95,.26Z"/><path class="a`" d="M125.51,45.64c-.02-.07-.04-.16-.07-.27-.03-.1-.05-.23-.1-.36-.04-.13-.09-.28-.14-.44-.03-.08-.05-.16-.08-.25-.03-.08-.06-.17-.1-.26-.02-.04-.03-.08-.05-.12,.08-.08,.15-.16,.23-.24,.33-.35,.68-.74,1.04-1.15,.37-.41,.73-.86,1.1-1.33,.28-.36,.56-.74,.83-1.13,.03,.04,.05,.09,.08,.13,.16,.27,.31,.5,.42,.7,.05,.1,.11,.19,.15,.26,.04,.08,.08,.14,.11,.2,.06,.11,.1,.17,.1,.17l.09-.03s0-.07-.02-.19c-.02-.12-.04-.31-.1-.54-.03-.11-.05-.24-.09-.38-.04-.14-.08-.28-.13-.44-.05-.15-.11-.32-.17-.49h0c.3-.45,.61-.88,.92-1.32,.37-.52,.73-1.05,1.09-1.56,.26-.37,.51-.74,.76-1.11,.1,.16,.19,.3,.28,.44,.14,.22,.27,.4,.37,.56,.1,.16,.19,.28,.25,.36,.06,.08,.09,.13,.09,.13l.09-.04s0-.05-.02-.15c-.02-.1-.04-.25-.08-.43-.02-.09-.04-.2-.07-.31-.03-.11-.06-.23-.1-.35-.07-.25-.16-.53-.27-.83-.01-.03-.02-.07-.04-.11,.26-.38,.5-.75,.74-1.11,.3-.46,.58-.89,.84-1.29,.26-.4,.49-.77,.7-1.1,.21-.33,.39-.62,.53-.85,.29-.48,.46-.75,.46-.75l-.08-.06s-.19,.26-.52,.7c-.33,.45-.81,1.08-1.39,1.85-.29,.38-.6,.79-.93,1.23-.17,.22-.34,.44-.51,.67l-.08,.1c-.03-.08-.07-.16-.1-.24-.14-.34-.3-.69-.49-1.04-.09-.17-.19-.35-.29-.53-.1-.18-.21-.35-.32-.53-.22-.36-.44-.72-.65-1.08-.22-.36-.43-.73-.65-1.08-.07-.12-.14-.23-.21-.35,.03-.06,.05-.13,.08-.19,.25-.62,.47-1.2,.68-1.75,.41-1.09,.73-2,.94-2.64,.21-.64,.32-1.01,.32-1.01l-.09-.03s-.13,.36-.39,.99c-.13,.31-.29,.69-.47,1.12-.18,.43-.39,.92-.63,1.45-.22,.5-.47,1.03-.73,1.59-.04-.07-.09-.14-.13-.21-.21-.34-.41-.66-.61-.97-.2-.31-.38-.59-.55-.86-.17-.27-.33-.51-.47-.72-.14-.22-.26-.4-.37-.56-.21-.31-.32-.48-.32-.48l-.09,.05s.38,.76,.94,1.89c.28,.57,.61,1.23,.96,1.93,.1,.2,.2,.41,.31,.62-.2,.42-.41,.85-.63,1.28-.32,.65-.67,1.31-1.01,1.98-.31,.59-.63,1.18-.96,1.76-.12-.16-.24-.32-.36-.48-.31-.42-.63-.84-.95-1.24-.31-.41-.64-.8-.95-1.18-.19-.23-.37-.45-.55-.67,.12-.29,.23-.58,.33-.86,.2-.53,.38-1.03,.55-1.49,.33-.93,.59-1.71,.75-2.25,.17-.55,.26-.86,.26-.86l-.09-.03s-.11,.31-.33,.84c-.11,.26-.24,.59-.39,.95-.15,.37-.33,.78-.53,1.23-.2,.45-.42,.93-.65,1.44-.09,.19-.18,.39-.28,.59-.28-.33-.55-.65-.8-.94-.26-.3-.5-.57-.71-.8-.21-.24-.4-.45-.55-.61-.31-.34-.49-.53-.49-.53l-.08,.06s.16,.21,.43,.58c.14,.18,.3,.41,.49,.67,.19,.26,.4,.55,.63,.87,.23,.32,.48,.66,.73,1.03,.04,.06,.08,.12,.12,.18-.08,.17-.16,.34-.25,.52-.27,.55-.55,1.11-.84,1.69-.29,.57-.6,1.15-.91,1.71-.16,.28-.31,.57-.48,.85-.06,.1-.12,.2-.18,.31-.09-.1-.19-.21-.28-.31-.41-.46-.83-.9-1.24-1.32-.41-.42-.81-.83-1.19-1.2l-.04-.04s.02-.05,.03-.08c.07-.22,.15-.44,.21-.65,.13-.43,.25-.82,.35-1.2,.05-.19,.1-.36,.14-.54,.04-.17,.08-.33,.12-.49,.07-.3,.13-.57,.17-.79,.04-.22,.08-.39,.1-.51,.02-.12,.03-.18,.03-.18l-.1-.02s-.02,.06-.05,.18c-.03,.11-.08,.28-.15,.5-.03,.11-.07,.22-.11,.35-.04,.13-.08,.27-.14,.41-.05,.15-.11,.3-.16,.47-.06,.16-.12,.34-.19,.52-.13,.36-.29,.74-.45,1.15-.06,.16-.13,.32-.2,.49-.22-.21-.44-.42-.65-.61-.69-.64-1.27-1.16-1.69-1.52-.42-.36-.66-.55-.66-.55l-.07,.07s.22,.22,.6,.61c.19,.2,.42,.43,.68,.71,.26,.28,.55,.59,.87,.93,.23,.25,.47,.51,.72,.79-.05,.12-.1,.23-.15,.35-.2,.43-.4,.88-.62,1.33-.11,.23-.22,.45-.33,.68-.12,.22-.23,.45-.35,.67l-.18,.34-.09,.17-.1,.16c-.13,.21-.25,.43-.38,.64-.05-.06-.1-.13-.15-.19-.31-.41-.62-.82-.93-1.22-.31-.4-.62-.79-.92-1.16-.07-.08-.13-.17-.2-.25,0-.03,.02-.06,.02-.09,.11-.39,.2-.77,.28-1.14,.08-.36,.15-.71,.21-1.03,.06-.32,.11-.61,.15-.87,.04-.26,.07-.49,.1-.68,.05-.37,.07-.59,.07-.59l-.1-.02s-.04,.21-.14,.57c-.1,.36-.23,.88-.42,1.5-.09,.31-.2,.64-.32,.99-.09,.26-.18,.54-.28,.82-.37-.45-.72-.86-1.04-1.24-.25-.29-.48-.56-.68-.79-.2-.24-.38-.44-.53-.61-.3-.33-.47-.52-.47-.52l-.08,.06s.15,.21,.41,.57c.13,.18,.29,.4,.47,.66,.18,.25,.38,.54,.6,.85,.22,.31,.46,.65,.71,1.01,.13,.19,.26,.38,.4,.58-.11,.28-.22,.56-.33,.84-.16,.39-.32,.78-.5,1.17-.09,.19-.18,.39-.27,.57-.09,.19-.19,.38-.29,.56-.2,.37-.39,.73-.58,1.07-.07,.13-.13,.25-.2,.38-.05-.11-.09-.22-.14-.33-.04-.09-.08-.18-.13-.28-.04-.09-.09-.18-.14-.28-.1-.18-.2-.36-.3-.55-.2-.37-.43-.73-.64-1.1-.1-.19-.22-.37-.33-.55-.11-.18-.22-.36-.33-.54-.14-.23-.29-.45-.43-.67,.08-.33,.16-.66,.23-.97,.08-.37,.15-.72,.21-1.04,.23-1.3,.28-2.17,.28-2.17h-.1s-.04,.2-.13,.57c-.09,.37-.22,.9-.4,1.52-.09,.31-.19,.65-.31,1-.05,.17-.11,.34-.17,.51-.17-.25-.34-.49-.51-.72-.11-.15-.21-.29-.31-.43-.1-.14-.2-.27-.3-.39-.19-.25-.38-.48-.54-.68-.16-.2-.3-.37-.43-.51-.12-.14-.22-.25-.28-.33-.07-.07-.1-.11-.1-.11l-.08,.06s.03,.04,.08,.13c.06,.08,.14,.2,.23,.36,.1,.15,.22,.35,.36,.56,.13,.22,.29,.46,.45,.73l.25,.42c.09,.15,.17,.3,.26,.46,.18,.31,.37,.64,.56,.99,.03,.06,.06,.12,.1,.17-.13,.35-.27,.7-.41,1.06-.08,.2-.16,.39-.25,.59-.08,.2-.17,.39-.26,.59-.09,.19-.19,.39-.28,.58-.1,.19-.2,.38-.3,.56-.1,.18-.21,.36-.31,.55-.05,.09-.1,.18-.15,.27-.07-.14-.13-.28-.21-.42-.17-.32-.36-.65-.56-.98-.2-.33-.4-.67-.59-1.01-.19-.34-.39-.68-.58-1.01-.11-.2-.22-.39-.34-.58,.14-.36,.28-.72,.4-1.06,.13-.38,.26-.74,.36-1.07,.11-.33,.2-.64,.28-.91,.08-.27,.15-.51,.2-.71,.1-.4,.15-.62,.15-.62l-.1-.03s-.08,.22-.22,.6c-.15,.38-.36,.92-.64,1.55-.14,.32-.29,.66-.46,1.02-.1,.21-.2,.42-.31,.64-.14-.25-.28-.49-.42-.72-.17-.29-.34-.56-.49-.81-.15-.25-.29-.48-.41-.69-.12-.2-.23-.38-.32-.53-.18-.29-.28-.46-.28-.46l-.09,.05s.08,.18,.21,.49c.07,.16,.15,.35,.25,.57,.1,.22,.21,.46,.32,.73,.12,.27,.25,.56,.39,.87,.14,.31,.28,.63,.44,.96,.03,.06,.06,.12,.08,.18-.17,.33-.35,.67-.53,1.02-.22,.4-.44,.8-.67,1.2-.12,.2-.23,.4-.36,.59-.08,.14-.17,.27-.26,.4-.14-.26-.3-.53-.46-.8-.2-.33-.4-.67-.59-1.01-.19-.34-.39-.68-.58-1.01-.19-.33-.38-.66-.57-.98-.02-.04-.05-.08-.07-.11,.01-.02,.02-.05,.03-.08,.17-.41,.32-.79,.45-1.15,.52-1.44,.75-2.44,.75-2.44l-.1-.03s-.08,.24-.25,.65c-.08,.21-.19,.45-.31,.74-.12,.28-.27,.6-.43,.94-.13,.28-.28,.57-.43,.88-.06-.1-.12-.21-.18-.31-.17-.29-.34-.56-.48-.81-.15-.25-.29-.48-.41-.69-.12-.2-.23-.38-.32-.53l-.28-.46-.09,.05s.08,.18,.22,.49c.07,.16,.15,.35,.25,.57,.1,.22,.21,.46,.32,.73,.12,.27,.25,.56,.39,.86,.1,.21,.2,.44,.3,.67-.14,.27-.3,.55-.46,.83-.12,.21-.24,.41-.36,.62-.13,.21-.25,.42-.38,.63-.13,.21-.26,.42-.4,.63-.07,.1-.14,.21-.21,.31l-.21,.31c-.1,.15-.21,.3-.32,.44-.11-.26-.23-.53-.36-.8-.18-.38-.36-.76-.53-1.15-.17-.39-.34-.77-.51-1.16-.17-.38-.34-.75-.51-1.11v-.02c.15-.32,.3-.63,.43-.92,.16-.37,.3-.71,.41-1.01,.12-.3,.2-.57,.27-.79,.14-.44,.2-.71,.2-.71l-.09-.03s-.08,.25-.27,.67c-.09,.21-.21,.47-.35,.75-.14,.29-.31,.61-.5,.95-.1,.19-.22,.39-.34,.59-.08-.18-.17-.36-.25-.53-.15-.33-.3-.64-.44-.93-.14-.29-.26-.55-.37-.78-.11-.23-.21-.44-.29-.6-.16-.33-.25-.52-.25-.52l-.09,.04s.07,.2,.18,.55c.06,.18,.13,.39,.21,.63,.08,.24,.18,.52,.28,.82,.19,.56,.42,1.21,.66,1.91-.23,.35-.47,.73-.74,1.09-.14,.2-.29,.4-.44,.6-.16,.2-.31,.4-.47,.6-.16,.2-.32,.4-.5,.59-.09,.1-.17,.2-.26,.29-.09,.1-.18,.19-.26,.29-.12,.13-.25,.26-.37,.39-.2-.42-.41-.84-.63-1.27-.25-.49-.51-.98-.76-1.48-.12-.25-.25-.49-.37-.74,.03-.04,.07-.08,.1-.12,.07-.09,.15-.19,.22-.28,.07-.1,.14-.19,.21-.28,.28-.38,.54-.75,.77-1.11,.24-.36,.45-.7,.64-1.03,.37-.65,.65-1.2,.83-1.6,.18-.4,.27-.63,.27-.63l-.09-.04s-.11,.22-.33,.59c-.11,.18-.25,.41-.41,.66-.16,.25-.36,.53-.57,.83-.22,.3-.45,.62-.72,.95-.13,.17-.27,.33-.41,.5-.14,.17-.29,.34-.44,.51-.08,.09-.15,.17-.23,.26-.05,.06-.11,.12-.16,.18-.27-.53-.53-1.05-.8-1.55-.24-.46-.47-.91-.7-1.33-.22-.42-.44-.82-.63-1.19-.03-.07-.07-.13-.1-.19,.02-.02,.03-.04,.05-.06,.19-.25,.36-.47,.51-.68,.15-.2,.28-.38,.38-.53,.21-.3,.32-.47,.32-.47l-.08-.06s-.14,.15-.38,.42c-.12,.13-.27,.29-.44,.47-.16,.17-.34,.36-.54,.56-.09-.17-.17-.32-.25-.47-.16-.3-.3-.56-.42-.77-.23-.43-.37-.67-.37-.67l-.09,.04s.35,.83,.9,2.11c-.16,.17-.33,.34-.51,.51-.25,.25-.51,.51-.79,.77-.28,.27-.57,.53-.86,.81-.3,.27-.6,.54-.91,.81-.16,.13-.31,.27-.47,.39-.02,.01-.04,.03-.05,.04-.06-.14-.12-.27-.19-.41-.26-.57-.52-1.13-.78-1.67-.24-.51-.47-1-.69-1.47,.19-.19,.38-.39,.55-.58,.18-.2,.36-.4,.52-.59,.08-.1,.16-.19,.23-.28,.07-.09,.14-.18,.21-.27,.07-.08,.13-.17,.18-.25,.06-.08,.11-.16,.16-.23,.05-.07,.1-.14,.14-.2,.04-.07,.08-.12,.11-.18,.07-.11,.12-.19,.15-.25,.03-.06,.05-.09,.05-.09l-.08-.05s-.02,.03-.06,.08c-.04,.05-.11,.12-.19,.22-.08,.09-.19,.2-.31,.32-.12,.12-.26,.26-.41,.41-.08,.07-.16,.15-.24,.23-.08,.08-.17,.15-.27,.24-.18,.16-.38,.33-.58,.5-.15,.12-.3,.24-.45,.36-.14-.3-.28-.58-.41-.85-.21-.43-.4-.83-.57-1.18-.17-.35-.32-.65-.44-.91-.25-.5-.39-.79-.39-.79l-.09,.04s.64,1.64,1.55,3.95c-.06,.04-.11,.09-.17,.13-.11,.09-.22,.17-.34,.25-.23,.16-.46,.33-.7,.47-.24,.14-.46,.3-.68,.45-.22,.15-.41,.31-.6,.47-.11,.09-.22,.18-.33,.27-.03-.07-.06-.14-.09-.21-.13-.3-.25-.59-.37-.87-.12-.28-.23-.54-.34-.78-.11-.24-.2-.46-.29-.66-.09-.2-.16-.36-.22-.5l-.2-.44-.09,.03,.13,.46c.04,.15,.09,.33,.15,.53,.06,.2,.12,.44,.19,.69,.07,.25,.15,.53,.23,.81,.08,.29,.17,.59,.26,.91,.04,.15,.09,.31,.14,.47-.04,.04-.08,.08-.12,.12-.13,.12-.23,.24-.32,.33-.09,.1-.15,.18-.2,.23-.04,.05-.07,.09-.07,.09l.05,.09s.04,0,.11-.02c.07-.01,.17-.04,.29-.08,.12-.04,.27-.08,.44-.14,.09,.29,.18,.59,.27,.88,.1,.33,.2,.67,.29,1,.09,.33,.18,.66,.29,.97,.11,.31,.23,.6,.35,.88,.04,.08,.07,.17,.11,.25l-.02,.02c-.15,.11-.27,.18-.34,.24-.08,.06-.12,.09-.12,.09l.03,.09s.05,0,.15-.02c.05,0,.11-.02,.18-.03,.07-.01,.16-.02,.24-.05h.04c.03,.05,.06,.12,.09,.18,.24,.47,.46,.85,.63,1.12,.09,.13,.15,.23,.21,.3,.05,.07,.08,.11,.08,.11l.09-.03s0-.05,0-.13c0-.09-.02-.21-.03-.36-.04-.31-.1-.75-.22-1.26-.01-.06-.03-.11-.04-.17,.06-.02,.13-.05,.19-.08,.13-.06,.28-.11,.42-.19,.14-.07,.29-.14,.44-.23,.15-.09,.31-.17,.46-.27,.31-.19,.63-.41,.94-.65,.17-.14,.33-.28,.5-.43,.03,.07,.06,.15,.09,.22,.23,.59,.46,1.19,.67,1.78,.21,.59,.43,1.17,.65,1.72,.01,.04,.03,.07,.04,.11-.13,.1-.26,.2-.39,.28-.16,.11-.31,.22-.46,.33-.15,.11-.29,.2-.43,.3-.14,.1-.27,.19-.39,.27-.12,.08-.24,.16-.35,.24-.11,.08-.2,.15-.29,.21-.18,.12-.32,.22-.41,.29-.1,.07-.15,.11-.15,.11l.04,.09s.06-.01,.18-.04c.11-.03,.28-.07,.5-.13,.21-.06,.47-.15,.76-.25,.15-.05,.3-.12,.45-.18,.16-.07,.33-.14,.5-.22,.17-.08,.35-.17,.53-.26,.1-.05,.19-.1,.29-.16,.09,.2,.18,.4,.26,.59,.22,.5,.44,.97,.64,1.4,.2,.43,.4,.83,.56,1.18,.05,.1,.09,.2,.14,.29-.03,.03-.07,.06-.1,.08-.05,.04-.1,.08-.14,.11-.18,.15-.32,.26-.42,.35-.09,.08-.14,.13-.14,.13l.05,.09s.06-.02,.18-.06c.12-.04,.29-.11,.51-.19,.08-.03,.17-.07,.26-.11,.04,.08,.08,.15,.11,.22,.12,.25,.22,.45,.29,.58,.07,.13,.11,.2,.11,.2l.09-.03s-.01-.08-.04-.23c-.03-.15-.07-.37-.12-.65-.02-.09-.04-.18-.06-.28l.13-.06c.07-.04,.15-.07,.23-.11,.08-.04,.16-.08,.24-.13,.16-.09,.33-.18,.51-.28,.34-.21,.72-.44,1.09-.71,.09-.07,.19-.14,.29-.21,.1-.07,.19-.15,.29-.22,.19-.15,.39-.31,.57-.48,.27-.25,.54-.51,.81-.79,.05,.1,.09,.19,.14,.28,.1,.21,.21,.42,.31,.62,.1,.2,.2,.39,.3,.58,.19,.37,.37,.71,.53,1.01,.16,.3,.3,.56,.42,.77,.04,.07,.07,.13,.1,.19l-.02,.02c-.09,.1-.17,.19-.25,.27-.15,.16-.27,.29-.35,.38-.08,.09-.12,.14-.12,.14l.06,.08s.06-.03,.17-.08c.11-.05,.27-.13,.47-.24,.09-.05,.18-.1,.28-.16,.03,.05,.04,.07,.04,.07l.1-.03s0-.04-.02-.11c.1-.06,.19-.12,.3-.19,.13-.09,.27-.19,.41-.29,.07-.05,.14-.11,.22-.16,.07-.06,.15-.12,.22-.18,.08-.06,.15-.12,.23-.19,.08-.06,.16-.13,.23-.2,.15-.14,.32-.28,.48-.44,.16-.16,.32-.32,.48-.49,.16-.17,.31-.35,.47-.54,.14-.18,.28-.36,.42-.54,.12,.25,.23,.49,.35,.72,.14,.28,.28,.54,.4,.77,.12,.23,.23,.43,.33,.59,.1,.16,.17,.29,.23,.37,.05,.09,.09,.13,.09,.13l.09-.03s0-.05-.01-.16c-.01-.1-.03-.25-.06-.44-.03-.19-.06-.41-.12-.67-.05-.26-.12-.54-.2-.85-.08-.31-.18-.64-.29-.99-.04-.14-.09-.29-.14-.43,.21-.32,.41-.65,.61-.98l.2-.33c.06-.11,.13-.22,.19-.33,.13-.22,.25-.45,.37-.67,.12-.22,.23-.45,.35-.67,.11-.22,.22-.44,.32-.66,.07-.16,.15-.32,.22-.48,.1,.23,.21,.47,.32,.7,.16,.35,.33,.7,.49,1.06,.16,.36,.32,.71,.47,1.07,.15,.35,.3,.7,.46,1.03,.05,.11,.11,.21,.16,.32-.07,.1-.13,.19-.2,.29-.24,.36-.46,.7-.67,1.04-.1,.17-.21,.32-.31,.48-.05,.08-.1,.16-.15,.23-.05,.07-.1,.15-.15,.22-.19,.29-.36,.55-.51,.79-.08,.12-.15,.23-.22,.33-.07,.1-.13,.2-.18,.29-.11,.17-.2,.3-.26,.4-.06,.09-.09,.15-.09,.15l.07,.07s.05-.03,.14-.09c.09-.06,.23-.16,.4-.28,.16-.13,.36-.28,.58-.48,.21-.19,.46-.42,.7-.67,.13-.13,.25-.26,.38-.41,.12-.15,.26-.29,.38-.45,.23-.28,.45-.58,.66-.89l.02,.03c.08,.13,.16,.26,.24,.39,.16,.25,.31,.47,.45,.67,.07,.1,.13,.19,.19,.27,.06,.08,.12,.16,.17,.23,.1,.14,.19,.25,.25,.32,.06,.07,.09,.11,.09,.11l.09-.04s0-.05-.02-.14c-.02-.09-.04-.23-.08-.4-.04-.17-.09-.38-.16-.61-.07-.23-.16-.49-.26-.77-.1-.28-.21-.58-.35-.89-.02-.04-.04-.09-.06-.13,.07-.12,.13-.25,.2-.37,.11-.21,.22-.41,.32-.63,.05-.11,.1-.21,.16-.31l.15-.32c.21-.42,.41-.85,.6-1.27,.09-.19,.17-.38,.25-.57,.02,.03,.03,.06,.04,.1,.16,.35,.32,.7,.49,1.06,.16,.36,.32,.71,.47,1.07,.15,.35,.3,.7,.46,1.03,.16,.33,.33,.64,.51,.92,.02,.03,.03,.05,.05,.08-.04,.07-.08,.15-.12,.22-.18,.32-.34,.63-.49,.91-.04,.07-.08,.14-.11,.21-.04,.07-.07,.13-.11,.2-.07,.13-.14,.25-.2,.37-.07,.11-.13,.22-.18,.32-.06,.1-.1,.2-.15,.28-.1,.17-.17,.3-.22,.39-.05,.09-.07,.14-.07,.14l.07,.07s.05-.03,.13-.09c.08-.06,.21-.16,.36-.28,.15-.13,.32-.29,.52-.48,.1-.1,.19-.2,.3-.31,.05-.06,.1-.11,.16-.17,.05-.06,.1-.12,.16-.19,.11-.13,.22-.26,.33-.41,.06-.09,.13-.17,.2-.26,.11,.17,.22,.33,.33,.48,.07,.1,.13,.19,.19,.27,.06,.08,.12,.16,.17,.23,.1,.14,.19,.25,.25,.32,.06,.07,.09,.11,.09,.11l.09-.04s0-.05-.02-.14c-.02-.09-.04-.23-.09-.4-.04-.17-.09-.38-.16-.61-.07-.23-.16-.49-.26-.77-.03-.07-.05-.15-.08-.22,.09-.15,.17-.29,.26-.45,.09-.19,.19-.38,.28-.57,.09-.2,.17-.4,.26-.6,.16-.41,.32-.82,.48-1.23,.08-.21,.15-.41,.22-.62,.07-.21,.14-.42,.21-.62,.06-.18,.11-.36,.16-.53,.02,.04,.05,.09,.07,.13,.09,.18,.19,.37,.28,.55,.09,.19,.19,.37,.28,.56,.18,.38,.36,.75,.51,1.14,.08,.19,.15,.38,.23,.56,.08,.18,.15,.37,.23,.55,.08,.18,.16,.35,.24,.52,.04,.08,.08,.17,.12,.25,.04,.08,.08,.16,.11,.25l.03,.06c-.03,.06-.06,.11-.08,.17-.04,.07-.08,.14-.11,.22-.15,.28-.28,.54-.4,.77-.06,.12-.12,.22-.17,.32-.05,.1-.1,.2-.14,.28-.09,.17-.16,.3-.2,.39-.05,.09-.07,.14-.07,.14l.08,.06s.04-.03,.13-.1c.08-.06,.2-.16,.35-.28,.14-.13,.32-.29,.5-.48,.17-.18,.36-.38,.54-.62,.13,.27,.25,.52,.36,.74,.06,.11,.11,.22,.15,.32,.05,.1,.1,.19,.14,.28,.08,.17,.15,.3,.2,.38,.05,.09,.08,.14,.08,.14l.1-.02s0-.05,0-.16c0-.1-.01-.25-.03-.44-.02-.19-.04-.42-.08-.68-.05-.26-.11-.55-.18-.86-.03-.17-.08-.33-.13-.51,.03-.04,.05-.08,.08-.12,.21-.31,.42-.66,.6-1.02,.18-.37,.35-.76,.51-1.16,.08-.2,.16-.4,.23-.61,.04-.1,.08-.2,.11-.31l.11-.31c.15-.41,.29-.82,.42-1.23,.04-.14,.08-.28,.13-.41,.25,.36,.5,.74,.75,1.11,.28,.41,.56,.84,.84,1.27,.11,.17,.22,.34,.33,.51-.1,.16-.2,.33-.29,.49-.23,.41-.47,.8-.68,1.18-.11,.19-.21,.38-.31,.55-.1,.18-.21,.35-.3,.51-.09,.17-.18,.32-.27,.48-.09,.15-.16,.3-.24,.43-.16,.27-.29,.51-.4,.7-.11,.2-.19,.36-.24,.47-.05,.11-.08,.17-.08,.17l.08,.06s.05-.04,.14-.12c.09-.08,.22-.2,.39-.36,.16-.16,.37-.35,.59-.58,.22-.23,.45-.5,.7-.8,.13-.15,.25-.31,.38-.47,.13-.17,.25-.34,.38-.53,.26-.37,.53-.75,.76-1.18v-.02c.1,.14,.18,.29,.27,.42,.13,.21,.26,.41,.38,.61,.26,.4,.51,.78,.76,1.14,.12,.18,.24,.35,.36,.52-.03,.04-.05,.09-.08,.13-.1,.17-.21,.32-.3,.47-.09,.15-.17,.28-.25,.4-.16,.24-.28,.43-.36,.56-.08,.13-.12,.21-.12,.21l.07,.06s.06-.05,.18-.16c.12-.1,.29-.25,.5-.45,.2-.2,.44-.44,.71-.73,.11,.15,.2,.29,.3,.43,.1,.14,.19,.28,.29,.4,.19,.25,.34,.47,.47,.65,.13,.18,.24,.32,.31,.42,.07,.1,.12,.15,.12,.15l.09-.04s-.02-.06-.05-.18c-.03-.12-.08-.29-.15-.51-.04-.11-.08-.23-.12-.36-.04-.13-.1-.27-.16-.41-.12-.29-.25-.62-.42-.97-.03-.07-.07-.14-.1-.21,.11-.13,.22-.27,.34-.41,.16-.19,.32-.4,.48-.61,.16-.21,.33-.43,.49-.67,.08-.12,.17-.23,.25-.35,.08-.12,.16-.24,.25-.37,.17-.25,.33-.51,.49-.77,.16-.27,.32-.54,.46-.82,.07-.12,.13-.24,.19-.36,.03,.04,.07,.08,.1,.13,.19,.25,.37,.5,.55,.75,.18,.25,.35,.5,.53,.75,.31,.47,.62,.93,.92,1.37-.14,.21-.27,.42-.4,.63-.08,.13-.17,.26-.25,.38-.08,.13-.16,.25-.24,.37-.08,.12-.16,.24-.23,.35-.07,.12-.15,.23-.22,.34-.15,.22-.29,.42-.41,.62-.13,.2-.26,.37-.37,.54-.11,.17-.22,.32-.31,.46-.19,.27-.35,.49-.45,.65-.1,.15-.15,.23-.15,.23l.07,.07s.07-.06,.21-.18c.14-.12,.34-.3,.59-.53,.24-.24,.54-.53,.87-.87,.16-.17,.33-.36,.51-.56,.18-.2,.36-.41,.55-.64,.09-.11,.19-.23,.29-.34,.09-.12,.19-.24,.29-.36,.08-.1,.16-.21,.24-.31,.15,.22,.3,.44,.45,.65,.3,.44,.57,.86,.83,1.24,.12,.19,.23,.36,.34,.53-.11,.16-.22,.32-.33,.47-.11,.16-.21,.31-.31,.45-.09,.14-.18,.27-.26,.38-.16,.23-.28,.42-.36,.55l-.12,.2,.07,.07s.06-.05,.18-.15c.12-.1,.28-.24,.49-.43,.21-.19,.47-.41,.75-.69,.08-.08,.17-.17,.26-.25,.04,.06,.07,.12,.11,.17,.05,.08,.09,.15,.13,.22,.09,.14,.17,.27,.24,.38,.14,.23,.25,.42,.33,.55,.08,.13,.12,.19,.12,.19l.09-.04s-.02-.08-.05-.22Zm-46.16-11.79c-.16,.12-.31,.23-.46,.35-.3,.23-.58,.46-.85,.68-.27,.21-.53,.42-.76,.6-.12,.1-.24,.18-.34,.26h-.02c-.08-.27-.17-.57-.28-.87-.11-.31-.25-.62-.39-.93-.14-.31-.28-.63-.41-.96-.12-.3-.25-.6-.37-.89,.17-.08,.35-.17,.54-.28,.22-.13,.44-.27,.66-.43,.11-.08,.22-.17,.32-.26,.11-.09,.21-.19,.32-.28,.11-.1,.21-.2,.32-.3,.1-.1,.21-.2,.32-.3,.1-.09,.19-.18,.29-.27,.44,1.12,.93,2.37,1.43,3.65-.1,.08-.2,.15-.3,.23Zm2.3,2.38c-.26-.57-.54-1.15-.8-1.73-.07-.16-.15-.32-.22-.49,.08-.08,.16-.16,.25-.25,.15-.15,.29-.3,.44-.44,.29-.3,.58-.6,.86-.9,.28-.3,.54-.6,.8-.9,.25-.3,.49-.58,.72-.86,.12-.14,.23-.28,.34-.42,0,.01,.01,.03,.02,.04,.53,1.25,1.21,2.83,1.92,4.48l-.04,.04c-.17,.17-.34,.34-.51,.51-.18,.16-.35,.33-.53,.5-.36,.32-.74,.63-1.12,.92-.1,.07-.19,.14-.28,.22-.1,.07-.19,.14-.29,.21-.09,.07-.19,.14-.28,.21-.09,.07-.19,.13-.28,.2-.09,.07-.18,.13-.27,.2l-.02,.02c-.21-.51-.45-1.03-.69-1.55Zm5.05,3.77c-.18,.16-.36,.31-.54,.47-.17,.16-.35,.31-.51,.45-.08,.07-.17,.14-.25,.22-.08,.07-.17,.14-.24,.21-.16,.14-.32,.27-.46,.4-.15,.12-.3,.24-.43,.36-.07,.06-.14,.11-.2,.17-.05,.04-.11,.09-.16,.13-.01-.04-.02-.08-.03-.13-.1-.38-.22-.8-.36-1.26-.14-.46-.31-.95-.49-1.47-.09-.25-.18-.51-.28-.77,.08-.05,.16-.1,.24-.16,.09-.07,.19-.14,.28-.21,.09-.07,.19-.15,.28-.22,.09-.08,.18-.16,.28-.24,.09-.08,.19-.16,.28-.24,.09-.08,.18-.17,.27-.25,.18-.17,.36-.35,.54-.52,.18-.18,.35-.36,.53-.54,.18-.18,.34-.37,.51-.55,.11-.12,.22-.24,.32-.37,.06,.14,.12,.29,.19,.43,.22,.51,.43,1.03,.63,1.53,.2,.51,.4,1.01,.61,1.48,.02,.05,.05,.1,.07,.15-.36,.32-.72,.63-1.06,.94Zm3.88,2.78c-.11,.13-.22,.25-.33,.36l-.03,.03v-.05c-.06-.24-.13-.53-.22-.86-.09-.33-.21-.7-.34-1.1-.13-.4-.29-.83-.46-1.27-.09-.24-.19-.48-.29-.72,.03-.03,.05-.06,.08-.1,.09-.1,.17-.21,.26-.31,.09-.1,.17-.21,.25-.31,.08-.1,.17-.21,.25-.31,.08-.11,.16-.21,.24-.32,.17-.21,.32-.43,.47-.64,.15-.22,.3-.43,.44-.65,.14-.22,.28-.43,.41-.65,.06-.11,.13-.21,.19-.32,.06-.11,.12-.21,.18-.32,.03-.05,.06-.11,.09-.16,.08,.23,.16,.45,.24,.68,.14,.39,.28,.79,.42,1.19,.14,.4,.27,.8,.4,1.2,.13,.4,.26,.79,.4,1.16,.03,.08,.06,.16,.09,.23-.1,.12-.21,.25-.31,.37-.16,.18-.31,.36-.46,.54-.15,.18-.3,.35-.44,.52-.14,.17-.29,.34-.42,.5-.28,.32-.54,.63-.79,.91-.06,.07-.12,.14-.18,.21-.06,.07-.12,.13-.18,.19Zm35.69-7.63c.35-.69,.69-1.39,1.02-2.08,.33-.69,.63-1.37,.92-2.04,.14-.31,.27-.62,.4-.92,.16,.33,.33,.66,.49,.99,.18,.38,.36,.76,.53,1.14,.17,.38,.34,.75,.51,1.1,.18,.35,.36,.68,.54,.99,.12,.21,.24,.41,.36,.61-.32,.41-.64,.83-.97,1.26-.39,.49-.78,.99-1.17,1.5-.22,.28-.45,.56-.68,.84-.11-.24-.23-.49-.36-.74-.21-.41-.44-.82-.71-1.24-.14-.21-.27-.42-.42-.63-.15-.21-.3-.42-.45-.62-.02-.02-.04-.05-.06-.08l.04-.07Zm-7.93,3.02c-.31,.52-.61,1.02-.9,1.5-.07,.12-.14,.24-.21,.35-.07,.12-.14,.23-.21,.34-.07,.11-.13,.22-.2,.33-.07,.11-.13,.21-.2,.32-.03,.04-.05,.08-.07,.12-.03-.05-.05-.1-.08-.15-.22-.39-.45-.79-.72-1.19-.27-.4-.56-.81-.87-1.21-.05-.06-.1-.13-.15-.19,.06-.13,.12-.26,.18-.39,.21-.46,.44-.93,.64-1.41,.1-.24,.21-.47,.31-.71,.1-.24,.19-.48,.29-.71,.2-.47,.36-.94,.52-1.4,.01-.03,.02-.06,.03-.09,.32,.36,.64,.73,.97,1.12,.38,.45,.76,.91,1.15,1.38,.14,.17,.27,.34,.41,.51-.31,.5-.61,.99-.91,1.47Zm3.47,.42c-.2-.24-.4-.48-.6-.72-.21-.24-.4-.48-.61-.72-.11-.13-.22-.26-.33-.38,.03-.06,.06-.12,.09-.18,.07-.15,.14-.29,.22-.44,.15-.29,.29-.59,.43-.89,.29-.59,.56-1.19,.83-1.78,.26-.59,.51-1.18,.75-1.75,.03-.07,.06-.15,.09-.22,.1,.15,.21,.29,.31,.44,.28,.4,.56,.82,.85,1.24,.29,.42,.58,.86,.86,1.29,.19,.28,.37,.57,.54,.86-.08,.14-.16,.28-.24,.41-.1,.16-.2,.33-.3,.49-.1,.16-.2,.32-.3,.48-.2,.32-.4,.63-.6,.95-.2,.31-.4,.62-.59,.92-.21,.34-.42,.67-.62,.99-.07-.09-.13-.18-.2-.27-.18-.24-.38-.48-.57-.72Zm2.39,3.6c-.06-.11-.12-.23-.18-.35-.06-.12-.13-.23-.19-.35-.19-.34-.4-.68-.62-1.02,.1-.14,.2-.28,.29-.42,.2-.29,.4-.59,.59-.9,.19-.31,.39-.63,.57-.95,.19-.32,.37-.66,.55-1,.09-.17,.18-.34,.27-.51,.09-.17,.18-.34,.26-.51,.06,.09,.11,.19,.17,.28,.12,.22,.26,.42,.38,.63,.25,.41,.51,.8,.75,1.18,.22,.34,.42,.66,.61,.96-.38,.46-.75,.91-1.11,1.35-.37,.46-.71,.93-1.04,1.37-.16,.22-.32,.43-.47,.64-.13,.19-.26,.37-.39,.54-.04-.09-.08-.17-.12-.26-.1-.22-.21-.44-.33-.67Z"/></g></g><path class="p" d="M57.96,129.72c2.29-16.67,7.86-32.23,10.55-39.07-4.21,2.35-7.78,5.19-9.09,8.44-4.02,9.98-4.91,19.96-6.96,27.13-1.8,6.27-5.3,18.1-5.31,24.42l-30.32,9.57,1.38,7.03c37.49-1.89,36.81-16.07,39.75-37.51Z"/><path class="ah" d="M137.22,125.96l6.63,27.19s5.44,30.79,10.18,37.77c.87,1.28,1.57,2.39,2.14,3.35h7.18c-3.15-7.6-6.62-16.71-8.31-23.58-3.51-14.24-14.02-44.92-16.87-46.23-.9-.42-1.17,1.16-1.11,3.51l.17-2.01Z"/><g><path class="p" d="M154.03,190.92c.87,1.28,1.57,2.39,2.14,3.35h5.8c-4.83-10.44-10.72-28.06-12.64-35.41-2.63-10.08-4.38-28.05-9.64-32.65-1.35-1.18-2.08-.97-2.41-.02l6.57,26.96s5.44,30.79,10.18,37.77Z"/><path class="p" d="M137.03,128.18l.14-1.6c-.1,.44-.14,.99-.14,1.6Z"/></g><path class="k" d="M97.81,156.67c-7.79,.59-15.01,1.1-19.51,1.32-.11,0-.21,0-.31,.01h-.23c-.1,.02-.2,.02-.3,.02-.13,0-.25,.01-.37,.02-.1,0-.2,0-.29,.01-.08,0-.16,0-.24,0-.08,0-.15,0-.22,0-.09,0-.18,0-.27,0-.09,0-.18,0-.26,0-.09,0-.17,0-.25,0-.06,0-.11,0-.16,0-.08,0-.17,0-.25,0h-.11c-.11,0-.21,0-.31,0h-.1c-.07,0-.14,0-.21,0h-.08c-.08,0-.16,0-.23,0h-.04c-.06,0-.11,0-.16-.01h-.05c-.06,0-.11-.01-.15-.02-3.53-.55-3.07,13.93-.8,17.83h0c.07,.12,.14,.23,.22,.33,.03,.03,.06,.07,.1,.1,.02,.01,.04,.03,.06,.04,.02,.02,.05,.04,.07,.06,.03,.02,.06,.04,.1,.06,.02,.01,.04,.03,.07,.04,.04,.02,.09,.04,.14,.07,.02,0,.04,.02,.06,.03,.06,.02,.12,.05,.18,.07l.05,.02c.07,.03,.15,.05,.22,.08h.03c.09,.04,.18,.07,.27,.09h.01c2.63,.74,8.66,1.17,15.94,1.39,2.86-1.22,6.41-2,12.03-3.41,10.36-2.59,4.34-17.95-4.64-18.19Z"/><path class="k" d="M88.07,127.71c-3.09,1.49-6.41,2.87-9.97,4.1-.1,.03-.19,.07-.29,.1-1.15,.39-2.33,.77-3.53,1.14h0c-.29,.09-.58,.18-.88,.27,0,0-3.89,4.21,.08,6.44,0,0-4.95,4.39,.16,7.62-.55,1.58-3.86,4.1-.53,6.93,.12,.1,.38,.1,.77,0h.01c.1-.03,.21-.06,.33-.1,.03-.01,.07-.02,.11-.04,.09-.03,.19-.07,.29-.11,.04-.02,.08-.03,.12-.05,.13-.05,.27-.11,.42-.17,.05-.02,.11-.05,.16-.07,.11-.05,.22-.1,.33-.15,.07-.03,.14-.06,.21-.09,.14-.07,.29-.14,.45-.21,.09-.04,.17-.09,.26-.13,.12-.06,.25-.12,.37-.19,.09-.05,.18-.09,.28-.14,.13-.07,.26-.14,.4-.21,.12-.06,.25-.13,.37-.2,.13-.07,.26-.14,.39-.21h0c6.49-3.52,17.93-11.05,28.97-19.9,5.33-6.5-12.87,.45-19.31-4.65Z"/><path class="ad" d="M103.84,122.6s-26.2,14.23-31.32,16.41c.25,.26,.57,.51,.97,.73,0,0,20.6-6.85,30.35-17.15Z"/><path class="ad" d="M73.65,147.37c-.03,.07-.06,.15-.1,.23,4.99-2.09,33.03-14.39,46.98-32.08,0,0-15.43,15.25-48.36,30.59,.35,.43,.84,.86,1.48,1.26Z"/><path class="ad" d="M133.11,86.43c-1.46,4.1-9.09,23.72-25.56,37,8.85-4.32,26.39-26.03,27.54-37.01-.7-.23-1.4-.28-1.98,.01Z"/><path class="ad" d="M130.35,85.16s.03-.97-.19-1.67c-1.09,4.59-4.99,18.16-15.44,29.92,4.73-3.33,14.92-20.01,16.69-28.69-.3,.02-.65,.15-1.06,.44Z"/><path class="ad" d="M127.56,177.88c-1.1-.38-3.12-.62-6.04-.51-10.02,.37-38.51-1-43.23-3.15-4.72-2.15-3.46-4.14,5.88-4.88,9.34-.73,21.51-3.25,16.37-2.57-5.14,.68-21.88-.21-24.97-.26-1.79-.03-3.37-1.45-4.39-2.64-.26,4.57,.54,10.45,1.94,12.35,1.95,2.63,38.1,2.55,54.44,1.66Z"/><path class="ad" d="M82.52,162.29c1.13,.27,3.23,.45,6.25,.41,10.38-.15,39.89,1.07,44.76,2.58,4.88,1.51,3.56,2.86-6.12,3.27-9.68,.41-44.95,4.31-39.62,3.89,5.33-.41,45.31-1.94,48.52-1.87,.71,.01,1.38,.17,2,.39,.46-2.11,.72-4.54,.65-6.93-.02-.02-.03-.04-.05-.05-2-1.81-39.45-2.12-56.38-1.68Z"/><path class="ad" d="M135.96,160.01c1.86,2.19,1.35,9.96-1.01,12.16-1.89,1.76-35.89,3.94-38.85,6.22,16.92,.25,37.27-.45,39.21-1.31,2.97-1.32,5.8-15.1,1.34-21.56-.83,1.04-1.98,2.97-.69,4.5Z"/><g><g><polygon class="f" points="31.88 45.03 20.77 56.71 9.67 45.03 20.77 9.67 31.88 45.03"/><polygon class="o" points="20.57 10.31 9.67 45.03 20.57 56.5 20.57 10.31"/></g><rect class="w" x="17.58" y="52.53" width="6.4" height="141.74"/><rect class="m" x="17.58" y="52.53" width="2.3" height="141.74"/><rect class="aa" x="21.67" y="52.53" width="2.3" height="141.74"/><path class="m" d="M26.43,53.89c0,1.1-2.53,2-5.66,2s-5.66-.89-5.66-2,2.53-2,5.66-2,5.66,.89,5.66,2Z"/><path class="aa" d="M20.77,54.95c-2.67,0-4.9-.65-5.5-1.53-.1,.15-.16,.3-.16,.46,0,1.1,2.53,2,5.66,2s5.66-.89,5.66-2c0-.16-.06-.32-.16-.46-.59,.88-2.83,1.53-5.5,1.53Z"/></g><path class="ab" d="M86.94,83.24s.83-2.56,3.13-.26c2.3,2.3,15.79,18.39,15.79,18.39l12.63-19.56s2.56-.75,1.43,1.85c-1.13,2.6-13.72,21.33-13.72,21.33l-19.26-21.75Z"/><path class="r" d="M90.07,84.14c2.3,2.3,15.79,18.39,15.79,18.39l12.63-19.56s1.2-.35,1.59,.26c.68-2.09-1.59-1.42-1.59-1.42l-12.63,19.56s-13.49-16.1-15.79-18.39c-2.3-2.3-3.13,.26-3.13,.26l.4,.46c.45-.54,1.31-.97,2.72,.45Z"/><path class="h" d="M26.55,155.8c-1.01-2.77-10.87-1.6-13.26,.79-2.39,2.39-4.45,15.16,.53,16.46,6.53,1.71,20.13,3.09,12.73-17.25Z"/><g><path class="h" d="M27.73,159.25s-7.03-.9-11.32,.73"/><path class="h" d="M28.79,163.86s-6.4,.89-11.85,.89"/><path class="h" d="M28.26,168.81s-4.7,.7-11.85,.46"/></g><g><ellipse class="e" cx="110.93" cy="57.08" rx="2.25" ry="2.72"/><ellipse class="af" cx="110.84" cy="57.04" rx="1.47" ry="1.87"/><ellipse class="d" cx="110.59" cy="55.54" rx=".36" ry=".45"/><g><ellipse class="e" cx="98.72" cy="56.75" rx="2.25" ry="2.72"/><ellipse class="af" cx="98.7" cy="56.63" rx="1.47" ry="1.87"/><ellipse class="d" cx="98.38" cy="55.2" rx=".36" ry=".45"/></g></g></g></svg>