<?xml version="1.0" encoding="UTF-8"?><svg id="a" xmlns="http://www.w3.org/2000/svg" xmlns:xlink="http://www.w3.org/1999/xlink" viewBox="0 0 129.77 220.88"><defs><style>.c{fill:#fff;}.d{fill:#d9c5b1;}.e{fill:none;stroke:#603e1a;stroke-miterlimit:10;}.f{opacity:.5;}.g{fill:#e77e31;}.h{fill:#2c140c;}.i{fill:#b65b2b;}.j{fill:#f2e7da;}.k{fill:#ab9579;}.l{fill:#4e1f0f;}.m{fill:#1c0e0a;}.n{fill:#3f1a0c;}.o{fill:url(#b);}.p{fill:#db6d27;}</style><linearGradient id="b" x1="38.97" y1="73.3" x2="7.27" y2="60.95" gradientTransform="matrix(1, 0, 0, 1, 0, 0)" gradientUnits="userSpaceOnUse"><stop offset=".09" stop-color="#f2e7da"/><stop offset="1" stop-color="#fcfaf7"/></linearGradient></defs><path class="f" d="M74.31,217.64c-.5,0-1.01,0-1.52-.02l-.59-.02c-2.2-.06-4.44-.21-6.65-.46h-.13c-3.02-.36-6.03-.88-8.95-1.58-.04,0-.17,0-.2,0-1.46-.07-3.12-.3-4.94-.67-4.37-.9-9.32-2.6-12.49-3.88-.47-.19-.94-.38-1.41-.55-6.76-2.59-11.93-3.56-11.98-3.57-1.41-.26-2.64-1.11-3.38-2.33-.16-.27-.3-.55-.41-.84-1.44-.12-2.75-.86-3.6-2.02-.85-1.16-1.17-2.64-.85-4.05,0-.03,.06-.27,.06-.27,0,0,.14-.5,.15-.52l.17-.54,.09-.24c.11-.32,.24-.66,.4-1.04,0-.02,.03-.08,.04-.1,.08-.18,.16-.37,.25-.56l.13-.28c.1-.2,.2-.41,.31-.62l.17-.31c.12-.22,.24-.45,.38-.69l.12-.2c.31-.52,.64-1.04,.99-1.55-.04-.05-.09-.1-.13-.16-.33-.43-.55-.82-.69-1.08-.1-.18-.23-.42-.35-.72-.26-.65-.44-1.32-.52-2-.05-.44-.08-.87-.08-1.34,0-.14,0-.25,0-.36,.01-.32,.04-.66,.08-.98,.01-.11,.03-.22,.05-.33,.06-.35,.15-.75,.26-1.14,.02-.06,.06-.19,.07-.24,.1-.3,.2-.6,.32-.88l.09-.21c.15-.35,.31-.67,.48-.99,.02-.03,.04-.07,.06-.11,.15-.26,.3-.51,.46-.75l.12-.18c.16-.23,.32-.45,.48-.65,.02-.03,.04-.06,.06-.08,.19-.24,.38-.46,.57-.67l.11-.12s-.03-.81-.03-.83c-.06-.95-.15-2-.27-3.21l-.15-1.37-.09-.75,4.95-.72-4.96,.62-.09-.73c-.12-.94-.26-1.97-.43-3.1-.18-.41-.35-.84-.52-1.27l-.06-.15c-.28-.72-.53-1.42-.76-2.15,0-.02-.01-.04-.02-.05-.17-.53-.32-1.06-.47-1.6-.04-.13-.13-.53-.13-.53-.1-.38-.19-.77-.27-1.15-.03-.15-.12-.6-.12-.6-.07-.36-.14-.73-.2-1.1l-.09-.62c-.05-.37-.1-.74-.14-1.11-.02-.2-.04-.41-.06-.61-.03-.38-.06-.76-.08-1.14-.01-.19-.02-.39-.03-.59-.02-.39-.02-.8-.02-1.21v-.49c0-.47,.02-.92,.05-1.37l.02-.37c.02-.31,.05-.63,.08-.95l-.68-3.75-1.12-5.97-.77-3.95-.81-3.98-.37-1.76-.47-2.18-.41-1.86-.38-1.69s-.37-1.57-.37-1.58c-.13-.53-.48-1.99-.48-1.99l-.39-1.55-.36-1.39c-.12-.44-.41-1.5-.41-1.5-.1-.35-.4-1.38-.4-1.38l-.35-1.13c-.09-.27-.3-.92-.3-.92-.12-.37-.23-.65-.33-.92,0,0-.22-.56-.28-.73,0,0-.2-.46-.25-.57l-.08-.17c-.05-.1-.1-.21-.16-.3-.05-.08-.1-.18-.14-.26-.62-1.25-.67-2.64-.24-3.88-.24-.89-.46-1.73-.64-2.5,0,0-.41-1.72-.41-1.72l-.13-.56c-.11-.49-.29-1.34-.29-1.34,0,0-.08-.38-.08-.39l3.82-.83v-.02l-3.84,.75-.06-.34c-.33-1.72,.27-3.48,1.56-4.65,.09-.08,.18-.16,.27-.23l-.23-.5c-.86-1.86-.49-4.06,.92-5.55,.05-.06,4.77-5.04,7.76-10.27-2.03-1.97-3.85-4.12-5.45-6.41-.08-.12-.29-.44-.29-.44-.55-.81-1.04-1.58-1.45-2.28-.75-1.28-.87-2.8-.41-4.14-1.14-2.32-1.9-4.13-2.25-5.01,0-.02-.19-.49-.19-.49-.78-2.02-.17-4.32,1.52-5.68,.64-.52,1.39-.86,2.16-1.02,.26-.45,.52-.9,.79-1.34l.25-.41c.47-.75,.94-1.48,1.43-2.19l.21-.3c.51-.74,1.04-1.46,1.58-2.16l.03-.04c.55-.71,1.12-1.41,1.7-2.09l.23-.27c.56-.66,1.13-1.29,1.71-1.91l.29-.3c.5-.53,1.01-1.05,1.53-1.55l-.03-.11c-.05-.22-.09-.43-.13-.65-.06-.31-.1-.55-.14-.81-.04-.22-.07-.46-.1-.7-.04-.29-.08-.59-.12-.91-.03-.22-.05-.44-.07-.68-.04-.37-.06-.75-.09-1.14l-.04-.61c-.03-.59-.06-1.19-.07-1.83,0-.05,0-.11,0-.16,0-.49,0-1.07,.04-1.66l.02-.35c.04-.57,.1-1.15,.17-1.73,0-.03,.01-.1,.02-.13,.08-.55,.18-1.15,.3-1.75,.13-.63,.26-1.21,.42-1.79,.01-.04,.27-.98,.27-.98,2.12-7.56,5.97-11.77,8.07-13.61l.06-.05c.23-.2,.47-.39,.7-.58,.31-.24,.54-.41,.77-.57,.31-.21,.55-.36,.78-.5l.06-.03c.27-.15,.52-.29,.76-.4,.03-.01,.44-.21,.49-.23,.13-.05,.21-.08,.28-.11,.26-.1,.51-.19,.77-.27l.09-.03c.31-.09,.62-.17,.93-.22,.03,0,.12-.02,.15-.03,.3-.05,.63-.09,.95-.11,.07,0,.43-.01,.51-.01,.21,0,.42,0,.62,.02,.38,.03,.76,.08,1.15,.16,.07,.02,.21,.05,.28,.07,.28,.07,.6,.17,.92,.28l.19,.07c.42,.17,.78,.34,1.12,.54,.06,.04,.14,.08,.2,.12,.27,.16,.5,.32,.73,.49l.25,.19c.22,.17,.45,.37,.68,.58,0,0,.13,.11,.15,.14,.24,.23,.49,.48,.73,.75,.03,.03,.11,.13,.14,.16,.21,.24,.38,.45,.55,.67l.19,.25c.19,.25,.38,.51,.57,.79v.02c2,2.91,3.72,8.52,4.82,12.71,.1,.39,.17,.67,.21,.81,.17,.6,.34,1.21,.51,1.81,.29,.04,.59,.08,.91,.12,2.46,.35,5.76,.96,9.1,2.02,.2-.22,.7-.74,.71-.75l.63-.66,.61-.63c.34-.4,1.13-1.31,2.27-2.44,1.42-1.4,2.92-2.66,4.46-3.76,.26-.21,.52-.42,.79-.62l.13-.1c.25-.19,.51-.39,.78-.58l.2-.15c.24-.17,.49-.35,.74-.52l.19-.13c.29-.2,.58-.38,.86-.55,.41-.27,.79-.52,1.16-.73l.03-.02c.51-.29,.99-.53,1.48-.73l.11-.04c.51-.2,1.03-.36,1.57-.48,.02,0,.1-.02,.12-.03,.61-.13,1.18-.2,1.77-.22,.13,0,.25,0,.36,0,.24,0,.47,0,.7,.03,.07,0,.23,.02,.3,.03,1.61,.17,3.98,.92,5.9,3.5,.04,.05,.06,.07,.09,.12,.27,.37,.52,.77,.77,1.22l.1,.19c.19,.36,.4,.79,.59,1.25,0,.02,.05,.13,.06,.15,.18,.45,.35,.9,.52,1.39,0,.02,.03,.1,.04,.12,.16,.49,.31,.99,.45,1.52,0,.03,.02,.07,.03,.1,.15,.56,.27,1.17,.39,1.87,.03,.17,.05,.34,.07,.52l.02,.13c.06,.47,.11,.93,.14,1.41,.02,.26,.04,.5,.05,.75,.02,.48,.03,.96,.03,1.45v.14c0,.17,0,.35,0,.52-.02,.64-.06,1.29-.11,1.94-.03,.29-.06,.59-.1,.89l-.02,.17c-.04,.35-.08,.69-.14,1.03-.06,.38-.12,.76-.19,1.16-.05,.29-.11,.58-.17,.87l-.05,.24c-.07,.34-.14,.68-.22,1.02-.16,.71-.37,1.47-.6,2.21-.22,.72-.48,1.43-.75,2.12-.02,.05-.04,.1-.05,.14l-.34,.81c-.29,.65-.62,1.33-.98,1.99-.4,.73-.77,1.34-1.13,1.9l-.07,.11c-.27,.43-.53,.84-.79,1.22l-.32,.47c-.2,.29-.4,.57-.6,.84l-.31,.42c-.24,.31-.48,.61-.71,.89l-.19,.23c-.17,.2-.34,.39-.5,.58,.01,.04,.14,.37,.14,.37,.61,1.64,1.19,3.26,1.73,4.8l.57,1.69c.5,1.49,.94,2.85,1.32,4.05,0,0,.35,1.11,.35,1.11,1.22,.38,2.29,1.22,2.92,2.4,1.04,1.93,.71,4.31-.83,5.88-.3,.31-.62,.61-.95,.92l-.3,.27c-.24,.22-.47,.42-.7,.63l-.36,.3c-.23,.2-.47,.39-.71,.59l-.34,.27c-.29,.23-.6,.47-.91,.71l-.14,.11c-.34,.25-.7,.52-1.06,.78,0,0-.84,.59-1.1,.77,0,0-.88,.59-1.14,.76l-.36,.24c-.31,.2-1.13,.71-1.13,.71-.35,.21-.72,.44-1.1,.67l-1.46,.85-1.1,.62c-.3,.17-1.06,.58-1.06,.58-.38,.2-1.25,.66-1.32,.69,.02,.11,.1,.56,.1,.56,.05,.25,.09,.48,.15,.71l.06,.24c.11,.43,.24,.89,.39,1.35l.1,.32c.06,.16,.11,.31,.17,.45,0,0,.19,.49,.26,.66,.08,.19,.16,.38,.24,.56,.09,.21,.18,.4,.28,.6,0,0,.18,.38,.25,.52,.14,.28,.29,.55,.45,.83l.21,.37c.2,.34,.42,.7,.65,1.06l.27,.4c.17,.26,.35,.52,.54,.78,.11,.15,.21,.29,.31,.42,.2,.27,.41,.54,.62,.8l.3,.38c.32,.38,.65,.77,.99,1.15,.19,.2,.38,.42,.58,.66,0,0,.46,.55,.59,.72l.61,.77,.63,.84,.65,.91,.67,.96,.69,1.01,1.09,1.67,.74,1.17,.19,.3c.63,1.01,1.25,2.05,1.88,3.14l.91,1.59,.77,1.38,.76,1.41c.18,.34,.76,1.44,.76,1.44,.19,.36,.74,1.45,.74,1.45,.2,.39,.71,1.43,.71,1.43,.22,.44,.67,1.39,.67,1.39,1.24,2.59,2.38,5.19,3.39,7.72v.02c.2,.48,.39,.96,.57,1.44l.09,.22c.17,.46,.34,.92,.51,1.37l.11,.31c.16,.44,.32,.88,.47,1.33l.11,.33c.16,.46,.31,.9,.45,1.35l.11,.33c.15,.46,.29,.9,.42,1.35l.09,.31c.14,.47,.28,.93,.41,1.39,0,0,.23,.82,.31,1.12,.34,.67,.68,1.36,1,2.08l.05,.12c.61,1.38,1.16,2.83,1.63,4.32,.31-.01,.62-.02,.93-.02,2.32,0,4.63,.41,6.86,1.22,.06,.02,.08,.03,.14,.05,.31,.11,.67,.26,1.03,.41l.25,.11c.31,.14,.64,.3,.97,.46l.31,.16c.3,.16,.6,.33,.9,.5l.37,.22c.27,.17,.55,.34,.83,.53,.12,.08,.25,.17,.38,.27,.27,.19,.53,.38,.78,.57l.41,.33c.24,.19,.49,.39,.73,.6,.12,.1,.42,.38,.42,.38,.26,.23,.48,.43,.69,.64,.11,.11,.22,.22,.34,.34l.15,.15c.19,.2,.39,.39,.58,.6,.11,.12,.4,.46,.4,.46,.37,.42,.73,.87,1.09,1.32l.09,.11c.12,.16,.25,.32,.37,.48,.12,.16,.24,.33,.35,.5l.18,.25c.14,.2,.27,.39,.41,.59,.11,.17,.21,.33,.31,.49l.17,.27c.13,.21,.27,.43,.39,.65,.11,.2,.22,.38,.32,.57l.07,.12c.15,.26,.29,.53,.43,.81,.11,.2,.21,.41,.31,.62,.18,.37,.32,.66,.45,.95,.11,.24,.22,.49,.32,.74,.12,.29,.25,.59,.37,.9,.1,.27,.2,.52,.3,.77,.12,.31,.23,.63,.34,.95,.09,.27,.18,.53,.26,.79,.11,.33,.21,.67,.31,1.01,.08,.28,.16,.54,.23,.8,.1,.35,.19,.72,.28,1.08,0,0,.15,.59,.2,.8,.09,.39,.17,.78,.25,1.18,0,0,.12,.59,.16,.78,.08,.43,.15,.88,.23,1.33,0,0,.09,.52,.11,.69,.09,.64,.18,1.29,.25,1.96,0,.04,.01,.09,.02,.12,.84,7.84-.94,14.98-5.3,21.24l-.06,.09c-.14,.21-.29,.42-.44,.62-.67,.92-1.4,1.81-2.16,2.65l-.16,.18c-1.96,2.16-4.29,4.19-6.9,6.03-.96,.68-1.98,1.34-3.03,1.97-.69,.41-1.38,.81-2.08,1.19-.68,.37-1.36,.72-2.04,1.06-.85,.42-1.7,.82-2.55,1.19-1.37,.61-2.76,1.17-4.13,1.67-.67,.24-1.32,.47-1.98,.69-1.74,.58-3.48,1.09-5.17,1.51-.02,0-.04,.01-.06,.02-.77,.19-1.56,.37-2.37,.54l-.65,.13c-.72,.14-1.35,.26-1.99,.36l-.74,.12c-.81,.13-1.62,.24-2.45,.34-.26,.03-.54,.06-.81,.09l-.26,.03c-.5,.05-1.01,.1-1.52,.15-.44,.04-.88,.08-1.33,.11-.4,.03-.81,.05-1.21,.07-1.02,.05-1.97,.09-2.94,.1h-1.19Z"/><path class="c" d="M69.31,212.64c-.5,0-1.01,0-1.52-.02l-.59-.02c-2.2-.06-4.44-.21-6.65-.46h-.13c-3.02-.36-6.03-.88-8.95-1.58-.04,0-.17,0-.2,0-1.46-.07-3.12-.3-4.94-.67-4.37-.9-9.32-2.6-12.49-3.88-.47-.19-.94-.38-1.41-.55-6.76-2.59-11.93-3.56-11.98-3.57-1.41-.26-2.64-1.11-3.38-2.33-.16-.27-.3-.55-.41-.84-1.44-.12-2.75-.86-3.6-2.02-.85-1.16-1.17-2.64-.85-4.05,0-.03,.06-.27,.06-.27,0,0,.14-.5,.15-.52l.17-.54,.09-.24c.11-.32,.24-.66,.4-1.04,0-.02,.03-.08,.04-.1,.08-.18,.16-.37,.25-.56l.13-.28c.1-.2,.2-.41,.31-.62l.17-.31c.12-.22,.24-.45,.38-.69l.12-.2c.31-.52,.64-1.04,.99-1.55-.04-.05-.09-.1-.13-.16-.33-.43-.55-.82-.69-1.08-.1-.18-.23-.42-.35-.72-.26-.65-.44-1.32-.52-2-.05-.44-.08-.87-.08-1.34,0-.14,0-.25,0-.36,.01-.32,.04-.66,.08-.98,.01-.11,.03-.22,.05-.33,.06-.35,.15-.75,.26-1.14,.02-.06,.06-.19,.07-.24,.1-.3,.2-.6,.32-.88l.09-.21c.15-.35,.31-.67,.48-.99,.02-.03,.04-.07,.06-.11,.15-.26,.3-.51,.46-.75l.12-.18c.16-.23,.32-.45,.48-.65,.02-.03,.04-.06,.06-.08,.19-.24,.38-.46,.57-.67l.11-.12s-.03-.81-.03-.83c-.06-.95-.15-2-.27-3.21l-.15-1.37-.09-.75,4.95-.72-4.96,.62-.09-.73c-.12-.94-.26-1.97-.43-3.1-.18-.41-.35-.84-.52-1.27l-.06-.15c-.28-.72-.53-1.42-.76-2.15,0-.02-.01-.04-.02-.05-.17-.53-.32-1.06-.47-1.6-.04-.13-.13-.53-.13-.53-.1-.38-.19-.77-.27-1.15-.03-.15-.12-.6-.12-.6-.07-.36-.14-.73-.2-1.1l-.09-.62c-.05-.37-.1-.74-.14-1.11-.02-.2-.04-.41-.06-.61-.03-.38-.06-.76-.08-1.14-.01-.19-.02-.39-.03-.59-.02-.39-.02-.8-.02-1.21v-.49c0-.47,.02-.92,.05-1.37l.02-.37c.02-.31,.05-.63,.08-.95l-.68-3.75-1.12-5.97-.77-3.95-.81-3.98-.37-1.76-.47-2.18-.41-1.86-.38-1.69s-.37-1.57-.37-1.58c-.13-.53-.48-1.99-.48-1.99l-.39-1.55-.36-1.39c-.12-.44-.41-1.5-.41-1.5-.1-.35-.4-1.38-.4-1.38l-.35-1.13c-.09-.27-.3-.92-.3-.92-.12-.37-.23-.65-.33-.92,0,0-.22-.56-.28-.73,0,0-.2-.46-.25-.57l-.08-.17c-.05-.1-.1-.21-.16-.3-.05-.08-.1-.18-.14-.26-.62-1.25-.67-2.64-.24-3.88-.24-.89-.46-1.73-.64-2.5,0,0-.41-1.72-.41-1.72l-.13-.56c-.11-.49-.29-1.34-.29-1.34,0,0-.08-.38-.08-.39l3.82-.83v-.02l-3.84,.75-.06-.34c-.33-1.72,.27-3.48,1.56-4.65,.09-.08,.18-.16,.27-.23l-.23-.5c-.86-1.86-.49-4.06,.92-5.55,.05-.06,4.77-5.04,7.76-10.27-2.03-1.97-3.85-4.12-5.45-6.41-.08-.12-.29-.44-.29-.44-.55-.81-1.04-1.58-1.45-2.28-.75-1.28-.87-2.8-.41-4.14-1.14-2.32-1.9-4.13-2.25-5.01,0-.02-.19-.49-.19-.49-.78-2.02-.17-4.32,1.52-5.68,.64-.52,1.39-.86,2.16-1.02,.26-.45,.52-.9,.79-1.34l.25-.41c.47-.75,.94-1.48,1.43-2.19l.21-.3c.51-.74,1.04-1.46,1.58-2.16l.03-.04c.55-.71,1.12-1.41,1.7-2.09l.23-.27c.56-.66,1.13-1.29,1.71-1.91l.29-.3c.5-.53,1.01-1.05,1.53-1.55l-.03-.11c-.05-.22-.09-.43-.13-.65-.06-.31-.1-.55-.14-.81-.04-.22-.07-.46-.1-.7-.04-.29-.08-.59-.12-.91-.03-.22-.05-.44-.07-.68-.04-.37-.06-.75-.09-1.14l-.04-.61c-.03-.59-.06-1.19-.07-1.83,0-.05,0-.11,0-.16,0-.49,0-1.07,.04-1.66l.02-.35c.04-.57,.1-1.15,.17-1.73,0-.03,.01-.1,.02-.13,.08-.55,.18-1.15,.3-1.75,.13-.63,.26-1.21,.42-1.79,.01-.04,.27-.98,.27-.98,2.12-7.56,5.97-11.77,8.07-13.61l.06-.05c.23-.2,.47-.39,.7-.58,.31-.24,.54-.41,.77-.57,.31-.21,.55-.36,.78-.5l.06-.03c.27-.15,.52-.29,.76-.4,.03-.01,.44-.21,.49-.23,.13-.05,.21-.08,.28-.11,.26-.1,.51-.19,.77-.27l.09-.03c.31-.09,.62-.17,.93-.22,.03,0,.12-.02,.15-.03,.3-.05,.63-.09,.95-.11,.07,0,.43-.01,.51-.01,.21,0,.42,0,.62,.02,.38,.03,.76,.08,1.15,.16,.07,.02,.21,.05,.28,.07,.28,.07,.6,.17,.92,.28l.19,.07c.42,.17,.78,.34,1.12,.54,.06,.04,.14,.08,.2,.12,.27,.16,.5,.32,.73,.49l.25,.19c.22,.17,.45,.37,.68,.58,0,0,.13,.11,.15,.14,.24,.23,.49,.48,.73,.75,.03,.03,.11,.13,.14,.16,.21,.24,.38,.45,.55,.67l.19,.25c.19,.25,.38,.51,.57,.79v.02c2,2.91,3.72,8.52,4.82,12.71,.1,.39,.17,.67,.21,.81,.17,.6,.34,1.21,.51,1.81,.29,.04,.59,.08,.91,.12,2.46,.35,5.76,.96,9.1,2.02,.2-.22,.7-.74,.71-.75l.63-.66,.61-.63c.34-.4,1.13-1.31,2.27-2.44,1.42-1.4,2.92-2.66,4.46-3.76,.26-.21,.52-.42,.79-.62l.13-.1c.25-.19,.51-.39,.78-.58l.2-.15c.24-.17,.49-.35,.74-.52l.19-.13c.29-.2,.58-.38,.86-.55,.41-.27,.79-.52,1.16-.73l.03-.02c.51-.29,.99-.53,1.48-.73l.11-.04c.51-.2,1.03-.36,1.57-.48,.02,0,.1-.02,.12-.03,.61-.13,1.18-.2,1.77-.22,.13,0,.25,0,.36,0,.24,0,.47,0,.7,.03,.07,0,.23,.02,.3,.03,1.61,.17,3.98,.92,5.9,3.5,.04,.05,.06,.07,.09,.12,.27,.37,.52,.77,.77,1.22l.1,.19c.19,.36,.4,.79,.59,1.25,0,.02,.05,.13,.06,.15,.18,.45,.35,.9,.52,1.39,0,.02,.03,.1,.04,.12,.16,.49,.31,.99,.45,1.52,0,.03,.02,.07,.03,.1,.15,.56,.27,1.17,.39,1.87,.03,.17,.05,.34,.07,.52l.02,.13c.06,.47,.11,.93,.14,1.41,.02,.26,.04,.5,.05,.75,.02,.48,.03,.96,.03,1.45v.14c0,.17,0,.35,0,.52-.02,.64-.06,1.29-.11,1.94-.03,.29-.06,.59-.1,.89l-.02,.17c-.04,.35-.08,.69-.14,1.03-.06,.38-.12,.76-.19,1.16-.05,.29-.11,.58-.17,.87l-.05,.24c-.07,.34-.14,.68-.22,1.02-.16,.71-.37,1.47-.6,2.21-.22,.72-.48,1.43-.75,2.12-.02,.05-.04,.1-.05,.14l-.34,.81c-.29,.65-.62,1.33-.98,1.99-.4,.73-.77,1.34-1.13,1.9l-.07,.11c-.27,.43-.53,.84-.79,1.22l-.32,.47c-.2,.29-.4,.57-.6,.84l-.31,.42c-.24,.31-.48,.61-.71,.89l-.19,.23c-.17,.2-.34,.39-.5,.58,.01,.04,.14,.37,.14,.37,.61,1.64,1.19,3.26,1.73,4.8l.57,1.69c.5,1.49,.94,2.85,1.32,4.05,0,0,.35,1.11,.35,1.11,1.22,.38,2.29,1.22,2.92,2.4,1.04,1.93,.71,4.31-.83,5.88-.3,.31-.62,.61-.95,.92l-.3,.27c-.24,.22-.47,.42-.7,.63l-.36,.3c-.23,.2-.47,.39-.71,.59l-.34,.27c-.29,.23-.6,.47-.91,.71l-.14,.11c-.34,.25-.7,.52-1.06,.78,0,0-.84,.59-1.1,.77,0,0-.88,.59-1.14,.76l-.36,.24c-.31,.2-1.13,.71-1.13,.71-.35,.21-.72,.44-1.1,.67l-1.46,.85-1.1,.62c-.3,.17-1.06,.58-1.06,.58-.38,.2-1.25,.66-1.32,.69,.02,.11,.1,.56,.1,.56,.05,.25,.09,.48,.15,.71l.06,.24c.11,.43,.24,.89,.39,1.35l.1,.32c.06,.16,.11,.31,.17,.45,0,0,.19,.49,.26,.66,.08,.19,.16,.38,.24,.56,.09,.21,.18,.4,.28,.6,0,0,.18,.38,.25,.52,.14,.28,.29,.55,.45,.83l.21,.37c.2,.34,.42,.7,.65,1.06l.27,.4c.17,.26,.35,.52,.54,.78,.11,.15,.21,.29,.31,.42,.2,.27,.41,.54,.62,.8l.3,.38c.32,.38,.65,.77,.99,1.15,.19,.2,.38,.42,.58,.66,0,0,.46,.55,.59,.72l.61,.77,.63,.84,.65,.91,.67,.96,.69,1.01,1.09,1.67,.74,1.17,.19,.3c.63,1.01,1.25,2.05,1.88,3.14l.91,1.59,.77,1.38,.76,1.41c.18,.34,.76,1.44,.76,1.44,.19,.36,.74,1.45,.74,1.45,.2,.39,.71,1.43,.71,1.43,.22,.44,.67,1.39,.67,1.39,1.24,2.59,2.38,5.19,3.39,7.72v.02c.2,.48,.39,.96,.57,1.44l.09,.22c.17,.46,.34,.92,.51,1.37l.11,.31c.16,.44,.32,.88,.47,1.33l.11,.33c.16,.46,.31,.9,.45,1.35l.11,.33c.15,.46,.29,.9,.42,1.35l.09,.31c.14,.47,.28,.93,.41,1.39,0,0,.23,.82,.31,1.12,.34,.67,.68,1.36,1,2.08l.05,.12c.61,1.38,1.16,2.83,1.63,4.32,.31-.01,.62-.02,.93-.02,2.32,0,4.63,.41,6.86,1.22,.06,.02,.08,.03,.14,.05,.31,.11,.67,.26,1.03,.41l.25,.11c.31,.14,.64,.3,.97,.46l.31,.16c.3,.16,.6,.33,.9,.5l.37,.22c.27,.17,.55,.34,.83,.53,.12,.08,.25,.17,.38,.27,.27,.19,.53,.38,.78,.57l.41,.33c.24,.19,.49,.39,.73,.6,.12,.1,.42,.38,.42,.38,.26,.23,.48,.43,.69,.64,.11,.11,.22,.22,.34,.34l.15,.15c.19,.2,.39,.39,.58,.6,.11,.12,.4,.46,.4,.46,.37,.42,.73,.87,1.09,1.32l.09,.11c.12,.16,.25,.32,.37,.48,.12,.16,.24,.33,.35,.5l.18,.25c.14,.2,.27,.39,.41,.59,.11,.17,.21,.33,.31,.49l.17,.27c.13,.21,.27,.43,.39,.65,.11,.2,.22,.38,.32,.57l.07,.12c.15,.26,.29,.53,.43,.81,.11,.2,.21,.41,.31,.62,.18,.37,.32,.66,.45,.95,.11,.24,.22,.49,.32,.74,.12,.29,.25,.59,.37,.9,.1,.27,.2,.52,.3,.77,.12,.31,.23,.63,.34,.95,.09,.27,.18,.53,.26,.79,.11,.33,.21,.67,.31,1.01,.08,.28,.16,.54,.23,.8,.1,.35,.19,.72,.28,1.08,0,0,.15,.59,.2,.8,.09,.39,.17,.78,.25,1.18,0,0,.12,.59,.16,.78,.08,.43,.15,.88,.23,1.33,0,0,.09,.52,.11,.69,.09,.64,.18,1.29,.25,1.96,0,.04,.01,.09,.02,.12,.84,7.84-.94,14.98-5.3,21.24l-.06,.09c-.14,.21-.29,.42-.44,.62-.67,.92-1.4,1.81-2.16,2.65l-.16,.18c-1.96,2.16-4.29,4.19-6.9,6.03-.96,.68-1.98,1.34-3.03,1.97-.69,.41-1.38,.81-2.08,1.19-.68,.37-1.36,.72-2.04,1.06-.85,.42-1.7,.82-2.55,1.19-1.37,.61-2.76,1.17-4.13,1.67-.67,.24-1.32,.47-1.98,.69-1.74,.58-3.48,1.09-5.17,1.51-.02,0-.04,.01-.06,.02-.77,.19-1.56,.37-2.37,.54l-.65,.13c-.72,.14-1.35,.26-1.99,.36l-.74,.12c-.81,.13-1.62,.24-2.45,.34-.26,.03-.54,.06-.81,.09l-.26,.03c-.5,.05-1.01,.1-1.52,.15-.44,.04-.88,.08-1.33,.11-.4,.03-.81,.05-1.21,.07-1.02,.05-1.97,.09-2.94,.1h-1.19Z"/><g><path class="g" d="M41.64,29.75s-3.95-18.05-8.76-21.06c-4.81-3.01-13.39,9.39-13.2,19.69,.19,10.3,3.45,12.08,3.45,12.08l18.5-10.72Z"/><path class="n" d="M21.15,37.54s-2.75-7.16-.63-15.44c2.12-8.27,6.79-12.56,9.05-13.47,2.26-.91,4.05-.28,6.15,2.8,2.1,3.08,4.27,11.94,4.27,11.94,0,0-3.28-9.04-5.69-9.54s-.3,15.92-.3,15.92c0,0-5.9,1.21-12.85,7.79Z"/><path class="m" d="M32,173.34c-3.12-1.8-7.88,3.09-8.37,5.52-.49,2.43,5.1,2.6,5.1,2.6l19.09-4.23s-9.09,0-15.82-3.89Z"/><path class="i" d="M41.45,123.14c-20.53,2.98-26.71,20.36-22.19,34.37,5.53,17.14,19.26,19.76,34.88,19.47,15.62-.29-12.69-53.84-12.69-53.84Z"/><path class="p" d="M8.17,103.78c3.72,6.51,9.41,38.08,11.88,53.31,2.47,15.24,1.81,17.19,1.81,17.19,0,0-.47,3.47,3.1,3.54,3.58,.06,4.09-2.63,4.21-9.35,.12-6.72,.29-22.92-2.3-34.46-2.59-11.53-18.7-30.23-18.7-30.23Z"/><path class="h" d="M18.74,143.92s2.69,14.43,3.36,20.61c.67,6.18,.7,9.76,.7,9.76,0,0-4.59,2.65-4.06,6.85,.53,4.19,8.09,2.47,10.73,1.81,2.63-.66,1.36-24.72,.06-37.15l-1.96,5.58-8.83-7.45Z"/><path class="g" d="M56.42,32.27s12.05-14,17.72-14.36c5.66-.36,7.31,14.62,2.25,23.6-5.06,8.98-8.78,8.99-8.78,8.99l-11.18-18.23Z"/><path class="g" d="M62.85,74.39c-2.34,5.67-.16,14.72,6.91,22.45,4.95,5.41,17.64,26.52,20.72,44.04,3.08,17.52-.74,35.64-28.54,37.99-27.8,2.35-28.44-16.26-30.18-27.25-2.1-13.26-18.17-32.12-18.17-49.94s5.92-24.4,5.43-31.14c-.49-6.74,3.62-15.62,24.83-13.49,21.22,2.14,19,17.35,19,17.35Z"/><path class="g" d="M40.81,28.51c-10.28-.14-25.32,10.64-32.52,25.92,0,0,5.96,17.74,28.16,22.35,22.2,4.61,40.12-9.17,40.12-9.17,0,0-7.06-24.73-13.31-31.47-6.25-6.74-21.23-7.61-22.45-7.62Z"/><path class="j" d="M39.25,173.1c-6.37-3.24-5.39-23.99-24.01-54.74-5.84-9.64-8.51-24.12-8.51-24.12l4.93,1.48-3.7-8.02s9.1-9.52,11.06-17.19c1.96-7.67,31.37-4.85,35.44,3.27,4.07,8.12,4.56,23.66,4.56,23.66l-6.54-4.81s3.01,5.19,4.36,15.39c0,0-13.49,2.62-20.89,18.91-7.4,16.28,3.29,46.17,3.29,46.17Z"/><path class="j" d="M6.73,53.42s4.15,11.02,11.54,19.37c3.44,3.88,22.39,13.51,38.55,7.8,0,0,14.76-5.95,21.99-13.27,0,0-3.95,.84-10.69,.08,0,0,3.7-1.07,5.51-2.96,0,0-9.37,2.22-16.86,3.04-7.48,.82-12.74,.19-12.74,.19l-9.28-1.35s-9.67-4.78-13.87-9.35c0,0,.68,3.24,2.41,5.46,0,0-5.83-2.01-16.56-9Z"/><path class="n" d="M39.36,71.46c-2.44-.29-5.62-4.83-5.66-8.12-.03-3.29,13.47-2.16,13.74,2.02,.27,4.18-5.18,6.44-8.09,6.1Z"/><path class="p" d="M40.7,119.08c-3.67,4.13-7.78,10-7.82,21.02-.04,11.02,3.62,36.05,3.87,39.43,.25,3.38,6.29,4.07,6.7-2.1,.41-6.17,3.04-37.33,4.11-44.57,1.07-7.24,.74-10.91-.9-14.64-1.64-3.73-4.17-1.16-5.96,.85Z"/><path class="n" d="M32.92,143.92s.97,15.33,1.65,21.51c.67,6.18-.08,9.01-.08,9.01,0,0-2.96,2.99-2.43,7.19,.53,4.19,8.09,2.47,10.73,1.81,2.63-.66,.66-18.5,3.33-37.23l-5.22,5.66-7.98-7.94Z"/><path class="g" d="M85.47,130.44c-13.08-14.36-38.72-5.85-44.9,7.75-6.18,13.6-3.62,27.29,2.14,34.91,5.76,7.62,19.57,7.72,30.43,5.78,10.85-1.94,21.36-10.82,21.07-23.2-.26-11.08-3.81-19.84-8.73-25.24Z"/><path class="l" d="M73.13,178.88s-14.24,2.5-20.65,4.14c-6.41,1.64-10.52,2.14-11.96,.33-1.44-1.81,3.98-6.29,5.59-6.35,1.61-.06,6.79,1.81,13.7,2.07,6.91,.26,13.32-.19,13.32-.19Z"/><path class="j" d="M22.24,36.61c-1.7-4.16-1.77-12.53,.89-18.71,2.66-6.19,5.12-6.91,6.17-6.29s4.7,18.14,4.7,18.14c0,0-3.53,1.53-6.79,3.2-3.27,1.67-4.96,3.67-4.96,3.67Z"/><path class="d" d="M30.1,13.44s-3.08-.1-5.12,6.8c-2.04,6.91,0,14.03,0,14.03,0,0,4.65-2.65,9.02-4.52,0,0-.75-3.66-1.56-7.13-.81-3.47-2.34-9.19-2.34-9.19Z"/><path class="j" d="M63.26,36.13s7.24-12.38,10.94-14.23c4.5-2.25,5.19,9.39,1.48,17.37-1.64,3.54-5.93,8.64-5.93,8.64,0,0-3.49-8.31-6.49-11.78Z"/><path class="n" d="M61.01,27.34s2.36-2.94,6.01-5.53c3.65-2.59,4.84-3.8,7.12-3.9,2.28-.09,3.72,1.61,4.84,5.8,1.11,4.15,.56,10.29-1.51,15.56-2.07,5.27-7.16,10-7.16,10l-.84-2.02s4.72-4.38,7.01-9.93c2.33-5.66,2.18-14.33-.41-15.52-2.59-1.19-6.4,4.64-7.2,5.74-.79,1.1-5.61,8.59-5.61,8.59,0,0,4.95-10.13,3.54-11.61-1.41-1.48-5.79,2.81-5.79,2.81Z"/><path class="d" d="M71.95,23.66c1.18-.99,3.61-.13,3.36,4.02-.25,4.15-2.85,9.98-7.06,16.91,0,0-1.9-4.49-4.99-8.46,0,0,2.6-4.37,4.48-7.01,1.89-2.65,4.2-5.46,4.2-5.46Z"/><path class="j" d="M18.27,72.79c-4.39-3.58-7.31-7.49-9.03-10.45,0,0,2.38,1.1,1.97,.37-.41-.73,7.06,10.08,7.06,10.08Z"/><path class="g" d="M90.6,147.66c10.5-5.75,24.97,1.83,27.27,23.37,2.3,21.54-19.08,31.41-32.24,34.7-13.16,3.29-31.89,2.96-48.02-5.59-16.13-8.55-19.76-7.07-19.76-7.07,0,0,9.97-16.23,27.36-16.09,17.39,.14,25.87,5.35,39.93-3.78,9.66-6.28,2.81-14.01,2.81-14.01l2.64-11.52Z"/><path class="j" d="M51.51,205.58c-5.12-.25-12.56-2.88-15.8-4.19-8.07-3.27-14.36-4.41-14.36-4.41,0,0,.37-1.26,1.38-2.24,0,0-1.25-.63-5.63-1,0,0,1.56-7.57,11.78-13.45,10.22-5.88,26.1-2.11,40.16-1.74,0,0-5.11,11.05-13.16,14.34,0,0,3.66,4.73,14.14,4.73,0,0-14.27,8.16-18.5,7.96Z"/><path class="p" d="M90.28,159.49s2.76,6.99-5.14,13.7c-7.89,6.71-15.13,6.18-15.13,6.18,0,0-2.14,6.56-9.05,11.93,0,0,13.86,7.02,33.25-4.16,19.39-11.18,9.68-34.72,4.58-38.49-5.1-3.78-10.62,3.42-8.51,10.84Z"/><path class="i" d="M69.06,178.55s5.88,.48,12.73-3.39c6.85-3.87,9.86-9.4,6.16-15.98,0,0,.94,7.92-6.76,12.54-7.71,4.63-12.47,4.29-21.72,3.7-4.02-.26-15.18-.64-15.18-.64v2.18s13.86,1.45,24.76,1.59Z"/><path class="p" d="M60.96,80.39s1.14,8.14,6.99,15.79c5.84,7.65,10.91,15.77,15.96,26.96,5.05,11.19,5.16,12.3,5.16,12.3,0,0-11.08-14.59-28.93-10.73-17.84,3.87-10.94-9.95-6.83-11.1,4.11-1.15,4.52-6.99,4.52-6.99l-1.48-7.89,7.81,5.05s-2.14-2.34-3.95-11.96c-1.81-9.62,.74-11.43,.74-11.43Z"/><g><path d="M23.89,48.24s3.73-2.79,6.59,.08c2.87,2.86,.88,6.72,.88,6.72,0,0-2.5,1.16-5.48-1.01-2.98-2.16-2-5.8-2-5.8Z"/><path d="M30.97,56.11s3.86-5.75,.34-8.63c-4.55-3.73-8.56,1.17-8.56,1.17,0,0,5.17-2.13,7.76,.59,2.59,2.71,.46,6.88,.46,6.88Z"/><path class="c" d="M26.91,47.93c-1.41,.4-1.78,2.53-.18,3.34,1.6,.81,2.45-1.13,2-2.13-.45-1.01-1.15-1.4-1.82-1.21Z"/></g><g><path d="M61.8,54.37s-2.92-3.62-6.41-1.56c-3.49,2.06-2.52,6.3-2.52,6.3,0,0,2.13,1.74,5.56,.38,3.42-1.36,3.37-5.12,3.37-5.12Z"/><path d="M52.99,60.24s-2.31-6.53,1.81-8.45c5.33-2.48,8,3.25,8,3.25,0,0-4.48-3.34-7.66-1.35-3.18,1.99-2.15,6.55-2.15,6.55Z"/><path class="c" d="M56.26,53.77c1.26,.74,1.09,2.89-.66,3.28-1.75,.39-2.09-1.7-1.41-2.56,.68-.86,1.46-1.07,2.06-.72Z"/></g><path class="i" d="M56.71,124.92s-9.04,2.4-15.18,11.46c0,0,5.95-8.53,10.06-13.39,0,0-.36,1.34,.9,1.91,1.64,.74,4.22,.01,4.22,.01Z"/><path class="o" d="M11.11,64.09s4.88,8.39,16.17,12.46c11.28,4.07,24.05,2.9,24.05,2.9,0,0-14.06-4.57-15.91-7.8-1.85-3.24-2.62-4.53-2.62-4.53l-10.04-7.96s1.05,3.39,2.94,6.11c0,0-6.39-2.98-11.94-6.36-5.54-3.38-6.41-4.48-6.41-4.48,0,0,4.44,7.14,7.89,11.08l-4.13-1.42Z"/><path class="d" d="M56.82,80.59s-8.08,2.63-18.78,.99c0,0,9.72,.58,14.31,3.54,4.59,2.96,6.69,12.34,6.69,12.34,0,0-.3-10.92-2.21-16.87Z"/><path class="k" d="M45.22,76.59c-1.82,.41-3.57,.33-5.16-.78-.36-.25-.61,0-.89,.11-1.53,.58-3.01,.51-4.49-.18-.34-.16-.6-.36-.73-.71,1.31,.61,2.66,.92,4.1,.57,.71-.17,1.25-.88,1.84-.92,.46-.03,.85,.91,1.49,1.19,1.12,.49,2.28,.62,3.48,.4,.29-.05,.56-.13,.35,.33Z"/><path class="e" d="M117.87,171.03c-2.12-19.83-14.56-27.82-24.71-24.47-.83-3.93-2.11-7.42-3.72-10.41-4.24-16.41-15.18-34.37-19.68-39.3-5.63-6.15-8.15-13.13-7.76-18.58,4.96-2.39,12.33-6.4,16.81-10.94,0,0-.78,.17-2.23,.28,0,0-2.73-9.54-6.29-18.38h0l.02,.05s.14-.13,.36-.35c1.3-1.07,2.94-2.86,4.81-5.87,.65-1.01,1.26-2.09,1.74-3.2,.04-.1,.09-.2,.13-.3,.04-.1,.09-.19,.12-.29,.01-.03,.02-.06,.03-.09,.49-1.2,.87-2.46,1.17-3.74,1.03-4.22,1.16-8.56,.31-11.73-1.02-3.82-2.31-5.57-4.26-5.78-.04,0-.07,0-.11-.01-.15-.01-.31-.02-.47,0-1.38,.06-2.36,.52-3.73,1.45-1.08,.66-2.22,1.49-3.37,2.42l-.03,.02c-3.65,2.59-6.01,5.53-6.01,5.53h.01c-2.01,2.02-3.59,3.78-4.26,4.54-6.08-2.58-13.3-3.23-15.41-3.34-.28-1.15-.75-3.02-1.37-5.18h0s-2.17-8.85-4.27-11.93c-1.45-2.13-2.75-3.08-4.17-3.17-.6-.05-1.22,.07-1.87,.33-.04,.01-.07,.03-.11,.04-.08,.03-.16,.07-.24,.11h-.02c-2.27,1.09-6.48,5.15-8.6,12.68-.03,.11-.06,.22-.09,.33-.03,.12-.07,.23-.1,.35,0,.02,0,.04-.02,.07-.55,2.06-.86,4.18-.82,6.22,.08,4.35,.71,7.17,1.41,8.99,.03,.09,.06,.16,.06,.16-5.08,4.42-9.71,10.23-12.85,16.89-.51-.33-1.03-.65-1.57-1,0,0,1.56,4.15,4.48,9.28h0c.41,.74-1.97-.35-1.97-.35,1.73,2.96,4.64,6.86,9.02,10.44-2.88,7.16-10.3,14.93-10.3,14.93l3.7,8.02-4.93-1.48s.95,5.15,2.96,11.35c-.95-1.16-1.52-1.82-1.52-1.82,2.91,5.11,7.05,25.64,9.89,41.6-.48,4.05-.06,8.22,1.2,12.12,.43,1.33,.91,2.56,1.43,3.71,1.7,11.47,1.17,13.06,1.17,13.06,0,0-.04,.28,0,.67-1.32,1.04-3.48,3.22-3.1,6.17,.28,2.26,2.61,2.79,5.11,2.71-5.74,4.98-6.76,9.89-6.76,9.89,4.38,.37,5.63,1,5.63,1-1.01,.98-1.38,2.24-1.38,2.24,0,0,6.29,1.14,14.36,4.41,3.24,1.31,10.68,3.95,15.8,4.19,.15,0,.32,0,.5-.01,12.07,2.99,24.26,2.5,33.62,.16,13.16-3.29,34.54-13.16,32.24-34.7Zm-73.57,5.61v.32s.07,0,.2,.02c-.08,0-.16,0-.24,0,0-.12,.01-.23,.02-.35h.02Zm-13.3-3.83c1.11,.62,2.28,1.16,3.49,1.62h0s-.04,.04-.09,.1c-.82-.35-1.63-.74-2.4-1.19-.32-.18-.65-.28-1-.34v-.2Z"/></g></svg>