<?xml version="1.0" encoding="UTF-8"?><svg id="a" xmlns="http://www.w3.org/2000/svg" viewBox="0 0 244.74 155.28"><defs><style>.b{fill:#4f1b74;}.c{fill:#fff;}.d{fill:#559515;}.e{opacity:.5;}.f{fill:#41740e;}.g{fill:#30530e;}.h{fill:#330b4f;}.i{fill:#b89bcd;}.j{fill:#6b2d97;}</style></defs><path class="e" d="M122.38,153.75c-14.03,0-22.62-5.35-25.82-7.8-2.64-1.74-5.08-3.75-7.3-6.02-5.7,2.42-11.64,3.64-17.71,3.64-5.58,0-11.27-1.08-16.45-3.13-1.75-.67-2.93-1.27-3.31-1.47l-.49-.25c-.31-.16-.61-.35-.88-.58-.26-.21-5.58-4.63-9.27-13.46-2.44,.57-4.8,.85-7.13,.85-.96,0-1.93-.05-2.87-.15-1.25-.13-2.51-.2-3.73-.2-8.1,0-12.83,2.95-12.88,2.98-.83,.55-1.79,.83-2.74,.83-.85,0-1.7-.22-2.47-.66-1.64-.93-2.6-2.72-2.51-4.61,.03-.51,.67-12.67,6.27-25.5,5.13-11.77,12.74-20.3,22.39-25.24-7.81,1.1-13.16,2-13.25,2.02-.28,.05-.56,.07-.84,.07-1.5,0-2.95-.68-3.91-1.88-1.14-1.42-1.41-3.35-.72-5.03,.7-1.69,17.56-41.45,58.14-43.74,1.06-.06,2.11-.09,3.12-.09,10.65,0,17.3,3.38,21.45,7.65,.69-4.56,.63-9.77-1.19-14.97-.43-1.23-.37-2.57,.18-3.75,1.13-2.44,3.71-5.3,7.47-5.91,.57-.18,1.17-.28,1.8-.28,1.49,0,2.99,.51,5.02,1.69,1.31,.77,2.21,2.09,2.43,3.6,.07,.49,1.21,8.88-2.29,21.84,8.95-11.8,21.82-17.95,37.8-17.95s30.25,6.53,30.84,6.81c1.7,.81,2.8,2.52,2.84,4.4,.04,1.89-.99,3.64-2.65,4.52-.1,.06-1.44,.82-3.25,2.58,1.35-.15,2.8-.24,4.36-.24,10.68,0,28.16,4.34,50.79,25.03,.14,.13,.28,.27,.41,.42,1.07,1.21,2.83,2.49,3.54,2.57,.14-.01,.28-.02,.42-.02,2.09,0,3.91,1.32,4.62,3.34,.65,1.83,.31,3.94-.9,5.65-.58,.82-1.33,1.53-2.28,2.13,.11,.13,.22,.27,.32,.42,1.46,1.41,2.06,3.75,1.79,6.97-.13,1.52-.94,2.89-2.21,3.74-.51,.34-12.37,8.07-34.25,8.65,0,.8-.03,1.3-.03,1.35,0,.21-.03,.42-.07,.63-1.03,17.44-10.79,29.85-26.96,34.33-4.52,5.36-10.86,10.12-18.87,14.18-13.15,6.66-25.52,10.04-36.77,10.04Zm80.93-73.77c.07,.19,.14,.39,.21,.59,4.65-.12,11.61-1,18.01-4.55-1.64-.06-3.38-.15-5.22-.28-1.93,.45-6.94,1.51-13.68,2.11,.24,.7,.47,1.41,.68,2.12h0Z"/><path class="c" d="M117.38,148.75c-14.03,0-22.62-5.35-25.82-7.8-2.64-1.74-5.08-3.75-7.3-6.02-5.7,2.42-11.64,3.64-17.71,3.64-5.58,0-11.27-1.08-16.45-3.13-1.75-.67-2.93-1.27-3.31-1.47l-.49-.25c-.31-.16-.61-.35-.88-.58-.26-.21-5.58-4.63-9.27-13.46-2.44,.57-4.8,.85-7.13,.85-.96,0-1.93-.05-2.87-.15-1.25-.13-2.51-.2-3.73-.2-8.1,0-12.83,2.95-12.88,2.98-.83,.55-1.79,.83-2.74,.83-.85,0-1.7-.22-2.47-.66-1.64-.93-2.6-2.72-2.51-4.61,.03-.51,.67-12.67,6.27-25.5,5.13-11.77,12.74-20.3,22.39-25.24-7.81,1.1-13.16,2-13.25,2.02-.28,.05-.56,.07-.84,.07-1.5,0-2.95-.68-3.91-1.88-1.14-1.42-1.41-3.35-.72-5.03,.7-1.69,17.56-41.45,58.14-43.74,1.06-.06,2.11-.09,3.12-.09,10.65,0,17.3,3.38,21.45,7.65,.69-4.56,.63-9.77-1.19-14.97-.43-1.23-.37-2.57,.18-3.75,1.13-2.44,3.71-5.3,7.47-5.91,.57-.18,1.17-.28,1.8-.28,1.49,0,2.99,.51,5.02,1.69,1.31,.77,2.21,2.09,2.43,3.6,.07,.49,1.21,8.88-2.29,21.84,8.95-11.8,21.82-17.95,37.8-17.95s30.25,6.53,30.84,6.81c1.7,.81,2.8,2.52,2.84,4.4,.04,1.89-.99,3.64-2.65,4.52-.1,.06-1.44,.82-3.25,2.58,1.35-.15,2.8-.24,4.36-.24,10.68,0,28.16,4.34,50.79,25.03,.14,.13,.28,.27,.41,.42,1.07,1.21,2.83,2.49,3.54,2.57,.14-.01,.28-.02,.42-.02,2.09,0,3.91,1.32,4.62,3.34,.65,1.83,.31,3.94-.9,5.65-.58,.82-1.33,1.53-2.28,2.13,.11,.13,.22,.27,.32,.42,1.46,1.41,2.06,3.75,1.79,6.97-.13,1.52-.94,2.89-2.21,3.74-.51,.34-12.37,8.07-34.25,8.65,0,.8-.03,1.3-.03,1.35,0,.21-.03,.42-.07,.63-1.03,17.44-10.79,29.85-26.96,34.33-4.52,5.36-10.86,10.12-18.87,14.18-13.15,6.66-25.52,10.04-36.77,10.04Zm80.93-73.77c.07,.19,.14,.39,.21,.59,4.65-.12,11.61-1,18.01-4.55-1.64-.06-3.38-.15-5.22-.28-1.93,.45-6.94,1.51-13.68,2.11,.24,.7,.47,1.41,.68,2.12h0Z"/><g><g><path class="d" d="M6.81,118.99s2.65-54.51,50.33-50.84,7.34,32.09,.61,35.46-18.54,13.14-31.08,11.82c-12.53-1.32-19.87,3.57-19.87,3.57Z"/><path class="f" d="M6.81,118.99s22.01-41.47,60.52-45.54l.61,2.45s-29.75-2.04-61.13,43.1Z"/></g><g><path class="d" d="M164.43,37.58s21.7-15.28,60.83,20.48c0,0,3.97,4.58,7.64,4.28,0,0,1.83,5.2-22.01,3.36,0,0-30.26,7.95-54.41-3.97-24.15-11.92,7.95-24.15,7.95-24.15Z"/><path class="f" d="M232.9,62.34s-13.35,3.16-24.15-2.75-37.09-17.32-49.92-14.26l4.69-3.26s21.5,2.55,28.02,6.42,16.51,8.76,18.14,9.37,10.29,6.01,23.23,4.48Z"/></g><g><path class="d" d="M174.37,22.59S125.13-.94,105.74,42.78c-19.39,43.72,24.77,21.68,30.92,17.36,6.15-4.32,20.37-10.09,25.15-21.75,4.78-11.66,12.56-15.8,12.56-15.8Z"/><path class="f" d="M174.37,22.59s-46.95-.3-68.8,31.67l1.86,1.7s12.32-27.16,66.94-33.37Z"/></g><g><path class="d" d="M16.39,65.09s68.16-11.62,77.64-2.45c0,0,14.06-40.35-23.84-38.21-37.9,2.14-53.8,40.65-53.8,40.65Z"/><path class="f" d="M19.44,62.04s66.63-54.71,74.58,.61c0,0-6.72-48.29-74.58-.61Z"/></g><g><g><g><path class="b" d="M48.58,129.28s-22.01-17.93-3.67-57.06c18.34-39.12,47.68-28.94,51.35-27.71,3.67,1.22,38.31,13.86,17.12,53.8-21.19,39.94-49.72,38.72-64.8,30.97Z"/><path class="j" d="M48.58,129.28s-22.01-17.93-3.67-57.06c18.34-39.12,47.68-28.94,51.35-27.71,3.67,1.22-21.6-8.97-42.79,30.97-21.19,39.94-4.89,53.8-4.89,53.8Z"/><path class="h" d="M49.09,129.54s20.89-.25,39.23-39.38c18.34-39.12,7.95-45.65,7.95-45.65,0,0,39.58,12.48,17.12,53.8-27.92,51.35-64.29,31.23-64.29,31.23Z"/><path class="h" d="M90.15,42.95s1.09,7.2,12.02,4.11c0,0-6.79-3.63-12.02-4.11Z"/></g><g><path class="d" d="M93.41,44.72s10.7-16.91,4.58-34.34c0,0,2.34-5.13,7.23-2.28,0,0,2.31,15.76-9.37,37.9l-2.45-1.29Z"/><path class="g" d="M95.14,45.64s3.2-7.39,6.11-16.86c1.02-3.33,3.6-13.37,1.46-19.46,0,0-2.38-4.08,2.51-1.22,0,0,2.31,15.76-9.37,37.9l-.71-.36Z"/></g><path class="i" d="M60.54,53.75s-15.89,15.35-19.15,36.14c-3.26,20.79,4.62-6.79,8.15-14.13,3.53-7.34,20.92-29.21,11-22.01Z"/></g><g><g><path class="b" d="M97.8,76.13s6.78-27.57,49.99-27.76c43.21-.19,46.57,30.69,47.04,34.53,.47,3.84,3.89,40.55-41.28,38.51-45.17-2.04-56.28-28.34-55.75-45.29Z"/><path class="j" d="M97.8,76.13s6.78-27.57,49.99-27.76c43.21-.19,46.57,30.69,47.04,34.53,.47,3.84,1.3-26.07-48-28.32-49.16-2.24-49.56,38.49-49.02,21.55Z"/><path class="h" d="M97.8,76.13s-.94,32.14,50.13,39.91c48.19,7.33,46.43-36.98,46.9-33.14,.47,3.84,3.89,40.55-41.28,38.51-45.17-2.04-56.28-28.34-55.75-45.29Z"/><path class="h" d="M193.61,76.71s-6.04,4.07,1.44,12.62c0,0,.37-7.69-1.44-12.62Z"/></g><g><path class="d" d="M193.41,80.42s19.87,2.42,32.99-10.57c0,0,5.64-.08,5.15,5.56,0,0-13.25,8.84-38.26,7.77l.12-2.76Z"/><path class="g" d="M193.32,82.38s8.05-.27,17.85-1.7c3.45-.5,13.62-2.47,18.21-7.01,0,0,2.66-3.89,2.18,1.75,0,0-13.25,8.84-38.26,7.77l.02-.8Z"/></g><path class="i" d="M162.49,52.96s-13.9-5.2-27.45-1.16c-13.55,4.03,5.45,.84,10.92,.86s23.76,4.24,16.53,.31Z"/></g><g><g><path class="b" d="M81.08,122.22s-7.65-27.34,29.88-48.74c37.54-21.4,55.64,3.83,57.94,6.95s23.32,33.4-17.01,53.83c-40.34,20.43-62.95,2.99-70.81-12.03Z"/><path class="j" d="M81.08,122.22s-7.65-27.34,29.88-48.74c37.54-21.4,57.94,6.95,57.94,6.95,0,0-16.79-12.63-46.76-.87-32.2,12.63-41.06,42.66-41.06,42.66Z"/><path class="h" d="M93.21,135.8s27.68,8.14,54.82-7.95c23.03-13.65,20.88-47.43,20.88-47.43,0,0,23.32,33.4-17.01,53.83-40.34,20.43-58.68,1.55-58.68,1.55Z"/><path class="h" d="M164.81,75.63s-3.26,6.51,7.46,10.29c0,0-3.46-6.88-7.46-10.29Z"/></g><path class="i" d="M112.91,75.38s-14.01,4.89-21.85,16.65c-7.84,11.76,4.73-2.84,8.95-6.33,4.22-3.48,20.98-11.93,12.9-10.33Z"/></g></g></g></svg>