<?xml version="1.0" encoding="UTF-8"?><svg id="a" xmlns="http://www.w3.org/2000/svg" viewBox="0 0 182.02 241.37"><defs><style>.b{fill:#fff;}.c{fill:#93373b;}.d{opacity:.5;}.e{fill:#ed715c;}.f{fill:#e75f4f;}.g{fill:#802f2e;}</style></defs><path class="d" d="M13,238.37c-1.4,0-2.73-.58-3.68-1.61-.95-1.03-1.42-2.4-1.31-3.8L21.31,71.69c.21-2.59,2.38-4.59,4.98-4.59H59.25c7.21-39.23,18.53-59.1,33.65-59.1,.18,0,.36,0,.54,0,12.45,.43,21.82,13.24,29.48,40.32,1.63,5.75,3.14,12.05,4.52,18.78h33.29c2.6,0,4.77,2,4.98,4.59l13.3,161.27c.12,1.39-.36,2.77-1.31,3.8-.95,1.03-2.28,1.61-3.68,1.61H13ZM111.11,67.1c-6.59-30.51-14.98-43.49-18.24-43.61h-.02c-3.04,0-11.18,13.24-17.22,43.61h35.48Z"/><path class="b" d="M8,233.37c-1.4,0-2.73-.58-3.68-1.61-.95-1.03-1.42-2.4-1.31-3.8L16.31,66.69c.21-2.59,2.38-4.59,4.98-4.59H54.25C61.46,22.88,72.77,3,87.9,3c.18,0,.36,0,.54,0,12.45,.43,21.82,13.24,29.48,40.32,1.63,5.75,3.14,12.05,4.52,18.78h33.29c2.6,0,4.77,2,4.98,4.59l13.3,161.27c.12,1.39-.36,2.77-1.31,3.8-.95,1.03-2.28,1.61-3.68,1.61H8ZM106.11,62.1c-6.59-30.51-14.98-43.49-18.24-43.61h-.02c-3.04,0-11.18,13.24-17.22,43.61h35.48Z"/><g><g><path class="f" d="M169.02,228.37H8c4.43-53.76,8.86-107.51,13.3-161.27H155.73l13.3,161.27Z"/><path class="e" d="M23.75,70.31h128s-5.57,126.91-58.18,130.57C40.96,204.55,23.75,70.31,23.75,70.31Z"/><path class="e" d="M13.64,201.34l-2.02,23.82,154.3,.46-2.53-21.07s-17.71,17.87-75.38,16.95c-57.67-.92-74.37-20.16-74.37-20.16Z"/></g><path class="g" d="M117.35,79.48c-1.65,.19-3.15-.86-3.38-2.36-4.11-27.06-14.48-63.22-25.93-63.62-11.36-.42-21.18,35.86-24.97,63.24-.21,1.5-1.69,2.56-3.35,2.39h-.02c-1.67-.18-2.87-1.54-2.66-3.06,2.26-16.36,11.11-68.73,31.23-68.07,9.82,.34,17.94,12.34,24.83,36.68,3.69,13.03,5.97,26.14,6.86,31.69,.24,1.52-.94,2.91-2.62,3.1h0Z"/><path class="c" d="M60.97,59.72s5.5-27.66,12.33-39c6.83-11.34,14.04-13.57,19.92-10.65,5.88,2.92,12.71,13.92,16.51,26.11,3.21,10.31,4.17,14.78,4.17,14.78,0,0-6.64-22.16-14.23-31.96-6.05-7.8-12.52-11.85-21.44-2.41-8.12,8.6-17.26,43.12-17.26,43.12Z"/></g></svg>