<?xml version="1.0" encoding="UTF-8"?><svg id="a" xmlns="http://www.w3.org/2000/svg" viewBox="0 0 107.62 288.53"><defs><style>.b{fill:#fff;}.c{fill:#e7d760;stroke:#baa73b;}.c,.d,.e,.f,.g,.h,.i,.j,.k,.l{stroke-miterlimit:10;}.m{fill:#fffa71;}.n,.o{opacity:.5;}.p{fill:#cc0098;}.q{fill:#342517;}.r{fill:#ce5f9c;}.o{fill:#eaa698;}.s{fill:#ef4b3b;}.t{fill:#f58778;}.u{fill:#84331a;}.d{fill:#fe66ca;}.d,.f{stroke:#af1086;stroke-width:2px;}.v{fill:#7a2f2b;}.w{fill:#ba8313;}.e{fill:#81c0ea;}.e,.g,.h,.j,.k{stroke:#4c2606;}.e,.g,.j,.k{stroke-width:.5px;}.x{fill:#4c2606;}.f{fill:#e852bb;}.y{fill:#e8c0b8;}.a`{fill:#b26b51;}.g{fill:#d3e7f2;}.aa{fill:#331008;}.h,.ab,.j{fill:#f9dad2;}.i{fill:#e16faa;stroke:#323232;stroke-width:.75px;}.ac{fill:#f48a71;}.ad{fill:#f86909;}.ae{fill:#fff7f4;}.af{fill:#3d2d16;}.ag{fill:#f9988f;}.ah{fill:#342516;}.ai{fill:#8c3d35;}.k{fill:#5393b7;}.l{fill:#faf079;stroke:#9a9435;}</style></defs><path class="n" d="M69.62,287.38c-6.66,0-11.61-2.82-13.58-7.73-.18-.45-.37-1.08-.45-1.89-.63-1.73-.97-5.15,2.26-10.49,.86-1.43,1.07-2.31,1.28-3.25,.22-.94,.52-2.28,1.44-3.6-.25-4.51-1.33-10.85-2.92-16.96-.58,.03-1.15,.06-1.73,.08-.67,.03-1.34,.05-2.01,.06-.12,.91-.25,1.81-.37,2.69-.84,5.71-1.31,9.13-1.57,11.14,.33,.53,.54,1.05,.68,1.5,.19,.66,.26,1.35,.21,2.03l.02,.18c.1,.38,.16,.77,.18,1.15,.31,2.04,.4,4.29,.26,6.71-.02,.97-.06,1.57-.06,1.57-.02,.33-.08,.67-.17,1-.11,.89-.21,1.45-.23,1.53-.09,.46-.24,.92-.45,1.34-.74,1.46-2.46,4.87-19.3,8.04-.06,.01-.13,.02-.19,.03-3.92,.58-7.41,.87-10.38,.87-7.31,0-10.41-1.8-11.72-3.31-1.64-1.88-2.44-4.26-2.26-6.75-.09-3.47,2.2-5.86,2.69-6.32,1.94-1.86,4.99-3.35,8.52-5.07,1.13-.55,2.27-1.11,3.34-1.67,2.23-1.17,3.16-1.85,3.55-2.21,0,0,.05-.04,.09-.09,.97-1.18,1.94-2.18,2.91-2.98-.83-4.17-1.5-9.1-1.98-14.74-13.54-4.19-19.9-10.84-20.18-11.15-1.05-1.12-1.53-2.65-1.3-4.17,1.31-8.66,3.41-17.53,6.27-26.39-4.69-10.48-4.92-15.79-4.91-16.79,.53-24.98,4.15-36.86,4.5-37.96l1.49-4.88c-1.71-1.57-3.1-3.3-4.15-5.16-.94-1.66-.85-3.72,.24-5.29,.05-.07,4.66-6.77,8.28-12.2,.73-1.09,1.54-2.13,2.44-3.11-1.22-.8-2.36-1.66-3.4-2.56-7.85-6.78-6.98-12.62-6.13-18.27,.31-2.1,.64-4.26,.63-6.86-1.91-2.54-2.6-5.25-2.98-8.41-.6-4.98,.84-7.92,2.5-9.62-.26-.72-.5-1.45-.71-2.15l-.05-.16c-.3-.9-.55-1.88-.75-2.92-.75-3.33-1.13-6.72-1.13-10.09C8.35,23.33,25.22,6.15,53.47,6.15c8.72,0,16.34,1.79,22.65,5.32,2.02,.5,3.61,1.8,4.7,2.83,.39,.36,.76,.77,1.13,1.23,3.39,2.91,6.25,6.48,8.52,10.64,2.6,.61,4.77,1.73,6.49,3.35,1.56,1.47,3.62,3.81,3.42,7.02-.2,3.37-2.7,5.22-4.36,6.45,.68,4.08,1.02,8.43,1.02,12.98s-.64,8.75-1.91,12.8c1.16,1.77,2.02,4.45,1.54,8.44-.18,1.51-.46,3.23-1.08,4.94,.34,2.74,.81,5.12,1.43,7.25,1.59,5.43,1.16,10.31-1.28,14.5-1.65,2.83-4.14,5.19-7.43,7.07,4.2,5.74,11.75,19.85,12.66,21.55,.94,1.76,.74,3.9-.5,5.46-.01,.02-.03,.04-.05,.06,.92,3.23,2.03,7.46,2.68,11.21,1.5,8.7-1.52,12.02-2.89,13.05-.36,.27-.76,.49-1.19,.66-4.29,1.66-8.9,2.8-13.79,3.42,10,18.07,20.56,56.75,21.06,58.57,.53,1.97-.18,4.06-1.81,5.29-.31,.23-7.1,5.3-20.85,9.13-.37,5.42-.83,10.11-1.15,12.79-.37,3.07-.53,6.14-.58,8.48,1.35,2.09,1.92,4.77,2.22,6.15,.17,.79,.36,1.54,.54,2.25,.34,1.31,.66,2.55,.81,3.85,.46,2.38,1.51,8.81-5.62,12.28-2.86,1.39-6.69,2.23-10.24,2.23h0Z"/><path class="b" d="M64.62,282.38c-6.66,0-11.61-2.82-13.58-7.73-.18-.45-.37-1.08-.45-1.89-.63-1.73-.97-5.15,2.26-10.49,.86-1.43,1.07-2.31,1.28-3.25,.22-.94,.52-2.28,1.44-3.6-.25-4.51-1.33-10.85-2.92-16.96-.58,.03-1.15,.06-1.73,.08-.67,.03-1.34,.05-2.01,.06-.12,.91-.25,1.81-.37,2.69-.84,5.71-1.31,9.13-1.57,11.14,.33,.53,.54,1.05,.68,1.5,.19,.66,.26,1.35,.21,2.03l.02,.18c.1,.38,.16,.77,.18,1.15,.31,2.04,.4,4.29,.26,6.71-.02,.97-.06,1.57-.06,1.57-.02,.33-.08,.67-.17,1-.11,.89-.21,1.45-.23,1.53-.09,.46-.24,.92-.45,1.34-.74,1.46-2.46,4.87-19.3,8.04-.06,.01-.13,.02-.19,.03-3.92,.58-7.41,.87-10.38,.87-7.31,0-10.41-1.8-11.72-3.31-1.64-1.88-2.44-4.26-2.26-6.75-.09-3.47,2.2-5.86,2.69-6.32,1.94-1.86,4.99-3.35,8.52-5.07,1.13-.55,2.27-1.11,3.34-1.67,2.23-1.17,3.16-1.85,3.55-2.21,0,0,.05-.04,.09-.09,.97-1.18,1.94-2.18,2.91-2.98-.83-4.17-1.5-9.1-1.98-14.74-13.54-4.19-19.9-10.84-20.18-11.15-1.05-1.12-1.53-2.65-1.3-4.17,1.31-8.66,3.41-17.53,6.27-26.39-4.69-10.48-4.92-15.79-4.91-16.79,.53-24.98,4.15-36.86,4.5-37.96l1.49-4.88c-1.71-1.57-3.1-3.3-4.15-5.16-.94-1.66-.85-3.72,.24-5.29,.05-.07,4.66-6.77,8.28-12.2,.73-1.09,1.54-2.13,2.44-3.11-1.22-.8-2.36-1.66-3.4-2.56-7.85-6.78-6.98-12.62-6.13-18.27,.31-2.1,.64-4.26,.63-6.86-1.91-2.54-2.6-5.25-2.98-8.41-.6-4.98,.84-7.92,2.5-9.62-.26-.72-.5-1.45-.71-2.15l-.05-.16c-.3-.9-.55-1.88-.75-2.92-.75-3.33-1.13-6.72-1.13-10.09C3.35,18.33,20.22,1.15,48.47,1.15c8.72,0,16.34,1.79,22.65,5.32,2.02,.5,3.61,1.8,4.7,2.83,.39,.36,.76,.77,1.13,1.23,3.39,2.91,6.25,6.48,8.52,10.64,2.6,.61,4.77,1.73,6.49,3.35,1.56,1.47,3.62,3.81,3.42,7.02-.2,3.37-2.7,5.22-4.36,6.45,.68,4.08,1.02,8.43,1.02,12.98s-.64,8.75-1.91,12.8c1.16,1.77,2.02,4.45,1.54,8.44-.18,1.51-.46,3.23-1.08,4.94,.34,2.74,.81,5.12,1.43,7.25,1.59,5.43,1.16,10.31-1.28,14.5-1.65,2.83-4.14,5.19-7.43,7.07,4.2,5.74,11.75,19.85,12.66,21.55,.94,1.76,.74,3.9-.5,5.46-.01,.02-.03,.04-.05,.06,.92,3.23,2.03,7.46,2.68,11.21,1.5,8.7-1.52,12.02-2.89,13.05-.36,.27-.76,.49-1.19,.66-4.29,1.66-8.9,2.8-13.79,3.42,10,18.07,20.56,56.75,21.06,58.57,.53,1.97-.18,4.06-1.81,5.29-.31,.23-7.1,5.3-20.85,9.13-.37,5.42-.83,10.11-1.15,12.79-.37,3.07-.53,6.14-.58,8.48,1.35,2.09,1.92,4.77,2.22,6.15,.17,.79,.36,1.54,.54,2.25,.34,1.31,.66,2.55,.81,3.85,.46,2.38,1.51,8.81-5.62,12.28-2.86,1.39-6.69,2.23-10.24,2.23h0Z"/><g><path class="q" d="M15.69,42.79s-6.77,17.87-4.63,32.27c2.14,14.4-5.26,18.58,4.17,26.72,9.43,8.14,27.86,11.73,35.72,4,0,0,5.24,1.55,17.77-.36,12.54-1.9,21.98-7.73,18.49-19.62-3.49-11.89-1.79-27.64-2.33-36.98-.54-9.34-12.19-20.29-36.7-13.7-24.51,6.6-32.49,7.66-32.49,7.66Z"/><g><path class="j" d="M45.85,215.25s-.08,3.01-.4,7.66c-.32,4.68-.89,11.03-1.86,17.64-1.94,13.19-1.94,14.37-1.94,14.37l.54,.9c.32,4.43-6.88,6.51-11.08,5.6-4.19-.9-.54-8.13-.54-8.13-2.54-9.24-3.36-22.86-3.63-31.16-.14-4.37-.13-7.26-.13-7.26,11.51-8.86,19.04,.36,19.04,.36Z"/><path class="y" d="M46.06,215.48s-.49,3.07-.81,7.73c-8.8,1.31-14.67,.15-18.1-.83-.14-4.37-.13-7.26-.13-7.26,11.51-8.86,19.04,.36,19.04,.36Z"/><g><path class="k" d="M32.08,260.62s-1.83-1.58-3.01-3.57-.48-2.49-3.17,.81c-2.69,3.3-13.93,6.28-16.94,9.17,0,0-1.29,2.53,.65,4.75,0,0,2.58,2.98,17.59,.77,0,0,14.41-2.71,15.76-5.38,0,0,.91-4.93,.11-9.54,0,0,.27-.72-1.51-1.45,0,0,.7,2.17-1.4,3.07s-8.07,1.36-8.07,1.36Z"/><path class="e" d="M43.27,265.23c-.92,2.58-16.35,5.56-16.35,5.56-14.9,2.98-17.59-.77-17.59-.77-1.94-2.21,.38-4.43,.38-4.43,1.92-1.84,6.77-3.85,10.72-5.92,1.89-.99,3.58-1.99,4.65-2.99,.2-.19,.38-.38,.54-.58,2.69-3.3,5.38-4.7,6.56-2.71,1.18,1.99-.38,5.47-.38,5.47,0,0,5.97-.46,8.07-1.36,2.03-.88,1.8-3.07,1.74-3.21,1.77,.72,1.16,1.58,1.16,1.58,.81,4.61,.49,9.36,.49,9.36Z"/><path class="g" d="M33.48,262.2c-.39,1.3-1.83,2.42-3.78,3.05-.81,.26-1.7-.08-2.06-.74-.75-1.39-2.66-3.72-7.21-4.84,1.89-.99,3.58-1.99,4.65-2.99,1.23,.28,2.65,.7,3.88,1.37,0,0,5,2.53,4.52,4.15Z"/></g></g><g><path class="j" d="M74.21,221.01c-.14,9.86-1.14,20.99-1.69,25.54-.84,6.87-.62,13.56-.62,13.56-5.51,4.88-11.49,.27-11.49,.27,.78-4.52-.57-14.37-3.07-23.77-1.25-4.73-1.93-10.07-2.29-14.22-.36-4.1-.41-7.02-.41-7.02,.94-17.9,18.92-7.41,18.92-7.41,.56,3.32,.72,8.02,.65,13.05Z"/><path class="y" d="M74.05,221.06c-9.52,2.19-15.73,1.8-18.87,1.36-.36-4.1-.55-7.05-.55-7.05,.94-17.9,18.92-7.41,18.92-7.41,.56,3.32,.56,8.08,.49,13.11Z"/><g><path class="k" d="M60.56,261.19s-2.13,1.08,3.79,1.36c5.93,.27,8.52-.41,8.26-3.12,0,0,.88-.05,1.98,5.06,1.09,5.11,2.81,8.86-1.92,11.16s-14.61,3.12-17-2.89c0,0-.83-1.85,1.82-6.24,2.65-4.38,.68-4.7,2.91-6.15l.16,.81Z"/><path class="e" d="M60.63,258.54s-1.66,2.08,3.36,2.33c5.92,.3,8.26-.5,8.01-3.21,0,0,1.14,.05,2.24,5.15,1.09,5.11,3.07,8.59-1.66,10.89-4.73,2.3-14.87,3.39-17.26-2.62,0,0-.83-1.85,1.82-6.24,2.65-4.38,1.26-6.04,3.5-7.49v1.17Z"/><ellipse class="e" cx="66.26" cy="259.95" rx="3.92" ry="3.91"/><path class="g" d="M72.52,265.69c0,.34-.48,.52-.77,.29-.9-.72-2.67-1.8-5.47-2.03-3.04-.25-5.62,.7-6.88,1.29-.35,.16-.76-.1-.67-.43,.2-.84,.68-2.2,1.83-3.62,1.87-2.3,10.06-.72,10.84,.23,.68,.83,1.17,2.13,1.12,4.28Z"/></g></g><path class="j" d="M14.35,196.3l2.69,4.52c.9,1.07,2.23-.17,1.77-1.49l-2.87-8.14s-.43-3.68,.71-7.89l4.35,4.5s3.66-.49-1.49-8.71l-3.27-4.15c-1.01,2.67,5.91-16.88,8.2-30.24l6.44-13.96,.68-2.51s.51-6.42-9.51-5.5l-6.2,4.45-4.01,13.1s-3.74,11.32-4.27,36.49c0,0-.05,6.13,6.78,19.55Z"/><path class="i" d="M28.76,158.51s-17.26,26.69-22.6,62.14c0,0,13.28,14.2,44.56,12.88s45.75-12.3,45.75-12.3c0,0-14.1-51.95-24.59-63.34,0,0-33.2-13.4-43.12,.61Z"/><g><path class="r" d="M32.61,162.52s-12.4,20.22-14.31,42.88c0,0,4.58-26.84,16.79-42.53l-2.48-.35Z"/><path class="r" d="M58.49,163.34s6.87,7.44,12.84,28.24c0,0-3.31-14.76-8.9-26.03,0,0-2.42-4.07,5.47-4.07,0,0,3.94-.7,11.19,16.5,0,0-5.09-15.22-10.05-17.66-4.96-2.44-10.55,3.02-10.55,3.02Z"/></g><path class="l" d="M27.9,153.96s-1.27,2.67-.19,5.46c1.08,2.79,13.99,3.6,21.68,3.6s18.76-.61,23.24-3.63c.23-.15,.4-.36,.52-.6,.45-.89,1.21-3.15-1.12-5.41-2.99-2.91-27.79-5.11-44.13,.58Z"/><path class="i" d="M91.55,129.87s-3.94,5.05-17.29,6.45c0,0,1.89,7.6-1.17,17.94,0,0-4.99,5.15-23.68,4.86-22.44-.35-21.25-6.68-21.25-6.68,0,0-2.6-7.7-4.13-16.06,0,0-10.94-2.44-15.26-10.11,0,0,4.63-6.73,8.32-12.26,2.06-3.09,4.97-5.63,8.43-7.39,5.54-2.82,14.45-6.82,23.17-8.47l11.32,3.95s14.88,1.51,18.57,5.93c3.69,4.42,12.97,21.85,12.97,21.85Z"/><g><path class="l" d="M57.59,127.83c-.1,.23-.23,.45-.39,.66-.4,.53-.97,.95-1.64,1.21-1,.38-3.95,.1-4.35-1.02,.47,1.29,1.17,1.94,.44,3.38-.23,.46-.57,.88-.97,1.25-.2,.19-.42,.36-.66,.52-.45,.3-.94,.54-1.45,.71-.36,.12-.72,.19-1.06,.22-.25,.02-.5,.02-.75,0-2.71-.23-4.6-3.04-3.85-5.62-.13,.45-1.85,1.19-2.3,1.3-1.18,.28-2.44,.29-3.54-.09-.33-.12-.65-.27-.95-.46-.23-.15-.45-.32-.65-.52-.63-.62-.85-1.4-.86-2.21h0c0-.17,0-.35,.02-.52,0-.07,.02-.15,.03-.22,.35-2.42,2.81-4.19,5.44-3.39-1.47-1.48-2.62-3.2-2-4.62,.09-.21,.22-.41,.39-.61,.35-.4,.89-.77,1.65-1.09,.26-.11,.52-.2,.78-.25,.31-.07,.62-.11,.92-.11,1.72,0,3.14,1.12,3.68,2.73-.14-1.58,1.36-3.52,2.86-4.09,.62-.24,1.35-.29,2.08-.21,.33,.04,.67,.1,.99,.19h0c.84,.23,1.64,.63,2.24,1.14,.19,.16,.37,.34,.52,.52,.08,.1,.15,.2,.21,.3,1.55,2.52-.93,4.76-2.9,6.26,2.26-.86,5.31,.25,6.12,2.37,.09,.24,.16,.49,.19,.76,0,.05,.01,.1,.01,.14,.03,.48-.06,.95-.24,1.37Z"/><path class="w" d="M48.95,127.68c1.92-1.4,2.71-3.98,.49-5.96-2-1.78-5.15-1.52-6.83,.47-1.55,1.83-1.37,4.58,.85,5.83,1.93,1.09,4.04,.72,5.49-.34Z"/><path class="ad" d="M48.53,127.22c1.63-1.19,2.3-3.38,.41-5.07-1.7-1.51-4.37-1.29-5.8,.4-1.32,1.56-1.16,3.89,.72,4.96,1.64,.93,3.43,.61,4.67-.29Z"/></g><g><path class="j" d="M60.46,155.9s16.02,3.49,31.76-2.61c0,0,2.1-1.57,.95-8.19-1.14-6.62-3.91-15.16-3.91-15.16,0,0-7.82,4.53-15.45,5.14l2.58,7.23s-8.11,2.96-15.74,3.83"/><path class="x" d="M75.92,142.28c2.59-1.66,6.06-1.81,8.67-.15-2.6-1.47-5.97-1.18-8.37,.55l-.3-.4h0Z"/><g><path class="j" d="M63.76,147.53c-7.69-9.76-10.94-9.88-10.94-9.88-7.12,.29-10.36,3.37-11.76,5.29-1.4,1.92,0,2.27,0,2.27,0,0,1.34,.29,4.07-1.8,0,0,1.21-1.22,5.09-1.39,0,0-7.88,5.87-4.01,10.46,0,0-.38,1.22,.83,1.51,0,0-.45,1.28,.76,1.98s3.24-2.21,5.66-2.61l2.1,.06s0,2.44,2.54,3.43,5.34-.12,6.74-1.63"/><g><path class="ab" d="M46.21,152.82s.32-4.65,5.53-7.26"/><path class="x" d="M45.96,152.8c.49-3.24,2.88-5.89,5.78-7.25-2.74,1.44-4.97,4.15-5.28,7.28l-.5-.03h0Z"/></g><g><path class="ab" d="M46.98,154.68s0-1.74,3.31-4.36c0,0,.51-.52,2.99-1.16"/><path class="x" d="M46.73,154.68c.39-1.96,2.03-3.26,3.5-4.43,.86-.59,2.01-.83,3.05-1.09-1,.32-2.09,.6-2.93,1.23-1.29,1.14-2.81,2.53-3.11,4.29h-.5Z"/></g></g></g><path class="i" d="M89.96,127.08l1.59,2.79s-3.94,5-17.29,6.45c0,0-2.54-5.81-3.12-9.88"/><path class="i" d="M24.33,139.2s-1.46-5.33-1.07-15"/><path class="j" d="M48.81,106.67c-11.86-.45-7.6-6.15-7.6-6.15,0-.47-.02-.91-.03-1.31-.06-2.3-.1-3.52,.7-4.77,.94-1.47,3.04-2.97,5.93-3.16,2.07-.13,3.71,.23,4.96,.74,1.93,.8,3.09,2.76,3.02,4.84-.03,.93,0,1.66,.07,2.24,.27,2.2,1.11,2.24,1.11,2.24,.75,5.18-8.16,5.33-8.16,5.33Z"/><path class="y" d="M55.77,99.29c-1.7,.76-3.93,1.57-6.38,1.8-2.97,.28-6.27-1-8.03-1.81-.06-2.3-.1-3.52,.7-4.77,.94-1.47,3.04-2.97,5.93-3.16,2.07-.13,3.71,.23,4.96,.74,1.93,.8,2.74,2.76,2.67,4.84-.03,.93,.08,1.77,.15,2.35Z"/><g><path class="ah" d="M87.05,50.97c0,22.16-17.47,36.24-39.25,36.24S8.35,69.26,8.35,47.1,19.77,6.15,48.47,6.15s38.57,22.66,38.57,44.82Z"/><g><path class="h" d="M17.6,68.63c-1.56-2.11-3.59-4.14-6.02-3.75-2.42,.39-3.59,2.66-3.13,6.56,.47,3.91,1.33,5.94,4.3,8.28,2.97,2.34,4.53,3.52,7.66,1.41,.55-4.3-2.03-11.1-2.81-12.5Z"/><path class="a`" d="M18.48,79.53c-.35-.18-.69-.37-1.01-.59-.64-.43-1.14-1.03-1.43-1.74-.29-.69-.38-1.48-.21-2.23,.09-.41,.24-.81,.46-1.18,.04-.08,.09-.14,.13-.21-.02-.05-.04-.09-.07-.14-.14-.26-.28-.53-.43-.78-.44-.74-.96-1.45-1.52-2.11-.57-.63-1.18-1.35-2.08-1.63-.44-.14-.96-.08-1.34,.16-.39,.22-.69,.66-.62,1.11,.02-.44,.34-.78,.71-.94,.37-.16,.78-.18,1.15-.03,.76,.29,1.31,.96,1.86,1.6,.56,.64,1.08,1.31,1.57,2.01,.18,.26,.36,.53,.53,.81-.3,.36-.53,.79-.66,1.26-.24,.79-.18,1.69,.14,2.46,.32,.78,.92,1.44,1.64,1.84,.36,.21,.73,.36,1.11,.51,.37,.14,.81,.26,1.19,.12-.41,.05-.77-.12-1.12-.3Zm-6.85-4c-.38-.74-.49-1.59-.45-2.44,.04-.85,.21-1.71,.37-2.57-.32,.81-.58,1.66-.69,2.55-.1,.88-.02,1.83,.39,2.65,.42,.82,1.11,1.46,1.86,1.93,.75,.48,1.56,.82,2.38,1.12-.75-.44-1.52-.87-2.21-1.38-.69-.51-1.3-1.12-1.67-1.86Z"/></g><g><path class="h" d="M77.43,68.76c1.59-2.14,3.65-4.2,6.1-3.81,2.46,.4,3.65,2.7,3.17,6.66-.48,3.96-1.35,6.03-4.36,8.4-3.01,2.38-4.6,3.57-7.77,1.43-.55-4.36,2.06-11.26,2.85-12.69Z"/><path class="a`" d="M75.4,80.12c.39,.14,.84,.02,1.21-.12,.39-.15,.76-.3,1.12-.51,.73-.41,1.34-1.08,1.66-1.87,.32-.78,.38-1.69,.14-2.49-.14-.47-.37-.91-.67-1.27,.17-.28,.36-.55,.54-.82,.49-.71,1.03-1.39,1.59-2.04,.56-.65,1.12-1.33,1.89-1.62,.38-.15,.79-.13,1.17,.03,.37,.16,.7,.5,.72,.95,.07-.45-.23-.9-.63-1.12-.39-.24-.92-.3-1.36-.16-.91,.28-1.53,1.01-2.11,1.65-.57,.67-1.09,1.38-1.54,2.14-.15,.26-.3,.53-.44,.79-.03,.04-.04,.09-.07,.14,.04,.07,.1,.14,.13,.22,.22,.37,.37,.77,.46,1.19,.17,.76,.08,1.55-.22,2.26-.29,.72-.79,1.33-1.45,1.76-.32,.22-.67,.41-1.03,.6-.36,.18-.72,.36-1.14,.3Zm6.4-2.47c-.7,.52-1.47,.95-2.24,1.4,.83-.3,1.66-.65,2.42-1.14,.76-.48,1.46-1.12,1.88-1.96,.42-.84,.51-1.8,.4-2.69-.11-.9-.37-1.76-.7-2.58,.16,.87,.34,1.74,.38,2.61,.04,.86-.07,1.73-.46,2.48-.37,.75-.99,1.37-1.69,1.89Z"/></g><g><path class="h" d="M79.24,56.98c-.03,.28,2.81,.58,2.78,.86-1.12,9.46-2.86,18.52-4.13,23.22-.51,1.87-1.22,3.5-2.15,4.98-1.45,2.34-3.43,4.27-5.9,6-2.09,1.46-6.19,3.79-10.51,5.69-1.78,.79-3.6,1.51-5.33,2.05-2.15,.68-4.16,1.12-5.8,1.12-1.94,0-4.21-.48-6.54-1.22-5.06-1.58-10.4-4.32-13.29-5.84-4.23-2.21-9.36-6.94-10.57-11.97-1.21-5.03-3.16-13.48-4.53-23.55-.43-3.18,2.3-4.42,4.92-13.86,3.5-12.66,8.33-17.67,28.28-17.67,34.83,0,33.89,20.44,32.77,30.21Z"/><path class="o" d="M15.39,70.96s3.29-21.36,10.38-27.15c7.09-5.79,8.11-9.5,8.11-9.5,0,0,1.89,10.81,14.1,15.43l-.54-6.49s2.16,4.22,7.25,6.49l-1.18-8.19s9.39,3.52,18.23,8.82,8.46,22.77,8.46,22.77l-3.55-36.23-30.2-12.53-19.22-.76-13.01,17.92,2.02,13.97-.86,15.44Z"/></g><g><g><ellipse class="b" cx="62.45" cy="64.12" rx="6.36" ry="6.73" transform="translate(-15.81 20.69) rotate(-16.73)"/><path class="af" d="M56.36,65.95c.94,3.3,4.67,5.61,7.98,4.44,5.13-1.62,5.46-9.23,.97-11.8-4.98-3.13-10.63,1.95-8.94,7.36h0Zm0,0c-1.83-5.56,3.97-10.97,9.27-7.91,3.21,1.79,4.51,6.14,2.82,9.4-2.74,5.47-10.55,4.16-12.1-1.49h0Z"/></g><ellipse class="u" cx="62.54" cy="64.04" rx="4.26" ry="4.51"/><ellipse class="b" cx="65.14" cy="60.42" rx="1.17" ry="1.24"/></g><g><g><ellipse class="b" cx="32.13" cy="65.33" rx="6.73" ry="6.36" transform="translate(-40.18 73.79) rotate(-70.49)"/><path class="af" d="M38.13,67.46c-1.08,3.32-4.89,5.56-8.31,4.4-5.74-1.85-5.81-10.2-.57-12.75,5.44-2.79,10.97,2.89,8.88,8.35h0Zm0,0c1.95-5.32-3.45-10.67-8.58-7.79-4.61,2.34-4.65,9.96,.39,11.83,3.25,1.33,7.08-.79,8.18-4.04h0Z"/></g><ellipse class="u" cx="32.29" cy="65.41" rx="4.19" ry="4.36"/><ellipse class="aa" cx="32.29" cy="65.41" rx="3.02" ry="3.15"/><ellipse class="aa" cx="62.65" cy="64.19" rx="3.02" ry="3.15"/><ellipse class="b" cx="34.21" cy="61.63" rx="1.17" ry="1.24"/></g><path class="ai" d="M43.1,74.39c2.68,1.56,4.85,2.33,7.93,.77-.96,4.33-7.54,3.29-7.93-.77h0Z"/><g><path class="o" d="M36.19,80.43c-.49-.19-1.06-.98-1.5-1.26-.44-.27-.95-.44-1.47-.49-.68-.07-1.5,.18-1.63,.79-.11,.49,.28,.96,.71,1.28,.74,.53,1.67,.82,2.6,.81,.41,0,.86-.1,1.08-.41s-.03-.86-.43-.8l.66,.09Z"/><path class="o" d="M58,81.79c.31-.35,.81-1.32,1.22-1.57,.26-.17,.55-.31,.87-.34,.64-.07,1.28,.38,1.48,.95s.02,1.21-.38,1.68c-.4,.47-.98,.77-1.59,.97-.41,.13-.85,.21-1.27,.11s-.81-.39-.88-.79c-.07-.4,.19-.79,.55-1.01s.79-.31,1.21-.4l-1.21,.4Z"/><g><path class="v" d="M60.1,81.27c-.1,.28-.28,.72-.54,1.25-1.2,2.42-4.06,6.88-7.69,8.54-2.5,1.15-5.65,1.16-8.44-.15-3.47-1.63-5.04-3.58-7.03-6.84-.65-1.06-1.34-2.27-2.16-3.65,0,0-.2-.26,.13-.27,.11,0,.28,.02,.54,.09,1.95,.54,6.9,3.29,14.56,2.92,5.89-.29,9.11-1.58,10.28-2.16,.14-.07,.3,0,.35,.12,.02,.05,.02,.1,0,.15Z"/><path class="ag" d="M59.56,82.51c-1.2,2.42-4.06,6.88-7.69,8.54-2.5,1.15-5.65,1.16-8.44-.15-3.47-1.63-5.04-3.58-7.03-6.84,2.32,2.56,6.22,5.91,10.97,6.24,6.5,.44,10.93-5.76,12.2-7.78Z"/><path class="t" d="M60.1,81.12c-1.66,.94-6.45,3.39-13.34,3.11-7.07-.3-11.11-3.11-12.39-4.08,.11,0,.28,.02,.54,.09,1.95,.54,6.9,3.29,14.56,2.92,5.89-.29,9.11-1.58,10.28-2.16,.14-.07,.3,0,.35,.12Z"/><path class="ae" d="M37.25,81.64c.15,.06,8.38,5.01,19.7,.93,0,0-1.63,3.73-8.45,4.08-7.8,.4-11.24-5.01-11.24-5.01Z"/><path class="ac" d="M47.4,90.2c-1.61-.09-3.61-.52-4.4-1.23,1.42-1.4,3.25-.37,4.79-.82,3.23-.93,4.35,.23,4.77,.87-.94,.74-2.93,1.3-5.17,1.18Z"/></g></g><path class="af" d="M34.28,51.7s-6.34-1.08-9.38,3.13c-.12,.17-.41,.09-.39-.11,.1-1.28,.79-3.91,4.73-4.68,6.21-1.21,5.04,1.66,5.04,1.66Z"/><path class="af" d="M58.52,49.11s6.34-1.08,9.38,3.13c.12,.17,.41,.09,.39-.11-.1-1.28-.79-3.91-4.73-4.68-6.21-1.21-5.04,1.66-5.04,1.66Z"/><path class="ah" d="M78.46,38.17c-2.99-15.83-8.27-13.41-22.37-16.38-6.43-1.35-6.45-6.02-12.99-5.37-3.71,.37-13.69-1.42-22.38,13.46-5.48,9.38-14.45,17.55-10.72,28.72,3.43,10.64,5.39,12.36,5.39,12.36l.27-1.56c.08-1.2,.2-2.39,.24-3.58,.88-22.52,10.93-22.82,18.84-36.25,2.12,1.97,4.7,3.47,7.09,4.87,4.54,2.67,9.24,4.96,13.99,7.16,4.74,2.2,9.57,4.12,14.26,6.51,12.02,6.12,9.49,22.84,9.5,22.85-.07-.42,1.44-2.33,1.65-2.68,1.39-2.39,2-3.41,3.07-5.99,3.57-8.6-4.06-14.68-5.84-24.12Z"/><path class="ah" d="M46.46,33.68c-2.48,7.03,0,13.29,0,13.29-11.24-7.8-12.09-19.91-12.09-19.91"/><path class="ah" d="M43.1,32.27s.2,4.83,10.42,15.04c0,0-3.79-6.74-1.63-13.64"/><path class="s" d="M12.6,66.14c-3.33-12.03-2.97-25.73,3.7-36.66,6.6-11.17,19.86-17.44,32.64-16.95,9.57,.34,19.23,3.91,26.06,10.79,6.53,7.07,9.08,17.2,9.5,26.57-.14,6.31-1.16,12.56-3.26,18.39,1-6.09,1.1-12.26,.4-18.25-.78-8.7-2.67-18.03-8.8-24.62-6.24-6.28-15.21-9.57-24-9.88-11.75-.44-23.9,5.24-29.97,15.49-3.08,5.04-4.61,10.93-5.4,16.87-1.08,5.93-1.35,12.09-.87,18.24h0Z"/><g><g><g><path class="d" d="M85.62,36.02c-2.92,3.1-3.26,7.52-7.67,3.36-4.41-4.16-2.69-13.13-2.69-13.13,0,0,8.86-2.23,13.27,1.92,4.41,4.16,.01,4.76-2.91,7.85Z"/><path class="d" d="M64.72,16.3c-2.92,3.1-7.31,3.69-2.91,7.85,4.41,4.16,13.27,1.92,13.27,1.92,0,0,1.72-8.98-2.69-13.13-4.41-4.16-4.75,.26-7.67,3.36Z"/></g><circle class="m" cx="70.98" cy="15.91" r=".92"/><circle class="m" cx="72.67" cy="19.5" r=".92"/><circle class="m" cx="67.21" cy="19.9" r=".92"/><path class="m" d="M69.28,24.38c-.35,.37-.93,.38-1.3,.04s-.38-.93-.04-1.3,.93-.38,1.3-.04,.38,.93,.04,1.3Z"/><circle class="m" cx="64.69" cy="22.57" r=".92"/><path class="m" d="M74.39,21.64c-.35,.37-.33,.95,.04,1.3,.19,.18,.44,.26,.68,.25,.03-.55,.04-1.17,.02-1.82-.27-.02-.54,.07-.74,.28Z"/><path class="m" d="M74.28,17.76c.13,.12,.29,.2,.45,.23-.12-.52-.27-1.04-.46-1.55,0,0-.02,.01-.03,.02-.35,.37-.33,.95,.04,1.3Z"/><path class="m" d="M65.44,25.79h0c.51,.17,1.03,.29,1.55,.38-.04-.15-.12-.3-.25-.41-.37-.35-.95-.33-1.3,.04Z"/><path class="m" d="M71.91,25.6c-.37-.35-.95-.33-1.3,.04-.2,.21-.27,.48-.24,.74,.65-.02,1.27-.07,1.82-.13,0-.24-.1-.48-.29-.66Z"/><path class="m" d="M67.72,15.35c.35-.37,.33-.95-.04-1.3-.21-.2-.48-.27-.75-.24-.24,.37-.49,.75-.76,1.15,.04,.16,.12,.3,.25,.42,.37,.35,.95,.33,1.3-.04Z"/><path class="m" d="M68.94,12.73c.37,.35,.95,.33,1.3-.04,.19-.2,.26-.46,.24-.71-.73-.36-1.31-.35-1.81-.1-.06,.3,.03,.62,.27,.85Z"/><path class="m" d="M62.66,19.39c.37,.35,.95,.33,1.3-.04s.33-.95-.04-1.3c-.13-.12-.28-.19-.44-.23-.38,.29-.75,.56-1.1,.82-.02,.27,.07,.54,.28,.74Z"/><path class="m" d="M61.44,22.02c.35-.37,.33-.95-.04-1.3-.24-.22-.56-.29-.85-.22-.22,.51-.19,1.09,.22,1.8,.24,0,.49-.09,.67-.29Z"/><circle class="m" cx="85.64" cy="29.74" r=".92"/><circle class="m" cx="81.72" cy="28.56" r=".92"/><circle class="m" cx="81.87" cy="33.74" r=".92"/><path class="m" d="M77.28,31.93c-.35,.37-.33,.95,.04,1.3s.95,.33,1.3-.04,.33-.95-.04-1.3-.95-.33-1.3,.04Z"/><circle class="m" cx="79.35" cy="36.4" r=".92"/><path class="m" d="M79.72,26.67c-.35,.37-.93,.38-1.3,.04-.19-.18-.29-.43-.29-.67,.55-.06,1.17-.11,1.82-.13,.04,.27-.04,.55-.24,.76Z"/><path class="m" d="M83.6,26.56c-.13-.12-.21-.27-.25-.43,.53,.09,1.06,.21,1.57,.37,0,0-.01,.02-.02,.03-.35,.37-.93,.38-1.3,.04Z"/><path class="m" d="M76.1,35.85h-.01c-.19-.49-.34-1-.46-1.52,.16,.03,.3,.11,.43,.22,.37,.35,.38,.93,.04,1.3Z"/><path class="m" d="M75.91,29.37c.37,.35,.38,.93,.04,1.3-.2,.21-.46,.3-.73,.28-.02-.65,0-1.27,.02-1.82,.24-.01,.48,.07,.67,.25Z"/><path class="m" d="M86.38,32.96c.35-.37,.93-.38,1.3-.04,.21,.2,.3,.47,.28,.73-.35,.26-.72,.53-1.1,.83-.16-.03-.31-.11-.44-.23-.37-.35-.38-.93-.04-1.3Z"/><path class="m" d="M88.93,31.59c-.37-.35-.38-.93-.04-1.3,.19-.2,.44-.29,.69-.28,.4,.71,.43,1.28,.2,1.8-.3,.08-.62,0-.86-.22Z"/><path class="m" d="M82.65,38.25c-.37-.35-.38-.93-.04-1.3s.93-.38,1.3-.04c.13,.12,.21,.27,.25,.43-.27,.39-.52,.78-.76,1.14-.27,.04-.54-.04-.75-.24Z"/><path class="m" d="M80.09,39.62c.35-.37,.93-.38,1.3-.04,.24,.22,.33,.54,.27,.84-.5,.25-1.08,.25-1.81-.11-.01-.24,.07-.49,.25-.68Z"/></g><g><g><g><path class="p" d="M69.38,18.18c-1.4,.93,3.39,5.08,3.39,5.08,0,0-2-6.01-3.39-5.08Z"/><path class="p" d="M67.71,21.89c-.52,1,4.49,2.34,4.49,2.34,0,0-3.97-3.34-4.49-2.34Z"/></g><g><path class="p" d="M83.46,31.47c-.85,1.45-5.27-3.09-5.27-3.09,0,0,6.12,1.64,5.27,3.09Z"/><path class="p" d="M79.86,33.35c-.97,.58-2.6-4.35-2.6-4.35,0,0,3.57,3.77,2.6,4.35Z"/></g></g><rect class="f" x="72.43" y="23.4" width="5.5" height="5.5" rx="1.63" ry="1.63" transform="translate(4.57 62.88) rotate(-46.66)"/></g></g><path class="c" d="M16.48,79.66s2.59,5.39-.6,6.31-2.2-5.11-2.2-5.11c0,0,.83,5.08,1.81,1.94l.98-3.14Z"/><path class="c" d="M79.12,80s-2.59,5.39,.6,6.31c3.19,.92,2.2-5.11,2.2-5.11,0,0-.83,5.08-1.81,1.94l-.98-3.14Z"/></g></g></svg>