<?xml version="1.0" encoding="utf-8"?>
<!-- Generator: Adobe Illustrator 26.2.1, SVG Export Plug-In . SVG Version: 6.00 Build 0)  -->
<svg version="1.1" id="Layer_1" xmlns="http://www.w3.org/2000/svg" xmlns:xlink="http://www.w3.org/1999/xlink" x="0px" y="0px"
	 viewBox="0 0 213.8 222.3" style="enable-background:new 0 0 213.8 222.3;" xml:space="preserve">
<style type="text/css">
	.st0{opacity:0.5;enable-background:new    ;}
	.st1{fill:#FFFFFF;}
	.st2{fill:#CAE1E5;}
	.st3{fill:url(#SVGID_1_);}
	.st4{fill:#B55E23;}
	.st5{fill:url(#SVGID_00000036245560129625693610000012299476673192382646_);}
	.st6{fill:#DB9556;}
	.st7{fill:#ED8037;}
	.st8{fill:url(#SVGID_00000179626322624646867550000002444884163697083278_);}
	.st9{fill:#D87430;}
	.st10{fill:url(#SVGID_00000076592860286377130390000011104317349466473912_);}
	.st11{fill:url(#SVGID_00000101096322926274469530000011266352596909243536_);}
	.st12{fill:#AAE8F9;}
	.st13{fill:#CFF6FF;}
	.st14{fill:url(#SVGID_00000013878808422667460760000010101830243249509516_);}
	.st15{fill:url(#SVGID_00000134209216106304215140000002888979159397095563_);}
	.st16{fill:url(#SVGID_00000155114638354304459480000005837494559466810264_);}
	.st17{fill:#41C3D8;}
	.st18{opacity:0.35;fill:#FFFFFF;enable-background:new    ;}
</style>
<g>
	<g id="a">
		<g>
			<path class="st0" d="M210.8,115.4l-7.8-10.1c-0.9-1.1-2.1-1.9-3.4-2.3c-17.7-21.3-28-32.3-33.1-35.5
				c-9.1-5.8-16.3-10.7-19.8-13.2l0.3-2.5c0.2-1.9-0.7-3.8-2.3-4.8l-12.3-7.7c-0.8-0.5-1.7-0.8-2.7-0.8c-0.1,0-2.2,0-2.2,0
				c-6.1-4.9-8.9-5.7-10.9-5.8c-0.2,0-0.5,0-0.7,0c-0.4-2.6-1.7-5.1-3.8-6.9c-0.2-0.2-0.5-0.4-0.7-0.5c-0.8-0.6-1.1-1.1-1.1-1.2
				v-0.3c0-0.8-0.1-2.1,0-3.1l5.6-1.6c0.4,0,0.7,0.1,0.9,0.2c0,0.2,0.1,0.5,0.1,1.1c-0.1,3.4,2.5,6.3,5.9,6.4c0.1,0,0.2,0,0.2,0
				c3.3,0,6-2.6,6.2-5.9c0.4-8.5-4.8-13.8-13.7-14.2c0,0-0.1,0-0.2,0c-0.5,0-0.9,0-1.3,0c-5.4,0-9.3,1.4-12.1,4.2
				c-0.2,0.1-0.3,0.3-0.4,0.4c-3.7,4.1-3.5,9.2-3.4,12.9v0.4c0.1,3,1.3,5.9,3.4,8.3c-2,0.2-4.8,1.1-10.5,5.8c0,0-2,0-2.1,0
				c-0.9,0-1.9,0.3-2.7,0.8L74,47.1c-1.6,1-2.5,2.9-2.3,4.8l0.3,2.5c-3.5,2.5-10.7,7.4-19.8,13.2c-5.1,3.2-15.3,14.2-32.9,35.3
				c-1.2,0.4-2.3,1.1-3.2,2.1l-8,9.8c-0.3,0.3-0.5,0.7-0.7,1.1c-0.7,1.4-0.9,3-0.6,4.5c0,0,0,0,0,0c0.2,1.3,0.8,2.4,1.8,3.2
				c0.1,0.1,0.1,0.1,0.2,0.2c0.1,0,28.8,23.7,28.8,23.7c1.1,0.9,2.6,1.4,4,1.4c1.8,0,3.4-0.7,4.6-2l9.2-9.6c0.1-0.1,0.2-0.2,0.3-0.3
				L56,213c0,2.5,1.9,4.6,4.3,4.9c0.5,0.1,12.9,1.7,17.2,2.1c4.4,0.3,13.8,0.6,28.1,0.8h0.6c0.8,0,1.4,0,2,0c0.1,0,0.1,0,0.2,0
				c0,0,0.8,0,0.8,0c0.6,0,0.9,0,0.9,0l0,0c0.2,0,0.4,0,0.6,0l2.6-0.1c6.5-0.1,18.2-0.4,23.2-0.7c5.5-0.4,21.4-2.3,22.1-2.4
				c2.5-0.3,4.4-2.4,4.4-5l0-33.7l0-42l8.9,9.7c1.2,1.3,2.9,2.1,4.7,2.1c1.4,0,2.8-0.5,4-1.4l29.1-22.9
				C212.5,122.3,213,118.2,210.8,115.4L210.8,115.4z"/>
			<path class="st1" d="M205.8,110.4l-7.8-10.1c-0.9-1.1-2.1-1.9-3.4-2.3c-17.7-21.3-28-32.3-33.1-35.5
				c-9.1-5.8-16.3-10.7-19.8-13.2l0.3-2.5c0.2-1.9-0.7-3.8-2.3-4.8l-12.3-7.7c-0.8-0.5-1.7-0.8-2.7-0.8c-0.1,0-2.2,0-2.2,0
				c-6.1-4.9-8.9-5.7-10.9-5.8c-0.2,0-0.5,0-0.7,0c-0.4-2.6-1.7-5.1-3.8-6.9c-0.2-0.2-0.5-0.4-0.7-0.5c-0.8-0.6-1.1-1.1-1.1-1.2
				v-0.3c0-0.8-0.1-2.1,0-3.1l5.6-1.6c0.4,0.1,0.7,0.1,0.9,0.2c0,0.2,0.1,0.5,0.1,1.1c-0.1,3.4,2.5,6.3,5.9,6.4c0.1,0,0.2,0,0.2,0
				c3.3,0,6-2.6,6.2-5.9c0.3-8.5-4.8-13.8-13.7-14.2c0,0-0.1,0-0.2,0c-0.5,0-0.9,0-1.3,0c-5.4,0-9.3,1.4-12.1,4.2
				c-0.2,0.1-0.3,0.3-0.4,0.4c-3.7,4.1-3.5,9.2-3.4,12.9v0.4c0.1,3,1.3,5.9,3.4,8.3c-2,0.2-4.8,1.1-10.5,5.8c0,0-2,0-2.1,0
				c-0.9,0-1.9,0.3-2.7,0.8L69,42.1c-1.6,1-2.5,2.9-2.3,4.8l0.3,2.5c-3.5,2.5-10.7,7.4-19.8,13.2C42,65.8,31.8,76.7,14.2,97.9
				C13,98.3,11.8,99,11,100l-8,9.8c-0.3,0.3-0.5,0.7-0.7,1.1c-0.7,1.4-0.9,3-0.6,4.5c0,0,0,0,0,0c0.2,1.3,0.9,2.4,1.8,3.2
				c0.1,0.1,0.1,0.1,0.2,0.2c0,0,28.8,23.7,28.8,23.7c1.1,0.9,2.6,1.4,4,1.4c1.8,0,3.4-0.7,4.6-2l9.2-9.6c0.1-0.1,0.2-0.2,0.3-0.3
				L51,208c0,2.5,1.9,4.6,4.3,4.9c0.5,0.1,12.9,1.7,17.2,2.1c4.4,0.3,13.8,0.6,28.1,0.8h0.6c0.8,0,1.4,0,2,0c0.1,0,0.1,0,0.2,0
				c0,0,0.8,0,0.8,0c0.6,0,0.9,0,0.9,0l0,0c0.2,0,0.4,0,0.6,0l2.6-0.1c6.5-0.1,18.2-0.4,23.3-0.7c5.5-0.4,21.4-2.3,22.1-2.4
				c2.5-0.3,4.4-2.4,4.4-5l0-33.7l0-42l8.9,9.7c1.2,1.3,2.9,2.1,4.7,2.1c1.4,0,2.8-0.5,4-1.4l29.1-22.9
				C207.5,117.3,208,113.2,205.8,110.4L205.8,110.4z"/>
			<g>
				<g>
					<path class="st2" d="M119.2,15.6c0,0.7-0.6,1.2-1.2,1.2c-0.6,0-1.1-0.6-1.1-1.2c0.2-5.4-2.9-6.3-6.5-6.5c-0.1,0-0.2,0-0.2,0
						c-3.9-0.2-6.7,0.5-8.2,2c-0.2,0.2-0.4,0.4-0.5,0.6c-1.3,1.9-1.2,4.6-1.1,7.3v0.4c0.1,2.2,1.7,3.9,3.1,5
						c0.1,0.1,0.3,0.2,0.4,0.3c1.3,1.2,2.1,2.9,2.1,4.7V38c0,0.7-0.5,1.2-1.2,1.2s-1.2-0.5-1.2-1.2v-8.7c0-1.2-0.6-2.4-1.6-3.1
						c-0.1-0.1-0.2-0.2-0.4-0.3c-1.7-1.4-3.6-3.6-3.7-6.6V19c-0.1-3.2-0.2-6.9,2.1-9.5c0.1-0.1,0.1-0.2,0.2-0.2c2-2,5.2-2.9,9.8-2.7
						h0.1C116.4,6.9,119.4,9.9,119.2,15.6L119.2,15.6z"/>
					
						<linearGradient id="SVGID_1_" gradientUnits="userSpaceOnUse" x1="101.75" y1="192.105" x2="106.02" y2="192.105" gradientTransform="matrix(1 0 0 -1 0 224)">
						<stop  offset="0" style="stop-color:#AAE8F9"/>
						<stop  offset="0.35" style="stop-color:#ADE9F9"/>
						<stop  offset="0.65" style="stop-color:#B7EDFB"/>
						<stop  offset="0.93" style="stop-color:#C9F3FE"/>
						<stop  offset="1" style="stop-color:#CFF6FF"/>
					</linearGradient>
					<path class="st3" d="M106,29.3V38c0,0.7-0.5,1.2-1.2,1.2s-1.2-0.5-1.2-1.2v-8.7c0-1.2-0.6-2.4-1.6-3.1
						c-0.1-0.1-0.2-0.2-0.4-0.3c0.8-0.4,1.5-0.9,2.1-1.3C105.2,25.8,106,27.5,106,29.3L106,29.3z"/>
					<polygon class="st4" points="83.9,38.6 124.7,38.6 118.7,83 99.7,90.6 					"/>
					
						<linearGradient id="SVGID_00000159457582555473759570000000227747206645898640_" gradientUnits="userSpaceOnUse" x1="104.31" y1="166.39" x2="104.31" y2="191.2872" gradientTransform="matrix(1 0 0 -1 0 224)">
						<stop  offset="0" style="stop-color:#EFB378"/>
						<stop  offset="2.000000e-02" style="stop-color:#EFB376"/>
						<stop  offset="0.31" style="stop-color:#F8B564"/>
						<stop  offset="0.63" style="stop-color:#FDB65A"/>
						<stop  offset="0.99" style="stop-color:#FFB757"/>
					</linearGradient>
					<path style="fill:url(#SVGID_00000159457582555473759570000000227747206645898640_);" d="M111.3,32.8c-2.5-0.1-5.4,0.1-7.2,0.2
						c-1.8-0.2-4.6-0.4-7.1-0.2C92.9,33,82,43.9,82,43.9l7.5,13.7c0,0,4.6-6.1,14.4-5.2v0.2v-0.1c0.1,0,0.1,0,0.2,0
						c0.1,0,0.1,0,0.2,0v0.1v-0.2c10-0.9,14.7,5.2,14.7,5.2l7.7-13.7C126.6,43.9,115.5,33,111.3,32.8L111.3,32.8z"/>
					<path class="st6" d="M119,56.1c0,0-4.7-6.1-14.7-5.2v0.2v-0.1c-0.1,0-0.1,0-0.2,0c-0.1,0-0.1,0-0.2,0v0.1v-0.2
						c-9.8-0.9-14.4,5.2-14.4,5.2l-7-12.7c-0.3,0.3-0.5,0.5-0.5,0.5l7.5,13.7c0,0,4.6-6.1,14.4-5.2v0.2v-0.1c0.1,0,0.1,0,0.2,0
						c0.1,0,0.1,0,0.2,0v0.1v-0.2c10-0.9,14.7,5.2,14.7,5.2l7.7-13.7c0,0-0.2-0.2-0.6-0.5L119,56.1z"/>
					<path class="st7" d="M105.2,79.2v131.6c0,0-0.3,0-0.9,0h-0.2c-0.2,0-0.5,0-0.7,0c-0.7,0-1.6,0-2.7,0
						c-7.4-0.1-21.9-0.3-27.8-0.7c-4.2-0.3-16.9-2-16.9-2l-0.4-89.1c0-1.2-1.6-1.6-2.2-0.6l-7,8.2l-8.3,9.7c0,0-25.9-18.5-31.2-21.4
						c-0.1,0-0.1-0.1-0.2-0.1c0,0,0,0,0.1-0.1c0.2-0.2,0.6-0.7,1-1.2c1.7-2,4.9-5.9,8.8-10.7c10.7-12.9,27-32.1,33.2-36
						c12.5-7.9,21.4-14.3,22.4-15c0.1,0,0.1-0.1,0.1-0.1l-0.7-5.4l12.3-7.7c0.2,0.4,2.8,7.1,6.3,14.9c3.4,7.6,7.7,16.3,11.4,21.6
						c0.6,0.8,1.1,1.5,1.6,2.2c0.2,0.3,0.5,0.6,0.7,0.8c0.1,0.1,0.2,0.2,0.3,0.3C104.6,78.7,104.9,78.9,105.2,79.2L105.2,79.2z"/>
					
						<linearGradient id="SVGID_00000080174774983232641160000001306044363416227718_" gradientUnits="userSpaceOnUse" x1="6.5862" y1="120.7896" x2="47.1695" y2="120.7896">
						<stop  offset="0" style="stop-color:#AAE8F9"/>
						<stop  offset="0.35" style="stop-color:#ADE9F9"/>
						<stop  offset="0.65" style="stop-color:#B7EDFB"/>
						<stop  offset="0.93" style="stop-color:#C9F3FE"/>
						<stop  offset="1" style="stop-color:#CFF6FF"/>
					</linearGradient>
					<path style="fill:url(#SVGID_00000080174774983232641160000001306044363416227718_);" d="M46.8,128.9l-9.1,9.6
						c-0.5,0.5-1.3,0.6-1.9,0.1L7.1,115.1c-0.1-0.1-0.2-0.2-0.3-0.3c0-0.1-0.1-0.1-0.1-0.2c-0.2-0.4-0.2-1,0-1.4
						c0-0.1,0.1-0.2,0.1-0.2l8-9.9c0.4-0.5,1.1-0.7,1.7-0.4c0.1,0,0.2,0.1,0.2,0.2l16.6,13.3l12.8,10.3l0.3,0.2
						C47.3,127.3,47.4,128.3,46.8,128.9L46.8,128.9z"/>
					<path class="st7" d="M201.9,114.8c-1.2,0.6-3.5,2.2-6.5,4.1c-9.5,6.4-24.9,17.3-24.9,17.3l-8.5-10l-6.8-7.9
						c-0.6-1-2.2-0.6-2.2,0.6l0,55.1v24.7l0,8.9c0,0-16.4,2-21.8,2.4c-4.9,0.4-16.4,0.6-23,0.7c-1.2,0-2.3,0-3.1,0.1
						c-0.3,0-0.6,0-0.9,0h-0.2c-0.5,0-0.7,0-0.7,0V79.2c0.3-0.2,0.6-0.5,0.8-0.8c0,0,0,0,0.1,0c0.3-0.3,0.7-0.7,1-1.1
						c7.7-9.1,19.1-37.8,19.4-38.7l12.3,7.7l-0.7,5.4c0,0,0,0,0.1,0.1c1,0.8,9.9,7.2,22.4,15c6.2,3.9,22.7,23.3,33.4,36.3
						C197.2,109.1,201,113.7,201.9,114.8L201.9,114.8z"/>
					<path class="st9" d="M106.5,86.3c0,0,11.4-14.6,15.7-11.6s13.6,9,13.6,9l0.6-31.8l-13.3-5l-12.7,23.8l-7.4,9.3L106.5,86.3
						L106.5,86.3z"/>
					
						<linearGradient id="SVGID_00000044860931831352540810000018263128399361434019_" gradientUnits="userSpaceOnUse" x1="121.15" y1="146.69" x2="121.15" y2="185.4" gradientTransform="matrix(1 0 0 -1 0 224)">
						<stop  offset="0" style="stop-color:#AAE8F9"/>
						<stop  offset="0.35" style="stop-color:#ADE9F9"/>
						<stop  offset="0.65" style="stop-color:#B7EDFB"/>
						<stop  offset="0.93" style="stop-color:#C9F3FE"/>
						<stop  offset="1" style="stop-color:#CFF6FF"/>
					</linearGradient>
					<path style="fill:url(#SVGID_00000044860931831352540810000018263128399361434019_);" d="M137,46.3l-0.1,0.8l-0.5,4.7
						l-2.7,25.6l-14.9-12l-0.2-0.1l-13.4,12c7.7-9.1,18.9-37.4,19.4-38.7C124.7,38.6,137,46.3,137,46.3L137,46.3z"/>
					
						<linearGradient id="SVGID_00000006698751774580994020000009234439493704846743_" gradientUnits="userSpaceOnUse" x1="161.3034" y1="103.1854" x2="202.17" y2="103.1854" gradientTransform="matrix(1 0 0 -1 0 224)">
						<stop  offset="0" style="stop-color:#AAE8F9"/>
						<stop  offset="0.35" style="stop-color:#ADE9F9"/>
						<stop  offset="0.65" style="stop-color:#B7EDFB"/>
						<stop  offset="0.93" style="stop-color:#C9F3FE"/>
						<stop  offset="1" style="stop-color:#CFF6FF"/>
					</linearGradient>
					<path style="fill:url(#SVGID_00000006698751774580994020000009234439493704846743_);" d="M201.6,115.6l-4.8,3.8l-24.3,19.1
						c-0.6,0.5-1.4,0.4-1.9-0.1l-8.9-9.8c-0.6-0.6-0.5-1.7,0.2-2.2l0.1-0.1l16.7-12.8l13.4-10.2c0,0,0.1-0.1,0.1-0.1
						c0.6-0.4,1.4-0.2,1.8,0.3l7.8,10.1C202.4,114.1,202.2,115.1,201.6,115.6L201.6,115.6z"/>
					<path class="st12" d="M108.3,210.7c-1.2,0-2.3,0-3.1,0.1c0,0-0.3,0-0.9,0h-0.2c-0.5,0-0.7,0-0.7,0c-0.7,0-1.6,0-2.7-0.1
						c0.4-17.1,2.1-98.4,0.1-127.3c-0.4-5.6-0.9-9.2-1.6-10.1l2.1,1.2l0.4,0.5L104,78l0.2,0.3c0,0,0,0.1,0,0.1
						c0.3,0.6,0.6,1.1,0.9,1.7c1.5,2.9,2.7,6,2.9,9.2c0,0.3,0,0.5,0,0.8L108.3,210.7L108.3,210.7z"/>
					<path class="st9" d="M108.1,89.3c-0.9-0.7-1.9-1.5-2.9-2.3c-1.4-1.2-2.9-2.3-4.4-3.6c-4.4-3.5-8.7-6.9-10.8-8.6
						c-5.2-4-16.3,12.8-16.3,12.8s-1.5-35.4-1.5-35.9l18,1.7c3.4,7.6,7.7,16.3,11.4,21.6L104,78l0.2,0.3c0,0,0,0.1,0,0.1
						c0.3,0.6,0.6,1.1,0.9,1.7C106.7,82.9,107.9,86,108.1,89.3L108.1,89.3z"/>
					<polygon class="st13" points="105.5,76.9 118.7,65.2 133.7,77.3 118.7,63.9 					"/>
					
						<linearGradient id="SVGID_00000163038687346142096080000013862878902390293158_" gradientUnits="userSpaceOnUse" x1="105.31" y1="166.075" x2="124.69" y2="166.075" gradientTransform="matrix(1 0 0 -1 0 224)">
						<stop  offset="0" style="stop-color:#AAE8F9"/>
						<stop  offset="0.35" style="stop-color:#ADE9F9"/>
						<stop  offset="0.65" style="stop-color:#B7EDFB"/>
						<stop  offset="0.93" style="stop-color:#C9F3FE"/>
						<stop  offset="1" style="stop-color:#CFF6FF"/>
					</linearGradient>
					<path style="fill:url(#SVGID_00000163038687346142096080000013862878902390293158_);" d="M124.7,38.6
						c-0.2,0.7-4.2,19.6-5.9,26.7l-0.2-0.1l-13.4,12C113,68.2,124.2,39.8,124.7,38.6L124.7,38.6z"/>
					<path class="st9" d="M161.9,126.3l-6.6-8c-0.6-1-2.2-0.6-2.2,0.6l0,55.1c-2.4-20-6.4-52.1-8.1-62c-2.6-14.8-8.5-30.2,1.3-16.8
						C151.4,102.2,161.2,126.8,161.9,126.3z"/>
					
						<linearGradient id="SVGID_00000106137745184920584930000012992034844402440341_" gradientUnits="userSpaceOnUse" x1="87.47" y1="146.68" x2="87.47" y2="185.41" gradientTransform="matrix(1 0 0 -1 0 224)">
						<stop  offset="0" style="stop-color:#AAE8F9"/>
						<stop  offset="0.35" style="stop-color:#ADE9F9"/>
						<stop  offset="0.65" style="stop-color:#B7EDFB"/>
						<stop  offset="0.93" style="stop-color:#C9F3FE"/>
						<stop  offset="1" style="stop-color:#CFF6FF"/>
					</linearGradient>
					<path style="fill:url(#SVGID_00000106137745184920584930000012992034844402440341_);" d="M103.3,77.3l-1.6-1.4L90.6,65.8
						l-0.6-0.6l-15,12.1l-2.7-25.6l-0.5-4.7l-0.1-0.8l12.3-7.7c0.3,0.9,10.9,27.5,18.5,37.6C102.7,76.6,103,76.9,103.3,77.3
						L103.3,77.3z"/>
					<path class="st13" d="M74.9,77.3l15-12.1l13.4,12L89.9,63.8C89.9,63.8,77.7,73.8,74.9,77.3L74.9,77.3z"/>
					
						<linearGradient id="SVGID_00000088102843895624986740000001658996145535154328_" gradientUnits="userSpaceOnUse" x1="93.195" y1="147.82" x2="93.195" y2="185.43" gradientTransform="matrix(1 0 0 -1 0 224)">
						<stop  offset="0" style="stop-color:#AAE8F9"/>
						<stop  offset="0.35" style="stop-color:#ADE9F9"/>
						<stop  offset="0.65" style="stop-color:#B7EDFB"/>
						<stop  offset="0.93" style="stop-color:#C9F3FE"/>
						<stop  offset="1" style="stop-color:#CFF6FF"/>
					</linearGradient>
					<path style="fill:url(#SVGID_00000088102843895624986740000001658996145535154328_);" d="M102.5,76.2l-0.7-0.4L90.6,65.8
						l-6.6-27.2C84.2,39.5,94.8,66.1,102.5,76.2z"/>
					<ellipse class="st17" cx="105" cy="96.3" rx="2.2" ry="2.2"/>
					<ellipse class="st17" cx="105" cy="195.2" rx="2.2" ry="2.2"/>
					<ellipse class="st17" cx="104.9" cy="170.3" rx="2.2" ry="2.2"/>
					<ellipse class="st17" cx="104.9" cy="145.5" rx="2.2" ry="2.2"/>
					<ellipse class="st17" cx="104.9" cy="120" rx="2.2" ry="2.2"/>
					<path class="st17" d="M17.5,110.9c0,1.2-1,2.2-2.2,2.2s-2.2-1-2.2-2.2s1-2.2,2.2-2.2S17.5,109.7,17.5,110.9z"/>
					<path class="st18" d="M110.4,9l-8.9,2.6l-1.3-2.1c0.1-0.1,0.1-0.2,0.2-0.2c2-2,5.2-2.9,9.8-2.7L110.4,9L110.4,9z"/>
					<ellipse class="st17" cx="193.5" cy="110.6" rx="2.2" ry="2.2"/>
				</g>
				<path class="st9" d="M51.9,119.4l9.5-16.4c0,0-2.2,49-5.2,68.9L56,120.2C56,120.2,56.7,113.7,51.9,119.4L51.9,119.4z"/>
			</g>
		</g>
	</g>
</g>
</svg>
