<?xml version="1.0" encoding="UTF-8"?><svg id="a" xmlns="http://www.w3.org/2000/svg" viewBox="0 0 199.16 201.81"><defs><style>.b{fill:#653d1f;}.c{fill:#fff;}.d{opacity:.5;}.e{fill:#6c311d;}.f{fill:#7d4828;}.g{fill:#5b3320;}.h{fill:#190c0e;}.i{fill:#7b6046;}.j{fill:#a17153;}.k{fill:#5c3223;}</style></defs><path class="d" d="M105.88,199.61c-2.15,0-4.06-1.29-4.87-3.29-.02-.05-.04-.1-.06-.15-3.47-9.4-4.13-18.91-4.76-28.12-.41-5.93-.79-11.53-1.88-17.12-.83-4.28-1.91-8.28-2.94-12.15-1.56-5.83-3.08-11.48-3.68-17.59-11.78,14.9-26.23,29.7-43.83,44.9-.97,.93-2.25,1.45-3.6,1.45-1.81,0-3.46-.92-4.41-2.44-.17-.27-.33-.56-.44-.84-.7-1.73-.48-3.66,.6-5.16,.13-.18,.26-.34,.41-.5,3.07-3.29,6.34-6.6,9.5-9.8,7.48-7.57,15.22-15.4,21.07-23.79,1.68-2.41,3.28-4.88,4.83-7.27,1.54-2.38,3.11-4.8,4.79-7.21-3.98,.41-7.96,.53-11.88,.65-3.54,.11-6.88,.21-10.18,.51-5.18,.47-10.25,1.78-15.63,3.16-6.21,1.6-12.62,3.26-19.34,3.55-.1,0-.21,0-.3,0-1.63,0-3.11-.76-4.07-1.97-1.04-1.23-1.48-2.9-1.13-4.54,.47-2.19,2.29-3.83,4.51-4.09,.05,0,.1-.01,.15-.02,6.12-.53,11.88-2.62,17.98-4.83,3.17-1.15,6.42-2.33,9.79-3.3-13.84-3.25-24.77-7.18-34.8-12.44-.57-.3-1.08-.71-1.5-1.21-.32-.38-.56-.76-.74-1.14-.36-.72-.55-1.53-.54-2.36,0-1.35,.52-2.66,1.43-3.64,.98-1.05,2.36-1.65,3.8-1.65,.69,0,1.36,.13,2,.4,5.79,2.33,12.18,3.55,18.94,4.85,3.69,.71,7.5,1.44,11.2,2.37,8.28,2.08,16.43,3.99,24.63,4.67-.31-.81-.55-1.7-.69-2.65-.23-1.5,.21-3.03,1.2-4.2,1.01-1.19,2.48-1.88,4.04-1.88,.74,0,1.46,.15,2.13,.45,1.1-1.25,2.34-2.16,3.25-2.74,.3-.19,.75-.54,1.19-.89,.42-.33,.88-.69,1.38-1.05-.05-.1-.29-.55-.29-.55-.08-.15-.15-.31-.22-.47-.66-1.63-.46-3.48,.53-4.94,.99-1.47,2.63-2.35,4.39-2.35,.54,0,1.16,.1,1.67,.27,.89,.28,1.69,.64,2.42,1.06,.63-8.21,.05-16.55-.7-25.02-.35-3.84-.47-7.8-.59-11.62-.21-6.83-.41-13.29-1.79-19.29-.37-1.5-.02-3.14,.97-4.42,.98-1.25,2.5-2,4.09-2.02,.07,0,.14,0,.21,0,.12,0,.28,0,.4,.02,1.34,.1,2.58,.73,3.44,1.75,.01,.01,.15,.17,.16,.19,.4,.47,.7,1.02,.9,1.6,3.57,10.6,5.77,22.27,6.82,36.31,1.5-3.2,3.18-6.23,4.83-9.2,3.12-5.62,6.06-10.94,7.57-16.84,.55-2.37,2.64-4.06,5.1-4.06,1.69,0,3.3,.82,4.3,2.17,1.02,1.35,1.33,3.02,.89,4.57-1.36,6.49-3.96,12.47-6.48,18.25-2.22,5.09-4.31,9.9-5.58,14.94-.82,3.22-1.45,6.5-2.12,9.97-.74,3.84-1.49,7.75-2.51,11.6,2.85-1.38,5.71-2.64,8.53-3.88,2.41-1.06,4.9-2.15,7.34-3.31,9.06-4.32,18.01-10.74,26.66-16.95,3.67-2.63,7.47-5.36,11.19-7.85,.9-.64,1.97-.99,3.07-.99,1.34,0,2.62,.52,3.6,1.44,1.03,.93,1.64,2.23,1.7,3.64,.07,1.63-.6,3.17-1.85,4.24-17.89,15.07-34.83,27.05-51.45,36.33,5.89,1.54,11.17,3.91,16.62,6.35,3.69,1.65,7.51,3.36,11.68,4.88,5.33,1.93,10.78,3.2,16.56,4.54,8.99,2.08,18.28,4.24,27,9.12,2.08,1.11,3.15,3.45,2.63,5.76-.18,.78-.52,1.49-1,2.09-.93,1.55-2.61,2.54-4.47,2.54-.79,0-1.56-.18-2.29-.52-8.42-4.03-17.41-5.7-26.94-7.47-2.98-.55-6.06-1.12-9.13-1.77-2.99-.61-6.36-1.73-10.56-3.5-.34-.13-.68-.28-1.03-.42-.33-.14-.66-.27-.99-.4-.04-.02-.09-.04-.13-.05-1-.43-2-.87-3-1.31-1.49-.65-2.99-1.31-4.49-1.94,3.87,4.84,7.16,10.07,7.66,15.82,.29,3.52-.09,8.54-1.88,12.61,.78,2,1.7,4.15,2.78,6.5,.03,.07,.06,.14,.09,.21,.85,2.11,.26,4.52-1.47,5.99-1.03,.88-2.25,1.33-3.49,1.33-1.1,0-2.15-.34-3.05-.98-.06-.04-.12-.09-.18-.13-2.01-1.57-4.21-3.19-6.7-4.9-.15,0-.29,0-.44,0-7.79,0-15.75-5.57-20.5-9.84,.27,1.06,.55,2.12,.83,3.17l.29,1.09c.08,.23,.17,.54,.25,.92,0,0,.1,.36,.14,.5,.06,.22,.12,.44,.17,.67,.03,.11,.05,.23,.09,.34,.02,.07,.04,.14,.06,.21,.07,.27,.14,.54,.21,.8,.14,.51,.27,1,.38,1.5,1.06,4.47,1.6,7.8,1.74,10.71,.15,3.03,.22,6.06,.3,9,.25,9.78,.48,19.01,3.14,28.07,.02,.07,.04,.14,.06,.21,.39,1.58,.04,3.21-.95,4.48-.52,.67-1.19,1.19-1.93,1.53-.82,.51-1.78,.78-2.78,.78Z"/><path class="c" d="M100.88,194.61c-2.15,0-4.06-1.29-4.87-3.29-.02-.05-.04-.1-.06-.15-3.47-9.4-4.13-18.91-4.76-28.12-.41-5.93-.79-11.53-1.88-17.12-.83-4.28-1.91-8.28-2.94-12.15-1.56-5.83-3.08-11.48-3.68-17.59-11.78,14.9-26.23,29.7-43.83,44.9-.97,.93-2.25,1.45-3.6,1.45-1.81,0-3.46-.92-4.41-2.44-.17-.27-.33-.56-.44-.84-.7-1.73-.48-3.66,.6-5.16,.13-.18,.26-.34,.41-.5,3.07-3.29,6.34-6.6,9.5-9.8,7.48-7.57,15.22-15.4,21.07-23.79,1.68-2.41,3.28-4.88,4.83-7.27,1.54-2.38,3.11-4.8,4.79-7.21-3.98,.41-7.96,.53-11.88,.65-3.54,.11-6.88,.21-10.18,.51-5.18,.47-10.25,1.78-15.63,3.16-6.21,1.6-12.62,3.26-19.34,3.55-.1,0-.21,0-.3,0-1.63,0-3.11-.76-4.07-1.97-1.04-1.23-1.48-2.9-1.13-4.54,.47-2.19,2.29-3.83,4.51-4.09,.05,0,.1-.01,.15-.02,6.12-.53,11.88-2.62,17.98-4.83,3.17-1.15,6.42-2.33,9.79-3.3-13.84-3.25-24.77-7.18-34.8-12.44-.57-.3-1.08-.71-1.5-1.21-.32-.38-.56-.76-.74-1.14-.36-.72-.55-1.53-.54-2.36,0-1.35,.52-2.66,1.43-3.64,.98-1.05,2.36-1.65,3.8-1.65,.69,0,1.36,.13,2,.4,5.79,2.33,12.18,3.55,18.94,4.85,3.69,.71,7.5,1.44,11.2,2.37,8.28,2.08,16.43,3.99,24.63,4.67-.31-.81-.55-1.7-.69-2.65-.23-1.5,.21-3.03,1.2-4.2,1.01-1.19,2.48-1.88,4.04-1.88,.74,0,1.46,.15,2.13,.45,1.1-1.25,2.34-2.16,3.25-2.74,.3-.19,.75-.54,1.19-.89,.42-.33,.88-.69,1.38-1.05-.05-.1-.29-.55-.29-.55-.08-.15-.15-.31-.22-.47-.66-1.63-.46-3.48,.53-4.94,.99-1.47,2.63-2.35,4.39-2.35,.54,0,1.16,.1,1.67,.27,.89,.28,1.69,.64,2.42,1.06,.63-8.21,.05-16.55-.7-25.02-.35-3.84-.47-7.8-.59-11.62-.21-6.83-.41-13.29-1.79-19.29-.37-1.5-.02-3.14,.97-4.42,.98-1.25,2.5-2,4.09-2.02,.07,0,.14,0,.21,0,.12,0,.28,0,.4,.02,1.34,.1,2.58,.73,3.44,1.75,.01,.01,.15,.17,.16,.19,.4,.47,.7,1.02,.9,1.6,3.57,10.6,5.77,22.27,6.82,36.31,1.5-3.2,3.18-6.23,4.83-9.2,3.12-5.62,6.06-10.94,7.57-16.84,.55-2.37,2.64-4.06,5.1-4.06,1.69,0,3.3,.82,4.3,2.17,1.02,1.35,1.33,3.02,.89,4.57-1.36,6.49-3.96,12.47-6.48,18.25-2.22,5.09-4.31,9.9-5.58,14.94-.82,3.22-1.45,6.5-2.12,9.97-.74,3.84-1.49,7.75-2.51,11.6,2.85-1.38,5.71-2.64,8.53-3.88,2.41-1.06,4.9-2.15,7.34-3.31,9.06-4.32,18.01-10.74,26.66-16.95,3.67-2.63,7.47-5.36,11.19-7.85,.9-.64,1.97-.99,3.07-.99,1.34,0,2.62,.52,3.6,1.44,1.03,.93,1.64,2.23,1.7,3.64,.07,1.63-.6,3.17-1.85,4.24-17.89,15.07-34.83,27.05-51.45,36.33,5.89,1.54,11.17,3.91,16.62,6.35,3.69,1.65,7.51,3.36,11.68,4.88,5.33,1.93,10.78,3.2,16.56,4.54,8.99,2.08,18.28,4.24,27,9.12,2.08,1.11,3.15,3.45,2.63,5.76-.18,.78-.52,1.49-1,2.09-.93,1.55-2.61,2.54-4.47,2.54-.79,0-1.56-.18-2.29-.52-8.42-4.03-17.41-5.7-26.94-7.47-2.98-.55-6.06-1.12-9.13-1.77-2.99-.61-6.36-1.73-10.56-3.5-.34-.13-.68-.28-1.03-.42-.33-.14-.66-.27-.99-.4-.04-.02-.09-.04-.13-.05-1-.43-2-.87-3-1.31-1.49-.65-2.99-1.31-4.49-1.94,3.87,4.84,7.16,10.07,7.66,15.82,.29,3.52-.09,8.54-1.88,12.61,.78,2,1.7,4.15,2.78,6.5,.03,.07,.06,.14,.09,.21,.85,2.11,.26,4.52-1.47,5.99-1.03,.88-2.25,1.33-3.49,1.33-1.1,0-2.15-.34-3.05-.98-.06-.04-.12-.09-.18-.13-2.01-1.57-4.21-3.19-6.7-4.9-.15,0-.29,0-.44,0-7.79,0-15.75-5.57-20.5-9.84,.27,1.06,.55,2.12,.83,3.17l.29,1.09c.08,.23,.17,.54,.25,.92,0,0,.1,.36,.14,.5,.06,.22,.12,.44,.17,.67,.03,.11,.05,.23,.09,.34,.02,.07,.04,.14,.06,.21,.07,.27,.14,.54,.21,.8,.14,.51,.27,1,.38,1.5,1.06,4.47,1.6,7.8,1.74,10.71,.15,3.03,.22,6.06,.3,9,.25,9.78,.48,19.01,3.14,28.07,.02,.07,.04,.14,.06,.21,.39,1.58,.04,3.21-.95,4.48-.52,.67-1.19,1.19-1.93,1.53-.82,.51-1.78,.78-2.78,.78Z"/><g><path d="M98.81,93.71c.19-.07,.36-.11,.53-.15,0-.05-.02-.08,.01-.16,1.49-4.38,.14-7.55-3.31-10.24-1.66-1.3-3.82-1.77-5.49-2.96-1.64-1.16-3.13-2.61-4.56-4.05,1.88,2.91,3.45,6.05,5.82,8.59,2.62,2.84,5.32,5.41,6.99,8.96Zm1.67-5.34c.02,.38,0,.7,.03,1.03,.03-.02,.09-.07,.17-.04,16.54-.34,26.45,7.22,41.52,12.7,14.26,5.17,29.49,5.84,42.88,13.35,.34,.16,0,.65-.31,.46h-.05c.26,.18,.11,.66-.23,.49-11.8-5.65-24.5-6.93-37.19-9.62-3.04-.62-6.31-1.8-9.69-3.24,1.37,.54,2.77,1.01,4.2,1.39,14.39,3.8,29.01,4.39,42.62,10.81-13.35-7.35-28.29-7.97-42.42-13.1-14.15-5.16-25.64-12.99-41.39-12.72-.05,0-.08-.03-.13-.04,.02,1.09-.12,2.21-.55,3.48,2.8-.78,5.68-.23,8.42,1.1,9.93-1.49,18.25,4.38,27.16,8.23-8.89-3.82-18.33-8.48-26.2-7.75,4.34,2.38,8.27,6.46,10.82,9.81,3.52,4.13,8.08,9.83,8.58,15.54,.28,3.33-.2,8.66-2.4,11.85l.05,.06c1.09,2.99,2.35,5.93,3.69,8.86,.05,.11,0,.24-.08,.32l-.03,.02-.03,.02c-.09,.07-.2,.12-.33,.03-2.73-2.14-5.55-4.15-8.41-6.09l-.02-.03c-7.62,1.37-17.92-6.76-21.9-11.36-2.88-3.32-5.78-7.83-7.19-12.5-1.75,6.96,.84,16.11,3.12,24.86-2.46-8.6-6.12-17.18-3.48-25.81,0-.05,.06-.05,.06-.05-.72-2.9-.84-5.81-.02-8.57-1.12,.15-2.1,.13-3.01,0,.02,.03,.05,.06,.05,.11-2.81,15.55,3.14,28.12,5.98,42.87,2.87,14.73,1.12,29.64,6.27,43.98-4.19-14.46-2.47-28.99-3.95-43.8-.13-1.39-.38-2.74-.67-4.15,.83,3.51,1.49,6.87,1.63,9.86,.63,12.93-.06,25.67,3.63,38.24,.08,.33-.41,.4-.55,.12t.02,.08c.14,.34-.37,.57-.51,.23-5.33-14.44-3.53-29.58-6.42-44.45-3.04-15.64-8.93-26.84-6.02-43.04,.03-.08,.06-.1,.12-.15-.37-.08-.73-.08-1.04-.22t0,.05c-14.57,20.96-32.58,39.19-51.84,55.82-.12,.15-.31,.11-.38-.03l-.02-.03c-.05-.11-.06-.25,.03-.38,10.25-11.01,22.38-21.75,31.01-34.13,5.87-8.43,10.31-16.83,17.57-24.33-.17-.2-.33-.32-.45-.52l-.02-.03c-10.8,3.89-22.82,2.69-34.1,3.72-11.85,1.07-23.05,6.19-34.77,6.7-.14,.02-.19-.04-.21-.12-.21-.12-.21-.48,.07-.51,11.93-1.03,22.15-7.24,33.75-9.55,11.1-2.18,22.49-.9,33.49-3.96t.08,.03c-.18-.5-.38-.98-.56-1.48-10.52,3.45-21.27,.62-31.81-1.6-13.97-2.9-27.44-6.79-40.08-13.43-.05-.06-.07-.09-.07-.14l-.02-.03s-.02-.03-.02-.08c-.01-.19,.11-.4,.35-.3,9.64,3.88,20.7,4.9,30.8,7.43,13.1,3.29,25.65,6.1,39.18,4.71-.05-.11-.12-.2-.17-.31l-.03,.02c-3.93-1.42-8.23-3.53-8.88-8-.04-.22,.22-.44,.46-.29,.57,.37,1.1,.77,1.58,1.26,1.51,1.48,2.4,2.52,4.35,2.97-.27-.37-.52-.66-.74-.98-1.95-2.46,.65-5.07,2.7-6.37,1.77-1.11,4.03-3.58,6.27-3.54,.11,0,.16,.07,.21,.12,.25,.29,.53,.56,.83,.85-.17-2.02-1.06-3.01-2.28-4.74-.39-.57-.67-1.14-1-1.76-.09-.22,.15-.48,.36-.41,4.34,1.37,5.73,5.96,6.52,10.01,0,.05-.03,.08-.03,.08,.07,.09,.18,.15,.26,.18,3.51-13.09,2.74-26,1.56-39.4-.94-10.35-.16-21.51-2.48-31.59-.06-.25,.19-.36,.35-.3t.08-.02l.02,.03,.1,.12c4.56,13.54,6.3,27.47,6.97,41.68,.5,10.77,1.63,21.87-3.46,31.69,.47,.25,.94,.51,1.4,.76,0,0-.02-.03,0-.05,4.7-10.39,5.23-21.84,9.17-32.48,4.11-11.09,11.82-20.18,14.75-31.77,.05-.29,.4-.24,.52-.04,.05,.06,.12,.15,.06,.25-2.32,11.53-9.18,21.74-12.08,33.31-2.8,10.97-3.53,23.01-9.05,33.03l.02,.03c.2,.18,.27,.37,.45,.52,8.47-5.92,17.56-9.1,26.79-13.46,13.5-6.44,26.23-16.95,38.6-25.24,.15-.12,.28-.09,.38,.03,.13,.09,.14,.28,0,.41-19.46,16.4-40.3,31.31-63.33,42.36Zm28.73,52c-1.18-2.56-2.28-5.14-3.26-7.77-.27,.33-.51,.64-.83,.91-.96,.82-2.01,1.36-3.14,1.68,2.44,1.68,4.85,3.39,7.23,5.18Zm-4.46-7.29c3.97-3.24,3.66-12.97,2.11-16.97-1.6-4.11-4.27-7.66-7.12-11-5.38-7.01-18.45-18.22-25.54-6.39-5.28,8.82-.45,17.96,5.54,24.86,4.57,5.3,17.78,15.43,25.03,9.5Zm-84.72,19.57c8.69-7.71,17.05-15.75,24.94-24.29,7.86-8.51,15.21-17.5,21.83-27.06-.99-.46-1.9-1.29-2.77-2.31-8.47,8.73-13.25,19.04-20.71,28.36-7.05,8.87-15.34,17.05-23.29,25.29Zm60.23-64.78c21-10.13,40.19-23.43,58.2-38.18-9.47,6.57-18.87,13.38-28.76,19.11-10.34,5.96-21.32,8.99-31.27,15.92,.89,1.05,1.52,2.07,1.84,3.15Zm-8.31,13.46c.11-.4,.3-.76,.47-1.16-8.69-1.53-9.86-11.68-16.08-16.38,1.65,2.11,3.26,4.35,4.43,6.72,.94,1.86,1.06,4.02,2.11,5.89,2.01,3.66,4.8,5.5,9.07,4.92Zm.73-1.68c.42-.86,1-1.71,1.72-2.52-3.33-2.13-5.47-5.23-8.05-8.2-2.91-3.29-5.94-6.49-8.73-9.94-.4,.29-.78,.62-1.12,1.1-.37,.62-.66,1.82-.54,2.72,6.91,4.45,7.64,15.38,16.72,16.83Zm2.08-2.98l.02,.03c.15-.18,.27-.33,.45-.53l.12-.1c-6.65-4.97-9.21-13.39-15.74-18.27l-.07-.09c-.29,.19-.57,.39-.89,.61-.2,.12-.34,.24-.54,.36,2.37,2.95,4.94,5.73,7.48,8.54,2.94,3.27,5.4,7.04,9.17,9.46Zm1.03-.98c.84-.72,1.65-1.31,2.5-1.73-1.81-3.88-4.86-6.4-7.56-9.57-2.46-2.88-3.96-6.41-6.16-9.46-.02-.03-.02-.08-.05-.11-1.61,.12-3.25,1.67-4.49,2.57,6.52,4.94,9.02,13.35,15.76,18.3Zm-12.88,1.8c-.55-.88-.92-1.78-1.25-2.7-.03,.02-.09,.07-.14,.07-11.03,3.03-22.37,1.75-33.49,3.96-8.81,1.74-16.72,5.67-25.22,7.95,8.73-1.67,17.3-4.81,26.2-5.62,11.22-1.03,23.13,.21,33.9-3.65Zm11.74-15.79c.86,.47,1.68,.97,2.47,1.66,5.48-10,6.16-21.93,8.95-32.85,2.21-8.66,6.66-16.68,9.71-25.01-3.59,8.04-8.75,15.25-11.88,23.64-3.93,10.64-4.44,22.07-9.17,32.48l-.09,.07Zm-13.91,10.61s-.02-.08-.05-.11c-.23-.56-.62-1.38-1.15-2.29-10.83,1.15-21.32-.2-31.88-2.75-10.88-2.57-22.64-4.05-33.43-7.51,8.84,4.12,17.98,7.12,27.5,9.39,12.08,2.86,26.69,7.32,38.99,3.26Zm11.47-11.94c.05,0,.08,.03,.1,.06,5.96-11.51,3.88-26.67,2.94-39.02-.74-9.76-2.27-19.26-4.91-28.61,1.72,11.14,1.34,23.07,2.17,34.17,.77,10.85,.49,21.43-2.35,31.94,.74,.57,1.43,1.09,2.05,1.46Zm-13.54,7.98c-.55-.88-1.11-1.77-1.64-2.57-1.21-.18-2.4-.46-3.34-1.27-1.02-.84-1.75-1.82-2.72-2.66,.97,3.44,4.43,5.26,7.7,6.49Zm7.8-12.58c.7,.71,1.49,1.39,2.28,2.02-.7-3.42-1.93-7.15-5.22-8.66,.67,1.08,1.55,1.99,2.22,3.08,.64,1.11,.74,2.34,.72,3.55Z"/><path class="f" d="M97.1,145.06c1.48,14.81-.24,29.34,3.95,43.8-5.15-14.34-3.4-29.25-6.27-43.98-2.84-14.76-8.78-27.32-5.98-42.87,0-.05-.02-.08-.05-.11,.91,.13,1.89,.15,3.01,0-.82,2.75-.69,5.66,.02,8.57,0,0-.05,0-.06,.05-2.64,8.63,1.02,17.21,3.48,25.81,.07,.19,.13,.39,.17,.61,.06,.25,.13,.44,.19,.69,.11,.36,.18,.75,.29,1.11,.18,.75,.4,1.47,.56,2.19,.3,1.41,.54,2.75,.67,4.15Z"/><path class="f" d="M184.44,115.72c-13.61-6.42-28.23-7.01-42.62-10.81-1.43-.38-2.83-.85-4.2-1.39-.68-.27-1.39-.57-2.07-.84-8.91-3.85-17.23-9.72-27.16-8.23-2.74-1.33-5.62-1.88-8.42-1.1,.43-1.27,.57-2.39,.55-3.48,.05,0,.08,.03,.13,.04,15.74-.27,27.24,7.56,41.39,12.72,14.12,5.13,29.06,5.75,42.42,13.1Z"/><path class="h" d="M125.95,132.6c.98,2.63,2.08,5.21,3.26,7.77-2.38-1.79-4.79-3.5-7.23-5.18,1.14-.32,2.18-.86,3.14-1.68,.32-.27,.56-.58,.83-.91Z"/><path class="k" d="M126.85,116.11c1.55,4,1.86,13.73-2.11,16.97-7.25,5.93-20.46-4.2-25.03-9.5-5.99-6.9-10.82-16.04-5.54-24.86,7.09-11.83,20.16-.62,25.54,6.39,2.85,3.34,5.53,6.89,7.12,11Z"/><path class="i" d="M64.97,128.36c-7.89,8.54-16.25,16.57-24.94,24.29,7.95-8.23,16.24-16.41,23.29-25.29,7.46-9.33,12.24-19.63,20.71-28.36,.87,1.02,1.78,1.85,2.77,2.31-6.61,9.56-13.97,18.54-21.83,27.06Z"/><path class="i" d="M158.45,49.68c-18.01,14.75-37.2,28.06-58.2,38.18-.32-1.08-.94-2.11-1.84-3.15,9.96-6.94,20.93-9.97,31.27-15.92,9.89-5.72,19.29-12.54,28.76-19.11Z"/><path class="j" d="M92.42,100.17c-.17,.39-.36,.76-.47,1.16-4.28,.58-7.06-1.27-9.07-4.92-1.04-1.87-1.17-4.02-2.11-5.89-1.17-2.37-2.78-4.61-4.43-6.72,6.21,4.7,7.39,14.85,16.08,16.38Z"/><path class="j" d="M99.34,93.57c-.17,.04-.33,.08-.53,.15-1.67-3.55-4.37-6.12-6.99-8.96-2.37-2.55-3.94-5.68-5.82-8.59,1.43,1.44,2.92,2.89,4.56,4.05,1.67,1.19,3.83,1.66,5.49,2.96,3.45,2.69,4.79,5.86,3.31,10.24-.03,.08,0,.11-.01,.16Z"/><path class="h" d="M94.39,97.13c-.71,.81-1.3,1.66-1.72,2.52-9.07-1.45-9.81-12.38-16.72-16.83-.12-.9,.17-2.1,.54-2.72,.34-.49,.72-.81,1.12-1.1,2.79,3.45,5.82,6.64,8.73,9.94,2.58,2.97,4.72,6.07,8.05,8.2Z"/><path class="g" d="M94.78,96.7l-.02-.03c-3.77-2.41-6.23-6.19-9.17-9.46-2.54-2.8-5.11-5.58-7.48-8.54,.2-.12,.34-.24,.54-.36,.32-.22,.6-.41,.89-.61l.07,.09c6.53,4.88,9.08,13.3,15.74,18.27l-.12,.1c-.18,.2-.3,.36-.45,.53Z"/><path class="h" d="M98.28,93.97c-.85,.42-1.65,1.01-2.5,1.73-6.74-4.95-9.24-13.37-15.76-18.3,1.24-.9,2.88-2.46,4.49-2.57,.02,.03,.02,.08,.05,.11,2.2,3.05,3.71,6.58,6.16,9.46,2.7,3.17,5.76,5.69,7.56,9.57Z"/><path class="b" d="M81.65,94.79c.33,.92,.7,1.82,1.25,2.7-10.77,3.86-22.68,2.62-33.9,3.65-8.9,.81-17.47,3.95-26.2,5.62,8.5-2.28,16.41-6.21,25.22-7.95,11.13-2.21,22.47-.93,33.49-3.96,.05,0,.11-.05,.14-.07Z"/><path class="b" d="M97.11,83.36c-.79-.69-1.61-1.19-2.47-1.66l.09-.07c4.73-10.41,5.23-21.84,9.17-32.48,3.13-8.4,8.29-15.61,11.88-23.64-3.05,8.32-7.51,16.35-9.71,25.01-2.79,10.92-3.47,22.85-8.95,32.85Z"/><path class="e" d="M80.69,92.19s.02,.08,.05,.11c-12.3,4.07-26.91-.4-38.99-3.26-9.52-2.27-18.67-5.28-27.5-9.39,10.79,3.46,22.54,4.93,33.43,7.51,10.56,2.55,21.05,3.89,31.88,2.75,.52,.91,.92,1.73,1.15,2.29Z"/><path class="e" d="M92.3,80.43s-.05-.06-.1-.06c-.62-.37-1.31-.89-2.05-1.46,2.84-10.51,3.11-21.09,2.35-31.94-.83-11.1-.45-23.02-2.17-34.17,2.65,9.35,4.17,18.85,4.91,28.61,.94,12.36,3.02,27.51-2.94,39.02Z"/><path class="h" d="M77.02,85.78c.53,.8,1.09,1.69,1.64,2.57-3.26-1.23-6.72-3.05-7.7-6.49,.96,.84,1.7,1.82,2.72,2.66,.94,.81,2.14,1.09,3.34,1.27Z"/><path class="h" d="M88.75,77.79c-.79-.63-1.58-1.32-2.28-2.02,.02-1.22-.08-2.45-.72-3.55-.67-1.08-1.55-1.99-2.22-3.08,3.3,1.51,4.52,5.24,5.22,8.66Z"/></g></svg>