<?xml version="1.0" encoding="utf-8"?>
<!-- Generator: Adobe Illustrator 26.2.1, SVG Export Plug-In . SVG Version: 6.00 Build 0)  -->
<svg version="1.1" id="a" xmlns="http://www.w3.org/2000/svg" xmlns:xlink="http://www.w3.org/1999/xlink" x="0px" y="0px"
	 viewBox="0 0 235.6 296.3" style="enable-background:new 0 0 235.6 296.3;" xml:space="preserve">
<style type="text/css">
	.st0{opacity:0.5;}
	.st1{fill:#FFFFFF;}
	.st2{fill:#21110E;}
	.st3{fill:#FF6A14;}
	.st4{fill:#EB4600;}
	.st5{fill:#F54F08;}
	.st6{fill:#D64000;}
	.st7{fill:#E02D00;}
	.st8{fill:#B3560E;}
	.st9{fill:#B5580D;}
	.st10{fill:#A63200;}
	.st11{fill:#B3580D;}
	.st12{fill:#BA5D11;}
	.st13{fill:#C26112;}
	.st14{fill:#852D08;}
	.st15{fill:#D46E1A;}
	.st16{fill:#C76414;}
	.st17{fill:#A14310;}
	.st18{fill:#993D0C;}
	.st19{fill:#AB3000;}
	.st20{fill:#913109;}
	.st21{fill:#9E240B;}
	.st22{fill:#331C17;}
	.st23{fill:#241512;}
	.st24{fill:#BA5B0D;}
	.st25{fill:#331D18;}
	.st26{fill:#941600;}
	.st27{fill:#590900;}
	.st28{fill:#BD3B07;}
	.st29{fill:#D96B11;}
	.st30{fill:#C42100;}
	.st31{fill:#54190A;}
	.st32{fill:#6B4913;}
	.st33{fill:#8F3A15;}
	.st34{fill:#994500;}
	.st35{fill:#AD4B05;}
	.st36{fill:#942C00;}
</style>
<path class="st0" d="M101.9,294.5c-7,0-51.9-6.9-70.7-13.4c-0.5,0.7-1.1,1.2-1.7,1.7c-1.9,2.8-4.3,3.3-5.7,3.3c-0.4,0-0.8,0-1.2-0.1
	c-1.1,0.6-2.2,0.8-3.1,0.8c-1.1,0-2.7-0.3-4.2-1.5c-2.2-0.5-3.5-1.6-4.3-2.5c-0.9-1-1.9-2.8-1.8-5.4c-2.5-14.6-1.6-19.8,0.5-22.7
	c1.9-2.9,4.5-7.1,6.7-10.5c-0.2-0.7-0.2-1.5-0.1-2.3c0.1-1,0.7-3.6,3.5-5.5c0.3-1.3,1-2.4,2-3.3c-0.2-1.1-0.1-2.2,0.3-3.2
	c0.5-1.2,1.2-2.1,2.2-2.8c0.1-0.7,0.3-1.5,0.7-2.1c0.4-0.7,0.9-1.4,1.6-1.9c2.9-7.3,6.7-16.7,9.8-23.1c0.5-1.1,1-2.2,1.6-3.3
	c1.3-2.6,2.3-4.1,3.2-5.1l0.2-0.2c0.5-0.7,1.4-1.7,2.3-2.4c2.7-2.8,5.6-6,6.5-8.3c0.3-0.8,1.2-4.5,2.2-8.4
	c2.9-11.7,7.6-30.9,11.6-39.9c0-1.5,0-4.3,0-8.1c0.1-8.9,5.6-11.8,9.3-13.7c3-1.6,4.4-2.4,5-5.2l9.2-41.7C87,62,86.8,60.4,86.7,59
	C86,51.2,91,44.7,94.9,40.9c0.1-1.6,0.8-3,1.9-4c0.1-3.2,1.7-6,4.2-7.8c1.4-5,5.4-8.9,10.4-10.1c0.7-2.5,2.7-4.5,6-5.9
	c0.3-0.1,0.7-0.2,1-0.3c0.4-0.1,0.8-0.1,1.1-0.2c-0.1-1,0.1-2,0.5-2.9c0.9-1.7,2.6-2.7,4.4-2.7c0.5,0,1,0.1,1.5,0.2
	c1.7,0.5,7,2.2,7.9,6.9c0.3,1.6,0.2,3.7-1.6,6c3.7,1.9,6.5,5.2,7.6,9.4c2.1,1.7,3.5,4.2,3.8,7c1.6,1.1,2.6,2.9,2.6,5
	c0,0.2,0,0.3,0,0.4c3.7,3.9,8,10,7.4,17.3c-0.1,1.1-0.2,2.3-0.4,3.5l9.4,42.7c0.6,2.8,2,3.7,5,5.2c3.7,1.9,9.2,4.8,9.3,13.7
	c0,3.7,0,6.5,0,8c3.7,8,7.9,24.3,11.8,40.3c1,3.9,1.9,7.6,2.2,8.4c0.8,2.4,3.8,5.5,6.4,8.3c0.5,0.4,1.3,1.2,2.3,2.4l0.2,0.2
	c0.9,1,1.9,2.6,3.3,5.2c0.5,1,1.1,2.1,1.6,3.2c3,6.5,6.9,15.8,9.8,23.2c0.6,0.5,1.2,1.1,1.6,1.9c0.4,0.7,0.6,1.4,0.7,2.1
	c1,0.7,1.8,1.6,2.2,2.8c0.4,1.1,0.5,2.2,0.3,3.2c1,0.8,1.7,2,2,3.3c2.3,1.6,3.1,3.6,3.3,4.6c0.2,0.9,0.2,1.8,0.1,2.7
	c0.2,0.5,0.5,1,0.7,1.6c2,3.2,4.3,6.8,6,9.3c2.1,2.9,3,8,0.5,22.7c0.1,2.6-0.9,4.3-1.8,5.4c-0.8,0.9-2.1,2-4.3,2.5
	c-1.5,1.2-3.1,1.5-4.2,1.5l0,0c-0.9,0-2-0.2-3.1-0.8c-0.4,0.1-0.8,0.1-1.2,0.1c-1.4,0-3.9-0.5-5.7-3.3c-0.2-0.1-0.4-0.3-0.6-0.5
	c-3.4,0.6-9.5,1.8-16.6,3.1c-20.7,4.6-47.9,8.7-53.4,8.7c-0.5,0-1,0-1.4-0.1c-0.7-0.1-3.4-0.4-13.1-0.5c-0.2,0-0.3,0-0.5,0
	c-7.1,0-19.4,0.2-22.2,0.6C102.9,294.5,102.5,294.5,101.9,294.5L101.9,294.5z M79.5,181.9c-2.8,4.6-4.5,8.4-5.2,11
	c-2.5,10.6-7.6,18.1-10.3,22.2c-0.2,0.2-0.4,0.6-0.8,1.1c2.9-0.8,7-1.8,10.3-2.6c-0.1-1.1-0.1-2.4-0.1-3.9c0-2.9,1.4-6.8,7.6-9.7
	v-10C81.1,188.2,80.9,185.6,79.5,181.9L79.5,181.9z M168.7,213.4c2.4,0.6,5.3,1.3,7.8,1.9l0,0c-2.7-4-7.8-11.6-10.3-22.2
	c-0.6-2.7-2.6-6.8-5.6-11.7c-0.2,0.3-0.4,0.5-0.7,0.7c-1.3,3.6-1.5,6.1-1.5,7.8v8.7c5.2,1.8,8.4,4.3,9.8,7.6
	c0.1,0.3,0.2,0.5,0.3,0.8c0.2,0.8,0.4,1.6,0.4,2.4C168.9,211,168.8,212.3,168.7,213.4L168.7,213.4z"/>
<path class="st1" d="M96.9,289.5c-7,0-51.9-6.9-70.7-13.4c-0.5,0.7-1.1,1.2-1.7,1.7c-1.9,2.8-4.3,3.3-5.7,3.3c-0.4,0-0.8,0-1.2-0.1
	c-1.1,0.6-2.2,0.8-3.1,0.8c-1.1,0-2.7-0.3-4.2-1.5c-2.2-0.5-3.5-1.6-4.3-2.5C5,276.8,4,275,4,272.4c-2.5-14.6-1.6-19.8,0.5-22.7
	c1.9-2.9,4.5-7.1,6.7-10.5c-0.2-0.7-0.2-1.5-0.1-2.3c0.1-1,0.7-3.6,3.5-5.5c0.3-1.3,1-2.4,2-3.3c-0.2-1.1-0.1-2.2,0.3-3.2
	c0.5-1.2,1.2-2.1,2.2-2.8c0.1-0.7,0.3-1.5,0.7-2.1c0.4-0.7,0.9-1.4,1.6-1.9c2.9-7.3,6.7-16.7,9.8-23.1c0.5-1.1,1-2.2,1.6-3.3
	c1.3-2.6,2.3-4.1,3.2-5.1l0.2-0.2c0.5-0.7,1.4-1.7,2.3-2.4c2.7-2.8,5.6-6,6.5-8.3c0.3-0.8,1.2-4.5,2.2-8.4
	c2.9-11.7,7.6-30.9,11.6-39.9c0-1.5,0-4.3,0-8.1c0.1-8.9,5.6-11.8,9.3-13.7c3-1.6,4.4-2.4,5-5.2l9.2-41.7C82,57,81.8,55.4,81.7,54
	C81,46.2,86,39.7,89.9,35.9c0.1-1.6,0.8-3,1.9-4c0.1-3.2,1.7-6,4.2-7.8c1.4-5,5.4-8.9,10.4-10.1c0.7-2.6,2.7-4.5,6-5.9
	c0.3-0.1,0.7-0.2,1-0.3c0.4-0.1,0.8-0.2,1.1-0.2c-0.1-1,0.1-2,0.5-2.9c0.9-1.7,2.6-2.7,4.4-2.7c0.5,0,1,0.1,1.5,0.2
	c1.7,0.5,7,2.2,7.9,6.9c0.3,1.6,0.2,3.7-1.6,6c3.7,1.9,6.5,5.2,7.6,9.4c2.1,1.7,3.5,4.2,3.8,7c1.6,1.1,2.6,2.9,2.6,5
	c0,0.2,0,0.3,0,0.4c3.7,3.9,8,10,7.4,17.3c-0.1,1.1-0.2,2.3-0.4,3.5l9.4,42.7c0.6,2.8,2,3.7,5,5.2c3.7,1.9,9.2,4.8,9.3,13.7
	c0,3.7,0,6.5,0,8c3.7,8,7.9,24.3,11.8,40.3c1,3.9,1.9,7.6,2.2,8.4c0.8,2.4,3.8,5.5,6.4,8.3c0.5,0.4,1.3,1.2,2.3,2.4l0.2,0.2
	c0.9,1,1.9,2.6,3.3,5.2c0.5,1,1.1,2.1,1.6,3.2c3,6.5,6.9,15.8,9.8,23.2c0.6,0.5,1.2,1.1,1.6,1.9c0.4,0.7,0.6,1.4,0.7,2.1
	c1,0.7,1.8,1.6,2.2,2.8c0.4,1.1,0.5,2.2,0.3,3.2c1,0.8,1.7,2,2,3.3c2.3,1.6,3.1,3.6,3.3,4.6c0.2,0.9,0.2,1.8,0.1,2.7
	c0.2,0.5,0.5,1,0.7,1.6c2,3.2,4.3,6.8,6,9.3c2.1,2.9,3,8,0.5,22.7c0.1,2.6-0.9,4.3-1.8,5.4c-0.8,0.9-2.1,2-4.3,2.5
	c-1.5,1.2-3.1,1.5-4.2,1.5l0,0c-0.9,0-2-0.2-3.1-0.8c-0.4,0.1-0.8,0.1-1.2,0.1c-1.4,0-3.9-0.5-5.7-3.3c-0.2-0.1-0.4-0.3-0.6-0.5
	c-3.4,0.6-9.5,1.8-16.6,3.1c-20.7,4.6-47.9,8.7-53.4,8.7c-0.5,0-1,0-1.4-0.1c-0.7-0.1-3.4-0.4-13.1-0.5c-0.2,0-0.3,0-0.5,0
	c-7.1,0-19.4,0.2-22.2,0.6C97.9,289.5,97.5,289.5,96.9,289.5L96.9,289.5z M74.5,176.9c-2.8,4.6-4.5,8.4-5.2,11
	c-2.5,10.6-7.6,18.1-10.3,22.2c-0.2,0.2-0.4,0.6-0.8,1.1c2.9-0.8,7-1.8,10.3-2.6c-0.1-1.1-0.1-2.4-0.1-3.9c0-2.9,1.4-6.8,7.6-9.7
	v-10C76.1,183.2,75.9,180.6,74.5,176.9L74.5,176.9z M163.7,208.4c2.4,0.6,5.3,1.3,7.8,1.9l0,0c-2.7-4-7.8-11.6-10.3-22.2
	c-0.6-2.7-2.6-6.8-5.6-11.7c-0.2,0.3-0.4,0.5-0.7,0.7c-1.3,3.6-1.5,6.1-1.5,7.8v8.7c5.2,1.8,8.4,4.3,9.8,7.6
	c0.1,0.3,0.2,0.5,0.3,0.8c0.2,0.8,0.4,1.6,0.4,2.4C163.9,206,163.8,207.3,163.7,208.4L163.7,208.4z"/>
<g>
	<path class="st2" d="M137.3,50.3l5.1,5.5l10,45.5c2.4,10.9,14.1,6.5,14.2,17.8c0.1,5.8,0,9.2,0,9.2H116v0.1H63.7c0,0,0-3.4,0-9.2
		c0.1-11.3,11.8-6.9,14.2-17.8l10-45.5l5.1-5.5l22,6.8L137.3,50.3L137.3,50.3z"/>
	<path class="st3" d="M85.9,197.1c0,0-12.4,2-12.4,7.4s0.7,7.8,0.7,7.8s-14.8,3.4-17.3,4.4c-2.5,1-3.9,6.4-3.9,6.4
		s-30.4,10.5-34.6,16.6s-4.2,21.7,2.8,28.4c7.1,6.8,72.1,16.9,76.3,16.2c4.2-0.7,23-0.7,23-0.7v0c5.5,0.1,12.1,0.2,14.4,0.6
		c4.2,0.7,69.2-9.5,76.3-16.2c7.1-6.8,7.1-22.3,2.8-28.4c-4.2-6.1-34.6-16.6-34.6-16.6s-1.4-5.4-3.9-6.4c-2.5-1-17.3-4.4-17.3-4.4
		s0.7-2.4,0.7-7.8s-12.4-7.4-12.4-7.4l-30.5,7L85.9,197.1L85.9,197.1z"/>
	<path class="st4" d="M110.7,256.7c0,0,40.5,12.9,53.8,14.7c13.3,1.8,17.4-2.3,16.9-4.7c-0.5-2.3-8.4-9.3-4.3-9.5s15.8,6.8,17.2,5.6
		s-0.2-7.2,1.6-5.6c1.8,1.6,4.3,6.3,5.2,5s-2.6-16.1-2.6-16.1l9.6,3.6l-0.4,22.5c0,0-53,9.9-65.9,11.7
		C128.8,285.6,92.9,267.4,110.7,256.7z"/>
	<path class="st5" d="M85.8,219.7c15,12.7,22.2,13.9,21.7,3.7c-5.1,0.5-9.6-1-13.4-4.3c-11.1-10.6-16.4-15.4-15.9-14.2
		c-3.1-0.6-4.4,1.8-3.9,7.4c-38.2,18.1-56.4,30.5-54.5,37c-1.7,14.8,7.4,22.6,27.2,23.3c-3.8-5.9-5.3-12.6-4.7-20.1
		c4.6,16.5,15,25.1,31.2,25.8c-4.9-11.9-3.1-16.5,5.4-13.6c17.9,11.4,34.4,17.2,49.5,17.4c-26.8-11.8-41.3-23.2-43.5-34.4
		C82.9,234.9,83.2,225.6,85.8,219.7L85.8,219.7z"/>
	<path class="st6" d="M52.4,255.6c0,0-2-7-0.2-10.8S37.7,243,37.7,243s36.2-27.8,36.9-25.3c0.7,2.5,2.9,8.6,4.5,7.2
		c1.6-1.4,2.2-4.1,2.2-4.1l2.7,10.6c0,0-2.5,13.1-2.9,18.3c-0.4,5.2,4.1,12.2,4.1,12.2s-9-6.8-16.1-9.5S52.4,255.6,52.4,255.6
		L52.4,255.6z"/>
	<path class="st7" d="M83.9,231.4c-3.1-14.8,1.8-15.6,14.7-2.1C87.6,221,82.7,221.7,83.9,231.4z"/>
	<path class="st8" d="M61,240.9c8.1,6.6,18.7,8.6,31.8,5.8c2.4-12.8-1.6-18.5-11.8-17.2c-7.7-0.6-13.2-3.6-16.6-9.1
		c-17.3-7.2-22.4-4.1-20.7,1.7c-2.8,9.3-3.2,11.5,1,11.8C51,235.2,56.4,237.6,61,240.9L61,240.9z"/>
	<path class="st9" d="M67.6,141.6c0,0,0.3,14.4,6.6,23.9c6.2,9.6,6.9,15.8,6.9,19.4v17.3c0,0,13.4,11.1,17.9,14.1
		c1.9,1.3,6,1.8,10.1,2.1v0c0,0,2.2,0.1,5.3,0.1h0.3c3.3,0,5.7-0.1,5.7-0.1v0c4.1-0.2,8.2-0.8,10.1-2.1c4.5-3,17.9-14.1,17.9-14.1
		v-17.3c0-3.6,0.7-9.9,6.9-19.4c6.2-9.6,6.6-23.9,6.6-23.9c3.4-26.9-22.4-26.3-30.7-26.3s-6.9-14.9-6.9-14.9h-19.1
		c0,0,1.4,14.9-6.9,14.9S64.2,114.7,67.6,141.6L67.6,141.6z"/>
	<path class="st10" d="M117.5,168c-0.3,6.7,8.1,8.8,25.4,6.3c5.2-0.5,9-4.4,11.4-11.8c0.6,0.8,1.1,1.7,1.7,2.6
		c-1.6,2.4-2.9,4.6-3.8,6.6c-3.4,7.3-20.6,7.4-30.9,4.7c-5.8-1.5-5.8-9-4.8-21.3L117.5,168L117.5,168z"/>
	<path class="st11" d="M112.8,166.7c0.3,5.9-8.1,7.7-25.4,5.5c-5.2-0.4-9-3.9-11.4-10.3c-0.6,0.7-1.1,1.5-1.7,2.3
		c1.6,2.1,2.8,4.1,3.8,5.8c3.4,6.4,20.6,6.5,30.9,4.1c5.7-1.3,5.8-7.9,4.8-18.7L112.8,166.7L112.8,166.7z"/>
	<path class="st12" d="M82.7,128.2l-2.9,32c0,0-13,17.1-15.2,26.5c-2.2,9.4-6.6,16.2-9.6,20.5c-2.6,3.9-21.1,23.6-24.9,27.6
		c4.4,9.6,2.6,15.9-5.3,18.8c0.3,12.9-1,19.7-3.9,20.4c-1,2.4-2.4,2.7-4.1,0.8c-1.4,2.3-2.8,2.5-4.2,0.7c-2.5-0.1-3.6-1.2-3.4-3.4
		c-1.9-11-2-17.5-0.4-19.5c6.6-10.2,10.7-16.6,12.1-19.2c0,0,14.8-39.1,18.8-43.4s8.6-8.6,10-12.8c1.4-4.2,10.2-44.8,15.5-51.4
		c5.3-6.5,9.1-7.6,13.2-8.3c4.1-0.7,4.5-0.7,4.5-0.7L82.7,128.2L82.7,128.2z"/>
	<path class="st10" d="M23.1,237l2.3,1.8c0,0,0.9,3.4,0,6.8c-0.9,3.4-3.6,6-3.6,6l-0.2,2.4l-1.1,19.2l-0.9-16.9l-2.4,0l-0.6,18.7
		c0,0-2.2-18.9-1.6-19c0.6-0.1,0,0.9-0.8,0.9c-0.9,0-1.3,18.8-1.8,18.8c-0.6,0,0.9-19.6,0.2-21.5s-2.9-0.5-3.2-0.7
		c-0.4-0.2,3.3-1.9,4-1.2l0.7,0.7l6.8-2c0,0,5.1-4.5,4.7-6.1C25.4,243.1,23.1,237,23.1,237L23.1,237z"/>
	<path class="st10" d="M19.6,237.1c4.3-2.8,12.9,6.2,2.2,14.5c0.1,4.4,2.3,15.3-4.2,14.2c-2.1,0.1-4.7-5.6-4.1-11.9
		c-2.5-3.2-3.9-1.6-3.9-1.6C13.5,246.1,19.6,237.1,19.6,237.1z"/>
	<path class="st12" d="M147.9,128.5l2.9,32c0,0,13,17.1,15.2,26.5c2.2,9.4,6.6,16.2,9.6,20.5c2.6,3.9,21.1,23.6,24.9,27.6
		c-4.4,9.6-2.6,15.9,5.3,18.8c-0.3,12.9,1,19.7,3.9,20.4c1,2.4,2.4,2.7,4.1,0.8c1.4,2.3,2.8,2.5,4.2,0.7c2.5-0.1,3.6-1.2,3.4-3.4
		c1.9-11,2-17.5,0.4-19.5c-6.6-10.2-10.7-16.6-12.1-19.2c0,0-14.8-39.1-18.8-43.4c-4-4.4-8.6-8.6-10-12.8
		c-1.4-4.2-10.2-44.8-15.6-51.4c-5.3-6.5-9.1-7.6-13.2-8.3c-4.1-0.7-4.5-0.7-4.5-0.7L147.9,128.5L147.9,128.5z"/>
	<ellipse class="st13" cx="113" cy="133.2" rx="41.2" ry="15.4"/>
	<path class="st10" d="M112.9,168.3c0.3,6.7-8.1,8.8-25.4,6.3c-5.2-0.5-9-4.4-11.4-11.8c-0.6,0.8-1.1,1.7-1.7,2.6
		c1.6,2.4,2.8,4.6,3.8,6.6c3.4,7.3,20.6,7.4,31,4.7c5.8-1.5,5.8-9,4.8-21.3L112.9,168.3L112.9,168.3z"/>
	<path class="st14" d="M78.7,173.6c-0.8-4.4-2.1-14.2-3.1-32.9c0.2,11.8-0.2,17.2-1.4,24.8C76.9,170.2,78.6,173.3,78.7,173.6
		L78.7,173.6z"/>
	<path class="st7" d="M82.2,247.9c0.8,13.1,18.3,25.3,52.7,36.4c-34-13.6-49.8-25.9-47.3-36.8C83.9,247.8,82.1,247.9,82.2,247.9
		L82.2,247.9z"/>
	<path class="st13" d="M114.4,218.5L114.4,218.5z M120.4,218.4c4.1-0.2,8.2-0.8,10.1-2.1c0.9-0.6,2.3-1.6,3.8-2.8
		c0.5-2.3,0.8-4.8,0.8-7.4c0-2.2-0.2-4.4-0.6-6.4c-2.2-11.2-9.9-19.6-19.1-19.6s-16.8,8.2-19.1,19.3c-0.4,2.1-0.7,4.4-0.7,6.7
		c0,3,0.4,5.9,1.1,8.5c0.9,0.7,1.7,1.2,2.3,1.6c1.9,1.3,6,1.8,10.1,2.1v0c0,0,2.2,0.1,5.3,0.1h0.3
		C118,218.5,120.4,218.4,120.4,218.4L120.4,218.4L120.4,218.4z"/>
	<path class="st13" d="M19.5,235.6c4.1-2.6,11.8,7.4,1.5,15.2c1,9.2,0.9,13.8-3.7,13.1c-2,0.1-3.4-5.9-3.1-11.1
		c-2.4-3-5.6-0.2-5.6-0.2C12.4,246.8,19.5,235.6,19.5,235.6L19.5,235.6z"/>
	<path class="st15" d="M15.6,258.9l0.5,3.2c0,0,1.3,0.9,2.8,0.5c1.4-0.4,1.7-0.7,1.7-0.7l-0.4-3.5C20.2,258.5,17.3,257.3,15.6,258.9
		L15.6,258.9z"/>
	<path class="st16" d="M28,230.4c0,0,21.3-27.2,22.2-34.8c0.9-7.5-8.4-8-8.4-8s-2.9,2-6.2,9.5s-14.9,36.3-14.9,36.3
		S24.8,237.6,28,230.4L28,230.4z"/>
	<path class="st14" d="M17.2,239.4c-1.4-2.7,7.3-3.2,10.5-2.9c3.2,0.3,3.9,2.5,3.9,2.5s1.1-0.9,0.7-2c-0.4-1.2-1-3.1-9.1-2.8
		C15,234.5,15.4,238.7,17.2,239.4L17.2,239.4z"/>
	<path class="st17" d="M20.7,233.8c0.6,0,1.2-0.5,1.2-1s-0.5-1-1.2-1s-1.2,0.5-1.2,1S20,233.8,20.7,233.8z"/>
	<path class="st17" d="M23.1,233.3c0.8,0,1.4-0.6,1.4-1.2s-0.6-1.2-1.4-1.2s-1.4,0.6-1.4,1.2S22.3,233.3,23.1,233.3z"/>
	<path class="st17" d="M25.9,233.2c0.8,0,1.4-0.6,1.4-1.2s-0.6-1.2-1.4-1.2s-1.4,0.6-1.4,1.2S25.2,233.2,25.9,233.2z"/>
	<path class="st17" d="M28.8,233.4c0.8,0,1.4-0.6,1.4-1.2s-0.6-1.2-1.4-1.2s-1.4,0.6-1.4,1.2S28,233.4,28.8,233.4z"/>
	<path class="st17" d="M31.3,234.4c0.8,0,1.4-0.6,1.4-1.2s-0.6-1.2-1.4-1.2s-1.4,0.6-1.4,1.2S30.5,234.4,31.3,234.4z"/>
	<path class="st18" d="M23.1,226.2c0.4,0.1,0.7,0.4,0.8,0.8c0,0,0-0.1,0-0.1c0.2-0.6,1-0.9,1.8-0.7c0.8,0.3,1.2,1,0.9,1.6
		c-0.2,0.6-1,0.9-1.8,0.7c-0.5-0.2-0.8-0.5-1-0.9l0,0c-0.2,0.5-0.9,0.8-1.5,0.6c-0.6-0.2-1-0.8-0.8-1.4
		C21.8,226.2,22.5,226,23.1,226.2L23.1,226.2L23.1,226.2z M33.4,230c-0.5-0.2-1-0.1-1.4,0.1c0.1-0.1,0.1-0.2,0.1-0.2
		c0.2-0.6-0.2-1.4-0.9-1.6c-0.8-0.3-1.6,0-1.8,0.7s0.2,1.4,0.9,1.6c0.5,0.2,1,0.1,1.4-0.1c-0.1,0.1-0.1,0.2-0.1,0.2
		c-0.2,0.6,0.2,1.4,0.9,1.6c0.8,0.3,1.6,0,1.8-0.7S34.2,230.3,33.4,230C33.4,230,33.4,230,33.4,230z M28.6,227.1
		c-0.8-0.3-1.6,0-1.8,0.7s0.2,1.4,0.9,1.6c0.8,0.3,1.6,0,1.8-0.7S29.4,227.4,28.6,227.1z"/>
	<path class="st18" d="M25.8,222.1c0.4,0.2,0.6,0.5,0.7,0.9c0,0,0,0,0-0.1c0.3-0.6,1.2-0.8,1.9-0.4s1,1.1,0.7,1.7
		c-0.3,0.6-1.2,0.8-1.9,0.4c-0.5-0.2-0.8-0.6-0.8-1.1l0,0c-0.3,0.5-1,0.7-1.6,0.4s-0.9-1-0.6-1.5C24.4,221.9,25.2,221.7,25.8,222.1
		L25.8,222.1L25.8,222.1z M35.6,227.2c-0.5-0.2-1-0.2-1.4,0c0.1-0.1,0.1-0.1,0.2-0.2c0.3-0.6,0-1.4-0.7-1.7
		c-0.7-0.4-1.5-0.2-1.9,0.4s0,1.4,0.7,1.7c0.5,0.2,1,0.2,1.4,0c-0.1,0.1-0.1,0.1-0.2,0.2c-0.3,0.6,0,1.4,0.7,1.7s1.5,0.2,1.9-0.4
		S36.3,227.5,35.6,227.2L35.6,227.2L35.6,227.2z M31.1,223.7c-0.7-0.4-1.5-0.2-1.9,0.4s0,1.4,0.7,1.7c0.7,0.4,1.5,0.2,1.9-0.4
		C32.2,224.8,31.8,224,31.1,223.7z"/>
	<path class="st19" d="M89.9,72.9l51.8-0.4c1.7,0,3.3,1.4,3.1,3.1l-1,9.4c-0.2,1.7-1.4,3.1-3.1,3.1H90.8c-1.7,0-2.9-1.4-3.1-3.1
		L86.7,76C86.6,74.3,88.1,72.9,89.9,72.9L89.9,72.9z"/>
	<path class="st20" d="M110.1,175.3c-0.5-0.4-0.6-1-0.5-1.6c0,0-0.1,0.1-0.1,0.1c-1,0.7-2.5,0.6-3.4-0.2c-0.9-0.8-0.8-2.1,0.2-2.8
		s2.5-0.6,3.4,0.2c0.6,0.6,0.7,1.3,0.5,1.9l0,0c0.8-0.6,2.1-0.5,2.9,0.2c0.4,0.4,0.6,0.8,0.5,1.3c0.4-0.3,1-0.5,1.6-0.5
		c1.3,0,2.3,0.9,2.3,2s-1,2-2.3,2s-2.3-0.9-2.3-2c0-0.1,0-0.2,0-0.3C112.1,176.1,110.8,176,110.1,175.3L110.1,175.3L110.1,175.3z
		 M120.7,175.2c0.5-0.4,0.6-1,0.5-1.6c0,0,0.1,0.1,0.1,0.1c1,0.7,2.5,0.6,3.4-0.2c0.9-0.8,0.8-2.1-0.2-2.8s-2.5-0.6-3.4,0.2
		c-0.6,0.6-0.7,1.3-0.5,1.9l0,0c-0.8-0.6-2.1-0.5-2.9,0.2s-0.7,1.8,0.1,2.4S119.9,176,120.7,175.2L120.7,175.2z M135.3,158.8
		c0-0.7-0.4-1.4-1.1-1.8c0.2,0,0.4,0.1,0.5,0.1c1.3,0,2.3-0.9,2.3-2.1c0-1.1-1.1-2.1-2.4-2.1s-2.3,0.9-2.3,2.1
		c0,0.7,0.4,1.4,1.1,1.8c-0.2,0-0.4-0.1-0.5-0.1c-1.3,0-2.3,0.9-2.3,2.1c0,0.6,0.3,1.1,0.7,1.4c-0.9-0.2-1.8,0-2.5,0.6
		c-0.9,0.8-0.8,2.1,0.2,2.8c0.1,0.1,0.3,0.2,0.4,0.3c-0.8-0.1-1.6,0.1-2.2,0.7c-0.9,0.8-0.8,2.1,0.2,2.8s2.5,0.6,3.4-0.2
		c0.9-0.8,0.8-2.1-0.2-2.8c-0.1-0.1-0.3-0.2-0.4-0.3c0.8,0.1,1.6-0.1,2.2-0.7c0.8-0.8,0.8-1.9,0-2.6c0.2,0,0.4,0.1,0.6,0.1
		C134.3,160.8,135.3,159.9,135.3,158.8L135.3,158.8L135.3,158.8z M137.4,150.8c-0.1-2.7-4.7-2.7-4.6,0c0,1.1,1.1,2.1,2.4,2.1
		S137.4,151.9,137.4,150.8L137.4,150.8z M128.1,170.5c-0.9,0.8-2.4,0.9-3.4,0.2s-1.1-2-0.2-2.8c0.9-0.8,2.4-0.9,3.4-0.2
		S128.9,169.7,128.1,170.5L128.1,170.5z M95.4,158.8c0-0.7,0.4-1.4,1.1-1.8c-0.2,0-0.3,0.1-0.5,0.1c-1.3,0-2.3-0.9-2.3-2.1
		c0-1.1,1.1-2.1,2.3-2.1s2.3,0.9,2.3,2.1c0,0.7-0.4,1.4-1.1,1.8c0.2,0,0.3-0.1,0.5-0.1c1.3,0,2.3,0.9,2.3,2.1c0,0.6-0.3,1.1-0.7,1.4
		c0.9-0.2,1.8,0,2.4,0.6c0.9,0.8,0.8,2.1-0.2,2.8c-0.1,0.1-0.3,0.2-0.4,0.3c0.8-0.1,1.6,0.1,2.2,0.7c0.9,0.8,0.8,2.1-0.2,2.8
		s-2.5,0.6-3.4-0.2c-0.9-0.8-0.8-2.1,0.2-2.8c0.1-0.1,0.3-0.2,0.4-0.3c-0.8,0.1-1.6-0.1-2.2-0.7c-0.8-0.8-0.8-1.9,0-2.6
		c-0.2,0-0.4,0.1-0.6,0.1C96.4,160.9,95.4,160,95.4,158.8C95.4,158.8,95.4,158.8,95.4,158.8z M93.3,150.8c0.1-2.7,4.7-2.7,4.6,0
		c0,1.1-1.1,2.1-2.3,2.1S93.3,152,93.3,150.8L93.3,150.8z M102.6,170.6c0.9,0.8,2.4,0.9,3.4,0.2s1.1-2,0.2-2.8
		c-0.9-0.8-2.4-0.9-3.4-0.2S101.8,169.7,102.6,170.6z"/>
	<path class="st20" d="M93.5,147c-0.2-1.2,0.7-2.4,1.9-2.6s2.4,0.7,2.6,1.9s-0.7,2.4-1.9,2.6S93.7,148.2,93.5,147z"/>
	<path class="st20" d="M94.8,138.4c0.1,0.7,0.5,1.2,1.1,1.5c-0.1,0-0.1,0-0.1,0c-1.2,0.2-2.1,1.4-1.9,2.6s1.3,2.1,2.6,1.9
		c1.2-0.2,2.1-1.4,1.9-2.6c-0.1-0.8-0.6-1.5-1.3-1.8l0,0c1-0.2,1.8-1.2,1.6-2.2s-1.1-1.8-2.2-1.7S94.7,137.3,94.8,138.4L94.8,138.4z
		"/>
	<path class="st20" d="M97.3,131.1c0,0.6,0.4,1.1,0.8,1.4c0,0-0.1,0-0.1,0c-1.1,0.1-2,1.1-2,2.2s1,2,2.2,1.9s2-1.1,2-2.2
		c0-0.8-0.5-1.4-1.1-1.7l0,0c1-0.1,1.7-0.9,1.6-1.9c-0.1-1-0.9-1.7-1.8-1.7C98,129.3,97.2,130.2,97.3,131.1L97.3,131.1z"/>
	<path class="st20" d="M134,131.2c0,0.6-0.3,1.2-0.8,1.5c0,0,0.1,0,0.1,0c1.1,0.1,2.1,1,2,2.2c0,1.2-1,2.1-2.1,2s-2.1-1-2-2.2
		c0-0.8,0.4-1.4,1-1.8l0,0c-1,0-1.7-0.9-1.7-1.9c0-1,0.8-1.8,1.8-1.7C133.2,129.3,134,130.2,134,131.2L134,131.2z"/>
	<path class="st21" d="M116,194.6c-7,0-13.4-6.5-18.3-18.3c-4.8-11.6-7.4-26.9-7.4-43.2S93,101.6,97.7,90
		c4.8-11.8,11.3-18.3,18.3-18.3s13.4,6.5,18.3,18.3c4.8,11.6,7.4,26.9,7.4,43.2s-2.6,31.6-7.4,43.2C129.5,188.1,123,194.6,116,194.6
		z M116,73.1c-6.3,0-12.4,6.2-17,17.4c-4.7,11.4-7.3,26.5-7.3,42.6s2.6,31.2,7.3,42.6c4.6,11.2,10.6,17.4,17,17.4s12.4-6.2,17-17.4
		c4.7-11.4,7.3-26.5,7.3-42.6s-2.6-31.2-7.3-42.6C128.4,79.3,122.3,73.1,116,73.1z"/>
	<path class="st22" d="M141.7,68.5l0.2,27.5c0,0,0.1,16-4.9,26.4c-4.9,10.1-19.8,27-20.8,28.1v0.1c0,0-16-17.8-21.2-28.1
		s-5.3-26.4-5.3-26.4l-0.2-27.5l27.8,1.7C117.3,70.3,141.7,68.5,141.7,68.5z"/>
	<path class="st23" d="M117.2,36.5H96.7c0,0-10.9,7.6-10.1,17c0.8,9.4,5,21.4,5,21.4l22.4,1.3v0.1l1-0.1l1,0.1v-0.1l22.4-1.3
		c0,0,4.2-12,5-21.4c0.8-9.4-10.1-17-10.1-17L117.2,36.5L117.2,36.5z"/>
	<path class="st24" d="M110.5,45.5l4.9,2.6l5.2-2.6c8.7-4.3,17.8,7.8,17.8,17.2v19.7c0,9.5-8,17.2-17.8,17.2h-10.2
		c-9.8,0-17.8-7.8-17.8-17.2V62.8C92.7,53.3,101.9,41,110.5,45.5z"/>
	<path class="st13" d="M111.5,45.5l3.8,2.6l4-2.6c6.7-4.3,13.7,7.8,13.7,17.2v19.7c0,9.5-6.2,17.2-13.7,17.2h-7.8
		c-7.5,0-13.7-7.8-13.7-17.2V62.8C97.8,53.3,104.9,41,111.5,45.5L111.5,45.5z"/>
	<path class="st12" d="M115.2,106.5c5.9,0,10.8-3.2,10.8-7.2s-4.8-7.2-10.8-7.2s-10.8,3.2-10.8,7.2S109.3,106.5,115.2,106.5z"/>
	<path class="st23" d="M101.9,27.1h26.4c2.8,0,5.1,2.3,5.1,5.1v5.2H96.7v-5.2C96.7,29.4,99.1,27.1,101.9,27.1z"/>
	<path class="st23" d="M109.8,18.5h10.9c5.2,0,9.4,4.2,9.4,9.4v9.5h-29.8v-9.5C100.4,22.7,104.6,18.5,109.8,18.5L109.8,18.5z"/>
	<path class="st25" d="M127.7,28.3c1.6,0.8,2.7,2.4,2.7,4.3v4.8h-30.1v-4.8c0-2,1.2-3.7,3-4.4c0.2-4.6,4.1-8.3,8.7-8.3h6.9
		C123.7,19.9,127.6,23.7,127.7,28.3L127.7,28.3z"/>
	<path class="st19" d="M113.6,87.8c-3.4-0.1-5.2-0.2-5.2-0.2c-0.7-2.2,0.2-3.8,2.6-4.6c1.1-3.1,3.6-5.6,4.2-5.6
		c0.5,0,3.1,2.5,4.2,5.5c2.4,0.9,3.2,2.4,2.6,4.6c0,0-1.7,0.1-5.2,0.2c0.3,0-0.2,0-1.6,0v0C113.8,87.7,113.3,87.7,113.6,87.8z"/>
	<path class="st26" d="M108.9,84.2c-0.8,1-1,2.1-0.5,3.4c0,0,4.5,0,13.5,0c0.4-0.9,0.3-1.9-0.4-3.2c0.2,1-1,1.3-3.6,0.9
		c-1.9,1.3-3.7,1.3-5.6,0.1C110.4,85.7,109.3,85.3,108.9,84.2L108.9,84.2z"/>
	<path class="st27" d="M109.4,87.6c2.8,0.1,4.2,0.1,4.2,0.1C112.4,85.8,111,85.8,109.4,87.6z"/>
	<path class="st22" d="M115.2,99.7L115.2,99.7c2.1,0,3.7,1.7,3.7,3.7v4.9c0,2.1-1.7,3.7-3.7,3.7l0,0c-2.1,0-3.7-1.7-3.7-3.7v-4.9
		C111.5,101.3,113.2,99.7,115.2,99.7z"/>
	<path class="st27" d="M120.9,87.6c-2.8,0.1-4.2,0.1-4.2,0.1C117.9,85.8,119.3,85.8,120.9,87.6z"/>
	<path class="st10" d="M115.3,95.6h-5.2c-1.2,0-2.2-0.8-2.5-1.8c0,0-0.1,0.1-0.1,0.1c0.1,1.2,0.7,2.3,1.7,3c0.2,0.2,0.5,0.3,0.8,0.4
		c0.6,0.3,1.2,0.4,1.9,0.4h7.2c0.7,0,1.3-0.1,1.8-0.4c0.3-0.1,0.6-0.3,0.8-0.5c0.9-0.7,1.6-1.7,1.7-2.9c-0.1,0-0.1-0.1-0.1-0.1
		c-0.4,1-1.4,1.7-2.5,1.7L115.3,95.6L115.3,95.6z"/>
	<path class="st28" d="M115,85.1c1.3,0,2.4-0.4,2.4-0.8s-1.1-0.8-2.4-0.8s-2.4,0.4-2.4,0.8S113.7,85.1,115,85.1z"/>
	<path class="st28" d="M116.9,83.2c0.3,0,0.6-0.2,0.6-0.4s-0.2-0.4-0.6-0.4s-0.6,0.2-0.6,0.4S116.6,83.2,116.9,83.2z"/>
	<path class="st29" d="M115.3,94.7h-5.2c-1.2,0-2.2-0.4-2.5-0.9c0,0-0.1,0-0.1,0c0.1,0.6,0.7,1.2,1.7,1.5c0.2,0.1,0.5,0.2,0.8,0.2
		c0.6,0.1,1.2,0.2,1.9,0.2h7.2c0.7,0,1.3-0.1,1.8-0.2c0.3-0.1,0.6-0.1,0.8-0.2c0.9-0.3,1.6-0.9,1.7-1.5c-0.1,0-0.1,0-0.1-0.1
		c-0.4,0.5-1.4,0.8-2.5,0.8L115.3,94.7L115.3,94.7z"/>
	<path class="st2" d="M102.3,99.8c-1.1,1.2-2.9,1.2-4.2,0.1c-1.3-1.1-1.5-3-0.4-4.1c4.6-5.1,3.4-8.4,14.3-8.3c1.3,0,2.5,0.9,3,2.1
		c0.5-1.2,1.7-2.1,3-2.1c10.9-0.1,9.7,3.2,14.3,8.3c1.1,1.2,0.9,3-0.4,4.1s-3.2,1.1-4.2-0.1c-2.9-3.2-1.5-6.6-10.1-6.5
		c-1.2,0-2.2-0.6-2.6-1.6c-0.4,1-1.4,1.6-2.6,1.6C103.8,93.2,105.2,96.6,102.3,99.8z"/>
	<path class="st30" d="M113.7,62.8c-0.2-3.4,1.5-13.1,1.7-13s1.9,9.5,1.7,13C116.4,65,114.3,64.8,113.7,62.8z"/>
	<path class="st10" d="M117.2,67.7c5.8-0.4,11.7,0.3,17.6,2.3C133.8,81.8,116.4,80.9,117.2,67.7z"/>
	<path class="st10" d="M113.5,67.7c-5.8-0.4-11.7,0.3-17.6,2.3C96.9,81.8,114.4,80.9,113.5,67.7z"/>
	<path class="st2" d="M133.4,68.7c0.9,0.1,1.6,0.9,1.6,1.8c-0.1,0.9-0.9,1.6-1.9,1.5c-2.1-0.2-2.8-1.2-3.4-2.1
		c-0.1-0.2-0.3-0.4-0.3-0.4c-1.1-0.2-3.4,0.1-5.4,0.3c-1.5,0.2-2.8,0.3-3.8,0.3c-0.7,0-1.3-0.1-1.8-0.6c-0.6-0.5-0.9-1.1-0.9-2.2
		c0-0.9,0.8-1.7,1.7-1.7c0.8,0,1.4,0.4,1.7,1.1c0.7,0,1.8-0.2,2.8-0.3c2.3-0.3,4.9-0.6,6.5-0.3c1.4,0.3,1.9,1,2.5,1.8
		C132.7,68.3,132.9,68.6,133.4,68.7L133.4,68.7z"/>
	<path class="st31" d="M130,74.8c0,0,2.5,0.2,2.6,0.2c-2.2,0.1-2.2,0.6-3,2.1c-1.9,2-9.4,1.7-9.2-2.5c0.1,0,0.5,0.1,0.5,0
		C121.4,77.6,128.6,78.6,130,74.8z"/>
	<path class="st31" d="M100.4,74.8c0,0-2.5,0.2-2.6,0.2c2.2,0.1,2.2,0.6,3,2.1c1.9,2,9.4,1.7,9.2-2.5c-0.1,0-0.5,0.1-0.5,0
		C109,77.7,101.8,78.6,100.4,74.8z"/>
	<path class="st32" d="M96,35.2h38.9c0.6,0,1.1,0.5,1.1,1.1l0,0c0,0.6-0.5,1.1-1.1,1.1H96c-0.6,0-1.1-0.5-1.1-1.1l0,0
		C94.8,35.7,95.3,35.2,96,35.2z"/>
	<path class="st23" d="M112.7,18.9h5.9c-2.8-2.4-1.7-4.4,3.3-5.7c3.3-2.7,2.4-4.8-2.5-6.4c3.3,2.5,1.6,4.4-5.1,5.7
		C110.6,14.2,110.1,16.3,112.7,18.9z"/>
	<path class="st20" d="M137.6,147.2c0.2-1.2-0.7-2.4-1.9-2.6c-1.2-0.2-2.4,0.7-2.6,1.9c-0.2,1.2,0.7,2.4,1.9,2.6
		C136.2,149.4,137.4,148.5,137.6,147.2z"/>
	<path class="st20" d="M136.3,138.8c-0.1,0.7-0.5,1.2-1.1,1.5c0.1,0,0.1,0,0.1,0c1.2,0.2,2.1,1.4,1.9,2.6c-0.2,1.2-1.3,2.1-2.6,1.9
		c-1.2-0.2-2.1-1.4-1.9-2.6c0.1-0.8,0.6-1.5,1.3-1.8l0,0c-1-0.2-1.8-1.2-1.6-2.2s1.1-1.8,2.2-1.7
		C135.7,136.7,136.4,137.7,136.3,138.8L136.3,138.8z"/>
	<path class="st33" d="M113.8,194.1c0.2,0.9,0.9,1.5,1.6,1.7c-0.1,0-0.1,0-0.2,0.1c-1.6,0.5-2.5,2.1-2,3.7c0.4,1.6,2.1,2.5,3.6,2
		s2.5-2.1,2-3.7c-0.3-1-1.1-1.8-2-2l0,0c1.3-0.4,2.1-1.8,1.7-3.2c-0.4-1.4-1.8-2.1-3.1-1.8S113.4,192.7,113.8,194.1L113.8,194.1z"/>
	<path class="st14" d="M115.5,215.5c0.7,0,1.2-1.4,1.2-3.1s-0.6-3.1-1.2-3.1s-1.2,1.4-1.2,3.1S114.8,215.5,115.5,215.5z"/>
	<path class="st34" d="M54.5,168.4c0,0-1.8,5.6,0.9,10c2.7,4.5,9.1,0.2,9.1,0.2l-6.6,11.5c0,0,0.4-4.5-1.2-6.5s-6.3-2.3-6.3-2.3
		L54.5,168.4L54.5,168.4z"/>
	<path class="st35" d="M46.7,222.6c0,0,3.1,0.7,4.7,1.1s6.2,2.3,10.3,5.9c4.1,3.6,8.1,9,11.1,10.4c3.1,1.4,20.7,1.6,20.7,1.6
		l-0.6,5.1c0,0-21.4,1.4-27.6-2.9c-6.2-4.3-13.1-10.5-15.8-10.8c-2.7-0.4-5.9-0.7-6.2-1.4c-0.3-0.7,1.3-2.1,1.3-2.1l-0.6-2.9l2-0.8
		C46,225.7,44.6,223.7,46.7,222.6L46.7,222.6z"/>
	<path class="st8" d="M169.6,241.2c-8.1,6.6-18.7,8.6-31.8,5.8c-2.4-12.8,1.6-18.5,11.8-17.2c7.7-0.6,13.2-3.6,16.6-9.1
		c17.3-7.2,22.4-4.1,20.7,1.7c2.8,9.3,3.2,11.5-1,11.8C179.6,235.5,174.2,237.8,169.6,241.2L169.6,241.2z"/>
	<path class="st10" d="M207.5,237.3l-2.3,1.8c0,0-0.9,3.4,0,6.8c0.9,3.4,3.6,6,3.6,6l0.2,2.4l1.1,19.1l0.9-16.9l2.4,0l0.6,18.7
		c0,0,2.2-18.9,1.6-19c-0.6-0.1,0,0.9,0.8,1c0.9,0,1.3,18.8,1.8,18.8c0.6,0-0.9-19.6-0.2-21.5c0.7-1.9,2.9-0.5,3.2-0.7
		c0.4-0.2-3.3-1.9-4-1.2l-0.7,0.7l-6.8-2c0,0-5.1-4.5-4.7-6.1C205.2,243.4,207.5,237.3,207.5,237.3L207.5,237.3z"/>
	<path class="st10" d="M211,237.3c-4.3-2.8-12.9,6.2-2.2,14.5c-0.1,4.4-2.3,15.3,4.2,14.2c2.1,0.1,4.7-5.6,4.1-11.9
		c2.5-3.2,3.9-1.6,3.9-1.6C217.1,246.3,211,237.3,211,237.3L211,237.3z"/>
	<path class="st13" d="M211.1,235.9c-4.1-2.6-11.8,7.4-1.5,15.2c-1,9.2-0.9,13.8,3.7,13.1c2,0.1,3.4-5.9,3.1-11.1
		c2.4-3,5.6-0.2,5.6-0.2C218.2,247.1,211.1,235.9,211.1,235.9L211.1,235.9z"/>
	<path class="st15" d="M215,259.2l-0.5,3.2c0,0-1.3,0.9-2.8,0.5c-1.4-0.4-1.7-0.7-1.7-0.7l0.4-3.5
		C210.4,258.7,213.3,257.6,215,259.2L215,259.2z"/>
	<path class="st16" d="M202.6,230.7c0,0-21.3-27.2-22.2-34.8c-0.9-7.5,8.4-8,8.4-8s2.9,2,6.2,9.5c3.3,7.5,14.9,36.3,14.9,36.3
		S205.8,237.9,202.6,230.7L202.6,230.7z"/>
	<path class="st14" d="M213.4,239.7c1.4-2.7-7.3-3.2-10.5-2.9c-3.2,0.3-3.9,2.5-3.9,2.5s-1.1-0.9-0.7-2c0.4-1.2,1.1-3.1,9.1-2.8
		C215.6,234.7,215.2,238.9,213.4,239.7L213.4,239.7z"/>
	<path class="st17" d="M209.9,234c0.6,0,1.2-0.5,1.2-1s-0.5-1-1.2-1s-1.2,0.5-1.2,1S209.2,234,209.9,234z"/>
	<path class="st17" d="M207.5,233.6c0.8,0,1.4-0.6,1.4-1.2s-0.6-1.2-1.4-1.2s-1.4,0.6-1.4,1.2S206.8,233.6,207.5,233.6z"/>
	<path class="st17" d="M204.7,233.5c0.8,0,1.4-0.6,1.4-1.2s-0.6-1.2-1.4-1.2s-1.4,0.6-1.4,1.2S203.9,233.5,204.7,233.5z"/>
	<path class="st17" d="M201.9,233.7c0.8,0,1.4-0.6,1.4-1.2s-0.6-1.2-1.4-1.2s-1.4,0.6-1.4,1.2S201.1,233.7,201.9,233.7z"/>
	<path class="st17" d="M199.3,234.6c0.8,0,1.4-0.6,1.4-1.2s-0.6-1.2-1.4-1.2s-1.4,0.6-1.4,1.2S198.6,234.6,199.3,234.6z"/>
	<path class="st18" d="M207.5,226.5c-0.4,0.1-0.7,0.4-0.8,0.8c0,0,0-0.1,0-0.1c-0.2-0.6-1.1-0.9-1.8-0.7c-0.8,0.3-1.2,1-0.9,1.6
		c0.2,0.6,1.1,0.9,1.8,0.7c0.5-0.2,0.8-0.5,0.9-0.9l0,0c0.2,0.5,0.9,0.8,1.5,0.6c0.6-0.2,1-0.8,0.8-1.4
		C208.8,226.5,208.1,226.2,207.5,226.5L207.5,226.5L207.5,226.5z M197.2,230.3c0.5-0.2,1-0.1,1.4,0.1c-0.1-0.1-0.1-0.2-0.1-0.2
		c-0.2-0.6,0.2-1.4,0.9-1.6c0.8-0.3,1.6,0,1.8,0.7s-0.2,1.4-0.9,1.6c-0.5,0.2-1,0.1-1.4-0.1c0.1,0.1,0.1,0.2,0.1,0.2
		c0.2,0.6-0.2,1.4-0.9,1.6c-0.8,0.3-1.6,0-1.8-0.7S196.4,230.6,197.2,230.3L197.2,230.3z M202,227.4c0.8-0.3,1.6,0,1.8,0.7
		s-0.2,1.4-0.9,1.6c-0.8,0.3-1.6,0-1.8-0.7S201.2,227.6,202,227.4z"/>
	<path class="st18" d="M204.8,222.3c-0.4,0.2-0.6,0.5-0.7,0.9c0,0,0,0,0-0.1c-0.3-0.6-1.2-0.8-1.9-0.4s-1,1.1-0.7,1.7
		c0.3,0.6,1.2,0.8,1.9,0.4c0.5-0.2,0.8-0.6,0.8-1.1l0,0c0.3,0.5,1,0.7,1.6,0.4s0.9-1,0.6-1.5C206.2,222.2,205.4,222,204.8,222.3
		L204.8,222.3L204.8,222.3z M195.1,227.4c0.5-0.2,1-0.2,1.4,0c-0.1-0.1-0.1-0.1-0.2-0.2c-0.3-0.6,0-1.4,0.7-1.7
		c0.7-0.4,1.6-0.2,1.9,0.4s0,1.4-0.7,1.7c-0.5,0.2-1,0.2-1.4,0c0.1,0.1,0.1,0.1,0.2,0.2c0.3,0.6,0,1.4-0.7,1.7
		c-0.7,0.4-1.6,0.2-1.9-0.4S194.3,227.8,195.1,227.4L195.1,227.4z M199.5,223.9c0.7-0.4,1.6-0.2,1.9,0.4s0,1.4-0.7,1.7
		c-0.7,0.4-1.6,0.2-1.9-0.4S198.8,224.3,199.5,223.9L199.5,223.9z"/>
	<path class="st34" d="M176.1,168.7c0,0,1.8,5.6-0.9,10c-2.7,4.5-9.1,0.2-9.1,0.2l6.6,11.5c0,0-0.4-4.5,1.2-6.5s6.3-2.3,6.3-2.3
		L176.1,168.7L176.1,168.7z"/>
	<path class="st35" d="M183.9,222.9c0,0-3.1,0.7-4.7,1.1s-6.2,2.3-10.3,5.9c-4.1,3.6-8.1,9-11.1,10.4s-20.7,1.6-20.7,1.6l0.6,5.1
		c0,0,21.4,1.4,27.6-2.9c6.2-4.3,13.1-10.5,15.8-10.8c2.7-0.4,5.9-0.7,6.2-1.4c0.3-0.7-1.3-2.1-1.3-2.1l0.6-2.9l-2-0.8
		C184.6,226,186,224,183.9,222.9L183.9,222.9z"/>
	<path class="st14" d="M151.7,173.3c0.8-4.4,2.1-14.2,3.1-32.9c-0.2,11.8,0.2,17.2,1.4,24.8C153.5,170,151.8,173,151.7,173.3
		L151.7,173.3z"/>
	<path class="st5" d="M100.3,236.1c0,0,17.9,18.3,26.9,19.7c9,1.4,0-11.8-2.5-19s16.5-11.5,16.5-11.5s11.1,1.1,16.1-1.8
		s7.9-9.6,7.9-9.6l-7.1-1.7l0.5-8.9c0,0-3.5-2.2-5.8,0.1s-21.3,17.2-26.3,18.5c-5,1.2-14,4.7-14.9,8.4c-0.9,3.8,8.7,11.1,4.5,10.4
		C112,240,100.4,236,100.3,236.1L100.3,236.1z"/>
	<path class="st5" d="M177.2,266c0,0-32.8-8.1-38.7-12.2c-5.9-4.1-10.2-16.3-9.7-17.9c0.5-1.6,3.4-2.1,3.4-2.1s17.2,1.6,21.7,2.5
		s32.4,7,36,7.9s-8.4-2-7.2,1.2c1.2,3.2,6.3,8.2,9,11.5c2.7,3.2-11.3-5.2-20.2-6.6C162.5,248.8,177.2,266,177.2,266L177.2,266z"/>
	<path class="st7" d="M132.2,233.7c0,0,27.1,4.1,46.6,8.2s20.8,17.9,20.8,17.9s-1.8-10.4-6.1-14.9S143,230.1,132.2,233.7
		L132.2,233.7z"/>
	<path class="st7" d="M105.7,231.9c0,0,2.1,0.6,2.4-1.1c0.4-1.7,1.2-3.9,4.6-5.3c3.3-1.3,12.2,5.3,15.9,6.7c3.7,1.4,7.7,2.1,7.7,2.1
		l3.4-1.4c0,0-13.2-3.3-15.7-5.5c-2.5-2.2-7.3-4.6-9.6-4.7s-5.3-0.1-6.4,2.5s-2.7,4.7-5.4,4.4c-2.7-0.3-7.1-3.6-7.1-3.6
		S99.5,231.6,105.7,231.9L105.7,231.9z"/>
	<path class="st14" d="M145.6,164.6c1.2,0,1.7,1.4,1.1,3.1c-0.6,1.7-1.9,3.1-3.1,3.1s-1.7-1.4-1.1-3.1
		C143,166.1,144.4,164.6,145.6,164.6z"/>
	<path class="st14" d="M82.8,164.6c-1.2,0-1.7,1.4-1.1,3.1c0.6,1.7,1.9,3.1,3.1,3.1s1.7-1.4,1.1-3.1
		C85.3,166.1,83.9,164.6,82.8,164.6z"/>
	<path class="st15" d="M69.4,126.1c1.5,0.4,2,2.9,1.2,5.6c-0.8,2.7-2.6,4.5-4.1,4.1s-2-2.9-1.2-5.6
		C66.1,127.5,67.9,125.7,69.4,126.1z"/>
	<path class="st15" d="M159.4,123.5c-1.5,0.4-2,2.9-1.2,5.6c0.8,2.7,2.6,4.5,4.1,4.1s2-2.9,1.2-5.7
		C162.7,124.9,160.8,123.1,159.4,123.5L159.4,123.5z"/>
	<path class="st2" d="M101.9,105.2c-2.7,5.2-1.7,8.4-0.6,11.1c1.4,3.2,3.1,5.6-0.7,9.8c1.4-3.3,1.7-4.8,0.5-7.7
		c-0.2-0.4-0.3-0.8-0.5-1.2C98,112.6,98.3,109.1,101.9,105.2L101.9,105.2L101.9,105.2z M111.5,108.3c-4.7,2.9-5.2,5.6-1.8,9.8
		l-0.1-0.1c5.8,10.3-9.9,7.8,0.7,20.3l0,0c-2.2-4.1-4.1-7-1-11.1c0.8-0.6,1.1-0.8,1.6-1.3c0.2-0.2,0.3-0.3,0.5-0.6
		c2.2-2.9,1.2-4.8-0.2-6.6C109.2,116.1,106.3,113.5,111.5,108.3L111.5,108.3z"/>
	<path class="st22" d="M67.8,119.1c0-3,1.3-4.8,3.1-5.9c2.1-1.4,5-1.9,7.8-2.7h0c6.6-2,5.4-6.5,3.6-12.5v0c-1-4.2-0.6-5.3,0.7-9.4
		l0,0c-0.4,3.5-1,5.6,0.2,9c6.4,18.3-7.3,11.3-13.3,17.5C69,116.2,68.3,117.4,67.8,119.1L67.8,119.1z"/>
	<path class="st22" d="M163.3,119.7c0-3-1.3-4.8-3.1-5.9c-2.1-1.4-5-1.9-7.8-2.7h0c-6.6-2-5.4-6.5-3.6-12.5v0c1-4.2,0.6-5.3-0.7-9.4
		l0,0c0.4,3.5,1,5.6-0.2,9c-6.4,18.3,7.3,11.3,13.3,17.5C162.1,116.8,162.9,118,163.3,119.7L163.3,119.7z"/>
	<path class="st2" d="M128.9,105.3c2.7,5.2,1.7,8.4,0.6,11.1c-1.4,3.2-3.1,5.6,0.7,9.8c-1.4-3.3-1.7-4.8-0.5-7.7
		c0.1-0.4,0.3-0.8,0.5-1.2C132.9,112.7,132.6,109.2,128.9,105.3L128.9,105.3L128.9,105.3z M119.3,108.4c4.7,2.9,5.2,5.6,1.8,9.8
		l0.1-0.1c-5.8,10.3,9.9,7.8-0.7,20.3l0,0c2.2-4.1,4.1-7,1-11.1c-0.8-0.6-1.1-0.8-1.6-1.3c-0.2-0.2-0.3-0.3-0.5-0.6
		c-2.2-2.9-1.2-4.8,0.2-6.6C121.7,116.2,124.6,113.6,119.3,108.4L119.3,108.4z"/>
	<path class="st2" d="M104.8,34.7c-1.9-1.6-1.2-2.6-0.4-3.4c1-1,2.2-1.7-0.5-3c1,1,1.2,1.5,0.4,2.4c-0.1,0.1-0.2,0.2-0.4,0.4
		C102,32.4,102.2,33.5,104.8,34.7L104.8,34.7L104.8,34.7z M111.6,33.8c-3.3-0.9-3.7-1.7-1.2-3l0,0c4.1-3.2-6.9-2.4,0.5-6.3l0,0
		c-1.5,1.3-2.9,2.2-0.7,3.4c0.5,0.2,0.8,0.2,1.1,0.4c0.1,0,0.2,0.1,0.3,0.2c1.6,0.9,0.9,1.5-0.1,2.1
		C109.9,31.4,107.9,32.1,111.6,33.8L111.6,33.8z"/>
	<path class="st2" d="M126.1,34.7c2-1.6,1.3-2.6,0.4-3.4c-1.1-1-2.4-1.7,0.5-3c-1.1,1-1.3,1.5-0.4,2.4c0.1,0.1,0.2,0.2,0.4,0.4
		C129.2,32.4,129,33.5,126.1,34.7L126.1,34.7L126.1,34.7z M118.8,33.7c3.6-0.9,4-1.7,1.4-3l0.1,0c-4.4-3.2,7.6-2.4-0.5-6.3l0,0
		c1.7,1.3,3.2,2.2,0.8,3.4c-0.6,0.2-0.8,0.2-1.2,0.4c-0.1,0-0.2,0.1-0.4,0.2c-1.7,0.9-0.9,1.5,0.1,2.1
		C120.6,31.3,122.8,32.1,118.8,33.7L118.8,33.7z"/>
	<path class="st36" d="M45,222l9,2.7C54,224.8,47.7,225.1,45,222z"/>
	<path class="st36" d="M51,227.3l-8-2.7C43,224.6,48.2,228.1,51,227.3z"/>
	<path class="st36" d="M48.7,229.7l-6.7-1.5C42.1,228.2,45.7,230.6,48.7,229.7z"/>
	<path class="st36" d="M47,232.7l-5.3-1.5C41.7,231.2,45.5,233.3,47,232.7z"/>
	<path class="st15" d="M51.5,219.8l-2,2.4L45,221c0,0,0.8-2.6,2-2.6C48.1,218.3,51.5,219.8,51.5,219.8L51.5,219.8z"/>
	<path class="st36" d="M186.4,222.4l-8.5,1.4C177.9,223.8,183.5,225.1,186.4,222.4z"/>
	<path class="st36" d="M180.2,226.8l7.6-1.5C187.8,225.3,182.6,228,180.2,226.8z"/>
	<path class="st36" d="M181.9,229.5l6.3-0.6C188.2,228.9,184.6,230.8,181.9,229.5z"/>
	<path class="st36" d="M183.1,232.7l5.1-0.7C188.2,232,184.4,233.5,183.1,232.7z"/>
	<path class="st15" d="M180.7,219.3l1.5,2.7l4.3-0.5c0,0-0.3-2.6-1.4-2.9S180.7,219.3,180.7,219.3L180.7,219.3z"/>
	<path class="st34" d="M78.2,235.6c0,0,2.6-3.1,5.4-1.9c2.8,1.2,4.2,3.4,4.2,3.4l-0.6-4.2l-9.2-1.1L78.2,235.6L78.2,235.6z"/>
	<path class="st2" d="M97.8,72.1c-1,0.1-1.8-0.6-1.9-1.5c-0.1-0.9,0.6-1.8,1.6-1.8c0.5,0,0.7-0.4,0.9-0.7c0.6-0.8,1.1-1.5,2.5-1.8
		c1.6-0.3,4.2,0,6.5,0.3c1.1,0.1,2.1,0.2,2.8,0.3c0.2-0.6,0.9-1.1,1.7-1.1c1,0,1.7,0.8,1.7,1.7c0,1-0.4,1.7-0.9,2.2
		c-0.6,0.5-1.2,0.6-1.9,0.6c-1,0-2.4-0.1-3.8-0.3c-2-0.2-4.3-0.5-5.4-0.3c0,0-0.2,0.2-0.3,0.4C100.6,70.9,99.9,71.9,97.8,72.1
		L97.8,72.1z"/>
</g>
</svg>
