<?xml version="1.0" encoding="UTF-8"?><svg xmlns="http://www.w3.org/2000/svg" xmlns:xlink="http://www.w3.org/1999/xlink" viewBox="0 0 271.81 102.14"><defs><style>.c{opacity:.72;}.d{fill:#868583;}.e{fill:#fff;}.f{fill:#f68f4d;}.g{fill:#d96327;}.h{fill:#b1632c;}.i{fill:#ebc057;}.j{opacity:.5;}.k{opacity:.17;}.k,.l,.m,.n,.o,.p{mix-blend-mode:overlay;}.q{isolation:isolate;}.r{fill:#e1932a;}.s{fill:#5b5aa7;}.t{opacity:.58;}.t,.u,.v{mix-blend-mode:soft-light;}.w{fill:#d4f998;}.x{fill:#9aa859;}.y{fill:#efc962;}.a`{opacity:.63;}.aa{fill:#93be48;}.ab{fill:#ccc9c9;}.ac{fill:#a4a7d3;}.ad{fill:#93928e;}.l,.v{opacity:.76;}.ae{fill:#dda72d;}.m{opacity:.09;}.af{clip-path:url(#b);}.u{opacity:.6;}.n{opacity:.33;}.ag{fill:#e5e5e4;}.o{opacity:.78;}.ah{fill:none;}.p{opacity:.3;}.ai{fill:#8d8787;}.aj{fill:#a29c87;}.ak{fill:#e27f3b;}.al{fill:#bacd4e;}.am{fill:#a7a4a4;}.an{fill:#eb7c2d;}</style><clipPath id="b"><path class="ah" d="M43.48,40.75s1.95,3.22,5.98,3.54c4.03,.32,4.86-.48,7.16-.48,2.3,0,2.89-1.1,3.49-.9,.6,.2,3.37,1.45,4.96,.94,1.59-.51,2.02-1.56,4.73-1.45,2.71,.1,8.34-1.15,7.86-2.84-.49-1.69-16.31-6.52-16.31-6.52l-16.37,.37-1.52,7.35Z"/></clipPath></defs><g class="q"><g id="a"><g><path class="j" d="M138.41,99.14c-16.95,0-33.4-.81-48.9-2.41-15.05-1.55-28.59-3.79-40.25-6.63-11.97-2.92-21.48-6.38-28.24-10.29-8.63-4.98-13.01-10.87-13.01-17.5,0-6.03,3.62-11.45,10.78-16.13,1.58-11.88,24.83-16.14,44.84-16.14,2.51,0,5.04,.07,7.53,.21,2.29-.35,4.64-.69,7.02-1.01,.59-1.89,1.36-4.11,3-6.03,10.26-12.03,30.07-15.2,39.1-15.2,1.03,0,2,.04,2.89,.11,2.49,.21,3.63,2.01,4.06,2.69,.39,.62,1.29,2.05,2.53,3.95,4.42-1.74,8.78-2.97,13.21-3.74,.09-.02,.18-.04,.27-.05,2.52-.44,5.07-.71,7.8-.85,1.01-.05,2.03-.07,3.05-.07,13.62,0,25.87,4.12,38.85,8.48l2.56,.86c9.6,3.18,12.58,6.1,13.51,8.1,1.78-.07,3.58-.1,5.38-.1,20.73,0,44.93,4.57,44.93,17.44,0,.31-.02,.61-.05,.93-.01,.4-.05,.79-.12,1.19,6.42,4.5,9.67,9.66,9.67,15.37,0,6.63-4.38,12.52-13.01,17.5-6.76,3.9-16.26,7.37-28.24,10.29-11.66,2.85-25.2,5.08-40.25,6.63-15.5,1.6-31.95,2.41-48.9,2.41Z"/><path class="e" d="M133.41,94.14c-16.95,0-33.4-.81-48.9-2.41-15.05-1.55-28.59-3.79-40.25-6.63-11.97-2.92-21.48-6.38-28.24-10.29-8.63-4.98-13.01-10.87-13.01-17.5,0-6.03,3.62-11.45,10.78-16.13,1.58-11.88,24.83-16.14,44.84-16.14,2.51,0,5.04,.07,7.53,.21,2.29-.35,4.64-.69,7.02-1.01,.59-1.89,1.36-4.11,3-6.03,10.26-12.03,30.07-15.2,39.1-15.2,1.03,0,2,.04,2.89,.11,2.49,.21,3.63,2.01,4.06,2.69,.39,.62,1.29,2.05,2.53,3.95,4.42-1.74,8.78-2.97,13.21-3.74,.09-.02,.18-.04,.27-.05,2.52-.44,5.07-.71,7.8-.85,1.01-.05,2.03-.07,3.05-.07,13.62,0,25.87,4.12,38.85,8.48l2.56,.86c9.6,3.18,12.58,6.1,13.51,8.1,1.78-.07,3.58-.1,5.38-.1,20.73,0,44.93,4.57,44.93,17.44,0,.31-.02,.61-.05,.93-.01,.4-.05,.79-.12,1.19,6.42,4.5,9.67,9.66,9.67,15.37,0,6.63-4.38,12.52-13.01,17.5-6.76,3.9-16.26,7.37-28.24,10.29-11.66,2.85-25.2,5.08-40.25,6.63-15.5,1.6-31.95,2.41-48.9,2.41Z"/><g><path class="k" d="M251.44,56.83c0,15.17-52.89,27.47-118.15,27.47-17.91,0-34.87-.92-50.08-2.58,49.57-1.71,137.6-6.23,147.66-21.69,5.06-7.78-11.07-18.1-21.69-24.26,25.84,5.04,42.26,12.6,42.26,21.05Z"/><g><ellipse class="am" cx="133.41" cy="57.31" rx="123.96" ry="30.25"/><path class="ab" d="M133.41,89.14c-16.78,0-33.06-.8-48.39-2.38-14.82-1.53-28.14-3.72-39.58-6.51-11.51-2.81-20.57-6.09-26.93-9.76-6.98-4.02-10.51-8.46-10.51-13.17s3.54-9.15,10.51-13.17c6.36-3.67,15.42-6.95,26.93-9.76,11.44-2.79,24.76-4.98,39.58-6.51,15.33-1.58,31.61-2.38,48.39-2.38s33.06,.8,48.39,2.38c14.82,1.53,28.14,3.72,39.58,6.51,11.51,2.81,20.57,6.09,26.93,9.76,6.98,4.02,10.51,8.46,10.51,13.17s-3.54,9.15-10.51,13.17c-6.36,3.67-15.42,6.95-26.93,9.76-11.44,2.79-24.76,4.98-39.58,6.51-15.33,1.58-31.61,2.38-48.39,2.38Zm0-60.5c-33.01,0-64.02,3.13-87.33,8.82-11.26,2.75-20.07,5.93-26.2,9.47-5.87,3.39-8.97,6.98-8.97,10.38s3.1,6.99,8.97,10.38c6.13,3.54,14.95,6.72,26.2,9.47,23.31,5.69,54.33,8.82,87.33,8.82s64.02-3.13,87.33-8.82c11.26-2.75,20.07-5.93,26.2-9.47,5.87-3.39,8.97-6.98,8.97-10.38s-3.1-6.99-8.97-10.38c-6.13-3.54-14.95-6.72-26.2-9.47-23.31-5.69-54.33-8.82-87.33-8.82Z"/><path class="aj" d="M255.19,56.83c0,15.17-54.49,27.47-121.73,27.47-18.45,0-35.93-.92-51.6-2.58-41.43-4.4-70.13-13.88-70.13-24.89,0-15.17,54.49-27.47,121.73-27.47,29.77,0,57.03,2.41,78.18,6.42,26.62,5.04,43.54,12.6,43.54,21.05Z"/><path class="ai" d="M255.2,56.83c0,.62-.09,1.22-.27,1.82-4.16-14.32-56.95-25.65-121.45-25.65S16.17,44.33,12.02,58.66c-.19-.6-.27-1.21-.27-1.82,0-15.17,54.49-27.47,121.73-27.47s121.73,12.3,121.73,27.47Z"/><g class="k"><path d="M50.49,67.57c-.68-.13-1.35-.28-2.02-.44-.67-.16-1.34-.33-2.01-.5-1.34-.35-2.67-.74-3.99-1.17-.66-.22-1.32-.44-1.98-.68-.33-.12-.66-.24-.98-.37-.33-.13-.65-.26-.98-.39-.65-.27-1.3-.56-1.94-.86-.64-.31-1.28-.64-1.9-1.01-.63-.37-1.24-.77-1.85-1.24-.3-.23-.6-.49-.88-.77-.29-.28-.56-.59-.82-.94-.06-.09-.13-.18-.19-.28l-.09-.14-.09-.15-.04-.08s-.03-.05-.04-.08l-.08-.16c-.03-.06-.05-.11-.07-.17l-.04-.09s-.02-.06-.03-.09l-.06-.18-.05-.19s-.02-.06-.03-.1l-.02-.1c-.01-.07-.03-.13-.04-.2-.04-.27-.06-.55-.04-.83,.01-.14,.02-.28,.05-.42l.02-.1v-.05l.02-.05c.02-.07,.03-.13,.05-.2,.07-.26,.17-.51,.28-.73,.22-.45,.5-.84,.79-1.17,.29-.33,.6-.61,.91-.87,.31-.26,.63-.49,.95-.7,.32-.21,.65-.41,.97-.59,.33-.18,.65-.35,.98-.52,.66-.32,1.32-.61,1.99-.88,.67-.27,1.34-.51,2.01-.74,1.34-.46,2.69-.85,4.05-1.21,.68-.18,1.35-.35,2.03-.51l2.03-.46,1.01-.23,.25-.06,.25-.05,.51-.1,2.03-.42c.68-.14,1.36-.26,2.04-.39l2.04-.38c.34-.06,.68-.12,1.02-.17l1.02-.17,1.02-.17c.34-.06,.68-.12,1.02-.17l2.05-.31c.68-.1,1.36-.21,2.05-.3l2.05-.28,1.02-.14,1.02-.13,2.05-.25c.34-.04,.68-.09,1.03-.12l1.03-.12c5.47-.62,10.95-1.1,16.43-1.47,5.48-.37,10.97-.63,16.46-.79l2.06-.05c.69-.02,1.37-.03,2.06-.05l2.06-.04c.69-.01,1.37-.02,2.06-.02,2.74-.03,5.49-.03,8.23,0,2.74,.02,5.49,.08,8.23,.17,2.74,.09,5.49,.2,8.23,.39-5.48,.47-10.94,.88-16.41,1.3-5.46,.42-10.93,.85-16.38,1.28-10.91,.89-21.81,1.83-32.67,3.05-1.36,.14-2.71,.32-4.07,.47l-1.02,.12-1.02,.13-2.03,.26c-.68,.08-1.35,.18-2.03,.27l-2.03,.27c-.34,.04-.68,.1-1.01,.14l-1.01,.15-2.03,.3-2.02,.32c-.67,.11-1.35,.2-2.02,.33l-2.02,.35-.5,.09-.25,.04-.25,.05-1,.19-2.01,.38c-.67,.13-1.33,.27-1.99,.41-.66,.14-1.32,.29-1.97,.46-.66,.16-1.31,.33-1.95,.51-1.29,.37-2.56,.78-3.77,1.29-.3,.13-.6,.26-.89,.4-.29,.14-.57,.29-.85,.45l-.2,.12c-.07,.04-.13,.08-.2,.12-.07,.04-.13,.08-.19,.13-.06,.04-.13,.09-.19,.13-.25,.18-.47,.36-.67,.56-.2,.19-.36,.4-.47,.59-.06,.1-.1,.19-.14,.29,0,.02-.01,.05-.02,.07v.03l-.02,.03s-.02,.09-.03,.14c0,.09-.02,.19,0,.29,0,.02,0,.05,0,.08v.04s.01,.03,.01,.04c0,.03,.01,.05,.02,.08,0,.03,.02,.06,.02,.08,0,.01,0,.03,.01,.04l.02,.04s.02,.06,.03,.09l.04,.09s.01,.03,.02,.04l.02,.04,.04,.09,.05,.09c.03,.06,.07,.12,.11,.18,.15,.25,.34,.49,.55,.72,.21,.24,.44,.46,.68,.69,.48,.44,1.02,.85,1.57,1.24,1.11,.78,2.3,1.47,3.52,2.11,1.22,.64,2.46,1.24,3.72,1.81,1.26,.57,2.53,1.1,3.82,1.62,1.28,.52,2.58,1.01,3.88,1.48Z"/></g></g><g><g><path class="i" d="M198.34,34.57s-.01,0-.01,.01c-5.97,11.14-26.38,16.4-27.24,15.54-1.93-.74-3.85-6.45-3.85-6.45l10.63-17.93,14.44-.72h.01l7.14-.36c1.01,3.7,.44,7.01-1.12,9.91Z"/><path class="k" d="M198.32,34.58c-5.97,11.14-26.38,16.4-27.24,15.54-1.93-.74-3.85-6.45-3.85-6.45l10.63-17.93,14.44-.72h.01c2.25,.37,5.58,3.64,5.59,4.3,.1,7.39-9.44,7.54-12.29,9.05-2.84,1.51-10.08,7.47-9.63,9.78,.47,2.29,12.87-5.33,16.03-8.03,1.71-1.46,4.29-3.75,6.3-5.54Z"/><path class="y" d="M196.31,31.83c-1.83,2.22-4.47,3.92-7.54,4.68-2.94,.75-5.07,1.28-7.3,3.19-2.16,1.85-3.86,4.07-5.46,6.29-.91,1.28-2.47,4.38-4.73,4.21-1.36-.11-7.09-2.47-14.51-5.79-1.14-.52-2.32-1.04-3.53-1.59-15.08-6.83-34.9-16.35-40.86-19.22-.82-.4,.86-2.43,1.63-2.9,8.99-5.45,17.22-8.47,25.01-9.8,.02-.01,.05-.01,.07-.02,2.43-.42,4.83-.66,7.19-.78,14.76-.68,28.19,4.19,42.63,9.02,6.07,2.01,10.52,4.63,10.54,5.53,.57,2.83-1.35,5-3.15,7.18Z"/><g class="l"><path d="M133.64,21.8c-.43,.23-.88,.42-1.34,.59-.46,.18-.92,.34-1.38,.5-.47,.15-.93,.3-1.4,.43-.24,.07-.47,.13-.71,.19-.24,.06-.47,.11-.71,.15-.12,.02-.23,.04-.34,.05-.11,.01-.22,.01-.29,0h-.02s0,0,0,0h.02s.01,.02,.02,.03c0,0,.01,.01,.02,.02,0,0,0,.02,.01,.03,0,0,0,.02,0,.03,0,0,0,.02,0,.02,0,.03,0,.03,0,.03,0,0,.02-.04,.05-.07,.02-.02,.03-.03,.05-.05,.02-.02,.03-.03,.05-.05,.15-.13,.35-.26,.54-.38,.1-.06,.2-.12,.3-.18,.1-.06,.21-.12,.31-.17,.42-.23,.85-.44,1.29-.65,.22-.11,.44-.21,.66-.31l.67-.31c-.13,.02-.25,.05-.37,.07-.12,.03-.25,.06-.37,.09-.25,.06-.49,.13-.73,.2-.48,.15-.95,.32-1.41,.52-.23,.1-.46,.21-.68,.32-.11,.06-.22,.12-.33,.19-.11,.07-.22,.14-.32,.22-.05,.04-.11,.09-.16,.14-.05,.06-.11,.11-.15,.21-.02,.05-.05,.11-.04,.19,0,.02,0,.04,0,.06,0,.02,.01,.05,.02,.07,0,.02,.02,.04,.04,.06,.01,.02,.03,.04,.05,.06,.02,.01,.03,.03,.05,.04,0,0,.02,.01,.03,.02h.02s.03,.03,.05,.04c.02,0,.03,.01,.04,.02,.03,.01,.06,.02,.08,.03,.02,0,.05,.01,.07,.02,.18,.03,.33,.02,.47,0,.14-.01,.28-.03,.41-.05,.52-.09,1.01-.23,1.5-.38,.48-.16,.95-.34,1.41-.53,.46-.2,.9-.42,1.33-.66,.21-.12,.42-.25,.62-.39,.1-.07,.2-.14,.29-.21,.09-.08,.19-.15,.27-.24Z"/></g><g class="l"><path d="M172.36,38.7c-.43,.23-.88,.42-1.34,.59-.46,.18-.92,.34-1.38,.5-.47,.15-.93,.3-1.4,.43-.24,.07-.47,.13-.71,.19-.24,.06-.47,.11-.71,.15-.12,.02-.23,.04-.34,.05-.11,.01-.22,.01-.29,0h-.02s0,0,0,0h.02s.01,.02,.02,.03c0,0,.01,.01,.02,.02,0,0,0,.02,.01,.03,0,0,0,.02,0,.03,0,0,0,.02,0,.02,0,.03,0,.03,0,.03,0,0,.02-.04,.05-.07,.02-.02,.03-.03,.05-.05,.02-.02,.03-.03,.05-.05,.15-.13,.35-.26,.54-.38,.1-.06,.2-.12,.3-.18,.1-.06,.21-.12,.31-.17,.42-.23,.85-.44,1.29-.65,.22-.11,.44-.21,.66-.31l.67-.31c-.13,.02-.25,.05-.37,.07-.12,.03-.25,.06-.37,.09-.25,.06-.49,.13-.73,.2-.48,.15-.95,.32-1.41,.52-.23,.1-.46,.21-.68,.32-.11,.06-.22,.12-.33,.19-.11,.07-.22,.14-.32,.22-.05,.04-.11,.09-.16,.14-.05,.06-.11,.11-.15,.21-.02,.05-.05,.11-.04,.19,0,.02,0,.04,0,.06,0,.02,.01,.05,.02,.07,0,.02,.02,.04,.04,.06,.01,.02,.03,.04,.05,.06,.02,.01,.03,.03,.05,.04,0,0,.02,.01,.03,.02h.02s.03,.03,.05,.04c.02,0,.03,.01,.04,.02,.03,.01,.06,.02,.08,.03,.02,0,.05,.01,.07,.02,.18,.03,.33,.02,.47,0,.14-.01,.28-.03,.41-.05,.52-.09,1.01-.23,1.5-.38,.48-.16,.95-.34,1.41-.53,.46-.2,.9-.42,1.33-.66,.21-.12,.42-.25,.62-.39,.1-.07,.2-.14,.29-.21,.09-.08,.19-.15,.27-.24Z"/></g><g class="l"><path d="M162.71,23.41c-.43,.23-.88,.42-1.34,.59-.46,.18-.92,.34-1.38,.5-.47,.15-.93,.3-1.4,.43-.24,.07-.47,.13-.71,.19-.24,.06-.47,.11-.71,.15-.12,.02-.23,.04-.34,.05-.11,.01-.22,.01-.29,0h-.02s0,0,0,0h.02s.01,.02,.02,.03c0,0,.01,.01,.02,.02,0,0,0,.02,.01,.03,0,0,0,.02,0,.03,0,0,0,.02,0,.02,0,.03,0,.03,0,.03,0,0,.02-.04,.05-.07,.02-.02,.03-.03,.05-.05,.02-.02,.03-.03,.05-.05,.15-.13,.35-.26,.54-.38,.1-.06,.2-.12,.3-.18,.1-.06,.21-.12,.31-.17,.42-.23,.85-.44,1.29-.65,.22-.11,.44-.21,.66-.31l.67-.31c-.13,.02-.25,.05-.37,.07-.12,.03-.25,.06-.37,.09-.25,.06-.49,.13-.73,.2-.48,.15-.95,.32-1.41,.52-.23,.1-.46,.21-.68,.32-.11,.06-.22,.12-.33,.19-.11,.07-.22,.14-.32,.22-.05,.04-.11,.09-.16,.14-.05,.06-.11,.11-.15,.21-.02,.05-.05,.11-.04,.19,0,.02,0,.04,0,.06,0,.02,.01,.05,.02,.07,0,.02,.02,.04,.04,.06,.01,.02,.03,.04,.05,.06,.02,.01,.03,.03,.05,.04,0,0,.02,.01,.03,.02h.02s.03,.03,.05,.04c.02,0,.03,.01,.04,.02,.03,.01,.06,.02,.08,.03,.02,0,.05,.01,.07,.02,.19,.03,.33,.02,.47,0,.14-.01,.28-.03,.41-.05,.52-.09,1.01-.23,1.5-.38,.48-.16,.95-.34,1.41-.53,.46-.2,.9-.42,1.33-.66,.21-.12,.42-.25,.62-.39,.1-.07,.2-.14,.29-.21,.09-.08,.19-.15,.27-.24Z"/></g><g class="l"><path d="M187.49,22.95c-.43,.23-.88,.42-1.34,.59-.46,.18-.92,.34-1.38,.5-.47,.15-.93,.3-1.4,.43-.24,.07-.47,.13-.71,.19-.24,.06-.47,.11-.71,.15-.12,.02-.23,.04-.34,.05-.11,.01-.22,.01-.29,0h-.02s0,0,0,0h.02s.01,.02,.02,.03c0,0,.01,.01,.02,.02,0,0,0,.02,.01,.03,0,0,0,.02,0,.03,0,0,0,.01,0,.02,0,.03,0,.03,0,.03,0,0,.02-.04,.05-.07,.02-.02,.03-.03,.05-.05,.02-.02,.03-.03,.05-.05,.15-.13,.35-.26,.54-.38,.1-.06,.2-.12,.3-.18,.1-.06,.21-.12,.31-.17,.42-.23,.85-.44,1.29-.65,.22-.11,.44-.21,.66-.31l.67-.31c-.13,.02-.25,.05-.37,.07-.12,.03-.25,.06-.37,.09-.25,.06-.49,.13-.73,.2-.48,.15-.95,.32-1.41,.52-.23,.1-.46,.21-.68,.32-.11,.06-.22,.12-.33,.19-.11,.07-.22,.14-.32,.22-.05,.04-.11,.09-.16,.14-.05,.06-.11,.11-.15,.21-.02,.05-.05,.11-.04,.19,0,.02,0,.04,0,.06,0,.02,.01,.05,.02,.07,0,.02,.02,.04,.04,.06,.01,.02,.03,.04,.05,.06,.02,.01,.03,.03,.05,.04,0,0,.02,.01,.03,.02h.02s.03,.03,.05,.04c.02,0,.03,.01,.04,.02,.03,.01,.06,.02,.08,.03,.02,0,.05,.01,.07,.02,.18,.03,.33,.02,.47,0,.14-.01,.28-.03,.41-.05,.52-.09,1.01-.23,1.5-.38,.48-.16,.95-.34,1.41-.53,.46-.2,.9-.42,1.33-.66,.21-.12,.42-.25,.62-.39,.1-.07,.2-.14,.29-.21,.09-.08,.19-.15,.27-.24Z"/></g><g class="l"><path d="M153.16,12.46c-.43,.23-.88,.42-1.34,.59-.46,.18-.92,.34-1.38,.5-.47,.15-.93,.3-1.4,.43-.24,.07-.47,.13-.71,.19-.24,.06-.47,.11-.71,.15-.12,.02-.23,.04-.34,.05-.11,.01-.22,.01-.29,0h-.02s0,0,0,0h.02s.01,.02,.02,.03c0,0,.01,.01,.02,.02,0,0,0,.02,.01,.03,0,0,0,.02,0,.03,0,0,0,.01,0,.02,0,.03,0,.03,0,.03,0,0,.02-.04,.05-.07,.02-.02,.03-.03,.05-.05,.02-.02,.03-.03,.05-.05,.15-.13,.35-.26,.54-.38,.1-.06,.2-.12,.3-.18,.1-.06,.21-.12,.31-.17,.42-.23,.85-.44,1.29-.65,.22-.11,.44-.21,.66-.31l.67-.31c-.13,.02-.25,.05-.37,.07-.12,.03-.25,.06-.37,.09-.25,.06-.49,.13-.73,.2-.48,.15-.95,.32-1.41,.52-.23,.1-.46,.21-.68,.32-.11,.06-.22,.12-.33,.19-.11,.07-.22,.14-.32,.22-.05,.04-.11,.09-.16,.14-.05,.06-.11,.11-.15,.21-.02,.05-.05,.11-.04,.19,0,.02,0,.04,0,.06,0,.02,.01,.05,.02,.07,0,.02,.02,.04,.04,.06,.01,.02,.03,.04,.05,.06,.02,.01,.03,.03,.05,.04,0,0,.02,.01,.03,.02h.02s.03,.03,.05,.04c.02,0,.03,.01,.04,.02,.03,.01,.06,.02,.08,.03,.02,0,.05,.01,.07,.02,.18,.03,.33,.02,.47,0,.14-.01,.28-.03,.41-.05,.52-.09,1.01-.23,1.5-.38,.48-.16,.95-.34,1.41-.53,.46-.2,.9-.42,1.33-.66,.21-.12,.42-.25,.62-.39,.1-.07,.2-.14,.29-.21,.09-.08,.19-.15,.27-.24Z"/></g><g class="l"><path d="M145.13,26.51c-.15,.08-.3,.15-.45,.22-.15,.07-.31,.13-.46,.19-.31,.12-.63,.23-.94,.34-.32,.11-.64,.21-.96,.3-.16,.04-.32,.09-.48,.13-.16,.04-.32,.07-.48,.1-.08,.01-.16,.02-.23,.03-.07,0-.15,0-.19,0h-.02s.01,0,.03,.02c0,0,0,0,.01,.02v.02s.02,.01,.02,.02c0,0,0,.01,0,.02,0,.02,0,.02,0,.02,0,0,.02-.03,.03-.05,.02-.02,.04-.04,.07-.07,.11-.09,.24-.18,.37-.26,.13-.08,.28-.16,.42-.24,.57-.31,1.18-.59,1.79-.87-.34,.06-.67,.15-1,.25-.33,.1-.65,.22-.96,.35-.16,.07-.31,.14-.46,.22-.15,.08-.3,.17-.45,.28-.04,.03-.07,.06-.11,.09-.04,.04-.07,.08-.1,.14-.02,.03-.03,.07-.03,.13,0,.01,0,.03,0,.04,0,.02,0,.03,.02,.05,.01,.03,.03,.06,.06,.08,.02,.02,.05,.04,.07,.05,.02,.01,.05,.02,.06,.03,.02,0,.04,.01,.06,.02,.02,0,.04,0,.05,.01,.13,.02,.22,.01,.32,0,.1,0,.19-.02,.28-.03,.36-.06,.69-.15,1.02-.26,.33-.11,.65-.23,.96-.36,.31-.14,.62-.28,.91-.45,.14-.08,.29-.17,.42-.26,.07-.05,.13-.1,.2-.15,.06-.05,.13-.1,.18-.16Z"/></g><g class="l"><path d="M173.95,27.81c-.15,.08-.3,.15-.45,.22-.15,.07-.31,.13-.46,.19-.31,.12-.63,.23-.94,.34-.32,.11-.64,.21-.96,.3-.16,.04-.32,.09-.48,.13-.16,.04-.32,.07-.48,.1-.08,.01-.16,.02-.23,.03-.07,0-.15,0-.19,0h-.02s.01,0,.03,.02c0,0,0,0,.01,.02v.02s.02,.01,.02,.02c0,0,0,.01,0,.02,0,.02,0,.02,0,.02,0,0,.02-.03,.03-.05,.02-.02,.04-.04,.07-.07,.11-.09,.24-.18,.37-.26,.13-.08,.28-.16,.42-.24,.57-.31,1.18-.59,1.79-.87-.34,.06-.67,.15-1,.25-.33,.1-.65,.22-.96,.35-.16,.07-.31,.14-.46,.22-.15,.08-.3,.17-.45,.28-.04,.03-.07,.06-.11,.09-.04,.04-.07,.08-.1,.14-.02,.03-.03,.07-.03,.13,0,.01,0,.03,0,.04,0,.02,0,.03,.02,.05,.01,.03,.03,.06,.06,.08,.02,.02,.05,.04,.07,.05,.02,.01,.05,.02,.06,.03,.02,0,.04,.01,.06,.02,.02,0,.04,0,.05,.01,.13,.02,.22,.01,.32,0,.1,0,.19-.02,.28-.03,.36-.06,.69-.15,1.02-.26,.33-.11,.65-.23,.96-.36,.31-.14,.62-.28,.91-.45,.14-.08,.29-.17,.42-.26,.07-.05,.13-.1,.2-.15,.06-.05,.13-.1,.18-.16Z"/></g><g class="l"><path d="M171.34,16.17c-.15,.08-.3,.15-.45,.22-.15,.07-.31,.13-.46,.19-.31,.12-.63,.23-.94,.34-.32,.11-.64,.21-.96,.3-.16,.04-.32,.09-.48,.13-.16,.04-.32,.07-.48,.1-.08,.01-.16,.02-.23,.03-.07,0-.15,0-.19,0h-.02s.01,0,.03,.02c0,0,0,0,.01,.02v.02s.02,.01,.02,.02c0,0,0,.01,0,.02,0,.02,0,.02,0,.02,0,0,.02-.03,.03-.05,.02-.02,.04-.04,.07-.07,.11-.09,.24-.18,.37-.26,.13-.08,.28-.16,.42-.24,.57-.31,1.18-.59,1.79-.87-.34,.06-.67,.15-1,.25-.33,.1-.65,.22-.96,.35-.16,.07-.31,.14-.46,.22-.15,.08-.3,.17-.45,.28-.04,.03-.07,.06-.11,.09-.04,.04-.07,.08-.1,.14-.02,.03-.03,.07-.03,.13,0,.01,0,.03,0,.04,0,.02,0,.03,.02,.05,.01,.03,.03,.06,.06,.08,.02,.02,.05,.04,.07,.05,.02,.01,.05,.02,.06,.03,.02,0,.04,.01,.06,.02,.02,0,.04,0,.05,.01,.13,.02,.22,.01,.32,0,.1,0,.19-.02,.28-.03,.36-.06,.69-.15,1.02-.26,.33-.11,.65-.23,.96-.36,.31-.14,.62-.28,.91-.45,.14-.08,.29-.17,.42-.26,.07-.05,.13-.1,.2-.15,.06-.05,.13-.1,.18-.16Z"/></g><path class="k" d="M153.24,42.83c-15.08-6.83-34.9-16.35-40.86-19.22-.82-.4,.86-2.43,1.63-2.9,8.99-5.45,17.22-8.47,25.01-9.8-4.04,.97-8.06,2.03-9.62,2.78-3.56,1.72,2.62,1.73-.82,3.06-3.44,1.34-16.7,3.34-11.51,8,5.19,4.67,17.34,2.48,16.4,4.56-.95,2.08,5.71,7.15,13.26,8.13,3.06,.39,5.26,2.69,6.51,5.4Z"/><g><ellipse class="i" cx="180.46" cy="32.5" rx="1.56" ry=".49" transform="translate(.77 69.04) rotate(-21.71)"/><path class="i" d="M167.36,27.41c-.14-.24-.89-.17-1.68,.16-.79,.33-1.33,.79-1.19,1.03s.89,.17,1.68-.16c.79-.33,1.33-.79,1.19-1.03Z"/><path class="i" d="M163.97,39.69c-.14-.24-.89-.17-1.68,.16-.79,.33-1.33,.79-1.19,1.03s.89,.17,1.68-.16c.79-.33,1.33-.79,1.19-1.03Z"/><ellipse class="i" cx="178.56" cy="20" rx="1.56" ry=".49" transform="translate(5.26 67.46) rotate(-21.71)"/><ellipse class="i" cx="148.18" cy="30.86" rx="1.56" ry=".49" transform="translate(-.91 56.99) rotate(-21.71)"/><path class="i" d="M161.34,15.5c-.14-.24-.89-.17-1.68,.16-.79,.33-1.33,.79-1.19,1.03,.14,.24,.89,.17,1.68-.16,.79-.33,1.33-.79,1.19-1.03Z"/><path class="i" d="M146.45,20.5c-.14-.24-.89-.17-1.68,.16s-1.33,.79-1.19,1.03c.14,.24,.89,.17,1.68-.16,.79-.33,1.33-.79,1.19-1.03Z"/><path class="i" d="M142.86,13.65c-.14-.24-.89-.17-1.68,.16-.79,.33-1.33,.79-1.19,1.03,.14,.24,.89,.17,1.68-.16,.79-.33,1.33-.79,1.19-1.03Z"/><ellipse class="i" cx="127.2" cy="20.36" rx="1.56" ry=".49" transform="translate(1.49 48.49) rotate(-21.71)"/><path class="i" d="M194.43,25.01c-.14-.24-.89-.17-1.68,.16-.79,.33-1.33,.79-1.19,1.03,.14,.24,.89,.17,1.68-.16,.79-.33,1.33-.79,1.19-1.03Z"/></g><g class="k"><path d="M179.89,45.68c.36-.14,.72-.3,1.06-.46,.35-.16,.69-.33,1.03-.51,.68-.35,1.34-.72,1.99-1.11,.65-.39,1.28-.81,1.89-1.27,.3-.23,.6-.47,.89-.73,.07-.06,.14-.13,.21-.2,.07-.07,.14-.14,.21-.22,.02-.02,.03-.04,.05-.06l.05-.06,.1-.12s.06-.09,.09-.14l.06-.1c.06-.09,.15-.18,.26-.27,.11-.09,.24-.18,.38-.27,.28-.18,.6-.34,.93-.5,.33-.16,.67-.3,1.02-.45l1.05-.44c.7-.3,1.42-.6,2.11-.95,.34-.18,.68-.36,1-.58,.16-.11,.31-.22,.45-.35,.14-.13,.27-.26,.36-.41-.15,.11-.31,.21-.48,.29-.17,.08-.34,.15-.52,.22-.35,.13-.72,.25-1.08,.36-.73,.22-1.48,.43-2.22,.65l-.56,.17c-.19,.06-.37,.12-.56,.18-.37,.12-.74,.26-1.11,.41-.37,.15-.74,.32-1.1,.53-.18,.11-.36,.23-.53,.36-.04,.03-.09,.07-.13,.11-.04,.04-.08,.08-.12,.12-.08,.08-.16,.18-.23,.28l-.05,.08-.03,.04-.05,.08-.07,.09-.03,.04-.04,.04c-.05,.06-.1,.12-.16,.18l-.09,.09s-.06,.06-.09,.09c-.24,.24-.51,.47-.78,.7-.27,.23-.55,.45-.84,.68l-.43,.34c-.14,.11-.29,.22-.43,.34-1.16,.9-2.34,1.78-3.49,2.72Z"/></g><g class="t"><path class="e" d="M173.05,46.21c.99-1.15,1.97-2.3,2.97-3.44,.5-.57,1-1.13,1.51-1.69l.39-.42,.19-.21,.2-.2,.39-.41,.4-.4c.13-.14,.27-.26,.41-.39,.14-.13,.27-.26,.41-.38l.21-.18,.1-.09s.03-.03,.05-.04l.05-.04c.13-.1,.28-.2,.44-.29,.16-.09,.32-.18,.49-.27,.17-.08,.35-.17,.52-.25,.36-.16,.72-.31,1.09-.46,.74-.29,1.5-.58,2.27-.86,.76-.28,1.53-.57,2.29-.87,.76-.3,1.52-.62,2.27-.96,.75-.35,1.48-.71,2.19-1.12,.71-.41,1.4-.87,2.02-1.39,.31-.26,.61-.54,.88-.84,.27-.3,.51-.62,.72-.96,.03-.04,.05-.08,.08-.13l.07-.13c.05-.09,.09-.18,.13-.27,.02-.05,.04-.09,.06-.13l.05-.13c.04-.09,.07-.17,.11-.26,.13-.35,.25-.71,.34-1.07,.05-.18,.08-.37,.12-.55,.02-.19,.06-.37,.07-.56,.03-.37,.03-.75-.03-1.12-.05-.37-.15-.74-.3-1.09-.15-.35-.36-.68-.62-.98-.06-.08-.14-.14-.2-.22-.04-.03-.07-.07-.11-.1l-.06-.05-.06-.05c-.15-.13-.32-.24-.5-.35-.18-.1-.37-.19-.56-.26-.2-.07-.4-.12-.61-.14,.1,.02,.2,.05,.29,.09,.09,.04,.19,.08,.27,.12,.18,.09,.34,.2,.49,.31,.15,.12,.29,.24,.42,.38l.05,.05,.04,.05s.06,.07,.09,.1c.05,.07,.11,.14,.16,.22,.2,.3,.35,.61,.45,.94,.1,.33,.15,.67,.16,1.01,.01,.34-.02,.68-.08,1.02-.03,.17-.07,.34-.11,.5-.05,.17-.09,.33-.15,.5-.03,.08-.05,.16-.09,.25l-.1,.24s-.03,.08-.05,.12l-.05,.12-.11,.24c-.04,.08-.08,.16-.12,.24l-.06,.12s-.04,.08-.06,.12c-.04,.07-.08,.15-.13,.22l-.07,.11s-.05,.07-.07,.11c-.19,.28-.42,.55-.68,.81-.25,.26-.53,.5-.82,.72-.59,.45-1.23,.86-1.91,1.24-.68,.37-1.39,.72-2.12,1.04-.72,.32-1.47,.63-2.22,.92-.75,.3-1.51,.58-2.27,.88l-1.14,.44c-.38,.15-.76,.3-1.14,.46-.38,.16-.76,.33-1.13,.51-.38,.18-.75,.38-1.11,.61-.18,.12-.36,.24-.53,.38l-.06,.05s-.04,.04-.06,.05l-.11,.1-.22,.21c-.15,.14-.28,.28-.41,.42-.13,.14-.27,.28-.4,.43-1.03,1.15-1.95,2.35-2.83,3.57-.44,.61-.86,1.23-1.28,1.85-.41,.62-.81,1.25-1.2,1.88Z"/></g></g><g><path class="ae" d="M105.01,23.35s-10.95-9.38-10.97-9.37c-5.27,2.03-10.42,4.79-13.59,10.05-2.88-.97-6.57,13.47-3.2,20.35-.26,2.51,13.54,4.45,22.39,4.94,7.11,.81,20.72,1.85,29.75,.1,7.48-.61,14.13-1.72,17.58-3.47,.79-.5,2.23-2.03,2.69-2.98,0,0-19.19-3.41-25.21-6.11-7.41-3.32-14.07-7.87-19.44-13.51Z"/><path class="i" d="M149.66,42.97c-1.07,.67-2.35,1.27-3.81,1.8-.36,.13-.72,.25-1.1,.37-19.53,6.21-66.22,1.43-67.18-1.77-1.39-4.64-1.54-9.69-.54-14.32h0c.17-.79,.37-1.56,.6-2.31,.58-1.89,1.11-3.84,2.35-5.29,9.17-10.74,28.98-14.08,37.79-13.36,.02,0,6.15,9.97,12.49,18.22,8.3,10.81,19.4,16.66,19.4,16.66Z"/><g class="a`"><g class="n"><path d="M82.91,21.24c.26,.1,.53,.17,.8,.23,.27,.06,.55,.11,.83,.15,.56,.07,1.13,.1,1.71,.08,.14,0,.29-.01,.43-.02,.07,0,.14,0,.22-.02l.21-.02c.14-.02,.29-.03,.43-.05l.21-.03,.11-.02h.1c.23-.05,.46-.07,.66-.05,.21,.02,.4,.07,.6,.15,.4,.16,.81,.45,1.26,.73,.45,.28,.94,.55,1.47,.75,.53,.2,1.09,.35,1.66,.43,.14,.02,.28,.03,.43,.05,.14,0,.28,.02,.43,.02,.14,0,.28,0,.42,0,.14,0,.28-.01,.42-.02-.54-.14-1.06-.28-1.55-.46-.49-.18-.96-.38-1.4-.61l-.16-.09c-.05-.03-.11-.06-.16-.09-.05-.03-.11-.06-.16-.1-.05-.03-.1-.06-.16-.1-.21-.13-.41-.27-.61-.42-.2-.15-.41-.3-.64-.45-.23-.15-.48-.3-.78-.42-.15-.06-.31-.11-.47-.15-.08-.02-.17-.03-.25-.05-.09-.01-.17-.02-.26-.03-.34-.02-.68,.02-.98,.09l-.11,.02-.1,.02-.19,.04c-.13,.03-.26,.05-.38,.08l-.19,.04-.19,.03c-.13,.02-.26,.05-.39,.06-.52,.08-1.06,.13-1.6,.17-.54,.04-1.09,.05-1.65,.05Z"/></g><g class="n"><path d="M99.3,27.29c.26,.1,.53,.17,.8,.23,.27,.06,.55,.11,.83,.15,.56,.07,1.13,.1,1.71,.08,.14,0,.29-.01,.43-.02,.07,0,.14,0,.22-.02l.21-.02c.14-.02,.29-.03,.43-.05l.21-.03,.11-.02h.1c.23-.05,.46-.07,.66-.05,.21,.02,.4,.07,.6,.15,.4,.16,.81,.45,1.26,.73,.45,.28,.94,.55,1.47,.75,.53,.2,1.09,.35,1.66,.43,.14,.02,.28,.03,.43,.05,.14,0,.28,.02,.43,.02,.14,0,.28,0,.42,0,.14,0,.28-.01,.42-.02-.54-.14-1.06-.28-1.55-.46-.49-.18-.96-.38-1.4-.61l-.16-.09c-.05-.03-.11-.06-.16-.09-.05-.03-.11-.06-.16-.1-.05-.03-.1-.06-.16-.1-.21-.13-.41-.27-.61-.42-.2-.15-.41-.3-.64-.45-.23-.15-.48-.3-.78-.42-.15-.06-.31-.11-.47-.15-.08-.02-.17-.03-.25-.05-.09-.01-.17-.02-.26-.03-.34-.02-.68,.02-.98,.09l-.11,.02-.1,.02-.19,.04c-.13,.03-.26,.05-.38,.08l-.19,.04-.19,.03c-.13,.02-.26,.05-.39,.06-.52,.08-1.06,.13-1.6,.17-.54,.04-1.09,.05-1.65,.05Z"/></g><g class="n"><path d="M81.65,29.34c.26,.1,.53,.17,.8,.23,.27,.06,.55,.11,.83,.15,.56,.07,1.13,.1,1.71,.08,.14,0,.29-.01,.43-.02,.07,0,.14,0,.22-.02l.21-.02c.14-.02,.29-.03,.43-.05l.21-.03,.11-.02h.1c.23-.05,.46-.07,.66-.05,.21,.02,.4,.07,.6,.15,.4,.16,.81,.45,1.26,.73,.45,.28,.94,.55,1.47,.75,.53,.2,1.09,.35,1.66,.43,.14,.02,.28,.03,.43,.05,.14,0,.28,.02,.43,.02,.14,0,.28,0,.42,0,.14,0,.28-.01,.42-.02-.54-.14-1.06-.28-1.55-.46-.49-.18-.96-.38-1.4-.61l-.16-.09c-.05-.03-.11-.06-.16-.09-.05-.03-.11-.06-.16-.1-.05-.03-.1-.06-.16-.1-.21-.13-.41-.27-.61-.42-.2-.15-.41-.3-.64-.45-.23-.15-.48-.3-.78-.42-.15-.06-.31-.11-.47-.15-.08-.02-.17-.03-.25-.05-.09-.01-.17-.02-.26-.03-.34-.02-.68,.02-.98,.09l-.11,.02-.1,.02-.19,.04c-.13,.03-.26,.05-.38,.08l-.19,.04-.19,.03c-.13,.02-.26,.05-.39,.06-.52,.08-1.06,.13-1.6,.17-.54,.04-1.09,.05-1.65,.05Z"/></g><g class="n"><path d="M80.32,37.36c.26,.1,.53,.17,.8,.23,.27,.06,.55,.11,.83,.15,.56,.07,1.13,.1,1.71,.08,.14,0,.29-.01,.43-.02,.07,0,.14,0,.22-.02l.21-.02c.14-.02,.29-.03,.43-.05l.21-.03,.11-.02h.1c.23-.05,.46-.07,.66-.05,.21,.02,.4,.07,.6,.15,.4,.16,.81,.45,1.26,.73,.45,.28,.94,.55,1.47,.75,.53,.2,1.09,.35,1.66,.43,.14,.02,.28,.03,.43,.05,.14,0,.28,.02,.43,.02,.14,0,.28,0,.42,0,.14,0,.28-.01,.42-.02-.54-.14-1.06-.28-1.55-.46-.49-.18-.96-.38-1.4-.61l-.16-.09c-.05-.03-.11-.06-.16-.09-.05-.03-.11-.06-.16-.1-.05-.03-.1-.06-.16-.1-.21-.13-.41-.27-.61-.42-.2-.15-.41-.3-.64-.45-.23-.15-.48-.3-.78-.42-.15-.06-.31-.11-.47-.15-.08-.02-.17-.03-.25-.05-.09-.01-.17-.02-.26-.03-.34-.02-.68,.02-.98,.09l-.11,.02-.1,.02-.19,.04c-.13,.03-.26,.05-.38,.08l-.19,.04-.19,.03c-.13,.02-.26,.05-.39,.06-.52,.08-1.06,.13-1.6,.17-.54,.04-1.09,.05-1.65,.05Z"/></g><g class="n"><path d="M124.06,40.52c.26,.1,.53,.17,.8,.23,.27,.06,.55,.11,.83,.15,.56,.07,1.13,.1,1.71,.08,.14,0,.29-.01,.43-.02,.07,0,.14,0,.22-.02l.21-.02c.14-.02,.29-.03,.43-.05l.21-.03,.11-.02h.1c.23-.05,.46-.07,.66-.05,.21,.02,.4,.07,.6,.15,.4,.16,.81,.45,1.26,.73,.45,.28,.94,.55,1.47,.75,.53,.2,1.09,.35,1.66,.43,.14,.02,.28,.03,.43,.05,.14,0,.28,.02,.43,.02,.14,0,.28,0,.42,0,.14,0,.28-.01,.42-.02-.54-.14-1.06-.28-1.55-.46-.49-.18-.96-.38-1.4-.61l-.16-.09c-.05-.03-.11-.06-.16-.09-.05-.03-.11-.06-.16-.1-.05-.03-.1-.06-.16-.1-.21-.13-.41-.27-.61-.42-.2-.15-.41-.3-.64-.45-.23-.15-.48-.3-.78-.42-.15-.06-.31-.11-.47-.15-.08-.02-.17-.03-.25-.05-.09-.01-.17-.02-.26-.03-.34-.02-.68,.02-.98,.09l-.11,.02-.1,.02-.19,.04c-.13,.03-.26,.05-.38,.08l-.19,.04-.19,.03c-.13,.02-.26,.05-.39,.06-.52,.08-1.06,.13-1.6,.17-.54,.04-1.09,.05-1.65,.05Z"/></g><g class="n"><path d="M108.56,38.99c.26,.1,.53,.17,.8,.23,.27,.06,.55,.11,.83,.15,.56,.07,1.13,.1,1.71,.08,.14,0,.29-.01,.43-.02,.07,0,.14,0,.22-.02l.21-.02c.14-.02,.29-.03,.43-.05l.21-.03,.11-.02h.1c.23-.05,.46-.07,.66-.05,.21,.02,.4,.07,.6,.15,.4,.16,.81,.45,1.26,.73,.45,.28,.94,.55,1.47,.75,.53,.2,1.09,.35,1.66,.43,.14,.02,.28,.03,.43,.05,.14,0,.28,.02,.43,.02,.14,0,.28,0,.42,0,.14,0,.28-.01,.42-.02-.54-.14-1.06-.28-1.55-.46-.49-.18-.96-.38-1.4-.61l-.16-.09c-.05-.03-.11-.06-.16-.09-.05-.03-.11-.06-.16-.1-.05-.03-.1-.06-.16-.1-.21-.13-.41-.27-.61-.42-.2-.15-.41-.3-.64-.45-.23-.15-.48-.3-.78-.42-.15-.06-.31-.11-.47-.15-.08-.02-.17-.03-.25-.05-.09-.01-.17-.02-.26-.03-.34-.02-.68,.02-.98,.09l-.11,.02-.1,.02-.19,.04c-.13,.03-.26,.05-.38,.08l-.19,.04-.19,.03c-.13,.02-.26,.05-.39,.06-.52,.08-1.06,.13-1.6,.17-.54,.04-1.09,.05-1.65,.05Z"/></g><g class="n"><path d="M94.29,35.8c.33,.13,.69,.2,1.04,.24,.36,.04,.73,.06,1.1,.04,.09,0,.18-.01,.28-.02,.09,0,.18-.02,.27-.03,.09-.01,.18-.02,.27-.04l.14-.03h.07l.06-.02c.14-.03,.28-.04,.41-.03,.13,.01,.24,.04,.37,.1,.12,.05,.25,.13,.38,.22,.13,.08,.26,.18,.4,.27,.28,.19,.59,.37,.92,.51,.34,.14,.7,.24,1.06,.29,.36,.05,.73,.06,1.09,.03-.34-.09-.68-.18-.99-.3-.31-.12-.61-.25-.88-.41l-.1-.06-.1-.06c-.07-.04-.13-.08-.19-.13-.13-.09-.25-.18-.38-.28-.26-.19-.51-.41-.88-.58-.19-.08-.41-.15-.64-.16-.23-.01-.45,.01-.64,.06l-.13,.03-.12,.03s-.08,.02-.12,.03l-.12,.03c-.08,.02-.16,.04-.24,.05-.08,.02-.16,.03-.25,.05-.33,.06-.67,.1-1.02,.13-.35,.03-.7,.04-1.06,.04Z"/></g></g><path class="r" d="M144.75,45.14h0c-19.53,6.22-66.22,1.44-67.18-1.76-1.39-4.64-1.54-9.69-.54-14.32,.06,1.67,.3,2.18-.16,3.55-.46,1.37,0,4.12,.05,4.76s.63,4.04,.69,4.29c.06,.25-.09,2.26,5.34,3.12,5.43,.86,9.2,1.65,10.11,1.69,.91,.04,7.09,.58,8.07,.62,.98,.05,6.11,.38,8.09,.23,1.98-.15,7.72,.66,8.57,.37,.86-.29,5.78-.22,8.11-.32,2.33-.1,7.4-.33,8.33-.77s10.04-2.25,10.52-1.46Z"/><g><path class="x" d="M134.07,41.63c-.09,.05-.15,.11-.2,.17-.02,.03-.04,.06-.06,.09-.02,.03-.03,.07-.03,.1,0,.07,.01,.15,0,.22-.02,.07-.06,.13-.12,.19-.03,.03-.06,.06-.09,.08-.03,.03-.05,.06-.07,.09-.04,.06-.09,.11-.12,.17-.03,.06-.06,.12-.08,.18-.01,.03-.03,.06-.04,.09-.02,.03-.03,.06-.06,.09v.03c.06,.02,.12,0,.17,0,.05-.01,.1-.04,.14-.06,.08-.05,.14-.11,.19-.18,.05-.06,.08-.14,.1-.21,.01-.04,.02-.07,.03-.11,0-.04,0-.07,0-.11,0-.08,.02-.15,.05-.21,.04-.06,.12-.12,.16-.18,.02-.03,.04-.06,.05-.1,.01-.03,.02-.07,.02-.1,0-.07,.01-.14-.01-.23h-.03Z"/><path class="x" d="M84.12,41.05c-.18-.03-.35-.02-.52,0-.09,0-.17,.02-.25,.03-.08,.01-.16,.03-.24,.06-.16,.05-.31,.13-.47,.16-.16,.04-.33,.05-.5,.05-.17,0-.34,0-.5,0-.16,0-.32,0-.48-.01-.31-.01-.61-.04-.9-.19l-.03,.02c.07,.14,.21,.25,.37,.33,.16,.08,.35,.12,.53,.14,.18,.02,.36,0,.53-.02,.17-.02,.34-.06,.51-.11,.16-.05,.33-.09,.49-.11,.17-.02,.35-.01,.51-.03,.08,0,.17-.02,.25-.04,.08-.02,.16-.04,.24-.06,.16-.05,.31-.1,.47-.17v-.03Z"/><path class="x" d="M83.05,36.55c.03-.09,.08-.18,.13-.26,.02-.04,.05-.08,.08-.12,.03-.04,.06-.08,.09-.11,.06-.07,.13-.14,.2-.21,.04-.03,.07-.06,.11-.1,.04-.03,.08-.06,.12-.1,.08-.06,.16-.13,.25-.19,.04-.03,.09-.06,.14-.09,.05-.02,.1-.05,.15-.07,.05-.02,.1-.04,.16-.06,.05-.02,.11-.03,.16-.04,.11-.03,.23-.05,.34-.07,.23-.04,.46-.1,.68-.18,.22-.08,.44-.18,.63-.32,.19-.14,.34-.31,.43-.51,.09-.2,.11-.4,.07-.6h-.03c-.07,.18-.16,.36-.27,.51-.12,.15-.26,.28-.43,.39-.17,.11-.35,.22-.54,.31l-.15,.07c-.05,.02-.1,.04-.15,.07-.1,.05-.2,.09-.3,.14-.1,.04-.21,.08-.32,.12-.05,.02-.11,.04-.17,.05-.06,.02-.11,.03-.17,.05-.05,.02-.11,.04-.17,.05-.06,.01-.11,.04-.17,.06-.06,.02-.11,.04-.17,.06-.05,.02-.11,.05-.16,.08-.05,.03-.1,.06-.15,.1-.05,.03-.09,.07-.13,.11-.08,.08-.15,.17-.2,.26-.03,.05-.05,.1-.07,.14-.02,.05-.03,.1-.04,.15-.02,.1-.02,.2,0,.3h.03Z"/><path class="x" d="M93.78,38.71c.01,.17,.04,.34,.07,.5,.02,.08,.03,.17,.05,.25,.02,.08,.04,.16,.06,.25,.05,.16,.11,.32,.13,.49,.02,.17,.02,.34-.04,.49-.01,.04-.03,.08-.04,.12-.02,.04-.02,.08-.03,.13-.01,.04-.02,.08-.02,.13,0,.04-.01,.09-.02,.13-.02,.17-.03,.34-.03,.51,0,.17,.02,.34,.04,.51,.02,.17,.05,.34,.1,.5h.02c.05-.34,.06-.68,.07-1.01,0-.17,0-.33,0-.5,0-.08,0-.17,.01-.25,0-.04,0-.08,0-.12,0-.04,0-.08,.01-.13,.01-.09,0-.17,0-.26,0-.04,0-.09,0-.13,0-.04,0-.08,0-.13-.01-.17,0-.34-.02-.51-.01-.08-.03-.17-.05-.25-.02-.08-.05-.17-.07-.25-.06-.16-.12-.32-.22-.48h-.02Z"/></g><g class="c"><path class="r" d="M100.14,37.73c.07,.34-.69-.29-2.12-.05-1.41,.24-2.58-.62-2.56-.99,.01-.36,1.18-.51,2.61-.33,1.43,.18,1.81,.17,2.07,1.36Z"/><path class="k" d="M99.42,37.34c.04,.15-.68,.02-1.5,.1-.81,.08-1.49-.32-1.48-.48,0-.16,.68-.2,1.5-.1,.83,.1,1.33-.05,1.48,.48Z"/><path class="r" d="M131.58,42.13c.07,.34-.69-.29-2.12-.05-1.41,.24-2.58-.62-2.56-.99,.01-.36,1.18-.51,2.61-.33,1.43,.18,1.81,.17,2.07,1.36Z"/><path class="k" d="M130.86,41.74c.04,.15-.68,.02-1.5,.1-.81,.08-1.49-.32-1.48-.48s.68-.2,1.5-.1c.83,.1,1.33-.05,1.48,.48Z"/><path class="r" d="M90.65,32.05c.11,.5-1.08-.43-3.33-.09-2.22,.33-4.06-.95-4.04-1.49s1.86-.75,4.11-.46c2.25,.28,2.86,.28,3.26,2.05Z"/><path class="k" d="M89.51,31.47c.07,.22-1.08,.02-2.37,.13-1.28,.11-2.35-.49-2.34-.72,0-.23,1.07-.29,2.37-.13,1.3,.16,2.1-.06,2.34,.72Z"/><path class="r" d="M87.02,40.07c.09,.59-.91-.46-2.82,.03-1.88,.49-3.42-.95-3.4-1.59,.02-.64,1.58-.96,3.48-.72,1.9,.24,2.41,.21,2.73,2.27Z"/><path class="k" d="M86.06,39.43c.06,.26-.91,.07-2,.25-1.08,.18-1.98-.48-1.97-.75s.91-.39,2-.25,1.77-.15,1.97,.75Z"/><path class="r" d="M116.82,42.57c.09,.59-.91-.46-2.82,.03-1.88,.49-3.42-.95-3.4-1.59,.02-.64,1.58-.96,3.48-.72,1.9,.24,2.41,.21,2.73,2.27Z"/><path class="k" d="M115.87,41.93c.06,.26-.91,.07-2,.25-1.08,.18-1.98-.48-1.97-.75,.01-.28,.91-.39,2-.25,1.1,.14,1.77-.15,1.97,.75Z"/><path class="r" d="M100.47,28.24c-.12-.58,.93,.41,2.8-.21,1.85-.61,3.45,.74,3.46,1.38s-1.53,1.06-3.43,.94c-1.9-.12-2.41-.06-2.83-2.11Z"/><path class="k" d="M101.45,28.82c-.07-.26,.9-.13,1.98-.38,1.07-.25,1.99,.35,1.99,.63,0,.28-.88,.45-1.98,.38-1.1-.07-1.76,.27-1.99-.63Z"/><path class="r" d="M109.06,12.86c-.12-.58,.93,.41,2.8-.21,1.85-.61,3.45,.74,3.46,1.38,0,.64-1.53,1.06-3.43,.94s-2.41-.06-2.83-2.11Z"/><path class="k" d="M110.04,13.43c-.07-.26,.9-.13,1.98-.38,1.07-.25,1.99,.35,1.99,.63,0,.28-.88,.45-1.98,.38-1.1-.07-1.76,.27-1.99-.63Z"/><path class="r" d="M115.68,24.14c-.12-.58,.93,.41,2.8-.21,1.85-.61,3.45,.74,3.46,1.38s-1.53,1.06-3.43,.94c-1.9-.12-2.41-.06-2.83-2.11Z"/><path class="k" d="M116.65,24.72c-.07-.26,.9-.13,1.98-.38,1.07-.25,1.99,.35,1.99,.63,0,.28-.88,.45-1.98,.38-1.1-.07-1.76,.27-1.99-.63Z"/><path class="r" d="M98.83,16.93c-.12-.58,.93,.41,2.8-.21,1.85-.61,3.45,.74,3.46,1.38,0,.64-1.53,1.06-3.43,.94-1.9-.12-2.41-.06-2.83-2.11Z"/><path class="k" d="M99.81,17.51c-.07-.26,.9-.13,1.98-.38,1.07-.25,1.99,.35,1.99,.63,0,.28-.88,.45-1.98,.38-1.1-.07-1.76,.27-1.99-.63Z"/><path class="r" d="M84.53,22.3c-.12-.58,.93,.41,2.8-.21,1.85-.61,3.45,.74,3.46,1.38,0,.64-1.53,1.06-3.43,.94-1.9-.12-2.41-.06-2.83-2.11Z"/><path class="k" d="M85.51,22.88c-.07-.26,.9-.13,1.98-.38,1.07-.25,1.99,.35,1.99,.63,0,.28-.88,.45-1.98,.38-1.1-.07-1.76,.27-1.99-.63Z"/></g><path class="k" d="M145.9,44.2l-.05,.57c-.36,.13-.72,.25-1.1,.37-19.53,6.21-66.22,1.43-67.18-1.77-1.39-4.64-1.54-9.69-.54-14.32h0c.17-.79,.37-1.56,.6-2.31,.61,1.11,.96,2.47,.68,4.06-.9,4.96,4.62,11.82,11.68,12.06,7.06,.24,8.65,.2,12.8,2.28,4.15,2.07,11.42-2.69,18.37-.5,6.95,2.19,11.34-2.73,14.7-2.58,3.36,.15,10.04,2.15,10.04,2.15Z"/><g class="k"><path d="M104,11.01c.51-.1,1.03-.2,1.55-.3,.52-.1,1.03-.19,1.55-.28,1.03-.18,2.07-.35,3.11-.49,1.04-.15,2.08-.28,3.12-.36,.52-.04,1.04-.07,1.56-.09,.52-.01,1.03,0,1.53,.03l-.34-.22c.13,.35,.27,.68,.42,1.02l.11,.25,.11,.25c.08,.17,.15,.33,.23,.5,.31,.66,.64,1.32,.97,1.97,.17,.32,.34,.65,.52,.97l.27,.48c.09,.16,.18,.32,.27,.48,.19,.32,.37,.64,.56,.96l.57,.95,.59,.94c.1,.16,.2,.31,.3,.47l.31,.47,.31,.47,.31,.46c.21,.31,.42,.62,.63,.93,.86,1.23,1.75,2.43,2.69,3.62,.46,.59,.94,1.18,1.43,1.77,.48,.58,.98,1.16,1.48,1.74,.5,.57,1.01,1.14,1.53,1.71,.26,.28,.52,.56,.78,.84,.26,.28,.53,.56,.8,.83,.54,.55,1.08,1.1,1.64,1.64,.56,.54,1.13,1.07,1.7,1.59,.58,.52,1.17,1.03,1.79,1.53,.15,.12,.31,.25,.47,.37,.16,.12,.32,.24,.48,.35,.32,.23,.66,.46,1.01,.65-.34-.22-.64-.47-.94-.72-.3-.25-.59-.51-.87-.77-.57-.52-1.12-1.06-1.66-1.61-.54-.54-1.07-1.1-1.59-1.66-.52-.56-1.03-1.12-1.54-1.69-2.02-2.27-3.93-4.6-5.73-6.98-.9-1.19-1.78-2.4-2.61-3.62-.21-.3-.41-.61-.62-.92l-.31-.46-.3-.46c-.2-.31-.41-.62-.6-.93l-.59-.93-.57-.94c-.19-.31-.37-.63-.56-.94-.19-.31-.36-.63-.55-.95-.18-.32-.36-.64-.54-.95-.35-.64-.69-1.28-1.02-1.93-.08-.16-.16-.32-.24-.49-.08-.16-.16-.32-.24-.49-.16-.32-.31-.65-.44-.97l-.09-.21h-.25c-.55-.05-1.1-.03-1.64,0-.54,.03-1.07,.08-1.6,.15-1.06,.13-2.1,.3-3.14,.5-1.03,.2-2.06,.42-3.08,.67-.51,.12-1.02,.25-1.52,.38-.5,.13-1.01,.27-1.51,.42Z"/></g></g></g><path class="p" d="M249.57,47.2c.03-.17,.05-.35,.05-.53,0-6.08-17.53-10.85-39.93-10.85s-39.93,4.76-39.93,10.85c0,.56,.15,1.11,.43,1.64v4.95c-7.08-3.13-19.79-5.18-34.59-5.18-16.84,0-30.97,2.65-37.18,6.53v-3.99c.28-.53,.43-1.08,.43-1.63,0-6.08-17.53-10.85-39.93-10.85s-39.93,4.76-39.93,10.85c0,.56,.15,1.11,.43,1.64v13.4c0,.43,.1,.85,.29,1.27,.12,.27,.28,.54,.47,.82,3.64,4.82,19.59,8.44,38.73,8.44,16.5,0,30.64-2.7,36.55-6.53v6.36c0,.43,.11,.87,.3,1.29,.12,.28,.28,.55,.48,.83,3.7,4.89,19.91,8.57,39.36,8.57,22.16,0,40.13-4.79,40.13-10.69v-7.29c6.89,3.08,19.52,5.14,33.95,5.14,21.81,0,39.5-4.71,39.5-10.52v-13.01c.25-.48,.39-.97,.39-1.47v-.03Zm-78.92-.67s-.02,.09-.03,.13c0-.03,0-.06,0-.08l.03-.05Z"/><g><g><path class="ac" d="M98.12,42.48v17.26c0,6.67-17.68,12.07-39.5,12.07-19.14,0-35.09-4.16-38.73-9.68-.19-.31-.35-.62-.47-.94-.19-.48-.29-.97-.29-1.46v-17.26H98.12Z"/><path class="m" d="M98.12,42.48v17.26c0,6.67-17.68,12.07-39.5,12.07-19.14,0-35.09-4.16-38.73-9.68-.19-.31-.35-.62-.47-.94,34.33,8.44,52.08,6.8,67.09-1.89,4.75-2.75,10.42-12.28,9.98-16.82h1.63Z"/><path class="m" d="M19.89,62.13c34.06,15.19,66.66,5.25,73.51,.8,5.56-3.68,4.7-16.06,4.17-20.45h.55v17.26c0,6.67-17.68,12.07-39.5,12.07-19.14,0-35.09-4.16-38.73-9.68Z"/><ellipse class="ak" cx="58.63" cy="42.48" rx="39.5" ry="12.07"/><path class="ad" d="M98.12,42.48c0,.28-.03,.55-.1,.83-1.39-6.28-18.5-11.23-39.39-11.23s-38,4.95-39.39,11.23c-.07-.28-.1-.55-.1-.83,0-6.67,17.68-12.07,39.5-12.07s39.5,5.41,39.5,12.07Z"/><path class="s" d="M58.63,30.03c-22.4,0-39.93,5.47-39.93,12.45s17.53,12.43,39.93,12.43,39.93-5.45,39.93-12.43-17.53-12.45-39.93-12.45Zm0,24.13c-21.55,0-39.06-5.24-39.06-11.69s17.51-11.7,39.06-11.7,39.06,5.26,39.06,11.7-17.51,11.69-39.06,11.69Z"/><g class="u"><path class="e" d="M30.17,52.12c.61,.17,1.24,.31,1.86,.45,.62,.13,1.25,.25,1.88,.37,.63,.11,1.26,.22,1.89,.31l.47,.07,.47,.07c.32,.05,.63,.09,.95,.13,.16,.02,.32,.04,.47,.06l.48,.06,.48,.06,.48,.05c.63,.07,1.27,.14,1.91,.2l.95,.09c.32,.03,.64,.05,.96,.08l.48,.04,.48,.03c.32,.02,.64,.05,.96,.07,2.55,.16,5.11,.26,7.67,.3,.64,0,1.28,.02,1.92,.02h1.92c1.28,0,2.56-.03,3.84-.06l.96-.03h.48l.48-.03,1.92-.07,1.92-.08,1.92-.1c.64-.04,1.28-.07,1.92-.11l.96-.06c.32-.02,.64-.04,.96-.07,.64-.05,1.28-.1,1.91-.15l.96-.08,.95-.09,.48-.05,.48-.05c.32-.03,.64-.07,.95-.1,.63-.08,1.27-.15,1.9-.23,1.27-.16,2.53-.35,3.78-.57,1.25-.22,2.5-.47,3.73-.78,.61-.16,1.22-.33,1.82-.52,.3-.1,.6-.2,.89-.31,.15-.06,.29-.12,.43-.18,.14-.06,.28-.13,.42-.2-.24,.18-.51,.34-.79,.48-.28,.15-.56,.28-.85,.41-.58,.26-1.17,.49-1.77,.7-1.2,.42-2.44,.78-3.69,1.09-1.25,.31-2.51,.58-3.78,.82-1.27,.24-2.55,.44-3.83,.62l-.96,.13-.96,.12c-.64,.08-1.29,.15-1.93,.22-.32,.04-.64,.07-.97,.1l-.97,.09c-.64,.06-1.29,.11-1.93,.16-.65,.05-1.29,.09-1.94,.13l-1.94,.11c-1.29,.06-2.59,.11-3.88,.15h-.49l-.49,.02h-.97l-.49,.02h-1.46c-1.3,0-2.59-.03-3.89-.07-.32-.01-.65-.03-.97-.04-.32-.01-.65-.03-.97-.04-.65-.04-1.3-.07-1.94-.12-1.29-.09-2.59-.2-3.87-.34-.32-.03-.64-.07-.97-.11l-.48-.06-.48-.06c-.32-.04-.64-.08-.96-.13l-.96-.14c-.32-.05-.64-.1-.96-.15-.32-.05-.64-.11-.95-.16l-.48-.09-.48-.09c-.32-.06-.63-.12-.95-.19-.32-.07-.63-.13-.94-.2l-.47-.1-.47-.11c-.63-.15-1.25-.31-1.86-.48-1.23-.35-2.45-.73-3.61-1.22Z"/></g><g class="u"><path class="e" d="M20.84,48.1c.39,1.53,.7,3.06,1.02,4.58l.24,1.14c.08,.38,.16,.76,.25,1.13,.08,.38,.17,.75,.26,1.12,.09,.37,.19,.74,.29,1.11,.1,.37,.22,.73,.35,1.08,.13,.35,.28,.69,.46,.99,.02,.04,.04,.07,.07,.11l.03,.05s.02,.03,.04,.05l.03,.05s.01,.02,.03,.03c.01,.01,.02,.02,.04,.04,.01,.01,.03,.03,.04,.04,.12,.11,.28,.22,.45,.33,.34,.22,.7,.43,1.08,.63,.75,.41,1.52,.8,2.3,1.2l1.17,.59,.59,.3,.3,.15c.1,.05,.2,.1,.3,.14-.11-.01-.23-.04-.34-.06-.11-.02-.22-.05-.33-.08-.22-.05-.44-.11-.66-.17-.44-.12-.87-.25-1.3-.38-.86-.28-1.7-.58-2.53-.93-.41-.18-.83-.37-1.23-.59-.2-.11-.41-.23-.62-.39-.03-.02-.05-.04-.08-.06-.03-.02-.05-.05-.08-.07-.03-.02-.05-.05-.08-.08-.02-.03-.04-.05-.06-.07-.02-.02-.04-.05-.06-.07l-.06-.07s-.07-.1-.1-.14c-.13-.19-.24-.38-.34-.58-.1-.19-.18-.38-.26-.58-.16-.38-.28-.77-.4-1.16-.11-.39-.21-.77-.29-1.16-.08-.39-.16-.78-.22-1.17-.06-.39-.12-.78-.17-1.17l-.07-.58-.05-.59c-.06-.78-.1-1.56-.1-2.34,0-.39,0-.78,.02-1.17,.02-.39,.04-.78,.08-1.17Z"/></g><g class="af"><g><g><path class="aa" d="M54.64,41.99s-.27,4.2-1.14,2.61c0,0-.98,2.36-1.04,1.2,0,0-.51,.75-.83,.53-.32-.21,.17-.89,.17-.89,0,0-.64,.1-.62-.13s.33-.72,.33-.72c0,0-1.75,1.39-2.04,.97-.28-.42,0-1.03,0-1.03,0,0-1.91,.29-1.78-.25,.13-.54,2.01-.95,2.01-.95,0,0-.58-.33-.36-.62,.22-.29,1.85,.01,1.85,.01,0,0-.92-.2-.61-.35,.31-.15,.43-.04,.43-.04,0,0-1.3-.57-1.02-.84,.28-.27,2.24-.58,4.65,.51Z"/><path class="m" d="M54.42,43.8c-.17,.9-.46,1.63-.92,.8,0,0-.98,2.36-1.04,1.2,0,0-.51,.75-.83,.53-.32-.21,.17-.89,.17-.89,0,0-.64,.1-.62-.14,.01-.23,.31-.69,.33-.72-.08,.06-1.76,1.38-2.04,.96-.29-.42,0-1.03,0-1.03,0,0-1.91,.29-1.78-.25,.07-.28,.62-.53,1.13-.7-.21,.13-.37,.28-.41,.43-.13,.54,1.57,.22,1.57,.22,0,0-.26,.61-.02,1.03,.24,.41,1.75-.93,1.82-.99-.02,.03-.29,.49-.31,.72-.02,.24,.55,.12,.55,.12,0,0-.45,.68-.17,.89,.28,.21,.75-.54,.75-.54,.03,1.16,.95-1.22,.95-1.22,.33,.69,.64,.27,.88-.43Z"/><path class="aa" d="M52.11,40.05s-4.53,1.62-3.24,.25c0,0-2.91,.27-1.72-.28,0,0-1.01-.07-.92-.41,.08-.34,1.01-.26,1.01-.26,0,0-.55-.31-.29-.4s2.5,.4,2.5,.4c0,0-3.21-.63-3.33-1.75-.05-.49,1.09-.45,1.09-.45,0,0-1.13-1.35-.51-1.48,.62-.13,1.87,1.14,1.87,1.14,0,0-.23-1.09,.17-1.05,.4,.05,1.12,1.93,1.12,1.93,0,0-.66-1.67-.07-1.67,.35,0,.4,1.36,.4,1.36,0,0,.03-1.25,.44-1.15,.41,.09,1.58,1.48,1.49,3.81Z"/><path class="m" d="M52.11,40.05h0c-.04-1.95-1.13-3.27-1.48-3.35-.38-.09-.41,1.06-.41,1.06,0,0-.28-1.22-.37-1.25-.26-.03,.09,1.55,.09,1.55,0,0-.68-1.75-1.05-1.8-.37-.04-.15,.96-.15,.96,0,0-1.15-1.17-1.72-1.04-.34,.07-.11,.54,.13,.9-.22-.28-.98-1.29-.45-1.41,.62-.13,1.87,1.13,1.87,1.13,0,0-.23-1.09,.17-1.04,.35,.04,.96,1.52,1.09,1.86-.12-.32-.56-1.6-.04-1.6,.33,0,.39,1.15,.4,1.34,0-.18,.07-1.21,.44-1.13,.41,.09,1.58,1.48,1.49,3.81Z"/><path class="al" d="M55.36,41.7c-.49,.27-.99,.53-1.5,.78-.5,.25-1.01,.49-1.53,.72-.52,.23-1.04,.45-1.58,.64-.27,.09-.54,.18-.83,.25-.28,.07-.57,.13-.87,.13-.02,0-.04-.02-.04-.04,0-.02,.02-.04,.04-.04h0c.28,0,.57-.07,.84-.14,.27-.08,.54-.17,.81-.27,.53-.2,1.05-.43,1.56-.66,.51-.24,1.01-.49,1.51-.75,.5-.26,.99-.52,1.47-.8h0c.05-.03,.12-.02,.16,.03,.03,.05,.02,.11-.03,.14h0Z"/><path class="al" d="M51.13,41.92c.19,.06,.39,.13,.58,.19,.2,.06,.39,.12,.59,.18,.2,.06,.39,.11,.59,.16,.1,.02,.2,.04,.3,.06,.1,.02,.2,.03,.3,.03h.07l-.03,.05-.18,.31-.18,.31c-.12,.2-.23,.41-.34,.62-.11,.21-.22,.42-.32,.63-.1,.21-.19,.43-.26,.65l.04-.17,.05-.17c.02-.06,.04-.11,.06-.16,.02-.05,.04-.11,.06-.16,.09-.22,.19-.43,.29-.64,.11-.21,.22-.42,.33-.62,.11-.21,.23-.41,.36-.61l.04,.05c-.11,0-.21-.01-.32-.03-.1-.02-.2-.04-.3-.07-.2-.05-.4-.11-.59-.17-.19-.06-.39-.13-.58-.19-.19-.07-.38-.14-.57-.21Z"/><path class="al" d="M49.95,45.07c.09-.12,.19-.24,.28-.37,.09-.12,.19-.24,.28-.36,.19-.24,.38-.48,.58-.72h.02c.28-.13,.56-.25,.84-.36l.02,.06c-.3,0-.6,0-.9-.04-.15-.02-.3-.04-.44-.08-.14-.04-.29-.08-.41-.16,.13,.07,.27,.1,.42,.13,.15,.03,.29,.05,.44,.06,.15,.01,.3,.02,.45,.02,.15,0,.3,0,.45,0h.19l-.17,.06c-.28,.12-.56,.24-.84,.35h.02c-.2,.23-.4,.46-.6,.7-.1,.12-.2,.24-.3,.35-.1,.12-.2,.23-.31,.35Z"/><path class="al" d="M51.9,44.4c.12-.07,.25-.13,.38-.19,.13-.06,.25-.12,.38-.19l-.02,.02c.05-.1,.1-.21,.16-.31,.05-.1,.11-.21,.16-.31l.06-.12v.13c.03,.15,.04,.3,.06,.46,0,.08,.02,.15,.03,.23,.01,.08,.02,.15,.04,.23-.03-.07-.05-.15-.07-.22-.02-.07-.04-.15-.05-.23-.03-.15-.05-.3-.07-.46h.08c-.05,.11-.1,.22-.16,.32-.05,.1-.11,.21-.16,.31h0v.02c-.14,.06-.27,.11-.4,.17-.13,.05-.27,.11-.4,.16Z"/><path class="al" d="M51.54,42.33c.07-.03,.13-.05,.2-.08,.07-.02,.13-.05,.2-.07h.02c.12,.02,.24,.05,.36,.08,.06,.02,.12,.03,.18,.05,.03,0,.06,.02,.09,.03,.02,0,.03,0,.05,.02h0s-.02,0-.02,0c-.02,0-.02,.02-.02,.02h0c-.01-.05-.03-.11-.05-.16l-.05-.15c-.03-.1-.07-.2-.1-.31,.06,.1,.1,.19,.15,.29,.05,.1,.09,.2,.12,.3,0,0,0,.01,0,.03h0v.02s-.01,.02-.03,.02c0,0-.02,0-.03,0h-.02s-.02-.02-.04-.02c-.03,0-.06-.02-.09-.03l-.18-.05c-.12-.03-.23-.07-.35-.1h.02c-.07,.02-.14,.04-.21,.05-.07,.02-.14,.03-.21,.05Z"/><g><path class="aa" d="M55.2,40.94s-4.24-2.12-2.18-2.06c0,0-2.01-1.83-.77-1.34,0,0-.54-.73-.17-.88s.85,.54,.85,.54c0,0,.18-.53,.42-.41s.6,.59,.6,.59c0,0-.64-1.97-.07-1.99,.57-.02,1.07,.47,1.07,.47,0,0,.57-1.58,1.07-1.24,.5,.34,.07,1.96,.07,1.96,0,0,.61-.29,.81,0,.2,.3-.86,1.41-.86,1.41,0,0,.63-.61,.64-.3s-.16,.34-.16,.34c0,0,1.18-.73,1.34-.39,.16,.34-.43,1.97-2.65,3.31Z"/><path class="m" d="M56.58,37.98s.1-.13,.09-.3c-.01-.27-.53,.2-.63,.29,.12-.13,1.03-1.11,.84-1.39-.2-.3-.81,0-.81,0,0,0,.43-1.62-.07-1.96-.21-.15-.44,.06-.63,.35,.1-.06,.2-.06,.3,0,.5,.34,.07,1.96,.07,1.96,0,0,.61-.3,.81,0,.18,.28-.72,1.27-.84,1.39,.09-.09,.61-.57,.63-.29,0,.17-.05,.26-.09,.3,.25-.15,1.13-.64,1.27-.36,.1,.22-.11,.97-.85,1.84,1.02-1.01,1.3-1.94,1.19-2.19-.14-.29-1.01,.2-1.27,.35Zm-.07,.04s.02-.02,.07-.04c-.04,.03-.07,.04-.07,.04Z"/><path class="aa" d="M56.58,37.98s-.07,.04-.07,.04c0,0,.02-.02,.07-.04Z"/><path class="al" d="M55.18,41.62c-.05-.5-.09-1-.12-1.49-.03-.5-.05-1-.05-1.5,0-.5,.01-1,.06-1.5,.03-.25,.06-.5,.11-.75,.06-.25,.13-.49,.26-.72,.01-.02,.04-.02,.06-.02,.02,0,.03,.03,.02,.05h0c-.12,.22-.19,.46-.23,.71-.05,.24-.07,.49-.09,.74-.03,.49-.04,.99-.02,1.49,.02,.5,.05,.99,.09,1.49,.04,.5,.09,.99,.16,1.48h0c0,.05-.04,.1-.1,.11-.06,0-.12-.03-.13-.09h0Z"/><path class="al" d="M56.88,38.3c-.15,.12-.31,.24-.46,.36-.15,.12-.3,.24-.45,.37-.15,.12-.29,.25-.43,.38-.07,.07-.14,.13-.2,.2-.06,.07-.12,.14-.17,.21l-.03,.05-.04-.04-.24-.28-.24-.27c-.16-.18-.32-.36-.49-.54-.16-.18-.33-.36-.51-.53-.17-.17-.35-.34-.55-.5l.15,.11,.15,.12s.1,.08,.14,.12c.05,.04,.09,.08,.14,.12,.18,.17,.36,.34,.53,.51,.17,.18,.34,.36,.5,.54,.16,.18,.32,.36,.47,.55h-.07c.05-.08,.11-.15,.18-.22,.07-.07,.14-.14,.21-.2,.14-.13,.29-.25,.45-.37,.15-.12,.31-.24,.47-.35,.16-.11,.32-.23,.48-.34Z"/><path class="al" d="M54.15,35.97c.09,.13,.17,.25,.25,.38,.08,.13,.16,.26,.25,.38,.16,.26,.32,.51,.48,.77h0v.02c0,.27-.01,.53-.02,.8h-.08c.13-.25,.28-.47,.46-.68,.09-.11,.18-.21,.28-.3,.1-.09,.22-.18,.35-.24-.13,.07-.23,.16-.33,.26-.1,.1-.18,.2-.26,.31-.08,.11-.16,.22-.23,.33-.07,.11-.14,.23-.2,.34l-.08,.15v-.16c0-.27,.01-.53,.02-.8v.02c-.15-.26-.31-.52-.46-.78-.08-.13-.15-.26-.23-.39-.07-.13-.15-.26-.22-.39Z"/><path class="al" d="M53.95,37.75c.01,.13,.02,.25,.03,.38,0,.13,.01,.25,.02,.38v-.02c.08,.09,.16,.17,.24,.26,.08,.09,.17,.18,.25,.26l.1,.1-.14-.05c-.16-.06-.33-.12-.5-.17-.08-.03-.17-.05-.25-.08-.08-.03-.17-.05-.25-.07,.09,0,.18,.03,.26,.05,.09,.02,.17,.04,.26,.06,.17,.05,.34,.1,.51,.15l-.05,.05c-.08-.09-.17-.17-.25-.26-.08-.09-.16-.18-.25-.27h0v-.02c0-.13,0-.25,0-.38,0-.13,.01-.25,.02-.38Z"/><path class="al" d="M56.26,38.43c0,.06,0,.13-.01,.19,0,.06-.01,.12-.02,.19h0c-.08,.09-.16,.17-.25,.25-.04,.04-.09,.08-.13,.11-.02,.02-.04,.04-.07,.06-.01,0-.02,.02-.04,.03h0s0,0,.01-.02c0-.01,0-.03,0-.03h0c.06,.01,.12,.02,.18,.03l.18,.03c.12,.02,.24,.04,.36,.07-.12,0-.25,0-.37-.02-.12-.01-.24-.02-.37-.04,0,0-.02,0-.03,0h-.02s-.02-.03-.01-.04c0,0,0-.02,.01-.02h.02s.02-.03,.03-.03c.02-.02,.04-.04,.07-.05l.13-.11c.09-.07,.17-.15,.26-.22h0s.03-.11,.04-.17c.01-.06,.03-.12,.05-.18Z"/></g><path class="al" d="M61.51,44.52c-1.27-.5-2.52-1.04-3.75-1.59-1.24-.56-2.46-1.14-3.66-1.74-.6-.3-1.2-.61-1.79-.93-.59-.32-1.18-.64-1.75-.98-.29-.17-.57-.34-.85-.53-.27-.19-.54-.39-.78-.6-.13-.1-.24-.21-.36-.32-.12-.11-.23-.22-.34-.34-.23-.23-.44-.47-.65-.7,.22,.23,.44,.46,.67,.68,.11,.11,.24,.22,.35,.33,.12,.11,.24,.21,.37,.31,.25,.2,.52,.39,.8,.57,.28,.18,.57,.34,.86,.5,1.18,.63,2.37,1.25,3.58,1.84,1.21,.59,2.44,1.15,3.68,1.69,1.24,.54,2.5,1.05,3.77,1.53h0c.09,.04,.13,.13,.09,.21-.04,.08-.15,.12-.24,.08h0Z"/><path class="al" d="M47.65,39.68h.9c.3,0,.6,0,.89-.02,.3,0,.6-.01,.89-.03,.15,0,.3-.02,.44-.03,.07,0,.15-.01,.22-.02,.07-.01,.15-.02,.21-.04v.06l-.71-.4-.03-.02,.02-.03c.05-.07,.08-.16,.11-.24,.03-.08,.05-.17,.08-.26,.04-.17,.06-.35,.06-.53v-.27c0-.09-.02-.18-.03-.27-.01-.09-.03-.18-.04-.26l-.06-.26c.02,.09,.05,.17,.07,.26,.02,.09,.04,.18,.05,.26,.01,.09,.03,.18,.04,.27v.27c.01,.18,0,.36-.03,.54-.02,.09-.04,.18-.07,.26-.03,.09-.07,.17-.12,.25v-.04l.7,.39,.06,.04-.07,.03c-.08,.03-.15,.04-.23,.05-.07,.01-.15,.02-.22,.02-.15,.01-.3,.02-.45,.03-.3,.01-.6,.02-.9,.02-.3,0-.6,0-.9,0-.3,0-.6-.02-.9-.03Z"/><path class="al" d="M46.87,37.74c.24,.12,.47,.23,.71,.34,.24,.11,.48,.21,.72,.31,.24,.1,.49,.19,.75,.26,.13,.04,.26,.07,.39,.09,.13,.02,.26,.03,.38,0v.06l-.72-.51h-.01v-.02c0-.27-.01-.54-.03-.82,0-.14-.02-.27-.03-.41-.01-.14-.03-.27-.07-.4,.05,.13,.07,.27,.09,.4,.02,.14,.04,.27,.05,.41,.02,.27,.05,.54,.05,.82v-.02l.71,.5,.06,.04-.07,.02c-.14,.04-.29,.03-.42,.01-.14-.02-.27-.06-.4-.09-.26-.08-.51-.17-.75-.28-.24-.1-.48-.22-.72-.33-.23-.12-.47-.24-.69-.37Z"/></g><g><path class="aa" d="M61.48,42.89s-1.91,3.87-.31,2.77c0,0-.33,2.49,.32,1.47,0,0,.07,.86,.47,.79,.4-.07,.3-.86,.3-.86,0,0,.52,.33,.63,.11,.11-.22,.07-.78,.07-.78,0,0,.86,1.91,1.33,1.63,.47-.27,.53-.93,.53-.93,0,0,1.57,.98,1.72,.45,.16-.53-1.31-1.61-1.31-1.61,0,0,.69-.08,.64-.42-.05-.34-1.67-.69-1.67-.69,0,0,.93,.17,.72-.09-.2-.25-.37-.19-.37-.19,0,0,1.45-.02,1.35-.37-.11-.35-1.72-1.36-4.44-1.3Z"/><path class="m" d="M60.75,44.6c-.3,.87-.42,1.63,.41,1.07,0,0-.33,2.49,.32,1.47,0,0,.07,.86,.47,.79,.4-.07,.3-.86,.3-.86,0,0,.52,.33,.63,.11,.11-.21,.08-.74,.07-.77,.04,.08,.87,1.9,1.33,1.63,.47-.27,.53-.93,.53-.93,0,0,1.57,.98,1.72,.45,.08-.28-.29-.71-.66-1.06,.12,.2,.19,.39,.15,.54-.16,.53-1.52-.39-1.52-.39,0,0-.08,.65-.51,.94-.42,.28-1.09-1.49-1.13-1.58,0,.03,0,.55-.09,.77-.1,.22-.55-.09-.55-.09,0,0,.06,.78-.3,.86-.36,.08-.39-.77-.39-.77-.62,1.03-.23-1.45-.23-1.45-.65,.5-.71,0-.57-.72Z"/><path class="aa" d="M64.75,42.11s3.24,3.16,2.78,1.45c0,0,2.48,1.34,1.69,.39,0,0,.94,.32,1.04-.02s-.78-.61-.78-.61c0,0,.65-.07,.47-.25-.19-.18-2.45-.58-2.45-.58,0,0,3.21,.65,3.89-.32,.3-.42-.75-.81-.75-.81,0,0,1.71-.78,1.22-1.14s-2.26,.31-2.26,.31c0,0,.77-.89,.39-1-.38-.11-2,1.31-2,1.31,0,0,1.45-1.25,.92-1.47-.32-.13-1.06,1.07-1.06,1.07,0,0,.61-1.13,.2-1.2-.42-.07-2.18,.73-3.29,2.86Z"/><path class="m" d="M64.75,42.11h0c1.04-1.74,2.69-2.51,3.05-2.45,.38,.06-.18,1.1-.18,1.1,0,0,.88-.99,.97-.99,.24,.07-.87,1.36-.87,1.36,0,0,1.51-1.32,1.86-1.22,.35,.1-.36,.92-.36,.92,0,0,1.63-.61,2.08-.29,.27,.19-.18,.52-.58,.76,.35-.17,1.55-.79,1.12-1.09-.49-.35-2.26,.31-2.26,.31,0,0,.77-.89,.39-1-.34-.1-1.64,1.01-1.94,1.26,.27-.24,1.33-1.22,.86-1.42-.29-.12-.94,.89-1.05,1.05,.08-.16,.56-1.11,.18-1.18-.42-.07-2.18,.73-3.29,2.86Z"/><path class="al" d="M61.18,42.26c.29,.43,.6,.85,.91,1.27,.31,.42,.63,.83,.97,1.24,.34,.41,.68,.8,1.06,1.18,.19,.19,.38,.37,.59,.54,.21,.17,.43,.33,.68,.44h0s.03,.03,.02,.05c-.01,.02-.04,.02-.06,.02-.27-.11-.5-.28-.71-.45-.22-.17-.42-.35-.61-.54-.39-.38-.75-.77-1.09-1.17-.35-.4-.68-.81-1-1.23-.32-.42-.64-.83-.94-1.26-.03-.05-.02-.11,.04-.13,.05-.03,.12-.01,.16,.03h0Z"/><path class="al" d="M64.67,44.15c-.21,0-.41-.01-.62-.02-.21-.01-.41-.03-.62-.04-.21-.02-.41-.04-.62-.07-.1-.02-.21-.03-.31-.06-.1-.02-.2-.05-.3-.09l.06-.03c0,.23,0,.46,0,.69,0,.23-.01,.46-.02,.69-.02,.23-.03,.46-.07,.68,0,.06-.02,.11-.03,.17-.01,.06-.02,.11-.03,.17l-.04,.17-.05,.17c.05-.22,.08-.45,.1-.68,.02-.23,.03-.45,.04-.68,0-.23,.01-.46,.01-.68v-.74l.05,.02c.09,.04,.18,.06,.28,.09,.1,.02,.2,.04,.3,.06,.2,.03,.41,.06,.61,.08,.21,.02,.41,.04,.62,.06,.21,.02,.41,.04,.62,.05Z"/><path class="al" d="M64.11,47.42c-.03-.14-.07-.29-.1-.43-.03-.14-.06-.29-.09-.43-.06-.29-.12-.57-.17-.86v.02c-.18-.21-.38-.42-.57-.63l-.11-.13,.16,.08c.13,.06,.26,.12,.4,.17,.14,.05,.27,.1,.41,.15,.14,.04,.28,.08,.43,.11,.14,.03,.29,.05,.44,.04-.15,.02-.3,0-.45-.01-.15-.02-.3-.06-.44-.1-.29-.08-.56-.18-.83-.3l.05-.05c.19,.21,.38,.42,.57,.63h0v.02c.05,.29,.1,.58,.15,.86,.02,.14,.05,.29,.07,.43,.02,.14,.04,.29,.06,.43Z"/><path class="al" d="M62.7,46.09c-.09-.1-.19-.19-.28-.29-.09-.1-.18-.2-.27-.3h0v-.02c0-.11,0-.23,.01-.34,0-.11,.01-.23,.02-.34l.07,.02c-.1,.13-.19,.26-.3,.38-.05,.06-.11,.12-.16,.18-.06,.06-.11,.12-.18,.17,.05-.06,.1-.12,.15-.19,.05-.06,.1-.13,.14-.19,.09-.13,.19-.26,.28-.39l.08-.11v.13c-.01,.11-.01,.23-.02,.34,0,.11-.01,.23-.02,.34v-.02c.08,.1,.16,.21,.24,.31,.08,.1,.16,.21,.24,.32Z"/><path class="al" d="M64.09,44.36c-.06-.04-.11-.08-.17-.12-.05-.04-.11-.08-.16-.13h.02c-.12,0-.24-.02-.37-.04l-.18-.02s-.06,0-.09-.01c-.01,0-.03,0-.04,0h-.02s-.02,0-.02-.01c-.01-.01-.01-.03-.01-.03h0v-.02s.01-.02,.02-.02c.09-.08,.18-.15,.27-.23,.09-.07,.19-.14,.29-.2-.08,.08-.16,.16-.25,.24l-.12,.12s-.08,.08-.12,.12h0s0-.01-.01-.02c0,0-.02,0-.02,0h0s0,0,0,0h.01s.04,0,.05,0c.03,0,.06,0,.09,0,.06,0,.12,.02,.18,.02,.12,.02,.24,.04,.36,.06h.02c.05,.05,.1,.1,.14,.15,.05,.05,.09,.1,.14,.14Z"/><g><path class="aa" d="M61.52,41.74s4.89-.31,3.02-1.03c0,0,2.74-.89,1.38-.92,0,0,.86-.45,.61-.72-.26-.27-1.04,.16-1.04,.16,0,0,.11-.55-.17-.53-.28,.02-.84,.3-.84,.3,0,0,1.59-1.53,1.09-1.76-.5-.24-1.21,.02-1.21,.02,0,0,.3-1.64-.32-1.52s-1.07,1.74-1.07,1.74c0,0-.39-.49-.73-.3-.33,.2,.05,1.59,.05,1.59,0,0-.25-.78-.42-.51-.17,.27-.03,.37-.03,.37,0,0-.69-1.1-1-.86-.31,.24-.63,1.93,.68,3.97Z"/><path class="m" d="M60.84,37.77c-.23,.18-.46,1.12-.06,2.41-.23-1.06-.03-1.81,.17-1.97,.27-.21,.81,.57,.96,.8-.02-.06-.02-.15,.07-.31,.16-.24,.38,.38,.42,.5-.04-.16-.35-1.38-.04-1.57,.33-.2,.73,.3,.73,.3,0,0,.45-1.62,1.07-1.74,.12-.02,.21,.02,.27,.11-.02-.33-.12-.61-.39-.55-.62,.12-1.07,1.74-1.07,1.74,0,0-.4-.49-.73-.3-.31,.18,0,1.41,.04,1.57-.04-.11-.26-.74-.41-.5-.09,.15-.09,.25-.08,.3-.15-.23-.69-1-.96-.79Zm.96,.8s.04,.06,.04,.06c0,0-.02-.02-.04-.06Z"/><path class="aa" d="M61.8,38.56s.04,.06,.04,.06c0,0-.01-.02-.04-.06Z"/><path class="al" d="M60.99,42.26c.31-.42,.61-.84,.9-1.27,.29-.43,.57-.86,.84-1.3,.27-.44,.52-.89,.75-1.34,.11-.23,.21-.46,.29-.7,.08-.24,.15-.48,.15-.72h0s.02-.04,.04-.04c.02,0,.04,.02,.04,.04,0,.26-.06,.51-.14,.75-.08,.24-.18,.48-.28,.71-.21,.47-.46,.92-.72,1.37-.26,.45-.53,.89-.82,1.32-.28,.44-.57,.87-.88,1.3-.03,.05-.1,.06-.16,.03-.05-.03-.07-.09-.04-.13h0Z"/><path class="al" d="M61.37,38.74c.09,.16,.18,.32,.26,.48,.08,.16,.16,.33,.24,.49,.08,.17,.15,.33,.21,.5,.03,.09,.06,.17,.08,.26,.02,.09,.04,.18,.04,.27l-.06-.03c.23-.11,.47-.22,.71-.32,.24-.1,.48-.2,.72-.3,.24-.09,.49-.18,.74-.26,.06-.02,.12-.04,.19-.06,.06-.02,.13-.04,.19-.05l.19-.05,.19-.04c-.26,.06-.5,.15-.75,.24-.25,.09-.49,.18-.73,.28-.24,.1-.48,.2-.72,.3l-.35,.16-.35,.16-.06,.03v-.06c0-.08-.02-.17-.04-.26-.02-.09-.05-.17-.08-.26-.06-.17-.13-.34-.19-.5-.07-.17-.14-.33-.22-.5-.07-.17-.15-.33-.23-.5Z"/><path class="al" d="M65.01,37.67c-.13,.09-.27,.18-.4,.27-.13,.09-.27,.18-.4,.27-.27,.18-.54,.35-.82,.52h.01c-.13,.23-.26,.47-.4,.71l-.08,.15v-.16c0-.13,0-.26,0-.38,0-.13-.02-.26-.03-.38-.02-.13-.04-.25-.08-.38-.04-.12-.08-.25-.16-.36,.09,.1,.15,.23,.19,.35,.05,.12,.08,.25,.1,.38,.05,.26,.07,.51,.07,.77l-.08-.02c.13-.24,.26-.49,.4-.73h.01c.27-.18,.55-.35,.83-.52,.14-.08,.28-.17,.42-.25,.14-.08,.28-.17,.42-.25Z"/><path class="al" d="M64.27,39.35c-.06,.12-.12,.23-.18,.35-.06,.11-.12,.23-.19,.34h-.02c-.12,.06-.24,.11-.36,.16-.12,.05-.24,.09-.36,.14v-.07c.16,.01,.34,.03,.52,.05,.09,.01,.18,.02,.26,.04,.09,.02,.18,.03,.26,.06-.09-.01-.18-.02-.27-.03-.09,0-.18-.01-.27-.02-.18-.01-.36-.02-.53-.03h-.15l.14-.07c.12-.05,.24-.1,.36-.14,.12-.05,.24-.09,.36-.14h-.02c.07-.1,.14-.21,.21-.32,.07-.11,.14-.22,.22-.33Z"/><path class="al" d="M61.85,39.08c-.02,.06-.03,.12-.05,.18-.02,.06-.04,.12-.06,.18v-.02c.04,.1,.08,.2,.12,.3l.06,.15s.02,.05,.03,.07c0,.01,.01,.02,.02,.03h0v.02s0,.02,0,.02c0,.01-.03,.02-.03,.02h-.02s-.02,0-.03,0c-.13-.03-.24-.06-.36-.1-.12-.04-.23-.08-.34-.12,.12,.02,.24,.05,.36,.08l.18,.04c.06,.01,.12,.03,.18,.04h0s-.02,.01-.02,.02c0,0,0,.02,0,.02h0s-.01-.03-.02-.04c-.01-.03-.02-.05-.03-.08-.02-.05-.04-.1-.06-.15-.04-.1-.07-.2-.1-.31h0v-.02c.03-.06,.06-.12,.08-.17,.03-.06,.06-.12,.09-.17Z"/></g><path class="al" d="M54.03,42.26c1.39,.05,2.78,.05,4.17,.04,1.39-.02,2.78-.06,4.17-.13,1.39-.07,2.78-.18,4.16-.3,.35-.03,.69-.07,1.03-.13,.34-.05,.68-.13,1.01-.21,.17-.04,.33-.09,.49-.14,.16-.05,.33-.1,.49-.16,.32-.11,.64-.24,.96-.36-.31,.13-.62,.27-.94,.39-.16,.06-.32,.12-.48,.18-.16,.05-.33,.11-.49,.15-.33,.1-.67,.18-1.01,.24-.34,.07-.69,.11-1.03,.16-.69,.09-1.38,.15-2.08,.22-.69,.06-1.39,.12-2.09,.16-1.39,.09-2.79,.15-4.18,.19-1.4,.03-2.79,.05-4.19,.02-.1,0-.18-.07-.18-.16,0-.09,.09-.15,.19-.15h0Z"/><path class="al" d="M68.94,43.45c-.28-.1-.55-.2-.82-.31-.27-.11-.54-.22-.81-.33-.27-.11-.53-.23-.8-.35-.13-.06-.26-.13-.39-.19-.06-.03-.13-.07-.19-.11-.06-.04-.12-.08-.18-.13l-.05-.05h.08l.84-.09-.03,.03c0-.1,0-.18,.02-.27,.02-.09,.04-.18,.07-.26,.06-.17,.14-.34,.23-.5l.07-.12,.08-.12c.05-.08,.11-.15,.17-.23,.06-.07,.12-.14,.18-.22,.07-.07,.13-.14,.2-.21l-.19,.21c-.06,.07-.12,.15-.17,.22-.05,.08-.11,.15-.16,.23l-.07,.12-.07,.12c-.09,.16-.16,.33-.21,.5-.02,.09-.05,.17-.06,.26-.02,.09-.02,.18-.02,.26v.03h-.03l-.84,.09,.03-.06s.1,.08,.16,.12c.06,.04,.12,.07,.18,.1,.13,.07,.25,.13,.38,.19,.26,.12,.52,.24,.79,.36,.26,.12,.53,.23,.8,.35l.8,.34Z"/><path class="al" d="M70.64,42c-.27,.03-.54,.05-.81,.07-.27,.02-.54,.03-.81,.03-.27,0-.54,0-.82-.04-.14-.01-.27-.03-.4-.06-.13-.03-.27-.08-.38-.17l-.05-.04h.07l.9-.2-.02,.02c.15-.24,.31-.48,.47-.71,.08-.12,.17-.23,.25-.35,.09-.11,.18-.23,.29-.33-.1,.1-.18,.22-.27,.34-.08,.12-.16,.24-.24,.35-.15,.24-.3,.48-.45,.72h0l-.02,.02-.9,.19,.02-.06c.09,.07,.21,.12,.34,.15,.13,.03,.26,.05,.39,.07,.27,.03,.54,.04,.81,.04,.27,0,.54,0,.81,0,.27,0,.54-.02,.81-.03Z"/></g></g></g><g class="m"><path d="M35.5,48.98c.68,.2,1.36,.37,2.05,.54,.69,.17,1.37,.33,2.07,.48,1.38,.3,2.77,.57,4.17,.8,1.4,.24,2.8,.45,4.21,.62,1.41,.18,2.82,.32,4.23,.45l1.06,.08,.53,.04,.53,.03,1.06,.06c.35,.02,.71,.03,1.06,.04l.53,.02c.18,0,.35,.01,.53,.02l1.06,.02h3.19l1.06-.04c.35-.01,.71-.03,1.06-.05l.53-.02h.27c.09-.02,.18-.02,.27-.03l1.06-.07,.53-.04,.27-.02,.26-.02,1.06-.1c.35-.03,.71-.06,1.06-.11l1.05-.13,.53-.06c.18-.02,.35-.05,.52-.08l1.05-.15,.52-.08,.52-.09c1.39-.23,2.77-.51,4.14-.82l1.02-.24,.51-.12c.17-.04,.34-.09,.51-.13l.51-.13c.17-.04,.34-.09,.51-.14l.51-.14,.5-.15c.17-.05,.34-.1,.5-.15l.5-.16c.33-.1,.66-.21,.99-.32,.17-.05,.33-.11,.49-.17,.16-.06,.33-.11,.49-.17,.32-.12,.65-.24,.97-.37,.32-.12,.64-.26,.95-.4,.31-.14,.62-.28,.92-.44,.61-.3,1.19-.63,1.74-1l.2-.14c.07-.05,.13-.1,.2-.15l.19-.15,.19-.16c.13-.1,.24-.21,.36-.32,.06-.05,.11-.11,.16-.17,.05-.06,.11-.11,.16-.17l.15-.18c.05-.06,.09-.12,.13-.19,.02-.03,.05-.06,.07-.09l.06-.1c.04-.06,.08-.13,.11-.2,.14-.26,.24-.54,.29-.83,.05-.28,.06-.58,0-.86-.05-.29-.14-.57-.27-.85-.26-.55-.66-1.05-1.11-1.51-.46-.46-.98-.87-1.53-1.25-.55-.38-1.14-.73-1.76-1.04,.32,.13,.63,.29,.94,.44,.31,.16,.6,.33,.9,.51,.58,.36,1.13,.76,1.63,1.21,.5,.45,.94,.96,1.24,1.53,.15,.29,.27,.59,.33,.91,.07,.32,.08,.64,.04,.96-.04,.32-.14,.64-.29,.93-.03,.08-.08,.15-.12,.22l-.06,.11s-.05,.07-.07,.1c-.05,.07-.09,.14-.14,.21l-.15,.2c-.05,.07-.11,.13-.16,.19-.06,.06-.11,.13-.17,.19-.12,.12-.24,.24-.37,.35l-.19,.17-.2,.16c-.07,.05-.13,.11-.2,.16l-.21,.15c-.56,.41-1.16,.76-1.78,1.09-.31,.17-.62,.32-.94,.47-.32,.14-.64,.29-.96,.43-.32,.14-.65,.27-.98,.4-.16,.06-.33,.12-.49,.19-.17,.06-.33,.13-.5,.18-.33,.12-.67,.24-1,.34l-.5,.17c-.17,.05-.34,.1-.51,.16l-.51,.16-.51,.15c-.17,.05-.34,.1-.51,.15l-.51,.14c-.17,.05-.34,.1-.51,.14l-.52,.13-1.04,.26c-1.38,.33-2.78,.62-4.19,.86l-.53,.09-.53,.08-1.06,.16c-.18,.03-.35,.05-.53,.08l-.53,.06-1.07,.13c-5.7,.65-11.49,.6-17.18,.03-2.85-.29-5.67-.72-8.46-1.29-1.39-.29-2.78-.6-4.14-.96-1.37-.36-2.72-.75-4.05-1.22Z"/></g></g><g><path class="ac" d="M248.89,39.83v17.26c0,6.67-17.68,12.07-39.5,12.07-19.14,0-35.09-4.16-38.73-9.68-.19-.31-.35-.62-.47-.94-.19-.48-.29-.97-.29-1.46v-17.26h78.99Z"/><path class="m" d="M248.89,39.83v17.26c0,6.67-17.68,12.07-39.5,12.07-19.14,0-35.09-4.16-38.73-9.68-.19-.31-.35-.62-.47-.94,34.33,8.44,52.08,6.8,67.09-1.89,4.75-2.75,10.42-12.28,9.98-16.82h1.63Z"/><path class="m" d="M170.66,59.47c34.06,15.19,66.66,5.25,73.51,.8,5.56-3.68,4.7-16.06,4.17-20.45h.55v17.26c0,6.67-17.68,12.07-39.5,12.07-19.14,0-35.09-4.16-38.73-9.68Z"/><ellipse class="w" cx="209.77" cy="40.46" rx="39.5" ry="12.07"/><path class="ad" d="M248.89,39.83c0,.28-.03,.55-.1,.83-1.39-6.28-18.5-11.23-39.39-11.23s-38,4.95-39.39,11.23c-.07-.28-.1-.55-.1-.83,0-6.67,17.68-12.07,39.5-12.07s39.5,5.41,39.5,12.07Z"/><path class="d" d="M209.39,27.38c-22.4,0-39.93,5.47-39.93,12.45s17.53,12.43,39.93,12.43,39.93-5.45,39.93-12.43-17.53-12.45-39.93-12.45Zm0,24.13c-21.55,0-39.06-5.24-39.06-11.69s17.51-11.7,39.06-11.7,39.06,5.26,39.06,11.7-17.51,11.69-39.06,11.69Z"/><g class="u"><path class="e" d="M180.94,49.47c.61,.17,1.24,.31,1.86,.45,.62,.13,1.25,.25,1.88,.37,.63,.11,1.26,.22,1.89,.31l.47,.07,.47,.07c.32,.05,.63,.09,.95,.13,.16,.02,.32,.04,.47,.06l.48,.06,.48,.06,.48,.05c.63,.07,1.27,.14,1.91,.2l.95,.09c.32,.03,.64,.05,.96,.08l.48,.04,.48,.03c.32,.02,.64,.05,.96,.07,2.55,.16,5.11,.26,7.67,.3,.64,0,1.28,.02,1.92,.02h1.92c1.28,0,2.56-.03,3.84-.06l.96-.03h.48l.48-.03,1.92-.07,1.92-.08,1.92-.1c.64-.04,1.28-.07,1.92-.11l.96-.06c.32-.02,.64-.04,.96-.07,.64-.05,1.28-.1,1.91-.15l.96-.08,.95-.09,.48-.05,.48-.05c.32-.03,.64-.07,.95-.1,.63-.08,1.27-.15,1.9-.23,1.27-.16,2.53-.35,3.78-.57,1.25-.22,2.5-.47,3.73-.78,.61-.16,1.22-.33,1.82-.52,.3-.1,.6-.2,.89-.31,.15-.06,.29-.12,.43-.18,.14-.06,.28-.13,.42-.2-.24,.18-.51,.34-.79,.48-.28,.15-.56,.28-.85,.41-.58,.26-1.17,.49-1.77,.7-1.2,.42-2.44,.78-3.69,1.09-1.25,.31-2.51,.58-3.78,.82-1.27,.24-2.55,.44-3.83,.62l-.96,.13-.96,.12c-.64,.08-1.29,.15-1.93,.22-.32,.04-.64,.07-.97,.1l-.97,.09c-.64,.06-1.29,.11-1.93,.16-.65,.05-1.29,.09-1.94,.13l-1.94,.11c-1.29,.06-2.59,.11-3.88,.15h-.49l-.49,.02h-.97l-.49,.02h-1.46c-1.3,0-2.59-.03-3.89-.07-.32-.01-.65-.03-.97-.04-.32-.01-.65-.03-.97-.04-.65-.04-1.3-.07-1.94-.12-1.29-.09-2.59-.2-3.87-.34-.32-.03-.64-.07-.97-.11l-.48-.06-.48-.06c-.32-.04-.64-.08-.96-.13l-.96-.14c-.32-.05-.64-.1-.96-.15-.32-.05-.64-.11-.95-.16l-.48-.09-.48-.09c-.32-.06-.63-.12-.95-.19-.32-.07-.63-.13-.94-.2l-.47-.1-.47-.11c-.62-.15-1.25-.31-1.86-.48-1.23-.35-2.45-.73-3.61-1.22Z"/></g><g class="u"><path class="e" d="M171.61,45.45c.39,1.53,.7,3.06,1.02,4.58l.24,1.14c.08,.38,.16,.76,.25,1.13,.08,.38,.17,.75,.26,1.12,.09,.37,.19,.74,.29,1.11,.1,.37,.22,.73,.35,1.08,.13,.35,.28,.69,.46,.99,.02,.04,.04,.07,.07,.11l.03,.05s.02,.03,.04,.05l.03,.05s.01,.02,.03,.03c.01,.01,.02,.02,.04,.04,.01,.01,.03,.03,.04,.04,.12,.11,.28,.22,.45,.33,.34,.22,.7,.43,1.08,.63,.75,.41,1.52,.8,2.3,1.2l1.17,.59,.59,.3,.3,.15c.1,.05,.2,.1,.3,.14-.11-.01-.23-.04-.34-.06-.11-.02-.22-.05-.33-.08-.22-.05-.44-.11-.66-.17-.44-.12-.87-.25-1.3-.38-.86-.28-1.7-.58-2.53-.93-.41-.18-.83-.37-1.23-.59-.2-.11-.41-.23-.62-.39-.03-.02-.05-.04-.08-.06-.03-.02-.05-.05-.08-.07-.03-.02-.05-.05-.08-.08-.02-.03-.04-.05-.06-.07-.02-.02-.04-.05-.06-.07l-.06-.07s-.07-.1-.1-.14c-.13-.19-.24-.38-.34-.58-.1-.19-.18-.38-.26-.58-.16-.38-.28-.77-.4-1.16-.11-.39-.21-.77-.29-1.16-.08-.39-.16-.78-.22-1.17-.06-.39-.12-.78-.17-1.17l-.07-.58-.05-.59c-.06-.78-.1-1.56-.1-2.34,0-.39,0-.78,.02-1.17,.02-.39,.04-.78,.08-1.17Z"/></g><g><ellipse class="h" cx="207.72" cy="42.74" rx="1.11" ry=".5"/><ellipse class="h" cx="225.72" cy="46.27" rx="1.11" ry=".5"/><ellipse class="h" cx="190.09" cy="44.11" rx="1.11" ry=".5"/><ellipse class="h" cx="187.88" cy="36.31" rx="1.11" ry=".5"/><ellipse class="h" cx="174.45" cy="40.92" rx="1.11" ry=".5"/><ellipse class="h" cx="226.34" cy="35.96" rx="1.11" ry=".5"/><ellipse class="h" cx="207.18" cy="31.71" rx="1.11" ry=".5"/><ellipse class="h" cx="237.92" cy="38.72" rx="1.11" ry=".5"/></g><g><g><path class="an" d="M194.93,39.99s-.42-.71-.91-1.9c-.49-1.18,2.44-2.37,4.15-2.86,1.26-.36,2.29-.83,3.41-.67,.4,.06,1.71,.58,1.8,.67,.33,.35,1.63,3.48,1.63,4.18s-8.37,.64-10.08,.57Z"/><path class="f" d="M194.54,40.16s-1.23-.81-1.85-1.95c-.62-1.14,2.17-2.55,3.82-3.18s4.82-.74,5.18-.42c.36,.32,2,3.34,2.08,4.03s-7.52,1.45-9.23,1.51Z"/><g class="v"><path class="e" d="M194.23,39.05c-.11-.11-.21-.23-.3-.35-.09-.12-.18-.25-.26-.38-.08-.13-.14-.27-.19-.42-.02-.07-.04-.15-.05-.24,0-.08,0-.17,.02-.26,.01-.05,.03-.09,.06-.14,.01-.02,.03-.04,.04-.07,0-.01,.02-.02,.02-.03l.02-.02c.06-.06,.12-.12,.18-.18,.12-.11,.24-.21,.37-.31,.13-.1,.26-.19,.4-.28,.14-.09,.28-.18,.42-.26,.57-.33,1.19-.6,1.86-.77,.33-.08,.68-.14,1.02-.15,.09,0,.17,0,.26,0,.04,0,.09,0,.13,0h.13c.09,.02,.17,.03,.25,.05,.08,.02,.17,.04,.25,.06-.68,0-1.32,.14-1.92,.35-.6,.21-1.17,.49-1.71,.8-.27,.16-.53,.32-.79,.5-.13,.09-.25,.18-.37,.27-.06,.05-.12,.09-.17,.14l-.02,.02h-.01s-.02,.03-.02,.04c-.01,.02-.03,.04-.04,.06-.04,.1-.04,.23-.02,.36,.02,.13,.06,.27,.1,.4,.09,.27,.21,.54,.34,.81Z"/></g></g><g><path class="an" d="M222.39,39.71s.42-.71,.91-1.9c.49-1.18-2.44-2.37-4.15-2.86-1.26-.36-2.29-.83-3.41-.67-.4,.06-1.71,.58-1.8,.67-.33,.35-1.63,3.48-1.63,4.18s8.37,.64,10.08,.57Z"/><path class="f" d="M222.78,39.88s1.23-.81,1.85-1.95c.62-1.14-2.17-2.55-3.82-3.18-1.65-.62-4.82-.74-5.18-.42-.36,.32-2,3.34-2.08,4.03-.08,.69,7.52,1.45,9.23,1.51Z"/><g class="v"><path class="e" d="M223.09,38.77c.13-.27,.25-.54,.34-.81,.04-.13,.08-.27,.1-.4,.02-.13,.02-.26-.02-.36-.01-.02-.02-.05-.04-.06,0-.01-.01-.02-.02-.03h-.01l-.02-.03c-.05-.05-.11-.09-.17-.14-.12-.09-.24-.18-.37-.27-.25-.18-.52-.34-.79-.5-.54-.31-1.11-.59-1.71-.8-.6-.21-1.24-.35-1.92-.35,.08-.02,.16-.04,.25-.06,.08-.01,.17-.03,.25-.03h.13s.09-.02,.13-.02c.09,0,.17,0,.26,0,.35,.01,.69,.06,1.02,.15,.67,.16,1.29,.44,1.86,.77,.14,.08,.28,.17,.42,.26,.13,.09,.27,.18,.4,.28,.13,.1,.25,.2,.37,.31,.06,.06,.12,.11,.18,.18l.02,.02s.02,.02,.02,.03c.02,.02,.03,.04,.04,.07,.03,.05,.04,.09,.06,.14,.03,.09,.02,.18,.02,.26,0,.08-.03,.16-.05,.24-.05,.15-.12,.29-.19,.42-.08,.13-.16,.26-.26,.38-.09,.12-.19,.24-.3,.35Z"/></g><g><path class="g" d="M215.12,36.92c0,.06-.16,.11-.36,.11s-.36-.05-.36-.11,.16-.11,.36-.11,.36,.05,.36,.11Z"/><path class="g" d="M217.12,38.66c0,.06-.16,.11-.36,.11s-.36-.05-.36-.11,.16-.11,.36-.11,.36,.05,.36,.11Z"/></g><g class="v"><ellipse class="e" cx="215.49" cy="38.4" rx=".29" ry=".09"/></g></g><g><path class="an" d="M215.62,42.18s.59-1.01,1.28-2.68c.69-1.67-3.44-3.34-5.85-4.03-1.78-.51-3.22-1.17-4.81-.95-.56,.08-2.41,.82-2.53,.95-.46,.49-2.29,4.91-2.29,5.9s11.8,.91,14.21,.81Z"/><path class="f" d="M216.17,42.42s1.74-1.14,2.61-2.75c.87-1.61-3.06-3.6-5.39-4.48-2.32-.88-6.8-1.04-7.31-.59-.51,.45-2.82,4.71-2.93,5.69-.11,.98,10.61,2.04,13.02,2.13Z"/><g class="v"><path class="e" d="M216.61,40.85c.18-.38,.35-.76,.48-1.14,.03-.1,.06-.19,.08-.28,.02-.09,.04-.19,.06-.28,.01-.09,.02-.18,.02-.27,0-.09-.02-.17-.05-.23-.01-.03-.03-.06-.05-.09,0-.01-.02-.02-.03-.04,0,0,0,0-.02-.02l-.03-.02c-.07-.07-.15-.13-.24-.2-.17-.13-.34-.26-.52-.38-.36-.25-.73-.48-1.11-.7-.76-.44-1.56-.84-2.41-1.13-.85-.3-1.75-.49-2.7-.49,.46-.12,.95-.16,1.43-.15,.49,.01,.97,.09,1.44,.21,.94,.23,1.82,.62,2.62,1.08,.2,.12,.4,.24,.59,.37,.19,.13,.38,.26,.56,.4,.18,.14,.36,.28,.52,.44,.08,.08,.17,.16,.25,.25l.03,.03s.02,.03,.03,.04c.02,.03,.05,.06,.06,.09,.04,.06,.06,.13,.08,.19,.04,.13,.03,.25,.02,.37-.01,.12-.04,.23-.07,.33-.07,.21-.16,.41-.27,.6-.11,.19-.23,.37-.36,.54-.13,.17-.27,.34-.43,.49Z"/></g></g></g></g><g><path class="ac" d="M175.44,54.08v17.53c0,6.78-17.97,12.27-40.13,12.27-19.45,0-35.66-4.22-39.36-9.84-.19-.32-.35-.63-.48-.95-.19-.48-.3-.98-.3-1.48v-17.53h80.26Z"/><path class="m" d="M175.44,54.08v17.53c0,6.78-17.97,12.27-40.13,12.27-19.45,0-35.66-4.22-39.36-9.84-.19-.32-.35-.63-.48-.95,34.88,8.57,52.91,6.91,68.16-1.92,4.82-2.79,10.58-12.48,10.14-17.09h1.66Z"/><path class="m" d="M95.95,74.04c34.61,15.43,67.73,5.34,74.69,.81,5.65-3.74,4.78-16.32,4.23-20.77h.56v17.53c0,6.78-17.97,12.27-40.13,12.27-19.45,0-35.66-4.22-39.36-9.84Z"/><ellipse class="ag" cx="135.3" cy="54.08" rx="40.14" ry="12.26"/><path class="ad" d="M175.44,54.08c0,.29-.04,.56-.11,.85-1.41-6.38-18.8-11.41-40.02-11.41s-38.62,5.02-40.03,11.41c-.07-.29-.11-.56-.11-.85,0-6.78,17.97-12.27,40.13-12.27s40.13,5.49,40.13,12.27Z"/><path class="d" d="M135.3,41.43c-22.76,0-40.57,5.55-40.57,12.65s17.81,12.63,40.57,12.63,40.57-5.54,40.57-12.63-17.81-12.65-40.57-12.65Zm0,24.52c-21.9,0-39.69-5.33-39.69-11.88s17.79-11.89,39.69-11.89,39.69,5.34,39.69,11.89-17.79,11.88-39.69,11.88Z"/><g class="u"><path class="e" d="M106.39,63.88c.62,.17,1.26,.32,1.89,.45,.63,.14,1.27,.26,1.91,.37,.64,.11,1.28,.22,1.92,.32l.48,.07,.48,.07c.32,.05,.64,.09,.97,.13,.16,.02,.32,.04,.48,.06l.48,.06,.48,.06,.48,.05c.64,.07,1.29,.14,1.94,.2l.97,.09c.32,.03,.65,.05,.97,.08l.49,.04,.49,.03c.32,.02,.65,.05,.97,.07,2.59,.16,5.19,.27,7.79,.3,.65,0,1.3,.02,1.95,.02h1.95c1.3,0,2.6-.03,3.9-.06l.98-.03h.49l.49-.03,1.95-.07,1.95-.08,1.95-.1c.65-.04,1.3-.07,1.95-.12l.97-.06c.32-.02,.65-.04,.97-.07,.65-.05,1.3-.1,1.94-.15l.97-.08,.97-.09,.48-.05,.48-.05c.32-.03,.65-.07,.97-.1,.64-.08,1.29-.15,1.93-.23,1.29-.17,2.57-.35,3.84-.58,1.27-.22,2.54-.48,3.79-.79,.62-.16,1.24-.33,1.85-.53,.31-.1,.61-.2,.9-.32,.15-.06,.3-.12,.44-.18,.15-.06,.29-.13,.43-.21-.25,.19-.52,.34-.8,.49-.28,.15-.57,.29-.86,.42-.59,.26-1.19,.5-1.8,.72-1.22,.43-2.48,.79-3.74,1.11-1.27,.32-2.55,.59-3.84,.83-1.29,.25-2.59,.45-3.89,.63l-.98,.13-.98,.12c-.65,.09-1.31,.15-1.96,.22-.33,.04-.65,.07-.98,.1l-.98,.09c-.65,.06-1.31,.11-1.97,.16-.66,.05-1.31,.09-1.97,.14l-1.97,.11c-1.31,.07-2.63,.12-3.94,.15h-.49l-.49,.02h-.99l-.49,.02h-1.48c-1.32,0-2.64-.03-3.95-.07-.33-.01-.66-.03-.99-.04-.33-.01-.66-.03-.99-.04-.66-.04-1.32-.07-1.97-.12-1.31-.09-2.63-.21-3.94-.35-.33-.03-.65-.07-.98-.11l-.49-.06-.49-.06c-.33-.04-.65-.08-.98-.13l-.98-.14c-.32-.05-.65-.1-.97-.16-.32-.05-.65-.11-.97-.17l-.48-.09-.48-.09c-.32-.06-.64-.12-.96-.19-.32-.07-.64-.13-.96-.21l-.48-.11-.48-.11c-.64-.15-1.27-.31-1.89-.49-1.25-.35-2.49-.74-3.67-1.24Z"/></g><g class="u"><path class="e" d="M96.91,59.79c.4,1.56,.71,3.11,1.04,4.65l.24,1.16c.09,.38,.16,.77,.25,1.15,.09,.38,.17,.76,.27,1.14,.09,.38,.19,.76,.3,1.13,.1,.37,.22,.74,.36,1.1,.13,.36,.28,.7,.46,1,.02,.04,.04,.08,.07,.11l.04,.05s.02,.03,.04,.05l.04,.05s.01,.02,.03,.03c.01,.01,.02,.02,.04,.04,.01,.01,.03,.03,.04,.04,.12,.11,.28,.23,.45,.34,.34,.22,.71,.44,1.09,.65,.76,.42,1.55,.82,2.34,1.22l1.19,.6,.6,.3,.3,.15c.1,.05,.2,.1,.3,.14-.12-.01-.23-.04-.34-.06-.11-.02-.23-.05-.34-.08-.22-.05-.45-.11-.67-.17-.44-.12-.88-.25-1.32-.39-.87-.28-1.73-.59-2.57-.95-.42-.18-.84-.37-1.25-.6-.21-.12-.41-.24-.62-.4-.03-.02-.05-.04-.08-.07-.03-.02-.05-.05-.08-.07-.03-.02-.06-.06-.08-.08-.02-.03-.04-.05-.06-.07-.02-.02-.04-.05-.06-.07l-.06-.07s-.07-.1-.11-.15c-.13-.19-.25-.39-.34-.58-.1-.2-.19-.39-.27-.59-.16-.39-.29-.78-.41-1.18-.11-.39-.21-.79-.3-1.18-.08-.39-.16-.79-.23-1.18-.06-.4-.12-.79-.17-1.19l-.07-.59-.05-.59c-.06-.79-.1-1.59-.11-2.38,0-.4,0-.79,.02-1.19,.02-.4,.04-.79,.08-1.19Z"/></g><path class="ag" d="M174.99,54.08c0,6.55-17.79,11.88-39.69,11.88s-39.69-5.33-39.69-11.88c-.42-4.11,15.43-9.14,35.27-11.9,2.93-.41,5.91-.41,8.84,.02,18.94,2.81,35.68,10.11,35.27,11.87Z"/><g><path class="o" d="M111.38,51.12c.09,.22-.44,.58-1.17,.79-.74,.22-1.4,.21-1.49-.01-.09-.22,.44-.58,1.17-.79,.74-.22,1.4-.21,1.49,.01Z"/><path class="o" d="M100.8,53.43c.09,.22-.44,.58-1.17,.79-.74,.22-1.4,.21-1.49-.01-.09-.22,.44-.58,1.17-.79,.74-.22,1.4-.21,1.49,.01Z"/><path class="o" d="M119.31,55.51c.09,.22-.44,.58-1.17,.79-.74,.22-1.4,.21-1.49-.01-.09-.22,.44-.58,1.17-.79,.74-.22,1.4-.21,1.49,.01Z"/><path class="o" d="M109.07,57.83c.09,.22-.44,.58-1.17,.79-.74,.22-1.4,.21-1.49-.01-.09-.22,.44-.58,1.17-.79,.74-.22,1.4-.21,1.49,.01Z"/><path class="o" d="M128.48,56.07c.09,.22-.44,.58-1.17,.79-.74,.22-1.4,.21-1.49-.01s.44-.58,1.17-.79c.74-.22,1.4-.21,1.49,.01Z"/><ellipse class="o" cx="121.06" cy="50.24" rx="1.39" ry=".43" transform="translate(-9.08 34.69) rotate(-15.73)"/><ellipse class="o" cx="132.22" cy="50.8" rx="1.39" ry=".43" transform="translate(-8.82 37.74) rotate(-15.73)"/><path class="o" d="M152.55,56.04c.09,.22-.44,.58-1.17,.79-.74,.22-1.4,.21-1.49-.01-.09-.22,.44-.58,1.17-.79,.74-.22,1.4-.21,1.49,.01Z"/><ellipse class="o" cx="145.14" cy="50.21" rx="1.39" ry=".43" transform="translate(-8.18 41.22) rotate(-15.73)"/><path class="o" d="M128.85,45.22c.09,.22-.44,.58-1.17,.79-.74,.22-1.4,.21-1.49-.01s.44-.58,1.17-.79,1.4-.21,1.49,.01Z"/><ellipse class="o" cx="134.35" cy="42.37" rx="1.39" ry=".43" transform="translate(-6.46 38) rotate(-15.73)"/><path class="o" d="M118.87,45.22c.09,.22-.44,.58-1.17,.79-.74,.22-1.4,.21-1.49-.01s.44-.58,1.17-.79,1.4-.21,1.49,.01Z"/><path class="o" d="M141.68,45.22c.09,.22-.44,.58-1.17,.79-.74,.22-1.4,.21-1.49-.01-.09-.22,.44-.58,1.17-.79s1.4-.21,1.49,.01Z"/><path class="o" d="M152.56,45.19c.09,.22-.44,.58-1.17,.79-.74,.22-1.4,.21-1.49-.01-.09-.22,.44-.58,1.17-.79,.74-.22,1.4-.21,1.49,.01Z"/><path class="o" d="M139.92,56.6c.09,.22-.44,.58-1.17,.79-.74,.22-1.4,.21-1.49-.01s.44-.58,1.17-.79,1.4-.21,1.49,.01Z"/><path class="o" d="M157.63,50.38c.09,.22-.44,.58-1.17,.79-.74,.22-1.4,.21-1.49-.01-.09-.22,.44-.58,1.17-.79,.74-.22,1.4-.21,1.49,.01Z"/><path class="o" d="M122.31,61.16c.09,.22-.44,.58-1.17,.79-.74,.22-1.4,.21-1.49-.01-.09-.22,.44-.58,1.17-.79,.74-.22,1.4-.21,1.49,.01Z"/><ellipse class="o" cx="132.13" cy="62.11" rx="1.39" ry=".43" transform="translate(-11.89 38.14) rotate(-15.73)"/><path class="o" d="M146.38,61.14c.09,.22-.44,.58-1.17,.79-.74,.22-1.4,.21-1.49-.01-.09-.22,.44-.58,1.17-.79,.74-.22,1.4-.21,1.49,.01Z"/><path class="o" d="M162.68,58.84c.09,.22-.44,.58-1.17,.79s-1.4,.21-1.49-.01c-.09-.22,.44-.58,1.17-.79,.74-.22,1.4-.21,1.49,.01Z"/><path class="o" d="M168.1,52.58c.09,.22-.44,.58-1.17,.79-.74,.22-1.4,.21-1.49-.01-.09-.22,.44-.58,1.17-.79,.74-.22,1.4-.21,1.49,.01Z"/></g></g></g></g></g></g></g></svg>