<?xml version="1.0" encoding="UTF-8"?><svg xmlns="http://www.w3.org/2000/svg" viewBox="0 0 183.83 329.03"><defs><style>.b{fill:#d6b965;}.c{fill:#fff;}.d,.e,.f{fill:#ff831d;}.g{fill:#3d6670;}.h{opacity:.5;}.i{fill:#342517;}.j{fill:#f9dad2;stroke:#755339;}.j,.k,.l,.m,.n,.e,.o,.p,.q,.f,.r{stroke-miterlimit:10;}.j,.k,.l,.n{stroke-width:.75px;}.k,.s,.o{fill:#fbd0b4;}.k,.o,.p{stroke:#5b3c2d;}.t{fill:#d89e7d;}.u{fill:#512e1b;}.v{isolation:isolate;}.l{fill:#a52f6d;}.l,.n{stroke:#591e36;}.w{fill:#dda78a;}.m{stroke:#3d6670;}.m,.x{fill:#c2e8f8;}.y{opacity:.58;}.a`{opacity:.11;}.aa{fill:#f4e2d9;}.n,.ab{fill:#d1307d;}.e{stroke:#a54a05;}.p{fill:#c98f6f;}.ac{fill:#470e0e;}.q{fill:#2c4249;stroke:#151f21;}.f{stroke:#db6719;}.ad{fill:#5b3c2d;}.r{fill:#fff4c7;stroke:#bfa75a;}.ae{fill:#eef6e8;}.af{fill:#c64a1e;}.ag{fill:#591e36;}.ah{fill:#fefefe;}.ai{fill:#683804;mix-blend-mode:multiply;}.aj{fill:#c95a0e;}</style></defs><g class="v"><g id="a"><g><path class="h" d="M89.07,328.08c-14.47,0-28.1-.75-38.39-2.12-12.65-1.68-19.97-3.85-19.97-9.97,0-5.63,6.4-7.9,16.84-9.51,.09-.08,.18-.16,.28-.24,.16-.6,.33-1.21,.51-1.8-4.04-3.19-6.67-7.51-7.39-12.31-1.22-8.17-2.23-19.17-2.99-32.73,0,0-1.86,.03-1.88,.03-2.69,0-4.9-2.13-5-4.82l-.61-17.06c-1.09-.62-2.16-1.72-3-3.61l-.09-.19c-.49-.96-.79-2.13-2.13-8.32-.45-2.08-.91-4.23-1.18-5.23-.23-.85-.46-2.16-.39-4.51-.71-.58-1.26-1.37-1.56-2.3l-1.26-3.89c-15.87-11.14-13.02-41.07-12.88-42.39,.01-.11,.03-.21,.04-.32,6.62-39.43,35.27-52.65,44.77-55.99-.01-.02-.03-.04-.05-.07-3.64-3.6-5.56-7.96-5.78-13.24-4.76-1.85-8.85-6.37-9.07-12.69-.12-3.46,.85-6.48,2.67-8.67l-.03-.06c-3.04-7.04-7.64-17.68-2.26-26.89,3.46-5.93,10.33-10,20.87-12.32-.21-1.12-.29-2.33-.24-3.6,.29-6.38,4.32-10.85,9.81-10.93,.04-1.11,.21-2.16,.53-3.14,.88-2.74,3.66-7.35,12.42-7.36h0c.24,0,.47,.02,.7,.05,.06,0,.12,.02,.17,.02,2.83-4.86,6.75-5.92,9.63-5.92,2.58,0,5.31,.84,8.34,2.58,.05-.01,.15-.04,.29-.09,2.55-1.49,5.06-2.25,7.48-2.25,2.71,0,6.57,.95,9.97,5.35,.12-.05,.24-.09,.37-.13,1.52-.47,2.99-.71,4.34-.71,3.93,0,9.02,1.86,10.98,10.7,.02,.09,.04,.19,.05,.28l.21,.26c2.75,.71,4.28,2.25,5.11,3.52,1.58,2.39,1.87,5.41,.91,9.2,.8,.75,1.41,1.67,1.8,2.72,1.45,3.88-.59,8.05-2.53,11.24-.15,.25-.32,.48-.51,.7,.86,3.32,.04,5.59-.84,6.94-.78,1.19-2.23,2.63-4.85,3.25,.59,9.05-4.12,17.02-4.75,18.05-.05,.08-.13,.22-.24,.4,.58,1.47,.9,3.12,.95,4.89,.11,3.76-1.24,7.3-3.79,9.99-1.27,1.34-2.78,2.41-4.41,3.15,.04,1.23,0,2.39-.12,3.5,9.1,4.86,16.33,14.39,23.35,23.65,8.93,11.77,18.16,23.93,30.46,25.76,4.62,.68,5.84,3.78,6.15,5.08,.45,1.87,1.64,6.84-14,17.93-.86,.61-1.87,.92-2.89,.92-.6,0-1.2-.11-1.78-.33-.75-.28-1.48-.65-2.22-1.11-.34,.2-.78,.48-1.3,.88,4.71,11.28,5.63,20.79,2.74,28.33l2.5,7.04c.42,1.18,.38,2.46-.1,3.61,2.76,9.41,.28,17.51,.16,17.89-.07,.21-.15,.41-.24,.61-.88,1.87-1.67,3.36-2.42,4.54-.06,.12-.12,.24-.19,.36-.24,.42-.53,.8-.86,1.13-.68,.85-1.78,1.96-3.3,2.5-.16,.19-.32,.37-.48,.53,.21,4.26,.56,8.75,1.06,13.38,.15,1.4-.3,2.79-1.23,3.85-.93,1.05-2.26,1.66-3.67,1.68l-7.64,.11c-4.59,16.67-10.1,30.97-12.36,36.6-1.01,2.52-2.56,4.79-4.54,6.72,3.94,1.2,7.34,2.25,7.62,2.33,.3,.09,.59,.21,.86,.36,2.21,1.17,3.87,2.97,4.83,5.22,2.71,1.07,5.96,3.08,5.96,6.93,0,6.12-7.32,8.29-19.97,9.97-10.29,1.37-23.93,2.12-38.39,2.12Zm-.58-31.44c-1.21,2.79-3.12,5.28-5.53,7.32,2.02-.03,4.06-.04,6.12-.04,.74,0,1.48,0,2.21,0l.15-.57c.26-.95,.79-1.79,1.5-2.42-1.65-1.65-2.96-3.51-3.91-5.52-.18,.41-.35,.82-.53,1.23Z"/><path class="c" d="M84.07,323.08c-14.47,0-28.1-.75-38.39-2.12-12.65-1.68-19.97-3.85-19.97-9.97,0-5.63,6.4-7.9,16.84-9.51,.09-.08,.18-.16,.28-.24,.16-.6,.33-1.21,.51-1.8-4.04-3.19-6.67-7.51-7.39-12.31-1.22-8.17-2.23-19.17-2.99-32.73,0,0-1.86,.03-1.88,.03-2.69,0-4.9-2.13-5-4.82l-.61-17.06c-1.09-.62-2.16-1.72-3-3.61l-.09-.19c-.49-.96-.79-2.13-2.13-8.32-.45-2.08-.91-4.23-1.18-5.23-.23-.85-.46-2.16-.39-4.51-.71-.58-1.26-1.37-1.56-2.3l-1.26-3.89C-.01,193.35,2.84,163.41,2.97,162.1c.01-.11,.03-.21,.04-.32,6.62-39.43,35.27-52.65,44.77-55.99-.01-.02-.03-.04-.05-.07-3.64-3.6-5.56-7.96-5.78-13.24-4.76-1.85-8.85-6.37-9.07-12.69-.12-3.46,.85-6.48,2.67-8.67l-.03-.06c-3.04-7.04-7.64-17.68-2.26-26.89,3.46-5.93,10.33-10,20.87-12.32-.21-1.12-.29-2.33-.24-3.6,.29-6.38,4.32-10.85,9.81-10.93,.04-1.11,.21-2.16,.53-3.14,.88-2.74,3.66-7.35,12.42-7.36h0c.24,0,.47,.02,.7,.05,.06,0,.12,.02,.17,.02,2.83-4.86,6.75-5.92,9.63-5.92,2.58,0,5.31,.84,8.34,2.58,.05-.01,.15-.04,.29-.09,2.55-1.49,5.06-2.25,7.48-2.25,2.71,0,6.57,.95,9.97,5.35,.12-.05,.24-.09,.37-.13,1.52-.47,2.99-.71,4.34-.71,3.93,0,9.02,1.86,10.98,10.7,.02,.09,.04,.19,.05,.28l.21,.26c2.75,.71,4.28,2.25,5.11,3.52,1.58,2.39,1.87,5.41,.91,9.2,.8,.75,1.41,1.67,1.8,2.72,1.45,3.88-.59,8.05-2.53,11.24-.15,.25-.32,.48-.51,.7,.86,3.32,.04,5.59-.84,6.94-.78,1.19-2.23,2.63-4.85,3.25,.59,9.05-4.12,17.02-4.75,18.05-.05,.08-.13,.22-.24,.4,.58,1.47,.9,3.12,.95,4.89,.11,3.76-1.24,7.3-3.79,9.99-1.27,1.34-2.78,2.41-4.41,3.15,.04,1.23,0,2.39-.12,3.5,9.1,4.86,16.33,14.39,23.35,23.65,8.93,11.77,18.16,23.93,30.46,25.76,4.62,.68,5.84,3.78,6.15,5.08,.45,1.87,1.64,6.84-14,17.93-.86,.61-1.87,.92-2.89,.92-.6,0-1.2-.11-1.78-.33-.75-.28-1.48-.65-2.22-1.11-.34,.2-.78,.48-1.3,.88,4.71,11.28,5.63,20.79,2.74,28.33l2.5,7.04c.42,1.18,.38,2.46-.1,3.61,2.76,9.41,.28,17.51,.16,17.89-.07,.21-.15,.41-.24,.61-.88,1.87-1.67,3.36-2.42,4.54-.06,.12-.12,.24-.19,.36-.24,.42-.53,.8-.86,1.13-.68,.85-1.78,1.96-3.3,2.5-.16,.19-.32,.37-.48,.53,.21,4.26,.56,8.75,1.06,13.38,.15,1.4-.3,2.79-1.23,3.85-.93,1.05-2.26,1.66-3.67,1.68l-7.64,.11c-4.59,16.67-10.1,30.97-12.36,36.6-1.01,2.52-2.56,4.79-4.54,6.72,3.94,1.2,7.34,2.25,7.62,2.33,.3,.09,.59,.21,.86,.36,2.21,1.17,3.87,2.97,4.83,5.22,2.71,1.07,5.96,3.08,5.96,6.93,0,6.12-7.32,8.29-19.97,9.97-10.29,1.37-23.93,2.12-38.39,2.12Zm-.58-31.44c-1.21,2.79-3.12,5.28-5.53,7.32,2.02-.03,4.06-.04,6.12-.04,.74,0,1.48,0,2.21,0l.15-.57c.26-.95,.79-1.79,1.5-2.42-1.65-1.65-2.96-3.51-3.91-5.52-.18,.41-.35,.82-.53,1.23Z"/><g><ellipse class="a`" cx="84.07" cy="310.99" rx="53.36" ry="7.08"/><g><path class="j" d="M94.45,292.39s-.09,.39-.24,1.02c-.59,2.51-2.03,8.93-1.99,10.85,.05,2.41,14.32,2.97,14.32,2.97l6.79,.56s10.81-2.78-5.43-11.76c-16.24-8.98-13.45-3.64-13.45-3.64Z"/><path class="i" d="M129.3,303.26s-18.81-5.81-20.11-5.98c-1.29-.17-17.94,2.38-17.94,2.38l-1.85,6.8v4.48l42.61,1.34s2.06-6.5-2.72-9.03Z"/></g><g><path class="j" d="M49.78,295.64s-2.61,7.54-2.98,10.78c-.37,3.24,21.93,0,21.93,0v-9.13l-18.95-1.65Z"/><path class="i" d="M44.95,306.08s14.89-15.57,27.54,0c0,0,2.98,5.94-2.23,6.35-5.85,.47-33.5,2.9-25.31-6.35Z"/></g><g><g><path class="r" d="M85.21,212.42c-.15,19.66,0,52.1,2.16,71.72,.84,7.62,8.39,13.53,17.6,13.81h0c8.13,.25,15.5-3.98,18.08-10.39,6.58-16.39,17.54-48.23,18.93-72.68,.46-8.12-6.81-15.11-16.55-15.9l-20.07-1.64c-10.75-.88-20.08,6.1-20.15,15.08Z"/><g><path class="r" d="M36.52,211.69c.32,20.11,1.3,54.24,4.37,74.7,1.16,7.73,9.16,13.48,18.54,13.34l2.54-.04c7.61-.11,14.34-4.11,16.93-10.05,5.65-12.99,15.24-36.52,19.96-56.53,.57-2.42,9.7,.02,11.91-6.86,.74-2.3,1.8-5.74,2.9-9.43,2.78-9.33-5.37-18.45-16.93-18.91l-41-1.65c-10.57-.42-19.38,6.64-19.24,15.43Z"/><path class="q" d="M113.24,234.33c-4.14,1.85-10.06,3.38-14.69,1.53"/></g></g><g><line class="q" x1="61.21" y1="207.37" x2="55.7" y2="206.36"/><line class="q" x1="137.11" y1="205.85" x2="133.13" y2="206.86"/></g></g><g class="y"><path class="b" d="M90.65,248.64c-3.16,13.14-13.16,49.28-31.35,45-12.07-2.98-18.17-14.89-14.95-26.56l.29,.06c-.55,9.64,3.64,19.1,13.01,22.68,4.68,2.29,8.95,1.48,12.85-1.97,5.45-4.83,9.02-11.67,12.1-18.26,3.11-6.78,5.69-13.84,7.76-21.04l.29,.07h0Z"/></g><g class="y"><path class="b" d="M86.53,234.6c-2.46,10.73-6.39,25.06-14.86,32.62-2.14,1.83-5.18,2.83-8.01,2.34-3.26-.33-6.51-1.18-9.38-2.88-2.24-1.34-4.36-3.29-5.12-5.86l.28-.11c1.43,1.95,3.57,3.21,5.78,4.07,2.76,1.05,5.74,1.52,8.7,1.68,1.69,.16,3.08,.08,4.63-.7,6.26-3.38,9.54-10.89,12.51-17.21,2.02-4.54,3.71-9.26,5.18-14.03l.29,.07h0Z"/></g><g class="y"><path class="b" d="M90.4,268.11c1.47,8.53,4.57,23.27,15.21,23.64,3.13,.16,6.47-1.01,9.89-2.22l.16,.25c-1.32,1.3-2.77,2.5-4.44,3.34-11.08,5.84-17.76-4.64-19.83-14.24-.78-3.55-1.24-7.14-1.29-10.74l.3-.02h0Z"/></g><g class="y"><path class="b" d="M129.48,242.78c-1.99,8.57-10.73,47.6-24.43,37.61-8.26-5.68-11.31-17.22-11.92-26.67l.3-.05c3,8.88,5.9,18.31,13.3,24.26,2.54,2.04,4.49,1.77,6.9-.56,4.3-4.45,6.9-10.66,9.29-16.38,2.43-5.95,4.46-12.09,6.27-18.29l.29,.07h0Z"/></g><g><path class="k" d="M142.62,206.36s4.28,15.77,3.06,19.84c-1.22,4.07,1.84,7.12,3.67,1.53,0,0,.61,4.07,4.9-5.09,0,0,3.47-10.97-3.06-21.37"/><path class="o" d="M143.84,204.83s-4.36,14.69-2.79,16.5c1.57,1.81,4.01-2.26,5.24-6.84"/><path class="o" d="M150.58,217.04s.61,5.09-1.22,11.19"/><path class="o" d="M153.64,217.04c.42,.8,.76,5.53-1.84,10.17"/></g><path class="l" d="M97.32,109.19s-11.68,28.06,14.6,68.55c0,0,12.98,30.75,31.31,29.63l11.02-3.05-14.95-42.1s-1.93-10.55-4.64-20.47c-4.59-16.8-23.87-31.54-37.34-32.56Z"/><path class="n" d="M100.38,109.63c-16.76-6.74-31.83-2.99-31.83-2.99-2.96,.9-18.36,0-28.77,11.19l2.97,6.41c-11.26,17.9-19.59,64.1-5.51,75.29,14.08,11.19,56.41,9.87,76,9.87,25.56,0,57.54-7.12,28.16-54.94,7.13-1.27-12.22-21.11-19.59-29"/><g><path class="ab" d="M36.11,150.4s7.35,21.87,60.6,1.53"/><path class="ag" d="M36.11,150.4c1.73,3.71,5.39,6.18,9.09,7.62,12.74,4.6,27.21,1.09,39.86-2.37,2.71-.69,8.92-2.87,11.66-3.73-2.75,1.01-8.8,3.45-11.52,4.18-11.61,3.58-24.18,6.47-36.28,3.67-5.18-1.31-10.65-4.22-12.81-9.37h0Z"/></g><path class="n" d="M66.1,139.21s-.34,4.02-10.41,4.58"/><path class="m" d="M33.05,155.99c6.73,1.53,6.73,1.02,7.96,8.65"/><g><path class="x" d="M128.94,146.82s9.9,3.13,12.4,8.44"/><path class="g" d="M128.94,146.82c4.81,1.22,10.33,3.6,12.4,8.44-2.96-4.22-7.93-6.22-12.4-8.44h0Z"/></g><path class="p" d="M95.59,107.27c-.07,2.73,1.18,10.8-3.17,13.62,0,0,1.99,2.54,1.84,3.56-2.42-1-6.12-4.07-6.73-4.58-3.06,0-7.43-1.22-9.1-2.08-13.64-6.97-12.59-8.05-10.9-13.9,1.83-6.33,8.31-10.91,16.06-9.98,7.75,.93,12.16,6.84,12,13.35Z"/><path class="n" d="M151.8,193.81s-8.71,11.64-4.19,53.91l-116.54,1.71-2.38-66.14"/><g><path class="k" d="M24.8,202.01s-1.75,8.64-.89,11.91c.72,2.73,2.45,11.62,2.93,12.56,.48,.94,.9,2.8,2.69,1.06,0,0,.83,3.72,4.37,.69,0,0,2.41,4.72,4.41,.23,0,0,2,2.86,3.96-1.17,0,0,.58-7.79,.41-12.85,0,0,1.45,2.83,2.45,4.26,0,0,8.37,6.41,3.51-2.58,0,0,.14-1.83-.69-5.55-.83-3.72-7.13-8.18-7.13-8.18l-2.52-3.35"/><g><line class="s" x1="38.31" y1="228.45" x2="37.58" y2="216"/><path class="ad" d="M38.26,228.46c-.27-2.07-.5-4.14-.71-6.21-.2-1.6-.58-4.9,.08-6.25,.66,2.03,.76,4.1,.71,6.2,.03,2.08,.04,4.16,.01,6.25h-.1Z"/></g><g><line class="s" x1="33.87" y1="228.68" x2="33.18" y2="215.78"/><path class="ad" d="M33.82,228.69c-.26-2.14-.49-4.29-.7-6.44-.2-1.84-.58-4.86,.1-6.48,.66,2.11,.75,4.26,.7,6.44,.03,2.16,.03,4.31,0,6.47h-.1Z"/></g><g><line class="s" x1="29.88" y1="228.07" x2="28.7" y2="216.46"/><path class="ad" d="M29.83,228.08c-.34-1.92-.65-3.84-.94-5.77-.25-1.05-.72-5.19-.14-5.85,.74,1.87,.91,3.8,.94,5.77,.11,1.94,.19,3.89,.24,5.84h-.1Z"/></g></g><g><path class="n" d="M52.02,109.7S15.29,118.86,7.95,162.61c0,0-3.06,30.01,12.11,38.63l18.99-5.56,1.95-31.04s5.86-10.02,13.72-17.82c3.07-3.05,6.92-3.82,9.98-13.99"/><polyline class="n" points="20.06 201.23 21.88 206.83 42.1 201.28 39.05 195.68"/></g><g><g><path class="f" d="M91.48,101.64s27.46,38,36.63,72.61c0,0,7.12-4.33,7.24-2.29,0,0,9.45-7.13,8.17-1.53,0,0,11.67-14.67,15.5-7.59,0,0,18.05-12.8,10.01-14-28.29-4.19-39.19-50.83-64.4-52.61l-13.15,5.4Z"/><path class="f" d="M103.44,97.29c29.69,16.27,43.67,61.01,55.58,65.55"/><path class="f" d="M144.24,169.56c-9.12-12.03-29.66-62.35-44.51-71.54"/><path class="f" d="M135.35,171.95c-9.53-18.34-30.25-69.19-39.64-72.05"/></g><g><path class="e" d="M61.38,34.2c-3.48-.32-4.11-12.94,3.42-11.83,3.36-.33,4.94-1.33,4-3.26-.64-4.83,1.94-7.3,7.87-7.31,1.96,.28,3.68,.05,4.76-1.6,2.04-4.18,5.42-5.9,11.69-2.27,1.54,.86,3.21,.8,4.99-.04,4.45-2.7,8.37-2.32,11.58,2.25,1.29,2,3.03,2.57,5.41,1.05,5.67-1.76,7.89,1.44,8.96,6.29,.08,2.19,.74,3.91,3.19,4.16,3.33,.45,4.19,2.96,3.03,7.16-1.16,1.98-1.31,3.41,.35,3.86,2.87,.92,2.23,4.03-.41,8.38-1.85,1.74-2.34,3.16-1.18,4.19,.87,2.82-.09,4.26-2.6,4.55-25.78-24.99-41.31-6.65-65.07-15.56Z"/><g><line class="d" x1="94.47" y1="35.03" x2="62.81" y2="22.42"/><path class="aj" d="M94.47,35.03c-11.01-2.91-21.67-7.14-31.66-12.6,11.01,2.9,21.66,7.15,31.66,12.6h0Z"/></g><g><polyline class="d" points="69.02 15.69 95.71 34.48 76.68 11.8"/><path class="aj" d="M69.02,15.69c9.36,5.57,18.36,11.71,27.26,17.98l-1.33,1.45c-6.31-7.6-12.52-15.27-18.27-23.31,8.69,8.83,16.82,18.57,24.88,27.98-11.01-7.69-22.19-15.55-32.54-24.1h0Z"/></g><g><polyline class="d" points="97.46 8.17 97.46 34.48 109.95 11.8"/><path class="aj" d="M97.46,8.17c.81,8.76,.96,17.53,1,26.31l-1.87-.48c4.21-7.55,8.51-15.03,13.36-22.19-3.97,9.12-8.74,17.9-13.5,26.62,.03-10.08,.09-20.21,1.01-30.26h0Z"/></g><g><path class="d" d="M123.36,17.58c-.76,.13-24,16.9-24,16.9l28.36-11.34"/><path class="aj" d="M123.36,17.58c-7.63,5.87-15.58,12.11-23.42,17.71l-.95-1.73c9.36-3.71,19.13-7.45,28.73-10.41-6.84,3.42-13.87,6.43-20.92,9.39-3.69,1.5-11.18,4.54-14.89,6.04,10.21-7.19,20.49-15,31.44-21h0Z"/></g><g><path class="d" d="M128.48,29.84c-.45,.25-28.75,6.07-28.75,6.07l31.16-2.19"/><path class="aj" d="M128.48,29.84c-9.36,2.94-18.97,4.99-28.55,7.05l-.27-1.96c10.39-.72,20.81-1.29,31.23-1.2-10.31,1.55-20.7,2.44-31.09,3.18l-.27-1.96c2.4-.47,4.8-.98,7.21-1.42,6.95-1.35,14.7-2.63,21.75-3.68h0Z"/></g><g><path class="d" d="M127.73,44.62s-8.28-6.35-21.86-8.01"/><path class="aj" d="M127.73,44.62c-7.2-3.3-14.37-5.62-21.86-8.01,7.88-.4,16.24,2.39,21.86,8.01h0Z"/></g></g><path class="e" d="M49.65,74.67s3.29-27.43,29.69-25.05c26.4,2.38,24.05,10.9,27.48,23.41,3.44,12.52,12.45-3.06,12.45-3.06,0,0,22.52-35.5-38.14-35.5s-44.69,25.15-39.69,37.72c4.47,11.23,8.21,2.47,8.21,2.47Z"/><g><path class="o" d="M119.27,78c.16,5.53-4.39,9.11-8.49,9.2-4.1,.09-4.76-2.72-4.91-7.43-.15-4.71,3.06-8.61,7.16-8.7,4.1-.09,6.12,3,6.24,6.93Z"/><path class="t" d="M109.43,77.9c.49,.53,1.32,.94,1.32,1.61,0,.46-.41,.83-.71,1.21-.42,.53-.68,1.19-.52,1.81s.84,1.17,1.59,1.14c.38-.01,.73-.16,1.05-.33,1.98-1.01,3.33-2.86,3.52-4.81,.11-1.12-.17-2.3-1.03-3.15-2.26-2.24-7.74-.19-5.22,2.52Z"/></g><g><path class="o" d="M37.89,79.62c.19,5.53,4.96,8.89,9.06,8.8,4.1-.09,4.58-2.93,4.43-7.64-.15-4.71-3.6-8.46-7.7-8.36-4.1,.09-5.92,3.27-5.79,7.2Z"/><path class="t" d="M47.71,79.07c-.46,.55-1.26,1-1.21,1.67,.03,.46,.46,.81,.79,1.17,.46,.51,.76,1.15,.63,1.78s-.76,1.2-1.51,1.21c-.38,0-.74-.13-1.07-.28-2.04-.92-3.5-2.7-3.82-4.64-.18-1.11,.02-2.31,.83-3.2,2.12-2.34,7.72-.55,5.37,2.28Z"/></g><path class="k" d="M91.12,109.33c-.14,.1-.31,.18-.41,.31-1.6,2.1-2.79,4.07-10.33,4.75-3.77,.34-9.96-1.15-11.5-4.06-.39-.74-3.51-1.23-4.1-1.38-26.13-6.88-16.09-23.87-15.38-31.92,0-.02,0-.05,0-.08,2.29-25.71,18.79-27.7,29.93-27.95,8.82-.2,20.86,.74,25.43,15.08,1.41,4.44,1.68,7.67,3.15,12.46,.11,.37,.23,.75,.36,1.14,9.56,29.42-7.65,24.8-17.16,31.66Z"/><path class="w" d="M108.45,79.86c-5.88-18.84-7.09-21.75-10.7-23.66-5.58-2.95-9.04-2.08-27.77-.33-18.41,1.72-20.68,22.73-20.87,24.53,2.72-25.68,25.86-30.03,37.19-30.28,8.97-.2,17.02,5.38,19.36,18.4,.82,4.55,1.29,6.55,2.79,11.33Z"/><g><path class="w" d="M99.73,71.48c.11,3.43-2.69,4.96-6.2,5.04-3.51,.08-6.4-1.15-6.51-4.59-.11-3.43,2.61-7.41,6.12-7.49s6.47,3.61,6.58,7.04Z"/><g><path class="aa" d="M99.36,74.24c.11,3.43-2.34,4.9-5.81,4.98-3.48,.08-6.33-1.16-6.44-4.59s2.43-5.69,5.9-5.77,6.24,1.95,6.35,5.38Z"/><path class="u" d="M99.41,74.24c.32,3.64-2.9,5.66-6.21,5.42-2.28-.06-4.92-.95-5.88-3.21-.87-2.2-.45-5.01,1.43-6.58,3.95-3.27,10.75-1.17,10.66,4.38h0Zm-.1,0c-.16-4.76-6.69-6.11-9.99-3.67-1.69,1.21-2.51,3.75-1.71,5.76,.88,2.18,3.51,2.55,5.6,2.46,2.92,.04,6.34-1.05,6.1-4.55h0Z"/></g></g><path class="w" d="M69.01,73.92c.11,3.43-2.39,3.62-5.9,3.7-3.51,.08-6.4-1.15-6.51-4.59-.11-3.43,2.61-7.41,6.12-7.49,3.51-.08,6.18,4.95,6.29,8.38Z"/><g><g><path class="aa" d="M69.34,75.22c.11,3.43-2.63,5.02-6.14,5.1-3.51,.08-6.4-1.15-6.51-4.59-.11-3.43,2.79-6.3,6.3-6.38,3.51-.08,6.24,2.43,6.35,5.87Z"/><path class="u" d="M69.39,75.22c.3,3.68-3.26,5.79-6.56,5.53-2.35-.06-5.13-1.01-6-3.42-.82-2.34-.14-5.1,1.77-6.76,4.25-3.75,10.82-1.14,10.79,4.65h0Zm-.1,0c-.54-6.99-11.2-7.05-12.34-.25-.6,3.74,2.67,5.15,5.88,4.91,2.9,.06,6.7-1.15,6.46-4.66h0Z"/></g><g><ellipse class="ai" cx="63.83" cy="74.84" rx="3.66" ry="4.2" transform="translate(-11.37 138.25) rotate(-89.68)"/><ellipse class="ai" cx="63.83" cy="74.84" rx="2.68" ry="3.08" transform="translate(-11.37 138.25) rotate(-89.68)"/><ellipse class="ah" cx="66.47" cy="72.1" rx=".8" ry=".88" transform="translate(-6.89 137.17) rotate(-88.9)"/></g><g><ellipse class="ai" cx="92.7" cy="74.35" rx="3.66" ry="4.2" transform="translate(17.83 166.63) rotate(-89.68)"/><ellipse class="ai" cx="92.7" cy="74.35" rx="2.68" ry="3.08" transform="translate(17.83 166.63) rotate(-89.68)"/><ellipse class="ah" cx="95.34" cy="71.61" rx=".8" ry=".88" transform="translate(21.91 165.55) rotate(-88.9)"/></g></g><path class="i" d="M87.64,61.78c-.31,.1,.75-1.16,1.73-2.26,1.02-1.15,2.76-1.66,4.4-1.29,2.45,.56,5.8,2.09,7.57,6.21,.05,.11-.11,.2-.22,.12-1.5-1.15-7.04-4.89-13.49-2.78Z"/><path class="i" d="M68.08,63.14c.32,.09-.82-1.12-1.87-2.18s-2.86-1.54-4.48-1.09c-2.41,.67-5.65,2.35-7.17,6.55-.04,.11,.13,.2,.22,.11,1.42-1.22,6.72-5.2,13.29-3.39Z"/><g><path class="w" d="M93.88,90.16c-.26,.24-4.41,5.8-6.05,10.24-.14,.39-.35,.75-.63,1.1-2.64,3.32-10.88,4.28-15.45,.4-.5-.43-.96-.91-1.36-1.47,0,0-2.21-6.24-5.69-9.92,0,0,0,0,0,0,.08,.04,2.15,1.06,5.07,2.1,2.85,1.01,4.69,.71,8.82,.87,5.87,.24,10.27-1.03,12.77-2.16,2.21-.99,2.38-1.07,2.52-1.17Z"/><path class="ac" d="M93.88,90.16c-.26,.24-4.47,4.15-6.1,8.58-.14,.39-.35,.75-.63,1.1-2.64,3.32-10.88,4.28-15.45,.4-.5-.43-.96-.91-1.36-1.47,0,0-2.15-4.59-5.64-8.27h0c.08,.02,1.78,1.44,4.6,2.68,2.56,1.14,6.11,2.15,10.22,1.77,4.56-.42,8.24-1.69,10.74-2.81,2.21-.99,3.5-1.89,3.63-1.98Z"/><path class="ae" d="M90.25,92.14c-3.39,6.09-12.38,7.18-18.04,4.48-2.11-1-2.2-2.19-2.92-3.43,2.56,1.14,6.11,2.15,10.22,1.77,4.56-.42,8.24-1.69,10.74-2.81Z"/><path class="af" d="M87.16,99.84c-2.64,3.32-10.88,4.28-15.45,.4,.69-.74,2.24-1.93,4.9-1.62,1.25,.14,2.26,.95,2.5,2.01h0s.3-2.31,3.96-2.58c2.29-.17,3.43,.71,4.09,1.79Z"/></g><path class="i" d="M78.69,88.63s-1.24,5.83,5.72,5.1c6.96-.73,6.83-2.34,7.99-1s-2.82,13.99,7.25,13.55c10.07-.44,8.29-12.63,8.29-12.63,0,0-2.04-1.33-2.04,1.34s-6.59,5.54-7.01,2.6c-.42-2.94-.82-18.27-20.21-8.95Z"/><path class="i" d="M79.39,88.63s1.24,5.83-5.72,5.1c-6.96-.73-6.83-2.34-7.99-1s2.82,13.99-7.25,13.55c-10.07-.44-8.29-12.63-8.29-12.63,0,0,2.04-1.33,2.04,1.34,0,2.67,6.59,5.54,7.01,2.6,.42-2.94,.82-18.27,20.21-8.96Z"/><g><path class="s" d="M71.7,80.65c-2.18,1.54-1.54,3.95,.75,5.38,2.22,1.39,2.93,2.7,7.17,2.6,4.51-.11,3.23-.78,5.56-2.13,4.79-2.79,.18-6.16,.18-6.16"/><path class="ad" d="M71.7,80.65c-2.32,1.77-.93,4.31,1.29,5.39,1.02,.64,1.93,1.39,2.99,1.74,2.02,.62,4.71,.51,6.68-.03,.51-.19,.84-.65,1.28-.99,.5-.4,1.09-.68,1.53-.98,2.49-1.45,1.69-3.77-.12-5.46,2.51,1.5,3.26,4.33,.61,6.16-1.18,.64-1.78,1.57-2.92,2.18-2.46,.63-4.97,.6-7.33-.2-1.19-.47-2.1-1.31-3.04-1.97-2.22-1.19-3.65-4.26-.97-5.86h0Z"/></g><path class="f" d="M92.58,50.04s-.03,2.92-13.57,3.09c-13.54,.17-19.93,3.4-25.22,11.46l-4.13,10.08s-1.68-2.75-5.01-2.26c-3.33,.49-9.65-15.34,6.76-26.13,11.74-7.71,27.85-5.56,41.83-11.26,0,0,3.19,9.21-.66,15.01Z"/><path class="f" d="M92.31,50.57s3.55-3.2,2.16-10.21c0,0,23.47,3.77,19.7,30.12,0,0-5.16,.32-6.95,3.57,0,0-3.19-17.4-14.92-23.48Z"/><g><path class="d" d="M92.31,35.98c-10.57,13-25.75,5.88-37.19,13"/><path class="aj" d="M92.31,35.98c-8.89,13.68-24.7,7.36-37.19,13,2.65-2.16,6.03-3.35,9.37-4.02,10.37-1.85,19.71-.85,27.81-8.97h0Z"/></g><path class="aj" d="M92.31,37.35c.52,8.26-7.69,13.02-15.07,13.33-2.43,.1-4.85-.08-7.22-.57,1.2-.21,2.38-.33,3.56-.45,7.81-.85,16.69-3.74,18.74-12.31h0Z"/><path class="aj" d="M95.71,42.48c9.29,3.16,14.59,13.62,14.24,23.05-.58-1.63-1.04-3.41-1.65-5.01-2.41-7.05-6.54-13.53-12.59-18.04h0Z"/><path class="aj" d="M94.73,38.61c9.34-1.22,20.87,3.62,23.05,13.52-1.34-2-2.63-3.88-4.34-5.4-5.13-4.72-11.99-6.7-18.71-8.12h0Z"/><path class="aj" d="M55.12,54c-4.7,3.39-8.15,8.39-8.21,14.28-.1,1.35,.03,2.74,.02,4.12-3.91-7.19,.13-16.62,8.19-18.41h0Z"/></g></g></g></g></g></svg>