<?xml version="1.0" encoding="UTF-8"?><svg xmlns="http://www.w3.org/2000/svg" xmlns:xlink="http://www.w3.org/1999/xlink" viewBox="0 0 174.91 237.79"><defs><style>.c{fill:#ddd;}.d{fill:#fff;}.e{fill:#d1d1d1;}.f{fill:#fca7a7;}.g{fill:#b21414;}.h{fill:#bfbfbf;}.i,.j{opacity:.5;}.j{fill:#60833a;mix-blend-mode:multiply;}.k{fill:#ef7a7a;}.l{isolation:isolate;}.m{fill:#d0cecf;}.n{fill:#ea3434;}.o{fill:#b1aeaf;}.p{fill:#ad6f44;}.q{fill:#d83a3a;}.r{fill:#8e8e8e;}.s{fill:#eaeaea;}.t{fill:url(#b);}.u{fill:#ffaeae;}.v{fill:#f99398;}.w{fill:#494949;}.x{fill:#4f4f4f;}.y{fill:#353535;}.a`{fill:#f95858;}.aa{fill:#f5eae9;}.ab{fill:#320507;}.ac{fill:#d8b99e;}.ad{fill:#ffe9eb;}.ae{fill:#7f7f7f;}.af{fill:#7f0000;}.ag{fill:#bf2c2c;}.ah{fill:#edd8c3;}.ai{fill:#ffbbbe;}</style><linearGradient id="b" x1="64.33" y1="129.62" x2="59.55" y2="210.37" gradientTransform="matrix(1, 0, 0, 1, 0, 0)" gradientUnits="userSpaceOnUse"><stop offset=".02" stop-color="#749a23"/><stop offset=".18" stop-color="#749a23"/><stop offset=".19" stop-color="#709923"/><stop offset=".27" stop-color="#52922a"/><stop offset=".34" stop-color="#408e2e"/><stop offset=".39" stop-color="#3a8d30"/><stop offset=".41" stop-color="#318b31"/><stop offset=".48" stop-color="#168437"/><stop offset=".54" stop-color="#05803b"/><stop offset=".59" stop-color="#007f3d"/><stop offset=".69" stop-color="#006929"/><stop offset=".78" stop-color="#005416"/><stop offset=".86" stop-color="#005021"/><stop offset="1" stop-color="#004740"/></linearGradient></defs><g class="l"><g id="a"><g><path class="i" d="M46.1,234.79c-2.46,0-4.51-.51-6.1-1.51-3.62-.42-7.59-1.45-9.74-4.65-2.02-2.99-1.3-6.09-.75-7.87-.31-2.74,.27-6.6,2.66-9.86,2.69-3.66,6.78-5.9,13.69-7.47,0,0,1.62-.36,1.64-.37-5.62-4.72-7.1-11.25-6.85-15.26,.48-7.67,4.6-16.69,11.35-24.92,.72-4.46,1.71-8.85,2.93-13.1-8.14-5.11-16.48-14.27-19.5-17.99h-.02c-.15-.13-.29-.26-.43-.4-5.33-4.79-9.83-12.56-12.25-18.7-4.75-1.79-8.36-3.54-11.51-8.03-2.74-3.91-3.89-9.03-2.87-12.73,.6-2.17,1.91-3.88,3.72-4.86,.19-.98,.47-1.9,.82-2.72,1.14-2.64,3.12-4.43,5.59-5.03,.7-.17,1.41-.26,2.12-.26,.35,0,.69,.02,1.03,.06,1.23-.97,3.07-1.86,5.67-1.86,.12,0,.24,0,.36,0,2.97,.09,5.6,1.39,7.39,3.66,.12,.15,.24,.31,.35,.47,.17,0,.33-.01,.5-.01,.92,0,1.88,.15,2.83,.43,2.72,.82,4.8,2.87,5.86,5.77,1.38,3.77,.96,8.79-.97,13.37,1.51,1.39,3.08,2.94,4.59,4.52,.17-3.83,1.67-7.66,4.22-10.68,.32-7.92,2.6-18.28,8.13-26.35-6.42-3.92-12.24-9.29-16.23-15.09-7.59-11.03-11.98-22.96-12.97-27.88-.11-.53-.24-1.13-.38-1.78-1.35-6.2-2.74-12.6,2.33-14.99,.98-.46,2.01-.7,3.07-.7,1.61,0,2.95,.51,4.81,1.22,1.66,.63,4.05,1.55,7.87,2.7,10.12,3.06,19.85,11.4,27.41,23.48,3.19,5.11,5.6,11.15,7.31,16.36,1.44-.28,2.98-.44,4.64-.5,.06,0,.25,0,.29,0,1.69,.04,3.36,.26,4.96,.65,.36-1.28,.7-2.55,1.03-3.74,1.4-5.13,2.62-9.55,3.66-12.13,2.18-5.36,5.24-7.86,7.42-9.02l.14-.07c.1-.05,.19-.1,.29-.14,1.29-.66,3.22-1.43,5.53-1.7,.54-.06,1.09-.09,1.63-.09,2.58,0,6.16,.71,9.49,3.81,.8-.12,1.58-.19,2.36-.19,3.21,0,9.2,1.16,13.28,8.94,2.65,5.07,4.25,9.72,5.79,14.22,.74,2.17,1.58,4.63,2.51,6.94,1.04,2.59,2.27,4.44,3.25,5.92,1.45,2.18,2.95,4.43,2.5,7.44-.28,1.9-1.41,3.56-3.17,4.66-.76,.47-1.64,.85-2.62,1.12-1.28,.35-2.75,.53-4.35,.53-3.15,0-6.56-.67-9.89-1.94-6.99-2.67-12.86-8.67-16.48-13.11-.38,.35-.76,.69-1.14,1.02,.84,.85,1.62,1.76,2.35,2.72,6.93,9.14,9.24,21.6,9.16,30.23,1.11,1.91,1.87,4.01,2.22,6.13,.4-.38,.79-.75,1.18-1.1-1.93-4.58-2.34-9.6-.97-13.37,1.06-2.9,3.14-4.95,5.86-5.77,.96-.29,1.91-.43,2.83-.43,.17,0,.34,0,.5,.01,.11-.16,.23-.32,.35-.48,1.79-2.27,4.41-3.56,7.39-3.66,.12,0,.24,0,.36,0,2.6,0,4.43,.89,5.67,1.86,.34-.04,.68-.06,1.03-.06,.71,0,1.43,.09,2.13,.26,2.46,.61,4.45,2.39,5.58,5.03,.35,.82,.63,1.74,.82,2.72,1.81,.98,3.12,2.69,3.72,4.86,1.02,3.7-.13,8.82-2.87,12.73-3.15,4.49-6.76,6.24-11.51,8.03-1.12,2.85-2.69,6.05-4.59,9.14,1.64-1.07,3.37-1.81,5.14-2.19,.72-.25,1.48-.43,2.25-.54,2.48-1.89,4.83-2.81,7.17-2.81s4.31,.9,5.83,2.55c.84,.88,1.49,1.96,1.93,3.18,.08,.09,.16,.17,.23,.26,3.34,3.75,3.66,9.83,2.81,14.5,.02,8.39-5.75,17.12-11.69,25.35-4.93,6.83-7.38,14.18-9.17,19.54-1.09,3.28-2.14,5.88-3.69,7.85-2.06,2.71-4.88,4.09-8.37,4.09-.33,0-.67-.01-1.02-.04-1.27-.09-2.44-.44-3.48-1.04-3.99-.74-6.36-4.46-7.84-6.78l-.16-.26c-.2-.32-.41-.65-.61-.98-.97-1.58-1.38-2.15-1.78-2.23-.01,0-.05,0-.1,0-1.21,0-3.97,1.83-6.22,3.37-.12,.15-.25,.31-.37,.46l-.14,.18c-.08,.1-.16,.2-.25,.29-6.88,8.27-15.98,12.47-27.06,12.47h-.12c-.03,.98-.09,1.99-.14,2.99-.29,5.15-2.79,8.82-7.29,13.8-6.26,6.91-14.09,11.95-23.29,14.96-5.29,1.73-9.41,2.57-12.62,2.57Zm85.78-94.79c.81,.48,1.57,1.01,2.27,1.57,.88-2.43,1.92-5,3.12-7.45-1.45,1.72-3.31,3.77-5.39,5.88Z"/><path class="d" d="M41.1,229.79c-2.46,0-4.51-.51-6.1-1.51-3.62-.42-7.59-1.45-9.74-4.65-2.02-2.99-1.3-6.09-.75-7.87-.31-2.74,.27-6.6,2.66-9.86,2.69-3.66,6.78-5.9,13.69-7.47,0,0,1.62-.36,1.64-.37-5.62-4.72-7.1-11.25-6.85-15.26,.48-7.67,4.6-16.69,11.35-24.92,.72-4.46,1.71-8.85,2.93-13.1-8.14-5.11-16.48-14.27-19.5-17.99h-.02c-.15-.13-.29-.26-.43-.4-5.33-4.79-9.83-12.56-12.25-18.7-4.75-1.79-8.36-3.54-11.51-8.03-2.74-3.91-3.89-9.03-2.87-12.73,.6-2.17,1.91-3.88,3.72-4.86,.19-.98,.47-1.9,.82-2.72,1.14-2.64,3.12-4.43,5.59-5.03,.7-.17,1.41-.26,2.12-.26,.35,0,.69,.02,1.03,.06,1.23-.97,3.07-1.86,5.67-1.86,.12,0,.24,0,.36,0,2.97,.09,5.6,1.39,7.39,3.66,.12,.15,.24,.31,.35,.47,.17,0,.33-.01,.5-.01,.92,0,1.88,.15,2.83,.43,2.72,.82,4.8,2.87,5.86,5.77,1.38,3.77,.96,8.79-.97,13.37,1.51,1.39,3.08,2.94,4.59,4.52,.17-3.83,1.67-7.66,4.22-10.68,.32-7.92,2.6-18.28,8.13-26.35-6.42-3.92-12.24-9.29-16.23-15.09-7.59-11.03-11.98-22.96-12.97-27.88-.11-.53-.24-1.13-.38-1.78-1.35-6.2-2.74-12.6,2.33-14.99,.98-.46,2.01-.7,3.07-.7,1.61,0,2.95,.51,4.81,1.22,1.66,.63,4.05,1.55,7.87,2.7,10.12,3.06,19.85,11.4,27.41,23.48,3.19,5.11,5.6,11.15,7.31,16.36,1.44-.28,2.98-.44,4.64-.5,.06,0,.25,0,.29,0,1.69,.04,3.36,.26,4.96,.65,.36-1.28,.7-2.55,1.03-3.74,1.4-5.13,2.62-9.55,3.66-12.13,2.18-5.36,5.24-7.86,7.42-9.02l.14-.07c.1-.05,.19-.1,.29-.14,1.29-.66,3.22-1.43,5.53-1.7,.54-.06,1.09-.09,1.63-.09,2.58,0,6.16,.71,9.49,3.81,.8-.12,1.58-.19,2.36-.19,3.21,0,9.2,1.16,13.28,8.94,2.65,5.07,4.25,9.72,5.79,14.22,.74,2.17,1.58,4.63,2.51,6.94,1.04,2.59,2.27,4.44,3.25,5.92,1.45,2.18,2.95,4.43,2.5,7.44-.28,1.9-1.41,3.56-3.17,4.66-.76,.47-1.64,.85-2.62,1.12-1.28,.35-2.75,.53-4.35,.53-3.15,0-6.56-.67-9.89-1.94-6.99-2.67-12.86-8.67-16.48-13.11-.38,.35-.76,.69-1.14,1.02,.84,.85,1.62,1.76,2.35,2.72,6.93,9.14,9.24,21.6,9.16,30.23,1.11,1.91,1.87,4.01,2.22,6.13,.4-.38,.79-.75,1.18-1.1-1.93-4.58-2.34-9.6-.97-13.37,1.06-2.9,3.14-4.95,5.86-5.77,.96-.29,1.91-.43,2.83-.43,.17,0,.34,0,.5,.01,.11-.16,.23-.32,.35-.48,1.79-2.27,4.41-3.56,7.39-3.66,.12,0,.24,0,.36,0,2.6,0,4.43,.89,5.67,1.86,.34-.04,.68-.06,1.03-.06,.71,0,1.43,.09,2.13,.26,2.46,.61,4.45,2.39,5.58,5.03,.35,.82,.63,1.74,.82,2.72,1.81,.98,3.12,2.69,3.72,4.86,1.02,3.7-.13,8.82-2.87,12.73-3.15,4.49-6.76,6.24-11.51,8.03-1.12,2.85-2.69,6.05-4.59,9.14,1.64-1.07,3.37-1.81,5.14-2.19,.72-.25,1.48-.43,2.25-.54,2.48-1.89,4.83-2.81,7.17-2.81s4.31,.9,5.83,2.55c.84,.88,1.49,1.96,1.93,3.18,.08,.09,.16,.17,.23,.26,3.34,3.75,3.66,9.83,2.81,14.5,.02,8.39-5.75,17.12-11.69,25.35-4.93,6.83-7.38,14.18-9.17,19.54-1.09,3.28-2.14,5.88-3.69,7.85-2.06,2.71-4.88,4.09-8.37,4.09-.33,0-.67-.01-1.02-.04-1.27-.09-2.44-.44-3.48-1.04-3.99-.74-6.36-4.46-7.84-6.78l-.16-.26c-.2-.32-.41-.65-.61-.98-.97-1.58-1.38-2.15-1.78-2.23-.01,0-.05,0-.1,0-1.21,0-3.97,1.83-6.22,3.37-.12,.15-.25,.31-.37,.46l-.14,.18c-.08,.1-.16,.2-.25,.29-6.88,8.27-15.98,12.47-27.06,12.47h-.12c-.03,.98-.09,1.99-.14,2.99-.29,5.15-2.79,8.82-7.29,13.8-6.26,6.91-14.09,11.95-23.29,14.96-5.29,1.73-9.41,2.57-12.62,2.57Zm85.78-94.79c.81,.48,1.57,1.01,2.27,1.57,.88-2.43,1.92-5,3.12-7.45-1.45,1.72-3.31,3.77-5.39,5.88Z"/><g><path class="j" d="M66.6,170.64c-1.53,.03-3.56,.05-5.59,.16-3.93,.16-7.48,.63-8.39,1.58-.11,.12-.08,.22,.14,.32,3.84,1.75,11.56,1.27,16.81,1.03,1.91-.08,12.64-.25,12.02-1.83-.65-1.69-11.91-1.32-14.99-1.25Z"/><path class="j" d="M130.22,164.45c-1.3-1.24-9.15-.72-11.68-.64-1.07,.03-3.55,.02-5.6,.2-.56,.03-1.14,.05-1.72,.07-1.1,.05-4.63,.69-2.75,1.3,2.09,.68,5.55,.66,8.1,.69,2.76,.02,5.51-.11,8.2-.33,1.48-.11,3.61-.23,4.79-.62,.5-.17,.94-.41,.66-.68Z"/><path class="t" d="M52.61,192.94c.8-1.71,6.01-2.64,5.83-.05,.66-3.42,4.94,.09,5.5,1.85,1.77-1.97,5.79-3.11,8.11-1.34-1.04-1.31-1.25-3.9,.46-4.69-1.12,.58-3.02,1.12-3.3-.43-2.36,2.6-6.99,1.4-5.83-2.42-1.38-.49-1.15-1.8-.25-2.67-1.8,.57-5.84,2.34-6.77-.22-.51,.93-1.22,1.59-2.04,2.07,.2-.03,.39-.06,.58-.11,.24-.1,.5-.18,.77-.22-.25,.09-.51,.16-.77,.22-1.75,.73-2.7,2.83-1.16,3.7-1.72-.17-4.67,.71-4.73,2.36,1.27-.06,2.25,.57,3.59,1.96Z"/><path d="M67.35,95.69c-.13,0-.26,0-.39-.02-1.83-.15-3.46-1.34-4.59-3.35-1.12-1.99-1.62-4.54-1.4-7.2,.45-5.49,3.84-9.75,7.62-9.44,1.83,.15,3.46,1.34,4.59,3.35,1.12,1.99,1.62,4.54,1.4,7.2-.43,5.3-3.61,9.45-7.24,9.45Zm.86-19.66c-3.44,0-6.47,4.01-6.88,9.13-.21,2.59,.27,5.07,1.35,7,1.07,1.9,2.6,3.03,4.32,3.17,3.58,.29,6.81-3.82,7.24-9.11,.21-2.59-.27-5.07-1.35-7-1.07-1.9-2.6-3.03-4.32-3.17-.12,0-.24-.01-.36-.01Z"/><path d="M67.54,91.37c-.07,0-.15,0-.22,0-2.15-.18-3.69-2.86-3.43-6,.25-3.12,2.2-5.53,4.36-5.36,1.05,.09,1.99,.77,2.64,1.92,.64,1.13,.92,2.58,.79,4.08-.25,3.01-2.06,5.37-4.13,5.37Zm.48-11.02c-1.89,0-3.55,2.22-3.78,5.04-.24,2.94,1.16,5.46,3.11,5.61,1.97,.17,3.74-2.11,3.98-5.04,.12-1.43-.15-2.81-.75-3.88-.59-1.04-1.43-1.66-2.36-1.74-.07,0-.13,0-.19,0Z"/><path d="M72.62,76.26s-1.37-1.85-3.73-1.93c-2.38-.08-3.81,1.18-3.83,1.19l-.24-.26c.06-.06,1.56-1.38,4.08-1.28,2.54,.09,3.94,2,4,2.08l-.29,.21Z"/><path class="o" d="M103.22,26.6c-1.16,.61-3.33,2.19-5.04,6.39-1.71,4.2-4.35,15.56-7.01,23.82,.83,.4,6.79,3.79,8.11,3.24,4.83-2,9-5.56,13.19-10.91-.12-9-9.25-22.54-9.25-22.54Z"/><path class="r" d="M96.78,37.26c-.2,1.99-.27,8.29,1.93,8.48,2.62,.1,4.43-10.35,7.09-13.85,2.61,4.76,6.59,11.95,6.67,17.25-3.55,4.54-8.55,9.56-13.11,10.66-2.43,.59-6.67-2.72-7.92-3.32,1.36-5.73,3.68-12.98,5.34-19.22Z"/><path class="x" d="M98.92,60.29h0c-1.56,0-5.31-2-7.12-2.95-.33-.18-.58-.31-.7-.37l-.14-.07,.05-.15c1.21-3.77,2.39-8.08,3.54-12.26,1.36-4.98,2.54-9.28,3.47-11.57,1.61-3.97,3.68-5.71,5.12-6.48l.14-.07,.09,.13c.09,.14,9.16,13.69,9.28,22.64v.06l-.04,.05c-4.32,5.52-8.53,9-13.26,10.96-.12,.05-.26,.07-.44,.07Zm-7.53-3.57c.14,.07,.34,.18,.58,.31,1.64,.87,5.48,2.91,6.95,2.91h0c.13,0,.23-.02,.3-.05,4.66-1.93,8.81-5.37,13.08-10.81-.15-8.37-8.19-20.82-9.13-22.25-1.39,.78-3.3,2.48-4.82,6.22-.92,2.27-2.16,6.77-3.46,11.53-1.13,4.13-2.3,8.39-3.5,12.13Z"/><path class="ai" d="M108.97,44.12c-1.72,3.7-6.69,8.22-11.55,10.91,2.78-3.65,8.16-13.09,8.38-18.92,.95,2.06,3.17,8.01,3.17,8.01Z"/><path class="v" d="M105.8,36.11c.28,.61,.67,1.55,1.08,2.57-.54,4.66-3.06,8.48-5.65,12.02,3.61-1.81,5.64-4.98,6.96-8.65,.46,1.19,.78,2.07,.78,2.07-1.72,3.7-6.69,8.22-11.55,10.91,2.78-3.65,8.16-13.09,8.38-18.92Z"/><path class="x" d="M97.3,54.93c2.71-3.55,8.12-13.03,8.35-18.83l.02-.63,.27,.57c.94,2.04,3.16,7.97,3.18,8.02l.03,.07-.03,.06c-1.66,3.56-6.54,8.18-11.62,10.98l-.66,.37,.47-.62Zm8.61-18.19c-.52,5.58-5.18,13.96-7.91,17.78,4.76-2.78,9.22-7.06,10.81-10.41-.23-.61-1.93-5.15-2.9-7.37Z"/><path class="o" d="M102.55,27.2c.93-.65,2.68-1.72,4.81-1.97,2.73-.32,6,.48,8.78,4.37,3.45-1.28,8.99-1.95,12.83,5.37,3.83,7.32,5.37,13.94,8.08,20.7,2.5,6.22,5.74,8.61,5.44,10.67-.31,2.06-6.45,2.84-13.09,.3-6.64-2.54-13.03-9.43-16.87-14.93-5.33-7.62-8.15-19.32-8.15-19.32l-1.82-5.2Z"/><path class="s" d="M107.35,25.24c2.73-.32,6,.48,8.78,4.37,3.45-1.28,8.99-1.95,12.83,5.37,3.83,7.32,5.37,13.94,8.08,20.7,1.16,2.89,2.48,4.95,3.53,6.54-6.75-8.43-7.08-15.79-13.09-27.25-3.27-5.37-7.07-5.11-9.42-4.47,2.33,3.17,3.48,5.45,5.56,9.31-2.69-2.09-7.34-9.73-11.62-12.42-2.82-1.77-6.06-1.35-9.5-.35,.96-.54,3.4-1.63,4.85-1.8Z"/><path class="r" d="M142.49,66.19c0,.05,0,.11-.01,.16-.31,2.06-6.45,2.84-13.09,.3-6.64-2.54-13.03-9.43-16.87-14.93-4.5-6.44-7.21-15.78-7.94-18.53,8.06,17.14,22.61,34.46,37.92,33Z"/><path class="x" d="M122.08,37.64s-2.97-4.3-6.33-8.79l-.24,.2c3.36,4.48,6.56,8.59,6.56,8.59Z"/><path class="x" d="M140.46,68.06c.51-.14,.95-.32,1.29-.53,.51-.32,.81-.71,.87-1.16,.16-1.11-.58-2.23-1.72-3.94-1.05-1.59-2.5-3.76-3.73-6.83-.96-2.4-1.8-4.83-2.6-7.19-1.48-4.33-3.01-8.8-5.49-13.53-3.69-7.05-9.04-6.89-12.91-5.49-2.97-4.08-6.44-4.61-8.85-4.34-2.03,.23-3.89,1.11-4.96,1.85l.17,.28c1.04-.72,2.85-1.57,4.83-1.8,2.34-.27,5.74,.25,8.64,4.3l.07,.1,.1-.04c3.77-1.4,9.02-1.62,12.64,5.29,2.47,4.71,3.99,9.17,5.47,13.48,.81,2.36,1.64,4.8,2.61,7.2,1.25,3.1,2.7,5.29,3.76,6.89,1.09,1.64,1.81,2.72,1.66,3.69-.05,.35-.3,.66-.73,.93-1.9,1.19-6.97,1.23-12.16-.75-8.11-3.1-14.91-12.16-16.8-14.87-1.94-2.78-3.57-6.11-4.86-9.22-2.19-5.3-3.39-9.93-3.41-10,0,0,.93,4.83,3.14,10.16,1.29,3.12,2.93,6.47,4.88,9.25,1.9,2.72,8.75,11.85,16.95,14.98,4.51,1.73,8.71,1.92,11.13,1.26Z"/><path class="o" d="M70.52,63.94c-6.49-.71-19.35-7.55-26.9-18.53-7.55-10.97-11.45-22.42-12.15-25.96-.71-3.54-2.51-10.32-.91-11.08,1.59-.75,2.66,.66,12.04,3.5,9.38,2.83,18.02,10.89,24.52,21.27,6.49,10.38,9.68,25.61,9.91,27.02-1.06,1.89-4.56,4.12-6.49,3.78Z"/><path class="r" d="M74.75,62.46c.13-.09,.25-.18,.37-.27,.04-.03,.09-.07,.13-.1,.13-.1,.25-.2,.37-.31,.03-.03,.06-.05,.09-.08,.55-.5,1.01-1.02,1.29-1.52-.21-1.28-2.83-13.82-8.12-23.89,1.6,4.91,1.61,11.79-.74,14.52-3.75-5.46-7.25-11.21-10.96-17.06-4.6-7.43-9.91-13.81-18.05-17.35-2.48-1.06-5.86-2.65-7.27-5.49-.44,4.04,3.32,7.06,5.14,10.38,6.12,11.22,14.09,21.55,23.44,30.42-9.47-3.32-22.05-18.19-28.14-29.14,1.62,5.11,5.31,14.13,11.31,22.86,7.55,10.97,20.41,17.82,26.9,18.53,.97,.17,2.33-.3,3.57-1.05h0c.18-.11,.35-.22,.52-.34,.05-.03,.09-.06,.14-.1Z"/><path class="s" d="M31.35,9.66c1-.71,6.75,2.55,10.11,3.6,13.67,4.25,18.21,12.58,26,21.18,.33,.5,.74,.99,1.23,1.45-.5-.94-1.03-1.86-1.58-2.75-6.49-10.38-15.13-18.44-24.52-21.27-9.38-2.83-10.44-4.25-12.04-3.5-1.59,.75,.21,7.54,.91,11.08,.12,.59,.33,1.4,.62,2.38,.06-4.07-1.77-11.15-.74-12.18Z"/><path class="x" d="M34.74,15.53c-2.21-1.31-2.6-3.58-2.6-3.58,0,.02,.69,2.03,2.78,3.28l-.18,.3Z"/><path class="ai" d="M34.71,15.33c6.9,3.27,11.86,7.52,17.44,17.35,5.58,9.82,10.89,22.39,21.77,28.67-4.96,.62-14.6-2.65-23.81-12.3-9.2-9.65-15.69-24.28-15.4-33.72Z"/><path class="v" d="M52.14,32.67c-5.48-9.65-10.36-13.92-17.07-17.17,10.41,8.98,17.09,22.33,23.18,34.52-11.5-6.05-17.82-17.27-22.95-28.59,1.78,8.91,7.42,19.87,14.81,27.61,9.2,9.65,18.85,12.92,23.81,12.3-10.89-6.28-16.2-18.85-21.77-28.67Z"/><path class="x" d="M72.68,61.6c-5,0-13.95-3.25-22.7-12.43-9.11-9.55-15.75-24.1-15.45-33.85v-.27l.25,.12c6.44,3.06,11.62,7.04,17.51,17.42,.91,1.6,1.79,3.24,2.73,4.98,4.64,8.62,9.91,18.39,18.98,23.63l.46,.26-.52,.07c-.39,.05-.82,.07-1.26,.07ZM34.88,15.6c-.17,9.66,6.39,23.92,15.36,33.32,8.68,9.09,17.51,12.32,22.44,12.32,.23,0,.46,0,.68-.02-8.87-5.35-14.05-14.97-18.64-23.49-.94-1.74-1.82-3.38-2.73-4.98-5.77-10.17-10.84-14.14-17.11-17.16Z"/><path class="x" d="M70.95,64.16c-.16,0-.32-.01-.46-.04-6.44-.7-19.42-7.56-27.02-18.6-7.43-10.8-11.42-22.2-12.18-26.03-.11-.55-.25-1.19-.4-1.86-1.04-4.77-1.78-8.77-.42-9.41,.99-.47,1.77-.16,4.03,.7,1.65,.63,4.14,1.58,8.13,2.79,8.96,2.71,17.7,10.29,24.61,21.35,6.84,10.95,9.91,26.93,9.94,27.09v.06l-.02,.05c-.97,1.72-4.09,3.9-6.22,3.9ZM31.41,8.36c-.27,0-.51,.06-.78,.18-1.22,.57-.11,5.65,.62,9.01,.15,.68,.29,1.31,.4,1.87,.76,3.81,4.73,15.14,12.13,25.89,7.54,10.96,20.39,17.75,26.78,18.45,.13,.02,.27,.03,.41,.03,1.94,0,4.93-2.05,5.88-3.67-.21-1.09-3.28-16.35-9.88-26.9-6.87-10.99-15.54-18.51-24.42-21.19-4-1.21-6.5-2.16-8.16-2.8-1.51-.58-2.34-.89-2.97-.89Z"/><path class="o" d="M108.18,65.24c-6.85-9.03-17.63-10.12-23.74-9.85-6.29,.28-16.9,.76-23.76,9.81-6.67,8.79-8.57,21.44-8.02,29.27,4.88,1.45,30.86,1.2,31.76,1.2v.04s26.83,.28,31.79-1.2c.54-7.82-1.36-20.48-8.03-29.27Z"/><path class="m" d="M73.96,82.14c-.71,6.63-4.93,11.62-9.42,11.14-4.49-.48-7.56-6.25-6.85-12.88,.71-6.63,5.47-16.3,9.96-15.82,4.49,.48,7.02,10.93,6.31,17.56Z"/><path class="y" d="M70.3,72.93s-1.35-1.45-3.52-1.49c-2.17-.05-3.23,1.31-3.24,1.33,0,0,.91-1.72,3.25-1.68,2.33,.05,3.52,1.85,3.52,1.85Z"/><path d="M72.85,83.23c-.59,5.54-4.26,9.69-8.2,9.26-3.94-.42-6.65-5.25-6.06-10.79,.59-5.54,4.27-9.68,8.2-9.26,3.94,.42,6.65,5.25,6.06,10.79Z"/><path class="d" d="M72.4,83.58c-.57,5.32-4.03,9.32-7.74,8.92-3.7-.4-6.24-5.03-5.67-10.36,.57-5.32,4.03-9.32,7.74-8.92,3.7,.4,6.24,5.03,5.67,10.36Z"/><path class="e" d="M59.13,81.18c-.06,.31-.1,.63-.14,.96-.57,5.32,1.97,9.96,5.67,10.36,3.7,.4,7.17-3.6,7.74-8.92,.04-.37,.06-.74,.07-1.1-3.89,3.62-10.83,3.13-13.34-1.29Z"/><path class="ab" d="M69.35,83.89c-.33,3.04-2.3,5.32-4.42,5.1-2.12-.23-3.57-2.88-3.24-5.92,.33-3.04,2.3-5.32,4.42-5.1,2.12,.23,3.57,2.88,3.24,5.92Z"/><path d="M68.04,84.26c-.21,2-1.51,3.5-2.91,3.35-1.39-.15-2.34-1.89-2.13-3.89,.21-2,1.51-3.5,2.91-3.35,1.39,.15,2.34,1.89,2.13,3.89Z"/><path class="d" d="M66.98,81.82c0,.81-.67,1.46-1.5,1.46s-1.5-.65-1.5-1.46,.67-1.46,1.5-1.46,1.5,.65,1.5,1.46Z"/><path class="d" d="M67.59,85.77c0,.31-.26,.56-.58,.56s-.58-.25-.58-.56,.26-.56,.58-.56,.58,.25,.58,.56Z"/><path d="M65.22,89.18c-.1,0-.21,0-.31-.02-2.21-.24-3.73-2.98-3.4-6.11,.33-3.1,2.4-5.49,4.61-5.25,2.21,.24,3.73,2.98,3.4,6.11-.32,2.96-2.21,5.27-4.3,5.27Zm.6-11.05c-1.92,0-3.66,2.18-3.95,4.96-.31,2.94,1.07,5.51,3.08,5.72,2.02,.21,3.91-2.03,4.22-4.94,.31-2.94-1.07-5.51-3.08-5.72-.09,0-.18-.01-.27-.01Z"/><path d="M65.17,92.7c-.17,0-.35,0-.53-.03-1.85-.2-3.47-1.41-4.57-3.42-1.09-1.99-1.53-4.52-1.25-7.13,.55-5.11,3.8-9.11,7.4-9.11,.17,0,.35,0,.53,.03,1.85,.2,3.47,1.41,4.57,3.42,1.09,1.99,1.53,4.52,1.25,7.13-.55,5.11-3.8,9.11-7.4,9.11Zm1.05-19.34c-3.43,0-6.52,3.86-7.05,8.79-.27,2.54,.16,5,1.21,6.92,1.04,1.9,2.57,3.05,4.3,3.24,.16,.02,.33,.03,.49,.03,3.43,0,6.52-3.86,7.05-8.79,.27-2.54-.16-5-1.21-6.92-1.04-1.9-2.57-3.06-4.3-3.24-.16-.02-.33-.03-.49-.03Z"/><path class="m" d="M93.1,82.14c.71,6.63,4.93,11.62,9.42,11.14,4.49-.48,7.56-6.25,6.85-12.88-.71-6.63-5.05-16.3-9.54-15.82-4.49,.48-7.44,10.93-6.73,17.56Z"/><path class="y" d="M96.76,72.93s1.35-1.45,3.52-1.49c2.17-.05,3.23,1.31,3.24,1.33,0,0-.91-1.72-3.25-1.68-2.33,.05-3.52,1.85-3.52,1.85Z"/><path d="M94.21,83.23c.59,5.54,4.27,9.69,8.2,9.26,3.94-.42,6.65-5.25,6.06-10.79-.59-5.54-4.26-9.68-8.2-9.26-3.94,.42-6.65,5.25-6.06,10.79Z"/><path class="d" d="M94.66,83.58c.57,5.32,4.03,9.32,7.74,8.92,3.7-.4,6.24-5.03,5.67-10.36-.57-5.32-4.03-9.32-7.74-8.92-3.7,.4-6.24,5.03-5.67,10.36Z"/><path class="e" d="M107.93,81.18c.06,.31,.1,.63,.14,.96,.57,5.32-1.97,9.96-5.67,10.36-3.7,.4-7.17-3.6-7.74-8.92-.04-.37-.06-.74-.07-1.1,3.89,3.62,10.83,3.13,13.34-1.29Z"/><path class="ab" d="M97.71,83.89c.33,3.04,2.3,5.32,4.42,5.1,2.11-.23,3.57-2.88,3.24-5.92-.33-3.04-2.3-5.32-4.42-5.1-2.12,.23-3.57,2.88-3.24,5.92Z"/><path d="M99.02,84.26c.21,2,1.51,3.5,2.9,3.35,1.39-.15,2.34-1.89,2.13-3.89-.21-2-1.51-3.5-2.91-3.35-1.39,.15-2.34,1.89-2.13,3.89Z"/><path class="d" d="M99.64,81.82c0,.81,.67,1.46,1.5,1.46s1.5-.65,1.5-1.46-.67-1.46-1.5-1.46-1.5,.65-1.5,1.46Z"/><path class="d" d="M102.77,85.33c0,.31,.26,.56,.57,.56s.58-.25,.58-.56-.26-.56-.58-.56-.57,.25-.57,.56Z"/><path d="M97.53,83.91c-.34-3.13,1.19-5.88,3.4-6.11,2.21-.24,4.28,2.15,4.61,5.25,.34,3.13-1.19,5.88-3.4,6.11-.1,.01-.21,.02-.31,.02-2.1,0-3.99-2.32-4.3-5.27Zm3.43-5.76c-2.01,.22-3.4,2.78-3.08,5.72,.31,2.91,2.2,5.16,4.22,4.94,2.01-.22,3.4-2.78,3.08-5.72-.3-2.78-2.03-4.96-3.95-4.96-.09,0-.18,0-.27,.01Z"/><path d="M94.48,83.59c-.28-2.61,.17-5.14,1.25-7.13,1.1-2.01,2.72-3.22,4.57-3.42,.17-.02,.35-.03,.53-.03,3.6,0,6.86,4,7.4,9.11,.28,2.61-.17,5.14-1.25,7.13-1.1,2.01-2.72,3.22-4.57,3.42-.17,.02-.35,.03-.53,.03-3.61,0-6.86-4-7.4-9.11Zm5.87-10.2c-1.73,.19-3.26,1.34-4.3,3.24-1.05,1.93-1.48,4.38-1.21,6.92,.53,4.93,3.63,8.79,7.05,8.79,.16,0,.33,0,.49-.03,1.73-.19,3.26-1.34,4.3-3.24,1.05-1.93,1.49-4.38,1.21-6.92-.53-4.93-3.63-8.79-7.05-8.79-.16,0-.33,0-.49,.03Z"/><path class="r" d="M108.18,65.24c-2.64-3.48-5.87-5.78-9.19-7.28,9.09,7.53,13.66,20.38,10.66,37.33,2.98-.18,5.38-.43,6.56-.78,.54-7.82-1.36-20.48-8.03-29.27Z"/><path class="x" d="M89.41,95.91h0c-2.97,0-4.98-.02-5-.02h-.15v-.04c-.55,0-2.34,.02-4.82,.02-8.48,0-23.24-.16-26.82-1.22l-.11-.03v-.13c-.6-8.56,1.66-20.97,8.05-29.4,6.91-9.11,17.53-9.59,23.87-9.87,.54-.02,1.09-.04,1.63-.04,5.48,0,15.66,1.29,22.23,9.94,6.39,8.43,8.66,20.84,8.06,29.4v.13l-.12,.03c-3.58,1.06-18.35,1.22-26.83,1.22Zm-4.84-.39c.52,0,2.34,.02,4.84,.02,8.38,0,22.91-.15,26.64-1.18,.56-8.48-1.69-20.69-7.99-28.99-6.48-8.55-16.57-9.82-22-9.82-.54,0-1.08,.01-1.62,.04-6.3,.28-16.83,.75-23.66,9.75-6.3,8.3-8.55,20.52-7.99,29,3.73,1.03,18.26,1.18,26.64,1.18,2.81,0,4.74-.02,4.97-.02h.16v.04Z"/><path class="w" d="M62.37,69.27c1.35-4.5,5.45-5.17,7.05-4.02,.62,.58,.49,2.03,.33,2.82-1.46-2.03-4.46-1.49-7.38,1.21Z"/><path d="M62.02,69.84l.19-.62c1.03-3.43,3.58-4.64,5.45-4.64,.74,0,1.4,.19,1.87,.52,.78,.73,.5,2.48,.4,2.99l-.08,.4-.24-.33c-.54-.76-1.34-1.16-2.3-1.16-1.43,0-3.14,.85-4.81,2.39l-.48,.44Zm5.64-4.91c-1.63,0-3.82,1-4.9,3.76,1.57-1.32,3.17-2.04,4.55-2.04,.94,0,1.74,.34,2.34,.99,.12-.86,.1-1.86-.34-2.27-.4-.28-.99-.44-1.65-.44Z"/><path class="w" d="M105.11,69.27c-1.35-4.5-5.45-5.17-7.05-4.02-.62,.58-.49,2.03-.33,2.82,1.46-2.03,4.46-1.49,7.38,1.21Z"/><path d="M104.99,69.4c-1.67-1.54-3.38-2.39-4.81-2.39-.96,0-1.76,.4-2.3,1.16l-.24,.33-.08-.4c-.1-.52-.39-2.26,.4-2.99,.47-.34,1.14-.52,1.87-.52,1.87,0,4.43,1.22,5.45,4.64l.19,.62-.48-.44Zm-6.81-4.02c-.44,.41-.46,1.41-.34,2.27,.6-.65,1.4-.99,2.34-.99,1.38,0,2.97,.72,4.55,2.04-1.07-2.76-3.26-3.76-4.9-3.76-.66,0-1.25,.16-1.65,.44Z"/><path class="p" d="M75.35,122.81c-1.69-1.61-2.04-4.34-2.04-4.34,0,.03,.67,2.57,2.29,4.11l-.25,.23Z"/><path class="p" d="M91.58,122.82l-.22-.26c2-1.48,2.64-4.16,2.65-4.19,0,0-.33,2.9-2.43,4.45Z"/><path class="o" d="M83.62,51.44c5.83,.13,10.47,2.92,12.95,6.77,2.48,3.85,.8,7.74-.84,8.76-.66,2.21-1.52,5.93-6.81,7.97-2.21,1.55-4.2,3.89-4.43,5.4-1.59-2.88-2.79-3.94-4.12-4.82-2.65-.09-5.97-1.86-7.17-7.12-2.83-1.64-4.96-5.07-2.92-9.51,2.04-4.43,5.91-7.18,13.33-7.44Z"/><path class="r" d="M96.57,58.21c-.97-1.5-2.27-2.84-3.83-3.92,1.75,2.19,2.8,5.14,3.04,7.77-.71-1.77-2.48-2.83-3.89-3.54,1.06,3.54,3.54,7.43,.71,10.62-.38-3.07-1.42-4.6-3.19-6.02,2.11,9.85-3.61,10.13-4.98,13.69-1.9-3.19-5.36-3.31-6.35-9.79-.66,2.12-1.13,3.68-.77,5.45-3.19-2.48-3.12-9.34-1.7-13.24-2.83,.71-3.19,3.54-4.25,5.66-.51-1.18-1.25-2.28-1.82-3.41-.38,3.17,1.42,5.61,3.68,6.91,1.2,5.27,4.51,7.04,7.17,7.12,1.33,.89,2.52,1.95,4.12,4.82,.22-1.5,2.21-3.85,4.43-5.4,5.29-2.04,6.15-5.75,6.81-7.97,1.64-1.02,3.32-4.91,.84-8.76Z"/><path class="x" d="M73.17,68.98c-.96-4.02,1.14-7.43,1.14-7.43-.02,.03-1.72,3.46-.79,7.35l-.34,.08Z"/><path class="x" d="M80.45,75.77c-2.68-1.99-2.22-5.06-2.22-5.06,0,.03-.09,2.9,2.44,4.78l-.21,.28Z"/><path class="x" d="M88.61,75.38l-.23-.27c4.76-4.11,2.31-9.1,2.29-9.14,0,0,2.91,5.12-2.05,9.41Z"/><path class="x" d="M95.78,67.42l-.34-.08c.89-3.74-1.91-6.88-1.94-6.91,0,0,3.21,3.06,2.28,6.99Z"/><path class="x" d="M84.59,80.88l-.25-.46c-1.5-2.7-2.61-3.79-4.02-4.73-1.4-.06-5.78-.77-7.27-7.19-2.69-1.59-5.05-5.06-2.93-9.69,2.25-4.9,6.54-7.3,13.49-7.54,5.53,.13,10.43,2.69,13.11,6.85,1.15,1.78,1.54,3.82,1.11,5.74-.31,1.39-1.08,2.65-1.95,3.23l-.08,.27c-.68,2.3-1.7,5.77-6.8,7.74-2.23,1.56-4.13,3.87-4.33,5.27l-.08,.52Zm-.97-29.26c-6.79,.24-10.98,2.58-13.17,7.34-2.04,4.45,.26,7.78,2.85,9.28l.07,.04,.02,.07c1.43,6.31,5.72,6.94,7,6.99h.05l.04,.03c1.37,.91,2.52,2,3.95,4.49,.48-1.5,2.27-3.58,4.39-5.07l.04-.02c4.96-1.91,5.95-5.28,6.61-7.52l.12-.4,.06-.04c.82-.51,1.55-1.71,1.85-3.04,.41-1.82,.03-3.77-1.06-5.47-2.62-4.06-7.4-6.57-12.81-6.69Z"/><g><path class="o" d="M18.49,87.85c-.38-4.07-1.28-10.58,4.02-10.41,5.86,.18,5.43,8.69,4.58,12.13-1.51-.35-8.61-1.72-8.61-1.72Z"/><path class="r" d="M20.91,77.64c-3.49,1.12-2.75,6.62-2.42,10.21,0,0,2.3,.44,4.56,.89,0-6.56-4.28-8.51-2.15-11.1Z"/><path class="ai" d="M24.79,81.71c.1,1.05-.71,1.97-1.79,2.07-1.08,.09-2.04-.68-2.14-1.73-.1-1.05,.71-1.97,1.79-2.07,1.08-.09,2.04,.68,2.14,1.73Z"/><path class="ad" d="M24.64,82.02c.15-1.19-.92-2.14-1.99-2.04-.71,.06-1.42,.68-1.57,1.35,1.28-1.41,3.25-.85,3.56,.7Z"/><path class="v" d="M21.01,81.16c-.12,.27-.18,.57-.15,.89,.1,1.05,1.05,1.82,2.14,1.73,.94-.08,1.67-.79,1.78-1.66-1.08,1.36-3.58,.47-3.77-.96Z"/><path class="ag" d="M23.01,83.96c-1.19,.1-2.24-.75-2.34-1.9-.11-1.15,.78-2.16,1.96-2.27,1.19-.1,2.24,.75,2.34,1.9,.11,1.15-.78,2.16-1.96,2.27Zm-.35-3.8c-.98,.08-1.71,.92-1.62,1.87,.09,.95,.95,1.65,1.93,1.56,.98-.08,1.71-.92,1.62-1.87-.09-.95-.95-1.65-1.93-1.56Z"/><path class="s" d="M22.82,77.46c4.04,1.78,4.19,7.44,3.1,11.86,.51,.1,.92,.19,1.17,.25,.84-3.38,1.26-11.64-4.27-12.11Z"/><path class="x" d="M27.24,89.79l-.18-.04c-1.49-.35-8.53-1.71-8.6-1.72l-.14-.03-.07-.74c-.28-2.94-.67-6.96,1.14-8.88,.74-.79,1.79-1.16,3.14-1.12,1.52,.05,2.73,.64,3.62,1.76,2.1,2.66,1.84,7.8,1.14,10.6l-.04,.18Zm-8.57-2.09c.96,.19,6.62,1.28,8.29,1.65,.64-2.77,.86-7.61-1.12-10.12-.81-1.03-1.93-1.57-3.33-1.61-1.25-.04-2.17,.29-2.85,1-1.7,1.8-1.32,5.73-1.04,8.6l.05,.47Z"/><path class="o" d="M20.76,87.85c-.14-5.44-2.69-9.33-6.02-8.5-3.34,.82-3.43,8.5-1.54,11.61,1.28,1.37,7.57-3.11,7.57-3.11Z"/><path class="r" d="M14.69,79.36c-3.29,.89-3.38,8.5-1.49,11.6,.67,.72,2.73-.18,4.54-1.19-2.33-2.82-5.14-7.61-3.04-10.4Z"/><path class="ai" d="M17.54,83.46c.18,1.04-.54,2.02-1.61,2.2-1.07,.18-2.09-.52-2.28-1.56-.18-1.04,.54-2.02,1.61-2.2,1.07-.18,2.09,.52,2.28,1.56Z"/><path class="ad" d="M17.41,83.79c.05-1.2-1.1-2.06-2.15-1.88-.7,.12-1.36,.79-1.45,1.46,1.16-1.51,3.16-1.1,3.61,.42Z"/><path class="v" d="M13.72,83.21c-.09,.28-.13,.59-.07,.9,.18,1.04,1.2,1.74,2.28,1.56,.93-.15,1.6-.92,1.64-1.8-.96,1.44-3.53,.75-3.84-.66Z"/><path class="ag" d="M15.96,85.84c-1.17,.19-2.29-.57-2.5-1.71-.2-1.14,.59-2.22,1.77-2.41,1.17-.19,2.29,.57,2.5,1.71,.2,1.14-.59,2.22-1.77,2.41Zm-.67-3.76c-.97,.16-1.62,1.05-1.46,1.99,.17,.94,1.09,1.57,2.06,1.41,.97-.16,1.62-1.05,1.46-1.99-.17-.94-1.09-1.57-2.06-1.41Z"/><path class="s" d="M15.27,79.26c3.36,1.33,4.23,5.39,4.87,9.01,.38-.26,.61-.42,.61-.42-.13-5.14-2.42-8.9-5.49-8.59Z"/><path class="x" d="M13.94,91.41h0c-.39,0-.69-.11-.89-.32l-.02-.03c-1.45-2.38-1.7-7.02-.54-9.72,.51-1.18,1.27-1.93,2.19-2.16,.31-.08,.62-.12,.93-.12,2.96,0,5.2,3.7,5.33,8.79v.1l-.08,.06c-.19,.14-4.8,3.41-6.93,3.41Zm-.59-.55c.12,.12,.32,.19,.59,.19,1.86,0,6-2.84,6.63-3.28-.15-4.84-2.23-8.34-4.95-8.34-.27,0-.55,.04-.84,.1-.82,.2-1.47,.86-1.94,1.94-1.11,2.57-.86,7.12,.5,9.38Z"/><path class="o" d="M57.26,142.71c-7.85-2.74-19.1-14.49-23.07-19.52-5.34-4.39-10.26-12.98-12.39-19.52-5.63-2.06-8.67-3.2-11.32-6.98-2.65-3.78-3.15-9.02-.82-10.12,2.33-1.1,4.52,1.6,5.28,3.52,1.61-2.33,6.95-5.94,11.82-2.1,.24-2.7,1.23-7.5,5.48-6.22,4.26,1.28,3.7,9.86-.14,15.41,4.29,3.35,10.5,9.9,13.24,13.86,6.62,1.95,21.25,6.07,26.32,12.38-4.48,4.94-14.41,19.29-14.41,19.29Z"/><path class="s" d="M14.31,92.8c.66-1.61,2.02-3.46,3.97-4.52,2.51-1.37,6.62-2.2,10.15,1.96-2.14-4.06-6.71-4.83-10.36-2.95-1.92,.99-3.78,2.79-3.76,5.52Z"/><path class="r" d="M39.68,125.7c2.84,.61,5.42,.49,8.7-.73-11.35-1.46-18.54-10.61-23.83-19.75,1.89-.37,3.78-.73,5.3-1.83-10.83-.33-20.05-7.44-20.58-16.56-1.85,1.5-1.25,6.32,1.23,9.86,2.65,3.78,5.69,4.92,11.32,6.98,2.13,6.54,7.05,15.13,12.39,19.52,3.97,5.03,15.23,16.78,23.07,19.52,0,0,5.81-8.41,10.55-14.57-9.98,7.56-19.71,4.45-28.14-2.44Z"/><path class="ai" d="M13.15,90.4c.18,1.04-.54,2.02-1.61,2.2-1.07,.18-2.09-.52-2.28-1.56-.18-1.04,.54-2.02,1.61-2.2,1.07-.18,2.09,.52,2.28,1.56Z"/><path class="ad" d="M13.03,90.72c.05-1.2-1.1-2.06-2.15-1.88-.7,.12-1.36,.79-1.45,1.46,1.16-1.51,3.16-1.1,3.61,.42Z"/><path class="v" d="M9.34,90.14c-.09,.28-.13,.59-.07,.9,.18,1.04,1.2,1.73,2.28,1.56,.93-.15,1.6-.92,1.64-1.8-.96,1.44-3.53,.75-3.84-.66Z"/><path class="ag" d="M11.58,92.78c-1.17,.19-2.29-.57-2.5-1.71-.2-1.14,.59-2.22,1.77-2.41,1.17-.19,2.29,.57,2.5,1.71,.2,1.14-.59,2.22-1.77,2.41Zm-.67-3.76c-.97,.16-1.62,1.05-1.46,1.99,.17,.94,1.09,1.57,2.06,1.41,.97-.16,1.62-1.05,1.46-1.99-.17-.94-1.09-1.57-2.06-1.41Z"/><path class="ai" d="M27,94.44c0,2.05-1.91,3.72-4.26,3.72s-4.26-1.66-4.26-3.72,1.91-3.72,4.26-3.72,4.26,1.66,4.26,3.72Z"/><path class="ad" d="M26.86,94.19c-.15-2.12-1.96-3.47-4.11-3.47-1.69,0-3.14,.86-3.83,2.1,3.15-2.1,6.18-2,7.94,1.37Z"/><path class="v" d="M23.22,96.28c-1.99,0-4.7-1.45-4.11-3.76-.39,.56-.62,1.22-.62,1.92,0,2.05,1.91,3.72,4.26,3.72s4.26-1.66,4.26-3.72c0-.23-.03-.46-.07-.68-.18,1.31-1.18,2.53-3.71,2.52Z"/><path class="ag" d="M22.75,98.34c-2.45,0-4.44-1.75-4.44-3.9s1.99-3.9,4.44-3.9,4.44,1.75,4.44,3.9-1.99,3.9-4.44,3.9Zm0-7.43c-2.24,0-4.07,1.59-4.07,3.53s1.82,3.53,4.07,3.53,4.07-1.59,4.07-3.53-1.82-3.53-4.07-3.53Z"/><path class="ai" d="M32.79,85.96c0,1.05-.88,1.91-1.97,1.91s-1.97-.85-1.97-1.91,.88-1.91,1.97-1.91,1.97,.85,1.97,1.91Z"/><path class="ad" d="M32.61,86.26c.26-1.17-.72-2.21-1.8-2.21-.71,0-1.48,.55-1.69,1.21,1.41-1.3,3.31-.57,3.48,1Z"/><path class="v" d="M29.07,85.09c-.14,.26-.23,.56-.23,.87,0,1.05,.88,1.91,1.97,1.91,.95,0,1.74-.64,1.93-1.5-1.2,1.26-3.61,.16-3.67-1.28Z"/><path class="ag" d="M30.82,88.05c-1.19,0-2.16-.94-2.16-2.09s.97-2.09,2.16-2.09,2.16,.94,2.16,2.09-.97,2.09-2.16,2.09Zm0-3.81c-.98,0-1.78,.77-1.78,1.72s.8,1.72,1.78,1.72,1.78-.77,1.78-1.72-.8-1.72-1.78-1.72Z"/><path class="x" d="M33.53,122.87l.24-.28c2.52,1.98,6.88,2.49,6.92,2.5,0,0-4.55-.17-7.16-2.21Z"/><path class="x" d="M46.8,115.92s-.44-2.98-2.09-5.45l.32-.2c1.7,2.54,1.77,5.64,1.77,5.64Z"/><path class="x" d="M21.36,103.7l.1-.35c1.96,.52,3.62,.53,3.63,.53,0,0-1.72,.36-3.73-.18Z"/><path class="x" d="M30.42,98.62s1.08-.83,1.79-1.93l.32,.19c-.75,1.16-2.11,1.73-2.11,1.73Z"/><path class="x" d="M28.44,90.24s-1.14-1.72-2.39-2.54l.21-.3c1.32,.87,2.17,2.84,2.17,2.84Z"/><path class="x" d="M14.31,92.8s-.2-2.18,.89-3.35l.28,.25c-1.01,1.08-1.17,3.09-1.17,3.11Z"/><path class="x" d="M57.34,142.93l-.14-.05c-7.94-2.78-19.21-14.59-23.15-19.57-5.4-4.45-10.32-13.16-12.4-19.51-5.55-2.03-8.62-3.17-11.32-7.02-1.87-2.67-2.77-6.26-2.14-8.53,.25-.9,.73-1.54,1.4-1.86,.38-.18,.78-.27,1.19-.27,1.94,0,3.52,2.04,4.22,3.58,1.2-1.54,3.91-3.59,7.15-3.59,1.59,0,3.1,.51,4.47,1.52,.26-2.49,1.18-6.26,4.31-6.26,.43,0,.9,.07,1.39,.22,1.19,.36,2.09,1.29,2.61,2.7,1.23,3.38,.14,8.87-2.55,12.84,4.22,3.34,10.29,9.7,13.11,13.75l.7,.21c6.73,1.98,20.72,6.09,25.65,12.21l.1,.12-.1,.11c-4.42,4.87-14.29,19.13-14.39,19.27l-.08,.12ZM10.77,86.5c-.35,0-.69,.08-1.02,.24-.56,.27-.98,.83-1.2,1.62-.6,2.18,.28,5.64,2.09,8.23,2.64,3.77,5.69,4.89,11.23,6.91l.09,.03,.03,.09c2.05,6.31,6.95,15.02,12.33,19.44l.03,.03c3.88,4.91,14.98,16.57,22.85,19.41,.96-1.39,9.97-14.33,14.23-19.08-4.94-5.96-18.72-10.01-25.36-11.97l-.83-.25-.04-.05c-2.81-4.06-8.98-10.52-13.2-13.82l-.13-.1,.1-.14c2.65-3.83,3.8-9.39,2.61-12.66-.48-1.31-1.27-2.14-2.36-2.47-.45-.14-.88-.2-1.28-.2-2.97,0-3.76,3.92-3.96,6.26l-.03,.35-.28-.22c-1.38-1.09-2.9-1.64-4.51-1.64-3.26,0-6.05,2.27-7.03,3.71l-.2,.29-.13-.33c-.56-1.41-2.14-3.66-4-3.66Z"/></g><g><path class="o" d="M144.99,89.26c.38-4.07,1.28-10.58-4.02-10.41-5.86,.18-5.43,8.69-4.58,12.13,1.51-.35,8.61-1.72,8.61-1.72Z"/><path class="r" d="M142.57,79.05c3.49,1.12,2.75,6.62,2.42,10.21,0,0-2.3,.44-4.56,.89,0-6.56,4.28-8.51,2.15-11.1Z"/><path class="ai" d="M138.69,83.12c-.1,1.05,.71,1.97,1.79,2.07,1.08,.09,2.04-.68,2.14-1.73,.1-1.05-.71-1.97-1.79-2.07-1.08-.09-2.04,.68-2.14,1.73Z"/><path class="ad" d="M138.84,83.43c-.15-1.19,.92-2.14,1.99-2.04,.71,.06,1.42,.68,1.57,1.35-1.28-1.41-3.25-.85-3.56,.7Z"/><path class="v" d="M142.47,82.56c.12,.27,.18,.57,.15,.89-.1,1.05-1.05,1.82-2.14,1.73-.94-.08-1.67-.79-1.78-1.66,1.08,1.36,3.58,.47,3.77-.96Z"/><path class="ag" d="M138.5,83.1c.1-1.15,1.16-2,2.34-1.9,1.19,.1,2.07,1.12,1.96,2.27-.1,1.15-1.16,2-2.34,1.9-1.19-.1-2.07-1.12-1.96-2.27Zm.38,.03c-.09,.95,.64,1.78,1.62,1.87,.98,.08,1.85-.62,1.93-1.56,.09-.95-.64-1.78-1.62-1.87-.98-.08-1.85,.62-1.93,1.56Z"/><path class="s" d="M140.66,78.87c-4.04,1.78-4.19,7.44-3.1,11.86-.51,.1-.92,.19-1.17,.25-.84-3.38-1.26-11.64,4.27-12.11Z"/><path class="x" d="M136.2,91.02c-.69-2.8-.96-7.94,1.14-10.6,.88-1.12,2.1-1.71,3.62-1.76,1.35-.04,2.4,.34,3.14,1.12,1.81,1.92,1.42,5.94,1.14,8.88l-.07,.74-.14,.03c-.07,.01-7.11,1.37-8.6,1.72l-.18,.04-.04-.18Zm8.66-2.39c.28-2.87,.66-6.8-1.04-8.6-.67-.71-1.59-1.04-2.85-1-1.4,.04-2.52,.59-3.33,1.61-1.98,2.51-1.76,7.35-1.12,10.12,1.67-.37,7.33-1.47,8.29-1.65l.05-.47Z"/><path class="o" d="M142.72,89.26c.14-5.44,2.69-9.33,6.02-8.5,3.34,.82,3.43,8.5,1.54,11.61-1.28,1.37-7.57-3.11-7.57-3.11Z"/><path class="r" d="M148.79,80.77c3.29,.89,3.38,8.5,1.49,11.6-.67,.72-2.73-.18-4.54-1.19,2.33-2.82,5.14-7.61,3.04-10.4Z"/><path class="ai" d="M145.94,84.87c-.18,1.04,.54,2.02,1.61,2.2,1.07,.18,2.09-.52,2.28-1.56,.18-1.04-.54-2.02-1.61-2.2-1.07-.18-2.09,.52-2.28,1.56Z"/><path class="ad" d="M146.07,85.19c-.05-1.2,1.1-2.06,2.15-1.88,.7,.12,1.36,.79,1.45,1.46-1.16-1.51-3.16-1.1-3.61,.42Z"/><path class="v" d="M149.76,84.61c.09,.28,.13,.59,.07,.9-.18,1.04-1.2,1.74-2.28,1.56-.93-.15-1.6-.92-1.64-1.8,.96,1.44,3.53,.75,3.84-.66Z"/><path class="ag" d="M145.76,84.84c.2-1.14,1.32-1.9,2.5-1.71,1.17,.19,1.97,1.28,1.77,2.41-.2,1.14-1.32,1.9-2.5,1.71-1.17-.19-1.97-1.28-1.77-2.41Zm.37,.06c-.17,.94,.49,1.83,1.46,1.99,.97,.16,1.89-.47,2.06-1.41,.17-.94-.49-1.83-1.46-1.99-.97-.16-1.89,.47-2.06,1.41Z"/><path class="s" d="M148.2,80.66c-3.36,1.33-4.23,5.39-4.87,9.01-.38-.26-.61-.42-.61-.42,.13-5.14,2.42-8.9,5.49-8.59Z"/><path class="x" d="M142.61,89.4l-.08-.06v-.1c.14-5.09,2.38-8.79,5.33-8.79,.3,0,.62,.04,.93,.12,.93,.23,1.69,.97,2.19,2.16,1.17,2.71,.91,7.34-.54,9.72l-.02,.03c-.2,.21-.5,.32-.89,.32h0c-2.13,0-6.74-3.27-6.93-3.41Zm8.03-6.53c-.47-1.09-1.12-1.74-1.94-1.94-.28-.07-.56-.1-.84-.1-2.72,0-4.8,3.5-4.95,8.34,.63,.44,4.77,3.28,6.63,3.28,.27,0,.47-.06,.59-.19,1.36-2.26,1.61-6.81,.5-9.38Z"/><path class="o" d="M106.21,144.11c7.85-2.74,19.1-14.49,23.07-19.52,5.34-4.39,10.26-12.98,12.39-19.52,5.63-2.06,8.67-3.2,11.32-6.98,2.65-3.78,3.15-9.02,.82-10.12-2.33-1.1-4.52,1.6-5.28,3.52-1.61-2.33-6.95-5.94-11.82-2.1-.24-2.7-1.23-7.5-5.48-6.22-4.26,1.28-3.7,9.86,.14,15.41-4.29,3.35-10.5,9.9-13.24,13.86-6.62,1.95-21.25,6.07-26.32,12.38,4.48,4.94,14.41,19.29,14.41,19.29Z"/><path class="s" d="M149.16,94.21c-.66-1.61-2.02-3.46-3.97-4.52-2.51-1.37-6.62-2.2-10.15,1.96,2.14-4.06,6.71-4.83,10.36-2.95,1.92,.99,3.78,2.79,3.76,5.52Z"/><path class="r" d="M123.8,127.11c-2.84,.61-5.42,.49-8.7-.73,11.35-1.46,18.54-10.61,23.83-19.75-1.89-.37-3.78-.73-5.3-1.83,10.83-.33,20.05-7.44,20.58-16.56,1.85,1.5,1.25,6.32-1.23,9.86-2.65,3.78-5.69,4.92-11.32,6.98-2.13,6.54-7.05,15.13-12.39,19.52-3.97,5.03-15.23,16.78-23.07,19.52,0,0-5.81-8.41-10.55-14.57,9.98,7.56,19.71,4.45,28.14-2.44Z"/><path class="ai" d="M150.33,91.8c-.18,1.04,.54,2.02,1.61,2.2,1.07,.18,2.09-.52,2.28-1.56,.18-1.04-.54-2.02-1.61-2.2-1.07-.18-2.09,.52-2.28,1.56Z"/><path class="ad" d="M150.45,92.13c-.05-1.2,1.1-2.06,2.15-1.88,.7,.12,1.36,.79,1.45,1.46-1.16-1.51-3.16-1.1-3.61,.42Z"/><path class="v" d="M154.14,91.55c.09,.28,.13,.59,.07,.9-.18,1.04-1.2,1.73-2.28,1.56-.93-.15-1.6-.92-1.64-1.8,.96,1.44,3.53,.75,3.84-.66Z"/><path class="ag" d="M150.14,91.77c.2-1.14,1.32-1.9,2.5-1.71,1.17,.19,1.97,1.28,1.77,2.41-.2,1.14-1.32,1.9-2.5,1.71-1.17-.19-1.97-1.28-1.77-2.41Zm.37,.06c-.17,.94,.49,1.83,1.46,1.99,.97,.16,1.89-.47,2.06-1.41,.17-.94-.49-1.83-1.46-1.99-.97-.16-1.89,.47-2.06,1.41Z"/><path class="ai" d="M136.48,95.84c0,2.05,1.91,3.72,4.26,3.72,2.35,0,4.26-1.66,4.26-3.72s-1.91-3.72-4.26-3.72-4.26,1.66-4.26,3.72Z"/><path class="ad" d="M136.62,95.59c.15-2.12,1.96-3.47,4.11-3.47,1.69,0,3.14,.86,3.83,2.1-3.15-2.1-6.18-2-7.94,1.37Z"/><path class="v" d="M140.26,97.68c1.99,0,4.7-1.45,4.11-3.76,.39,.56,.62,1.22,.62,1.92,0,2.05-1.91,3.72-4.26,3.72-2.35,0-4.26-1.66-4.26-3.72,0-.23,.03-.46,.07-.68,.18,1.31,1.18,2.53,3.71,2.52Z"/><path class="ag" d="M136.29,95.84c0-2.15,1.99-3.9,4.44-3.9,2.45,0,4.44,1.75,4.44,3.9,0,2.15-1.99,3.9-4.44,3.9-2.45,0-4.44-1.75-4.44-3.9Zm.38,0c0,1.95,1.82,3.53,4.07,3.53s4.07-1.59,4.07-3.53c0-1.95-1.82-3.53-4.07-3.53s-4.07,1.59-4.07,3.53Z"/><path class="ai" d="M130.69,87.37c0,1.05,.88,1.91,1.97,1.91s1.97-.85,1.97-1.91c0-1.05-.88-1.91-1.97-1.91s-1.97,.85-1.97,1.91Z"/><path class="ad" d="M130.87,87.67c-.26-1.17,.72-2.21,1.8-2.21,.71,0,1.48,.55,1.69,1.21-1.41-1.3-3.31-.57-3.48,1Z"/><path class="v" d="M134.41,86.5c.14,.26,.23,.56,.23,.87,0,1.05-.88,1.91-1.97,1.91-.95,0-1.74-.64-1.93-1.5,1.2,1.26,3.61,.16,3.67-1.28Z"/><path class="ag" d="M130.5,87.37c0-1.15,.97-2.09,2.16-2.09s2.16,.94,2.16,2.09c0,1.15-.97,2.09-2.16,2.09s-2.16-.94-2.16-2.09Zm.38,0c0,.95,.8,1.72,1.78,1.72s1.78-.77,1.78-1.72c0-.95-.8-1.72-1.78-1.72s-1.78,.77-1.78,1.72Z"/><path class="x" d="M129.95,124.28l-.24-.28c-2.52,1.98-6.88,2.49-6.92,2.5,0,0,4.55-.17,7.16-2.21Z"/><path class="x" d="M116.68,117.32s.44-2.98,2.09-5.45l-.32-.2c-1.7,2.54-1.77,5.64-1.77,5.64Z"/><path class="x" d="M142.12,105.11l-.1-.35c-1.96,.52-3.62,.53-3.63,.53,0,0,1.72,.36,3.73-.18Z"/><path class="x" d="M133.06,100.02s-1.08-.83-1.79-1.93l-.32,.19c.75,1.16,2.11,1.73,2.11,1.73Z"/><path class="x" d="M135.04,91.64s1.14-1.72,2.39-2.54l-.21-.3c-1.32,.87-2.17,2.84-2.17,2.84Z"/><path class="x" d="M149.16,94.21s.2-2.18-.89-3.35l-.28,.25c1.01,1.08,1.17,3.09,1.17,3.11Z"/><path class="x" d="M106.06,144.22c-.1-.14-9.97-14.4-14.39-19.27l-.1-.11,.1-.12c4.92-6.12,18.92-10.24,25.65-12.21l.7-.21c2.81-4.05,8.88-10.41,13.11-13.75-2.69-3.97-3.79-9.46-2.55-12.84,.51-1.41,1.42-2.34,2.61-2.7,.49-.15,.95-.22,1.39-.22,3.13,0,4.05,3.78,4.31,6.26,1.38-1.01,2.88-1.52,4.47-1.52,3.24,0,5.95,2.05,7.15,3.59,.7-1.54,2.29-3.58,4.22-3.58,.4,0,.8,.09,1.19,.27,.67,.31,1.15,.96,1.4,1.86,.63,2.27-.27,5.86-2.14,8.53-2.7,3.85-5.77,4.99-11.32,7.02-2.09,6.35-7,15.06-12.4,19.51-3.94,4.98-15.2,16.79-23.15,19.57l-.14,.05-.08-.12Zm42.65-52.65l-.13,.33-.2-.29c-.99-1.43-3.77-3.71-7.03-3.71-1.61,0-3.13,.55-4.51,1.64l-.28,.22-.03-.35c-.2-2.34-.99-6.26-3.96-6.26-.4,0-.82,.07-1.28,.2-1.09,.33-1.88,1.16-2.36,2.47-1.19,3.27-.05,8.83,2.61,12.66l.1,.14-.13,.1c-4.22,3.3-10.39,9.76-13.2,13.82l-.04,.05-.83,.25c-6.65,1.95-20.43,6-25.36,11.97,4.26,4.75,13.27,17.69,14.23,19.08,7.87-2.84,18.97-14.49,22.85-19.41l.03-.03c5.38-4.42,10.28-13.12,12.33-19.44l.03-.09,.09-.03c5.53-2.02,8.58-3.14,11.23-6.91,1.81-2.59,2.69-6.05,2.09-8.23-.22-.8-.63-1.36-1.2-1.62-.33-.16-.68-.24-1.02-.24-1.86,0-3.44,2.24-4,3.66Z"/></g><g><path class="o" d="M64,124.95c-3.45,5.6-9.56,17.91-12.13,35.16-7.43,8.67-10.71,17.35-11.06,23.01-.35,5.66,3.81,14.25,17.26,15.4-3.98,2.39-11.02,3.81-16.06,4.96-5.04,1.15-8.58,2.66-10.66,5.49-2.08,2.83-1.86,6.42-1.5,7.08-.66,2.48-3.16,6.46,7.23,7.23,1.24,1.62,5.13,2.27,15.05-.97,9.91-3.24,16.58-8.55,21.06-13.51,4.48-4.96,5.78-7.49,5.96-10.62,.18-3.13,.3-6.31,0-8.2,5.19,.53,19.35,2.06,29.65-11.71,4.51-3.1,7.76-5.22,10.88-4.63,3.13,.59,4.32,3.22,5.8,5.52,1.47,2.3,3.67,5.97,6.42,4.38,2.74-1.59,17.97-62.53,17.97-62.53-3.58-.49-8.19,2.04-11.59,7.92-3.41,5.89-5.66,13.67-6.99,17.75-2.79-3.72-10.03-14.9-21.83-3.92-1.65-6.96-4.34-15.07-6.46-17.79-2.12-2.72-38.97,0-38.97,0Z"/><path class="r" d="M60.93,181.32c-8.49-5.09-9.37-13.12-9.21-21.01-.67,.79-1.32,1.59-1.92,2.38-.87,7.32,3,16.1,11.13,18.63Z"/><path class="r" d="M126.57,166.84c-1.99,1.37-5.19,0-6.84-4.42-1.3-3.48-2.42-7.2-4.6-11.04,1.59,11.86-13.78,25.44-18.73,28.27-13.1,7.79-30.84,5.37-35.31,2.07,2.35,3.3,3.54,4.96,6.02,6.37,2.12,1.42,4.96,2.12,5.31,3.19,3.54,7.79-3.19,18.14-10.27,22.39-1.42,1.06-17.08,9.87-23.1,8.81-1.99-.4-.31-5.99,4.17-9.28-5.33,1.93-9.04,6.76-11.16,4.99-1.94-1.66,.57-5.92,5.83-9.8-3.91,.27-6.27,3.16-7.71,2.83-.79,2.22-.6,4.35-.33,4.84-.66,2.48-3.16,6.46,7.23,7.23,1.24,1.62,5.13,2.27,15.05-.97,9.91-3.24,16.58-8.55,21.06-13.51,4.48-4.96,5.78-7.49,5.96-10.62,.18-3.13,.3-6.31,0-8.2,5.19,.53,19.35,2.06,29.65-11.71,4.51-3.1,7.76-5.22,10.88-4.63,3.13,.59,4.32,3.22,5.8,5.52,1.47,2.3,3.67,5.97,6.42,4.38,2.04-1.19,10.99-35.23,15.44-52.57-2.8,3.32-7.41,6.32-9.88,10.69-5.56,9.85-8.66,24.54-10.87,25.2Z"/><path class="x" d="M107.91,145.33s.59-1.97,1.73-3.02l.24,.26c-1.09,1.01-1.96,2.75-1.97,2.76Z"/><path class="x" d="M107.93,179.64l-.28-.22c1.31-1.67,2.39-3.32,3.28-4.85,2.51-4.32,3.47-7.68,3.48-7.73,0,0-.65,3.57-3.21,7.97-.89,1.53-1.97,3.18-3.27,4.84Z"/><path class="x" d="M59.42,198.72c-.8,0-1.63-.04-2.47-.13l.04-.35c5.73,.65,11.01-1.27,11.07-1.29,0,0-3.86,1.78-8.64,1.78Z"/><path class="x" d="M36.92,223.37c-2.74-4.46,6.3-10.18,6.3-10.18-.09,.06-8.56,5.83-6,10l-.3,.19Z"/><path class="x" d="M29.9,216.47l-.34-.11c1.66-5.04,8.32-7.99,8.32-7.99-.06,.03-6.37,3.2-7.98,8.1Z"/><path class="x" d="M127.99,168.98s.1-6.82,1.35-14.14c.55-3.19,1.25-6.49,2.13-9.42l.34,.1c-.86,2.85-1.55,6.07-2.09,9.18-1.28,7.37-1.73,14.18-1.74,14.28Z"/><path class="x" d="M80,190.23c-7.69-.87-13.46-4.96-13.46-4.96,.06,.04,5.9,3.75,13.5,4.6l-.04,.35Z"/><path class="x" d="M52.85,171.49c-1.1-3.19-1.66-7.24-1.01-12.29l.35,.05c-.68,5.19-.05,9.31,1.12,12.51,2.51,6.86,7.54,9.52,7.61,9.56,0,0-5.57-2.54-8.08-9.83Z"/><path class="x" d="M41.1,224.79c-2.01,0-3.4-.45-4.13-1.35-4.13-.31-6.61-1.17-7.57-2.6-.87-1.29-.37-2.82,.02-4.05,.08-.25,.16-.5,.22-.73-.36-.84-.54-4.36,1.55-7.2,1.92-2.61,5.14-4.27,10.77-5.55,.5-.11,1.02-.23,1.55-.35,4.64-1.04,10.37-2.33,13.98-4.31-14-1.43-17.16-10.75-16.86-15.53,.43-6.85,4.57-15.47,11.07-23.08,2.75-18.42,9.41-30.74,12.14-35.18l.05-.08h.09c.16-.02,16.51-1.21,27.94-1.21,10.19,0,10.94,.96,11.19,1.27,2.19,2.8,4.85,11,6.42,17.56,3.31-3.02,6.56-4.54,9.65-4.54,5.81,0,9.7,5.28,11.79,8.12,.08,.1,.15,.21,.22,.3,.14-.43,.28-.89,.44-1.38,1.38-4.35,3.47-10.91,6.46-16.07,2.92-5.05,6.99-8.07,10.86-8.07,.31,0,.61,.02,.91,.06l.2,.03-.05,.19c-.62,2.49-15.27,61.02-18.05,62.64-.47,.27-.95,.41-1.43,.41-2.13,0-3.82-2.66-5.06-4.6l-.16-.25c-.19-.3-.38-.6-.56-.91-1.27-2.07-2.47-4.03-5.12-4.53-.34-.06-.68-.1-1.03-.1-2.68,0-5.45,1.77-9.7,4.68-6.01,8.02-14.2,12.09-24.34,12.09-2.13,0-3.9-.17-5.22-.31,.26,1.96,.13,5.14-.03,8.01-.19,3.3-1.65,5.91-6,10.73-5.66,6.26-12.78,10.82-21.14,13.56-4.71,1.54-8.43,2.32-11.07,2.32Zm23-99.67c-2.76,4.49-9.33,16.74-12.05,35.02v.05l-.04,.04c-6.48,7.56-10.6,16.12-11.02,22.91-.3,4.73,2.9,14,17.1,15.21l.55,.05-.47,.28c-3.61,2.17-9.69,3.53-14.57,4.63-.53,.12-1.05,.24-1.55,.35-5.54,1.26-8.7,2.88-10.56,5.42-2.06,2.81-1.8,6.31-1.49,6.89l.03,.06-.02,.07c-.07,.26-.16,.53-.25,.81-.39,1.22-.84,2.6-.07,3.74,.91,1.35,3.32,2.15,7.38,2.45h.08l.05,.07c1.51,1.97,6.69,1.64,14.85-1.03,8.3-2.72,15.37-7.25,20.99-13.46,4.29-4.75,5.73-7.3,5.91-10.51,.17-2.97,.3-6.26,0-8.16l-.04-.23,.32,.03c1.33,.14,3.14,.32,5.32,.32,10.04,0,18.14-4.03,24.08-11.97l.04-.04c4.31-2.96,7.14-4.76,9.92-4.76,.37,0,.74,.03,1.1,.1,2.8,.53,4.1,2.65,5.35,4.69,.19,.3,.37,.61,.56,.9l.16,.25c1.19,1.87,2.83,4.44,4.76,4.44,.42,0,.84-.12,1.26-.37,2.11-1.23,12.56-41.12,17.83-62.22-.22-.02-.44-.03-.66-.03-3.75,0-7.7,2.95-10.56,7.89-2.97,5.13-5.05,11.67-6.43,16-.2,.62-.38,1.19-.55,1.71l-.11,.32-.2-.27c-.13-.18-.28-.37-.43-.58-2.05-2.79-5.88-7.98-11.51-7.98-3.07,0-6.31,1.57-9.63,4.65l-.22,.21-.07-.3c-1.56-6.57-4.24-14.92-6.43-17.72-.41-.52-2.63-1.14-10.91-1.14-10.97,0-26.49,1.1-27.82,1.2Z"/><path class="ah" d="M108.7,155.16c-1.06-13.69-5.43-23.49-7.43-28.44l-17.97-2.46v-.02h-.11v.02l-17.97,2.46c-2,4.95-6.37,14.75-7.43,28.44-.56,7.17,1.85,14.68,6.27,20.65,3.4,4.6,11.31,9.2,19.24,9.2s14.31-3.84,18.66-8.64c5.15-5.7,7.32-13.81,6.74-21.21Z"/><path class="ac" d="M108.7,155.16c-1.06-13.69-5.43-23.49-7.43-28.44l-12.74-1.75c11.07,12.51,17.8,31.89,4.07,44.34-10.6,9.38-27.02,9.09-34.13-5.61,.99,4.32,2.92,8.49,5.59,12.1,3.4,4.6,11.31,9.2,19.24,9.2s14.31-3.84,18.66-8.64c5.15-5.7,7.32-13.81,6.74-21.21Z"/><path class="p" d="M83.3,185.19c-8.13,0-16.06-4.78-19.39-9.27-4.56-6.16-6.85-13.73-6.31-20.77,.99-12.72,4.88-22.23,6.97-27.33,.17-.41,.33-.8,.47-1.16l.04-.1,17.92-2.46v-.05l.23,.02,.23-.03v.06l17.92,2.46,.04,.1c.15,.36,.3,.75,.47,1.16,2.09,5.11,5.99,14.61,6.97,27.33,.62,7.98-1.92,15.96-6.79,21.34-3.59,3.97-9.77,8.7-18.79,8.7Zm-17.96-58.31c-.13,.33-.28,.69-.43,1.06-2.09,5.09-5.97,14.56-6.95,27.23-.54,6.96,1.73,14.45,6.24,20.54,3.27,4.42,11.08,9.13,19.1,9.13,8.89,0,14.98-4.67,18.53-8.59,4.81-5.31,7.31-13.19,6.7-21.08-.98-12.66-4.86-22.14-6.95-27.23-.15-.38-.3-.73-.43-1.06l-17.91-2.45h-.02l-17.87,2.45Z"/><path class="ah" d="M101.32,116.13c-2.91-1.32-9.27-1.42-18.08-.71-8.82-.7-15.17-.61-18.08,.71-2.92,1.33-6.28,10.71-1.42,16.2,.38-2.07,.89-3.43,1.17-3.89,.04,2.12,.83,9.2,7.62,11.68-.89-1.42-.83-3.16-.74-4.42,1.24,2.04,1.59,3.5,4.74,5.49,3.09,1.96,6.48,4.96,6.71,4.98,.47-.18,3.62-3.03,6.71-4.98,3.14-1.99,3.5-3.45,4.74-5.49,.09,1.27,.15,3.01-.74,4.42,6.78-2.48,7.57-9.56,7.62-11.68,.29,.46,.79,1.82,1.17,3.89,4.87-5.49,1.5-14.87-1.42-16.2Z"/><path class="ac" d="M101.32,116.13c-1.24-.57-3.11-.91-5.53-1.06,2.52,3.11,6.53,5.95,5.65,10.35-1.15-1.64-2.35-2.6-3.89-2.83,3.54,4.25,1.42,9.56-1.42,13.1-.13-3.01-.53-4.56-2.12-6.02-1.42,5.31-3.73,9.92-10.59,13.1-5.19-2.98-9.79-5.25-13.13-12.74-.71,1.77-.71,3.89-.71,5.66-3.54-2.48-3.19-6.73-3.54-10.62-2.12,.71-1.77,3.19-2.83,4.6-.73-2.2-1.46-4.39-1.73-6.7-.52,3.13-.1,6.7,2.26,9.36,.38-2.07,.89-3.43,1.17-3.89,.04,2.12,.83,9.2,7.62,11.68-.89-1.42-.83-3.16-.74-4.42,1.24,2.04,1.59,3.5,4.74,5.49,3.09,1.96,6.48,4.96,6.71,4.98,.47-.18,3.62-3.03,6.71-4.98,3.14-1.99,3.5-3.45,4.74-5.49,.09,1.27,.15,3.01-.74,4.42,6.78-2.48,7.57-9.56,7.62-11.68,.29,.46,.79,1.82,1.17,3.89,4.87-5.49,1.5-14.87-1.42-16.2Z"/><path class="p" d="M83.26,146.34h-.04c-.12-.02-.27-.13-1.37-1.01-1.28-1.03-3.43-2.75-5.42-4.01-2.6-1.65-3.33-2.96-4.18-4.47-.1-.19-.21-.38-.32-.57-.05,1.05-.01,2.54,.75,3.74l.28,.44-.49-.18c-6.39-2.34-7.51-8.7-7.7-11.14-.28,.7-.6,1.82-.86,3.21l-.07,.36-.24-.27c-2.23-2.51-3.02-6.22-2.18-10.18,.64-3.02,2.14-5.61,3.66-6.3,1.72-.78,4.62-1.16,8.85-1.16,2.6,0,5.65,.14,9.32,.43,3.64-.29,6.69-.43,9.3-.43,4.23,0,7.13,.38,8.85,1.16,1.51,.69,3.01,3.28,3.66,6.3,.84,3.96,.05,7.67-2.18,10.18l-.24,.27-.07-.36c-.26-1.39-.58-2.51-.86-3.21-.19,2.44-1.3,8.8-7.7,11.14l-.49,.18,.28-.44c.76-1.2,.79-2.7,.75-3.74-.11,.19-.22,.39-.32,.57-.85,1.52-1.58,2.83-4.18,4.47-1.91,1.21-3.87,2.78-5.16,3.82-.93,.74-1.38,1.11-1.58,1.18l-.04,.02Zm-11.61-11.22l.29,.48c.23,.38,.43,.74,.62,1.08,.86,1.54,1.53,2.75,4.06,4.35,2.01,1.27,4.16,3,5.45,4.03,.51,.41,.99,.79,1.17,.91,.22-.13,.78-.58,1.42-1.1,1.3-1.04,3.26-2.62,5.2-3.84,2.52-1.6,3.2-2.81,4.06-4.35,.19-.35,.39-.7,.62-1.08l.29-.48,.04,.55c.07,.95,.18,2.64-.52,4.1,6.54-2.7,7.02-9.9,7.05-11.34v-.6l.33,.51c.31,.5,.77,1.79,1.13,3.59,1.97-2.42,2.65-5.89,1.86-9.59-.61-2.87-2.06-5.42-3.46-6.05-1.67-.76-4.52-1.13-8.7-1.13-2.59,0-5.63,.14-9.3,.43-3.69-.29-6.73-.43-9.32-.43-4.18,0-7.03,.37-8.7,1.13-1.39,.63-2.85,3.18-3.46,6.05-.79,3.7-.11,7.17,1.86,9.59,.36-1.8,.82-3.09,1.13-3.59l.32-.51v.6c.04,1.44,.53,8.65,7.06,11.34-.71-1.46-.59-3.15-.52-4.1l.04-.55Z"/><path class="c" d="M150.76,120.58c-2.66-.12-5.96,1-8.91,7.73-2.95,6.73-8.91,28.85-10.68,39.12-1.77,10.27-2.18,17.11,2.01,17.41,4.19,.29,5.66-2.12,7.73-8.32,2.06-6.19,4.66-13.69,9.85-20.89s11-15.69,10.74-22.86c.97-4.69,.24-9.88-2.48-11.53-.47-3.24-3.13-5.25-8.26-.65Z"/><path class="h" d="M159.96,122.32c-.17-.15-.98-.97-1.17-1.09,.21,2.73-.5,7.55-3.08,12.25,2.94-3.66,4.75-8.06,4.25-11.16Z"/><path class="h" d="M150.06,130.93c1.8-3.67,5.45-9.02,1.86-11.47-.44,.32-.91,.7-1.4,1.13,2.93,.35,.58,5.82-.47,10.34Z"/><path class="h" d="M148.7,153.17c-4.91,6.28-9.47,17.99-12.84,16.75-3.19-.77-3.06-8.68-2.4-14.16-1.09,4.46-1.99,8.6-2.52,11.67-1.77,10.27-2.18,17.11,2.01,17.41,4.19,.29,5.66-2.12,7.73-8.32,2.06-6.19,4.66-13.69,9.85-20.89,4.59-6.36,9.65-13.72,10.59-20.3-2.42,6.3-8.47,12.78-12.42,17.83Z"/><path class="x" d="M158.29,138.19s2.22-3.05,2.91-6.03l.35,.08c-.7,3.05-3.25,5.95-3.25,5.95Z"/><path class="x" d="M155.71,133.48c.04-.07,3.69-7.09,2.8-12.76l.35-.06c.91,5.79-3.15,12.82-3.15,12.82Z"/><path class="x" d="M150.06,130.93c.02-.06,1.59-6.29,1.68-8.34,.03-.65-.1-1.13-.37-1.42-.39-.41-1.06-.4-1.6-.4h-.11v-.35h.11c.57,0,1.36-.01,1.86,.5,.35,.36,.51,.91,.47,1.68-.09,2.09-2.03,8.33-2.03,8.33Z"/><path class="x" d="M156.77,137.06c-.04-.14-.8-2.77-3.24-3.87-.65-.29-1.41-.47-2.31-.47-1.17,0-2.18,.25-3.04,.62-2.28,.98-3.43,2.77-3.45,2.8,0,0,.92-2.09,3.3-3.12,.9-.39,1.96-.65,3.19-.65,.91,0,1.7,.18,2.37,.48,2.67,1.17,3.18,4.22,3.18,4.22Z"/><path class="x" d="M133.6,185.04h0c-.21,0-.44,0-.67-.02-.94-.07-1.69-.45-2.24-1.15-1.88-2.4-1.33-8.32,.07-16.46,1.84-10.7,7.84-32.66,10.69-39.16,2.31-5.28,5.17-7.84,8.72-7.84,.1,0,.19,0,.29,0,2.01-1.79,3.77-2.7,5.24-2.7,1.7,0,2.91,1.28,3.25,3.42,2.84,1.81,3.41,7.21,2.49,11.66,.25,7.05-5.18,15.2-10.77,22.95-4.95,6.86-7.47,13.77-9.83,20.84-1.99,5.97-3.44,8.46-7.24,8.46Zm16.57-64.28c-3.39,0-6.14,2.5-8.39,7.63-2.84,6.48-8.83,28.4-10.67,39.08-1.2,6.96-2.05,13.74-.14,16.18,.49,.63,1.14,.96,1.98,1.02,4.07,.29,5.51-2.07,7.55-8.2,2.36-7.09,4.9-14.03,9.88-20.93,5.56-7.7,10.96-15.81,10.7-22.75v-.04c.91-4.36,.38-9.66-2.39-11.35l-.07-.04v-.08c-.15-.96-.71-3.2-2.92-3.2-1.37,0-3.12,.92-5.06,2.65l-.05,.05h-.07c-.11,0-.23-.01-.35-.01Z"/><path class="ai" d="M149.05,150.09c-1.53,3.89-4.23,6.47-6.04,5.76-1.81-.71-2.03-4.44-.5-8.33,1.53-3.89,4.23-6.47,6.04-5.76,1.81,.71,2.03,4.44,.51,8.33Z"/><path class="v" d="M141.84,149.65c-.72,3.04-.29,5.62,1.18,6.2,1.81,.71,4.51-1.87,6.04-5.76,1-2.56,1.25-5.04,.78-6.65,.01,6.14-5.74,11.81-8,6.21Z"/><path class="ad" d="M149.76,143.22c-.25-.72-.65-1.24-1.22-1.46-1.81-.71-4.51,1.87-6.04,5.76-.23,.58-.35,1.48-.5,2.04,2.12-3.96,4.65-8.65,7.75-6.34Z"/><path class="g" d="M143.65,156.14c-.25,0-.48-.04-.7-.13-1.93-.76-2.19-4.52-.61-8.56,1.36-3.47,3.7-5.99,5.57-5.99,.25,0,.48,.04,.7,.13,1.93,.76,2.19,4.52,.61,8.56-1.36,3.47-3.7,5.99-5.57,5.99Zm4.26-14.33c-1.72,0-3.93,2.43-5.24,5.77-1.49,3.79-1.31,7.43,.4,8.1,.18,.07,.37,.1,.57,.1,1.72,0,3.93-2.43,5.24-5.77,1.49-3.79,1.31-7.43-.41-8.1-.18-.07-.37-.11-.57-.11Z"/><path class="ai" d="M148.25,130.1c-.78,2-2.31,3.26-3.41,2.83-1.1-.43-1.35-2.4-.57-4.4,.78-2,2.31-3.26,3.41-2.83,1.1,.43,1.35,2.4,.57,4.4Z"/><path class="ad" d="M148.5,126.62c-.17-.44-.44-.76-.82-.91-1.1-.43-2.63,.84-3.41,2.83-.06,.15-.18,1.03-.23,1.18,1.47-2.65,2.64-4.27,4.45-3.1Z"/><path class="v" d="M144.03,129.3c-.46,1.71-.14,3.26,.82,3.64,1.1,.43,2.63-.84,3.41-2.83,.34-.87,.48-1.73,.45-2.46-2.33,5.56-4.67,3.66-4.68,1.66Z"/><path class="g" d="M145.3,133.2c-.18,0-.36-.03-.52-.1-.59-.23-.99-.86-1.1-1.75-.11-.86,.04-1.88,.43-2.87,.7-1.78,1.98-3.03,3.12-3.03,.18,0,.36,.03,.52,.1,.59,.23,.99,.86,1.1,1.75,.11,.86-.04,1.88-.43,2.87-.7,1.78-1.98,3.03-3.12,3.03Zm1.93-7.4c-.98,0-2.15,1.18-2.79,2.8-.37,.94-.51,1.9-.41,2.7,.1,.76,.41,1.28,.88,1.47,.12,.05,.25,.07,.39,.07,.98,0,2.15-1.18,2.79-2.8,.37-.94,.51-1.9,.41-2.7-.1-.76-.41-1.28-.88-1.47-.12-.05-.25-.07-.39-.07Z"/><path class="ai" d="M156.75,126.5c-.46,1.7-1.59,2.88-2.52,2.62-.94-.25-1.33-1.83-.87-3.54,.46-1.7,1.59-2.88,2.52-2.63,.94,.25,1.33,1.84,.87,3.54Z"/><path class="v" d="M153.35,125.59c-.46,1.7-.07,3.28,.87,3.53,.94,.25,2.07-.92,2.52-2.62,.08-.31,.14-.62,.17-.92-1.33,2.8-3.53,2.7-3.56,.01Z"/><path class="ad" d="M156.85,124.25c-.15-.68-.49-1.16-.97-1.29-.9-.24-2.21,1.08-2.5,3.04,1.18-2.33,2.22-3.41,3.47-1.74Z"/><path class="g" d="M154.48,129.33c-.1,0-.21-.01-.31-.04-.52-.14-.9-.62-1.08-1.35-.17-.7-.14-1.55,.09-2.4,.43-1.62,1.46-2.79,2.44-2.79,.1,0,.21,.01,.31,.04,1.05,.28,1.48,1.93,.99,3.75-.43,1.62-1.46,2.79-2.43,2.79Zm1.14-6.23c-.81,0-1.71,1.09-2.09,2.53-.21,.79-.24,1.58-.09,2.22,.15,.6,.44,.99,.83,1.1,.07,.02,.14,.03,.21,.03,.81,0,1.71-1.09,2.09-2.53,.42-1.58,.08-3.1-.74-3.32-.07-.02-.14-.03-.21-.03Z"/><path class="ai" d="M160.16,132.85c-.3,1.13-1.05,1.9-1.67,1.74s-.88-1.21-.58-2.34c.3-1.13,1.05-1.9,1.67-1.74,.62,.17,.88,1.21,.58,2.34Z"/><path class="ad" d="M160.04,131.17c-.12-.35-.19-.59-.46-.67-.62-.17-1.37,.61-1.67,1.74-.02,.06,.1,.22,.09,.27,.52-.98,1.28-2.15,2.05-1.34Z"/><path class="v" d="M157.82,132.81c-.15,.96,.11,1.79,.66,1.94,.62,.17,1.37-.61,1.67-1.74,.15-.55,.16-1.09,.06-1.51-.3,1.92-1.69,3.01-2.39,1.31Z"/><path class="g" d="M158.66,134.79c-.07,0-.15,0-.22-.03-.37-.1-.63-.43-.76-.94-.12-.47-.09-1.05,.06-1.62,.29-1.1,1-1.89,1.67-1.89,.07,0,.15,0,.22,.03,.36,.1,.63,.43,.76,.94,.12,.47,.09,1.05-.06,1.62-.29,1.1-1,1.89-1.67,1.89Zm.75-4.12c-.5,0-1.08,.72-1.33,1.63-.14,.52-.16,1.03-.06,1.44,.09,.38,.27,.62,.51,.68,.52,.14,1.19-.62,1.45-1.61,.14-.52,.16-1.03,.06-1.44-.09-.38-.27-.62-.51-.68-.04-.01-.08-.02-.13-.02Z"/></g><g><path class="ah" d="M112.15,90.27c-4.68-2.36-9.9-1.28-15.07,1.13-3.54-3.62-7.63-5.9-13.52-5.9-4.99,0-9.98,2.28-13.52,5.9-5.17-2.41-10.39-3.49-15.07-1.13-4.68,2.36-7.34,8.09-6.37,12.97,.49-1.03,1.68-1.77,2.12-2.03-.68,2.77-.59,6.51,1.99,8.92,.1-1.64,.44-2.72,.74-3.17,.78,2.52,3.75,8.07,11.81,12.05,2.34,1.16,5.63,2.28,9.59,3,1.89,2.33,4.73,3.27,8.59,3.27,3.66,0,6.31-.94,8.83-3.29,3.92-.72,7.26-1.83,9.58-2.98,8.06-3.98,11.03-9.53,11.81-12.05,.3,.46,.64,1.53,.74,3.17,2.59-2.41,2.68-6.15,1.99-8.92,.44,.26,1.63,1,2.12,2.03,.98-4.88-1.68-10.6-6.37-12.97Z"/><path class="d" d="M68.39,92.26c-.22,.64-.99,2.01-.7,3.25,9.37-12.21,23.49-11.4,31.68-.31-.16-.68-.39-2.41-.84-3.31,1.73-1.43,3.06-1.8,4.62-2.57-1.43,.42-4.64,1.41-6.08,2.08-3.54-3.62-7.63-5.9-13.52-5.9-4.98,0-9.98,2.28-13.52,5.9-4.92-2.29-9.87-3.38-14.38-1.45,4.24-.49,8.02-.54,12.73,2.31Z"/><path class="ac" d="M112.15,90.27c-2.61-1.31-5.38-1.56-8.22-1.11,5.71,.71,11.15,4.06,12.64,10.04-1.76-.62-2.63-2.16-4.39-2.77,1.76,2.77,3.22,5.55,2.63,8.94-1.17-1.85-2.93-2.77-4.39-4.31,1.08,9.1-7.61,16.99-15.42,18.65,.24-2.06,0-4.35-.65-4.23-2.3,5.13-7.58,6.65-10.91,6.79-3.53,.15-8.23-1.66-10.56-6.39-.24,.75-.56,2.22-.43,3.81-8.15-1.8-16.46-7.99-18.81-17.39-.73,1.26-1.13,2.42-1.46,4.62-1.1-2.13-.77-5.93,.4-8.7-.88,.62-2.06,1.31-3.38,2.49,.49-3.53,2.55-7.61,5.02-10.01-4.22,2.57-6.55,7.94-5.63,12.55,.49-1.03,1.68-1.77,2.12-2.03-.68,2.77-.59,6.51,1.99,8.92,.1-1.64,.44-2.72,.74-3.17,.78,2.52,3.75,8.07,11.81,12.05,2.34,1.16,5.63,2.28,9.59,3,2.25,2.75,5.43,3.27,8.59,3.27s6.05-.65,8.83-3.29c3.92-.72,7.26-1.83,9.58-2.98,8.06-3.98,11.03-9.53,11.81-12.05,.3,.46,.64,1.53,.74,3.17,2.59-2.41,2.68-6.15,1.99-8.92,.44,.26,1.63,1,2.12,2.03,.98-4.88-1.68-10.6-6.37-12.97Z"/><path class="p" d="M83.45,125.45c-4.08,0-6.84-1.05-8.69-3.29-3.57-.65-6.97-1.72-9.57-3-8.4-4.14-11.09-9.89-11.76-11.75-.23,.54-.45,1.46-.53,2.73l-.02,.37-.28-.26c-2.96-2.77-2.49-6.95-2.13-8.68-.58,.38-1.34,.99-1.7,1.73l-.23,.49-.1-.52c-1.01-5.04,1.83-10.81,6.46-13.14,1.76-.89,3.7-1.34,5.77-1.34,2.78,0,5.84,.79,9.35,2.41,3.64-3.68,8.7-5.87,13.56-5.87,5.38,0,9.56,1.81,13.56,5.87,3.51-1.62,6.56-2.41,9.35-2.41,2.07,0,4.01,.45,5.77,1.34,4.63,2.33,7.46,8.11,6.46,13.14l-.1,.52-.23-.49c-.35-.74-1.11-1.35-1.7-1.73,.36,1.73,.83,5.91-2.13,8.68l-.28,.26-.02-.37c-.08-1.28-.3-2.19-.53-2.73-.68,1.87-3.37,7.61-11.77,11.75-2.55,1.26-5.94,2.32-9.57,2.99-2.5,2.32-5.17,3.31-8.91,3.31Zm-29.94-18.9l.11,.36c.38,1.21,2.71,7.5,11.72,11.95,2.59,1.28,5.98,2.34,9.54,2.98h.07l.04,.06c1.78,2.19,4.47,3.21,8.45,3.21,3.66,0,6.27-.97,8.7-3.25l.04-.04h.05c3.62-.67,7-1.72,9.53-2.97,9.01-4.45,11.35-10.74,11.73-11.95l.11-.36,.21,.32c.28,.43,.61,1.4,.74,2.87,2.77-2.9,1.99-7.21,1.67-8.5l-.1-.39,.36,.21c.52,.31,1.4,.89,1.94,1.67,.72-4.79-2-10.12-6.36-12.32-1.71-.86-3.59-1.3-5.6-1.3-2.76,0-5.8,.79-9.31,2.43l-.12,.06-.09-.09c-3.95-4.05-8.08-5.85-13.39-5.85-4.81,0-9.81,2.19-13.39,5.85l-.09,.09-.12-.06c-3.5-1.64-6.55-2.43-9.31-2.43-2.01,0-3.89,.44-5.6,1.3-4.36,2.2-7.08,7.53-6.36,12.32,.54-.78,1.41-1.36,1.94-1.67l.36-.21-.1,.39c-.32,1.28-1.1,5.6,1.67,8.5,.13-1.47,.46-2.44,.74-2.87l.21-.32Z"/><path class="af" d="M83.64,98.94c-1.27-.05-15.06-.58-16.5-.58,2.81,7.03,8.73,17.11,16.5,17.11,7.45,0,13.69-10.08,16.5-17.11-1.44,0-15.23,.53-16.5,.58Z"/><path class="ab" d="M73.14,109.06c2.87,3.64,6.43,6.41,10.5,6.41,3.78,0,7.25-2.6,10.11-6.07-5.64-4.92-14.26-4.6-20.62-.34Z"/><path class="f" d="M76.22,112.33c2.21,1.9,4.7,3.14,7.42,3.14,2.71,0,5.25-1.33,7.53-3.37-4.27-3.08-12.04-2.68-14.95,.23Z"/><path class="aa" d="M88.45,110.89c-4.42-1.54-10.04-.74-12.22,1.44,.23,.2,.47,.39,.7,.57,3.02-2.55,7.81-2.38,11.52-2.01Z"/><path class="k" d="M88.66,110.81c-1.82,3.62-6.61,4.46-10.32,3.07,1.65,1,3.42,1.59,5.3,1.59,2.71,0,5.25-1.33,7.53-3.37-.75-.54-1.6-.97-2.52-1.3Z"/><path class="q" d="M83.64,115.58v-.26c2.41,0,4.91-1.04,7.34-3.17-1.85-1.27-4.54-2.03-7.34-2.03-2.99,0-5.78,.9-7.25,2.26,2.35,1.98,4.83,2.93,7.25,2.93v.26c-2.54,0-5.06-1.02-7.51-3.13l-.13-.11,.12-.12c1.51-1.51,4.32-2.41,7.51-2.41,2.94,0,5.71,.79,7.62,2.16l.16,.11-.15,.13c-2.53,2.26-5.1,3.36-7.63,3.36Z"/><path class="p" d="M83.64,115.62h0c-9.05,0-15.02-13.17-16.64-17.2l-.09-.21h.22c1.52,0,16.36,.58,16.51,.58,.14,0,14.98-.58,16.5-.58h.22l-.09,.21c-3.17,7.94-9.44,17.2-16.64,17.2Zm-16.28-17.11c1.72,4.22,7.56,16.8,16.28,16.8h0c6.99,0,13.11-9,16.28-16.8-2.36,.04-16.13,.57-16.27,.58-.15,0-13.92-.54-16.28-.58Z"/><path class="d" d="M78.5,99.42c.4,2.87,2.52,8.82,2.86,9.07,.34,.25,3.94,.5,4.64,0,.71-.5,3.03-6.29,2.89-8.3-2.93-.77-10.13-1.34-10.4-.77Z"/><path class="e" d="M88.89,100.19c-.53-.14-1.19-.27-1.93-.39-.08,2.41-.69,7.49-1.6,7.49-.76-.07-1.08-3.4-1.34-5.21-.32,2.02-1.28,5.16-3.12,5.49,.21,.52,.38,.86,.45,.92,.34,.25,3.94,.5,4.64,0,.71-.5,3.03-6.29,2.89-8.3Z"/><path class="ae" d="M83.75,108.75h-.26c.24-1.89,.57-7.18,.06-8.43l.23-.1c.57,1.43,.17,6.94-.04,8.54Z"/><path class="ae" d="M84.02,108.93h0c-1.1,0-2.49-.13-2.75-.31-.44-.33-2.53-6.43-2.92-9.17v-.09c.07-.11,.16-.31,1.78-.31,2.3,0,6.64,.44,8.79,1l.1,.03v.11c.14,1.99-2.18,7.9-2.95,8.44-.37,.26-1.32,.31-2.06,.31Zm-5.37-9.45c.43,2.89,2.47,8.57,2.79,8.89,.14,.1,1.31,.25,2.57,.25h0c.97,0,1.66-.1,1.9-.26,.59-.42,2.88-5.93,2.83-8.05-2.17-.55-6.37-.97-8.62-.97-1.07,0-1.39,.09-1.48,.14Z"/><path class="ah" d="M66.21,97.23c1.31,4.18,9.46,9.24,17.53,3.01,8.68,6.02,16.69,1.2,18.37-3.01,0,0-13.84-4.7-18.41-4.7s-17.5,4.7-17.5,4.7Z"/><path class="ac" d="M84.08,95.51c-.88,2.77-3.51,4.31-5.85,4.93-3.94,.83-8.83,.17-11.06-3.55-.61,.21-.96,.34-.96,.34,1.31,4.18,9.46,9.24,17.53,3.01,8.68,6.02,16.69,1.2,18.37-3.01,0,0-.29-.1-.79-.26-4.94,4.14-13.2,4.22-17.25-1.46Z"/><path class="p" d="M75.82,103.31c-1.49,0-2.75-.29-3.64-.59-2.94-.99-5.4-3.18-6.11-5.44l.28-.1c.57,1.81,2.62,4.13,5.92,5.24,2.18,.74,6.57,1.41,11.39-2.31l.08-.06,.09,.06c3.85,2.67,8.09,3.47,11.93,2.24,2.9-.93,5.34-2.96,6.23-5.18l.27,.12c-.92,2.3-3.43,4.4-6.41,5.36-3.9,1.25-8.19,.46-12.09-2.22-2.93,2.23-5.7,2.88-7.93,2.88Z"/><path class="p" d="M83.87,100.27l-.25-.07c.4-1.65,.33-3.78,.28-5.63h.27c.05,1.87,.13,3.99-.29,5.7Z"/><path class="p" d="M104.47,99.57s-1.19-1.37-2.53-2.15c-1.26-.74-3.18-.96-3.2-.97,0,0,2.06-.19,3.39,.6,1.4,.82,2.33,2.52,2.33,2.52Z"/><path class="p" d="M63.78,99.57s.93-1.7,2.33-2.52c1.33-.78,3.39-.6,3.39-.6-.02,0-1.94,.23-3.2,.97-1.34,.79-2.52,2.14-2.53,2.15Z"/><path class="a`" d="M89.85,88.85c.1-2.05-3.26-3.39-5.8-3.29-2.28,0-5.9,1.24-5.8,3.29,.1,2.06,4.08,5.72,5.8,5.72,2.04,0,5.7-3.66,5.8-5.72Z"/><path class="u" d="M89.84,88.66c-.11-1.94-3.33-3.19-5.79-3.1-2.14,0-5.45,1.09-5.78,2.91,3.18-2.5,8.84-2.92,11.57,.19Z"/><path class="n" d="M78.27,89c.27,2.08,4.09,5.57,5.78,5.57,2.01,0,5.57-3.53,5.79-5.61-3.09,3.6-8.14,3.36-11.56,.04Z"/><path class="g" d="M84.05,94.72c-1.8,0-5.84-3.68-5.95-5.87-.03-.53,.18-1.04,.6-1.5,1.1-1.22,3.58-1.95,5.34-1.95,.09,0,.18,0,.27,0,1.99,0,4.06,.76,5.05,1.85,.45,.49,.66,1.03,.63,1.6-.1,2.19-3.83,5.87-5.95,5.87Zm.26-9.01c-.09,0-.17,0-.26,0-1.71,0-4.1,.69-5.14,1.85-.36,.4-.54,.83-.52,1.28,.09,1.97,4.04,5.57,5.65,5.57,1.91,0,5.56-3.59,5.65-5.57,.02-.48-.16-.94-.55-1.37-.92-1.02-2.96-1.76-4.84-1.76Z"/><path class="p" d="M68.57,93.36s1.09-1.88,1.77-2.51l.24,.25c-.66,.62-2,2.25-2.01,2.27Z"/><path class="p" d="M98.54,93.36s-1.35-1.66-2.02-2.27l.24-.24c.68,.63,1.77,2.51,1.77,2.51Z"/></g></g></g></g></g></svg>