<?xml version="1.0" encoding="UTF-8"?><svg xmlns="http://www.w3.org/2000/svg" xmlns:xlink="http://www.w3.org/1999/xlink" viewBox="0 0 183.56 192.74"><defs><style>.e{fill:#fff;}.f{fill:#fb8000;}.g{mix-blend-mode:screen;opacity:.2;}.h,.i{opacity:.5;}.j{fill:#e53963;}.k{fill:url(#c);}.l{isolation:isolate;}.m{fill:url(#b);}.i{mix-blend-mode:multiply;}.n{fill:url(#d);}.o{fill:#3fc416;}</style><linearGradient id="b" x1="-6246.62" y1="-8591.59" x2="-6196.82" y2="-8591.59" gradientTransform="translate(18980.66 5564.1) rotate(-37.88) scale(1.86)" gradientUnits="userSpaceOnUse"><stop offset="0" stop-color="#ff0a3b"/><stop offset=".67" stop-color="#ff576b"/><stop offset="1" stop-color="#ff7880"/></linearGradient><linearGradient id="c" x1="-6210.03" y1="-8611.32" x2="-6209.49" y2="-8546.58" gradientTransform="translate(18980.66 5564.1) rotate(-37.88) scale(1.86)" gradientUnits="userSpaceOnUse"><stop offset="0" stop-color="#cc8122"/><stop offset=".32" stop-color="#9e5d16"/><stop offset=".78" stop-color="#612e06"/><stop offset="1" stop-color="#491c00"/></linearGradient><linearGradient id="d" x1="-6246.62" y1="-8584.12" x2="-6172.89" y2="-8584.12" xlink:href="#c"/></defs><g class="l"><g id="a"><g><path class="h" d="M173.68,189.74c-1.76,0-4.22-.09-7.33-.28-.04,0-.08,0-.12,0-21.94-1.83-23.05-17.54-23.86-29.01-.83-11.74-1.63-16.97-12-17.92-.15-.01-.3-.03-.45-.06-6.66-1.22-12.69-4.13-16.99-8.08l-5.7,4.41c-.9,.7-1.98,1.05-3.06,1.05-.93,0-1.86-.26-2.68-.78-1.78-1.13-2.66-3.26-2.2-5.31l2.1-9.36-72.1-8.71c.77,1.21,1.31,2.67,1.49,4.44,.63,4.13-1.03,11.16-5.8,13.56-.71,.36-1.48,.53-2.25,.53-1.32,0-2.62-.52-3.59-1.51-1.52-1.56-1.85-3.93-.82-5.86,1.75-3.25,1.47-4.37,1.46-4.38-.15-.46-2.28-1.51-3.19-1.96-2.9-1.43-7.99-3.95-8.59-9.71-.41-.85-.59-1.82-.46-2.82L19.87,12.36c.33-2.52,2.47-4.36,4.95-4.36,.2,0,.4,.01,.6,.04l96.13,11.61c1.22,.15,2.33,.73,3.14,1.64,4.82,2.22,5.9,7.37,6.53,10.35,.78,3.73,.82,3.74,2.44,3.74h.02c.92,0,2.08-.16,3.44-.48,.38-.09,.76-.13,1.14-.13,1.78,0,3.46,.95,4.36,2.55,1.09,1.94,.76,4.37-.8,5.96-1.93,1.96-5.11,3.08-8.73,3.08-1.46,0-3.61-.19-5.67-1.06-1.59-.57-2.82-1.39-3.78-2.35l-9.18,71.22,9.73,.28c2.11,.06,3.96,1.44,4.61,3.45,.65,2.01-.02,4.21-1.69,5.5l-4.69,3.63c3.34,1.82,7.87,3.05,13.55,3.67,.14,.02,.28,.04,.42,.06,17.29,3.41,18.19,17.73,18.84,28.19,.74,11.89,1.57,17.67,12.23,18.99,3.02,.34,5.45,.67,7.17,.98,1.83,.32,6.69,1.17,6.42,5.85-.28,4.94-5.58,4.96-7.35,4.96h-.02Z"/><path class="e" d="M168.68,184.74c-1.76,0-4.22-.09-7.33-.28-.04,0-.08,0-.12,0-21.94-1.83-23.05-17.54-23.86-29.01-.83-11.74-1.63-16.97-12-17.92-.15-.01-.3-.03-.45-.06-6.66-1.22-12.69-4.13-16.99-8.08l-5.7,4.41c-.9,.7-1.98,1.05-3.06,1.05-.93,0-1.86-.26-2.68-.78-1.78-1.13-2.66-3.26-2.2-5.31l2.1-9.36-72.1-8.71c.77,1.21,1.31,2.67,1.49,4.44,.63,4.13-1.03,11.16-5.8,13.56-.71,.36-1.48,.53-2.25,.53-1.32,0-2.62-.52-3.59-1.51-1.52-1.56-1.85-3.93-.82-5.86,1.75-3.25,1.47-4.37,1.46-4.38-.15-.46-2.28-1.51-3.19-1.96-2.9-1.43-7.99-3.95-8.59-9.71-.41-.85-.59-1.82-.46-2.82L14.87,7.36c.33-2.52,2.47-4.36,4.95-4.36,.2,0,.4,.01,.6,.04L116.56,14.65c1.22,.15,2.33,.73,3.14,1.64,4.82,2.22,5.9,7.37,6.53,10.35,.78,3.73,.82,3.74,2.44,3.74h.02c.92,0,2.08-.16,3.44-.48,.38-.09,.76-.13,1.14-.13,1.78,0,3.46,.95,4.36,2.55,1.09,1.94,.76,4.37-.8,5.96-1.93,1.96-5.11,3.08-8.73,3.08-1.46,0-3.61-.19-5.67-1.06-1.59-.57-2.82-1.39-3.78-2.35l-9.18,71.22,9.73,.28c2.11,.06,3.96,1.44,4.61,3.45,.65,2.01-.02,4.21-1.69,5.5l-4.69,3.63c3.34,1.82,7.87,3.05,13.55,3.67,.14,.02,.28,.04,.42,.06,17.29,3.41,18.19,17.73,18.84,28.19,.74,11.89,1.57,17.67,12.23,18.99,3.02,.34,5.45,.67,7.17,.98,1.83,.32,6.69,1.17,6.42,5.85-.28,4.94-5.58,4.96-7.35,4.96h-.02Z"/><g><path class="f" d="M8.4,103.06c-.62,7.6,11.84,5.38,12.41,12.68,.5,2.78-.9,7.36-3.09,8.46,8.49-15.79-11.89-10.35-9.61-21.25,.08-.16,.34-.07,.29,.11Z"/><path class="f" d="M114.91,20.25c11.23,.48,.7,18.67,18.35,14.53-1.77,1.79-6.4,2.05-9.02,.87-6.95-2.32-1.76-13.86-9.29-15.09-.18,0-.21-.27-.03-.3Z"/><path class="o" d="M107.51,119.33c4.4,7.79,14.24,10.39,22.9,11.34,27.6,5.44,1.56,43.52,31.42,47.24,12.32,1.4,12.33,2.3-.19,1.55-34.42-2.88-4.92-44.11-35.82-46.93-7.51-1.38-16.06-5.78-18.88-12.98-.12-.35,.42-.56,.57-.23Z"/><polygon class="j" points="115.96 19.61 103.63 115.22 7.5 103.61 19.82 8 115.96 19.61"/><g class="g"><path class="m" d="M60.09,20.31c30.16,38.15-4.89,96.63-52.59,83.29L19.82,8l32.01,3.87c3,2.45,5.77,5.27,8.25,8.44Z"/></g><g class="i"><path class="k" d="M62.28,61.45c13.65,17.52,29.1,37.39,41.78,54.04l-.28,.22C76.81,81.97,45.96,42.49,19.79,8.25l.03-.25,.25,.03c13.03,16.24,28.46,35.88,42.21,53.42Z"/><path class="n" d="M115.96,19.61l-.17,1.31C67.21,24.77,24.53,57.84,8.86,103.77l-1.36-.16C18.31,58.76,69.79,18.88,115.96,19.61Z"/></g><polygon class="j" points="99.17 129.84 102.73 113.98 119.04 114.45 99.17 129.84"/></g></g></g></g></svg>