<?xml version="1.0" encoding="UTF-8"?><svg id="a" xmlns="http://www.w3.org/2000/svg" xmlns:xlink="http://www.w3.org/1999/xlink" viewBox="0 0 179 180"><defs><style>.h{fill:#fff;}.i{fill:#e4f9f5;opacity:.43;}.j{opacity:.5;}.k{fill:url(#f);}.l{fill:url(#g);}.m{clip-path:url(#b);}.n{clip-path:url(#d);}.o{fill:url(#e);}.p{fill:none;}</style><clipPath id="b"><rect class="p" x="5.1" y="5.11" width="165.32" height="165.32" rx="26.15" ry="26.15"/></clipPath><clipPath id="d"><rect class="p" x="-246.21" y="-8.39" width="582.2" height="194.07"/></clipPath><linearGradient id="e" x1="106.27" y1="220.73" x2="106.27" y2="10.24" gradientTransform="matrix(1, 0, 0, 1, 0, 0)" gradientUnits="userSpaceOnUse"><stop offset=".01" stop-color="#e0ffce"/><stop offset=".04" stop-color="#c3f4d6"/><stop offset=".08" stop-color="#a9e9de"/><stop offset=".12" stop-color="#93e1e5"/><stop offset=".17" stop-color="#82daea"/><stop offset=".23" stop-color="#76d6ee"/><stop offset=".32" stop-color="#6fd3f0"/><stop offset=".56" stop-color="#6ed3f1"/><stop offset=".65" stop-color="#5cc6e9"/><stop offset=".83" stop-color="#2fa5d7"/><stop offset="1" stop-color="#0083c4"/></linearGradient><linearGradient id="f" x1="106.26" y1="165.56" x2="106.26" y2="-42.38" gradientTransform="matrix(1, 0, 0, 1, 0, 0)" gradientUnits="userSpaceOnUse"><stop offset="0" stop-color="#8bfcfc" stop-opacity=".5"/><stop offset=".65" stop-color="#31cbf5" stop-opacity=".84"/><stop offset="1" stop-color="#08b5f2"/></linearGradient><linearGradient id="g" x1="106.28" y1="273.63" x2="106.28" y2="163.02" gradientTransform="matrix(1, 0, 0, 1, 0, 0)" gradientUnits="userSpaceOnUse"><stop offset="0" stop-color="#4db28b"/><stop offset=".6" stop-color="#00c4d3"/><stop offset="1" stop-color="#2bb8f7"/></linearGradient></defs><path class="j" d="M147.91,4.61H31.85C16.28,4.61,3.62,17.27,3.62,32.83v116.06c0,17.06,13.88,30.95,30.95,30.95h113.34c17.07,0,30.95-13.88,30.95-30.95V35.56c0-17.06-13.88-30.95-30.95-30.95Zm25.95,144.29c0,14.33-11.62,25.95-25.95,25.95H34.57c-14.33,0-25.95-11.62-25.95-25.95V34.7c0-13.86,11.24-25.1,25.1-25.1h114.19c14.33,0,25.95,11.62,25.95,25.95v113.34Z"/><g class="m"><g id="c"><g class="n"><g><path class="o" d="M-9.52-21.33c0,.14,.01,.29,.01,.43V189.16H222.06V-21.33H-9.52Z"/><path class="k" d="M-9.54-22.02c.01,.37,.03,.75,.03,1.12V172.72H222.06V-22.02H-9.54Z"/><g><path class="i" d="M160.51,94.79c-.38-.56-1.24-1.21-2.83-1.98,0,0-10.98-3.79-17.61,0-5.63,3.7,.15,5.27,3.94,5.13,5.85-.06,13.01-.46,13.01-.46,0,0,2.67-.38,3.49-1.4v-1.29Z"/><path class="i" d="M42.01,63.45s-16.14-5.57-25.87,0c-8.27,5.43,.22,7.75,5.79,7.54,8.6-.08,19.12-.68,19.12-.68,0,0,11.67-1.67,.96-6.86Z"/><path class="i" d="M222.06,127.74c-2.38-.33-4.76,.04-6.62,1.15-4.13,2.45-3.86,7.35-3.84,7.63-2.66-3.21-7.22-4.74-11.49-3.89-3.9,.78-6.96,3.44-7.96,6.87-2.23-1.94-5.47-2.32-7.63-1.08-.02,.01-.03,.03-.05,.04-.08-.12-.16-.25-.25-.37-.85-1.15-1.9-2.22-2-2.31-.72-.73-9.35-9.21-16.1-6.5-2.07,.83-3.43,2.49-4.32,4.14-1.82-.77-4.04-.81-6.44,.54-.77-.21-1.58-.35-2.42-.39-1.08-.05-2.06,.07-2.92,.28-.66-.44-1.46-.83-2.42-1.03-1.05-.21-2.14-.15-3.2,.11-.52-.85-1.31-1.73-2.52-2.46-3.43-2.07-8.79-2.13-13,.04-1.14-3.85-5.32-6.75-10.29-7.22-5.87-.56-11.77,2.38-13.4,6.98-5.49-4.19-13.77-4.68-18.81-1.79-5.43,3.11-4.66,8.74-4.61,9.06-3.88-3.51-10.23-4.97-15.98-3.69-5.24,1.17-9.21,4.44-10.29,8.47-3.2-2.09-7.64-2.29-10.48-.72-2.83,1.56-2.92,4.25-2.92,4.61-.87-.08-3.33-.22-5.89,.83-3.3,1.36-4.33,3.7-4.54,4.21,.26-6.71-7.32-6.79-11.65-4.7,3.11-4.48-8.12-15.84-18.96-5.18-.38-.47-2.64-3.19-6.81-3.68-1.25-.15-2.53-.07-3.77,.19v34.88c43.61-.93,91.74,.92,135.9,.77,18.87-.06,32.08-.1,50.37,.27,4.9-.95,6.82-2.56,11.71-3.52,.16-1.13,.36-3.56,.44-6.64,11.05-.43,22.09-.84,33.14-1.18v-34.73Z"/></g><rect class="l" x="-9.51" y="163.72" width="231.57" height="46.22"/></g></g></g></g><path class="h" d="M144.43,.16H28.37C12.8,.16,.14,12.82,.14,28.38v116.06c0,17.06,13.88,30.95,30.95,30.95h113.34c17.07,0,30.95-13.88,30.95-30.95V31.11C175.38,14.04,161.49,.16,144.43,.16Zm25.95,144.29c0,14.33-11.62,25.95-25.95,25.95H31.09c-14.33,0-25.95-11.62-25.95-25.95V30.25c0-13.86,11.24-25.1,25.1-25.1h114.19c14.33,0,25.95,11.62,25.95,25.95v113.34Z"/></svg>