<?xml version="1.0" encoding="UTF-8"?><svg xmlns="http://www.w3.org/2000/svg" viewBox="0 0 131.13 217.56"><defs><style>.b{fill:#fff;}.c{fill:#b4c737;}.d{opacity:.3;}.d,.e{fill:#d8e684;}.f{opacity:.5;}.g,.h,.i,.j{mix-blend-mode:multiply;}.g,.h,.k{fill:#bfcfd6;}.l{fill:#afbc31;}.m{isolation:isolate;}.h{opacity:.53;}.i,.n{fill:#c0ce3c;}.o{opacity:.49;}.p{fill:#d3dee2;}.e{opacity:.22;}.q{fill:#dfddda;}</style></defs><g class="m"><g id="a"><g><path class="f" d="M23.01,214.56c-8.27,0-15.01-6.73-15.01-15.01V88.71c0-4.08,3.32-7.41,7.41-7.41h4.38v-4.52c0-5.32,4.23-9.68,9.51-9.88l-3.63-28.3c-1.22-9.55,4.63-18.97,13.62-21.91,2.18-.71,4.49-1.42,6.86-2.1,15.14-4.33,30.4-6.54,45.36-6.6,4.27,0,8.26,1.81,11.27,5.08,4.03,4.38,6.06,11.28,5.44,18.45l-3.06,35.36h.79c3.74,0,6.97,2.03,8.64,5.06,.06,.02,.11,.04,.17,.05h.38c2.53,0,4.62,1.88,4.96,4.32h.53c2.76,0,5,2.24,5,5v1.33c.45,.47,.8,1.02,1.04,1.61,.95,1.26,1.48,2.81,1.48,4.44v110.84c0,8.27-6.73,15.01-15.01,15.01H23.01ZM85.68,66.89l3.2-37.03c.08-.99,.02-1.8-.08-2.42-5.68,.14-11.51,.65-17.38,1.52-8.17,1.46-17.4,3.66-26.05,6.21-.18,.2-.46,.74-.46,1.01l3.94,30.71h36.83Z"/><path class="b" d="M18.01,209.56c-8.27,0-15.01-6.73-15.01-15.01V83.71c0-4.08,3.32-7.41,7.41-7.41h4.38v-4.52c0-5.32,4.23-9.68,9.51-9.88l-3.63-28.3c-1.22-9.55,4.63-18.97,13.62-21.91,2.18-.71,4.49-1.42,6.86-2.1,15.14-4.33,30.4-6.54,45.36-6.6,4.27,0,8.26,1.81,11.27,5.08,4.03,4.38,6.06,11.28,5.44,18.45l-3.06,35.36h.79c3.74,0,6.97,2.03,8.64,5.06,.06,.02,.11,.04,.17,.05h.38c2.53,0,4.62,1.88,4.96,4.32h.53c2.76,0,5,2.24,5,5v1.33c.45,.47,.8,1.02,1.04,1.61,.95,1.26,1.48,2.81,1.48,4.44v110.84c0,8.27-6.73,15.01-15.01,15.01H18.01ZM80.68,61.89l3.2-37.03c.08-.99,.02-1.8-.08-2.42-5.68,.14-11.51,.65-17.38,1.52-8.17,1.46-17.4,3.66-26.05,6.21-.18,.2-.46,.74-.46,1.01l3.94,30.71h36.83Z"/><g><path class="k" d="M35.84,16.45c-6.64,2.17-11.13,9.43-10.22,16.52l4.5,35.08,9.32-1.2-4.5-35.08c-.33-2.54,1.53-5.64,3.82-6.39,1.25-.41,2.5-.78,3.75-1.16V14.4c-2.23,.64-4.45,1.31-6.67,2.04Z"/><path class="l" d="M24.68,66.89H100.94c2.7,0,4.89,2.19,4.89,4.89v25.4H19.79v-25.4c0-2.7,2.19-4.89,4.89-4.89Z"/><path class="k" d="M94.09,11.47c-2.05-2.24-4.73-3.47-7.55-3.47h-.01c-14.54,.05-29.31,2.21-44,6.4v9.82c14.71-4.46,29.51-6.77,44.03-6.82,.21,0,.53,.33,.62,.42,1.07,1.16,2,3.92,1.7,7.47l-4.51,52.18,9.37,.81,4.51-52.18c.5-5.8-1.05-11.27-4.14-14.64Z"/><path class="h" d="M93.17,28.9c.41-5.22,.82-11.7-1.71-14.73-1.68-2.01-5.56-1.56-7.87-1.56,0,0,0,0-.01,0-34.69,4.35-40.45,8.96-42.05,9.52l-4.38,3.78c14.71-4.46,35.07-9.08,49.59-9.13,.21,0,.53,.33,.62,.42,1.07,1.16,2,3.92,1.7,7.47l-4.38,50.74,4.81,.46,3.7-46.97Z"/><g><rect class="c" x="8" y="91.63" width="110.13" height="53.69"/><rect class="g" x="8" y="91.63" width="110.13" height="2.41"/><path class="k" d="M10.41,81.31H115.73c1.33,0,2.41,1.08,2.41,2.41v7.92H8v-7.92c0-1.33,1.08-2.41,2.41-2.41Z"/><rect class="p" x="17.72" y="81.31" width="48.53" height="9.64"/><g class="j"><path class="q" d="M104.84,114.28h-15.49c-6.58,0-11.94-5.36-11.94-11.94l.02-21.38,39.58,.17-.24,21.21c0,6.58-5.36,11.94-11.94,11.94Zm-21.62-30.98v19.04c0,3.38,2.75,6.13,6.13,6.13h15.49c3.38,0,6.13-2.75,6.13-6.13v-19.04h-27.75Z"/></g><path class="q" d="M103.68,113.12h-15.49c-6.58,0-11.94-5.36-11.94-11.94v-24.84h39.36v24.84c0,6.58-5.36,11.94-11.94,11.94Zm-21.62-30.98v19.04c0,3.38,2.75,6.13,6.13,6.13h15.49c3.38,0,6.13-2.75,6.13-6.13v-19.04h-27.75Z"/><rect class="n" x="82.25" y="72.01" width="27.88" height="11.87"/><rect class="n" x="82.25" y="131.25" width="27.88" height="11.87"/><rect class="i" x="82.25" y="74.34" width="27.88" height="11.87"/><rect class="n" x="82.25" y="72.01" width="27.88" height="11.87"/><rect class="d" x="83.29" y="71.67" width="25.81" height="4.99" rx="1.41" ry="1.41"/><g class="o"><path class="b" d="M103.33,111.29h-15.49c-5.62,0-10.2-4.57-10.2-10.2h2.32c0,4.34,3.53,7.87,7.87,7.87h15.49v2.32Z"/></g><g class="o"><rect class="b" x="111.72" y="86.47" width="2.32" height="16.35"/></g><rect class="e" x="19.1" y="96.1" width="43.02" height="47.84"/></g><g><path class="c" d="M8,150.87H118.13v43.68c0,5.52-4.48,10.01-10.01,10.01H18.01c-5.52,0-10.01-4.48-10.01-10.01v-43.68h0Z"/><rect class="g" x="8" y="150.87" width="110.13" height="2.41"/><path class="k" d="M10.41,140.55H115.73c1.33,0,2.41,1.08,2.41,2.41v7.92H8v-7.92c0-1.33,1.08-2.41,2.41-2.41Z"/><rect class="p" x="17.72" y="140.55" width="48.53" height="9.64"/><g class="j"><path class="q" d="M104.84,173.52h-15.49c-6.58,0-11.94-5.36-11.94-11.94l.02-21.38,39.58,.17-.24,21.21c0,6.58-5.36,11.94-11.94,11.94Zm-21.62-30.98v19.04c0,3.38,2.75,6.13,6.13,6.13h15.49c3.38,0,6.13-2.75,6.13-6.13v-19.04h-27.75Z"/></g><path class="q" d="M103.68,172.36h-15.49c-6.58,0-11.94-5.36-11.94-11.94v-24.84h39.36v24.84c0,6.58-5.36,11.94-11.94,11.94Zm-21.62-30.98v19.04c0,3.38,2.75,6.13,6.13,6.13h15.49c3.38,0,6.13-2.75,6.13-6.13v-19.04h-27.75Z"/><rect class="i" x="82.25" y="133.58" width="27.88" height="11.87"/><rect class="n" x="82.25" y="131.25" width="27.88" height="11.87"/><rect class="d" x="83.29" y="130.91" width="25.81" height="4.99" rx="1.41" ry="1.41"/><path class="b" d="M103.33,170.53h-15.49c-5.62,0-10.2-4.57-10.2-10.2h2.32c0,4.34,3.53,7.87,7.87,7.87h15.49v2.32Z"/><rect class="b" x="111.72" y="145.71" width="2.32" height="16.35"/><rect class="e" x="19.1" y="155.34" width="43.02" height="47.84"/></g></g></g></g></g></svg>