<?xml version="1.0" encoding="UTF-8"?><svg id="a" xmlns="http://www.w3.org/2000/svg" viewBox="0 0 191.52 303.87"><defs><style>.b,.c{fill:#a1c5ce;}.d{fill:#fff;}.e{fill:#efbdb4;}.f,.c{stroke:#755339;}.f,.c,.g,.h,.i,.j{stroke-miterlimit:10;}.f,.k{fill:#f9dad2;}.l{opacity:.5;}.m{fill:#2b1c1c;}.n{fill:#342517;}.o{fill:#d67233;}.p{fill:#381515;}.q{fill:#755339;}.r{fill:#b26b51;}.g{stroke:#73459b;}.g,.s{fill:#b8a0ca;}.h{fill:#e6ddc0;stroke:#9b8b5c;}.t{fill:#73459b;}.i{fill:none;stroke:#d67233;}.j{fill:#fad2c7;stroke:#443222;stroke-width:.5px;}.u{fill:#bc7e97;}.v{fill:#fa9a3a;}</style></defs><path class="l" d="M126.37,300.87c-9.65,0-10.68-5.85-10.77-7.65-.22-4.66,3.35-8.66,5.39-10.54l5.52-15.36c-1.58-3.58-3.8-8.84-6.12-14.36-.47-1.11-.94-2.23-1.41-3.35-10.69-1.08-18.86-6.95-23.76-11.59-.25,.32-.54,.62-.87,.87l-6.22,4.84c-.9,.7-1.98,1.05-3.07,1.05-.85,0-1.7-.22-2.47-.65-.27-.15-.52-.33-.75-.52-.05,5.7-.37,12.45-.96,20.18,5.25,10.47,6.2,14.19,4.42,17.27-.81,1.41-2.32,4.02-16.3,6.11-6.77,2.17-11.79,2.65-15.48,3.01-1.4,.13-2.6,.25-3.49,.43-1.81,.36-3.35,.54-4.72,.54-4.19,0-6.23-1.79-7.21-3.3-1.43-2.21-1.17-4.7-.46-6.29,.53-1.19,1.5-2.12,2.71-2.6,9.1-3.63,15.88-8.44,19.6-11.33-2.33-5.66-6.4-16.05-8.16-23.62-4.97-3.96-8.03-11.78-8.66-13.5-.04-.1-.07-.21-.1-.31-3.78-12.92,6.24-38.06,15.41-57.05,1.05-3.85,3.23-10.37,4.45-13.95,0-.03,0-.05,0-.08-.15-.25-.31-.51-.47-.78-1.73-2.88-.47-5.96,.75-8.93,.23-.55,.56-1.37,.77-1.96l-.17-.45c-2.15-5.55-6.78-17.49-9.84-28.68l-13.92,5.13c-.56,.21-1.15,.31-1.72,.31-.3,0-.6-.03-.9-.08-7.86,3.88-16.99,6.2-19.15,6.44-.34,.04-.67,.05-.97,.05-2.97,0-5.24-1.49-6.74-4.42-.03-.06-.06-.12-.09-.17-.38-.55-.71-1.21-1-1.96-.14-.24-.27-.49-.38-.75-3.47-8.68,1.53-20.63,14.87-35.53-.17-3.58,.46-7.69,3.48-10.47,.77-.71,1.68-1.85,2.56-2.95,1.87-2.35,4.09-5.14,7.09-6.32-3.14-1.97-4.32-4.83-4.99-7.21-.77-2.72-.28-4.77,.38-6.12-1.31-1.44-2.42-3.36-2.53-5.8-.14-3.2,1.47-6.08,4.78-8.58,.04-1.43,.03-3.32-.18-5.17-.29-1.14-.62-1.92-.62-1.93-.21-.5-.35-1.05-.39-1.59-.23-3.09,.07-6,.91-8.66,.09-.86,.41-1.69,.93-2.4,3.23-6.95,9.37-9.56,11.09-10.18,.42-.18,.86-.34,1.32-.47h0c.19-.07,.39-.13,.59-.17,.23-.05,5.82-1.3,12.69-1.3,7.95,0,14.39,1.62,19.17,4.83,.75-.06,1.31-.07,1.56-.07,.72,0,1.45,.16,2.1,.46,3.29,1.51,5.37,3.65,6.19,6.34,.74,2.46,.17,4.79-.65,6.22,1.41,1.53,2.25,3.54,2.46,5.88,4.45,2.41,9.57,4.6,12.24,4.6,.04,0,.07,0,.11,0,1.89,0,3.65,1.06,4.5,2.75,.87,1.72,.71,3.79-.47,5.31-.01,.02-1.16,1.54-2.25,3.77,43.56,11.1,67.9,49.15,74.2,60.28,.1,0,.21,0,.31,0,5.19,0,7.05,2.35,7.69,4.33,1.46,4.44-2.86,7.61-4.28,8.65-1.31,.96-3.1,2.5-5.17,4.29-8.67,7.47-21.78,18.77-35.13,18.77h0c-.78,0-1.54-.04-2.3-.12,3.99,17.73,5.72,37.17,5.81,38.13,.15,1.66-.55,3.25-1.79,4.28l.43,21.28,1.65,2.88c.48,.83,.7,1.78,.65,2.74-.02,.33-.43,7.9-2.6,15.82,1.41,8.57,.96,16.23,.59,22.44-.16,2.71-.3,5.15-.25,7.11,2,1.46,4.86,4.33,4.35,9.71-1.17,12.33-2.27,19.77-3.46,23.42-2.16,6.62-15.86,8.78-20.34,8.78Z"/><path class="d" d="M121.37,295.87c-9.65,0-10.68-5.85-10.77-7.65-.22-4.66,3.35-8.66,5.39-10.54l5.52-15.36c-1.58-3.58-3.8-8.84-6.12-14.36-.47-1.11-.94-2.23-1.41-3.35-10.69-1.08-18.86-6.95-23.76-11.59-.25,.32-.54,.62-.87,.87l-6.22,4.84c-.9,.7-1.98,1.05-3.07,1.05-.85,0-1.7-.22-2.47-.65-.27-.15-.52-.33-.75-.52-.05,5.7-.37,12.45-.96,20.18,5.25,10.47,6.2,14.19,4.42,17.27-.81,1.41-2.32,4.02-16.3,6.11-6.77,2.17-11.79,2.65-15.48,3.01-1.4,.13-2.6,.25-3.49,.43-1.81,.36-3.35,.54-4.72,.54-4.19,0-6.23-1.79-7.21-3.3-1.43-2.21-1.17-4.7-.46-6.29,.53-1.19,1.5-2.12,2.71-2.6,9.1-3.63,15.88-8.44,19.6-11.33-2.33-5.66-6.4-16.05-8.16-23.62-4.97-3.96-8.03-11.78-8.66-13.5-.04-.1-.07-.21-.1-.31-3.78-12.92,6.24-38.06,15.41-57.05,1.05-3.85,3.23-10.37,4.45-13.95,0-.03,0-.05,0-.08-.15-.25-.31-.51-.47-.78-1.73-2.88-.47-5.96,.75-8.93,.23-.55,.56-1.37,.77-1.96l-.17-.45c-2.15-5.55-6.78-17.49-9.84-28.68l-13.92,5.13c-.56,.21-1.15,.31-1.72,.31-.3,0-.6-.03-.9-.08-7.86,3.88-16.99,6.2-19.15,6.44-.34,.04-.67,.05-.97,.05-2.97,0-5.24-1.49-6.74-4.42-.03-.06-.06-.12-.09-.17-.38-.55-.71-1.21-1-1.96-.14-.24-.27-.49-.38-.75-3.47-8.68,1.53-20.63,14.87-35.53-.17-3.58,.46-7.69,3.48-10.47,.77-.71,1.68-1.85,2.56-2.95,1.87-2.35,4.09-5.14,7.09-6.32-3.14-1.97-4.32-4.83-4.99-7.21-.77-2.72-.28-4.77,.38-6.12-1.31-1.44-2.42-3.36-2.53-5.8-.14-3.2,1.47-6.08,4.78-8.58,.04-1.43,.03-3.32-.18-5.17-.29-1.14-.62-1.92-.62-1.93-.21-.5-.35-1.05-.39-1.59-.23-3.09,.07-6,.91-8.66,.09-.86,.41-1.69,.93-2.4,3.23-6.95,9.37-9.56,11.09-10.18,.42-.18,.86-.34,1.32-.47h0c.19-.07,.39-.13,.59-.17,.23-.05,5.82-1.3,12.69-1.3,7.95,0,14.39,1.62,19.17,4.83,.75-.06,1.31-.07,1.56-.07,.72,0,1.45,.16,2.1,.46,3.29,1.51,5.37,3.65,6.19,6.34,.74,2.46,.17,4.79-.65,6.22,1.41,1.53,2.25,3.54,2.46,5.88,4.45,2.41,9.57,4.6,12.24,4.6,.04,0,.07,0,.11,0,1.89,0,3.65,1.06,4.5,2.75,.87,1.72,.71,3.79-.47,5.31-.01,.02-1.16,1.54-2.25,3.77,43.56,11.1,67.9,49.15,74.2,60.28,.1,0,.21,0,.31,0,5.19,0,7.05,2.35,7.69,4.33,1.46,4.44-2.86,7.61-4.28,8.65-1.31,.96-3.1,2.5-5.17,4.29-8.67,7.47-21.78,18.77-35.13,18.77h0c-.78,0-1.54-.04-2.3-.12,3.99,17.73,5.72,37.17,5.81,38.13,.15,1.66-.55,3.25-1.79,4.28l.43,21.28,1.65,2.88c.48,.83,.7,1.78,.65,2.74-.02,.33-.43,7.9-2.6,15.82,1.41,8.57,.96,16.23,.59,22.44-.16,2.71-.3,5.15-.25,7.11,2,1.46,4.86,4.33,4.35,9.71-1.17,12.33-2.27,19.77-3.46,23.42-2.16,6.62-15.86,8.78-20.34,8.78Z"/><g><g><g><g><path class="f" d="M127.85,259.49l-7.59,21.12s-4.83,3.81-4.66,7.38c.28,5.99,20.11,1.38,21.36-2.44,1.25-3.83,2.35-12.98,3.24-22.34,.48-5.03-3.84-5.54-4.62-6.94"/><path class="j" d="M122.57,284.07s-2.95,3.43-2.55,6.56"/><path class="j" d="M126.18,284.62s-2.27,2.68-1.87,5.81"/><path class="j" d="M129.07,285.2s-1.62,1.22-1.23,4.35"/><path class="j" d="M132.64,285.03s-.94,.47-.54,3.6"/></g><path class="f" d="M128.09,264.49c-2.17-3.5-16.96-40.71-19.24-43.47,0,0,8.38-49.79,24.11-5.86,6.78,18.95,1.16,35.59,3.43,43.2,0,0,2.24,2.04,.92,4.25"/></g><path class="f" d="M61.13,264.41c1.94-2.7-7.33,7.58-23.92,14.19,0,0-1.71,3.81,6.84,2.1,3.78-.76,9.59-.4,18.81-3.42,0,0,11.97-1.75,13.11-3.72,1.14-1.97-5.23-13.68-5.18-13.81,2.9-36.61-1.09-39.46-1.09-39.46,0,0-18.81,4.17-18.81,12.34s10.24,31.77,10.24,31.77Z"/><g><g><path class="h" d="M60.58,165.01s-22.39,42.89-17.75,58.77c0,0,4.01,10.99,9.2,12.47,5.19,1.47,25.08-10.26,25.08-10.26l7.98-55.28-21.54-3.42-2.97-2.28Z"/><path class="h" d="M58.06,226.61c6.27,.62,18.08-10.54,18.55-27.52"/><path class="h" d="M58.17,212.84s16.69-8.84,21.75-25.07"/></g><g><path class="h" d="M88.74,175.11s-12.24,38.41,.33,49.18c0,0,13.68,19.38,34.77,14.82,12.81-2.77,14.25-30.78,14.25-30.78l-2.28-3.99-.57-28.5-25.06-10.64-19.91,8.91-1.53,1Z"/><path class="h" d="M115.29,226.56s16.53,1.71,20.52-22.23"/><path class="h" d="M113.01,199.21s16.53,1.71,20.52-22.23"/><path class="h" d="M91.55,185.95s3.22,18.39,14.05,31.5"/><path class="h" d="M90.78,192.37s-1.71,18.81,9.12,31.92"/></g><g><path class="h" d="M92.49,178.12l-6.22,51.82-6.22,4.84s.91-7.21,3.25-8.16c0,0-10.72,.43-12.99-1.53,0,0,7.47-4.26,9.75-4.4,0,0-10.49-2.47-12.98-1.7l11.16-48.86"/><path class="h" d="M81.67,220.81s.02-16.61,.26-19.57"/><path class="h" d="M84.82,226.28s-1.25-11.1-.27-20.27"/></g></g></g><g><path class="f" d="M72.72,66.06s2.01,7.38,4.87,8.86c0,0,7.53,8.3-10.03,17.48,0,0-13.97-.72-11.79-12.15,0,0,2.64-2.1,1.46-6.4,0,0,4.64-17.26,15.49-7.79Z"/><path class="e" d="M58.39,71.16l-1.21,9.18c14.64,5.15,19.74-4.94,19.74-4.94l-3.26-5.61"/></g><g><path class="f" d="M19.09,99.95s-10.08,4.6-10.52,8.61c-.57,5.22,.33,8.26,1.01,9.2s.86,2.64,3.13,2.39c2.27-.25,17.52-4.28,24.5-10.41l-6.85-16.75-11.27,6.97Z"/><path class="g" d="M56.59,105.17l-23.3,8.59s-5.97-10.5-6.15-20.09c0,0,8.08-5.88,26.6-13.57"/></g><path class="f" d="M22.96,110.87c2.28-2.28,5.42-19.65,6.84-22.23,1.94-3.5,.57-11.4-5.7-4.56-2.67,2.91-19.71,21.12-15.39,31.92"/><path class="o" d="M46.9,82.94c-5.13-3.99-11.97,0-16.53,7.98-4.69,8.21-9.69-2.28-5.7-3.42s4.71-9.34,5.7-13.11c.99-3.77,15.99-16.57,15.99-16.57,0,0,19.03,10.35,22.76,15.43"/><g><path class="f" d="M24.39,85.43s-1.71-7.01,1.42-9.89,5.96-8.51,9.25-8.53c3.29-.02,6.33,1.91,6.79,4.94,1.06,7.01-3.29,3.23-2.93,3.59,1.14,1.14,.08,4.96-1.71,3.99,0,0,1.12,4.21-2.28,3.42,0,0-.17,2.98-1.96,1.99-2.6-1.42-4.88-4.27-4.88-4.27"/><path class="q" d="M34.81,69.75c1.71,1.25,3.37,2.82,4.34,4.74,.28,.68,.44,1.42,.38,2.17l-.1,.03c-.91-1.15-1.47-2.29-2.15-3.55-.72-1.17-1.57-2.29-2.54-3.31l.06-.08h0Z"/><path class="q" d="M33.11,73.18c1.54,1.33,3,2.94,3.85,4.81,.24,.66,.36,1.37,.3,2.09l-.1,.03c-.89-1.1-1.39-2.24-1.95-3.49-.61-1.17-1.34-2.31-2.17-3.37l.07-.07h0Z"/><path class="q" d="M30.82,76.59c1.58,1.1,3.07,2.59,3.89,4.35,.23,.62,.35,1.3,.27,1.99l-.1,.03c-.86-1.03-1.33-2.08-1.9-3.25-.61-1.09-1.35-2.13-2.22-3.04l.06-.08h0Z"/></g><g><path class="k" d="M33.79,86.36l6.76-1.96s5.96-3.28,4.07-8.3c-1.89-5.02-3.99,1.71-3.99,1.71,0,0-.3,4.16-2.43,4.64"/><path class="q" d="M33.78,86.32s6.89-2.19,6.66-2.12c2.36-1.47,4.69-4.12,4.03-7.07-.16-.65-.83-2.5-1.47-2.35-.86,.34-1.68,2.57-1.94,3.07-.28,1.76-.85,4.22-2.85,4.66l-.02-.1c1.73-.81,1.82-3.07,2.03-4.72,.53-2.3,2.78-6.17,4.58-2.36,1.82,3.82-.85,7.53-4.18,9.31l-6.82,1.78-.03-.1h0Z"/></g><g><path class="g" d="M51.74,80.95l4.27-1.99c5.13,21.66,21.41-4,21.41-4,0,0,.53-.84,4.52-1.31,14.41-1.67,29.92,28.67,40.75,42.92,10.29,13.54,14.47,61.27,14.47,61.27,0,0-25.29,12.82-42.96,2.56-19.85-11.53-36.48-8.55-36.48-8.55,.25-2.75,5.7-18.39,5.7-18.39,0,0,0,.15-1.71-2.7-.87-1.45,2.98-7.31,2.29-9.1-2.86-7.43-13.12-33.07-13.12-46.18"/><g><path class="s" d="M91.35,149.06s-23.05-5.08-28.5,5.7"/><path class="t" d="M91.35,149.06c-8.57-.83-23.12-2.6-28.5,5.7,.49-1.2,1.29-2.27,2.23-3.18,6.82-5.8,18.17-4.58,26.27-2.52h0Z"/></g><g><path class="s" d="M94.2,129.11s-18.81,18.81-29.44,11.84"/><path class="t" d="M94.2,129.11c-6.12,6.49-16.06,14.72-25.54,13.51-1.41-.27-2.78-.81-3.9-1.68,9.29,4.87,22.44-6.24,29.44-11.84h0Z"/></g><g><path class="s" d="M105.41,161s19.52-25.93,16.15-43.86"/><path class="t" d="M105.41,161c7.3-11.61,14.72-24.05,16.24-37.92,.18-1.97,.15-3.96-.09-5.94,3.04,14.59-7.41,32.67-16.15,43.86h0Z"/></g></g><path class="v" d="M172.37,108.6s-28.29-56.71-85.29-62.98c-33.44-3.68-17.9,18.3-10.26,28.5,1.71,2.28,4.38,7.22,4.38,7.22,0,0,1.32,5.89-10.65,7.6-6.21,.89,5.7,12.54,9.12,9.12,3.42-3.42,5.13-13.11,5.13-13.11l18.24,22.8s9.99,4.76,16.53,7.41c6.55,3.13,5.41,5.41,9.4,16.24,16.53,11.4,38.47-12.82,47.02-19.09,7.3-5.36-3.62-3.7-3.62-3.7Z"/><path class="o" d="M108.45,77.82c-5.09-.03-10.28,.16-14.92,2.49,3.92-3.58,10.02-3.93,14.92-2.49h0Z"/><path class="o" d="M171.71,108.4c-3.6,.41-6.98,.39-10.54,1.08,3.06-2.01,7.12-2.06,10.54-1.08h0Z"/><path class="o" d="M159.27,117.37c5.05-.61,10.18-1.46,14.48-4.35-3.44,4.05-9.44,5.16-14.48,4.35h0Z"/><path class="o" d="M84.4,77.23c.05-4.29-.25-8.49-2.45-12.24,3.42,2.9,3.94,8.21,2.45,12.24h0Z"/><path class="i" d="M95.91,78.96s29.64,0,68.39,29.64"/><g><path class="f" d="M126.12,125.12s1.14-16.53-15.1-27.07c-15.74-10.22-13.8,2.42-13.8,2.42l16.41,18.8"/><path class="g" d="M122.7,109.73s-8.83-7.2-15.3-3.89c-13.19,6.74-17.18-26.31-17.18-26.31,0,0,7.59-1.19,16.53,4.56,8.94,5.75,15.96,25.65,15.96,25.65Z"/><g><path class="f" d="M117.66,110.59c-3.45-3.06-8.25-6.42-14.91-9.97-8.55-4.56-8.5-6.29-8.55-7.41s-.89-17.06-.89-17.06c0,0-4.97-5.1-8.59-3.42,0,0-1.92,1.68-1.73,3.42,0,0-2.43,.34-2.45,2.43,0,0-2.92,1.81-2.04,3.66,0,0-2.44,2.06-1.4,4.13,0,0-.53,1.29,1.1,0,2.89-2.28,5.18,2.42,5.16,2.28s.19,5.21,1.14,8.55c.95,3.34,4.21,2.82,4.39,3.41,.17,.58,3.73,2.86,7.36,9.99,3.64,7.12,12.64,21.43,21.31,21.94,0,0,6.27,2.28,7.79-1.14,0,0,.75-2.66,.75-6.27"/><g><path class="k" d="M89.07,77.25s-2.28-1.71-6.27-1.14"/><path class="q" d="M89.04,77.29c-2.23-.07-4.16-.27-6.23-1.13v-.1c2.13-.34,4.46-.09,6.29,1.15l-.06,.08h0Z"/></g><g><path class="k" d="M87.93,80.1s-3.32-1.65-7.34-1.47"/><path class="q" d="M87.91,80.14c-2.39-.94-4.92-.6-7.32-1.47v-.1c1.24-.59,2.59-.46,3.83-.02,1.24,.35,2.44,.84,3.53,1.5l-.04,.09h0Z"/></g><g><path class="k" d="M85.65,83.51s-3.32-1.65-7.34-1.47"/><path class="q" d="M85.63,83.56c-2.39-.94-4.92-.6-7.32-1.47v-.1c1.23-.59,2.59-.46,3.83-.02,1.24,.35,2.44,.84,3.53,1.5l-.04,.09h0Z"/></g></g></g><g><path class="n" d="M80.19,49.27s6.22,8.14,6.6,10c0,0-.59,4.89-8.64,5.5,0,0-5.81-16.43,2.03-15.5Z"/><path class="f" d="M77.5,32.42s-23.73-19.31-38.09,3.45c0,0-2.38,17.81,7.25,33.27,0,0,12.16,18.08,27.34,2.66,0,0,4.54-3.07,7.05-19.37,0,0,.52-17.95-3.56-20Z"/><g><g><path class="c" d="M81.46,29.3s11.52,7.09,17.86,6.95c0,0-4.65,5.98-5.14,12.67,0,0-8.3-8.49-11.06-6.88l-1.66-12.73Z"/><g><path class="b" d="M97.22,39.13s-6.28-1.69-10.68-3.96"/><path class="q" d="M97.09,39.62c-3.63-1.21-7.21-2.58-10.55-4.44,3.46,1.55,7.13,2.6,10.81,3.48l-.26,.97h0Z"/></g><g><path class="b" d="M95.14,44.19s-3.8-1.61-6.76-4.04"/><path class="q" d="M94.94,44.65c-2.37-1.24-4.6-2.71-6.57-4.5,1.08,.76,2.21,1.43,3.38,2.02,1.17,.59,2.37,1.12,3.58,1.56l-.39,.92h0Z"/></g></g><path class="n" d="M77.25,50.78s.44-6.55-1.37-10.24c0,0-2.22-6.19-1.01-7.68,0,0-9-8.65-18-2.66,0,0-11.41,6.2-17.19,5.47,0,0-2.15,8.84,1.33,19.63,0,0-2.45,.66-7-7.34,0,0-9.52-4.46,.58-10.29,0,0,.69-7.23-.75-12.2,0,0-1.25-12.12,10.65-16.28,0,0,19.34-4.39,29.28,3.76,.11,.09,.22,.18,.32,.27,0,0,4.86,15.73,6.84,17.96,0,0,9.82,5.19,4.09,11.52,0,0-4.71,3.27-4.15,6.61,0,0-1.4,1.72-3.6,1.48Z"/><g><path class="c" d="M76.81,12.76s-4.16-.04-5.66,1.49c0,0-7.04-1.56-10.7-.94,0,0-12.51-6.01-17.13-3.71,0,0-10.78,3.34-9.81,16.22,0,0,3.12,7.1,.31,12.27,0,0,6.5-13.11,31.5-12.6,0,0,13.02,2.39,15.8,6.53,0,0,2.69-6.77-1.69-8.78,0,0-2.03-1.97,.63-4.91,0,0,1.95-3.17-3.26-5.56Z"/><g><path class="b" d="M71.15,14.24s-23.47-5.7-37.64,11.56"/><path class="q" d="M71.15,14.24c-11.71-1.68-24.62,.22-33.89,8.03-1.35,1.06-2.54,2.3-3.75,3.54,8.31-11.56,24.35-15.05,37.64-11.56h0Z"/></g><g><path class="b" d="M34.91,29.42s11.99-15.49,38.12-11.59"/><path class="q" d="M34.91,29.42c7.71-9.7,20.96-13.47,32.97-12.36,1.73,.2,3.44,.48,5.15,.77-1.74-.06-3.45-.25-5.18-.28-11.91-.33-24.42,3.21-32.94,11.87h0Z"/></g><g><path class="b" d="M34.41,18.07s9.23-7.69,16.29-5.78"/><path class="q" d="M34.41,18.07c4.12-4.01,10.41-7.77,16.29-5.78-6-.53-11.29,2.91-16.29,5.78h0Z"/></g></g><path class="u" d="M52.83,67.07s7.4,.55,9.71-1.62c2.31-2.17-5.99-2.6-5.99-2.6l-3.73,4.22Z"/><path class="n" d="M53.04,59.58s-5.46,5.1-1.87,11.11c0,0,2.13-3.28,4.56-6.27,0,0,4.56,0,9.12,1.71,5.03,1.89,5.6,.1,5.6,.1,0,0-4.46-5.8-6.74-6.94-1.46-.73-6.27-2.28-6.27-2.28"/><g><g><g><ellipse class="d" cx="64.01" cy="45.07" rx="4.36" ry="4.48" transform="translate(-.45 89.49) rotate(-69.73)"/><path class="p" d="M59.68,45.83c1.19,5.1,8.69,3.7,7.83-1.35-1.1-4.99-8.64-3.93-7.83,1.35h0Zm-.1,.02c-.95-5.9,7.61-7.24,8.9-1.56,.93,5.9-7.63,7.26-8.9,1.56h0Z"/></g><ellipse class="m" cx="64.14" cy="45.07" rx="2.45" ry="2.25"/></g><ellipse class="d" cx="62.27" cy="44.62" rx=".43" ry=".58" transform="translate(-1.12 87.64) rotate(-69.79)"/></g><g><g><ellipse class="d" cx="46.94" cy="47.71" rx="4.12" ry="3.98" transform="translate(-13.63 19.22) rotate(-20.27)"/><path class="p" d="M51.01,48.41c-1.24,5.64-9.93,4.55-8.98-1.56,1.36-5.81,9.99-4.24,8.98,1.56h0Zm-.1-.02c.83-5.23-6.78-6.34-7.9-1.34-.85,5.23,6.76,6.33,7.9,1.34h0Z"/></g><ellipse class="m" cx="47.95" cy="47.91" rx="2.45" ry="2.25"/><ellipse class="d" cx="45.76" cy="46.89" rx=".43" ry=".58" transform="translate(-14.06 73.63) rotate(-69.79)"/></g><g><path class="k" d="M51.48,43.61s-1.49,9.2,.66,14.27c0,0,2.88,5.24,8.23-1.53,0,0,.78-2.14-.44-4.68"/><path class="q" d="M51.48,43.61c-.21,4.68-.54,9.62,1.11,14.07,.61,1.08,2.29,2.09,3.74,1.45,1.54-.54,2.71-1.77,3.8-2.97,.35-1.03,.4-3.15-.21-4.5,.82,1.44,1.15,3.17,.7,4.81-1.08,1.39-2.28,2.87-3.99,3.51-7.84,2.3-6.19-12.06-5.16-16.38h0Z"/></g><g><g><line class="k" x1="61.83" y1="76.14" x2="60.83" y2="79.15"/><path class="q" d="M61.86,76.16c.31,.66,.25,1.2,.11,1.7-.13,.37-.59,1.2-1.18,1.28,.22-.76,.72-2.27,1-3.01l.07,.02h0Z"/></g><g><line class="k" x1="65.49" y1="75.39" x2="66.96" y2="78.23"/><path class="q" d="M65.53,75.37c.69,.24,1.04,.66,1.3,1.13,.18,.36,.46,1.27,.1,1.75-.4-.69-1.13-2.12-1.46-2.84l.07-.03h0Z"/></g><g><line class="k" x1="63.94" y1="72.72" x2="63.68" y2="75.86"/><path class="q" d="M63.98,72.72c.46,.56,.53,1.1,.5,1.62-.04,.39-.29,1.3-.84,1.51,.03-.78,.16-2.36,.26-3.14h.07Z"/></g><g><line class="k" x1="53.04" y1="71.12" x2="51" y2="73.65"/><path class="q" d="M53.07,71.14c.05,.74-.2,1.23-.52,1.66-.26,.31-.99,.95-1.57,.82,.48-.65,1.5-1.92,2.04-2.53l.06,.05h0Z"/></g><g><line class="k" x1="69.72" y1="74.06" x2="71.18" y2="76.9"/><path class="q" d="M69.75,74.04c.69,.24,1.04,.66,1.3,1.13,.18,.36,.46,1.27,.1,1.75-.4-.69-1.13-2.12-1.46-2.84l.07-.03h0Z"/></g><g><line class="k" x1="73.13" y1="70.52" x2="74.59" y2="73.37"/><path class="q" d="M73.16,70.51c.69,.24,1.04,.66,1.3,1.13,.18,.36,.46,1.27,.1,1.75-.4-.69-1.13-2.12-1.46-2.84l.07-.03h0Z"/></g><g><line class="k" x1="68.52" y1="70.45" x2="71.27" y2="72.32"/><path class="q" d="M68.54,70.42c.74-.11,1.27,.11,1.74,.41,.34,.24,1.05,.92,.98,1.52-.71-.44-2.09-1.38-2.76-1.87l.04-.06h0Z"/></g><g><line class="k" x1="71.15" y1="67.01" x2="73.24" y2="68.43"/><path class="q" d="M71.17,66.98c.63-.18,1.05-.04,1.4,.18,.26,.18,.78,.76,.65,1.3-.54-.32-1.59-1.04-2.09-1.42l.04-.06h0Z"/></g><g><line class="k" x1="75.14" y1="68.1" x2="76.6" y2="70.95"/><path class="q" d="M75.17,68.09c.69,.24,1.04,.66,1.3,1.13,.18,.36,.46,1.27,.1,1.75-.4-.69-1.13-2.12-1.46-2.84l.07-.03h0Z"/></g><g><line class="k" x1="76.85" y1="65.93" x2="79.57" y2="67.85"/><path class="q" d="M76.87,65.9c.74-.09,1.26,.13,1.73,.44,.34,.25,1.03,.94,.95,1.54-.7-.45-2.06-1.41-2.71-1.92l.04-.06h0Z"/></g><g><line class="k" x1="57.7" y1="75.87" x2="56.7" y2="78.88"/><path class="q" d="M57.73,75.89c.31,.66,.25,1.2,.11,1.7-.13,.37-.59,1.2-1.18,1.28,.22-.76,.72-2.27,1-3.01l.07,.02h0Z"/></g><g><line class="k" x1="53.39" y1="73.85" x2="52.39" y2="76.86"/><path class="q" d="M53.42,73.86c.31,.66,.25,1.2,.11,1.7-.13,.37-.59,1.2-1.18,1.28,.22-.76,.72-2.27,1-3.01l.07,.02h0Z"/></g><g><line class="k" x1="47.85" y1="68.94" x2="46.85" y2="71.95"/><path class="q" d="M47.88,68.96c.31,.66,.25,1.2,.11,1.71-.13,.37-.59,1.2-1.18,1.28,.22-.76,.72-2.27,1-3.01l.07,.02h0Z"/></g><g><line class="k" x1="50.37" y1="71.32" x2="49.37" y2="74.32"/><path class="q" d="M50.4,71.33c.31,.66,.25,1.2,.11,1.7-.13,.37-.59,1.2-1.18,1.28,.22-.76,.72-2.27,1-3.01l.07,.02h0Z"/></g><g><line class="k" x1="46.36" y1="66.88" x2="45.37" y2="69.89"/><path class="q" d="M46.4,66.89c.31,.66,.25,1.2,.11,1.7-.13,.37-.59,1.2-1.18,1.28,.22-.76,.72-2.27,1-3.01l.07,.02h0Z"/></g></g><g><path class="f" d="M81.49,45.33c1.01-1.34,2.39-2.68,4.32-2.72,1.93-.04,3.07,1.09,3.09,3.3,.02,2.21-.26,4.02-2.35,5.64-2.08,1.62-4.55,2.07-6.01,1.01"/><path class="r" d="M81.89,51.45c.25-.14,.5-.28,.73-.43,.46-.31,.78-.69,.94-1.11,.16-.42,.15-.86-.06-1.25-.11-.22-.27-.42-.47-.6-.04-.04-.08-.07-.12-.1,.01-.03,.02-.06,.04-.08,.08-.16,.17-.32,.26-.48,.27-.46,.6-.91,.97-1.33,.38-.41,.78-.87,1.46-1.12,.33-.13,.74-.15,1.06-.06,.33,.08,.6,.29,.59,.55-.06-.24-.35-.39-.65-.44-.3-.05-.62-.02-.9,.11-.56,.24-.92,.67-1.29,1.09-.37,.41-.71,.84-1.02,1.28-.12,.16-.23,.33-.33,.5,.27,.17,.49,.38,.64,.62,.26,.41,.31,.92,.14,1.37-.17,.46-.57,.89-1.09,1.2-.26,.15-.53,.28-.81,.4-.27,.12-.6,.23-.92,.19,.32-.02,.59-.15,.84-.29Zm4.95-2.95c.22-.45,.22-.93,.11-1.4-.12-.47-.34-.92-.55-1.38,.33,.42,.62,.86,.79,1.34,.17,.48,.2,1.01-.04,1.51-.24,.5-.72,.93-1.25,1.27-.54,.34-1.13,.62-1.75,.88,.54-.33,1.1-.64,1.58-1,.49-.35,.9-.76,1.11-1.21Z"/></g><g><path class="f" d="M38.88,51.68c-1.35-1.05-3.07-2.01-4.94-1.59-1.87,.42-2.65,1.78-2.04,3.93,.61,2.14,1.4,3.82,3.87,4.88,2.47,1.06,4.98,.9,6.09-.47"/><path class="r" d="M41.14,57.75c-.3,.11-.65,.08-.94,.03-.31-.05-.61-.1-.9-.19-.59-.17-1.1-.49-1.4-.89-.3-.4-.4-.9-.26-1.36,.08-.27,.23-.53,.44-.76-.15-.14-.31-.27-.47-.41-.42-.35-.88-.68-1.35-.99-.47-.31-.95-.64-1.56-.74-.3-.05-.62,0-.9,.11-.28,.12-.51,.33-.5,.58-.08-.24,.12-.51,.42-.67,.28-.16,.69-.24,1.04-.2,.72,.08,1.24,.43,1.73,.73,.48,.32,.93,.67,1.32,1.05,.13,.13,.26,.27,.39,.4,.02,.02,.04,.05,.06,.07-.03,.04-.06,.08-.09,.13-.15,.22-.24,.46-.28,.69-.09,.43,.03,.86,.3,1.22,.27,.37,.69,.66,1.22,.85,.26,.1,.54,.17,.83,.24,.29,.07,.58,.14,.89,.07Zm-5.09-.83c.57,.23,1.19,.4,1.81,.58-.66-.1-1.32-.22-1.94-.43-.61-.2-1.19-.5-1.57-.92-.38-.43-.5-.95-.47-1.45,.03-.5,.18-1,.38-1.48-.07,.49-.16,.99-.13,1.47,.02,.48,.16,.95,.5,1.33,.33,.38,.85,.67,1.42,.9Z"/></g><path class="m" d="M56.87,36.5s1.14,3.52,3.37,3.75c2.23,.23,9.74,1.37,9.74,1.37,0,0-4.73-3.49-7-3.99-2.27-.5-6.11-1.71-6.11-1.71v.57Z"/><path class="m" d="M50.67,36.82s.07,3.7-1.97,4.66c-2.05,.96-7.21,4.13-7.21,4.13,0,0,1.74-4.47,3.74-5.7s5.25-3.64,5.25-3.64l.19,.54Z"/></g></g></g></svg>