<?xml version="1.0" encoding="UTF-8"?><svg id="a" xmlns="http://www.w3.org/2000/svg" viewBox="0 0 234.43 239.79"><defs><style>.b,.c{fill:#8e5542;}.d{fill:#fff;}.c,.e,.f,.g{stroke:#4f251c;}.c,.e,.f,.g,.h{stroke-miterlimit:10;}.i{opacity:.5;}.e,.j{fill:#7c4933;}.k{fill:#6d5341;}.l{fill:#383540;}.m{fill:#663625;}.f{fill:#5b3123;}.g{fill:none;}.n{fill:#33100a;}.h{fill:#e2d3c3;stroke:#63584e;stroke-width:.5px;}.o{fill:#3a1a14;}.p{fill:#7a5f4c;}.q{fill:#32313d;}</style></defs><path class="i" d="M29.37,236.12c-1.26,0-4.7-.35-7.15-3.84-2.23-.45-3.98-2.09-5.25-4.92-1.25-1.69-1.38-4.34-1.49-6.65-.03-.6,.05-1.21,.23-1.78-1.38-2.9-2.42-6.95-1.59-10.94,.79-3.8,3.09-6.75,6.66-8.53,3.6-1.8,9.37-3.25,15.05-4.35-1.49-1.52-2.95-3.1-4.35-4.73-.39-.1-.78-.24-1.17-.42-.74,.32-1.55,.49-2.39,.49-2.6,0-4.64-1.67-5.39-2.39-.09-.09-.18-.18-.26-.27-6.71-7.42-6.06-13.83-4.48-17.74-5.7-11.19-8.83-22.69-9.09-33.42-.25-10.37,2.06-18.13,6.88-23.06,4.79-4.91,10.26-5.05,10.86-5.05,.06,0,.13,0,.19,0,4.24,.16,9.63,1.58,15.01,6.3,.21-5.7,.65-10.55,1.31-14.51-.61-.84-1.14-1.69-1.59-2.53-2.31-.39-4.07-2.34-4.17-4.71l-.08-1.91c-.99-.73-1.71-1.81-1.96-3.07-1.76-8.95-1.53-16.08-1.13-20.1l-.65-.41c-4.25-2.69-6.68-6.16-7.92-9.74-.28-.06-.55-.14-.82-.25-2.43-.96-3.71-3.64-2.93-6.13l.07-.22c-.86-.72-1.47-1.73-1.72-2.86-.52-2.31-.22-5.26,8.68-18,.19-.28,.39-.57,.59-.83,4.21-5.62,9.79-8.91,15.08-10.83-1.29-1.28-1.83-3.2-1.26-5.03,.65-2.12,2.62-3.53,4.77-3.53,.28,0,.55,.02,.83,.07l1.67,.28c.94-1.15,2.36-1.84,3.87-1.84,.36,0,.73,.04,1.09,.12l23.21,5.18c18.19,.02,29.3,19.14,31.58,23.46,10.39,7.21,26.35,22.17,35.19,49.77,10.08,31.49,10.05,72.7,.12,103.94l.17,.1c.2,.1,.4,.19,.6,.28,.21,.1,1.27,.6,1.27,.6,0,0,.38,.14,.52,.19l1.45,.55c1.53,.56,3.22,.95,4.95,1.15,.64,.07,1.29,.11,1.93,.11,2.51,0,4.83-.55,6.91-1.65,2.73-1.42,5.28-3.82,7.38-6.97,.52-.76,.98-1.55,1.52-2.52,.45-.87,.92-1.79,1.31-2.7,.83-1.88,1.54-3.91,2.14-6.08,1.13-4.08,1.82-8.57,2.05-13.37,.42-8.99-.77-18.39-3.55-27.96l-.51-1.71-.56-1.74-.64-2.02c-.15-.46-.3-.99-.45-1.52l-.18-.65c-.86-3.15-1.5-6.23-1.9-9.21-.45-3.35-.63-6.61-.54-9.69,.12-3.53,.56-6.9,1.32-10.03,.41-1.69,.92-3.36,1.53-4.99,.73-1.88,1.45-3.46,2.24-4.9,.9-1.63,1.9-3.16,2.96-4.56,1.19-1.53,2.47-2.9,3.81-4.12,2.89-2.64,6.35-4.64,9.98-5.77,1.7-.54,3.59-.89,5.75-1.07,.03,0,1.3-.08,1.3-.08,.08,0,.16,0,.24,0h.29c.39,0,.78,0,1.17,.02,.08,0,.15,0,.23,.01,.52,.04,1.06,.12,1.64,.22,.63,.11,1.16,.28,1.55,.4,0,0,.31,.1,.37,.12,.48,.17,.95,.35,1.41,.54,19.67,6.71,26.1,29.12,25.62,42.59-.4,11.21-7.29,12.08-9.39,12.08h0c-2.44,0-4.35-.96-4.87-1.26-.15-.09-.31-.18-.45-.29-7.25-5.15-7.85-8.26-8.63-15.4-.26-2.41-.59-5.41-1.33-9.52-.86-4.75-2.59-7.88-4.88-8.85-.33-.06-.63-.1-.9-.1-.51,0-1.13-.01-1.81-.09-.22-.02-.43-.04-.65-.08h-.2c-.15,0-.44,.04-.98,.2-.93,.29-1.9,.86-2.73,1.63-2.03,1.81-3.63,4.79-4.46,8.21-.42,1.74-.67,3.67-.74,5.74-.06,1.9,.06,3.99,.35,6.18,.28,2.05,.72,4.21,1.32,6.39,.04,.15,.11,.39,.18,.64,.08,.29,.16,.58,.25,.86l.58,1.82s.65,2.01,.66,2.05l.6,1.99c3.43,11.85,4.9,23.57,4.37,34.89-.3,6.37-1.24,12.42-2.78,17.99-.86,3.13-1.91,6.11-3.11,8.84-.65,1.52-1.4,3-2.05,4.23-.02,.04-.04,.07-.06,.11-.68,1.23-1.49,2.66-2.46,4.08-.32,.49-.66,.97-1,1.44,0,0-.44,.6-.48,.67l-.33,.42c-.38,.49-.75,.97-1.15,1.44-.99,1.2-2.1,2.38-3.39,3.61-1.08,1.04-2.36,2.1-3.89,3.22-1.33,.96-2.75,1.84-4.36,2.69-1.5,.78-3.08,1.45-4.72,2.02l-.1,.03c-1.72,.56-3.32,.97-4.9,1.24-1.91,.31-3.47,.47-4.96,.49-.27,.01-.54,.02-.81,.02-.31,0-.63,0-.94-.01h-.58c-.12-.01-.24-.02-.35-.03-.2-.02-.4-.03-.6-.04-.52-.03-1.1-.07-1.73-.15-3.14-.36-6.23-1.08-9.17-2.14l-2.31-.88c-.33-.12-.67-.25-1-.41,0,0-1.98-.93-2.2-1.04-.53,.96-1.03,1.8-1.51,2.58-4.18,6.76-11.83,11.27-21.55,12.7-2.19,.39-4.49,.58-6.83,.58-2.03,0-4.13-.15-6.25-.44-5.86-.66-11.87-2.25-17.58-4.66-2.46,3.18-6.93,6.71-13.24,6.71-.59,0-1.19-.03-1.79-.09-1.71-.18-3.74-.45-5.89-.74-5.61-.75-12.6-1.69-19.2-1.69-2.65,0-5.05,.15-7.17,.46l-1.09,1.09-.2,4.97c-.08,2.04-1.39,3.82-3.31,4.51-.36,.13-1.33,.43-2.63,.43Z"/><path class="d" d="M24.37,231.12c-1.26,0-4.7-.35-7.15-3.84-2.23-.45-3.98-2.09-5.25-4.92-1.25-1.69-1.38-4.34-1.49-6.65-.03-.6,.05-1.21,.23-1.78-1.38-2.9-2.42-6.95-1.59-10.94,.79-3.8,3.09-6.75,6.66-8.53,3.6-1.8,9.37-3.25,15.05-4.35-1.49-1.52-2.95-3.1-4.35-4.73-.39-.1-.78-.24-1.17-.42-.74,.32-1.55,.49-2.39,.49-2.6,0-4.64-1.67-5.39-2.39-.09-.09-.18-.18-.26-.27-6.71-7.42-6.06-13.83-4.48-17.74-5.7-11.19-8.83-22.69-9.09-33.42-.25-10.37,2.06-18.13,6.88-23.06,4.79-4.91,10.26-5.05,10.86-5.05,.06,0,.13,0,.19,0,4.24,.16,9.63,1.58,15.01,6.3,.21-5.7,.65-10.55,1.31-14.51-.61-.84-1.14-1.69-1.59-2.53-2.31-.39-4.07-2.34-4.17-4.71l-.08-1.91c-.99-.73-1.71-1.81-1.96-3.07-1.76-8.95-1.53-16.08-1.13-20.1l-.65-.41c-4.25-2.69-6.68-6.16-7.92-9.74-.28-.06-.55-.14-.82-.25-2.43-.96-3.71-3.64-2.93-6.13l.07-.22c-.86-.72-1.47-1.73-1.72-2.86-.52-2.31-.22-5.26,8.68-18,.19-.28,.39-.57,.59-.83,4.21-5.62,9.79-8.91,15.08-10.83-1.29-1.28-1.83-3.2-1.26-5.03,.65-2.12,2.62-3.53,4.77-3.53,.28,0,.55,.02,.83,.07l1.67,.28c.94-1.15,2.36-1.84,3.87-1.84,.36,0,.73,.04,1.09,.12l23.21,5.18c18.19,.02,29.3,19.14,31.58,23.46,10.39,7.21,26.35,22.17,35.19,49.77,10.08,31.49,10.05,72.7,.12,103.94l.17,.1c.2,.1,.4,.19,.6,.28,.21,.1,1.27,.6,1.27,.6,0,0,.38,.14,.52,.19l1.45,.55c1.53,.56,3.22,.95,4.95,1.15,.64,.07,1.29,.11,1.93,.11,2.51,0,4.83-.55,6.91-1.65,2.73-1.42,5.28-3.82,7.38-6.97,.52-.76,.98-1.55,1.52-2.52,.45-.87,.92-1.79,1.31-2.7,.83-1.88,1.54-3.91,2.14-6.08,1.13-4.08,1.82-8.57,2.05-13.37,.42-8.99-.77-18.39-3.55-27.96l-.51-1.71-.56-1.74-.64-2.02c-.15-.46-.3-.99-.45-1.52l-.18-.65c-.86-3.15-1.5-6.23-1.9-9.21-.45-3.35-.63-6.61-.54-9.69,.12-3.53,.56-6.9,1.32-10.03,.41-1.69,.92-3.36,1.53-4.99,.73-1.88,1.45-3.46,2.24-4.9,.9-1.63,1.9-3.16,2.96-4.56,1.19-1.53,2.47-2.9,3.81-4.12,2.89-2.64,6.35-4.64,9.98-5.77,1.7-.54,3.59-.89,5.75-1.07,.03,0,1.3-.08,1.3-.08,.08,0,.16,0,.24,0h.29c.39,0,.78,0,1.17,.02,.08,0,.15,0,.23,.01,.52,.04,1.06,.12,1.64,.22,.63,.11,1.16,.28,1.55,.4,0,0,.31,.1,.37,.12,.48,.17,.95,.35,1.41,.54,19.67,6.71,26.1,29.12,25.62,42.59-.4,11.21-7.29,12.08-9.39,12.08h0c-2.44,0-4.35-.96-4.87-1.26-.15-.09-.31-.18-.45-.29-7.25-5.15-7.85-8.26-8.63-15.4-.26-2.41-.59-5.41-1.33-9.52-.86-4.75-2.59-7.88-4.88-8.85-.33-.06-.63-.1-.9-.1-.51,0-1.13-.01-1.81-.09-.22-.02-.43-.04-.65-.08h-.2c-.15,0-.44,.04-.98,.2-.93,.29-1.9,.86-2.73,1.63-2.03,1.81-3.63,4.79-4.46,8.21-.42,1.74-.67,3.67-.74,5.74-.06,1.9,.06,3.99,.35,6.18,.28,2.05,.72,4.21,1.32,6.39,.04,.15,.11,.39,.18,.64,.08,.29,.16,.58,.25,.86l.58,1.82s.65,2.01,.66,2.05l.6,1.99c3.43,11.85,4.9,23.57,4.37,34.89-.3,6.37-1.24,12.42-2.78,17.99-.86,3.13-1.91,6.11-3.11,8.84-.65,1.52-1.4,3-2.05,4.23-.02,.04-.04,.07-.06,.11-.68,1.23-1.49,2.66-2.46,4.08-.32,.49-.66,.97-1,1.44,0,0-.44,.6-.48,.67l-.33,.42c-.38,.49-.75,.97-1.15,1.44-.99,1.2-2.1,2.38-3.39,3.61-1.08,1.04-2.36,2.1-3.89,3.22-1.33,.96-2.75,1.84-4.36,2.69-1.5,.78-3.08,1.45-4.72,2.02l-.1,.03c-1.72,.56-3.32,.97-4.9,1.24-1.91,.31-3.47,.47-4.96,.49-.27,.01-.54,.02-.81,.02-.31,0-.63,0-.94-.01h-.58c-.12-.01-.24-.02-.35-.03-.2-.02-.4-.03-.6-.04-.52-.03-1.1-.07-1.73-.15-3.14-.36-6.23-1.08-9.17-2.14l-2.31-.88c-.33-.12-.67-.25-1-.41,0,0-1.98-.93-2.2-1.04-.53,.96-1.03,1.8-1.51,2.58-4.18,6.76-11.83,11.27-21.55,12.7-2.19,.39-4.49,.58-6.83,.58-2.03,0-4.13-.15-6.25-.44-5.86-.66-11.87-2.25-17.58-4.66-2.46,3.18-6.93,6.71-13.24,6.71-.59,0-1.19-.03-1.79-.09-1.71-.18-3.74-.45-5.89-.74-5.61-.75-12.6-1.69-19.2-1.69-2.65,0-5.05,.15-7.17,.46l-1.09,1.09-.2,4.97c-.08,2.04-1.39,3.82-3.31,4.51-.36,.13-1.33,.43-2.63,.43Z"/><g><g><path class="e" d="M129.56,152.28c-.8,2.56-1.43,5.14-1.89,7.72-.47,2.57-.77,5.14-.86,7.65-.19,5.01,.62,9.8,2.58,13.26,.47,.87,.78,1.78,1.2,2.67,.12,.21,.23,.43,.36,.64,.13,.21,.23,.43,.39,.62l.89,1.16c1.28,1.49,2.88,2.76,4.64,3.87l1.36,.79c.47,.24,.97,.46,1.45,.69l.73,.35c.24,.12,.51,.2,.76,.3l1.53,.58c2.04,.74,4.11,1.21,6.16,1.44,4.11,.46,8.15-.2,11.74-2.08,3.6-1.86,6.73-4.9,9.21-8.63,.63-.92,1.19-1.91,1.75-2.91,.53-1.02,1.05-2.05,1.51-3.12,.94-2.14,1.71-4.39,2.35-6.7,1.28-4.63,1.98-9.52,2.22-14.46,.47-9.9-.95-19.99-3.74-29.59l-.54-1.8-.57-1.79-.63-2c-.22-.67-.4-1.37-.59-2.05-.75-2.76-1.36-5.59-1.75-8.49-.39-2.9-.59-5.86-.49-8.86,.1-3,.46-6.03,1.18-9.01,.36-1.49,.82-2.97,1.36-4.42,.56-1.44,1.19-2.87,1.94-4.24,.75-1.36,1.6-2.68,2.55-3.93,.96-1.23,2.03-2.39,3.19-3.45,2.32-2.11,5.09-3.76,8.11-4.7,1.51-.48,3.08-.73,4.67-.86l1.2-.07c.4,0,.8,0,1.2,.02,.4,.03,.8,.09,1.19,.16,.4,.07,.78,.2,1.17,.32,3.06,1.06,5.77,2.88,7.87,5.13,2.11,2.25,3.69,4.84,4.82,7.52,2.27,5.37,2.94,10.98,2.87,16.37-.89-2.53-1.86-4.97-3.07-7.23-.3-.56-.58-1.13-.91-1.66l-.47-.81-.51-.78c-.33-.52-.7-1-1.04-1.5-.18-.24-.37-.47-.55-.7-.18-.23-.36-.47-.56-.68l-.58-.65-.6-.61c-.2-.21-.4-.4-.61-.58-.21-.18-.4-.38-.62-.55-.83-.71-1.71-1.3-2.59-1.78-1.76-.98-3.59-1.44-5.3-1.43-.43,0-.84-.01-1.25-.07-.21-.02-.41-.04-.62-.08l-.63-.04c-.84,0-1.69,.18-2.52,.43-1.66,.52-3.27,1.44-4.69,2.74-2.86,2.56-4.91,6.44-5.94,10.73-.52,2.15-.8,4.42-.88,6.73-.07,2.31,.08,4.67,.4,7.02,.32,2.36,.82,4.71,1.46,7.04,.17,.58,.31,1.17,.51,1.75l.56,1.76,.64,1.97,.6,1.99c3.08,10.64,4.7,21.88,4.17,33.22-.27,5.66-1.07,11.35-2.61,16.89-.76,2.77-1.7,5.51-2.87,8.16-.57,1.33-1.22,2.63-1.9,3.92-.71,1.27-1.43,2.54-2.26,3.75-.39,.61-.84,1.2-1.26,1.8-.45,.58-.88,1.17-1.36,1.72-.93,1.13-1.95,2.2-3.01,3.21-1.06,1.02-2.21,1.94-3.39,2.81-1.19,.86-2.45,1.62-3.74,2.31-1.3,.67-2.65,1.24-4.02,1.72-1.38,.45-2.78,.82-4.2,1.07-1.42,.23-2.85,.4-4.27,.42-.71,.04-1.42,0-2.13-.01-.7-.06-1.41-.07-2.1-.17-2.79-.31-5.51-.95-8.09-1.88l-1.92-.73c-.32-.13-.64-.23-.96-.38l-.95-.45c-.63-.3-1.27-.59-1.89-.92l-1.86-1.08c-2.45-1.54-4.84-3.41-6.89-5.81-.5-.62-.98-1.25-1.46-1.89-.47-.65-.87-1.35-1.33-2.02-.23-.33-.43-.69-.62-1.05-.2-.36-.39-.72-.58-1.08-.09-.18-.19-.37-.27-.55-.07-.19-.15-.38-.21-.58-.14-.39-.26-.78-.37-1.18-.78-3.23-.92-6.48-.65-9.52,.3-3.05,.95-5.93,1.88-8.61,.92-2.69,2.08-5.21,3.38-7.58,1.33-2.36,2.78-4.61,4.45-6.62Z"/><path class="e" d="M193.36,81.27s9.85-2.09,12.62,13.2c2.77,15.3,0,16.1,7.93,21.74,0,0,6.46,3.62,6.83-6.64,.37-10.27-4.46-34.33-26.03-38.7"/></g><g><path class="m" d="M48.58,85.25s-7.85-3.32-7.04,39.06-19.76,37.4-19.76,37.4c0,0-10.83,6.65-.81,17.73,0,0,3.79,3.6,2.98-2.77,0,0,5.68,9.14,5.41-.55-.27-9.7,28.96-22.72,28.96-22.72l2.17-57.07-11.91-11.08Z"/><path class="e" d="M49.41,148.14s-6.37-38.78-27.98-39.61c0,0-13.3,0-12.74,22.99,.55,22.99,15.51,49.03,36.57,64.55l16.34,8.03,9.7-9.97-21.89-45.99Z"/><path class="e" d="M24.62,122.79s12.47,12.47,23.69,58.18"/><path class="e" d="M92.35,30.96s29.92,11.22,43.22,52.77c13.3,41.55,7.48,94.74-8.73,120.92-16.21,26.18-94.74,5.4-82.28-67.73,0,0,6.29-25.18,3.32-57.76-2.97-32.58,44.46-48.2,44.46-48.2Z"/><path class="f" d="M85.51,92.9s20.13,11.34,8.97,64.63c-11.16,53.3-37.35,31.98-37.35,31.98,0,0-12.13-12.7-8-30.84,4.12-18.14,6.79-40.37,3.15-54.88-3.64-14.51,27.89-19.5,33.22-10.89Z"/><g><path class="b" d="M77.11,208.16s25.31,15.51,43.77,1.66c8.14-6.11,11.54-14.22,12.81-21.39,1.6-9.09-.25-16.66-.25-16.66-5.91-36.01-16.8-40.82-16.8-40.82l-25.12,32.14-.87,2.71-13.54,42.35Z"/><path class="j" d="M77.11,208.16s25.31,15.51,43.77,1.66c8.14-6.11,11.54-14.22,12.81-21.39-9.48,20.65-13.91-2.62-13.91-2.62,4.16-25.76-1.11-34.07-1.11-34.07l-28.02,14.07-13.54,42.35Z"/><path class="c" d="M60.49,201.14l-14.13-6.46c-2.15-.98-4.53-1.32-6.87-.97-5.66,.84-16.43,2.7-21.48,5.22-7.02,3.51-3.51,12.56-1.57,14.87,1.94,2.31,24.47-5.82,24.47-5.82l17.73,4.25,1.85-11.08Z"/><g><g><path class="b" d="M118.3,149.99s2.31,8.13-2.95,22.81l-1.11-4.43s-3.7,18.48-23.2,32.24c-.48,.34-.96,.67-1.46,1l.55-3.32s-4.43,6.65-14.13,12.47c0,0-3.6,7.2-11.64,6.37s-23.55-3.88-35.18-1.66l-3.6,3.6-.28,6.93s-3.88,1.39-5.26-4.71c0,0-2.22,3.88-4.16-2.77,0,0-.14,2.49-.42-3.05l.97-1.66s0-6.09,16.9-11.64c0,0,6.93-1.39,24.1,4.99,0,0,4.43-9.14,8.31-37.12,3.88-27.98,32.41-36.57,32.41-36.57"/><path class="g" d="M118.3,149.99s2.31,8.13-2.95,22.81l-1.11-4.43s-3.7,18.48-23.2,32.24c-.48,.34-.96,.67-1.46,1l.55-3.32s-4.43,6.65-14.13,12.47c0,0-3.6,7.2-11.64,6.37s-23.55-3.88-35.18-1.66l-3.6,3.6-.28,6.93s-3.88,1.39-5.26-4.71c0,0-2.22,3.88-4.16-2.77,0,0-.14,2.49-.42-3.05l.97-1.66s0-6.09,16.9-11.64c0,0,6.93-1.39,24.1,4.99,0,0,4.43-9.14,8.31-37.12,3.88-27.98,32.41-36.57,32.41-36.57"/></g><g><path class="b" d="M20.6,222.57s-1.48-2.22,1.85-7.39c3.32-5.17,9.79-7.57,9.79-7.57"/><path class="g" d="M20.6,222.57s-1.48-2.22,1.85-7.39c3.32-5.17,9.79-7.57,9.79-7.57"/></g><g><path class="b" d="M15.89,218.5s1.39-6.65,11.91-13.3"/><path class="g" d="M15.89,218.5s1.39-6.65,11.91-13.3"/></g></g><path class="c" d="M15.34,211.3s-5.54-7.48,17.04-12.19"/></g><g><g><path class="b" d="M92.35,78.75c11.22,22.44,8.31,41.14,8.31,41.14-45.29,28.67-57.34,39.06-57.34,39.06,0,0-2.03,1.35-4.14,3.71-.47,.52-.94,1.09-1.4,1.71-2.46,3.33-4.44,7.97-2.59,13.32,3.74,10.8,5.36,6.09,5.36,6.09,3.9,3.41,5.74,3.17,6.6,2.18,.78-.88,.78-2.37,.78-2.37,8.87,1.11,7.76-3.88,7.76-3.88-8.91-2.18-12.67-8.73-9.53-8.89,6.76-.34,6.39-2.74,6.39-2.74,4.43-5.17,2.6-4.05,5.37-4.94,25.36-8.14,48.2-21.86,48.55-22.07l-3.32,7.89,10.39-9.14-3.74,6.24s22.02-6.24,22.02-24.52c0-10.08-4.17-28.5-7.91-42.99-3.04-11.8-5.8-21-5.8-21"/><path class="g" d="M92.35,78.75c11.22,22.44,8.31,41.14,8.31,41.14-45.29,28.67-57.34,39.06-57.34,39.06,0,0-2.03,1.35-4.14,3.71-.47,.52-.94,1.09-1.4,1.71-2.46,3.33-4.44,7.97-2.59,13.32,3.74,10.8,5.36,6.09,5.36,6.09,3.9,3.41,5.74,3.17,6.6,2.18,.78-.88,.78-2.37,.78-2.37,8.87,1.11,7.76-3.88,7.76-3.88-8.91-2.18-12.67-8.73-9.53-8.89,6.76-.34,6.39-2.74,6.39-2.74,4.43-5.17,2.6-4.05,5.37-4.94,25.36-8.14,48.2-21.86,48.55-22.07l-3.32,7.89,10.39-9.14-3.74,6.24s22.02-6.24,22.02-24.52c0-10.08-4.17-28.5-7.91-42.99-3.04-11.8-5.8-21-5.8-21"/></g><path class="c" d="M48.95,183.78s-7.2,.09-7.11-10.16"/><path class="c" d="M42.02,184.71s-6.28-3.14-5.17-12.19"/></g><g><path class="h" d="M102.13,75.12l-5.74-4.45c-.84,14.64-5.72,17.61-5.72,17.61l-5.31,10.19,.85-6.59-5.95,5.95,2.13-4.25c-11.89-1.06-12.95-3.18-12.95-3.18l-7.64,4.51-.64,.37,6.15,2.54-10.82-.21,7.21,2.34-8.49-.21c-16.13-2.13-16.77-16.98-16.77-16.98l-1.27,5.09-.43-9.76-1.7,4.03c-2.54-12.95-.64-21.65-.64-21.65l-3.39-2.13c-10.09-6.37-5.8-17.95-5.53-18.64l-4.02,8.25,4.03-12.95-5.51,7.43s-1.49-.85,7.85-14.22c.15-.22,.31-.45,.47-.66,9.48-12.67,27.55-11.44,27.55-11.44l-.33-.15-12.62-5.8,17.62,2.97-11.25-4.46,23.77,5.31c17.34-.41,27.7,20.77,28.01,21.43l-6.14-2.75,4.67,9.54-4.25-2.33c0,7.21-4.88,12.1-4.88,12.1l9.97,11.46-4.87-1.27,6.58,12.94Z"/><g><path class="k" d="M58.71,34.79s3.71-5.63,12.74-5.73c9.02-.11,13.69,8.28,12.63,16.56-1.06,8.28-6.9,9.76-6.9,9.76,0,0-2.02,3.08-.11,5.41,0,0,3.61-.11,4.99,2.55l3.29,3.61-3.08-2.23,1.49,6.9-1.7-4.46s-1.27,12.74-12.95,13.8c0,0-11.89,2.02-17.83-4.78l-2.12,3.71,1.17-5.94-3.61,1.38,3.29-3.18,2.23-8.17s1.27-2.76-2.02-3.4c-3.29-.64-12.84-.85-12.74-12.52s6.79-16.24,16.88-13.8l-4.14-5.09,5.52,4.78-.11-9.02,1.17,8.92,3.18-6.79-1.7,6.37c1.8-1.8,.42,1.38,.42,1.38Z"/><path class="p" d="M78.31,40.09c.99,3.42-1.73,7.22-6.07,8.48-4.35,1.26-7.66,3.99-8.65,.57-.99-3.42,.71-11.69,5.05-12.95,4.35-1.26,8.68,.48,9.67,3.9Z"/><path class="p" d="M59.17,51.21c0,3.39-4.76,1.94-9.36,1.94s-8.32-2.75-8.32-6.13,3.73-6.13,8.32-6.13,9.36,6.94,9.36,10.33Z"/><g><g><circle class="d" cx="50.01" cy="46.78" r="5.09"/><path class="o" d="M49.81,51.85c6.51-.02,6.73-9.29,.38-9.71-6.37-.08-6.87,9.18-.38,9.71h0Zm0,.05c-6.77-.47-6.38-10.31,.4-10.26,6.77,.48,6.38,10.32-.4,10.26h0Z"/></g><circle class="n" cx="49.87" cy="47.27" r="2.88"/><circle class="d" cx="48.37" cy="45.33" r=".83"/></g><g><g><circle class="d" cx="69.97" cy="42.16" r="5.09"/><path class="o" d="M69.77,47.23c6.51-.02,6.73-9.29,.38-9.71-6.37-.08-6.87,9.18-.38,9.71h0Zm0,.05c-6.77-.47-6.38-10.31,.4-10.26,6.77,.48,6.38,10.32-.4,10.26h0Z"/></g><circle class="n" cx="70.18" cy="42.43" r="2.88"/><circle class="d" cx="68.33" cy="40.71" r=".83"/></g><path class="n" d="M68.44,56.16s-1.98-.99-2.34,2.34c-.35,3.33,2.34-2.34,2.34-2.34Z"/><path class="n" d="M59.11,57.55s.85-1.34,2.15,1.73-2.15-1.73-2.15-1.73Z"/><path class="q" d="M75.64,62.91s-.92,7.94-7.76,10.53c-6.83,2.59-12.47-5.82-12.47-5.82,0,0,14.08-.85,20.22-4.71Z"/><path class="q" d="M58.09,68.3c1.39,.95,3.24,1.08,4.9,.98-1.73,.26-3.62,.31-5.2-.59l.31-.4h0Z"/><path class="l" d="M76.16,62.45s-10.9,5.17-20.94,4.74c0,0,8.56,3.4,20.94-4.74Z"/><path class="d" d="M74.44,64.2s-8.4,3.97-17.45,3.79c0,0,3.14,2.95,12.28,.14,3.9-1.2,4.99-3.28,4.99-3.28"/><path class="d" d="M71.85,70.29s-4.16,3.6-9.33,2.59l9.33-2.59Z"/></g></g><path class="j" d="M57.53,162.75c25.36-8.14,48.2-21.86,48.55-22.07l-3.32,7.89,10.39-9.14-3.74,6.24s22.02-6.24,22.02-24.52c0-10.08-4.17-28.5-7.91-42.99,2.48,16.82,5.18,41.52,1.12,49.65l-4.98,6.37,.55-8.03-9.97,10.25,.27-8.31-47.09,29.64-7.2,2.22,.28-3.32s-1.74,7.03,1.03,6.14Z"/><path class="c" d="M67.83,159.64s-7.2,3.74-9.83,7.9l.97-4.71-6.37,3.05,1.25-5.4-10.67,1.25,5.82-3.74-13.16-.97s6.37,.14,17.18-5.54"/></g></g></svg>