<?xml version="1.0" encoding="utf-8"?>
<!-- Generator: Adobe Illustrator 26.2.1, SVG Export Plug-In . SVG Version: 6.00 Build 0)  -->
<svg version="1.1" id="a" xmlns="http://www.w3.org/2000/svg" xmlns:xlink="http://www.w3.org/1999/xlink" x="0px" y="0px"
	 viewBox="0 0 242 244" style="enable-background:new 0 0 242 244;" xml:space="preserve">
<style type="text/css">
	.st0{opacity:0.5;}
	.st1{clip-path:url(#SVGID_00000008119370707932060440000008948336221765341604_);}
	.st2{fill:#EDD3BD;}
	.st3{fill:#8B959A;}
	.st4{fill:#758184;}
	.st5{fill:#DCB29A;}
	.st6{fill:#B1B4B8;}
	.st7{fill:#6D747B;}
	.st8{opacity:0.15;}
	.st9{fill:#687689;}
	.st10{fill:#3A3A3A;}
	.st11{fill:url(#SVGID_00000157993988454454346620000005912393318397238683_);}
	.st12{fill:#FDDC63;}
	.st13{fill:#EFB890;}
	.st14{fill:#E7C2A8;}
	.st15{fill:#F2C79A;}
	.st16{fill:#F7DEC7;}
	.st17{fill:#E58384;}
	.st18{fill:#E5E5E4;}
	.st19{fill:#4D4E4E;}
	.st20{fill:#F7991C;}
	.st21{fill:#EE8322;}
	.st22{fill:#DE6E26;}
	.st23{fill:#4E7A6C;}
	.st24{fill:none;}
	.st25{fill:#8D4D21;}
	.st26{opacity:0.25;}
	.st27{fill:#F2F2F2;}
	.st28{fill:#333333;}
	.st29{opacity:0.7;}
	.st30{fill:#FFFFFF;}
	.st31{fill:#5B9A8B;}
	.st32{fill:#84CDB8;}
	.st33{opacity:0.1;}
	.st34{fill:#E8E7E7;}
	.st35{fill:#899095;}
	.st36{display:none;}
	.st37{display:inline;fill:#E5E5E4;}
	.st38{fill:#CBCBCA;}
	.st39{fill:#754F31;}
	.st40{fill:#5C3925;}
	.st41{fill:#1A1A1A;}
	.st42{fill:#363636;}
	.st43{fill:#676767;}
	.st44{fill:#F5AE92;}
	.st45{fill:#E09580;}
	.st46{fill:#A75F26;}
	.st47{fill:#80431D;}
	.st48{fill:#545455;}
	.st49{fill:#30302F;}
	.st50{fill:#E7B096;}
	.st51{fill:#AB4C2B;}
	.st52{fill:#C16037;}
	.st53{fill:#E5E6E6;}
	.st54{fill:#59595C;}
	.st55{fill:#E2A88B;}
	.st56{fill:#D09077;}
	.st57{fill:#221F1F;}
	.st58{fill:#66C7C8;}
	.st59{fill:#41BFBE;}
	.st60{opacity:0.8;fill:#30302F;}
</style>
<g>
	<path class="st0" d="M200,6.4H43C21.9,6.4,4.8,23.6,4.8,44.6v157.1c0,23.1,18.8,41.9,41.9,41.9H200c23.1,0,41.9-18.8,41.9-41.9
		V48.3C241.9,25.2,223.1,6.4,200,6.4z M235.2,201.7c0,19.4-15.7,35.1-35.1,35.1H46.7c-19.4,0-35.1-15.7-35.1-35.1V47.2
		c0-18.8,15.2-34,34-34H200c19.4,0,35.1,15.7,35.1,35.1V201.7z"/>
	<g>
		<defs>
			<path id="SVGID_1_" d="M204.4,230.9H32.9c-14.4,0-26.1-11.7-26.1-26.1V33.3c0-14.4,11.7-26.1,26.1-26.1h171.4
				c14.4,0,26.1,11.7,26.1,26.1v171.4C230.5,219.1,218.8,230.9,204.4,230.9z"/>
		</defs>
		<clipPath id="SVGID_00000157299764311427214730000004420657714908209836_">
			<use xlink:href="#SVGID_1_"  style="overflow:visible;"/>
		</clipPath>
		<g style="clip-path:url(#SVGID_00000157299764311427214730000004420657714908209836_);">
			<g>
				<g>
					<rect x="-124.1" y="39.2" class="st2" width="582.5" height="108"/>
					<rect x="-124.1" y="4.7" class="st3" width="582.5" height="58.8"/>
					<rect x="-124.1" y="8.4" class="st4" width="582.5" height="3.9"/>
					<rect x="-124.1" y="139.4" class="st5" width="582.5" height="7.8"/>
					<rect x="-124.1" y="-80.1" class="st6" width="582.5" height="88.5"/>
					<rect x="-124.1" y="-80.1" class="st3" width="582.5" height="59"/>
					<rect x="-124.1" y="-80.1" class="st7" width="582.5" height="33.9"/>
					<rect x="-124.1" y="-80.1" class="st8" width="582.5" height="17"/>
					<rect x="-124.1" y="147.2" class="st9" width="582.5" height="155.2"/>
					<rect x="-124.1" y="153.8" class="st10" width="582.5" height="92.9"/>
					
						<linearGradient id="SVGID_00000014635818266721373690000001629008936039984526_" gradientUnits="userSpaceOnUse" x1="-124.0605" y1="229.8844" x2="458.4824" y2="229.8844">
						<stop  offset="0" style="stop-color:#CBCBCA"/>
						<stop  offset="1" style="stop-color:#979797"/>
					</linearGradient>
					
						<rect x="-124.1" y="183.6" style="fill:url(#SVGID_00000014635818266721373690000001629008936039984526_);" width="582.5" height="92.6"/>
					<rect x="-124.1" y="190.1" class="st12" width="582.5" height="2.5"/>
					<rect x="-124.1" y="150.5" class="st12" width="582.5" height="1.2"/>
					<polygon class="st13" points="220.2,76.2 114.2,76.2 113.4,76.2 113.4,80.6 113.4,135.1 113.4,139.4 114.2,139.4 220.2,139.4 
						221.1,139.4 221.1,135.1 221.1,80.6 221.1,76.2 					"/>
					<rect x="117.6" y="80.6" class="st2" width="99.3" height="58.8"/>
					<rect x="43.3" y="63.5" class="st14" width="31.8" height="83.7"/>
					<rect x="258.9" y="63.5" class="st14" width="31.8" height="83.7"/>
					<g>
						<rect x="-108.1" y="77.4" class="st15" width="57.5" height="21.2"/>
						<g>
							<g>
								
									<ellipse transform="matrix(0.7071 -0.7071 0.7071 0.7071 -90.6054 -42.8012)" class="st15" cx="-97" cy="88" rx="7" ry="7"/>
								<path class="st16" d="M-97,95.8c-4.3,0-7.8-3.5-7.8-7.8c0-4.3,3.5-7.8,7.8-7.8c4.3,0,7.8,3.5,7.8,7.8
									C-89.2,92.3-92.7,95.8-97,95.8z M-97,81.7c-3.4,0-6.2,2.8-6.2,6.2s2.8,6.2,6.2,6.2c3.4,0,6.2-2.8,6.2-6.2
									S-93.5,81.7-97,81.7z"/>
							</g>
							<g>
								<path class="st17" d="M-99.5,91.6v-0.9l0.9-0.8c1.7-1.5,2.5-2.3,2.5-3.2c0-0.6-0.3-1.2-1.3-1.2c-0.6,0-1.2,0.3-1.6,0.6
									l-0.4-1c0.5-0.4,1.4-0.8,2.3-0.8c1.6,0,2.5,1,2.5,2.2c0,1.2-0.9,2.2-2.1,3.3l-0.7,0.5v0h2.9v1.2H-99.5z"/>
							</g>
							<g>
								<rect x="-85.1" y="80" class="st16" width="31.1" height="2.3"/>
								<rect x="-85.1" y="83.4" class="st16" width="31.1" height="2.3"/>
								<rect x="-85.1" y="86.8" class="st16" width="23.5" height="2.3"/>
								<rect x="-85.1" y="90.2" class="st16" width="29.4" height="2.3"/>
								<rect x="-85.1" y="93.6" class="st16" width="10.9" height="2.3"/>
								<rect x="-72.6" y="93.6" class="st16" width="10.9" height="2.3"/>
							</g>
						</g>
					</g>
					<g>
						<rect x="385.1" y="77.4" class="st15" width="57.5" height="21.2"/>
						<g>
							<g>
								<ellipse transform="matrix(0.8651 -0.5016 0.5016 0.8651 9.3287 210.627)" class="st15" cx="396.3" cy="88" rx="7" ry="7"/>
								<path class="st16" d="M396.3,95.8c-4.3,0-7.8-3.5-7.8-7.8c0-4.3,3.5-7.8,7.8-7.8c4.3,0,7.8,3.5,7.8,7.8
									C404.1,92.3,400.6,95.8,396.3,95.8z M396.3,81.7c-3.4,0-6.2,2.8-6.2,6.2s2.8,6.2,6.2,6.2s6.2-2.8,6.2-6.2
									S399.7,81.7,396.3,81.7z"/>
							</g>
							<g>
								<path class="st17" d="M393.7,91.6v-0.9l0.9-0.8c1.7-1.5,2.5-2.3,2.5-3.2c0-0.6-0.3-1.2-1.3-1.2c-0.6,0-1.2,0.3-1.6,0.6
									l-0.4-1c0.5-0.4,1.4-0.8,2.3-0.8c1.6,0,2.5,1,2.5,2.2c0,1.2-0.9,2.2-2.1,3.3l-0.7,0.5v0h2.9v1.2H393.7z"/>
							</g>
							<g>
								<rect x="408.1" y="80" class="st16" width="31.1" height="2.3"/>
								<rect x="408.1" y="83.4" class="st16" width="31.1" height="2.3"/>
								<rect x="408.1" y="86.8" class="st16" width="23.5" height="2.3"/>
								<rect x="408.1" y="90.2" class="st16" width="29.4" height="2.3"/>
								<rect x="408.1" y="93.6" class="st16" width="10.9" height="2.3"/>
								<rect x="420.7" y="93.6" class="st16" width="10.9" height="2.3"/>
							</g>
						</g>
					</g>
				</g>
				<g>
					<g>
						<g>
							<path class="st18" d="M253.1,183.6h-73.7V98.7l0,0h0c14.2,0,27.7,5.7,37.5,15.9l45.5,47C270.4,169.8,264.6,183.6,253.1,183.6
								z"/>
							<path class="st19" d="M265.8,173.4c-1.3,5.5-6,10.2-12.7,10.2h-73.7v-10.2H265.8z"/>
							<polygon class="st20" points="255.7,154.6 179.4,154.6 179.4,115.4 217.8,115.4 							"/>
							<polygon class="st21" points="255.7,154.6 179.4,154.6 179.4,142.1 243.5,142.1 							"/>
							<polygon class="st22" points="255.7,154.6 179.4,154.6 179.4,149.4 250.6,149.4 							"/>
							<g>
								<path class="st23" d="M247.5,146.2h-57.3c-1.4,0-2.5-1.1-2.5-2.5v-17.3c0-1.4,1.1-2.5,2.5-2.5h35.7L247.5,146.2z"/>
								<path class="st24" d="M190.2,124.5c-1,0-1.8,0.8-1.8,1.8v17.3c0,1,0.8,1.8,1.8,1.8h56.6l-20.3-21h-1H190.2z"/>
								<path class="st25" d="M190.2,145.5c-1,0-1.8-0.8-1.8-1.8v-17.3c0-1,0.8-1.8,1.8-1.8h35.4h1l-0.7-0.7h-35.7
									c-1.4,0-2.5,1.1-2.5,2.5v17.3c0,1.4,1.1,2.5,2.5,2.5h57.3l-0.7-0.7H190.2z"/>
							</g>
						</g>
						<path class="st26" d="M263.4,178.5c-2.3,3-5.9,5.1-10.3,5.1h-73.7v-5.1H263.4z"/>
						<path class="st8" d="M253.1,183.6h-3.5l5-5.3c3.8-4,3.8-10.4,0-14.4l-47.3-47c-7.2-7.1-16.9-11.1-27-11.1h-0.9v-7.1
							c7.1,0,14,1.4,20.4,4.1c6.4,2.7,12.2,6.7,17.1,11.8l45.5,47C270.4,169.8,264.6,183.6,253.1,183.6z"/>
						<g>
							<rect x="1.7" y="98.7" class="st18" width="177.7" height="84.9"/>
							
								<rect x="1.7" y="173.4" transform="matrix(-1 -1.224647e-16 1.224647e-16 -1 181.1621 357.0102)" class="st19" width="177.7" height="10.1"/>
							<rect x="1.7" y="115.4" class="st20" width="177.7" height="39.2"/>
							<rect x="1.7" y="142.1" class="st21" width="177.7" height="12.6"/>
							<rect x="1.7" y="149.4" class="st22" width="177.7" height="5.3"/>
							<g>
								<path class="st23" d="M54.8,146.2H13.3c-1.8,0-3.3-1.5-3.3-3.3v-15.8c0-1.8,1.5-3.3,3.3-3.3h41.5c1.8,0,3.3,1.5,3.3,3.3
									v15.8C58.1,144.8,56.6,146.2,54.8,146.2z"/>
								<path class="st25" d="M55.8,124.5c0.9,0,1.6,0.7,1.6,1.6V144c0,0.9-0.7,1.6-1.6,1.6H12.3c-0.9,0-1.6-0.7-1.6-1.6v-17.9
									c0-0.9,0.7-1.6,1.6-1.6H55.8 M55.8,123.8H12.3c-1.2,0-2.3,1-2.3,2.3V144c0,1.2,1,2.3,2.3,2.3h43.6c1.2,0,2.3-1,2.3-2.3
									v-17.9C58.1,124.9,57.1,123.8,55.8,123.8L55.8,123.8z"/>
							</g>
							<g>
								<path class="st23" d="M167.9,146.2h-41.5c-1.8,0-3.3-1.5-3.3-3.3v-15.8c0-1.8,1.5-3.3,3.3-3.3h41.5c1.8,0,3.3,1.5,3.3,3.3
									v15.8C171.2,144.8,169.7,146.2,167.9,146.2z"/>
								<path class="st25" d="M168.9,124.5c0.9,0,1.6,0.7,1.6,1.6V144c0,0.9-0.7,1.6-1.6,1.6h-43.6c-0.9,0-1.6-0.7-1.6-1.6v-17.9
									c0-0.9,0.7-1.6,1.6-1.6H168.9 M168.9,123.8h-43.6c-1.2,0-2.3,1-2.3,2.3V144c0,1.2,1,2.3,2.3,2.3h43.6c1.2,0,2.3-1,2.3-2.3
									v-17.9C171.2,124.9,170.1,123.8,168.9,123.8L168.9,123.8z"/>
							</g>
							<rect x="1.7" y="178.5" class="st26" width="177.7" height="5.1"/>
							<g>
								<path class="st27" d="M114.8,181.3H66.4v-60.6c0-2.7,2.2-4.9,4.9-4.9h38.7c2.7,0,4.9,2.2,4.9,4.9V181.3z"/>
								<path class="st20" d="M114.8,119.1v35.5H66.4v-35.5c0-1.1,0.5-2.1,1.3-2.7h45.8C114.3,117.1,114.8,118,114.8,119.1z"/>
								<rect x="66.4" y="142.1" class="st21" width="48.4" height="12.6"/>
								<rect x="66.4" y="149.4" class="st22" width="48.4" height="5.3"/>
								<path class="st19" d="M111.4,116.5c1.5,0,2.7,1.2,2.7,2.7v61.4H67.1v-61.4c0-1.5,1.2-2.7,2.7-2.7H111.4 M111.4,115.8H69.7
									c-1.9,0-3.4,1.5-3.4,3.4v62.1h48.4v-62.1C114.8,117.3,113.3,115.8,111.4,115.8L111.4,115.8z"/>
								<g>
									<line class="st27" x1="90.6" y1="115.8" x2="90.6" y2="181.3"/>
									<rect x="90.2" y="115.8" class="st19" width="0.7" height="65.5"/>
								</g>
								<rect x="66.4" y="179.7" class="st28" width="48.4" height="1.6"/>
								<g>
									<path class="st23" d="M83.4,146.2h-9.8c-1.8,0-3.3-1.5-3.3-3.3v-15.8c0-1.8,1.5-3.3,3.3-3.3h9.8c1.8,0,3.3,1.5,3.3,3.3
										v15.8C86.6,144.8,85.2,146.2,83.4,146.2z"/>
									<path class="st25" d="M84.4,124.5c0.9,0,1.6,0.7,1.6,1.6V144c0,0.9-0.7,1.6-1.6,1.6H72.6c-0.9,0-1.6-0.7-1.6-1.6v-17.9
										c0-0.9,0.7-1.6,1.6-1.6H84.4 M84.4,123.8H72.6c-1.2,0-2.3,1-2.3,2.3V144c0,1.2,1,2.3,2.3,2.3h11.8c1.2,0,2.3-1,2.3-2.3
										v-17.9C86.6,124.9,85.6,123.8,84.4,123.8L84.4,123.8z"/>
								</g>
								<g>
									<path class="st23" d="M97.8,146.2h9.8c1.8,0,3.3-1.5,3.3-3.3v-15.8c0-1.8-1.5-3.3-3.3-3.3h-9.8c-1.8,0-3.3,1.5-3.3,3.3
										v15.8C94.5,144.8,96,146.2,97.8,146.2z"/>
									<path class="st25" d="M108.6,124.5c0.9,0,1.6,0.7,1.6,1.6V144c0,0.9-0.7,1.6-1.6,1.6H96.8c-0.9,0-1.6-0.7-1.6-1.6v-17.9
										c0-0.9,0.7-1.6,1.6-1.6H108.6 M108.6,123.8H96.8c-1.2,0-2.3,1-2.3,2.3V144c0,1.2,1,2.3,2.3,2.3h11.8c1.2,0,2.3-1,2.3-2.3
										v-17.9C110.8,124.9,109.8,123.8,108.6,123.8L108.6,123.8z"/>
								</g>
							</g>
							<rect x="1.7" y="98.7" class="st8" width="177.7" height="7.2"/>
						</g>
						<g>
							<rect x="-176" y="98.7" class="st18" width="177.7" height="84.9"/>
							
								<rect x="-176" y="173.4" transform="matrix(-1 -1.224647e-16 1.224647e-16 -1 -174.2861 357.0102)" class="st19" width="177.7" height="10.1"/>
							<rect x="-176" y="115.4" class="st20" width="177.7" height="39.2"/>
							<rect x="-176" y="142.1" class="st21" width="177.7" height="12.6"/>
							<rect x="-176" y="149.4" class="st22" width="177.7" height="5.3"/>
							<g>
								<path class="st23" d="M-122.9,146.2h-41.5c-1.8,0-3.3-1.5-3.3-3.3v-15.8c0-1.8,1.5-3.3,3.3-3.3h41.5c1.8,0,3.3,1.5,3.3,3.3
									v15.8C-119.6,144.8-121.1,146.2-122.9,146.2z"/>
								<path class="st25" d="M-121.9,124.5c0.9,0,1.6,0.7,1.6,1.6V144c0,0.9-0.7,1.6-1.6,1.6h-43.6c-0.9,0-1.6-0.7-1.6-1.6v-17.9
									c0-0.9,0.7-1.6,1.6-1.6H-121.9 M-121.9,123.8h-43.6c-1.2,0-2.3,1-2.3,2.3V144c0,1.2,1,2.3,2.3,2.3h43.6c1.2,0,2.3-1,2.3-2.3
									v-17.9C-119.6,124.9-120.7,123.8-121.9,123.8L-121.9,123.8z"/>
							</g>
							<g>
								<path class="st23" d="M-9.8,146.2h-41.5c-1.8,0-3.3-1.5-3.3-3.3v-15.8c0-1.8,1.5-3.3,3.3-3.3h41.5c1.8,0,3.3,1.5,3.3,3.3
									v15.8C-6.6,144.8-8,146.2-9.8,146.2z"/>
								<path class="st25" d="M-8.8,124.5c0.9,0,1.6,0.7,1.6,1.6V144c0,0.9-0.7,1.6-1.6,1.6h-43.6c-0.9,0-1.6-0.7-1.6-1.6v-17.9
									c0-0.9,0.7-1.6,1.6-1.6H-8.8 M-8.8,123.8h-43.6c-1.2,0-2.3,1-2.3,2.3V144c0,1.2,1,2.3,2.3,2.3h43.6c1.2,0,2.3-1,2.3-2.3
									v-17.9C-6.6,124.9-7.6,123.8-8.8,123.8L-8.8,123.8z"/>
							</g>
							<rect x="-176" y="178.5" class="st26" width="177.7" height="5.1"/>
							<g>
								<path class="st27" d="M-62.9,181.3h-48.4v-60.6c0-2.7,2.2-4.9,4.9-4.9h38.7c2.7,0,4.9,2.2,4.9,4.9V181.3z"/>
								<path class="st20" d="M-62.9,119.1v35.5h-48.4v-35.5c0-1.1,0.5-2.1,1.3-2.7h45.8C-63.5,117.1-62.9,118-62.9,119.1z"/>
								<rect x="-111.4" y="142.1" class="st21" width="48.4" height="12.6"/>
								<rect x="-111.4" y="149.4" class="st22" width="48.4" height="5.3"/>
								<path class="st19" d="M-66.3,116.5c1.5,0,2.7,1.2,2.7,2.7v61.4h-47.1v-61.4c0-1.5,1.2-2.7,2.7-2.7H-66.3 M-66.3,115.8H-108
									c-1.9,0-3.4,1.5-3.4,3.4v62.1h48.4v-62.1C-62.9,117.3-64.4,115.8-66.3,115.8L-66.3,115.8z"/>
								<g>
									<line class="st27" x1="-87.1" y1="115.8" x2="-87.1" y2="181.3"/>
									<rect x="-87.5" y="115.8" class="st19" width="0.7" height="65.5"/>
								</g>
								<rect x="-111.4" y="179.7" class="st28" width="48.4" height="1.6"/>
								<g>
									<path class="st23" d="M-94.4,146.2h-9.8c-1.8,0-3.3-1.5-3.3-3.3v-15.8c0-1.8,1.5-3.3,3.3-3.3h9.8c1.8,0,3.3,1.5,3.3,3.3
										v15.8C-91.1,144.8-92.6,146.2-94.4,146.2z"/>
									<path class="st25" d="M-93.4,124.5c0.9,0,1.6,0.7,1.6,1.6V144c0,0.9-0.7,1.6-1.6,1.6h-11.8c-0.9,0-1.6-0.7-1.6-1.6v-17.9
										c0-0.9,0.7-1.6,1.6-1.6H-93.4 M-93.4,123.8h-11.8c-1.2,0-2.3,1-2.3,2.3V144c0,1.2,1,2.3,2.3,2.3h11.8c1.2,0,2.3-1,2.3-2.3
										v-17.9C-91.1,124.9-92.1,123.8-93.4,123.8L-93.4,123.8z"/>
								</g>
								<g>
									<path class="st23" d="M-79.9,146.2h9.8c1.8,0,3.3-1.5,3.3-3.3v-15.8c0-1.8-1.5-3.3-3.3-3.3h-9.8c-1.8,0-3.3,1.5-3.3,3.3
										v15.8C-83.2,144.8-81.7,146.2-79.9,146.2z"/>
									<path class="st25" d="M-69.1,124.5c0.9,0,1.6,0.7,1.6,1.6V144c0,0.9-0.7,1.6-1.6,1.6h-11.8c-0.9,0-1.6-0.7-1.6-1.6v-17.9
										c0-0.9,0.7-1.6,1.6-1.6H-69.1 M-69.1,123.8h-11.8c-1.2,0-2.3,1-2.3,2.3V144c0,1.2,1,2.3,2.3,2.3h11.8c1.2,0,2.3-1,2.3-2.3
										v-17.9C-66.9,124.9-67.9,123.8-69.1,123.8L-69.1,123.8z"/>
								</g>
							</g>
							<rect x="-176" y="98.7" class="st8" width="177.7" height="7.2"/>
						</g>
						<g>
							<rect x="-353.7" y="98.7" class="st18" width="177.7" height="84.9"/>
							
								<rect x="-353.7" y="173.4" transform="matrix(-1 -1.224647e-16 1.224647e-16 -1 -529.7342 357.0102)" class="st19" width="177.7" height="10.1"/>
							<rect x="-353.7" y="115.4" class="st20" width="177.7" height="39.2"/>
							<rect x="-353.7" y="142.1" class="st21" width="177.7" height="12.6"/>
							<rect x="-353.7" y="149.4" class="st22" width="177.7" height="5.3"/>
							<g>
								<path class="st23" d="M-300.6,146.2h-41.5c-1.8,0-3.3-1.5-3.3-3.3v-15.8c0-1.8,1.5-3.3,3.3-3.3h41.5c1.8,0,3.3,1.5,3.3,3.3
									v15.8C-297.4,144.8-298.8,146.2-300.6,146.2z"/>
								<path class="st25" d="M-299.6,124.5c0.9,0,1.6,0.7,1.6,1.6V144c0,0.9-0.7,1.6-1.6,1.6h-43.6c-0.9,0-1.6-0.7-1.6-1.6v-17.9
									c0-0.9,0.7-1.6,1.6-1.6H-299.6 M-299.6,123.8h-43.6c-1.2,0-2.3,1-2.3,2.3V144c0,1.2,1,2.3,2.3,2.3h43.6c1.2,0,2.3-1,2.3-2.3
									v-17.9C-297.4,124.9-298.4,123.8-299.6,123.8L-299.6,123.8z"/>
							</g>
							<g>
								<path class="st23" d="M-187.6,146.2h-41.5c-1.8,0-3.3-1.5-3.3-3.3v-15.8c0-1.8,1.5-3.3,3.3-3.3h41.5c1.8,0,3.3,1.5,3.3,3.3
									v15.8C-184.3,144.8-185.8,146.2-187.6,146.2z"/>
								<path class="st25" d="M-186.5,124.5c0.9,0,1.6,0.7,1.6,1.6V144c0,0.9-0.7,1.6-1.6,1.6h-43.6c-0.9,0-1.6-0.7-1.6-1.6v-17.9
									c0-0.9,0.7-1.6,1.6-1.6H-186.5 M-186.5,123.8h-43.6c-1.2,0-2.3,1-2.3,2.3V144c0,1.2,1,2.3,2.3,2.3h43.6c1.2,0,2.3-1,2.3-2.3
									v-17.9C-184.3,124.9-185.3,123.8-186.5,123.8L-186.5,123.8z"/>
							</g>
							<rect x="-353.7" y="178.5" class="st26" width="177.7" height="5.1"/>
							<g>
								<path class="st27" d="M-240.6,181.3h-48.4v-60.6c0-2.7,2.2-4.9,4.9-4.9h38.7c2.7,0,4.9,2.2,4.9,4.9V181.3z"/>
								<path class="st20" d="M-240.6,119.1v35.5h-48.4v-35.5c0-1.1,0.5-2.1,1.3-2.7h45.8C-241.2,117.1-240.6,118-240.6,119.1z"/>
								<rect x="-289.1" y="142.1" class="st21" width="48.4" height="12.6"/>
								<rect x="-289.1" y="149.4" class="st22" width="48.4" height="5.3"/>
								<path class="st19" d="M-244,116.5c1.5,0,2.7,1.2,2.7,2.7v61.4h-47.1v-61.4c0-1.5,1.2-2.7,2.7-2.7H-244 M-244,115.8h-41.7
									c-1.9,0-3.4,1.5-3.4,3.4v62.1h48.4v-62.1C-240.6,117.3-242.2,115.8-244,115.8L-244,115.8z"/>
								<g>
									<line class="st27" x1="-264.9" y1="115.8" x2="-264.9" y2="181.3"/>
									<rect x="-265.2" y="115.8" class="st19" width="0.7" height="65.5"/>
								</g>
								<rect x="-289.1" y="179.7" class="st28" width="48.4" height="1.6"/>
								<g>
									<path class="st23" d="M-272.1,146.2h-9.8c-1.8,0-3.3-1.5-3.3-3.3v-15.8c0-1.8,1.5-3.3,3.3-3.3h9.8c1.8,0,3.3,1.5,3.3,3.3
										v15.8C-268.8,144.8-270.3,146.2-272.1,146.2z"/>
									<path class="st25" d="M-271.1,124.5c0.9,0,1.6,0.7,1.6,1.6V144c0,0.9-0.7,1.6-1.6,1.6h-11.8c-0.9,0-1.6-0.7-1.6-1.6v-17.9
										c0-0.9,0.7-1.6,1.6-1.6H-271.1 M-271.1,123.8h-11.8c-1.2,0-2.3,1-2.3,2.3V144c0,1.2,1,2.3,2.3,2.3h11.8
										c1.2,0,2.3-1,2.3-2.3v-17.9C-268.8,124.9-269.8,123.8-271.1,123.8L-271.1,123.8z"/>
								</g>
								<g>
									<path class="st23" d="M-257.6,146.2h9.8c1.8,0,3.3-1.5,3.3-3.3v-15.8c0-1.8-1.5-3.3-3.3-3.3h-9.8c-1.8,0-3.3,1.5-3.3,3.3
										v15.8C-260.9,144.8-259.4,146.2-257.6,146.2z"/>
									<path class="st25" d="M-246.9,124.5c0.9,0,1.6,0.7,1.6,1.6V144c0,0.9-0.7,1.6-1.6,1.6h-11.8c-0.9,0-1.6-0.7-1.6-1.6v-17.9
										c0-0.9,0.7-1.6,1.6-1.6H-246.9 M-246.9,123.8h-11.8c-1.2,0-2.3,1-2.3,2.3V144c0,1.2,1,2.3,2.3,2.3h11.8
										c1.2,0,2.3-1,2.3-2.3v-17.9C-244.6,124.9-245.6,123.8-246.9,123.8L-246.9,123.8z"/>
								</g>
							</g>
							<rect x="-353.7" y="98.7" class="st8" width="177.7" height="7.2"/>
						</g>
					</g>
					<g>
						<g class="st29">
							<path class="st30" d="M178.9,110h-47c-0.6,0-1-0.5-1-1c0-0.6,0.5-1,1-1h47c0.6,0,1,0.5,1,1C179.9,109.6,179.5,110,178.9,110z
								"/>
							<path class="st30" d="M209.7,110h-20.1c-0.6,0-1-0.5-1-1c0-0.6,0.5-1,1-1h20.1c0.6,0,1,0.5,1,1
								C210.8,109.6,210.3,110,209.7,110z"/>
							<path class="st30" d="M185.1,110h-2.6c-0.6,0-1-0.5-1-1c0-0.6,0.5-1,1-1h2.6c0.6,0,1,0.5,1,1
								C186.2,109.6,185.7,110,185.1,110z"/>
						</g>
						<g class="st29">
							<path class="st30" d="M148.3,129.1h-19.6c-0.6,0-1-0.5-1-1c0-0.6,0.5-1,1-1h19.6c0.6,0,1,0.5,1,1
								C149.3,128.6,148.9,129.1,148.3,129.1z"/>
							<path class="st30" d="M206.5,129.1h-40.2c-0.6,0-1-0.5-1-1c0-0.6,0.5-1,1-1h40.2c0.6,0,1,0.5,1,1
								C207.5,128.6,207,129.1,206.5,129.1z"/>
							<path class="st30" d="M161.7,129.1H152c-0.6,0-1-0.5-1-1c0-0.6,0.5-1,1-1h9.8c0.6,0,1,0.5,1,1
								C162.7,128.6,162.3,129.1,161.7,129.1z"/>
						</g>
						<g class="st29">
							<path class="st30" d="M201.9,144.7h-24.2c-0.6,0-1-0.5-1-1c0-0.6,0.5-1,1-1h24.2c0.6,0,1,0.5,1,1
								C202.9,144.3,202.5,144.7,201.9,144.7z"/>
							<path class="st30" d="M262.9,144.7h-7c-0.6,0-1-0.5-1-1c0-0.6,0.5-1,1-1h7c0.6,0,1,0.5,1,1
								C264,144.3,263.5,144.7,262.9,144.7z"/>
							<path class="st30" d="M249.8,144.7h-43c-0.6,0-1-0.5-1-1c0-0.6,0.5-1,1-1h43c0.6,0,1,0.5,1,1
								C250.8,144.3,250.4,144.7,249.8,144.7z"/>
						</g>
						<g class="st29">
							<path class="st30" d="M247.8,161.1h-47c-0.6,0-1-0.5-1-1s0.5-1,1-1h47c0.6,0,1,0.5,1,1S248.3,161.1,247.8,161.1z"/>
							<path class="st30" d="M190.1,161.1H170c-0.6,0-1-0.5-1-1s0.5-1,1-1h20.1c0.6,0,1,0.5,1,1S190.7,161.1,190.1,161.1z"/>
							<path class="st30" d="M197.2,161.1h-2.6c-0.6,0-1-0.5-1-1s0.5-1,1-1h2.6c0.6,0,1,0.5,1,1S197.7,161.1,197.2,161.1z"/>
						</g>
					</g>
					<g>
						<g class="st29">
							<path class="st30" d="M-144.1,103.3H-205c-0.6,0-1-0.5-1-1c0-0.6,0.5-1,1-1h60.9c0.6,0,1,0.5,1,1
								C-143.1,102.8-143.6,103.3-144.1,103.3z"/>
							<path class="st30" d="M-104.1,103.3h-26.1c-0.6,0-1-0.5-1-1c0-0.6,0.5-1,1-1h26.1c0.6,0,1,0.5,1,1
								C-103.1,102.8-103.6,103.3-104.1,103.3z"/>
							<path class="st30" d="M-136.1,103.3h-3.3c-0.6,0-1-0.5-1-1c0-0.6,0.5-1,1-1h3.3c0.6,0,1,0.5,1,1
								C-135,102.8-135.5,103.3-136.1,103.3z"/>
						</g>
						<g class="st29">
							<path class="st30" d="M-111.4,131h-25.5c-0.6,0-1-0.5-1-1s0.5-1,1-1h25.5c0.6,0,1,0.5,1,1S-110.8,131-111.4,131z"/>
							<path class="st30" d="M-36,131h-52.2c-0.6,0-1-0.5-1-1s0.5-1,1-1H-36c0.6,0,1,0.5,1,1S-35.4,131-36,131z"/>
							<path class="st30" d="M-94,131h-12.7c-0.6,0-1-0.5-1-1s0.5-1,1-1H-94c0.6,0,1,0.5,1,1S-93.4,131-94,131z"/>
						</g>
						<g class="st29">
							<path class="st30" d="M-142,146.4h-31.4c-0.6,0-1-0.5-1-1c0-0.6,0.5-1,1-1h31.4c0.6,0,1,0.5,1,1
								C-140.9,146-141.4,146.4-142,146.4z"/>
							<path class="st30" d="M-62.8,146.4h-9.1c-0.6,0-1-0.5-1-1c0-0.6,0.5-1,1-1h9.1c0.6,0,1,0.5,1,1
								C-61.8,146-62.2,146.4-62.8,146.4z"/>
							<path class="st30" d="M-79.8,146.4h-55.7c-0.6,0-1-0.5-1-1c0-0.6,0.5-1,1-1h55.7c0.6,0,1,0.5,1,1
								C-78.8,146-79.2,146.4-79.8,146.4z"/>
						</g>
						<g class="st29">
							<path class="st30" d="M-100.7,178.5h-60.9c-0.6,0-1-0.5-1-1c0-0.6,0.5-1,1-1h60.9c0.6,0,1,0.5,1,1
								C-99.7,178-100.2,178.5-100.7,178.5z"/>
							<path class="st30" d="M-175.6,178.5h-26.1c-0.6,0-1-0.5-1-1c0-0.6,0.5-1,1-1h26.1c0.6,0,1,0.5,1,1
								C-174.5,178-175,178.5-175.6,178.5z"/>
							<path class="st30" d="M-166.4,178.5h-3.3c-0.6,0-1-0.5-1-1c0-0.6,0.5-1,1-1h3.3c0.6,0,1,0.5,1,1
								C-165.4,178-165.8,178.5-166.4,178.5z"/>
						</g>
					</g>
				</g>
				<g>
					<g>
						<g>
							<path class="st26" d="M120.9,38.7v24.9H11.8V38.7c0-1.5,1.2-2.7,2.7-2.7h103.8C119.7,36,120.9,37.2,120.9,38.7z"/>
							<path class="st31" d="M12.6,85.1V40c0-1.8,1.4-3.2,3.2-3.2h101.1c1.8,0,3.2,1.4,3.2,3.2v45.1c0,1.8-1.4,3.2-3.2,3.2H15.8
								C14,88.3,12.6,86.8,12.6,85.1z"/>
							<path class="st32" d="M113.6,85H19.1c-1.8,0-3.2-1.4-3.2-3.2V43.3c0-1.8,1.4-3.2,3.2-3.2h94.5c1.8,0,3.2,1.4,3.2,3.2v38.5
								C116.8,83.6,115.4,85,113.6,85z"/>
							<g>
								<rect x="17.9" y="43.1" class="st27" width="28" height="3.7"/>
								<rect x="73.1" y="43.1" class="st27" width="14.7" height="3.1"/>
								<rect x="96" y="43.1" class="st27" width="14.7" height="3.1"/>
								<rect x="17.9" y="49.9" class="st27" width="50.4" height="2.6"/>
								<g>
									<g>
										<rect x="73.5" y="49.9" class="st27" width="6.1" height="2.6"/>
										<rect x="81.2" y="49.9" class="st27" width="6.1" height="2.6"/>
									</g>
									<g>
										<rect x="73.5" y="55.3" class="st27" width="6.1" height="2.6"/>
										<rect x="81.2" y="55.3" class="st27" width="6.1" height="2.6"/>
									</g>
									<g>
										<rect x="73.5" y="60.7" class="st27" width="6.1" height="2.6"/>
										<rect x="81.2" y="60.7" class="st27" width="6.1" height="2.6"/>
									</g>
									<g>
										<rect x="73.5" y="66.1" class="st27" width="6.1" height="2.6"/>
										<rect x="81.2" y="66.1" class="st27" width="6.1" height="2.6"/>
									</g>
									<g>
										<rect x="73.5" y="71.5" class="st27" width="6.1" height="2.6"/>
										<rect x="81.2" y="71.5" class="st27" width="6.1" height="2.6"/>
									</g>
									<g>
										<rect x="73.5" y="76.9" class="st27" width="6.1" height="2.6"/>
										<rect x="81.2" y="76.9" class="st27" width="6.1" height="2.6"/>
									</g>
								</g>
								<g>
									<g>
										<rect x="96.4" y="49.9" class="st27" width="6.1" height="2.6"/>
										<rect x="104.1" y="49.9" class="st27" width="6.1" height="2.6"/>
									</g>
									<g>
										<rect x="96.4" y="55.3" class="st27" width="6.1" height="2.6"/>
										<rect x="104.1" y="55.3" class="st27" width="6.1" height="2.6"/>
									</g>
									<g>
										<rect x="96.4" y="60.7" class="st27" width="6.1" height="2.6"/>
										<rect x="104.1" y="60.7" class="st27" width="6.1" height="2.6"/>
									</g>
									<g>
										<rect x="96.4" y="66.1" class="st27" width="6.1" height="2.6"/>
										<rect x="104.1" y="66.1" class="st27" width="6.1" height="2.6"/>
									</g>
									<g>
										<rect x="96.4" y="71.5" class="st27" width="6.1" height="2.6"/>
										<rect x="104.1" y="71.5" class="st27" width="6.1" height="2.6"/>
									</g>
									<g>
										<rect x="96.4" y="76.9" class="st27" width="6.1" height="2.6"/>
										<rect x="104.1" y="76.9" class="st27" width="6.1" height="2.6"/>
									</g>
								</g>
								<rect x="17.9" y="55.3" class="st27" width="29.3" height="2.6"/>
								<rect x="17.9" y="60.7" class="st27" width="39.9" height="2.6"/>
								<rect x="17.9" y="66.1" class="st27" width="20" height="2.6"/>
								<rect x="17.9" y="71.5" class="st27" width="42.8" height="2.6"/>
								<rect x="17.9" y="76.9" class="st27" width="35.4" height="2.6"/>
							</g>
						</g>
						<g class="st33">
							<polygon class="st30" points="61.1,36.8 12.6,85.3 12.6,49 24.8,36.8 							"/>
							<polygon class="st30" points="76.9,36.8 25.5,88.3 17.2,88.3 68.6,36.8 							"/>
							<path class="st30" d="M120.1,38.7v4.1L74.6,88.3h-16L110,36.8h8.2C119.2,36.8,120.1,37.7,120.1,38.7z"/>
							<polygon class="st30" points="120.1,46.7 120.1,52 83.8,88.3 78.5,88.3 							"/>
							<polygon class="st30" points="120.1,63.7 120.1,73.2 105,88.3 95.5,88.3 							"/>
						</g>
					</g>
					<g>
						<g>
							<path class="st26" d="M213.5,38.7v24.9h109.1V38.7c0-1.5-1.2-2.7-2.7-2.7H216.2C214.7,36,213.5,37.2,213.5,38.7z"/>
							<path class="st31" d="M321.8,85.1V40c0-1.8-1.4-3.2-3.2-3.2H217.5c-1.8,0-3.2,1.4-3.2,3.2v45.1c0,1.8,1.4,3.2,3.2,3.2h101.1
								C320.4,88.3,321.8,86.8,321.8,85.1z"/>
							<path class="st32" d="M220.8,85h94.5c1.8,0,3.2-1.4,3.2-3.2V43.3c0-1.8-1.4-3.2-3.2-3.2h-94.5c-1.8,0-3.2,1.4-3.2,3.2v38.5
								C217.6,83.6,219.1,85,220.8,85z"/>
							<g>
								
									<rect x="288.5" y="43.1" transform="matrix(-1 -1.224647e-16 1.224647e-16 -1 605.0016 89.8879)" class="st27" width="28" height="3.7"/>
								
									<rect x="246.6" y="43.1" transform="matrix(-1 -1.224647e-16 1.224647e-16 -1 507.991 89.2877)" class="st27" width="14.7" height="3.1"/>
								
									<rect x="223.8" y="43.1" transform="matrix(-1 -1.224647e-16 1.224647e-16 -1 462.2311 89.2877)" class="st27" width="14.7" height="3.1"/>
								
									<rect x="266.1" y="49.9" transform="matrix(-1 -1.224647e-16 1.224647e-16 -1 582.5908 102.3678)" class="st27" width="50.4" height="2.6"/>
								<g>
									<g>
										
											<rect x="254.8" y="49.9" transform="matrix(-1 -1.224647e-16 1.224647e-16 -1 515.7383 102.3678)" class="st27" width="6.1" height="2.6"/>
										
											<rect x="247.1" y="49.9" transform="matrix(-1 -1.224647e-16 1.224647e-16 -1 500.2437 102.3678)" class="st27" width="6.1" height="2.6"/>
									</g>
									<g>
										
											<rect x="254.8" y="55.3" transform="matrix(-1 -1.224647e-16 1.224647e-16 -1 515.7383 113.1885)" class="st27" width="6.1" height="2.6"/>
										
											<rect x="247.1" y="55.3" transform="matrix(-1 -1.224647e-16 1.224647e-16 -1 500.2437 113.1885)" class="st27" width="6.1" height="2.6"/>
									</g>
									<g>
										
											<rect x="254.8" y="60.7" transform="matrix(-1 -1.224647e-16 1.224647e-16 -1 515.7383 124.0092)" class="st27" width="6.1" height="2.6"/>
										
											<rect x="247.1" y="60.7" transform="matrix(-1 -1.224647e-16 1.224647e-16 -1 500.2437 124.0092)" class="st27" width="6.1" height="2.6"/>
									</g>
									<g>
										
											<rect x="254.8" y="66.1" transform="matrix(-1 -1.224647e-16 1.224647e-16 -1 515.7383 134.8299)" class="st27" width="6.1" height="2.6"/>
										
											<rect x="247.1" y="66.1" transform="matrix(-1 -1.224647e-16 1.224647e-16 -1 500.2437 134.8299)" class="st27" width="6.1" height="2.6"/>
									</g>
									<g>
										
											<rect x="254.8" y="71.5" transform="matrix(-1 -1.224647e-16 1.224647e-16 -1 515.7383 145.6506)" class="st27" width="6.1" height="2.6"/>
										
											<rect x="247.1" y="71.5" transform="matrix(-1 -1.224647e-16 1.224647e-16 -1 500.2437 145.6506)" class="st27" width="6.1" height="2.6"/>
									</g>
									<g>
										
											<rect x="254.8" y="76.9" transform="matrix(-1 -1.224647e-16 1.224647e-16 -1 515.7383 156.4713)" class="st27" width="6.1" height="2.6"/>
										
											<rect x="247.1" y="76.9" transform="matrix(-1 -1.224647e-16 1.224647e-16 -1 500.2437 156.4713)" class="st27" width="6.1" height="2.6"/>
									</g>
								</g>
								<g>
									<g>
										
											<rect x="231.9" y="49.9" transform="matrix(-1 -1.224647e-16 1.224647e-16 -1 469.9785 102.3678)" class="st27" width="6.1" height="2.6"/>
										
											<rect x="224.2" y="49.9" transform="matrix(-1 -1.224647e-16 1.224647e-16 -1 454.4838 102.3678)" class="st27" width="6.1" height="2.6"/>
									</g>
									<g>
										
											<rect x="231.9" y="55.3" transform="matrix(-1 -1.224647e-16 1.224647e-16 -1 469.9785 113.1885)" class="st27" width="6.1" height="2.6"/>
										
											<rect x="224.2" y="55.3" transform="matrix(-1 -1.224647e-16 1.224647e-16 -1 454.4838 113.1885)" class="st27" width="6.1" height="2.6"/>
									</g>
									<g>
										
											<rect x="231.9" y="60.7" transform="matrix(-1 -1.224647e-16 1.224647e-16 -1 469.9785 124.0092)" class="st27" width="6.1" height="2.6"/>
										
											<rect x="224.2" y="60.7" transform="matrix(-1 -1.224647e-16 1.224647e-16 -1 454.4838 124.0092)" class="st27" width="6.1" height="2.6"/>
									</g>
									<g>
										
											<rect x="231.9" y="66.1" transform="matrix(-1 -1.224647e-16 1.224647e-16 -1 469.9785 134.8299)" class="st27" width="6.1" height="2.6"/>
										
											<rect x="224.2" y="66.1" transform="matrix(-1 -1.224647e-16 1.224647e-16 -1 454.4838 134.8299)" class="st27" width="6.1" height="2.6"/>
									</g>
									<g>
										
											<rect x="231.9" y="71.5" transform="matrix(-1 -1.224647e-16 1.224647e-16 -1 469.9785 145.6506)" class="st27" width="6.1" height="2.6"/>
										
											<rect x="224.2" y="71.5" transform="matrix(-1 -1.224647e-16 1.224647e-16 -1 454.4838 145.6506)" class="st27" width="6.1" height="2.6"/>
									</g>
									<g>
										
											<rect x="231.9" y="76.9" transform="matrix(-1 -1.224647e-16 1.224647e-16 -1 469.9785 156.4713)" class="st27" width="6.1" height="2.6"/>
										
											<rect x="224.2" y="76.9" transform="matrix(-1 -1.224647e-16 1.224647e-16 -1 454.4838 156.4713)" class="st27" width="6.1" height="2.6"/>
									</g>
								</g>
								
									<rect x="287.2" y="55.3" transform="matrix(-1 -1.224647e-16 1.224647e-16 -1 603.7032 113.1885)" class="st27" width="29.3" height="2.6"/>
								
									<rect x="276.5" y="60.7" transform="matrix(-1 -1.224647e-16 1.224647e-16 -1 593.0267 124.0092)" class="st27" width="39.9" height="2.6"/>
								
									<rect x="296.5" y="66.1" transform="matrix(-1 -1.224647e-16 1.224647e-16 -1 613.0012 134.8299)" class="st27" width="20" height="2.6"/>
								
									<rect x="273.7" y="71.5" transform="matrix(-1 -1.224647e-16 1.224647e-16 -1 590.1412 145.6506)" class="st27" width="42.8" height="2.6"/>
								
									<rect x="281.1" y="76.9" transform="matrix(-1 -1.224647e-16 1.224647e-16 -1 597.5714 156.4713)" class="st27" width="35.4" height="2.6"/>
							</g>
						</g>
						<g class="st33">
							<polygon class="st30" points="273.3,36.8 321.8,85.3 321.8,49 309.6,36.8 							"/>
							<polygon class="st30" points="257.5,36.8 308.9,88.3 317.2,88.3 265.8,36.8 							"/>
							<path class="st30" d="M214.4,38.7v4.1l45.5,45.5h16l-51.4-51.4h-8.2C215.2,36.8,214.4,37.7,214.4,38.7z"/>
							<polygon class="st30" points="214.4,46.7 214.4,52 250.6,88.3 255.9,88.3 							"/>
							<polygon class="st30" points="214.4,63.7 214.4,73.2 229.4,88.3 239,88.3 							"/>
						</g>
					</g>
					<g>
						<g>
							<g>
								<g>
									<g>
										<path class="st26" d="M387.4,212.4h-26.9c-0.2,0-0.4-0.2-0.4-0.4v-1c0-0.2,0.2-0.4,0.4-0.4h26.9c0.2,0,0.4,0.2,0.4,0.4v1
											C387.8,212.2,387.6,212.4,387.4,212.4z"/>
										<g>
											<g>
												<path class="st34" d="M382.3,36h-16.6c-1.4,0-2.5-1.1-2.5-2.5v-3.9h21.6v3.9C384.8,34.9,383.6,36,382.3,36z"/>
												<path class="st8" d="M383,29.6h-19.9v1h19.2c0.4,0,0.6,0.3,0.6,0.6v2.4c0,0.4-0.3,0.6-0.6,0.6h-19.2l0,0
													c0,1,0.8,1.7,1.7,1.7H383c1,0,1.7-0.8,1.7-1.7v-3.7v-1H383z"/>
											</g>
											<g>
												<path class="st34" d="M382.3,205.3h-16.6c-1.4,0-2.5,1.1-2.5,2.5v3.9h21.6v-3.9C384.8,206.4,383.6,205.3,382.3,205.3z"
													/>
												<path class="st8" d="M383,211.6h-19.9v-1h19.2c0.4,0,0.6-0.3,0.6-0.6v-2.4c0-0.4-0.3-0.6-0.6-0.6h-19.2l0,0
													c0-1,0.8-1.7,1.7-1.7H383c1,0,1.7,0.8,1.7,1.7v3.7v1H383z"/>
											</g>
											<rect x="367.3" y="36" class="st34" width="13.2" height="169.3"/>
											<path class="st8" d="M367.3,39h3.4c3.5,0,6.3,2.8,6.3,6.3v150c0,3.5-2.8,6.3-6.3,6.3h-3.4v3.7h13.2V36h-13.2V39z"/>
										</g>
									</g>
								</g>
								<g>
									<g>
										<path class="st26" d="M-26.1,212.4H-53c-0.2,0-0.4-0.2-0.4-0.4v-1c0-0.2,0.2-0.4,0.4-0.4h26.9c0.2,0,0.4,0.2,0.4,0.4v1
											C-25.7,212.2-25.9,212.4-26.1,212.4z"/>
										<g>
											<g>
												<path class="st34" d="M-31.2,36h-16.6c-1.4,0-2.5-1.1-2.5-2.5v-3.9h21.6v3.9C-28.7,34.9-29.9,36-31.2,36z"/>
												<path class="st8" d="M-30.5,29.6h-19.9v1h19.2c0.4,0,0.6,0.3,0.6,0.6v2.4c0,0.4-0.3,0.6-0.6,0.6h-19.2l0,0
													c0,1,0.8,1.7,1.7,1.7h18.1c1,0,1.7-0.8,1.7-1.7v-3.7v-1H-30.5z"/>
											</g>
											<g>
												<path class="st34" d="M-31.2,205.3h-16.6c-1.4,0-2.5,1.1-2.5,2.5v3.9h21.6v-3.9C-28.7,206.4-29.9,205.3-31.2,205.3z"/>
												<path class="st8" d="M-30.5,211.6h-19.9v-1h19.2c0.4,0,0.6-0.3,0.6-0.6v-2.4c0-0.4-0.3-0.6-0.6-0.6h-19.2l0,0
													c0-1,0.8-1.7,1.7-1.7h18.1c1,0,1.7,0.8,1.7,1.7v3.7v1H-30.5z"/>
											</g>
											<rect x="-46.2" y="36" class="st34" width="13.2" height="169.3"/>
											<path class="st8" d="M-46.2,39h3.4c3.5,0,6.3,2.8,6.3,6.3v150c0,3.5-2.8,6.3-6.3,6.3h-3.4v3.7h13.2V36h-13.2V39z"/>
										</g>
									</g>
								</g>
							</g>
						</g>
						<g>
							<rect x="-246.3" y="22.3" class="st35" width="827" height="7.3"/>
							<rect x="-246.3" y="26" class="st8" width="827" height="3.6"/>
						</g>
						<g>
							<g class="st36">
								<polygon class="st37" points="53.4,17.8 53.4,22.3 46.8,22.3 4,-7.4 -2.6,-11.9 -42.8,-39.8 -45.5,-41.6 -45.5,-46.2 
									-38.9,-46.2 4,-16.5 10.5,-11.9 50.8,16 								"/>
								<polygon class="st37" points="53.4,-46.2 53.4,-41.6 50.8,-39.8 10.5,-11.9 4,-7.4 -38.9,22.3 -45.5,22.3 -45.5,17.8 
									-42.8,16 -2.6,-11.9 4,-16.5 46.8,-46.2 								"/>
								<polygon class="st37" points="162.1,17.8 162.1,22.3 155.5,22.3 112.7,-7.4 106.1,-11.9 65.9,-39.8 63.3,-41.6 63.3,-46.2 
									69.8,-46.2 112.7,-16.5 119.2,-11.9 159.5,16 								"/>
								<polygon class="st37" points="162.1,-46.2 162.1,-41.6 159.5,-39.8 119.2,-11.9 112.7,-7.4 69.8,22.3 63.3,22.3 63.3,17.8 
									65.9,16 106.1,-11.9 112.7,-16.5 155.5,-46.2 								"/>
								<polygon class="st37" points="-55.3,17.8 -55.3,22.3 -61.9,22.3 -104.7,-7.4 -111.3,-11.9 -151.5,-39.8 -154.2,-41.6 
									-154.2,-46.2 -147.6,-46.2 -104.7,-16.5 -98.2,-11.9 -57.9,16 								"/>
								<polygon class="st37" points="-55.3,-46.2 -55.3,-41.6 -57.9,-39.8 -98.2,-11.9 -104.7,-7.4 -147.6,22.3 -154.2,22.3 
									-154.2,17.8 -151.5,16 -111.3,-11.9 -104.7,-16.5 -61.9,-46.2 								"/>
								<polygon class="st37" points="379.5,-46.2 379.5,-41.6 376.9,-39.8 336.7,-11.9 330.1,-7.4 287.2,22.3 280.7,22.3 
									280.7,17.8 283.3,16 323.5,-11.9 330.1,-16.5 372.9,-46.2 								"/>
								<polygon class="st37" points="379.5,17.8 379.5,22.3 372.9,22.3 330.1,-7.4 323.5,-11.9 283.3,-39.8 280.7,-41.6 
									280.7,-46.2 287.2,-46.2 330.1,-16.5 336.7,-11.9 376.9,16 								"/>
								<polygon class="st37" points="270.8,-46.2 270.8,-41.6 268.2,-39.8 228,-11.9 221.4,-7.4 178.5,22.3 172,22.3 172,17.8 
									174.6,16 214.8,-11.9 221.4,-16.5 264.2,-46.2 								"/>
								<polygon class="st37" points="270.8,17.8 270.8,22.3 264.2,22.3 221.4,-7.4 214.8,-11.9 174.6,-39.8 172,-41.6 172,-46.2 
									178.5,-46.2 221.4,-16.5 228,-11.9 268.2,16 								"/>
								<polygon class="st37" points="488.2,-46.2 488.2,-41.6 485.6,-39.8 445.4,-11.9 438.8,-7.4 395.9,22.3 389.4,22.3 
									389.4,17.8 392,16 432.2,-11.9 438.8,-16.5 481.6,-46.2 								"/>
								<polygon class="st37" points="488.2,17.8 488.2,22.3 481.6,22.3 438.8,-7.4 432.2,-11.9 392,-39.8 389.4,-41.6 389.4,-46.2 
									395.9,-46.2 438.8,-16.5 445.4,-11.9 485.6,16 								"/>
							</g>
							<g>
								<rect x="162.1" y="-46.2" class="st34" width="5.1" height="68.5"/>
								<g>
									<rect x="-159.4" y="-46.2" class="st34" width="5.2" height="68.5"/>
									<g>
										<rect x="-55.3" y="-46.2" class="st34" width="9.9" height="68.5"/>
										<g>
											<g>
												<polygon class="st34" points="-55.3,17.8 -55.3,22.3 -61.9,22.3 -104.7,-7.4 -111.3,-11.9 -151.5,-39.8 -154.2,-41.6 
													-154.2,-46.2 -147.6,-46.2 -104.7,-16.5 -98.2,-11.9 -57.9,16 												"/>
												<polygon class="st8" points="-96.2,-10.6 -96.9,-10.1 -102.8,-6 -104.7,-7.4 -111.3,-11.9 -113.3,-13.2 -112.6,-13.7 
													-106.7,-17.8 -104.7,-16.5 -98.2,-11.9 												"/>
												<polygon class="st8" points="-151.5,-46.2 -151.5,-39.8 -154.2,-41.6 -154.2,-46.2 												"/>
												<polygon class="st8" points="-57.9,16 -55.3,17.8 -55.3,22.3 -57.9,22.3 												"/>
											</g>
											<g>
												<polygon class="st34" points="-55.3,-46.2 -55.3,-41.6 -57.9,-39.8 -98.2,-11.9 -104.7,-7.4 -147.6,22.3 -154.2,22.3 
													-154.2,17.8 -151.5,16 -111.3,-11.9 -104.7,-16.5 -61.9,-46.2 												"/>
												<polygon class="st8" points="-154.2,17.8 -151.5,16 -151.5,22.3 -154.2,22.3 												"/>
												<polygon class="st8" points="-55.3,-46.2 -55.3,-41.6 -57.9,-39.8 -57.9,-46.2 												"/>
											</g>
										</g>
									</g>
									<rect x="53.4" y="-46.2" class="st34" width="9.9" height="68.5"/>
									<g>
										<g>
											<polygon class="st34" points="53.4,17.8 53.4,22.3 46.8,22.3 4,-7.4 -2.6,-11.9 -42.8,-39.8 -45.5,-41.6 -45.5,-46.2 
												-38.9,-46.2 4,-16.5 10.5,-11.9 50.8,16 											"/>
											<polygon class="st8" points="12.5,-10.6 11.8,-10.1 5.9,-6 4,-7.4 -2.6,-11.9 -4.6,-13.2 -3.9,-13.7 2,-17.8 4,-16.5 
												10.5,-11.9 											"/>
											<polygon class="st8" points="-42.8,-46.2 -42.8,-39.8 -45.5,-41.6 -45.5,-46.2 											"/>
											<polygon class="st8" points="50.8,16 53.4,17.8 53.4,22.3 50.8,22.3 											"/>
										</g>
										<g>
											<polygon class="st34" points="53.4,-46.2 53.4,-41.6 50.8,-39.8 10.5,-11.9 4,-7.4 -38.9,22.3 -45.5,22.3 -45.5,17.8 
												-42.8,16 -2.6,-11.9 4,-16.5 46.8,-46.2 											"/>
											<polygon class="st8" points="-45.5,17.8 -42.8,16 -42.8,22.3 -45.5,22.3 											"/>
											<polygon class="st8" points="53.4,-46.2 53.4,-41.6 50.8,-39.8 50.8,-46.2 											"/>
										</g>
									</g>
									<g>
										<g>
											<polygon class="st34" points="162.1,17.8 162.1,22.3 155.5,22.3 112.7,-7.4 106.1,-11.9 65.9,-39.8 63.3,-41.6 
												63.3,-46.2 69.8,-46.2 112.7,-16.5 119.2,-11.9 159.5,16 											"/>
											<polygon class="st8" points="121.2,-10.6 120.5,-10.1 114.6,-6 112.7,-7.4 106.1,-11.9 104.1,-13.2 104.8,-13.7 
												110.7,-17.8 112.7,-16.5 119.2,-11.9 											"/>
											<polygon class="st8" points="65.9,-46.2 65.9,-39.8 63.3,-41.6 63.3,-46.2 											"/>
											<polygon class="st8" points="159.5,16 162.1,17.8 162.1,22.3 159.5,22.3 											"/>
										</g>
										<g>
											<polygon class="st34" points="162.1,-46.2 162.1,-41.6 159.5,-39.8 119.2,-11.9 112.7,-7.4 69.8,22.3 63.3,22.3 
												63.3,17.8 65.9,16 106.1,-11.9 112.7,-16.5 155.5,-46.2 											"/>
											<polygon class="st8" points="63.3,17.8 65.9,16 65.9,22.3 63.3,22.3 											"/>
											<polygon class="st8" points="162.1,-46.2 162.1,-41.6 159.5,-39.8 159.5,-46.2 											"/>
										</g>
									</g>
								</g>
							</g>
							<g>
								<rect x="167.2" y="-46.2" class="st34" width="5.1" height="68.5"/>
								<g>
									<rect x="488.6" y="-46.2" class="st34" width="5.2" height="68.5"/>
									<g>
										<rect x="379.9" y="-46.2" class="st34" width="9.9" height="68.5"/>
										<g>
											<g>
												<polygon class="st34" points="389.8,17.8 389.8,22.3 396.3,22.3 439.2,-7.4 445.7,-11.9 486,-39.8 488.6,-41.6 
													488.6,-46.2 482,-46.2 439.2,-16.5 432.6,-11.9 392.4,16 												"/>
												<polygon class="st8" points="430.7,-10.6 431.3,-10.1 437.2,-6 439.2,-7.4 445.7,-11.9 447.7,-13.2 447,-13.7 
													441.1,-17.8 439.2,-16.5 432.6,-11.9 												"/>
												<polygon class="st8" points="486,-46.2 486,-39.8 488.6,-41.6 488.6,-46.2 												"/>
												<polygon class="st8" points="392.4,16 389.8,17.8 389.8,22.3 392.4,22.3 												"/>
											</g>
											<g>
												<polygon class="st34" points="389.8,-46.2 389.8,-41.6 392.4,-39.8 432.6,-11.9 439.2,-7.4 482,22.3 488.6,22.3 
													488.6,17.8 486,16 445.7,-11.9 439.2,-16.5 396.3,-46.2 												"/>
												<polygon class="st8" points="488.6,17.8 486,16 486,22.3 488.6,22.3 												"/>
												<polygon class="st8" points="389.8,-46.2 389.8,-41.6 392.4,-39.8 392.4,-46.2 												"/>
											</g>
										</g>
									</g>
									<rect x="271.2" y="-46.2" class="st34" width="9.9" height="68.5"/>
									<g>
										<g>
											<polygon class="st34" points="281.1,17.8 281.1,22.3 287.6,22.3 330.5,-7.4 337,-11.9 377.3,-39.8 379.9,-41.6 
												379.9,-46.2 373.3,-46.2 330.5,-16.5 323.9,-11.9 283.7,16 											"/>
											<polygon class="st8" points="321.9,-10.6 322.6,-10.1 328.5,-6 330.5,-7.4 337,-11.9 339,-13.2 338.3,-13.7 332.4,-17.8 
												330.5,-16.5 323.9,-11.9 											"/>
											<polygon class="st8" points="377.3,-46.2 377.3,-39.8 379.9,-41.6 379.9,-46.2 											"/>
											<polygon class="st8" points="283.7,16 281.1,17.8 281.1,22.3 283.7,22.3 											"/>
										</g>
										<g>
											<polygon class="st34" points="281.1,-46.2 281.1,-41.6 283.7,-39.8 323.9,-11.9 330.5,-7.4 373.3,22.3 379.9,22.3 
												379.9,17.8 377.3,16 337,-11.9 330.5,-16.5 287.6,-46.2 											"/>
											<polygon class="st8" points="379.9,17.8 377.3,16 377.3,22.3 379.9,22.3 											"/>
											<polygon class="st8" points="281.1,-46.2 281.1,-41.6 283.7,-39.8 283.7,-46.2 											"/>
										</g>
									</g>
									<g>
										<g>
											<polygon class="st34" points="172.4,17.8 172.4,22.3 178.9,22.3 221.8,-7.4 228.3,-11.9 268.6,-39.8 271.2,-41.6 
												271.2,-46.2 264.6,-46.2 221.8,-16.5 215.2,-11.9 175,16 											"/>
											<polygon class="st8" points="213.2,-10.6 213.9,-10.1 219.8,-6 221.8,-7.4 228.3,-11.9 230.3,-13.2 229.6,-13.7 
												223.7,-17.8 221.8,-16.5 215.2,-11.9 											"/>
											<polygon class="st8" points="268.6,-46.2 268.6,-39.8 271.2,-41.6 271.2,-46.2 											"/>
											<polygon class="st8" points="175,16 172.4,17.8 172.4,22.3 175,22.3 											"/>
										</g>
										<g>
											<polygon class="st34" points="172.4,-46.2 172.4,-41.6 175,-39.8 215.2,-11.9 221.8,-7.4 264.6,22.3 271.2,22.3 
												271.2,17.8 268.6,16 228.3,-11.9 221.8,-16.5 178.9,-46.2 											"/>
											<polygon class="st8" points="271.2,17.8 268.6,16 268.6,22.3 271.2,22.3 											"/>
											<polygon class="st8" points="172.4,-46.2 172.4,-41.6 175,-39.8 175,-46.2 											"/>
										</g>
									</g>
								</g>
							</g>
						</g>
					</g>
				</g>
			</g>
			<g>
				<ellipse class="st26" cx="136.5" cy="201.1" rx="18.9" ry="1.1"/>
				<g>
					<g>
						<path class="st38" d="M127.7,158.5c2.4-0.6,5.5-1.5,6.7-1.9l-1.5-3.7c0,0-4.7,0.6-6.8,1C124.1,154.2,124.7,159.3,127.7,158.5z
							"/>
						<g>
							<g>
								<g>
									<path class="st39" d="M134.7,201.3h3.4l0.5-0.3l0.4,0.3h3.5c0.2,0,0.4-0.2,0.4-0.4l0-0.6c0,0,0-0.4-0.3-1.1
										c-0.1-0.2-0.1-0.4-0.1-0.6l-0.1-0.5c0,0-3.9,0-3.9,0l-0.7,0.9c-0.3,0.3-0.8,0.3-1.3,0.3h-0.6c-0.3,0-0.6,0.2-0.7,0.4
										l-0.7,1.1l0,0C134.4,201.1,134.5,201.3,134.7,201.3z"/>
									<path class="st28" d="M134.7,201.3h3.4l0.5-0.3l0.4,0.3h3.5c0.2,0,0.4-0.2,0.4-0.4l0-0.6h-4c-0.2,0-0.4,0.1-0.5,0.2
										l-0.4,0.3c-0.1,0.1-0.2,0.1-0.3,0.1h-3.1l0,0C134.4,201.1,134.5,201.3,134.7,201.3z"/>
								</g>
								<path class="st40" d="M142.9,200.9l0-0.6h-3.1c0.1-1.2,0.5-1.6,0.7-2.2c0,0,1.4,0,1.8,0c0.1,0,0.1,0,0.1,0l0.1,0.5
									c0,0.2,0.1,0.4,0.1,0.6c0.2,0.7,0.3,1.1,0.3,1.1L142.9,200.9c0,0.2-0.2,0.4-0.4,0.4h-2.8v0h2.8
									C142.7,201.3,142.9,201.2,142.9,200.9z"/>
								<path class="st0" d="M142.8,200.4l0,0.6c0,0.2-0.2,0.4-0.4,0.4h-2.8c0-0.4,0-0.7,0.1-1H142.8z"/>
							</g>
							<polygon class="st41" points="138.2,201.3 139,201.3 138.7,201.1 							"/>
						</g>
						<g>
							<g>
								<g>
									<path class="st39" d="M128.3,201.3h3.4l0.5-0.3l0.4,0.3h3.5c0.2,0,0.4-0.2,0.4-0.4l0-0.6c0,0,0-0.4-0.3-1.1
										c-0.1-0.2-0.1-0.4-0.1-0.6l-0.1-0.5c0,0-3.9,0-3.9,0l-0.7,0.9c-0.3,0.3-0.8,0.3-1.3,0.3h-0.6c-0.3,0-0.6,0.2-0.7,0.4
										l-0.7,1.1l0,0C128,201.1,128.1,201.3,128.3,201.3z"/>
									<path class="st28" d="M128.3,201.3h3.4l0.5-0.3l0.4,0.3h3.5c0.2,0,0.4-0.2,0.4-0.4l0-0.6h-4c-0.2,0-0.4,0.1-0.5,0.2
										l-0.4,0.3c-0.1,0.1-0.2,0.1-0.3,0.1h-3.1l0,0C128,201.1,128.1,201.3,128.3,201.3z"/>
								</g>
								<path class="st40" d="M136.5,200.9l0-0.6h-3.1c0.1-1.2,0.5-1.6,0.7-2.2c0,0,1.4,0,1.8,0c0.1,0,0.1,0,0.1,0l0.1,0.5
									c0,0.2,0.1,0.4,0.1,0.6c0.2,0.7,0.3,1.1,0.3,1.1L136.5,200.9c0,0.2-0.2,0.4-0.4,0.4h-2.8v0h2.8
									C136.3,201.3,136.5,201.2,136.5,200.9z"/>
								<path class="st0" d="M136.4,200.4l0,0.6c0,0.2-0.2,0.4-0.4,0.4h-2.8c0-0.4,0-0.7,0.1-1H136.4z"/>
							</g>
							<polygon class="st41" points="131.7,201.3 132.6,201.3 132.2,201.1 							"/>
						</g>
						<path class="st42" d="M135.7,164l1.5,18.8l0.4,15.9c0,0.1,0.1,0.2,0.2,0.2h4.7c0.1,0,0.2-0.1,0.2-0.2l0.1-15.9L144,164H135.7z
							"/>
						<path class="st43" d="M136.5,164h-0.8l1.5,18.8l0.4,15.9c0,0.1,0.1,0.2,0.2,0.2h0.7l-0.4-15.5L136.5,164z"/>
						<path class="st42" d="M130.3,164.2l0.5,18.5l0.5,15.9c0,0.2,0.1,0.2,0.2,0.2h4.7c0.1,0,0.1-0.1,0.1-0.1l0.3-16l2-18.8
							L130.3,164.2z"/>
						<path class="st43" d="M130.9,164.2l-0.6,0l0.5,18.5l0.5,15.9c0,0.2,0.1,0.2,0.2,0.2h0.7l-0.7-16.1L130.9,164.2z"/>
						<path class="st38" d="M133.1,141.4h8.9c1.9,0,3.5,1.6,3.3,3.6c0,0-1.2,12.7-1.2,14.9c0,1.6,0.2,3.4,0.4,4.3
							c0,0.3-0.2,0.6-0.5,0.6h-13.3c-0.3,0-0.5-0.1-0.4-0.4c0.2-1.7,0.5-5.1,0.5-8.9c0-4.8-0.5-11-0.5-11
							C130,142.8,131.4,141.4,133.1,141.4z"/>
						<path class="st38" d="M130.5,142.9l-5.8,12.1c-0.7,1.4-0.2,2.9,0.9,3.4s2.7,0.2,3.4-1.1c1.6-2.8,4.8-8.3,6.1-11
							C137,142.4,131.7,140.7,130.5,142.9z"/>
						<g>
							<g>
								<path class="st44" d="M136.6,129c-1.9,0-4.2,1-4.2,5.4c0,3,0.5,4.5,0.8,5.2c0.1,0.3,0.4,0.5,0.7,0.5h3
									c1.1,0,4.7-1.3,4.7-5.6C141.6,131.7,140.3,129,136.6,129z"/>
								<path class="st45" d="M141.6,134.5c0,4.3-3.6,5.6-4.7,5.6H134c-0.2-0.2-0.4-0.6-0.6-0.8c-1.2-3.1-0.3-8.3-0.3-8.4
									c0,0,0.1-0.1,0.1-0.1c0,0,0,0,0,0c0.1-0.1,0.1-0.2,0.2-0.2c0.1-0.1,0.2-0.2,0.3-0.3c0.1-0.1,0.1-0.1,0.2-0.2
									c0,0,0.1-0.1,0.1-0.1c0,0,0.1-0.1,0.1-0.1c0,0,0.1-0.1,0.1-0.1c0.1-0.1,0.1-0.1,0.2-0.1c0,0,0.1,0,0.1-0.1
									c0.1,0,0.2-0.1,0.2-0.1c0,0,0.1,0,0.1,0c0.1,0,0.2-0.1,0.3-0.1c0,0,0.1,0,0.1,0c0.1,0,0.2-0.1,0.3-0.1c0,0,0.1,0,0.1,0
									c0.2,0,0.3-0.1,0.5-0.1c0,0,0.1,0,0.1,0c0.1,0,0.3,0,0.4,0C140.3,129,141.6,131.7,141.6,134.5z"/>
							</g>
							<path class="st45" d="M139.5,138.7c0,0-0.1,1,0.6,2.7h-5.2c0,0,0.9-1,0.9-2.7L139.5,138.7z"/>
							<path class="st43" d="M133.5,135.6c-0.6-0.5-0.3-1.8-0.6-2c-0.2-0.1-0.3-0.1-0.3-0.1c0,0-0.1,0-0.1-0.1
								c-0.2-0.3-1.2-2.1-0.6-4.4c0,0,0.3,0.8,1.4,0.4c0.7-0.3,5.8-2.6,8.1,1.3c0,0,2.7,3.9-1.3,7.9c-0.2,0.2-0.5,0.5-1.7,0.5
								c-3.9,0-3.9-1.8-3.9-1.8s0.8-0.5,0.4-1.6C134.1,133.8,133.5,135.6,133.5,135.6z"/>
							<path class="st28" d="M140.1,138.7c-0.2,0.2-0.5,0.5-1.7,0.5c-3.9,0-3.9-1.8-3.9-1.8s0.8-0.5,0.4-1.6
								c-0.7-1.9-1.3-0.1-1.3-0.1c-0.3-0.5,0-2.8-0.4-3c-0.2-0.1-0.3-0.1-0.4-0.2c-0.1,0-0.1,0-0.1-0.1c-0.2-0.3-0.8-1.5-0.8-3.3
								c0,0,0,0,0,0c0,0,0.3,0.8,1.4,0.4c0.7-0.3,5.8-2.6,8.1,1.3C141.4,130.7,144.1,134.6,140.1,138.7z"/>
							<path class="st30" d="M140.7,141.4l-0.3-0.6c-0.1-0.2-0.2-0.3-0.4-0.3h-3.3c-1.5,0-2.2,0.6-2.2,0.8H140.7z"/>
						</g>
						<path class="st30" d="M130.6,154.6L130.6,154.6c0,0.3,0,0.6,0,0.9c0,3.9-0.3,7.3-0.5,8.9c0,0.3,0.1,0.4,0.4,0.4
							C130.5,164.5,131.3,157.9,130.6,154.6z"/>
						<path class="st30" d="M125.3,154.7c0.3-0.6,5.2-10.6,5.6-11.5c0,0,0.8-1.5,2.7-1.5c0,0,7.8,0,9,0c1,0,1.7,0.6,1.8,0.8
							c-0.6-0.7-1.5-1.1-2.5-1.1h-8.9c-1.1,0-2,0.6-2.6,1.5c0,0,0,0.1,0,0.1l0,0c0,0.1-0.1,0.1-0.1,0.2l-5.6,11.8
							c-0.7,1.4-0.2,2.9,0.9,3.4c0.4,0.2,0.8,0.2,1.2,0.2c-0.5,0-0.9-0.1-1.5-0.6C124.3,157.2,124.9,155.5,125.3,154.7z"/>
					</g>
				</g>
			</g>
			<g>
				<path class="st26" d="M51.3,209.2c0,0.9,13.1,1.7,29.2,1.7c16.2,0,29.2-0.8,29.2-1.7c0-0.9-13.1-1.7-29.2-1.7
					C64.4,207.5,51.3,208.2,51.3,209.2z"/>
				<g>
					<g>
						<g>
							<path class="st46" d="M73.3,208.1v0.8c0,0,0,0,0,0.1c0,0.1-0.1,0.2-0.1,0.4c-0.1,0.2-0.3,0.3-0.5,0.3h-7.8
								c-0.1-0.1-0.2-0.2-0.2-0.4c0,0,0,0,0,0c0,0,0,0,0,0c0-0.1,0-0.2,0-0.3c0,0,0-0.1,0-0.1c0,0,0-0.1,0-0.1c0,0,0,0,0-0.1
								c0-0.2,0-0.4,0-0.5c0.1-0.8,0.6-0.8,1.4-1c1.4-0.3,1.3-0.9,1.7-1.4c0.2-0.2,0.4-0.3,0.7-0.3h3.8c0,0,0.1,0,0.1,0
								c0,0,0.1,0,0.1,0c0.1,0,0.1,0.1,0.2,0.1c0,0,0,0,0,0c0,0,0,0,0,0c0.1,0.1,0.1,0.1,0.1,0.2c0,0,0,0,0,0c0,0,0,0,0,0.1
								c0,0,0,0,0,0.1L73.3,208.1z"/>
							<path class="st47" d="M73.3,208.1v0.8c0,0,0,0,0,0.1c0,0.1-0.1,0.2-0.1,0.4c-0.1,0.2-0.3,0.3-0.5,0.3h-7.8
								c-0.1-0.1-0.2-0.2-0.2-0.4c0,0,0,0,0,0c0,0,0,0,0,0c0-0.1,0-0.2,0-0.3c0,0,0-0.1,0-0.1c0,0,0-0.1,0-0.1c0,0,0,0,0-0.1
								c0.8,0.2,2.6-0.1,3.9-1.5c0.7-0.8,1.3-1.3,1.9-1.5c0,0,0,0,0,0h1.9c0,0,0.1,0,0.1,0c0,0,0.1,0,0.1,0c0.1,0,0.1,0,0.2,0.1
								c0,0,0,0,0,0c0,0,0,0,0,0c0.1,0.1,0.1,0.1,0.1,0.2c0,0,0,0,0,0c0,0,0,0,0,0.1c0,0,0,0,0,0.1L73.3,208.1z"/>
						</g>
						<path class="st48" d="M68.4,166.9c0,0-1,37.9-1,39c0,1,5.9,1.3,5.9,0.3c0-0.6,1.2-17.7,1.2-17.7s2.8-20.3,2.9-21.6H68.4z"/>
						<g>
							<path class="st46" d="M77,208.1v0.8c0,0,0,0,0,0.1c0,0.1,0.1,0.2,0.1,0.4c0.1,0.2,0.3,0.3,0.5,0.3h7.8
								c0.1-0.1,0.2-0.2,0.2-0.4c0,0,0,0,0,0c0,0,0,0,0,0c0-0.1,0-0.2,0-0.3c0,0,0-0.1,0-0.1c0,0,0-0.1,0-0.1c0,0,0,0,0-0.1
								c0-0.2,0-0.4,0-0.5c-0.1-0.8-0.6-0.8-1.4-1c-1.4-0.3-1.3-0.9-1.7-1.4c-0.2-0.2-0.4-0.3-0.7-0.3h-3.8c0,0-0.1,0-0.1,0
								c0,0-0.1,0-0.1,0c-0.1,0-0.1,0.1-0.2,0.1c0,0,0,0,0,0c0,0,0,0,0,0c-0.1,0.1-0.1,0.1-0.1,0.2c0,0,0,0,0,0c0,0,0,0,0,0.1
								c0,0,0,0,0,0.1L77,208.1z"/>
							<path class="st47" d="M77,208.1v0.8c0,0,0,0,0,0.1c0,0.1,0.1,0.2,0.1,0.4c0.1,0.2,0.3,0.3,0.5,0.3h7.8
								c0.1-0.1,0.2-0.2,0.2-0.4c0,0,0,0,0,0c0,0,0,0,0,0c0-0.1,0-0.2,0-0.3c0,0,0-0.1,0-0.1c0,0,0-0.1,0-0.1c0,0,0,0,0-0.1
								c-0.8,0.2-2.6-0.1-3.9-1.5c-0.7-0.8-1.3-1.3-1.9-1.5c0,0,0,0,0,0h-1.9c0,0-0.1,0-0.1,0c0,0-0.1,0-0.1,0c-0.1,0-0.1,0-0.2,0.1
								c0,0,0,0,0,0c0,0,0,0,0,0c-0.1,0.1-0.1,0.1-0.1,0.2c0,0,0,0,0,0c0,0,0,0,0,0.1c0,0,0,0,0,0.1L77,208.1z"/>
						</g>
						<g>
							<path class="st48" d="M84.1,166.9c0,0-1.2,38.1-1.2,39.2c0,1-5.9,1.1-5.9,0.1c0-0.6-0.3-17.7-0.3-17.7s-1-20.3-1-21.6H84.1z"
								/>
						</g>
						<path class="st49" d="M83.3,166.9l-1.1,39.7c-1.1,0.4-3.5,0.4-4.7,0.1v-15.8c0-1.7-1.4-14.1-1.4-14.1s-2.5,12.2-2.7,14.4
							l-1.2,15.6c-1.3,0.2-3.4,0.1-4.4-0.3l1-39.4H83.3z"/>
					</g>
					<g>
						<g>
							<path class="st50" d="M76.3,141.5c-1.3,0-2.3,0-2.3,0v-5.7h4.6v5.7H76.3z"/>
							<g>
								<g>
									<path class="st50" d="M73.1,134.6c0,0.8-0.3,1.5-0.9,1.5c-0.6,0-0.5-0.2-0.7-1.5c-0.1-0.8-0.7-1.5,0.5-1.5
										C72.6,133.1,73.1,133.8,73.1,134.6z"/>
								</g>
								<g>
									<path class="st50" d="M79.4,134.6c0,0.8,0.3,1.5,0.9,1.5c0.6,0,0.5-0.2,0.7-1.5c0.1-0.8,0.7-1.5-0.5-1.5
										C79.9,133.1,79.4,133.8,79.4,134.6z"/>
								</g>
								<path class="st50" d="M76.3,127.2c-2.6,0-4.7,2-4.7,4.5l0.3,2.5c0.1,1.2,0.4,2.5,0.9,3.6c0.8,1.7,1.5,2.4,3.5,2.4
									c1.9,0,2.7-0.6,3.5-2.4c0.5-1.1,0.8-2.4,0.9-3.6l0.3-2.5C81,129.2,78.9,127.2,76.3,127.2z"/>
								<path class="st51" d="M79.8,128.3c-0.7-0.9-1.2-1.8-3.5-1.8c-2.3,0-3.7,1.3-4.4,2.2c-0.6,0.7-1.4,1.2-2.3,1.4
									c-0.2,0-0.3,0.1-0.3,0.1c1.1,0.3,1.7,0.6,1.7,0.6s-0.2,0-1.4,0.6c1.2,0.4,2.2,2.3,2.7,4.8c0.3,1.5,1.7,3.7,4,3.7
									c0,0,0,0,0,0c0,0,0,0,0,0c2.3,0,3.7-2.1,4-3.7c0.5-2.5,1.3-3.1,1.3-4.8C81.6,129.5,80.7,128.5,79.8,128.3z"/>
								<path class="st28" d="M81.6,131.1c0,1.8-0.8,2.3-1.3,4.8c-0.1,0.6-0.4,1.3-0.9,2c0,0,0,0.1-0.1,0.1c0,0,0,0.1-0.1,0.1
									c-0.7,0.9-1.7,1.5-3,1.5h0c-1.4,0-2.5-0.8-3.2-1.8c-0.4-0.6-0.7-1.3-0.8-1.9c-0.5-2.5-1.5-4.4-2.7-4.8
									c1.2-0.6,1.4-0.6,1.4-0.6c0,0-0.6-0.2-1.7-0.6c0,0,0,0,0,0s0.1,0,0.3-0.1c0.9-0.2,1.8-0.7,2.3-1.4c0.7-0.9,2.1-2.2,4.4-2.2
									c2.3,0,2.8,1,3.5,1.8C80.7,128.5,81.6,129.5,81.6,131.1z"/>
								<path class="st52" d="M73.1,137.9c-0.4-0.6-0.7-1.3-0.8-1.9c-0.5-2.5-1.5-4.4-2.7-4.8c1.2-0.6,1.4-0.6,1.4-0.6
									c0,0,0.3,0.3,0,0.4c-0.2,0-0.5,0.1-0.7,0.1C72.3,132.5,72.4,135.7,73.1,137.9z"/>
								<path class="st28" d="M81.6,131.1c0,1.8-0.8,2.3-1.3,4.8c-0.1,0.6-0.4,1.3-0.9,2c0.6-1,0.6-2.9,1.4-5.1c0.9-2.2-1.4-4-1.4-4
									s-1.3-1.6-3.5-1.6c-2.2,0-3.3,1.8-4.4,2.4c-1,0.6-2.2,0.4-2.3,0.4c0,0,0,0,0,0s0.1,0,0.3-0.1c0.9-0.2,1.8-0.7,2.3-1.4
									c0.7-0.9,2.1-2.2,4.4-2.2c2.3,0,2.8,1,3.5,1.8C80.7,128.5,81.6,129.5,81.6,131.1z"/>
							</g>
						</g>
						<polygon class="st53" points="78.6,140.4 76.3,140.4 73.9,140.4 73.1,141.5 76.3,141.3 79.4,141.5 						"/>
					</g>
					<path class="st54" d="M82.7,141.8c-0.5-0.2-1-0.3-1.5-0.3c0,0-1.9-0.2-4.9-0.2c-3,0-4.9,0.2-4.9,0.2c-0.7,0-1.4,0.2-2,0.6
						c-0.9,0.6-1.5,1.6-1.5,2.8l0.9,15.6l-0.6,7.5c0,0.2,0.1,0.4,0.3,0.5c0.6,0.3,2.4,0.8,7.4,0.8c5.2,0,7.4-0.5,8.1-0.8
						c0.2-0.1,0.3-0.3,0.3-0.5l-0.6-7.4l0.9-15.6C84.6,143.5,83.9,142.4,82.7,141.8z"/>
					<g>
						<g>
							<path class="st55" d="M64.4,170.9c0.4,0,1.7,1,1.7,1.5c0,0.5,0.4,3.8,0.1,4.5c0.2,0,0.5,0.3,0.4,0.6
								c-0.1,0.3-0.3,0.2-0.3,0.2s0.1,0.4-0.4,0.4c0,0-0.1,0.3-0.4,0.4c0,0,0,0.4-0.5,0.4c-0.6,0-1.3-0.3-1.4-0.4
								c-0.1-0.1-1.6-1.6-1.6-1.9c0-0.3,0.8-3.9,0.9-4.3C63,171.9,63.7,170.9,64.4,170.9z"/>
							<path class="st56" d="M64.2,177.8c0.1,0.1,0.6,0.3,0.8,0.4c0.2,0,0.4-0.2,0.3-0.3c0,0,0.5-0.1,0.3-0.3c0,0,0.5-0.1,0.4-0.3
								c0,0,0.5-0.2,0.3-0.4c0,0-0.3,0-0.4-0.4c-0.1-0.4-0.1-1.6-0.1-1.6s-0.5-0.8-0.6-1.5c0,0-0.4,1.7-1.7,2.2c0,0-0.1,1-0.1,1.1
								C63.4,176.7,64.1,177.8,64.2,177.8z"/>
						</g>
						<path class="st54" d="M71.2,141.5c-2.9,0-4.7,1.4-5.5,3.6c-0.8,2.2-3.1,14.2-3.1,14.2s-0.2,11.8-0.2,12.8c0,1,4.2,1.1,4.2,0
							c0.1-1.1,0.8-12.3,0.8-12.3s2.6-12.1,3.1-13.5C71,144.9,72.5,141.5,71.2,141.5z"/>
					</g>
					<g>
						<path class="st50" d="M97,169.1c0,0,1.1,0.9,1.3,1.3c0.2,0.3,0.4,1.1,0.4,1.5c-0.1,0.3-1,1-1.2,1c-0.2,0.1-0.6-0.5-0.3-0.8
							c0.3-0.3,0.7-0.6,0.7-0.6l-0.1-1L97,169.1z"/>
						<g>
							<g>
								<g>
									<rect x="92.2" y="171.6" class="st57" width="7.6" height="1"/>
									
										<rect x="91.6" y="172.3" transform="matrix(-1.836970e-16 1 -1 -1.836970e-16 265.5374 80.0738)" class="st57" width="2.3" height="1"/>
									
										<rect x="86.4" y="179.9" transform="matrix(-1.836970e-16 1 -1 -1.836970e-16 272.9982 87.5346)" class="st30" width="12.6" height="0.8"/>
									
										<rect x="92.6" y="180.8" transform="matrix(-1.836970e-16 1 -1 -1.836970e-16 273.9875 88.5239)" class="st8" width="0.2" height="0.8"/>
									
										<rect x="93" y="179.9" transform="matrix(-1.836970e-16 1 -1 -1.836970e-16 279.5339 80.999)" class="st30" width="12.6" height="0.8"/>
									
										<rect x="99.2" y="180.8" transform="matrix(-1.836970e-16 1 -1 -1.836970e-16 280.5231 81.9882)" class="st8" width="0.2" height="0.8"/>
									
										<rect x="98.1" y="172.3" transform="matrix(-1.836970e-16 1 -1 -1.836970e-16 272.0731 73.5382)" class="st57" width="2.3" height="1"/>
								</g>
								<path class="st57" d="M101.3,206.9H90.7c-1.1,0-2-0.9-2-2v-14.1c0-2.6,2.1-4.6,4.6-4.6h5.3c2.6,0,4.6,2.1,4.6,4.6v14.1
									C103.3,206,102.4,206.9,101.3,206.9z"/>
								<path class="st58" d="M101.3,207.3H90.7c-1.1,0-2-0.9-2-2v-14.1c0-2.6,2.1-4.6,4.6-4.6h5.3c2.6,0,4.6,2.1,4.6,4.6v14.1
									C103.3,206.4,102.4,207.3,101.3,207.3z"/>
								<path class="st59" d="M102.8,187.3v19c0,0.2-0.2,0.4-0.4,0.4H89.6c-0.2,0-0.4-0.2-0.4-0.4v-19c0.4-0.5,1-0.8,1.6-0.8h10.3
									C101.8,186.6,102.4,186.9,102.8,187.3z"/>
								<path class="st57" d="M103.3,197.9L103.3,197.9c-0.1,0-0.2-0.1-0.3-0.2c-0.1-2-1.8-3.6-3.9-3.6h-6.3c-2.1,0-3.7,1.6-3.9,3.6
									c0,0.1-0.1,0.2-0.3,0.2l0,0c0-2.3,1.9-4.1,4.1-4.1h6.3C101.4,193.8,103.3,195.7,103.3,197.9z"/>
								<path class="st57" d="M100,198.8h-8c-0.1,0-0.1-0.1-0.1-0.1v-0.1c0-0.1,0.1-0.1,0.1-0.1h8c0.1,0,0.1,0.1,0.1,0.1v0.1
									C100.1,198.7,100.1,198.8,100,198.8z"/>
								<rect x="93.1" y="190.1" class="st57" width="5.8" height="1.1"/>
							</g>
							<g>
								<path class="st54" d="M91,208.3h-0.2c-0.1,0-0.3-0.1-0.3-0.3v-0.8H91V208.3z"/>
								<path class="st54" d="M92.2,208.3h-0.2v-1h0.4v0.8C92.5,208.2,92.4,208.3,92.2,208.3z"/>
								
									<rect x="91.3" y="207" transform="matrix(6.123234e-17 -1 1 6.123234e-17 -115.9938 299.0206)" class="st54" width="0.4" height="1.1"/>
								<path class="st57" d="M91.7,209.5h-0.4c-0.2,0-0.3-0.2-0.3-0.3v-1.1c0-0.2,0.2-0.3,0.3-0.3h0.4c0.2,0,0.3,0.2,0.3,0.3v1.1
									C92.1,209.4,91.9,209.5,91.7,209.5z"/>
							</g>
							<g>
								<path class="st54" d="M101,208.3h0.2c0.1,0,0.3-0.1,0.3-0.3v-0.8H101V208.3z"/>
								<path class="st54" d="M99.8,208.3h0.2v-1h-0.4v0.8C99.5,208.2,99.6,208.3,99.8,208.3z"/>
								
									<rect x="100.3" y="207" transform="matrix(6.123234e-17 -1 1 6.123234e-17 -107.0214 307.993)" class="st54" width="0.4" height="1.1"/>
								<path class="st57" d="M100.3,209.5h0.4c0.2,0,0.3-0.2,0.3-0.3v-1.1c0-0.2-0.2-0.3-0.3-0.3h-0.4c-0.2,0-0.3,0.2-0.3,0.3v1.1
									C99.9,209.4,100.1,209.5,100.3,209.5z"/>
							</g>
						</g>
						<path class="st50" d="M92.7,169.8c0,0,0.3,1.3,0.4,1.8c0.1,0.5,0.2,1,0.2,1.1c0.1,0.2,0.5,0.6,0.8,0.6c0.3,0,0.5-0.2,0.5-0.2
							s0.2,0.2,0.5,0.2s0.7-0.2,0.7-0.2s0.4,0.2,0.6,0.2c0.2,0,0.6-0.2,0.6-0.2s0.3,0.2,0.5,0.2c0.5,0,0.7-0.3,0.8-0.6
							c0-0.1,0-2.1-0.2-2.4c-0.5-0.7-1.9-1.9-2.1-2.2c-0.2-0.3-1.5-1.6-2.9-1C91.7,167.8,92.7,169.8,92.7,169.8z"/>
						<path class="st54" d="M81.5,141.5c1.2,0,4,0.8,4.7,3c0.8,2.2,4.5,14.9,4.5,14.9s5,7.6,5.4,8.5c0.5,1-3.4,2.9-3.9,1.9
							c-0.8-1.3-6-8.5-6-8.5s-4.7-14.6-5.3-16C80.4,143.8,80.1,141.5,81.5,141.5z"/>
					</g>
					<path class="st60" d="M97.7,171l-4.5-0.5l-0.3-0.4l-6.2-8.8c-0.1-0.2-0.2-0.4-0.3-0.6l-2.9-8.2l-0.7,7.3c0,0.4,0,0.9,0,1.4
						l0.4,7.4c-1.1,0.3-3.3,0.6-7.4,0.6c-4.1,0-6-0.3-6.9-0.6c0,0,0.5-7.3,0.5-8.3c0-1-0.9-7.5-0.9-7.5l-1.7,6.3
						c-0.1,0.3-0.1,0.6-0.2,1l-0.5,12.5l-0.1,1.4l-3.4-0.7l0-0.8l0.3-12.9c0-0.3,0-0.5,0.1-0.8c0.4-2.2,2.4-13.2,2.9-14.1
						c0.6-1,1.6-2.9,5.2-2.9H81c1.1,0,3.8,0.5,4.6,2.6c0.8,2.2,4.3,14.4,4.6,15c0.2,0.4,3.7,5.7,5.9,8.9C97,170,97.7,171,97.7,171z"
						/>
				</g>
			</g>
			<rect id="background_1_" x="-124.1" y="-80.1" class="st24" width="582.5" height="411.9"/>
		</g>
	</g>
	<path class="st30" d="M195.3,0.4H38.3C17.2,0.4,0.1,17.6,0.1,38.6v157.1c0,23.1,18.8,41.9,41.9,41.9h153.4
		c23.1,0,41.9-18.8,41.9-41.9V42.3C237.2,19.2,218.4,0.4,195.3,0.4z M230.4,195.7c0,19.4-15.7,35.1-35.1,35.1H42
		c-19.4,0-35.1-15.7-35.1-35.1V41.1c0-18.8,15.2-34,34-34h154.5c19.4,0,35.1,15.7,35.1,35.1V195.7z"/>
</g>
</svg>
