<?xml version="1.0" encoding="UTF-8"?><svg id="a" xmlns="http://www.w3.org/2000/svg" xmlns:xlink="http://www.w3.org/1999/xlink" viewBox="0 0 105.61 213.78"><defs><style>.ab{fill:#f4dd6a;}.ac{fill:url(#t);}.ad{fill:url(#j);}.ad,.ae,.af,.ag,.ah,.ai,.aj,.ak,.al,.am,.an,.ao,.ap,.aq,.ar,.as,.at,.au,.av,.aw{isolation:isolate;}.ad,.ae,.aj,.am,.an,.ao,.ap,.as,.aw{opacity:.2;}.ae{fill:url(#i);}.ax,.af{fill:#fff;}.af{opacity:.1;}.ag{fill:url(#a`);}.ag,.al,.ar{opacity:.6;}.ah{fill:url(#w);}.ah,.ak,.av{opacity:.4;}.ay{opacity:.5;}.ai{fill:url(#l);}.ai,.at{opacity:.15;}.aj{fill:url(#n);}.b`{fill:url(#m);}.ba{fill:#570f17;}.ak{fill:url(#r);}.bb{fill:url(#p);}.bc{fill:url(#b);}.al{fill:url(#f);}.bd{fill:#9e8e32;}.am{fill:url(#e);}.be{fill:url(#d);}.bf{fill:#608298;}.an{fill:url(#v);}.ao{fill:url(#k);}.ap{fill:url(#g);}.bg{fill:#191919;}.aq{fill:url(#y);}.aq,.au{opacity:.3;}.ar{fill:url(#u);}.as{fill:url(#s);}.bh{fill:url(#o);}.at{fill:url(#c);}.au{fill:url(#aa);}.bi{fill:url(#q);}.av{fill:url(#h);}.aw{fill:url(#x);}</style><linearGradient id="b" x1="1288.96" y1="-7544.68" x2="1358.83" y2="-7544.15" gradientTransform="translate(-1290.24 -7415.73) scale(1 -1)" gradientUnits="userSpaceOnUse"><stop offset="0" stop-color="#7a7a80"/><stop offset="1" stop-color="#2a2829"/></linearGradient><linearGradient id="c" x1="1340.5" y1="-7538.76" x2="1353.31" y2="-7538.76" gradientTransform="translate(-1290.24 -7415.73) scale(1 -1)" gradientUnits="userSpaceOnUse"><stop offset="0" stop-color="#fff"/><stop offset="1" stop-color="#fff"/></linearGradient><linearGradient id="d" x1="1302.82" y1="-7609.26" x2="1344.46" y2="-7609.05" gradientTransform="translate(-1290.24 -7415.73) scale(1 -1)" gradientUnits="userSpaceOnUse"><stop offset="0" stop-color="#facc1f"/><stop offset="1" stop-color="#da9828"/></linearGradient><linearGradient id="e" x1="1314.08" y1="-7603.18" x2="1356.52" y2="-7601.94" xlink:href="#c"/><linearGradient id="f" x1="1304.25" y1="-7605.17" x2="1345.32" y2="-7605.07" xlink:href="#c"/><linearGradient id="g" x1="6760.37" y1="-7458.8" x2="6703.19" y2="-7459.89" gradientTransform="translate(6689.95 -7458.65) rotate(179.39)" xlink:href="#c"/><linearGradient id="h" x1="1299.2" y1="-7500.36" x2="1299.33" y2="-7592" gradientTransform="translate(-1290.24 -7415.73) scale(1 -1)" gradientUnits="userSpaceOnUse"><stop offset="0" stop-color="#fff"/><stop offset=".86" stop-color="#fff"/><stop offset="1" stop-color="#fff"/></linearGradient><linearGradient id="i" x1="1352.06" y1="-7500.23" x2="1352.19" y2="-7591.86" xlink:href="#h"/><linearGradient id="j" x1="1352.09" y1="-7500.23" x2="1352.22" y2="-7591.86" xlink:href="#h"/><linearGradient id="k" x1="1312.03" y1="-7605.57" x2="1311.98" y2="-7616.81" gradientTransform="translate(-1290.24 -7415.73) scale(1 -1)" gradientUnits="userSpaceOnUse"><stop offset="0" stop-color="#fff"/><stop offset=".07" stop-color="#fff"/><stop offset=".52" stop-color="#fff"/><stop offset=".93" stop-color="#fff"/><stop offset="1" stop-color="#fff"/></linearGradient><linearGradient id="l" x1="1348.99" y1="-7601.59" x2="1348.92" y2="-7616.07" xlink:href="#c"/><linearGradient id="m" x1="1290.49" y1="-7600.39" x2="1319.3" y2="-7602.22" gradientTransform="translate(-1290.24 -7415.73) scale(1 -1)" gradientUnits="userSpaceOnUse"><stop offset="0" stop-color="#d02727"/><stop offset="1" stop-color="#670918"/></linearGradient><linearGradient id="n" x1="1312.12" y1="-7462.54" x2="1311.86" y2="-7603.44" xlink:href="#k"/><linearGradient id="o" x1="61.85" y1="94.22" x2="92.99" y2="94.22" gradientTransform="matrix(1, 0, 0, 1, 0, 0)" xlink:href="#d"/><linearGradient id="p" x1="1298.07" y1="-7449.07" x2="1350.66" y2="-7446.67" xlink:href="#b"/><linearGradient id="q" x1="1306.03" y1="-7465.82" x2="1339.38" y2="-7465.01" xlink:href="#d"/><linearGradient id="r" x1="1314.41" y1="-7459.98" x2="1314.23" y2="-7471.89" xlink:href="#k"/><linearGradient id="s" x1="1315.56" y1="-7424.47" x2="1314.25" y2="-7457.16" xlink:href="#k"/><linearGradient id="t" x1="1298.51" y1="-7459.61" x2="1337.92" y2="-7459.02" xlink:href="#m"/><linearGradient id="u" x1="1305.22" y1="-7459.84" x2="1342.17" y2="-7459.84" xlink:href="#c"/><linearGradient id="v" x1="1306.74" y1="-7458.25" x2="1343.14" y2="-7458.25" xlink:href="#c"/><linearGradient id="w" x1="1305.49" y1="-7442.96" x2="1307.98" y2="-7442.96" xlink:href="#h"/><linearGradient id="x" x1="7467.75" y1="1349.6" x2="7470.23" y2="1349.6" gradientTransform="translate(7290.87 -2259.12) rotate(172.72) scale(1 -1)" xlink:href="#h"/><linearGradient id="y" x1="1319.96" y1="-7424.86" x2="1344.79" y2="-7424.94" xlink:href="#c"/><linearGradient id="a`" x1="1305.07" y1="-7465.89" x2="1305.91" y2="-7465.85" xlink:href="#k"/><linearGradient id="aa" x1="6941.07" y1="1431.67" x2="6941.91" y2="1431.72" gradientTransform="translate(6996.37 -1381.84) rotate(-180) scale(1 -1)" xlink:href="#k"/></defs><path class="ay" d="M38.39,211.16c-24,0-28.41-3.96-29.6-8.23-.21-.76-.34-1.22-.53-11.65,0-.07,0-.14,0-.21-.45-24.6-1.02-111.69-.27-116.02,.38-2.22,2.16-8.01,4.43-12.37-.09-.4-.14-.81-.14-1.24,0-1.48,.57-2.88,1.62-3.93,.16-.16,.34-.32,.52-.46,0,0,.01-1.68,.01-1.71l.04-2.1,.07-2.49c.02-.68,.09-2.74,.09-2.74,.25-6.58,.67-14.39,1.14-20.9,.87-12.17,1.35-13,1.95-14.04,2.21-3.86,7.72-5.23,21.85-5.43,.59,0,1.18-.01,1.75-.01,5.77,0,10.62,.4,14.04,1.15,.06,.01,.13,.03,.19,.04,.29,.07,.56,.13,.83,.2,.04,0,.09,.02,.13,.04,.31,.08,.56,.16,.8,.24l.27,.09c.25,.09,.49,.17,.71,.26,.11,.04,.19,.08,.27,.11,.28,.12,.58,.27,.86,.41,.09,.05,.24,.14,.33,.19,.21,.12,.46,.29,.69,.47,.11,.08,.23,.18,.34,.27,.33,.28,.65,.6,.92,.96,.04,.05,.08,.11,.12,.16,.27,.38,.49,.79,.67,1.26,.03,.09,.08,.22,.11,.31,.02,.07,.08,.24,.13,.44,0,.03,.04,.15,.04,.15,.07,.28,.14,.65,.22,1.09,0,0,.1,.67,.1,.68,.07,.46,.12,.91,.18,1.4,0,0,.19,1.73,.19,1.76l.19,2.04c.05,.6,.23,2.71,.23,2.71l.33,4.29s.27,3.91,.27,3.92l.26,4.13,.16,2.66-4.98,.42,4.99-.29s.22,3.97,.29,5.24l.25,5.06-4.99,.35,4.99-.23,.14,3.28-4.99,.35,5-.19,.09,2.6,5.65-.03c.22-.33,.45-.61,.67-.85,1.24-1.34,2.99-2.1,4.93-2.15,.46-.03,1.93-.11,3.68-.11,5.81,0,8.01,.91,9.27,1.7,3.27,2.04,5.73,5.45,6.75,9.34,.39,1.5,.69,4.47,1.28,10.53,.58,5.99,1.31,13.44,2.28,19.74,.43,2.75,.84,5.24,1.22,7.48,1.48,8.8,2.22,13.22,.76,16.5-1.8,4.05-4.88,6.62-10.65,8.86-1.44,.56-3.31,1.21-5.29,1.91-1.89,.66-4.8,1.68-7,2.55,.48,2.84,.58,7.53-1.46,9.62-.26,1.16-.79,2.33-1.88,3.24-.82,.68-1.86,1.13-2.88,1.42l.03,19.56-.03,11.98-.1,12.56v.88c-.01,.06-.01,.25-.01,.28l-.06,3.48c-.01,.7-.08,2.98-.08,2.98-.03,1.09-.07,2.03-.11,2.8,0,0,0,.17,0,.18-.02,.45-.05,.81-.08,1.12v.04c-.1,1.15-.24,1.98-.67,2.84-.27,.55-.64,1.07-1.09,1.55,0,0-.13,.14-.19,.2-.34,.34-.73,.66-1.18,.96-.03,.02-.14,.1-.18,.12-.35,.22-.73,.44-1.16,.65l-.12,.06c-.4,.19-.8,.36-1.24,.52l-.2,.07c-.35,.13-.77,.27-1.22,.4l-.17,.05c-.43,.12-.88,.25-1.36,.36l-.12,.03c-.52,.12-1.01,.23-1.54,.34l-.15,.03c-.52,.1-1.07,.2-1.64,.3-.02,0-.04,0-.06,.01-5.55,.92-13.14,1.4-21.94,1.4ZM72.04,73.79c.1,.44,.17,.79,.22,1.12,.01,.09,.04,.3,.06,.57l.08,2,.14,7.34,.2,16.19,.13,15.39c4.1-1.65,10.24-4.17,13.22-5.74,0,0-.07-1.11-.1-1.51l-.11-1.4-.2-2.25c-.07-.8-.15-1.64-.24-2.52l-.21-2.04c-1.49-14.45-3.25-26.56-4.28-31.15-.09,0-.18,0-.26,0-.3,0-.59,0-.88-.01-.42,0-.82,0-1.19-.02-.9-.03-1.97-.12-3.05-.51-.6-.22-1.17-.54-1.71-.97-.03-.03-.07-.05-.1-.08-.1-.08-.25-.22-.35-.32-.19-.18-.38-.37-.58-.6-.08-.09-.17-.2-.26-.32-.06-.08-.12-.15-.17-.23h-2.82l.21,.5c.1,.25,.48,1.18,.48,1.18,.11,.29,.46,1.2,.46,1.2,.14,.37,.26,.71,.37,1.04,0,0,.29,.86,.36,1.08,0,0,.26,.85,.31,1.02l.22,.8c.02,.08,.04,.16,.05,.23Z"/><path class="ax" d="M33.39,206.16c-24,0-28.41-3.96-29.6-8.23-.21-.76-.34-1.22-.53-11.65,0-.07,0-.14,0-.21-.45-24.6-1.02-111.69-.27-116.02,.38-2.22,2.16-8.01,4.43-12.37-.09-.4-.14-.81-.14-1.24,0-1.48,.57-2.88,1.62-3.93,.16-.16,.34-.32,.52-.46,0,0,.01-1.68,.01-1.71l.04-2.1,.07-2.49c.02-.68,.09-2.74,.09-2.74,.25-6.58,.67-14.39,1.14-20.9,.87-12.17,1.35-13,1.95-14.04,2.21-3.86,7.72-5.23,21.85-5.43,.59,0,1.18-.01,1.75-.01,5.77,0,10.62,.4,14.04,1.15,.06,.01,.13,.03,.19,.04,.29,.07,.56,.13,.83,.2,.04,0,.09,.02,.13,.04,.31,.08,.56,.16,.8,.24l.27,.09c.25,.09,.49,.17,.71,.26,.11,.04,.19,.08,.27,.11,.28,.12,.58,.27,.86,.41,.09,.05,.24,.14,.33,.19,.21,.12,.46,.29,.69,.47,.11,.08,.23,.18,.34,.27,.33,.28,.65,.6,.92,.96,.04,.05,.08,.11,.12,.16,.27,.38,.49,.79,.67,1.26,.03,.09,.08,.22,.11,.31,.02,.07,.08,.24,.13,.44,0,.03,.04,.15,.04,.15,.07,.28,.14,.65,.22,1.09,0,0,.1,.67,.1,.68,.07,.46,.12,.91,.18,1.4,0,0,.19,1.73,.19,1.76l.19,2.04c.05,.6,.23,2.71,.23,2.71l.33,4.29s.27,3.91,.27,3.92l.26,4.13,.16,2.66-4.98,.42,4.99-.29s.22,3.97,.29,5.24l.25,5.06-4.99,.35,4.99-.23,.14,3.28-4.99,.35,5-.19,.09,2.6,5.65-.03c.22-.33,.45-.61,.67-.85,1.24-1.34,2.99-2.1,4.93-2.15,.46-.03,1.93-.11,3.68-.11,5.81,0,8.01,.91,9.27,1.7,3.27,2.04,5.73,5.45,6.75,9.34,.39,1.5,.69,4.47,1.28,10.53,.58,5.99,1.31,13.44,2.28,19.74,.43,2.75,.84,5.24,1.22,7.48,1.48,8.8,2.22,13.22,.76,16.5-1.8,4.05-4.88,6.62-10.65,8.86-1.44,.56-3.31,1.21-5.29,1.91-1.89,.66-4.8,1.68-7,2.55,.48,2.84,.58,7.53-1.46,9.62-.26,1.16-.79,2.33-1.88,3.24-.82,.68-1.86,1.13-2.88,1.42l.03,19.56-.03,11.98-.1,12.56v.88c-.01,.06-.01,.25-.01,.28l-.06,3.48c-.01,.7-.08,2.98-.08,2.98-.03,1.09-.07,2.03-.11,2.8,0,0,0,.17,0,.18-.02,.45-.05,.81-.08,1.12v.04c-.1,1.15-.24,1.98-.67,2.84-.27,.55-.64,1.07-1.09,1.55,0,0-.13,.14-.19,.2-.34,.34-.73,.66-1.18,.96-.03,.02-.14,.1-.18,.12-.35,.22-.73,.44-1.16,.65l-.12,.06c-.4,.19-.8,.36-1.24,.52l-.2,.07c-.35,.13-.77,.27-1.22,.4l-.17,.05c-.43,.12-.88,.25-1.36,.36l-.12,.03c-.52,.12-1.01,.23-1.54,.34l-.15,.03c-.52,.1-1.07,.2-1.64,.3-.02,0-.04,0-.06,.01-5.55,.92-13.14,1.4-21.94,1.4ZM67.04,68.79c.1,.44,.17,.79,.22,1.12,.01,.09,.04,.3,.06,.57l.08,2,.14,7.34,.2,16.19,.13,15.39c4.1-1.65,10.24-4.17,13.22-5.74,0,0-.07-1.11-.1-1.51l-.11-1.4-.2-2.25c-.07-.8-.15-1.64-.24-2.52l-.21-2.04c-1.49-14.45-3.25-26.56-4.28-31.15-.09,0-.18,0-.26,0-.3,0-.59,0-.88-.01-.42,0-.82,0-1.19-.02-.9-.03-1.97-.12-3.05-.51-.6-.22-1.17-.54-1.71-.97-.03-.03-.07-.05-.1-.08-.1-.08-.25-.22-.35-.32-.19-.18-.38-.37-.58-.6-.08-.09-.17-.2-.26-.32-.06-.08-.12-.15-.17-.23h-2.82l.21,.5c.1,.25,.48,1.18,.48,1.18,.11,.29,.46,1.2,.46,1.2,.14,.37,.26,.71,.37,1.04,0,0,.29,.86,.36,1.08,0,0,.26,.85,.31,1.02l.22,.8c.02,.08,.04,.16,.05,.23Z"/><g><g><path class="bc" d="M14.28,56.78s39.87-.83,41.67,0,5.95,10.94,6.37,13.84c.42,2.91,1.38,123.34,.14,125.83-1.25,2.49-12.46,4.43-29.21,4.43s-23.95-2.08-24.64-4.57c-.69-2.49-1.38-121.4-.69-125.41s4.71-13.98,6.37-14.12Z"/><path class="at" d="M62.86,188.84c.57-26.91-.19-115.73-.54-118.22-.42-2.91-4.57-13.01-6.37-13.84-.39-.18-2.55-.28-5.69-.33,1.01,3.04,4.62,14.01,4.8,15.62,.2,1.87-.73,117.53-.73,117.53l8.54-.76Z"/><path class="be" d="M8.61,196.59c.69,2.49,8.03,4.57,24.78,4.57s27.82-1.8,29.07-4.29c.22-.45,.37-4.67,.47-11.33-1.33,.94-7,3.76-27.19,3.99-20.4,.23-26.33-2.64-27.48-3.35,.11,6.12,.23,9.98,.35,10.41Z"/><path class="am" d="M9.16,185.93s3.32,2.63,20.63,3.18,27.27-1.94,30.87-3.18c0,0-10.66,2.77-26.85,2.49-16.2-.28-24.92-3.46-24.64-2.49Z"/><path class="al" d="M10.34,187.8s5.26,2.49,24.09,2.63c18.83,.14,25.95-2.98,25.95-2.98,0,0-6.92,3.32-24.22,3.74s-23.95-1.8-25.82-3.39Z"/><path class="af" d="M55.95,56.78c-1.8-.83-41.67,0-41.67,0-1.66,.14-5.68,10.1-6.37,14.12,.97,1.8,5.81,1.66,19.1,2.21s32.81-1.25,34.47-1.94c.44-.18,.63-.72,.65-1.41-.91-3.65-4.54-12.22-6.19-12.99Z"/><path class="ap" d="M61.34,71.04s-4.29,1.45-23.8,1.93c-19.51,.49-27.27-1.66-27.27-1.66,0,0,23.14,2.1,51.07-.27Z"/><path class="av" d="M8.88,84.33l.05,2.83,.04,2.83,.08,5.67,.11,11.33c.04,3.78,.05,7.56,.07,11.33l.06,11.33v17l.02,2.83v2.83l-.05,11.33-.05,5.67-.02,2.83-.03,2.83-.05-2.83-.04-2.83-.08-5.67-.11-11.33-.03-2.83-.02-2.83-.03-5.67-.06-11.33v-11.33c0-3.78-.03-7.56,0-11.33l.04-11.33,.04-5.67,.02-2.83,.03-2.83Z"/><path class="ae" d="M61.62,118.33c.16-.15,.33-.29,.5-.42-.02-3.68-.03-7.37-.07-11.05l-.11-11.33-.08-5.67-.04-2.83-.05-2.83-.03,2.83-.02,2.83-.04,5.67-.04,11.33c-.02,3.78,0,7.56,0,11.33v.14Z"/><path class="ad" d="M62.19,140.85v-2.81c-.18-.2-.36-.4-.52-.62l.02,3.42,.03,5.67,.02,2.83,.03,2.83,.11,11.33,.08,5.67,.04,2.83,.05,2.83,.03-2.83,.02-2.83,.05-5.67,.04-11.33v-11.33Z"/><path class="ao" d="M14.76,189.56s-.06,8.69,.21,9.38,13.01,2.21,13.43,1.66,.42-9.97,.42-9.97l-14.05-1.07Z"/><path class="ai" d="M62.45,196.87c.22-.44,.37-4.66,.47-11.29l-.11,.03c-.78,.52-2.74,1.49-7.17,2.34l-1.05,.34s.22,10.24-.08,11.53c4.56-.75,7.35-1.78,7.94-2.96Z"/><path class="b`" d="M62.92,185.33s-.08,.01-.12,.04c-.67,.47-2.4,1.39-6.44,2.23-5.05,1.05-11.99,1.63-20.63,1.73-20.55,.24-26.4-2.72-27.37-3.31-.03-.02-.07-.03-.11-.03,0,.15,0,.3,0,.45,1.52,.88,7.35,3.32,25.13,3.32,.76,0,1.54,0,2.34-.01,8.66-.1,15.63-.68,20.71-1.74,3.89-.81,5.69-1.7,6.47-2.21,0-.15,0-.31,0-.46Z"/><path class="aj" d="M20.65,58.44s-5.46,11.92-5.91,14.34-1.15,111.63-.04,113.01c1.11,1.38,11.94,3.15,13.24,1.78,1.3-1.37-1.61-111.55-.92-114.46s2.91-13.84,2.35-14.67c-.97-1.46-8.72,0-8.72,0Z"/></g><path class="bf" d="M12.83,56.99c-.31,0-.55-.25-.55-.55,0-.31,.25-.55,.55-.55h0l59.11-.28h0c.31,0,.55,.25,.55,.55s-.25,.55-.55,.55l-59.11,.28h0Z"/><g><path class="ba" d="M62.93,118.99c-.12-.06-.38-.07-.89,.5-1.11,1.25-.83,16.2-.28,17.16,.26,.46,.73,.77,1.26,.82-.02-6.19-.06-12.44-.1-18.48Z"/><path class="bg" d="M67.02,125.16s1.8,.28,2.21,1.11,.42,5.54,0,5.95-2.77,.69-2.77,.69l.55-7.75Z"/><path class="bh" d="M72.14,52.63s7.89-.55,10.1,.83,3.88,3.74,4.57,6.37c.69,2.63,1.66,18.13,3.46,29.76,1.8,11.63,3.46,18.69,2.35,21.18s-2.91,4.29-7.89,6.23c-4.98,1.94-16.33,5.4-16.75,6.92-.42,1.52,.55,10.52-.28,11.21-.83,.69-4.98,1.25-5.4,.28s-.97-15.64,.42-16.47,22.84-8.72,23.39-10.8c.55-2.08-4.29-46.1-6.37-47.48-2.08-1.38-5.95-.55-7.47-1.11-1.52-.55-3.88-6.92-.14-6.92Z"/><path class="bd" d="M87.65,110.49c1.66-2.63-4.84-48.17-6.37-50.66-1.52-2.49-6.92-1.38-8.86-1.94-1.28-.37-1.96-1.76-2.27-2.66,.14,1.83,1.27,4.01,2.13,4.32,1.52,.55,5.4-.28,7.47,1.11s6.92,45.4,6.37,47.48-22.01,9.97-23.39,10.8c-1.38,.83-.83,15.5-.42,16.47,.11,.26,.49,.41,.99,.48-.56-1.68-1.24-11.66-.71-13.63,.55-2.08,23.66-9.56,25.05-11.77Z"/><path class="ab" d="M66.88,132.64s-.83-8.86,.14-9.97,19.93-7.2,22.42-9c0,0-.97,1.52-9.14,4.43-8.17,2.91-12.46,4.43-12.74,5.26s-.69,9.27-.69,9.27Z"/><path class="ab" d="M86.26,60.66s-1.66-6.23-5.26-7.06c-2.59-.6-10.1-1.11-9.97,.28s8.5,.27,10.52,1.11c1.66,.69,4.15,4.15,4.71,5.68Z"/><path class="ab" d="M82.66,61.9c-.07,.27,6.23,35.99,5.95,47.06,0,0,1.11-3.6-.42-16.47-1.52-12.87-5.4-31.15-5.54-30.59Z"/></g><g><path class="bb" d="M14.7,55.95s40.42,.42,40.97-.42c.55-.83-1.8-43.88-2.91-45.4s-8.03-2.63-18.13-2.49c-10.11,.14-16.47,.97-17.58,2.91s-3.46,45.26-2.35,45.4Z"/><path class="bi" d="M14.7,55.95s40.42,.42,40.97-.42c.19-.28,.04-5.32-.27-11.95-20.99-.82-37.83-.23-40.79-.11-.26,7.05-.3,12.43,.09,12.48Z"/><path class="ak" d="M18.85,55.26s-.28-10.8,.28-11.07,10.1-.69,10.1,.14,.28,10.8,0,11.07-10.38,.14-10.38-.14Z"/><path class="as" d="M18.99,42.38s1.25-32.25,2.91-32.94c1.66-.69,7.2-1.25,7.2-.55s.42,32.81-.28,33.08-9.83,.42-9.83,.42Z"/><path class="af" d="M52.77,10.13c-.4-.55-1.54-1.04-3.31-1.44,.14,3.7,1.41,34.51,1.32,34.72-.04,.1,2.22,.16,4.63,.19-.62-13.11-1.9-32.45-2.64-33.47Z"/><path class="ac" d="M55.39,43.31c-20.86-.81-37.58-.24-40.77-.11,0,.19-.01,.37-.02,.55,0,0,.01,0,.02,0,3.14-.12,19.88-.7,40.77,.11h.02c0-.18-.02-.37-.03-.55Z"/><path class="af" d="M50.95,55.9c2.8-.08,4.61-.2,4.72-.37,.18-.28,.05-5.26-.26-11.84l-2.85-.21c-.58-.02-1.16-.04-1.73-.06,.03,1,.37,11.77,.12,12.48h0Z"/><path class="ar" d="M14.98,44.05s8.03-.28,17.58-.28,19.38,.42,19.38,.42c0,0-14.53,.14-18.41,.14s-17.58,.42-18.55-.28Z"/><path class="an" d="M52.9,43.08s-21.46-1.25-36.41-.28c0,0,5.68-2.08,36.41,.28Z"/><path class="ah" d="M15.53,40.86c.02-2.28,.1-4.56,.2-6.84,.05-1.14,.11-2.28,.17-3.41l.21-3.41,.25-3.41c.09-1.14,.18-2.27,.29-3.41,.22-2.27,.45-4.54,.81-6.79l-.52,6.41c-.06,1.14-.14,2.27-.2,3.41l-.22,3.41-.24,3.41c-.09,1.14-.17,2.27-.26,3.41-.18,2.27-.24,4.96-.49,7.22Z"/><path class="aw" d="M52.55,13.03c.27,2.27,.48,4.53,.67,6.81,.1,1.14,.18,2.27,.26,3.41l.23,3.41,.18,3.41c.05,1.14,.11,2.28,.14,3.42,.07,2.28,.13,4.56,.06,6.84l-.3-6.42c-.09-1.14-.15-2.27-.23-3.41l-.21-3.41-.19-3.41c-.06-1.14-.12-2.27-.17-3.41-.11-2.28-.39-4.95-.43-7.23Z"/><path class="aq" d="M19.13,10.13c.6-.32,1.24-.57,1.91-.74l.25-.07,.25-.06,.5-.12,1.01-.21c1.35-.26,2.71-.42,4.07-.55l1.02-.09c.34-.03,.68-.04,1.02-.07l1.02-.06,1.02-.04,1.02-.03h1.02c.68-.02,1.37-.03,2.05-.02,1.37,.01,2.73,.04,4.1,.1,.68,.04,1.36,.07,2.05,.12l1.02,.07,1.02,.1c.34,.03,.68,.07,1.02,.11,.34,.04,.68,.08,1.02,.12l1.02,.15c.34,.05,.67,.11,1.01,.17,.67,.12,1.34,.25,2.01,.41,.67,.15,1.32,.35,1.96,.58-.33-.1-.66-.17-.99-.24-.33-.07-.67-.13-1-.19-.34-.05-.67-.11-1.01-.16-.34-.04-.67-.1-1.01-.13-1.35-.17-2.7-.29-4.06-.38l-1.02-.07-1.02-.05c-.68-.04-1.36-.06-2.04-.08-1.36-.04-2.72-.07-4.08-.07-.68-.01-1.36,0-2.04,0h-1.02l-1.02,.03-1.02,.02-1.02,.04c-.68,.02-1.36,.06-2.04,.1-1.36,.09-2.71,.2-4.06,.39l-1.01,.15-.5,.09-.25,.05-.25,.05c-.33,.07-.66,.15-.99,.24-.33,.09-.65,.2-.96,.35Z"/><path class="ag" d="M15.25,55.4c-.09-.87-.16-1.75-.19-2.63-.04-.88-.06-1.75-.07-2.63,0-.88,.01-1.76,.05-2.63,.04-.88,.11-1.75,.21-2.63l.02,5.26v2.63c0,.88,0,1.75-.02,2.63Z"/><path class="au" d="M54.88,44.6c.09,.87,.16,1.75,.19,2.63,.04,.88,.06,1.75,.07,2.63,0,.88-.01,1.76-.05,2.63-.04,.88-.11,1.75-.21,2.63l-.02-5.26v-2.63c0-.88,0-1.75,.02-2.63Z"/></g></g></svg>