<?xml version="1.0" encoding="UTF-8"?><svg xmlns="http://www.w3.org/2000/svg" viewBox="0 0 226.85 121.89"><defs><style>.b{fill:#fff;}.c{fill:#ffe423;}.d{opacity:.5;}.e{fill:#e5ae09;}.f{isolation:isolate;}.g{fill:#ffcf03;}.h{fill:#f2f2f2;mix-blend-mode:multiply;}.i{fill:#ffb806;}</style></defs><g class="f"><g id="a"><g><path class="d" d="M11.91,119.65c-2.76,0-5-2.24-5-5V12.23c0-2.76,2.24-5,5-5H219.94c1.33,0,2.6,.53,3.54,1.46,.94,.94,1.46,2.21,1.46,3.54V114.65c0,2.76-2.24,5-5,5H11.91Z"/><path class="b" d="M6.91,114.65c-2.76,0-5-2.24-5-5V7.23c0-2.76,2.24-5,5-5H214.94c1.33,0,2.6,.53,3.54,1.46,.94,.94,1.46,2.21,1.46,3.54V109.65c0,2.76-2.24,5-5,5H6.91Z"/><g><rect class="e" x="6.91" y="7.23" width="208.03" height="102.42"/><polygon class="g" points="110.76 65.17 6.91 7.23 6.91 109.65 214.93 109.65 214.93 7.23 110.76 65.17"/><polygon class="i" points="6.91 109.65 111.87 47.07 214.94 109.65 6.91 109.65"/><polygon class="h" points="6.91 7.23 110.99 73.06 214.94 7.23 6.91 7.23"/><polygon class="c" points="214.94 7.23 110.73 65.24 6.91 7.23 214.94 7.23"/></g></g></g></g></svg>