<?xml version="1.0" encoding="UTF-8"?><svg id="a" xmlns="http://www.w3.org/2000/svg" viewBox="0 0 240.09 146.81"><defs><style>.b{fill:none;stroke:#514619;stroke-miterlimit:10;}.c{fill:#fff;}.d{opacity:.5;}.e{fill:#615a3e;}.f{opacity:.58;}.g{fill:#d6e0ca;}.h{fill:#514619;opacity:.54;}.i{fill:#8e8149;}.j{fill:#b29e66;}.k{fill:#d3c589;}.l{fill:#ffd757;}</style></defs><path class="d" d="M71.54,143.81c-.16,0-.32,0-.47-.01-2.28-.14-4.27-1.21-5.46-2.94-.6-.88-.97-1.88-1.1-2.93-.25,.11-.52,.2-.79,.27-.71,.2-1.49,.31-2.31,.31-.76,0-1.55-.09-2.43-.26-4.15-.84-5.65-3.82-5.66-6.11,0-.47,.05-1.01,.21-1.6-1.01-1.06-1.63-2.43-1.7-3.95-.05-1.22,.25-3.58,2.84-5.58,.63-.49,1.3-.92,2.01-1.3-.5-1.66-.33-3.48,.5-5,1.03-1.88,2.9-3.17,5.12-3.52,.39-.06,.8-.1,1.21-.1,.22,0,.43,0,.64,.03,2.02,.17,3.6,1.07,4.61,1.74,.86,.56,1.68,1.19,2.45,1.88h0c.22-.38,.44-.81,.66-1.22,.31-.59,.61-1.17,.92-1.71,1.17-2.01,2.41-4.01,3.69-5.95,1.54-2.33,3.16-4.62,4.86-6.85-5.21,.24-10.33,.89-15.69,1.57-1.21,.15-2.42,.31-3.63,.46-2,.25-4.16,.5-6.41,.72-3.82,.37-7.36,.54-10.81,.54-8.13,0-15.67-1.01-23.05-3.09-.58-.17-1.23-.4-1.91-.71-.1-.04-9.93-4.48-11.35-10.75-.17-.77-.22-1.55-.13-2.3-.83-2.7-.24-5.8,1.59-8.31,.12-.17,.35-.46,.66-.79,1.15-1.33,2.45-2.29,3.68-3.13,4.94-3.37,10.22-6.29,15.7-8.69,.94-.41,2.02-1.54,3.16-2.72,2.05-2.14,4.61-4.81,8.59-5.58h.06c.76-.16,1.55-.23,2.34-.23,1.46,0,2.94,.24,4.38,.72,.54-.97,1.39-1.87,2.59-2.61,1.05-.65,2.05-1.08,3.07-1.32,.31-.08,.63-.13,.94-.17-.08-.56-.08-1.13,0-1.71,.3-2.2,1.81-4.09,4.03-5.05,.42-.18,.86-.33,1.3-.43,.62-.15,1.26-.23,1.9-.23,.89,0,1.76,.15,2.58,.45,.46,.16,.86,.36,1.23,.58,.54-.25,1.12-.44,1.72-.54,.38-.07,.78-.1,1.17-.1,.31,0,.62,.02,.92,.06,2.9,.39,5.29,2.6,5.82,5.37,.23,1.22,.06,2.21-.04,2.74-.13,.72-.16,1.46-.11,2.2,2.37,.57,4.89,1.26,7.19,2.35,3.06,1.19,6.05,2.47,8.95,3.74l1.67-.57c5.96-1.97,12.09-3.65,18.25-4.99,2.05-.45,4.13-.86,6.18-1.24,.34-.06,.68-.12,1.02-.18-.42-2.33,.56-5.07,3.87-6.63,.77-.36,1.49-.62,2.21-.8,.65-.16,1.3-.24,1.94-.25-.02-.57,.04-1.14,.18-1.71,.53-2.15,2.24-3.86,4.55-4.57,.43-.13,.87-.23,1.32-.29,.36-.05,.72-.07,1.07-.07,1.18,0,2.36,.27,3.39,.78,.44,.21,.82,.45,1.16,.71,.56-.19,1.15-.31,1.76-.35,.13,0,.28-.01,.44-.01,.56,0,1.11,.07,1.65,.2,2.85,.71,4.99,3.17,5.21,5.98,.1,1.23-.18,2.19-.34,2.71-.15,.52-.26,1.06-.31,1.6,1.14-.02,2.25-.04,3.35-.04h.19c2.1,0,3.94,.03,5.65,.09,.35,.01,.71,.03,1.06,.05l1.28,.06c.85,.04,1.71,.07,2.56,.12-2.26-1.32-3.47-3.53-3.55-5.66-.11-2.93,1.84-6.29,6.42-7.16,.43-.08,.88-.14,1.33-.17l2.01-.14c1.26-.08,2.34-.16,3.39-.26,.14-.02,.27-.04,.41-.05,.95-.1,2.17-.24,3.33-.47h.04c.47-.1,.93-.21,1.38-.33,.05-.02,.1-.03,.15-.04,.39-.11,.83-.25,1.25-.4h.04c.32-.13,.64-.25,.95-.38,.06-.03,.12-.06,.17-.08,.13-.06,.31-.16,.48-.26,.14-.08,.32-.19,.49-.31,.04-.02,.08-.05,.11-.07,.12-.08,.24-.17,.35-.26l.1-.08c.13-.1,.25-.2,.36-.31l.43-.43c.07-.08,.14-.16,.22-.25,.04-.06,.27-.36,.27-.36,.14-.18,.27-.37,.4-.56l.18-.28c.12-.2,.25-.41,.37-.62,.01-.02,.13-.24,.13-.24,.13-.24,.21-.4,.28-.56l.05-.12c.22-.47,.43-.96,.63-1.46l.11-.3c.16-.42,.31-.84,.45-1.27l.12-.34c.18-.53,.34-1.07,.51-1.6l.32-1.04c1.93-6.26,4.33-14.06,12.95-17.31l.08-.03c.58-.21,1.19-.41,1.83-.58,.19-.05,.4-.11,.62-.16,.24-.06,.47-.11,.7-.15,.49-.1,1.04-.2,1.61-.28,.39-.05,.79-.09,1.18-.12,.15-.02,.29-.03,.44-.04h.05c.63-.05,1.26-.07,1.87-.08,.04,0,.39,0,.43,0,.55,0,1.08,.02,1.61,.05,.1,0,.2,0,.29,.01,.1,0,.19,.02,.29,.03,1.66,.12,3.42,.4,5.16,.81l.24,.06c1.76,.44,3.43,.99,5.04,1.67l.46,.19c.77,.34,1.52,.7,2.22,1.07,.12,.06,.48,.26,.48,.26,.61,.34,1.22,.7,1.79,1.07,0,0,.35,.22,.47,.3,.64,.43,1.26,.89,1.9,1.4,.2,.16,.39,.32,.58,.48,.56,.47,1.05,.92,1.51,1.36,.11,.1,.21,.19,.31,.29,.17,.17,.33,.35,.49,.53l.2,.22c.3,.32,.6,.64,.87,.97,.17,.2,.32,.39,.48,.59l.12,.16c.3,.38,.6,.76,.87,1.15,.14,.2,.27,.39,.4,.58,.36,.53,.65,.99,.93,1.45,.1,.18,.2,.34,.3,.51,.29,.5,.56,1.03,.81,1.55,.05,.1,.16,.32,.17,.34,0,0,.06,.14,.09,.21,.16,.36,.32,.72,.46,1.08,.07,.18,.14,.36,.21,.54,.15,.38,.28,.77,.41,1.16,.06,.18,.11,.36,.17,.54,.12,.39,.23,.79,.34,1.19l.11,.48c.1,.43,.2,.85,.28,1.27,.01,.06,.04,.2,.04,.26,.25,1.38,.39,2.87,.42,4.36,0,.19,0,.32,0,.45,0,.38-.01,.77-.02,1.16l-.02,.59c-.02,.37-.05,.74-.09,1.12-.02,.21-.04,.42-.06,.63-.04,.36-.09,.73-.15,1.1l-.1,.6c-.06,.37-.13,.74-.2,1.11l-.11,.52c-.09,.39-.18,.79-.28,1.18,0,.04-.02,.08-.03,.12-.26,.98-.56,1.93-.9,2.88l-.05,.14c-.13,.36-.28,.75-.44,1.13l-.18,.45c-.15,.36-.31,.72-.47,1.08-.03,.08-.13,.31-.16,.35-.02,.04-.08,.16-.1,.2-.16,.35-.37,.78-.59,1.2l-.2,.39c-.23,.43-.46,.85-.7,1.26h0c-.06,.13-.13,.25-.21,.37l-.05,.09c-.18,.31-.39,.65-.61,1,0,0-.14,.23-.15,.24-.04,.06-.08,.13-.13,.19-.22,.35-.47,.72-.73,1.09l-.22,.31c-.3,.42-.57,.79-.84,1.15l-.18,.24c-.07,.09-.12,.16-.17,.21-.98,1.26-2.03,2.46-3.11,3.57-.05,.05-.37,.37-.37,.37-.03,.03-.11,.11-.14,.13-.39,.39-.84,.82-1.3,1.24,0,0-.43,.4-.47,.43,0,0-.02,.02-.06,.05-.54,.48-1.08,.94-1.63,1.37-.04,.03-.39,.31-.41,.32-.04,.03-.14,.1-.18,.13-.4,.31-.86,.65-1.33,.98-.02,.02-.57,.4-.59,.42-.04,.03-.09,.06-.14,.09-.54,.36-1.06,.7-1.6,1.03-.09,.06-.18,.12-.27,.17-.91,.54-1.75,1.01-2.6,1.47-.81,.44-1.64,.86-2.46,1.27-.37,.19-.75,.37-1.12,.55,0,0-1.16,.56-1.18,.57-1.06,.54-2.04,.98-2.8,1.3l-.3,.13c-.08,.03-.16,.07-.24,.1,0,0-2.69,1.19-3.82,1.69-2.02,.89-3.71,1.65-5.38,2.45-1.29,.62-2.56,1.26-3.83,1.91l-.72,.37c-1.27,.66-2.55,1.33-3.81,2.01-1.32,.7-2.64,1.4-3.97,2.1-.78,.41-1.55,.81-2.33,1.21l-.77,.4c-1.97,1-3.76,1.87-5.45,2.63-.85,.39-1.71,.76-2.56,1.12-.29,.12-.57,.24-.86,.36-.06,.09-.72,1.11-.72,1.11-.33,.51-.64,.97-.95,1.42-.18,.27-.37,.54-.56,.81-.31,.44-.62,.88-.94,1.32-.23,.32-1.02,1.39-1.02,1.39,1.37,.37,2.69,.78,3.96,1.21,2.26,.77,4.41,1.67,6.38,2.65,1.03,.52,2.05,1.07,3.03,1.66l.35,.21c.77,.46,1.6,.97,2.43,1.56,0,0,.08,.06,.09,.06,.34,.24,.67,.5,1,.76,0,0,.07,.06,.14,.11,.32,.27,.64,.56,.95,.86,.06,.06,.12,.11,.18,.17,.34,.34,.66,.71,.96,1.09,.02,.03,.1,.13,.13,.16,.83,1.1,1.41,2.28,1.72,3.51,.03,.11,.05,.22,.07,.33,.9,.68,1.77,1.25,2.59,1.55,.15,.03,.31,.04,.48,.07,1.45,.19,5.29,.69,6.75,4.67,.77,2.08,.55,4.46-.59,6.53-1.14,2.07-3.02,3.45-5.17,3.79h0c-.34,.06-.7,.08-1.05,.08-1.02,0-2.01-.23-2.94-.66,.11,1.68-.37,3.79-2.21,6.24-1.64,2.18-3.45,2.88-4.68,3.08-.31,.05-.65,.08-.98,.08-.88,0-1.73-.19-2.52-.56-.51-.24-1.08-.59-1.63-1.12-.51,.2-1.04,.33-1.57,.4-.23,.03-.48,.04-.74,.04-.83,0-1.64-.16-2.4-.49-1.42-.6-3.24-1.98-3.93-5.13-.22-1.01-.34-2.04-.35-3.07-1.96-.15-3.76-1.15-4.91-2.73-1.22-1.69-1.61-3.84-1.13-5.89-.37-.29-.7-.63-1-1-.79-.98-1.24-2.13-1.34-3.31-.29,0-.58,.01-.87,.02-1.13,.03-2.24,.06-3.33,.07h-.36c-2.19,0-7.31,0-10.55-3.95-1.73-2.11-2.51-4.91-2.2-7.92-5.61,.95-11.59,1.45-17.52,1.45-2.81,0-5.6-.11-8.29-.33-.97-.08-1.93-.18-2.89-.29l-.45-.05c-1.76-.21-3.63-.48-5.74-.82l-.12-.02c-1.77-.29-3.45-.58-5.13-.88l-3.27-.56c-.01,.1-.06,.39-.06,.39-.04,.31-.07,.51-.11,.72-.03,.17-.12,.58-.12,.58-.06,.26-.11,.51-.17,.76-.04,.16-.09,.32-.13,.48-.1,.33-.17,.59-.26,.84-.05,.16-.11,.32-.17,.48-.09,.26-.19,.53-.3,.79l-.17,.42c-.12,.28-.25,.56-.38,.84l-.16,.34c-.16,.31-.31,.61-.48,.91l-.16,.28c-.17,.3-.36,.63-.57,.96l-.08,.12c-.69,1.1-1.49,2.18-2.36,3.23-2.46,2.95-5,6-7.7,8.92-1.55,2-3.5,3.67-5.39,5.15,.43,1.03,.98,2.01,1.64,2.91,.39,.52,.96,1.29,1.32,2.39,.99,2.96-.23,6.28-2.91,7.89-.67,.4-1.41,.69-2.19,.84-.4,.08-.84,.12-1.28,.12-.14,0-.28,0-.41-.01-.21,.29-.44,.58-.72,.86-1.15,1.18-2.74,1.94-4.46,2.15-.32,.04-.64,.06-.96,.06ZM172.14,53.58c2.69,.3,5.25,.57,7.82,.72l.56,.03c.72,.04,1.45,.06,2.21,.09h.11c.7,.02,1.45,.03,2.2,.04h.42c.65,0,1.3,0,1.97-.02h.25c.72-.02,1.45-.05,2.19-.08,3.47-.17,6.78-.53,9.83-1.09,.06-.02,.13-.04,.19-.05,.25-.06,.51-.13,.77-.2,.84-.23,1.87-.5,2.99-.63,.47-.12,.95-.26,1.43-.4l.14-.04c1.6-.48,3.12-1.05,4.51-1.69,.12-.07,.25-.14,.39-.21,.94-.45,1.74-.87,2.43-1.3,.09-.06,.19-.11,.29-.16,.08-.06,.59-.41,.59-.41l.39-.26c.11-.07,.22-.14,.32-.22,.51-.38,.99-.78,1.42-1.19,.19-.18,.38-.37,.57-.56,.39-.4,.8-.86,1.2-1.35,.02-.03,.04-.05,.06-.08,.3-.38,.6-.79,.89-1.21l.09-.14c.27-.41,.53-.84,.77-1.28,0-.01,.05-.09,.05-.1,.45-.84,.85-1.76,1.16-2.71,.03-.09,.11-.31,.11-.31,0-.01,.12-.41,.15-.51l.05-.21c.14-.55,.25-1.1,.32-1.64,0-.1,.01-.2,.02-.3,.05-.48,.07-.98,.07-1.51,0-.1,0-.2,0-.3,0-.11-.01-.22-.02-.33l-.02-.25c-.01-.15-.03-.29-.05-.44l-.03-.26c-.02-.16-.05-.3-.08-.44-.02-.12-.05-.25-.08-.37-.03-.11-.05-.22-.08-.33-.03-.08-.05-.15-.07-.23-.25-.82-.61-1.63-1.08-2.39l-.07-.12c-.08-.12-.16-.24-.24-.36l-.12-.16c-.12-.16-.21-.28-.31-.4l-.15-.17c-.11-.13-.22-.25-.34-.38l-.15-.15c-.13-.13-.26-.26-.4-.39,0,0-.38-.35-.39-.36-.4-.35-.83-.69-1.28-1-.47-.33-.96-.65-1.46-.94l-.12-.06c-.36-.2-.74-.4-1.13-.58-.03-.01-.14-.07-.16-.08-.43-.2-.87-.38-1.33-.55-.48-.18-.91-.31-1.33-.42-.09-.02-.17-.05-.26-.08-.95-.25-1.89-.41-2.81-.48-.03,0-.07,0-.1,0-.25-.02-.5-.02-.75-.02-.31,0-.61,.01-.91,.03-.09,0-.34,0-.37,0-.1,0-.35,.04-.38,.04-.28,.03-.54,.08-.78,.13h0c-.35,.09-.6,.17-.84,.26-.61,.24-1.17,.59-1.72,1.08-.05,.05-.11,.1-.17,.14-.48,.46-.94,1.02-1.38,1.7-.02,.04-.05,.07-.07,.11-.36,.56-.71,1.22-1.09,2-.04,.08-.08,.16-.12,.24-.39,.84-.78,1.78-1.21,2.93-.02,.05-.03,.09-.05,.14-.31,.83-.61,1.67-.9,2.49-.05,.14-.11,.28-.16,.42-.07,.2-.17,.43-.27,.67l-.1,.24c-.32,.8-.66,1.57-1.02,2.31l-.11,.23c-.12,.25-.23,.49-.36,.73-.02,.05-.06,.11-.09,.16-.12,.24-.29,.52-.46,.8l-.17,.29c-.17,.29-.34,.59-.52,.87-.23,.37-.47,.71-.7,1.06-.2,.29-.4,.58-.61,.86-.25,.34-.52,.68-.79,1.01-.21,.25-.41,.49-.62,.73-.3,.35-.6,.68-.9,.99-.15,.15-.3,.3-.45,.45l-.12,.12c-1.24,1.21-2.59,2.3-4.01,3.23-.15,.1-.26,.17-.37,.25-.44,.28-.91,.55-1.38,.81,0,0-.36,.2-.49,.27-.47,.25-.95,.48-1.44,.71l-.47,.21c-.51,.22-1.04,.44-1.57,.63l-.25,.09c-2.22,.79-4.61,1.34-7.13,1.65Z"/><path class="c" d="M66.54,138.81c-.16,0-.32,0-.47-.01-2.28-.14-4.27-1.21-5.46-2.94-.6-.88-.97-1.88-1.1-2.93-.25,.11-.52,.2-.79,.27-.71,.2-1.49,.31-2.31,.31-.76,0-1.55-.09-2.43-.26-4.15-.84-5.65-3.82-5.66-6.11,0-.47,.05-1.01,.21-1.6-1.01-1.06-1.63-2.43-1.7-3.95-.05-1.22,.25-3.58,2.84-5.58,.63-.49,1.3-.92,2.01-1.3-.5-1.66-.33-3.48,.5-5,1.03-1.88,2.9-3.17,5.12-3.52,.39-.06,.8-.1,1.21-.1,.22,0,.43,0,.64,.03,2.02,.17,3.6,1.07,4.61,1.74,.86,.56,1.68,1.19,2.45,1.88h0c.22-.38,.44-.81,.66-1.22,.31-.59,.61-1.17,.92-1.71,1.17-2.01,2.41-4.01,3.69-5.95,1.54-2.33,3.16-4.62,4.86-6.85-5.21,.24-10.33,.89-15.69,1.57-1.21,.15-2.42,.31-3.63,.46-2,.25-4.16,.5-6.41,.72-3.82,.37-7.36,.54-10.81,.54-8.13,0-15.67-1.01-23.05-3.09-.58-.17-1.23-.4-1.91-.71-.1-.04-9.93-4.48-11.35-10.75-.17-.77-.22-1.55-.13-2.3-.83-2.7-.24-5.8,1.59-8.31,.12-.17,.35-.46,.66-.79,1.15-1.33,2.45-2.29,3.68-3.13,4.94-3.37,10.22-6.29,15.7-8.69,.94-.41,2.02-1.54,3.16-2.72,2.05-2.14,4.61-4.81,8.59-5.58h.06c.76-.16,1.55-.23,2.34-.23,1.46,0,2.94,.24,4.38,.72,.54-.97,1.39-1.87,2.59-2.61,1.05-.65,2.05-1.08,3.07-1.32,.31-.08,.63-.13,.94-.17-.08-.56-.08-1.13,0-1.71,.3-2.2,1.81-4.09,4.03-5.05,.42-.18,.86-.33,1.3-.43,.62-.15,1.26-.23,1.9-.23,.89,0,1.76,.15,2.58,.45,.46,.16,.86,.36,1.23,.58,.54-.25,1.12-.44,1.72-.54,.38-.07,.78-.1,1.17-.1,.31,0,.62,.02,.92,.06,2.9,.39,5.29,2.6,5.82,5.37,.23,1.22,.06,2.21-.04,2.74-.13,.72-.16,1.46-.11,2.2,2.37,.57,4.89,1.26,7.19,2.35,3.06,1.19,6.05,2.47,8.95,3.74l1.67-.57c5.96-1.97,12.09-3.65,18.25-4.99,2.05-.45,4.13-.86,6.18-1.24,.34-.06,.68-.12,1.02-.18-.42-2.33,.56-5.07,3.87-6.63,.77-.36,1.49-.62,2.21-.8,.65-.16,1.3-.24,1.94-.25-.02-.57,.04-1.14,.18-1.71,.53-2.15,2.24-3.86,4.55-4.57,.43-.13,.87-.23,1.32-.29,.36-.05,.72-.07,1.07-.07,1.18,0,2.36,.27,3.39,.78,.44,.21,.82,.45,1.16,.71,.56-.19,1.15-.31,1.76-.35,.13,0,.28-.01,.44-.01,.56,0,1.11,.07,1.65,.2,2.85,.71,4.99,3.17,5.21,5.98,.1,1.23-.18,2.19-.34,2.71-.15,.52-.26,1.06-.31,1.6,1.14-.02,2.25-.04,3.35-.04h.19c2.1,0,3.94,.03,5.65,.09,.35,.01,.71,.03,1.06,.05l1.28,.06c.85,.04,1.71,.07,2.56,.12-2.26-1.32-3.47-3.53-3.55-5.66-.11-2.93,1.84-6.29,6.42-7.16,.43-.08,.88-.14,1.33-.17l2.01-.14c1.26-.08,2.34-.16,3.39-.26,.14-.02,.27-.04,.41-.05,.95-.1,2.17-.24,3.33-.47h.04c.47-.1,.93-.21,1.38-.33,.05-.02,.1-.03,.15-.04,.39-.11,.83-.25,1.25-.4h.04c.32-.13,.64-.25,.95-.38,.06-.03,.12-.06,.17-.08,.13-.06,.31-.16,.48-.26,.14-.08,.32-.19,.49-.31,.04-.02,.08-.05,.11-.07,.12-.08,.24-.17,.35-.26l.1-.08c.13-.1,.25-.2,.36-.31l.43-.43c.07-.08,.14-.16,.22-.25,.04-.06,.27-.36,.27-.36,.14-.18,.27-.37,.4-.56l.18-.28c.12-.2,.25-.41,.37-.62,.01-.02,.13-.24,.13-.24,.13-.24,.21-.4,.28-.56l.05-.12c.22-.47,.43-.96,.63-1.46l.11-.3c.16-.42,.31-.84,.45-1.27l.12-.34c.18-.53,.34-1.07,.51-1.6l.32-1.04c1.93-6.26,4.33-14.06,12.95-17.31l.08-.03c.58-.21,1.19-.41,1.83-.58,.19-.05,.4-.11,.62-.16,.24-.06,.47-.11,.7-.15,.49-.1,1.04-.2,1.61-.28,.39-.05,.79-.09,1.18-.12,.15-.02,.29-.03,.44-.04h.05c.63-.05,1.26-.07,1.87-.08,.04,0,.39,0,.43,0,.55,0,1.08,.02,1.61,.05,.1,0,.2,0,.29,.01,.1,0,.19,.02,.29,.03,1.66,.12,3.42,.4,5.16,.81l.24,.06c1.76,.44,3.43,.99,5.04,1.67l.46,.19c.77,.34,1.52,.7,2.22,1.07,.12,.06,.48,.26,.48,.26,.61,.34,1.22,.7,1.79,1.07,0,0,.35,.22,.47,.3,.64,.43,1.26,.89,1.9,1.4,.2,.16,.39,.32,.58,.48,.56,.47,1.05,.92,1.51,1.36,.11,.1,.21,.19,.31,.29,.17,.17,.33,.35,.49,.53l.2,.22c.3,.32,.6,.64,.87,.97,.17,.2,.32,.39,.48,.59l.12,.16c.3,.38,.6,.76,.87,1.15,.14,.2,.27,.39,.4,.58,.36,.53,.65,.99,.93,1.45,.1,.18,.2,.34,.3,.51,.29,.5,.56,1.03,.81,1.55,.05,.1,.16,.32,.17,.34,0,0,.06,.14,.09,.21,.16,.36,.32,.72,.46,1.08,.07,.18,.14,.36,.21,.54,.15,.38,.28,.77,.41,1.16,.06,.18,.11,.36,.17,.54,.12,.39,.23,.79,.34,1.19l.11,.48c.1,.43,.2,.85,.28,1.27,.01,.06,.04,.2,.04,.26,.25,1.38,.39,2.87,.42,4.36,0,.19,0,.32,0,.45,0,.38-.01,.77-.02,1.16l-.02,.59c-.02,.37-.05,.74-.09,1.12-.02,.21-.04,.42-.06,.63-.04,.36-.09,.73-.15,1.1l-.1,.6c-.06,.37-.13,.74-.2,1.11l-.11,.52c-.09,.39-.18,.79-.28,1.18,0,.04-.02,.08-.03,.12-.26,.98-.56,1.93-.9,2.88l-.05,.14c-.13,.36-.28,.75-.44,1.13l-.18,.45c-.15,.36-.31,.72-.47,1.08-.03,.08-.13,.31-.16,.35-.02,.04-.08,.16-.1,.2-.16,.35-.37,.78-.59,1.2l-.2,.39c-.23,.43-.46,.85-.7,1.26h0c-.06,.13-.13,.25-.21,.37l-.05,.09c-.18,.31-.39,.65-.61,1,0,0-.14,.23-.15,.24-.04,.06-.08,.13-.13,.19-.22,.35-.47,.72-.73,1.09l-.22,.31c-.3,.42-.57,.79-.84,1.15l-.18,.24c-.07,.09-.12,.16-.17,.21-.98,1.26-2.03,2.46-3.11,3.57-.05,.05-.37,.37-.37,.37-.03,.03-.11,.11-.14,.13-.39,.39-.84,.82-1.3,1.24,0,0-.43,.4-.47,.43,0,0-.02,.02-.06,.05-.54,.48-1.08,.94-1.63,1.37-.04,.03-.39,.31-.41,.32-.04,.03-.14,.1-.18,.13-.4,.31-.86,.65-1.33,.98-.02,.02-.57,.4-.59,.42-.04,.03-.09,.06-.14,.09-.54,.36-1.06,.7-1.6,1.03-.09,.06-.18,.12-.27,.17-.91,.54-1.75,1.01-2.6,1.47-.81,.44-1.64,.86-2.46,1.27-.37,.19-.75,.37-1.12,.55,0,0-1.16,.56-1.18,.57-1.06,.54-2.04,.98-2.8,1.3l-.3,.13c-.08,.03-.16,.07-.24,.1,0,0-2.69,1.19-3.82,1.69-2.02,.89-3.71,1.65-5.38,2.45-1.29,.62-2.56,1.26-3.83,1.91l-.72,.37c-1.27,.66-2.55,1.33-3.81,2.01-1.32,.7-2.64,1.4-3.97,2.1-.78,.41-1.55,.81-2.33,1.21l-.77,.4c-1.97,1-3.76,1.87-5.45,2.63-.85,.39-1.71,.76-2.56,1.12-.29,.12-.57,.24-.86,.36-.06,.09-.72,1.11-.72,1.11-.33,.51-.64,.97-.95,1.42-.18,.27-.37,.54-.56,.81-.31,.44-.62,.88-.94,1.32-.23,.32-1.02,1.39-1.02,1.39,1.37,.37,2.69,.78,3.96,1.21,2.26,.77,4.41,1.67,6.38,2.65,1.03,.52,2.05,1.07,3.03,1.66l.35,.21c.77,.46,1.6,.97,2.43,1.56,0,0,.08,.06,.09,.06,.34,.24,.67,.5,1,.76,0,0,.07,.06,.14,.11,.32,.27,.64,.56,.95,.86,.06,.06,.12,.11,.18,.17,.34,.34,.66,.71,.96,1.09,.02,.03,.1,.13,.13,.16,.83,1.1,1.41,2.28,1.72,3.51,.03,.11,.05,.22,.07,.33,.9,.68,1.77,1.25,2.59,1.55,.15,.03,.31,.04,.48,.07,1.45,.19,5.29,.69,6.75,4.67,.77,2.08,.55,4.46-.59,6.53-1.14,2.07-3.02,3.45-5.17,3.79h0c-.34,.06-.7,.08-1.05,.08-1.02,0-2.01-.23-2.94-.66,.11,1.68-.37,3.79-2.21,6.24-1.64,2.18-3.45,2.88-4.68,3.08-.31,.05-.65,.08-.98,.08-.88,0-1.73-.19-2.52-.56-.51-.24-1.08-.59-1.63-1.12-.51,.2-1.04,.33-1.57,.4-.23,.03-.48,.04-.74,.04-.83,0-1.64-.16-2.4-.49-1.42-.6-3.24-1.98-3.93-5.13-.22-1.01-.34-2.04-.35-3.07-1.96-.15-3.76-1.15-4.91-2.73-1.22-1.69-1.61-3.84-1.13-5.89-.37-.29-.7-.63-1-1-.79-.98-1.24-2.13-1.34-3.31-.29,0-.58,.01-.87,.02-1.13,.03-2.24,.06-3.33,.07h-.36c-2.19,0-7.31,0-10.55-3.95-1.73-2.11-2.51-4.91-2.2-7.92-5.61,.95-11.59,1.45-17.52,1.45-2.81,0-5.6-.11-8.29-.33-.97-.08-1.93-.18-2.89-.29l-.45-.05c-1.76-.21-3.63-.48-5.74-.82l-.12-.02c-1.77-.29-3.45-.58-5.13-.88l-3.27-.56c-.01,.1-.06,.39-.06,.39-.04,.31-.07,.51-.11,.72-.03,.17-.12,.58-.12,.58-.06,.26-.11,.51-.17,.76-.04,.16-.09,.32-.13,.48-.1,.33-.17,.59-.26,.84-.05,.16-.11,.32-.17,.48-.09,.26-.19,.53-.3,.79l-.17,.42c-.12,.28-.25,.56-.38,.84l-.16,.34c-.16,.31-.31,.61-.48,.91l-.16,.28c-.17,.3-.36,.63-.57,.96l-.08,.12c-.69,1.1-1.49,2.18-2.36,3.23-2.46,2.95-5,6-7.7,8.92-1.55,2-3.5,3.67-5.39,5.15,.43,1.03,.98,2.01,1.64,2.91,.39,.52,.96,1.29,1.32,2.39,.99,2.96-.23,6.28-2.91,7.89-.67,.4-1.41,.69-2.19,.84-.4,.08-.84,.12-1.28,.12-.14,0-.28,0-.41-.01-.21,.29-.44,.58-.72,.86-1.15,1.18-2.74,1.94-4.46,2.15-.32,.04-.64,.06-.96,.06ZM167.14,48.58c2.69,.3,5.25,.57,7.82,.72l.56,.03c.72,.04,1.45,.06,2.21,.09h.11c.7,.02,1.45,.03,2.2,.04h.42c.65,0,1.3,0,1.97-.02h.25c.72-.02,1.45-.05,2.19-.08,3.47-.17,6.78-.53,9.83-1.09,.06-.02,.13-.04,.19-.05,.25-.06,.51-.13,.77-.2,.84-.23,1.87-.5,2.99-.63,.47-.12,.95-.26,1.43-.4l.14-.04c1.6-.48,3.12-1.05,4.51-1.69,.12-.07,.25-.14,.39-.21,.94-.45,1.74-.87,2.43-1.3,.09-.06,.19-.11,.29-.16,.08-.06,.59-.41,.59-.41l.39-.26c.11-.07,.22-.14,.32-.22,.51-.38,.99-.78,1.42-1.19,.19-.18,.38-.37,.57-.56,.39-.4,.8-.86,1.2-1.35,.02-.03,.04-.05,.06-.08,.3-.38,.6-.79,.89-1.21l.09-.14c.27-.41,.53-.84,.77-1.28,0-.01,.05-.09,.05-.1,.45-.84,.85-1.76,1.16-2.71,.03-.09,.11-.31,.11-.31,0-.01,.12-.41,.15-.51l.05-.21c.14-.55,.25-1.1,.32-1.64,0-.1,.01-.2,.02-.3,.05-.48,.07-.98,.07-1.51,0-.1,0-.2,0-.3,0-.11-.01-.22-.02-.33l-.02-.25c-.01-.15-.03-.29-.05-.44l-.03-.26c-.02-.16-.05-.3-.08-.44-.02-.12-.05-.25-.08-.37-.03-.11-.05-.22-.08-.33-.03-.08-.05-.15-.07-.23-.25-.82-.61-1.63-1.08-2.39l-.07-.12c-.08-.12-.16-.24-.24-.36l-.12-.16c-.12-.16-.21-.28-.31-.4l-.15-.17c-.11-.13-.22-.25-.34-.38l-.15-.15c-.13-.13-.26-.26-.4-.39,0,0-.38-.35-.39-.36-.4-.35-.83-.69-1.28-1-.47-.33-.96-.65-1.46-.94l-.12-.06c-.36-.2-.74-.4-1.13-.58-.03-.01-.14-.07-.16-.08-.43-.2-.87-.38-1.33-.55-.48-.18-.91-.31-1.33-.42-.09-.02-.17-.05-.26-.08-.95-.25-1.89-.41-2.81-.48-.03,0-.07,0-.1,0-.25-.02-.5-.02-.75-.02-.31,0-.61,.01-.91,.03-.09,0-.34,0-.37,0-.1,0-.35,.04-.38,.04-.28,.03-.54,.08-.78,.13h0c-.35,.09-.6,.17-.84,.26-.61,.24-1.17,.59-1.72,1.08-.05,.05-.11,.1-.17,.14-.48,.46-.94,1.02-1.38,1.7-.02,.04-.05,.07-.07,.11-.36,.56-.71,1.22-1.09,2-.04,.08-.08,.16-.12,.24-.39,.84-.78,1.78-1.21,2.93-.02,.05-.03,.09-.05,.14-.31,.83-.61,1.67-.9,2.49-.05,.14-.11,.28-.16,.42-.07,.2-.17,.43-.27,.67l-.1,.24c-.32,.8-.66,1.57-1.02,2.31l-.11,.23c-.12,.25-.23,.49-.36,.73-.02,.05-.06,.11-.09,.16-.12,.24-.29,.52-.46,.8l-.17,.29c-.17,.29-.34,.59-.52,.87-.23,.37-.47,.71-.7,1.06-.2,.29-.4,.58-.61,.86-.25,.34-.52,.68-.79,1.01-.21,.25-.41,.49-.62,.73-.3,.35-.6,.68-.9,.99-.15,.15-.3,.3-.45,.45l-.12,.12c-1.24,1.21-2.59,2.3-4.01,3.23-.15,.1-.26,.17-.37,.25-.44,.28-.91,.55-1.38,.81,0,0-.36,.2-.49,.27-.47,.25-.95,.48-1.44,.71l-.47,.21c-.51,.22-1.04,.44-1.57,.63l-.25,.09c-2.22,.79-4.61,1.34-7.13,1.65Z"/><g><g><path class="i" d="M90.11,72.11l7.4,2.26c-.02-.13-.03-.26-.06-.38-.92-5.5-5.16-9.1-10.79-11.57-3.58-1.57-7.16-3.14-10.81-4.55-2.6-1.27-5.93-1.97-8.74-2.63-.18-.04-.37-.09-.51-.2-.18-.14-.26-.35-.32-.54-.68-2.18-.84-4.44-.46-6.58,.06-.32,.13-.65,.06-.99-.13-.66-.82-1.25-1.59-1.36-.77-.1-1.53,.29-1.75,.9-.29,.81,.3,1.71,.74,2.53,.61,1.13,.96,2.35,1.03,3.55,.01,.26-.02,.56-.28,.66-.33,.13-.71-.17-.96-.44-1.23-1.33-2.51-2.71-3.21-4.29-.46-1.05-.19-2.63-1.66-3.16-.69-.25-1.47-.17-2.09,.1-.53,.23-.99,.62-1.06,1.13-.09,.66,.46,1.31,1.09,1.77,.62,.46,1.35,.81,1.88,1.35,.35,.35,.6,.76,.84,1.16,.69,1.15,1.44,2.3,2.07,3.47-.93-.31-1.37-.05-2.23,.06-1.14,.14-2.45-.1-3.62-.19-.73-.06-1.52-.14-2.11-.55-.35-.24-.6-.57-.96-.79-1.05-.64-2.35-.06-3.3,.53-.57,.35-1.21,.92-.87,1.51,.2,.35,.68,.53,1.11,.64,3.45,.91,7.32,.02,10.41,1.72-1.53,.46-3.07,.93-4.6,1.39-.33,.1-.67,.2-1.03,.15-.37-.05-.71-.25-1.06-.4-.86-.36-1.87-.38-2.66-.04-.64,.27-1.15,.91-.83,1.51,.25,.47,.88,.7,1.44,.83,1.93,.45,3.96,.39,5.73-.18,1.69-.54,3.46-1.54,5.23-.85-.67,.98-1.33,1.95-2,2.93-.17,.25-.35,.5-.62,.66-.49,.28-1.2,.22-1.65,.53-.61,.42-.4,1.4,.29,1.85,.69,.45,1.65,.43,2.34,.1,.7-.32,1.18-.89,1.58-1.47,.37-.54,.69-1.11,.95-1.71,.46-1.03,.83-2.21,1.94-2.74,.85-.4,1.98-.31,2.95,.03,1.83,.65,3.48,2.01,5.09,3.01,1.88,1.16,3.78,2.28,5.72,3.36,3.86,2.14,7.83,4.11,11.9,5.9Z"/><path class="i" d="M159,71.1l7.11,3.05c0-.13,0-.26-.01-.39-.31-5.57-4.13-9.61-9.46-12.68-3.39-1.95-6.77-3.9-10.25-5.71-2.45-1.55-5.67-2.61-8.4-3.57-.17-.06-.36-.13-.49-.25-.17-.16-.22-.37-.26-.58-.44-2.24-.34-4.5,.27-6.59,.09-.32,.2-.64,.17-.97-.05-.67-.68-1.33-1.43-1.52-.75-.19-1.55,.12-1.83,.7-.38,.77,.11,1.73,.46,2.6,.48,1.19,.7,2.44,.63,3.64-.01,.26-.08,.55-.35,.63-.34,.09-.69-.25-.91-.54-1.08-1.45-2.2-2.97-2.72-4.61-.35-1.09,.1-2.64-1.3-3.33-.66-.33-1.44-.33-2.09-.13-.55,.17-1.05,.51-1.17,1.01-.16,.64,.32,1.35,.89,1.87,.57,.52,1.25,.95,1.73,1.54,.31,.38,.51,.82,.71,1.25,.56,1.22,1.18,2.44,1.68,3.67-.89-.41-1.36-.2-2.22-.19-1.15,.02-2.43-.37-3.58-.59-.72-.14-1.49-.3-2.04-.78-.32-.28-.53-.63-.87-.89-.97-.75-2.33-.31-3.34,.16-.61,.29-1.3,.78-1.03,1.41,.16,.37,.61,.6,1.03,.76,3.33,1.28,7.27,.82,10.16,2.85-1.58,.29-3.15,.59-4.73,.88-.34,.06-.69,.12-1.04,.04-.37-.09-.68-.33-1.01-.51-.82-.45-1.82-.58-2.64-.33-.66,.2-1.24,.78-.99,1.41,.2,.49,.79,.79,1.34,.98,1.87,.66,3.89,.82,5.71,.45,1.74-.35,3.61-1.15,5.29-.27-.77,.9-1.54,1.8-2.31,2.7-.2,.23-.4,.46-.69,.59-.51,.22-1.21,.09-1.7,.35-.65,.35-.55,1.35,.09,1.87,.64,.52,1.59,.6,2.32,.36,.73-.24,1.27-.76,1.73-1.29,.43-.5,.81-1.03,1.14-1.59,.57-.97,1.07-2.1,2.23-2.51,.89-.31,2-.09,2.93,.36,1.75,.85,3.24,2.38,4.73,3.55,1.74,1.36,3.51,2.69,5.32,3.97,3.6,2.55,7.33,4.95,11.18,7.16Z"/><path class="g" d="M145.67,90.25c6.31-1.72,12.23-4.23,17.1-7.7,2.23-1.59,4.59-3.53,6.45-5.53,2.03-2.17,2.97-5.31,5.62-6.88-17.35,10.32-38.01,10.78-57.56,11.29-7.29,.19-14.58,.48-21.88,.65-9.02,.22-18.05,.27-27.06-.26-9.09-.53-17.62-3.41-26.7-3.74-9.77-.35-19.57-.08-29.31,.81-9.3,.85-.19,7.92,4.54,10.02,.46,.2,.88,.36,1.24,.46,10.74,3.03,21.12,3.43,32.03,2.38,10.81-1.04,20.89-3.06,31.77-2.86,10.54,.19,20.87,3.28,31.37,4.13,9.84,.8,21.68,.14,32.39-2.78Z"/><path class="j" d="M209.79,59.78l-.06,.04c-6.19,3.67-12.95,6.17-19.43,9.26-7.02,3.36-13.7,7.37-20.79,10.59-14.28,6.47-29.33,9.55-44.94,9.8-5.74,.09-11.48-.08-17.2-.53-9.29-.72-18.53-2.15-27.86-2.41-8.4-.24-16.86,1.82-25.21,1.05-8.41-.77-17.41-.49-26.02-1.33-5.04-.49-18.17-1.15-20.12-7.26-.42-1.32,.02-2.8,.84-3.93,.82-1.12,1.97-1.95,3.12-2.74,4.69-3.2,9.68-5.96,14.89-8.24,4.14-1.81,6.3-7.13,10.71-7.98,2.25-.43,4.62,.21,6.58,1.41,3.06,1.87,7.65,.91,11.09,.63,5-.42,10,.06,14.78,1.6,3.47,1.12,6.9,2.44,10.51,3.09,3.57,.64,5.92-.5,9.39-1.65,7.76-2.57,15.7-4.59,23.74-6.05,16.08-2.93,32.58-3.62,48.85-2.01,4.01,.4,8.01,.94,12.03,1.16,12.04,.68,29.99-.48,39.3-9.13,7.7-7.16,10.45-19.55,1.78-27.14-4.34-3.8-10.55-6.08-16.34-5.41-7.73,.9-10.19,8.17-12.45,14.52-4.29,12.05-13.86,17.24-26.25,16.69-4.07-.18-4.32-3.92-.04-4.24,4.92-.36,10.21-.46,14.76-2.56,12.7-5.86,5.69-26.57,22.8-28.84,7.66-1.01,16.64,1.86,22.09,7.39,14.04,14.26,4.15,35.43-10.54,44.19Z"/><path class="i" d="M218.29,51.32c-5.68,4.77-12.49,7.94-19.19,10.99-4.84,2.21-9.81,4.05-14.98,5.36-4.4,1.11-9.65,3.11-14.2,2.61-.99-.11-2.01-.34-2.96-.05-1.25,.39-2.05,1.57-2.9,2.56-3.81,4.46-10.12,4.72-15.41,6.46-5.55,1.83-11.74,4.22-17.79,4.41-8.3,1.93-16.87,2.5-25.4,2.16-3.33-.14-6.67-.43-9.97-.93-2.28-.35-5.32-1.86-7.5-1.79-1.51,.05-2.8,.85-4.24,1.18-1.54,.36-3.15,.38-4.7,.06-1.38-.29-3.74-1.96-1.71-3.35-.53-.17-1.11,.13-1.49,.54-.39,.4-.65,.91-1.04,1.31-.96,1-2.47,1.18-3.86,1.31-5.87,.55-11.63,.45-17.51,.48-.74,0-1.75-.25-1.7-.99,.06-.88,1.59-1,1.72-1.87-.35-.28-.86-.05-1.24,.17-2.44,1.42-5.03,2.65-7.81,3.1s-5.78,.05-8.1-1.56c-1.03-.72-1.94-1.68-3.15-2.03-.64-.19-1.5-.08-1.74,.55-.22,.59,.21,1.4-.26,1.81-.15,.13-.36,.18-.56,.22-2.76,.51-5.61,.56-8.39,.15-1.69-.25-6.2-.62-6.93-2.37-.28-.67-.24-1.43-.11-2.15,.04-.23,.1-.48,.02-.7-.15-.42-.67-.55-1.11-.58-.72-.04-1.44,.04-2.16,0-.72-.04-1.46-.22-2-.7-.95-.85-.62-2.43-.18-3.46-.35,.36-.64,.68-.76,.85-.82,1.12-1.26,2.6-.84,3.93,1.94,6.1,15.08,6.76,20.12,7.26,8.61,.84,17.6,.56,26.02,1.33,8.36,.77,16.81-1.29,25.21-1.05,9.33,.26,18.57,1.69,27.86,2.41,5.72,.44,11.46,.62,17.2,.53,15.62-.25,30.67-3.33,44.94-9.8,7.1-3.22,13.77-7.23,20.79-10.59,6.47-3.09,13.24-5.59,19.43-9.26l.06-.04c5.23-3.12,9.85-7.82,13-13.21-1.3,1.7-2.77,3.29-4.5,4.75Z"/><path class="k" d="M185.21,54.34c-3.51,.17-6.9,.14-9.94-.02,4.99,5.04,7.59,12.24,6.46,19.15,2.83-1.51,5.67-3,8.57-4.39,.11-.05,.22-.1,.33-.15-.3-5.35-.77-11.98-5.42-14.59Z"/><path class="k" d="M204.67,60.4c-.07-1.22-.15-2.44-.47-3.61-.28-1.04-.76-2.03-1.38-2.91-.22-.31-.46-.61-.75-.85-1.67-1.42-4.03-.43-5.99,.04,1.42,1.12,2.38,2.94,3.1,4.53,1.06,2.35,1.21,4.78,.74,7.18,1.15-.49,2.33-.98,3.41-1.59,.81-.46,1.2-1.04,1.32-1.83,.04-.29,.05-.6,.03-.95Z"/><path class="k" d="M220.13,35.64c-.4,1.22-.91,2.42-1.54,3.57,2.31,.74,4.37,2.35,5.71,4.46,.71-1.53,1.29-3.11,1.74-4.71-1.07-2.47-3.73-3.98-5.92-3.33Z"/><path class="k" d="M222.57,18.21c-2.03,.04-3.18,1.55-3.75,3.41,.72,1.15,1.26,2.36,1.63,3.6,1.62-1.01,3.4-1.62,5.14-1.57-.72-1.87-1.72-3.69-3.02-5.43Z"/><path class="k" d="M199.43,8.07c-.13,1.42,.39,3.14,1.06,4.48,.78-.04,1.57-.05,2.35,0-.2-1.5-.12-3.06,.26-4.5-1.24-.08-2.47-.08-3.67,.01Z"/><path class="k" d="M193.33,15.34c.94-.84,2-1.53,3.24-2.02-.59-1.45-.93-3.04-.93-4.58-1.55,.45-2.85,1.09-3.96,1.87,.06,1.72,.65,3.54,1.65,4.73Z"/><path class="k" d="M186.84,27.46c.04-.11,.09-.21,.13-.32,.3-.84,.61-1.7,.93-2.56-1.19-.21-2.35-.59-3.38-1.12-.29,.93-.58,1.86-.89,2.78,.89,.66,2.15,1.07,3.22,1.22Z"/><path class="k" d="M182.82,34.83c.88-1.14,1.7-2.38,2.42-3.75-1.07-.26-2.1-.68-3.03-1.25-.59,1.27-1.3,2.47-2.16,3.55,.67,.85,1.59,1.41,2.76,1.46Z"/><path class="k" d="M162.67,39.46c-.67,.04-1.33,.09-1.99,.14-4.29,.31-4.03,4.06,.04,4.24,.76,.03,1.51,.03,2.25,.02-.33-1.44-.43-2.92-.3-4.39Z"/><path class="k" d="M166.84,43.57c1.63-.21,3.21-.54,4.7-1-.63-1.16-.97-2.52-1.11-3.98-1.26,.25-2.55,.41-3.84,.54-.26,1.47-.17,3.01,.25,4.44Z"/><path class="k" d="M175.24,41.08c1.65-.83,3.19-1.83,4.58-3.04-.89-.39-1.73-.97-2.46-1.79-.06-.07-.11-.14-.16-.21-.54,.36-1.12,.71-1.75,1-.46,.21-.93,.39-1.4,.56,.07,1.4,.39,2.67,1.2,3.48Z"/><path class="k" d="M189.44,20.87c.42-.88,.88-1.74,1.39-2.54-1.1-1.14-1.94-2.65-2.45-4.31-1.17,1.74-2,3.73-2.71,5.82,.94,.65,2.42,.95,3.77,1.03Z"/><path class="k" d="M206.92,8.6c-.52,1.42-.41,3.21,.02,4.69,.55,.15,1.09,.32,1.63,.52,.49-1.49,1.47-2.86,2.72-3.94-1.42-.54-2.89-.96-4.37-1.27Z"/><path class="k" d="M215.45,11.86c-1.68,.62-3.13,2.03-3.28,3.61,1.29,.74,2.5,1.6,3.59,2.55,.13,.11,.25,.23,.37,.35,.83-1.51,1.99-2.74,3.51-3.44-1.25-1.16-2.67-2.19-4.18-3.08Z"/><path class="k" d="M221.1,29.54c0,.7-.02,1.4-.1,2.1,2.1,.04,4.25,.93,5.97,2.43,.2-2.08,.13-4.17-.22-6.23-1.76-1.15-3.96,.1-5.65,1.7Z"/><path class="k" d="M216.23,42.73c-.48,.6-.99,1.17-1.53,1.72,1.06,.65,2.05,1.41,2.92,2.36,1.1,1.19,1.83,2.55,2.29,3.98,.75-.96,1.45-1.95,2.11-2.96-.45-2.93-3.03-4.93-5.78-5.1Z"/><path class="k" d="M213.44,50.07c-.92-.91-2.07-1.56-3.29-2.06-.92,.56-1.88,1.06-2.88,1.54,1.98,1.48,3.57,3.46,4.3,5.86,.31,1.02,.42,2,.38,2.95,1.09-.77,2.15-1.6,3.17-2.49,.24-2.13-.05-4.17-1.69-5.79Z"/><path class="h" d="M52.61,75.36c.47,4.16-3,7.98-7.76,8.52-4.76,.54-9-2.39-9.47-6.56-.47-4.16,3-7.98,7.76-8.52,4.76-.54,9,2.39,9.47,6.56Z"/><path class="l" d="M51.37,75.5c.41,3.57-2.57,6.83-6.64,7.3-4.07,.46-7.71-2.05-8.11-5.62-.41-3.57,2.57-6.83,6.64-7.29,4.07-.46,7.71,2.05,8.11,5.62Z"/><path class="e" d="M45.54,76.16c.39,3.45-.83,6.43-.83,6.43,0,0-1.86-2.62-2.25-6.08-.39-3.45,.83-6.43,.83-6.43,0,0,1.86,2.62,2.25,6.08Z"/><path class="j" d="M85.49,80.2c-1.28-1.15-2.87-1.44-4.83,.16-2.2,1.79-1.1,3.88-.14,5.87,.32,.66,3.05,6.74,3.16,6.6-2.87,3.44-5.54,7.04-8.01,10.78-1.23,1.87-2.41,3.77-3.54,5.71-.97,1.66-1.77,3.72-3.14,5.1-.73,.74-1.74,1.26-2.77,1.16-1.34-.13-2.35-1.22-3.35-2.12-.58-.52-1.2-.99-1.85-1.42-.7-.46-1.47-.87-2.3-.94-.84-.07-1.75,.27-2.15,1.01-.4,.74-.06,1.84,.75,2.05,.6,.16,1.24-.18,1.86-.07,.35,.06,.66,.26,.96,.46,1.17,.77,2.34,1.54,3.51,2.3-1.28,1.4-3.51,1.03-5.41,1.11-1.98,.08-3.93,.79-5.5,2.01-.46,.36-.93,.84-.9,1.42,.03,.75,.87,1.22,1.62,1.26,.93,.05,1.88-.35,2.49-1.06,.25-.29,.45-.63,.78-.82,.31-.19,.69-.21,1.05-.23,1.71-.1,3.41-.2,5.12-.3-1.98,2.97-6.12,3.52-8.87,5.79-.35,.28-.69,.65-.69,1.1,0,.75,.92,1.1,1.65,1.25,1.22,.25,2.77,.35,3.41-.71,.22-.37,.27-.81,.47-1.2,.34-.66,1.03-1.04,1.69-1.38,1.05-.54,2.16-1.3,3.31-1.59,.86-.22,1.43-.11,2.13-.79,.06,1.47-.02,2.95-.04,4.42,0,.52-.01,1.04-.15,1.54-.21,.76-.7,1.41-1.03,2.13-.33,.72-.49,1.61-.05,2.26,.35,.51,1,.75,1.63,.78,.74,.04,1.51-.16,2.03-.69,1.09-1.12-.04-2.67-.19-3.94-.22-1.92,.23-3.86,.66-5.71,.09-.37,.28-.84,.66-.83,.3,0,.5,.31,.63,.59,.6,1.28,.94,2.69,.99,4.11,.04,1.03-.02,2.2,.7,2.93,.55,.55,1.48,.68,2.15,.27s.99-1.29,.75-2.03c-.12-.37-.37-.69-.61-1.01-1.54-2.1-2.65-4.52-3.21-7.06-.05-.23-.1-.48,0-.69,.08-.17,.23-.29,.37-.4,2.29-1.77,5.04-3.77,6.79-6.1,2.66-2.88,5.17-5.89,7.68-8.9,3.95-4.74,5.96-10.13,3.78-16.23-.71-1.98-1.97-6.06-4.04-7.91Z"/><path class="i" d="M73.97,106.25h.06c1.42-1.36,2.84-2.71,4.02-4.15,2.47-3.03,4.44-6.6,7.56-8.89-3.37-3.21-5.11-8.44-4.74-13.02-.08,.06-.15,.1-.22,.16-2.2,1.79-1.1,3.88-.14,5.87,.32,.66,3.05,6.74,3.16,6.6-2.87,3.44-5.54,7.04-8.01,10.78-.58,.88-1.14,1.76-1.7,2.65Z"/><path class="j" d="M172.07,100.08c-3.73-1.86-7.71-3.15-11.79-4.12-.63-.15-4.78-1.47-5.03-1.15,5.27-6.63,10.64-13.43,13.47-21.41,.48-1.37,.84-3.05-.12-4.14-.39-.45-.96-.71-1.53-.89-5.73-1.8-10.04,2.89-13.03,7.07-3.77,5.27-6.35,11.27-8.88,17.19-.62,1.46-1.25,2.94-1.46,4.51-.21,1.57,.06,3.27,1.06,4.5,1.6,1.96,4.48,2.14,7.01,2.12,3-.02,6.21-.21,9.29-.1,1.79,.06,3.61,.02,5.38,.35,.58,.11,5.12,1.4,3.65,2.48-.24,.17-.54,.2-.83,.22-2.36,.19-4.71,.37-7.07,.56-.4,.03-.84,.09-1.08,.41-.24,.34-.13,.83,.14,1.16,.65,.8,1.92,.8,2.83,.32,.41-.21,.78-.5,1.22-.61,.34-.09,.7-.07,1.05-.03,.99,.09,2.06,.22,2.98,.58-.89,1.18-2.49,1.55-3.72,2.3-.8,.49-1.59,1.07-2.06,1.88-.47,.81-.57,1.9-.02,2.66,.55,.76,1.83,.95,2.43,.23,.45-.53,.41-1.34,.82-1.91,.23-.33,.58-.54,.92-.75,1.34-.81,2.68-1.63,4.02-2.44,.8,1.97-.64,4.05-1.48,6-.87,2.04-1.09,4.36-.62,6.53,.14,.64,.4,1.34,1,1.6,.77,.33,1.65-.29,2.05-1.03,.5-.92,.55-2.07,.13-3.03-.17-.39-.42-.76-.46-1.18-.04-.41,.12-.8,.27-1.18,.72-1.77,1.44-3.55,2.15-5.32,2.05,3.43,.61,7.88,1.58,11.76,.12,.49,.32,1.01,.78,1.22,.76,.36,1.55-.4,2.06-1.07,.83-1.11,1.69-2.63,.92-3.79-.27-.4-.69-.67-.99-1.05-.51-.66-.56-1.55-.59-2.38-.04-1.32-.28-2.81-.01-4.11,.2-.98,.58-1.5,.23-2.54,1.51,.65,2.98,1.44,4.45,2.16,.52,.25,1.04,.51,1.48,.89,.67,.58,1.09,1.39,1.66,2.07s1.39,1.27,2.27,1.14c.69-.11,1.24-.66,1.57-1.27,.4-.72,.56-1.61,.28-2.39-.6-1.64-2.72-1.24-4.08-1.71-2.05-.7-3.79-2.09-5.46-3.41-.68-.54-.32-1.26-.51-2-.63-2.51-3.61-4.21-5.66-5.43-.88-.53-1.78-1.02-2.69-1.47Z"/><path class="i" d="M172.82,100.66c.66,.31,1.46,.68,2.29,1.1-.12-.07-.24-.14-.35-.21-.88-.53-1.78-1.02-2.69-1.47-3.73-1.86-7.71-3.15-11.79-4.11-.63-.15-4.78-1.47-5.03-1.15,5.27-6.63,10.64-13.43,13.47-21.41,.48-1.37,.84-3.05-.12-4.14-.21-.23-.46-.42-.73-.56-.61,5.72-4.35,10.37-7.68,15.07-2.99,4.21-6.52,9.2-10.96,12.23,8.01,1.02,16.13,1.21,23.59,4.67Z"/><g class="f"><path class="h" d="M174.24,64.48c.07-1.32-1.44-.82-2.16-.55-.78,.29,.1,1.32,.58,1.53,.67,.29,1.55-.25,1.58-.98Z"/><g><path class="h" d="M14.54,78.84c.05,.44-.32,.85-.83,.91-.51,.06-.96-.26-1.01-.7-.05-.44,.32-.85,.83-.91,.51-.06,.96,.26,1.01,.7Z"/><path class="h" d="M92.47,81.03c.06,.33,.21,.64,.46,.94,.33,.39,.85,.56,1.34,.69,.33,.09,.68,.18,1.03,.14,.44-.05,.84-.31,1.18-.6,.93-.8,1.57-2.12,1.1-3.25-1.29-3.1-5.54-.33-5.1,2.07Z"/><path class="h" d="M111.44,78.29c.41-1.05,.26-3.14-1.15-3.44-.85-.18-2.39,.85-2.98,1.41-1.32,1.27-1.05,3.21,.69,3.83,1.35,.49,2.92-.47,3.44-1.81Z"/><path class="h" d="M118.43,82.01c2.47,.44,3.36-3.63,.96-3.42-1.69,.14-3.42,2.99-.96,3.42Z"/><path class="h" d="M112.74,85.44c1.04-.93,.03-2.47-1.2-1.72-1.09,.67-.49,2.61,.8,1.99,.13-.06,.26-.15,.4-.27Z"/><path class="h" d="M103.16,83.73c-1.2-1.09-3.18,.26-1.8,1.29,.66,.49,2.23,.26,2.13-.74-.02-.21-.16-.4-.32-.54Z"/><path class="h" d="M131.58,80.67c.37-2.68-2.34-2.12-3.71-1.05-1.29,1.01-1.15,2.89,.61,3.34,.65,.17,1.36-.06,1.91-.45,.61-.43,1.08-1.1,1.19-1.84Z"/><path class="h" d="M136.8,81.84c-2.63-1.5-3.38,3.62-.22,2.3,.32-.13,.62-.35,.78-.65,.3-.57,0-1.33-.56-1.65Z"/><path class="h" d="M124.85,86.51c2.69-2.1-3.37-3.6-2.72-.41,.24,1.21,1.99,.98,2.72,.41Z"/><path class="h" d="M125.94,71.3c-2.25-2.57-4.68,.83-2.61,3.02,.2,.22,.44,.43,.73,.49,.48,.1,.92-.25,1.29-.57,.43-.38,.88-.79,1.03-1.35,.15-.55-.06-1.16-.43-1.59Z"/><path class="h" d="M137.66,72.34c-1.69-2.44-6.06,2.83-1.64,3.19,.28,.02,.56,0,.81-.13,.57-.27,.83-.93,.97-1.55,.11-.51,.15-1.08-.14-1.51Z"/><path class="h" d="M116.78,71.03c1.27-2.14-3.23-4.64-4.06-1.64-.57,2.07,1.87,3.18,3.45,2.23,.24-.15,.46-.34,.61-.59Z"/><path class="h" d="M103.85,71.91c-.35-2.96-4.32-1.41-4.61,.65-.12,.84,.79,2.16,1.59,2.38,.48,.13,1.01,0,1.45-.24,1-.53,1.7-1.67,1.57-2.79Z"/><path class="h" d="M91.13,72.27c-1.19-2.47-4.9-.89-4.74,1.5,.06,.94,1.37,1.97,2.26,1.98,.59,0,1.12-.33,1.58-.69,.48-.38,.95-.85,1.09-1.45,.1-.45,.02-.92-.18-1.33Z"/><path class="h" d="M87.46,78.64c-2.83-1.86-4.77,3.59-1.08,3.52,1.01-.02,1.97-.87,1.99-1.88,.01-.65-.36-1.29-.91-1.65Z"/><path class="h" d="M150.12,74.33c3.33-1.13,.96-4.89-1.53-3.04-2.39,1.77-1.16,3.95,1.53,3.04Z"/><path class="h" d="M144.95,82.11c1.43-.45,2.34-3.15,.56-3.83-1.14-.44-3.39,1.42-3.18,2.64,.18,1.04,1.78,1.45,2.62,1.19Z"/><path class="h" d="M144.44,65.67c-2.59-3.07-6.78,4.47-2.34,4.16,.7-.05,1.3-.51,1.78-1.03,.39-.43,.73-.92,.87-1.48,.14-.56,.06-1.2-.31-1.64Z"/><path class="h" d="M133.4,67.08c-.12-2.12-1.83-2.22-3.34-1.22-1.98,1.32-.29,4.22,1.8,3.67,1.01-.27,1.6-1.41,1.53-2.45Z"/><path class="h" d="M120.95,65.96c1.69,1.83,4.86-.21,3.88-2.51-1.19-2.8-5.82,.4-3.88,2.51Z"/><path class="h" d="M110.81,63.46c-.59-2.8-3.85-.31-3.77,1.44,.05,1.16,1.29,2.3,2.39,1.73,1.1-.57,1.64-1.96,1.38-3.17Z"/><path class="h" d="M97.85,66.26c-1.01-3.43-6.14,.43-2.91,2.12,1.38,.72,3.41-.41,2.91-2.12Z"/><path class="h" d="M88.02,66.09c-.62-2.23-3.5-1.77-3.98,.31-.53,2.31,2.3,1.9,3.45,.99,.21-.17,.44-.35,.53-.6,.08-.22,.06-.46,0-.69Z"/><path class="h" d="M80.85,69.41c-3.86-1.47-3.12,5.71,.43,3.03,.74-.56,1.04-1.73,.45-2.45-.23-.28-.55-.46-.88-.59Z"/><path class="h" d="M77.04,64.68c.73-2.46-4.54-2.36-3.3,.11,.62,1.24,2.92,1.21,3.3-.11Z"/><path class="h" d="M67.37,64.59c1.52,.89,2.62-1.26,1.39-2.18-1.23-.93-3.21,1.12-1.39,2.18Z"/><path class="h" d="M70.31,70.45c1.37,1.31,3.84,0,2.73-1.87-1.02-1.72-4.42,.25-2.73,1.87Z"/><path class="h" d="M61.95,67.82c1.26-1.92-2.07-3.94-3.48-2.28-1.28,1.51-.08,3.29,1.71,3.16,.68-.05,1.39-.31,1.77-.88Z"/><path class="h" d="M61.61,61.33c.73-1.45-1.7-2.1-2.53-1.06-.75,.94-.04,1.48,1.04,1.63,.56,.08,1.24-.06,1.5-.57Z"/><path class="h" d="M71.79,76.2c-.9-1.34-3.53-.53-2.65,.98,.46,.78,2.16,1.02,2.69,.28,.26-.37,.21-.89-.04-1.27Z"/><path class="h" d="M77.1,77.99c1.21,.93,3.12-.89,1.77-1.88-1.05-.76-3.11,.85-1.77,1.88Z"/><path class="h" d="M75,83.24c-.27-1.72-2.27-1.35-2.58,.14-.27,1.3,1.13,1.92,2.13,1.21,.41-.29,.53-.86,.45-1.36Z"/><path class="h" d="M62.18,73.81c-1.51-2.14-4.37,1.66-1.37,2.08,.41,.06,.85-.02,1.17-.28,.51-.42,.58-1.26,.19-1.8Z"/><path class="h" d="M54.76,62.03c-2.15-2.43-4.05,2.29-.75,1.83,.38-.05,.77-.21,.97-.54,.24-.4,.1-.94-.21-1.29Z"/><path class="h" d="M43.42,62.4c1.27,.52,2.51-1.24,1.29-2.06-1.09-.74-3.21,1.27-1.29,2.06Z"/><path class="h" d="M34.16,62.85c1.61-.31,.85-2.53-.82-1.84-.96,.39-.86,1.15-.34,1.57,.29,.23,.71,.36,1.16,.28Z"/><path class="h" d="M44.24,64.59c-.37-1.7-3.79,.39-2.31,1.6,1.07,.87,2.57-.42,2.31-1.6Z"/><path class="h" d="M37.4,67.87c1.77-3.53-4.89,.2-1.88,.85,.72,.16,1.54-.19,1.88-.85Z"/><path class="h" d="M52.31,68.72c1.04-.63,.32-1.99-.56-2.08-.66-.06-2.31,.65-2,1.5,.28,.76,1.98,.93,2.56,.58Z"/><path class="h" d="M20.31,73.07c1.2-1.9-1.08-2.3-2.39-1.64-1.59,.81,.86,4.06,2.39,1.64Z"/><path class="h" d="M27.42,67.95c.43,1.4,2.99,.9,2.79-.56-.22-1.65-3.3-1.07-2.79,.56Z"/><path class="h" d="M30.96,72.05c-.97-.67-3.08,1.16-1.14,1.73,1.04,.31,2.24-.97,1.14-1.73Z"/><path class="h" d="M24.46,78.92c-.45-.91-1.06-.81-1.84-.49-.42,.17-1.57,.5-1.64,1.05-.09,.65,1.19,1.23,1.68,1.24,.65,.03,1.29-.31,1.7-.82,.08-.1,.16-.22,.2-.35,.06-.21,0-.44-.1-.63Z"/><path class="h" d="M32.93,79.34c-.55-.75-.88-1.09-1.72-.61-.49,.28-1.28,.89-.89,1.53,.45,.75,1.87,.36,2.42,0,.19-.13,.39-.31,.37-.54,0-.14-.1-.26-.18-.38Z"/><path class="h" d="M60.1,80.01c-.48-1.06-1.8-.85-2.63-.37-2.11,1.22,.11,3.03,1.78,2.19,.66-.33,1.16-1.15,.85-1.82Z"/><path class="h" d="M103.87,60.51c-.47-1.69-3.77-.87-3.03,.71,.41,.86,1.97,.89,2.62,.38,.32-.25,.52-.69,.41-1.09Z"/><path class="h" d="M117.77,59.23c1.42-.75,.46-2.69-1.08-1.96-.89,.42-1.96,1.45-.49,1.96,.51,.18,1.09,.25,1.57,0Z"/><path class="h" d="M129.84,57.3c1.39-2.34-2.69-1.93-3.12-.33-.27,1.04,1,1.47,1.78,1.27,.54-.14,1.05-.46,1.34-.94Z"/><path class="h" d="M139.63,61.04c.67-1.04-.47-2.3-1.5-2.21-1.05,.09-1.83,1.03-1.89,1.99-.01,.23-.02,.46,.05,.68,.16,.43,.65,.66,1.11,.66,.46,0,.89-.21,1.3-.41,.35-.18,.71-.38,.92-.71Z"/><path class="h" d="M150.77,59.83c-.73-1.47-3.72-.45-2.89,1.32,.23,.49,.77,.84,1.31,.76,.47-.07,.83-.43,1.15-.78,.33-.37,.65-.87,.43-1.31Z"/><path class="h" d="M145.31,55.05c.14-1.27-1.99-1.61-2.49-.48-.46,1.04,.59,1.38,1.42,1.26,.47-.07,1.02-.3,1.07-.78Z"/><path class="h" d="M161.37,65.43c1.67-2.01-2.31-3.38-3.62-1.74-.77,.96-.42,2.16,.7,2.59,.75,.28,1.58-.05,2.3-.41,.23-.11,.46-.24,.62-.43Z"/><path class="h" d="M167.23,67.42c.38-.4,.42-1.45-.07-1.82-.47-.36-1.26-.04-1.73,.2-1.42,.74-1.06,1.72,.4,1.91,.49,.06,1.06,.06,1.39-.29Z"/><path class="h" d="M162.18,71.15c-.49-1.73-3.02-.35-2.87,.94,.09,.77,1.06,1.24,1.73,1.03,.8-.25,1.37-1.16,1.14-1.97Z"/><path class="h" d="M158.55,76.66c-.49-1.73-3.02-.35-2.87,.94,.09,.77,1.06,1.24,1.73,1.03,.8-.25,1.37-1.16,1.14-1.97Z"/><path class="h" d="M176.53,73.13c1.63-2.7-3.21-1.1-2.41,.28,.51,.89,1.98,.43,2.41-.28Z"/><path class="h" d="M169.14,61.53c2.96-.42-1.17-3.6-1.55-1.05-.05,.36,.1,.62,.35,.79,.33,.23,.82,.31,1.19,.26Z"/><path class="h" d="M162.91,58.51c.69-.35,.75-1.57,.06-1.99-.68-.41-2.08,.34-2.05,1.16,.03,.78,1.4,1.12,1.99,.83Z"/><path class="h" d="M155.93,55.76c.31-1.45-1.31-.94-2.03-.64-1.08,.47-.41,1.29,.45,1.52,.64,.17,1.38,0,1.58-.89Z"/><path class="h" d="M173.05,57.91c1.43,.46,2.29-1.89,.69-1.97-1.22-.06-2.22,1.47-.69,1.97Z"/><path class="h" d="M194.06,57.34c.75-2.17-3.85-.78-2.24,.56,.64,.53,1.96,.24,2.24-.56Z"/><path class="h" d="M195.22,64.9c.64-.42,.99-2-.02-2.13-.79-.1-1.99,1.07-1.5,1.86,.31,.49,1.04,.59,1.53,.28Z"/><path class="h" d="M211.7,54.92c-.56-.79-2.11-.41-1.94,.65,.14,.86,1.12,1.24,1.77,.67,.36-.32,.45-.92,.17-1.32Z"/><path class="h" d="M205.84,55.04c-.06-1.17-2.15-1.09-2.08,.05,.06,.93,1.27,1.19,1.84,.58,.16-.17,.26-.4,.25-.63Z"/><path class="h" d="M216.13,51.6c1.66-1.03-.99-3.11-1.67-1.23-.41,1.13,.79,1.78,1.67,1.23Z"/><path class="h" d="M218.57,43.83c1.89,1.09,1.81-2.19,.18-1.21-.79,.48-.62,.96-.18,1.21Z"/><path class="h" d="M224.37,37.81c.97,.36,1.55-1.04,.85-1.65-1.08-.94-2.18,1.15-.85,1.65Z"/><path class="h" d="M223.84,28.38c.83-1.89-2.45-1.01-1.55,.1,.39,.48,1.27,.53,1.55-.1Z"/><path class="h" d="M219.87,17.04c-1.22-1.12-1.82,1.46-.33,1.05,.43-.12,.66-.75,.33-1.05Z"/><path class="h" d="M198.99,9.58c-1.22-1.12-1.82,1.46-.33,1.05,.43-.12,.66-.75,.33-1.05Z"/></g></g></g><path class="b" d="M224.31,43.67h0c3.18-6.86,3.94-14.52,.71-21.42v-.03c-1.1-2.32-2.63-4.55-4.68-6.63-4.33-4.39-10.88-7.1-17.23-7.53h0s-.08,0-.12,0c-.55-.03-1.1-.05-1.65-.05-.03,0-.06,0-.09,0-.57,0-1.14,.03-1.7,.07-.04,0-.07,0-.11,0h0c-.4,.04-.8,.07-1.19,.13-1.38,.18-2.59,.5-3.68,.9l-.05,.02c-6.7,2.52-8.32,8.94-10.26,15.16-.18,.57-.35,1.13-.54,1.69-.46,1.4-.98,2.76-1.59,4.05-.1,.21-.21,.43-.32,.64-.04,.08-.09,.16-.13,.24-.47,.87-1,1.7-1.61,2.48h0c-.8,1.01-1.75,1.9-2.87,2.66h0c-.27,.18-.54,.35-.83,.51-.28,.15-.56,.31-.85,.44-.03,.01-.05,.03-.08,.04-.46,.21-.93,.39-1.4,.56h0c-1.17,.43-2.38,.75-3.61,.99h0c-1.26,.25-2.55,.41-3.84,.54v.02c-1.31,.13-2.62,.22-3.92,.31h0c-.67,.04-1.33,.09-1.99,.14-2.14,.16-3.15,1.17-3.12,2.17,.04,1,1.12,1.98,3.15,2.07h.02c.48,.02,.94,.02,1.41,.02,10.27,.09,18.46-3.94,23.1-12.77h0c.59-1.13,1.13-2.34,1.6-3.62h0c.04-.11,.09-.21,.13-.32,.3-.84,.61-1.7,.93-2.56h0c.47-1.26,.97-2.51,1.54-3.71h0c.42-.88,.88-1.74,1.39-2.54h0c.71-1.12,1.53-2.14,2.49-3h0c.94-.83,2-1.53,3.24-2.01h0c.86-.34,1.8-.58,2.85-.7,.35-.04,.71-.07,1.06-.09v.02c.79-.04,1.57-.05,2.36,0,1.38,.1,2.76,.35,4.11,.73h0c.55,.17,1.09,.33,1.63,.53,1.24,.45,2.45,1.01,3.59,1.66,.65,.37,1.27,.77,1.87,1.2h0c.6,.43,1.17,.88,1.72,1.36h0l.02,.02c.12,.11,.23,.22,.35,.33h0c1.09,1.01,1.98,2.1,2.7,3.24h0c.72,1.15,1.26,2.36,1.63,3.6h0c.42,1.4,.63,2.85,.65,4.31h-.01c0,.71-.02,1.41-.1,2.12h.01c-.15,1.35-.44,2.69-.88,4h-.01c-.4,1.21-.91,2.4-1.52,3.54-.67,1.25-1.47,2.44-2.37,3.55h0c-.48,.6-.99,1.17-1.53,1.72h0c-.24,.24-.48,.48-.73,.71-1.14,1.06-2.42,2.01-3.79,2.85h-.03c-.92,.55-1.88,1.05-2.88,1.53l.02,.02c-2.41,1.15-5.04,2.05-7.77,2.75-1.15,.08-2.37,.49-3.46,.75l.02,.02c-3.64,.7-7.37,1.09-10.98,1.26-.78,.04-1.55,.06-2.32,.08-.09,0-.17,0-.26,0-.8,.02-1.58,.02-2.36,.02-.05,0-.11,0-.16,0-.8,0-1.58-.02-2.34-.04h-.09c-.79-.02-1.56-.05-2.32-.09h0c-.2,0-.4-.02-.6-.03-4.02-.23-8.02-.76-12.03-1.16-7.64-.76-15.33-.99-23.01-.74-.56-.2-1.11-.39-1.65-.58-.17-.06-.36-.13-.49-.25-.17-.16-.22-.37-.26-.58-.44-2.24-.34-4.5,.27-6.59,.09-.32,.2-.64,.17-.97-.05-.67-.68-1.33-1.43-1.52-.75-.19-1.55,.12-1.83,.7-.38,.77,.11,1.73,.46,2.6,.48,1.19,.7,2.44,.63,3.64-.01,.26-.08,.55-.35,.63-.34,.09-.69-.25-.91-.54-1.08-1.45-2.2-2.97-2.72-4.61-.35-1.09,.1-2.64-1.3-3.33-.66-.33-1.44-.33-2.09-.13-.55,.17-1.05,.51-1.17,1.01-.16,.64,.32,1.35,.89,1.87,.57,.52,1.25,.95,1.73,1.54,.31,.38,.51,.82,.71,1.25,.56,1.22,1.18,2.44,1.68,3.67-.89-.41-1.36-.2-2.22-.19-1.15,.02-2.43-.37-3.58-.59-.72-.14-1.49-.3-2.04-.78-.32-.28-.53-.63-.87-.89-.97-.75-2.33-.31-3.34,.16-.61,.29-1.3,.78-1.03,1.41,.16,.37,.61,.6,1.03,.76,3.33,1.28,7.27,.82,10.16,2.85l-.29,.05c-2,.18-4,.39-6,.64-.16-.09-.32-.2-.48-.29-.82-.45-1.82-.58-2.64-.33-.57,.17-1.09,.63-1.05,1.16-1.95,.29-3.9,.61-5.84,.96-8.04,1.46-15.98,3.48-23.74,6.05-1.28,.42-2.41,.84-3.5,1.18-3.54-1.55-7.09-3.1-10.7-4.5-2.6-1.27-5.93-1.97-8.74-2.63-.18-.04-.37-.09-.51-.2-.18-.14-.26-.35-.32-.54-.68-2.18-.84-4.44-.46-6.58,.06-.32,.13-.65,.06-.99-.13-.66-.82-1.25-1.59-1.36-.77-.1-1.53,.29-1.75,.9-.29,.81,.3,1.71,.74,2.53,.61,1.13,.96,2.35,1.03,3.55,.01,.26-.02,.56-.28,.66-.33,.13-.71-.17-.96-.44-1.23-1.33-2.51-2.71-3.21-4.29-.46-1.05-.19-2.63-1.66-3.16-.69-.25-1.47-.17-2.09,.1-.53,.23-.99,.62-1.06,1.13-.09,.66,.46,1.31,1.09,1.77,.62,.46,1.35,.81,1.88,1.35,.35,.35,.6,.76,.84,1.16,.69,1.15,1.44,2.3,2.07,3.47-.93-.31-1.37-.05-2.23,.06-1.14,.14-2.45-.1-3.62-.19-.73-.06-1.52-.14-2.11-.55-.35-.24-.6-.57-.96-.79-1.05-.64-2.35-.06-3.3,.53-.57,.35-1.21,.92-.87,1.51,.2,.35,.68,.53,1.11,.64,3.45,.91,7.32,.02,10.41,1.72-.95,.29-1.89,.57-2.84,.86-.39,.02-.79,.04-1.18,.07-.8,.07-1.66,.17-2.55,.26-.04-.02-.08-.04-.11-.05-.86-.36-1.87-.38-2.66-.04-.19,.08-.36,.19-.51,.32-1.91,.03-3.76-.21-5.25-1.12-1.96-1.2-4.32-1.84-6.58-1.41-4.42,.84-6.57,6.17-10.71,7.98-5.2,2.28-10.2,5.04-14.89,8.24-.99,.68-1.97,1.4-2.75,2.31-.16,.18-.29,.33-.36,.43-.82,1.12-1.26,2.6-.84,3.93,.13,.41,.32,.8,.55,1.16-2.01,2.35,4.44,7.1,8.18,8.76,.46,.2,.88,.36,1.24,.46,10.74,3.03,21.12,3.43,32.03,2.38,10.76-1.03,20.79-3.04,31.6-2.86,.05,.11,.1,.22,.15,.33,.73,1.59,1.52,3.25,1.73,3.55,.03,.04,.04,.05,.05,.04-2.87,3.44-5.54,7.04-8.01,10.78-1.23,1.87-2.41,3.77-3.54,5.71-.97,1.66-1.77,3.72-3.14,5.1-.73,.74-1.74,1.26-2.77,1.16-1.34-.13-2.35-1.22-3.35-2.12-.58-.52-1.2-.99-1.85-1.42-.7-.46-1.47-.87-2.3-.94-.84-.07-1.75,.27-2.15,1.01-.4,.74-.06,1.84,.75,2.05,.6,.16,1.24-.18,1.86-.07,.35,.06,.66,.26,.96,.46,1.17,.77,2.34,1.54,3.51,2.3-1.28,1.4-3.51,1.03-5.41,1.11-1.98,.08-3.93,.79-5.5,2.01-.46,.36-.93,.84-.9,1.42,.03,.75,.87,1.22,1.62,1.26,.93,.05,1.88-.35,2.49-1.06,.25-.29,.45-.63,.78-.82,.31-.19,.69-.21,1.05-.23,1.71-.1,3.41-.2,5.12-.3-1.98,2.97-6.12,3.52-8.87,5.79-.35,.28-.69,.65-.69,1.1,0,.75,.92,1.1,1.65,1.25,1.22,.25,2.77,.35,3.41-.71,.22-.37,.27-.81,.47-1.2,.34-.66,1.03-1.04,1.69-1.38,1.05-.54,2.16-1.3,3.31-1.59,.86-.22,1.43-.11,2.13-.79,.06,1.47-.02,2.95-.04,4.42,0,.52-.01,1.04-.15,1.54-.21,.76-.7,1.41-1.03,2.13-.33,.72-.49,1.61-.05,2.26,.35,.51,1,.75,1.63,.78,.74,.04,1.51-.16,2.03-.69,1.09-1.12-.04-2.67-.19-3.94-.22-1.92,.23-3.86,.66-5.71,.09-.37,.28-.84,.66-.83,.3,0,.5,.31,.63,.59,.6,1.28,.94,2.69,.99,4.11,.04,1.03-.02,2.2,.7,2.93,.55,.55,1.48,.68,2.15,.27,.67-.4,.99-1.29,.75-2.03-.12-.37-.37-.69-.61-1.01-1.54-2.1-2.65-4.52-3.21-7.06-.05-.23-.1-.48,0-.69,.08-.17,.23-.29,.37-.4,2.29-1.77,5.04-3.77,6.79-6.1,2.66-2.88,5.17-5.89,7.68-8.9,3.64-4.37,5.62-9.29,4.21-14.82,7.79,1,15.51,2.87,23.32,3.5,9.84,.8,21.68,.14,32.39-2.78,.2-.05,.4-.12,.59-.17-.37,.85-.74,1.71-1.1,2.56-.62,1.46-1.25,2.94-1.46,4.51-.21,1.57,.06,3.27,1.06,4.5,1.6,1.96,4.48,2.14,7.01,2.12,3-.02,6.21-.21,9.29-.1,1.79,.06,3.61,.02,5.38,.35,.58,.11,5.12,1.4,3.65,2.48-.24,.17-.54,.2-.83,.22-2.36,.19-4.71,.37-7.07,.56-.4,.03-.84,.09-1.08,.41-.24,.34-.13,.83,.14,1.16,.65,.8,1.92,.8,2.83,.32,.41-.21,.78-.5,1.22-.61,.34-.09,.7-.07,1.05-.03,.99,.09,2.06,.22,2.98,.58-.89,1.18-2.49,1.55-3.72,2.3-.8,.49-1.59,1.07-2.06,1.88-.47,.81-.57,1.9-.02,2.66,.55,.76,1.83,.95,2.43,.23,.45-.53,.41-1.34,.82-1.91,.23-.33,.58-.54,.92-.75,1.34-.81,2.68-1.63,4.02-2.44,.8,1.97-.64,4.05-1.48,6-.87,2.04-1.09,4.36-.62,6.53,.14,.64,.4,1.34,1,1.6,.77,.33,1.65-.29,2.05-1.03,.5-.92,.55-2.07,.13-3.03-.17-.39-.42-.76-.46-1.18-.04-.41,.12-.8,.27-1.18,.72-1.77,1.44-3.55,2.15-5.32,2.05,3.43,.61,7.88,1.58,11.76,.12,.49,.32,1.01,.78,1.22,.76,.36,1.55-.4,2.06-1.07,.83-1.11,1.69-2.63,.92-3.79-.27-.4-.69-.67-.99-1.05-.51-.66-.56-1.55-.59-2.38-.04-1.32-.28-2.81-.01-4.11,.2-.98,.58-1.5,.23-2.54,1.51,.65,2.98,1.44,4.45,2.16,.52,.25,1.04,.51,1.48,.89,.67,.58,1.09,1.39,1.66,2.07,.56,.68,1.39,1.27,2.27,1.14,.69-.11,1.24-.66,1.58-1.27,.4-.72,.56-1.61,.28-2.39-.6-1.64-2.72-1.24-4.08-1.71-2.05-.7-3.79-2.09-5.46-3.41-.68-.54-.32-1.26-.51-2-.6-2.37-3.29-4.02-5.31-5.23h0c-.12-.07-.24-.14-.35-.21-.88-.53-1.78-1.02-2.69-1.47-1.87-.93-3.8-1.72-5.77-2.39-1.97-.67-3.98-1.24-6.02-1.72-.63-.15-4.78-1.47-5.03-1.15,1.32-1.66,2.64-3.33,3.93-5.02,1.99-2.62,3.9-5.3,5.57-8.11,1.59-.63,3.18-1.3,4.76-2.01,1.77-.8,3.52-1.66,5.25-2.54,2.34-1.19,4.66-2.43,6.98-3.67,1.28-.68,2.57-1.36,3.86-2.03,.24-.13,.49-.25,.73-.38,1.31-.67,2.63-1.34,3.96-1.98,3.17-1.51,6.4-2.89,9.61-4.32h0c1-.42,2.01-.86,2.96-1.36,1.52-.72,3.03-1.46,4.51-2.26,.79-.43,1.57-.87,2.35-1.32l.06-.04c.59-.35,1.16-.72,1.73-1.11,.15-.1,.3-.21,.44-.31,.49-.34,.97-.7,1.44-1.07,.08-.06,.16-.12,.24-.18,.56-.44,1.1-.9,1.64-1.38,.09-.08,.17-.16,.26-.23,.48-.43,.95-.88,1.4-1.34,.07-.07,.13-.13,.2-.2,1.05-1.08,2.05-2.22,2.97-3.41,.03-.04,.07-.09,.1-.13,.64-.83,1.24-1.69,1.8-2.57h0c.26-.42,.51-.83,.76-1.25v-.02h.01c.55-.94,1.06-1.91,1.52-2.9h0Z"/></g></svg>