<svg id="Layer_1" data-name="Layer 1" xmlns="http://www.w3.org/2000/svg" xmlns:xlink="http://www.w3.org/1999/xlink" width="1600" height="900" viewBox="0 0 1600 900">
  <defs>
    <style>
      .cls-1, .cls-14 {
        fill: none;
      }

      .cls-2 {
        clip-path: url(#clip-path);
      }

      .cls-3 {
        opacity: 0.25;
      }

      .cls-11, .cls-4 {
        fill: #e4e7ea;
      }

      .cls-4, .cls-6 {
        stroke: #5e646b;
      }

      .cls-13, .cls-14, .cls-16, .cls-17, .cls-20, .cls-4, .cls-6, .cls-7 {
        stroke-miterlimit: 10;
      }

      .cls-5 {
        fill: #8e8e8e;
      }

      .cls-6 {
        fill: #bac4cc;
      }

      .cls-7, .cls-9 {
        fill: #f48f42;
      }

      .cls-7 {
        stroke: #663b14;
      }

      .cls-8 {
        opacity: 0.26;
      }

      .cls-10 {
        fill: #663b14;
      }

      .cls-12 {
        fill: #5e646b;
      }

      .cls-13 {
        fill: #efea37;
      }

      .cls-13, .cls-14, .cls-16 {
        stroke: #8e8e8e;
      }

      .cls-15 {
        fill: #eaa968;
      }

      .cls-16 {
        fill: #d7afdd;
      }

      .cls-17, .cls-19 {
        fill: #fff;
      }

      .cls-17 {
        stroke: #5b5a5b;
      }

      .cls-18 {
        fill: #56290b;
      }

      .cls-20 {
        fill: #333;
        stroke: #3d3d3d;
      }

      .cls-21 {
        fill: #60170e;
        stroke: #47130e;
        stroke-linejoin: round;
      }

      .cls-22 {
        fill: #b74277;
      }

      .cls-23 {
        fill: #727272;
      }

      .cls-24 {
        fill: #543a2d;
      }
    </style>
    <clipPath id="clip-path">
      <rect class="cls-1" x="-280" y="89.77" width="2160" height="720"/>
    </clipPath>
  </defs>
  <g class="cls-2">
    <g>
      <ellipse class="cls-3" cx="357.22" cy="740.77" rx="130" ry="34"/>
      <g>
        <path class="cls-3" d="M594,434c2.79-8.36-4.18-9.76-18.12-2.79-9.43,4.72-22.52,4.41-29.49,3.81l.9-1.72c9.76,0,19.52-12.54,14.19-18.19s-10.62,2.7-23.18,9.66c-4.33,2.4-9.63,8.31-11.15,13.62-.15.54-.32,1.06-.5,1.54a5.83,5.83,0,0,0-5-.6c-3.87,1.67-4.68,5.64-4.51,9.21-6.33,3.06-23.85,11.46-25.06,11.46-1.48,0-19.47,10.77-43.08-1-10.62-5.3-25.68-7.56-35.62-8.51-.44-1.63-.92-3.28-1.32-4.6,6.84-3.73,6.53-7.83,4-11.7a5.29,5.29,0,0,0-2.68-1.46c.5-1.71.85-3.45,1.2-5.19,0,0,36.19-30.28,36.93-54.66.33-10.87-2.31-18.2-7.38-23.58,5.44-.25,7.66-.14,7.66-.14-.61-4-9.75-10.22-9.75-10.22,3.78-2.26,12.63-5.38,12.63-5.38-8-7.51-23.15-1.94-29.24.76-2.52-11.08-10.11-39.4-24.45-53.11,15-18.14,37.23-62.7,37.23-62.7s35.46-97.49,4.44-103.4-54.23,45.33-65,70.91c-9.52,22.59-7.54,65.65-6.41,81.58-7.5-1.4-12.52-1.46-15.75-5.51-5.91-7.38-5.91-8.86-5.91-8.86v10.34s-6.17-10.34-5.91-14.77-2.95,10.34-1.48,16.25c0,0-2.95-1.48-8.86-7.39,0,0,5.91,8.86-11.82,20.68-2.81,1.88-5.55,3.83-8.15,6-5.74-15.93-42.94-115.57-86.39-144.08-25.46-16.71-44.31,5.91-29.54,63.52,10,38.82,65.6,78,100.86,99.39-5,10.56-7.64,24.95-6.32,46.12.34,5.43.6,9.45.8,12.43-8.43,1.17-18.88,4.32-22.22,12.68,0,0,10.67-1,15.67-.52,0,0-6.46,10.86-5.16,15.29,0,0,1.53-.81,5.32-2.43-.66,6.51.73,14.47,7.07,23.11,12.52,17.08,50.46,26.25,67.22,29.57-4.34,4.78-.54,7.37,4.19,8.76a34.89,34.89,0,0,0-.91,7.12,36.93,36.93,0,0,0-4,1.64l0-.55S300.75,471.1,286,505.07c-9.72,22.37,25.34,50,51.67,50.42-1,5,.85,7,3.59,7.56-.65.32-1.34.69-2.08,1.11-6.24,3.61-5.91,4.43-5.91,4.43a6.46,6.46,0,0,0-4.43,5.91c-2.95,1.48-3.69,2.65-3.69,2.65a6.57,6.57,0,0,0-.21,3.9,17.37,17.37,0,0,1-7.18-3.72c-11.08-8.74-7.95,3.08-2.87,10.47s-9.12,2.21-9.12,2.21-6.65,9.43,13.38,14.69c0,0-9.51,6.73-2.13,8.21s15.51-4.3,15.51-4.3-3.69,11.6,0,10.17c2.34-.91,7.09-4.2,10.91-7.06l-34.54,95a7.15,7.15,0,0,0-.1,1.15l-2.12,2.55s-63.52,4.43-69.43,22.16c-5.09,15.27,10.65,18.48,22.66,19.07a.54.54,0,0,0,.07.13l.06-.12c1.88.09,3.68.12,5.28.12,7.95,0,59.73-19.38,59.41-21.51s3.9-5,2.71-16.13c1.57-.4,3.25-.89,5.09-1.51,0,0,27.94-30.56,47.68-56.3,6.33,22.61-7.05,62.95-7.05,62.95l.14.08c-3.65,5.72-9.78,16.33-9,22.08,1.09,8.12,14.77,7.38,28.55,7.38,5,0,23.06,0,37.58-.29l.35.29c0-.1,0-.19,0-.3,10.2-.21,18.55-.56,19.16-1.17,1.48-1.48,10.34-16.25-7.38-22.16,0,0-34-3-42.84-4.43-2.18-.37-2.42-2.27-1.91-4.45,35.94-50.8,42.28-96.41,43.22-115.74,3.78-1.43,6-2.42,6-2.42a261.33,261.33,0,0,0-10.88-91.58,294.9,294.9,0,0,0,39.68,5.16c21,1.32,48.8-32.08,54.69-39.49,2.33,1.87,5.27,2,8.26-3.8a11,11,0,0,0,1.13-4.53c.63.15,1.32.31,2.14.52,9.91,2.47,32.13-.74,46.41-5.3,17.35-5.53,9.76-13.94,9.76-13.94C605.17,434,594,434,594,434ZM338,519.27l8-5.43h0c1.46-.79,3.18-1.67,5.2-2.66a97.63,97.63,0,0,1,1.21,11.62c0,1.38-.12,3.24-.32,5.46-5.64-4.19-12.19-7.66-14.46-8.41C337.68,519.85,337.69,519.67,338,519.27Zm1.09-1a41,41,0,0,1,6.28-4C343.94,515,341.64,516.51,339.11,518.22Z"/>
        <g>
          <g>
            <path class="cls-4" d="M385.87,716.46s-12.68,17.84-11.6,26,14.77,7.38,28.55,7.38c8.51,0,55.65,0,57.13-1.47s10.34-16.25-7.38-22.16c0,0-34-3-42.84-4.43-5.55-.93,1.47-11.82,1.47-11.82S390.09,709.69,385.87,716.46Z"/>
            <path class="cls-5" d="M421.33,733.07a35,35,0,0,1,7.35,1.07,23.07,23.07,0,0,1,6.84,2.85,11.85,11.85,0,0,1,4.77,5.56,13,13,0,0,1,.46,7.26,12.84,12.84,0,0,0-.69-7.16,11.45,11.45,0,0,0-4.81-5.23,22.29,22.29,0,0,0-6.74-2.55,35,35,0,0,0-7.18-.8Z"/>
            <path class="cls-5" d="M437.83,730.11A23.11,23.11,0,0,1,444.3,732a16,16,0,0,1,5.45,3.86,12.73,12.73,0,0,1,1.9,2.77,13.51,13.51,0,0,1,1.06,3.16,17.6,17.6,0,0,1-.14,6.59,17.53,17.53,0,0,0-.11-6.54,13.13,13.13,0,0,0-1.15-3,12.23,12.23,0,0,0-1.92-2.6,15.47,15.47,0,0,0-5.39-3.51,22.36,22.36,0,0,0-6.25-1.54Z"/>
          </g>
          <path class="cls-6" d="M342.51,578.33s-3.69,8.73-14.77,0-7.95,3.08-2.87,10.47-9.12,2.21-9.12,2.21-6.65,9.43,13.38,14.69c0,0-9.51,6.73-2.13,8.21s15.51-4.3,15.51-4.3-3.69,11.6,0,10.17,13.41-8.81,15.94-11,7-14,7-14-7.39-14.77-16.25-16.25"/>
          <g>
            <path class="cls-7" d="M451.09,591.75s4.43,59.09-44.32,127c0,0-13.82,7.39-23.63,1.48,0,0,14.25-43,6.38-65.06a278.65,278.65,0,0,0-18.11-40l2.86-16Z"/>
            <path class="cls-8" d="M391.09,657.16l7.56-10s5.91,1.48,16.25-3c0,0-19.21,5.91-23.64,13.3"/>
          </g>
          <g>
            <path class="cls-4" d="M324.05,702.54l-7.39,8.87s-63.52,4.43-69.43,22.16,16.25,19.2,28.07,19.2c7.95,0,59.73-19.38,59.41-21.51s4.11-5.08,2.63-16.9C336.83,710.25,332.91,698.11,324.05,702.54Z"/>
            <path class="cls-5" d="M279.93,734a28.06,28.06,0,0,0-5.19,3.06,18.52,18.52,0,0,0-4.27,4.25,10.39,10.39,0,0,0-2,5.6,11.2,11.2,0,0,0,1.51,5.84,11.32,11.32,0,0,1-1.76-5.85,10.1,10.1,0,0,1,.49-3.07,12.12,12.12,0,0,1,1.37-2.8,19.27,19.27,0,0,1,4.22-4.56,28.51,28.51,0,0,1,5.25-3.38Z"/>
            <path class="cls-5" d="M266.64,731.07a28.66,28.66,0,0,0-5.2,3,19.09,19.09,0,0,0-4.26,4.25,10.35,10.35,0,0,0-2,5.6,11.27,11.27,0,0,0,1.51,5.84A11.45,11.45,0,0,1,254.9,744a10.33,10.33,0,0,1,.5-3.07,12.79,12.79,0,0,1,1.36-2.81,19.68,19.68,0,0,1,4.22-4.56,30,30,0,0,1,5.25-3.38Z"/>
          </g>
          <g>
            <path class="cls-7" d="M360.24,594,318.88,707.71s-3,14.78,23.63,5.91c0,0,47.27-51.7,62.28-77.25"/>
            <g>
              <path class="cls-9" d="M398,646.75s14.66.83,19.85-5.51"/>
              <path class="cls-10" d="M398,646.26a48.18,48.18,0,0,0,5.24,0,38.42,38.42,0,0,0,5.23-.6,22.75,22.75,0,0,0,5-1.47,12.2,12.2,0,0,0,4.31-3,12.4,12.4,0,0,1-4.21,3.2,22.92,22.92,0,0,1-5,1.73,39.08,39.08,0,0,1-5.27.85,45.49,45.49,0,0,1-5.36.23Z"/>
            </g>
          </g>
          <g>
            <g>
              <g>
                <path class="cls-4" d="M551.58,435.47s20.87,3.48,34.31-3.24c13.94-7,20.91-5.57,18.12,2.79,0,0,11.16,0,4.18,11.16,0,0,7.59,8.41-9.76,13.94-14.28,4.56-36.5,7.77-46.41,5.3-3.18-.8-4.41-.9-7.43-2.48,0,0-6.11,4.15-7.51,5.55S516.11,449.32,551.58,435.47Z"/>
                <g>
                  <path class="cls-11" d="M528.5,449.32s6.19-1.24,8.66-9.91c1.52-5.31,6.82-11.22,11.15-13.62,12.56-7,17.85-15.31,23.18-9.66s-4.43,18.19-14.19,18.19c0,0-1.8,3.44-5.28,10.05"/>
                  <path class="cls-12" d="M528.49,449.27a10.83,10.83,0,0,0,4.41-2.84,14.19,14.19,0,0,0,2.9-4.37l.49-1.22.4-1.26.42-1.31c.17-.42.32-.86.52-1.27a22.67,22.67,0,0,1,2.84-4.67,26.46,26.46,0,0,1,3.74-4,22,22,0,0,1,4.49-3.07,70.74,70.74,0,0,0,9-5.85c1.46-1.05,2.86-2.17,4.36-3.18a12.66,12.66,0,0,1,5-2.33,4.76,4.76,0,0,1,2.85.43,7,7,0,0,1,2.23,1.79,6.59,6.59,0,0,1,1.24,5.46,12.86,12.86,0,0,1-2.2,5.1,19.43,19.43,0,0,1-3.73,4,15.91,15.91,0,0,1-10.12,3.93l.34-.2-2.76,5-2.81,4.93-.09-.05,2.47-5.11,2.52-5.08.09-.2h.24a15.74,15.74,0,0,0,9.47-4,18.65,18.65,0,0,0,3.51-3.86,13,13,0,0,0,2.09-4.69,5.68,5.68,0,0,0-1-4.71,4.73,4.73,0,0,0-4.27-2,12.29,12.29,0,0,0-4.78,2c-1.5.95-3,2-4.44,3-2.92,2.08-5.88,4.13-9,6a29,29,0,0,0-10.54,11.64c-.19.39-.34.8-.52,1.2l-.42,1.26-.44,1.3-.55,1.25a14.49,14.49,0,0,1-3.22,4.42,10.45,10.45,0,0,1-4.73,2.59Z"/>
                </g>
                <polygon class="cls-5" points="577.38 442.91 605.41 435.02 577.66 443.87 577.38 442.91"/>
                <polygon class="cls-5" points="582.96 452.67 608.2 446.18 583.23 453.63 582.96 452.67"/>
              </g>
              <path class="cls-5" d="M550.51,454.19a18.49,18.49,0,0,1,6.93-1.61,43.3,43.3,0,0,1,7,.11c1.16.08,2.32.28,3.48.41s2.3.37,3.45.58,2.28.48,3.42.74l3.39.85-3.41-.76c-1.14-.23-2.29-.43-3.44-.64s-2.3-.34-3.45-.5-2.31-.26-3.47-.3a42.43,42.43,0,0,0-6.95.07,18.15,18.15,0,0,0-6.56,1.69Z"/>
            </g>
            <g>
              <path class="cls-7" d="M528.46,456.39s-4.64-12.68,3.16-16,22.5,18.71,17.13,29.08c-6.7,12.92-13.11-3.53-13.11-3.53"/>
              <path class="cls-7" d="M413.05,450.8s28.77.61,45.92,9.18c23.61,11.81,41.6,1,43.08,1s27.33-12.56,27.33-12.56,13.55,1,12.23,23.33c0,0-32.17,42.41-55.81,40.93s-45.79-5.91-47.27-7.38"/>
            </g>
          </g>
          <g>
            <g>
              <path class="cls-7" d="M433.36,475.05S461.43,526.76,457,599.14c0,0-68,31-104.89-4.43,0,0,10.35-57.61,10.35-70.91s-12.33-56.24,7.25-65.85c19.33-9.49,55.1-2.58,55.1-2.58"/>
              <path class="cls-8" d="M363.19,529s-1.47-13.29,8.87-20.68c1-1-10.34,4.43-10.34,4.43L363.19,529"/>
            </g>
            <ellipse class="cls-13" cx="421.54" cy="512.72" rx="19.2" ry="22.9" transform="translate(-102.95 105.91) rotate(-12.78)"/>
          </g>
          <g>
            <path class="cls-4" d="M374.27,546s10.34,1.48,7.39,17.73-28.07,23.63-28.07,23.63-22.16,2.35-18.46-9.17c0,0,.74-1.17,3.69-2.65a6.46,6.46,0,0,1,4.43-5.91s-.33-.82,5.91-4.43,9.29-3.17,9.29-3.17"/>
            <path class="cls-5" d="M358.45,560.3a34.32,34.32,0,0,0-2.78,4.48,30.66,30.66,0,0,0-2,4.81,27.57,27.57,0,0,0-1.19,5.08,39.76,39.76,0,0,0-.34,5.27,18.81,18.81,0,0,1-.43-5.35,20.35,20.35,0,0,1,.32-2.69,25.86,25.86,0,0,1,.69-2.62,21.78,21.78,0,0,1,2.3-4.88A18,18,0,0,1,358.45,560.3Z"/>
            <path class="cls-14" d="M352.11,575.5H338.82"/>
            <path class="cls-14" d="M352.85,569.59H342.51"/>
          </g>
          <g>
            <g>
              <path class="cls-7" d="M368.36,538.57c0-1.47,10.34,0,8.87,8.87s-14.77,14.77-14.77,14.77-17.73,7.38-14.78-5.91c2.34-10.5,17.73-14.77,17.73-14.77"/>
              <path class="cls-7" d="M371.32,507.55c-23.64,10.34-23.64,13.3-23.64,13.3,4.43,1.47,25.27,13.32,23.64,20.68-3,13.29-19.21,14.77-19.21,14.77-26.59,3-66.42-26.57-56.13-50.23,14.77-34,73.86-48.74,73.86-48.74"/>
            </g>
            <g>
              <path class="cls-15" d="M335.13,529s16.74-12,20.92-14.13"/>
              <path class="cls-10" d="M335.13,529c1.59-1.39,3.25-2.69,4.93-4s3.39-2.5,5.12-3.7,3.49-2.37,5.29-3.46a45.36,45.36,0,0,1,5.58-3c-.87.6-1.74,1.18-2.58,1.81l-2.57,1.84c-1.7,1.23-3.43,2.43-5.16,3.63s-3.47,2.38-5.24,3.51S337,527.91,335.13,529Z"/>
            </g>
          </g>
          <g>
            <path class="cls-7" d="M375.75,445.51s-2.95,8.86-1.48,14.77,10.25,14.56,34,10.34c20.18-3.58,16.25-12,16.25-13.29,0-3-3.32-13.17-3.32-13.17"/>
            <path class="cls-7" d="M384.61,450.68s-23.7-1-13.29-11.08,51.7-8.86,54.66-4.43,2.93,9.17-7.39,13.29"/>
          </g>
          <g>
            <g>
              <path class="cls-4" d="M381.66,274.72s-5.91-59.66,5.91-87.72c10.77-25.58,34-76.82,65-70.91s-4.44,103.4-4.44,103.4-25.11,50.23-39.9,65.74"/>
              <path class="cls-16" d="M396.43,275.63c-11.82-59.09,11.08-108.47,32.5-132.95C449.61,119,454,132.34,454,132.34c5.95,11,3.43,65.88-40.62,126.74,0,0-14.24,12.33-19.94-4.13"/>
            </g>
            <g>
              <path class="cls-4" d="M343.25,258.64s5.91,8.86-11.82,20.68-32.32,26.46-29.54,70.91c1.48,23.63,1.48,20.68,1.48,20.68s-16.25,17.73,0,39.88,75.33,31,75.33,31,15.75,10.51,29.55,5.9c13.29-4.43,14.77-11.81,16.25-19.2,0,0,36.19-30.28,36.93-54.66.61-20.05-8.86-28.06-25.11-34,0,0-8.87-48.75-31-62.05s-34-7.38-39.88-14.77-5.91-8.86-5.91-8.86v10.34s-6.17-10.34-5.91-14.77-2.95,10.34-1.48,16.25C352.11,266,349.16,264.55,343.25,258.64Z"/>
              <g>
                <g>
                  <path class="cls-11" d="M432.72,336.55s21.72-11.54,31.87-2c0,0-8.85,3.12-12.63,5.38,0,0,9.14,6.23,9.75,10.22,0,0-2.76-.14-9.71.24s-14.28-6.17-14.28-6.17"/>
                  <path class="cls-12" d="M432.72,336.55a57.91,57.91,0,0,1,7.71-3.45,45.91,45.91,0,0,1,8.17-2.23,27,27,0,0,1,8.52-.25,14.55,14.55,0,0,1,7.78,3.59l.55.5-.71.26c-2.14.78-4.28,1.6-6.39,2.47-1.05.44-2.09.89-3.12,1.37a31.64,31.64,0,0,0-3,1.53l0-.82a53.8,53.8,0,0,1,5.65,4.55,25.27,25.27,0,0,1,2.5,2.66,7.75,7.75,0,0,1,1.75,3.35l.09.51-.54,0c-2.09-.08-4.24-.05-6.36,0l-3.2.11c-.54,0-1.09,0-1.63,0a14.74,14.74,0,0,1-1.62-.25,20.48,20.48,0,0,1-6-2.42,30.49,30.49,0,0,1-5.18-3.77,32.87,32.87,0,0,0,5.33,3.5,21.23,21.23,0,0,0,5.93,2.16c.51.12,1,.13,1.55.2s1,0,1.56,0l3.2-.19c2.14-.11,4.26-.21,6.44-.16l-.44.49a7,7,0,0,0-1.6-2.93,25.39,25.39,0,0,0-2.43-2.55,53.65,53.65,0,0,0-5.57-4.41l-.63-.43.65-.39a48.32,48.32,0,0,1,6.27-3c2.14-.86,4.28-1.67,6.45-2.43l-.16.76a13.76,13.76,0,0,0-7.29-3.41,26.74,26.74,0,0,0-8.28,0,52.27,52.27,0,0,0-8.15,2A65.62,65.62,0,0,0,432.72,336.55Z"/>
                </g>
                <g>
                  <path class="cls-11" d="M314.45,362.05s-28.07-1.48-34,13.29c0,0,10.67-1,15.67-.52,0,0-6.46,10.86-5.16,15.29,0,0,2.78-1.47,10.17-4.43S313,372.39,313,372.39"/>
                  <path class="cls-12" d="M314.45,362.05a73.34,73.34,0,0,0-9.61.55,58.82,58.82,0,0,0-9.4,1.88,30.48,30.48,0,0,0-8.61,3.95,15.7,15.7,0,0,0-5.93,7.08l-.47-.63c2.61-.25,5.22-.45,7.85-.58a55,55,0,0,1,7.91,0l.76.07-.39.66a60.89,60.89,0,0,0-3.64,7.27,31.26,31.26,0,0,0-1.3,3.82,8.25,8.25,0,0,0-.23,3.83l-.61-.25c2.22-1.11,4.48-2,6.74-2.95l3.41-1.35c.54-.25,1.09-.47,1.61-.76a15,15,0,0,0,1.52-1,24,24,0,0,0,5.1-5.11,39,39,0,0,0,3.81-6.21,34.53,34.53,0,0,1-3.57,6.39,23.27,23.27,0,0,1-5,5.37,16,16,0,0,1-1.55,1c-.54.31-1.12.57-1.67.83l-3.37,1.42c-2.23,1-4.47,2-6.61,3.06l-.48.24-.12-.5a8.8,8.8,0,0,1,.19-4.28,30.1,30.1,0,0,1,1.31-4,60.74,60.74,0,0,1,3.65-7.42l.36.73a38.1,38.1,0,0,0-3.86-.12c-1.3,0-2.61,0-3.91.09-2.6.11-5.21.3-7.81.53l-.75.06.28-.69a16.65,16.65,0,0,1,6.31-7.44,31,31,0,0,1,8.92-3.87,54.15,54.15,0,0,1,9.53-1.65A66.16,66.16,0,0,1,314.45,362.05Z"/>
                </g>
              </g>
            </g>
            <g>
              <g>
                <path class="cls-17" d="M344.73,355.4s-7.39-29.55,4.43-38.41,31-2.95,32.5,32.5"/>
                <circle class="cls-18" cx="361.47" cy="339.15" r="9.6"/>
                <circle class="cls-19" cx="365.74" cy="331.6" r="2.22"/>
              </g>
              <g>
                <path class="cls-11" d="M337.34,358.35s16.25-7.38,47.27-8.86"/>
                <path class="cls-12" d="M337.34,358.35a71.49,71.49,0,0,1,11.38-4.1c3.89-1.1,7.84-1.91,11.81-2.66,2-.32,4-.64,6-.88s4-.5,6-.67,4-.28,6-.42,4-.12,6-.13c-4,.43-8,.8-12,1.31s-8,1.05-11.92,1.77-7.88,1.49-11.79,2.42c-2,.47-3.9,1-5.82,1.53S339.24,357.66,337.34,358.35Z"/>
              </g>
            </g>
            <g>
              <g>
                <path class="cls-17" d="M397.91,346.54s-13.3-26.17-7.39-36.34,25.11-10.18,36.93,27.61"/>
                <circle class="cls-18" cx="406.44" cy="329.14" r="9.6"/>
                <circle class="cls-19" cx="412.02" cy="322.9" r="2.22"/>
              </g>
              <g>
                <path class="cls-11" d="M396.43,348c8.86-4.43,31-13.29,39.89-7.38"/>
                <path class="cls-12" d="M396.43,348a87.75,87.75,0,0,1,19.38-7.93,48.55,48.55,0,0,1,10.38-1.74,24.48,24.48,0,0,1,5.27.31,11.94,11.94,0,0,1,4.86,2,12.72,12.72,0,0,0-4.93-1.5,24.63,24.63,0,0,0-5.15,0A60.81,60.81,0,0,0,416.07,341c-3.35.88-6.65,2-9.92,3.15-1.64.57-3.27,1.19-4.88,1.84S398,347.34,396.43,348Z"/>
              </g>
            </g>
            <path class="cls-20" d="M402.34,371.65s-10.34-10.34-20.68-9.17c0,0,7.38-10,28.07-8.56C409.73,353.92,411.2,362.78,402.34,371.65Z"/>
            <g>
              <g>
                <path class="cls-21" d="M428.19,362.05s4.06,16.37-8.86,20.68c-17.73,5.91-17-9.61-17-9.61s2.22,9.17-4.43,14.56-33.24,14.25-48-10.86c0,0,20.68,44.31,41.36,47.27s29.55-5.91,35.45-31C426.71,393.07,431.15,372.39,428.19,362.05Z"/>
                <path class="cls-22" d="M376.49,415.23s20.68-17.73,39.88,1.47c0,0-10.34,10.34-25.11,7.39C386.92,423.22,378,418.18,376.49,415.23Z"/>
                <path class="cls-19" d="M419.33,382.73c-11.82,5.91-16.25-3-16.25-3s0,4.43-5.17,7.91a35.9,35.9,0,0,1-12.56,5.39c2.95,7.52,8.87,14.77,11.82,16.25C416.37,412.27,422.28,391.59,419.33,382.73Z"/>
                <path class="cls-23" d="M406,400.45l-.37-5.25c-.15-1.74-.28-3.48-.49-5.21a51.38,51.38,0,0,0-2.09-10.22,19.54,19.54,0,0,1,2.07,4.89,34.37,34.37,0,0,1,1,5.22A40.65,40.65,0,0,1,406,400.45Z"/>
              </g>
              <g>
                <path class="cls-24" d="M342.45,383.16a13.78,13.78,0,0,1,2.6-3.75,18.06,18.06,0,0,1,3.55-2.91,17.58,17.58,0,0,1,4.19-1.9,16.41,16.41,0,0,1,4.49-.74,41.35,41.35,0,0,0-4.23,1.47,25.92,25.92,0,0,0-3.92,2,26.54,26.54,0,0,0-3.54,2.62A27.85,27.85,0,0,0,342.45,383.16Z"/>
                <path class="cls-24" d="M421.18,361.46a14.09,14.09,0,0,1,4.52-.64,17.52,17.52,0,0,1,4.55.63,17,17,0,0,1,4.24,1.77,16.41,16.41,0,0,1,3.6,2.8,42,42,0,0,0-4-2.11,27.06,27.06,0,0,0-8.48-2.31A27.66,27.66,0,0,0,421.18,361.46Z"/>
              </g>
            </g>
            <g>
              <path class="cls-24" d="M331.73,314.08s7-15.76,24.52-21v-7.83S331.73,298.32,331.73,314.08Z"/>
              <path class="cls-24" d="M412.76,294.45s-13.22-10.17-30.53-6.57l-3.6-6.66S405.5,281.05,412.76,294.45Z"/>
            </g>
            <g>
              <path class="cls-4" d="M324.05,287.45S284.16,172.22,236.89,141.2c-25.46-16.71-44.31,5.91-29.54,63.52C217.47,244.21,274.88,284,310,305.2"/>
              <path class="cls-16" d="M316.66,287.45s-41-102.48-75.8-125.31c-18.74-12.3-32.62,4.35-21.75,46.75,6.72,26.21,47.62,58.78,74.55,76.34,2.93,1.91,14.14,9.6,20-3.69"/>
            </g>
          </g>
        </g>
      </g>
    </g>
  </g>
</svg>
