<svg id="Layer_1" data-name="Layer 1" xmlns="http://www.w3.org/2000/svg" width="310" height="380" viewBox="0 0 310 380">
  <defs>
    <style>
      .cls-1 {
        opacity: 0.3;
      }

      .cls-2, .cls-3 {
        fill: #e4e7ea;
      }

      .cls-10, .cls-2 {
        stroke: #5e646b;
      }

      .cls-10, .cls-12, .cls-13, .cls-14, .cls-17, .cls-2, .cls-22, .cls-6 {
        stroke-miterlimit: 10;
      }

      .cls-4 {
        fill: #5e646b;
      }

      .cls-5 {
        fill: #8e8e8e;
      }

      .cls-6, .cls-9 {
        fill: #ed8843;
      }

      .cls-12, .cls-6 {
        stroke: #663b14;
      }

      .cls-7 {
        fill: #eaa968;
      }

      .cls-8 {
        fill: #663b14;
      }

      .cls-10 {
        fill: #bac4cc;
      }

      .cls-11 {
        fill: #aab6c1;
      }

      .cls-12, .cls-23 {
        fill: #f48f42;
      }

      .cls-13 {
        fill: #efea37;
      }

      .cls-13, .cls-22 {
        stroke: #8e8e8e;
      }

      .cls-14, .cls-16 {
        fill: #fff;
      }

      .cls-14 {
        stroke: #5b5a5b;
      }

      .cls-15 {
        fill: #56290b;
      }

      .cls-17 {
        fill: #333;
        stroke: #3d3d3d;
      }

      .cls-18 {
        fill: #60170e;
        stroke: #190906;
        stroke-linejoin: round;
      }

      .cls-19 {
        fill: #b74277;
      }

      .cls-20 {
        fill: #727272;
      }

      .cls-21 {
        fill: #543a2d;
      }

      .cls-22 {
        fill: #d7afdd;
      }
    </style>
  </defs>
  <g>
    <ellipse class="cls-1" cx="135.72" cy="365.88" rx="130.82" ry="10.49"/>
    <g>
      <g>
        <g>
          <path class="cls-2" d="M235.18,231s10.75,2.4,19.24,1.25c3,1.88,4.87,4.59,9,0a10.92,10.92,0,0,0-1.37-16.39s.11-5-2.76-5.64c-9,0-12.68-2.61-13.61-2s-11,8.61-11.82,12.44"/>
          <g>
            <path class="cls-2" d="M254,225.39s-3.57,4.94.65,5.85,12.07-3.1,11.68-8.83"/>
            <path class="cls-2" d="M248.54,221.16s-2,2.66,2.16,5.18c2.66,1.6,7.66,1.71,9,0s3.45-8.78,2.11-12.85"/>
            <g>
              <path class="cls-3" d="M242.82,216.69s4.84,8.44,8.31,7.74c9.47-1.91-2.11-17.55-5.41-16.28"/>
              <path class="cls-4" d="M242.86,216.67c1.93,2.8,3.95,6.09,7.18,7.38a2.91,2.91,0,0,0,1.88-.19c3-.94,2.73-4.32,1.69-6.68a21.12,21.12,0,0,0-6-8.35,2.48,2.48,0,0,0-1.86-.63l0-.1a2.58,2.58,0,0,1,2.13.36,15.54,15.54,0,0,1,4.66,4.51c1.91,2.84,4.14,7.23,1.61,10.35a4.57,4.57,0,0,1-4.23,1.33c-2.11-.77-3.5-2.64-4.8-4.33a37.8,37.8,0,0,1-2.3-3.6l.09-.05Z"/>
            </g>
            <path class="cls-5" d="M242.88,225c1.69-.22,2.89-1.46,4-2.61-.54,1.59-2.26,3.13-4,2.61Z"/>
            <path class="cls-5" d="M257.65,217.88c-1.16-1.25-2.86-1.52-4.45-1.78,1.61-.48,3.86.05,4.45,1.78Z"/>
          </g>
        </g>
        <g>
          <path class="cls-6" d="M163.84,224.27s11.06,14.77,29,21.85c3.84,1.51,41.16-5.18,45.73-16.47,2.29-5.64-4.87-10.32-4.87-10.32s-19.95,6.19-27.15,2.15c-9.12-5.11-11.72-11.85-11.72-11.85"/>
          <g>
            <path class="cls-7" d="M206.39,221.62a27.5,27.5,0,0,1,4.78,4.28"/>
            <path class="cls-8" d="M206.39,221.62a7.52,7.52,0,0,1,4.78,4.28,16.88,16.88,0,0,1-4.78-4.28Z"/>
          </g>
        </g>
      </g>
      <g>
        <g>
          <path class="cls-2" d="M69,273.11s-11-9-15.51-7.51c-4.56,2.07-18,14-33,16-11.1,1.48-6.68,18.68,0,22,6,3,11,4,18-2s18-21,18-21l8,3S78,277.11,69,273.11Z"/>
          <g>
            <path class="cls-3" d="M54.45,272.88s-2,5.73,3.56,8.24"/>
            <path class="cls-4" d="M54.49,272.9a7.72,7.72,0,0,0,.47,4.68A14.3,14.3,0,0,0,58,281.07l0,.09a4.52,4.52,0,0,1-3.77-3.28,7.36,7.36,0,0,1,.18-5l.09,0Z"/>
          </g>
          <path class="cls-5" d="M32.82,288c-4.76,3.73-12.09,9-18.36,6.64,6.31,2.05,13.17-3.49,17.68-7.38l.68.74Z"/>
          <path class="cls-5" d="M37.82,296c-4.75,3.73-12.09,9-18.35,6.64,6.3,2.05,13.17-3.49,17.68-7.38l.67.74Z"/>
        </g>
        <g>
          <g>
            <path class="cls-9" d="M127.5,246.5s-21.43,9.59-35.45,34.62c0,0-2-6-27-12,0,0-9,8-6,13s23,24,35,27c38.45,4.35,50-31.83,75.45-32.65"/>
            <path class="cls-8" d="M127.5,246.5c-14.8,7.74-27,20.3-35.09,34.82L92,282l-.37-.76c-1.19-2-3.6-3.3-5.57-4.44-6.63-3.47-14-5.44-21.18-7.25l.42-.11c-2.84,2.82-7.84,7.93-6,12.2,2.69,4.09,6.53,7.48,10.08,10.84,7.33,6.41,15.46,13.37,24.69,16.24,25.21,2.93,37.61-11,55.91-24.74,5.72-4.07,12.35-7.36,19.49-7.49-7.13.23-13.67,3.59-19.32,7.73C132,298.31,119.4,312.39,94,309.57c-5-1.31-9.3-4.08-13.47-6.94A119.67,119.67,0,0,1,60.76,285.2a18.84,18.84,0,0,1-2.32-3.1c-2.17-4.92,3.2-10.36,6.45-13.52,8,2,16.11,4.19,23.26,8.42,1.64,1.12,3.33,2.13,4.29,4l-.75-.08c8.33-14.53,20.73-27,35.81-34.41Z"/>
          </g>
          <g>
            <path class="cls-7" d="M88,290.77s.81-6.25,4.83-10.44"/>
            <path class="cls-8" d="M88,290.77a12.9,12.9,0,0,1,4.83-10.44A50.52,50.52,0,0,0,88,290.77Z"/>
          </g>
        </g>
      </g>
      <path class="cls-10" d="M122.24,242.93s-5.93.43-4.22-8.25-4-3.56-6.66,1.39-3.84-4.46-3.84-4.46-7.16-1-4.38,11.65c0,0-6.47-3.39-5.19,1.16s6.83,7.43,6.83,7.43-7.53,1.25-5.68,2.9,8.74,5,10.71,5.75,9.82-.12,9.82-.12,6.13-8.34,4.43-13.71"/>
      <g>
        <g>
          <path class="cls-2" d="M213.19,315.16c0,1,4,14,7,15s-9,8.22-9,8.22-7-5.21-8-14.22S213.19,315.16,213.19,315.16Z"/>
          <g>
            <path class="cls-3" d="M204.18,332.18s8,11.66,11,17.34,11.68,1.32,20-6.33c12-11,43.34-48.66,18-44.05-22,4-37,30-37,30"/>
            <path class="cls-4" d="M204.18,332.18c3.76,5.24,7.5,10.49,10.87,16,.68,1.27,1.46,2.76,2.95,3.17,11.28,2.4,32.19-24.81,38.14-33.7,2.82-4.49,11.77-18.11,1.25-18.42a32.47,32.47,0,0,0-13.67,3.62,58.24,58.24,0,0,0-15.29,11.43,85.24,85.24,0,0,0-12.23,14.86,85.12,85.12,0,0,1,11.53-15.55A58.9,58.9,0,0,1,243.27,302c5.12-2.31,11-4.58,16.67-3.35,8.05,2.82-.21,15.19-3,19.6-6.16,9.16-27.42,37-39.28,34.1-1.72-.51-2.78-2.08-3.51-3.63-3.05-5.64-6.52-11.1-10-16.52Z"/>
          </g>
          <path class="cls-11" d="M224.71,332.68s17-27.11,34-31c13-3-11,30-23,41.05-8.35,7.65-18,12.43-18,6C217.7,343.69,224.71,332.68,224.71,332.68Z"/>
          <path class="cls-5" d="M246.35,301c4.19-2.31,13.66-5.24,11,3.18a16.89,16.89,0,0,1-2.58,4.53l-.08-.05c.58-1.62,1.25-3.19,1.7-4.79,1.56-4.7-1.22-5.2-5.15-4.33a29.21,29.21,0,0,0-4.86,1.55l0-.09Z"/>
          <path class="cls-5" d="M235.33,307c4.2-2.32,13.67-5.24,11,3.17a16.92,16.92,0,0,1-2.57,4.54l-.09-.05c.59-1.63,1.26-3.19,1.71-4.79,1.55-4.7-1.23-5.2-5.15-4.34a28.66,28.66,0,0,0-4.86,1.56l0-.09Z"/>
        </g>
        <path class="cls-12" d="M129.74,252.9c-2-8,13.38,17.68,13.38,17.68s34.56-3.29,55,13.54c14.4,11.82,18,40.05,18,40.05s-10,14-14,7c-4.69-8.21-17-17-30-23-8.69-4-27.66-5.79-39.29-6.53a30.24,30.24,0,0,1-24.7-15.26c-5.27-9.55-6.15-23.45,11.43-40.79h0l11.16,1.33"/>
      </g>
      <g>
        <path class="cls-12" d="M178.37,195.23s-37.26,12.8-58.79,50.34c-5.5,9.61,8.73,31.59,37.55,31.54,0,0,4.91,1.7,14-1.59,3.45-1.26,6.54-18.58,17.57-37.95,9.36-16.43,3.42-31.12,3.42-31.12"/>
        <ellipse class="cls-13" cx="178.33" cy="241.28" rx="15.52" ry="6.26" transform="translate(-114.26 307.68) rotate(-66.32)"/>
        <g>
          <path class="cls-12" d="M196,219.43s4.11-1.76,5.34-4.36-1.92-6.84-11.61-17.57c-8.58-9.49-11.18-3.91-11.58-3.49a5.44,5.44,0,0,0-1,3"/>
          <path class="cls-12" d="M185.17,198.33s-9-8.32,0-11.32c8.09-2.7,24.54,19.53,24,22.6s-3.89,5.13-10,2.43"/>
        </g>
      </g>
      <g>
        <path class="cls-2" d="M245.42,125.92s37.85-28.59,52-51.23c8.88-14.21,15.43-54.09-1.84-62.18-15.49-7.26-33.47,45.54-35.28,51.28s-15.93,31-14,43.44"/>
        <g>
          <path class="cls-2" d="M240.3,95.61s-.12,6.43-13,6.19-25.15,2-39.08,25c-7.41,12.24-6.39,10.77-6.39,10.77s-14.16,3.2-13.73,19.79,26.69,41.34,26.69,41.34,4.19,10.63,12.63,13.1c8.12,2.38,11.4-.77,14.67-3.93,0,0,28.39-2.56,37.15-14.4,7.2-9.74,5.26-17-.76-25.51,0,0,12.39-27.23,6-41.46s-14.31-15.36-14.7-21.06.12-6.44.12-6.44l-3.56,5.13s.5-7.25,2.15-9.36-5,4.11-6.33,7.55C242.15,102.32,241.2,100.57,240.3,95.61Z"/>
          <g>
            <g>
              <path class="cls-3" d="M257.86,165.07s14.75,1.75,16.5,10a58.2,58.2,0,0,0-8.11-1.68s2.39,6.23,1.31,8.43c0,0-1.31-1-4.89-3.23s-5-8-5-8"/>
              <path class="cls-4" d="M257.86,165.07c6.61.81,15.64,3,17.12,10.61a63.27,63.27,0,0,0-8.77-1.83l.49-.66a25.65,25.65,0,0,1,1.55,6.44,4.94,4.94,0,0,1-.52,2.83c-1.59-1.23-3.46-2.48-5.17-3.59a10.47,10.47,0,0,1-3.64-4.6,18.26,18.26,0,0,1-1.22-3.68c1,3,2.47,6,5.18,7.75,1.63,1,3.39,2,4.94,3.12l-.64.15a4.13,4.13,0,0,0,.2-1.92,26.53,26.53,0,0,0-1.86-6.86l.76,0a49.58,49.58,0,0,1,8.2,1.72l-.56.54c-1.75-6.57-10.15-8.77-16.06-10.07Z"/>
            </g>
            <g>
              <path class="cls-3" d="M190.4,137S177,126.59,169,131.89a66.79,66.79,0,0,1,7.95,5.14s-6.94,3.16-7.82,5.81c0,0,1.88.22,6.57,1.3s10.44-2.53,10.44-2.53"/>
              <path class="cls-4" d="M190.4,137c-5.8-3.71-14.52-8.69-21.18-4.72l0-.78a55.9,55.9,0,0,1,8.05,5.17l.58.49a39,39,0,0,0-5,2.65c-1.23.84-2.75,1.81-3.33,3.17l-.35-.55c1.49.22,2.92.55,4.36.88a18.51,18.51,0,0,0,4.27.76,18.83,18.83,0,0,0,8.33-2.45,20.93,20.93,0,0,1-4,2,11.87,11.87,0,0,1-6.63.82c-2.27-.47-4.75-1-7-1.24a5.52,5.52,0,0,1,1.8-2.62,28.86,28.86,0,0,1,6.41-4l-.11.8a70.76,70.76,0,0,0-8.53-5.48c7.17-4.91,16.38.55,22.32,5.08Z"/>
            </g>
          </g>
        </g>
        <g>
          <g>
            <path class="cls-14" d="M207.71,144.12s6.51-17.2,15.43-17.53,16.41,9.22,4.93,27.32"/>
            <circle class="cls-15" cx="221.93" cy="142.36" r="5.8"/>
            <circle class="cls-16" cx="227.27" cy="140.62" r="1.34"/>
          </g>
          <g>
            <path class="cls-3" d="M203,143s10.61,1.93,26.51,11.88"/>
            <path class="cls-4" d="M203,143c9.65,1.58,18.62,6.25,26.51,11.88-8.5-4.4-17.36-9-26.51-11.88Z"/>
          </g>
        </g>
        <g>
          <g>
            <path class="cls-14" d="M237.15,158s2.41-17.56,8.85-20.57,16,3.59,8.81,26.41"/>
            <circle class="cls-15" cx="246.82" cy="153.56" r="5.8"/>
            <circle class="cls-16" cx="252.16" cy="151.01" r="1.34"/>
          </g>
          <g>
            <path class="cls-3" d="M235.91,158.26c5.92.85,20,4.09,22.33,10.07"/>
            <path class="cls-4" d="M235.91,158.26c6.31.48,12.74,2,18.16,5.33a13.55,13.55,0,0,1,2.5,2,7.49,7.49,0,0,1,1.67,2.71,8.15,8.15,0,0,0-2-2.35,12.94,12.94,0,0,0-2.56-1.73c-5.53-2.94-11.71-4.45-17.76-6Z"/>
          </g>
        </g>
        <path class="cls-17" d="M230.7,172s-1.57-8.69-7.1-11.67c0,0,7.12-2.43,16.87,5.42C240.47,165.77,238.15,170.68,230.7,172Z"/>
        <g>
          <g>
            <path class="cls-18" d="M246.83,176.16s-3.62,9.52-11.51,7.21c-10.83-3.17-5.13-10.62-5.13-10.62s-2.05,5.32-7.21,5.7-21.39-4.37-20.08-21.92c0,0-5,29.11,4.25,37.7s16.69,7.24,28.27-3.19C235.42,191,244.74,182.31,246.83,176.16Z"/>
            <path class="cls-19" d="M202.87,184.74s16.37-1.67,19.28,14.47c0,0-8.69,1.57-15-5C205.29,192.3,202.59,186.72,202.87,184.74Z"/>
            <path class="cls-16" d="M235.32,183.37c-7.9-1.14-7-7.06-7-7.06s-1.52,2.2-5.29,2.14a21.64,21.64,0,0,1-8.08-1.65c-1.13,4.75-.69,10.38.27,12.13C223.68,197,233.73,188.78,235.32,183.37Z"/>
            <path class="cls-20" d="M222.62,187.59c1.92-3.83,4.15-7.26,5.65-11.28-.11,4.31-2.64,8.33-5.65,11.28Z"/>
          </g>
          <g>
            <path class="cls-21" d="M197,157.11a9.35,9.35,0,0,1,10.57.5,22.78,22.78,0,0,0-10.57-.5Z"/>
            <path class="cls-21" d="M243.56,173.46a9.35,9.35,0,0,1,6.82,8.08,22.77,22.77,0,0,0-6.82-8.08Z"/>
          </g>
        </g>
        <g>
          <path class="cls-21" d="M215.49,119.15a25.22,25.22,0,0,1,19.41-2l2.69-3.88S220.92,111.32,215.49,119.15Z"/>
          <path class="cls-21" d="M262.45,137.31a24.33,24.33,0,0,0-12.88-13.77l.51-4.55S263.47,128.16,262.45,137.31Z"/>
        </g>
        <g>
          <path class="cls-2" d="M223.87,111.18s35.3-64.62,30-98.35C251-5.34,233.19-4.58,213.44,25.42,199.91,46,205,84.06,209.8,108.35"/>
          <path class="cls-22" d="M220.87,107.88S250,47.93,246.08,23.11C244,9.74,230.89,10.29,216.36,32.38c-9,13.65-6.93,45.16-3.84,64.32.33,2.09,1.45,10.22,9.79,7.46"/>
        </g>
      </g>
      <g>
        <g>
          <path class="cls-2" d="M107.72,220.1,104,222.44c1.43,1.56,7.09,7.49,6,10.08-1.45,3.43-7.19,11.93-12.94,11.93-4.78,0-6.2-5-6.2-5s-5.28,6-7.19,4.59-3.79-7.32-3.31-8.7,3.31-2.7,3.31-2.7-5.83-9.58-4.7-11.5,11.93-11.27,20.28-14.23"/>
          <g>
            <line class="cls-3" x1="96.96" y1="233.22" x2="87.43" y2="242.18"/>
            <path class="cls-4" d="M97,233.22a41.77,41.77,0,0,1-9.52,9,41.56,41.56,0,0,1,9.52-9Z"/>
          </g>
          <g>
            <line class="cls-3" x1="87.37" y1="230.4" x2="80.4" y2="234.49"/>
            <path class="cls-4" d="M87.37,230.4a16.08,16.08,0,0,1-7,4.09,16.18,16.18,0,0,1,7-4.09Z"/>
          </g>
          <g>
            <line class="cls-3" x1="100.74" y1="233.13" x2="93.78" y2="235.98"/>
            <path class="cls-4" d="M100.74,233.13a14,14,0,0,1-7,2.85,13.91,13.91,0,0,1,7-2.85Z"/>
          </g>
          <g>
            <path class="cls-3" d="M105.71,221.59s-.44,1.06-2.63,1.06-3.51-2.31-3.51-2.31"/>
            <path class="cls-4" d="M105.71,221.59a1.9,1.9,0,0,1-1.42,1.38,3.79,3.79,0,0,1-4.72-2.63c1.38,1.33,2.73,2,4.53,1.77a3.13,3.13,0,0,0,1.61-.52Z"/>
          </g>
        </g>
        <g>
          <g>
            <path class="cls-12" d="M109.38,216.75s4.06,2.85-.11,5.51-12.79-5.1-13-13.13c-.27-9.25,8.38-.26,8.38-.26"/>
            <g>
              <path class="cls-23" d="M163.92,221,136.76,205.8l-26.64,12.69s-10.11-4.25-9.33-13.27c.2-2.35,27.63-20.35,36.53-23,5.18-1.54,32.38,5,39.21,18.52"/>
              <path class="cls-8" d="M163.92,221c-8.65-4.87-19.4-10.23-27-14.88l-13.28,6.43-13.3,6.38-.19.09c-5.34-2.36-10.36-7.41-9.82-13.66a2,2,0,0,1,.59-1.18,48.17,48.17,0,0,1,6.51-5.26A211.11,211.11,0,0,1,130,185a38.91,38.91,0,0,1,7.72-3.27,18.31,18.31,0,0,1,5.07.17,63.23,63.23,0,0,1,24.71,9.34c3.64,2.47,7,5.55,9,9.53-2.09-3.92-5.54-6.89-9.22-9.25a64.43,64.43,0,0,0-24.62-8.84,18.12,18.12,0,0,0-4.82-.11,38.38,38.38,0,0,0-7.47,3.22A211.47,211.47,0,0,0,108,199.69c-2.28,1.75-5,3.32-6.71,5.57a.6.6,0,0,0,0,.13v.19c-.43,5.68,4.22,10.28,9,12.5h-.36c6.64-3.16,20-9.45,26.7-12.56l.14-.07c9.08,5.11,18.1,10.33,27.15,15.5Z"/>
            </g>
          </g>
          <g>
            <path class="cls-7" d="M179.35,197.59s-3.77-2.13-6.78-1.38"/>
            <path class="cls-8" d="M179.35,197.59c-2.39-.43-4.39-1.17-6.78-1.38,2.18-1.21,5.1-.29,6.78,1.38Z"/>
          </g>
          <g>
            <path class="cls-7" d="M138.68,206.57a27.06,27.06,0,0,1-5.49-2.91"/>
            <path class="cls-8" d="M138.68,206.57a7.14,7.14,0,0,1-5.49-2.91,15.3,15.3,0,0,1,5.49,2.91Z"/>
          </g>
        </g>
      </g>
    </g>
  </g>
</svg>
