<svg id="Layer_1" data-name="Layer 1" xmlns="http://www.w3.org/2000/svg" width="280" height="380" viewBox="0 0 280 380">
  <defs>
    <style>
      .cls-1 {
        opacity: 0.3;
      }

      .cls-2, .cls-3 {
        fill: #e4e7ea;
      }

      .cls-2, .cls-7 {
        stroke: #5e646b;
      }

      .cls-11, .cls-12, .cls-13, .cls-16, .cls-2, .cls-21, .cls-5, .cls-7 {
        stroke-miterlimit: 10;
      }

      .cls-4 {
        fill: #5e646b;
      }

      .cls-5 {
        fill: #ed8843;
      }

      .cls-11, .cls-5 {
        stroke: #663b14;
      }

      .cls-6 {
        fill: #8e8e8e;
      }

      .cls-7 {
        fill: #bac4cc;
      }

      .cls-8 {
        fill: #eaa968;
      }

      .cls-9 {
        fill: #663b14;
      }

      .cls-10, .cls-11 {
        fill: #f48f42;
      }

      .cls-12 {
        fill: #efea37;
      }

      .cls-12, .cls-21 {
        stroke: #8e8e8e;
      }

      .cls-13, .cls-15 {
        fill: #fff;
      }

      .cls-13 {
        stroke: #5b5a5b;
      }

      .cls-14 {
        fill: #56290b;
      }

      .cls-16 {
        fill: #333;
        stroke: #3d3d3d;
      }

      .cls-17 {
        fill: #60170e;
        stroke: #190906;
        stroke-linejoin: round;
      }

      .cls-18 {
        fill: #b74277;
      }

      .cls-19 {
        fill: #727272;
      }

      .cls-20 {
        fill: #543a2d;
      }

      .cls-21 {
        fill: #d7afdd;
      }
    </style>
  </defs>
  <g>
    <ellipse class="cls-1" cx="135.63" cy="367.61" rx="130.82" ry="10.49"/>
    <g>
      <g>
        <g>
          <g>
            <path class="cls-2" d="M173.68,341c-.84.55-9.53,11-8.72,14.1s-11.81-3-11.81-3,.51-8.72,7.5-14.5S173.68,341,173.68,341Z"/>
            <g>
              <path class="cls-3" d="M154.5,342.81s-5.36,13.09-8.47,18.72,5.3,10.49,16.28,13.27c15.79,4,65.86,8.14,46.72-9.08-8-7.22-46-10.22-46-10.22"/>
              <path class="cls-4" d="M154.5,342.81c-2.31,6-4.64,11.92-7.38,17.74-.66,1.27-1.56,2.7-1.14,4.18,2.76,8.08,21.83,10.9,29.49,11.87,8,.87,31.63,3.41,36.88-2.74,1.63-2.71-1.48-5.66-3.36-7.49-2.29-2.11-5.41-3.14-8.34-4.12-12.24-3.53-25-5.12-37.65-6.75,12.79.79,25.62,2.07,37.95,5.8,3.08,1,6.26,2.08,8.72,4.33,4.62,4.07,6.57,9.17-.72,11.51-4.66,1.47-9.58,1.62-14.4,1.69a153.84,153.84,0,0,1-19.2-1.24c-9.43-1.34-19.56-2.67-27.46-8.51-3.1-2.57-4-5.41-1.66-9,3-5.61,5.66-11.46,8.27-17.29Z"/>
            </g>
          </g>
          <path class="cls-5" d="M136,258s18.92,30.69,21,44.87,1.5,29.33-2.79,37.74c-3.66,7.2,13.55,7.88,13.55,7.88s21.62-18.51,23.61-37c2.84-26.37-18.86-53.47-18.86-53.47s-12-17.3-17.57-11.24"/>
        </g>
        <g>
          <path class="cls-6" d="M189.44,362.88a118,118,0,0,1,21.46,5,117.83,117.83,0,0,1-21.46-5Z"/>
          <path class="cls-6" d="M188.52,373.37A123,123,0,0,1,210.9,376a123.85,123.85,0,0,1-22.38-2.62Z"/>
        </g>
      </g>
      <path class="cls-7" d="M122.15,230.65s-5.93.43-4.21-8.24-4-3.56-6.66,1.38-3.84-4.46-3.84-4.46-7.16-1-4.38,11.66c0,0-6.48-3.39-5.19,1.15s6.82,7.43,6.82,7.43-7.53,1.25-5.67,2.9,8.74,5,10.7,5.75,9.82-.12,9.82-.12,6.14-8.33,4.43-13.7"/>
      <g>
        <g>
          <path class="cls-2" d="M187.43,257.25s4.38,10.11,10.3,16.3c.24,3.54-.86,6.64,5.31,7.32a10.91,10.91,0,0,0,12.45-10.74s4.11-2.85,2.94-5.55c-5.31-7.31-5.35-11.8-6.36-12.2s-13.41-3.81-17-2.25"/>
          <g>
            <path class="cls-2" d="M203,269.2s-6.1,0-4.35,4,9.6,7.94,14,4.26"/>
            <path class="cls-2" d="M203.2,262.31s-3.35-.09-2.92,4.79c.27,3.09,3.12,7.2,5.31,7.32,2.38.13,9.13-2.37,11.63-5.85"/>
            <g>
              <path class="cls-3" d="M203.45,255.05s-4,8.88-1.37,11.28c7.11,6.53,13-12,10-13.95"/>
              <path class="cls-4" d="M203.5,255.07c-1.13,3.21-2.61,6.78-1.76,10.15a2.88,2.88,0,0,0,1.27,1.4c2.49,1.85,5.1-.32,6.39-2.55a21.05,21.05,0,0,0,3.22-9.77,2.49,2.49,0,0,0-.58-1.88l.05-.09c2.58,2.31-.1,9.84-1.84,12.29-1.19,1.77-3.14,3.75-5.53,3.45a4.55,4.55,0,0,1-3.56-2.64c-.62-2.15.08-4.38.68-6.42a35,35,0,0,1,1.57-4l.09,0Z"/>
            </g>
            <path class="cls-6" d="M196.77,260c1.18,1.24,2.89,1.48,4.48,1.71-1.6.5-3.86,0-4.48-1.71Z"/>
            <path class="cls-6" d="M211.21,267.75c.33-1.67-.45-3.21-1.18-4.65,1.33,1,2.23,3.15,1.18,4.65Z"/>
          </g>
        </g>
        <g>
          <path class="cls-5" d="M150.89,195.62s-5.45,17.63-.64,36.28c1,4,28.39,30.25,40.21,27.31,5.91-1.47,5.48-10,5.48-10s-16.73-12.5-17.7-20.7c-1.23-10.38,2.69-16.44,2.69-16.44"/>
          <g>
            <path class="cls-8" d="M178.05,228.48a27.32,27.32,0,0,1-.65,6.38"/>
            <path class="cls-9" d="M178.05,228.48a7.51,7.51,0,0,1-.65,6.38,16.77,16.77,0,0,1,.65-6.38Z"/>
          </g>
        </g>
      </g>
      <g>
        <g>
          <path class="cls-2" d="M111.72,303.22s-13.65,4-15,8.59c-.86,4.93,1.42,22.78-5.4,36.31-5,10,11.67,16.06,18.19,12.42,5.87-3.26,9.52-6.83,8.51-16s-7.2-26.74-7.2-26.74l7-4.92S120.11,298,111.72,303.22Z"/>
          <g>
            <path class="cls-3" d="M103.32,315.14s3.64,4.83,8.81,1.7"/>
            <path class="cls-4" d="M103.36,315.11a7.65,7.65,0,0,0,4.13,2.25,14.59,14.59,0,0,0,4.61-.57l.05.09a4.51,4.51,0,0,1-4.83,1.26,7.4,7.4,0,0,1-4-3l.08-.06Z"/>
          </g>
          <path class="cls-6" d="M103.6,341.52c.39,6,.64,15.08-4.87,18.9,5.23-4,4.56-12.88,3.88-18.76l1-.14Z"/>
          <path class="cls-6" d="M113,341.9c.39,6,.64,15.08-4.87,18.91,5.23-4,4.55-12.89,3.88-18.77l1-.14Z"/>
        </g>
        <g>
          <g>
            <path class="cls-10" d="M118,236.5s-13,26,13.32,52.22c0,0-6.09-1.73-25.16,15.55,0,0,1.53,12,7.36,12.3s32.83-5.46,42.08-13.69c14.15-14.49,13.17-42.46,26.87-64"/>
            <path class="cls-9" d="M118,236.5c-7.67,18.41-.26,38.69,13.62,51.93l.89.88c-2.77-.71-5.65.7-8.11,1.91-6.6,3.52-12.35,8.44-17.92,13.4l.15-.41c.6,3.55,1.5,7.35,3.82,10.16,1.62,2.11,4.12,1.8,6.49,1.51q1.84-.21,3.69-.54a124.32,124.32,0,0,0,21.64-5.81c4.56-1.74,9.39-3.85,13-6.95a44.1,44.1,0,0,0,8.94-14.7c4.23-10.84,6.45-22.39,10.58-33.29a80.22,80.22,0,0,1,7.65-15.69,80.51,80.51,0,0,0-7.38,15.79c-3.92,11-6,22.52-10.19,33.45-2.11,5.43-4.86,10.77-9,15-3.89,3.33-8.61,5.36-13.32,7.19a121,121,0,0,1-14.42,4.39c-4.95,1.07-9.87,2.4-15,2.27-5.29-1-6.76-8.47-7.53-12.94a133.2,133.2,0,0,1,11.9-9.67,52.11,52.11,0,0,1,8.16-4.8c1.86-.72,3.64-1.54,5.72-1.29L131,289c-13.92-13.63-21.14-33.95-13-52.52Z"/>
          </g>
          <g>
            <path class="cls-8" d="M137,297.48s-4.71-4.19-5.9-9.88"/>
            <path class="cls-9" d="M137,297.48a12.9,12.9,0,0,1-5.9-9.88,50.53,50.53,0,0,0,5.9,9.88Z"/>
          </g>
        </g>
      </g>
      <g>
        <path class="cls-11" d="M178.29,183S141,195.76,119.5,233.3c-5.51,9.61,8.73,31.59,37.54,31.54,0,0,4.92,1.69,14-1.6,3.44-1.25,6.53-18.57,17.57-38,9.36-16.42,3.41-31.12,3.41-31.12"/>
        <ellipse class="cls-12" cx="178.24" cy="229.01" rx="15.52" ry="6.26" transform="translate(-103.07 300.26) rotate(-66.32)"/>
        <g>
          <path class="cls-11" d="M195.91,207.15s4.12-1.75,5.35-4.35-1.93-6.85-11.62-17.57c-8.57-9.5-11.17-3.91-11.58-3.49a5.48,5.48,0,0,0-1,3"/>
          <path class="cls-11" d="M185.08,186.05s-9-8.31,0-11.32c8.1-2.7,24.54,19.54,24,22.6s-3.9,5.14-10,2.43"/>
        </g>
      </g>
      <g>
        <g>
          <path class="cls-2" d="M135.19,251.5l-1.4,4.35c2.19.36,10.68,1.59,11.56,4.43,1.16,3.76,2.37,14.44-2.18,18.16-3.78,3.08-8.3-.15-8.3-.15s-.15,8.31-2.58,8.41-8-3.58-8.51-5,.79-4.35.79-4.35-11.09-4.12-11.49-6.43,1.81-17,6.42-24.77"/>
          <g>
            <line class="cls-3" x1="135.56" y1="269.22" x2="134.07" y2="282.72"/>
            <path class="cls-4" d="M135.56,269.22a45.2,45.2,0,0,1-1.49,13.5,44.88,44.88,0,0,1,1.49-13.5Z"/>
          </g>
          <g>
            <line class="cls-3" x1="126.06" y1="273.08" x2="123.31" y2="280.94"/>
            <path class="cls-4" d="M126.06,273.08a17.17,17.17,0,0,1-2.75,7.86,17,17,0,0,1,2.75-7.86Z"/>
          </g>
          <g>
            <line class="cls-3" x1="138.49" y1="266.71" x2="134.9" y2="273.53"/>
            <path class="cls-4" d="M138.49,266.71a14.72,14.72,0,0,1-3.59,6.82,14.63,14.63,0,0,1,3.59-6.82Z"/>
          </g>
          <g>
            <path class="cls-3" d="M134.61,254s.37,1.15-1.37,2.57-4.33.35-4.33.35"/>
            <path class="cls-4" d="M134.61,254c.71,1.35-.58,2.82-1.79,3.4a4.16,4.16,0,0,1-3.91-.48c2,.22,3.54,0,4.79-1.44a3,3,0,0,0,.91-1.48Z"/>
          </g>
        </g>
        <g>
          <g>
            <path class="cls-11" d="M134.24,247.68s5.14-.29,3.64,4.59-13.56,4-19.18-2.4c-6.48-7.43,6.45-5.62,6.45-5.62"/>
            <g>
              <path class="cls-10" d="M180.24,216,148.5,221,136,248.63s-10.86,3-16.36-4.91c-1.42-2.05,8.11-34.53,13.36-42.45,3.06-4.6,29-16.78,43.54-10"/>
              <path class="cls-9" d="M180.24,216c-10.14,1.57-22.29,4.09-31.46,5.17L142.61,235l-6.2,13.82-.09.2c-6,1.56-13.43.45-17.1-5a1.8,1.8,0,0,1-.2-.86,43.29,43.29,0,0,1,1.52-8.55A215.45,215.45,0,0,1,129,208.44a40.69,40.69,0,0,1,3.9-7.74,16.85,16.85,0,0,1,4.17-3.2,63.08,63.08,0,0,1,26-8.29c4.55-.3,9.28.07,13.44,2a27.25,27.25,0,0,0-13.41-1.68,64.3,64.3,0,0,0-25.65,8.62,16.91,16.91,0,0,0-3.91,3.06,40.82,40.82,0,0,0-3.74,7.55,186.52,186.52,0,0,0-9.72,32.66,6.52,6.52,0,0,0-.07,2c.19.25.39.56.61.8,3.56,4.45,9.93,5.2,15.23,3.95l-.28.24c3.12-6.87,9.46-20.68,12.63-27.54l.06-.15c10.64-1.65,21.3-3.18,32-4.77Z"/>
            </g>
          </g>
          <g>
            <path class="cls-8" d="M176.65,186.83s-4.43.68-6.3,3.23"/>
            <path class="cls-9" d="M176.65,186.83c-2.2,1.15-4.29,1.82-6.3,3.23.94-2.38,3.88-3.5,6.3-3.23Z"/>
          </g>
          <g>
            <path class="cls-8" d="M150.54,220.42a27.51,27.51,0,0,1-6.31,1.14"/>
            <path class="cls-9" d="M150.54,220.42a7.46,7.46,0,0,1-6.31,1.14,16.83,16.83,0,0,1,6.31-1.14Z"/>
          </g>
        </g>
      </g>
      <g>
        <path class="cls-2" d="M263.68,122.57s2.27-47.39-6.07-72.74c-5.23-15.93-31.67-46.49-48.94-38.4-15.5,7.26,13.56,54.87,16.8,59.93s13.59,32.07,24.39,38.6"/>
        <g>
          <path class="cls-2" d="M240.21,83.33s-.12,6.44-13,6.19-25.15,2-39.08,25c-7.4,12.24-6.38,10.77-6.38,10.77S167.6,128.5,168,145.09s26.7,41.33,26.7,41.33,4.19,10.64,12.62,13.11c8.12,2.38,11.4-.78,14.68-3.93,0,0,28.38-2.57,37.14-14.4,7.21-9.75,5.27-17-.76-25.51,0,0,12.39-27.24,6-41.46s-14.31-15.37-14.7-21.07.12-6.43.12-6.43l-3.56,5.13s.5-7.25,2.16-9.36-5,4.11-6.33,7.55C242.07,90.05,241.11,88.3,240.21,83.33Z"/>
          <g>
            <g>
              <path class="cls-3" d="M257.78,152.8s14.75,1.75,16.5,10a60,60,0,0,0-8.12-1.68s2.39,6.24,1.32,8.43c0,0-1.32-1-4.9-3.22s-5-8-5-8"/>
              <path class="cls-4" d="M257.78,152.8c6.61.81,15.63,3,17.11,10.61a61.42,61.42,0,0,0-8.76-1.83l.48-.66a25.46,25.46,0,0,1,1.56,6.44,5,5,0,0,1-.52,2.82c-1.6-1.23-3.47-2.47-5.18-3.58a10.38,10.38,0,0,1-3.63-4.6,17.46,17.46,0,0,1-1.22-3.68c1,3,2.46,6.05,5.17,7.75,1.64,1,3.39,2,4.95,3.12l-.65.14a4.08,4.08,0,0,0,.2-1.91,26.58,26.58,0,0,0-1.85-6.87l.75.06a47.53,47.53,0,0,1,8.21,1.72l-.57.54c-1.75-6.58-10.15-8.77-16.05-10.07Z"/>
            </g>
            <g>
              <path class="cls-3" d="M190.31,124.72s-13.41-10.4-21.43-5.11a68.88,68.88,0,0,1,8,5.14s-7,3.17-7.83,5.81c0,0,1.89.23,6.57,1.31S186,129.34,186,129.34"/>
              <path class="cls-4" d="M190.31,124.72c-5.8-3.71-14.51-8.7-21.18-4.72l0-.79a55.42,55.42,0,0,1,8.05,5.18l.58.49a37.75,37.75,0,0,0-5,2.64c-1.23.84-2.75,1.82-3.33,3.18l-.35-.56c1.5.23,2.92.56,4.37.89a17.88,17.88,0,0,0,4.27.75,18.78,18.78,0,0,0,8.32-2.44,20.35,20.35,0,0,1-4,2,12,12,0,0,1-6.63.81c-2.26-.47-4.75-1-7-1.23a5.62,5.62,0,0,1,1.8-2.63,29.47,29.47,0,0,1,6.41-4l-.11.81a70.2,70.2,0,0,0-8.52-5.48c7.17-4.91,16.37.54,22.31,5.08Z"/>
            </g>
          </g>
        </g>
        <g>
          <g>
            <path class="cls-13" d="M207.63,131.85s6.51-17.2,15.42-17.53,16.41,9.21,4.94,27.31"/>
            <circle class="cls-14" cx="221.84" cy="130.08" r="5.8"/>
            <circle class="cls-15" cx="227.18" cy="128.35" r="1.34"/>
          </g>
          <g>
            <path class="cls-3" d="M203,130.77s10.6,1.93,26.5,11.88"/>
            <path class="cls-4" d="M203,130.77c9.64,1.58,18.61,6.25,26.5,11.88-8.49-4.41-17.36-9-26.5-11.88Z"/>
          </g>
        </g>
        <g>
          <g>
            <path class="cls-13" d="M237.07,145.76s2.41-17.56,8.84-20.57,16,3.6,8.82,26.42"/>
            <circle class="cls-14" cx="246.73" cy="141.29" r="5.8"/>
            <circle class="cls-15" cx="252.07" cy="138.73" r="1.34"/>
          </g>
          <g>
            <path class="cls-3" d="M235.82,146c5.93.85,20,4.08,22.34,10.07"/>
            <path class="cls-4" d="M235.82,146c6.31.48,12.74,1.95,18.17,5.33a13.48,13.48,0,0,1,2.49,2,7.22,7.22,0,0,1,1.68,2.71,8.22,8.22,0,0,0-2-2.36,13.47,13.47,0,0,0-2.55-1.73c-5.54-2.93-11.72-4.44-17.77-6Z"/>
          </g>
        </g>
        <path class="cls-16" d="M230.62,159.75s-1.57-8.69-7.11-11.67c0,0,7.12-2.44,16.87,5.42C240.38,153.5,238.07,158.4,230.62,159.75Z"/>
        <g>
          <g>
            <path class="cls-17" d="M246.75,163.89s-3.63,9.52-11.52,7.2c-10.83-3.17-5.12-10.61-5.12-10.61s-2.06,5.31-7.21,5.7-21.4-4.38-20.08-21.92c0,0-5,29.1,4.24,37.69s16.69,7.24,28.27-3.18C235.33,178.77,244.65,170,246.75,163.89Z"/>
            <path class="cls-18" d="M202.78,172.47s16.37-1.68,19.28,14.46c0,0-8.69,1.57-15-5C205.2,180,202.5,174.44,202.78,172.47Z"/>
            <path class="cls-15" d="M235.23,171.09c-7.9-1.13-7-7.06-7-7.06s-1.52,2.2-5.28,2.15a21.85,21.85,0,0,1-8.09-1.65c-1.13,4.74-.69,10.38.27,12.13C223.59,184.74,233.64,176.51,235.23,171.09Z"/>
            <path class="cls-19" d="M222.53,175.31c1.93-3.82,4.15-7.25,5.65-11.28-.11,4.32-2.63,8.34-5.65,11.28Z"/>
          </g>
          <g>
            <path class="cls-20" d="M196.94,144.84a9.34,9.34,0,0,1,10.56.49,22.87,22.87,0,0,0-10.56-.49Z"/>
            <path class="cls-20" d="M243.47,161.18a9.35,9.35,0,0,1,6.82,8.09,22.78,22.78,0,0,0-6.82-8.09Z"/>
          </g>
        </g>
        <g>
          <path class="cls-20" d="M215.41,106.87a25.16,25.16,0,0,1,19.4-2l2.7-3.89S220.84,99.05,215.41,106.87Z"/>
          <path class="cls-20" d="M262.37,125a24.41,24.41,0,0,0-12.88-13.78l.5-4.54S263.38,115.89,262.37,125Z"/>
        </g>
        <g>
          <path class="cls-2" d="M229.68,89S192.44,28.4,162,16.73c-16.42-6.28-24.06,9-8.34,40,10.78,21.21,44.76,35.16,67.17,42.75"/>
          <path class="cls-21" d="M225.54,89.92s-36.22-53.18-58.66-61.76c-12.09-4.63-17.71,6.62-6.14,29.4,7.15,14.08,34.28,27.44,51.63,34,1.89.71,9.16,3.67,10.75-4.65"/>
        </g>
      </g>
    </g>
  </g>
</svg>
