<svg id="Layer_1" data-name="Layer 1" xmlns="http://www.w3.org/2000/svg" width="280" height="380" viewBox="0 0 280 380">
  <defs>
    <style>
      .cls-1 {
        opacity: 0.3;
      }

      .cls-2, .cls-3 {
        fill: #e4e7ea;
      }

      .cls-2, .cls-9 {
        stroke: #5e646b;
      }

      .cls-11, .cls-12, .cls-13, .cls-16, .cls-2, .cls-21, .cls-6, .cls-9 {
        stroke-miterlimit: 10;
      }

      .cls-4 {
        fill: #5e646b;
      }

      .cls-5 {
        fill: #8e8e8e;
      }

      .cls-6 {
        fill: #ed8843;
      }

      .cls-11, .cls-6 {
        stroke: #663b14;
      }

      .cls-7 {
        fill: #eaa968;
      }

      .cls-8 {
        fill: #663b14;
      }

      .cls-9 {
        fill: #bac4cc;
      }

      .cls-10, .cls-11 {
        fill: #f48f42;
      }

      .cls-12 {
        fill: #efea37;
      }

      .cls-12, .cls-21 {
        stroke: #8e8e8e;
      }

      .cls-13, .cls-15 {
        fill: #fff;
      }

      .cls-13 {
        stroke: #5b5a5b;
      }

      .cls-14 {
        fill: #56290b;
      }

      .cls-16 {
        fill: #333;
        stroke: #3d3d3d;
      }

      .cls-17 {
        fill: #60170e;
        stroke: #190906;
        stroke-linejoin: round;
      }

      .cls-18 {
        fill: #b74277;
      }

      .cls-19 {
        fill: #727272;
      }

      .cls-20 {
        fill: #543a2d;
      }

      .cls-21 {
        fill: #d7afdd;
      }
    </style>
  </defs>
  <g>
    <ellipse class="cls-1" cx="136.08" cy="368.21" rx="130.82" ry="10.49"/>
    <g>
      <g>
        <g>
          <path class="cls-2" d="M114.29,215.69s-11,1.14-18.64,4.93c-3.45-.84-6.07-2.82-8.58,2.86a10.91,10.91,0,0,0,6.5,15.1s1.49,4.78,4.41,4.47c8.58-2.86,12.86-1.55,13.56-2.39s7.66-11.65,7.26-15.55"/>
          <g>
            <path class="cls-2" d="M98.23,226.93s1.82-5.82-2.48-5.34-10.46,6.77-8.27,12.08"/>
            <path class="cls-2" d="M104.73,229.21s1.09-3.16-3.7-4.22c-3-.68-7.8.81-8.57,2.86-.84,2.23-.48,9.42,2.08,12.85"/>
            <g>
              <path class="cls-3" d="M111.57,231.63s-7.27-6.46-10.33-4.69c-8.38,4.81,7.57,16,10.3,13.72"/>
              <path class="cls-4" d="M111.54,231.67c-2.72-2-5.68-4.52-9.15-4.72a2.9,2.9,0,0,0-1.72.78c-2.51,1.83-1.22,5,.52,6.87a20.91,20.91,0,0,0,8.34,6,2.48,2.48,0,0,0,2,0l.06.07c-2.93,1.78-9.38-3.07-11.16-5.45-1.34-1.67-2.63-4.12-1.63-6.31a4.54,4.54,0,0,1,3.59-2.6c2.24.06,4.15,1.39,5.92,2.58a35.78,35.78,0,0,1,3.32,2.69l-.07.07Z"/>
            </g>
            <path class="cls-5" d="M108.88,223.78c-1.53.75-2.28,2.31-3,3.76,0-1.68,1.15-3.69,3-3.76Z"/>
            <path class="cls-5" d="M97.13,235.21c1.5.83,3.2.54,4.79.28-1.37,1-3.67,1.18-4.79-.28Z"/>
          </g>
        </g>
        <g>
          <path class="cls-6" d="M184.06,199.37s-15.18-10.5-34.41-11.52c-4.12-.21-37.39,18-38.14,30.14-.37,6.08,7.9,8.24,7.9,8.24s17-12.2,25.07-10.66c10.27,2,14.87,7.51,14.87,7.51"/>
          <g>
            <path class="cls-7" d="M144.55,215.39a27.52,27.52,0,0,1-5.88-2.53"/>
            <path class="cls-8" d="M144.55,215.39a7.45,7.45,0,0,1-5.88-2.53,16.82,16.82,0,0,1,5.88,2.53Z"/>
          </g>
        </g>
      </g>
      <path class="cls-9" d="M122.61,242.26s-5.93.43-4.22-8.25-4-3.55-6.66,1.39-3.84-4.46-3.84-4.46-7.16-1-4.38,11.66c0,0-6.47-3.39-5.19,1.15s6.83,7.43,6.83,7.43-7.53,1.25-5.68,2.9,8.74,5,10.7,5.75,9.82-.12,9.82-.12,6.14-8.34,4.44-13.71"/>
      <g>
        <g>
          <path class="cls-2" d="M199.86,333.85c-.43.91-2.46,14.37-.18,16.57S188,353.93,188,353.93s-4.06-7.73-1.06-16.29S199.86,333.85,199.86,333.85Z"/>
          <g>
            <path class="cls-3" d="M184.37,345.29s2.17,14,2.42,20.41,10,6.24,20.79,3c15.6-4.73,60.14-25.1,35.32-31.91-21.59-5.93-46.4,11-46.4,11"/>
            <path class="cls-4" d="M184.37,345.29c1.28,7.11,2.41,14.26,3.09,21.47,1.67,5.19,10.44,3.56,14.62,2.8,12.08-2.61,39.09-14.07,46.45-23.77,5.76-8.18-10.76-9.87-15.84-9.79-12.81.4-25.21,5.33-36.19,11.79,10.67-7.23,23.12-12.56,36.18-12.79,6.14-.07,22.93,1.9,16.67,11.36-2.95,4-7.24,6.65-11.36,9.22a148.45,148.45,0,0,1-17.33,8.7c-8.91,3.59-18.29,7.75-28.15,7-3.92-.51-6.46-2.43-6.28-6.72-.31-6.41-1.08-12.83-1.86-19.23Z"/>
          </g>
          <path class="cls-5" d="M235.89,335.41c4.79-.27,14.59,1.19,8.55,7.63a17.11,17.11,0,0,1-4.28,3l-.06-.08c1.24-1.21,2.52-2.33,3.61-3.58,3.44-3.56,1.15-5.22-2.76-6.14a28.54,28.54,0,0,0-5.06-.7v-.1Z"/>
          <path class="cls-5" d="M223.36,336.06c4.79-.27,14.59,1.19,8.55,7.63a16.93,16.93,0,0,1-4.28,3l0-.08c1.23-1.21,2.51-2.34,3.61-3.58,3.43-3.57,1.14-5.22-2.77-6.14a28.54,28.54,0,0,0-5.06-.7v-.1Z"/>
        </g>
        <path class="cls-6" d="M124.7,282.21s32.06,16.51,41.19,27.56S182.33,334.1,183,343.53c.58,8.05,15.67-.25,15.67-.25s9-27,1.09-43.91c-11.19-24-43.77-36-43.77-36s-19.19-8.63-20.85-.54"/>
      </g>
      <g>
        <g>
          <path class="cls-2" d="M80.9,293.57s-13.57-4.3-17.2-1.23C60.23,296,52.15,312,38.93,319.44c-9.76,5.48.71,19.83,8.15,20.46,6.69.57,11.72-.35,16-8.52s9-26.2,9-26.2L80.6,305S90.75,294,80.9,293.57Z"/>
          <g>
            <path class="cls-3" d="M67.27,298.76s.32,6,6.36,6.33"/>
            <path class="cls-4" d="M67.32,298.75a7.6,7.6,0,0,0,2.17,4.18A14.71,14.71,0,0,0,73.63,305v.1a4.54,4.54,0,0,1-4.72-1.66,7.37,7.37,0,0,1-1.69-4.72Z"/>
          </g>
          <path class="cls-5" d="M52.77,320.8c-3,5.21-7.9,12.86-14.6,13,6.58-.41,11-8.15,13.7-13.4l.9.44Z"/>
          <path class="cls-5" d="M60.38,326.39c-3,5.21-7.89,12.86-14.6,13,6.58-.41,11-8.15,13.7-13.4l.9.44Z"/>
        </g>
        <g>
          <g>
            <path class="cls-10" d="M121.13,243.07a147.94,147.94,0,0,0-15.88,49.42s-4.08-4.84-29.55-1.16c0,0-5.41,10.78-.77,14.32s30.28,13.8,42.55,12.15c27-3.3,31.63-34.1,55-44.3"/>
            <path class="cls-8" d="M121.13,243.07a151.55,151.55,0,0,0-15.47,49.48l-.11.77-.61-.56c-1.84-1.4-4.56-1.73-6.82-2.07-7.44-.76-15,.11-22.36,1.11l.36-.26c-1.61,3.76-4.11,9.56-1.41,13.22,2.51,2.17,5.86,3.35,8.89,4.75,2.53,1.07,5.1,2.06,7.69,3,10.22,3.34,21.38,7.07,32.05,3.67,16.46-5,24-22,35.63-33.24a43.71,43.71,0,0,1,13.53-9.4,43.68,43.68,0,0,0-13.34,9.59c-11.42,11.59-19,28.67-35.58,33.83-10.81,3.54-22.23-.2-32.6-3.55-2.62-.91-5.21-1.89-7.76-3-3.15-1.47-6.61-2.6-9.25-5-3.1-4.07-.48-10.18,1.3-14.3l.11-.22.25,0c7.38-.92,23.92-3.17,29.94,1.36l-.73.21a146.22,146.22,0,0,1,16.29-49.37Z"/>
          </g>
          <g>
            <path class="cls-7" d="M105.1,303s-1.56-6.11.63-11.49"/>
            <path class="cls-8" d="M105.1,303a12.91,12.91,0,0,1,.63-11.49A50.12,50.12,0,0,0,105.1,303Z"/>
          </g>
        </g>
      </g>
      <g>
        <path class="cls-11" d="M178.74,194.57S141.48,207.36,120,244.91c-5.51,9.6,8.73,31.58,37.54,31.53,0,0,4.92,1.7,14-1.59,3.45-1.26,6.53-18.58,17.57-38,9.36-16.43,3.42-31.12,3.42-31.12"/>
        <ellipse class="cls-12" cx="178.7" cy="240.61" rx="15.52" ry="6.26" transform="translate(-113.43 307.62) rotate(-66.32)"/>
        <g>
          <path class="cls-11" d="M196.37,218.76s4.11-1.76,5.34-4.36-1.92-6.84-11.61-17.57c-8.58-9.49-11.18-3.91-11.58-3.48a5.39,5.39,0,0,0-1,3"/>
          <path class="cls-11" d="M185.54,197.66s-9-8.32,0-11.32c8.09-2.7,24.53,19.53,24,22.6s-3.89,5.14-10,2.43"/>
        </g>
      </g>
      <g>
        <g>
          <path class="cls-2" d="M214.33,262.47l3.94,2.3c.83-2,3.87-10.07,6.84-10.31,3.92-.32,14.61.82,17.25,6.07,2.19,4.36-2,8.07-2,8.07s8.08,1.95,7.65,4.35-5.22,7-6.75,7.21-4.07-1.72-4.07-1.72-6.44,9.93-8.78,9.82-16.16-5.45-22.78-11.64"/>
          <g>
            <line class="cls-3" x1="231.71" y1="265.96" x2="244.56" y2="270.34"/>
            <path class="cls-4" d="M231.71,266a45,45,0,0,1,12.85,4.38A45,45,0,0,1,231.71,266Z"/>
          </g>
          <g>
            <line class="cls-3" x1="233.41" y1="276.07" x2="240.48" y2="280.46"/>
            <path class="cls-4" d="M233.41,276.07a17,17,0,0,1,7.07,4.39,17.06,17.06,0,0,1-7.07-4.39Z"/>
          </g>
          <g>
            <line class="cls-3" x1="229.89" y1="262.55" x2="235.77" y2="267.54"/>
            <path class="cls-4" d="M229.89,262.55a14.66,14.66,0,0,1,5.88,5,14.66,14.66,0,0,1-5.88-5Z"/>
          </g>
          <g>
            <path class="cls-3" d="M216.66,263.58s1.21-.11,2.21,1.89-.59,4.31-.59,4.31"/>
            <path class="cls-4" d="M216.66,263.58c1.48-.4,2.63,1.18,2.93,2.49a4.14,4.14,0,0,1-1.31,3.71c.63-1.86.75-3.46-.37-5a3,3,0,0,0-1.25-1.21Z"/>
          </g>
        </g>
        <g>
          <g>
            <path class="cls-11" d="M210.39,262.57s.84-5.08,5.28-2.56,1,14.12-6.51,18.21c-8.66,4.7-4.08-7.52-4.08-7.52"/>
            <g>
              <path class="cls-10" d="M189.44,210.78l-2,32.08,24.23,18.19s.59,11.26-8.34,14.91c-2.31.94-32-15.42-38.53-22.26-3.84-4-10.09-31.93-.35-44.69"/>
              <path class="cls-8" d="M189.44,210.78c-.67,10.24-.85,22.64-1.78,31.83,6.07,4.5,18.27,13.56,24.31,18.09l.17.13v.2c0,4.67-1.26,9.56-4.72,12.87a12.64,12.64,0,0,1-3.93,2.52,5.16,5.16,0,0,1-2.6-.5c-6.42-2.54-12.37-6-18.34-9.43s-11.83-7.06-17.06-11.56c-1.87-1.48-2.74-3.85-3.47-6a63,63,0,0,1-2.44-27.21c.7-4.5,2.08-9,4.89-12.68a27.28,27.28,0,0,0-4.55,12.73,64.25,64.25,0,0,0,2.84,26.91c.75,2.08,1.52,4.23,3.3,5.65,5.18,4.41,11.12,7.9,17,11.38,3.94,2.29,7.94,4.48,12,6.52,2.64,1.2,5.29,2.83,8.13,3.31,5.69-2.2,8.18-8.65,8.08-14.43l.18.33c-6-4.55-18.14-13.73-24.15-18.31l-.13-.1c.7-10.74,1.52-21.48,2.28-32.22Z"/>
            </g>
          </g>
          <g>
            <path class="cls-7" d="M160.2,208s-.29,4.46,1.79,6.85"/>
            <path class="cls-8" d="M160.2,208c.65,2.39.85,4.57,1.79,6.85-2.12-1.44-2.57-4.56-1.79-6.85Z"/>
          </g>
          <g>
            <path class="cls-7" d="M187.32,240.74a27,27,0,0,1-.25,6.4"/>
            <path class="cls-8" d="M187.32,240.74a7.43,7.43,0,0,1-.25,6.4,17,17,0,0,1,.25-6.4Z"/>
          </g>
        </g>
      </g>
      <g>
        <path class="cls-2" d="M266.62,136.28s6-47.06-.29-73c-4-16.29-27.9-48.84-45.76-42.15-16,6,9.18,55.77,12,61.08s11,33,21.27,40.4"/>
        <g>
          <path class="cls-2" d="M240.67,94.94s-.12,6.43-13,6.19-25.14,2-39.07,25c-7.41,12.23-6.39,10.77-6.39,10.77s-14.17,3.2-13.73,19.78S195.18,198,195.18,198s4.19,10.63,12.62,13.1c8.13,2.38,11.4-.77,14.68-3.93,0,0,28.38-2.56,37.14-14.4,7.21-9.74,5.27-17-.76-25.5,0,0,12.39-27.24,6-41.47s-14.32-15.36-14.7-21.06.12-6.43.12-6.43l-3.56,5.13s.5-7.26,2.15-9.37-5,4.12-6.33,7.56C242.52,101.66,241.57,99.91,240.67,94.94Z"/>
          <g>
            <g>
              <path class="cls-3" d="M258.23,164.4s14.75,1.75,16.5,10a59.67,59.67,0,0,0-8.12-1.68s2.4,6.24,1.32,8.43c0,0-1.32-1-4.9-3.22s-5-8-5-8"/>
              <path class="cls-4" d="M258.23,164.4c6.61.81,15.63,3,17.12,10.61a64.76,64.76,0,0,0-8.77-1.83l.49-.65a25.47,25.47,0,0,1,1.55,6.43,5,5,0,0,1-.52,2.83c-1.59-1.23-3.46-2.48-5.18-3.59a10.4,10.4,0,0,1-3.63-4.6,17.66,17.66,0,0,1-1.22-3.68c1,3,2.47,6.06,5.18,7.75,1.63,1,3.39,2,4.94,3.12l-.64.15a4.11,4.11,0,0,0,.19-1.92,26.51,26.51,0,0,0-1.85-6.86l.76.06a47.62,47.62,0,0,1,8.2,1.72l-.57.53c-1.74-6.57-10.14-8.77-16-10.07Z"/>
            </g>
            <g>
              <path class="cls-3" d="M190.77,136.32s-13.42-10.39-21.44-5.1a68,68,0,0,1,8,5.14s-6.95,3.16-7.83,5.81c0,0,1.89.22,6.57,1.3S186.48,141,186.48,141"/>
              <path class="cls-4" d="M190.77,136.32c-5.8-3.71-14.52-8.69-21.18-4.72l0-.78a56.77,56.77,0,0,1,8.05,5.17l.57.49a39.6,39.6,0,0,0-5,2.65c-1.23.84-2.75,1.81-3.33,3.17l-.36-.55c1.5.22,2.93.56,4.37.88a18.51,18.51,0,0,0,4.27.76,19,19,0,0,0,8.33-2.44,20.72,20.72,0,0,1-4,2,12,12,0,0,1-6.63.81c-2.26-.47-4.75-1-7-1.24a5.58,5.58,0,0,1,1.79-2.62,29.15,29.15,0,0,1,6.42-4l-.12.81a71.51,71.51,0,0,0-8.52-5.49c7.17-4.91,16.37.55,22.32,5.08Z"/>
            </g>
          </g>
        </g>
        <g>
          <g>
            <path class="cls-13" d="M208.08,143.45s6.51-17.2,15.43-17.53,16.41,9.22,4.93,27.32"/>
            <circle class="cls-14" cx="222.29" cy="141.69" r="5.8"/>
            <circle class="cls-15" cx="227.63" cy="139.96" r="1.34"/>
          </g>
          <g>
            <path class="cls-3" d="M203.4,142.38s10.61,1.93,26.51,11.88"/>
            <path class="cls-4" d="M203.4,142.38c9.65,1.57,18.62,6.24,26.51,11.88-8.5-4.41-17.37-9-26.51-11.88Z"/>
          </g>
        </g>
        <g>
          <g>
            <path class="cls-13" d="M237.52,157.37s2.41-17.56,8.85-20.57,16,3.6,8.81,26.42"/>
            <circle class="cls-14" cx="247.18" cy="152.9" r="5.8"/>
            <circle class="cls-15" cx="252.52" cy="150.34" r="1.34"/>
          </g>
          <g>
            <path class="cls-3" d="M236.28,157.59c5.92.86,20,4.09,22.33,10.07"/>
            <path class="cls-4" d="M236.28,157.59c6.3.48,12.74,2,18.16,5.33a13.88,13.88,0,0,1,2.5,2,7.49,7.49,0,0,1,1.67,2.71,8.15,8.15,0,0,0-2-2.35,13.39,13.39,0,0,0-2.56-1.73c-5.54-2.94-11.72-4.44-17.76-6Z"/>
          </g>
        </g>
        <path class="cls-16" d="M231.07,171.35s-1.57-8.69-7.1-11.67c0,0,7.12-2.43,16.87,5.42C240.84,165.1,238.52,170,231.07,171.35Z"/>
        <g>
          <g>
            <path class="cls-17" d="M247.2,175.49s-3.62,9.52-11.52,7.21c-10.83-3.17-5.12-10.61-5.12-10.61s-2.06,5.31-7.21,5.69-21.4-4.37-20.08-21.92c0,0-5,29.11,4.25,37.7s16.69,7.24,28.27-3.19C235.79,190.37,245.11,181.64,247.2,175.49Z"/>
            <path class="cls-18" d="M203.24,184.07s16.36-1.67,19.28,14.47c0,0-8.69,1.57-15-5C205.66,191.63,203,186.05,203.24,184.07Z"/>
            <path class="cls-15" d="M235.68,182.7c-7.89-1.14-7-7.06-7-7.06s-1.53,2.2-5.29,2.14a21.4,21.4,0,0,1-8.08-1.65c-1.13,4.75-.69,10.38.26,12.13C224,196.34,234.1,188.12,235.68,182.7Z"/>
            <path class="cls-19" d="M223,186.92c1.93-3.83,4.16-7.26,5.66-11.28C228.53,180,226,184,223,186.92Z"/>
          </g>
          <g>
            <path class="cls-20" d="M197.39,156.44a9.34,9.34,0,0,1,10.56.5,22.86,22.86,0,0,0-10.56-.5Z"/>
            <path class="cls-20" d="M243.93,172.79a9.34,9.34,0,0,1,6.81,8.08,22.83,22.83,0,0,0-6.81-8.08Z"/>
          </g>
        </g>
        <g>
          <path class="cls-20" d="M215.86,118.48a25.22,25.22,0,0,1,19.41-2l2.69-3.88S221.29,110.66,215.86,118.48Z"/>
          <path class="cls-20" d="M262.82,136.64a24.33,24.33,0,0,0-12.88-13.77l.51-4.54S263.83,127.49,262.82,136.64Z"/>
        </g>
        <g>
          <path class="cls-2" d="M222.51,103.08S212,30.2,187.52,6.4c-13.19-12.81-27-1.55-24.77,34.3,1.49,24.57,28.39,52,46.81,68.55"/>
          <path class="cls-21" d="M218.13,102.24s-12.62-65.45-30.65-83c-9.71-9.43-19.84-1.14-18.23,25.25,1,16.31,21.53,40.29,35.49,53.78,1.52,1.47,7.29,7.31,12.31.1"/>
        </g>
      </g>
    </g>
  </g>
</svg>
