<svg id="Layer_1" data-name="Layer 1" xmlns="http://www.w3.org/2000/svg" width="280" height="405" viewBox="0 0 280 405">
  <defs>
    <style>
      .cls-1 {
        opacity: 0.3;
      }

      .cls-2, .cls-3 {
        fill: #e4e7ea;
      }

      .cls-10, .cls-2 {
        stroke: #5e646b;
      }

      .cls-10, .cls-12, .cls-13, .cls-14, .cls-17, .cls-2, .cls-22, .cls-6 {
        stroke-miterlimit: 10;
      }

      .cls-4 {
        fill: #5e646b;
      }

      .cls-5 {
        fill: #8e8e8e;
      }

      .cls-6, .cls-9 {
        fill: #ed8843;
      }

      .cls-12, .cls-6 {
        stroke: #663b14;
      }

      .cls-7 {
        fill: #eaa968;
      }

      .cls-8 {
        fill: #663b14;
      }

      .cls-10 {
        fill: #bac4cc;
      }

      .cls-11 {
        fill: #aab6c1;
      }

      .cls-12, .cls-23 {
        fill: #f48f42;
      }

      .cls-13 {
        fill: #efea37;
      }

      .cls-13, .cls-22 {
        stroke: #8e8e8e;
      }

      .cls-14, .cls-16 {
        fill: #fff;
      }

      .cls-14 {
        stroke: #5b5a5b;
      }

      .cls-15 {
        fill: #56290b;
      }

      .cls-17 {
        fill: #333;
        stroke: #3d3d3d;
      }

      .cls-18 {
        fill: #60170e;
        stroke: #190906;
        stroke-linejoin: round;
      }

      .cls-19 {
        fill: #b74277;
      }

      .cls-20 {
        fill: #727272;
      }

      .cls-21 {
        fill: #543a2d;
      }

      .cls-22 {
        fill: #d7afdd;
      }
    </style>
  </defs>
  <g>
    <ellipse class="cls-1" cx="135.72" cy="387.88" rx="130.82" ry="10.49"/>
    <g>
      <g>
        <g>
          <path class="cls-2" d="M225.58,251.12s8.73,6.71,16.92,9.25c1.93,3,2.47,6.22,8.19,3.82a10.91,10.91,0,0,0,5.67-15.43s2.21-4.49-.12-6.28c-8.2-3.82-10.4-7.72-11.49-7.59s-13.57,3.18-16,6.29"/>
          <g>
            <path class="cls-2" d="M245,254s-5.32,3-1.88,5.58,12.25,2.28,14.32-3.08"/>
            <path class="cls-2" d="M241.82,247.88s-3,1.55-.22,5.61c1.73,2.57,6.22,4.78,8.19,3.82,2.14-1,6.83-6.5,7.33-10.76"/>
            <g>
              <path class="cls-3" d="M238.52,241.42s.83,9.69,4.27,10.52c9.39,2.26,5.49-16.81,2-17.05"/>
              <path class="cls-4" d="M238.57,241.41c.57,3.36,1,7.19,3.39,9.73a2.85,2.85,0,0,0,1.79.61c3.08.4,4.3-2.76,4.35-5.34a21.14,21.14,0,0,0-1.93-10.1,2.51,2.51,0,0,0-1.42-1.37v-.1c3.35.73,4.69,8.68,4.35,11.64-.18,2.13-.93,4.8-3.16,5.7a4.55,4.55,0,0,1-4.4-.58c-1.58-1.58-2.06-3.86-2.52-5.95a35.49,35.49,0,0,1-.56-4.23Z"/>
            </g>
            <path class="cls-5" d="M235.07,249c1.63.51,3.24-.11,4.75-.68-1.16,1.22-3.37,1.89-4.75.68Z"/>
            <path class="cls-5" d="M251.46,248.75c-.52-1.62-2-2.59-3.28-3.49,1.66.24,3.48,1.67,3.28,3.49Z"/>
          </g>
        </g>
        <g>
          <path class="cls-6" d="M163.72,215s3.79,18.07,17.05,32c2.84,3,39.5,12.67,48.41,4.36,4.45-4.15-.07-11.41-.07-11.41s-20.7-2.81-25.52-9.51C197.48,222,198,214.76,198,214.76"/>
          <g>
            <path class="cls-7" d="M203.41,230.52a27.15,27.15,0,0,1,2.53,5.89"/>
            <path class="cls-8" d="M203.41,230.52a7.48,7.48,0,0,1,2.53,5.89,16.92,16.92,0,0,1-2.53-5.89Z"/>
          </g>
        </g>
      </g>
      <g>
        <g>
          <path class="cls-2" d="M92.65,304.56s-14.2-.93-17,2.92c-2.5,4.33-6.5,21.88-17.55,32.25-8.17,7.66,5.44,19.08,12.81,17.91,6.63-1.05,11.29-3.15,13.49-12.11s2.43-27.59,2.43-27.59l8.26-2.21S102.31,302.57,92.65,304.56Z"/>
          <g>
            <path class="cls-3" d="M80.66,312.86s1.76,5.79,7.69,4.62"/>
            <path class="cls-4" d="M80.71,312.84a7.62,7.62,0,0,0,3.1,3.53,14.63,14.63,0,0,0,4.53,1.06l0,.1a4.53,4.53,0,0,1-5-.48,7.33,7.33,0,0,1-2.77-4.18l.09,0Z"/>
          </g>
          <path class="cls-5" d="M71.86,337.73c-1.7,5.79-4.58,14.38-11.07,16.08,6.29-2,8.71-10.53,10.09-16.29l1,.21Z"/>
          <path class="cls-5" d="M80.59,341.33c-1.7,5.8-4.58,14.38-11.07,16.08,6.3-2,8.71-10.53,10.1-16.29l1,.21Z"/>
        </g>
        <g>
          <g>
            <path class="cls-9" d="M119.61,245.88A147.53,147.53,0,0,0,116,297.67s-5.13-3.72-29,6c0,0-2.67,11.76,2.69,14.08s32.71,6.15,44.23,1.6c18.26-8.74,18.25-27.3,38.52-42.81"/>
            <path class="cls-8" d="M119.61,245.88a151.42,151.42,0,0,0-3.16,51.75l.08.78a5.67,5.67,0,0,0-2.35-.86,21.11,21.11,0,0,0-5.5.09c-7.41,1-14.51,3.68-21.44,6.43l.28-.34c-.65,3.54-1.11,7.42.1,10.86.8,2.54,3.25,3.1,5.57,3.64a96.15,96.15,0,0,0,11,1.86c9.77.93,20.12,1.94,29.58-1.18,13.7-6.09,18.76-21.65,28.11-32.42a64.5,64.5,0,0,1,10.57-10,64.3,64.3,0,0,0-10.35,10.18c-9.18,11.07-14.06,26.67-28,33-4.79,1.8-9.93,2.08-15,2.19A125.78,125.78,0,0,1,96.67,320c-3.54-.83-8.62-.93-10-5-1.28-3.69-.8-7.67-.1-11.42l.05-.24.23-.09c7-2.75,14.18-5.38,21.69-6.41a22.59,22.59,0,0,1,5.75-.07,6,6,0,0,1,2,.63l-.65.38a146,146,0,0,1,4-51.84Z"/>
          </g>
          <g>
            <path class="cls-7" d="M118.39,307.86s-3-5.56-2.14-11.31"/>
            <path class="cls-8" d="M118.39,307.86a12.92,12.92,0,0,1-2.14-11.31,51,51,0,0,0,2.14,11.31Z"/>
          </g>
        </g>
      </g>
      <path class="cls-10" d="M122.24,242.93s-5.93.43-4.22-8.25-4-3.56-6.66,1.39-3.84-4.46-3.84-4.46-7.16-1-4.38,11.65c0,0-6.47-3.39-5.19,1.16s6.83,7.43,6.83,7.43-7.53,1.25-5.68,2.9,8.74,5,10.71,5.75,9.82-.12,9.82-.12,6.13-8.34,4.43-13.71"/>
      <g>
        <g>
          <path class="cls-2" d="M187.39,341.56c-.5.87-3.49,14.16-1.38,16.52s-11.9,2.65-11.9,2.65-3.5-8,.11-16.32S187.39,341.56,187.39,341.56Z"/>
          <g>
            <path class="cls-3" d="M171.11,351.86s1.16,14.1.95,20.52,9.47,6.95,20.52,4.45c15.9-3.59,61.79-20.7,37.52-29.28C209,340.09,183,355.22,183,355.22"/>
            <path class="cls-4" d="M171.11,351.86c.65,6.42,1.29,12.83,1.47,19.32,0,1.44-.1,3.11,1,4.21,8.59,7.68,40.26-5.55,49.83-10.3,4.69-2.5,19.22-9.88,10.25-15.37A32.59,32.59,0,0,0,220,346.07,58.53,58.53,0,0,0,201,348.4a86.14,86.14,0,0,0-18,6.82,85.27,85.27,0,0,1,17.74-7.77A58.87,58.87,0,0,1,220,345.07c5.59.53,11.8,1.48,16.12,5.37,5.6,6.44-7.72,13.07-12.3,15.54-9.9,4.88-42.17,18.46-51,10.08-1.25-1.29-1.39-3.19-1.25-4.89.15-6.41-.15-12.87-.47-19.31Z"/>
          </g>
          <path class="cls-11" d="M188.68,362.49s28.22-15.08,45-10c12.78,3.86-24.48,20.6-40.38,24.19-11,2.49-21.81,1.84-18.62-3.74C177.12,368.57,188.68,362.49,188.68,362.49Z"/>
          <path class="cls-5" d="M223.21,345.71c4.79.08,14.46,2.24,8,8.23a17.28,17.28,0,0,1-4.48,2.66l-.06-.09c1.32-1.12,2.68-2.15,3.86-3.31,3.69-3.31,1.52-5.12-2.31-6.32a29.08,29.08,0,0,0-5-1.07v-.1Z"/>
          <path class="cls-5" d="M210.67,345.46c4.79.07,14.46,2.23,8,8.22a17.06,17.06,0,0,1-4.49,2.66l0-.09c1.32-1.12,2.68-2.15,3.86-3.31,3.69-3.31,1.52-5.12-2.32-6.32a27.85,27.85,0,0,0-5-1.06v-.1Z"/>
        </g>
        <path class="cls-12" d="M145.88,246.08c2.24-8,18.62,21.42,18.62,21.42a115.45,115.45,0,0,1,25.27,39.67c6.62,17.4-4.25,43.71-4.25,43.71s-15.65,7.19-15.65-.88c0-9.45-6.32-23.23-14.63-34.91-5.55-7.8-21.13-18.76-30.86-25.18a30.26,30.26,0,0,1-13.86-25.51c.17-10.91,6.31-23.4,30.18-29.72h0l9,6.69"/>
      </g>
      <g>
        <path class="cls-12" d="M178.37,195.23s-37.26,12.8-58.79,50.34c-5.5,9.61,8.73,31.59,37.55,31.54,0,0,4.91,1.7,14-1.59,3.45-1.26,6.54-18.58,17.57-37.95,9.36-16.43,3.42-31.12,3.42-31.12"/>
        <ellipse class="cls-13" cx="178.33" cy="241.28" rx="15.52" ry="6.26" transform="translate(-114.26 307.68) rotate(-66.32)"/>
        <g>
          <path class="cls-12" d="M196,219.43s4.11-1.76,5.34-4.36-1.92-6.84-11.61-17.57c-8.58-9.49-11.18-3.91-11.58-3.49a5.44,5.44,0,0,0-1,3"/>
          <path class="cls-12" d="M185.17,198.33s-9-8.32,0-11.32c8.09-2.7,24.54,19.53,24,22.6s-3.89,5.13-10,2.43"/>
        </g>
      </g>
      <g>
        <path class="cls-2" d="M257.85,135.9s16.24-44.57,15.82-71.26c-.27-16.76-16.44-53.79-35.33-51.2-17,2.32-3.35,56.41-1.76,62.22s3.45,34.65,11.83,44.09"/>
        <g>
          <path class="cls-2" d="M240.3,95.61s-.12,6.43-13,6.19-25.15,2-39.08,25c-7.41,12.24-6.39,10.77-6.39,10.77s-14.16,3.2-13.73,19.79,26.69,41.34,26.69,41.34,4.19,10.63,12.63,13.1c8.12,2.38,11.4-.77,14.67-3.93,0,0,28.39-2.56,37.15-14.4,7.2-9.74,5.26-17-.76-25.51,0,0,12.39-27.23,6-41.46s-14.31-15.36-14.7-21.06.12-6.44.12-6.44l-3.56,5.13s.5-7.25,2.15-9.36-5,4.11-6.33,7.55C242.15,102.32,241.2,100.57,240.3,95.61Z"/>
          <g>
            <g>
              <path class="cls-3" d="M257.86,165.07s14.75,1.75,16.5,10a58.2,58.2,0,0,0-8.11-1.68s2.39,6.23,1.31,8.43c0,0-1.31-1-4.89-3.23s-5-8-5-8"/>
              <path class="cls-4" d="M257.86,165.07c6.61.81,15.64,3,17.12,10.61a63.27,63.27,0,0,0-8.77-1.83l.49-.66a25.65,25.65,0,0,1,1.55,6.44,4.94,4.94,0,0,1-.52,2.83c-1.59-1.23-3.46-2.48-5.17-3.59a10.47,10.47,0,0,1-3.64-4.6,18.26,18.26,0,0,1-1.22-3.68c1,3,2.47,6,5.18,7.75,1.63,1,3.39,2,4.94,3.12l-.64.15a4.13,4.13,0,0,0,.2-1.92,26.53,26.53,0,0,0-1.86-6.86l.76,0a49.58,49.58,0,0,1,8.2,1.72l-.56.54c-1.75-6.57-10.15-8.77-16.06-10.07Z"/>
            </g>
            <g>
              <path class="cls-3" d="M190.4,137S177,126.59,169,131.89a66.79,66.79,0,0,1,7.95,5.14s-6.94,3.16-7.82,5.81c0,0,1.88.22,6.57,1.3s10.44-2.53,10.44-2.53"/>
              <path class="cls-4" d="M190.4,137c-5.8-3.71-14.52-8.69-21.18-4.72l0-.78a55.9,55.9,0,0,1,8.05,5.17l.58.49a39,39,0,0,0-5,2.65c-1.23.84-2.75,1.81-3.33,3.17l-.35-.55c1.49.22,2.92.55,4.36.88a18.51,18.51,0,0,0,4.27.76,18.83,18.83,0,0,0,8.33-2.45,20.93,20.93,0,0,1-4,2,11.87,11.87,0,0,1-6.63.82c-2.27-.47-4.75-1-7-1.24a5.52,5.52,0,0,1,1.8-2.62,28.86,28.86,0,0,1,6.41-4l-.11.8a70.76,70.76,0,0,0-8.53-5.48c7.17-4.91,16.38.55,22.32,5.08Z"/>
            </g>
          </g>
        </g>
        <g>
          <g>
            <path class="cls-14" d="M207.71,144.12s6.51-17.2,15.43-17.53,16.41,9.22,4.93,27.32"/>
            <circle class="cls-15" cx="221.93" cy="142.36" r="5.8"/>
            <circle class="cls-16" cx="227.27" cy="140.62" r="1.34"/>
          </g>
          <g>
            <path class="cls-3" d="M203,143s10.61,1.93,26.51,11.88"/>
            <path class="cls-4" d="M203,143c9.65,1.58,18.62,6.25,26.51,11.88-8.5-4.4-17.36-9-26.51-11.88Z"/>
          </g>
        </g>
        <g>
          <g>
            <path class="cls-14" d="M237.15,158s2.41-17.56,8.85-20.57,16,3.59,8.81,26.41"/>
            <circle class="cls-15" cx="246.82" cy="153.56" r="5.8"/>
            <circle class="cls-16" cx="252.16" cy="151.01" r="1.34"/>
          </g>
          <g>
            <path class="cls-3" d="M235.91,158.26c5.92.85,20,4.09,22.33,10.07"/>
            <path class="cls-4" d="M235.91,158.26c6.31.48,12.74,2,18.16,5.33a13.55,13.55,0,0,1,2.5,2,7.49,7.49,0,0,1,1.67,2.71,8.15,8.15,0,0,0-2-2.35,12.94,12.94,0,0,0-2.56-1.73c-5.53-2.94-11.71-4.45-17.76-6Z"/>
          </g>
        </g>
        <path class="cls-17" d="M230.7,172s-1.57-8.69-7.1-11.67c0,0,7.12-2.43,16.87,5.42C240.47,165.77,238.15,170.68,230.7,172Z"/>
        <g>
          <g>
            <path class="cls-18" d="M246.83,176.16s-3.62,9.52-11.51,7.21c-10.83-3.17-5.13-10.62-5.13-10.62s-2.05,5.32-7.21,5.7-21.39-4.37-20.08-21.92c0,0-5,29.11,4.25,37.7s16.69,7.24,28.27-3.19C235.42,191,244.74,182.31,246.83,176.16Z"/>
            <path class="cls-19" d="M202.87,184.74s16.37-1.67,19.28,14.47c0,0-8.69,1.57-15-5C205.29,192.3,202.59,186.72,202.87,184.74Z"/>
            <path class="cls-16" d="M235.32,183.37c-7.9-1.14-7-7.06-7-7.06s-1.52,2.2-5.29,2.14a21.64,21.64,0,0,1-8.08-1.65c-1.13,4.75-.69,10.38.27,12.13C223.68,197,233.73,188.78,235.32,183.37Z"/>
            <path class="cls-20" d="M222.62,187.59c1.92-3.83,4.15-7.26,5.65-11.28-.11,4.31-2.64,8.33-5.65,11.28Z"/>
          </g>
          <g>
            <path class="cls-21" d="M197,157.11a9.35,9.35,0,0,1,10.57.5,22.78,22.78,0,0,0-10.57-.5Z"/>
            <path class="cls-21" d="M243.56,173.46a9.35,9.35,0,0,1,6.82,8.08,22.77,22.77,0,0,0-6.82-8.08Z"/>
          </g>
        </g>
        <g>
          <path class="cls-21" d="M215.49,119.15a25.22,25.22,0,0,1,19.41-2l2.69-3.88S220.92,111.32,215.49,119.15Z"/>
          <path class="cls-21" d="M262.45,137.31a24.33,24.33,0,0,0-12.88-13.77l.51-4.55S263.47,128.16,262.45,137.31Z"/>
        </g>
        <g>
          <path class="cls-2" d="M215.66,113S227.32,40.3,211,10.29c-8.78-16.15-25.27-9.5-33.85,25.38-5.88,23.91,11.64,58.08,24.3,79.37"/>
          <path class="cls-22" d="M211.73,110.9s7.42-66.25-4.59-88.33c-6.46-11.89-18.6-7-24.91,18.68-3.9,15.87,8.57,44.87,17.89,61.91,1,1.85,4.79,9.14,11.73,3.75"/>
        </g>
      </g>
      <g>
        <g>
          <path class="cls-2" d="M105.63,207.91l-4,1.78c1.19,1.75,6,8.41,4.51,10.83-1.92,3.18-8.78,10.8-14.48,10-4.73-.66-5.44-5.85-5.44-5.85s-6,5.17-7.75,3.55-2.74-7.79-2.07-9.08S80,216.94,80,216.94s-4.44-10.3-3.05-12.05,13.38-9.5,22.06-11.26"/>
          <g>
            <line class="cls-3" x1="93.15" y1="219.4" x2="82.47" y2="226.94"/>
            <path class="cls-4" d="M93.15,219.4a41.82,41.82,0,0,1-10.68,7.54,41.82,41.82,0,0,1,10.68-7.54Z"/>
          </g>
          <g>
            <line class="cls-3" x1="84.04" y1="215.27" x2="76.57" y2="218.35"/>
            <path class="cls-4" d="M84,215.27a16.07,16.07,0,0,1-7.47,3.08A16.12,16.12,0,0,1,84,215.27Z"/>
          </g>
          <g>
            <line class="cls-3" x1="96.91" y1="219.84" x2="89.62" y2="221.68"/>
            <path class="cls-4" d="M96.91,219.84a14,14,0,0,1-7.29,1.84,14,14,0,0,1,7.29-1.84Z"/>
          </g>
          <g>
            <path class="cls-3" d="M103.43,209.1s-.58,1-2.75.68S97.53,207,97.53,207"/>
            <path class="cls-4" d="M103.43,209.1a1.89,1.89,0,0,1-1.59,1.17A3.79,3.79,0,0,1,97.53,207a5.09,5.09,0,0,0,4.24,2.38,3.09,3.09,0,0,0,1.66-.29Z"/>
          </g>
        </g>
        <g>
          <g>
            <path class="cls-12" d="M107.74,204.82s3.63,3.38-.87,5.44-12-6.83-11.08-14.81c1-9.21,8.34.9,8.34.9"/>
            <g>
              <path class="cls-23" d="M161.17,216.58l-24.79-18.79-28.15,8.86s-9.41-5.62-7.39-14.45c.52-2.29,30.2-16.3,39.38-17.68,5.35-.81,31.37,9.43,36.25,23.79"/>
              <path class="cls-8" d="M161.17,216.58c-8.33-6.18-16.69-12.31-25-18.55l.27.05-14,4.52-14.06,4.47-.2.06c-5-3.08-9.23-8.79-7.82-14.9a2,2,0,0,1,.75-1.08,48.94,48.94,0,0,1,7.18-4.31,213.92,213.92,0,0,1,24.31-10.62,39,39,0,0,1,8.1-2.16,18,18,0,0,1,5,.87,63.23,63.23,0,0,1,23.17,12.69c3.26,3,6.2,6.48,7.62,10.69-1.53-4.17-4.53-7.58-7.84-10.44a64.61,64.61,0,0,0-23.16-12.18,18,18,0,0,0-4.75-.78,38.17,38.17,0,0,0-7.84,2.15,209.39,209.39,0,0,0-24.15,10.67c-2.5,1.41-5.36,2.6-7.42,4.58,0,0,0,.07,0,.12l0,.2c-1.22,5.56,2.75,10.76,7.21,13.63l-.37,0c7-2.2,21.17-6.56,28.2-8.72l.15,0c8.28,6.32,16.48,12.75,24.73,19.12Z"/>
            </g>
          </g>
          <g>
            <path class="cls-7" d="M179.7,195.59s-3.44-2.63-6.52-2.31"/>
            <path class="cls-8" d="M179.7,195.59c-2.3-.75-4.18-1.77-6.52-2.31,2.32-.9,5.09.42,6.52,2.31Z"/>
          </g>
          <g>
            <path class="cls-7" d="M138.17,198.82a27.24,27.24,0,0,1-5-3.65"/>
            <path class="cls-8" d="M138.17,198.82a7.17,7.17,0,0,1-5-3.65,15.45,15.45,0,0,1,5,3.65Z"/>
          </g>
        </g>
      </g>
    </g>
  </g>
</svg>
