<svg id="Layer_1" data-name="Layer 1" xmlns="http://www.w3.org/2000/svg" width="310" height="380" viewBox="0 0 310 380">
  <defs>
    <style>
      .cls-1 {
        opacity: 0.3;
      }

      .cls-2, .cls-3 {
        fill: #e4e7ea;
      }

      .cls-10, .cls-2 {
        stroke: #5e646b;
      }

      .cls-10, .cls-12, .cls-13, .cls-14, .cls-17, .cls-2, .cls-22, .cls-6 {
        stroke-miterlimit: 10;
      }

      .cls-4 {
        fill: #5e646b;
      }

      .cls-5 {
        fill: #8e8e8e;
      }

      .cls-6, .cls-9 {
        fill: #ed8843;
      }

      .cls-12, .cls-6 {
        stroke: #663b14;
      }

      .cls-7 {
        fill: #eaa968;
      }

      .cls-8 {
        fill: #663b14;
      }

      .cls-10 {
        fill: #bac4cc;
      }

      .cls-11 {
        fill: #aab6c1;
      }

      .cls-12, .cls-23 {
        fill: #f48f42;
      }

      .cls-13 {
        fill: #efea37;
      }

      .cls-13, .cls-22 {
        stroke: #8e8e8e;
      }

      .cls-14, .cls-16 {
        fill: #fff;
      }

      .cls-14 {
        stroke: #5b5a5b;
      }

      .cls-15 {
        fill: #56290b;
      }

      .cls-17 {
        fill: #333;
        stroke: #3d3d3d;
      }

      .cls-18 {
        fill: #60170e;
        stroke: #190906;
        stroke-linejoin: round;
      }

      .cls-19 {
        fill: #b74277;
      }

      .cls-20 {
        fill: #727272;
      }

      .cls-21 {
        fill: #543a2d;
      }

      .cls-22 {
        fill: #d7afdd;
      }
    </style>
  </defs>
  <g>
    <ellipse class="cls-1" cx="135.72" cy="365.88" rx="130.82" ry="10.49"/>
    <g>
      <g>
        <g>
          <path class="cls-2" d="M218.71,249.22s8.14,7.42,16.08,10.64c1.68,3.13,1.94,6.41,7.85,4.5a10.92,10.92,0,0,0,7-14.9s2.58-4.28.4-6.27c-7.84-4.49-9.71-8.57-10.8-8.52s-13.79,2-16.44,4.92"/>
          <g>
            <path class="cls-2" d="M237.79,253.74s-5.55,2.5-2.34,5.4,12,3.3,14.53-1.87"/>
            <path class="cls-2" d="M235.17,247.36s-3.09,1.29-.7,5.57c1.52,2.71,5.8,5.29,7.85,4.5,2.22-.85,7.35-5.91,8.21-10.1"/>
            <g>
              <path class="cls-3" d="M232.43,240.64s0,9.73,3.37,10.85c9.16,3,6.88-16.29,3.39-16.82"/>
              <path class="cls-4" d="M232.48,240.64c.26,3,.51,10.37,4.29,10.74a3.38,3.38,0,0,0,3.43-1.22c1.57-2.2,1.58-5.23,1.51-7.87a18.11,18.11,0,0,0-1.23-6.09,2.46,2.46,0,0,0-1.3-1.48l0-.1c3.27,1,3.94,9,3.35,12-.36,2.11-1.33,4.7-3.63,5.41a4.52,4.52,0,0,1-4.33-1c-1.45-1.7-1.72-4-2-6.13a35.8,35.8,0,0,1-.2-4.27Z"/>
            </g>
            <path class="cls-5" d="M228.35,247.87c1.58.65,3.24.17,4.79-.27-1.25,1.11-3.51,1.6-4.79.27Z"/>
            <path class="cls-5" d="M244.71,249c-.38-1.66-1.73-2.75-3-3.76,1.63.39,3.33,2,3,3.76Z"/>
          </g>
        </g>
        <g>
          <path class="cls-6" d="M160.12,208s2.26,18.32,14.29,33.36c2.58,3.22,38.3,16,47.87,8.42,4.79-3.76.89-11.38.89-11.38s-20.38-4.54-24.63-11.62c-5.37-9-4.28-16.1-4.28-16.1"/>
          <g>
            <path class="cls-7" d="M198.36,226.82a27.14,27.14,0,0,1,2,6.09"/>
            <path class="cls-8" d="M198.36,226.82a7.46,7.46,0,0,1,2,6.09,17.1,17.1,0,0,1-2-6.09Z"/>
          </g>
        </g>
      </g>
      <g>
        <g>
          <path class="cls-2" d="M81.19,299.88S67.11,297.81,64,301.41c-2.85,4.12-8.27,21.28-20.13,30.71-8.76,7,3.87,19.46,11.31,18.9,6.7-.51,11.51-2.22,14.44-11s4.66-27.3,4.66-27.3l8.42-1.53S91,298.69,81.19,299.88Z"/>
          <g>
            <path class="cls-3" d="M68.57,307.18s1.27,5.91,7.28,5.23"/>
            <path class="cls-4" d="M68.61,307.17a7.64,7.64,0,0,0,2.81,3.77,14.4,14.4,0,0,0,4.42,1.42l0,.1a4.52,4.52,0,0,1-4.92-.88,7.3,7.3,0,0,1-2.42-4.39l.09,0Z"/>
          </g>
          <path class="cls-5" d="M57.76,331.25c-2.16,5.64-5.73,14-12.34,15.12,6.43-1.45,9.53-9.79,11.39-15.41l.95.29Z"/>
          <path class="cls-5" d="M66.17,335.55c-2.17,5.64-5.74,14-12.34,15.13,6.43-1.46,9.53-9.79,11.39-15.42l1,.29Z"/>
        </g>
        <g>
          <g>
            <path class="cls-9" d="M112.84,243.6a147.67,147.67,0,0,0-7.78,51.33s-4.8-4.13-29.37,3.57c0,0-3.61,11.5,1.53,14.25s32.1,8.8,44,5.2c18.92-7.22,29.75-33,51.21-46.83"/>
            <path class="cls-8" d="M112.84,243.6a151.4,151.4,0,0,0-7.37,51.32l0,.78-.7-.46c-2-1.08-4.78-1-7.06-.95-7.47.43-14.76,2.49-21.9,4.66l.31-.31c-1,3.91-2.67,10.78,1.11,13.55,4.41,2.13,9.45,3.06,14.22,4.12a119.67,119.67,0,0,0,14.81,2.09c4.87.34,10.14.44,14.74-.84A44.17,44.17,0,0,0,135.3,308c8.39-8.06,15.24-17.62,23.55-25.79a80.5,80.5,0,0,1,13.53-11,80.85,80.85,0,0,0-13.32,11.24c-8.16,8.34-14.92,17.92-23.27,26.11-4.19,4-8.93,7.74-14.46,9.88-4.93,1.4-10.07,1.26-15.11,1a122.92,122.92,0,0,1-14.93-2.06c-5-1.1-10-1.95-14.56-4.22-4.35-3.11-2.61-10.3-1.49-14.67l.07-.24.24-.07c7.12-2.08,23.14-6.94,29.78-3.44l-.68.33a146.26,146.26,0,0,1,8.19-51.34Z"/>
          </g>
          <g>
            <path class="cls-7" d="M106.58,305.27s-2.52-5.78-1.22-11.44"/>
            <path class="cls-8" d="M106.58,305.27a12.91,12.91,0,0,1-1.22-11.44,50.22,50.22,0,0,0,1.22,11.44Z"/>
          </g>
        </g>
      </g>
      <path class="cls-10" d="M121.24,237.93s-5.93.43-4.22-8.25-4-3.56-6.66,1.39-3.84-4.46-3.84-4.46-7.16-1-4.38,11.65c0,0-6.47-3.39-5.19,1.16s6.83,7.43,6.83,7.43-7.53,1.25-5.68,2.9,8.74,5,10.71,5.75,9.82-.12,9.82-.12,6.13-8.34,4.43-13.71"/>
      <g>
        <g>
          <path class="cls-2" d="M194,330.47c-.43.9-2.43,14.37-.16,16.57s-11.67,3.53-11.67,3.53-4.07-7.73-1.09-16.29S194,330.47,194,330.47Z"/>
          <g>
            <path class="cls-3" d="M178.49,341.94s2.2,14,2.45,20.4,10,6.22,20.8,2.92c15.59-4.75,60.09-25.2,35.26-32-21.6-5.89-46.38,11.12-46.38,11.12"/>
            <path class="cls-4" d="M178.49,341.94c1.29,7.1,2.43,14.25,3.12,21.46,1.68,5.18,10.45,3.54,14.63,2.77,12.07-2.63,39.07-14.14,46.41-23.84,5.75-8.2-10.77-9.86-15.85-9.77-12.82.42-25.21,5.38-36.18,11.85,10.66-7.24,23.1-12.59,36.16-12.85,6.14-.08,22.93,1.86,16.69,11.33-2.95,4-7.22,6.67-11.34,9.24a148.52,148.52,0,0,1-17.32,8.73c-8.9,3.61-18.27,7.78-28.14,7-3.91-.5-6.47-2.42-6.29-6.71-.32-6.41-1.1-12.83-1.89-19.22Z"/>
          </g>
          <path class="cls-11" d="M196.79,351.24s27-17.12,44.1-13.31c13,2.9-22.89,22.34-38.48,27.1-10.84,3.3-21.63,3.44-18.85-2.36C185.72,358.16,196.79,351.24,196.79,351.24Z"/>
          <path class="cls-5" d="M230,332c4.79-.28,14.59,1.16,8.57,7.61a17.15,17.15,0,0,1-4.28,3l-.06-.08c1.23-1.22,2.51-2.34,3.61-3.59,3.43-3.57,1.13-5.22-2.78-6.13a28.53,28.53,0,0,0-5.06-.69V332Z"/>
          <path class="cls-5" d="M217.47,332.63c4.78-.28,14.59,1.17,8.56,7.62a17.15,17.15,0,0,1-4.28,3l-.05-.08c1.23-1.22,2.51-2.34,3.6-3.59,3.43-3.57,1.14-5.22-2.78-6.13a28.43,28.43,0,0,0-5.05-.7v-.1Z"/>
        </g>
        <path class="cls-12" d="M145.53,238.3C147.18,230.21,150,260,150,260s32.6,11.93,43.83,36c7.89,16.87-1,43.9-1,43.9s-15.08,8.33-15.67.28c-.69-9.42-8-22.7-17.16-33.73-6.11-7.37-22.46-17.16-32.64-22.84a30.29,30.29,0,0,1-15.7-24.42c-.63-10.89,4.57-23.8,27.91-31.86h0l9.5,6"/>
      </g>
      <g>
        <path class="cls-12" d="M177.37,190.23s-37.26,12.8-58.79,50.34c-5.5,9.61,8.73,31.59,37.55,31.54,0,0,4.91,1.7,14-1.59,3.45-1.26,6.54-18.58,17.57-37.95,9.36-16.43,3.42-31.12,3.42-31.12"/>
        <ellipse class="cls-13" cx="177.33" cy="236.28" rx="15.52" ry="6.26" transform="translate(-110.28 303.78) rotate(-66.32)"/>
        <g>
          <path class="cls-12" d="M195,214.43s4.11-1.76,5.34-4.36-1.92-6.84-11.61-17.57c-8.58-9.49-11.18-3.91-11.58-3.49a5.44,5.44,0,0,0-1,3"/>
          <path class="cls-12" d="M184.17,193.33s-9-8.32,0-11.32c8.09-2.7,24.54,19.53,24,22.6s-3.89,5.13-10,2.43"/>
        </g>
      </g>
      <g>
        <path class="cls-2" d="M258.09,136.87s31.28-35.66,40.54-60.69c5.82-15.72,4.15-56.1-14.4-60.52C267.59,11.69,260.68,67,260.07,73s-9.33,33.55-4.94,45.39"/>
        <g>
          <path class="cls-2" d="M239.3,90.61s-.12,6.43-13,6.19-25.15,2-39.08,25c-7.41,12.24-6.39,10.77-6.39,10.77s-14.16,3.2-13.73,19.79,26.69,41.34,26.69,41.34,4.19,10.63,12.63,13.1c8.12,2.38,11.4-.77,14.67-3.93,0,0,28.39-2.56,37.15-14.4,7.2-9.74,5.26-17-.76-25.51,0,0,12.39-27.23,6-41.46s-14.31-15.36-14.7-21.06.12-6.44.12-6.44l-3.56,5.13s.5-7.25,2.15-9.36-5,4.11-6.33,7.55C241.15,97.32,240.2,95.57,239.3,90.61Z"/>
          <g>
            <g>
              <path class="cls-3" d="M256.86,160.07s14.75,1.75,16.5,10a58.2,58.2,0,0,0-8.11-1.68s2.39,6.23,1.31,8.43c0,0-1.31-1-4.89-3.23s-5-8-5-8"/>
              <path class="cls-4" d="M256.86,160.07c6.61.81,15.64,3,17.12,10.61a63.27,63.27,0,0,0-8.77-1.83l.49-.66a25.65,25.65,0,0,1,1.55,6.44,4.94,4.94,0,0,1-.52,2.83c-1.59-1.23-3.46-2.48-5.17-3.59a10.47,10.47,0,0,1-3.64-4.6,18.26,18.26,0,0,1-1.22-3.68c1,3,2.47,6,5.18,7.75,1.63,1,3.39,2,4.94,3.12l-.64.15a4.13,4.13,0,0,0,.2-1.92,26.53,26.53,0,0,0-1.86-6.86l.76,0a49.58,49.58,0,0,1,8.2,1.72l-.56.54c-1.75-6.57-10.15-8.77-16.06-10.07Z"/>
            </g>
            <g>
              <path class="cls-3" d="M189.4,132S176,121.59,168,126.89a66.79,66.79,0,0,1,7.95,5.14s-6.94,3.16-7.82,5.81c0,0,1.88.22,6.57,1.3s10.44-2.53,10.44-2.53"/>
              <path class="cls-4" d="M189.4,132c-5.8-3.71-14.52-8.69-21.18-4.72l0-.78a55.9,55.9,0,0,1,8.05,5.17l.58.49a39,39,0,0,0-5,2.65c-1.23.84-2.75,1.81-3.33,3.17l-.35-.55c1.49.22,2.92.55,4.36.88a18.51,18.51,0,0,0,4.27.76,18.83,18.83,0,0,0,8.33-2.45,20.93,20.93,0,0,1-4,2,11.87,11.87,0,0,1-6.63.82c-2.27-.47-4.75-1-7-1.24a5.52,5.52,0,0,1,1.8-2.62,28.86,28.86,0,0,1,6.41-4l-.11.8a70.76,70.76,0,0,0-8.53-5.48c7.17-4.91,16.38.55,22.32,5.08Z"/>
            </g>
          </g>
        </g>
        <g>
          <g>
            <path class="cls-14" d="M206.71,139.12s6.51-17.2,15.43-17.53,16.41,9.22,4.93,27.32"/>
            <circle class="cls-15" cx="220.93" cy="137.36" r="5.8"/>
            <circle class="cls-16" cx="226.27" cy="135.62" r="1.34"/>
          </g>
          <g>
            <path class="cls-3" d="M202,138s10.61,1.93,26.51,11.88"/>
            <path class="cls-4" d="M202,138c9.65,1.58,18.62,6.25,26.51,11.88-8.5-4.4-17.36-9-26.51-11.88Z"/>
          </g>
        </g>
        <g>
          <g>
            <path class="cls-14" d="M236.15,153s2.41-17.56,8.85-20.57,16,3.59,8.81,26.41"/>
            <circle class="cls-15" cx="245.82" cy="148.56" r="5.8"/>
            <circle class="cls-16" cx="251.16" cy="146.01" r="1.34"/>
          </g>
          <g>
            <path class="cls-3" d="M234.91,153.26c5.92.85,20,4.09,22.33,10.07"/>
            <path class="cls-4" d="M234.91,153.26c6.31.48,12.74,2,18.16,5.33a13.55,13.55,0,0,1,2.5,2,7.49,7.49,0,0,1,1.67,2.71,8.15,8.15,0,0,0-2-2.35,12.94,12.94,0,0,0-2.56-1.73c-5.53-2.94-11.71-4.45-17.76-6Z"/>
          </g>
        </g>
        <path class="cls-17" d="M229.7,167s-1.57-8.69-7.1-11.67c0,0,7.12-2.43,16.87,5.42C239.47,160.77,237.15,165.68,229.7,167Z"/>
        <g>
          <g>
            <path class="cls-18" d="M245.83,171.16s-3.62,9.52-11.51,7.21c-10.83-3.17-5.13-10.62-5.13-10.62s-2.05,5.32-7.21,5.7-21.39-4.37-20.08-21.92c0,0-5,29.11,4.25,37.7s16.69,7.24,28.27-3.19C234.42,186,243.74,177.31,245.83,171.16Z"/>
            <path class="cls-19" d="M201.87,179.74s16.37-1.67,19.28,14.47c0,0-8.69,1.57-15-5C204.29,187.3,201.59,181.72,201.87,179.74Z"/>
            <path class="cls-16" d="M234.32,178.37c-7.9-1.14-7-7.06-7-7.06s-1.52,2.2-5.29,2.14a21.64,21.64,0,0,1-8.08-1.65c-1.13,4.75-.69,10.38.27,12.13C222.68,192,232.73,183.78,234.32,178.37Z"/>
            <path class="cls-20" d="M221.62,182.59c1.92-3.83,4.15-7.26,5.65-11.28-.11,4.31-2.64,8.33-5.65,11.28Z"/>
          </g>
          <g>
            <path class="cls-21" d="M196,152.11a9.35,9.35,0,0,1,10.57.5,22.78,22.78,0,0,0-10.57-.5Z"/>
            <path class="cls-21" d="M242.56,168.46a9.35,9.35,0,0,1,6.82,8.08,22.77,22.77,0,0,0-6.82-8.08Z"/>
          </g>
        </g>
        <g>
          <path class="cls-21" d="M214.49,114.15a25.22,25.22,0,0,1,19.41-2l2.69-3.88S219.92,106.32,214.49,114.15Z"/>
          <path class="cls-21" d="M261.45,132.31a24.33,24.33,0,0,0-12.88-13.77l.51-4.55S262.47,123.16,261.45,132.31Z"/>
        </g>
        <g>
          <path class="cls-2" d="M219.8,110.21S273,59.34,278.19,25.58C281,7.4,263.8,2.73,235.88,25.33c-19.14,15.48-25.84,53.3-28.62,77.91"/>
          <path class="cls-22" d="M217.94,106.15s46-48.29,49.75-73.13c2-13.38-10.59-16.82-31.14-.19-12.7,10.28-20.3,40.93-23.18,60.13-.31,2.09-1.71,10.18,7.07,10.08"/>
        </g>
      </g>
      <g>
        <g>
          <path class="cls-2" d="M116.61,235.76l-3.13,3.33c1.82,1.27,9,6,8.53,9-.56,3.89-4.05,14.05-9.75,15.46-4.74,1.16-7.44-3.7-7.44-3.7s-3.7,7.44-5.94,6.49-5.66-6.65-5.53-8.18,2.59-3.6,2.59-3.6-8.25-8.48-7.63-10.74,8.92-14.53,16.43-19.61"/>
          <g>
            <line class="cls-3" x1="109.33" y1="251.93" x2="102.2" y2="263.48"/>
            <path class="cls-4" d="M109.33,251.93a45,45,0,0,1-7.13,11.55,45.07,45.07,0,0,1,7.13-11.55Z"/>
          </g>
          <g>
            <line class="cls-3" x1="99.1" y1="251.33" x2="93.24" y2="257.25"/>
            <path class="cls-4" d="M99.1,251.33a17,17,0,0,1-5.86,5.92,17.2,17.2,0,0,1,5.86-5.92Z"/>
          </g>
          <g>
            <line class="cls-3" x1="113.06" y1="250.91" x2="106.89" y2="255.54"/>
            <path class="cls-4" d="M113.06,250.91a14.71,14.71,0,0,1-6.17,4.63,14.71,14.71,0,0,1,6.17-4.63Z"/>
          </g>
          <g>
            <path class="cls-3" d="M115,237.79s-.17,1.2-2.34,1.73S108.6,238,108.6,238"/>
            <path class="cls-4" d="M115,237.79c0,1.53-1.74,2.3-3.08,2.3A4.15,4.15,0,0,1,108.6,238c1.67,1,3.21,1.51,5,.76a3.06,3.06,0,0,0,1.46-1Z"/>
          </g>
        </g>
        <g>
          <g>
            <path class="cls-12" d="M117.39,231.9s4.77,1.95,1.32,5.72-14-2.17-16.3-10.41c-2.66-9.49,8.24-2.3,8.24-2.3"/>
            <g>
              <path class="cls-23" d="M172.55,223,141.71,214l-23.13,19.57s-11.11-1.94-12.68-11.45c-.4-2.47,22.15-27.72,30.29-32.61,4.74-2.85,33.37-2.72,43.64,9.61"/>
              <path class="cls-8" d="M172.55,223c-9.84-2.94-21.89-5.88-30.64-8.84L130.4,224l-11.54,9.82-.16.14c-6.14-1.18-12.72-5.56-13.25-12.26,1.12-2.89,3.37-5.16,5.2-7.57,2.93-3.53,6-6.94,9.12-10.27,4.76-5,9.51-10,15.07-14.06,1.86-1.49,4.36-1.81,6.65-2a63.11,63.11,0,0,1,27.07,3.69,27.46,27.46,0,0,1,11.27,7.58c-3-3.47-7.15-5.7-11.39-7.27a64.35,64.35,0,0,0-26.87-3.22,16.93,16.93,0,0,0-4.85,1.09,40.19,40.19,0,0,0-6.61,5.21,212,212,0,0,0-18.69,19.92,43.28,43.28,0,0,0-4.92,6.81c-.08.22-.16.34-.08.56,1,6,6.64,9.72,12.23,10.91l-.36.1c5.77-4.87,17.43-14.62,23.23-19.46l.12-.1c10.32,3.07,20.61,6.26,30.91,9.4Z"/>
            </g>
          </g>
          <g>
            <path class="cls-7" d="M181.81,195.14s-4.29-1.28-7.07.22"/>
            <path class="cls-8" d="M181.81,195.14c-2.47.1-4.65-.19-7.07.22,1.86-1.75,5-1.49,7.07-.22Z"/>
          </g>
          <g>
            <path class="cls-7" d="M143.81,214.28a27.2,27.2,0,0,1-6.19-1.68"/>
            <path class="cls-8" d="M143.81,214.28a7.5,7.5,0,0,1-6.19-1.68,16.82,16.82,0,0,1,6.19,1.68Z"/>
          </g>
        </g>
      </g>
    </g>
  </g>
</svg>
