<svg id="Layer_1" data-name="Layer 1" xmlns="http://www.w3.org/2000/svg" width="280" height="380" viewBox="0 0 280 380">
  <defs>
    <style>
      .cls-1 {
        opacity: 0.3;
      }

      .cls-2 {
        fill: #bac4cc;
      }

      .cls-2, .cls-3 {
        stroke: #5e646b;
      }

      .cls-12, .cls-13, .cls-14, .cls-17, .cls-2, .cls-22, .cls-3, .cls-8 {
        stroke-miterlimit: 10;
      }

      .cls-3, .cls-4 {
        fill: #e4e7ea;
      }

      .cls-5 {
        fill: #5e646b;
      }

      .cls-6 {
        fill: #aab6c1;
      }

      .cls-7 {
        fill: #8e8e8e;
      }

      .cls-8 {
        fill: #ed8843;
      }

      .cls-12, .cls-8 {
        stroke: #663b14;
      }

      .cls-9 {
        fill: #eaa968;
      }

      .cls-10 {
        fill: #663b14;
      }

      .cls-11, .cls-12 {
        fill: #f48f42;
      }

      .cls-13 {
        fill: #efea37;
      }

      .cls-13, .cls-22 {
        stroke: #8e8e8e;
      }

      .cls-14, .cls-16 {
        fill: #fff;
      }

      .cls-14 {
        stroke: #5b5a5b;
      }

      .cls-15 {
        fill: #56290b;
      }

      .cls-17 {
        fill: #333;
        stroke: #3d3d3d;
      }

      .cls-18 {
        fill: #60170e;
        stroke: #190906;
        stroke-linejoin: round;
      }

      .cls-19 {
        fill: #b74277;
      }

      .cls-20 {
        fill: #727272;
      }

      .cls-21 {
        fill: #543a2d;
      }

      .cls-22 {
        fill: #d7afdd;
      }
    </style>
  </defs>
  <g>
    <ellipse class="cls-1" cx="136.08" cy="360.71" rx="130.82" ry="10.49"/>
    <g>
      <path class="cls-2" d="M122.61,249.76s-5.93.43-4.22-8.25-4-3.55-6.66,1.39-3.84-4.46-3.84-4.46-7.16-1-4.38,11.66c0,0-6.47-3.39-5.19,1.15s6.83,7.43,6.83,7.43-7.53,1.25-5.68,2.9,8.74,5,10.7,5.75,9.82-.12,9.82-.12,6.14-8.34,4.44-13.71"/>
      <g>
        <g>
          <path class="cls-3" d="M213.56,322c0,1,4,14,7,15s-9,8.21-9,8.21-7-5.21-8-14.22S213.56,322,213.56,322Z"/>
          <g>
            <path class="cls-4" d="M204.55,339s8,11.66,11,17.34,11.68,1.33,20-6.33c12-11,43.34-48.65,18-44-22,4-37.05,30-37.05,30"/>
            <path class="cls-5" d="M204.55,339c3.75,5.25,7.49,10.5,10.87,16,.67,1.27,1.46,2.75,3,3.16,11.28,2.4,32.19-24.81,38.13-33.69,2.83-4.5,11.77-18.12,1.26-18.43a32.55,32.55,0,0,0-13.68,3.62,58.57,58.57,0,0,0-15.28,11.43A86.13,86.13,0,0,0,216.56,336a85.64,85.64,0,0,1,11.54-15.55,59.12,59.12,0,0,1,15.54-11.64c5.12-2.31,11-4.57,16.66-3.35,8.06,2.82-.21,15.19-3,19.61-6.16,9.15-27.42,37-39.28,34.09a6.15,6.15,0,0,1-3.51-3.62c-3.06-5.65-6.53-11.1-10-16.53Z"/>
          </g>
          <path class="cls-6" d="M225.07,339.51s17-27.11,34-31c13-3-11,30-23,41-8.35,7.65-18,12.44-18,6C218.07,350.52,225.07,339.51,225.07,339.51Z"/>
          <path class="cls-7" d="M246.71,307.8c4.2-2.32,13.67-5.25,11,3.17a16.8,16.8,0,0,1-2.57,4.54l-.08-.05c.58-1.63,1.25-3.2,1.7-4.79,1.56-4.71-1.23-5.2-5.15-4.34a27.79,27.79,0,0,0-4.86,1.56l0-.09Z"/>
          <path class="cls-7" d="M235.7,313.8c4.2-2.31,13.67-5.24,11,3.18a17.29,17.29,0,0,1-2.57,4.53l-.09-.05c.59-1.63,1.26-3.19,1.71-4.79,1.55-4.7-1.23-5.2-5.15-4.33a29,29,0,0,0-4.87,1.55l0-.09Z"/>
        </g>
        <path class="cls-8" d="M123.45,308s36.05,1,49.06,7,25.35,14.83,30,23c4,7,14-7,14-7s-3.62-28.23-18-40.05c-20.5-16.83-55-13.54-55-13.54s-21,.53-19,8.54"/>
      </g>
      <g>
        <g>
          <path class="cls-3" d="M109.44,210.86s-11,0-19,3c-3.35-1.18-5.75-3.42-8.83,2a10.91,10.91,0,0,0,4.9,15.69s1,4.91,3.93,4.91c8.82-2,13-.21,13.73-1s8.82-10.79,8.82-14.71"/>
          <g>
            <path class="cls-3" d="M92.3,220.38s2.41-5.6-1.91-5.57S79.28,220.46,80.91,226"/>
            <path class="cls-3" d="M98.53,223.32s1.41-3-3.24-4.59c-2.94-1-7.85,0-8.83,2-1.06,2.13-1.45,9.32.75,13"/>
            <g>
              <path class="cls-4" d="M105.09,226.44s-6.57-7.18-9.8-5.74c-8.83,3.92,5.88,16.67,8.83,14.71"/>
              <path class="cls-5" d="M105.05,226.47c-2.5-2.31-5.18-5.09-8.61-5.64a2.89,2.89,0,0,0-1.8.6c-2.68,1.55-1.72,4.81-.19,6.89a21,21,0,0,0,7.68,6.83,2.51,2.51,0,0,0,2,.22l0,.08a2.58,2.58,0,0,1-2.16.11,15.41,15.41,0,0,1-5.53-3.38c-2.48-2.36-5.61-6.15-3.81-9.75a4.54,4.54,0,0,1,3.83-2.22c2.23.29,4,1.81,5.63,3.18a34.32,34.32,0,0,1,3,3l-.07.07Z"/>
            </g>
            <path class="cls-7" d="M103.22,218.35c-1.6.59-2.51,2.06-3.35,3.43.17-1.67,1.52-3.55,3.35-3.43Z"/>
            <path class="cls-7" d="M90.35,228.5c1.4,1,3.13.87,4.73.78-1.46.81-3.77.79-4.73-.78Z"/>
          </g>
        </g>
        <g>
          <path class="cls-8" d="M180.52,201.85s-14-12-33-15c-4.07-.64-39,14-41,26-1,6,7,9,7,9s18.13-10.38,26-8c10,3,14,9,14,9"/>
          <g>
            <path class="cls-9" d="M139.57,213.69a27.25,27.25,0,0,1-5.6-3.13"/>
            <path class="cls-10" d="M139.57,213.69a7.46,7.46,0,0,1-5.6-3.13,17.07,17.07,0,0,1,5.6,3.13Z"/>
          </g>
        </g>
      </g>
      <g>
        <g>
          <path class="cls-3" d="M69.39,279.94s-11-9-15.52-7.51c-4.55,2.07-18,14-33,16-11.09,1.48-6.68,18.69,0,22,6,3,11,4,18-2s18-21,18-21l8,3S78.4,283.94,69.39,279.94Z"/>
          <g>
            <path class="cls-4" d="M54.82,279.72s-2,5.73,3.56,8.23"/>
            <path class="cls-5" d="M54.86,279.73a7.57,7.57,0,0,0,.47,4.68,14.3,14.3,0,0,0,3.07,3.49l0,.09a4.52,4.52,0,0,1-3.77-3.28,7.36,7.36,0,0,1,.18-5l.09,0Z"/>
          </g>
          <path class="cls-7" d="M33.18,294.83c-4.75,3.72-12.09,9-18.35,6.63,6.31,2.05,13.17-3.48,17.68-7.37l.67.74Z"/>
          <path class="cls-7" d="M38.19,302.84c-4.76,3.72-12.09,9-18.36,6.63,6.31,2,13.17-3.49,17.69-7.37l.67.74Z"/>
        </g>
        <g>
          <g>
            <path class="cls-11" d="M125.46,247.9a147.63,147.63,0,0,0-33,40s-2-6-27-12c0,0-9,8-6,13S85.5,318,99.5,317c27,5,46.5-34.18,72-35"/>
            <path class="cls-10" d="M125.46,247.9a151.7,151.7,0,0,0-32.68,40.25l-.39.68-.36-.75c-1.19-2-3.6-3.3-5.57-4.44-6.64-3.47-13.95-5.44-21.18-7.25l.42-.1c-3.07,3-8.82,8.91-5.3,13.27a93.94,93.94,0,0,0,11.19,11.82c6,5.39,12.54,10.58,20.08,13.69a18.76,18.76,0,0,0,7.91,1.51c6.71,1.31,13.61-.41,19.6-3.54,12.16-6.38,21.69-16.7,33.2-24.11,5.73-3.69,12.2-6.76,19.12-6.93-6.91.27-13.3,3.41-19,7.18-11.41,7.61-20.83,18-33,24.49-6.09,3.24-13.2,5.09-20.09,3.75a19.55,19.55,0,0,1-8.07-1.54C81.17,311.61,72.74,304.1,65,296.37c-2.3-2.57-5-4.93-6.51-8.13-1.2-4.9,3.39-9.5,6.55-12.66l.18-.17.25.07c7.9,2,15.94,4.16,23,8.35,1.64,1.13,3.32,2.13,4.29,4l-.75-.07a146.29,146.29,0,0,1,33.4-39.85Z"/>
          </g>
          <g>
            <path class="cls-9" d="M88.41,297.6s.8-6.25,4.83-10.44"/>
            <path class="cls-10" d="M88.41,297.6a12.9,12.9,0,0,1,4.83-10.44,50.76,50.76,0,0,0-4.83,10.44Z"/>
          </g>
        </g>
      </g>
      <g>
        <path class="cls-12" d="M178.74,202.07S141.48,214.86,120,252.41c-5.51,9.6,8.73,31.58,37.54,31.53,0,0,4.92,1.7,14-1.59,3.45-1.26,6.53-18.58,17.57-38,9.36-16.43,3.42-31.12,3.42-31.12"/>
        <ellipse class="cls-13" cx="178.7" cy="248.11" rx="15.52" ry="6.26" transform="translate(-120.29 312.11) rotate(-66.32)"/>
        <g>
          <path class="cls-12" d="M196.37,226.26s4.11-1.76,5.34-4.36-1.92-6.84-11.61-17.57c-8.58-9.49-11.18-3.91-11.58-3.48a5.39,5.39,0,0,0-1,3"/>
          <path class="cls-12" d="M185.54,205.16s-9-8.32,0-11.32c8.09-2.7,24.53,19.53,24,22.6s-3.89,5.14-10,2.43"/>
        </g>
      </g>
      <g>
        <g>
          <path class="cls-3" d="M239.19,233.62l4.49-.84c-.72-2.09-3.67-10.15-1.59-12.27,2.76-2.81,11.58-8.95,17-6.72,4.51,1.86,3.82,7.38,3.82,7.38s7.37-3.82,8.62-1.72.64,8.7-.37,9.87-4.21,1.36-4.21,1.36,1.64,11.72-.19,13.17S251,250.32,241.92,250"/>
          <g>
            <line class="cls-4" x1="254.61" y1="224.87" x2="267.19" y2="219.76"/>
            <path class="cls-5" d="M254.61,224.87a45.34,45.34,0,0,1,12.58-5.11,44.45,44.45,0,0,1-12.58,5.11Z"/>
          </g>
          <g>
            <line class="cls-4" x1="262.52" y1="231.4" x2="270.74" y2="230.08"/>
            <path class="cls-5" d="M262.52,231.4a17.15,17.15,0,0,1,8.22-1.32,17,17,0,0,1-8.22,1.32Z"/>
          </g>
          <g>
            <line class="cls-4" x1="251" y1="223.49" x2="258.71" y2="223.4"/>
            <path class="cls-5" d="M251,223.49a14.72,14.72,0,0,1,7.71-.09,14.62,14.62,0,0,1-7.71.09Z"/>
          </g>
          <g>
            <path class="cls-4" d="M241.68,232.93s.84-.87,2.91,0,2.37,3.65,2.37,3.65"/>
            <path class="cls-5" d="M241.68,232.93c.86-1.27,2.76-.83,3.84,0a4.17,4.17,0,0,1,1.44,3.67c-.74-1.82-1.7-3.11-3.54-3.54a3.08,3.08,0,0,0-1.74-.09Z"/>
          </g>
        </g>
        <g>
          <g>
            <path class="cls-12" d="M236.28,236.27s-2.7-4.39,2.31-5.39,10,10,7,18c-3.46,9.24-8-3-8-3"/>
            <g>
              <path class="cls-11" d="M186.53,210.86l19.52,25.53,30.23-2.12s7.82,8.13,3.46,16.72c-1.13,2.23-34.24,9.28-43.7,8.42-5.51-.5-28.53-17.52-29.53-33.53"/>
              <path class="cls-10" d="M186.53,210.86c6.2,8.18,14.19,17.67,19.5,25.23,7.53-.58,22.69-1.73,30.22-2.27h.21l.14.15c3.09,3.5,5.31,8,4.86,12.82a12.54,12.54,0,0,1-1.32,4.47,5.21,5.21,0,0,1-2.29,1.33c-6.51,2.28-13.28,3.56-20,4.88s-13.57,2.42-20.47,2.45c-2.38.1-4.59-1.12-6.57-2.29a63,63,0,0,1-19.66-19c-2.43-3.86-4.35-8.2-4.61-12.78a27.22,27.22,0,0,0,4.89,12.59,64.14,64.14,0,0,0,19.78,18.47c1.93,1.09,3.91,2.21,6.19,2.11,6.81-.05,13.58-1.31,20.28-2.51,4.47-.86,8.93-1.81,13.34-2.94,2.78-.81,5.78-1.33,8.27-2.78,3-5.34.56-11.94-3.3-16.24l.35.13c-7.54.52-22.7,1.51-30.24,2h-.16c-6.51-8.58-12.92-17.23-19.38-25.84Z"/>
            </g>
          </g>
          <g>
            <path class="cls-9" d="M162.59,227.88s2.7,3.57,5.83,4"/>
            <path class="cls-10" d="M162.59,227.88c2,1.38,3.64,2.9,5.83,4-2.53.31-4.92-1.75-5.83-4Z"/>
          </g>
          <g>
            <path class="cls-9" d="M204.55,234.89a27.36,27.36,0,0,1,4,5"/>
            <path class="cls-10" d="M204.55,234.89a7.45,7.45,0,0,1,4,5,17,17,0,0,1-4-5Z"/>
          </g>
        </g>
      </g>
      <g>
        <path class="cls-3" d="M266.62,143.78s6-47.06-.29-73c-4-16.29-27.9-48.84-45.76-42.15-16,6,9.18,55.77,12,61.08s11,33,21.27,40.4"/>
        <g>
          <path class="cls-3" d="M240.67,102.44s-.12,6.43-13,6.19-25.14,2-39.07,25c-7.41,12.23-6.39,10.77-6.39,10.77s-14.17,3.2-13.73,19.78,26.69,41.34,26.69,41.34,4.19,10.63,12.62,13.1c8.13,2.38,11.4-.77,14.68-3.93,0,0,28.38-2.56,37.14-14.4,7.21-9.74,5.27-17-.76-25.5,0,0,12.39-27.24,6-41.47s-14.32-15.36-14.7-21.06.12-6.43.12-6.43L246.7,111s.5-7.26,2.15-9.37-5,4.12-6.33,7.56C242.52,109.16,241.57,107.41,240.67,102.44Z"/>
          <g>
            <g>
              <path class="cls-4" d="M258.23,171.9s14.75,1.75,16.5,10a59.67,59.67,0,0,0-8.12-1.68s2.4,6.24,1.32,8.43c0,0-1.32-1-4.9-3.22s-5-8-5-8"/>
              <path class="cls-5" d="M258.23,171.9c6.61.81,15.63,3,17.12,10.61a64.76,64.76,0,0,0-8.77-1.83l.49-.65a25.47,25.47,0,0,1,1.55,6.43,5,5,0,0,1-.52,2.83c-1.59-1.23-3.46-2.48-5.18-3.59a10.4,10.4,0,0,1-3.63-4.6,17.66,17.66,0,0,1-1.22-3.68c1,3,2.47,6.06,5.18,7.75,1.63,1,3.39,2,4.94,3.12l-.64.15a4.11,4.11,0,0,0,.19-1.92,26.51,26.51,0,0,0-1.85-6.86l.76.06a47.62,47.62,0,0,1,8.2,1.72l-.57.53c-1.74-6.57-10.14-8.77-16-10.07Z"/>
            </g>
            <g>
              <path class="cls-4" d="M190.77,143.82s-13.42-10.39-21.44-5.1a68,68,0,0,1,8,5.14s-6.95,3.16-7.83,5.81c0,0,1.89.22,6.57,1.3s10.45-2.52,10.45-2.52"/>
              <path class="cls-5" d="M190.77,143.82c-5.8-3.71-14.52-8.69-21.18-4.72l0-.78a56.77,56.77,0,0,1,8.05,5.17l.57.49a39.6,39.6,0,0,0-5,2.65c-1.23.84-2.75,1.81-3.33,3.17l-.36-.55c1.5.22,2.93.56,4.37.88a18.51,18.51,0,0,0,4.27.76,19,19,0,0,0,8.33-2.44,20.72,20.72,0,0,1-4,2,12,12,0,0,1-6.63.81c-2.26-.47-4.75-1-7-1.24a5.58,5.58,0,0,1,1.79-2.62,29.15,29.15,0,0,1,6.42-4l-.12.81a71.51,71.51,0,0,0-8.52-5.49c7.17-4.91,16.37.55,22.32,5.08Z"/>
            </g>
          </g>
        </g>
        <g>
          <g>
            <path class="cls-14" d="M208.08,151s6.51-17.2,15.43-17.53,16.41,9.22,4.93,27.32"/>
            <circle class="cls-15" cx="222.29" cy="149.19" r="5.8"/>
            <circle class="cls-16" cx="227.63" cy="147.46" r="1.34"/>
          </g>
          <g>
            <path class="cls-4" d="M203.4,149.88s10.61,1.93,26.51,11.88"/>
            <path class="cls-5" d="M203.4,149.88c9.65,1.57,18.62,6.24,26.51,11.88-8.5-4.41-17.37-9-26.51-11.88Z"/>
          </g>
        </g>
        <g>
          <g>
            <path class="cls-14" d="M237.52,164.87s2.41-17.56,8.85-20.57,16,3.6,8.81,26.42"/>
            <circle class="cls-15" cx="247.18" cy="160.4" r="5.8"/>
            <circle class="cls-16" cx="252.52" cy="157.84" r="1.34"/>
          </g>
          <g>
            <path class="cls-4" d="M236.28,165.09c5.92.86,20,4.09,22.33,10.07"/>
            <path class="cls-5" d="M236.28,165.09c6.3.48,12.74,2,18.16,5.33a13.88,13.88,0,0,1,2.5,2,7.49,7.49,0,0,1,1.67,2.71,8.15,8.15,0,0,0-2-2.35,13.39,13.39,0,0,0-2.56-1.73c-5.54-2.94-11.72-4.44-17.76-6Z"/>
          </g>
        </g>
        <path class="cls-17" d="M231.07,178.85s-1.57-8.69-7.1-11.67c0,0,7.12-2.43,16.87,5.42C240.84,172.6,238.52,177.51,231.07,178.85Z"/>
        <g>
          <g>
            <path class="cls-18" d="M247.2,183s-3.62,9.52-11.52,7.21c-10.83-3.17-5.12-10.61-5.12-10.61s-2.06,5.31-7.21,5.69-21.4-4.37-20.08-21.92c0,0-5,29.11,4.25,37.7s16.69,7.24,28.27-3.19C235.79,197.87,245.11,189.14,247.2,183Z"/>
            <path class="cls-19" d="M203.24,191.57S219.6,189.9,222.52,206c0,0-8.69,1.57-15-5C205.66,199.13,203,193.55,203.24,191.57Z"/>
            <path class="cls-16" d="M235.68,190.2c-7.89-1.14-7-7.06-7-7.06s-1.53,2.2-5.29,2.14a21.4,21.4,0,0,1-8.08-1.65c-1.13,4.75-.69,10.38.26,12.13C224,203.84,234.1,195.62,235.68,190.2Z"/>
            <path class="cls-20" d="M223,194.42c1.93-3.83,4.16-7.26,5.66-11.28-.11,4.31-2.64,8.33-5.66,11.28Z"/>
          </g>
          <g>
            <path class="cls-21" d="M197.39,163.94a9.34,9.34,0,0,1,10.56.5,22.86,22.86,0,0,0-10.56-.5Z"/>
            <path class="cls-21" d="M243.93,180.29a9.34,9.34,0,0,1,6.81,8.08,22.83,22.83,0,0,0-6.81-8.08Z"/>
          </g>
        </g>
        <g>
          <path class="cls-21" d="M215.86,126a25.22,25.22,0,0,1,19.41-2l2.69-3.88S221.29,118.16,215.86,126Z"/>
          <path class="cls-21" d="M262.82,144.14a24.33,24.33,0,0,0-12.88-13.77l.51-4.54S263.83,135,262.82,144.14Z"/>
        </g>
        <g>
          <path class="cls-3" d="M222.51,110.58S212,37.7,187.52,13.9c-13.19-12.81-27-1.55-24.77,34.3,1.49,24.57,28.39,52,46.81,68.55"/>
          <path class="cls-22" d="M218.13,109.74s-12.62-65.45-30.65-83c-9.71-9.43-19.84-1.14-18.23,25.25,1,16.31,21.53,40.29,35.49,53.78,1.52,1.47,7.29,7.31,12.31.1"/>
        </g>
      </g>
    </g>
  </g>
</svg>
