<svg id="Layer_1" data-name="Layer 1" xmlns="http://www.w3.org/2000/svg" width="310" height="392" viewBox="0 0 310 392">
  <defs>
    <style>
      .cls-1 {
        opacity: 0.3;
      }

      .cls-2, .cls-3 {
        fill: #e4e7ea;
      }

      .cls-10, .cls-2 {
        stroke: #5e646b;
      }

      .cls-10, .cls-11, .cls-12, .cls-13, .cls-16, .cls-2, .cls-21, .cls-6 {
        stroke-miterlimit: 10;
      }

      .cls-4 {
        fill: #5e646b;
      }

      .cls-5 {
        fill: #8e8e8e;
      }

      .cls-6, .cls-9 {
        fill: #ed8843;
      }

      .cls-11, .cls-6 {
        stroke: #663b14;
      }

      .cls-7 {
        fill: #eaa968;
      }

      .cls-8 {
        fill: #663b14;
      }

      .cls-10 {
        fill: #bac4cc;
      }

      .cls-11, .cls-22 {
        fill: #f48f42;
      }

      .cls-12 {
        fill: #efea37;
      }

      .cls-12, .cls-21 {
        stroke: #8e8e8e;
      }

      .cls-13, .cls-15 {
        fill: #fff;
      }

      .cls-13 {
        stroke: #5b5a5b;
      }

      .cls-14 {
        fill: #56290b;
      }

      .cls-16 {
        fill: #333;
        stroke: #3d3d3d;
      }

      .cls-17 {
        fill: #60170e;
        stroke: #190906;
        stroke-linejoin: round;
      }

      .cls-18 {
        fill: #b74277;
      }

      .cls-19 {
        fill: #727272;
      }

      .cls-20 {
        fill: #543a2d;
      }

      .cls-21 {
        fill: #d7afdd;
      }
    </style>
  </defs>
  <g>
    <ellipse class="cls-1" cx="135.72" cy="377.88" rx="130.82" ry="10.49"/>
    <g>
      <g>
        <g>
          <path class="cls-2" d="M192.32,274.88s3.78,10.35,9.34,16.87c0,3.55-1.24,6.58,4.88,7.62a10.93,10.93,0,0,0,13.05-10s4.26-2.61,3.25-5.37c-4.88-7.62-4.65-12.09-5.64-12.56s-13.17-4.58-16.85-3.23"/>
          <g>
            <path class="cls-2" d="M207.15,287.71s-6.08-.35-4.57,3.71,9.13,8.48,13.74,5.05"/>
            <path class="cls-2" d="M207.77,280.84s-3.33-.28-3.19,4.62c.09,3.1,2.7,7.37,4.88,7.62,2.37.26,9.25-1.85,11.95-5.17"/>
            <g>
              <path class="cls-3" d="M208.44,273.61s-4.48,8.64-2,11.18c6.72,6.94,13.63-11.26,10.78-13.35"/>
              <path class="cls-4" d="M208.49,273.64c-1.32,3.14-3,6.61-2.34,10a2.89,2.89,0,0,0,1.18,1.47c2.38,2,5.11,0,6.53-2.18a21,21,0,0,0,3.78-9.56,2.48,2.48,0,0,0-.47-1.92l.06-.08c2.44,2.45-.68,9.81-2.55,12.16-1.29,1.7-3.36,3.55-5.72,3.12a4.51,4.51,0,0,1-3.4-2.84c-.5-2.18.32-4.37,1.05-6.37a36.8,36.8,0,0,1,1.79-3.88l.09.05Z"/>
            </g>
            <path class="cls-5" d="M201.49,278.15c1.1,1.3,2.79,1.64,4.37,2-1.63.41-3.85-.2-4.37-2Z"/>
            <path class="cls-5" d="M215.45,286.74c.43-1.65-.26-3.24-.9-4.71,1.27,1.09,2,3.27.9,4.71Z"/>
          </g>
        </g>
        <g>
          <path class="cls-6" d="M159.41,211.24s-6.46,17.29-2.74,36.18c.8,4.05,26.59,31.85,38.56,29.6,6-1.13,6.05-9.68,6.05-9.68s-16-13.45-16.47-21.69c-.62-10.44,3.64-16.26,3.64-16.26"/>
          <g>
            <path class="cls-7" d="M184.62,245.62a27.5,27.5,0,0,1-1,6.33"/>
            <path class="cls-8" d="M184.62,245.62a7.49,7.49,0,0,1-1,6.33,16.79,16.79,0,0,1,1-6.33Z"/>
          </g>
        </g>
      </g>
      <g>
        <g>
          <path class="cls-2" d="M110.68,322.44s-13.63,4.09-14.91,8.66c-.83,4.94,1.54,22.78-5.19,36.35-5,10,11.75,16,18.25,12.32,5.85-3.3,9.48-6.89,8.42-16.06S109.9,337,109.9,337l7-5S119,317.21,110.68,322.44Z"/>
          <g>
            <path class="cls-3" d="M102.34,334.4s3.66,4.81,8.82,1.65"/>
            <path class="cls-4" d="M102.38,334.37a7.6,7.6,0,0,0,4.14,2.22,14.29,14.29,0,0,0,4.61-.59l.05.09a4.53,4.53,0,0,1-4.83,1.29,7.39,7.39,0,0,1-4-2.95l.08-.06Z"/>
          </g>
          <path class="cls-5" d="M102.77,360.78c.42,6,.72,15.07-4.76,18.93,5.22-4.09,4.47-12.87,3.77-18.79l1-.14Z"/>
          <path class="cls-5" d="M112.21,361.11c.42,6,.72,15.07-4.77,18.93,5.21-4,4.49-12.91,3.78-18.79l1-.14Z"/>
        </g>
        <g>
          <g>
            <path class="cls-9" d="M115.47,258a147.75,147.75,0,0,0,14.72,49.79s-6.09-1.7-25.07,15.69c0,0,1.6,12,7.43,12.26s32.79-5.65,42-13.93c14.07-14.57,12.93-42.53,26.52-64.14"/>
            <path class="cls-8" d="M115.47,258a151.77,151.77,0,0,0,15.09,49.6l.35.7a5.86,5.86,0,0,0-2.5,0,21.35,21.35,0,0,0-5.12,2c-6.59,3.56-12.31,8.52-17.85,13.5l.14-.4c.62,3.54,1.55,7.33,3.88,10.13,1.64,2.1,4.13,1.78,6.5,1.48,1.23-.15,2.46-.34,3.69-.56a125.26,125.26,0,0,0,21.61-5.94c4.55-1.76,9.36-3.9,13-7a44.38,44.38,0,0,0,8.86-14.75c4.17-10.87,6.32-22.43,10.39-33.35a80.3,80.3,0,0,1,7.57-15.74,80.31,80.31,0,0,0-7.3,15.84c-3.86,11-5.91,22.55-10,33.5-2.08,5.45-4.81,10.8-8.91,15.09-3.87,3.36-8.58,5.41-13.28,7.27a120.94,120.94,0,0,1-14.39,4.47c-4.94,1.1-9.86,2.46-15,2.36-5.23-.94-6.75-8.26-7.57-12.66l0-.24.19-.17c5.56-4.9,18-16.11,25.51-15.74l-.48.58a146,146,0,0,1-14.36-50Z"/>
          </g>
          <g>
            <path class="cls-7" d="M136,316.55s-4.74-4.16-6-9.85"/>
            <path class="cls-8" d="M136,316.55a12.93,12.93,0,0,1-6-9.85,50.29,50.29,0,0,0,6,9.85Z"/>
          </g>
        </g>
      </g>
      <path class="cls-10" d="M121.24,249.93s-5.93.43-4.22-8.25-4-3.56-6.66,1.39-3.84-4.46-3.84-4.46-7.16-1-4.38,11.65c0,0-6.47-3.39-5.19,1.16s6.83,7.43,6.83,7.43-7.53,1.25-5.68,2.9,8.74,5,10.71,5.75,9.82-.12,9.82-.12,6.13-8.34,4.43-13.71"/>
      <g>
        <g>
          <path class="cls-2" d="M172.89,350c-.73.68-7.64,12.41-6.36,15.3s-12.14-1.11-12.14-1.11-.88-8.69,5.1-15.51S172.89,350,172.89,350Z"/>
          <g>
            <path class="cls-3" d="M154.25,354.83s-3.21,13.78-5.38,19.83,6.89,9.51,18.18,10.52c16.23,1.44,64.31.25,44.68-16.4-6.23-5.28-47.16-7.1-47.16-7.1"/>
            <path class="cls-4" d="M154.25,354.83c-1.33,6.27-2.68,12.52-4.47,18.7-.45,1.36-1.1,2.91-.45,4.31,3,5.86,15.46,6.69,21.46,7.09a157.53,157.53,0,0,0,28.64-1.1c4.64-.75,9.46-1.56,13.54-3.94,3-1.74,3.81-4.52,1.64-7.35a12.67,12.67,0,0,0-7.37-5.27c-7.67-2.15-15.65-2.9-23.57-3.73q-9.53-1.14-19.1-1.86c12.81.3,25.65,1,38.26,3.47,3.19.76,6.44,1.25,9.22,3.25,7.45,6.14,6,11.52-3,14.33-10.34,3.77-55.73,7-60.62-4.52-.73-1.63-.18-3.43.44-5,2.08-6,3.76-12.21,5.41-18.39Z"/>
          </g>
          <path class="cls-5" d="M216.53,377.54c-6.58,4.79-18.92,8.65-23.07-1l.08,0c6,8.25,15.63,5.08,23,1.07Z"/>
          <path class="cls-5" d="M212.52,370.55c-6.08,2-13.29,2.08-19-1l0-.1c3.16.56,6.25,1.28,9.44,1.66a33,33,0,0,0,9.56-.56Z"/>
        </g>
        <path class="cls-11" d="M162.6,246.4c4.56-6.87-4,21.81-4,21.81s25.73,23.3,27.13,49.78c1,18.6-17.42,40.31-17.42,40.31s-17.1,2.06-14.63-5.62c2.9-9,1.09-24-3.25-37.71-2.9-9.12-23.59-22.38-30.89-31.47-6.44-8-4.3-20.26-1-30,3.5-10.34,18-20.82,42.65-19.53h0l6.55,9.13"/>
      </g>
      <g>
        <path class="cls-11" d="M177.37,202.23s-37.26,12.8-58.79,50.34c-5.5,9.61,8.73,31.59,37.55,31.54,0,0,4.91,1.7,14-1.59,3.45-1.26,6.54-18.58,17.57-37.95,9.36-16.43,3.42-31.12,3.42-31.12"/>
        <ellipse class="cls-12" cx="177.33" cy="248.28" rx="15.52" ry="6.26" transform="translate(-121.27 310.96) rotate(-66.32)"/>
        <g>
          <path class="cls-11" d="M195,226.43s4.11-1.76,5.34-4.36-1.92-6.84-11.61-17.57c-8.58-9.49-11.18-3.91-11.58-3.49a5.44,5.44,0,0,0-1,3"/>
          <path class="cls-11" d="M184.17,205.33s-9-8.32,0-11.32c8.09-2.7,24.54,19.53,24,22.6s-3.89,5.13-10,2.43"/>
        </g>
      </g>
      <g>
        <path class="cls-2" d="M261.4,143.77s26-39.68,31.68-65.76c3.57-16.38-3.71-56.13-22.69-57.92-17-1.61-16.16,54.16-15.93,60.17s-4.56,34.52,1.44,45.63"/>
        <g>
          <path class="cls-2" d="M239.3,102.61s-.12,6.43-13,6.19-25.15,2-39.08,25c-7.41,12.24-6.39,10.77-6.39,10.77s-14.16,3.2-13.73,19.79,26.69,41.34,26.69,41.34,4.19,10.63,12.63,13.1c8.12,2.38,11.4-.77,14.67-3.93,0,0,28.39-2.56,37.15-14.4,7.2-9.74,5.26-17-.76-25.51,0,0,12.39-27.23,6-41.46s-14.31-15.36-14.7-21.06.12-6.44.12-6.44l-3.56,5.13s.5-7.25,2.15-9.36-5,4.11-6.33,7.55C241.15,109.32,240.2,107.57,239.3,102.61Z"/>
          <g>
            <g>
              <path class="cls-3" d="M256.86,172.07s14.75,1.75,16.5,10a58.2,58.2,0,0,0-8.11-1.68s2.39,6.23,1.31,8.43c0,0-1.31-1-4.89-3.23s-5-8-5-8"/>
              <path class="cls-4" d="M256.86,172.07c6.61.81,15.64,3,17.12,10.61a63.27,63.27,0,0,0-8.77-1.83l.49-.66a25.65,25.65,0,0,1,1.55,6.44,4.94,4.94,0,0,1-.52,2.83c-1.59-1.23-3.46-2.48-5.17-3.59a10.47,10.47,0,0,1-3.64-4.6,18.26,18.26,0,0,1-1.22-3.68c1,3,2.47,6,5.18,7.75,1.63,1,3.39,2,4.94,3.12l-.64.15a4.13,4.13,0,0,0,.2-1.92,26.53,26.53,0,0,0-1.86-6.86l.76,0a49.58,49.58,0,0,1,8.2,1.72l-.56.54c-1.75-6.57-10.15-8.77-16.06-10.07Z"/>
            </g>
            <g>
              <path class="cls-3" d="M189.4,144S176,133.59,168,138.89a66.79,66.79,0,0,1,7.95,5.14s-6.94,3.16-7.82,5.81c0,0,1.88.22,6.57,1.3s10.44-2.53,10.44-2.53"/>
              <path class="cls-4" d="M189.4,144c-5.8-3.71-14.52-8.69-21.18-4.72l0-.78a55.9,55.9,0,0,1,8.05,5.17l.58.49a39,39,0,0,0-5,2.65c-1.23.84-2.75,1.81-3.33,3.17l-.35-.55c1.49.22,2.92.55,4.36.88a18.51,18.51,0,0,0,4.27.76,18.83,18.83,0,0,0,8.33-2.45,20.64,20.64,0,0,1-4,2,11.87,11.87,0,0,1-6.63.82c-2.27-.47-4.75-1-7-1.24a5.52,5.52,0,0,1,1.8-2.62,28.86,28.86,0,0,1,6.41-4l-.11.8a70.76,70.76,0,0,0-8.53-5.48c7.17-4.91,16.38.55,22.32,5.08Z"/>
            </g>
          </g>
        </g>
        <g>
          <g>
            <path class="cls-13" d="M206.71,151.12s6.51-17.2,15.43-17.53,16.41,9.22,4.93,27.32"/>
            <circle class="cls-14" cx="220.93" cy="149.36" r="5.8"/>
            <circle class="cls-15" cx="226.27" cy="147.62" r="1.34"/>
          </g>
          <g>
            <path class="cls-3" d="M202,150s10.61,1.93,26.51,11.88"/>
            <path class="cls-4" d="M202,150c9.65,1.58,18.62,6.25,26.51,11.88-8.5-4.4-17.36-9-26.51-11.88Z"/>
          </g>
        </g>
        <g>
          <g>
            <path class="cls-13" d="M236.15,165s2.41-17.56,8.85-20.57,16,3.59,8.81,26.41"/>
            <circle class="cls-14" cx="245.82" cy="160.56" r="5.8"/>
            <circle class="cls-15" cx="251.16" cy="158.01" r="1.34"/>
          </g>
          <g>
            <path class="cls-3" d="M234.91,165.26c5.92.85,20,4.09,22.33,10.07"/>
            <path class="cls-4" d="M234.91,165.26c6.31.48,12.74,2,18.16,5.33a13.55,13.55,0,0,1,2.5,2,7.49,7.49,0,0,1,1.67,2.71,8.15,8.15,0,0,0-2-2.35,12.94,12.94,0,0,0-2.56-1.73c-5.53-2.94-11.71-4.45-17.76-6Z"/>
          </g>
        </g>
        <path class="cls-16" d="M229.7,179s-1.57-8.69-7.1-11.67c0,0,7.12-2.43,16.87,5.42C239.47,172.77,237.15,177.68,229.7,179Z"/>
        <g>
          <g>
            <path class="cls-17" d="M245.83,183.16s-3.62,9.52-11.51,7.21c-10.83-3.17-5.13-10.62-5.13-10.62s-2.05,5.32-7.21,5.7-21.39-4.37-20.08-21.92c0,0-5,29.11,4.25,37.7s16.69,7.24,28.27-3.19C234.42,198,243.74,189.31,245.83,183.16Z"/>
            <path class="cls-18" d="M201.87,191.74s16.37-1.67,19.28,14.47c0,0-8.69,1.57-15-5C204.29,199.3,201.59,193.72,201.87,191.74Z"/>
            <path class="cls-15" d="M234.32,190.37c-7.9-1.14-7-7.06-7-7.06s-1.52,2.2-5.29,2.14a21.64,21.64,0,0,1-8.08-1.65c-1.13,4.75-.69,10.38.27,12.13C222.68,204,232.73,195.78,234.32,190.37Z"/>
            <path class="cls-19" d="M221.62,194.59c1.92-3.83,4.15-7.26,5.65-11.28-.11,4.31-2.64,8.33-5.65,11.28Z"/>
          </g>
          <g>
            <path class="cls-20" d="M196,164.11a9.35,9.35,0,0,1,10.57.5,22.78,22.78,0,0,0-10.57-.5Z"/>
            <path class="cls-20" d="M242.56,180.46a9.35,9.35,0,0,1,6.82,8.08,22.77,22.77,0,0,0-6.82-8.08Z"/>
          </g>
        </g>
        <g>
          <path class="cls-20" d="M214.49,126.15a25.22,25.22,0,0,1,19.41-2l2.69-3.88S219.92,118.32,214.49,126.15Z"/>
          <path class="cls-20" d="M261.45,144.31a24.33,24.33,0,0,0-12.88-13.77l.51-4.55S262.47,135.16,261.45,144.31Z"/>
        </g>
        <g>
          <path class="cls-2" d="M217.94,119.51S246,51.4,237,18.46c-4.84-17.74-22.42-15-38.77,16.94-11.2,21.93-2,59.21,5.46,82.83"/>
          <path class="cls-21" d="M214.6,116.55s22.4-62.78,15.78-87c-3.56-13.06-16.5-11.08-28.53,12.46-7.44,14.56-1.94,45.65,3.23,64.37.56,2,2.56,10,10.55,6.34"/>
        </g>
      </g>
      <g>
        <g>
          <path class="cls-2" d="M148.69,281.13l0,4.56c2.19-.33,10.63-1.85,12.37.57,2.29,3.2,6.8,13,3.66,17.92-2.62,4.12-7.93,2.48-7.93,2.48s2.48,7.93.2,8.79-8.68-.88-9.65-2.08-.62-4.38-.62-4.38-11.83-.41-12.94-2.48-3.62-16.66-1.71-25.53"/>
          <g>
            <line class="cls-3" x1="154.62" y1="297.83" x2="157.47" y2="311.11"/>
            <path class="cls-4" d="M154.62,297.83a44.79,44.79,0,0,1,2.85,13.28,45.11,45.11,0,0,1-2.85-13.28Z"/>
          </g>
          <g>
            <line class="cls-3" x1="146.83" y1="304.49" x2="146.69" y2="312.81"/>
            <path class="cls-4" d="M146.83,304.49a17,17,0,0,1-.14,8.32,17.1,17.1,0,0,1,.14-8.32Z"/>
          </g>
          <g>
            <line class="cls-3" x1="156.61" y1="294.52" x2="155.36" y2="302.13"/>
            <path class="cls-4" d="M156.61,294.52a14.65,14.65,0,0,1-1.25,7.61,14.75,14.75,0,0,1,1.25-7.61Z"/>
          </g>
          <g>
            <path class="cls-3" d="M148.94,283.7s.71,1-.49,2.87-4,1.71-4,1.71"/>
            <path class="cls-4" d="M148.94,283.7c1.09,1.07.33,2.87-.64,3.79a4.12,4.12,0,0,1-3.85.79c1.91-.42,3.35-1.14,4.09-2.88a3.17,3.17,0,0,0,.4-1.7Z"/>
          </g>
        </g>
        <g>
          <g>
            <path class="cls-11" d="M146.58,277.8s4.79-1.89,4.91,3.21-11.6,8.13-19,3.78c-8.49-5,4.35-7.37,4.35-7.37"/>
            <g>
              <path class="cls-22" d="M180.24,233.22,151.71,248l-3.16,30.14s-9.36,6.29-17.07.51c-2-1.5-3.2-35.34-.71-44.5,1.45-5.34,22.21-25.06,38.16-23.27"/>
              <path class="cls-8" d="M180.24,233.22c-9.13,4.68-19.86,10.91-28.23,14.83-.73,7.51-2.24,22.64-3,30.15l0,.21-.17.11c-4,2.44-8.85,3.83-13.46,2.57a12.51,12.51,0,0,1-4.18-2.08,5.13,5.13,0,0,1-.91-2.49c-1.12-6.81-1.21-13.7-1.34-20.57s0-13.78,1.15-20.58c.31-2.36,1.89-4.33,3.39-6.08a63,63,0,0,1,22.09-16.07c4.22-1.72,8.82-2.86,13.39-2.33a27.26,27.26,0,0,0-13.26,2.64,64.37,64.37,0,0,0-21.62,16.27c-1.4,1.72-2.85,3.47-3.15,5.73-1.13,6.71-1.06,13.61-1,20.41.06,4.55.23,9.11.58,13.65.31,2.88.3,5.92,1.3,8.62,4.74,3.84,11.66,2.63,16.57-.43l-.2.32c.8-7.51,2.46-22.61,3.3-30.12l0-.16c9.57-4.92,19.21-9.74,28.81-14.6Z"/>
            </g>
          </g>
          <g>
            <path class="cls-7" d="M167.64,206.68s-4,2-5,5.06"/>
            <path class="cls-8" d="M167.64,206.68c-1.72,1.79-3.49,3.09-5,5.06.14-2.55,2.58-4.55,5-5.06Z"/>
          </g>
          <g>
            <path class="cls-7" d="M153.45,246.8a27.62,27.62,0,0,1-5.62,3.07"/>
            <path class="cls-8" d="M153.45,246.8a7.49,7.49,0,0,1-5.62,3.07,16.85,16.85,0,0,1,5.62-3.07Z"/>
          </g>
        </g>
      </g>
    </g>
  </g>
</svg>
