<svg id="Layer_1" data-name="Layer 1" xmlns="http://www.w3.org/2000/svg" viewBox="0 0 237.28 83.49"><defs><style>.cls-1{fill:#f5ff6c;}.cls-2{fill:#f40c0c;}</style></defs><path class="cls-1" d="M118.65,27.78l.62-.84h31.51l3,6-.61.84H143a28.47,28.47,0,0,1,.49,5.4c0,8.79-4,13.23-9.58,16.35,3.64,4,9.4,7.51,16.21,10.77l-3.38,7.47h-.66c-9-6.68-16-13.76-20.17-21.49a11.46,11.46,0,0,1-1.67-4.53,4.72,4.72,0,0,1,.74-2.46c.75-1.19,2.11-1.85,4.14-1.85s4.08,0,5.44.18c1-1.27,1.63-3.25,1.63-6.5a13.59,13.59,0,0,0-.35-3.34H121.64Z"/><path class="cls-1" d="M149.37,27.78l.62-.84h7.07c-.44-9-3.38-13.84-9.45-13.84-3.73,0-6.11,2.41-6.11,5.8A8.74,8.74,0,0,0,144,24.74l-.66,1-6.64-2.9a12.14,12.14,0,0,1-2.9-7.73c0-5.14,4.13-8.66,10.11-8.66,5.19,0,10.24,2.73,14.77,8.92a35.41,35.41,0,0,1,5.23,11.56h5.67l3,6-.61.84h-7.65l.18,39-.62.44-7.07-2.07L157,33.8h-4.61Z"/><path class="cls-2" d="M96.15,72.78l-.61.44-7-2,.13-14.63a8.34,8.34,0,0,1-1.5.09,13,13,0,0,1-6.59-1.85l-.35.13a14.68,14.68,0,0,1,.35,3.21c0,6-4.88,10.64-11.6,10.64-8.92,0-16-7.61-22.28-20.09l.09-.39L50,46.1c5.14,9.27,8.87,14.59,16.21,14.59,3.78,0,8.31-2.81,8.31-7.12,0-2.28-1.32-3.73-4.35-3.73A24,24,0,0,0,62,51.9L57.52,45l.27-.83a61,61,0,0,1,9.45-2.55c2.9-1.14,4.44-2.95,4.44-5,0-1.54-.66-3-4-3-2.82,0-6.2,1.31-10.2,3.73L53,30.54l.17-.61a17.45,17.45,0,0,1,10.11-3.69c5.14,0,8.22,2.06,11.43,6.55a13,13,0,0,1,2.85,8,9.82,9.82,0,0,1-2.28,5.89,14.54,14.54,0,0,1,1.93,2.11c.75.79,2.59.92,4.44.92a14,14,0,0,0,7.08-2.07V33.8H81.87l-3-6,.62-.84h40.56l3,6-.62.84h-7.64l.17,39-.61.44-7.08-2.07.18-37.35H96Z"/></svg>