<svg id="Layer_1" data-name="Layer 1" xmlns="http://www.w3.org/2000/svg" viewBox="0 0 237.28 86.37"><defs><style>.cls-1{fill:#f40c0c;}.cls-2{fill:#f5ff6c;}</style></defs><path class="cls-1" d="M45.59,31.5l.17-.62a17.45,17.45,0,0,1,10.11-3.69c5.14,0,8.22,2.07,11.43,6.55a13,13,0,0,1,2.85,7.95,9.77,9.77,0,0,1-2.28,5.89,15.08,15.08,0,0,1,1.93,2.11c.75.79,2.59.92,4.44.92a14.09,14.09,0,0,0,7.07-2.06V34.75H74.46l-3-6,.62-.84H93.84l3,6-.62.84H88.57l.17,39-.61.44-7-2,.14-14.64a8.4,8.4,0,0,1-1.5.09,13,13,0,0,1-6.59-1.85l-.35.14a14.59,14.59,0,0,1,.35,3.2c0,6-4.88,10.64-11.6,10.64-8.92,0-16-7.6-22.28-20.08l.09-.4,3.2-2.2c5.15,9.28,8.88,14.59,16.22,14.59,3.78,0,8.31-2.81,8.31-7.12,0-2.28-1.32-3.73-4.35-3.73a24,24,0,0,0-8.18,2.06L50.11,46l.27-.83a61,61,0,0,1,9.45-2.55c2.9-1.14,4.43-2.94,4.43-5,0-1.54-.66-3-4-3-2.81,0-6.19,1.32-10.19,3.73Z"/><path class="cls-1" d="M83.73,11.59l6,6-6,6-6-6Z"/><path class="cls-2" d="M92.43,28.73l.62-.84h44l3,6-.62.84h-7.65l.18,39-.62.44-7.07-2.07.18-37.35H111.59c.4,4.52.53,8.35.53,11.56,0,6.94-.75,10.89-2.33,13.66a4.69,4.69,0,0,1-4,2.42c-1.41,0-3.3-1.23-5.54-3.65-2-2.15-3.34-4.26-3.34-6.06a3.91,3.91,0,0,1,.92-2.59c1-1.15,3.25-1.67,6.86-2.11a44.31,44.31,0,0,0,.31-5.94,58.84,58.84,0,0,0-.44-7.29H95.42Z"/><path class="cls-2" d="M135.63,28.73l.62-.84h7.07c-.44-9-3.38-13.84-9.45-13.84-3.73,0-6.11,2.42-6.11,5.8a8.78,8.78,0,0,0,2.51,5.85l-.66,1L123,23.81a12.19,12.19,0,0,1-2.9-7.74c0-5.14,4.14-8.66,10.11-8.66,5.19,0,10.24,2.73,14.77,8.93a35.36,35.36,0,0,1,5.23,11.55h5.67l3,6-.61.84h-7.65l.18,39-.62.44-7.07-2.07.17-37.35h-4.61Z"/><path class="cls-2" d="M154.44,28.73l.61-.84H197l3,6-.62.84h-10.9l.09,10.06c4.88,4.84,6.81,8.09,6.81,12.7,0,7.38-7,14.11-16.7,14.11-9.84,0-19.07-9.45-19.07-17.76,0-7.33,5.32-12.17,16.35-12.17h3.56c1.23,0,1.76-.26,1.76-1.67l-.05-5.27H157.43Zm31.82,19.64H182.7c-6.68,0-10.37,1-13,3.21a7.83,7.83,0,0,0-2.46,5.8c0,5,3.56,7.43,8,7.43,7.2,0,13.22-5.36,13.22-11.21A7.15,7.15,0,0,0,186.26,48.37Z"/><path class="cls-2" d="M195.57,28.73l.62-.84h7.07c-.44-9-3.38-13.84-9.45-13.84-3.73,0-6.1,2.42-6.1,5.8a8.77,8.77,0,0,0,2.5,5.85l-.66,1-6.63-2.9a12.13,12.13,0,0,1-2.9-7.74c0-5.14,4.13-8.66,10.1-8.66,5.19,0,10.24,2.73,14.77,8.93a35,35,0,0,1,5.23,11.55h5.67l3,6-.62.84h-7.65l.18,39-.62.44L203,72.1l.18-37.35h-4.62Z"/></svg>