<svg id="Layer_1" data-name="Layer 1" xmlns="http://www.w3.org/2000/svg" viewBox="0 0 237.28 83.49"><defs><style>.cls-1{fill:#f5ff6c;}.cls-2{fill:#f40c0c;}</style></defs><path class="cls-1" d="M116.56,32l.62-.84h31.76l3,6.07-.62.84H141.14a28.18,28.18,0,0,1,.49,5.45c0,8.86-4,13.33-9.66,16.47,3.68,4,9.48,7.58,16.35,10.86l-3.41,7.53h-.67c-9-6.74-16.12-13.87-20.33-21.66a11.69,11.69,0,0,1-1.68-4.57,4.74,4.74,0,0,1,.75-2.48c.75-1.19,2.13-1.86,4.16-1.86s4.12,0,5.5.18c1-1.28,1.63-3.28,1.63-6.56a13.33,13.33,0,0,0-.35-3.36H119.57Z"/><path class="cls-1" d="M147.52,32l.62-.84h42.13l3,6.07-.62.84H185l.18,39.29-.62.44-7-2,.14-24.05H174c-6.82,0-9.92.8-11.87,2.26a6.56,6.56,0,0,0-2.79,5.45c0,4.56,3.67,7.22,11.56,11.56l-3.19,7-.67.13c-7.35-5.36-14.17-14.84-14.17-22.81,0-4.74,2.39-11,14.53-11,3.72,0,7.22.09,10.23.18V38.07H150.53Z"/><path class="cls-2" d="M50.38,34.79l.17-.62a17.61,17.61,0,0,1,10.19-3.72c5.19,0,8.29,2.08,11.52,6.6a13.13,13.13,0,0,1,2.88,8A9.87,9.87,0,0,1,72.84,51a15.37,15.37,0,0,1,1.94,2.13c.76.8,2.62.93,4.48.93A14.22,14.22,0,0,0,86.39,52V38.07H79.48l-3-6.07.62-.84h30.39l.13-.22c-3.77-4.26-7.58-6.83-11.43-6.83-2.92,0-6.29,1.42-9.92,3.42l-.4-.23L81.7,20.66c3.14-1.95,6.73-3.37,9.65-3.37,4.17,0,8.24,2.09,14,6.82l.22-.17A52.93,52.93,0,0,0,104,17.69c-1.15-3.32-3.23-4.74-8-4.74a28.59,28.59,0,0,0-6.65.84l-.4-.22L86.74,5.86a34.22,34.22,0,0,1,7.14-.75c6,0,8.63,2.53,11.82,8.2,2.53,4.47,3.9,9.39,5.36,17.85H118l3,6.07-.62.84h-7.71l.18,39.29-.62.44-7.14-2.08.18-37.65H93.7l.18,39.29-.62.44-7.09-2L86.3,61a8.4,8.4,0,0,1-1.5.09,13.08,13.08,0,0,1-6.65-1.86l-.35.13a14.9,14.9,0,0,1,.35,3.24c0,6.07-4.92,10.72-11.69,10.72-9,0-16.13-7.67-22.46-20.25l.09-.39,3.23-2.22c5.18,9.35,9,14.71,16.35,14.71C67.48,65.18,72,62.34,72,58c0-2.3-1.33-3.76-4.39-3.76a24,24,0,0,0-8.24,2.08l-4.47-7,.27-.84A61.87,61.87,0,0,1,64.73,46c2.92-1.15,4.47-3,4.47-5.05,0-1.55-.66-3-4-3-2.83,0-6.24,1.33-10.27,3.76Z"/></svg>