<svg id="Layer_1" data-name="Layer 1" xmlns="http://www.w3.org/2000/svg" viewBox="0 0 237.28 83.49"><defs><style>.cls-1{fill:#f40c0c;}.cls-2{fill:#f5ff6c;}</style></defs><path class="cls-1" d="M66.77,30.27l.17-.62a17.61,17.61,0,0,1,10.19-3.72c5.19,0,8.29,2.08,11.52,6.6a13.13,13.13,0,0,1,2.88,8,9.84,9.84,0,0,1-2.3,5.93,15.37,15.37,0,0,1,1.94,2.13c.76.8,2.62.93,4.48.93a14.22,14.22,0,0,0,7.13-2.08V33.55H95.87l-3-6.07.62-.84H115.4l3,6.07-.62.84h-7.71l.18,39.29-.62.44-7.09-2,.13-14.75a9.43,9.43,0,0,1-1.5.08,13.08,13.08,0,0,1-6.65-1.86l-.35.14a14.8,14.8,0,0,1,.35,3.23c0,6.07-4.92,10.72-11.69,10.72-9,0-16.13-7.66-22.46-20.24l.09-.4L63.71,46c5.18,9.35,8.95,14.71,16.35,14.71,3.81,0,8.37-2.84,8.37-7.18,0-2.3-1.33-3.76-4.39-3.76A24.21,24.21,0,0,0,75.8,51.8l-4.47-6.95L71.6,44a63,63,0,0,1,9.52-2.57c2.92-1.15,4.47-3,4.47-5,0-1.55-.66-3.05-4-3.05-2.83,0-6.24,1.33-10.27,3.76Z"/><path class="cls-1" d="M105.22,10.21l6.07,6.06-6.07,6.07-6.07-6.07Z"/><path class="cls-2" d="M114,27.48l.62-.84h40.31l3,6.07-.62.84h-8l.08,10.37-.75.93h-6.24a66.1,66.1,0,0,0-7.53.35,7,7,0,0,0-4.48,1.95,3.62,3.62,0,0,0-1,2.17c0,1,.93,1.37,2.08,1.37,3.59,0,7.84-1.41,11.6-1.41,5,0,6.56,2.12,8.42,5.53a13.26,13.26,0,0,1,1.77,6.47c0,4.83-4.34,10.54-12.27,10.54-8.28,0-16.52-5.85-23.52-17.45l0-.53,3.1-2.13c5.13,8.55,10.54,12.4,16.74,12.4,6.42,0,10-4.34,10-6.73,0-.4-.35-.71-1.82-.71-2.21,0-8.68,1.6-11.69,1.6-2.17,0-4.25-1.42-7.09-4.7-2.39-2.83-3.81-5.49-3.81-8.06,0-6.47,5.9-7.66,13.74-7.66h5.31v-4.3H117Z"/><path class="cls-2" d="M153.5,27.48l.62-.84h19.76l3,6.07-.62.84h-7.71l.18,39.29-.62.44L161,71.2l.17-37.65h-4.65Z"/></svg>