<svg id="Layer_1" data-name="Layer 1" xmlns="http://www.w3.org/2000/svg" viewBox="0 0 237.28 83.98"><defs><style>.cls-1{fill:#f5ff6c;}.cls-2{fill:#f40c0c;}</style></defs><path class="cls-1" d="M89.58,24.25l.62-.84h41.86l3,6.07-.62.84h-7.71l.18,39.29-.62.44-7-2,.22-21c-2.08-.18-3.63-.22-5.71-.22a25.56,25.56,0,0,0-6.47.66,43.48,43.48,0,0,1,.4,4.87c0,1.51-.18,2.66-1.24,3.55a4.12,4.12,0,0,1-2.62,1c-1.55,0-3.54-1.28-6.07-3.9S94.05,48,94.05,46.18c0-1.16.67-7,12.32-7a95.8,95.8,0,0,1,13.07,1.07V30.32H92.59Z"/><path class="cls-1" d="M130.64,24.25l.62-.84h54.22l3,6.07-.62.84H165.15V41l.13.09a12.41,12.41,0,0,1,7.09-2.57,10.44,10.44,0,0,1,8.15,3.81,13.19,13.19,0,0,1,3.72,9.17c0,4.47-2.17,9.61-5.54,14h-.62l-6.6-5.09c3.81-4.74,6.65-9.66,6.65-13.07,0-1.64-.67-2.39-2.22-2.39-3.19,0-7.08,2.88-10.67,7l.09,17.63-.62.44-6.87-2,.22-10L158,58a11.57,11.57,0,0,1-7.26,2.31c-4.7,0-7.71-2.31-10.85-5.54-2.31-2.66-4-5.85-4-9,0-6.46,5.18-10.63,12.09-10.63A33.06,33.06,0,0,1,158,36.83V30.32H133.65Zm27.47,18a21.17,21.17,0,0,0-4.3-.4c-7.4,0-10.81,3.76-10.81,8.11,0,2.39,1.77,3.54,4.74,3.54,3.41,0,7-1.68,10.37-5.23Z"/><path class="cls-2" d="M48.78,24.25l.62-.84H78.86C75.63,14.64,73.59,9.32,67.17,9.32a30.85,30.85,0,0,0-8.6,1.24H58.4L55,2.23A34.48,34.48,0,0,1,64.2,1c9,0,12.18,7,19.36,22.42H91l3,6.07-.62.84H85.73V46.13c0,6.2-2,9.48-5.94,11.16h-.4l-6.07-5.75c3.19-2.22,4.88-5,4.88-9.75V30.32H64.07V40.2c0,7,.17,10.14,1.68,12.22,3.59,4.3,17.23,8,20.33,11.92s5,8.28,5,11.16-2,6.16-5.58,8h-.31q-3.72-3.12-6.91-6.37c4.25-2.4,6.51-4.57,6.51-6.29A2.07,2.07,0,0,0,84,69.48c-1.55-1.51-12-5.1-17.76-9.26a34.1,34.1,0,0,1-6-6.07C58,51.09,55.87,47.82,55.87,40V30.32H51.8Z"/></svg>