<svg id="Layer_1" data-name="Layer 1" xmlns="http://www.w3.org/2000/svg" viewBox="0 0 237.28 83.49"><defs><style>.cls-1{fill:#f5ff6c;}.cls-2{fill:#f40c0c;}</style></defs><path class="cls-1" d="M71.62,12.77l.62-.84h41.15l3,6.07-.62.84h-7.71l.18,39.29-.62.45-7-2,.17-11.87a11.59,11.59,0,0,1-6.06,1.77,15,15,0,0,1-8.64-3.1c-5.32-3.81-7.44-7.13-7.44-16.61,0-2.84,0-5.49.13-7.89H74.63Zm29.23,6.07H86.5c-.09,2.31-.13,5.14-.13,8.29,0,8,.26,12.53,4.87,12.53,2.17,0,4.43-.93,6.87-2.83a7.24,7.24,0,0,0,2.74-5.89Z"/><path class="cls-1" d="M112,12.77l.62-.84H152L155,18l-.62.84h-7.89l0,11.25-.8.89c-2.7-.13-5-.13-7.71-.13a44.53,44.53,0,0,0-6.69.4c-4.07.62-6.73,2.79-6.73,5.36a5.11,5.11,0,0,0,1.15,3.54,19.55,19.55,0,0,1,12.63-4.65c5.05,0,8.41,2.13,10.54,6.11a15.07,15.07,0,0,1,1.95,6.78c0,4.16-2.7,7.26-8.15,9.74l-5.94-6.33c5.85-2.84,9-5.32,9-7.4,0-.71-.93-1.55-3.81-1.55-5.41,0-13.64,3.63-13.64,10.1,0,6.69,8.94,10.1,23.61,11.39l-3.33,7.17-.35,0c-15.28-3.77-27.07-11.43-27.07-22.11A11.21,11.21,0,0,1,123,43.61c-3.46-3.64-5.5-7-5.5-10.68,0-4,3.11-8.06,9.17-8.68a116.79,116.79,0,0,1,12.58-.4v-5H115Z"/><path class="cls-1" d="M150.6,12.77l.62-.84H171L174,18l-.62.84h-7.71l.18,39.29-.62.45-7.14-2.08.18-37.66h-4.65Z"/><path class="cls-1" d="M169.56,12.77l.62-.84h31.76L205,18l-.62.84H194.14a28.25,28.25,0,0,1,.49,5.45c0,8.86-4,13.34-9.66,16.48,3.68,4,9.48,7.57,16.35,10.85l-3.41,7.53h-.67c-9-6.73-16.12-13.86-20.33-21.66a11.61,11.61,0,0,1-1.68-4.56,4.69,4.69,0,0,1,.75-2.48c.75-1.2,2.13-1.86,4.16-1.86s4.12,0,5.5.18c1-1.29,1.64-3.28,1.64-6.56a13.35,13.35,0,0,0-.36-3.37H172.57Z"/><path class="cls-2" d="M32.33,12.77l.62-.84H73l3,6.07-.62.84H65.68a35,35,0,0,1,.62,5.63,13.64,13.64,0,0,1-1.9,7.13c4.78,5.58,6.46,9.39,6.46,13.25,0,6.06-5.22,12.27-14,12.27-7.13,0-14.84-6.43-21-21v-.62l3.54-2c4.12,9.79,9.22,15.55,15.11,15.55,5.63,0,10-4.56,10-9.17,0-2.44-2-3.59-5.18-3.59a37.73,37.73,0,0,0-9.08,1.82l-4.69-6.65.44-.84c9.61-2.13,13.11-3.23,13.11-9.52A18.8,18.8,0,0,0,59,18.84H35.34Z"/></svg>