<svg id="Layer_1" data-name="Layer 1" xmlns="http://www.w3.org/2000/svg" viewBox="0 0 237.28 83.49"><defs><style>.cls-1{fill:#f5ff6c;}.cls-2{fill:#f40c0c;}</style></defs><path class="cls-1" d="M129.36,28.31c-6.77-2.49-9,6.33-10.76,12.53H118l-5.9-4a18,18,0,0,1,3.28-7.62,7.14,7.14,0,0,0-3.14-.71c-4.34,0-8.06,4-8.06,9.09,0,5.75,4.47,9.34,13.06,12.18l-2.17,7-.57.22C105.44,52.23,97,42.53,97,33.22c0-7.35,4.92-11.51,10.77-11.56,4.07,0,6.55,1.64,10.5,4.65,2.61-1.77,8.64-4.65,13-1.12Z"/><path class="cls-1" d="M91.58,10.9l.62-.84h79.59l3,6.07-.62.84h-7.7l.17,39.29-.62.44-7-2,.13-24.85c-7.08,2-8.94,4.83-10.72,11h-.62l-5.89-4a17.87,17.87,0,0,1,3.28-7.62,7.15,7.15,0,0,0-3.15-.71c-4.34,0-8.06,4-8.06,9.09,0,5.75,4.48,9.34,13.07,12.18l-2.17,7-.58.22c-9-4.69-17.45-14.39-17.45-23.7,0-7.35,4.92-11.51,10.77-11.56,4.07,0,6.55,1.64,10.49,4.65a26.91,26.91,0,0,1,11.08-4V17H94.59Z"/><path class="cls-1" d="M171.35,68.16l0,.49a8.76,8.76,0,0,1-7.93,4.78c-5.31,0-11.73-5.8-11.73-11,0-4.74,4.25-8,9.39-8,6.64,0,13.06,4.69,23.74,15.5l-2.08,3h-.53c-7.4-8.06-13.47-12.62-17.81-12.62-4,0-6.78,2.57-6.78,5a2.43,2.43,0,0,0,2.57,2.43c2.08,0,4-1.28,5.76-4.29Z"/><path class="cls-2" d="M52.42,10.9l.62-.84H93.13l3,6.07-.62.84H85.77a35,35,0,0,1,.62,5.62,13.61,13.61,0,0,1-1.9,7.13C89.27,35.31,91,39.12,91,43,91,49,85.73,55.24,77,55.24c-7.13,0-14.84-6.42-21-21v-.62l3.54-2c4.12,9.79,9.22,15.55,15.11,15.55,5.63,0,10-4.56,10-9.17,0-2.43-2-3.59-5.18-3.59a37.73,37.73,0,0,0-9.08,1.82l-4.69-6.64.44-.85c9.61-2.12,13.11-3.23,13.11-9.52a18.64,18.64,0,0,0-.13-2.3H55.43Z"/></svg>