<svg id="Layer_1" data-name="Layer 1" xmlns="http://www.w3.org/2000/svg" viewBox="0 0 237.28 83.49"><defs><style>.cls-1{fill:#f5ff6c;}.cls-2{fill:#f40c0c;}</style></defs><path class="cls-1" d="M116,23.34l.62-.84h40.22l3,6.07-.62.84h-9.12l0,12.71-.66.93h-5.1c-11.65,0-15.5,4-15.5,8.77a7.07,7.07,0,0,0,7.4,7.49,13,13,0,0,0,7.53-2.17,6.67,6.67,0,0,1-1.29-4.08c0-3.67,2.79-5.8,6.29-5.8A7.4,7.4,0,0,1,156,54.83c0,2.62-1.41,4.92-3.89,7,3.85,3.63,6.2,6.69,6.2,10.85,0,3.68-2.26,7-5.67,9.21h-.31l-7.44-5.93c3.81-2.39,6.11-5,6.15-7.71A6.33,6.33,0,0,0,149,63.6a18.41,18.41,0,0,1-21.53-3.18c-3.1-2.93-6.2-7.18-6.2-12.36,0-5.72,3.19-11.83,15.46-11.83h4.48c1.19,0,1.59-.49,1.59-1.68V29.41H119Z"/><path class="cls-2" d="M77.44,23.34l.62-.84h27.38l0-.18c-4.16-3.68-7.44-7.49-7.44-12,0-4.88,3.72-8.69,9.7-8.69a12.53,12.53,0,0,1,6.11,1.69,41.6,41.6,0,0,1,3.37,6.11l-.53.66a11.14,11.14,0,0,0-5.18-1.41c-4.08,0-6.34,2.43-6.34,5.89,0,2.92,2.17,6.33,4.83,7.93h7.4l3,6.07-.62.84h-8.15l.09,10.19-.75.93h-8.55c-4.83,0-8.6.4-10.41,1.33-1.42.88-2,1.86-2,2.83s.62,1.46,2,1.46c2.48,0,8.73-2.12,12.54-2.12,3.54,0,5.58,1.86,7.71,5.18,1.72,2.74,2.43,4.87,2.43,7,0,4.48-4.38,9-11.56,10.77l0,.17c3.19,3,8.41,4,14.53,4l-2.8,8.29h-.62c-6.51,0-11.91-3.37-15.59-11.79a20.16,20.16,0,0,1-3.85.31,6.79,6.79,0,0,1-6-3.1,9,9,0,0,1-2-5c0-1.28.71-3.19,5.19-3.19a10.74,10.74,0,0,1,8,3.37c5.13-1.64,8.68-5.45,8.68-8.15,0-.62-.31-.89-1.24-.89-2,0-8.37,2.35-12.41,2.35-3.58,0-5.67-2.17-8.41-5.27-1.91-2.39-3.28-5-3.28-7.35,0-6.43,5.85-7.31,13.51-7.31h7.57V29.41H80.45Z"/></svg>