<svg id="Layer_1" data-name="Layer 1" xmlns="http://www.w3.org/2000/svg" viewBox="0 0 237.28 83.49"><defs><style>.cls-1{fill:#f5ff6c;}.cls-2{fill:#f40c0c;}</style></defs><path class="cls-1" d="M82,24.4l.62-.84H123l3,6.07-.62.84h-8l.08,10.37-.75.93h-6.24a68.49,68.49,0,0,0-7.53.35,7,7,0,0,0-4.48,2,3.62,3.62,0,0,0-1,2.17c0,1,.93,1.37,2.08,1.37,3.59,0,7.84-1.41,11.6-1.41,5,0,6.56,2.12,8.42,5.53a13.26,13.26,0,0,1,1.77,6.47c0,4.83-4.34,10.54-12.27,10.54-8.28,0-16.52-5.84-23.52-17.45l.05-.53,3.1-2.13C93.85,57.18,99.26,61,105.46,61c6.42,0,10-4.35,10-6.74,0-.4-.35-.71-1.82-.71-2.21,0-8.68,1.6-11.69,1.6-2.17,0-4.25-1.42-7.09-4.7-2.39-2.83-3.81-5.49-3.81-8.06,0-6.47,5.9-7.66,13.74-7.66h5.31v-4.3H85Z"/><path class="cls-1" d="M121.54,24.4l.62-.84h49.66l3,6.07-.62.84H166.5l.18,39.29-.62.45-7.05-2,.14-24.85c-7.09,2-9,4.83-10.72,11h-.62l-5.89-4a17.76,17.76,0,0,1,3.27-7.62,7.14,7.14,0,0,0-3.14-.71c-4.34,0-8.06,4-8.06,9.08,0,5.76,4.47,9.35,13.06,12.18l-2.17,7-.57.22c-9-4.7-17.45-14.4-17.45-23.7,0-7.36,4.91-11.52,10.76-11.56,4.07,0,6.56,1.64,10.5,4.65a26.94,26.94,0,0,1,11.07-4V30.47H124.55Z"/><path class="cls-1" d="M170.4,24.4l.62-.84h7.13c-.44-9-3.41-13.95-9.52-13.95-3.77,0-6.16,2.43-6.16,5.84a8.84,8.84,0,0,0,2.52,5.9l-.66,1-6.69-2.93a12.23,12.23,0,0,1-2.92-7.79c0-5.19,4.16-8.73,10.19-8.73,5.22,0,10.32,2.75,14.88,9a35.25,35.25,0,0,1,5.27,11.65h5.71l3,6.07-.62.84h-7.71l.18,39.29-.62.45-7.14-2.09.18-37.65h-4.65Z"/><path class="cls-2" d="M43.49,24.4l.62-.84H83.44l3,6.07-.62.84H77.69l.08,10.19-.75.93H68.47c-4.83,0-8.59.4-10.41,1.33-1.41.88-2,1.86-2,2.83s.62,1.47,2,1.47c2.48,0,8.73-2.13,12.53-2.13,3.55,0,5.59,1.86,7.71,5.18,1.73,2.75,2.44,4.87,2.44,7,0,4.48-4.39,9-11.56,10.77l0,.18c3.19,3,8.42,4,14.53,4l-2.79,8.28h-.62c-6.51,0-11.91-3.37-15.59-11.78a21,21,0,0,1-3.85.31,6.81,6.81,0,0,1-6-3.1,9,9,0,0,1-2-5c0-1.29.71-3.19,5.18-3.19a10.74,10.74,0,0,1,8,3.36c5.14-1.64,8.68-5.45,8.68-8.15,0-.62-.31-.88-1.24-.88-2,0-8.37,2.34-12.4,2.34-3.59,0-5.67-2.17-8.42-5.27-1.9-2.39-3.27-5-3.27-7.35,0-6.42,5.84-7.31,13.51-7.31h7.57V30.47H46.5Z"/></svg>