<svg id="Layer_1" data-name="Layer 1" xmlns="http://www.w3.org/2000/svg" viewBox="0 0 237.28 83.49"><defs><style>.cls-1{fill:#f5ff6c;}.cls-2{fill:#f40c0c;}</style></defs><path class="cls-1" d="M123.25,11.25l.62-.84h49.65l3,6.07-.62.84h-7.7l.17,39.29-.62.45-7-2,.13-24.85c-7.08,2-8.95,4.83-10.72,11h-.62l-5.89-4a17.76,17.76,0,0,1,3.28-7.62,7.15,7.15,0,0,0-3.15-.71c-4.34,0-8.06,4-8.06,9.08,0,5.76,4.48,9.35,13.07,12.18l-2.17,7-.58.22c-9-4.7-17.45-14.4-17.45-23.7,0-7.35,4.92-11.52,10.76-11.56,4.08,0,6.56,1.64,10.5,4.65a27,27,0,0,1,11.08-4V17.32H126.26Z"/><path class="cls-1" d="M173.08,68.52l0,.48a8.76,8.76,0,0,1-7.93,4.79c-5.31,0-11.73-5.81-11.73-11,0-4.74,4.25-8,9.39-8,6.64,0,13.06,4.7,23.74,15.51l-2.08,3H184c-7.4-8.06-13.47-12.63-17.81-12.63-4,0-6.78,2.57-6.78,5A2.44,2.44,0,0,0,162,68.12c2.08,0,4-1.29,5.76-4.3Z"/><path class="cls-2" d="M100.57,56.61l-.62.45-7.09-2L93,40.27a8.51,8.51,0,0,1-1.51.09,13.17,13.17,0,0,1-6.64-1.86l-.35.13a14.87,14.87,0,0,1,.35,3.23c0,6.07-4.92,10.72-11.69,10.72-9,0-16.13-7.66-22.46-20.24l.09-.4L54,29.72c5.18,9.35,9,14.71,16.35,14.71,3.8,0,8.37-2.83,8.37-7.17,0-2.31-1.33-3.77-4.39-3.77a24.21,24.21,0,0,0-8.24,2.08l-4.47-6.95.26-.84a61.16,61.16,0,0,1,9.53-2.57c2.92-1.16,4.47-3,4.47-5.05,0-1.55-.66-3.06-4-3.06-2.83,0-6.24,1.33-10.28,3.77L57.07,14l.17-.62A17.68,17.68,0,0,1,67.43,9.7c5.18,0,8.29,2.08,11.52,6.6a13.15,13.15,0,0,1,2.88,8,9.85,9.85,0,0,1-2.31,5.94,15.28,15.28,0,0,1,2,2.12c.76.8,2.62.93,4.48.93a14.15,14.15,0,0,0,7.13-2.08V17.32H86.17l-3-6.07.62-.84h40.88l3,6.07-.62.84h-7.7l.17,39.29-.62.45L111.77,55,112,17.32H100.39Z"/></svg>