<svg id="Layer_1" data-name="Layer 1" xmlns="http://www.w3.org/2000/svg" viewBox="0 0 237.28 83.49"><defs><style>.cls-1{fill:#f40c0c;}.cls-2{fill:#f5ff6c;}</style></defs><path class="cls-1" d="M97.2,1.84l6.07,6.07L97.2,14,91.13,7.91Z"/><path class="cls-2" d="M106,19.12l.62-.85h44.34l3,6.07-.62.84h-7.71l.18,39.3-.62.44L138,62.84l.18-37.66H125.28c.4,4.57.53,8.42.53,11.65,0,7-.75,11-2.34,13.78a4.73,4.73,0,0,1-4,2.44c-1.42,0-3.32-1.24-5.58-3.68-2-2.17-3.37-4.3-3.37-6.11a4,4,0,0,1,.93-2.62c1-1.15,3.28-1.68,6.91-2.12a43.37,43.37,0,0,0,.31-6,58.17,58.17,0,0,0-.44-7.36H109Z"/><path class="cls-2" d="M150.49,76.38l0,.48c-2,3.46-4.83,4.79-7.93,4.79-5.31,0-11.74-5.8-11.74-11,0-4.74,4.26-8,9.39-8,6.65,0,13.07,4.69,23.75,15.5l-2.08,3h-.54c-7.39-8.06-13.46-12.62-17.8-12.62-4,0-6.78,2.57-6.78,5A2.44,2.44,0,0,0,139.37,76c2.08,0,4-1.29,5.76-4.3Z"/><path class="cls-2" d="M149.51,19.12l.62-.85h31.76l3,6.07-.62.84H174.1a29,29,0,0,1,.48,5.45c0,8.86-4,13.34-9.65,16.48,3.67,4,9.48,7.58,16.34,10.85l-3.41,7.53h-.66c-9-6.73-16.13-13.86-20.33-21.66a11.51,11.51,0,0,1-1.69-4.56,4.71,4.71,0,0,1,.76-2.48c.75-1.2,2.12-1.86,4.16-1.86s4.12,0,5.49.18c1-1.29,1.64-3.28,1.64-6.56a13.89,13.89,0,0,0-.35-3.37H152.52Z"/><path class="cls-1" d="M58.75,21.91l.18-.62a17.56,17.56,0,0,1,10.19-3.72c5.18,0,8.28,2.08,11.51,6.6a13.06,13.06,0,0,1,2.88,8,9.89,9.89,0,0,1-2.3,5.94,14.82,14.82,0,0,1,2,2.13c.75.79,2.61.93,4.47.93a14.11,14.11,0,0,0,7.13-2.09V25.18H87.85l-3-6.06.62-.85h21.93l3,6.07-.62.84h-7.71l.18,39.3-.62.44-7.09-2,.13-14.75a8.4,8.4,0,0,1-1.5.09,13.08,13.08,0,0,1-6.65-1.86l-.35.13a14.87,14.87,0,0,1,.35,3.23c0,6.07-4.91,10.72-11.69,10.72-9,0-16.12-7.66-22.46-20.24l.09-.4,3.23-2.21c5.19,9.34,9,14.7,16.35,14.7,3.81,0,8.37-2.83,8.37-7.17,0-2.31-1.33-3.77-4.38-3.77a24.1,24.1,0,0,0-8.24,2.08l-4.48-7,.27-.84a61.87,61.87,0,0,1,9.52-2.57c2.93-1.15,4.48-3,4.48-5.05,0-1.55-.67-3.06-4-3.06-2.83,0-6.24,1.33-10.27,3.77Z"/></svg>