<svg id="Layer_1" data-name="Layer 1" xmlns="http://www.w3.org/2000/svg" viewBox="0 0 237.28 83.49"><defs><style>.cls-1{fill:#f5ff6c;}.cls-2{fill:#f40c0c;}</style></defs><path class="cls-1" d="M146.63,30.36l.62-.84h49.66l3,6.07-.62.84h-7.71l.18,39.29-.62.44-7-2,.13-24.85c-7.09,2-9,4.82-10.72,11h-.62l-5.89-4a17.75,17.75,0,0,1,3.28-7.62,7.3,7.3,0,0,0-3.15-.7c-4.34,0-8.06,4-8.06,9.08,0,5.76,4.47,9.34,13.07,12.18l-2.17,7-.58.22C160.37,71.69,152,62,152,52.69c0-7.36,4.92-11.52,10.76-11.57,4.08,0,6.56,1.64,10.5,4.66a26.8,26.8,0,0,1,11.08-4V36.43H149.65Z"/><path class="cls-1" d="M195.49,30.36l.62-.84h7.13c-.44-9-3.41-13.95-9.52-13.95-3.76,0-6.16,2.43-6.16,5.84a8.84,8.84,0,0,0,2.53,5.89l-.67,1-6.68-2.92a12.25,12.25,0,0,1-2.93-7.8c0-5.18,4.17-8.72,10.19-8.72,5.23,0,10.32,2.74,14.88,9a35.25,35.25,0,0,1,5.27,11.65h5.72l3,6.07-.62.84h-7.71l.18,39.29-.62.44L203,74.08l.18-37.65H198.5Z"/><path class="cls-1" d="M151.52,35.59l-3-6.07H92l-.62.84,3,6.07H105.5a32.5,32.5,0,0,1,.22,3.54,13.94,13.94,0,0,1-1.33,6.78c-1.51-.09-2.44-.13-3.5-.13-1.77,0-2.88.31-3.59,1a4.31,4.31,0,0,0-1.19,2.92,6.61,6.61,0,0,0,.71,2.61c9,20.29,25.37,24.12,38.92,19.39l.12-6.6c-9.4,6.16-26.23,1.5-29.39-8,3.94-3.45,6.47-8.28,6.47-15.06a60.21,60.21,0,0,0-.35-6.42h23.3V42.1a26.84,26.84,0,0,0-9-1.64c-7,0-10.89,4.08-10.89,9.92,0,3.81,2,7.31,5.44,10.55,3.55,3,6.91,4.38,10.1,4.38a9,9,0,0,0,4.35-1l-.18,9.84,7,2,.62-.44-.18-39.29h7.71ZM136,52.07a5.3,5.3,0,0,1-2.48,4.87,9.09,9.09,0,0,1-5.4,1.77c-3.28,0-5-1.68-5-4.39,0-4.34,4.74-7.26,9.61-7.26a18.7,18.7,0,0,1,3.32.22Z"/><path class="cls-2" d="M68.27,75.72l-.62.44-7.08-2,.13-14.76a8.51,8.51,0,0,1-1.51.09,13,13,0,0,1-6.64-1.86l-.36.14A14.13,14.13,0,0,1,52.55,61c0,6.07-4.92,10.72-11.7,10.72-9,0-16.12-7.66-22.45-20.24l.08-.4,3.24-2.22c5.18,9.35,9,14.71,16.34,14.71,3.81,0,8.38-2.84,8.38-7.18,0-2.3-1.33-3.76-4.39-3.76a23.92,23.92,0,0,0-8.24,2.08l-4.47-7,.26-.84a63.46,63.46,0,0,1,9.53-2.57c2.92-1.15,4.47-3,4.47-5.05,0-1.55-.66-3-4-3-2.84,0-6.25,1.33-10.28,3.76l-4.52-6.82.18-.62a17.58,17.58,0,0,1,10.19-3.72c5.18,0,8.28,2.08,11.52,6.6a13.13,13.13,0,0,1,2.88,8,9.82,9.82,0,0,1-2.31,5.93,14.82,14.82,0,0,1,2,2.13c.75.8,2.62.93,4.48.93a14.25,14.25,0,0,0,7.13-2.08V36.43H53.88l-3-6.07.63-.84H80.28C77,20.75,75,15.43,68.58,15.43A30.78,30.78,0,0,0,60,16.67h-.18L56.45,8.35A34.08,34.08,0,0,1,65.62,7.1c8.94,0,12.18,7,19.35,22.42h7.4l3,6.07-.62.84h-7.7l.17,39.29-.62.44-7.13-2.08.18-37.65H68.1Z"/></svg>