<svg id="Layer_1" data-name="Layer 1" xmlns="http://www.w3.org/2000/svg" viewBox="0 0 237.28 83.49"><defs><style>.cls-1{fill:#f5ff6c;}.cls-2{fill:#f40c0c;}</style></defs><path class="cls-1" d="M68.3,18.73l.62-.83h44.82l3,6-.62.84h-7.64l.18,38.94-.61.44-7-2,.22-15.63H87.14c0,5.67-.18,6.41-1.63,7.47a3.89,3.89,0,0,1-2.24.79c-1.45,0-3.6-1.19-6.41-3.82-2.46-2.38-3.9-4.75-3.9-7,0-2,1.05-3.86,7-5.13v-14H71.29ZM87,39h14.22V24.75H87Z"/><path class="cls-1" d="M112.34,18.73l.61-.83h19.58l3,6-.62.84h-7.63l.17,38.94-.61.44-7.07-2.06.17-37.32h-4.61Z"/><path class="cls-1" d="M131.13,18.73l.61-.83h31.48l3,6-.62.84H155.5a28.45,28.45,0,0,1,.48,5.4c0,8.78-3.95,13.21-9.57,16.33,3.64,4,9.39,7.51,16.2,10.76l-3.38,7.46h-.66c-9-6.67-16-13.74-20.15-21.47a11.43,11.43,0,0,1-1.67-4.52,4.65,4.65,0,0,1,.75-2.46c.74-1.18,2.1-1.84,4.12-1.84s4.09,0,5.45.17c1-1.27,1.62-3.25,1.62-6.49a13.59,13.59,0,0,0-.35-3.34H134.11Z"/><path class="cls-1" d="M161.82,18.73l.61-.83h41.76l3,6-.61.84h-7.64l.17,38.94-.61.44-7-2,.13-23.84h-3.56c-6.76,0-9.83.79-11.76,2.24a6.49,6.49,0,0,0-2.77,5.4c0,4.52,3.64,7.16,11.46,11.46l-3.16,6.94-.66.13c-7.29-5.31-14.05-14.71-14.05-22.61,0-4.7,2.37-10.89,14.4-10.89,3.69,0,7.16.09,10.14.17V24.75H164.8Z"/><path class="cls-2" d="M30.11,18.73l.61-.83h39l3,6-.61.84H64l.09,10.1-.75.92H54.87c-4.79,0-8.52.39-10.32,1.32-1.41.87-2,1.84-2,2.81s.62,1.44,1.94,1.44c2.45,0,8.64-2.1,12.42-2.1,3.51,0,5.53,1.84,7.64,5.13,1.71,2.73,2.41,4.83,2.41,7,0,4.44-4.34,8.92-11.45,10.67l-.05.18c3.16,2.94,8.34,4,14.4,4L67.12,74.4H66.5c-6.45,0-11.81-3.33-15.45-11.67a20.7,20.7,0,0,1-3.82.3A6.76,6.76,0,0,1,41.3,60a9,9,0,0,1-2-4.92c0-1.27.71-3.16,5.14-3.16a10.63,10.63,0,0,1,7.95,3.34c5.09-1.63,8.6-5.4,8.6-8.08,0-.61-.3-.88-1.23-.88-1.93,0-8.29,2.33-12.29,2.33-3.56,0-5.62-2.15-8.34-5.23C37.26,41,35.9,38.45,35.9,36.08c0-6.37,5.8-7.25,13.39-7.25H56.8V24.75H33.09Z"/></svg>