<svg id="Layer_1" data-name="Layer 1" xmlns="http://www.w3.org/2000/svg" viewBox="0 0 237.28 83.49"><defs><style>.cls-1{fill:#f5ff6c;}.cls-2{fill:#f40c0c;}</style></defs><path class="cls-1" d="M128.68,25.46l.62-.84h41.15l3,6.06-.62.85h-7.71l.18,39.29-.62.44-7-2,.17-11.87a11.51,11.51,0,0,1-6.07,1.77,15,15,0,0,1-8.63-3.1c-5.32-3.81-7.45-7.13-7.45-16.61,0-2.83.05-5.49.14-7.88h-4.12Zm14.88,9-.18,0c0,1.6,0,3.46,0,5.32,0,8.06.26,12.62,5,12.62A11.28,11.28,0,0,0,155,49.82Zm2.57-2.79,11.12,15,.22,0a9.69,9.69,0,0,0,.44-3.18v-12H146.26Z"/><path class="cls-1" d="M110.06,25.46l.62-.84h8.37c-2.17-2.62-3.36-5-3.36-7.67,0-6,5-12.53,15.32-12.53,9,0,18.7,4.74,29.68,15.59l-1.86,2.92h-.57C151,16.2,143.59,11.86,135.67,11.86c-7.76,0-12.63,4.65-12.63,9.92a6.33,6.33,0,0,0,.62,2.84h6.78l3,6.06-.62.85h-7.71l.18,39.29-.62.44-7.13-2.08.18-37.65h-4.66Z"/><path class="cls-2" d="M53.36,25.47l.63-.85h57.92l3,6.14-.63.85H88.78V44c3.63-.18,6.1-.89,7.49-2.06a4.55,4.55,0,0,1-.9-2.73c0-2.52,3-4.89,6-4.89,1.17,0,2.24,1.16,3.59,3.32,1.21,1.92,2.24,3.54,2.24,4.7a6.57,6.57,0,0,1-2.24,4.49q1.11,1.32,2,2.55c1.1,1.51,2.5,3.58,2.31,5.12-.44,3.6-14.36,5.57-14.38,7.53-.09,8.36,15.62,4.34,15.62,4.34a11.82,11.82,0,0,1-.41,5.79c-11.92,1.5-18.34-3.62-18.51-9.38,0,0-.53-5.32,4.23-7.76.84-.43,8-2.43,7.61-3.32a9.16,9.16,0,0,0-2.16-3c-3,1.66-7.12,2.43-12.37,2.51L89,71.37l-.62.45-7.22-2.1.4-14.08-.27,0c-5,3.63-9.55,6.73-13.89,9.37l-6.5-5.11v-.36C68,55,74.7,50.62,80.58,46.27c-2.6-2.38-5.16-3.45-7.67-3.45-2.29,0-5.65,1.3-9.86,3.94h-.36L57.53,40c4.67-3,8.3-4.58,12-4.58,4,0,7.18,1.66,12,6.15l.23-.14,0-9.77H56.41Z"/></svg>