<svg id="Layer_1" data-name="Layer 1" xmlns="http://www.w3.org/2000/svg" viewBox="0 0 237.28 84.36"><defs><style>.cls-1{fill:#f5ff6c;}.cls-2{fill:#f40c0c;}</style></defs><path class="cls-1" d="M70.6,24.63l.62-.84H103l3,6.07-.62.84H95.18a28.18,28.18,0,0,1,.49,5.45c0,8.86-4,13.33-9.66,16.48,3.68,4,9.48,7.57,16.35,10.85L99,71h-.67c-9-6.73-16.12-13.86-20.33-21.66a11.61,11.61,0,0,1-1.68-4.56A4.78,4.78,0,0,1,77,42.31c.75-1.2,2.13-1.86,4.17-1.86s4.12,0,5.49.17c1-1.28,1.64-3.27,1.64-6.55A13.35,13.35,0,0,0,88,30.7H73.61Z"/><path class="cls-1" d="M101.56,24.63l.62-.84h19.76l3,6.07-.62.84h-7.71L116.8,70l-.62.45-7.13-2.09.18-37.65h-4.66Z"/><path class="cls-1" d="M120.52,24.63l.62-.84h42l3,6.07-.62.84h-7.71L158,70l-.62.45-7-2,.18-9.22a16.43,16.43,0,0,1-8.37,2.31c-4.74,0-9-2-12.72-6.65-2.74-3.5-3.67-6.46-3.67-8.9,0-5.85,4.38-10.72,13.6-10.72a45.8,45.8,0,0,1,11.16,1.64V30.7h-27ZM150.6,43a30.54,30.54,0,0,0-6.65-.71c-7.22,0-11,3.55-11,7.8,0,2.39,1.95,4.21,6.51,4.21a13.82,13.82,0,0,0,8.81-3.1,5.16,5.16,0,0,0,2.31-4.39Z"/><path class="cls-1" d="M161.72,24.63l.62-.84h42.12l3,6.07-.62.84h-7.7L199.32,70l-.62.45-7-2,.13-24.06h-3.58c-6.83,0-9.93.8-11.88,2.26a6.6,6.6,0,0,0-2.79,5.45c0,4.56,3.68,7.22,11.56,11.56l-3.18,7-.67.14c-7.35-5.36-14.17-14.84-14.17-22.82,0-4.74,2.39-11,14.53-11,3.72,0,7.22.09,10.23.17V30.7H164.73Z"/><path class="cls-2" d="M29.8,24.63l.62-.84H59.88C56.65,15,54.61,9.7,48.19,9.7A30.83,30.83,0,0,0,39.59,11h-.18L36.05,2.62a34.08,34.08,0,0,1,9.17-1.24c9,0,12.18,7,19.35,22.41H72l3,6.07-.62.84H66.75V46.52c0,6.2-2,9.47-5.94,11.16h-.4l-6.07-5.76c3.19-2.22,4.87-5.05,4.87-9.75V30.7H45.08v9.88c0,7,.18,10.14,1.69,12.23,3.59,4.29,17.23,8,20.33,11.91s5,8.28,5,11.16-2,6.16-5.58,8h-.31q-3.72-3.14-6.91-6.38c4.25-2.39,6.51-4.56,6.51-6.29a2.07,2.07,0,0,0-.71-1.33c-1.55-1.51-12-5.09-17.76-9.26a33.44,33.44,0,0,1-6-6.07C39,51.48,36.89,48.2,36.89,40.36V30.7H32.81Z"/></svg>