<svg id="Layer_1" data-name="Layer 1" xmlns="http://www.w3.org/2000/svg" viewBox="0 0 237.28 83.49"><defs><style>.cls-1{fill:#f5ff6c;}.cls-2{fill:#f40c0c;}</style></defs><path class="cls-1" d="M74.76,19.26l.62-.84h41.15l3,6.07-.62.84h-7.71l.18,39.29-.62.45-7-2,.18-11.87a11.62,11.62,0,0,1-6.07,1.77,15.06,15.06,0,0,1-8.64-3.1C83.89,46,81.76,42.7,81.76,33.22c0-2.84,0-5.5.13-7.89H77.77ZM104,25.33H89.65c-.09,2.31-.14,5.14-.14,8.29,0,8,.27,12.53,4.88,12.53,2.17,0,4.43-.93,6.86-2.83A7.22,7.22,0,0,0,104,37.43Z"/><path class="cls-1" d="M115.12,19.26l.62-.84h42l3,6.07-.62.84h-7.71l.18,39.29-.62.45-7-2,.18-9.21a16.52,16.52,0,0,1-8.38,2.3c-4.74,0-9-2-12.71-6.65-2.75-3.5-3.68-6.46-3.68-8.9,0-5.85,4.39-10.72,13.6-10.72a45.87,45.87,0,0,1,11.17,1.64V25.33h-27ZM145.19,37.6a30.38,30.38,0,0,0-6.64-.71c-7.22,0-11,3.55-11,7.8,0,2.39,1.95,4.21,6.52,4.21a13.83,13.83,0,0,0,8.81-3.1,5.18,5.18,0,0,0,2.3-4.39Z"/><path class="cls-1" d="M156.31,19.26l.62-.84h41.86l3,6.07-.62.84h-7.7l.17,39.29-.62.45-7-2,.22-21c-2.08-.17-3.63-.22-5.71-.22a25,25,0,0,0-6.47.67,41,41,0,0,1,.4,4.87c0,1.5-.18,2.66-1.24,3.54a4,4,0,0,1-2.61,1c-1.55,0-3.55-1.29-6.07-3.9s-3.72-4.92-3.72-6.78c0-1.15.66-7,12.31-7a95.62,95.62,0,0,1,13.07,1.06V25.33H159.32Z"/><path class="cls-2" d="M35.47,19.26l.62-.84H76.18l3,6.07-.62.84H68.83A35,35,0,0,1,69.45,31a13.64,13.64,0,0,1-1.91,7.13C72.33,43.67,74,47.48,74,51.33c0,6.07-5.23,12.27-14,12.27-7.14,0-14.84-6.42-21-21V42l3.54-2c4.12,9.79,9.21,15.55,15.1,15.55,5.63,0,10.06-4.57,10.06-9.17,0-2.44-2-3.59-5.18-3.59a37.55,37.55,0,0,0-9.08,1.82L48.76,38l.44-.84c9.62-2.13,13.12-3.23,13.12-9.52a18.74,18.74,0,0,0-.14-2.31H38.48Z"/></svg>