<svg id="Layer_1" data-name="Layer 1" xmlns="http://www.w3.org/2000/svg" viewBox="0 0 237.28 84.36"><defs><style>.cls-1{fill:#f5ff6c;}.cls-2{fill:#f40c0c;}</style></defs><path class="cls-1" d="M82.38,24.63l.62-.84h49.66l3,6.07-.62.84h-7.71L127.52,70l-.62.45-7-2L120,43.55c-7.09,2-8.95,4.83-10.72,11h-.62l-5.89-4A17.64,17.64,0,0,1,106,42.93a7.18,7.18,0,0,0-3.15-.71c-4.34,0-8.06,4-8.06,9.08,0,5.76,4.47,9.35,13.07,12.18l-2.17,7-.58.22C96.11,66,87.7,56.26,87.7,47c0-7.36,4.91-11.52,10.76-11.56,4.08,0,6.56,1.64,10.5,4.65a26.94,26.94,0,0,1,11.07-4V30.7H85.39Z"/><path class="cls-1" d="M131.24,24.63l.62-.84h19.76l3,6.07-.62.84H146.3L146.48,70l-.62.45-7.13-2.09.17-37.65h-4.65Z"/><path class="cls-1" d="M150.2,24.63l.62-.84h41.86l3,6.07-.62.84h-7.71L187.54,70l-.62.45-7-2,.22-21c-2.08-.18-3.63-.22-5.71-.22a25.56,25.56,0,0,0-6.47.66,43.44,43.44,0,0,1,.4,4.88c0,1.5-.18,2.65-1.24,3.54a4.14,4.14,0,0,1-2.62,1c-1.55,0-3.54-1.28-6.07-3.89s-3.72-4.92-3.72-6.78c0-1.15.67-7,12.32-7a95.62,95.62,0,0,1,13.07,1.06V30.7H153.21Z"/><path class="cls-2" d="M41.58,24.63l.62-.84H71.66C68.43,15,66.39,9.7,60,9.7A30.89,30.89,0,0,0,51.37,11H51.2L47.83,2.62A34.14,34.14,0,0,1,57,1.38c9,0,12.18,7,19.36,22.41H83.8l3,6.07-.62.84H78.53V46.52c0,6.2-2,9.47-5.94,11.16h-.4l-6.06-5.76C69.31,49.7,71,46.87,71,42.17V30.7H56.87v9.88c0,7,.17,10.14,1.68,12.23,3.59,4.29,17.23,8,20.33,11.91s5,8.28,5,11.16-2,6.16-5.58,8H78Q74.23,80.72,71,77.48c4.25-2.39,6.51-4.56,6.51-6.29a2.07,2.07,0,0,0-.71-1.33c-1.55-1.51-12-5.09-17.76-9.26a33.44,33.44,0,0,1-6-6.07c-2.35-3.05-4.43-6.33-4.43-14.17V30.7H44.6Z"/></svg>