<svg id="Layer_1" data-name="Layer 1" xmlns="http://www.w3.org/2000/svg" viewBox="0 0 270.76 83.49"><defs><style>.cls-1{fill:#f5ff6c;}.cls-2{fill:#f40c0c;}</style></defs><path class="cls-1" d="M55.42,23.12l.62-.84H96.26l3,6.07-.62.84H89.53l0,12.71-.66.93H83.82c-11.65,0-15.51,4-15.51,8.77a7.07,7.07,0,0,0,7.4,7.49,13,13,0,0,0,7.53-2.17A6.68,6.68,0,0,1,82,52.84c0-3.68,2.79-5.8,6.29-5.8a7.41,7.41,0,0,1,7.22,7.57c0,2.62-1.42,4.92-3.9,7,3.85,3.63,6.2,6.69,6.2,10.85,0,3.68-2.26,7-5.67,9.21h-.31L84.35,75.7c3.81-2.39,6.11-5,6.16-7.71a6.34,6.34,0,0,0-2.09-4.61A18.38,18.38,0,0,1,66.9,60.19c-3.11-2.92-6.21-7.17-6.21-12.35C60.69,42.12,63.88,36,76.15,36h4.48c1.19,0,1.59-.49,1.59-1.68V29.19H58.43Z"/><path class="cls-1" d="M94.85,23.12l.62-.84h8.37c-2.17-2.62-3.37-5-3.37-7.67,0-6.2,5.27-12.75,16-12.75,9.74,0,20,4.87,31.4,15.81l-1.86,2.92h-.57C137.81,13.77,129.93,9.34,121.6,9.3a18.12,18.12,0,0,0-4.56.53c-5.85,1.33-9.21,5.27-9.21,9.61a6.19,6.19,0,0,0,.62,2.84h6.77l3,6.07-.62.84h-7.7l.17,39.29-.62.44-7.13-2.08.18-37.65H97.86Z"/><path class="cls-1" d="M113.81,23.12l.62-.84h42l3,6.07-.62.84H151.1l.18,39.29-.62.44-7-2,.17-9.21a16.36,16.36,0,0,1-8.37,2.3c-4.74,0-9-2-12.71-6.64C120,49.83,119,46.86,119,44.42c0-5.84,4.39-10.72,13.6-10.72a45.74,45.74,0,0,1,11.16,1.64V29.19h-27Zm16,19A7.09,7.09,0,0,0,126,48.37c0,2.43,2.26,4.69,6.87,4.69a15.06,15.06,0,0,0,4-.53ZM140.52,51c2.56-1.68,3.36-3.32,3.36-5.4V41.19a30.38,30.38,0,0,0-6.64-.71,21.54,21.54,0,0,0-3.55.27Z"/><path class="cls-1" d="M155,23.12l.62-.84h49.66l3,6.07-.62.84H200l.18,39.29-.62.44-7-2L192.61,42c-7.09,2-9,4.83-10.72,11h-.62l-5.89-4a17.87,17.87,0,0,1,3.27-7.62,7.14,7.14,0,0,0-3.14-.71c-4.34,0-8.06,4-8.06,9.08,0,5.76,4.47,9.35,13.07,12.19l-2.18,7-.57.22c-9-4.69-17.45-14.39-17.45-23.7,0-7.35,4.91-11.51,10.76-11.56,4.08,0,6.56,1.64,10.5,4.65a26.81,26.81,0,0,1,11.07-4V29.19H158Z"/><path class="cls-1" d="M203.86,23.12l.62-.84h19.76l3,6.07-.62.84h-7.71l.18,39.29-.62.44-7.13-2.08.17-37.65h-4.65Z"/><path class="cls-1" d="M222.82,23.12l.62-.84h42l3,6.07-.62.84h-7.7l.17,39.29-.62.44-7-2,.18-9.21a16.42,16.42,0,0,1-8.38,2.3c-4.73,0-9-2-12.71-6.64-2.74-3.5-3.67-6.47-3.67-8.91,0-5.84,4.38-10.72,13.59-10.72a45.81,45.81,0,0,1,11.17,1.64V29.19h-27ZM252.9,41.46a29.94,29.94,0,0,0-6.65-.71c-7.22,0-11,3.54-11,7.79,0,2.4,1.94,4.21,6.51,4.21a13.82,13.82,0,0,0,8.81-3.1,5.17,5.17,0,0,0,2.31-4.38Z"/><path class="cls-2" d="M1.51,23.12l.62-.84H56.84l3,6.07-.62.84H34.82a35,35,0,0,1,.62,5.62,11.78,11.78,0,0,1-2.3,7.49,20.36,20.36,0,0,1,1.33,1.55c3.15-2,6.16-3.28,9.26-3.28,2.79,0,5.49,1.55,7.93,4.16,3.28,3.42,4.47,6.69,4.47,10.1,0,4.35-1.77,8.77-4.47,13.2h-.53L44,63.38c3.55-5.27,5.72-9.74,5.72-12.75,0-2.09-.71-3.1-2.53-3.1-2.57,0-5.45,1.55-8.41,4.16a14.39,14.39,0,0,1,.57,4c0,6.64-6.11,11.78-13.37,11.78S11.26,61,5.06,46.51v-.62l3.54-2c4.12,9.79,9.21,15.55,15.11,15.55,4.69,0,9.61-4.47,9.61-9.17,0-2.43-1.55-3.59-4.74-3.59A37.55,37.55,0,0,0,19.5,48.5l-4.7-6.64.45-.85c9.61-2.12,13.11-3.23,13.11-9.52a18.58,18.58,0,0,0-.14-2.3H4.53Z"/></svg>