<svg id="Layer_1" data-name="Layer 1" xmlns="http://www.w3.org/2000/svg" viewBox="0 0 237.28 83.49"><defs><style>.cls-1{fill:#f5ff6c;}.cls-2{fill:#f40c0c;}</style></defs><path class="cls-1" d="M70.21,19l.62-.84h56l3,6-.61.84h-7.65l.18,39-.62.43-7-2,.17-9.75a8.91,8.91,0,0,1-4.3,1c-3.17,0-6.51-1.41-10-4.35-3.43-3.21-5.41-6.68-5.41-10.46,0-5.8,3.91-9.85,10.81-9.85a26.63,26.63,0,0,1,8.92,1.63V25H91.22a59.12,59.12,0,0,1,.35,6.37c0,6.72-2.51,11.51-6.42,14.94,4.57,4.39,13.06,14.53,31.59,11.1l4.4,7a49.17,49.17,0,0,1-21.11.73C95.68,64.3,80.23,50,75.57,41.65a6.71,6.71,0,0,1-.7-2.6,4.3,4.3,0,0,1,1.19-2.9c.7-.7,1.8-1,3.55-1,1.06,0,2,0,3.48.14a13.92,13.92,0,0,0,1.31-6.73A31.78,31.78,0,0,0,84.19,25h-11ZM114.42,35.8a18.49,18.49,0,0,0-3.3-.22c-4.83,0-9.53,2.9-9.53,7.21,0,2.68,1.76,4.35,5,4.35A9,9,0,0,0,112,45.38a5.24,5.24,0,0,0,2.46-4.83Z"/><path class="cls-1" d="M125.45,19l.62-.84h41.66l3,6-.61.84h-7.65l.18,39-.62.43-7-2,.17-9.14a16.23,16.23,0,0,1-8.3,2.29c-4.71,0-9-2-12.62-6.59-2.72-3.48-3.64-6.42-3.64-8.84,0-5.8,4.35-10.63,13.49-10.63a45.42,45.42,0,0,1,11.07,1.62V25H128.44Zm15.91,18.85a7,7,0,0,0-3.78,6.19c0,2.42,2.24,4.66,6.81,4.66a15.24,15.24,0,0,0,4-.52ZM152,46.66c2.55-1.67,3.34-3.3,3.34-5.36V37a30,30,0,0,0-6.59-.71,21.16,21.16,0,0,0-3.52.27Z"/><path class="cls-1" d="M166.32,19l.61-.84h19.6l3,6-.61.84h-7.65l.18,39-.62.43-7.07-2.06L173.92,25h-4.61Z"/><path class="cls-1" d="M185.13,19l.61-.84h31.51l3,6-.62.84h-10.1a28.45,28.45,0,0,1,.48,5.4c0,8.79-3.95,13.23-9.58,16.35,3.65,4,9.4,7.51,16.22,10.77L213.25,65h-.66c-9-6.68-16-13.76-20.17-21.49A11.62,11.62,0,0,1,190.75,39a4.74,4.74,0,0,1,.75-2.46c.75-1.19,2.11-1.85,4.13-1.85s4.09,0,5.45.18c1-1.27,1.63-3.25,1.63-6.5a13.11,13.11,0,0,0-.36-3.34H188.12Z"/><circle class="cls-1" cx="79.85" cy="59.79" r="5.24"/><path class="cls-2" d="M23.36,21.78l.18-.61a17.45,17.45,0,0,1,10.11-3.69c5.14,0,8.22,2.06,11.42,6.55a13,13,0,0,1,2.86,8,9.82,9.82,0,0,1-2.28,5.89A15.13,15.13,0,0,1,47.58,40c.75.79,2.59.92,4.44.92a14,14,0,0,0,7.07-2.07V25H52.24l-3-6,.61-.84H71.62l3,6L74,25H66.34l.18,39-.62.43-7-2L59,47.8a8.28,8.28,0,0,1-1.49.09A13,13,0,0,1,50.92,46l-.35.13a14.68,14.68,0,0,1,.35,3.21C50.92,55.4,46,60,39.32,60c-8.92,0-16-7.61-22.28-20.09l.08-.39,3.21-2.2c5.14,9.27,8.88,14.59,16.22,14.59,3.78,0,8.3-2.81,8.3-7.12,0-2.28-1.31-3.73-4.35-3.73a24,24,0,0,0-8.17,2.06l-4.44-6.9.26-.83a61.56,61.56,0,0,1,9.45-2.55c2.9-1.14,4.44-2.95,4.44-5,0-1.54-.66-3-4-3-2.81,0-6.19,1.31-10.19,3.73Z"/></svg>