<svg id="Layer_1" data-name="Layer 1" xmlns="http://www.w3.org/2000/svg" width="237.28" height="83.49" viewBox="0 0 237.28 83.49">
  <defs>
    <style>
      .cls-1 {
        fill: #f5ff6c;
      }

      .cls-2 {
        fill: #f40c0c;
      }
    </style>
  </defs>
  <g>
    <g>
      <path class="cls-1" d="M101.32,31.27l.62-.85h53.64l3,6.07-.62.84h-7.7l.17,39.29-.62.45-7-2L143,51.24h-9.17c2.35,4,3.23,6.6,3.23,9.75,0,4.61-3.72,9.48-10.41,9.48-8.15,0-15.59-7.18-22.19-23.57l4.07-2c4.7,11.88,9.71,17.28,15.42,17.28A7,7,0,0,0,131,55.5c0-2.53-2.48-4-7.8-4.7l-2.79-6.33.62-.76H143V37.33H104.33Z"/>
      <path class="cls-1" d="M154.16,31.27l.62-.85h19.76l3,6.07-.62.84h-7.71l.18,39.29-.62.45L161.65,75l.18-37.66h-4.65Z"/>
      <path class="cls-1" d="M173.12,31.27l.62-.85H205.5l3,6.07-.62.84H197.71a29,29,0,0,1,.48,5.45c0,8.86-4,13.34-9.65,16.48,3.67,4,9.48,7.58,16.34,10.85l-3.41,7.53h-.66c-9-6.73-16.13-13.86-20.33-21.66a11.51,11.51,0,0,1-1.69-4.56,4.71,4.71,0,0,1,.76-2.48c.75-1.2,2.12-1.86,4.16-1.86s4.12,0,5.49.18c1-1.29,1.64-3.28,1.64-6.56a13.84,13.84,0,0,0-.35-3.37H176.13Z"/>
      <path class="cls-2" d="M35.14,34.06l.18-.62a17.56,17.56,0,0,1,10.19-3.72c5.18,0,8.28,2.08,11.51,6.6a13.06,13.06,0,0,1,2.88,8,9.89,9.89,0,0,1-2.3,5.94,15.28,15.28,0,0,1,1.95,2.12c.75.8,2.61.94,4.47.94a14.11,14.11,0,0,0,7.13-2.09V37.33H64.24l-3-6.06.62-.85H92.24l.13-.22C88.61,26,84.8,23.38,80.94,23.38c-2.92,0-6.29,1.42-9.92,3.41l-.4-.22-4.16-6.64c3.14-1.95,6.73-3.37,9.65-3.37,4.17,0,8.24,2.08,14,6.82l.22-.18A51.22,51.22,0,0,0,88.78,17c-1.15-3.32-3.23-4.74-8-4.74a28.59,28.59,0,0,0-6.65.84l-.39-.22L71.51,5.13a34.06,34.06,0,0,1,7.13-.75c6,0,8.64,2.52,11.83,8.19C93,17.05,94.36,22,95.83,30.42h6.91l3,6.07-.62.84H97.42l.18,39.29-.62.45L89.85,75,90,37.33H78.46l.18,39.29-.62.45-7.09-2,.13-14.75a8.4,8.4,0,0,1-1.5.09,13.08,13.08,0,0,1-6.65-1.86l-.35.13a14.87,14.87,0,0,1,.35,3.23c0,6.07-4.91,10.72-11.69,10.72-9,0-16.12-7.66-22.46-20.24l.09-.4,3.23-2.21c5.19,9.34,9,14.7,16.35,14.7,3.81,0,8.37-2.83,8.37-7.17,0-2.31-1.33-3.77-4.38-3.77a24.1,24.1,0,0,0-8.24,2.08L39.7,48.63l.27-.84a60.75,60.75,0,0,1,9.52-2.57c2.93-1.15,4.48-3,4.48-5,0-1.55-.67-3.06-4-3.06-2.83,0-6.24,1.33-10.27,3.77Z"/>
    </g>
    <circle class="cls-1" cx="120.25" cy="75.73" r="3.39"/>
  </g>
</svg>
