<svg id="Layer_1" data-name="Layer 1" xmlns="http://www.w3.org/2000/svg" viewBox="0 0 237.28 83.49"><defs><style>.cls-1{fill:#f5ff6c;}.cls-2{fill:#f40c0c;}</style></defs><path class="cls-1" d="M104,12l.36.13c2.17,6.47,5.36,9.57,9.48,9.57,3.9,0,7-3,9-9.74l.49-.09,4.56,4.3c-1.42,8-6.38,12.66-12.31,12.66-6.34,0-11.08-4.78-14.18-14.39Zm9.88-6.73,5.1,5.09-5.1,5-5-5Z"/><path class="cls-1" d="M124.33,33.28l.62-.84h38.89l3,6.12-.62.79h-8l.05,12.76-.67.93h-5.09C141.92,53,137,56.1,137,62c0,3.67,2.75,6.64,7.8,6.64,4.65,0,9.7-2.17,14.57-7.35L164.29,68l-.14.71A20.47,20.47,0,0,1,149,75.81a19.56,19.56,0,0,1-14-6c-3.64-3.9-5.63-7.71-5.63-11.65,0-5.8,3.15-12,15.5-12h4.48c1.19,0,1.59-.49,1.59-1.68V39.35H127.34Z"/><path class="cls-2" d="M70.42,33.28l.62-.84h54.71l3,6.07-.62.84H103.73a35,35,0,0,1,.62,5.63,11.75,11.75,0,0,1-2.3,7.48c.49.54.93,1,1.33,1.55,3.14-2,6.16-3.27,9.26-3.27,2.79,0,5.49,1.55,7.93,4.16C123.84,58.31,125,61.59,125,65c0,4.34-1.77,8.77-4.47,13.2H120l-7.13-4.65c3.55-5.27,5.72-9.75,5.72-12.76,0-2.08-.71-3.1-2.53-3.1-2.57,0-5.45,1.55-8.42,4.17a14.35,14.35,0,0,1,.58,4c0,6.65-6.11,11.78-13.38,11.78s-14.7-6.42-20.9-21v-.62l3.54-2c4.12,9.79,9.21,15.55,15.1,15.55,4.7,0,9.62-4.48,9.62-9.17,0-2.44-1.55-3.59-4.74-3.59a37.55,37.55,0,0,0-9.08,1.82L83.71,52l.44-.84c9.62-2.13,13.12-3.23,13.12-9.52a18.74,18.74,0,0,0-.14-2.31H73.43Z"/></svg>