<svg id="Layer_1" data-name="Layer 1" xmlns="http://www.w3.org/2000/svg" viewBox="0 0 237.28 83.49"><defs><style>.cls-1{fill:#f5ff6c;}.cls-2{fill:#f40c0c;}</style></defs><path class="cls-1" d="M114.87,15.7l.65-.87h54.72l3.13,6.3-.65.87h-8l.18,40.76-.64.45-7.4-2.16.18-39h-7.62V37.16c0,11.53-7,13.37-11.26,13.37a15.51,15.51,0,0,1-10.39-4.09c-3-2.75-5.37-6-5.37-14.38,0-2.62,0-5.79.09-10.06H118ZM130.4,22c-.09,4.41-.09,8.36-.09,11.53,0,7.63,1.66,10.25,4.69,10.25,3.44,0,6.89-2.67,6.89-10.48V22Z"/><path class="cls-2" d="M56.59,15.6l.64-.87h58.88l3.1,6.24-.63.87h-26V34.42c3.69-.18,6.19-.91,7.61-2.1a4.62,4.62,0,0,1-.91-2.78c0-2.55,3-5,6.06-5,1.18,0,2.28,1.18,3.64,3.37,1.23,2,2.28,3.6,2.28,4.78A6.65,6.65,0,0,1,109,37.29c.75.9,1.43,1.76,2,2.59,1.13,1.55,2.55,3.64,2.36,5.21-.45,3.66-14.61,5.67-14.63,7.66-.09,8.5,15.89,4.41,15.89,4.41a12,12,0,0,1-.42,5.88c-12.11,1.53-18.64-3.67-18.82-9.53,0,0-.54-5.41,4.3-7.89.85-.44,8.14-2.47,7.74-3.37a9.34,9.34,0,0,0-2.19-3c-3,1.69-7.25,2.46-12.58,2.55l.13,20.47-.64.46-7.33-2.15.41-14.31-.28,0c-5.06,3.69-9.71,6.83-14.13,9.52l-6.61-5.19v-.37c7.21-4.6,14-9,20-13.44-2.64-2.42-5.24-3.51-7.79-3.51-2.32,0-5.74,1.32-10,4h-.36l-5.24-6.93c4.74-3.06,8.43-4.65,12.17-4.65,4.1,0,7.29,1.69,12.17,6.24l.22-.13,0-9.94H59.69Z"/></svg>