<svg id="Layer_1" data-name="Layer 1" xmlns="http://www.w3.org/2000/svg" viewBox="0 0 237.28 83.49"><defs><style>.cls-1{fill:#f5ff6c;}.cls-2{fill:#f40c0c;}</style></defs><path class="cls-1" d="M99.17,32.29l.62-.84h41.15l3,6.06-.62.85h-7.7l.17,39.29-.62.44-7-2,.18-11.87A11.56,11.56,0,0,1,122.25,66a15,15,0,0,1-8.64-3.1c-5.31-3.81-7.44-7.13-7.44-16.61,0-2.83,0-5.49.13-7.88h-4.12Zm14.88,9-.17,0c0,1.6,0,3.46,0,5.32,0,8.06.27,12.62,5,12.62a11.26,11.26,0,0,0,6.69-2.61Zm2.57-2.79,11.12,15,.22,0a9.78,9.78,0,0,0,.45-3.19v-12H116.76Z"/><path class="cls-1" d="M139.52,32.29l.62-.84h8.38c-2.17-2.62-3.37-5-3.37-7.71,0-6.69,6-13.29,17.85-13.29s23.35,5.27,35.79,16.34l-1.9,3h-.58c-8.72-7.08-17.85-11.82-27.24-11.82-11.07,0-16.57,5.27-16.57,10.71a6.27,6.27,0,0,0,.62,2.8h6.78l3,6.06-.62.85h-7.71l.18,39.29-.62.44L147,76l.18-37.65h-4.65Z"/><path class="cls-1" d="M186.7,32.29l.62-.84h20.33l3,6.06-.62.85h-7.7l.17,39.29-.62.44-7-2,.18-9.12a18.27,18.27,0,0,1-8,1.9c-3.41,0-6.73-1.37-10.28-4.78-3.19-3.15-5-6.47-5-10.1a7.81,7.81,0,0,1,1.11-3.9c-4.61-3.85-9-7.8-9-12.8,0-6,4.78-9.48,10-9.48a9.65,9.65,0,0,1,7.13,3.06,45.2,45.2,0,0,1,4.56,8.72l-2.57,1.6c-1.55-3.15-3.28-5.58-6.42-5.58a5.72,5.72,0,0,0-5.85,5.49c0,2.88,2.39,4.38,6.25,4.38,1.9,0,5-.71,9.52-1.41l4,6.51-.35.48c-10.06,1.29-11.52,5.32-11.52,7.31,0,1.73,1.68,3.24,4.74,3.24a15.43,15.43,0,0,0,6.55-1.64c2.93-1.42,5.1-3.24,5.1-7V38.36h-5.23Z"/><path class="cls-2" d="M33,35.08l.18-.62a17.56,17.56,0,0,1,10.19-3.72c5.18,0,8.28,2.08,11.51,6.6a13.06,13.06,0,0,1,2.88,8,9.83,9.83,0,0,1-2.3,5.94,14.82,14.82,0,0,1,1.95,2.13c.75.79,2.61.93,4.47.93A14.11,14.11,0,0,0,69,52.26V38.36H62.09l-3-6.07.62-.84H90.09l.13-.23C86.46,27,82.65,24.4,78.79,24.4c-2.92,0-6.29,1.42-9.92,3.41l-.4-.22L64.31,21C67.45,19,71,17.58,74,17.58c4.16,0,8.23,2.08,14,6.82l.22-.17A51,51,0,0,0,86.63,18c-1.15-3.32-3.23-4.74-8-4.74a28.52,28.52,0,0,0-6.64.84l-.4-.22L69.36,6.15a34.06,34.06,0,0,1,7.13-.75c6,0,8.64,2.52,11.83,8.19,2.52,4.48,3.9,9.4,5.36,17.86h6.91l3,6.06-.62.85H95.27l.18,39.29-.62.44L87.7,76l.17-37.65H76.31l.18,39.29-.62.44-7.09-2,.14-14.75a8.51,8.51,0,0,1-1.51.09,13,13,0,0,1-6.64-1.86l-.36.13a14.88,14.88,0,0,1,.36,3.24c0,6.06-4.92,10.72-11.7,10.72-9,0-16.12-7.67-22.46-20.25l.09-.4,3.23-2.21c5.19,9.35,9,14.71,16.35,14.71,3.81,0,8.37-2.84,8.37-7.18,0-2.3-1.33-3.77-4.38-3.77A23.92,23.92,0,0,0,42,56.61l-4.48-7,.27-.84a61.87,61.87,0,0,1,9.52-2.57c2.93-1.15,4.48-3,4.48-5.05,0-1.55-.67-3.06-4-3.06-2.84,0-6.25,1.33-10.28,3.77Z"/></svg>