<svg id="Layer_1" data-name="Layer 1" xmlns="http://www.w3.org/2000/svg" viewBox="0 0 237.28 83.49"><defs><style>.cls-1{fill:#f5ff6c;}.cls-2{fill:#f40c0c;}</style></defs><path class="cls-1" d="M77.09,18.25l.62-.85h47.57l3,6.07-.62.84H120l.17,39.29-.62.45-7-2,.22-15.33a50.3,50.3,0,0,1-5.93.31A25.07,25.07,0,0,1,96.4,44.6a23.18,23.18,0,0,1-5,4.61c3.5,3.59,8.86,6.95,15.63,10.19l-3.32,7.39h-.66c-7.4-5.62-13.78-11.65-18.12-18.25-2.26-3.41-3.28-6.06-3.28-7.84a4.33,4.33,0,0,1,4.52-4.65,36.81,36.81,0,0,1,3.72.27,22.3,22.3,0,0,0,.66-5.85A31.75,31.75,0,0,0,90,24.31H80.1Zm19.8,6.06A51.18,51.18,0,0,1,97.82,34a37,37,0,0,1-.22,4.56,38.77,38.77,0,0,0,7.13.71,33,33,0,0,0,7.93-.84V24.31Z"/><path class="cls-1" d="M123.87,18.25l.62-.85h45.22l3,6.07-.62.84h-7.7l.17,39.29-.62.45-7-2,.22-15.77H142.87c0,5.71-.18,6.47-1.64,7.53a3.92,3.92,0,0,1-2.26.8c-1.46,0-3.63-1.2-6.47-3.86-2.48-2.39-3.94-4.78-3.94-7,0-2,1.06-3.9,7-5.18V24.31h-8.72Zm18.87,20.46h14.35V24.31H142.74Z"/><path class="cls-1" d="M168.29,18.25l.62-.85h19.76l3,6.07-.62.84h-7.7l.17,39.29-.62.45L175.78,62,176,24.31h-4.65Z"/><path class="cls-1" d="M187.25,18.25l.62-.85h41.86l3,6.07-.62.84h-7.71l.18,39.29-.63.45-7-2,.22-21c-2.08-.17-3.63-.22-5.71-.22a25,25,0,0,0-6.47.67,41,41,0,0,1,.4,4.87c0,1.51-.18,2.66-1.24,3.54a4,4,0,0,1-2.61,1c-1.55,0-3.55-1.29-6.07-3.9s-3.72-4.92-3.72-6.78c0-1.15.66-7,12.31-7a95.62,95.62,0,0,1,13.07,1.06V24.31H190.27Z"/><path class="cls-2" d="M54.41,63.6l-.62.45L46.7,62l.13-14.75a8.4,8.4,0,0,1-1.5.09,13.08,13.08,0,0,1-6.65-1.86l-.35.13a14.87,14.87,0,0,1,.35,3.23c0,6.07-4.91,10.72-11.69,10.72-9,0-16.12-7.66-22.46-20.24l.09-.4,3.23-2.21c5.19,9.34,9,14.7,16.35,14.7,3.81,0,8.37-2.83,8.37-7.17,0-2.31-1.33-3.77-4.38-3.77A24.1,24.1,0,0,0,20,42.56l-4.48-7,.27-.84a60.75,60.75,0,0,1,9.52-2.57c2.93-1.15,4.48-3,4.48-5.05,0-1.55-.67-3.06-4-3.06-2.83,0-6.24,1.33-10.27,3.77L10.91,21l.18-.62A17.55,17.55,0,0,1,21.27,16.7c5.19,0,8.29,2.08,11.52,6.6a13.06,13.06,0,0,1,2.88,8,9.89,9.89,0,0,1-2.3,5.94,15.28,15.28,0,0,1,2,2.12c.75.8,2.61.94,4.47.94a14.11,14.11,0,0,0,7.13-2.09V24.31H40l-3-6.06.62-.85H78.51l3,6.07-.62.84H73.19l.18,39.29-.62.45L65.62,62l.17-37.66H54.23Z"/></svg>