<svg xmlns="http://www.w3.org/2000/svg" xmlns:xlink="http://www.w3.org/1999/xlink" width="1600" height="900" viewBox="0 0 1600 900">
  <defs>
    <style>
      .cls-1 {
        fill: none;
      }

      .cls-2 {
        isolation: isolate;
      }

      .cls-3 {
        clip-path: url(#clip-path);
      }

      .cls-4 {
        fill: url(#linear-gradient);
      }

      .cls-5 {
        fill: #7aa130;
      }

      .cls-6 {
        fill: #7da72d;
      }

      .cls-7 {
        fill: #7a9f31;
      }

      .cls-8 {
        fill: #739526;
      }

      .cls-9 {
        fill: #729225;
      }

      .cls-10 {
        fill: #62831b;
      }

      .cls-11 {
        fill: #607c17;
      }

      .cls-12 {
        fill: #506512;
      }

      .cls-13 {
        fill: #7aa031;
      }

      .cls-14 {
        fill: #918269;
      }

      .cls-15 {
        fill: #749b34;
      }

      .cls-16 {
        fill: #54312d;
      }

      .cls-17 {
        fill: #75423b;
      }

      .cls-18 {
        opacity: 0.24;
      }

      .cls-19 {
        opacity: 0.22;
      }

      .cls-20 {
        fill: #698b38;
      }

      .cls-118, .cls-20, .cls-32 {
        opacity: 0.3;
      }

      .cls-21 {
        fill: #b69a8a;
      }

      .cls-22 {
        fill: #a18778;
      }

      .cls-23 {
        fill: #917b6d;
      }

      .cls-24 {
        fill: #706054;
      }

      .cls-25 {
        fill: #c4a594;
      }

      .cls-26 {
        fill: #816e62;
      }

      .cls-27 {
        fill: #d1b09e;
      }

      .cls-28 {
        fill: #e0bdaa;
      }

      .cls-29 {
        fill: #577f2d;
      }

      .cls-30 {
        fill: #5f8d33;
      }

      .cls-31 {
        fill: #2e3915;
      }

      .cls-32 {
        fill: #070707;
      }

      .cls-33 {
        fill: url(#linear-gradient-2);
      }

      .cls-34 {
        fill: #281b18;
      }

      .cls-35 {
        fill: #21201e;
      }

      .cls-36 {
        fill: url(#linear-gradient-3);
      }

      .cls-37 {
        fill: #82706e;
      }

      .cls-38 {
        fill: url(#linear-gradient-4);
      }

      .cls-39 {
        fill: #191918;
      }

      .cls-40 {
        opacity: 0.25;
      }

      .cls-41 {
        fill: url(#linear-gradient-5);
      }

      .cls-42, .cls-43, .cls-49, .cls-54 {
        fill: #ffb871;
      }

      .cls-42, .cls-47, .cls-52, .cls-54 {
        stroke: #a67c52;
      }

      .cls-42, .cls-47, .cls-49, .cls-52, .cls-54 {
        stroke-miterlimit: 10;
      }

      .cls-42 {
        stroke-width: 0.25px;
      }

      .cls-44 {
        fill: #a67c52;
      }

      .cls-45 {
        fill: #42210b;
      }

      .cls-46 {
        fill: url(#linear-gradient-6);
      }

      .cls-47, .cls-49, .cls-52, .cls-54 {
        stroke-width: 0.5px;
      }

      .cls-47 {
        fill: url(#linear-gradient-7);
      }

      .cls-48 {
        fill: url(#linear-gradient-8);
      }

      .cls-49 {
        stroke: #603813;
      }

      .cls-50 {
        fill: #110a07;
      }

      .cls-51 {
        fill: url(#linear-gradient-9);
      }

      .cls-52 {
        fill: url(#linear-gradient-10);
      }

      .cls-53 {
        fill: url(#linear-gradient-11);
      }

      .cls-55 {
        clip-path: url(#clip-path-2);
      }

      .cls-56 {
        fill: url(#linear-gradient-12);
      }

      .cls-57 {
        fill: url(#linear-gradient-13);
      }

      .cls-58 {
        fill: url(#linear-gradient-14);
      }

      .cls-59 {
        fill: url(#linear-gradient-15);
      }

      .cls-60 {
        fill: url(#linear-gradient-16);
      }

      .cls-61 {
        fill: url(#linear-gradient-17);
      }

      .cls-62 {
        fill: #f9f82d;
      }

      .cls-63 {
        fill: #b2b1b6;
      }

      .cls-64 {
        fill: #36383d;
      }

      .cls-65 {
        fill: #45464b;
      }

      .cls-66 {
        fill: #9a9c9e;
      }

      .cls-67 {
        fill: #2c2b29;
      }

      .cls-68 {
        clip-path: url(#clip-path-3);
      }

      .cls-69 {
        fill: url(#linear-gradient-18);
      }

      .cls-70 {
        fill: url(#linear-gradient-19);
      }

      .cls-71 {
        fill: url(#linear-gradient-20);
      }

      .cls-72 {
        fill: url(#linear-gradient-21);
      }

      .cls-73 {
        fill: url(#linear-gradient-22);
      }

      .cls-74 {
        fill: url(#linear-gradient-23);
      }

      .cls-75 {
        opacity: 0.14;
      }

      .cls-76 {
        fill: #764d24;
      }

      .cls-77 {
        fill: #69441f;
      }

      .cls-78 {
        fill: #88582b;
      }

      .cls-79 {
        fill: #7d5125;
      }

      .cls-80 {
        fill: #e2b26c;
      }

      .cls-81 {
        fill: #ffcf7e;
      }

      .cls-82 {
        fill: #bd812c;
      }

      .cls-83 {
        fill: #d59131;
      }

      .cls-84 {
        fill: #fdca7b;
      }

      .cls-85 {
        fill: #855629;
      }

      .cls-86 {
        fill: #764c25;
      }

      .cls-87 {
        fill: #7c5025;
      }

      .cls-88 {
        fill: #7b4f25;
      }

      .cls-89 {
        fill: #ffcb7c;
      }

      .cls-90 {
        fill: #ffce7e;
      }

      .cls-91 {
        fill: #d29033;
      }

      .cls-92 {
        fill: #c2852c;
      }

      .cls-93 {
        fill: #865629;
      }

      .cls-94 {
        fill: #89572b;
      }

      .cls-95 {
        fill: #7a4f25;
      }

      .cls-96 {
        fill: #774d24;
      }

      .cls-97 {
        mix-blend-mode: multiply;
      }

      .cls-98 {
        fill: #c2c2c2;
      }

      .cls-99 {
        fill: #88572a;
      }

      .cls-100 {
        fill: #845528;
      }

      .cls-101 {
        fill: #8f5c2b;
      }

      .cls-102 {
        fill: #86572a;
      }

      .cls-103 {
        fill: #8e5c2b;
      }

      .cls-104 {
        fill: #fdc87b;
      }

      .cls-105 {
        fill: #ffcc7c;
      }

      .cls-106 {
        fill: #ffda83;
      }

      .cls-107 {
        fill: #483729;
      }

      .cls-108 {
        fill: #cc8c2f;
      }

      .cls-109 {
        fill: #915e2b;
      }

      .cls-110 {
        fill: #ffd680;
      }

      .cls-111 {
        fill: #8d5b2a;
      }

      .cls-112 {
        fill: #ffd982;
      }

      .cls-113 {
        fill: #ffd781;
      }

      .cls-114 {
        fill: #cc8b30;
      }

      .cls-115 {
        fill: #be812c;
      }

      .cls-116 {
        fill: #433326;
      }

      .cls-117 {
        fill: #8f5b2b;
      }

      .cls-119 {
        fill: #6a451f;
      }

      .cls-120 {
        fill: #805325;
      }

      .cls-121 {
        fill: #815425;
      }

      .cls-122 {
        fill: #3c2e22;
      }

      .cls-123 {
        fill: #8a592a;
      }

      .cls-124 {
        fill: #aa762a;
      }

      .cls-125 {
        fill: #ce8c31;
      }

      .cls-126 {
        fill: #483829;
      }

      .cls-127 {
        fill: #784e25;
      }

      .cls-128 {
        fill: #ffd17f;
      }

      .cls-129 {
        fill: #855628;
      }

      .cls-130 {
        fill: #8a592b;
      }

      .cls-131 {
        fill: #8b592b;
      }

      .cls-132 {
        fill: #49382a;
      }

      .cls-133 {
        fill: #d18f31;
      }

      .cls-134 {
        fill: #c99e5f;
      }

      .cls-135 {
        fill: #efbb72;
      }
    </style>
    <clipPath id="clip-path">
      <rect class="cls-1" width="1600" height="900"/>
    </clipPath>
    <linearGradient id="linear-gradient" x1="769.47" y1="-403.36" x2="804.83" y2="1125.04" gradientUnits="userSpaceOnUse">
      <stop offset="0.33" stop-color="#83b52d"/>
      <stop offset="0.45" stop-color="#81b22c"/>
      <stop offset="0.55" stop-color="#7aa728"/>
      <stop offset="0.65" stop-color="#6e9521"/>
      <stop offset="0.67" stop-color="#6b901f"/>
      <stop offset="0.91" stop-color="#5e7c19"/>
    </linearGradient>
    <linearGradient id="linear-gradient-2" x1="754.09" y1="344.79" x2="756.85" y2="559.19" gradientUnits="userSpaceOnUse">
      <stop offset="0" stop-color="#fff"/>
      <stop offset="0.38" stop-color="#f9f82d"/>
      <stop offset="0.39" stop-color="#f7f22d"/>
      <stop offset="0.51" stop-color="#e6c12b"/>
      <stop offset="0.62" stop-color="#d99b29"/>
      <stop offset="0.72" stop-color="#d08028"/>
      <stop offset="0.81" stop-color="#ca6f27"/>
      <stop offset="0.88" stop-color="#c86927"/>
    </linearGradient>
    <linearGradient id="linear-gradient-3" x1="769.96" y1="171.16" x2="771.05" y2="342.54" gradientUnits="userSpaceOnUse">
      <stop offset="0" stop-color="#fff"/>
      <stop offset="0" stop-color="#d9d9d9"/>
      <stop offset="0" stop-color="#b0b0b0"/>
      <stop offset="0" stop-color="#8b8b8a"/>
      <stop offset="0" stop-color="#6a6a6a"/>
      <stop offset="0" stop-color="#4f4f4e"/>
      <stop offset="0" stop-color="#393938"/>
      <stop offset="0" stop-color="#282827"/>
      <stop offset="0" stop-color="#1d1d1c"/>
      <stop offset="0" stop-color="#161615"/>
      <stop offset="0" stop-color="#141413"/>
      <stop offset="0.53" stop-color="#d69129"/>
      <stop offset="0.7" stop-color="#d58f29"/>
      <stop offset="0.86" stop-color="#121212"/>
    </linearGradient>
    <linearGradient id="linear-gradient-4" x1="656.96" y1="450.51" x2="895.76" y2="449.09" gradientUnits="userSpaceOnUse">
      <stop offset="0" stop-color="#fff"/>
      <stop offset="0" stop-color="#d9d9d9"/>
      <stop offset="0" stop-color="#b0b0b0"/>
      <stop offset="0" stop-color="#8b8b8a"/>
      <stop offset="0" stop-color="#6a6a6a"/>
      <stop offset="0" stop-color="#4f4f4e"/>
      <stop offset="0" stop-color="#393938"/>
      <stop offset="0" stop-color="#282827"/>
      <stop offset="0" stop-color="#1d1d1c"/>
      <stop offset="0" stop-color="#161615"/>
      <stop offset="0" stop-color="#141413"/>
      <stop offset="0.7" stop-color="#070707"/>
      <stop offset="1" stop-color="#121212"/>
    </linearGradient>
    <linearGradient id="linear-gradient-5" x1="852.48" y1="453.34" x2="824.24" y2="646.73" gradientUnits="userSpaceOnUse">
      <stop offset="0.31" stop-color="#944d1b"/>
      <stop offset="0.36" stop-color="#864618"/>
      <stop offset="0.47" stop-color="#603212"/>
      <stop offset="0.62" stop-color="#241307"/>
      <stop offset="0.7"/>
    </linearGradient>
    <linearGradient id="linear-gradient-6" x1="838.38" y1="513.73" x2="780.79" y2="612.85" gradientUnits="userSpaceOnUse">
      <stop offset="0.31" stop-color="#892e15"/>
      <stop offset="0.34" stop-color="#822c14"/>
      <stop offset="0.39" stop-color="#6e2511"/>
      <stop offset="0.45" stop-color="#4e1a0c"/>
      <stop offset="0.51" stop-color="#220b05"/>
      <stop offset="0.55"/>
    </linearGradient>
    <linearGradient id="linear-gradient-7" x1="842.97" y1="568.6" x2="888.85" y2="629.27" gradientUnits="userSpaceOnUse">
      <stop offset="0" stop-color="#ffb871"/>
      <stop offset="0.16" stop-color="#df9254"/>
      <stop offset="0.43" stop-color="#ac5528"/>
      <stop offset="0.63" stop-color="#8d2f0c"/>
      <stop offset="0.74" stop-color="#812101"/>
    </linearGradient>
    <linearGradient id="linear-gradient-8" x1="703.25" y1="485.41" x2="725.03" y2="564.86" gradientUnits="userSpaceOnUse">
      <stop offset="0.31" stop-color="#812101"/>
      <stop offset="0.4" stop-color="#7a1f01"/>
      <stop offset="0.54" stop-color="#671a01"/>
      <stop offset="0.71" stop-color="#471201"/>
      <stop offset="0.89" stop-color="#1c0700"/>
      <stop offset="1"/>
    </linearGradient>
    <linearGradient id="linear-gradient-9" x1="726.82" y1="527.01" x2="771.38" y2="565.5" gradientUnits="userSpaceOnUse">
      <stop offset="0.31" stop-color="#944d1b"/>
      <stop offset="0.41" stop-color="#864618"/>
      <stop offset="0.6" stop-color="#603212"/>
      <stop offset="0.86" stop-color="#241307"/>
      <stop offset="1"/>
    </linearGradient>
    <linearGradient id="linear-gradient-10" x1="726.1" y1="562.84" x2="734.11" y2="610.54" gradientUnits="userSpaceOnUse">
      <stop offset="0.14" stop-color="#ffb871"/>
      <stop offset="0.31" stop-color="#fdb670"/>
      <stop offset="0.4" stop-color="#f4b06c"/>
      <stop offset="0.48" stop-color="#e7a666"/>
      <stop offset="0.54" stop-color="#d3985d"/>
      <stop offset="0.6" stop-color="#b98652"/>
      <stop offset="0.66" stop-color="#9a6f44"/>
      <stop offset="0.71" stop-color="#745433"/>
      <stop offset="0.76" stop-color="#493420"/>
      <stop offset="0.81" stop-color="#19120b"/>
      <stop offset="0.83"/>
    </linearGradient>
    <linearGradient id="linear-gradient-11" x1="761.54" y1="546.69" x2="826.19" y2="546.69" xlink:href="#linear-gradient-9"/>
    <clipPath id="clip-path-2">
      <path class="cls-1" d="M701.11,472.42s-15.3,36.79,0,43.71-23.43,33.15,0,49S855.94,576.3,854.6,528.44s-20.87-57-20.87-57S769.63,501.54,701.11,472.42Z"/>
    </clipPath>
    <linearGradient id="linear-gradient-12" x1="732.72" y1="420.25" x2="728.75" y2="484.16" gradientUnits="userSpaceOnUse">
      <stop offset="0" stop-color="#ef913c"/>
      <stop offset="0.35" stop-color="#ed8f3b"/>
      <stop offset="0.51" stop-color="#e68837"/>
      <stop offset="0.63" stop-color="#d97b30"/>
      <stop offset="0.73" stop-color="#c76927"/>
      <stop offset="0.82" stop-color="#b0511a"/>
      <stop offset="0.9" stop-color="#94350b"/>
      <stop offset="0.94" stop-color="#812101"/>
    </linearGradient>
    <linearGradient id="linear-gradient-13" x1="2195.92" y1="606.45" x2="2190.83" y2="688.39" gradientTransform="translate(-1205.68 -795.05) rotate(15.37)" xlink:href="#linear-gradient-12"/>
    <linearGradient id="linear-gradient-14" x1="778.08" y1="352.5" x2="771.2" y2="463.11" xlink:href="#linear-gradient-12"/>
    <linearGradient id="linear-gradient-15" x1="809.42" y1="384.52" x2="802.86" y2="490.13" xlink:href="#linear-gradient-12"/>
    <linearGradient id="linear-gradient-16" x1="771.54" y1="400.36" x2="761.72" y2="558.44" xlink:href="#linear-gradient-12"/>
    <linearGradient id="linear-gradient-17" x1="763.66" y1="427.71" x2="769.83" y2="618.14" gradientUnits="userSpaceOnUse">
      <stop offset="0" stop-color="#f9f82d"/>
      <stop offset="0.61" stop-color="#e3a32f"/>
      <stop offset="0.94" stop-color="#d87930"/>
    </linearGradient>
    <clipPath id="clip-path-3">
      <path class="cls-1" d="M697,323.24s-12.62-142.94-.72-176.94,1-16.63,38-48.37,53.27-35.52,60.83-28.72,38.54,32.5,52.9,49.88,1.51,177.22,2.27,189.69-14,16.28-14,16.28S742.48,330.91,697,323.24Z"/>
    </clipPath>
    <linearGradient id="linear-gradient-18" x1="767.99" y1="370.9" x2="767.99" y2="116.42" gradientUnits="userSpaceOnUse">
      <stop offset="0" stop-color="#f8d409"/>
      <stop offset="0.08" stop-color="#f7cb0a"/>
      <stop offset="0.22" stop-color="#f6b20e"/>
      <stop offset="0.4" stop-color="#f38914"/>
      <stop offset="0.6" stop-color="#f0521c"/>
      <stop offset="0.78" stop-color="#ec1c24"/>
      <stop offset="1" stop-color="#ec1c24"/>
    </linearGradient>
    <linearGradient id="linear-gradient-19" x1="765.83" y1="370.82" x2="765.83" y2="184.3" gradientUnits="userSpaceOnUse">
      <stop offset="0" stop-color="#f7e88e"/>
      <stop offset="0.06" stop-color="#f7e266"/>
      <stop offset="0.13" stop-color="#f8dd45"/>
      <stop offset="0.19" stop-color="#f8d92b"/>
      <stop offset="0.26" stop-color="#f8d618"/>
      <stop offset="0.33" stop-color="#f8d50d"/>
      <stop offset="0.41" stop-color="#f8d409"/>
      <stop offset="1" stop-color="#ea5f24"/>
    </linearGradient>
    <linearGradient id="linear-gradient-20" x1="731.91" y1="367.87" x2="731.91" y2="304.46" gradientUnits="userSpaceOnUse">
      <stop offset="0" stop-color="#fff"/>
      <stop offset="0.42" stop-color="#fdf7ab"/>
      <stop offset="1" stop-color="#f9ec31"/>
    </linearGradient>
    <linearGradient id="linear-gradient-21" x1="792.82" y1="365.76" x2="792.82" y2="280.17" xlink:href="#linear-gradient-20"/>
    <linearGradient id="linear-gradient-22" x1="749.65" y1="344.73" x2="749.65" y2="251.86" xlink:href="#linear-gradient-20"/>
    <linearGradient id="linear-gradient-23" x1="776.28" y1="349.85" x2="776.28" y2="269.88" xlink:href="#linear-gradient-20"/>
  </defs>
  <g class="cls-2">
    <g id="Layer_1" data-name="Layer 1">
      <g class="cls-3">
        <g>
          <g>
            <g>
              <path class="cls-4" d="M1888.26,199-98.73.6a32.73,32.73,0,0,1-14.71,6.18c-24,3.48-48.29,6-72.63,8A1111.79,1111.79,0,0,1-305,18.07V179.66c6.12,17,3.86,34.83,0,52.38V910l2196-3Z"/>
              <path class="cls-5" d="M361.9,321.28s195.36,7,277.13,18.09c27.25,3.69,41.89,7.84,32.46,12.32-37.71,17.95-400,35.9-439.4,30.38S-59.75,397.25-115.5,415.2-371.85,427-371.85,427s-9.64-121.66,125-121.25,491.29,14.14,567.1,15.56"/>
              <path class="cls-6" d="M926,308.65s101.38-18.49,140.29-14.44c0,0-39.36-10.84,38.69-22.29s467.07,0,467.07,0l34,52s-597.49,23-647.7,8.1S926,308.65,926,308.65Z"/>
              <path class="cls-7" d="M363.64,256.11s292.63-11.5,310.92,0,57.16,31.29,124.53,20.61,168.19,12.06,175.43,3.06,33.3,15.31-86,25.26-332.94-5.19-355-7.89-193.92,2.7-248.56,0S337.57,246.19,363.64,256.11Z"/>
              <path class="cls-8" d="M879.51,438.18s-52.14,3.13-66.75,10.88c-8.76,4.64-4,10.95,33.62,19.23,100.35,22.09,216.48,50,298.28,46.45S1936,532,1936,532l-56.34-119.08S1244,404,1102.35,424.53s-256.49-2.06-275,16.78"/>
              <path class="cls-9" d="M-349.49,440c5.41-8.81,377.05,14.72,535,12.38s289.8,14.73,359.22,2.77,180.67,28.61,107,57.16S103,576.12,14.82,573.9s-408.47.51-415.26,0S-349.49,440-349.49,440Z"/>
              <path class="cls-10" d="M671.25,534.39S1602,577.66,1734.09,548.18c306.27-68.35,177.36,176,132.35,182.89-13.15,2-527.45,47.61-778.58-8.89C851.35,669,795.35,650.67,795.35,650.67c29.69.05-59,7-451.38-56.67C272.57,582.41,652.28,532.42,671.25,534.39Z"/>
              <path class="cls-11" d="M-298.16,631.34s58-42.47,216.89-17.45,337.76,46.66,420.83,46.66,107.05,20.41,158.32,7,319.65-1.55,263.42,19S-294.32,759-325,717.9-298.16,631.34-298.16,631.34Z"/>
              <path class="cls-12" d="M436.75,763.38C582,725,1660,779.65,1665.14,826.78s34.15,276.37-539,186.56-1109-70.9-1309.66-52-175-213.85,245.6-210.91"/>
            </g>
            <path class="cls-13" d="M709.24,378.07c-60.83.43-170.13,5.85-183.72,27.19s749.16,5,799.37,0-67.78-40.17-102.93-25.11-59-12.55-94.14-27.61-283.69-5-375.32,1.25c-62.12,4.26-57.32,14.86-47.79,21.25a56.43,56.43,0,0,0,10.13,5.11l-121.76,3.77"/>
            <g>
              <rect class="cls-14" x="-303" width="2183" height="302"/>
              <path class="cls-15" d="M-42.14,330.61s181.76-8.79,259.22-3.23c95.38,6.85,376.91-25.15,419.37-18.15s704,21.17,840.61,18.09,424.94-7.9,424.94-7.9L1899.6,282-23.95,303.23"/>
              <rect class="cls-16" x="-343" y="186" width="2332" height="69"/>
              <rect class="cls-17" x="-365" y="197.29" width="2245" height="104.71"/>
            </g>
            <ellipse class="cls-18" cx="269.5" cy="449.5" rx="67.5" ry="12.5"/>
            <ellipse class="cls-19" cx="1310.66" cy="459.5" rx="106.34" ry="18.08"/>
            <ellipse class="cls-20" cx="1339" cy="332" rx="70" ry="10"/>
            <g>
              <polygon class="cls-21" points="1253.3 394.44 1225.96 403.02 1222.65 407.12 1223.81 411.55 1216.64 414.55 1208.58 424.54 1237.66 444.12 1255.84 418.53 1253.3 394.44"/>
              <polygon class="cls-22" points="1287.09 430.57 1255.84 418.53 1237.66 439.72 1265.44 449.71 1287.09 430.57 1287.09 430.57"/>
              <polygon class="cls-23" points="1342.72 452.73 1313.76 425.17 1287.09 430.57 1319.14 452.73 1342.72 452.73 1342.72 452.73"/>
              <polygon class="cls-24" points="1368 385.82 1340.18 396.31 1313.76 425.17 1342.72 452.73 1354.04 441.1 1368 385.82"/>
              <polygon class="cls-25" points="1354.04 382.84 1340.18 381 1296.27 382.91 1340.18 396.31 1368 385.82 1354.04 382.84"/>
              <polygon class="cls-26" points="1265.44 449.71 1228.93 436.58 1208.58 424.54 1228.93 450.46 1266.74 457.66 1265.44 449.71"/>
              <polygon class="cls-24" points="1319.14 452.73 1319.14 452.73 1287.09 430.57 1265.44 449.71 1266.74 457.66 1319.14 452.73"/>
              <path class="cls-27" d="M1340.18,396.31s-36.07-17.85-48-12.45-38.87,10.59-38.87,10.59-3.31,18.06,2.54,24.08,31.24,12,31.24,12l26.68-5.4Z"/>
              <polygon class="cls-28" points="1260.68 421.77 1282.09 431.46 1265.89 449.31 1285.52 432.26 1312.94 425.34 1284 429.85 1260.68 421.77"/>
              <polygon class="cls-28" points="1318.16 387.19 1339.56 396.41 1322.57 415.56 1342.99 397.21 1363.78 387.41 1341.48 394.8 1318.16 387.19"/>
              <polygon class="cls-27" points="1255.43 415.28 1241.32 431.99 1254.24 411.55 1255.43 415.28"/>
              <polygon class="cls-26" points="1355.81 434.12 1342.72 401.37 1339.72 404.6 1354.99 437.35 1355.81 434.12"/>
              <polygon class="cls-26" points="1354.43 438.1 1338.33 406.29 1335.11 410 1353.71 440.35 1354.43 438.1"/>
              <polygon class="cls-24" points="1324.98 415.56 1316.67 417.63 1319.14 421.77 1324.98 415.56"/>
              <polygon class="cls-25" points="1307.13 382.84 1293.53 389.61 1312.94 384.41 1307.13 382.84"/>
              <polygon class="cls-26" points="1287.09 434.12 1282.37 438.03 1282.37 445.31 1288.43 442.91 1306.03 451.69 1313.76 451.24 1287.09 434.12"/>
            </g>
            <g>
              <polygon class="cls-27" points="208.66 422.43 224.25 417.47 233.74 415.27 243.49 416.46 244.93 412.67 258.83 409.45 265.79 410.27 260.47 421 229.45 426.18 208.66 422.43"/>
              <polygon class="cls-25" points="260.47 421 280.1 420.28 295.28 410.95 303.88 396.31 280.1 403.33 265.79 410.27 260.47 421"/>
              <path class="cls-26" d="M312.49,434.82s6.14-14.34,4.09-21.77-12.7-16.74-12.7-16.74L295.28,411l10.89,32.56Z"/>
              <polygon class="cls-24" points="289.55 447.14 306.17 443.51 295.28 410.95 280.1 420.28 279.25 438.9 289.55 447.14"/>
              <polygon class="cls-23" points="265.79 447.14 279.25 438.9 280.1 420.28 260.47 421 252.4 446.73 265.79 447.14"/>
              <polygon class="cls-24" points="234.04 448.74 252.4 446.73 260.47 421 229.45 426.18 215.82 438.63 234.04 448.74"/>
              <polygon class="cls-22" points="215.82 438.63 215.82 438.63 229.45 426.18 208.66 422.43 206.79 436.33 215.82 438.63"/>
              <polygon class="cls-22" points="277.67 448.74 277.67 448.74 289.55 447.14 279.25 438.9 265.79 447.14 277.67 448.74"/>
              <polygon class="cls-23" points="215.82 443.82 215.82 443.82 234.04 448.74 215.82 438.63 206.79 436.33 215.82 443.82"/>
              <polygon class="cls-28" points="210.91 422.83 228.13 426.14 216.73 437.79 230.2 426.71 251.63 422.48 229.28 425 210.91 422.83"/>
              <polygon class="cls-28" points="261.55 421 279.73 420.84 279.25 438.9 281.17 421 295.28 410.95 280.89 419.7 261.55 421"/>
              <polygon class="cls-27" points="265.88 416.84 267.5 410.95 269.19 410.27 279.47 406.12 292.71 403.33 270.31 412.12 265.88 416.84"/>
              <polygon class="cls-26" points="239.47 445.35 227.4 437.35 234.04 429.05 253.76 427.55 252.4 433.63 245.64 430.13 235.83 433.63 234.48 439.77 239.47 445.35"/>
              <polygon class="cls-24" points="300.12 402.71 292.71 406.97 306.14 416.46 300.12 402.71"/>
            </g>
            <g>
              <g>
                <path class="cls-29" d="M1524.3,303.65s7.61-8.17,22.29-10.19-15.77-10.72-26.64,10.19C1520,303.65,1515.05,312.94,1524.3,303.65Z"/>
                <path class="cls-29" d="M1503.63,304.81s22.3-26.14,35.35-33.11-12.51-7.55-29.91,14.23C1509.07,285.93,1500.37,299,1503.63,304.81Z"/>
                <path class="cls-29" d="M1497.11,304.81s14.81-42.41,21.54-47.63S1508,249,1497.11,283.61C1497.11,283.61,1492.76,301.91,1497.11,304.81Z"/>
                <path class="cls-29" d="M1489.22,304.81s5.71-38.92,11.15-44.73S1479.71,266.47,1489.22,304.81Z"/>
                <path class="cls-29" d="M1486,304.81s.27-32.43-11.42-37.42S1481.34,288.54,1486,304.81Z"/>
                <path class="cls-29" d="M1482.15,304.81s-7.34-37.16-25.28-38S1471,280.41,1482.15,304.81Z"/>
                <path class="cls-29" d="M1480.61,304.81s-9.6-15.1-25.92-13.94S1476.62,300.16,1480.61,304.81Z"/>
              </g>
              <g>
                <path class="cls-29" d="M1488.3,473.08s12.1-13,35.46-16.2-25.08-17.06-42.38,16.2C1481.38,473.08,1473.59,487.86,1488.3,473.08Z"/>
                <path class="cls-29" d="M1455.43,474.93s35.46-41.58,56.22-52.67-19.89-12-47.57,22.64C1464.08,444.9,1450.24,465.69,1455.43,474.93Z"/>
                <path class="cls-29" d="M1445.05,474.93s23.56-67.45,34.27-75.76-17-12.94-34.27,42C1445.05,441.21,1438.13,470.31,1445.05,474.93Z"/>
                <path class="cls-29" d="M1432.51,474.93s9.08-61.9,17.73-71.14S1417.37,414,1432.51,474.93Z"/>
                <path class="cls-29" d="M1427.32,474.93s.43-51.57-18.16-59.51S1420,449.06,1427.32,474.93Z"/>
                <path class="cls-29" d="M1421.27,474.93s-11.68-59.1-40.22-60.5S1403.54,436.12,1421.27,474.93Z"/>
                <path class="cls-29" d="M1418.82,474.93s-15.28-24-41.23-22.18S1412.47,467.54,1418.82,474.93Z"/>
              </g>
              <g>
                <path class="cls-29" d="M161,307.46s7.62-8.17,22.3-10.19-15.77-10.73-26.65,10.19C156.66,307.46,151.77,316.75,161,307.46Z"/>
                <path class="cls-29" d="M140.35,308.62s22.29-26.14,35.35-33.11-12.51-7.56-29.91,14.23C145.79,289.74,137.09,302.81,140.35,308.62Z"/>
                <path class="cls-29" d="M133.82,308.62s14.82-42.41,21.55-47.64-10.67-8.13-21.55,26.43C133.82,287.41,129.47,305.71,133.82,308.62Z"/>
                <path class="cls-29" d="M125.94,308.62s5.71-38.92,11.15-44.73S116.42,270.28,125.94,308.62Z"/>
                <path class="cls-29" d="M122.68,308.62s.27-32.43-11.42-37.42S118.05,292.35,122.68,308.62Z"/>
                <path class="cls-29" d="M118.87,308.62s-7.34-37.16-25.29-38S107.72,284.22,118.87,308.62Z"/>
                <path class="cls-29" d="M117.33,308.62s-9.61-15.11-25.92-13.94S113.34,304,117.33,308.62Z"/>
              </g>
              <g>
                <path class="cls-29" d="M540.5,303s7.61-7.27,22.29-9.06S547,284.37,536.15,303C536.15,303,531.25,311.24,540.5,303Z"/>
                <path class="cls-29" d="M519.83,304s22.3-23.25,35.35-29.45-12.51-6.72-29.91,12.66C525.27,287.21,516.57,298.84,519.83,304Z"/>
                <path class="cls-29" d="M513.31,304s14.81-37.72,21.54-42.37-10.67-7.23-21.54,23.51C513.31,285.14,509,301.42,513.31,304Z"/>
                <path class="cls-29" d="M505.42,304s5.71-34.62,11.15-39.79S495.91,269.9,505.42,304Z"/>
                <path class="cls-29" d="M502.16,304s.27-28.84-11.42-33.28S497.54,289.53,502.16,304Z"/>
                <path class="cls-29" d="M498.35,304S491,271,473.07,270.17,487.21,282.3,498.35,304Z"/>
                <path class="cls-29" d="M496.81,304s-9.6-13.43-25.92-12.4S492.82,299.87,496.81,304Z"/>
              </g>
              <g>
                <path class="cls-30" d="M1052.5,309s7.61-7.27,22.29-9.06-15.77-9.54-26.64,9.06C1048.15,309,1043.25,317.24,1052.5,309Z"/>
                <path class="cls-30" d="M1031.83,310s22.3-23.25,35.35-29.45-12.51-6.72-29.91,12.66C1037.27,293.21,1028.57,304.84,1031.83,310Z"/>
                <path class="cls-30" d="M1025.31,310s14.81-37.72,21.54-42.37-10.67-7.23-21.54,23.51C1025.31,291.14,1021,307.42,1025.31,310Z"/>
                <path class="cls-30" d="M1017.42,310s5.71-34.62,11.15-39.79S1007.91,275.9,1017.42,310Z"/>
                <path class="cls-30" d="M1014.16,310s.27-28.84-11.42-33.28S1009.54,295.53,1014.16,310Z"/>
                <path class="cls-30" d="M1010.35,310S1003,277,985.07,276.17,999.21,288.3,1010.35,310Z"/>
                <path class="cls-30" d="M1008.81,310s-9.6-13.43-25.92-12.4S1004.82,305.87,1008.81,310Z"/>
              </g>
              <g>
                <path class="cls-29" d="M356.77,453.62s5.7-6.69,16.69-8.34-11.8-8.78-19.94,8.34C353.52,453.62,349.85,461.23,356.77,453.62Z"/>
                <path class="cls-29" d="M341.3,454.57s16.69-21.4,26.46-27.1-9.36-6.18-22.39,11.65C345.37,439.12,338.86,449.82,341.3,454.57Z"/>
                <path class="cls-29" d="M336.42,454.57s11.09-34.71,16.13-39-8-6.66-16.13,21.63C336.42,437.21,333.16,452.19,336.42,454.57Z"/>
                <path class="cls-29" d="M330.52,454.57s4.27-31.86,8.34-36.61S323.39,423.19,330.52,454.57Z"/>
                <path class="cls-29" d="M328.07,454.57s.21-26.54-8.54-30.63S324.61,441.26,328.07,454.57Z"/>
                <path class="cls-29" d="M325.22,454.57s-5.49-30.41-18.92-31.14S316.88,434.6,325.22,454.57Z"/>
                <path class="cls-29" d="M324.07,454.57s-7.19-12.36-19.4-11.41S321.09,450.77,324.07,454.57Z"/>
              </g>
              <g>
                <path class="cls-29" d="M78.77,438.62s5.7-6.69,16.69-8.34-11.8-8.78-19.94,8.34C75.52,438.62,71.85,446.23,78.77,438.62Z"/>
                <path class="cls-29" d="M63.3,439.57s16.69-21.4,26.46-27.1-9.36-6.18-22.39,11.65C67.37,424.12,60.86,434.82,63.3,439.57Z"/>
                <path class="cls-29" d="M58.42,439.57s11.09-34.71,16.13-39-8-6.66-16.13,21.63C58.42,422.21,55.16,437.19,58.42,439.57Z"/>
                <path class="cls-29" d="M52.52,439.57s4.27-31.86,8.34-36.61S45.39,408.19,52.52,439.57Z"/>
                <path class="cls-29" d="M50.07,439.57s.21-26.54-8.54-30.63S46.61,426.26,50.07,439.57Z"/>
                <path class="cls-29" d="M47.22,439.57s-5.49-30.41-18.92-31.14S38.88,419.6,47.22,439.57Z"/>
                <path class="cls-29" d="M46.07,439.57s-7.19-12.36-19.4-11.41S43.09,435.77,46.07,439.57Z"/>
              </g>
              <g>
                <path class="cls-10" d="M1408.58,558.51s5.93-6.66,17.36-8.3-12.28-8.74-20.74,8.3C1405.2,558.51,1401.39,566.08,1408.58,558.51Z"/>
                <path class="cls-10" d="M1392.49,559.45s17.36-21.3,27.53-27-9.74-6.15-23.29,11.6C1396.73,544.07,1390,554.72,1392.49,559.45Z"/>
                <path class="cls-10" d="M1387.41,559.45s11.54-34.55,16.78-38.81-8.31-6.63-16.78,21.54C1387.41,542.18,1384,557.09,1387.41,559.45Z"/>
                <path class="cls-10" d="M1381.27,559.45s4.45-31.71,8.68-36.44S1373.86,528.21,1381.27,559.45Z"/>
                <path class="cls-10" d="M1378.73,559.45s.21-26.42-8.89-30.48S1375.13,546.2,1378.73,559.45Z"/>
                <path class="cls-10" d="M1375.77,559.45s-5.72-30.27-19.69-31S1367.09,539.57,1375.77,559.45Z"/>
                <path class="cls-10" d="M1374.57,559.45s-7.48-12.3-20.18-11.36S1371.46,555.67,1374.57,559.45Z"/>
              </g>
              <g>
                <path class="cls-31" d="M139.23,865.18s8.06-9,23.61-11.29-16.7-11.89-28.22,11.29C134.62,865.18,129.44,875.48,139.23,865.18Z"/>
                <path class="cls-31" d="M117.35,866.47s23.61-29,37.43-36.7-13.25-8.37-31.67,15.78C123.11,845.55,113.89,860,117.35,866.47Z"/>
                <path class="cls-31" d="M110.44,866.47s15.68-47,22.81-52.79-11.3-9-22.81,29.29C110.44,843,105.83,863.25,110.44,866.47Z"/>
                <path class="cls-31" d="M102.08,866.47s6-43.13,11.81-49.57S92,824,102.08,866.47Z"/>
                <path class="cls-31" d="M98.63,866.47s.29-35.94-12.09-41.47S93.73,848.44,98.63,866.47Z"/>
                <path class="cls-31" d="M94.6,866.47s-7.78-41.18-26.78-42.16S82.79,839.43,94.6,866.47Z"/>
                <path class="cls-31" d="M93,866.47S82.79,849.73,65.51,851,88.74,861.32,93,866.47Z"/>
              </g>
              <g>
                <path class="cls-31" d="M780.6,899.57s9.47-10.63,27.72-13.25-19.61-14-33.13,13.25C775.19,899.57,769.11,911.66,780.6,899.57Z"/>
                <path class="cls-31" d="M754.91,901.08s27.72-34,43.94-43.08-15.55-9.83-37.18,18.52C761.67,876.52,750.85,893.52,754.91,901.08Z"/>
                <path class="cls-31" d="M746.79,901.08s18.42-55.17,26.79-62-13.26-10.58-26.79,34.39C746.79,873.49,741.38,897.3,746.79,901.08Z"/>
                <path class="cls-31" d="M737,901.08s7.1-50.64,13.86-58.2S725.16,851.2,737,901.08Z"/>
                <path class="cls-31" d="M732.93,901.08s.34-42.19-14.2-48.68S727.19,879.92,732.93,901.08Z"/>
                <path class="cls-31" d="M728.2,901.08s-9.13-48.34-31.44-49.49S714.34,869.34,728.2,901.08Z"/>
                <path class="cls-31" d="M726.28,901.08s-11.94-19.65-32.22-18.14S721.33,895,726.28,901.08Z"/>
              </g>
              <g>
                <path class="cls-31" d="M1567.6,895.57s9.47-10.63,27.72-13.25-19.61-14-33.13,13.25C1562.19,895.57,1556.11,907.66,1567.6,895.57Z"/>
                <path class="cls-31" d="M1541.91,897.08s27.72-34,43.94-43.08-15.55-9.83-37.18,18.52C1548.67,872.52,1537.85,889.52,1541.91,897.08Z"/>
                <path class="cls-31" d="M1533.79,897.08s18.42-55.17,26.79-62-13.26-10.58-26.79,34.39C1533.79,869.49,1528.38,893.3,1533.79,897.08Z"/>
                <path class="cls-31" d="M1524,897.08s7.1-50.64,13.86-58.2S1512.16,847.2,1524,897.08Z"/>
                <path class="cls-31" d="M1519.93,897.08s.34-42.19-14.2-48.68S1514.19,875.92,1519.93,897.08Z"/>
                <path class="cls-31" d="M1515.2,897.08s-9.13-48.34-31.44-49.49S1501.34,865.34,1515.2,897.08Z"/>
                <path class="cls-31" d="M1513.28,897.08s-11.94-19.65-32.22-18.14S1508.33,891,1513.28,897.08Z"/>
              </g>
              <g>
                <path class="cls-12" d="M1101,747.94s6.38-7.17,18.7-8.94-13.23-9.42-22.35,8.94C1097.36,747.94,1093.25,756.09,1101,747.94Z"/>
                <path class="cls-12" d="M1083.68,749s18.7-23,29.64-29.07-10.49-6.62-25.08,12.5C1088.24,732.39,1080.94,743.86,1083.68,749Z"/>
                <path class="cls-12" d="M1078.2,749s12.43-37.22,18.07-41.81-9-7.14-18.07,23.2C1078.2,730.35,1074.55,746.41,1078.2,749Z"/>
                <path class="cls-12" d="M1071.59,749s4.79-34.16,9.35-39.26S1063.61,715.31,1071.59,749Z"/>
                <path class="cls-12" d="M1068.85,749s.23-28.46-9.58-32.84S1065,734.68,1068.85,749Z"/>
                <path class="cls-12" d="M1065.66,749s-6.16-32.62-21.21-33.39S1056.31,727.54,1065.66,749Z"/>
                <path class="cls-12" d="M1064.37,749s-8.06-13.26-21.74-12.24S1061,744.88,1064.37,749Z"/>
              </g>
              <g>
                <path class="cls-12" d="M488,762.94s6.38-7.17,18.7-8.94-13.23-9.42-22.35,8.94C484.36,762.94,480.25,771.09,488,762.94Z"/>
                <path class="cls-12" d="M470.68,764s18.7-23,29.64-29.07-10.49-6.62-25.08,12.5C475.24,747.39,467.94,758.86,470.68,764Z"/>
                <path class="cls-12" d="M465.2,764s12.43-37.22,18.07-41.81-8.95-7.14-18.07,23.2C465.2,745.35,461.55,761.41,465.2,764Z"/>
                <path class="cls-12" d="M458.59,764s4.79-34.16,9.35-39.26S450.61,730.31,458.59,764Z"/>
                <path class="cls-12" d="M455.85,764s.23-28.46-9.58-32.84S452,749.68,455.85,764Z"/>
                <path class="cls-12" d="M452.66,764s-6.16-32.62-21.21-33.39S443.31,742.54,452.66,764Z"/>
                <path class="cls-12" d="M451.37,764s-8.06-13.26-21.74-12.24S448,759.88,451.37,764Z"/>
              </g>
            </g>
            <g>
              <ellipse class="cls-32" cx="771.5" cy="735.24" rx="149.78" ry="64.76"/>
              <path class="cls-33" d="M673.28,333V541.64s-46.75,6.23-12.67,12.51c50,5.63,202,12.9,202,12.9V341Z"/>
              <path class="cls-34" d="M789.76,573.6l6,96.87s-9.07,8.46-10.58,0c0-15.25-6.05-96.87-6.05-96.87Z"/>
              <ellipse class="cls-35" cx="774.41" cy="555.72" rx="126.72" ry="22.98"/>
              <ellipse class="cls-36" cx="770.89" cy="317.83" rx="131.5" ry="24.61"/>
              <path class="cls-37" d="M770.85,289.13c-72.63,0-131.5,9.64-131.5,21.54s58.87,21.54,131.5,21.54,131.49-9.65,131.49-21.54S843.47,289.13,770.85,289.13Zm0,39c-63.86,0-115.63-7.81-115.63-17.45S707,293.21,770.85,293.21,886.47,301,886.47,310.67,834.71,328.12,770.85,328.12Z"/>
              <path class="cls-38" d="M886.51,542.41c-1.51-58.55,0-212.85,0-212.85s-105.84,25.78-231.29,0l0,212.78S633,554.42,665.81,560.55C698,571.9,845.54,576.22,889,560.25,910,549.93,893.32,544.09,886.51,542.41Zm-40.8,11.21H691.54l-2.27-4.55V482.35s0-17.44,19.65-6.07c21.92,8.34,74.82,19,111.09-.76,19.65-9.1,23.43-.76,25.7,20.47S845.71,553.62,845.71,553.62Z"/>
              <ellipse class="cls-39" cx="773.89" cy="550.93" rx="125.99" ry="21.54"/>
              <g>
                <ellipse class="cls-40" cx="775.61" cy="537.68" rx="89.43" ry="21.55"/>
                <g>
                  <path class="cls-41" d="M804.66,520.51c10.48,4.1,21.54,8.88,33,14.46A457.15,457.15,0,0,1,880,558.34c-5.52-5.08-5.77-12.11-2.74-15.06,2.75-2.67,7.68-1.5,8.22-1.37-15.21-8.47-31.44-16.92-48.7-25.17q-16.38-7.85-32.09-14.57S791,504.58,804.66,520.51Z"/>
                  <path class="cls-42" d="M876.43,554.42c-4-8.36,4.21-20.76,11.41-9.79C892.65,552.88,881.11,564.19,876.43,554.42Z"/>
                  <g>
                    <path class="cls-43" d="M883,548.93s-2.32,4-2.32.17,5.48-3.87,4.11,0-4.12,7.22-6.17,1.68,3.43-8.12,6.17-6.84,4.1,7.74,0,10.32-6.85,1.29-8.22-2.58"/>
                    <path class="cls-44" d="M883,548.93a8.25,8.25,0,0,1-1,1.46c-.21.2-.44.46-.79.42s-.42-.48-.48-.76a3.44,3.44,0,0,1,.94-3.37,2.59,2.59,0,0,1,1.74-.61,1.83,1.83,0,0,1,1.58,1,2.5,2.5,0,0,1,.07,1.86,12.31,12.31,0,0,1-1.51,3.3,4.82,4.82,0,0,1-1.28,1.35,1.75,1.75,0,0,1-1.9.15,3.39,3.39,0,0,1-1.26-1.4,8.64,8.64,0,0,1-1.12-3.48,4.91,4.91,0,0,1,1.1-3.5,5.49,5.49,0,0,1,3.18-1.83,3.92,3.92,0,0,1,3.54.89,6.35,6.35,0,0,1,1.65,3.26,7.13,7.13,0,0,1-.15,3.64,5.58,5.58,0,0,1-2.14,2.93,8.69,8.69,0,0,1-3.31,1.44,4,4,0,0,1-3.41-.91,7,7,0,0,1-1.84-3.05,6.92,6.92,0,0,0,1.92,3,3.79,3.79,0,0,0,3.29.77c2.23-.53,4.52-1.95,5.12-4.24a6.91,6.91,0,0,0,.1-3.44,5.85,5.85,0,0,0-1.55-3,3.41,3.41,0,0,0-3.13-.75,5,5,0,0,0-2.89,1.68,4.48,4.48,0,0,0-1,3.15,8.4,8.4,0,0,0,1,3.29,3.09,3.09,0,0,0,1.08,1.23,1.33,1.33,0,0,0,1.46-.12,4.27,4.27,0,0,0,1.16-1.23,11.36,11.36,0,0,0,.88-1.52,12.58,12.58,0,0,0,.65-1.63,2.23,2.23,0,0,0,0-1.63,1.5,1.5,0,0,0-1.31-.82,2.36,2.36,0,0,0-1.57.52,3.26,3.26,0,0,0-1,3.16c0,.27.12.62.38.69s.52-.18.73-.37A8.31,8.31,0,0,0,883,548.93Z"/>
                  </g>
                  <path class="cls-45" d="M806.46,508.1c3,.93,6,1.95,9,3s6,2.2,8.92,3.37Q833.3,518,842,522c2.89,1.32,5.72,2.77,8.57,4.17s5.67,2.89,8.44,4.45l4.18,2.3,4.12,2.4c2.75,1.59,5.4,3.35,8.1,5-2.74-1.6-5.44-3.29-8.22-4.81L863,533.15l-4.19-2.27c-2.78-1.53-5.64-2.92-8.46-4.36s-5.71-2.8-8.6-4.1q-8.61-4.06-17.45-7.64-4.42-1.78-8.88-3.46C812.46,510.2,809.47,509.11,806.46,508.1Z"/>
                  <path class="cls-45" d="M810.82,516.58c5.5,1.53,10.93,3.31,16.31,5.22s10.7,4,15.94,6.27a168.41,168.41,0,0,1,15.37,7.57,85.78,85.78,0,0,1,14.1,9.69l-3.39-2.6c-1.14-.86-2.37-1.59-3.55-2.39s-2.41-1.52-3.63-2.25-2.44-1.47-3.72-2.11c-5-2.77-10.16-5.17-15.38-7.45s-10.53-4.38-15.87-6.37q-4-1.5-8.06-2.88C816.25,518.33,813.54,517.42,810.82,516.58Z"/>
                  <path class="cls-45" d="M824.57,525.51c4.18,1.46,8.31,3,12.41,4.73s8.13,3.48,12.15,5.36,7.93,3.94,11.76,6.18a50.54,50.54,0,0,1,10.66,7.88c-.85-.72-1.65-1.48-2.52-2.16l-2.69-1.93-2.79-1.79c-.94-.58-1.91-1.11-2.86-1.67-3.85-2.16-7.77-4.2-11.78-6.06s-8-3.71-12.08-5.46S828.68,527.14,824.57,525.51Z"/>
                </g>
                <g>
                  <path class="cls-46" d="M784.11,532a164.14,164.14,0,0,0,56.15,59.21c.88-18.06,5.78-30.42,12.07-31.24,1.42-.18,3.94.09,7.5,3.65-15-9.93-25.61-12.54-57.91-50.47-2.43-2.84-5.48-5.54-8.54-5C786.75,509.42,784.72,525.78,784.11,532Z"/>
                  <path class="cls-47" d="M837.07,587.1c-4.39-6.73-2-14.54-1.6-15.75.69-2.13,2.17-6.73,6.84-9.58,1.53-.94,6.72-3.71,12.33-1.37a13.37,13.37,0,0,1,6.85,6.85,20.05,20.05,0,0,1-1.37,13.69c-4,7.62-13.92,12.76-19.61,9.79A9.31,9.31,0,0,1,837.07,587.1Z"/>
                  <path class="cls-45" d="M845.87,558.34a43.55,43.55,0,0,1-16.46-6.69,65.89,65.89,0,0,1-7.2-5.32c-2.29-1.92-4.5-3.93-6.59-6.06A134.33,134.33,0,0,1,804,526.71a142.67,142.67,0,0,1-9.85-14.9c1.53,2.55,3.19,5,4.89,7.46s3.45,4.85,5.27,7.2A139.93,139.93,0,0,0,816,539.92a85.4,85.4,0,0,0,13.64,11.4,49.68,49.68,0,0,0,7.79,4.3A38.58,38.58,0,0,0,845.87,558.34Z"/>
                  <path class="cls-45" d="M791.63,522.13c.94,2,2,4,3.14,5.9.56,1,1.16,1.9,1.74,2.85l1.85,2.78a86.91,86.91,0,0,0,8.35,10.39c1.47,1.67,3.11,3.17,4.7,4.72l2.53,2.18c.42.36.83.73,1.27,1.08l1.32,1c.89.67,1.76,1.36,2.67,2l2.79,1.83c.47.3.92.63,1.4.91l1.45.82,2.92,1.64a67.31,67.31,0,0,1-11.46-6.9l-1.35-1c-.45-.34-.86-.72-1.29-1.08l-2.56-2.17c-1.6-1.55-3.27-3.05-4.76-4.72a83.16,83.16,0,0,1-8.3-10.51A72.73,72.73,0,0,1,791.63,522.13Z"/>
                  <path class="cls-45" d="M795.75,545.33c1.21,1.81,2.5,3.56,3.84,5.27.66.86,1.35,1.7,2,2.56l2.09,2.49a122.76,122.76,0,0,0,9,9.39,96.84,96.84,0,0,0,10,8.31l2.64,1.9,2.75,1.74,1.37.88,1.42.79,2.85,1.59a76.83,76.83,0,0,1-11.26-6.58,92.07,92.07,0,0,1-10.11-8.27,110,110,0,0,1-9-9.5A93.19,93.19,0,0,1,795.75,545.33Z"/>
                  <path class="cls-45" d="M791.63,531.9a20.3,20.3,0,0,0,1.5,3.68,35.52,35.52,0,0,0,2,3.44,46.75,46.75,0,0,0,4.88,6.24,59.56,59.56,0,0,0,5.74,5.49c1,.87,2.07,1.66,3.1,2.5L812,555.6l-3.36-2.16c-1.06-.79-2.16-1.56-3.2-2.39s-2.07-1.69-3-2.62L801,547.05l-1.39-1.45a42.78,42.78,0,0,1-4.83-6.38A25.27,25.27,0,0,1,791.63,531.9Z"/>
                  <g>
                    <path class="cls-43" d="M848.6,573.34s1,6-1.43,3.62-2.47-7.38,2.74-7.38-.87,18.67-4.35,10.59c-6.07-5.57-3.18-10.61,3.19-14.37s6.57,9,6.57,9-4.86,13.6-10.35,10.46-10.69-9.41-4.18-16.94"/>
                    <path class="cls-44" d="M848.6,573.34a17.09,17.09,0,0,1,.24,2.14,6.5,6.5,0,0,1,0,1.08c-.06.34-.12.76-.48,1s-.74-.14-1-.35a5.09,5.09,0,0,1-.75-.79,5.35,5.35,0,0,1-.94-2,3.83,3.83,0,0,1,1.12-4,4.28,4.28,0,0,1,2-.85,6.7,6.7,0,0,1,1.09-.1,3.68,3.68,0,0,1,.57.06,1.72,1.72,0,0,1,.53.25,2.84,2.84,0,0,1,1,1.94,9.36,9.36,0,0,1,.06,2.18,16.62,16.62,0,0,1-.95,4.23,9.3,9.3,0,0,1-2.24,3.73,2.09,2.09,0,0,1-1,.51,1.48,1.48,0,0,1-1.14-.29,4.48,4.48,0,0,1-1.29-1.81l0,.06a13.59,13.59,0,0,1-2.56-3.13,6.41,6.41,0,0,1-.81-4,7.63,7.63,0,0,1,1.74-3.68,15.48,15.48,0,0,1,3-2.73c.54-.4,1.11-.76,1.69-1.11a5.55,5.55,0,0,1,1.93-.77,2.91,2.91,0,0,1,2.07.45,4.32,4.32,0,0,1,1.37,1.58,12.7,12.7,0,0,1,1.26,3.85,26.86,26.86,0,0,1,.42,4v0l0,0a32,32,0,0,1-4.38,8.17,7.25,7.25,0,0,1-3.74,2.76,3.45,3.45,0,0,1-2.34-.33,18.16,18.16,0,0,1-2-1.26,16,16,0,0,1-3.35-3.22,9.67,9.67,0,0,1-1.91-4.21,8.46,8.46,0,0,1,.5-4.56,14.29,14.29,0,0,1,2.46-3.9,14,14,0,0,0-2.38,3.93,8.34,8.34,0,0,0-.41,4.5c.6,3,2.81,5.46,5.25,7.23,1.24.83,2.58,1.91,4.08,1.51a6.91,6.91,0,0,0,3.53-2.67,31.49,31.49,0,0,0,4.27-8.09v.07a26,26,0,0,0-.44-3.93,12.47,12.47,0,0,0-1.23-3.71,3.83,3.83,0,0,0-1.23-1.41,2.42,2.42,0,0,0-1.74-.36,5.19,5.19,0,0,0-1.75.72c-.56.35-1.12.69-1.65,1.08a14.88,14.88,0,0,0-2.92,2.62,7.17,7.17,0,0,0-1.66,3.45,6.07,6.07,0,0,0,.73,3.72,13.34,13.34,0,0,0,2.46,3l0,0,0,0a4.27,4.27,0,0,0,1.15,1.67,1.33,1.33,0,0,0,1.73-.2,8.91,8.91,0,0,0,2.16-3.57,16.3,16.3,0,0,0,1-4.14,9.21,9.21,0,0,0,0-2.1,2.61,2.61,0,0,0-.9-1.77c-.53-.41-1.3-.24-2-.18a4.21,4.21,0,0,0-1.91.79,3.62,3.62,0,0,0-1.11,3.79,5.16,5.16,0,0,0,1.59,2.7c.26.22.59.48.91.36s.39-.56.45-.89a7.59,7.59,0,0,0,.06-1.07A17,17,0,0,0,848.6,573.34Z"/>
                  </g>
                </g>
                <g>
                  <path class="cls-48" d="M738.92,506.31A96.67,96.67,0,0,1,728,513.15a86.1,86.1,0,0,1-26,9.59c-10.55,1.89-22.56,1.59-26,5.48a11.74,11.74,0,0,0-2.74,5.47,9.49,9.49,0,0,0,0,2.74c6.43-4.39,9-3,9.59-2.74,3.44,2,3.09,10.77-1.37,21.92,4.06-1.23,50.79-15.49,65.73-26,2.54-1.8,7.42-5.34,8.22-11a12.29,12.29,0,0,0-2.74-9.58,11.5,11.5,0,0,0-8.22-4.11A10.84,10.84,0,0,0,738.92,506.31Z"/>
                  <ellipse class="cls-49" cx="680.04" cy="541.91" rx="8.22" ry="13.69"/>
                  <path class="cls-44" d="M678.67,543.28a3.46,3.46,0,0,1-1.84-1.46,2.35,2.35,0,0,1,0-2.3,4.47,4.47,0,0,1,1.68-1.69,3.72,3.72,0,0,1,2.32-.56,2.59,2.59,0,0,1,1.78,1.54,6.42,6.42,0,0,1,.64,2.31,5.74,5.74,0,0,1-1.3,4.52,4.54,4.54,0,0,1-4.54,1,5.94,5.94,0,0,1-2.15-1.1,5.1,5.1,0,0,1-1.42-2,8.14,8.14,0,0,1-.21-4.76,10.63,10.63,0,0,1,2-4.35,9.23,9.23,0,0,1,1.69-1.73,4.11,4.11,0,0,1,2.25-.91,3.84,3.84,0,0,1,2.29.76,6.43,6.43,0,0,1,1.63,1.78,14.11,14.11,0,0,1,1.65,9.29,19.2,19.2,0,0,1-.48,2.35c-.25.76-.47,1.52-.79,2.26a10,10,0,0,1-1.18,2.09,4.4,4.4,0,0,1-1.88,1.48,3.6,3.6,0,0,1-2.38,0,8.93,8.93,0,0,1-2.12-1.11,6.67,6.67,0,0,1-2.46-4,6.72,6.72,0,0,0,2.49,3.94,8.8,8.8,0,0,0,2.12,1.07,3.46,3.46,0,0,0,2.31,0,6,6,0,0,0,3-3.52c.32-.73.53-1.49.78-2.25a18.49,18.49,0,0,0,.47-2.33,13.93,13.93,0,0,0-1.67-9.15,6.26,6.26,0,0,0-1.57-1.71,3.64,3.64,0,0,0-2.17-.71,3.87,3.87,0,0,0-2.1.87,9,9,0,0,0-1.64,1.69,10.46,10.46,0,0,0-2,4.25,7.86,7.86,0,0,0,.19,4.63,5,5,0,0,0,3.42,2.95,4.4,4.4,0,0,0,4.38-.88,5.62,5.62,0,0,0,1.26-4.39,6.32,6.32,0,0,0-.61-2.27,2.48,2.48,0,0,0-1.68-1.48,3.6,3.6,0,0,0-2.25.52,4.36,4.36,0,0,0-1.67,1.63,2.3,2.3,0,0,0,0,2.27A3.46,3.46,0,0,0,678.67,543.28Z"/>
                  <path class="cls-50" d="M741.12,508.1A106.47,106.47,0,0,1,729,516.68a104.54,104.54,0,0,1-13.15,6.86A69.43,69.43,0,0,1,701.73,528a46.81,46.81,0,0,1-7.38.81,39.63,39.63,0,0,1-7.38-.55,43.42,43.42,0,0,0,14.69-.64,71.47,71.47,0,0,0,14-4.5,110.78,110.78,0,0,0,13.15-6.73c2.12-1.25,4.21-2.57,6.25-4S739.17,509.62,741.12,508.1Z"/>
                  <path class="cls-50" d="M691.68,538.49c2.36-.28,4.71-.65,7-1.07s4.67-.87,7-1.4a127.67,127.67,0,0,0,13.71-3.8,84.89,84.89,0,0,0,13.07-5.55A49.4,49.4,0,0,0,744,518.4a42.87,42.87,0,0,1-5.32,4.75,54.81,54.81,0,0,1-6,3.86,81.17,81.17,0,0,1-13.09,5.68,123.36,123.36,0,0,1-27.9,5.8Z"/>
                  <path class="cls-50" d="M688.26,550.93c5.23-1.55,10.43-3.23,15.59-5s10.31-3.6,15.37-5.63,10.09-4.16,15-6.61c2.43-1.23,4.82-2.54,7.13-4a40.08,40.08,0,0,0,6.51-4.93c-3.86,3.89-8.65,6.7-13.47,9.26a162.81,162.81,0,0,1-14.94,6.74q-7.63,3-15.43,5.52C698.78,548,693.54,549.56,688.26,550.93Z"/>
                  <path class="cls-50" d="M744,511.81a23.57,23.57,0,0,1-6.33,6.65,45.33,45.33,0,0,1-7.94,4.7,71.74,71.74,0,0,1-8.6,3.33l-4.45,1.23-4.5,1,4.44-1.21,4.39-1.36a78.24,78.24,0,0,0,8.51-3.41,48.78,48.78,0,0,0,7.93-4.56c.63-.43,1.21-.92,1.83-1.38s1.17-1,1.72-1.51A17.63,17.63,0,0,0,744,511.81Z"/>
                  <path class="cls-50" d="M691.68,544.21c0-.21.23-.29.39-.36a3.75,3.75,0,0,1,.55-.15c.37-.07.75-.12,1.12-.16l2.25-.24c1.49-.13,3-.28,4.48-.48a71.08,71.08,0,0,0,8.82-1.68,62.72,62.72,0,0,0,8.54-2.81,68.56,68.56,0,0,0,8.08-4,52.79,52.79,0,0,1-7.93,4.3,57.66,57.66,0,0,1-8.56,2.94,64.19,64.19,0,0,1-8.91,1.58c-1.5.15-3,.26-4.5.35l-2.26.11c-.37,0-.75.05-1.12.1a3.61,3.61,0,0,0-.55.12C691.92,543.94,691.7,544,691.68,544.21Z"/>
                </g>
                <g>
                  <path class="cls-51" d="M749.88,504.94A185.47,185.47,0,0,1,717,570.67a17.2,17.2,0,0,1,12.34-.4,17.53,17.53,0,0,1,10.94,14.09c13.7-28.75,35.61-63,35.61-63S764.94,499.46,749.88,504.94Z"/>
                  <path class="cls-52" d="M716.33,574.09a9,9,0,0,1,2.74-5.48c4-3.54,11.1-1.48,15.06,1.37,4.52,3.26,8.46,10,6.16,14.38-2.66,5-13.16,5.9-19.09.95C716.57,581.43,716.35,575.35,716.33,574.09Z"/>
                  <path class="cls-44" d="M729.11,578.08a10.88,10.88,0,0,1-.08,3,2.93,2.93,0,0,1-.58,1.37,1.25,1.25,0,0,1-.63.39,1.58,1.58,0,0,1-.75,0,6.84,6.84,0,0,1-2.44-1.68c-.35-.35-.67-.74-1-1.11l-.4-.63a2.47,2.47,0,0,1-.35-.66,3.11,3.11,0,0,1,.06-2.92,3.63,3.63,0,0,1,2.48-1.59,7.07,7.07,0,0,1,5.63,1.48,9.27,9.27,0,0,1,3.43,4.8,5.34,5.34,0,0,1-1.54,5.52,2.85,2.85,0,0,1-1.43.54,10.69,10.69,0,0,1-1.5-.06,19.44,19.44,0,0,1-2.94-.51,11.84,11.84,0,0,1-5.32-2.65,6.8,6.8,0,0,1-2.18-5.43,12.24,12.24,0,0,1,.57-2.94,9.13,9.13,0,0,1,1.2-2.73,5.45,5.45,0,0,1,5.17-2.52,11.62,11.62,0,0,1,5.51,2.17,17.68,17.68,0,0,1,4.26,4.15,9.74,9.74,0,0,1,2.1,5.5,7.08,7.08,0,0,1-2.66,5.16,7.79,7.79,0,0,1-5.7,1.14,7.75,7.75,0,0,0,5.67-1.19,7,7,0,0,0,2.57-5.11,9.59,9.59,0,0,0-2.1-5.41,17.52,17.52,0,0,0-4.23-4.1,11.32,11.32,0,0,0-5.43-2.12,5.28,5.28,0,0,0-5,2.44,9.33,9.33,0,0,0-1.16,2.69,11.83,11.83,0,0,0-.55,2.88,6.59,6.59,0,0,0,2.12,5.24,11.65,11.65,0,0,0,5.2,2.61,19.27,19.27,0,0,0,2.91.51,12.15,12.15,0,0,0,1.47.07,2.55,2.55,0,0,0,1.31-.5,5.13,5.13,0,0,0,1.49-5.3,9,9,0,0,0-3.35-4.71,6.9,6.9,0,0,0-5.5-1.48,3.54,3.54,0,0,0-2.4,1.52,3,3,0,0,0,0,2.8,2.21,2.21,0,0,0,.33.65l.38.63c.33.37.64.75,1,1.11a6.78,6.78,0,0,0,2.4,1.68,1.59,1.59,0,0,0,.72,0,1.2,1.2,0,0,0,.61-.37A2.94,2.94,0,0,0,729,581,10.87,10.87,0,0,0,729.11,578.08Z"/>
                  <path class="cls-45" d="M751.36,509.39a152.41,152.41,0,0,1-4.1,15.43,139.39,139.39,0,0,1-5.69,14.93,81.79,81.79,0,0,1-7.9,13.89c-3.17,4.25-7,8.27-11.86,10.49a25,25,0,0,0,6.41-4.67,44.24,44.24,0,0,0,5.13-6.05,83.38,83.38,0,0,0,7.76-13.87,147.54,147.54,0,0,0,5.79-14.84c.85-2.51,1.64-5.05,2.38-7.6S750.75,512,751.36,509.39Z"/>
                  <path class="cls-45" d="M758.1,517.26a90.32,90.32,0,0,1-1.42,14.67,81.05,81.05,0,0,1-3.83,14.25,55.05,55.05,0,0,1-3,6.74,41.43,41.43,0,0,1-4,6.24,35.8,35.8,0,0,1-5.06,5.38,32.87,32.87,0,0,1-6.16,4,32.73,32.73,0,0,0,6-4.22,37.25,37.25,0,0,0,4.92-5.43A52.46,52.46,0,0,0,752.39,546a86.22,86.22,0,0,0,3.92-14.15c.47-2.4.84-4.83,1.14-7.26S758,519.72,758.1,517.26Z"/>
                  <path class="cls-45" d="M756.67,509.09l2-2.79.17-.24-.08.29c-1.35,4.93-2.87,9.81-4.44,14.68s-3.29,9.68-5.12,14.46-3.81,9.5-6.1,14.08a65.56,65.56,0,0,1-3.79,6.68c-1.43,2.1-3,4.26-5.28,5.48,2.24-1.29,3.73-3.48,5.09-5.61a66.74,66.74,0,0,0,3.64-6.71c2.21-4.61,4.16-9.33,6-14.1s3.55-9.58,5.18-14.42,3.22-9.7,4.74-14.57l.1,0Z"/>
                  <path class="cls-45" d="M761.54,536.07c-1.24,3.2-2.59,6.36-4,9.49s-2.95,6.22-4.54,9.27-3.29,6-5.16,8.94a61.22,61.22,0,0,1-6.16,8.27l1.58-2c.52-.68,1-1.4,1.48-2.1s.95-1.43,1.42-2.15.93-1.44,1.36-2.18c1.79-2.93,3.45-5.93,5-9s3.13-6.1,4.63-9.19S760.13,539.2,761.54,536.07Z"/>
                </g>
                <g>
                  <path class="cls-53" d="M762.2,506.31a190.12,190.12,0,0,0,12.33,84.9,19.13,19.13,0,0,1,15.06-14c8.14-1.31,14.16,3.68,15.07,4.45-15.07-49.29-17.08-58.73-14.71-73.18C772.8,500.07,771.79,500.83,762.2,506.31Z"/>
                  <path class="cls-54" d="M774.53,587.1c.74-5.44,7.6-9.65,13.52-10.74,1.14-.21,11.52-2.13,15.92,4.58,2.46,3.75,1.69,8.13,1.37,9.59a16.6,16.6,0,0,1-4.11,5.47,17.67,17.67,0,0,1-11,4.11c-2.14.12-6.86.37-11-2.74a11.84,11.84,0,0,1-4.44-6.12A11,11,0,0,1,774.53,587.1Z"/>
                  <g>
                    <path class="cls-43" d="M791.79,587s-8.46,7.51-7.63,2,13.13-9.9,10.8-2-15.05,10.84-15.05,5.06,5.08-11.57,11.44-13,13.41,7,6.07,12.18-16.24,8-18.78,2.27"/>
                    <path class="cls-44" d="M791.79,587a22.72,22.72,0,0,1-5.5,3.81,2.17,2.17,0,0,1-1.68.14,1.6,1.6,0,0,1-.59-1.56,5.49,5.49,0,0,1,1.28-3.11,10.84,10.84,0,0,1,5.64-3.57,4.49,4.49,0,0,1,3.37.24,2.22,2.22,0,0,1,1,1.43,4.21,4.21,0,0,1,0,1.73,10.19,10.19,0,0,1-3.37,5.78,13.81,13.81,0,0,1-6,3.14,8.52,8.52,0,0,1-3.41.18,4.32,4.32,0,0,1-1.64-.62,2.72,2.72,0,0,1-1.1-1.42,10.24,10.24,0,0,1,1.26-6.63,15.53,15.53,0,0,1,10.65-7.76,8,8,0,0,1,6.35,2,8.54,8.54,0,0,1,2,2.73,6.18,6.18,0,0,1,.47,3.37,6.36,6.36,0,0,1-.22.83l-.12.41-.21.38-.41.76-.55.65a7.23,7.23,0,0,1-1.25,1.16,15.53,15.53,0,0,1-1.37,1,37.07,37.07,0,0,1-5.91,3.2,17.53,17.53,0,0,1-6.52,1.5,6.67,6.67,0,0,1-3.25-.75,5.47,5.47,0,0,1-2.18-2.48,5.3,5.3,0,0,0,2.21,2.42,6.5,6.5,0,0,0,3.22.69,17.12,17.12,0,0,0,6.42-1.61,37.8,37.8,0,0,0,5.85-3.21,14.42,14.42,0,0,0,1.35-1,7,7,0,0,0,1.19-1.12l.52-.63.39-.72c.07-.12.14-.24.2-.36l.11-.39a6.9,6.9,0,0,0,.21-.78,6.06,6.06,0,0,0-.47-3.17,8.3,8.3,0,0,0-2-2.59,7.66,7.66,0,0,0-6-1.87,15.1,15.1,0,0,0-10.27,7.59,12.87,12.87,0,0,0-1.16,3.06,10.9,10.9,0,0,0-.23,1.62,4.09,4.09,0,0,0,.12,1.57,2.85,2.85,0,0,0,2.38,1.75,8.24,8.24,0,0,0,3.24-.15,13.46,13.46,0,0,0,5.8-3,9.92,9.92,0,0,0,3.29-5.57,2.63,2.63,0,0,0-.85-2.84A4.24,4.24,0,0,0,791,583a10.71,10.71,0,0,0-5.52,3.44,5.24,5.24,0,0,0-1.28,3c0,.52,0,1.16.47,1.41a2.06,2.06,0,0,0,1.57-.11A22.73,22.73,0,0,0,791.79,587Z"/>
                  </g>
                  <path class="cls-45" d="M785.16,509.39a108,108,0,0,0,0,16.87c.12,1.4.21,2.8.35,4.2l.48,4.19c.43,2.78.84,5.56,1.44,8.31l.4,2.07.5,2c.34,1.37.64,2.74,1,4.1.82,2.68,1.55,5.4,2.54,8a120.33,120.33,0,0,0,6.7,15.48,105,105,0,0,1-7.06-15.35c-1.06-2.62-1.78-5.35-2.62-8-.38-1.36-.7-2.74-1-4.1l-.51-2.06-.41-2.07a115.5,115.5,0,0,1-2.17-16.78A97.23,97.23,0,0,1,785.16,509.39Z"/>
                  <path class="cls-45" d="M764.86,509.39c-.1,3-.1,5.94,0,8.91,0,1.48.06,3,.11,4.45s.12,3,.21,4.45c.35,5.92.84,11.83,1.72,17.7a141.1,141.1,0,0,0,3.59,17.41c.38,1.43.89,2.83,1.32,4.24.24.71.44,1.42.7,2.12l.82,2.06.82,2.07.41,1,.49,1,2,4a77.79,77.79,0,0,1-6.91-16.4A135,135,0,0,1,766.38,545c-.84-5.89-1.35-11.82-1.61-17.76A173.65,173.65,0,0,1,764.86,509.39Z"/>
                  <path class="cls-45" d="M773.22,504.93c-.27,1.92-.47,3.85-.66,5.77s-.38,3.85-.52,5.78c-.3,3.86-.51,7.72-.53,11.58a93.12,93.12,0,0,0,.46,11.57l.13,1.44.22,1.43c.17,1,.25,1.92.5,2.85s.4,1.9.65,2.83l.91,2.75a40.7,40.7,0,0,1-2.8-11.26,88.34,88.34,0,0,1-.57-11.61c.06-3.88.27-7.76.65-11.61S772.53,508.74,773.22,504.93Z"/>
                  <path class="cls-45" d="M778,527.53c-.14,1.7-.2,3.4-.22,5.11s0,3.4,0,5.1a96.1,96.1,0,0,0,.8,10.17,70.45,70.45,0,0,0,2.12,10,46.59,46.59,0,0,0,4,9.35,40.79,40.79,0,0,1-4.41-9.23,64.64,64.64,0,0,1-2.24-10,85.29,85.29,0,0,1-.69-10.22A77.54,77.54,0,0,1,778,527.53Z"/>
                  <path class="cls-45" d="M779.39,508.1a14,14,0,0,0,.7,1.33,3.82,3.82,0,0,0,.45.59c.15.18.42.32.5.14l.18-.44,0,.48q-.42,8.19-.26,16.38c0,2.73.21,5.46.38,8.19s.48,5.44.85,8.15c-.53-2.68-.95-5.4-1.21-8.12s-.42-5.47-.5-8.21,0-5.47,0-8.21.25-5.47.54-8.2l.16,0a.31.31,0,0,1-.42.14,1,1,0,0,1-.32-.25,4.48,4.48,0,0,1-.43-.64A13.09,13.09,0,0,1,779.39,508.1Z"/>
                </g>
                <g>
                  <path class="cls-43" d="M787.54,597.37s11.05,1.37,15.8-9.58"/>
                  <path class="cls-44" d="M787.54,597.37a18.91,18.91,0,0,0,4.87-.55A15.77,15.77,0,0,0,796.9,595a14.36,14.36,0,0,0,3.71-3.11,20.5,20.5,0,0,0,2.72-4.07c-.33.75-.63,1.53-1,2.25a15,15,0,0,1-1.4,2.07,13.74,13.74,0,0,1-3.75,3.29,15,15,0,0,1-4.66,1.79A14.72,14.72,0,0,1,787.54,597.37Z"/>
                </g>
                <g class="cls-55">
                  <g>
                    <path class="cls-56" d="M734.09,408.37s-11.63,23.37,0,52.47-6,5.76-6,5.76S713.27,429.54,734.09,408.37Z"/>
                    <path class="cls-57" d="M753.12,356.26s-38.6,16.54-10.74,48.55-4.89,36.59-4.89,36.59,30.93-13-1.26-39S753.12,356.26,753.12,356.26Z"/>
                    <path class="cls-58" d="M782.45,332.06s-32.37,25.47-5.47,56.65,0,58.79,0,58.79,13.38-37.83-2.82-54.51S756.43,348.53,782.45,332.06Z"/>
                    <path class="cls-59" d="M816.43,365.18s-23.68,11.43-5.87,43.19-15.87,66-15.87,66,24.08-24,15.87-47S789.19,377.41,816.43,365.18Z"/>
                    <path class="cls-60" d="M735.76,529.64c-3.93-2.26-9.62-6.34-13-13.23-5.7-11.62-.42-22.22,0-35.8.31-9.66-1.74-24-13.77-42a22.86,22.86,0,0,1,11.11,4c9.9,7.1,10.4,21,12.32,20.7s-.48-13.65,4.12-29.42c2.39-8.19,5.16-11.84,7.65-17.12,4.45-9.42,8.14-24.25,3.83-47.48a97.05,97.05,0,0,1,10,50.59,94,94,0,0,1-6.12,26.47c1.26-.31,15.2-3.93,20.17-17.48a28.44,28.44,0,0,0,.14-18.54s15.21,8.59,13.14,47.6a109.19,109.19,0,0,1,4.81-27.15c3.1-9.9,8.58-22.38,10.72-21.79s.16,14.45,0,15.56c-2.41,16.26-8.72,27.46-7.66,28,.9.47,4.65-7.9,13.78-15.57a54.17,54.17,0,0,1,9.18-6.23c-1.33,1.07-15.67,12.94-13.77,29.58a28.66,28.66,0,0,0,4.59,12.45,12.31,12.31,0,0,0,7.65-1.55c6.73-4.1,9.06-16.14,4.59-29.58a72.3,72.3,0,0,1,7.66,37.36c-.48,6.94-2,24.29-15.31,38.92A56.53,56.53,0,0,1,787,533.54a84.72,84.72,0,0,1-51.28-3.9Z"/>
                    <path class="cls-61" d="M742.65,522.64a26.08,26.08,0,0,1-12.24-12.46c-4.79-10.47-.67-20.28,0-21.79a35.78,35.78,0,0,0,0-10.9c-.66-4.16-2-7.5-1.2-7.9.48-.25,1.52.78,2.92,2.45a57.57,57.57,0,0,1,7.46,11.68,88.65,88.65,0,0,1,6.12-54.49,48.31,48.31,0,0,0,4.6,24.91,45,45,0,0,0,6.12,9.34A36.66,36.66,0,0,0,758,455.7a39.22,39.22,0,0,0,0-6.23,82.82,82.82,0,0,0-1.53-9.34s12.24,15.57,9.18,32.69c5.12-4.22,6.92-8.41,7.66-10.89,2.2-7.45.34-18.23,0-20.24a2.92,2.92,0,0,1-.09-.82c.71-.29,11.75,26.6,10.57,38.83a36.84,36.84,0,0,1,2.22-7.33,52.05,52.05,0,0,1,2.24-4.88,65.32,65.32,0,0,1,8-11.79,72.55,72.55,0,0,0-1.54,18.68,71.79,71.79,0,0,0,1.54,11.69c0,1.52-.18,3.88-.18,3.88s3.18-10.9,6.27-14c1.35,7.2,2.92,21.93-4.59,36.59-2.57,5-5.77,11.28-12.84,15.26-12.93,7.26-28.66,1.21-33-.48A50.67,50.67,0,0,1,742.65,522.64Z"/>
                    <path class="cls-62" d="M744.18,511.74a13.35,13.35,0,0,1-4.59-4.67c-3.61-6.29-.79-14,0-14,.36,0,.34,1.59,1.91,3.51a8.41,8.41,0,0,0,1.15,1.16,7.67,7.67,0,0,0,3.32,1.56,38.28,38.28,0,0,1-1.66-11.09,31.69,31.69,0,0,1,7.53-21.6c-.67,2.08-3.41,11.14-1.53,18.68a14.84,14.84,0,0,0,3.06,6.22c1.73,2,4.12,3.56,4.59,3.12s-2.21-3-3.06-7.79a20.58,20.58,0,0,1,0-6.22,53.07,53.07,0,0,1,1.53-7.79h0c1.51,4.58,2.46,8.32,3.06,10.9.54,2.33.81,3.85,1.53,6.23a51.24,51.24,0,0,0,3.06,7.78c-.41-16.19-.27-20.22,0-20.24s.89,5,3.06,12.46c1.4,4.79,2.18,6.19,3.06,6.22,1.58.07,2.91-4.16,3.07-4.67,1.05-3.44.16-4.78,0-12.45v-7.78h0s9.18,15.56,4.59,31.13a29.35,29.35,0,0,0,6.12-14,20.33,20.33,0,0,1-1.53,18.68A12.47,12.47,0,0,0,787,502.4a13,13,0,0,0,1.53-7.78c.35.52,3.27,5.07,1.42,9.94a9.91,9.91,0,0,1-3,4.07l6.12-4.67a46.32,46.32,0,0,1-13.77,14c-5.56,3.61-12,7.8-19.9,6.23C750.12,522.33,745.2,513.64,744.18,511.74Z"/>
                  </g>
                </g>
              </g>
              <g>
                <polygon class="cls-63" points="886.51 379.82 897.85 379.82 897.85 399.46 886.02 399.46 886.51 379.82"/>
                <polygon class="cls-64" points="897.85 379.82 910.68 342.44 910.68 336.74 897.85 366.21 897.85 379.82"/>
                <path class="cls-65" d="M897.85,399.46h12.83V379.82l10.6-37.38s-8.32-6.63-10.6,0l-12.83,37.38Z"/>
                <polygon class="cls-66" points="886.51 369.48 886.51 379.82 897.85 379.82 897.85 366.21 886.51 366.21 886.51 369.48"/>
                <path class="cls-66" d="M910.68,336.74s5.06-5.29,10.6,1.26v4.44s-9.11-7.14-10.6,0Z"/>
              </g>
              <g>
                <polygon class="cls-63" points="656.49 378.94 645.15 378.94 645.15 398.58 656.98 398.58 656.49 378.94"/>
                <polygon class="cls-64" points="645.15 378.94 632.32 341.56 632.32 335.86 645.15 365.33 645.15 378.94"/>
                <path class="cls-65" d="M645.15,398.58H632.32V378.94l-10.6-37.38s8.32-6.63,10.6,0l12.83,37.38Z"/>
                <polygon class="cls-66" points="656.49 368.6 656.49 378.94 645.15 378.94 645.15 365.33 656.49 365.33 656.49 368.6"/>
                <path class="cls-66" d="M632.32,335.86s-5.06-5.29-10.6,1.26v4.44s9.11-7.14,10.6,0Z"/>
              </g>
              <path class="cls-34" d="M893.84,509.39s-5.29,60,0,105.19c4.54,45.2,17.39,139.67,17.39,139.67s-6.13,2.27-9.87,0-15.07-133.76-15.07-133.76-4.54-49.13-4.54-64.24V509.39Z"/>
              <path class="cls-67" d="M639.39,310.67l0,8.69s2.35,3.85,5.52,5.52c1-9.63,0-8,0-8S642.13,315.58,639.39,310.67Z"/>
              <path class="cls-67" d="M902.39,309.47l0,9s0,3.3-5.85,6.69l1.36-8.87S902.44,314.19,902.39,309.47Z"/>
              <g class="cls-68">
                <g>
                  <path class="cls-69" d="M763.79,370.9c-38.85,0-62.21-17.35-66.81-47.66-4-26.65,10.32-29.47,11.3-43.72s-2.56-18.32-2.56-18.32,10.16,5.89,7.54,20.64c-2.08,11.65-4.72,16.31-2.52,16.84s13-18.43,8.35-30c-9.77-24.23,3-37.67,3-37.67s-4.91,17.62,2.95,29.91c8,12.55,2.88,29.38,7.3,23.48s-8.84-27.51-2.45-48.14,18.66-31.93,18.66-31.93-9.24,20.21-.4,14.31c4.52-3,12.62-8.74,19-15.86.53-.59,1.05-1.19,1.55-1.8,4.53-5.69,8.46-12.57,7.15-20.77-.07-.63-.17-1.25-.27-1.86-.21-1.22-.46-2.42-.72-3.58-.23-.83-.48-1.65-.73-2.47-4.29-14-11.37-27-8.86-35.77,2.94-10.32,15.72-20.14,15.72-20.14s-13.27,11.79-10.81,25,22.11,21.62,19.65,44.71-18.67,26.53-24.07,44.7c-2.37,8,1,10.08,5.75,9.13a16.23,16.23,0,0,0,2.1-.59c9.45-2.8,14.37-12.64,15.34-21.92.1-.81.17-1.59.24-2.35.5-5.31.89-10.34,2.61-15.22a60.41,60.41,0,0,1,8.35-15.23s-3.93,7.37-2,21.62,5.53,15.55,2,28c-3.64,12.72-8.77,36.78-3.08,38.67,4.43,1.48-.12-13.18,4.92-28.51A58.6,58.6,0,0,1,813.41,224s-7.37,12.77-2.95,25.54,12.78,12.78,17.2,29c0,0,6.2,0,2-22.11,0,0,8.7,19.55,10,40.59,0,.57.06,1.15.08,1.73.39,18.49-4.53,37.17-17.68,51.07q-.82.89-1.71,1.74C809.16,362.48,791.58,370.9,763.79,370.9Z"/>
                  <path class="cls-70" d="M766.1,370.82c-30.48,0-67.07-24.24-67.76-52.76-.32-13.6,4.59-20,8.2-26.71,0,0-2.3,16.63,4.09,16.88S722,289.61,722.6,282c.82-10.16-1.56-12.13-3.28-18.52s-.66-10.16-.66-10.16,1.8,7.45,4.92,12.13c1.31,2,4.18,15.32,3.28,21-1.38,8.67.17,10.53,4.75,10.16,18.19-1.47,2.57-28.42,2-46.7-.66-20,7-28.19,7-28.19s-.08,8.28,5.57,6.56,27.65-22.37,31.22-33.43c5.82-18-.74-30.32-.74-30.32s11.8,19,3.12,35.73c-8.59,16.52-36.87,39.49-16.88,46.94,14.56,5.44,26.05-9.09,28.76-19.66a82.12,82.12,0,0,0,2.54-20.73s3.6,11.14,2.86,19.5c-.78,8.91-20,51.45-2,59.16,8,3.44,10.48-3.69,11.14-13.11.89-12.75-3.28-13.85-1.31-22.94,0,0-1.64,6.39,9.18,16.71s7.7,30.32,7.7,30.32,8.85-11.47,10.65-13.6C833.21,285.45,844,370.82,766.1,370.82Z"/>
                  <path class="cls-71" d="M762.91,367.87s-33.43,0-49.65-23.59-11.8-28.52-11.8-28.52,7.86,21.63,14.75,14.26,2.45-25.56,2.45-25.56,5.41,31.46,18.68,32.44-7.37-31.46-5.89-30S758.48,342.8,762.91,367.87Z"/>
                  <path class="cls-72" d="M810.1,278.4s3.94,24.09-7.37,37.86-14.75,13.76-23.6,28c0,0-5.06,8-11.31-16.72a111.75,111.75,0,0,1-2.59-36.49s-13,66.48,15.38,73.85c22.38,5.83,42.77-49.65,42.77-49.65s-13.77,18.19-12.29,8.36S817,293.64,810.1,278.4Z"/>
                  <path class="cls-73" d="M755.86,323.47c.76,1.93-8.19-18-7.54-35.73s-4.58-10.81-4.91-30.15,7.21-26.87,7.21-26.87-7.87,16.71-3,30.15,9.83,16.06,7.21,25.23S750,308.39,755.86,323.47Z"/>
                  <path class="cls-74" d="M782.74,249.72c-.66,1-15.74,16.39-12.46,33.11s10.82,34.41,6.88,46.86c0,0,9.18-23.59.66-41S782.74,249.72,782.74,249.72Z"/>
                </g>
              </g>
              <polygon class="cls-39" points="691.15 334.72 689.27 556.77 655.26 541.64 655.22 329.56 691.15 334.72"/>
              <path class="cls-39" d="M655.26,541.64s-9.69,4.94-7.36,8.47c0,3.94,7.13,7.32,9.68,7.69l1.54-14.45Z"/>
              <path class="cls-75" d="M655.26,350.34c17.26,3.45,35.67,6.32,55.17,8.32a599,599,0,0,0,176.08-8.32V331.17s-114.91,19.55-231.29-1.61C655.22,347.7,655.26,350.34,655.26,350.34Z"/>
              <polygon class="cls-34" points="662.44 512.14 635.24 767.58 648.84 767.58 675.29 512.14 662.44 512.14"/>
              <polygon class="cls-39" points="670.88 548.92 688.5 553.2 688.46 556.83 670.26 556.83 670.88 548.92"/>
              <path class="cls-35" d="M647.69,548.1v8.73l4.54-1.22S647.83,554.15,647.69,548.1Z"/>
            </g>
          </g>
          <g>
            <g>
              <g>
                <polygon class="cls-76" points="1254.47 653.5 1251.4 654.51 1248.58 653.61 1246.55 650.97 1245.73 647.11 1246.26 646.93 1247.02 650.5 1248.89 652.93 1251.49 653.77 1254.32 652.83 1256.81 650.31 1258.47 646.7 1258.97 642.73 1259.5 642.55 1258.96 646.86 1257.16 650.76 1254.47 653.5"/>
                <polygon class="cls-77" points="1223.57 646.87 1157.29 630.53 1154.47 629.63 1221.03 646.06 1223.57 646.87"/>
                <polygon class="cls-77" points="1221.03 646.06 1154.47 629.63 1152.44 626.99 1219.21 643.68 1221.03 646.06"/>
                <polygon class="cls-78" points="1068.32 594.14 1068.84 593.97 1104 603.79 1103.53 603.94 1068.32 594.14"/>
                <polygon class="cls-79" points="1248.58 653.61 1251.4 654.51 1223.57 646.87 1221.03 646.06 1248.58 653.61"/>
                <polygon class="cls-80" points="1247.02 650.5 1246.26 646.93 1254.46 644.22 1254.14 649.3 1256.71 643.47 1258.97 642.73 1258.47 646.7 1256.81 650.31 1254.32 652.83 1251.49 653.77 1248.89 652.93 1247.02 650.5"/>
                <polygon class="cls-77" points="1221.03 646.06 1219.21 643.68 1246.55 650.97 1248.58 653.61 1221.03 646.06"/>
                <polygon class="cls-81" points="1055.6 598.35 1057.03 597.88 1058.57 598.25 1089.1 605.55 1058.54 597.38 1068.32 594.14 1103.53 603.94 1092.09 607.73 1055.6 598.35"/>
                <polygon class="cls-82" points="1089.1 605.55 1058.57 598.25 1058.54 597.38 1089.1 605.55"/>
                <polygon class="cls-83" points="1256.71 643.47 1254.14 649.3 1254.46 644.22 1232.8 638.68 1256.71 643.47"/>
                <polygon class="cls-84" points="1232.8 638.68 1254.46 644.22 1246.26 646.93 1218.94 640.06 1230.38 636.27 1258.97 642.73 1256.71 643.47 1232.8 638.68"/>
                <polygon class="cls-85" points="1258.97 642.73 1230.38 636.27 1230.85 636.12 1259.5 642.55 1258.97 642.73"/>
                <polygon class="cls-85" points="1218.94 640.06 1246.26 646.93 1245.73 647.11 1218.47 640.22 1218.94 640.06"/>
                <polygon class="cls-77" points="1060.75 605.93 1057.92 605.03 1094.17 613.74 1096.72 614.55 1060.75 605.93"/>
                <polygon class="cls-77" points="1057.92 605.03 1055.9 602.38 1092.35 611.36 1094.17 613.74 1057.92 605.03"/>
                <polygon class="cls-86" points="1245.73 647.11 1246.55 650.97 1219.21 643.68 1218.47 640.22 1245.73 647.11"/>
                <polygon class="cls-78" points="1055.6 598.35 1092.09 607.73 1091.61 607.89 1055.07 598.53 1055.6 598.35"/>
                <polygon class="cls-87" points="1154.47 629.63 1157.29 630.53 1096.72 614.55 1094.17 613.74 1154.47 629.63"/>
                <polygon class="cls-88" points="1055.9 602.38 1055.07 598.53 1091.61 607.89 1092.35 611.36 1055.9 602.38"/>
                <polygon class="cls-89" points="1092.09 607.73 1103.53 603.94 1164.86 618.75 1162.42 619.55 1130.02 612.72 1161.4 619.89 1152.14 622.95 1092.09 607.73"/>
                <polygon class="cls-90" points="1162.42 619.55 1164.86 618.75 1230.38 636.27 1218.94 640.06 1152.14 622.95 1161.4 619.89 1162.21 620.12 1204.38 631.92 1162.42 619.55"/>
                <polygon class="cls-91" points="1162.21 620.12 1161.4 619.89 1130.02 612.72 1162.42 619.55 1162.21 620.12"/>
                <polygon class="cls-92" points="1204.38 631.92 1162.21 620.12 1162.42 619.55 1204.38 631.92"/>
                <polygon class="cls-93" points="1092.09 607.73 1152.14 622.95 1151.62 623.13 1091.61 607.89 1092.09 607.73"/>
                <polygon class="cls-94" points="1230.38 636.27 1164.86 618.75 1165.39 618.57 1230.85 636.12 1230.38 636.27"/>
                <polygon class="cls-93" points="1165.39 618.57 1164.86 618.75 1103.53 603.94 1104 603.79 1165.39 618.57"/>
                <polygon class="cls-94" points="1151.62 623.13 1152.14 622.95 1218.94 640.06 1218.47 640.22 1151.62 623.13"/>
                <polygon class="cls-77" points="1152.44 626.99 1154.47 629.63 1094.17 613.74 1092.35 611.36 1152.44 626.99"/>
                <polygon class="cls-95" points="1219.21 643.68 1152.44 626.99 1151.62 623.13 1218.47 640.22 1219.21 643.68"/>
                <polygon class="cls-96" points="1151.62 623.13 1152.44 626.99 1092.35 611.36 1091.61 607.89 1151.62 623.13"/>
              </g>
              <g class="cls-97">
                <path class="cls-98" d="M1056,602.39c1.37.21,2.68.66,4,.93,10.41,2.59,20.83,5.11,31.24,7.71,7.12,1.8,14.23,3.68,21.34,5.53,14,3.61,27.91,7.27,41.87,10.86q31.92,8,63.84,16c7.84,2.07,15.67,4.18,23.51,6.26,1.54.44,3.14.73,4.64,1.32.83.72,1.28,1.79,2.1,2.53.85.58,2.06.42,2.84,1.14a13.86,13.86,0,0,1-2.77.37c-1.06-.2-2.09-.51-3.12-.8q-7.54-2-15.06-4c-5.16-1.35-10.28-2.8-15.45-4-5.37-1.35-10.74-2.64-16.09-4L1181,637.68c-5.18-1.35-10.39-2.6-15.58-3.9-4.28-1-8.52-2.17-12.8-3.2-13.17-3.47-26.37-6.87-39.55-10.33-7.39-1.89-14.76-3.89-22.16-5.73l-28.17-6.9c-1.87-.5-3.78-.87-5.63-1.45-.15-.58.3-.95.77-1.17A10.16,10.16,0,0,1,1056,602.39Z"/>
                <path class="cls-98" d="M1258,648.48a15,15,0,0,1,3.65.78,6,6,0,0,1-2.08,1.8,20.63,20.63,0,0,1-5.07,2.29c.52-.76,1.31-1.3,1.9-2A7.44,7.44,0,0,0,1258,648.48Z"/>
              </g>
            </g>
            <g>
              <g>
                <polygon class="cls-99" points="1152.51 630.26 1153.29 631.44 1151.98 631.12 1152.51 630.26"/>
                <polygon class="cls-100" points="1151.98 631.12 1153.29 631.44 1153.91 631.59 1154.07 631.63 1190.31 640.54 1190.21 641.28 1144.57 629.97 1144.65 629.32 1150.46 630.74 1150.68 630.8 1151.98 631.12"/>
                <polygon class="cls-101" points="1150.68 630.8 1150.46 630.74 1151.16 629.97 1152.51 630.26 1150.68 630.8"/>
                <polygon class="cls-102" points="1153.91 631.59 1153.29 631.44 1152.51 630.26 1153.98 631.23 1153.91 631.59"/>
                <polygon class="cls-77" points="1154.07 631.63 1153.91 631.59 1153.98 631.23 1154.07 631.63"/>
                <polygon class="cls-103" points="1151.98 631.12 1150.68 630.8 1152.51 630.26 1151.98 631.12"/>
                <polygon class="cls-93" points="1102.06 618.82 1102.15 618.08 1144.65 629.32 1144.57 629.97 1102.06 618.82"/>
                <polygon class="cls-89" points="1254.09 666.12 1189.1 650.22 1190.21 641.28 1255.09 658.08 1254.09 666.12"/>
                <polygon class="cls-76" points="1295.63 667.56 1297.66 670.2 1298.48 674.06 1297.95 674.23 1297.19 670.67 1295.32 668.23 1292.71 667.4 1292.81 666.66 1295.63 667.56"/>
                <polygon class="cls-100" points="1292.81 666.66 1292.71 667.4 1255.09 658.08 1255.17 657.41 1292.81 666.66"/>
                <polygon class="cls-80" points="1292.71 667.4 1295.32 668.23 1297.19 670.67 1297.95 674.23 1291.6 676.34 1291.71 675.4 1294.74 669.52 1292 673.13 1292.71 667.4"/>
                <polygon class="cls-104" points="1291.71 675.4 1291.6 676.34 1254.09 666.12 1255.09 658.08 1292.71 667.4 1292 673.13 1256.56 664.8 1291.71 675.4"/>
                <polygon class="cls-105" points="1100.94 627.75 1102.06 618.82 1144.57 629.97 1143.59 637.83 1100.94 627.75"/>
                <polygon class="cls-93" points="1190.31 640.54 1255.17 657.41 1255.09 658.08 1190.21 641.28 1190.31 640.54"/>
                <polygon class="cls-104" points="1189.1 650.22 1143.59 637.83 1144.57 629.97 1190.21 641.28 1189.1 650.22"/>
                <polygon class="cls-83" points="1291.71 675.4 1256.56 664.8 1292 673.13 1294.74 669.52 1291.71 675.4"/>
              </g>
              <g class="cls-97">
                <path class="cls-98" d="M1112.65,630.54a7.9,7.9,0,0,1,2.15.38c8.58,2,17.14,4.06,25.72,6.07,4.42,1,8.77,2.33,13.15,3.47,6,1.64,11.94,3.23,17.9,4.88.8.22,1.63.38,2.42.68a3.85,3.85,0,0,1,.3.27,5.08,5.08,0,0,1-1.81-.32l-22.25-5.88c-3.81-1-7.6-2.05-11.44-2.91q-12.76-3.16-25.52-6.26A1,1,0,0,1,1112.65,630.54Z"/>
                <path class="cls-98" d="M1206.65,654.55c.23-.2.37-.16.43.14C1206.82,654.88,1206.68,654.83,1206.65,654.55Z"/>
                <path class="cls-98" d="M1209.44,655.2c.55,0,1.26-.05,1.62.48C1210.5,655.66,1209.77,655.74,1209.44,655.2Z"/>
                <path class="cls-98" d="M1212.39,655.94a9.29,9.29,0,0,1,2.48.47c3.89,1,7.8,1.89,11.69,2.87,3.42.78,6.81,1.71,10.24,2.48,6.13,1.55,12.29,3,18.42,4.55q9.91,2.72,19.83,5.4a2,2,0,0,1,1.1.53,4,4,0,0,1-1.5-.24c-5.78-1.55-11.58-3-17.36-4.59-5.5-1.47-11-2.78-16.55-4.17q-13.71-3.43-27.41-6.82A1.5,1.5,0,0,1,1212.39,655.94Z"/>
                <rect class="cls-98" x="1261.67" y="666.05" width="0.1" height="0.1" transform="translate(-22.6 44.69) rotate(-2.01)"/>
                <path class="cls-98" d="M1282.92,671.09a7.13,7.13,0,0,1,2.44.43c2.21.46,4.4,1,6.6,1.52.44-.62.79-1.38,1.53-1.71a12.66,12.66,0,0,1-1,2c-.16.2-.29.57-.6.43l-8.38-2.09C1283.25,671.55,1282.69,671.46,1282.92,671.09Z"/>
              </g>
            </g>
            <g>
              <g>
                <polygon class="cls-106" points="1045.63 616.79 1046.5 616.96 1077.13 623.1 1046.81 615.43 1048.53 613.45 1081.92 622.75 1077.27 628.12 1043.17 619.61 1045.63 616.79"/>
                <polygon class="cls-76" points="1234.4 670.67 1234.38 670.72 1233.31 670.51 1231.12 668.13 1231.56 667.62 1233.59 669.81 1234.6 670.02 1234.4 670.67"/>
                <polygon class="cls-107" points="1234.4 670.67 1234.6 670.02 1234.62 669.97 1235.43 670.18 1235.29 670.91 1234.4 670.67"/>
                <polygon class="cls-108" points="1077.13 623.1 1046.5 616.96 1046.81 615.43 1077.13 623.1"/>
                <polygon class="cls-77" points="1078.79 630.63 1044.92 622.5 1042.73 620.12 1076.88 628.56 1078.79 630.63"/>
                <polygon class="cls-109" points="1076.88 628.56 1042.73 620.12 1043.17 619.61 1077.27 628.12 1076.88 628.56"/>
                <polygon class="cls-77" points="1078.79 630.63 1076.88 628.56 1132.76 643.07 1134.95 645.44 1078.79 630.63"/>
                <polygon class="cls-110" points="1077.27 628.12 1081.92 622.75 1138.56 636.39 1133.21 642.55 1077.27 628.12"/>
                <polygon class="cls-111" points="1077.27 628.12 1133.21 642.55 1132.76 643.07 1076.88 628.56 1077.27 628.12"/>
                <polygon class="cls-76" points="1241.46 666.39 1241.84 666.8 1239.26 669.77 1237.38 670.59 1237.31 669.9 1239.08 669.13 1241.46 666.39"/>
                <polygon class="cls-112" points="1138.56 636.39 1196.58 651.47 1191.49 657.33 1133.21 642.55 1138.56 636.39"/>
                <polygon class="cls-101" points="1133.21 642.55 1191.49 657.33 1191.07 657.82 1132.76 643.07 1133.21 642.55"/>
                <polygon class="cls-113" points="1191.49 657.33 1196.58 651.47 1236.92 661.45 1231.56 667.62 1191.49 657.33"/>
                <polygon class="cls-80" points="1231.56 667.62 1236.92 661.45 1241.46 666.39 1239.08 669.13 1237.31 669.9 1236.84 665.72 1236.38 669.69 1236.31 670.33 1236.27 670.35 1235.43 670.18 1236.77 663.01 1234.62 669.97 1234.6 670.02 1233.59 669.81 1231.56 667.62"/>
                <polygon class="cls-114" points="1234.62 669.97 1236.77 663.01 1235.43 670.18 1234.62 669.97"/>
                <polygon class="cls-115" points="1236.38 669.69 1236.84 665.72 1237.31 669.9 1236.38 669.69"/>
                <polygon class="cls-116" points="1236.31 670.33 1236.38 669.69 1237.31 669.9 1237.38 670.59 1236.31 670.33"/>
                <polygon class="cls-117" points="1191.49 657.33 1231.56 667.62 1231.12 668.13 1191.07 657.82 1191.49 657.33"/>
                <polygon class="cls-77" points="1191.07 657.82 1231.12 668.13 1233.31 670.51 1193.15 660.08 1191.07 657.82"/>
                <polygon class="cls-77" points="1191.07 657.82 1193.15 660.08 1134.95 645.44 1132.76 643.07 1191.07 657.82"/>
                <polygon class="cls-76" points="1236.22 671.09 1235.29 670.91 1235.43 670.18 1236.27 670.35 1236.31 670.34 1236.22 671.09"/>
              </g>
              <g class="cls-97">
                <path class="cls-98" d="M1042.76,620.13a26.64,26.64,0,0,1,3,.68c8.33,2.06,16.66,4.09,25,6.17,8.9,2.16,17.74,4.56,26.62,6.83,17.07,4.42,34.12,8.91,51.22,13.19l42.07,10.65q19.18,4.94,38.35,9.87a16.6,16.6,0,0,1,2,.51,15.84,15.84,0,0,1,1.44,1.51c.41.41.77,1.06,1.45,1h.52c.25-.79.25-1.78.91-2.36a10.05,10.05,0,0,1-.38,2.3c-.08.23-.05.55-.32.65a4.43,4.43,0,0,1-2.74.14c-11.62-3-23.26-6-34.89-9-19.69-5-39.4-10-59.1-15-3.28-.78-6.51-1.71-9.78-2.51-8.09-2.1-16.16-4.26-24.26-6.34-8.73-2.27-17.45-4.59-26.19-6.84q-16.23-4-32.46-7.92c-.48-.15-1.11-.14-1.36-.64.37-.12.75-.24,1.12-.39A22.63,22.63,0,0,1,1042.76,620.13Z"/>
                <path class="cls-98" d="M1240.71,667.85a3.44,3.44,0,0,1,1.59.37,6.5,6.5,0,0,1-2.69,1.21A5.55,5.55,0,0,1,1240.71,667.85Z"/>
              </g>
            </g>
            <g>
              <path class="cls-118" d="M1340.17,651.17c-1.13-.2-2.24-.54-3.35-.84l.26-.84.25-5.37-1.09-4.75-2.21-3.2-2.88-1-55.12-15-.48-1.42-2.58-.94-3.32.5-.06.11-132.34-36-3,1.38-.8,1.12.25.73.47,1.38-1.9-.47-.53.74-1.52,4.91-.25,5.37,1.09,4.75.21.3-.09.07c.49.62.94,1.3,1.41,2,.12.26.45.57.26.91a6.36,6.36,0,0,0-.42,1.32,28,28,0,0,0,4,1.2l184.72,50.18c2.13.52,4.22,1.24,6.36,1.66.52.13.91-.52,1.45-.39a1.6,1.6,0,0,0,1-.35l0,0,.1,0,3-1.38.07-.11a19,19,0,0,0,3.09-1.75c1.35-1.17,2.93-2,3.92-3.73C1340.34,652,1340.18,651.54,1340.17,651.17Z"/>
              <g>
                <g>
                  <polygon class="cls-99" points="1275.79 616.97 1276.32 616.11 1276.36 616.04 1276.83 616.17 1331.95 631.14 1328.95 632.52 1273.42 617.43 1273.6 617.4 1275.79 616.97"/>
                  <polygon class="cls-119" points="1276.36 616.04 1276.32 616.11 1276.35 614.74 1276.83 616.17 1276.36 616.04"/>
                  <polygon class="cls-119" points="1276.32 616.11 1275.79 616.97 1275.6 616.18 1276.35 614.74 1276.32 616.11"/>
                  <polygon class="cls-120" points="1273.6 617.4 1273.42 617.43 1272.26 618.38 1272.27 616.68 1273.6 617.4"/>
                  <polygon class="cls-117" points="1272.26 618.38 1273.42 617.43 1328.95 632.52 1326.45 636.01 1132.55 583.34 1133.08 582.6 1134.98 583.07 1192.17 597.25 1215.31 602.98 1134.26 580.96 1135.06 579.85 1269.59 616.39 1269.39 617.66 1270.46 617.89 1272.26 618.38"/>
                  <polygon class="cls-120" points="1272.26 618.38 1270.46 617.89 1272.27 616.68 1272.26 618.38"/>
                  <polygon class="cls-120" points="1275.79 616.97 1273.6 617.4 1272.27 616.68 1275.6 616.18 1275.79 616.97"/>
                  <polygon class="cls-121" points="1270.46 617.89 1269.39 617.66 1269.59 616.39 1269.69 615.75 1272.27 616.68 1270.46 617.89"/>
                  <polygon class="cls-122" points="1215.31 602.98 1192.17 597.25 1134.51 581.7 1134.26 580.96 1215.31 602.98"/>
                  <polygon class="cls-99" points="1269.69 615.75 1269.59 616.39 1135.06 579.85 1138.06 578.47 1270.39 614.42 1269.69 615.75"/>
                  <path class="cls-123" d="M1269.69,615.75l.7-1.33.06-.11,3.32-.51,2.58.94-.76,1.44-3.32.5Zm5.14.15.53-1-1.8-.66-2.35.35-.53,1,1.8.66Z"/>
                  <polygon class="cls-124" points="1192.17 597.25 1134.98 583.07 1134.51 581.7 1192.17 597.25"/>
                  <polygon class="cls-76" points="1331.95 631.14 1334.83 632.15 1337.04 635.34 1338.13 640.09 1337.88 645.46 1336.36 650.38 1333.85 653.87 1330.86 655.25 1329.71 654.85 1329.86 653.96 1330.9 654.33 1333.66 653.05 1335.98 649.82 1337.39 645.28 1337.61 640.33 1336.61 635.95 1334.57 632.99 1331.91 632.06 1329.14 633.34 1326.83 636.57 1325.42 641.11 1325.19 646.06 1326.2 650.45 1328.23 653.39 1328.86 653.61 1328.84 653.68 1328.58 654.46 1327.97 654.24 1325.77 651.05 1324.68 646.3 1324.92 640.93 1326.45 636.01 1328.95 632.52 1331.95 631.14"/>
                  <polygon class="cls-125" points="1328.84 653.68 1328.86 653.61 1331.03 647.07 1329.86 653.96 1328.84 653.68"/>
                  <polygon class="cls-126" points="1328.58 654.46 1328.84 653.68 1329.86 653.96 1329.71 654.85 1285.66 642.87 1328.58 654.46"/>
                  <polygon class="cls-111" points="1132.55 583.34 1326.45 636.01 1324.92 640.93 1131.03 588.26 1132.55 583.34"/>
                  <polygon class="cls-80" points="1337.61 640.33 1337.39 645.28 1335.98 649.82 1333.66 653.05 1330.9 654.33 1329.86 653.96 1331.03 647.07 1328.86 653.61 1328.23 653.39 1326.2 650.45 1325.19 646.06 1325.42 641.11 1326.83 636.57 1329.14 633.34 1331.91 632.06 1334.57 632.99 1336.61 635.95 1337.61 640.33"/>
                  <polygon class="cls-77" points="1330.86 655.25 1136.96 602.58 1134.08 601.57 1327.97 654.24 1328.58 654.46 1285.66 642.87 1329.71 654.85 1330.86 655.25"/>
                  <polygon class="cls-127" points="1324.68 646.3 1325.77 651.05 1131.87 598.37 1130.78 593.62 1324.68 646.3"/>
                  <polygon class="cls-77" points="1134.08 601.57 1131.87 598.37 1325.77 651.05 1327.97 654.24 1134.08 601.57"/>
                  <polygon class="cls-85" points="1131.03 588.26 1324.92 640.93 1324.68 646.3 1130.78 593.62 1131.03 588.26"/>
                  <polygon class="cls-128" points="1275.36 614.89 1274.83 615.9 1272.48 616.26 1270.68 615.6 1271.21 614.58 1273.56 614.23 1275.36 614.89"/>
                </g>
                <g class="cls-97">
                  <path class="cls-98" d="M1132,598.74c.51-.6,1.25,0,1.87.07q94.52,25.7,189.05,51.36a13.41,13.41,0,0,1,2.76.88,10,10,0,0,1,1.36,1.8c.42.59.77,1.35,1.42,1.57.23-.78.57-1.49.81-2.26a6.2,6.2,0,0,1,.85-2.11,30.28,30.28,0,0,1-.9,4.57,4.82,4.82,0,0,1,1.58.62,1.6,1.6,0,0,1-1,.35c-.54-.12-.93.52-1.45.39-2.14-.42-4.23-1.14-6.36-1.66l-184.72-50.18a28,28,0,0,1-4-1.2,6.36,6.36,0,0,1,.42-1.32c.19-.34-.14-.65-.26-.91C1132.93,600,1132.48,599.37,1132,598.74Z"/>
                  <path class="cls-98" d="M1337.5,646.27c1.15.3,2.3.67,3.47.88,0,.37.17.79,0,1.13-1,1.68-2.57,2.56-3.92,3.73a18.46,18.46,0,0,1-3.14,1.78,1.47,1.47,0,0,1,.35-.73,15.6,15.6,0,0,0,2-2.83C1336.72,649,1337,647.55,1337.5,646.27Z"/>
                </g>
              </g>
            </g>
            <g>
              <path class="cls-118" d="M1256.86,694A23.5,23.5,0,0,0,1253,693l.4-.87.62-4.95-1-4.43-2.33-3-.69-.22-1.54-.39,0-.09-1-.33-151.67-38.65-.56-1.64-2.88-.45-3,.46-61-15.55-3.52,1.17-3.1,3.14-2.07,4.48-.62,5,1,4.44,0,.05h-.05c.53,1,1.35,1.73,1.94,2.66-.18.57-.46,1.11-.62,1.69,2.23.69,4.54,1.11,6.78,1.76q66.71,17,133.4,34c7.31,1.85,14.61,3.76,22,5.56,0,.28-.09.57-.12.86.48.15,1,.36,1.47.51a22.13,22.13,0,0,0,2.73.34,5.11,5.11,0,0,0,1.63-.21,8.62,8.62,0,0,1,1.63.4l49.42,12.59a4.74,4.74,0,0,0,2.53.2c.6-.18,1.33-.1,1.84-.52l.08,0,3.52-1.16.35-.35-.12.18a22.23,22.23,0,0,0,3.41-1.36,22.76,22.76,0,0,0,4.83-3.23C1257,694.73,1256.8,694.3,1256.86,694Z"/>
              <g>
                <g>
                  <polygon class="cls-117" points="1093.15 640.56 1094.51 639.72 1246.74 678.5 1243.64 681.64 1024.56 625.82 1027.66 622.68 1090.24 638.63 1089.95 639.74 1093.15 640.56"/>
                  <polygon class="cls-120" points="1089.95 639.74 1090.24 638.63 1090.34 638.24 1093.22 638.69 1093.15 640.56 1089.95 639.74"/>
                  <polygon class="cls-121" points="1093.15 640.56 1093.22 638.69 1095.02 639.66 1094.51 639.72 1093.15 640.56"/>
                  <polygon class="cls-120" points="1095.02 639.66 1093.22 638.69 1097.06 638.1 1097.35 639.38 1095.02 639.66"/>
                  <polygon class="cls-77" points="1097.35 639.38 1097.06 638.1 1098.02 637.05 1097.91 638.67 1097.35 639.38"/>
                  <polygon class="cls-119" points="1097.91 638.67 1098.02 637.05 1098.59 638.69 1098.02 638.54 1097.91 638.67"/>
                  <path class="cls-77" d="M1098,637.05l-1,1.05-3.84.59-2.88-.45,1-1,.88-.14,3-.46Zm-5.86.28-.68.74,2,.31,2.71-.42.68-.74-2-.31Z"/>
                  <polygon class="cls-99" points="1091.31 637.2 1090.34 638.24 1090.24 638.63 1027.66 622.68 1031.18 621.51 1092.19 637.06 1091.31 637.2"/>
                  <path class="cls-79" d="M1189.35,685.89l-3.11-1.27-.75-.44,2.35.83,3.11,1.27.75.44Zm-2.41-1,2.2.89,1.64.59-.53-.31-2.19-.9-1.65-.58Z"/>
                  <polygon class="cls-85" points="1190.95 686.28 1187.84 685.01 1190.57 684.42 1191.29 685.05 1191.67 685.17 1190.95 686.28"/>
                  <polygon class="cls-77" points="1190.95 686.28 1191.67 685.17 1192.07 685.33 1191.7 686.72 1190.95 686.28"/>
                  <polygon class="cls-129" points="1190.57 684.42 1187.84 685.01 1188.64 682.71 1190.57 684.42"/>
                  <polygon class="cls-77" points="1191.7 686.72 1192.07 685.33 1192.55 685.53 1192.51 685.58 1191.7 686.72"/>
                  <polygon class="cls-77" points="1192.51 685.58 1192.55 685.53 1192.07 685.33 1191.67 685.17 1191.29 685.05 1244.23 698.54 1247.48 699.58 1192.51 685.58"/>
                  <polygon class="cls-130" points="1187.84 685.01 1185.49 684.18 1188.56 682.69 1188.64 682.71 1187.84 685.01"/>
                  <polygon class="cls-131" points="1188.56 682.69 1185.49 684.18 1185.52 683.79 1185.54 683.59 1185.67 681.95 1188.56 682.69"/>
                  <polygon class="cls-77" points="1185.54 683.59 1185.52 683.79 1028.4 643.76 1025.15 642.72 1185.54 683.59"/>
                  <polygon class="cls-77" points="1185.67 681.95 1185.54 683.59 1025.15 642.72 1022.83 639.69 1241.9 695.51 1244.23 698.54 1191.29 685.05 1190.57 684.42 1188.64 682.71 1188.56 682.69 1185.67 681.95"/>
                  <polygon class="cls-76" points="1250.26 677.34 1251.3 677.67 1251.28 677.76 1251.11 678.5 1250.15 678.19 1246.9 679.27 1244.04 682.16 1242.13 686.31 1241.56 690.88 1242.44 694.97 1244.59 697.77 1247.58 698.73 1250.83 697.65 1253.7 694.76 1255.6 690.61 1256.17 686.04 1255.3 681.95 1253.15 679.15 1252.51 678.95 1252.82 678.15 1253.5 678.38 1255.83 681.41 1256.78 685.84 1256.16 690.79 1254.1 695.28 1251 698.42 1247.48 699.58 1244.23 698.54 1241.9 695.51 1240.95 691.08 1241.57 686.13 1243.64 681.64 1246.74 678.5 1250.26 677.34"/>
                  <polygon class="cls-127" points="1241.9 695.51 1022.83 639.69 1021.88 635.26 1240.95 691.08 1241.9 695.51"/>
                  <polygon class="cls-85" points="1241.57 686.13 1240.95 691.08 1021.88 635.26 1022.5 630.31 1241.57 686.13"/>
                  <polygon class="cls-132" points="1251.28 677.76 1252.82 678.15 1252.51 678.95 1251.09 678.58 1251.11 678.5 1251.28 677.76"/>
                  <polygon class="cls-80" points="1251.11 678.5 1251.09 678.58 1248.87 688.46 1252.51 678.95 1253.15 679.15 1255.3 681.95 1256.17 686.04 1255.6 690.61 1253.7 694.76 1250.83 697.65 1247.58 698.73 1244.59 697.77 1242.44 694.97 1241.56 690.88 1242.13 686.31 1244.04 682.16 1246.9 679.27 1250.15 678.19 1251.11 678.5"/>
                  <polygon class="cls-133" points="1251.09 678.58 1252.51 678.95 1248.87 688.46 1251.09 678.58"/>
                  <polygon class="cls-111" points="1024.56 625.82 1243.64 681.64 1241.57 686.13 1022.5 630.31 1024.56 625.82"/>
                  <polygon class="cls-99" points="1098.02 638.54 1098.59 638.69 1250.26 677.34 1246.74 678.5 1094.51 639.72 1095.02 639.66 1097.35 639.38 1097.91 638.67 1098.02 638.54"/>
                  <polygon class="cls-134" points="1091.48 638.07 1092.16 637.33 1094.87 636.91 1096.88 637.23 1096.2 637.96 1093.49 638.38 1091.48 638.07"/>
                  <polygon class="cls-135" points="1189.14 685.76 1186.94 684.87 1186.41 684.56 1188.06 685.14 1190.25 686.04 1190.79 686.35 1189.14 685.76"/>
                </g>
                <g class="cls-97">
                  <path class="cls-98" d="M1022.82,639.74a14.87,14.87,0,0,1,2.54.52q102.09,26.06,204.2,52c4,1,8,2,12,3.07,1.3.84,1.74,2.62,3.15,3.34.87.35,1.83.44,2.7.81-.51.46-1.26.37-1.88.55a4.7,4.7,0,0,1-2.52-.2l-49.43-12.59a9.58,9.58,0,0,0-1.62-.4,5.17,5.17,0,0,1-1.64.21,22.37,22.37,0,0,1-2.73-.34c-.5-.15-1-.36-1.47-.51,0-.29.07-.58.12-.86-7.33-1.8-14.63-3.71-22-5.56q-66.69-17-133.39-34c-2.25-.65-4.56-1.07-6.78-1.76.16-.58.44-1.12.62-1.69C1024.16,641.46,1023.35,640.7,1022.82,639.74ZM1185.57,682c0,.75.11,1.5.13,2.25.81.29,1.65.49,2.45.84a12.41,12.41,0,0,0,2.37.93c.37,0,.6-.33.92-.49-.76-.74-1.56-1.46-2.33-2.2C1188.17,682.42,1186.73,682.51,1185.57,682Z"/>
                  <path class="cls-98" d="M1250.88,678.87c.28,0,.95,0,.75.48-.41,1.73-1.12,3.36-1.56,5.08-.19.55-.23,1.19-.68,1.59a12.68,12.68,0,0,1,.54-3C1250.28,681.61,1250.51,680.22,1250.88,678.87Z"/>
                  <path class="cls-98" d="M1255.65,691.65a21.75,21.75,0,0,1,4,1c-.06.34.14.77-.15,1.06a22.7,22.7,0,0,1-4.82,3.23,22,22,0,0,1-3.41,1.36,11.54,11.54,0,0,1,2.06-2.41,10.44,10.44,0,0,0,1.61-2.66C1255.12,692.65,1255.46,692.19,1255.65,691.65Z"/>
                </g>
              </g>
            </g>
            <g>
              <path class="cls-118" d="M986.06,730.67c1-.33,1.94-.78,2.89-1.18l-.37-.64-1.06-4.25.24-4,1.5-2.89,2.45-1.25,47.53-20.34.21-1.21,2.19-1.15,3.08-.1.07.08,114.12-48.86,2.93.65.9.77-.11.62-.21,1.17,1.64-.66.59.51,2.16,3.69,1.06,4.25-.24,4-.14.26.08.05c-.34.57-.65,1.18-1,1.79-.07.22-.32.52-.1.76a5.18,5.18,0,0,1,.59,1,27.71,27.71,0,0,1-3.41,1.57Q1084,699.41,1004.4,733.5c-1.84.74-3.63,1.64-5.5,2.3-.45.18-.9-.28-1.37-.1a1.57,1.57,0,0,1-1-.12h0l-.07,0-2.93-.65-.08-.07a17.77,17.77,0,0,1-3.07-.93c-1.41-.72-3-1.19-4.14-2.38C986,731.33,986.1,731,986.06,730.67Z"/>
              <g>
                <g>
                  <polygon class="cls-99" points="1039.65 682.19 1039.11 681.16 1039.06 681.08 1038.64 681.27 989.03 703.56 991.87 705.06 1041.86 682.59 1041.68 682.57 1039.65 682.19"/>
                  <polygon class="cls-119" points="1039.06 681.08 1039.11 681.16 1038.99 679.47 1038.64 681.27 1039.06 681.08"/>
                  <polygon class="cls-119" points="1039.11 681.16 1039.65 682.19 1039.77 681.2 1038.99 679.47 1039.11 681.16"/>
                  <polygon class="cls-120" points="1041.68 682.57 1041.86 682.59 1042.98 683.69 1042.86 681.59 1041.68 682.57"/>
                  <polygon class="cls-117" points="1042.98 683.69 1041.86 682.59 991.87 705.06 994.41 709.21 1168.91 630.77 1168.37 629.89 1166.66 630.6 1115.1 652.06 1094.24 660.74 1167.18 627.95 1166.37 626.62 1045.3 681.05 1045.57 682.59 1044.6 682.96 1042.98 683.69"/>
                  <polygon class="cls-120" points="1042.98 683.69 1044.6 682.96 1042.86 681.59 1042.98 683.69"/>
                  <polygon class="cls-120" points="1039.65 682.19 1041.68 682.57 1042.86 681.59 1039.77 681.2 1039.65 682.19"/>
                  <polygon class="cls-121" points="1044.6 682.96 1045.57 682.59 1045.3 681.05 1045.16 680.25 1042.86 681.59 1044.6 682.96"/>
                  <polygon class="cls-122" points="1094.24 660.74 1115.1 652.06 1167 628.87 1167.18 627.95 1094.24 660.74"/>
                  <polygon class="cls-99" points="1045.16 680.25 1045.3 681.05 1166.37 626.62 1163.53 625.12 1044.43 678.66 1045.16 680.25"/>
                  <path class="cls-123" d="M1042.86,681.59l-3.09-.39-.78-1.73,2.3-1.33,3.08.39.07.13.72,1.59Zm-.22-.51,1.61-.94-.56-1.22-2.18-.27-1.61.93.56,1.22Z"/>
                  <polygon class="cls-124" points="1115.1 652.06 1166.66 630.6 1167 628.87 1115.1 652.06"/>
                  <polygon class="cls-76" points="989.03 703.56 986.45 705.01 984.64 709.11 983.95 715.05 984.53 721.66 986.26 727.63 988.79 731.78 991.63 733.28 992.66 732.71 992.46 731.62 991.53 732.14 988.91 730.76 986.57 726.93 984.98 721.42 984.44 715.31 985.08 709.82 986.75 706.04 989.13 704.7 991.75 706.09 994.09 709.91 995.69 715.43 996.22 721.53 995.59 727.02 993.91 730.81 993.35 731.12 993.38 731.21 993.66 732.14 994.21 731.84 996.02 727.74 996.71 721.79 996.13 715.18 994.41 709.21 991.87 705.06 989.03 703.56"/>
                  <polygon class="cls-125" points="993.38 731.21 993.35 731.12 990.93 723.19 992.46 731.62 993.38 731.21"/>
                  <polygon class="cls-126" points="993.66 732.14 993.38 731.21 992.46 731.62 992.66 732.71 1032.3 714.87 993.66 732.14"/>
                  <polygon class="cls-111" points="1168.91 630.77 994.41 709.21 996.13 715.18 1170.63 636.74 1168.91 630.77"/>
                  <polygon class="cls-80" points="984.44 715.31 984.98 721.42 986.57 726.93 988.91 730.76 991.53 732.14 992.46 731.62 990.93 723.19 993.35 731.12 993.91 730.81 995.59 727.02 996.22 721.53 995.69 715.43 994.09 709.91 991.75 706.09 989.13 704.7 986.75 706.04 985.08 709.82 984.44 715.31"/>
                  <polygon class="cls-77" points="991.63 733.28 1166.13 654.84 1168.71 653.39 994.21 731.84 993.66 732.14 1032.3 714.87 992.66 732.71 991.63 733.28"/>
                  <polygon class="cls-127" points="996.71 721.79 996.02 727.74 1170.52 649.29 1171.21 643.35 996.71 721.79"/>
                  <polygon class="cls-77" points="1168.71 653.39 1170.52 649.29 996.02 727.74 994.21 731.84 1168.71 653.39"/>
                  <polygon class="cls-85" points="1170.63 636.74 996.13 715.18 996.71 721.79 1171.21 643.35 1170.63 636.74"/>
                  <polygon class="cls-128" points="1039.9 679.58 1040.46 680.8 1042.64 681.08 1044.25 680.14 1043.69 678.92 1041.51 678.65 1039.9 679.58"/>
                </g>
                <g class="cls-97">
                  <path class="cls-98" d="M1170.44,649.76c-.51-.71-1.15.06-1.71.22L998.59,726.46a10.1,10.1,0,0,0-2.48,1.28,12.51,12.51,0,0,0-1.13,2.32c-.34.75-.61,1.72-1.2,2-.26-1-.62-1.8-.89-2.74a9.12,9.12,0,0,0-.92-2.55,50.25,50.25,0,0,0,1.12,5.59,4,4,0,0,0-1.4.87c.32.23.64.47,1,.36s.88.59,1.35.39c1.94-.67,3.81-1.7,5.73-2.49q83.13-37.35,166.25-74.73a21.88,21.88,0,0,0,3.57-1.76,9.92,9.92,0,0,0-.48-1.6c-.19-.41.09-.81.19-1.14C1169.66,651.43,1170,650.56,1170.44,649.76Z"/>
                  <path class="cls-98" d="M984.94,722.64a32.52,32.52,0,0,1-3.13,1.32,3.26,3.26,0,0,0,.11,1.4c1,2,2.53,3,3.84,4.34a16,16,0,0,0,3,2,2.07,2.07,0,0,0-.36-.88,19.55,19.55,0,0,1-2-3.36C985.83,725.9,985.48,724.19,984.94,722.64Z"/>
                </g>
              </g>
            </g>
            <g>
              <path class="cls-118" d="M967.21,690.49c1-.33,1.94-.78,2.9-1.18l-.37-.64-1.06-4.25.24-4,1.49-2.88,2.46-1.25L1020.39,656l.22-1.21,2.18-1.15,3.09-.1.07.08,114.12-48.86,2.92.65.9.77-.11.62-.21,1.17,1.64-.66.6.51,2.15,3.69,1.06,4.25-.24,4-.14.26.09,0c-.35.57-.65,1.18-1,1.79-.08.22-.32.52-.1.76a5.18,5.18,0,0,1,.59,1,30.06,30.06,0,0,1-3.41,1.57q-79.65,34.1-159.3,68.19c-1.84.74-3.62,1.64-5.49,2.3-.45.18-.91-.28-1.37-.1a1.59,1.59,0,0,1-1-.12h0l-.08,0-2.92-.65-.09-.07a19,19,0,0,1-3.07-.93c-1.4-.72-3-1.19-4.13-2.38C967.18,691.15,967.26,690.79,967.21,690.49Z"/>
              <g>
                <g>
                  <polygon class="cls-99" points="1020.8 642.01 1020.26 640.98 1020.22 640.89 1019.79 641.09 970.19 663.38 973.03 664.88 1023.01 642.41 1022.84 642.38 1020.8 642.01"/>
                  <polygon class="cls-119" points="1020.22 640.89 1020.26 640.98 1020.14 639.29 1019.79 641.09 1020.22 640.89"/>
                  <polygon class="cls-119" points="1020.26 640.98 1020.8 642.01 1020.93 641.02 1020.14 639.29 1020.26 640.98"/>
                  <polygon class="cls-120" points="1022.84 642.38 1023.01 642.41 1024.13 643.51 1024.02 641.41 1022.84 642.38"/>
                  <polygon class="cls-117" points="1024.13 643.51 1023.01 642.41 973.03 664.88 975.56 669.03 1150.06 590.59 1149.53 589.71 1147.82 590.42 1096.26 611.88 1075.39 620.56 1148.34 587.77 1147.53 586.44 1026.45 640.87 1026.72 642.41 1025.76 642.78 1024.13 643.51"/>
                  <polygon class="cls-120" points="1024.13 643.51 1025.76 642.78 1024.02 641.41 1024.13 643.51"/>
                  <polygon class="cls-120" points="1020.8 642.01 1022.84 642.38 1024.02 641.41 1020.93 641.02 1020.8 642.01"/>
                  <polygon class="cls-121" points="1025.76 642.78 1026.72 642.41 1026.45 640.87 1026.32 640.07 1024.02 641.41 1025.76 642.78"/>
                  <polygon class="cls-122" points="1075.39 620.56 1096.26 611.88 1148.16 588.69 1148.34 587.77 1075.39 620.56"/>
                  <polygon class="cls-99" points="1026.32 640.07 1026.45 640.87 1147.53 586.44 1144.69 584.94 1025.59 638.48 1026.32 640.07"/>
                  <path class="cls-123" d="M1024,641.41l-3.09-.39-.79-1.73,2.3-1.33,3.09.39.06.13.73,1.59Zm-.23-.51,1.61-.94-.55-1.22-2.18-.27-1.62.93.56,1.22Z"/>
                  <polygon class="cls-124" points="1096.26 611.88 1147.82 590.42 1148.16 588.69 1096.26 611.88"/>
                  <polygon class="cls-76" points="970.19 663.38 967.61 664.83 965.79 668.93 965.11 674.87 965.68 681.49 967.41 687.46 969.95 691.6 972.78 693.1 973.81 692.53 973.61 691.44 972.68 691.96 970.06 690.58 967.72 686.75 966.13 681.24 965.6 675.13 966.23 669.64 967.9 665.86 970.29 664.52 972.91 665.91 975.25 669.74 976.84 675.25 977.38 681.35 976.74 686.84 975.07 690.63 974.51 690.94 974.53 691.02 974.82 691.96 975.37 691.66 977.18 687.56 977.87 681.61 977.29 675 975.56 669.03 973.03 664.88 970.19 663.38"/>
                  <polygon class="cls-125" points="974.53 691.02 974.51 690.94 972.09 683.01 973.61 691.44 974.53 691.02"/>
                  <polygon class="cls-126" points="974.82 691.96 974.53 691.02 973.61 691.44 973.81 692.53 1013.46 674.69 974.82 691.96"/>
                  <polygon class="cls-111" points="1150.06 590.59 975.56 669.03 977.29 675 1151.79 596.55 1150.06 590.59"/>
                  <polygon class="cls-80" points="965.6 675.13 966.13 681.24 967.72 686.75 970.06 690.58 972.68 691.96 973.61 691.44 972.09 683.01 974.51 690.94 975.07 690.63 976.74 686.84 977.38 681.35 976.84 675.25 975.25 669.74 972.91 665.91 970.29 664.52 967.9 665.86 966.23 669.64 965.6 675.13"/>
                  <polygon class="cls-77" points="972.78 693.1 1147.28 614.66 1149.87 613.21 975.37 691.66 974.82 691.96 1013.46 674.69 973.81 692.53 972.78 693.1"/>
                  <polygon class="cls-127" points="977.87 681.61 977.18 687.56 1151.68 609.11 1152.37 603.17 977.87 681.61"/>
                  <polygon class="cls-77" points="1149.87 613.21 1151.68 609.11 977.18 687.56 975.37 691.66 1149.87 613.21"/>
                  <polygon class="cls-85" points="1151.79 596.55 977.29 675 977.87 681.61 1152.37 603.17 1151.79 596.55"/>
                  <polygon class="cls-128" points="1021.05 639.4 1021.61 640.62 1023.79 640.9 1025.4 639.96 1024.85 638.74 1022.67 638.47 1021.05 639.4"/>
                </g>
                <g class="cls-97">
                  <path class="cls-98" d="M1151.59,609.58c-.5-.71-1.14.06-1.71.22L979.75,686.28a9.75,9.75,0,0,0-2.48,1.28,12.51,12.51,0,0,0-1.13,2.32c-.35.75-.62,1.72-1.2,2-.26-.95-.63-1.8-.9-2.74a8.82,8.82,0,0,0-.92-2.55,50.27,50.27,0,0,0,1.13,5.59,4,4,0,0,0-1.4.87c.31.23.64.47,1,.36.49-.19.89.59,1.36.39,1.93-.67,3.81-1.7,5.73-2.49l166.24-74.73a21.88,21.88,0,0,0,3.57-1.76,9.91,9.91,0,0,0-.47-1.6c-.19-.41.09-.81.18-1.14C1150.81,611.25,1151.18,610.38,1151.59,609.58Z"/>
                  <path class="cls-98" d="M966.09,682.46a33.88,33.88,0,0,1-3.12,1.32,3.26,3.26,0,0,0,.1,1.4c1,2,2.53,3,3.85,4.34a15.86,15.86,0,0,0,3,2,2.08,2.08,0,0,0-.37-.88,19.55,19.55,0,0,1-2-3.36C967,685.72,966.63,684,966.09,682.46Z"/>
                </g>
              </g>
            </g>
          </g>
        </g>
      </g>
    </g>
  </g>
</svg>
