<svg xmlns="http://www.w3.org/2000/svg" xmlns:xlink="http://www.w3.org/1999/xlink" width="1600" height="900" viewBox="0 0 1600 900">
  <defs>
    <style>
      .cls-1, .cls-25 {
        fill: none;
      }

      .cls-2 {
        isolation: isolate;
      }

      .cls-3 {
        clip-path: url(#clip-path);
      }

      .cls-4 {
        fill: #c3eaf4;
      }

      .cls-5 {
        fill: #70a0bc;
        opacity: 0.39;
      }

      .cls-5, .cls-7, .cls-8 {
        fill-rule: evenodd;
      }

      .cls-6 {
        fill: #70492e;
      }

      .cls-7 {
        fill: #492d1a;
      }

      .cls-8 {
        fill: #9dab44;
      }

      .cls-9 {
        opacity: 0.32;
      }

      .cls-10 {
        fill: #efbb8f;
      }

      .cls-11 {
        fill: #988073;
      }

      .cls-12 {
        fill: #b59f95;
      }

      .cls-13 {
        clip-path: url(#clip-path-2);
      }

      .cls-14 {
        fill: #dc9963;
      }

      .cls-15 {
        clip-path: url(#clip-path-3);
      }

      .cls-16 {
        fill: #444;
      }

      .cls-17 {
        fill: #f59247;
      }

      .cls-18 {
        fill: #f8ac66;
      }

      .cls-19 {
        fill: #7d7d7d;
      }

      .cls-20, .cls-21, .cls-38, .cls-39 {
        fill: #a8afc9;
      }

      .cls-21, .cls-38 {
        mix-blend-mode: screen;
      }

      .cls-21, .cls-30, .cls-34 {
        opacity: 0.3;
      }

      .cls-22 {
        fill: #858585;
      }

      .cls-23 {
        fill: #999;
      }

      .cls-24 {
        fill: #616161;
      }

      .cls-25 {
        stroke: #737373;
        stroke-width: 2px;
      }

      .cls-25, .cls-27, .cls-28, .cls-29, .cls-31, .cls-32, .cls-33, .cls-35, .cls-40 {
        stroke-miterlimit: 10;
      }

      .cls-26 {
        fill: #383838;
      }

      .cls-27, .cls-31, .cls-52 {
        fill: #f9dad2;
      }

      .cls-27, .cls-31 {
        stroke: #755339;
      }

      .cls-27, .cls-32 {
        stroke-width: 0.75px;
      }

      .cls-28 {
        fill: #e2b9b3;
      }

      .cls-28, .cls-29 {
        stroke: #8e6e4c;
      }

      .cls-29 {
        fill: #e5baa9;
      }

      .cls-30 {
        fill: #ae9bb1;
      }

      .cls-30, .cls-34, .cls-36, .cls-39 {
        mix-blend-mode: multiply;
      }

      .cls-32 {
        fill: #8996b0;
        stroke: #43656d;
      }

      .cls-33 {
        fill: #9cbff0;
        stroke: #3d6f8e;
      }

      .cls-34, .cls-36 {
        fill: #5d7fb3;
      }

      .cls-35 {
        fill: #5f7493;
      }

      .cls-35, .cls-40 {
        stroke: #2b677a;
        stroke-width: 0.5px;
      }

      .cls-36 {
        opacity: 0.1;
      }

      .cls-37 {
        fill: #844b34;
      }

      .cls-40 {
        fill: #8da0c0;
      }

      .cls-41 {
        fill: #342517;
      }

      .cls-42 {
        fill: #fff;
      }

      .cls-43 {
        fill: #381515;
      }

      .cls-44 {
        fill: #2b1c1c;
      }

      .cls-45 {
        fill: #a84545;
      }

      .cls-46 {
        fill: #b53c3c;
      }

      .cls-47 {
        fill: #681c1c;
      }

      .cls-48 {
        fill: #f75a23;
      }

      .cls-49 {
        fill: #a1c5ce;
      }

      .cls-50 {
        fill: #755339;
      }

      .cls-51 {
        fill: #b26b51;
      }

      .cls-53 {
        fill: #efb9af;
      }

      .cls-54 {
        fill: #b1a927;
      }

      .cls-55 {
        fill: #773823;
      }

      .cls-56 {
        fill: #5c2a1b;
      }

      .cls-57 {
        fill: #401313;
      }
    </style>
    <clipPath id="clip-path">
      <rect class="cls-1" width="1600" height="900"/>
    </clipPath>
    <clipPath id="clip-path-2">
      <path class="cls-1" d="M1148.06,412.07c6.12-1.1,6.88,4.59,5.66,6.8-2.42,6.06-12.13,4.59-17.59,5.14-12.74,2.21-24.26,3.86-37,8.27-7.89,2.2-16.38,2.2-24.27,3.31-8.49.55-17,3.3-24.87,4.41-15.16,1.65-30.33,0-43.67-6.07-6.67-2.75-34.58-16-26.09-24.8,4.86-5,24-28.34,31.86-28.34,13.34,0,23.71-3.33,37.05-5.53,12.74-1.66,31.46,5.53,44.8,8.29,15.78,2.76,20.69,15.83,37.06,15.83Z"/>
    </clipPath>
    <clipPath id="clip-path-3">
      <path class="cls-1" d="M1253.61,547.92c6.12-1.11,6.88,4.59,5.66,6.79-2.42,6.07-12.13,4.6-17.59,5.15-12.74,2.2-24.26,3.86-37,8.27-7.89,2.2-16.38,2.2-24.26,3.3-8.5.55-17,3.31-24.88,4.41-15.16,1.66-30.32,0-43.67-6.06-6.67-2.76-34.58-16-26.08-24.81,4.85-5,24-28.34,31.85-28.34,13.34,0,23.71-3.32,37.06-5.53,12.73-1.65,31.45,5.54,44.8,8.3,15.77,2.75,20.68,15.83,37.06,15.83Z"/>
    </clipPath>
  </defs>
  <g class="cls-2">
    <g id="Layer_1" data-name="Layer 1">
      <g>
        <g class="cls-3">
          <g>
            <g>
              <rect class="cls-4" x="-407.17" y="-45" width="2314.17" height="413.27"/>
              <path class="cls-5" d="M1905,129.07c-196.69-72.51-402.52,7.9-533.53,23.63-540,64.83-930.16-75-1456.61-34.11-83.6,6.5-230.85,4.62-322,6V226.94H1905Z"/>
            </g>
            <rect class="cls-6" x="-410.27" y="238.32" width="2041.27" height="668.33"/>
            <g>
              <rect class="cls-6" x="-581.87" y="220.15" width="2476.87" height="610.04"/>
              <path class="cls-7" d="M812.17,621.85c77.58,2.26,157.08,4.29,230.9-14.44,19.14-4.84,40.69-10.92,58.42-3.53,11.07,4.62,18.15,13.75,29.26,18.34,27,11.18,56.88-9,86.16-16.05,37.19-8.94,76.57,4.39,115.4,6.72,103.84,6.22,214.43-65.17,303-22.59,17.94,8.64,37.34,22.08,57,16.15,12.81-3.88,19.62-14.73,30.92-20.75,32.7-17.41,71.86,12.65,109.86,21.35,29.67,6.78,61.21-.21,92-2.79,5.33-.47,10.66-.77,16-1v20.38q-1.63,14.55-3.29,29.07c-431.73,30.45-867.1,27.69-1301.05,24.79q-584.44-3.87-1168.91-7.78c-16.16-.1-32.93-.46-49.62-1.52V634.57l117.54,10.77c11.2,1,23.64,1.77,32.63-3.49s8.85-19-2.18-20.75c55.53,6.21,111.92,5.18,168,4.16l187.92-3.45c76.5-1.43,153-2.83,229.24-8.11,21.29-1.49,42.56-3.28,63.84-4.53,15.39-.89,30.81-1.55,46.22-1.81,28.79-.5,57.57.34,86.34,1.19q88.26,2.51,176.54,5Q668.21,617.75,812.17,621.85Z"/>
              <path class="cls-7" d="M529,530.42c-78.25,1.27-158.43,2.4-232.89-8.09-19.3-2.71,20.85,12,3,16.15-11.17,2.58-18.31,7.7-29.52,10.27-27.24,6.27-57.37-5.06-86.9-9-37.51-5-77.22,2.46-116.39,3.76C-38.52,547-161.9,513.38-251.18,537.23c-18.1,4.85-147.69,9.25-167.52,5.93-12.92-2.17-19.79-8.25-31.19-11.63-33-9.75-72.48,7.09-110.81,12-15.9,2-32.34,1.85-48.9,1v26.53c421.7,13.14,896.75-7.9,1315.57-9.46l1179-4.35c16.3-.06,33.21-.26,50-.85V537.55l-118.55,6c-11.3.57-23.85,1-32.91-2s-8.93-10.64,2.2-11.62c-56,3.48-112.89,2.9-169.48,2.33l-189.54-1.93c-77.16-.8-154.36-1.59-231.21-4.54-21.47-.84-42.93-1.84-64.4-2.55-15.52-.49-31.08-.86-46.62-1-29-.28-58.06.19-87.08.67q-89,1.39-178.06,2.82Q674.15,528.12,529,530.42Z"/>
              <path class="cls-7" d="M218,474.42c-78.25,1.27-158.43,2.4-232.89-8.09-19.3-2.71,20.85,12,3,16.15-11.17,2.58-18.31,7.7-29.52,10.27-27.24,6.27-57.37-5.06-86.9-9-37.51-5-77.22,2.46-116.39,3.76-104.73,3.49-228.11-30.14-317.39-6.29-18.1,4.85-147.69,9.25-167.52,5.93-12.92-2.17-19.79-8.25-31.19-11.63-33-9.75-72.48,7.09-110.81,12-15.9,2-32.34,1.85-48.9,1v26.53c421.7,13.14,896.75-7.9,1315.57-9.46l1179-4.35c16.3-.06,33.21-.26,50-.85V481.55l-118.55,6c-11.3.57-23.85,1-32.91-2s-8.93-10.64,2.2-11.62c-56,3.48-112.89,2.9-169.48,2.33l-189.54-1.93c-77.16-.8-154.36-1.59-231.21-4.54-21.47-.84-42.93-1.84-64.4-2.55-15.52-.49-31.08-.86-46.62-1-29-.28-58.06.19-87.08.67q-89,1.39-178.06,2.82Q363.15,472.11,218,474.42Z"/>
              <path class="cls-7" d="M1591.25,765.59q22.66,6.15,45.32,12.34c11.35,3.11,23,6.18,34.16.74s21.83-21.37,24.52-44.16c-15-8.16-30.5-16.35-45.84-11.65-12.81,3.95-24.73,16.72-37.61,19.7C1603.23,744.53,1591.27,747.91,1591.25,765.59Z"/>
              <path class="cls-7" d="M1101.59,723.09c16.83-10.22,36.44,5.9,51.83-11.43,5.37-15.76-.81-39.27-9.62-46s-18.62-1.59-27.55,4.47-18.16,13.11-27.45,10.14c1.17-4.37-.78-9.36-2.57-12.74-4.72-8.89-9.44-17.75-14.16-26.65-15.15.64-29,16.32-42.24,31.56,3,4.36,6.06,8.29,9.16,12.21q16,20.22,32,40.48c2.82,3.55,5.72,7.19,9,8.52C1087.31,736.72,1094.37,727.45,1101.59,723.09Z"/>
              <path class="cls-7" d="M1299.18,702.4a75.23,75.23,0,0,0,43.14,5.4c-3.3-29.6-20.79-48.67-34.63-37.76q.6,3.71,1.22,7.4C1303.52,680.29,1299.35,691,1299.18,702.4Z"/>
              <path class="cls-7" d="M1384.89,685.4c21.27,25.11,48.75,26.54,70.6,3.65.7-7.36-2.15-14.49-5.52-17.45s-7.15-2.89-10.8-3.5c-9.89-1.6-19.48-8.39-29.39-8.89S1388.77,666.72,1384.89,685.4Z"/>
              <path class="cls-7" d="M209.07,406.34c436.72,0,790.94,14.55,790.94,24.12S460.07,451.37,23.34,451.37s-605.21-18.17-605.21-27.72,354.16-17.31,790.94-17.31Z"/>
              <path class="cls-7" d="M1169.76,402.5c51.43,1.42,104.12,2.7,153.06-9.1,12.68-3.06,27-6.89,38.72-2.23,7.34,2.91,12,8.67,19.39,11.56,17.91,7,37.71-5.7,57.11-10.12,24.66-5.63,50.75,2.77,76.49,4.24,68.83,3.92,142.14-41.08,200.81-14.24,11.89,5.45,24.75,13.92,37.78,10.18,8.5-2.45,13-9.28,20.5-13.08,21.68-11,47.63,8,72.82,13.46,19.67,4.27,40.57-.13,61-1.76,3.54-.3,7.07-.48,10.61-.61v12.84q-1.08,9.18-2.18,18.33c-286.17,19.19-574.75,17.45-862.39,15.62l-774.8-4.9c-10.71-.07-21.83-.29-32.89-1V410.51l77.9,6.79c7.43.64,15.68,1.12,21.64-2.2s5.86-12-1.45-13.08c36.81,3.92,74.18,3.27,111.38,2.62l124.56-2.17c50.7-.9,101.44-1.78,152-5.11,14.11-.94,28.21-2.07,42.32-2.86,10.19-.56,20.42-1,30.63-1.14,19.09-.31,38.16.22,57.23.75q58.5,1.59,117,3.18Z"/>
              <path class="cls-7" d="M867.28,354.5c56.4,1.42,114.2,2.7,167.88-9.1,13.91-3.06,29.58-6.89,42.47-2.23,8,2.91,13.2,8.67,21.28,11.56,19.64,7,41.35-5.7,62.64-10.12,27-5.63,55.67,2.77,83.9,4.24,75.49,3.92,155.9-41.08,220.26-14.24,13,5.45,27.15,13.92,41.44,10.18,9.32-2.45,14.27-9.28,22.48-13.08,23.78-11,52.25,8,79.88,13.46,21.57,4.27,44.5-.13,66.85-1.76,3.88-.3,7.76-.48,11.64-.61v12.84q-1.18,9.18-2.39,18.33c-313.89,19.19-630.43,17.45-945.94,15.62l-849.85-4.9c-11.75-.07-23.95-.29-36.08-1V362.51l85.45,6.79c8.15.64,17.19,1.12,23.73-2.2s6.43-12-1.59-13.08c40.37,3.92,81.37,3.27,122.17,2.62l136.63-2.17c55.61-.9,111.26-1.78,166.67-5.11,15.47-.94,30.94-2.07,46.41-2.86,11.19-.56,22.41-1,33.61-1.14,20.93-.31,41.85.22,62.77.75q64.17,1.59,128.35,3.18Z"/>
              <path class="cls-7" d="M997.76,321.11c51.43,1,104.12,1.91,153.06-6.42,12.68-2.16,27-4.87,38.72-1.58,7.34,2.06,12,6.13,19.39,8.17,17.91,5,37.71-4,57.11-7.15,24.66-4,50.75,2,76.49,3,68.83,2.78,142.14-29,200.81-10.05,11.89,3.85,24.75,9.83,37.78,7.19,8.5-1.73,13-6.56,20.5-9.24,21.68-7.75,47.63,5.63,72.82,9.51,19.67,3,40.57-.1,61-1.25,3.54-.21,7.07-.34,10.61-.43v9.07q-1.08,6.48-2.18,12.95c-286.17,13.55-574.75,12.33-862.39,11l-774.8-3.46c-10.71-.05-21.83-.2-32.89-.68v-15l77.9,4.79c7.43.45,15.68.79,21.64-1.55s5.86-8.47-1.45-9.24c36.81,2.76,74.18,2.31,111.38,1.85l124.56-1.53c50.7-.64,101.44-1.26,152-3.61,14.11-.67,28.21-1.46,42.32-2,10.19-.4,20.42-.69,30.63-.81,19.09-.22,38.16.15,57.23.53l117,2.25Q902.34,319.29,997.76,321.11Z"/>
              <path class="cls-7" d="M-95.65,334.76l112.24,7.78c28.13,2,57,3.9,84.62.46s54.08-13.46,60.74-27.83c-37.13-5.14-75.54-10.3-113.53-7.34-31.75,2.49-61.27,10.54-93.17,12.42C-66,321.49-95.6,323.62-95.65,334.76Z"/>
              <path class="cls-7" d="M983.52,294.41c60.56,15.83,138.85,16.73,201.08,2.3,2-4.64-6.14-9.13-15.73-11s-20.37-1.82-30.77-2.2c-28.15-1-55.48-5.29-83.7-5.61S994.58,282.64,983.52,294.41Z"/>
              <path class="cls-7" d="M1272.62,369.67a110.22,110.22,0,0,0,42,3.41c-3.21-18.66-20.25-30.68-33.73-23.8.4,1.56.8,3.12,1.19,4.66C1276.84,355.74,1272.78,362.48,1272.62,369.67Z"/>
              <path class="cls-7" d="M553,260.52c-77.74,1.5-157.41,2.85-231.4-9.63-19.17-3.23,20.72,14.29,2.95,19.21-11.1,3.08-18.2,9.17-29.33,12.23-27.07,7.46-57-6-86.34-10.7-37.27-6-76.73,2.93-115.65,4.48-104.06,4.15-226.65-35.88-315.36-7.49-18,5.77-146.74,11-166.44,7.05-12.84-2.58-19.66-9.81-31-13.83-32.77-11.61-72,8.44-110.1,14.24-15.8,2.4-32.13,2.2-48.59,1.23v31.58c419,15.63,891-9.4,1307.14-11.25l1171.41-5.19c16.19-.07,33-.31,49.73-1V269l-117.79,7.19c-11.22.67-23.7,1.18-32.7-2.33s-8.87-12.67,2.19-13.84c-55.65,4.14-112.17,3.46-168.4,2.78L1445,260.49c-76.66-.95-153.36-1.89-229.73-5.41-21.33-1-42.65-2.18-64-3-15.42-.59-30.88-1-46.32-1.2-28.85-.34-57.69.22-86.52.79Q930,253.32,841.51,255Z"/>
            </g>
            <path class="cls-8" d="M1897,263-411.24,252.38l-.57-19.5c0-18.29-4.69,8.22,1.7-9.44L1897,222.15"/>
            <ellipse class="cls-9" cx="1267.04" cy="732.53" rx="139.23" ry="45.19"/>
            <ellipse class="cls-9" cx="1053.59" cy="589.84" rx="139.23" ry="45.19"/>
            <g>
              <g>
                <path class="cls-10" d="M1053.88,617c0,1.08-4.16,2-9.3,2s-9.3-.88-9.3-2,4.16-2,9.3-2S1053.88,615.9,1053.88,617Z"/>
                <path class="cls-10" d="M1064.1,635.84c0,1.62-3.38,2.94-7.54,2.94s-7.53-1.32-7.53-2.94,3.37-2.94,7.53-2.94S1064.1,634.21,1064.1,635.84Z"/>
                <path class="cls-10" d="M1053.88,650.67c0,1.29-2.08,2.34-4.65,2.34s-4.65-1-4.65-2.34,2.08-2.34,4.65-2.34S1053.88,649.38,1053.88,650.67Z"/>
                <path class="cls-10" d="M1040.21,631.06c0,1-2.91,1.84-6.51,1.84s-6.51-.82-6.51-1.84,2.92-1.84,6.51-1.84S1040.21,630.05,1040.21,631.06Z"/>
                <path class="cls-10" d="M1031.24,610.37c0,2.57-4.53,4.65-10.11,4.65s-10.11-2.08-10.11-4.65,4.52-4.65,10.11-4.65S1031.24,607.8,1031.24,610.37Z"/>
                <path class="cls-10" d="M1006.16,626.88c0,1.3-3.8,2.34-8.49,2.34s-8.49-1-8.49-2.34,3.8-2.34,8.49-2.34S1006.16,625.59,1006.16,626.88Z"/>
                <path class="cls-10" d="M946.31,569c0,1.22-3.62,2.21-8.08,2.21s-8.09-1-8.09-2.21,3.62-2.21,8.09-2.21S946.31,567.76,946.31,569Z"/>
                <path class="cls-10" d="M957.64,558c0,.9-3.08,1.62-6.88,1.62s-6.87-.72-6.87-1.62,3.07-1.62,6.87-1.62S957.64,557.09,957.64,558Z"/>
                <path class="cls-10" d="M934.59,553.67c0,1.49-2.27,2.7-5.06,2.7s-5-1.21-5-2.7,2.26-2.71,5-2.71S934.59,552.17,934.59,553.67Z"/>
                <path class="cls-10" d="M955.61,545.46c0,1-1.44,1.81-3.23,1.81s-3.24-.81-3.24-1.81,1.45-1.81,3.24-1.81S955.61,544.46,955.61,545.46Z"/>
                <ellipse class="cls-10" cx="950.76" cy="581.82" rx="6.88" ry="1.84"/>
                <path class="cls-10" d="M926.5,579.59c0,1.23-2.36,2.23-5.26,2.23s-5.26-1-5.26-2.23,2.36-2.23,5.26-2.23S926.5,578.36,926.5,579.59Z"/>
                <ellipse class="cls-10" cx="918.61" cy="592.66" rx="5.86" ry="1.65"/>
                <path class="cls-10" d="M965.36,604.06c0,.92-2.18,1.66-4.88,1.66s-4.87-.74-4.87-1.66,2.19-1.66,4.87-1.66S965.36,603.14,965.36,604.06Z"/>
                <path class="cls-10" d="M965.36,529c0,.65-2.19,1.18-4.88,1.18s-4.87-.53-4.87-1.18,2.19-1.17,4.87-1.17S965.36,528.37,965.36,529Z"/>
                <path class="cls-10" d="M1076.53,630.14c0,.51-1.08.92-2.42.92s-2.41-.41-2.41-.92,1.08-.92,2.41-.92S1076.53,629.63,1076.53,630.14Z"/>
                <path class="cls-10" d="M1053.88,681.59c0,1.32-3.06,2.39-6.83,2.39s-6.84-1.07-6.84-2.39,3.06-2.39,6.84-2.39S1053.88,680.27,1053.88,681.59Z"/>
                <path class="cls-10" d="M1282,670.75c0,1.42-2.54,2.57-5.69,2.57s-5.68-1.15-5.68-2.57,2.54-2.57,5.68-2.57S1282,669.33,1282,670.75Z"/>
                <ellipse class="cls-10" cx="1290.86" cy="665.97" rx="4.85" ry="2.2"/>
                <path class="cls-10" d="M1301.37,675.89c0,.82-2.35,1.47-5.25,1.47s-5.26-.65-5.26-1.47,2.35-1.46,5.26-1.46S1301.37,675.08,1301.37,675.89Z"/>
                <path class="cls-10" d="M1310.67,691.81c0,1.16-2.08,2.09-4.65,2.09s-4.65-.93-4.65-2.09,2.08-2.09,4.65-2.09S1310.67,690.66,1310.67,691.81Z"/>
                <path class="cls-10" d="M1324.42,688.51c0,.67-1.81,1.21-4,1.21s-4.05-.54-4.05-1.21,1.82-1.22,4.05-1.22S1324.42,687.83,1324.42,688.51Z"/>
                <ellipse class="cls-10" cx="1311.08" cy="713.75" rx="6.88" ry="2.57"/>
                <path class="cls-10" d="M1328.47,675.34c0,1.12-2.36,2-5.26,2s-5.26-.9-5.26-2,2.36-2,5.26-2S1328.47,674.23,1328.47,675.34Z"/>
                <path class="cls-10" d="M1286,738.6c0,1.29-2.54,2.34-5.67,2.34s-5.66-1.05-5.66-2.34,2.54-2.35,5.66-2.35S1286,737.3,1286,738.6Z"/>
                <ellipse class="cls-10" cx="1295.31" cy="734.56" rx="4.45" ry="1.7"/>
                <ellipse class="cls-10" cx="1301.98" cy="748.66" rx="2.22" ry="1.1"/>
                <ellipse class="cls-10" cx="1054.49" cy="722.57" rx="5.46" ry="2.2"/>
                <path class="cls-10" d="M1061.57,712.46c0,.71-2.27,1.29-5.06,1.29s-5-.58-5-1.29,2.26-1.29,5-1.29S1061.57,711.75,1061.57,712.46Z"/>
                <ellipse class="cls-10" cx="1039.14" cy="706.58" rx="5.44" ry="1.65"/>
                <path class="cls-10" d="M1053.88,698.31c0,.61-1,1.1-2.32,1.1s-2.33-.49-2.33-1.1,1-1.1,2.33-1.1S1053.88,697.7,1053.88,698.31Z"/>
                <path class="cls-10" d="M1014.66,688.81c0,1.66-2.81,3-6.27,3s-6.27-1.34-6.27-3,2.81-3,6.27-3S1014.66,687.16,1014.66,688.81Z"/>
                <path class="cls-10" d="M1108.88,743.15c0,1.21-2.81,2.2-6.27,2.2s-6.27-1-6.27-2.2,2.81-2.21,6.27-2.21S1108.88,741.93,1108.88,743.15Z"/>
                <path class="cls-10" d="M1123.44,751.78c0,1.12-2.54,2-5.66,2s-5.66-.9-5.66-2,2.53-2,5.66-2S1123.44,750.66,1123.44,751.78Z"/>
                <path class="cls-10" d="M1136.38,744.25c0,.61-1.54,1.1-3.44,1.1s-3.44-.49-3.44-1.1,1.54-1.1,3.44-1.1S1136.38,743.64,1136.38,744.25Z"/>
                <path class="cls-10" d="M1163.47,764.64c0,1.32-3.07,2.39-6.87,2.39s-6.88-1.07-6.88-2.39,3.08-2.38,6.88-2.38S1163.47,763.33,1163.47,764.64Z"/>
                <path class="cls-10" d="M1188.14,748.66c0,.61-2.08,1.1-4.65,1.1s-4.65-.49-4.65-1.1,2.08-1.1,4.65-1.1S1188.14,748.05,1188.14,748.66Z"/>
                <path class="cls-10" d="M1196.23,758.21c0,1-1.81,1.84-4,1.84s-4-.82-4-1.84,1.81-1.83,4-1.83S1196.23,757.2,1196.23,758.21Z"/>
                <path class="cls-10" d="M1224.94,749.67c0,1.17-2.08,2.11-4.65,2.11s-4.65-.94-4.65-2.11,2.08-2.11,4.65-2.11S1224.94,748.5,1224.94,749.67Z"/>
                <ellipse class="cls-10" cx="1246.38" cy="742.04" rx="4.85" ry="1.1"/>
                <path class="cls-10" d="M1256.17,749.67c0,1.17-2.19,2.11-4.9,2.11s-4.89-.94-4.89-2.11,2.19-2.11,4.89-2.11S1256.17,748.5,1256.17,749.67Z"/>
                <path class="cls-10" d="M1270.64,751.78c0,1.12-2.63,2-5.87,2s-5.86-.9-5.86-2,2.63-2,5.86-2S1270.64,750.66,1270.64,751.78Z"/>
                <path class="cls-10" d="M1185.72,755c0,1.77-3.6,3.21-8,3.21s-8-1.44-8-3.21,3.6-3.22,8-3.22S1185.72,753.22,1185.72,755Z"/>
              </g>
              <g>
                <path class="cls-11" d="M977.81,452.12c0,29.77,1.82,59-6.07,88.2-3,12.13-9.1,25.91,0,36.94,10.31,11.57,26.69,13.23,41.25,15.43,30.94,5.51,62.48,7.72,94,7.72,17.59,0,74-6.07,69.15-31.42-2.42-14.34-20.62-21.5-20-36.94.6-6.61,4.85-12.67,6.06-18.74.61-6.61-1.21-12.13-3-18.19-4.25-12.68-.61-24.81-1.21-37.48-.61-13.23,1.82-24.26-16.38-23.71-1.21,0-3,.55-4.85.55Z"/>
                <path class="cls-12" d="M1139.16,408c-13.34,1.66-17.59.56-29.11-5.51-15.17-8.82-32.76-9.92-49.75-6.06-15.16,3.31-31.54,4.41-47.31,4.41-11.52,0-32.15.55-41.25,7.16-10.31,7.72-2.42,24.26-4.24,35.28-.61,5.52-3.64,12.13-1.22,17.64,3.64,6.62,14,11,20.63,14.34,27.29,14.33,64.3,17.64,94,7.71,14-4.41,27.9-13.78,43.07-12.12,10.31.55,27.29,6.61,34.57-1.11,7.89-7.71,2.43-24.25,2.43-34.17,0-7.72,1.21-22.6-7.28-27-1.63-1.48-6.25-.55-8.38-.55A55.39,55.39,0,0,0,1139.16,408Z"/>
                <path class="cls-11" d="M1148.06,412.07c6.12-1.1,6.88,4.59,5.66,6.8-2.42,6.06-12.13,4.59-17.59,5.14-12.74,2.21-24.26,3.86-37,8.27-7.89,2.2-16.38,2.2-24.27,3.31-8.49.55-17,3.3-24.87,4.41-15.16,1.65-30.33,0-43.67-6.07-6.67-2.75-34.58-16-26.09-24.8,4.86-5,28.51-2.76,36.4-2.76,13.35,0,18.8,0,32.15-2.2,12.74-1.66,23.66-5.52,37-2.76,15.77,2.76,26.49,12.68,42.87,12.68Z"/>
                <g class="cls-13">
                  <path class="cls-10" d="M1143.41,422.87c2.12-1.78,2.42-7.7-1.22-6.81.31-3,0-6.52-4.24-5,1.21-3.26-3.34-5.92-5.76-3.85-.91-2.07-3.34-1.18-4.86,0-.6.89.31,2.37-.3,3s-2.12-.29-2.73.3c-1.21,1.48-1.21,3.85-2.12,4.74-1.52,1.18-4-.59-4.25,2.66.61-3.55-2.73-5.92-5.15-3,1.51-3.26-3-4.74-5.16-2.66,1.21-1.78.61-7.11-2.12-4.45,2.73-2.66.91-8.29-3.34-5,.3-4.74-6.67-5.34-7.58-1.19.91-4.74-7.89-6.22-7-.3-.3-3-3.33-5.62-5.46-2.66,1.82-2.67-.6-8-3.94-4.74,1.21-3.85-3.94-8.59-5.16-3.85-.91-2.37-5.76-2.37-7.28-.6-1.82,1.49-1.21,3.86-1.21,5.93-.2-3.12-3.8-2.9-6.42-1.46-.76-2.38-2.5-3.87-3.59-1.21-.6-5.92-7.28-6.81-8.19-.59-1.21-5.63-7-.29-7.28,3-4.24-4.14-6.37.89-7,4.45-.91-3-5.16-5.63-7.58-2.37-.31-3-5.16-4.45-6.07-1.19,0-4.44-7.28-6.22-7-1.78-3.94-4.44-9.09-.29-7.88,4.15-5.46-1.78-6.67,1.78-4.85,6.52-3-1.48-9.1-.59-6.37,3.85-2.73-1.78-10.32.59-6.37,4.45-3-.89-8.19.59-7.59,4.44l14.56,16c16.38,10.66,40.64,16.29,60.06,13.33a16.36,16.36,0,0,0,2.27-.49,54,54,0,0,0,10.16,3.45c9.4,2.37,19.11,1.19,28.21-1.78a149.71,149.71,0,0,1,28.2-6.51c6.37-1.19,19.11-3.86,18.2-12.45a2.55,2.55,0,0,0,.31,1.48C1143.71,430.28,1146.14,424.35,1143.41,422.87Z"/>
                  <g>
                    <path class="cls-14" d="M1007.94,411.15c0,1-1.63,1.84-3.64,1.84s-3.64-.83-3.64-1.84,1.63-1.84,3.64-1.84S1007.94,410.13,1007.94,411.15Z"/>
                    <ellipse class="cls-14" cx="1012.99" cy="407.93" rx="3.64" ry="2.48"/>
                    <ellipse class="cls-14" cx="1023.91" cy="419.6" rx="4.25" ry="2.76"/>
                    <ellipse class="cls-14" cx="1037.15" cy="406.63" rx="2.73" ry="1.18"/>
                    <path class="cls-14" d="M1066.43,404.52c0,1.81-2.78,3.29-6.2,3.29s-6.19-1.48-6.19-3.29,2.77-3.29,6.19-3.29S1066.43,402.7,1066.43,404.52Z"/>
                    <path class="cls-14" d="M1065.16,418.22c0,.76-1.1,1.38-2.47,1.38s-2.46-.62-2.46-1.38,1.1-1.38,2.46-1.38S1065.16,417.46,1065.16,418.22Z"/>
                    <path class="cls-14" d="M1088.21,412.39c0,2.46-2.31,4.45-5.16,4.45s-5.15-2-5.15-4.45,2.3-4.46,5.15-4.46S1088.21,409.93,1088.21,412.39Z"/>
                    <ellipse class="cls-14" cx="1080.47" cy="419.74" rx="2.58" ry="1.52"/>
                    <path class="cls-14" d="M1096.9,407.38c0,1.07-1.72,1.93-3.84,1.93s-3.84-.86-3.84-1.93,1.72-1.93,3.84-1.93S1096.9,406.31,1096.9,407.38Z"/>
                    <path class="cls-14" d="M1018.65,425.3c0,1.21-2.4,2.2-5.36,2.2s-5.35-1-5.35-2.2,2.39-2.21,5.35-2.21S1018.65,424.08,1018.65,425.3Z"/>
                    <path class="cls-14" d="M1047.57,428.05c0,1-2.34,1.84-5.21,1.84s-5.21-.82-5.21-1.84,2.33-1.83,5.21-1.83S1047.57,427,1047.57,428.05Z"/>
                    <path class="cls-14" d="M1047.57,417.17c0,.58-1.17,1.05-2.61,1.05s-2.6-.47-2.6-1.05,1.16-1.06,2.6-1.06S1047.57,416.58,1047.57,417.17Z"/>
                    <ellipse class="cls-14" cx="1062.12" cy="427.59" rx="3.03" ry="1.38"/>
                    <path class="cls-14" d="M1105.39,418.84c0,.93-1.63,1.68-3.64,1.68s-3.63-.75-3.63-1.68,1.63-1.67,3.63-1.67S1105.39,417.92,1105.39,418.84Z"/>
                    <path class="cls-14" d="M1120.76,421.81c0,.71-1.81,1.28-4,1.28s-4-.57-4-1.28,1.81-1.29,4-1.29S1120.76,421.1,1120.76,421.81Z"/>
                    <path class="cls-14" d="M994.19,419.37c0,.64-1.45,1.15-3.24,1.15s-3.23-.51-3.23-1.15,1.44-1.15,3.23-1.15S994.19,418.74,994.19,419.37Z"/>
                    <path class="cls-14" d="M996.61,415.65c0,.25-.81.46-1.82.46s-1.82-.21-1.82-.46.82-.46,1.82-.46S996.61,415.4,996.61,415.65Z"/>
                    <path class="cls-14" d="M1030.78,433.66c0,.66-1.53,1.19-3.43,1.19s-3.44-.53-3.44-1.19,1.54-1.2,3.44-1.2S1030.78,433,1030.78,433.66Z"/>
                    <path class="cls-14" d="M1010.77,420.06c0,.26-.64.46-1.42.46s-1.41-.2-1.41-.46.63-.46,1.41-.46S1010.77,419.81,1010.77,420.06Z"/>
                    <ellipse class="cls-14" cx="1007.23" cy="428.51" rx="2.12" ry="0.46"/>
                    <path class="cls-14" d="M1022.09,401.29c0,.47-.77.85-1.72.85s-1.72-.38-1.72-.85.77-.85,1.72-.85S1022.09,400.83,1022.09,401.29Z"/>
                    <path class="cls-14" d="M1100.34,425.75c0,.26-1.36.47-3,.47s-3-.21-3-.47,1.36-.45,3-.45S1100.34,425.5,1100.34,425.75Z"/>
                    <path class="cls-14" d="M1135.93,413.33c0,.52-1.09.94-2.43.94s-2.43-.42-2.43-.94,1.09-.94,2.43-.94S1135.93,412.81,1135.93,413.33Z"/>
                    <path class="cls-14" d="M1133.5,416.18c0,.54-1.4,1-3.13,1s-3.14-.45-3.14-1,1.4-1,3.14-1S1133.5,415.63,1133.5,416.18Z"/>
                    <path class="cls-14" d="M1137.75,419.29c0,.25-.41.45-.91.45s-.91-.2-.91-.45.41-.45.91-.45S1137.75,419.05,1137.75,419.29Z"/>
                  </g>
                </g>
              </g>
              <g>
                <path class="cls-11" d="M1083.36,588c0,29.77,1.82,59-6.07,88.2-3,12.13-9.09,25.91,0,36.93,10.32,11.58,26.69,13.23,41.25,15.44,30.94,5.51,62.48,7.71,94,7.71,17.6,0,74-6.06,69.16-31.42-2.43-14.33-20.63-21.49-20-36.93.61-6.61,4.85-12.68,6.06-18.74.61-6.62-1.21-12.13-3-18.19-4.24-12.68-.6-24.81-1.21-37.49-.61-13.23,1.82-24.25-16.38-23.7-1.21,0-3,.55-4.85.55Z"/>
                <path class="cls-12" d="M1244.71,543.87c-13.34,1.66-17.59.55-29.11-5.51-15.17-8.82-32.76-9.92-49.74-6.06-15.17,3.3-31.55,4.41-47.32,4.41-11.52,0-32.15.55-41.25,7.16-10.31,7.72-2.42,24.26-4.24,35.28-.61,5.51-3.64,12.13-1.22,17.64,3.64,6.62,14,11,20.63,14.33,27.3,14.34,64.3,17.64,94,7.72,14-4.41,27.9-13.78,43.07-12.13,10.31.55,27.3,6.62,34.58-1.1,7.88-7.72,2.42-24.25,2.42-34.18,0-7.71,1.21-22.6-7.28-27-1.63-1.48-6.25-.55-8.37-.55A55.57,55.57,0,0,0,1244.71,543.87Z"/>
                <path class="cls-11" d="M1253.61,547.92c6.12-1.11,6.88,4.59,5.66,6.79-2.42,6.07-12.13,4.6-17.59,5.15-12.74,2.2-24.26,3.86-37,8.27-7.89,2.2-16.38,2.2-24.26,3.3-8.5.55-17,3.31-24.88,4.41-15.16,1.66-30.32,0-43.67-6.06-6.67-2.76-34.58-16-26.08-24.81,4.85-5,28.51-2.75,36.39-2.75,13.35,0,18.81,0,32.15-2.21,12.74-1.65,23.66-5.51,37-2.75,15.78,2.75,26.49,12.68,42.87,12.68Z"/>
                <g class="cls-15">
                  <path class="cls-10" d="M1249,558.72c2.12-1.78,2.43-7.7-1.21-6.81.3-3,0-6.52-4.25-5,1.21-3.26-3.34-5.93-5.76-3.85-.91-2.08-3.34-1.19-4.85,0-.61.89.3,2.37-.31,3s-2.12-.3-2.73.29c-1.21,1.49-1.21,3.86-2.12,4.75-1.52,1.18-3.94-.6-4.25,2.66.61-3.55-2.73-5.92-5.15-3,1.51-3.26-3-4.74-5.16-2.67,1.21-1.78.61-7.11-2.12-4.44,2.73-2.67.91-8.3-3.34-5,.31-4.74-6.67-5.33-7.58-1.18.91-4.74-7.89-6.22-7-.3-.3-3-3.33-5.63-5.46-2.67,1.82-2.66-.6-8-3.94-4.73,1.21-3.86-3.94-8.6-5.15-3.86-.91-2.37-5.77-2.37-7.28-.59-1.82,1.48-1.22,3.85-1.22,5.93-.2-3.12-3.8-2.9-6.42-1.46-.76-2.38-2.5-3.87-3.59-1.21-.6-5.92-7.27-6.81-8.18-.59-1.22-5.63-7-.3-7.28,3-4.25-4.15-6.37.89-7,4.44-.91-3-5.16-5.62-7.58-2.37-.31-3-5.16-4.44-6.07-1.18,0-4.45-7.28-6.22-7-1.78-4-4.44-9.1-.29-7.89,4.15-5.46-1.78-6.67,1.78-4.85,6.52-3-1.49-9.1-.6-6.37,3.85-2.73-1.78-10.31.59-6.37,4.44-3-.89-8.19.59-7.58,4.45l14.55,16c16.38,10.67,40.65,16.3,60.06,13.33a16.1,16.1,0,0,0,2.27-.48,54,54,0,0,0,10.16,3.45c9.41,2.37,19.11,1.18,28.21-1.78a150.43,150.43,0,0,1,28.21-6.52c6.37-1.18,19.1-3.85,18.19-12.44a2.57,2.57,0,0,0,.31,1.48C1249.26,566.13,1251.69,560.2,1249,558.72Z"/>
                  <g>
                    <path class="cls-14" d="M1113.49,547c0,1-1.63,1.84-3.64,1.84s-3.64-.82-3.64-1.84,1.63-1.83,3.64-1.83S1113.49,546,1113.49,547Z"/>
                    <ellipse class="cls-14" cx="1118.54" cy="543.78" rx="3.64" ry="2.48"/>
                    <ellipse class="cls-14" cx="1129.46" cy="555.45" rx="4.25" ry="2.76"/>
                    <ellipse class="cls-14" cx="1142.7" cy="542.48" rx="2.73" ry="1.18"/>
                    <path class="cls-14" d="M1170.71,554.07c0,.76-1.1,1.38-2.46,1.38s-2.47-.62-2.47-1.38,1.11-1.38,2.47-1.38S1170.71,553.31,1170.71,554.07Z"/>
                    <path class="cls-14" d="M1193.76,548.23c0,2.47-2.31,4.46-5.16,4.46s-5.15-2-5.15-4.46,2.31-4.45,5.15-4.45S1193.76,545.77,1193.76,548.23Z"/>
                    <ellipse class="cls-14" cx="1186.03" cy="555.59" rx="2.58" ry="1.52"/>
                    <ellipse class="cls-14" cx="1198.61" cy="543.23" rx="3.84" ry="1.93"/>
                    <ellipse class="cls-14" cx="1118.85" cy="561.14" rx="5.36" ry="2.2"/>
                    <path class="cls-14" d="M1153.12,563.9c0,1-2.33,1.84-5.21,1.84s-5.21-.82-5.21-1.84,2.34-1.84,5.21-1.84S1153.12,562.88,1153.12,563.9Z"/>
                    <path class="cls-14" d="M1153.12,553c0,.59-1.17,1.06-2.61,1.06s-2.6-.47-2.6-1.06,1.17-1,2.6-1S1153.12,552.43,1153.12,553Z"/>
                    <ellipse class="cls-14" cx="1167.68" cy="563.44" rx="3.03" ry="1.38"/>
                    <path class="cls-14" d="M1211,554.69c0,.93-1.63,1.68-3.64,1.68s-3.64-.75-3.64-1.68,1.63-1.68,3.64-1.68S1211,553.76,1211,554.69Z"/>
                    <path class="cls-14" d="M1226.31,557.65c0,.71-1.81,1.29-4,1.29s-4-.58-4-1.29,1.81-1.28,4-1.28S1226.31,556.94,1226.31,557.65Z"/>
                    <path class="cls-14" d="M1099.74,555.22c0,.63-1.45,1.15-3.24,1.15s-3.23-.52-3.23-1.15,1.44-1.15,3.23-1.15S1099.74,554.58,1099.74,555.22Z"/>
                    <path class="cls-14" d="M1102.16,551.5c0,.25-.81.46-1.82.46s-1.82-.21-1.82-.46.82-.46,1.82-.46S1102.16,551.24,1102.16,551.5Z"/>
                    <path class="cls-14" d="M1136.34,569.5c0,.66-1.54,1.2-3.44,1.2s-3.44-.54-3.44-1.2,1.54-1.19,3.44-1.19S1136.34,568.85,1136.34,569.5Z"/>
                    <ellipse class="cls-14" cx="1114.9" cy="555.91" rx="1.41" ry="0.46"/>
                    <ellipse class="cls-14" cx="1112.78" cy="564.36" rx="2.12" ry="0.46"/>
                    <path class="cls-14" d="M1127.64,537.14c0,.47-.77.85-1.72.85s-1.72-.38-1.72-.85.77-.85,1.72-.85S1127.64,536.67,1127.64,537.14Z"/>
                    <path class="cls-14" d="M1205.89,561.6c0,.26-1.36.46-3,.46s-3-.2-3-.46,1.35-.46,3-.46S1205.89,561.35,1205.89,561.6Z"/>
                    <path class="cls-14" d="M1241.48,549.18c0,.52-1.09.94-2.43.94s-2.42-.42-2.42-.94,1.08-.95,2.42-.95S1241.48,548.66,1241.48,549.18Z"/>
                    <path class="cls-14" d="M1239.05,552c0,.54-1.4,1-3.13,1s-3.14-.44-3.14-1,1.41-1,3.14-1S1239.05,551.48,1239.05,552Z"/>
                    <path class="cls-14" d="M1243.3,555.14c0,.24-.41.45-.91.45s-.91-.21-.91-.45.41-.45.91-.45S1243.3,554.89,1243.3,555.14Z"/>
                  </g>
                </g>
              </g>
            </g>
            <path class="cls-7" d="M680.52,846.59c65.17,1.63,132,3.09,194-10.39,16.07-3.49,34.17-7.87,49.07-2.55,9.3,3.33,15.25,9.91,24.58,13.21,22.7,8,47.79-6.51,72.38-11.56,31.24-6.43,64.32,3.16,96.94,4.84,87.22,4.48,180.13-46.92,254.48-16.26,15.07,6.22,31.37,15.89,47.88,11.62,10.77-2.79,16.49-10.6,26-14.94,27.47-12.53,60.36,9.11,92.29,15.38,24.92,4.88,51.41-.15,77.24-2,4.48-.33,9-.54,13.45-.69V847.9c-.92,7-1.83,14-2.77,20.93-362.67,21.93-728.39,19.94-1092.92,17.85l-981.92-5.6c-13.57-.08-27.66-.33-41.68-1.09V855.75l98.73,7.76c9.41.72,19.87,1.27,27.42-2.52s7.43-13.68-1.84-14.94c46.65,4.47,94,3.73,141.15,3l157.86-2.49c64.26-1,128.56-2,192.57-5.83,17.88-1.08,35.75-2.37,53.63-3.27,12.93-.64,25.88-1.11,38.83-1.3,24.18-.36,48.35.25,72.52.86l148.3,3.63Z"/>
            <path class="cls-7" d="M717.52,754.59c65.17,1.63,132,3.09,194-10.39,16.07-3.49,34.17-7.87,49.07-2.55,9.3,3.33,15.25,9.91,24.58,13.21,22.7,8,47.79-6.51,72.38-11.56,31.24-6.43,64.32,3.16,96.94,4.84,87.22,4.48,180.13-46.92,254.48-16.26,15.07,6.22,31.37,15.89,47.88,11.62,10.77-2.79,16.49-10.6,26-14.94,27.47-12.53,60.36,9.11,92.29,15.38,24.92,4.88,51.41-.15,77.24-2,4.48-.33,9-.54,13.45-.69V755.9c-.92,7-1.83,14-2.77,20.93-362.67,21.93-728.39,19.94-1092.92,17.85l-981.92-5.6c-13.57-.08-27.66-.33-41.68-1.09V763.75l98.73,7.76c9.41.72,19.87,1.27,27.42-2.52s7.43-13.68-1.84-14.94c46.65,4.47,94,3.73,141.15,3l157.86-2.49c64.26-1,128.56-2,192.57-5.83,17.88-1.08,35.75-2.37,53.63-3.27,12.93-.64,25.88-1.11,38.83-1.3,24.18-.36,48.35.25,72.52.86l148.3,3.63Z"/>
            <rect class="cls-1" x="-407.17" y="-228.97" width="2004.94" height="1127.67"/>
          </g>
        </g>
        <g>
          <path class="cls-16" d="M1221.44,490.63a4.26,4.26,0,0,1,3.25,1.42l32.74,37.16a4.7,4.7,0,0,1-.72,6.59h0c-.44.38-10.83,9.5-18.3,13.08-2.35,1.12-6,1.52-9.93,1.52a121.34,121.34,0,0,1-19.18-2l-7.49,6.59a8,8,0,0,1-.73.57h0l-117.8,103.78.12.14.06.06s-5.32,4.17-12.67,9.72l5,5.62.4-.36,3.77,1.54L1092,689.77l.81,4.29-.09.08.09.1S1054.41,735,1018.34,735a40.91,40.91,0,0,1-23.93-7.38c-21.62-41.28,38.33-88,44.87-93l1-.83,3.77,1.53L1056.06,649l.81,4.3-.09.08,5.13,5.82c6.43-6.58,11.24-11.33,11.24-11.33l.28.31L1191.92,543.8h0l7.63-6.72c-.3-6.33-.65-22.62,3.23-28.65,4.49-7,14.85-16.11,15.29-16.5h0a5.12,5.12,0,0,1,3.37-1.3m-18.51,43.47,4.29-3.78h0a7.29,7.29,0,0,1,10.29.65l0,.06,0,.06s0,0,.05.06h0l0,.06h0a7.4,7.4,0,0,1-.61,10.35l-4.43,3.91a112,112,0,0,0,16.06,1.46c3.41,0,6.38-.32,8.17-1.17,4.42-2.12,10.15-6.49,13.82-9.47a4,4,0,0,1-.64-.59l-32.74-37.16a5,5,0,0,1-.51-.72c-3.42,3.27-8.48,8.4-11.13,12.52s-3,15.95-2.78,23.78m18.51-45.47a7,7,0,0,0-3,.7l-.18-.2-1.48,1.3c-.44.39-11,9.72-15.64,16.92-3.87,6-3.95,20.26-3.59,28.86l-6.91,6.09-117,103.07-.35-.41-1.51,1.49s-4.14,4.1-9.75,9.82l-3.21-3.64-.76-4-.1-.54-.36-.41L1045.5,634l-.31-.35-.44-.18-3.76-1.53-1.15-.47-.93.82-.89.78c-7.29,5.51-67.67,52.88-45.38,95.43l.22.43.4.28a43,43,0,0,0,25.08,7.74c15.39,0,32.85-7,51.91-20.73a184,184,0,0,0,24-20.61l1.25-1.32-.8-.91-.75-4-.11-.54-.36-.41-12.06-13.69-.31-.35-.43-.18-3.77-1.54-.68-.28-2.5-2.83c6.38-4.85,10.92-8.4,11-8.44l1.67-1.31-.26-.29,116.15-102.33a8.49,8.49,0,0,0,.9-.69l6.77-6a118,118,0,0,0,18.57,1.84c4.85,0,8.38-.56,10.79-1.72,7.74-3.7,18.32-13,18.76-13.38a7.12,7.12,0,0,0,2.4-4.56,6.22,6.22,0,0,0-1.5-4.85l-32.74-37.16a6.27,6.27,0,0,0-4.75-2.1Zm-16.56,41.09c0-9.06.95-15.9,2.51-18.32a70.57,70.57,0,0,1,9.27-10.64l31.11,35.32a70.66,70.66,0,0,1-11.72,7.85c-.94.45-3,1-7.31,1a97,97,0,0,1-11.48-.83l1.18-1a9.2,9.2,0,0,0,2.94-8.71,9.09,9.09,0,0,0-2.16-4.47l0,0h0l-1.41-1.62-.14.15a9.29,9.29,0,0,0-11.72.46l-1,.91Z"/>
          <g>
            <g>
              <path class="cls-17" d="M1082.09,660l134.78-118.74a7.29,7.29,0,0,0-9.64-10.94L1072.45,649.05Z"/>
              <path class="cls-18" d="M1082.29,660.22l134.78-118.74a7.28,7.28,0,0,0,.65-10.29L1077.47,654.75Z"/>
            </g>
            <g>
              <polygon class="cls-19" points="1050.08 659.29 1033.12 640.05 1040.23 633.79 1044 635.33 1056.06 649.01 1056.87 653.31 1050.08 659.29"/>
              <polygon class="cls-19" points="1085.98 700.05 1069.03 680.8 1076.13 674.54 1079.9 676.08 1091.96 689.77 1092.77 694.06 1085.98 700.05"/>
              <path class="cls-20" d="M1092.77,694.24l-26.45-30-26.45-30s-68.32,49.74-45.46,93.38C1034.82,755.74,1092.77,694.24,1092.77,694.24Z"/>
              <path class="cls-21" d="M1092.77,694.24l-26.45-30-71.91,63.36C1034.82,755.74,1092.77,694.24,1092.77,694.24Z"/>
              <path class="cls-22" d="M1078.27,653.69l-5.12-5.81s-41.49,41-44,49.08c8.29-1.48,54.24-37.46,54.24-37.46Z"/>
              <path class="cls-23" d="M1083.44,659.56s-45.94,36-54.24,37.47c16.09-14.43,49.13-43.28,49.13-43.28Z"/>
              <g>
                <circle class="cls-24" cx="1068.08" cy="662.66" r="1.78"/>
                <line class="cls-25" x1="1069.33" y1="662.77" x2="1066.83" y2="662.56"/>
                <line class="cls-25" x1="1068.18" y1="661.41" x2="1067.98" y2="663.91"/>
              </g>
              <g>
                <circle class="cls-24" cx="1074.64" cy="656.88" r="1.78" transform="translate(43.54 1380.19) rotate(-66.48)"/>
                <line class="cls-25" x1="1075.89" y1="656.99" x2="1073.39" y2="656.78"/>
                <line class="cls-25" x1="1074.75" y1="655.63" x2="1074.54" y2="658.13"/>
              </g>
            </g>
            <path class="cls-20" d="M1218.07,491.93a4.7,4.7,0,0,1,6.62.12l32.74,37.16a4.7,4.7,0,0,1-.72,6.59h0a4.7,4.7,0,0,1-6.62-.12l-32.74-37.16a4.7,4.7,0,0,1,.72-6.59Z"/>
            <path class="cls-20" d="M1254.41,533.19l2.3,2.61c-.44.38-10.83,9.5-18.3,13.08-7.64,3.65-28.75-.36-31.13-.83l.67-3.41c6.16,1.21,23.37,3.77,29,1.1C1243.94,542.37,1254.31,533.28,1254.41,533.19Z"/>
            <path class="cls-20" d="M1220.37,494.54c-.11.09-10.44,9.23-14.66,15.78-3.36,5.21-3,22.6-2.56,28.86l-3.47.24c-.17-2.42-1.49-23.87,3.1-31,4.49-7,14.85-16.11,15.29-16.5Z"/>
            <path class="cls-20" d="M1201,555.53a6.43,6.43,0,0,0,.73-.56l15.3-13.48a7.44,7.44,0,0,0-9.84-11.17l-15.3,13.48a6.75,6.75,0,0,0-.65.66Z"/>
            <path class="cls-20" d="M1201.08,555.59l-4.88-5.54,21.47-18.92a7.36,7.36,0,0,1-.56,10.41L1201.81,555A8,8,0,0,1,1201.08,555.59Z"/>
          </g>
        </g>
        <g>
          <path class="cls-26" d="M1128.71,420.61a4.81,4.81,0,0,1,4.53,3.83h0c.14.57,3.33,14,3,22.29-.3,7.28-10.27,20.7-14,25.51l2.32,9.71a5.76,5.76,0,0,1,.15.91h0l36.53,152.68.18,0,.08,0s1.19,6.65,2.66,15.74l7.29-1.74-.13-.52,3.12-2.61,17.74-4.25,4.18,1.29,0,.12.12,0s27.21,80-16.61,102.52c-46.6-.23-59.82-75.08-61.11-83.17l-.29-1.23,3.12-2.61,17.74-4.25,4.17,1.29,0,.12,7.55-1.81c-2.8-8.76-4.75-15.24-4.75-15.24l.4-.09L1110,485.43h0l-2.36-9.88c-5.74-2.7-20.3-10-23.8-16.27-4-7.23-7.29-20.67-7.43-21.24h0a4.69,4.69,0,0,1,3.21-5.79l48.15-11.53a4,4,0,0,1,1-.11m-22.15,50.56-1.33-5.57h0a7.3,7.3,0,0,1,5.4-8.79h.07l.08,0,.07,0h0l.07,0h0a7.55,7.55,0,0,1,1.68-.2,7.45,7.45,0,0,1,7.19,5.59l1.37,5.75c4.68-6.27,11.4-16.3,11.6-21.28s-1-12-1.89-16.65a3.91,3.91,0,0,1-.83.3l-48.16,11.52a3.7,3.7,0,0,1-.87.11c1.29,4.56,3.45,11.43,5.85,15.71s12.7,10.1,19.71,13.59m22.15-52.56a5.69,5.69,0,0,0-1.42.17l-48.16,11.52a6.21,6.21,0,0,0-4,3.11,6.92,6.92,0,0,0-.87,3.12l-.26.06.46,1.92c.14.58,3.44,14.27,7.63,21.74,3.49,6.24,16,13,23.81,16.7l2.15,8.95,36.28,151.64-.52.12.61,2c0,.06,1.69,5.58,4.11,13.22l-4.72,1.13-3.88-1.2-.52-.16-.54.13-17.74,4.24-.46.11-.36.3-3.12,2.61-1,.8.29,1.2.28,1.16c1.45,9,15,84.54,63.06,84.78h.49l.43-.22c10.48-5.38,17.9-14.35,22.07-26.66,3.27-9.68,4.54-21.44,3.75-34.94a186.86,186.86,0,0,0-8.22-43.34l-.59-1.73-1.17.28-3.88-1.2-.52-.16-.53.13-17.75,4.24-.45.11-.36.3-3.12,2.61-.57.47-3.68.88c-1.29-7.91-2.31-13.58-2.32-13.64l-.37-2.09-.38.09-36-150.54a10.41,10.41,0,0,0-.19-1.12l-2.1-8.77c5.31-6.88,13.56-18.68,13.86-25.89.35-8.57-2.91-22.27-3-22.85a6.75,6.75,0,0,0-6.47-5.36Zm-45.18,24.81,45.77-10.95a70.15,70.15,0,0,1,1.45,14c-.12,2.92-3.37,9.13-8.66,16.67l-.37-1.53a9.19,9.19,0,0,0-6.31-6.68,9.28,9.28,0,0,0-2.82-.44,9.08,9.08,0,0,0-2.14.26h-.07l-2,.47,0,.18a9.3,9.3,0,0,0-5.15,10.61l.32,1.33c-8-4.26-13.6-8.28-15-10.79a70.86,70.86,0,0,1-5.06-13.18Z"/>
          <g>
            <g>
              <path class="cls-17" d="M1161.21,636.89l-41.8-174.69a7.29,7.29,0,0,0-14.19,3.39L1147,640.28Z"/>
              <path class="cls-18" d="M1161.51,636.82,1119.7,462.13a7.29,7.29,0,0,0-8.79-5.4l43.5,181.79Z"/>
            </g>
            <g>
              <polygon class="cls-19" points="1145.6 664.85 1120.66 670.82 1118.46 661.61 1121.58 659 1139.32 654.75 1143.49 656.04 1145.6 664.85"/>
              <polygon class="cls-19" points="1198.43 652.21 1173.48 658.18 1171.28 648.97 1174.4 646.36 1192.14 642.11 1196.32 643.4 1198.43 652.21"/>
              <path class="cls-20" d="M1196.47,643.49l-38.91,9.31-38.92,9.31s12,83.66,61.22,83.9C1223.68,723.49,1196.47,643.49,1196.47,643.49Z"/>
              <path class="cls-21" d="M1196.47,643.49l-38.91,9.31,22.3,93.21C1223.68,723.49,1196.47,643.49,1196.47,643.49Z"/>
              <path class="cls-22" d="M1153.85,637.31l-7.53,1.8S1163.16,695,1169.08,701c2.58-8-7.7-65.47-7.7-65.47Z"/>
              <path class="cls-23" d="M1161.46,635.49s10.29,57.45,7.71,65.47c-5.22-21-15.24-63.67-15.24-63.67Z"/>
              <g>
                <circle class="cls-24" cx="1157.01" cy="650.52" r="1.78"/>
                <line class="cls-25" x1="1157.69" y1="649.46" x2="1156.33" y2="651.57"/>
                <line class="cls-25" x1="1155.95" y1="649.84" x2="1158.06" y2="651.2"/>
              </g>
              <g>
                <circle class="cls-24" cx="1154.97" cy="642.01" r="1.78" transform="translate(-148.34 859.99) rotate(-38.56)"/>
                <line class="cls-25" x1="1155.65" y1="640.96" x2="1154.3" y2="643.07"/>
                <line class="cls-25" x1="1153.92" y1="641.33" x2="1156.03" y2="642.69"/>
              </g>
            </g>
            <path class="cls-20" d="M1076.39,438a4.69,4.69,0,0,1,3.21-5.79l48.15-11.53a4.7,4.7,0,0,1,5.49,3.72h0a4.7,4.7,0,0,1-3.21,5.8l-48.16,11.52a4.69,4.69,0,0,1-5.48-3.72Z"/>
            <path class="cls-20" d="M1129.86,425.25l3.38-.81c.14.57,3.33,14,3,22.29-.35,8.47-13.78,25.24-15.31,27.12l-2.7-2.19c4-4.87,14.28-18.88,14.53-25.07C1133.07,438.8,1129.89,425.38,1129.86,425.25Z"/>
            <path class="cls-20" d="M1079.77,437.24c0,.13,3.26,13.53,7.08,20.34,3,5.4,18.57,13.22,24.3,15.77l-1.41,3.18c-2.22-1-21.79-9.86-25.93-17.25-4-7.23-7.29-20.67-7.43-21.24Z"/>
            <path class="cls-20" d="M1124.6,482.88a7.19,7.19,0,0,0-.15-.91l-4.75-19.83a7.44,7.44,0,0,0-14.47,3.46l4.74,19.83a6.58,6.58,0,0,0,.28.89Z"/>
            <path class="cls-20" d="M1124.67,482.86l-7.17,1.72-6.66-27.83a7.37,7.37,0,0,1,8.94,5.37l4.74,19.83A5.76,5.76,0,0,1,1124.67,482.86Z"/>
          </g>
        </g>
        <g>
          <g>
            <g>
              <path class="cls-27" d="M779.35,747.41H710.52s-4.16-9,2-8a83.16,83.16,0,0,1,12.34,3.14L754,733.16s-1.2-6.34-3.46-22.47c-2.87-20.48-4-42.08-4.27-42.9h25.88s-4.8,22.06-4.06,42.9c.47,13.64,1.6,18,6.68,21.5C787.57,741,779.35,747.41,779.35,747.41Z"/>
              <path class="cls-28" d="M770.94,715.53h-22c-3.6-25.69-5.06-52.78-5.35-53.8H776S770,689.39,770.94,715.53Z"/>
            </g>
            <g>
              <path class="cls-29" d="M804.37,517c-3.43,21.74-8.42,45.49-12.08,55.07-7.07,18.49-10.83,52.09-10.29,98.86s-37,40.23-41.87,22.3c-3.89-14.3-2.28-62.41-1.18-93.48.29-7.94.52-14.76.63-19.63.55-23.93,26.11-99.51,26.11-99.51s38.07-13.6,41.86-6C809.39,478.29,807.55,496.77,804.37,517Z"/>
              <path class="cls-30" d="M792.29,572.06c-7.07,18.49-10.83,52.09-10.29,98.86s-37,40.23-41.87,22.3c-3.89-14.3-2.28-62.41-1.18-93.48,10.46,41.7,53.09-41.94,57.16-79.22,1.18-10.73,4.41-10.83,8.26-3.53C800.94,538.73,796,562.48,792.29,572.06Z"/>
            </g>
          </g>
          <g>
            <g>
              <polygon class="cls-27" points="868.41 743.84 855.31 743.84 838.98 705.19 824.01 669.91 846.51 669.91 856.2 703.49 868.41 743.84"/>
              <path class="cls-27" d="M847.51,745.57h39.62a31.56,31.56,0,0,0-7.75-6.17c-4.07-2-20,3.08-20,3.08s-5.38-5.61-9.59-4.6S847.51,745.57,847.51,745.57Z"/>
              <polygon class="cls-28" points="860.58 708.12 838.08 710.34 818.52 664.26 847.92 664.26 860.58 708.12"/>
            </g>
            <g>
              <path class="cls-29" d="M822.78,687.77c-11.19-20.67-22.12-55.16-27-82.66a175,175,0,0,1-2.47-19.82c-1.63-28.28,1.73-108.5,1.73-110.13,0,0,30-33.08,47.32-30.46,3.76.58,10.85,9.18,12.5,13.06,9.24,21.75-18,113.39-15.87,122.09s12.06,48.66,20.21,87.8S836.92,713.88,822.78,687.77Z"/>
              <path class="cls-30" d="M822.78,687.77c-11.19-20.67-22.12-55.16-27-82.66,23.58,56.62,44.26,5.48,40-23.4-4.87-32.68,18.77-95.26,11.82-122.37a33.44,33.44,0,0,1-1.08-8,10.22,10.22,0,0,1,8.38,6.4c9.24,21.75-18,113.39-15.87,122.09s12.06,48.66,20.21,87.8S836.92,713.88,822.78,687.77Z"/>
            </g>
          </g>
          <path class="cls-31" d="M712.4,419.21l-13.56,98.56,16.1-6.09s27-87.54,25.79-90.83S712.4,419.21,712.4,419.21Z"/>
          <g>
            <path class="cls-32" d="M740.73,414.28l-11.2.8L712,416.33s-21.76-82.54-20.32-103.15c0,0,18.54,7.17,28.47,17.26,2.91,2.95,5.08,6.16,5.82,9.51C729.23,354.73,740.73,414.28,740.73,414.28Z"/>
            <polygon class="cls-33" points="707.88 414.28 709.11 422.08 746.07 424.96 743.2 408.94 707.88 414.28"/>
            <path class="cls-34" d="M739.7,408.94,729,410.2c-1.57-28.82-18.67-83.73-18.67-83.73l9.46-.05c2.9,2.95,5.08,6.15,5.82,9.5C728.93,350.71,739.7,408.94,739.7,408.94Z"/>
          </g>
          <path class="cls-32" d="M691.59,313.7c3.72-16.41,21.4-35.77,32.49-42.26,19.75-11.55,52.92-15.29,57-13.42,3.12,1.42,10.35,11.49,15.6,25.93a103.24,103.24,0,0,1,4.15,14.7C810.91,319.52,859,458.52,859,458.52s-3.13,1.8-8.57,4.55l-11.71-16.9,2.93,21.17c-18.83,8.82-50.21,21.34-79.92,23.24-3.84-25.29-17.68-66.39-30-99.52-10.38-27.91-19.7-50.15-21.06-52.54"/>
          <path class="cls-35" d="M721.56,287.17l-16.37-6.47s10.22-21,42.61-29.1C750.18,254,723,273,721.56,287.17Z"/>
          <path class="cls-31" d="M738.32,272.83c.79,1.26-1.62,39.66-1.62,39.66l-16-28.69-.58-9.42,18.75-16.68,4.33,8.23Z"/>
          <path class="cls-31" d="M720.56,280.7l-8.4-33.65,10.61-33c0,1.51,20.48,55,20.48,55"/>
          <path class="cls-36" d="M850.42,463.07l-11.71-16.9,2.93,21.17c-18.83,8.82-50.21,21.34-79.92,23.24-3.84-25.29-17.68-66.39-30-99.52,54.72,58,83.77-44.87,54.66-106.24A27.46,27.46,0,0,1,796.7,284a103.24,103.24,0,0,1,4.15,14.7C810.91,319.52,859,458.52,859,458.52S855.86,460.32,850.42,463.07Z"/>
          <path class="cls-31" d="M843.81,297.65l-17.25,89.94,14.38-.82s35.73-96.51,37.37-101.85-3.7-7.8-3.7-7.8Z"/>
          <g>
            <path class="cls-32" d="M783,289.68c25,6.58,60.81,8,60.81,8l30.8-20.53s-74.5-16.43-93.51-19.1"/>
            <path class="cls-33" d="M836,298.88l3.7,4.52s44.76-16,44.76-18.89-7.8-10.68-7.8-10.68Z"/>
          </g>
          <path class="cls-27" d="M720.23,529.65c1.53-9-.94-18.06-5.93-21.86s-20.26-.53-22.41,5.12,1.91,14.49,6.38,16.16S720.23,529.65,720.23,529.65Z"/>
          <path class="cls-31" d="M827.67,381.8s-7.19,15.27-7.19,16.66,1.17,8.6,1.17,8.6,14.75-3.61,17.1-8.88-.47-16.09-1.17-16.37S827.67,381.8,827.67,381.8Z"/>
          <polygon class="cls-37" points="593.96 634.11 900.22 324.18 909.66 334.02 602.83 647.12 593.96 634.11"/>
          <path class="cls-31" d="M828.44,377.83S830.31,415,832,415.29s5-1.34,5-1.34l.34-6.72s10.74-6.71,14.43-10.4-4.34-27.66-4.34-27.66"/>
          <g>
            <g>
              <path class="cls-27" d="M711.21,542.34l.34-.37a4.14,4.14,0,0,0,0-5.55l-7-7.43a3.47,3.47,0,0,0-5.57.6h0a4.15,4.15,0,0,0,.35,4.82L706,542.2A3.46,3.46,0,0,0,711.21,542.34Z"/>
              <path class="cls-27" d="M716.9,539.41l.34-.37a4.6,4.6,0,0,0-.35-6l-7.74-8.5c-1.81-2-4.61-1.86-5.82.27h0A4.73,4.73,0,0,0,704,530l7.41,8.88C713,540.79,715.46,541,716.9,539.41Z"/>
              <path class="cls-27" d="M721.34,534.75l.33-.37a4.59,4.59,0,0,0-.35-6l-7.74-8.5c-1.81-2-4.61-1.86-5.81.27h0a4.71,4.71,0,0,0,.65,5.22l7.41,8.88C717.39,536.13,719.9,536.35,721.34,534.75Z"/>
              <path class="cls-27" d="M724.05,528l.35-.36a3.75,3.75,0,0,0,.28-5.12l-6.23-6.42c-1.46-1.5-4-1.06-5.35.91h0a3.66,3.66,0,0,0,.06,4.42l5.89,6.78A3.37,3.37,0,0,0,724.05,528Z"/>
            </g>
            <path class="cls-27" d="M693.05,511.19a15.64,15.64,0,0,0-2,2.78c-2.76,5.06-2.56,17-1.64,20.27s19.8-1.1,19.8-1.1,1.67-4.84.13-7.42-14.14-.23-14.14-.23"/>
          </g>
          <g>
            <polygon class="cls-20" points="539.7 669.83 537.88 673.57 549.66 690.23 543.25 694.71 526.91 675.26 535.21 662.74 567.29 665.97 596.78 628.03 601.12 632.76 605.04 637.04 610.94 643.48 573.77 673.25 539.7 669.83"/>
            <polygon class="cls-20" points="598.97 705.52 566.64 735.99 563.06 739.36 555.83 728.21 531.89 691.27 534.71 688.58 544.94 678.8 556.29 684.41 576.42 694.37 596.62 704.36 598.97 705.52"/>
            <path class="cls-38" d="M605,637l-31.13,30.85c.71-.95,20.23-26.48,27.21-35.13Z"/>
            <path class="cls-21" d="M576.42,694.37c-2.6,11.64-7,30.24-9.78,41.62l-3.58,3.37-7.23-11.15c.2-14.29.46-35.27.46-43.8Z"/>
            <polygon class="cls-39" points="598.97 705.52 566.64 735.99 563.06 739.36 555.83 728.21 531.89 691.27 534.71 688.58 563.35 734.9 596.62 704.36 598.97 705.52"/>
          </g>
          <polygon class="cls-40" points="739.04 277.68 733.39 264.11 747.79 251.6 755.38 260.32 739.04 277.68"/>
          <g>
            <path class="cls-31" d="M662,222.48c-2.78-3.68-6.41-7.24-10.79-6.6s-6.52,4.54-5.75,11.31,2.11,12.19,7.42,16.3,11.06,4.52,14,.7"/>
            <path class="cls-41" d="M651.56,147.65s4.56-10.58,14.22-15.44l.67,4.69s7.88-14.63,27.52-12.6l-5.94,7a27.18,27.18,0,0,0,12-6.75s7.36,3.42-.28,10c0,0,8-11.53,20.81,1.29,0,0,12.92,1,18.82,23.41,0,0,7.48,6.72.66,11.11s-29-15-29-15l-31.62-1.89L662,153.25l-15.3,4.38c-1.86,0,5.64-10.06,5.64-10.06"/>
            <path class="cls-31" d="M644.21,185.85s.26,17,14.79,37.35c0,0,4.82,25.59,14.48,35.67s24.78,17.14,35.67,17.48,32-20.79,35.42-34.62-.35-29.13-.35-29.13L741.37,196s-5.61-27.38-16.3-36.89-41.52-9-41.52-9l-12.94,7.3-24.34,16.17Z"/>
            <g>
              <g>
                <circle class="cls-42" cx="676.24" cy="222.82" r="12.35"/>
                <path class="cls-43" d="M664,224a12.3,12.3,0,0,0,4.51,8.21,11.86,11.86,0,0,0,16.67-2.05,11.86,11.86,0,0,0-1.58-16.29,11.81,11.81,0,0,0-8.5-2.89,12,12,0,0,0-8.26,4.09A12.27,12.27,0,0,0,664,224Zm-.1,0a12.44,12.44,0,1,1,4.46,8.38A12.46,12.46,0,0,1,663.89,224Z"/>
              </g>
              <circle class="cls-44" cx="676.59" cy="228.67" r="5.44"/>
            </g>
            <g>
              <g>
                <ellipse class="cls-42" cx="706.17" cy="212.58" rx="12.46" ry="13.28" transform="translate(-17.24 69.24) rotate(-5.55)"/>
                <path class="cls-43" d="M693.82,213.78a13.69,13.69,0,0,0,4.46,8.73,11.45,11.45,0,0,0,17.07-2.07,13.5,13.5,0,0,0-1.69-17.35,11.54,11.54,0,0,0-8.73-3.27,11.69,11.69,0,0,0-8.42,4.53A13.67,13.67,0,0,0,693.82,213.78Zm-.1,0a13.82,13.82,0,0,1,2.61-9.57,12,12,0,0,1,17.91-1.76A13.93,13.93,0,0,1,716,221a12,12,0,0,1-17.92,1.72A13.84,13.84,0,0,1,693.72,213.78Z"/>
              </g>
              <circle class="cls-44" cx="705.8" cy="219.43" r="5.44"/>
            </g>
            <ellipse class="cls-42" cx="701.88" cy="215" rx="1.62" ry="1.85" transform="translate(-17.49 68.83) rotate(-5.55)"/>
            <ellipse class="cls-42" cx="672.48" cy="226.23" rx="1.62" ry="1.85" transform="translate(-18.72 66.05) rotate(-5.55)"/>
            <path class="cls-44" d="M694.7,194.6s9.9-13.06,23,1.65c0,0-1-8.28-14.27-11.18C703.39,185.07,692.47,184.43,694.7,194.6Z"/>
            <path class="cls-44" d="M678.79,201.73s-13.4-8.63-19.93,7.21A11.49,11.49,0,0,1,665.3,197c7.2-3.54,11.79-3.16,14.08,4.37"/>
            <path class="cls-45" d="M690.41,218.6a15.1,15.1,0,0,1-.38,6.16,22.42,22.42,0,0,1-2.44,5.75l-.84,1.33c-.3.43-.63.83-1,1.25s-.57.79-.86,1.19c-.13.19-.29.38-.4.58l-.3.62a4,4,0,0,0-.29.63l-.19.65a4.73,4.73,0,0,0-.18,1.29,4.21,4.21,0,0,0,.73,2.39,6.34,6.34,0,0,0,4.45,2.7,10.56,10.56,0,0,0,5.54-.67,17.36,17.36,0,0,0,5-3,8.38,8.38,0,0,0,3.06-4.95h.1a8.38,8.38,0,0,1-2.79,5.32,17.46,17.46,0,0,1-5.09,3.36,10.58,10.58,0,0,1-6,.86,7.31,7.31,0,0,1-5.16-3.05,5.14,5.14,0,0,1-.64-1.41,3.28,3.28,0,0,1-.14-.76,2.86,2.86,0,0,1-.06-.77,6.1,6.1,0,0,1,.24-1.53l.23-.74a6.22,6.22,0,0,1,.33-.69c.93-1.84,2.46-3.26,3.52-5a22.25,22.25,0,0,0,2.59-5.49,16,16,0,0,0,.78-6Z"/>
            <g>
              <path class="cls-46" d="M721.29,233.75s5,14.46-2.28,23.82c-5.23,6.73-14.53,8.16-21.91,4a19,19,0,0,1-8.44-10.33l-2.19-6.16S716.79,251.5,721.29,233.75Z"/>
              <path class="cls-47" d="M720.6,231.33s4.8,14.28-2.06,23.47-21.23,8.27-27.8-3.5l-2.59-6S716.4,248.81,720.6,231.33Z"/>
              <path class="cls-42" d="M691.26,247.06s-2.14,6.72,8.29,7.11,22-6.64,21.12-15.71-1.78-5.56-1.78-5.56S714.49,246.67,691.26,247.06Z"/>
              <path class="cls-46" d="M720.94,230.06s-16.32,19-37.06,12.91c0,0,3.89,6.45,13.4,5.37S718.92,241.12,720.94,230.06Z"/>
              <path class="cls-48" d="M717.44,256.26s-2.38-2.15-8.54.51c0,0-5.71-1.3-8.69,3.12C700.21,259.89,710,264.33,717.44,256.26Z"/>
            </g>
            <path class="cls-41" d="M670.38,166.71s-2.73,14.54,45.42,11.93S680.06,153.57,670.38,166.71Z"/>
            <path class="cls-41" d="M643.26,187.26s10.49,9.89,28-12.88S636.71,175.15,643.26,187.26Z"/>
            <g>
              <g>
                <g>
                  <path class="cls-49" d="M646.11,163.9s-20,15.06-7.82,38.54c0,0,10.1,7.9,8.72-2.68-1.57-12,1.69-26.18,28.28-33.52S658.09,157.36,646.11,163.9Z"/>
                  <path class="cls-50" d="M646.14,163.94a33.6,33.6,0,0,0-7,8,30,30,0,0,0-4,9.81,27.63,27.63,0,0,0,0,10.53,35.27,35.27,0,0,0,3.61,9.89l-.15-.17a19.94,19.94,0,0,0,2.87,1.74,7.24,7.24,0,0,0,3,.87,1.71,1.71,0,0,0,1.76-1.57,9.2,9.2,0,0,0,0-3.18,29.65,29.65,0,0,1,1.11-14.1,24.37,24.37,0,0,1,3.41-6.33,28.07,28.07,0,0,1,5.05-5,46.71,46.71,0,0,1,12.41-6.68c2.2-.81,4.44-1.48,6.69-2.08a41.17,41.17,0,0,0,6.5-2.12,6.78,6.78,0,0,0,1.37-.81,1.25,1.25,0,0,0,.39-.45c0-.11.05-.13-.07-.28a3.22,3.22,0,0,0-1.29-.7,14.27,14.27,0,0,0-1.62-.43,45.72,45.72,0,0,0-6.84-.74,86.51,86.51,0,0,0-13.84.5,68.64,68.64,0,0,0-6.84,1.12A27.11,27.11,0,0,0,646.14,163.94Zm-.06-.08a26.78,26.78,0,0,1,6.57-2.27,68.83,68.83,0,0,1,6.84-1.18,96,96,0,0,1,13.88-.69,46,46,0,0,1,6.92.63,12.74,12.74,0,0,1,1.7.41,3.9,3.9,0,0,1,1.55.83.83.83,0,0,1,.2.87,1.77,1.77,0,0,1-.55.71,7.67,7.67,0,0,1-1.49.92,41.88,41.88,0,0,1-6.57,2.28c-2.23.63-4.43,1.34-6.6,2.15a46.26,46.26,0,0,0-12.12,6.63,27.83,27.83,0,0,0-4.85,4.91,23.06,23.06,0,0,0-3.31,6,28.66,28.66,0,0,0-1.15,13.67,9.93,9.93,0,0,1-.06,3.48,3,3,0,0,1-.85,1.54,2.49,2.49,0,0,1-1.67.57,8,8,0,0,1-3.33-1,20.06,20.06,0,0,1-3-1.86h0a36.21,36.21,0,0,1-3.48-10.1,28.1,28.1,0,0,1,.18-10.66,30.37,30.37,0,0,1,4.1-9.85A33.74,33.74,0,0,1,646.08,163.86Z"/>
                </g>
                <g>
                  <path class="cls-49" d="M670.12,162s-21.18-.84-29.71,26.26"/>
                  <path class="cls-50" d="M670.12,162a27.92,27.92,0,0,0-5.14,1.06,29.57,29.57,0,0,0-4.84,1.88,33.12,33.12,0,0,0-8.45,5.84,40.75,40.75,0,0,0-6.46,8.07,17.48,17.48,0,0,0-1.31,2.26l-1.24,2.31c-.78,1.58-1.43,3.21-2.23,4.8l-.09,0c.61-1.65,1.19-3.33,1.83-5l1.14-2.39a18.07,18.07,0,0,1,1.23-2.35l1.38-2.27a7.37,7.37,0,0,1,.75-1.1l.8-1a37,37,0,0,1,3.51-4,31.66,31.66,0,0,1,8.83-5.83,26.51,26.51,0,0,1,10.3-2.33Z"/>
                </g>
              </g>
              <g>
                <g>
                  <path class="cls-49" d="M741.22,199.76S698.76,154.44,643,167.52c0,0-11.52.7-2-12,0,0-6.45-6.82,11.77-10.87s43.32,1,63.19,7.52,36.16,20.89,29.88,30.81c0,0,4.44,5.16.84,8.61C746.63,191.58,750.05,199.1,741.22,199.76Z"/>
                  <path class="cls-50" d="M741.2,199.8A123.61,123.61,0,0,0,720,183.3a125.57,125.57,0,0,0-24.11-11.74,97.33,97.33,0,0,0-26.15-5.5l-1.67-.12-1.67,0-3.35-.06c-2.23.11-4.46.08-6.68.34a93.68,93.68,0,0,0-13.2,2.09l-.08,0h0a10.31,10.31,0,0,1-2.3-.17,6.9,6.9,0,0,1-2.24-.82,4.19,4.19,0,0,1-1.71-1.91,4.85,4.85,0,0,1-.32-2.47,11.85,11.85,0,0,1,1.49-4.27,32.15,32.15,0,0,1,2.37-3.65l.06,1.09a5.67,5.67,0,0,1-1.17-2.15,5,5,0,0,1,0-2.48,6.78,6.78,0,0,1,2.82-3.62,25.14,25.14,0,0,1,7.77-3.36,65.86,65.86,0,0,1,16.44-2.08c11.05-.08,22,1.69,32.63,4.22q8,1.92,15.82,4.48a78.32,78.32,0,0,1,15.13,6.56,60.43,60.43,0,0,1,6.9,4.55,41.45,41.45,0,0,1,6.1,5.6A20.15,20.15,0,0,1,747,175a10.42,10.42,0,0,1,.46,4.19,9,9,0,0,1-1.42,4l0-.37a12.5,12.5,0,0,1,1.32,2.07,8.58,8.58,0,0,1,.81,2.31,5.57,5.57,0,0,1-.08,2.47,5,5,0,0,1-1.32,2.1l0-.22a8.6,8.6,0,0,1,.62,3,4.91,4.91,0,0,1-.81,2.93,5.16,5.16,0,0,1-2.43,1.79c-.48.18-1,.27-1.47.41Zm0-.09,1.46-.2a14,14,0,0,0,1.44-.42,4.86,4.86,0,0,0,2.33-1.76,4.7,4.7,0,0,0,.75-2.83,8.53,8.53,0,0,0-.64-2.9v0l0,0a4.78,4.78,0,0,0,1.22-2,5.28,5.28,0,0,0,.05-2.34,8.59,8.59,0,0,0-.81-2.22,11.86,11.86,0,0,0-1.3-2l0,0,0,0a8.67,8.67,0,0,0,1.31-3.82,10.12,10.12,0,0,0-.49-4,20,20,0,0,0-4.22-6.93,41.5,41.5,0,0,0-6-5.51,60.64,60.64,0,0,0-6.86-4.47,77.35,77.35,0,0,0-15-6.44q-7.8-2.5-15.78-4.39c-10.63-2.48-21.51-4.19-32.44-4.06A64.92,64.92,0,0,0,650,145.43a25,25,0,0,0-7.47,3.2,5.77,5.77,0,0,0-2.46,3.09,3.76,3.76,0,0,0,0,2,4.62,4.62,0,0,0,.93,1.75l.05.06,0,.06a32.42,32.42,0,0,0-2.31,3.53,11.2,11.2,0,0,0-1.41,3.92,4,4,0,0,0,.25,2,3.27,3.27,0,0,0,1.35,1.5,7.51,7.51,0,0,0,4,.89h0a94.08,94.08,0,0,1,13.34-2.05c2.24-.25,4.49-.22,6.74-.31l3.37.08,1.69,0,1.68.13A98,98,0,0,1,696.05,171a120.06,120.06,0,0,1,24.14,12,134.19,134.19,0,0,1,11,7.82A104.52,104.52,0,0,1,741.24,199.71Z"/>
                </g>
                <g>
                  <path class="cls-49" d="M747,184.51s-23.51-22.74-63.14-28.2-42.89-.8-42.89-.8"/>
                  <path class="cls-50" d="M746.94,184.55a91,91,0,0,0-11.46-8.27,116.7,116.7,0,0,0-12.31-6.87c-2.1-1.07-4.27-2-6.4-2.95s-4.36-1.75-6.54-2.63-4.43-1.54-6.67-2.23-4.51-1.32-6.79-1.86c-9.08-2.37-18.49-3.39-27.85-4.49q-7-.83-14.09-1.11-3.52-.18-7.06,0c-1.17.07-2.34.16-3.5.34a14.68,14.68,0,0,0-1.72.38,4.13,4.13,0,0,0-1.56.72l-.08-.06a4.18,4.18,0,0,1,1.6-.81,14.41,14.41,0,0,1,1.72-.43c1.16-.22,2.34-.34,3.52-.45,2.36-.17,4.73-.22,7.09-.17,4.73.09,9.45.39,14.15.86,9.4,1,18.83,2,28,4.29,2.3.55,4.55,1.28,6.83,1.91s4.48,1.53,6.71,2.29a132.71,132.71,0,0,1,13,5.74,116,116,0,0,1,12.25,7.13A91.4,91.4,0,0,1,747,184.48Z"/>
                </g>
                <g>
                  <path class="cls-49" d="M747,193.2S744.33,185,719.58,175"/>
                  <path class="cls-50" d="M747,193.21a14.25,14.25,0,0,0-2.7-3.09,30.3,30.3,0,0,0-3.17-2.61,68.76,68.76,0,0,0-6.91-4.5c-1.18-.71-2.37-1.4-3.58-2.08s-2.44-1.29-3.66-2c-2.44-1.32-4.93-2.56-7.37-4l0-.09,3.86,1.62c1.28.54,2.54,1.15,3.81,1.73s2.5,1.24,3.75,1.85,2.45,1.33,3.66,2a57,57,0,0,1,6.89,4.76,27.56,27.56,0,0,1,3.07,2.85,12.42,12.42,0,0,1,2.4,3.42Z"/>
                </g>
              </g>
            </g>
            <path class="cls-31" d="M740,202.35c2.27-4.18,5.49-8.4,10.37-8.66s8,3.13,8.53,9.93S759,216,754.11,221.1s-11.09,6.66-15,3.51"/>
            <g>
              <path class="cls-51" d="M742.46,214.07s1.86-10.51,8.52-13.15C751,200.92,742.9,208.65,742.46,214.07Z"/>
              <path class="cls-51" d="M743.06,211.67s5.67.61,4.88,7.76C747.94,219.43,747.81,213.13,743.06,211.67Z"/>
              <path class="cls-51" d="M660.27,231.77s-3.88-8.85-11-8.55C649.29,223.22,654.78,223.74,660.27,231.77Z"/>
              <path class="cls-51" d="M659,230.06s-4.37,3.24-1.42,8.81C657.6,238.87,655.79,233.81,659,230.06Z"/>
            </g>
            <g>
              <g>
                <line class="cls-52" x1="688.35" y1="262.39" x2="684.9" y2="267.27"/>
                <path class="cls-50" d="M688.38,262.41a6.55,6.55,0,0,1-1.2,2.81,6.94,6.94,0,0,1-2.25,2.08l-.06-.05,1.69-2.46,1.76-2.42Z"/>
              </g>
              <g>
                <line class="cls-52" x1="709.08" y1="235.14" x2="712.23" y2="235.66"/>
                <path class="cls-50" d="M709.09,235.11a2.2,2.2,0,0,1,1.68-.37,2.25,2.25,0,0,1,1.47.89v.07l-1.59-.22-1.57-.3Z"/>
              </g>
              <g>
                <line class="cls-52" x1="714.41" y1="232.56" x2="716.99" y2="233.55"/>
                <path class="cls-50" d="M714.43,232.52a1.81,1.81,0,0,1,1.51-.1,1.84,1.84,0,0,1,1.06,1.09l0,.07-1.3-.46-1.28-.53Z"/>
              </g>
              <g>
                <line class="cls-52" x1="719.42" y1="228.76" x2="723.69" y2="227.93"/>
                <path class="cls-50" d="M719.42,228.72a4,4,0,0,1,4.26-.82V228l-2.12.45-2.14.38Z"/>
              </g>
              <g>
                <line class="cls-52" x1="677.69" y1="259.08" x2="674.56" y2="263.11"/>
                <path class="cls-50" d="M677.72,259.1a4.92,4.92,0,0,1-1.06,2.41,5,5,0,0,1-2.07,1.62l-.06-.05,1.54-2,1.59-2Z"/>
              </g>
              <g>
                <g>
                  <line class="cls-52" x1="697.67" y1="268.93" x2="695.51" y2="274.31"/>
                  <path class="cls-50" d="M697.71,268.94a6.88,6.88,0,0,1-2.17,5.38l-.07,0,1-2.71,1.12-2.67Z"/>
                </g>
                <g>
                  <line class="cls-52" x1="721.56" y1="263.51" x2="723.08" y2="266.46"/>
                  <path class="cls-50" d="M721.59,263.49a2.39,2.39,0,0,1,1.33,1.19,2.46,2.46,0,0,1,.2,1.77l-.07,0-.8-1.46-.73-1.49Z"/>
                </g>
                <g>
                  <line class="cls-52" x1="719.96" y1="270.49" x2="720.56" y2="274.57"/>
                  <path class="cls-50" d="M720,270.48a3.45,3.45,0,0,1,.94,1.95,3.49,3.49,0,0,1-.33,2.13h-.08l-.33-2-.27-2.05Z"/>
                </g>
                <g>
                  <line class="cls-52" x1="712.64" y1="271.82" x2="713.55" y2="276.9"/>
                  <path class="cls-50" d="M712.68,271.81a5.54,5.54,0,0,1,.9,5.09h-.07l-.49-2.54-.42-2.54Z"/>
                </g>
                <g>
                  <g>
                    <line class="cls-52" x1="727.54" y1="239.97" x2="731.09" y2="240.24"/>
                    <path class="cls-50" d="M727.55,239.93a2.78,2.78,0,0,1,3.54.28v.07l-1.77-.1-1.77-.17Z"/>
                  </g>
                  <g>
                    <line class="cls-52" x1="735.3" y1="243.15" x2="738.63" y2="245.51"/>
                    <path class="cls-50" d="M735.32,243.11a3.62,3.62,0,0,1,3.33,2.37l0,.06-1.69-1.15-1.64-1.21Z"/>
                  </g>
                  <g>
                    <line class="cls-52" x1="728.58" y1="248.55" x2="732.76" y2="251.05"/>
                    <path class="cls-50" d="M728.6,248.52a4.93,4.93,0,0,1,4.17,2.49l0,.07-2.11-1.22-2.07-1.27Z"/>
                  </g>
                  <g>
                    <line class="cls-52" x1="725.59" y1="256.08" x2="728.33" y2="258.71"/>
                    <path class="cls-50" d="M725.62,256.06a3.11,3.11,0,0,1,2.73,2.63l-.05.05-1.39-1.29-1.34-1.34Z"/>
                  </g>
                  <g>
                    <line class="cls-52" x1="732.79" y1="259.94" x2="734.85" y2="262.01"/>
                    <path class="cls-50" d="M732.82,259.91a2,2,0,0,1,1.48.59,2,2,0,0,1,.58,1.48l0,.06-1.06-1-1-1.07Z"/>
                  </g>
                  <g>
                    <line class="cls-52" x1="737.03" y1="254.56" x2="741.06" y2="255.62"/>
                    <path class="cls-50" d="M737,254.52a3.46,3.46,0,0,1,2.17-.08,3.5,3.5,0,0,1,1.86,1.14l0,.07-2-.49-2-.56Z"/>
                  </g>
                  <g>
                    <line class="cls-52" x1="741.88" y1="232.16" x2="747.97" y2="233.02"/>
                    <path class="cls-50" d="M741.89,232.13a7,7,0,0,1,3.13-.21,7.11,7.11,0,0,1,3,1.06v.08l-3.05-.39-3-.47Z"/>
                  </g>
                </g>
              </g>
              <g>
                <line class="cls-52" x1="682.47" y1="242.28" x2="679.33" y2="244.03"/>
                <path class="cls-50" d="M682.49,242.31a2.76,2.76,0,0,1-1.26,1.43,2.69,2.69,0,0,1-1.88.32l0-.06,1.55-.91,1.59-.85Z"/>
              </g>
            </g>
            <path class="cls-53" d="M664.36,220.69a84.34,84.34,0,0,0,21.31-3.28s-3.72-7-10.76-6.44C665.46,211.67,664.36,220.69,664.36,220.69Z"/>
            <path class="cls-53" d="M694,210.94a89.3,89.3,0,0,0,22.21-3.13s-2.92-8.46-11.18-7.69C694.68,201.07,694,210.94,694,210.94Z"/>
          </g>
          <g>
            <path class="cls-54" d="M599.36,744.19a15.93,15.93,0,0,0-8.14-4.63c5.69.24,7.17,1.51,9.18,3.34-1.75-5.31-10.93-14.7-10.93-14.7s10.65,3.37,13,14.48c1.15-7.1,11.41-11.68,11.41-11.68s-9.59,8.62-9.27,11.77c4.39-4.12,11.9-1.79,11.9-1.79s-10.06.36-10.55,3.55A16.12,16.12,0,0,1,599.36,744.19Z"/>
            <g>
              <path class="cls-55" d="M425.52,750.08c-27.28,5.55-29.8-28.08,6-18.86,23.52-19.52,37.75-22.49,50.68-9.34,23-30.79,39.66-16.39,48,0,10-6.92,25.06-5.3,27.29,10.43,22.82-23.32,57.35-7.84,56.79,15.06-22.49,10.49-63.47,6.08-63.47,6.08-17.08,2.24-32-.25-51.23,1.63C473.2,755.69,437.85,755.08,425.52,750.08Z"/>
              <path class="cls-56" d="M431.51,731.22c8-6.63,14.89-11.31,21.05-14.14a14.57,14.57,0,0,0-1.91,9.91c5,14.59,26.62,21,44.07,14.26,16,10.91,36.55,11.51,53.88,3.73a97.17,97.17,0,0,0,65.54-.52,21.49,21.49,0,0,1,.14,2.91c-23.06,11.33-63.47,6.08-63.47,6.08-14.18,2.24-29.13-2.77-51.23,1.63-4.6-1.44-60.61-3.41-74.06-5C398.24,755.63,395.72,722,431.51,731.22Z"/>
              <g>
                <path class="cls-57" d="M454.87,723.72h3c3.85,0,3.85,5.82,0,5.82h-3C451,729.54,451,723.72,454.87,723.72Z"/>
                <path class="cls-55" d="M444.78,734.63c3.86,0,3.86,5.83,0,5.83S440.93,734.63,444.78,734.63Z"/>
                <path class="cls-57" d="M597.19,733.54c3.85,0,3.85,5.82,0,5.82S593.33,733.54,597.19,733.54Z"/>
                <path class="cls-57" d="M464.58,729.18c1.9-.07,1.91,2.74.07,2.89-1.09.67-2.86-.06-2.26-1.46A2.12,2.12,0,0,1,464.58,729.18Z"/>
                <path class="cls-57" d="M604.28,738.27H605a1.46,1.46,0,0,1,0,2.92h-.75A1.46,1.46,0,0,1,604.28,738.27Z"/>
                <path class="cls-57" d="M574.4,728.82h1.87a1.46,1.46,0,0,1,0,2.91H574.4A1.46,1.46,0,0,1,574.4,728.82Z"/>
              </g>
            </g>
            <g>
              <path class="cls-55" d="M569.65,749.94c-27.28,5.55-29.8-28.08,6-18.85,23.52-19.53,37.75-22.49,50.68-9.35,23-30.79,39.66-16.39,48,0,10-6.92,25.06-5.29,27.29,10.43,22.82-23.32,58.7-5.47,58.14,17.43-22.5,10.49-64.82,3.72-64.82,3.72-17.08,2.24-32-.25-51.23,1.63C617.33,755.56,582,755,569.65,749.94Z"/>
              <path class="cls-56" d="M575.64,731.09c8-6.63,14.89-11.31,21.05-14.14a14.55,14.55,0,0,0-1.91,9.91c5,14.58,26.62,21,44.07,14.26,16,10.9,36.55,11.51,53.88,3.72,21.24,7.54,45.11,12.44,65.23,4.8.11,1,1.82-1,1.8,0-23.06,11.33-64.82,3.72-64.82,3.72-14.18,2.24-29.13-2.77-51.23,1.63-4.6-1.45-60.61-3.42-74.06-5C542.37,755.49,539.85,721.86,575.64,731.09Z"/>
              <path class="cls-55" d="M721.34,749.26c-27.28,5.55-29.8-28.08,6-18.86,23.53-19.52,37.76-22.49,50.69-9.34,23-30.79,39.66-16.39,48,0,10-6.93,25.06-5.3,27.29,10.43,22.82-23.32,58.7-5.47,58.14,17.42-22.5,10.49-64.83,3.72-64.83,3.72-17.07,2.24-32-.25-51.22,1.63C769,754.87,733.66,754.26,721.34,749.26Z"/>
              <path class="cls-56" d="M727.32,730.4c8-6.63,14.9-11.31,21-14.14a14.63,14.63,0,0,0-1.91,9.91c5,14.59,26.63,21,44.08,14.26,16.05,10.91,36.55,11.51,53.87,3.73,21.25,7.54,45.12,12.43,65.24,4.8.1.95,1.82-1,1.8-.05-23.06,11.34-64.83,3.72-64.83,3.72-14.18,2.24-29.12-2.77-51.22,1.63-4.61-1.44-60.61-3.41-74.06-5C694.06,754.81,691.54,721.18,727.32,730.4Z"/>
              <g>
                <path class="cls-57" d="M599,723.59h3c3.85,0,3.85,5.82,0,5.82h-3C595.15,729.41,595.15,723.59,599,723.59Z"/>
                <path class="cls-55" d="M588.91,734.5c3.86,0,3.86,5.82,0,5.82S585.06,734.5,588.91,734.5Z"/>
                <path class="cls-57" d="M741.32,733.4c3.85,0,3.85,5.83,0,5.83S737.46,733.4,741.32,733.4Z"/>
                <path class="cls-57" d="M608.71,729c1.9-.07,1.91,2.75.07,2.9-1.09.67-2.86-.06-2.26-1.46A2.14,2.14,0,0,1,608.71,729Z"/>
                <path class="cls-57" d="M748.41,738.14h.75a1.46,1.46,0,0,1,0,2.91h-.75A1.46,1.46,0,0,1,748.41,738.14Z"/>
                <path class="cls-57" d="M718.53,728.68h1.87a1.46,1.46,0,0,1,0,2.91h-1.87A1.46,1.46,0,0,1,718.53,728.68Z"/>
                <path class="cls-57" d="M647.56,707.94h1.12a1.46,1.46,0,0,1,0,2.91h-1.12A1.46,1.46,0,0,1,647.56,707.94Z"/>
              </g>
            </g>
          </g>
        </g>
      </g>
    </g>
  </g>
</svg>
