<svg xmlns="http://www.w3.org/2000/svg" xmlns:xlink="http://www.w3.org/1999/xlink" width="1600" height="900" viewBox="0 0 1600 900">
  <defs>
    <style>
      .cls-1 {
        mask: url(#mask);
        filter: url(#luminosity-noclip-3);
      }

      .cls-2, .cls-23, .cls-27, .cls-28, .cls-30, .cls-36, .cls-4 {
        mix-blend-mode: multiply;
      }

      .cls-2 {
        fill: url(#_2);
      }

      .cls-3 {
        mask: url(#mask-2);
        filter: url(#luminosity-noclip-4);
      }

      .cls-4 {
        fill: url(#_2-2);
      }

      .cls-5 {
        fill: none;
      }

      .cls-6 {
        isolation: isolate;
      }

      .cls-7 {
        clip-path: url(#clip-path);
      }

      .cls-8 {
        fill: url(#linear-gradient);
      }

      .cls-9 {
        mask: url(#mask-3);
      }

      .cls-10, .cls-26 {
        opacity: 0.5;
      }

      .cls-10 {
        fill: url(#linear-gradient-2);
      }

      .cls-11 {
        mask: url(#mask-4);
      }

      .cls-12 {
        opacity: 0.69;
        fill: url(#linear-gradient-3);
      }

      .cls-13 {
        fill: url(#linear-gradient-4);
      }

      .cls-14 {
        fill: url(#linear-gradient-5);
      }

      .cls-15 {
        fill: url(#linear-gradient-6);
      }

      .cls-16 {
        fill: #f9b77a;
      }

      .cls-17 {
        fill: #ef9d65;
        opacity: 0.7;
      }

      .cls-18 {
        fill: url(#linear-gradient-7);
      }

      .cls-19 {
        fill: url(#Áåçûìÿííûé_ãðàäèåíò_96);
      }

      .cls-20 {
        fill: url(#Áåçûìÿííûé_ãðàäèåíò_96-2);
      }

      .cls-21 {
        fill: url(#Áåçûìÿííûé_ãðàäèåíò_96-3);
      }

      .cls-22 {
        fill: url(#Áåçûìÿííûé_ãðàäèåíò_96-4);
      }

      .cls-23, .cls-27, .cls-28, .cls-30, .cls-36 {
        fill: #ca707c;
      }

      .cls-23 {
        opacity: 0.06;
      }

      .cls-24 {
        fill: url(#Áåçûìÿííûé_ãðàäèåíò_96-5);
      }

      .cls-25 {
        fill: url(#Áåçûìÿííûé_ãðàäèåíò_96-6);
      }

      .cls-26, .cls-32, .cls-33, .cls-56 {
        fill: #fff;
      }

      .cls-26, .cls-32, .cls-33 {
        mix-blend-mode: soft-light;
      }

      .cls-27 {
        opacity: 0.15;
      }

      .cls-28 {
        opacity: 0.54;
      }

      .cls-29 {
        fill: url(#Áåçûìÿííûé_ãðàäèåíò_14);
      }

      .cls-30, .cls-33 {
        opacity: 0.53;
      }

      .cls-31 {
        fill: url(#Áåçûìÿííûé_ãðàäèåíò_14-2);
      }

      .cls-32 {
        opacity: 0.74;
      }

      .cls-34 {
        fill: url(#Áåçûìÿííûé_ãðàäèåíò_14-3);
      }

      .cls-35 {
        opacity: 0.49;
        fill: url(#Áåçûìÿííûé_ãðàäèåíò_14-4);
      }

      .cls-36 {
        opacity: 0.31;
      }

      .cls-37 {
        fill: #664320;
      }

      .cls-38 {
        fill: #323232;
        stroke: #511010;
        opacity: 0.26;
      }

      .cls-38, .cls-45, .cls-50 {
        stroke-miterlimit: 10;
      }

      .cls-39, .cls-45 {
        fill: #d09a4f;
      }

      .cls-40 {
        fill: #edc39a;
      }

      .cls-41 {
        fill: #b77e39;
      }

      .cls-42 {
        fill: #63330b;
      }

      .cls-43 {
        fill: #f99a9a;
      }

      .cls-44 {
        fill: #e57676;
      }

      .cls-45 {
        stroke: #5b3c16;
      }

      .cls-46, .cls-50 {
        fill: #712703;
      }

      .cls-47 {
        fill: #963a15;
      }

      .cls-48 {
        fill: #471400;
      }

      .cls-49 {
        fill: #2d0b00;
      }

      .cls-50 {
        stroke: #491602;
      }

      .cls-51 {
        fill: #2b0800;
      }

      .cls-52 {
        fill: #631f00;
      }

      .cls-53 {
        fill: #3a0202;
      }

      .cls-54 {
        fill: #360700;
      }

      .cls-55 {
        fill: #c23636;
      }

      .cls-57 {
        fill: #110502;
      }

      .cls-58 {
        filter: url(#luminosity-noclip-2);
      }

      .cls-59 {
        filter: url(#luminosity-noclip);
      }
    </style>
    <filter id="luminosity-noclip" x="-368.77" y="-8642" width="1475.13" height="32766" filterUnits="userSpaceOnUse" color-interpolation-filters="sRGB">
      <feFlood flood-color="#fff" result="bg"/>
      <feBlend in="SourceGraphic" in2="bg"/>
    </filter>
    <mask id="mask" x="-368.77" y="-8642" width="1475.13" height="32766" maskUnits="userSpaceOnUse">
      <g class="cls-59"/>
    </mask>
    <linearGradient id="_2" data-name="  2" x1="-150.86" y1="172.7" x2="913.43" y2="172.7" gradientTransform="matrix(1.38, 0.02, -0.02, 1, -156.12, -31.59)" gradientUnits="userSpaceOnUse">
      <stop offset="0.22" stop-color="#4d4d4d"/>
      <stop offset="1" stop-color="#fff"/>
    </linearGradient>
    <filter id="luminosity-noclip-2" x="601.67" y="-8642" width="1299.78" height="32766" filterUnits="userSpaceOnUse" color-interpolation-filters="sRGB">
      <feFlood flood-color="#fff" result="bg"/>
      <feBlend in="SourceGraphic" in2="bg"/>
    </filter>
    <mask id="mask-2" x="601.67" y="-8642" width="1299.78" height="32766" maskUnits="userSpaceOnUse">
      <g class="cls-58"/>
    </mask>
    <linearGradient id="_2-2" x1="4586.55" y1="215.84" x2="5650.84" y2="215.84" gradientTransform="matrix(-1.22, 0.03, 0.02, 1, 7490.83, -71.56)" xlink:href="#_2"/>
    <clipPath id="clip-path">
      <rect class="cls-5" width="1600" height="900"/>
    </clipPath>
    <linearGradient id="linear-gradient" x1="771.76" y1="-529.22" x2="791.58" y2="943.67" gradientUnits="userSpaceOnUse">
      <stop offset="0.34" stop-color="#aee0ed"/>
      <stop offset="0.52" stop-color="#e4f1df"/>
      <stop offset="0.89" stop-color="#f9b77a"/>
    </linearGradient>
    <filter id="luminosity-noclip-3" x="-368.77" y="100.59" width="1475.13" height="75.72" filterUnits="userSpaceOnUse" color-interpolation-filters="sRGB">
      <feFlood flood-color="#fff" result="bg"/>
      <feBlend in="SourceGraphic" in2="bg"/>
    </filter>
    <mask id="mask-3" x="-368.77" y="100.59" width="1475.13" height="75.72" maskUnits="userSpaceOnUse">
      <g class="cls-1">
        <path class="cls-2" d="M-367.46,100.69l-1.31,73.64c57.1,4.8,210.81-.69,427.17-.32,268.26.47,390-5.39,389.57-9.89-.63-6.54-229.6-7.07-229-12.71,1.07-9.92,887.49-8,887.36-17.74-.09-6.37-411.86-15.16-902.26-22.78C-26.52,107.31-255.77,99.62-367.46,100.69Z"/>
      </g>
    </mask>
    <linearGradient id="linear-gradient-2" x1="101.79" y1="172.7" x2="1166.08" y2="172.7" gradientTransform="matrix(1.38, 0.02, -0.02, 1, -156.12, -31.59)" gradientUnits="userSpaceOnUse">
      <stop offset="0" stop-color="#ef9d65" stop-opacity="0.7"/>
      <stop offset="0.38" stop-color="#fff"/>
    </linearGradient>
    <filter id="luminosity-noclip-4" x="601.67" y="231.62" width="1299.78" height="75.82" filterUnits="userSpaceOnUse" color-interpolation-filters="sRGB">
      <feFlood flood-color="#fff" result="bg"/>
      <feBlend in="SourceGraphic" in2="bg"/>
    </filter>
    <mask id="mask-4" x="601.67" y="231.62" width="1299.78" height="75.82" maskUnits="userSpaceOnUse">
      <g class="cls-3">
        <path class="cls-4" d="M1899.81,231.69l1.64,73.63c-50.28,4.9-185.72-.32-376.32.43-236.33.93-343.62-4.71-343.26-9.21.51-6.54,202.22-7.47,201.64-13.11-1-9.91-781.9-6.44-781.84-16.19,0-6.37,362.72-15.88,794.7-24.35C1599.5,238.9,1801.41,230.82,1899.81,231.69Z"/>
      </g>
    </mask>
    <linearGradient id="linear-gradient-3" x1="4549.75" y1="215.84" x2="5614.04" y2="215.84" gradientTransform="matrix(-1.22, 0.03, 0.02, 1, 7490.83, -71.56)" gradientUnits="userSpaceOnUse">
      <stop offset="0" stop-color="#ef9d65" stop-opacity="0.7"/>
      <stop offset="0.76" stop-color="#f4f9ef"/>
    </linearGradient>
    <linearGradient id="linear-gradient-4" x1="501.83" y1="-372.41" x2="469.37" y2="-150.42" gradientTransform="matrix(1.09, -0.1, 0.08, 0.85, -123.22, 519.37)" gradientUnits="userSpaceOnUse">
      <stop offset="0.51" stop-color="#e8f7f9"/>
      <stop offset="0.77" stop-color="#eed7b1"/>
    </linearGradient>
    <linearGradient id="linear-gradient-5" x1="1325.8" y1="167.89" x2="1196" y2="208.96" gradientUnits="userSpaceOnUse">
      <stop offset="0.29" stop-color="#e8f7f9"/>
      <stop offset="1" stop-color="#f9b77a"/>
    </linearGradient>
    <linearGradient id="linear-gradient-6" x1="1083.41" y1="-19.39" x2="1036.25" y2="72.86" gradientTransform="matrix(1.05, -0.1, 0.07, 0.8, -169.89, 433.3)" gradientUnits="userSpaceOnUse">
      <stop offset="0.32" stop-color="#e8f7f9"/>
      <stop offset="0.91" stop-color="#f9b77a"/>
    </linearGradient>
    <linearGradient id="linear-gradient-7" x1="-295" y1="761.66" x2="1899" y2="761.66" gradientUnits="userSpaceOnUse">
      <stop offset="0" stop-color="#fcb54b"/>
      <stop offset="0.61" stop-color="#fcb74b"/>
      <stop offset="0.84" stop-color="#fabe4b"/>
      <stop offset="1" stop-color="#f7c94b"/>
    </linearGradient>
    <linearGradient id="Áåçûìÿííûé_ãðàäèåíò_96" data-name="Áåçûìÿííûé ãðàäèåíò 96" x1="1113.8" y1="663.12" x2="1116.36" y2="753.61" gradientUnits="userSpaceOnUse">
      <stop offset="0" stop-color="#fcb54b"/>
      <stop offset="1" stop-color="#fcdb48"/>
    </linearGradient>
    <linearGradient id="Áåçûìÿííûé_ãðàäèåíò_96-2" x1="-26.52" y1="677.95" x2="1910" y2="677.95" xlink:href="#Áåçûìÿííûé_ãðàäèåíò_96"/>
    <linearGradient id="Áåçûìÿííûé_ãðàäèåíò_96-3" x1="1096.93" y1="639.08" x2="1424.93" y2="394.02" xlink:href="#Áåçûìÿííûé_ãðàäèåíò_96"/>
    <linearGradient id="Áåçûìÿííûé_ãðàäèåíò_96-4" x1="1112.12" y1="783.44" x2="1440.13" y2="538.38" xlink:href="#Áåçûìÿííûé_ãðàäèåíò_96"/>
    <linearGradient id="Áåçûìÿííûé_ãðàäèåíò_96-5" x1="673.66" y1="832.91" x2="939.41" y2="794.84" xlink:href="#Áåçûìÿííûé_ãðàäèåíò_96"/>
    <linearGradient id="Áåçûìÿííûé_ãðàäèåíò_96-6" x1="1115.28" y1="908.98" x2="1091.62" y2="738.85" xlink:href="#Áåçûìÿííûé_ãðàäèåíò_96"/>
    <linearGradient id="Áåçûìÿííûé_ãðàäèåíò_14" data-name="Áåçûìÿííûé ãðàäèåíò 14" x1="1205.14" y1="682.62" x2="1211.32" y2="645.57" gradientUnits="userSpaceOnUse">
      <stop offset="0" stop-color="#d60c00"/>
      <stop offset="1" stop-color="#ffab00"/>
    </linearGradient>
    <linearGradient id="Áåçûìÿííûé_ãðàäèåíò_14-2" x1="506" y1="711.14" x2="526.7" y2="638.38" xlink:href="#Áåçûìÿííûé_ãðàäèåíò_14"/>
    <linearGradient id="Áåçûìÿííûé_ãðàäèåíò_14-3" x1="626.04" y1="698.32" x2="630.24" y2="650.54" xlink:href="#Áåçûìÿííûé_ãðàäèåíò_14"/>
    <linearGradient id="Áåçûìÿííûé_ãðàäèåíò_14-4" x1="850.15" y1="700.92" x2="847.79" y2="631.49" xlink:href="#Áåçûìÿííûé_ãðàäèåíò_14"/>
  </defs>
  <g class="cls-6">
    <g id="Layer_1" data-name="Layer 1">
      <g class="cls-7">
        <g>
          <g>
            <g>
              <rect class="cls-8" x="-324" y="-71.81" width="2213" height="681.37"/>
              <g>
                <g class="cls-9">
                  <path class="cls-10" d="M-367.46,100.69l-1.31,73.64c57.1,4.8,210.81-.69,427.17-.32,268.26.47,390-5.39,389.57-9.89-.63-6.54-229.6-7.07-229-12.71,1.07-9.92,887.49-8,887.36-17.74-.09-6.37-411.86-15.16-902.26-22.78C-26.52,107.31-255.77,99.62-367.46,100.69Z"/>
                </g>
                <g class="cls-11">
                  <path class="cls-12" d="M1899.81,231.69l1.64,73.63c-50.28,4.9-185.72-.32-376.32.43-236.33.93-343.62-4.71-343.26-9.21.51-6.54,202.22-7.47,201.64-13.11-1-9.91-781.9-6.44-781.84-16.19,0-6.37,362.72-15.88,794.7-24.35C1599.5,238.9,1801.41,230.82,1899.81,231.69Z"/>
                </g>
                <path class="cls-13" d="M303.49,275.07s6.27-18.27,50.23-29,72.56-16.07,97.07,1.47,12.19,47-5.09,50.72-89.27,6.79-132.63-5C313.07,293.27,297.6,287.85,303.49,275.07Z"/>
                <path class="cls-14" d="M1225.34,184.12s1.76-7.85,24-13.22,41-8.26,60.38-2.06,15.25,20.23,11.14,21.88c-8,3.21-25.13,7.43-70.93,3.31C1222.41,191.55,1225.34,184.12,1225.34,184.12Z"/>
                <path class="cls-15" d="M902.12,353s3.49-9.86,27.82-15.72,40.16-8.75,53.7.67,6.68,25.34-2.88,27.36-49.39,3.78-73.37-2.51C907.39,362.81,898.84,359.91,902.12,353Z"/>
              </g>
            </g>
            <g>
              <path class="cls-16" d="M2123.45,602.45l-48,7.71-152.8,24.55H-478.24c.71-5.88,12.63-108.49,13.35-115a1.29,1.29,0,0,0,0-.25c13.42,4.08,103,40.82,101.54,36.9,170,7.85,218.8-25,285.21-31.44,104.68,34.77,211.93,52.14,290.44,56.2,84.77-7.79,93-36.42,115.07-43.29C438,539.9,588.64,505.48,785,475.27c91.44-13.75,126.34-13.2,167.26-3,28,7,58.81,18.49,112.5,33.06q3.1.26,6.82.5c43.88,3,146.43,7,206.5,29.91-4.76,2.45,260.65,11.57,380,17.92,36.68,2.9,58-1.27,67.1,8.06,12,7.46,3.32,2.54,16.45,3.83,94.48-5.95,104.1,23.49,128.12,18.72C1954.33,588.31,2093.43,580.05,2123.45,602.45Z"/>
              <path class="cls-17" d="M1071.6,505.83c61.37,16.41,83.9,11.81,153.76,18.58-233.7,14.24-57.84-21.37-191.89,81.29,137.11,11,354.19-5.16,490.89-10.85,117.6,5.48,188.63,19.91,214.21-5.41L1732,572.59c8-2.31,18.94,6.08,24.41,11.43,0,.07,78.75-.14,76,.07l3.71,1.64c38.54,17.43,48.21,21.78,55.32,20.2,50.23,3,126.49.27,183.95,4.23l-152.8,24.55H-478.24c.71-5.88,12.63-108.49,13.35-115,19.8,13.37,105.29,77.67,120.84,86,24.52-4.56,62.27,18.3,69.89,15.7,31.65-2.68,76.61-.85,85.11-15.74,40.82.29,118-38.34,147-48.75L-55.4,535.24l158,50.14L232.31,602l-55.66,9.09c60.68,11.46,163.2-1,223.13-10.82-72.91,24.4,118.06,1.52,140.35,5.64,53.87-27.26,53-21.07,145.58-43,25.82-4.27,35.59-10.68,62.49-22.05,32.44,19.82,18.95,19.87,17.52,43.12,129.71,35.26,104.2,13.21,220.64-15.53,2.65,6.21,15-34.44,20.35-44.1-8-7.56-42.93-35.15-54.43-52.12Z"/>
            </g>
            <rect class="cls-18" x="-295" y="600.05" width="2194" height="323.21"/>
            <polygon class="cls-19" points="953.62 711.53 1314.54 709.15 1142.2 722.95 1212.63 726.28 1013.55 723.9 1011.51 719.62 1004.4 717.72 1003.39 719.62 1004.74 723.43 979.01 723.43 977.66 720.1 973.26 723.43 922.81 723.35 915.7 710.1 953.62 711.53"/>
            <polygon class="cls-20" points="-26.52 668.53 1910 654.42 1910 670.63 -25.36 701.49 -26.52 668.53"/>
            <polygon class="cls-21" points="366.87 689.6 1323.76 693.73 1299.81 659.94 1538.65 662.32 1543.26 667.08 1561.37 668.51 1571.19 671.84 1705.96 678.98 1460.98 678.98 1454.54 674.22 1447.78 674.22 1441.34 678.98 1399.28 676.6 1377.28 671.53 1351.94 671.72 1337.88 678.5 1318.54 678.5 1324.07 682.78 1416.47 686.11 1327.44 688.49 1335.12 693.73 1478.48 695.63 1280.17 702.29 1265.12 699.91 1241.18 699.91 1229.51 705.15 1144.17 706.1 1097.81 710.38 1220 713.24 992.21 715.62 976.86 720.38 1028.43 720.38 904.41 731.8 1159.21 733.22 1202.19 737.51 937.26 740.36 602.64 734.65 610.31 699.44 366.87 689.6"/>
            <polygon class="cls-22" points="382.06 833.97 1338.96 838.09 1315.01 804.3 1553.85 806.68 1558.45 811.44 1576.57 812.87 1586.39 816.2 1721.16 823.34 1476.18 823.34 1469.73 818.58 1462.98 818.58 1456.53 823.34 1414.48 820.96 1392.48 815.89 1367.13 816.08 1353.08 822.86 1333.74 822.86 1339.26 827.15 1431.67 830.48 1342.64 832.86 1350.31 838.09 1493.68 840 1295.36 846.66 1280.32 844.28 1256.38 844.28 1244.71 849.51 1159.37 850.46 1113.01 854.75 1235.19 857.6 1007.4 859.98 992.05 864.74 1043.63 864.74 919.61 876.16 1174.41 877.59 1217.39 881.87 952.45 884.73 617.83 879.02 625.51 843.8 382.06 833.97"/>
            <polygon class="cls-23" points="-512.12 643.48 1214.64 656.89 -541.34 668.71 -512.12 643.48"/>
            <polygon class="cls-24" points="516.18 838.59 683.78 838.59 612.68 833.83 785.01 833.83 703.08 838.59 745.74 838.59 583.9 850.01 617.08 840.49 516.18 838.59"/>
            <path class="cls-25" d="M1314.66,792l-430.11,8.57,141.19,6.19,201.79,11.89s-51.13-2.85-51.81-13.32S1314.66,792,1314.66,792Z"/>
            <path class="cls-26" d="M473.19,767.74a.23.23,0,0,1,.16-.1Z"/>
            <polygon class="cls-27" points="946.54 761.63 728.29 764.05 828.85 757.87 833.59 753.11 850.85 753.11 834.6 755.96 829.18 760.72 874.55 760.25 875.57 755.01 885.39 753.59 878.96 756.44 878.62 759.77 897.91 759.77 897.58 757.39 900.62 759.77 903.33 755.96 913.15 755.96 915.18 759.77 946.54 761.63"/>
            <g>
              <polygon class="cls-28" points="1128.27 652.37 1168.7 652.19 1165.86 647.61 1128.27 652.37"/>
              <path class="cls-29" d="M1259.3,650l-16.26.39h0l-24.54.6h0l-57,1.39s4.74-14.28,9.15-17.61c3.66-2.77,15.55-3.57,21-2.66a6.41,6.41,0,0,1,2.37.76c2.71,1.9,9.14,16.65,9.14,16.65h16.25v-.15c0-.3.13-1,.3-1.9v-.06c.5-2.7,1.64-7.08,3.73-7.41,3-.47,15.92-1,16.93,0a1.92,1.92,0,0,1,.69,1.88c.25-.47,4.1-7.57,5.41-7.11s12.52,10,12.86,11.9A9,9,0,0,1,1259.3,650Z"/>
              <path class="cls-30" d="M1191.59,650l26.86,1-57,1.39s4.74-14.28,9.15-17.61c3.66-2.77,15.55-3.57,21-2.66,0,0-16.93,1.23-17.95,3.14s-2.37,14.75-2.37,14.75h12.19l2.37-1.91h4.4Z"/>
              <path class="cls-30" d="M1243,650.38l-24.54.6.87-1.47v-.15l.3-1.9v-.06c.5-2.7,1.64-7.08,3.73-7.41,3-.47,15.92-1,16.93,0,0,0-13.54.48-15.23,1.91s-1.36,7.61-1.36,7.61Z"/>
            </g>
            <g>
              <path class="cls-28" d="M410.54,662c1,1.9,194.4-5.71,194.4-5.71h26.4l-52.53-1.43s-128.32-.47-142.87,1S409.53,660.14,410.54,662Z"/>
              <g>
                <path class="cls-31" d="M586.94,657.28l-23.33.7-3.33.1h0l-100.61,3-4.07-3.33L461,651.1l12.19-1.91,1.35,5.71s.34-14.27,2.37-14.27,20.66-4.29,23.36-6.19,8.13-19,10.5-20c2.14-.85,22.43-4.81,28.15-2.44a2.55,2.55,0,0,1,1.31,1c2.37,4.28,11.17,20,11.17,20s11.93-3.19,13.92.07,5,11.83,5,11.83,10.83-1.43,11.17,0c.24,1,2.7,6.45,4.22,9.77h0Z"/>
                <path class="cls-30" d="M531.75,656.81l28.5,1.27-100.61,3-4.07-3.33L461,651.1l12.19-1.91,1.35,5.71s.34-14.27,2.37-14.27,20.66-4.29,23.36-6.19,8.13-19,10.5-20c2.14-.85,22.43-4.81,28.15-2.44,0,0-24.43,2.92-24.76,4.82s-3.33,15.72-3.33,15.72l23.64-1.92,4.4-1.9,3.73,2.38L507.71,634l-3,2.38s-23.7,5.71-24.38,7.14-.68,8.09,0,10S524,658.23,524,656.33s.34-7.14.34-7.14l10.16-2.38,13.88-.47-12.19,1.9-3.72,3.33Z"/>
                <polygon class="cls-30" points="562.56 651.57 563.62 657.98 560.28 658.08 560.19 651.1 567.3 646.81 562.56 651.57"/>
                <path class="cls-32" d="M585.74,654.68h0s-4.56-8.35-5.23-9.31-10.84,0-10.84,0-5.75-11.89-7.11-12.37-27.08,2.38-27.08,2.38L549,633l-8.8-20c2.37,4.28,11.17,20,11.17,20s11.93-3.19,13.92.07,5,11.83,5,11.83,10.83-1.43,11.17,0C581.76,645.89,584.22,651.36,585.74,654.68Z"/>
                <path class="cls-33" d="M539.49,621.21s-11.53,1.75-12,1.1-.26-5.53-.29-6.22,11-2.73,12.05-1.1S539.49,621.21,539.49,621.21Z"/>
                <path class="cls-33" d="M580.45,652.62s-11.52,1.74-12,1.1-.26-5.53-.29-6.22,11-2.74,12-1.1S580.45,652.62,580.45,652.62Z"/>
                <path class="cls-33" d="M528.18,629.47s-7.63,1.16-8,.73-.17-3.66-.19-4.12,7.27-1.81,8-.72S528.18,629.47,528.18,629.47Z"/>
              </g>
              <polygon class="cls-34" points="595.4 656.33 595.4 651.57 598.45 649.19 611.32 649.19 611.99 651.57 611.99 656.33 617.75 656.33 618.43 654.9 620.8 654.9 621.47 656.33 626.55 656.33 627.23 651.57 635.02 642.53 638.74 646.81 637.05 649.67 644.5 649.67 645.85 653.95 647.88 653.95 659.05 653.95 660.41 651.57 663.46 653.95 664.47 656.33 595.4 656.33"/>
              <polygon class="cls-35" points="874.39 614.45 874.39 609.7 871.98 607.32 861.83 607.32 861.29 609.7 861.29 614.45 856.75 614.45 856.22 613.03 854.35 613.03 853.81 614.45 849.8 614.45 849.27 609.7 843.13 600.65 840.18 604.94 841.52 607.79 835.64 607.79 834.57 612.07 832.97 612.07 824.15 612.07 823.08 609.7 820.68 612.07 819.88 614.45 874.39 614.45"/>
            </g>
            <path class="cls-36" d="M136.55,867.09l7.58-11.37,36.4,1.14-33.87,2.27v7.39l33.87-1.14,5.56-6.82h32.85L187.6,861.4l-.5,4.55,34.87-.57-2-4.55,4.55,4.55,71.27.57s-170.34,2.27-170.34,4,53.07,2.84,53.07,2.84-97,1.7-97-1.14S136.55,867.09,136.55,867.09Z"/>
            <path class="cls-36" d="M328.22,771.07l4.09-7.67,19.64.77-18.28,1.53v5l18.28-.77,3-4.6h17.74l-16.92,1.92-.27,3.06,18.82-.38-1.09-3.07,2.46,3.07,38.46.38s-91.94,1.54-91.94,2.69,28.65,1.92,28.65,1.92-52.38,1.15-52.38-.77S328.22,771.07,328.22,771.07Z"/>
            <path class="cls-37" d="M630.1,567.93l-.27.14C629.9,567.87,630,567.83,630.1,567.93Z"/>
          </g>
          <rect class="cls-5" width="1600" height="900"/>
        </g>
        <g>
          <ellipse class="cls-38" cx="816.51" cy="767.06" rx="286.42" ry="26.12"/>
          <g>
            <g>
              <g>
                <path class="cls-39" d="M426.22,235.63C448.86,224.85,472.48,246,483,268.42S503.34,291,503.34,291l-30.82,10.06C443.3,302.54,412.48,247.3,426.22,235.63Z"/>
                <path class="cls-40" d="M426.22,235.63l.25-.11c-4.17,24.8,18.89,55.38,46,65l-.85.2C442.42,302.17,412.48,247.3,426.22,235.63Z"/>
                <path class="cls-41" d="M471.29,263.79c-6.53-12.51-26.79-30.49-44.75-28.3,22.55-10.43,46,10.65,56.44,32.93s20.37,22.05,20.37,22.05S486.83,293.6,471.29,263.79Z"/>
                <path class="cls-42" d="M503.35,290.47c-.09,0-9.68-.58-19.86-22.29-7.63-16.27-20.54-29.31-33.68-34a30.07,30.07,0,0,0-23.83,1l-.12.08c-4.72,4-4.79,13-.17,24.66,6.33,16,19.81,32.6,34,39.07,7.31,3.33,12.79,1.6,12.79,1.6-17.87.88-37.66-20.64-45.76-41.08-4.3-10.89-4.41-19.55-.29-23.26l.09-.08a29,29,0,0,1,22.9-.89c12.87,4.61,25.53,17.43,33,33.44,4.07,8.68,8,14.07,11.42,17.42C499.24,291.41,503.35,290.47,503.35,290.47Z"/>
              </g>
              <g>
                <path class="cls-43" d="M473.83,291.32s-11.14-46.06-35-47.85C438.68,251.71,450.07,287.94,473.83,291.32Z"/>
                <path class="cls-44" d="M463,277.92c3.26-9.48-10.53-25.39-14.66-31.2,17.34,10.81,25.53,44.6,25.53,44.6-8.7-1.24-15.73-6.88-21.15-13.94C457.54,280.52,462,280.92,463,277.92Z"/>
                <path class="cls-42" d="M473.75,291.88c-24.23-3.45-35.64-40.16-35.47-48.42v-.59l.6,0c24,1.8,35,46.38,35.49,48.28l.19.8Zm-.68-1.25c-1.64-6.13-12.64-44.25-33.66-46.54C439.76,253.09,450.61,286.65,473.07,290.63Z"/>
              </g>
              <path class="cls-42" d="M488.69,298.48a11.77,11.77,0,0,1-8.48-1.09c-3.41-1.93-5.84-5.67-7.22-11.13l-1.09.28c1.46,5.78,4.08,9.76,7.77,11.84l.25.14A9.62,9.62,0,0,0,488.69,298.48Z"/>
            </g>
            <g>
              <g>
                <path class="cls-39" d="M980.81,383.77S1043,418.39,1026.07,504s31.55,102,18,139.7-2.25,86.19-15.77,98.59c9,8.45,15.77,33.24-18,33.24s-53-3.38-51.83-12.4,32.11-18.59,32.11-18.59c-3.94-5.07-2.25-15.77,6.2-20.28s26.33-53.51,18.43-86.2C1002.59,585.84,950,542.54,947.75,504,946.7,485.89,980.81,383.77,980.81,383.77Z"/>
                <path class="cls-41" d="M1019.3,741.57c4.23-4.74,8.88-12.11,9.3-24.64-3.38-45.92,7.61-65.08,9.3-88-3.38-26.52-30.05-49.37-35.31-98.18-10.33-57.17-32.86-63.65-49.61-55.12,9.32-36.42,27.83-91.82,27.83-91.82S1043,418.39,1026.07,504s31.55,102,18,139.7-2.25,86.19-15.77,98.59c8,7.55,14.28,28.11-8.56,32.43C1042.4,758.12,1018,743.9,1019.3,741.57Z"/>
                <path class="cls-45" d="M948.32,504c1.13,19.35,15.29,40.27,30.28,62.42,15.19,22.44,30.9,45.65,37.15,71.54,7.9,32.68-9.91,82.13-18.72,86.83a15,15,0,0,0-7.6,10.15c-.76,3.56-.16,7,1.59,9.29l.5.64-.78.24c-.31.1-30.65,9.57-31.72,18.13a4.84,4.84,0,0,0,1.28,4c4.61,5.23,21,7.77,50,7.77,12.84,0,21.08-3.66,23.82-10.58,2.83-7.17-1-16.84-6.18-21.69l-.44-.42.45-.41c6.69-6.13,7.17-21.93,7.73-40.23.56-18.5,1.21-39.46,7.89-58.13,5.69-15.87.27-27.92-6.59-43.17-9.44-21-21.19-47.13-11.46-96.44,8.69-44-4-74.18-16.17-91.74a100,100,0,0,0-28.22-27.54C978.19,393.44,947.32,486.93,948.32,504Z"/>
              </g>
              <g>
                <path class="cls-46" d="M978.73,758.51c-1.75-5.25-5.57-9.39-13.69-4.46s-12.94,9.72-12.26,12.74c.85,3.78,15.08,8.91,23.56,5.09C982.39,769.16,978.73,758.51,978.73,758.51Z"/>
                <path class="cls-47" d="M952.76,765.76c.42-3,5-7.3,12.28-11.71,6.67-4,11.72-1.66,13.51,3.86-2.75-4-7.17-5.14-11.24-3.14C962.25,757.25,956.38,761.06,952.76,765.76Z"/>
                <path class="cls-48" d="M969.89,769c5.35-.67,9.28-5.54,8.88-10.37.41,1.25,3.22,10.69-2.43,13.23-8.48,3.82-22.71-1.31-23.56-5.09a3,3,0,0,1,0-1.27A26.64,26.64,0,0,0,969.89,769Z"/>
                <path class="cls-49" d="M956.6,770.79c-2.48-1.23-4-2.62-4.29-3.9-.7-3.16,3.84-8,12.48-13.24,3.54-2.16,6.6-2.79,9.08-1.88s4.14,3.08,5.31,6.59c.17.48,3.72,11.09-2.64,14a18,18,0,0,1-7.36,1.4A29.42,29.42,0,0,1,956.6,770.79Zm8.69-16.33c-8,4.88-12.64,9.56-12,12.23.21,1,1.62,2.17,3.77,3.25,5.17,2.58,13.62,4,19.12,1.51s2.17-12.68,2.14-12.78h0c-1.08-3.22-2.67-5.23-4.74-6a5.89,5.89,0,0,0-2-.35A12.46,12.46,0,0,0,965.29,754.46Z"/>
              </g>
              <g>
                <path class="cls-46" d="M985.32,760.43c-1.92-5.75-6.1-10.28-15-4.88s-14.15,10.63-13.41,13.94c.93,4.14,16.51,9.75,25.78,5.57C989.32,772.08,985.32,760.43,985.32,760.43Z"/>
                <path class="cls-47" d="M956.9,768.36c.46-3.3,5.5-8,13.43-12.81,7.3-4.43,12.83-1.82,14.79,4.23-3-4.36-7.85-5.63-12.3-3.44C967.28,759.05,960.86,763.22,956.9,768.36Z"/>
                <path class="cls-50" d="M961.1,773.87c-2.71-1.35-4.38-2.87-4.69-4.27-.78-3.46,4.2-8.75,13.65-14.5,3.88-2.35,7.22-3,9.93-2.05s4.54,3.37,5.82,7.21c.18.53,4.07,12.14-2.89,15.28a19.72,19.72,0,0,1-8,1.53A32.23,32.23,0,0,1,961.1,773.87Z"/>
              </g>
            </g>
            <g>
              <g>
                <path class="cls-39" d="M673.31,483.12s26.55,65.63,17.26,111.55c-5.84,7.61-7.25,30.42,1.44,40.28-3.42,10.14-8.63,56.34-18.7,66.76S652,716.93,652.82,728.19c-3.66,2.82-31,18.6-23.66,29s30.14,11.27,49.86,9.58,33.31-18.6,13-30.43c6.72-2.25,13.69-9.86,8.94-22.53s11.31-72.68,11.31-72.68c8.17-2,13.8-26.2,8.73-36.88,1.41-9,.28-49.6,20.56-72.42C738.45,500.58,706,455,706,455Z"/>
                <path class="cls-41" d="M693.2,756.14c7.59-10.07-7.05-18.65-7.16-20.54,0-2.9,16.26-7.31,8.7-23.09,2.3-25.72,4.52-44.6,12.69-72.35,6.52-3.94,12.85-24.36,8.75-34.91-.27-13.41,1.21-24.68,1.06-40.07-1.12-10.14-5-16.14-11.74-24-6.33-7-14-12.31-19.92-18.84a317.93,317.93,0,0,0-12.27-39.19L706,455s32.42,45.63,35.52,76.9c-20.28,22.82-19.15,63.4-20.56,72.42,5.07,10.68-.56,34.91-8.73,36.88,0,0-16.06,60-11.31,72.68s-2.22,20.28-8.94,22.53c19.25,11.21,8.07,26.95-9.92,30C686,763.14,690.94,760.65,693.2,756.14Z"/>
                <path class="cls-45" d="M705.92,455.78,674,483.28c2.14,5.44,26,67.75,17.14,111.5l0,.13-.08.1c-5.72,7.46-7.17,29.83,1.43,39.57l.21.24-.1.31c-1,3-2.24,9.48-3.65,17-3.39,18-8,42.62-15.18,50A116.21,116.21,0,0,1,665.1,710c-6.87,5.82-12.3,10.42-11.72,18.2l0,.31-.24.18c-.51.4-1.43,1-2.69,1.85-6.1,4-20.36,13.55-21.86,21.54a6.08,6.08,0,0,0,1,4.86c7.82,11.13,34.27,10.63,49.35,9.34,11.28-1,20.66-7,22.3-14.27,1.22-5.45-2.17-10.82-9.54-15.11l-1.08-.62,1.18-.4a14.88,14.88,0,0,0,8.71-7.6c1.91-4,1.86-8.91-.12-14.2-4.76-12.7,10.63-70.57,11.29-73l.09-.33.32-.08c2.16-.52,4.36-2.91,6.19-6.75,3.9-8.16,5.7-21.9,2.17-29.34l-.08-.16,0-.17c.24-1.52.41-4,.62-7.11,1-15.05,3.13-46.33,19.92-65.41C738,502.67,709.45,460.86,705.92,455.78Z"/>
              </g>
              <g>
                <path class="cls-46" d="M643.64,747.8c-2.32-5.42-6.74-9.48-14.92-3.53s-12.86,11.43-11.88,14.58c1.23,3.94,16.78,8.13,25.44,3.34C648.45,758.77,643.64,747.8,643.64,747.8Z"/>
                <path class="cls-47" d="M616.73,757.76c.18-3.24,4.69-8.18,12-13.49,6.72-4.88,12.29-2.8,14.67,2.91-3.26-4-8-4.82-12.2-2.35C626,747.91,620.16,752.46,616.73,757.76Z"/>
                <path class="cls-48" d="M635.19,759.71c5.61-1.17,9.35-6.68,8.51-11.77.53,1.29,4.34,11-1.42,14.25-8.66,4.79-24.21.6-25.44-3.34a3.13,3.13,0,0,1-.09-1.34A28.26,28.26,0,0,0,635.19,759.71Z"/>
                <path class="cls-50" d="M621.24,762.76c-2.73-1.09-4.47-2.43-4.88-3.75-1-3.3,3.37-8.82,12.07-15.15,3.56-2.6,6.75-3.53,9.46-2.79s4.66,2.91,6.21,6.52c.22.5,4.92,11.44-1.58,15a19.08,19.08,0,0,1-7.68,2.13A31.34,31.34,0,0,1,621.24,762.76Z"/>
              </g>
              <g>
                <path class="cls-46" d="M652.11,752.57c-2-5.89-6.26-10.54-15.37-5s-14.52,10.9-13.76,14.3c.95,4.24,16.93,10,26.45,5.71C656.21,764.52,652.11,752.57,652.11,752.57Z"/>
                <path class="cls-49" d="M627.26,766.36c-2.78-1.39-4.48-2.94-4.8-4.38-.8-3.55,4.31-9,14-14.87,4-2.41,7.4-3.12,10.19-2.1s4.65,3.46,6,7.39c.19.54,4.18,12.45-3,15.67a20.21,20.21,0,0,1-8.26,1.57A33.09,33.09,0,0,1,627.26,766.36ZM637,748c-9,5.47-14.19,10.73-13.52,13.72.25,1.08,1.83,2.44,4.24,3.65,5.8,2.9,15.29,4.48,21.47,1.69s2.43-14.23,2.39-14.34h0c-1.21-3.61-3-5.87-5.32-6.73a6.76,6.76,0,0,0-2.27-.38A13.92,13.92,0,0,0,637,748Z"/>
              </g>
            </g>
            <g>
              <g>
                <path class="cls-39" d="M975.36,378.61s42.89,21.44,63.31,48.17c19.79,25.92,21.48,47,18.19,70.3-4.33,30.64,5.83,45.48,5.83,45.48-7.33,0-17.1-14.35-16.18-32.4,1.34-26.29-.16-74.65-38.47-87C998.18,411.29,975.36,378.61,975.36,378.61Z"/>
                <path class="cls-42" d="M1055.06,539c-4.64-4.88-9.8-15.37-9.11-28.9,2.47-48.41-10.35-77.5-38.09-86.48l-.15,0-.11-.12c-9.76-11.72-32.47-44.22-32.7-44.55l-1.27-1.82,2,1c.43.21,43.24,21.8,63.5,48.33,19.83,25.95,21.66,47,18.31,70.72-4.25,30,5.63,44.93,5.73,45.08l.6.88h-1.06C1060.27,543.12,1057.57,541.67,1055.06,539Zm-46.69-116.4c28.17,9.21,41.2,38.67,38.7,87.56-.67,13.17,4.32,23.35,8.8,28.06a11.53,11.53,0,0,0,5.77,3.64c-2.12-3.82-9-18.74-5.34-44.89,3.31-23.4,1.5-44.24-18.08-69.88-17.58-23-52.32-42.31-61.08-46.95C982.13,387.27,1000,412.51,1008.37,422.63Z"/>
              </g>
              <path class="cls-51" d="M1085.83,658.49c3.78-8.82,1.71-10.83-6-18.3-3.27-3.18-7.74-7.53-13.09-13.79-9.62-11.25-7.3-21.53-5-31.47,2-8.84,3.89-17.19-1.77-26.45-10.27-16.81-14.12-36.21-10.69-42.32a3.7,3.7,0,0,1,3.29-2.1c9.73,0,30.48,12.28,42.56,34.47,5.91,10.88,1.33,20.88-2.72,29.71-4.22,9.21-7.87,17.16-.74,25,14.94,16.47,5.24,36.45-4.92,45.86l-1.94,1.8Z"/>
            </g>
            <g>
              <g>
                <g>
                  <path class="cls-45" d="M333.66,364s-11.55-36.9,25.35-51,67.61-5.07,67.61-5.07c2.25-6.76,25.91-46.48,83.38-21.12,16.9-3.1,47.51,5.72,45.63,63.19S535,458.52,598.08,447.63,662.3,334.57,739.3,342.08c18-19.53,77.93-89.82,133.71-54.46,44.88,28.45,69.11,66.48,69.11,66.48,18.4.38,60.1,22.54,70.24,63.85S1004.62,482.8,973.67,537c-23.1,40.47,7.89,74.55-5.63,118.68-14.48,47.26-25.36,54.75-22.26,73.62s-5.07,21.13-5.07,21.13c5.64,5.07,16.34,31.27-25.91,32.11s-58.88-10.14-58.88-16.34,23.1-29,44-29.57c1.69-7.33,8.16-18,19.43-25.64s20.94-85,14.18-103.76-25.73-57.53-28.54-77.31c-52.59,36.75-156.63,38.81-190.43,4.73-3.66,3.94-30.58-4.79-40.93-21.13-17.94,8.17-88.65,35.5-138.79,6.76s-50.9-83.94-50.9-83.94,1.77-23.17-13.89-29.67c-14.37-6-47.94-26.84-59.35-10.15-9.1,13.34-4.88,27.7-19.53,37.94-16,11.15-37.56-15.4-34.55-31.55-10.1,1.31-22.73-4.32-27.42-11.64C326.11,386.54,324.48,373.79,333.66,364Z"/>
                  <g>
                    <path class="cls-41" d="M933.11,749.6c1.12-1.12,4.08-4.93,4.32-8.26-2.66-21.37,4.72-39,22.72-87.51,8.68-23.39-1.13-47.33-6.76-72.12-9-43.94,27-76.62,41.69-114.93,15.66-38.64-2.56-84-35.8-108.41,20,8.28,45.45,28.52,53.08,59.58,10.14,41.32-7.74,64.85-38.69,119.07-23.1,40.47,7.89,74.55-5.63,118.68-14.48,47.26-25.36,54.75-22.26,73.62s-5.07,21.13-5.07,21.13c5,4.49,13.94,25.53-13.38,30.89a31.7,31.7,0,0,0,10.78-9.41C947.87,756.65,930.71,754.7,933.11,749.6Z"/>
                    <path class="cls-41" d="M380.42,430.3c19-4.38,18-29.15,26.48-41.27,5.63-8.3,24.79,0,28.17-8.3a13.54,13.54,0,0,1-1.13-5.81c9,14.49,40.79,27.27,63.32,19.39,21.41-6.76,33-23.31,35.57-53.81,14.35,43.09-35.57,70.22-25.65,102.62,21,65,76.52,70.61,121.3,63.33,13.52-2.26,30-5.44,40.09-18.68.87,4.08,4.8,8.68,9.32,8.49,6,.19,7.7-12.58,11.25-17.69,2.25,7.89,11.13,21.54,31.57,22.77,18.78,1.12,43.06-7.55,45.1-23.66,1.34,3,4.76,11.45,10.67,11.64,5.26-.47,6.58-4.6,7.71-7.78,2.9,12,18.35,21.65,37.51,26.16,37.18,6.76,57.46-5.26,68.59-24.58,8.89-15.43,20.22-54.17,35.81-75.81-19.55,38.33-27.08,88.2-21.16,122.63-53.14,35.52-157,38.42-190.43,4.73-3.66,3.94-30.58-4.79-40.93-21.13-17.94,8.17-88.65,35.5-138.79,6.76s-50.9-83.94-50.9-83.94,1.77-23.17-13.89-29.67c-14.37-6-47.94-26.84-59.35-10.15-9.1,13.34-4.88,27.7-19.53,37.94-14.85,10.38-34.56-11.87-34.82-28C358.78,415.49,369.17,431.24,380.42,430.3Z"/>
                  </g>
                </g>
                <g>
                  <path class="cls-46" d="M877.39,758.06c-2.31-5.53-6.77-9.7-15.15-3.72S849,765.86,850,769.08c1.22,4,17,8.43,25.86,3.62C882.19,769.27,877.39,758.06,877.39,758.06Z"/>
                  <path class="cls-47" d="M849.91,768c.21-3.3,4.84-8.29,12.33-13.63,6.88-4.91,12.53-2.74,14.91,3.09-3.29-4.08-8.16-5-12.4-2.5C859.48,758,853.44,762.6,849.91,768Z"/>
                  <path class="cls-48" d="M868.68,770.12c5.72-1.15,9.58-6.72,8.77-11.91.53,1.32,4.32,11.29-1.58,14.49-8.85,4.81-24.64.4-25.86-3.62a3.15,3.15,0,0,1-.08-1.38A28.8,28.8,0,0,0,868.68,770.12Z"/>
                  <path class="cls-49" d="M854.45,773.1c-2.77-1.14-4.52-2.52-4.94-3.87-1-3.37,3.51-9,12.43-15.31,3.65-2.61,6.9-3.54,9.65-2.75s4.73,3,6.27,6.69c.22.51,4.91,11.69-1.74,15.3a19.7,19.7,0,0,1-7.84,2.09A31.9,31.9,0,0,1,854.45,773.1Zm8.09-18.34c-8.28,5.91-12.89,11.34-12,14.17.31,1,1.93,2.22,4.34,3.21,5.78,2.38,15,3.23,20.78.11s1.33-13.88,1.28-14h0c-1.42-3.39-3.3-5.44-5.6-6.1a6.21,6.21,0,0,0-2.21-.21A13.38,13.38,0,0,0,862.54,754.76Z"/>
                </g>
                <path class="cls-42" d="M678.83,520.76l.79-.8c-15.43-15.31-11.09-32-11-32.19a22.65,22.65,0,0,0-.86,13.49A39.3,39.3,0,0,0,678.83,520.76Z"/>
                <path class="cls-42" d="M910.23,551.15l1.06-.4c-23.94-62.85,14.42-142.64,14.81-143.44a160,160,0,0,0-12.78,30.57C904.23,467.21,895.46,512.36,910.23,551.15Z"/>
                <path class="cls-42" d="M339.84,348.85c0-.15,3.25-16,19.6-20.4,9.68-2.58,13.88,1.09,15.53,3.52a10.08,10.08,0,0,1-.08,11.37,6.6,6.6,0,0,0,2.92-5.68,11.31,11.31,0,0,0-1.91-6.33c-3.09-4.54-9.19-6-16.75-4a27.71,27.71,0,0,0-17.22,13.33A15.06,15.06,0,0,0,339.84,348.85Z"/>
                <g>
                  <path class="cls-52" d="M351.12,351.57s13.24-17.47,18.59-8.74S353.38,351.28,351.12,351.57Z"/>
                  <path class="cls-53" d="M353.19,349.4c3.93-4.47,12.48-12.84,16.52-6.24.11.18.19.34.27.5C371.54,348.35,358.5,349.14,353.19,349.4Z"/>
                  <path class="cls-42" d="M350.67,351.23c.36-.48,8.72-11.4,15.06-11.4H366a5.1,5.1,0,0,1,4.2,2.71c1,1.69,1.21,3.22.52,4.53-2.26,4.25-13.23,4.75-17.92,5-.77,0-1.33.06-1.6.1l-1.32.16Zm1.69-.31h.38c4.11-.19,15-.69,17-4.37.5-1,.35-2.07-.48-3.41a4,4,0,0,0-3.29-2.17h-.22C361,341,354.57,348.23,352.36,350.92Z"/>
                </g>
                <path class="cls-42" d="M339.7,358.44c.06-.07,6.2-6.32,17.36-6.66l0-1.13a29.77,29.77,0,0,0-11.25,2.5A12.86,12.86,0,0,0,339.7,358.44Z"/>
                <path class="cls-42" d="M481.85,408c17.46,0,32.18-10,41-21.14,7.69-9.7,10.6-20.62,11.52-29.45a42,42,0,0,0-1.52-16.9c0,.26,5,25.64-10.88,45.65-12,15.18-35.38,28.35-61.51,15.51l-.5,1A49.24,49.24,0,0,0,481.85,408Z"/>
                <path class="cls-42" d="M453.75,399.68l.4-1.06c-19.18-7.29-20.2-23.54-20.21-23.7a17.53,17.53,0,0,0,2.48,10.71C439.31,390.59,444.48,396.15,453.75,399.68Z"/>
                <path class="cls-42" d="M353.54,403.67c21,0,38.9-23.74,47.23-36.89a32.38,32.38,0,0,0,3.94-9c-.25.47-24.93,47.43-53.74,44.63l-.11,1.12C351.75,403.62,352.65,403.67,353.54,403.67Z"/>
                <g>
                  <path class="cls-46" d="M884.12,763.13c-2.06-6.2-6.57-11.08-16.15-5.26s-15.25,11.46-14.46,15c1,4.46,17.8,10.51,27.8,6C888.44,775.69,884.12,763.13,884.12,763.13Z"/>
                  <path class="cls-47" d="M853.49,771.68c.5-3.56,5.93-8.61,14.48-13.81,7.87-4.78,13.83-2,15.94,4.56-3.24-4.7-8.46-6.07-13.26-3.71C864.68,761.65,857.76,766.14,853.49,771.68Z"/>
                  <path class="cls-48" d="M873.7,775.53c6.3-.79,10.95-6.54,10.48-12.23.47,1.47,3.79,12.61-2.87,15.61-10,4.5-26.8-1.55-27.8-6a3.62,3.62,0,0,1,0-1.5A31.44,31.44,0,0,0,873.7,775.53Z"/>
                  <path class="cls-50" d="M858,777.62c-2.93-1.46-4.72-3.09-5.06-4.6-.83-3.74,4.53-9.44,14.72-15.63,4.18-2.54,7.78-3.28,10.71-2.21s4.89,3.63,6.27,7.77c.19.57,4.39,13.09-3.12,16.47a21.33,21.33,0,0,1-8.68,1.65A34.71,34.71,0,0,1,858,777.62Z"/>
                </g>
              </g>
              <path class="cls-42" d="M727.44,366.69c.06-.19,6.79-18.84,18.72-31.26l-.82-.78a81.56,81.56,0,0,0-11.59,16A60.85,60.85,0,0,0,727.44,366.69Z"/>
            </g>
            <g>
              <g>
                <path class="cls-45" d="M782.15,481.43a60.34,60.34,0,0,1-6,36.81c-9.77,18.78-17.65,61.22-13.9,76.62,4.78,5.44,8.06,35.87-1,43.57,4,17.65,2.46,57.84,8.09,72.49s4.13,34.93-4.51,42.06c4.51,4.89,19.16,28-20.66,27.16s-55.21-9.5-54.83-17.77,30.8-24,36.43-25.54c-1.88-4.5,8.64-15.4,14.27-19.53s0-75.12,0-75.12c-8.73-1.31-14.65-39.62-8.64-46.95-2.62-5.25-4.57-47.32-22-63.47S682.24,492.7,686,478.42"/>
                <path class="cls-41" d="M756.64,750.73c6-2.79,11-21.13,3.38-45.07-2.65-19.23-5.51-57.2-5.63-68,5.72-14.56,6.38-34.75.19-41.13-3-9.2-2.66-28-.57-38,13.1-41.85,4.61-80.43,6.61-80.9,1.76,2.66,5.49,14.35,10.39,14.59s8-7.39,8-10.73c.6,1.09,4.31,17.92-5.46,36.7s-17.65,61.22-13.89,76.62c4.78,5.44,8.05,35.87-1,43.57,4,17.65,2.46,57.84,8.09,72.49s4.13,34.93-4.5,42.06c4.28,4.65,17.75,25.81-15.23,27.12C763,774.8,764,763.58,756.64,750.73Z"/>
              </g>
              <g>
                <path class="cls-46" d="M710.16,756.38c-2.47-5.78-7.18-10.1-15.89-3.76s-13.71,12.18-12.67,15.54c1.31,4.19,17.88,8.66,27.11,3.55C715.29,768.06,710.16,756.38,710.16,756.38Z"/>
                <path class="cls-48" d="M701.15,769.08c6-1.26,10-7.13,9.07-12.55.57,1.37,4.63,11.78-1.51,15.18-9.23,5.11-25.8.64-27.11-3.55a3.59,3.59,0,0,1-.1-1.44A30.2,30.2,0,0,0,701.15,769.08Z"/>
                <path class="cls-49" d="M686.29,772.33c-2.91-1.17-4.76-2.59-5.2-4-1.1-3.52,3.59-9.4,12.86-16.14,3.8-2.76,7.19-3.77,10.08-3s5,3.1,6.62,6.95c.23.53,5.24,12.19-1.68,16a20.43,20.43,0,0,1-8.18,2.26A33.52,33.52,0,0,1,686.29,772.33Zm8.3-19.27C686,759.32,681.2,765,682.12,768c.33,1.06,2,2.31,4.57,3.32,6.08,2.43,15.77,3.24,21.76-.08s1.26-14.53,1.21-14.65h0c-1.52-3.54-3.51-5.67-5.92-6.33a6.58,6.58,0,0,0-2.32-.21A14.09,14.09,0,0,0,694.59,753.06Z"/>
              </g>
              <path class="cls-42" d="M767.58,544.46c4.53-17.54,3.6-34.59,1.6-47.13a69.44,69.44,0,0,0-6-19.65c.12.33,12,32.5,3.27,66.5Z"/>
              <g>
                <path class="cls-46" d="M716.08,761.09c-2.07-6.2-6.57-11.08-16.15-5.26s-15.26,11.46-14.46,15c1,4.46,17.79,10.51,27.79,6C720.4,773.65,716.08,761.09,716.08,761.09Z"/>
                <path class="cls-47" d="M685.45,769.64c.49-3.56,5.92-8.61,14.48-13.81,7.86-4.78,13.82-2,15.94,4.56-3.25-4.7-8.46-6.07-13.27-3.71C696.63,759.61,689.72,764.1,685.45,769.64Z"/>
                <path class="cls-48" d="M705.66,773.48c6.3-.78,10.94-6.53,10.47-12.22.48,1.47,3.79,12.6-2.87,15.61-10,4.5-26.79-1.55-27.79-6a3.46,3.46,0,0,1,0-1.5A31.36,31.36,0,0,0,705.66,773.48Z"/>
                <path class="cls-50" d="M690,775.58c-2.92-1.46-4.72-3.09-5.05-4.6-.84-3.74,4.53-9.44,14.72-15.63,4.17-2.54,7.78-3.29,10.7-2.21s4.89,3.63,6.27,7.77c.2.57,4.39,13.09-3.12,16.47a21.28,21.28,0,0,1-8.67,1.65A34.9,34.9,0,0,1,690,775.58Z"/>
              </g>
            </g>
            <g>
              <g>
                <path class="cls-39" d="M513.94,218.51c24,7.14,27.42,38.69,20.25,62.35s0,30.42,0,30.42l-29.64-13.14C481.87,279.67,495.91,218,513.94,218.51Z"/>
                <path class="cls-40" d="M513.94,218.51l.25.09c-19.69,15.64-23,53.8-9.28,79.1l-.77-.42C481.46,278.81,495.91,218,513.94,218.51Z"/>
                <path class="cls-41" d="M528.59,269.59c3.52-13.66.5-40.58-14.32-51,23.73,7.33,27.06,38.69,19.92,62.24s.38,30,.38,30S520.2,302.14,528.59,269.59Z"/>
                <path class="cls-42" d="M534.57,310.88c-.06-.07-6.8-6.92.15-29.86,5.22-17.2,4.35-35.53-2.27-47.82A30.06,30.06,0,0,0,514.1,218l-.14,0c-6.19-.17-12.26,6.46-16.63,18.21-6,16.14-7.09,37.48-.86,51.8,3.2,7.36,8.44,9.74,8.44,9.74-13.88-11.3-14.19-40.54-6.52-61.15,4.08-11,9.8-17.48,15.33-17.48h.13a29,29,0,0,1,17.61,14.67c6.48,12,7.32,30,2.19,47-2.78,9.16-3.44,15.83-3.18,20.58C530.89,308.82,534.57,310.88,534.57,310.88Z"/>
              </g>
              <g>
                <path class="cls-43" d="M512.06,291.75s22.54-41.69,6-59C512.44,238.79,496.66,273.35,512.06,291.75Z"/>
                <path class="cls-44" d="M513,274.52c8.76-4.86,9.15-25.91,10-33,5.66,19.63-10.87,50.22-10.87,50.22-5.63-6.73-7.08-15.63-6.39-24.51C507.18,272.83,510.26,276.14,513,274.52Z"/>
                <path class="cls-42" d="M511.63,292.11c-15.7-18.77.38-53.68,6-59.71l.41-.43.41.43c16.62,17.37-5,57.9-5.92,59.62l-.4.73Zm.33-1.38c2.88-5.65,20.22-41.34,6.12-57.1C512.32,240.55,497.93,272.75,512,290.73Z"/>
              </g>
              <path class="cls-42" d="M518.31,307a11.82,11.82,0,0,1-5.56-6.49c-1.25-3.71-.55-8.12,2.07-13.09l-1-.53c-2.78,5.27-3.5,10-2.15,14l.1.27A9.6,9.6,0,0,0,518.31,307Z"/>
            </g>
            <g>
              <g>
                <path class="cls-54" d="M401.13,365.08c-1.1,8.89-4.73,31.25-15.08,50.81-9.9,18.72-23.59-1.06-20.46-15.4C381.61,393.69,394.79,375.28,401.13,365.08Z"/>
                <path class="cls-55" d="M376.61,424.08l-.55,0v-.55c.17-6.5,1.29-22.46,8.05-30.26,4.2-4.85,8.58-7.55,13-8l.54,0,.11.64,0,.11a134.77,134.77,0,0,1-11.21,30.16c-3.44,6.5-7.08,7.94-9.63,7.94Z"/>
                <path class="cls-42" d="M374.44,423.64c-6.64-2.43-11.39-14.17-9.4-23.27l.06-.29.27-.11c15.83-6.72,28.9-24.93,35.28-35.19l1.35-2.17-.31,2.54c-1.09,8.78-4.73,31.32-15.14,51-3.38,6.39-7,7.94-9.63,7.94A7.13,7.13,0,0,1,374.44,423.64Zm-8.36-22.75c-1.73,8.58,2.63,19.46,8.74,21.7,3.81,1.39,7.62-1.08,10.73-7,9.45-17.84,13.28-38.08,14.68-48.08C393.43,378.08,381,394.42,366.08,400.89Z"/>
              </g>
              <g>
                <path d="M458.42,292.12s.42-9.06,7.45-10.68c20.55-4.75,29.42,17.09,29.42,17.09C485.25,291.25,469.94,281.64,458.42,292.12Z"/>
                <g>
                  <path class="cls-41" d="M474.94,300.38c-8.48.55-16.8,10.93-16.25,23.64s9.71,20.3,18.19,19.75,17.17-7,16.63-19.75S483.42,299.84,474.94,300.38Z"/>
                  <path class="cls-42" d="M466.67,303.73s10.35-7.11,18.85,1.61C480.06,297,471.28,297.67,466.67,303.73Z"/>
                  <path d="M474.62,304.26c-8,.42-16.52,11.1-15.94,22s10.08,17.92,18.05,17.5,16.37-8.84,15.78-19.75S482.59,303.84,474.62,304.26Z"/>
                  <g>
                    <path class="cls-56" d="M474.7,305.8c-7.65.4-14.85,10-15.39,20.5-.72,14.2,6.88,23.66,19.36,21.67,7.57-1.2,13.62-9.76,13.62-20.26C492.29,313.75,482.36,305.39,474.7,305.8Z"/>
                    <path d="M464.93,345c-4.45-4-6.66-10.65-6.25-18.75.55-10.82,8-20.68,16-21.11h0c3.7-.19,7.75,1.51,11.09,4.68,4.62,4.38,7.16,10.73,7.16,17.87,0,10.62-6.08,19.6-14.15,20.89a21.31,21.31,0,0,1-3.32.27A15.37,15.37,0,0,1,464.93,345Zm9.81-38.59c-7.36.39-14.28,9.69-14.8,19.91-.39,7.71,1.68,14,5.83,17.73,3.29,3,7.72,4.09,12.8,3.28,7.46-1.19,13.08-9.64,13.08-19.64,0-6.79-2.4-12.81-6.76-16.95a14.48,14.48,0,0,0-9.64-4.34Z"/>
                  </g>
                  <g>
                    <path class="cls-57" d="M477.51,316.63c-4.82.29-8.48,5.58-8.16,11.82s4.49,11.08,9.32,10.8,8.48-5.58,8.16-11.82S482.34,316.35,477.51,316.63Z"/>
                    <path class="cls-56" d="M480,315.22a3.08,3.08,0,0,0-2.51,3.48,2.93,2.93,0,0,0,3.34,2.54,3.08,3.08,0,0,0,2.51-3.48A2.93,2.93,0,0,0,480,315.22Z"/>
                  </g>
                </g>
              </g>
            </g>
          </g>
        </g>
      </g>
    </g>
  </g>
</svg>
