<svg id="Layer_1" data-name="Layer 1" xmlns="http://www.w3.org/2000/svg" xmlns:xlink="http://www.w3.org/1999/xlink" width="1600" height="900" viewBox="0 0 1600 900">
  <defs>
    <style>
      .cls-1, .cls-26 {
        fill: none;
      }

      .cls-2 {
        clip-path: url(#clip-path);
      }

      .cls-3 {
        fill: #7c6c57;
      }

      .cls-4 {
        fill: #969189;
      }

      .cls-5 {
        opacity: 0.3;
      }

      .cls-6 {
        fill: #212930;
      }

      .cls-7 {
        fill: #995c33;
      }

      .cls-11, .cls-17, .cls-18, .cls-7 {
        stroke: #682c12;
      }

      .cls-11, .cls-15, .cls-16, .cls-17, .cls-18, .cls-23, .cls-25, .cls-26, .cls-27, .cls-28, .cls-29, .cls-7 {
        stroke-miterlimit: 10;
      }

      .cls-12, .cls-8 {
        fill: #c9874b;
      }

      .cls-9 {
        fill: #bf7a47;
      }

      .cls-10 {
        fill: #d1913d;
      }

      .cls-11 {
        fill: #874f26;
      }

      .cls-12 {
        opacity: 0.46;
      }

      .cls-13 {
        fill: #c6904f;
      }

      .cls-14 {
        fill: #a36236;
      }

      .cls-15 {
        fill: #6d4332;
        stroke: #6b5807;
      }

      .cls-16 {
        fill: #845241;
        stroke: #301309;
      }

      .cls-17, .cls-32 {
        fill: #d3a83c;
      }

      .cls-18 {
        fill: #e0b963;
      }

      .cls-19 {
        fill: #8e6626;
      }

      .cls-20 {
        opacity: 0.15;
      }

      .cls-21 {
        fill: #682c12;
      }

      .cls-22 {
        opacity: 0.2;
      }

      .cls-23, .cls-30 {
        fill: #4f747c;
      }

      .cls-23 {
        stroke: #1f393d;
      }

      .cls-24 {
        fill: #aafc75;
      }

      .cls-25 {
        fill: #e2e2e2;
        stroke: #4f4f4e;
        stroke-width: 0.5px;
      }

      .cls-26 {
        stroke: #fff;
      }

      .cls-27 {
        fill: #8bea4e;
        stroke: #228706;
        stroke-width: 2px;
      }

      .cls-28 {
        fill: #ffcc9c;
        stroke: #b77742;
      }

      .cls-29 {
        fill: #849ea5;
        stroke: #3f4e4f;
      }

      .cls-31 {
        fill: #1f393d;
      }
    </style>
    <clipPath id="clip-path">
      <rect class="cls-1" width="1600" height="900"/>
    </clipPath>
  </defs>
  <g class="cls-2">
    <g>
      <rect class="cls-3" x="-280" y="584.5" width="2172" height="340.5"/>
      <rect class="cls-4" x="-305" y="-32" width="2211" height="625.67"/>
      <polyline class="cls-5" points="11.92 922.59 469.6 755.97 1559.84 1004.85 26.38 1004.85"/>
      <g>
        <path class="cls-6" d="M1219.14,363.45s36.33,66.7,15.21,258.77c0,0-13.71,155.48-7.43,222.26,7.69,81.67,9.56,181.59,9.56,181.59l-135.33-8.92s-56.86-186.81-69.85-274.53c0,0-53.29-261.4,11.69-327.31"/>
        <path class="cls-6" d="M853.15,346.92s-35.23,72.63-14.75,281.8c0,0,7.91,155.13,18.13,227.27s20.91,209.89,20.91,209.89H988s37.9-342.83,34.75-424.85c0,0,33.08-160-29.93-231.73"/>
      </g>
      <g>
        <g>
          <g>
            <polyline class="cls-7" points="86.08 495.9 -23.29 978.93 19.84 1000.73 52.16 995.86 150.61 523.47"/>
            <polyline class="cls-8" points="87.63 496.06 -21.74 979.1 21.39 1000.89 124.81 512.13"/>
          </g>
          <g>
            <polygon class="cls-9" points="102.61 620.75 127.44 616.07 183.89 626.78 172.71 653.46 102.61 641 102.61 620.75"/>
            <polygon class="cls-10" points="102.61 620.75 127.44 616.07 183.89 626.78 169.59 633.21 102.61 620.75"/>
          </g>
          <g>
            <polyline class="cls-7" points="149 540.24 193.04 1033.54 240.77 1041.07 270.05 1026.51 218.88 546.7"/>
            <polyline class="cls-8" points="150.53 539.92 194.57 1033.22 242.3 1040.75 190.85 543.81"/>
          </g>
        </g>
        <g>
          <g>
            <polyline class="cls-11" points="488.58 404.99 379.22 888.03 422.34 909.83 454.67 904.96 553.12 432.57"/>
            <polyline class="cls-12" points="490.13 405.16 380.77 888.2 423.89 909.99 527.32 421.22"/>
          </g>
          <g>
            <polygon class="cls-9" points="505.11 529.84 529.95 525.17 586.39 535.87 575.22 562.56 505.11 550.09 505.11 529.84"/>
            <polygon class="cls-10" points="505.11 529.84 529.95 525.17 586.39 535.87 572.1 542.3 505.11 529.84"/>
          </g>
          <g>
            <polyline class="cls-11" points="551.51 449.34 595.55 942.64 643.28 950.16 672.55 935.61 621.39 455.79"/>
            <polyline class="cls-12" points="553.03 449.02 597.07 942.32 644.8 949.84 593.36 452.91"/>
          </g>
        </g>
        <g>
          <polygon class="cls-7" points="349.52 366.05 29.57 461.61 48.86 526.5 164.14 559.21 472.57 486.15 349.52 366.05"/>
          <polygon class="cls-8" points="157.97 506.25 30.95 461.61 50.04 526.5 164.92 558.43 157.97 506.25"/>
          <polygon class="cls-13" points="349.52 366.05 30.95 461.85 87.11 481.63 157.13 469.64 94.82 483.66 157.91 506.25 447.66 440.82 349.52 366.05"/>
        </g>
      </g>
      <g>
        <g>
          <g>
            <polyline class="cls-7" points="909 706.41 799.64 1189.45 842.76 1211.25 875.09 1206.37 973.53 733.99"/>
            <polyline class="cls-8" points="910.55 706.58 801.19 1189.61 844.31 1211.41 947.73 722.64"/>
          </g>
          <g>
            <polygon class="cls-9" points="925.53 831.26 950.36 826.59 1006.81 837.29 995.63 863.98 925.53 851.51 925.53 831.26"/>
            <polygon class="cls-10" points="925.53 831.26 950.36 826.59 1006.81 837.29 992.51 843.73 925.53 831.26"/>
          </g>
          <g>
            <polyline class="cls-7" points="971.93 750.76 1015.97 1244.06 1063.69 1251.58 1092.97 1237.03 1041.81 757.21"/>
            <polyline class="cls-8" points="973.45 750.44 1017.49 1243.74 1065.22 1251.26 1013.77 754.33"/>
          </g>
        </g>
        <g>
          <g>
            <polyline class="cls-11" points="1311.5 615.51 1202.14 1098.55 1245.26 1120.34 1277.59 1115.47 1376.04 643.08"/>
            <polyline class="cls-12" points="1313.05 615.67 1203.69 1098.71 1246.81 1120.51 1350.24 631.74"/>
          </g>
          <g>
            <polygon class="cls-14" points="1328.04 740.36 1352.87 735.68 1409.32 746.39 1398.14 773.07 1328.04 760.61 1328.04 740.36"/>
            <polygon class="cls-12" points="1328.04 740.36 1352.87 735.68 1409.32 746.39 1395.02 752.82 1328.04 740.36"/>
          </g>
          <g>
            <polyline class="cls-11" points="1374.43 659.85 1418.47 1153.15 1466.2 1160.68 1495.48 1146.13 1444.31 666.31"/>
            <polyline class="cls-12" points="1375.96 659.53 1420 1152.84 1467.72 1160.36 1416.28 663.42"/>
          </g>
        </g>
        <g>
          <polygon class="cls-7" points="1172.44 576.56 852.5 672.13 871.79 737.01 987.06 769.73 1295.49 696.67 1172.44 576.56"/>
          <polygon class="cls-8" points="980.9 716.76 853.87 672.13 872.96 737.01 987.84 768.95 980.9 716.76"/>
          <polygon class="cls-13" points="1172.44 576.56 853.87 672.37 910.03 692.14 980.05 680.15 917.74 694.17 980.83 716.76 1270.58 651.34 1172.44 576.56"/>
        </g>
      </g>
      <g>
        <path class="cls-6" d="M1227.72,338.23l21.12,271.89-382.93-36.7s-2.31-219.91-7.76-247.61,338.33-116.76,356.07-59.35S1227.72,338.23,1227.72,338.23Z"/>
        <line class="cls-6" x1="1010.28" y1="492.86" x2="1016.65" y2="587.87"/>
        <path class="cls-6" d="M969.7,350.41s4.84,127.15,12.94,134.19c5.61,4.87,14.12,8.3,26.83,5.93"/>
        <line class="cls-6" x1="952.03" y1="535.62" x2="1004.25" y2="491.03"/>
      </g>
      <g>
        <path class="cls-15" d="M865.89,333.61c-1.23-6.13,6.87,36.9,6.87,36.9s313.8,17.85,369.92-3.73c0,0,4.65-34.09-2.88-33.17C1099.58,350.59,867.89,343.6,865.89,333.61Z"/>
        <path class="cls-15" d="M1053.89,367.33s10.95,30.43,13.57,83.73,2.62,47.9,18.81,45.21,85.73-7.06,85.73-7.06,59.94,7.06,65.34-1,13.49-99.81,5.39-132.18"/>
        <path class="cls-16" d="M1157.75,408.59s-5.77,76.61,5.4,87.12c13.49,12.7,62.84,16.19,78.23-6.19s0-94.1,0-94.1l-80.93,7.78s-24.28,8.09,29.68,8.09,49-12.94,49-12.94"/>
        <path class="cls-16" d="M1087.61,416.68s-5.77,76.61,5.4,87.12c13.49,12.7,62.84,16.19,78.23-6.18s0-94.11,0-94.11l-80.93,7.78s-24.28,8.09,29.68,8.09,49-12.94,49-12.94"/>
      </g>
      <g>
        <g>
          <polygon class="cls-17" points="-84.5 311.12 -84.5 330.6 -67.82 341.5 -84.5 341.5 -84.5 359.05 1539.51 771.45 1703.08 659.29 1691.4 628.91 1675.82 638.26 1686.72 621.13 1685.17 613.34 134.51 269.08 31.14 292.43 52.59 298.66 21.25 292.43 -84.5 311.12"/>
          <polygon class="cls-18" points="-82.77 311.61 -82.77 331.08 -66.09 341.99 -82.77 341.99 -82.77 358.35 1540.46 771.16 1533.45 715.86 -82.77 311.61"/>
          <polygon class="cls-19" points="1533.45 714.99 1540.46 770.3 1704.03 658.13 1693.13 628.54 1677.55 639.44 1688.45 620.75 1685.34 612.96 1608.06 664.87 1467.24 637.88 1602.77 669.04 1533.45 714.99"/>
          <g class="cls-20">
            <path class="cls-21" d="M172.53,310.74q214.91,43.9,429.39,89.9c143,30.72,285.82,62.08,428.3,95C1101.45,512.16,1172.6,529,1243.49,547c35.44,9,70.82,18.21,106,28.11,17.6,4.95,35.15,10.08,52.59,15.59,8.71,2.76,17.4,5.62,26,8.69s17.18,6.31,25.48,10.21c2.07,1,4.12,2,6.12,3.15a34.81,34.81,0,0,1,5.72,3.9,9.62,9.62,0,0,1,2.28,2.76,3.54,3.54,0,0,1,.35,1.89,3.31,3.31,0,0,1-.84,1.74,8.09,8.09,0,0,1-3,1.92,20.06,20.06,0,0,1-3.35,1,74.48,74.48,0,0,1-13.71,1.26c-4.59.08-9.16,0-13.74-.24-18.28-.88-36.46-3-54.6-5.26-36.27-4.69-72.36-10.61-108.39-16.85-72-12.58-143.79-26.69-215.43-41.32s-143.13-30-214.54-45.74S697.72,485.87,626.51,469.3,484.17,435.75,413.22,418c-35.46-8.89-70.89-17.91-106.15-27.6-8.81-2.44-17.61-4.92-26.37-7.52q-6.58-1.95-13.11-4c-4.35-1.42-8.7-2.85-12.93-4.64a22.15,22.15,0,0,1-3.12-1.56,5.17,5.17,0,0,1-.73-.55,1.19,1.19,0,0,1-.49-1.05c.22-.58.64-.6.92-.71a4.77,4.77,0,0,1,.89-.16,40.87,40.87,0,0,1,6.92.21c4.56.42,9.09,1,13.62,1.7,9,1.34,18.06,2.87,27.06,4.46,36,6.42,71.85,13.61,107.68,20.86s71.62,14.72,107.4,22.24q107.33,22.56,214.54,45.69l214.46,46.07q53.64,11.44,107.31,22.65,26.85,5.56,53.74,10.93c9,1.77,17.94,3.51,26.93,5.16,4.5.82,9,1.63,13.5,2.36,2.26.37,4.52.72,6.78,1,1.14.15,2.27.29,3.41.39.57,0,1.14.1,1.71.11a8,8,0,0,0,.85,0c.26,0,.64,0,.76-.28-.12.28-.5.24-.76.28a8,8,0,0,1-.85,0c-.57,0-1.14,0-1.71-.1-1.14-.11-2.28-.24-3.41-.39-2.26-.3-4.52-.65-6.78-1-4.51-.73-9-1.53-13.51-2.35-9-1.64-18-3.37-26.93-5.13q-26.91-5.3-53.75-10.87-53.7-11.09-107.34-22.53L729.25,465.84q-107.25-23-214.56-45.6Q461,409,407.29,398c-35.84-7.23-71.69-14.41-107.68-20.82-9-1.58-18-3.11-27-4.44-4.52-.66-9.05-1.28-13.59-1.7a41.58,41.58,0,0,0-6.77-.2,5,5,0,0,0-.79.14.82.82,0,0,0-.43.21.76.76,0,0,0,.29.39,4.64,4.64,0,0,0,.64.48,21.65,21.65,0,0,0,3,1.5c4.19,1.77,8.53,3.19,12.87,4.61s8.72,2.73,13.09,4c8.76,2.6,17.56,5.08,26.37,7.51,35.25,9.67,70.68,18.68,106.15,27.56q106.41,26.54,213.29,51.17,106.83,24.82,213.94,48.38t214.54,45.66c71.63,14.66,143.37,28.8,215.39,41.4,36,6.25,72.09,12.18,108.34,16.89,18.12,2.3,36.29,4.38,54.53,5.27,4.56.21,9.13.32,13.68.25a74.65,74.65,0,0,0,13.55-1.24,20.58,20.58,0,0,0,3.22-1,7.19,7.19,0,0,0,2.71-1.7,2.47,2.47,0,0,0,.64-1.29,2.67,2.67,0,0,0-.28-1.42,8.88,8.88,0,0,0-2.07-2.49,34.86,34.86,0,0,0-5.59-3.81c-2-1.12-4-2.14-6.06-3.12-8.25-3.88-16.81-7.11-25.4-10.19s-17.28-5.92-26-8.69c-17.42-5.51-35-10.64-52.55-15.6-35.19-9.91-70.56-19.15-106-28.15-70.88-17.94-142-34.85-213.24-51.38-142.47-33-285.3-64.39-428.25-95.19S315.77,340.17,172.53,310.74Z"/>
          </g>
        </g>
        <path class="cls-22" d="M773.37,410.91s-271.28,35.86-240.92,54.58C560.92,483.05,927.8,444.9,927.8,444.9"/>
        <path class="cls-22" d="M1048,470.47S843.58,501.68,866.45,518c21.46,15.28,297.84-17.92,297.84-17.92"/>
      </g>
      <g>
        <path class="cls-23" d="M816.18-99.17c-7.33,0-91.49,73.07-118.35,151.23-17.42,50.66-39.08,70.83-51.29,78.16s-22,7.33-22,22-2.44,19.54-4.88,22-9.77-2.45-9.77,4.88,7.54,15.58,7.54,15.58l77.95,6.4,17.09,31.76h9.27s22.48-26.87,22.48-41.53,7.33,7.33,17.1-12.21,78.16-87.93,78.16-87.93"/>
        <path class="cls-23" d="M817.37,33.45C842.79,137.06,851.5,236.5,858.5,325.5c1,13,18.11,18.53,22.84,30.66,0,0,108.14,17.09,362.16-14.66,0,0-7,2.57.36-41.4s6.65-257.33-6.24-289.56C1223-26.1,1177.23-230,1177.23-230L906.12-151.83,795.53-82.27"/>
        <path class="cls-23" d="M915.21-87.16s27,250,31.75,273.56c7.33,36.64,24.43,119.68,24.43,119.68l18.74,69"/>
        <path class="cls-23" d="M1081.3-35.87S1121.6,50.84,1124,67.94s-4.89,29.31,22,56.18,26.87,56.17,44,70.83h31.17s25-26.87,56.76-19.54,51.29,48.85,51.29,48.85,17.1-22-14.66-68.39S1265.7,77.71,1241.28,2s-31.75-100.14-31.75-100.14"/>
        <path class="cls-23" d="M1332.87,203.5c16.31,45.18-2.44,95.25-7.33,90.37s-31.75-39.08-31.75-39.08-59.69-13.72-70.83-29.31-26.87,9.77-26.87,9.77-16.58-37.39,34.2-65.95c39.08-22,58.62,0,58.62,0"/>
        <polyline class="cls-24" points="921 294 966 351 993 346 980 308 947.75 266.88 929 281"/>
        <g>
          <g>
            <polygon class="cls-25" points="527.23 714.64 563.29 730.49 563.5 720.45 571 721.87 573.73 711.89 583.74 713.36 585.21 703.35 595.16 707.33 595.38 697.29 605.31 702.53 605.55 691.24 615.54 693.96 618.29 682.73 625.74 686.65 628.49 675.42 637.22 678.12 638.66 669.36 649.92 670.86 650.17 659.57 660.15 662.3 659.11 652.23 670.38 653.73 669.34 643.67 680.55 647.68 680.79 636.39 693.28 639.17 693.5 629.13 703.46 633.11 702.42 623.05 713.65 625.8 712.62 615.74 725.11 618.52 724.04 609.71 735.28 612.46 734.24 602.4 745.48 605.15 745.72 593.86 754.42 597.82 754.1 589.16 765.16 589.4 763.59 580.44 776.08 583.22 774.35 574.4 786.25 577.17 785.24 565.85 796.5 567.35 794.24 556 806.67 561.29 804.47 547.44 814.99 553.65 815.31 539.04 827.25 545.11 823.61 532.79 839.81 538.16 835.06 525.51 850.18 529.79 845.97 519.61 860.23 522.29 856.77 508.41 869.21 513.7 866.25 503.63 878.21 503.85 875.94 492.51 888.43 495.29 887.45 482.71 901.19 485.52 897.7 472.89 908.94 475.65 909.18 464.36 922.96 465.91 918.18 454.51 931.87 459.83 929.02 448.47 840.97 382.2 527.23 714.64"/>
            <line class="cls-26" x1="838.87" y1="386.01" x2="528.61" y2="714.76"/>
          </g>
          <path class="cls-27" d="M946.8,447.49c11.32-8.42,95.37-104,97.65-109.41s-13.75-10.31-25.64-15.72c-15-6.82-67.52,67.84-85.17,82.62"/>
          <path class="cls-24" d="M1032.34,329.41s-61.41,68.51-70.78,77.4-29.32,4.29-23.86-3.08c7-9.5,13.94-16,15.69-19.1,9.06-16.26,33.61-42,45.55-51.77,9.9-8.12,9.9-8.12,15.48-9.39C1021.38,321.89,1032.34,329.41,1032.34,329.41Z"/>
        </g>
        <path class="cls-28" d="M956.5,278.5s33.2-10.28,45.42-7.84,12.21,17.1,41.52,19.54,105-12.21,149-44c14.28-10.31,46.84-31.42,64.94-19.37s54.74,48.68,42.53,70.66-27.59,31.75-27.59,31.75-100.84,27.22-177.58,19.54c-24.42-2.44-51.29,19.54-78.16,24.43s-54.31,2.44-63.79-2.44c0,0-11.93-9.77-7-14.66,0,0-12.21-9.77-7.33-14.65,0,0-14.37-7.33-9.77-14.66,0,0-9.91-6-11.14-10.34-2-7,9-15,9-15l4.69,5.4,41.31-9.4S954.17,276.64,956.5,278.5Z"/>
        <path class="cls-28" d="M971.5,341.5s-27.88,2.58-34.5-.1"/>
        <path class="cls-28" d="M975.5,357.5s-24.22,1.41-30.5-1"/>
        <path class="cls-28" d="M967.5,324.5s-31.86,5.34-39.5,1.5"/>
        <line class="cls-28" x1="993.5" y1="288.5" x2="972.5" y2="297.5"/>
        <path class="cls-27" d="M933.64,405S910,405.26,892,380.25c-15.83-22,43.62-67.27,43.62-67.27l33.11-28.52s.43-25.86-11.33-30c0,0-7.21-7.32-16.09-4.2S890.43,291.43,869.64,331c0,0-21.55,24.44-37,37.1-10.48,8.59-8.94,12.74-8.94,12.74s-3.37,5.4,17.93,22.11c0,0,34.23,19.15,73.86,39.49,12.9,6.63,20,13.43,31.29,5"/>
        <path class="cls-24" d="M957.76,255.83a4.82,4.82,0,0,1,.63,7.06c-12.71,14-52.3,55.29-58.65,64.37-9.17,13.07-35.31,63.93-61.32,71.57,0,0-14.94-12-12.68-18.35s4.5-9,21.25-23.63a151.77,151.77,0,0,0,35.39-44.77c9.06-16.26,35.37-41.74,47.31-51.54,9.9-8.11,9.9-8.11,15.48-9.38C949.3,250.22,954.34,253.23,957.76,255.83Z"/>
        <path class="cls-29" d="M1188.77,245s-7.74-32.5,35.41-45.19c41.52-12.21,75.46-2.36,95.26,24.43,20.76,28.09,18,75.35-1.22,94s-15.88,11-15.88,11-29.31,7.33-41.52,4.89c0,0,51.29-29.31,4.88-80.6C1237.89,222.83,1188.77,245,1188.77,245Z"/>
        <path class="cls-29" d="M1266,224.26s68.06,29.31,36.31,105"/>
        <g>
          <path class="cls-30" d="M1216.71-46.28s15.73,153.08,0,196.54S1159.46,140,1159.46,140"/>
          <path class="cls-31" d="M1216.71-46.28q1.8,17,3.19,34t2.34,34c1.28,22.71,2.14,45.46,1.88,68.23-.22,11.37-.67,22.76-1.88,34.09-.59,5.67-1.42,11.31-2.57,16.9l-1,4.16c-.31,1.39-.83,2.73-1.24,4.1a42.25,42.25,0,0,1-3.43,7.87,24.17,24.17,0,0,1-5.39,6.69,15.47,15.47,0,0,1-7.8,3.56,19.62,19.62,0,0,1-8.55-.77,36.37,36.37,0,0,1-7.83-3.48,75.7,75.7,0,0,1-13.47-10.48A119.15,119.15,0,0,1,1159.46,140a119,119,0,0,0,11.64,12.43,75.9,75.9,0,0,0,13.55,10.23,36.46,36.46,0,0,0,7.74,3.39,19.08,19.08,0,0,0,8.31.72,14.84,14.84,0,0,0,7.49-3.47,23.69,23.69,0,0,0,5.22-6.54,41.91,41.91,0,0,0,3.33-7.76c.4-1.36.9-2.68,1.21-4.07l1-4.13c1.11-5.56,1.91-11.18,2.48-16.82,1.14-11.3,1.53-22.67,1.7-34,.37-22.72-.37-45.47-1.55-68.17q-.88-17-2.15-34C1218.63-23.62,1217.75-35,1216.71-46.28Z"/>
        </g>
        <path class="cls-23" d="M758.89,78.93s-7.33,90.37-14.66,112.35"/>
        <path class="cls-23" d="M690.5,105.8c2.44,2.44,31.75,61.06,24.42,127"/>
        <path class="cls-23" d="M675.2,135.11c.65,2.44,39.72,14.65,39.72,83"/>
        <g>
          <path class="cls-28" d="M603.79,214.49s-34,146.88-73.27,171c0,0-36.64,26.87-39.08,39.08S484.11,449,489,463.62c2.78,8.35,7.32,12.21,7.32,12.21s7.33,9.77,9.77,9.77c0,0,2.45,0,9.77,2.44,0,0,2.45,4.89,12.22,2.45,0,0,2.44-4.89,0-24.43,0,0,9.77-9.77,12.21-9.77s-5,13.08,9.77,7.33c0,0,7.32-4.89,19.54-14.66s9.77-17.09,14.65-29.3,4.89-39.08,19.54-53.74,91.55-104.31,99.51-118.1,10.4-67.53-45.77-60.2S603.79,214.49,603.79,214.49Z"/>
          <path class="cls-28" d="M529.5,440.5s-11,8-14,22a57.44,57.44,0,0,0,.36,25.54"/>
          <path class="cls-28" d="M516.5,435.5s-11,8-14,22a57.44,57.44,0,0,0,.36,25.54"/>
          <path class="cls-28" d="M501.5,430.5s-7,7-8.33,16a79.7,79.7,0,0,0,.34,25.54"/>
          <path class="cls-28" d="M557.5,426.5l-4.74,14s-12.47,9.79-12.26,19"/>
        </g>
        <path class="cls-29" d="M597.69,227.92s-8.55-24.35,12.21-40.87,69.61-21.41,84.26-6.76,25.65,39.66,24.43,56.18-23.53,24.71-23.53,24.71,18.64-32-25.32-49.14-59.84-1.43-59.84-1.43Z"/>
      </g>
      <polyline class="cls-18" points="798.5 566.5 802.5 529.5 887.53 554.04"/>
      <polyline class="cls-32" points="862.43 512.14 803 529 882 551"/>
    </g>
  </g>
</svg>
