<svg id="Layer_1" data-name="Layer 1" xmlns="http://www.w3.org/2000/svg" xmlns:xlink="http://www.w3.org/1999/xlink" width="1600" height="900" viewBox="0 0 1600 900">
  <defs>
    <style>
      .cls-1, .cls-29, .cls-33 {
        fill: none;
      }

      .cls-2 {
        clip-path: url(#clip-path);
      }

      .cls-3 {
        fill: #90dddb;
      }

      .cls-4 {
        fill: #606fba;
      }

      .cls-5, .cls-9 {
        fill: #323b70;
      }

      .cls-6 {
        fill: #5258a1;
      }

      .cls-7 {
        fill: #5b66b2;
      }

      .cls-8 {
        fill: #464b8c;
      }

      .cls-9 {
        opacity: 0.49;
      }

      .cls-10 {
        fill: #070707;
        opacity: 0.3;
      }

      .cls-11 {
        fill: #d0d8f1;
      }

      .cls-12 {
        fill: #b0bddc;
      }

      .cls-13 {
        fill: #ffab41;
        stroke: #7f4a14;
      }

      .cls-13, .cls-14, .cls-16, .cls-17, .cls-20, .cls-26, .cls-27, .cls-28, .cls-29, .cls-30, .cls-31, .cls-32, .cls-33, .cls-35, .cls-37 {
        stroke-miterlimit: 10;
      }

      .cls-13, .cls-14, .cls-16, .cls-17, .cls-27, .cls-28 {
        stroke-width: 2px;
      }

      .cls-14 {
        fill: #994b39;
        stroke: #591b15;
      }

      .cls-15 {
        fill: #6b2322;
      }

      .cls-16 {
        fill: #ffd3ca;
        stroke: #b25750;
      }

      .cls-17, .cls-23, .cls-30 {
        fill: #f2f2f2;
      }

      .cls-17 {
        stroke: #7c7c7c;
      }

      .cls-18, .cls-26 {
        fill: #e59f98;
      }

      .cls-19 {
        fill: #d36866;
      }

      .cls-20, .cls-22 {
        fill: #fff;
      }

      .cls-20 {
        stroke: #8098a0;
      }

      .cls-21 {
        fill: #3f4451;
      }

      .cls-24 {
        fill: #7c7c7c;
      }

      .cls-25 {
        fill: #b25c56;
      }

      .cls-26 {
        stroke: #cc755a;
        stroke-width: 0.75px;
      }

      .cls-27 {
        fill: #fcfcfc;
        stroke: #938c83;
      }

      .cls-28 {
        fill: #cec7bc;
        stroke: #968e84;
      }

      .cls-29, .cls-31, .cls-32, .cls-33, .cls-37 {
        stroke: #2c445e;
      }

      .cls-29 {
        opacity: 0.52;
      }

      .cls-30 {
        stroke: #efe0cb;
      }

      .cls-31 {
        fill: #3d5d77;
      }

      .cls-32 {
        fill: #425c7c;
      }

      .cls-34 {
        fill: #4c1e0e;
      }

      .cls-35 {
        fill: #eabbb5;
        stroke: #d17d74;
      }

      .cls-36 {
        fill: #264051;
      }

      .cls-37 {
        fill: #3f6177;
      }
    </style>
    <clipPath id="clip-path">
      <rect class="cls-1" width="1600" height="900"/>
    </clipPath>
  </defs>
  <g class="cls-2">
    <g>
      <g>
        <rect class="cls-3" x="-310" y="-19" width="2217" height="850"/>
        <g>
          <g>
            <path class="cls-4" d="M29.38,652.75l-51-337.41S228.64,193.49,944.88,238C1419,248.26,1565.31,240,1592.31,440.49s34.54,379.77,34.54,379.77L163.7,805.5Z"/>
            <polygon class="cls-5" points="268.7 805.97 1480.28 807.75 1626.85 948.87 268.7 948.87 268.7 805.97"/>
            <path class="cls-6" d="M85,1291.84H1803.48s3-482.56,0-523.32c-3-38.46-144.36-55.63-176.63,33.3V1047.5H273.32v-100l-2.64-14.12,2.64-129.34c-22.24-136.31-194.54-73.59-188.19,0V884"/>
            <path class="cls-7" d="M85,818.05,17.79,702.56l11.59-51.4s80.37-77.8,153.75-12.58c37.41,61.8,85.57,147.93,85.57,147.93S163.7,638.58,85,818.05Z"/>
            <path class="cls-8" d="M-33.57,378.81c0-74.4,39.38-127.19,51.36,6.78,13.62,135.63,21.1,257.57,21.1,257.57l-9.51,8-11.59,51.4L85,818.05v473.79Q19.74,1190-45.47,1088.18Z"/>
            <path class="cls-7" d="M1626.85,948.87,1480.78,807.75V661c27.63-53.66,127.69-78.13,154.08-49.5s170,151.32,170,151.32S1685.75,708,1629,795.31Z"/>
            <polygon class="cls-8" points="1480.78 661.01 1629.02 795.31 1626.85 948.87 1480.78 807.75 1480.78 661.01"/>
            <polygon class="cls-9" points="1183.11 376.92 1179.23 389.04 1161.92 389.04 1177.76 398.29 1187.81 412.89 1191.21 401.24 1205.17 392.54 1190.76 389.04 1183.55 370 1183.11 376.92"/>
            <polygon class="cls-9" points="1116.11 664.87 1112.23 677 1094.92 677 1110.76 686.24 1120.81 700.85 1124.21 689.2 1138.17 680.49 1123.76 677 1116.55 657.96 1116.11 664.87"/>
            <polygon class="cls-9" points="920.11 678.87 916.23 691 898.92 691 914.76 700.24 924.81 714.85 928.21 703.2 942.17 694.49 927.76 691 920.55 671.96 920.11 678.87"/>
            <polygon class="cls-9" points="262.11 410.87 258.23 423 240.93 423 256.76 432.24 266.81 446.85 270.21 435.2 284.17 426.49 269.76 423 262.55 403.96 262.11 410.87"/>
            <polygon class="cls-5" points="533.52 361.7 526.67 383.06 496.19 383.06 524.09 399.35 541.8 425.09 547.78 404.56 572.38 389.22 547 383.06 534.28 349.51 533.52 361.7"/>
          </g>
          <g>
            <path class="cls-10" d="M1517.37,815.94c-93.43,1.14-145.14-1.76-175.56-4.92-26.19-2.73-38.12-5.81-60.65-3.27-20.68,2.34-36.47,7.87-61.69,3.42-8.67-1.53-22.86-5-22.66-6.33.14-1,8.3-.52,8.3-.51s-38.11-.65-81.13-1.45a111.91,111.91,0,0,0,24.44-33.39c7.22-15.26,9.57-33.39,9-89.39a511.56,511.56,0,0,0-5.12-66.07c-11.09-78.92-31.94-108.32-20.5-117.89,12.37-10.35,38.27,22.73,106.32,42.75,42.21,12.42,79.42,13.58,101.19,14.25,41.09,1.27,71.29-3.23,78.35-4.33A393.21,393.21,0,0,0,1476.34,535a296.77,296.77,0,0,0-17.79,92.21C1455.74,720.3,1498.4,789,1517.37,815.94Z"/>
            <g>
              <path class="cls-11" d="M1556.1,845.48s-47.65-21.29-43.22-90.78S1504,637.22,1504,637.22a256.57,256.57,0,0,1,8.57-52.88c3.14-11.44,4.93-17.82,9.32-26.05,5-9.47,14.23-22.72,17.45-27.35,6.15-8.87,7.57-24.31,2.94-27.44-15-10.14-63.41,18-69.31,21.43-26.59,6.64-58.88,11.82-95.72,14-36,2.12-81.67-.73-149.18-16.45-82-32.26-72-25.54-72-25.54-4.79-.3-10.23,0-11.92,3.13-3.15,5.78,9.17,16.59,20.93,33.53a167.85,167.85,0,0,1,19.59,37.89,265,265,0,0,1,4.64,65.75c-1.45,26.43-6.14,38.35-8.52,63.14-1.8,18.62-2.42,45.88,4.09,80.12q-38.05,36.32-32,46.94,3.63,6.38,23.15,3.49S1391,804,1556.1,845.48Z"/>
              <path class="cls-12" d="M1147.39,497.62s-14-1.75,14.46,31.49c16,26.42,29.08,29.76,27.76,100.15-1.4,21.18-11,83.53-10,102.09.94,17.88,5.24,49.13,5.24,49.13s-11.23,10.26-18,18.57c0,0-11,13.06-13.45,19.26s-4.65,14.51,19.06,13.06c24.33-2.65,91.15-9.19,104.79-7.92,17.75-.58,88.35-2.16,95.77-.55s61.65.52,89.73,6.18c27.9,3.61,63.16,9.41,63.16,9.41l30.22,7-17.63-14.92s-12.54-9.23-17.56-24.09c-25.7-3.12-63.39-28.7-63.39-28.7s-97.2,3.51-113.57-10.53c0,0-91.24,10-103.15-16,0,0-24.46-46.09-18.29-53.22,0,0,24.24-4.46,4.41-20.51,0,0-11.46-21.4-15-44.58,0,0,12.78-3.56-1.32-12.93-4.85-16.94-11.46-62.41-23.8-76.23Z"/>
              <path class="cls-12" d="M1513.72,780.41s-10.07-26.83-18.57-34.68l17.54,13.07Z"/>
              <path class="cls-12" d="M1508.64,660s-10.16,19.27-20.88,24.87,1.85,0,1.85,0,21.79-4.53,21.34-8.21S1508.64,660,1508.64,660Z"/>
              <path class="cls-12" d="M1504,637.22s-12.35,16.24-20.58,19.6c0,0,22.67-42.25,24-49.3Z"/>
              <path class="cls-12" d="M1530.17,544.57c1.12-.17-16.92,21.09-37.6,27.45l22.21,4.49S1526.41,545.14,1530.17,544.57Z"/>
              <path class="cls-12" d="M1438.8,694.25s-43.85-52-103-62.08-75.46-30.74-75.46-30.74,16.43,27.9,73.43,40.22C1354.41,642.68,1415.34,672.59,1438.8,694.25Z"/>
            </g>
            <path class="cls-12" d="M1504,637.22s-24.1,25-24.58,50.11-21.92,90.44-21.92,90.44,45.42,31.68,63.39,28.7c-8.66-17.05-8.82-30.23-8-51.77s.84-86.93-5.9-104.15Z"/>
          </g>
        </g>
      </g>
      <g>
        <path class="cls-13" d="M765.32,469.74s-3.53-50.76-50.8-79.15-20.29,79.15-20.29,79.15Z"/>
        <g>
          <path class="cls-14" d="M391.7,372.61S320.52,420.49,294,475.06c0,0-51.47,70.89-44,183.73,7.62,114.37,43.57,174.28,43.57,174.28l110-63.18s254.88-19.6,275.91-249.44c49.22-46.84,25.18-110.75,25.18-110.75L409.23,357.22Z"/>
          <ellipse class="cls-15" cx="591.03" cy="466.21" rx="67.53" ry="39.21"/>
          <ellipse class="cls-15" cx="368.09" cy="535.7" rx="85.69" ry="89.32"/>
        </g>
        <path class="cls-15" d="M697.78,490.68c2.09-63.68-12-109.35-12-109.35S736.92,427,697.78,490.68Z"/>
        <g>
          <path class="cls-13" d="M433,378.56S454,468.16,535.28,519c0,0,15.17-44.22,39.7-50.9C551.09,458,433,378.56,433,378.56Z"/>
          <path class="cls-13" d="M637.84,469.74s16.09,6.34,11.57,31.83c0,0,39.62-29.91,30.18-46.48C664.17,428,637.84,469.74,637.84,469.74Z"/>
        </g>
        <g>
          <path class="cls-16" d="M685.81,374.26c27.93,17.74,43.37-20,44.88-35.19,3.23-32.59-16.93-52-29.06-42.84C692.25,303.3,691,326.59,691,326.59"/>
          <path class="cls-17" d="M670.92,211.6s32.8,4.54,46.62,52.93C732.07,315.38,697,307.16,697,307.16Z"/>
          <path class="cls-16" d="M682,216.75s52.2,90.41,26.47,188.2c-19,72.39-116.33,89.66-193.92,55.13-35.87-16-91.78-57.75-104.56-120.38-6.87-33.66-8.24-96.85,33.66-148.36S543.87,142.61,559,142.57C644.17,142.35,682,216.75,682,216.75Z"/>
          <path class="cls-17" d="M439.88,196.09a46.44,46.44,0,0,0-40.29,15.44c-18.43,20.74-71.42,133.63,14.82,100.7l7.21,27.47s5.33,2.52,13.05,0c-1.37-67.74,31.75-34.44,31.75-92.61,0-7.3-16.12,5.72-20.76,4.69s3.43-28.46,3.43-28.46L421.66,239S411.72,236.61,439.88,196.09Z"/>
          <path class="cls-17" d="M596.45,170.2s41.2,1.13,34.93-47.08C621.09,120.82,596.45,170.2,596.45,170.2Z"/>
          <path class="cls-17" d="M594.18,169.2s27.23-49.49-25-70.39C560.38,110,594.18,169.2,594.18,169.2Z"/>
          <path class="cls-16" d="M434.67,373.36C398.09,395,364.81,362,358.43,347.94c-13.74-30.22,10.85-52.06,31.36-45.54,15.87,5,24.1,26.83,24.1,26.83"/>
          <ellipse class="cls-18" cx="394.56" cy="347.77" rx="12.01" ry="28.85" transform="translate(-113.06 485.4) rotate(-56.56)"/>
          <g>
            <g>
              <ellipse class="cls-19" cx="571.1" cy="313.61" rx="37.61" ry="28.08" transform="translate(201.48 850.16) rotate(-84.21)"/>
              <path class="cls-19" d="M599,316.44c-.15-16.2-23.19-43.85-55.87-5.66,2.1-20.67,16.3-36.15,31.73-34.59S601.12,295.78,599,316.44Z"/>
              <ellipse class="cls-19" cx="653.21" cy="315.4" rx="37.61" ry="28.08" transform="translate(273.54 933.47) rotate(-84.21)"/>
              <path class="cls-19" d="M681.15,318.23c-1.63-13.39-22.36-43.34-55.87-5.66,2.1-20.67,16.3-36.15,31.73-34.59S683.24,297.57,681.15,318.23Z"/>
              <ellipse class="cls-19" cx="576.12" cy="321.17" rx="24.28" ry="18.99" transform="translate(198.48 861.95) rotate(-84.21)"/>
              <ellipse class="cls-19" cx="655.93" cy="325.36" rx="24.28" ry="18.99" transform="translate(266.08 945.13) rotate(-84.21)"/>
              <circle class="cls-19" cx="589.96" cy="305.4" r="5.46"/>
              <circle class="cls-19" cx="667.63" cy="307.71" r="5.46"/>
              <g>
                <path class="cls-19" d="M596,246.55s-30.12-6.38-51.06,10.78-5.66-6.75,9.63-17c0,0,10.5-8.27,23-7.73l9.2,1.06-.66-5.11S601,234.58,596,246.55Z"/>
                <path class="cls-19" d="M596,246.55a80.57,80.57,0,0,0-24,.15l-1.48.22c-.49.09-1,.21-1.46.31l-2.92.63-2.87.83c-.48.14-1,.26-1.44.42l-1.39.52-2.79,1.05L555,252l-1.34.64c-.44.23-.85.5-1.28.75l-2.55,1.51c-.85.5-1.61,1.15-2.41,1.72s-1.6,1.14-2.38,1.79c-1.57,1.29-3.17,2.54-4.87,3.7a22.57,22.57,0,0,1-2.71,1.62,5.35,5.35,0,0,1-1.72.56,1.63,1.63,0,0,1-2-1.83,5.83,5.83,0,0,1,.49-1.76,14.87,14.87,0,0,1,.72-1.44c.52-.92,1.09-1.78,1.68-2.63a67.88,67.88,0,0,1,8-9.27,66.67,66.67,0,0,1,9.42-7.81l0,0a40.25,40.25,0,0,1,5.38-3.33,44.67,44.67,0,0,1,5.77-2.5,32.8,32.8,0,0,1,6.11-1.56,31.7,31.7,0,0,1,6.31-.35h.05l9.19,1.19-.67.68-.59-5.12-.11-1,.84.39a23.52,23.52,0,0,1,5,3.07,18.53,18.53,0,0,1,4,4.3,11.33,11.33,0,0,1,1.86,5.52A12,12,0,0,1,596,246.55Zm0,0a12,12,0,0,0,.81-5.61,11,11,0,0,0-2-5.21,17.69,17.69,0,0,0-4-3.95,26.1,26.1,0,0,0-4.9-2.77l.74-.56.73,5.09.11.77-.79-.08-9.22-.94h.05a30.71,30.71,0,0,0-6,.49,35.52,35.52,0,0,0-5.8,1.57,43.12,43.12,0,0,0-5.52,2.45,40.24,40.24,0,0,0-5.07,3.2l0,0h0a64.83,64.83,0,0,0-9.07,7.67,76.22,76.22,0,0,0-7.77,9c-.57.8-1.12,1.62-1.6,2.45a13.46,13.46,0,0,0-.64,1.25,4.1,4.1,0,0,0-.35,1.12c0,.15,0,.11-.11-.05s-.17-.05,0-.08a4.47,4.47,0,0,0,1.13-.39,19.73,19.73,0,0,0,2.48-1.45c1.64-1.1,3.22-2.31,4.78-3.56.77-.63,1.64-1.22,2.46-1.82s1.63-1.25,2.51-1.77l2.66-1.53c.45-.25.89-.52,1.35-.75l1.4-.62,2.8-1.25,2.89-1,1.44-.49c.49-.15,1-.26,1.48-.39l3-.77,3-.56c.5-.09,1-.2,1.5-.27l1.51-.18a75.45,75.45,0,0,1,24.12.94Z"/>
              </g>
              <g>
                <path class="cls-19" d="M627.64,243.74s30.79-.18,47.85,20.85,6.9-5.47-6-18.64c0,0-8.62-10.21-20.94-12.19l-9.23-.82,1.68-4.87S625.16,231,627.64,243.74Z"/>
                <path class="cls-19" d="M627.64,243.74a74.85,74.85,0,0,1,23.82,3.94l1.44.48c.48.17,1,.38,1.42.57l2.82,1.15,2.74,1.34,1.37.68,1.31.78,2.63,1.56,2.49,1.79,1.25.89c.4.32.78.67,1.17,1l2.29,2c.76.69,1.41,1.49,2.11,2.24s1.42,1.5,2,2.28c1.28,1.53,2.58,3,4,4.44a20.05,20.05,0,0,0,2.14,1.93,4.07,4.07,0,0,0,1,.61c.15.06.16,0,0,.07s-.12.19-.11,0a4.41,4.41,0,0,0-.12-1.16c-.1-.45-.23-.9-.38-1.36-.3-.91-.67-1.82-1.07-2.72a77.08,77.08,0,0,0-5.79-10.38,64.72,64.72,0,0,0-7.35-9.34l0,0,0,0a37.85,37.85,0,0,0-4.32-4.16,41.34,41.34,0,0,0-4.91-3.51,36,36,0,0,0-5.37-2.71,30.1,30.1,0,0,0-5.75-1.68h.06l-9.23-.94-.78-.08.26-.73,1.75-4.84.6.7a25.12,25.12,0,0,0-5.35,1.73,17.58,17.58,0,0,0-4.73,3,11,11,0,0,0-3,4.7A12.15,12.15,0,0,0,627.64,243.74Zm0,0a12.32,12.32,0,0,1,0-5.76,11.42,11.42,0,0,1,2.94-5,18.44,18.44,0,0,1,4.77-3.4,23.66,23.66,0,0,1,5.54-2l.9-.2-.3.91-1.61,4.89-.52-.81,9.25.69h0a31.43,31.43,0,0,1,6.11,1.61,34.14,34.14,0,0,1,5.67,2.76A44.89,44.89,0,0,1,665.6,241a40.87,40.87,0,0,1,4.59,4.35l0-.05a66.7,66.7,0,0,1,7.66,9.54,68.85,68.85,0,0,1,5.94,10.7c.4.94.78,1.9,1.1,2.9a12.74,12.74,0,0,1,.42,1.56,5.82,5.82,0,0,1,.13,1.83,1.64,1.64,0,0,1-2.3,1.39,5.54,5.54,0,0,1-1.57-.9,22.76,22.76,0,0,1-2.33-2.13c-1.43-1.48-2.74-3-4-4.6-.64-.8-1.32-1.49-2-2.24s-1.28-1.5-2-2.17l-2.2-2c-.37-.33-.72-.68-1.1-1l-1.18-.89-2.37-1.8-2.52-1.59-1.26-.8-1.32-.7L656.61,251l-2.74-1.21c-.46-.19-.91-.41-1.37-.59l-1.41-.52A80.41,80.41,0,0,0,627.64,243.74Z"/>
              </g>
            </g>
            <g>
              <ellipse class="cls-20" cx="571.1" cy="313.61" rx="37.61" ry="28.08" transform="translate(201.48 850.16) rotate(-84.21)"/>
              <path class="cls-18" d="M599,316.44c-.15-16.2-23.19-43.85-55.87-5.66,2.1-20.67,16.3-36.15,31.73-34.59S601.12,295.78,599,316.44Z"/>
              <ellipse class="cls-20" cx="653.21" cy="315.4" rx="37.61" ry="28.08" transform="translate(273.54 933.47) rotate(-84.21)"/>
              <path class="cls-18" d="M681.15,318.23c-1.63-13.39-22.36-43.34-55.87-5.66,2.1-20.67,16.3-36.15,31.73-34.59S683.24,297.57,681.15,318.23Z"/>
              <ellipse class="cls-21" cx="576.12" cy="321.17" rx="24.28" ry="18.99" transform="translate(198.48 861.95) rotate(-84.21)"/>
              <ellipse class="cls-21" cx="655.93" cy="325.36" rx="24.28" ry="18.99" transform="translate(266.08 945.13) rotate(-84.21)"/>
              <circle class="cls-22" cx="589.96" cy="305.4" r="5.46"/>
              <circle class="cls-22" cx="667.63" cy="307.71" r="5.46"/>
              <g>
                <path class="cls-23" d="M596,246.55s-30.12-6.38-51.06,10.78-5.66-6.75,9.63-17c0,0,10.5-8.27,23-7.73l9.2,1.06-.66-5.11S601,234.58,596,246.55Z"/>
                <path class="cls-24" d="M596,246.55a80.57,80.57,0,0,0-24,.15l-1.48.22c-.49.09-1,.21-1.46.31l-2.92.63-2.87.83c-.48.14-1,.26-1.44.42l-1.39.52-2.79,1.05L555,252l-1.34.64c-.44.23-.85.5-1.28.75l-2.55,1.51c-.85.5-1.61,1.15-2.41,1.72s-1.6,1.14-2.38,1.79c-1.57,1.29-3.17,2.54-4.87,3.7a22.57,22.57,0,0,1-2.71,1.62,5.35,5.35,0,0,1-1.72.56,1.63,1.63,0,0,1-2-1.83,5.83,5.83,0,0,1,.49-1.76,14.87,14.87,0,0,1,.72-1.44c.52-.92,1.09-1.78,1.68-2.63a67.88,67.88,0,0,1,8-9.27,66.67,66.67,0,0,1,9.42-7.81l0,0a40.25,40.25,0,0,1,5.38-3.33,44.67,44.67,0,0,1,5.77-2.5,32.8,32.8,0,0,1,6.11-1.56,31.7,31.7,0,0,1,6.31-.35h.05l9.19,1.19-.67.68-.59-5.12-.11-1,.84.39a23.52,23.52,0,0,1,5,3.07,18.53,18.53,0,0,1,4,4.3,11.33,11.33,0,0,1,1.86,5.52A12,12,0,0,1,596,246.55Zm0,0a12,12,0,0,0,.81-5.61,11,11,0,0,0-2-5.21,17.69,17.69,0,0,0-4-3.95,26.1,26.1,0,0,0-4.9-2.77l.74-.56.73,5.09.11.77-.79-.08-9.22-.94h.05a30.71,30.71,0,0,0-6,.49,35.52,35.52,0,0,0-5.8,1.57,43.12,43.12,0,0,0-5.52,2.45,40.24,40.24,0,0,0-5.07,3.2l0,0h0a64.83,64.83,0,0,0-9.07,7.67,76.22,76.22,0,0,0-7.77,9c-.57.8-1.12,1.62-1.6,2.45a13.46,13.46,0,0,0-.64,1.25,4.1,4.1,0,0,0-.35,1.12c0,.15,0,.11-.11-.05s-.17-.05,0-.08a4.47,4.47,0,0,0,1.13-.39,19.73,19.73,0,0,0,2.48-1.45c1.64-1.1,3.22-2.31,4.78-3.56.77-.63,1.64-1.22,2.46-1.82s1.63-1.25,2.51-1.77l2.66-1.53c.45-.25.89-.52,1.35-.75l1.4-.62,2.8-1.25,2.89-1,1.44-.49c.49-.15,1-.26,1.48-.39l3-.77,3-.56c.5-.09,1-.2,1.5-.27l1.51-.18a75.45,75.45,0,0,1,24.12.94Z"/>
              </g>
              <g>
                <path class="cls-23" d="M627.64,243.74s30.79-.18,47.85,20.85,6.9-5.47-6-18.64c0,0-8.62-10.21-20.94-12.19l-9.23-.82,1.68-4.87S625.16,231,627.64,243.74Z"/>
                <path class="cls-24" d="M627.64,243.74a74.85,74.85,0,0,1,23.82,3.94l1.44.48c.48.17,1,.38,1.42.57l2.82,1.15,2.74,1.34,1.37.68,1.31.78,2.63,1.56,2.49,1.79,1.25.89c.4.32.78.67,1.17,1l2.29,2c.76.69,1.41,1.49,2.11,2.24s1.42,1.5,2,2.28c1.28,1.53,2.58,3,4,4.44a20.05,20.05,0,0,0,2.14,1.93,4.07,4.07,0,0,0,1,.61c.15.06.16,0,0,.07s-.12.19-.11,0a4.41,4.41,0,0,0-.12-1.16c-.1-.45-.23-.9-.38-1.36-.3-.91-.67-1.82-1.07-2.72a77.08,77.08,0,0,0-5.79-10.38,64.72,64.72,0,0,0-7.35-9.34l0,0,0,0a37.85,37.85,0,0,0-4.32-4.16,41.34,41.34,0,0,0-4.91-3.51,36,36,0,0,0-5.37-2.71,30.1,30.1,0,0,0-5.75-1.68h.06l-9.23-.94-.78-.08.26-.73,1.75-4.84.6.7a25.12,25.12,0,0,0-5.35,1.73,17.58,17.58,0,0,0-4.73,3,11,11,0,0,0-3,4.7A12.15,12.15,0,0,0,627.64,243.74Zm0,0a12.32,12.32,0,0,1,0-5.76,11.42,11.42,0,0,1,2.94-5,18.44,18.44,0,0,1,4.77-3.4,23.66,23.66,0,0,1,5.54-2l.9-.2-.3.91-1.61,4.89-.52-.81,9.25.69h0a31.43,31.43,0,0,1,6.11,1.61,34.14,34.14,0,0,1,5.67,2.76A44.89,44.89,0,0,1,665.6,241a40.87,40.87,0,0,1,4.59,4.35l0-.05a66.7,66.7,0,0,1,7.66,9.54,68.85,68.85,0,0,1,5.94,10.7c.4.94.78,1.9,1.1,2.9a12.74,12.74,0,0,1,.42,1.56,5.82,5.82,0,0,1,.13,1.83,1.64,1.64,0,0,1-2.3,1.39,5.54,5.54,0,0,1-1.57-.9,22.76,22.76,0,0,1-2.33-2.13c-1.43-1.48-2.74-3-4-4.6-.64-.8-1.32-1.49-2-2.24s-1.28-1.5-2-2.17l-2.2-2c-.37-.33-.72-.68-1.1-1l-1.18-.89-2.37-1.8-2.52-1.59-1.26-.8-1.32-.7L656.61,251l-2.74-1.21c-.46-.19-.91-.41-1.37-.59l-1.41-.52A80.41,80.41,0,0,0,627.64,243.74Z"/>
              </g>
            </g>
          </g>
          <path class="cls-19" d="M568,420.77s51,29.23,69.63-2.29"/>
          <path class="cls-25" d="M578.37,416s40.31,23.12,55.07-1.81c0,0-21.17-21.45-22.22-21.34S579.89,412.88,578.37,416Z"/>
          <path class="cls-17" d="M572,381.49c-9.66.19-45.81-9.52-45.81-9.52s-7.71,28.94,29,32.68a64.22,64.22,0,0,1-20-.2S534.55,418,563,424.19a26,26,0,0,0,21.49-4.3l-10.35,7.66s24.15,7.73,43.93-19.25c0,0,14.52,19.3,32.36,19.89v-4s21.63,4.61,25.37-40.4c0,0-29.77,9.3-39.05-2.54-10.32-19.57-27.26-18-41.16-5.45C593.13,378.05,581.07,381.31,572,381.49Z"/>
          <path class="cls-26" d="M632.53,357.62c25.55.17,16.31,17.89,16.31,17.89S637.6,401.65,590.69,372c0,0,3-14.6,41.84-14.34"/>
        </g>
        <g>
          <path class="cls-27" d="M1091.58,245.74s-127.63,183-183.8,213.5S997.1,503.9,997.1,503.9s-12,6.31,20.69-10.76C1126.72,419.08,1091.58,245.74,1091.58,245.74Z"/>
          <path class="cls-28" d="M635,549.84s30.59-63.18,72.62-90.41,96.54-49.37,169.47-31.67c63.18,15.33,105.66,57,148.14,59L808.5,762.24l-24.17,8.52L564.5,718.67Z"/>
          <path class="cls-27" d="M656.92,513.19s102-43.57,181.2,0c0,0,10.89-64.35,39.21-85.41C877.33,427.78,726.26,392.64,656.92,513.19Z"/>
          <g>
            <path class="cls-29" d="M892.34,637.68s-66.08-38.42-84.71-44.74"/>
            <path class="cls-29" d="M818.81,540c-67.1-32.63-63.33-29.7-87.78-38.35"/>
            <path class="cls-29" d="M811.12,552.77c-67.1-32.63-65-32.47-87.78-38.34"/>
            <path class="cls-29" d="M1014.4,482c37.76-36,77.14-89.07,58.11-168.79"/>
            <path class="cls-29" d="M1000.52,478.33c27-29.55,76.94-80.76,55.24-148.32"/>
            <path class="cls-29" d="M986.58,472.65c20.69-26.7,72.67-60.48,52.07-120.95"/>
            <path class="cls-29" d="M975.18,466.21c17.69-17.43,59.64-57.55,43.24-94.33"/>
            <path class="cls-29" d="M802.42,569.38c-67.11-32.63-65-32.47-87.79-38.34"/>
            <path class="cls-29" d="M738.22,691.17C667,656.52,666.61,657,650.44,652.82"/>
            <path class="cls-29" d="M748.05,674.78s-68.74-33.42-87.78-38.34"/>
            <path class="cls-29" d="M730.42,703.36s-79.23-38.56-98.27-43.48"/>
            <path class="cls-29" d="M800.82,751.63S732.08,718.2,713,713.29"/>
            <path class="cls-29" d="M793.1,763.93s-68.74-33.43-87.78-38.35"/>
            <path class="cls-29" d="M755.48,657.27s-68.74-33.43-87.79-38.35"/>
            <path class="cls-29" d="M884.33,652.19c-59.06-34.34-58.53-35.86-84.7-44.74"/>
            <path class="cls-29" d="M875,664.28s-66.08-38.43-84.7-44.74"/>
          </g>
          <polygon class="cls-30" points="884.02 486.4 975.07 529.61 905.31 615.31 835.55 574.19 884.02 486.4"/>
          <polygon class="cls-30" points="792 643.17 855.96 676.81 813.79 733.95 758.33 700.02 792 643.17"/>
        </g>
        <path class="cls-16" d="M936.2,433.58s14.35-36.8,22-44.5c18.35-18.34,38.84-22.72,38.84-22.72l-22.66,27s26.82,12.14,22.85,27.24c-2.94,11.22-34.4-4.54-39-10.11Z"/>
        <g>
          <g>
            <path class="cls-16" d="M605.74,551c7-15.34,30.67-27.64,40.61-32.27a1.51,1.51,0,0,1,1.92,2.17l-19,30.83s48.52-31.23,64.93-36.31,42-5.09,42-5.09,29.11,15.25-10.27,23.24c0,0-17.08,5.08-21.17,10.17,0,0,.32,21.78-5.15,34.85,0,0,6.33,25.07,5.15,42.85l-18.2,14.52s-38.72,25.42-54.42,24-37.65-42.12-37.65-42.12S601,561.24,605.74,551Z"/>
            <path class="cls-16" d="M681,574.19s18.58-26.12,23.73-30.5"/>
            <path class="cls-16" d="M696.51,592.8s3.11-14.26,5.32-21.14"/>
          </g>
          <g>
            <path class="cls-13" d="M409.23,741.57s69.2,33.77,234.63-53.37c0,0,1.08-3.27-11.71-28.32l-41-55.56s-31.75,19.61-126.39,25.14L424.74,513.19s-70.3-85.41-122.23,0C285,542,316.54,680.21,409.23,741.57Z"/>
            <path class="cls-13" d="M422,647.64s22.57-19.62,54.31-19.07"/>
          </g>
        </g>
        <g>
          <path class="cls-31" d="M659.29,951.08S599,948.9,631,897.34l-77-11.62L710.64,782.6l75,18.88,26.14,55.19-6.17,53.74-16.34,233.83s-48.65,69.71-159.76,8C631,1123.54,658.57,964.15,659.29,951.08Z"/>
          <path class="cls-32" d="M738.13,852.6c-10.73,16-77.92,98.41-77.92,98.41"/>
          <path class="cls-33" d="M650.21,1154.41s117-117.58,133.62-279.52"/>
        </g>
        <g>
          <path class="cls-34" d="M798,773l25.08.72,77.63,15.4s69.69,6.87,84.42,33.53-3.2,78.22-95.23,51.56C847.28,861.83,825.47,841,825.47,841Z"/>
          <path class="cls-35" d="M803.71,843.12l48.19.43s42.5-48.06-16.23-60.33c-7.13-2.16-71.63-16.56-71.63-16.56Z"/>
          <path class="cls-36" d="M631,897.34l-77-11.62S652.36,742,731,773C667.69,805.1,631,897.34,631,897.34Z"/>
          <path class="cls-37" d="M294.75,824s28.41,97.37,136.52,93C502.44,914,535,902.06,599.83,864.07c57.86-33.89,60.42-40.5,103.55-69.12,0,0,49.2-18.52,82.63,17.43,0,0,11.13,15.5,14.4,28.57s5.21,69.46,5.21,69.46l33.77,1.09S843,849.41,814.7,803.66c0,0-15.59-28-58.1-46.47,0,0-136.34-49.38-166.75-51.56s-82.33-5.09-186.17,40.66C354.14,768.12,294.75,824,294.75,824Z"/>
          <path class="cls-33" d="M594.5,867.17s31.46-18.85,51.6-66.23"/>
        </g>
      </g>
    </g>
  </g>
</svg>
