<svg id="Layer_1" data-name="Layer 1" xmlns="http://www.w3.org/2000/svg" xmlns:xlink="http://www.w3.org/1999/xlink" width="1600" height="900" viewBox="0 0 1600 900">
  <defs>
    <style>
      .cls-1 {
        fill: none;
      }

      .cls-2 {
        clip-path: url(#clip-path);
      }

      .cls-3 {
        fill: url(#linear-gradient);
      }

      .cls-4 {
        fill: url(#linear-gradient-2);
      }

      .cls-5 {
        fill: url(#linear-gradient-3);
      }

      .cls-6 {
        fill: url(#linear-gradient-4);
      }

      .cls-7 {
        fill: url(#linear-gradient-5);
      }

      .cls-8 {
        fill: url(#linear-gradient-6);
      }

      .cls-9 {
        fill: #3fb72c;
      }

      .cls-10 {
        fill: url(#linear-gradient-7);
      }

      .cls-11 {
        fill: #51b840;
      }

      .cls-12 {
        opacity: 0.47;
      }

      .cls-13 {
        fill: #1f4b66;
      }

      .cls-14 {
        fill: #23546d;
      }

      .cls-15 {
        fill: #1a465b;
      }

      .cls-16 {
        fill: #29485e;
      }

      .cls-17 {
        fill: #2e5166;
      }

      .cls-18 {
        fill: #e6f6ff;
      }

      .cls-19 {
        fill: #264456;
      }

      .cls-20 {
        fill: url(#linear-gradient-8);
      }

      .cls-21 {
        fill: #6abc46;
      }

      .cls-22 {
        fill: url(#linear-gradient-9);
      }

      .cls-23 {
        fill: url(#linear-gradient-10);
      }

      .cls-24 {
        fill: url(#linear-gradient-11);
      }

      .cls-25 {
        fill: url(#linear-gradient-12);
      }

      .cls-26 {
        fill: url(#linear-gradient-13);
      }

      .cls-27 {
        fill: url(#linear-gradient-14);
      }

      .cls-28 {
        fill: #995145;
      }

      .cls-29 {
        fill: #633d35;
      }

      .cls-30 {
        fill: url(#linear-gradient-15);
      }

      .cls-31 {
        fill: url(#linear-gradient-16);
      }

      .cls-32 {
        fill: url(#linear-gradient-17);
      }

      .cls-33 {
        fill: url(#linear-gradient-18);
      }

      .cls-34 {
        fill: url(#linear-gradient-19);
      }

      .cls-35 {
        fill: url(#linear-gradient-20);
      }

      .cls-36 {
        fill: url(#linear-gradient-21);
      }

      .cls-37 {
        fill: #412210;
      }

      .cls-38 {
        fill: url(#linear-gradient-22);
      }

      .cls-39 {
        fill: url(#linear-gradient-23);
      }

      .cls-40 {
        fill: url(#linear-gradient-24);
      }

      .cls-41 {
        fill: url(#linear-gradient-25);
      }

      .cls-42 {
        fill: url(#linear-gradient-26);
      }

      .cls-43 {
        fill: url(#linear-gradient-27);
      }

      .cls-44 {
        fill: url(#linear-gradient-28);
      }

      .cls-45 {
        fill: url(#linear-gradient-29);
      }

      .cls-46 {
        fill: url(#linear-gradient-30);
      }

      .cls-47 {
        fill: url(#linear-gradient-31);
      }

      .cls-48 {
        fill: url(#linear-gradient-32);
      }

      .cls-49 {
        fill: url(#linear-gradient-33);
      }

      .cls-50 {
        fill: url(#linear-gradient-34);
      }

      .cls-51 {
        fill: url(#linear-gradient-35);
      }

      .cls-52 {
        fill: url(#linear-gradient-36);
      }

      .cls-53 {
        fill: url(#linear-gradient-37);
      }

      .cls-54 {
        fill: url(#linear-gradient-38);
      }

      .cls-55 {
        fill: url(#linear-gradient-39);
      }

      .cls-56 {
        fill: url(#linear-gradient-40);
      }

      .cls-57 {
        fill: url(#linear-gradient-41);
      }

      .cls-58 {
        fill: url(#linear-gradient-42);
      }

      .cls-59 {
        fill: url(#linear-gradient-43);
      }

      .cls-60 {
        fill: url(#linear-gradient-44);
      }

      .cls-61 {
        fill: url(#linear-gradient-45);
      }

      .cls-62 {
        fill: url(#linear-gradient-46);
      }

      .cls-63 {
        fill: url(#linear-gradient-47);
      }

      .cls-64 {
        fill: url(#linear-gradient-48);
      }

      .cls-65 {
        fill: url(#linear-gradient-49);
      }

      .cls-66 {
        fill: url(#linear-gradient-50);
      }

      .cls-67 {
        fill: url(#linear-gradient-51);
      }

      .cls-68 {
        fill: url(#linear-gradient-52);
      }

      .cls-69 {
        fill: url(#linear-gradient-53);
      }

      .cls-70 {
        fill: url(#linear-gradient-54);
      }

      .cls-71 {
        fill: #011904;
      }

      .cls-72 {
        fill: #162d16;
      }

      .cls-73 {
        fill: #323232;
        stroke: #511010;
        opacity: 0.26;
      }

      .cls-102, .cls-103, .cls-73, .cls-75, .cls-77, .cls-78, .cls-79, .cls-80, .cls-82, .cls-86, .cls-89, .cls-99 {
        stroke-miterlimit: 10;
      }

      .cls-74 {
        fill: #342517;
      }

      .cls-75, .cls-83, .cls-86 {
        fill: #f9dad2;
      }

      .cls-75, .cls-77, .cls-78, .cls-79, .cls-86 {
        stroke: #4c2606;
      }

      .cls-75, .cls-77, .cls-78, .cls-79 {
        stroke-width: 0.5px;
      }

      .cls-76 {
        fill: #e8c0b8;
      }

      .cls-77 {
        fill: #5393b7;
      }

      .cls-78 {
        fill: #81c0ea;
      }

      .cls-79 {
        fill: #d3e7f2;
      }

      .cls-80 {
        fill: #e16faa;
        stroke: #323232;
      }

      .cls-81 {
        fill: #ce5f9c;
      }

      .cls-82 {
        fill: #faf079;
        stroke: #9a9435;
      }

      .cls-84 {
        fill: #4c2606;
      }

      .cls-85 {
        fill: #342516;
      }

      .cls-87 {
        fill: #b26b51;
      }

      .cls-88 {
        fill: #eaa698;
        opacity: 0.5;
      }

      .cls-89, .cls-91 {
        fill: #fff;
      }

      .cls-89 {
        stroke: #3d2d16;
        stroke-width: 0.75px;
      }

      .cls-90 {
        fill: #3d2d16;
      }

      .cls-92 {
        fill: #8c3d35;
      }

      .cls-93 {
        fill: #7a2f2b;
      }

      .cls-94 {
        fill: #f9988f;
      }

      .cls-95 {
        fill: #f58778;
      }

      .cls-96 {
        fill: #fff7f4;
      }

      .cls-97 {
        fill: #f48a71;
      }

      .cls-98 {
        fill: #ef4b3b;
      }

      .cls-99 {
        fill: #fe66ca;
      }

      .cls-102, .cls-99 {
        stroke: #af1086;
        stroke-width: 2px;
      }

      .cls-100 {
        fill: #fffa71;
      }

      .cls-101 {
        fill: #cc0098;
      }

      .cls-102 {
        fill: #e852bb;
      }

      .cls-103 {
        fill: #e7d760;
        stroke: #baa73b;
      }

      .cls-104 {
        fill: #42414a;
      }

      .cls-105 {
        fill: #c7c6c5;
      }

      .cls-106 {
        fill: #fbed27;
      }

      .cls-107 {
        fill: #9e4f9d;
      }

      .cls-108 {
        opacity: 0.79;
      }

      .cls-109 {
        clip-path: url(#clip-path-2);
      }

      .cls-110 {
        fill: #aefbff;
      }
    </style>
    <clipPath id="clip-path">
      <rect class="cls-1" width="1600" height="900"/>
    </clipPath>
    <linearGradient id="linear-gradient" x1="813.09" y1="801.34" x2="786.32" y2="-816.34" gradientUnits="userSpaceOnUse">
      <stop offset="0" stop-color="#cbe9f6"/>
      <stop offset="0.13" stop-color="#aad4e2"/>
      <stop offset="0.38" stop-color="#6eaebd"/>
      <stop offset="0.5" stop-color="#569faf"/>
    </linearGradient>
    <linearGradient id="linear-gradient-2" x1="-259.37" y1="834.64" x2="1334.79" y2="203.36" gradientUnits="userSpaceOnUse">
      <stop offset="0.04" stop-color="#6ec0d3"/>
      <stop offset="0.34" stop-color="#67b8c7"/>
      <stop offset="0.5" stop-color="#62b2bf"/>
      <stop offset="0.78" stop-color="#63b3c1"/>
      <stop offset="0.88" stop-color="#67b8c8"/>
      <stop offset="0.95" stop-color="#6ebfd3"/>
      <stop offset="1" stop-color="#78c9e3"/>
    </linearGradient>
    <linearGradient id="linear-gradient-3" x1="332.74" y1="-193.98" x2="1607.81" y2="827.95" gradientUnits="userSpaceOnUse">
      <stop offset="0.68" stop-color="#6ec2d6"/>
      <stop offset="0.88" stop-color="#6fc2d7"/>
    </linearGradient>
    <linearGradient id="linear-gradient-4" x1="178.48" y1="955.3" x2="1600.09" y2="239.33" gradientTransform="translate(-0.46 0.61)" gradientUnits="userSpaceOnUse">
      <stop offset="0.1" stop-color="#177e70"/>
      <stop offset="0.34" stop-color="#178877"/>
      <stop offset="0.5" stop-color="#169078"/>
      <stop offset="0.72" stop-color="#169679"/>
    </linearGradient>
    <linearGradient id="linear-gradient-5" x1="-299.61" y1="852.74" x2="1984" y2="852.74" gradientUnits="userSpaceOnUse">
      <stop offset="0.19" stop-color="#4ea40f"/>
      <stop offset="0.21" stop-color="#4ca40f"/>
      <stop offset="0.66" stop-color="#2c9b0a"/>
      <stop offset="0.91" stop-color="#209808"/>
    </linearGradient>
    <linearGradient id="linear-gradient-6" x1="-286.96" y1="770.42" x2="1780.75" y2="770.42" gradientUnits="userSpaceOnUse">
      <stop offset="0.19" stop-color="#2a7717"/>
      <stop offset="0.21" stop-color="#2a7a19"/>
      <stop offset="0.44" stop-color="#2c9327"/>
      <stop offset="0.66" stop-color="#2da22f"/>
      <stop offset="0.83" stop-color="#2da732"/>
    </linearGradient>
    <linearGradient id="linear-gradient-7" x1="-320.73" y1="705.67" x2="1839.34" y2="697.83" gradientUnits="userSpaceOnUse">
      <stop offset="0.18" stop-color="#193748"/>
      <stop offset="0.25" stop-color="#223d4f"/>
      <stop offset="0.47" stop-color="#3b4d63"/>
      <stop offset="0.67" stop-color="#4a576f"/>
      <stop offset="0.83" stop-color="#4f5a73"/>
    </linearGradient>
    <linearGradient id="linear-gradient-8" x1="1492.93" y1="672.44" x2="1628.35" y2="114.88" gradientUnits="userSpaceOnUse">
      <stop offset="0" stop-color="#a5533d"/>
      <stop offset="0.24" stop-color="#7b533f"/>
      <stop offset="0.55" stop-color="#415441"/>
    </linearGradient>
    <linearGradient id="linear-gradient-9" x1="1406.38" y1="294.11" x2="1782.09" y2="-127.11" gradientUnits="userSpaceOnUse">
      <stop offset="0" stop-color="#0d5f3f"/>
      <stop offset="0.27" stop-color="#157d66"/>
      <stop offset="0.43" stop-color="#198a77"/>
      <stop offset="0.76" stop-color="#1fa98a"/>
    </linearGradient>
    <linearGradient id="linear-gradient-10" x1="1254.43" y1="358.15" x2="1429.55" y2="139.74" gradientUnits="userSpaceOnUse">
      <stop offset="0" stop-color="#0d5f3f"/>
      <stop offset="0.33" stop-color="#0c7151"/>
      <stop offset="0.34" stop-color="#0c7151"/>
      <stop offset="0.76" stop-color="#077458"/>
    </linearGradient>
    <linearGradient id="linear-gradient-11" x1="1254.43" y1="360.56" x2="1429.55" y2="142.15" gradientUnits="userSpaceOnUse">
      <stop offset="0.04" stop-color="#0d5e3f"/>
      <stop offset="0.45" stop-color="#0d6f4f"/>
      <stop offset="0.62" stop-color="#0b7455"/>
      <stop offset="0.75" stop-color="#077b5e"/>
    </linearGradient>
    <linearGradient id="linear-gradient-12" x1="1342.88" y1="172.58" x2="1926.65" y2="172.58" gradientUnits="userSpaceOnUse">
      <stop offset="0" stop-color="#0d5f3f"/>
      <stop offset="0.06" stop-color="#06724c"/>
      <stop offset="0.09" stop-color="#008055"/>
      <stop offset="0.23" stop-color="#1b9261"/>
      <stop offset="0.41" stop-color="#3aa66f"/>
      <stop offset="0.57" stop-color="#4db378"/>
      <stop offset="0.67" stop-color="#54b77b"/>
    </linearGradient>
    <linearGradient id="linear-gradient-13" x1="1299.48" y1="199.56" x2="1991.38" y2="151.68" gradientUnits="userSpaceOnUse">
      <stop offset="0.21" stop-color="#0e6747"/>
      <stop offset="0.35" stop-color="#157a55"/>
      <stop offset="0.55" stop-color="#20996c"/>
      <stop offset="0.61" stop-color="#2b9f6d"/>
      <stop offset="0.71" stop-color="#48ae71"/>
      <stop offset="0.8" stop-color="#66be74"/>
    </linearGradient>
    <linearGradient id="linear-gradient-14" x1="-96.75" y1="685.13" x2="41.54" y2="115.75" xlink:href="#linear-gradient-8"/>
    <linearGradient id="linear-gradient-15" x1="165.79" y1="236.18" x2="348.55" y2="46.43" gradientUnits="userSpaceOnUse">
      <stop offset="0" stop-color="#0d5f3f"/>
      <stop offset="0.16" stop-color="#06724b"/>
      <stop offset="0.28" stop-color="#008355"/>
      <stop offset="0.42" stop-color="#24985c"/>
      <stop offset="0.56" stop-color="#43a961"/>
      <stop offset="0.68" stop-color="#56b465"/>
      <stop offset="0.76" stop-color="#5db866"/>
    </linearGradient>
    <linearGradient id="linear-gradient-16" x1="-203.75" y1="328.92" x2="215.77" y2="-141.41" xlink:href="#linear-gradient-9"/>
    <linearGradient id="linear-gradient-17" x1="725.72" y1="269.99" x2="591.75" y2="-1.57" gradientTransform="matrix(-1, 0, 0, 1, 1022.86, 0)" gradientUnits="userSpaceOnUse">
      <stop offset="0" stop-color="#0d5f3f"/>
      <stop offset="0.05" stop-color="#06724b"/>
      <stop offset="0.09" stop-color="#008355"/>
      <stop offset="0.26" stop-color="#24985c"/>
      <stop offset="0.43" stop-color="#43a961"/>
      <stop offset="0.57" stop-color="#56b465"/>
      <stop offset="0.67" stop-color="#5db866"/>
    </linearGradient>
    <linearGradient id="linear-gradient-18" x1="-282.32" y1="185.41" x2="386.75" y2="185.41" xlink:href="#linear-gradient-12"/>
    <linearGradient id="linear-gradient-19" x1="-331.68" y1="215.95" x2="461.56" y2="161.06" xlink:href="#linear-gradient-13"/>
    <linearGradient id="linear-gradient-20" x1="-447.03" y1="737.29" x2="367.81" y2="326.91" gradientTransform="translate(-3.85 -5.57) rotate(-0.42)" gradientUnits="userSpaceOnUse">
      <stop offset="0.13" stop-color="#16595a"/>
      <stop offset="0.21" stop-color="#226456"/>
      <stop offset="0.34" stop-color="#3c7c4c"/>
      <stop offset="0.34" stop-color="#3c7c4c"/>
      <stop offset="0.55" stop-color="#4c8648"/>
      <stop offset="0.72" stop-color="#528a46"/>
    </linearGradient>
    <linearGradient id="linear-gradient-21" x1="1070.49" y1="886.53" x2="1952.41" y2="442.37" gradientUnits="userSpaceOnUse">
      <stop offset="0.09" stop-color="#258363"/>
      <stop offset="0.34" stop-color="#248363"/>
      <stop offset="0.34" stop-color="#248363"/>
      <stop offset="0.56" stop-color="#209364"/>
      <stop offset="0.73" stop-color="#1f9964"/>
    </linearGradient>
    <linearGradient id="linear-gradient-22" x1="11.91" y1="748.78" x2="7.28" y2="534.39" gradientUnits="userSpaceOnUse">
      <stop offset="0.09" stop-color="#4a2d06"/>
      <stop offset="0.28" stop-color="#562f06"/>
      <stop offset="0.45" stop-color="#643106"/>
      <stop offset="0.71" stop-color="#623007"/>
      <stop offset="0.8" stop-color="#5b2c0a"/>
      <stop offset="0.86" stop-color="#50260f"/>
      <stop offset="0.89" stop-color="#482213"/>
    </linearGradient>
    <linearGradient id="linear-gradient-23" x1="60.98" y1="748.78" x2="56.36" y2="534.39" xlink:href="#linear-gradient-22"/>
    <linearGradient id="linear-gradient-24" x1="107.74" y1="748.78" x2="103.12" y2="534.39" xlink:href="#linear-gradient-22"/>
    <linearGradient id="linear-gradient-25" x1="162.75" y1="748.78" x2="158.13" y2="534.39" xlink:href="#linear-gradient-22"/>
    <linearGradient id="linear-gradient-26" x1="227.45" y1="748.78" x2="222.83" y2="534.39" xlink:href="#linear-gradient-22"/>
    <linearGradient id="linear-gradient-27" x1="294.33" y1="748.78" x2="289.7" y2="534.39" xlink:href="#linear-gradient-22"/>
    <linearGradient id="linear-gradient-28" x1="335.59" y1="748.78" x2="330.97" y2="534.39" xlink:href="#linear-gradient-22"/>
    <linearGradient id="linear-gradient-29" x1="382.35" y1="748.78" x2="377.73" y2="534.39" xlink:href="#linear-gradient-22"/>
    <linearGradient id="linear-gradient-30" x1="437.37" y1="748.78" x2="432.74" y2="534.39" xlink:href="#linear-gradient-22"/>
    <linearGradient id="linear-gradient-31" x1="486.44" y1="748.78" x2="481.82" y2="534.39" xlink:href="#linear-gradient-22"/>
    <linearGradient id="linear-gradient-32" x1="533.2" y1="748.78" x2="528.57" y2="534.39" xlink:href="#linear-gradient-22"/>
    <linearGradient id="linear-gradient-33" x1="588.21" y1="748.78" x2="583.59" y2="534.39" xlink:href="#linear-gradient-22"/>
    <linearGradient id="linear-gradient-34" x1="647.93" y1="748.78" x2="643.31" y2="534.39" xlink:href="#linear-gradient-22"/>
    <linearGradient id="linear-gradient-35" x1="694.69" y1="748.78" x2="690.07" y2="534.39" xlink:href="#linear-gradient-22"/>
    <linearGradient id="linear-gradient-36" x1="749.7" y1="748.78" x2="745.08" y2="534.39" xlink:href="#linear-gradient-22"/>
    <linearGradient id="linear-gradient-37" x1="798.78" y1="748.78" x2="794.15" y2="534.39" xlink:href="#linear-gradient-22"/>
    <linearGradient id="linear-gradient-38" x1="845.53" y1="748.78" x2="840.91" y2="534.39" xlink:href="#linear-gradient-22"/>
    <linearGradient id="linear-gradient-39" x1="900.55" y1="748.78" x2="895.92" y2="534.39" xlink:href="#linear-gradient-22"/>
    <linearGradient id="linear-gradient-40" x1="971.51" y1="748.78" x2="966.89" y2="534.39" xlink:href="#linear-gradient-22"/>
    <linearGradient id="linear-gradient-41" x1="1018.27" y1="748.78" x2="1013.64" y2="534.39" xlink:href="#linear-gradient-22"/>
    <linearGradient id="linear-gradient-42" x1="1073.28" y1="748.78" x2="1068.66" y2="534.39" xlink:href="#linear-gradient-22"/>
    <linearGradient id="linear-gradient-43" x1="1122.35" y1="748.78" x2="1117.73" y2="534.39" xlink:href="#linear-gradient-22"/>
    <linearGradient id="linear-gradient-44" x1="1169.11" y1="748.78" x2="1164.49" y2="534.39" xlink:href="#linear-gradient-22"/>
    <linearGradient id="linear-gradient-45" x1="1224.13" y1="748.78" x2="1219.5" y2="534.39" xlink:href="#linear-gradient-22"/>
    <linearGradient id="linear-gradient-46" x1="1280.91" y1="748.78" x2="1276.28" y2="534.39" xlink:href="#linear-gradient-22"/>
    <linearGradient id="linear-gradient-47" x1="1327.67" y1="748.78" x2="1323.04" y2="534.39" xlink:href="#linear-gradient-22"/>
    <linearGradient id="linear-gradient-48" x1="1382.68" y1="748.78" x2="1378.06" y2="534.39" xlink:href="#linear-gradient-22"/>
    <linearGradient id="linear-gradient-49" x1="1431.75" y1="748.78" x2="1427.13" y2="534.39" xlink:href="#linear-gradient-22"/>
    <linearGradient id="linear-gradient-50" x1="1478.51" y1="748.78" x2="1473.89" y2="534.39" xlink:href="#linear-gradient-22"/>
    <linearGradient id="linear-gradient-51" x1="1533.52" y1="748.78" x2="1528.9" y2="534.39" xlink:href="#linear-gradient-22"/>
    <linearGradient id="linear-gradient-52" x1="1598.22" y1="748.78" x2="1593.6" y2="534.39" xlink:href="#linear-gradient-22"/>
    <linearGradient id="linear-gradient-53" x1="65.83" y1="799.5" x2="217.52" y2="677.01" gradientUnits="userSpaceOnUse">
      <stop offset="0" stop-color="#3b2416"/>
      <stop offset="0.08" stop-color="#4d3019"/>
      <stop offset="0.24" stop-color="#6d431f"/>
      <stop offset="0.41" stop-color="#865223"/>
      <stop offset="0.59" stop-color="#975d27"/>
      <stop offset="0.78" stop-color="#a26428"/>
      <stop offset="1" stop-color="#a56629"/>
    </linearGradient>
    <linearGradient id="linear-gradient-54" x1="195.53" y1="772.63" x2="277.12" y2="772.63" xlink:href="#linear-gradient-53"/>
    <clipPath id="clip-path-2">
      <rect class="cls-1" x="-7.11" width="1608.11" height="904.56" transform="translate(1593.89 904.56) rotate(-180)"/>
    </clipPath>
  </defs>
  <g class="cls-2">
    <g>
      <rect class="cls-3" x="-304" y="-63.37" width="2218" height="751.41"/>
      <path class="cls-4" d="M-800,378.45A826.27,826.27,0,0,1-625.25,348.5c46-2.85,145.7-8.19,266.37,25.46,115.48,32.21,122.69,64.59,178.94,53.83,55.63-10.64,68.63-46.13,176.71-120.53,56.41-38.83,105.45-65.35,127.68-76.43,137.25-68.38,273.41-57.4,319.88-52,30.79,3.56,195,25,349.24,163.41,78.74,70.65,126.74,146.5,153.85,196.92,53-33.89,132.63-77.2,235.72-105.65,19.93-5.51,179-49.41,197-8.36,14.51,33.14-76.38,90.75-62.5,124.37,17.48,42.33,181.71-2.13,236.84-12.25,144.92-26.6,255.5-86.11,324.76-131.07,265.38-171.62,14.37-9,14.37-9q3,126.44,6,252.87l-2621.37-3Q-760.92,512.75-800,378.45Z"/>
      <path class="cls-5" d="M519.2,672.39a932.53,932.53,0,0,1,135.39-67.86c145.93-58.84,214.36-43,316.29-73.29,168.63-50.09,167.05-148.57,343.28-246.86,81-45.2,206-93.86,389.85-96.25q-2.43,239-4.85,478Z"/>
      <path class="cls-6" d="M183.66,674.12s79.69-73.66,223.14-35.79c74.91-57.76,194.45,0,194.45,0,22.32-73.7,130.7,5.06,130.7,5.06s25.5-37,154.6-2.91c105.2-16.88,130.7,22.76,130.7,22.76C1061.88,665,1301,674.12,1301,674.12Z"/>
      <path class="cls-7" d="M-299.61,889.93Q61.47,916.35,422.6,936.25q780.49,43,1561.4,55.75l-24.29-239.68-2254-38.85Q-296.93,801.7-299.61,889.93Z"/>
      <path class="cls-8" d="M-287,732.31v76.23s764.52-34.5,912.87-26,419.26,23.89,442.45,18.77,34.52-15.35,20.1-30.71,19.57-20.48,76.23-20.48,384.26-8.53,402.81-6.83,213.25,10.24,213.25,10.24V732.31"/>
      <path class="cls-9" d="M1047.25,796.08s-39.32-9-24.55-18.46,28,18.46,28,18.46-17.81-30.07-3.42-34.29,7.19,34.29,7.19,34.29,21.55-41.25,25.77-28.49-21.63,28.49-21.63,28.49"/>
      <rect class="cls-10" x="-291.18" y="671.71" width="1990.34" height="60.49"/>
      <path class="cls-11" d="M1268.44,754.06s8.13-46.63,25.92-44.58S1268.44,754.06,1268.44,754.06Z"/>
      <path class="cls-11" d="M1236.93,751.39s-31.94-48-30.7-61.7S1245.18,727.61,1236.93,751.39Z"/>
      <path class="cls-11" d="M1254.05,751.32s-22.55-39.83-17.12-50.73S1254.79,739.11,1254.05,751.32Z"/>
      <path class="cls-11" d="M1162.31,751.39s-47.21-26.85-37-38.48S1134.25,710.5,1162.31,751.39Z"/>
      <g class="cls-12">
        <path class="cls-13" d="M896.33,82.79a44,44,0,0,0,9.56,11.88c12.31,11,30.83,16.37,49.32,15l10-.74,1.85,1.92c16.24,16.7,43.33,24.85,69.14,19.82,7.92-1.54,16.24-3.41,23.25-6.79,6.37-3.07,13-8.48,13.45-14.72,1.66,2.4,5,5,6.63,6.35,14.26,11.32,30.07,11,48.41,9.87,20-1.18,42.18-9.85,42.73-27.83,0-1,.11-1.84.28-3.63,9,4.51,15.37,9.43,26.49,11.1a62.06,62.06,0,0,0,28.06-2.12,40.36,40.36,0,0,0,17.82-11.74,28.44,28.44,0,0,0,5.43-9.13,21.35,21.35,0,0,0,1.11-10.38c-1.91-13.05-14.8-26.46-31.16-24.51,6.32-12.2-1.18-25.06-13.26-34.12s-29.72-14.95-44.73-9.27c-1.71-20.56-25.57-35.35-51.4-37.39s-52.18,12.37-59,32.26c-35.57-13.17-83.61,6.17-91.24,36.72-24.42-11-58.73,3.29-65.54,24.6a24.8,24.8,0,0,0-1,4.34A29.88,29.88,0,0,0,896.33,82.79Z"/>
        <g>
          <path class="cls-14" d="M893.59,60c7.74-13.5,25.5-21.11,40.18-22,21.54-1.31,29.82,6.58,29.82,6.58,1.66-17.09,11.6-32.87,43.08-40.76s48,5.26,48,5.26c1.57-12.44,10.69-23,23.47-30,14.55-8,35.22-8.22,51-2.45,17.11,6.27,22.67,19,21.64,33.74,6.62-2.63,16.25-2.27,17.79-2.4,14.05-1.21,28.35,5.27,37.13,13.66,4.14,4,7.28,8.67,8.32,13.78.4,1.93-.28,11.78-3.6,15.72a50.44,50.44,0,0,1,19.88,3.95c16.57,6.57,18.51,26.44,18.46,27a21.35,21.35,0,0,0,1.11-10.38c-1.91-13.05-14.8-26.46-31.16-24.51,6.32-12.2-1.18-25.06-13.26-34.12s-29.72-14.95-44.73-9.27c-1.71-20.56-25.57-35.35-51.4-37.39s-52.18,12.37-59,32.26c-35.57-13.17-83.61,6.17-91.24,36.72C934.71,24.36,900.4,38.65,893.59,60Z"/>
          <path class="cls-14" d="M1101.19,16.59s-42.71-31.89-86.15.65C1015,17.24,1052.64,1.41,1101.19,16.59Z"/>
          <path class="cls-14" d="M1165.82,50.65s-50.15-40.87-101.1.77C1064.72,51.42,1108.83,31.17,1165.82,50.65Z"/>
          <path class="cls-14" d="M996.72,50.77s-34.42-25.71-69.43.52C927.29,51.29,957.59,38.53,996.72,50.77Z"/>
          <path class="cls-14" d="M1207.14,15.6c-31.48-17.09-69.44-1.12-69.44-1.12C1172.71-11.75,1207.14,15.6,1207.14,15.6Z"/>
        </g>
        <g>
          <path class="cls-15" d="M896.33,82.79a44,44,0,0,0,9.56,11.88c12.31,11,30.83,16.37,49.32,15l10-.74,1.85,1.92c16.24,16.7,43.33,24.85,69.14,19.82,7.92-1.54,16.24-3.41,23.25-6.79,6.37-3.07,13-8.48,13.45-14.72,1.66,2.4,5,5,6.63,6.35,14.26,11.32,30.07,11,48.41,9.87,20-1.18,42.18-9.85,42.73-27.83,0-1,.11-1.84.28-3.63,9,4.51,15.37,9.43,26.49,11.1a62.06,62.06,0,0,0,28.06-2.12,40.36,40.36,0,0,0,17.82-11.74c-16.22,2.56-55.59,10.29-76-5.89,1.35,1.08-10.21,10.71-11.12,11.37-12,8.81-28.58,11.74-44.54,11.06a125.2,125.2,0,0,1-24.27-3.55,51.89,51.89,0,0,1-16.17-7C1063,109,1036.06,116.74,1003.35,109c0,0-23.19-5.26-31.48-19.72C971.87,89.23,927.41,98.83,896.33,82.79Z"/>
          <path class="cls-15" d="M998.38,78.71s-34.15,21.86-72.7,0C925.68,78.71,960.93,119.8,998.38,78.71Z"/>
          <path class="cls-15" d="M1206.53,77.05s-29.57,13.47-63,0C1143.58,77.05,1174.1,102.38,1206.53,77.05Z"/>
          <path class="cls-15" d="M1120.38,82.09s-46.3,26.94-98.58,0C1021.8,82.09,1069.6,132.74,1120.38,82.09Z"/>
        </g>
      </g>
      <g class="cls-12">
        <path class="cls-16" d="M536.36,93.81a31.54,31.54,0,0,0,44.12,7.46c15.37,10.55,28.89,9.14,41.74-4.38,19,14,36.33-3.37,33.08-18.86h0a18.67,18.67,0,0,0-4.55-8.76A25.72,25.72,0,0,0,641.58,63c17.93-47.07-59.4-75.28-76-27.73-24.22-28.45-72.17.9-61,34.4h0c.24.74.51,1.47.82,2.19s.52,1.24.81,1.85a13.33,13.33,0,0,0-4,5.56v0C496.55,94.92,529.66,114.26,536.36,93.81Z"/>
        <path class="cls-17" d="M504.6,69.65c.55-2.72,2.54-8.4,7.81-19.94,12-26.22,52.57-10.2,56.31-5.4,18.19-21.36,58.06-17.39,63.6,9-24.24,2.14-35.1,13-38.46,22.57,35-20.55,56.89-6.63,56.89-6.63A25.72,25.72,0,0,0,641.58,63c17.93-47.07-59.4-75.28-76-27.73C541.37,6.8,493.42,36.15,504.6,69.65Z"/>
        <path class="cls-18" d="M504.65,72c.29.23.77-.16.77-.16Z"/>
        <path class="cls-19" d="M536.36,93.81a31.54,31.54,0,0,0,44.12,7.46c15.37,10.55,28.89,9.14,41.74-4.38,19,14,36.33-3.37,33.08-18.86-.69,14.11-26.36,10.08-32.72,6-7.62,15-27.11,4.43-35.93,1.37,7.15,6.78-10.64,14.43-24.27,8.94s-8-25.68-1.27-35.46c-13.52,10.9-23.83,13.67-40.36,14.32,14.53-.47,21.67,15.47,0,17.12-21.06,1.62-18.73-10.44-18.6-11.07C496.55,94.92,529.66,114.26,536.36,93.81Z"/>
      </g>
      <g>
        <path class="cls-20" d="M1515.09,272.79s35.21,22.95,34.54,56.31c-.11,5.87.34,23.78-11.56,31.61-8.28,5.45-18.29,3.28-19.8,2.93-18.68-4.32-29.81-27.34-40.7-49.89-8.92-18.44-13-32.83-23.59-34.43-1.27-.19-5.39-.81-7.92,1.61-7.89,7.52,5.73,38.51,21,60.39,12,17.18,22.4,25,19.7,35.45-2.1,8.12-10.68,12.23-11.5,12.61-6.87,3.18-14.51,2.14-25.27-2.1a124.49,124.49,0,0,1-41-26.94c-26.74-27.64-48.14-57.17-61.37-76.79l-9.19,9.19,17.07,28.89c-2.16-3.6-12.15-19.35-31.51-23.63a46.23,46.23,0,0,0-19.69,0c10.07,3.86,24.59,11.05,36.76,24.94,13.3,15.18,13.92,27.08,27.57,48.58,10.17,16,22.38,29.17,31.51,36.76,31.74,26.41,74.44,25.73,95.85,23.64,8.93,1.08,20.87,4.12,30.2,13.13,4,3.85,18.93,19.95,9.34,84.13,0,0-5.36,35.84-32.9,116l147.06.7c17.9,6.35,51.28,16.37,60.85,3.74,4.81-6.34,1.83-16,.48-20.47-16.55-54.22-29-95.69-34.1-129.64-3.22-21.63-3.42-40.21.26-57.09,1.26-5.82,10.93-47.66,40.7-59.08,16.42-6.3,24,2.43,47.26,0,45.35-4.73,75-43.86,77.47-47.27,23.08-31.39,29.73-76.58,29.73-76.58l-19.57,2.85c-.9,7.92-6.36,49.71-37.73,65.85-3.72,1.92-20.87,10.74-31.38,3.57-14.76-10.09-5.7-44.34-4-47.55,6.32-12.27,21.07-35.65,21.07-35.65L1752,254.67c2.3,29.6-8.1,55.64-28,66.52-2.65,1.45-17.81,9.74-29.86,3.55-14.57-7.48-20.78-34.22-9.41-65.25L1666.82,253s-11,103.79-27.39,114.46C1611,385.88,1589.9,323,1597.28,259.49h-21.07s13.69,69.44-3.16,44.64c-6-8.88-17-19.57-33.72-31.34"/>
        <path class="cls-21" d="M1690.05-4.42c149.57,44.83,164.43,98.45,161.38,123,0,0,.32,42.05-154.11,84.51h0s-90.55,34.75-257.82,16.52c-50.76-5.53-134.5-27.5-146.08-76.59-8.52-36.12,26.32-72.91,38.92-86.21C1435-51.6,1639.73-14.68,1690.05-4.42Z"/>
        <path class="cls-22" d="M1685.34-3.41c149.58,44.71,164.46,98.12,161.42,122.58,0,0,.34,41.88-154.06,84.1h0s-90.54,34.57-257.81,16.34c-50.75-5.53-134.5-27.45-146.1-76.35-8.54-36,26.29-72.6,38.88-85.84C1430.28-50.51,1635-13.65,1685.34-3.41Z"/>
        <path class="cls-23" d="M1200.57,256.16s-7.8-33.39,28-62.41c20.21-16.37,82.87-60.64,150.32-15.18C1456.35,230.74,1540.07,289,1422.77,294S1212.8,300.12,1200.57,256.16Z"/>
        <path class="cls-24" d="M1200.57,258.57s-7.8-33.39,28-62.41c20.21-16.37,82.87-60.64,150.32-15.18,77.41,52.17,161.13,110.46,43.83,115.41S1212.8,302.53,1200.57,258.57Z"/>
        <path class="cls-25" d="M1486.1,288.93c16.67,2.34,19.47,1.45,84.36,1.39,13.81,0,72.52,0,190.56-3.74,49.64-1.56,124.43-12.9,144.78-22.27,6.79-3.13,20.34-10.64,20.82-31.2,1.11-46.85-39.9-73.82-52.83-87-12.06-12.25-42.56-27.07-50.65-30.34C1724.53,76,1644.38,63.87,1644.38,63.87c-19.18-4.41-170.33-36.9-256.51,53.84-7.93,8.34-56.65,59.06-42.39,103.1C1361.91,271.54,1452.38,284.21,1486.1,288.93Z"/>
        <path class="cls-26" d="M1483.42,293.36c16.66,2.33,19.46,1.44,84.36,1.38,13.81,0,72.51,0,190.55-3.74,49.64-1.56,124.43-12.89,144.78-22.27,6.8-3.13,20.34-10.63,20.83-31.2,1.1-46.85-39.91-73.82-52.83-87-12.06-12.25-42.56-27.07-50.66-30.34-98.61-39.83-178.76-51.94-178.76-51.94-19.17-4.41-170.33-36.9-256.51,53.84-7.92,8.34-56.65,59.06-42.38,103.1C1359.23,276,1449.7,288.63,1483.42,293.36Z"/>
      </g>
      <g>
        <path class="cls-27" d="M-84.94,284.83s40.35,22.77,39.58,55.87c-.13,5.82.39,23.59-13.25,31.36-9.48,5.4-21,3.25-22.69,2.91-21.41-4.29-34.17-27.13-46.65-49.5-10.22-18.3-14.91-32.58-27-34.16-1.45-.19-6.17-.81-9.08,1.59-9,7.46,6.57,38.21,24.08,59.92,13.74,17,25.66,24.82,22.57,35.17-2.4,8.05-12.23,12.14-13.17,12.51-7.88,3.16-16.64,2.12-29-2.09a145.23,145.23,0,0,1-47-26.72c-30.65-27.42-55.16-56.72-70.33-76.18l-10.53,9.12,19.56,28.65A57.81,57.81,0,0,0-304,309.84a61.28,61.28,0,0,0-22.58,0c11.54,3.83,28.19,11,42.14,24.75,15.24,15.05,15.95,26.86,31.6,48.19,11.66,15.89,25.65,28.94,36.11,36.47,36.38,26.21,85.32,25.53,109.85,23.45,10.24,1.08,23.93,4.09,34.62,13,4.57,3.82,21.7,19.79,10.7,83.46,0,0-6.14,35.57-37.7,115.09l168.55.7c20.51,6.29,58.77,16.23,69.74,3.71,5.51-6.29,2.09-15.92.54-20.31-19-53.8-33.28-94.94-39.07-128.62-3.69-21.46-3.93-39.89.29-56.64,1.45-5.77,12.52-47.28,46.65-58.61,18.82-6.26,27.45,2.41,54.17,0,52-4.7,85.91-43.52,88.78-46.9,26.45-31.14,34.07-76,34.07-76L302,274.46c-1,7.86-7.29,49.32-43.25,65.34-4.26,1.89-23.92,10.65-36,3.53-16.92-10-6.54-44-4.64-47.17,7.24-12.18,24.15-35.37,24.15-35.37l-55.78,6.06c2.64,29.37-9.28,55.2-32.05,66-3,1.44-20.41,9.67-34.22,3.53-16.71-7.43-23.82-33.95-10.79-64.74L89,265.14s-12.57,103-31.4,113.56C25,397,.8,334.64,9.25,271.63H-14.9s15.7,68.9-3.62,44.29c-6.92-8.8-19.43-19.41-38.65-31.09"/>
        <path class="cls-28" d="M98.35,517.64c-11.1-4.06-36.1,22-49.91,43.19-10,15.42-24.5,44.1-23.27,87.23l1.44,11.17,115.26-12c-10.62-29.71-17.64-51.57-22.2-66.5-4.2-13.77-10-27.19-13.37-41.13C102.7,524.7,102.72,519.24,98.35,517.64Z"/>
        <path class="cls-29" d="M87,611.34a14.44,14.44,0,0,1-5.5-.47,26.34,26.34,0,0,1-5.19-2,19.76,19.76,0,0,1-4.65-3.2,8.92,8.92,0,0,1-1.82-2.33,5.08,5.08,0,0,1-.61-3.12,5.18,5.18,0,0,1,1.46-2.86,10.1,10.1,0,0,1,1.14-1c.41-.27.81-.57,1.23-.82a21,21,0,0,1,5.35-2.18,15.85,15.85,0,0,1,2.9-.5,23.85,23.85,0,0,1,2.93,0,25.3,25.3,0,0,1,5.66,1.16A34.37,34.37,0,0,1,100,599.37a33,33,0,0,1,7.9,8.33,19.32,19.32,0,0,1,2.5,5.38,16.7,16.7,0,0,1,.59,3l0,1.57a9.54,9.54,0,0,1-.17,1.58,11.87,11.87,0,0,1-2.63,5.7,16.78,16.78,0,0,1-4.7,3.83,36.05,36.05,0,0,1-10.89,3.68,58.64,58.64,0,0,1-11.23,1.09,47.09,47.09,0,0,1-11.26-1.32,34.49,34.49,0,0,1-10.51-4.43,27,27,0,0,1-8.1-8.07,24.58,24.58,0,0,1-2.44-5.19A22.9,22.9,0,0,1,48,608.92a25.58,25.58,0,0,1,1.83-11,32.55,32.55,0,0,1,5.71-9.44,36.43,36.43,0,0,0-4.87,9.74,24.33,24.33,0,0,0-1,10.59,21.22,21.22,0,0,0,1.25,5.11,22.33,22.33,0,0,0,2.46,4.63,25.23,25.23,0,0,0,7.64,7,38.67,38.67,0,0,0,20.36,4.79A59.59,59.59,0,0,0,92,629.21a33.41,33.41,0,0,0,9.83-3.36,13.32,13.32,0,0,0,3.81-3,8.56,8.56,0,0,0,2-4.13,7.5,7.5,0,0,0,.13-1.15v-1.18a13.16,13.16,0,0,0-.46-2.38,17.56,17.56,0,0,0-2.07-4.58,29.88,29.88,0,0,0-7-7.69A33.88,33.88,0,0,0,89,596.53,22.41,22.41,0,0,0,84,595.31a18.45,18.45,0,0,0-2.57-.14,15.09,15.09,0,0,0-2.52.31A19,19,0,0,0,74,597.2c-.38.2-.73.44-1.09.65a9,9,0,0,0-.94.77,3.54,3.54,0,0,0-1.13,1.89c-.31,1.4.53,3,1.72,4.28a18.27,18.27,0,0,0,4.17,3.31,26.45,26.45,0,0,0,4.91,2.29A14.35,14.35,0,0,0,87,611.34Z"/>
        <path class="cls-30" d="M131.68,136.85s40.88-17.72,105.14-17.46S373,158.77,353.17,183.67s-32,39.21-121,39S41.72,184.38,131.68,136.85Z"/>
        <path class="cls-21" d="M115.58,9.8c171.43,44.48,188.45,97.68,185,122,0,0,.36,41.71-176.63,83.84h0s-103.78,34.47-295.5,16.39c-58.17-5.49-154.14-27.29-167.42-76-9.76-35.83,30.17-72.33,44.61-85.53C-176.74-37,57.91-.38,115.58,9.8Z"/>
        <path class="cls-31" d="M110.18,10.81c171.44,44.36,188.49,97.35,185,121.61,0,0,.38,41.55-176.58,83.44h0S14.85,250.15-176.86,232.07C-235,226.58-331,204.83-344.31,156.32c-9.79-35.69,30.12-72,44.56-85.16C-182.15-35.92,52.5.65,110.18,10.81Z"/>
        <path class="cls-21" d="M444.18,259.8S398.87,270.41,197,271.72l.32-139.93c4.76-1.3,39.36-8.15,127,15.29C430.78,175.55,524.08,236.35,455.15,257"/>
        <path class="cls-32" d="M443.57,262.36S398.26,273,196.37,274.27l.33-139.92c4.75-1.3,39.36-8.16,127,15.28,106.47,28.48,199.76,89.28,130.84,109.93"/>
        <path class="cls-33" d="M-118.17,300.85c19.1,2.31,22.31,1.43,96.69,1.37,15.83,0,83.11,0,218.4-3.71,56.89-1.55,142.6-12.79,165.93-22.1,7.79-3.1,23.32-10.55,23.87-31C388,199,341,172.22,326.17,159.19c-13.82-12.16-48.78-26.86-58.06-30.1C155.1,89.57,63.23,77.55,63.23,77.55c-22-4.37-195.22-36.61-294,53.42-9.08,8.28-64.93,58.59-48.58,102.29C-260.51,283.58-156.81,296.16-118.17,300.85Z"/>
        <path class="cls-34" d="M-121.25,305.23c19.1,2.32,22.31,1.44,96.69,1.37,15.83,0,83.11,0,218.4-3.71,56.89-1.54,142.61-12.79,165.93-22.09,7.79-3.11,23.32-10.55,23.87-31,1.27-46.49-45.74-73.24-60.55-86.27-13.82-12.16-48.78-26.86-58.06-30.1C152,94,60.15,81.94,60.15,81.94c-22-4.37-195.22-36.61-294,53.42-9.08,8.27-64.93,58.59-48.58,102.29C-263.59,288-159.89,300.55-121.25,305.23Z"/>
      </g>
      <path class="cls-35" d="M-394.43,412.32s110.32-31.71,86.07,45.24c80-45.74,126.38-4.3,116.06,38.68C-130.93,489-76,574.42-119.5,598.45c0,0,62.38-32.07,125.33,14.9a233,233,0,0,1,132.57-5.77A232.91,232.91,0,0,1,251,674.22q-174.17-3-348.34-3.25-147.61-.16-295.23,1.73Z"/>
      <path class="cls-36" d="M1081.7,727s54.4-46.88,136-29.69c14-25.79,65.81-36.73,123.72-7-36.37-46.91-29.72-36.35-30-36.2s-4.94-5.78-6.84-9.13c-5.9-10.37-4.8-27.86,3.47-32.27,10.76-5.74,33.65,10.7,45.67,26a73.43,73.43,0,0,1,14.91,35.95c-28.38-25.22-41.65-52-32.56-66.61a26.47,26.47,0,0,1,16.61-11.16c12.87-2.58,25.33,5.87,31.62,13.19,12.08,14,9.55,33.42,9.77,33.4s-1.82-14.42-1.54-30.36c.2-11.72.32-18.71,3.32-27.1,2.53-7.11,7.94-22.24,23.35-29,18-7.87,40.52-.42,52.22,11.51a40.53,40.53,0,0,1,11.29,21.72c8.77,51.57-2.63,53.91,12.28-.78s95.65-59.39,91.26,8.59l-3.51,32.82,3.68,2.34s66.27-68.76,112.47-57c.56,35.95,0,150.81,0,150.81Z"/>
      <g>
        <path class="cls-9" d="M521.3,782.27S490.24,727,508.53,745.59s17.2,36.68,17.2,36.68-5.17-34.45,5.63-36.68-2.89,36.68-2.89,36.68,8.2-28.21,25.2-24.79-22.31,24.79-22.31,24.79"/>
        <g>
          <g>
            <rect class="cls-37" x="-272.68" y="587.39" width="599.21" height="16.59"/>
            <rect class="cls-37" x="-272.68" y="665.3" width="599.21" height="16.59"/>
            <rect class="cls-38" x="2.45" y="555.97" width="14.39" height="175.22"/>
            <rect class="cls-39" x="51.52" y="555.97" width="14.39" height="175.22"/>
            <rect class="cls-40" x="98.28" y="555.97" width="14.39" height="175.22"/>
            <rect class="cls-41" x="153.29" y="555.97" width="14.39" height="175.22"/>
            <rect class="cls-42" x="217.99" y="555.97" width="14.39" height="175.22"/>
            <rect class="cls-43" x="284.86" y="555.97" width="14.39" height="175.22"/>
          </g>
          <g>
            <rect class="cls-37" x="326.13" y="587.39" width="1378.93" height="16.59"/>
            <rect class="cls-37" x="326.13" y="665.3" width="1378.2" height="16.59"/>
            <rect class="cls-44" x="326.13" y="555.97" width="14.39" height="175.22"/>
            <rect class="cls-45" x="372.89" y="555.97" width="14.39" height="175.22"/>
            <rect class="cls-46" x="427.9" y="555.97" width="14.39" height="175.22"/>
            <rect class="cls-47" x="476.98" y="555.97" width="14.39" height="175.22"/>
            <rect class="cls-48" x="523.74" y="555.97" width="14.39" height="175.22"/>
            <rect class="cls-49" x="578.75" y="555.97" width="14.39" height="175.22"/>
            <rect class="cls-50" x="638.47" y="555.97" width="14.39" height="175.22"/>
            <rect class="cls-51" x="685.23" y="555.97" width="14.39" height="175.22"/>
            <rect class="cls-52" x="740.24" y="555.97" width="14.39" height="175.22"/>
            <rect class="cls-53" x="789.32" y="555.97" width="14.39" height="175.22"/>
            <rect class="cls-54" x="836.07" y="555.97" width="14.39" height="175.22"/>
            <rect class="cls-55" x="891.09" y="555.97" width="14.39" height="175.22"/>
            <rect class="cls-56" x="962.05" y="555.97" width="14.39" height="175.22"/>
            <rect class="cls-57" x="1008.81" y="555.97" width="14.39" height="175.22"/>
            <rect class="cls-58" x="1063.82" y="555.97" width="14.39" height="175.22"/>
            <rect class="cls-59" x="1112.89" y="555.97" width="14.39" height="175.22"/>
            <rect class="cls-60" x="1159.65" y="555.97" width="14.39" height="175.22"/>
            <rect class="cls-61" x="1214.66" y="555.97" width="14.39" height="175.22"/>
            <rect class="cls-62" x="1271.45" y="555.97" width="14.39" height="175.22"/>
            <rect class="cls-63" x="1318.2" y="555.97" width="14.39" height="175.22"/>
            <rect class="cls-64" x="1373.22" y="555.97" width="14.39" height="175.22"/>
            <rect class="cls-65" x="1422.29" y="555.97" width="14.39" height="175.22"/>
            <rect class="cls-66" x="1469.05" y="555.97" width="14.39" height="175.22"/>
            <rect class="cls-67" x="1524.06" y="555.97" width="14.39" height="175.22"/>
            <rect class="cls-68" x="1588.76" y="555.97" width="14.39" height="175.22"/>
          </g>
        </g>
        <g>
          <path class="cls-11" d="M770.56,744c-2.53,1.86-36.31-31.79-29.55-41.31s29.55,11.07,27,43.17"/>
          <path class="cls-11" d="M784.27,747.57s-25.14-38-13.71-44.43S784.27,747.57,784.27,747.57Z"/>
          <path class="cls-11" d="M792.84,744.73s12.43-37,26-33.39S805.27,743.46,792.84,744.73Z"/>
          <path class="cls-11" d="M259.16,745.06s-38.91-6.25-25.41-28.62S259.16,745.06,259.16,745.06Z"/>
          <path class="cls-11" d="M288.55,744.21s-9.53-34.67,13.5-32.51S288.55,744.21,288.55,744.21Z"/>
        </g>
        <path class="cls-69" d="M27.43,784.17s12.77-62.55,90.16-64.94,81.39,55.69,46.28,64.94C112,785.45,27.43,784.17,27.43,784.17Z"/>
        <path class="cls-70" d="M200.78,777.47s6.23-17.66,35.75-21.66,55,24.57,31.12,32.23c-60.64,3.67-66.87.57-66.87.57S189,783.17,200.78,777.47Z"/>
        <g>
          <path class="cls-71" d="M1613.43,671.11s9.91,3-20.36-47.87-88.8-37.69-62.57,53c28.26,87.59,84.48,191.48,84.48,191.48s-49.16-65.66-112.73-124-95.87-11.47-43.39,48.62,115,115.09,115,115.09l-92.84-39.72s24.22,10.18-53.49-22.41c-37.33-8.15-38.34,55,11.1,66.21l9.09,6.94,166.9.43Z"/>
          <path class="cls-72" d="M1519.3,807.53s-33.08-5.42-39.6-9.19C1479.7,798.34,1505.12,799.74,1519.3,807.53Z"/>
          <path class="cls-72" d="M1627.45,895.54l-167-147.92c18.26,20.24,38.71,41.23,61.5,62.43A997.39,997.39,0,0,0,1627.45,895.54Z"/>
          <path class="cls-72" d="M1531.39,811.74s1.52-26-2.64-32.2c0,0-2.63,23.55,0,27.87Z"/>
          <path class="cls-72" d="M1576.55,849.24s-8.47-29.13-11.75-31.76C1564.8,817.48,1569.23,842.84,1576.55,849.24Z"/>
          <path class="cls-72" d="M1618.94,789.85q-28.93-85.17-57.88-170.34,52.56,181.65,57.88,180.24Q1620.14,799.44,1618.94,789.85Z"/>
          <path class="cls-72" d="M1595.51,721.84s15.38-45,15.71-50.3c0,0-16.63,36.35-17.5,45S1595.51,721.84,1595.51,721.84Z"/>
          <path class="cls-72" d="M1602.39,751.48,1564.8,728s23.74,22.2,37.59,25.49S1602.39,751.48,1602.39,751.48Z"/>
          <path class="cls-72" d="M1540.05,916.62s-81.37-35.23-94-42.31c0,0,56.61,36.5,82.77,42.31S1540.05,916.62,1540.05,916.62Z"/>
          <path class="cls-72" d="M1503.8,900.77,1475,869.59S1485.8,896.57,1503.8,900.77Z"/>
        </g>
        <path class="cls-11" d="M1171.89,751.39s-2.06-63.19,23.94-70C1195.83,681.4,1169.83,742,1171.89,751.39Z"/>
        <g>
          <path class="cls-71" d="M-25.09,677.53S-35,680.58-4.73,629.66s88.8-37.69,62.57,53C29.58,770.21-26.64,874.1-26.64,874.1s49.16-65.67,112.73-124,95.87-11.47,43.39,48.62-115,115.09-115,115.09l92.84-39.72s-24.22,10.18,53.49-22.41c37.33-8.15,38.34,55-11.1,66.2l-9.09,7-166.9.42Z"/>
          <path class="cls-72" d="M69,814s33.08-5.42,39.6-9.19C108.64,804.76,83.22,806.16,69,814Z"/>
          <path class="cls-72" d="M-39.11,902,127.93,754c-18.27,20.25-38.71,41.24-61.5,62.44A997.39,997.39,0,0,1-39.11,902Z"/>
          <path class="cls-72" d="M57,818.15s-1.52-26,2.64-32.19c0,0,2.63,23.55,0,27.87Z"/>
          <path class="cls-72" d="M11.79,855.65s8.47-29.13,11.75-31.75C23.54,823.9,19.11,849.25,11.79,855.65Z"/>
          <path class="cls-72" d="M-30.6,796.26q28.94-85.17,57.88-170.34Q-25.28,807.57-30.6,806.17-31.8,805.86-30.6,796.26Z"/>
          <path class="cls-72" d="M-14,757.9l37.59-23.45S-.2,756.65-14,759.94-14,757.9-14,757.9Z"/>
          <path class="cls-72" d="M48.29,923s81.37-35.24,94-42.31c0,0-56.61,36.49-82.77,42.31S48.29,923,48.29,923Z"/>
          <path class="cls-72" d="M84.54,907.19,113.3,876S102.53,903,84.54,907.19Z"/>
        </g>
      </g>
      <g>
        <ellipse class="cls-73" cx="632.59" cy="785.04" rx="98.48" ry="24.47"/>
        <g>
          <path class="cls-74" d="M577.41,459.84s-11.14,29.4-7.62,53.09-8.64,30.57,6.87,44,45.83,19.3,58.76,6.57c0,0,8.61,2.55,29.23-.58s36.16-12.71,30.42-32.27-2.94-45.47-3.84-60.84-20.05-33.38-60.37-22.53S577.41,459.84,577.41,459.84Z"/>
          <path class="cls-75" d="M635.71,708s.1,4.1.46,10.46,1,15.06,2.13,24.1c2.23,18,2.23,19.63,2.23,19.63l-.62,1.23c-.37,6,7.9,8.89,12.72,7.65s.61-11.11.61-11.11c2.91-12.62,3.86-31.21,4.17-42.55.16-6,.15-9.91.15-9.91C644.35,695.44,635.71,708,635.71,708Z"/>
          <path class="cls-76" d="M635.47,708.34s.56,4.19.92,10.55c10.1,1.79,16.84.21,20.78-1.14.16-6,.14-9.91.14-9.91C644.11,695.75,635.47,708.34,635.47,708.34Z"/>
          <g>
            <path class="cls-77" d="M651.51,770a22.27,22.27,0,0,0,3.46-4.87c1.36-2.72.56-3.4,3.64,1.11s16,8.58,19.44,12.53a7,7,0,0,1-.74,6.48s-3,4.07-20.18,1c0,0-16.54-3.71-18.08-7.35a50.22,50.22,0,0,1-.13-13s-.31-1,1.73-2c0,0-.8,3,1.61,4.2S651.51,770,651.51,770Z"/>
            <path class="cls-78" d="M638.68,776.29c1.05,3.52,18.76,7.59,18.76,7.59,17.09,4.07,20.18-1,20.18-1,2.22-3-.43-6.05-.43-6.05-2.21-2.51-7.77-5.26-12.31-8.09a25.51,25.51,0,0,1-5.33-4.08,8.37,8.37,0,0,1-.63-.79c-3.09-4.51-6.17-6.42-7.53-3.7s.43,7.47.43,7.47-6.85-.62-9.26-1.85-2.07-4.2-2-4.39c-2,1-1.34,2.16-1.34,2.16A71.59,71.59,0,0,0,638.68,776.29Z"/>
            <path class="cls-79" d="M649.91,772.15c.44,1.77,2.1,3.3,4.34,4.17a1.88,1.88,0,0,0,2.36-1c.87-1.91,3-5.09,8.27-6.62a25.51,25.51,0,0,1-5.33-4.08,16.15,16.15,0,0,0-4.46,1.87S649.35,769.93,649.91,772.15Z"/>
          </g>
          <path class="cls-75" d="M600.62,716.72c.16,13.46,1.36,28.66,2,34.88a159.27,159.27,0,0,1,.74,18.51c6.55,6.67,13.64.37,13.64.37-.92-6.16.68-19.62,3.64-32.46a136.23,136.23,0,0,0,2.73-19.42c.42-5.59.49-9.59.49-9.59-1.12-24.43-22.47-10.12-22.47-10.12A125.21,125.21,0,0,0,600.62,716.72Z"/>
          <path class="cls-76" d="M600.81,716.79c11.31,3,18.68,2.46,22.41,1.85.42-5.59.65-9.63.65-9.63-1.12-24.43-22.47-10.12-22.47-10.12C600.73,703.43,600.74,709.92,600.81,716.79Z"/>
          <g>
            <path class="cls-77" d="M616.83,771.6s2.53,1.48-4.51,1.85-10.12-.56-9.81-4.26c0,0-1-.06-2.35,6.91s-3.33,12.1,2.29,15.25,17.34,4.26,20.18-4c0,0,1-2.53-2.16-8.52s-.8-6.42-3.46-8.39Z"/>
            <path class="cls-78" d="M616.75,768s2,2.84-4,3.19c-7,.41-9.81-.68-9.5-4.39,0,0-1.36.06-2.65,7s-3.65,11.73,2,14.87,17.65,4.63,20.49-3.58c0,0,1-2.53-2.16-8.51s-1.5-8.25-4.15-10.23Z"/>
            <ellipse class="cls-78" cx="610.07" cy="769.9" rx="4.66" ry="5.34"/>
            <path class="cls-79" d="M602.63,777.74a.55.55,0,0,0,.91.4,11,11,0,0,1,6.5-2.78,14.6,14.6,0,0,1,8.16,1.77.55.55,0,0,0,.8-.59,13.42,13.42,0,0,0-2.17-4.94c-2.22-3.14-11.94-1-12.87.31C603.15,773,602.58,774.81,602.63,777.74Z"/>
          </g>
          <path class="cls-80" d="M656.33,636.31s19,29.13,25.92,69.13c0,0-15.55,11.6-56,10.12s-55.55-17.28-55.55-17.28,19-51.35,32.59-64.19C603.25,634.09,643.49,620.51,656.33,636.31Z"/>
          <g>
            <path class="cls-81" d="M651.92,638.69s10.31,28.63,11.9,60.73c0,0-3.81-38-14-60.24Z"/>
            <path class="cls-81" d="M615,641.57s-5.71,10.53-10.67,40c0,0,2.75-20.9,7.4-36.87,0,0,2-5.76-4.55-5.76,0,0-3.28-1-9.3,23.37,0,0,4.23-21.56,8.35-25S615,641.57,615,641.57Z"/>
          </g>
          <path class="cls-82" d="M657.48,630.72a11.57,11.57,0,0,1,.25,7.73c-1.4,3.95-18.11,5.1-28.06,5.1-9.74,0-24.29-.86-30.08-5.14a2.15,2.15,0,0,1-.67-.85,6.69,6.69,0,0,1,1.45-7.67C604.24,625.78,636.33,622.65,657.48,630.72Z"/>
          <g>
            <path class="cls-75" d="M708.58,624.46s-13.08,5.6-31.76,1.73a29.34,29.34,0,0,1-8.56-10.78c-3.54-7.32-6.25-13.83-6.25-13.83a22.58,22.58,0,0,0,16.45-12l7.25,15.63s17.85,6.51,26.33,5.68"/>
            <g>
              <path class="cls-83" d="M686.61,605.45s-4.94-1.89-7.32,7.49"/>
              <path class="cls-84" d="M686.52,605.69a3.71,3.71,0,0,0-2.67.2,5.76,5.76,0,0,0-2.16,1.8,12.51,12.51,0,0,0-.8,1.2c-.21.43-.46.85-.64,1.3a24.19,24.19,0,0,0-1,2.75,23.68,23.68,0,0,1,.85-2.8c.16-.46.39-.89.59-1.34a13.59,13.59,0,0,1,.76-1.26,6,6,0,0,1,2.2-2,4.11,4.11,0,0,1,3-.33Z"/>
            </g>
          </g>
          <g>
            <path class="cls-75" d="M707.37,613.91s3.89-5.87,6.29-5.43,4.8.84,8-1.3a18.8,18.8,0,0,0,3.75-3.48,1.41,1.41,0,0,1,2-.2,3.5,3.5,0,0,1,1.09,3.86c-.93,3.58-7.66,6.3-7.66,6.3s-.37,3.64,3.77,6.73,11.34,9.12,11.34,9.12,2,1.88.31,3.58a3.1,3.1,0,0,1-2.24.38s.62,3.61-3.36,2.62c0,0,.06,1.79-1.42,2.13a3.8,3.8,0,0,1-2.93-1,1.25,1.25,0,0,1-1,1.51c-1.33.4-4.32-.5-8.52-4.14s-10.55-9.9-11.76-12.53"/>
            <g>
              <line class="cls-83" x1="734.25" y1="633.56" x2="725.42" y2="626.99"/>
              <polygon class="cls-84" points="734.1 633.76 725.42 626.99 734.4 633.36 734.1 633.76"/>
            </g>
            <g>
              <polyline class="cls-83" points="731.56 636.19 730.76 636.1 722.71 629.24"/>
              <polygon class="cls-84" points="731.53 636.44 730.73 636.33 730.66 636.32 730.61 636.27 722.71 629.24 730.91 635.92 730.79 635.86 731.59 635.94 731.53 636.44"/>
            </g>
            <g>
              <line class="cls-83" x1="726.59" y1="637.48" x2="720.79" y2="631.87"/>
              <polygon class="cls-84" points="726.42 637.66 720.79 631.87 726.77 637.3 726.42 637.66"/>
            </g>
            <g>
              <path class="cls-83" d="M723.75,623.32s-1.41,5.71-8.54,4.63"/>
              <path class="cls-84" d="M724,623.38a7.08,7.08,0,0,1-1.36,2.39,6.55,6.55,0,0,1-2.16,1.65,7.68,7.68,0,0,1-2.6.67,12.16,12.16,0,0,1-1.35,0l-1.32-.15,1.33.09a11.55,11.55,0,0,0,1.32-.08,7.31,7.31,0,0,0,2.51-.76,6.37,6.37,0,0,0,2-1.67,6.52,6.52,0,0,0,1.16-2.27Z"/>
            </g>
          </g>
          <path class="cls-80" d="M575.11,594s5.1,7.16,22.38,9.14a82.91,82.91,0,0,0,2,29.13s6.18,5,30.37,4.61c29-.5,27.24-4.69,27.24-4.69s3.45-17.12,5.43-29c0,0,14.15-3.46,19.75-14.32,0,0-6-9.53-10.77-17.36a29.64,29.64,0,0,0-10.92-10.47c-7.17-4-17.92-7.2-29.21-9.54l-13.08,1.73s-21.6,3.55-26.38,9.8S575.11,594,575.11,594Z"/>
          <path class="cls-80" d="M577.16,590.06l-2,4s5.1,7.08,22.38,9.14c0,0-2.25-20.49-1.51-26.25"/>
          <path class="cls-80" d="M662,605.82s1.85-7.28,1.35-20.49"/>
          <path class="cls-75" d="M630.24,564.22c19.51-.74,12.51-10.12,12.51-10.12,0-.77,0-1.49,0-2.15.09-3.79.16-5.79-1.15-7.84a12.52,12.52,0,0,0-9.75-5.19,18.23,18.23,0,0,0-8.16,1.21,8.24,8.24,0,0,0-5,8,23.78,23.78,0,0,1-.12,3.69c-.45,3.62-1.82,3.68-1.82,3.68C615.59,564,630.24,564.22,630.24,564.22Z"/>
          <path class="cls-76" d="M618.8,552.09a34.08,34.08,0,0,0,10.49,3c4.88.46,10.31-1.64,13.22-3,.09-3.79.16-5.79-1.16-7.84A12.55,12.55,0,0,0,631.6,539a18.23,18.23,0,0,0-8.16,1.21c-3.16,1.31-4.51,4.54-4.39,8A23,23,0,0,1,618.8,552.09Z"/>
          <g>
            <path class="cls-85" d="M692.09,474.49c0,34.86-27.5,57-61.77,57s-62.05-28.26-62.05-63.12S586.23,404,631.4,404C678.74,404,692.09,439.62,692.09,474.49Z"/>
            <g>
              <path class="cls-86" d="M582.82,502.27c-2.46-3.32-5.66-6.51-9.47-5.9s-5.65,4.18-4.92,10.33,2.09,9.34,6.77,13,7.13,5.54,12,2.22C588.11,515.18,584.05,504.49,582.82,502.27Z"/>
              <path class="cls-87" d="M584.21,519.41a14.7,14.7,0,0,1-1.59-.93,6,6,0,0,1-2.25-2.73,5.74,5.74,0,0,1-.33-3.5,6,6,0,0,1,.72-1.85,3.87,3.87,0,0,1,.21-.34l-.11-.21c-.22-.42-.45-.83-.68-1.23a25.16,25.16,0,0,0-2.39-3.32,7.67,7.67,0,0,0-3.27-2.55,2.59,2.59,0,0,0-2.11.24,1.81,1.81,0,0,0-1,1.74,1.74,1.74,0,0,1,1.12-1.47,2.28,2.28,0,0,1,1.81-.05,8.08,8.08,0,0,1,2.94,2.52,38.07,38.07,0,0,1,2.47,3.15c.28.42.57.84.83,1.27a5.53,5.53,0,0,0-1,2,5.85,5.85,0,0,0,.21,3.87,6.08,6.08,0,0,0,2.58,2.9,11.33,11.33,0,0,0,1.74.79,2.78,2.78,0,0,0,1.88.19A3.05,3.05,0,0,1,584.21,519.41Zm-10.78-6.29a7.5,7.5,0,0,1-.71-3.84,30,30,0,0,1,.59-4,16.06,16.06,0,0,0-1.08,4,7.27,7.27,0,0,0,.62,4.17,8,8,0,0,0,2.92,3,18.55,18.55,0,0,0,3.75,1.76,39,39,0,0,1-3.47-2.16A8.43,8.43,0,0,1,573.43,513.12Z"/>
            </g>
            <g>
              <path class="cls-86" d="M677,502.48c2.49-3.37,5.74-6.61,9.6-6s5.74,4.24,5,10.48-2.12,9.48-6.86,13.22-7.23,5.61-12.22,2.25C671.59,515.58,675.71,504.72,677,502.48Z"/>
              <path class="cls-87" d="M673.76,520.34a2.87,2.87,0,0,0,1.91-.19,12.12,12.12,0,0,0,1.76-.81,6.1,6.1,0,0,0,2.62-2.94,5.94,5.94,0,0,0,.22-3.92,5.71,5.71,0,0,0-1.06-2c.27-.44.56-.87.85-1.29a36.68,36.68,0,0,1,2.5-3.2,8.24,8.24,0,0,1,3-2.56,2.42,2.42,0,0,1,1.83.05,1.78,1.78,0,0,1,1.14,1.5,1.8,1.8,0,0,0-1-1.76,2.63,2.63,0,0,0-2.14-.25,7.69,7.69,0,0,0-3.32,2.59,24.88,24.88,0,0,0-2.42,3.36c-.24.41-.47.83-.69,1.25,0,.07-.07.14-.11.22a3.87,3.87,0,0,1,.21.34,6.17,6.17,0,0,1,.73,1.88,5.84,5.84,0,0,1-.34,3.55,6.1,6.1,0,0,1-2.28,2.77,16.11,16.11,0,0,1-1.61.94A3.08,3.08,0,0,1,673.76,520.34Zm10.07-3.89a38.08,38.08,0,0,1-3.53,2.2,18.9,18.9,0,0,0,3.81-1.79,8.11,8.11,0,0,0,3-3.08,7.43,7.43,0,0,0,.63-4.24,16.57,16.57,0,0,0-1.09-4.06,30.68,30.68,0,0,1,.59,4.1,7.6,7.6,0,0,1-.71,3.9A8.58,8.58,0,0,1,683.83,516.45Z"/>
            </g>
            <g>
              <path class="cls-86" d="M679.8,483.94c0,.44,4.42.91,4.37,1.35a289.81,289.81,0,0,1-6.5,36.53,28.91,28.91,0,0,1-3.38,7.83,32.56,32.56,0,0,1-9.29,9.44A109.41,109.41,0,0,1,648.47,548a82.71,82.71,0,0,1-8.39,3.23A31.67,31.67,0,0,1,631,553a35.83,35.83,0,0,1-10.29-1.91c-8-2.48-16.37-6.79-20.92-9.19C593.1,538.45,585,531,583.11,523.08A370,370,0,0,1,576,486c-.67-5,3.62-6.95,7.74-21.8,5.51-19.92,13.1-27.81,44.5-27.81C683,436.41,681.55,468.57,679.8,483.94Z"/>
              <path class="cls-88" d="M579.34,505.93s5.17-33.61,16.33-42.72,12.77-14.94,12.77-14.94,3,17,22.18,24.28l-.84-10.21a24.91,24.91,0,0,0,11.41,10.21l-1.85-12.89A200,200,0,0,1,668,473.54c13.91,8.34,13.32,35.83,13.32,35.83l-5.58-57-47.52-19.72L598,431.46l-20.48,28.2,3.18,22Z"/>
            </g>
            <g>
              <ellipse class="cls-89" cx="653.39" cy="495.17" rx="10.01" ry="10.59"/>
              <ellipse class="cls-90" cx="653.53" cy="495.05" rx="6.7" ry="7.09"/>
              <ellipse class="cls-91" cx="656.66" cy="489.34" rx="1.84" ry="1.94"/>
            </g>
            <g>
              <ellipse class="cls-89" cx="605.68" cy="497.08" rx="10.01" ry="10.59"/>
              <ellipse class="cls-90" cx="605.93" cy="497.07" rx="6.6" ry="6.98"/>
              <ellipse class="cls-91" cx="608.96" cy="491.26" rx="1.84" ry="1.94"/>
            </g>
            <path class="cls-92" d="M622.94,511.33a17.63,17.63,0,0,0,3,2,9.87,9.87,0,0,0,3.11,1,7.46,7.46,0,0,0,3.18-.24,11.31,11.31,0,0,0,3.18-1.6,5.66,5.66,0,0,1-2.54,3,6.44,6.44,0,0,1-4.09.78A7.1,7.1,0,0,1,622.94,511.33Z"/>
            <g>
              <path class="cls-88" d="M612.08,520.82c-.77-.3-1.67-1.54-2.37-2a5.38,5.38,0,0,0-2.31-.78c-1.06-.11-2.36.28-2.57,1.24a2.16,2.16,0,0,0,1.12,2,6.81,6.81,0,0,0,4.08,1.27,2.07,2.07,0,0,0,1.7-.65c.34-.49-.06-1.35-.69-1.26Z"/>
              <path class="cls-88" d="M646.39,523c.49-.55,1.28-2.07,1.92-2.47a3.36,3.36,0,0,1,1.37-.55,2.32,2.32,0,0,1,2.32,1.5,2.74,2.74,0,0,1-.6,2.65,5.31,5.31,0,0,1-2.49,1.52,4,4,0,0,1-2,.18,1.75,1.75,0,0,1-1.39-1.24,1.65,1.65,0,0,1,.87-1.59,5.6,5.6,0,0,1,1.9-.63Z"/>
              <g>
                <path class="cls-93" d="M649.7,522.15a15.75,15.75,0,0,1-.86,2c-1.89,3.81-6.39,10.82-12.1,13.44a15.94,15.94,0,0,1-13.28-.24c-5.46-2.57-7.93-5.62-11.06-10.76-1-1.68-2.11-3.57-3.4-5.74,0,0-.31-.4.21-.42a3,3,0,0,1,.84.15c3.07.85,10.86,5.17,22.91,4.59,9.27-.46,14.33-2.49,16.18-3.41a.41.41,0,0,1,.55.2A.3.3,0,0,1,649.7,522.15Z"/>
                <path class="cls-94" d="M648.84,524.11c-1.89,3.81-6.39,10.82-12.1,13.44a15.94,15.94,0,0,1-13.28-.24c-5.46-2.57-7.93-5.62-11.06-10.76,3.64,4,9.79,9.3,17.25,9.81C639.88,537.05,646.85,527.3,648.84,524.11Z"/>
                <path class="cls-95" d="M649.69,521.92a39.18,39.18,0,0,1-21,4.88c-11.13-.46-17.49-4.89-19.5-6.41a2.76,2.76,0,0,1,.86.15c3.06.85,10.85,5.17,22.9,4.59,9.27-.46,14.33-2.49,16.18-3.4A.4.4,0,0,1,649.69,521.92Z"/>
                <path class="cls-96" d="M613.74,522.74c.23.1,13.18,7.88,31,1.47,0,0-2.57,5.86-13.31,6.42C619.15,531.26,613.74,522.74,613.74,522.74Z"/>
                <path class="cls-97" d="M629.7,536.21c-2.52-.15-5.68-.81-6.92-1.94,2.24-2.2,5.12-.59,7.54-1.29,5.09-1.47,6.85.36,7.52,1.37C636.35,535.53,633.22,536.4,629.7,536.21Z"/>
              </g>
            </g>
            <path class="cls-90" d="M609.07,475.63s-10-1.7-14.76,4.93c-.19.27-.64.14-.61-.17.15-2,1.24-6.16,7.44-7.37C610.91,471.11,609.07,475.63,609.07,475.63Z"/>
            <path class="cls-90" d="M647.21,471.55s10-1.7,14.75,4.93a.34.34,0,0,0,.62-.17c-.16-2-1.25-6.15-7.44-7.37C645.36,467,647.21,471.55,647.21,471.55Z"/>
            <path class="cls-85" d="M678.58,454.35c-4.71-24.92-13-21.1-35.2-25.77-10.12-2.13-10.15-9.48-20.44-8.45-5.84.58-21.53-2.24-35.21,21.17-8.63,14.76-22.74,27.61-16.87,45.19,5.39,16.74,8.48,19.44,8.48,19.44l.43-2.46c.13-1.88.31-3.76.38-5.64,1.38-35.43,17.2-35.9,29.65-57,3.33,3.1,7.39,5.46,11.16,7.67,7.15,4.2,14.54,7.8,22,11.27S658,466.22,665.41,470c18.91,9.64,14.94,35.94,14.94,35.95-.11-.65,2.27-3.66,2.59-4.21a64.42,64.42,0,0,0,4.83-9.43C693.38,478.76,681.38,469.19,678.58,454.35Z"/>
            <path class="cls-85" d="M628.23,447.27a32.38,32.38,0,0,0,0,20.9,45.12,45.12,0,0,1-19-31.32"/>
            <path class="cls-85" d="M622.94,445.06s.31,7.6,16.4,23.67c0,0-6-10.61-2.57-21.46"/>
            <path class="cls-98" d="M575,498.35a83.23,83.23,0,0,1-3.3-14.39,95.28,95.28,0,0,1-1-15,19.84,19.84,0,0,1,.3-3.77l.75-3.72q.75-3.72,1.86-7.38a63.15,63.15,0,0,1,6.18-14.05,52.44,52.44,0,0,1,9.83-12,59.89,59.89,0,0,1,12.75-8.69,61.43,61.43,0,0,1,29.8-6.53,65.54,65.54,0,0,1,29.38,8,53,53,0,0,1,12.4,9.33,40.67,40.67,0,0,1,5,6.22c.36.57.71,1.14,1,1.73s.6,1.14.9,1.71c.61,1.12,1.14,2.28,1.68,3.44a74.93,74.93,0,0,1,4.8,14.45c.54,2.47,1,5,1.32,7.46l.5,3.75a21.69,21.69,0,0,1,0,3.78c-.11,2.52-.36,5-.67,7.5s-.71,4.94-1.25,7.36a78.47,78.47,0,0,1-4.29,14.13,106.65,106.65,0,0,0-.45-28.66,34.43,34.43,0,0,1-.48-3.47c-.08-1.16-.13-2.32-.31-3.47-.29-2.31-.72-4.59-1.21-6.85a68,68,0,0,0-4.35-13.1c-.48-1-1-2.09-1.51-3.09-.26-.5-.53-1-.79-1.51s-.54-.93-.83-1.38a33.79,33.79,0,0,0-4.1-5.13A46.19,46.19,0,0,0,658.16,427a58.59,58.59,0,0,0-26.22-7.12,54.31,54.31,0,0,0-26.41,5.78,52.56,52.56,0,0,0-11.23,7.63,45.78,45.78,0,0,0-8.52,10.41,56.15,56.15,0,0,0-5.48,12.51,67.9,67.9,0,0,0-1.7,6.71c-.23,1.13-.38,2.28-.52,3.44a31.93,31.93,0,0,1-.67,3.43,105.07,105.07,0,0,0-2.1,14.07q-.31,3.59-.4,7.22C574.83,493.48,574.85,495.91,575,498.35Z"/>
            <g>
              <g>
                <g>
                  <path class="cls-99" d="M689.84,451c-4.59,4.87-5.13,11.83-12.07,5.29s-4.23-20.67-4.23-20.67,13.94-3.52,20.88,3S694.44,446.08,689.84,451Z"/>
                  <path class="cls-99" d="M657,419.93c-4.6,4.87-11.51,5.81-4.57,12.35s20.87,3,20.87,3,2.7-14.13-4.23-20.67S661.56,415.05,657,419.93Z"/>
                </g>
                <circle class="cls-100" cx="666.81" cy="419.31" r="1.44"/>
                <circle class="cls-100" cx="669.48" cy="424.97" r="1.44"/>
                <circle class="cls-100" cx="660.88" cy="425.6" r="1.44"/>
                <path class="cls-100" d="M664.14,432.64a1.44,1.44,0,1,1-.06-2A1.44,1.44,0,0,1,664.14,432.64Z"/>
                <circle class="cls-100" cx="656.92" cy="429.79" r="1.44"/>
                <path class="cls-100" d="M672.17,428.33a1.44,1.44,0,0,0,1.14,2.43c0-.88.06-1.84,0-2.87A1.47,1.47,0,0,0,672.17,428.33Z"/>
                <path class="cls-100" d="M672,422.22a1.46,1.46,0,0,0,.71.36,20.53,20.53,0,0,0-.72-2.43l0,0A1.45,1.45,0,0,0,672,422.22Z"/>
                <path class="cls-100" d="M658.09,434.86l0,0a20.55,20.55,0,0,0,2.44.57,1.34,1.34,0,0,0-.39-.65A1.43,1.43,0,0,0,658.09,434.86Z"/>
                <path class="cls-100" d="M668.27,434.56a1.44,1.44,0,0,0-2.41,1.23c1,0,2-.1,2.86-.19A1.42,1.42,0,0,0,668.27,434.56Z"/>
                <path class="cls-100" d="M661.69,418.44a1.45,1.45,0,0,0-.06-2,1.41,1.41,0,0,0-1.18-.37l-1.19,1.81a1.37,1.37,0,0,0,.39.66A1.45,1.45,0,0,0,661.69,418.44Z"/>
                <path class="cls-100" d="M663.61,414.3a1.44,1.44,0,0,0,2.42-1.17,3,3,0,0,0-2.84-.16A1.4,1.4,0,0,0,663.61,414.3Z"/>
                <path class="cls-100" d="M653.71,424.79a1.44,1.44,0,1,0,2-2.1,1.38,1.38,0,0,0-.69-.35c-.59.46-1.18.88-1.73,1.29A1.44,1.44,0,0,0,653.71,424.79Z"/>
                <path class="cls-100" d="M651.79,428.92a1.43,1.43,0,0,0-1.39-2.38,3,3,0,0,0,.34,2.83A1.39,1.39,0,0,0,651.79,428.92Z"/>
                <circle class="cls-100" cx="689.88" cy="441.07" r="1.44"/>
                <circle class="cls-100" cx="683.7" cy="439.21" r="1.44"/>
                <circle class="cls-100" cx="683.94" cy="447.36" r="1.44"/>
                <path class="cls-100" d="M676.72,444.51a1.44,1.44,0,1,0,2-.06A1.46,1.46,0,0,0,676.72,444.51Z"/>
                <circle class="cls-100" cx="679.98" cy="451.56" r="1.44"/>
                <path class="cls-100" d="M680.56,436.24a1.44,1.44,0,0,1-2,.06,1.42,1.42,0,0,1-.45-1.05c.87-.09,1.83-.17,2.86-.2A1.43,1.43,0,0,1,680.56,436.24Z"/>
                <path class="cls-100" d="M686.67,436.07a1.46,1.46,0,0,1-.4-.69,21.11,21.11,0,0,1,2.47.59l0,0A1.45,1.45,0,0,1,686.67,436.07Z"/>
                <path class="cls-100" d="M674.86,450.69h0a20.06,20.06,0,0,1-.72-2.4,1.35,1.35,0,0,1,.68.35A1.45,1.45,0,0,1,674.86,450.69Z"/>
                <path class="cls-100" d="M674.56,440.5a1.43,1.43,0,0,1-1.08,2.48c0-1,0-2,0-2.87A1.41,1.41,0,0,1,674.56,440.5Z"/>
                <path class="cls-100" d="M691,446.14a1.44,1.44,0,0,1,2-.06,1.42,1.42,0,0,1,.44,1.15c-.55.41-1.14.84-1.73,1.3a1.47,1.47,0,0,1-.69-.35A1.45,1.45,0,0,1,691,446.14Z"/>
                <path class="cls-100" d="M695.06,444a1.43,1.43,0,0,1,1-2.48,3,3,0,0,1,.32,2.82A1.39,1.39,0,0,1,695.06,444Z"/>
                <path class="cls-100" d="M685.17,454.47a1.44,1.44,0,1,1,2.37-1.43c-.42.62-.81,1.23-1.19,1.8A1.41,1.41,0,0,1,685.17,454.47Z"/>
                <path class="cls-100" d="M681.15,456.62a1.44,1.44,0,0,1,2.46,1.26,3,3,0,0,1-2.85-.18A1.44,1.44,0,0,1,681.15,456.62Z"/>
              </g>
              <g>
                <g>
                  <g>
                    <path class="cls-101" d="M664.28,422.89c-2.19,1.46,5.34,8,5.34,8S666.48,421.42,664.28,422.89Z"/>
                    <path class="cls-101" d="M661.67,428.72c-.83,1.58,7.06,3.68,7.06,3.68S662.49,427.15,661.67,428.72Z"/>
                  </g>
                  <g>
                    <path class="cls-101" d="M686.45,443.8c-1.34,2.28-8.29-4.86-8.29-4.86S687.79,441.52,686.45,443.8Z"/>
                    <path class="cls-101" d="M680.78,446.76c-1.53.91-4.09-6.84-4.09-6.84S682.3,445.84,680.78,446.76Z"/>
                  </g>
                </g>
                <rect class="cls-102" x="669.08" y="431.1" width="8.65" height="8.65" rx="2.56" transform="translate(-105.44 626.38) rotate(-46.66)"/>
              </g>
            </g>
            <path class="cls-103" d="M581.05,519.62s4.08,8.48-.94,9.92-3.45-8-3.45-8,1.3,8,2.85,3Z"/>
            <path class="cls-103" d="M679.61,520.15s-4.08,8.49.94,9.93,3.46-8,3.46-8-1.31,8-2.85,3.05Z"/>
          </g>
          <path class="cls-84" d="M595,612.07a10.34,10.34,0,0,0-2.49-1.41,10.09,10.09,0,0,0-2.81-.66,8.25,8.25,0,0,0-2.88.25,9.79,9.79,0,0,0-2.69,1.13,10,10,0,0,1,2.66-1.25,8.3,8.3,0,0,1,2.93-.38,10.07,10.07,0,0,1,2.92.56,10.89,10.89,0,0,1,2.67,1.37Z"/>
          <path class="cls-104" d="M616.08,587.26l6.1-1.13,6.71,25.25s2.44,9.22,9.15,7.66,3.66-12.34,3.66-12.34.15-3.12,2.9-2.27,5.34,11.77-2.14,17.73-16.62.28-18.91-6.81S616.08,587.26,616.08,587.26Z"/>
          <g>
            <g>
              <path class="cls-75" d="M612.7,601s7.92-9.1,12.83-10.49,7.07.25,8.51,4.37c.39,1.11,3.28,3.49,2.36,6.87,0,0,1.74,5.79,0,6.5,0,0,2.3,3.16-3.39,7.21s-17.56,2.23-17.56,2.23Z"/>
              <path class="cls-75" d="M616.58,617.27s-18.36,16.51-42.34,9.91c0,0-2.71-2.23-1.23-11.61a182,182,0,0,1,4.82-20.42s10.36,5.36,20.24,6.23l-1.68,5.49s10.18,2.29,18.15-7.75"/>
              <path class="cls-75" d="M596.39,606.87s-9.79-4.08-14.07,5.3"/>
            </g>
            <path class="cls-80" d="M575.11,594a41.15,41.15,0,0,0,21.56,10.36l-.69-7.49"/>
          </g>
          <g>
            <path class="cls-105" d="M532.71,250.65a1.34,1.34,0,0,0-2.45.64l1.69,19.5,2.53,9.78,8.69-2.25-2.56-9.87Z"/>
            <polygon class="cls-104" points="572 405.23 574.53 402.35 615.35 564.86 611.91 564.27 572 405.23"/>
            <rect class="cls-104" x="612.73" y="555.03" width="5.72" height="34.18" transform="matrix(0.97, -0.25, 0.25, 0.97, -123.86, 172.77)"/>
            <ellipse class="cls-91" cx="620.03" cy="570.59" rx="0.57" ry="4.87" transform="translate(-123.34 173.83) rotate(-14.53)"/>
            <g>
              <g>
                <path class="cls-106" d="M476.37,466.44h0c18.23-25.76,80.56-27.07,108.9-13.39h0L537.51,268.78C494.57,279.91,450,364.69,476.37,466.44Z"/>
                <path class="cls-107" d="M537.61,268.76,585.38,453h0c18.23-25.75,83.35-61,111.69-47.33h0C670.7,304,580.65,257.6,537.61,268.76Z"/>
              </g>
              <g>
                <path class="cls-106" d="M537.61,268.76c43-11.16,135.46,44.34,159.46,136.93h0c18.69-24,46.93-30.59,74.81-18.68h0C748,294.39,623.69,246.45,537.61,268.76Z"/>
                <path class="cls-107" d="M386.36,486.94h0c18.68-24,62.13-32.41,90-20.5h0c-24-92.6,18.1-186.5,61.14-197.66C451.54,291.07,362.35,394.35,386.36,486.94Z"/>
              </g>
            </g>
          </g>
        </g>
      </g>
      <g class="cls-108">
        <g class="cls-109">
          <g>
            <path class="cls-110" d="M1479.49,143c3.07,4.39,6.41.09,7.65-2,57.66-96.1,70.78-111.33,68.38-115.34-2.18-3.64-14.48,16.78-74.65,106.33C1479.57,134,1476.6,138.93,1479.49,143Z"/>
            <path class="cls-110" d="M1445.62,94.83c1,1.45,2.13,0,2.55-.67,19.18-32,23.55-37,22.75-38.38s-4.81,5.58-24.84,35.38C1445.65,91.81,1444.66,93.46,1445.62,94.83Z"/>
            <path class="cls-110" d="M1321.88,154.53c1,1.46,2.13,0,2.54-.67,19.19-32,23.56-37,22.76-38.38s-4.82,5.58-24.84,35.39C1321.9,151.51,1320.92,153.16,1321.88,154.53Z"/>
            <path class="cls-110" d="M1230.7,153.44c1,1.46,2.13,0,2.55-.66,19.18-32,23.55-37,22.75-38.39s-4.82,5.59-24.84,35.39C1230.72,150.43,1229.74,152.07,1230.7,153.44Z"/>
            <path class="cls-110" d="M1300.13,244.57c1.68,2.24,3.55,0,4.25-1.06,32.4-49.63,39.74-57.51,38.43-59.56-1.19-1.86-8.1,8.69-41.86,55C1300.21,239.92,1298.55,242.47,1300.13,244.57Z"/>
            <path class="cls-110" d="M1198.22,111.77c2.29,2.92,4.86,0,5.83-1.41,44.66-65.24,54.76-75.62,53-78.3-1.61-2.43-11.14,11.44-57.65,72.29C1198.37,105.67,1196.07,109,1198.22,111.77Z"/>
            <path class="cls-110" d="M1180.77,266c2,2.87,4.14.06,5-1.29,37.26-62.68,45.75-72.6,44.19-75.22-1.41-2.38-9.36,10.94-48.25,69.34C1180.81,260.05,1178.9,263.28,1180.77,266Z"/>
            <path class="cls-110" d="M1227.3,277.57c1.11,1.41,2.36,0,2.84-.68,21.79-31.39,26.72-36.38,25.85-37.67s-5.43,5.5-28.12,34.79C1227.37,274.64,1226.25,276.26,1227.3,277.57Z"/>
            <path class="cls-110" d="M860.41,217.87c1.11,1.4,2.36,0,2.84-.68C885,185.8,890,180.8,889.1,179.52S883.67,185,861,214.31C860.49,214.94,859.36,216.56,860.41,217.87Z"/>
            <path class="cls-110" d="M777.91,290.6c1.12,1.4,2.37,0,2.84-.69,21.8-31.39,26.72-36.38,25.86-37.66s-5.44,5.5-28.13,34.78C778,287.67,776.87,289.28,777.91,290.6Z"/>
            <path class="cls-110" d="M1267.46,372c1.11,1.4,2.37,0,2.84-.68,21.79-31.4,26.72-36.39,25.85-37.67s-5.43,5.5-28.12,34.78C1267.54,369.08,1266.41,370.69,1267.46,372Z"/>
            <path class="cls-110" d="M1196,412.46c2.1,2.93,4.4.05,5.26-1.35,39.72-64.4,48.75-74.61,47.11-77.29-1.48-2.43-10,11.26-51.4,71.28C1196.06,406.4,1194,409.72,1196,412.46Z"/>
            <path class="cls-110" d="M1132.9,240.44c1.35,1.85,2.85,0,3.41-.87,25.86-40.95,31.73-47.45,30.67-49.15-1-1.54-6.48,7.16-33.44,45.34C1133,236.59,1131.62,238.69,1132.9,240.44Z"/>
            <path class="cls-110" d="M865.93,276.18c1.57,2,3.34,0,4-1,30.78-44.41,37.74-51.47,36.51-53.29-1.11-1.65-7.67,7.78-39.72,49.21C866,272,864.45,274.32,865.93,276.18Z"/>
            <path class="cls-110" d="M762,246.05c2.91,3.5,6.23-.05,7.48-1.76,57.77-79.11,70.79-91.71,68.53-94.93-2-2.91-14.37,13.9-74.46,87.72C762.25,238.69,759.27,242.76,762,246.05Z"/>
            <path class="cls-110" d="M970,158.46c.72.85,1.55,0,1.86-.43C986.29,138.8,989.54,135.73,989,135s-3.59,3.38-18.62,21.34C970,156.68,969.29,157.67,970,158.46Z"/>
            <path class="cls-110" d="M1110.22,125c1.94,2.59,4.09,0,4.9-1.22,37.29-57.44,45.75-66.56,44.24-68.94-1.38-2.15-9.33,10.05-48.2,63.61C1110.32,119.59,1108.4,122.55,1110.22,125Z"/>
            <path class="cls-110" d="M1079.81,232.68c1.76,2.12,3.76,0,4.51-1.06,34.89-47.87,42.75-55.5,41.39-57.45-1.24-1.76-8.68,8.41-45,53.08C1080,228.22,1078.16,230.69,1079.81,232.68Z"/>
            <path class="cls-110" d="M778.11,105.6c2,2.24,4.33-.07,5.21-1.18C824,53.11,833.09,44.91,831.53,42.85c-1.4-1.87-10.07,9-52.29,57C778.33,100.86,776.23,103.5,778.11,105.6Z"/>
            <path class="cls-110" d="M873.45,80c1.13,1.35,2.43,0,2.92-.68C899,48.85,904.09,44,903.21,42.74s-5.62,5.37-29.15,33.85C873.54,77.21,872.38,78.78,873.45,80Z"/>
            <path class="cls-110" d="M891.2,152.51c3.11,3.87,6.62,0,7.94-1.91,61-86.93,74.8-100.76,72.38-104.32-2.19-3.22-15.2,15.25-78.72,96.35C891.43,144.39,888.29,148.87,891.2,152.51Z"/>
            <path class="cls-110" d="M1028.75,338.2c1.48,1.68,3.2-.05,3.85-.87,30-38.32,36.74-44.43,35.59-46s-7.44,6.74-38.61,42.52C1028.9,334.65,1027.35,336.63,1028.75,338.2Z"/>
            <path class="cls-110" d="M936.45,429.56c1.28,1.33,2.79-.06,3.36-.73,26.47-30.78,32.4-35.71,31.42-36.93s-6.55,5.44-34,34.21C936.61,426.74,935.25,428.32,936.45,429.56Z"/>
            <path class="cls-110" d="M919.17,377.49c2,2.68,4.11,0,4.92-1.25,37.29-59.18,45.75-68.57,44.22-71-1.38-2.23-9.33,10.35-48.21,65.52C919.25,371.93,917.33,375,919.17,377.49Z"/>
            <path class="cls-110" d="M745.42,199c1.59,2.24,3.32,0,4-1,29.93-49.07,36.73-56.84,35.49-58.89-1.12-1.85-7.5,8.58-38.73,54.3C745.47,194.37,743.93,196.9,745.42,199Z"/>
            <path class="cls-110" d="M380.71,247.57c2.17,2.56,4.22-.25,5-1.59,34.79-62,42.93-72,41.21-74.37-1.56-2.15-9,11-45.65,69.1C380.45,242,378.66,245.16,380.71,247.57Z"/>
            <path class="cls-110" d="M424,262.4c1.28,1.23,2.61-.21,3.1-.9,22.7-31.63,27.92-36.79,26.91-37.94s-5.75,5.69-29.53,35.41C424,259.61,422.83,261.24,424,262.4Z"/>
            <path class="cls-110" d="M337.2,212.47c1.29,1.23,2.61-.21,3.1-.9,22.71-31.64,27.92-36.8,26.92-37.94s-5.76,5.69-29.54,35.41C337.17,209.68,336,211.31,337.2,212.47Z"/>
            <path class="cls-110" d="M275.48,215.39c2,1.74,4.19-.38,5-1.38,37.42-46.29,46-53.89,44.37-55.51-1.43-1.47-9.41,8.37-48.5,51.93C275.51,211.38,273.58,213.76,275.48,215.39Z"/>
            <path class="cls-110" d="M243.82,180c1.1,1.07,2.24-.18,2.66-.77,19.44-27.31,23.92-31.77,23-32.76s-4.93,4.91-25.3,30.57C243.79,177.59,242.79,179,243.82,180Z"/>
            <path class="cls-110" d="M849.5,367.78c.88,1.2,1.86,0,2.22-.56,16.88-26.48,20.71-30.68,20-31.78s-4.23,4.63-21.83,29.32C849.54,365.3,848.67,366.66,849.5,367.78Z"/>
            <path class="cls-110" d="M850.69,471.77c1.34,1.59,2.87,0,3.45-.81,26.72-36,32.74-41.75,31.7-43.21s-6.64,6.33-34.43,39.94C850.81,468.42,849.43,470.27,850.69,471.77Z"/>
            <path class="cls-110" d="M722.63,463.93c1.56,2.06,3.28,0,3.93-1,30-45.58,36.74-52.82,35.53-54.7-1.1-1.7-7.49,8-38.7,50.48C722.72,459.66,721.17,462,722.63,463.93Z"/>
            <path class="cls-110" d="M720.33,394.83c.95,1.37,2,0,2.36-.61,17.68-30,21.71-34.71,21-36s-4.44,5.23-22.91,33.15C720.35,392,719.44,393.55,720.33,394.83Z"/>
            <path class="cls-110" d="M723.59,323.19c.95,1.37,2,0,2.35-.62,17.69-30,21.72-34.7,21-36s-4.45,5.23-22.91,33.15C723.61,320.37,722.7,321.91,723.59,323.19Z"/>
            <path class="cls-110" d="M664.09,316.15c1.86,2.34,4,0,4.75-1.15,36.5-52.51,44.75-60.86,43.3-63-1.31-2-9.1,9.21-47.1,58.19C664.22,311.24,662.34,314,664.09,316.15Z"/>
            <path class="cls-110" d="M580.53,269.22c2.09,2.85,4.38,0,5.24-1.33,39.73-62.95,48.75-72.94,47.13-75.55-1.48-2.37-9.95,11-51.38,69.69C580.62,263.3,578.57,266.54,580.53,269.22Z"/>
            <path class="cls-110" d="M394.92,389.7c2.08,2.86,4.37,0,5.23-1.32,39.74-62.95,48.76-72.94,47.13-75.55-1.47-2.37-9.95,11-51.38,69.69C395,383.79,393,387,394.92,389.7Z"/>
            <path class="cls-110" d="M437.49,486.37c3.41,4.81,7.12.09,8.5-2.2,64.2-105.5,78.8-122.22,76.14-126.62C519.72,353.56,506,376,439,474.3,437.59,476.43,434.29,481.87,437.49,486.37Z"/>
            <path class="cls-110" d="M578.31,451.46c2,3.11,4.13.11,4.91-1.35,36.41-67.33,44.75-78,43.18-80.81-1.43-2.58-9.2,11.72-47.27,74.42C578.3,445.08,576.43,448.54,578.31,451.46Z"/>
            <path class="cls-110" d="M683.78,121c2.86,4,6,.07,7.11-1.85C744.48,30.1,756.67,16,754.45,12.29c-2-3.38-13.45,15.54-69.38,98.49C683.86,112.57,681.1,117.16,683.78,121Z"/>
            <path class="cls-110" d="M582.82,96.32c2.64,3.41,5.59,0,6.69-1.64,51.2-75.95,62.78-88,60.73-91.15-1.86-2.83-12.78,13.31-66.1,84.15C583,89.21,580.35,93.12,582.82,96.32Z"/>
            <path class="cls-110" d="M485.13,113.69c2.64,3.41,5.58,0,6.69-1.64C543,36.1,554.6,24,552.55,20.9c-1.86-2.83-12.78,13.31-66.1,84.14C485.29,106.58,482.66,110.49,485.13,113.69Z"/>
            <path class="cls-110" d="M403.62,81.56c2.06,2.57,4.4,0,5.27-1.26,40.6-57.72,49.76-66.9,48.16-69.26-1.46-2.14-10.12,10.12-52.37,64C403.77,76.18,401.68,79.15,403.62,81.56Z"/>
            <path class="cls-110" d="M309.18,103.27c2.07,2.57,4.4,0,5.28-1.26,40.59-57.72,49.76-66.9,48.15-69.26-1.45-2.14-10.11,10.12-52.36,64C309.33,97.89,307.24,100.86,309.18,103.27Z"/>
            <path class="cls-110" d="M239.71,67.45c2.07,2.57,4.4,0,5.28-1.26C285.58,8.47,294.75-.71,293.14-3.07c-1.45-2.14-10.11,10.12-52.36,64C239.86,62.07,237.77,65,239.71,67.45Z"/>
            <path class="cls-110" d="M643.29,76.73c1.07,1.48,2.23,0,2.66-.68C666.1,43.48,670.67,38.32,669.84,37s-5.05,5.69-26.05,36C643.33,73.67,642.29,75.34,643.29,76.73Z"/>
            <path class="cls-110" d="M408.84,121.43c1,1.07,2.14,0,2.58-.57,20.19-24.72,24.72-28.67,24-29.66s-5,4.36-26,27.45C409,119.15,407.92,120.42,408.84,121.43Z"/>
            <path class="cls-110" d="M501.21,221.88c1.58,2,3.35,0,4-1C536,175.32,543,168.08,541.74,166.2c-1.12-1.7-7.69,8-39.74,50.49C501.3,217.61,499.72,220,501.21,221.88Z"/>
            <path class="cls-110" d="M588.93,182.35c.59.86,1.24,0,1.48-.38,11.16-18.68,13.7-21.63,13.24-22.41s-2.81,3.26-14.45,20.65A1.94,1.94,0,0,0,588.93,182.35Z"/>
            <path class="cls-110" d="M524.89,130.25c.59.85,1.24,0,1.48-.39,11.16-18.67,13.7-21.63,13.23-22.41s-2.8,3.26-14.45,20.66A2,2,0,0,0,524.89,130.25Z"/>
            <path class="cls-110" d="M527.06,309.35c.59.86,1.24,0,1.48-.38,11.16-18.68,13.7-21.63,13.23-22.41s-2.8,3.26-14.45,20.66A1.93,1.93,0,0,0,527.06,309.35Z"/>
            <path class="cls-110" d="M153.06,232.71c3.07,4.14,6.44,0,7.71-1.94,58.5-91.6,71.77-106.13,69.38-109.93-2.16-3.44-14.64,16-75.62,101.41C153.2,224.11,150.19,228.82,153.06,232.71Z"/>
            <path class="cls-110" d="M94.45,130.68c3.06,4.14,6.43,0,7.7-2,58.5-91.59,71.77-106.12,69.39-109.92-2.17-3.44-14.64,16-75.63,101.41C94.59,122.07,91.58,126.79,94.45,130.68Z"/>
            <path class="cls-110" d="M77.39,62.42c1.11,1.5,2.33,0,2.79-.71,21.26-33.28,26.08-38.56,25.21-39.94s-5.31,5.82-27.47,36.85C77.44,59.29,76.34,61,77.39,62.42Z"/>
            <path class="cls-110" d="M-38.61,123.79c2.79,3.77,5.86,0,7-1.77C21.62,38.7,33.69,25.48,31.52,22c-2-3.13-13.32,14.58-68.8,92.26C-38.48,116-41.22,120.25-38.61,123.79Z"/>
            <path class="cls-110" d="M-59.23,208.46c2.78,3.76,5.85,0,7-1.77C1,123.37,13.07,110.14,10.9,106.69c-2-3.13-13.32,14.58-68.8,92.26C-59.1,200.63-61.84,204.92-59.23,208.46Z"/>
            <path class="cls-110" d="M-31,229.08c2.79,3.77,5.86,0,7-1.77,53.22-83.32,65.29-96.54,63.12-100-2-3.14-13.32,14.57-68.8,92.25C-30.88,221.25-33.62,225.54-31,229.08Z"/>
            <path class="cls-110" d="M-64.66,335.46c2.79,3.76,5.86,0,7-1.77,53.22-83.32,65.29-96.55,63.12-100-2-3.13-13.32,14.58-68.8,92.26C-64.53,327.63-67.27,331.92-64.66,335.46Z"/>
            <path class="cls-110" d="M-39.69,376.7c2.78,3.77,5.85,0,7-1.76,53.22-83.33,65.3-96.55,63.13-100-2-3.13-13.32,14.57-68.8,92.25C-39.57,368.88-42.31,373.17-39.69,376.7Z"/>
            <path class="cls-110" d="M66.74,257.61c1.49,2,3.13,0,3.75-.95C99,212,105.46,205,104.3,203.1c-1.06-1.67-7.14,7.81-36.85,49.41C66.8,253.42,65.34,255.71,66.74,257.61Z"/>
            <path class="cls-110" d="M63.05,200.3c.9,1.23,1.9,0,2.28-.57,17.31-27.11,21.24-31.41,20.53-32.53s-4.33,4.74-22.38,30C63.09,197.76,62.2,199.15,63.05,200.3Z"/>
            <path class="cls-110" d="M580.37,358.87c1.18,1.63,2.49,0,3-.76,22.58-36,27.71-41.75,26.79-43.25s-5.66,6.3-29.22,39.89C580.41,355.48,579.25,357.34,580.37,358.87Z"/>
            <path class="cls-110" d="M798.59,631.33c1.34,1.59,2.87,0,3.45-.81,26.71-36,32.73-41.74,31.69-43.2s-6.64,6.32-34.42,39.93C798.71,628,797.33,629.84,798.59,631.33Z"/>
            <path class="cls-110" d="M658.64,602.56c1.89,2.67,4,.05,4.72-1.22C699,542.72,707.11,533.43,705.63,531c-1.34-2.22-8.94,10.24-46.12,64.86C658.7,597,656.86,600.05,658.64,602.56Z"/>
            <path class="cls-110" d="M590.16,569c1.57,2.62,3.16.12,3.76-1.09,27.41-56.06,33.72-64.89,32.49-67.29-1.11-2.17-7,9.74-35.69,61.91C590.1,563.62,588.69,566.5,590.16,569Z"/>
            <path class="cls-110" d="M486.11,604.22c2.37,3.67,4.86.13,5.79-1.59,42.93-79.5,52.76-92.06,50.9-95.42-1.68-3-10.84,13.85-55.73,87.87C486.1,596.68,483.89,600.77,486.11,604.22Z"/>
            <path class="cls-110" d="M740.19,617.24c2.62,3.65,5.48,0,6.55-1.69,49.52-80.32,60.77-93,58.73-96.39-1.85-3-12.41,14-64.07,88.89C740.28,609.68,737.73,613.81,740.19,617.24Z"/>
            <path class="cls-110" d="M734.55,535.81c1.34,1.59,2.87,0,3.45-.81,26.71-36,32.73-41.74,31.69-43.2s-6.64,6.32-34.42,39.93C734.67,532.46,733.29,534.31,734.55,535.81Z"/>
            <path class="cls-110" d="M666,513.32c.76,1,1.59,0,1.9-.49,14.43-23,17.71-26.66,17.12-27.61s-3.62,4-18.66,25.47C666.06,511.16,665.32,512.34,666,513.32Z"/>
            <path class="cls-110" d="M662.77,448.19c.76,1,1.6,0,1.91-.48,14.43-23,17.7-26.66,17.11-27.62s-3.61,4-18.66,25.47C662.8,446,662.06,447.21,662.77,448.19Z"/>
            <path class="cls-110" d="M455.45,538.28c.76,1.05,1.59,0,1.9-.48,14.43-23,17.71-26.66,17.12-27.62s-3.62,4-18.66,25.48C455.48,536.12,454.74,537.31,455.45,538.28Z"/>
            <path class="cls-110" d="M510.84,467.56c1,1.37,2,0,2.35-.62,17.69-30,21.71-34.71,21-36s-4.44,5.23-22.9,33.15C510.86,464.73,510,466.28,510.84,467.56Z"/>
            <path class="cls-110" d="M424,442.6c.95,1.36,2,0,2.35-.62,17.69-30,21.72-34.71,21-36s-4.45,5.23-22.91,33.15C424,439.77,423.11,441.31,424,442.6Z"/>
            <path class="cls-110" d="M352.36,314.51c.95,1.37,2,0,2.35-.62,17.69-30,21.71-34.71,21-36s-4.44,5.23-22.9,33.15C352.38,311.68,351.47,313.22,352.36,314.51Z"/>
            <path class="cls-110" d="M288.32,327.54c.94,1.36,2,0,2.35-.62,17.68-30,21.71-34.71,21-36s-4.44,5.23-22.9,33.15C288.34,324.71,287.43,326.25,288.32,327.54Z"/>
            <path class="cls-110" d="M220.16,322.88c1.84,1.88,4-.1,4.85-1,38.21-43.78,46.76-50.8,45.34-52.53-1.29-1.57-9.44,7.74-49.09,48.67C220.4,318.86,218.44,321.12,220.16,322.88Z"/>
            <path class="cls-110" d="M294,396.69c1.83,1.88,4-.1,4.84-1,38.21-43.78,46.76-50.8,45.34-52.53-1.29-1.56-9.44,7.74-49.08,48.67C294.22,392.68,292.25,394.93,294,396.69Z"/>
            <path class="cls-110" d="M336.14,438.18c1.2,1.49,2.54,0,3.05-.74,23.43-33.41,28.73-38.73,27.8-40.09s-5.84,5.86-30.23,37C336.23,435.06,335,436.78,336.14,438.18Z"/>
            <path class="cls-110" d="M316.74,550.4c2,2.77,4.21,0,5-1.29,38.09-61.22,46.75-70.92,45.18-73.47-1.42-2.31-9.55,10.7-49.28,67.76C316.82,544.64,314.86,547.79,316.74,550.4Z"/>
            <path class="cls-110" d="M231,512.4c2,2.78,4.21,0,5-1.28,38.1-61.22,46.76-70.93,45.19-73.47-1.42-2.31-9.55,10.7-49.28,67.76C231.07,506.64,229.11,509.8,231,512.4Z"/>
            <path class="cls-110" d="M171.29,451.62c2,2.78,4.21,0,5-1.29,38.1-61.21,46.75-70.92,45.19-73.47-1.42-2.31-9.55,10.7-49.28,67.76C171.37,445.86,169.4,449,171.29,451.62Z"/>
            <path class="cls-110" d="M125.64,351.94c1.72,2.43,3.59,0,4.29-1.11,32.38-53.41,39.74-61.87,38.4-64.1-1.22-2-8.12,9.33-41.9,59.1C125.69,346.91,124,349.66,125.64,351.94Z"/>
            <path class="cls-110" d="M137.49,413.23c1.16,1.45,2.46,0,2.95-.71,22.61-32.55,27.72-37.72,26.82-39.06s-5.63,5.71-29.18,36.07C137.57,410.19,136.41,411.87,137.49,413.23Z"/>
            <path class="cls-110" d="M52.83,451.22c1.15,1.46,2.45,0,2.94-.71C78.38,418,83.49,412.79,82.6,411.45S77,417.16,53.42,447.52C52.91,448.18,51.74,449.86,52.83,451.22Z"/>
            <path class="cls-110" d="M-24.24,537c1.15,1.46,2.45,0,2.94-.71C1.32,503.72,6.43,498.54,5.53,497.21s-5.64,5.7-29.18,36.07C-24.16,533.93-25.33,535.61-24.24,537Z"/>
            <path class="cls-110" d="M-30.45,478.54c2.62,3.13,5.6-.05,6.73-1.58C28.33,406.25,40.06,395,38,392.11,36.19,389.5,25.09,404.53-29,470.53-30.22,472-32.9,475.6-30.45,478.54Z"/>
            <path class="cls-110" d="M44.12,351.57c1,1,2.14,0,2.57-.56,20.2-23.85,24.73-27.66,24-28.61s-5,4.21-26,26.5C44.25,349.38,43.21,350.61,44.12,351.57Z"/>
            <path class="cls-110" d="M172.33,731.94c1.72,2.25,3.63,0,4.35-1.07C209.9,681,217.43,673,216.09,671c-1.21-1.87-8.3,8.74-42.91,55.29C172.43,727.27,170.72,729.84,172.33,731.94Z"/>
            <path class="cls-110" d="M163.52,626.89c1.2,1.83,2.46.06,2.93-.79,21.74-39.53,26.72-45.78,25.78-47.45-.84-1.51-5.48,6.89-28.21,43.7C163.52,623.15,162.4,625.18,163.52,626.89Z"/>
            <path class="cls-110" d="M120.25,569.25c1.69,2,3.65,0,4.39-1,34.07-44.67,41.74-51.8,40.43-53.61-1.2-1.63-8.46,7.86-43.89,49.57C120.41,565.11,118.66,567.41,120.25,569.25Z"/>
            <path class="cls-110" d="M84.38,534.23c1.72,2.58,3.54.08,4.23-1.14,31.53-56,38.73-64.89,37.39-67.24-1.22-2.14-7.94,9.76-40.89,61.95C84.39,528.93,82.77,531.81,84.38,534.23Z"/>
            <path class="cls-110" d="M39.84,672.47c1.38,1.82,2.92,0,3.5-.87C70,631.24,76.07,624.83,75,623.16c-1-1.51-6.67,7.07-34.47,44.71C39.92,668.69,38.54,670.76,39.84,672.47Z"/>
            <path class="cls-110" d="M-2.49,616c1.38,1.81,2.91,0,3.49-.87,26.69-40.37,32.73-46.78,31.66-48.44S26,573.78-1.82,611.43C-2.42,612.24-3.79,614.32-2.49,616Z"/>
            <path class="cls-110" d="M85.47,732.05c1.59,2,3.36,0,4-1,30.78-45.57,37.74-52.81,36.51-54.69-1.12-1.7-7.68,8-39.74,50.49C85.57,727.78,84,730.13,85.47,732.05Z"/>
            <path class="cls-110" d="M392.58,569.52c1.16,1.5,2.46,0,2.95-.73,22.61-33.42,27.72-38.73,26.82-40.1s-5.64,5.85-29.19,37C392.65,566.39,391.48,568.11,392.58,569.52Z"/>
            <path class="cls-110" d="M385.11,685.14c1.86,2.49,3.91,0,4.68-1.17,35.67-55.13,43.75-63.88,42.3-66.16-1.31-2.07-8.92,9.64-46.09,61C385.2,680,383.36,682.81,385.11,685.14Z"/>
            <path class="cls-110" d="M403.42,728c1.13,1.51,2.39,0,2.86-.71,21.79-33.42,26.72-38.73,25.84-40.11s-5.45,5.85-28.15,37C403.48,724.86,402.36,726.58,403.42,728Z"/>
            <path class="cls-110" d="M242.69,682.62c.75,1.12,1.55,0,1.85-.5,13.86-24.32,17-28.16,16.44-29.19s-3.49,4.24-18,26.9C242.7,680.32,242,681.57,242.69,682.62Z"/>
            <path class="cls-110" d="M297,625.09c.75,1.12,1.56,0,1.86-.5,13.86-24.32,17-28.16,16.43-29.19s-3.49,4.24-18,26.9C297,622.79,296.26,624,297,625.09Z"/>
            <path class="cls-110" d="M265.48,545.85c.75,1.12,1.56,0,1.86-.5,13.86-24.32,17-28.16,16.43-29.19s-3.48,4.24-18,26.9C265.49,543.55,264.78,544.8,265.48,545.85Z"/>
            <path class="cls-110" d="M222.06,457.93c.76,1.11,1.56,0,1.86-.5,13.86-24.32,17-28.17,16.44-29.19s-3.49,4.24-18,26.9C222.07,455.63,221.36,456.88,222.06,457.93Z"/>
            <path class="cls-110" d="M345.91,850.18c1.47,2.46,3,.11,3.54-1C375.23,796.58,381.17,788.29,380,786c-1-2-6.54,9.14-33.56,58.07C345.86,845.17,344.53,847.88,345.91,850.18Z"/>
            <path class="cls-110" d="M306.84,757.92c1.47,2.45,3,.11,3.53-1,25.79-52.58,31.72-60.87,30.57-63.11-1.05-2-6.55,9.14-33.57,58.06C306.78,752.91,305.45,755.61,306.84,757.92Z"/>
            <path class="cls-110" d="M224.48,790c2.19,3.4,4.49.12,5.35-1.47,39.67-73.41,48.75-85,47-88.11-1.56-2.82-10,12.78-51.5,81.14C224.47,783,222.43,786.8,224.48,790Z"/>
            <path class="cls-110" d="M2,902.87c2.19,3.39,4.49.12,5.35-1.47,39.67-73.41,48.75-85,47-88.11-1.56-2.82-10,12.78-51.5,81.14C2,895.91-.1,899.69,2,902.87Z"/>
            <path class="cls-110" d="M-30.61,844.26c2.19,3.39,4.5.11,5.36-1.48,39.67-73.41,48.74-85,47-88.11-1.55-2.81-10,12.78-51.5,81.14C-30.62,837.29-32.66,841.07-30.61,844.26Z"/>
            <path class="cls-110" d="M236.28,919.65c1.47,2.46,3,.11,3.53-1,25.79-52.58,31.73-60.87,30.57-63.12-1.05-2-6.55,9.14-33.57,58.07C236.23,914.64,234.9,917.35,236.28,919.65Z"/>
            <path class="cls-110" d="M213.57,864.15c1.05,1.75,2.12.08,2.52-.73,18.34-37.4,22.56-43.29,21.74-44.89-.74-1.45-4.66,6.5-23.88,41.3C213.54,860.59,212.59,862.51,213.57,864.15Z"/>
            <path class="cls-110" d="M112.63,911.91c1,1.75,2.11.08,2.51-.72,18.34-37.41,22.56-43.3,21.74-44.9-.74-1.45-4.66,6.5-23.88,41.3C112.59,908.35,111.64,910.27,112.63,911.91Z"/>
            <path class="cls-110" d="M133.25,838.1c1.05,1.75,2.12.08,2.51-.73,18.34-37.4,22.57-43.29,21.75-44.89s-4.66,6.5-23.88,41.3C133.21,834.54,132.27,836.46,133.25,838.1Z"/>
            <path class="cls-110" d="M209.08,263.49c.94,1.37,2,0,2.35-.62,17.68-30,21.71-34.7,21-36s-4.44,5.23-22.9,33.15C209.1,260.66,208.19,262.21,209.08,263.49Z"/>
            <path class="cls-110" d="M164.57,148.43c1,1.37,2,0,2.36-.62,17.68-30,21.71-34.7,21-36S183.45,117.08,165,145C164.59,145.6,163.68,147.15,164.57,148.43Z"/>
            <path class="cls-110" d="M734.42,515.49c.75,1,1.59,0,1.9-.48,14.43-23,17.71-26.66,17.11-27.62s-3.61,4-18.66,25.47C734.45,513.33,733.7,514.51,734.42,515.49Z"/>
            <path class="cls-110" d="M883.32,548.43c1.78,2.37,3.74,0,4.47-1.11,34-52.53,41.75-60.87,40.37-63-1.26-2-8.51,9.19-44,58.16C883.41,543.51,881.66,546.21,883.32,548.43Z"/>
            <path class="cls-110" d="M779.24,478.85c2.22,2.53,4.78-.06,5.75-1.31,44.71-57.69,54.77-66.89,53-69.22-1.56-2.11-11.1,10.15-57.57,64C779.46,473.51,777.16,476.48,779.24,478.85Z"/>
            <path class="cls-110" d="M768.38,383c2.36,3.15,5,0,6-1.49,45.46-69.89,55.76-81,53.92-83.87-1.67-2.62-11.37,12.23-58.75,77.39C768.5,376.47,766.16,380.07,768.38,383Z"/>
            <path class="cls-110" d="M1035.68,96.72c2,2.68,4.11,0,4.92-1.25,37.28-59.19,45.75-68.58,44.22-71-1.38-2.23-9.34,10.35-48.22,65.52C1035.76,91.15,1033.84,94.2,1035.68,96.72Z"/>
            <path class="cls-110" d="M953,253.31c3.08,4.19,6.47.05,7.74-1.95,58.79-92.47,72.13-107.14,69.73-111-2.18-3.48-14.72,16.17-76,102.37C953.17,244.63,950.15,249.39,953,253.31Z"/>
            <path class="cls-110" d="M1100.39,409.84c1.48,1.68,3.2,0,3.85-.87,30-38.31,36.74-44.43,35.59-46s-7.44,6.74-38.61,42.52C1100.54,406.3,1099,408.27,1100.39,409.84Z"/>
            <path class="cls-110" d="M1140.42,455.56c1,1.49,2.07,0,2.47-.66,18.49-32.28,22.71-37.39,21.93-38.74s-4.65,5.63-24,35.7C1140.43,452.51,1139.48,454.17,1140.42,455.56Z"/>
            <path class="cls-110" d="M1091.19,340.08c.76.88,1.63,0,2-.45,15.28-20.1,18.72-23.31,18.13-24.12s-3.8,3.53-19.68,22.3C1091.26,338.21,1090.47,339.25,1091.19,340.08Z"/>
            <path class="cls-110" d="M1008.71,277c.88,1,1.88,0,2.26-.53,17.45-23.57,21.38-27.33,20.7-28.28s-4.34,4.14-22.49,26.14C1008.79,274.85,1007.89,276.06,1008.71,277Z"/>
            <path class="cls-110" d="M1222.91,462.08c1,1.48,2.08,0,2.48-.66,18.49-32.29,22.71-37.39,21.93-38.75s-4.66,5.63-24,35.7C1222.93,459,1222,460.69,1222.91,462.08Z"/>
            <path class="cls-110" d="M1121.06,564.84c2,2.85,4.07.06,4.85-1.29,36.44-62.39,44.75-72.26,43.22-74.88-1.39-2.37-9.16,10.89-47.21,69C1121.09,558.94,1119.22,562.16,1121.06,564.84Z"/>
            <path class="cls-110" d="M965.29,642.93c1,1.61,2.1.06,2.5-.7,18.47-34.75,22.7-40.24,21.9-41.71s-4.67,6.05-24,38.41C965.28,639.63,964.33,641.42,965.29,642.93Z"/>
            <path class="cls-110" d="M922.77,581.34c1.61,1.67,3.51-.08,4.23-.92,33.28-38.72,40.74-44.93,39.49-46.46s-8.22,6.84-42.76,43C923,577.78,921.26,579.78,922.77,581.34Z"/>
            <path class="cls-110" d="M837,689.89c1.61,1.66,3.51-.08,4.23-.92C874.53,650.25,882,644,880.74,642.51s-8.22,6.84-42.77,43C837.22,686.33,835.51,688.32,837,689.89Z"/>
            <path class="cls-110" d="M879,766.55c1.87,2.49,3.94,0,4.72-1.18,35.92-55.27,44.07-64,42.61-66.33-1.32-2.07-9,9.67-46.42,61.21C879.09,761.36,877.24,764.21,879,766.55Z"/>
            <path class="cls-110" d="M1033.53,527.3c2,2.65,4.23,0,5.07-1.26,38.66-58.89,47.42-68.24,45.86-70.67-1.42-2.21-9.67,10.3-50,65.22C1033.63,521.78,1031.64,524.81,1033.53,527.3Z"/>
            <path class="cls-110" d="M970.57,470.85c2,2.65,4.23,0,5.07-1.26,38.66-58.89,47.42-68.24,45.86-70.67-1.42-2.2-9.66,10.31-50,65.22C970.68,465.33,968.69,468.36,970.57,470.85Z"/>
            <path class="cls-110" d="M1067.26,558.56c.67,1,1.36,0,1.62-.45,12-22.45,14.7-26,14.18-26.94s-3,3.91-15.53,24.8A2.55,2.55,0,0,0,1067.26,558.56Z"/>
            <path class="cls-110" d="M1026,473.17c.66,1,1.35,0,1.61-.45,12-22.45,14.7-26,14.18-26.94s-3,3.9-15.53,24.8A2.53,2.53,0,0,0,1026,473.17Z"/>
            <path class="cls-110" d="M1381.59,289.78c2,3,4.25.07,5.07-1.34,38.07-65.29,46.75-75.62,45.15-78.36-1.45-2.48-9.57,11.39-49.33,72.22C1381.62,283.61,1379.66,287,1381.59,289.78Z"/>
            <path class="cls-110" d="M1543.25,222.75c1.66,2.48,3.44.07,4.11-1.1,30.72-54,37.73-62.54,36.43-64.81-1.18-2.06-7.73,9.41-39.83,59.71C1543.26,217.64,1541.68,220.42,1543.25,222.75Z"/>
            <path class="cls-110" d="M1477,322.91c1.25,1.93,2.56.06,3-.84,22.56-41.85,27.72-48.46,26.75-50.23-.89-1.61-5.7,7.29-29.29,46.25C1476.94,318.94,1475.78,321.09,1477,322.91Z"/>
            <path class="cls-110" d="M1520.36,348c1.13,1.68,2.34,0,2.8-.75,20.94-36.63,25.71-42.42,24.83-44s-5.27,6.39-27.15,40.51C1520.37,344.54,1519.29,346.42,1520.36,348Z"/>
            <path class="cls-110" d="M1521.25,412.91c1,1.43,2,0,2.38-.64,17.8-31.13,21.86-36.06,21.11-37.37s-4.48,5.43-23.08,34.43C1521.26,410,1520.34,411.57,1521.25,412.91Z"/>
            <path class="cls-110" d="M1522.61,486.63c1.56,2.27,3.25.05,3.88-1,29.1-49.65,35.73-57.51,34.51-59.59-1.11-1.88-7.32,8.67-37.7,54.93C1522.64,481.94,1521.14,484.49,1522.61,486.63Z"/>
            <path class="cls-110" d="M1460.74,614.71c1.56,2.27,3.24,0,3.87-1,29.11-49.65,35.74-57.51,34.52-59.59-1.11-1.89-7.32,8.66-37.7,54.92C1460.77,610,1459.27,612.58,1460.74,614.71Z"/>
            <path class="cls-110" d="M1471.75,735.88c2.27,3,4.8,0,5.75-1.44,43.83-67,53.76-77.62,52-80.39-1.61-2.51-11,11.72-56.63,74.19C1471.87,729.59,1469.61,733,1471.75,735.88Z"/>
            <path class="cls-110" d="M1486.76,872.05c1.44,2.12,3,.05,3.56-.94,26.65-46.18,32.73-53.49,31.61-55.43-1-1.76-6.71,8.06-34.54,51.07C1486.78,867.69,1485.41,870.06,1486.76,872.05Z"/>
            <path class="cls-110" d="M1373.91,828.23c1.78,2.92,3.62.12,4.3-1.23,31.49-62.72,38.73-72.61,37.33-75.28-1.26-2.42-8,10.91-41,69.27C1373.86,822.26,1372.24,825.49,1373.91,828.23Z"/>
            <path class="cls-110" d="M1311,800c1.78,2.92,3.62.12,4.3-1.23,31.49-62.72,38.73-72.61,37.34-75.28-1.27-2.42-8,10.9-41,69.27C1310.9,794,1309.28,797.26,1311,800Z"/>
            <path class="cls-110" d="M1391.24,587.42c1.56,2.61,3.16.12,3.75-1.09,27.42-55.76,33.73-64.55,32.5-66.93-1.11-2.16-7,9.69-35.69,61.58C1391.18,582.11,1389.77,585,1391.24,587.42Z"/>
            <path class="cls-110" d="M1378.33,468.84c2.06,3.08,4.27.08,5.09-1.37,38.06-67,46.75-77.63,45.13-80.45-1.46-2.55-9.58,11.69-49.34,74.13C1378.35,462.5,1376.39,466,1378.33,468.84Z"/>
            <path class="cls-110" d="M1315.15,480.63c.87,1.29,1.8,0,2.15-.57,16-27.94,19.71-32.36,19-33.53s-4,4.87-20.8,30.9C1315.17,478,1314.34,479.43,1315.15,480.63Z"/>
            <path class="cls-110" d="M1389,367.75c.86,1.28,1.79,0,2.14-.58,16.05-27.94,19.71-32.36,19-33.53s-4,4.87-20.8,30.9C1389,365.1,1388.15,366.54,1389,367.75Z"/>
            <path class="cls-110" d="M1325.54,330.43c.67,1,1.38,0,1.65-.44,12.29-21.41,15.09-24.79,14.57-25.69s-3.09,3.73-15.93,23.67A2.3,2.3,0,0,0,1325.54,330.43Z"/>
            <path class="cls-110" d="M1387.41,204.51c.67,1,1.38,0,1.65-.44,12.29-21.4,15.1-24.79,14.58-25.69s-3.1,3.74-15.94,23.68A2.29,2.29,0,0,0,1387.41,204.51Z"/>
            <path class="cls-110" d="M1254.42,567.11c1.22,2,2.49.09,3-.84,21.72-42.72,26.71-49.46,25.75-51.28-.87-1.65-5.5,7.43-28.25,47.2C1254.39,563.05,1253.27,565.25,1254.42,567.11Z"/>
            <path class="cls-110" d="M1195.79,583.61c1.08,1.55,2.25,0,2.68-.7,20.13-34,24.72-39.41,23.88-40.83s-5.06,5.94-26.08,37.63C1195.82,580.4,1194.78,582.15,1195.79,583.61Z"/>
            <path class="cls-110" d="M1094.81,645.71c.83,1.1,1.76,0,2.11-.52,16.07-24.45,19.71-28.34,19.06-29.35s-4,4.28-20.76,27.09C1094.85,643.42,1094,644.68,1094.81,645.71Z"/>
            <path class="cls-110" d="M1023.41,812.68c2.32,3.58,4.77.12,5.68-1.56,42.11-77.46,51.75-89.7,49.94-93-1.65-3-10.63,13.49-54.67,85.62C1023.4,805.34,1021.23,809.32,1023.41,812.68Z"/>
            <path class="cls-110" d="M973.43,748.13c1.85,2.43,3.91,0,4.68-1.16,35.67-54,43.75-62.54,42.31-64.76-1.31-2-8.91,9.44-46.08,59.77C973.54,743.07,971.7,745.85,973.43,748.13Z"/>
            <path class="cls-110" d="M934.16,851.85c.91,1.31,1.89,0,2.25-.6,16.87-28.8,20.71-33.36,20-34.57s-4.24,5-21.85,31.86C934.18,849.13,933.31,850.61,934.16,851.85Z"/>
            <path class="cls-110" d="M928.74,787.8c.9,1.32,1.88,0,2.24-.59,16.87-28.81,20.71-33.37,20-34.57s-4.24,5-21.85,31.86C928.75,785.08,927.88,786.57,928.74,787.8Z"/>
            <path class="cls-110" d="M637.77,822.7c.63,1,1.28,0,1.52-.43C650.43,800.4,653,797,652.49,796s-2.82,3.8-14.48,24.16A2.52,2.52,0,0,0,637.77,822.7Z"/>
            <path class="cls-110" d="M554.33,920.92c1.4,2.08,2.9.05,3.46-.93,25.83-45.31,31.73-52.48,30.63-54.38-1-1.73-6.5,7.9-33.49,50.11C554.35,916.63,553,919,554.33,920.92Z"/>
            <path class="cls-110" d="M385.14,918c2.24,3.51,4.59.13,5.47-1.51,40.48-75.73,49.75-87.7,48-90.9-1.59-2.91-10.23,13.18-52.57,83.7C385.12,910.83,383,914.72,385.14,918Z"/>
            <path class="cls-110" d="M519.14,842.61c.66,1.31,1.28.09,1.51-.5,10.51-27.52,13-31.83,12.44-33s-2.71,4.75-13.79,30.32A4,4,0,0,0,519.14,842.61Z"/>
            <path class="cls-110" d="M786.76,828.43c2,2.45,4.14,0,5-1.19,38.13-54.83,46.75-63.55,45.24-65.79-1.37-2-9.51,9.61-49.21,60.76C786.9,823.31,784.94,826.14,786.76,828.43Z"/>
            <path class="cls-110" d="M805.22,903.33c1.94,2.45,4.14,0,5-1.2,38.14-54.82,46.75-63.54,45.24-65.78-1.37-2-9.51,9.61-49.21,60.75C805.35,898.21,803.39,901,805.22,903.33Z"/>
            <path class="cls-110" d="M727.06,939.15c2,2.45,4.14,0,5-1.19,38.13-54.83,46.75-63.55,45.24-65.79-1.38-2-9.51,9.61-49.21,60.75C727.2,934,725.23,936.85,727.06,939.15Z"/>
            <path class="cls-110" d="M705.35,855.57c1.95,2.45,4.14,0,5-1.2,38.13-54.82,46.75-63.54,45.24-65.78-1.37-2-9.51,9.61-49.21,60.75C705.49,850.45,703.52,853.27,705.35,855.57Z"/>
            <path class="cls-110" d="M686.76,853.62c1.4,2.08,2.9,0,3.46-.93,25.83-45.31,31.72-52.48,30.63-54.38-1-1.73-6.5,7.9-33.49,50.11C686.78,849.33,685.45,851.67,686.76,853.62Z"/>
            <path class="cls-110" d="M741.15,751.67c1.72,1.84,3.73-.07,4.49-1,35.18-42.49,43.08-49.29,41.75-51s-8.71,7.49-45.24,47.19C741.36,747.75,739.54,749.94,741.15,751.67Z"/>
            <path class="cls-110" d="M672.85,721.75c2.33,3,4.91,0,5.89-1.46,44.91-67.7,55.08-78.46,53.27-81.25-1.64-2.53-11.22,11.85-58,75C673,715.4,670.67,718.89,672.85,721.75Z"/>
            <path class="cls-110" d="M573.91,812c1.75,2.83,3.55.12,4.22-1.2,30.94-60.82,38-70.42,36.68-73-1.24-2.35-7.84,10.57-40.24,67.19C573.87,806.21,572.28,809.34,573.91,812Z"/>
            <path class="cls-110" d="M513.13,778.34c1.74,2.83,3.54.12,4.21-1.2,30.95-60.82,38-70.42,36.69-73-1.24-2.35-7.84,10.57-40.24,67.19C513.08,772.56,511.49,775.69,513.13,778.34Z"/>
            <path class="cls-110" d="M442.69,786.57c2.39,3.69,4.9.12,5.83-1.6C491.71,705,501.6,692.41,499.73,689,498,686,488.83,703,443.66,777.38,442.68,779,440.46,783.1,442.69,786.57Z"/>
            <path class="cls-110" d="M528.23,656.32c1.1,1.59,2.28,0,2.72-.72,20.39-34.74,25-40.24,24.18-41.69S550,620,528.72,652.34C528.25,653,527.2,654.83,528.23,656.32Z"/>
            <path class="cls-110" d="M607.42,654.36c.83,1.19,1.73,0,2.06-.54,15.5-26.06,19-30.18,18.39-31.27s-3.9,4.55-20.08,28.82C607.44,651.9,606.65,653.24,607.42,654.36Z"/>
            <path class="cls-110" d="M919,914.8c.9,1.32,1.88,0,2.24-.59,16.87-28.81,20.71-33.37,20-34.57s-4.24,5-21.85,31.86C919,912.08,918.12,913.57,919,914.8Z"/>
            <path class="cls-110" d="M1282.88,625.92c2.46,3.68,5.09.1,6.07-1.63,45.4-80.06,55.77-92.72,53.84-96.09-1.75-3.05-11.43,14-58.86,88.53C1282.9,618.35,1280.56,622.47,1282.88,625.92Z"/>
            <path class="cls-110" d="M1239.62,502.79c3.23,4.55,6.75.08,8.07-2.09,60.94-100,74.8-115.85,72.27-120-2.29-3.79-15.28,17.47-78.86,110.67C1239.72,493.37,1236.58,498.52,1239.62,502.79Z"/>
            <path class="cls-110" d="M1327.16,676.81c1.23,1.85,2.53.05,3-.81,22.57-40.11,27.72-46.45,26.76-48.14-.87-1.53-5.68,7-29.26,44.35C1327.17,673,1326,675.08,1327.16,676.81Z"/>
            <path class="cls-110" d="M1243.77,804c2.36,3.61,4.85.11,5.78-1.58,42.94-78.33,52.75-90.71,50.91-94-1.67-3-10.83,13.65-55.72,86.59C1243.77,796.55,1241.56,800.58,1243.77,804Z"/>
            <path class="cls-110" d="M1185.16,938.58c2.35,3.61,4.84.11,5.77-1.58,42.94-78.33,52.76-90.71,50.92-94-1.68-3-10.84,13.65-55.72,86.59C1185.15,931.15,1182.94,935.18,1185.16,938.58Z"/>
            <path class="cls-110" d="M1332.78,975.48c2.36,3.61,4.85.12,5.78-1.58,42.93-78.33,52.75-90.71,50.91-94-1.67-3-10.83,13.64-55.72,86.59C1332.78,968.06,1330.57,972.09,1332.78,975.48Z"/>
            <path class="cls-110" d="M1144.27,865.84c1.53,2.35,3.15.08,3.75-1,27.89-50.87,34.26-58.91,33.07-61.06-1.09-1.94-7,8.87-36.19,56.24C1144.27,861,1142.83,863.64,1144.27,865.84Z"/>
            <path class="cls-110" d="M1034.64,936.4c1.53,2.35,3.15.07,3.75-1,27.88-50.86,34.26-58.9,33.06-61-1.08-2-7,8.86-36.18,56.23C1034.64,931.58,1033.2,934.2,1034.64,936.4Z"/>
            <path class="cls-110" d="M1063.07,837.62c.89,1.37,1.84,0,2.19-.6,16.23-29.6,19.94-34.28,19.24-35.53s-4.09,5.15-21.06,32.73C1063.07,834.81,1062.24,836.34,1063.07,837.62Z"/>
            <path class="cls-110" d="M1122.82,773.33c1.2,1.84,2.47.06,3-.81,21.94-40,27-46.36,26-48-.86-1.53-5.54,7-28.48,44.25C1122.81,769.53,1121.68,771.59,1122.82,773.33Z"/>
            <path class="cls-110" d="M1189.08,704c1.61,2.47,3.31.08,3.94-1.07,29.3-53.45,36-61.9,34.74-64.15-1.14-2-7.39,9.31-38,59.08C1189.08,699,1187.57,701.7,1189.08,704Z"/>
            <path class="cls-110" d="M1142.66,670.28c1,1.48,2,.05,2.37-.65,17.61-32.12,21.63-37.19,20.88-38.55s-4.44,5.6-22.85,35.51C1142.66,667.23,1141.76,668.89,1142.66,670.28Z"/>
            <path class="cls-110" d="M1547.2,540.27c.89,1.18,1.88,0,2.25-.55,17.07-26.11,20.94-30.25,20.25-31.33s-4.27,4.57-22.06,28.91C1547.25,537.83,1546.37,539.17,1547.2,540.27Z"/>
            <path class="cls-110" d="M1462.54,535.93c.89,1.18,1.87,0,2.24-.56,17.08-26.1,21-30.24,20.26-31.32s-4.27,4.57-22.07,28.91C1462.58,533.48,1461.71,534.83,1462.54,535.93Z"/>
            <path class="cls-110" d="M1459.28,471.89c.89,1.17,1.87,0,2.24-.56,17.08-26.1,21-30.25,20.26-31.32s-4.27,4.56-22.07,28.9C1459.33,469.44,1458.45,470.78,1459.28,471.89Z"/>
            <path class="cls-110" d="M1406.09,672.7c.89,1.18,1.87,0,2.24-.56,17.08-26.1,21-30.24,20.26-31.32s-4.27,4.57-22.06,28.91C1406.14,670.25,1405.26,671.6,1406.09,672.7Z"/>
            <path class="cls-110" d="M1364,156.21c3.53,5,7.36.1,8.79-2.29C1439,43.53,1454.05,26.05,1451.3,21.44c-2.51-4.18-16.63,19.27-85.74,122.13C1364.06,145.8,1360.65,151.48,1364,156.21Z"/>
            <path class="cls-110" d="M1290.12,132.93c2.61,3.73,5.44.07,6.5-1.69,49-81.66,60.14-94.6,58.1-98-1.85-3.09-12.3,14.26-63.42,90.35C1290.19,125.23,1287.67,129.44,1290.12,132.93Z"/>
          </g>
        </g>
      </g>
    </g>
  </g>
</svg>
