<svg id="Layer_1" data-name="Layer 1" xmlns="http://www.w3.org/2000/svg" width="250" height="250" viewBox="0 0 250 250">
  <defs>
    <style>
      .cls-1 {
        fill: #ff0;
      }
    </style>
  </defs>
  <path class="cls-1" d="M168.39,114q-6-6.41-11.41-6.41a22.89,22.89,0,0,0-10,2.21c-3.47,1.67-11.07,7-17.45,12,3-4.44,7-14.11,6.44-19.66a22.63,22.63,0,0,0-1.73-7.68A31.25,31.25,0,0,0,131,86.89h21.51V75.81H74V86.89h47a10.07,10.07,0,0,1,2.17,1.64c2,2,3,7,3.44,10.49.51,4,.51,11.37-4.62,16.86-1.44,2.08-4.11,3.63-5.8,3.63q-4.73.72-8.44,1.17a49.82,49.82,0,0,1-5.89.46q-3.08,0-3.08,3.08,0,1.27,3.45,5.08t4.71,3.8c1,0,8.64-2.6,15.71-2.6,13.23,10.24,13.74,21.93,6.17,29.47-2.84,2.87-7.32,4.54-14.27,4.06a22.7,22.7,0,0,1-15.27-6.59c-4.77-4.41-14-18.31-18.27-27.86l-4.9,2.72c5.32,11.54,14.72,27.16,20.95,33s13,8.84,20.39,8.84,13.15-2,17.68-6c7.58-7.21,11.05-17.66,7-29.27a28.6,28.6,0,0,0-5.63-8.56c3.36-3,8.42-7.24,11.75-9.08q6.71-3.7,10.11-3.7a9.57,9.57,0,0,1,9.61,10,35,35,0,0,1-3.11,14.23c-2.67,6-10.29,21.28-13.9,26.35l9.39,6c3.07-4,11-19.87,12.83-24.88A40.39,40.39,0,0,0,176,135.2Q176,122.18,168.39,114Z"/>
</svg>
