<svg id="Layer_1" data-name="Layer 1" xmlns="http://www.w3.org/2000/svg" width="250" height="250" viewBox="0 0 250 250">
  <defs>
    <style>
      .cls-1 {
        fill: #ff0;
      }
    </style>
  </defs>
  <path class="cls-1" d="M141.23,67.72h79.83V53.2H28.94L29,67.72h87.61v43.43q-4.39-3.14-9.2-6.63Q100.27,99.35,96.13,96a28.42,28.42,0,0,0-9.07-5.31A36,36,0,0,0,77,89.49a78.33,78.33,0,0,0-11.14.78q-10.38,2.07-20.74,3.89L56,108.41q9.33-2.32,14.9-3.37a60.21,60.21,0,0,1,11-1q5.18,0,12.18,3.37T113,119L54.4,158.18l12.12,10.6,50.09-35.19v60.83h15.55V125q5.66,2,8,2.63a28.16,28.16,0,0,0,6.74.76q3.88,0,11.27-3.14a60.81,60.81,0,0,0,10.24-5.16q6.74,13,6.74,16.59c0,1.39-2,2.94-6,4.67q-12.19,5.44-18.14,10.11-7.26,5.7-7.26,13,0,13.22,14.25,23.32,12.7,9.08,25.92,9.08,12.7,0,26.44-9.33L198,175.8a37.93,37.93,0,0,1-10.63,6.61,31.44,31.44,0,0,1-12.7,3q-7.51,0-12.18-3.89a11.77,11.77,0,0,1-4.67-9.33q0-6,3.14-9.07t12.53-7.26a89.66,89.66,0,0,0,12.27-6q6.8-4.14,6.8-7.26,0-2.07-5.29-13-3.45-7-7.93-15.3,1-.51,7.51-4.66c3.8-2.76,5.71-4.93,5.71-6.48,0-2.25-1.22-4.06-3.63-5.45a89.37,89.37,0,0,0-13.22-7.12q-8.3-3.76-11.41-3.76a7.31,7.31,0,0,0-3.75,1.43,4.52,4.52,0,0,0-2.21,4,18.64,18.64,0,0,0,1.56,5.83q1.55,4,2.85,7.13a69.38,69.38,0,0,1-12.83,8.37q-6.61,3.3-11,3.29a37.6,37.6,0,0,1-6.73-.57V67.72Z"/>
</svg>
