<svg id="Layer_1" data-name="Layer 1" xmlns="http://www.w3.org/2000/svg" width="250" height="250" viewBox="0 0 250 250">
  <defs>
    <style>
      .cls-1 {
        fill: #ff0;
      }
    </style>
  </defs>
  <g>
    <path class="cls-1" d="M204.63,71.1H140.36V86.15h24.49v47.67H124.12c4.39-6.67,10.24-20.78,9.36-28.95-.44-4.08-.85-7.89-2.54-11.38s-4.85-7.36-9.47-11.64a53.22,53.22,0,0,0-15-9.91q-8-3.48-13.09-3.48a42.6,42.6,0,0,0-13.61,2.42C75,72.49,66.25,76.92,60.37,80l5.34,11.29c1.25,2.15,2.58,3.22,4,3.22,5.16-2.68,13.74-7.55,18.91-10.42Q96.9,80.29,103,80.29q7.21,0,11.62,4.43c2.94,3,4.43,10.4,5.07,15.56.75,6,.75,16.84-6.81,25-2.11,3.08-6,5.37-8.54,5.37q-6.94,1.08-12.42,1.75a74.73,74.73,0,0,1-8.67.67c-3,0-4.54,1.53-4.54,4.57,0,1.26,1.69,3.76,5.07,7.53s5.7,5.64,6.94,5.64c1.42,0,19.78-4.91,24.29-2.94,21.67,9.46,18.87,31.81,7.94,42.77-4.19,4.26-10.78,6.73-21,6-9.06-.62-15.46-3.23-22.49-9.78S58.8,159.73,52.57,145.57l-7.21,4c7.83,17.12,21.68,40.27,30.85,49s19.18,13.1,30,13.1q16,0,26-8.89c11.16-10.7,16.27-26.18,10.32-43.4a46.47,46.47,0,0,0-5.22-10.56h27.47v63.37h16V86.15h23.77Z"/>
    <path class="cls-1" d="M210.36,127.49a9.38,9.38,0,0,0,9.36-9.63,9.47,9.47,0,0,0-9.09-9.09,9.36,9.36,0,1,0-.27,18.72"/>
    <path class="cls-1" d="M210.36,190.49a9.38,9.38,0,0,0,9.36-9.63,9.47,9.47,0,0,0-9.09-9.09,9.36,9.36,0,1,0-.27,18.72"/>
  </g>
</svg>
