<svg id="Layer_1" data-name="Layer 1" xmlns="http://www.w3.org/2000/svg" width="250" height="250" viewBox="0 0 250 250">
  <defs>
    <style>
      .cls-1 {
        fill: #ff0;
      }
    </style>
  </defs>
  <path class="cls-1" d="M150.28,123.35h0c4.53-2.15,16.56-26.54,15.2-39.13a40.55,40.55,0,0,0-3.07-13.69,55.52,55.52,0,0,0-5.76-13.46H195l-.25-19.76H55V57.07h83.76A18.72,18.72,0,0,1,142.69,60c3.55,3.56,5.37,12.51,6.14,18.71.9,7.2.9,20.26-8.24,30.05a15.14,15.14,0,0,1-10.34,6.46q-8.41,1.3-15,2.11a90,90,0,0,1-10.5.8,4.86,4.86,0,0,0-5.49,4.12,4.56,4.56,0,0,0,0,1.38q0,2.27,6.14,9t8.4,6.79c1.72,0,15.41-4.64,28-4.64,23.59,18.26,24.5,39.09,11,52.53-5.07,5.13-13.06,8.1-25.44,7.25a40.46,40.46,0,0,1-27.23-11.75c-8.51-7.87-25-32.66-32.58-49.68L58.8,138c9.48,20.58,26.24,48.42,37.34,58.93s23.22,15.75,36.37,15.75q19.4,0,31.51-10.68a47.77,47.77,0,0,0,12.49-52.2C174.5,144,164.58,128.32,150.28,123.35Z"/>
</svg>
