<svg id="Layer_1" data-name="Layer 1" xmlns="http://www.w3.org/2000/svg" width="250" height="250" viewBox="0 0 250 250">
  <defs>
    <style>
      .cls-1 {
        fill: #ff0;
      }
    </style>
  </defs>
  <path class="cls-1" d="M164.78,91.4V81H136.11q-1.91-3.9-3.17-7Q129,64.83,129,59.43a13.57,13.57,0,0,1,3.32-9.08,10.31,10.31,0,0,1,8.14-3.9,10.42,10.42,0,0,1,6.53,2.2q2.86,2.19,5.84,7.79l4.36-1.2Q154,44.86,148.06,40.06a16.56,16.56,0,0,0-10.54-3.6h0a18.92,18.92,0,0,0-13.06,5.2q-5.73,5.19-5.73,11.78,0,7.39,6.19,19.18c1.41,2.74,3,5.54,4.86,8.39H85.23V91.4h46.11v8.72c-7.91-1.24-20.89-2.06-28.92,3.7a20.44,20.44,0,0,0-8.34,14.26,21.13,21.13,0,0,0,6.82,17.85l.41.32a17.31,17.31,0,0,0,3.6,2.06,23.37,23.37,0,0,0,3.93,1.26,30.22,30.22,0,0,0,4,.62c1.26.11,2.53.16,3.79.15.47,0,.95,0,1.42,0a46.11,46.11,0,0,0,5-.45,30.52,30.52,0,0,0,3.87-.89,46.24,46.24,0,0,1,4.67-1.18,13.23,13.23,0,0,1,4.52-.23,6.34,6.34,0,0,1,3.54,1.61,5.16,5.16,0,0,1,1.61,4.17c0,.43,0,.34-.05,1.07,0,.46-.06.53-.15,1.86-.05.67-.14,1.34-.24,2a25.93,25.93,0,0,1-1.86,6.72c-.17.4-.35.79-.55,1.18a22.92,22.92,0,0,1-2.36,3.75,16.83,16.83,0,0,1-2.6,2.87,13,13,0,0,1-2.37,1.46c-.43.21-.88.39-1.32.58s-.87.56-1.17.13h0l-.24-.33c-.61-.86-1.24-1.71-1.89-2.54a44.27,44.27,0,0,0-4-4.5,26.62,26.62,0,0,0-4.28-3.47,19,19,0,0,0-4.76-2.24,18.09,18.09,0,0,0-5.32-.79h-.34c-9.67.17-13.76,4.92-14.36,9.31-.82,6,4.31,11.61,12.47,13.77,7,1.84,16.71,1.67,21.94,1,1.09,1.76,6.37,16.22,10.5,23.78l8.52-5.69A193.26,193.26,0,0,1,136,176.7l-1.8-3a27.46,27.46,0,0,0,5.52-3.06l.53-.39a26.52,26.52,0,0,0,3.86-3.62,26.19,26.19,0,0,0,3-4.33,28.41,28.41,0,0,0,2.17-4.93,31.45,31.45,0,0,0,1.27-5.51,34.77,34.77,0,0,0,.34-5.95,22.43,22.43,0,0,0-.57-4.31,10,10,0,0,0-.69-2.32,23.43,23.43,0,0,0-1.71-3.83A14.13,14.13,0,0,0,146,133a10.33,10.33,0,0,0-2.6-2,19.19,19.19,0,0,0-3.39-1.57,18.28,18.28,0,0,0-4.31-1.14,13.58,13.58,0,0,0-3.32-.07c-.42,0-1.47.18-1.88.25-1.56.27-2.65.52-4.17.87a38.36,38.36,0,0,1-4.89.81c-.49.05-1,.09-1.48.11-1.71.09-3.42,0-5.13,0a41.17,41.17,0,0,1-5.87-.64,11,11,0,0,1-4.85-1.84c-.8-.66-3.22-2.92-2.83-8.72a10.44,10.44,0,0,1,3.72-7.32c6.26-4.5,24.7-1.9,29.56-.66,0,0,3,1.11,5.38.29,2-.71,1.8-3.33,1.8-3.33V91.4ZM108.7,164.71a5.31,5.31,0,0,1-3.16-1.74c-1.2-1.52-.08-10.35,15.94,3.44C119,166.15,116.73,166.66,108.7,164.71Z"/>
</svg>
