<svg id="Layer_1" data-name="Layer 1" xmlns="http://www.w3.org/2000/svg" width="250" height="250" viewBox="0 0 250 250">
  <defs>
    <style>
      .cls-1 {
        fill: #ff0;
      }
    </style>
  </defs>
  <path class="cls-1" d="M210.07,52.11H141.41v16h26.16V118.6H124.12c4.68-7.12,10.87-22,9.94-30.65-.47-4.33-.91-8.38-2.71-12.08s-5.18-7.81-10.12-12.35a57,57,0,0,0-16-10.52q-8.55-3.69-14-3.69a46.18,46.18,0,0,0-14.55,2.57C71.6,53.59,62.24,58.28,56,61.51l5.7,12q2,3.42,4.28,3.42c5.51-2.85,14.68-8,20.2-11.06q8.84-4,15.4-4,7.7,0,12.4,4.71c3.14,3.13,4.74,11,5.42,16.5.8,6.36.8,17.88-7.27,26.52-2.26,3.27-6.47,5.7-9.13,5.7q-7.41,1.14-13.26,1.85a80.23,80.23,0,0,1-9.27.72c-3.23,0-4.85,1.61-4.85,4.85q0,2,5.42,8t7.42,6c1.52,0,21.12-5.21,25.94-3.12,23.15,10,20.16,33.76,8.49,45.38-4.48,4.52-11.52,7.15-22.45,6.4-9.68-.66-16.52-3.43-24-10.38s-22.09-28.81-28.75-43.83l-7.7,4.28c8.37,18.16,23.16,42.73,32.95,52s20.49,13.9,32.09,13.9q17.11,0,27.81-9.43c11.92-11.36,17.37-27.78,11-46a52.31,52.31,0,0,0-5.89-11.1h29.66v66.58l17.11-.11V68.09h25.39Z"/>
</svg>
