<svg id="Layer_1" data-name="Layer 1" xmlns="http://www.w3.org/2000/svg" width="250" height="250" viewBox="0 0 250 250">
  <defs>
    <style>
      .cls-1 {
        fill: #ff0;
      }
    </style>
  </defs>
  <path class="cls-1" d="M164.34,103.93q-5.66-7.44-11.24-14.73t-7.76-9.78A27.59,27.59,0,0,0,137.8,73,14.63,14.63,0,0,0,131,71a23.14,23.14,0,0,0-4.71.5q-2.4.51-2.4,1.53,0,.87,2.69,6a35.73,35.73,0,0,0,3.55,6c1.35-.38,2.75-.82,4.21-1.31a11.62,11.62,0,0,1,3-.72,8.77,8.77,0,0,1,4.35,1.23,18,18,0,0,1,3.92,3q2.33,2.34,6.67,7.46,4.94,5.86,7.54,9.37h-20l0,0H122.28v8h13.14v25.09H113.8c2.32-3.69,5.24-10.88,4.79-15.1a18,18,0,0,0-1.37-6.08,22.4,22.4,0,0,0-5.08-6.21,28.67,28.67,0,0,0-8-5.29,18.77,18.77,0,0,0-7-1.86,23.11,23.11,0,0,0-7.3,1.29,97.09,97.09,0,0,0-10.44,4.85l2.87,6c.67,1.14,1.38,1.72,2.15,1.72,2.77-1.44,7.37-4,10.15-5.57a19.25,19.25,0,0,1,7.73-2,8.4,8.4,0,0,1,6.23,2.37c1.58,1.58,2.38,5.55,2.73,8.31.4,3.19.4,9-3.66,13.34a6.71,6.71,0,0,1-4.58,2.87q-3.73.57-6.66.93a40.47,40.47,0,0,1-4.66.36,2.15,2.15,0,0,0-2.44,2.44q0,1,2.73,4t3.72,3c.77,0,10.61-2.63,13-1.57,11.63,5,10.13,17,4.27,22.83-2.25,2.27-5.79,3.59-11.28,3.22a17.92,17.92,0,0,1-12.07-5.22c-3.77-3.49-11.1-14.5-14.44-22l-3.87,2.15c4.2,9.13,11.63,21.5,16.55,26.16s10.29,7,16.12,7,10.39-1.58,14-4.74a21.23,21.23,0,0,0,5.54-23.17,27.93,27.93,0,0,0-3-5.93h14.95V179l8.6,0V112h12.75l0,0h.61V179H166V112H178.7v-8Z"/>
</svg>
