<svg id="Layer_1" data-name="Layer 1" xmlns="http://www.w3.org/2000/svg" width="250" height="250" viewBox="0 0 250 250">
  <defs>
    <style>
      .cls-1 {
        fill: #ff0;
      }
    </style>
  </defs>
  <path class="cls-1" d="M185.34,56.65H64.47l0,14.24H88.94v58.25q0,11.19,8.18,16.78L167,192.46c4.56,2.68,15.86-1.21,10.25-4.56l-69.15-47.28q-1.3-.76-2.36-3.82a17.92,17.92,0,0,1-1-5.85V70.89h42.06v46.88a7.27,7.27,0,0,1-7.36,7.3s.44,13.18,3.94,13.6c3.46.2,8.35-2.19,10.72-3.21,4.34-1.86,8.48-4.54,8.48-11.5V70.89h23Z"/>
</svg>
