<svg id="Layer_1" data-name="Layer 1" xmlns="http://www.w3.org/2000/svg" width="250" height="250" viewBox="0 0 250 250">
  <defs>
    <style>
      .cls-1 {
        fill: #ff0;
      }
    </style>
  </defs>
  <path class="cls-1" d="M136.09,152.47s.38,11.49,3.45,11.86c3,.17,7.3-1.91,9.37-2.8,3.8-1.62,7.41-4,7.41-10V105.23h23.23V92.82H152.87Q143,80.67,133.15,68.74q-10.09-12.3-14-16.48a49.48,49.48,0,0,0-13.66-10.82C100.91,39.15,96.79,38,93.12,38a43.92,43.92,0,0,0-8.53.86q-4.34.86-4.34,2.57,0,1.47,4.86,10t6.43,10q3.67-1,7.61-2.2a22.06,22.06,0,0,1,5.52-1.22,16.67,16.67,0,0,1,7.87,2.08,32.49,32.49,0,0,1,7.09,5q4.2,3.94,12.08,12.58,8.37,9.27,13,15H70.45l.1,12.41H91.94V156q0,9.75,7.15,14.63l61.15,40.56c4,2.34,13.87-1.06,9-4L108.72,166c-.77-.44-1.46-1.55-2.07-3.32a15.74,15.74,0,0,1-.92-5.1V105.23h36.8v40.88A6.36,6.36,0,0,1,136.09,152.47Z"/>
</svg>
