<svg id="Layer_1" data-name="Layer 1" xmlns="http://www.w3.org/2000/svg" width="250" height="250" viewBox="0 0 250 250">
  <defs>
    <style>
      .cls-1 {
        fill: #ff0;
      }
    </style>
  </defs>
  <path class="cls-1" d="M195,89.64a230.73,230.73,0,0,0-4.6-24.18Q186,47.6,181.26,40.84a34.07,34.07,0,0,0-9.76-9.78q-5-3-8.18-3c-1.95,0-2.92,1.21-2.92,3.61A59.93,59.93,0,0,0,161,39q.6,4.68,2.07,11.66,7.81,0,11.47,2.64,1.71,1.22,5.61,7.22,2.68,4.32,5.86,15.63a137.57,137.57,0,0,1,3.12,13.5H187.9a188.93,188.93,0,0,0-18.48-17.59q-8-6.26-16.1-12.74a53.57,53.57,0,0,0-9.52-6.5,22.17,22.17,0,0,0-10.24-2.64c-2.6,0-3.91.88-3.91,2.64q0,1,3.54,9.74a94.87,94.87,0,0,0,5.73,12.39,30.17,30.17,0,0,1,5.62-2.53,16.78,16.78,0,0,1,5.12-1.08,9.28,9.28,0,0,1,5.12,1.58c1.63,1.06,3.1,2.07,4.4,3q8.77,5.6,10,6.32,5.76,3.84,10.46,7.36h-28l0,.09H120.13v14.14h23.5v44.34H104.84c4.18-6.43,9.51-19.26,8.69-26.76-.42-3.83-.81-7.42-2.43-10.69s-4.66-6.91-9.1-10.94a51.22,51.22,0,0,0-14.34-9.3Q80,87.25,75.1,87.25A41.72,41.72,0,0,0,62,89.52C57.43,91,49,95.19,43.38,98.05l5.12,10.61q1.8,3,3.85,3c4.95-2.52,13.18-7.1,18.14-9.79q7.94-3.52,13.83-3.53,6.93,0,11.15,4.16c2.82,2.78,4.25,9.77,4.87,14.62.71,5.62.71,15.82-6.54,23.47-2,2.9-5.8,5-8.19,5q-6.67,1-11.92,1.64a73.76,73.76,0,0,1-8.32.63q-4.37,0-4.36,4.29,0,1.77,4.87,7.07t6.66,5.31c1.36,0,19-4.62,23.3-2.77,20.8,8.89,18.11,29.89,7.63,40.17-4,4-10.35,6.33-20.17,5.67-8.69-.58-14.83-3-21.58-9.18S41.87,173,35.9,159.68L29,163.47c7.51,16.08,20.8,37.83,29.6,46S77,221.81,87.4,221.81q15.38,0,25-8.35c10.71-10.05,15.61-24.59,9.9-40.77a49.14,49.14,0,0,0-5.45-10.25h26.8v59.37L159,222V103.87h22.8l-.05-.09h1.09v118l15.37.15V103.78H221V89.64Z"/>
</svg>
