<svg id="Layer_1" data-name="Layer 1" xmlns="http://www.w3.org/2000/svg" width="250" height="250" viewBox="0 0 250 250">
  <defs>
    <style>
      .cls-1 {
        fill: #ff0;
      }
    </style>
  </defs>
  <path class="cls-1" d="M230.64,67.91V52.11H154.2l.05.1H119.52l0,15.79h25.88v50.33H102.21c4.66-6.89,11-22,10.08-30.68-.47-4.28-.9-8.29-2.68-11.94s-5.13-7.73-10-12.23a56.37,56.37,0,0,0-15.8-10.4Q75.33,49.44,70,49.43A45.57,45.57,0,0,0,55.59,52C50.51,53.66,41.25,58.31,35,61.5l5.65,11.85q2,3.39,4.23,3.39c5.45-2.83,14.52-7.94,20-10.95q8.73-3.95,15.23-4,7.62,0,12.27,4.66c3.1,3.1,4.68,10.91,5.36,16.33.78,6.28.78,17.67-7.19,26.22-2.24,3.24-6.4,5.64-9,5.64q-7.33,1.14-13.12,1.84a79.91,79.91,0,0,1-9.17.7c-3.2,0-4.79,1.6-4.79,4.8q0,2,5.36,7.9t7.33,5.92c1.5,0,20.9-5.16,25.66-3.09,22.9,9.93,19.94,33.39,8.39,44.89-4.42,4.47-11.39,7.07-22.2,6.33-9.57-.66-16.33-3.4-23.76-10.26s-21.86-28.5-28.44-43.36l-7.45,4.14V135c8.3,17.92,22.79,42,32.42,51.06S72,199.78,83.51,199.78q16.93,0,27.51-9.33c11.79-11.23,17.19-27.48,10.9-45.55A39.28,39.28,0,0,0,116,134.37h29.43v66.2h16.93V68h25.11l-.06-.09h1.2V200.57h16.93V67.91Z"/>
</svg>
