<svg id="Layer_1" data-name="Layer 1" xmlns="http://www.w3.org/2000/svg" width="250" height="250" viewBox="0 0 250 250">
  <defs>
    <style>
      .cls-1 {
        fill: #ff0;
      }
    </style>
  </defs>
  <path class="cls-1" d="M163.91,70V59.82H85.38L85.5,70H131v8.58c-7.8-1.22-20.59-2-28.51,3.63a20.06,20.06,0,0,0-8.22,14,20.66,20.66,0,0,0,6.72,17.52l.41.32a16.72,16.72,0,0,0,3.54,2,21.91,21.91,0,0,0,3.88,1.24,31,31,0,0,0,3.94.61c1.24.11,2.49.15,3.74.15l1.4,0a47.26,47.26,0,0,0,4.89-.45,29.33,29.33,0,0,0,3.82-.87c1.52-.43,3-.88,4.6-1.16a12.88,12.88,0,0,1,4.46-.22,6.19,6.19,0,0,1,3.49,1.58,5,5,0,0,1,1.58,4.09c0,.42,0,.33-.05,1,0,.45,0,.52-.14,1.83-.05.66-.14,1.32-.24,2a26,26,0,0,1-1.83,6.61c-.17.39-.35.77-.54,1.15a23.54,23.54,0,0,1-2.33,3.68,16.75,16.75,0,0,1-2.57,2.82,12,12,0,0,1-2.33,1.43c-.43.21-.86.39-1.3.58s-.86.55-1.16.12h0L128,142c-.6-.84-1.22-1.68-1.86-2.5a45.21,45.21,0,0,0-3.9-4.41,26.32,26.32,0,0,0-4.23-3.41,19.2,19.2,0,0,0-4.69-2.21,17.84,17.84,0,0,0-5.25-.77h-.33c-9.53.16-13.56,4.83-14.15,9.15-.81,5.84,4.25,11.4,12.29,13.52,6.87,1.8,16.47,1.64,21.62,1,1.08,1.72,6.29,15.93,10.35,23.35h0l8.39-5.59a190.53,190.53,0,0,1-10.68-16.29l-1.78-2.92a27.44,27.44,0,0,0,5.44-3l.52-.39a24.7,24.7,0,0,0,3.81-3.55,25.92,25.92,0,0,0,3-4.25,27.38,27.38,0,0,0,2.13-4.84,30.56,30.56,0,0,0,1.26-5.41,33.56,33.56,0,0,0,.34-5.84,24.26,24.26,0,0,0-.56-4.24,10.32,10.32,0,0,0-.69-2.28,23,23,0,0,0-1.68-3.76,13.93,13.93,0,0,0-1.88-2.47,10.25,10.25,0,0,0-2.57-2,20.47,20.47,0,0,0-3.34-1.54,18.61,18.61,0,0,0-4.25-1.12,12.71,12.71,0,0,0-3.27-.06c-.41,0-1.45.17-1.85.24-1.54.26-2.61.51-4.12.86a38.89,38.89,0,0,1-4.81.79c-.49,0-1,.08-1.46.11-1.69.08-3.37,0-5.06,0a39.9,39.9,0,0,1-5.78-.62,11,11,0,0,1-4.79-1.81c-.79-.64-3.17-2.87-2.78-8.56A10.25,10.25,0,0,1,105,89.92c6.17-4.42,24.35-1.87,29.14-.64a9.29,9.29,0,0,0,5.31.27c2-.69,1.77-3.27,1.77-3.27V70Zm-55.27,72a5.23,5.23,0,0,1-3.11-1.71c-1.19-1.5-.08-10.16,15.71,3.38C118.8,143.45,116.55,144,108.64,142Z"/>
</svg>
