<svg id="Layer_1" data-name="Layer 1" xmlns="http://www.w3.org/2000/svg" width="512" height="512" viewBox="0 0 512 512">
  <defs>
    <style>
      .cls-1 {
        fill: none;
        stroke: #fff;
        stroke-miterlimit: 10;
        stroke-dasharray: 12 12;
      }

      .cls-2 {
        fill: #fff;
      }
    </style>
  </defs>
  <g>
    <path class="cls-1" d="M175.16,199.62a84.63,84.63,0,0,0,28.76,4.58c22.42-.38,38.84-9.95,56.63-20.28a210.91,210.91,0,0,0,28.84-20.15"/>
    <polygon class="cls-2" points="291.08 168.21 294.35 159.47 285.45 160.89 291.08 168.21"/>
    <path class="cls-1" d="M298.28,154s-31.83-26.65-37.13-23.77c-3.48,1.88-1.11,12.31.9,19.29"/>
    <polygon class="cls-2" points="257.41 149.69 264.14 155.92 265.96 146.73 257.41 149.69"/>
    <path class="cls-1" d="M280.64,197.36l25.1,57.52-8,4.92-46.06,28.28"/>
    <polygon class="cls-2" points="250.47 283.33 246.04 291.49 255.04 291.42 250.47 283.33"/>
    <path class="cls-1" d="M234.23,302.67a44.57,44.57,0,0,0-5.73,13.39c-5.74,23.78,11,43.66,12.53,45.39,11.5,13.22,26.09,16.72,33.6,18.53a72.1,72.1,0,0,0,38.31-1.24,70.78,70.78,0,0,0,18.69-9.13"/>
    <polygon class="cls-2" points="333.18 374.16 336.84 365.59 327.88 366.57 333.18 374.16"/>
  </g>
</svg>
