<svg id="Layer_1" data-name="Layer 1" xmlns="http://www.w3.org/2000/svg" width="512" height="512" viewBox="0 0 512 512">
  <defs>
    <style>
      .cls-1 {
        fill: #8d8e8d;
      }
    </style>
  </defs>
  <path class="cls-1" d="M297.24,110.42H500.13V73.53H11.87L12,110.42H234.67V220.81q-11.17-8-23.39-16.86-18.12-13.17-28.65-21.74-13.19-10.53-23.06-13.49t-25.69-3a199.85,199.85,0,0,0-28.33,2Q79.2,173,52.85,177.61l27.67,36.23q23.72-5.93,37.88-8.56a153.37,153.37,0,0,1,28-2.64q13.17,0,31,8.57t48.09,29.64L76.57,340.32l30.81,26.95,127.29-89.44v154.6h39.52V255.94q14.4,5.22,20.42,6.69a71.35,71.35,0,0,0,17.12,1.93q9.88,0,28.66-8t26-13.1q17.11,33,17.13,42.16,0,5.28-15.16,11.86-31,13.83-46.11,25.69-18.45,14.51-18.44,32.94,0,33.6,36.23,59.29,32.26,23,65.87,23.05,32.28,0,67.2-23.71l-31.62-29.64q-9.88,9.22-27,16.79t-32.28,7.58q-19.11,0-31-9.88T339.4,375.89q0-15.15,8-23.05t31.85-18.45q19.25-7.9,31.19-15.15,17.26-10.53,17.26-18.45,0-5.27-13.44-32.93-8.75-17.79-20.15-38.87,2.63-1.31,19.1-11.86,14.47-10.53,14.49-16.46,0-8.56-9.22-13.84-12.52-8.55-33.6-18.11t-29-9.56c-2.64,0-5.83,1.22-9.55,3.63a11.49,11.49,0,0,0-5.6,10.21q0,4.62,3.95,14.82t7.25,18.11a175.3,175.3,0,0,1-32.61,21.27q-16.8,8.38-28,8.38a95.23,95.23,0,0,1-17.12-1.46V110.42Z"/>
</svg>
