<svg id="Layer_1" data-name="Layer 1" xmlns="http://www.w3.org/2000/svg" width="512" height="512" viewBox="0 0 512 512">
  <defs>
    <style>
      .cls-1 {
        fill: #8436ff;
      }
    </style>
  </defs>
  <path class="cls-1" d="M227.68,92V202.36q-11.18-8-23.39-16.86-18.12-13.17-28.65-21.74-13.19-10.53-23.06-13.49t-25.69-3a199.86,199.86,0,0,0-28.33,2q-26.36,5.28-52.7,9.88L73.53,195.4q23.72-5.94,37.88-8.57a153.35,153.35,0,0,1,28-2.63q13.17,0,31,8.56t48.09,29.64L69.58,321.87l30.81,26.95,127.29-89.44V414H267.2V237.5q14.4,5.2,20.42,6.68a71.34,71.34,0,0,0,17.12,1.94q9.88,0,28.66-8t26-13.09Q376.54,258,376.55,267.2q0,5.28-15.16,11.86-31,13.83-46.11,25.69-18.45,14.49-18.44,32.93,0,33.6,36.23,59.29Q365.34,420,398.94,420q32.28,0,67.2-23.72l-31.62-29.64q-9.88,9.22-27,16.8T375.23,391q-19.11,0-31-9.88t-11.86-23.71q0-15.15,8-23.06T372.23,316q19.25-7.9,31.19-15.16,17.26-10.53,17.26-18.44,0-5.27-13.44-32.94-8.75-17.79-20.15-38.86,2.63-1.32,19.1-11.86,14.49-10.53,14.49-16.47,0-8.55-9.22-13.83-12.52-8.56-33.59-18.12t-29-9.55q-4,0-9.55,3.62a11.5,11.5,0,0,0-5.6,10.21q0,4.62,3.95,14.82t7.25,18.12a174.73,174.73,0,0,1-32.61,21.26q-16.8,8.38-28,8.38a96.18,96.18,0,0,1-17.12-1.45V92Z"/>
</svg>
