<svg id="Layer_1" data-name="Layer 1" xmlns="http://www.w3.org/2000/svg" width="512" height="512" viewBox="0 0 512 512">
  <defs>
    <style>
      .cls-1 {
        fill: #dd35ef;
      }
    </style>
  </defs>
  <path class="cls-1" d="M317.21,394.37Q294.65,414,258.57,414q-36.7,0-67.67-28.89c-20.65-19.26-51.85-70.34-69.49-108.08l16.24-8.88c14,31.22,44.79,76.68,60.63,91.1s30.26,20.19,50.66,21.56c23.05,1.56,37.91-3.9,47.35-13.31,24.61-24.15,30.93-73.44-17.9-94.32-10.16-4.34-51.5,6.5-54.71,6.5q-4.22,0-15.64-12.45t-11.42-16.6q0-10.07,10.22-10.07A170.71,170.71,0,0,0,226.39,239q12.31-1.47,28-3.86c5.61,0,14.48-5,19.24-11.85,17-17.95,17-41.9,15.34-55.11-1.44-11.36-4.81-27.79-11.43-34.3s-15.33-9.78-26.16-9.78q-13.84,0-32.48,8.29c-11.63,6.32-31,17.06-42.59,23q-4.83,0-9-7.11l-12-24.9c13.24-6.72,33-16.47,43.8-20A98.35,98.35,0,0,1,229.7,98q11.42,0,29.47,7.67a120.36,120.36,0,0,1,33.68,21.86q15.63,14.18,21.35,25.69c3.81,7.66,4.73,16.09,5.72,25.1,1.93,17.58-10.6,47.71-20.4,62.81h91.07v33.41s-64-.22-62.92,0c5.63,7.5,11.31,19.89,12.79,24.08C353.86,336.63,342.36,370.77,317.21,394.37Z"/>
</svg>
