<svg id="Layer_1" data-name="Layer 1" xmlns="http://www.w3.org/2000/svg" width="512" height="512" viewBox="0 0 512 512">
  <defs>
    <style>
      .cls-1 {
        fill: #e84f4f;
      }
    </style>
  </defs>
  <path class="cls-1" d="M299.17,394.2q-22.56,19.6-58.64,19.6-36.71,0-67.67-28.9c-20.65-19.26-51.85-70.33-69.5-108.07l16.25-8.89c14,31.22,44.78,76.68,60.63,91.1s30.26,20.19,50.65,21.56c23.06,1.56,37.92-3.9,47.36-13.3,24.61-24.16,30.93-73.45-17.91-94.33-10.15-4.34-51.5,6.5-54.71,6.5q-4.2,0-15.63-12.45t-11.42-16.6q0-10.06,10.22-10.07a170.41,170.41,0,0,0,19.54-1.49q12.33-1.47,28-3.85c5.61,0,14.48-5,19.24-11.86,17-18,17-41.9,15.33-55.1-1.43-11.37-4.8-27.79-11.42-34.31S244.13,124,233.31,124q-13.84,0-32.48,8.3c-11.63,6.32-31,17.06-42.59,23q-4.83,0-9-7.11l-12-24.9c13.24-6.71,33-16.47,43.8-20a98.35,98.35,0,0,1,30.68-5.34q11.42,0,29.47,7.68a120.1,120.1,0,0,1,33.68,21.85q15.63,14.17,21.35,25.69c3.81,7.67,4.72,16.09,5.72,25.1,1.93,17.59-10.6,47.71-20.4,62.81h91.07V136.9h36.09V414.13l-36.09-.34V274.4s-64-.22-62.92,0c5.63,7.5,11.31,19.9,12.79,24.08C335.82,336.46,324.32,370.6,299.17,394.2Z"/>
</svg>
