<svg id="Layer_1" data-name="Layer 1" xmlns="http://www.w3.org/2000/svg" width="512" height="512" viewBox="0 0 512 512">
  <defs>
    <style>
      .cls-1, .cls-2, .cls-4 {
        fill: none;
        stroke: #fff;
        stroke-miterlimit: 10;
        stroke-width: 2px;
      }

      .cls-2 {
        stroke-dasharray: 11.43 11.43;
      }

      .cls-3 {
        fill: #fff;
      }

      .cls-4 {
        stroke-dasharray: 12 12;
      }
    </style>
  </defs>
  <g>
    <g>
      <path class="cls-1" d="M194.3,137.12s1.76-1.36,4.9-3.45"/>
      <path class="cls-2" d="M209,127.72c22.69-12.69,67.12-29.92,99.85,5.12"/>
      <path class="cls-1" d="M312.57,137.17c1.23,1.51,2.43,3.11,3.62,4.79"/>
      <polygon class="cls-3" points="306.05 144.84 323.64 154.23 322.98 134.29 306.05 144.84"/>
    </g>
    <g>
      <path class="cls-4" d="M258.07,260.44S349.89,248,351.37,319"/>
      <polygon class="cls-3" points="341.32 315.62 350.54 333.3 361.25 316.48 341.32 315.62"/>
    </g>
    <g>
      <path class="cls-4" d="M321.9,154S352,229.37,269.11,256.34"/>
      <polygon class="cls-3" points="269.15 245.82 255.26 260.13 274.6 265 269.15 245.82"/>
    </g>
    <g>
      <path class="cls-4" d="M350.23,338.6s-11.83,74.73-89.67,59.16c0,0-45.91-6.85-93.52-98"/>
      <polygon class="cls-3" points="177.34 297.76 160.61 286.91 159.58 306.82 177.34 297.76"/>
    </g>
  </g>
</svg>
