<svg id="Layer_1" data-name="Layer 1" xmlns="http://www.w3.org/2000/svg" width="512" height="512" viewBox="0 0 512 512">
  <defs>
    <style>
      .cls-1 {
        fill: #8436ff;
      }
    </style>
  </defs>
  <path class="cls-1" d="M420.37,173a543.94,543.94,0,0,0-10.81-56.77q-10.31-41.94-21.48-57.81T365.16,35.46Q353.43,28.38,346,28.37q-6.89,0-6.88,8.47a143,143,0,0,0,1.43,17.22q1.44,11,4.87,27.39,18.35,0,26.93,6.21,4,2.82,13.17,16.93,6.31,10.17,13.75,36.7a318.33,318.33,0,0,1,7.33,31.7h-2.9a445.87,445.87,0,0,0-43.38-41.3Q341.39,117,322.49,101.77,309.32,91,300.15,86.53a52.09,52.09,0,0,0-24.06-6.22q-9.16,0-9.17,6.22,0,2.25,8.31,22.86t13.46,29.08a70.76,70.76,0,0,1,13.17-5.93q7.45-2.53,12-2.54a21.77,21.77,0,0,1,12,3.71c3.83,2.48,7.26,4.86,10.32,7.15q20.63,13.14,23.48,14.85c9,6,17.19,11.76,24.55,17.28H318.43l.11.2h-74v33.2h55.19v104.1H208.67c9.81-15.1,22.33-45.22,20.4-62.82-1-9-1.91-17.42-5.71-25.09S212.43,206.34,202,196.89A120.29,120.29,0,0,0,168.32,175q-18-7.66-29.47-7.68a98.29,98.29,0,0,0-30.67,5.34c-10.83,3.56-30.57,13.32-43.8,20l12,24.9q4.2,7.11,9,7.11c11.63-5.93,31-16.67,42.6-23q18.63-8.3,32.48-8.3,16.23,0,26.16,9.78c6.62,6.52,10,22.94,11.43,34.31,1.67,13.2,1.67,37.15-15.34,55.1-4.77,6.81-13.64,11.86-19.25,11.86q-15.64,2.37-28,3.85A170.57,170.57,0,0,1,116,309.84q-10.25,0-10.23,10.07,0,4.15,11.43,16.6T132.84,349c3.2,0,44.55-10.84,54.7-6.5,48.83,20.88,42.51,70.17,17.9,94.33-9.44,9.4-24.29,14.85-47.34,13.3-20.4-1.37-34.83-7.13-50.66-21.56s-46.6-59.88-60.63-91.1l-16.24,8.89c17.64,37.74,48.83,88.81,69.49,108.07s43.2,28.9,67.66,28.9q36.09,0,58.65-19.6C251.52,440.09,263,406,249.62,368c-1.48-4.18-7.17-16.58-12.79-24.08h62.92v139.4l36.09.34V206.39h53.53l-.11-.2h2.55v277.1l36.09.34V206.19h53.53V173Z"/>
</svg>
