<svg id="Layer_1" data-name="Layer 1" xmlns="http://www.w3.org/2000/svg" width="512" height="512" viewBox="0 0 512 512">
  <defs>
    <style>
      .cls-1 {
        fill: #e84f4f;
      }
    </style>
  </defs>
  <g>
    <path class="cls-1" d="M253.13,394.2q-22.56,19.6-58.64,19.6-36.7,0-67.67-28.9C106.17,365.64,75,314.57,57.33,276.83l16.24-8.89c14,31.22,44.79,76.68,60.63,91.1s30.26,20.19,50.66,21.56c23,1.56,37.91-3.9,47.35-13.3,24.61-24.16,30.93-73.45-17.9-94.33-10.16-4.34-51.5,6.5-54.71,6.5q-4.22,0-15.64-12.45t-11.42-16.6q0-10.06,10.22-10.07a170.71,170.71,0,0,0,19.55-1.49q12.31-1.47,28-3.85c5.61,0,14.48-5,19.24-11.86,17-18,17-41.9,15.34-55.1-1.44-11.37-4.81-27.79-11.43-34.31S198.1,124,187.27,124q-13.85,0-32.48,8.3c-11.63,6.32-31,17.06-42.59,23q-4.83,0-9-7.11l-12-24.9c13.24-6.71,33-16.47,43.8-20a98.35,98.35,0,0,1,30.68-5.34q11.41,0,29.47,7.68a120.1,120.1,0,0,1,33.68,21.85q15.63,14.17,21.35,25.69c3.81,7.67,4.73,16.09,5.72,25.1,1.93,17.59-10.6,47.71-20.4,62.81h91.07V136.9H362.6V414.13l-36.09-.34V274.4s-64-.22-62.92,0c5.63,7.5,11.31,19.9,12.79,24.08C289.78,336.46,278.28,370.6,253.13,394.2Z"/>
    <polygon class="cls-1" points="454.6 135.93 454.67 414.13 418.58 413.8 418.58 135.93 454.6 135.93"/>
  </g>
</svg>
