<svg id="Layer_1" data-name="Layer 1" xmlns="http://www.w3.org/2000/svg" width="512" height="512" viewBox="0 0 512 512">
  <defs>
    <style>
      .cls-1 {
        fill: #dd35ef;
      }
    </style>
  </defs>
  <path class="cls-1" d="M481.43,147v33.19H427.9V457.66l-36.09-.34V180.22h-2.55l.11.2H335.84V457.66l-36.09-.34V317.93H236.83c5.62,7.49,11.31,19.89,12.78,24.08,13.41,38,1.91,72.1-23.24,95.71q-22.56,19.59-58.65,19.6-36.69,0-67.66-28.9C79.4,409.16,48.21,358.09,30.57,320.34l16.24-8.88c14,31.22,44.78,76.68,60.63,91.09s30.26,20.19,50.66,21.58c23.05,1.55,37.9-3.9,47.34-13.31,24.61-24.15,30.93-73.46-17.9-94.33-10.15-4.33-51.5,6.5-54.7,6.5q-4.22,0-15.64-12.44T105.77,294q0-10.08,10.23-10.09a172,172,0,0,0,19.54-1.47q12.33-1.47,28-3.86c5.61,0,14.48-5,19.25-11.85,17-18,17-41.9,15.34-55.11-1.44-11.37-4.81-27.79-11.43-34.31s-15.34-9.78-26.16-9.78q-13.84,0-32.48,8.3c-11.64,6.33-31,17.06-42.6,23q-4.82,0-9-7.11l-12-24.9c13.23-6.71,33-16.48,43.8-20a98.56,98.56,0,0,1,30.67-5.33q11.43,0,29.47,7.67A120.55,120.55,0,0,1,202,170.93q15.63,14.15,21.35,25.68c3.8,7.67,4.73,16.1,5.71,25.1,1.93,17.59-10.59,47.71-20.4,62.81h91.08V180.42H244.56V147.23h74l-.11-.2h65.84c-7.36-5.54-15.52-11.29-24.55-17.29q-2.85-1.73-23.48-14.85c-3.06-2.28-6.49-4.66-10.32-7.15a21.85,21.85,0,0,0-12-3.71q-4.58,0-12,2.54a72.08,72.08,0,0,0-13.17,5.92q-5.16-8.44-13.46-29.06t-8.31-22.88c0-4.13,3.06-6.21,9.17-6.21a52.2,52.2,0,0,1,24.06,6.21q9.17,4.53,22.34,15.25,18.9,15.26,37.81,29.93A445.87,445.87,0,0,1,403.68,147Z"/>
</svg>
