<svg id="Layer_1" data-name="Layer 1" xmlns="http://www.w3.org/2000/svg" width="512" height="512" viewBox="0 0 512 512">
  <defs>
    <style>
      .cls-1 {
        fill: #ff0;
      }
    </style>
  </defs>
  <path class="cls-1" d="M485,169.46a5,5,0,0,0-3.54-1.47H424.7c-2.88-19.53-6.33-37.34-10.28-53-7.09-28.82-14.37-48.28-22.25-59.49s-16-19.29-24.42-24.35C359,25.93,351.92,23.37,346,23.37c-7.44,0-11.88,5-11.88,13.47a145.63,145.63,0,0,0,1.48,17.87c1,7.45,2.63,16.79,4.93,27.76a5,5,0,0,0,4.89,4c11.09,0,19.16,1.77,24.05,5.29,1,.69,4.07,3.58,11.8,15.49,3.94,6.34,8.38,18.25,13.19,35.43,1.71,6,3.25,12.06,4.6,18.12a455.74,455.74,0,0,0-35.54-32.93l-.14-.11c-12.39-9.62-25.08-19.66-37.72-29.85-9-7.35-16.86-12.68-23.2-15.81a57.25,57.25,0,0,0-26.35-6.77c-13.15,0-14.17,8.59-14.17,11.21,0,1.44,0,3.22,8.67,24.74,5.69,14.12,10.22,23.87,13.83,29.81a5,5,0,0,0,6.81,1.7,67,67,0,0,1,12.25-5.5c5.51-1.88,8.7-2.27,10.41-2.27a16.7,16.7,0,0,1,9.31,2.91c3.73,2.42,7.11,4.76,10,7a2.11,2.11,0,0,0,.31.21c9.23,5.88,20.74,13.2,23.49,14.87q6.12,4.06,11.81,8.05H318.43a4.92,4.92,0,0,0-1.39.2H244.57a5,5,0,0,0-5,5v33.2a5,5,0,0,0,5,5h50.18v94.1H217.42c8.92-16.47,18.45-41.74,16.62-58.38-1-9.4-2-18.29-6.2-26.76-4.09-8.21-11.65-17.35-22.48-27.16a125.7,125.7,0,0,0-35.08-22.75c-12.79-5.43-23.07-8.08-31.43-8.08A103.7,103.7,0,0,0,106.62,168c-8.5,2.79-23.05,9.44-44.5,20.32a5,5,0,0,0-2.24,6.63l12,24.9a2.64,2.64,0,0,0,.2.37c3.75,6.35,8.23,9.57,13.32,9.57a5,5,0,0,0,2.28-.55c8.77-4.47,22.06-11.75,32.74-17.61l9.79-5.35c11.65-5.16,21.84-7.78,30.27-7.78,9.55,0,17,2.73,22.65,8.34,4.29,4.23,8,16,10,31.38,1.51,11.94,1.71,34.44-14,51a4.25,4.25,0,0,0-.46.57c-3.84,5.47-11.3,9.72-15.16,9.72a4.74,4.74,0,0,0-.75.06c-10.39,1.58-19.75,2.86-27.81,3.83A168.46,168.46,0,0,1,116,304.84c-9.54,0-15.23,5.63-15.23,15.07,0,3.17,1.55,7.79,12.75,20,11.34,12.36,16,14.07,19.32,14.07,1.24,0,3.2-.4,9.19-1.67,10.36-2.19,27.69-5.85,38.15-5.85,3.56,0,5,.43,5.4.62,18.41,7.87,29.76,20.61,32.82,36.84,3.2,17-3.26,36.37-16.49,49.34-8.17,8.15-20,12.11-36.27,12.11-2.3,0-4.73-.08-7.2-.25-19.73-1.33-33.09-7-47.64-20.27S65.85,367.6,51.37,335.38a5,5,0,0,0-3-2.69,4.86,4.86,0,0,0-1.59-.26,5.13,5.13,0,0,0-2.41.61l-16.23,8.89A5,5,0,0,0,26,348.44C43.86,386.57,75.14,438,96.65,458s45.42,30.25,71.07,30.25c25.19,0,46-7,61.93-20.83l.14-.13c28.74-27,37.68-63.79,24.54-101A126.44,126.44,0,0,0,246,348.89h48.75v134.4a5,5,0,0,0,4.95,5l36.14.34a5,5,0,0,0,5-5V211.39h46v271.9a5,5,0,0,0,5,5l36.13.34a5,5,0,0,0,5-5V211.19h48.53a5,5,0,0,0,5-5V173A5,5,0,0,0,485,169.46Zm-3.54,36.73H427.9V483.63l-36.09-.34V206.19h-2.55l.11.2H335.84V483.63l-36.09-.34V343.89H236.83c5.62,7.5,11.31,19.9,12.79,24.08,13.4,38,1.9,72.12-23.25,95.72q-22.56,19.6-58.65,19.6-36.69,0-67.66-28.9C79.4,435.13,48.21,384.06,30.57,346.32l16.24-8.89c14,31.22,44.78,76.68,60.63,91.1s30.26,20.19,50.66,21.56c23.05,1.56,37.9-3.9,47.34-13.3,24.62-24.16,30.94-73.45-17.9-94.33-10.15-4.34-51.5,6.5-54.7,6.5q-4.22,0-15.64-12.45t-11.43-16.6q0-10.07,10.23-10.07a170.87,170.87,0,0,0,19.55-1.49q12.31-1.47,28-3.85c5.61,0,14.48-5.05,19.25-11.86,17-17.95,17-41.9,15.34-55.1-1.44-11.37-4.81-27.79-11.43-34.31s-15.34-9.78-26.16-9.78q-13.84,0-32.48,8.3c-11.64,6.32-31,17.06-42.6,23q-4.82,0-9-7.11l-12-24.9c13.23-6.71,33-16.47,43.8-20a98.29,98.29,0,0,1,30.67-5.34q11.43,0,29.48,7.68A120.25,120.25,0,0,1,202,196.89q15.63,14.18,21.35,25.69c3.8,7.67,4.73,16.09,5.71,25.1,1.93,17.59-10.59,47.71-20.39,62.81h91.07V206.39H244.56v-33.2h74l-.11-.2h65.84c-7.36-5.52-15.52-11.27-24.55-17.28q-2.85-1.72-23.48-14.85c-3.06-2.29-6.49-4.67-10.32-7.15a21.77,21.77,0,0,0-12-3.71q-4.58,0-12,2.54a70.76,70.76,0,0,0-13.17,5.93q-5.16-8.47-13.46-29.08t-8.31-22.86q0-6.21,9.17-6.22a52.06,52.06,0,0,1,24.06,6.22q9.17,4.52,22.34,15.24,18.9,15.24,37.81,29.92A445.87,445.87,0,0,1,403.68,173h2.9a318.33,318.33,0,0,0-7.33-31.7q-7.44-26.53-13.75-36.7-9.15-14.1-13.17-16.93-8.59-6.21-26.93-6.21Q342,65.07,340.53,54.06a143,143,0,0,1-1.43-17.22q0-8.46,6.88-8.47,7.44,0,19.19,7.09t22.91,22.95q11.18,15.89,21.48,57.81A543.94,543.94,0,0,1,420.37,173h61.06Z"/>
</svg>
