<svg id="Layer_1" data-name="Layer 1" xmlns="http://www.w3.org/2000/svg" width="512" height="512" viewBox="0 0 512 512">
  <defs>
    <style>
      .cls-1 {
        fill: #8d8e8d;
      }
    </style>
  </defs>
  <g>
    <path class="cls-1" d="M377.5,84.05A23.75,23.75,0,1,0,353.91,60.3,23.67,23.67,0,0,0,377.5,84.05Z"/>
    <path class="cls-1" d="M456.33,120.41H294.63v37.87h61.63V278.19H253.79c11-16.78,25.75-52.27,23.55-72.82-1.11-10.27-2.14-19.87-6.38-28.63s-12.21-18.52-23.85-29.29a134,134,0,0,0-37.61-24.93q-20.15-8.74-32.91-8.76-16.12,0-34.25,6.09c-12.09,4.06-34.13,15.19-48.91,22.85l13.43,28.4q4.69,8.11,10.08,8.11c13-6.76,34.57-19,47.56-26.23q20.81-9.47,36.27-9.46,18.14,0,29.21,11.15c7.39,7.44,11.16,26.17,12.77,39.14,1.87,15.06,1.87,42.37-17.13,62.86-5.32,7.76-15.23,13.52-21.49,13.52q-17.48,2.71-31.23,4.4a188.86,188.86,0,0,1-21.83,1.69q-11.43,0-11.42,11.49,0,4.74,12.76,18.94t17.46,14.19c3.58,0,49.75-12.36,61.09-7.4,54.53,23.81,47.47,80,20,107.59-10.54,10.73-27.13,17-52.87,15.17-22.78-1.56-38.89-8.13-56.57-24.59s-52-68.31-67.7-103.92L55.67,317.89c19.7,43.05,54.53,101.3,77.6,123.28s48.24,33,75.56,33q40.29,0,65.48-22.36c28.09-26.92,40.93-65.86,26-109.18-1.64-4.76-6.84-18-13.12-26.58h69.11V475.45h40.29V158.28h59.78Z"/>
  </g>
</svg>
