<svg id="Layer_1" data-name="Layer 1" xmlns="http://www.w3.org/2000/svg" width="512" height="512" viewBox="0 0 512 512">
  <defs>
    <style>
      .cls-1 {
        fill: #dd35ef;
      }
    </style>
  </defs>
  <path class="cls-1" d="M350.13,304.23c-1.62-4.65-8.74-19.8-13.34-25.83h69.1c.14,0,0-34.14,0-37.83,0-.13-102.47,0-102.47,0,6.1-10.19,26.55-47,23.81-72.39-1.1-10.18-2.13-19.7-6.37-28.39s-12.18-18.36-23.8-29A133.51,133.51,0,0,0,259.52,86q-20.11-8.67-32.85-8.69a108.11,108.11,0,0,0-34.19,6c-12,4-33.86,15-48.61,22.54a.25.25,0,0,0-.1.33l13.3,27.93v0q4.65,8,10,8l.12,0c13-6.71,34.46-18.83,47.41-26h0q20.76-9.39,36.2-9.39,18.09,0,29.16,11.06c7.37,7.38,11.13,26,12.74,38.8,1.86,14.94,1.86,42-17.09,62.32l0,0c-5.31,7.68-15.17,13.39-21.42,13.4h0q-17.43,2.69-31.16,4.36a189.26,189.26,0,0,1-21.78,1.67q-11.41,0-11.4,11.4,0,4.69,12.74,18.77T220,282.73c3.57,0,49.66-12.26,61-7.35,54.43,23.61,47.39,79.36,19.95,106.67-10.52,10.64-27.07,16.81-52.77,15.05-22.74-1.55-38.81-8.06-56.46-24.38s-51.79-67.49-67.48-102.79a.24.24,0,0,0-.34-.11l-17.66,9.81a.25.25,0,0,0-.11.32c19.68,42.66,54.38,100.26,77.36,122s48.15,32.69,75.42,32.69q40.23,0,65.37-22.17C352.24,385.79,365.06,347.18,350.13,304.23Z"/>
</svg>
