<svg id="Layer_1" data-name="Layer 1" xmlns="http://www.w3.org/2000/svg" width="512" height="512" viewBox="0 0 512 512">
  <defs>
    <style>
      .cls-1 {
        fill: #dd35ef;
      }
    </style>
  </defs>
  <path class="cls-1" d="M426.44,119.68V436.85H386.15V277.4H317c6.28,8.55,11.47,21.83,13.12,26.59,15,43.32,2.12,82.26-26,109.17Q279,435.53,238.72,435.53q-41,0-75.56-33c-23.07-22-57.9-80.23-77.6-123.27l18.13-10.15c15.67,35.61,50,87.48,67.71,103.92s33.79,23,56.57,24.59c25.74,1.78,42.33-4.44,52.87-15.16,27.48-27.56,34.54-83.79-20-107.6-11.34-4.95-57.51,7.41-61.09,7.41q-4.69,0-17.46-14.2t-12.76-18.93q0-11.5,11.42-11.49A188.56,188.56,0,0,0,202.78,236q13.77-1.68,31.24-4.41c6.26,0,16.17-5.76,21.49-13.52,19-20.49,19-47.8,17.12-62.86-1.61-13-5.37-31.7-12.76-39.14s-17.12-11.14-29.21-11.14q-15.47,0-36.27,9.46c-13,7.22-34.58,19.47-47.56,26.23q-5.39,0-10.08-8.11l-13.43-28.4c14.77-7.66,36.82-18.79,48.9-22.85s23.51-6.1,34.26-6.1q12.75,0,32.91,8.77A133.52,133.52,0,0,1,277,108.85q17.46,16.16,23.84,29.28c4.25,8.76,5.28,18.37,6.38,28.63,2.21,20.55-12.5,56.05-23.54,72.82H386.15V119.68Z"/>
</svg>
