<svg id="Layer_1" data-name="Layer 1" xmlns="http://www.w3.org/2000/svg" width="512" height="512" viewBox="0 0 512 512">
  <defs>
    <style>
      .cls-1 {
        fill: #8436ff;
      }
    </style>
  </defs>
  <path class="cls-1" d="M375.63,304.23c-1.66-4.73-5.89-12.63-12.19-21.11A173.75,173.75,0,0,0,343.8,263c-9.26-7.93-22.8-13.62-22.8-13.62l-.1,0c9.44-4.45,34.54-55.05,31.7-81.16-1.11-10.18-2.14-19.7-6.41-28.39s-12.25-18.36-23.94-29A134.66,134.66,0,0,0,284.49,86q-20.24-8.67-33.05-8.69a109.28,109.28,0,0,0-34.39,6c-12.14,4-34.27,15.06-49.1,22.65l13.48,28.16q4.71,8,10.12,8c13-6.7,34.71-18.85,47.76-26q20.88-9.39,36.41-9.39,18.21,0,29.33,11.06c7.42,7.38,11.2,26,12.82,38.8,1.88,14.94,1.88,42-17.2,62.33-5.34,7.7-15.29,13.41-21.58,13.41q-17.54,2.69-31.36,4.36a191.47,191.47,0,0,1-21.91,1.67q-11.48,0-11.47,11.4,0,4.69,12.82,18.77t17.53,14.08c3.59,0,49.95-12.26,61.34-7.35C360.78,299,353.7,354.74,326.1,382.05c-10.58,10.64-27.23,16.81-53.08,15.05-22.87-1.55-39-8.06-56.8-24.38s-52.25-67.72-68-103L130,279.74C149.81,322.43,184.79,380.18,208,402s48.44,32.69,75.86,32.69q40.47,0,65.75-22.17C377.76,385.79,390.65,347.18,375.63,304.23Z"/>
</svg>
