<svg id="Layer_1" data-name="Layer 1" xmlns="http://www.w3.org/2000/svg" width="512" height="512" viewBox="0 0 512 512">
  <defs>
    <style>
      .cls-1 {
        fill: #8436ff;
      }
    </style>
  </defs>
  <path class="cls-1" d="M456.33,81.81H294.63v37.86h61.63V239.59H253.79c11-16.79,25.75-52.28,23.55-72.82-1.11-10.27-2.14-19.87-6.38-28.63s-12.21-18.52-23.85-29.3A133.91,133.91,0,0,0,209.5,83.92q-20.15-8.76-32.91-8.76-16.12,0-34.26,6.08c-12.08,4.06-34.13,15.19-48.9,22.85l13.43,28.4q4.69,8.12,10.08,8.11c13-6.76,34.57-19,47.56-26.22q20.81-9.47,36.27-9.47,18.14,0,29.21,11.16c7.39,7.43,11.16,26.16,12.77,39.13,1.87,15.07,1.87,42.38-17.13,62.86-5.32,7.77-15.23,13.53-21.49,13.53q-17.48,2.7-31.23,4.39a188.86,188.86,0,0,1-21.83,1.69q-11.43,0-11.42,11.5,0,4.74,12.76,18.93t17.46,14.2c3.58,0,49.75-12.36,61.09-7.41,54.53,23.81,47.47,80,20,107.59-10.54,10.73-27.13,16.95-52.87,15.18-22.78-1.57-38.89-8.14-56.57-24.6s-52-68.3-67.71-103.91L55.67,279.29c19.7,43,54.53,101.3,77.6,123.27s48.24,33,75.56,33q40.29,0,65.48-22.35c28.09-26.92,40.93-65.86,26-109.18-1.65-4.77-6.84-18-13.12-26.58h69.11V436.84h40.29V119.67h59.78Z"/>
</svg>
