<svg id="Layer_1" data-name="Layer 1" xmlns="http://www.w3.org/2000/svg" width="512" height="512" viewBox="0 0 512 512">
  <defs>
    <style>
      .cls-1 {
        fill: #e84f4f;
      }
    </style>
  </defs>
  <path class="cls-1" d="M286,330.22s1,31.06,9.32,32.06c8.18.44,19.73-5.17,25.34-7.57,10.25-4.39,20-10.71,20-27.09v-125H403.4V169H331.32q-26.81-32.82-53.3-65-27.3-33.24-37.95-44.53-18.44-19.94-36.88-29.24t-33.34-9.3a119.05,119.05,0,0,0-23.06,2.32q-11.7,2.32-11.7,6.94,0,4,13.12,27.13t17.38,27.12q9.94-2.64,20.57-6t14.9-3.3a45.19,45.19,0,0,1,21.28,5.63,87.61,87.61,0,0,1,19.15,13.62q11.35,10.68,32.63,34,22.65,25,35.23,40.62H108.6l.27,33.56h57.78V339.84q0,26.36,19.33,39.53L351.22,489c10.76,6.31,37.47-2.86,24.22-10.76L212,366.88q-3.1-1.8-5.59-9a42,42,0,0,1-2.48-13.78V202.59h99.42V313A17.17,17.17,0,0,1,286,330.22Z"/>
</svg>
