<svg id="Layer_1" data-name="Layer 1" xmlns="http://www.w3.org/2000/svg" width="512" height="512" viewBox="0 0 512 512">
  <defs>
    <style>
      .cls-1 {
        fill: #ff0;
      }
    </style>
  </defs>
  <path class="cls-1" d="M406.94,165.5A5,5,0,0,0,403.4,164H333.69c-18.31-22.41-35.27-43.12-51.8-63.23-18.14-22.07-31-37.14-38.15-44.75-12.65-13.67-25.54-23.87-38.3-30.3-12.94-6.53-24.91-9.84-35.59-9.84a124.49,124.49,0,0,0-24,2.41c-3.89.77-15.73,3.13-15.73,11.85,0,2.56,1.06,7.16,13.77,29.59,12,21.13,16.08,26.23,18.32,28.32a5,5,0,0,0,4.69,1.17c6.57-1.74,13.56-3.76,20.77-6,8.65-2.68,12.12-3.08,13.42-3.08a40.46,40.46,0,0,1,18.94,5,82.88,82.88,0,0,1,18.07,12.85c7.36,6.92,18.25,18.26,32.34,33.7C281.67,144.21,291.15,155,298.74,164H108.6a5,5,0,0,0-5,5l.27,33.56a5,5,0,0,0,5,5h52.78V339.84c0,19.24,7.24,33.93,21.56,43.7L348.46,493.15l.24.15a23.79,23.79,0,0,0,11.95,2.79c7.75,0,20.87-3,23.1-11.12.54-2,1.06-6.9-5.61-11L214.83,362.75l-.32-.2c-.06,0-1.51-.93-3.36-6.29a37.27,37.27,0,0,1-2.21-12.15V207.59h89.42V313A12.21,12.21,0,0,1,286,325.22a5,5,0,0,0-5,5.16,145.82,145.82,0,0,0,1.62,16.3c1.37,8.37,4.12,19.6,12.11,20.56l.32,0c.4,0,.81,0,1.22,0h0c8.18,0,17.84-4.25,24.24-7.07l2.12-.92c10.73-4.6,23.05-12.35,23.05-31.69v-120H403.4a5,5,0,0,0,5-5V169A5,5,0,0,0,406.94,165.5Zm-3.54,37.09H340.64v125c0,16.38-9.77,22.7-20,27.09-5.61,2.4-17.16,8-25.34,7.57-8.29-1-9.32-32.06-9.32-32.06A17.17,17.17,0,0,0,303.36,313V202.59H203.94V344.11a42,42,0,0,0,2.48,13.78q2.47,7.19,5.59,9L375.44,478.23c13.25,7.9-13.46,17.07-24.21,10.76L186,379.37q-19.33-13.17-19.33-39.53V202.59H108.87L108.6,169H309.35q-12.63-15.63-35.23-40.62-21.28-23.32-32.63-34a87.61,87.61,0,0,0-19.15-13.62,45.19,45.19,0,0,0-21.28-5.63q-4.26,0-14.9,3.3t-20.57,6q-4.26-4-17.38-27.12T135.09,30.17q0-4.62,11.7-6.94a119.05,119.05,0,0,1,23.06-2.32q14.9,0,33.34,9.3t36.88,29.24Q250.72,70.75,278,104q26.49,32.22,53.3,65.05H403.4Z"/>
</svg>
