<svg id="Layer_1" data-name="Layer 1" xmlns="http://www.w3.org/2000/svg" width="512" height="512" viewBox="0 0 512 512">
  <defs>
    <style>
      .cls-1 {
        fill: #8436ff;
      }
    </style>
  </defs>
  <path class="cls-1" d="M303.36,239V128.54H203.94V270.06a42,42,0,0,0,2.49,13.78q2.46,7.2,5.59,9L375.45,404.18c13.25,7.9-13.46,17.07-24.22,10.76L186,305.32q-19.33-13.17-19.32-39.53V128.54h-57.8L108.59,95H309.35l0,0h22s0,0,0,0h72.09v33.55H340.65v125c0,16.39-9.78,22.71-20,27.09-5.6,2.4-17.16,8-25.33,7.57-8.29-1-9.32-32.06-9.32-32.06C297.56,256.17,303.36,246.58,303.36,239Z"/>
</svg>
