<svg id="Layer_1" data-name="Layer 1" xmlns="http://www.w3.org/2000/svg" width="512" height="512" viewBox="0 0 512 512">
  <defs>
    <style>
      .cls-1 {
        fill: #e84f4f;
      }
    </style>
  </defs>
  <path class="cls-1" d="M338.32,278.7l71.34,0V239.56l-104.56.28c11.27-17.14,26.18-53,23.94-73.82-1.13-10.43-2.18-20.19-6.53-29.08S310,118.12,298.13,107.18a137,137,0,0,0-38.47-25.32Q239.07,73,226,73q-16.47,0-35,6.18c-12.36,4.12-34.9,15.43-50,23.21L154.7,131.2q4.78,8.25,10.3,8.24c13.27-6.86,35.36-19.31,48.64-26.64q21.29-9.61,37.09-9.62,18.56,0,29.88,11.34c7.56,7.55,11.41,26.58,13.05,39.75,1.92,15.31,1.92,43-17.51,63.86-5.45,7.89-15.57,13.74-22,13.74q-17.88,2.74-31.94,4.46a193.88,193.88,0,0,1-22.33,1.72q-11.68,0-11.67,11.68,0,4.82,13.05,19.23t17.86,14.42c3.66,0,50.88-12.55,62.47-7.52,55.77,24.19,48.55,81.31,20.44,109.3-10.78,10.9-27.74,17.21-54.07,15.41-23.29-1.59-39.77-8.26-57.85-25S136.91,306.2,120.89,270l-18.55,10.31c20.15,43.73,55.77,102.9,79.36,125.22S231,439,259,439q41.2,0,67-22.71C354.67,389,367.8,349.42,352.5,305.42,350.81,300.57,344.74,287.38,338.32,278.7Z"/>
</svg>
