<svg id="Layer_1" data-name="Layer 1" xmlns="http://www.w3.org/2000/svg" width="512" height="512" viewBox="0 0 512 512">
  <defs>
    <style>
      .cls-1 {
        fill: #8436ff;
      }
    </style>
  </defs>
  <path class="cls-1" d="M363.68,278.7s-9.55-13.46-17.35-22.7c-2.76-3.27-15.88-16.16-15.88-16.16,11.28-17.14,26.19-53,23.94-73.82-1.13-10.43-2.18-20.19-6.52-29.08s-12.49-18.82-24.39-29.76A137,137,0,0,0,285,81.86Q264.41,73,251.36,73q-16.49,0-35,6.18c-12.36,4.12-34.91,15.43-50,23.21l13.74,28.85q4.8,8.25,10.3,8.24c13.28-6.86,35.36-19.31,48.65-26.64q21.27-9.61,37.09-9.62,18.54,0,29.88,11.34c7.55,7.55,11.4,26.58,13,39.75,1.91,15.31,1.91,43-17.52,63.86-5.44,7.89-15.57,13.74-22,13.74q-17.86,2.74-31.94,4.46a193.9,193.9,0,0,1-22.32,1.72q-11.69,0-11.68,11.68,0,4.82,13,19.23t17.86,14.42c3.66,0,50.88-12.55,62.48-7.52,55.76,24.19,48.54,81.31,20.44,109.3-10.78,10.9-27.75,17.21-54.07,15.41-23.3-1.59-39.77-8.26-57.86-25S162.26,306.2,146.24,270L127.7,280.33c20.14,43.73,55.77,102.9,79.36,125.22S256.39,439,284.33,439q41.21,0,67-22.71C380,389,393.16,349.42,377.85,305.42,376.16,300.57,370.1,287.38,363.68,278.7Z"/>
</svg>
