<svg id="Layer_1" data-name="Layer 1" xmlns="http://www.w3.org/2000/svg" width="512" height="512" viewBox="0 0 512 512">
  <defs>
    <style>
      .cls-1 {
        fill: #ff0;
      }
    </style>
  </defs>
  <path class="cls-1" d="M465.88,79.71a5,5,0,0,0-5-5H295.51a5,5,0,0,0-5,5v38.47a5,5,0,0,0,5,5h58V234.84H262.72c10.83-19.49,22.16-50,20.07-69.38-1.17-10.82-2.28-21-7-30.73-4.62-9.42-13.19-19.93-25.49-31.24a143,143,0,0,0-39.87-26.23C195.9,71,184.25,68,174.79,68a116.53,116.53,0,0,0-36.62,6.44c-9.66,3.22-26.25,10.91-50.72,23.51a5,5,0,0,0-2.22,6.59L99,133.35c.06.13.13.25.2.37,4.14,7.11,9.06,10.72,14.62,10.72a5,5,0,0,0,2.3-.56c10-5.19,25.24-13.64,37.46-20.44l11.12-6.17c13.4-6,25.13-9.09,34.86-9.09,11.08,0,19.7,3.23,26.34,9.87,5,5,9.37,18.8,11.62,36.84,1.75,14,2,40.36-16.2,59.83a4.1,4.1,0,0,0-.46.57c-4.58,6.63-13.21,11.58-17.87,11.58a4.87,4.87,0,0,0-.76.06c-11.91,1.83-22.6,3.32-31.79,4.44a191.29,191.29,0,0,1-21.72,1.68c-10.59,0-16.67,6.08-16.67,16.68,0,3.5,1.74,8.66,14.34,22.58,12.77,14.13,17.91,16.07,21.57,16.07,1.36,0,3.57-.46,10.37-1.91,11.85-2.55,31.68-6.8,43.69-6.8,4.18,0,5.88.54,6.42.78,21.19,9.19,34.29,24.08,37.89,43.06,3.79,20-3.66,42.85-19,58.13-9.48,9.58-23.18,14.24-41.9,14.24-2.65,0-5.43-.1-8.27-.29-22.7-1.56-38.06-8.19-54.81-23.68S90.81,305.42,74.24,268a5,5,0,0,0-3-2.72,5.14,5.14,0,0,0-1.59-.26,5,5,0,0,0-2.43.63L48.7,276a5,5,0,0,0-2.12,6.47c20.32,44.11,56,103.59,80.47,126.76S178.63,444,207.76,444c28.6,0,52.25-8.06,70.28-24l.14-.13c32.57-31,42.71-73.36,27.82-116.18a134.1,134.1,0,0,0-9.67-20.07h57.2V439a5,5,0,0,0,5,5l41.24-.26a5,5,0,0,0,5-5V123.18h56.14a5,5,0,0,0,5-5Zm-66.14,38.47v320.6l-41.21.26V278.7H287.11c6.42,8.68,12.48,21.87,14.17,26.72,15.3,44,2.17,83.56-26.55,110.91Q249,439,207.76,439q-41.91,0-77.28-33.49c-23.59-22.32-59.21-81.49-79.36-125.23L69.67,270c16,36.18,51.14,88.86,69.24,105.57s34.56,23.39,57.86,25c26.32,1.8,43.28-4.52,54.06-15.41,28.11-28,35.33-85.11-20.44-109.3-11.59-5-58.81,7.52-62.47,7.52q-4.81,0-17.86-14.42T137,249.73q0-11.67,11.67-11.68A193.88,193.88,0,0,0,171,236.33q14.07-1.71,31.94-4.46c6.41,0,16.54-5.85,22-13.74,19.43-20.81,19.43-48.55,17.51-63.86-1.64-13.17-5.49-32.2-13.05-39.75s-17.51-11.34-29.88-11.34q-15.8,0-37.09,9.62c-13.28,7.33-35.36,19.78-48.64,26.64q-5.5,0-10.3-8.24L89.74,102.35c15.11-7.78,37.65-19.09,50-23.21S163.8,73,174.79,73q13,0,33.65,8.9a136.9,136.9,0,0,1,38.47,25.32q17.85,16.41,24.38,29.76c4.35,8.89,5.4,18.65,6.53,29.08,2.24,20.78-12.66,56.68-23.94,73.82H358.53V118.18h-63V79.71H460.88v38.47Z"/>
</svg>
