<svg id="Layer_1" data-name="Layer 1" xmlns="http://www.w3.org/2000/svg" width="512" height="512" viewBox="0 0 512 512">
  <defs>
    <style>
      .cls-1 {
        fill: #ff0;
      }
    </style>
  </defs>
  <g>
    <path class="cls-1" d="M432.43,79.71a5,5,0,0,0-5-5H262.06a5,5,0,0,0-5,5v38.47a5,5,0,0,0,5,5h58V234.84H229.27c10.83-19.49,22.16-50,20.07-69.38-1.17-10.82-2.28-21-7-30.73-4.63-9.42-13.2-19.93-25.49-31.24A143.24,143.24,0,0,0,177,77.26C162.46,71,150.8,68,141.34,68a116.53,116.53,0,0,0-36.62,6.44C95.06,77.62,78.47,85.31,54,97.91a5,5,0,0,0-2.22,6.59l13.73,28.85c.06.13.13.25.2.37,4.14,7.11,9.06,10.72,14.62,10.72a5,5,0,0,0,2.3-.56c10-5.19,25.24-13.64,37.46-20.44l11.12-6.17c13.41-6,25.13-9.09,34.86-9.09,11.08,0,19.7,3.23,26.34,9.87,5,5,9.37,18.8,11.62,36.84,1.75,14,2,40.36-16.2,59.83a5,5,0,0,0-.46.57c-4.58,6.63-13.21,11.58-17.87,11.58a4.87,4.87,0,0,0-.76.06c-11.91,1.83-22.6,3.32-31.79,4.44a191.31,191.31,0,0,1-21.71,1.68c-10.6,0-16.68,6.08-16.68,16.68,0,3.5,1.74,8.66,14.34,22.58,12.77,14.13,17.91,16.07,21.57,16.07,1.36,0,3.57-.46,10.37-1.91,11.85-2.55,31.68-6.8,43.69-6.8,4.18,0,5.89.54,6.42.78,21.19,9.19,34.29,24.08,37.89,43.06,3.79,20-3.66,42.85-19,58.13-9.47,9.58-23.18,14.24-41.9,14.24-2.65,0-5.43-.1-8.27-.29C141,394,125.6,387.4,108.85,371.91S57.37,305.42,40.79,268a5,5,0,0,0-3-2.72,5.09,5.09,0,0,0-1.59-.26,5,5,0,0,0-2.43.63L15.25,276a5,5,0,0,0-2.12,6.47C33.45,326.53,69.11,386,93.6,409.18S145.18,444,174.31,444c28.6,0,52.25-8.06,70.28-24l.14-.13c32.57-31,42.71-73.36,27.82-116.18a134.1,134.1,0,0,0-9.67-20.07h57.2V439a5,5,0,0,0,5,5l41.25-.26a5,5,0,0,0,5-5V123.18h56.13a5,5,0,0,0,5-5ZM366.3,118.18v320.6l-41.22.26V278.7H253.66c6.42,8.68,12.48,21.87,14.17,26.72,15.31,44,2.17,83.56-26.55,110.91Q215.53,439,174.31,439,132.4,439,97,405.55c-23.59-22.32-59.21-81.49-79.36-125.23L36.22,270c16,36.18,51.15,88.86,69.24,105.57s34.56,23.39,57.86,25c26.32,1.8,43.29-4.52,54.07-15.41,28.1-28,35.32-85.11-20.45-109.3-11.59-5-58.81,7.52-62.47,7.52q-4.82,0-17.86-14.42t-13-19.23q0-11.67,11.68-11.68a193.9,193.9,0,0,0,22.32-1.72q14.07-1.71,31.94-4.46c6.41,0,16.54-5.85,22-13.74,19.43-20.81,19.43-48.55,17.52-63.86-1.65-13.17-5.5-32.2-13.05-39.75s-17.52-11.34-29.88-11.34q-15.81,0-37.09,9.62c-13.29,7.33-35.37,19.78-48.65,26.64q-5.51,0-10.3-8.24L56.29,102.35c15.11-7.78,37.65-19.09,50-23.21s24-6.18,35-6.18q13,0,33.66,8.9a137,137,0,0,1,38.46,25.32q17.85,16.41,24.39,29.76c4.34,8.89,5.39,18.65,6.52,29.08,2.25,20.78-12.66,56.68-23.94,73.82H325.08V118.18h-63V79.71H427.43v38.47Z"/>
    <path class="cls-1" d="M460.88,150.71a38.45,38.45,0,1,0,38.45,38.44A38.49,38.49,0,0,0,460.88,150.71Zm0,71.89a33.45,33.45,0,1,1,33.45-33.45A33.44,33.44,0,0,1,460.88,222.6Z"/>
    <path class="cls-1" d="M460.88,291.72a38.45,38.45,0,1,0,38.45,38.45A38.5,38.5,0,0,0,460.88,291.72Zm0,71.9a33.45,33.45,0,1,1,33.45-33.45A33.45,33.45,0,0,1,460.88,363.62Z"/>
  </g>
</svg>
