<svg id="Layer_1" data-name="Layer 1" xmlns="http://www.w3.org/2000/svg" width="512" height="512" viewBox="0 0 512 512">
  <defs>
    <style>
      .cls-1 {
        fill: #8436ff;
      }
    </style>
  </defs>
  <g>
    <path class="cls-1" d="M427.43,79.71H262.06v38.47h63V239.84H220.43c11.28-17.14,26.19-53,23.94-73.82-1.13-10.43-2.18-20.19-6.52-29.08s-12.49-18.82-24.39-29.76A137,137,0,0,0,175,81.86Q154.39,73,141.34,73q-16.49,0-35,6.18c-12.37,4.12-34.91,15.43-50,23.21L70,131.2q4.8,8.25,10.3,8.24c13.28-6.86,35.36-19.31,48.65-26.64q21.27-9.61,37.09-9.62,18.54,0,29.88,11.34c7.55,7.55,11.4,26.58,13.05,39.75,1.91,15.31,1.91,43-17.52,63.86-5.44,7.89-15.57,13.74-22,13.74q-17.87,2.74-31.94,4.46a193.9,193.9,0,0,1-22.32,1.72q-11.68,0-11.68,11.68,0,4.82,13,19.23t17.86,14.42c3.66,0,50.88-12.55,62.47-7.52,55.77,24.19,48.55,81.31,20.45,109.3-10.78,10.89-27.75,17.21-54.07,15.41-23.3-1.59-39.77-8.26-57.86-25S52.24,306.2,36.22,270l-18.55,10.3C37.82,324.06,73.44,383.23,97,405.55S146.37,439,174.31,439q41.2,0,67-22.71C270,389,283.14,349.42,267.83,305.42c-1.69-4.85-7.75-18-14.17-26.72h71.42V439l41.22-.26V118.18h61.13Z"/>
    <circle class="cls-1" cx="460.88" cy="188.98" r="33.45" transform="translate(-37.24 190.76) rotate(-22.5)"/>
  </g>
</svg>
