<svg id="Layer_1" data-name="Layer 1" xmlns="http://www.w3.org/2000/svg" width="512" height="512" viewBox="0 0 512 512">
  <defs>
    <style>
      .cls-1 {
        fill: #8436ff;
      }
    </style>
  </defs>
  <g>
    <path class="cls-1" d="M317.67,278.7l71.42,0L389,239.56l-104.57.28c11.28-17.14,26.19-53,23.95-73.82-1.13-10.43-2.18-20.19-6.53-29.08s-12.48-18.82-24.38-29.76A137,137,0,0,0,239,81.86Q218.4,73,205.35,73q-16.48,0-35,6.18c-12.36,4.12-34.9,15.43-50,23.21L134,131.2q4.8,8.25,10.31,8.24c13.27-6.86,35.35-19.31,48.64-26.64q21.28-9.61,37.09-9.62,18.55,0,29.88,11.34c7.56,7.55,11.4,26.58,13.05,39.75,1.92,15.31,1.92,43-17.51,63.86-5.45,7.89-15.58,13.74-22,13.74q-17.88,2.74-31.94,4.46a193.88,193.88,0,0,1-22.33,1.72q-11.69,0-11.67,11.68,0,4.82,13,19.23t17.85,14.42c3.66,0,50.88-12.55,62.48-7.52,55.76,24.19,48.55,81.31,20.44,109.3-10.78,10.9-27.74,17.21-54.07,15.41-23.3-1.59-39.77-8.26-57.85-25S116.26,306.2,100.23,270L81.69,280.33c20.14,43.73,55.77,102.9,79.36,125.22S210.39,439,238.32,439q41.22,0,67-22.71C334,389,347.15,349.42,331.84,305.42,330.16,300.57,324.09,287.38,317.67,278.7Z"/>
    <polygon class="cls-1" points="389.1 118.41 389.01 237.65 389.1 277.08 389.1 439.04 430.31 438.78 430.31 118.41 389.1 118.41"/>
  </g>
</svg>
